<?xml version="1.0" encoding="UTF-8" standalone="yes"?>
<svg xmlns="http://www.w3.org/2000/svg" xmlns:xlink="http://www.w3.org/1999/xlink" width="234.66666666666666px" height="106.66666666666666px" viewBox="0 0 176 80" version="1.1">
  <defs>
    <linearGradient id="linear0" gradientUnits="userSpaceOnUse" x1="0" y1="0" x2="1" y2="0" gradientTransform="matrix(45.525709,0,0,45.71229,2011.936541,-969.607195)">
      <stop offset="0" style="stop-color:rgb(46.27451%,4.705882%,1.568627%);stop-opacity:1;"/>
      <stop offset="1" style="stop-color:rgb(83.921569%,4.705882%,7.058824%);stop-opacity:1;"/>
    </linearGradient>
    <linearGradient id="linear1" gradientUnits="userSpaceOnUse" x1="0" y1="0" x2="1" y2="0" gradientTransform="matrix(28.333469,0,0,28.44959,146.376939,39.613707)">
      <stop offset="0" style="stop-color:rgb(46.27451%,4.705882%,1.568627%);stop-opacity:1;"/>
      <stop offset="1" style="stop-color:rgb(83.921569%,4.705882%,7.058824%);stop-opacity:1;"/>
    </linearGradient>
    <linearGradient id="linear2" gradientUnits="userSpaceOnUse" x1="0" y1="0" x2="1" y2="0" gradientTransform="matrix(94.499565,0,0,94.886858,49.726039,39.918841)">
      <stop offset="0" style="stop-color:rgb(14.509804%,12.54902%,34.509804%);stop-opacity:1;"/>
      <stop offset="1" style="stop-color:rgb(16.470588%,13.72549%,44.705882%);stop-opacity:1;"/>
    </linearGradient>
  </defs>
  <g id="surface1">
    <path style=" stroke:none;fill-rule:evenodd;fill:url(#linear0);" d="M 26.730469 1.160156 L 46.566406 1.160156 L 46.683594 78.078125 L 24.808594 78.042969 C 25.777344 75.628906 26.6875 73.140625 27.386719 70.824219 C 31.523438 57.132812 21.914062 52.707031 30.765625 36.617188 C 38.4375 35.128906 41.453125 28.019531 40.363281 22.613281 L 40.398438 20.882812 C 39.910156 20.539062 39.5625 20.375 39.164062 19.96875 C 34.761719 15.453125 29.683594 11.582031 26.730469 1.160156 M 4.316406 1.160156 L 22.101562 1.160156 C 22.652344 9.921875 26.234375 15.8125 29.496094 19.96875 C 29.859375 20.425781 30.238281 20.550781 30.730469 20.882812 L 30.695312 22.613281 C 31.792969 28.019531 28.785156 35.132812 21.113281 36.625 C 16.539062 49.75 25.058594 53.597656 24.65625 64.605469 C 24.4375 70.71875 23.542969 73.6875 22.371094 78.042969 L 1.15625 78.042969 L 1.15625 1.160156 L 4.316406 1.160156 "/>
    <path style=" stroke:none;fill-rule:nonzero;fill:url(#linear1);" d="M 174.707031 78.066406 L 159.128906 78.066406 L 159.128906 24.695312 L 146.375 24.695312 L 146.375 13.230469 L 147.78125 13.230469 C 158.3125 13.230469 161.730469 9.308594 163.867188 1.160156 L 174.707031 1.160156 L 174.707031 78.066406 "/>
    <path style=" stroke:none;fill-rule:nonzero;fill:url(#linear2);" d="M 144.226562 71.867188 L 144.226562 78.035156 L 130.074219 78.035156 L 130.074219 47.027344 L 143.71875 47.027344 L 143.71875 53.199219 L 138.257812 53.199219 L 138.257812 59.09375 L 143.363281 59.09375 L 143.363281 64.980469 L 138.257812 64.980469 L 138.257812 71.867188 Z M 119.8125 47.027344 L 128.003906 47.027344 L 128.003906 78.035156 L 119.8125 78.035156 Z M 109.394531 47.027344 L 118.007812 47.027344 L 113.832031 78.035156 L 101.511719 78.035156 L 96.757812 47.027344 L 105.371094 47.027344 C 106.351562 55.566406 107.058594 62.808594 107.488281 68.761719 C 107.917969 62.746094 108.386719 57.425781 108.886719 52.792969 Z M 87.722656 69.234375 C 87.722656 71.0625 87.644531 72.214844 87.496094 72.699219 C 87.335938 73.183594 86.992188 73.425781 86.445312 73.425781 C 85.914062 73.425781 85.570312 73.21875 85.421875 72.796875 C 85.277344 72.375 85.207031 71.265625 85.207031 69.457031 L 85.207031 55 C 85.207031 53.417969 85.320312 52.453125 85.542969 52.128906 C 85.761719 51.804688 86.082031 51.640625 86.5 51.640625 C 86.992188 51.640625 87.324219 51.84375 87.484375 52.246094 C 87.640625 52.648438 87.722656 53.566406 87.722656 55 Z M 94.21875 49.644531 C 93.402344 48.558594 92.324219 47.75 90.992188 47.207031 C 89.652344 46.664062 88.144531 46.394531 86.46875 46.394531 C 84.6875 46.394531 83.132812 46.679688 81.808594 47.25 C 80.476562 47.828125 79.425781 48.648438 78.640625 49.722656 C 77.855469 50.792969 77.390625 51.980469 77.246094 53.273438 C 77.09375 54.570312 77.019531 56.773438 77.019531 59.882812 L 77.019531 65.183594 C 77.019531 68.375 77.101562 70.613281 77.25 71.878906 C 77.402344 73.160156 77.894531 74.339844 78.710938 75.421875 C 79.527344 76.503906 80.59375 77.324219 81.9375 77.863281 C 83.273438 78.40625 84.785156 78.675781 86.46875 78.675781 C 88.234375 78.675781 89.792969 78.390625 91.113281 77.8125 C 92.453125 77.242188 93.503906 76.417969 94.292969 75.347656 C 95.066406 74.273438 95.535156 73.097656 95.679688 71.796875 C 95.835938 70.5 95.914062 68.296875 95.914062 65.183594 L 95.914062 59.882812 C 95.914062 56.691406 95.832031 54.464844 95.671875 53.183594 C 95.511719 51.910156 95.039062 50.722656 94.21875 49.644531 Z M 64.25 47.027344 L 74.863281 47.027344 L 74.863281 78.035156 L 67.757812 78.035156 L 67.71875 57.101562 L 64.878906 78.035156 L 59.855469 78.035156 L 56.871094 57.53125 L 56.835938 78.035156 L 49.726562 78.035156 L 49.726562 47.027344 L 60.265625 47.027344 C 60.539062 48.894531 60.863281 51.085938 61.238281 53.609375 L 62.402344 61.503906 Z M 143.710938 43.90625 L 124.761719 43.90625 L 124.761719 1.160156 L 142.992188 1.160156 L 142.992188 9.652344 L 135.488281 9.652344 L 135.488281 17.699219 L 142.5 17.699219 L 142.5 25.890625 L 135.488281 25.890625 L 135.488281 35.289062 L 143.710938 35.289062 Z M 120.273438 40.597656 C 119.214844 41.980469 117.832031 43.03125 116.105469 43.75 C 114.382812 44.464844 112.351562 44.824219 110.011719 44.824219 C 107.421875 44.824219 105.128906 44.398438 103.152344 43.550781 C 101.164062 42.707031 99.683594 41.597656 98.699219 40.242188 C 97.714844 38.882812 97.136719 37.445312 96.964844 35.9375 C 96.78125 34.425781 96.695312 31.25 96.695312 26.414062 L 96.695312 1.160156 L 107.984375 1.160156 L 107.984375 33.175781 C 107.984375 35.050781 108.085938 36.246094 108.289062 36.765625 C 108.492188 37.289062 108.90625 37.546875 109.527344 37.546875 C 110.238281 37.546875 110.691406 37.265625 110.898438 36.6875 C 111.101562 36.117188 111.203125 34.761719 111.203125 32.625 L 111.203125 1.160156 L 122.496094 1.160156 L 122.496094 29.695312 C 122.496094 32.945312 122.390625 35.230469 122.175781 36.546875 C 121.964844 37.859375 121.328125 39.210938 120.273438 40.597656 Z M 95.753906 43.90625 L 77.664062 43.90625 L 77.664062 1.160156 L 88.960938 1.160156 L 88.960938 35.289062 L 95.753906 35.289062 Z M 64.289062 17.015625 C 63.996094 17.546875 63.292969 17.8125 62.199219 17.8125 C 61.933594 17.8125 61.566406 17.828125 61.09375 17.84375 L 61.09375 8.378906 C 62.238281 8.398438 63.011719 8.476562 63.40625 8.617188 C 63.796875 8.757812 64.121094 9.09375 64.371094 9.628906 C 64.617188 10.160156 64.738281 11.097656 64.738281 12.429688 C 64.738281 14.957031 64.59375 16.476562 64.289062 17.015625 Z M 64.738281 32.558594 C 64.738281 34.289062 64.519531 35.375 64.089844 35.816406 C 63.65625 36.261719 62.65625 36.507812 61.09375 36.5625 L 61.09375 24.550781 C 62.75 24.609375 63.773438 24.828125 64.152344 25.21875 C 64.542969 25.605469 64.738281 26.714844 64.738281 28.550781 Z M 69.335938 20.707031 C 71.679688 20.175781 73.25 19.417969 74.050781 18.433594 C 74.847656 17.445312 75.246094 15.707031 75.246094 13.207031 C 75.246094 9.511719 74.683594 6.828125 73.558594 5.167969 C 72.429688 3.5 70.953125 2.523438 69.125 1.980469 C 67.292969 1.4375 64.601562 1.160156 61.050781 1.160156 L 49.796875 1.160156 L 49.796875 43.90625 L 62.835938 43.90625 C 67.359375 43.90625 70.367188 43.648438 71.828125 43.136719 C 73.292969 42.621094 74.359375 41.667969 75.03125 40.265625 C 75.695312 38.867188 76.035156 36.722656 76.035156 33.820312 L 76.035156 29.835938 C 76.035156 27.035156 75.570312 24.960938 74.640625 23.609375 C 73.714844 22.261719 71.945312 21.285156 69.335938 20.707031 "/>
  </g>
</svg>