<?xml version="1.0" encoding="UTF-8" standalone="no"?>
<!-- Created with Inkscape (http://www.inkscape.org/) -->

<svg
   xmlns:dc="http://purl.org/dc/elements/1.1/"
   xmlns:cc="http://creativecommons.org/ns#"
   xmlns:rdf="http://www.w3.org/1999/02/22-rdf-syntax-ns#"
   xmlns:svg="http://www.w3.org/2000/svg"
   xmlns="http://www.w3.org/2000/svg"
   xmlns:xlink="http://www.w3.org/1999/xlink"
   xmlns:sodipodi="http://sodipodi.sourceforge.net/DTD/sodipodi-0.dtd"
   xmlns:inkscape="http://www.inkscape.org/namespaces/inkscape"
   width="538.58264"
   height="243.50404"
   id="svg10286"
   version="1.1"
   inkscape:version="0.48.4 r9939"
   sodipodi:docname="Logo_Blue_Movie_1.svg">
  <defs
     id="defs3">
    <linearGradient
       x1="0"
       y1="0"
       x2="1"
       y2="0"
       gradientUnits="userSpaceOnUse"
       gradientTransform="matrix(19.591,0,0,-19.591,421.628,200.37)"
       spreadMethod="pad"
       id="linearGradient4561">
      <stop
         style="stop-opacity:1;stop-color:#252058"
         offset="0"
         id="stop4563" />
      <stop
         style="stop-opacity:1;stop-color:#2a2372"
         offset="1"
         id="stop4565" />
    </linearGradient>
    <linearGradient
       x1="0"
       y1="0"
       x2="1"
       y2="0"
       gradientUnits="userSpaceOnUse"
       gradientTransform="matrix(5.8739,0,0,-5.8739,441.665,200.433)"
       spreadMethod="pad"
       id="linearGradient4543">
      <stop
         style="stop-opacity:1;stop-color:#760c04"
         offset="0"
         id="stop4545" />
      <stop
         style="stop-opacity:1;stop-color:#d60c12"
         offset="1"
         id="stop4547" />
    </linearGradient>
    <clipPath
       clipPathUnits="userSpaceOnUse"
       id="clipPath4491">
      <path
         inkscape:connector-curvature="0"
         d="m 448.069,208.914 -37.04,0 0,-16.95 37.04,0 0,16.95 z"
         id="path4493" />
    </clipPath>
    <clipPath
       clipPathUnits="userSpaceOnUse"
       id="clipPath4497">
      <path
         inkscape:connector-curvature="0"
         d="m 411.029,208.914 37.109,0 0,-17.042 -37.109,0 0,17.042"
         id="path4499" />
    </clipPath>
    <clipPath
       clipPathUnits="userSpaceOnUse"
       id="clipPath4503">
      <path
         inkscape:connector-curvature="0"
         d="m 411.029,208.913 0,-16.762 37.039,0 0,16.762 -37.039,0"
         id="path4505" />
    </clipPath>
    <clipPath
       clipPathUnits="userSpaceOnUse"
       id="clipPath4509">
      <path
         inkscape:connector-curvature="0"
         d="m 1391.81,306.142 -1400.314,0 0,-314.646 1400.314,0 0,314.646 z"
         id="path4511" />
    </clipPath>
    <clipPath
       clipPathUnits="userSpaceOnUse"
       id="clipPath4515">
      <path
         inkscape:connector-curvature="0"
         d="m 0,297.63 1383.3,0 L 1383.3,0 0,0 0,297.63 z"
         id="path4517" />
    </clipPath>
    <linearGradient
       x1="0"
       y1="0"
       x2="1"
       y2="0"
       gradientUnits="userSpaceOnUse"
       gradientTransform="matrix(9.438077,0,0,-9.438077,411.55899,200.43176)"
       spreadMethod="pad"
       id="linearGradient4525">
      <stop
         style="stop-opacity:1;stop-color:#760c04"
         offset="0"
         id="stop4527" />
      <stop
         style="stop-opacity:1;stop-color:#d60c12"
         offset="1"
         id="stop4529" />
    </linearGradient>
    <linearGradient
       inkscape:collect="always"
       xlink:href="#linearGradient4525"
       id="linearGradient10401"
       gradientUnits="userSpaceOnUse"
       gradientTransform="matrix(9.438077,0,0,-9.438077,411.55899,200.43176)"
       spreadMethod="pad"
       x1="0"
       y1="0"
       x2="1"
       y2="0" />
    <linearGradient
       inkscape:collect="always"
       xlink:href="#linearGradient4543"
       id="linearGradient10403"
       gradientUnits="userSpaceOnUse"
       gradientTransform="matrix(5.8739,0,0,-5.8739,441.665,200.433)"
       spreadMethod="pad"
       x1="0"
       y1="0"
       x2="1"
       y2="0" />
    <linearGradient
       inkscape:collect="always"
       xlink:href="#linearGradient4561"
       id="linearGradient10405"
       gradientUnits="userSpaceOnUse"
       gradientTransform="matrix(19.591,0,0,-19.591,421.628,200.37)"
       spreadMethod="pad"
       x1="0"
       y1="0"
       x2="1"
       y2="0" />
    <linearGradient
       inkscape:collect="always"
       xlink:href="#linearGradient4525"
       id="linearGradient3058"
       gradientUnits="userSpaceOnUse"
       gradientTransform="matrix(9.438077,0,0,-9.438077,411.55899,200.43176)"
       spreadMethod="pad"
       x1="0"
       y1="0"
       x2="1"
       y2="0" />
    <linearGradient
       inkscape:collect="always"
       xlink:href="#linearGradient4543"
       id="linearGradient3060"
       gradientUnits="userSpaceOnUse"
       gradientTransform="matrix(5.8739,0,0,-5.8739,441.665,200.433)"
       spreadMethod="pad"
       x1="0"
       y1="0"
       x2="1"
       y2="0" />
    <linearGradient
       inkscape:collect="always"
       xlink:href="#linearGradient4561"
       id="linearGradient3062"
       gradientUnits="userSpaceOnUse"
       gradientTransform="matrix(19.591,0,0,-19.591,421.628,200.37)"
       spreadMethod="pad"
       x1="0"
       y1="0"
       x2="1"
       y2="0" />
  </defs>
  <sodipodi:namedview
     inkscape:document-units="mm"
     id="base"
     pagecolor="#ffffff"
     bordercolor="#666666"
     borderopacity="1.0"
     inkscape:pageopacity="0.0"
     inkscape:pageshadow="2"
     inkscape:zoom="0.7"
     inkscape:cx="277.15362"
     inkscape:cy="29.773295"
     inkscape:current-layer="layer1"
     showgrid="false"
     units="mm"
     fit-margin-top="1"
     fit-margin-left="1"
     fit-margin-right="1"
     fit-margin-bottom="1"
     inkscape:window-width="1366"
     inkscape:window-height="716"
     inkscape:window-x="-8"
     inkscape:window-y="-8"
     inkscape:window-maximized="1" />
  <metadata
     id="metadata4">
    <rdf:RDF>
      <cc:Work
         rdf:about="">
        <dc:format>image/svg+xml</dc:format>
        <dc:type
           rdf:resource="http://purl.org/dc/dcmitype/StillImage" />
        <dc:title />
      </cc:Work>
    </rdf:RDF>
  </metadata>
  <g
     inkscape:label="Layer 1"
     inkscape:groupmode="layer"
     id="layer1"
     transform="translate(-103.7697,-286.90674)">
    <g
       id="g3041"
       transform="matrix(1.0294577,0,0,1.0294577,-3.1612004,-15.520334)">
      <g
         transform="matrix(14.349633,0,0,-14.349633,-5798.4076,3287.2777)"
         clip-path="url(#clipPath4491)"
         id="g4489">
        <g
           clip-path="url(#clipPath4497)"
           id="g4495">
          <g
             clip-path="url(#clipPath4503)"
             id="g4501">
            <g
               clip-path="url(#clipPath4509)"
               id="g4507">
              <g
                 clip-path="url(#clipPath4515)"
                 id="g4513">
                <g
                   transform="translate(416.861,208.372)"
                   id="g4523">
                  <path
                     inkscape:connector-curvature="0"
                     id="path4531"
                     style="fill:url(#linearGradient3058);fill-opacity:1;fill-rule:evenodd;stroke:none"
                     d="m 0,0 4.112,0 0.024,-15.881 -4.535,0.008 c 0.201,0.498 0.39,1.012 0.535,1.49 0.857,2.827 -1.135,3.741 0.7,7.063 1.591,0.307 2.216,1.775 1.99,2.891 l 0.007,0.357 C 2.732,-4.001 2.66,-3.967 2.577,-3.883 1.665,-2.951 0.612,-2.151 0,0 m -4.647,0 3.687,0 c 0.114,-1.809 0.857,-3.025 1.533,-3.883 0.075,-0.094 0.154,-0.12 0.256,-0.189 L 0.822,-4.429 c 0.227,-1.116 -0.396,-2.585 -1.987,-2.893 -0.948,-2.71 0.818,-3.504 0.735,-5.777 -0.046,-1.262 -0.231,-1.875 -0.474,-2.774 l -4.398,0 0,15.873 0.655,0" />
                </g>
              </g>
            </g>
          </g>
        </g>
      </g>
      <g
         transform="matrix(14.349633,0,0,-14.349633,-5798.4076,3287.2777)"
         id="g4533">
        <g
           id="g4535">
          <g
             id="g4541">
            <path
               d="m 447.538,192.494 -3.229,0 0,11.019 -2.644,0 0,2.367 0.291,0 c 2.183,0 2.892,0.81 3.335,2.492 l 2.247,0 0,-15.878"
               style="fill:url(#linearGradient3060);stroke:none"
               id="path4549"
               inkscape:connector-curvature="0" />
          </g>
        </g>
      </g>
      <g
         transform="matrix(14.349633,0,0,-14.349633,-5798.4076,3287.2777)"
         id="g4551">
        <g
           id="g4553">
          <g
             id="g4559">
            <path
               d="m 441.219,193.774 0,-1.274 -2.934,0 0,6.402 2.829,0 0,-1.274 -1.132,0 0,-1.217 1.058,0 0,-1.215 -1.058,0 0,-1.422 1.237,0 z m -5.061,5.128 1.6982,0 0,-6.4021 -1.6982,0 0,6.4021 z m -2.16,0 1.786,0 -0.866,-6.402 -2.554,0 -0.986,6.402 1.786,0 c 0.203,-1.763 0.35,-3.258 0.439,-4.487 0.089,1.242 0.186,2.34 0.29,3.297 l 0.105,1.19 z m -4.493,-4.585 c 0,-0.377 -0.016,-0.615 -0.047,-0.715 -0.033,-0.1 -0.104,-0.15 -0.218,-0.15 -0.11,0 -0.181,0.043 -0.212,0.13 -0.03,0.087 -0.044,0.316 -0.044,0.689 l 0,2.985 c 0,0.327 0.023,0.526 0.069,0.593 0.046,0.067 0.112,0.101 0.199,0.101 0.102,0 0.171,-0.042 0.204,-0.125 0.032,-0.083 0.049,-0.273 0.049,-0.569 l 0,-2.939 z m 1.347,4.045 c -0.169,0.224 -0.393,0.391 -0.669,0.503 -0.278,0.112 -0.59,0.168 -0.938,0.168 -0.369,0 -0.691,-0.059 -0.966,-0.177 -0.276,-0.119 -0.494,-0.288 -0.657,-0.51 -0.162,-0.221 -0.259,-0.466 -0.289,-0.733 -0.031,-0.268 -0.047,-0.723 -0.047,-1.365 l 0,-1.094 c 0,-0.659 0.017,-1.121 0.048,-1.383 0.032,-0.264 0.134,-0.508 0.303,-0.731 0.169,-0.224 0.39,-0.393 0.669,-0.504 0.277,-0.112 0.59,-0.168 0.939,-0.168 0.366,0 0.689,0.059 0.963,0.178 0.278,0.118 0.496,0.288 0.659,0.509 0.161,0.222 0.258,0.465 0.288,0.733 0.032,0.268 0.048,0.723 0.048,1.366 l 0,1.094 c 0,0.659 -0.017,1.119 -0.05,1.383 -0.033,0.263 -0.131,0.508 -0.301,0.731 z m -6.213,0.54 2.2,0 0,-6.402 -1.473,0 -0.008,4.322 -0.589,-4.322 -1.041,0 -0.619,4.234 -0.007,-4.234 -1.474,0 0,6.402 2.185,0 c 0.057,-0.385 0.124,-0.838 0.202,-1.359 l 0.241,-1.63 0.383,2.989 z m 16.473,0.645 -3.928,0 0,8.825 3.779,0 0,-1.753 -1.555,0 0,-1.661 1.453,0 0,-1.692 -1.453,0 0,-1.94 1.704,0 0,-1.779 z m -4.859,0.683 c -0.219,-0.286 -0.506,-0.503 -0.864,-0.651 -0.357,-0.148 -0.778,-0.222 -1.263,-0.222 -0.537,0 -1.012,0.088 -1.422,0.263 -0.412,0.174 -0.719,0.403 -0.923,0.683 -0.204,0.281 -0.324,0.578 -0.36,0.889 -0.038,0.312 -0.056,0.968 -0.056,1.966 l 0,5.214 2.341,0 0,-6.61 c 0,-0.387 0.021,-0.634 0.063,-0.741 0.042,-0.108 0.128,-0.161 0.257,-0.161 0.147,0 0.241,0.058 0.284,0.177 0.042,0.118 0.063,0.398 0.063,0.839 l 0,6.496 2.341,0 0,-5.891 c 0,-0.671 -0.022,-1.143 -0.066,-1.415 -0.044,-0.271 -0.176,-0.55 -0.395,-0.836 z m -5.083,-0.683 -3.75,0 0,8.825 2.342,0 0,-7.046 1.408,0 0,-1.779 z m -6.523,5.552 c -0.061,-0.11 -0.206,-0.165 -0.433,-0.165 -0.055,0 -0.131,-0.003 -0.229,-0.006 l 0,1.954 c 0.237,-0.004 0.397,-0.02 0.479,-0.049 0.081,-0.029 0.148,-0.099 0.2,-0.209 0.051,-0.11 0.076,-0.303 0.076,-0.578 0,-0.522 -0.03,-0.836 -0.093,-0.947 z m 0.093,-3.209 c 0,-0.358 -0.045,-0.582 -0.134,-0.673 -0.09,-0.092 -0.297,-0.143 -0.621,-0.154 l 0,2.48 c 0.343,-0.012 0.555,-0.057 0.634,-0.138 0.081,-0.08 0.121,-0.309 0.121,-0.688 l 0,-0.827 z m 0.953,2.447 c 0.486,0.109 0.812,0.266 0.978,0.469 0.165,0.204 0.248,0.563 0.248,1.079 0,0.763 -0.117,1.317 -0.35,1.66 -0.234,0.344 -0.54,0.546 -0.919,0.658 -0.38,0.112 -0.938,0.169 -1.674,0.169 l -2.333,0 0,-8.825 2.703,0 c 0.938,0 1.561,0.053 1.864,0.159 0.304,0.106 0.525,0.303 0.664,0.592 0.138,0.289 0.208,0.732 0.208,1.331 l 0,0.823 c 0,0.578 -0.096,1.006 -0.289,1.285 -0.192,0.279 -0.559,0.48 -1.1,0.6"
               style="fill:url(#linearGradient3062);stroke:none"
               id="path4567"
               inkscape:connector-curvature="0" />
          </g>
        </g>
      </g>
    </g>
  </g>
</svg>
