<?xml version="1.0" encoding="UTF-8" standalone="yes"?>
<svg xmlns="http://www.w3.org/2000/svg" xmlns:xlink="http://www.w3.org/1999/xlink" width="92px" height="105.33333333333333px" viewBox="0 0 69 79" version="1.1">
  <g id="surface1">
    <path style=" stroke:none;fill-rule:nonzero;fill:rgb(0%,0%,0%);fill-opacity:1;" d="M 35.054688 0.191406 C 35.179688 0.03125 35.402344 -0.109375 35.546875 0.117188 C 37.242188 1.792969 38.933594 3.46875 40.632812 5.136719 C 40.726562 5.246094 40.964844 5.421875 40.773438 5.5625 C 29.675781 16.574219 18.582031 27.59375 7.496094 38.613281 C 6.835938 39.234375 6.257812 39.941406 5.542969 40.5 C 3.652344 38.71875 1.886719 36.8125 0 35.03125 C 2.035156 32.910156 4.199219 30.910156 6.207031 28.769531 C 6.972656 28.113281 7.664062 27.382812 8.382812 26.679688 C 17.273438 17.851562 26.15625 9.015625 35.054688 0.191406 Z M 35.054688 0.191406 "/>
    <path style=" stroke:none;fill-rule:nonzero;fill:rgb(0%,0%,0%);fill-opacity:1;" d="M 41.507812 12.007812 C 43.710938 11.664062 46.027344 11.871094 48.066406 12.804688 C 50.832031 14.015625 53.058594 16.390625 54.074219 19.214844 C 54.871094 21.480469 54.808594 24.015625 54.015625 26.273438 C 53.011719 28.789062 51.074219 30.785156 49.199219 32.691406 C 47.773438 34.09375 46.378906 35.550781 44.71875 36.6875 C 43.910156 37.207031 43.007812 37.644531 42.03125 37.730469 C 41 37.847656 39.96875 37.664062 38.957031 37.484375 C 39.238281 38.949219 39.375 40.53125 38.789062 41.941406 C 38.082031 43.664062 36.722656 45 35.441406 46.316406 C 34.863281 46.953125 34.183594 47.503906 33.699219 48.222656 C 33.390625 48.496094 33.03125 48.71875 32.738281 49.015625 C 31.273438 50.4375 29.773438 51.855469 28.019531 52.929688 C 25.949219 54.058594 23.496094 54.386719 21.167969 54.085938 C 18.492188 53.65625 16.117188 52.070312 14.398438 50.042969 C 12.691406 48.019531 11.703125 45.414062 11.699219 42.78125 C 11.816406 41.707031 11.957031 40.621094 12.363281 39.613281 C 12.972656 38.035156 13.972656 36.628906 15.171875 35.433594 C 16.265625 34.355469 17.351562 33.265625 18.449219 32.191406 C 20.238281 34.011719 22.0625 35.804688 23.882812 37.59375 C 23.992188 37.714844 24.238281 37.898438 24.035156 38.0625 C 23.058594 39.097656 22 40.050781 21.023438 41.089844 C 20.535156 41.636719 20.136719 42.328125 20.128906 43.078125 C 19.972656 44.785156 21.757812 46.402344 23.46875 46.019531 C 24.328125 45.804688 25.046875 45.257812 25.636719 44.621094 C 27.183594 43.089844 28.722656 41.550781 30.277344 40.027344 C 30.996094 39.304688 31.777344 38.554688 32.074219 37.550781 C 32.234375 37.070312 32.074219 36.566406 31.855469 36.132812 C 31.273438 35.011719 30.324219 34.144531 29.464844 33.238281 C 29.292969 33.101562 29.53125 32.945312 29.613281 32.839844 C 31.246094 31.222656 32.863281 29.589844 34.511719 27.988281 C 35.398438 28.859375 36.261719 29.78125 37.347656 30.414062 C 37.859375 30.710938 38.484375 30.894531 39.066406 30.707031 C 39.898438 30.449219 40.546875 29.835938 41.15625 29.246094 C 42.550781 27.859375 43.941406 26.472656 45.34375 25.089844 C 45.839844 24.621094 46.316406 24.078125 46.460938 23.394531 C 46.957031 21.402344 44.714844 19.265625 42.734375 20.007812 C 42.179688 20.183594 41.703125 20.535156 41.300781 20.945312 C 40.398438 21.84375 39.484375 22.738281 38.589844 23.648438 C 38.472656 23.75 38.289062 24.003906 38.132812 23.800781 C 36.265625 21.941406 34.386719 20.09375 32.535156 18.21875 C 33.675781 17.125 34.785156 15.996094 35.898438 14.871094 C 37.425781 13.390625 39.40625 12.386719 41.507812 12.007812 Z M 41.507812 12.007812 "/>
    <path style=" stroke:none;fill-rule:nonzero;fill:rgb(0%,0%,0%);fill-opacity:1;" d="M 59.046875 25.859375 C 59.4375 25.460938 59.78125 24.996094 60.265625 24.691406 C 61.542969 25.894531 62.765625 27.152344 64.015625 28.378906 C 63.640625 28.757812 63.304688 29.171875 62.882812 29.492188 C 62.835938 29.492188 62.746094 29.484375 62.699219 29.480469 C 62.308594 29.164062 61.988281 28.773438 61.621094 28.429688 C 59.820312 30.21875 58.035156 32.027344 56.230469 33.816406 C 56.097656 33.964844 55.859375 34.152344 55.683594 33.957031 C 55.257812 33.5625 54.832031 33.164062 54.460938 32.722656 C 56.320312 30.785156 58.261719 28.925781 60.160156 27.023438 C 59.808594 26.617188 59.425781 26.242188 59.046875 25.859375 Z M 59.046875 25.859375 "/>
    <path style=" stroke:none;fill-rule:nonzero;fill:rgb(0%,0%,0%);fill-opacity:1;" d="M 57.875 36.101562 C 60.207031 33.8125 62.503906 31.484375 64.839844 29.199219 C 65.335938 29.667969 65.816406 30.148438 66.277344 30.652344 C 65.355469 31.535156 64.433594 32.421875 63.5625 33.351562 C 63.8125 33.867188 64.34375 34.191406 64.726562 34.609375 C 65.695312 33.742188 66.585938 32.785156 67.511719 31.871094 C 68.007812 32.339844 68.492188 32.828125 68.972656 33.316406 C 66.648438 35.59375 64.371094 37.921875 62.027344 40.179688 C 61.453125 39.824219 61.0625 39.25 60.546875 38.816406 C 61.523438 37.800781 62.558594 36.839844 63.523438 35.816406 C 63.140625 35.433594 62.792969 35.007812 62.34375 34.703125 C 62.125 34.683594 61.996094 34.902344 61.84375 35.015625 C 60.988281 35.859375 60.144531 36.714844 59.285156 37.558594 C 58.824219 37.0625 58.335938 36.597656 57.875 36.101562 Z M 57.875 36.101562 "/>
    <path style=" stroke:none;fill-rule:nonzero;fill:rgb(0%,0%,0%);fill-opacity:1;" d="M 52.925781 34.195312 C 53.128906 34.027344 53.382812 33.597656 53.648438 33.917969 C 54.039062 34.328125 54.578125 34.679688 54.804688 35.191406 C 54.464844 35.613281 54.039062 35.960938 53.667969 36.359375 C 54.082031 36.773438 54.503906 37.179688 54.945312 37.5625 C 56.496094 39.25 58.207031 40.785156 59.773438 42.457031 C 59.25 42.972656 58.726562 43.488281 58.199219 44 C 56.117188 42.019531 54.121094 39.953125 52.058594 37.953125 C 51.648438 38.347656 51.25 38.75 50.851562 39.15625 C 50.363281 38.679688 49.871094 38.207031 49.402344 37.710938 C 50.554688 36.519531 51.769531 35.382812 52.925781 34.195312 Z M 52.925781 34.195312 "/>
    <path style=" stroke:none;fill-rule:nonzero;fill:rgb(0%,0%,0%);fill-opacity:1;" d="M 45.050781 42.058594 C 46.25 40.871094 47.429688 39.664062 48.648438 38.496094 C 49.121094 38.96875 49.597656 39.433594 50.074219 39.902344 C 49.429688 40.589844 48.734375 41.230469 48.082031 41.910156 C 48.582031 42.414062 49.097656 42.90625 49.589844 43.425781 C 50.222656 42.859375 50.789062 42.21875 51.429688 41.660156 C 51.898438 42.117188 52.371094 42.570312 52.800781 43.054688 C 52.21875 43.65625 51.617188 44.238281 51.023438 44.828125 C 51.59375 45.402344 52.167969 45.984375 52.765625 46.535156 C 53.433594 45.933594 54 45.222656 54.707031 44.667969 L 54.816406 44.640625 C 55.304688 45.058594 55.738281 45.542969 56.191406 45.996094 C 55.066406 47.132812 53.925781 48.253906 52.796875 49.386719 C 52.585938 49.597656 52.347656 49.332031 52.199219 49.183594 C 49.828125 46.796875 47.429688 44.4375 45.050781 42.058594 Z M 45.050781 42.058594 "/>
    <path style=" stroke:none;fill-rule:nonzero;fill:rgb(0%,0%,0%);fill-opacity:1;" d="M 43.175781 43.921875 C 43.511719 43.59375 43.816406 43.222656 44.210938 42.960938 C 44.679688 43.417969 45.183594 43.847656 45.570312 44.375 C 44.964844 45.0625 44.261719 45.660156 43.621094 46.316406 C 44.121094 46.839844 44.640625 47.339844 45.152344 47.851562 C 45.753906 47.300781 46.269531 46.65625 46.914062 46.152344 C 47.265625 46.28125 47.484375 46.632812 47.769531 46.871094 C 47.949219 47.082031 48.25 47.238281 48.300781 47.53125 C 47.753906 48.144531 47.109375 48.664062 46.570312 49.289062 C 47.160156 49.796875 47.664062 50.394531 48.25 50.90625 L 48.34375 50.914062 C 49.066406 50.320312 49.636719 49.5625 50.375 48.988281 C 50.777344 49.515625 51.261719 49.976562 51.703125 50.472656 C 50.492188 51.640625 49.332031 52.859375 48.101562 54.011719 C 45.640625 51.457031 43.042969 49.03125 40.59375 46.460938 C 41.484375 45.644531 42.324219 44.777344 43.175781 43.921875 Z M 43.175781 43.921875 "/>
    <path style=" stroke:none;fill-rule:nonzero;fill:rgb(0%,0%,0%);fill-opacity:1;" d="M 37.441406 49.601562 C 38.125 48.886719 39.023438 48.128906 40.097656 48.378906 C 41.234375 48.691406 42.09375 49.613281 42.71875 50.5625 C 43.011719 50.972656 42.953125 51.488281 42.929688 51.957031 C 43.933594 51.757812 44.746094 52.511719 45.40625 53.148438 C 46 53.769531 46.722656 54.25 47.503906 54.613281 C 46.964844 55.199219 46.378906 55.742188 45.824219 56.3125 C 45.027344 55.953125 44.390625 55.355469 43.796875 54.734375 C 43.382812 54.335938 42.859375 53.808594 42.222656 54.003906 C 41.875 54.179688 41.617188 54.480469 41.332031 54.738281 C 42.355469 55.730469 43.359375 56.742188 44.367188 57.753906 C 43.820312 58.253906 43.351562 58.84375 42.753906 59.28125 C 42.601562 59.1875 42.464844 59.066406 42.335938 58.945312 C 40.265625 56.867188 38.167969 54.824219 36.105469 52.742188 C 35.816406 52.449219 35.519531 52.164062 35.210938 51.894531 C 35.878906 51.058594 36.714844 50.382812 37.441406 49.601562 M 38.140625 51.550781 C 38.734375 52.21875 39.398438 52.816406 40.015625 53.464844 C 40.40625 53.0625 41.003906 52.710938 41.058594 52.113281 C 40.84375 51.503906 40.289062 51.066406 39.777344 50.691406 C 39.058594 50.410156 38.597656 51.140625 38.140625 51.550781 Z M 38.140625 51.550781 "/>
    <path style=" stroke:none;fill-rule:nonzero;fill:rgb(0%,0%,0%);fill-opacity:1;" d="M 30.539062 56.480469 C 31.851562 55.148438 33.175781 53.824219 34.53125 52.535156 C 35.027344 52.964844 35.605469 53.398438 35.902344 53.984375 C 35.542969 54.378906 35.132812 54.730469 34.78125 55.132812 C 36.804688 57.140625 38.847656 59.136719 40.847656 61.167969 C 40.40625 61.761719 39.847656 62.292969 39.265625 62.753906 C 37.230469 60.75 35.214844 58.730469 33.183594 56.722656 C 32.765625 57.097656 32.375 57.496094 31.992188 57.902344 C 31.484375 57.457031 30.957031 57.015625 30.539062 56.480469 Z M 30.539062 56.480469 "/>
    <path style=" stroke:none;fill-rule:nonzero;fill:rgb(0%,0%,0%);fill-opacity:1;" d="M 27.558594 59.332031 C 28.140625 58.546875 28.921875 57.71875 29.972656 57.679688 C 30.96875 57.683594 31.761719 58.390625 32.414062 59.0625 C 31.925781 59.554688 31.429688 60.039062 30.949219 60.542969 C 30.503906 60.242188 30.136719 59.660156 29.535156 59.742188 C 29.125 59.855469 28.832031 60.28125 28.988281 60.699219 C 29.265625 61.195312 29.8125 61.574219 30.402344 61.503906 C 31.539062 61.429688 32.625 60.953125 33.777344 61.0625 C 35.183594 61.167969 36.335938 62.289062 36.808594 63.554688 C 37.179688 64.472656 36.695312 65.476562 36.082031 66.167969 C 35.484375 66.820312 34.757812 67.554688 33.796875 67.523438 C 32.632812 67.578125 31.757812 66.675781 31 65.921875 C 31.492188 65.433594 31.960938 64.917969 32.484375 64.460938 C 32.953125 64.625 33.175781 65.171875 33.632812 65.382812 C 34.175781 65.78125 35.039062 65.144531 34.847656 64.511719 C 34.617188 63.773438 33.828125 63.273438 33.058594 63.296875 C 31.972656 63.421875 30.917969 63.847656 29.8125 63.734375 C 28.714844 63.632812 27.800781 62.847656 27.289062 61.921875 C 26.820312 61.105469 27 60.058594 27.558594 59.332031 Z M 27.558594 59.332031 "/>
    <path style=" stroke:none;fill-rule:nonzero;fill:rgb(0%,0%,0%);fill-opacity:1;" d="M 32.472656 73.316406 C 32.863281 73.34375 33.242188 73.230469 33.605469 73.09375 C 33.597656 73.664062 33.601562 74.238281 33.59375 74.8125 C 33.328125 74.683594 33.078125 74.484375 32.769531 74.492188 C 31.742188 74.472656 30.710938 74.492188 29.679688 74.492188 C 29.679688 74.769531 29.675781 75.050781 29.671875 75.335938 C 30.5625 75.316406 31.503906 75.496094 32.347656 75.121094 C 32.355469 75.65625 32.355469 76.191406 32.351562 76.726562 C 31.503906 76.363281 30.566406 76.527344 29.671875 76.515625 C 29.679688 76.867188 29.6875 77.222656 29.695312 77.578125 C 30.71875 77.558594 31.746094 77.582031 32.769531 77.570312 C 33.097656 77.605469 33.316406 77.339844 33.570312 77.1875 C 33.609375 77.796875 33.601562 78.40625 33.597656 79.015625 C 33.292969 78.863281 32.976562 78.6875 32.621094 78.71875 C 30.949219 78.726562 29.273438 78.710938 27.601562 78.734375 C 27.742188 78.46875 27.9375 78.210938 27.917969 77.898438 C 27.929688 76.679688 27.917969 75.457031 27.921875 74.238281 C 27.949219 73.890625 27.761719 73.585938 27.605469 73.289062 C 29.226562 73.335938 30.851562 73.296875 32.472656 73.316406 Z M 32.472656 73.316406 "/>
    <path style=" stroke:none;fill-rule:nonzero;fill:rgb(0%,0%,0%);fill-opacity:1;" d="M 2.011719 73.289062 C 2.734375 73.316406 3.457031 73.316406 4.183594 73.292969 C 4.003906 73.628906 3.875 73.996094 3.910156 74.386719 C 3.945312 75.195312 3.847656 76.019531 3.964844 76.820312 C 4.246094 77.53125 5.179688 77.535156 5.804688 77.351562 C 6.402344 77.09375 6.386719 76.394531 6.363281 75.851562 C 6.3125 75 6.511719 74.101562 6.125 73.304688 C 6.820312 73.3125 7.515625 73.324219 8.207031 73.292969 C 7.753906 74.519531 8.160156 75.847656 7.9375 77.109375 C 7.785156 77.765625 7.296875 78.324219 6.660156 78.566406 C 5.679688 78.945312 4.535156 78.953125 3.5625 78.539062 C 2.882812 78.269531 2.363281 77.605469 2.316406 76.875 C 2.273438 75.949219 2.339844 75.023438 2.300781 74.101562 C 2.300781 73.800781 2.132812 73.546875 2.011719 73.289062 Z M 2.011719 73.289062 "/>
    <path style=" stroke:none;fill-rule:nonzero;fill:rgb(0%,0%,0%);fill-opacity:1;" d="M 9.355469 73.296875 C 10.371094 73.320312 11.386719 73.292969 12.402344 73.324219 C 12.320312 73.484375 12.234375 73.644531 12.152344 73.804688 C 12.8125 74.503906 13.421875 75.25 14.144531 75.886719 C 14.132812 75.027344 14.371094 74.078125 13.871094 73.304688 C 14.621094 73.3125 15.371094 73.308594 16.121094 73.296875 C 15.960938 73.589844 15.71875 73.878906 15.757812 74.238281 C 15.757812 75.457031 15.75 76.679688 15.757812 77.898438 C 15.730469 78.222656 15.964844 78.472656 16.113281 78.742188 C 15.328125 78.710938 14.539062 78.710938 13.753906 78.746094 C 13.84375 78.558594 13.933594 78.371094 14.023438 78.183594 C 13.121094 77.222656 12.175781 76.304688 11.292969 75.328125 C 11.300781 76.183594 11.292969 77.039062 11.300781 77.894531 C 11.28125 78.203125 11.441406 78.472656 11.554688 78.75 C 10.828125 78.707031 10.101562 78.71875 9.375 78.738281 C 9.511719 78.46875 9.734375 78.21875 9.71875 77.898438 C 9.730469 76.679688 9.71875 75.460938 9.722656 74.242188 C 9.761719 73.878906 9.515625 73.59375 9.355469 73.296875 Z M 9.355469 73.296875 "/>
    <path style=" stroke:none;fill-rule:nonzero;fill:rgb(0%,0%,0%);fill-opacity:1;" d="M 20.554688 73.304688 C 21.367188 73.308594 22.175781 73.3125 22.988281 73.308594 C 22.914062 73.535156 22.710938 73.761719 22.824219 74.015625 C 23.121094 74.839844 23.386719 75.675781 23.761719 76.46875 C 24.144531 75.683594 24.445312 74.859375 24.800781 74.0625 C 24.964844 73.800781 24.789062 73.53125 24.707031 73.277344 C 25.410156 73.320312 26.117188 73.308594 26.824219 73.308594 C 26.515625 73.859375 26.246094 74.433594 26.03125 75.023438 C 25.667969 76.011719 25.183594 76.953125 24.839844 77.945312 C 24.714844 78.207031 24.863281 78.484375 24.910156 78.746094 C 24.046875 78.710938 23.183594 78.707031 22.320312 78.746094 C 22.582031 78.117188 22.207031 77.503906 22.023438 76.914062 C 21.566406 75.699219 21.273438 74.40625 20.554688 73.304688 Z M 20.554688 73.304688 "/>
    <path style=" stroke:none;fill-rule:nonzero;fill:rgb(0%,0%,0%);fill-opacity:1;" d="M 43.050781 73.535156 C 44.109375 73.054688 45.3125 73.238281 46.410156 73.460938 C 46.769531 73.546875 47.132812 73.503906 47.492188 73.449219 C 47.261719 74.015625 47 74.566406 46.746094 75.121094 C 45.933594 74.34375 44.660156 74.320312 43.644531 74.660156 C 43.648438 74.78125 43.65625 75.023438 43.65625 75.140625 C 44.683594 75.433594 45.808594 75.34375 46.785156 75.824219 C 47.378906 76.09375 47.699219 76.835938 47.449219 77.441406 C 47.207031 78.183594 46.441406 78.601562 45.703125 78.742188 C 44.660156 78.984375 43.601562 78.707031 42.585938 78.476562 C 42.289062 78.386719 41.988281 78.457031 41.695312 78.515625 C 41.859375 77.949219 42.015625 77.378906 42.179688 76.8125 C 42.898438 77.554688 44.007812 77.609375 44.984375 77.605469 C 45.316406 77.597656 45.925781 77.464844 45.773438 77.015625 C 44.992188 76.539062 44.007812 76.71875 43.15625 76.457031 C 42.523438 76.316406 41.804688 75.847656 41.863281 75.125 C 41.835938 74.394531 42.433594 73.828125 43.050781 73.535156 Z M 43.050781 73.535156 "/>
    <path style=" stroke:none;fill-rule:nonzero;fill:rgb(0%,0%,0%);fill-opacity:1;" d="M 17.261719 73.3125 C 18.082031 73.304688 18.898438 73.316406 19.714844 73.300781 C 19.566406 73.59375 19.382812 73.890625 19.417969 74.234375 C 19.460938 75.730469 19.351562 77.234375 19.496094 78.726562 C 18.824219 78.714844 18.148438 78.71875 17.476562 78.730469 C 17.808594 78.058594 17.671875 77.300781 17.695312 76.578125 C 17.675781 75.679688 17.734375 74.777344 17.675781 73.878906 C 17.5625 73.671875 17.398438 73.5 17.261719 73.3125 Z M 17.261719 73.3125 "/>
    <path style=" stroke:none;fill-rule:nonzero;fill:rgb(0%,0%,0%);fill-opacity:1;" d="M 34.664062 73.363281 C 35.792969 73.25 36.929688 73.34375 38.058594 73.308594 C 38.765625 73.308594 39.582031 73.285156 40.125 73.808594 C 40.777344 74.347656 40.875 75.417969 40.324219 76.058594 C 40.066406 76.359375 39.703125 76.539062 39.367188 76.734375 C 39.832031 77.417969 40.253906 78.148438 40.878906 78.710938 C 40 78.730469 39.121094 78.710938 38.246094 78.734375 C 38.332031 78.5625 38.417969 78.398438 38.507812 78.230469 C 38.195312 77.746094 37.976562 77.191406 37.578125 76.765625 C 37.253906 76.730469 36.925781 76.742188 36.601562 76.738281 C 36.601562 77.410156 36.449219 78.15625 36.875 78.746094 C 36.15625 78.710938 35.433594 78.714844 34.710938 78.734375 C 34.867188 78.425781 35.011719 78.105469 34.988281 77.753906 C 34.976562 76.535156 34.996094 75.316406 34.980469 74.097656 C 34.996094 73.816406 34.789062 73.597656 34.664062 73.363281 M 36.585938 74.484375 C 36.585938 74.886719 36.589844 75.285156 36.605469 75.6875 C 37.277344 75.652344 37.972656 75.765625 38.628906 75.59375 C 39.148438 75.414062 39.121094 74.695312 38.621094 74.507812 C 37.945312 74.433594 37.261719 74.488281 36.585938 74.484375 Z M 36.585938 74.484375 "/>
    <path style=" stroke:none;fill-rule:nonzero;fill:rgb(0%,0%,0%);fill-opacity:1;" d="M 50.171875 73.316406 C 50.980469 73.3125 51.785156 73.3125 52.589844 73.316406 C 52.597656 74.203125 53.167969 74.925781 53.5 75.714844 C 54.011719 76.714844 54.417969 77.765625 55.011719 78.722656 C 54.335938 78.726562 53.664062 78.710938 52.992188 78.738281 C 52.988281 78.355469 52.945312 77.925781 52.628906 77.667969 C 51.738281 77.609375 50.84375 77.652344 49.953125 77.660156 C 49.785156 77.992188 49.671875 78.355469 49.738281 78.730469 C 49.117188 78.714844 48.488281 78.722656 47.867188 78.730469 C 48.492188 77.679688 48.902344 76.519531 49.4375 75.425781 C 49.742188 74.742188 50.136719 74.074219 50.171875 73.316406 M 51.332031 74.78125 C 50.984375 75.40625 50.703125 76.058594 50.421875 76.714844 C 51.003906 76.703125 51.585938 76.703125 52.167969 76.703125 C 51.953125 76.039062 51.617188 75.417969 51.332031 74.78125 Z M 51.332031 74.78125 "/>
    <path style=" stroke:none;fill-rule:nonzero;fill:rgb(0%,0%,0%);fill-opacity:1;" d="M 55.804688 73.304688 C 56.574219 73.316406 57.347656 73.3125 58.117188 73.308594 C 57.996094 73.566406 57.789062 73.804688 57.804688 74.101562 C 57.792969 75.210938 57.804688 76.316406 57.808594 77.421875 C 58.734375 77.410156 59.660156 77.429688 60.585938 77.421875 C 60.898438 77.441406 61.183594 77.300781 61.46875 77.195312 C 61.449219 77.8125 61.460938 78.429688 61.515625 79.042969 C 61.183594 78.867188 60.832031 78.679688 60.441406 78.71875 C 58.875 78.730469 57.3125 78.695312 55.75 78.742188 C 55.894531 78.476562 56.113281 78.21875 56.078125 77.898438 C 56.078125 76.679688 56.078125 75.464844 56.082031 74.246094 C 56.105469 73.90625 55.925781 73.605469 55.804688 73.304688 Z M 55.804688 73.304688 "/>
  </g>
</svg>