<?xml version="1.0" encoding="UTF-8" ?>
<!DOCTYPE svg PUBLIC "-//W3C//DTD SVG 1.1//EN" "http://www.w3.org/Graphics/SVG/1.1/DTD/svg11.dtd">
<svg width="500pt" height="176pt" viewBox="0 0 500 176" version="1.1" xmlns="http://www.w3.org/2000/svg">
<g id="#20386cff">
<path fill="#20386c" opacity="1.00" d=" M 53.58 10.68 C 76.38 0.38 104.22 1.85 125.76 14.61 C 125.85 14.83 126.04 15.25 126.13 15.46 C 123.04 15.73 119.93 15.82 116.86 16.31 C 107.68 17.69 98.50 19.28 89.61 21.99 C 79.71 13.57 66.21 11.11 53.58 10.68 Z" />
</g>
<g id="#315c91ff">
<path fill="#315c91" opacity="1.00" d=" M 34.43 22.42 C 40.25 17.69 46.64 13.57 53.58 10.68 C 66.21 11.11 79.71 13.57 89.61 21.99 C 86.61 23.03 83.54 23.86 80.62 25.11 C 76.00 23.08 70.88 23.32 65.97 22.78 C 60.72 22.15 55.60 24.26 50.35 23.50 C 45.05 22.81 39.55 24.47 34.43 22.42 Z" />
</g>
<g id="#a0a3a4ff">
<path fill="#a0a3a4" opacity="1.00" d=" M 89.61 21.99 C 98.50 19.28 107.68 17.69 116.86 16.31 C 127.94 21.16 137.53 29.02 145.20 38.31 C 139.60 37.83 133.97 37.96 128.35 38.08 C 128.36 36.86 128.38 35.63 128.41 34.41 C 123.33 27.88 115.01 24.88 107.00 24.17 C 97.79 22.25 88.64 25.74 79.42 25.78 L 80.62 25.11 C 83.54 23.86 86.61 23.03 89.61 21.99 Z" />
</g>
<g id="#3d6094ff">
<path fill="#3d6094" opacity="1.00" d=" M 22.49 34.51 C 26.06 30.10 30.08 26.07 34.43 22.42 C 39.55 24.47 45.05 22.81 50.35 23.50 C 55.60 24.26 60.72 22.15 65.97 22.78 C 70.88 23.32 76.00 23.08 80.62 25.11 L 79.42 25.78 C 72.68 28.42 66.12 31.51 59.87 35.15 C 56.55 33.90 53.05 34.83 49.63 34.56 C 40.61 33.51 31.54 34.63 22.49 34.51 Z" />
</g>
<g id="#cccdcaff">
<path fill="#cccdca" opacity="1.00" d=" M 79.42 25.78 C 88.64 25.74 97.79 22.25 107.00 24.17 C 115.01 24.88 123.33 27.88 128.41 34.41 C 128.38 35.63 128.36 36.86 128.35 38.08 C 122.33 38.13 116.35 38.98 110.43 39.96 C 108.22 40.35 106.01 40.74 103.82 41.17 C 105.81 39.76 107.86 38.22 108.90 35.93 C 102.69 30.82 93.98 29.77 86.25 30.92 C 78.09 32.19 70.31 35.23 62.88 38.73 C 51.63 45.04 41.11 53.67 35.15 65.33 C 33.49 67.91 35.08 70.88 35.78 73.49 C 32.49 73.00 29.23 72.36 25.99 71.61 C 27.80 67.29 29.88 63.07 32.57 59.22 C 35.89 54.48 39.97 50.34 44.24 46.44 C 49.05 42.16 54.39 38.52 59.87 35.15 C 66.12 31.51 72.68 28.42 79.42 25.78 Z" />
</g>
<g id="#e8e9e3ff">
<path fill="#e8e9e3" opacity="1.00" d=" M 86.25 30.92 C 93.98 29.77 102.69 30.82 108.90 35.93 C 107.86 38.22 105.81 39.76 103.82 41.17 C 91.32 43.88 79.16 48.34 68.05 54.71 C 69.46 50.59 74.03 49.40 77.39 47.34 C 83.51 43.80 90.85 42.73 96.64 38.63 C 97.39 36.63 94.72 36.27 93.38 35.79 C 82.92 33.99 72.24 37.13 63.08 42.10 C 56.11 45.78 50.15 51.06 44.85 56.83 C 42.14 59.99 40.07 63.71 38.74 67.64 C 38.14 69.11 39.24 70.59 40.48 71.28 C 42.80 72.70 45.17 74.02 47.43 75.53 C 43.53 74.92 39.68 74.09 35.78 73.49 C 35.08 70.88 33.49 67.91 35.15 65.33 C 41.11 53.67 51.63 45.04 62.88 38.73 C 70.31 35.23 78.09 32.19 86.25 30.92 Z" />
</g>
<g id="#486494ff">
<path fill="#486494" opacity="1.00" d=" M 22.49 34.51 C 31.54 34.63 40.61 33.51 49.63 34.56 C 53.05 34.83 56.55 33.90 59.87 35.15 C 54.39 38.52 49.05 42.16 44.24 46.44 C 39.28 46.70 33.99 48.51 29.21 46.51 C 25.69 46.32 22.14 46.68 18.72 47.56 C 17.21 48.00 15.75 47.12 14.31 46.81 C 16.59 42.43 19.44 38.38 22.49 34.51 Z" />
</g>
<g id="#fafaf8ff">
<path fill="#fafaf8" opacity="1.00" d=" M 63.08 42.10 C 72.24 37.13 82.92 33.99 93.38 35.79 C 94.72 36.27 97.39 36.63 96.64 38.63 C 90.85 42.73 83.51 43.80 77.39 47.34 C 74.03 49.40 69.46 50.59 68.05 54.71 C 67.53 55.03 66.48 55.68 65.96 56.01 C 66.34 56.13 67.11 56.37 67.50 56.50 C 68.58 58.89 69.89 61.50 72.66 62.23 C 88.73 67.59 106.14 69.45 120.98 78.11 C 126.16 81.41 131.24 85.52 133.73 91.31 C 137.15 98.92 134.83 108.23 129.23 114.18 C 121.49 123.54 110.10 128.73 98.99 132.97 C 88.47 136.94 77.11 140.00 65.79 138.25 C 62.62 137.52 59.51 136.10 57.14 133.83 C 55.82 132.82 56.49 131.08 56.49 129.70 C 65.48 125.53 75.44 124.28 84.64 120.72 C 92.64 118.03 100.61 115.17 108.01 111.07 C 111.80 108.91 116.83 106.82 117.16 101.78 C 118.44 100.71 119.58 99.49 120.72 98.26 C 114.46 92.48 106.16 89.80 98.16 87.42 C 83.56 83.36 68.86 79.63 53.97 76.80 C 51.79 76.38 49.60 75.99 47.43 75.53 C 45.17 74.02 42.80 72.70 40.48 71.28 C 39.24 70.59 38.14 69.11 38.74 67.64 C 40.07 63.71 42.14 59.99 44.85 56.83 C 50.15 51.06 56.11 45.78 63.08 42.10 Z" />
</g>
<g id="#224784ff">
<path fill="#224784" opacity="1.00" d=" M 110.43 39.96 C 116.35 38.98 122.33 38.13 128.35 38.08 C 133.97 37.96 139.60 37.83 145.20 38.31 C 147.71 38.47 150.21 38.74 152.69 39.15 C 162.13 53.09 167.74 69.70 167.86 86.59 C 164.18 87.69 160.86 89.62 157.60 91.59 C 152.78 94.49 147.08 95.96 142.95 99.96 C 143.52 93.02 140.43 86.13 135.38 81.45 C 135.33 81.40 135.23 81.31 135.18 81.26 C 134.89 79.73 134.62 78.19 134.20 76.69 C 129.55 62.71 121.78 49.53 110.43 39.96 Z" />
</g>
<g id="#4c70a4ff">
<path fill="#4c70a4" opacity="1.00" d=" M 103.82 41.17 C 106.01 40.74 108.22 40.35 110.43 39.96 C 121.78 49.53 129.55 62.71 134.20 76.69 C 134.62 78.19 134.89 79.73 135.18 81.26 C 126.93 73.81 116.56 69.32 106.00 66.24 C 93.27 62.63 80.46 59.19 67.50 56.50 C 67.11 56.37 66.34 56.13 65.96 56.01 C 66.48 55.68 67.53 55.03 68.05 54.71 C 79.16 48.34 91.32 43.88 103.82 41.17 Z" />
</g>
<g id="#516894ff">
<path fill="#516894" opacity="1.00" d=" M 18.72 47.56 C 22.14 46.68 25.69 46.32 29.21 46.51 C 33.99 48.51 39.28 46.70 44.24 46.44 C 39.97 50.34 35.89 54.48 32.57 59.22 C 30.43 60.40 28.16 61.73 25.62 61.49 C 22.03 61.30 18.37 61.98 14.85 61.01 C 12.44 60.22 10.05 61.47 7.73 61.99 C 9.39 56.72 11.66 51.67 14.21 46.78 L 14.31 46.81 C 15.75 47.12 17.21 48.00 18.72 47.56 Z" />
</g>
<g id="#010000ff">
<path fill="#010000" opacity="1.00" d=" M 339.69 49.71 C 345.41 46.12 352.46 46.35 358.96 46.30 C 364.99 46.38 371.52 45.94 376.90 49.18 C 381.26 51.82 383.08 56.93 384.05 61.68 C 379.39 62.09 374.73 62.49 370.07 62.86 C 369.63 61.26 368.86 59.40 366.97 59.18 C 362.30 58.81 357.58 59.03 352.90 59.04 C 346.94 58.55 346.98 69.96 353.01 69.27 C 360.64 69.60 368.41 68.66 375.95 70.20 C 380.87 71.27 384.15 76.10 384.12 81.02 C 384.11 86.91 385.26 94.01 380.52 98.53 C 375.57 103.10 368.35 103.37 361.98 103.38 C 355.12 103.23 347.66 104.17 341.49 100.53 C 336.88 97.79 335.13 92.32 334.34 87.31 C 338.99 87.06 343.64 86.91 348.30 86.71 C 348.85 88.26 349.47 90.21 351.41 90.42 C 356.23 90.83 361.11 90.62 365.95 90.54 C 371.29 90.51 371.36 80.32 365.94 80.38 C 358.91 80.12 351.85 80.65 344.85 79.87 C 341.20 79.48 337.44 77.68 335.74 74.28 C 333.60 70.17 334.37 65.39 334.26 60.95 C 334.10 56.62 335.89 52.05 339.69 49.71 Z" />
<path fill="#010000" opacity="1.00" d=" M 177.02 46.88 C 182.37 46.87 187.71 46.86 193.06 46.89 C 197.55 58.82 201.65 70.91 206.35 82.76 C 210.60 70.82 215.11 58.98 219.31 47.02 C 224.65 46.70 230.00 46.94 235.35 46.89 C 227.51 65.72 219.57 84.51 211.74 103.34 C 208.06 103.41 204.38 103.37 200.71 103.38 C 192.76 84.57 184.91 65.72 177.02 46.88 Z" />
<path fill="#010000" opacity="1.00" d=" M 245.25 46.88 C 250.40 46.88 255.54 46.83 260.69 46.92 C 260.73 65.62 260.61 84.33 260.75 103.03 C 255.59 103.38 250.41 103.11 245.25 103.17 C 245.25 84.41 245.24 65.65 245.25 46.88 Z" />
<path fill="#010000" opacity="1.00" d=" M 294.02 46.88 C 297.68 46.87 301.35 46.87 305.02 46.88 C 312.93 65.70 320.83 84.53 328.69 103.37 C 323.39 103.38 318.08 103.38 312.78 103.37 C 312.00 101.32 311.23 99.27 310.58 97.18 C 303.30 96.90 296.02 97.17 288.74 97.04 C 287.92 99.14 287.12 101.26 286.35 103.38 C 281.01 103.36 275.68 103.39 270.34 103.37 C 278.21 84.53 286.11 65.70 294.02 46.88 M 299.46 67.49 C 297.22 73.84 294.84 80.14 292.57 86.48 C 297.23 86.51 301.89 86.50 306.55 86.49 C 304.17 80.16 302.12 73.71 299.46 67.49 Z" />
<path fill="#010000" opacity="1.00" d=" M 412.76 46.88 C 416.43 46.87 420.10 46.86 423.78 46.89 C 431.66 65.71 439.57 84.53 447.43 103.36 C 442.15 103.42 436.88 103.31 431.61 103.43 C 430.74 101.33 429.95 99.21 429.20 97.07 C 421.92 97.09 414.63 96.98 407.36 97.13 C 406.65 99.22 405.88 101.30 405.10 103.37 C 399.76 103.39 394.42 103.38 389.09 103.37 C 396.95 84.53 404.84 65.70 412.76 46.88 M 418.14 67.82 C 415.82 74.03 413.57 80.26 411.33 86.49 C 415.99 86.50 420.65 86.51 425.31 86.48 C 422.84 80.30 421.12 73.74 418.14 67.82 Z" />
<path fill="#010000" opacity="1.00" d=" M 443.13 46.89 C 461.42 46.86 479.70 46.87 497.99 46.88 C 498.00 51.40 498.00 55.92 497.99 60.43 C 491.44 60.45 484.88 60.43 478.32 60.44 C 478.29 74.69 478.34 88.93 478.30 103.18 C 473.14 103.20 467.98 103.20 462.82 103.18 C 462.80 88.94 462.81 74.70 462.82 60.47 C 456.26 60.41 449.70 60.45 443.15 60.45 C 443.10 55.93 443.12 51.41 443.13 46.89 Z" />
<path fill="#010000" opacity="1.00" d=" M 418.42 111.38 C 444.95 111.46 471.47 111.51 498.00 111.57 C 497.99 124.28 498.02 136.99 497.98 149.70 C 469.02 149.67 440.05 149.70 411.09 149.68 C 413.51 136.91 415.97 124.15 418.42 111.38 M 424.66 117.26 C 422.80 126.03 420.93 134.79 419.08 143.56 C 422.56 143.56 426.04 143.57 429.53 143.56 C 430.27 140.09 431.01 136.62 431.73 133.15 C 435.59 133.10 439.46 133.13 443.33 133.13 C 442.60 136.61 441.86 140.09 441.13 143.56 C 444.61 143.56 448.10 143.56 451.58 143.56 C 453.45 134.79 455.32 126.03 457.18 117.25 C 453.69 117.24 450.20 117.24 446.71 117.26 C 446.06 120.32 445.41 123.37 444.77 126.43 C 440.91 126.44 437.04 126.43 433.18 126.44 C 433.82 123.37 434.48 120.31 435.12 117.25 C 431.63 117.25 428.14 117.24 424.66 117.26 M 462.20 117.25 C 460.33 126.02 458.47 134.79 456.61 143.56 C 464.03 143.53 471.46 143.65 478.88 143.50 C 483.88 143.35 488.96 140.82 491.26 136.23 C 493.29 132.04 494.57 127.07 493.31 122.47 C 492.13 118.75 487.90 117.45 484.39 117.35 C 477.00 117.12 469.60 117.31 462.20 117.25 Z" />
<path fill="#010000" opacity="1.00" d=" M 471.24 123.95 C 474.66 124.22 478.67 123.08 481.63 125.31 C 484.15 129.19 481.63 135.66 476.95 136.59 C 474.16 137.10 471.30 136.82 468.49 136.86 C 469.40 132.56 470.32 128.25 471.24 123.95 Z" />
</g>
<g id="#dde0deff">
<path fill="#dde0de" opacity="1.00" d=" M 67.50 56.50 C 80.46 59.19 93.27 62.63 106.00 66.24 C 116.56 69.32 126.93 73.81 135.18 81.26 C 135.23 81.31 135.33 81.40 135.38 81.45 C 135.27 85.25 138.29 88.09 139.09 91.66 C 139.77 94.72 139.59 97.89 139.58 101.00 C 139.79 105.79 136.89 109.87 136.04 114.46 C 130.94 120.11 124.44 124.26 117.72 127.73 C 112.24 130.58 106.51 132.92 100.75 135.14 C 90.60 138.88 80.12 141.75 69.48 143.74 C 61.81 141.92 52.64 142.37 46.94 135.99 C 44.73 134.32 44.77 131.08 45.83 128.79 C 49.11 125.28 54.20 124.73 58.37 122.74 C 72.89 120.42 87.21 116.59 100.76 110.84 C 106.51 108.37 112.07 105.44 117.16 101.78 C 116.83 106.82 111.80 108.91 108.01 111.07 C 100.61 115.17 92.64 118.03 84.64 120.72 C 75.44 124.28 65.48 125.53 56.49 129.70 C 56.49 131.08 55.82 132.82 57.14 133.83 C 59.51 136.10 62.62 137.52 65.79 138.25 C 77.11 140.00 88.47 136.94 98.99 132.97 C 110.10 128.73 121.49 123.54 129.23 114.18 C 134.83 108.23 137.15 98.92 133.73 91.31 C 131.24 85.52 126.16 81.41 120.98 78.11 C 106.14 69.45 88.73 67.59 72.66 62.23 C 69.89 61.50 68.58 58.89 67.50 56.50 Z" />
</g>
<g id="#5f6f95ff">
<path fill="#5f6f95" opacity="1.00" d=" M 25.62 61.49 C 28.16 61.73 30.43 60.40 32.57 59.22 C 29.88 63.07 27.80 67.29 25.99 71.61 C 23.74 76.84 23.81 82.64 23.35 88.20 C 18.27 88.82 13.15 88.51 8.06 88.34 C 6.59 88.35 5.19 87.93 3.86 87.34 C 3.70 78.74 5.16 70.18 7.73 61.99 C 10.05 61.47 12.44 60.22 14.85 61.01 C 18.37 61.98 22.03 61.30 25.62 61.49 Z" />
</g>
<g id="#2c4376ff">
<path fill="#2c4376" opacity="1.00" d=" M 25.99 71.61 C 29.23 72.36 32.49 73.00 35.78 73.49 C 39.68 74.09 43.53 74.92 47.43 75.53 C 49.60 75.99 51.79 76.38 53.97 76.80 C 51.73 80.76 52.41 85.37 52.47 89.70 C 52.95 97.26 52.37 104.98 54.60 112.32 C 55.71 115.81 55.81 119.49 55.17 123.08 C 50.95 123.60 46.71 124.08 42.44 124.09 C 40.32 124.09 38.21 124.04 36.09 123.98 C 34.27 123.92 32.46 123.89 30.64 123.85 C 25.62 112.70 23.17 100.42 23.35 88.20 C 23.81 82.64 23.74 76.84 25.99 71.61 Z" />
</g>
<g id="#274c8aff">
<path fill="#274c8a" opacity="1.00" d=" M 53.97 76.80 C 68.86 79.63 83.56 83.36 98.16 87.42 C 106.16 89.80 114.46 92.48 120.72 98.26 C 119.58 99.49 118.44 100.71 117.16 101.78 C 112.07 105.44 106.51 108.37 100.76 110.84 C 87.21 116.59 72.89 120.42 58.37 122.74 C 57.57 122.82 55.97 122.99 55.17 123.08 C 55.81 119.49 55.71 115.81 54.60 112.32 C 52.37 104.98 52.95 97.26 52.47 89.70 C 52.41 85.37 51.73 80.76 53.97 76.80 Z" />
</g>
<g id="#bdc1bfff">
<path fill="#bdc1bf" opacity="1.00" d=" M 139.09 91.66 C 138.29 88.09 135.27 85.25 135.38 81.45 C 140.43 86.13 143.52 93.02 142.95 99.96 C 142.53 104.58 140.59 108.93 137.84 112.63 C 137.39 113.09 136.49 114.00 136.04 114.46 C 136.89 109.87 139.79 105.79 139.58 101.00 C 139.59 97.89 139.77 94.72 139.09 91.66 Z" />
</g>
<g id="#6c7696ff">
<path fill="#6c7696" opacity="1.00" d=" M 3.86 87.34 C 5.19 87.93 6.59 88.35 8.06 88.34 C 13.15 88.51 18.27 88.82 23.35 88.20 C 23.17 100.42 25.62 112.70 30.64 123.85 C 30.10 123.82 29.01 123.78 28.47 123.75 C 24.36 122.86 20.28 121.84 16.20 120.81 C 14.46 118.22 11.44 116.78 9.92 113.99 C 5.04 106.08 3.78 96.48 3.86 87.34 Z" />
</g>
<g id="#203f79ff">
<path fill="#203f79" opacity="1.00" d=" M 157.60 91.59 C 160.86 89.62 164.18 87.69 167.86 86.59 C 168.97 117.94 151.07 149.19 123.09 163.53 C 125.44 158.77 128.35 154.30 130.37 149.38 C 135.27 137.79 137.66 125.18 137.84 112.63 C 140.59 108.93 142.53 104.58 142.95 99.96 C 147.08 95.96 152.78 94.49 157.60 91.59 Z" />
</g>
<g id="#241d41ff">
<path fill="#241d41" opacity="1.00" d=" M 188.01 111.82 C 193.36 111.80 198.71 111.80 204.06 111.82 C 204.09 124.27 204.11 136.73 204.05 149.18 C 198.70 149.20 193.36 149.20 188.01 149.18 C 188.00 136.73 188.00 124.27 188.01 111.82 Z" />
</g>
<g id="#25244dff">
<path fill="#25244d" opacity="1.00" d=" M 204.06 111.82 C 211.34 111.81 218.63 111.80 225.92 111.81 C 225.90 124.27 225.83 136.73 225.93 149.19 C 218.64 149.20 211.35 149.19 204.05 149.18 C 204.11 136.73 204.09 124.27 204.06 111.82 Z" />
</g>
<g id="#272b59ff">
<path fill="#272b59" opacity="1.00" d=" M 225.92 111.81 C 229.94 111.81 233.97 111.80 238.00 111.82 C 238.07 124.27 237.96 136.73 238.03 149.18 C 234.00 149.20 229.97 149.19 225.93 149.19 C 225.83 136.73 225.90 124.27 225.92 111.81 Z" />
</g>
<g id="#283162ff">
<path fill="#283162" opacity="1.00" d=" M 238.00 111.82 C 242.35 111.81 246.70 111.80 251.05 111.82 C 251.22 124.27 251.13 136.73 251.07 149.18 C 246.73 149.20 242.38 149.19 238.03 149.18 C 237.96 136.73 238.07 124.27 238.00 111.82 Z" />
</g>
<g id="#283970ff">
<path fill="#283970" opacity="1.00" d=" M 251.05 111.82 C 257.99 111.81 264.93 111.80 271.87 111.82 C 271.83 124.27 271.83 136.73 271.94 149.19 C 264.98 149.20 258.03 149.19 251.07 149.18 C 251.13 136.73 251.22 124.27 251.05 111.82 Z" />
</g>
<g id="#22417dff">
<path fill="#22417d" opacity="1.00" d=" M 271.87 111.82 C 275.28 111.80 278.69 111.80 282.10 111.82 C 282.16 124.27 282.22 136.73 282.07 149.19 C 278.69 149.20 275.31 149.19 271.94 149.19 C 271.83 136.73 271.83 124.27 271.87 111.82 Z" />
</g>
<g id="#1e4889ff">
<path fill="#1e4889" opacity="1.00" d=" M 282.10 111.82 C 288.05 111.81 293.99 111.80 299.94 111.81 C 299.81 124.27 299.83 136.73 299.95 149.19 C 293.99 149.20 288.03 149.19 282.07 149.19 C 282.22 136.73 282.16 124.27 282.10 111.82 Z" />
</g>
<g id="#1c5196ff">
<path fill="#1c5196" opacity="1.00" d=" M 299.94 111.81 C 303.62 111.81 307.30 111.80 310.97 111.81 C 311.12 124.27 311.02 136.73 311.01 149.19 C 307.32 149.20 303.64 149.19 299.95 149.19 C 299.83 136.73 299.81 124.27 299.94 111.81 Z" />
</g>
<g id="#21579bff">
<path fill="#21579b" opacity="1.00" d=" M 310.97 111.81 C 315.66 111.81 320.34 111.80 325.03 111.81 C 324.98 124.27 325.03 136.73 324.92 149.19 C 320.28 149.20 315.65 149.19 311.01 149.19 C 311.02 136.73 311.12 124.27 310.97 111.81 Z" />
</g>
<g id="#255ea2ff">
<path fill="#255ea2" opacity="1.00" d=" M 325.03 111.81 C 330.35 111.81 335.68 111.80 341.01 111.81 C 340.83 124.27 341.05 136.73 340.92 149.19 C 335.59 149.20 330.25 149.19 324.92 149.19 C 325.03 136.73 324.98 124.27 325.03 111.81 Z" />
</g>
<g id="#2065a8ff">
<path fill="#2065a8" opacity="1.00" d=" M 341.01 111.81 C 347.02 111.81 353.03 111.80 359.05 111.81 C 358.92 113.68 358.79 115.55 358.66 117.42 C 355.12 119.02 351.87 121.17 348.47 123.04 C 348.70 125.40 348.95 127.75 349.21 130.11 C 351.13 129.14 353.06 128.18 354.98 127.19 C 355.00 130.75 355.00 134.30 354.99 137.86 C 353.41 137.86 351.82 137.87 350.25 137.88 C 350.24 139.82 350.25 141.75 350.25 143.69 C 353.15 143.69 356.05 143.70 358.95 143.69 C 358.93 145.52 358.92 147.35 358.91 149.19 C 352.91 149.20 346.92 149.19 340.92 149.19 C 341.05 136.73 340.83 124.27 341.01 111.81 Z" />
</g>
<g id="#2172b4ff">
<path fill="#2172b4" opacity="1.00" d=" M 359.05 111.81 C 367.77 111.81 376.48 111.80 385.20 111.81 C 385.16 113.54 385.12 115.27 385.08 117.00 C 381.27 117.37 377.35 118.78 374.90 121.86 C 371.58 126.06 371.28 132.10 373.09 137.00 C 374.77 141.48 379.56 143.86 384.13 144.06 C 384.55 145.76 384.96 147.47 385.38 149.19 C 376.56 149.20 367.73 149.19 358.91 149.19 C 358.92 147.35 358.93 145.52 358.95 143.69 C 362.23 143.69 365.52 143.69 368.81 143.69 C 368.81 141.76 368.81 139.83 368.81 137.91 C 367.27 137.89 365.72 137.87 364.19 137.86 C 364.08 131.03 364.39 124.19 364.02 117.37 C 362.23 117.40 360.44 117.39 358.66 117.42 C 358.79 115.55 358.92 113.68 359.05 111.81 Z" />
</g>
<g id="#3384c4ff">
<path fill="#3384c4" opacity="1.00" d=" M 385.20 111.81 C 394.62 111.82 404.04 111.80 413.47 111.81 C 411.44 124.34 408.62 136.72 406.25 149.19 C 399.29 149.20 392.34 149.19 385.38 149.19 C 384.96 147.47 384.55 145.76 384.13 144.06 C 388.18 144.10 392.74 143.84 395.89 140.94 C 399.47 137.64 399.61 130.45 394.88 128.11 C 390.56 125.99 385.54 126.56 380.96 127.29 C 384.36 122.34 391.09 123.71 396.11 124.68 C 396.28 122.47 396.45 120.25 396.61 118.04 C 392.86 117.02 388.95 116.80 385.08 117.00 C 385.12 115.27 385.16 113.54 385.20 111.81 Z" />
</g>
<g id="#3968a0ff">
<path fill="#3968a0" opacity="1.00" d=" M 136.04 114.46 C 136.49 114.00 137.39 113.09 137.84 112.63 C 137.66 125.18 135.27 137.79 130.37 149.38 C 128.35 154.30 125.44 158.77 123.09 163.53 C 118.59 165.96 113.82 167.85 108.94 169.35 C 110.47 166.35 112.29 163.39 112.76 160.00 C 113.62 155.54 113.14 150.68 115.59 146.66 C 119.12 140.89 116.21 133.98 117.72 127.73 C 124.44 124.26 130.94 120.11 136.04 114.46 Z" />
</g>
<g id="#ffffffff">
<path fill="#ffffff" opacity="1.00" d=" M 348.47 123.04 C 351.87 121.17 355.12 119.02 358.66 117.42 C 360.44 117.39 362.23 117.40 364.02 117.37 C 364.39 124.19 364.08 131.03 364.19 137.86 C 365.72 137.87 367.27 137.89 368.81 137.91 C 368.81 139.83 368.81 141.76 368.81 143.69 C 365.52 143.69 362.23 143.69 358.95 143.69 C 356.05 143.70 353.15 143.69 350.25 143.69 C 350.25 141.75 350.24 139.82 350.25 137.88 C 351.82 137.87 353.41 137.86 354.99 137.86 C 355.00 134.30 355.00 130.75 354.98 127.19 C 353.06 128.18 351.13 129.14 349.21 130.11 C 348.95 127.75 348.70 125.40 348.47 123.04 Z" />
<path fill="#ffffff" opacity="1.00" d=" M 374.90 121.86 C 377.35 118.78 381.27 117.37 385.08 117.00 C 388.95 116.80 392.86 117.02 396.61 118.04 C 396.45 120.25 396.28 122.47 396.11 124.68 C 391.09 123.71 384.36 122.34 380.96 127.29 C 385.54 126.56 390.56 125.99 394.88 128.11 C 399.61 130.45 399.47 137.64 395.89 140.94 C 392.74 143.84 388.18 144.10 384.13 144.06 C 379.56 143.86 374.77 141.48 373.09 137.00 C 371.28 132.10 371.58 126.06 374.90 121.86 M 381.07 133.75 C 381.39 138.21 389.64 138.84 389.62 134.06 C 387.85 131.32 383.44 132.16 381.07 133.75 Z" />
<path fill="#ffffff" opacity="1.00" d=" M 424.66 117.26 C 428.14 117.24 431.63 117.25 435.12 117.25 C 434.48 120.31 433.82 123.37 433.18 126.44 C 437.04 126.43 440.91 126.44 444.77 126.43 C 445.41 123.37 446.06 120.32 446.71 117.26 C 450.20 117.24 453.69 117.24 457.18 117.25 C 455.32 126.03 453.45 134.79 451.58 143.56 C 448.10 143.56 444.61 143.56 441.13 143.56 C 441.86 140.09 442.60 136.61 443.33 133.13 C 439.46 133.13 435.59 133.10 431.73 133.15 C 431.01 136.62 430.27 140.09 429.53 143.56 C 426.04 143.57 422.56 143.56 419.08 143.56 C 420.93 134.79 422.80 126.03 424.66 117.26 Z" />
<path fill="#ffffff" opacity="1.00" d=" M 462.20 117.25 C 469.60 117.31 477.00 117.12 484.39 117.35 C 487.90 117.45 492.13 118.75 493.31 122.47 C 494.57 127.07 493.29 132.04 491.26 136.23 C 488.96 140.82 483.88 143.35 478.88 143.50 C 471.46 143.65 464.03 143.53 456.61 143.56 C 458.47 134.79 460.33 126.02 462.20 117.25 M 471.24 123.95 C 470.32 128.25 469.40 132.56 468.49 136.86 C 471.30 136.82 474.16 137.10 476.95 136.59 C 481.63 135.66 484.15 129.19 481.63 125.31 C 478.67 123.08 474.66 124.22 471.24 123.95 Z" />
</g>
<g id="#8b8f92ff">
<path fill="#8b8f92" opacity="1.00" d=" M 16.20 120.81 C 20.28 121.84 24.36 122.86 28.47 123.75 C 26.00 125.98 23.03 127.55 19.67 127.82 C 18.40 125.54 17.14 123.25 16.20 120.81 Z" />
</g>
<g id="#c9cac6ff">
<path fill="#c9cac6" opacity="1.00" d=" M 42.44 124.09 C 46.71 124.08 50.95 123.60 55.17 123.08 C 55.97 122.99 57.57 122.82 58.37 122.74 C 54.20 124.73 49.11 125.28 45.83 128.79 C 44.77 131.08 44.73 134.32 46.94 135.99 C 52.64 142.37 61.81 141.92 69.48 143.74 C 65.51 144.58 61.49 145.19 57.45 145.66 C 52.08 143.49 45.89 142.60 41.67 138.28 C 39.46 136.07 36.19 133.14 37.67 129.69 C 39.08 127.67 40.86 125.96 42.44 124.09 Z" />
</g>
<g id="#9fa2a3ff">
<path fill="#9fa2a3" opacity="1.00" d=" M 19.67 127.82 C 23.03 127.55 26.00 125.98 28.47 123.75 C 29.01 123.78 30.10 123.82 30.64 123.85 C 32.46 123.89 34.27 123.92 36.09 123.98 C 34.48 125.77 32.66 127.46 31.56 129.64 C 31.02 133.31 33.70 136.45 36.13 138.87 C 39.59 142.43 44.41 144.03 48.57 146.57 C 46.54 146.77 44.52 146.95 42.49 147.00 C 39.97 146.76 37.43 146.77 34.90 146.93 C 28.81 141.45 23.80 134.87 19.67 127.82 Z" />
</g>
<g id="#b5b6b5ff">
<path fill="#b5b6b5" opacity="1.00" d=" M 36.09 123.98 C 38.21 124.04 40.32 124.09 42.44 124.09 C 40.86 125.96 39.08 127.67 37.67 129.69 C 36.19 133.14 39.46 136.07 41.67 138.28 C 45.89 142.60 52.08 143.49 57.45 145.66 C 54.50 146.07 51.53 146.31 48.57 146.57 C 44.41 144.03 39.59 142.43 36.13 138.87 C 33.70 136.45 31.02 133.31 31.56 129.64 C 32.66 127.46 34.48 125.77 36.09 123.98 Z" />
</g>
<g id="#496da2ff">
<path fill="#496da2" opacity="1.00" d=" M 100.75 135.14 C 106.51 132.92 112.24 130.58 117.72 127.73 C 116.21 133.98 119.12 140.89 115.59 146.66 C 113.14 150.68 113.62 155.54 112.76 160.00 C 112.29 163.39 110.47 166.35 108.94 169.35 C 96.87 173.04 83.95 173.29 71.52 171.50 C 71.15 167.40 70.83 163.28 70.20 159.21 C 69.57 156.23 66.43 154.97 63.86 154.09 C 75.76 155.33 88.15 151.17 96.44 142.45 C 98.29 140.33 100.79 138.21 100.75 135.14 Z" />
</g>
<g id="#2a7bbcff">
<path fill="#2a7bbc" opacity="1.00" d=" M 381.07 133.75 C 383.44 132.16 387.85 131.32 389.62 134.06 C 389.64 138.84 381.39 138.21 381.07 133.75 Z" />
</g>
<g id="#254581ff">
<path fill="#254581" opacity="1.00" d=" M 69.48 143.74 C 80.12 141.75 90.60 138.88 100.75 135.14 C 100.79 138.21 98.29 140.33 96.44 142.45 C 88.15 151.17 75.76 155.33 63.86 154.09 C 59.55 153.58 55.31 152.57 51.23 151.08 C 48.18 150.03 45.29 148.58 42.49 147.00 C 44.52 146.95 46.54 146.77 48.57 146.57 C 51.53 146.31 54.50 146.07 57.45 145.66 C 61.49 145.19 65.51 144.58 69.48 143.74 Z" />
</g>
<g id="#637198ff">
<path fill="#637198" opacity="1.00" d=" M 26.40 146.36 C 29.23 146.66 32.06 147.15 34.90 146.93 C 37.43 146.77 39.97 146.76 42.49 147.00 C 45.29 148.58 48.18 150.03 51.23 151.08 C 54.04 156.02 54.55 161.72 56.13 167.07 C 44.90 162.45 34.41 155.56 26.40 146.36 Z" />
</g>
<g id="#5a719dff">
<path fill="#5a719d" opacity="1.00" d=" M 51.23 151.08 C 55.31 152.57 59.55 153.58 63.86 154.09 C 66.43 154.97 69.57 156.23 70.20 159.21 C 70.83 163.28 71.15 167.40 71.52 171.50 C 66.28 170.46 61.11 169.03 56.13 167.07 C 54.55 161.72 54.04 156.02 51.23 151.08 Z" />
</g>
</svg>
