<?xml version="1.0" encoding="UTF-8" standalone="yes"?>
<svg xmlns="http://www.w3.org/2000/svg" xmlns:xlink="http://www.w3.org/1999/xlink" width="302.66666666666663px" height="106.66666666666666px" viewBox="0 0 227 80" version="1.1">
  <g id="surface1">
    <path style=" stroke:none;fill-rule:nonzero;fill:rgb(12.54902%,21.960784%,42.352941%);fill-opacity:1;" d="M 24.324219 4.855469 C 34.675781 0.171875 47.316406 0.839844 57.09375 6.640625 C 57.136719 6.742188 57.222656 6.933594 57.261719 7.027344 C 55.859375 7.148438 54.449219 7.191406 53.054688 7.414062 C 48.886719 8.039062 44.71875 8.761719 40.683594 9.996094 C 36.1875 6.167969 30.058594 5.050781 24.324219 4.855469 Z M 24.324219 4.855469 "/>
    <path style=" stroke:none;fill-rule:nonzero;fill:rgb(19.215686%,36.078431%,56.862745%);fill-opacity:1;" d="M 15.632812 10.191406 C 18.273438 8.039062 21.175781 6.167969 24.324219 4.855469 C 30.058594 5.050781 36.1875 6.167969 40.683594 9.996094 C 39.320312 10.46875 37.925781 10.84375 36.601562 11.414062 C 34.503906 10.492188 32.179688 10.601562 29.949219 10.355469 C 27.566406 10.066406 25.242188 11.027344 22.859375 10.683594 C 20.453125 10.367188 17.957031 11.121094 15.632812 10.191406 Z M 15.632812 10.191406 "/>
    <path style=" stroke:none;fill-rule:nonzero;fill:rgb(62.745098%,63.921569%,64.313725%);fill-opacity:1;" d="M 40.683594 9.996094 C 44.71875 8.761719 48.886719 8.039062 53.054688 7.414062 C 58.085938 9.617188 62.4375 13.191406 65.921875 17.414062 C 63.378906 17.195312 60.824219 17.253906 58.269531 17.308594 C 58.277344 16.753906 58.285156 16.195312 58.296875 15.640625 C 55.992188 12.671875 52.214844 11.308594 48.578125 10.988281 C 44.398438 10.113281 40.242188 11.699219 36.058594 11.71875 L 36.601562 11.414062 C 37.925781 10.84375 39.320312 10.46875 40.683594 9.996094 Z M 40.683594 9.996094 "/>
    <path style=" stroke:none;fill-rule:nonzero;fill:rgb(23.921569%,37.647059%,58.039216%);fill-opacity:1;" d="M 10.210938 15.6875 C 11.832031 13.683594 13.65625 11.851562 15.632812 10.191406 C 17.957031 11.121094 20.453125 10.367188 22.859375 10.683594 C 25.242188 11.027344 27.566406 10.066406 29.949219 10.355469 C 32.179688 10.601562 34.503906 10.492188 36.601562 11.414062 L 36.058594 11.71875 C 32.996094 12.917969 30.019531 14.324219 27.179688 15.976562 C 25.671875 15.410156 24.085938 15.832031 22.53125 15.710938 C 18.4375 15.230469 14.320312 15.742188 10.210938 15.6875 Z M 10.210938 15.6875 "/>
    <path style=" stroke:none;fill-rule:nonzero;fill:rgb(80%,80.392157%,79.215686%);fill-opacity:1;" d="M 36.058594 11.71875 C 40.242188 11.699219 44.398438 10.113281 48.578125 10.988281 C 52.214844 11.308594 55.992188 12.671875 58.296875 15.640625 C 58.285156 16.195312 58.277344 16.753906 58.269531 17.308594 C 55.539062 17.332031 52.824219 17.71875 50.136719 18.164062 C 49.132812 18.339844 48.128906 18.519531 47.132812 18.714844 C 48.039062 18.074219 48.96875 17.371094 49.441406 16.332031 C 46.621094 14.007812 42.667969 13.53125 39.15625 14.054688 C 35.453125 14.632812 31.921875 16.011719 28.546875 17.605469 C 23.441406 20.472656 18.664062 24.394531 15.957031 29.695312 C 15.203125 30.867188 15.925781 32.21875 16.242188 33.40625 C 14.75 33.183594 13.269531 32.890625 11.800781 32.550781 C 12.621094 30.585938 13.566406 28.667969 14.785156 26.917969 C 16.292969 24.761719 18.144531 22.882812 20.085938 21.109375 C 22.269531 19.164062 24.691406 17.507812 27.179688 15.976562 C 30.019531 14.324219 32.996094 12.917969 36.058594 11.71875 Z M 36.058594 11.71875 "/>
    <path style=" stroke:none;fill-rule:nonzero;fill:rgb(90.980392%,91.372549%,89.019608%);fill-opacity:1;" d="M 39.15625 14.054688 C 42.667969 13.53125 46.621094 14.007812 49.441406 16.332031 C 48.96875 17.371094 48.039062 18.074219 47.132812 18.714844 C 41.460938 19.945312 35.9375 21.972656 30.894531 24.867188 C 31.535156 22.996094 33.609375 22.453125 35.136719 21.519531 C 37.914062 19.910156 41.246094 19.421875 43.875 17.558594 C 44.214844 16.648438 43.003906 16.488281 42.394531 16.269531 C 37.644531 15.449219 32.796875 16.878906 28.636719 19.136719 C 25.472656 20.808594 22.769531 23.210938 20.363281 25.832031 C 19.132812 27.269531 18.191406 28.960938 17.589844 30.746094 C 17.316406 31.414062 17.816406 32.085938 18.378906 32.398438 C 19.429688 33.046875 20.507812 33.644531 21.535156 34.332031 C 19.761719 34.054688 18.015625 33.675781 16.242188 33.40625 C 15.925781 32.21875 15.203125 30.867188 15.957031 29.695312 C 18.664062 24.394531 23.441406 20.472656 28.546875 17.605469 C 31.921875 16.011719 35.453125 14.632812 39.15625 14.054688 Z M 39.15625 14.054688 "/>
    <path style=" stroke:none;fill-rule:nonzero;fill:rgb(28.235294%,39.215686%,58.039216%);fill-opacity:1;" d="M 10.210938 15.6875 C 14.320312 15.742188 18.4375 15.230469 22.53125 15.710938 C 24.085938 15.832031 25.671875 15.410156 27.179688 15.976562 C 24.691406 17.507812 22.269531 19.164062 20.085938 21.109375 C 17.832031 21.226562 15.429688 22.050781 13.261719 21.140625 C 11.664062 21.054688 10.050781 21.21875 8.5 21.617188 C 7.8125 21.816406 7.152344 21.417969 6.496094 21.277344 C 7.53125 19.285156 8.824219 17.445312 10.210938 15.6875 Z M 10.210938 15.6875 "/>
    <path style=" stroke:none;fill-rule:nonzero;fill:rgb(98.039216%,98.039216%,97.254902%);fill-opacity:1;" d="M 28.636719 19.136719 C 32.796875 16.878906 37.644531 15.449219 42.394531 16.269531 C 43.003906 16.488281 44.214844 16.648438 43.875 17.558594 C 41.246094 19.421875 37.914062 19.910156 35.136719 21.519531 C 33.609375 22.453125 31.535156 22.996094 30.894531 24.867188 C 30.660156 25.011719 30.183594 25.308594 29.945312 25.460938 C 30.117188 25.511719 30.46875 25.621094 30.644531 25.683594 C 31.136719 26.769531 31.730469 27.953125 32.988281 28.285156 C 40.285156 30.722656 48.1875 31.566406 54.925781 35.503906 C 57.277344 37.003906 59.582031 38.871094 60.714844 41.503906 C 62.265625 44.964844 61.210938 49.195312 58.671875 51.898438 C 55.15625 56.15625 49.984375 58.511719 44.941406 60.441406 C 40.164062 62.246094 35.007812 63.636719 29.867188 62.839844 C 28.429688 62.507812 27.015625 61.863281 25.941406 60.832031 C 25.34375 60.371094 25.644531 59.582031 25.644531 58.953125 C 29.726562 57.058594 34.25 56.492188 38.425781 54.871094 C 42.058594 53.648438 45.675781 52.351562 49.035156 50.488281 C 50.757812 49.503906 53.039062 48.554688 53.191406 46.261719 C 53.773438 45.777344 54.289062 45.222656 54.808594 44.664062 C 51.964844 42.035156 48.195312 40.816406 44.566406 39.738281 C 37.9375 37.890625 31.261719 36.195312 24.503906 34.910156 C 23.511719 34.71875 22.519531 34.539062 21.535156 34.332031 C 20.507812 33.644531 19.429688 33.046875 18.378906 32.398438 C 17.816406 32.085938 17.316406 31.414062 17.589844 30.746094 C 18.191406 28.960938 19.132812 27.269531 20.363281 25.832031 C 22.769531 23.210938 25.472656 20.808594 28.636719 19.136719 Z M 28.636719 19.136719 "/>
    <path style=" stroke:none;fill-rule:nonzero;fill:rgb(13.333333%,27.843137%,51.764706%);fill-opacity:1;" d="M 50.136719 18.164062 C 52.824219 17.71875 55.539062 17.332031 58.269531 17.308594 C 60.824219 17.253906 63.378906 17.195312 65.921875 17.414062 C 67.058594 17.488281 68.195312 17.609375 69.320312 17.796875 C 73.605469 24.132812 76.152344 31.683594 76.207031 39.359375 C 74.539062 39.859375 73.03125 40.738281 71.550781 41.632812 C 69.363281 42.949219 66.773438 43.617188 64.898438 45.4375 C 65.15625 42.28125 63.753906 39.148438 61.460938 37.023438 C 61.441406 37 61.394531 36.960938 61.371094 36.9375 C 61.238281 36.242188 61.117188 35.539062 60.925781 34.859375 C 58.816406 28.503906 55.289062 22.511719 50.136719 18.164062 Z M 50.136719 18.164062 "/>
    <path style=" stroke:none;fill-rule:nonzero;fill:rgb(29.803922%,43.921569%,64.313725%);fill-opacity:1;" d="M 47.132812 18.714844 C 48.128906 18.519531 49.132812 18.339844 50.136719 18.164062 C 55.289062 22.511719 58.816406 28.503906 60.925781 34.859375 C 61.117188 35.539062 61.238281 36.242188 61.371094 36.9375 C 57.625 33.550781 52.917969 31.507812 48.125 30.109375 C 42.34375 28.46875 36.527344 26.90625 30.644531 25.683594 C 30.46875 25.621094 30.117188 25.511719 29.945312 25.460938 C 30.183594 25.308594 30.660156 25.011719 30.894531 24.867188 C 35.9375 21.972656 41.460938 19.945312 47.132812 18.714844 Z M 47.132812 18.714844 "/>
    <path style=" stroke:none;fill-rule:nonzero;fill:rgb(31.764706%,40.784314%,58.039216%);fill-opacity:1;" d="M 8.5 21.617188 C 10.050781 21.21875 11.664062 21.054688 13.261719 21.140625 C 15.429688 22.050781 17.832031 21.226562 20.085938 21.109375 C 18.144531 22.882812 16.292969 24.761719 14.785156 26.917969 C 13.816406 27.453125 12.785156 28.058594 11.632812 27.949219 C 10 27.863281 8.339844 28.171875 6.742188 27.730469 C 5.648438 27.371094 4.5625 27.941406 3.507812 28.175781 C 4.261719 25.78125 5.292969 23.488281 6.453125 21.261719 L 6.496094 21.277344 C 7.152344 21.417969 7.8125 21.816406 8.5 21.617188 Z M 8.5 21.617188 "/>
    <path style=" stroke:none;fill-rule:nonzero;fill:rgb(0.392157%,0%,0%);fill-opacity:1;" d="M 154.21875 22.59375 C 156.816406 20.964844 160.015625 21.066406 162.96875 21.046875 C 165.707031 21.082031 168.671875 20.882812 171.113281 22.355469 C 173.09375 23.554688 173.917969 25.878906 174.359375 28.035156 C 172.242188 28.222656 170.128906 28.40625 168.011719 28.574219 C 167.8125 27.84375 167.460938 27 166.605469 26.898438 C 164.484375 26.730469 162.339844 26.832031 160.214844 26.835938 C 157.511719 26.613281 157.527344 31.800781 160.265625 31.488281 C 163.730469 31.636719 167.257812 31.210938 170.679688 31.910156 C 172.914062 32.394531 174.402344 34.589844 174.390625 36.828125 C 174.386719 39.503906 174.90625 42.730469 172.757812 44.785156 C 170.507812 46.863281 167.230469 46.988281 164.339844 46.992188 C 161.222656 46.921875 157.835938 47.351562 155.035156 45.695312 C 152.945312 44.449219 152.148438 41.964844 151.789062 39.6875 C 153.902344 39.574219 156.011719 39.503906 158.128906 39.414062 C 158.378906 40.117188 158.660156 41.003906 159.539062 41.101562 C 161.726562 41.285156 163.945312 41.191406 166.140625 41.15625 C 168.566406 41.140625 168.597656 36.507812 166.136719 36.535156 C 162.945312 36.417969 159.738281 36.660156 156.5625 36.304688 C 154.90625 36.128906 153.199219 35.308594 152.425781 33.761719 C 151.453125 31.894531 151.804688 29.722656 151.753906 27.703125 C 151.679688 25.738281 152.492188 23.660156 154.21875 22.59375 Z M 154.21875 22.59375 "/>
    <path style=" stroke:none;fill-rule:nonzero;fill:rgb(0.392157%,0%,0%);fill-opacity:1;" d="M 80.367188 21.308594 C 82.796875 21.304688 85.21875 21.300781 87.648438 21.3125 C 89.6875 26.738281 91.550781 32.230469 93.683594 37.617188 C 95.613281 32.191406 97.660156 26.808594 99.566406 21.371094 C 101.992188 21.226562 104.421875 21.335938 106.847656 21.3125 C 103.289062 29.871094 99.683594 38.414062 96.128906 46.972656 C 94.460938 47.003906 92.789062 46.988281 91.121094 46.992188 C 87.511719 38.441406 83.949219 29.871094 80.367188 21.308594 Z M 80.367188 21.308594 "/>
    <path style=" stroke:none;fill-rule:nonzero;fill:rgb(0.392157%,0%,0%);fill-opacity:1;" d="M 111.34375 21.308594 C 113.679688 21.308594 116.015625 21.285156 118.351562 21.328125 C 118.371094 29.828125 118.316406 38.332031 118.378906 46.832031 C 116.039062 46.992188 113.6875 46.867188 111.34375 46.894531 C 111.34375 38.367188 111.339844 29.839844 111.34375 21.308594 Z M 111.34375 21.308594 "/>
    <path style=" stroke:none;fill-rule:nonzero;fill:rgb(0.392157%,0%,0%);fill-opacity:1;" d="M 133.484375 21.308594 C 135.148438 21.304688 136.8125 21.304688 138.480469 21.308594 C 142.070312 29.863281 145.65625 38.421875 149.226562 46.988281 C 146.820312 46.992188 144.410156 46.992188 142.003906 46.988281 C 141.648438 46.054688 141.296875 45.121094 141.003906 44.171875 C 137.699219 44.046875 134.394531 44.167969 131.089844 44.109375 C 130.714844 45.0625 130.351562 46.027344 130.003906 46.992188 C 127.578125 46.980469 125.160156 46.996094 122.734375 46.988281 C 126.308594 38.421875 129.894531 29.863281 133.484375 21.308594 M 135.953125 30.675781 C 134.9375 33.5625 133.855469 36.425781 132.828125 39.308594 C 134.941406 39.324219 137.058594 39.316406 139.171875 39.3125 C 138.09375 36.4375 137.164062 33.503906 135.953125 30.675781 Z M 135.953125 30.675781 "/>
    <path style=" stroke:none;fill-rule:nonzero;fill:rgb(0.392157%,0%,0%);fill-opacity:1;" d="M 187.394531 21.308594 C 189.058594 21.304688 190.726562 21.300781 192.394531 21.3125 C 195.972656 29.867188 199.566406 38.421875 203.132812 46.980469 C 200.734375 47.007812 198.34375 46.960938 195.949219 47.011719 C 195.554688 46.058594 195.199219 45.09375 194.855469 44.121094 C 191.550781 44.132812 188.242188 44.082031 184.941406 44.148438 C 184.617188 45.101562 184.269531 46.046875 183.914062 46.988281 C 181.492188 46.996094 179.066406 46.992188 176.648438 46.988281 C 180.214844 38.421875 183.796875 29.863281 187.394531 21.308594 M 189.835938 30.828125 C 188.78125 33.648438 187.761719 36.480469 186.742188 39.3125 C 188.859375 39.316406 190.976562 39.324219 193.089844 39.308594 C 191.96875 36.5 191.1875 33.519531 189.835938 30.828125 Z M 189.835938 30.828125 "/>
    <path style=" stroke:none;fill-rule:nonzero;fill:rgb(0.392157%,0%,0%);fill-opacity:1;" d="M 201.179688 21.3125 C 209.484375 21.300781 217.785156 21.304688 226.085938 21.308594 C 226.09375 23.363281 226.09375 25.417969 226.085938 27.46875 C 223.113281 27.476562 220.136719 27.46875 217.15625 27.472656 C 217.144531 33.949219 217.167969 40.421875 217.148438 46.898438 C 214.804688 46.910156 212.464844 46.910156 210.121094 46.898438 C 210.109375 40.425781 210.117188 33.953125 210.121094 27.488281 C 207.140625 27.460938 204.164062 27.476562 201.191406 27.476562 C 201.167969 25.421875 201.175781 23.367188 201.179688 21.3125 Z M 201.179688 21.3125 "/>
    <path style=" stroke:none;fill-rule:nonzero;fill:rgb(0.392157%,0%,0%);fill-opacity:1;" d="M 189.960938 50.628906 C 202.007812 50.664062 214.046875 50.6875 226.09375 50.714844 C 226.085938 56.492188 226.101562 62.269531 226.082031 68.046875 C 212.933594 68.03125 199.78125 68.046875 186.636719 68.035156 C 187.734375 62.230469 188.851562 56.433594 189.960938 50.628906 M 192.796875 53.300781 C 191.953125 57.285156 191.101562 61.269531 190.261719 65.253906 C 191.84375 65.253906 193.421875 65.257812 195.007812 65.253906 C 195.34375 63.675781 195.679688 62.101562 196.003906 60.523438 C 197.757812 60.5 199.515625 60.511719 201.273438 60.511719 C 200.941406 62.09375 200.605469 63.675781 200.273438 65.253906 C 201.851562 65.253906 203.4375 65.253906 205.015625 65.253906 C 205.867188 61.269531 206.714844 57.285156 207.558594 53.296875 C 205.976562 53.289062 204.390625 53.289062 202.804688 53.300781 C 202.511719 54.691406 202.214844 56.078125 201.925781 57.46875 C 200.171875 57.472656 198.417969 57.46875 196.664062 57.472656 C 196.953125 56.078125 197.253906 54.6875 197.542969 53.296875 C 195.960938 53.296875 194.375 53.289062 192.796875 53.300781 M 209.839844 53.296875 C 208.988281 57.28125 208.144531 61.269531 207.300781 65.253906 C 210.667969 65.242188 214.042969 65.296875 217.410156 65.226562 C 219.679688 65.160156 221.988281 64.007812 223.03125 61.921875 C 223.953125 60.019531 224.535156 57.757812 223.960938 55.667969 C 223.425781 53.976562 221.507812 53.386719 219.914062 53.339844 C 216.558594 53.238281 213.199219 53.324219 209.839844 53.296875 Z M 209.839844 53.296875 "/>
    <path style=" stroke:none;fill-rule:nonzero;fill:rgb(0.392157%,0%,0%);fill-opacity:1;" d="M 213.941406 56.339844 C 215.496094 56.464844 217.316406 55.945312 218.660156 56.960938 C 219.804688 58.722656 218.660156 61.664062 216.535156 62.085938 C 215.269531 62.316406 213.96875 62.191406 212.695312 62.210938 C 213.109375 60.253906 213.523438 58.296875 213.941406 56.339844 Z M 213.941406 56.339844 "/>
    <path style=" stroke:none;fill-rule:nonzero;fill:rgb(86.666667%,87.843137%,87.058824%);fill-opacity:1;" d="M 30.644531 25.683594 C 36.527344 26.90625 42.34375 28.46875 48.125 30.109375 C 52.917969 31.507812 57.625 33.550781 61.371094 36.9375 C 61.394531 36.960938 61.441406 37 61.460938 37.023438 C 61.414062 38.75 62.785156 40.039062 63.148438 41.664062 C 63.457031 43.054688 63.375 44.496094 63.371094 45.910156 C 63.464844 48.085938 62.148438 49.941406 61.761719 52.027344 C 59.445312 54.59375 56.496094 56.480469 53.445312 58.058594 C 50.957031 59.355469 48.355469 60.417969 45.742188 61.425781 C 41.132812 63.128906 36.375 64.433594 31.542969 65.335938 C 28.0625 64.507812 23.898438 64.714844 21.3125 61.8125 C 20.308594 61.054688 20.324219 59.582031 20.808594 58.539062 C 22.296875 56.945312 24.605469 56.695312 26.5 55.789062 C 33.09375 54.738281 39.59375 52.996094 45.746094 50.382812 C 48.355469 49.257812 50.878906 47.925781 53.191406 46.261719 C 53.039062 48.554688 50.757812 49.503906 49.035156 50.488281 C 45.675781 52.351562 42.058594 53.648438 38.425781 54.871094 C 34.25 56.492188 29.726562 57.058594 25.644531 58.953125 C 25.644531 59.582031 25.34375 60.371094 25.941406 60.832031 C 27.015625 61.863281 28.429688 62.507812 29.867188 62.839844 C 35.007812 63.636719 40.164062 62.246094 44.941406 60.441406 C 49.984375 58.511719 55.15625 56.15625 58.671875 51.898438 C 61.210938 49.195312 62.265625 44.964844 60.714844 41.503906 C 59.582031 38.871094 57.277344 37.003906 54.925781 35.503906 C 48.1875 31.566406 40.285156 30.722656 32.988281 28.285156 C 31.730469 27.953125 31.136719 26.769531 30.644531 25.683594 Z M 30.644531 25.683594 "/>
    <path style=" stroke:none;fill-rule:nonzero;fill:rgb(37.254902%,43.529412%,58.431373%);fill-opacity:1;" d="M 11.632812 27.949219 C 12.785156 28.058594 13.816406 27.453125 14.785156 26.917969 C 13.566406 28.667969 12.621094 30.585938 11.800781 32.550781 C 10.777344 34.925781 10.808594 37.5625 10.601562 40.089844 C 8.292969 40.371094 5.96875 40.230469 3.660156 40.15625 C 2.992188 40.160156 2.355469 39.96875 1.753906 39.699219 C 1.679688 35.789062 2.34375 31.898438 3.507812 28.175781 C 4.5625 27.941406 5.648438 27.371094 6.742188 27.730469 C 8.339844 28.171875 10 27.863281 11.632812 27.949219 Z M 11.632812 27.949219 "/>
    <path style=" stroke:none;fill-rule:nonzero;fill:rgb(17.254902%,26.27451%,46.27451%);fill-opacity:1;" d="M 11.800781 32.550781 C 13.269531 32.890625 14.75 33.183594 16.242188 33.40625 C 18.015625 33.675781 19.761719 34.054688 21.535156 34.332031 C 22.519531 34.539062 23.511719 34.71875 24.503906 34.910156 C 23.484375 36.710938 23.792969 38.804688 23.820312 40.773438 C 24.039062 44.210938 23.777344 47.71875 24.789062 51.054688 C 25.292969 52.640625 25.335938 54.3125 25.046875 55.945312 C 23.132812 56.183594 21.207031 56.398438 19.269531 56.40625 C 18.304688 56.40625 17.347656 56.382812 16.386719 56.355469 C 15.558594 56.328125 14.738281 56.3125 13.910156 56.296875 C 11.632812 51.226562 10.519531 45.644531 10.601562 40.089844 C 10.808594 37.5625 10.777344 34.925781 11.800781 32.550781 Z M 11.800781 32.550781 "/>
    <path style=" stroke:none;fill-rule:nonzero;fill:rgb(15.294118%,29.803922%,54.117647%);fill-opacity:1;" d="M 24.503906 34.910156 C 31.261719 36.195312 37.9375 37.890625 44.566406 39.738281 C 48.195312 40.816406 51.964844 42.035156 54.808594 44.664062 C 54.289062 45.222656 53.773438 45.777344 53.191406 46.261719 C 50.878906 47.925781 48.355469 49.257812 45.746094 50.382812 C 39.59375 52.996094 33.09375 54.738281 26.5 55.789062 C 26.136719 55.828125 25.410156 55.90625 25.046875 55.945312 C 25.335938 54.3125 25.292969 52.640625 24.789062 51.054688 C 23.777344 47.71875 24.039062 44.210938 23.820312 40.773438 C 23.792969 38.804688 23.484375 36.710938 24.503906 34.910156 Z M 24.503906 34.910156 "/>
    <path style=" stroke:none;fill-rule:nonzero;fill:rgb(74.117647%,75.686275%,74.901961%);fill-opacity:1;" d="M 63.148438 41.664062 C 62.785156 40.039062 61.414062 38.75 61.460938 37.023438 C 63.753906 39.148438 65.15625 42.28125 64.898438 45.4375 C 64.707031 47.535156 63.828125 49.511719 62.578125 51.195312 C 62.375 51.40625 61.964844 51.816406 61.761719 52.027344 C 62.148438 49.941406 63.464844 48.085938 63.371094 45.910156 C 63.375 44.496094 63.457031 43.054688 63.148438 41.664062 Z M 63.148438 41.664062 "/>
    <path style=" stroke:none;fill-rule:nonzero;fill:rgb(42.352941%,46.27451%,58.823529%);fill-opacity:1;" d="M 1.753906 39.699219 C 2.355469 39.96875 2.992188 40.160156 3.660156 40.15625 C 5.96875 40.230469 8.292969 40.371094 10.601562 40.089844 C 10.519531 45.644531 11.632812 51.226562 13.910156 56.296875 C 13.664062 56.28125 13.171875 56.261719 12.925781 56.25 C 11.058594 55.84375 9.207031 55.382812 7.355469 54.914062 C 6.566406 53.738281 5.195312 53.082031 4.503906 51.8125 C 2.289062 48.21875 1.714844 43.855469 1.753906 39.699219 Z M 1.753906 39.699219 "/>
    <path style=" stroke:none;fill-rule:nonzero;fill:rgb(12.54902%,24.705882%,47.45098%);fill-opacity:1;" d="M 71.550781 41.632812 C 73.03125 40.738281 74.539062 39.859375 76.207031 39.359375 C 76.710938 53.609375 68.585938 67.8125 55.882812 74.332031 C 56.949219 72.167969 58.269531 70.136719 59.1875 67.898438 C 61.414062 62.632812 62.496094 56.898438 62.578125 51.195312 C 63.828125 49.511719 64.707031 47.535156 64.898438 45.4375 C 66.773438 43.617188 69.363281 42.949219 71.550781 41.632812 Z M 71.550781 41.632812 "/>
    <path style=" stroke:none;fill-rule:nonzero;fill:rgb(14.117647%,11.372549%,25.490196%);fill-opacity:1;" d="M 85.355469 50.828125 C 87.785156 50.816406 90.214844 50.816406 92.644531 50.828125 C 92.65625 56.488281 92.664062 62.148438 92.640625 67.808594 C 90.210938 67.816406 87.785156 67.816406 85.355469 67.808594 C 85.351562 62.148438 85.351562 56.488281 85.355469 50.828125 Z M 85.355469 50.828125 "/>
    <path style=" stroke:none;fill-rule:nonzero;fill:rgb(14.509804%,14.117647%,30.196078%);fill-opacity:1;" d="M 92.644531 50.828125 C 95.949219 50.824219 99.257812 50.816406 102.566406 50.824219 C 102.558594 56.488281 102.527344 62.148438 102.570312 67.8125 C 99.261719 67.816406 95.953125 67.8125 92.640625 67.808594 C 92.664062 62.148438 92.65625 56.488281 92.644531 50.828125 Z M 92.644531 50.828125 "/>
    <path style=" stroke:none;fill-rule:nonzero;fill:rgb(15.294118%,16.862745%,34.901961%);fill-opacity:1;" d="M 102.566406 50.824219 C 104.394531 50.824219 106.222656 50.816406 108.050781 50.828125 C 108.082031 56.488281 108.035156 62.148438 108.066406 67.808594 C 106.234375 67.816406 104.40625 67.8125 102.570312 67.8125 C 102.527344 62.148438 102.558594 56.488281 102.566406 50.824219 Z M 102.566406 50.824219 "/>
    <path style=" stroke:none;fill-rule:nonzero;fill:rgb(15.686275%,19.215686%,38.431373%);fill-opacity:1;" d="M 108.050781 50.828125 C 110.027344 50.824219 112 50.816406 113.976562 50.828125 C 114.054688 56.488281 114.011719 62.148438 113.984375 67.808594 C 112.015625 67.816406 110.039062 67.8125 108.066406 67.808594 C 108.035156 62.148438 108.082031 56.488281 108.050781 50.828125 Z M 108.050781 50.828125 "/>
    <path style=" stroke:none;fill-rule:nonzero;fill:rgb(15.686275%,22.352941%,43.921569%);fill-opacity:1;" d="M 113.976562 50.828125 C 117.128906 50.824219 120.277344 50.816406 123.429688 50.828125 C 123.410156 56.488281 123.410156 62.148438 123.460938 67.8125 C 120.300781 67.816406 117.144531 67.8125 113.984375 67.808594 C 114.011719 62.148438 114.054688 56.488281 113.976562 50.828125 Z M 113.976562 50.828125 "/>
    <path style=" stroke:none;fill-rule:nonzero;fill:rgb(13.333333%,25.490196%,49.019608%);fill-opacity:1;" d="M 123.429688 50.828125 C 124.976562 50.816406 126.523438 50.816406 128.074219 50.828125 C 128.101562 56.488281 128.128906 62.148438 128.058594 67.8125 C 126.523438 67.816406 124.992188 67.8125 123.460938 67.8125 C 123.410156 62.148438 123.410156 56.488281 123.429688 50.828125 Z M 123.429688 50.828125 "/>
    <path style=" stroke:none;fill-rule:nonzero;fill:rgb(11.764706%,28.235294%,53.72549%);fill-opacity:1;" d="M 128.074219 50.828125 C 130.773438 50.824219 133.472656 50.816406 136.171875 50.824219 C 136.113281 56.488281 136.121094 62.148438 136.175781 67.8125 C 133.472656 67.816406 130.765625 67.8125 128.058594 67.8125 C 128.128906 62.148438 128.101562 56.488281 128.074219 50.828125 Z M 128.074219 50.828125 "/>
    <path style=" stroke:none;fill-rule:nonzero;fill:rgb(10.980392%,31.764706%,58.823529%);fill-opacity:1;" d="M 136.171875 50.824219 C 137.84375 50.824219 139.515625 50.816406 141.179688 50.824219 C 141.25 56.488281 141.203125 62.148438 141.199219 67.8125 C 139.523438 67.816406 137.851562 67.8125 136.175781 67.8125 C 136.121094 62.148438 136.113281 56.488281 136.171875 50.824219 Z M 136.171875 50.824219 "/>
    <path style=" stroke:none;fill-rule:nonzero;fill:rgb(12.941176%,34.117647%,60.784314%);fill-opacity:1;" d="M 141.179688 50.824219 C 143.308594 50.824219 145.433594 50.816406 147.5625 50.824219 C 147.539062 56.488281 147.5625 62.148438 147.515625 67.8125 C 145.40625 67.816406 143.304688 67.8125 141.199219 67.8125 C 141.203125 62.148438 141.25 56.488281 141.179688 50.824219 Z M 141.179688 50.824219 "/>
    <path style=" stroke:none;fill-rule:nonzero;fill:rgb(14.509804%,36.862745%,63.529412%);fill-opacity:1;" d="M 147.5625 50.824219 C 149.980469 50.824219 152.398438 50.816406 154.820312 50.824219 C 154.738281 56.488281 154.835938 62.148438 154.777344 67.8125 C 152.359375 67.816406 149.933594 67.8125 147.515625 67.8125 C 147.5625 62.148438 147.539062 56.488281 147.5625 50.824219 Z M 147.5625 50.824219 "/>
    <path style=" stroke:none;fill-rule:nonzero;fill:rgb(12.54902%,39.607843%,65.882353%);fill-opacity:1;" d="M 154.820312 50.824219 C 157.546875 50.824219 160.277344 50.816406 163.007812 50.824219 C 162.949219 51.671875 162.890625 52.523438 162.832031 53.371094 C 161.222656 54.101562 159.75 55.078125 158.207031 55.925781 C 158.308594 57 158.421875 58.066406 158.542969 59.140625 C 159.414062 58.699219 160.289062 58.261719 161.160156 57.8125 C 161.171875 59.433594 161.171875 61.046875 161.164062 62.664062 C 160.449219 62.664062 159.726562 62.667969 159.011719 62.671875 C 159.007812 63.554688 159.011719 64.433594 159.011719 65.3125 C 160.332031 65.3125 161.648438 65.316406 162.964844 65.3125 C 162.953125 66.144531 162.949219 66.976562 162.945312 67.8125 C 160.222656 67.816406 157.5 67.8125 154.777344 67.8125 C 154.835938 62.148438 154.738281 56.488281 154.820312 50.824219 Z M 154.820312 50.824219 "/>
    <path style=" stroke:none;fill-rule:nonzero;fill:rgb(12.941176%,44.705882%,70.588235%);fill-opacity:1;" d="M 163.007812 50.824219 C 166.96875 50.824219 170.921875 50.816406 174.878906 50.824219 C 174.863281 51.609375 174.84375 52.394531 174.828125 53.183594 C 173.097656 53.351562 171.316406 53.992188 170.203125 55.390625 C 168.699219 57.300781 168.5625 60.046875 169.382812 62.273438 C 170.144531 64.308594 172.320312 65.390625 174.394531 65.480469 C 174.585938 66.253906 174.773438 67.03125 174.960938 67.8125 C 170.957031 67.816406 166.949219 67.8125 162.945312 67.8125 C 162.949219 66.976562 162.953125 66.144531 162.964844 65.3125 C 164.453125 65.3125 165.945312 65.3125 167.441406 65.3125 C 167.441406 64.4375 167.441406 63.558594 167.441406 62.6875 C 166.742188 62.675781 166.035156 62.667969 165.34375 62.664062 C 165.292969 59.558594 165.433594 56.449219 165.265625 53.351562 C 164.453125 53.363281 163.640625 53.359375 162.832031 53.371094 C 162.890625 52.523438 162.949219 51.671875 163.007812 50.824219 Z M 163.007812 50.824219 "/>
    <path style=" stroke:none;fill-rule:nonzero;fill:rgb(20%,51.764706%,76.862745%);fill-opacity:1;" d="M 174.878906 50.824219 C 179.15625 50.828125 183.433594 50.816406 187.714844 50.824219 C 186.792969 56.519531 185.511719 62.144531 184.4375 67.8125 C 181.277344 67.816406 178.121094 67.8125 174.960938 67.8125 C 174.773438 67.03125 174.585938 66.253906 174.394531 65.480469 C 176.234375 65.5 178.304688 65.382812 179.734375 64.0625 C 181.359375 62.5625 181.421875 59.296875 179.277344 58.230469 C 177.3125 57.269531 175.035156 57.527344 172.957031 57.859375 C 174.5 55.609375 177.554688 56.230469 179.832031 56.671875 C 179.910156 55.667969 179.988281 54.660156 180.0625 53.65625 C 178.359375 53.191406 176.582031 53.089844 174.828125 53.183594 C 174.84375 52.394531 174.863281 51.609375 174.878906 50.824219 Z M 174.878906 50.824219 "/>
    <path style=" stroke:none;fill-rule:nonzero;fill:rgb(22.352941%,40.784314%,62.745098%);fill-opacity:1;" d="M 61.761719 52.027344 C 61.964844 51.816406 62.375 51.40625 62.578125 51.195312 C 62.496094 56.898438 61.414062 62.632812 59.1875 67.898438 C 58.269531 70.136719 56.949219 72.167969 55.882812 74.332031 C 53.839844 75.4375 51.675781 76.296875 49.457031 76.976562 C 50.152344 75.613281 50.980469 74.269531 51.191406 72.726562 C 51.582031 70.699219 51.367188 68.492188 52.476562 66.664062 C 54.082031 64.039062 52.757812 60.898438 53.445312 58.058594 C 56.496094 56.480469 59.445312 54.59375 61.761719 52.027344 Z M 61.761719 52.027344 "/>
    <path style=" stroke:none;fill-rule:nonzero;fill:rgb(100%,100%,100%);fill-opacity:1;" d="M 158.207031 55.925781 C 159.75 55.078125 161.222656 54.101562 162.832031 53.371094 C 163.640625 53.359375 164.453125 53.363281 165.265625 53.351562 C 165.433594 56.449219 165.292969 59.558594 165.34375 62.664062 C 166.035156 62.667969 166.742188 62.675781 167.441406 62.6875 C 167.441406 63.558594 167.441406 64.4375 167.441406 65.3125 C 165.945312 65.3125 164.453125 65.3125 162.964844 65.3125 C 161.648438 65.316406 160.332031 65.3125 159.011719 65.3125 C 159.011719 64.433594 159.007812 63.554688 159.011719 62.671875 C 159.726562 62.667969 160.449219 62.664062 161.164062 62.664062 C 161.171875 61.046875 161.171875 59.433594 161.160156 57.8125 C 160.289062 58.261719 159.414062 58.699219 158.542969 59.140625 C 158.421875 58.066406 158.308594 57 158.207031 55.925781 Z M 158.207031 55.925781 "/>
    <path style=" stroke:none;fill-rule:nonzero;fill:rgb(100%,100%,100%);fill-opacity:1;" d="M 170.203125 55.390625 C 171.316406 53.992188 173.097656 53.351562 174.828125 53.183594 C 176.582031 53.089844 178.359375 53.191406 180.0625 53.65625 C 179.988281 54.660156 179.910156 55.667969 179.832031 56.671875 C 177.554688 56.230469 174.5 55.609375 172.957031 57.859375 C 175.035156 57.527344 177.3125 57.269531 179.277344 58.230469 C 181.421875 59.296875 181.359375 62.5625 179.734375 64.0625 C 178.304688 65.382812 176.234375 65.5 174.394531 65.480469 C 172.320312 65.390625 170.144531 64.308594 169.382812 62.273438 C 168.5625 60.046875 168.699219 57.300781 170.203125 55.390625 M 173.003906 60.796875 C 173.152344 62.824219 176.898438 63.109375 176.886719 60.9375 C 176.082031 59.691406 174.082031 60.074219 173.003906 60.796875 Z M 173.003906 60.796875 "/>
    <path style=" stroke:none;fill-rule:nonzero;fill:rgb(100%,100%,100%);fill-opacity:1;" d="M 192.796875 53.300781 C 194.375 53.289062 195.960938 53.296875 197.542969 53.296875 C 197.253906 54.6875 196.953125 56.078125 196.664062 57.472656 C 198.417969 57.46875 200.171875 57.472656 201.925781 57.46875 C 202.214844 56.078125 202.511719 54.691406 202.804688 53.300781 C 204.390625 53.289062 205.976562 53.289062 207.558594 53.296875 C 206.714844 57.285156 205.867188 61.269531 205.015625 65.253906 C 203.4375 65.253906 201.851562 65.253906 200.273438 65.253906 C 200.605469 63.675781 200.941406 62.09375 201.273438 60.511719 C 199.515625 60.511719 197.757812 60.5 196.003906 60.523438 C 195.679688 62.101562 195.34375 63.675781 195.007812 65.253906 C 193.421875 65.257812 191.84375 65.253906 190.261719 65.253906 C 191.101562 61.269531 191.953125 57.285156 192.796875 53.300781 Z M 192.796875 53.300781 "/>
    <path style=" stroke:none;fill-rule:nonzero;fill:rgb(100%,100%,100%);fill-opacity:1;" d="M 209.839844 53.296875 C 213.199219 53.324219 216.558594 53.238281 219.914062 53.339844 C 221.507812 53.386719 223.425781 53.976562 223.960938 55.667969 C 224.535156 57.757812 223.953125 60.019531 223.03125 61.921875 C 221.988281 64.007812 219.679688 65.160156 217.410156 65.226562 C 214.042969 65.296875 210.667969 65.242188 207.300781 65.253906 C 208.144531 61.269531 208.988281 57.28125 209.839844 53.296875 M 213.941406 56.339844 C 213.523438 58.296875 213.109375 60.253906 212.695312 62.210938 C 213.96875 62.191406 215.269531 62.316406 216.535156 62.085938 C 218.660156 61.664062 219.804688 58.722656 218.660156 56.960938 C 217.316406 55.945312 215.496094 56.464844 213.941406 56.339844 Z M 213.941406 56.339844 "/>
    <path style=" stroke:none;fill-rule:nonzero;fill:rgb(54.509804%,56.078431%,57.254902%);fill-opacity:1;" d="M 7.355469 54.914062 C 9.207031 55.382812 11.058594 55.84375 12.925781 56.25 C 11.804688 57.261719 10.457031 57.976562 8.929688 58.101562 C 8.355469 57.0625 7.78125 56.023438 7.355469 54.914062 Z M 7.355469 54.914062 "/>
    <path style=" stroke:none;fill-rule:nonzero;fill:rgb(78.823529%,79.215686%,77.647059%);fill-opacity:1;" d="M 19.269531 56.40625 C 21.207031 56.398438 23.132812 56.183594 25.046875 55.945312 C 25.410156 55.90625 26.136719 55.828125 26.5 55.789062 C 24.605469 56.695312 22.296875 56.945312 20.808594 58.539062 C 20.324219 59.582031 20.308594 61.054688 21.3125 61.8125 C 23.898438 64.714844 28.0625 64.507812 31.542969 65.335938 C 29.742188 65.71875 27.917969 65.996094 26.082031 66.210938 C 23.644531 65.222656 20.835938 64.816406 18.917969 62.855469 C 17.914062 61.851562 16.429688 60.519531 17.101562 58.949219 C 17.742188 58.03125 18.550781 57.253906 19.269531 56.40625 Z M 19.269531 56.40625 "/>
    <path style=" stroke:none;fill-rule:nonzero;fill:rgb(62.352941%,63.529412%,63.921569%);fill-opacity:1;" d="M 8.929688 58.101562 C 10.457031 57.976562 11.804688 57.261719 12.925781 56.25 C 13.171875 56.261719 13.664062 56.28125 13.910156 56.296875 C 14.738281 56.3125 15.558594 56.328125 16.386719 56.355469 C 15.652344 57.167969 14.828125 57.9375 14.328125 58.925781 C 14.082031 60.59375 15.300781 62.023438 16.402344 63.121094 C 17.972656 64.742188 20.164062 65.46875 22.050781 66.621094 C 21.128906 66.714844 20.210938 66.796875 19.289062 66.816406 C 18.144531 66.710938 16.992188 66.714844 15.84375 66.785156 C 13.078125 64.296875 10.804688 61.304688 8.929688 58.101562 Z M 8.929688 58.101562 "/>
    <path style=" stroke:none;fill-rule:nonzero;fill:rgb(70.980392%,71.372549%,70.980392%);fill-opacity:1;" d="M 16.386719 56.355469 C 17.347656 56.382812 18.304688 56.40625 19.269531 56.40625 C 18.550781 57.253906 17.742188 58.03125 17.101562 58.949219 C 16.429688 60.519531 17.914062 61.851562 18.917969 62.855469 C 20.835938 64.816406 23.644531 65.222656 26.082031 66.210938 C 24.742188 66.394531 23.394531 66.503906 22.050781 66.621094 C 20.164062 65.46875 17.972656 64.742188 16.402344 63.121094 C 15.300781 62.023438 14.082031 60.59375 14.328125 58.925781 C 14.828125 57.9375 15.652344 57.167969 16.386719 56.355469 Z M 16.386719 56.355469 "/>
    <path style=" stroke:none;fill-rule:nonzero;fill:rgb(28.627451%,42.745098%,63.529412%);fill-opacity:1;" d="M 45.742188 61.425781 C 48.355469 60.417969 50.957031 59.355469 53.445312 58.058594 C 52.757812 60.898438 54.082031 64.039062 52.476562 66.664062 C 51.367188 68.492188 51.582031 70.699219 51.191406 72.726562 C 50.980469 74.269531 50.152344 75.613281 49.457031 76.976562 C 43.980469 78.65625 38.113281 78.769531 32.46875 77.953125 C 32.300781 76.089844 32.15625 74.21875 31.871094 72.367188 C 31.585938 71.011719 30.160156 70.441406 28.992188 70.039062 C 34.394531 70.605469 40.019531 68.714844 43.785156 64.75 C 44.625 63.785156 45.757812 62.824219 45.742188 61.425781 Z M 45.742188 61.425781 "/>
    <path style=" stroke:none;fill-rule:nonzero;fill:rgb(16.470588%,48.235294%,73.72549%);fill-opacity:1;" d="M 173.003906 60.796875 C 174.082031 60.074219 176.082031 59.691406 176.886719 60.9375 C 176.898438 63.109375 173.152344 62.824219 173.003906 60.796875 Z M 173.003906 60.796875 "/>
    <path style=" stroke:none;fill-rule:nonzero;fill:rgb(14.509804%,27.058824%,50.588235%);fill-opacity:1;" d="M 31.542969 65.335938 C 36.375 64.433594 41.132812 63.128906 45.742188 61.425781 C 45.757812 62.824219 44.625 63.785156 43.785156 64.75 C 40.019531 68.714844 34.394531 70.605469 28.992188 70.039062 C 27.035156 69.808594 25.109375 69.351562 23.257812 68.671875 C 21.875 68.195312 20.5625 67.535156 19.289062 66.816406 C 20.210938 66.796875 21.128906 66.714844 22.050781 66.621094 C 23.394531 66.503906 24.742188 66.394531 26.082031 66.210938 C 27.917969 65.996094 29.742188 65.71875 31.542969 65.335938 Z M 31.542969 65.335938 "/>
    <path style=" stroke:none;fill-rule:nonzero;fill:rgb(38.823529%,44.313725%,59.607843%);fill-opacity:1;" d="M 11.984375 66.527344 C 13.269531 66.664062 14.554688 66.886719 15.84375 66.785156 C 16.992188 66.714844 18.144531 66.710938 19.289062 66.816406 C 20.5625 67.535156 21.875 68.195312 23.257812 68.671875 C 24.535156 70.917969 24.765625 73.507812 25.484375 75.941406 C 20.382812 73.839844 15.621094 70.710938 11.984375 66.527344 Z M 11.984375 66.527344 "/>
    <path style=" stroke:none;fill-rule:nonzero;fill:rgb(35.294118%,44.313725%,61.568627%);fill-opacity:1;" d="M 23.257812 68.671875 C 25.109375 69.351562 27.035156 69.808594 28.992188 70.039062 C 30.160156 70.441406 31.585938 71.011719 31.871094 72.367188 C 32.15625 74.21875 32.300781 76.089844 32.46875 77.953125 C 30.089844 77.480469 27.742188 76.832031 25.484375 75.941406 C 24.765625 73.507812 24.535156 70.917969 23.257812 68.671875 Z M 23.257812 68.671875 "/>
  </g>
</svg>