<?xml version="1.0" encoding="UTF-8" standalone="yes"?>
<svg xmlns="http://www.w3.org/2000/svg" xmlns:xlink="http://www.w3.org/1999/xlink" width="82.66666666666666px" height="106.66666666666666px" viewBox="0 0 62 80" version="1.1">
  <g id="surface1">
    <path style=" stroke:none;fill-rule:nonzero;fill:rgb(0%,21.960784%,49.803922%);fill-opacity:1;" d="M 5.386719 21.199219 C 23.324219 15.199219 41.253906 9.175781 59.1875 3.175781 C 57.410156 9.59375 55.597656 16.007812 53.804688 22.425781 C 49.628906 37.351562 45.441406 52.273438 41.273438 67.199219 C 35.828125 68.75 30.375 70.261719 24.925781 71.800781 C 23.664062 72.140625 22.410156 72.523438 21.140625 72.847656 C 24.714844 59.996094 28.292969 47.144531 31.867188 34.296875 C 33.242188 29.339844 34.632812 24.390625 35.996094 19.429688 C 24.929688 23.203125 13.851562 26.957031 2.78125 30.726562 C 3.628906 27.542969 4.523438 24.375 5.386719 21.199219 Z M 5.386719 21.199219 "/>
    <path style=" stroke:none;fill-rule:nonzero;fill:rgb(0%,21.960784%,49.803922%);fill-opacity:1;" d="M 21.140625 27.234375 C 24.496094 26.078125 27.847656 24.917969 31.203125 23.761719 C 29.417969 30.371094 27.597656 36.96875 25.800781 43.574219 C 24.03125 50.054688 22.261719 56.535156 20.488281 63.015625 C 19.507812 66.585938 18.546875 70.164062 17.554688 73.730469 C 14.214844 74.738281 10.878906 75.765625 7.539062 76.765625 C 12.074219 60.257812 16.605469 43.746094 21.140625 27.234375 Z M 21.140625 27.234375 "/>
  </g>
</svg>