<?xml version="1.0" encoding="UTF-8" ?>
<!DOCTYPE svg PUBLIC "-//W3C//DTD SVG 1.1//EN" "http://www.w3.org/Graphics/SVG/1.1/DTD/svg11.dtd">
<svg width="800pt" height="1040pt" viewBox="0 0 800 1040" version="1.1" xmlns="http://www.w3.org/2000/svg">
<g id="#00387fff">
<path fill="#00387f" opacity="1.00" d=" M 69.50 275.59 C 300.95 197.60 532.30 119.30 763.73 41.26 C 740.76 124.74 717.39 208.12 694.26 291.56 C 640.38 485.58 586.34 679.56 532.56 873.61 C 462.31 893.73 391.93 913.41 321.64 933.39 C 305.33 937.84 289.15 942.80 272.79 947.01 C 318.91 779.95 365.06 612.90 411.21 445.84 C 428.94 381.43 446.89 317.06 464.49 252.61 C 321.66 301.65 178.74 350.44 35.89 399.43 C 46.83 358.08 58.35 316.89 69.50 275.59 Z" />
<path fill="#00387f" opacity="1.00" d=" M 272.80 354.07 C 316.08 339.04 359.34 323.94 402.62 308.91 C 379.57 394.82 356.10 480.61 332.90 566.49 C 310.06 650.72 287.23 734.96 264.39 819.19 C 251.73 865.63 239.33 912.13 226.52 958.52 C 183.41 971.58 140.39 984.94 97.28 997.96 C 155.78 783.33 214.26 568.69 272.80 354.07 Z" />
</g>
</svg>
