<?xml version="1.0" encoding="UTF-8" standalone="yes"?>
<svg xmlns="http://www.w3.org/2000/svg" xmlns:xlink="http://www.w3.org/1999/xlink" width="256px" height="106.66666666666666px" viewBox="0 0 192 80" version="1.1">
  <defs>
    <linearGradient id="linear0" gradientUnits="userSpaceOnUse" x1="0" y1="0" x2="1" y2="0" gradientTransform="matrix(45.680256,0,0,45.711458,1999.684463,-743.39572)">
      <stop offset="0" style="stop-color:rgb(46.27451%,4.705882%,1.568627%);stop-opacity:1;"/>
      <stop offset="1" style="stop-color:rgb(83.921569%,4.705882%,7.058824%);stop-opacity:1;"/>
    </linearGradient>
    <linearGradient id="linear1" gradientUnits="userSpaceOnUse" x1="0" y1="0" x2="1" y2="0" gradientTransform="matrix(94.821474,0,0,94.886243,49.892312,39.921707)">
      <stop offset="0" style="stop-color:rgb(14.509804%,12.54902%,34.509804%);stop-opacity:1;"/>
      <stop offset="1" style="stop-color:rgb(16.470588%,13.72549%,44.705882%);stop-opacity:1;"/>
    </linearGradient>
    <linearGradient id="linear2" gradientUnits="userSpaceOnUse" x1="0" y1="0" x2="1" y2="0" gradientTransform="matrix(42.328122,0,0,42.357035,148.366482,39.600319)">
      <stop offset="0" style="stop-color:rgb(46.27451%,4.705882%,1.568627%);stop-opacity:1;"/>
      <stop offset="1" style="stop-color:rgb(83.921569%,4.705882%,7.058824%);stop-opacity:1;"/>
    </linearGradient>
  </defs>
  <g id="surface1">
    <path style=" stroke:none;fill-rule:evenodd;fill:url(#linear0);" d="M 26.824219 1.164062 L 46.730469 1.164062 L 46.84375 78.082031 L 24.890625 78.039062 C 25.867188 75.628906 26.78125 73.140625 27.480469 70.824219 C 31.632812 57.132812 21.988281 52.707031 30.871094 36.617188 C 38.570312 35.128906 41.597656 28.019531 40.5 22.613281 L 40.539062 20.886719 C 40.050781 20.542969 39.695312 20.378906 39.296875 19.96875 C 34.882812 15.457031 29.789062 11.582031 26.824219 1.164062 M 4.335938 1.164062 L 22.179688 1.164062 C 22.730469 9.925781 26.328125 15.8125 29.601562 19.96875 C 29.960938 20.421875 30.34375 20.550781 30.839844 20.886719 L 30.804688 22.613281 C 31.902344 28.019531 28.886719 35.132812 21.1875 36.625 C 16.597656 49.75 25.148438 53.597656 24.746094 64.605469 C 24.519531 70.71875 23.625 73.6875 22.449219 78.039062 L 1.160156 78.039062 L 1.160156 1.164062 L 4.335938 1.164062 "/>
    <path style=" stroke:none;fill-rule:nonzero;fill:url(#linear1);" d="M 144.714844 71.863281 L 144.714844 78.039062 L 130.515625 78.039062 L 130.515625 47.03125 L 144.210938 47.03125 L 144.210938 53.203125 L 138.730469 53.203125 L 138.730469 59.09375 L 143.847656 59.09375 L 143.847656 64.980469 L 138.730469 64.980469 L 138.730469 71.863281 Z M 120.222656 47.03125 L 128.441406 47.03125 L 128.441406 78.039062 L 120.222656 78.039062 Z M 109.769531 47.03125 L 118.410156 47.03125 L 114.21875 78.039062 L 101.859375 78.039062 L 97.085938 47.03125 L 105.734375 47.03125 C 106.710938 55.570312 107.417969 62.808594 107.855469 68.761719 C 108.289062 62.746094 108.757812 57.429688 109.253906 52.792969 Z M 88.015625 69.234375 C 88.015625 71.0625 87.945312 72.214844 87.789062 72.699219 C 87.632812 73.183594 87.285156 73.425781 86.734375 73.425781 C 86.203125 73.425781 85.863281 73.214844 85.714844 72.800781 C 85.570312 72.371094 85.5 71.265625 85.5 69.460938 L 85.5 55.003906 C 85.5 53.414062 85.609375 52.457031 85.828125 52.132812 C 86.054688 51.808594 86.375 51.644531 86.796875 51.644531 C 87.285156 51.644531 87.621094 51.84375 87.78125 52.246094 C 87.9375 52.648438 88.015625 53.570312 88.015625 55.003906 Z M 94.539062 49.648438 C 93.726562 48.5625 92.636719 47.75 91.300781 47.207031 C 89.957031 46.667969 88.445312 46.394531 86.765625 46.394531 C 84.976562 46.394531 83.417969 46.679688 82.085938 47.257812 C 80.753906 47.832031 79.695312 48.648438 78.90625 49.726562 C 78.121094 50.796875 77.65625 51.980469 77.507812 53.269531 C 77.355469 54.566406 77.277344 56.773438 77.277344 59.886719 L 77.277344 65.183594 C 77.277344 68.371094 77.363281 70.613281 77.511719 71.882812 C 77.667969 73.160156 78.160156 74.339844 78.980469 75.421875 C 79.792969 76.507812 80.867188 77.324219 82.214844 77.863281 C 83.558594 78.40625 85.074219 78.675781 86.765625 78.675781 C 88.535156 78.675781 90.097656 78.386719 91.421875 77.816406 C 92.765625 77.242188 93.824219 76.417969 94.613281 75.347656 C 95.394531 74.277344 95.863281 73.09375 96.007812 71.796875 C 96.160156 70.5 96.238281 68.296875 96.238281 65.183594 L 96.238281 59.886719 C 96.238281 56.695312 96.160156 54.460938 95.996094 53.183594 C 95.839844 51.910156 95.363281 50.722656 94.539062 49.648438 Z M 64.46875 47.03125 L 75.117188 47.03125 L 75.117188 78.039062 L 67.984375 78.039062 L 67.949219 57.105469 L 65.097656 78.039062 L 60.058594 78.039062 L 57.0625 57.53125 L 57.03125 78.039062 L 49.890625 78.039062 L 49.890625 47.03125 L 60.472656 47.03125 C 60.746094 48.898438 61.070312 51.089844 61.445312 53.613281 L 62.613281 61.507812 Z M 144.199219 43.90625 L 125.183594 43.90625 L 125.183594 1.164062 L 143.476562 1.164062 L 143.476562 9.652344 L 135.945312 9.652344 L 135.945312 17.703125 L 142.984375 17.703125 L 142.984375 25.894531 L 135.945312 25.894531 L 135.945312 35.289062 L 144.199219 35.289062 Z M 120.683594 40.597656 C 119.625 41.984375 118.234375 43.035156 116.5 43.753906 C 114.769531 44.46875 112.730469 44.824219 110.386719 44.824219 C 107.785156 44.824219 105.488281 44.402344 103.503906 43.554688 C 101.507812 42.707031 100.023438 41.601562 99.035156 40.242188 C 98.046875 38.886719 97.46875 37.445312 97.292969 35.941406 C 97.109375 34.429688 97.023438 31.253906 97.023438 26.414062 L 97.023438 1.164062 L 108.355469 1.164062 L 108.355469 33.175781 C 108.355469 35.054688 108.457031 36.246094 108.660156 36.769531 C 108.863281 37.292969 109.28125 37.546875 109.902344 37.546875 C 110.613281 37.546875 111.066406 37.265625 111.277344 36.695312 C 111.480469 36.117188 111.582031 34.761719 111.582031 32.625 L 111.582031 1.164062 L 122.90625 1.164062 L 122.90625 29.695312 C 122.90625 32.945312 122.808594 35.230469 122.589844 36.550781 C 122.378906 37.863281 121.738281 39.210938 120.683594 40.597656 Z M 96.078125 43.90625 L 77.929688 43.90625 L 77.929688 1.164062 L 89.261719 1.164062 L 89.261719 35.289062 L 96.078125 35.289062 Z M 64.507812 17.015625 C 64.210938 17.550781 63.511719 17.816406 62.414062 17.816406 C 62.148438 17.816406 61.78125 17.828125 61.300781 17.84375 L 61.300781 8.382812 C 62.453125 8.398438 63.222656 8.476562 63.621094 8.617188 C 64.015625 8.761719 64.339844 9.097656 64.589844 9.632812 C 64.839844 10.164062 64.957031 11.097656 64.957031 12.429688 C 64.957031 14.953125 64.808594 16.480469 64.507812 17.015625 Z M 64.957031 32.558594 C 64.957031 34.289062 64.742188 35.378906 64.304688 35.820312 C 63.875 36.261719 62.875 36.507812 61.300781 36.5625 L 61.300781 24.550781 C 62.964844 24.609375 63.988281 24.832031 64.375 25.21875 C 64.761719 25.609375 64.957031 26.722656 64.957031 28.554688 Z M 69.570312 20.707031 C 71.921875 20.179688 73.5 19.421875 74.304688 18.4375 C 75.101562 17.449219 75.503906 15.707031 75.503906 13.207031 C 75.503906 9.515625 74.9375 6.832031 73.808594 5.167969 C 72.675781 3.503906 71.195312 2.527344 69.363281 1.984375 C 67.523438 1.4375 64.824219 1.164062 61.257812 1.164062 L 49.96875 1.164062 L 49.96875 43.90625 L 63.050781 43.90625 C 67.59375 43.90625 70.605469 43.648438 72.070312 43.136719 C 73.542969 42.621094 74.613281 41.667969 75.285156 40.273438 C 75.953125 38.871094 76.289062 36.722656 76.289062 33.820312 L 76.289062 29.832031 C 76.289062 27.039062 75.832031 24.964844 74.890625 23.613281 C 73.960938 22.265625 72.1875 21.289062 69.570312 20.707031 "/>
    <path style=" stroke:none;fill-rule:nonzero;fill:url(#linear2);" d="M 165.71875 14.066406 C 162.511719 16.78125 163.128906 27.15625 163.128906 27.15625 L 148.5625 27.15625 C 148.5625 27.15625 147.082031 15.179688 152.394531 8.632812 C 157.699219 2.085938 165.351562 0.851562 172.261719 1.222656 C 179.167969 1.589844 185.59375 4.433594 188.800781 11.472656 C 192.007812 18.511719 190.28125 29.753906 189.789062 31.972656 C 189.292969 34.199219 186.949219 40.867188 179.664062 48.152344 C 172.386719 55.441406 167.570312 62.105469 167.074219 63.957031 C 169.542969 63.839844 190.695312 63.957031 190.695312 63.957031 L 190.695312 78.042969 L 148.375 78.042969 C 148.375 78.042969 148.007812 67.964844 151.898438 59.636719 C 158.191406 46.175781 170.65625 37.046875 173.371094 30.984375 C 174.46875 28.539062 174.804688 25.546875 174.636719 21.441406 C 174.851562 12.953125 169.53125 10.976562 165.71875 14.066406 "/>
  </g>
</svg>