<?xml version="1.0" encoding="UTF-8" standalone="no"?>
<!-- Created with Inkscape (http://www.inkscape.org/) -->

<svg
   xmlns:dc="http://purl.org/dc/elements/1.1/"
   xmlns:cc="http://creativecommons.org/ns#"
   xmlns:rdf="http://www.w3.org/1999/02/22-rdf-syntax-ns#"
   xmlns:svg="http://www.w3.org/2000/svg"
   xmlns="http://www.w3.org/2000/svg"
   xmlns:xlink="http://www.w3.org/1999/xlink"
   xmlns:sodipodi="http://sodipodi.sourceforge.net/DTD/sodipodi-0.dtd"
   xmlns:inkscape="http://www.inkscape.org/namespaces/inkscape"
   width="585.55969"
   height="243.50314"
   id="svg10286"
   version="1.1"
   inkscape:version="0.48.4 r9939"
   sodipodi:docname="Logo_Blue_Movie_2.svg">
  <defs
     id="defs3">
    <linearGradient
       x1="0"
       y1="0"
       x2="1"
       y2="0"
       gradientUnits="userSpaceOnUse"
       gradientTransform="matrix(19.591,0,0,-19.591,421.628,200.37)"
       spreadMethod="pad"
       id="linearGradient4561">
      <stop
         style="stop-opacity:1;stop-color:#252058"
         offset="0"
         id="stop4563" />
      <stop
         style="stop-opacity:1;stop-color:#2a2372"
         offset="1"
         id="stop4565" />
    </linearGradient>
    <linearGradient
       x1="0"
       y1="0"
       x2="1"
       y2="0"
       gradientUnits="userSpaceOnUse"
       gradientTransform="matrix(5.8739,0,0,-5.8739,441.665,200.433)"
       spreadMethod="pad"
       id="linearGradient4543">
      <stop
         style="stop-opacity:1;stop-color:#760c04"
         offset="0"
         id="stop4545" />
      <stop
         style="stop-opacity:1;stop-color:#d60c12"
         offset="1"
         id="stop4547" />
    </linearGradient>
    <clipPath
       clipPathUnits="userSpaceOnUse"
       id="clipPath4491">
      <path
         inkscape:connector-curvature="0"
         d="m 448.069,208.914 -37.04,0 0,-16.95 37.04,0 0,16.95 z"
         id="path4493" />
    </clipPath>
    <clipPath
       clipPathUnits="userSpaceOnUse"
       id="clipPath4497">
      <path
         inkscape:connector-curvature="0"
         d="m 411.029,208.914 37.109,0 0,-17.042 -37.109,0 0,17.042"
         id="path4499" />
    </clipPath>
    <clipPath
       clipPathUnits="userSpaceOnUse"
       id="clipPath4503">
      <path
         inkscape:connector-curvature="0"
         d="m 411.029,208.913 0,-16.762 37.039,0 0,16.762 -37.039,0"
         id="path4505" />
    </clipPath>
    <clipPath
       clipPathUnits="userSpaceOnUse"
       id="clipPath4509">
      <path
         inkscape:connector-curvature="0"
         d="m 1391.81,306.142 -1400.314,0 0,-314.646 1400.314,0 0,314.646 z"
         id="path4511" />
    </clipPath>
    <clipPath
       clipPathUnits="userSpaceOnUse"
       id="clipPath4515">
      <path
         inkscape:connector-curvature="0"
         d="m 0,297.63 1383.3,0 L 1383.3,0 0,0 0,297.63 z"
         id="path4517" />
    </clipPath>
    <linearGradient
       x1="0"
       y1="0"
       x2="1"
       y2="0"
       gradientUnits="userSpaceOnUse"
       gradientTransform="matrix(9.438077,0,0,-9.438077,411.55899,200.43176)"
       spreadMethod="pad"
       id="linearGradient4525">
      <stop
         style="stop-opacity:1;stop-color:#760c04"
         offset="0"
         id="stop4527" />
      <stop
         style="stop-opacity:1;stop-color:#d60c12"
         offset="1"
         id="stop4529" />
    </linearGradient>
    <linearGradient
       inkscape:collect="always"
       xlink:href="#linearGradient4525"
       id="linearGradient10401"
       gradientUnits="userSpaceOnUse"
       gradientTransform="matrix(9.438077,0,0,-9.438077,411.55899,200.43176)"
       spreadMethod="pad"
       x1="0"
       y1="0"
       x2="1"
       y2="0" />
    <linearGradient
       inkscape:collect="always"
       xlink:href="#linearGradient4543"
       id="linearGradient10403"
       gradientUnits="userSpaceOnUse"
       gradientTransform="matrix(5.8739,0,0,-5.8739,441.665,200.433)"
       spreadMethod="pad"
       x1="0"
       y1="0"
       x2="1"
       y2="0" />
    <linearGradient
       inkscape:collect="always"
       xlink:href="#linearGradient4561"
       id="linearGradient10405"
       gradientUnits="userSpaceOnUse"
       gradientTransform="matrix(19.591,0,0,-19.591,421.628,200.37)"
       spreadMethod="pad"
       x1="0"
       y1="0"
       x2="1"
       y2="0" />
    <linearGradient
       x1="0"
       y1="0"
       x2="1"
       y2="0"
       gradientUnits="userSpaceOnUse"
       gradientTransform="matrix(8.8302,0,0,-8.8302,442.273,155.223)"
       spreadMethod="pad"
       id="linearGradient4479">
      <stop
         style="stop-opacity:1;stop-color:#760c04"
         offset="0"
         id="stop4481" />
      <stop
         style="stop-opacity:1;stop-color:#d60c12"
         offset="1"
         id="stop4483" />
    </linearGradient>
    <linearGradient
       x1="0"
       y1="0"
       x2="1"
       y2="0"
       gradientUnits="userSpaceOnUse"
       gradientTransform="matrix(19.781,0,0,-19.781,421.73,155.156)"
       spreadMethod="pad"
       id="linearGradient4461">
      <stop
         style="stop-opacity:1;stop-color:#252058"
         offset="0"
         id="stop4463" />
      <stop
         style="stop-opacity:1;stop-color:#2a2372"
         offset="1"
         id="stop4465" />
    </linearGradient>
    <clipPath
       clipPathUnits="userSpaceOnUse"
       id="clipPath4409">
      <path
         inkscape:connector-curvature="0"
         d="m 451.638,163.783 -40.609,0 0,-17.114 40.609,0 0,17.114 z"
         id="path4411" />
    </clipPath>
    <clipPath
       clipPathUnits="userSpaceOnUse"
       id="clipPath4415">
      <path
         inkscape:connector-curvature="0"
         d="m 411.029,163.782 40.638,0 0,-17.206 -40.638,0 0,17.206"
         id="path4417" />
    </clipPath>
    <clipPath
       clipPathUnits="userSpaceOnUse"
       id="clipPath4421">
      <path
         inkscape:connector-curvature="0"
         d="m 411.029,163.782 0,-16.807 40.609,0 0,16.807 -40.609,0"
         id="path4423" />
    </clipPath>
    <clipPath
       clipPathUnits="userSpaceOnUse"
       id="clipPath4427">
      <path
         inkscape:connector-curvature="0"
         d="m 1391.81,306.142 -1400.314,0 0,-314.646 1400.314,0 0,314.646 z"
         id="path4429" />
    </clipPath>
    <clipPath
       clipPathUnits="userSpaceOnUse"
       id="clipPath4433">
      <path
         inkscape:connector-curvature="0"
         d="m 0,297.63 1383.3,0 L 1383.3,0 0,0 0,297.63 z"
         id="path4435" />
    </clipPath>
    <linearGradient
       x1="0"
       y1="0"
       x2="1"
       y2="0"
       gradientUnits="userSpaceOnUse"
       gradientTransform="matrix(9.529499,0,0,-9.529499,411.56415,155.21872)"
       spreadMethod="pad"
       id="linearGradient4443">
      <stop
         style="stop-opacity:1;stop-color:#760c04"
         offset="0"
         id="stop4445" />
      <stop
         style="stop-opacity:1;stop-color:#d60c12"
         offset="1"
         id="stop4447" />
    </linearGradient>
    <linearGradient
       inkscape:collect="always"
       xlink:href="#linearGradient4443"
       id="linearGradient10553"
       gradientUnits="userSpaceOnUse"
       gradientTransform="matrix(9.529499,0,0,-9.529499,411.56415,155.21872)"
       spreadMethod="pad"
       x1="0"
       y1="0"
       x2="1"
       y2="0" />
    <linearGradient
       inkscape:collect="always"
       xlink:href="#linearGradient4461"
       id="linearGradient10555"
       gradientUnits="userSpaceOnUse"
       gradientTransform="matrix(19.781,0,0,-19.781,421.73,155.156)"
       spreadMethod="pad"
       x1="0"
       y1="0"
       x2="1"
       y2="0" />
    <linearGradient
       inkscape:collect="always"
       xlink:href="#linearGradient4479"
       id="linearGradient10557"
       gradientUnits="userSpaceOnUse"
       gradientTransform="matrix(8.8302,0,0,-8.8302,442.273,155.223)"
       spreadMethod="pad"
       x1="0"
       y1="0"
       x2="1"
       y2="0" />
    <linearGradient
       inkscape:collect="always"
       xlink:href="#linearGradient4443"
       id="linearGradient3151"
       gradientUnits="userSpaceOnUse"
       gradientTransform="matrix(9.529499,0,0,-9.529499,411.56415,155.21872)"
       spreadMethod="pad"
       x1="0"
       y1="0"
       x2="1"
       y2="0" />
    <linearGradient
       inkscape:collect="always"
       xlink:href="#linearGradient4461"
       id="linearGradient3153"
       gradientUnits="userSpaceOnUse"
       gradientTransform="matrix(19.781,0,0,-19.781,421.73,155.156)"
       spreadMethod="pad"
       x1="0"
       y1="0"
       x2="1"
       y2="0" />
    <linearGradient
       inkscape:collect="always"
       xlink:href="#linearGradient4479"
       id="linearGradient3155"
       gradientUnits="userSpaceOnUse"
       gradientTransform="matrix(8.8302,0,0,-8.8302,442.273,155.223)"
       spreadMethod="pad"
       x1="0"
       y1="0"
       x2="1"
       y2="0" />
  </defs>
  <sodipodi:namedview
     inkscape:document-units="mm"
     id="base"
     pagecolor="#ffffff"
     bordercolor="#666666"
     borderopacity="1.0"
     inkscape:pageopacity="0.0"
     inkscape:pageshadow="2"
     inkscape:zoom="0.7"
     inkscape:cx="196.76863"
     inkscape:cy="83.360384"
     inkscape:current-layer="layer1"
     showgrid="false"
     units="mm"
     fit-margin-top="1"
     fit-margin-left="1"
     fit-margin-right="1"
     fit-margin-bottom="1"
     inkscape:window-width="1366"
     inkscape:window-height="716"
     inkscape:window-x="-8"
     inkscape:window-y="-8"
     inkscape:window-maximized="1" />
  <metadata
     id="metadata4">
    <rdf:RDF>
      <cc:Work
         rdf:about="">
        <dc:format>image/svg+xml</dc:format>
        <dc:type
           rdf:resource="http://purl.org/dc/dcmitype/StillImage" />
        <dc:title />
      </cc:Work>
    </rdf:RDF>
  </metadata>
  <g
     inkscape:label="Layer 1"
     inkscape:groupmode="layer"
     id="layer1"
     transform="translate(-184.15469,-511.92329)">
    <g
       id="g3132">
      <g
         transform="matrix(1.1178334,0,0,1.1178334,-21.385574,-88.736382)"
         id="g10533">
        <g
           id="g4405"
           transform="matrix(13.088135,0,0,-13.088135,-5199.5616,2676.9715)">
          <g
             clip-path="url(#clipPath4409)"
             id="g4407">
            <g
               clip-path="url(#clipPath4415)"
               id="g4413">
              <g
                 clip-path="url(#clipPath4421)"
                 id="g4419">
                <g
                   clip-path="url(#clipPath4427)"
                   id="g4425">
                  <g
                     clip-path="url(#clipPath4433)"
                     id="g4431">
                    <g
                       transform="translate(416.918,163.236)"
                       id="g4441">
                      <path
                         inkscape:connector-curvature="0"
                         id="path4449"
                         style="fill:url(#linearGradient3151);fill-opacity:1;fill-rule:evenodd;stroke:none"
                         d="m 0,0 4.152,0 0.024,-16.035 -4.58,0.009 c 0.204,0.502 0.395,1.021 0.541,1.504 0.866,2.854 -1.146,3.777 0.707,7.131 1.606,0.31 2.238,1.792 2.009,2.919 l 0.008,0.36 C 2.759,-4.04 2.685,-4.006 2.602,-3.92 1.681,-2.98 0.618,-2.172 0,0 m -4.692,0 3.723,0 c 0.115,-1.827 0.865,-3.054 1.548,-3.92 0.075,-0.095 0.155,-0.122 0.258,-0.192 L 0.83,-4.472 c 0.229,-1.127 -0.4,-2.61 -2.006,-2.921 -0.958,-2.736 0.826,-3.538 0.742,-5.833 -0.047,-1.274 -0.234,-1.893 -0.479,-2.8 l -4.441,0 0,16.026 0.662,0" />
                    </g>
                  </g>
                </g>
              </g>
            </g>
          </g>
        </g>
        <g
           id="g4451"
           transform="matrix(13.088135,0,0,-13.088135,-5199.5616,2676.9715)">
          <g
             id="g4453">
            <g
               id="g4459">
              <path
                 inkscape:connector-curvature="0"
                 id="path4467"
                 style="fill:url(#linearGradient3153);stroke:none"
                 d="m 441.511,148.497 0,-1.287 -2.962,0 0,6.464 2.857,0 0,-1.287 -1.143,0 0,-1.228 1.067,0 0,-1.227 -1.067,0 0,-1.435 1.248,0 z m -5.109,5.177 1.7147,0 0,-6.4641 -1.7147,0 0,6.4641 z m -2.181,0 1.803,0 -0.875,-6.464 -2.578,0 -0.996,6.464 1.804,0 c 0.204,-1.78 0.352,-3.289 0.443,-4.53 0.09,1.254 0.188,2.362 0.292,3.329 l 0.107,1.201 z m -4.538,-4.629 c 0,-0.381 -0.015,-0.621 -0.047,-0.722 -0.033,-0.101 -0.105,-0.152 -0.22,-0.152 -0.111,0 -0.182,0.044 -0.213,0.131 -0.03,0.089 -0.045,0.32 -0.045,0.696 l 0,3.014 c 0,0.331 0.023,0.531 0.069,0.598 0.047,0.068 0.114,0.102 0.202,0.102 0.102,0 0.172,-0.041 0.205,-0.125 0.033,-0.084 0.049,-0.276 0.049,-0.575 l 0,-2.967 z m 1.361,4.083 c -0.17,0.227 -0.397,0.396 -0.676,0.509 -0.28,0.113 -0.595,0.17 -0.946,0.17 -0.373,0 -0.698,-0.06 -0.976,-0.18 -0.278,-0.12 -0.499,-0.29 -0.663,-0.515 -0.164,-0.223 -0.261,-0.47 -0.292,-0.739 -0.032,-0.27 -0.048,-0.73 -0.048,-1.379 l 0,-1.104 c 0,-0.665 0.018,-1.132 0.049,-1.397 0.032,-0.266 0.135,-0.512 0.306,-0.738 0.17,-0.226 0.394,-0.396 0.675,-0.509 0.28,-0.113 0.596,-0.169 0.949,-0.169 0.369,0 0.695,0.06 0.972,0.179 0.28,0.12 0.501,0.292 0.665,0.515 0.163,0.223 0.261,0.47 0.291,0.74 0.032,0.27 0.048,0.73 0.048,1.379 l 0,1.104 c 0,0.665 -0.016,1.131 -0.05,1.397 -0.033,0.266 -0.132,0.513 -0.304,0.737 z m -6.273,0.546 2.221,0 0,-6.464 -1.488,0 -0.007,4.364 -0.595,-4.364 -1.051,0 -0.625,4.275 -0.007,-4.275 -1.489,0 0,6.464 2.207,0 c 0.057,-0.389 0.125,-0.846 0.203,-1.372 l 0.244,-1.646 0.387,3.018 z m 16.633,0.651 -3.967,0 0,8.911 3.816,0 0,-1.77 -1.571,0 0,-1.678 1.468,0 0,-1.708 -1.468,0 0,-1.958 1.722,0 0,-1.797 z m -4.906,0.69 c -0.221,-0.289 -0.511,-0.508 -0.873,-0.658 -0.361,-0.149 -0.786,-0.223 -1.275,-0.223 -0.543,0 -1.022,0.088 -1.436,0.265 -0.416,0.176 -0.726,0.407 -0.932,0.69 -0.206,0.283 -0.327,0.583 -0.364,0.897 -0.038,0.315 -0.056,0.977 -0.056,1.986 l 0,5.264 2.364,0 0,-6.674 c 0,-0.391 0.021,-0.64 0.064,-0.749 0.042,-0.109 0.129,-0.162 0.259,-0.162 0.148,0 0.243,0.059 0.287,0.178 0.042,0.12 0.063,0.403 0.063,0.848 l 0,6.559 2.363,0 0,-5.948 c 0,-0.678 -0.021,-1.154 -0.066,-1.429 -0.044,-0.274 -0.178,-0.555 -0.398,-0.844 z m -5.133,-0.69 -3.786,0 0,8.911 2.364,0 0,-7.114 1.422,0 0,-1.797 z m -6.586,5.606 c -0.062,-0.111 -0.208,-0.167 -0.437,-0.167 -0.055,0 -0.132,-0.002 -0.232,-0.005 l 0,1.972 c 0.24,-0.003 0.401,-0.02 0.484,-0.049 0.082,-0.03 0.15,-0.1 0.202,-0.212 0.052,-0.11 0.077,-0.305 0.077,-0.583 0,-0.526 -0.031,-0.844 -0.094,-0.956 z m 0.094,-3.24 c 0,-0.361 -0.045,-0.588 -0.136,-0.68 -0.09,-0.092 -0.299,-0.143 -0.627,-0.155 l 0,2.504 c 0.347,-0.012 0.561,-0.058 0.641,-0.139 0.081,-0.081 0.122,-0.313 0.122,-0.695 l 0,-0.835 z m 0.962,2.471 c 0.491,0.11 0.82,0.268 0.988,0.473 0.166,0.206 0.25,0.569 0.25,1.09 0,0.77 -0.118,1.329 -0.354,1.676 -0.236,0.347 -0.545,0.551 -0.927,0.664 -0.384,0.114 -0.947,0.171 -1.691,0.171 l -2.355,0 0,-8.911 2.729,0 c 0.948,0 1.576,0.054 1.882,0.161 0.307,0.107 0.53,0.306 0.67,0.597 0.14,0.292 0.21,0.74 0.21,1.345 l 0,0.831 c 0,0.583 -0.096,1.015 -0.292,1.297 -0.194,0.281 -0.564,0.484 -1.11,0.606" />
            </g>
          </g>
        </g>
        <g
           id="g4469"
           transform="matrix(13.088135,0,0,-13.088135,-5199.5616,2676.9715)">
          <g
             id="g4471">
            <g
               id="g4477">
              <path
                 inkscape:connector-curvature="0"
                 id="path4485"
                 style="fill:url(#linearGradient3155);stroke:none"
                 d="m 445.893,160.546 c -0.669,-0.566 -0.54,-2.729 -0.54,-2.729 l -3.039,0 c 0,0 -0.309,2.497 0.799,3.862 1.107,1.365 2.703,1.622 4.145,1.545 1.441,-0.077 2.781,-0.67 3.45,-2.137 0.669,-1.468 0.309,-3.811 0.206,-4.274 -0.103,-0.464 -0.592,-1.854 -2.112,-3.373 -1.518,-1.519 -2.523,-2.909 -2.626,-3.295 0.515,0.025 4.927,0 4.927,0 l 0,-2.936 -8.828,0 c 0,0 -0.077,2.101 0.735,3.837 1.313,2.806 3.913,4.709 4.479,5.973 0.229,0.51 0.299,1.134 0.264,1.99 0.045,1.769 -1.065,2.181 -1.86,1.537" />
            </g>
          </g>
        </g>
      </g>
    </g>
  </g>
</svg>
