<?xml version="1.0" encoding="UTF-8" standalone="no"?>
<!-- Created with Inkscape (http://www.inkscape.org/) -->
<svg
   xmlns:dc="http://purl.org/dc/elements/1.1/"
   xmlns:cc="http://web.resource.org/cc/"
   xmlns:rdf="http://www.w3.org/1999/02/22-rdf-syntax-ns#"
   xmlns:svg="http://www.w3.org/2000/svg"
   xmlns="http://www.w3.org/2000/svg"
   xmlns:sodipodi="http://sodipodi.sourceforge.net/DTD/sodipodi-0.dtd"
   xmlns:inkscape="http://www.inkscape.org/namespaces/inkscape"
   width="485"
   height="259"
   id="svg2"
   sodipodi:version="0.32"
   inkscape:version="0.45.1"
   version="1.0"
   inkscape:output_extension="org.inkscape.output.svg.inkscape">
  <g
     inkscape:label="Layer 1"
     inkscape:groupmode="layer"
     id="layer1"
     transform="translate(-195.29399,-685.94401)">
    <path
       id="path11152"
       d="M 392.92412,780.24487 L 611.29377,780.24487 L 591.30852,851.22897 L 372.93888,851.22897 L 392.92412,780.24487 z "
       style="fill:#ffffff;fill-rule:nonzero;stroke:none" />
    <path
       id="path11154"
       d="M 215.27923,780.24487 L 396.6396,780.24487 L 376.65436,851.22897 L 195.29399,851.22897 L 215.27923,780.24487 z "
       style="fill:#0053a4;fill-rule:nonzero;stroke:none" />
    <path
       id="path11156"
       d="M 357.01,731.82166 C 357.0246,731.82166 357.0246,731.82166 357.0246,731.82166 C 357.03958,731.82166 357.03958,731.83664 357.03958,731.83664 L 357.03958,745.45625 L 373.72324,745.45625 C 373.72324,745.45625 373.73834,745.45625 373.73834,745.47072 C 373.73834,745.47072 373.73834,745.47072 373.73834,745.47072 L 357.03958,753.13897 L 357.03958,766.80314 C 357.03958,766.80314 357.0246,766.80314 357.0246,766.80314 L 345.38899,758.46848 L 327.22486,766.80314 C 327.22486,766.80314 327.22486,766.80314 327.20988,766.78803 C 327.20988,766.78803 327.20988,766.77356 327.22486,766.77356 L 338.52009,753.52403 L 327.22486,745.47072 C 327.20988,745.47072 327.20988,745.47072 327.20988,745.47072 C 327.20988,745.45625 327.20988,745.45625 327.22486,745.45625 L 345.38899,745.45625 L 357.01,731.82166"
       style="fill:#0053a4;fill-rule:nonzero;stroke:none" />
    <path
       id="path11158"
       d="M 306.9438,862.93859 C 306.9438,862.93859 306.9584,862.93859 306.9584,862.93859 C 306.9584,862.93859 306.9584,862.95319 306.9584,862.95319 L 306.9584,876.57267 L 323.65704,876.57267 C 323.65704,876.57267 323.67214,876.57267 323.67214,876.57267 C 323.67214,876.58765 323.67214,876.58765 323.67214,876.58765 L 306.9584,884.25602 L 306.9584,897.90496 C 306.9584,897.91956 306.9584,897.91956 306.9438,897.91956 L 295.32279,889.58541 L 277.15879,897.90496 C 277.15879,897.91956 277.14368,897.91956 277.14368,897.90496 C 277.14368,897.90496 277.14368,897.88998 277.15879,897.88998 L 288.45389,884.64097 L 277.14368,876.58765 C 277.14368,876.58765 277.14368,876.58765 277.14368,876.57267 C 277.14368,876.57267 277.14368,876.57267 277.15879,876.57267 L 295.32279,876.57267 L 306.9438,862.93859"
       style="fill:#0053a4;fill-rule:nonzero;stroke:none" />
    <path
       style="fill:#0053a4;fill-rule:nonzero;stroke:none"
       d="M 337.42481,897.38684 C 337.42481,897.38684 337.43928,897.38684 337.43928,897.38684 C 337.43928,897.38684 337.43928,897.40144 337.43928,897.40144 L 337.43928,911.02092 L 354.13804,911.02092 C 354.13804,911.02092 354.15302,911.02092 354.15302,911.0359 C 354.15302,911.0359 354.15302,911.0359 354.13804,911.0359 L 337.43928,918.70427 L 337.43928,932.36781 C 337.43928,932.36781 337.43928,932.36781 337.42481,932.36781 L 325.80367,924.03366 L 307.63967,932.36781 C 307.63967,932.36781 307.62468,932.36781 307.62468,932.3532 C 307.62468,932.3532 307.62468,932.33822 307.63967,932.33822 L 318.93489,919.08921 L 307.62468,911.0359 C 307.62468,911.0359 307.62468,911.0359 307.62468,911.0359 C 307.62468,911.02092 307.62468,911.02092 307.63967,911.02092 L 325.80367,911.02092 L 337.42481,897.38684"
       id="path11160" />
    <path
       style="fill:#0053a4;fill-rule:nonzero;stroke:none"
       d="M 391.84331,909.97007 C 391.84331,909.95509 391.84331,909.95509 391.84331,909.95509 C 391.85779,909.97007 391.85779,909.97007 391.85779,909.97007 L 391.85779,923.58968 L 408.55655,923.58968 L 408.55655,923.58968 C 408.55655,923.58968 408.55655,923.58968 408.55655,923.60415 C 408.55655,923.60415 408.55655,923.60415 408.55655,923.61914 L 391.85779,931.2724 L 391.85779,944.93657 C 391.85779,944.93657 391.84331,944.95104 391.84331,944.93657 L 380.20771,936.61689 L 362.04307,944.93657 C 362.04307,944.93657 362.04307,944.93657 362.02859,944.93657 C 362.02859,944.92146 362.04307,944.92146 362.04307,944.90699 L 373.33829,931.65747 L 362.04307,923.61914 C 362.02859,923.60415 362.02859,923.60415 362.02859,923.60415 C 362.02859,923.58968 362.02859,923.58968 362.04307,923.58968 L 380.20771,923.58968 L 391.84331,909.97007"
       id="path11162" />
    <path
       id="path11164"
       d="M 454.16684,896.64653 C 454.16684,896.63193 454.16684,896.63193 454.18183,896.63193 C 454.18183,896.64653 454.18183,896.64653 454.18183,896.64653 L 454.18183,910.26602 L 470.88008,910.26602 L 470.88008,910.26602 C 470.88008,910.26602 470.89506,910.26602 470.89506,910.281 C 470.89506,910.281 470.88008,910.29547 470.88008,910.29547 L 454.18183,917.94937 L 454.18183,931.6129 C 454.18183,931.6129 454.16684,931.6129 454.16684,931.6129 L 442.53124,923.29323 L 424.39669,931.6129 C 424.39669,931.6129 424.39669,931.6129 424.3817,931.6129 C 424.3817,931.5983 424.3817,931.58332 424.39669,931.58332 L 435.66233,918.33431 L 424.3817,910.29547 C 424.3817,910.29547 424.3817,910.281 424.3817,910.281 C 424.3817,910.26602 424.3817,910.26602 424.39669,910.26602 L 442.53124,910.26602 L 454.16684,896.64653"
       style="fill:#0053a4;fill-rule:nonzero;stroke:none" />
    <path
       id="path11166"
       d="M 514.62508,862.93859 C 514.62508,862.93859 514.64006,862.93859 514.64006,862.93859 C 514.64006,862.93859 514.64006,862.95319 514.64006,862.95319 L 514.64006,876.57267 L 531.33883,876.57267 C 531.33883,876.57267 531.35343,876.57267 531.35343,876.57267 C 531.35343,876.58765 531.35343,876.58765 531.33883,876.58765 L 514.64006,884.25602 L 514.64006,897.90496 C 514.64006,897.91956 514.64006,897.91956 514.62508,897.91956 L 503.00446,889.58541 L 484.83994,897.90496 C 484.83994,897.91956 484.82547,897.91956 484.82547,897.90496 C 484.82547,897.90496 484.82547,897.88998 484.83994,897.88998 L 496.13568,884.64097 L 484.82547,876.58765 C 484.82547,876.58765 484.82547,876.58765 484.82547,876.57267 C 484.82547,876.57267 484.82547,876.57267 484.83994,876.57267 L 503.00446,876.57267 L 514.62508,862.93859"
       style="fill:#0053a4;fill-rule:nonzero;stroke:none" />
    <path
       style="fill:#0053a4;fill-rule:nonzero;stroke:none"
       d="M 415.45491,699.72725 C 415.45491,699.72725 415.45491,699.72725 415.46989,699.72725 C 415.46989,699.72725 415.46989,699.74223 415.46989,699.74223 L 415.46989,713.36184 L 432.13907,713.36184 L 432.13907,713.36184 C 432.13907,713.36184 432.15367,713.36184 432.15367,713.37631 C 432.15367,713.37631 432.15367,713.37631 432.13907,713.37631 L 415.46989,721.04455 L 415.46989,734.70873 C 415.46989,734.70873 415.45491,734.7232 415.45491,734.70873 L 403.8193,726.38905 L 385.66977,734.70873 C 385.6553,734.70873 385.6553,734.70873 385.6553,734.69362 C 385.64019,734.69362 385.6553,734.69362 385.6553,734.67914 L 396.9504,721.42962 L 385.6553,713.39129 C 385.64019,713.37631 385.64019,713.37631 385.64019,713.37631 C 385.64019,713.36184 385.64019,713.36184 385.6553,713.36184 L 403.8193,713.36184 L 415.45491,699.72725"
       id="path11168" />
    <path
       style="fill:#0053a4;fill-rule:nonzero;stroke:none"
       d="M 476.37274,685.94501 C 476.37274,685.94501 476.37274,685.94501 476.38722,685.94501 L 476.38722,685.96011 L 476.38722,699.57909 L 493.08598,699.57909 L 493.08598,699.57909 C 493.08598,699.57909 493.10045,699.57909 493.10045,699.57909 C 493.10045,699.59407 493.08598,699.59407 493.08598,699.59407 L 476.38722,707.26244 L 476.38722,720.9115 C 476.38722,720.92648 476.37274,720.92648 476.37274,720.92648 L 464.73663,712.59183 L 446.5876,720.9115 C 446.57262,720.9115 446.57262,720.9115 446.57262,720.9115 C 446.57262,720.9115 446.57262,720.89639 446.57262,720.89639 L 457.86785,707.6324 L 446.57262,699.59407 C 446.57262,699.59407 446.55764,699.59407 446.55764,699.57909 C 446.55764,699.57909 446.57262,699.57909 446.57262,699.57909 L 464.73663,699.57909 L 476.37274,685.94501"
       id="path11170" />
    <path
       id="path11172"
       d="M 529.50312,699.72725 C 529.51759,699.72725 529.51759,699.72725 529.51759,699.72725 C 529.5327,699.72725 529.51759,699.74223 529.51759,699.74223 L 529.51759,713.36184 L 546.23146,713.36184 L 546.23146,713.36184 C 546.23146,713.36184 546.23146,713.36184 546.23146,713.37631 C 546.23146,713.37631 546.23146,713.37631 546.23146,713.37631 L 529.51759,721.04455 L 529.51759,734.70873 C 529.51759,734.70873 529.51759,734.7232 529.50312,734.70873 L 517.88198,726.38905 L 499.71798,734.70873 C 499.71798,734.70873 499.71798,734.70873 499.70299,734.69362 C 499.70299,734.69362 499.71798,734.69362 499.71798,734.67914 L 511.0132,721.42962 L 499.71798,713.39129 C 499.70299,713.37631 499.70299,713.37631 499.70299,713.37631 C 499.70299,713.36184 499.70299,713.36184 499.71798,713.36184 L 517.88198,713.36184 L 529.50312,699.72725"
       style="fill:#0053a4;fill-rule:nonzero;stroke:none" />
    <path
       id="path11174"
       d="M 564.09952,731.82166 C 564.09952,731.82166 564.09952,731.82166 564.11412,731.82166 C 564.11412,731.82166 564.11412,731.83664 564.11412,731.83664 L 564.11412,745.45625 L 580.81289,745.45625 C 580.81289,745.45625 580.82787,745.45625 580.82787,745.47072 C 580.82787,745.47072 580.81289,745.47072 580.81289,745.47072 L 564.11412,753.13897 L 564.11412,766.80314 C 564.11412,766.80314 564.09952,766.80314 564.09952,766.80314 L 552.46341,758.46848 L 534.31451,766.80314 C 534.2994,766.80314 534.2994,766.80314 534.2994,766.78803 C 534.2994,766.78803 534.2994,766.77356 534.2994,766.77356 L 545.59463,753.52403 L 534.2994,745.47072 C 534.2994,745.47072 534.28493,745.47072 534.28493,745.47072 C 534.28493,745.45625 534.2994,745.45625 534.2994,745.45625 L 552.46341,745.45625 L 564.09952,731.82166"
       style="fill:#0053a4;fill-rule:nonzero;stroke:none" />
    <path
       id="path11176"
       d="M 532.13829,798.42386 L 539.1108,798.42386 C 544.72153,798.42386 544.54391,801.69536 543.448,805.559 C 542.36769,809.42327 540.67964,812.69477 535.06941,812.69477 L 528.09691,812.69477 L 532.13829,798.42386 z M 544.83973,842.18346 L 541.74597,820.06669 C 547.91901,817.60964 550.92415,812.3097 552.83388,805.559 C 555.49863,796.15865 554.44741,789.57121 541.96777,789.57121 L 535.46883,789.57121 L 525.37261,789.57121 L 510.45052,842.25761 L 520.54674,842.25761 L 526.40885,821.54742 L 531.44243,821.54742 L 534.04764,842.18346 L 544.83973,842.18346"
       style="fill:#e5003c;fill-rule:nonzero;stroke:none" />
    <path
       id="path11178"
       d="M 450.25852,812.69477 L 443.27103,812.69477 L 447.31305,798.42386 L 454.30003,798.42386 C 459.91076,798.42386 459.73301,801.69536 458.63773,805.559 C 457.54194,809.42327 455.86938,812.69477 450.25852,812.69477 M 457.15738,789.57121 L 450.64358,789.57121 L 440.56234,789.57121 L 425.64026,842.25761 L 435.7215,842.25761 L 441.59859,821.54742 L 448.09741,821.54742 C 460.57704,821.54742 465.35835,814.95948 468.00863,805.559 C 470.67276,796.15865 469.63651,789.57121 457.15738,789.57121"
       style="fill:#e5003c;fill-rule:nonzero;stroke:none" />
    <path
       id="path11180"
       d="M 354.93751,804.34514 C 356.59548,798.51248 359.36383,797.72812 363.37576,797.72812 C 367.37258,797.72812 369.71144,798.51248 368.05347,804.34514 L 361.52494,827.40954 C 359.86698,833.24207 357.09862,834.02655 353.08682,834.02655 C 349.08987,834.02655 346.76562,833.24207 348.40911,827.40954 L 354.93751,804.34514 z M 338.49063,826.921 C 334.81908,839.88917 340.81489,842.90878 350.57022,842.90878 C 360.34104,842.90878 368.03887,839.88917 371.72489,826.921 L 377.97194,804.83368 C 381.64337,791.86601 375.64807,788.84576 365.89236,788.84576 C 356.12192,788.84576 348.42358,791.86601 344.73769,804.83368 L 338.49063,826.921"
       style="fill:#ffffff;fill-rule:nonzero;stroke:none" />
    <path
       id="path11182"
       d="M 209.54979,842.18346 L 224.45728,789.57121 L 252.0073,789.57121 L 249.47572,798.46842 L 231.99247,798.46842 L 228.57281,810.56312 L 241.89597,810.56312 L 239.37937,819.44484 L 226.05634,819.44484 L 222.13303,833.28663 L 240.3416,833.28663 L 237.825,842.18346 L 209.54979,842.18346 z "
       style="fill:#ffffff;fill-rule:nonzero;stroke:none" />
    <path
       id="path11184"
       d="M 271.35571,789.57121 L 260.6968,827.18723 C 259.27549,832.22093 260.94856,834.02655 265.83398,834.02655 C 270.71888,834.02655 273.48724,832.22093 274.90855,827.18723 L 285.56695,789.57121 L 295.61912,789.57121 L 284.70832,828.09042 C 281.42184,839.66687 273.66498,842.90878 263.317,842.90878 C 252.9694,842.90878 247.10728,839.66687 250.39326,828.09042 L 261.28894,789.57121 L 271.35571,789.57121"
       style="fill:#ffffff;fill-rule:nonzero;stroke:none" />
    <path
       id="path11186"
       d="M 419.65944,803.39789 C 419.37809,798.43846 417.55749,797.15084 414.06368,797.15084 C 410.49586,797.15084 408.14203,798.51248 407.13524,802.0803 C 404.885,810.03002 426.4542,813.07972 421.79109,829.54119 C 419.24491,838.57159 411.81345,842.90878 401.24367,842.90878 C 393.08676,842.90878 387.77235,839.28192 388.00913,828.93445 L 398.51987,826.83238 C 397.88304,833.16805 401.12496,834.60422 404.11563,834.60422 C 407.60943,834.60422 410.73264,833.09391 411.84303,829.15612 C 414.65595,819.25263 392.95358,816.63243 397.11316,801.91767 C 399.67419,792.88715 406.2177,788.84576 416.63932,788.84576 C 425.59569,788.84576 429.78524,793.34623 429.42988,800.77782 L 419.65944,803.39789"
       style="fill:#e5003c;fill-rule:nonzero;stroke:none" />
    <path
       id="path11188"
       d="M 485.81715,804.34514 C 487.47512,798.51248 490.24348,797.72812 494.2554,797.72812 C 498.25223,797.72812 500.59159,798.51248 498.93362,804.34514 L 492.40522,827.40954 C 490.74713,833.24207 487.97877,834.02655 483.96697,834.02655 C 479.96964,834.02655 477.63079,833.24207 479.28875,827.40954 L 485.81715,804.34514 z M 469.37028,826.921 C 465.69873,839.88917 471.69453,842.90878 481.45037,842.90878 C 491.22069,842.90878 498.93362,839.88917 502.60453,826.921 L 508.8521,804.83368 C 512.52301,791.86601 506.52772,788.84576 496.772,788.84576 C 487.00156,788.84576 479.30373,791.86601 475.61733,804.83368 L 469.37028,826.921"
       style="fill:#e5003c;fill-rule:nonzero;stroke:none" />
    <path
       id="path11190"
       d="M 597.52612,789.57121 L 595.00953,798.46842 L 583.28479,798.46842 L 570.89428,842.18346 L 560.84262,842.18346 L 573.23314,798.46842 L 561.49393,798.46842 L 564.0104,789.57121 L 597.52612,789.57121 z "
       style="fill:#e5003c;fill-rule:nonzero;stroke:none" />
    <path
       style="fill:#ffffff;fill-rule:nonzero;stroke:none"
       d="M 313.29458,798.42386 L 320.28206,798.42386 C 325.89229,798.42386 325.71505,801.69536 324.61926,805.559 C 323.52398,809.42327 321.85091,812.69477 316.24055,812.69477 L 309.2532,812.69477 L 313.29458,798.42386 z M 325.99589,842.18346 L 322.90213,820.06669 C 329.07517,817.60964 332.08031,812.3097 333.99016,805.559 C 336.6548,796.15865 335.61855,789.57121 323.13891,789.57121 L 316.62562,789.57121 L 306.54388,789.57121 L 291.62179,842.25761 L 301.70303,842.25761 L 307.58012,821.54742 L 312.6137,821.54742 L 315.20431,842.18346 L 325.99589,842.18346"
       id="path11192" />
    <path
       style="fill:#e5003c;fill-rule:nonzero;stroke:none"
       d="M 610.76066,780.24487 L 680.29398,780.24487 L 660.30874,851.22897 L 590.77593,851.22897 L 610.76066,780.24487 z "
       id="path11194" />
    <path
       id="path11196"
       d="M 619.87968,806.44759 L 620.25014,804.73008 C 622.4854,794.1603 629.25058,788.87535 640.57526,788.87535 C 653.3808,788.87535 655.54191,795.34471 653.75076,803.61969 C 652.12225,811.51024 649.66482,814.48592 641.83381,820.74796 C 635.58676,825.64797 631.04172,828.93445 629.17643,831.91001 L 647.87367,831.91001 L 645.78658,841.5917 L 612.12281,841.5917 C 614.74301,829.15612 623.81746,821.7842 629.10241,817.83144 C 639.83534,809.79324 640.4276,807.63162 641.24154,803.69383 C 642.14474,799.51927 641.92243,796.76589 638.34001,796.76589 C 633.5733,796.76589 632.38889,802.42081 631.48621,806.44759 L 619.87968,806.44759"
       style="fill:#ffffff;fill-rule:nonzero;stroke:none" />
    <path
       id="path11198"
       d="M 619.87968,806.44759 L 620.25014,804.73008 C 622.4854,794.1603 629.25058,788.87535 640.57526,788.87535 C 653.3808,788.87535 655.54191,795.34471 653.75076,803.61969 C 652.12225,811.51024 649.66482,814.48592 641.83381,820.74796 C 635.58676,825.64797 631.04172,828.93445 629.17643,831.91001 L 647.87367,831.91001 L 645.78658,841.5917 L 612.12281,841.5917 C 614.74301,829.15612 623.81746,821.7842 629.10241,817.83144 C 639.83534,809.79324 640.4276,807.63162 641.24154,803.69383 C 642.14474,799.51927 641.92243,796.76589 638.34001,796.76589 C 633.5733,796.76589 632.38889,802.42081 631.48621,806.44759 L 619.87968,806.44759"
       style="fill:#ffffff;fill-rule:nonzero;stroke:none" />
  </g>
</svg>
