<?xml version="1.0" encoding="UTF-8" ?>
<!DOCTYPE svg PUBLIC "-//W3C//DTD SVG 1.1//EN" "http://www.w3.org/Graphics/SVG/1.1/DTD/svg11.dtd">
<svg width="400pt" height="390pt" viewBox="0 0 400 390" version="1.1" xmlns="http://www.w3.org/2000/svg">
<g id="#010202ff">
<path fill="#010202" opacity="1.00" d=" M 200.41 0.00 L 203.57 0.00 C 251.28 0.45 298.93 16.77 336.03 46.95 C 362.18 68.17 383.14 96.30 394.10 128.26 C 389.99 122.30 386.05 116.19 381.18 110.80 C 355.04 80.94 314.39 65.30 275.00 67.93 C 242.29 69.96 210.29 84.42 187.95 108.54 C 180.27 94.05 168.34 81.95 154.10 73.85 C 133.08 61.72 107.90 57.98 84.01 61.04 C 66.46 63.20 49.40 69.90 35.57 81.01 C 50.07 61.47 68.56 45.01 89.19 32.17 C 122.39 11.49 161.34 0.50 200.41 0.00 Z" />
<path fill="#010202" opacity="1.00" d=" M 79.52 125.45 C 87.81 114.36 105.33 112.53 116.14 120.92 C 125.56 128.04 130.23 140.34 129.26 151.95 C 128.10 169.44 119.92 185.68 109.58 199.53 C 103.81 207.36 97.01 214.34 90.46 221.50 C 68.87 244.96 47.31 268.45 25.69 291.89 C 9.24 262.52 1.21 228.98 0.00 195.48 L 0.00 185.32 C 0.23 175.90 1.04 166.49 2.63 157.20 C 26.42 157.19 50.20 157.21 73.99 157.19 C 72.16 146.47 72.58 134.39 79.52 125.45 Z" />
<path fill="#010202" opacity="1.00" d=" M 272.52 125.69 C 300.85 120.36 331.52 136.57 342.93 163.05 C 348.83 175.85 348.58 190.64 345.00 204.04 C 340.79 219.84 330.66 234.12 316.68 242.72 C 303.53 250.98 287.23 253.94 271.99 251.08 C 257.08 248.41 243.38 239.97 234.07 228.06 C 223.05 214.07 218.09 195.62 219.97 177.98 C 223.44 151.46 246.57 130.02 272.52 125.69 Z" />
<path fill="#010202" opacity="1.00" d=" M 117.68 267.18 C 132.96 252.76 148.50 238.63 163.70 224.13 C 168.78 239.75 176.35 254.65 187.05 267.19 C 163.93 267.20 140.81 267.21 117.68 267.18 Z" />
<path fill="#010202" opacity="1.00" d=" M 363.29 283.24 C 379.75 270.47 392.47 253.03 400.00 233.65 L 400.00 235.35 C 398.20 240.87 397.14 246.58 395.40 252.12 C 387.06 280.35 372.39 306.78 352.26 328.31 C 332.61 349.46 307.90 365.77 280.91 375.95 C 256.29 385.43 229.89 389.63 203.58 390.00 L 201.46 390.00 C 177.18 389.66 152.82 386.18 129.82 378.19 C 98.09 367.39 69.14 348.28 47.28 322.81 C 98.33 322.78 149.37 322.81 200.42 322.80 C 200.45 308.69 200.41 294.59 200.44 280.48 C 222.74 299.35 251.99 308.90 281.01 309.22 C 310.24 309.83 340.14 301.46 363.29 283.24 Z" />
</g>
</svg>
