<?xml version="1.0" encoding="UTF-8" standalone="no"?>
<!-- Created with Inkscape (http://www.inkscape.org/) -->

<svg
   xmlns:dc="http://purl.org/dc/elements/1.1/"
   xmlns:cc="http://creativecommons.org/ns#"
   xmlns:rdf="http://www.w3.org/1999/02/22-rdf-syntax-ns#"
   xmlns:svg="http://www.w3.org/2000/svg"
   xmlns="http://www.w3.org/2000/svg"
   xmlns:xlink="http://www.w3.org/1999/xlink"
   xmlns:sodipodi="http://sodipodi.sourceforge.net/DTD/sodipodi-0.dtd"
   xmlns:inkscape="http://www.inkscape.org/namespaces/inkscape"
   width="585.5979"
   height="243.50314"
   id="svg10286"
   version="1.1"
   inkscape:version="0.48.4 r9939"
   sodipodi:docname="Logo_Blue_Movie_3.svg">
  <defs
     id="defs3">
    <linearGradient
       x1="0"
       y1="0"
       x2="1"
       y2="0"
       gradientUnits="userSpaceOnUse"
       gradientTransform="matrix(19.591,0,0,-19.591,421.628,200.37)"
       spreadMethod="pad"
       id="linearGradient4561">
      <stop
         style="stop-opacity:1;stop-color:#252058"
         offset="0"
         id="stop4563" />
      <stop
         style="stop-opacity:1;stop-color:#2a2372"
         offset="1"
         id="stop4565" />
    </linearGradient>
    <linearGradient
       x1="0"
       y1="0"
       x2="1"
       y2="0"
       gradientUnits="userSpaceOnUse"
       gradientTransform="matrix(5.8739,0,0,-5.8739,441.665,200.433)"
       spreadMethod="pad"
       id="linearGradient4543">
      <stop
         style="stop-opacity:1;stop-color:#760c04"
         offset="0"
         id="stop4545" />
      <stop
         style="stop-opacity:1;stop-color:#d60c12"
         offset="1"
         id="stop4547" />
    </linearGradient>
    <clipPath
       clipPathUnits="userSpaceOnUse"
       id="clipPath4491">
      <path
         inkscape:connector-curvature="0"
         d="m 448.069,208.914 -37.04,0 0,-16.95 37.04,0 0,16.95 z"
         id="path4493" />
    </clipPath>
    <clipPath
       clipPathUnits="userSpaceOnUse"
       id="clipPath4497">
      <path
         inkscape:connector-curvature="0"
         d="m 411.029,208.914 37.109,0 0,-17.042 -37.109,0 0,17.042"
         id="path4499" />
    </clipPath>
    <clipPath
       clipPathUnits="userSpaceOnUse"
       id="clipPath4503">
      <path
         inkscape:connector-curvature="0"
         d="m 411.029,208.913 0,-16.762 37.039,0 0,16.762 -37.039,0"
         id="path4505" />
    </clipPath>
    <clipPath
       clipPathUnits="userSpaceOnUse"
       id="clipPath4509">
      <path
         inkscape:connector-curvature="0"
         d="m 1391.81,306.142 -1400.314,0 0,-314.646 1400.314,0 0,314.646 z"
         id="path4511" />
    </clipPath>
    <clipPath
       clipPathUnits="userSpaceOnUse"
       id="clipPath4515">
      <path
         inkscape:connector-curvature="0"
         d="m 0,297.63 1383.3,0 L 1383.3,0 0,0 0,297.63 z"
         id="path4517" />
    </clipPath>
    <linearGradient
       x1="0"
       y1="0"
       x2="1"
       y2="0"
       gradientUnits="userSpaceOnUse"
       gradientTransform="matrix(9.438077,0,0,-9.438077,411.55899,200.43176)"
       spreadMethod="pad"
       id="linearGradient4525">
      <stop
         style="stop-opacity:1;stop-color:#760c04"
         offset="0"
         id="stop4527" />
      <stop
         style="stop-opacity:1;stop-color:#d60c12"
         offset="1"
         id="stop4529" />
    </linearGradient>
    <linearGradient
       inkscape:collect="always"
       xlink:href="#linearGradient4525"
       id="linearGradient10401"
       gradientUnits="userSpaceOnUse"
       gradientTransform="matrix(9.438077,0,0,-9.438077,411.55899,200.43176)"
       spreadMethod="pad"
       x1="0"
       y1="0"
       x2="1"
       y2="0" />
    <linearGradient
       inkscape:collect="always"
       xlink:href="#linearGradient4543"
       id="linearGradient10403"
       gradientUnits="userSpaceOnUse"
       gradientTransform="matrix(5.8739,0,0,-5.8739,441.665,200.433)"
       spreadMethod="pad"
       x1="0"
       y1="0"
       x2="1"
       y2="0" />
    <linearGradient
       inkscape:collect="always"
       xlink:href="#linearGradient4561"
       id="linearGradient10405"
       gradientUnits="userSpaceOnUse"
       gradientTransform="matrix(19.591,0,0,-19.591,421.628,200.37)"
       spreadMethod="pad"
       x1="0"
       y1="0"
       x2="1"
       y2="0" />
    <linearGradient
       x1="0"
       y1="0"
       x2="1"
       y2="0"
       gradientUnits="userSpaceOnUse"
       gradientTransform="matrix(8.8302,0,0,-8.8302,442.273,155.223)"
       spreadMethod="pad"
       id="linearGradient4479">
      <stop
         style="stop-opacity:1;stop-color:#760c04"
         offset="0"
         id="stop4481" />
      <stop
         style="stop-opacity:1;stop-color:#d60c12"
         offset="1"
         id="stop4483" />
    </linearGradient>
    <linearGradient
       x1="0"
       y1="0"
       x2="1"
       y2="0"
       gradientUnits="userSpaceOnUse"
       gradientTransform="matrix(19.781,0,0,-19.781,421.73,155.156)"
       spreadMethod="pad"
       id="linearGradient4461">
      <stop
         style="stop-opacity:1;stop-color:#252058"
         offset="0"
         id="stop4463" />
      <stop
         style="stop-opacity:1;stop-color:#2a2372"
         offset="1"
         id="stop4465" />
    </linearGradient>
    <clipPath
       clipPathUnits="userSpaceOnUse"
       id="clipPath4409">
      <path
         inkscape:connector-curvature="0"
         d="m 451.638,163.783 -40.609,0 0,-17.114 40.609,0 0,17.114 z"
         id="path4411" />
    </clipPath>
    <clipPath
       clipPathUnits="userSpaceOnUse"
       id="clipPath4415">
      <path
         inkscape:connector-curvature="0"
         d="m 411.029,163.782 40.638,0 0,-17.206 -40.638,0 0,17.206"
         id="path4417" />
    </clipPath>
    <clipPath
       clipPathUnits="userSpaceOnUse"
       id="clipPath4421">
      <path
         inkscape:connector-curvature="0"
         d="m 411.029,163.782 0,-16.807 40.609,0 0,16.807 -40.609,0"
         id="path4423" />
    </clipPath>
    <clipPath
       clipPathUnits="userSpaceOnUse"
       id="clipPath4427">
      <path
         inkscape:connector-curvature="0"
         d="m 1391.81,306.142 -1400.314,0 0,-314.646 1400.314,0 0,314.646 z"
         id="path4429" />
    </clipPath>
    <clipPath
       clipPathUnits="userSpaceOnUse"
       id="clipPath4433">
      <path
         inkscape:connector-curvature="0"
         d="m 0,297.63 1383.3,0 L 1383.3,0 0,0 0,297.63 z"
         id="path4435" />
    </clipPath>
    <linearGradient
       x1="0"
       y1="0"
       x2="1"
       y2="0"
       gradientUnits="userSpaceOnUse"
       gradientTransform="matrix(9.529499,0,0,-9.529499,411.56415,155.21872)"
       spreadMethod="pad"
       id="linearGradient4443">
      <stop
         style="stop-opacity:1;stop-color:#760c04"
         offset="0"
         id="stop4445" />
      <stop
         style="stop-opacity:1;stop-color:#d60c12"
         offset="1"
         id="stop4447" />
    </linearGradient>
    <linearGradient
       inkscape:collect="always"
       xlink:href="#linearGradient4443"
       id="linearGradient10553"
       gradientUnits="userSpaceOnUse"
       gradientTransform="matrix(9.529499,0,0,-9.529499,411.56415,155.21872)"
       spreadMethod="pad"
       x1="0"
       y1="0"
       x2="1"
       y2="0" />
    <linearGradient
       inkscape:collect="always"
       xlink:href="#linearGradient4461"
       id="linearGradient10555"
       gradientUnits="userSpaceOnUse"
       gradientTransform="matrix(19.781,0,0,-19.781,421.73,155.156)"
       spreadMethod="pad"
       x1="0"
       y1="0"
       x2="1"
       y2="0" />
    <linearGradient
       inkscape:collect="always"
       xlink:href="#linearGradient4479"
       id="linearGradient10557"
       gradientUnits="userSpaceOnUse"
       gradientTransform="matrix(8.8302,0,0,-8.8302,442.273,155.223)"
       spreadMethod="pad"
       x1="0"
       y1="0"
       x2="1"
       y2="0" />
    <linearGradient
       x1="0"
       y1="0"
       x2="1"
       y2="0"
       gradientUnits="userSpaceOnUse"
       gradientTransform="matrix(8.7029,0,0,-8.7029,441.989,110.084)"
       spreadMethod="pad"
       id="linearGradient4643">
      <stop
         style="stop-opacity:1;stop-color:#760c04"
         offset="0"
         id="stop4645" />
      <stop
         style="stop-opacity:1;stop-color:#d60c12"
         offset="1"
         id="stop4647" />
    </linearGradient>
    <linearGradient
       x1="0"
       y1="0"
       x2="1"
       y2="0"
       gradientUnits="userSpaceOnUse"
       gradientTransform="matrix(19.577,0,0,-19.577,421.62,110.036)"
       spreadMethod="pad"
       id="linearGradient4625">
      <stop
         style="stop-opacity:1;stop-color:#252058"
         offset="0"
         id="stop4627" />
      <stop
         style="stop-opacity:1;stop-color:#2a2372"
         offset="1"
         id="stop4629" />
    </linearGradient>
    <clipPath
       clipPathUnits="userSpaceOnUse"
       id="clipPath4573">
      <path
         inkscape:connector-curvature="0"
         d="m 451.219,118.573 -40.19,0 0,-16.937 40.19,0 0,16.937 z"
         id="path4575" />
    </clipPath>
    <clipPath
       clipPathUnits="userSpaceOnUse"
       id="clipPath4579">
      <path
         inkscape:connector-curvature="0"
         d="m 411.029,118.574 40.219,0 0,-17.029 -40.219,0 0,17.029"
         id="path4581" />
    </clipPath>
    <clipPath
       clipPathUnits="userSpaceOnUse"
       id="clipPath4585">
      <path
         inkscape:connector-curvature="0"
         d="m 411.029,118.573 0,-16.697 40.191,0 0,16.697 -40.191,0"
         id="path4587" />
    </clipPath>
    <clipPath
       clipPathUnits="userSpaceOnUse"
       id="clipPath4591">
      <path
         inkscape:connector-curvature="0"
         d="m 1391.81,306.142 -1400.314,0 0,-314.646 1400.314,0 0,314.646 z"
         id="path4593" />
    </clipPath>
    <clipPath
       clipPathUnits="userSpaceOnUse"
       id="clipPath4597">
      <path
         inkscape:connector-curvature="0"
         d="m 0,297.63 1383.3,0 L 1383.3,0 0,0 0,297.63 z"
         id="path4599" />
    </clipPath>
    <linearGradient
       x1="0"
       y1="0"
       x2="1"
       y2="0"
       gradientUnits="userSpaceOnUse"
       gradientTransform="matrix(9.431172,0,0,-9.431172,411.55862,110.09756)"
       spreadMethod="pad"
       id="linearGradient4607">
      <stop
         style="stop-opacity:1;stop-color:#760c04"
         offset="0"
         id="stop4609" />
      <stop
         style="stop-opacity:1;stop-color:#d60c12"
         offset="1"
         id="stop4611" />
    </linearGradient>
    <linearGradient
       inkscape:collect="always"
       xlink:href="#linearGradient4607"
       id="linearGradient10750"
       gradientUnits="userSpaceOnUse"
       gradientTransform="matrix(9.431172,0,0,-9.431172,411.55862,110.09756)"
       spreadMethod="pad"
       x1="0"
       y1="0"
       x2="1"
       y2="0" />
    <linearGradient
       inkscape:collect="always"
       xlink:href="#linearGradient4625"
       id="linearGradient10752"
       gradientUnits="userSpaceOnUse"
       gradientTransform="matrix(19.577,0,0,-19.577,421.62,110.036)"
       spreadMethod="pad"
       x1="0"
       y1="0"
       x2="1"
       y2="0" />
    <linearGradient
       inkscape:collect="always"
       xlink:href="#linearGradient4643"
       id="linearGradient10754"
       gradientUnits="userSpaceOnUse"
       gradientTransform="matrix(8.7029,0,0,-8.7029,441.989,110.084)"
       spreadMethod="pad"
       x1="0"
       y1="0"
       x2="1"
       y2="0" />
    <linearGradient
       inkscape:collect="always"
       xlink:href="#linearGradient4607"
       id="linearGradient3266"
       gradientUnits="userSpaceOnUse"
       gradientTransform="matrix(9.431172,0,0,-9.431172,411.55862,110.09756)"
       spreadMethod="pad"
       x1="0"
       y1="0"
       x2="1"
       y2="0" />
    <linearGradient
       inkscape:collect="always"
       xlink:href="#linearGradient4625"
       id="linearGradient3268"
       gradientUnits="userSpaceOnUse"
       gradientTransform="matrix(19.577,0,0,-19.577,421.62,110.036)"
       spreadMethod="pad"
       x1="0"
       y1="0"
       x2="1"
       y2="0" />
    <linearGradient
       inkscape:collect="always"
       xlink:href="#linearGradient4643"
       id="linearGradient3270"
       gradientUnits="userSpaceOnUse"
       gradientTransform="matrix(8.7029,0,0,-8.7029,441.989,110.084)"
       spreadMethod="pad"
       x1="0"
       y1="0"
       x2="1"
       y2="0" />
  </defs>
  <sodipodi:namedview
     inkscape:document-units="mm"
     id="base"
     pagecolor="#ffffff"
     bordercolor="#666666"
     borderopacity="1.0"
     inkscape:pageopacity="0.0"
     inkscape:pageshadow="2"
     inkscape:zoom="0.7"
     inkscape:cx="160.48028"
     inkscape:cy="77.178942"
     inkscape:current-layer="layer1"
     showgrid="false"
     units="mm"
     fit-margin-top="1"
     fit-margin-left="1"
     fit-margin-right="1"
     fit-margin-bottom="1"
     inkscape:window-width="1366"
     inkscape:window-height="716"
     inkscape:window-x="-8"
     inkscape:window-y="-8"
     inkscape:window-maximized="1" />
  <metadata
     id="metadata4">
    <rdf:RDF>
      <cc:Work
         rdf:about="">
        <dc:format>image/svg+xml</dc:format>
        <dc:type
           rdf:resource="http://purl.org/dc/dcmitype/StillImage" />
        <dc:title />
      </cc:Work>
    </rdf:RDF>
  </metadata>
  <g
     inkscape:label="Layer 1"
     inkscape:groupmode="layer"
     id="layer1"
     transform="translate(-220.44303,-391.45613)">
    <g
       id="g3247">
      <g
         transform="matrix(1.0261928,0,0,1.0261928,-5.86683,-16.538554)"
         id="g10730">
        <g
           id="g4569"
           transform="matrix(14.405601,0,0,-14.405601,-5704.7684,2101.3635)">
          <g
             clip-path="url(#clipPath4573)"
             id="g4571">
            <g
               clip-path="url(#clipPath4579)"
               id="g4577">
              <g
                 clip-path="url(#clipPath4585)"
                 id="g4583">
                <g
                   clip-path="url(#clipPath4591)"
                   id="g4589">
                  <g
                     clip-path="url(#clipPath4597)"
                     id="g4595">
                    <g
                       transform="translate(416.857,118.032)"
                       id="g4605">
                      <path
                         inkscape:connector-curvature="0"
                         id="path4613"
                         style="fill:url(#linearGradient3266);fill-opacity:1;fill-rule:evenodd;stroke:none"
                         d="m 0,0 4.109,0 0.024,-15.87 -4.532,0.009 c 0.201,0.497 0.39,1.011 0.535,1.488 0.856,2.826 -1.134,3.739 0.699,7.058 1.59,0.307 2.215,1.774 1.989,2.889 l 0.007,0.357 C 2.73,-3.998 2.657,-3.964 2.575,-3.88 1.664,-2.949 0.611,-2.15 0,0 m -4.643,0 3.684,0 C -0.845,-1.808 -0.103,-3.022 0.573,-3.88 0.647,-3.974 0.726,-4 0.828,-4.069 L 0.821,-4.426 c 0.227,-1.115 -0.395,-2.583 -1.985,-2.891 -0.948,-2.707 0.817,-3.501 0.734,-5.773 -0.046,-1.26 -0.231,-1.873 -0.474,-2.771 l -4.394,0 0,15.861 0.655,0" />
                    </g>
                  </g>
                </g>
              </g>
            </g>
          </g>
        </g>
        <g
           id="g4615"
           transform="matrix(14.405601,0,0,-14.405601,-5704.7684,2101.3635)">
          <g
             id="g4617">
            <g
               id="g4623">
              <path
                 inkscape:connector-curvature="0"
                 id="path4631"
                 style="fill:url(#linearGradient3268);stroke:none"
                 d="m 441.197,103.445 0,-1.273 -2.932,0 0,6.397 2.827,0 0,-1.273 -1.131,0 0,-1.216 1.057,0 0,-1.215 -1.057,0 0,-1.42 1.236,0 z m -5.057,5.124 1.6969,0 0,-6.3973 -1.6969,0 0,6.3973 z m -2.159,0 1.785,0 -0.865,-6.397 -2.553,0 -0.985,6.397 1.785,0 c 0.202,-1.762 0.349,-3.256 0.439,-4.484 0.089,1.241 0.185,2.339 0.289,3.295 l 0.105,1.189 z m -4.49,-4.582 c 0,-0.376 -0.015,-0.615 -0.047,-0.714 -0.033,-0.1 -0.103,-0.15 -0.218,-0.15 -0.11,0 -0.18,0.043 -0.211,0.13 -0.03,0.087 -0.044,0.316 -0.044,0.688 l 0,2.983 c 0,0.327 0.023,0.526 0.069,0.592 0.045,0.068 0.112,0.101 0.199,0.101 0.102,0 0.17,-0.041 0.203,-0.124 0.032,-0.083 0.049,-0.273 0.049,-0.569 l 0,-2.937 z m 1.347,4.042 c -0.169,0.224 -0.393,0.391 -0.669,0.503 -0.278,0.112 -0.589,0.168 -0.937,0.168 -0.368,0 -0.69,-0.059 -0.966,-0.178 -0.275,-0.118 -0.493,-0.287 -0.656,-0.509 -0.162,-0.221 -0.259,-0.465 -0.289,-0.732 -0.031,-0.268 -0.047,-0.723 -0.047,-1.364 l 0,-1.093 c 0,-0.659 0.017,-1.12 0.049,-1.383 0.031,-0.263 0.133,-0.507 0.302,-0.73 0.168,-0.224 0.39,-0.392 0.668,-0.504 0.277,-0.112 0.59,-0.167 0.939,-0.167 0.366,0 0.688,0.059 0.962,0.177 0.278,0.119 0.496,0.289 0.658,0.509 0.161,0.222 0.259,0.465 0.288,0.733 0.032,0.267 0.048,0.722 0.048,1.365 l 0,1.093 c 0,0.658 -0.016,1.118 -0.049,1.382 -0.033,0.263 -0.132,0.507 -0.301,0.73 z m -6.209,0.54 2.198,0 0,-6.397 -1.472,0 -0.007,4.318 -0.589,-4.318 -1.041,0 -0.617,4.23 -0.008,-4.23 -1.473,0 0,6.397 2.184,0 c 0.057,-0.385 0.124,-0.838 0.201,-1.358 l 0.241,-1.629 0.383,2.987 z m 16.461,0.644 -3.925,0 0,8.819 3.776,0 0,-1.752 -1.554,0 0,-1.66 1.452,0 0,-1.691 -1.452,0 0,-1.938 1.703,0 0,-1.778 z m -4.855,0.682 c -0.219,-0.285 -0.506,-0.502 -0.863,-0.65 -0.358,-0.148 -0.778,-0.221 -1.263,-0.221 -0.537,0 -1.011,0.087 -1.421,0.262 -0.412,0.175 -0.718,0.403 -0.923,0.683 -0.203,0.28 -0.323,0.577 -0.359,0.888 -0.038,0.312 -0.056,0.967 -0.056,1.965 l 0,5.21 2.34,0 0,-6.605 c 0,-0.387 0.02,-0.634 0.063,-0.741 0.042,-0.108 0.127,-0.161 0.256,-0.161 0.147,0 0.241,0.059 0.284,0.177 0.042,0.119 0.063,0.398 0.063,0.839 l 0,6.491 2.339,0 0,-5.887 c 0,-0.671 -0.022,-1.141 -0.066,-1.413 -0.044,-0.272 -0.176,-0.55 -0.394,-0.837 z m -5.08,-0.682 -3.747,0 0,8.819 2.34,0 0,-7.041 1.407,0 0,-1.778 z m -6.518,5.548 c -0.061,-0.11 -0.206,-0.165 -0.433,-0.165 -0.054,0 -0.13,-0.002 -0.229,-0.005 l 0,1.952 c 0.237,-0.004 0.397,-0.02 0.479,-0.049 0.081,-0.029 0.148,-0.099 0.2,-0.209 0.051,-0.11 0.076,-0.303 0.076,-0.578 0,-0.52 -0.03,-0.835 -0.093,-0.946 z m 0.093,-3.206 c 0,-0.358 -0.045,-0.582 -0.134,-0.673 -0.09,-0.092 -0.296,-0.142 -0.621,-0.153 l 0,2.477 c 0.343,-0.011 0.555,-0.057 0.634,-0.137 0.081,-0.08 0.121,-0.31 0.121,-0.688 l 0,-0.826 z m 0.953,2.445 c 0.485,0.109 0.811,0.265 0.977,0.469 0.164,0.203 0.247,0.562 0.247,1.078 0,0.762 -0.117,1.316 -0.35,1.659 -0.233,0.343 -0.539,0.545 -0.918,0.657 -0.379,0.112 -0.937,0.169 -1.673,0.169 l -2.331,0 0,-8.819 2.701,0 c 0.938,0 1.56,0.053 1.863,0.159 0.303,0.106 0.524,0.303 0.663,0.592 0.139,0.288 0.208,0.731 0.208,1.33 l 0,0.822 c 0,0.578 -0.095,1.005 -0.289,1.284 -0.192,0.279 -0.558,0.48 -1.098,0.6" />
            </g>
          </g>
        </g>
        <g
           id="g4633"
           transform="matrix(14.405601,0,0,-14.405601,-5704.7684,2101.3635)">
          <g
             id="g4635">
            <g
               id="g4641">
              <path
                 inkscape:connector-curvature="0"
                 id="path4649"
                 style="fill:url(#linearGradient3270);stroke:none"
                 d="m 444.976,113.433 -2.845,0 c 0,0 0,1.826 0.488,2.676 0.488,0.849 1.487,2.06 4.035,1.911 2.548,-0.149 3.44,-1.316 3.716,-3.462 0.277,-2.144 -0.722,-3.61 -1.89,-3.992 0.659,-0.149 2.443,-0.552 2.188,-4.396 -0.255,-3.844 -3.501,-4.035 -4.256,-4.035 -0.756,0 -4.685,-0.191 -4.409,4.948 1.487,0 3.101,-0.042 3.101,-0.042 0,0 -0.149,-2.506 1.104,-2.506 1.253,0 1.253,1.04 1.274,2.336 0.021,1.295 -0.191,1.784 -0.425,2.017 -0.233,0.234 -0.785,0.425 -2.038,0.383 0,0.7 0,2.378 0,2.378 0,0 0.764,-0.106 1.189,-0.021 0.425,0.085 1.104,0.403 1.083,2.208 -0.021,1.806 -0.637,1.827 -1.062,1.848 -0.424,0.021 -1.168,-0.021 -1.253,-2.251" />
            </g>
          </g>
        </g>
      </g>
    </g>
  </g>
</svg>
