<?xml version="1.0" encoding="UTF-8" standalone="yes"?>
<svg xmlns="http://www.w3.org/2000/svg" xmlns:xlink="http://www.w3.org/1999/xlink" width="106.66666666666666px" height="106.66666666666666px" viewBox="0 0 80 80" version="1.1">
  <g id="surface1">
    <path style=" stroke:none;fill-rule:nonzero;fill:rgb(99.607843%,0%,0%);fill-opacity:1;" d="M 29.953125 3.609375 C 35.109375 2.203125 40.5625 1.890625 45.839844 2.722656 C 51.246094 3.546875 56.457031 5.589844 61 8.625 C 67.761719 13.121094 73.015625 19.855469 75.675781 27.53125 C 77.160156 31.753906 77.867188 36.25 77.773438 40.722656 C 77.757812 41.21875 77.777344 41.71875 77.703125 42.207031 C 77.628906 44.074219 77.328125 45.925781 76.96875 47.753906 C 76.050781 52.046875 74.382812 56.183594 72.042969 59.898438 C 67.75 66.757812 61.191406 72.171875 53.632812 75.070312 C 44.917969 78.460938 34.933594 78.449219 26.226562 75.035156 C 23.9375 74.144531 21.734375 73.027344 19.664062 71.707031 C 19.449219 71.585938 19.25 71.375 18.988281 71.386719 C 15.460938 71.382812 11.933594 71.386719 8.40625 71.382812 C 8.394531 67.808594 8.429688 64.234375 8.386719 60.664062 C 7.40625 59.089844 6.457031 57.492188 5.6875 55.804688 C 4.480469 53.234375 3.585938 50.527344 2.992188 47.753906 C 1.457031 40.527344 2.097656 32.851562 4.855469 25.992188 C 7.664062 18.925781 12.695312 12.769531 19.035156 8.574219 C 22.378906 6.351562 26.078125 4.667969 29.953125 3.609375 M 29.210938 21.855469 C 28.46875 22.34375 28.089844 23.230469 28.078125 24.097656 C 28.855469 24.144531 29.636719 24.109375 30.421875 24.121094 C 30.488281 23.8125 30.519531 23.441406 30.808594 23.246094 C 31.34375 22.898438 32.195312 22.996094 32.519531 23.585938 C 32.71875 24 32.65625 24.542969 32.335938 24.882812 C 32 25.191406 31.519531 25.207031 31.089844 25.226562 C 31.089844 25.746094 31.085938 26.261719 31.089844 26.78125 C 31.457031 26.789062 31.84375 26.753906 32.1875 26.914062 C 33.121094 27.304688 33.105469 28.957031 32.101562 29.25 C 31.636719 29.308594 31.054688 29.386719 30.695312 29.003906 C 30.390625 28.707031 30.390625 28.25 30.34375 27.855469 C 29.523438 27.863281 28.699219 27.851562 27.878906 27.863281 C 27.878906 28.46875 27.972656 29.089844 28.269531 29.628906 C 28.660156 30.367188 29.367188 30.914062 30.164062 31.152344 C 31.269531 31.488281 32.515625 31.445312 33.566406 30.933594 C 34.375 30.542969 34.984375 29.789062 35.214844 28.921875 C 35.269531 28.226562 35.339844 27.472656 34.972656 26.847656 C 34.652344 26.230469 34.011719 25.890625 33.367188 25.707031 C 33.914062 25.601562 34.40625 25.242188 34.667969 24.746094 C 35.050781 23.976562 34.945312 22.996094 34.4375 22.308594 C 33.980469 21.714844 33.253906 21.386719 32.527344 21.28125 C 31.40625 21.1875 30.171875 21.179688 29.210938 21.855469 M 45.570312 23.457031 C 45.0625 24.730469 44.992188 26.144531 45.15625 27.496094 C 45.292969 28.589844 45.679688 29.703125 46.488281 30.484375 C 47.476562 31.421875 49.042969 31.617188 50.269531 31.054688 C 51.175781 30.644531 51.8125 29.78125 52.132812 28.855469 C 52.597656 27.433594 52.601562 25.882812 52.3125 24.421875 C 52.082031 23.269531 51.453125 22.121094 50.375 21.566406 C 49.636719 21.164062 48.769531 21.21875 47.960938 21.285156 C 46.863281 21.5625 45.988281 22.417969 45.570312 23.457031 M 38.527344 23.152344 C 37.875 24.183594 37.160156 25.195312 36.761719 26.359375 C 36.484375 27.179688 36.460938 28.066406 36.644531 28.910156 C 36.875 29.703125 37.390625 30.425781 38.113281 30.84375 C 39.136719 31.421875 40.390625 31.488281 41.515625 31.199219 C 42.484375 30.945312 43.328125 30.242188 43.714844 29.316406 C 44.023438 28.652344 44.027344 27.898438 43.960938 27.183594 C 43.808594 26.246094 43.203125 25.375 42.335938 24.972656 C 41.632812 24.648438 40.816406 24.640625 40.082031 24.875 C 40.8125 23.703125 41.652344 22.597656 42.335938 21.402344 C 41.453125 21.390625 40.570312 21.410156 39.6875 21.390625 C 39.273438 21.957031 38.914062 22.566406 38.527344 23.152344 M 21.585938 34.949219 C 21.578125 35.71875 21.578125 36.492188 21.582031 37.261719 C 22.304688 37.261719 23.027344 37.261719 23.75 37.261719 C 23.753906 39.75 23.753906 42.242188 23.75 44.730469 C 24.640625 44.75 25.53125 44.738281 26.421875 44.738281 C 26.402344 44.324219 26.429688 43.910156 26.457031 43.496094 C 26.371094 42.007812 26.441406 40.511719 26.425781 39.019531 C 26.527344 38.433594 26.355469 37.84375 26.460938 37.257812 C 27.183594 37.261719 27.902344 37.257812 28.625 37.261719 C 28.628906 36.492188 28.632812 35.71875 28.625 34.949219 C 26.277344 34.953125 23.929688 34.949219 21.585938 34.949219 M 29.9375 41.699219 C 30.027344 42.316406 30.132812 42.953125 30.492188 43.476562 C 30.90625 44.167969 31.652344 44.574219 32.402344 44.800781 C 33.277344 44.972656 34.179688 45.082031 35.070312 44.957031 C 36.128906 44.902344 37.265625 44.542969 37.90625 43.644531 C 38.53125 42.734375 38.640625 41.585938 38.632812 40.515625 C 38.632812 38.671875 38.625 36.832031 38.636719 34.988281 C 37.75 34.910156 36.859375 34.972656 35.96875 34.949219 C 35.945312 36.734375 35.984375 38.523438 35.949219 40.308594 C 35.855469 40.9375 35.964844 41.628906 35.613281 42.195312 C 35.316406 42.660156 34.722656 42.761719 34.210938 42.773438 C 33.71875 42.746094 33.152344 42.625 32.886719 42.160156 C 32.617188 41.660156 32.582031 41.070312 32.566406 40.511719 C 32.5625 38.664062 32.566406 36.816406 32.566406 34.96875 C 31.679688 34.929688 30.792969 34.960938 29.902344 34.949219 C 29.910156 37.199219 29.855469 39.449219 29.9375 41.699219 M 40.660156 44.738281 C 41.519531 44.742188 42.378906 44.738281 43.238281 44.742188 C 43.195312 42.515625 43.339844 40.28125 43.121094 38.058594 C 43.46875 38.742188 43.773438 39.457031 44.253906 40.0625 C 45.402344 41.617188 46.542969 43.179688 47.6875 44.734375 C 48.546875 44.742188 49.402344 44.742188 50.261719 44.738281 C 50.257812 41.476562 50.265625 38.214844 50.257812 34.949219 C 49.410156 34.949219 48.554688 34.953125 47.707031 34.949219 C 47.695312 36.660156 47.699219 38.375 47.703125 40.089844 C 47.691406 40.625 47.820312 41.15625 47.808594 41.695312 C 47.550781 41.097656 47.273438 40.503906 46.914062 39.960938 C 45.714844 38.300781 44.472656 36.671875 43.285156 35 C 42.417969 34.894531 41.539062 34.976562 40.667969 34.949219 C 40.648438 38.210938 40.667969 41.476562 40.660156 44.738281 M 52.375 34.949219 C 52.363281 38.214844 52.375 41.476562 52.371094 44.738281 C 54.371094 44.738281 56.375 44.742188 58.378906 44.738281 C 58.375 44.015625 58.375 43.296875 58.378906 42.574219 C 57.242188 42.574219 56.109375 42.574219 54.972656 42.574219 C 54.96875 42.015625 54.96875 41.457031 54.96875 40.898438 C 56.039062 40.898438 57.105469 40.898438 58.171875 40.898438 C 58.175781 40.207031 58.171875 39.519531 58.175781 38.828125 C 57.6875 38.832031 57.203125 38.832031 56.714844 38.820312 C 56.132812 38.824219 55.546875 38.855469 54.964844 38.78125 C 54.972656 38.226562 54.96875 37.671875 54.96875 37.121094 C 56.101562 37.121094 57.238281 37.117188 58.371094 37.121094 C 58.375 36.40625 58.390625 35.691406 58.367188 34.980469 C 56.375 34.914062 54.371094 34.96875 52.375 34.949219 M 39.113281 48.488281 C 37.445312 48.808594 35.980469 50.011719 35.304688 51.566406 C 34.792969 52.839844 34.804688 54.308594 35.332031 55.570312 C 35.863281 56.777344 36.90625 57.71875 38.109375 58.238281 C 39.527344 58.863281 41.222656 58.796875 42.601562 58.089844 C 44.015625 57.363281 45.109375 55.972656 45.355469 54.382812 C 45.410156 53.8125 45.410156 53.230469 45.355469 52.660156 C 45.085938 50.941406 43.824219 49.464844 42.242188 48.792969 C 41.261719 48.359375 40.15625 48.363281 39.113281 48.488281 M 26.03125 48.636719 C 26.035156 49.929688 26.03125 51.222656 26.035156 52.515625 C 25.722656 52.523438 25.410156 52.523438 25.097656 52.523438 C 25.089844 53.09375 25.09375 53.667969 25.089844 54.238281 C 25.386719 54.242188 25.683594 54.242188 25.980469 54.234375 C 26.015625 54.457031 26.039062 54.675781 26.035156 54.902344 C 26.03125 56.066406 26.035156 57.230469 26.035156 58.394531 C 27.054688 58.390625 28.078125 58.398438 29.101562 58.390625 C 30.136719 58.378906 31.207031 58.398438 32.191406 58.023438 C 32.851562 57.769531 33.402344 57.222656 33.601562 56.539062 C 33.855469 55.671875 33.773438 54.648438 33.1875 53.929688 C 32.785156 53.417969 32.136719 53.203125 31.515625 53.101562 C 32.136719 52.957031 32.785156 52.652344 33.078125 52.054688 C 33.371094 51.402344 33.351562 50.625 33.050781 49.984375 C 32.714844 49.332031 32.035156 48.925781 31.332031 48.785156 C 30.207031 48.550781 29.050781 48.660156 27.910156 48.636719 L 27.839844 48.578125 C 27.65625 48.589844 27.472656 48.605469 27.292969 48.625 C 26.875 48.636719 26.453125 48.632812 26.03125 48.636719 M 45.722656 48.652344 C 46.761719 50.097656 47.785156 51.5625 48.820312 53.011719 C 48.945312 53.148438 48.964844 53.363281 48.828125 53.503906 C 47.671875 55.132812 46.515625 56.761719 45.363281 58.390625 C 46.375 58.390625 47.386719 58.402344 48.402344 58.386719 C 48.9375 57.410156 49.515625 56.457031 50.0625 55.484375 C 50.203125 55.234375 50.3125 54.96875 50.414062 54.699219 C 50.542969 55.25 50.875 55.71875 51.148438 56.207031 C 51.5625 56.925781 51.96875 57.65625 52.390625 58.371094 C 53.398438 58.421875 54.414062 58.386719 55.425781 58.386719 C 54.246094 56.738281 53.066406 55.089844 51.890625 53.441406 C 51.761719 53.308594 51.925781 53.164062 51.992188 53.042969 C 53.023438 51.582031 54.035156 50.105469 55.070312 48.640625 C 54.34375 48.558594 53.609375 48.675781 52.878906 48.632812 C 52.554688 48.597656 52.230469 48.601562 51.90625 48.632812 C 51.425781 49.660156 50.78125 50.613281 50.410156 51.6875 C 50 50.632812 49.386719 49.675781 48.914062 48.648438 C 48.425781 48.59375 47.9375 48.585938 47.449219 48.636719 C 46.871094 48.660156 46.296875 48.554688 45.722656 48.652344 Z M 45.722656 48.652344 "/>
    <path style=" stroke:none;fill-rule:nonzero;fill:rgb(99.607843%,0%,0%);fill-opacity:1;" d="M 48.171875 23.433594 C 48.519531 23.105469 49.125 23.121094 49.4375 23.492188 C 49.898438 24.007812 49.929688 24.742188 50.007812 25.398438 C 50.066406 26.285156 50.050781 27.183594 49.890625 28.058594 C 49.796875 28.492188 49.636719 28.957031 49.261719 29.226562 C 48.941406 29.460938 48.457031 29.402344 48.183594 29.113281 C 47.949219 28.882812 47.847656 28.5625 47.730469 28.261719 C 47.511719 27.167969 47.546875 26.039062 47.613281 24.925781 C 47.6875 24.402344 47.765625 23.8125 48.171875 23.433594 Z M 48.171875 23.433594 "/>
    <path style=" stroke:none;fill-rule:nonzero;fill:rgb(99.607843%,0%,0%);fill-opacity:1;" d="M 38.925781 27.082031 C 39.445312 26.183594 40.960938 26.171875 41.492188 27.066406 C 41.859375 27.714844 41.78125 28.65625 41.171875 29.132812 C 40.738281 29.488281 40.144531 29.398438 39.628906 29.363281 C 39.21875 29.167969 38.851562 28.828125 38.769531 28.363281 C 38.714844 27.9375 38.695312 27.464844 38.925781 27.082031 Z M 38.925781 27.082031 "/>
    <path style=" stroke:none;fill-rule:nonzero;fill:rgb(99.607843%,0%,0%);fill-opacity:1;" d="M 28.511719 50.566406 C 29.101562 50.589844 29.71875 50.492188 30.28125 50.703125 C 30.941406 50.96875 30.964844 52.105469 30.289062 52.367188 C 29.71875 52.570312 29.105469 52.511719 28.511719 52.523438 C 28.511719 51.871094 28.511719 51.21875 28.511719 50.566406 Z M 28.511719 50.566406 "/>
    <path style=" stroke:none;fill-rule:nonzero;fill:rgb(99.607843%,0%,0%);fill-opacity:1;" d="M 40.777344 50.710938 C 41.777344 50.957031 42.511719 51.882812 42.683594 52.875 C 42.742188 53.304688 42.742188 53.738281 42.683594 54.167969 C 42.539062 55.074219 41.925781 55.925781 41.054688 56.253906 C 40.195312 56.5625 39.148438 56.410156 38.480469 55.761719 C 37.1875 54.515625 37.304688 52.085938 38.804688 51.050781 C 39.367188 50.632812 40.109375 50.613281 40.777344 50.710938 Z M 40.777344 50.710938 "/>
    <path style=" stroke:none;fill-rule:nonzero;fill:rgb(99.607843%,0%,0%);fill-opacity:1;" d="M 28.519531 54.242188 C 29.207031 54.234375 29.910156 54.234375 30.582031 54.386719 C 31.167969 54.53125 31.292969 55.265625 31.128906 55.761719 C 31.023438 56.089844 30.679688 56.253906 30.367188 56.324219 C 29.789062 56.410156 29.199219 56.460938 28.617188 56.382812 L 28.53125 56.554688 C 28.496094 55.785156 28.511719 55.011719 28.519531 54.242188 Z M 28.519531 54.242188 "/>
  </g>
</svg>