<?xml version="1.0" encoding="UTF-8" standalone="yes"?>
<svg xmlns="http://www.w3.org/2000/svg" xmlns:xlink="http://www.w3.org/1999/xlink" width="317.3333333333333px" height="106.66666666666666px" viewBox="0 0 238 80" version="1.1">
  <g id="surface1">
    <path style=" stroke:none;fill-rule:nonzero;fill:rgb(13.72549%,12.156863%,12.54902%);fill-opacity:1;" d="M 28.96875 37.019531 C 37.085938 38.917969 40.9375 43.113281 40.9375 50.070312 C 40.9375 57.1875 36.058594 62.9375 24.429688 62.9375 L 2.394531 62.9375 C 1.28125 62.9375 0.757812 62.160156 0.757812 60.875 L 0.757812 56.667969 C 0.757812 54.261719 2.050781 52.292969 5.203125 52.292969 L 25.117188 52.292969 C 27.347656 52.292969 28.195312 51.261719 28.195312 50.488281 C 28.195312 49.292969 27.347656 48.515625 24.699219 47.917969 L 12.042969 45.171875 C 4.179688 43.457031 0 39.171875 0 32.558594 C 0 25.003906 5.203125 19.183594 15.210938 19.183594 L 37.339844 19.183594 C 38.542969 19.183594 39.390625 19.945312 39.390625 21.242188 L 39.390625 25.4375 C 39.390625 27.839844 38.113281 29.898438 34.871094 29.898438 L 15.71875 29.898438 C 13.160156 29.898438 12.386719 30.765625 12.386719 31.527344 C 12.386719 32.8125 13.160156 33.332031 16.058594 34.019531 Z M 57.589844 58.472656 C 57.589844 61.292969 55.464844 62.9375 53.160156 62.9375 L 46.394531 62.9375 C 45.636719 62.9375 44.699219 62.160156 44.699219 60.875 L 44.699219 4.671875 C 44.699219 1.253906 46.394531 0.132812 49.398438 0.132812 L 55.464844 0.132812 C 56.746094 0.132812 57.589844 0.984375 57.589844 2.191406 Z M 105.800781 78.285156 C 105.457031 78.96875 104.9375 80 103.226562 80 L 95.375 80 C 94.601562 80 93.667969 79.3125 93.667969 78.285156 C 93.667969 77.519531 93.828125 77.089844 94.082031 76.582031 L 102.976562 58.472656 L 83.40625 29.125 L 73.324219 39.945312 L 86.230469 59.25 C 86.988281 60.277344 87.167969 60.789062 87.167969 61.292969 C 87.167969 62.160156 86.230469 62.9375 85.117188 62.9375 L 76.222656 62.9375 C 74.945312 62.9375 74.171875 62.070312 73.324219 60.875 L 58.363281 39.171875 L 74.945312 21.242188 C 76.132812 19.867188 77.25 19.183594 79.300781 19.183594 L 88.878906 19.183594 C 90.929688 19.183594 92.03125 19.945312 93.054688 21.585938 L 108.699219 46.546875 L 119.808594 21.242188 C 120.328125 19.941406 121.085938 19.183594 122.722656 19.183594 L 130.664062 19.183594 C 131.601562 19.183594 132.460938 19.945312 132.460938 20.898438 C 132.460938 21.40625 132.285156 22.003906 131.941406 22.617188 L 105.800781 78.285156 "/>
    <path style=" stroke:none;fill-rule:nonzero;fill:rgb(13.72549%,12.156863%,12.54902%);fill-opacity:1;" d="M 160.804688 64.550781 C 152.597656 64.550781 147.003906 61.9375 142.722656 57.996094 C 141.609375 56.964844 140.773438 55.847656 140.773438 54.636719 C 140.773438 53.039062 141.890625 52.292969 143.199219 52.292969 C 144.121094 52.292969 144.597656 52.753906 145.058594 53.234375 C 148.96875 57.339844 153.445312 59.773438 160.714844 59.773438 C 169.652344 59.773438 176.179688 54.53125 176.179688 46.308594 C 176.179688 38.066406 170.394531 32.648438 159.972656 32.648438 L 154.558594 32.648438 C 153.160156 32.648438 152.046875 31.617188 152.046875 30.304688 C 152.046875 28.902344 153.074219 27.871094 154.46875 27.871094 L 159.496094 27.871094 C 168.078125 27.871094 173.386719 22.453125 173.386719 15.71875 C 173.386719 8.984375 168.625 4.777344 160.804688 4.777344 C 156.238281 4.777344 152.789062 5.984375 149.339844 8.226562 C 148.507812 8.792969 147.941406 9.078125 147.109375 9.078125 C 145.710938 9.078125 144.773438 8.046875 144.773438 6.925781 C 144.773438 5.523438 145.609375 4.777344 146.738281 4.015625 C 151.019531 1.210938 156.238281 0 160.984375 0 C 172.078125 0 178.78125 5.792969 178.78125 15.242188 C 178.78125 21.511719 175.15625 26.839844 168.449219 29.929688 C 175.4375 31.527344 181.578125 37.230469 181.578125 46.308594 C 181.578125 56.128906 174.128906 64.550781 160.804688 64.550781 "/>
    <path style=" stroke:none;fill-rule:nonzero;fill:rgb(13.72549%,12.156863%,12.54902%);fill-opacity:1;" d="M 211.035156 63.414062 L 197.238281 63.414062 C 195.660156 63.414062 194.457031 62.207031 194.457031 60.699219 L 194.457031 3.820312 C 194.457031 2.328125 195.660156 1.101562 197.148438 1.101562 L 210.945312 1.101562 C 229.015625 1.101562 238.335938 14.582031 238.335938 32.257812 C 238.335938 49.949219 229.015625 63.414062 211.035156 63.414062 Z M 210.664062 5.96875 L 199.855469 5.96875 L 199.855469 58.546875 L 210.664062 58.546875 C 226.324219 58.546875 232.941406 46.203125 232.941406 32.257812 C 232.941406 18.316406 226.324219 5.96875 210.664062 5.96875 "/>
  </g>
</svg>