<?xml version="1.0" encoding="UTF-8" standalone="no"?>
<!-- Created with Inkscape (http://www.inkscape.org/) -->

<svg
   xmlns:dc="http://purl.org/dc/elements/1.1/"
   xmlns:cc="http://creativecommons.org/ns#"
   xmlns:rdf="http://www.w3.org/1999/02/22-rdf-syntax-ns#"
   xmlns:svg="http://www.w3.org/2000/svg"
   xmlns="http://www.w3.org/2000/svg"
   xmlns:sodipodi="http://sodipodi.sourceforge.net/DTD/sodipodi-0.dtd"
   xmlns:inkscape="http://www.inkscape.org/namespaces/inkscape"
   width="224.3176"
   height="75"
   id="svg10913"
   version="1.1"
   inkscape:version="0.48.0 r9654"
   sodipodi:docname="Neues Dokument 56">
  <defs
     id="defs10915" />
  <sodipodi:namedview
     id="base"
     pagecolor="#ffffff"
     bordercolor="#666666"
     borderopacity="1.0"
     inkscape:pageopacity="0.0"
     inkscape:pageshadow="2"
     inkscape:zoom="0.35"
     inkscape:cx="122.87464"
     inkscape:cy="203.34938"
     inkscape:document-units="px"
     inkscape:current-layer="layer1"
     showgrid="false"
     fit-margin-top="0"
     fit-margin-left="0"
     fit-margin-right="0"
     fit-margin-bottom="0"
     inkscape:window-width="1618"
     inkscape:window-height="1028"
     inkscape:window-x="-8"
     inkscape:window-y="-8"
     inkscape:window-maximized="1" />
  <metadata
     id="metadata10918">
    <rdf:RDF>
      <cc:Work
         rdf:about="">
        <dc:format>image/svg+xml</dc:format>
        <dc:type
           rdf:resource="http://purl.org/dc/dcmitype/StillImage" />
        <dc:title></dc:title>
      </cc:Work>
    </rdf:RDF>
  </metadata>
  <g
     inkscape:label="Ebene 1"
     inkscape:groupmode="layer"
     id="layer1"
     transform="translate(-227.12536,-660.71156)">
    <path
       inkscape:connector-curvature="0"
       d="m 254.38832,695.41893 c 7.64146,1.77741 11.26626,5.7101 11.26626,12.23194 0,6.67578 -4.59048,12.064 -15.53485,12.064 l -20.74112,0 c -1.04909,0 -1.53949,-0.72776 -1.53949,-1.93136 l 0,-3.94669 c 0,-2.25326 1.2176,-4.10064 4.18462,-4.10064 l 18.73978,0 c 2.0993,0 2.89704,-0.96624 2.89704,-1.69344 0,-1.11963 -0.79718,-1.84739 -3.28891,-2.4072 l -11.91005,-2.57515 c -7.40354,-1.60946 -11.33624,-5.62613 -11.33624,-11.82608 0,-7.08165 4.89838,-12.53984 14.31725,-12.53984 l 20.82509,0 c 1.13363,0 1.93136,0.71433 1.93136,1.93136 l 0,3.9327 c 0,2.25325 -1.2036,4.18461 -4.25459,4.18461 l -18.02602,0 c -2.4072,0 -3.13496,0.81173 -3.13496,1.52549 0,1.20361 0.72776,1.69344 3.45686,2.33723 l 12.14797,2.81307 z m 26.94106,20.11132 c 0,2.64513 -2.00134,4.18462 -4.17062,4.18462 l -6.36789,0 c -0.7132,0 -1.59547,-0.72776 -1.59547,-1.93136 l 0,-52.69252 c 0,-3.20494 1.59547,-4.25459 4.42254,-4.25459 l 5.7101,0 c 1.2036,0 2.00134,0.79829 2.00134,1.93136 l 0,52.76249 z m 45.37295,18.57184 c -0.32246,0.64379 -0.81173,1.60947 -2.4212,1.60947 l -7.38955,0 c -0.72776,0 -1.60946,-0.64379 -1.60946,-1.60947 0,-0.71432 0.15338,-1.11962 0.39187,-1.59547 l 8.36922,-16.97637 -18.41789,-27.51487 -9.48885,10.14664 12.14797,18.09599 c 0.7132,0.96512 0.88114,1.44153 0.88114,1.91737 0,0.81173 -0.88114,1.53949 -1.93135,1.53949 l -8.36923,0 c -1.2036,0 -1.93136,-0.81173 -2.72909,-1.93136 l -14.07933,-20.34925 15.60482,-16.80843 c 1.11963,-1.28757 2.16928,-1.93136 4.10064,-1.93136 l 9.01301,0 c 1.93136,0 2.96702,0.71433 3.9327,2.25326 l 14.72311,23.40023 10.45453,-23.72213 c 0.4904,-1.21759 1.2036,-1.93136 2.74309,-1.93136 l 7.47352,0 c 0.88227,0 1.69344,0.71433 1.69344,1.60947 0,0.47584 -0.16794,1.03566 -0.48927,1.60947 l -24.60384,52.18868"
       style="fill:#231f20;fill-opacity:1;fill-rule:nonzero;stroke:none"
       id="path8241" />
    <path
       inkscape:connector-curvature="0"
       d="m 378.47115,721.22637 c -7.72543,0 -12.98769,-2.44919 -17.01835,-6.14397 -1.04909,-0.96512 -1.83339,-2.01533 -1.83339,-3.14895 0,-1.49751 1.04909,-2.19727 2.28124,-2.19727 0.86771,0 1.31556,0.43329 1.74942,0.88226 3.68078,3.84873 7.89338,6.12997 14.73711,6.12997 8.41121,0 14.55517,-4.91237 14.55517,-12.62381 0,-7.72544 -5.44419,-12.80575 -15.25494,-12.80575 l -5.09431,0 c -1.31556,0 -2.36521,-0.96624 -2.36521,-2.19727 0,-1.31557 0.96624,-2.28125 2.28124,-2.28125 l 4.73043,0 c 8.07532,0 13.07167,-5.08031 13.07167,-11.39222 0,-6.3119 -4.47852,-10.2586 -11.84008,-10.2586 -4.29657,0 -7.54349,1.13363 -10.79042,3.23293 -0.78374,0.53183 -1.31556,0.7983 -2.0993,0.7983 -1.31556,0 -2.19727,-0.96624 -2.19727,-2.01533 0,-1.31557 0.78374,-2.01534 1.84739,-2.7291 4.03066,-2.63113 8.94303,-3.76475 13.40755,-3.76475 10.44053,0 16.75244,5.4302 16.75244,14.28926 0,5.87805 -3.41487,10.87439 -9.72677,13.77143 6.57782,1.4975 12.3579,6.84373 12.3579,15.35291 0,9.20894 -7.01168,17.10232 -19.55152,17.10232"
       style="fill:#231f20;fill-opacity:1;fill-rule:nonzero;stroke:none"
       id="path8245" />
    <path
       inkscape:connector-curvature="0"
       d="m 425.74747,720.16272 -12.98769,0 c -1.48351,0 -2.61713,-1.13363 -2.61713,-2.54716 l 0,-53.32231 c 0,-1.39953 1.13362,-2.54715 2.53316,-2.54715 l 12.98769,0 c 17.00436,0 25.77945,12.6378 25.77945,29.20831 0,16.5845 -8.77509,29.20831 -25.69548,29.20831 z m -0.34932,-53.85414 -10.17463,0 0,49.29165 10.17463,0 c 14.73711,0 20.96504,-11.57416 20.96504,-24.64582 0,-13.07167 -6.22793,-24.64583 -20.96504,-24.64583"
       style="fill:#231f20;fill-opacity:1;fill-rule:nonzero;stroke:none"
       id="path8249" />
  </g>
</svg>
