<?xml version="1.0" encoding="UTF-8" ?>
<!DOCTYPE svg PUBLIC "-//W3C//DTD SVG 1.1//EN" "http://www.w3.org/Graphics/SVG/1.1/DTD/svg11.dtd">
<svg width="200pt" height="200pt" viewBox="0 0 200 200" version="1.1" xmlns="http://www.w3.org/2000/svg">
<g id="#ffffffff">
</g>
<g id="#9a4a9dff">
<path fill="#9a4a9d" opacity="1.00" d=" M 90.50 13.06 C 93.52 12.79 96.55 12.66 99.58 12.72 C 99.36 29.26 99.61 45.80 99.32 62.33 C 91.73 62.64 84.14 62.40 76.56 62.53 C 70.26 62.41 63.97 62.58 57.68 62.54 C 57.27 73.58 57.69 84.64 57.33 95.68 C 56.79 95.87 55.72 96.24 55.18 96.43 C 53.87 99.94 55.53 103.33 56.68 106.60 C 57.78 109.06 55.15 111.71 56.87 114.04 L 55.93 114.29 C 58.57 117.65 60.87 121.36 64.31 123.99 C 64.11 124.62 63.91 125.25 63.72 125.87 C 64.89 127.15 66.05 128.43 67.23 129.71 C 67.20 130.19 67.14 131.16 67.11 131.65 C 65.70 130.71 64.35 129.70 63.00 128.68 C 61.34 129.99 59.70 131.33 58.07 132.68 C 62.99 139.16 72.21 140.35 79.36 137.15 C 85.35 134.83 90.46 140.61 96.40 139.58 C 100.14 139.53 103.94 139.64 107.63 140.32 L 107.59 138.64 L 108.04 140.29 C 109.16 139.27 110.58 138.75 112.02 138.38 C 107.83 138.44 103.62 138.54 99.45 138.04 L 99.42 137.49 L 100.16 137.50 C 110.97 137.52 121.78 137.56 132.59 137.37 C 136.82 129.84 144.19 124.18 146.51 115.57 C 149.03 109.21 148.66 102.34 149.72 95.70 C 151.88 95.70 154.05 95.71 156.21 95.63 C 157.72 96.27 159.22 96.94 160.73 97.61 C 162.16 107.96 158.27 118.01 154.44 127.42 C 152.57 132.19 148.92 135.89 146.00 140.02 C 144.61 142.41 141.48 142.70 140.00 145.02 C 136.12 149.81 130.69 152.97 125.00 155.15 C 118.48 158.63 111.10 160.06 103.81 160.74 C 97.82 160.67 91.67 161.36 85.94 159.20 C 82.36 158.94 79.98 155.83 76.41 155.66 C 74.84 155.67 73.95 154.34 72.99 153.32 C 72.65 153.59 71.98 154.14 71.64 154.41 C 69.45 150.05 64.62 148.28 60.33 146.72 C 57.74 144.54 55.18 142.05 53.81 138.90 L 53.18 140.24 C 51.96 138.01 50.57 135.90 49.14 133.81 C 46.01 129.47 45.67 123.77 42.44 119.48 C 41.54 118.06 40.23 116.85 39.70 115.23 C 39.43 104.05 37.54 92.32 42.00 81.65 C 44.37 76.17 45.11 69.59 50.24 65.77 C 50.32 64.81 50.41 63.86 50.50 62.90 C 53.54 61.17 55.14 57.91 57.67 55.61 C 61.68 51.38 67.38 49.52 71.79 45.82 C 75.80 42.95 80.91 42.47 85.37 40.57 C 89.44 39.13 94.11 38.13 98.09 40.37 C 98.41 35.83 98.47 31.28 98.47 26.72 C 98.56 22.34 98.71 17.95 98.54 13.57 C 96.09 13.37 93.64 13.15 91.18 13.09 L 90.50 13.06 Z" />
</g>
<g id="#7f3193ff">
<path fill="#7f3193" opacity="1.00" d=" M 45.62 31.63 C 58.57 21.19 74.62 14.61 91.18 13.09 C 93.64 13.15 96.09 13.37 98.54 13.57 C 98.71 17.95 98.56 22.34 98.47 26.72 C 90.09 25.67 81.90 28.57 74.04 31.12 C 67.04 34.44 59.02 36.71 53.78 42.77 C 48.57 48.24 42.43 52.98 38.58 59.60 C 33.51 66.39 30.81 74.54 28.64 82.63 C 26.33 91.24 27.04 100.22 26.96 109.03 C 26.28 112.15 29.95 113.27 30.11 116.21 C 29.58 116.38 28.53 116.74 28.00 116.91 C 28.78 117.83 29.56 118.75 30.35 119.68 C 28.71 121.49 27.08 123.31 25.48 125.15 C 26.04 126.60 26.61 128.06 27.18 129.51 C 31.76 129.69 36.30 131.19 40.88 130.50 C 41.04 130.74 41.19 130.99 41.35 131.25 C 37.69 132.92 34.33 135.13 30.85 137.11 C 32.39 139.22 33.44 141.61 34.75 143.86 C 35.51 143.68 37.03 143.33 37.80 143.15 C 39.21 144.90 40.62 146.65 42.03 148.40 C 41.66 149.47 41.29 150.55 40.91 151.63 C 41.43 152.28 42.47 153.60 42.99 154.26 C 43.62 153.03 44.22 151.79 44.81 150.55 L 44.77 151.56 C 43.55 156.13 48.21 158.44 51.08 160.93 C 52.39 162.37 54.31 161.97 55.98 161.61 L 55.57 162.93 C 55.27 163.19 54.68 163.72 54.38 163.99 C 55.51 164.51 56.65 165.03 57.79 165.56 C 58.36 165.13 59.51 164.27 60.08 163.84 C 62.06 164.92 64.03 166.00 66.00 167.10 C 65.52 169.55 66.64 171.35 69.09 171.85 C 70.61 171.04 72.22 170.44 73.88 169.97 C 73.63 170.70 73.13 172.17 72.89 172.91 C 73.86 173.28 74.83 173.67 75.80 174.05 C 76.47 172.03 77.12 170.01 77.83 168.01 C 79.67 169.35 81.53 170.80 83.83 171.23 C 99.52 175.01 116.50 173.10 130.98 166.01 C 142.55 160.81 153.00 152.60 159.87 141.85 C 161.86 138.86 164.44 136.22 165.83 132.87 C 168.67 125.38 171.65 117.86 172.92 109.91 C 173.16 106.25 172.41 102.60 171.87 98.99 C 171.71 97.38 169.93 96.74 168.92 95.72 C 174.81 95.62 180.72 95.90 186.60 95.51 C 187.66 110.85 183.97 126.38 176.91 139.98 C 166.44 160.10 147.75 175.76 126.08 182.47 C 105.42 189.00 82.29 187.52 62.72 178.15 C 48.02 171.24 35.32 160.09 26.63 146.36 C 15.01 128.36 10.52 105.93 14.22 84.84 C 17.66 64.03 29.12 44.73 45.62 31.63 Z" />
<path fill="#7f3193" opacity="1.00" d=" M 41.00 142.51 C 42.38 142.30 43.77 142.11 45.16 141.92 C 44.57 143.23 43.97 144.53 43.37 145.83 C 42.57 144.73 41.77 143.62 41.00 142.51 Z" />
<path fill="#7f3193" opacity="1.00" d=" M 63.14 162.47 C 63.23 160.93 65.18 160.72 66.22 159.99 C 66.25 161.31 66.26 162.63 66.27 163.95 C 65.20 163.52 64.09 163.14 63.14 162.47 Z" />
</g>
<g id="#b4b5b9ff">
<path fill="#b4b5b9" opacity="1.00" d=" M 99.69 16.96 C 110.56 16.75 121.22 19.37 131.43 22.86 C 133.00 26.60 132.57 30.75 131.69 34.60 C 131.12 33.43 130.52 32.26 129.89 31.12 C 129.80 31.73 129.61 32.96 129.52 33.58 C 126.98 28.87 120.80 30.12 116.50 28.42 C 111.64 26.41 106.38 26.56 101.23 26.52 C 100.76 24.92 100.28 23.33 99.87 21.72 C 99.61 20.14 99.71 18.54 99.69 16.96 Z" />
<path fill="#b4b5b9" opacity="1.00" d=" M 163.77 62.52 C 167.17 62.50 170.57 62.38 173.97 62.63 C 178.63 72.82 182.11 83.82 182.20 95.11 C 179.87 94.91 177.42 94.90 175.26 93.91 C 171.20 90.28 173.18 84.41 171.27 79.83 C 170.05 73.55 166.79 68.06 163.77 62.52 Z" />
</g>
<g id="#c2c3c6ff">
<path fill="#c2c3c6" opacity="1.00" d=" M 99.87 21.72 C 100.28 23.33 100.76 24.92 101.23 26.52 C 106.38 26.56 111.64 26.41 116.50 28.42 C 120.80 30.12 126.98 28.87 129.52 33.58 C 129.61 32.96 129.80 31.73 129.89 31.12 C 130.52 32.26 131.12 33.43 131.69 34.60 C 133.41 43.14 131.40 51.91 131.82 60.55 C 127.48 57.62 123.77 53.31 118.44 52.25 C 115.07 51.45 111.82 50.24 108.64 48.88 C 106.50 50.11 104.04 49.26 102.84 47.19 C 102.28 47.67 101.72 48.14 101.16 48.61 C 100.84 47.29 100.50 45.98 100.22 44.65 C 99.44 37.05 99.46 29.34 99.87 21.72 Z" />
</g>
<g id="#d2d3d5ff">
<path fill="#d2d3d5" opacity="1.00" d=" M 131.43 22.86 C 132.50 23.16 133.02 23.83 133.00 24.86 C 133.06 36.26 132.96 47.67 132.80 59.07 C 132.75 60.36 132.84 61.74 133.75 62.76 C 136.02 65.95 138.56 68.94 141.03 71.98 C 143.88 75.39 145.35 79.66 147.60 83.45 C 149.28 85.96 147.89 89.19 149.11 91.83 C 150.67 94.82 154.45 94.64 157.29 95.25 L 156.21 95.63 C 154.05 95.71 151.88 95.70 149.72 95.70 C 144.05 95.66 138.38 96.00 132.72 95.66 C 135.19 94.87 137.80 94.79 140.37 94.82 C 140.38 94.38 140.39 93.51 140.39 93.07 L 139.27 93.57 C 139.22 93.22 139.12 92.52 139.07 92.17 C 135.92 89.72 137.14 85.24 134.61 82.42 C 132.45 79.48 131.91 75.48 128.87 73.19 C 123.16 68.74 117.54 63.11 109.99 62.25 C 106.65 61.88 103.36 61.17 100.18 60.07 C 99.83 54.94 99.39 49.76 100.22 44.65 C 100.50 45.98 100.84 47.29 101.16 48.61 C 101.72 48.14 102.28 47.67 102.84 47.19 C 104.04 49.26 106.50 50.11 108.64 48.88 C 111.82 50.24 115.07 51.45 118.44 52.25 C 123.77 53.31 127.48 57.62 131.82 60.55 C 131.40 51.91 133.41 43.14 131.69 34.60 C 132.57 30.75 133.00 26.60 131.43 22.86 Z" />
</g>
<g id="#8d3c98ff">
<path fill="#8d3c98" opacity="1.00" d=" M 74.04 31.12 C 81.90 28.57 90.09 25.67 98.47 26.72 C 98.47 31.28 98.41 35.83 98.09 40.37 C 94.11 38.13 89.44 39.13 85.37 40.57 C 80.91 42.47 75.80 42.95 71.79 45.82 C 67.38 49.52 61.68 51.38 57.67 55.61 C 55.14 57.91 53.54 61.17 50.50 62.90 C 50.41 63.86 50.32 64.81 50.24 65.77 C 45.11 69.59 44.37 76.17 42.00 81.65 C 37.54 92.32 39.43 104.05 39.70 115.23 C 40.23 116.85 41.54 118.06 42.44 119.48 C 45.67 123.77 46.01 129.47 49.14 133.81 C 50.57 135.90 51.96 138.01 53.18 140.24 L 53.81 138.90 C 55.18 142.05 57.74 144.54 60.33 146.72 C 64.62 148.28 69.45 150.05 71.64 154.41 C 71.98 154.14 72.65 153.59 72.99 153.32 C 73.95 154.34 74.84 155.67 76.41 155.66 C 79.98 155.83 82.36 158.94 85.94 159.20 C 91.67 161.36 97.82 160.67 103.81 160.74 C 111.10 160.06 118.48 158.63 125.00 155.15 C 130.69 152.97 136.12 149.81 140.00 145.02 C 141.48 142.70 144.61 142.41 146.00 140.02 C 148.92 135.89 152.57 132.19 154.44 127.42 C 158.27 118.01 162.16 107.96 160.73 97.61 C 159.22 96.94 157.72 96.27 156.21 95.63 C 160.44 95.94 164.69 95.77 168.92 95.72 C 169.93 96.74 171.71 97.38 171.87 98.99 C 172.41 102.60 173.16 106.25 172.92 109.91 C 171.65 117.86 168.67 125.38 165.83 132.87 C 164.44 136.22 161.86 138.86 159.87 141.85 C 153.00 152.60 142.55 160.81 130.98 166.01 C 116.50 173.10 99.52 175.01 83.83 171.23 C 81.53 170.80 79.67 169.35 77.83 168.01 C 78.07 167.35 78.54 166.04 78.78 165.39 C 80.37 165.92 81.96 166.46 83.56 166.99 C 83.73 166.30 84.06 164.91 84.23 164.22 C 80.22 162.71 76.13 161.41 72.07 160.05 C 71.73 160.99 71.39 161.93 71.05 162.88 C 72.59 163.31 74.12 163.75 75.65 164.19 C 75.10 166.12 74.54 168.06 73.88 169.97 C 72.22 170.44 70.61 171.04 69.09 171.85 C 69.26 167.45 69.35 163.05 69.62 158.67 C 68.23 157.87 66.83 157.09 65.42 156.32 C 62.20 158.61 58.88 160.76 55.57 162.93 L 55.98 161.61 C 56.62 160.36 57.32 159.14 58.04 157.94 C 56.10 154.78 52.44 153.14 50.76 149.79 C 55.31 150.15 56.55 155.12 59.94 157.24 C 60.31 155.41 60.75 153.30 58.98 152.03 C 56.27 149.80 53.68 145.99 49.72 146.67 C 49.34 145.27 48.97 143.88 48.56 142.50 C 47.86 141.05 46.94 139.73 46.03 138.41 C 42.47 139.04 38.91 139.71 35.38 140.48 C 34.67 140.01 33.97 139.54 33.26 139.06 C 36.60 137.55 39.72 135.63 42.86 133.76 C 42.49 133.13 41.73 131.87 41.35 131.25 C 41.19 130.99 41.04 130.74 40.88 130.50 C 40.44 129.80 39.55 128.41 39.11 127.71 C 35.68 127.27 32.23 126.90 28.79 126.48 C 30.99 123.71 33.39 121.10 35.82 118.54 C 35.35 117.39 34.88 116.24 34.42 115.09 C 33.07 116.63 31.71 118.16 30.35 119.68 C 29.56 118.75 28.78 117.83 28.00 116.91 C 28.53 116.74 29.58 116.38 30.11 116.21 C 29.95 113.27 26.28 112.15 26.96 109.03 C 27.04 100.22 26.33 91.24 28.64 82.63 C 30.81 74.54 33.51 66.39 38.58 59.60 C 42.43 52.98 48.57 48.24 53.78 42.77 C 59.02 36.71 67.04 34.44 74.04 31.12 Z" />
</g>
<g id="#dfe0e2ff">
<path fill="#dfe0e2" opacity="1.00" d=" M 100.18 60.07 C 103.36 61.17 106.65 61.88 109.99 62.25 C 117.54 63.11 123.16 68.74 128.87 73.19 C 131.91 75.48 132.45 79.48 134.61 82.42 C 137.14 85.24 135.92 89.72 139.07 92.17 C 139.12 92.52 139.22 93.22 139.27 93.57 L 140.39 93.07 C 140.39 93.51 140.38 94.38 140.37 94.82 C 137.80 94.79 135.19 94.87 132.72 95.66 C 132.82 109.56 132.72 123.47 132.59 137.37 C 121.78 137.56 110.97 137.52 100.16 137.50 C 100.29 132.54 99.81 127.50 100.70 122.59 C 101.53 120.45 104.03 120.50 105.87 119.88 C 112.94 118.17 118.06 111.98 120.42 105.35 C 124.05 95.55 117.19 84.77 108.36 80.53 C 102.45 77.70 95.44 78.65 89.38 80.47 C 85.75 85.59 81.40 90.12 77.60 95.12 C 71.75 95.31 65.90 95.21 60.07 94.63 C 61.27 93.30 62.51 92.01 63.90 90.87 C 63.62 90.70 63.06 90.37 62.78 90.20 C 63.74 86.88 64.14 83.17 66.51 80.49 C 71.21 74.75 76.48 69.36 82.72 65.30 C 80.54 64.67 78.45 63.79 76.56 62.53 C 84.14 62.40 91.73 62.64 99.32 62.33 C 99.53 61.77 99.96 60.64 100.18 60.07 Z" />
</g>
<g id="#d3d4d7ff">
<path fill="#d3d4d7" opacity="1.00" d=" M 57.33 95.68 C 57.69 84.64 57.27 73.58 57.68 62.54 C 63.97 62.58 70.26 62.41 76.56 62.53 C 78.45 63.79 80.54 64.67 82.72 65.30 C 76.48 69.36 71.21 74.75 66.51 80.49 C 64.14 83.17 63.74 86.88 62.78 90.20 C 63.06 90.37 63.62 90.70 63.90 90.87 C 62.51 92.01 61.27 93.30 60.07 94.63 C 65.90 95.21 71.75 95.31 77.60 95.12 C 79.13 95.26 80.65 95.49 82.18 95.67 C 81.45 95.72 79.99 95.82 79.26 95.88 C 75.97 95.98 72.68 95.80 69.39 95.87 C 65.37 95.90 61.35 95.73 57.33 95.68 Z" />
</g>
<g id="#c8c9cbff">
<path fill="#c8c9cb" opacity="1.00" d=" M 133.75 62.76 C 139.04 62.37 144.36 62.48 149.66 62.55 C 154.57 68.77 157.43 76.19 160.74 83.31 C 161.90 85.17 160.87 87.21 160.34 89.07 C 161.29 91.32 162.71 93.34 164.66 94.82 C 162.20 94.85 159.74 94.95 157.29 95.25 C 154.45 94.64 150.67 94.82 149.11 91.83 C 147.89 89.19 149.28 85.96 147.60 83.45 C 145.35 79.66 143.88 75.39 141.03 71.98 C 138.56 68.94 136.02 65.95 133.75 62.76 Z" />
</g>
<g id="#bdbec1ff">
<path fill="#bdbec1" opacity="1.00" d=" M 149.66 62.55 C 154.36 62.53 159.07 62.40 163.77 62.52 C 166.79 68.06 170.05 73.55 171.27 79.83 C 173.18 84.41 171.20 90.28 175.26 93.91 C 177.42 94.90 179.87 94.91 182.20 95.11 C 183.85 95.18 185.50 95.20 187.14 95.39 L 186.60 95.51 C 180.72 95.90 174.81 95.62 168.92 95.72 C 164.69 95.77 160.44 95.94 156.21 95.63 L 157.29 95.25 C 159.74 94.95 162.20 94.85 164.66 94.82 C 162.71 93.34 161.29 91.32 160.34 89.07 C 160.87 87.21 161.90 85.17 160.74 83.31 C 157.43 76.19 154.57 68.77 149.66 62.55 Z" />
</g>
<g id="#f0f1f1ff">
<path fill="#f0f1f1" opacity="1.00" d=" M 89.38 80.47 C 95.44 78.65 102.45 77.70 108.36 80.53 C 117.19 84.77 124.05 95.55 120.42 105.35 C 118.06 111.98 112.94 118.17 105.87 119.88 C 104.03 120.50 101.53 120.45 100.70 122.59 C 99.81 127.50 100.29 132.54 100.16 137.50 L 99.42 137.49 C 99.27 131.14 99.41 124.78 99.20 118.42 C 99.33 110.91 99.17 103.40 99.05 95.89 C 94.09 95.77 89.12 95.78 84.16 95.71 C 83.67 95.70 82.67 95.68 82.18 95.67 C 80.65 95.49 79.13 95.26 77.60 95.12 C 81.40 90.12 85.75 85.59 89.38 80.47 Z" />
</g>
<g id="#a858a1ff">
<path fill="#a858a1" opacity="1.00" d=" M 55.18 96.43 C 55.72 96.24 56.79 95.87 57.33 95.68 C 61.35 95.73 65.37 95.90 69.39 95.87 C 67.74 96.41 66.12 97.02 64.49 97.63 C 63.78 100.09 63.06 102.56 62.36 105.02 C 63.48 105.18 64.60 105.33 65.73 105.49 C 65.58 105.86 65.28 106.60 65.14 106.97 C 63.17 107.97 61.46 109.36 59.90 110.91 C 61.46 112.39 63.10 113.78 64.78 115.11 C 67.44 112.76 71.37 111.59 74.65 113.39 C 75.98 113.99 76.10 115.56 75.89 116.82 C 74.54 119.32 71.40 118.54 69.08 118.81 C 69.06 120.82 69.04 122.84 69.02 124.86 C 71.53 125.12 74.51 124.54 76.57 126.33 C 77.50 127.72 77.71 130.03 76.21 131.12 C 73.56 133.02 70.04 132.62 67.11 131.65 C 67.14 131.16 67.20 130.19 67.23 129.71 C 66.05 128.43 64.89 127.15 63.72 125.87 C 63.91 125.25 64.11 124.62 64.31 123.99 C 60.87 121.36 58.57 117.65 55.93 114.29 L 56.87 114.04 C 55.15 111.71 57.78 109.06 56.68 106.60 C 55.53 103.33 53.87 99.94 55.18 96.43 Z" />
</g>
<g id="#b562a6ff">
<path fill="#b562a6" opacity="1.00" d=" M 69.39 95.87 C 72.68 95.80 75.97 95.98 79.26 95.88 C 77.88 96.59 76.01 96.91 75.35 98.50 L 74.65 98.19 C 73.95 101.69 76.21 104.60 77.96 107.38 C 73.86 105.85 69.33 105.80 65.14 106.97 C 65.28 106.60 65.58 105.86 65.73 105.49 C 64.60 105.33 63.48 105.18 62.36 105.02 C 63.06 102.56 63.78 100.09 64.49 97.63 C 66.12 97.02 67.74 96.41 69.39 95.87 Z" />
</g>
<g id="#c36cacff">
<path fill="#c36cac" opacity="1.00" d=" M 79.26 95.88 C 79.99 95.82 81.45 95.72 82.18 95.67 C 82.67 95.68 83.67 95.70 84.16 95.71 C 85.24 101.50 86.44 107.82 91.10 111.91 C 92.71 114.05 95.34 114.58 97.85 114.84 C 98.08 115.74 98.32 116.65 98.56 117.55 C 98.02 120.27 97.40 123.11 95.36 125.15 C 94.51 124.33 93.65 123.51 92.80 122.69 C 91.60 122.69 90.40 122.70 89.21 122.73 C 86.46 120.48 85.95 116.55 82.92 114.60 C 82.32 111.58 80.60 108.99 77.96 107.38 C 76.21 104.60 73.95 101.69 74.65 98.19 L 75.35 98.50 C 76.01 96.91 77.88 96.59 79.26 95.88 Z" />
</g>
<g id="#ce77b1ff">
<path fill="#ce77b1" opacity="1.00" d=" M 84.16 95.71 C 89.12 95.78 94.09 95.77 99.05 95.89 C 99.17 103.40 99.33 110.91 99.20 118.42 L 98.56 117.55 C 98.32 116.65 98.08 115.74 97.85 114.84 C 95.34 114.58 92.71 114.05 91.10 111.91 C 86.44 107.82 85.24 101.50 84.16 95.71 Z" />
</g>
<g id="#a654a0ff">
<path fill="#a654a0" opacity="1.00" d=" M 132.72 95.66 C 138.38 96.00 144.05 95.66 149.72 95.70 C 148.66 102.34 149.03 109.21 146.51 115.57 C 144.19 124.18 136.82 129.84 132.59 137.37 C 132.72 123.47 132.82 109.56 132.72 95.66 Z" />
</g>
<g id="#fffeffff">
<path fill="#fffeff" opacity="1.00" d=" M 65.14 106.97 C 69.33 105.80 73.86 105.85 77.96 107.38 C 80.60 108.99 82.32 111.58 82.92 114.60 C 82.76 117.23 81.68 119.64 79.84 121.53 C 81.89 123.12 84.00 125.15 83.98 127.96 C 84.36 131.68 82.20 134.98 79.36 137.15 C 72.21 140.35 62.99 139.16 58.07 132.68 C 59.70 131.33 61.34 129.99 63.00 128.68 C 64.35 129.70 65.70 130.71 67.11 131.65 C 70.04 132.62 73.56 133.02 76.21 131.12 C 77.71 130.03 77.50 127.72 76.57 126.33 C 74.51 124.54 71.53 125.12 69.02 124.86 C 69.04 122.84 69.06 120.82 69.08 118.81 C 71.40 118.54 74.54 119.32 75.89 116.82 C 76.10 115.56 75.98 113.99 74.65 113.39 C 71.37 111.59 67.44 112.76 64.78 115.11 C 63.10 113.78 61.46 112.39 59.90 110.91 C 61.46 109.36 63.17 107.97 65.14 106.97 Z" />
</g>
<g id="#fff9ffff">
<path fill="#fff9ff" opacity="1.00" d=" M 34.42 115.09 C 34.88 116.24 35.35 117.39 35.82 118.54 C 33.39 121.10 30.99 123.71 28.79 126.48 C 32.23 126.90 35.68 127.27 39.11 127.71 C 39.55 128.41 40.44 129.80 40.88 130.50 C 36.30 131.19 31.76 129.69 27.18 129.51 C 26.61 128.06 26.04 126.60 25.48 125.15 C 27.08 123.31 28.71 121.49 30.35 119.68 C 31.71 118.16 33.07 116.63 34.42 115.09 Z" />
</g>
<g id="#b360a5ff">
<path fill="#b360a5" opacity="1.00" d=" M 82.92 114.60 C 85.95 116.55 86.46 120.48 89.21 122.73 C 90.40 122.70 91.60 122.69 92.80 122.69 C 93.65 123.51 94.51 124.33 95.36 125.15 C 97.40 123.11 98.02 120.27 98.56 117.55 L 99.20 118.42 C 99.41 124.78 99.27 131.14 99.42 137.49 L 99.45 138.04 C 103.62 138.54 107.83 138.44 112.02 138.38 C 110.58 138.75 109.16 139.27 108.04 140.29 L 107.59 138.64 L 107.63 140.32 C 103.94 139.64 100.14 139.53 96.40 139.58 C 90.46 140.61 85.35 134.83 79.36 137.15 C 82.20 134.98 84.36 131.68 83.98 127.96 C 84.00 125.15 81.89 123.12 79.84 121.53 C 81.68 119.64 82.76 117.23 82.92 114.60 Z" />
</g>
<g id="#fffbffff">
<path fill="#fffbff" opacity="1.00" d=" M 30.85 137.11 C 34.33 135.13 37.69 132.92 41.35 131.25 C 41.73 131.87 42.49 133.13 42.86 133.76 C 39.72 135.63 36.60 137.55 33.26 139.06 C 33.97 139.54 34.67 140.01 35.38 140.48 C 38.91 139.71 42.47 139.04 46.03 138.41 C 46.94 139.73 47.86 141.05 48.56 142.50 C 47.18 145.12 45.90 147.79 44.81 150.55 C 44.22 151.79 43.62 153.03 42.99 154.26 C 42.47 153.60 41.43 152.28 40.91 151.63 C 41.29 150.55 41.66 149.47 42.03 148.40 C 40.62 146.65 39.21 144.90 37.80 143.15 C 37.03 143.33 35.51 143.68 34.75 143.86 C 33.44 141.61 32.39 139.22 30.85 137.11 M 41.00 142.51 C 41.77 143.62 42.57 144.73 43.37 145.83 C 43.97 144.53 44.57 143.23 45.16 141.92 C 43.77 142.11 42.38 142.30 41.00 142.51 Z" />
<path fill="#fffbff" opacity="1.00" d=" M 47.70 149.95 C 48.13 148.72 48.97 147.71 49.72 146.67 C 53.68 145.99 56.27 149.80 58.98 152.03 C 60.75 153.30 60.31 155.41 59.94 157.24 C 56.55 155.12 55.31 150.15 50.76 149.79 C 52.44 153.14 56.10 154.78 58.04 157.94 C 57.32 159.14 56.62 160.36 55.98 161.61 C 54.31 161.97 52.39 162.37 51.08 160.93 C 48.21 158.44 43.55 156.13 44.77 151.56 C 46.02 152.13 47.33 152.74 47.93 154.07 C 49.28 156.57 51.68 158.22 54.22 159.35 C 54.39 154.89 47.94 154.27 47.70 149.95 Z" />
</g>
<g id="#84528fff">
<path fill="#84528f" opacity="1.00" d=" M 48.56 142.50 C 48.97 143.88 49.34 145.27 49.72 146.67 C 48.97 147.71 48.13 148.72 47.70 149.95 C 47.94 154.27 54.39 154.89 54.22 159.35 C 51.68 158.22 49.28 156.57 47.93 154.07 C 47.33 152.74 46.02 152.13 44.77 151.56 L 44.81 150.55 C 45.90 147.79 47.18 145.12 48.56 142.50 Z" />
</g>
<g id="#fffdfeff">
<path fill="#fffdfe" opacity="1.00" d=" M 65.42 156.32 C 66.83 157.09 68.23 157.87 69.62 158.67 C 69.35 163.05 69.26 167.45 69.09 171.85 C 66.64 171.35 65.52 169.55 66.00 167.10 C 64.03 166.00 62.06 164.92 60.08 163.84 C 59.51 164.27 58.36 165.13 57.79 165.56 C 56.65 165.03 55.51 164.51 54.38 163.99 C 54.68 163.72 55.27 163.19 55.57 162.93 C 58.88 160.76 62.20 158.61 65.42 156.32 M 63.14 162.47 C 64.09 163.14 65.20 163.52 66.27 163.95 C 66.26 162.63 66.25 161.31 66.22 159.99 C 65.18 160.72 63.23 160.93 63.14 162.47 Z" />
</g>
<g id="#fffaffff">
<path fill="#fffaff" opacity="1.00" d=" M 72.07 160.05 C 76.13 161.41 80.22 162.71 84.23 164.22 C 84.06 164.91 83.73 166.30 83.56 166.99 C 81.96 166.46 80.37 165.92 78.78 165.39 C 78.54 166.04 78.07 167.35 77.83 168.01 C 77.12 170.01 76.47 172.03 75.80 174.05 C 74.83 173.67 73.86 173.28 72.89 172.91 C 73.13 172.17 73.63 170.70 73.88 169.97 C 74.54 168.06 75.10 166.12 75.65 164.19 C 74.12 163.75 72.59 163.31 71.05 162.88 C 71.39 161.93 71.73 160.99 72.07 160.05 Z" />
</g>
</svg>
