<?xml version="1.0" encoding="UTF-8" ?>
<!DOCTYPE svg PUBLIC "-//W3C//DTD SVG 1.1//EN" "http://www.w3.org/Graphics/SVG/1.1/DTD/svg11.dtd">
<svg width="500pt" height="452pt" viewBox="0 0 500 452" version="1.1" xmlns="http://www.w3.org/2000/svg">
<g id="#eb2f21ff">
<path fill="#eb2f21" opacity="1.00" d=" M 185.88 13.86 C 202.71 12.03 219.77 12.94 236.52 15.24 C 299.91 23.81 363.06 34.08 426.18 44.44 C 434.15 45.61 442.01 47.90 449.07 51.82 C 460.93 58.24 470.23 68.71 476.42 80.58 C 483.70 94.51 487.54 110.28 487.18 126.01 C 487.16 194.00 487.19 261.99 487.16 329.98 C 486.70 348.44 480.76 366.91 469.82 381.85 C 460.13 395.10 445.25 404.40 429.00 406.98 C 364.12 417.67 299.22 428.26 234.04 437.03 C 220.00 438.85 205.77 439.44 191.63 438.58 C 204.78 438.94 218.41 436.15 229.08 428.10 C 237.31 421.64 244.85 413.93 249.56 404.47 C 258.68 386.48 261.26 365.95 261.15 346.00 C 261.14 271.66 261.15 197.32 261.14 122.98 C 261.08 107.03 261.73 90.90 258.53 75.17 C 255.47 59.46 249.58 43.54 237.90 32.15 C 231.63 25.84 224.29 20.38 215.82 17.44 C 206.25 13.97 195.94 13.75 185.88 13.86 M 359.94 139.02 C 359.93 159.53 359.94 180.03 359.94 200.54 C 340.77 200.22 321.60 199.84 302.43 199.50 C 302.39 217.79 302.40 236.07 302.43 254.36 C 321.60 253.97 340.77 253.65 359.94 253.29 C 359.94 273.92 359.93 294.54 359.94 315.17 C 375.25 314.15 390.57 313.12 405.88 312.10 C 405.97 292.18 405.73 272.25 406.00 252.34 C 422.57 252.14 439.13 251.75 455.69 251.47 C 455.72 235.10 455.70 218.73 455.71 202.35 C 439.14 202.11 422.57 201.67 406.00 201.51 C 405.73 181.64 405.96 161.76 405.88 141.88 C 390.57 140.92 375.25 139.96 359.94 139.02 Z" />
</g>
<g id="#6f1518ff">
<path fill="#6f1518" opacity="1.00" d=" M 163.00 17.86 C 170.55 16.19 178.11 14.11 185.88 13.86 C 195.94 13.75 206.25 13.97 215.82 17.44 C 224.29 20.38 231.63 25.84 237.90 32.15 C 249.58 43.54 255.47 59.46 258.53 75.17 C 261.73 90.90 261.08 107.03 261.14 122.98 C 261.15 197.32 261.14 271.66 261.15 346.00 C 261.26 365.95 258.68 386.48 249.56 404.47 C 244.85 413.93 237.31 421.64 229.08 428.10 C 218.41 436.15 204.78 438.94 191.63 438.58 C 181.96 438.22 172.42 436.35 163.03 434.09 C 128.57 426.84 94.40 418.29 60.23 409.77 C 44.03 405.52 32.80 391.37 26.19 376.70 C 17.74 357.62 13.67 336.75 12.85 315.97 C 12.79 259.32 12.84 202.67 12.83 146.02 C 12.30 122.36 16.32 98.43 25.55 76.58 C 32.16 61.40 43.49 46.54 60.23 42.17 C 94.39 33.66 128.57 25.22 163.00 17.86 M 141.94 74.93 C 114.12 79.72 86.29 84.53 58.47 89.35 C 58.52 106.29 58.37 123.23 58.54 140.17 C 86.98 136.83 115.43 133.63 143.88 130.37 C 151.14 129.45 159.19 131.14 164.33 136.67 C 170.38 143.13 171.83 152.44 171.83 160.96 C 171.80 170.68 170.40 181.24 163.81 188.86 C 158.46 195.11 150.00 197.57 142.02 197.85 C 120.86 198.59 99.69 199.22 78.53 199.92 C 78.52 217.06 78.53 234.19 78.53 251.33 C 99.69 252.05 120.86 252.67 142.03 253.41 C 150.21 253.66 158.88 256.29 164.20 262.85 C 170.85 270.95 171.96 281.99 171.81 292.09 C 171.62 301.05 169.40 311.07 161.89 316.79 C 155.76 321.56 147.52 321.67 140.17 320.55 C 112.94 317.42 85.70 314.30 58.47 311.20 C 58.46 328.09 58.48 344.99 58.46 361.89 C 86.34 366.77 114.23 371.58 142.11 376.42 C 152.73 378.29 163.82 377.66 174.09 374.32 C 191.46 368.66 206.33 355.63 214.00 339.02 C 223.75 318.27 225.55 294.43 222.08 271.97 C 219.24 255.14 213.39 237.88 200.96 225.67 C 212.70 214.12 218.57 198.01 221.59 182.13 C 225.70 159.01 224.15 134.31 214.26 112.78 C 207.38 97.57 194.55 85.26 179.16 78.84 C 167.48 73.92 154.38 72.77 141.94 74.93 Z" />
</g>
<g id="#ffffffff">
<path fill="#ffffff" opacity="1.00" d=" M 141.94 74.93 C 154.38 72.77 167.48 73.92 179.16 78.84 C 194.55 85.26 207.38 97.57 214.26 112.78 C 224.15 134.31 225.70 159.01 221.59 182.13 C 218.57 198.01 212.70 214.12 200.96 225.67 C 213.39 237.88 219.24 255.14 222.08 271.97 C 225.55 294.43 223.75 318.27 214.00 339.02 C 206.33 355.63 191.46 368.66 174.09 374.32 C 163.82 377.66 152.73 378.29 142.11 376.42 C 114.23 371.58 86.34 366.77 58.46 361.89 C 58.48 344.99 58.46 328.09 58.47 311.20 C 85.70 314.30 112.94 317.42 140.17 320.55 C 147.52 321.67 155.76 321.56 161.89 316.79 C 169.40 311.07 171.62 301.05 171.81 292.09 C 171.96 281.99 170.85 270.95 164.20 262.85 C 158.88 256.29 150.21 253.66 142.03 253.41 C 120.86 252.67 99.69 252.05 78.53 251.33 C 78.53 234.19 78.52 217.06 78.53 199.92 C 99.69 199.22 120.86 198.59 142.02 197.85 C 150.00 197.57 158.46 195.11 163.81 188.86 C 170.40 181.24 171.80 170.68 171.83 160.96 C 171.83 152.44 170.38 143.13 164.33 136.67 C 159.19 131.14 151.14 129.45 143.88 130.37 C 115.43 133.63 86.98 136.83 58.54 140.17 C 58.37 123.23 58.52 106.29 58.47 89.35 C 86.29 84.53 114.12 79.72 141.94 74.93 Z" />
<path fill="#ffffff" opacity="1.00" d=" M 359.94 139.02 C 375.25 139.96 390.57 140.92 405.88 141.88 C 405.96 161.76 405.73 181.64 406.00 201.51 C 422.57 201.67 439.14 202.11 455.71 202.35 C 455.70 218.73 455.72 235.10 455.69 251.47 C 439.13 251.75 422.57 252.14 406.00 252.34 C 405.73 272.25 405.97 292.18 405.88 312.10 C 390.57 313.12 375.25 314.15 359.94 315.17 C 359.93 294.54 359.94 273.92 359.94 253.29 C 340.77 253.65 321.60 253.97 302.43 254.36 C 302.40 236.07 302.39 217.79 302.43 199.50 C 321.60 199.84 340.77 200.22 359.94 200.54 C 359.94 180.03 359.93 159.53 359.94 139.02 Z" />
</g>
</svg>
