<?xml version="1.0" encoding="UTF-8" standalone="yes"?>
<svg xmlns="http://www.w3.org/2000/svg" xmlns:xlink="http://www.w3.org/1999/xlink" width="117.33333333333333px" height="106.66666666666666px" viewBox="0 0 88 80" version="1.1">
  <g id="surface1">
    <path style=" stroke:none;fill-rule:nonzero;fill:rgb(92.156863%,18.431373%,12.941176%);fill-opacity:1;" d="M 32.714844 2.453125 C 35.675781 2.128906 38.679688 2.289062 41.628906 2.699219 C 52.785156 4.214844 63.898438 6.03125 75.007812 7.867188 C 76.410156 8.074219 77.792969 8.476562 79.035156 9.171875 C 81.125 10.308594 82.761719 12.160156 83.851562 14.261719 C 85.132812 16.726562 85.808594 19.519531 85.742188 22.300781 C 85.738281 34.335938 85.746094 46.371094 85.738281 58.402344 C 85.660156 61.671875 84.613281 64.941406 82.6875 67.585938 C 80.984375 69.929688 78.363281 71.574219 75.503906 72.03125 C 64.085938 73.925781 52.664062 75.796875 41.191406 77.351562 C 38.71875 77.671875 36.214844 77.777344 33.726562 77.625 C 36.042969 77.6875 38.441406 77.195312 40.316406 75.769531 C 41.765625 74.625 43.09375 73.261719 43.921875 71.585938 C 45.527344 68.402344 45.980469 64.769531 45.960938 61.238281 C 45.960938 48.082031 45.960938 34.925781 45.960938 21.765625 C 45.949219 18.945312 46.066406 16.089844 45.5 13.304688 C 44.960938 10.523438 43.925781 7.707031 41.871094 5.691406 C 40.765625 4.574219 39.476562 3.605469 37.984375 3.085938 C 36.300781 2.472656 34.484375 2.433594 32.714844 2.453125 M 63.347656 24.605469 C 63.347656 28.234375 63.347656 31.863281 63.347656 35.492188 C 59.976562 35.4375 56.601562 35.371094 53.226562 35.308594 C 53.21875 38.546875 53.222656 41.78125 53.226562 45.019531 C 56.601562 44.949219 59.976562 44.894531 63.347656 44.832031 C 63.347656 48.480469 63.347656 52.132812 63.347656 55.78125 C 66.042969 55.601562 68.742188 55.417969 71.433594 55.238281 C 71.449219 51.714844 71.410156 48.1875 71.457031 44.660156 C 74.371094 44.625 77.285156 44.558594 80.203125 44.507812 C 80.207031 41.609375 80.203125 38.714844 80.203125 35.8125 C 77.289062 35.773438 74.371094 35.695312 71.457031 35.664062 C 71.410156 32.148438 71.449219 28.628906 71.433594 25.113281 C 68.742188 24.941406 66.042969 24.773438 63.347656 24.605469 Z M 63.347656 24.605469 "/>
    <path style=" stroke:none;fill-rule:nonzero;fill:rgb(43.529412%,8.235294%,9.411765%);fill-opacity:1;" d="M 28.6875 3.160156 C 30.015625 2.867188 31.347656 2.496094 32.714844 2.453125 C 34.484375 2.433594 36.300781 2.472656 37.984375 3.085938 C 39.476562 3.605469 40.765625 4.574219 41.871094 5.691406 C 43.925781 7.707031 44.960938 10.523438 45.5 13.304688 C 46.066406 16.089844 45.949219 18.945312 45.960938 21.765625 C 45.960938 34.925781 45.960938 48.082031 45.960938 61.238281 C 45.980469 64.769531 45.527344 68.402344 43.921875 71.585938 C 43.09375 73.261719 41.765625 74.625 40.316406 75.769531 C 38.441406 77.195312 36.042969 77.6875 33.726562 77.625 C 32.023438 77.5625 30.347656 77.230469 28.691406 76.832031 C 22.628906 75.546875 16.613281 74.035156 10.601562 72.527344 C 7.75 71.773438 5.773438 69.269531 4.609375 66.671875 C 3.121094 63.296875 2.40625 59.601562 2.261719 55.925781 C 2.25 45.898438 2.261719 35.871094 2.257812 25.84375 C 2.164062 21.65625 2.871094 17.421875 4.496094 13.554688 C 5.660156 10.867188 7.652344 8.238281 10.601562 7.464844 C 16.613281 5.957031 22.628906 4.464844 28.6875 3.160156 M 24.980469 13.261719 C 20.085938 14.109375 15.1875 14.960938 10.289062 15.8125 C 10.300781 18.8125 10.273438 21.8125 10.304688 24.808594 C 15.308594 24.21875 20.316406 23.652344 25.324219 23.074219 C 26.601562 22.910156 28.015625 23.210938 28.921875 24.1875 C 29.988281 25.332031 30.242188 26.980469 30.242188 28.488281 C 30.238281 30.207031 29.992188 32.078125 28.832031 33.425781 C 27.890625 34.53125 26.398438 34.96875 24.996094 35.019531 C 21.269531 35.148438 17.546875 35.261719 13.820312 35.382812 C 13.820312 38.417969 13.820312 41.449219 13.820312 44.484375 C 17.546875 44.609375 21.269531 44.71875 24.996094 44.851562 C 26.4375 44.894531 27.960938 45.359375 28.898438 46.523438 C 30.070312 47.957031 30.265625 49.910156 30.238281 51.699219 C 30.207031 53.28125 29.8125 55.054688 28.492188 56.070312 C 27.414062 56.914062 25.964844 56.933594 24.667969 56.734375 C 19.878906 56.179688 15.082031 55.628906 10.289062 55.078125 C 10.289062 58.070312 10.292969 61.058594 10.289062 64.050781 C 15.195312 64.914062 20.105469 65.765625 25.011719 66.621094 C 26.878906 66.953125 28.832031 66.84375 30.640625 66.25 C 33.695312 65.25 36.3125 62.945312 37.664062 60.003906 C 39.378906 56.332031 39.695312 52.113281 39.085938 48.136719 C 38.585938 45.15625 37.554688 42.101562 35.367188 39.941406 C 37.433594 37.898438 38.46875 35.046875 39 32.234375 C 39.722656 28.144531 39.449219 23.773438 37.710938 19.960938 C 36.5 17.269531 34.242188 15.089844 31.53125 13.953125 C 29.476562 13.082031 27.171875 12.878906 24.980469 13.261719 Z M 24.980469 13.261719 "/>
    <path style=" stroke:none;fill-rule:nonzero;fill:rgb(100%,100%,100%);fill-opacity:1;" d="M 24.980469 13.261719 C 27.171875 12.878906 29.476562 13.082031 31.53125 13.953125 C 34.242188 15.089844 36.5 17.269531 37.710938 19.960938 C 39.449219 23.773438 39.722656 28.144531 39 32.234375 C 38.46875 35.046875 37.433594 37.898438 35.367188 39.941406 C 37.554688 42.101562 38.585938 45.15625 39.085938 48.136719 C 39.695312 52.113281 39.378906 56.332031 37.664062 60.003906 C 36.3125 62.945312 33.695312 65.25 30.640625 66.25 C 28.832031 66.84375 26.878906 66.953125 25.011719 66.621094 C 20.105469 65.765625 15.195312 64.914062 10.289062 64.050781 C 10.292969 61.058594 10.289062 58.070312 10.289062 55.078125 C 15.082031 55.628906 19.878906 56.179688 24.667969 56.734375 C 25.964844 56.933594 27.414062 56.914062 28.492188 56.070312 C 29.8125 55.054688 30.207031 53.28125 30.238281 51.699219 C 30.265625 49.910156 30.070312 47.957031 28.898438 46.523438 C 27.960938 45.359375 26.4375 44.894531 24.996094 44.851562 C 21.269531 44.71875 17.546875 44.609375 13.820312 44.484375 C 13.820312 41.449219 13.820312 38.417969 13.820312 35.382812 C 17.546875 35.261719 21.269531 35.148438 24.996094 35.019531 C 26.398438 34.96875 27.890625 34.53125 28.832031 33.425781 C 29.992188 32.078125 30.238281 30.207031 30.242188 28.488281 C 30.242188 26.980469 29.988281 25.332031 28.921875 24.1875 C 28.015625 23.210938 26.601562 22.910156 25.324219 23.074219 C 20.316406 23.652344 15.308594 24.21875 10.304688 24.808594 C 10.273438 21.8125 10.300781 18.8125 10.289062 15.8125 C 15.1875 14.960938 20.085938 14.109375 24.980469 13.261719 Z M 24.980469 13.261719 "/>
    <path style=" stroke:none;fill-rule:nonzero;fill:rgb(100%,100%,100%);fill-opacity:1;" d="M 63.347656 24.605469 C 66.042969 24.773438 68.742188 24.941406 71.433594 25.113281 C 71.449219 28.628906 71.410156 32.148438 71.457031 35.664062 C 74.371094 35.695312 77.289062 35.773438 80.203125 35.8125 C 80.203125 38.714844 80.207031 41.609375 80.203125 44.507812 C 77.285156 44.558594 74.371094 44.625 71.457031 44.660156 C 71.410156 48.1875 71.449219 51.714844 71.433594 55.238281 C 68.742188 55.417969 66.042969 55.601562 63.347656 55.78125 C 63.347656 52.132812 63.347656 48.480469 63.347656 44.832031 C 59.976562 44.894531 56.601562 44.949219 53.226562 45.019531 C 53.222656 41.78125 53.21875 38.546875 53.226562 35.308594 C 56.601562 35.371094 59.976562 35.4375 63.347656 35.492188 C 63.347656 31.863281 63.347656 28.234375 63.347656 24.605469 Z M 63.347656 24.605469 "/>
  </g>
</svg>