<?xml version="1.0" encoding="UTF-8" standalone="no"?>
<svg
   xmlns:dc="http://purl.org/dc/elements/1.1/"
   xmlns:cc="http://creativecommons.org/ns#"
   xmlns:rdf="http://www.w3.org/1999/02/22-rdf-syntax-ns#"
   xmlns:svg="http://www.w3.org/2000/svg"
   xmlns="http://www.w3.org/2000/svg"
   xmlns:xlink="http://www.w3.org/1999/xlink"
   version="1.1"
   width="222.55557"
   height="201.09097"
   viewBox="-5.7278589 -5.7278589 58.674647 52.991752">
  <defs>
    <linearGradient
       id="bg1">
      <stop
         style="stop-color:#b4f25c;stop-opacity:1"
         offset="0" />
      <stop
         style="stop-color:#7da840;stop-opacity:1"
         offset="1" />
    </linearGradient>
    <linearGradient
       x1="54.22102"
       y1="-4.5652776"
       x2="54.22102"
       y2="45.82753"
       id="bg2"
       xlink:href="#bg1"
       gradientUnits="userSpaceOnUse"
       gradientTransform="translate(4.9321268e-8,0.03376866)" />
  </defs>
  <path
     d="m 18.134273,-4.4213294 c -1.909266,0.01 -3.62072,0.24846 -4.873249,0.70089 l 2.976723,24.4899304 -2.976723,24.48169 c 2.004044,0.72389 5.176607,0.91135 8.468404,0.47001 7.715768,-1.03449 15.352294,-2.28905 22.972711,-3.54569 5.260198,-0.86742 6.926445,-6.26432 6.926445,-9.20227 l 0,-24.4157204 c 0,-2.93795 -1.666247,-8.33485008 -6.926445,-9.20228008 C 37.081722,-1.9013994 29.445196,-3.1477194 21.729428,-4.1821994 c -1.234424,-0.16551 -2.449597,-0.24504 -3.595155,-0.23913 z"
     style="fill:url(#bg2);fill-opacity:1;stroke:none" />
  <path
     d="m 16.724247,-4.3141394 c -0.974861,-0.006 -1.788783,0.13991 -2.622154,0.31335 -4.1948608,0.87301 -8.5206387,1.95174 -12.8056782,3.00969996 C -3.7836724,0.26317052 -4.4096568,8.8995006 -4.4096568,10.206661 l 0,21.10917 c 0,1.30716 0.6259844,9.95174 5.7060716,11.206 4.2850395,1.05796 8.5307974,2.13669 12.8056782,3.0097 0.834015,0.17032 1.647293,0.3115 2.622154,0.3051 2.494101,-0.0164 3.967885,-0.6263 5.582385,-2.27584 1.921085,-1.96276 2.622154,-5.29358 2.622154,-8.32822 l 0,-28.9344004 c 0,-3.03464 -0.701069,-6.36546008 -2.622154,-8.32823 -1.6145,-1.64953 -3.088284,-2.26768 -5.582385,-2.28408 z"
     style="fill:#00a232;fill-opacity:1;stroke:none" />
  <path
     d="m 36.596546,10.487021 0,7.27277 -6.794511,-0.12369 0,6.48117 6.794511,-0.12368 0,7.31399 5.425718,-0.36281 0,-7.05838 5.887479,-0.10719 0,-5.80502 -5.887479,-0.1072 0,-7.04189 -5.425718,-0.33807 z"
     style="fill:#ffffff;stroke:none" />
  <path
     d="M 17.313797,2.0484106 8.8594312,3.3723306 0.43332586,21.257151 c -1.2357375,2.6233 -2.11771076,10.05569 3.99783484,10.63915 l 6.6130573,0.63044 0,6.15436 6.269579,0.86304 0,-6.41957 3.391312,0.32391 0,-8.10871 -3.391312,-0.11305 0,-23.1783104 z m -6.269579,9.6043704 0,13.36742 -4.2565308,-0.1413 c -1.5903509,-0.0526 -1.6605354,-1.26155 -1.2673937,-2.05653 l 5.5239245,-11.16959 z"
     style="fill:#ffffff;stroke:none" />
</svg>
