<?xml version="1.0" encoding="UTF-8" ?>
<!DOCTYPE svg PUBLIC "-//W3C//DTD SVG 1.1//EN" "http://www.w3.org/Graphics/SVG/1.1/DTD/svg11.dtd">
<svg width="291pt" height="265pt" viewBox="0 0 291 265" version="1.1" xmlns="http://www.w3.org/2000/svg">
<g id="#ffffffff">
<path fill="#ffffff" opacity="1.00" d=" M 27.68 46.75 C 58.20 41.45 88.70 36.01 119.21 30.62 C 120.87 30.37 122.55 30.24 124.23 30.10 C 124.19 42.46 124.24 54.81 124.21 67.17 C 101.66 69.76 79.14 72.66 56.63 75.60 C 56.67 82.06 56.67 88.53 56.62 95.00 C 56.67 98.52 56.71 102.28 58.54 105.40 C 60.07 107.93 63.34 108.14 65.98 108.35 C 73.99 108.59 82.00 108.25 90.00 108.43 C 102.24 109.30 113.68 116.75 119.69 127.42 C 127.16 140.46 127.92 156.08 126.80 170.72 C 125.57 185.82 122.01 201.86 111.04 213.03 C 102.54 221.65 90.07 226.20 78.00 224.66 C 62.65 222.48 47.34 219.93 31.99 217.72 C 30.46 217.53 28.98 217.13 27.52 216.67 C 27.82 206.25 27.60 195.82 27.64 185.39 C 30.32 185.50 33.01 185.61 35.68 185.98 C 49.77 187.72 63.92 189.10 78.04 190.69 C 83.54 191.50 88.78 188.14 91.50 183.51 C 95.18 177.38 96.22 170.03 96.27 162.99 C 96.27 155.99 93.10 148.65 86.73 145.24 C 79.20 140.87 70.24 143.08 62.01 142.56 C 53.08 143.19 43.36 141.57 36.59 135.28 C 30.67 129.12 27.51 120.49 27.59 111.98 C 27.67 90.24 27.60 68.49 27.68 46.75 Z" />
<path fill="#ffffff" opacity="1.00" d=" M 211.16 77.33 C 220.49 78.46 229.89 78.40 239.22 79.48 C 239.21 91.79 239.27 104.10 239.19 116.41 C 249.25 116.47 259.30 116.61 269.36 116.78 C 269.54 127.05 269.35 137.33 269.47 147.60 C 259.66 148.71 249.77 148.28 239.93 148.60 L 239.15 148.61 C 239.30 160.94 239.22 173.28 239.19 185.61 C 233.77 185.53 228.42 186.66 222.99 186.63 C 219.06 186.60 215.15 187.06 211.27 187.63 C 210.63 174.89 211.45 162.09 211.20 149.32 L 210.01 149.31 C 198.72 149.36 187.43 149.67 176.14 149.59 C 176.20 138.17 176.18 126.74 176.15 115.32 C 187.79 115.45 199.43 115.38 211.06 115.72 C 211.15 102.93 211.13 90.11 211.16 77.33 Z" />
</g>
<g id="#fff631ff">
<path fill="#fff631" opacity="1.00" d=" M 98.85 0.00 L 128.55 0.00 C 138.05 0.78 147.46 2.34 156.90 3.62 C 190.42 8.64 223.87 14.16 257.22 20.18 C 256.19 20.63 255.17 21.08 254.14 21.53 C 261.34 23.10 268.88 26.35 272.99 32.78 C 239.35 33.07 205.70 32.81 172.05 32.90 C 165.25 32.99 158.43 32.54 151.65 33.26 C 151.36 33.86 150.78 35.07 150.49 35.67 C 149.95 34.76 149.40 33.84 148.89 32.91 C 145.64 20.76 138.20 9.21 126.76 3.39 C 118.48 -0.79 108.97 0.14 100.05 0.87 L 98.85 0.00 Z" />
</g>
<g id="#fcc900ff">
<path fill="#fcc900" opacity="1.00" d=" M 90.98 2.29 C 93.96 1.60 97.00 1.16 100.05 0.87 C 108.97 0.14 118.48 -0.79 126.76 3.39 C 138.20 9.21 145.64 20.76 148.89 32.91 C 149.83 38.99 151.09 45.05 151.27 51.21 C 151.33 53.38 151.32 55.55 151.34 57.72 C 151.12 87.01 151.23 116.32 151.39 145.62 C 150.50 155.38 151.19 165.20 151.01 174.99 C 151.06 181.48 151.78 188.00 150.77 194.46 C 149.69 190.02 149.78 185.44 149.70 180.91 C 149.30 182.89 148.90 184.88 148.52 186.87 C 141.39 187.20 134.24 187.25 127.11 186.87 C 127.68 181.49 128.88 175.95 126.80 170.72 C 127.92 156.08 127.16 140.46 119.69 127.42 C 113.68 116.75 102.24 109.30 90.00 108.43 C 82.00 108.25 73.99 108.59 65.98 108.35 C 63.34 108.14 60.07 107.93 58.54 105.40 C 56.71 102.28 56.67 98.52 56.62 95.00 C 56.67 88.53 56.67 82.06 56.63 75.60 C 79.14 72.66 101.66 69.76 124.21 67.17 C 124.24 54.81 124.19 42.46 124.23 30.10 C 122.55 30.24 120.87 30.37 119.21 30.62 C 88.70 36.01 58.20 41.45 27.68 46.75 C 27.60 68.49 27.67 90.24 27.59 111.98 C 27.51 120.49 30.67 129.12 36.59 135.28 C 43.36 141.57 53.08 143.19 62.01 142.56 C 70.24 143.08 79.20 140.87 86.73 145.24 C 93.10 148.65 96.27 155.99 96.27 162.99 C 96.22 170.03 95.18 177.38 91.50 183.51 C 88.78 188.14 83.54 191.50 78.04 190.69 C 63.92 189.10 49.77 187.72 35.68 185.98 C 35.50 185.68 35.14 185.10 34.96 184.80 C 32.14 184.57 29.01 184.11 26.42 185.47 C 24.65 187.78 25.13 191.06 24.59 193.81 C 17.14 194.08 9.66 194.09 2.22 193.61 C 1.93 196.54 1.61 199.46 1.34 202.40 C 0.83 198.42 0.32 194.44 0.00 190.43 L 0.00 74.66 C 1.79 67.81 1.71 60.66 2.92 53.70 C 5.90 42.00 10.62 29.94 20.01 21.89 C 25.04 17.46 31.93 16.81 38.12 15.04 C 55.68 10.55 73.28 6.22 90.98 2.29 Z" />
</g>
<g id="#ffef1fff">
<path fill="#ffef1f" opacity="1.00" d=" M 257.22 20.18 C 267.65 22.88 276.12 30.73 281.10 40.10 C 280.08 42.68 281.29 45.28 281.89 47.79 C 275.94 48.30 269.98 47.94 264.02 48.03 C 228.33 48.00 192.63 48.02 156.94 47.99 C 154.38 47.52 152.79 49.54 151.27 51.21 C 151.09 45.05 149.83 38.99 148.89 32.91 C 149.40 33.84 149.95 34.76 150.49 35.67 C 150.78 35.07 151.36 33.86 151.65 33.26 C 158.43 32.54 165.25 32.99 172.05 32.90 C 205.70 32.81 239.35 33.07 272.99 32.78 C 268.88 26.35 261.34 23.10 254.14 21.53 C 255.17 21.08 256.19 20.63 257.22 20.18 Z" />
</g>
<g id="#ffec11ff">
<path fill="#ffec11" opacity="1.00" d=" M 281.89 47.79 C 281.29 45.28 280.08 42.68 281.10 40.10 C 283.95 45.22 286.00 50.77 287.19 56.51 C 286.04 59.31 285.78 62.33 285.89 65.33 C 281.50 63.43 276.66 64.24 272.04 64.14 C 238.03 64.11 204.02 64.20 170.02 64.15 C 164.19 64.03 158.35 64.42 152.54 63.96 C 152.11 61.88 151.66 59.81 151.34 57.72 C 151.32 55.55 151.33 53.38 151.27 51.21 C 152.79 49.54 154.38 47.52 156.94 47.99 C 192.63 48.02 228.33 48.00 264.02 48.03 C 269.98 47.94 275.94 48.30 281.89 47.79 Z" />
</g>
<g id="#fcd754ff">
<path fill="#fcd754" opacity="1.00" d=" M 0.00 67.03 C 1.54 62.72 1.38 58.03 2.92 53.70 C 1.71 60.66 1.79 67.81 0.00 74.66 L 0.00 67.03 Z" />
</g>
<g id="#ffe700ff">
<path fill="#ffe700" opacity="1.00" d=" M 287.19 56.51 C 288.36 61.58 288.88 66.79 288.78 71.99 C 288.66 114.09 289.01 156.19 288.61 198.29 C 286.92 185.22 288.59 171.99 287.50 158.88 C 286.87 163.51 287.01 168.20 286.80 172.86 C 271.65 173.28 256.48 173.02 241.34 172.83 C 239.88 164.83 240.23 156.69 239.93 148.60 C 249.77 148.28 259.66 148.71 269.47 147.60 C 269.35 137.33 269.54 127.05 269.36 116.78 C 259.30 116.61 249.25 116.47 239.19 116.41 C 239.27 104.10 239.21 91.79 239.22 79.48 C 229.89 78.40 220.49 78.46 211.16 77.33 C 211.13 90.11 211.15 102.93 211.06 115.72 C 199.43 115.38 187.79 115.45 176.15 115.32 C 176.18 126.74 176.20 138.17 176.14 149.59 C 187.43 149.67 198.72 149.36 210.01 149.31 C 209.95 157.15 208.97 164.94 208.77 172.78 C 195.86 173.43 182.93 172.79 170.02 173.06 C 164.61 173.12 159.14 172.55 153.79 173.58 C 172.12 174.63 190.54 173.35 208.89 174.21 C 208.86 174.86 208.82 176.14 208.80 176.78 C 190.40 177.40 171.98 176.67 153.58 177.15 C 153.67 179.00 153.59 180.87 153.03 182.65 C 151.47 177.59 152.48 172.23 152.22 167.03 C 151.91 159.90 152.86 152.67 151.39 145.62 C 151.23 116.32 151.12 87.01 151.34 57.72 C 151.66 59.81 152.11 61.88 152.54 63.96 C 158.35 64.42 164.19 64.03 170.02 64.15 C 204.02 64.20 238.03 64.11 272.04 64.14 C 276.66 64.24 281.50 63.43 285.89 65.33 C 285.78 62.33 286.04 59.31 287.19 56.51 Z" />
</g>
<g id="#ffdb00ff">
<path fill="#ffdb00" opacity="1.00" d=" M 151.39 145.62 C 152.86 152.67 151.91 159.90 152.22 167.03 C 152.48 172.23 151.47 177.59 153.03 182.65 C 153.59 180.87 153.67 179.00 153.58 177.15 C 171.98 176.67 190.40 177.40 208.80 176.78 C 208.82 176.14 208.86 174.86 208.89 174.21 C 190.54 173.35 172.12 174.63 153.79 173.58 C 159.14 172.55 164.61 173.12 170.02 173.06 C 182.93 172.79 195.86 173.43 208.77 172.78 C 208.97 164.94 209.95 157.15 210.01 149.31 L 211.20 149.32 C 211.45 162.09 210.63 174.89 211.27 187.63 C 215.15 187.06 219.06 186.60 222.99 186.63 C 228.42 186.66 233.77 185.53 239.19 185.61 C 239.22 173.28 239.30 160.94 239.15 148.61 L 239.93 148.60 C 240.23 156.69 239.88 164.83 241.34 172.83 C 256.48 173.02 271.65 173.28 286.80 172.86 C 287.01 168.20 286.87 163.51 287.50 158.88 C 288.59 171.99 286.92 185.22 288.61 198.29 C 287.90 207.93 285.05 217.48 280.07 225.79 C 276.67 224.90 276.26 230.14 273.02 229.89 C 236.00 230.04 198.96 229.83 161.94 229.94 C 157.94 229.93 153.71 229.41 150.04 231.35 C 149.92 230.17 149.81 228.98 149.72 227.80 C 151.70 216.81 151.35 205.56 150.77 194.46 C 151.78 188.00 151.06 181.48 151.01 174.99 C 151.19 165.20 150.50 155.38 151.39 145.62 Z" />
</g>
<g id="#fdb900ff">
<path fill="#fdb900" opacity="1.00" d=" M 111.04 213.03 C 122.01 201.86 125.57 185.82 126.80 170.72 C 128.88 175.95 127.68 181.49 127.11 186.87 C 134.24 187.25 141.39 187.20 148.52 186.87 C 148.90 184.88 149.30 182.89 149.70 180.91 C 149.78 185.44 149.69 190.02 150.77 194.46 C 151.35 205.56 151.70 216.81 149.72 227.80 C 148.08 233.47 146.79 239.37 143.64 244.45 C 140.88 245.65 138.10 247.17 134.99 246.94 C 106.99 246.78 78.98 246.96 50.98 246.84 C 46.66 246.75 42.31 247.74 38.03 246.84 C 33.50 245.95 28.95 245.00 24.65 243.26 C 23.26 242.60 21.73 242.55 20.22 242.70 C 8.58 232.69 3.69 217.09 1.34 202.40 C 1.61 199.46 1.93 196.54 2.22 193.61 C 9.66 194.09 17.14 194.08 24.59 193.81 C 25.13 191.06 24.65 187.78 26.42 185.47 C 29.01 184.11 32.14 184.57 34.96 184.80 C 35.14 185.10 35.50 185.68 35.68 185.98 C 33.01 185.61 30.32 185.50 27.64 185.39 C 27.60 195.82 27.82 206.25 27.52 216.67 C 28.98 217.13 30.46 217.53 31.99 217.72 C 47.34 219.93 62.65 222.48 78.00 224.66 C 90.07 226.20 102.54 221.65 111.04 213.03 Z" />
</g>
<g id="#ffcc00ff">
<path fill="#ffcc00" opacity="1.00" d=" M 273.02 229.89 C 276.26 230.14 276.67 224.90 280.07 225.79 C 274.50 235.21 265.15 242.91 254.11 244.52 C 218.13 250.31 182.30 256.97 146.23 262.15 C 137.79 262.74 129.35 263.54 120.96 264.56 C 123.56 262.90 126.31 261.53 129.02 260.10 C 135.31 256.47 140.08 250.70 143.64 244.45 C 146.79 239.37 148.08 233.47 149.72 227.80 C 149.81 228.98 149.92 230.17 150.04 231.35 C 153.71 229.41 157.94 229.93 161.94 229.94 C 198.96 229.83 236.00 230.04 273.02 229.89 Z" />
</g>
<g id="#fead00ff">
<path fill="#fead00" opacity="1.00" d=" M 20.22 242.70 C 21.73 242.55 23.26 242.60 24.65 243.26 C 28.95 245.00 33.50 245.95 38.03 246.84 C 42.31 247.74 46.66 246.75 50.98 246.84 C 78.98 246.96 106.99 246.78 134.99 246.94 C 138.10 247.17 140.88 245.65 143.64 244.45 C 140.08 250.70 135.31 256.47 129.02 260.10 C 126.31 261.53 123.56 262.90 120.96 264.56 L 119.92 265.00 L 110.48 265.00 C 104.40 264.61 98.35 263.80 92.41 262.44 C 71.33 257.88 50.43 252.51 29.52 247.20 C 26.13 246.41 22.93 244.90 20.22 242.70 Z" />
</g>
<g id="#ffd55fff">
<path fill="#ffd55f" opacity="1.00" d=" M 120.96 264.56 C 129.35 263.54 137.79 262.74 146.23 262.15 C 139.84 263.58 133.24 263.51 126.88 265.00 L 119.92 265.00 L 120.96 264.56 Z" />
</g>
</svg>
