<?xml version="1.0" encoding="UTF-8" ?>
<!DOCTYPE svg PUBLIC "-//W3C//DTD SVG 1.1//EN" "http://www.w3.org/Graphics/SVG/1.1/DTD/svg11.dtd">
<svg width="1000pt" height="1000pt" viewBox="0 0 1000 1000" version="1.1" xmlns="http://www.w3.org/2000/svg">
<g id="#3d6bb0ff">
<path fill="#3d6bb0" opacity="1.00" d=" M 0.00 0.00 L 1000.00 0.00 L 1000.00 1000.00 L 0.00 1000.00 L 0.00 0.00 M 606.17 129.99 C 587.87 135.73 570.02 142.81 552.55 150.71 C 478.86 184.36 411.29 232.83 359.12 295.09 C 327.88 332.41 302.58 374.78 285.24 420.28 C 270.09 459.86 260.88 501.63 257.30 543.83 C 253.47 590.30 255.07 637.64 266.73 682.97 C 276.32 720.49 292.74 756.62 317.14 786.86 C 337.21 811.86 362.78 832.44 391.61 846.50 C 428.52 864.62 470.08 872.02 511.01 871.22 C 542.80 870.73 574.44 863.45 603.40 850.35 C 655.43 826.91 698.54 784.34 722.53 732.55 C 737.44 700.62 745.14 665.30 744.50 630.04 C 744.39 590.97 736.52 551.46 718.54 516.57 C 703.60 487.45 681.48 461.99 654.47 443.47 C 621.87 420.94 582.62 408.28 543.03 407.19 C 528.62 406.63 514.21 408.47 500.02 410.83 C 479.14 414.53 458.44 419.78 438.77 427.77 C 443.04 406.86 452.27 387.11 464.76 369.86 C 482.50 345.38 506.07 325.68 531.45 309.51 C 565.80 287.73 603.58 271.89 642.15 259.29 C 649.57 256.88 657.54 254.88 663.40 249.41 C 667.65 245.59 669.83 239.68 669.12 234.01 C 668.42 227.64 665.43 221.85 663.35 215.87 C 654.58 192.58 645.83 169.28 637.03 146.00 C 634.90 140.35 631.33 135.08 626.15 131.82 C 620.24 128.10 612.70 128.02 606.17 129.99 Z" />
<path fill="#3d6bb0" opacity="1.00" d=" M 491.55 527.76 C 513.16 524.91 535.62 529.57 554.33 540.75 C 582.83 557.51 602.11 588.90 603.78 621.98 C 605.91 653.93 590.94 686.09 565.86 705.81 C 551.89 716.97 534.88 724.38 517.13 726.68 C 495.21 729.76 472.35 724.86 453.42 713.44 C 423.90 695.91 404.18 662.57 404.40 628.08 C 403.99 595.39 420.97 563.29 447.81 544.76 C 460.75 535.70 475.88 529.77 491.55 527.76 Z" />
</g>
<g id="#e5e5e5ff">
<path fill="#e5e5e5" opacity="1.00" d=" M 606.17 129.99 C 612.70 128.02 620.24 128.10 626.15 131.82 C 631.33 135.08 634.90 140.35 637.03 146.00 C 645.83 169.28 654.58 192.58 663.35 215.87 C 665.43 221.85 668.42 227.64 669.12 234.01 C 669.83 239.68 667.65 245.59 663.40 249.41 C 657.54 254.88 649.57 256.88 642.15 259.29 C 603.58 271.89 565.80 287.73 531.45 309.51 C 506.07 325.68 482.50 345.38 464.76 369.86 C 452.27 387.11 443.04 406.86 438.77 427.77 C 458.44 419.78 479.14 414.53 500.02 410.83 C 514.21 408.47 528.62 406.63 543.03 407.19 C 582.62 408.28 621.87 420.94 654.47 443.47 C 681.48 461.99 703.60 487.45 718.54 516.57 C 736.52 551.46 744.39 590.97 744.50 630.04 C 745.14 665.30 737.44 700.62 722.53 732.55 C 698.54 784.34 655.43 826.91 603.40 850.35 C 574.44 863.45 542.80 870.73 511.01 871.22 C 470.08 872.02 428.52 864.62 391.61 846.50 C 362.78 832.44 337.21 811.86 317.14 786.86 C 292.74 756.62 276.32 720.49 266.73 682.97 C 255.07 637.64 253.47 590.30 257.30 543.83 C 260.88 501.63 270.09 459.86 285.24 420.28 C 302.58 374.78 327.88 332.41 359.12 295.09 C 411.29 232.83 478.86 184.36 552.55 150.71 C 570.02 142.81 587.87 135.73 606.17 129.99 M 491.55 527.76 C 475.88 529.77 460.75 535.70 447.81 544.76 C 420.97 563.29 403.99 595.39 404.40 628.08 C 404.18 662.57 423.90 695.91 453.42 713.44 C 472.35 724.86 495.21 729.76 517.13 726.68 C 534.88 724.38 551.89 716.97 565.86 705.81 C 590.94 686.09 605.91 653.93 603.78 621.98 C 602.11 588.90 582.83 557.51 554.33 540.75 C 535.62 529.57 513.16 524.91 491.55 527.76 Z" />
</g>
</svg>
