<?xml version="1.0" encoding="UTF-8" standalone="yes"?>
<svg xmlns="http://www.w3.org/2000/svg" xmlns:xlink="http://www.w3.org/1999/xlink" width="126.66666666666666px" height="106.66666666666666px" viewBox="0 0 95 80" version="1.1">
  <defs>
    <linearGradient id="linear0" gradientUnits="userSpaceOnUse" x1="0" y1="0" x2="1" y2="0" gradientTransform="matrix(0,33.534621,-33.371139,0,79.985266,40.674569)">
      <stop offset="0" style="stop-color:rgb(98.431373%,78.039216%,2.745098%);stop-opacity:1;"/>
      <stop offset="1" style="stop-color:rgb(92.941176%,10.980392%,14.117647%);stop-opacity:1;"/>
    </linearGradient>
    <linearGradient id="linear1" gradientUnits="userSpaceOnUse" x1="0" y1="0" x2="1" y2="0" gradientTransform="matrix(0,-32.829214,32.669171,0,46.859421,32.877163)">
      <stop offset="0" style="stop-color:rgb(18.039216%,19.215686%,57.254902%);stop-opacity:1;"/>
      <stop offset="1" style="stop-color:rgb(3.529412%,58.039216%,86.27451%);stop-opacity:1;"/>
    </linearGradient>
    <linearGradient id="linear2" gradientUnits="userSpaceOnUse" x1="0" y1="0" x2="1" y2="0" gradientTransform="matrix(0,42.207894,-42.00213,0,49.181161,37.705345)">
      <stop offset="0" style="stop-color:rgb(18.039216%,19.215686%,57.254902%);stop-opacity:1;"/>
      <stop offset="1" style="stop-color:rgb(3.529412%,58.039216%,86.27451%);stop-opacity:1;"/>
    </linearGradient>
    <linearGradient id="linear3" gradientUnits="userSpaceOnUse" x1="0" y1="0" x2="1" y2="0" gradientTransform="matrix(0,29.961598,-29.815535,0,17.354579,41.837765)">
      <stop offset="0" style="stop-color:rgb(69.803922%,85.882353%,9.411765%);stop-opacity:1;"/>
      <stop offset="1" style="stop-color:rgb(0%,59.215686%,28.235294%);stop-opacity:1;"/>
    </linearGradient>
  </defs>
  <g id="surface1">
    <path style=" stroke:none;fill-rule:evenodd;fill:url(#linear0);" d="M 94.625 67.355469 C 94.503906 67.042969 94.390625 66.703125 94.054688 66.371094 C 93.722656 66.058594 93.183594 65.722656 91.941406 65.714844 C 91.53125 65.714844 91.042969 65.757812 90.472656 65.855469 C 88.757812 66.15625 86.667969 66.714844 84.492188 66.71875 C 82.9375 66.71875 81.304688 66.417969 79.8125 65.472656 C 78.320312 64.53125 77.015625 62.96875 76.019531 60.636719 C 75.300781 58.96875 74.980469 57.460938 74.980469 56.101562 C 74.972656 54.179688 75.648438 52.582031 76.628906 51.363281 C 77.609375 50.144531 78.871094 49.28125 80.101562 48.65625 C 82.570312 47.40625 84.949219 47.089844 85.027344 47.074219 C 85.027344 47.074219 86.023438 46.878906 86.546875 46.582031 C 87.304688 46.152344 87.875 45.636719 87.890625 44.535156 C 87.890625 44.195312 87.828125 43.789062 87.671875 43.296875 C 87.511719 42.8125 87.246094 42.207031 86.578125 41.683594 C 85.90625 41.164062 84.773438 40.675781 82.722656 40.675781 C 82.488281 40.675781 82.242188 40.679688 81.988281 40.695312 C 79.652344 40.8125 75.75 41.839844 72.332031 43.886719 C 68.890625 45.941406 65.964844 48.949219 65.160156 53.011719 C 65.144531 53.101562 65.082031 53.371094 65.019531 53.789062 C 66.445312 54.910156 67.722656 56.355469 68.671875 58.214844 C 68.785156 58.441406 69.304688 59.351562 69.761719 60.664062 C 70.222656 61.988281 70.648438 63.761719 70.648438 65.851562 C 70.652344 67.027344 70.515625 68.296875 70.175781 69.636719 C 70.417969 69.871094 70.671875 70.109375 70.9375 70.339844 C 71.429688 70.78125 75.96875 74.222656 82.886719 74.210938 C 84.515625 74.210938 86.277344 74.023438 88.164062 73.570312 C 88.652344 73.449219 89.757812 73.222656 90.972656 72.773438 C 92.183594 72.332031 93.457031 71.660156 94.1875 70.8125 C 94.675781 70.246094 94.949219 69.652344 94.953125 68.878906 C 94.953125 68.449219 94.859375 67.945312 94.625 67.355469 "/>
    <path style=" stroke:none;fill-rule:nonzero;fill:url(#linear1);" d="M 13.234375 32.878906 L 80.484375 32.878906 L 80.484375 0.046875 L 13.234375 0.046875 Z M 13.234375 32.878906 "/>
    <path style=" stroke:none;fill-rule:evenodd;fill:rgb(100%,100%,100%);fill-opacity:1;" d="M 22.042969 5.289062 L 71.675781 5.289062 L 71.675781 27.144531 L 22.042969 27.144531 Z M 23.144531 6.273438 L 38.222656 6.273438 L 38.222656 26.160156 L 23.144531 26.160156 Z M 35.910156 12.171875 L 35.910156 9.550781 L 25.457031 9.550781 L 25.457031 12.171875 L 29.234375 12.171875 L 29.234375 23.097656 L 32.132812 23.097656 L 32.132812 12.171875 Z M 46.859375 23.507812 L 40.617188 9.386719 L 43.648438 9.386719 L 46.75 16.527344 L 46.859375 16.953125 L 46.96875 16.519531 L 50.070312 9.386719 L 53.101562 9.386719 Z M 61.488281 12.167969 L 62.46875 12.167969 C 64.03125 12.195312 64.808594 12.722656 64.921875 14.285156 C 64.824219 15.902344 63.910156 16.414062 62.339844 16.441406 L 61.488281 16.441406 Z M 58.757812 9.546875 L 58.757812 23.097656 L 61.492188 23.097656 L 61.492188 18.960938 L 62.082031 18.980469 C 65.757812 18.980469 67.5625 16.582031 67.5625 14.207031 C 67.5625 11.867188 65.8125 9.546875 62.332031 9.546875 Z M 55.5 6.273438 L 70.578125 6.273438 L 70.578125 26.160156 L 55.5 26.160156 Z M 39.320312 6.273438 L 54.398438 6.273438 L 54.398438 26.160156 L 39.320312 26.160156 Z M 39.320312 6.273438 "/>
    <path style=" stroke:none;fill-rule:evenodd;fill:url(#linear2);" d="M 57.679688 66.828125 C 56.925781 70.78125 53.484375 73.53125 49.621094 73.53125 C 49.109375 73.53125 48.589844 73.484375 48.070312 73.386719 C 44.136719 72.625 41.398438 69.171875 41.398438 65.285156 C 41.398438 64.773438 41.445312 64.25 41.546875 63.726562 C 42.300781 59.773438 45.738281 57.023438 49.605469 57.023438 C 50.117188 57.023438 50.636719 57.070312 51.15625 57.171875 C 55.089844 57.929688 57.828125 61.386719 57.828125 65.269531 C 57.828125 65.785156 57.777344 66.304688 57.679688 66.828125 Z M 67.902344 61.320312 C 67.488281 60.148438 67.074219 59.421875 66.921875 59.121094 C 65.367188 56.097656 62.855469 54.363281 60.179688 53.34375 C 57.503906 52.332031 54.695312 52.140625 52.769531 52.089844 C 51.136719 52.046875 49.230469 52.464844 48.691406 52.464844 C 47.191406 52.492188 46.011719 51.773438 45.4375 50.804688 C 44.851562 49.851562 44.734375 48.789062 44.730469 47.886719 C 44.730469 46.792969 44.929688 45.90625 44.976562 45.714844 C 45 45.59375 45.164062 44.75 45.335938 43.851562 C 45.523438 42.890625 45.722656 41.832031 45.75 41.652344 C 45.773438 41.492188 45.785156 41.339844 45.785156 41.199219 C 45.78125 40.101562 45.128906 39.429688 44.125 38.859375 C 43.148438 38.324219 42.050781 38.117188 41.5 38.011719 C 40.925781 37.898438 39.632812 37.707031 39.03125 37.707031 C 37.304688 37.722656 36.617188 38.269531 36.207031 38.773438 C 35.800781 39.28125 35.726562 39.886719 35.722656 39.953125 L 35.71875 40.019531 L 35.707031 40.09375 C 35.707031 40.09375 34.914062 44.242188 33.902344 49.5625 C 33.917969 49.625 33.9375 49.683594 33.953125 49.746094 L 33.960938 49.78125 L 36.390625 63.546875 C 36.441406 63.726562 36.5625 64.222656 36.5625 64.894531 C 36.566406 65.742188 36.359375 66.917969 35.484375 67.953125 C 34.609375 68.992188 33.136719 69.785156 30.894531 70.066406 C 30.773438 70.082031 30.441406 70.117188 29.984375 70.148438 C 29.902344 70.566406 29.832031 70.933594 29.773438 71.242188 C 29.710938 71.578125 29.683594 71.878906 29.683594 72.152344 C 29.707031 73.542969 30.316406 74.292969 31.445312 74.929688 C 32.570312 75.535156 34.199219 75.8125 35.730469 75.808594 C 36.660156 75.808594 37.554688 75.714844 38.273438 75.5625 C 38.96875 75.414062 39.613281 75.351562 40.210938 75.351562 C 40.214844 75.351562 40.214844 75.351562 40.21875 75.351562 C 41.652344 75.351562 42.792969 75.726562 43.621094 76.148438 C 44.441406 76.558594 49.1875 79.789062 54.652344 79.910156 C 57.328125 79.96875 60.765625 79.53125 64.011719 76.636719 C 67.945312 72.832031 68.671875 68.855469 68.679688 65.851562 C 68.679688 64.035156 68.308594 62.480469 67.902344 61.320312 "/>
    <path style=" stroke:none;fill-rule:evenodd;fill:url(#linear3);" d="M 18.195312 65.398438 C 16.980469 65.863281 15.910156 66.058594 14.976562 66.058594 C 14.972656 66.058594 14.964844 66.058594 14.960938 66.058594 C 13.570312 66.058594 12.492188 65.597656 11.769531 65.015625 C 11.039062 64.417969 10.660156 63.78125 10.503906 63.210938 C 10.429688 62.917969 10.394531 62.628906 10.394531 62.347656 C 10.394531 61.417969 10.785156 60.621094 11.285156 60.015625 C 11.789062 59.40625 12.40625 58.949219 13.003906 58.585938 C 14.199219 57.871094 15.332031 57.539062 15.363281 57.527344 C 15.410156 57.515625 16.78125 57.082031 18.347656 57.074219 C 19 57.078125 19.691406 57.148438 20.359375 57.40625 C 21.023438 57.660156 21.683594 58.140625 22.074219 58.886719 C 22.304688 59.324219 22.414062 59.804688 22.414062 60.257812 C 22.382812 61.738281 21.460938 62.851562 20.578125 63.71875 C 19.65625 64.585938 18.777344 65.160156 18.195312 65.398438 Z M 12.023438 71.789062 C 15.773438 71.820312 19.679688 69.332031 20.421875 68.738281 C 21.519531 67.890625 22.769531 67.632812 23.839844 67.636719 C 24.945312 67.636719 25.90625 67.890625 26.53125 68.0625 C 27.082031 68.21875 27.921875 68.28125 28.679688 68.28125 C 29.648438 68.28125 30.515625 68.1875 30.660156 68.171875 C 32.589844 67.921875 33.53125 67.308594 34.035156 66.71875 C 34.535156 66.125 34.660156 65.457031 34.660156 64.894531 C 34.660156 64.503906 34.539062 63.996094 34.539062 63.996094 L 32.097656 50.175781 C 31.171875 46.585938 29.136719 44.59375 26.71875 43.375 C 24.289062 42.167969 21.449219 41.835938 19.183594 41.835938 C 17.410156 41.835938 15.132812 42.183594 15.132812 42.183594 L 15.085938 42.191406 C 9.742188 42.976562 4.738281 44.449219 2.917969 46.175781 C 2.3125 46.746094 2.089844 47.222656 2.089844 47.6875 C 2.089844 47.738281 2.09375 47.78125 2.097656 47.832031 C 2.199219 48.753906 2.484375 49.117188 2.792969 49.355469 C 3.113281 49.59375 3.585938 49.703125 4.082031 49.699219 C 4.582031 49.703125 5.074219 49.589844 5.304688 49.519531 C 9.988281 48.097656 11.667969 47.847656 12.738281 47.652344 C 13.085938 47.589844 13.527344 47.5625 14.078125 47.5625 C 15.484375 47.585938 17.402344 47.707031 18.761719 48.628906 C 19.210938 48.949219 19.628906 49.445312 19.746094 50.097656 C 19.769531 50.226562 19.933594 51.351562 18.882812 52.273438 C 18.414062 52.683594 17.863281 52.964844 17.316406 53.191406 C 16.214844 53.636719 15.167969 53.84375 14.75 53.890625 C 13.496094 54.011719 9.121094 55.277344 8.203125 55.636719 C 4.347656 57.105469 2.34375 58.933594 1.273438 60.535156 C 0.207031 62.136719 0.0507812 63.558594 0.046875 64.3125 C 0.046875 64.570312 0.0664062 64.742188 0.078125 64.824219 C 0.484375 68.0625 2.53125 69.707031 4.972656 70.703125 C 7.402344 71.671875 10.117188 71.804688 11.25 71.800781 C 11.609375 71.800781 11.96875 71.789062 12.023438 71.789062 "/>
  </g>
</svg>