<?xml version="1.0" encoding="UTF-8" ?>
<!DOCTYPE svg PUBLIC "-//W3C//DTD SVG 1.1//EN" "http://www.w3.org/Graphics/SVG/1.1/DTD/svg11.dtd">
<svg width="990pt" height="700pt" viewBox="0 0 990 700" version="1.1" xmlns="http://www.w3.org/2000/svg">
<g id="#58101173">
<path fill="#581011" opacity="0.45" d=" M 517.00 191.10 C 532.36 178.99 553.10 174.48 572.19 178.50 C 571.39 180.79 570.49 183.10 568.91 184.98 C 564.54 190.28 560.40 195.77 556.04 201.08 C 554.39 202.91 553.68 205.29 553.52 207.71 C 550.54 209.63 547.75 211.82 545.00 214.05 C 538.97 218.54 533.29 223.53 528.24 229.10 C 515.34 242.38 505.30 258.38 498.53 275.58 C 492.32 262.81 489.38 248.14 491.85 234.04 C 494.22 217.17 503.61 201.55 517.00 191.10 Z" />
</g>
<g id="#59191473">
<path fill="#591914" opacity="0.45" d=" M 572.19 178.50 C 578.52 180.12 584.77 182.23 590.43 185.56 C 592.85 186.84 595.19 188.90 598.14 188.44 C 597.72 188.54 596.88 188.75 596.46 188.86 C 581.20 192.61 566.73 199.23 553.52 207.71 C 553.68 205.29 554.39 202.91 556.04 201.08 C 560.40 195.77 564.54 190.28 568.91 184.98 C 570.49 183.10 571.39 180.79 572.19 178.50 Z" />
</g>
<g id="#cb262eff">
<path fill="#cb262e" opacity="1.00" d=" M 613.63 185.59 C 651.43 180.17 691.12 191.31 720.95 215.07 C 731.18 223.22 740.66 232.55 748.04 243.37 C 745.51 241.47 743.00 239.52 740.77 237.26 C 734.54 231.04 727.20 225.99 719.39 221.97 C 716.34 220.45 713.22 219.09 710.04 217.88 C 707.11 216.79 704.14 215.83 701.11 215.06 C 697.59 214.18 694.04 213.47 690.46 212.96 C 682.61 211.80 674.58 211.86 666.82 213.56 C 662.15 214.29 657.67 215.80 653.16 217.13 C 652.56 217.14 651.34 217.14 650.74 217.15 C 650.89 216.63 651.19 215.59 651.34 215.07 C 649.09 215.53 646.85 216.28 644.54 216.19 C 642.11 215.12 640.65 212.71 638.92 210.82 C 631.29 201.62 621.67 194.38 613.63 185.59 Z" />
</g>
<g id="#ce2936ff">
<path fill="#ce2936" opacity="1.00" d=" M 598.14 188.44 C 603.18 186.91 608.42 186.25 613.63 185.59 C 621.67 194.38 631.29 201.62 638.92 210.82 C 631.83 211.04 624.97 212.91 618.02 214.08 C 615.74 210.63 613.68 207.05 611.31 203.66 C 607.24 197.91 601.75 193.42 596.46 188.86 C 596.88 188.75 597.72 188.54 598.14 188.44 Z" />
</g>
<g id="#d62631ff">
<path fill="#d62631" opacity="1.00" d=" M 553.52 207.71 C 566.73 199.23 581.20 192.61 596.46 188.86 C 601.75 193.42 607.24 197.91 611.31 203.66 C 613.68 207.05 615.74 210.63 618.02 214.08 C 624.97 212.91 631.83 211.04 638.92 210.82 C 640.65 212.71 642.11 215.12 644.54 216.19 C 646.85 216.28 649.09 215.53 651.34 215.07 C 651.19 215.59 650.89 216.63 650.74 217.15 C 651.34 217.14 652.56 217.14 653.16 217.13 C 639.93 222.02 627.81 230.01 618.38 240.52 C 613.71 232.14 608.34 223.87 600.39 218.24 C 589.47 210.29 575.35 206.61 561.98 209.01 C 556.10 209.89 550.69 212.46 545.00 214.05 C 547.75 211.82 550.54 209.63 553.52 207.71 Z" />
</g>
<g id="#e65866ff">
<path fill="#e65866" opacity="1.00" d=" M 561.98 209.01 C 575.35 206.61 589.47 210.29 600.39 218.24 C 586.99 224.88 573.14 231.65 562.88 242.84 C 563.48 242.95 564.67 243.18 565.27 243.30 C 555.15 244.87 545.23 247.94 536.25 252.90 C 530.36 255.94 525.23 260.21 519.45 263.42 C 519.10 257.37 519.56 251.24 521.26 245.41 C 522.81 239.67 526.04 234.60 528.24 229.10 C 533.29 223.53 538.97 218.54 545.00 214.05 C 550.69 212.46 556.10 209.89 561.98 209.01 Z" />
</g>
<g id="#e9575cff">
<path fill="#e9575c" opacity="1.00" d=" M 666.82 213.56 C 674.58 211.86 682.61 211.80 690.46 212.96 C 688.16 214.46 684.98 215.50 684.38 218.54 C 681.26 229.23 677.25 239.65 674.28 250.37 C 673.03 259.11 669.42 267.24 665.91 275.27 C 663.85 275.14 661.80 275.15 659.75 275.11 C 656.58 275.00 653.41 274.97 650.26 275.23 C 653.07 270.44 653.97 264.88 655.85 259.72 C 661.12 244.67 665.89 229.47 671.08 214.40 C 669.66 214.10 668.24 213.82 666.82 213.56 Z" />
</g>
<g id="#e74546ff">
<path fill="#e74546" opacity="1.00" d=" M 690.46 212.96 C 694.04 213.47 697.59 214.18 701.11 215.06 C 699.36 217.00 697.14 218.38 695.10 219.97 C 693.68 221.60 693.32 223.85 692.64 225.83 C 690.96 232.14 688.33 238.18 687.14 244.63 C 685.99 250.67 682.90 256.14 681.89 262.22 C 681.04 267.35 679.37 272.27 677.67 277.16 C 677.07 277.06 675.85 276.87 675.25 276.77 C 672.12 276.35 669.03 275.72 665.91 275.27 C 669.42 267.24 673.03 259.11 674.28 250.37 C 677.25 239.65 681.26 229.23 684.38 218.54 C 684.98 215.50 688.16 214.46 690.46 212.96 Z" />
</g>
<g id="#ec6e79ff">
<path fill="#ec6e79" opacity="1.00" d=" M 653.16 217.13 C 657.67 215.80 662.15 214.29 666.82 213.56 C 668.24 213.82 669.66 214.10 671.08 214.40 C 665.89 229.47 661.12 244.67 655.85 259.72 C 653.97 264.88 653.07 270.44 650.26 275.23 L 649.46 276.37 L 648.91 275.72 C 642.07 267.23 633.74 260.07 624.37 254.52 C 623.27 253.82 622.17 253.14 621.04 252.52 C 620.75 248.60 619.55 244.83 617.59 241.45 C 617.84 241.13 618.10 240.82 618.38 240.52 C 627.81 230.01 639.93 222.02 653.16 217.13 Z" />
</g>
<g id="#e53634ff">
<path fill="#e53634" opacity="1.00" d=" M 701.11 215.06 C 704.14 215.83 707.11 216.79 710.04 217.88 C 708.90 220.11 707.35 222.07 705.46 223.70 C 703.19 225.71 703.35 229.04 702.65 231.77 C 701.62 238.72 698.27 245.07 697.22 252.02 C 696.38 257.39 694.08 262.48 693.94 267.98 C 693.74 272.48 693.32 276.98 692.05 281.32 C 689.46 280.38 686.81 279.63 684.18 278.84 C 682.03 278.19 679.87 277.59 677.67 277.16 C 679.37 272.27 681.04 267.35 681.89 262.22 C 682.90 256.14 685.99 250.67 687.14 244.63 C 688.33 238.18 690.96 232.14 692.64 225.83 C 693.32 223.85 693.68 221.60 695.10 219.97 C 697.14 218.38 699.36 217.00 701.11 215.06 Z" />
</g>
<g id="#e84c59ff">
<path fill="#e84c59" opacity="1.00" d=" M 600.39 218.24 C 608.34 223.87 613.71 232.14 618.38 240.52 C 618.10 240.82 617.84 241.13 617.59 241.45 C 615.80 243.64 614.10 245.89 612.41 248.15 C 603.54 245.62 594.61 243.01 585.34 242.53 C 578.64 241.60 571.92 242.42 565.27 243.30 C 564.67 243.18 563.48 242.95 562.88 242.84 C 573.14 231.65 586.99 224.88 600.39 218.24 Z" />
</g>
<g id="#e3252aff">
<path fill="#e3252a" opacity="1.00" d=" M 710.04 217.88 C 713.22 219.09 716.34 220.45 719.39 221.97 C 718.75 224.28 717.82 226.51 716.28 228.37 C 713.71 231.59 712.23 235.74 712.42 239.86 C 713.30 243.56 715.21 246.97 715.58 250.80 C 715.92 254.45 717.21 257.90 718.00 261.46 C 718.05 264.14 718.14 266.83 719.18 269.35 C 720.60 272.92 717.69 276.89 719.68 280.32 C 721.37 283.42 720.97 287.09 722.05 290.39 C 722.17 293.06 720.63 295.46 719.83 297.94 C 712.58 291.82 704.48 286.82 695.82 282.97 C 694.57 282.39 693.32 281.82 692.05 281.32 C 693.32 276.98 693.74 272.48 693.94 267.98 C 694.08 262.48 696.38 257.39 697.22 252.02 C 698.27 245.07 701.62 238.72 702.65 231.77 C 703.35 229.04 703.19 225.71 705.46 223.70 C 707.35 222.07 708.90 220.11 710.04 217.88 Z" />
</g>
<g id="#e01e21ff">
<path fill="#e01e21" opacity="1.00" d=" M 719.39 221.97 C 727.20 225.99 734.54 231.04 740.77 237.26 C 743.00 239.52 745.51 241.47 748.04 243.37 C 754.90 252.16 760.41 262.11 764.52 272.45 C 764.95 279.39 767.30 286.05 767.39 293.01 C 767.77 305.11 767.04 317.92 760.96 328.69 C 760.79 318.57 760.89 308.44 760.90 298.32 C 755.18 298.31 749.47 298.29 743.76 298.34 C 740.76 303.41 737.63 308.40 734.58 313.44 C 729.79 308.16 725.61 302.23 719.83 297.94 C 720.63 295.46 722.17 293.06 722.05 290.39 C 720.97 287.09 721.37 283.42 719.68 280.32 C 717.69 276.89 720.60 272.92 719.18 269.35 C 718.14 266.83 718.05 264.14 718.00 261.46 C 717.21 257.90 715.92 254.45 715.58 250.80 C 715.21 246.97 713.30 243.56 712.42 239.86 C 712.23 235.74 713.71 231.59 716.28 228.37 C 717.82 226.51 718.75 224.28 719.39 221.97 Z" />
</g>
<g id="#da2f43ff">
<path fill="#da2f43" opacity="1.00" d=" M 498.53 275.58 C 505.30 258.38 515.34 242.38 528.24 229.10 C 526.04 234.60 522.81 239.67 521.26 245.41 C 519.56 251.24 519.10 257.37 519.45 263.42 C 519.47 263.70 519.52 264.27 519.54 264.56 C 513.11 269.69 508.24 276.41 503.67 283.16 L 503.46 282.84 C 501.89 280.46 500.16 278.18 498.37 275.96 L 498.53 275.58 Z" />
</g>
<g id="#f06567ff">
<path fill="#f06567" opacity="1.00" d=" M 565.27 243.30 C 571.92 242.42 578.64 241.60 585.34 242.53 C 583.08 242.71 580.83 242.99 578.59 243.25 C 579.98 245.55 581.51 247.85 582.17 250.50 C 584.18 259.88 586.68 269.51 585.04 279.15 C 583.99 285.10 580.64 290.77 581.87 296.97 C 578.02 297.02 574.17 297.03 570.34 297.35 L 570.29 298.07 C 570.14 302.33 570.25 306.59 570.24 310.86 C 566.70 310.98 563.18 310.56 559.73 309.83 C 559.82 305.87 560.01 301.89 559.50 297.95 C 558.45 295.65 557.10 293.37 557.06 290.77 C 556.86 288.11 558.25 285.73 558.86 283.22 C 556.27 278.27 554.82 272.83 552.13 267.94 C 550.72 265.01 550.29 261.76 549.69 258.60 C 547.55 261.29 545.55 264.11 544.06 267.21 C 541.55 262.39 538.58 257.82 536.25 252.90 C 545.23 247.94 555.15 244.87 565.27 243.30 Z" />
</g>
<g id="#f58c91ff">
<path fill="#f58c91" opacity="1.00" d=" M 617.59 241.45 C 619.55 244.83 620.75 248.60 621.04 252.52 C 618.14 251.04 615.12 249.81 612.13 248.53 L 612.41 248.15 C 614.10 245.89 615.80 243.64 617.59 241.45 Z" />
</g>
<g id="#f07a76ff">
<path fill="#f07a76" opacity="1.00" d=" M 578.59 243.25 C 580.83 242.99 583.08 242.71 585.34 242.53 C 594.61 243.01 603.54 245.62 612.41 248.15 L 612.13 248.53 C 601.85 262.56 596.90 280.06 596.31 297.32 C 596.31 297.70 596.30 298.47 596.30 298.85 C 594.38 300.63 592.43 302.36 590.61 304.23 C 587.96 304.79 585.36 305.52 582.78 306.30 C 582.77 303.51 582.77 300.72 582.76 297.93 C 578.60 297.97 574.44 298.03 570.29 298.07 L 570.34 297.35 C 574.17 297.03 578.02 297.02 581.87 296.97 C 580.64 290.77 583.99 285.10 585.04 279.15 C 586.68 269.51 584.18 259.88 582.17 250.50 C 581.51 247.85 579.98 245.55 578.59 243.25 Z" />
</g>
<g id="#f9afaeff">
<path fill="#f9afae" opacity="1.00" d=" M 596.31 297.32 C 596.90 280.06 601.85 262.56 612.13 248.53 C 615.12 249.81 618.14 251.04 621.04 252.52 C 622.17 253.14 623.27 253.82 624.37 254.52 C 622.36 261.63 621.12 269.08 617.59 275.66 C 614.81 281.08 610.44 285.40 607.18 290.50 C 603.63 292.90 599.96 295.10 596.31 297.32 Z" />
</g>
<g id="#ef5b67ff">
<path fill="#ef5b67" opacity="1.00" d=" M 519.45 263.42 C 525.23 260.21 530.36 255.94 536.25 252.90 C 538.58 257.82 541.55 262.39 544.06 267.21 C 542.42 270.56 540.84 273.94 539.36 277.37 C 536.90 283.02 536.09 289.25 533.30 294.77 C 525.39 286.67 520.68 275.77 519.54 264.56 C 519.52 264.27 519.47 263.70 519.45 263.42 Z" />
</g>
<g id="#f4a2a4ff">
<path fill="#f4a2a4" opacity="1.00" d=" M 624.37 254.52 C 633.74 260.07 642.07 267.23 648.91 275.72 C 633.96 276.88 619.94 282.93 607.18 290.50 C 610.44 285.40 614.81 281.08 617.59 275.66 C 621.12 269.08 622.36 261.63 624.37 254.52 Z" />
</g>
<g id="#f05661ff">
<path fill="#f05661" opacity="1.00" d=" M 549.69 258.60 C 550.29 261.76 550.72 265.01 552.13 267.94 C 554.82 272.83 556.27 278.27 558.86 283.22 C 558.25 285.73 556.86 288.11 557.06 290.77 C 557.10 293.37 558.45 295.65 559.50 297.95 C 551.77 297.79 544.04 297.95 536.31 297.89 C 535.30 296.85 534.28 295.82 533.30 294.77 C 536.09 289.25 536.90 283.02 539.36 277.37 C 540.84 273.94 542.42 270.56 544.06 267.21 C 545.55 264.11 547.55 261.29 549.69 258.60 Z" />
</g>
<g id="#e62d39ff">
<path fill="#e62d39" opacity="1.00" d=" M 503.67 283.16 C 508.24 276.41 513.11 269.69 519.54 264.56 C 520.68 275.77 525.39 286.67 533.30 294.77 C 534.28 295.82 535.30 296.85 536.31 297.89 C 524.78 297.78 513.24 298.04 501.71 297.72 C 506.44 296.91 511.25 296.74 516.04 296.63 C 511.27 292.78 506.77 288.51 503.67 283.16 Z" />
</g>
<g id="#d22932ff">
<path fill="#d22932" opacity="1.00" d=" M 764.52 272.45 C 774.58 295.10 777.57 320.50 775.12 345.05 C 773.95 352.49 773.07 360.03 770.67 367.21 C 770.10 364.71 769.64 362.18 768.84 359.74 C 768.00 357.04 765.43 355.52 763.41 353.77 C 763.19 357.60 762.95 361.44 762.52 365.26 C 760.87 353.42 763.15 341.37 760.97 329.58 C 760.97 329.36 760.96 328.91 760.96 328.69 C 767.04 317.92 767.77 305.11 767.39 293.01 C 767.30 286.05 764.95 279.39 764.52 272.45 Z" />
</g>
<g id="#f47c7eff">
<path fill="#f47c7e" opacity="1.00" d=" M 650.26 275.23 C 653.41 274.97 656.58 275.00 659.75 275.11 C 661.29 275.49 662.82 275.93 664.36 276.36 C 662.66 281.17 660.84 285.92 658.73 290.57 C 657.10 287.73 655.45 284.89 653.71 282.12 C 652.41 280.12 650.98 278.21 649.46 276.37 L 650.26 275.23 Z" />
</g>
<g id="#f36562ff">
<path fill="#f36562" opacity="1.00" d=" M 659.75 275.11 C 661.80 275.15 663.85 275.14 665.91 275.27 C 669.03 275.72 672.12 276.35 675.25 276.77 C 672.66 283.99 670.44 291.36 667.17 298.32 C 665.26 298.28 663.36 298.18 661.48 298.07 C 660.92 295.45 660.07 292.89 658.73 290.57 C 660.84 285.92 662.66 281.17 664.36 276.36 C 662.82 275.93 661.29 275.49 659.75 275.11 Z" />
</g>
<g id="#fbb9b9ff">
<path fill="#fbb9b9" opacity="1.00" d=" M 607.18 290.50 C 619.94 282.93 633.96 276.88 648.91 275.72 L 649.46 276.37 C 650.98 278.21 652.41 280.12 653.71 282.12 C 648.44 287.34 642.41 291.95 638.56 298.42 C 634.54 305.60 628.65 311.50 624.88 318.84 C 620.86 324.75 618.26 331.54 613.70 337.09 C 612.96 334.58 612.20 332.08 611.62 329.53 C 611.36 319.06 611.57 308.58 611.55 298.10 C 607.27 297.94 603.00 297.86 598.73 297.88 C 598.83 304.35 598.78 310.82 598.68 317.29 C 597.98 311.13 596.39 305.08 596.30 298.85 C 596.30 298.47 596.31 297.70 596.31 297.32 C 599.96 295.10 603.63 292.90 607.18 290.50 Z" />
</g>
<g id="#d73c5cff">
<path fill="#d73c5c" opacity="1.00" d=" M 498.37 275.96 C 500.16 278.18 501.89 280.46 503.46 282.84 C 500.37 288.96 496.66 294.80 494.45 301.33 C 491.75 308.25 490.77 315.66 488.62 322.75 C 489.05 306.77 492.51 290.83 498.37 275.96 Z" />
</g>
<g id="#f25049ff">
<path fill="#f25049" opacity="1.00" d=" M 675.25 276.77 C 675.85 276.87 677.07 277.06 677.67 277.16 C 679.87 277.59 682.03 278.19 684.18 278.84 C 681.61 285.36 681.40 293.13 676.17 298.32 C 673.17 298.31 670.17 298.34 667.17 298.32 C 670.44 291.36 672.66 283.99 675.25 276.77 Z" />
</g>
<g id="#f03734ff">
<path fill="#f03734" opacity="1.00" d=" M 684.18 278.84 C 686.81 279.63 689.46 280.38 692.05 281.32 C 693.32 281.82 694.57 282.39 695.82 282.97 C 692.97 291.97 693.13 302.35 686.50 309.75 C 684.23 305.94 681.93 302.14 679.71 298.29 C 678.52 298.30 677.34 298.31 676.17 298.32 C 681.40 293.13 681.61 285.36 684.18 278.84 Z" />
</g>
<g id="#faa9a5ff">
<path fill="#faa9a5" opacity="1.00" d=" M 653.71 282.12 C 655.45 284.89 657.10 287.73 658.73 290.57 C 660.07 292.89 660.92 295.45 661.48 298.07 C 659.88 310.03 661.58 322.16 660.72 334.19 C 660.56 330.97 660.18 327.75 660.11 324.53 C 660.70 316.36 660.04 308.19 659.81 300.03 C 658.98 302.28 658.68 305.02 656.56 306.49 C 653.39 308.96 649.88 311.07 647.30 314.22 C 643.52 318.77 639.23 322.89 635.86 327.76 C 633.58 331.12 630.88 334.17 628.12 337.14 C 623.88 341.66 621.50 347.48 617.92 352.48 C 615.69 350.96 613.50 349.38 611.50 347.58 C 611.59 341.57 611.68 335.55 611.62 329.53 C 612.20 332.08 612.96 334.58 613.70 337.09 C 618.26 331.54 620.86 324.75 624.88 318.84 C 628.65 311.50 634.54 305.60 638.56 298.42 C 642.41 291.95 648.44 287.34 653.71 282.12 Z" />
</g>
<g id="#e22942ff">
<path fill="#e22942" opacity="1.00" d=" M 503.46 282.84 L 503.67 283.16 C 506.77 288.51 511.27 292.78 516.04 296.63 C 511.25 296.74 506.44 296.91 501.71 297.72 C 501.78 320.21 501.74 342.70 501.76 365.18 C 505.92 365.18 510.09 365.18 514.25 365.18 C 514.27 356.19 514.27 347.20 514.26 338.21 C 522.36 338.26 530.45 338.17 538.55 338.29 L 537.85 338.91 C 523.90 351.72 515.85 370.67 516.47 389.61 C 516.41 392.53 516.51 395.45 516.76 398.36 C 510.65 392.29 505.13 385.60 500.86 378.09 C 498.11 373.68 496.80 368.41 493.13 364.59 L 492.85 364.26 C 489.67 350.70 487.67 336.69 488.62 322.75 C 490.77 315.66 491.75 308.25 494.45 301.33 C 496.66 294.80 500.37 288.96 503.46 282.84 Z" />
</g>
<g id="#ed2225ff">
<path fill="#ed2225" opacity="1.00" d=" M 695.82 282.97 C 704.48 286.82 712.58 291.82 719.83 297.94 C 725.61 302.23 729.79 308.16 734.58 313.44 C 726.87 326.19 718.97 338.82 711.26 351.57 C 702.96 337.66 694.78 323.68 686.50 309.75 C 693.13 302.35 692.97 291.97 695.82 282.97 Z" />
</g>
<g id="#000000ff">
<path fill="#000000" opacity="1.00" d=" M 261.99 304.88 C 268.88 299.03 278.13 296.89 286.95 296.22 C 300.57 295.48 314.49 298.41 326.35 305.25 C 324.66 308.92 322.09 312.05 319.80 315.35 C 309.02 309.28 296.19 307.22 283.95 308.24 C 278.72 308.89 272.09 310.57 270.22 316.18 C 268.69 319.04 271.37 322.08 274.13 322.67 C 287.23 326.05 301.21 324.25 314.05 328.90 C 318.59 330.55 323.21 333.46 324.85 338.26 C 327.05 344.76 324.68 352.20 320.04 357.06 C 313.20 364.45 302.76 367.20 293.00 367.52 C 278.68 367.89 262.76 365.74 252.03 355.32 C 255.01 352.22 257.75 348.90 260.77 345.84 C 272.49 355.88 289.41 357.92 303.95 353.90 C 308.26 352.73 311.61 349.33 312.51 344.93 C 310.60 338.78 303.54 337.85 298.05 337.38 C 287.41 335.99 276.38 336.51 266.16 332.81 C 261.05 330.97 256.35 326.71 255.84 321.04 C 254.82 315.00 257.29 308.75 261.99 304.88 Z" />
<path fill="#000000" opacity="1.00" d=" M 39.07 297.68 C 44.14 297.67 49.22 297.68 54.29 297.68 C 63.53 316.28 73.03 334.76 82.17 353.42 C 92.97 334.82 103.83 316.26 114.63 297.67 C 118.96 297.68 123.29 297.67 127.61 297.70 C 114.42 320.27 101.20 342.83 87.99 365.39 C 83.63 365.40 79.26 365.39 74.90 365.40 C 62.97 342.82 51.03 320.25 39.07 297.68 Z" />
<path fill="#000000" opacity="1.00" d=" M 135.54 297.68 C 139.80 297.68 144.05 297.68 148.31 297.68 C 148.30 320.25 148.30 342.82 148.31 365.39 C 144.05 365.40 139.80 365.40 135.54 365.39 C 135.55 342.82 135.54 320.25 135.54 297.68 Z" />
<path fill="#000000" opacity="1.00" d=" M 160.14 365.39 C 173.62 342.82 186.97 320.17 200.53 297.65 C 205.67 297.70 210.82 297.65 215.97 297.71 C 227.46 320.33 239.25 342.79 250.81 365.38 C 245.84 365.41 240.87 365.40 235.91 365.38 C 233.04 359.52 230.17 353.67 227.30 347.82 C 213.41 347.83 199.52 347.88 185.63 347.80 C 182.19 353.57 178.90 359.45 175.71 365.37 C 170.52 365.41 165.33 365.40 160.14 365.39 M 191.92 336.25 C 201.83 336.25 211.74 336.24 221.65 336.26 C 216.95 326.92 212.21 317.59 207.80 308.11 C 202.52 317.50 197.30 326.92 191.92 336.25 Z" />
<path fill="#000000" opacity="1.00" d=" M 326.38 365.41 C 339.90 342.86 353.20 320.17 366.81 297.67 C 371.92 297.68 377.04 297.68 382.15 297.67 C 393.82 320.23 405.48 342.79 417.11 365.37 C 412.12 365.41 407.13 365.43 402.14 365.35 C 399.11 359.59 396.85 353.29 393.21 347.93 C 379.42 347.68 365.61 347.93 351.81 347.82 C 348.55 353.67 345.09 359.43 342.00 365.38 C 336.79 365.41 331.59 365.38 326.38 365.41 M 373.61 309.23 C 368.19 318.06 363.51 327.35 358.19 336.25 C 368.09 336.26 378.00 336.24 387.91 336.26 C 383.36 327.18 378.85 318.06 374.37 308.94 C 374.18 309.01 373.80 309.15 373.61 309.23 Z" />
<path fill="#000000" opacity="1.00" d=" M 410.70 298.12 C 433.23 298.12 455.77 298.12 478.31 298.12 C 478.30 301.95 478.30 305.78 478.32 309.61 C 469.07 309.64 459.82 309.61 450.57 309.63 C 450.58 328.22 450.56 346.81 450.58 365.40 C 446.32 365.40 442.06 365.40 437.81 365.39 C 437.83 346.80 437.78 328.22 437.83 309.63 C 428.78 309.60 419.73 309.65 410.68 309.61 C 410.70 305.78 410.70 301.95 410.70 298.12 Z" />
</g>
<g id="#ffffffff">
<path fill="#ffffff" opacity="1.00" d=" M 501.71 297.72 C 513.24 298.04 524.78 297.78 536.31 297.89 C 544.04 297.95 551.77 297.79 559.50 297.95 C 560.01 301.89 559.82 305.87 559.73 309.83 C 544.63 308.89 529.45 309.75 514.32 309.35 C 514.21 315.20 514.26 321.04 514.25 326.89 C 528.61 326.65 543.00 327.28 557.34 326.56 C 557.42 330.46 557.41 334.35 557.39 338.25 C 551.11 338.27 544.83 338.28 538.55 338.29 C 530.45 338.17 522.36 338.26 514.26 338.21 C 514.27 347.20 514.27 356.19 514.25 365.18 C 510.09 365.18 505.92 365.18 501.76 365.18 C 501.74 342.70 501.78 320.21 501.71 297.72 Z" />
<path fill="#ffffff" opacity="1.00" d=" M 570.29 298.07 C 574.44 298.03 578.60 297.97 582.76 297.93 C 582.77 300.72 582.77 303.51 582.78 306.30 C 582.77 308.76 582.76 311.23 582.78 313.70 C 582.78 316.08 582.77 318.46 582.79 320.85 C 582.80 335.61 582.79 350.37 582.76 365.14 C 578.59 365.17 574.41 365.18 570.25 365.17 C 570.20 356.22 570.30 347.27 570.11 338.32 C 570.34 333.01 570.21 327.71 570.23 322.40 C 570.23 318.55 570.23 314.70 570.24 310.86 C 570.25 306.59 570.14 302.33 570.29 298.07 Z" />
<path fill="#ffffff" opacity="1.00" d=" M 598.73 297.88 C 603.00 297.86 607.27 297.94 611.55 298.10 C 611.57 308.58 611.36 319.06 611.62 329.53 C 611.68 335.55 611.59 341.57 611.50 347.58 C 611.48 349.73 611.51 351.89 611.53 354.04 C 624.83 353.53 638.14 354.10 651.44 354.04 C 651.42 357.76 651.40 361.49 651.38 365.21 C 639.82 365.30 628.24 365.11 616.68 365.41 C 610.71 364.95 604.72 365.17 598.73 365.21 C 598.67 357.91 598.76 350.60 598.58 343.30 C 598.90 336.49 598.60 329.67 598.72 322.86 C 598.72 321.00 598.72 319.15 598.68 317.29 C 598.78 310.82 598.83 304.35 598.73 297.88 Z" />
<path fill="#ffffff" opacity="1.00" d=" M 660.72 334.19 C 661.58 322.16 659.88 310.03 661.48 298.07 C 663.36 298.18 665.26 298.28 667.17 298.32 C 670.17 298.34 673.17 298.31 676.17 298.32 C 677.34 298.31 678.52 298.30 679.71 298.29 C 681.93 302.14 684.23 305.94 686.50 309.75 C 694.78 323.68 702.96 337.66 711.26 351.57 C 718.97 338.82 726.87 326.19 734.58 313.44 C 737.63 308.40 740.76 303.41 743.76 298.34 C 749.47 298.29 755.18 298.31 760.90 298.32 C 760.89 308.44 760.79 318.57 760.96 328.69 C 760.96 328.91 760.97 329.36 760.97 329.58 C 760.76 341.45 760.93 353.32 760.86 365.18 C 756.69 365.18 752.52 365.15 748.36 365.13 C 748.35 361.31 748.34 357.49 748.34 353.67 C 748.36 339.88 748.29 326.09 748.36 312.30 C 737.67 329.97 726.72 347.48 716.09 365.19 C 712.28 365.20 708.48 365.19 704.69 365.26 C 694.36 347.64 683.73 330.20 673.42 312.57 C 673.46 326.04 673.41 339.51 673.41 352.98 C 673.44 357.02 673.14 361.10 673.77 365.12 C 669.41 365.14 665.05 365.12 660.70 365.16 C 660.94 354.84 660.75 344.51 660.72 334.19 Z" />
</g>
<g id="#00000080">
<path fill="#000000" opacity="0.50" d=" M 791.53 297.52 C 795.75 297.51 799.98 297.51 804.20 297.55 C 804.22 307.21 804.21 316.88 804.20 326.54 C 819.82 326.57 835.44 326.50 851.06 326.58 C 851.33 316.91 851.14 307.23 851.16 297.55 C 855.47 297.50 859.79 297.50 864.11 297.55 C 864.11 319.97 864.14 342.38 864.10 364.79 C 859.79 364.82 855.48 364.82 851.19 364.82 C 851.17 355.82 851.21 346.82 851.17 337.82 C 835.52 337.80 819.87 337.79 804.22 337.82 C 804.18 346.81 804.24 355.81 804.20 364.80 C 799.98 364.81 795.77 364.81 791.56 364.85 C 791.49 342.41 791.55 319.97 791.53 297.52 Z" />
<path fill="#000000" opacity="0.50" d=" M 876.18 297.63 C 889.44 297.38 902.70 297.60 915.97 297.51 C 923.13 297.40 930.39 298.89 936.73 302.32 C 944.96 306.80 950.84 315.49 951.71 324.86 C 952.42 332.93 952.09 341.59 947.68 348.66 C 941.89 359.19 929.63 364.63 917.97 364.77 C 904.07 364.87 890.16 364.77 876.26 364.82 C 876.21 342.42 876.35 320.03 876.18 297.63 M 888.88 308.80 C 888.90 323.72 888.76 338.64 888.96 353.56 C 896.98 353.52 905.01 353.59 913.05 353.54 C 919.67 353.30 926.74 352.31 932.11 348.10 C 940.48 341.55 941.48 328.81 937.29 319.63 C 933.40 311.82 924.07 309.45 916.06 308.90 C 907.00 308.60 897.94 308.85 888.88 308.80 Z" />
</g>
<g id="#f4858aff">
<path fill="#f4858a" opacity="1.00" d=" M 590.61 304.23 C 592.43 302.36 594.38 300.63 596.30 298.85 C 596.39 305.08 597.98 311.13 598.68 317.29 C 598.72 319.15 598.72 321.00 598.72 322.86 C 593.49 321.63 588.15 320.96 582.79 320.85 C 582.77 318.46 582.78 316.08 582.78 313.70 C 585.45 310.59 587.92 307.32 590.61 304.23 Z" />
</g>
<g id="#f89389ff">
<path fill="#f89389" opacity="1.00" d=" M 656.56 306.49 C 658.68 305.02 658.98 302.28 659.81 300.03 C 660.04 308.19 660.70 316.36 660.11 324.53 C 659.21 327.76 658.05 331.17 655.12 333.11 C 649.02 337.56 643.58 342.82 639.10 348.89 C 635.74 348.56 633.25 350.92 630.97 353.01 C 637.78 353.62 644.68 352.75 651.44 354.04 C 638.14 354.10 624.83 353.53 611.53 354.04 C 611.51 351.89 611.48 349.73 611.50 347.58 C 613.50 349.38 615.69 350.96 617.92 352.48 C 621.50 347.48 623.88 341.66 628.12 337.14 C 630.88 334.17 633.58 331.12 635.86 327.76 C 639.23 322.89 643.52 318.77 647.30 314.22 C 649.88 311.07 653.39 308.96 656.56 306.49 Z" />
</g>
<g id="#ed505cff">
<path fill="#ed505c" opacity="1.00" d=" M 582.78 306.30 C 585.36 305.52 587.96 304.79 590.61 304.23 C 587.92 307.32 585.45 310.59 582.78 313.70 C 582.76 311.23 582.77 308.76 582.78 306.30 Z" />
</g>
<g id="#e43244ff">
<path fill="#e43244" opacity="1.00" d=" M 514.25 326.89 C 514.26 321.04 514.21 315.20 514.32 309.35 C 529.45 309.75 544.63 308.89 559.73 309.83 C 563.18 310.56 566.70 310.98 570.24 310.86 C 570.23 314.70 570.23 318.55 570.23 322.40 C 565.72 323.07 561.41 324.54 557.34 326.56 C 543.00 327.28 528.61 326.65 514.25 326.89 Z" />
</g>
<g id="#ef292fff">
<path fill="#ef292f" opacity="1.00" d=" M 673.42 312.57 C 683.73 330.20 694.36 347.64 704.69 365.26 C 707.17 368.11 711.45 367.46 714.84 368.28 C 714.24 371.36 713.71 374.45 713.31 377.56 C 710.53 378.68 707.71 379.72 704.86 380.65 C 695.93 383.46 686.44 384.23 677.12 383.71 C 675.33 383.56 673.55 383.35 671.78 383.12 C 671.99 377.05 674.95 371.21 673.77 365.12 C 673.14 361.10 673.44 357.02 673.41 352.98 C 673.41 339.51 673.46 326.04 673.42 312.57 Z" />
</g>
<g id="#ea191aff">
<path fill="#ea191a" opacity="1.00" d=" M 716.09 365.19 C 726.72 347.48 737.67 329.97 748.36 312.30 C 748.29 326.09 748.36 339.88 748.34 353.67 C 743.07 357.94 738.30 362.79 732.85 366.84 C 726.95 371.41 720.15 374.64 713.31 377.56 C 713.71 374.45 714.24 371.36 714.84 368.28 C 711.45 367.46 707.17 368.11 704.69 365.26 C 708.48 365.19 712.28 365.20 716.09 365.19 Z" />
</g>
<g id="#f78c8fff">
<path fill="#f78c8f" opacity="1.00" d=" M 582.79 320.85 C 588.15 320.96 593.49 321.63 598.72 322.86 C 598.60 329.67 598.90 336.49 598.58 343.30 C 596.88 347.00 596.90 351.06 596.74 355.04 C 596.92 358.50 593.54 360.28 591.40 362.39 C 588.07 365.13 586.33 369.32 582.91 371.96 C 580.27 373.96 577.71 376.08 575.09 378.11 C 572.98 379.75 570.32 380.62 568.42 382.51 C 567.25 385.13 567.17 388.06 566.86 390.87 C 566.66 389.88 566.28 387.92 566.08 386.93 C 564.75 378.80 563.89 370.54 564.62 362.31 C 565.75 354.18 566.71 345.88 570.11 338.32 C 570.30 347.27 570.20 356.22 570.25 365.17 C 574.41 365.18 578.59 365.17 582.76 365.14 C 582.79 350.37 582.80 335.61 582.79 320.85 Z" />
</g>
<g id="#ec5a65ff">
<path fill="#ec5a65" opacity="1.00" d=" M 557.34 326.56 C 561.41 324.54 565.72 323.07 570.23 322.40 C 570.21 327.71 570.34 333.01 570.11 338.32 C 566.71 345.88 565.75 354.18 564.62 362.31 C 564.41 361.45 563.99 359.73 563.78 358.87 C 559.64 364.03 554.61 368.31 549.38 372.32 C 544.05 376.25 542.52 383.25 537.36 387.33 C 531.81 392.05 528.59 398.74 523.78 404.12 C 521.51 402.34 519.19 400.63 516.99 398.78 L 516.76 398.36 C 516.51 395.45 516.41 392.53 516.47 389.61 C 518.27 384.65 519.28 379.06 523.10 375.14 C 526.07 371.71 529.96 369.26 533.10 366.00 C 535.67 363.30 535.01 359.10 537.14 356.15 C 541.46 349.98 548.03 345.96 552.80 340.20 C 547.84 339.57 542.85 339.18 537.85 338.91 L 538.55 338.29 C 544.83 338.28 551.11 338.27 557.39 338.25 C 557.41 334.35 557.42 330.46 557.34 326.56 Z" />
</g>
<g id="#f77d6eff">
<path fill="#f77d6e" opacity="1.00" d=" M 655.12 333.11 C 658.05 331.17 659.21 327.76 660.11 324.53 C 660.18 327.75 660.56 330.97 660.72 334.19 C 660.75 344.51 660.94 354.84 660.70 365.16 C 660.27 359.09 660.13 353.01 659.72 346.94 C 658.73 349.34 658.38 352.51 655.83 353.85 C 654.48 354.62 652.88 354.13 651.44 354.04 C 644.68 352.75 637.78 353.62 630.97 353.01 C 633.25 350.92 635.74 348.56 639.10 348.89 C 643.58 342.82 649.02 337.56 655.12 333.11 Z" />
</g>
<g id="#d4303fff">
<path fill="#d4303f" opacity="1.00" d=" M 760.97 329.58 C 763.15 341.37 760.87 353.42 762.52 365.26 C 762.95 361.44 763.19 357.60 763.41 353.77 C 765.43 355.52 768.00 357.04 768.84 359.74 C 769.64 362.18 770.10 364.71 770.67 367.21 L 770.78 367.69 C 763.92 391.14 751.50 413.03 734.20 430.35 C 729.64 435.01 724.73 439.34 719.48 443.22 C 721.18 441.04 722.92 438.87 724.94 436.98 C 731.34 431.14 735.95 423.69 740.37 416.32 C 749.20 401.24 753.37 383.66 753.03 366.24 C 751.46 365.86 749.91 365.50 748.36 365.13 C 752.52 365.15 756.69 365.18 760.86 365.18 C 760.93 353.32 760.76 341.45 760.97 329.58 Z" />
</g>
<g id="#ec6874ff">
<path fill="#ec6874" opacity="1.00" d=" M 537.85 338.91 C 542.85 339.18 547.84 339.57 552.80 340.20 C 548.03 345.96 541.46 349.98 537.14 356.15 C 535.01 359.10 535.67 363.30 533.10 366.00 C 529.96 369.26 526.07 371.71 523.10 375.14 C 519.28 379.06 518.27 384.65 516.47 389.61 C 515.85 370.67 523.90 351.72 537.85 338.91 Z" />
</g>
<g id="#f68187ff">
<path fill="#f68187" opacity="1.00" d=" M 596.74 355.04 C 596.90 351.06 596.88 347.00 598.58 343.30 C 598.76 350.60 598.67 357.91 598.73 365.21 C 604.72 365.17 610.71 364.95 616.68 365.41 L 615.34 365.52 L 614.61 365.58 C 611.21 365.93 607.80 366.02 604.39 366.01 C 605.12 366.68 605.85 367.35 606.59 368.03 C 603.81 372.81 600.92 377.54 598.62 382.58 C 595.67 389.12 591.66 395.11 588.75 401.67 C 585.87 408.08 582.78 414.42 579.07 420.40 C 573.48 411.29 569.01 401.37 566.86 390.87 C 567.17 388.06 567.25 385.13 568.42 382.51 C 570.32 380.62 572.98 379.75 575.09 378.11 C 577.71 376.08 580.27 373.96 582.91 371.96 C 586.33 369.32 588.07 365.13 591.40 362.39 C 593.54 360.28 596.92 358.50 596.74 355.04 Z" />
</g>
<g id="#f76052ff">
<path fill="#f76052" opacity="1.00" d=" M 659.72 346.94 C 660.13 353.01 660.27 359.09 660.70 365.16 C 665.05 365.12 669.41 365.14 673.77 365.12 C 670.17 365.32 666.56 365.50 662.97 365.68 C 660.85 370.22 658.84 374.82 656.22 379.10 C 654.63 381.65 652.89 384.10 651.15 386.54 C 650.46 383.27 649.77 380.01 649.03 376.76 C 648.72 375.45 648.42 374.14 648.12 372.84 C 645.23 374.23 642.03 374.39 638.91 374.79 C 637.32 374.77 636.98 376.56 636.03 377.46 C 635.72 375.86 633.29 376.65 632.95 374.95 C 633.53 373.00 634.01 371.02 634.47 369.04 C 628.99 364.80 621.74 366.28 615.34 365.52 L 616.68 365.41 C 628.24 365.11 639.82 365.30 651.38 365.21 C 651.40 361.49 651.42 357.76 651.44 354.04 C 652.88 354.13 654.48 354.62 655.83 353.85 C 658.38 352.51 658.73 349.34 659.72 346.94 Z" />
</g>
<g id="#e3262dff">
<path fill="#e3262d" opacity="1.00" d=" M 732.85 366.84 C 738.30 362.79 743.07 357.94 748.34 353.67 C 748.34 357.49 748.35 361.31 748.36 365.13 C 749.91 365.50 751.46 365.86 753.03 366.24 C 753.37 383.66 749.20 401.24 740.37 416.32 C 735.95 423.69 731.34 431.14 724.94 436.98 C 722.92 438.87 721.18 441.04 719.48 443.22 C 715.76 446.28 711.77 448.98 707.64 451.45 C 705.61 451.88 703.56 452.22 701.53 452.58 C 702.97 447.59 700.88 442.26 697.97 438.27 C 695.93 438.10 693.91 438.52 691.97 439.05 C 691.02 437.13 689.78 435.29 689.41 433.15 C 689.24 430.59 690.06 428.09 690.11 425.54 C 689.77 423.51 688.30 421.83 688.01 419.78 C 687.69 416.68 688.47 413.57 688.01 410.49 C 687.22 407.98 685.49 405.93 684.09 403.75 C 692.43 401.97 701.02 402.77 709.19 405.02 C 709.00 397.48 708.44 389.95 708.58 382.41 C 707.33 381.81 706.08 381.24 704.86 380.65 C 707.71 379.72 710.53 378.68 713.31 377.56 C 720.15 374.64 726.95 371.41 732.85 366.84 Z" />
</g>
<g id="#eb4752ff">
<path fill="#eb4752" opacity="1.00" d=" M 549.38 372.32 C 554.61 368.31 559.64 364.03 563.78 358.87 C 563.99 359.73 564.41 361.45 564.62 362.31 C 563.89 370.54 564.75 378.80 566.08 386.93 C 562.01 390.56 558.57 394.81 555.16 399.04 C 553.21 402.06 548.87 401.81 546.88 404.76 C 544.51 407.94 542.39 411.30 539.91 414.39 C 538.21 413.57 536.53 412.72 534.89 411.81 C 530.95 409.60 527.33 406.89 523.78 404.12 C 528.59 398.74 531.81 392.05 537.36 387.33 C 542.52 383.25 544.05 376.25 549.38 372.32 Z" />
</g>
<g id="#dd456fff">
<path fill="#dd456f" opacity="1.00" d=" M 493.13 364.59 C 496.80 368.41 498.11 373.68 500.86 378.09 C 505.13 385.60 510.65 392.29 516.76 398.36 L 516.99 398.78 C 518.47 408.35 522.33 417.28 527.23 425.57 L 526.75 426.73 C 510.70 409.21 498.66 387.76 493.13 364.59 Z" />
</g>
<g id="#f0313bff">
<path fill="#f0313b" opacity="1.00" d=" M 673.77 365.12 C 674.95 371.21 671.99 377.05 671.78 383.12 C 666.44 382.49 661.17 381.23 656.22 379.10 C 658.84 374.82 660.85 370.22 662.97 365.68 C 666.56 365.50 670.17 365.32 673.77 365.12 Z" />
</g>
<g id="#f67178ff">
<path fill="#f67178" opacity="1.00" d=" M 604.39 366.01 C 607.80 366.02 611.21 365.93 614.61 365.58 C 615.70 366.35 616.82 367.12 617.93 367.90 C 615.69 371.09 613.65 374.43 611.91 377.92 C 609.06 383.67 605.57 389.09 603.02 394.99 C 599.03 404.18 593.73 412.69 589.10 421.55 C 592.30 421.75 595.50 421.95 598.71 422.16 C 597.00 427.36 594.76 432.35 592.87 437.47 C 589.98 434.60 587.19 431.63 584.63 428.47 C 583.20 426.66 581.88 424.78 580.61 422.87 C 580.23 422.25 579.46 421.02 579.07 420.40 C 582.78 414.42 585.87 408.08 588.75 401.67 C 591.66 395.11 595.67 389.12 598.62 382.58 C 600.92 377.54 603.81 372.81 606.59 368.03 C 605.85 367.35 605.12 366.68 604.39 366.01 Z" />
</g>
<g id="#f45f64ff">
<path fill="#f45f64" opacity="1.00" d=" M 614.61 365.58 L 615.34 365.52 C 621.74 366.28 628.99 364.80 634.47 369.04 C 634.01 371.02 633.53 373.00 632.95 374.95 C 629.37 380.37 624.46 384.87 621.81 390.90 C 616.70 399.87 612.16 409.16 607.16 418.19 C 609.38 417.66 611.60 417.11 613.79 416.46 C 610.25 426.24 607.44 436.36 602.31 445.49 C 599.05 442.95 595.82 440.36 592.87 437.47 C 594.76 432.35 597.00 427.36 598.71 422.16 C 595.50 421.95 592.30 421.75 589.10 421.55 C 593.73 412.69 599.03 404.18 603.02 394.99 C 605.57 389.09 609.06 383.67 611.91 377.92 C 613.65 374.43 615.69 371.09 617.93 367.90 C 616.82 367.12 615.70 366.35 614.61 365.58 Z" />
</g>
<g id="#f44f4eff">
<path fill="#f44f4e" opacity="1.00" d=" M 638.91 374.79 C 642.03 374.39 645.23 374.23 648.12 372.84 C 648.42 374.14 648.72 375.45 649.03 376.76 C 643.08 381.57 638.60 387.82 633.41 393.37 C 629.19 398.82 626.20 405.12 623.39 411.38 C 620.24 413.17 617.11 415.00 613.79 416.46 C 611.60 417.11 609.38 417.66 607.16 418.19 C 612.16 409.16 616.70 399.87 621.81 390.90 C 624.46 384.87 629.37 380.37 632.95 374.95 C 633.29 376.65 635.72 375.86 636.03 377.46 C 636.98 376.56 637.32 374.77 638.91 374.79 Z" />
</g>
<g id="#f34440ff">
<path fill="#f34440" opacity="1.00" d=" M 633.41 393.37 C 638.60 387.82 643.08 381.57 649.03 376.76 C 649.77 380.01 650.46 383.27 651.15 386.54 C 646.25 394.25 638.88 399.73 632.50 406.10 C 629.53 407.96 626.42 409.61 623.39 411.38 C 626.20 405.12 629.19 398.82 633.41 393.37 Z" />
</g>
<g id="#e93845ff">
<path fill="#e93845" opacity="1.00" d=" M 651.15 386.54 C 652.89 384.10 654.63 381.65 656.22 379.10 C 661.17 381.23 666.44 382.49 671.78 383.12 C 673.55 383.35 675.33 383.56 677.12 383.71 C 676.23 384.42 675.36 385.15 674.49 385.88 C 676.36 389.28 675.88 393.28 677.05 396.89 C 677.79 399.42 677.47 402.06 677.32 404.64 C 672.10 407.53 666.77 410.36 662.29 414.35 C 659.40 416.87 657.29 420.10 655.09 423.21 C 654.03 424.69 652.98 426.18 651.99 427.71 C 649.42 423.93 651.71 419.79 652.98 416.04 C 650.10 411.39 651.27 405.83 649.80 400.80 C 648.18 405.55 647.10 410.50 645.04 415.09 C 639.53 427.64 629.97 438.21 618.44 445.53 C 623.04 432.37 630.02 419.93 632.50 406.10 C 638.88 399.73 646.25 394.25 651.15 386.54 Z" />
</g>
<g id="#e92f3eff">
<path fill="#e92f3e" opacity="1.00" d=" M 677.12 383.71 C 686.44 384.23 695.93 383.46 704.86 380.65 C 706.08 381.24 707.33 381.81 708.58 382.41 C 708.44 389.95 709.00 397.48 709.19 405.02 C 701.02 402.77 692.43 401.97 684.09 403.75 C 685.49 405.93 687.22 407.98 688.01 410.49 C 688.47 413.57 687.69 416.68 688.01 419.78 C 688.30 421.83 689.77 423.51 690.11 425.54 C 690.06 428.09 689.24 430.59 689.41 433.15 C 689.78 435.29 691.02 437.13 691.97 439.05 C 688.88 440.13 685.67 441.16 683.07 443.19 C 681.84 445.46 683.43 447.94 683.81 450.24 C 684.58 452.35 683.93 454.57 683.55 456.69 C 685.40 457.77 687.28 458.79 689.21 459.76 C 679.69 462.51 669.89 464.60 659.93 464.42 C 659.87 460.90 659.58 457.29 657.82 454.15 C 656.09 451.21 658.12 447.85 657.47 444.71 C 656.08 437.60 656.92 430.26 655.09 423.21 C 657.29 420.10 659.40 416.87 662.29 414.35 C 666.77 410.36 672.10 407.53 677.32 404.64 C 677.47 402.06 677.79 399.42 677.05 396.89 C 675.88 393.28 676.36 389.28 674.49 385.88 C 675.36 385.15 676.23 384.42 677.12 383.71 Z" />
</g>
<g id="#c9273cff">
<path fill="#c9273c" opacity="1.00" d=" M 152.72 385.86 C 168.81 378.79 188.24 380.88 203.08 390.00 C 201.68 392.90 200.15 395.74 198.52 398.53 C 187.04 392.61 173.28 389.98 160.73 393.78 C 153.01 395.98 146.32 402.05 144.53 410.03 C 143.49 416.25 143.81 423.18 147.71 428.42 C 152.24 434.91 160.36 437.69 167.96 438.18 C 179.24 439.03 190.64 435.03 199.16 427.65 C 201.14 430.65 203.11 433.67 204.88 436.81 C 195.56 444.83 183.22 448.81 171.00 448.60 C 160.22 448.71 148.71 445.90 140.90 438.06 C 133.09 430.37 130.79 418.36 133.23 407.91 C 135.74 397.98 143.46 389.92 152.72 385.86 Z" />
<path fill="#c9273c" opacity="1.00" d=" M 334.43 382.55 C 346.33 380.31 359.21 381.16 370.08 386.84 C 377.93 391.04 384.42 398.29 386.55 407.06 C 389.35 416.77 387.02 427.82 380.46 435.51 C 374.39 442.53 365.51 446.46 356.51 448.09 C 345.06 449.71 332.86 449.00 322.42 443.64 C 314.82 439.83 308.49 433.20 306.00 424.97 C 302.51 414.61 305.20 402.56 312.49 394.48 C 318.13 388.06 326.18 384.31 334.43 382.55 M 341.12 393.14 C 334.80 393.97 328.26 395.95 323.61 400.53 C 317.81 406.25 315.79 415.47 318.89 423.03 C 321.58 430.24 328.80 434.83 336.11 436.29 C 345.48 438.27 355.82 437.90 364.38 433.29 C 370.99 429.82 375.15 422.44 374.81 415.00 C 374.82 406.89 369.59 399.16 362.12 396.04 C 355.58 393.22 348.19 392.16 341.12 393.14 Z" />
<path fill="#c9273c" opacity="1.00" d=" M 78.60 393.62 C 80.72 390.20 82.44 386.50 84.97 383.36 C 89.86 383.09 94.75 383.29 99.64 383.31 C 110.65 404.78 121.75 426.20 132.82 447.63 C 128.08 447.58 123.35 447.60 118.61 447.60 C 115.95 441.93 112.96 436.43 110.36 430.73 C 97.15 430.77 83.94 430.76 70.74 430.74 C 67.46 436.30 64.39 441.99 61.18 447.59 C 56.24 447.60 51.30 447.61 46.35 447.59 C 57.26 429.69 67.81 411.58 78.60 393.62 M 76.71 419.81 C 86.15 419.84 95.59 419.94 105.03 419.76 C 100.38 411.08 96.26 402.13 91.81 393.35 C 86.58 402.05 81.91 411.08 76.71 419.81 Z" />
<path fill="#c9273c" opacity="1.00" d=" M 281.66 383.32 C 285.67 383.24 289.68 383.23 293.69 383.26 C 293.66 404.71 293.65 426.15 293.69 447.60 C 289.69 447.60 285.69 447.60 281.69 447.59 C 281.69 426.16 281.75 404.74 281.66 383.32 Z" />
<path fill="#c9273c" opacity="1.00" d=" M 208.44 394.46 C 208.45 390.83 208.45 387.20 208.44 383.57 C 229.80 383.58 251.17 383.58 272.53 383.57 C 272.51 387.20 272.51 390.83 272.53 394.46 C 263.72 394.46 254.91 394.44 246.09 394.47 C 246.21 412.15 246.06 429.83 246.17 447.51 C 242.18 447.64 238.18 447.61 234.19 447.59 C 234.26 429.88 234.19 412.18 234.23 394.47 C 225.63 394.44 217.03 394.46 208.44 394.46 Z" />
<path fill="#c9273c" opacity="1.00" d=" M 394.80 383.58 C 399.58 383.62 404.36 383.50 409.14 383.58 C 410.64 383.23 411.48 384.69 412.38 385.58 C 425.59 401.23 438.84 416.85 452.17 432.41 C 452.07 416.13 452.19 399.86 452.10 383.58 C 456.15 383.57 460.20 383.57 464.26 383.58 C 464.25 404.91 464.24 426.25 464.26 447.59 C 459.11 447.43 453.91 447.95 448.80 447.37 C 434.82 431.23 421.13 414.80 407.38 398.44 C 407.35 414.82 407.36 431.21 407.38 447.59 C 403.18 447.60 398.99 447.60 394.79 447.58 C 394.81 426.25 394.80 404.91 394.80 383.58 Z" />
</g>
<g id="#e93541ff">
<path fill="#e93541" opacity="1.00" d=" M 555.16 399.04 C 558.57 394.81 562.01 390.56 566.08 386.93 C 566.28 387.92 566.66 389.88 566.86 390.87 C 569.01 401.37 573.48 411.29 579.07 420.40 C 579.46 421.02 580.23 422.25 580.61 422.87 C 569.27 424.45 557.96 421.00 547.29 417.50 C 544.78 416.58 542.32 415.53 539.91 414.39 C 542.39 411.30 544.51 407.94 546.88 404.76 C 548.87 401.81 553.21 402.06 555.16 399.04 Z" />
</g>
<g id="#e65f7dff">
<path fill="#e65f7d" opacity="1.00" d=" M 516.99 398.78 C 519.19 400.63 521.51 402.34 523.78 404.12 C 527.33 406.89 530.95 409.60 534.89 411.81 C 530.83 415.42 529.63 420.90 527.23 425.57 C 522.33 417.28 518.47 408.35 516.99 398.78 Z" />
</g>
<g id="#e93e55ff">
<path fill="#e93e55" opacity="1.00" d=" M 649.80 400.80 C 651.27 405.83 650.10 411.39 652.98 416.04 C 651.71 419.79 649.42 423.93 651.99 427.71 C 649.00 434.70 647.90 442.39 647.89 449.96 C 648.01 454.82 647.86 460.03 650.62 464.28 C 636.11 462.74 622.12 457.87 609.53 450.53 L 608.84 450.12 C 612.16 448.87 615.45 447.47 618.44 445.53 C 629.97 438.21 639.53 427.64 645.04 415.09 C 647.10 410.50 648.18 405.55 649.80 400.80 Z" />
</g>
<g id="#ef4852ff">
<path fill="#ef4852" opacity="1.00" d=" M 623.39 411.38 C 626.42 409.61 629.53 407.96 632.50 406.10 C 630.02 419.93 623.04 432.37 618.44 445.53 C 615.45 447.47 612.16 448.87 608.84 450.12 C 606.56 448.71 604.42 447.11 602.31 445.49 C 607.44 436.36 610.25 426.24 613.79 416.46 C 617.11 415.00 620.24 413.17 623.39 411.38 Z" />
</g>
<g id="#e55373ff">
<path fill="#e55373" opacity="1.00" d=" M 534.89 411.81 C 536.53 412.72 538.21 413.57 539.91 414.39 C 542.32 415.53 544.78 416.58 547.29 417.50 C 542.56 422.88 540.00 429.78 534.96 434.93 C 532.16 432.26 529.43 429.51 526.75 426.73 L 527.23 425.57 C 529.63 420.90 530.83 415.42 534.89 411.81 Z" />
</g>
<g id="#e44162ff">
<path fill="#e44162" opacity="1.00" d=" M 547.29 417.50 C 557.96 421.00 569.27 424.45 580.61 422.87 C 581.88 424.78 583.20 426.66 584.63 428.47 C 583.43 432.73 581.37 436.93 582.07 441.48 C 582.54 446.40 580.51 451.07 578.02 455.19 C 570.15 455.31 563.08 451.38 555.38 450.44 C 547.98 446.14 541.33 440.61 534.96 434.93 C 540.00 429.78 542.56 422.88 547.29 417.50 Z" />
</g>
<g id="#ea334dff">
<path fill="#ea334d" opacity="1.00" d=" M 651.99 427.71 C 652.98 426.18 654.03 424.69 655.09 423.21 C 656.92 430.26 656.08 437.60 657.47 444.71 C 658.12 447.85 656.09 451.21 657.82 454.15 C 659.58 457.29 659.87 460.90 659.93 464.42 C 656.82 464.44 653.72 464.44 650.62 464.28 C 647.86 460.03 648.01 454.82 647.89 449.96 C 647.90 442.39 649.00 434.70 651.99 427.71 Z" />
</g>
<g id="#e13955ff">
<path fill="#e13955" opacity="1.00" d=" M 582.07 441.48 C 581.37 436.93 583.43 432.73 584.63 428.47 C 587.19 431.63 589.98 434.60 592.87 437.47 C 595.82 440.36 599.05 442.95 602.31 445.49 C 604.42 447.11 606.56 448.71 608.84 450.12 L 609.53 450.53 C 599.57 454.67 588.73 455.83 578.02 455.19 C 580.51 451.07 582.54 446.40 582.07 441.48 Z" />
</g>
<g id="#56141966">
<path fill="#561419" opacity="0.40" d=" M 719.48 443.22 C 724.73 439.34 729.64 435.01 734.20 430.35 C 737.47 439.65 738.40 449.91 735.64 459.47 C 731.22 476.00 716.45 489.49 699.38 491.66 C 692.07 492.23 684.47 492.33 677.50 489.76 C 669.30 486.76 661.94 481.39 656.76 474.35 C 655.81 473.05 654.69 471.85 653.16 471.31 C 666.78 469.54 680.01 465.39 692.46 459.63 C 697.76 457.39 702.75 454.47 707.64 451.45 C 711.77 448.98 715.76 446.28 719.48 443.22 Z" />
</g>
<g id="#e62738ff">
<path fill="#e62738" opacity="1.00" d=" M 691.97 439.05 C 693.91 438.52 695.93 438.10 697.97 438.27 C 700.88 442.26 702.97 447.59 701.53 452.58 C 703.56 452.22 705.61 451.88 707.64 451.45 C 702.75 454.47 697.76 457.39 692.46 459.63 C 691.37 459.69 690.28 459.73 689.21 459.76 C 687.28 458.79 685.40 457.77 683.55 456.69 C 683.93 454.57 684.58 452.35 683.81 450.24 C 683.43 447.94 681.84 445.46 683.07 443.19 C 685.67 441.16 688.88 440.13 691.97 439.05 Z" />
</g>
<g id="#db4268ff">
<path fill="#db4268" opacity="1.00" d=" M 555.38 450.44 C 563.08 451.38 570.15 455.31 578.02 455.19 C 588.73 455.83 599.57 454.67 609.53 450.53 C 622.12 457.87 636.11 462.74 650.62 464.28 C 653.72 464.44 656.82 464.44 659.93 464.42 C 669.89 464.60 679.69 462.51 689.21 459.76 C 690.28 459.73 691.37 459.69 692.46 459.63 C 680.01 465.39 666.78 469.54 653.16 471.31 C 619.50 476.37 583.89 469.21 555.38 450.44 Z" />
</g>
</svg>
