<?xml version="1.0" encoding="UTF-8" ?>
<!DOCTYPE svg PUBLIC "-//W3C//DTD SVG 1.1//EN" "http://www.w3.org/Graphics/SVG/1.1/DTD/svg11.dtd">
<svg width="500pt" height="213pt" viewBox="0 0 500 213" version="1.1" xmlns="http://www.w3.org/2000/svg">
<g id="#6b13158c">
<path fill="#6b1315" opacity="0.55" d=" M 323.97 9.88 C 334.50 1.52 348.85 -1.80 361.96 1.21 C 357.21 6.11 353.43 11.82 348.94 16.94 C 347.29 18.80 345.76 20.87 345.42 23.40 C 344.78 23.91 344.16 24.42 343.54 24.93 C 339.00 28.32 334.72 32.06 331.00 36.33 C 322.55 44.83 316.75 55.42 311.58 66.11 C 307.49 58.09 305.90 48.86 307.02 39.93 C 308.36 28.19 314.66 17.14 323.97 9.88 Z" />
</g>
<g id="#6c1e188c">
<path fill="#6c1e18" opacity="0.55" d=" M 348.94 16.94 C 353.43 11.82 357.21 6.11 361.96 1.21 C 367.60 2.50 372.97 4.85 377.73 8.14 C 377.28 8.26 376.39 8.50 375.94 8.62 C 365.04 11.80 354.61 16.72 345.42 23.40 C 345.76 20.87 347.29 18.80 348.94 16.94 Z" />
</g>
<g id="#cc2630ff">
<path fill="#cc2630" opacity="1.00" d=" M 377.73 8.14 C 391.15 4.78 405.25 3.89 418.89 6.40 C 442.01 10.31 463.63 22.87 478.24 41.25 C 471.45 37.41 465.71 31.87 458.40 28.93 C 455.54 27.71 452.59 26.75 449.59 25.98 C 445.72 25.05 441.83 24.25 437.88 23.84 C 434.37 23.80 430.86 24.04 427.39 24.56 C 416.24 26.28 405.62 31.24 397.24 38.80 C 396.35 28.11 389.69 19.06 382.36 11.70 C 380.70 9.85 378.36 8.93 375.94 8.62 C 376.39 8.50 377.28 8.26 377.73 8.14 Z" />
</g>
<g id="#d62630ff">
<path fill="#d62630" opacity="1.00" d=" M 345.42 23.40 C 354.61 16.72 365.04 11.80 375.94 8.62 C 378.36 8.93 380.70 9.85 382.36 11.70 C 389.69 19.06 396.35 28.11 397.24 38.80 C 395.74 40.17 394.32 41.61 392.94 43.10 C 390.11 37.36 386.30 32.03 381.14 28.17 C 375.05 23.72 367.56 21.09 359.98 21.31 C 354.28 21.18 348.90 23.28 343.54 24.93 C 344.16 24.42 344.78 23.91 345.42 23.40 Z" />
</g>
<g id="#e65866ff">
<path fill="#e65866" opacity="1.00" d=" M 343.54 24.93 C 348.90 23.28 354.28 21.18 359.98 21.31 C 367.56 21.09 375.05 23.72 381.14 28.17 C 371.39 32.12 362.20 37.59 354.59 44.91 C 343.99 47.23 334.23 52.29 325.82 59.09 C 324.90 51.08 328.00 43.56 331.00 36.33 C 334.72 32.06 339.00 28.32 343.54 24.93 Z" />
</g>
<g id="#ea5c63ff">
<path fill="#ea5c63" opacity="1.00" d=" M 427.39 24.56 C 430.86 24.04 434.37 23.80 437.88 23.84 C 436.62 25.28 435.28 26.73 434.65 28.57 C 431.87 36.29 429.90 44.29 427.10 52.00 C 425.41 56.67 424.93 61.77 422.34 66.10 C 419.48 65.85 416.60 65.84 413.74 66.14 L 412.91 65.44 C 415.52 59.57 416.92 53.27 419.35 47.34 C 422.13 39.77 423.24 31.59 427.39 24.56 Z" />
</g>
<g id="#e74747ff">
<path fill="#e74747" opacity="1.00" d=" M 437.88 23.84 C 441.83 24.25 445.72 25.05 449.59 25.98 C 447.94 27.48 445.81 28.65 444.76 30.67 C 442.33 42.64 437.69 54.07 434.64 65.88 C 434.98 68.87 438.96 68.98 441.18 70.05 C 439.75 74.71 438.22 79.40 435.51 83.49 C 435.21 83.12 434.61 82.37 434.31 81.99 C 432.03 81.49 429.70 81.18 427.40 80.84 C 429.11 76.73 431.21 72.66 431.73 68.18 C 428.87 66.61 425.50 66.50 422.34 66.10 C 424.93 61.77 425.41 56.67 427.10 52.00 C 429.90 44.29 431.87 36.29 434.65 28.57 C 435.28 26.73 436.62 25.28 437.88 23.84 Z" />
</g>
<g id="#ec6f79ff">
<path fill="#ec6f79" opacity="1.00" d=" M 397.24 38.80 C 405.62 31.24 416.24 26.28 427.39 24.56 C 423.24 31.59 422.13 39.77 419.35 47.34 C 416.92 53.27 415.52 59.57 412.91 65.44 C 408.26 60.52 403.18 56.05 397.37 52.54 L 396.89 52.22 C 396.94 49.66 396.98 47.11 397.02 44.55 C 396.11 44.79 395.21 45.02 394.32 45.25 C 393.87 44.83 392.97 43.98 392.52 43.55 L 392.94 43.10 C 394.32 41.61 395.74 40.17 397.24 38.80 Z" />
</g>
<g id="#e53030ff">
<path fill="#e53030" opacity="1.00" d=" M 449.59 25.98 C 452.59 26.75 455.54 27.71 458.40 28.93 C 458.33 29.68 458.27 30.42 458.22 31.17 C 456.88 32.68 455.44 34.24 455.15 36.32 C 453.62 43.83 452.08 51.34 449.77 58.65 C 448.48 61.99 450.47 65.19 451.85 68.13 C 453.05 70.33 452.63 72.93 452.66 75.34 L 452.08 75.02 C 448.54 73.17 444.99 71.29 441.18 70.05 C 438.96 68.98 434.98 68.87 434.64 65.88 C 437.69 54.07 442.33 42.64 444.76 30.67 C 445.81 28.65 447.94 27.48 449.59 25.98 Z" />
</g>
<g id="#e84b59ff">
<path fill="#e84b59" opacity="1.00" d=" M 381.14 28.17 C 386.30 32.03 390.11 37.36 392.94 43.10 L 392.52 43.55 C 391.19 45.01 389.88 46.48 388.57 47.95 C 379.11 44.86 369.15 43.45 359.22 44.59 C 357.67 44.67 356.13 44.78 354.59 44.91 C 362.20 37.59 371.39 32.12 381.14 28.17 Z" />
</g>
<g id="#e01f22ff">
<path fill="#e01f22" opacity="1.00" d=" M 458.40 28.93 C 465.71 31.87 471.45 37.41 478.24 41.25 C 484.72 49.07 489.85 58.03 493.43 67.53 C 493.26 74.06 494.99 80.52 494.13 87.04 C 493.63 92.42 492.45 97.77 489.85 102.54 C 489.75 95.72 489.80 88.89 489.79 82.07 C 485.91 82.04 482.04 81.94 478.18 81.96 C 476.11 85.41 473.98 88.81 471.89 92.25 C 466.66 85.44 460.25 79.43 452.66 75.34 C 452.63 72.93 453.05 70.33 451.85 68.13 C 450.47 65.19 448.48 61.99 449.77 58.65 C 452.08 51.34 453.62 43.83 455.15 36.32 C 455.44 34.24 456.88 32.68 458.22 31.17 C 458.27 30.42 458.33 29.68 458.40 28.93 Z" />
</g>
<g id="#db2e43ff">
<path fill="#db2e43" opacity="1.00" d=" M 311.58 66.11 C 316.75 55.42 322.55 44.83 331.00 36.33 C 328.00 43.56 324.90 51.08 325.82 59.09 L 325.91 59.80 C 322.00 63.35 318.04 66.99 315.28 71.54 C 314.06 69.87 312.85 68.20 311.75 66.45 C 311.70 66.37 311.62 66.19 311.58 66.11 Z" />
</g>
<g id="#f07673ff">
<path fill="#f07673" opacity="1.00" d=" M 359.22 44.59 C 369.15 43.45 379.11 44.86 388.57 47.95 C 389.88 46.48 391.19 45.01 392.52 43.55 C 392.97 43.98 393.87 44.83 394.32 45.25 C 395.21 45.02 396.11 44.79 397.02 44.55 C 396.98 47.11 396.94 49.66 396.89 52.22 C 394.44 50.64 392.00 48.80 389.05 48.35 C 385.84 51.38 384.30 55.67 382.56 59.63 C 379.59 66.65 378.50 74.24 377.73 81.77 C 376.88 82.88 375.98 83.94 375.06 84.99 C 373.02 85.91 370.91 86.69 368.82 87.48 C 368.83 85.54 368.85 83.59 368.89 81.64 C 367.06 80.83 365.22 80.05 363.38 79.27 C 366.21 71.50 366.23 62.75 363.07 55.08 C 361.63 51.64 361.04 47.88 359.22 44.59 Z" />
</g>
<g id="#f05d64ff">
<path fill="#f05d64" opacity="1.00" d=" M 325.82 59.09 C 334.23 52.29 343.99 47.23 354.59 44.91 C 356.13 44.78 357.67 44.67 359.22 44.59 C 361.04 47.88 361.63 51.64 363.07 55.08 C 366.23 62.75 366.21 71.50 363.38 79.27 C 365.22 80.05 367.06 80.83 368.89 81.64 C 366.08 81.72 363.27 81.73 360.47 81.69 C 360.38 84.57 360.35 87.45 360.37 90.33 C 357.98 90.56 355.58 90.42 353.24 89.89 C 353.31 87.19 353.33 84.50 353.34 81.81 C 340.17 81.74 327.00 82.16 313.83 81.75 C 316.98 81.45 320.14 81.24 323.32 81.26 C 327.71 81.37 332.10 81.40 336.50 81.18 C 330.90 75.30 327.07 67.88 325.91 59.80 L 325.82 59.09 Z" />
</g>
<g id="#f9afaeff">
<path fill="#f9afae" opacity="1.00" d=" M 382.56 59.63 C 384.30 55.67 385.84 51.38 389.05 48.35 C 392.00 48.80 394.44 50.64 396.89 52.22 L 397.37 52.54 C 395.74 56.99 394.86 61.70 392.93 66.03 C 391.00 69.74 388.29 72.97 385.99 76.43 C 383.74 77.98 381.15 79.18 379.42 81.34 C 378.78 83.57 378.75 85.92 378.69 88.22 C 378.33 86.08 377.97 83.93 377.73 81.77 C 378.50 74.24 379.59 66.65 382.56 59.63 Z" />
</g>
<g id="#f4a2a4ff">
<path fill="#f4a2a4" opacity="1.00" d=" M 397.37 52.54 C 403.18 56.05 408.26 60.52 412.91 65.44 L 413.74 66.14 L 412.51 66.43 C 403.10 68.05 394.26 71.76 385.99 76.43 C 388.29 72.97 391.00 69.74 392.93 66.03 C 394.86 61.70 395.74 56.99 397.37 52.54 Z" />
</g>
<g id="#e62d39ff">
<path fill="#e62d39" opacity="1.00" d=" M 315.28 71.54 C 318.04 66.99 322.00 63.35 325.91 59.80 C 327.07 67.88 330.90 75.30 336.50 81.18 C 332.10 81.40 327.71 81.37 323.32 81.26 C 320.70 78.10 317.82 75.17 314.72 72.48 C 314.86 72.25 315.14 71.78 315.28 71.54 Z" />
</g>
<g id="#f36765ff">
<path fill="#f36765" opacity="1.00" d=" M 413.74 66.14 C 416.60 65.84 419.48 65.85 422.34 66.10 C 425.50 66.50 428.87 66.61 431.73 68.18 C 431.21 72.66 429.11 76.73 427.40 80.84 C 429.70 81.18 432.03 81.49 434.31 81.99 C 430.33 82.14 426.35 82.12 422.38 81.81 C 421.30 78.53 419.93 75.33 418.02 72.44 C 419.11 70.64 420.18 68.84 421.25 67.03 C 418.76 66.84 416.28 66.64 413.80 66.49 L 412.51 66.43 L 413.74 66.14 Z" />
</g>
<g id="#d73c5bff">
<path fill="#d73c5b" opacity="1.00" d=" M 311.75 66.45 C 312.85 68.20 314.06 69.87 315.28 71.54 C 315.14 71.78 314.86 72.25 314.72 72.48 C 309.69 80.04 307.57 88.87 305.08 97.46 C 305.40 86.81 308.00 76.38 311.75 66.45 Z" />
</g>
<g id="#fbbabaff">
<path fill="#fbbaba" opacity="1.00" d=" M 385.99 76.43 C 394.26 71.76 403.10 68.05 412.51 66.43 L 413.80 66.49 C 414.68 67.74 415.58 69.00 416.48 70.25 C 408.82 76.89 403.26 85.44 397.96 93.98 C 395.33 97.93 392.35 101.66 390.34 105.99 C 389.28 98.13 390.54 90.19 389.64 82.32 L 388.55 82.11 C 385.65 81.78 382.73 81.78 379.82 81.76 C 379.85 85.92 379.77 90.07 379.72 94.23 C 379.43 92.22 379.01 90.23 378.69 88.22 C 378.75 85.92 378.78 83.57 379.42 81.34 C 381.15 79.18 383.74 77.98 385.99 76.43 Z" />
</g>
<g id="#f68588ff">
<path fill="#f68588" opacity="1.00" d=" M 413.80 66.49 C 416.28 66.64 418.76 66.84 421.25 67.03 C 420.18 68.84 419.11 70.64 418.02 72.44 C 417.51 71.70 417.00 70.97 416.48 70.25 C 415.58 69.00 414.68 67.74 413.80 66.49 Z" />
</g>
<g id="#d22a33ff">
<path fill="#d22a33" opacity="1.00" d=" M 493.43 67.53 C 501.32 87.77 502.05 110.75 495.52 131.47 C 495.12 129.40 494.64 127.36 494.17 125.31 C 492.72 125.80 491.28 126.31 489.82 126.75 C 489.82 118.68 489.72 110.61 489.85 102.54 C 492.45 97.77 493.63 92.42 494.13 87.04 C 494.99 80.52 493.26 74.06 493.43 67.53 Z" />
</g>
<g id="#faaca8ff">
<path fill="#faaca8" opacity="1.00" d=" M 416.48 70.25 C 417.00 70.97 417.51 71.70 418.02 72.44 C 419.93 75.33 421.30 78.53 422.38 81.81 C 421.39 89.58 422.36 97.42 421.83 105.21 C 421.63 102.35 421.29 99.50 421.24 96.63 C 421.40 91.75 421.35 86.86 420.84 82.00 C 414.12 88.18 407.18 94.31 402.07 101.94 C 398.62 107.12 394.57 111.94 391.95 117.63 C 390.76 116.98 389.56 116.33 388.38 115.68 C 388.64 104.49 388.40 93.30 388.55 82.11 L 389.64 82.32 C 390.54 90.19 389.28 98.13 390.34 105.99 C 392.35 101.66 395.33 97.93 397.96 93.98 C 403.26 85.44 408.82 76.89 416.48 70.25 Z" />
</g>
<g id="#ef2a2eff">
<path fill="#ef2a2e" opacity="1.00" d=" M 441.18 70.05 C 444.99 71.29 448.54 73.17 452.08 75.02 C 450.31 79.47 449.20 84.13 449.31 88.94 C 448.28 93.46 449.39 98.46 446.89 102.59 C 443.01 96.27 439.35 89.83 435.51 83.49 C 438.22 79.40 439.75 74.71 441.18 70.05 Z" />
</g>
<g id="#e22942ff">
<path fill="#e22942" opacity="1.00" d=" M 305.08 97.46 C 307.57 88.87 309.69 80.04 314.72 72.48 C 317.82 75.17 320.70 78.10 323.32 81.26 C 320.14 81.24 316.98 81.45 313.83 81.75 C 313.85 96.88 313.85 112.01 313.86 127.13 C 316.74 127.12 319.63 127.11 322.52 127.07 C 322.49 121.01 322.49 114.94 322.52 108.88 C 327.84 108.88 333.16 108.88 338.48 108.88 C 331.63 116.08 326.11 124.84 324.56 134.81 C 323.59 139.61 323.58 144.54 324.16 149.39 C 321.28 146.70 318.57 143.83 316.34 140.57 C 313.34 136.45 311.59 131.56 308.28 127.65 C 305.56 117.87 304.44 107.59 305.08 97.46 Z" />
</g>
<g id="#ed2023ff">
<path fill="#ed2023" opacity="1.00" d=" M 452.08 75.02 L 452.66 75.34 C 460.25 79.43 466.66 85.44 471.89 92.25 C 466.61 100.86 461.30 109.45 456.02 118.06 C 453.00 112.89 449.93 107.74 446.89 102.59 C 449.39 98.46 448.28 93.46 449.31 88.94 C 449.20 84.13 450.31 79.47 452.08 75.02 Z" />
</g>
<g id="#000000ff">
<path fill="#000000" opacity="1.00" d=" M 151.88 85.96 C 157.29 81.78 164.36 80.61 171.03 80.53 C 179.40 80.57 187.85 82.52 195.07 86.85 C 193.62 89.17 192.03 91.40 190.32 93.52 C 183.37 89.46 175.01 88.15 167.06 88.55 C 163.07 89.03 157.27 90.18 156.68 95.02 C 156.21 97.46 159.04 98.45 160.91 98.85 C 169.39 100.49 178.28 99.86 186.54 102.64 C 190.35 103.91 194.09 106.84 194.45 111.12 C 195.15 117.53 190.46 123.29 184.89 125.86 C 178.42 129.09 170.99 129.05 163.96 128.49 C 156.92 127.79 149.87 125.44 144.51 120.69 C 146.43 118.50 148.37 116.32 150.28 114.12 C 158.18 120.57 169.15 122.28 178.90 119.80 C 181.76 119.04 184.85 117.25 185.30 114.03 C 185.48 110.84 182.08 109.44 179.49 108.90 C 171.18 107.37 162.47 108.23 154.41 105.39 C 151.48 104.37 148.67 102.37 147.60 99.34 C 145.57 94.58 147.92 88.96 151.88 85.96 Z" />
<path fill="#000000" opacity="1.00" d=" M 0.04 81.58 C 3.46 81.60 6.87 81.60 10.28 81.57 C 16.61 94.10 23.05 106.57 29.21 119.19 C 36.66 106.74 43.97 94.21 51.22 81.64 C 54.16 81.59 57.11 81.58 60.06 81.60 C 51.14 96.87 42.19 112.11 33.16 127.31 C 30.19 127.31 27.22 127.30 24.25 127.24 C 16.29 111.97 8.10 96.81 0.04 81.58 Z" />
<path fill="#000000" opacity="1.00" d=" M 65.55 81.58 C 68.42 81.59 71.28 81.60 74.14 81.61 C 74.14 96.84 74.14 112.06 74.14 127.28 C 71.28 127.30 68.42 127.30 65.56 127.31 C 65.54 112.07 65.55 96.82 65.55 81.58 Z" />
<path fill="#000000" opacity="1.00" d=" M 82.14 127.30 C 91.36 112.09 100.37 96.74 109.61 81.53 C 113.07 81.60 116.54 81.60 120.00 81.61 C 127.90 96.85 135.77 112.10 143.73 127.31 C 140.39 127.29 137.05 127.29 133.71 127.34 C 131.64 123.44 129.73 119.47 127.79 115.51 C 118.28 115.51 108.77 115.43 99.26 115.55 C 97.12 119.49 94.83 123.34 92.70 127.29 C 89.18 127.30 85.66 127.30 82.14 127.30 M 103.79 107.63 C 110.48 107.67 117.18 107.64 123.87 107.65 C 120.77 101.38 117.63 95.12 114.52 88.85 C 110.74 94.99 107.35 101.36 103.79 107.63 Z" />
<path fill="#000000" opacity="1.00" d=" M 222.20 81.66 C 225.74 81.57 229.28 81.57 232.83 81.62 C 240.68 96.87 248.59 112.08 256.52 127.29 C 253.20 127.29 249.88 127.29 246.56 127.36 C 244.48 123.59 242.67 119.68 240.75 115.82 L 240.17 115.47 C 230.82 115.54 221.47 115.44 212.12 115.52 C 209.87 119.46 207.70 123.46 205.36 127.35 C 201.89 127.29 198.43 127.29 194.96 127.29 C 204.07 112.10 213.24 96.94 222.20 81.66 M 216.53 107.68 C 223.25 107.61 229.97 107.67 236.69 107.64 C 233.56 101.38 230.48 95.09 227.32 88.84 C 223.53 95.01 220.15 101.42 216.53 107.68 Z" />
<path fill="#000000" opacity="1.00" d=" M 252.23 81.82 C 267.53 81.82 282.83 81.81 298.13 81.83 C 298.13 84.41 298.10 86.99 297.98 89.57 C 291.70 89.52 285.43 89.54 279.16 89.55 C 279.18 102.13 279.17 114.71 279.17 127.29 C 276.31 127.30 273.45 127.30 270.59 127.30 C 270.58 114.71 270.62 102.11 270.57 89.52 C 264.46 89.57 258.35 89.52 252.24 89.56 C 252.23 86.98 252.22 84.40 252.23 81.82 Z" />
</g>
<g id="#ffffffff">
<path fill="#ffffff" opacity="1.00" d=" M 313.83 81.75 C 327.00 82.16 340.17 81.74 353.34 81.81 C 353.33 84.50 353.31 87.19 353.24 89.89 C 343.04 88.88 332.73 89.70 322.49 89.42 C 322.49 93.40 322.49 97.38 322.48 101.37 C 332.18 101.16 341.91 101.74 351.59 101.08 C 351.65 103.69 351.69 106.30 351.58 108.91 C 347.21 108.87 342.84 108.88 338.48 108.88 C 333.16 108.88 327.84 108.88 322.52 108.88 C 322.49 114.94 322.49 121.01 322.52 127.07 C 319.63 127.11 316.74 127.12 313.86 127.13 C 313.85 112.01 313.85 96.88 313.83 81.75 Z" />
<path fill="#ffffff" opacity="1.00" d=" M 360.37 90.33 C 360.35 87.45 360.38 84.57 360.47 81.69 C 363.27 81.73 366.08 81.72 368.89 81.64 C 368.85 83.59 368.83 85.54 368.82 87.48 C 368.81 89.17 368.81 90.85 368.82 92.53 C 368.85 104.07 368.86 115.61 368.80 127.14 C 365.98 127.15 363.16 127.13 360.34 127.09 C 360.40 121.51 360.37 115.92 360.21 110.34 C 360.45 106.35 360.39 102.36 360.38 98.37 C 360.38 95.69 360.38 93.01 360.37 90.33 Z" />
<path fill="#ffffff" opacity="1.00" d=" M 379.82 81.76 C 382.73 81.78 385.65 81.78 388.55 82.11 C 388.40 93.30 388.64 104.49 388.38 115.68 C 388.37 116.68 388.35 118.68 388.34 119.68 C 390.75 119.62 393.16 119.59 395.58 119.51 C 397.84 119.48 400.11 119.48 402.37 119.42 C 406.73 119.58 411.12 119.27 415.45 119.88 C 415.43 122.33 415.39 124.78 415.34 127.23 C 407.76 127.22 400.18 127.18 392.61 127.34 C 388.35 127.01 384.08 126.99 379.81 127.11 C 379.74 116.15 379.75 105.19 379.72 94.23 C 379.77 90.07 379.85 85.92 379.82 81.76 Z" />
<path fill="#ffffff" opacity="1.00" d=" M 421.83 105.21 C 422.36 97.42 421.39 89.58 422.38 81.81 C 426.35 82.12 430.33 82.14 434.31 81.99 C 434.61 82.37 435.21 83.12 435.51 83.49 C 439.35 89.83 443.01 96.27 446.89 102.59 C 449.93 107.74 453.00 112.89 456.02 118.06 C 461.30 109.45 466.61 100.86 471.89 92.25 C 473.98 88.81 476.11 85.41 478.18 81.96 C 482.04 81.94 485.91 82.04 489.79 82.07 C 489.80 88.89 489.75 95.72 489.85 102.54 C 489.72 110.61 489.82 118.68 489.82 126.75 C 486.95 127.22 484.03 127.13 481.14 127.09 C 481.37 115.22 481.18 103.34 481.24 91.47 C 473.85 103.33 466.59 115.26 459.26 127.15 C 456.71 127.15 454.16 127.15 451.61 127.16 C 444.55 115.27 437.41 103.42 430.30 91.56 C 430.24 103.42 430.26 115.27 430.24 127.13 C 427.40 127.07 424.56 127.06 421.73 127.11 C 422.14 119.82 421.86 112.51 421.83 105.21 Z" />
</g>
<g id="#f78589ff">
<path fill="#f78589" opacity="1.00" d=" M 375.06 84.99 C 375.98 83.94 376.88 82.88 377.73 81.77 C 377.97 83.93 378.33 86.08 378.69 88.22 C 379.01 90.23 379.43 92.22 379.72 94.23 C 379.75 105.19 379.74 116.15 379.81 127.11 C 384.08 126.99 388.35 127.01 392.61 127.34 L 391.34 127.50 C 388.89 127.78 386.45 128.05 384.01 128.29 C 383.28 133.30 380.17 137.40 378.08 141.89 C 374.44 149.56 370.78 157.25 366.33 164.49 C 362.74 158.28 359.63 151.72 358.11 144.67 C 356.61 137.85 355.94 130.82 356.52 123.84 C 357.26 119.22 358.05 114.54 360.21 110.34 C 360.37 115.92 360.40 121.51 360.34 127.09 C 363.16 127.13 365.98 127.15 368.80 127.14 C 368.86 115.61 368.85 104.07 368.82 92.53 C 370.95 90.06 372.96 87.49 375.06 84.99 Z" />
</g>
<g id="#f8978fff">
<path fill="#f8978f" opacity="1.00" d=" M 402.07 101.94 C 407.18 94.31 414.12 88.18 420.84 82.00 C 421.35 86.86 421.40 91.75 421.24 96.63 C 418.98 101.63 414.06 104.47 410.69 108.60 C 406.69 113.48 401.34 117.04 395.58 119.51 C 393.16 119.59 390.75 119.62 388.34 119.68 C 388.35 118.68 388.37 116.68 388.38 115.68 C 389.56 116.33 390.76 116.98 391.95 117.63 C 394.57 111.94 398.62 107.12 402.07 101.94 Z" />
</g>
<g id="#eb545dff">
<path fill="#eb545d" opacity="1.00" d=" M 368.82 87.48 C 370.91 86.69 373.02 85.91 375.06 84.99 C 372.96 87.49 370.95 90.06 368.82 92.53 C 368.81 90.85 368.81 89.17 368.82 87.48 Z" />
</g>
<g id="#e43244ff">
<path fill="#e43244" opacity="1.00" d=" M 322.49 89.42 C 332.73 89.70 343.04 88.88 353.24 89.89 C 355.58 90.42 357.98 90.56 360.37 90.33 C 360.38 93.01 360.38 95.69 360.38 98.37 C 357.34 98.88 354.41 99.85 351.59 101.08 C 341.91 101.74 332.18 101.16 322.48 101.37 C 322.49 97.38 322.49 93.40 322.49 89.42 Z" />
</g>
<g id="#ef2a30ff">
<path fill="#ef2a30" opacity="1.00" d=" M 430.30 91.56 C 437.41 103.42 444.55 115.27 451.61 127.16 C 453.02 130.17 456.66 129.18 459.33 129.55 C 459.41 131.26 459.49 132.98 459.58 134.69 C 458.15 135.34 456.70 135.96 455.24 136.52 C 444.73 140.13 432.85 141.21 422.32 137.08 C 422.87 134.21 425.45 130.96 423.49 128.16 C 425.72 127.76 427.98 127.46 430.24 127.13 C 430.26 115.27 430.24 103.42 430.30 91.56 Z" />
</g>
<g id="#ea191aff">
<path fill="#ea191a" opacity="1.00" d=" M 459.26 127.15 C 466.59 115.26 473.85 103.33 481.24 91.47 C 481.18 103.34 481.37 115.22 481.14 127.09 C 480.01 125.30 479.85 123.16 479.49 121.14 C 473.33 126.31 467.05 131.49 459.58 134.69 C 459.49 132.98 459.41 131.26 459.33 129.55 C 456.66 129.18 453.02 130.17 451.61 127.16 C 454.16 127.15 456.71 127.15 459.26 127.15 Z" />
</g>
<g id="#f88478ff">
<path fill="#f88478" opacity="1.00" d=" M 410.69 108.60 C 414.06 104.47 418.98 101.63 421.24 96.63 C 421.29 99.50 421.63 102.35 421.83 105.21 C 421.86 112.51 422.14 119.82 421.73 127.11 C 421.30 123.67 421.06 120.20 421.13 116.73 C 421.23 113.23 421.09 109.72 421.00 106.22 C 418.44 109.55 415.52 112.60 412.37 115.39 C 409.67 117.96 405.71 118.12 402.37 119.42 C 400.11 119.48 397.84 119.48 395.58 119.51 C 401.34 117.04 406.69 113.48 410.69 108.60 Z" />
</g>
<g id="#ec5964ff">
<path fill="#ec5964" opacity="1.00" d=" M 351.59 101.08 C 354.41 99.85 357.34 98.88 360.38 98.37 C 360.39 102.36 360.45 106.35 360.21 110.34 C 358.05 114.54 357.26 119.22 356.52 123.84 C 354.69 127.39 352.12 130.52 348.97 132.97 C 344.94 136.04 342.59 140.63 339.18 144.28 C 336.12 147.58 333.60 151.31 330.96 154.95 C 328.70 153.27 326.47 151.55 324.22 149.87 L 324.16 149.39 C 323.58 144.54 323.59 139.61 324.56 134.81 C 324.72 135.60 325.04 137.20 325.20 138.00 C 327.12 134.18 329.64 130.71 332.75 127.77 C 335.85 124.94 336.41 120.35 339.67 117.65 C 341.99 115.52 344.07 113.14 345.86 110.54 C 347.75 110.22 349.64 109.92 351.53 109.53 L 351.58 108.91 C 351.69 106.30 351.65 103.69 351.59 101.08 Z" />
</g>
<g id="#f77768ff">
<path fill="#f77768" opacity="1.00" d=" M 412.37 115.39 C 415.52 112.60 418.44 109.55 421.00 106.22 C 421.09 109.72 421.23 113.23 421.13 116.73 C 420.33 118.63 419.40 120.46 418.48 122.28 C 417.47 121.47 416.47 120.67 415.45 119.88 C 411.12 119.27 406.73 119.58 402.37 119.42 C 405.71 118.12 409.67 117.96 412.37 115.39 Z" />
</g>
<g id="#ec6975ff">
<path fill="#ec6975" opacity="1.00" d=" M 338.48 108.88 C 342.84 108.88 347.21 108.87 351.58 108.91 L 351.53 109.53 C 349.64 109.92 347.75 110.22 345.86 110.54 C 344.07 113.14 341.99 115.52 339.67 117.65 C 336.41 120.35 335.85 124.94 332.75 127.77 C 329.64 130.71 327.12 134.18 325.20 138.00 C 325.04 137.20 324.72 135.60 324.56 134.81 C 326.11 124.84 331.63 116.08 338.48 108.88 Z" />
</g>
<g id="#f4524eff">
<path fill="#f4524e" opacity="1.00" d=" M 418.48 122.28 C 419.40 120.46 420.33 118.63 421.13 116.73 C 421.06 120.20 421.30 123.67 421.73 127.11 C 424.56 127.06 427.40 127.07 430.24 127.13 C 427.98 127.46 425.72 127.76 423.49 128.16 C 421.73 130.77 420.48 133.68 418.88 136.38 C 417.60 138.44 416.25 140.45 414.77 142.36 C 409.93 147.28 405.18 152.33 399.70 156.54 C 395.48 159.12 390.99 161.24 386.40 163.05 C 384.65 163.43 382.88 163.72 381.12 164.02 C 383.80 159.90 386.22 155.63 388.24 151.15 C 392.06 143.64 396.37 136.39 401.05 129.39 C 402.84 129.50 404.63 129.59 406.43 129.62 C 401.85 127.07 396.28 128.81 391.34 127.50 L 392.61 127.34 C 400.18 127.18 407.76 127.22 415.34 127.23 C 415.39 124.78 415.43 122.33 415.45 119.88 C 416.47 120.67 417.47 121.47 418.48 122.28 Z" />
</g>
<g id="#e3262dff">
<path fill="#e3262d" opacity="1.00" d=" M 459.58 134.69 C 467.05 131.49 473.33 126.31 479.49 121.14 C 479.85 123.16 480.01 125.30 481.14 127.09 C 482.25 127.55 483.37 127.97 484.50 128.41 C 484.50 138.82 482.39 149.29 477.43 158.50 C 474.58 164.58 469.95 169.57 466.85 175.50 C 461.77 180.22 456.00 184.14 449.99 187.58 C 447.77 186.49 444.77 185.67 444.10 182.93 C 443.22 179.26 445.79 175.73 445.01 172.01 C 443.89 165.61 444.44 158.53 440.38 153.04 C 445.30 152.40 450.24 152.73 455.10 153.66 C 455.69 147.89 452.30 142.08 455.24 136.52 C 456.70 135.96 458.15 135.34 459.58 134.69 Z" />
</g>
<g id="#eb444eff">
<path fill="#eb444e" opacity="1.00" d=" M 348.97 132.97 C 352.12 130.52 354.69 127.39 356.52 123.84 C 355.94 130.82 356.61 137.85 358.11 144.67 C 353.63 151.16 346.28 154.73 341.87 161.26 C 340.88 160.87 339.91 160.46 338.95 160.03 C 336.12 158.62 333.50 156.82 330.96 154.95 C 333.60 151.31 336.12 147.58 339.18 144.28 C 342.59 140.63 344.94 136.04 348.97 132.97 Z" />
</g>
<g id="#d4303fff">
<path fill="#d4303f" opacity="1.00" d=" M 489.82 126.75 C 491.28 126.31 492.72 125.80 494.17 125.31 C 494.64 127.36 495.12 129.40 495.52 131.47 C 490.95 146.37 482.58 160.04 471.66 171.15 C 470.12 172.67 468.46 174.07 466.85 175.50 C 469.95 169.57 474.58 164.58 477.43 158.50 C 482.39 149.29 484.50 138.82 484.50 128.41 C 483.37 127.97 482.25 127.55 481.14 127.09 C 484.03 127.13 486.95 127.22 489.82 126.75 Z" />
</g>
<g id="#dd456fff">
<path fill="#dd456f" opacity="1.00" d=" M 308.28 127.65 C 311.59 131.56 313.34 136.45 316.34 140.57 C 318.57 143.83 321.28 146.70 324.16 149.39 L 324.22 149.87 C 324.71 156.21 328.25 161.63 329.98 167.63 C 319.65 156.33 312.11 142.48 308.28 127.65 Z" />
</g>
<g id="#f5696fff">
<path fill="#f5696f" opacity="1.00" d=" M 384.01 128.29 C 386.45 128.05 388.89 127.78 391.34 127.50 C 396.28 128.81 401.85 127.07 406.43 129.62 C 404.63 129.59 402.84 129.50 401.05 129.39 C 396.37 136.39 392.06 143.64 388.24 151.15 C 386.22 155.63 383.80 159.90 381.12 164.02 C 382.88 163.72 384.65 163.43 386.40 163.05 C 385.05 168.79 382.57 174.17 379.54 179.20 C 375.02 175.34 370.66 171.19 367.36 166.22 C 367.10 165.79 366.59 164.92 366.33 164.49 C 370.78 157.25 374.44 149.56 378.08 141.89 C 380.17 137.40 383.28 133.30 384.01 128.29 Z" />
</g>
<g id="#e82f3eff">
<path fill="#e82f3e" opacity="1.00" d=" M 418.88 136.38 C 420.48 133.68 421.73 130.77 423.49 128.16 C 425.45 130.96 422.87 134.21 422.32 137.08 C 432.85 141.21 444.73 140.13 455.24 136.52 C 452.30 142.08 455.69 147.89 455.10 153.66 C 450.24 152.73 445.30 152.40 440.38 153.04 C 444.44 158.53 443.89 165.61 445.01 172.01 C 445.79 175.73 443.22 179.26 444.10 182.93 C 444.77 185.67 447.77 186.49 449.99 187.58 C 447.77 188.79 445.51 189.93 443.20 190.95 C 434.01 193.05 424.66 195.18 415.18 193.80 C 414.45 190.16 413.81 186.50 413.34 182.82 C 414.67 182.11 416.01 181.41 417.36 180.71 C 418.21 177.68 418.90 174.47 417.74 171.42 C 416.15 167.01 419.99 163.45 422.25 160.14 C 424.52 157.19 424.07 153.17 423.14 149.81 C 422.17 146.68 422.97 143.39 422.57 140.20 C 421.74 138.61 420.12 137.62 418.88 136.38 Z" />
</g>
<g id="#e93c52ff">
<path fill="#e93c52" opacity="1.00" d=" M 414.77 142.36 C 416.25 140.45 417.60 138.44 418.88 136.38 C 420.12 137.62 421.74 138.61 422.57 140.20 C 422.97 143.39 422.17 146.68 423.14 149.81 C 424.07 153.17 424.52 157.19 422.25 160.14 C 419.99 163.45 416.15 167.01 417.74 171.42 C 418.90 174.47 418.21 177.68 417.36 180.71 C 416.01 181.41 414.67 182.11 413.34 182.82 C 413.81 186.50 414.45 190.16 415.18 193.80 C 404.98 193.72 395.71 189.15 386.75 184.79 L 387.22 184.56 C 388.29 183.97 389.36 183.36 390.43 182.73 C 405.32 175.33 415.14 158.95 414.77 142.36 Z" />
</g>
<g id="#c9273cff">
<path fill="#c9273c" opacity="1.00" d=" M 79.26 140.28 C 89.78 136.54 101.86 138.21 111.36 143.91 C 110.33 145.83 109.29 147.75 108.26 149.67 C 99.75 145.37 89.32 143.46 80.30 147.30 C 74.55 149.66 70.63 155.78 71.25 162.02 C 71.10 168.00 75.45 173.41 81.06 175.17 C 90.42 178.22 101.15 175.81 108.60 169.44 C 109.94 171.38 111.25 173.36 112.56 175.33 C 106.01 181.40 96.80 183.75 88.05 183.52 C 81.37 183.17 74.30 181.43 69.39 176.61 C 63.44 170.85 61.65 161.38 64.69 153.73 C 67.14 147.30 72.87 142.53 79.26 140.28 Z" />
<path fill="#c9273c" opacity="1.00" d=" M 201.50 138.67 C 210.11 137.44 219.50 138.20 226.88 143.18 C 232.76 147.07 236.66 153.90 236.47 161.02 C 236.73 167.88 233.08 174.55 227.44 178.39 C 220.68 183.02 212.11 184.21 204.09 183.48 C 196.88 182.70 189.46 179.96 184.77 174.19 C 178.56 166.87 178.70 155.15 184.81 147.81 C 188.91 142.71 195.16 139.82 201.50 138.67 M 201.44 146.64 C 193.92 147.99 187.67 155.24 189.04 163.07 C 189.67 169.74 195.83 174.22 202.02 175.32 C 209.01 176.50 216.93 176.20 222.81 171.79 C 229.51 166.72 229.36 155.35 222.82 150.22 C 216.86 145.55 208.60 145.03 201.44 146.64 Z" />
<path fill="#c9273c" opacity="1.00" d=" M 31.10 139.34 C 34.47 139.35 37.84 139.32 41.21 139.44 C 48.49 153.98 56.22 168.29 63.56 182.80 C 60.36 182.76 57.17 182.75 53.97 182.76 C 52.10 178.98 50.27 175.17 48.34 171.42 C 39.39 171.47 30.43 171.45 21.48 171.44 C 19.33 175.21 17.16 178.98 15.04 182.78 C 11.71 182.75 8.38 182.77 5.05 182.75 C 13.80 168.32 22.35 153.77 31.10 139.34 M 25.57 164.17 C 31.96 164.13 38.36 164.15 44.75 164.16 C 41.83 158.11 38.70 152.17 35.88 146.07 C 32.30 152.02 29.01 158.14 25.57 164.17 Z" />
<path fill="#c9273c" opacity="1.00" d=" M 164.58 139.39 C 167.31 139.35 170.04 139.35 172.78 139.34 C 172.77 153.82 172.78 168.30 172.77 182.77 C 170.06 182.76 167.34 182.76 164.63 182.79 C 164.58 168.33 164.69 153.86 164.58 139.39 Z" />
<path fill="#c9273c" opacity="1.00" d=" M 114.84 146.81 C 114.85 144.41 114.84 142.01 114.81 139.61 C 129.35 139.42 143.89 139.62 158.43 139.51 C 158.44 141.94 158.45 144.38 158.48 146.82 C 152.50 146.84 146.52 146.86 140.54 146.79 C 140.38 158.79 140.54 170.80 140.46 182.80 C 137.74 182.76 135.03 182.76 132.32 182.78 C 132.30 170.80 132.33 158.81 132.31 146.83 C 126.49 146.83 120.67 146.86 114.84 146.81 Z" />
<path fill="#c9273c" opacity="1.00" d=" M 241.42 182.79 C 241.40 168.36 241.40 153.94 241.42 139.51 C 244.95 139.54 248.48 139.54 252.02 139.53 C 261.45 150.56 270.89 161.58 280.28 172.65 C 280.18 161.64 280.36 150.62 280.17 139.60 C 282.91 139.53 285.64 139.52 288.38 139.52 C 288.38 153.94 288.40 168.37 288.37 182.79 C 284.92 182.75 281.47 182.75 278.03 182.79 C 268.58 171.73 259.22 160.59 249.77 149.54 C 249.74 160.62 249.78 171.70 249.75 182.78 C 246.97 182.76 244.19 182.76 241.42 182.79 Z" />
</g>
<g id="#ee3943ff">
<path fill="#ee3943" opacity="1.00" d=" M 399.70 156.54 C 405.18 152.33 409.93 147.28 414.77 142.36 C 415.14 158.95 405.32 175.33 390.43 182.73 C 391.00 178.46 393.53 174.86 394.95 170.87 C 396.68 166.15 398.29 161.37 399.70 156.54 Z" />
</g>
<g id="#e93340ff">
<path fill="#e93340" opacity="1.00" d=" M 341.87 161.26 C 346.28 154.73 353.63 151.16 358.11 144.67 C 359.63 151.72 362.74 158.28 366.33 164.49 C 366.59 164.92 367.10 165.79 367.36 166.22 C 361.14 166.56 354.94 165.62 348.98 163.88 C 346.57 163.11 344.22 162.18 341.87 161.26 Z" />
</g>
<g id="#e65b7aff">
<path fill="#e65b7a" opacity="1.00" d=" M 324.22 149.87 C 326.47 151.55 328.70 153.27 330.96 154.95 C 333.50 156.82 336.12 158.62 338.95 160.03 C 337.15 163.73 335.15 167.33 332.83 170.74 C 331.85 169.72 330.89 168.70 329.98 167.63 C 328.25 161.63 324.71 156.21 324.22 149.87 Z" />
</g>
<g id="#ef4d57ff">
<path fill="#ef4d57" opacity="1.00" d=" M 386.40 163.05 C 390.99 161.24 395.48 159.12 399.70 156.54 C 398.29 161.37 396.68 166.15 394.95 170.87 C 393.53 174.86 391.00 178.46 390.43 182.73 C 389.36 183.36 388.29 183.97 387.22 184.56 C 384.51 183.00 381.89 181.27 379.54 179.20 C 382.57 174.17 385.05 168.79 386.40 163.05 Z" />
</g>
<g id="#e54e6eff">
<path fill="#e54e6e" opacity="1.00" d=" M 338.95 160.03 C 339.91 160.46 340.88 160.87 341.87 161.26 C 344.22 162.18 346.57 163.11 348.98 163.88 C 346.64 168.85 344.14 173.74 341.51 178.56 C 338.48 176.11 335.56 173.52 332.83 170.74 C 335.15 167.33 337.15 163.73 338.95 160.03 Z" />
</g>
<g id="#e33f5dff">
<path fill="#e33f5d" opacity="1.00" d=" M 348.98 163.88 C 354.94 165.62 361.14 166.56 367.36 166.22 C 370.66 171.19 375.02 175.34 379.54 179.20 C 381.89 181.27 384.51 183.00 387.22 184.56 L 386.75 184.79 C 377.36 188.92 366.44 189.28 356.68 186.27 C 354.89 185.80 353.03 185.60 351.21 185.33 C 347.79 183.35 344.60 181.01 341.51 178.56 C 344.14 173.74 346.64 168.85 348.98 163.88 Z" />
</g>
<g id="#56141966">
<path fill="#561419" opacity="0.40" d=" M 466.85 175.50 C 468.46 174.07 470.12 172.67 471.66 171.15 C 475.08 180.68 474.24 191.86 468.16 200.15 C 463.53 207.04 455.82 211.04 447.94 213.00 L 439.12 213.00 C 434.41 211.77 429.63 210.27 425.67 207.34 C 422.38 205.03 419.83 201.88 417.30 198.80 C 426.23 197.37 435.01 194.81 443.20 190.95 C 445.51 189.93 447.77 188.79 449.99 187.58 C 456.00 184.14 461.77 180.22 466.85 175.50 Z" />
</g>
<g id="#db4268ff">
<path fill="#db4268" opacity="1.00" d=" M 351.21 185.33 C 353.03 185.60 354.89 185.80 356.68 186.27 C 366.44 189.28 377.36 188.92 386.75 184.79 C 395.71 189.15 404.98 193.72 415.18 193.80 C 424.66 195.18 434.01 193.05 443.20 190.95 C 435.01 194.81 426.23 197.37 417.30 198.80 C 394.60 202.28 370.66 197.63 351.21 185.33 Z" />
</g>
</svg>
