<?xml version="1.0" encoding="UTF-8" ?>
<!DOCTYPE svg PUBLIC "-//W3C//DTD SVG 1.1//EN" "http://www.w3.org/Graphics/SVG/1.1/DTD/svg11.dtd">
<svg width="500pt" height="172pt" viewBox="0 0 500 172" version="1.1" xmlns="http://www.w3.org/2000/svg">
<g id="#5712146e">
<path fill="#571214" opacity="0.43" d=" M 281.48 0.00 L 287.35 0.00 C 293.90 0.64 299.90 3.38 305.65 6.41 C 295.46 8.85 285.75 13.44 277.51 19.91 C 273.69 22.77 270.09 25.94 266.96 29.54 C 260.38 36.52 255.18 44.81 251.76 53.77 L 251.38 54.75 C 250.59 50.39 248.33 46.44 247.91 42.00 C 246.06 29.87 250.82 17.07 260.09 9.06 C 266.00 3.80 273.66 0.84 281.48 0.00 Z" />
<path fill="#571214" opacity="0.43" d=" M 380.10 138.87 L 380.78 138.20 C 382.77 144.41 383.19 151.33 380.37 157.37 C 377.31 164.84 370.28 169.90 362.65 172.00 L 353.88 172.00 C 347.05 170.57 340.81 166.58 337.09 160.61 C 344.12 159.49 351.00 157.41 357.48 154.46 C 365.90 150.75 373.59 145.37 380.10 138.87 Z" />
</g>
<g id="#cc2738ff">
<path fill="#cc2738" opacity="1.00" d=" M 305.65 6.41 C 333.77 -1.07 365.59 8.90 384.31 31.20 C 381.70 30.07 379.16 28.77 376.80 27.17 C 371.23 23.46 364.88 20.97 358.26 19.95 C 346.17 17.82 333.36 21.17 323.69 28.68 C 321.43 30.45 319.24 32.32 317.01 34.14 C 313.26 28.02 308.60 21.96 301.68 19.27 C 293.96 15.84 285.21 17.13 277.51 19.91 C 285.75 13.44 295.46 8.85 305.65 6.41 Z" />
<path fill="#cc2738" opacity="1.00" d=" M 398.34 54.55 C 409.62 82.68 402.43 117.01 380.78 138.20 L 380.10 138.87 C 381.48 133.81 385.02 129.77 386.93 124.93 C 390.02 117.95 391.31 110.28 391.17 102.67 C 392.59 102.68 394.02 102.69 395.46 102.70 C 395.45 96.30 395.38 89.89 395.46 83.49 C 396.94 79.72 398.20 75.85 398.71 71.82 C 399.78 66.08 398.29 60.32 398.34 54.55 Z" />
<path fill="#cc2738" opacity="1.00" d=" M 56.73 117.70 C 65.75 109.70 80.07 110.16 89.91 116.42 C 89.08 117.92 88.25 119.42 87.43 120.93 C 80.75 117.70 72.81 116.02 65.66 118.71 C 60.95 120.35 57.36 124.98 57.47 130.05 C 57.16 134.84 60.15 139.60 64.67 141.29 C 72.45 144.24 81.44 142.14 87.78 136.96 C 88.81 138.58 89.83 140.20 90.84 141.83 C 84.11 147.73 74.47 149.39 65.85 147.66 C 60.70 146.67 55.65 143.75 53.16 138.99 C 49.42 132.16 50.78 122.86 56.73 117.70 Z" />
<path fill="#cc2738" opacity="1.00" d=" M 160.46 112.54 C 168.93 110.48 178.84 111.53 185.52 117.57 C 192.17 123.53 192.82 134.98 186.65 141.51 C 181.74 146.94 174.00 148.68 166.94 148.42 C 160.17 148.19 152.91 145.87 148.71 140.24 C 144.13 134.27 144.43 125.12 149.25 119.37 C 152.09 115.92 156.17 113.66 160.46 112.54 M 162.39 118.58 C 157.76 119.63 153.48 123.15 152.73 128.03 C 151.47 133.41 154.93 139.06 160.09 140.80 C 166.25 142.91 173.65 142.86 179.27 139.27 C 185.32 135.42 185.33 125.51 179.70 121.28 C 174.84 117.59 168.15 117.18 162.39 118.58 Z" />
<path fill="#cc2738" opacity="1.00" d=" M 25.13 112.51 C 27.78 112.50 30.44 112.50 33.10 112.50 C 39.19 124.24 45.26 136.00 51.37 147.75 C 48.77 147.76 46.16 147.76 43.56 147.75 C 42.10 144.69 40.59 141.67 39.08 138.64 C 31.81 138.64 24.53 138.61 17.25 138.66 C 15.57 141.73 13.86 144.79 12.06 147.80 C 9.39 147.75 6.71 147.75 4.03 147.71 C 11.18 136.05 18.08 124.24 25.13 112.51 M 20.61 132.65 C 25.81 132.64 31.01 132.67 36.21 132.62 C 33.67 127.82 31.30 122.93 28.94 118.05 C 26.09 122.87 23.47 127.83 20.61 132.65 Z" />
<path fill="#cc2738" opacity="1.00" d=" M 92.71 112.77 C 104.45 112.77 116.19 112.77 127.93 112.77 C 127.93 114.75 127.93 116.73 127.95 118.71 C 123.10 118.72 118.25 118.71 113.41 118.71 C 113.44 128.39 113.39 138.06 113.44 147.73 C 111.24 147.74 109.03 147.76 106.83 147.77 C 106.80 138.09 106.79 128.41 106.83 118.73 C 102.13 118.71 97.43 118.71 92.73 118.72 C 92.72 116.74 92.71 114.75 92.71 112.77 Z" />
<path fill="#cc2738" opacity="1.00" d=" M 132.82 112.51 C 135.04 112.50 137.26 112.50 139.49 112.50 C 139.46 124.25 139.48 136.01 139.47 147.76 C 137.26 147.76 135.04 147.75 132.83 147.74 C 132.83 136.00 132.84 124.25 132.82 112.51 Z" />
<path fill="#cc2738" opacity="1.00" d=" M 194.81 112.78 C 197.67 112.77 200.52 112.77 203.37 112.73 C 211.11 121.56 218.59 130.60 226.27 139.48 C 226.27 130.58 226.28 121.67 226.26 112.77 C 228.45 112.77 230.64 112.77 232.83 112.77 C 232.82 124.43 232.80 136.09 232.84 147.74 C 230.03 147.76 227.22 147.76 224.41 147.74 C 216.85 138.75 209.19 129.84 201.68 120.82 C 201.65 129.79 201.66 138.77 201.69 147.74 C 199.39 147.75 197.10 147.75 194.81 147.75 C 194.81 136.09 194.81 124.43 194.81 112.78 Z" />
</g>
<g id="#eb5763ff">
<path fill="#eb5763" opacity="1.00" d=" M 277.51 19.91 C 285.21 17.13 293.96 15.84 301.68 19.27 C 308.60 21.96 313.26 28.02 317.01 34.14 C 319.24 32.32 321.43 30.45 323.69 28.68 C 333.36 21.17 346.17 17.82 358.26 19.95 C 356.78 21.15 354.92 22.19 354.45 24.19 C 351.47 33.62 348.88 43.19 345.34 52.44 C 347.35 53.57 349.34 54.75 351.39 55.85 C 350.03 59.50 348.36 63.03 346.20 66.28 C 344.34 66.27 342.48 66.23 340.63 66.18 C 340.33 63.95 339.63 61.79 339.37 59.55 C 339.41 57.67 340.74 56.14 341.55 54.52 C 338.56 54.26 334.81 54.97 332.84 52.10 C 329.67 48.21 325.69 45.17 321.61 42.30 C 319.50 40.96 317.86 38.42 315.24 38.20 C 310.82 39.10 310.05 44.23 308.29 47.66 C 304.24 56.57 305.48 67.99 297.76 75.04 C 297.77 72.07 297.78 69.10 297.83 66.13 C 295.48 66.14 293.13 66.15 290.79 66.16 C 290.86 70.21 290.94 74.25 290.86 78.30 C 290.61 76.71 290.29 75.13 290.00 73.55 C 280.27 72.68 270.50 72.40 260.74 72.80 C 260.69 75.60 260.69 78.41 260.74 81.21 C 270.80 81.24 281.14 82.45 290.87 79.18 C 290.86 82.04 290.88 84.90 290.82 87.76 C 287.91 95.69 287.99 104.13 288.28 112.44 C 286.62 116.30 284.74 120.41 280.99 122.68 C 278.31 124.26 276.28 126.62 274.90 129.39 C 281.64 132.92 289.32 135.18 296.99 134.36 C 298.15 135.69 299.42 136.92 300.66 138.19 C 300.60 137.50 300.49 136.12 300.44 135.44 C 299.34 134.53 298.24 133.63 297.15 132.73 C 302.11 123.51 306.78 114.14 311.64 104.86 C 311.07 104.13 310.51 103.41 309.95 102.68 C 318.41 102.80 326.88 102.67 335.34 102.69 C 335.36 100.63 335.39 98.57 335.42 96.50 C 328.18 96.48 320.95 96.35 313.72 96.42 L 313.55 95.57 C 319.23 95.89 325.86 96.57 330.46 92.47 C 334.43 88.76 338.79 85.00 340.50 79.64 C 340.32 87.33 340.46 95.04 340.61 102.73 C 340.79 105.65 339.44 108.27 338.26 110.83 C 339.49 111.59 340.72 112.35 341.96 113.11 C 342.42 115.94 343.24 118.69 344.06 121.43 C 344.48 123.08 344.90 125.22 343.55 126.56 C 341.36 128.82 339.14 131.09 337.55 133.83 C 339.07 137.47 338.52 141.46 339.16 145.27 C 339.77 148.87 338.71 152.63 339.84 156.15 C 345.69 157.76 351.70 155.49 357.48 154.46 C 351.00 157.41 344.12 159.49 337.09 160.61 C 318.61 163.54 299.12 159.69 283.28 149.69 C 266.87 139.50 254.37 123.09 249.22 104.44 C 253.58 109.54 256.08 116.06 261.40 120.38 C 260.14 108.59 264.04 96.06 273.17 88.19 C 276.72 88.24 280.27 88.22 283.82 88.18 C 283.83 86.11 283.84 84.04 283.85 81.97 C 275.97 81.76 268.08 81.90 260.20 81.92 C 260.19 78.66 260.19 75.39 260.20 72.13 C 268.58 72.19 276.96 72.19 285.34 72.15 C 285.33 70.15 285.32 68.15 285.31 66.15 C 280.91 66.14 276.51 66.15 272.10 66.15 C 266.18 60.40 262.56 52.29 262.77 43.99 C 262.94 38.90 265.12 34.20 266.96 29.54 C 270.09 25.94 273.69 22.77 277.51 19.91 M 334.02 115.12 C 330.93 118.62 328.12 122.42 324.45 125.37 C 322.85 126.71 320.81 127.75 320.03 129.82 C 316.73 136.02 315.98 143.50 311.30 148.94 C 317.73 146.80 323.44 142.80 327.61 137.44 C 332.66 131.34 334.87 123.45 335.60 115.69 C 335.21 115.55 334.42 115.27 334.02 115.12 Z" />
<path fill="#eb5763" opacity="1.00" d=" M 251.38 54.75 L 251.76 53.77 C 252.50 55.52 254.42 57.42 253.22 59.41 C 251.23 63.63 249.49 68.00 246.90 71.90 C 247.76 66.04 249.16 60.25 251.38 54.75 Z" />
</g>
<g id="#e62a32ff">
<path fill="#e62a32" opacity="1.00" d=" M 358.26 19.95 C 364.88 20.97 371.23 23.46 376.80 27.17 C 379.16 28.77 381.70 30.07 384.31 31.20 C 390.36 38.04 395.12 46.02 398.34 54.55 C 398.29 60.32 399.78 66.08 398.71 71.82 C 398.20 75.85 396.94 79.72 395.46 83.49 C 395.33 77.77 395.38 72.04 395.38 66.32 C 392.28 66.30 389.19 66.30 386.09 66.28 C 379.98 75.91 374.18 85.74 368.12 95.40 C 362.44 85.65 356.63 75.98 350.92 66.26 C 349.35 66.26 347.77 66.28 346.20 66.28 C 348.36 63.03 350.03 59.50 351.39 55.85 C 349.34 54.75 347.35 53.57 345.34 52.44 C 348.88 43.19 351.47 33.62 354.45 24.19 C 354.92 22.19 356.78 21.15 358.26 19.95 Z" />
<path fill="#e62a32" opacity="1.00" d=" M 251.76 53.77 C 255.18 44.81 260.38 36.52 266.96 29.54 C 265.12 34.20 262.94 38.90 262.77 43.99 C 262.56 52.29 266.18 60.40 272.10 66.15 C 265.87 66.13 259.65 66.13 253.42 66.15 C 253.44 78.33 253.46 90.51 253.42 102.69 C 255.71 102.69 258.00 102.69 260.30 102.70 C 260.30 97.85 260.31 93.00 260.30 88.15 C 264.59 88.19 268.88 88.17 273.17 88.19 C 264.04 96.06 260.14 108.59 261.40 120.38 C 256.08 116.06 253.58 109.54 249.22 104.44 C 246.06 93.95 245.47 82.74 246.90 71.90 C 249.49 68.00 251.23 63.63 253.22 59.41 C 254.42 57.42 252.50 55.52 251.76 53.77 Z" />
<path fill="#e62a32" opacity="1.00" d=" M 260.74 72.80 C 270.50 72.40 280.27 72.68 290.00 73.55 C 290.29 75.13 290.61 76.71 290.86 78.30 L 290.87 79.18 C 281.14 82.45 270.80 81.24 260.74 81.21 C 260.69 78.41 260.69 75.60 260.74 72.80 Z" />
<path fill="#e62a32" opacity="1.00" d=" M 370.75 102.67 C 376.71 93.08 382.52 83.38 388.52 73.81 C 388.62 83.42 388.59 93.03 388.53 102.64 C 389.19 102.65 390.51 102.67 391.17 102.67 C 391.31 110.28 390.02 117.95 386.93 124.93 C 385.02 129.77 381.48 133.81 380.10 138.87 C 373.59 145.37 365.90 150.75 357.48 154.46 C 351.70 155.49 345.69 157.76 339.84 156.15 C 338.71 152.63 339.77 148.87 339.16 145.27 C 338.52 141.46 339.07 137.47 337.55 133.83 C 339.14 131.09 341.36 128.82 343.55 126.56 C 344.90 125.22 344.48 123.08 344.06 121.43 C 343.24 118.69 342.42 115.94 341.96 113.11 C 340.72 112.35 339.49 111.59 338.26 110.83 C 339.44 108.27 340.79 105.65 340.61 102.73 C 342.84 102.72 345.09 102.74 347.33 102.75 C 347.49 93.19 347.37 83.62 347.44 74.06 C 353.09 83.61 358.86 93.11 364.51 102.67 C 366.59 102.66 368.66 102.67 370.75 102.67 Z" />
<path fill="#e62a32" opacity="1.00" d=" M 280.99 122.68 C 284.74 120.41 286.62 116.30 288.28 112.44 C 289.35 120.29 292.35 127.93 296.99 134.36 C 289.32 135.18 281.64 132.92 274.90 129.39 C 276.28 126.62 278.31 124.26 280.99 122.68 Z" />
<path fill="#e62a32" opacity="1.00" d=" M 334.02 115.12 C 334.42 115.27 335.21 115.55 335.60 115.69 C 334.87 123.45 332.66 131.34 327.61 137.44 C 323.44 142.80 317.73 146.80 311.30 148.94 C 315.98 143.50 316.73 136.02 320.03 129.82 C 320.81 127.75 322.85 126.71 324.45 125.37 C 328.12 122.42 330.93 118.62 334.02 115.12 Z" />
</g>
<g id="#f89b9aff">
<path fill="#f89b9a" opacity="1.00" d=" M 308.29 47.66 C 310.05 44.23 310.82 39.10 315.24 38.20 C 317.86 38.42 319.50 40.96 321.61 42.30 C 325.69 45.17 329.67 48.21 332.84 52.10 C 334.81 54.97 338.56 54.26 341.55 54.52 C 340.74 56.14 339.41 57.67 339.37 59.55 C 339.63 61.79 340.33 63.95 340.63 66.18 C 340.52 70.67 340.61 75.15 340.50 79.64 C 338.79 85.00 334.43 88.76 330.46 92.47 C 325.86 96.57 319.23 95.89 313.55 95.57 C 313.66 85.61 313.80 75.65 313.57 65.69 C 311.18 65.67 308.80 65.65 306.42 65.62 C 306.72 77.93 306.72 90.24 306.77 102.55 C 307.82 102.59 308.88 102.64 309.95 102.68 C 310.51 103.41 311.07 104.13 311.64 104.86 C 306.78 114.14 302.11 123.51 297.15 132.73 C 298.24 133.63 299.34 134.53 300.44 135.44 C 300.49 136.12 300.60 137.50 300.66 138.19 C 299.42 136.92 298.15 135.69 296.99 134.36 C 292.35 127.93 289.35 120.29 288.28 112.44 C 287.99 104.13 287.91 95.69 290.82 87.76 C 290.89 92.73 291.01 97.69 291.09 102.66 C 293.30 102.64 295.51 102.63 297.73 102.61 C 297.75 93.42 297.73 84.23 297.76 75.04 C 305.48 67.99 304.24 56.57 308.29 47.66 Z" />
</g>
<g id="#000000ff">
<path fill="#000000" opacity="1.00" d=" M 124.95 67.90 C 135.20 63.11 148.00 64.49 157.55 70.34 C 156.28 72.03 155.05 73.74 153.82 75.46 C 147.45 72.22 140.07 70.78 132.98 71.79 C 130.19 72.30 126.59 73.74 126.39 77.03 C 126.44 79.24 129.19 79.61 130.84 80.07 C 137.27 81.06 143.93 80.82 150.19 82.77 C 152.91 83.66 155.69 85.40 156.65 88.24 C 157.30 91.21 156.89 94.51 155.01 96.97 C 151.62 101.71 145.61 103.68 140.01 104.00 C 131.83 104.46 123.01 103.07 116.62 97.55 C 118.17 95.77 119.75 94.01 121.32 92.24 C 128.03 97.53 137.34 99.09 145.44 96.46 C 147.99 95.72 150.77 92.86 149.06 90.13 C 145.91 87.08 141.00 87.68 136.98 87.13 C 131.41 86.53 124.89 86.72 120.56 82.58 C 116.22 77.80 119.55 70.21 124.95 67.90 Z" />
<path fill="#000000" opacity="1.00" d=" M 0.00 66.17 C 3.15 66.55 8.32 64.20 9.69 68.28 C 14.28 77.64 18.90 86.98 23.71 96.23 C 29.15 86.84 34.68 77.49 40.11 68.09 C 41.42 64.60 45.72 66.23 48.53 65.88 C 41.31 78.21 34.10 90.55 26.81 102.85 C 24.40 102.86 21.98 102.80 19.56 102.78 C 13.85 91.78 7.93 80.90 2.21 69.91 C 1.57 68.72 0.84 67.58 0.00 66.53 L 0.00 66.17 Z" />
<path fill="#000000" opacity="1.00" d=" M 52.87 65.90 C 55.18 65.89 57.50 65.89 59.81 65.89 C 59.90 78.21 59.81 90.52 59.86 102.83 C 57.53 102.84 55.19 102.83 52.86 102.82 C 52.86 90.51 52.84 78.21 52.87 65.90 Z" />
<path fill="#000000" opacity="1.00" d=" M 66.34 102.83 C 73.88 90.55 80.90 77.92 88.71 65.81 C 91.69 66.51 96.60 64.25 97.96 67.96 C 103.93 79.60 109.99 91.19 116.00 102.81 C 113.29 102.84 110.58 102.84 107.87 102.85 C 106.30 99.69 104.70 96.54 103.20 93.36 C 95.54 93.28 87.88 93.33 80.22 93.33 C 78.39 96.48 76.63 99.66 74.82 102.83 C 71.99 102.84 69.16 102.85 66.34 102.83 M 92.31 71.74 C 89.51 76.82 86.68 81.87 83.78 86.89 C 89.18 86.87 94.58 87.07 99.97 86.76 C 97.30 81.81 95.02 76.67 92.31 71.74 Z" />
<path fill="#000000" opacity="1.00" d=" M 178.14 68.08 C 179.79 64.35 184.77 66.13 187.94 66.16 C 194.52 78.26 200.60 90.64 207.10 102.79 C 204.38 102.84 201.66 102.85 198.94 102.84 C 197.33 99.72 195.77 96.57 194.29 93.38 C 186.61 93.25 178.94 93.35 171.26 93.33 C 169.49 96.49 167.68 99.63 165.94 102.81 C 163.09 102.84 160.24 102.85 157.39 102.86 C 164.33 91.28 171.26 79.69 178.14 68.08 M 174.86 86.90 C 180.24 86.93 185.62 86.91 191.01 86.91 C 188.51 81.88 186.06 76.82 183.50 71.82 C 180.47 76.76 177.77 81.89 174.86 86.90 Z" />
<path fill="#000000" opacity="1.00" d=" M 203.61 66.18 C 215.93 66.18 228.25 66.19 240.56 66.18 C 240.57 68.25 240.58 70.32 240.59 72.39 C 235.50 72.40 230.40 72.37 225.31 72.41 C 225.36 82.55 225.33 92.70 225.33 102.84 C 223.02 102.84 220.72 102.83 218.41 102.83 C 218.45 92.69 218.40 82.55 218.45 72.41 C 213.50 72.37 208.55 72.40 203.60 72.39 C 203.60 70.32 203.61 68.25 203.61 66.18 Z" />
</g>
<g id="#ffffffff">
<path fill="#ffffff" opacity="1.00" d=" M 253.42 66.15 C 259.65 66.13 265.87 66.13 272.10 66.15 C 276.51 66.15 280.91 66.14 285.31 66.15 C 285.32 68.15 285.33 70.15 285.34 72.15 C 276.96 72.19 268.58 72.19 260.20 72.13 C 260.19 75.39 260.19 78.66 260.20 81.92 C 268.08 81.90 275.97 81.76 283.85 81.97 C 283.84 84.04 283.83 86.11 283.82 88.18 C 280.27 88.22 276.72 88.24 273.17 88.19 C 268.88 88.17 264.59 88.19 260.30 88.15 C 260.31 93.00 260.30 97.85 260.30 102.70 C 258.00 102.69 255.71 102.69 253.42 102.69 C 253.46 90.51 253.44 78.33 253.42 66.15 Z" />
<path fill="#ffffff" opacity="1.00" d=" M 290.79 66.16 C 293.13 66.15 295.48 66.14 297.83 66.13 C 297.78 69.10 297.77 72.07 297.76 75.04 C 297.73 84.23 297.75 93.42 297.73 102.61 C 295.51 102.63 293.30 102.64 291.09 102.66 C 291.01 97.69 290.89 92.73 290.82 87.76 C 290.88 84.90 290.86 82.04 290.87 79.18 L 290.86 78.30 C 290.94 74.25 290.86 70.21 290.79 66.16 Z" />
<path fill="#ffffff" opacity="1.00" d=" M 306.77 102.55 C 306.72 90.24 306.72 77.93 306.42 65.62 C 308.80 65.65 311.18 65.67 313.57 65.69 C 313.80 75.65 313.66 85.61 313.55 95.57 L 313.72 96.42 C 320.95 96.35 328.18 96.48 335.42 96.50 C 335.39 98.57 335.36 100.63 335.34 102.69 C 326.88 102.67 318.41 102.80 309.95 102.68 C 308.88 102.64 307.82 102.59 306.77 102.55 Z" />
<path fill="#ffffff" opacity="1.00" d=" M 340.50 79.64 C 340.61 75.15 340.52 70.67 340.63 66.18 C 342.48 66.23 344.34 66.27 346.20 66.28 C 347.77 66.28 349.35 66.26 350.92 66.26 C 356.63 75.98 362.44 85.65 368.12 95.40 C 374.18 85.74 379.98 75.91 386.09 66.28 C 389.19 66.30 392.28 66.30 395.38 66.32 C 395.38 72.04 395.33 77.77 395.46 83.49 C 395.38 89.89 395.45 96.30 395.46 102.70 C 394.02 102.69 392.59 102.68 391.17 102.67 C 390.51 102.67 389.19 102.65 388.53 102.64 C 388.59 93.03 388.62 83.42 388.52 73.81 C 382.52 83.38 376.71 93.08 370.75 102.67 C 368.66 102.67 366.59 102.66 364.51 102.67 C 358.86 93.11 353.09 83.61 347.44 74.06 C 347.37 83.62 347.49 93.19 347.33 102.75 C 345.09 102.74 342.84 102.72 340.61 102.73 C 340.46 95.04 340.32 87.33 340.50 79.64 Z" />
</g>
<g id="#00000080">
<path fill="#000000" opacity="0.50" d=" M 412.15 65.79 C 414.47 65.77 416.79 65.77 419.12 65.78 C 419.16 71.07 419.10 76.36 419.14 81.65 C 427.66 81.64 436.17 81.66 444.69 81.64 C 444.70 76.35 444.66 71.06 444.70 65.78 C 447.06 65.76 449.43 65.77 451.79 65.79 C 451.78 78.05 451.79 90.31 451.79 102.57 C 449.41 102.58 447.04 102.55 444.67 102.49 C 444.69 97.64 444.68 92.78 444.71 87.93 C 436.19 87.68 427.66 87.86 419.14 87.83 C 419.11 92.73 419.15 97.63 419.13 102.54 C 416.77 102.58 414.42 102.55 412.08 102.46 C 412.25 90.24 412.12 78.01 412.15 65.79 Z" />
<path fill="#000000" opacity="0.50" d=" M 458.58 65.79 C 467.39 65.98 476.25 65.28 485.03 66.20 C 492.31 67.01 498.29 72.66 500.00 79.71 L 500.00 86.61 C 499.43 90.48 497.93 94.32 495.09 97.09 C 491.20 101.10 485.44 102.61 480.00 102.56 C 472.85 102.57 465.71 102.56 458.57 102.55 C 458.55 90.29 458.53 78.04 458.58 65.79 M 465.43 72.14 C 465.55 80.22 465.32 88.30 465.56 96.38 C 472.62 95.87 480.09 97.52 486.83 94.79 C 493.18 92.17 494.74 83.76 492.01 78.01 C 490.02 73.97 485.29 72.32 481.05 72.17 C 475.85 71.99 470.64 72.11 465.43 72.14 Z" />
</g>
</svg>
