<?xml version="1.0" encoding="UTF-8" ?>
<!DOCTYPE svg PUBLIC "-//W3C//DTD SVG 1.1//EN" "http://www.w3.org/Graphics/SVG/1.1/DTD/svg11.dtd">
<svg width="1340pt" height="300pt" viewBox="0 0 1340 300" version="1.1" xmlns="http://www.w3.org/2000/svg">
<g id="#3a383965">
<path fill="#3a3839" opacity="0.40" d=" M 93.01 37.03 C 477.33 37.00 861.65 36.94 1245.97 37.05 L 1246.01 38.00 C 861.67 38.00 477.34 38.00 93.00 38.00 L 93.01 37.03 Z" />
</g>
<g id="#4341428e">
<path fill="#434142" opacity="0.56" d=" M 71.98 39.00 C 72.80 36.07 79.15 38.67 81.98 38.05 L 82.02 38.99 C 78.67 38.99 75.33 38.99 71.98 39.00 Z" />
</g>
<g id="#4a494cff">
<path fill="#4a494c" opacity="1.00" d=" M 81.98 38.05 C 85.64 37.94 89.33 37.97 93.00 38.00 C 477.34 38.00 861.67 38.00 1246.01 38.00 C 1249.61 38.01 1253.38 37.88 1257.03 38.05 L 1256.97 38.99 L 1255.99 39.01 C 1251.61 39.00 1247.31 38.97 1243.00 39.01 C 860.67 39.00 478.33 38.99 96.00 39.01 C 91.66 38.98 87.33 38.99 82.99 39.01 L 82.02 38.99 L 81.98 38.05 Z" />
</g>
<g id="#44434393">
<path fill="#444343" opacity="0.58" d=" M 1257.03 38.05 C 1259.45 39.05 1265.71 36.42 1267.03 39.00 C 1263.58 38.99 1260.34 39.00 1256.97 38.99 L 1257.03 38.05 Z" />
</g>
<g id="#6a6a6df4">
<path fill="#6a6a6d" opacity="0.96" d=" M 48.48 53.68 C 51.76 44.09 62.17 38.59 71.98 39.00 C 75.33 38.99 78.67 38.99 82.02 38.99 L 82.99 39.01 L 83.00 39.97 C 75.61 39.30 68.15 40.81 62.01 45.00 C 57.85 46.97 53.62 49.57 51.69 53.94 C 50.13 56.36 48.64 58.83 46.97 61.18 C 47.38 58.66 48.46 56.26 48.48 53.68 Z" />
</g>
<g id="#9fa1aaff">
<path fill="#9fa1aa" opacity="1.00" d=" M 82.99 39.01 C 87.33 38.99 91.66 38.98 96.00 39.01 L 96.00 40.00 C 91.66 40.01 87.33 40.00 83.00 39.97 L 82.99 39.01 Z" />
</g>
<g id="#d0d3deff">
<path fill="#d0d3de" opacity="1.00" d=" M 96.00 39.01 C 478.33 38.99 860.67 39.00 1243.00 39.01 L 1243.00 40.00 C 860.67 40.00 478.33 40.00 96.00 40.00 L 96.00 39.01 Z" />
</g>
<g id="#a1a3acff">
<path fill="#a1a3ac" opacity="1.00" d=" M 1243.00 39.01 C 1247.31 38.97 1251.61 39.00 1255.99 39.01 L 1256.01 39.96 C 1251.63 39.98 1247.32 40.03 1243.00 40.00 L 1243.00 39.01 Z" />
</g>
<g id="#676467f8">
<path fill="#676467" opacity="0.97" d=" M 1255.99 39.01 L 1256.97 38.99 C 1260.34 39.00 1263.58 38.99 1267.03 39.00 C 1278.83 38.03 1288.78 46.39 1293.12 56.82 C 1291.05 55.47 1290.44 57.64 1289.71 59.20 C 1287.50 55.34 1285.32 50.44 1281.05 48.77 C 1283.93 53.26 1287.88 57.55 1287.95 63.21 C 1283.13 56.27 1275.64 52.39 1268.68 47.99 C 1272.17 47.48 1275.84 47.96 1279.33 47.27 C 1281.40 46.66 1277.39 44.64 1276.30 44.14 C 1270.14 40.63 1263.03 39.51 1256.01 39.96 L 1255.99 39.01 Z" />
</g>
<g id="#e8ebf4ff">
<path fill="#e8ebf4" opacity="1.00" d=" M 62.01 45.00 C 68.15 40.81 75.61 39.30 83.00 39.97 C 87.33 40.00 91.66 40.01 96.00 40.00 C 478.33 40.00 860.67 40.00 1243.00 40.00 C 1247.32 40.03 1251.63 39.98 1256.01 39.96 C 1263.03 39.51 1270.14 40.63 1276.30 44.14 C 1275.13 44.54 1273.97 44.92 1272.82 45.28 C 1272.17 45.17 1270.86 44.96 1270.21 44.86 C 1266.39 44.28 1262.58 44.06 1258.78 44.20 C 1257.24 44.08 1255.73 43.91 1254.23 43.76 C 1087.55 41.99 920.73 43.51 754.00 43.00 C 537.33 42.98 320.67 43.04 104.00 42.97 C 97.94 43.28 91.68 42.19 85.72 43.70 C 84.56 43.90 83.40 44.07 82.24 44.21 C 78.06 44.19 73.86 44.04 69.73 44.68 C 67.15 45.00 64.62 45.57 62.08 46.08 L 62.01 45.00 Z" />
</g>
<g id="#b8b9c1ff">
<path fill="#b8b9c1" opacity="1.00" d=" M 85.72 43.70 C 91.68 42.19 97.94 43.28 104.00 42.97 C 320.67 43.04 537.33 42.98 754.00 43.00 C 920.73 43.51 1087.55 41.99 1254.23 43.76 C 864.73 44.12 475.22 44.24 85.72 43.70 Z" />
</g>
<g id="#8a878cff">
<path fill="#8a878c" opacity="1.00" d=" M 69.73 44.68 C 73.86 44.04 78.06 44.19 82.24 44.21 C 78.10 45.04 73.90 44.79 69.73 44.68 Z" />
</g>
<g id="#4a4847ff">
<path fill="#4a4847" opacity="1.00" d=" M 82.24 44.21 C 83.40 44.07 84.56 43.90 85.72 43.70 C 475.22 44.24 864.73 44.12 1254.23 43.76 C 1255.73 43.91 1257.24 44.08 1258.78 44.20 C 1262.55 44.60 1266.36 44.82 1270.21 44.86 C 1270.86 44.96 1272.17 45.17 1272.82 45.28 C 1274.97 45.97 1277.13 46.66 1279.33 47.27 C 1275.84 47.96 1272.17 47.48 1268.68 47.99 C 1266.77 47.65 1264.88 47.22 1262.98 46.92 L 1262.08 46.77 C 1131.80 44.97 1001.35 46.51 871.00 46.01 C 726.08 46.04 581.15 45.91 436.22 46.07 C 366.07 46.05 295.91 45.76 225.76 46.21 C 178.84 45.70 131.91 46.18 84.99 45.96 C 79.97 45.62 75.04 46.59 70.15 47.61 C 66.99 47.42 63.84 47.39 60.68 47.24 C 61.03 46.95 61.73 46.37 62.08 46.08 C 64.62 45.57 67.15 45.00 69.73 44.68 C 73.90 44.79 78.10 45.04 82.24 44.21 Z" />
</g>
<g id="#8f8e93ff">
<path fill="#8f8e93" opacity="1.00" d=" M 1258.78 44.20 C 1262.58 44.06 1266.39 44.28 1270.21 44.86 C 1266.36 44.82 1262.55 44.60 1258.78 44.20 Z" />
</g>
<g id="#a3a2a8ff">
<path fill="#a3a2a8" opacity="1.00" d=" M 1276.30 44.14 C 1277.39 44.64 1281.40 46.66 1279.33 47.27 C 1277.13 46.66 1274.97 45.97 1272.82 45.28 C 1273.97 44.92 1275.13 44.54 1276.30 44.14 Z" />
</g>
<g id="#9c9da6ff">
<path fill="#9c9da6" opacity="1.00" d=" M 51.69 53.94 C 53.62 49.57 57.85 46.97 62.01 45.00 L 62.08 46.08 C 61.73 46.37 61.03 46.95 60.68 47.24 C 57.53 49.27 54.73 51.77 51.69 53.94 Z" />
</g>
<g id="#1f3d8eff">
<path fill="#1f3d8e" opacity="1.00" d=" M 70.15 47.61 C 75.04 46.59 79.97 45.62 84.99 45.96 C 131.91 46.18 178.84 45.70 225.76 46.21 C 295.42 48.09 365.22 46.40 434.94 47.05 C 434.92 50.31 435.02 53.57 434.95 56.82 C 434.69 57.13 434.17 57.76 433.91 58.07 C 395.70 57.97 357.49 57.93 319.28 58.07 C 266.93 57.76 214.58 58.33 162.23 57.79 C 151.13 56.43 139.92 56.97 128.77 57.23 C 107.46 56.10 85.42 57.32 64.83 50.80 C 66.61 49.75 68.38 48.67 70.15 47.61 Z" />
</g>
<g id="#2f4274ff">
<path fill="#2f4274" opacity="1.00" d=" M 225.76 46.21 C 295.91 45.76 366.07 46.05 436.22 46.07 C 435.90 46.32 435.26 46.81 434.94 47.05 C 365.22 46.40 295.42 48.09 225.76 46.21 Z" />
</g>
<g id="#bdbdbdff">
<path fill="#bdbdbd" opacity="1.00" d=" M 436.22 46.07 C 581.15 45.91 726.08 46.04 871.00 46.01 L 870.99 46.99 C 731.70 47.07 592.41 46.87 453.12 47.09 C 452.97 50.33 452.99 53.58 452.80 56.81 C 452.59 57.13 452.16 57.78 451.95 58.10 C 446.28 58.02 440.62 57.97 434.97 57.87 L 434.95 56.82 C 435.02 53.57 434.92 50.31 434.94 47.05 C 435.26 46.81 435.90 46.32 436.22 46.07 Z" />
</g>
<g id="#b3b2b2ff">
<path fill="#b3b2b2" opacity="1.00" d=" M 871.00 46.01 C 1001.35 46.51 1131.80 44.97 1262.08 46.77 C 1261.60 46.82 1260.64 46.91 1260.16 46.95 C 1238.84 47.21 1217.52 46.67 1196.23 47.21 C 1122.23 46.89 1048.22 46.81 974.24 47.25 C 939.82 46.68 905.41 47.16 870.99 46.99 L 871.00 46.01 Z" />
</g>
<g id="#636064ff">
<path fill="#636064" opacity="1.00" d=" M 51.69 53.94 C 54.73 51.77 57.53 49.27 60.68 47.24 C 63.84 47.39 66.99 47.42 70.15 47.61 C 68.38 48.67 66.61 49.75 64.83 50.80 C 64.41 50.85 63.57 50.95 63.15 51.00 C 57.86 50.00 53.76 53.76 51.52 58.13 C 51.54 56.73 51.60 55.34 51.69 53.94 Z" />
</g>
<g id="#fefefeff">
<path fill="#fefefe" opacity="1.00" d=" M 453.12 47.09 C 592.41 46.87 731.70 47.07 870.99 46.99 C 905.41 47.16 939.82 46.68 974.24 47.25 C 910.38 48.26 846.46 49.16 782.63 51.47 C 697.92 53.61 613.11 54.37 528.33 55.40 C 503.31 58.30 477.55 52.69 452.85 57.84 L 452.80 56.81 C 452.99 53.58 452.97 50.33 453.12 47.09 Z" />
<path fill="#fefefe" opacity="1.00" d=" M 99.77 126.76 C 102.71 112.97 116.02 104.15 129.69 103.64 C 147.84 104.37 166.03 104.04 184.19 103.72 C 185.34 104.59 186.38 105.62 187.20 106.81 C 187.14 111.61 187.13 116.42 187.19 121.22 C 186.51 125.12 183.08 127.78 179.31 128.38 C 163.16 128.23 146.73 127.03 130.71 128.66 C 126.63 129.21 127.68 134.14 130.98 135.05 C 143.69 139.48 157.31 140.73 170.13 144.82 C 179.66 148.06 188.68 155.21 190.37 165.69 C 190.17 169.53 189.99 173.40 190.25 177.25 C 189.64 190.47 176.80 198.09 165.12 200.27 C 163.74 199.62 161.80 199.43 160.93 200.97 C 160.51 201.03 159.67 201.13 159.25 201.18 C 140.77 200.99 122.28 200.75 103.81 201.22 C 101.85 200.12 100.87 198.01 100.76 195.83 C 100.40 188.62 100.04 178.83 108.72 176.69 C 125.18 176.58 141.97 178.15 158.28 176.33 C 162.10 175.58 163.02 171.39 159.22 169.77 C 145.30 165.00 130.07 164.21 116.28 158.77 C 108.12 155.77 102.13 148.51 99.73 140.26 C 99.78 135.76 99.77 131.26 99.77 126.76 Z" />
</g>
<g id="#f9f9f9ff">
<path fill="#f9f9f9" opacity="1.00" d=" M 974.24 47.25 C 1048.22 46.81 1122.23 46.89 1196.23 47.21 C 1128.95 49.86 1061.61 49.86 994.33 52.38 C 908.36 53.39 822.32 54.32 736.31 55.31 C 704.14 57.27 671.66 55.05 639.61 58.57 C 577.45 59.25 515.07 60.62 453.02 60.02 C 452.98 59.47 452.89 58.38 452.85 57.84 C 477.55 52.69 503.31 58.30 528.33 55.40 C 613.11 54.37 697.92 53.61 782.63 51.47 C 846.46 49.16 910.38 48.26 974.24 47.25 Z" />
</g>
<g id="#f4f4f4ff">
<path fill="#f4f4f4" opacity="1.00" d=" M 1196.23 47.21 C 1217.52 46.67 1238.84 47.21 1260.16 46.95 C 1259.84 48.64 1260.36 50.78 1258.71 51.89 C 1151.85 54.45 1044.93 53.77 938.02 56.11 C 935.44 55.56 919.82 58.49 932.97 58.02 C 942.62 58.24 952.30 57.64 961.96 58.09 C 961.97 58.56 962.00 59.50 962.01 59.97 C 881.02 60.40 800.11 61.35 719.04 61.17 C 635.23 62.99 551.09 61.10 467.32 64.55 C 465.35 65.19 463.57 66.26 461.65 67.01 C 461.94 63.88 459.13 63.14 456.82 64.84 C 454.15 66.96 454.05 61.66 453.02 60.02 C 515.07 60.62 577.45 59.25 639.61 58.57 C 671.66 55.05 704.14 57.27 736.31 55.31 C 822.32 54.32 908.36 53.39 994.33 52.38 C 1061.61 49.86 1128.95 49.86 1196.23 47.21 Z" />
</g>
<g id="#efefefff">
<path fill="#efefef" opacity="1.00" d=" M 1260.16 46.95 C 1260.64 46.91 1261.60 46.82 1262.08 46.77 C 1261.63 50.08 1262.89 53.56 1266.15 54.89 C 1269.72 61.21 1259.89 62.11 1255.99 61.90 C 1100.26 61.59 944.71 63.68 789.06 64.12 C 783.29 63.38 780.48 69.09 775.90 70.63 C 772.03 69.38 771.50 74.65 768.04 75.03 C 764.38 75.76 765.95 82.59 760.27 80.56 C 752.00 81.06 744.55 86.10 739.30 91.23 C 740.35 96.37 753.38 89.46 754.01 94.96 C 735.02 94.99 716.01 95.15 697.04 94.92 C 694.54 93.71 692.26 92.84 690.76 95.89 C 685.09 97.28 679.49 99.26 674.82 102.87 C 673.86 103.49 672.92 104.12 671.99 104.75 C 653.97 103.14 635.90 106.73 617.95 107.42 L 617.37 106.96 C 609.83 88.92 578.52 92.20 574.04 111.06 C 573.82 111.34 573.39 111.90 573.17 112.18 C 533.03 114.73 492.83 118.87 452.90 124.12 C 450.83 102.21 452.59 80.09 451.95 58.10 C 452.16 57.78 452.59 57.13 452.80 56.81 L 452.85 57.84 C 452.89 58.38 452.98 59.47 453.02 60.02 C 454.05 61.66 454.15 66.96 456.82 64.84 C 459.13 63.14 461.94 63.88 461.65 67.01 C 463.57 66.26 465.35 65.19 467.32 64.55 C 551.09 61.10 635.23 62.99 719.04 61.17 C 800.11 61.35 881.02 60.40 962.01 59.97 C 962.00 59.50 961.97 58.56 961.96 58.09 C 952.30 57.64 942.62 58.24 932.97 58.02 C 919.82 58.49 935.44 55.56 938.02 56.11 C 1044.93 53.77 1151.85 54.45 1258.71 51.89 C 1260.36 50.78 1259.84 48.64 1260.16 46.95 Z" />
</g>
<g id="#e9e9e9ff">
<path fill="#e9e9e9" opacity="1.00" d=" M 1262.08 46.77 L 1262.98 46.92 C 1264.19 49.30 1264.28 52.90 1267.33 53.72 C 1270.13 55.01 1273.88 53.13 1275.85 56.15 C 1275.48 60.04 1269.96 61.33 1272.13 66.03 C 1273.94 97.23 1272.71 128.57 1272.87 159.82 C 1269.71 162.96 1268.26 155.13 1264.77 154.98 C 1251.49 138.82 1230.00 133.28 1210.33 129.62 C 1197.04 126.82 1183.52 125.14 1170.00 123.90 L 1169.97 122.89 C 1169.01 114.54 1171.85 102.77 1168.98 96.01 C 1162.66 95.95 1156.35 95.68 1150.07 96.11 C 1149.82 104.00 1150.07 111.89 1149.94 119.78 C 1149.69 120.10 1149.19 120.73 1148.95 121.04 C 1132.03 118.61 1114.99 116.12 1097.88 116.11 C 1097.43 115.80 1096.54 115.16 1096.10 114.85 C 1095.40 114.05 1094.76 113.23 1094.11 112.42 C 1095.04 105.56 1080.70 101.95 1084.27 94.28 C 1092.63 92.10 1099.61 86.49 1108.87 86.79 C 1115.14 86.09 1115.37 76.83 1122.85 78.78 C 1132.84 77.86 1140.88 71.47 1150.26 68.43 C 1168.01 61.54 1187.44 64.67 1206.00 64.00 C 1221.66 64.72 1237.34 62.74 1252.99 64.00 C 1257.23 63.51 1262.63 65.46 1266.25 62.27 C 1268.79 60.40 1270.66 55.39 1266.15 54.89 C 1262.89 53.56 1261.63 50.08 1262.08 46.77 Z" />
</g>
<g id="#e1e2e5ff">
<path fill="#e1e2e5" opacity="1.00" d=" M 1262.98 46.92 C 1264.88 47.22 1266.77 47.65 1268.68 47.99 C 1275.64 52.39 1283.13 56.27 1287.95 63.21 C 1289.10 66.36 1290.52 69.44 1291.33 72.71 C 1290.79 122.89 1290.77 173.11 1291.31 223.28 C 1290.90 227.02 1290.20 230.72 1289.51 234.41 C 1288.75 231.44 1289.03 228.65 1288.39 225.75 C 1287.41 175.52 1288.39 125.25 1287.91 75.01 C 1287.26 70.84 1287.73 63.85 1283.17 61.79 C 1279.87 106.86 1284.21 152.52 1280.88 197.36 C 1279.06 192.18 1277.66 186.86 1276.04 181.63 C 1275.85 180.04 1275.68 178.43 1275.12 176.94 C 1272.26 169.36 1269.35 161.71 1264.77 154.98 C 1268.26 155.13 1269.71 162.96 1272.87 159.82 C 1272.71 128.57 1273.94 97.23 1272.13 66.03 C 1269.96 61.33 1275.48 60.04 1275.85 56.15 C 1273.88 53.13 1270.13 55.01 1267.33 53.72 C 1264.28 52.90 1264.19 49.30 1262.98 46.92 Z" />
</g>
<g id="#454344ff">
<path fill="#454344" opacity="1.00" d=" M 1281.05 48.77 C 1285.32 50.44 1287.50 55.34 1289.71 59.20 C 1291.59 64.98 1292.94 70.94 1293.15 77.04 C 1292.90 77.33 1292.40 77.90 1292.16 78.19 C 1291.99 76.35 1291.81 74.50 1291.33 72.71 C 1290.52 69.44 1289.10 66.36 1287.95 63.21 C 1287.88 57.55 1283.93 53.26 1281.05 48.77 Z" />
</g>
<g id="#c5ccdeff">
<path fill="#c5ccde" opacity="1.00" d=" M 51.52 58.13 C 53.76 53.76 57.86 50.00 63.15 51.00 C 54.23 56.80 49.52 67.50 49.99 77.97 C 49.97 126.32 50.06 174.67 49.95 223.02 C 49.26 226.69 50.31 230.21 51.91 233.42 C 51.92 235.37 51.89 237.32 51.87 239.27 C 47.85 234.35 49.25 227.16 47.69 221.33 C 47.79 220.82 47.97 219.79 48.06 219.28 C 49.66 172.90 49.51 126.00 48.23 79.67 C 48.10 79.18 47.83 78.21 47.70 77.72 C 47.94 71.02 49.91 64.59 51.52 58.13 Z" />
</g>
<g id="#7593c3ff">
<path fill="#7593c3" opacity="1.00" d=" M 63.15 51.00 C 63.57 50.95 64.41 50.85 64.83 50.80 C 85.42 57.32 107.46 56.10 128.77 57.23 C 139.87 58.56 151.08 58.01 162.23 57.79 C 214.58 58.33 266.93 57.76 319.28 58.07 C 319.07 58.50 318.67 59.34 318.47 59.77 C 287.65 61.16 256.74 60.38 225.94 61.72 C 225.51 61.72 224.66 61.72 224.23 61.72 C 217.80 61.24 211.13 60.02 204.77 61.68 C 204.40 61.68 203.64 61.68 203.26 61.68 C 164.78 61.53 126.12 62.04 87.56 62.37 C 77.69 60.98 65.17 63.57 62.60 74.64 C 60.63 115.71 60.94 156.90 60.02 198.00 C 61.40 205.20 56.93 213.86 61.18 220.28 C 57.86 224.14 55.21 228.45 52.72 232.86 L 51.91 233.42 C 50.31 230.21 49.26 226.69 49.95 223.02 C 50.06 174.67 49.97 126.32 49.99 77.97 C 49.52 67.50 54.23 56.80 63.15 51.00 M 66.02 55.08 C 62.48 56.85 58.47 59.61 58.96 64.08 C 62.73 63.23 73.60 54.75 66.02 55.08 Z" />
</g>
<g id="#989aa3fd">
<path fill="#989aa3" opacity="1.00" d=" M 43.00 69.16 C 43.02 63.84 45.03 57.40 48.48 53.68 C 48.46 56.26 47.38 58.66 46.97 61.18 C 48.64 58.83 50.13 56.36 51.69 53.94 C 51.60 55.34 51.54 56.73 51.52 58.13 C 49.91 64.59 47.94 71.02 47.70 77.72 C 46.57 125.51 46.49 173.59 47.69 221.33 C 49.25 227.16 47.85 234.35 51.87 239.27 C 52.38 240.88 52.82 242.51 53.07 244.19 C 48.99 242.00 45.47 228.12 45.35 240.15 C 44.18 236.83 42.82 233.42 43.00 229.84 C 43.21 228.53 43.07 227.19 42.46 226.01 C 41.85 224.41 42.02 222.66 41.96 220.99 C 42.00 217.97 42.03 214.99 42.01 211.98 C 41.36 198.59 43.20 184.97 41.36 171.68 C 40.88 169.90 40.99 168.05 41.26 166.26 C 42.27 160.81 42.07 155.25 41.47 149.78 L 41.45 149.17 C 42.63 128.47 41.72 107.72 42.01 87.00 C 42.01 83.99 42.03 81.00 41.97 78.00 C 42.02 76.33 41.84 74.58 42.46 72.99 C 43.07 71.81 43.22 70.47 43.00 69.16 M 43.06 79.04 C 42.91 115.36 43.04 151.70 43.00 188.02 L 43.94 187.96 C 44.09 151.63 43.96 115.30 44.00 78.98 L 43.06 79.04 Z" />
</g>
<g id="#b1ceecff">
<path fill="#b1ceec" opacity="1.00" d=" M 66.02 55.08 C 73.60 54.75 62.73 63.23 58.96 64.08 C 58.47 59.61 62.48 56.85 66.02 55.08 Z" />
</g>
<g id="#ecececff">
<path fill="#ececec" opacity="1.00" d=" M 1266.15 54.89 C 1270.66 55.39 1268.79 60.40 1266.25 62.27 C 1262.63 65.46 1257.23 63.51 1252.99 64.00 C 1237.34 62.74 1221.66 64.72 1206.00 64.00 C 1187.44 64.67 1168.01 61.54 1150.26 68.43 C 1140.88 71.47 1132.84 77.86 1122.85 78.78 C 1115.37 76.83 1115.14 86.09 1108.87 86.79 C 1099.61 86.49 1092.63 92.10 1084.27 94.28 C 1080.70 101.95 1095.04 105.56 1094.11 112.42 C 1085.60 107.49 1081.92 93.08 1070.05 96.13 C 1063.18 98.68 1063.66 106.13 1063.09 112.12 C 1054.01 111.28 1044.92 110.22 1035.82 110.11 C 1035.40 109.79 1034.56 109.15 1034.15 108.83 C 1018.44 88.95 990.55 97.90 968.99 95.96 C 958.70 94.64 948.78 98.54 940.88 104.86 C 940.43 105.15 939.54 105.73 939.10 106.03 C 930.13 104.74 921.09 103.97 912.04 103.97 L 912.01 102.99 C 916.02 90.00 898.61 98.12 892.14 96.08 C 892.10 97.81 892.01 101.26 891.97 102.99 C 887.60 101.86 880.97 105.59 878.05 100.95 C 877.65 99.30 878.72 96.83 877.20 95.74 C 841.68 94.07 805.78 95.37 770.13 95.08 L 770.06 96.02 C 769.95 97.62 769.94 99.23 769.91 100.83 C 769.68 101.11 769.23 101.65 769.00 101.92 C 764.68 100.63 760.35 101.14 756.09 102.18 C 755.86 101.83 755.39 101.14 755.15 100.79 C 755.04 99.22 754.98 97.65 754.81 96.09 C 733.46 95.76 712.10 96.24 690.76 95.89 C 692.26 92.84 694.54 93.71 697.04 94.92 C 716.01 95.15 735.02 94.99 754.01 94.96 C 753.38 89.46 740.35 96.37 739.30 91.23 C 744.55 86.10 752.00 81.06 760.27 80.56 C 765.95 82.59 764.38 75.76 768.04 75.03 C 771.50 74.65 772.03 69.38 775.90 70.63 C 780.48 69.09 783.29 63.38 789.06 64.12 C 944.71 63.68 1100.26 61.59 1255.99 61.90 C 1259.89 62.11 1269.72 61.21 1266.15 54.89 Z" />
</g>
<g id="#848488fc">
<path fill="#848488" opacity="1.00" d=" M 1289.71 59.20 C 1290.44 57.64 1291.05 55.47 1293.12 56.82 C 1295.08 62.30 1296.88 68.11 1297.03 73.99 C 1296.96 76.66 1296.94 79.33 1296.99 82.01 C 1296.87 122.75 1297.28 163.49 1296.78 204.22 C 1294.57 177.12 1297.36 149.82 1295.33 122.71 C 1294.61 107.16 1295.15 91.59 1295.06 76.04 C 1294.75 76.20 1294.13 76.53 1293.82 76.69 L 1293.15 77.04 C 1292.94 70.94 1291.59 64.98 1289.71 59.20 Z" />
</g>
<g id="#4765a8ff">
<path fill="#4765a8" opacity="1.00" d=" M 128.77 57.23 C 139.92 56.97 151.13 56.43 162.23 57.79 C 151.08 58.01 139.87 58.56 128.77 57.23 Z" />
</g>
<g id="#94a2bcff">
<path fill="#94a2bc" opacity="1.00" d=" M 433.91 58.07 C 434.17 57.76 434.69 57.13 434.95 56.82 L 434.97 57.87 C 435.03 80.27 434.99 102.66 434.99 125.06 L 434.00 124.92 C 433.96 102.63 434.09 80.35 433.91 58.07 Z" />
</g>
<g id="#788fb9ff">
<path fill="#788fb9" opacity="1.00" d=" M 319.28 58.07 C 357.49 57.93 395.70 57.97 433.91 58.07 C 434.09 80.35 433.96 102.63 434.00 124.92 C 432.91 125.13 431.83 125.35 430.76 125.57 C 414.36 127.45 398.02 129.86 381.77 132.71 C 385.10 124.35 390.89 116.88 392.94 108.08 C 390.59 99.13 377.35 106.17 370.97 103.92 C 365.54 102.93 363.42 108.95 361.82 112.93 C 358.36 121.07 354.44 129.02 351.23 137.27 C 343.86 140.37 332.14 137.84 326.73 143.02 C 319.63 130.95 312.05 119.18 304.71 107.26 C 302.73 105.75 300.58 104.57 298.25 103.73 C 289.50 102.73 280.38 102.24 271.71 103.72 C 255.25 115.89 242.63 133.23 228.52 148.09 C 226.72 120.39 229.47 92.30 227.26 64.76 C 226.85 63.73 226.41 62.72 225.94 61.72 C 256.74 60.38 287.65 61.16 318.47 59.77 C 318.67 59.34 319.07 58.50 319.28 58.07 Z" />
</g>
<g id="#d0cfcfff">
<path fill="#d0cfcf" opacity="1.00" d=" M 434.97 57.87 C 440.62 57.97 446.28 58.02 451.95 58.10 C 452.59 80.09 450.83 102.21 452.90 124.12 L 451.99 124.11 C 446.29 123.69 440.63 124.40 434.99 125.06 C 434.99 102.66 435.03 80.27 434.97 57.87 Z" />
</g>
<g id="#7790baff">
<path fill="#7790ba" opacity="1.00" d=" M 87.56 62.37 C 126.12 62.04 164.78 61.53 203.26 61.68 C 199.73 64.67 196.86 69.04 197.98 73.96 C 197.98 105.93 198.05 137.90 197.97 169.86 C 195.69 170.18 193.44 170.62 191.18 171.06 C 191.00 169.26 190.78 167.46 190.37 165.69 C 188.68 155.21 179.66 148.06 170.13 144.82 C 157.31 140.73 143.69 139.48 130.98 135.05 C 127.68 134.14 126.63 129.21 130.71 128.66 C 146.88 128.79 163.22 129.86 179.31 128.38 C 183.08 127.78 186.51 125.12 187.19 121.22 C 187.68 116.58 189.30 111.25 187.20 106.81 C 186.38 105.62 185.34 104.59 184.19 103.72 C 166.14 102.68 147.72 102.29 129.69 103.64 C 116.02 104.15 102.71 112.97 99.77 126.76 C 99.15 131.16 98.04 135.96 99.73 140.26 C 102.13 148.51 108.12 155.77 116.28 158.77 C 130.07 164.21 145.30 165.00 159.22 169.77 C 163.02 171.39 162.10 175.58 158.28 176.33 C 141.82 176.41 125.03 174.84 108.72 176.69 C 100.04 178.83 100.40 188.62 100.76 195.83 C 86.19 201.34 72.40 209.40 61.18 220.28 C 56.93 213.86 61.40 205.20 60.02 198.00 C 60.94 156.90 60.63 115.71 62.60 74.64 C 65.17 63.57 77.69 60.98 87.56 62.37 Z" />
</g>
<g id="#afbdd4ff">
<path fill="#afbdd4" opacity="1.00" d=" M 204.77 61.68 C 211.13 60.02 217.80 61.24 224.23 61.72 C 217.75 61.95 211.25 62.12 204.77 61.68 Z" />
</g>
<g id="#ffffffff">
<path fill="#ffffff" opacity="1.00" d=" M 203.26 61.68 C 203.64 61.68 204.40 61.68 204.77 61.68 C 211.25 62.12 217.75 61.95 224.23 61.72 C 224.66 61.72 225.51 61.72 225.94 61.72 C 226.41 62.72 226.85 63.73 227.26 64.76 C 226.71 97.14 227.10 129.53 227.03 161.91 C 226.93 172.69 226.93 183.48 227.29 194.26 C 225.84 197.62 222.69 200.11 219.28 201.31 C 213.13 201.07 206.97 201.05 200.82 201.22 C 193.88 193.34 199.84 179.84 197.97 169.86 C 198.05 137.90 197.98 105.93 197.98 73.96 C 196.86 69.04 199.73 64.67 203.26 61.68 Z" />
</g>
<g id="#f8f8f8ff">
<path fill="#f8f8f8" opacity="1.00" d=" M 1283.17 61.79 C 1287.73 63.85 1287.26 70.84 1287.91 75.01 C 1288.39 125.25 1287.41 175.52 1288.39 225.75 C 1287.61 228.72 1286.73 231.68 1286.40 234.74 C 1282.71 242.63 1276.11 248.56 1267.88 251.45 C 1271.43 242.97 1280.11 236.98 1281.40 227.35 C 1281.94 217.45 1283.27 207.12 1280.88 197.36 C 1284.21 152.52 1279.87 106.86 1283.17 61.79 Z" />
</g>
<g id="#d8dee7ff">
<path fill="#d8dee7" opacity="1.00" d=" M 227.26 64.76 C 229.47 92.30 226.72 120.39 228.52 148.09 L 228.54 148.84 C 228.26 153.29 228.03 157.75 227.97 162.22 L 227.03 161.91 C 227.10 129.53 226.71 97.14 227.26 64.76 Z" />
</g>
<g id="#52515370">
<path fill="#525153" opacity="0.44" d=" M 42.46 72.99 C 41.35 72.15 41.17 69.01 43.00 69.16 C 43.22 70.47 43.07 71.81 42.46 72.99 Z" />
</g>
<g id="#bcbfcaff">
<path fill="#bcbfca" opacity="1.00" d=" M 1291.33 72.71 C 1291.81 74.50 1291.99 76.35 1292.16 78.19 C 1292.10 80.71 1292.13 83.24 1292.22 85.77 C 1291.25 131.59 1293.06 177.51 1291.31 223.28 C 1290.77 173.11 1290.79 122.89 1291.33 72.71 Z" />
</g>
<g id="#53525479">
<path fill="#535254" opacity="0.47" d=" M 1297.03 73.99 C 1299.20 74.96 1297.57 79.58 1297.94 81.98 L 1296.99 82.01 C 1296.94 79.33 1296.96 76.66 1297.03 73.99 Z" />
</g>
<g id="#9a9da7ff">
<path fill="#9a9da7" opacity="1.00" d=" M 1293.82 76.69 C 1294.13 76.53 1294.75 76.20 1295.06 76.04 C 1295.15 91.59 1294.61 107.16 1295.33 122.71 C 1295.07 155.73 1294.73 188.75 1294.24 221.72 C 1291.06 229.01 1293.68 242.80 1284.18 245.21 C 1284.84 241.70 1286.58 238.37 1286.40 234.74 C 1286.73 231.68 1287.61 228.72 1288.39 225.75 C 1289.03 228.65 1288.75 231.44 1289.51 234.41 C 1290.20 230.72 1290.90 227.02 1291.31 223.28 C 1293.06 177.51 1291.25 131.59 1292.22 85.77 C 1294.86 98.11 1290.74 112.79 1293.95 124.22 C 1294.07 108.38 1294.09 92.53 1293.82 76.69 Z" />
</g>
<g id="#66666bff">
<path fill="#66666b" opacity="1.00" d=" M 1293.15 77.04 L 1293.82 76.69 C 1294.09 92.53 1294.07 108.38 1293.95 124.22 C 1290.74 112.79 1294.86 98.11 1292.22 85.77 C 1292.13 83.24 1292.10 80.71 1292.16 78.19 C 1292.40 77.90 1292.90 77.33 1293.15 77.04 Z" />
</g>
<g id="#4241425a">
<path fill="#424142" opacity="0.35" d=" M 41.03 87.01 C 41.80 84.61 39.52 79.04 41.97 78.00 C 42.03 81.00 42.01 83.99 42.01 87.00 L 41.03 87.01 Z" />
</g>
<g id="#aeb1bdff">
<path fill="#aeb1bd" opacity="1.00" d=" M 47.69 221.33 C 46.49 173.59 46.57 125.51 47.70 77.72 C 47.83 78.21 48.10 79.18 48.23 79.67 C 47.74 126.20 48.07 172.74 48.06 219.28 C 47.97 219.79 47.79 220.82 47.69 221.33 Z" />
</g>
<g id="#7f7d80ff">
<path fill="#7f7d80" opacity="1.00" d=" M 43.06 79.04 L 44.00 78.98 C 43.96 115.30 44.09 151.63 43.94 187.96 L 43.00 188.02 C 43.04 151.70 42.91 115.36 43.06 79.04 Z" />
</g>
<g id="#dddfe8ff">
<path fill="#dddfe8" opacity="1.00" d=" M 48.23 79.67 C 49.51 126.00 49.66 172.90 48.06 219.28 C 48.07 172.74 47.74 126.20 48.23 79.67 Z" />
</g>
<g id="#909096d6">
<path fill="#909096" opacity="0.84" d=" M 1296.99 82.01 L 1297.94 81.98 C 1298.04 126.98 1298.03 171.99 1297.96 217.00 L 1297.01 217.00 C 1296.89 212.73 1296.92 208.48 1296.78 204.22 C 1297.28 163.49 1296.87 122.75 1296.99 82.01 Z" />
</g>
<g id="#76767897">
<path fill="#767678" opacity="0.59" d=" M 41.03 87.01 L 42.01 87.00 C 41.72 107.72 42.63 128.47 41.45 149.17 C 40.47 128.47 41.20 107.72 41.03 87.01 Z" />
</g>
<g id="#d6dadfff">
<path fill="#d6dadf" opacity="1.00" d=" M 770.13 95.08 C 805.78 95.37 841.68 94.07 877.20 95.74 C 841.49 96.34 805.77 95.81 770.06 96.02 L 770.13 95.08 Z" />
</g>
<g id="#7f95b5ff">
<path fill="#7f95b5" opacity="1.00" d=" M 574.04 111.06 C 578.52 92.20 609.83 88.92 617.37 106.96 C 603.01 109.07 588.51 110.13 574.04 111.06 Z" />
</g>
<g id="#7f94b4ff">
<path fill="#7f94b4" opacity="1.00" d=" M 674.82 102.87 C 679.49 99.26 685.09 97.28 690.76 95.89 C 712.10 96.24 733.46 95.76 754.81 96.09 C 754.98 97.65 755.04 99.22 755.15 100.79 C 753.17 100.95 751.19 101.10 749.23 101.25 C 737.07 101.07 724.87 100.38 712.76 101.73 C 707.92 101.95 703.10 101.86 698.30 102.28 C 693.76 102.33 689.12 101.52 684.70 102.70 C 681.36 102.83 678.13 102.92 674.82 102.87 Z" />
</g>
<g id="#7b91b2ff">
<path fill="#7b91b2" opacity="1.00" d=" M 770.06 96.02 C 805.77 95.81 841.49 96.34 877.20 95.74 C 878.72 96.83 877.65 99.30 878.05 100.95 L 878.04 101.94 C 875.40 101.92 872.79 101.87 870.21 101.81 C 864.43 100.84 858.58 101.04 852.77 101.20 C 825.15 100.63 797.52 101.34 769.91 100.83 C 769.94 99.23 769.95 97.62 770.06 96.02 Z" />
</g>
<g id="#7e93b3ff">
<path fill="#7e93b3" opacity="1.00" d=" M 892.14 96.08 C 898.61 98.12 916.02 90.00 912.01 102.99 C 910.21 103.03 906.59 103.12 904.78 103.16 C 900.83 103.08 896.90 103.03 892.99 103.02 L 891.97 102.99 C 892.01 101.26 892.10 97.81 892.14 96.08 Z" />
</g>
<g id="#7c92b3ff">
<path fill="#7c92b3" opacity="1.00" d=" M 940.88 104.86 C 948.78 98.54 958.70 94.64 968.99 95.96 C 990.55 97.90 1018.44 88.95 1034.15 108.83 C 1020.45 109.41 1006.89 107.06 993.22 106.79 C 987.09 105.83 980.91 105.94 974.76 106.22 C 971.19 106.09 967.75 106.01 964.22 105.83 C 959.74 105.07 955.25 105.08 950.77 105.20 C 947.40 105.07 944.19 104.95 940.88 104.86 Z" />
</g>
<g id="#7d90adff">
<path fill="#7d90ad" opacity="1.00" d=" M 1070.05 96.13 C 1081.92 93.08 1085.60 107.49 1094.11 112.42 C 1094.76 113.23 1095.40 114.05 1096.10 114.85 C 1085.41 114.12 1074.78 112.05 1064.06 112.04 C 1063.73 142.77 1064.38 173.50 1063.76 204.22 C 1062.02 173.77 1063.39 142.78 1063.09 112.12 C 1063.66 106.13 1063.18 98.68 1070.05 96.13 Z" />
</g>
<g id="#7d90b1ff">
<path fill="#7d90b1" opacity="1.00" d=" M 1150.07 96.11 C 1156.35 95.68 1162.66 95.95 1168.98 96.01 C 1169.00 105.06 1168.99 114.10 1169.00 123.14 C 1162.63 122.61 1156.32 121.44 1149.97 120.81 L 1149.94 119.78 C 1150.07 111.89 1149.82 104.00 1150.07 96.11 Z" />
</g>
<g id="#a7b2c4ff">
<path fill="#a7b2c4" opacity="1.00" d=" M 1168.98 96.01 C 1171.85 102.77 1169.01 114.54 1169.97 122.89 L 1169.00 123.14 C 1168.99 114.10 1169.00 105.06 1168.98 96.01 Z" />
</g>
<g id="#4c638bff">
<path fill="#4c638b" opacity="1.00" d=" M 712.76 101.73 C 724.87 100.38 737.07 101.07 749.23 101.25 C 737.12 102.65 724.90 101.93 712.76 101.73 Z" />
</g>
<g id="#1c335fff">
<path fill="#1c335f" opacity="1.00" d=" M 749.23 101.25 C 751.19 101.10 753.17 100.95 755.15 100.79 C 755.04 105.52 755.02 110.26 754.96 115.00 C 734.24 115.51 713.30 113.99 692.71 115.71 C 687.09 118.07 680.73 122.26 679.74 128.76 C 678.84 143.14 678.04 158.01 679.69 172.28 C 682.04 177.82 686.54 183.22 692.76 184.26 C 713.53 185.81 734.47 184.88 755.30 184.71 C 755.03 191.24 754.87 197.79 755.21 204.33 C 734.07 203.74 712.90 203.89 691.76 204.25 C 682.74 203.03 674.60 198.31 668.20 191.99 C 664.21 186.34 661.19 180.01 659.76 173.24 C 660.01 158.08 660.29 142.91 659.75 127.75 C 661.20 119.08 665.25 110.54 671.99 104.75 C 672.92 104.12 673.86 103.49 674.82 102.87 C 678.13 102.92 681.36 102.83 684.70 102.70 C 689.17 102.65 693.87 103.52 698.30 102.28 C 703.10 101.86 707.92 101.95 712.76 101.73 C 724.90 101.93 737.12 102.65 749.23 101.25 Z" />
</g>
<g id="#9ca2aeff">
<path fill="#9ca2ae" opacity="1.00" d=" M 755.15 100.79 C 755.39 101.14 755.86 101.83 756.09 102.18 C 755.01 106.08 757.92 113.63 754.98 115.98 L 754.96 115.00 C 755.02 110.26 755.04 105.52 755.15 100.79 Z" />
</g>
<g id="#d9d8d9ff">
<path fill="#d9d8d9" opacity="1.00" d=" M 756.09 102.18 C 760.35 101.14 764.68 100.63 769.00 101.92 C 769.69 106.21 767.56 111.26 769.77 115.25 C 783.93 117.02 798.61 115.50 812.99 116.02 C 812.85 143.43 813.32 170.84 812.72 198.24 C 810.46 184.45 813.31 169.61 808.69 156.34 C 806.32 151.12 803.17 158.42 799.87 159.09 C 800.60 154.92 805.91 145.21 809.11 152.14 C 810.14 149.53 809.93 146.52 808.85 143.96 C 803.47 144.09 802.54 154.10 796.92 149.30 C 790.88 149.18 791.82 153.99 796.73 155.45 C 793.11 159.29 800.49 160.26 797.79 163.86 C 791.66 166.42 791.93 163.42 792.84 159.87 C 790.48 160.32 788.28 161.31 786.00 162.03 C 787.38 159.16 787.82 156.03 787.77 152.87 C 780.04 157.40 766.51 155.96 763.64 165.84 C 760.58 164.81 756.92 162.90 753.93 164.89 C 751.28 165.85 749.94 171.91 756.92 168.24 C 758.63 171.86 753.84 174.83 751.00 172.99 C 749.05 170.18 744.61 176.62 745.00 172.02 C 744.74 167.21 741.47 172.31 741.44 174.58 C 740.86 178.02 735.05 176.58 735.08 179.84 C 741.12 184.55 752.52 176.52 757.28 183.76 C 757.34 189.95 760.69 198.68 756.03 204.00 C 755.36 197.66 757.39 190.83 755.30 184.71 C 734.59 183.15 713.58 184.20 692.76 184.26 C 686.54 183.22 682.04 177.82 679.69 172.28 C 680.16 157.78 680.15 143.26 679.74 128.76 C 680.73 122.26 687.09 118.07 692.71 115.71 C 713.46 116.24 734.22 115.97 754.98 115.98 C 757.92 113.63 755.01 106.08 756.09 102.18 Z" />
</g>
<g id="#9fa4afff">
<path fill="#9fa4af" opacity="1.00" d=" M 769.00 101.92 C 769.23 101.65 769.68 101.11 769.91 100.83 C 769.88 105.64 769.98 110.45 769.77 115.25 C 767.56 111.26 769.69 106.21 769.00 101.92 Z" />
</g>
<g id="#1a315dff">
<path fill="#1a315d" opacity="1.00" d=" M 769.91 100.83 C 797.52 101.34 825.15 100.63 852.77 101.20 C 858.53 102.14 864.38 101.96 870.21 101.81 C 872.79 101.87 875.40 101.92 878.04 101.94 C 878.00 106.28 878.17 110.63 877.97 114.97 C 863.31 115.14 848.65 114.80 834.01 115.04 C 831.62 142.93 833.69 174.61 833.00 203.97 C 826.54 204.00 820.11 203.91 813.68 204.27 C 814.34 174.85 813.89 145.42 813.97 116.01 C 800.97 113.81 784.25 115.26 769.77 115.25 C 769.98 110.45 769.88 105.64 769.91 100.83 Z" />
</g>
<g id="#475e86ff">
<path fill="#475e86" opacity="1.00" d=" M 852.77 101.20 C 858.58 101.04 864.43 100.84 870.21 101.81 C 864.38 101.96 858.53 102.14 852.77 101.20 Z" />
</g>
<g id="#d5d5d5ff">
<path fill="#d5d5d5" opacity="1.00" d=" M 878.05 100.95 C 880.97 105.59 887.60 101.86 891.97 102.99 C 892.11 136.66 891.86 170.33 892.05 203.99 C 896.97 206.27 905.40 204.65 911.95 204.97 C 907.72 207.83 893.20 211.15 890.53 203.34 C 880.68 204.27 872.22 210.94 862.02 209.31 C 842.47 216.03 822.07 220.40 802.13 226.02 C 791.40 229.03 779.80 224.99 769.82 230.91 C 757.68 232.52 745.38 235.01 732.90 234.54 C 686.92 234.87 641.00 236.54 595.00 235.96 C 563.93 236.94 532.69 238.12 501.66 236.06 C 516.69 233.34 532.43 237.54 546.98 231.87 C 558.02 227.08 570.01 225.36 581.35 221.36 C 596.85 217.93 611.41 210.75 627.05 208.05 C 635.67 203.76 645.43 210.80 655.00 208.02 C 661.98 207.74 654.86 197.52 661.08 196.09 C 663.83 194.99 668.74 196.20 668.20 191.99 C 674.60 198.31 682.74 203.03 691.76 204.25 C 712.79 205.35 734.27 205.67 755.21 204.33 L 756.03 204.00 C 760.69 198.68 757.34 189.95 757.28 183.76 C 752.52 176.52 741.12 184.55 735.08 179.84 C 735.05 176.58 740.86 178.02 741.44 174.58 C 741.47 172.31 744.74 167.21 745.00 172.02 C 744.61 176.62 749.05 170.18 751.00 172.99 C 753.84 174.83 758.63 171.86 756.92 168.24 C 749.94 171.91 751.28 165.85 753.93 164.89 C 756.92 162.90 760.58 164.81 763.64 165.84 C 766.51 155.96 780.04 157.40 787.77 152.87 C 787.82 156.03 787.38 159.16 786.00 162.03 C 788.28 161.31 790.48 160.32 792.84 159.87 C 791.93 163.42 791.66 166.42 797.79 163.86 C 800.49 160.26 793.11 159.29 796.73 155.45 C 791.82 153.99 790.88 149.18 796.92 149.30 C 802.54 154.10 803.47 144.09 808.85 143.96 C 809.93 146.52 810.14 149.53 809.11 152.14 C 805.91 145.21 800.60 154.92 799.87 159.09 C 803.17 158.42 806.32 151.12 808.69 156.34 C 813.31 169.61 810.46 184.45 812.72 198.24 C 812.96 199.75 813.44 202.76 813.68 204.27 C 819.86 204.97 829.19 206.32 833.98 203.99 C 834.08 174.67 833.92 145.34 834.02 116.01 C 848.64 115.83 863.28 116.28 877.90 115.91 L 877.97 114.97 C 878.17 110.63 878.00 106.28 878.04 101.94 L 878.05 100.95 Z" />
</g>
<g id="#496089ff">
<path fill="#496089" opacity="1.00" d=" M 684.70 102.70 C 689.12 101.52 693.76 102.33 698.30 102.28 C 693.87 103.52 689.17 102.65 684.70 102.70 Z" />
</g>
<g id="#a2b1cbff">
<path fill="#a2b1cb" opacity="1.00" d=" M 129.69 103.64 C 147.72 102.29 166.14 102.68 184.19 103.72 C 166.03 104.04 147.84 104.37 129.69 103.64 Z" />
</g>
<g id="#a1b0caff">
<path fill="#a1b0ca" opacity="1.00" d=" M 271.71 103.72 C 280.38 102.24 289.50 102.73 298.25 103.73 C 289.40 103.92 280.54 104.33 271.71 103.72 Z" />
</g>
<g id="#4f5e7aff">
<path fill="#4f5e7a" opacity="1.00" d=" M 891.97 102.99 L 892.99 103.02 C 893.03 136.67 892.96 170.32 893.02 203.98 L 892.05 203.99 C 891.86 170.33 892.11 136.66 891.97 102.99 Z" />
</g>
<g id="#19305cff">
<path fill="#19305c" opacity="1.00" d=" M 892.99 103.02 C 896.90 103.03 900.83 103.08 904.78 103.16 C 906.31 103.42 909.37 103.94 910.89 104.20 C 911.17 137.46 910.89 170.73 911.01 203.99 C 904.99 203.99 899.00 204.01 893.02 203.98 C 892.96 170.32 893.03 136.67 892.99 103.02 Z" />
</g>
<g id="#35476aff">
<path fill="#35476a" opacity="1.00" d=" M 904.78 103.16 C 906.59 103.12 910.21 103.03 912.01 102.99 L 912.04 103.97 C 911.93 137.32 912.04 170.67 912.01 204.02 L 911.01 203.99 C 910.89 170.73 911.17 137.46 910.89 104.20 C 909.37 103.94 906.31 103.42 904.78 103.16 Z" />
</g>
<g id="#fdfdfeff">
<path fill="#fdfdfe" opacity="1.00" d=" M 228.52 148.09 C 242.63 133.23 255.25 115.89 271.71 103.72 C 280.54 104.33 289.40 103.92 298.25 103.73 C 300.58 104.57 302.73 105.75 304.71 107.26 C 312.05 119.18 319.63 130.95 326.73 143.02 C 331.21 149.52 335.29 156.27 339.46 162.97 C 344.02 154.71 347.46 145.90 351.23 137.27 C 354.44 129.02 358.36 121.07 361.82 112.93 C 363.42 108.95 365.54 102.93 370.97 103.92 C 377.35 106.17 390.59 99.13 392.94 108.08 C 390.89 116.88 385.10 124.35 381.77 132.71 C 366.10 166.94 349.40 200.71 334.10 235.11 C 331.24 240.12 324.84 238.94 320.01 239.10 C 315.67 238.49 310.22 240.60 306.79 236.99 C 307.26 235.03 307.18 233.00 306.83 231.04 C 313.01 217.64 320.18 204.62 325.99 191.10 C 317.84 175.99 306.70 162.71 297.92 147.98 C 293.02 141.42 289.02 134.21 283.96 127.79 C 276.60 134.17 270.34 141.67 263.76 148.83 C 261.74 150.90 264.62 153.14 265.60 154.96 C 274.60 168.13 283.38 181.47 292.35 194.65 C 294.31 197.38 292.18 200.58 289.29 201.32 C 281.77 200.98 274.25 200.99 266.74 201.28 C 253.66 190.35 246.89 173.22 236.06 160.07 C 233.52 156.35 230.77 152.77 228.54 148.84 L 228.52 148.09 Z" />
</g>
<g id="#d9d9d9ff">
<path fill="#d9d9d9" opacity="1.00" d=" M 617.95 107.42 C 635.90 106.73 653.97 103.14 671.99 104.75 C 665.25 110.54 661.20 119.08 659.75 127.75 C 658.53 142.84 658.43 158.16 659.76 173.24 C 661.19 180.01 664.21 186.34 668.20 191.99 C 668.74 196.20 663.83 194.99 661.08 196.09 C 654.86 197.52 661.98 207.74 655.00 208.02 C 645.43 210.80 635.67 203.76 627.05 208.05 C 611.41 210.75 596.85 217.93 581.35 221.36 C 570.01 225.36 558.02 227.08 546.98 231.87 C 532.43 237.54 516.69 233.34 501.66 236.06 C 485.45 236.41 469.26 237.34 453.04 237.05 C 453.10 236.61 453.23 235.71 453.29 235.27 C 455.65 229.90 454.13 223.73 456.29 218.32 C 460.27 214.38 467.63 215.99 471.14 211.12 C 472.84 208.83 475.60 209.30 477.84 210.35 C 489.70 207.31 501.75 201.26 513.11 199.17 C 513.41 193.97 519.02 198.87 520.57 195.63 C 522.09 189.47 529.27 194.97 532.90 190.29 C 535.21 194.55 541.42 185.20 537.42 194.51 C 537.07 197.49 532.68 202.86 536.59 204.27 C 543.38 204.45 553.15 207.01 558.92 203.99 C 561.52 195.83 565.20 188.08 568.07 180.02 C 587.05 179.96 606.02 180.03 625.01 179.97 C 628.78 187.79 631.21 196.21 635.00 204.02 C 640.30 205.16 651.77 206.49 656.00 203.98 C 643.91 171.62 630.86 139.52 617.95 107.42 Z" />
</g>
<g id="#d1d1d1ff">
<path fill="#d1d1d1" opacity="1.00" d=" M 912.04 103.97 C 921.09 103.97 930.13 104.74 939.10 106.03 C 933.94 111.82 930.01 119.06 928.73 126.75 C 927.49 142.19 927.57 157.85 928.62 173.30 C 931.32 188.78 943.96 202.18 959.75 204.28 C 977.17 205.39 994.90 205.58 1012.29 204.35 C 1029.45 200.74 1043.89 185.12 1043.01 167.03 C 1041.73 148.13 1047.37 126.81 1035.82 110.11 C 1044.92 110.22 1054.01 111.28 1063.09 112.12 C 1063.39 142.78 1062.02 173.77 1063.76 204.22 C 1069.92 205.11 1077.06 206.18 1083.28 204.30 C 1085.66 180.26 1082.19 155.53 1084.90 131.57 C 1107.85 155.66 1131.75 178.91 1154.42 203.30 C 1150.26 204.84 1148.11 200.24 1146.86 197.14 C 1139.85 202.89 1130.03 201.73 1121.80 202.80 C 1110.38 210.61 1097.30 208.47 1084.30 210.39 C 1077.83 215.42 1069.67 213.75 1062.14 213.51 C 1056.65 221.56 1046.37 221.91 1037.57 221.50 C 1029.89 219.48 1023.56 223.93 1017.40 227.48 C 998.71 227.43 979.99 229.89 961.10 228.48 C 958.48 230.79 956.11 233.34 953.80 235.95 C 799.85 236.13 645.94 237.83 492.00 238.00 C 478.98 238.12 465.90 237.38 452.96 239.04 L 452.90 238.03 L 453.04 237.05 C 469.26 237.34 485.45 236.41 501.66 236.06 C 532.69 238.12 563.93 236.94 595.00 235.96 C 641.00 236.54 686.92 234.87 732.90 234.54 C 745.38 235.01 757.68 232.52 769.82 230.91 C 779.80 224.99 791.40 229.03 802.13 226.02 C 822.07 220.40 842.47 216.03 862.02 209.31 C 872.22 210.94 880.68 204.27 890.53 203.34 C 893.20 211.15 907.72 207.83 911.95 204.97 L 912.01 204.02 C 912.04 170.67 911.93 137.32 912.04 103.97 Z" />
</g>
<g id="#1a315bff">
<path fill="#1a315b" opacity="1.00" d=" M 939.10 106.03 C 939.54 105.73 940.43 105.15 940.88 104.86 C 944.19 104.95 947.40 105.07 950.77 105.20 C 955.18 105.89 959.72 105.91 964.22 105.83 C 967.75 106.01 971.19 106.09 974.76 106.22 C 980.85 107.15 987.06 107.04 993.22 106.79 C 1006.89 107.06 1020.45 109.41 1034.15 108.83 C 1034.56 109.15 1035.40 109.79 1035.82 110.11 C 1047.37 126.81 1041.73 148.13 1043.01 167.03 C 1043.89 185.12 1029.45 200.74 1012.29 204.35 C 994.78 203.76 977.26 203.87 959.75 204.28 C 943.96 202.18 931.32 188.78 928.62 173.30 C 929.09 157.79 929.32 142.25 928.73 126.75 C 930.01 119.06 933.94 111.82 939.10 106.03 M 961.99 116.01 C 954.96 116.97 949.14 123.07 948.00 129.99 C 946.29 141.09 946.31 158.91 947.99 170.01 C 949.21 176.51 954.22 182.82 960.97 183.99 L 961.05 184.93 C 977.10 184.56 995.51 186.19 1010.02 184.03 C 1016.58 183.73 1021.41 176.78 1023.00 171.03 C 1024.91 159.68 1024.49 141.35 1023.03 129.98 C 1022.42 123.03 1015.94 116.61 1009.04 115.98 L 1008.95 115.04 C 993.62 115.58 975.72 113.68 961.99 116.01 Z" />
</g>
<g id="#4c6289ff">
<path fill="#4c6289" opacity="1.00" d=" M 950.77 105.20 C 955.25 105.08 959.74 105.07 964.22 105.83 C 959.72 105.91 955.18 105.89 950.77 105.20 Z" />
</g>
<g id="#425981ff">
<path fill="#425981" opacity="1.00" d=" M 974.76 106.22 C 980.91 105.94 987.09 105.83 993.22 106.79 C 987.06 107.04 980.85 107.15 974.76 106.22 Z" />
</g>
<g id="#c1c9daff">
<path fill="#c1c9da" opacity="1.00" d=" M 187.20 106.81 C 189.30 111.25 187.68 116.58 187.19 121.22 C 187.13 116.42 187.14 111.61 187.20 106.81 Z" />
</g>
<g id="#1e3561ff">
<path fill="#1e3561" opacity="1.00" d=" M 574.04 111.06 C 588.51 110.13 603.01 109.07 617.37 106.96 L 617.95 107.42 C 630.86 139.52 643.91 171.62 656.00 203.98 C 648.98 203.97 642.00 204.04 635.00 204.02 C 631.21 196.21 628.78 187.79 625.01 179.97 C 607.17 178.55 585.67 177.99 568.07 180.02 C 565.20 188.08 561.52 195.83 558.92 203.99 C 552.65 202.48 541.66 207.00 537.75 201.96 C 549.88 172.18 561.55 142.18 573.17 112.18 C 573.39 111.90 573.82 111.34 574.04 111.06 M 593.25 117.29 C 586.79 131.23 581.85 145.82 575.90 159.97 C 584.45 163.06 597.94 159.82 608.00 161.02 C 609.28 160.75 621.27 162.00 617.34 159.27 C 611.57 145.16 606.14 130.90 600.16 116.87 C 599.00 114.97 594.32 114.77 593.25 117.29 Z" />
</g>
<g id="#ddddddff">
<path fill="#dddddd" opacity="1.00" d=" M 452.90 124.12 C 492.83 118.87 533.03 114.73 573.17 112.18 C 561.55 142.18 549.88 172.18 537.75 201.96 C 537.46 202.54 536.88 203.69 536.59 204.27 C 532.68 202.86 537.07 197.49 537.42 194.51 C 541.42 185.20 535.21 194.55 532.90 190.29 C 529.27 194.97 522.09 189.47 520.57 195.63 C 519.02 198.87 513.41 193.97 513.11 199.17 C 501.75 201.26 489.70 207.31 477.84 210.35 C 475.60 209.30 472.84 208.83 471.14 211.12 C 467.63 215.99 460.27 214.38 456.29 218.32 C 454.13 223.73 455.65 229.90 453.29 235.27 C 452.56 198.22 453.33 161.16 452.90 124.12 Z" />
</g>
<g id="#193059ff">
<path fill="#193059" opacity="1.00" d=" M 1064.06 112.04 C 1074.78 112.05 1085.41 114.12 1096.10 114.85 C 1096.54 115.16 1097.43 115.80 1097.88 116.11 C 1114.29 133.88 1131.55 150.83 1148.33 168.26 C 1148.81 168.93 1149.33 169.60 1149.88 170.26 C 1150.14 153.77 1149.96 137.29 1149.97 120.81 C 1156.32 121.44 1162.63 122.61 1169.00 123.14 C 1169.17 147.85 1168.63 172.57 1169.28 197.28 C 1167.89 204.17 1160.15 205.06 1154.42 203.30 C 1131.75 178.91 1107.85 155.66 1084.90 131.57 C 1084.45 131.36 1083.57 130.94 1083.12 130.73 C 1083.00 155.25 1082.70 179.79 1083.28 204.30 C 1076.75 204.04 1070.25 203.89 1063.76 204.22 C 1064.38 173.50 1063.73 142.77 1064.06 112.04 Z" />
</g>
<g id="#576581ff">
<path fill="#576581" opacity="1.00" d=" M 692.71 115.71 C 713.30 113.99 734.24 115.51 754.96 115.00 L 754.98 115.98 C 734.22 115.97 713.46 116.24 692.71 115.71 Z" />
</g>
<g id="#8b93a2ff">
<path fill="#8b93a2" opacity="1.00" d=" M 769.77 115.25 C 784.25 115.26 800.97 113.81 813.97 116.01 L 812.99 116.02 C 798.61 115.50 783.93 117.02 769.77 115.25 Z" />
</g>
<g id="#505f7bff">
<path fill="#505f7b" opacity="1.00" d=" M 833.00 203.97 C 833.69 174.61 831.62 142.93 834.01 115.04 L 834.02 116.01 C 833.92 145.34 834.08 174.67 833.98 203.99 L 833.00 203.97 Z" />
</g>
<g id="#8a92a1ff">
<path fill="#8a92a1" opacity="1.00" d=" M 834.01 115.04 C 848.65 114.80 863.31 115.14 877.97 114.97 L 877.90 115.91 C 863.28 116.28 848.64 115.83 834.02 116.01 L 834.01 115.04 Z" />
</g>
<g id="#54627dff">
<path fill="#54627d" opacity="1.00" d=" M 961.99 116.01 C 975.72 113.68 993.62 115.58 1008.95 115.04 L 1009.04 115.98 C 993.35 116.03 977.67 115.97 961.99 116.01 Z" />
</g>
<g id="#dadadbff">
<path fill="#dadadb" opacity="1.00" d=" M 593.25 117.29 C 594.32 114.77 599.00 114.97 600.16 116.87 C 606.14 130.90 611.57 145.16 617.34 159.27 C 603.58 160.82 589.70 159.68 575.90 159.97 C 581.85 145.82 586.79 131.23 593.25 117.29 Z" />
</g>
<g id="#aeb1b8ff">
<path fill="#aeb1b8" opacity="1.00" d=" M 812.99 116.02 L 813.97 116.01 C 813.89 145.42 814.34 174.85 813.68 204.27 C 813.44 202.76 812.96 199.75 812.72 198.24 C 813.32 170.84 812.85 143.43 812.99 116.02 Z" />
</g>
<g id="#d3d3d4ff">
<path fill="#d3d3d4" opacity="1.00" d=" M 948.00 129.99 C 949.14 123.07 954.96 116.97 961.99 116.01 C 977.67 115.97 993.35 116.03 1009.04 115.98 C 1015.94 116.61 1022.42 123.03 1023.03 129.98 C 1022.94 143.66 1023.03 157.34 1023.00 171.03 C 1021.41 176.78 1016.58 183.73 1010.02 184.03 C 993.66 183.94 977.31 184.04 960.97 183.99 C 954.22 182.82 949.21 176.51 947.99 170.01 C 947.99 156.67 947.98 143.33 948.00 129.99 Z" />
</g>
<g id="#d2d2d2ff">
<path fill="#d2d2d2" opacity="1.00" d=" M 1097.88 116.11 C 1114.99 116.12 1132.03 118.61 1148.95 121.04 C 1148.64 136.77 1149.83 152.57 1148.33 168.26 C 1131.55 150.83 1114.29 133.88 1097.88 116.11 Z" />
</g>
<g id="#a0a4adff">
<path fill="#a0a4ad" opacity="1.00" d=" M 1148.95 121.04 C 1149.19 120.73 1149.69 120.10 1149.94 119.78 L 1149.97 120.81 C 1149.96 137.29 1150.14 153.77 1149.88 170.26 C 1149.33 169.60 1148.81 168.93 1148.33 168.26 C 1149.83 152.57 1148.64 136.77 1148.95 121.04 Z" />
</g>
<g id="#57647dff">
<path fill="#57647d" opacity="1.00" d=" M 1169.00 123.14 L 1169.97 122.89 L 1170.00 123.90 C 1169.43 148.32 1171.07 173.01 1169.28 197.28 C 1168.63 172.57 1169.17 147.85 1169.00 123.14 Z" />
</g>
<g id="#727072fe">
<path fill="#727072" opacity="1.00" d=" M 1295.33 122.71 C 1297.36 149.82 1294.57 177.12 1296.78 204.22 C 1296.92 208.48 1296.89 212.73 1297.01 217.00 C 1296.88 219.98 1297.01 223.00 1297.00 226.00 C 1296.95 227.39 1296.86 228.78 1296.74 230.17 C 1296.33 227.20 1296.52 223.94 1294.24 221.72 C 1294.73 188.75 1295.07 155.73 1295.33 122.71 Z" />
</g>
<g id="#939494ff">
<path fill="#939494" opacity="1.00" d=" M 434.99 125.06 C 440.63 124.40 446.29 123.69 451.99 124.11 C 451.98 162.06 452.06 200.02 451.95 237.98 C 446.26 237.99 440.58 238.00 434.91 238.07 C 435.12 200.40 434.95 162.73 434.99 125.06 Z" />
</g>
<g id="#bebebeff">
<path fill="#bebebe" opacity="1.00" d=" M 451.99 124.11 L 452.90 124.12 C 453.33 161.16 452.56 198.22 453.29 235.27 C 453.23 235.71 453.10 236.61 453.04 237.05 L 452.90 238.03 L 451.95 237.98 C 452.06 200.02 451.98 162.06 451.99 124.11 Z" />
</g>
<g id="#cececeff">
<path fill="#cecece" opacity="1.00" d=" M 1170.00 123.90 C 1183.52 125.14 1197.04 126.82 1210.33 129.62 C 1230.00 133.28 1251.49 138.82 1264.77 154.98 C 1269.35 161.71 1272.26 169.36 1275.12 176.94 C 1272.85 174.32 1270.66 175.79 1269.33 178.43 C 1267.82 191.12 1267.80 203.96 1266.66 216.68 C 1266.09 221.02 1262.56 223.79 1259.84 226.87 C 1269.57 221.54 1265.79 238.25 1259.00 234.06 C 1232.33 232.94 1205.66 233.23 1179.02 234.97 C 1103.92 234.56 1028.90 236.83 953.80 235.95 C 956.11 233.34 958.48 230.79 961.10 228.48 C 979.99 229.89 998.71 227.43 1017.40 227.48 C 1023.56 223.93 1029.89 219.48 1037.57 221.50 C 1046.37 221.91 1056.65 221.56 1062.14 213.51 C 1069.67 213.75 1077.83 215.42 1084.30 210.39 C 1097.30 208.47 1110.38 210.61 1121.80 202.80 C 1130.03 201.73 1139.85 202.89 1146.86 197.14 C 1148.11 200.24 1150.26 204.84 1154.42 203.30 C 1160.15 205.06 1167.89 204.17 1169.28 197.28 C 1171.07 173.01 1169.43 148.32 1170.00 123.90 Z" />
</g>
<g id="#424b6eff">
<path fill="#424b6e" opacity="1.00" d=" M 430.76 125.57 C 431.83 125.35 432.91 125.13 434.00 124.92 L 434.99 125.06 C 434.95 162.73 435.12 200.40 434.91 238.07 C 434.87 238.61 434.81 239.70 434.77 240.25 C 434.47 239.17 434.17 238.10 433.90 237.03 C 434.03 200.10 434.11 163.16 433.89 126.23 C 433.10 126.06 431.54 125.74 430.76 125.57 Z" />
</g>
<g id="#1e2e65ff">
<path fill="#1e2e65" opacity="1.00" d=" M 381.77 132.71 C 398.02 129.86 414.36 127.45 430.76 125.57 C 431.54 125.74 433.10 126.06 433.89 126.23 C 434.11 163.16 434.03 200.10 433.90 237.03 C 401.60 236.94 369.30 237.05 337.01 237.00 C 335.68 237.16 335.00 235.80 334.10 235.11 C 349.40 200.71 366.10 166.94 381.77 132.71 Z" />
</g>
<g id="#c8d0dfff">
<path fill="#c8d0df" opacity="1.00" d=" M 99.73 140.26 C 98.04 135.96 99.15 131.16 99.77 126.76 C 99.77 131.26 99.78 135.76 99.73 140.26 Z" />
</g>
<g id="#3a4b6dff">
<path fill="#3a4b6d" opacity="1.00" d=" M 928.62 173.30 C 927.57 157.85 927.49 142.19 928.73 126.75 C 929.32 142.25 929.09 157.79 928.62 173.30 Z" />
</g>
<g id="#a4b3ccff">
<path fill="#a4b3cc" opacity="1.00" d=" M 130.71 128.66 C 146.73 127.03 163.16 128.23 179.31 128.38 C 163.22 129.86 146.88 128.79 130.71 128.66 Z" />
</g>
<g id="#788eb7ff">
<path fill="#788eb7" opacity="1.00" d=" M 263.76 148.83 C 270.34 141.67 276.60 134.17 283.96 127.79 C 289.02 134.21 293.02 141.42 297.92 147.98 C 287.15 149.70 275.39 150.21 265.60 154.96 C 264.62 153.14 261.74 150.90 263.76 148.83 Z" />
</g>
<g id="#868f9fff">
<path fill="#868f9f" opacity="1.00" d=" M 659.76 173.24 C 658.43 158.16 658.53 142.84 659.75 127.75 C 660.29 142.91 660.01 158.08 659.76 173.24 Z" />
</g>
<g id="#a7abb5ff">
<path fill="#a7abb5" opacity="1.00" d=" M 679.69 172.28 C 678.04 158.01 678.84 143.14 679.74 128.76 C 680.15 143.26 680.16 157.78 679.69 172.28 Z" />
</g>
<g id="#505e7aff">
<path fill="#505e7a" opacity="1.00" d=" M 947.99 170.01 C 946.31 158.91 946.29 141.09 948.00 129.99 C 947.98 143.33 947.99 156.67 947.99 170.01 Z" />
</g>
<g id="#677389ff">
<path fill="#677389" opacity="1.00" d=" M 1023.03 129.98 C 1024.49 141.35 1024.91 159.68 1023.00 171.03 C 1023.03 157.34 1022.94 143.66 1023.03 129.98 Z" />
</g>
<g id="#7e8697ff">
<path fill="#7e8697" opacity="1.00" d=" M 1083.12 130.73 C 1083.57 130.94 1084.45 131.36 1084.90 131.57 C 1082.19 155.53 1085.66 180.26 1083.28 204.30 C 1082.70 179.79 1083.00 155.25 1083.12 130.73 Z" />
<path fill="#7e8697" opacity="1.00" d=" M 892.05 203.99 L 893.02 203.98 C 899.00 204.01 904.99 203.99 911.01 203.99 L 912.01 204.02 L 911.95 204.97 C 905.40 204.65 896.97 206.27 892.05 203.99 Z" />
</g>
<g id="#24346bff">
<path fill="#24346b" opacity="1.00" d=" M 326.73 143.02 C 332.14 137.84 343.86 140.37 351.23 137.27 C 347.46 145.90 344.02 154.71 339.46 162.97 C 335.29 156.27 331.21 149.52 326.73 143.02 Z" />
</g>
<g id="#1f2f67ff">
<path fill="#1f2f67" opacity="1.00" d=" M 265.60 154.96 C 275.39 150.21 287.15 149.70 297.92 147.98 C 306.70 162.71 317.84 175.99 325.99 191.10 C 320.18 204.62 313.01 217.64 306.83 231.04 C 305.73 232.52 305.57 234.42 305.75 236.21 C 243.56 238.05 181.24 236.47 119.00 237.00 C 96.80 235.94 74.16 240.48 52.72 232.86 C 55.21 228.45 57.86 224.14 61.18 220.28 C 72.40 209.40 86.19 201.34 100.76 195.83 C 100.87 198.01 101.85 200.12 103.81 201.22 C 122.15 202.58 140.87 202.50 159.25 201.18 C 159.67 201.13 160.51 201.03 160.93 200.97 C 162.36 201.40 163.98 201.36 165.12 200.27 C 176.80 198.09 189.64 190.47 190.25 177.25 C 190.48 175.70 190.95 172.61 191.18 171.06 C 193.44 170.62 195.69 170.18 197.97 169.86 C 199.84 179.84 193.88 193.34 200.82 201.22 C 206.81 202.02 213.36 203.13 219.28 201.31 C 222.69 200.11 225.84 197.62 227.29 194.26 C 228.73 183.64 227.78 172.89 227.97 162.22 C 230.69 161.60 233.39 160.91 236.06 160.07 C 246.89 173.22 253.66 190.35 266.74 201.28 C 274.12 201.98 282.00 203.10 289.29 201.32 C 292.18 200.58 294.31 197.38 292.35 194.65 C 283.38 181.47 274.60 168.13 265.60 154.96 Z" />
</g>
<g id="#7a8fb8ff">
<path fill="#7a8fb8" opacity="1.00" d=" M 227.97 162.22 C 228.03 157.75 228.26 153.29 228.54 148.84 C 230.77 152.77 233.52 156.35 236.06 160.07 C 233.39 160.91 230.69 161.60 227.97 162.22 Z" />
</g>
<g id="#72727492">
<path fill="#727274" opacity="0.57" d=" M 41.47 149.78 C 42.07 155.25 42.27 160.81 41.26 166.26 C 41.18 160.78 40.38 155.20 41.47 149.78 Z" />
</g>
<g id="#798397ff">
<path fill="#798397" opacity="1.00" d=" M 617.34 159.27 C 621.27 162.00 609.28 160.75 608.00 161.02 C 597.94 159.82 584.45 163.06 575.90 159.97 C 589.70 159.68 603.58 160.82 617.34 159.27 Z" />
</g>
<g id="#b6bac8ff">
<path fill="#b6bac8" opacity="1.00" d=" M 227.03 161.91 L 227.97 162.22 C 227.78 172.89 228.73 183.64 227.29 194.26 C 226.93 183.48 226.93 172.69 227.03 161.91 Z" />
</g>
<g id="#b5bccdff">
<path fill="#b5bccd" opacity="1.00" d=" M 190.37 165.69 C 190.78 167.46 191.00 169.26 191.18 171.06 C 190.95 172.61 190.48 175.70 190.25 177.25 C 189.99 173.40 190.17 169.53 190.37 165.69 Z" />
</g>
<g id="#7a7a7c9d">
<path fill="#7a7a7c" opacity="0.62" d=" M 41.36 171.68 C 43.20 184.97 41.36 198.59 42.01 211.98 L 41.05 212.02 C 41.26 198.59 40.36 185.08 41.36 171.68 Z" />
</g>
<g id="#c8c8c9ff">
<path fill="#c8c8c9" opacity="1.00" d=" M 1269.33 178.43 C 1270.66 175.79 1272.85 174.32 1275.12 176.94 C 1275.68 178.43 1275.85 180.04 1276.04 181.63 C 1270.44 195.71 1276.69 212.41 1273.23 227.16 C 1271.32 233.01 1265.35 237.73 1258.99 236.94 C 1167.33 237.57 1075.62 235.87 984.00 238.02 C 820.98 237.50 658.05 239.30 495.04 239.31 C 481.05 240.47 467.02 239.87 453.01 240.02 L 452.96 239.04 C 465.90 237.38 478.98 238.12 492.00 238.00 C 645.94 237.83 799.85 236.13 953.80 235.95 C 1028.90 236.83 1103.92 234.56 1179.02 234.97 C 1205.66 233.23 1232.33 232.94 1259.00 234.06 C 1265.79 238.25 1269.57 221.54 1259.84 226.87 C 1262.56 223.79 1266.09 221.02 1266.66 216.68 C 1267.80 203.96 1267.82 191.12 1269.33 178.43 Z" />
</g>
<g id="#acb8cfff">
<path fill="#acb8cf" opacity="1.00" d=" M 108.72 176.69 C 125.03 174.84 141.82 176.41 158.28 176.33 C 141.97 178.15 125.18 176.58 108.72 176.69 Z" />
</g>
<g id="#3a4d70ff">
<path fill="#3a4d70" opacity="1.00" d=" M 568.07 180.02 C 585.67 177.99 607.17 178.55 625.01 179.97 C 606.02 180.03 587.05 179.96 568.07 180.02 Z" />
</g>
<g id="#bfbfc0ff">
<path fill="#bfbfc0" opacity="1.00" d=" M 1273.23 227.16 C 1276.69 212.41 1270.44 195.71 1276.04 181.63 C 1277.66 186.86 1279.06 192.18 1280.88 197.36 C 1283.27 207.12 1281.94 217.45 1281.40 227.35 C 1280.11 236.98 1271.43 242.97 1267.88 251.45 C 1267.03 251.83 1266.16 252.14 1265.28 252.39 C 1258.65 252.82 1265.57 248.48 1267.31 246.15 C 1271.58 242.84 1273.72 237.86 1274.84 232.74 C 1271.08 233.52 1268.46 236.71 1264.88 237.88 C 1122.63 240.34 980.25 237.80 838.00 240.00 C 709.67 239.31 581.39 240.98 453.07 240.98 L 453.01 240.02 C 467.02 239.87 481.05 240.47 495.04 239.31 C 658.05 239.30 820.98 237.50 984.00 238.02 C 1075.62 235.87 1167.33 237.57 1258.99 236.94 C 1265.35 237.73 1271.32 233.01 1273.23 227.16 Z" />
</g>
<g id="#7f889aff">
<path fill="#7f889a" opacity="1.00" d=" M 692.76 184.26 C 713.58 184.20 734.59 183.15 755.30 184.71 C 734.47 184.88 713.53 185.81 692.76 184.26 Z" />
</g>
<g id="#7a8394ff">
<path fill="#7a8394" opacity="1.00" d=" M 960.97 183.99 C 977.31 184.04 993.66 183.94 1010.02 184.03 C 995.51 186.19 977.10 184.56 961.05 184.93 L 960.97 183.99 Z" />
</g>
<g id="#979da9ff">
<path fill="#979da9" opacity="1.00" d=" M 755.30 184.71 C 757.39 190.83 755.36 197.66 756.03 204.00 L 755.21 204.33 C 754.87 197.79 755.03 191.24 755.30 184.71 Z" />
</g>
<g id="#9ea5b9ff">
<path fill="#9ea5b9" opacity="1.00" d=" M 160.93 200.97 C 161.80 199.43 163.74 199.62 165.12 200.27 C 163.98 201.36 162.36 201.40 160.93 200.97 Z" />
</g>
<g id="#5e698eff">
<path fill="#5e698e" opacity="1.00" d=" M 103.81 201.22 C 122.28 200.75 140.77 200.99 159.25 201.18 C 140.87 202.50 122.15 202.58 103.81 201.22 Z" />
</g>
<g id="#5d688dff">
<path fill="#5d688d" opacity="1.00" d=" M 200.82 201.22 C 206.97 201.05 213.13 201.07 219.28 201.31 C 213.36 203.13 206.81 202.02 200.82 201.22 Z" />
</g>
<g id="#5f6a8dff">
<path fill="#5f6a8d" opacity="1.00" d=" M 266.74 201.28 C 274.25 200.99 281.77 200.98 289.29 201.32 C 282.00 203.10 274.12 201.98 266.74 201.28 Z" />
</g>
<g id="#848d9eff">
<path fill="#848d9e" opacity="1.00" d=" M 536.59 204.27 C 536.88 203.69 537.46 202.54 537.75 201.96 C 541.66 207.00 552.65 202.48 558.92 203.99 C 553.15 207.01 543.38 204.45 536.59 204.27 Z" />
</g>
<g id="#80899aff">
<path fill="#80899a" opacity="1.00" d=" M 635.00 204.02 C 642.00 204.04 648.98 203.97 656.00 203.98 C 651.77 206.49 640.30 205.16 635.00 204.02 Z" />
</g>
<g id="#80889aff">
<path fill="#80889a" opacity="1.00" d=" M 691.76 204.25 C 712.90 203.89 734.07 203.74 755.21 204.33 C 734.27 205.67 712.79 205.35 691.76 204.25 Z" />
</g>
<g id="#7f8798ff">
<path fill="#7f8798" opacity="1.00" d=" M 813.68 204.27 C 820.11 203.91 826.54 204.00 833.00 203.97 L 833.98 203.99 C 829.19 206.32 819.86 204.97 813.68 204.27 Z" />
<path fill="#7f8798" opacity="1.00" d=" M 959.75 204.28 C 977.26 203.87 994.78 203.76 1012.29 204.35 C 994.90 205.58 977.17 205.39 959.75 204.28 Z" />
</g>
<g id="#7b8394ff">
<path fill="#7b8394" opacity="1.00" d=" M 1063.76 204.22 C 1070.25 203.89 1076.75 204.04 1083.28 204.30 C 1077.06 206.18 1069.92 205.11 1063.76 204.22 Z" />
</g>
<g id="#4443445e">
<path fill="#444344" opacity="0.37" d=" M 41.05 212.02 L 42.01 211.98 C 42.03 214.99 42.00 217.97 41.96 220.99 C 38.74 220.94 41.72 214.43 41.05 212.02 Z" />
</g>
<g id="#57565977">
<path fill="#575659" opacity="0.47" d=" M 1297.01 217.00 L 1297.96 217.00 C 1297.07 219.35 1299.53 225.03 1297.00 226.00 C 1297.01 223.00 1296.88 219.98 1297.01 217.00 Z" />
</g>
<g id="#646063fe">
<path fill="#646063" opacity="1.00" d=" M 1294.24 221.72 C 1296.52 223.94 1296.33 227.20 1296.74 230.17 C 1295.19 239.59 1290.92 249.83 1283.34 255.56 C 1280.76 255.28 1278.36 257.25 1275.84 256.09 C 1276.12 255.56 1276.69 254.50 1276.98 253.98 C 1272.25 255.11 1267.55 256.37 1262.79 257.26 C 1259.50 257.14 1256.43 257.02 1253.23 257.19 C 1039.49 256.74 825.74 257.13 612.00 257.00 C 559.27 257.55 506.30 255.91 453.71 257.78 C 451.88 257.86 450.05 257.87 448.23 257.80 C 368.22 255.90 288.07 257.60 208.00 256.95 C 203.24 257.15 198.33 256.29 193.71 257.77 C 192.22 257.82 190.73 257.83 189.24 257.79 C 152.30 256.15 115.20 257.13 78.21 257.29 C 73.77 256.89 69.43 255.88 65.12 254.79 C 60.33 254.61 56.98 250.88 52.61 249.66 C 51.66 248.91 50.96 247.57 49.59 247.67 C 47.44 246.15 46.16 242.79 45.35 240.15 C 45.47 228.12 48.99 242.00 53.07 244.19 C 52.82 242.51 52.38 240.88 51.87 239.27 C 51.89 237.32 51.92 235.37 51.91 233.42 L 52.72 232.86 C 52.81 233.63 52.99 235.16 53.08 235.93 C 53.16 237.42 53.85 238.77 54.66 240.00 C 58.15 245.61 64.14 249.18 70.03 251.85 C 69.76 256.54 77.26 253.49 79.59 254.46 C 102.78 252.87 126.19 255.35 149.29 253.33 C 154.09 253.05 158.92 253.15 163.71 252.69 C 191.49 251.75 219.89 257.14 247.27 252.24 C 268.42 251.83 289.58 251.89 310.72 252.16 C 315.90 255.19 322.34 253.59 328.11 254.48 C 614.46 255.50 900.91 255.04 1187.29 254.71 C 1195.24 254.85 1203.56 256.17 1211.22 253.20 C 1226.76 252.74 1242.31 253.17 1257.87 252.98 C 1260.34 253.08 1262.81 252.89 1265.28 252.39 C 1266.16 252.14 1267.03 251.83 1267.88 251.45 C 1276.11 248.56 1282.71 242.63 1286.40 234.74 C 1286.58 238.37 1284.84 241.70 1284.18 245.21 C 1293.68 242.80 1291.06 229.01 1294.24 221.72 Z" />
</g>
<g id="#5c5c5f80">
<path fill="#5c5c5f" opacity="0.50" d=" M 42.46 226.01 C 43.07 227.19 43.21 228.53 43.00 229.84 C 41.16 229.99 41.35 226.84 42.46 226.01 Z" />
</g>
<g id="#aeb2c2ff">
<path fill="#aeb2c2" opacity="1.00" d=" M 305.75 236.21 C 305.57 234.42 305.73 232.52 306.83 231.04 C 307.18 233.00 307.26 235.03 306.79 236.99 C 306.53 236.79 306.01 236.40 305.75 236.21 Z" />
</g>
<g id="#1d2a58ff">
<path fill="#1d2a58" opacity="1.00" d=" M 52.72 232.86 C 74.16 240.48 96.80 235.94 119.00 237.00 C 181.24 236.47 243.56 238.05 305.75 236.21 C 306.01 236.40 306.53 236.79 306.79 236.99 C 310.22 240.60 315.67 238.49 320.01 239.10 C 324.84 238.94 331.24 240.12 334.10 235.11 C 335.00 235.80 335.68 237.16 337.01 237.00 C 369.30 237.05 401.60 236.94 433.90 237.03 C 434.17 238.10 434.47 239.17 434.77 240.25 C 434.82 240.66 434.91 241.50 434.96 241.91 C 397.43 239.21 359.58 242.82 322.02 239.98 C 255.74 242.09 189.33 240.52 123.00 241.00 C 99.66 240.22 75.53 244.00 53.08 235.93 C 52.99 235.16 52.81 233.63 52.72 232.86 Z" />
</g>
<g id="#b4b4b4ff">
<path fill="#b4b4b4" opacity="1.00" d=" M 1264.88 237.88 C 1268.46 236.71 1271.08 233.52 1274.84 232.74 C 1273.72 237.86 1271.58 242.84 1267.31 246.15 C 1266.95 244.42 1267.35 242.25 1265.71 241.11 C 994.83 240.13 724.04 242.94 453.15 241.89 L 453.07 240.98 C 581.39 240.98 709.67 239.31 838.00 240.00 C 980.25 237.80 1122.63 240.34 1264.88 237.88 Z" />
</g>
<g id="#1a2448ff">
<path fill="#1a2448" opacity="1.00" d=" M 53.08 235.93 C 75.53 244.00 99.66 240.22 123.00 241.00 C 189.33 240.52 255.74 242.09 322.02 239.98 C 359.58 242.82 397.43 239.21 434.96 241.91 L 435.07 242.94 C 435.07 244.24 435.07 245.55 435.08 246.85 C 321.85 244.80 208.40 246.93 95.14 245.21 C 81.10 248.62 68.33 240.06 54.66 240.00 C 53.85 238.77 53.16 237.42 53.08 235.93 Z" />
</g>
<g id="#7b7b7bff">
<path fill="#7b7b7b" opacity="1.00" d=" M 434.91 238.07 C 440.58 238.00 446.26 237.99 451.95 237.98 C 451.97 239.37 452.00 240.77 452.04 242.17 C 446.43 243.14 440.73 243.04 435.07 242.94 L 434.96 241.91 C 434.91 241.50 434.82 240.66 434.77 240.25 C 434.81 239.70 434.87 238.61 434.91 238.07 Z" />
</g>
<g id="#aaaaaaff">
<path fill="#aaaaaa" opacity="1.00" d=" M 451.95 237.98 L 452.90 238.03 L 452.96 239.04 L 453.01 240.02 L 453.07 240.98 L 453.15 241.89 C 724.04 242.94 994.83 240.13 1265.71 241.11 C 1267.35 242.25 1266.95 244.42 1267.31 246.15 C 1265.57 248.48 1258.65 252.82 1265.28 252.39 C 1262.81 252.89 1260.34 253.08 1257.87 252.98 C 1261.56 251.01 1267.59 244.96 1260.61 243.32 C 1038.34 242.46 816.32 244.90 594.00 244.00 C 546.96 244.61 499.77 242.77 452.82 244.92 C 452.55 244.00 452.29 243.08 452.04 242.17 C 452.00 240.77 451.97 239.37 451.95 237.98 Z" />
</g>
<g id="#18203cff">
<path fill="#18203c" opacity="1.00" d=" M 54.66 240.00 C 68.33 240.06 81.10 248.62 95.14 245.21 C 208.40 246.93 321.85 244.80 435.08 246.85 C 435.12 247.59 435.20 249.07 435.24 249.81 C 435.57 253.19 433.81 254.26 429.97 253.01 C 390.23 252.50 350.43 254.03 310.72 252.16 C 289.58 251.89 268.42 251.83 247.27 252.24 C 219.44 252.21 191.46 251.15 163.71 252.69 C 158.92 253.15 154.09 253.05 149.29 253.33 C 122.94 251.54 96.23 255.14 70.03 251.85 C 64.14 249.18 58.15 245.61 54.66 240.00 Z" />
</g>
<g id="#656565ff">
<path fill="#656565" opacity="1.00" d=" M 435.07 242.94 C 440.73 243.04 446.43 243.14 452.04 242.17 C 452.29 243.08 452.55 244.00 452.82 244.92 C 452.87 245.43 452.96 246.45 453.00 246.97 C 453.01 248.97 453.00 250.98 453.00 253.00 C 447.99 250.93 436.61 257.27 435.24 249.81 C 435.20 249.07 435.12 247.59 435.08 246.85 C 435.07 245.55 435.07 244.24 435.07 242.94 Z" />
</g>
<g id="#a1a2a2ff">
<path fill="#a1a2a2" opacity="1.00" d=" M 594.00 244.00 C 816.32 244.90 1038.34 242.46 1260.61 243.32 C 1267.59 244.96 1261.56 251.01 1257.87 252.98 C 1242.31 253.17 1226.76 252.74 1211.22 253.20 C 1125.08 252.60 1038.92 253.42 952.78 252.78 C 1053.43 249.56 1154.27 250.02 1255.03 250.06 C 1257.63 250.08 1262.01 249.77 1261.07 246.08 C 1049.38 245.90 837.69 246.05 626.00 246.00 C 613.87 246.44 601.58 244.83 589.60 247.14 C 544.07 246.79 498.53 247.14 453.00 246.97 C 452.96 246.45 452.87 245.43 452.82 244.92 C 499.77 242.77 546.96 244.61 594.00 244.00 Z" />
</g>
<g id="#9a9b9bff">
<path fill="#9a9b9b" opacity="1.00" d=" M 589.60 247.14 C 601.58 244.83 613.87 246.44 626.00 246.00 C 837.69 246.05 1049.38 245.90 1261.07 246.08 C 1262.01 249.77 1257.63 250.08 1255.03 250.06 C 1154.27 250.02 1053.43 249.56 952.78 252.78 C 892.11 253.45 831.43 252.53 770.76 253.25 C 759.76 252.84 748.76 253.12 737.78 252.78 C 840.71 249.11 943.78 249.45 1046.80 248.88 L 1047.22 248.05 C 894.71 247.36 741.95 249.18 589.60 247.14 Z" />
</g>
<g id="#444243fe">
<path fill="#444243" opacity="1.00" d=" M 49.59 247.67 C 50.96 247.57 51.66 248.91 52.61 249.66 C 55.34 253.90 60.25 256.14 65.04 257.15 C 66.62 257.54 68.19 257.97 69.79 258.25 C 74.73 259.18 79.79 259.15 84.79 258.79 C 86.12 258.92 87.45 259.07 88.78 259.22 C 255.45 261.04 422.27 259.48 589.00 260.00 C 805.67 260.02 1022.34 259.95 1239.01 260.04 C 1242.76 260.02 1246.52 259.79 1250.29 259.34 C 1256.53 258.61 1263.09 259.95 1269.27 258.36 C 1271.48 257.71 1273.61 256.77 1275.84 256.09 C 1278.36 257.25 1280.76 255.28 1283.34 255.56 C 1281.01 259.07 1275.53 259.16 1271.81 259.92 C 1270.38 260.06 1267.53 260.35 1266.10 260.49 C 1264.32 260.62 1260.77 260.88 1259.00 261.01 C 866.00 261.00 472.99 260.97 79.99 261.03 C 77.95 261.07 75.90 260.98 73.91 260.51 C 72.48 260.37 69.62 260.09 68.19 259.95 C 60.29 260.13 52.51 254.99 49.59 247.67 Z" />
</g>
<g id="#959697ff">
<path fill="#959697" opacity="1.00" d=" M 453.00 246.97 C 498.53 247.14 544.07 246.79 589.60 247.14 C 741.95 249.18 894.71 247.36 1047.22 248.05 L 1046.80 248.88 C 943.78 249.45 840.71 249.11 737.78 252.78 C 642.85 253.29 547.92 252.86 453.00 253.00 C 453.00 250.98 453.01 248.97 453.00 246.97 Z" />
</g>
<g id="#8d8d94ff">
<path fill="#8d8d94" opacity="1.00" d=" M 52.61 249.66 C 56.98 250.88 60.33 254.61 65.12 254.79 C 61.98 254.39 63.70 255.91 65.04 257.15 C 60.25 256.14 55.34 253.90 52.61 249.66 Z" />
</g>
<g id="#4a4949ff">
<path fill="#4a4949" opacity="1.00" d=" M 435.24 249.81 C 436.61 257.27 447.99 250.93 453.00 253.00 C 547.92 252.86 642.85 253.29 737.78 252.78 C 748.76 253.12 759.76 252.84 770.76 253.25 C 909.53 255.48 1048.52 252.55 1187.29 254.71 C 900.91 255.04 614.46 255.50 328.11 254.48 C 322.34 253.59 315.90 255.19 310.72 252.16 C 350.43 254.03 390.23 252.50 429.97 253.01 C 433.81 254.26 435.57 253.19 435.24 249.81 Z" />
</g>
<g id="#464549ff">
<path fill="#464549" opacity="1.00" d=" M 70.03 251.85 C 96.23 255.14 122.94 251.54 149.29 253.33 C 126.19 255.35 102.78 252.87 79.59 254.46 C 77.26 253.49 69.76 256.54 70.03 251.85 Z" />
</g>
<g id="#505360ff">
<path fill="#505360" opacity="1.00" d=" M 163.71 252.69 C 191.46 251.15 219.44 252.21 247.27 252.24 C 219.89 257.14 191.49 251.75 163.71 252.69 Z" />
</g>
<g id="#5b595aff">
<path fill="#5b595a" opacity="1.00" d=" M 770.76 253.25 C 831.43 252.53 892.11 253.45 952.78 252.78 C 1038.92 253.42 1125.08 252.60 1211.22 253.20 C 1203.56 256.17 1195.24 254.85 1187.29 254.71 C 1048.52 252.55 909.53 255.48 770.76 253.25 Z" />
</g>
<g id="#e0dedfff">
<path fill="#e0dedf" opacity="1.00" d=" M 1262.79 257.26 C 1267.55 256.37 1272.25 255.11 1276.98 253.98 C 1276.69 254.50 1276.12 255.56 1275.84 256.09 C 1273.61 256.77 1271.48 257.71 1269.27 258.36 C 1267.65 258.09 1264.41 257.53 1262.79 257.26 Z" />
</g>
<g id="#cbccd2ff">
<path fill="#cbccd2" opacity="1.00" d=" M 65.04 257.15 C 63.70 255.91 61.98 254.39 65.12 254.79 C 69.43 255.88 73.77 256.89 78.21 257.29 C 75.40 257.59 72.61 258.02 69.79 258.25 C 68.19 257.97 66.62 257.54 65.04 257.15 Z" />
</g>
<g id="#817d81ff">
<path fill="#817d81" opacity="1.00" d=" M 78.21 257.29 C 115.20 257.13 152.30 256.15 189.24 257.79 C 174.83 258.17 160.41 257.93 146.00 258.01 C 125.61 258.43 105.13 257.05 84.79 258.79 C 79.79 259.15 74.73 259.18 69.79 258.25 C 72.61 258.02 75.40 257.59 78.21 257.29 Z" />
</g>
<g id="#7c787bff">
<path fill="#7c787b" opacity="1.00" d=" M 193.71 257.77 C 198.33 256.29 203.24 257.15 208.00 256.95 C 288.07 257.60 368.22 255.90 448.23 257.80 C 363.39 258.11 278.54 258.18 193.71 257.77 Z" />
</g>
<g id="#7d787bff">
<path fill="#7d787b" opacity="1.00" d=" M 453.71 257.78 C 506.30 255.91 559.27 257.55 612.00 257.00 C 825.74 257.13 1039.49 256.74 1253.23 257.19 C 1066.56 259.08 879.73 257.46 693.00 258.00 C 613.24 257.85 533.47 258.30 453.71 257.78 Z" />
</g>
<g id="#a5a1a4ff">
<path fill="#a5a1a4" opacity="1.00" d=" M 1253.23 257.19 C 1256.43 257.02 1259.50 257.14 1262.79 257.26 C 1264.41 257.53 1267.65 258.09 1269.27 258.36 C 1263.09 259.95 1256.53 258.61 1250.29 259.34 C 882.20 258.55 514.09 259.23 145.99 258.99 L 146.00 258.01 C 160.41 257.93 174.83 258.17 189.24 257.79 C 190.73 257.83 192.22 257.82 193.71 257.77 C 278.54 258.18 363.39 258.11 448.23 257.80 C 450.05 257.87 451.88 257.86 453.71 257.78 C 533.47 258.30 613.24 257.85 693.00 258.00 C 879.73 257.46 1066.56 259.08 1253.23 257.19 Z" />
</g>
<g id="#bcbcc4ff">
<path fill="#bcbcc4" opacity="1.00" d=" M 84.79 258.79 C 105.13 257.05 125.61 258.43 146.00 258.01 L 145.99 258.99 C 126.92 259.10 107.85 258.78 88.78 259.22 C 87.45 259.07 86.12 258.92 84.79 258.79 Z" />
</g>
<g id="#7a7578ff">
<path fill="#7a7578" opacity="1.00" d=" M 88.78 259.22 C 107.85 258.78 126.92 259.10 145.99 258.99 C 514.09 259.23 882.20 258.55 1250.29 259.34 C 1246.52 259.79 1242.76 260.02 1239.01 260.04 C 1022.34 259.95 805.67 260.02 589.00 260.00 C 422.27 259.48 255.45 261.04 88.78 259.22 Z" />
</g>
<g id="#4c4b4c8f">
<path fill="#4c4b4c" opacity="0.56" d=" M 68.19 259.95 C 69.62 260.09 72.48 260.37 73.91 260.51 C 72.55 261.74 68.50 262.21 68.19 259.95 Z" />
</g>
<g id="#45444580">
<path fill="#454445" opacity="0.50" d=" M 1266.10 260.49 C 1267.53 260.35 1270.38 260.06 1271.81 259.92 C 1271.53 262.23 1267.41 261.80 1266.10 260.49 Z" />
</g>
<g id="#454545b7">
<path fill="#454545" opacity="0.72" d=" M 79.99 261.03 C 472.99 260.97 866.00 261.00 1259.00 261.01 L 1259.00 261.98 C 866.01 261.99 473.02 262.06 80.04 261.95 L 79.99 261.03 Z" />
</g>
</svg>
