<?xml version="1.0" encoding="UTF-8" ?>
<!DOCTYPE svg PUBLIC "-//W3C//DTD SVG 1.1//EN" "http://www.w3.org/Graphics/SVG/1.1/DTD/svg11.dtd">
<svg width="1240pt" height="510pt" viewBox="0 0 1240 510" version="1.1" xmlns="http://www.w3.org/2000/svg">
<g id="#f99f00ff">
<path fill="#f99f00" opacity="1.00" d=" M 572.50 0.00 L 671.79 0.00 C 672.28 20.99 671.86 42.00 672.00 63.00 C 671.98 100.34 672.03 137.68 671.97 175.03 C 671.67 181.41 675.35 187.98 681.23 190.65 C 687.67 193.85 695.12 193.20 702.05 192.67 C 710.30 191.67 717.60 184.58 717.51 176.05 C 717.48 121.04 717.51 66.04 717.49 11.03 C 717.50 7.35 717.38 3.67 717.69 0.00 L 817.00 0.00 C 816.98 62.03 817.03 124.06 816.98 186.08 C 814.45 213.50 801.13 240.28 779.35 257.44 C 761.88 271.36 739.96 278.65 717.97 281.25 C 697.54 283.52 676.66 283.07 656.53 278.69 C 637.10 274.54 618.52 265.72 603.92 252.13 C 591.28 240.06 581.91 224.63 576.88 207.90 C 574.22 199.20 572.15 190.15 572.48 180.99 C 572.52 120.66 572.49 60.33 572.50 0.00 Z" />
<path fill="#f99f00" opacity="1.00" d=" M 1081.91 0.00 L 1240.00 0.00 L 1240.00 87.50 C 1214.83 87.50 1189.67 87.50 1164.50 87.50 C 1164.50 152.33 1164.50 217.16 1164.51 281.99 C 1130.00 282.01 1095.50 282.00 1061.00 282.00 C 1061.00 217.17 1061.00 152.34 1061.00 87.50 C 1035.50 87.50 1010.00 87.51 984.50 87.50 C 984.50 58.50 984.50 29.50 984.50 0.50 C 1012.64 0.49 1040.78 0.50 1068.93 0.50 C 1073.25 0.47 1077.62 0.78 1081.91 0.00 Z" />
<path fill="#f99f00" opacity="1.00" d=" M 90.22 0.45 C 122.37 0.64 154.53 0.31 186.68 0.62 C 214.35 94.62 242.52 188.48 270.17 282.49 C 233.31 282.43 196.43 282.68 159.57 282.37 C 156.83 275.09 155.31 267.39 152.84 260.00 C 136.01 260.01 119.18 259.99 102.35 260.01 C 100.36 267.49 98.38 274.98 96.49 282.49 C 64.33 282.52 32.16 282.49 0.00 282.50 L 0.00 281.31 C 30.14 187.71 60.27 94.11 90.22 0.45 M 114.85 205.49 C 123.62 205.50 132.39 205.51 141.16 205.48 C 137.26 185.97 133.21 166.49 129.14 147.02 C 124.22 166.46 119.56 185.99 114.85 205.49 Z" />
<path fill="#f99f00" opacity="1.00" d=" M 291.50 0.50 C 330.67 0.49 369.85 0.52 409.02 0.49 C 414.85 0.32 420.63 1.16 426.43 1.63 C 448.17 4.57 469.73 10.90 488.59 22.31 C 505.23 32.23 519.64 46.10 529.47 62.84 C 540.24 80.50 545.66 100.96 547.69 121.41 C 549.70 144.00 548.57 167.13 542.16 188.99 C 537.33 205.68 529.00 221.39 517.61 234.54 C 501.05 253.93 478.06 266.94 453.93 274.54 C 440.76 278.64 427.13 281.18 413.40 282.39 C 372.77 282.65 332.13 282.43 291.50 282.50 C 291.50 188.50 291.50 94.50 291.50 0.50 M 387.51 90.88 C 387.49 125.26 387.51 159.64 387.49 194.02 C 403.64 191.75 419.97 187.01 433.06 176.94 C 443.84 168.84 450.90 155.65 450.53 142.04 C 451.02 130.06 445.96 118.04 437.05 110.02 C 423.51 97.95 405.26 92.51 387.51 90.88 Z" />
<path fill="#f99f00" opacity="1.00" d=" M 850.50 0.50 C 882.67 0.49 914.83 0.50 947.00 0.50 C 947.00 64.50 947.00 128.50 947.00 192.50 C 972.66 192.49 998.33 192.50 1023.99 192.49 C 1024.01 222.50 1024.00 252.50 1023.99 282.51 C 966.16 282.49 908.33 282.51 850.50 282.50 C 850.50 188.50 850.50 94.50 850.50 0.50 Z" />
</g>
<g id="#ef731dff">
<path fill="#ef731d" opacity="1.00" d=" M 50.26 336.25 C 62.80 329.86 76.89 326.20 91.00 326.48 C 115.41 325.75 139.60 336.08 156.89 353.16 C 160.10 356.36 161.11 361.75 158.68 365.70 C 157.44 368.20 154.63 369.13 152.22 370.10 C 148.36 372.02 144.20 369.22 141.00 367.16 C 127.52 354.18 108.70 346.63 89.93 347.47 C 76.57 347.38 63.45 352.07 52.36 359.38 C 36.51 369.93 25.30 387.17 22.17 405.97 C 19.61 419.36 21.52 433.42 26.85 445.92 C 34.98 465.19 52.14 480.35 72.28 486.02 C 96.03 493.19 123.41 486.42 140.95 468.83 C 144.08 465.65 149.03 463.78 153.32 465.68 C 157.59 466.85 158.61 471.82 159.87 475.46 C 158.85 478.64 157.74 482.02 155.31 484.44 C 142.43 496.74 125.95 505.28 108.37 508.32 C 105.92 508.75 103.40 508.98 101.10 510.00 L 82.55 510.00 C 79.14 508.82 75.56 508.33 72.03 507.68 C 39.55 500.83 12.13 474.76 3.44 442.76 C 1.49 436.11 0.75 429.21 0.00 422.35 L 0.00 413.58 C 0.91 403.93 2.52 394.27 6.10 385.23 C 14.20 364.26 30.16 346.37 50.26 336.25 Z" />
<path fill="#ef731d" opacity="1.00" d=" M 461.65 334.49 C 465.91 324.47 481.76 323.60 487.94 332.10 C 490.26 336.25 492.31 340.55 494.31 344.86 C 516.31 390.78 538.39 436.65 560.37 482.57 C 562.61 488.47 567.64 493.87 566.41 500.57 C 565.31 503.76 562.90 506.51 559.86 507.98 C 554.85 509.89 548.86 507.40 546.58 502.57 C 538.73 485.87 530.29 469.44 522.69 452.62 C 491.25 452.41 459.80 452.45 428.36 452.60 C 421.92 466.57 415.03 480.32 408.40 494.20 C 405.88 498.37 404.96 503.74 400.84 506.76 C 396.74 509.66 390.99 508.95 387.34 505.66 C 384.25 502.17 383.40 496.93 385.68 492.79 C 411.05 440.04 436.28 387.24 461.65 334.49 M 438.47 431.96 C 463.14 432.04 487.81 431.98 512.47 431.99 C 509.67 425.20 505.90 418.86 503.02 412.10 C 493.67 393.23 484.86 374.10 475.37 355.30 C 463.20 380.91 450.66 406.36 438.47 431.96 Z" />
<path fill="#ef731d" opacity="1.00" d=" M 186.98 337.98 C 186.54 331.21 194.35 325.51 200.68 328.08 C 205.40 329.38 208.16 334.26 208.00 338.97 C 208.01 359.81 207.99 380.65 208.00 401.50 C 255.17 401.50 302.33 401.50 349.50 401.50 C 349.49 380.32 349.51 359.15 349.49 337.97 C 349.18 331.31 356.62 325.64 362.94 328.01 C 367.35 329.16 370.44 333.52 370.50 338.01 C 370.50 391.34 370.51 444.67 370.50 498.00 C 370.64 503.55 365.67 508.65 360.10 508.55 C 354.87 508.66 349.48 504.40 349.49 498.95 C 349.51 473.30 349.49 447.65 349.50 422.00 C 302.33 422.00 255.17 422.00 208.00 422.00 C 207.99 447.37 208.02 472.74 207.99 498.10 C 207.97 503.47 203.48 508.44 198.03 508.55 C 192.75 508.84 187.01 504.74 187.01 499.14 C 186.98 445.42 187.03 391.70 186.98 337.98 Z" />
<path fill="#ef731d" opacity="1.00" d=" M 580.55 337.16 C 580.80 329.19 591.33 324.46 597.46 329.62 C 602.90 334.06 607.50 339.48 612.58 344.33 C 625.21 356.06 637.12 368.54 649.37 380.66 C 661.74 391.95 673.24 404.17 685.18 415.93 C 698.47 428.27 710.96 441.45 723.91 454.16 C 730.68 459.91 736.61 466.55 743.00 472.71 C 743.01 427.78 742.99 382.84 743.01 337.91 C 743.04 331.89 748.82 326.54 754.89 327.59 C 759.92 328.11 764.17 332.81 764.00 337.89 C 764.01 389.60 763.99 441.30 764.01 493.01 C 763.96 496.86 764.56 501.19 762.01 504.44 C 758.33 509.32 750.62 509.88 746.16 505.74 C 740.01 499.95 734.18 493.82 728.18 487.88 C 713.12 474.27 699.59 459.04 684.60 445.35 C 674.79 435.49 664.93 425.69 655.13 415.84 C 645.94 407.74 637.64 398.70 628.87 390.14 C 619.97 380.95 610.42 372.44 601.51 363.26 C 601.48 408.47 601.53 453.68 601.48 498.89 C 601.26 504.97 595.05 509.57 589.16 508.42 C 584.31 507.55 580.40 502.97 580.50 498.01 C 580.53 444.39 580.43 390.77 580.55 337.16 Z" />
<path fill="#ef731d" opacity="1.00" d=" M 804.94 329.87 C 808.85 326.69 814.92 326.67 818.72 330.05 C 823.91 334.91 828.58 340.33 834.07 344.87 C 847.10 357.52 859.53 370.79 872.86 383.12 C 882.34 392.65 891.89 402.12 901.37 411.67 C 914.96 423.99 927.38 437.55 940.63 450.24 C 948.56 457.41 955.81 465.30 963.49 472.74 C 963.50 428.16 963.51 383.57 963.49 338.98 C 963.47 334.60 965.76 329.85 970.11 328.34 C 976.14 325.47 984.50 330.18 984.51 337.03 C 984.47 391.28 984.55 445.53 984.47 499.78 C 983.77 507.88 972.78 511.27 967.00 506.01 C 958.71 498.34 950.97 490.08 942.91 482.16 C 929.15 469.58 916.60 455.72 902.98 442.99 C 889.57 430.43 877.19 416.77 863.62 404.37 C 853.29 394.02 842.97 383.66 832.60 373.36 C 828.86 370.22 825.43 366.75 822.00 363.29 C 822.00 408.57 822.00 453.85 822.00 499.13 C 821.97 505.87 814.05 510.36 808.03 507.94 C 803.45 506.53 800.90 501.61 801.00 497.04 C 800.98 444.69 801.03 392.34 800.98 340.00 C 800.89 336.31 801.82 332.18 804.94 329.87 Z" />
<path fill="#ef731d" opacity="1.00" d=" M 1150.42 328.51 C 1156.37 325.26 1165.18 329.89 1165.00 336.91 C 1165.01 386.94 1164.99 436.97 1165.00 487.00 C 1186.70 486.99 1208.40 487.02 1230.10 486.98 C 1234.95 486.65 1239.15 490.69 1240.00 495.31 L 1240.00 498.72 C 1239.12 503.34 1234.91 507.36 1230.05 507.02 C 1204.67 506.97 1179.30 507.02 1153.92 507.00 C 1148.74 507.25 1144.05 502.21 1144.47 497.07 C 1144.53 443.71 1144.49 390.35 1144.49 337.00 C 1144.34 333.23 1147.09 329.94 1150.42 328.51 Z" />
<path fill="#ef731d" opacity="1.00" d=" M 1021.54 340.10 C 1021.37 334.41 1025.96 328.69 1031.92 329.00 C 1057.32 329.00 1082.73 328.99 1108.13 329.00 C 1113.58 329.09 1118.20 334.50 1117.52 339.91 C 1117.18 345.29 1112.18 349.53 1106.87 349.47 C 1085.41 349.55 1063.96 349.48 1042.50 349.50 C 1042.50 366.83 1042.50 384.17 1042.50 401.50 C 1055.31 401.50 1068.12 401.49 1080.94 401.50 C 1086.49 401.43 1092.24 406.09 1091.56 412.00 C 1092.02 417.23 1087.15 421.95 1082.04 422.00 C 1068.86 422.01 1055.68 421.99 1042.50 422.00 C 1042.50 443.67 1042.50 465.33 1042.50 487.00 C 1064.37 487.00 1086.24 487.01 1108.11 486.99 C 1113.28 486.91 1117.73 491.87 1117.55 496.96 C 1117.77 502.11 1113.26 507.11 1108.05 507.01 C 1082.31 506.98 1056.57 507.02 1030.83 506.99 C 1025.26 506.91 1021.46 501.20 1021.51 496.00 C 1021.51 444.03 1021.45 392.06 1021.54 340.10 Z" />
</g>
</svg>
