<?xml version="1.0" encoding="UTF-8" standalone="yes"?>
<svg xmlns="http://www.w3.org/2000/svg" xmlns:xlink="http://www.w3.org/1999/xlink" width="258.66666666666663px" height="106.66666666666666px" viewBox="0 0 194 80" version="1.1">
  <g id="surface1">
    <path style=" stroke:none;fill-rule:nonzero;fill:rgb(97.647059%,62.352941%,0%);fill-opacity:1;" d="M 89.570312 0 L 105.101562 0 C 105.179688 3.289062 105.113281 6.582031 105.136719 9.875 C 105.132812 15.726562 105.140625 21.578125 105.128906 27.433594 C 105.082031 28.433594 105.660156 29.464844 106.578125 29.882812 C 107.585938 30.382812 108.753906 30.28125 109.835938 30.199219 C 111.128906 30.042969 112.269531 28.929688 112.253906 27.59375 C 112.25 18.972656 112.253906 10.351562 112.253906 1.730469 C 112.253906 1.152344 112.234375 0.574219 112.285156 0 L 127.820312 0 C 127.816406 9.722656 127.824219 19.445312 127.816406 29.167969 C 127.421875 33.464844 125.339844 37.660156 121.929688 40.351562 C 119.199219 42.53125 115.769531 43.675781 112.328125 44.082031 C 109.132812 44.4375 105.863281 44.367188 102.714844 43.683594 C 99.675781 43.03125 96.769531 41.648438 94.484375 39.519531 C 92.507812 37.628906 91.039062 35.207031 90.253906 32.585938 C 89.835938 31.222656 89.515625 29.804688 89.566406 28.367188 C 89.570312 18.914062 89.566406 9.457031 89.570312 0 Z M 89.570312 0 "/>
    <path style=" stroke:none;fill-rule:nonzero;fill:rgb(97.647059%,62.352941%,0%);fill-opacity:1;" d="M 169.265625 0 L 194 0 L 194 13.714844 C 190.0625 13.714844 186.125 13.714844 182.1875 13.714844 C 182.1875 23.875 182.1875 34.039062 182.191406 44.199219 C 176.789062 44.203125 171.394531 44.199219 165.996094 44.199219 C 165.996094 34.039062 165.996094 23.878906 165.996094 13.714844 C 162.003906 13.714844 158.015625 13.714844 154.027344 13.714844 C 154.027344 9.167969 154.027344 4.625 154.027344 0.078125 C 158.429688 0.078125 162.832031 0.078125 167.234375 0.078125 C 167.910156 0.0742188 168.59375 0.121094 169.265625 0 Z M 169.265625 0 "/>
    <path style=" stroke:none;fill-rule:nonzero;fill:rgb(97.647059%,62.352941%,0%);fill-opacity:1;" d="M 14.113281 0.0703125 C 19.144531 0.101562 24.175781 0.046875 29.207031 0.0976562 C 33.535156 14.832031 37.941406 29.542969 42.269531 44.277344 C 36.5 44.269531 30.730469 44.308594 24.964844 44.257812 C 24.535156 43.117188 24.296875 41.910156 23.910156 40.753906 C 21.277344 40.753906 18.644531 40.75 16.011719 40.753906 C 15.703125 41.925781 15.390625 43.101562 15.097656 44.277344 C 10.066406 44.28125 5.03125 44.277344 0 44.277344 L 0 44.09375 C 4.714844 29.421875 9.429688 14.75 14.113281 0.0703125 M 17.96875 32.207031 C 19.339844 32.210938 20.710938 32.210938 22.085938 32.207031 C 21.472656 29.148438 20.839844 26.09375 20.203125 23.042969 C 19.433594 26.089844 18.707031 29.152344 17.96875 32.207031 Z M 17.96875 32.207031 "/>
    <path style=" stroke:none;fill-rule:nonzero;fill:rgb(97.647059%,62.352941%,0%);fill-opacity:1;" d="M 45.605469 0.078125 C 51.734375 0.078125 57.863281 0.0820312 63.992188 0.078125 C 64.902344 0.0507812 65.808594 0.183594 66.714844 0.253906 C 70.117188 0.714844 73.488281 1.707031 76.441406 3.496094 C 79.042969 5.050781 81.296875 7.226562 82.835938 9.847656 C 84.519531 12.617188 85.371094 15.824219 85.6875 19.03125 C 86 22.570312 85.824219 26.195312 84.820312 29.621094 C 84.066406 32.238281 82.761719 34.699219 80.980469 36.761719 C 78.390625 39.800781 74.792969 41.839844 71.019531 43.03125 C 68.957031 43.675781 66.824219 44.070312 64.675781 44.261719 C 58.320312 44.300781 51.960938 44.269531 45.605469 44.277344 C 45.605469 29.546875 45.605469 14.8125 45.605469 0.078125 M 60.625 14.246094 C 60.625 19.632812 60.625 25.023438 60.625 30.410156 C 63.148438 30.054688 65.703125 29.3125 67.753906 27.734375 C 69.441406 26.464844 70.542969 24.398438 70.484375 22.261719 C 70.5625 20.386719 69.769531 18.5 68.378906 17.246094 C 66.257812 15.351562 63.402344 14.5 60.625 14.246094 Z M 60.625 14.246094 "/>
    <path style=" stroke:none;fill-rule:nonzero;fill:rgb(97.647059%,62.352941%,0%);fill-opacity:1;" d="M 133.0625 0.078125 C 138.09375 0.078125 143.125 0.078125 148.160156 0.078125 C 148.160156 10.109375 148.160156 20.140625 148.160156 30.171875 C 152.175781 30.171875 156.191406 30.171875 160.203125 30.171875 C 160.207031 34.875 160.207031 39.578125 160.203125 44.28125 C 151.15625 44.277344 142.109375 44.28125 133.0625 44.277344 C 133.0625 29.546875 133.0625 14.8125 133.0625 0.078125 Z M 133.0625 0.078125 "/>
    <path style=" stroke:none;fill-rule:nonzero;fill:rgb(93.72549%,45.098039%,11.372549%);fill-opacity:1;" d="M 7.863281 52.703125 C 9.824219 51.703125 12.03125 51.128906 14.238281 51.171875 C 18.054688 51.058594 21.839844 52.675781 24.546875 55.355469 C 25.046875 55.855469 25.207031 56.699219 24.824219 57.320312 C 24.632812 57.710938 24.191406 57.855469 23.816406 58.007812 C 23.210938 58.308594 22.558594 57.871094 22.058594 57.546875 C 19.949219 55.515625 17.007812 54.332031 14.070312 54.460938 C 11.980469 54.449219 9.925781 55.183594 8.191406 56.328125 C 5.710938 57.984375 3.957031 60.683594 3.46875 63.632812 C 3.066406 65.730469 3.367188 67.933594 4.199219 69.894531 C 5.472656 72.914062 8.15625 75.289062 11.308594 76.179688 C 15.023438 77.300781 19.308594 76.242188 22.050781 73.484375 C 22.542969 72.984375 23.316406 72.691406 23.988281 72.992188 C 24.65625 73.175781 24.816406 73.953125 25.011719 74.523438 C 24.851562 75.023438 24.679688 75.550781 24.296875 75.929688 C 22.285156 77.859375 19.707031 79.199219 16.953125 79.675781 C 16.570312 79.742188 16.175781 79.777344 15.816406 79.9375 L 12.914062 79.9375 C 12.382812 79.753906 11.820312 79.675781 11.269531 79.574219 C 6.1875 78.5 1.898438 74.414062 0.539062 69.398438 C 0.234375 68.355469 0.117188 67.273438 0 66.199219 L 0 64.824219 C 0.140625 63.3125 0.394531 61.796875 0.953125 60.382812 C 2.222656 57.09375 4.71875 54.289062 7.863281 52.703125 Z M 7.863281 52.703125 "/>
    <path style=" stroke:none;fill-rule:nonzero;fill:rgb(93.72549%,45.098039%,11.372549%);fill-opacity:1;" d="M 72.226562 52.429688 C 72.890625 50.855469 75.371094 50.722656 76.339844 52.054688 C 76.703125 52.703125 77.023438 53.378906 77.335938 54.054688 C 80.777344 61.25 84.230469 68.441406 87.671875 75.636719 C 88.019531 76.5625 88.808594 77.410156 88.617188 78.460938 C 88.445312 78.960938 88.066406 79.390625 87.589844 79.621094 C 86.808594 79.921875 85.871094 79.53125 85.511719 78.773438 C 84.285156 76.15625 82.964844 73.578125 81.777344 70.945312 C 76.855469 70.910156 71.9375 70.917969 67.019531 70.941406 C 66.011719 73.128906 64.933594 75.285156 63.894531 77.460938 C 63.5 78.113281 63.355469 78.957031 62.710938 79.429688 C 62.070312 79.882812 61.171875 79.773438 60.601562 79.257812 C 60.117188 78.710938 59.984375 77.890625 60.339844 77.238281 C 64.308594 68.972656 68.257812 60.695312 72.226562 52.429688 M 68.597656 67.707031 C 72.460938 67.71875 76.320312 67.707031 80.175781 67.710938 C 79.738281 66.644531 79.148438 65.652344 78.699219 64.59375 C 77.234375 61.636719 75.855469 58.636719 74.371094 55.691406 C 72.46875 59.703125 70.507812 63.691406 68.597656 67.707031 Z M 68.597656 67.707031 "/>
    <path style=" stroke:none;fill-rule:nonzero;fill:rgb(93.72549%,45.098039%,11.372549%);fill-opacity:1;" d="M 29.253906 52.976562 C 29.183594 51.914062 30.40625 51.019531 31.398438 51.421875 C 32.136719 51.628906 32.566406 52.390625 32.542969 53.128906 C 32.542969 56.398438 32.539062 59.664062 32.542969 62.929688 C 39.921875 62.929688 47.300781 62.929688 54.679688 62.929688 C 54.679688 59.609375 54.679688 56.292969 54.679688 52.972656 C 54.628906 51.929688 55.792969 51.039062 56.78125 51.414062 C 57.472656 51.59375 57.957031 52.277344 57.964844 52.980469 C 57.964844 61.339844 57.96875 69.699219 57.964844 78.054688 C 57.988281 78.925781 57.210938 79.726562 56.339844 79.710938 C 55.519531 79.726562 54.675781 79.058594 54.679688 78.207031 C 54.679688 74.183594 54.679688 70.164062 54.679688 66.144531 C 47.300781 66.144531 39.921875 66.144531 32.542969 66.144531 C 32.539062 70.121094 32.546875 74.097656 32.539062 78.070312 C 32.539062 78.914062 31.835938 79.691406 30.980469 79.710938 C 30.15625 79.753906 29.257812 79.113281 29.257812 78.234375 C 29.253906 69.816406 29.261719 61.394531 29.253906 52.976562 Z M 29.253906 52.976562 "/>
    <path style=" stroke:none;fill-rule:nonzero;fill:rgb(93.72549%,45.098039%,11.372549%);fill-opacity:1;" d="M 90.828125 52.847656 C 90.867188 51.597656 92.515625 50.855469 93.472656 51.664062 C 94.324219 52.359375 95.042969 53.210938 95.839844 53.96875 C 97.816406 55.808594 99.679688 57.765625 101.59375 59.664062 C 103.53125 61.433594 105.328125 63.347656 107.199219 65.191406 C 109.277344 67.128906 111.230469 69.191406 113.257812 71.183594 C 114.316406 72.085938 115.242188 73.128906 116.242188 74.09375 C 116.246094 67.050781 116.242188 60.007812 116.246094 52.964844 C 116.25 52.019531 117.152344 51.183594 118.105469 51.347656 C 118.890625 51.429688 119.554688 52.164062 119.527344 52.960938 C 119.53125 61.066406 119.527344 69.167969 119.53125 77.273438 C 119.523438 77.878906 119.617188 78.554688 119.21875 79.066406 C 118.640625 79.832031 117.4375 79.917969 116.738281 79.269531 C 115.777344 78.363281 114.863281 77.402344 113.925781 76.46875 C 111.570312 74.335938 109.453125 71.949219 107.105469 69.804688 C 105.570312 68.257812 104.03125 66.722656 102.496094 65.179688 C 101.058594 63.910156 99.761719 62.492188 98.386719 61.152344 C 96.996094 59.710938 95.5 58.375 94.105469 56.9375 C 94.101562 64.023438 94.109375 71.109375 94.101562 78.195312 C 94.066406 79.148438 93.097656 79.871094 92.175781 79.691406 C 91.417969 79.554688 90.804688 78.835938 90.820312 78.058594 C 90.824219 69.652344 90.808594 61.25 90.828125 52.847656 Z M 90.828125 52.847656 "/>
    <path style=" stroke:none;fill-rule:nonzero;fill:rgb(93.72549%,45.098039%,11.372549%);fill-opacity:1;" d="M 125.933594 51.703125 C 126.546875 51.207031 127.496094 51.203125 128.089844 51.730469 C 128.902344 52.492188 129.632812 53.34375 130.492188 54.054688 C 132.53125 56.039062 134.476562 58.117188 136.558594 60.050781 C 138.042969 61.542969 139.539062 63.027344 141.019531 64.523438 C 143.148438 66.457031 145.089844 68.582031 147.164062 70.570312 C 148.402344 71.695312 149.539062 72.929688 150.738281 74.097656 C 150.742188 67.109375 150.742188 60.121094 150.738281 53.132812 C 150.738281 52.445312 151.09375 51.699219 151.773438 51.464844 C 152.71875 51.015625 154.027344 51.753906 154.027344 52.824219 C 154.023438 61.328125 154.035156 69.832031 154.023438 78.335938 C 153.914062 79.605469 152.191406 80.136719 151.289062 79.3125 C 149.992188 78.109375 148.78125 76.816406 147.519531 75.574219 C 145.367188 73.601562 143.402344 71.429688 141.273438 69.433594 C 139.175781 67.464844 137.238281 65.324219 135.113281 63.382812 C 133.5 61.757812 131.882812 60.136719 130.261719 58.519531 C 129.675781 58.027344 129.140625 57.484375 128.601562 56.941406 C 128.601562 64.039062 128.601562 71.136719 128.601562 78.234375 C 128.597656 79.289062 127.359375 79.992188 126.417969 79.613281 C 125.699219 79.394531 125.300781 78.621094 125.316406 77.90625 C 125.316406 69.699219 125.324219 61.496094 125.316406 53.292969 C 125.300781 52.714844 125.445312 52.066406 125.933594 51.703125 Z M 125.933594 51.703125 "/>
    <path style=" stroke:none;fill-rule:nonzero;fill:rgb(93.72549%,45.098039%,11.372549%);fill-opacity:1;" d="M 179.984375 51.492188 C 180.914062 50.980469 182.292969 51.707031 182.265625 52.808594 C 182.269531 60.648438 182.265625 68.492188 182.265625 76.332031 C 185.660156 76.332031 189.054688 76.335938 192.449219 76.328125 C 193.210938 76.277344 193.867188 76.910156 194 77.636719 L 194 78.167969 C 193.863281 78.894531 193.203125 79.523438 192.441406 79.46875 C 188.472656 79.460938 184.503906 79.46875 180.53125 79.46875 C 179.722656 79.507812 178.988281 78.714844 179.054688 77.910156 C 179.0625 69.546875 179.058594 61.183594 179.058594 52.820312 C 179.035156 52.230469 179.464844 51.714844 179.984375 51.492188 Z M 179.984375 51.492188 "/>
    <path style=" stroke:none;fill-rule:nonzero;fill:rgb(93.72549%,45.098039%,11.372549%);fill-opacity:1;" d="M 159.820312 53.308594 C 159.796875 52.414062 160.511719 51.519531 161.445312 51.566406 C 165.417969 51.566406 169.394531 51.566406 173.367188 51.566406 C 174.222656 51.582031 174.945312 52.429688 174.835938 53.277344 C 174.785156 54.121094 174.003906 54.785156 173.171875 54.777344 C 169.8125 54.789062 166.457031 54.777344 163.101562 54.78125 C 163.101562 57.496094 163.101562 60.214844 163.101562 62.929688 C 165.105469 62.929688 167.109375 62.929688 169.113281 62.929688 C 169.984375 62.921875 170.882812 63.652344 170.777344 64.578125 C 170.847656 65.398438 170.085938 66.136719 169.285156 66.144531 C 167.226562 66.144531 165.164062 66.144531 163.101562 66.144531 C 163.101562 69.539062 163.101562 72.9375 163.101562 76.332031 C 166.523438 76.332031 169.945312 76.332031 173.367188 76.332031 C 174.175781 76.316406 174.871094 77.09375 174.84375 77.894531 C 174.875 78.699219 174.171875 79.484375 173.355469 79.46875 C 169.328125 79.464844 165.300781 79.46875 161.273438 79.464844 C 160.402344 79.453125 159.808594 78.558594 159.816406 77.742188 C 159.816406 69.597656 159.808594 61.453125 159.820312 53.308594 Z M 159.820312 53.308594 "/>
  </g>
</svg>