<?xml version="1.0" encoding="UTF-8" standalone="yes"?>
<svg xmlns="http://www.w3.org/2000/svg" xmlns:xlink="http://www.w3.org/1999/xlink" width="656px" height="106.66666666666666px" viewBox="0 0 492 80" version="1.1">
  <g id="surface1">
    <path style=" stroke:none;fill-rule:evenodd;fill:rgb(10.196078%,71.372549%,55.686275%);fill-opacity:1;" d="M 481.933594 6.066406 C 482.949219 6.066406 483.984375 6.203125 484.835938 6.773438 C 485.550781 7.246094 485.894531 8.078125 486.011719 8.898438 C 486.171875 9.984375 486.125 11.171875 485.550781 12.140625 C 484.996094 13.113281 483.867188 13.558594 482.785156 13.621094 L 485.710938 18.59375 L 482.925781 18.59375 L 480.046875 13.644531 L 477.996094 13.644531 L 477.949219 18.59375 L 475.347656 18.59375 L 475.347656 6.070312 Z M 477.949219 8.347656 L 477.949219 11.347656 C 479.171875 11.351562 480.367188 11.363281 481.589844 11.347656 C 482.234375 11.335938 483.085938 11.226562 483.386719 10.554688 C 483.640625 10.003906 483.683594 9.195312 483.179688 8.773438 C 482.671875 8.371094 481.933594 8.34375 481.359375 8.34375 Z M 477.949219 8.347656 "/>
    <path style=" stroke:none;fill-rule:evenodd;fill:rgb(10.196078%,71.372549%,55.686275%);fill-opacity:1;" d="M 352.621094 0.332031 L 383.789062 0.332031 L 407.003906 24.070312 L 430.316406 0.332031 L 461.433594 0.332031 L 422.597656 40.058594 L 461.386719 79.792969 L 430.40625 79.800781 L 407.050781 55.976562 L 397.90625 65.347656 L 382.359375 49.394531 L 391.457031 40.058594 Z M 352.621094 0.332031 "/>
    <path style=" stroke:none;fill-rule:evenodd;fill:rgb(10.196078%,71.372549%,55.686275%);fill-opacity:1;" d="M 82.253906 0.515625 C 78.953125 0.527344 76.023438 1.824219 73.941406 3.96875 C 48.226562 30.347656 22.203125 57.222656 0.183594 79.796875 L 31.859375 79.804688 L 69.183594 41.632812 L 69.179688 60.636719 L 50.617188 60.671875 L 69.179688 79.796875 L 94.105469 79.796875 L 94.101562 12.796875 C 94.128906 9.585938 92.886719 6.378906 90.632812 4.078125 C 88.519531 1.921875 85.5625 0.507812 82.253906 0.515625 Z M 82.253906 0.515625 "/>
    <path style=" stroke:none;fill-rule:evenodd;fill:rgb(10.196078%,71.372549%,55.686275%);fill-opacity:1;" d="M 104.789062 3.132812 C 106.964844 1.34375 109.789062 0.34375 112.589844 0.445312 C 115.53125 0.546875 118.417969 1.835938 120.480469 3.960938 L 154.714844 38.910156 L 154.722656 0.550781 L 178.367188 0.59375 L 178.351562 67.871094 C 178.316406 71.566406 176.449219 75.1875 173.46875 77.367188 C 170.128906 79.808594 165.519531 80.523438 161.664062 78.925781 C 159.964844 78.222656 158.46875 77.105469 157.230469 75.757812 L 124.019531 41.847656 L 124.015625 79.824219 C 124.015625 79.824219 108.242188 79.835938 100.355469 79.855469 C 100.351562 57.421875 100.351562 34.988281 100.359375 12.554688 C 100.347656 8.964844 102.007812 5.417969 104.789062 3.132812 Z M 104.789062 3.132812 "/>
    <path style=" stroke:none;fill-rule:evenodd;fill:rgb(10.196078%,71.372549%,55.686275%);fill-opacity:1;" d="M 184.695312 0.570312 L 184.695312 79.808594 L 208.335938 79.796875 L 208.335938 0.578125 Z M 196.507812 3.394531 C 201.539062 3.394531 205.628906 7.480469 205.628906 12.519531 C 205.628906 17.5625 201.539062 21.648438 196.507812 21.648438 C 191.457031 21.648438 187.386719 17.5625 187.386719 12.519531 C 187.386719 7.480469 191.457031 3.394531 196.507812 3.394531 Z M 196.507812 3.394531 "/>
    <path style=" stroke:none;fill-rule:evenodd;fill:rgb(10.196078%,71.372549%,55.686275%);fill-opacity:1;" d="M 226.183594 0.558594 C 219.59375 0.5625 214.601562 6.367188 214.601562 12.746094 L 214.617188 79.804688 L 238.261719 79.753906 L 238.285156 41.925781 L 259.175781 63.066406 L 279.996094 41.925781 L 280.042969 79.804688 L 303.675781 79.789062 L 303.605469 11.652344 C 303.332031 4.417969 295.476562 -1.242188 288.566406 1.03125 C 286.355469 1.710938 284.558594 3.023438 282.945312 4.566406 L 259.128906 28.917969 L 234.390625 3.734375 C 231.375 1.140625 228.574219 0.558594 226.183594 0.5625 Z M 226.183594 0.558594 "/>
    <path style=" stroke:none;fill-rule:evenodd;fill:rgb(10.196078%,71.372549%,55.686275%);fill-opacity:1;" d="M 319.179688 0.832031 C 322.332031 0.117188 325.765625 0.816406 328.390625 2.671875 C 329.519531 3.457031 330.417969 4.476562 331.386719 5.445312 L 403.78125 79.800781 L 372.179688 79.769531 L 334.839844 41.746094 L 334.796875 60.605469 L 353.289062 60.664062 L 334.773438 79.792969 L 309.847656 79.789062 C 309.894531 57.453125 309.871094 35.117188 309.871094 12.78125 C 309.871094 11.050781 310.195312 9.320312 310.886719 7.730469 C 312.382812 4.304688 315.515625 1.65625 319.179688 0.832031 Z M 319.179688 0.832031 "/>
    <path style=" stroke:none;fill-rule:evenodd;fill:rgb(10.196078%,71.372549%,55.686275%);fill-opacity:1;" d="M 480.277344 0.683594 C 473.804688 0.683594 468.574219 5.921875 468.574219 12.382812 C 468.574219 18.84375 473.804688 24.082031 480.277344 24.082031 C 486.726562 24.082031 491.953125 18.84375 491.953125 12.382812 C 491.953125 5.921875 486.726562 0.683594 480.277344 0.683594 Z M 480.277344 3.164062 C 485.367188 3.164062 489.488281 7.289062 489.488281 12.382812 C 489.488281 17.476562 485.367188 21.601562 480.277344 21.601562 C 475.183594 21.601562 471.0625 17.476562 471.0625 12.382812 C 471.0625 7.289062 475.183594 3.164062 480.277344 3.164062 Z M 480.277344 3.164062 "/>
  </g>
</svg>