<?xml version="1.0" encoding="UTF-8" standalone="yes"?>
<svg xmlns="http://www.w3.org/2000/svg" xmlns:xlink="http://www.w3.org/1999/xlink" width="64px" height="106.66666666666666px" viewBox="0 0 48 80" version="1.1">
  <g id="surface1">
    <path style=" stroke:none;fill-rule:nonzero;fill:rgb(83.137255%,63.137255%,5.882353%);fill-opacity:1;" d="M 21.210938 77.625 C 18.929688 76.875 16.769531 74.75 15.238281 71.757812 C 14.882812 71.066406 14.59375 70.449219 14.59375 70.386719 C 14.59375 70.210938 15.660156 69.621094 15.710938 69.769531 C 15.734375 69.839844 16.035156 70.351562 16.378906 70.902344 C 18.972656 75.050781 22.523438 75.507812 24.203125 71.910156 C 24.675781 70.898438 24.902344 69.96875 25.171875 67.90625 C 25.558594 64.957031 26.160156 61.339844 26.425781 60.328125 C 27.179688 57.496094 28.789062 55.261719 32.820312 51.449219 C 36.332031 48.132812 38.023438 45.554688 38.21875 43.210938 C 38.261719 42.742188 38.253906 42.355469 38.207031 42.355469 C 38.164062 42.355469 37.78125 42.65625 37.363281 43.027344 C 36.945312 43.394531 35.964844 44.171875 35.1875 44.753906 C 33.195312 46.246094 32.335938 47.011719 31.746094 47.824219 C 31.464844 48.210938 31.195312 48.527344 31.152344 48.527344 C 31.105469 48.527344 30.851562 47.875 30.582031 47.070312 C 30.199219 45.921875 30.097656 45.445312 30.09375 44.8125 C 30.089844 43.867188 30.257812 43.492188 31.21875 42.296875 C 32.46875 40.75 33.109375 39.023438 33.109375 37.210938 C 33.113281 35.28125 32.265625 33.597656 29.789062 30.625 C 28.683594 29.296875 25.488281 25.890625 25.347656 25.890625 C 25.304688 25.890625 25.277344 26.652344 25.292969 27.578125 C 25.359375 31.433594 24.621094 34.371094 22.519531 38.601562 C 21.179688 41.304688 20.898438 41.953125 20.363281 43.578125 C 19.796875 45.292969 19.621094 46.238281 19.542969 47.921875 L 19.476562 49.425781 L 18.980469 49.914062 C 18.707031 50.183594 18.457031 50.371094 18.417969 50.335938 C 18.261719 50.175781 18.121094 47.875 18.179688 46.414062 C 18.289062 43.722656 18.925781 41.3125 20.484375 37.667969 C 23.441406 30.773438 24.207031 28.210938 24.046875 25.765625 C 23.984375 24.753906 23.890625 24.4375 22.878906 21.71875 C 22.015625 19.402344 22.261719 17.140625 23.601562 15.035156 C 23.941406 14.5 23.980469 14.363281 23.878906 14.117188 C 23.8125 13.960938 23.550781 13.359375 23.296875 12.78125 C 22.515625 11.011719 22.320312 10.089844 22.316406 8.113281 C 22.308594 6.28125 22.449219 5.507812 22.988281 4.328125 C 23.457031 3.304688 24.761719 2.113281 25.414062 2.113281 C 25.875 2.113281 25.804688 2.308594 25.171875 2.785156 C 23.824219 3.800781 23.34375 5.566406 23.804688 7.792969 C 24.28125 10.105469 25.234375 11.746094 28.382812 15.675781 C 35.828125 24.964844 39.570312 30.414062 42.507812 36.230469 C 44.375 39.925781 45.128906 41.859375 45.902344 44.945312 C 46.699219 48.125 46.953125 50.757812 46.726562 53.445312 C 46.222656 59.289062 43.882812 63.367188 39.859375 65.394531 C 37.09375 66.789062 33.46875 67.023438 30.21875 66.019531 C 29.039062 65.65625 29.074219 65.734375 29.351562 64.097656 C 29.625 62.476562 29.820312 61.839844 30.042969 61.867188 C 30.128906 61.875 30.6875 61.972656 31.285156 62.078125 C 33.929688 62.554688 36.78125 61.964844 38.945312 60.496094 C 39.644531 60.023438 40.917969 58.789062 41.535156 57.992188 C 42.59375 56.625 43.433594 54.816406 43.929688 52.851562 C 44.292969 51.402344 44.433594 48.445312 44.207031 46.910156 C 44.035156 45.730469 43.433594 43.722656 42.757812 42.070312 C 40.382812 36.269531 36.242188 30.058594 27.296875 18.859375 C 26.894531 18.359375 26.15625 17.394531 25.652344 16.71875 C 25.148438 16.042969 24.699219 15.488281 24.652344 15.488281 C 24.5 15.488281 23.984375 16.371094 23.789062 16.96875 C 23.648438 17.390625 23.609375 17.804688 23.648438 18.4375 C 23.746094 20.148438 24.464844 21.21875 28.078125 25.003906 C 30.28125 27.3125 31.523438 28.8125 32.625 30.488281 C 34.667969 33.597656 35.402344 36.710938 34.710938 39.289062 C 34.640625 39.542969 34.609375 39.769531 34.636719 39.796875 C 34.789062 39.953125 36.992188 37.957031 37.652344 37.058594 C 37.878906 36.757812 38.105469 36.554688 38.160156 36.605469 C 38.296875 36.746094 39.015625 39.648438 39.28125 41.148438 C 39.652344 43.234375 39.78125 44.726562 39.710938 46.140625 C 39.632812 47.660156 39.425781 48.40625 38.652344 49.902344 C 37.863281 51.425781 36.816406 52.707031 33.785156 55.855469 C 30.789062 58.96875 29.730469 60.261719 29.351562 61.269531 C 28.976562 62.28125 28.523438 64.789062 28.261719 67.335938 C 27.878906 71.078125 27.511719 73.671875 27.234375 74.605469 C 26.820312 76.003906 26.089844 76.953125 25.03125 77.472656 C 24.359375 77.804688 24.144531 77.851562 23.175781 77.878906 C 22.257812 77.90625 21.941406 77.867188 21.210938 77.625 Z M 21.210938 77.625 "/>
    <path style=" stroke:none;fill-rule:nonzero;fill:rgb(83.137255%,63.137255%,5.882353%);fill-opacity:1;" d="M 32.6875 72.871094 C 31.820312 72.441406 31.195312 71.503906 30.539062 69.644531 C 30.308594 68.992188 30.257812 68.71875 30.347656 68.625 C 30.546875 68.429688 30.765625 68.683594 31.042969 69.425781 C 31.386719 70.355469 31.757812 70.960938 32.09375 71.152344 C 32.34375 71.292969 32.429688 71.292969 32.71875 71.152344 C 32.992188 71.023438 33.0625 70.910156 33.09375 70.566406 C 33.160156 69.757812 33.601562 70.179688 33.960938 71.386719 C 34.210938 72.238281 34.195312 72.390625 33.808594 72.773438 C 33.410156 73.171875 33.316406 73.179688 32.6875 72.871094 Z M 32.6875 72.871094 "/>
    <path style=" stroke:none;fill-rule:nonzero;fill:rgb(83.137255%,63.137255%,5.882353%);fill-opacity:1;" d="M 16.472656 21.226562 C 16.472656 22.472656 17.503906 23.527344 18.773438 23.527344 C 19.34375 23.527344 19.863281 23.316406 20.265625 22.972656 L 20.566406 22.757812 L 20.519531 23.554688 C 20.460938 24.601562 20.066406 25.402344 19.09375 26.453125 C 18.042969 27.589844 17.019531 28.324219 13.679688 30.34375 C 9.113281 33.101562 7.566406 34.1875 5.921875 35.773438 C 3.808594 37.816406 2.335938 40.285156 1.691406 42.878906 C 0.8125 46.414062 1.09375 49.816406 2.589844 53.730469 C 3.015625 54.851562 3.023438 54.914062 3.089844 56.816406 C 3.261719 61.875 4.53125 65.355469 7.15625 67.96875 C 8.488281 69.292969 9.707031 69.925781 11.300781 70.121094 C 11.695312 70.171875 12.277344 70.191406 12.59375 70.164062 C 16.40625 69.84375 18.070312 66.691406 18.886719 58.246094 C 18.992188 57.148438 19.136719 56.082031 19.210938 55.882812 C 19.296875 55.636719 20.046875 54.867188 21.523438 53.519531 C 23.847656 51.398438 24.3125 50.796875 24.3125 49.90625 C 24.3125 49.359375 23.84375 46.089844 23.75 45.984375 C 23.707031 45.9375 23.445312 46.21875 23.164062 46.601562 C 22.695312 47.25 21.199219 48.703125 19.242188 50.414062 C 17.957031 51.539062 17.71875 52.128906 17.285156 55.222656 C 16.523438 60.621094 15.5625 63.464844 13.945312 65.082031 C 12.453125 66.574219 10.023438 66.953125 8.117188 65.984375 C 6.175781 65.003906 4.738281 62.054688 4.5625 58.703125 L 4.496094 57.390625 L 5.378906 58.214844 C 6.554688 59.3125 7.507812 59.789062 8.53125 59.789062 C 9.492188 59.789062 9.808594 59.695312 10.308594 59.257812 C 11.042969 58.613281 11.390625 57.578125 11.390625 56.027344 C 11.390625 52.933594 9.730469 49.21875 7.914062 48.269531 C 7.183594 47.882812 6.207031 47.921875 5.507812 48.359375 C 4.832031 48.777344 4.164062 49.703125 3.816406 50.703125 C 3.675781 51.109375 3.507812 51.472656 3.445312 51.5 C 3.234375 51.605469 3.035156 50.199219 3.03125 48.585938 C 3.027344 47.398438 3.089844 46.683594 3.265625 45.820312 C 3.929688 42.59375 5.203125 40.292969 7.726562 37.777344 C 9.433594 36.078125 11.195312 34.738281 15.140625 32.136719 C 18.191406 30.128906 19.492188 29.042969 20.214844 27.914062 C 20.535156 27.417969 20.601562 27.363281 20.632812 27.578125 C 20.738281 28.339844 19.820312 30.707031 17.703125 35.09375 C 15.964844 38.691406 15.421875 39.949219 14.550781 42.363281 C 13.449219 45.40625 12.765625 48.121094 12.367188 51.042969 C 12.113281 52.914062 12.019531 56.773438 12.179688 59.230469 C 12.316406 61.417969 12.800781 64.84375 12.996094 65.039062 C 13.074219 65.117188 13.234375 65.027344 13.496094 64.761719 L 13.886719 64.363281 L 13.679688 63.105469 C 12.914062 58.46875 13.203125 53.519531 14.539062 48.441406 C 15.484375 44.847656 16.617188 41.984375 19.308594 36.410156 C 21.679688 31.5 22.105469 29.839844 21.992188 25.890625 C 21.898438 22.617188 21.464844 20.707031 20.589844 19.738281 C 20.113281 19.207031 19.609375 18.929688 18.945312 18.929688 C 17.328125 18.929688 16.472656 19.980469 16.472656 21.226562 Z M 7.910156 52.085938 C 8.132812 52.09375 8.34375 52.148438 8.542969 52.25 C 8.957031 52.464844 9.5625 53.375 9.5625 53.78125 C 9.5625 53.941406 9.410156 54.335938 9.222656 54.660156 C 8.960938 55.117188 8.753906 55.3125 8.289062 55.546875 C 7.492188 55.941406 6.542969 55.957031 5.734375 55.578125 C 4.855469 55.167969 4.828125 55.09375 5.214844 54.273438 C 5.859375 52.910156 6.953125 52.0625 7.910156 52.085938 Z M 7.910156 52.085938 "/>
    <path style=" stroke:none;fill-rule:nonzero;fill:rgb(83.137255%,63.137255%,5.882353%);fill-opacity:1;" d="M 24.300781 62.292969 C 22.847656 60.898438 21.402344 58.859375 20.351562 56.734375 L 19.917969 55.847656 L 20.421875 55.332031 C 20.699219 55.050781 20.988281 54.816406 21.058594 54.816406 C 21.128906 54.816406 21.386719 55.113281 21.632812 55.472656 C 22.183594 56.285156 24.089844 58.269531 25.144531 59.132812 C 25.839844 59.699219 25.917969 59.804688 25.847656 60.066406 C 25.804688 60.230469 25.652344 60.945312 25.503906 61.660156 C 25.355469 62.375 25.210938 62.988281 25.179688 63.019531 C 25.144531 63.050781 24.75 62.722656 24.300781 62.292969 Z M 24.300781 62.292969 "/>
    <path style=" stroke:none;fill-rule:nonzero;fill:rgb(83.137255%,63.137255%,5.882353%);fill-opacity:1;" d="M 8.832031 44.425781 C 8.417969 43.992188 8.304688 43.445312 8.429688 42.457031 C 8.5 41.894531 8.652344 41.417969 8.949219 40.855469 C 9.703125 39.421875 12.078125 37.332031 12.078125 38.105469 C 12.078125 38.152344 11.59375 38.683594 11.003906 39.292969 C 9.410156 40.929688 8.886719 42.132812 9.457031 42.855469 C 9.855469 43.359375 10.589844 43.214844 10.589844 42.632812 C 10.589844 42.308594 10.972656 41.835938 11.144531 41.945312 C 11.320312 42.054688 11.3125 42.433594 11.113281 43.089844 C 10.675781 44.550781 9.570312 45.195312 8.832031 44.425781 Z M 8.832031 44.425781 "/>
    <path style=" stroke:none;fill-rule:nonzero;fill:rgb(83.137255%,63.137255%,5.882353%);fill-opacity:1;" d="M 24.660156 42.839844 C 24.371094 41.796875 24.457031 41.652344 27.269531 38.621094 C 28.425781 37.375 29.519531 36.152344 29.699219 35.910156 C 30.046875 35.433594 30.0625 35.445312 30.238281 36.257812 C 30.316406 36.621094 30.296875 36.828125 30.15625 37.140625 C 30.054688 37.363281 29.019531 38.585938 27.855469 39.851562 C 26.691406 41.121094 25.558594 42.40625 25.339844 42.707031 C 25.121094 43.011719 24.902344 43.261719 24.859375 43.265625 C 24.816406 43.265625 24.726562 43.078125 24.660156 42.839844 Z M 24.660156 42.839844 "/>
    <path style=" stroke:none;fill-rule:nonzero;fill:rgb(83.137255%,63.137255%,5.882353%);fill-opacity:1;" d="M 18.089844 25.144531 C 18.089844 26.414062 17.058594 27.445312 15.789062 27.445312 C 14.519531 27.445312 13.488281 26.414062 13.488281 25.144531 C 13.488281 23.871094 14.519531 22.84375 15.789062 22.84375 C 17.058594 22.84375 18.089844 23.871094 18.089844 25.144531 Z M 18.089844 25.144531 "/>
    <path style=" stroke:none;fill-rule:nonzero;fill:rgb(83.137255%,63.137255%,5.882353%);fill-opacity:1;" d="M 27.132812 48.617188 L 30.082031 50.042969 L 28.433594 53.453125 L 25.484375 52.027344 Z M 27.132812 48.617188 "/>
    <path style=" stroke:none;fill-rule:nonzero;fill:rgb(83.137255%,63.137255%,5.882353%);fill-opacity:1;" d="M 36.808594 54.804688 L 39.757812 56.230469 L 38.109375 59.644531 L 35.160156 58.214844 Z M 36.808594 54.804688 "/>
    <path style=" stroke:none;fill-rule:nonzero;fill:rgb(83.137255%,63.137255%,5.882353%);fill-opacity:1;" d="M 21.597656 62.554688 L 24.136719 64.628906 L 21.710938 67.597656 L 19.171875 65.523438 Z M 21.597656 62.554688 "/>
    <path style=" stroke:none;fill-rule:nonzero;fill:rgb(83.137255%,63.137255%,5.882353%);fill-opacity:1;" d="M 21.023438 67.722656 L 23.5625 69.796875 L 21.132812 72.765625 L 18.59375 70.691406 Z M 21.023438 67.722656 "/>
  </g>
</svg>