<?xml version="1.0" encoding="UTF-8" standalone="no"?>
<!-- Created with Inkscape (http://www.inkscape.org/) -->
<svg
   xmlns:svg="http://www.w3.org/2000/svg"
   xmlns="http://www.w3.org/2000/svg"
   version="1.0"
   width="120"
   height="200"
   id="svg2291">
  <defs
     id="defs2294" />
  <g
     transform="matrix(0.2858195,0,0,0.2858195,-206.79905,-4.6736529)"
     id="g15972"
     style="fill:#d4a10f;fill-opacity:1">
    <path
       d="M 909.04684,695.33088 C 889.11409,688.76638 870.1976,670.17877 856.80591,643.9982 C 853.70775,637.94134 851.17289,632.54233 851.17289,632.00041 C 851.17289,630.46217 860.50624,625.32511 860.9395,626.62489 C 861.14401,627.23841 863.78408,631.69694 866.80632,636.53272 C 889.48367,672.81798 920.52672,676.80652 935.2376,645.32506 C 939.36339,636.49584 941.3334,628.35055 943.70267,610.32506 C 947.09591,584.50917 952.33315,552.88512 954.67984,544.04157 C 961.25601,519.25915 975.3426,499.69795 1010.6156,466.36695 C 1041.3101,437.36231 1056.1022,414.79274 1057.8325,394.32402 C 1058.1811,390.19959 1058.137,386.82506 1057.7345,386.82506 C 1057.332,386.82506 1054.0035,389.46538 1050.3378,392.69243 C 1046.6721,395.91949 1038.1096,402.72311 1031.3101,407.8116 C 1013.89,420.8481 1006.3524,427.56975 1001.1971,434.66503 C 998.7354,438.05305 996.39667,440.82506 995.99992,440.82506 C 995.60317,440.82506 993.3688,435.08756 991.03465,428.07506 C 987.6931,418.03599 986.78453,413.8367 986.76152,408.32506 C 986.72699,400.05535 988.19889,396.76676 996.60828,386.32506 C 1007.5282,372.76606 1013.132,357.68508 1013.1437,341.82506 C 1013.156,324.94572 1005.7385,310.23969 984.08426,284.21177 C 974.43583,272.61456 946.4859,242.82506 945.25327,242.82506 C 944.84816,242.82506 944.63078,249.46256 944.7702,257.57506 C 945.34942,291.27803 938.87734,317.00515 920.5126,354.00127 C 908.78649,377.62375 906.31725,383.31817 901.6347,397.53656 C 896.69772,412.52753 895.14301,420.7827 894.48437,435.50335 L 893.89473,448.68163 L 889.55478,452.94098 C 887.1678,455.28362 884.95678,456.94228 884.64139,456.6269 C 883.25008,455.23558 882.01754,435.11664 882.53998,422.32506 C 883.50186,398.77392 889.06207,377.69322 902.7175,345.82506 C 928.56082,285.51356 935.26519,263.11544 933.87903,241.7199 C 933.30478,232.85617 932.50567,230.09011 923.65351,206.32506 C 916.10576,186.0619 918.23802,166.28083 929.95699,147.84731 C 932.9288,143.17276 933.28642,141.99972 932.39593,139.84731 C 931.822,138.46007 929.53099,133.19929 927.30479,128.15669 C 920.47208,112.6798 918.77689,104.61346 918.72378,87.325064 C 918.67452,71.288059 919.87223,64.537869 924.60038,54.205053 C 928.70259,45.240156 940.10076,34.825064 945.80965,34.825064 C 949.8516,34.825064 949.24069,36.533582 943.70406,40.713782 C 931.93084,49.602644 927.71952,65.031866 931.74597,84.525171 C 935.9254,104.75908 944.2436,119.07646 971.80382,153.47322 C 1036.9101,234.72962 1069.6559,282.38223 1095.3333,333.23654 C 1111.6634,365.57855 1118.2485,382.4883 1125.0267,409.48607 C 1132.0034,437.27388 1134.2347,460.32834 1132.2215,483.82506 C 1127.8419,534.94325 1107.3549,570.60089 1072.1729,588.34009 C 1047.9939,600.53144 1016.2713,602.58549 987.8312,593.80124 C 977.52906,590.61924 977.84973,591.32959 980.2531,577.01388 C 982.63816,562.80726 984.35371,557.26224 986.29749,557.47708 C 987.05396,557.5607 991.94789,558.40052 997.17289,559.34335 C 1020.2887,563.5145 1045.2386,558.36072 1064.1729,545.50346 C 1070.2883,541.35082 1081.4447,530.56326 1086.8301,523.59536 C 1096.0765,511.63195 1103.4461,495.80725 1107.7745,478.62166 C 1110.9638,465.95872 1112.1753,440.10733 1110.2095,426.66321 C 1108.7012,416.34764 1103.4388,398.80036 1097.5123,384.32506 C 1076.7433,333.59694 1040.5465,279.25397 962.2981,181.32506 C 958.78236,176.92506 952.30648,168.48756 947.90727,162.57506 C 943.50806,156.66256 939.57795,151.82506 939.17369,151.82506 C 937.82755,151.82506 933.30339,159.55027 931.60045,164.75673 C 930.39242,168.45006 930.04591,172.0705 930.36796,177.63387 C 931.23411,192.59601 937.53518,201.9318 969.11332,235.03973 C 988.38022,255.24 999.27526,268.38392 1008.8866,283.0227 C 1026.75,310.23005 1033.1984,337.44783 1027.1249,360.00341 C 1026.529,362.21635 1026.2363,364.22179 1026.4744,364.45994 C 1027.8243,365.8098 1047.0788,348.3425 1052.8762,340.50884 C 1054.8452,337.84826 1056.8225,336.07472 1057.2941,336.54632 C 1058.506,337.75816 1064.7869,363.15208 1067.1202,376.27321 C 1070.3654,394.52246 1071.4852,407.57467 1070.8664,419.94008 C 1070.2016,433.22409 1068.3644,439.74361 1061.5995,452.82506 C 1054.702,466.16319 1045.5543,477.35715 1019.0465,504.89699 C 992.83232,532.13178 983.58659,543.43068 980.27732,552.27549 C 976.97609,561.09881 973.02924,583.04448 970.73655,605.32506 C 967.36927,638.04844 964.15784,660.73428 961.73432,668.91757 C 958.11798,681.12856 951.73777,689.43705 942.4756,693.9968 C 936.59363,696.89248 934.73071,697.30109 926.25175,697.55525 C 918.20708,697.7964 915.45147,697.44013 909.04684,695.33088 z"
       id="path3297"
       style="opacity:1;fill:#d4a10f;fill-opacity:1" />
    <path
       d="M 1009.4438,653.73012 C 1001.8722,649.98222 996.40179,641.77549 990.64178,625.52316 C 988.62215,619.82461 988.17479,617.42316 988.98241,616.61554 C 990.70939,614.88856 992.63995,617.11087 995.0423,623.59118 C 998.05542,631.71908 1001.2963,637.03697 1004.2451,638.69213 C 1006.4331,639.9202 1007.1973,639.92338 1009.7301,638.71493 C 1012.096,637.5861 1012.7337,636.57712 1012.9833,633.56796 C 1013.5686,626.50894 1017.4497,630.1865 1020.5697,640.75656 C 1022.764,648.19054 1022.618,649.5338 1019.2498,652.90198 C 1015.7672,656.38462 1014.9465,656.45392 1009.4438,653.73012 z"
       id="path3295"
       style="opacity:1;fill:#d4a10f;fill-opacity:1" />
    <path
       d="M 867.61039,202.01256 C 867.61039,212.89832 876.62648,222.13756 887.73539,222.13756 C 892.72308,222.13756 897.2806,220.30216 900.79789,217.29381 L 903.42289,215.41881 L 903.01664,222.38756 C 902.49928,231.54359 899.06052,238.53688 890.54789,247.73131 C 881.34927,257.66667 872.38897,264.10621 843.17289,281.76256 C 803.25742,305.88496 789.70184,315.37644 775.32914,329.26256 C 756.85851,347.10787 743.97324,368.73203 738.32914,391.38756 C 730.62161,422.32578 733.09192,452.06886 746.17289,486.32506 C 749.91318,496.12008 749.98337,496.67353 750.54789,513.32506 C 752.04798,557.57302 763.14987,588.01803 786.11039,610.85631 C 797.77312,622.45693 808.43918,627.97986 822.36039,629.70006 C 825.84016,630.13005 830.92289,630.30723 833.67289,630.07506 C 867.01596,627.26023 881.5885,599.67143 888.73539,525.82506 C 889.6669,516.20006 890.92996,506.89416 891.54789,505.13756 C 892.30642,502.98129 898.89118,496.27536 911.79789,484.48131 C 932.10836,465.92178 936.16978,460.6441 936.17289,452.88756 C 936.17481,448.09751 932.08823,419.49956 931.26664,418.57506 C 930.90735,418.17077 928.59734,420.60602 926.14164,423.98131 C 922.03894,429.62032 908.94783,442.34235 891.82914,457.32506 C 880.60604,467.14779 878.50994,472.30976 874.70414,499.38756 C 868.07095,546.58214 859.64912,571.46044 845.51664,585.60631 C 832.46185,598.67347 811.21943,601.97648 794.51664,593.51256 C 777.54281,584.91127 764.9757,559.1225 763.45414,529.82506 L 762.86039,518.32506 L 770.57914,525.54381 C 780.85417,535.13955 789.20935,539.32248 798.14164,539.32506 C 806.56105,539.3275 809.33257,538.50713 813.70414,534.66881 C 820.13533,529.02215 823.17289,519.97747 823.17289,506.41881 C 823.17289,479.33453 808.63779,446.86209 792.76664,438.54381 C 786.36373,435.18795 777.83228,435.51074 771.70414,439.32506 C 765.78825,443.00727 759.9493,451.08682 756.92289,459.82506 C 755.68244,463.40667 754.22289,466.55668 753.67289,466.82506 C 751.82596,467.72636 750.08045,455.44244 750.04789,441.32506 C 750.02397,430.94965 750.56402,424.68821 752.11039,417.13756 C 757.89016,388.91593 769.05042,368.79295 791.11039,346.79381 C 806.03384,331.91152 821.43709,320.18432 855.95414,297.45006 C 882.64033,279.8735 894.04039,270.3836 900.36039,260.51256 C 903.14844,256.15799 903.71779,255.70184 903.98539,257.57506 C 904.93893,264.24996 896.87893,284.92276 878.36039,323.32506 C 863.18568,354.7932 858.43257,365.78351 850.79789,386.88756 C 841.16735,413.50863 835.19784,437.26437 831.70414,462.82506 C 829.46751,479.18879 828.67601,512.92869 830.04789,534.41881 C 831.26938,553.55322 835.49984,583.52698 837.20414,585.23131 C 837.88897,585.91614 839.29022,585.13599 841.57914,582.79381 L 844.98539,579.32506 L 843.17289,568.32506 C 836.47437,527.76878 839.01714,484.46857 850.70414,440.04381 C 858.9691,408.62692 868.8821,383.5851 892.42289,334.82506 C 913.16039,291.87148 916.87934,277.34924 915.89164,242.82506 C 915.0724,214.18891 911.27283,197.46902 903.64164,188.98131 C 899.472,184.34367 895.05702,181.91881 889.23539,181.91881 C 875.08606,181.91881 867.61039,191.10652 867.61039,202.01256 z M 792.73539,471.95006 C 794.67015,472.0032 796.51979,472.48423 798.26664,473.38756 C 801.88011,475.25615 807.18596,483.20436 807.17289,486.76256 C 807.16772,488.16738 805.82525,491.62357 804.20414,494.45006 C 801.90263,498.46283 800.10782,500.16133 796.01664,502.20006 C 789.06291,505.66525 780.75474,505.78299 773.67289,502.48131 C 766.01179,498.90955 765.74863,498.24958 769.14164,491.07506 C 774.78371,479.1449 784.35141,471.7198 792.73539,471.95006 z"
       id="path3291"
       style="opacity:1;fill:#d4a10f;fill-opacity:1" />
    <path
       d="M 936.07988,561.20469 C 923.38672,549.02063 910.73293,531.1986 901.55775,512.58256 L 897.74175,504.84007 L 902.16553,500.33256 C 904.5986,497.85344 907.09581,495.82506 907.71488,495.82506 C 908.33395,495.82506 910.60089,498.41256 912.75253,501.57506 C 917.56831,508.65334 934.23044,526.00896 943.45706,533.55755 C 949.53888,538.53328 950.22947,539.44955 949.62614,541.74277 C 949.25247,543.16303 947.89429,549.4409 946.60796,555.69359 C 945.32162,561.94628 944.03917,567.29212 943.75806,567.57322 C 943.47696,567.85432 940.02178,564.98848 936.07988,561.20469 z"
       id="path3285"
       style="opacity:1;fill:#d4a10f;fill-opacity:1" />
    <path
       d="M 800.77985,404.9367 C 797.15547,401.15367 796.16951,396.34334 797.25179,387.724 C 797.87265,382.77948 799.22431,378.61666 801.80126,373.71272 C 808.3989,361.15739 829.17289,342.90234 829.17289,349.66002 C 829.17289,350.05433 824.95067,354.71744 819.79018,360.02249 C 805.8473,374.35592 801.27667,384.87339 806.24547,391.1902 C 809.7181,395.60493 816.17289,394.33421 816.17289,389.23584 C 816.17289,386.40859 819.49128,382.28577 821.01094,383.22497 C 822.56343,384.18446 822.47592,387.50031 820.74645,393.24689 C 816.9032,406.01705 807.23687,411.67638 800.77985,404.9367 z"
       id="path3279"
       style="opacity:1;fill:#d4a10f;fill-opacity:1" />
    <path
       d="M 939.22547,391.07506 C 936.68512,381.92769 937.46026,380.67395 962.05517,354.14949 C 972.16543,343.24605 981.72023,332.58068 983.28805,330.44866 C 986.34417,326.29277 986.48265,326.38157 988.01915,333.48262 C 988.70972,336.67413 988.54165,338.46945 987.29582,341.20907 C 986.40321,343.17196 977.34789,353.85152 967.17289,364.94143 C 956.99789,376.03135 947.09789,387.26709 945.17289,389.90976 C 943.24789,392.55242 941.35654,394.73945 940.96989,394.76983 C 940.58325,394.80021 939.79826,393.13756 939.22547,391.07506 z"
       id="path3277"
       style="opacity:1;fill:#d4a10f;fill-opacity:1" />
    <path
       d="M 245.74317,226.21548 C 245.74317,237.46037 236.62738,246.57616 225.38249,246.57616 C 214.1376,246.57616 205.02181,237.46037 205.02181,226.21548 C 205.02181,214.97059 214.1376,205.8548 225.38249,205.8548 C 236.62738,205.8548 245.74317,214.97059 245.74317,226.21548 z"
       transform="matrix(0.988417,0,0,0.988417,638.86211,12.681159)"
       id="path3326"
       style="opacity:1;fill:#d4a10f;fill-opacity:1;stroke:none;stroke-width:1;stroke-miterlimit:4;stroke-dasharray:none;stroke-opacity:1" />
    <rect
       width="28.673"
       height="33.146"
       x="1057.2612"
       y="-20.729368"
       transform="matrix(0.9002757,0.4353202,-0.4353202,0.9002757,0,0)"
       id="rect3340"
       style="opacity:1;fill:#d4a10f;fill-opacity:1;stroke:none;stroke-width:1;stroke-miterlimit:4;stroke-dasharray:none;stroke-opacity:1" />
    <rect
       width="28.673"
       height="33.146"
       x="1157.0187"
       y="-8.835309"
       transform="matrix(0.9002757,0.4353202,-0.4353202,0.9002757,0,0)"
       id="rect3344"
       style="opacity:1;fill:#d4a10f;fill-opacity:1;stroke:none;stroke-width:1;stroke-miterlimit:4;stroke-dasharray:none;stroke-opacity:1" />
    <rect
       width="28.673"
       height="33.546001"
       x="1063.067"
       y="-141.44328"
       transform="matrix(0.7740919,0.6330732,-0.6330732,0.7740919,0,0)"
       id="rect3346"
       style="opacity:1;fill:#d4a10f;fill-opacity:1;stroke:none;stroke-width:1;stroke-miterlimit:4;stroke-dasharray:none;stroke-opacity:1" />
    <rect
       width="28.673"
       height="33.546001"
       x="1087.7754"
       y="-103.2723"
       transform="matrix(0.7740919,0.6330732,-0.6330732,0.7740919,0,0)"
       id="rect3348"
       style="opacity:1;fill:#d4a10f;fill-opacity:1;stroke:none;stroke-width:1;stroke-miterlimit:4;stroke-dasharray:none;stroke-opacity:1" />
  </g>
</svg>
