<?xml version="1.0" encoding="UTF-8" ?>
<!DOCTYPE svg PUBLIC "-//W3C//DTD SVG 1.1//EN" "http://www.w3.org/Graphics/SVG/1.1/DTD/svg11.dtd">
<svg width="295pt" height="167pt" viewBox="0 0 295 167" version="1.1" xmlns="http://www.w3.org/2000/svg">
<g id="#e9e9e9ff">
</g>
<g id="#f4f4f4ff">
</g>
<g id="#efefefff">
</g>
<g id="#e8e8e8ff">
</g>
<g id="#fcfcfcff">
</g>
<g id="#e30613ff">
<path fill="#e30613" opacity="1.00" d=" M 175.68 38.98 C 189.87 39.04 204.06 38.98 218.25 39.00 C 227.58 39.02 236.92 38.98 246.25 38.99 C 248.33 39.00 250.41 39.01 252.49 39.01 C 255.65 67.69 258.86 96.36 262.04 125.04 C 252.74 123.99 243.45 122.90 234.16 121.88 C 214.67 119.71 195.19 117.41 175.70 115.26 C 175.87 89.83 175.91 64.40 175.68 38.98 M 182.56 64.20 C 182.56 67.63 182.56 71.06 182.56 74.50 C 181.70 74.50 179.98 74.50 179.13 74.50 C 179.12 75.85 179.12 77.21 179.12 78.57 C 179.98 78.57 181.70 78.57 182.56 78.57 C 182.56 82.31 182.56 86.06 182.56 89.81 C 187.86 89.37 194.20 91.29 198.59 87.44 C 202.07 84.40 201.71 78.43 197.55 76.16 C 201.32 72.64 199.43 65.92 194.58 64.60 C 190.63 63.80 186.56 64.30 182.56 64.20 M 211.39 64.59 C 205.29 66.73 201.49 73.71 203.10 80.00 C 204.55 86.96 212.20 91.70 219.09 89.93 C 226.08 88.57 230.95 80.92 229.14 74.01 C 227.59 66.37 218.59 61.66 211.39 64.59 M 227.87 64.31 C 230.51 68.46 233.13 72.63 235.84 76.74 C 233.18 81.10 230.37 85.37 227.66 89.69 C 229.56 89.69 231.47 89.69 233.38 89.68 C 235.05 86.72 236.73 83.77 238.41 80.82 C 240.12 83.77 241.82 86.72 243.52 89.68 C 245.42 89.69 247.33 89.69 249.24 89.69 C 246.55 85.40 243.84 81.11 241.12 76.83 C 243.76 72.66 246.40 68.49 249.03 64.31 C 247.13 64.31 245.22 64.31 243.32 64.31 C 241.69 67.23 240.05 70.14 238.41 73.05 C 236.80 70.14 235.19 67.23 233.58 64.31 C 231.67 64.31 229.77 64.31 227.87 64.31 Z" />
<path fill="#e30613" opacity="1.00" d=" M 187.38 68.68 C 189.88 68.96 193.91 67.85 194.78 71.15 C 194.87 75.09 190.05 74.53 187.39 74.58 C 187.38 72.61 187.38 70.65 187.38 68.68 Z" />
<path fill="#e30613" opacity="1.00" d=" M 214.16 69.10 C 219.10 67.63 224.60 71.79 224.44 76.96 C 224.64 81.87 219.71 86.03 214.91 85.07 C 210.64 84.50 207.40 80.16 208.09 75.90 C 208.49 72.67 211.00 69.87 214.16 69.10 Z" />
<path fill="#e30613" opacity="1.00" d=" M 187.38 78.50 C 189.55 78.65 191.84 78.31 193.92 79.07 C 195.96 79.98 196.41 83.09 194.50 84.38 C 192.42 85.77 189.73 85.07 187.38 85.30 C 187.38 83.03 187.37 80.77 187.38 78.50 Z" />
</g>
<g id="#12110eff">
<path fill="#12110e" opacity="1.00" d=" M 106.25 64.25 C 109.35 64.25 112.45 64.25 115.56 64.24 C 117.50 64.24 119.44 64.25 121.38 64.25 C 121.38 65.75 121.37 67.25 121.38 68.75 C 117.96 68.75 114.55 68.75 111.13 68.76 C 111.13 70.67 111.13 72.58 111.13 74.50 C 113.88 74.49 116.63 74.50 119.37 74.50 C 119.37 75.98 119.37 77.46 119.38 78.94 C 116.63 78.94 113.88 78.94 111.14 78.94 C 111.14 82.54 111.01 86.14 111.27 89.73 C 109.59 89.74 107.92 89.74 106.25 89.75 C 106.25 86.15 106.25 82.55 106.25 78.95 C 105.40 78.94 103.68 78.93 102.83 78.93 C 102.83 77.46 102.83 75.99 102.84 74.52 C 103.98 74.51 105.11 74.50 106.25 74.50 C 106.25 71.08 106.25 67.67 106.25 64.25 Z" />
<path fill="#12110e" opacity="1.00" d=" M 123.56 64.06 C 125.31 64.06 127.06 64.06 128.82 64.06 C 128.81 72.62 128.82 81.19 128.81 89.75 C 127.06 89.75 125.31 89.75 123.56 89.75 C 123.56 81.19 123.56 72.62 123.56 64.06 Z" />
<path fill="#12110e" opacity="1.00" d=" M 131.00 64.06 C 132.69 64.06 134.37 64.06 136.06 64.06 C 136.06 71.14 136.05 78.23 136.06 85.31 C 138.93 85.31 141.81 85.31 144.69 85.31 C 144.69 84.17 144.70 83.04 144.70 81.90 C 146.11 81.83 147.53 81.76 148.94 81.69 C 148.94 84.37 148.94 87.06 148.94 89.75 C 142.96 89.75 136.98 89.75 131.00 89.76 C 131.00 81.19 131.00 72.62 131.00 64.06 Z" />
<path fill="#12110e" opacity="1.00" d=" M 150.88 64.00 C 154.46 67.15 158.02 70.31 161.60 73.45 C 165.17 70.30 168.73 67.14 172.31 64.00 C 172.32 72.58 172.31 81.17 172.31 89.75 C 170.87 89.75 169.44 89.75 168.00 89.75 C 168.00 84.24 168.00 78.72 168.00 73.20 C 165.86 75.05 163.73 76.91 161.59 78.77 C 159.46 76.90 157.32 75.04 155.17 73.19 C 155.26 78.71 155.32 84.23 155.38 89.75 C 153.88 89.75 152.38 89.75 150.88 89.75 C 150.89 81.17 150.88 72.58 150.88 64.00 Z" />
<path fill="#12110e" opacity="1.00" d=" M 103.83 97.86 C 105.45 95.01 108.70 93.82 111.77 93.38 C 114.74 93.76 117.92 94.77 119.62 97.43 C 121.72 100.21 121.55 103.92 120.59 107.10 C 118.32 111.09 113.46 113.37 108.98 111.90 C 103.13 110.44 100.60 102.78 103.83 97.86 M 108.32 97.38 C 104.20 99.87 104.59 106.97 109.06 108.87 C 113.12 110.94 118.55 107.68 118.25 103.03 C 118.76 97.93 112.43 94.58 108.32 97.38 Z" />
<path fill="#12110e" opacity="1.00" d=" M 124.13 93.87 C 125.10 93.88 126.08 93.88 127.07 93.88 C 127.19 98.07 126.74 102.30 127.34 106.46 C 128.19 110.96 136.05 110.60 136.35 105.95 C 136.71 101.94 136.42 97.90 136.50 93.88 C 137.23 93.88 138.70 93.88 139.43 93.89 C 139.23 98.54 139.99 103.32 138.86 107.88 C 136.88 114.03 126.22 113.87 124.58 107.55 C 123.67 103.06 124.29 98.42 124.13 93.87 Z" />
<path fill="#12110e" opacity="1.00" d=" M 40.96 93.93 C 41.40 93.92 42.27 93.91 42.71 93.91 C 45.64 99.82 48.02 105.99 50.74 112.00 C 50.15 112.00 48.96 111.99 48.36 111.99 C 47.70 110.41 47.04 108.83 46.38 107.25 C 43.38 107.24 40.37 107.24 37.37 107.25 C 36.28 109.29 36.02 112.69 32.89 112.22 C 35.55 106.11 38.03 99.91 40.96 93.93 M 41.84 96.63 C 40.65 99.54 39.41 102.42 38.18 105.31 C 40.62 105.31 43.07 105.31 45.51 105.31 C 44.28 102.42 43.04 99.53 41.84 96.63 Z" />
<path fill="#12110e" opacity="1.00" d=" M 53.23 93.82 C 57.17 94.08 62.62 92.81 65.00 96.92 C 66.76 100.06 64.77 103.38 62.10 105.15 C 63.58 107.55 65.07 109.95 66.38 112.45 C 62.51 112.13 61.62 107.93 59.73 105.28 C 58.29 105.27 56.85 105.27 55.41 105.27 C 55.43 106.09 55.46 107.75 55.48 108.58 C 55.48 109.44 55.47 111.14 55.46 111.99 C 54.91 111.99 53.80 112.00 53.25 112.00 C 53.24 105.94 53.28 99.88 53.23 93.82 M 55.45 95.86 C 55.44 98.37 55.44 100.88 55.45 103.39 C 57.51 103.20 59.73 103.59 61.66 102.69 C 63.99 101.47 63.95 97.56 61.51 96.47 C 59.60 95.71 57.46 96.04 55.45 95.86 Z" />
<path fill="#12110e" opacity="1.00" d=" M 67.56 93.87 C 72.33 93.87 77.09 93.88 81.86 93.88 C 81.87 94.39 81.90 95.41 81.91 95.92 C 79.88 95.94 77.85 95.94 75.82 95.95 C 75.81 101.30 75.82 106.65 75.82 112.00 C 75.27 112.00 74.17 112.01 73.62 112.01 C 73.62 106.65 73.62 101.30 73.62 95.95 C 71.60 95.94 69.57 95.94 67.55 95.94 C 67.55 95.42 67.56 94.38 67.56 93.87 Z" />
<path fill="#12110e" opacity="1.00" d=" M 84.70 93.84 C 85.43 93.87 86.90 93.93 87.64 93.96 C 87.62 96.43 87.63 98.90 87.62 101.37 C 90.54 101.38 93.46 101.38 96.38 101.38 C 96.38 98.91 96.38 96.44 96.37 93.97 C 97.10 93.94 98.56 93.88 99.30 93.85 C 99.30 99.90 99.30 105.95 99.30 112.00 C 98.57 112.00 97.11 112.00 96.37 112.00 C 96.38 109.35 96.38 106.70 96.37 104.05 C 93.46 104.05 90.54 104.05 87.63 104.06 C 87.62 106.70 87.62 109.35 87.63 111.99 C 86.90 112.00 85.43 112.00 84.69 112.00 C 84.69 105.95 84.69 99.90 84.70 93.84 Z" />
<path fill="#12110e" opacity="1.00" d=" M 142.76 99.95 C 141.46 95.78 146.36 92.88 149.99 93.58 C 152.86 93.68 154.71 96.00 156.06 98.24 C 155.39 98.47 154.05 98.92 153.38 99.14 C 152.16 95.78 145.65 94.44 145.58 99.02 C 148.34 102.17 154.60 101.19 155.88 105.91 C 156.89 110.34 151.79 113.06 148.00 112.26 C 144.92 112.13 142.98 109.56 141.73 107.04 C 142.41 106.83 143.76 106.42 144.43 106.21 C 145.54 108.16 147.31 110.13 149.80 109.71 C 151.85 109.83 154.00 107.38 152.37 105.58 C 149.46 103.25 144.40 103.79 142.76 99.95 Z" />
<path fill="#12110e" opacity="1.00" d=" M 159.06 93.88 C 163.25 93.88 167.43 93.88 171.62 93.87 C 171.62 94.56 171.63 95.94 171.63 96.63 C 168.42 96.63 165.21 96.63 162.00 96.62 C 162.00 98.16 162.00 99.70 162.00 101.25 C 164.56 101.25 167.12 101.25 169.69 101.25 C 169.69 101.89 169.70 103.17 169.70 103.81 C 167.13 103.81 164.56 103.82 162.00 103.82 C 162.00 105.63 162.00 107.44 162.00 109.25 C 165.25 109.25 168.50 109.25 171.74 109.25 C 171.75 109.92 171.76 111.26 171.77 111.93 C 171.20 111.95 170.07 112.00 169.51 112.02 C 166.02 112.04 162.54 112.00 159.06 112.00 C 159.06 105.96 159.06 99.92 159.06 93.88 Z" />
</g>
<g id="#ffffffff">
<path fill="#ffffff" opacity="1.00" d=" M 182.56 64.20 C 186.56 64.30 190.63 63.80 194.58 64.60 C 199.43 65.92 201.32 72.64 197.55 76.16 C 201.71 78.43 202.07 84.40 198.59 87.44 C 194.20 91.29 187.86 89.37 182.56 89.81 C 182.56 86.06 182.56 82.31 182.56 78.57 C 181.70 78.57 179.98 78.57 179.12 78.57 C 179.12 77.21 179.12 75.85 179.13 74.50 C 179.98 74.50 181.70 74.50 182.56 74.50 C 182.56 71.06 182.56 67.63 182.56 64.20 M 187.38 68.68 C 187.38 70.65 187.38 72.61 187.39 74.58 C 190.05 74.53 194.87 75.09 194.78 71.15 C 193.91 67.85 189.88 68.96 187.38 68.68 M 187.38 78.50 C 187.37 80.77 187.38 83.03 187.38 85.30 C 189.73 85.07 192.42 85.77 194.50 84.38 C 196.41 83.09 195.96 79.98 193.92 79.07 C 191.84 78.31 189.55 78.65 187.38 78.50 Z" />
<path fill="#ffffff" opacity="1.00" d=" M 211.39 64.59 C 218.59 61.66 227.59 66.37 229.14 74.01 C 230.95 80.92 226.08 88.57 219.09 89.93 C 212.20 91.70 204.55 86.96 203.10 80.00 C 201.49 73.71 205.29 66.73 211.39 64.59 M 214.16 69.10 C 211.00 69.87 208.49 72.67 208.09 75.90 C 207.40 80.16 210.64 84.50 214.91 85.07 C 219.71 86.03 224.64 81.87 224.44 76.96 C 224.60 71.79 219.10 67.63 214.16 69.10 Z" />
<path fill="#ffffff" opacity="1.00" d=" M 227.87 64.31 C 229.77 64.31 231.67 64.31 233.58 64.31 C 235.19 67.23 236.80 70.14 238.41 73.05 C 240.05 70.14 241.69 67.23 243.32 64.31 C 245.22 64.31 247.13 64.31 249.03 64.31 C 246.40 68.49 243.76 72.66 241.12 76.83 C 243.84 81.11 246.55 85.40 249.24 89.69 C 247.33 89.69 245.42 89.69 243.52 89.68 C 241.82 86.72 240.12 83.77 238.41 80.82 C 236.73 83.77 235.05 86.72 233.38 89.68 C 231.47 89.69 229.56 89.69 227.66 89.69 C 230.37 85.37 233.18 81.10 235.84 76.74 C 233.13 72.63 230.51 68.46 227.87 64.31 Z" />
</g>
<g id="#f0f0f0ff">
</g>
<g id="#ecececff">
</g>
<g id="#fafafaff">
</g>
</svg>
