<?xml version="1.0" encoding="UTF-8" standalone="yes"?>
<svg xmlns="http://www.w3.org/2000/svg" xmlns:xlink="http://www.w3.org/1999/xlink" width="609.3333333333333px" height="106.66666666666666px" viewBox="0 0 457 80" version="1.1">
  <defs>
    <linearGradient id="linear0" gradientUnits="userSpaceOnUse" x1="630" y1="1087.3622" x2="630" y2="1299.3622" gradientTransform="matrix(0.337275,0,0,0.33738,-76.64058,-362.551766)">
      <stop offset="0" style="stop-color:rgb(85.882353%,85.882353%,85.882353%);stop-opacity:1;"/>
      <stop offset="0.1" style="stop-color:rgb(85.490196%,85.490196%,85.490196%);stop-opacity:1;"/>
      <stop offset="0.2" style="stop-color:rgb(85.098039%,85.098039%,85.098039%);stop-opacity:1;"/>
      <stop offset="0.3" style="stop-color:rgb(87.843137%,87.843137%,87.843137%);stop-opacity:1;"/>
      <stop offset="0.4" style="stop-color:rgb(91.372549%,91.372549%,91.372549%);stop-opacity:1;"/>
      <stop offset="0.5" style="stop-color:rgb(94.509804%,94.509804%,94.509804%);stop-opacity:1;"/>
      <stop offset="0.6" style="stop-color:rgb(96.862745%,96.862745%,96.862745%);stop-opacity:1;"/>
      <stop offset="0.7" style="stop-color:rgb(98.431373%,98.431373%,98.431373%);stop-opacity:1;"/>
      <stop offset="0.8" style="stop-color:rgb(99.607843%,99.607843%,99.607843%);stop-opacity:1;"/>
      <stop offset="0.9" style="stop-color:rgb(100%,100%,100%);stop-opacity:1;"/>
      <stop offset="1" style="stop-color:rgb(100%,100%,100%);stop-opacity:1;"/>
    </linearGradient>
    <linearGradient id="linear1" gradientUnits="userSpaceOnUse" x1="1265" y1="1192.3622" x2="1265" y2="1092.3622" gradientTransform="matrix(0.337275,0,0,0.33738,-76.64058,-362.551766)">
      <stop offset="0" style="stop-color:rgb(93.333333%,93.72549%,94.509804%);stop-opacity:0.133333;"/>
      <stop offset="1" style="stop-color:rgb(100%,96.078431%,96.078431%);stop-opacity:0.85098;"/>
    </linearGradient>
  </defs>
  <g id="surface1">
    <path style="fill-rule:evenodd;fill:rgb(60.784314%,60.784314%,60.784314%);fill-opacity:1;stroke-width:16.763367;stroke-linecap:butt;stroke-linejoin:miter;stroke:rgb(60.784314%,60.784314%,60.784314%);stroke-opacity:1;stroke-miterlimit:4;" d="M 265.003111 1087.3565 C 274.998207 1087.3565 1537.669579 1087.3565 1547.664675 1087.3565 C 1557.659771 1087.3565 1568.662485 1094.361301 1568.662485 1108.359326 L 1568.662485 1278.361803 C 1568.662485 1292.359828 1557.659771 1299.364629 1547.664675 1299.364629 C 1537.669579 1299.364629 274.998207 1299.364629 265.003111 1299.364629 C 254.996433 1299.364629 244.005301 1292.359828 244.005301 1278.361803 L 244.005301 1108.359326 C 244.005301 1094.361301 254.996433 1087.3565 265.003111 1087.3565 Z M 265.003111 1087.3565 " transform="matrix(0.337275,0,0,0.33738,-76.64058,-362.551766)"/>
    <path style="fill-rule:evenodd;fill:rgb(100%,100%,100%);fill-opacity:1;stroke-width:8.381683;stroke-linecap:butt;stroke-linejoin:miter;stroke:rgb(100%,100%,100%);stroke-opacity:1;stroke-miterlimit:4;" d="M 265.003111 1087.3565 C 274.998207 1087.3565 1537.669579 1087.3565 1547.664675 1087.3565 C 1557.659771 1087.3565 1568.662485 1094.361301 1568.662485 1108.359326 L 1568.662485 1278.361803 C 1568.662485 1292.359828 1557.659771 1299.364629 1547.664675 1299.364629 C 1537.669579 1299.364629 274.998207 1299.364629 265.003111 1299.364629 C 254.996433 1299.364629 244.005301 1292.359828 244.005301 1278.361803 L 244.005301 1108.359326 C 244.005301 1094.361301 254.996433 1087.3565 265.003111 1087.3565 Z M 265.003111 1087.3565 " transform="matrix(0.337275,0,0,0.33738,-76.64058,-362.551766)"/>
    <path style=" stroke:none;fill-rule:evenodd;fill:url(#linear0);" d="M 135.503906 75.828125 L 135.84375 75.488281 L 135.84375 4.640625 L 135.503906 4.300781 L 12.738281 4.300781 C 9.363281 4.300781 5.65625 6.664062 5.65625 11.386719 L 5.65625 68.742188 C 5.65625 73.464844 9.363281 75.828125 12.738281 75.828125 Z M 135.503906 75.828125 "/>
    <path style=" stroke:none;fill-rule:evenodd;fill:rgb(0%,20.392157%,36.862745%);fill-opacity:1;" d="M 135.503906 75.828125 L 135.503906 4.300781 L 445.347656 4.300781 C 448.71875 4.300781 452.429688 6.664062 452.429688 11.386719 L 452.429688 68.742188 C 452.429688 73.464844 448.71875 75.828125 445.347656 75.828125 Z M 135.503906 75.828125 "/>
    <path style=" stroke:none;fill-rule:evenodd;fill:url(#linear1);" d="M 49.632812 39.726562 C 30.40625 39.726562 12.753906 16.140625 11.050781 5.988281 L 446.890625 5.988281 C 445.1875 16.140625 427.648438 39.757812 408.421875 39.757812 "/>
    <path style=" stroke:none;fill-rule:nonzero;fill:rgb(100%,100%,100%);fill-opacity:1;" d="M 423.507812 65.289062 C 419.539062 64.890625 416.363281 63.636719 413.410156 61.300781 C 412.488281 60.574219 410.660156 58.746094 409.914062 57.800781 C 409.210938 56.914062 408.175781 55.355469 407.585938 54.292969 C 406.015625 51.46875 404.929688 47.863281 404.507812 44.066406 C 404.355469 42.699219 404.300781 39.625 404.402344 38.121094 C 404.664062 34.183594 405.632812 30.4375 407.203125 27.316406 C 408.953125 23.832031 411.804688 20.535156 414.769531 18.574219 C 417.367188 16.855469 420.757812 15.789062 424.035156 15.660156 C 425.023438 15.621094 425.289062 15.640625 428.019531 15.976562 C 429.625 16.175781 431.148438 16.371094 431.402344 16.414062 C 432.574219 16.605469 434.789062 17.289062 436.40625 17.960938 C 436.890625 18.164062 437.367188 18.359375 437.46875 18.402344 C 437.628906 18.46875 437.660156 18.53125 437.695312 18.847656 C 437.746094 19.363281 437.628906 21.421875 437.5 22.207031 C 437.285156 23.527344 436.921875 24.59375 436.382812 25.492188 C 436.210938 25.785156 436.003906 25.980469 435.488281 26.34375 C 434.929688 26.738281 434.703125 26.851562 434.132812 27.015625 L 433.449219 27.21875 L 432.371094 26.988281 C 431.78125 26.863281 430.84375 26.636719 430.289062 26.488281 C 426.734375 25.523438 424.292969 25.492188 422.058594 26.390625 C 420.453125 27.03125 418.683594 28.46875 417.402344 30.175781 C 415.785156 32.332031 414.832031 34.757812 414.441406 37.734375 C 414.269531 39.019531 414.269531 41.976562 414.441406 43.199219 C 414.839844 46.082031 415.621094 48.222656 417.023438 50.277344 C 419.054688 53.25 421.785156 54.96875 424.804688 55.160156 C 425.371094 55.195312 425.773438 55.148438 428.195312 54.761719 C 429.707031 54.519531 431.507812 54.214844 432.199219 54.085938 L 433.457031 53.84375 L 434.15625 54.019531 C 434.765625 54.175781 434.929688 54.253906 435.457031 54.628906 C 436.171875 55.140625 436.304688 55.300781 436.714844 56.175781 C 437.335938 57.484375 437.625 59.046875 437.632812 61.132812 L 437.640625 62.539062 L 436.898438 62.847656 C 435.929688 63.257812 433.960938 63.914062 432.648438 64.273438 C 431.746094 64.515625 431.167969 64.609375 428.46875 64.945312 C 425.453125 65.320312 424.492188 65.386719 423.507812 65.289062 Z M 148.386719 64.460938 C 147.101562 64.300781 146.03125 64.152344 146.015625 64.132812 C 145.976562 64.09375 145.679688 65 150.800781 49.402344 C 155.167969 36.097656 156.433594 32.242188 159.46875 22.964844 C 160.464844 19.921875 161.304688 17.402344 161.339844 17.367188 C 161.375 17.328125 162.804688 17.113281 164.519531 16.886719 C 167.601562 16.476562 167.660156 16.472656 168.945312 16.507812 C 169.664062 16.527344 170.574219 16.59375 170.972656 16.65625 C 171.878906 16.796875 173.222656 17.222656 173.824219 17.558594 C 174.960938 18.195312 175.851562 19.648438 176.628906 22.121094 C 176.90625 23.011719 178.074219 26.703125 181.082031 36.183594 C 181.78125 38.394531 184.0625 45.5625 186.144531 52.117188 C 189.4375 62.46875 189.921875 64.035156 189.820312 64.078125 C 189.753906 64.105469 188.496094 64.277344 187.023438 64.457031 C 184.707031 64.746094 184.234375 64.785156 183.535156 64.75 C 182.558594 64.699219 181.613281 64.472656 180.820312 64.097656 C 180.15625 63.78125 179.429688 63.109375 179.144531 62.542969 C 179.042969 62.347656 178.308594 60.214844 177.511719 57.804688 L 176.054688 53.421875 L 159.511719 53.421875 L 159.367188 53.859375 C 159.289062 54.105469 158.730469 55.980469 158.132812 58.03125 C 157.480469 60.253906 156.941406 61.972656 156.792969 62.285156 C 156.621094 62.640625 156.394531 62.964844 156.082031 63.285156 C 155.355469 64.039062 155.207031 64.097656 153.070312 64.457031 C 152.050781 64.628906 151.109375 64.765625 150.972656 64.761719 C 150.839844 64.753906 149.675781 64.621094 148.386719 64.460938 Z M 174.085938 45.71875 C 173.597656 43.988281 167.921875 25.152344 167.890625 25.152344 C 167.867188 25.152344 167.652344 25.792969 167.410156 26.578125 C 166.625 29.160156 162.484375 42.851562 162.042969 44.328125 C 161.804688 45.121094 161.597656 45.8125 161.578125 45.859375 C 161.554688 45.929688 162.839844 45.949219 167.851562 45.949219 L 174.152344 45.949219 Z M 200.238281 64.59375 C 199.132812 64.503906 198.222656 64.425781 198.210938 64.421875 C 198.203125 64.421875 198.195312 55.648438 198.195312 44.925781 L 198.195312 25.433594 L 185.800781 25.433594 L 185.761719 25.167969 C 185.742188 25.023438 185.65625 24.207031 185.570312 23.351562 C 185.332031 20.875 185.441406 19.613281 185.996094 18.417969 C 186.304688 17.753906 186.765625 17.21875 187.25 16.953125 C 188.035156 16.527344 186.988281 16.550781 204.695312 16.550781 L 220.882812 16.550781 L 220.917969 16.710938 C 220.9375 16.796875 221.019531 17.628906 221.105469 18.558594 C 221.34375 21.207031 221.234375 22.40625 220.640625 23.65625 C 220.363281 24.246094 219.859375 24.78125 219.332031 25.050781 C 218.585938 25.425781 218.496094 25.429688 213.222656 25.433594 L 208.34375 25.433594 L 208.324219 43.535156 L 208.308594 61.632812 L 208.113281 62.203125 C 207.808594 63.105469 207.34375 63.652344 206.492188 64.105469 C 205.246094 64.765625 203.722656 64.882812 200.238281 64.59375 Z M 257.128906 64.457031 C 255.839844 64.292969 254.769531 64.144531 254.757812 64.128906 C 254.742188 64.113281 256.339844 59.214844 258.308594 53.246094 C 260.277344 47.273438 263.734375 36.773438 265.992188 29.910156 C 268.246094 23.046875 270.121094 17.402344 270.15625 17.367188 C 270.1875 17.332031 271.605469 17.113281 273.300781 16.886719 C 276.351562 16.476562 276.402344 16.472656 277.691406 16.507812 C 279.179688 16.546875 280.066406 16.667969 281.128906 16.976562 C 282.921875 17.492188 283.789062 18.257812 284.675781 20.097656 C 285.042969 20.867188 285.074219 20.957031 287.207031 27.6875 C 289.867188 36.089844 291.171875 40.203125 294.960938 52.117188 C 298.253906 62.46875 298.738281 64.035156 298.632812 64.078125 C 298.570312 64.105469 297.3125 64.277344 295.839844 64.457031 C 293.523438 64.746094 293.050781 64.785156 292.351562 64.75 C 291.375 64.699219 290.429688 64.472656 289.636719 64.097656 C 288.96875 63.78125 288.246094 63.109375 287.953125 62.53125 C 287.851562 62.328125 287.132812 60.296875 286.363281 58.019531 C 285.589844 55.742188 284.921875 53.777344 284.878906 53.648438 L 284.796875 53.421875 L 268.253906 53.421875 L 268.082031 54.003906 C 267.984375 54.320312 267.421875 56.21875 266.835938 58.214844 C 266.238281 60.246094 265.660156 62.070312 265.523438 62.355469 C 265.253906 62.929688 264.679688 63.589844 264.171875 63.917969 C 263.863281 64.117188 263.660156 64.164062 261.886719 64.453125 C 260.816406 64.628906 259.835938 64.765625 259.707031 64.761719 C 259.578125 64.757812 258.417969 64.621094 257.128906 64.457031 Z M 282.832031 45.71875 C 282.34375 43.988281 276.667969 25.152344 276.636719 25.152344 C 276.609375 25.152344 276.394531 25.792969 276.15625 26.578125 C 275.371094 29.160156 271.230469 42.851562 270.789062 44.328125 C 270.550781 45.121094 270.339844 45.8125 270.324219 45.859375 C 270.300781 45.929688 271.585938 45.949219 276.597656 45.949219 L 282.894531 45.949219 Z M 305.070312 64.589844 C 303.984375 64.5 303.089844 64.425781 303.082031 64.421875 C 303.070312 64.421875 303.0625 53.757812 303.0625 40.730469 L 303.0625 17.046875 L 303.222656 17.011719 C 303.949219 16.851562 308.398438 16.339844 309.03125 16.339844 C 311.230469 16.339844 313.207031 16.757812 314.4375 17.480469 C 315.058594 17.84375 315.886719 18.636719 316.40625 19.359375 C 316.632812 19.671875 317.871094 21.886719 319.160156 24.28125 C 322.5625 30.601562 327.3125 39.402344 330.34375 45.019531 L 332.980469 49.902344 L 333.015625 34.441406 C 333.046875 21.792969 333.070312 18.929688 333.144531 18.699219 C 333.3125 18.203125 333.664062 17.613281 333.941406 17.359375 C 334.574219 16.785156 335.679688 16.429688 337.03125 16.359375 C 337.742188 16.324219 341.429688 16.539062 342.230469 16.660156 L 342.460938 16.695312 L 342.460938 64.199219 L 342.230469 64.238281 C 341.496094 64.359375 337.417969 64.769531 336.929688 64.769531 C 335.617188 64.769531 333.6875 64.472656 332.558594 64.09375 C 331.25 63.660156 330.152344 62.957031 329.503906 62.140625 C 329.261719 61.835938 326.800781 57.273438 321.507812 47.320312 C 317.300781 39.410156 313.554688 32.371094 313.179688 31.671875 L 312.5 30.402344 L 312.539062 36.675781 C 312.5625 40.128906 312.589844 47.21875 312.597656 52.433594 C 312.613281 61.46875 312.605469 61.933594 312.484375 62.335938 C 312.296875 62.933594 312.128906 63.234375 311.785156 63.585938 C 311.230469 64.148438 310.464844 64.488281 309.335938 64.671875 C 308.523438 64.804688 307.414062 64.785156 305.070312 64.589844 Z M 362.402344 64.589844 C 361.300781 64.5 360.386719 64.425781 360.378906 64.421875 C 360.367188 64.421875 360.359375 55.648438 360.359375 44.925781 L 360.359375 25.433594 L 347.964844 25.433594 L 347.925781 25.0625 C 347.671875 22.671875 347.621094 20.875 347.777344 19.898438 C 348.019531 18.410156 348.5625 17.445312 349.421875 16.988281 C 350.292969 16.523438 349.097656 16.550781 366.929688 16.550781 L 383.121094 16.550781 L 383.15625 16.710938 C 383.253906 17.179688 383.421875 20.421875 383.382812 21.167969 C 383.289062 23.09375 382.613281 24.484375 381.496094 25.050781 C 380.753906 25.425781 380.664062 25.433594 375.390625 25.433594 L 370.511719 25.433594 L 370.492188 43.535156 C 370.476562 60.652344 370.46875 61.65625 370.347656 62.058594 C 369.972656 63.324219 369.367188 63.929688 368.023438 64.378906 C 366.753906 64.804688 365.605469 64.847656 362.40625 64.589844 Z M 390.3125 64.597656 C 389.207031 64.503906 388.296875 64.425781 388.285156 64.425781 C 388.277344 64.425781 388.269531 54.386719 388.269531 42.125 C 388.269531 17.683594 388.242188 19.359375 388.6875 18.40625 C 389.304688 17.089844 390.988281 16.34375 393.339844 16.339844 C 393.886719 16.339844 397.632812 16.644531 398.1875 16.734375 L 398.417969 16.769531 L 398.402344 39.203125 L 398.382812 61.636719 L 398.191406 62.207031 C 397.882812 63.109375 397.417969 63.65625 396.566406 64.105469 C 395.320312 64.765625 393.796875 64.886719 390.3125 64.597656 Z M 230.296875 64.34375 C 228.457031 64.070312 227.238281 63.367188 226.734375 62.285156 C 226.242188 61.238281 226.285156 63.09375 226.261719 40.378906 C 226.242188 22.089844 226.25 19.847656 226.347656 19.40625 C 226.65625 18.011719 227.535156 17.074219 228.921875 16.660156 C 229.511719 16.488281 230.574219 16.339844 231.28125 16.339844 C 231.859375 16.339844 235.683594 16.644531 236.234375 16.734375 L 236.460938 16.769531 L 236.460938 55.539062 L 252.441406 55.539062 L 252.484375 55.871094 C 252.503906 56.058594 252.578125 56.996094 252.648438 57.957031 C 252.78125 59.902344 252.738281 60.875 252.460938 61.871094 C 252.15625 62.964844 251.726562 63.550781 250.949219 63.925781 C 249.945312 64.414062 250.699219 64.382812 240.195312 64.394531 C 234.984375 64.402344 230.527344 64.378906 230.296875 64.34375 Z M 230.296875 64.34375 "/>
    <path style=" stroke:none;fill-rule:nonzero;fill:rgb(0%,20.392157%,36.862745%);fill-opacity:1;" d="M 65.226562 53.539062 C 65.226562 56.800781 63.949219 58.648438 57.625 58.648438 C 56.792969 58.648438 56.070312 58.605469 55.347656 58.5 L 55.347656 15.4375 C 55.347656 12.167969 56.460938 8.75 62.839844 8.75 C 63.671875 8.75 64.449219 8.828125 65.226562 9.003906 Z M 51.6875 47.023438 C 51.6875 53.078125 47.75 57.507812 39.757812 58.371094 C 33.933594 59 25.5 58.273438 21.503906 57.816406 C 21.339844 57.152344 21.226562 56.339844 21.226562 55.6875 C 21.226562 50.398438 24.058594 49.175781 26.777344 49.175781 C 29.550781 49.175781 33.933594 49.6875 37.207031 49.6875 C 40.757812 49.6875 41.867188 48.464844 41.867188 47.304688 C 41.867188 45.785156 40.425781 45.15625 37.652344 44.621094 L 29.996094 43.152344 C 23.667969 41.933594 20.285156 37.554688 20.285156 32.902344 C 20.285156 27.230469 24.28125 22.496094 32.15625 21.625 C 38.09375 20.972656 45.363281 21.703125 49.355469 22.1875 C 49.523438 22.871094 49.578125 23.53125 49.578125 24.210938 C 49.578125 29.507812 46.804688 30.648438 44.085938 30.648438 C 42.089844 30.648438 38.871094 30.265625 35.210938 30.265625 C 31.492188 30.265625 29.996094 31.304688 29.996094 32.546875 C 29.996094 33.859375 31.4375 34.390625 33.710938 34.816406 L 41.035156 36.167969 C 48.46875 37.527344 51.6875 41.785156 51.6875 47.023438 M 91.746094 70.210938 C 92.578125 70.644531 94.242188 71.148438 96.40625 71.199219 C 100.066406 71.28125 102.066406 69.882812 103.5625 66.570312 L 123.3125 22.535156 C 122.539062 22.109375 120.707031 21.621094 119.207031 21.597656 C 116.710938 21.546875 113.273438 22.054688 111.109375 27.246094 L 104.726562 42.332031 L 92.1875 21.929688 C 91.355469 21.679688 89.414062 21.328125 87.972656 21.328125 C 83.535156 21.328125 81.039062 22.941406 78.484375 25.726562 L 66.335938 39.074219 L 76.097656 54.488281 C 77.929688 57.304688 80.316406 58.742188 84.144531 58.742188 C 86.695312 58.742188 88.804688 58.160156 89.804688 57.679688 L 78.042969 39.90625 L 86.363281 31.015625 L 100.066406 52.566406 "/>
  </g>
</svg>