<?xml version="1.0" encoding="UTF-8" standalone="yes"?>
<svg xmlns="http://www.w3.org/2000/svg" xmlns:xlink="http://www.w3.org/1999/xlink" width="845.3333333333333px" height="106.66666666666666px" viewBox="0 0 634 80" version="1.1">
  <defs>
    <linearGradient id="linear0" gradientUnits="userSpaceOnUse" x1="13.928571" y1="-46.142857" x2="13.928571" y2="-402" gradientTransform="matrix(0.21261,0,0,0.21291,-1.064484,87.722034)">
      <stop offset="0" style="stop-color:rgb(5.098039%,7.45098%,16.078431%);stop-opacity:1;"/>
      <stop offset="0.112003" style="stop-color:rgb(12.54902%,18.431373%,40%);stop-opacity:1;"/>
      <stop offset="0.943798" style="stop-color:rgb(12.54902%,18.431373%,40%);stop-opacity:1;"/>
      <stop offset="1" style="stop-color:rgb(20%,29.411765%,63.921569%);stop-opacity:1;"/>
    </linearGradient>
    <linearGradient id="linear1" gradientUnits="userSpaceOnUse" x1="1189.4546" y1="-46" x2="1189.4546" y2="-402" gradientTransform="matrix(0.21261,0,0,0.21291,-1.064484,87.722034)">
      <stop offset="0" style="stop-color:rgb(62.745098%,62.745098%,62.745098%);stop-opacity:1;"/>
      <stop offset="0.11236" style="stop-color:rgb(78.431373%,78.431373%,78.431373%);stop-opacity:1;"/>
      <stop offset="0.94382" style="stop-color:rgb(78.431373%,78.431373%,78.431373%);stop-opacity:1;"/>
      <stop offset="1" style="stop-color:rgb(94.117647%,94.117647%,94.117647%);stop-opacity:1;"/>
    </linearGradient>
    <linearGradient id="linear2" gradientUnits="userSpaceOnUse" x1="695.35712" y1="-46.142857" x2="695.35712" y2="-401.85715" gradientTransform="matrix(0.21261,0,0,0.21291,-1.064484,87.722034)">
      <stop offset="0" style="stop-color:rgb(31.372549%,31.372549%,31.372549%);stop-opacity:1;"/>
      <stop offset="0.112048" style="stop-color:rgb(50.196078%,50.196078%,50.196078%);stop-opacity:1;"/>
      <stop offset="0.944177" style="stop-color:rgb(50.196078%,50.196078%,50.196078%);stop-opacity:1;"/>
      <stop offset="1" style="stop-color:rgb(70.588235%,70.588235%,70.588235%);stop-opacity:1;"/>
    </linearGradient>
    <radialGradient id="radial0" gradientUnits="userSpaceOnUse" cx="49.82143" cy="43.910713" fx="49.82143" fy="43.910713" r="19.285715" gradientTransform="matrix(0.133163,-0.109271,0.034857,0.0425982,-0.694005,10.083826)">
      <stop offset="0" style="stop-color:rgb(100%,100%,100%);stop-opacity:1;"/>
      <stop offset="1" style="stop-color:rgb(100%,100%,100%);stop-opacity:0;"/>
    </radialGradient>
  </defs>
  <g id="surface1">
    <path style=" stroke:none;fill-rule:nonzero;fill:url(#linear0);" d="M 12.863281 2.132812 C 6.914062 2.132812 2.125 6.929688 2.125 12.882812 L 2.125 67.175781 C 2.125 73.132812 6.914062 77.929688 12.863281 77.929688 L 146.773438 77.929688 L 146.773438 2.132812 Z M 12.863281 2.132812 "/>
    <path style=" stroke:none;fill-rule:nonzero;fill:url(#radial0);" d="M 10.039062 4.402344 C 10.410156 4.855469 9.5625 6.167969 8.144531 7.332031 C 6.726562 8.496094 5.273438 9.070312 4.902344 8.617188 C 4.53125 8.164062 5.378906 6.851562 6.796875 5.6875 C 8.21875 4.523438 9.667969 3.949219 10.039062 4.402344 Z M 10.039062 4.402344 "/>
    <path style=" stroke:none;fill-rule:nonzero;fill:url(#linear1);" d="M 146.773438 2.132812 L 512.617188 2.132812 L 512.617188 77.929688 L 146.773438 77.929688 Z M 146.773438 2.132812 "/>
    <path style=" stroke:none;fill-rule:nonzero;fill:rgb(0%,0%,0%);fill-opacity:1;" d="M 511.476562 2.132812 L 511.476562 77.929688 L 621.136719 77.929688 C 627.085938 77.929688 631.875 73.132812 631.875 67.175781 L 631.875 12.882812 C 631.875 6.929688 627.085938 2.132812 621.136719 2.132812 Z M 511.476562 2.132812 "/>
    <path style=" stroke:none;fill-rule:nonzero;fill:url(#linear2);" d="M 143.882812 2.132812 C 143.882812 2.132812 143.246094 4.003906 143.246094 7.136719 L 143.246094 72.746094 C 143.246094 75.386719 143.882812 77.929688 143.882812 77.929688 L 150.488281 77.929688 C 150.488281 77.929688 149.847656 75.34375 149.847656 72.746094 L 149.847656 7.195312 C 149.847656 3.996094 150.488281 2.132812 150.488281 2.132812 Z M 508.507812 2.019531 C 508.507812 2.019531 509.144531 3.996094 509.144531 7.195312 L 509.144531 72.746094 C 509.144531 75.34375 508.507812 78.042969 508.507812 78.042969 L 514.261719 78.042969 C 514.261719 78.042969 514.898438 75.386719 514.898438 72.746094 L 514.898438 7.136719 C 514.898438 4.003906 514.261719 2.019531 514.261719 2.019531 Z M 508.507812 2.019531 "/>
    <path style=" stroke:none;fill-rule:nonzero;fill:rgb(100%,100%,100%);fill-opacity:1;" d="M 60.21875 7.855469 C 58.105469 7.855469 56.175781 8.90625 56.175781 11.496094 L 56.175781 57.078125 C 56.175781 58.09375 57.273438 58.949219 58.121094 58.949219 L 63.421875 58.949219 C 65.539062 58.949219 67.292969 57.46875 67.292969 54.878906 L 67.292969 9.300781 C 67.292969 8.28125 66.363281 7.855469 65.519531 7.855469 Z M 32.59375 23.109375 C 24.523438 23.109375 20.285156 28.082031 20.285156 34.050781 C 20.285156 39.359375 23.546875 43.011719 30.0625 44.46875 L 40.460938 46.800781 C 42.574219 47.273438 43.003906 47.445312 43.003906 48.523438 C 43.003906 49.355469 42.574219 49.902344 40.667969 49.902344 L 24.539062 49.902344 C 21.957031 49.902344 20.917969 51.515625 20.917969 53.625 L 20.917969 57 C 20.917969 57.84375 21.335938 58.949219 22.347656 58.949219 L 40.039062 58.949219 C 49.589844 58.949219 53.875 53.832031 53.875 48.289062 C 53.875 42.558594 50.140625 38.902344 43.667969 37.449219 L 33.265625 35.117188 C 31.152344 34.640625 30.726562 34.472656 30.726562 33.390625 C 30.726562 32.5625 31.152344 32.132812 33.0625 32.132812 L 48.539062 32.132812 C 51.117188 32.132812 52.585938 30.402344 52.585938 28.285156 L 52.585938 24.921875 C 52.585938 24.074219 51.738281 23.109375 50.726562 23.109375 Z M 84.570312 22.96875 C 82.976562 22.96875 81.839844 23.820312 80.890625 24.84375 L 67.394531 39.359375 L 79.5 57.027344 C 80.199219 58.046875 81.070312 58.949219 82.128906 58.949219 L 89.34375 58.949219 C 90.421875 58.949219 91.21875 58.09375 91.21875 57.183594 C 91.21875 56.625 90.9375 56.269531 90.589844 55.75 L 80.128906 40.160156 L 87.972656 31.621094 L 103.570312 55.050781 L 96.328125 69.796875 C 96.132812 70.234375 95.90625 70.65625 95.90625 71.082031 C 95.90625 71.941406 96.964844 72.613281 97.824219 72.613281 L 104.214844 72.613281 C 105.519531 72.613281 106.082031 71.910156 106.5625 70.859375 L 127.636719 25.96875 C 127.84375 25.527344 128.058594 25.109375 128.058594 24.679688 C 128.058594 23.820312 127.148438 22.96875 126.285156 22.96875 L 119.84375 22.96875 C 118.550781 22.96875 117.851562 23.507812 117.382812 24.558594 L 108.40625 44.773438 L 95.726562 24.769531 C 94.941406 23.527344 94.117188 22.96875 92.238281 22.96875 Z M 84.570312 22.96875 "/>
    <path style=" stroke:none;fill-rule:nonzero;fill:rgb(12.54902%,18.431373%,40%);fill-opacity:1;" d="M 195.46875 20.230469 C 193.21875 20.230469 190.242188 21.792969 188.910156 25.191406 L 175.308594 59.832031 L 183.222656 59.832031 L 186.671875 51.046875 L 207.566406 51.046875 L 211.015625 59.832031 L 218.925781 59.832031 L 205.332031 25.199219 C 204.019531 21.851562 201.238281 20.230469 198.769531 20.230469 Z M 196.222656 27.535156 C 196.269531 27.535156 196.320312 27.535156 196.378906 27.535156 L 197.871094 27.535156 C 198.316406 27.535156 198.34375 27.5625 198.589844 28.195312 L 204.769531 43.921875 L 189.46875 43.921875 L 195.667969 28.128906 C 195.859375 27.632812 195.910156 27.546875 196.222656 27.535156 Z M 196.222656 27.535156 "/>
    <path style=" stroke:none;fill-rule:nonzero;fill:rgb(12.54902%,18.431373%,40%);fill-opacity:1;" d="M 316.539062 20.230469 C 314.292969 20.230469 311.316406 21.792969 309.984375 25.191406 L 296.382812 59.832031 L 304.296875 59.832031 L 307.742188 51.046875 L 328.640625 51.046875 L 332.085938 59.832031 L 340 59.832031 L 326.40625 25.199219 C 325.09375 21.851562 322.3125 20.230469 319.84375 20.230469 Z M 317.296875 27.535156 C 317.34375 27.535156 317.394531 27.535156 317.449219 27.535156 L 318.945312 27.535156 C 319.390625 27.535156 319.414062 27.5625 319.664062 28.195312 L 325.84375 43.921875 L 310.542969 43.921875 L 316.738281 28.128906 C 316.933594 27.632812 316.984375 27.546875 317.296875 27.535156 Z M 317.296875 27.535156 "/>
    <path style=" stroke:none;fill-rule:nonzero;fill:rgb(12.54902%,18.431373%,40%);fill-opacity:1;" d="M 215.96875 20.230469 L 215.96875 27.382812 L 232.261719 27.382812 L 232.261719 59.832031 L 239.398438 59.832031 L 239.398438 27.382812 L 255.6875 27.382812 L 255.6875 20.230469 Z M 215.96875 20.230469 "/>
    <path style=" stroke:none;fill-rule:nonzero;fill:rgb(12.54902%,18.431373%,40%);fill-opacity:1;" d="M 261.015625 20.230469 L 261.015625 51.621094 C 261.015625 56.171875 264.671875 59.832031 269.214844 59.832031 L 293.398438 59.832031 L 293.398438 52.644531 L 269.328125 52.644531 C 268.824219 52.644531 268.417969 52.238281 268.417969 51.734375 L 268.417969 20.230469 Z M 261.015625 20.230469 "/>
    <path style=" stroke:none;fill-rule:nonzero;fill:rgb(12.54902%,18.431373%,40%);fill-opacity:1;" d="M 389.460938 20.230469 L 389.460938 27.382812 L 405.75 27.382812 L 405.75 59.832031 L 412.886719 59.832031 L 412.886719 27.382812 L 429.179688 27.382812 L 429.179688 20.230469 Z M 389.460938 20.230469 "/>
    <path style=" stroke:none;fill-rule:nonzero;fill:rgb(12.54902%,18.431373%,40%);fill-opacity:1;" d="M 436.644531 20.230469 L 443.820312 20.230469 L 443.820312 59.832031 L 436.644531 59.832031 Z M 436.644531 20.230469 "/>
    <path style=" stroke:none;fill-rule:nonzero;fill:rgb(12.54902%,18.431373%,40%);fill-opacity:1;" d="M 465.574219 20.230469 C 458.003906 20.230469 451.90625 26.332031 451.90625 33.914062 L 451.90625 46.144531 C 451.90625 53.726562 458.003906 59.832031 465.574219 59.832031 L 486.988281 59.832031 L 486.988281 52.578125 L 465.394531 52.578125 C 461.9375 52.578125 459.148438 49.792969 459.148438 46.332031 L 459.148438 33.730469 C 459.148438 30.265625 461.9375 27.480469 465.394531 27.480469 L 486.988281 27.480469 L 486.988281 20.230469 Z M 465.574219 20.230469 "/>
    <path style=" stroke:none;fill-rule:nonzero;fill:rgb(12.54902%,18.431373%,40%);fill-opacity:1;" d="M 347.882812 20.230469 C 345.695312 20.230469 344.101562 21.761719 344.101562 23.636719 L 344.101562 59.832031 L 351.328125 59.832031 L 351.328125 32.566406 L 377.050781 58.925781 C 377.699219 59.589844 378.171875 59.832031 379.273438 59.832031 C 381.460938 59.832031 383.054688 58.300781 383.054688 56.425781 L 383.054688 20.230469 L 375.828125 20.230469 L 375.828125 47.496094 L 350.105469 21.132812 C 349.457031 20.46875 348.984375 20.230469 347.882812 20.230469 Z M 347.882812 20.230469 "/>
    <path style=" stroke:none;fill-rule:nonzero;fill:rgb(100%,100%,100%);fill-opacity:1;" d="M 532.460938 20.230469 L 532.460938 59.832031 L 539.6875 59.832031 L 539.6875 43.648438 L 563.925781 43.648438 L 563.925781 59.832031 L 571.15625 59.832031 L 571.15625 20.230469 L 563.925781 20.230469 L 563.925781 36.410156 L 539.6875 36.410156 L 539.6875 20.230469 Z M 532.460938 20.230469 "/>
    <path style=" stroke:none;fill-rule:nonzero;fill:rgb(100%,100%,100%);fill-opacity:1;" d="M 579.234375 20.230469 L 579.234375 59.832031 L 605.144531 59.832031 C 612.59375 59.832031 618.585938 53.828125 618.585938 46.371094 L 618.585938 33.691406 C 618.585938 26.234375 612.59375 20.230469 605.144531 20.230469 Z M 586.464844 27.648438 L 605.292969 27.648438 C 608.636719 27.648438 611.324219 30.347656 611.324219 33.695312 L 611.324219 46.363281 C 611.324219 49.714844 608.636719 52.414062 605.292969 52.414062 L 586.464844 52.414062 Z M 586.464844 27.648438 "/>
    <path style=" stroke:none;fill-rule:nonzero;fill:rgb(100%,100%,100%);fill-opacity:0.4;" d="M 9.273438 4.253906 C 6.9375 4.253906 2.726562 7.324219 2.136719 12.324219 C 2.136719 12.328125 2.136719 12.328125 2.136719 12.332031 C 2.128906 12.511719 2.125 12.699219 2.125 12.882812 L 2.125 67.175781 C 2.125 69.121094 2.632812 70.941406 3.527344 72.511719 C 3.445312 72.019531 3.410156 71.496094 3.433594 70.949219 C 3.574219 67.75 5.914062 64.515625 13.699219 59.832031 C 24.292969 53.453125 44.578125 49.875 54.6875 48.140625 C 119.808594 36.960938 166.164062 32.570312 231.230469 28.40625 C 276.503906 25.507812 321.816406 23.355469 367.109375 23.441406 C 408.019531 23.523438 503.25 27.667969 570.816406 36.277344 C 594.292969 39.617188 608.953125 42.179688 618.746094 48.460938 C 626.148438 53.207031 630.578125 63.457031 630.957031 69.1875 C 631.015625 70.050781 630.960938 70.925781 630.84375 71.78125 C 631.503906 70.386719 631.875 68.824219 631.875 67.175781 L 631.875 12.882812 C 631.875 12.761719 631.871094 12.640625 631.867188 12.519531 C 631.027344 9.785156 628.289062 4.800781 623.496094 4.800781 C 617.648438 4.800781 620.136719 6.816406 575.601562 6.816406 L 55.542969 6.816406 C 17.085938 6.800781 15.894531 4.253906 9.273438 4.253906 Z M 9.273438 4.253906 "/>
    <path style=" stroke:none;fill-rule:nonzero;fill:rgb(20%,20%,20%);fill-opacity:1;" d="M 12.867188 0 C 5.738281 0 0 5.757812 0 12.898438 C 0 30.988281 0 49.078125 0 67.167969 C 0 74.308594 5.738281 80.054688 12.867188 80.054688 C 215.621094 80.054688 418.378906 80.054688 621.132812 80.054688 C 628.261719 80.054688 634 74.308594 634 67.167969 C 634 49.078125 634 30.988281 634 12.898438 C 634 5.757812 628.261719 0 621.132812 0 C 418.378906 0 215.621094 0 12.867188 0 Z M 12.90625 2.28125 L 621.09375 2.28125 C 627.039062 2.28125 631.722656 6.964844 631.722656 12.914062 C 631.722656 30.992188 631.722656 49.074219 631.722656 67.152344 C 631.722656 73.101562 627.019531 77.308594 621.09375 77.773438 C 620.617188 77.808594 17.964844 77.773438 12.90625 77.773438 C 6.960938 77.773438 2.277344 73.101562 2.277344 67.152344 C 2.277344 66.988281 2.277344 12.914062 2.277344 12.914062 C 2.277344 6.964844 6.960938 2.28125 12.90625 2.28125 Z M 12.90625 2.28125 "/>
  </g>
</svg>