<?xml version="1.0" encoding="UTF-8" standalone="no"?>
<!-- Created with Inkscape (http://www.inkscape.org/) -->
<svg xmlns:dc="http://purl.org/dc/elements/1.1/" xmlns:cc="http://creativecommons.org/ns#" xmlns:rdf="http://www.w3.org/1999/02/22-rdf-syntax-ns#" xmlns:svg="http://www.w3.org/2000/svg" xmlns="http://www.w3.org/2000/svg" xmlns:xlink="http://www.w3.org/1999/xlink" version="1.1" width="1492" height="188.125" id="svg2">
  <metadata id="metadata8">
    <rdf:RDF>
      <cc:Work rdf:about="">
        <dc:format>image/svg+xml</dc:format>
        <dc:type rdf:resource="http://purl.org/dc/dcmitype/StillImage"/>
        <dc:title/>
      </cc:Work>
    </rdf:RDF>
  </metadata>
  <defs id="defs6">
    <linearGradient id="linearGradient4056">
      <stop id="stop4058" style="stop-color:#3d3d3d;stop-opacity:1" offset="0"/>
      <stop id="stop4060" style="stop-color:#3d3d3d;stop-opacity:1" offset="0.82284153"/>
      <stop id="stop4062" style="stop-color:#ffffff;stop-opacity:1" offset="0.87788105"/>
      <stop id="stop4064" style="stop-color:#ffffff;stop-opacity:1" offset="0.94668067"/>
      <stop id="stop4066" style="stop-color:#434343;stop-opacity:1" offset="1"/>
    </linearGradient>
    <linearGradient id="linearGradient4016">
      <stop id="stop4018" style="stop-color:#3d3d3d;stop-opacity:1" offset="0"/>
      <stop id="stop4042" style="stop-color:#3d3d3d;stop-opacity:1" offset="0.22272909"/>
      <stop id="stop4024" style="stop-color:#ffffff;stop-opacity:1" offset="0.46173689"/>
      <stop id="stop4026" style="stop-color:#ffffff;stop-opacity:1" offset="0.76818359"/>
      <stop id="stop4020" style="stop-color:#434343;stop-opacity:1" offset="1"/>
    </linearGradient>
    <linearGradient id="linearGradient3962">
      <stop id="stop3964" style="stop-color:#505050;stop-opacity:1" offset="0"/>
      <stop id="stop3966" style="stop-color:#808080;stop-opacity:1" offset="0.11204819"/>
      <stop id="stop3968" style="stop-color:#808080;stop-opacity:1" offset="0.94417667"/>
      <stop id="stop3970" style="stop-color:#b4b4b4;stop-opacity:1" offset="1"/>
    </linearGradient>
    <linearGradient id="linearGradient3946">
      <stop id="stop3948" style="stop-color:#a0a0a0;stop-opacity:1" offset="0"/>
      <stop id="stop3958" style="stop-color:#c8c8c8;stop-opacity:1" offset="0.11235955"/>
      <stop id="stop3956" style="stop-color:#c8c8c8;stop-opacity:1" offset="0.94382024"/>
      <stop id="stop3950" style="stop-color:#f0f0f0;stop-opacity:1" offset="1"/>
    </linearGradient>
    <linearGradient id="linearGradient3912">
      <stop id="stop3914" style="stop-color:#505050;stop-opacity:1" offset="0"/>
      <stop id="stop3924" style="stop-color:#808080;stop-opacity:1" offset="0.11204819"/>
      <stop id="stop3922" style="stop-color:#808080;stop-opacity:1" offset="0.88795179"/>
      <stop id="stop3916" style="stop-color:#b4b4b4;stop-opacity:1" offset="1"/>
    </linearGradient>
    <linearGradient id="linearGradient3898">
      <stop id="stop3900" style="stop-color:#0d1329;stop-opacity:1" offset="0"/>
      <stop id="stop3908" style="stop-color:#202f66;stop-opacity:1" offset="0.11200321"/>
      <stop id="stop3910" style="stop-color:#202f66;stop-opacity:1" offset="0.94379765"/>
      <stop id="stop3902" style="stop-color:#334ba3;stop-opacity:1" offset="1"/>
    </linearGradient>
    <linearGradient id="linearGradient3890">
      <stop id="stop3892" style="stop-color:#ffffff;stop-opacity:1" offset="0"/>
      <stop id="stop3894" style="stop-color:#ffffff;stop-opacity:0" offset="1"/>
    </linearGradient>
    <linearGradient x1="13.928571" y1="-46.142857" x2="13.928571" y2="-402" id="linearGradient3993" xlink:href="#linearGradient3898" gradientUnits="userSpaceOnUse"/>
    <radialGradient cx="49.82143" cy="43.910713" r="19.285715" fx="49.82143" fy="43.910713" id="radialGradient3995" xlink:href="#linearGradient3890" gradientUnits="userSpaceOnUse" gradientTransform="matrix(1,0,0,0.31944442,0,29.883681)"/>
    <linearGradient x1="1189.4546" y1="-46" x2="1189.4546" y2="-402" id="linearGradient3997" xlink:href="#linearGradient3946" gradientUnits="userSpaceOnUse"/>
    <linearGradient x1="695.35712" y1="-46.142857" x2="695.35712" y2="-401.85715" id="linearGradient3999" xlink:href="#linearGradient3962" gradientUnits="userSpaceOnUse"/>
    <linearGradient x1="13.928571" y1="-46.142857" x2="13.928571" y2="-402" id="linearGradient4108" xlink:href="#linearGradient3898" gradientUnits="userSpaceOnUse" gradientTransform="matrix(0.50033761,0,0,0.50033761,-0.50506415,-149.88447)"/>
  </defs>
  <g transform="matrix(0.50033761,0,0,0.50033761,-2.5050642,206.14678)" id="g3972">
    <path d="m 65.5,-402 c -27.972053,0 -50.5,22.52795 -50.5,50.5 l 0,255 c 0,27.972053 22.527947,50.5 50.5,50.5 l 629.84375,0 0,-356 z" id="rect2987" style="fill:url(#linearGradient3993);fill-opacity:1;stroke:none"/>
    <path d="m 69.107145,43.910713 a 19.285715,6.1607141 0 1 1 -38.57143,0 19.285715,6.1607141 0 1 1 38.57143,0 z" transform="matrix(0.62632616,-0.51322891,0.51322891,0.62632616,-13.594636,-383.37029)" id="path3888" style="fill:url(#radialGradient3995);fill-opacity:1;stroke:none"/>
    <rect width="1720.7144" height="356" x="695.35712" y="-402" id="rect3871" style="fill:url(#linearGradient3997);fill-opacity:1;stroke:none"/>
    <path d="m 2410.7188,-402 0,356 515.7812,0 c 27.9721,0 50.5,-22.52795 50.5,-50.5 l 0,-255 c 0,-27.97205 -22.5279,-50.5 -50.5,-50.5 l -515.7812,0 z" id="rect3863" style="fill:#000000;fill-opacity:1;stroke:none"/>
    <path d="m 681.75,-402 c 0,0 -3,8.78246 -3,23.5 l 0,308.15625 c 0,12.39954 3,24.34375 3,24.34375 l 31.0625,0 c 0,0 -3,-12.14342 -3,-24.34375 l 0,-307.875 c 0,-15.02074 3,-23.78125 3,-23.78125 z m 1715,-0.5325 c 0,0 3,9.29301 3,24.31375 l 0,307.875 c 0,12.20033 -3,24.876248 -3,24.876248 l 27.0625,0 c 0,0 3,-12.476708 3,-24.876248 l 0,-308.15625 c 0,-14.71754 -3,-24.0325 -3,-24.0325 z" id="rect3883" style="fill:url(#linearGradient3999);fill-opacity:1;stroke:none"/>
    <path d="m 288.23339,-375.11762 c -9.92775,0 -19.00298,4.94177 -19.00298,17.09216 l 0,214.09789 c 0,4.76502 5.15598,8.79227 9.14896,8.79227 l 24.92485,0 c 9.96669,0 18.21424,-6.96369 18.21424,-19.12189 l 0,-214.06814 c 0,-4.78842 -4.37581,-6.79229 -8.34537,-6.79229 z m -129.91529,71.65167 c -37.97197,0 -57.90527,23.33798 -57.90527,51.38215 0,24.92472 15.34861,42.08494 45.98535,48.93656 l 48.91328,10.939 c 9.94649,2.22444 11.96322,3.03749 11.96322,8.10666 0,3.89156 -2.02078,6.46465 -10.99712,6.46465 l -75.84463,0 c -12.1582,0 -17.04755,7.58195 -17.04755,17.49409 l 0,15.84369 c 0,3.96952 1.96778,9.16385 6.7328,9.16385 l 83.20168,0 c 44.9362,0 65.07751,-24.03401 65.07751,-50.06612 0,-26.92869 -17.56343,-44.09 -48.0002,-50.91331 L 161.469,-247.08344 c -9.94189,-2.22877 -11.94833,-3.02189 -11.94833,-8.10666 0,-3.87564 2.01299,-5.8992 10.99712,-5.8992 l 72.78286,0 c 12.12702,0 19.0327,-8.13882 19.0327,-18.07441 l 0,-15.7991 c 0,-3.97738 -3.97559,-8.50314 -8.73281,-8.50314 z m 244.46247,-0.66071 c -7.49459,0 -12.84457,3.98602 -17.30189,8.79227 l -63.49366,68.17542 56.95406,82.99359 c 3.28765,4.79076 7.37699,9.03008 12.35261,9.03008 l 33.93162,0 c 5.07697,0 8.82945,-4.02814 8.82945,-8.3018 0,-2.62042 -1.31773,-4.29248 -2.95766,-6.73283 l -49.20959,-73.22778 36.90291,-40.09871 73.36057,110.0428 -34.07252,69.25942 c -0.91244,2.05887 -1.97675,4.04561 -1.97675,6.03428 0,4.04754 4.96769,7.20099 9.01521,7.20099 l 30.06737,0 c 6.12978,0 8.77352,-3.31258 11.04299,-8.24138 l 99.10647,-210.84294 c 0.97364,-2.07137 1.99158,-4.03703 1.99158,-6.04915 0,-4.0397 -4.27647,-8.03426 -8.3396,-8.03426 l -30.30518,0 c -6.06748,0 -9.36633,2.52702 -11.56387,7.46752 l -42.2244,94.92838 -59.64423,-93.94744 c -3.68101,-5.82534 -7.56473,-8.44846 -16.40846,-8.44846 z" id="path5649" style="fill:#ffffff;fill-opacity:1;fill-rule:nonzero;stroke:none"/>
    <g transform="translate(0,-420)" id="g3831">
      <path d="m 924.375,103 c -10.57348,0 -24.56786,7.34921 -30.84375,23.3125 L 829.5625,289 866.78125,289 883,247.75 l 98.28125,0 L 997.5,289 l 37.2188,0 -63.93755,-162.65625 C 964.60103,110.62381 951.52798,103 939.90625,103 l -15.53125,0 z m 3.5625,34.3125 c 0.21136,-0.009 0.45133,0 0.71875,0 l 7.03125,0 c 2.09227,0 2.21073,0.13327 3.375,3.09375 l 29.0625,73.875 -71.96875,0 29.15625,-74.1875 c 0.91129,-2.31836 1.14551,-2.71982 2.625,-2.78125 z" id="rect3010" style="fill:#202f66;fill-opacity:1;stroke:none"/>
      <path d="m 1493.8393,103 c -10.5735,0 -24.5679,7.34921 -30.8438,23.3125 L 1399.0268,289 l 37.2187,0 16.2188,-41.25 98.2812,0 16.2188,41.25 37.2188,0 -63.9375,-162.65625 C 1534.0653,110.62381 1520.9923,103 1509.3705,103 l -15.5312,0 z m 3.5625,34.3125 c 0.2114,-0.009 0.4513,0 0.7187,0 l 7.0313,0 c 2.0923,0 2.2107,0.13327 3.375,3.09375 l 29.0625,73.875 -71.9688,0 29.1563,-74.1875 c 0.9113,-2.31836 1.1455,-2.71982 2.625,-2.78125 z" id="path3791" style="fill:#202f66;fill-opacity:1;stroke:none"/>
      <path d="m 1020.8125,103 0,33.59375 76.625,0 0,152.40625 33.5625,0 0,-152.40625 76.625,0 0,-33.59375 -76.625,0 -33.5625,0 -76.625,0 z" id="rect3793" style="fill:#202f66;fill-opacity:1;stroke:none"/>
      <path d="m 1232.6875,103 0,147.4375 c 0,21.36857 17.1939,38.5625 38.5625,38.5625 l 113.75,0 0,-33.75 -113.2188,0 c -2.3742,0 -4.2812,-1.90696 -4.2812,-4.28125 L 1267.5,103 z" id="rect3798" style="fill:#202f66;fill-opacity:1;stroke:none"/>
      <path d="m 1836.8125,103 0,33.59375 76.625,0 0,152.40625 33.5625,0 0,-152.40625 76.625,0 0,-33.59375 -76.625,0 -33.5625,0 -76.625,0 z" id="path3805" style="fill:#202f66;fill-opacity:1;stroke:none"/>
      <rect width="33.75" height="186" ry="0" x="2058.75" y="103" id="rect3807" style="fill:#202f66;fill-opacity:1;stroke:none"/>
      <path d="m 2194.8125,103 c -35.6143,0 -64.2813,28.66696 -64.2813,64.28125 l 0,57.4375 c 0,35.61429 28.667,64.28125 64.2813,64.28125 l 100.7187,0 0,-34.0625 -101.5624,0 c -16.2635,0 -29.375,-13.08037 -29.375,-29.34375 l 0,-59.1875 c 0,-16.26338 13.1115,-29.34375 29.375,-29.34375 l 101.5624,0 0,-34.0625 -100.7187,0 z" id="rect3809" style="fill:#202f66;fill-opacity:1;stroke:none"/>
      <path d="m 1641.25,103 c -10.29,0 -17.7812,7.19104 -17.7812,16 l 0,170 34,0 0,-128.0625 120.9687,123.8125 c 3.0498,3.1223 5.283,4.25 10.4687,4.25 10.29,0 17.7813,-7.1911 17.7813,-16 l 0,-170 -34,0 0,128.0625 L 1651.7188,107.25 c -3.0499,-3.12223 -5.283,-4.25 -10.4688,-4.25 z" id="path3826" style="fill:#202f66;fill-opacity:1;stroke:none"/>
    </g>
    <g transform="translate(0,-420)" id="g3859">
      <path d="m 2509.4062,103 0,186 34,0 0,-76 114,0 0,76 34,0 0,-186 -34,0 0,76 -114,0 0,-76 -34,0 z" id="rect3841" style="fill:#ffffff;fill-opacity:1;stroke:none"/>
      <path d="m 2729.4062,103 0,186 34,0 87.875,0 c 35.0209,0 63.2188,-28.19804 63.2188,-63.21875 l 0,-59.5625 C 2914.5,131.19804 2886.3021,103 2851.2812,103 l -87.875,0 z m 34,34.84375 88.5626,0 c 15.7296,0 28.375,12.67661 28.375,28.40625 l 0,59.5 c 0,15.72964 -12.6454,28.40625 -28.375,28.40625 l -88.5626,0 z" id="rect3847" style="fill:#ffffff;fill-opacity:1;stroke:none"/>
    </g>
    <path d="m 48.625,-392.03125 c -10.981221,0 -30.792311,14.41642 -33.5625,37.90625 -5.17e-4,0.0103 5.11e-4,0.021 0,0.0312 C 15.02006,-353.24092 15,-352.36373 15,-351.5 l 0,255 c 0,9.130042 2.389012,17.687788 6.59375,25.0625 -0.388624,-2.315727 -0.550377,-4.76637 -0.4375,-7.34375 0.658124,-15.02726 11.659388,-30.20937 48.28125,-52.21875 49.83546,-29.95062 145.24746,-46.75875 192.78125,-54.90625 306.30521,-52.50204 524.3248,-73.12844 830.37505,-92.6875 212.9429,-13.60876 426.057,-23.731 639.0937,-23.3125 192.4117,0.37798 640.3249,19.8496 958.125,60.28125 110.4161,15.68381 179.3675,27.71801 225.4375,57.21875 34.8078,22.28897 55.65,70.43578 57.4375,97.34375 0.2705,4.071462 0.02,8.169702 -0.5313,12.1875 3.0927,-6.548391 4.8438,-13.877264 4.8438,-21.625 l 0,-255 c 0,-0.57227 -0.012,-1.15119 -0.031,-1.71875 -3.9518,-12.84226 -16.8321,-36.25 -39.375,-36.25 -27.5064,0 -15.812,9.46875 -225.2813,9.46875 L 266.25,-380 C 85.368727,-380.07131 79.769297,-392.03125 48.625,-392.03125 z" id="rect3007" style="opacity:0.4;fill:#ffffff;fill-opacity:1;stroke:none"/>
  </g>
  <path d="M 30.28125,0 C 13.501842,0 0,13.53309 0,30.3125 c 0,42.510417 0,85.02083 0,127.53125 0,16.77941 13.501842,30.28125 30.28125,30.28125 477.14585,0 954.2917,0 1431.43755,0 16.7794,0 30.2812,-13.50184 30.2812,-30.28125 0,-42.51042 0,-85.020833 0,-127.53125 C 1492,13.53309 1478.4982,0 1461.7188,0 984.57295,0 507.4271,0 30.28125,0 z m 0.09375,5.3601786 1431.25,0 c 13.9936,0 25.0148,11.0038014 25.0148,24.9835714 0,42.489583 0,84.97917 0,127.46875 0,13.97975 -11.0637,23.86206 -25.0148,24.95232 -1.1204,0.0876 -1419.347027,0 -1431.25,0 -13.993582,0 -25.0148214,-10.97257 -25.0148214,-24.95232 0,-0.39387 0,-127.46875 0,-127.46875 C 5.3601792,16.36398 16.381418,5.3601786 30.375,5.3601786 z" id="rect4116" style="fill:#333333;stroke:none"/>
</svg>