<?xml version="1.0" encoding="UTF-8" standalone="yes"?>
<svg xmlns="http://www.w3.org/2000/svg" xmlns:xlink="http://www.w3.org/1999/xlink" width="282.66666666666663px" height="106.66666666666666px" viewBox="0 0 212 80" version="1.1">
  <g id="surface1">
    <path style=" stroke:none;fill-rule:nonzero;fill:rgb(86.27451%,9.411765%,11.372549%);fill-opacity:1;" d="M 29.136719 8.035156 L 2.847656 61.316406 C -0.230469 67.558594 2.316406 75.128906 8.535156 78.21875 C 14.757812 81.3125 22.300781 78.753906 25.378906 72.511719 C 25.378906 72.511719 33.027344 55.511719 40.378906 40.617188 C 47.6875 55.503906 55.292969 72.488281 55.292969 72.488281 C 58.359375 78.738281 65.898438 81.308594 72.125 78.226562 C 78.351562 75.144531 80.910156 67.582031 77.84375 61.332031 L 51.679688 8.054688 C 49.5625 3.75 45.199219 1.019531 40.414062 1.015625 C 35.632812 1.011719 31.261719 3.730469 29.136719 8.035156 "/>
    <path style=" stroke:none;fill-rule:nonzero;fill:rgb(0%,0%,0%);fill-opacity:1;" d="M 203.585938 2.324219 C 197.367188 -0.765625 189.824219 1.789062 186.742188 8.035156 C 186.742188 8.035156 179.09375 25.035156 171.742188 39.933594 C 164.433594 25.046875 156.828125 8.058594 156.828125 8.058594 C 154.605469 3.523438 150.027344 0.941406 145.300781 1.035156 C 145.277344 1.035156 145.25 1.03125 145.226562 1.03125 L 76.890625 1.03125 C 70 1.03125 64.417969 6.636719 64.417969 13.550781 C 64.417969 20.464844 70 26.070312 76.890625 26.070312 L 96.023438 26.070312 L 96.023438 66.816406 C 96.023438 73.785156 101.652344 79.433594 108.59375 79.433594 C 115.535156 79.433594 121.164062 73.785156 121.164062 66.816406 L 121.164062 26.070312 L 137.644531 26.070312 L 160.441406 72.492188 C 162.554688 76.796875 166.921875 79.527344 171.707031 79.53125 C 176.488281 79.535156 180.859375 76.8125 182.984375 72.511719 L 209.273438 19.234375 C 212.351562 12.988281 209.808594 5.421875 203.585938 2.324219 "/>
  </g>
</svg>