<?xml version="1.0" encoding="UTF-8" standalone="yes"?>
<svg xmlns="http://www.w3.org/2000/svg" xmlns:xlink="http://www.w3.org/1999/xlink" width="386.66666666666663px" height="106.66666666666666px" viewBox="0 0 290 80" version="1.1">
  <g id="surface1">
    <path style=" stroke:none;fill-rule:nonzero;fill:rgb(0%,0%,0%);fill-opacity:1;" d="M 39.632812 0 C 34.757812 -0.00390625 30.300781 2.769531 28.136719 7.148438 L 1.332031 61.421875 C -1.808594 67.78125 0.789062 75.488281 7.128906 78.636719 C 13.472656 81.789062 21.164062 79.183594 24.304688 72.824219 C 24.304688 72.824219 32.101562 55.507812 39.59375 40.335938 C 47.046875 55.5 54.796875 72.796875 54.796875 72.796875 C 57.925781 79.164062 65.613281 81.78125 71.960938 78.644531 C 78.308594 75.507812 80.917969 67.800781 77.789062 61.433594 L 51.117188 7.175781 C 48.960938 2.789062 44.511719 0.00390625 39.632812 0 Z M 200.4375 0 C 195.667969 -0.0507812 191.066406 2.578125 188.808594 7.148438 C 188.808594 7.148438 181.015625 24.46875 173.519531 39.644531 C 166.066406 24.480469 158.308594 7.175781 158.308594 7.175781 C 156.039062 2.558594 151.378906 -0.0742188 146.5625 0.0195312 C 146.535156 0.0195312 146.507812 0.0195312 146.484375 0.0195312 L 76.8125 0.0195312 C 69.789062 0.0195312 64.097656 5.730469 64.097656 12.769531 C 64.097656 19.8125 69.789062 25.523438 76.8125 25.523438 L 96.324219 25.523438 L 96.324219 67.023438 C 96.324219 74.121094 102.0625 79.875 109.140625 79.875 C 116.214844 79.875 121.953125 74.121094 121.953125 67.023438 L 121.953125 25.523438 L 138.753906 25.523438 L 161.996094 72.804688 C 164.152344 77.191406 168.605469 79.96875 173.480469 79.972656 C 178.355469 79.976562 182.8125 77.203125 184.976562 72.824219 L 211.773438 18.558594 C 214.917969 12.199219 212.320312 4.488281 205.976562 1.335938 C 204.195312 0.449219 202.300781 0.0195312 200.4375 0 Z M 200.4375 0 "/>
    <path style=" stroke:none;fill-rule:nonzero;fill:rgb(100%,0%,0%);fill-opacity:1;" d="M 239.449219 0.140625 C 234.699219 0.0742188 230.117188 2.6875 227.855469 7.253906 L 200.996094 61.453125 C 197.847656 67.808594 200.414062 75.46875 206.75 78.625 C 213.085938 81.78125 220.722656 79.203125 223.871094 72.851562 L 250.730469 18.65625 C 253.878906 12.304688 251.308594 4.644531 244.972656 1.488281 C 243.1875 0.601562 241.308594 0.164062 239.449219 0.140625 Z M 277.441406 0.140625 C 272.691406 0.0742188 268.109375 2.6875 265.847656 7.253906 L 238.988281 61.453125 C 235.839844 67.808594 238.402344 75.46875 244.742188 78.625 C 251.078125 81.78125 258.714844 79.203125 261.863281 72.851562 L 288.71875 18.65625 C 291.867188 12.304688 289.300781 4.644531 282.960938 1.488281 C 281.179688 0.601562 279.300781 0.164062 277.441406 0.140625 Z M 277.441406 0.140625 "/>
  </g>
</svg>