<?xml version="1.0" encoding="UTF-8" standalone="yes"?>
<svg xmlns="http://www.w3.org/2000/svg" xmlns:xlink="http://www.w3.org/1999/xlink" width="357.3333333333333px" height="106.66666666666666px" viewBox="0 0 268 80" version="1.1">
  <g id="surface1">
    <path style=" stroke:none;fill-rule:nonzero;fill:rgb(87.843137%,12.54902%,15.294118%);fill-opacity:1;" d="M 9.4375 9.769531 C 92.613281 9.78125 175.789062 9.769531 258.96875 9.777344 C 258.949219 30.015625 258.960938 50.253906 258.960938 70.496094 C 175.785156 70.492188 92.613281 70.492188 9.4375 70.496094 C 9.441406 50.253906 9.445312 30.011719 9.4375 9.769531 M 135.546875 12.390625 C 135.546875 30.859375 135.546875 49.332031 135.546875 67.800781 C 175.585938 67.804688 215.628906 67.800781 255.667969 67.800781 C 255.664062 49.332031 255.664062 30.859375 255.667969 12.390625 C 215.628906 12.390625 175.585938 12.386719 135.546875 12.390625 M 68.234375 14.863281 C 68.234375 16.015625 68.238281 17.171875 68.234375 18.324219 C 67.769531 18.324219 67.304688 18.324219 66.84375 18.324219 C 66.851562 19.507812 66.851562 20.6875 66.847656 21.867188 C 67.386719 21.867188 67.925781 21.867188 68.464844 21.863281 C 68.472656 24.574219 68.453125 27.289062 68.460938 30.003906 C 68.457031 31.367188 68.777344 32.933594 70.039062 33.691406 C 72.066406 35.003906 74.644531 34.335938 76.824219 33.789062 C 76.832031 32.75 76.832031 31.710938 76.828125 30.675781 C 76.429688 30.597656 76.039062 30.507812 75.652344 30.398438 C 75.007812 29.957031 75.039062 29.128906 75.03125 28.441406 C 75.035156 26.25 75.042969 24.058594 75.035156 21.867188 C 75.507812 21.867188 75.984375 21.867188 76.460938 21.867188 C 76.453125 20.683594 76.453125 19.5 76.460938 18.320312 C 75.996094 18.324219 75.539062 18.324219 75.078125 18.332031 C 75.070312 17.171875 75.070312 16.015625 75.074219 14.859375 C 72.792969 14.855469 70.515625 14.851562 68.234375 14.863281 M 21.042969 17.921875 C 18.691406 18.527344 16.289062 20.179688 16.09375 22.816406 C 18.5 22.839844 20.90625 22.832031 23.316406 22.816406 C 24.542969 21.34375 26.664062 21.316406 28.417969 21.492188 C 29.636719 21.574219 31.074219 22.296875 30.953125 23.722656 C 28.402344 23.832031 25.859375 24.070312 23.304688 24.148438 C 20.886719 24.296875 18.242188 24.609375 16.347656 26.273438 C 14.523438 27.785156 14.691406 30.921875 16.421875 32.445312 C 18.175781 34.046875 20.660156 34.480469 22.964844 34.484375 C 25.769531 34.53125 28.773438 34.085938 31.007812 32.253906 C 31.1875 32.722656 31.367188 33.195312 31.542969 33.664062 C 33.855469 33.667969 36.167969 33.648438 38.476562 33.675781 C 38.269531 33.203125 37.992188 32.746094 37.898438 32.230469 C 37.652344 28.734375 37.855469 25.214844 37.503906 21.722656 C 37.128906 19.652344 35.199219 18.300781 33.265625 17.816406 C 29.277344 16.773438 25.023438 16.914062 21.042969 17.921875 M 87.554688 17.484375 C 84.421875 17.90625 80.980469 19.496094 79.933594 22.722656 C 79.007812 25.832031 79.382812 29.738281 81.992188 31.957031 C 84.539062 34.09375 88.035156 34.480469 91.238281 34.4375 C 94.542969 34.40625 98.121094 34.066406 100.808594 31.953125 C 103.214844 29.953125 103.644531 26.460938 103.0625 23.554688 C 102.515625 20.910156 100.316406 18.921875 97.835938 18.066406 C 94.535156 16.957031 90.964844 16.960938 87.554688 17.484375 M 41.863281 18.308594 C 41.882812 21.476562 41.847656 24.640625 41.882812 27.808594 C 41.902344 29.042969 41.933594 30.363281 42.628906 31.433594 C 43.480469 32.746094 44.9375 33.523438 46.398438 33.972656 C 49.871094 34.941406 53.820312 34.441406 56.714844 32.203125 C 56.726562 32.691406 56.734375 33.175781 56.75 33.660156 C 58.949219 33.667969 61.152344 33.65625 63.351562 33.667969 C 63.351562 28.550781 63.347656 23.429688 63.355469 18.308594 C 61.148438 18.316406 58.9375 18.308594 56.730469 18.3125 C 56.6875 21.011719 56.796875 23.71875 56.667969 26.417969 C 56.605469 27.792969 55.882812 29.222656 54.523438 29.707031 C 52.914062 30.261719 50.898438 30.171875 49.605469 28.9375 C 48.71875 28.074219 48.585938 26.742188 48.558594 25.566406 C 48.535156 23.15625 48.546875 20.75 48.558594 18.34375 C 46.324219 18.28125 44.09375 18.324219 41.863281 18.308594 M 80.9375 36.832031 C 80.941406 37.621094 80.945312 38.40625 80.949219 39.191406 C 80.707031 39.191406 80.222656 39.195312 79.980469 39.199219 C 79.980469 40.007812 79.980469 40.824219 79.980469 41.640625 C 80.355469 41.640625 80.730469 41.640625 81.113281 41.640625 C 81.128906 43.621094 81.074219 45.605469 81.128906 47.585938 C 81.144531 48.464844 81.46875 49.425781 82.304688 49.851562 C 83.714844 50.691406 85.382812 50.160156 86.875 49.867188 C 86.878906 49.179688 86.882812 48.488281 86.882812 47.796875 C 86.421875 47.59375 85.675781 47.507812 85.652344 46.859375 C 85.53125 45.121094 85.644531 43.375 85.605469 41.636719 C 85.855469 41.636719 86.363281 41.640625 86.613281 41.644531 C 86.613281 40.839844 86.613281 40.039062 86.617188 39.234375 C 86.371094 39.238281 85.875 39.238281 85.625 39.242188 C 85.625 38.4375 85.628906 37.636719 85.632812 36.832031 C 84.070312 36.832031 82.503906 36.832031 80.9375 36.832031 M 111.878906 40.203125 C 111.871094 39.761719 111.867188 39.3125 111.863281 38.867188 C 110.390625 38.875 108.917969 38.871094 107.453125 38.878906 C 107.445312 42.476562 107.457031 46.078125 107.445312 49.675781 C 108.925781 49.691406 110.410156 49.683594 111.890625 49.691406 C 111.910156 47.503906 111.84375 45.316406 111.910156 43.132812 C 111.984375 41.730469 113.789062 41.253906 114.867188 41.839844 C 115.535156 42.136719 115.726562 42.894531 116.011719 43.5 C 117.390625 43.5 118.773438 43.496094 120.148438 43.503906 C 120.410156 41.757812 119.792969 39.75 118.128906 38.914062 C 116.042969 37.789062 113.539062 38.753906 111.878906 40.203125 M 38.855469 39.796875 C 38.855469 39.570312 38.851562 39.101562 38.851562 38.867188 C 37.46875 38.875 36.085938 38.875 34.707031 38.875 C 34.703125 42.476562 34.710938 46.078125 34.703125 49.683594 C 36.089844 49.6875 37.476562 49.683594 38.859375 49.691406 C 38.871094 47.925781 38.820312 46.167969 38.871094 44.402344 C 38.859375 43.339844 39.523438 42.289062 40.550781 41.957031 C 42.046875 41.320312 44.25 42 44.585938 43.738281 C 44.875 45.707031 44.644531 47.707031 44.710938 49.6875 C 46.210938 49.683594 47.710938 49.691406 49.210938 49.679688 C 49.265625 47.644531 49.089844 45.59375 49.292969 43.566406 C 50.054688 41.046875 54.367188 41.140625 54.917969 43.761719 C 55.085938 45.726562 54.941406 47.710938 54.984375 49.691406 C 56.421875 49.695312 57.863281 49.703125 59.304688 49.699219 C 59.277344 47.402344 59.332031 45.101562 59.28125 42.804688 C 59.246094 40.886719 57.613281 39.320312 55.832031 38.867188 C 53.371094 38.140625 50.742188 38.847656 48.539062 40.027344 C 45.660156 38.078125 41.871094 38.289062 38.855469 39.796875 M 68.597656 38.648438 C 66.921875 38.824219 65.152344 39.136719 63.800781 40.21875 C 61.664062 41.867188 61.484375 45.167969 62.699219 47.421875 C 64.21875 49.953125 67.484375 50.339844 70.164062 50.300781 C 72.675781 50.199219 75.703125 49.929688 77.265625 47.671875 C 78.726562 45.257812 78.410156 41.570312 75.921875 39.941406 C 73.769531 38.550781 71.074219 38.453125 68.597656 38.648438 M 95.410156 38.65625 C 93.320312 38.855469 90.96875 39.417969 89.714844 41.269531 C 88.507812 43.183594 88.570312 45.859375 89.804688 47.746094 C 91.507812 50.066406 94.660156 50.351562 97.304688 50.292969 C 99.726562 50.175781 102.570312 49.859375 104.121094 47.746094 C 105.601562 45.382812 105.375 41.71875 102.953125 40.042969 C 100.773438 38.535156 97.964844 38.449219 95.410156 38.65625 M 122.976562 53.078125 C 122.980469 53.675781 122.984375 54.273438 122.988281 54.871094 C 122.777344 54.921875 122.359375 55.015625 122.148438 55.0625 C 122.152344 55.683594 122.15625 56.308594 122.160156 56.925781 C 122.386719 56.933594 122.84375 56.945312 123.070312 56.953125 C 123.085938 58.507812 123.011719 60.0625 123.074219 61.621094 C 123.109375 62.449219 123.476562 63.324219 124.292969 63.65625 C 125.414062 64.0625 126.628906 63.773438 127.742188 63.46875 C 127.730469 62.953125 127.722656 62.4375 127.714844 61.921875 C 127.355469 61.667969 126.6875 61.59375 126.757812 61.011719 C 126.65625 59.664062 126.742188 58.308594 126.707031 56.957031 C 126.902344 56.953125 127.289062 56.941406 127.484375 56.9375 C 127.496094 56.316406 127.507812 55.695312 127.523438 55.078125 C 127.328125 55.03125 126.9375 54.949219 126.738281 54.902344 C 126.738281 54.300781 126.738281 53.691406 126.742188 53.09375 C 125.484375 53.078125 124.230469 53.082031 122.976562 53.078125 M 69.1875 54.101562 C 68.148438 54.253906 67.03125 54.445312 66.210938 55.15625 C 65.039062 56.203125 65.195312 58.417969 66.660156 59.140625 C 68.566406 60.113281 70.824219 59.683594 72.832031 60.296875 C 73.488281 60.402344 73.402344 61.238281 72.890625 61.449219 C 71.792969 62.042969 70.445312 61.683594 69.519531 60.9375 C 68.050781 60.882812 66.578125 60.875 65.109375 60.921875 C 65.972656 62.90625 68.203125 63.652344 70.183594 63.902344 C 72.300781 64.132812 74.625 64.027344 76.46875 62.851562 C 77.804688 62.011719 78.121094 59.878906 76.84375 58.847656 C 75.082031 57.382812 72.648438 57.800781 70.539062 57.691406 C 69.828125 57.707031 69.335938 57.148438 69.152344 56.515625 C 70.292969 55.78125 71.863281 55.746094 72.949219 56.601562 C 74.332031 56.621094 75.714844 56.613281 77.097656 56.605469 C 76.804688 55.816406 76.332031 55.042969 75.507812 54.726562 C 73.53125 53.878906 71.296875 53.808594 69.1875 54.101562 M 83.480469 55.261719 C 83.414062 55.097656 83.289062 54.769531 83.230469 54.605469 C 82.105469 54.503906 80.972656 54.574219 79.84375 54.558594 C 79.828125 58.332031 79.839844 62.105469 79.839844 65.882812 C 81.007812 65.878906 82.179688 65.878906 83.351562 65.875 C 83.355469 64.804688 83.355469 63.734375 83.339844 62.664062 C 85.496094 64.160156 88.617188 64.34375 90.792969 62.796875 C 93.03125 61.257812 93.46875 57.621094 91.421875 55.742188 C 89.316406 53.839844 85.753906 53.445312 83.480469 55.261719 M 98.945312 54.300781 C 97.210938 54.566406 95.367188 55.46875 94.761719 57.238281 C 94.25 58.992188 94.464844 61.160156 95.890625 62.4375 C 97.074219 63.421875 98.652344 63.777344 100.160156 63.832031 C 102.035156 63.886719 104.003906 63.847656 105.722656 63 C 108.734375 61.585938 108.746094 56.582031 105.824219 55.054688 C 103.738281 53.921875 101.234375 53.960938 98.945312 54.300781 M 113.742188 55.574219 C 113.742188 55.308594 113.746094 54.773438 113.75 54.503906 C 112.503906 54.503906 111.257812 54.503906 110.015625 54.515625 C 110.015625 57.507812 110.015625 60.5 110.011719 63.5 C 111.261719 63.511719 112.511719 63.507812 113.761719 63.507812 C 113.816406 61.527344 113.613281 59.519531 113.863281 57.550781 C 114.734375 56.167969 116.9375 56.746094 117.175781 58.320312 C 118.359375 58.328125 119.542969 58.328125 120.726562 58.3125 C 120.769531 56.851562 120.351562 55.117188 118.878906 54.476562 C 117.136719 53.585938 115.140625 54.429688 113.742188 55.574219 M 61.117188 56.0625 C 60.6875 56.0625 60.050781 55.835938 59.816406 56.351562 C 59.421875 57.121094 59.433594 58.128906 59.886719 58.871094 C 60.390625 59.179688 61.054688 58.917969 61.621094 58.957031 C 61.613281 57.566406 61.699219 56.160156 61.441406 54.78125 C 61.1875 55.167969 61.152344 55.621094 61.117188 56.0625 M 54.300781 56.03125 C 54.296875 57.015625 54.300781 58.003906 54.371094 58.988281 C 54.980469 58.992188 55.585938 58.972656 56.195312 58.964844 C 56.125 57.984375 56.101562 57.003906 56.097656 56.023438 C 55.996094 56.027344 55.792969 56.042969 55.691406 56.046875 C 55.691406 56.894531 55.722656 57.746094 55.609375 58.585938 C 55.40625 58.617188 54.996094 58.683594 54.792969 58.714844 C 54.714844 57.828125 54.738281 56.933594 54.746094 56.042969 C 54.632812 56.042969 54.414062 56.035156 54.300781 56.03125 M 56.980469 56.078125 C 56.980469 57.046875 56.980469 58.019531 56.972656 58.992188 C 57.074219 59 57.277344 59.011719 57.378906 59.019531 C 57.40625 58.148438 57.257812 57.226562 57.640625 56.414062 C 57.835938 56.398438 58.238281 56.367188 58.4375 56.351562 C 58.453125 57.238281 58.453125 58.128906 58.453125 59.015625 C 58.5625 59.011719 58.792969 59.003906 58.910156 59 C 58.886719 58.0625 58.972656 57.105469 58.78125 56.183594 C 58.226562 55.878906 57.578125 56.097656 56.980469 56.078125 Z M 56.980469 56.078125 "/>
    <path style=" stroke:none;fill-rule:nonzero;fill:rgb(87.843137%,12.54902%,15.294118%);fill-opacity:1;" d="M 89.792969 22.277344 C 91.28125 21.988281 92.957031 22.027344 94.273438 22.875 C 96.566406 24.289062 96.03125 28.546875 93.320312 29.148438 C 91.597656 29.484375 89.523438 29.621094 88.101562 28.394531 C 86.226562 26.574219 87.121094 22.789062 89.792969 22.277344 Z M 89.792969 22.277344 "/>
    <path style=" stroke:none;fill-rule:nonzero;fill:rgb(87.843137%,12.54902%,15.294118%);fill-opacity:1;" d="M 25.484375 26.953125 C 27.292969 26.644531 29.125 26.753906 30.945312 26.769531 C 30.996094 27.886719 30.570312 29.027344 29.566406 29.605469 C 27.832031 30.699219 25.574219 30.75 23.640625 30.253906 C 22.703125 30.027344 22.410156 28.832031 22.933594 28.09375 C 23.527344 27.296875 24.5625 27.085938 25.484375 26.953125 Z M 25.484375 26.953125 "/>
    <path style=" stroke:none;fill-rule:nonzero;fill:rgb(87.843137%,12.54902%,15.294118%);fill-opacity:1;" d="M 149.574219 33.53125 C 152.121094 32.378906 155.480469 32.527344 157.554688 34.554688 C 158.5 35.449219 158.894531 36.726562 159.152344 37.96875 C 158 37.992188 156.847656 37.992188 155.695312 37.972656 C 155.320312 36.570312 153.941406 35.671875 152.507812 35.90625 C 150.914062 35.988281 149.871094 37.503906 149.621094 38.957031 C 149.359375 40.554688 149.386719 42.351562 150.320312 43.742188 C 151.210938 45.074219 153.179688 45.269531 154.492188 44.496094 C 155.199219 44.101562 155.441406 43.292969 155.703125 42.585938 C 156.835938 42.578125 157.96875 42.578125 159.101562 42.59375 C 158.746094 44.324219 157.992188 46.101562 156.417969 47.054688 C 153.742188 48.691406 149.871094 48.355469 147.6875 46.03125 C 145.96875 44.296875 145.484375 41.707031 145.738281 39.347656 C 145.949219 36.9375 147.316406 34.546875 149.574219 33.53125 Z M 149.574219 33.53125 "/>
    <path style=" stroke:none;fill-rule:nonzero;fill:rgb(87.843137%,12.54902%,15.294118%);fill-opacity:1;" d="M 161.304688 33.175781 C 162.542969 33.175781 163.78125 33.175781 165.019531 33.179688 C 165.019531 34.878906 165.023438 36.582031 165.019531 38.285156 C 166.707031 38.285156 168.402344 38.300781 170.097656 38.273438 C 170.089844 36.570312 170.09375 34.871094 170.09375 33.175781 C 171.3125 33.175781 172.53125 33.175781 173.75 33.171875 C 173.765625 38 173.753906 42.828125 173.757812 47.65625 C 172.539062 47.65625 171.320312 47.652344 170.101562 47.664062 C 170.035156 45.597656 170.210938 43.519531 169.976562 41.464844 C 168.328125 41.492188 166.683594 41.480469 165.035156 41.476562 C 165.007812 43.519531 165.019531 45.566406 165.03125 47.613281 C 163.785156 47.671875 162.546875 47.660156 161.304688 47.652344 C 161.304688 42.828125 161.304688 38.003906 161.304688 33.175781 Z M 161.304688 33.175781 "/>
    <path style=" stroke:none;fill-rule:nonzero;fill:rgb(87.843137%,12.54902%,15.294118%);fill-opacity:1;" d="M 180.324219 33.296875 C 181.589844 33.007812 182.96875 33.253906 184.28125 33.167969 C 186.070312 37.96875 187.703125 42.828125 189.429688 47.65625 C 188.125 47.65625 186.820312 47.648438 185.519531 47.667969 C 185.171875 46.785156 184.863281 45.886719 184.527344 45 C 182.953125 45.019531 181.378906 45.023438 179.804688 44.996094 C 179.445312 45.863281 179.332031 46.859375 178.792969 47.632812 C 177.574219 47.699219 176.351562 47.640625 175.132812 47.652344 C 176.847656 42.863281 178.488281 38.039062 180.324219 33.296875 M 180.628906 42.007812 C 181.683594 42.023438 182.742188 42.023438 183.800781 42.007812 C 183.25 40.34375 182.726562 38.671875 182.1875 37.007812 C 181.667969 38.675781 181.175781 40.351562 180.628906 42.007812 Z M 180.628906 42.007812 "/>
    <path style=" stroke:none;fill-rule:nonzero;fill:rgb(87.843137%,12.54902%,15.294118%);fill-opacity:1;" d="M 190.71875 33.175781 C 192.042969 33.175781 193.359375 33.175781 194.679688 33.171875 C 196.460938 36.238281 198.28125 39.285156 199.847656 42.464844 C 199.695312 39.375 199.613281 36.277344 199.660156 33.179688 C 200.835938 33.175781 202.011719 33.175781 203.1875 33.175781 C 203.1875 38.003906 203.195312 42.828125 203.1875 47.65625 C 201.886719 47.65625 200.585938 47.652344 199.285156 47.660156 C 197.5 44.664062 195.738281 41.652344 194.113281 38.566406 C 194.261719 41.59375 194.257812 44.621094 194.25 47.65625 C 193.070312 47.65625 191.894531 47.65625 190.71875 47.65625 C 190.71875 42.828125 190.71875 38.003906 190.71875 33.175781 Z M 190.71875 33.175781 "/>
    <path style=" stroke:none;fill-rule:nonzero;fill:rgb(87.843137%,12.54902%,15.294118%);fill-opacity:1;" d="M 206.152344 33.175781 C 207.457031 33.175781 208.761719 33.179688 210.070312 33.167969 C 211.875 36.21875 213.707031 39.261719 215.226562 42.464844 C 215.113281 39.371094 215.09375 36.273438 215.113281 33.175781 C 216.292969 33.175781 217.472656 33.175781 218.65625 33.175781 C 218.65625 38.003906 218.65625 42.828125 218.65625 47.65625 C 217.328125 47.65625 216 47.65625 214.675781 47.65625 C 212.917969 44.632812 211.125 41.625 209.503906 38.523438 C 209.742188 41.5625 209.714844 44.609375 209.703125 47.65625 C 208.515625 47.65625 207.332031 47.65625 206.152344 47.65625 C 206.152344 42.828125 206.148438 38.003906 206.152344 33.175781 Z M 206.152344 33.175781 "/>
    <path style=" stroke:none;fill-rule:nonzero;fill:rgb(87.843137%,12.54902%,15.294118%);fill-opacity:1;" d="M 221.554688 47.65625 C 221.554688 42.828125 221.535156 37.996094 221.566406 33.167969 C 225.195312 33.183594 228.816406 33.171875 232.445312 33.171875 C 232.449219 34.171875 232.449219 35.171875 232.445312 36.171875 C 230.054688 36.167969 227.664062 36.167969 225.28125 36.171875 C 225.28125 37.011719 225.289062 37.851562 225.300781 38.691406 C 227.484375 38.707031 229.667969 38.691406 231.847656 38.695312 C 231.84375 39.660156 231.84375 40.628906 231.828125 41.597656 C 229.621094 41.597656 227.410156 41.566406 225.207031 41.621094 C 225.207031 42.621094 225.207031 43.628906 225.203125 44.636719 C 227.707031 44.691406 230.210938 44.652344 232.714844 44.660156 C 232.714844 45.65625 232.714844 46.65625 232.71875 47.65625 C 228.996094 47.65625 225.277344 47.65625 221.554688 47.65625 Z M 221.554688 47.65625 "/>
    <path style=" stroke:none;fill-rule:nonzero;fill:rgb(87.843137%,12.54902%,15.294118%);fill-opacity:1;" d="M 235.054688 33.179688 C 236.289062 33.175781 237.527344 33.175781 238.765625 33.175781 C 238.769531 36.96875 238.765625 40.761719 238.769531 44.550781 C 241.09375 44.542969 243.421875 44.542969 245.746094 44.550781 C 245.738281 45.582031 245.738281 46.621094 245.738281 47.65625 C 242.179688 47.65625 238.617188 47.65625 235.054688 47.652344 C 235.054688 42.828125 235.054688 38.003906 235.054688 33.179688 Z M 235.054688 33.179688 "/>
    <path style=" stroke:none;fill-rule:nonzero;fill:rgb(87.843137%,12.54902%,15.294118%);fill-opacity:1;" d="M 68.769531 42.085938 C 69.863281 41.839844 71.144531 41.828125 72.09375 42.503906 C 73.542969 43.515625 73.167969 46.183594 71.4375 46.675781 C 70.304688 46.945312 68.960938 47.007812 67.964844 46.308594 C 66.554688 45.214844 67.023438 42.578125 68.769531 42.085938 Z M 68.769531 42.085938 "/>
    <path style=" stroke:none;fill-rule:nonzero;fill:rgb(87.843137%,12.54902%,15.294118%);fill-opacity:1;" d="M 95.824219 42.039062 C 97.117188 41.785156 98.753906 41.882812 99.546875 43.105469 C 100.230469 44.359375 99.773438 46.308594 98.265625 46.707031 C 97.074219 46.9375 95.597656 47.035156 94.660156 46.113281 C 93.441406 44.867188 94.105469 42.429688 95.824219 42.039062 Z M 95.824219 42.039062 "/>
    <path style=" stroke:none;fill-rule:nonzero;fill:rgb(87.843137%,12.54902%,15.294118%);fill-opacity:1;" d="M 60.234375 56.382812 C 60.425781 56.386719 60.8125 56.394531 61.003906 56.398438 C 61.097656 57.171875 61.578125 58.953125 60.261719 58.695312 C 59.925781 57.96875 59.996094 57.128906 60.234375 56.382812 Z M 60.234375 56.382812 "/>
    <path style=" stroke:none;fill-rule:nonzero;fill:rgb(87.843137%,12.54902%,15.294118%);fill-opacity:1;" d="M 85.011719 56.753906 C 86.636719 56.109375 88.839844 57.242188 88.792969 59.109375 C 88.613281 61.246094 85.667969 62.324219 84.179688 60.753906 C 82.789062 59.65625 83.363281 57.261719 85.011719 56.753906 Z M 85.011719 56.753906 "/>
    <path style=" stroke:none;fill-rule:nonzero;fill:rgb(87.843137%,12.54902%,15.294118%);fill-opacity:1;" d="M 100.019531 57.09375 C 100.878906 56.835938 101.875 56.820312 102.695312 57.21875 C 104.164062 57.921875 103.921875 60.5 102.316406 60.871094 C 101.363281 61.019531 100.226562 61.128906 99.421875 60.484375 C 98.363281 59.558594 98.714844 57.601562 100.019531 57.09375 Z M 100.019531 57.09375 "/>
    <path style=" stroke:none;fill-rule:nonzero;fill:rgb(100%,100%,100%);fill-opacity:1;" d="M 68.234375 14.863281 C 70.515625 14.851562 72.792969 14.855469 75.074219 14.859375 C 75.070312 16.015625 75.070312 17.171875 75.078125 18.332031 C 75.539062 18.324219 75.996094 18.324219 76.460938 18.320312 C 76.453125 19.5 76.453125 20.683594 76.460938 21.867188 C 75.984375 21.867188 75.507812 21.867188 75.035156 21.867188 C 75.042969 24.058594 75.035156 26.25 75.03125 28.441406 C 75.039062 29.128906 75.007812 29.957031 75.652344 30.398438 C 76.039062 30.507812 76.429688 30.597656 76.828125 30.675781 C 76.832031 31.710938 76.832031 32.75 76.824219 33.789062 C 74.644531 34.335938 72.066406 35.003906 70.039062 33.691406 C 68.777344 32.933594 68.457031 31.367188 68.460938 30.003906 C 68.453125 27.289062 68.472656 24.574219 68.464844 21.863281 C 67.925781 21.867188 67.386719 21.867188 66.847656 21.867188 C 66.851562 20.6875 66.851562 19.507812 66.84375 18.324219 C 67.304688 18.324219 67.769531 18.324219 68.234375 18.324219 C 68.238281 17.171875 68.234375 16.015625 68.234375 14.863281 Z M 68.234375 14.863281 "/>
    <path style=" stroke:none;fill-rule:nonzero;fill:rgb(100%,100%,100%);fill-opacity:1;" d="M 21.042969 17.921875 C 25.023438 16.914062 29.277344 16.773438 33.265625 17.816406 C 35.199219 18.300781 37.128906 19.652344 37.503906 21.722656 C 37.855469 25.214844 37.652344 28.734375 37.898438 32.230469 C 37.992188 32.746094 38.269531 33.203125 38.476562 33.675781 C 36.167969 33.648438 33.855469 33.667969 31.542969 33.664062 C 31.367188 33.195312 31.1875 32.722656 31.007812 32.253906 C 28.773438 34.085938 25.769531 34.53125 22.964844 34.484375 C 20.660156 34.480469 18.175781 34.046875 16.421875 32.445312 C 14.691406 30.921875 14.523438 27.785156 16.347656 26.273438 C 18.242188 24.609375 20.886719 24.296875 23.304688 24.148438 C 25.859375 24.070312 28.402344 23.832031 30.953125 23.722656 C 31.074219 22.296875 29.636719 21.574219 28.417969 21.492188 C 26.664062 21.316406 24.542969 21.34375 23.316406 22.816406 C 20.90625 22.832031 18.5 22.839844 16.09375 22.816406 C 16.289062 20.179688 18.691406 18.527344 21.042969 17.921875 M 25.484375 26.953125 C 24.5625 27.085938 23.527344 27.296875 22.933594 28.09375 C 22.410156 28.832031 22.703125 30.027344 23.640625 30.253906 C 25.574219 30.75 27.832031 30.699219 29.566406 29.605469 C 30.570312 29.027344 30.996094 27.886719 30.945312 26.769531 C 29.125 26.753906 27.292969 26.644531 25.484375 26.953125 Z M 25.484375 26.953125 "/>
    <path style=" stroke:none;fill-rule:nonzero;fill:rgb(100%,100%,100%);fill-opacity:1;" d="M 87.554688 17.484375 C 90.964844 16.960938 94.535156 16.957031 97.835938 18.066406 C 100.316406 18.921875 102.515625 20.910156 103.0625 23.554688 C 103.644531 26.460938 103.214844 29.953125 100.808594 31.953125 C 98.121094 34.066406 94.542969 34.40625 91.238281 34.4375 C 88.035156 34.480469 84.539062 34.09375 81.992188 31.957031 C 79.382812 29.738281 79.007812 25.832031 79.933594 22.722656 C 80.980469 19.496094 84.421875 17.90625 87.554688 17.484375 M 89.792969 22.277344 C 87.121094 22.789062 86.226562 26.574219 88.101562 28.394531 C 89.523438 29.621094 91.597656 29.484375 93.320312 29.148438 C 96.03125 28.546875 96.566406 24.289062 94.273438 22.875 C 92.957031 22.027344 91.28125 21.988281 89.792969 22.277344 Z M 89.792969 22.277344 "/>
    <path style=" stroke:none;fill-rule:nonzero;fill:rgb(100%,100%,100%);fill-opacity:1;" d="M 41.863281 18.308594 C 44.09375 18.324219 46.324219 18.28125 48.558594 18.34375 C 48.546875 20.75 48.535156 23.15625 48.558594 25.566406 C 48.585938 26.742188 48.71875 28.074219 49.605469 28.9375 C 50.898438 30.171875 52.914062 30.261719 54.523438 29.707031 C 55.882812 29.222656 56.605469 27.792969 56.667969 26.417969 C 56.796875 23.71875 56.6875 21.011719 56.730469 18.3125 C 58.9375 18.308594 61.148438 18.316406 63.355469 18.308594 C 63.347656 23.429688 63.351562 28.550781 63.351562 33.667969 C 61.152344 33.65625 58.949219 33.667969 56.75 33.660156 C 56.734375 33.175781 56.726562 32.691406 56.714844 32.203125 C 53.820312 34.441406 49.871094 34.941406 46.398438 33.972656 C 44.9375 33.523438 43.480469 32.746094 42.628906 31.433594 C 41.933594 30.363281 41.902344 29.042969 41.882812 27.808594 C 41.847656 24.640625 41.882812 21.476562 41.863281 18.308594 Z M 41.863281 18.308594 "/>
    <path style=" stroke:none;fill-rule:nonzero;fill:rgb(100%,100%,100%);fill-opacity:1;" d="M 80.9375 36.832031 C 82.503906 36.832031 84.070312 36.832031 85.632812 36.832031 C 85.628906 37.636719 85.625 38.4375 85.625 39.242188 C 85.875 39.238281 86.371094 39.238281 86.617188 39.234375 C 86.613281 40.039062 86.613281 40.839844 86.613281 41.644531 C 86.363281 41.640625 85.855469 41.636719 85.605469 41.636719 C 85.644531 43.375 85.53125 45.121094 85.652344 46.859375 C 85.675781 47.507812 86.421875 47.59375 86.882812 47.796875 C 86.882812 48.488281 86.878906 49.179688 86.875 49.867188 C 85.382812 50.160156 83.714844 50.691406 82.304688 49.851562 C 81.46875 49.425781 81.144531 48.464844 81.128906 47.585938 C 81.074219 45.605469 81.128906 43.621094 81.113281 41.640625 C 80.730469 41.640625 80.355469 41.640625 79.980469 41.640625 C 79.980469 40.824219 79.980469 40.007812 79.980469 39.199219 C 80.222656 39.195312 80.707031 39.191406 80.949219 39.191406 C 80.945312 38.40625 80.941406 37.621094 80.9375 36.832031 Z M 80.9375 36.832031 "/>
    <path style=" stroke:none;fill-rule:nonzero;fill:rgb(100%,100%,100%);fill-opacity:1;" d="M 111.878906 40.203125 C 113.539062 38.753906 116.042969 37.789062 118.128906 38.914062 C 119.792969 39.75 120.410156 41.757812 120.148438 43.503906 C 118.773438 43.496094 117.390625 43.5 116.011719 43.5 C 115.726562 42.894531 115.535156 42.136719 114.867188 41.839844 C 113.789062 41.253906 111.984375 41.730469 111.910156 43.132812 C 111.84375 45.316406 111.910156 47.503906 111.890625 49.691406 C 110.410156 49.683594 108.925781 49.691406 107.445312 49.675781 C 107.457031 46.078125 107.445312 42.476562 107.453125 38.878906 C 108.917969 38.871094 110.390625 38.875 111.863281 38.867188 C 111.867188 39.3125 111.871094 39.761719 111.878906 40.203125 Z M 111.878906 40.203125 "/>
    <path style=" stroke:none;fill-rule:nonzero;fill:rgb(100%,100%,100%);fill-opacity:1;" d="M 38.855469 39.796875 C 41.871094 38.289062 45.660156 38.078125 48.539062 40.027344 C 50.742188 38.847656 53.371094 38.140625 55.832031 38.867188 C 57.613281 39.320312 59.246094 40.886719 59.28125 42.804688 C 59.332031 45.101562 59.277344 47.402344 59.304688 49.699219 C 57.863281 49.703125 56.421875 49.695312 54.984375 49.691406 C 54.941406 47.710938 55.085938 45.726562 54.917969 43.761719 C 54.367188 41.140625 50.054688 41.046875 49.292969 43.566406 C 49.089844 45.59375 49.265625 47.644531 49.210938 49.679688 C 47.710938 49.691406 46.210938 49.683594 44.710938 49.6875 C 44.644531 47.707031 44.875 45.707031 44.585938 43.738281 C 44.25 42 42.046875 41.320312 40.550781 41.957031 C 39.523438 42.289062 38.859375 43.339844 38.871094 44.402344 C 38.820312 46.167969 38.871094 47.925781 38.859375 49.691406 C 37.476562 49.683594 36.089844 49.6875 34.703125 49.683594 C 34.710938 46.078125 34.703125 42.476562 34.707031 38.875 C 36.085938 38.875 37.46875 38.875 38.851562 38.867188 C 38.851562 39.101562 38.855469 39.570312 38.855469 39.796875 Z M 38.855469 39.796875 "/>
    <path style=" stroke:none;fill-rule:nonzero;fill:rgb(100%,100%,100%);fill-opacity:1;" d="M 68.597656 38.648438 C 71.074219 38.453125 73.769531 38.550781 75.921875 39.941406 C 78.410156 41.570312 78.726562 45.257812 77.265625 47.671875 C 75.703125 49.929688 72.675781 50.199219 70.164062 50.300781 C 67.484375 50.339844 64.21875 49.953125 62.699219 47.421875 C 61.484375 45.167969 61.664062 41.867188 63.800781 40.21875 C 65.152344 39.136719 66.921875 38.824219 68.597656 38.648438 M 68.769531 42.085938 C 67.023438 42.578125 66.554688 45.214844 67.964844 46.308594 C 68.960938 47.007812 70.304688 46.945312 71.4375 46.675781 C 73.167969 46.183594 73.542969 43.515625 72.09375 42.503906 C 71.144531 41.828125 69.863281 41.839844 68.769531 42.085938 Z M 68.769531 42.085938 "/>
    <path style=" stroke:none;fill-rule:nonzero;fill:rgb(100%,100%,100%);fill-opacity:1;" d="M 95.410156 38.65625 C 97.964844 38.449219 100.773438 38.535156 102.953125 40.042969 C 105.375 41.71875 105.601562 45.382812 104.121094 47.746094 C 102.570312 49.859375 99.726562 50.175781 97.304688 50.292969 C 94.660156 50.351562 91.507812 50.066406 89.804688 47.746094 C 88.570312 45.859375 88.507812 43.183594 89.714844 41.269531 C 90.96875 39.417969 93.320312 38.855469 95.410156 38.65625 M 95.824219 42.039062 C 94.105469 42.429688 93.441406 44.867188 94.660156 46.113281 C 95.597656 47.035156 97.074219 46.9375 98.265625 46.707031 C 99.773438 46.308594 100.230469 44.359375 99.546875 43.105469 C 98.753906 41.882812 97.117188 41.785156 95.824219 42.039062 Z M 95.824219 42.039062 "/>
    <path style=" stroke:none;fill-rule:nonzero;fill:rgb(100%,100%,100%);fill-opacity:1;" d="M 122.976562 53.078125 C 124.230469 53.082031 125.484375 53.078125 126.742188 53.09375 C 126.738281 53.691406 126.738281 54.300781 126.738281 54.902344 C 126.9375 54.949219 127.328125 55.03125 127.523438 55.078125 C 127.507812 55.695312 127.496094 56.316406 127.484375 56.9375 C 127.289062 56.941406 126.902344 56.953125 126.707031 56.957031 C 126.742188 58.308594 126.65625 59.664062 126.757812 61.011719 C 126.6875 61.59375 127.355469 61.667969 127.714844 61.921875 C 127.722656 62.4375 127.730469 62.953125 127.742188 63.46875 C 126.628906 63.773438 125.414062 64.0625 124.292969 63.65625 C 123.476562 63.324219 123.109375 62.449219 123.074219 61.621094 C 123.011719 60.0625 123.085938 58.507812 123.070312 56.953125 C 122.84375 56.945312 122.386719 56.933594 122.160156 56.925781 C 122.15625 56.308594 122.152344 55.683594 122.148438 55.0625 C 122.359375 55.015625 122.777344 54.921875 122.988281 54.871094 C 122.984375 54.273438 122.980469 53.675781 122.976562 53.078125 Z M 122.976562 53.078125 "/>
    <path style=" stroke:none;fill-rule:nonzero;fill:rgb(100%,100%,100%);fill-opacity:1;" d="M 69.1875 54.101562 C 71.296875 53.808594 73.53125 53.878906 75.507812 54.726562 C 76.332031 55.042969 76.804688 55.816406 77.097656 56.605469 C 75.714844 56.613281 74.332031 56.621094 72.949219 56.601562 C 71.863281 55.746094 70.292969 55.78125 69.152344 56.515625 C 69.335938 57.148438 69.828125 57.707031 70.539062 57.691406 C 72.648438 57.800781 75.082031 57.382812 76.84375 58.847656 C 78.121094 59.878906 77.804688 62.011719 76.46875 62.851562 C 74.625 64.027344 72.300781 64.132812 70.183594 63.902344 C 68.203125 63.652344 65.972656 62.90625 65.109375 60.921875 C 66.578125 60.875 68.050781 60.882812 69.519531 60.9375 C 70.445312 61.683594 71.792969 62.042969 72.890625 61.449219 C 73.402344 61.238281 73.488281 60.402344 72.832031 60.296875 C 70.824219 59.683594 68.566406 60.113281 66.660156 59.140625 C 65.195312 58.417969 65.039062 56.203125 66.210938 55.15625 C 67.03125 54.445312 68.148438 54.253906 69.1875 54.101562 Z M 69.1875 54.101562 "/>
    <path style=" stroke:none;fill-rule:nonzero;fill:rgb(100%,100%,100%);fill-opacity:1;" d="M 83.480469 55.261719 C 85.753906 53.445312 89.316406 53.839844 91.421875 55.742188 C 93.46875 57.621094 93.03125 61.257812 90.792969 62.796875 C 88.617188 64.34375 85.496094 64.160156 83.339844 62.664062 C 83.355469 63.734375 83.355469 64.804688 83.351562 65.875 C 82.179688 65.878906 81.007812 65.878906 79.839844 65.882812 C 79.839844 62.105469 79.828125 58.332031 79.84375 54.558594 C 80.972656 54.574219 82.105469 54.503906 83.230469 54.605469 C 83.289062 54.769531 83.414062 55.097656 83.480469 55.261719 M 85.011719 56.753906 C 83.363281 57.261719 82.789062 59.65625 84.179688 60.753906 C 85.667969 62.324219 88.613281 61.246094 88.792969 59.109375 C 88.839844 57.242188 86.636719 56.109375 85.011719 56.753906 Z M 85.011719 56.753906 "/>
    <path style=" stroke:none;fill-rule:nonzero;fill:rgb(100%,100%,100%);fill-opacity:1;" d="M 98.945312 54.300781 C 101.234375 53.960938 103.738281 53.921875 105.824219 55.054688 C 108.746094 56.582031 108.734375 61.585938 105.722656 63 C 104.003906 63.847656 102.035156 63.886719 100.160156 63.832031 C 98.652344 63.777344 97.074219 63.421875 95.890625 62.4375 C 94.464844 61.160156 94.25 58.992188 94.761719 57.238281 C 95.367188 55.46875 97.210938 54.566406 98.945312 54.300781 M 100.019531 57.09375 C 98.714844 57.601562 98.363281 59.558594 99.421875 60.484375 C 100.226562 61.128906 101.363281 61.019531 102.316406 60.871094 C 103.921875 60.5 104.164062 57.921875 102.695312 57.21875 C 101.875 56.820312 100.878906 56.835938 100.019531 57.09375 Z M 100.019531 57.09375 "/>
    <path style=" stroke:none;fill-rule:nonzero;fill:rgb(100%,100%,100%);fill-opacity:1;" d="M 113.742188 55.574219 C 115.140625 54.429688 117.136719 53.585938 118.878906 54.476562 C 120.351562 55.117188 120.769531 56.851562 120.726562 58.3125 C 119.542969 58.328125 118.359375 58.328125 117.175781 58.320312 C 116.9375 56.746094 114.734375 56.167969 113.863281 57.550781 C 113.613281 59.519531 113.816406 61.527344 113.761719 63.507812 C 112.511719 63.507812 111.261719 63.511719 110.011719 63.5 C 110.015625 60.5 110.015625 57.507812 110.015625 54.515625 C 111.257812 54.503906 112.503906 54.503906 113.75 54.503906 C 113.746094 54.773438 113.742188 55.308594 113.742188 55.574219 Z M 113.742188 55.574219 "/>
    <path style=" stroke:none;fill-rule:nonzero;fill:rgb(100%,100%,100%);fill-opacity:1;" d="M 61.117188 56.0625 C 61.152344 55.621094 61.1875 55.167969 61.441406 54.78125 C 61.699219 56.160156 61.613281 57.566406 61.621094 58.957031 C 61.054688 58.917969 60.390625 59.179688 59.886719 58.871094 C 59.433594 58.128906 59.421875 57.121094 59.816406 56.351562 C 60.050781 55.835938 60.6875 56.0625 61.117188 56.0625 M 60.234375 56.382812 C 59.996094 57.128906 59.925781 57.96875 60.261719 58.695312 C 61.578125 58.953125 61.097656 57.171875 61.003906 56.398438 C 60.8125 56.394531 60.425781 56.386719 60.234375 56.382812 Z M 60.234375 56.382812 "/>
    <path style=" stroke:none;fill-rule:nonzero;fill:rgb(100%,100%,100%);fill-opacity:1;" d="M 54.300781 56.03125 C 54.414062 56.035156 54.632812 56.042969 54.746094 56.042969 C 54.738281 56.933594 54.714844 57.828125 54.792969 58.714844 C 54.996094 58.683594 55.40625 58.617188 55.609375 58.585938 C 55.722656 57.746094 55.691406 56.894531 55.691406 56.046875 C 55.792969 56.042969 55.996094 56.027344 56.097656 56.023438 C 56.101562 57.003906 56.125 57.984375 56.195312 58.964844 C 55.585938 58.972656 54.980469 58.992188 54.371094 58.988281 C 54.300781 58.003906 54.296875 57.015625 54.300781 56.03125 Z M 54.300781 56.03125 "/>
    <path style=" stroke:none;fill-rule:nonzero;fill:rgb(100%,100%,100%);fill-opacity:1;" d="M 56.980469 56.078125 C 57.578125 56.097656 58.226562 55.878906 58.78125 56.183594 C 58.972656 57.105469 58.886719 58.0625 58.910156 59 C 58.792969 59.003906 58.5625 59.011719 58.453125 59.015625 C 58.453125 58.128906 58.453125 57.238281 58.4375 56.351562 C 58.238281 56.367188 57.835938 56.398438 57.640625 56.414062 C 57.257812 57.226562 57.40625 58.148438 57.378906 59.019531 C 57.277344 59.011719 57.074219 59 56.972656 58.992188 C 56.980469 58.019531 56.980469 57.046875 56.980469 56.078125 Z M 56.980469 56.078125 "/>
  </g>
</svg>