<?xml version="1.0" encoding="UTF-8" standalone="yes"?>
<svg xmlns="http://www.w3.org/2000/svg" xmlns:xlink="http://www.w3.org/1999/xlink" width="309.3333333333333px" height="106.66666666666666px" viewBox="0 0 232 80" version="1.1">
  <g id="surface1">
    <path style=" stroke:none;fill-rule:nonzero;fill:rgb(71.764706%,1.960784%,40.392157%);fill-opacity:1;" d="M 151.980469 1.003906 C 145.425781 -1.140625 138.875 1.734375 136.460938 9.019531 C 130.335938 27.5 121.1875 47.609375 116.011719 51.554688 C 109.976562 47.457031 100.671875 28.476562 95.835938 9.769531 C 93.605469 1.140625 86.667969 -1.464844 80.050781 1.003906 C 73.746094 3.351562 72.367188 10.90625 74.183594 17.5 C 78.992188 34.949219 97.335938 77.519531 116.011719 77.519531 C 134.65625 77.519531 153.039062 34.949219 157.847656 17.5 C 160.375 8.320312 157.402344 2.777344 151.980469 1.003906 "/>
    <path style=" stroke:none;fill-rule:nonzero;fill:rgb(71.764706%,1.960784%,40.392157%);fill-opacity:1;" d="M 42.863281 2.554688 C 24.21875 2.554688 5.839844 45.125 1.027344 62.578125 C -1.5 71.753906 1.472656 77.300781 6.898438 79.070312 C 13.449219 81.214844 20 78.339844 22.414062 71.054688 C 28.539062 52.578125 37.691406 32.46875 42.863281 28.519531 C 48.902344 32.617188 58.207031 51.597656 63.042969 70.308594 C 65.273438 78.933594 72.207031 81.539062 78.824219 79.070312 C 85.132812 76.722656 86.511719 69.171875 84.691406 62.578125 C 79.882812 45.128906 61.542969 2.554688 42.863281 2.554688 "/>
    <path style=" stroke:none;fill-rule:nonzero;fill:rgb(71.764706%,1.960784%,40.392157%);fill-opacity:1;" d="M 231.144531 62.578125 C 226.335938 45.128906 207.992188 2.554688 189.316406 2.554688 C 170.671875 2.554688 152.292969 45.125 147.480469 62.578125 C 144.953125 71.757812 147.925781 77.300781 153.347656 79.070312 C 159.902344 81.214844 166.453125 78.339844 168.867188 71.054688 C 174.992188 52.578125 184.144531 32.46875 189.316406 28.519531 C 195.351562 32.617188 204.65625 51.597656 209.492188 70.308594 C 211.722656 78.933594 218.660156 81.539062 225.277344 79.070312 C 231.585938 76.722656 232.960938 69.171875 231.144531 62.578125 "/>
  </g>
</svg>