<?xml version="1.0" encoding="UTF-8" standalone="no"?>
<!-- Created with Inkscape (http://www.inkscape.org/) -->
<svg
   xmlns:dc="http://purl.org/dc/elements/1.1/"
   xmlns:cc="http://web.resource.org/cc/"
   xmlns:rdf="http://www.w3.org/1999/02/22-rdf-syntax-ns#"
   xmlns:svg="http://www.w3.org/2000/svg"
   xmlns="http://www.w3.org/2000/svg"
   xmlns:xlink="http://www.w3.org/1999/xlink"
   xmlns:sodipodi="http://sodipodi.sourceforge.net/DTD/sodipodi-0.dtd"
   xmlns:inkscape="http://www.inkscape.org/namespaces/inkscape"
   width="30"
   height="13"
   id="svg2"
   sodipodi:version="0.32"
   inkscape:version="0.45.1"
   version="1.0"
   sodipodi:docbase="C:\Users\Simon\Pictures"
   sodipodi:docname="Axess Television2.svg"
   inkscape:output_extension="org.inkscape.output.svg.inkscape"
   inkscape:export-filename="C:\Users\Simon\Pictures\Axess Television.png"
   inkscape:export-xdpi="90"
   inkscape:export-ydpi="90">
  <defs
     id="defs4">

  </defs>
  <sodipodi:namedview
     id="base"
     pagecolor="#ffffff"
     bordercolor="#666666"
     borderopacity="1.0"
     gridtolerance="10000"
     guidetolerance="10"
     objecttolerance="10"
     inkscape:pageopacity="0.0"
     inkscape:pageshadow="2"
     inkscape:zoom="1.5776468"
     inkscape:cx="-68.682841"
     inkscape:cy="22.889872"
     inkscape:document-units="px"
     inkscape:current-layer="layer1"
     width="30px"
     height="13px"
     inkscape:window-width="784"
     inkscape:window-height="575"
     inkscape:window-x="23"
     inkscape:window-y="23"
     showgrid="true" />
  <metadata
     id="metadata7">
    <rdf:RDF>
      <cc:Work
         rdf:about="">
        <dc:format>image/svg+xml</dc:format>
        <dc:type
           rdf:resource="http://purl.org/dc/dcmitype/StillImage" />
      </cc:Work>
    </rdf:RDF>
  </metadata>
  <g
     inkscape:label="Layer 1"
     inkscape:groupmode="layer"
     id="layer1"
     transform="translate(-424.46231,-741.52039)">
    <text
       id="text10131"
       x="-220.2735"
       y="953.30566">
      <tspan
         id="tspan10133"
         x="413.01648"
         y="732.43365"
         letter-spacing="0"
         font-size="37.7644"
         style="font-size:37.76440048px;letter-spacing:0;fill:#bd002b;fill-rule:nonzero;stroke:none;font-family:font1">
        <tspan
           id="tspan10135"
           dx="-0.377644" />
      </tspan>
    </text>
    <path
       style="fill:#0c0c0c;fill-rule:nonzero;stroke:none"
       d="M 412.89383,752.16259 C 412.88323,752.16259 412.87351,752.16259 412.8629,752.16259 L 412.92473,752.16259 C 412.91416,752.16259 412.90442,752.16259 412.89383,752.16259"
       id="path7428" />
    <path
       style="fill:#ffffff;fill-rule:nonzero;stroke:none"
       d="M 407.44971,748.16697 C 407.44971,748.16166 407.44971,748.15726 407.44971,748.15193 L 407.44971,748.16697"
       id="path7430" />
    <path
       style="fill:#b80036;fill-rule:nonzero;stroke:none"
       d="M 434.44679,747.81366 L 432.99834,750.27518 L 431.86519,750.27518 L 433.88948,746.88541 L 431.995,743.66348 L 433.12816,743.66348 L 434.44679,745.95719 L 435.76543,743.66348 L 436.89858,743.66348 L 435.0041,746.88541 L 437.02841,750.27518 L 435.89525,750.27518 L 434.44679,747.81366 L 434.44679,747.81366 z "
       id="path7991"
       mask="none"
       clip-path="none" />
    <path
       style="fill:#b80036;fill-rule:nonzero;stroke:none"
       d="M 437.37198,743.66348 L 441.59727,743.66348 L 441.59727,744.61027 L 438.37531,744.61027 L 438.37531,746.49591 L 441.12386,746.49591 L 441.12386,747.38707 L 438.37531,747.38707 L 438.37531,749.32839 L 441.59727,749.32839 L 441.59727,750.27518 L 437.37198,750.27518 L 437.37198,743.66348 L 437.37198,743.66348 z "
       id="path7993"
       mask="none"
       clip-path="none" />
    <path
       style="fill:#b80036;fill-rule:nonzero;stroke:none"
       d="M 442.52551,748.66773 C 443.0272,749.06781 443.69578,749.32839 444.40148,749.32839 C 445.21931,749.32839 445.71038,748.95568 445.71038,748.40898 C 445.71038,747.94441 445.44188,747.59111 444.84747,747.5169 C 444.54984,747.47893 444.31755,747.44273 443.97399,747.39591 C 442.83199,747.23869 442.21904,746.49591 442.21904,745.53852 C 442.21904,744.40624 443.00863,743.60782 444.37409,743.60782 C 445.19016,743.60782 445.91529,743.89577 446.5185,744.29409 L 445.96122,745.12077 C 445.47897,744.8134 444.91284,744.61027 444.32726,744.61027 C 443.71432,744.61027 443.22237,744.9256 443.22237,745.55709 C 443.22237,745.928 443.49174,746.30074 444.15946,746.4023 C 444.33698,746.42969 444.58783,746.46767 444.90313,746.50389 C 446.13784,746.65226 446.7137,747.5081 446.7137,748.40898 C 446.7137,749.62515 445.81282,750.32992 444.39262,750.32992 C 443.41756,750.32992 442.56349,750.03406 441.86664,749.42111 L 442.52551,748.66773 L 442.52551,748.66773 z "
       id="path7995"
       mask="none"
       clip-path="none" />
    <path
       style="fill:#b80036;fill-rule:nonzero;stroke:none"
       d="M 447.59602,748.66773 C 448.09682,749.06781 448.7654,749.32839 449.47197,749.32839 C 450.28893,749.32839 450.78,748.95568 450.78,748.40898 C 450.78,747.94441 450.51238,747.59111 449.91798,747.5169 C 449.62035,747.47893 449.38807,747.44273 449.0445,747.39591 C 447.90251,747.23869 447.28956,746.49591 447.28956,745.53852 C 447.28956,744.40624 448.07826,743.60782 449.4446,743.60782 C 450.26156,743.60782 450.98579,743.89577 451.58901,744.29409 L 451.03172,745.12077 C 450.54859,744.8134 449.98248,744.61027 449.39778,744.61027 C 448.78483,744.61027 448.292,744.9256 448.292,745.55709 C 448.292,745.928 448.56228,746.30074 449.23085,746.4023 C 449.4066,746.42969 449.65745,746.46767 449.97276,746.50389 C 451.20835,746.65226 451.78421,747.5081 451.78421,748.40898 C 451.78421,749.62515 450.88333,750.32992 449.46225,750.32992 C 448.48718,750.32992 447.63312,750.03406 446.93715,749.42111 L 447.59602,748.66773 L 447.59602,748.66773 z "
       id="path7997"
       mask="none"
       clip-path="none" />
    <path
       style="fill:#b80036;fill-rule:nonzero;stroke:none"
       d="M 430.69404,743.65992 L 425.86465,750.27693 L 426.9298,750.27693 L 428.00643,748.80552 L 430.53505,748.80552 L 430.53859,750.27693 L 431.54016,750.27693 L 431.53927,743.65992 L 430.69404,743.65992 L 430.69404,743.65992 z M 428.66795,747.90643 L 430.53859,745.35041 L 430.53859,747.90643 L 428.66795,747.90643 L 428.66795,747.90643 z "
       id="path7999"
       mask="none"
       clip-path="none" />
    <path
       style="fill:#171617;fill-rule:nonzero;stroke:none"
       d="M 442.51845,751.35359 L 442.16605,751.35359 L 442.16605,751.18576 L 443.05014,751.18576 L 443.05014,751.35359 L 442.69685,751.35359 L 442.69685,752.59892 L 442.51845,752.59892 L 442.51845,751.35359 L 442.51845,751.35359 z "
       id="path8001"
       mask="none"
       clip-path="none" />
    <path
       style="fill:#171617;fill-rule:nonzero;stroke:none"
       d="M 443.1738,751.18576 L 443.90421,751.18576 L 443.90421,751.35359 L 443.3522,751.35359 L 443.3522,751.80137 L 443.90421,751.80137 L 443.90421,751.96915 L 443.3522,751.96915 L 443.3522,752.43108 L 443.90421,752.43108 L 443.90421,752.59892 L 443.1738,752.59892 L 443.1738,751.18576 L 443.1738,751.18576 z "
       id="path8003"
       mask="none"
       clip-path="none" />
    <path
       style="fill:#171617;fill-rule:nonzero;stroke:none"
       d="M 444.13827,751.18576 L 444.31666,751.18576 L 444.31666,752.43108 L 444.81303,752.43108 L 444.81303,752.59892 L 444.13827,752.59892 L 444.13827,751.18576 L 444.13827,751.18576 z "
       id="path8005"
       mask="none"
       clip-path="none" />
    <path
       style="fill:#171617;fill-rule:nonzero;stroke:none"
       d="M 444.9614,751.18576 L 445.69094,751.18576 L 445.69094,751.35359 L 445.13895,751.35359 L 445.13895,751.80137 L 445.69094,751.80137 L 445.69094,751.96915 L 445.13895,751.96915 L 445.13895,752.43108 L 445.69094,752.43108 L 445.69094,752.59892 L 444.9614,752.59892 L 444.9614,751.18576 L 444.9614,751.18576 z "
       id="path8007"
       mask="none"
       clip-path="none" />
    <path
       style="fill:#171617;fill-rule:nonzero;stroke:none"
       d="M 446.78877,751.18576 L 446.97779,751.18576 L 446.4558,752.59892 L 446.30742,752.59892 L 445.78544,751.18576 L 445.97534,751.18576 L 446.37984,752.31451 L 446.38337,752.31451 L 446.78877,751.18576 L 446.78877,751.18576 z "
       id="path8009"
       mask="none"
       clip-path="none" />
    <path
       style="fill:#171617;fill-rule:nonzero;stroke:none"
       d="M 447.07582,751.18576 L 447.25423,751.18576 L 447.25423,752.59892 L 447.07582,752.59892 L 447.07582,751.18576 L 447.07582,751.18576 z "
       id="path8011"
       mask="none"
       clip-path="none" />
    <path
       style="fill:#171617;fill-rule:nonzero;stroke:none"
       d="M 448.15333,751.58941 C 448.12949,751.42246 448.03233,751.3209 447.88219,751.3209 C 447.68169,751.3209 447.62782,751.45159 447.62782,751.5479 C 447.62782,751.65474 447.69494,751.72102 447.8345,751.77401 L 448.0129,751.83935 C 448.23724,751.92415 448.34146,752.05573 448.34146,752.22621 C 448.34146,752.45582 448.15951,752.61921 447.88837,752.61921 C 447.63136,752.61921 447.44941,752.48496 447.42734,752.20236 L 447.60574,752.20236 C 447.61988,752.35691 447.69847,752.46378 447.89719,752.46378 C 448.05177,752.46378 448.16304,752.36571 448.16304,752.24208 C 448.16304,752.13171 448.07207,752.0619 447.944,752.01066 L 447.76296,751.94002 C 447.55363,751.85878 447.44941,751.73603 447.44941,751.55496 C 447.44941,751.31031 447.65166,751.16367 447.88396,751.16367 C 448.118,751.16367 448.29994,751.30324 448.32026,751.58941 L 448.15333,751.58941 L 448.15333,751.58941 z "
       id="path8013"
       mask="none"
       clip-path="none" />
    <path
       style="fill:#171617;fill-rule:nonzero;stroke:none"
       d="M 448.51368,751.18576 L 448.69208,751.18576 L 448.69208,752.59892 L 448.51368,752.59892 L 448.51368,751.18576 L 448.51368,751.18576 z "
       id="path8015"
       mask="none"
       clip-path="none" />
    <path
       style="fill:#171617;fill-rule:nonzero;stroke:none"
       d="M 449.61151,751.16367 C 450.09021,751.16367 450.35959,751.54259 450.35959,751.89145 C 450.35959,752.24208 450.09021,752.61921 449.61151,752.61921 C 449.13193,752.61921 448.86343,752.24208 448.86343,751.89145 C 448.86343,751.54259 449.13193,751.16367 449.61151,751.16367 L 449.61151,751.16367 z M 449.61151,752.45407 C 449.89856,752.45407 450.17059,752.22621 450.17059,751.89145 C 450.17059,751.55846 449.89856,751.3306 449.61151,751.3306 C 449.32361,751.3306 449.05156,751.55846 449.05156,751.89145 C 449.05156,752.22621 449.32361,752.45407 449.61151,752.45407 L 449.61151,752.45407 z "
       id="path8017"
       mask="none"
       clip-path="none" />
    <path
       style="fill:#171617;fill-rule:nonzero;stroke:none"
       d="M 451.44153,751.18576 L 451.61906,751.18576 L 451.61906,752.59892 L 451.45211,752.59892 L 450.69435,751.50636 L 450.6908,751.50636 L 450.6908,752.59892 L 450.51238,752.59892 L 450.51238,751.18576 L 450.67931,751.18576 L 451.4371,752.27831 L 451.44153,752.27831 L 451.44153,751.18576 L 451.44153,751.18576 z "
       id="path8019"
       mask="none"
       clip-path="none" />
    <text
       id="text11091"
       transform="matrix(0.9975003,7.0662598e-2,-7.0662598e-2,0.9975003,0,0)"
       x="-152.35982"
       y="966.48773"
       style="font-size:12px">
      <tspan
         id="tspan11093"
         x="832.19122"
         y="304.18372"
         letter-spacing="0"
         font-size="9.40752"
         style="font-size:9.40752029px;letter-spacing:0;fill:#ffffff;fill-rule:nonzero;stroke:none;font-family:font3" />
    </text>
    <text
       id="text11123"
       transform="matrix(0.9975003,7.0662598e-2,-7.0662598e-2,0.9975003,0,0)"
       x="-152.35982"
       y="966.48773"
       style="font-size:12px">
      <tspan
         id="tspan11125"
         x="926.18024"
         y="304.18372"
         letter-spacing="0"
         font-size="9.40752"
         style="font-size:9.40752029px;letter-spacing:0;fill:#ffffff;fill-rule:nonzero;stroke:none;font-family:font3" />
    </text>
  </g>
</svg>
