<?xml version="1.0" encoding="UTF-8" standalone="yes"?>
<svg xmlns="http://www.w3.org/2000/svg" xmlns:xlink="http://www.w3.org/1999/xlink" width="245.33333333333331px" height="106.66666666666666px" viewBox="0 0 184 80" version="1.1">
  <g id="surface1">
    <path style=" stroke:none;fill-rule:nonzero;fill:rgb(72.156863%,0%,21.176471%);fill-opacity:1;" d="M 61.238281 38.726562 L 52.355469 53.875 L 45.40625 53.875 L 57.820312 33.015625 L 46.199219 13.1875 L 53.152344 13.1875 L 61.238281 27.304688 L 69.324219 13.1875 L 76.277344 13.1875 L 64.65625 33.015625 L 77.070312 53.875 L 70.121094 53.875 Z M 61.238281 38.726562 "/>
    <path style=" stroke:none;fill-rule:nonzero;fill:rgb(72.156863%,0%,21.176471%);fill-opacity:1;" d="M 79.179688 13.1875 L 105.09375 13.1875 L 105.09375 19.015625 L 85.332031 19.015625 L 85.332031 30.617188 L 102.191406 30.617188 L 102.191406 36.101562 L 85.332031 36.101562 L 85.332031 48.050781 L 105.09375 48.050781 L 105.09375 53.875 L 79.179688 53.875 Z M 79.179688 13.1875 "/>
    <path style=" stroke:none;fill-rule:nonzero;fill:rgb(72.156863%,0%,21.176471%);fill-opacity:1;" d="M 110.789062 43.984375 C 113.863281 46.445312 117.964844 48.050781 122.292969 48.050781 C 127.308594 48.050781 130.320312 45.753906 130.320312 42.390625 C 130.320312 39.53125 128.675781 37.359375 125.027344 36.902344 C 123.203125 36.667969 121.777344 36.445312 119.671875 36.15625 C 112.667969 35.191406 108.90625 30.617188 108.90625 24.726562 C 108.90625 17.757812 113.75 12.847656 122.125 12.847656 C 127.128906 12.847656 131.578125 14.617188 135.277344 17.070312 L 131.859375 22.15625 C 128.902344 20.265625 125.429688 19.015625 121.839844 19.015625 C 118.078125 19.015625 115.0625 20.957031 115.0625 24.839844 C 115.0625 27.125 116.714844 29.417969 120.808594 30.042969 C 121.898438 30.210938 123.4375 30.445312 125.371094 30.667969 C 132.941406 31.582031 136.476562 36.847656 136.476562 42.390625 C 136.476562 49.875 130.949219 54.210938 122.238281 54.210938 C 116.257812 54.210938 111.019531 52.390625 106.746094 48.621094 Z M 110.789062 43.984375 "/>
    <path style=" stroke:none;fill-rule:nonzero;fill:rgb(72.156863%,0%,21.176471%);fill-opacity:1;" d="M 141.886719 43.984375 C 144.957031 46.445312 149.058594 48.050781 153.394531 48.050781 C 158.402344 48.050781 161.414062 45.753906 161.414062 42.390625 C 161.414062 39.53125 159.773438 37.359375 156.128906 36.902344 C 154.300781 36.667969 152.878906 36.445312 150.769531 36.15625 C 143.765625 35.191406 140.007812 30.617188 140.007812 24.726562 C 140.007812 17.757812 144.84375 12.847656 153.226562 12.847656 C 158.234375 12.847656 162.675781 14.617188 166.378906 17.070312 L 162.960938 22.15625 C 159.996094 20.265625 156.523438 19.015625 152.9375 19.015625 C 149.179688 19.015625 146.15625 20.957031 146.15625 24.839844 C 146.15625 27.125 147.8125 29.417969 151.914062 30.042969 C 152.992188 30.210938 154.53125 30.445312 156.464844 30.667969 C 164.042969 31.582031 167.574219 36.847656 167.574219 42.390625 C 167.574219 49.875 162.050781 54.210938 153.332031 54.210938 C 147.351562 54.210938 142.113281 52.390625 137.84375 48.621094 Z M 141.886719 43.984375 "/>
    <path style=" stroke:none;fill-rule:nonzero;fill:rgb(72.156863%,0%,21.176471%);fill-opacity:1;" d="M 38.222656 13.167969 L 8.601562 53.886719 L 15.132812 53.886719 L 21.738281 44.832031 L 37.246094 44.832031 L 37.269531 53.886719 L 43.410156 53.886719 L 43.40625 13.167969 Z M 25.792969 39.296875 L 37.269531 23.570312 L 37.269531 39.296875 Z M 25.792969 39.296875 "/>
    <path style=" stroke:none;fill-rule:nonzero;fill:rgb(9.019608%,8.627451%,9.019608%);fill-opacity:1;" d="M 110.746094 60.511719 L 108.582031 60.511719 L 108.582031 59.480469 L 114.003906 59.480469 L 114.003906 60.511719 L 111.839844 60.511719 L 111.839844 68.175781 L 110.746094 68.175781 Z M 110.746094 60.511719 "/>
    <path style=" stroke:none;fill-rule:nonzero;fill:rgb(9.019608%,8.627451%,9.019608%);fill-opacity:1;" d="M 114.765625 59.480469 L 119.242188 59.480469 L 119.242188 60.511719 L 115.859375 60.511719 L 115.859375 63.265625 L 119.242188 63.265625 L 119.242188 64.300781 L 115.859375 64.300781 L 115.859375 67.144531 L 119.242188 67.144531 L 119.242188 68.175781 L 114.765625 68.175781 Z M 114.765625 59.480469 "/>
    <path style=" stroke:none;fill-rule:nonzero;fill:rgb(9.019608%,8.627451%,9.019608%);fill-opacity:1;" d="M 120.679688 59.480469 L 121.773438 59.480469 L 121.773438 67.144531 L 124.816406 67.144531 L 124.816406 68.175781 L 120.679688 68.175781 Z M 120.679688 59.480469 "/>
    <path style=" stroke:none;fill-rule:nonzero;fill:rgb(9.019608%,8.627451%,9.019608%);fill-opacity:1;" d="M 125.726562 59.480469 L 130.203125 59.480469 L 130.203125 60.511719 L 126.816406 60.511719 L 126.816406 63.265625 L 130.203125 63.265625 L 130.203125 64.300781 L 126.816406 64.300781 L 126.816406 67.144531 L 130.203125 67.144531 L 130.203125 68.175781 L 125.726562 68.175781 Z M 125.726562 59.480469 "/>
    <path style=" stroke:none;fill-rule:nonzero;fill:rgb(9.019608%,8.627451%,9.019608%);fill-opacity:1;" d="M 136.9375 59.480469 L 138.09375 59.480469 L 134.894531 68.175781 L 133.984375 68.175781 L 130.78125 59.480469 L 131.945312 59.480469 L 134.425781 66.425781 L 134.449219 66.425781 Z M 136.9375 59.480469 "/>
    <path style=" stroke:none;fill-rule:nonzero;fill:rgb(9.019608%,8.627451%,9.019608%);fill-opacity:1;" d="M 138.695312 59.480469 L 139.789062 59.480469 L 139.789062 68.175781 L 138.695312 68.175781 Z M 138.695312 59.480469 "/>
    <path style=" stroke:none;fill-rule:nonzero;fill:rgb(9.019608%,8.627451%,9.019608%);fill-opacity:1;" d="M 145.304688 61.964844 C 145.160156 60.9375 144.5625 60.3125 143.640625 60.3125 C 142.414062 60.3125 142.082031 61.113281 142.082031 61.707031 C 142.082031 62.363281 142.492188 62.773438 143.347656 63.097656 L 144.445312 63.5 C 145.820312 64.023438 146.457031 64.832031 146.457031 65.882812 C 146.457031 67.296875 145.34375 68.300781 143.679688 68.300781 C 142.101562 68.300781 140.988281 67.472656 140.851562 65.734375 L 141.945312 65.734375 C 142.03125 66.6875 142.515625 67.34375 143.734375 67.34375 C 144.683594 67.34375 145.363281 66.742188 145.363281 65.980469 C 145.363281 65.300781 144.804688 64.871094 144.019531 64.554688 L 142.910156 64.121094 C 141.625 63.621094 140.988281 62.867188 140.988281 61.75 C 140.988281 60.246094 142.226562 59.34375 143.652344 59.34375 C 145.089844 59.34375 146.203125 60.203125 146.328125 61.964844 Z M 145.304688 61.964844 "/>
    <path style=" stroke:none;fill-rule:nonzero;fill:rgb(9.019608%,8.627451%,9.019608%);fill-opacity:1;" d="M 147.515625 59.480469 L 148.609375 59.480469 L 148.609375 68.175781 L 147.515625 68.175781 Z M 147.515625 59.480469 "/>
    <path style=" stroke:none;fill-rule:nonzero;fill:rgb(9.019608%,8.627451%,9.019608%);fill-opacity:1;" d="M 154.25 59.34375 C 157.183594 59.34375 158.835938 61.675781 158.835938 63.820312 C 158.835938 65.980469 157.183594 68.300781 154.25 68.300781 C 151.308594 68.300781 149.660156 65.980469 149.660156 63.820312 C 149.660156 61.675781 151.308594 59.34375 154.25 59.34375 Z M 154.25 67.285156 C 156.007812 67.285156 157.675781 65.882812 157.675781 63.820312 C 157.675781 61.773438 156.007812 60.371094 154.25 60.371094 C 152.484375 60.371094 150.8125 61.773438 150.8125 63.820312 C 150.8125 65.882812 152.484375 67.285156 154.25 67.285156 Z M 154.25 67.285156 "/>
    <path style=" stroke:none;fill-rule:nonzero;fill:rgb(9.019608%,8.627451%,9.019608%);fill-opacity:1;" d="M 165.472656 59.480469 L 166.5625 59.480469 L 166.5625 68.175781 L 165.539062 68.175781 L 160.890625 61.453125 L 160.867188 61.453125 L 160.867188 68.175781 L 159.773438 68.175781 L 159.773438 59.480469 L 160.796875 59.480469 L 165.445312 66.203125 L 165.472656 66.203125 Z M 165.472656 59.480469 "/>
  </g>
</svg>