<?xml version="1.0" encoding="UTF-8" standalone="yes"?>
<svg xmlns="http://www.w3.org/2000/svg" xmlns:xlink="http://www.w3.org/1999/xlink" width="437.3333333333333px" height="106.66666666666666px" viewBox="0 0 328 80" version="1.1">
  <g id="surface1">
    <path style=" stroke:none;fill-rule:nonzero;fill:rgb(100%,100%,100%);fill-opacity:1;" d="M 321.71875 5.773438 C 321.71875 10.894531 321.71875 68.929688 321.71875 74.046875 C 316.109375 74.046875 11.371094 74.046875 5.765625 74.046875 C 5.765625 68.929688 5.765625 10.894531 5.765625 5.773438 C 11.371094 5.773438 316.109375 5.773438 321.71875 5.773438 Z M 324.601562 0 L 0 0 L 0 79.828125 L 327.484375 79.828125 L 327.484375 0 L 324.601562 0 "/>
    <path style=" stroke:none;fill-rule:nonzero;fill:rgb(92.941176%,10.588235%,17.647059%);fill-opacity:1;" d="M 163.179688 25.136719 L 185.410156 2.886719 L 2.882812 2.847656 L 2.882812 76.9375 L 99.589844 76.9375 L 149.5625 35.859375 "/>
    <path style=" stroke:none;fill-rule:nonzero;fill:rgb(92.941176%,10.588235%,17.647059%);fill-opacity:1;" d="M 163.179688 47.070312 L 131.757812 76.9375 L 324.601562 76.890625 L 324.601562 2.886719 L 216.390625 2.886719 L 175.820312 35.859375 M 308.117188 62.667969 L 246.832031 31.476562 L 246.832031 60.71875 L 231.269531 60.71875 L 231.269531 11.003906 L 293.039062 43.65625 L 293.039062 14.414062 L 308.117188 14.414062 L 308.117188 62.667969 "/>
    <path style=" stroke:none;fill-rule:nonzero;fill:rgb(100%,100%,100%);fill-opacity:1;" d="M 147.96875 10.238281 L 121.703125 10.238281 L 149.5625 35.859375 L 104.058594 75.261719 L 132.824219 75.921875 L 163.179688 47.070312 L 177.398438 60.804688 L 203.660156 60.804688 L 175.820312 35.859375 L 212.203125 4.570312 L 185.980469 4.570312 L 163.179688 25.136719 L 147.96875 10.238281 "/>
    <path style=" stroke:none;fill-rule:nonzero;fill:rgb(100%,100%,100%);fill-opacity:1;" d="M 208.308594 6.015625 C 203.324219 10.304688 173.636719 35.835938 173.636719 35.835938 C 173.636719 35.835938 195.339844 55.285156 199.886719 59.359375 C 194.496094 59.359375 178.929688 59.359375 177.980469 59.359375 C 177.191406 58.597656 163.1875 45.070312 163.1875 45.070312 C 163.1875 45.070312 133.105469 73.667969 132.265625 74.464844 C 131.28125 74.441406 113.359375 74.03125 107.832031 73.902344 C 112.8125 69.59375 151.726562 35.890625 151.726562 35.890625 C 151.726562 35.890625 129.84375 15.761719 125.40625 11.679688 C 130.730469 11.679688 146.421875 11.679688 147.378906 11.679688 C 148.175781 12.457031 163.140625 27.117188 163.140625 27.117188 C 163.140625 27.117188 185.738281 6.730469 186.53125 6.015625 C 187.429688 6.015625 202.804688 6.015625 208.308594 6.015625 Z M 212.203125 3.125 L 185.425781 3.125 C 185.425781 3.125 165.058594 21.5 163.222656 23.15625 C 161.527344 21.496094 148.554688 8.789062 148.554688 8.789062 L 118.003906 8.789062 C 118.003906 8.789062 145.210938 33.816406 147.394531 35.828125 C 145.074219 37.835938 100.28125 76.621094 100.28125 76.621094 L 133.390625 77.378906 C 133.390625 77.378906 161.300781 50.84375 163.171875 49.070312 C 164.886719 50.726562 176.816406 62.25 176.816406 62.25 L 207.433594 62.25 C 207.433594 62.25 180.25 37.890625 178.007812 35.882812 C 180.335938 33.878906 216.09375 3.125 216.09375 3.125 L 212.203125 3.125 "/>
    <path style=" stroke:none;fill-rule:nonzero;fill:rgb(100%,100%,100%);fill-opacity:1;" d="M 231.269531 11.003906 L 231.269531 60.71875 L 246.832031 60.71875 L 246.832031 31.476562 L 308.117188 62.667969 L 308.117188 14.414062 L 293.039062 14.414062 L 293.039062 43.65625 L 231.269531 11.003906 "/>
    <path style=" stroke:none;fill-rule:nonzero;fill:rgb(100%,100%,100%);fill-opacity:1;" d="M 232.714844 13.398438 C 236.65625 15.480469 294.476562 46.054688 294.476562 46.054688 C 294.476562 46.054688 294.476562 18.46875 294.476562 15.859375 C 296.585938 15.859375 304.566406 15.859375 306.679688 15.859375 C 306.679688 18.441406 306.679688 56.1875 306.679688 60.316406 C 302.773438 58.328125 245.390625 29.121094 245.390625 29.121094 C 245.390625 29.121094 245.390625 56.664062 245.390625 59.273438 C 243.257812 59.273438 234.847656 59.273438 232.714844 59.273438 C 232.714844 56.6875 232.714844 17.605469 232.714844 13.398438 Z M 229.832031 11.003906 L 229.832031 62.164062 L 248.273438 62.164062 C 248.273438 62.164062 248.273438 37.808594 248.273438 33.828125 C 252.179688 35.816406 309.558594 65.023438 309.558594 65.023438 L 309.558594 12.972656 L 291.59375 12.972656 C 291.59375 12.972656 291.59375 37.226562 291.59375 41.261719 C 287.65625 39.179688 229.832031 8.609375 229.832031 8.609375 L 229.832031 11.003906 "/>
    <path style=" stroke:none;fill-rule:nonzero;fill:rgb(100%,100%,100%);fill-opacity:1;" d="M 61.308594 10.238281 L 17.300781 60.640625 L 32.800781 60.640625 L 42.082031 50.480469 L 80.507812 50.480469 L 88.773438 60.71875 L 104.167969 60.71875 L 61.308594 10.238281 "/>
    <path style=" stroke:none;fill-rule:nonzero;fill:rgb(100%,100%,100%);fill-opacity:1;" d="M 61.296875 12.445312 C 63.253906 14.75 97.480469 55.066406 101.050781 59.273438 C 97.308594 59.273438 90.449219 59.273438 89.460938 59.273438 C 88.683594 58.3125 81.195312 49.035156 81.195312 49.035156 L 41.445312 49.035156 C 41.445312 49.035156 32.945312 58.34375 32.164062 59.195312 C 31.25 59.195312 24.285156 59.195312 20.476562 59.195312 C 24.167969 54.964844 59.304688 14.722656 61.296875 12.445312 Z M 60.226562 9.285156 L 14.121094 62.085938 L 33.4375 62.085938 C 33.4375 62.085938 41.9375 52.777344 42.714844 51.921875 C 43.921875 51.921875 78.515625 51.921875 79.820312 51.921875 C 80.59375 52.890625 88.082031 62.164062 88.082031 62.164062 L 107.289062 62.164062 L 61.324219 8.023438 L 60.226562 9.285156 "/>
    <path style=" stroke:none;fill-rule:nonzero;fill:rgb(92.941176%,10.588235%,17.647059%);fill-opacity:1;" d="M 61 26.316406 L 47.742188 41.21875 L 74.132812 41.21875 L 61 26.316406 "/>
    <path style=" stroke:none;fill-rule:nonzero;fill:rgb(100%,100%,100%);fill-opacity:1;" d="M 321.71875 5.773438 C 321.71875 10.894531 321.71875 68.929688 321.71875 74.046875 C 316.109375 74.046875 11.371094 74.046875 5.765625 74.046875 C 5.765625 68.929688 5.765625 10.894531 5.765625 5.773438 C 11.371094 5.773438 316.109375 5.773438 321.71875 5.773438 Z M 324.601562 0 L 0 0 L 0 79.828125 L 327.484375 79.828125 L 327.484375 0 L 324.601562 0 "/>
    <path style=" stroke:none;fill-rule:nonzero;fill:rgb(92.941176%,10.588235%,17.647059%);fill-opacity:1;" d="M 163.179688 25.136719 L 185.410156 2.886719 L 2.882812 2.847656 L 2.882812 76.9375 L 99.589844 76.9375 L 149.5625 35.859375 "/>
    <path style=" stroke:none;fill-rule:nonzero;fill:rgb(92.941176%,10.588235%,17.647059%);fill-opacity:1;" d="M 163.179688 47.070312 L 131.757812 76.9375 L 324.601562 76.890625 L 324.601562 2.886719 L 216.390625 2.886719 L 175.820312 35.859375 M 308.117188 62.667969 L 246.832031 31.476562 L 246.832031 60.71875 L 231.269531 60.71875 L 231.269531 11.003906 L 293.039062 43.65625 L 293.039062 14.414062 L 308.117188 14.414062 L 308.117188 62.667969 "/>
    <path style=" stroke:none;fill-rule:nonzero;fill:rgb(100%,100%,100%);fill-opacity:1;" d="M 147.96875 10.238281 L 121.703125 10.238281 L 149.5625 35.859375 L 104.058594 75.261719 L 132.824219 75.921875 L 163.179688 47.070312 L 177.398438 60.804688 L 203.660156 60.804688 L 175.820312 35.859375 L 212.203125 4.570312 L 185.980469 4.570312 L 163.179688 25.136719 L 147.96875 10.238281 "/>
    <path style=" stroke:none;fill-rule:nonzero;fill:rgb(100%,100%,100%);fill-opacity:1;" d="M 208.308594 6.015625 C 203.324219 10.304688 173.636719 35.835938 173.636719 35.835938 C 173.636719 35.835938 195.339844 55.285156 199.886719 59.359375 C 194.496094 59.359375 178.929688 59.359375 177.980469 59.359375 C 177.191406 58.597656 163.1875 45.070312 163.1875 45.070312 C 163.1875 45.070312 133.105469 73.667969 132.265625 74.464844 C 131.28125 74.441406 113.359375 74.03125 107.832031 73.902344 C 112.8125 69.59375 151.726562 35.890625 151.726562 35.890625 C 151.726562 35.890625 129.84375 15.761719 125.40625 11.679688 C 130.730469 11.679688 146.421875 11.679688 147.378906 11.679688 C 148.175781 12.457031 163.140625 27.117188 163.140625 27.117188 C 163.140625 27.117188 185.738281 6.730469 186.53125 6.015625 C 187.429688 6.015625 202.804688 6.015625 208.308594 6.015625 Z M 212.203125 3.125 L 185.425781 3.125 C 185.425781 3.125 165.058594 21.5 163.222656 23.15625 C 161.527344 21.496094 148.554688 8.789062 148.554688 8.789062 L 118.003906 8.789062 C 118.003906 8.789062 145.210938 33.816406 147.394531 35.828125 C 145.074219 37.835938 100.28125 76.621094 100.28125 76.621094 L 133.390625 77.378906 C 133.390625 77.378906 161.300781 50.84375 163.171875 49.070312 C 164.886719 50.726562 176.816406 62.25 176.816406 62.25 L 207.433594 62.25 C 207.433594 62.25 180.25 37.890625 178.007812 35.882812 C 180.335938 33.878906 216.09375 3.125 216.09375 3.125 L 212.203125 3.125 "/>
    <path style=" stroke:none;fill-rule:nonzero;fill:rgb(100%,100%,100%);fill-opacity:1;" d="M 231.269531 11.003906 L 231.269531 60.71875 L 246.832031 60.71875 L 246.832031 31.476562 L 308.117188 62.667969 L 308.117188 14.414062 L 293.039062 14.414062 L 293.039062 43.65625 L 231.269531 11.003906 "/>
    <path style=" stroke:none;fill-rule:nonzero;fill:rgb(100%,100%,100%);fill-opacity:1;" d="M 232.714844 13.398438 C 236.65625 15.480469 294.476562 46.054688 294.476562 46.054688 C 294.476562 46.054688 294.476562 18.46875 294.476562 15.859375 C 296.585938 15.859375 304.566406 15.859375 306.679688 15.859375 C 306.679688 18.441406 306.679688 56.1875 306.679688 60.316406 C 302.773438 58.328125 245.390625 29.121094 245.390625 29.121094 C 245.390625 29.121094 245.390625 56.664062 245.390625 59.273438 C 243.257812 59.273438 234.847656 59.273438 232.714844 59.273438 C 232.714844 56.6875 232.714844 17.605469 232.714844 13.398438 Z M 229.832031 11.003906 L 229.832031 62.164062 L 248.273438 62.164062 C 248.273438 62.164062 248.273438 37.808594 248.273438 33.828125 C 252.179688 35.816406 309.558594 65.023438 309.558594 65.023438 L 309.558594 12.972656 L 291.59375 12.972656 C 291.59375 12.972656 291.59375 37.226562 291.59375 41.261719 C 287.65625 39.179688 229.832031 8.609375 229.832031 8.609375 L 229.832031 11.003906 "/>
    <path style=" stroke:none;fill-rule:nonzero;fill:rgb(100%,100%,100%);fill-opacity:1;" d="M 61.308594 10.238281 L 17.300781 60.640625 L 32.800781 60.640625 L 42.082031 50.480469 L 80.507812 50.480469 L 88.773438 60.71875 L 104.167969 60.71875 L 61.308594 10.238281 "/>
    <path style=" stroke:none;fill-rule:nonzero;fill:rgb(100%,100%,100%);fill-opacity:1;" d="M 61.296875 12.445312 C 63.253906 14.75 97.480469 55.066406 101.050781 59.273438 C 97.308594 59.273438 90.449219 59.273438 89.460938 59.273438 C 88.683594 58.3125 81.195312 49.035156 81.195312 49.035156 L 41.445312 49.035156 C 41.445312 49.035156 32.945312 58.34375 32.164062 59.195312 C 31.25 59.195312 24.285156 59.195312 20.476562 59.195312 C 24.167969 54.964844 59.304688 14.722656 61.296875 12.445312 Z M 60.226562 9.285156 L 14.121094 62.085938 L 33.4375 62.085938 C 33.4375 62.085938 41.9375 52.777344 42.714844 51.921875 C 43.921875 51.921875 78.515625 51.921875 79.820312 51.921875 C 80.59375 52.890625 88.082031 62.164062 88.082031 62.164062 L 107.289062 62.164062 L 61.324219 8.023438 L 60.226562 9.285156 "/>
    <path style=" stroke:none;fill-rule:nonzero;fill:rgb(92.941176%,10.588235%,17.647059%);fill-opacity:1;" d="M 61 26.316406 L 47.742188 41.21875 L 74.132812 41.21875 L 61 26.316406 "/>
  </g>
</svg>