<?xml version="1.0" encoding="UTF-8" standalone="no"?>
<!-- Created with Inkscape (http://www.inkscape.org/) -->

<svg
   xmlns:dc="http://purl.org/dc/elements/1.1/"
   xmlns:cc="http://creativecommons.org/ns#"
   xmlns:rdf="http://www.w3.org/1999/02/22-rdf-syntax-ns#"
   xmlns:svg="http://www.w3.org/2000/svg"
   xmlns="http://www.w3.org/2000/svg"
   xmlns:sodipodi="http://sodipodi.sourceforge.net/DTD/sodipodi-0.dtd"
   xmlns:inkscape="http://www.inkscape.org/namespaces/inkscape"
   width="262.58499"
   height="63.861252"
   id="svg2"
   version="1.1"
   inkscape:version="0.47 r22583"
   sodipodi:docname="New document 1">
  <defs
     id="defs4">
    <inkscape:perspective
       sodipodi:type="inkscape:persp3d"
       inkscape:vp_x="0 : 526.18109 : 1"
       inkscape:vp_y="0 : 1000 : 0"
       inkscape:vp_z="744.09448 : 526.18109 : 1"
       inkscape:persp3d-origin="372.04724 : 350.78739 : 1"
       id="perspective10" />
    <clipPath
       id="clipPath4188"
       clipPathUnits="userSpaceOnUse">
      <path
         id="path4190"
         d="m 93.964,514.785 103.889,0 0,-112.25 -103.889,0 0,112.25 z" />
    </clipPath>
    <clipPath
       id="clipPath4076"
       clipPathUnits="userSpaceOnUse">
      <path
         id="path4078"
         d="m 197.853,514.785 103.887,0 0,-112.25 -103.887,0 0,112.25 z" />
    </clipPath>
    <clipPath
       id="clipPath4070"
       clipPathUnits="userSpaceOnUse">
      <path
         id="path4072"
         d="m 165.934,518.467 171.879,-3.939 -3.719,-162.426 -171.879,3.939" />
    </clipPath>
    <clipPath
       id="clipPath3702"
       clipPathUnits="userSpaceOnUse">
      <path
         id="path3704"
         d="m 301.74,514.785 103.888,0 0,-112.25 -103.888,0 0,112.25 z" />
    </clipPath>
    <clipPath
       id="clipPath2832"
       clipPathUnits="userSpaceOnUse">
      <path
         id="path2834"
         d="m 64.875,937.628 595.276,0 0,-841.89 -595.276,0 0,841.89 z" />
    </clipPath>
    <inkscape:perspective
       id="perspective2824"
       inkscape:persp3d-origin="0.5 : 0.33333333 : 1"
       inkscape:vp_z="1 : 0.5 : 1"
       inkscape:vp_y="0 : 1000 : 0"
       inkscape:vp_x="0 : 0.5 : 1"
       sodipodi:type="inkscape:persp3d" />
  </defs>
  <sodipodi:namedview
     id="base"
     pagecolor="#ffffff"
     bordercolor="#666666"
     borderopacity="1.0"
     inkscape:pageopacity="0.0"
     inkscape:pageshadow="2"
     inkscape:zoom="1.979899"
     inkscape:cx="182.27968"
     inkscape:cy="-28.060898"
     inkscape:document-units="px"
     inkscape:current-layer="layer1"
     showgrid="false"
     inkscape:window-width="1680"
     inkscape:window-height="1000"
     inkscape:window-x="-8"
     inkscape:window-y="-8"
     inkscape:window-maximized="1" />
  <metadata
     id="metadata7">
    <rdf:RDF>
      <cc:Work
         rdf:about="">
        <dc:format>image/svg+xml</dc:format>
        <dc:type
           rdf:resource="http://purl.org/dc/dcmitype/StillImage" />
        <dc:title></dc:title>
      </cc:Work>
    </rdf:RDF>
  </metadata>
  <g
     inkscape:label="Layer 1"
     inkscape:groupmode="layer"
     id="layer1"
     transform="translate(-256.32375,-259.01036)">
    <g
       id="g2984"
       transform="matrix(1.25,0,0,-1.25,514.2875,263.62911)">
      <path
         d="m 0,0 c 0,-3.277 0,-40.421 0,-43.696 -3.598,0 -199.076,0 -202.673,0 0,3.275 0,40.419 0,43.696 C -199.076,0 -3.598,0 0,0 z m 1.848,3.695 -208.219,0 0,-51.089 210.068,0 0,51.089 -1.849,0"
         style="fill:#ffffff;fill-opacity:1;fill-rule:nonzero;stroke:none"
         id="path2986" />
    </g>
    <g
       id="g2988"
       transform="matrix(1.25,0,0,-1.25,387.16625,279.12036)">
      <path
         d="m 0,0 14.26,14.241 -117.086,0.024 0,-47.417 62.035,0 32.057,26.291"
         style="fill:#ed1b2d;fill-opacity:1;fill-rule:nonzero;stroke:none"
         id="path2990" />
    </g>
    <g
       id="g2992"
       transform="matrix(1.25,0,0,-1.25,387.16625,296.66536)">
      <path
         d="m 0,0 -20.156,-19.116 123.701,0.03 0,47.363 -69.412,0 L 8.109,7.175 M 92.973,-9.984 53.66,9.979 l 0,-18.715 -9.982,0 0,31.818 39.621,-20.898 0,18.714 9.674,0 0,-30.882"
         style="fill:#ed1b2d;fill-opacity:1;fill-rule:nonzero;stroke:none"
         id="path2994" />
    </g>
    <g
       id="g2996"
       transform="matrix(1.25,0,0,-1.25,374.96875,267.20036)">
      <path
         d="m 0,0 -16.847,0 17.871,-16.397 -29.19,-25.219 18.453,-0.422 19.471,18.466 9.121,-8.79 16.846,0 -17.858,15.965 23.338,20.023 -16.822,0 L 9.758,-9.536 0,0"
         style="fill:#ffffff;fill-opacity:1;fill-rule:nonzero;stroke:none"
         id="path2998" />
    </g>
    <g
       id="g3000"
       transform="matrix(1.25,0,0,-1.25,423.3525,263.82286)">
      <path
         d="m 0,0 c -3.199,-2.746 -22.242,-19.085 -22.242,-19.085 0,0 13.922,-12.447 16.84,-15.054 -3.459,0 -13.443,0 -14.053,0 -0.506,0.486 -9.488,9.144 -9.488,9.144 0,0 -19.297,-18.303 -19.836,-18.812 -0.633,0.014 -12.129,0.277 -15.674,0.359 3.194,2.759 28.158,24.327 28.158,24.327 0,0 -14.037,12.883 -16.884,15.495 3.414,0 13.48,0 14.095,0 0.51,-0.497 10.11,-9.879 10.11,-9.879 0,0 14.496,13.047 15.004,13.505 0.576,0 10.439,0 13.97,0 z m 2.498,1.849 -17.177,0 c 0,0 -13.065,-11.759 -14.243,-12.819 -1.087,1.063 -9.408,9.194 -9.408,9.194 l -19.597,0 c 0,0 17.451,-16.016 18.853,-17.303 -1.488,-1.285 -30.221,-26.108 -30.221,-26.108 l 21.237,-0.486 c 0,0 17.904,16.982 19.105,18.119 1.1,-1.06 8.752,-8.435 8.752,-8.435 l 19.639,0 c 0,0 -17.436,15.59 -18.875,16.875 1.494,1.282 24.431,20.963 24.431,20.963 l -2.496,0"
         style="fill:#ffffff;fill-opacity:1;fill-rule:nonzero;stroke:none"
         id="path3002" />
    </g>
    <g
       id="g3004"
       transform="matrix(1.25,0,0,-1.25,441.76375,267.81286)">
      <path
         d="m 0,0 0,-31.818 9.982,0 0,18.715 39.313,-19.963 0,30.882 -9.674,0 0,-18.714 L 0,0"
         style="fill:#ffffff;fill-opacity:1;fill-rule:nonzero;stroke:none"
         id="path3006" />
    </g>
    <g
       id="g3008"
       transform="matrix(1.25,0,0,-1.25,442.92125,269.72911)">
      <path
         d="m 0,0 c 2.529,-1.333 39.619,-20.899 39.619,-20.899 0,0 0,17.653 0,19.323 1.351,0 6.472,0 7.826,0 0,-1.652 0,-25.81 0,-28.451 -2.506,1.273 -39.315,19.964 -39.315,19.964 0,0 0,-17.628 0,-19.298 -1.367,0 -6.763,0 -8.13,0 C 0,-27.705 0,-2.692 0,0 z m -1.85,1.533 0,-32.743 11.83,0 c 0,0 0,15.588 0,18.135 2.506,-1.273 39.313,-19.964 39.313,-19.964 l 0,33.312 -11.524,0 c 0,0 0,-15.522 0,-18.106 C 35.242,-16.499 -1.85,3.066 -1.85,3.066 l 0,-1.533"
         style="fill:#ffffff;fill-opacity:1;fill-rule:nonzero;stroke:none"
         id="path3010" />
    </g>
    <g
       id="g3012"
       transform="matrix(1.25,0,0,-1.25,305.48375,267.20036)">
      <path
         d="m 0,0 -28.23,-32.258 9.943,0 5.953,6.502 24.649,0 5.303,-6.552 9.875,0 L 0,0"
         style="fill:#ffffff;fill-opacity:1;fill-rule:nonzero;stroke:none"
         id="path3014" />
    </g>
    <g
       id="g3016"
       transform="matrix(1.25,0,0,-1.25,305.4725,268.96661)">
      <path
         d="m 0,0 c 1.255,-1.475 23.211,-27.277 25.502,-29.971 -2.401,0 -6.801,0 -7.436,0 -0.498,0.615 -5.301,6.553 -5.301,6.553 l -25.498,0 c 0,0 -5.453,-5.958 -5.953,-6.502 -0.588,0 -5.055,0 -7.498,0 C -23.815,-27.212 -1.276,-1.458 0,0 z m -0.686,2.023 -29.574,-33.792 12.389,0 c 0,0 5.453,5.956 5.953,6.503 0.773,0 22.963,0 23.8,0 0.498,-0.618 5.301,-6.554 5.301,-6.554 l 12.319,0 L 0.017,2.829 -0.686,2.023"
         style="fill:#ffffff;fill-opacity:1;fill-rule:nonzero;stroke:none"
         id="path3018" />
    </g>
    <g
       id="g3020"
       transform="matrix(1.25,0,0,-1.25,305.235,280.06286)">
      <path
         d="m 0,0 -8.504,-9.538 16.928,0 L 0,0"
         style="fill:#ed1b2d;fill-opacity:1;fill-rule:nonzero;stroke:none"
         id="path3022" />
    </g>
    <g
       id="g4196"
       transform="matrix(1.25,0,0,-1.25,514.2875,263.62911)">
      <path
         d="m 0,0 c 0,-3.277 0,-40.421 0,-43.696 -3.598,0 -199.076,0 -202.673,0 0,3.275 0,40.419 0,43.696 C -199.076,0 -3.598,0 0,0 z m 1.848,3.695 -208.219,0 0,-51.089 210.068,0 0,51.089 -1.849,0"
         style="fill:#ffffff;fill-opacity:1;fill-rule:nonzero;stroke:none"
         id="path4198" />
    </g>
    <g
       id="g4200"
       transform="matrix(1.25,0,0,-1.25,387.16625,279.12036)">
      <path
         d="m 0,0 14.26,14.241 -117.086,0.024 0,-47.417 62.035,0 32.057,26.291"
         style="fill:#ed1b2d;fill-opacity:1;fill-rule:nonzero;stroke:none"
         id="path4202" />
    </g>
    <g
       id="g4204"
       transform="matrix(1.25,0,0,-1.25,387.16625,296.66536)">
      <path
         d="m 0,0 -20.156,-19.116 123.701,0.03 0,47.363 -69.412,0 L 8.109,7.175 M 92.973,-9.984 53.66,9.979 l 0,-18.715 -9.982,0 0,31.818 39.621,-20.898 0,18.714 9.674,0 0,-30.882"
         style="fill:#ed1b2d;fill-opacity:1;fill-rule:nonzero;stroke:none"
         id="path4206" />
    </g>
    <g
       id="g4208"
       transform="matrix(1.25,0,0,-1.25,374.96875,267.20036)">
      <path
         d="m 0,0 -16.847,0 17.871,-16.397 -29.19,-25.219 18.453,-0.422 19.471,18.466 9.121,-8.79 16.846,0 -17.858,15.965 23.338,20.023 -16.822,0 L 9.758,-9.536 0,0"
         style="fill:#ffffff;fill-opacity:1;fill-rule:nonzero;stroke:none"
         id="path4210" />
    </g>
    <g
       id="g4212"
       transform="matrix(1.25,0,0,-1.25,423.3525,263.82286)">
      <path
         d="m 0,0 c -3.199,-2.746 -22.242,-19.085 -22.242,-19.085 0,0 13.922,-12.447 16.84,-15.054 -3.459,0 -13.443,0 -14.053,0 -0.506,0.486 -9.488,9.144 -9.488,9.144 0,0 -19.297,-18.303 -19.836,-18.812 -0.633,0.014 -12.129,0.277 -15.674,0.359 3.194,2.759 28.158,24.327 28.158,24.327 0,0 -14.037,12.883 -16.884,15.495 3.414,0 13.48,0 14.095,0 0.51,-0.497 10.11,-9.879 10.11,-9.879 0,0 14.496,13.047 15.004,13.505 0.576,0 10.439,0 13.97,0 z m 2.498,1.849 -17.177,0 c 0,0 -13.065,-11.759 -14.243,-12.819 -1.087,1.063 -9.408,9.194 -9.408,9.194 l -19.597,0 c 0,0 17.451,-16.016 18.853,-17.303 -1.488,-1.285 -30.221,-26.108 -30.221,-26.108 l 21.237,-0.486 c 0,0 17.904,16.982 19.105,18.119 1.1,-1.06 8.752,-8.435 8.752,-8.435 l 19.639,0 c 0,0 -17.436,15.59 -18.875,16.875 1.494,1.282 24.431,20.963 24.431,20.963 l -2.496,0"
         style="fill:#ffffff;fill-opacity:1;fill-rule:nonzero;stroke:none"
         id="path4214" />
    </g>
    <g
       id="g4216"
       transform="matrix(1.25,0,0,-1.25,441.76375,267.81286)">
      <path
         d="m 0,0 0,-31.818 9.982,0 0,18.715 39.313,-19.963 0,30.882 -9.674,0 0,-18.714 L 0,0"
         style="fill:#ffffff;fill-opacity:1;fill-rule:nonzero;stroke:none"
         id="path4218" />
    </g>
    <g
       id="g4220"
       transform="matrix(1.25,0,0,-1.25,442.92125,269.72911)">
      <path
         d="m 0,0 c 2.529,-1.333 39.619,-20.899 39.619,-20.899 0,0 0,17.653 0,19.323 1.351,0 6.472,0 7.826,0 0,-1.652 0,-25.81 0,-28.451 -2.506,1.273 -39.315,19.964 -39.315,19.964 0,0 0,-17.628 0,-19.298 -1.367,0 -6.763,0 -8.13,0 C 0,-27.705 0,-2.692 0,0 z m -1.85,1.533 0,-32.743 11.83,0 c 0,0 0,15.588 0,18.135 2.506,-1.273 39.313,-19.964 39.313,-19.964 l 0,33.312 -11.524,0 c 0,0 0,-15.522 0,-18.106 C 35.242,-16.499 -1.85,3.066 -1.85,3.066 l 0,-1.533"
         style="fill:#ffffff;fill-opacity:1;fill-rule:nonzero;stroke:none"
         id="path4222" />
    </g>
    <g
       id="g4224"
       transform="matrix(1.25,0,0,-1.25,305.48375,267.20036)">
      <path
         d="m 0,0 -28.23,-32.258 9.943,0 5.953,6.502 24.649,0 5.303,-6.552 9.875,0 L 0,0"
         style="fill:#ffffff;fill-opacity:1;fill-rule:nonzero;stroke:none"
         id="path4226" />
    </g>
    <g
       id="g4228"
       transform="matrix(1.25,0,0,-1.25,305.4725,268.96661)">
      <path
         d="m 0,0 c 1.255,-1.475 23.211,-27.277 25.502,-29.971 -2.401,0 -6.801,0 -7.436,0 -0.498,0.615 -5.301,6.553 -5.301,6.553 l -25.498,0 c 0,0 -5.453,-5.958 -5.953,-6.502 -0.588,0 -5.055,0 -7.498,0 C -23.815,-27.212 -1.276,-1.458 0,0 z m -0.686,2.023 -29.574,-33.792 12.389,0 c 0,0 5.453,5.956 5.953,6.503 0.773,0 22.963,0 23.8,0 0.498,-0.618 5.301,-6.554 5.301,-6.554 l 12.319,0 L 0.017,2.829 -0.686,2.023"
         style="fill:#ffffff;fill-opacity:1;fill-rule:nonzero;stroke:none"
         id="path4230" />
    </g>
    <g
       id="g4232"
       transform="matrix(1.25,0,0,-1.25,305.235,280.06286)">
      <path
         d="m 0,0 -8.504,-9.538 16.928,0 L 0,0"
         style="fill:#ed1b2d;fill-opacity:1;fill-rule:nonzero;stroke:none"
         id="path4234" />
    </g>
  </g>
</svg>
