<?xml version="1.0" encoding="UTF-8" standalone="no"?>

<svg
   xmlns:dc="http://purl.org/dc/elements/1.1/"
   xmlns:cc="http://creativecommons.org/ns#"
   xmlns:rdf="http://www.w3.org/1999/02/22-rdf-syntax-ns#"
   xmlns:svg="http://www.w3.org/2000/svg"
   xmlns="http://www.w3.org/2000/svg"
   xmlns:sodipodi="http://sodipodi.sourceforge.net/DTD/sodipodi-0.dtd"
   xmlns:inkscape="http://www.inkscape.org/namespaces/inkscape"
   version="1.1"
   id="Layer_1"
   x="0px"
   y="0px"
   width="700"
   height="350"
   viewBox="0 0 700.00001 350.00001"
   enable-background="new 0 0 510.236 226.771"
   xml:space="preserve">

<polygon
   id="polygon9"
   points="308.444,62.767 309.781,62.382 311.057,62.39 312.157,63.422 313.373,63.762 314.711,63.425 316.028,63.217 317.191,63.842 318.348,64.483 319.807,63.584 320.748,65.277 322.144,64.729 323.272,65.464 324.673,64.934 325.772,65.797 327.122,65.524 328.273,66.139 329.584,66.063 330.539,67.479 332.006,66.768 333.375,66.48 334.596,66.778 335.764,67.278 336.774,68.372 337.841,69.225 339.294,68.659 340.248,69.91 341.848,68.867 342.901,69.754 344.134,70.022 345.227,70.753 346.646,70.415 347.604,71.573 348.828,71.869 350.15,71.874 351.122,72.943 352.467,72.893 353.929,72.53 354.626,74.343 355.901,74.508 357.302,74.353 358.653,74.347 359.387,75.958 360.523,76.503 362.115,75.92 363.065,76.936 364.053,77.836 365.25,78.237 366.567,78.37 367.853,78.591 368.996,79.132 369.924,80.125 371.359,80.061 372.522,80.568 373.165,82.086 374.771,81.736 376,82.133 376.578,83.701 377.908,83.912 378.669,85.107 380.338,84.783 380.979,86.146 382.152,86.652 383.283,87.232 384.419,87.812 385.067,89.078 386.526,89.222 387.188,90.438 388.21,91.175 389.391,91.726 390.67,92.184 391.485,93.185 392.375,94.095 393.074,95.194 394.167,95.898 395.056,96.811 396.163,97.537 396.57,98.861 396.725,100.341 397.576,101.261 399.267,101.626 399.429,103.042 400.46,103.907 400.132,105.532 401.887,106.06 402.301,107.287 401.641,108.932 403.075,109.74 403.229,111.031 402.721,112.478 403.977,113.464 404.441,114.675 404.177,116.006 403.484,117.34 404.222,118.532 404.134,119.791 404.605,121.054 404.865,122.339 404.273,123.568 404.881,124.922 404.188,126.112 402.854,127.131 403.324,128.515 403.492,129.874 402.003,130.725 402.901,132.379 401.18,133.052 401.337,134.484 400.994,135.725 400.811,137.071 400.085,138.136 398.33,138.533 398.461,140.125 396.835,140.51 396.211,141.591 396.066,143.081 395.725,144.457 393.875,144.5 393.565,145.93 392.773,146.925 391.919,147.865 390.982,148.719 389.774,149.263 389.037,150.342 388.23,151.359 386.621,151.354 385.972,152.58 385.022,153.421 383.946,154.088 383.051,155.019 382.049,155.805 380.838,156.261 379.487,156.475 378.698,157.606 377.093,157.355 376.065,158.08 375.059,158.852 373.896,159.339 372.736,159.828 371.807,160.763 370.706,161.369 369.937,162.677 368.532,162.652 367.367,163.133 366.388,164.029 364.912,163.8 364.011,164.892 362.919,165.551 361.765,166.068 360.564,166.471 359.04,166.031 357.815,166.344 357.102,168.03 355.52,167.379 354.493,168.246 353.394,168.92 352.146,169.176 350.993,169.705 349.62,169.568 348.407,169.909 347.17,170.171 346.177,171.223 345.079,171.951 343.544,171.226 342.455,171.987 341.067,171.716 339.812,171.899 338.74,172.743 337.396,172.594 336.399,173.74 334.953,173.21 333.728,173.512 332.663,174.456 331.357,174.444 330.257,175.272 328.947,175.236 327.679,175.362 326.723,176.847 325.409,176.785 324.148,176.943 322.702,176.247 321.619,177.211 320.389,177.497 319.292,178.434 318.007,178.454 316.583,177.77 315.416,178.356 314.073,178.041 312.81,178.117 311.773,179.409 310.537,179.635 309.145,178.98 308.169,180.653 306.668,179.362 305.688,181.063 304.372,180.83 302.969,180.053 301.843,180.91 300.719,181.816 299.311,180.983 298.232,182.167 296.989,182.32 295.778,182.657 294.421,182.086 293.313,183.13 291.861,181.824 290.715,182.666 289.441,182.52 288.313,183.803 287.013,183.38 285.766,183.502 284.505,183.428 283.275,183.837 281.952,182.603 280.755,183.631 279.514,183.896 278.276,184.337 276.998,183.646 275.729,183.056 274.477,182.816 273.26,184.522 271.994,183.786 270.735,183.25 269.484,183.055 268.242,183.337 266.996,183.322 265.748,184.204 264.497,184.465 263.255,183.235 262.01,183.042 260.754,183.549 259.497,183.985 258.25,183.68 256.984,184.321 255.748,183.674 254.489,183.967 253.257,183.191 252.019,182.706 250.751,183.142 249.47,183.953 248.251,182.859 247.004,182.584 245.718,183.358 244.436,183.959 243.202,183.314 241.974,182.633 240.691,183.242 239.427,183.392 238.218,182.376 236.935,182.928 235.719,182.093 234.458,182.17 233.144,183.262 231.897,183.057 230.637,183.107 229.41,182.543 228.125,183.02 226.881,182.772 225.674,181.937 224.412,182.022 223.19,181.477 221.939,181.387 220.588,182.847 219.336,182.781 218.122,182.136 216.875,182.018 215.61,182.144 214.426,181.109 213.205,180.626 211.933,180.859 210.659,181.09 209.34,181.911 208.084,181.857 206.854,181.515 205.675,180.52 204.426,180.45 203.146,180.729 201.895,180.619 200.686,180.014 199.322,181.284 198.206,179.666 196.85,180.863 195.643,180.345 193.866,179.865 195.265,178.986 196.027,177.938 196.23,176.554 196.901,175.453 198.259,174.765 198.576,173.446 198.671,171.992 200.14,171.376 200.118,169.849 201.096,168.927 201.375,167.575 203.293,166.892 201.377,165.798 199.979,166.427 198.666,166.587 197.646,165.328 196.412,165.12 195.018,165.646 193.693,165.816 192.818,163.997 191.524,164.041 190.016,164.989 189.06,163.572 187.859,163.204 186.641,162.912 185.364,162.856 184.295,161.975 182.706,163.129 181.624,162.299 180.349,162.215 179.158,161.808 178.261,160.327 177.003,160.18 175.651,160.363 174.22,160.81 173.478,158.853 172.272,158.547 170.723,159.383 169.495,159.125 168.518,158.05 167.279,157.824 166.176,157.169 164.71,157.644 163.552,157.152 162.44,156.521 161.265,156.085 160.297,155.043 158.869,155.342 157.579,155.224 156.445,154.664 155.591,153.342 154.525,152.618 153.054,152.972 152.002,152.211 150.753,151.963 149.823,150.91 148.594,150.61 147.235,150.615 145.952,150.426 145.171,149.059 143.726,149.236 142.353,149.227 141.441,148.188 140.224,147.822 139.438,146.546 138.264,146.1 136.777,146.275 135.935,145.152 135.034,144.169 133.601,144.201 132.786,143.076 131.636,142.571 130.43,142.16 129.354,141.52 127.824,141.622 127.337,140.023 125.522,140.529 124.593,139.638 123.749,138.634 122.518,138.191 121.557,137.361 121.285,135.637 119.526,135.851 119.041,134.452 117.685,134.105 116.778,133.221 116.112,132.086 115.311,131.112 113.861,130.763 112.967,129.856 112.014,128.992 112.393,127.068 110.998,126.563 109.723,125.904 109.937,124.262 108.666,123.552 108.018,122.453 108.063,121.036 107.417,119.95 107.227,118.692 105.846,117.78 105.909,116.438 105.501,115.207 105.443,113.917 105.407,112.634 106.206,111.365 106.258,110.126 105.839,108.838 106.972,107.729 107.202,106.532 107.202,105.28 107.737,104.152 106.535,102.48 107.332,101.403 108.319,100.435 109.431,99.566 109.764,98.364 109.812,96.992 110.111,95.719 110.75,94.629 111.66,93.715 111.915,92.366 112.503,91.227 113.553,90.43 114.522,89.59 115.545,88.81 115.775,87.348 117.184,86.922 118.551,86.497 118.348,84.556 119.152,83.57 121.074,83.761 121.57,82.462 122.808,81.971 123.559,80.934 123.8,79.27 124.944,78.671 125.787,77.702 127.153,77.406 128.449,77.041 129.099,75.807 130.622,75.781 131.732,75.192 132.823,74.58 133.308,73.051 134.591,72.722 135.617,72 136.999,71.855 138.063,71.205 138.749,69.911 139.767,69.164 141.32,69.36 142.423,68.775 143.134,67.469 144.403,67.183 144.978,65.574 146.446,65.677 147.903,65.792 149.041,65.283 149.95,64.3 150.952,63.497 152.214,63.243 153.405,62.841 154.211,61.583 155.625,61.682 156.442,60.417 157.943,60.74 159.181,60.459 160.406,60.156 161.056,58.413 162.213,57.919 163.935,58.893 164.587,57.082 165.748,56.594 167.395,57.442 168.405,56.552 169.452,55.75 170.553,55.088 172.174,55.966 172.953,54.333 174.108,53.82 175.213,53.141 176.937,54.439 177.974,53.554 178.954,52.454 180.072,51.795 181.449,52.025 182.493,51.096 184.001,51.839 185.282,51.778 186.452,51.308 187.412,50.019 188.853,50.589 189.997,49.996 191.178,49.542 192.433,49.394 193.667,49.16 194.671,47.903 196.027,48.203 197.308,48.18 198.5,47.74 199.784,47.747 200.856,46.692 202.307,47.562 203.504,47.136 204.593,46.097 206.103,47.417 207.299,46.979 208.497,46.539 209.688,46.039 211.016,46.405 212.193,45.794 213.365,45.117 214.646,45.198 216.007,45.897 217.065,44.273 218.398,44.801 219.737,45.433 220.98,45.282 222.059,43.559 223.325,43.54 224.703,44.718 225.838,43.322 227.113,43.435 228.334,42.895 229.622,43.203 230.896,43.356 232.132,42.963 233.415,43.331 234.672,43.272 235.923,43.077 237.174,42.848 238.471,43.973 239.715,43.662 240.96,43.17 242.228,43.874 243.476,43.267 244.73,43.026 245.991,42.204 247.243,43.808 248.499,43.143 249.75,42.35 251.008,43.078 252.262,43.102 253.517,42.291 254.766,43.852 256.027,42.25 257.277,42.704 258.527,42.979 259.781,42.883 261.034,42.823 262.273,43.41 263.515,43.774 264.756,44.063 266.038,42.863 267.29,42.86 268.536,42.988 269.78,43.125 270.982,44.192 272.243,43.885 273.51,43.512 274.768,43.367 276.014,43.435 277.201,44.421 278.491,43.834 279.711,44.259 281.035,43.356 282.188,44.539 283.506,43.827 284.703,44.434 285.942,44.572 287.225,44.319 288.444,44.646 289.668,44.904 290.923,44.921 292.194,44.855 293.24,46.29 294.475,46.429 295.821,45.918 297.105,45.826 298.446,45.481 299.494,46.591 300.662,47.092 302.075,46.533 303.038,47.847 304.228,48.19 305.749,47.309 306.57,49.041 307.787,49.328 309.157,48.971 310.807,49.326 308.977,49.669 309.361,51.569 307.617,51.805 307.163,53.047 307.113,54.609 305.705,55.11 304.397,55.692 304.752,57.562 303.054,57.84 302.632,59.117 302.047,60.269 300.622,60.97 302.27,61.627 303.664,60.705 304.916,60.87 306.016,62.045 307.313,61.875 "
   style="fill:#ed1c24"
   transform="matrix(2.3296525,0,0,2.3296525,-244.33861,-89.148795)" /><path
   d="M 331.6307,8.8433781 C 214.00188,7.711167 87.124348,49.472518 29.984961,108.14482 10.07808,128.58286 3.5050001e-6,149.67786 3.5050001e-6,170.8777 c 0,0.80606 0.013977915,1.60979 0.044263395,2.41352 1.3325612,36.92266 40.0863301,69.74746 115.1780231,97.56585 47.8068,17.70768 95.78366,27.59473 108.436,30.04319 -2.84683,4.68959 -18.93308,31.19871 -18.93308,31.19871 l 3.66687,0.34246 c 1.69133,0.15842 169.9598,15.7601 233.57562,4.97847 l 8.27259,-1.35353 c 29.63318,-4.7921 91.29443,-14.76068 146.48855,-36.71765 68.53139,-27.2616 103.27117,-63.67407 103.27117,-108.23799 0,-0.40769 -0.005,-0.82004 -0.014,-1.23006 -0.36342,-25.66811 -13.52829,-48.96929 -39.13117,-69.26056 C 640.62649,104.58511 612.59145,90.376556 577.52785,78.385835 526.73443,61.018275 475.64748,53.377015 461.35041,51.459711 465.24792,46.460277 483.0022,23.673946 483.0022,23.673946 l -3.9441,-0.559117 C 476.4186,22.742085 473.41335,21.926707 469.60902,20.89467 453.00093,16.386793 422.08877,8.0000439 331.6307,8.8433781 z M 468.39761,25.344307 c 2.33664,0.633665 4.33548,1.148518 6.2225,1.581834 -3.66921,4.708228 -21.91737,28.130554 -21.91737,28.130554 l 4.08155,0.46593 c 2.37158,0.27024 237.07475,28.351871 238.58903,134.425605 0.005,0.3844 0.009,0.76879 0.009,1.15085 0,42.49985 -33.759,77.47027 -100.36143,103.96773 C 540.3,316.83509 478.97423,326.75242 449.50179,331.51656 l -8.30754,1.36051 c -57.84993,9.80551 -203.82828,-2.48574 -228.69965,-4.69425 3.09145,-5.09495 18.57665,-30.6093 18.57665,-30.6093 l -3.31277,-0.58707 C 225.55929,296.59274 7.6738788,256.84653 4.6523195,173.12581 c -0.027956,-0.74549 -0.041934,-1.49097 -0.041934,-2.23879 0,-19.9628 9.6377722,-39.97684 28.6780222,-59.52495 C 60.181917,83.746365 104.93454,58.649019 159.29931,40.692057 214.11836,22.585998 275.32067,12.913281 331.62837,13.45609 421.49238,12.619745 452.00617,20.897 468.39761,25.344307 z"
   id="path11" /><ellipse
   d="m 392.41501,113.127 c 0,32.55608 -61.54876,58.948 -137.47301,58.948 -75.92424,0 -137.47301,-26.39192 -137.47301,-58.948 0,-32.556084 61.54877,-58.948003 137.47301,-58.948003 75.92425,0 137.47301,26.391919 137.47301,58.948003 z"
   id="ellipse13"
   ry="58.948002"
   rx="137.47301"
   cy="113.127"
   cx="254.942"
   sodipodi:cx="254.942"
   sodipodi:cy="113.127"
   sodipodi:rx="137.47301"
   sodipodi:ry="58.948002"
   style="fill:#ed1c24"
   transform="matrix(2.3296525,0,0,2.3296525,-244.33861,-89.148795)" /><path
   id="path15"
   d="M 121.61951,75.007839 C 59.848776,101.5123 25.83119,137.03251 25.83119,175.02215 c 0,37.98731 34.019916,73.5052 95.78832,100.00965 61.04622,26.19229 142.15307,40.61982 228.37817,40.61982 86.22509,0 167.32962,-14.4252 228.37583,-40.61982 61.76841,-26.50445 95.78599,-62.02234 95.78599,-100.00965 0,-37.98964 -34.01991,-73.50753 -95.78599,-100.014311 C 517.3273,48.813226 436.22045,34.385688 349.99768,34.385688 263.77025,34.388018 182.66573,48.813226 121.61951,75.007839 z M 31.210358,175.02215 c 0,-74.57917 143.008052,-135.252635 318.787322,-135.252635 175.77927,0 318.78499,60.673465 318.78499,135.252635 0,74.57684 -143.00572,135.24798 -318.78499,135.24798 -175.77927,0 -318.787322,-60.67114 -318.787322,-135.24798 z" /><ellipse
   d="m 370.857,113.499 c 0,32.59364 -52.78384,59.016 -117.896,59.016 -65.11217,0 -117.89601,-26.42236 -117.89601,-59.016 0,-32.593636 52.78384,-59.015998 117.89601,-59.015998 65.11216,0 117.896,26.422362 117.896,59.015998 z"
   id="ellipse17"
   ry="59.015999"
   rx="117.896"
   cy="113.499"
   cx="252.961"
   sodipodi:cx="252.961"
   sodipodi:cy="113.499"
   sodipodi:rx="117.896"
   sodipodi:ry="59.015999"
   transform="matrix(2.3296525,0,0,2.3296525,-244.33861,-89.148795)" /><path
   id="path19"
   d="m 69.596042,175.71872 c 0,76.25185 123.604368,138.28817 275.534988,138.28817 151.93295,0 275.53499,-62.03632 275.53499,-138.28817 0,-76.254189 -123.60437,-138.290506 -275.53499,-138.290506 -151.93062,0 -275.534988,62.036317 -275.534988,138.290506 z m 3.093779,0 c 0,-74.53957 122.215899,-135.17809 272.441209,-135.17809 150.22298,0 272.44121,60.64085 272.44121,135.17809 0,74.53723 -122.21823,135.18041 -272.44121,135.18041 -150.22531,0 -272.441209,-60.64551 -272.441209,-135.18041 z"
   style="fill:#ed1c24" /><path
   d="M 66.061959,78.583855 25.505039,218.5983 h 62.336842 c 18.362319,0 30.599989,-0.79441 37.418879,-2.43449 7.77172,-1.86605 14.22952,-5.484 19.18469,-10.75367 4.77579,-5.08796 8.46595,-12.28659 11.28716,-22.02687 l 3.2755,-11.30813 c 1.35352,-4.67794 2.03378,-8.88297 2.03378,-12.657 0,-4.83636 -1.1159,-8.96218 -3.35004,-12.45665 -0.41235,-0.64299 -0.8876,-1.24637 -1.37915,-1.84043 0.31217,-0.20501 0.70821,-0.37973 1.00175,-0.59173 5.53991,-4.00933 9.6797,-10.63952 12.30522,-19.70653 1.77753,-6.13398 2.66745,-11.55042 2.66745,-16.30291 0,-5.50264 -1.19278,-10.115351 -3.58067,-13.922003 -4.27025,-6.809575 -10.98897,-11.33376 -19.97211,-13.444425 -7.3617,-1.728602 -17.99657,-2.571936 -32.50797,-2.571936 H 66.061959 z M 116.22404,96.78543 c 12.91093,0 22.4462,0.703555 28.34255,2.087369 4.20968,0.987773 7.05885,2.753651 8.71523,5.393141 0.20501,0.32849 0.80373,1.52127 0.80373,4.30986 0,2.39721 -0.4403,5.9709 -1.94992,11.18233 -1.43041,4.93421 -3.38033,8.49392 -5.49332,10.02217 -1.50962,1.09494 -5.6098,3.17764 -16.07227,4.83869 l -0.13046,17.95696 c 10.10137,1.75656 11.91384,4.18405 11.93015,4.20735 0.24228,0.38206 0.46593,1.23472 0.46593,2.64183 0,1.68434 -0.32149,4.16775 -1.30927,7.58302 l -3.27549,11.30813 c -2.46011,8.48692 -5.19978,12.63836 -7.06816,14.62556 -2.51603,2.67211 -5.84277,4.48225 -10.1736,5.51894 -3.67153,0.88294 -12.39841,1.93362 -33.16493,1.93362 0,0 -24.165485,0 -38.115444,0 5.185806,-17.90105 26.94942,-93.03934 30.010583,-103.611299 9.700673,0.0023 36.484691,0.0023 36.484691,0.0023 z"
   id="path27" /><path
   d="m 74.940265,197.85973 12.419378,-0.30518 c 8.083894,-0.19569 13.274357,-1.25568 16.831737,-3.43624 4.13979,-2.52767 7.06351,-7.12175 9.18582,-14.45083 l 3.27782,-11.31745 c 1.24171,-4.28424 3.82529,-13.19982 -2.106,-18.66984 -3.16833,-2.90508 -7.86724,-4.06058 -17.362903,-4.2819 l -7.005265,-0.16308 -15.240587,52.62452 z"
   id="path29" /><path
   d="m 90.255401,144.98827 16.526559,-0.29121 c 6.73968,0 11.6669,-1.56319 15.05887,-4.78044 2.99127,-2.83519 5.31394,-7.79968 8.01633,-17.13227 1.69133,-5.84044 1.91964,-9.98955 0.7385,-13.44442 -1.47234,-4.31918 -4.78044,-7.49216 -9.07399,-8.70358 -1.66338,-0.46128 -4.26327,-0.934195 -11.18001,-1.015733 l -6.92372,-0.08154 -13.162539,45.44919 z"
   id="path31" /><path
   d="M 195.88417,78.583855 129.81989,218.5983 h 65.59137 c 0,0 4.34946,-10.92374 6.40654,-16.09091 -0.3611,1.99185 -2.91906,16.09091 -2.91906,16.09091 h 63.5506 L 274.40045,78.583855 h -78.51628 z m 58.6956,18.201575 c -1.31858,15.43628 -7.71814,90.41381 -8.84336,103.6113 -7.66689,0 -15.74612,0 -25.03678,0 1.00175,-5.52361 3.94876,-21.7776 3.94876,-21.7776 h -32.91333 c 0,0 -6.18988,15.55509 -8.66863,21.7776 -5.80084,0 -13.88007,0 -24.53124,0 9.31162,-19.73449 44.88075,-95.11739 48.88775,-103.6113 7.86491,0 34.62796,0 47.15683,0 z"
   id="path35" /><path
   d="m 195.70013,162.58414 -4.94352,12.45898 h 36.12359 l 1.08562,-7.85792 c 1.88003,-13.60517 4.57078,-30.77238 8.00236,-51.02871 l -17.21847,-5.37451 c -10.95402,23.43864 -18.70944,40.86677 -23.04958,51.80216 z"
   id="path37" /><path
   d="m 350.49389,78.583855 c 0,0 -4.52651,15.629639 -6.26443,21.633155 -0.79907,-5.258027 -3.28481,-21.633155 -3.28481,-21.633155 H 290.15589 L 249.6013,218.5983 h 55.45971 c 0,0 4.24463,-14.64885 5.48866,-18.94939 0.41468,3.46186 2.27141,18.94939 2.27141,18.94939 h 52.57793 L 405.9536,78.583855 H 350.49389 z M 381.7322,96.78543 c -5.18813,17.90105 -26.94942,93.03933 -30.01058,103.6113 -6.76298,0 -15.08683,0 -22.74906,0 -1.40711,-11.72981 -5.67503,-47.35718 -5.67503,-47.35718 l -17.77991,-1.44904 c 0,0 -11.18,38.60001 -14.13633,48.80622 -5.34655,0 -9.77522,0 -17.56092,0 5.18581,-17.90105 26.94709,-93.03934 30.01058,-103.6113 6.58826,0 14.17827,0 21.46309,0 1.73326,11.4153 7.15203,47.11722 7.15203,47.11722 l 17.74031,1.16483 c 0,0 11.03556,-38.10147 13.98257,-48.28205 5.34656,0 9.77755,0 17.56325,0 z"
   id="path41" /><path
   d="M 404.62803,78.583855 364.07344,218.5983 h 66.73988 c 10.94005,0 19.1148,-0.43797 24.99484,-1.34421 6.30171,-0.96448 12.00936,-2.73035 16.95754,-5.23706 5.49565,-2.79325 9.97092,-6.73502 13.30698,-11.7065 3.06582,-4.57078 6.12931,-12.34949 9.64243,-24.46834 l 12.35648,-42.65827 c 4.76181,-16.44036 5.49798,-22.32972 5.63543,-25.33264 0.28421,-6.32268 -1.94992,-12.288917 -6.4578,-17.253407 -4.29821,-4.726865 -10.75601,-7.90684 -19.75312,-9.72164 -7.62729,-1.54223 -21.89408,-2.290048 -43.62042,-2.290048 h -39.24765 z m 39.24998,18.201575 c 25.17656,0 35.65999,1.050674 40.01644,1.931282 6.78395,1.369838 9.17418,3.340718 9.88705,4.123488 1.47467,1.62609 1.74724,2.87479 1.74724,3.89052 0,0.0978 0,0.19336 -0.005,0.28887 -0.0839,1.80315 -0.83402,6.94237 -4.9342,21.09734 l -12.35648,42.65826 c -3.79035,13.09032 -6.18523,17.77059 -7.27551,19.39669 -1.60513,2.39488 -3.7088,4.22832 -6.42984,5.61213 -3.21958,1.63309 -7.08447,2.80258 -11.48518,3.47817 -4.88994,0.75248 -12.36813,1.13455 -22.22955,1.13455 0,0 -27.844,0 -42.51616,0 5.18348,-17.90105 26.94476,-93.03934 30.00826,-103.6113 8.51721,0 25.57259,0 25.57259,0 z"
   id="path45" /><path
   d="m 441.96537,99.622947 -28.36818,97.933933 h 12.11186 c 8.73154,0 14.55334,-1.6494 18.33903,-5.1928 3.32208,-3.11241 5.99885,-8.78512 8.94819,-18.9657 l 13.64012,-47.09625 c 2.42517,-8.36578 2.73268,-11.29416 2.70472,-13.21146 -0.0862,-4.95517 -2.81887,-9.22077 -7.3151,-11.44325 -2.92605,-1.42808 -6.86782,-2.029132 -13.22544,-2.029132 h -6.8352 z"
   id="path47" /><path
   d="M 521.47874,78.583855 480.92182,218.5983 h 62.37877 L 583.85285,78.583855 h -62.37411 z m 38.15505,18.201575 c -5.18348,17.90105 -26.94942,93.03933 -30.00826,103.6113 -6.49507,0 -14.63487,0 -24.47766,0 5.18581,-17.90105 26.94709,-93.03934 30.01059,-103.6113 6.49274,0 14.63021,0 24.47533,0 z"
   id="path51" /><path
   d="m 574.69033,78.583855 -12.32619,42.565085 c 0,0 18.95638,0 25.74732,0 -5.22541,18.04315 -28.22141,97.44936 -28.22141,97.44936 h 62.37644 c 0,0 24.91564,-86.02242 28.22374,-97.44936 7.45489,0 26.13638,0 26.13638,0 L 688.95047,78.583855 H 574.69033 z M 664.7314,96.78543 c -0.8876,3.075142 -1.08096,3.73443 -1.78451,6.1596 -7.45489,0 -26.13405,0 -26.13405,0 0,0 -24.91563,86.02708 -28.22607,97.4517 -6.49507,0 -14.63021,0 -24.47532,0 5.22541,-18.04316 28.22374,-97.4517 28.22374,-97.4517 0,0 -18.95639,0 -25.75198,0 0.89225,-3.07281 1.08561,-3.732102 1.78917,-6.1596 10.17126,0 59.41779,0 76.35902,0 z"
   id="path55" /><path
   style="fill:#f5e100"
   d="m 72.89949,87.683478 h 43.32455 c 13.68671,0 23.82535,0.778104 30.42526,2.329653 6.5999,1.551548 11.37802,4.68726 14.34367,9.416455 2.96565,4.729194 2.92604,12.349484 -0.11648,22.858554 -2.05942,7.10544 -5.02506,12.06061 -8.89928,14.86318 -3.87421,2.8049 -10.53934,4.95517 -19.98143,6.45547 9.55391,1.66104 15.55975,4.41236 18.02453,8.25396 2.46011,3.84858 2.54165,9.74027 0.24228,17.6774 l -3.27549,11.30813 c -2.39023,8.24697 -5.44906,14.35765 -9.17417,18.32272 -3.73211,3.96973 -8.62671,6.6861 -14.68613,8.1398 -6.06176,1.45837 -17.82417,2.18522 -35.287249,2.18522 H 37.612243 L 72.89949,87.683478 z m 24.074628,66.812102 -9.835792,33.96168 c 6.157271,-0.15143 10.25513,-0.84567 12.300565,-2.09902 2.040779,-1.24404 3.778699,-4.31918 5.199789,-9.22077 l 3.27782,-11.31745 c 1.50495,-5.19512 1.66104,-8.34481 0.46826,-9.44441 -1.19744,-1.09959 -4.99711,-1.72627 -11.410642,-1.88003 z m 13.260382,-45.77068 -7.80667,26.94709 c 1.86373,-0.0466 3.31976,-0.0745 4.3518,-0.0745 4.25627,0 7.19163,-0.7618 8.79676,-2.28306 1.60513,-1.52126 3.45255,-5.87072 5.53526,-13.0577 1.09959,-3.795 1.38614,-6.44848 0.86896,-7.97207 -0.51951,-1.52126 -1.49797,-2.47875 -2.9307,-2.88411 -1.43274,-0.39837 -4.37043,-0.62435 -8.81541,-0.6756 z"
   id="path61" /><path
   style="fill:#ed1c24"
   d="M 70.663023,84.706182 33.654164,212.47364 h 54.187717 c 17.870759,0 29.642499,-0.74083 35.983809,-2.26908 6.59758,-1.58416 12.03499,-4.60805 16.15847,-8.99246 4.03729,-4.30053 7.35705,-10.87015 9.86608,-19.53646 l 3.27549,-11.30814 c 1.19511,-4.12581 1.79384,-7.75308 1.79384,-10.92374 0,-3.65289 -0.79442,-6.69542 -2.38557,-9.18349 -1.64706,-2.56727 -4.44498,-4.6593 -8.36578,-6.33898 3.99302,-1.2254 7.21027,-2.65813 9.55623,-4.35412 4.40771,-3.1893 7.77638,-8.72222 10.01285,-16.44735 1.62377,-5.61213 2.43682,-10.45548 2.43682,-14.58828 0,-4.31452 -0.88527,-7.85326 -2.65814,-10.679129 -3.38265,-5.393145 -8.82705,-9.006436 -16.18409,-10.735039 -6.89577,-1.619108 -17.0717,-2.40886 -31.10785,-2.40886 H 70.663023 z m 45.561017,5.954592 c 13.38152,0 23.38971,0.757137 29.745,2.250444 5.85675,1.376825 9.94762,4.027969 12.50325,8.102532 1.16948,1.86372 1.75422,4.37742 1.75422,7.52012 0,3.52709 -0.73617,7.84627 -2.20851,12.92724 -1.85906,6.41819 -4.47759,10.88647 -7.7857,13.27902 -3.47351,2.51369 -9.7659,4.50555 -18.70245,5.92431 l -0.0443,5.87305 c 10.77697,1.87537 14.66516,4.80374 16.03034,6.92839 0.96448,1.50961 1.44671,3.51078 1.44671,5.99186 0,2.57427 -0.51951,5.66572 -1.5562,9.25105 l -3.2755,11.30814 c -2.24345,7.75075 -5.0996,13.50965 -8.48692,17.11595 -3.31277,3.52477 -7.75774,5.97323 -13.20913,7.2825 -5.80083,1.39546 -17.43745,2.10134 -34.593009,2.10134 0,0 -39.543522,0 -46.264569,0 2.031457,-7.00992 32.396147,-111.844284 33.558644,-115.860605 4.025639,0.0047 41.088084,0.0047 41.088084,0.0047 z"
   id="path63" /><path
   style="fill:#ed1c24"
   d="m 83.149961,191.5324 4.062913,-0.10018 c 6.849179,-0.16773 11.228926,-0.97379 13.782226,-2.53699 2.72569,-1.66337 4.85499,-5.23939 6.50439,-10.93073 l 3.27782,-11.31745 c 1.94293,-6.70241 1.83111,-10.42985 -0.37507,-12.46364 -1.36984,-1.25335 -3.93013,-2.43915 -13.353573,-2.66279 l -2.292378,-0.0536 -11.606328,40.06537 z m 16.037327,-33.97332 c 4.622032,0.22364 6.383252,0.70821 6.979642,0.9435 0.0163,0.12581 0.0326,0.27956 0.0326,0.52651 0,0.89225 -0.1887,2.66978 -1.14386,5.96158 l -3.27782,11.31745 c -1.63075,5.63077 -3.263841,7.12641 -3.890518,7.50847 -0.698895,0.43098 -2.47642,1.09261 -6.725707,1.44904 1.675021,-5.78452 7.04021,-24.30293 8.025653,-27.70655 z"
   id="path65" /><path
   style="fill:#ed1c24"
   d="m 98.446459,138.71918 8.333171,-0.14444 c 5.09728,0 8.64534,-1.0134 10.84453,-3.10077 1.40012,-1.32557 3.38498,-4.16076 6.3483,-14.39026 1.30228,-4.49623 1.5632,-7.597 0.8247,-9.75892 -0.83868,-2.45778 -2.54631,-4.11416 -4.93887,-4.78743 -1.09726,-0.30519 -3.2685,-0.71288 -9.59117,-0.78743 l -2.26443,-0.0256 -9.556231,32.99487 z m 14.005871,-26.95874 c 3.66454,0.11415 5.24405,0.3541 5.80083,0.50786 0.34246,0.0979 0.65697,0.23996 0.90857,0.97613 0.0303,0.0885 0.0955,0.34012 0.0955,0.86197 0,0.86663 -0.18171,2.47642 -1.00408,5.32092 -2.68608,9.26969 -4.29587,11.31745 -4.72453,11.72514 -0.46593,0.44031 -2.05475,1.46769 -6.749,1.46769 0,0 -0.31451,0.005 -0.37042,0.007 1.48865,-5.13688 5.13688,-17.73098 6.04312,-20.86669 z"
   id="path67" /><path
   style="fill:#f5e100"
   d="M 264.49011,87.683478 254.09054,209.49868 h -44.29135 l 3.94876,-21.78225 h -15.84164 l -8.66863,21.78225 H 144.17754 L 201.65472,87.683478 h 62.83539 z m -45.54005,78.257682 c 1.90799,-13.82648 4.59175,-30.92613 8.04429,-51.3036 -10.95635,23.44096 -18.565,40.54294 -22.83525,51.3036 h 14.79096 z"
   id="path71" /><path
   style="fill:#ed1c24"
   d="M 199.76771,84.706182 139.48096,212.47364 h 51.77652 c 0,0 7.41995,-18.64421 8.66864,-21.77992 2.28073,0 6.67912,0 10.25746,0 -0.89458,4.93887 -3.94876,21.77992 -3.94876,21.77992 h 50.59073 L 267.73299,84.706182 h -67.96528 z m 61.47952,5.954592 c -0.51019,5.980218 -9.45838,110.795946 -9.88937,115.860606 -4.40071,0 -32.37052,0 -37.99663,0 0.89691,-4.93653 3.94876,-21.77992 3.94876,-21.77992 h -21.42582 c 0,0 -7.42227,18.64654 -8.66863,21.77992 -3.28248,0 -31.18706,0 -38.34608,0 3.68085,-7.79967 53.15801,-112.659664 54.66995,-115.860606 3.36402,0 52.06075,0 57.70782,0 z"
   id="path73" /><path
   style="fill:#ed1c24"
   d="m 201.3938,164.84157 -1.61678,4.07456 h 21.76595 l 0.3541,-2.56961 c 1.88702,-13.66574 4.58942,-30.89818 8.03032,-51.21275 l -5.63077,-1.75655 c -10.90278,23.32681 -18.60927,40.64078 -22.90282,51.46435 z m 19.09383,-29.0065 c -1.61677,10.09205 -3.00059,19.18235 -4.11882,27.1288 -2.24346,0 -4.52419,0 -7.79036,0 2.87945,-6.96799 6.87946,-16.07693 11.90918,-27.1288 z"
   id="path75" /><path
   style="fill:#f5e100"
   d="M 393.84174,87.683478 358.56148,209.49868 h -37.66349 l -6.63718,-55.37817 -16.03966,55.37817 H 261.71084 L 296.99342,87.683478 h 36.12592 l 8.32618,54.851672 15.8859,-54.851672 h 36.51032 z"
   id="path79" /><path
   style="fill:#ed1c24"
   d="m 355.09729,84.706182 c 0,0 -8.35414,28.843428 -12.74087,43.986168 -2.32267,-15.30349 -6.67679,-43.986168 -6.67679,-43.986168 H 294.75929 L 257.75276,212.47364 h 42.70952 c 0,0 8.0536,-27.80906 12.58711,-43.46199 1.89401,15.81135 5.20677,43.46199 5.20677,43.46199 h 42.54179 L 397.80448,84.706182 h -42.70719 z m 34.78404,5.954592 c -2.03379,7.012254 -32.39382,111.844286 -33.55632,115.860606 -3.66221,0 -28.51028,0 -32.7852,0 -0.57076,-4.75948 -6.32034,-52.75265 -6.32034,-52.75265 l -5.81482,-0.47525 c 0,0 -14.26679,49.25817 -15.41764,53.2279 -3.48749,0 -24.44737,0 -30.31111,0 2.03146,-7.00992 32.39382,-111.844285 33.55632,-115.860606 3.64125,0 27.20568,0 31.3315,0 0.69656,4.605723 7.94178,52.321666 7.94178,52.321666 l 5.80317,0.38206 c 0,0 14.11536,-48.733998 15.26388,-52.703726 3.48516,0 24.44504,0 30.30878,0 z"
   id="path81" /><path
   style="fill:#f5e100"
   d="m 411.46789,87.683478 h 32.41012 c 20.91562,0 34.85393,0.703555 41.81959,2.110665 6.96334,1.40711 11.89987,3.715796 14.81427,6.923727 2.91439,3.205602 4.27957,6.78162 4.10251,10.7164 -0.17938,3.93944 -1.9406,11.68088 -5.28598,23.21499 l -12.35415,42.65827 c -3.16832,10.93538 -5.98953,18.24816 -8.46129,21.936 -2.47642,3.69017 -5.76822,6.57195 -9.86375,8.65466 -4.10252,2.08271 -8.85035,3.53875 -14.22719,4.36111 -5.38616,0.82936 -13.25572,1.24171 -23.6087,1.24171 H 376.1853 L 411.46789,87.683478 z m 37.33501,21.041422 -23.09385,79.73236 c 6.13864,0 10.16894,-0.91323 12.1142,-2.73502 1.94759,-1.82178 4.08854,-6.76997 6.43217,-14.85619 l 13.64011,-47.09393 c 1.59115,-5.49099 2.36693,-9.01109 2.34829,-10.55565 -0.0303,-1.54689 -0.78043,-2.68143 -2.25044,-3.40828 -1.477,-0.71986 -4.54282,-1.08329 -9.19048,-1.08329 z"
   id="path85" /><path
   style="fill:#ed1c24"
   d="m 409.23142,84.706182 -37.0042,127.767458 h 58.5861 c 10.62788,0 18.49511,-0.417 24.06298,-1.27432 5.66339,-0.87129 10.75135,-2.43448 15.11945,-4.64765 4.54748,-2.31102 8.24464,-5.56088 10.98897,-9.65641 2.66978,-3.97905 5.56554,-11.42229 8.85035,-22.76304 l 12.35647,-42.65826 c 3.43857,-11.87191 5.19979,-19.69256 5.39315,-23.9069 0.21899,-4.73618 -1.42109,-9.060016 -4.8713,-12.85502 -3.38499,-3.725115 -8.7595,-6.287732 -16.42638,-7.836951 -7.22891,-1.460693 -21.102,-2.171237 -42.41133,-2.171237 h -34.64426 z m 34.64659,5.954592 c 20.61976,0 34.49284,0.689577 41.22786,2.050094 6.29472,1.27199 10.73504,3.294129 13.20447,6.008174 2.24579,2.471758 3.34305,5.104268 3.34305,8.034968 0,0.17939 -0.002,0.3611 -0.0116,0.54514 -0.16774,3.68784 -1.90799,11.2662 -5.1695,22.52075 l -12.35648,42.65827 c -3.06582,10.58827 -5.78453,17.69138 -8.07457,21.10432 -2.17357,3.24055 -5.11126,5.81714 -8.7362,7.6599 -3.80665,1.92895 -8.29356,3.29879 -13.3326,4.07223 -5.1928,0.79907 -12.98316,1.20676 -23.15908,1.20676 0,0 -43.84872,0 -50.66528,0 2.02913,-7.00992 32.39382,-111.844285 33.55398,-115.860606 3.88121,0 30.17599,0 30.17599,0 z"
   id="path87" /><path
   style="fill:#ed1c24"
   d="m 446.56643,105.7476 -24.82012,85.68695 h 3.96274 c 7.07749,0 11.57372,-1.12522 14.15264,-3.54107 1.50496,-1.40944 3.89984,-4.62669 7.25454,-16.2004 l 13.63779,-47.09393 c 2.24345,-7.74842 2.48108,-10.2295 2.4671,-11.42461 -0.0489,-2.67445 -1.43507,-4.81307 -3.90916,-6.03613 -1.23239,-0.60105 -3.64824,-1.39314 -10.51139,-1.39314 h -2.23414 z m 4.46129,5.98954 c 4.03262,0.13046 5.33723,0.5894 5.66338,0.74782 0.56611,0.28189 0.57077,0.47059 0.5731,0.78509 0,0.009 0,0.0186 0,0.0303 0,0.59872 -0.22598,2.73035 -2.22948,9.64476 l -13.63779,47.09392 c -2.96331,10.2365 -4.90625,12.85969 -5.60514,13.51199 -0.48457,0.45428 -1.98952,1.37216 -6.06875,1.7519 2.02447,-6.9843 20.17014,-69.64496 21.30468,-73.56577 z"
   id="path89" /><path
   style="fill:#f5e100"
   d="M 571.74565,87.683478 536.46073,209.49868 H 493.03135 L 528.31627,87.683478 h 43.42938 z"
   id="path93" /><path
   style="fill:#ed1c24"
   d="M 526.07747,84.706182 489.07094,212.47364 h 49.62859 L 575.70839,84.706182 h -49.63092 z m 41.70544,5.954592 c -2.02913,7.012254 -32.39382,111.844286 -33.55398,115.860606 -3.63892,0 -31.06126,0 -37.23018,0 2.02913,-7.01225 32.39382,-111.844285 33.55631,-115.860606 3.63659,0 31.05893,0 37.22785,0 z"
   id="path95" /><path
   style="fill:#f5e100"
   d="m 676.84093,87.683478 -7.05185,24.363502 h -26.13405 l -28.2284,97.4517 h -43.42705 l 28.22607,-97.4517 h -25.75198 l 7.05652,-24.363502 h 95.31074 z"
   id="path99" /><path
   style="fill:#ed1c24"
   d="m 579.29372,84.706182 -8.77813,30.318098 c 0,0 20.07462,0 25.74732,0 -2.03378,7.02623 -28.22607,97.45169 -28.22607,97.45169 h 49.62859 c 0,0 27.03329,-93.33985 28.22374,-97.45169 3.74142,0 26.13404,0 26.13404,0 L 680.806,84.706182 H 579.29372 z m 93.58913,5.954592 c -1.40711,4.852666 -4.47293,15.447926 -5.33257,18.408916 -3.73909,0 -26.13404,0 -26.13404,0 0,0 -27.03329,93.34218 -28.2284,97.45169 -3.63659,0 -31.0566,0 -37.22552,0 2.03146,-7.02623 28.22141,-97.45169 28.22141,-97.45169 0,0 -20.07461,0 -25.74732,0 1.40711,-4.85267 4.47293,-15.447928 5.32792,-18.408916 4.09087,0 82.01541,0 89.11852,0 z"
   id="path101" /><path
   id="path107"
   d="m 259.2414,231.66998 h 20.48231 c 11.90685,0 20.93426,0.53349 17.94531,11.05886 l -1.38847,4.88528 c -1.69133,5.94993 -5.64941,9.23009 -13.6308,9.60982 l -0.0443,0.15376 c 8.16776,0.37973 10.58594,3.58533 8.85268,9.68902 l -5.4211,19.07054 h -17.35591 l 5.87538,-20.67101 c 0.73617,-2.59523 0.3378,-4.73385 -3.49681,-4.73385 -0.90856,0 -1.43506,0.0769 -2.18288,0.23296 l -7.1567,25.17423 h -17.95929 l 15.48054,-54.46961 z m 12.04431,20.82476 h 1.41177 c 2.52301,0 5.74259,-0.68724 6.63252,-3.8183 l 1.27898,-4.49856 c 0.88759,-3.12639 -1.94293,-3.81364 -4.46595,-3.81364 h -1.41177 l -3.44555,12.1305 z"
   style="fill:#f5e100" /><path
   id="path109"
   d="m 257.83895,229.80859 -16.5382,58.18773 h 21.82884 c 0,0 6.57894,-23.14976 7.19863,-25.32332 0.35411,-0.0396 0.73384,-0.0792 0.73384,-0.0792 1.11357,0 1.67735,0.22597 1.82179,0.41701 0.14677,0.19569 0.20501,0.82236 -0.11415,1.94759 l -6.54866,23.04026 h 21.22314 l 5.80549,-20.42407 c 0.4007,-1.40944 0.60338,-2.69307 0.60338,-3.85324 0,-1.70764 -0.43797,-3.15435 -1.31159,-4.37276 -0.54514,-0.75481 -1.30927,-1.35586 -2.17823,-1.88935 3.88586,-1.70763 6.40655,-4.75948 7.70649,-9.33724 l 1.38848,-4.88063 c 0.43564,-1.53058 0.6523,-2.91905 0.6523,-4.1724 0,-1.91032 -0.50321,-3.51312 -1.51195,-4.85034 -3.08446,-4.08388 -10.06643,-4.41003 -18.87251,-4.41003 h -21.88709 z m 21.88709,3.72278 c 7.21493,0 13.8591,0.22365 15.90454,2.92838 0.50786,0.67094 0.76179,1.54456 0.76179,2.63483 0,0.89226 -0.17006,1.93128 -0.51019,3.12873 l -1.38614,4.88295 c -1.55388,5.46769 -5.12058,7.93712 -11.93016,8.26328 l -0.0419,3.86955 c 3.67852,0.17006 6.0338,0.94118 7.00061,2.28306 0.40769,0.5661 0.6127,1.30227 0.6127,2.22016 0,0.79674 -0.15376,1.73326 -0.46361,2.81422 0,0 -4.37275,15.38502 -5.0367,17.71933 -2.00583,0 -10.20388,0 -13.48869,0 1.05533,-3.71346 5.20211,-18.30175 5.20211,-18.30175 0.24927,-0.88526 0.37741,-1.68434 0.37741,-2.40653 0,-1.10425 -0.29121,-2.0268 -0.87362,-2.80024 -0.94817,-1.25568 -2.56262,-1.89401 -4.7921,-1.89401 l -3.80898,0.39837 -0.16541,1.18347 c 0,0 -6.08039,21.40251 -6.76997,23.82302 -2.03378,0 -10.75833,0 -14.09206,0 1.19977,-4.22366 13.72398,-48.29136 14.42287,-50.74449 2.43682,-0.002 19.07753,-0.002 19.07753,-0.002 z"
   style="fill:#ed1c24" /><path
   id="path111"
   d="m 273.32648,238.50751 -4.50554,15.84863 h 3.87654 c 4.48225,0 7.47352,-1.83344 8.42169,-5.16717 l 1.27898,-4.49856 c 0.57076,-2.00816 0.002,-3.34072 -0.57309,-4.10019 -1.04369,-1.38381 -2.95633,-2.08504 -5.6797,-2.08504 h -2.81888 z m 2.81888,3.71813 c 1.78452,0 2.5533,0.39604 2.71405,0.60571 0.0396,0.0513 0.0582,0.1421 0.0582,0.26092 0,0.15142 -0.0326,0.35177 -0.0978,0.57775 l -1.27898,4.50089 c -0.39604,1.39779 -1.69598,2.17124 -3.76704,2.37624 0.76412,-2.68608 1.894,-6.66979 2.36459,-8.31918 h 0.007 z"
   style="fill:#ed1c24" /><path
   id="path115"
   d="m 303.51179,247.38349 c 2.45079,-8.61972 8.22134,-16.8597 26.88885,-16.8597 18.66983,0 19.75778,8.23998 17.30932,16.8597 l -6.54866,23.04026 c -2.45079,8.61738 -8.22134,16.85737 -26.88884,16.85737 -18.66751,0 -19.75546,-8.23999 -17.30699,-16.85737 l 6.54632,-23.04026 z m 10.84919,27.15909 c -0.54281,1.90565 -0.3145,3.583 2.51137,3.583 2.82587,0 4.00933,-1.67735 4.55214,-3.583 l 8.88762,-31.28025 c 0.54281,-1.90332 0.31218,-3.583 -2.51369,-3.583 -2.82587,0 -4.007,1.67968 -4.54981,3.583 l -8.88763,31.28025 z"
   style="fill:#f5e100" /><path
   id="path117"
   d="m 301.72262,246.87329 -6.54866,23.03794 c -1.65405,5.82879 -1.29295,10.21086 1.11125,13.38851 2.96798,3.93245 8.85268,5.84044 17.98492,5.84044 21.06704,0 26.45553,-10.39258 28.67802,-18.20857 l 6.54865,-23.03793 c 1.65638,-5.82879 1.29529,-10.20854 -1.10891,-13.38851 -2.97031,-3.93013 -8.85268,-5.84277 -17.98725,-5.84277 -21.06472,0 -26.45553,10.39491 -28.67802,18.21089 z m 28.67802,-14.48811 c 7.77871,0 12.8294,1.46768 15.01927,4.36577 1.67502,2.21317 1.83344,5.43275 0.49854,10.12467 l -6.54865,23.03794 c -2.05242,7.22425 -6.75832,15.51082 -25.09967,15.51082 -7.77638,0 -12.8294,-1.47234 -15.01694,-4.36577 -1.67502,-2.2155 -1.83344,-5.43275 -0.49855,-10.127 l 6.54632,-23.03793 0,0 c 2.05243,-7.22192 6.76066,-15.5085 25.09968,-15.5085 z"
   style="fill:#ed1c24" /><path
   id="path119"
   d="m 321.45943,242.7568 -8.88762,31.27558 0,0 c -0.51718,1.82412 -0.36809,3.29646 0.44496,4.37276 0.79441,1.04834 2.0897,1.58416 3.85558,1.58416 2.25044,0 5.18114,-0.85498 6.34131,-4.93653 l 8.88763,-31.27559 c 0.51951,-1.82178 0.36808,-3.29412 -0.44497,-4.37042 -0.79208,-1.05068 -2.09203,-1.5865 -3.8579,-1.5865 -2.25045,0 -5.17882,0.85499 -6.33899,4.93654 z m -5.30927,32.29364 8.88762,-31.27559 c 0.45661,-1.60746 1.23006,-2.23413 2.76064,-2.23413 0.57775,0 0.84566,0.0955 0.91089,0.13745 -0.0256,0.007 0.0326,0.30984 -0.1887,1.07863 l -8.88762,31.27558 c -0.45662,1.60746 -1.23239,2.23414 -2.76297,2.23414 -0.57543,0 -0.84334,-0.0932 -0.9109,-0.13745 0.0303,-0.007 -0.0279,-0.30985 0.19104,-1.07863 z"
   style="fill:#ed1c24" /><path
   id="path123"
   d="m 354.16542,247.38349 c 2.4508,-8.61972 9.33026,-16.8597 27.29421,-16.8597 13.61915,0 19.15907,5.72163 16.42638,15.3361 l -2.18754,7.70416 h -18.56733 l 2.88411,-10.1433 c 0.51951,-1.83344 1.06232,-3.73676 -2.26908,-3.73676 -2.11999,0 -3.30345,1.67967 -3.84393,3.583 l -8.88762,31.28024 c -0.54281,1.90566 -0.31218,3.58301 1.80548,3.58301 3.3314,0 3.91614,-2.05708 4.58708,-4.42401 l 3.1427,-11.06119 h 18.56966 l -2.56028,9.00411 c -2.73269,9.60981 -12.41472,15.63662 -25.63317,15.63662 -18.66751,0 -19.75545,-8.23998 -17.30699,-16.85736 l 6.54632,-23.04492 z"
   style="fill:#f5e100" /><path
   id="path125"
   d="m 352.37625,246.87329 -6.54632,23.03794 c -1.65638,5.82879 -1.29296,10.21086 1.11124,13.38851 2.96798,3.93245 8.84802,5.84044 17.98492,5.84044 13.93598,0 24.44271,-6.50672 27.42234,-16.98783 l 3.23123,-11.37103 H 373.1451 l -3.52709,12.41239 c -0.69191,2.43681 -0.9505,3.07048 -2.79791,3.07048 0,0 -0.0932,-0.007 -0.17939,-0.0186 -0.009,-0.0466 -0.0186,-0.0606 -0.0186,-0.13279 0,-0.21899 0.0419,-0.56843 0.18171,-1.06465 l 8.88529,-31.27558 c 0.424,-1.48399 1.11591,-2.23414 2.05709,-2.23414 0.37507,0 0.62201,0.0326 0.77577,0.0606 -0.0349,0.34712 -0.18637,0.91788 -0.29819,1.3046 l -3.55272,12.51723 h 22.43222 l 2.57194,-9.05769 c 1.36284,-4.7921 0.88293,-8.77114 -1.42575,-11.82532 -2.94701,-3.90217 -8.59176,-5.87771 -16.78748,-5.87771 -19.76244,0.002 -26.72577,9.90568 -29.08571,18.21322 z m 29.08338,-14.48811 c 6.86549,0 11.64361,1.51894 13.82183,4.39839 0.94817,1.25801 1.42109,2.80956 1.42109,4.63834 0,1.19278 -0.20035,2.50437 -0.60571,3.93012 0,0 -1.28364,4.51487 -1.80548,6.35296 -2.05708,0 -11.31512,0 -14.69778,0 0.79208,-2.7816 2.21084,-7.77638 2.21084,-7.77638 0.20501,-0.73151 0.45428,-1.60746 0.45428,-2.4904 0,-0.72918 -0.16773,-1.46302 -0.66861,-2.11998 -1.12755,-1.49564 -3.17065,-1.49564 -3.84392,-1.49564 -2.68842,0 -4.74318,1.79849 -5.6331,4.93654 l -8.88996,31.27558 c -0.54048,1.91498 -0.39837,3.44556 0.43332,4.54282 0.4869,0.64532 1.43274,1.41177 3.16367,1.41177 4.73385,0 5.68435,-3.33839 6.37393,-5.77288 0,0 2.17123,-7.62961 2.76296,-9.71465 2.05476,0 11.3128,0 14.70011,0 -0.73151,2.57194 -1.88702,6.63252 -1.88702,6.63252 -2.50903,8.81541 -11.6436,14.29009 -23.84399,14.29009 -7.77871,0 -12.83173,-1.47234 -15.01694,-4.36577 -1.67502,-2.2155 -1.83344,-5.43275 -0.49855,-10.127 l 6.54866,-23.03793 0,0 c 2.92138,-10.2924 11.49916,-15.5085 25.50037,-15.5085 z"
   style="fill:#ed1c24" /><path
   id="path129"
   d="m 409.38285,231.66998 h 17.96162 l -6.06642,21.36058 h 0.20035 l 14.44385,-21.36058 h 17.65644 l -17.76826,24.18179 3.80199,30.28549 H 419.836 l -0.95982,-23.95349 h -0.20035 l -6.80957,23.95349 h -17.95929 l 15.47588,-54.46728 z"
   style="fill:#f5e100" /><path
   id="path131"
   d="m 434.93448,229.80859 c 0,0 -4.78744,7.07981 -8.84336,13.07401 1.52359,-5.35587 3.71579,-13.07401 3.71579,-13.07401 H 407.9804 l -16.53821,58.18773 h 21.82885 c 0,0 2.31101,-8.13049 4.18638,-14.72573 0.2586,6.42751 0.59174,14.72573 0.59174,14.72573 h 23.67392 c 0,0 -3.79966,-30.23889 -3.97438,-31.64134 0.83401,-1.13687 19.50385,-26.54639 19.50385,-26.54639 h -22.31807 z m 14.97267,3.72278 c -3.3547,4.56146 -16.03266,21.81487 -16.03266,21.81487 0,0 3.17298,25.30468 3.63425,28.92962 -3.02855,0 -13.27203,0 -15.88357,0 -0.12114,-3.05883 -0.96214,-23.95348 -0.96214,-23.95348 h -3.39198 c 0,0 -6.12465,21.54695 -6.80724,23.95348 -2.03379,0 -10.75834,0 -14.0944,0 1.19977,-4.22366 13.72398,-48.29136 14.42288,-50.74449 2.03146,0 10.75367,0 14.08974,0 -1.06233,3.74375 -6.06642,21.35826 -6.06642,21.35826 h 3.65057 c 0,0 13.42345,-19.84864 14.44384,-21.35826 1.3745,0 8.71057,0 12.99713,0 z"
   style="fill:#ed1c24" /><rect
   style="fill:none"
   x="1.2320824e-05"
   y="0.0023504959"
   width="699.99768"
   height="349.99765"
   id="rect133" />

</svg>