<?xml version="1.0" encoding="UTF-8" standalone="yes"?>
<svg xmlns="http://www.w3.org/2000/svg" xmlns:xlink="http://www.w3.org/1999/xlink" width="213.33333333333331px" height="106.66666666666666px" viewBox="0 0 160 80" version="1.1">
  <g id="surface1">
    <path style=" stroke:none;fill-rule:nonzero;fill:rgb(92.941176%,10.980392%,14.117647%);fill-opacity:1;" d="M 108.394531 13.046875 L 109.105469 12.839844 L 109.785156 12.84375 L 110.371094 13.394531 L 111.019531 13.574219 L 111.730469 13.394531 L 112.433594 13.285156 L 113.054688 13.617188 L 113.667969 13.960938 L 114.445312 13.480469 L 114.945312 14.382812 L 115.691406 14.089844 L 116.289062 14.480469 L 117.035156 14.199219 L 117.621094 14.660156 L 118.339844 14.515625 L 118.953125 14.839844 L 119.652344 14.800781 L 120.160156 15.554688 L 120.941406 15.175781 L 121.671875 15.023438 L 122.320312 15.183594 L 122.941406 15.449219 L 123.480469 16.03125 L 124.046875 16.484375 L 124.824219 16.183594 L 125.332031 16.851562 L 126.183594 16.292969 L 126.742188 16.765625 L 127.398438 16.910156 L 127.980469 17.296875 L 128.738281 17.117188 L 129.246094 17.734375 L 129.898438 17.894531 L 130.601562 17.894531 L 131.121094 18.464844 L 131.835938 18.4375 L 132.617188 18.246094 L 132.988281 19.210938 L 133.664062 19.296875 L 134.410156 19.214844 L 135.132812 19.210938 L 135.523438 20.070312 L 136.125 20.359375 L 136.972656 20.050781 L 137.480469 20.589844 L 138.007812 21.070312 L 138.644531 21.285156 L 139.34375 21.355469 L 140.03125 21.472656 L 140.636719 21.761719 L 141.132812 22.289062 L 141.898438 22.253906 L 142.515625 22.523438 L 142.859375 23.332031 L 143.714844 23.148438 L 144.367188 23.359375 L 144.675781 24.191406 L 145.382812 24.304688 L 145.789062 24.941406 L 146.679688 24.769531 L 147.019531 25.496094 L 147.644531 25.765625 L 148.246094 26.074219 L 148.851562 26.382812 L 149.195312 27.054688 L 149.972656 27.132812 L 150.324219 27.78125 L 150.871094 28.171875 L 151.5 28.464844 L 152.179688 28.710938 L 152.613281 29.242188 L 153.085938 29.726562 L 153.460938 30.3125 L 154.042969 30.6875 L 154.515625 31.175781 L 155.105469 31.5625 L 155.320312 32.265625 L 155.402344 33.054688 L 155.855469 33.542969 L 156.757812 33.738281 L 156.84375 34.492188 L 157.394531 34.953125 L 157.21875 35.816406 L 158.152344 36.097656 L 158.375 36.753906 L 158.023438 37.628906 L 158.785156 38.058594 L 158.867188 38.746094 L 158.597656 39.515625 L 159.265625 40.042969 L 159.511719 40.6875 L 159.371094 41.394531 L 159.003906 42.105469 L 159.394531 42.742188 L 159.347656 43.410156 L 159.601562 44.082031 L 159.738281 44.769531 L 159.421875 45.421875 L 159.746094 46.144531 L 159.378906 46.777344 L 158.667969 47.320312 L 158.917969 48.054688 L 159.007812 48.78125 L 158.214844 49.234375 L 158.691406 50.113281 L 157.777344 50.472656 L 157.859375 51.234375 L 157.675781 51.894531 L 157.578125 52.613281 L 157.191406 53.179688 L 156.257812 53.390625 L 156.328125 54.238281 L 155.460938 54.445312 L 155.128906 55.019531 L 155.054688 55.8125 L 154.871094 56.546875 L 153.886719 56.566406 L 153.722656 57.328125 L 153.300781 57.859375 L 152.84375 58.359375 L 152.347656 58.816406 L 151.703125 59.105469 L 151.308594 59.679688 L 150.878906 60.21875 L 150.023438 60.21875 L 149.679688 60.871094 L 149.171875 61.320312 L 148.597656 61.671875 L 148.121094 62.167969 L 147.589844 62.589844 L 146.945312 62.832031 L 146.226562 62.945312 L 145.804688 63.546875 L 144.949219 63.414062 L 144.402344 63.800781 L 143.867188 64.210938 L 143.246094 64.46875 L 142.628906 64.730469 L 142.136719 65.226562 L 141.550781 65.550781 L 141.140625 66.246094 L 140.390625 66.234375 L 139.769531 66.488281 L 139.25 66.96875 L 138.464844 66.84375 L 137.984375 67.425781 L 137.402344 67.777344 L 136.789062 68.054688 L 136.148438 68.269531 L 135.335938 68.035156 L 134.683594 68.199219 L 134.304688 69.097656 L 133.460938 68.75 L 132.914062 69.210938 L 132.332031 69.570312 L 131.667969 69.707031 L 131.050781 69.988281 L 130.320312 69.917969 L 129.675781 70.097656 L 129.015625 70.238281 L 128.488281 70.796875 L 127.902344 71.1875 L 127.085938 70.800781 L 126.503906 71.203125 L 125.765625 71.058594 L 125.097656 71.15625 L 124.527344 71.605469 L 123.8125 71.527344 L 123.28125 72.136719 L 122.511719 71.855469 L 121.859375 72.015625 L 121.292969 72.519531 L 120.597656 72.511719 L 120.011719 72.953125 L 119.3125 72.933594 L 118.636719 73.003906 L 118.128906 73.792969 L 117.429688 73.757812 L 116.757812 73.84375 L 115.988281 73.472656 L 115.410156 73.988281 L 114.753906 74.140625 L 114.171875 74.636719 L 113.488281 74.648438 L 112.730469 74.285156 L 112.109375 74.597656 L 111.390625 74.429688 L 110.71875 74.46875 L 110.167969 75.15625 L 109.507812 75.277344 L 108.769531 74.929688 L 108.25 75.820312 L 107.449219 75.132812 L 106.925781 76.039062 L 106.226562 75.914062 L 105.480469 75.5 L 104.878906 75.957031 L 104.28125 76.4375 L 103.53125 75.996094 L 102.957031 76.625 L 102.296875 76.707031 L 101.652344 76.886719 L 100.929688 76.582031 L 100.339844 77.136719 L 99.566406 76.441406 L 98.953125 76.890625 L 98.277344 76.8125 L 97.675781 77.496094 L 96.984375 77.273438 L 96.320312 77.335938 L 95.648438 77.296875 L 94.992188 77.515625 L 94.289062 76.859375 L 93.652344 77.40625 L 92.988281 77.546875 L 92.332031 77.78125 L 91.652344 77.414062 L 90.976562 77.097656 L 90.308594 76.972656 L 89.660156 77.878906 L 88.984375 77.488281 L 88.316406 77.203125 L 87.648438 77.097656 L 86.988281 77.25 L 86.324219 77.242188 L 85.660156 77.710938 L 84.992188 77.847656 L 84.332031 77.195312 L 83.667969 77.089844 L 83 77.363281 L 82.332031 77.59375 L 81.667969 77.429688 L 80.992188 77.773438 L 80.335938 77.429688 L 79.664062 77.585938 L 79.007812 77.171875 L 78.347656 76.914062 L 77.675781 77.144531 L 76.992188 77.578125 L 76.34375 76.992188 L 75.679688 76.847656 L 74.992188 77.261719 L 74.3125 77.578125 L 73.652344 77.238281 L 73 76.875 L 72.316406 77.199219 L 71.644531 77.277344 L 71 76.738281 L 70.316406 77.03125 L 69.667969 76.585938 L 69 76.628906 L 68.296875 77.207031 L 67.632812 77.097656 L 66.964844 77.125 L 66.308594 76.824219 L 65.625 77.078125 L 64.964844 76.949219 L 64.320312 76.503906 L 63.648438 76.546875 L 63 76.257812 L 62.332031 76.210938 L 61.613281 76.988281 L 60.945312 76.953125 L 60.300781 76.609375 L 59.636719 76.546875 L 58.960938 76.613281 L 58.332031 76.0625 L 57.679688 75.804688 L 57.003906 75.929688 L 56.324219 76.050781 L 55.625 76.488281 L 54.953125 76.460938 L 54.300781 76.277344 L 53.671875 75.75 L 53.007812 75.710938 L 52.324219 75.859375 L 51.660156 75.800781 L 51.015625 75.480469 L 50.289062 76.15625 L 49.695312 75.292969 L 48.972656 75.929688 L 48.328125 75.65625 L 47.382812 75.398438 L 48.128906 74.933594 L 48.535156 74.375 L 48.640625 73.636719 L 49 73.050781 L 49.722656 72.683594 L 49.890625 71.980469 L 49.941406 71.207031 L 50.722656 70.878906 L 50.710938 70.066406 L 51.234375 69.574219 L 51.382812 68.855469 L 52.402344 68.492188 L 51.382812 67.910156 L 50.636719 68.246094 L 49.9375 68.328125 L 49.394531 67.660156 L 48.738281 67.546875 L 47.996094 67.828125 L 47.292969 67.917969 L 46.824219 66.949219 L 46.136719 66.972656 L 45.332031 67.476562 L 44.824219 66.722656 L 44.183594 66.527344 L 43.535156 66.371094 L 42.855469 66.34375 L 42.285156 65.875 L 41.441406 66.488281 L 40.863281 66.046875 L 40.1875 66 L 39.550781 65.785156 L 39.074219 64.996094 L 38.402344 64.917969 L 37.683594 65.015625 L 36.921875 65.253906 L 36.527344 64.210938 L 35.882812 64.046875 L 35.058594 64.492188 L 34.40625 64.355469 L 33.886719 63.785156 L 33.226562 63.664062 L 32.636719 63.3125 L 31.859375 63.566406 L 31.242188 63.304688 L 30.648438 62.96875 L 30.023438 62.738281 L 29.507812 62.183594 L 28.746094 62.339844 L 28.0625 62.277344 L 27.457031 61.980469 L 27.003906 61.277344 L 26.433594 60.890625 L 25.652344 61.078125 L 25.089844 60.675781 L 24.425781 60.542969 L 23.929688 59.980469 L 23.277344 59.820312 L 22.550781 59.824219 L 21.871094 59.722656 L 21.453125 58.996094 L 20.683594 59.089844 L 19.953125 59.085938 L 19.46875 58.53125 L 18.820312 58.335938 L 18.402344 57.65625 L 17.777344 57.421875 L 16.984375 57.511719 L 16.535156 56.914062 L 16.054688 56.390625 L 15.292969 56.410156 L 14.859375 55.808594 L 14.246094 55.542969 L 13.605469 55.320312 L 13.03125 54.980469 L 12.214844 55.035156 L 11.957031 54.183594 L 10.992188 54.453125 L 10.496094 53.980469 L 10.046875 53.445312 L 9.390625 53.207031 L 8.878906 52.765625 L 8.734375 51.847656 L 7.796875 51.960938 L 7.539062 51.21875 L 6.816406 51.03125 L 6.335938 50.5625 L 5.980469 49.957031 L 5.554688 49.4375 L 4.78125 49.253906 L 4.304688 48.769531 L 3.796875 48.308594 L 4 47.285156 L 3.257812 47.015625 L 2.578125 46.664062 L 2.691406 45.792969 L 2.015625 45.414062 L 1.667969 44.828125 L 1.695312 44.074219 L 1.351562 43.496094 L 1.25 42.824219 L 0.511719 42.339844 L 0.546875 41.625 L 0.328125 40.96875 L 0.296875 40.28125 L 0.28125 39.601562 L 0.703125 38.925781 L 0.734375 38.265625 L 0.507812 37.578125 L 1.113281 36.988281 L 1.234375 36.351562 L 1.234375 35.683594 L 1.519531 35.082031 L 0.878906 34.191406 L 1.304688 33.621094 L 1.832031 33.105469 L 2.421875 32.640625 L 2.601562 32 L 2.625 31.269531 L 2.785156 30.59375 L 3.125 30.011719 L 3.609375 29.527344 L 3.746094 28.808594 L 4.058594 28.199219 L 4.617188 27.777344 L 5.132812 27.328125 L 5.679688 26.914062 L 5.800781 26.136719 L 6.550781 25.910156 L 7.277344 25.683594 L 7.171875 24.648438 L 7.597656 24.125 L 8.621094 24.226562 L 8.886719 23.535156 L 9.546875 23.273438 L 9.945312 22.71875 L 10.074219 21.832031 L 10.683594 21.515625 L 11.132812 21 L 11.859375 20.839844 L 12.550781 20.648438 L 12.894531 19.988281 L 13.707031 19.976562 L 14.296875 19.664062 L 14.878906 19.335938 L 15.136719 18.523438 L 15.820312 18.347656 L 16.367188 17.960938 L 17.101562 17.886719 L 17.667969 17.539062 L 18.035156 16.851562 L 18.574219 16.453125 L 19.402344 16.558594 L 19.992188 16.246094 L 20.367188 15.550781 L 21.042969 15.398438 L 21.351562 14.539062 L 22.132812 14.59375 L 22.910156 14.65625 L 23.515625 14.386719 L 24 13.863281 L 24.53125 13.433594 L 25.203125 13.300781 L 25.839844 13.085938 L 26.265625 12.414062 L 27.019531 12.46875 L 27.457031 11.792969 L 28.253906 11.964844 L 28.914062 11.816406 L 29.566406 11.65625 L 29.914062 10.726562 L 30.527344 10.464844 L 31.445312 10.984375 L 31.792969 10.019531 L 32.410156 9.757812 L 33.289062 10.210938 L 33.824219 9.738281 L 34.382812 9.308594 L 34.96875 8.957031 L 35.832031 9.425781 L 36.246094 8.554688 L 36.863281 8.28125 L 37.449219 7.921875 L 38.367188 8.613281 L 38.921875 8.140625 L 39.441406 7.554688 L 40.039062 7.203125 L 40.769531 7.324219 L 41.328125 6.832031 L 42.128906 7.226562 L 42.8125 7.195312 L 43.433594 6.945312 L 43.945312 6.257812 L 44.714844 6.5625 L 45.324219 6.246094 L 45.953125 6.003906 L 46.621094 5.925781 L 47.277344 5.800781 L 47.8125 5.132812 L 48.535156 5.289062 L 49.214844 5.277344 L 49.851562 5.042969 L 50.535156 5.046875 L 51.105469 4.484375 L 51.878906 4.949219 L 52.515625 4.722656 L 53.09375 4.167969 L 53.898438 4.871094 L 54.535156 4.640625 L 55.175781 4.40625 L 55.808594 4.136719 L 56.515625 4.332031 L 57.140625 4.007812 L 57.765625 3.648438 L 58.449219 3.691406 L 59.171875 4.0625 L 59.738281 3.199219 L 60.445312 3.480469 L 61.160156 3.816406 L 61.820312 3.734375 L 62.394531 2.816406 L 63.070312 2.808594 L 63.804688 3.433594 L 64.40625 2.691406 L 65.085938 2.75 L 65.738281 2.464844 L 66.421875 2.628906 L 67.101562 2.710938 L 67.757812 2.5 L 68.441406 2.695312 L 69.113281 2.664062 L 69.777344 2.5625 L 70.445312 2.4375 L 71.136719 3.039062 L 71.796875 2.871094 L 72.460938 2.609375 L 73.136719 2.984375 L 73.800781 2.664062 L 74.46875 2.535156 L 75.140625 2.097656 L 75.804688 2.949219 L 76.476562 2.597656 L 77.140625 2.175781 L 77.8125 2.5625 L 78.480469 2.574219 L 79.148438 2.144531 L 79.8125 2.972656 L 80.484375 2.121094 L 81.148438 2.363281 L 81.816406 2.507812 L 82.484375 2.457031 L 83.148438 2.425781 L 83.808594 2.738281 L 84.472656 2.933594 L 85.132812 3.085938 L 85.8125 2.449219 L 86.480469 2.445312 L 87.808594 2.585938 L 88.445312 3.15625 L 89.117188 2.992188 L 89.792969 2.792969 L 90.464844 2.714844 L 91.125 2.75 L 91.757812 3.277344 L 92.445312 2.964844 L 93.09375 3.191406 L 93.800781 2.710938 L 94.414062 3.339844 L 95.117188 2.960938 L 95.753906 3.285156 L 96.414062 3.355469 L 97.097656 3.222656 L 97.746094 3.398438 L 98.398438 3.535156 L 99.066406 3.542969 L 99.742188 3.507812 L 100.300781 4.273438 L 100.957031 4.347656 L 101.671875 4.074219 L 102.355469 4.023438 L 103.070312 3.839844 L 103.628906 4.433594 L 104.25 4.699219 L 105.003906 4.402344 L 105.515625 5.101562 L 106.148438 5.285156 L 106.960938 4.816406 L 107.398438 5.738281 L 108.046875 5.890625 L 108.773438 5.699219 L 109.652344 5.890625 L 108.679688 6.070312 L 108.882812 7.082031 L 107.953125 7.207031 L 107.714844 7.871094 L 107.6875 8.703125 L 106.9375 8.96875 L 106.238281 9.277344 L 106.429688 10.273438 L 105.523438 10.421875 L 105.300781 11.101562 L 104.988281 11.714844 L 104.230469 12.089844 L 105.109375 12.4375 L 105.851562 11.949219 L 106.515625 12.035156 L 107.101562 12.660156 L 107.792969 12.570312 Z M 108.394531 13.046875 "/>
    <path style=" stroke:none;fill-rule:nonzero;fill:rgb(0%,0%,0%);fill-opacity:1;" d="M 75.800781 2.019531 C 48.914062 1.761719 19.914062 11.308594 6.855469 24.71875 C 2.304688 29.390625 0 34.210938 0 39.058594 C 0 39.242188 0.00390625 39.425781 0.0117188 39.609375 C 0.316406 48.050781 9.171875 55.550781 26.335938 61.910156 C 37.265625 65.957031 48.230469 68.21875 51.121094 68.777344 C 50.472656 69.847656 46.792969 75.910156 46.792969 75.910156 L 47.632812 75.988281 C 48.019531 76.023438 86.480469 79.589844 101.019531 77.125 L 102.910156 76.816406 C 109.683594 75.71875 123.78125 73.441406 136.394531 68.421875 C 152.058594 62.191406 160 53.867188 160 43.683594 C 160 43.589844 160 43.496094 159.996094 43.402344 C 159.914062 37.535156 156.90625 32.207031 151.050781 27.570312 C 146.429688 23.90625 140.019531 20.65625 132.007812 17.917969 C 120.394531 13.945312 108.71875 12.199219 105.453125 11.761719 C 106.34375 10.621094 110.402344 5.410156 110.402344 5.410156 L 109.5 5.285156 C 108.894531 5.199219 108.207031 5.011719 107.339844 4.777344 C 103.542969 3.746094 96.476562 1.828125 75.800781 2.019531 Z M 107.0625 5.792969 C 107.597656 5.9375 108.054688 6.054688 108.484375 6.15625 C 107.644531 7.230469 103.476562 12.585938 103.476562 12.585938 L 104.40625 12.691406 C 104.949219 12.753906 158.597656 19.171875 158.941406 43.417969 C 158.945312 43.503906 158.945312 43.59375 158.945312 43.679688 C 158.945312 53.394531 151.226562 61.386719 136.003906 67.445312 C 123.496094 72.417969 109.480469 74.6875 102.742188 75.773438 L 100.84375 76.085938 C 87.621094 78.328125 54.253906 75.519531 48.570312 75.011719 C 49.277344 73.847656 52.816406 68.015625 52.816406 68.015625 L 52.058594 67.882812 C 51.554688 67.792969 1.753906 58.707031 1.0625 39.570312 C 1.058594 39.402344 1.054688 39.230469 1.054688 39.058594 C 1.054688 34.496094 3.257812 29.921875 7.609375 25.453125 C 13.757812 19.140625 23.984375 13.40625 36.410156 9.300781 C 48.941406 5.164062 62.929688 2.953125 75.800781 3.074219 C 96.339844 2.882812 103.316406 4.777344 107.0625 5.792969 Z M 107.0625 5.792969 "/>
    <path style=" stroke:none;fill-rule:nonzero;fill:rgb(92.941176%,10.980392%,14.117647%);fill-opacity:1;" d="M 153.109375 39.863281 C 153.109375 22.527344 120.335938 8.472656 79.90625 8.472656 C 39.476562 8.472656 6.703125 22.527344 6.703125 39.863281 C 6.703125 57.199219 39.476562 71.25 79.90625 71.25 C 120.335938 71.25 153.109375 57.199219 153.109375 39.863281 Z M 153.109375 39.863281 "/>
    <path style=" stroke:none;fill-rule:nonzero;fill:rgb(0%,0%,0%);fill-opacity:1;" d="M 27.796875 17.144531 C 13.679688 23.203125 5.902344 31.320312 5.902344 40.003906 C 5.902344 48.6875 13.679688 56.804688 27.796875 62.863281 C 41.753906 68.851562 60.289062 72.148438 80 72.148438 C 99.707031 72.148438 118.246094 68.851562 132.199219 62.863281 C 146.316406 56.804688 154.09375 48.6875 154.09375 40.003906 C 154.09375 31.320312 146.316406 23.203125 132.199219 17.144531 C 118.246094 11.15625 99.707031 7.859375 80 7.859375 C 60.289062 7.859375 41.753906 11.15625 27.796875 17.144531 Z M 7.132812 40.003906 C 7.132812 22.957031 39.820312 9.089844 80 9.089844 C 120.175781 9.089844 152.863281 22.957031 152.863281 40.003906 C 152.863281 57.050781 120.175781 70.917969 80 70.917969 C 39.820312 70.917969 7.132812 57.050781 7.132812 40.003906 Z M 7.132812 40.003906 "/>
    <path style=" stroke:none;fill-rule:nonzero;fill:rgb(0%,0%,0%);fill-opacity:1;" d="M 141.628906 40.058594 C 141.628906 22.703125 113.523438 8.636719 78.851562 8.636719 C 44.179688 8.636719 16.070312 22.703125 16.070312 40.058594 C 16.070312 57.417969 44.179688 71.484375 78.851562 71.484375 C 113.523438 71.484375 141.628906 57.417969 141.628906 40.058594 Z M 141.628906 40.058594 "/>
    <path style=" stroke:none;fill-rule:nonzero;fill:rgb(92.941176%,10.980392%,14.117647%);fill-opacity:1;" d="M 15.90625 40.164062 C 15.90625 57.59375 44.160156 71.773438 78.886719 71.773438 C 113.613281 71.773438 141.867188 57.59375 141.867188 40.164062 C 141.867188 22.734375 113.613281 8.554688 78.886719 8.554688 C 44.160156 8.554688 15.90625 22.734375 15.90625 40.164062 Z M 16.613281 40.164062 C 16.613281 23.125 44.550781 9.265625 78.886719 9.265625 C 113.222656 9.265625 141.160156 23.128906 141.160156 40.164062 C 141.160156 57.203125 113.222656 71.0625 78.886719 71.0625 C 44.550781 71.0625 16.613281 57.199219 16.613281 40.164062 Z M 16.613281 40.164062 "/>
    <path style=" stroke:none;fill-rule:nonzero;fill:rgb(0%,0%,0%);fill-opacity:1;" d="M 15.101562 17.960938 L 5.828125 49.964844 L 20.078125 49.964844 C 24.273438 49.964844 27.074219 49.785156 28.632812 49.410156 C 30.40625 48.980469 31.882812 48.15625 33.015625 46.949219 C 34.109375 45.789062 34.953125 44.140625 35.597656 41.917969 L 36.34375 39.332031 C 36.652344 38.261719 36.808594 37.300781 36.808594 36.4375 C 36.808594 35.332031 36.554688 34.390625 36.042969 33.589844 C 35.949219 33.445312 35.839844 33.304688 35.730469 33.171875 C 35.800781 33.125 35.890625 33.082031 35.957031 33.035156 C 37.222656 32.117188 38.171875 30.601562 38.769531 28.53125 C 39.175781 27.128906 39.378906 25.890625 39.378906 24.804688 C 39.378906 23.546875 39.105469 22.492188 38.5625 21.621094 C 37.585938 20.066406 36.050781 19.03125 33.996094 18.550781 C 32.3125 18.152344 29.882812 17.960938 26.566406 17.960938 Z M 26.566406 22.121094 C 29.515625 22.121094 31.695312 22.28125 33.042969 22.597656 C 34.007812 22.824219 34.65625 23.230469 35.035156 23.832031 C 35.082031 23.90625 35.21875 24.179688 35.21875 24.816406 C 35.21875 25.367188 35.117188 26.183594 34.773438 27.375 C 34.445312 28.5 34 29.316406 33.519531 29.664062 C 33.171875 29.914062 32.234375 30.390625 29.84375 30.769531 L 29.816406 34.875 C 32.125 35.277344 32.539062 35.832031 32.542969 35.835938 C 32.597656 35.921875 32.648438 36.117188 32.648438 36.441406 C 32.648438 36.824219 32.574219 37.394531 32.347656 38.171875 L 31.601562 40.757812 C 31.039062 42.699219 30.410156 43.648438 29.984375 44.101562 C 29.410156 44.710938 28.648438 45.125 27.660156 45.363281 C 26.820312 45.5625 24.824219 45.804688 20.078125 45.804688 C 20.078125 45.804688 14.554688 45.804688 11.367188 45.804688 C 12.550781 41.710938 17.527344 24.539062 18.226562 22.121094 C 20.445312 22.121094 26.566406 22.121094 26.566406 22.121094 Z M 26.566406 22.121094 "/>
    <path style=" stroke:none;fill-rule:nonzero;fill:rgb(0%,0%,0%);fill-opacity:1;" d="M 17.128906 45.226562 L 19.96875 45.15625 C 21.816406 45.109375 23.003906 44.867188 23.816406 44.371094 C 24.761719 43.792969 25.429688 42.742188 25.914062 41.066406 L 26.664062 38.480469 C 26.949219 37.5 27.539062 35.464844 26.183594 34.210938 C 25.457031 33.546875 24.382812 33.285156 22.214844 33.234375 L 20.613281 33.195312 Z M 17.128906 45.226562 "/>
    <path style=" stroke:none;fill-rule:nonzero;fill:rgb(0%,0%,0%);fill-opacity:1;" d="M 20.628906 33.140625 L 24.40625 33.074219 C 25.949219 33.074219 27.074219 32.714844 27.847656 31.980469 C 28.53125 31.332031 29.0625 30.199219 29.679688 28.066406 C 30.066406 26.730469 30.121094 25.78125 29.851562 24.992188 C 29.515625 24.003906 28.757812 23.28125 27.777344 23.003906 C 27.394531 22.898438 26.800781 22.789062 25.222656 22.769531 L 23.636719 22.75 Z M 20.628906 33.140625 "/>
    <path style=" stroke:none;fill-rule:nonzero;fill:rgb(0%,0%,0%);fill-opacity:1;" d="M 44.773438 17.960938 L 29.671875 49.964844 L 44.664062 49.964844 C 44.664062 49.964844 45.660156 47.46875 46.128906 46.289062 C 46.046875 46.742188 45.460938 49.964844 45.460938 49.964844 L 59.988281 49.964844 L 62.71875 17.960938 Z M 58.191406 22.121094 C 57.886719 25.652344 56.425781 42.789062 56.167969 45.804688 C 54.414062 45.804688 52.570312 45.804688 50.445312 45.804688 C 50.675781 44.542969 51.347656 40.828125 51.347656 40.828125 L 43.824219 40.828125 C 43.824219 40.828125 42.410156 44.382812 41.84375 45.804688 C 40.519531 45.804688 38.671875 45.804688 36.238281 45.804688 C 38.363281 41.292969 46.496094 24.0625 47.410156 22.121094 C 49.207031 22.121094 55.324219 22.121094 58.191406 22.121094 Z M 58.191406 22.121094 "/>
    <path style=" stroke:none;fill-rule:nonzero;fill:rgb(0%,0%,0%);fill-opacity:1;" d="M 44.730469 37.160156 L 43.601562 40.011719 L 51.859375 40.011719 L 52.105469 38.214844 C 52.535156 35.105469 53.152344 31.179688 53.9375 26.550781 L 50 25.320312 C 47.496094 30.679688 45.722656 34.664062 44.730469 37.160156 Z M 44.730469 37.160156 "/>
    <path style=" stroke:none;fill-rule:nonzero;fill:rgb(0%,0%,0%);fill-opacity:1;" d="M 80.113281 17.960938 C 80.113281 17.960938 79.078125 21.535156 78.679688 22.90625 C 78.5 21.703125 77.929688 17.960938 77.929688 17.960938 L 66.320312 17.960938 L 57.050781 49.964844 L 69.726562 49.964844 C 69.726562 49.964844 70.699219 46.617188 70.984375 45.632812 C 71.078125 46.425781 71.503906 49.964844 71.503906 49.964844 L 83.519531 49.964844 L 92.789062 17.960938 Z M 87.253906 22.121094 C 86.066406 26.214844 81.09375 43.386719 80.394531 45.804688 C 78.847656 45.804688 76.945312 45.804688 75.195312 45.804688 C 74.871094 43.125 73.898438 34.980469 73.898438 34.980469 L 69.832031 34.648438 C 69.832031 34.648438 67.277344 43.472656 66.601562 45.804688 C 65.378906 45.804688 64.367188 45.804688 62.585938 45.804688 C 63.773438 41.714844 68.746094 24.539062 69.445312 22.121094 C 70.953125 22.121094 72.6875 22.121094 74.351562 22.121094 C 74.75 24.730469 75.988281 32.890625 75.988281 32.890625 L 80.042969 33.160156 C 80.042969 33.160156 82.566406 24.449219 83.238281 22.121094 C 84.460938 22.121094 85.472656 22.121094 87.253906 22.121094 Z M 87.253906 22.121094 "/>
    <path style=" stroke:none;fill-rule:nonzero;fill:rgb(0%,0%,0%);fill-opacity:1;" d="M 92.488281 17.960938 L 83.214844 49.964844 L 98.472656 49.964844 C 100.972656 49.964844 102.839844 49.863281 104.183594 49.65625 C 105.625 49.4375 106.929688 49.035156 108.0625 48.460938 C 109.316406 47.824219 110.339844 46.921875 111.101562 45.785156 C 111.804688 44.742188 112.503906 42.960938 113.304688 40.191406 L 116.128906 30.441406 C 117.21875 26.683594 117.386719 25.339844 117.417969 24.652344 C 117.484375 23.207031 116.972656 21.84375 115.941406 20.707031 C 114.960938 19.628906 113.484375 18.902344 111.425781 18.484375 C 109.683594 18.132812 106.421875 17.960938 101.457031 17.960938 Z M 101.457031 22.121094 C 107.210938 22.121094 109.609375 22.363281 110.605469 22.5625 C 112.15625 22.875 112.703125 23.328125 112.863281 23.507812 C 113.203125 23.878906 113.265625 24.164062 113.265625 24.394531 C 113.265625 24.417969 113.265625 24.441406 113.261719 24.460938 C 113.242188 24.875 113.070312 26.046875 112.132812 29.285156 L 109.308594 39.035156 C 108.445312 42.027344 107.898438 43.097656 107.648438 43.46875 C 107.28125 44.015625 106.800781 44.433594 106.179688 44.75 C 105.441406 45.125 104.558594 45.390625 103.550781 45.546875 C 102.433594 45.71875 100.726562 45.804688 98.472656 45.804688 C 98.472656 45.804688 92.105469 45.804688 88.753906 45.804688 C 89.9375 41.714844 94.914062 24.539062 95.613281 22.121094 C 97.558594 22.121094 101.457031 22.121094 101.457031 22.121094 Z M 101.457031 22.121094 "/>
    <path style=" stroke:none;fill-rule:nonzero;fill:rgb(0%,0%,0%);fill-opacity:1;" d="M 101.019531 22.769531 L 94.535156 45.15625 L 97.304688 45.15625 C 99.300781 45.15625 100.632812 44.777344 101.496094 43.96875 C 102.257812 43.257812 102.867188 41.960938 103.542969 39.632812 L 106.660156 28.867188 C 107.214844 26.957031 107.285156 26.289062 107.277344 25.847656 C 107.257812 24.714844 106.632812 23.742188 105.605469 23.234375 C 104.9375 22.90625 104.035156 22.769531 102.582031 22.769531 Z M 101.019531 22.769531 "/>
    <path style=" stroke:none;fill-rule:nonzero;fill:rgb(0%,0%,0%);fill-opacity:1;" d="M 119.195312 17.960938 L 109.925781 49.964844 L 124.183594 49.964844 L 133.453125 17.960938 Z M 127.917969 22.121094 C 126.730469 26.214844 121.757812 43.386719 121.058594 45.804688 C 119.574219 45.804688 117.710938 45.804688 115.460938 45.804688 C 116.648438 41.714844 121.621094 24.539062 122.320312 22.121094 C 123.804688 22.121094 125.664062 22.121094 127.917969 22.121094 Z M 127.917969 22.121094 "/>
    <path style=" stroke:none;fill-rule:nonzero;fill:rgb(0%,0%,0%);fill-opacity:1;" d="M 131.359375 17.960938 L 128.539062 27.691406 C 128.539062 27.691406 132.875 27.691406 134.425781 27.691406 C 133.230469 31.816406 127.976562 49.964844 127.976562 49.964844 L 142.230469 49.964844 C 142.230469 49.964844 147.925781 30.304688 148.683594 27.691406 C 150.386719 27.691406 154.65625 27.691406 154.65625 27.691406 L 157.472656 17.960938 Z M 151.9375 22.121094 C 151.734375 22.824219 151.691406 22.976562 151.53125 23.53125 C 149.828125 23.53125 145.558594 23.53125 145.558594 23.53125 C 145.558594 23.53125 139.863281 43.195312 139.105469 45.804688 C 137.621094 45.804688 135.761719 45.804688 133.511719 45.804688 C 134.707031 41.679688 139.960938 23.53125 139.960938 23.53125 C 139.960938 23.53125 135.628906 23.53125 134.074219 23.53125 C 134.28125 22.828125 134.324219 22.675781 134.484375 22.121094 C 136.808594 22.121094 148.066406 22.121094 151.9375 22.121094 Z M 151.9375 22.121094 "/>
    <path style=" stroke:none;fill-rule:nonzero;fill:rgb(96.078431%,88.235294%,0%);fill-opacity:1;" d="M 16.664062 20.042969 L 26.566406 20.042969 C 29.695312 20.042969 32.011719 20.21875 33.519531 20.574219 C 35.027344 20.929688 36.121094 21.644531 36.796875 22.726562 C 37.476562 23.808594 37.46875 25.550781 36.773438 27.953125 C 36.300781 29.574219 35.625 30.707031 34.738281 31.347656 C 33.851562 31.988281 32.328125 32.480469 30.171875 32.824219 C 32.355469 33.203125 33.726562 33.832031 34.289062 34.710938 C 34.851562 35.589844 34.871094 36.9375 34.347656 38.75 L 33.597656 41.335938 C 33.050781 43.222656 32.351562 44.617188 31.5 45.523438 C 30.648438 46.433594 29.527344 47.050781 28.144531 47.386719 C 26.757812 47.71875 24.070312 47.882812 20.078125 47.882812 L 8.597656 47.882812 Z M 22.164062 35.3125 L 19.917969 43.074219 C 21.324219 43.042969 22.261719 42.882812 22.730469 42.597656 C 23.195312 42.3125 23.59375 41.609375 23.917969 40.488281 L 24.667969 37.902344 C 25.011719 36.714844 25.046875 35.996094 24.773438 35.742188 C 24.5 35.492188 23.632812 35.347656 22.164062 35.3125 Z M 25.195312 24.851562 L 23.410156 31.011719 C 23.839844 31 24.171875 30.992188 24.40625 30.992188 C 25.378906 30.992188 26.050781 30.820312 26.417969 30.472656 C 26.785156 30.125 27.207031 29.128906 27.683594 27.488281 C 27.933594 26.621094 28 26.011719 27.882812 25.664062 C 27.761719 25.316406 27.539062 25.097656 27.210938 25.003906 C 26.882812 24.914062 26.210938 24.863281 25.195312 24.851562 Z M 25.195312 24.851562 "/>
    <path style=" stroke:none;fill-rule:nonzero;fill:rgb(92.941176%,10.980392%,14.117647%);fill-opacity:1;" d="M 16.152344 19.363281 L 7.691406 48.566406 L 20.078125 48.566406 C 24.164062 48.566406 26.855469 48.394531 28.304688 48.046875 C 29.8125 47.683594 31.054688 46.992188 31.996094 45.992188 C 32.917969 45.007812 33.679688 43.507812 34.25 41.527344 L 35 38.941406 C 35.273438 38 35.410156 37.167969 35.410156 36.445312 C 35.410156 35.609375 35.230469 34.914062 34.863281 34.34375 C 34.488281 33.757812 33.847656 33.28125 32.953125 32.894531 C 33.867188 32.617188 34.601562 32.289062 35.136719 31.902344 C 36.144531 31.171875 36.914062 29.90625 37.425781 28.140625 C 37.796875 26.859375 37.984375 25.75 37.984375 24.808594 C 37.984375 23.820312 37.78125 23.011719 37.375 22.367188 C 36.601562 21.132812 35.359375 20.308594 33.675781 19.914062 C 32.101562 19.542969 29.773438 19.363281 26.566406 19.363281 Z M 26.566406 20.722656 C 29.625 20.722656 31.910156 20.894531 33.363281 21.238281 C 34.703125 21.550781 35.636719 22.15625 36.222656 23.089844 C 36.488281 23.515625 36.625 24.089844 36.625 24.808594 C 36.625 25.613281 36.453125 26.601562 36.117188 27.761719 C 35.695312 29.230469 35.09375 30.25 34.339844 30.796875 C 33.542969 31.371094 32.105469 31.828125 30.0625 32.152344 L 30.054688 33.496094 C 32.515625 33.921875 33.40625 34.59375 33.71875 35.078125 C 33.9375 35.421875 34.046875 35.878906 34.046875 36.449219 C 34.046875 37.035156 33.929688 37.742188 33.691406 38.5625 L 32.945312 41.148438 C 32.429688 42.917969 31.777344 44.234375 31.003906 45.058594 C 30.246094 45.863281 29.230469 46.425781 27.984375 46.722656 C 26.660156 47.042969 24 47.203125 20.078125 47.203125 C 20.078125 47.203125 11.039062 47.203125 9.503906 47.203125 C 9.96875 45.601562 16.910156 21.640625 17.175781 20.722656 C 18.09375 20.722656 26.566406 20.722656 26.566406 20.722656 Z M 26.566406 20.722656 "/>
    <path style=" stroke:none;fill-rule:nonzero;fill:rgb(92.941176%,10.980392%,14.117647%);fill-opacity:1;" d="M 19.003906 43.777344 L 19.933594 43.757812 C 21.5 43.71875 22.5 43.535156 23.085938 43.175781 C 23.707031 42.796875 24.195312 41.976562 24.570312 40.675781 L 25.320312 38.089844 C 25.765625 36.558594 25.738281 35.707031 25.234375 35.242188 C 24.921875 34.957031 24.335938 34.683594 22.183594 34.632812 L 21.660156 34.621094 Z M 22.671875 36.011719 C 23.726562 36.066406 24.128906 36.175781 24.265625 36.230469 C 24.269531 36.257812 24.273438 36.292969 24.273438 36.347656 C 24.273438 36.554688 24.230469 36.960938 24.011719 37.710938 L 23.261719 40.300781 C 22.890625 41.585938 22.515625 41.929688 22.375 42.015625 C 22.214844 42.113281 21.808594 42.265625 20.835938 42.347656 C 21.21875 41.023438 22.445312 36.792969 22.671875 36.011719 Z M 22.671875 36.011719 "/>
    <path style=" stroke:none;fill-rule:nonzero;fill:rgb(92.941176%,10.980392%,14.117647%);fill-opacity:1;" d="M 22.503906 31.707031 L 24.40625 31.675781 C 25.570312 31.675781 26.382812 31.441406 26.886719 30.964844 C 27.207031 30.664062 27.660156 30.015625 28.335938 27.675781 C 28.632812 26.648438 28.695312 25.941406 28.523438 25.445312 C 28.332031 24.882812 27.941406 24.503906 27.394531 24.351562 C 27.144531 24.28125 26.648438 24.1875 25.203125 24.171875 L 24.6875 24.164062 Z M 25.703125 25.546875 C 26.539062 25.570312 26.902344 25.625 27.027344 25.660156 C 27.109375 25.683594 27.179688 25.714844 27.238281 25.882812 C 27.242188 25.90625 27.257812 25.960938 27.257812 26.082031 C 27.257812 26.28125 27.21875 26.648438 27.027344 27.296875 C 26.414062 29.417969 26.046875 29.882812 25.949219 29.976562 C 25.84375 30.078125 25.480469 30.3125 24.40625 30.3125 C 24.40625 30.3125 24.335938 30.3125 24.320312 30.316406 C 24.664062 29.140625 25.496094 26.261719 25.703125 25.546875 Z M 25.703125 25.546875 "/>
    <path style=" stroke:none;fill-rule:nonzero;fill:rgb(96.078431%,88.235294%,0%);fill-opacity:1;" d="M 60.453125 20.042969 L 58.078125 47.886719 L 47.953125 47.886719 L 48.855469 42.90625 L 45.234375 42.90625 L 43.253906 47.886719 L 32.953125 47.886719 L 46.09375 20.042969 Z M 50.046875 37.929688 C 50.480469 34.769531 51.09375 30.859375 51.882812 26.203125 C 49.378906 31.5625 47.640625 35.46875 46.664062 37.929688 Z M 50.046875 37.929688 "/>
    <path style=" stroke:none;fill-rule:nonzero;fill:rgb(92.941176%,10.980392%,14.117647%);fill-opacity:1;" d="M 45.660156 19.363281 L 31.882812 48.566406 L 43.714844 48.566406 C 43.714844 48.566406 45.410156 44.304688 45.699219 43.585938 C 46.21875 43.585938 47.222656 43.585938 48.042969 43.585938 C 47.835938 44.714844 47.140625 48.566406 47.140625 48.566406 L 58.703125 48.566406 L 61.195312 19.363281 Z M 59.714844 20.722656 C 59.597656 22.089844 57.550781 46.046875 57.453125 47.203125 C 56.449219 47.203125 50.054688 47.203125 48.769531 47.203125 C 48.972656 46.078125 49.671875 42.226562 49.671875 42.226562 L 44.773438 42.226562 C 44.773438 42.226562 43.078125 46.488281 42.792969 47.203125 C 42.042969 47.203125 35.664062 47.203125 34.027344 47.203125 C 34.867188 45.421875 46.175781 21.453125 46.523438 20.722656 C 47.292969 20.722656 58.421875 20.722656 59.714844 20.722656 Z M 59.714844 20.722656 "/>
    <path style=" stroke:none;fill-rule:nonzero;fill:rgb(92.941176%,10.980392%,14.117647%);fill-opacity:1;" d="M 46.03125 37.679688 L 45.664062 38.609375 L 50.636719 38.609375 L 50.71875 38.023438 C 51.152344 34.898438 51.769531 30.960938 52.554688 26.316406 L 51.269531 25.914062 C 48.777344 31.246094 47.015625 35.203125 46.03125 37.679688 Z M 50.398438 31.046875 C 50.027344 33.355469 49.710938 35.433594 49.457031 37.25 C 48.941406 37.25 48.421875 37.25 47.675781 37.25 C 48.332031 35.65625 49.246094 33.574219 50.398438 31.046875 Z M 50.398438 31.046875 "/>
    <path style=" stroke:none;fill-rule:nonzero;fill:rgb(96.078431%,88.235294%,0%);fill-opacity:1;" d="M 90.019531 20.042969 L 81.957031 47.886719 L 73.347656 47.886719 L 71.832031 35.226562 L 68.164062 47.886719 L 59.820312 47.886719 L 67.882812 20.042969 L 76.140625 20.042969 L 78.042969 32.578125 L 81.675781 20.042969 Z M 90.019531 20.042969 "/>
    <path style=" stroke:none;fill-rule:nonzero;fill:rgb(92.941176%,10.980392%,14.117647%);fill-opacity:1;" d="M 81.164062 19.363281 C 81.164062 19.363281 79.253906 25.953125 78.253906 29.414062 C 77.722656 25.917969 76.726562 19.363281 76.726562 19.363281 L 67.375 19.363281 L 58.914062 48.566406 L 68.675781 48.566406 C 68.675781 48.566406 70.519531 42.210938 71.554688 38.632812 C 71.988281 42.246094 72.746094 48.566406 72.746094 48.566406 L 82.46875 48.566406 L 90.925781 19.363281 Z M 89.117188 20.722656 C 88.652344 22.324219 81.710938 46.285156 81.445312 47.203125 C 80.609375 47.203125 74.929688 47.203125 73.953125 47.203125 C 73.820312 46.117188 72.507812 35.148438 72.507812 35.148438 L 71.179688 35.039062 C 71.179688 35.039062 67.917969 46.296875 67.652344 47.203125 C 66.855469 47.203125 62.066406 47.203125 60.726562 47.203125 C 61.191406 45.601562 68.128906 21.640625 68.394531 20.722656 C 69.226562 20.722656 74.613281 20.722656 75.558594 20.722656 C 75.714844 21.773438 77.371094 32.683594 77.371094 32.683594 L 78.699219 32.769531 C 78.699219 32.769531 81.925781 21.628906 82.1875 20.722656 C 82.984375 20.722656 87.777344 20.722656 89.117188 20.722656 Z M 89.117188 20.722656 "/>
    <path style=" stroke:none;fill-rule:nonzero;fill:rgb(96.078431%,88.235294%,0%);fill-opacity:1;" d="M 94.050781 20.042969 L 101.457031 20.042969 C 106.238281 20.042969 109.425781 20.203125 111.015625 20.523438 C 112.609375 20.847656 113.738281 21.375 114.402344 22.105469 C 115.070312 22.839844 115.382812 23.65625 115.339844 24.554688 C 115.300781 25.457031 114.898438 27.226562 114.132812 29.863281 L 111.308594 39.613281 C 110.585938 42.113281 109.9375 43.785156 109.375 44.628906 C 108.808594 45.46875 108.054688 46.128906 107.121094 46.605469 C 106.183594 47.082031 105.097656 47.414062 103.867188 47.601562 C 102.636719 47.792969 100.839844 47.886719 98.472656 47.886719 L 85.984375 47.886719 Z M 102.582031 24.851562 L 97.304688 43.074219 C 98.707031 43.074219 99.628906 42.867188 100.074219 42.449219 C 100.519531 42.035156 101.007812 40.902344 101.542969 39.054688 L 104.660156 28.289062 C 105.027344 27.035156 105.203125 26.230469 105.199219 25.878906 C 105.191406 25.523438 105.019531 25.265625 104.683594 25.097656 C 104.347656 24.933594 103.644531 24.851562 102.582031 24.851562 Z M 102.582031 24.851562 "/>
    <path style=" stroke:none;fill-rule:nonzero;fill:rgb(92.941176%,10.980392%,14.117647%);fill-opacity:1;" d="M 93.539062 19.363281 L 85.082031 48.566406 L 98.472656 48.566406 C 100.902344 48.566406 102.699219 48.46875 103.972656 48.273438 C 105.265625 48.074219 106.429688 47.71875 107.425781 47.210938 C 108.46875 46.683594 109.3125 45.941406 109.9375 45.003906 C 110.550781 44.09375 111.210938 42.394531 111.960938 39.800781 L 114.785156 30.050781 C 115.574219 27.335938 115.976562 25.550781 116.019531 24.585938 C 116.070312 23.503906 115.695312 22.515625 114.90625 21.648438 C 114.132812 20.796875 112.902344 20.210938 111.152344 19.855469 C 109.5 19.523438 106.328125 19.359375 101.457031 19.359375 L 93.539062 19.359375 Z M 101.457031 20.722656 C 106.171875 20.722656 109.34375 20.878906 110.882812 21.191406 C 112.320312 21.480469 113.335938 21.945312 113.898438 22.5625 C 114.414062 23.128906 114.664062 23.730469 114.664062 24.402344 C 114.664062 24.441406 114.664062 24.484375 114.660156 24.527344 C 114.621094 25.367188 114.226562 27.101562 113.480469 29.671875 L 110.65625 39.421875 C 109.953125 41.84375 109.332031 43.46875 108.808594 44.246094 C 108.3125 44.988281 107.640625 45.578125 106.8125 46 C 105.941406 46.4375 104.917969 46.753906 103.765625 46.929688 C 102.578125 47.113281 100.796875 47.203125 98.472656 47.203125 C 98.472656 47.203125 88.449219 47.203125 86.890625 47.203125 C 87.355469 45.601562 94.296875 21.640625 94.558594 20.722656 C 95.449219 20.722656 101.457031 20.722656 101.457031 20.722656 Z M 101.457031 20.722656 "/>
    <path style=" stroke:none;fill-rule:nonzero;fill:rgb(92.941176%,10.980392%,14.117647%);fill-opacity:1;" d="M 102.074219 24.171875 L 96.398438 43.757812 L 97.304688 43.757812 C 98.921875 43.757812 99.949219 43.5 100.539062 42.945312 C 100.882812 42.625 101.429688 41.890625 102.199219 39.242188 L 105.316406 28.480469 C 105.828125 26.707031 105.882812 26.140625 105.878906 25.867188 C 105.867188 25.257812 105.550781 24.769531 104.984375 24.488281 C 104.703125 24.351562 104.152344 24.171875 102.582031 24.171875 Z M 103.09375 25.539062 C 104.015625 25.570312 104.3125 25.675781 104.386719 25.710938 C 104.515625 25.773438 104.515625 25.820312 104.515625 25.890625 C 104.515625 25.890625 104.515625 25.894531 104.515625 25.898438 C 104.515625 26.035156 104.464844 26.519531 104.007812 28.101562 L 100.890625 38.867188 C 100.214844 41.207031 99.769531 41.804688 99.609375 41.953125 C 99.5 42.058594 99.15625 42.269531 98.222656 42.355469 C 98.683594 40.757812 102.832031 26.4375 103.09375 25.539062 Z M 103.09375 25.539062 "/>
    <path style=" stroke:none;fill-rule:nonzero;fill:rgb(96.078431%,88.235294%,0%);fill-opacity:1;" d="M 130.683594 20.042969 L 122.621094 47.886719 L 112.691406 47.886719 L 120.757812 20.042969 Z M 130.683594 20.042969 "/>
    <path style=" stroke:none;fill-rule:nonzero;fill:rgb(92.941176%,10.980392%,14.117647%);fill-opacity:1;" d="M 120.246094 19.363281 L 111.789062 48.566406 L 123.132812 48.566406 L 131.589844 19.363281 Z M 129.777344 20.722656 C 129.316406 22.324219 122.375 46.285156 122.109375 47.203125 C 121.277344 47.203125 115.007812 47.203125 113.601562 47.203125 C 114.0625 45.601562 121.003906 21.640625 121.269531 20.722656 C 122.101562 20.722656 128.367188 20.722656 129.777344 20.722656 Z M 129.777344 20.722656 "/>
    <path style=" stroke:none;fill-rule:nonzero;fill:rgb(96.078431%,88.235294%,0%);fill-opacity:1;" d="M 154.707031 20.042969 L 153.09375 25.609375 L 147.121094 25.609375 L 140.667969 47.886719 L 130.742188 47.886719 L 137.195312 25.609375 L 131.308594 25.609375 L 132.921875 20.042969 Z M 154.707031 20.042969 "/>
    <path style=" stroke:none;fill-rule:nonzero;fill:rgb(92.941176%,10.980392%,14.117647%);fill-opacity:1;" d="M 132.410156 19.363281 L 130.402344 26.292969 C 130.402344 26.292969 134.992188 26.292969 136.289062 26.292969 C 135.824219 27.898438 129.835938 48.566406 129.835938 48.566406 L 141.179688 48.566406 C 141.179688 48.566406 147.359375 27.230469 147.632812 26.292969 C 148.488281 26.292969 153.605469 26.292969 153.605469 26.292969 L 155.613281 19.363281 Z M 153.800781 20.722656 C 153.480469 21.832031 152.78125 24.253906 152.582031 24.929688 C 151.726562 24.929688 146.609375 24.929688 146.609375 24.929688 C 146.609375 24.929688 140.429688 46.265625 140.15625 47.203125 C 139.324219 47.203125 133.058594 47.203125 131.648438 47.203125 C 132.113281 45.597656 138.097656 24.929688 138.097656 24.929688 C 138.097656 24.929688 133.511719 24.929688 132.214844 24.929688 C 132.535156 23.820312 133.238281 21.398438 133.433594 20.722656 C 134.367188 20.722656 152.179688 20.722656 153.800781 20.722656 Z M 153.800781 20.722656 "/>
    <path style=" stroke:none;fill-rule:nonzero;fill:rgb(96.078431%,88.235294%,0%);fill-opacity:1;" d="M 59.253906 52.953125 L 63.9375 52.953125 C 66.660156 52.953125 68.722656 53.074219 68.039062 55.480469 L 67.722656 56.597656 C 67.335938 57.957031 66.429688 58.707031 64.605469 58.792969 L 64.59375 58.828125 C 66.460938 58.914062 67.015625 59.648438 66.617188 61.042969 L 65.378906 65.402344 L 61.414062 65.402344 L 62.753906 60.679688 C 62.925781 60.085938 62.832031 59.597656 61.957031 59.597656 C 61.75 59.597656 61.628906 59.613281 61.457031 59.648438 L 59.820312 65.402344 L 55.714844 65.402344 Z M 62.007812 57.714844 L 62.332031 57.714844 C 62.90625 57.714844 63.644531 57.554688 63.847656 56.839844 L 64.140625 55.8125 C 64.34375 55.097656 63.695312 54.941406 63.117188 54.941406 L 62.796875 54.941406 Z M 62.007812 57.714844 "/>
    <path style=" stroke:none;fill-rule:nonzero;fill:rgb(92.941176%,10.980392%,14.117647%);fill-opacity:1;" d="M 58.933594 52.527344 L 55.15625 65.828125 L 60.144531 65.828125 C 60.144531 65.828125 61.648438 60.535156 61.789062 60.039062 C 61.871094 60.03125 61.957031 60.019531 61.957031 60.019531 C 62.210938 60.019531 62.339844 60.074219 62.375 60.117188 C 62.40625 60.160156 62.421875 60.304688 62.347656 60.5625 L 60.851562 65.828125 L 65.703125 65.828125 L 67.027344 61.160156 C 67.121094 60.835938 67.167969 60.542969 67.167969 60.277344 C 67.167969 59.890625 67.066406 59.558594 66.867188 59.28125 C 66.742188 59.105469 66.566406 58.96875 66.367188 58.847656 C 67.257812 58.457031 67.832031 57.761719 68.128906 56.714844 L 68.449219 55.597656 C 68.546875 55.25 68.597656 54.929688 68.597656 54.644531 C 68.597656 54.207031 68.480469 53.839844 68.25 53.535156 C 67.546875 52.601562 65.949219 52.527344 63.9375 52.527344 Z M 63.9375 53.378906 C 65.585938 53.378906 67.105469 53.429688 67.574219 54.046875 C 67.6875 54.203125 67.746094 54.402344 67.746094 54.648438 C 67.746094 54.855469 67.707031 55.089844 67.628906 55.367188 L 67.3125 56.480469 C 66.957031 57.730469 66.144531 58.296875 64.585938 58.371094 L 64.578125 59.253906 C 65.417969 59.292969 65.957031 59.46875 66.175781 59.777344 C 66.269531 59.90625 66.316406 60.074219 66.316406 60.285156 C 66.316406 60.464844 66.28125 60.679688 66.210938 60.925781 C 66.210938 60.925781 65.210938 64.445312 65.058594 64.976562 C 64.601562 64.976562 62.726562 64.976562 61.976562 64.976562 C 62.21875 64.128906 63.164062 60.792969 63.164062 60.792969 C 63.222656 60.589844 63.253906 60.410156 63.253906 60.242188 C 63.253906 59.992188 63.183594 59.78125 63.050781 59.605469 C 62.835938 59.316406 62.464844 59.171875 61.957031 59.171875 L 61.085938 59.261719 L 61.046875 59.53125 C 61.046875 59.53125 59.660156 64.425781 59.5 64.976562 C 59.035156 64.976562 57.042969 64.976562 56.28125 64.976562 C 56.554688 64.011719 59.417969 53.941406 59.578125 53.378906 C 60.132812 53.378906 63.9375 53.378906 63.9375 53.378906 Z M 63.9375 53.378906 "/>
    <path style=" stroke:none;fill-rule:nonzero;fill:rgb(92.941176%,10.980392%,14.117647%);fill-opacity:1;" d="M 62.476562 54.515625 L 61.445312 58.136719 L 62.332031 58.136719 C 63.355469 58.136719 64.039062 57.71875 64.253906 56.957031 L 64.546875 55.929688 C 64.679688 55.46875 64.546875 55.164062 64.417969 54.992188 C 64.179688 54.675781 63.742188 54.515625 63.117188 54.515625 Z M 63.117188 55.367188 C 63.527344 55.367188 63.703125 55.457031 63.738281 55.503906 C 63.75 55.515625 63.753906 55.535156 63.753906 55.5625 C 63.753906 55.597656 63.746094 55.644531 63.730469 55.695312 L 63.4375 56.726562 C 63.347656 57.042969 63.050781 57.222656 62.578125 57.269531 C 62.75 56.652344 63.011719 55.742188 63.117188 55.367188 Z M 63.117188 55.367188 "/>
    <path style=" stroke:none;fill-rule:nonzero;fill:rgb(96.078431%,88.235294%,0%);fill-opacity:1;" d="M 69.375 56.542969 C 69.933594 54.574219 71.253906 52.691406 75.519531 52.691406 C 79.789062 52.691406 80.035156 54.574219 79.476562 56.542969 L 77.980469 61.8125 C 77.417969 63.78125 76.101562 65.664062 71.832031 65.664062 C 67.566406 65.664062 67.316406 63.78125 67.878906 61.8125 Z M 71.855469 62.753906 C 71.730469 63.1875 71.78125 63.570312 72.429688 63.570312 C 73.074219 63.570312 73.34375 63.1875 73.46875 62.753906 L 75.5 55.601562 C 75.625 55.167969 75.570312 54.785156 74.925781 54.785156 C 74.28125 54.785156 74.007812 55.167969 73.886719 55.601562 Z M 71.855469 62.753906 "/>
    <path style=" stroke:none;fill-rule:nonzero;fill:rgb(92.941176%,10.980392%,14.117647%);fill-opacity:1;" d="M 68.964844 56.429688 L 67.46875 61.695312 C 67.089844 63.027344 67.171875 64.027344 67.722656 64.753906 C 68.402344 65.652344 69.746094 66.089844 71.832031 66.089844 C 76.648438 66.089844 77.878906 63.714844 78.386719 61.925781 L 79.886719 56.660156 C 80.261719 55.328125 80.179688 54.328125 79.632812 53.601562 C 78.953125 52.703125 77.609375 52.265625 75.519531 52.265625 C 70.707031 52.265625 69.472656 54.640625 68.964844 56.429688 Z M 75.519531 53.117188 C 77.296875 53.117188 78.453125 53.453125 78.953125 54.113281 C 79.335938 54.621094 79.371094 55.355469 79.066406 56.429688 L 77.570312 61.695312 C 77.101562 63.347656 76.027344 65.238281 71.832031 65.238281 C 70.054688 65.238281 68.902344 64.902344 68.402344 64.242188 C 68.019531 63.734375 67.980469 63 68.285156 61.925781 L 69.78125 56.660156 C 70.253906 55.011719 71.328125 53.117188 75.519531 53.117188 Z M 75.519531 53.117188 "/>
    <path style=" stroke:none;fill-rule:nonzero;fill:rgb(92.941176%,10.980392%,14.117647%);fill-opacity:1;" d="M 73.476562 55.488281 L 71.445312 62.636719 C 71.328125 63.054688 71.359375 63.390625 71.546875 63.636719 C 71.726562 63.875 72.023438 63.996094 72.429688 63.996094 C 72.941406 63.996094 73.613281 63.800781 73.878906 62.871094 L 75.910156 55.71875 C 76.027344 55.304688 75.992188 54.96875 75.808594 54.722656 C 75.625 54.480469 75.328125 54.359375 74.925781 54.359375 C 74.410156 54.359375 73.742188 54.554688 73.476562 55.488281 Z M 72.261719 62.867188 L 74.292969 55.71875 C 74.398438 55.351562 74.574219 55.210938 74.925781 55.210938 C 75.058594 55.210938 75.117188 55.230469 75.132812 55.242188 C 75.128906 55.242188 75.140625 55.3125 75.089844 55.488281 L 73.058594 62.636719 C 72.953125 63.003906 72.777344 63.148438 72.425781 63.148438 C 72.296875 63.148438 72.234375 63.125 72.21875 63.113281 C 72.226562 63.113281 72.210938 63.042969 72.261719 62.867188 Z M 72.261719 62.867188 "/>
    <path style=" stroke:none;fill-rule:nonzero;fill:rgb(96.078431%,88.235294%,0%);fill-opacity:1;" d="M 80.953125 56.542969 C 81.511719 54.574219 83.085938 52.691406 87.191406 52.691406 C 90.304688 52.691406 91.570312 54 90.945312 56.195312 L 90.445312 57.957031 L 86.203125 57.957031 L 86.859375 55.640625 C 86.980469 55.21875 87.101562 54.785156 86.34375 54.785156 C 85.855469 54.785156 85.585938 55.167969 85.464844 55.605469 L 83.433594 62.753906 C 83.308594 63.1875 83.359375 63.574219 83.84375 63.574219 C 84.605469 63.574219 84.738281 63.101562 84.894531 62.5625 L 85.613281 60.03125 L 89.855469 60.03125 L 89.269531 62.089844 C 88.644531 64.289062 86.433594 65.664062 83.410156 65.664062 C 79.144531 65.664062 78.894531 63.78125 79.457031 61.8125 Z M 80.953125 56.542969 "/>
    <path style=" stroke:none;fill-rule:nonzero;fill:rgb(92.941176%,10.980392%,14.117647%);fill-opacity:1;" d="M 80.542969 56.429688 L 79.046875 61.695312 C 78.667969 63.027344 78.75 64.027344 79.300781 64.753906 C 79.980469 65.652344 81.324219 66.089844 83.410156 66.089844 C 86.597656 66.089844 89 64.601562 89.679688 62.207031 L 90.417969 59.605469 L 85.289062 59.605469 L 84.484375 62.445312 C 84.324219 63 84.265625 63.144531 83.84375 63.144531 C 83.84375 63.144531 83.824219 63.144531 83.804688 63.140625 C 83.800781 63.132812 83.800781 63.128906 83.800781 63.113281 C 83.800781 63.0625 83.808594 62.980469 83.839844 62.867188 L 85.871094 55.71875 C 85.96875 55.378906 86.125 55.207031 86.34375 55.207031 C 86.425781 55.207031 86.484375 55.214844 86.519531 55.222656 C 86.511719 55.300781 86.476562 55.433594 86.449219 55.519531 L 85.640625 58.382812 L 90.765625 58.382812 L 91.355469 56.3125 C 91.664062 55.214844 91.554688 54.308594 91.027344 53.609375 C 90.355469 52.714844 89.066406 52.265625 87.191406 52.265625 C 82.675781 52.265625 81.082031 54.53125 80.542969 56.429688 Z M 87.191406 53.117188 C 88.761719 53.117188 89.851562 53.464844 90.351562 54.121094 C 90.566406 54.410156 90.675781 54.765625 90.675781 55.183594 C 90.675781 55.453125 90.628906 55.753906 90.535156 56.082031 C 90.535156 56.082031 90.242188 57.113281 90.125 57.53125 C 89.652344 57.53125 87.539062 57.53125 86.765625 57.53125 C 86.945312 56.898438 87.269531 55.753906 87.269531 55.753906 C 87.316406 55.589844 87.375 55.386719 87.375 55.1875 C 87.375 55.019531 87.335938 54.851562 87.21875 54.703125 C 86.960938 54.359375 86.496094 54.359375 86.34375 54.359375 C 85.726562 54.359375 85.257812 54.769531 85.054688 55.488281 L 83.023438 62.636719 C 82.898438 63.074219 82.929688 63.425781 83.121094 63.675781 C 83.234375 63.824219 83.449219 63.996094 83.84375 63.996094 C 84.925781 63.996094 85.144531 63.234375 85.300781 62.679688 C 85.300781 62.679688 85.796875 60.933594 85.933594 60.457031 C 86.402344 60.457031 88.519531 60.457031 89.292969 60.457031 C 89.125 61.046875 88.863281 61.972656 88.863281 61.972656 C 88.289062 63.988281 86.199219 65.238281 83.410156 65.238281 C 81.632812 65.238281 80.480469 64.902344 79.980469 64.242188 C 79.597656 63.734375 79.558594 63 79.867188 61.925781 L 81.363281 56.660156 C 82.03125 54.308594 83.992188 53.117188 87.191406 53.117188 Z M 87.191406 53.117188 "/>
    <path style=" stroke:none;fill-rule:nonzero;fill:rgb(96.078431%,88.235294%,0%);fill-opacity:1;" d="M 93.574219 52.953125 L 97.679688 52.953125 L 96.292969 57.835938 L 96.339844 57.835938 L 99.640625 52.953125 L 103.675781 52.953125 L 99.613281 58.480469 L 100.484375 65.402344 L 95.960938 65.402344 L 95.742188 59.925781 L 95.699219 59.925781 L 94.140625 65.402344 L 90.035156 65.402344 Z M 93.574219 52.953125 "/>
    <path style=" stroke:none;fill-rule:nonzero;fill:rgb(92.941176%,10.980392%,14.117647%);fill-opacity:1;" d="M 99.414062 52.527344 C 99.414062 52.527344 98.320312 54.144531 97.390625 55.515625 C 97.742188 54.292969 98.242188 52.527344 98.242188 52.527344 L 93.253906 52.527344 L 89.472656 65.828125 L 94.460938 65.828125 C 94.460938 65.828125 94.988281 63.96875 95.417969 62.460938 C 95.476562 63.929688 95.554688 65.828125 95.554688 65.828125 L 100.964844 65.828125 C 100.964844 65.828125 100.097656 58.914062 100.058594 58.59375 C 100.246094 58.335938 104.515625 52.527344 104.515625 52.527344 Z M 102.835938 53.378906 C 102.070312 54.421875 99.171875 58.363281 99.171875 58.363281 C 99.171875 58.363281 99.898438 64.148438 100.003906 64.976562 C 99.308594 64.976562 96.96875 64.976562 96.371094 64.976562 C 96.34375 64.277344 96.152344 59.503906 96.152344 59.503906 L 95.375 59.503906 C 95.375 59.503906 93.976562 64.425781 93.820312 64.976562 C 93.355469 64.976562 91.359375 64.976562 90.597656 64.976562 C 90.871094 64.011719 93.734375 53.9375 93.894531 53.378906 C 94.359375 53.378906 96.351562 53.378906 97.117188 53.378906 C 96.875 54.234375 95.730469 58.261719 95.730469 58.261719 L 96.5625 58.261719 C 96.5625 58.261719 99.632812 53.722656 99.863281 53.378906 C 100.179688 53.378906 101.855469 53.378906 102.835938 53.378906 Z M 102.835938 53.378906 "/>
  </g>
</svg>