<?xml version="1.0" encoding="UTF-8" standalone="no"?>
<svg
   xmlns:dc="http://purl.org/dc/elements/1.1/"
   xmlns:cc="http://creativecommons.org/ns#"
   xmlns:rdf="http://www.w3.org/1999/02/22-rdf-syntax-ns#"
   xmlns:svg="http://www.w3.org/2000/svg"
   xmlns="http://www.w3.org/2000/svg"
   viewBox="0 0 415.74667 326.49332"
   height="326.49332"
   width="415.74667"
   xml:space="preserve"
   id="svg2"
   version="1.1"><metadata
     id="metadata8"><rdf:RDF><cc:Work
         rdf:about=""><dc:format>image/svg+xml</dc:format><dc:type
           rdf:resource="http://purl.org/dc/dcmitype/StillImage" /></cc:Work></rdf:RDF></metadata><defs
     id="defs6" /><g
     transform="matrix(1.3333333,0,0,-1.3333333,0,326.49333)"
     id="g10"><g
       transform="scale(0.1)"
       id="g12"><path
         id="path14"
         style="fill:#8240a4;fill-opacity:1;fill-rule:nonzero;stroke:none"
         d="m 1936.44,2230.7 c 37.75,2.05 70.14,-27.06 72.17,-64.88 2.02,-37.83 -27.05,-70.29 -64.8,-72.3 l -151.44,-8.13 -7.39,137.2 z m -219.55,-766.9 c 59.95,3.23 105.97,54.49 102.75,114.54 l -15.56,289.35 35.93,1.92 216.18,-324.35 c 21.96,-33.98 59.68,-51.69 97.37,-49.65 18.24,0.98 36.52,6.63 53,17.21 50.51,32.56 65.05,99.96 32.51,150.41 l -164.16,246.35 c 94.8,50.96 157.12,153.4 150.96,267.92 -8.51,157.87 -143.59,279.29 -301.13,270.8 l -260.07,-13.96 c -60.04,-3.22 -106.08,-54.54 -102.85,-114.55 l 40.53,-753.18 c 3.24,-60.01 54.5,-106.04 114.54,-102.81" /><path
         id="path16"
         style="fill:#8240a4;fill-opacity:1;fill-rule:nonzero;stroke:none"
         d="m 217.633,1868.81 c 0,0 160.597,0 163.133,0 49.851,0 90.351,-40.51 90.351,-90.42 0,-49.97 -40.5,-90.48 -90.351,-90.48 H 217.633 Z m 0,355.45 h 143.812 c 37.817,0 68.575,-30.84 68.575,-68.72 0,-37.86 -30.758,-68.7 -68.575,-68.7 H 217.633 Z m 910.057,-156.24 106.38,-297.35 -261.457,16.98 z M 108.742,1470.21 h 272.024 c 106.922,0 201.203,54.81 256.429,137.81 -2.254,-40.37 17.797,-80.38 55.555,-101.31 52.566,-29.05 118.773,-10.09 147.93,42.4 l 15.336,27.72 458.034,-29.73 9.33,-26.09 c 15.11,-42.07 53.49,-69.13 95.52,-71.85 14.32,-0.94 29.19,0.98 43.65,6.14 56.58,20.27 85.98,82.61 65.73,139.14 l -276.75,773.86 c -14.47,40.24 -51.1,68.29 -93.71,71.74 -43.03,3.53 -83.23,-18.34 -103.93,-55.75 L 680.73,1709.62 c 5.063,22.15 7.989,45.08 7.989,68.77 0,84.75 -34.27,161.58 -89.739,217.4 30.692,45.69 48.637,100.67 48.637,159.75 0,158.07 -128.363,286.61 -286.172,286.61 H 108.742 C 48.7305,2442.15 0,2393.41 0,2333.26 v -754.22 c 0,-60.08 48.7305,-108.83 108.742,-108.83" /><path
         id="path18"
         style="fill:#8240a4;fill-opacity:1;fill-rule:nonzero;stroke:none"
         d="m 3009.29,2442.15 c -60.12,0 -108.85,-48.74 -108.85,-108.89 v -430.83 l -376.86,496.73 c -28.25,37.19 -77.06,52.19 -121.34,37.28 -44.27,-14.89 -74.06,-56.42 -74.06,-103.18 v -754.22 c 0,-60.08 48.69,-108.83 108.77,-108.83 60.16,0 108.8,48.75 108.8,108.83 v 430.69 l 376.88,-496.55 c 21,-27.58 53.32,-42.97 86.66,-42.97 11.58,0 23.36,1.84 34.7,5.7 44.28,14.9 74.12,56.37 74.12,103.13 v 754.22 c 0,60.15 -48.75,108.89 -108.82,108.89" /><path
         id="path20"
         style="fill:#8240a4;fill-opacity:1;fill-rule:nonzero;stroke:none"
         d="m 248.344,1150.44 h -101.93 v 92.33 h 101.93 c 25.5,0 46.183,-20.78 46.183,-46.13 0,-25.51 -20.683,-46.2 -46.183,-46.2 z m 192.582,46.2 c 0,106.24 -86.332,192.72 -192.582,192.72 H 73.1914 C 32.7578,1389.36 0,1356.61 0,1316.08 V 809.359 c 0,-40.5 32.7578,-73.23 73.1914,-73.23 40.4106,0 73.2226,32.73 73.2226,73.23 v 194.681 h 24.164 l 133.5,-225.399 c 13.512,-23.661 38.231,-36.891 63.66,-36.891 12.285,0 24.754,3.09 36.188,9.621 35.121,20.051 47.316,64.801 27.238,99.848 L 329.801,1022.37 c 65.562,30.75 111.125,97.21 111.125,174.27" /><path
         id="path22"
         style="fill:#8240a4;fill-opacity:1;fill-rule:nonzero;stroke:none"
         d="m 704.566,976.809 99.454,172.031 62.671,-185.52 z m 186.36,372.301 c -9.192,27.27 -33.524,46.59 -62.098,49.46 -28.996,2.9 -56.234,-11.29 -70.652,-36.26 L 477.828,877.121 c -20.265,-35 -8.316,-79.75 26.672,-99.949 35,-20.223 79.859,-8.281 100.074,26.68 l 18.985,32.839 294.171,-24.48 11.211,-33.231 c 9.567,-28.48 35.102,-47.14 63.289,-49.511 9.64,-0.778 19.68,0.32 29.48,3.613 38.29,12.949 58.86,54.488 45.91,92.789 L 890.926,1349.11" /><path
         id="path24"
         style="fill:#8240a4;fill-opacity:1;fill-rule:nonzero;stroke:none"
         d="m 3048.12,1380.95 c -40.38,1.75 -74.56,-29.56 -76.34,-70.01 l -12.48,-289.2 -238.82,344.43 c -17.95,25.82 -50.33,37.34 -80.56,28.57 -30.14,-8.73 -51.33,-35.76 -52.69,-67.14 l -21.88,-506.319 c -1.75,-40.41 29.52,-74.551 69.88,-76.34 40.43,-1.73 74.59,29.618 76.35,70.028 l 12.47,289.041 238.86,-344.248 c 13.34,-19.172 34.53,-30.453 57,-31.383 7.78,-0.367 15.78,0.519 23.48,2.793 30.19,8.789 51.42,35.797 52.8,67.156 l 21.85,506.262 c 1.79,40.49 -29.56,74.61 -69.92,76.36" /><path
         id="path26"
         style="fill:#8240a4;fill-opacity:1;fill-rule:nonzero;stroke:none"
         d="m 1842.03,813.988 -27.84,505.972 c -2.22,40.44 -36.72,71.34 -77.12,69.13 -40.35,-2.25 -71.25,-36.71 -69.02,-77.14 l 27.82,-506.02 c 2.25,-40.371 36.73,-71.27 77.09,-69.078 40.39,2.269 71.25,36.707 69.04,77.097 v 0.121 l 0.03,-0.082" /><path
         id="path28"
         style="fill:#8240a4;fill-opacity:1;fill-rule:nonzero;stroke:none"
         d="m 1349.31,882.559 h -96.69 v 360.821 h 120.06 c 30.43,0 113.94,-40.93 113.94,-172.64 0,-129.799 -109.13,-188.181 -137.31,-188.181 z m 23.37,507.261 h -193.43 c -40.46,0 -73.21,-32.77 -73.21,-73.26 V 809.422 c 0,-40.473 33.44,-73.293 73.87,-73.293 h 169.4 c 115.67,0 283.76,130.351 283.76,334.611 0,217.68 -155.41,319.08 -260.39,319.08" /><path
         id="path30"
         style="fill:#8240a4;fill-opacity:1;fill-rule:nonzero;stroke:none"
         d="m 2201.47,881.25 c -100.18,0 -181.67,81.559 -181.67,181.68 0,100.29 81.49,181.77 181.67,181.77 100.19,0 181.71,-81.48 181.71,-181.77 0,-100.121 -81.52,-181.68 -181.71,-181.68 z m 0,510.95 c -181.56,0 -329.24,-147.65 -329.24,-329.27 0,-181.5 147.68,-329.18 329.24,-329.18 181.61,0 329.24,147.68 329.24,329.18 0,181.62 -147.63,329.27 -329.24,329.27" /><path
         id="path32"
         style="fill:#040606;fill-opacity:1;fill-rule:nonzero;stroke:none"
         d="M 468.457,417.07 370.07,121.578 271.688,417.07 h -23.86 L 352.344,103.148 h 35.449 L 492.301,417.07 h -23.844" /><path
         id="path34"
         style="fill:#040606;fill-opacity:1;fill-rule:nonzero;stroke:none"
         d="m 1295.78,182.77 c -13.12,-37.098 -48.52,-62.04 -88.12,-62.04 h -7.75 c -39.6,0 -75.01,24.942 -88.11,62.04 -1.88,5.332 -7.62,21.531 -7.62,77.339 0,49.879 4.35,67.93 7.62,77.161 13.1,37.109 48.51,62.05 88.11,62.05 h 7.75 c 39.6,0 75,-24.941 88.12,-62.05 1.88,-5.309 7.6,-21.508 7.6,-77.161 0,-37.558 -2.48,-62.859 -7.6,-77.339 m 7.6,234.402 v -45.5 c -21.28,30.898 -56.85,50.316 -95.72,50.316 h -7.75 c -49.18,0 -93.19,-31.019 -109.48,-77.168 -4.15,-11.718 -8.9,-31.941 -8.9,-84.711 0,-53.507 5.08,-74.07 8.9,-84.879 16.29,-46.152 60.3,-77.148 109.48,-77.148 h 7.75 c 38.79,0 74.3,19.348 95.59,50.117 -0.56,-30.027 -3.02,-50.8904 -7.47,-63.5193 -13.12,-37.0977 -48.52,-62.0195 -88.12,-62.0195 h -7.75 c -35.05,0 -68.04,16.3007 -85.57,40.6406 h -26.35 C 1106.8,25.5586 1151.06,0 1199.91,0 h 7.75 c 49.18,0 93.18,30.9883 109.47,77.1289 3.84,10.8203 8.9,31.3831 8.9,84.9101 v 255.133 h -22.65" /><path
         id="path36"
         style="fill:#040606;fill-opacity:1;fill-rule:nonzero;stroke:none"
         d="m 1402.65,337.238 c 13.11,37.121 48.51,62.043 88.11,62.043 h 7.74 c 39.61,0 75.02,-24.922 88.13,-62.043 1.51,-4.289 5.87,-16.609 7.2,-52.898 h -198.38 c 1.13,31.91 4.52,45.359 7.2,52.898 m 191.47,-156.449 -0.55,-1.527 c -12,-33.934 -51.97,-58.551 -95.07,-58.551 h -7.74 c -39.6,0 -75,24.918 -88.11,62.019 -1.88,5.329 -7.61,21.532 -7.61,77.352 v 1.598 h 221.94 l -0.19,11.519 c -0.73,43.891 -5.37,61.871 -8.81,71.582 -16.28,46.16 -60.29,77.149 -109.48,77.149 h -7.74 c -49.18,0 -93.18,-30.989 -109.48,-77.141 -4.14,-11.719 -8.9,-31.949 -8.9,-84.707 0,-53.523 5.09,-74.082 8.9,-84.891 16.3,-46.152 60.3,-77.1519 109.48,-77.1519 h 7.74 c 53.23,0 101.11,30.3009 116.43,73.6799 l 3.2,9.07 h -24.01" /><path
         id="path38"
         style="fill:#040606;fill-opacity:1;fill-rule:nonzero;stroke:none"
         d="m 532.648,337.238 c 13.106,37.121 48.508,62.043 88.11,62.043 h 7.746 c 39.609,0 75.008,-24.922 88.117,-62.043 1.52,-4.289 5.875,-16.609 7.211,-52.898 H 525.441 c 1.137,31.91 4.524,45.359 7.207,52.898 m 191.461,-156.449 -0.55,-1.527 c -11.985,-33.934 -51.954,-58.551 -95.055,-58.551 h -7.746 c -39.602,0 -75.004,24.918 -88.11,62.019 -1.886,5.329 -7.617,21.532 -7.617,77.352 v 1.598 H 746.98 l -0.191,11.519 c -0.719,43.891 -5.367,61.871 -8.809,71.582 -16.289,46.16 -60.292,77.149 -109.476,77.149 h -7.746 c -49.18,0 -93.18,-30.989 -109.473,-77.141 -4.148,-11.719 -8.91,-31.949 -8.91,-84.707 0,-53.523 5.086,-74.082 8.91,-84.891 16.293,-46.152 60.293,-77.1519 109.473,-77.1519 h 7.746 c 53.234,0 101.098,30.3009 116.422,73.6799 l 3.199,9.07 h -24.016" /><path
         id="path40"
         style="fill:#040606;fill-opacity:1;fill-rule:nonzero;stroke:none"
         d="m 120.555,283.98 c -57.4573,0 -86.598,18.668 -86.598,55.469 0,25.641 8.3438,59.75 80.551,59.75 h 9.199 c 66.082,0 78.68,-28.539 80.348,-53.051 h 22.672 C 224.59,382.16 204,421.859 123.707,421.859 h -9.199 c -85.2971,0 -103.2033,-44.82 -103.2033,-82.41 0,-29.187 14.1875,-78.129 109.2503,-78.129 83.726,0 95.011,-36.629 95.011,-72.441 0,-45.18 -29.902,-68.09 -88.886,-68.09 h -15.153 c -58.9723,0 -88.8747,22.91 -88.8747,68.09 L 0,188.879 C 0,130.359 39.6094,98.1211 111.527,98.1211 h 15.153 c 71.925,0 111.539,32.2379 111.539,90.7579 0,63.992 -38.481,95.101 -117.664,95.101" /><path
         id="path42"
         style="fill:#040606;fill-opacity:1;fill-rule:nonzero;stroke:none"
         d="m 1025.21,494.789 v -39.23 h -22.66 v 60.492 h 12.14 10.52 v -21.262" /><path
         id="path44"
         style="fill:#040606;fill-opacity:1;fill-rule:nonzero;stroke:none"
         d="m 1025.21,377.891 v 39.371 h -22.64 v -314.09 h 22.64 v 274.719" /><path
         id="path46"
         style="fill:#040606;fill-opacity:1;fill-rule:nonzero;stroke:none"
         d="m 2822.01,476.98 v -21.421 h -22.67 v 60.492 h 22.67 V 476.98" /><path
         id="path48"
         style="fill:#040606;fill-opacity:1;fill-rule:nonzero;stroke:none"
         d="m 2822.01,368.039 v 49.223 h -22.65 v -314.09 h 22.65 v 264.867" /><path
         id="path50"
         style="fill:#040606;fill-opacity:1;fill-rule:nonzero;stroke:none"
         d="m 953.152,418.359 c -9.375,2.403 -19.058,3.61 -29.047,3.61 h -7.738 c -38.836,0 -74.383,-19.391 -95.652,-50.25 V 417.25 H 798.066 V 103.172 h 22.649 V 265.59 c 0.312,45.719 4.43,62.84 7.574,71.73 13.106,37.09 48.496,62.012 88.078,62.012 h 7.738 c 10.083,0 19.774,-1.66 29.047,-4.66 v 23.687" /><path
         id="path52"
         style="fill:#040606;fill-opacity:1;fill-rule:nonzero;stroke:none"
         d="m 2992.04,399.309 c -39.58,0 -74.99,-24.93 -88.08,-62.02 -3.26,-9.23 -7.6,-27.269 -7.6,-77.129 0,-55.801 5.72,-71.988 7.6,-77.308 13.09,-37.09 48.5,-62.012 88.08,-62.012 h 7.74 c 39.59,0 74.98,24.922 88.09,62.012 5.1,14.457 7.59,39.757 7.59,77.308 0,55.629 -5.72,71.801 -7.59,77.129 -13.11,37.09 -48.5,62.02 -88.09,62.02 z m 7.74,-301.1098 h -7.74 c -49.17,0 -93.14,30.9808 -109.44,77.1018 -3.81,10.801 -8.9,31.359 -8.9,84.859 0,52.738 4.75,72.961 8.91,84.692 16.29,46.117 60.26,77.097 109.43,77.097 h 7.74 c 49.17,0 93.14,-30.98 109.44,-77.097 4.14,-11.731 8.89,-31.954 8.89,-84.692 0,-53.5 -5.07,-74.058 -8.89,-84.859 -16.3,-46.121 -60.27,-77.1018 -109.44,-77.1018" /><path
         id="path54"
         style="fill:#040606;fill-opacity:1;fill-rule:nonzero;stroke:none"
         d="m 2709.41,182.859 c -13.11,-37.089 -48.5,-62.019 -88.08,-62.019 h -7.75 c -39.6,0 -74.97,24.93 -88.07,62.019 -1.89,5.321 -7.62,21.52 -7.62,77.321 0,49.851 4.34,67.902 7.62,77.14 13.1,37.09 48.47,62.012 88.07,62.012 h 7.75 c 39.58,0 74.97,-24.922 88.08,-62.012 1.89,-5.332 7.6,-21.511 7.6,-77.14 0,-37.551 -2.48,-62.86 -7.6,-77.321 m 7.67,-79.711 h 22.64 v 412.981 h -22.64 V 371.602 c -21.27,30.929 -56.86,50.386 -95.75,50.386 h -7.75 c -49.16,0 -93.15,-31 -109.43,-77.136 -4.16,-11.711 -8.9,-31.93 -8.9,-84.672 0,-53.508 5.06,-74.059 8.9,-84.86 16.28,-46.14 60.27,-77.1208 109.43,-77.1208 h 7.75 c 38.89,0 74.48,19.4418 95.75,50.3598 v -45.411" /><path
         id="path56"
         style="fill:#040606;fill-opacity:1;fill-rule:nonzero;stroke:none"
         d="m 2426.34,260.551 h -0.04 c 0,-37.602 -2.5,-62.91 -7.63,-77.41 -13.09,-37.11 -48.52,-62.051 -88.13,-62.051 l -8.47,-0.059 c -59.13,0 -89.13,22.981 -89.13,68.301 v 3.449 c 0,35.93 11.55,69.16 95.3,69.16 h 98.1 z M 2449,333 c 0,56.078 -38.67,89.539 -103.45,89.539 h -9.24 c -67.1,0 -106.72,-27.59 -110.07,-75.891 h 22.79 c 4.2,43.68 49.16,53.211 87.28,53.211 h 9.24 c 30.15,0 80.76,-8.687 80.76,-66.929 l 0.02,-48.301 h -98.09 c -80.5,0 -117.98,-29.188 -117.98,-91.848 v -3.449 c 0,-58.672 39.7,-90.9922 111.81,-90.9922 l 9.14,0.0704 c 38.67,0.2109 73.99,19.6408 95.16,50.3988 V 103.25 h 22.7 L 2449,333" /><path
         id="path58"
         style="fill:#040606;fill-opacity:1;fill-rule:nonzero;stroke:none"
         d="m 2090.47,340.02 c 0,79.621 -78.31,74.929 -102.6,79.621 h 113.02 c 32.43,-0.02 84.39,-21.43 84.39,-79.621 0,-58.2 -40.73,-79.61 -73.16,-79.641 h -53.05 c 0,0 31.4,0.019 31.4,79.641" /><path
         id="path60"
         style="fill:#040606;fill-opacity:1;fill-rule:nonzero;stroke:none"
         d="m 1662.13,103.25 h 135.55 l -135.55,141.141 z" /><path
         id="path62"
         style="fill:#040606;fill-opacity:1;fill-rule:nonzero;stroke:none"
         d="M 1804.99,419.66 1933.85,265.621 V 419.66 Z" /><path
         id="path64"
         style="fill:#040606;fill-opacity:1;fill-rule:nonzero;stroke:none"
         d="M 2053.25,260.43 H 1938.2 l 131.5,-157.18 h 122.89 l -139.34,157.18" /><path
         id="path66"
         style="fill:#040606;fill-opacity:1;fill-rule:nonzero;stroke:none"
         d="m 1754.3,340.02 c 0,-60.02 19.32,-74.93 43.38,-79.629 h -67.89 c -32.11,0.031 -72.44,21.429 -72.44,79.629 0,58.199 40.33,79.609 72.43,79.64 h 67.9 c -24.07,-4.711 -43.38,-19.629 -43.38,-79.64" /><path
         id="path68"
         style="fill:#040606;fill-opacity:1;fill-rule:nonzero;stroke:none"
         d="m 1848.31,181.801 c 0,59.219 -19.5,73.949 -43.8,78.578 h 68.57 c 32.43,-0.027 73.16,-21.149 73.16,-78.59 0,-57.437 -40.73,-78.559 -73.16,-78.598 h -68.57 c 24.3,4.637 43.8,19.368 43.8,78.61" /></g></g></svg>