<svg id="Layer_1" data-name="Layer 1" xmlns="http://www.w3.org/2000/svg" viewBox="0 0 782.6669 587">
  <title>au-hero</title>
  <g>
    <rect width="782.6669" height="587" style="fill: #0d2459"/>
    <g>
      <g>
        <path d="M410.1,219.5508s0.5439-12.8408-18.27-12.7305H373.5586v26.5313H391.83S410.1,234.2207,410.1,219.5508Z" transform="translate(0)" style="fill: #2dc7fc"/>
        <path d="M401.3965,177.8955s0.542-10.7725-13.915-11.5391H373.5586v25.1309H385.418S401.3965,191.2666,401.3965,177.8955Z" transform="translate(0)" style="fill: #2dc7fc"/>
        <path d="M318.6348,267.3428H462.0323v-135.13H318.6348v135.13Zm37.6367-116.0977H390.34c30.6914,2.8233,28.7881,25.9951,28.7881,25.9951,0.1064,14.1328-12.3975,19.4619-12.3975,19.4619,21.9678,5.5469,21.2061,24.254,21.2061,24.254,0,27.5195-32.6289,27.4082-32.6289,27.4082H356.2715V151.2451Z" transform="translate(0)" style="fill: #2dc7fc"/>
        <g>
          <path d="M244.794,219.5508s0.5449-12.8408-18.2715-12.7305H208.2471v26.5313h18.2754S244.794,234.2207,244.794,219.5508Z" transform="translate(0)" style="fill: #2dc7fc"/>
          <path d="M236.0967,177.8955s0.5391-10.7725-13.9228-11.5391H208.2471v25.1309h11.8643S236.0967,191.2666,236.0967,177.8955Z" transform="translate(0)" style="fill: #2dc7fc"/>
          <path d="M153.2725,267.3428H296.67v-135.13H153.2725v135.13Zm37.6914-116.0977h34.0654c30.6954,2.8233,28.793,25.9951,28.793,25.9951,0.1065,14.1328-12.3974,19.4619-12.3974,19.4619,21.9677,5.5469,21.207,24.254,21.207,24.254,0,27.5195-32.6279,27.4082-32.6279,27.4082h-39.04V151.2451Z" transform="translate(0)" style="fill: #2dc7fc"/>
        </g>
        <path d="M484.001,132.2129v135.13H627.3936v-135.13H484.001Zm115.0069,108.43s-29.4688,17.5117-63.625,4.0234c0,0-28.708-10.4912-29.793-44.8857,0,0-1.1953-35.378,37.0869-47.1182,0,0,10.2266-3.92,28.6084-2.1787,0,0,10.9775,1.0859,26.8565,7.7178v17.9453s-17.5147-10.7647-36.8711-10.9824c0,0-36.1065-.7-37.7266,34.6162,0,0-1.3125,32.49,37.2969,34.3379,0,0,16.1992,1.9541,38.167-12.0723v18.5967Z" transform="translate(0)" style="fill: #2dc7fc"/>
      </g>
      <path d="M153.2725,301.7607H231.18c30.2608,0,45.7159,15.4551,45.7159,38.8477,0,14.3809-6.87,28.1162-22.9668,34.3418v0.4307c17.1709,4.7187,26.1865,19.53,26.1865,35.6279,0,25.3223-18.6748,43.7783-46.7871,43.7783H153.2725V301.7607Zm67.3926,60.9571c12.2344,0,18.459-7.085,18.459-16.5254,0-9.4424-7.084-14.8106-18.8926-14.8106H191.4747v31.336h29.19Zm1.2881,61.8076c12.4482,0,19.3135-7.082,19.3135-17.17,0-10.3-6.8653-16.0967-19.53-16.0967H191.4747v33.2666h30.4785Z" transform="translate(0)" style="fill: #2dc7fc"/>
      <path d="M296.67,301.7607h69.59c34.7695,0,54.7246,19.961,54.7246,48.2911,0,18.6728-9.0088,36.917-28.7558,45.0732l34.9863,59.6621H385.3614L355.1,400.7051H335.084v54.082H296.67V301.7607Zm64.6562,70.6153c13.9483,0,22.3213-7.9434,22.3213-20.3926,0-13.0928-8.5859-20.1748-22.3213-20.1748H335.084V372.376h26.2422Z" transform="translate(0)" style="fill: #2dc7fc"/>
      <path d="M445.5879,301.7607H484.001V454.7871H445.5879V301.7607Z" transform="translate(0)" style="fill: #2dc7fc"/>
      <path d="M545.629,332.457H502.2706V301.7607h125.123V332.457H584.043v122.33H545.629V332.457Z" transform="translate(0)" style="fill: #2dc7fc"/>
    </g>
  </g>
</svg>