<?xml version="1.0" encoding="UTF-8" standalone="yes"?>
<svg xmlns="http://www.w3.org/2000/svg" xmlns:xlink="http://www.w3.org/1999/xlink" width="141.33333333333331px" height="106.66666666666666px" viewBox="0 0 106 80" version="1.1">
  <defs>
    <linearGradient id="linear0" gradientUnits="userSpaceOnUse" x1="160.86868" y1="2646.9165" x2="566.34406" y2="2205.627" gradientTransform="matrix(0.216996,0,0,0.218361,-34.666344,-498.3248)">
      <stop offset="0" style="stop-color:rgb(26.666667%,50.196078%,37.254902%);stop-opacity:0.996078;"/>
      <stop offset="0.1" style="stop-color:rgb(28.235294%,52.156863%,29.019608%);stop-opacity:0.996078;"/>
      <stop offset="0.2" style="stop-color:rgb(25.490196%,52.941176%,34.509804%);stop-opacity:0.996078;"/>
      <stop offset="0.3" style="stop-color:rgb(24.705882%,52.941176%,39.215686%);stop-opacity:0.996078;"/>
      <stop offset="0.4" style="stop-color:rgb(18.431373%,55.294118%,48.235294%);stop-opacity:0.996078;"/>
      <stop offset="0.5" style="stop-color:rgb(13.333333%,56.470588%,54.509804%);stop-opacity:0.996078;"/>
      <stop offset="0.6" style="stop-color:rgb(11.764706%,59.215686%,62.352941%);stop-opacity:0.996078;"/>
      <stop offset="0.7" style="stop-color:rgb(5.882353%,59.215686%,68.235294%);stop-opacity:0.996078;"/>
      <stop offset="0.8" style="stop-color:rgb(2.745098%,60%,75.294118%);stop-opacity:0.996078;"/>
      <stop offset="0.9" style="stop-color:rgb(0%,61.176471%,80%);stop-opacity:0.996078;"/>
      <stop offset="1" style="stop-color:rgb(0%,61.176471%,80%);stop-opacity:0.996078;"/>
    </linearGradient>
  </defs>
  <g id="surface1">
    <path style=" stroke:none;fill-rule:evenodd;fill:url(#linear0);" d="M 0.0546875 0.0546875 L 105.945312 0.0546875 L 105.945312 79.972656 L 0.0546875 79.972656 Z M 0.0546875 0.0546875 "/>
    <path style=" stroke:none;fill-rule:nonzero;fill:rgb(100%,100%,100%);fill-opacity:1;" d="M 26.71875 41.332031 C 21.6875 41.332031 17.554688 45.460938 17.554688 50.535156 C 17.554688 55.582031 21.613281 59.800781 26.695312 59.800781 C 30.507812 59.800781 33.660156 57.597656 35.101562 54.316406 L 32.773438 54.316406 C 31.800781 55.972656 29.65625 57.714844 26.75 57.714844 C 23.546875 57.714844 20.371094 55.546875 19.691406 51.574219 L 35.851562 51.574219 C 35.851562 51.574219 35.949219 51.09375 35.949219 50.417969 C 35.949219 45.675781 32.042969 41.332031 26.71875 41.332031 Z M 26.742188 43.386719 C 30.078125 43.386719 33.246094 45.796875 33.796875 49.511719 L 19.703125 49.511719 C 20.207031 46.15625 23.027344 43.386719 26.742188 43.386719 Z M 26.742188 43.386719 "/>
    <path style=" stroke:none;fill-rule:nonzero;fill:rgb(100%,100%,100%);fill-opacity:1;" d="M 46.21875 41.324219 C 41.128906 41.324219 36.949219 45.476562 36.949219 50.550781 C 36.949219 55.40625 40.871094 59.800781 46.210938 59.800781 C 49.269531 59.800781 51.570312 58.453125 53.382812 55.777344 L 53.382812 59.300781 L 55.453125 59.300781 L 55.453125 41.855469 L 53.382812 41.855469 L 53.382812 45.34375 C 51.738281 42.847656 49.371094 41.324219 46.21875 41.324219 Z M 46.230469 43.386719 C 50.25 43.386719 53.378906 46.640625 53.378906 50.554688 C 53.378906 54.582031 50.167969 57.71875 46.21875 57.71875 C 42.296875 57.71875 39.035156 54.609375 39.035156 50.53125 C 39.035156 46.839844 42 43.386719 46.230469 43.386719 Z M 46.230469 43.386719 "/>
    <path style=" stroke:none;fill-rule:nonzero;fill:rgb(100%,100%,100%);fill-opacity:1;" d="M 57.964844 59.300781 L 57.964844 41.855469 L 60.015625 41.855469 L 60.015625 44.609375 C 60.660156 43.34375 62.441406 41.855469 65.113281 41.855469 L 66.773438 41.855469 L 66.773438 37.902344 L 68.84375 37.902344 L 68.84375 41.855469 L 72.433594 41.855469 L 72.433594 43.882812 L 68.84375 43.882812 L 68.84375 55.136719 C 68.84375 56.378906 69.8125 57.199219 70.878906 57.199219 L 72.433594 57.199219 L 72.433594 59.300781 L 70.84375 59.300781 C 68.753906 59.300781 66.773438 57.558594 66.773438 55.207031 L 66.773438 43.882812 L 65.324219 43.882812 C 61.925781 43.882812 60.015625 46.496094 60.015625 48.691406 L 60.015625 59.300781 Z M 57.964844 59.300781 "/>
    <path style=" stroke:none;fill-rule:nonzero;fill:rgb(100%,100%,100%);fill-opacity:1;" d="M 73.746094 59.300781 L 73.746094 36.195312 L 75.8125 36.195312 L 75.8125 44.773438 C 76.425781 43.375 78.707031 41.324219 81.671875 41.324219 C 85.808594 41.324219 88.605469 43.980469 88.605469 48.300781 L 88.605469 59.300781 L 86.589844 59.300781 L 86.589844 48.300781 C 86.589844 45.390625 84.644531 43.382812 81.691406 43.382812 C 78.402344 43.382812 75.8125 46.035156 75.8125 48.632812 L 75.8125 59.300781 Z M 73.746094 59.300781 "/>
    <path style=" stroke:none;fill-rule:nonzero;fill:rgb(100%,100%,100%);fill-opacity:1;" d="M 46.03125 29.582031 C 46.03125 31.132812 44.117188 31.039062 44.117188 31.039062 L 42.199219 31.039062 L 42.199219 28.238281 L 44.117188 28.238281 C 46.089844 28.226562 46.03125 29.582031 46.03125 29.582031 M 42.199219 23.96875 L 43.660156 23.96875 C 45.175781 24.050781 45.121094 25.183594 45.121094 25.183594 C 45.121094 26.597656 43.445312 26.621094 43.445312 26.621094 L 42.199219 26.621094 Z M 45.679688 27.171875 C 45.679688 27.171875 46.992188 26.609375 46.980469 25.117188 C 46.980469 25.117188 47.179688 22.671875 43.960938 22.375 L 40.386719 22.375 L 40.386719 32.625 L 44.480469 32.625 C 44.480469 32.625 47.902344 32.636719 47.902344 29.730469 C 47.902344 29.730469 47.984375 27.757812 45.679688 27.171875 M 36.433594 20.363281 L 51.472656 20.363281 L 51.472656 34.628906 L 36.433594 34.628906 Z M 36.433594 20.363281 "/>
    <path style=" stroke:none;fill-rule:nonzero;fill:rgb(100%,100%,100%);fill-opacity:1;" d="M 28.6875 29.582031 C 28.6875 31.132812 26.773438 31.039062 26.773438 31.039062 L 24.855469 31.039062 L 24.855469 28.238281 L 26.773438 28.238281 C 28.746094 28.226562 28.6875 29.582031 28.6875 29.582031 M 24.855469 23.96875 L 26.316406 23.96875 C 27.832031 24.050781 27.777344 25.183594 27.777344 25.183594 C 27.777344 26.597656 26.097656 26.621094 26.097656 26.621094 L 24.855469 26.621094 Z M 28.335938 27.171875 C 28.335938 27.171875 29.648438 26.609375 29.636719 25.117188 C 29.636719 25.117188 29.835938 22.671875 26.617188 22.375 L 23.042969 22.375 L 23.042969 32.625 L 27.136719 32.625 C 27.136719 32.625 30.558594 32.636719 30.558594 29.730469 C 30.558594 29.730469 30.640625 27.757812 28.335938 27.171875 M 19.089844 20.363281 L 34.128906 20.363281 L 34.128906 34.628906 L 19.089844 34.628906 Z M 19.089844 20.363281 "/>
    <path style=" stroke:none;fill-rule:nonzero;fill:rgb(100%,100%,100%);fill-opacity:1;" d="M 65.75 23.109375 L 65.75 25.003906 C 65.75 25.003906 63.914062 23.867188 61.882812 23.84375 C 61.882812 23.84375 58.097656 23.769531 57.925781 27.496094 C 57.925781 27.496094 57.789062 30.925781 61.835938 31.121094 C 61.835938 31.121094 63.539062 31.328125 65.839844 29.847656 L 65.839844 31.808594 C 65.839844 31.808594 62.75 33.65625 59.167969 32.234375 C 59.167969 32.234375 56.15625 31.125 56.042969 27.496094 C 56.042969 27.496094 55.917969 23.761719 59.933594 22.523438 C 59.933594 22.523438 61.003906 22.109375 62.933594 22.292969 C 62.933594 22.292969 64.085938 22.40625 65.75 23.109375 M 53.777344 34.628906 L 68.820312 34.628906 L 68.820312 20.363281 L 53.777344 20.363281 Z M 53.777344 34.628906 "/>
  </g>
</svg>