<?xml version="1.0" encoding="UTF-8" standalone="no"?>
<!-- Created with Inkscape (http://www.inkscape.org/) -->

<svg
   xmlns:dc="http://purl.org/dc/elements/1.1/"
   xmlns:cc="http://creativecommons.org/ns#"
   xmlns:rdf="http://www.w3.org/1999/02/22-rdf-syntax-ns#"
   xmlns:svg="http://www.w3.org/2000/svg"
   xmlns="http://www.w3.org/2000/svg"
   xmlns:xlink="http://www.w3.org/1999/xlink"
   xmlns:sodipodi="http://sodipodi.sourceforge.net/DTD/sodipodi-0.dtd"
   xmlns:inkscape="http://www.inkscape.org/namespaces/inkscape"
   width="1000"
   height="750.25006"
   id="svg2"
   version="1.1"
   inkscape:version="0.48.5 r10040"
   sodipodi:docname="AA.svg">
  <defs
     id="defs4">
    <linearGradient
       id="linearGradient3246">
      <stop
         style="stop-color:#44805f;stop-opacity:1"
         offset="0"
         id="stop3248" />
      <stop
         id="stop3250"
         offset="0.1"
         style="stop-color:#48854a;stop-opacity:1" />
      <stop
         id="stop3252"
         offset="0.2"
         style="stop-color:#418758;stop-opacity:1" />
      <stop
         id="stop3254"
         offset="0.30000001"
         style="stop-color:#3f8764;stop-opacity:1" />
      <stop
         id="stop3256"
         offset="0.40000001"
         style="stop-color:#2f8d7b;stop-opacity:1" />
      <stop
         id="stop3258"
         offset="0.5"
         style="stop-color:#22908b;stop-opacity:1" />
      <stop
         id="stop3260"
         offset="0.60000002"
         style="stop-color:#1e979f;stop-opacity:1" />
      <stop
         id="stop3262"
         offset="0.69999999"
         style="stop-color:#0f97ae;stop-opacity:1" />
      <stop
         id="stop3264"
         offset="0.80000001"
         style="stop-color:#0799c0;stop-opacity:1" />
      <stop
         id="stop3266"
         offset="0.89999998"
         style="stop-color:#009ccc;stop-opacity:1" />
      <stop
         style="stop-color:#009ccc;stop-opacity:1"
         offset="1"
         id="stop3268" />
    </linearGradient>
    <linearGradient
       id="linearGradient3107">
      <stop
         id="stop3109"
         offset="0"
         style="stop-color:#257c3d;stop-opacity:0.99607843" />
      <stop
         style="stop-color:#278247;stop-opacity:0.99607843"
         offset="0.1"
         id="stop3111" />
      <stop
         style="stop-color:#298452;stop-opacity:0.99607843"
         offset="0.2"
         id="stop3113" />
      <stop
         style="stop-color:#2d8863;stop-opacity:0.99607843"
         offset="0.30000001"
         id="stop3115" />
      <stop
         style="stop-color:#2f8871;stop-opacity:0.99607843"
         offset="0.40000001"
         id="stop3117" />
      <stop
         style="stop-color:#318c79;stop-opacity:0.99607843"
         offset="0.5"
         id="stop3119" />
      <stop
         style="stop-color:#358a8f;stop-opacity:0.99607843"
         offset="0.60000002"
         id="stop3121" />
      <stop
         style="stop-color:#378e99;stop-opacity:0.99607843"
         offset="0.69999999"
         id="stop3123" />
      <stop
         style="stop-color:#3a8da8;stop-opacity:0.99607843"
         offset="0.80000001"
         id="stop3125" />
      <stop
         style="stop-color:#3c90b3;stop-opacity:0.99607843"
         offset="0.89999998"
         id="stop3127" />
      <stop
         id="stop3129"
         offset="1"
         style="stop-color:#3f92bf;stop-opacity:0.99607843" />
    </linearGradient>
    <linearGradient
       id="linearGradient3070">
      <stop
         style="stop-color:#257c3d;stop-opacity:0.99607843"
         offset="0"
         id="stop3072" />
      <stop
         id="stop3094"
         offset="0.1"
         style="stop-color:#278247;stop-opacity:0.99607843" />
      <stop
         id="stop3092"
         offset="0.2"
         style="stop-color:#298452;stop-opacity:0.99607843" />
      <stop
         id="stop3090"
         offset="0.30000001"
         style="stop-color:#2d8863;stop-opacity:0.99607843" />
      <stop
         id="stop3088"
         offset="0.40000001"
         style="stop-color:#2f8871;stop-opacity:0.99607843" />
      <stop
         id="stop3086"
         offset="0.5"
         style="stop-color:#318c79;stop-opacity:0.99607843" />
      <stop
         id="stop3084"
         offset="0.60000002"
         style="stop-color:#358c90;stop-opacity:0.99607843" />
      <stop
         id="stop3082"
         offset="0.69999999"
         style="stop-color:#398ea1;stop-opacity:0.99607843" />
      <stop
         id="stop3080"
         offset="0.80000001"
         style="stop-color:#3b8fad;stop-opacity:0.99607843" />
      <stop
         id="stop3078"
         offset="0.89999998"
         style="stop-color:#3d8fb6;stop-opacity:0.99607843" />
      <stop
         style="stop-color:#3f92bf;stop-opacity:0.99607843"
         offset="1"
         id="stop3074" />
    </linearGradient>
    <linearGradient
       inkscape:collect="always"
       xlink:href="#linearGradient3107"
       id="linearGradient3105"
       gradientUnits="userSpaceOnUse"
       gradientTransform="matrix(6.6076323,0,0,6.6076323,1058.6493,-6361.7046)"
       x1="-172.28323"
       y1="1112.0521"
       x2="-37.994476"
       y2="982.28046" />
    <linearGradient
       inkscape:collect="always"
       xlink:href="#linearGradient3246"
       id="linearGradient3244"
       x1="160.86868"
       y1="2646.9165"
       x2="566.34406"
       y2="2205.627"
       gradientUnits="userSpaceOnUse"
       gradientTransform="matrix(2.0471311,0,0,2.0471311,-167.54098,-2773.1827)" />
  </defs>
  <sodipodi:namedview
     id="base"
     pagecolor="#ffffff"
     bordercolor="#666666"
     borderopacity="1.0"
     inkscape:pageopacity="0.0"
     inkscape:pageshadow="2"
     inkscape:zoom="0.20350036"
     inkscape:cx="446.53788"
     inkscape:cy="449.68638"
     inkscape:document-units="px"
     inkscape:current-layer="layer1"
     showgrid="false"
     fit-margin-left="0.5"
     fit-margin-bottom="0.5"
     fit-margin-top="0.5"
     fit-margin-right="0.5"
     inkscape:window-width="1272"
     inkscape:window-height="1039"
     inkscape:window-x="645"
     inkscape:window-y="-21"
     inkscape:window-maximized="0">
    <inkscape:grid
       type="xygrid"
       id="grid2996"
       empspacing="5"
       visible="true"
       enabled="true"
       snapvisiblegridlinesonly="true"
       originx="-159.5px"
       originy="1596.5002px" />
  </sodipodi:namedview>
  <metadata
     id="metadata7">
    <rdf:RDF>
      <cc:Work
         rdf:about="">
        <dc:format>image/svg+xml</dc:format>
        <dc:type
           rdf:resource="http://purl.org/dc/dcmitype/StillImage" />
        <dc:title></dc:title>
      </cc:Work>
    </rdf:RDF>
  </metadata>
  <g
     inkscape:label="Layer 1"
     inkscape:groupmode="layer"
     id="layer1"
     transform="translate(-159.5,-1898.6123)">
    <rect
       style="fill:url(#linearGradient3244);fill-opacity:0.99607843;fill-rule:evenodd;stroke:none"
       id="rect3231"
       width="999"
       height="749.25006"
       x="160"
       y="1899.1123" />
    <g
       id="g3218"
       transform="matrix(0.33378999,0,0,0.33378999,-248.97455,1841.6)"
       style="fill:#ffffff">
      <path
         id="path3142"
         transform="translate(-80.500008,235.61313)"
         d="m 2059.4062,1096.0625 c -142.1658,0 -259,115.9411 -259,258.4375 0,141.8226 114.7218,260.25 258.3438,260.25 107.7095,0 196.8101,-61.8136 237.625,-154 l -65.875,0 c -27.4626,46.4864 -88.0299,95.4062 -170.25,95.4062 -90.4525,0 -180.2896,-60.7977 -199.4062,-172.4062 l 456.6562,0 c 0,0 2.8125,-13.5411 2.8125,-32.5 0,-133.1808 -110.3922,-255.1875 -260.9063,-255.1875 z m 0.625,57.7187 c 94.3406,0 183.8577,67.6775 199.4688,171.9688 l -398.375,0 c 14.2695,-94.1468 93.9908,-171.9688 198.9062,-171.9688 z"
         style="fill:#ffffff;stroke:none"
         inkscape:connector-curvature="0" />
      <path
         id="path3146"
         transform="translate(-80.500008,235.61313)"
         d="m 2610.5312,1095.8438 c -143.8224,0 -262,116.5825 -262,259.1874 0,136.3452 110.8097,259.75 261.8126,259.75 86.3964,0 151.3999,-37.8373 202.6562,-113.0312 l 0,99 58.5,0 0,-490 -58.5,0 0,98 c -46.4349,-70.1255 -113.3929,-112.9062 -202.4688,-112.9062 z m 0.3438,57.9687 c 113.6036,0 202.0312,91.3071 202.0312,201.2813 0,113.1125 -90.7838,201.2187 -202.375,201.2187 -110.7854,0 -203.0312,-87.3878 -203.0312,-201.875 0,-103.6616 83.8368,-200.625 203.375,-200.625 z"
         style="fill:#ffffff;stroke:none"
         inkscape:connector-curvature="0" />
      <path
         sodipodi:nodetypes="ccccccccccccccccccccccc"
         transform="translate(-80.500008,235.61313)"
         inkscape:connector-curvature="0"
         id="path3152"
         d="m 2942.5,1600.7491 0,-490 58,0 0,77.385 c 18.2181,-35.5775 68.5024,-77.385 144,-77.385 l 47,0 0,-111.00005 58.5,0 0,111.00005 101.5,0 0,57 -101.5,0 0,316 c 0,34.8911 27.3923,58 57.5,58 l 44,0 0,59 -45,0 c -59.0063,0 -115,-48.9072 -115,-115 l 0,-318 -41,0 c -96.0842,0 -150,73.3304 -150,135.0153 l 0,297.9847 z"
         style="fill:#ffffff;stroke:none" />
      <path
         sodipodi:nodetypes="ccccccccccccc"
         transform="translate(-80.500008,235.61313)"
         inkscape:connector-curvature="0"
         id="path3154"
         d="m 3388.5,1600.7491 0,-649.00005 58.5,0 0,241.00005 c 17.2385,-39.2624 81.7615,-96.8512 165.5687,-96.8512 116.932,0 195.9313,74.5473 195.9313,195.9313 l 0,308.9199 -57,0 0,-309 c 0,-81.7065 -54.974,-138.084 -138.4426,-138.084 -92.9284,0 -166.0574,74.5393 -166.0574,147.4074 l 0,299.6766 z"
         style="fill:#ffffff;stroke:none" />
      <g
         style="fill:#ffffff;stroke:none"
         transform="matrix(4.7007075,0,0,4.7007075,1633.3507,-3686.2541)"
         id="g3182">
        <g
           transform="matrix(0.82302261,0,0,-0.82302261,189.63913,997.27701)"
           style="fill:#ffffff;stroke:none"
           id="g3184">
          <path
             inkscape:connector-curvature="0"
             style="fill:#ffffff;fill-rule:nonzero;stroke:none"
             d="m 0,0 c 0,-11.25 -14,-10.583 -14,-10.583 l -14,0 0,20.333 14,0 C 0.417,9.833 0,0 0,0 m -28,40.75 10.667,0 c 11.083,-0.584 10.666,-8.833 10.666,-8.833 0,-10.25 -12.25,-10.417 -12.25,-10.417 l -9.083,0 0,19.25 z M -2.583,17.5 c 0,0 9.583,4.083 9.5,14.917 0,0 1.457,17.749 -22.063,19.916 l -26.104,0 0,-74.416 29.917,0 c 0,0 25,-0.084 25,21 0,0 0.583,14.333 -16.25,18.583 m -67.545,49.4156 109.878,0 0,-103.544 -109.878,0 0,103.544 z"
             id="path3186" />
        </g>
        <g
           transform="matrix(0.82302261,0,0,-0.82302261,85.355129,997.27701)"
           style="fill:#ffffff;stroke:none"
           id="g3188">
          <path
             inkscape:connector-curvature="0"
             d="m 0,0 c 0,-11.25 -14,-10.583 -14,-10.583 l -14,0 0,20.333 14,0 C 0.417,9.833 0,0 0,0 m -28,40.75 10.667,0 c 11.083,-0.584 10.666,-8.833 10.666,-8.833 0,-10.25 -12.25,-10.417 -12.25,-10.417 l -9.083,0 0,19.25 z M -2.583,17.5 c 0,0 9.583,4.083 9.5,14.917 0,0 1.457,17.749 -22.063,19.916 l -26.104,0 0,-74.416 29.917,0 c 0,0 25,-0.084 25,21 0,0 0.583,14.333 -16.25,18.583 m -67.545,49.4156 109.878,0 0,-103.544 -109.878,0 0,103.544 z"
             style="fill:#ffffff;fill-rule:nonzero;stroke:none"
             id="path3190" />
        </g>
        <g
           transform="matrix(0.82302261,0,0,-0.82302261,308.1885,958.5961)"
           style="fill:#ffffff;stroke:none"
           id="g3192">
          <path
             inkscape:connector-curvature="0"
             d="m 0,0 0,-13.75 c 0,0 -13.417,8.25 -28.25,8.417 0,0 -27.666,0.54 -28.916,-26.522 0,0 -1,-24.895 28.583,-26.312 0,0 12.417,-1.5 29.25,9.25 l 0,-14.25 c 0,0 -22.583,-13.416 -48.75,-3.083 0,0 -22,8.04 -22.834,34.395 0,0 -0.917,27.105 28.417,36.105 0,0 7.834,3 21.917,1.667 0,0 8.416,-0.834 20.583,-5.917 m -87.461,-83.627 109.878,0 0,103.544 -109.878,0 0,-103.544 z"
             style="fill:#ffffff;fill-rule:nonzero;stroke:none"
             id="path3194" />
        </g>
      </g>
    </g>
  </g>
</svg>
