<?xml version="1.0" encoding="UTF-8" standalone="yes"?>
<svg xmlns="http://www.w3.org/2000/svg" xmlns:xlink="http://www.w3.org/1999/xlink" width="232px" height="106.66666666666666px" viewBox="0 0 174 80" version="1.1">
  <g id="surface1">
    <path style=" stroke:none;fill-rule:nonzero;fill:rgb(0%,0%,0%);fill-opacity:1;" d="M 72.875 61.015625 C 74.515625 62.628906 78.210938 64.570312 81.066406 64.570312 C 84.503906 64.570312 86.566406 62.613281 86.566406 61.0625 C 86.566406 59.222656 85.132812 58.25 82.953125 57.839844 L 79.574219 57.207031 C 71.777344 55.773438 69.597656 53.246094 69.597656 49.277344 C 69.597656 44.5625 73.554688 40.199219 80.492188 40.199219 C 84.332031 40.199219 87.714844 41.347656 91.5 44.050781 L 88.117188 48.246094 C 85.191406 45.769531 82.609375 45.140625 80.660156 45.140625 C 78.082031 45.140625 75.5625 46.40625 75.5625 48.648438 C 75.5625 50.3125 76.878906 51.171875 79.167969 51.578125 L 85.191406 52.730469 C 90.121094 53.648438 92.53125 56.003906 92.53125 60.140625 C 92.53125 64.222656 89.203125 69.511719 80.777344 69.511719 C 76.378906 69.511719 72.042969 67.660156 69.019531 65.230469 Z M 72.875 61.015625 "/>
    <path style=" stroke:none;fill-rule:nonzero;fill:rgb(0%,0%,0%);fill-opacity:1;" d="M 162.417969 20.121094 C 162.28125 20.121094 162.136719 20.117188 162 20.109375 C 161.714844 20.089844 161.4375 20.070312 161.167969 20.035156 C 160.898438 20.007812 160.632812 19.960938 160.378906 19.917969 C 160.074219 19.855469 159.769531 19.785156 159.496094 19.703125 C 159.328125 19.652344 159.167969 19.605469 159.015625 19.546875 C 158.855469 19.496094 158.707031 19.441406 158.558594 19.386719 C 158.164062 19.21875 157.804688 19.046875 157.488281 18.867188 C 157.316406 18.773438 157.160156 18.683594 157.015625 18.589844 C 156.875 18.492188 156.746094 18.40625 156.625 18.316406 L 156.328125 18.09375 L 156.046875 17.851562 C 155.910156 17.738281 155.804688 17.636719 155.691406 17.53125 L 155.621094 17.464844 C 155.492188 17.335938 155.371094 17.199219 155.238281 17.050781 C 155.128906 16.933594 155.023438 16.800781 154.914062 16.667969 C 154.824219 16.539062 154.722656 16.410156 154.628906 16.265625 C 154.554688 16.164062 154.484375 16.054688 154.410156 15.9375 C 154.324219 15.804688 154.238281 15.65625 154.160156 15.503906 C 154.019531 15.246094 153.890625 14.972656 153.777344 14.691406 C 153.695312 14.515625 153.632812 14.332031 153.566406 14.148438 C 153.515625 13.992188 153.472656 13.835938 153.421875 13.675781 C 153.390625 13.554688 153.367188 13.429688 153.339844 13.300781 L 153.300781 13.121094 C 153.269531 12.96875 153.25 12.816406 153.226562 12.664062 L 153.21875 12.570312 C 153.195312 12.4375 153.191406 12.296875 153.191406 12.171875 C 153.171875 12.042969 153.171875 11.910156 153.171875 11.78125 C 153.171875 11.605469 153.179688 11.433594 153.191406 11.265625 C 153.195312 11.035156 153.226562 10.816406 153.257812 10.601562 C 153.34375 9.921875 153.511719 9.277344 153.738281 8.671875 C 153.917969 8.203125 154.152344 7.75 154.402344 7.332031 L 154.542969 7.125 L 154.742188 6.820312 C 154.84375 6.683594 154.9375 6.550781 155.042969 6.429688 C 155.136719 6.316406 155.230469 6.203125 155.332031 6.089844 L 155.636719 5.777344 C 155.75 5.65625 155.882812 5.539062 156.011719 5.421875 C 156.15625 5.296875 156.300781 5.175781 156.457031 5.054688 L 156.683594 4.886719 L 156.957031 4.699219 C 157.117188 4.589844 157.289062 4.492188 157.460938 4.386719 C 157.644531 4.273438 157.828125 4.175781 158.023438 4.089844 C 158.25 3.976562 158.507812 3.863281 158.765625 3.765625 C 159.253906 3.574219 159.792969 3.402344 160.378906 3.28125 L 160.660156 3.222656 L 160.875 3.191406 L 161.039062 3.164062 L 161.171875 3.140625 L 161.289062 3.128906 C 161.429688 3.109375 161.570312 3.089844 161.71875 3.074219 L 162.023438 3.058594 C 162.195312 3.046875 162.378906 3.039062 162.558594 3.035156 L 162.824219 3.023438 C 163.042969 3.023438 163.273438 3.039062 163.503906 3.050781 C 163.628906 3.058594 163.761719 3.066406 163.898438 3.074219 C 164.082031 3.101562 164.277344 3.121094 164.460938 3.140625 L 164.589844 3.164062 C 164.710938 3.179688 164.824219 3.203125 164.925781 3.21875 C 165.058594 3.242188 165.191406 3.261719 165.324219 3.289062 C 165.441406 3.320312 165.5625 3.347656 165.679688 3.371094 L 165.910156 3.421875 C 166.023438 3.460938 166.136719 3.488281 166.25 3.515625 L 166.53125 3.589844 L 166.613281 3.617188 L 166.894531 3.699219 C 167.019531 3.734375 167.140625 3.785156 167.257812 3.8125 L 167.558594 3.917969 C 167.683594 3.964844 167.796875 4.003906 167.914062 4.042969 C 168.109375 4.109375 168.277344 4.175781 168.425781 4.234375 C 168.757812 4.359375 168.960938 4.441406 168.960938 4.441406 L 168.960938 7.542969 L 168.632812 7.355469 C 168.511719 7.296875 168.367188 7.214844 168.199219 7.128906 L 167.882812 6.96875 C 167.746094 6.90625 167.597656 6.828125 167.449219 6.761719 C 167.261719 6.679688 167.078125 6.59375 166.867188 6.507812 C 166.726562 6.449219 166.574219 6.390625 166.414062 6.335938 C 166.414062 6.335938 166.324219 6.300781 166.144531 6.242188 C 166.050781 6.203125 165.914062 6.160156 165.765625 6.121094 C 165.664062 6.089844 165.554688 6.054688 165.429688 6.019531 C 165.246094 5.96875 165.039062 5.921875 164.816406 5.875 C 164.667969 5.847656 164.507812 5.820312 164.34375 5.796875 C 164.164062 5.769531 163.972656 5.742188 163.777344 5.726562 L 163.464844 5.703125 C 163.300781 5.691406 163.140625 5.6875 162.980469 5.683594 L 162.769531 5.683594 C 162.546875 5.683594 162.316406 5.691406 162.085938 5.710938 C 161.964844 5.722656 161.855469 5.738281 161.726562 5.75 C 161.609375 5.765625 161.484375 5.785156 161.363281 5.808594 L 161.03125 5.875 L 160.699219 5.957031 C 160.582031 5.992188 160.464844 6.027344 160.347656 6.070312 L 160.027344 6.1875 L 159.707031 6.316406 C 159.042969 6.625 158.390625 7.058594 157.816406 7.632812 L 157.703125 7.757812 L 157.492188 8 L 157.335938 8.1875 C 157.207031 8.363281 157.089844 8.542969 156.984375 8.722656 L 156.851562 8.96875 L 156.695312 9.28125 L 156.605469 9.523438 L 156.488281 9.859375 C 156.453125 9.992188 156.414062 10.109375 156.390625 10.222656 C 156.339844 10.40625 156.3125 10.574219 156.292969 10.730469 C 156.25 10.992188 156.238281 11.222656 156.226562 11.402344 L 156.226562 11.605469 C 156.226562 11.683594 156.226562 11.796875 156.238281 11.929688 L 156.253906 12.199219 C 156.28125 12.449219 156.3125 12.761719 156.402344 13.085938 C 156.429688 13.199219 156.46875 13.320312 156.496094 13.4375 C 156.546875 13.585938 156.605469 13.75 156.675781 13.90625 L 156.796875 14.191406 L 156.976562 14.523438 L 157.28125 14.980469 L 157.460938 15.21875 C 157.585938 15.363281 157.714844 15.507812 157.859375 15.648438 L 157.925781 15.714844 L 157.984375 15.765625 L 158.082031 15.855469 L 158.328125 16.054688 L 158.601562 16.257812 L 158.824219 16.402344 L 159.042969 16.535156 C 159.191406 16.621094 159.351562 16.699219 159.5 16.773438 L 159.722656 16.871094 L 159.851562 16.921875 L 160.046875 17.003906 C 160.492188 17.160156 160.953125 17.277344 161.410156 17.351562 C 161.683594 17.414062 161.964844 17.4375 162.242188 17.453125 C 162.46875 17.46875 162.707031 17.472656 162.929688 17.472656 C 163.03125 17.472656 163.140625 17.472656 163.269531 17.46875 C 163.445312 17.453125 163.644531 17.449219 163.871094 17.421875 C 164.011719 17.414062 164.152344 17.390625 164.3125 17.371094 L 164.507812 17.335938 C 165.058594 17.226562 165.6875 17.078125 166.378906 16.835938 C 166.738281 16.699219 167.109375 16.546875 167.503906 16.363281 C 167.722656 16.261719 167.941406 16.140625 168.175781 16.019531 C 168.382812 15.90625 168.585938 15.785156 168.796875 15.652344 L 169.023438 15.519531 L 169.132812 15.453125 L 169.132812 18.609375 L 168.96875 18.691406 C 168.847656 18.746094 168.714844 18.8125 168.597656 18.867188 C 168.46875 18.925781 168.332031 18.980469 168.214844 19.039062 C 168.007812 19.128906 167.835938 19.195312 167.683594 19.25 C 167.566406 19.296875 167.476562 19.328125 167.402344 19.355469 L 167.273438 19.402344 C 167.121094 19.453125 166.972656 19.503906 166.820312 19.550781 C 166.679688 19.589844 166.546875 19.632812 166.40625 19.671875 C 166.214844 19.71875 166.011719 19.773438 165.808594 19.8125 C 165.664062 19.847656 165.523438 19.875 165.382812 19.898438 C 165.144531 19.9375 164.910156 19.976562 164.648438 20.011719 C 164.496094 20.019531 164.328125 20.046875 164.144531 20.054688 L 164.0625 20.070312 C 163.621094 20.105469 163.132812 20.125 162.625 20.125 Z M 174 0 L 149.472656 0 L 149.472656 23.140625 L 174 23.140625 Z M 174 0 "/>
    <path style=" stroke:none;fill-rule:nonzero;fill:rgb(0%,0%,0%);fill-opacity:1;" d="M 138.644531 18.304688 C 136.953125 19.996094 133.90625 19.914062 133.90625 19.914062 L 127.648438 19.914062 L 127.648438 3.242188 L 133.039062 3.242188 C 135.945312 3.242188 137.234375 4.769531 137.234375 4.769531 C 137.234375 4.769531 138.402344 5.785156 138.402344 7.550781 C 138.402344 9.308594 137.609375 10.03125 137.386719 10.257812 C 136.90625 10.738281 136.285156 11.035156 136.285156 11.035156 C 136.285156 11.035156 137.652344 11.320312 138.75 12.40625 C 140.011719 13.679688 139.910156 15.339844 139.910156 15.339844 C 139.910156 15.339844 140.011719 16.933594 138.644531 18.304688 M 121.210938 23.140625 L 145.746094 23.140625 L 145.746094 0 L 121.210938 0 Z M 132.273438 10.15625 L 132.589844 10.144531 C 132.886719 10.117188 133.289062 10.082031 133.699219 9.960938 L 133.933594 9.886719 C 134.25 9.777344 134.5625 9.605469 134.796875 9.371094 C 134.984375 9.1875 135.105469 8.976562 135.191406 8.777344 C 135.296875 8.535156 135.320312 8.296875 135.335938 8.132812 C 135.359375 7.976562 135.351562 7.882812 135.351562 7.882812 L 135.347656 7.707031 C 135.335938 7.515625 135.304688 7.210938 135.152344 6.910156 C 135.082031 6.773438 134.984375 6.636719 134.847656 6.503906 C 134.695312 6.347656 134.496094 6.226562 134.289062 6.132812 C 133.890625 5.953125 133.425781 5.882812 133.039062 5.859375 C 132.875 5.847656 132.726562 5.847656 132.589844 5.847656 L 130.621094 5.847656 L 130.621094 10.160156 L 132.046875 10.160156 C 132.046875 10.160156 132.148438 10.160156 132.273438 10.15625 M 136.453125 13.804688 L 136.347656 13.671875 L 136.082031 13.441406 C 135.917969 13.320312 135.738281 13.214844 135.539062 13.132812 C 135.265625 13.015625 134.964844 12.941406 134.644531 12.871094 C 134.480469 12.839844 134.300781 12.816406 134.125 12.800781 C 134.019531 12.789062 133.902344 12.777344 133.777344 12.773438 L 133.472656 12.761719 L 130.621094 12.761719 L 130.621094 17.316406 L 133.566406 17.316406 L 133.726562 17.304688 C 133.828125 17.304688 133.960938 17.292969 134.136719 17.277344 C 134.453125 17.253906 134.875 17.191406 135.285156 17.058594 C 135.652344 16.929688 136.015625 16.742188 136.285156 16.464844 L 136.558594 16.140625 C 136.785156 15.769531 136.835938 15.40625 136.855469 15.1875 L 136.855469 14.933594 C 136.855469 14.847656 136.851562 14.679688 136.800781 14.496094 C 136.746094 14.277344 136.644531 14.03125 136.453125 13.804688 "/>
    <path style=" stroke:none;fill-rule:nonzero;fill:rgb(0%,0%,0%);fill-opacity:1;" d="M 105.640625 19.914062 L 99.382812 19.914062 L 99.382812 3.242188 L 104.785156 3.242188 C 107.679688 3.242188 108.972656 4.765625 108.972656 4.765625 C 108.972656 4.765625 110.140625 5.785156 110.140625 7.550781 C 110.140625 9.308594 109.347656 10.03125 109.121094 10.257812 C 108.640625 10.738281 108.019531 11.035156 108.019531 11.035156 C 108.019531 11.035156 109.398438 11.324219 110.480469 12.40625 C 111.753906 13.683594 111.65625 15.335938 111.65625 15.335938 C 111.65625 15.335938 111.753906 16.933594 110.378906 18.304688 C 108.699219 19.996094 105.640625 19.914062 105.640625 19.914062 M 117.476562 0 L 92.949219 0 L 92.949219 23.140625 L 117.476562 23.140625 Z M 104.332031 10.144531 C 104.625 10.113281 105.027344 10.082031 105.4375 9.960938 L 105.675781 9.890625 C 105.988281 9.777344 106.289062 9.605469 106.53125 9.371094 C 106.722656 9.183594 106.839844 8.976562 106.929688 8.78125 C 107.027344 8.535156 107.0625 8.296875 107.078125 8.132812 C 107.089844 7.976562 107.089844 7.882812 107.089844 7.882812 L 107.089844 7.707031 C 107.078125 7.515625 107.035156 7.210938 106.890625 6.914062 C 106.824219 6.773438 106.722656 6.640625 106.585938 6.503906 C 106.425781 6.347656 106.234375 6.222656 106.027344 6.132812 C 105.625 5.957031 105.164062 5.882812 104.78125 5.855469 C 104.605469 5.847656 104.457031 5.847656 104.328125 5.847656 L 102.363281 5.847656 L 102.363281 10.160156 L 103.785156 10.160156 C 103.785156 10.160156 103.886719 10.160156 104.011719 10.152344 Z M 105.875 17.28125 C 106.195312 17.253906 106.613281 17.191406 107.023438 17.058594 C 107.386719 16.933594 107.753906 16.738281 108.023438 16.464844 L 108.289062 16.136719 C 108.519531 15.769531 108.574219 15.40625 108.589844 15.191406 L 108.597656 15.046875 L 108.597656 14.933594 C 108.597656 14.847656 108.582031 14.679688 108.535156 14.496094 C 108.484375 14.277344 108.382812 14.03125 108.195312 13.804688 L 108.078125 13.671875 L 107.816406 13.441406 C 107.652344 13.320312 107.46875 13.21875 107.273438 13.132812 C 107.007812 13.015625 106.710938 12.941406 106.382812 12.871094 C 106.214844 12.839844 106.042969 12.820312 105.863281 12.796875 C 105.742188 12.789062 105.640625 12.777344 105.519531 12.769531 L 105.210938 12.757812 L 102.363281 12.757812 L 102.363281 17.3125 L 105.308594 17.3125 L 105.464844 17.304688 C 105.566406 17.304688 105.703125 17.292969 105.875 17.28125 "/>
    <path style=" stroke:none;fill-rule:nonzero;fill:rgb(0%,0%,0%);fill-opacity:1;" d="M 141.804688 31.921875 L 141.804688 56.5625 C 141.804688 62.492188 142.488281 63.644531 144.269531 64.675781 L 141.425781 69.460938 C 137.636719 67.253906 135.839844 64.960938 135.839844 60.367188 L 135.839844 31.921875 Z M 141.804688 31.921875 "/>
    <path style=" stroke:none;fill-rule:nonzero;fill:rgb(0%,0%,0%);fill-opacity:1;" d="M 167.007812 51.980469 C 165.746094 47.722656 162.589844 45.484375 158.808594 45.484375 C 155.023438 45.484375 151.929688 47.839844 150.949219 51.980469 Z M 172.511719 62.730469 C 169.183594 66.925781 164.597656 69.453125 159.609375 69.511719 C 149.921875 69.511719 144.304688 62.214844 144.304688 54.855469 C 144.304688 47.5 149.921875 40.199219 159.609375 40.199219 C 165.398438 40.199219 174 44.96875 174 55.832031 L 174 56.925781 L 150.949219 56.925781 C 151.296875 61.175781 155.253906 64.226562 159.441406 64.226562 C 162.652344 64.226562 165.398438 62.671875 167.464844 59.914062 Z M 172.511719 62.730469 "/>
    <path style=" stroke:none;fill-rule:nonzero;fill:rgb(0%,0%,0%);fill-opacity:1;" d="M 0 23.058594 L 0 59.097656 C 0 64.910156 2.707031 67.144531 9.175781 70.234375 L 9.40625 70.34375 L 12.304688 65.15625 L 8.851562 63.179688 C 7.242188 62.242188 6.519531 61.269531 6.519531 58 L 6.519531 23.058594 Z M 0 23.058594 "/>
    <path style=" stroke:none;fill-rule:nonzero;fill:rgb(0%,0%,0%);fill-opacity:1;" d="M 14.53125 40.898438 L 20.507812 40.898438 L 20.507812 68.707031 L 14.53125 68.707031 Z M 14.53125 40.898438 "/>
    <path style=" stroke:none;fill-rule:nonzero;fill:rgb(0%,0%,0%);fill-opacity:1;" d="M 21.238281 34.21875 C 21.238281 36.28125 19.574219 37.949219 17.515625 37.949219 C 15.460938 37.949219 13.796875 36.28125 13.796875 34.21875 C 13.796875 32.15625 15.460938 30.484375 17.515625 30.484375 C 19.574219 30.484375 21.238281 32.15625 21.238281 34.21875 "/>
    <path style=" stroke:none;fill-rule:nonzero;fill:rgb(0%,0%,0%);fill-opacity:1;" d="M 44.414062 51.957031 C 45.390625 47.808594 48.492188 45.445312 52.285156 45.445312 C 56.078125 45.445312 59.234375 47.695312 60.5 51.957031 Z M 53.089844 40.148438 C 44.652344 40.148438 39.304688 45.675781 38.042969 51.957031 L 32.28125 51.957031 L 32.28125 41.589844 C 32.28125 39.515625 33.71875 37.503906 36.128906 37.503906 C 37.222656 37.503906 37.96875 37.671875 38.773438 38.019531 L 41.238281 32.605469 C 39.976562 32.085938 38.082031 31.855469 36.648438 31.855469 C 29.464844 31.855469 26.304688 36.753906 26.304688 41.9375 L 26.304688 51.957031 L 22.777344 51.957031 L 22.777344 56.910156 L 26.304688 56.910156 L 26.304688 77.546875 L 32.28125 77.546875 L 32.28125 56.910156 L 37.914062 56.910156 C 38.867188 63.523438 44.296875 69.527344 53.089844 69.527344 C 58.085938 69.46875 62.679688 66.9375 66.011719 62.730469 L 60.957031 59.910156 C 58.890625 62.671875 56.132812 64.226562 52.914062 64.226562 C 48.722656 64.226562 44.761719 61.175781 44.414062 56.910156 L 67.503906 56.910156 L 67.503906 55.8125 C 67.503906 44.929688 58.890625 40.148438 53.089844 40.148438 "/>
    <path style=" stroke:none;fill-rule:nonzero;fill:rgb(0%,0%,0%);fill-opacity:1;" d="M 127.582031 40.847656 L 127.582031 56.578125 C 127.582031 60.882812 125.457031 63.753906 121.054688 63.753906 C 117.574219 63.753906 114.851562 61.800781 114.851562 57.152344 L 114.851562 40.847656 L 102.296875 40.847656 L 102.296875 31.917969 L 96.332031 31.917969 L 96.332031 40.847656 L 92.949219 40.847656 L 92.949219 46.480469 L 96.332031 46.480469 L 96.332031 60.144531 C 96.332031 64.894531 98.25 67.179688 102.308594 69.457031 L 104.757812 64.453125 C 102.984375 63.421875 102.296875 62.042969 102.296875 59.054688 L 102.296875 46.480469 L 109.195312 46.480469 L 109.195312 56.921875 C 109.195312 64.730469 113.984375 69.378906 119.855469 69.378906 C 123.503906 69.378906 125.570312 68.578125 127.796875 65.9375 L 127.90625 65.9375 L 127.90625 67.085938 C 127.90625 71.964844 124.644531 74.371094 120.890625 74.371094 C 120.890625 74.371094 115.484375 74.359375 114.835938 74.296875 L 114.835938 79.734375 C 115.53125 79.902344 121.21875 80 121.21875 80 C 126.109375 80 133.234375 76.273438 133.234375 67.773438 L 133.234375 40.847656 Z M 127.582031 40.847656 "/>
  </g>
</svg>