<?xml version="1.0" encoding="UTF-8" standalone="no"?>
<!-- Created with Inkscape (http://www.inkscape.org/) -->
<svg
   xmlns:dc="http://purl.org/dc/elements/1.1/"
   xmlns:cc="http://web.resource.org/cc/"
   xmlns:rdf="http://www.w3.org/1999/02/22-rdf-syntax-ns#"
   xmlns:svg="http://www.w3.org/2000/svg"
   xmlns="http://www.w3.org/2000/svg"
   xmlns:sodipodi="http://sodipodi.sourceforge.net/DTD/sodipodi-0.dtd"
   xmlns:inkscape="http://www.inkscape.org/namespaces/inkscape"
   width="482"
   height="221"
   id="svg2"
   sodipodi:version="0.32"
   inkscape:version="0.45.1"
   version="1.0"
   inkscape:output_extension="org.inkscape.output.svg.inkscape">
  <g
     inkscape:label="Layer 1"
     inkscape:groupmode="layer"
     id="layer1"
     transform="translate(-305.34458,-156.8098)">
    <g
       id="g3888"
       clip-path="url(#id27)"
       transform="matrix(8.2821787,0,0,-8.2821787,-1865.6563,1926.8116)">
      <g
         id="g3890"
         transform="translate(286.5029,193.3602)">
        <path
           id="path3892"
           d="M 0,0 C 0.549,-0.538 1.785,-1.185 2.74,-1.185 C 3.89,-1.185 4.58,-0.533 4.58,-0.015 C 4.58,0.598 4.101,0.923 3.372,1.059 L 2.241,1.27 C -0.367,1.749 -1.095,2.592 -1.095,3.915 C -1.095,5.488 0.228,6.944 2.548,6.944 C 3.832,6.944 4.964,6.56 6.23,5.659 L 5.098,4.26 C 4.12,5.085 3.257,5.295 2.605,5.295 C 1.742,5.295 0.899,4.873 0.899,4.125 C 0.899,3.57 1.34,3.283 2.106,3.148 L 4.12,2.764 C 5.769,2.458 6.575,1.672 6.575,0.292 C 6.575,-1.07 5.462,-2.833 2.643,-2.833 C 1.173,-2.833 -0.278,-2.216 -1.289,-1.405 L 0,0 z "
           style="fill:#000000;fill-rule:nonzero;stroke:none" />
      </g>
      <g
         id="g3894"
         transform="translate(316.4522,207.0011)">
        <path
           id="path3896"
           d="M 0,0 C -0.045,0 -0.093,0.001 -0.14,0.003 C -0.235,0.01 -0.328,0.017 -0.417,0.028 C -0.508,0.037 -0.596,0.053 -0.681,0.068 C -0.784,0.088 -0.885,0.112 -0.977,0.139 C -1.033,0.156 -1.086,0.172 -1.138,0.191 C -1.191,0.208 -1.241,0.227 -1.291,0.245 C -1.422,0.3 -1.543,0.358 -1.649,0.418 C -1.706,0.449 -1.758,0.479 -1.807,0.511 C -1.853,0.543 -1.897,0.571 -1.937,0.601 L -2.036,0.676 L -2.131,0.757 C -2.176,0.794 -2.212,0.828 -2.249,0.863 L -2.273,0.886 C -2.316,0.928 -2.357,0.974 -2.401,1.024 C -2.437,1.063 -2.473,1.107 -2.509,1.151 C -2.539,1.195 -2.574,1.238 -2.605,1.286 C -2.63,1.32 -2.653,1.356 -2.678,1.395 C -2.706,1.439 -2.735,1.489 -2.762,1.54 C -2.808,1.626 -2.852,1.717 -2.89,1.811 C -2.917,1.869 -2.938,1.931 -2.96,1.992 C -2.977,2.044 -2.992,2.096 -3.008,2.149 C -3.019,2.19 -3.027,2.232 -3.036,2.274 L -3.049,2.334 C -3.06,2.385 -3.066,2.436 -3.074,2.487 L -3.077,2.518 C -3.084,2.562 -3.085,2.609 -3.086,2.651 C -3.092,2.694 -3.092,2.739 -3.092,2.782 C -3.092,2.84 -3.089,2.898 -3.086,2.954 C -3.084,3.03 -3.074,3.103 -3.063,3.175 C -3.034,3.402 -2.979,3.617 -2.902,3.818 C -2.842,3.975 -2.764,4.126 -2.68,4.265 L -2.634,4.334 L -2.567,4.436 C -2.533,4.482 -2.502,4.526 -2.466,4.566 C -2.435,4.604 -2.403,4.642 -2.369,4.68 L -2.268,4.784 C -2.23,4.824 -2.185,4.863 -2.142,4.903 C -2.094,4.944 -2.045,4.984 -1.993,5.025 L -1.918,5.081 L -1.826,5.144 C -1.773,5.18 -1.715,5.213 -1.658,5.248 C -1.596,5.285 -1.535,5.318 -1.469,5.347 C -1.393,5.385 -1.308,5.423 -1.221,5.455 C -1.058,5.519 -0.877,5.576 -0.681,5.617 L -0.587,5.636 L -0.515,5.647 L -0.461,5.655 L -0.416,5.663 L -0.377,5.668 C -0.33,5.674 -0.283,5.68 -0.233,5.685 L -0.131,5.691 C -0.074,5.695 -0.013,5.697 0.048,5.699 L 0.136,5.702 C 0.209,5.702 0.286,5.697 0.364,5.694 C 0.405,5.691 0.45,5.688 0.495,5.685 C 0.557,5.677 0.622,5.67 0.684,5.663 L 0.727,5.655 C 0.767,5.65 0.805,5.643 0.839,5.638 C 0.884,5.63 0.928,5.623 0.972,5.614 C 1.012,5.604 1.052,5.594 1.092,5.587 L 1.169,5.569 C 1.206,5.557 1.244,5.548 1.282,5.539 L 1.376,5.513 L 1.404,5.504 L 1.498,5.477 C 1.539,5.466 1.58,5.448 1.619,5.439 L 1.72,5.404 C 1.761,5.389 1.8,5.375 1.839,5.362 C 1.904,5.34 1.96,5.318 2.01,5.299 C 2.121,5.257 2.189,5.229 2.189,5.229 L 2.189,4.195 L 2.079,4.257 C 2.039,4.277 1.99,4.305 1.934,4.333 L 1.828,4.387 C 1.783,4.408 1.733,4.434 1.683,4.455 C 1.621,4.483 1.559,4.512 1.489,4.54 C 1.441,4.56 1.39,4.58 1.337,4.598 C 1.337,4.598 1.307,4.61 1.247,4.629 C 1.215,4.642 1.17,4.656 1.12,4.669 C 1.086,4.68 1.05,4.692 1.008,4.703 C 0.946,4.72 0.877,4.736 0.803,4.751 C 0.753,4.76 0.699,4.77 0.645,4.777 C 0.585,4.787 0.521,4.796 0.455,4.801 L 0.35,4.809 C 0.296,4.812 0.242,4.814 0.188,4.815 L 0.118,4.815 C 0.044,4.815 -0.034,4.812 -0.11,4.806 C -0.151,4.802 -0.188,4.797 -0.231,4.793 C -0.27,4.788 -0.312,4.782 -0.352,4.774 L -0.464,4.751 L -0.574,4.724 C -0.614,4.712 -0.653,4.701 -0.692,4.686 L -0.799,4.647 L -0.906,4.604 C -1.128,4.501 -1.346,4.357 -1.539,4.165 L -1.576,4.124 L -1.647,4.042 L -1.699,3.98 C -1.743,3.921 -1.782,3.862 -1.817,3.801 L -1.861,3.719 L -1.914,3.615 L -1.944,3.534 L -1.983,3.423 C -1.995,3.378 -2.008,3.339 -2.016,3.301 C -2.032,3.24 -2.042,3.184 -2.048,3.132 C -2.063,3.044 -2.067,2.968 -2.07,2.908 L -2.07,2.84 C -2.07,2.814 -2.07,2.776 -2.067,2.732 L -2.061,2.642 C -2.052,2.558 -2.041,2.455 -2.012,2.346 C -2.002,2.309 -1.99,2.268 -1.98,2.229 C -1.963,2.179 -1.944,2.125 -1.92,2.073 L -1.879,1.978 L -1.819,1.867 L -1.77,1.793 L -1.717,1.714 L -1.657,1.635 C -1.616,1.587 -1.572,1.538 -1.524,1.492 L -1.511,1.479 L -1.502,1.47 L -1.483,1.453 L -1.45,1.423 L -1.368,1.356 L -1.276,1.288 L -1.202,1.24 L -1.128,1.196 C -1.079,1.167 -1.025,1.141 -0.975,1.116 L -0.901,1.084 L -0.858,1.067 L -0.793,1.04 C -0.644,0.987 -0.49,0.948 -0.337,0.923 C -0.245,0.903 -0.151,0.895 -0.058,0.89 C 0.018,0.884 0.097,0.883 0.171,0.883 C 0.206,0.883 0.242,0.883 0.285,0.884 C 0.344,0.889 0.411,0.891 0.486,0.9 C 0.533,0.903 0.581,0.91 0.634,0.917 L 0.699,0.929 C 0.884,0.965 1.094,1.015 1.325,1.096 C 1.445,1.141 1.57,1.192 1.702,1.253 C 1.775,1.287 1.848,1.327 1.926,1.368 C 1.996,1.406 2.064,1.446 2.134,1.49 L 2.21,1.534 L 2.246,1.556 L 2.246,0.504 L 2.192,0.477 C 2.151,0.458 2.107,0.436 2.067,0.418 C 2.024,0.399 1.979,0.38 1.939,0.36 C 1.87,0.331 1.812,0.309 1.761,0.29 C 1.723,0.275 1.693,0.264 1.668,0.255 L 1.624,0.239 C 1.574,0.223 1.524,0.206 1.473,0.19 C 1.426,0.177 1.381,0.163 1.335,0.15 C 1.27,0.134 1.202,0.115 1.134,0.102 C 1.086,0.091 1.039,0.082 0.992,0.074 C 0.913,0.061 0.834,0.048 0.747,0.036 C 0.695,0.033 0.639,0.024 0.578,0.022 L 0.551,0.017 C 0.403,0.005 0.24,-0.002 0.07,-0.002 L 0,0 z M 3.874,6.711 L -4.329,6.711 L -4.329,-1.007 L 3.874,-1.007 L 3.874,6.711 z "
           style="fill:#000000;fill-rule:nonzero;stroke:none" />
      </g>
      <g
         id="g3898"
         transform="translate(308.5009,207.6068)">
        <path
           id="path3900"
           d="M 0,0 C -0.565,-0.564 -1.584,-0.537 -1.584,-0.537 L -3.677,-0.537 L -3.677,5.024 L -1.874,5.024 C -0.903,5.024 -0.471,4.515 -0.471,4.515 C -0.471,4.515 -0.081,4.176 -0.081,3.587 C -0.081,3.001 -0.346,2.76 -0.421,2.684 C -0.581,2.524 -0.789,2.424 -0.789,2.424 C -0.789,2.424 -0.331,2.329 0.035,1.967 C 0.457,1.542 0.424,0.989 0.424,0.989 C 0.424,0.989 0.457,0.457 0,0 M -5.831,-1.613 L 2.375,-1.613 L 2.375,6.105 L -5.831,6.105 L -5.831,-1.613 z M -2.13,2.718 L -2.025,2.722 C -1.925,2.731 -1.791,2.743 -1.654,2.783 L -1.575,2.807 C -1.469,2.844 -1.365,2.902 -1.287,2.979 C -1.224,3.041 -1.183,3.111 -1.155,3.177 C -1.12,3.259 -1.111,3.338 -1.106,3.393 C -1.098,3.445 -1.101,3.476 -1.101,3.476 L -1.102,3.535 C -1.106,3.599 -1.117,3.7 -1.168,3.8 C -1.191,3.846 -1.224,3.891 -1.27,3.936 C -1.321,3.988 -1.387,4.029 -1.456,4.06 C -1.59,4.119 -1.745,4.143 -1.875,4.151 C -1.93,4.155 -1.979,4.155 -2.025,4.155 L -2.683,4.155 L -2.683,2.717 L -2.207,2.717 C -2.207,2.717 -2.173,2.717 -2.13,2.718 M -0.732,1.501 L -0.768,1.545 L -0.857,1.622 C -0.912,1.662 -0.972,1.697 -1.039,1.725 C -1.13,1.764 -1.23,1.789 -1.337,1.812 C -1.392,1.823 -1.452,1.83 -1.511,1.836 C -1.547,1.84 -1.586,1.844 -1.627,1.845 L -1.73,1.849 L -2.683,1.849 L -2.683,0.33 L -1.698,0.33 L -1.644,0.334 C -1.611,0.334 -1.566,0.337 -1.507,0.342 C -1.402,0.35 -1.261,0.371 -1.123,0.416 C -1,0.458 -0.879,0.521 -0.789,0.613 L -0.698,0.722 C -0.621,0.846 -0.604,0.967 -0.598,1.039 L -0.598,1.087 L -0.598,1.124 C -0.598,1.153 -0.6,1.209 -0.617,1.27 C -0.635,1.343 -0.669,1.425 -0.732,1.501"
           style="fill:#000000;fill-rule:nonzero;stroke:none" />
      </g>
      <g
         id="g3902"
         transform="translate(297.4619,207.0695)">
        <path
           id="path3904"
           d="M 0,0 L -2.092,0 L -2.092,5.561 L -0.286,5.561 C 0.683,5.561 1.115,5.053 1.115,5.053 C 1.115,5.053 1.506,4.713 1.506,4.124 C 1.506,3.538 1.241,3.297 1.165,3.221 C 1.004,3.061 0.796,2.962 0.796,2.962 C 0.796,2.962 1.258,2.866 1.619,2.504 C 2.045,2.079 2.012,1.527 2.012,1.527 C 2.012,1.527 2.045,0.994 1.586,0.537 C 1.023,-0.027 0,0 0,0 M 3.959,6.642 L -4.244,6.642 L -4.244,-1.076 L 3.959,-1.076 L 3.959,6.642 z M -0.437,3.259 C -0.339,3.269 -0.205,3.28 -0.067,3.32 L 0.012,3.344 C 0.117,3.382 0.218,3.439 0.299,3.517 C 0.362,3.579 0.402,3.648 0.432,3.714 C 0.465,3.796 0.476,3.875 0.481,3.93 C 0.485,3.982 0.485,4.013 0.485,4.013 L 0.485,4.072 C 0.481,4.136 0.467,4.238 0.419,4.337 C 0.396,4.383 0.362,4.428 0.317,4.473 C 0.263,4.525 0.199,4.567 0.13,4.597 C -0.005,4.656 -0.159,4.68 -0.287,4.689 C -0.345,4.692 -0.395,4.692 -0.439,4.692 L -1.096,4.692 L -1.096,3.254 L -0.62,3.254 C -0.62,3.254 -0.586,3.254 -0.544,3.256 L -0.437,3.259 z M 0.079,0.879 C 0.186,0.887 0.326,0.908 0.463,0.953 C 0.585,0.995 0.708,1.059 0.798,1.151 L 0.887,1.26 C 0.963,1.383 0.982,1.504 0.987,1.576 L 0.989,1.624 L 0.989,1.661 C 0.989,1.69 0.984,1.746 0.969,1.807 C 0.952,1.88 0.918,1.962 0.855,2.038 L 0.816,2.083 L 0.728,2.159 C 0.674,2.199 0.612,2.234 0.547,2.262 C 0.458,2.301 0.358,2.326 0.249,2.349 C 0.193,2.36 0.135,2.367 0.075,2.374 C 0.035,2.377 0,2.381 -0.04,2.383 L -0.143,2.387 L -1.096,2.387 L -1.096,0.868 L -0.11,0.868 L -0.058,0.871 C -0.024,0.871 0.021,0.874 0.079,0.879"
           style="fill:#000000;fill-rule:nonzero;stroke:none" />
      </g>
      <g
         id="g3906"
         transform="translate(309.5583,203.0652)">
        <path
           id="path3908"
           d="M 0,0 L 0,-8.219 C 0,-10.197 0.229,-10.581 0.824,-10.926 L -0.127,-12.521 C -1.394,-11.785 -1.995,-11.021 -1.995,-9.488 L -1.995,-0.001 L 0,0 z "
           style="fill:#000000;fill-rule:nonzero;stroke:none" />
      </g>
      <g
         id="g3910"
         transform="translate(317.9873,196.3741)">
        <path
           id="path3912"
           d="M 0,0 C -0.422,1.42 -1.477,2.167 -2.742,2.167 C -4.008,2.167 -5.043,1.381 -5.37,0 L 0,0 z M 1.841,-3.585 C 0.728,-4.985 -0.806,-5.828 -2.474,-5.847 C -5.714,-5.847 -7.593,-3.413 -7.593,-0.959 C -7.593,1.495 -5.714,3.93 -2.474,3.93 C -0.538,3.93 2.339,2.339 2.339,-1.285 L 2.339,-1.649 L -5.37,-1.649 C -5.254,-3.067 -3.931,-4.084 -2.53,-4.084 C -1.456,-4.084 -0.538,-3.566 0.153,-2.646 L 1.841,-3.585 z "
           style="fill:#000000;fill-rule:nonzero;stroke:none" />
      </g>
      <g
         id="g3914"
         transform="translate(262.1292,206.0208)">
        <path
           id="path3916"
           d="M 0,0 L 0,-12.02 C 0,-13.959 0.905,-14.704 3.069,-15.735 L 3.146,-15.772 L 4.116,-14.042 L 2.961,-13.382 C 2.422,-13.069 2.181,-12.745 2.181,-11.655 L 2.181,0 L 0,0 z "
           style="fill:#000000;fill-rule:nonzero;stroke:none" />
      </g>
      <path
         id="path3918"
         d="M 266.99,200.07 L 268.988,200.07 L 268.988,190.795 L 266.99,190.795 L 266.99,200.07 z "
         style="fill:#000000;fill-rule:nonzero;stroke:none" />
      <g
         id="g3920"
         transform="translate(269.2329,202.2986)">
        <path
           id="path3922"
           d="M 0,0 C 0,-0.688 -0.557,-1.244 -1.245,-1.244 C -1.932,-1.244 -2.489,-0.688 -2.489,0 C -2.489,0.688 -1.932,1.245 -1.245,1.245 C -0.557,1.245 0,0.688 0,0"
           style="fill:#000000;fill-rule:nonzero;stroke:none" />
      </g>
      <g
         id="g3924"
         transform="translate(276.9844,196.3814)">
        <path
           id="path3926"
           d="M 0,0 C 0.327,1.384 1.364,2.172 2.632,2.172 C 3.901,2.172 4.957,1.422 5.38,0 L 0,0 z M 2.901,3.939 C 0.08,3.939 -1.709,2.096 -2.131,0 L -4.058,0 L -4.058,3.458 C -4.058,4.15 -3.578,4.822 -2.771,4.822 C -2.406,4.822 -2.156,4.765 -1.887,4.65 L -1.062,6.455 C -1.484,6.628 -2.118,6.705 -2.598,6.705 C -5,6.705 -6.057,5.072 -6.057,3.343 L -6.057,0 L -7.237,0 L -7.237,-1.652 L -6.057,-1.652 L -6.057,-8.535 L -4.058,-8.535 L -4.058,-1.652 L -2.174,-1.652 C -1.856,-3.857 -0.04,-5.86 2.901,-5.86 C 4.573,-5.841 6.109,-4.996 7.224,-3.593 L 5.533,-2.652 C 4.842,-3.573 3.919,-4.092 2.843,-4.092 C 1.441,-4.092 0.116,-3.074 0,-1.652 L 7.723,-1.652 L 7.723,-1.286 C 7.723,2.344 4.842,3.939 2.901,3.939"
           style="fill:#000000;fill-rule:nonzero;stroke:none" />
      </g>
      <g
         id="g3928"
         transform="translate(304.8007,200.0873)">
        <path
           id="path3930"
           d="M 0,0 L 0,-5.247 C 0,-6.683 -0.71,-7.64 -2.183,-7.64 C -3.347,-7.64 -4.257,-6.989 -4.257,-5.438 L -4.257,0 L -6.115,0 L -6.149,0 L -8.457,0 L -8.457,2.978 L -10.452,2.978 L -10.452,0 L -11.583,0 L -11.583,-1.879 L -10.452,-1.879 L -10.452,-6.436 C -10.452,-8.021 -9.81,-8.783 -8.453,-9.543 L -7.634,-7.874 C -8.227,-7.529 -8.457,-7.07 -8.457,-6.073 L -8.457,-1.879 L -6.149,-1.879 L -6.149,-5.362 C -6.149,-7.966 -4.548,-9.516 -2.584,-9.516 C -1.364,-9.516 -0.673,-9.249 0.072,-8.368 L 0.109,-8.368 L 0.109,-8.751 C 0.109,-10.379 -0.982,-11.182 -2.238,-11.182 C -2.238,-11.182 -4.046,-11.177 -4.263,-11.157 L -4.263,-12.971 C -4.03,-13.026 -2.128,-13.059 -2.128,-13.059 C -0.492,-13.059 1.891,-11.816 1.891,-8.981 L 1.891,0 L 0,0 z "
           style="fill:#000000;fill-rule:nonzero;stroke:none" />
      </g>
    </g>
  </g>
</svg>
