<?xml version="1.0" encoding="UTF-8" standalone="no"?>
<!-- Created with Inkscape (http://www.inkscape.org/) -->
<svg
   xmlns:svg="http://www.w3.org/2000/svg"
   xmlns="http://www.w3.org/2000/svg"
   version="1.0"
   width="602.36218"
   height="131.88188"
   id="svg1878">
  <defs
     id="defs1880" />
  <g
     id="layer1">
    <g
       transform="matrix(3.543307e-5,0,0,3.543307e-5,-3.691406e-6,7.615697e-3)"
       style="fill-rule:evenodd"
       id="Layer_x0020_1">
  
  <g
   id="_85521872">
   <path
   d="M 5505450,2610230 L 5505450,1880830 C 5505450,1413890 5192860,1246250 4715510,1246250 C 4346370,1246250 4060580,1333530 4060580,1333530 L 4134510,1713180 C 4134510,1713180 4420310,1645580 4662030,1645580 C 4887240,1645580 5068380,1675970 5068380,1914630 L 5068380,2056010 L 4628230,2056010 C 4218330,2056010 4050690,2206810 4050690,2522950 L 4050690,2646950 C 4050690,3026610 4231820,3218020 4671970,3218020 L 4887240,3218020 C 5293590,3218020 5505450,3030010 5505450,2610230 z M 5071830,2640470 C 5071830,2815130 4937310,2851950 4759200,2851950 C 4588000,2851950 4463990,2808260 4463990,2637010 L 4463990,2586460 C 4463990,2415210 4561310,2385020 4735960,2385020 L 5068380,2385020 L 5071830,2640470 z M 3802580,1941460 L 3802580,1820240 C 3802580,1440730 3620960,1246250 3180810,1246250 L 2966020,1246250 C 2556120,1246250 2344260,1437270 2344260,1857500 L 2344260,2582910 C 2344260,3050370 2660400,3221570 3133670,3221570 C 3506890,3221570 3792690,3134190 3792690,3134190 L 3718750,2751230 C 3718750,2751230 3432960,2818680 3190700,2818680 C 2966020,2818680 2784360,2787910 2784360,2549730 L 2784360,2405320 L 3221090,2408250 C 3630850,2408250 3802580,2253900 3802580,1941460 z M 3389270,1874390 C 3389270,2049050 3291950,2079250 3113890,2079250 L 2784360,2079250 L 2784360,1827250 C 2784360,1652590 2915470,1612460 3090120,1612460 C 3261710,1612460 3389270,1659080 3389270,1830660 L 3389270,1874390 z "
   style="fill:#903"
   id="_87413792" />

   <path
   d="M 16500000,1941460 L 16500000,1820240 C 16500000,1440730 16318330,1246250 15878190,1246250 L 15663400,1246250 C 15252970,1246250 15041640,1437270 15041640,1857500 L 15041640,2582910 C 15041640,3050370 15357290,3221570 15831090,3221570 C 16204270,3221570 16489580,3134190 16489580,3134190 L 16415650,2751230 C 16415650,2751230 16130330,2818680 15888130,2818680 C 15663400,2818680 15481780,2787910 15481780,2549730 L 15481780,2405320 L 15918470,2408250 C 16328220,2408250 16500000,2253900 16500000,1941460 z M 16086640,1874390 C 16086640,2049050 15988850,2079250 15810740,2079250 L 15481780,2079250 L 15481780,1827250 C 15481780,1652590 15612700,1612460 15787360,1612460 C 15958600,1612460 16086640,1659080 16086640,1830660 L 16086640,1874390 z M 14744510,2734330 L 14744510,2522950 C 14744510,2193460 14555880,2028690 14119290,2028690 C 13857260,2028690 13817120,1961770 13817120,1827250 L 13817120,1787110 C 13817120,1632290 13921250,1618800 14092500,1618800 C 14344500,1618800 14633370,1709630 14633370,1709630 L 14703750,1330070 C 14703750,1330070 14455160,1246250 14079060,1246250 C 13659370,1246250 13376980,1360320 13376980,1756770 L 13376980,1914630 C 13376980,2244010 13568530,2418670 13984770,2418670 C 14280500,2418670 14307290,2499080 14307290,2633610 L 14307290,2680700 C 14307290,2821610 14166430,2831980 13961440,2831980 C 13756540,2831980 13440490,2737740 13440490,2737740 L 13366560,3130740 C 13366560,3130740 13655810,3218020 14005120,3218020 C 14455160,3218020 14744510,3117290 14744510,2734330 z M 13051430,3198190 L 13051430,1817360 C 13051430,1417450 12836640,1246250 12476910,1246250 C 12201530,1246250 11983140,1292860 11983140,1292860 L 11983140,500000 L 11532620,500000 L 11532620,3198190 L 11983140,3198190 L 11983140,1682840 C 11983140,1682840 12181170,1645580 12309210,1645580 C 12486800,1645580 12611430,1699740 12611430,1911070 L 12611430,3198190 L 13051430,3198190 z M 11150660,3127180 L 11150660,1269480 L 10706970,1269480 L 10706970,2811670 C 10706970,2811670 10599380,2828570 10407820,2828570 C 10223230,2828570 10098650,2751230 10098650,2569560 L 10098650,1269480 L 9652160,1269480 L 9652160,2623670 C 9652160,3050370 9964750,3218020 10327410,3218020 L 10407820,3218020 C 10787330,3218020 11150660,3127180 11150660,3127180 L 11150660,3127180 z M 8541190,1941460 L 8541190,1820240 C 8541190,1440730 8360050,1246250 7919910,1246250 L 7704640,1246250 C 7294740,1246250 7083360,1437270 7083360,1857500 L 7083360,2582910 C 7083360,3050370 7398870,3221570 7872810,3221570 C 8245360,3221570 8531160,3134190 8531160,3134190 L 8457220,2751230 C 8457220,2751230 8171430,2818680 7929850,2818680 C 7704640,2818680 7523500,2787910 7523500,2549730 L 7523500,2405320 L 7960090,2408250 C 8369990,2408250 8541190,2253900 8541190,1941460 z M 8128360,1874390 C 8128360,2049050 8030570,2079250 7852500,2079250 L 7523500,2079250 L 7523500,1827250 C 7523500,1652590 7654470,1612460 7829120,1612460 C 8000320,1612460 8128360,1659080 8128360,1830660 L 8128360,1874390 z M 6885320,3151090 L 6811390,2774460 C 6811390,2774460 6673940,2818150 6566350,2818150 C 6468550,2818150 6418530,2798320 6418530,2700530 L 6418530,1669490 L 6798040,1669490 L 6798040,1269480 L 6418530,1269480 L 6418530,738650 L 5964890,738650 L 5964890,1273040 L 5726240,1273040 L 5726240,1669490 L 5964890,1669490 L 5964890,2804710 C 5964890,3100540 6146030,3221570 6424870,3221570 C 6646760,3221570 6885320,3151090 6885320,3151090 z M 2011800,2656840 L 2011800,1780110 C 2011800,1420900 1827250,1246250 1410490,1246250 C 1199100,1246250 950560,1303280 950560,1303280 L 950560,500000 L 500000,500000 L 500000,3110960 C 500000,3110960 738650,3218020 1041350,3218020 L 1383700,3218020 C 1793450,3218020 2011800,3020120 2011800,2656840 z M 1565320,2569560 C 1565320,2767980 1467520,2815130 1282980,2815130 L 950560,2815130 L 950560,1699740 C 950560,1699740 1118210,1652590 1275970,1652590 C 1457630,1652590 1565320,1733010 1565320,1911070 L 1565320,2569560 z "
   style="fill:red"
   id="_46573248" />

  </g>

 </g>
  </g>
</svg>
