<?xml version="1.0" encoding="UTF-8" standalone="yes"?>
<svg xmlns="http://www.w3.org/2000/svg" xmlns:xlink="http://www.w3.org/1999/xlink" width="485.3333333333333px" height="106.66666666666666px" viewBox="0 0 364 80" version="1.1">
  <g id="surface1">
    <path style=" stroke:none;fill-rule:evenodd;fill:rgb(60%,0%,20%);fill-opacity:1;" d="M 117.953125 56.058594 L 117.953125 40.394531 C 117.953125 30.367188 111.253906 26.765625 101.027344 26.765625 C 93.121094 26.765625 86.996094 28.640625 86.996094 28.640625 L 88.582031 36.792969 C 88.582031 36.792969 94.703125 35.34375 99.882812 35.34375 C 104.707031 35.34375 108.589844 35.996094 108.589844 41.121094 L 108.589844 44.15625 L 99.15625 44.15625 C 90.375 44.15625 86.785156 47.394531 86.785156 54.183594 L 86.785156 56.847656 C 86.785156 65 90.664062 69.109375 100.09375 69.109375 L 104.707031 69.109375 C 113.414062 69.109375 117.953125 65.074219 117.953125 56.058594 Z M 108.664062 56.707031 C 108.664062 60.457031 105.78125 61.25 101.964844 61.25 C 98.296875 61.25 95.640625 60.3125 95.640625 56.632812 L 95.640625 55.546875 C 95.640625 51.871094 97.722656 51.222656 101.464844 51.222656 L 108.589844 51.222656 Z M 81.46875 41.695312 L 81.46875 39.09375 C 81.46875 30.945312 77.578125 26.765625 68.148438 26.765625 L 63.546875 26.765625 C 54.765625 26.765625 50.226562 30.871094 50.226562 39.894531 L 50.226562 55.472656 C 50.226562 65.511719 57 69.1875 67.136719 69.1875 C 75.132812 69.1875 81.257812 67.308594 81.257812 67.308594 L 79.671875 59.085938 C 79.671875 59.085938 73.550781 60.535156 68.359375 60.535156 C 63.546875 60.535156 59.652344 59.875 59.652344 54.757812 L 59.652344 51.65625 L 69.011719 51.722656 C 77.789062 51.722656 81.46875 48.40625 81.46875 41.695312 Z M 72.613281 40.257812 C 72.613281 44.007812 70.527344 44.65625 66.714844 44.65625 L 59.652344 44.65625 L 59.652344 39.242188 C 59.652344 35.492188 62.464844 34.632812 66.203125 34.632812 C 69.882812 34.632812 72.613281 35.632812 72.613281 39.316406 Z M 72.613281 40.257812 "/>
    <path style=" stroke:none;fill-rule:evenodd;fill:rgb(100%,0%,0%);fill-opacity:1;" d="M 353.507812 41.695312 L 353.507812 39.09375 C 353.507812 30.945312 349.613281 26.765625 340.183594 26.765625 L 335.582031 26.765625 C 326.789062 26.765625 322.261719 30.871094 322.261719 39.894531 L 322.261719 55.472656 C 322.261719 65.511719 329.023438 69.1875 339.175781 69.1875 C 347.171875 69.1875 353.285156 67.308594 353.285156 67.308594 L 351.699219 59.085938 C 351.699219 59.085938 345.585938 60.535156 340.398438 60.535156 C 335.582031 60.535156 331.691406 59.875 331.691406 54.757812 L 331.691406 51.65625 L 341.046875 51.722656 C 349.828125 51.722656 353.507812 48.40625 353.507812 41.695312 Z M 344.652344 40.257812 C 344.652344 44.007812 342.554688 44.65625 338.738281 44.65625 L 331.691406 44.65625 L 331.691406 39.242188 C 331.691406 35.492188 334.496094 34.632812 338.238281 34.632812 C 341.90625 34.632812 344.652344 35.632812 344.652344 39.316406 Z M 315.894531 58.722656 L 315.894531 54.183594 C 315.894531 47.109375 311.855469 43.570312 302.5 43.570312 C 296.886719 43.570312 296.027344 42.132812 296.027344 39.242188 L 296.027344 38.382812 C 296.027344 35.058594 298.257812 34.769531 301.925781 34.769531 C 307.324219 34.769531 313.515625 36.71875 313.515625 36.71875 L 315.023438 28.566406 C 315.023438 28.566406 309.695312 26.765625 301.640625 26.765625 C 292.648438 26.765625 286.597656 29.21875 286.597656 37.730469 L 286.597656 41.121094 C 286.597656 48.195312 290.699219 51.945312 299.617188 51.945312 C 305.953125 51.945312 306.527344 53.671875 306.527344 56.558594 L 306.527344 57.570312 C 306.527344 60.597656 303.511719 60.820312 299.117188 60.820312 C 294.730469 60.820312 287.957031 58.796875 287.957031 58.796875 L 286.375 67.234375 C 286.375 67.234375 292.570312 69.109375 300.054688 69.109375 C 309.695312 69.109375 315.894531 66.945312 315.894531 58.722656 Z M 279.621094 68.683594 L 279.621094 39.03125 C 279.621094 30.445312 275.019531 26.765625 267.3125 26.765625 C 261.414062 26.765625 256.734375 27.769531 256.734375 27.769531 L 256.734375 10.742188 L 247.082031 10.742188 L 247.082031 68.683594 L 256.734375 68.683594 L 256.734375 36.144531 C 256.734375 36.144531 260.976562 35.34375 263.71875 35.34375 C 267.523438 35.34375 270.195312 36.503906 270.195312 41.042969 L 270.195312 68.683594 Z M 238.898438 67.160156 L 238.898438 27.265625 L 229.394531 27.265625 L 229.394531 60.382812 C 229.394531 60.382812 227.089844 60.746094 222.984375 60.746094 C 219.027344 60.746094 216.359375 59.085938 216.359375 55.183594 L 216.359375 27.265625 L 206.792969 27.265625 L 206.792969 56.347656 C 206.792969 65.511719 213.492188 69.109375 221.261719 69.109375 L 222.984375 69.109375 C 231.113281 69.109375 238.898438 67.160156 238.898438 67.160156 Z M 182.992188 41.695312 L 182.992188 39.09375 C 182.992188 30.945312 179.109375 26.765625 169.679688 26.765625 L 165.070312 26.765625 C 156.289062 26.765625 151.757812 30.871094 151.757812 39.894531 L 151.757812 55.472656 C 151.757812 65.511719 158.519531 69.1875 168.671875 69.1875 C 176.652344 69.1875 182.777344 67.308594 182.777344 67.308594 L 181.191406 59.085938 C 181.191406 59.085938 175.070312 60.535156 169.894531 60.535156 C 165.070312 60.535156 161.1875 59.875 161.1875 54.757812 L 161.1875 51.65625 L 170.542969 51.722656 C 179.324219 51.722656 182.992188 48.40625 182.992188 41.695312 Z M 174.148438 40.257812 C 174.148438 44.007812 172.050781 44.65625 168.238281 44.65625 L 161.1875 44.65625 L 161.1875 39.242188 C 161.1875 35.492188 163.996094 34.632812 167.734375 34.632812 C 171.402344 34.632812 174.148438 35.632812 174.148438 39.316406 Z M 147.515625 67.671875 L 145.929688 59.585938 C 145.929688 59.585938 142.988281 60.523438 140.683594 60.523438 C 138.585938 60.523438 137.515625 60.097656 137.515625 57.996094 L 137.515625 35.855469 L 145.644531 35.855469 L 145.644531 27.265625 L 137.515625 27.265625 L 137.515625 15.867188 L 127.796875 15.867188 L 127.796875 27.34375 L 122.683594 27.34375 L 122.683594 35.855469 L 127.796875 35.855469 L 127.796875 60.234375 C 127.796875 66.585938 131.675781 69.1875 137.652344 69.1875 C 142.40625 69.1875 147.515625 67.671875 147.515625 67.671875 Z M 43.101562 57.058594 L 43.101562 38.230469 C 43.101562 30.519531 39.148438 26.765625 30.21875 26.765625 C 25.691406 26.765625 20.367188 27.992188 20.367188 27.992188 L 20.367188 10.742188 L 10.710938 10.742188 L 10.710938 66.8125 C 10.710938 66.8125 15.824219 69.109375 22.3125 69.109375 L 29.644531 69.109375 C 38.425781 69.109375 43.101562 64.859375 43.101562 57.058594 Z M 33.535156 55.183594 C 33.535156 59.445312 31.441406 60.457031 27.488281 60.457031 L 20.367188 60.457031 L 20.367188 36.503906 C 20.367188 36.503906 23.957031 35.492188 27.335938 35.492188 C 31.230469 35.492188 33.535156 37.21875 33.535156 41.042969 Z M 33.535156 55.183594 "/>
  </g>
</svg>