<?xml version="1.0" encoding="UTF-8" standalone="yes"?>
<svg xmlns="http://www.w3.org/2000/svg" xmlns:xlink="http://www.w3.org/1999/xlink" width="364px" height="106.66666666666666px" viewBox="0 0 273 80" version="1.1">
  <g id="surface1">
    <path style=" stroke:none;fill-rule:nonzero;fill:rgb(47.843137%,47.058824%,47.45098%);fill-opacity:1;" d="M 137.78125 48.304688 C 132.449219 48.304688 128.46875 46.757812 125.933594 43.765625 C 128.371094 48.007812 132.882812 50.210938 139.324219 50.210938 L 157.492188 50.210938 L 157.492188 39.230469 L 155.585938 39.230469 L 155.585938 48.304688 L 137.78125 48.304688 "/>
    <path style=" stroke:none;fill-rule:nonzero;fill:rgb(47.843137%,47.058824%,47.45098%);fill-opacity:1;" d="M 138.636719 9.074219 C 136.789062 9.074219 134.664062 9.660156 134.664062 14.21875 L 134.664062 32.902344 C 134.664062 36.355469 135.882812 37.527344 137.277344 37.894531 C 136.839844 37.175781 136.574219 36.089844 136.574219 34.445312 L 136.574219 15.765625 C 136.574219 11.5625 138.308594 10.984375 140.183594 10.984375 C 140.183594 10.984375 143.023438 10.984375 145.261719 10.984375 C 145.261719 10.246094 145.261719 9.554688 145.261719 9.074219 C 143.230469 9.074219 138.636719 9.074219 138.636719 9.074219 "/>
    <path style=" stroke:none;fill-rule:nonzero;fill:rgb(47.843137%,47.058824%,47.45098%);fill-opacity:1;" d="M 171.652344 35.90625 C 171.652344 38.277344 171.652344 48.304688 171.652344 48.304688 L 161.097656 48.304688 L 161.097656 50.210938 L 173.558594 50.210938 C 173.558594 50.210938 173.558594 40.546875 173.558594 37.816406 L 184.863281 37.816406 C 184.863281 37 184.863281 36.328125 184.863281 35.90625 L 171.652344 35.90625 "/>
    <path style=" stroke:none;fill-rule:nonzero;fill:rgb(47.843137%,47.058824%,47.45098%);fill-opacity:1;" d="M 95.167969 8.839844 C 94.664062 8.839844 94.464844 8.945312 94.4375 8.972656 C 94.425781 8.988281 94.382812 9.089844 94.382812 9.320312 L 94.382812 37.574219 C 94.382812 42.46875 92.292969 48.304688 82.339844 48.304688 L 74.628906 48.304688 L 74.628906 50.210938 L 83.882812 50.210938 C 94.136719 50.210938 96.289062 44.179688 96.289062 39.117188 L 96.289062 10.867188 C 96.289062 10.828125 96.292969 10.8125 96.296875 10.789062 C 96.378906 10.769531 96.503906 10.75 96.714844 10.75 C 96.714844 10.75 103.300781 10.75 106.761719 10.75 C 106.761719 9.800781 106.761719 9.136719 106.761719 8.839844 C 104.351562 8.839844 95.167969 8.839844 95.167969 8.839844 "/>
    <path style=" stroke:none;fill-rule:nonzero;fill:rgb(47.843137%,47.058824%,47.45098%);fill-opacity:1;" d="M 155.585938 14.832031 L 146.445312 14.832031 C 146.445312 15.90625 146.445312 16.742188 146.445312 16.742188 L 157.496094 16.742188 L 157.496094 0 L 155.585938 0 L 155.585938 14.832031 "/>
    <path style=" stroke:none;fill-rule:nonzero;fill:rgb(47.843137%,47.058824%,47.45098%);fill-opacity:1;" d="M 69.546875 9.074219 L 51.792969 9.074219 C 51.292969 9.074219 50.886719 9.480469 50.886719 9.980469 C 50.886719 9.980469 50.886719 16.367188 50.886719 18.589844 C 51.273438 18.589844 51.945312 18.589844 52.796875 18.589844 C 52.796875 15.800781 52.796875 11.527344 52.796875 11.527344 C 52.796875 11.226562 53.039062 10.984375 53.335938 10.984375 L 71.457031 10.984375 L 71.457031 0 L 69.546875 0 L 69.546875 9.074219 "/>
    <path style=" stroke:none;fill-rule:nonzero;fill:rgb(47.843137%,47.058824%,47.45098%);fill-opacity:1;" d="M 32.09375 21.347656 C 34.46875 23.492188 35.136719 26.554688 35.136719 29.320312 L 35.136719 37.335938 C 35.136719 42.339844 33.085938 48.304688 23.328125 48.304688 L 10.496094 48.304688 C 5.683594 48.304688 2.710938 46.9375 0.921875 44.972656 C 2.480469 47.917969 5.71875 50.210938 12.039062 50.210938 L 24.871094 50.210938 C 32.71875 50.210938 37.042969 46.1875 37.042969 38.882812 L 37.042969 30.867188 C 37.042969 27.398438 36.03125 23.472656 32.09375 21.347656 "/>
    <path style=" stroke:none;fill-rule:nonzero;fill:rgb(47.843137%,47.058824%,47.45098%);fill-opacity:1;" d="M 11.664062 38.046875 L 12.316406 38.046875 C 12.316406 37.5 12.316406 33.007812 12.316406 30.753906 C 14.949219 30.753906 22.453125 30.753906 23.175781 30.753906 L 23.175781 30.09375 C 23.175781 29.320312 23.105469 28.84375 21.691406 28.84375 C 21.691406 28.84375 12.796875 28.84375 10.410156 28.84375 C 10.410156 30.988281 10.410156 36.554688 10.410156 36.554688 C 10.410156 37.976562 10.886719 38.046875 11.664062 38.046875 "/>
    <path style=" stroke:none;fill-rule:nonzero;fill:rgb(47.843137%,47.058824%,47.45098%);fill-opacity:1;" d="M 173.570312 11.003906 C 173.644531 10.980469 173.773438 10.953125 174.050781 10.953125 C 174.050781 10.953125 181.253906 10.953125 184.863281 10.953125 L 184.863281 9.042969 C 182.421875 9.042969 172.507812 9.042969 172.507812 9.042969 C 171.652344 9.042969 171.652344 9.199219 171.652344 9.578125 C 171.652344 9.578125 171.652344 23.074219 171.652344 25.648438 L 173.558594 25.648438 C 173.558594 21.378906 173.558594 11.128906 173.558594 11.128906 C 173.558594 11.070312 173.5625 11.035156 173.570312 11.003906 "/>
    <path style=" stroke:none;fill-rule:nonzero;fill:rgb(47.843137%,47.058824%,47.45098%);fill-opacity:1;" d="M 11.664062 9.074219 C 10.679688 9.074219 10.328125 9.285156 10.328125 10.484375 C 10.328125 10.484375 10.328125 16.40625 10.328125 18.589844 C 10.757812 18.589844 11.429688 18.589844 12.238281 18.589844 C 12.238281 15.929688 12.238281 12.03125 12.238281 12.03125 C 12.238281 11.027344 12.4375 10.984375 13.207031 10.984375 L 33.707031 10.984375 L 33.707031 0 L 31.800781 0 L 31.800781 9.074219 L 11.664062 9.074219 "/>
    <path style=" stroke:none;fill-rule:nonzero;fill:rgb(47.843137%,47.058824%,47.45098%);fill-opacity:1;" d="M 50.027344 48.304688 C 50.027344 48.304688 49.976562 48.246094 49.960938 48.226562 C 45.742188 48.042969 43.066406 46.734375 41.40625 44.917969 C 42.863281 47.667969 45.796875 49.851562 51.34375 50.128906 C 51.359375 50.144531 51.414062 50.210938 51.414062 50.210938 L 71.457031 50.210938 L 71.457031 39.230469 L 69.546875 39.230469 L 69.546875 48.304688 L 50.027344 48.304688 "/>
    <path style=" stroke:none;fill-rule:nonzero;fill:rgb(47.843137%,47.058824%,47.45098%);fill-opacity:1;" d="M 50.886719 28.84375 C 50.886719 31.042969 50.886719 37.140625 50.886719 37.140625 C 50.886719 37.640625 51.292969 38.046875 51.792969 38.046875 L 52.796875 38.046875 C 52.796875 36.535156 52.796875 32.714844 52.796875 30.753906 C 55.816406 30.753906 70.136719 30.753906 70.136719 30.753906 L 70.136719 19.773438 C 70.136719 19.773438 69.394531 19.773438 68.226562 19.773438 L 68.226562 28.84375 C 68.226562 28.84375 53.453125 28.84375 50.886719 28.84375 "/>
    <path style=" stroke:none;fill-rule:nonzero;fill:rgb(47.843137%,47.058824%,47.45098%);fill-opacity:1;" d="M 118.25 48.304688 L 107.941406 48.304688 C 107.941406 49.511719 107.941406 50.210938 107.941406 50.210938 L 120.15625 50.210938 L 120.15625 0 L 118.25 0 L 118.25 48.304688 "/>
    <path style=" stroke:none;fill-rule:nonzero;fill:rgb(47.843137%,47.058824%,47.45098%);fill-opacity:1;" d="M 229.003906 14.910156 C 229.003906 15.988281 229.003906 16.824219 229.003906 16.824219 L 240.203125 16.824219 L 240.203125 0 L 238.296875 0 L 238.296875 14.910156 L 229.003906 14.910156 "/>
    <path style=" stroke:none;fill-rule:nonzero;fill:rgb(47.843137%,47.058824%,47.45098%);fill-opacity:1;" d="M 201.726562 9.074219 L 201.726562 10.984375 C 201.726562 10.984375 207.445312 10.984375 210.570312 10.984375 C 210.570312 10.039062 210.570312 9.371094 210.570312 9.074219 C 208.894531 9.074219 203.996094 9.074219 201.726562 9.074219 "/>
    <path style=" stroke:none;fill-rule:nonzero;fill:rgb(47.843137%,47.058824%,47.45098%);fill-opacity:1;" d="M 227.820312 9.074219 L 222.527344 9.074219 C 222.527344 11.929688 222.527344 48.304688 222.527344 48.304688 L 211.753906 48.304688 C 211.753906 49.515625 211.753906 50.210938 211.753906 50.210938 L 224.433594 50.210938 C 224.433594 50.210938 224.433594 14.441406 224.433594 10.984375 L 227.820312 10.984375 C 227.820312 10.246094 227.820312 9.554688 227.820312 9.074219 "/>
    <path style=" stroke:none;fill-rule:nonzero;fill:rgb(47.843137%,47.058824%,47.45098%);fill-opacity:1;" d="M 196.59375 48.304688 L 186.046875 48.304688 C 186.046875 49.453125 186.046875 50.210938 186.046875 50.210938 L 198.503906 50.210938 L 198.503906 0 L 196.59375 0 L 196.59375 48.304688 "/>
    <path style=" stroke:none;fill-rule:nonzero;fill:rgb(47.843137%,47.058824%,47.45098%);fill-opacity:1;" d="M 268.832031 19.648438 C 270.3125 21.085938 271.089844 23.179688 271.089844 25.863281 L 271.089844 38.828125 C 271.089844 44.9375 268.074219 48.304688 262.597656 48.304688 L 236.320312 48.304688 C 233.632812 48.304688 231.542969 47.523438 230.105469 46.039062 C 231.480469 48.757812 234.113281 50.210938 237.867188 50.210938 L 264.140625 50.210938 C 267.449219 50.210938 273 48.933594 273 40.375 L 273 27.414062 C 273 23.660156 271.546875 21.023438 268.832031 19.648438 "/>
    <path style=" stroke:none;fill-rule:nonzero;fill:rgb(47.843137%,47.058824%,47.45098%);fill-opacity:1;" d="M 217.171875 62.851562 L 220.960938 62.851562 L 220.960938 56.183594 L 203.164062 56.183594 L 203.164062 59.859375 L 208.3125 59.859375 L 208.3125 80 L 212.863281 80 L 212.863281 59.859375 L 217.171875 59.859375 Z M 186.894531 60.914062 C 186.894531 60.210938 187.300781 59.84375 188.121094 59.84375 L 195.257812 59.84375 L 195.257812 69.957031 L 186.894531 69.957031 Z M 182.453125 59.921875 L 182.453125 80 L 186.894531 80 L 186.894531 73.632812 L 195.257812 73.632812 L 195.257812 80 L 199.695312 80 L 199.695312 56.183594 L 186.109375 56.183594 C 183.683594 56.183594 182.453125 57.417969 182.453125 59.921875 "/>
    <path style=" stroke:none;fill-rule:nonzero;fill:rgb(47.843137%,47.058824%,47.45098%);fill-opacity:1;" d="M 112.878906 76.300781 L 118.101562 76.300781 C 118.984375 76.300781 119.425781 75.898438 119.425781 75.054688 L 119.425781 71.117188 C 119.425781 70.226562 118.984375 69.707031 118.140625 69.503906 L 112.878906 69.503906 Z M 112.878906 65.808594 L 117.300781 65.808594 C 118.21875 65.808594 118.660156 65.246094 118.660156 64.160156 L 118.660156 61.585938 C 118.660156 60.339844 118.140625 59.738281 117.097656 59.738281 L 112.878906 59.738281 Z M 121.3125 67.539062 C 123.078125 67.898438 123.964844 69.066406 123.964844 71.035156 L 123.964844 75.378906 C 123.964844 78.472656 122.398438 80 119.226562 80 L 108.304688 80 L 108.304688 59.738281 L 106.171875 59.738281 L 106.171875 56.039062 L 117.578125 56.039062 C 121.3125 56.039062 123.199219 57.808594 123.199219 61.382812 L 123.199219 63.917969 C 123.199219 66.050781 122.558594 67.253906 121.3125 67.539062 "/>
    <path style=" stroke:none;fill-rule:nonzero;fill:rgb(47.843137%,47.058824%,47.45098%);fill-opacity:1;" d="M 160.011719 80 L 147.121094 80 L 147.121094 59.738281 L 145.117188 59.738281 L 145.117188 56.039062 L 151.699219 56.039062 L 151.699219 76.300781 L 160.011719 76.300781 L 160.011719 80 "/>
    <path style=" stroke:none;fill-rule:nonzero;fill:rgb(47.843137%,47.058824%,47.45098%);fill-opacity:1;" d="M 173.957031 62.714844 L 173.957031 59.738281 L 168.980469 59.738281 C 167.972656 59.738281 167.449219 60.257812 167.449219 61.265625 L 167.449219 64.761719 C 167.449219 65.648438 167.894531 66.089844 168.738281 66.089844 L 173.433594 66.089844 C 176.769531 66.089844 178.453125 67.816406 178.453125 71.234375 L 178.453125 75.132812 C 178.453125 78.390625 176.6875 79.996094 173.15625 79.996094 L 163.558594 79.996094 L 163.558594 76.300781 L 172.3125 76.300781 C 173.355469 76.300781 173.878906 75.777344 173.878906 74.691406 L 173.878906 71.234375 C 173.878906 70.269531 173.355469 69.789062 172.355469 69.789062 L 167.972656 69.789062 C 164.640625 69.789062 162.957031 68.058594 162.957031 64.640625 L 162.957031 61.1875 C 162.957031 57.769531 164.761719 56.039062 168.375 56.039062 L 177.773438 56.039062 L 177.773438 62.714844 L 173.957031 62.714844 "/>
    <path style=" stroke:none;fill-rule:nonzero;fill:rgb(47.843137%,47.058824%,47.45098%);fill-opacity:1;" d="M 133.113281 56.167969 C 129.515625 56.167969 127.722656 57.726562 127.722656 60.882812 L 127.722656 75.269531 C 127.722656 78.386719 129.476562 79.9375 132.972656 79.980469 L 132.988281 80 L 141.855469 80 L 141.855469 76.320312 L 133.53125 76.320312 C 132.835938 76.320312 132.273438 75.757812 132.273438 75.066406 L 132.273438 70.011719 L 141.175781 70.011719 L 141.175781 66.332031 L 132.273438 66.332031 L 132.273438 61.117188 C 132.273438 60.421875 132.835938 59.859375 133.53125 59.859375 L 141.855469 59.859375 L 141.855469 56.183594 L 133.113281 56.183594 L 133.113281 56.167969 "/>
    <path style=" stroke:none;fill-rule:nonzero;fill:rgb(20%,30.588235%,42.745098%);fill-opacity:1;" d="M 229.367188 13.363281 L 236.75 13.363281 L 236.75 0.367188 L 202.089844 0.367188 L 202.089844 7.527344 L 212.117188 7.527344 L 212.117188 46.753906 L 220.984375 46.753906 L 220.984375 7.527344 L 229.367188 7.527344 Z M 170.105469 9.582031 C 170.105469 8.214844 170.910156 7.496094 172.507812 7.496094 L 186.410156 7.496094 L 186.410156 27.195312 L 170.105469 27.195312 Z M 161.460938 7.65625 L 161.460938 46.753906 L 170.105469 46.753906 L 170.105469 34.355469 L 186.410156 34.355469 L 186.410156 46.753906 L 195.050781 46.753906 L 195.050781 0.367188 L 168.585938 0.367188 C 163.863281 0.367188 161.460938 2.773438 161.460938 7.65625 Z M 50.976562 0.34375 C 43.976562 0.34375 40.480469 3.378906 40.480469 9.523438 L 40.480469 37.546875 C 40.480469 43.613281 43.898438 46.636719 50.707031 46.714844 L 50.738281 46.753906 L 68.003906 46.753906 L 68.003906 39.59375 L 51.792969 39.59375 C 50.4375 39.59375 49.339844 38.496094 49.339844 37.140625 L 49.339844 27.296875 L 66.679688 27.296875 L 66.679688 20.136719 L 49.339844 20.136719 L 49.339844 9.980469 C 49.339844 8.625 50.4375 7.527344 51.792969 7.527344 L 68.003906 7.527344 L 68.003906 0.367188 L 50.976562 0.367188 Z M 124.175781 14.214844 L 124.175781 32.898438 C 124.175781 42.164062 128.6875 46.753906 137.78125 46.753906 L 154.039062 46.753906 L 154.039062 39.59375 L 138.636719 39.59375 C 134.980469 39.59375 133.121094 37.335938 133.121094 32.898438 L 133.121094 14.214844 C 133.121094 9.785156 134.980469 7.527344 138.636719 7.527344 L 146.808594 7.527344 L 146.808594 13.285156 L 154.039062 13.285156 L 154.039062 0.367188 L 137.78125 0.367188 C 128.6875 0.367188 124.175781 4.957031 124.175781 14.214844 Z M 24.722656 36.402344 C 24.722656 38.5 23.792969 39.59375 21.925781 39.59375 L 11.664062 39.59375 C 9.796875 39.59375 8.863281 38.582031 8.863281 36.558594 L 8.863281 27.296875 L 21.695312 27.296875 C 23.714844 27.296875 24.722656 28.230469 24.722656 30.09375 Z M 23.09375 20.136719 L 8.785156 20.136719 L 8.785156 10.484375 C 8.785156 8.539062 9.71875 7.527344 11.664062 7.527344 L 30.257812 7.527344 L 30.257812 0.367188 L 10.496094 0.367188 C 3.5 0.367188 0 3.402344 0 9.546875 L 0 37.570312 C 0 43.71875 3.5 46.753906 10.496094 46.753906 L 23.328125 46.753906 C 30.167969 46.753906 33.589844 43.640625 33.589844 37.335938 L 33.589844 29.316406 C 33.589844 23.167969 30.089844 20.136719 23.09375 20.136719 Z M 84.441406 7.449219 L 84.441406 36.632812 C 84.441406 38.582031 83.507812 39.59375 81.566406 39.59375 L 74.992188 39.59375 L 74.992188 46.753906 L 82.339844 46.753906 C 89.339844 46.753906 92.835938 43.71875 92.835938 37.574219 L 92.835938 9.320312 C 92.835938 7.992188 93.617188 7.292969 95.167969 7.292969 L 108.304688 7.292969 L 108.304688 46.753906 L 116.703125 46.753906 L 116.703125 0.367188 L 91.359375 0.367188 C 86.769531 0.367188 84.441406 2.703125 84.441406 7.449219 "/>
    <path style=" stroke:none;fill-rule:nonzero;fill:rgb(95.686275%,40%,12.156863%);fill-opacity:1;" d="M 259.265625 43.261719 L 254.398438 43.261719 L 248.507812 28.128906 L 246.078125 28.128906 L 246.078125 24.453125 L 251.765625 24.453125 L 256.835938 38.480469 L 260.914062 24.453125 L 265.359375 24.453125 Z M 262.015625 18.90625 L 241.109375 18.90625 L 241.109375 24.453125 L 244.820312 24.453125 L 244.820312 28.128906 L 241.109375 28.128906 L 241.109375 38.273438 C 241.109375 39.222656 241.644531 39.679688 242.675781 39.632812 L 243.871094 39.632812 C 244.238281 39.632812 244.574219 39.632812 244.859375 39.59375 L 244.859375 43.261719 L 239.957031 43.261719 C 237.773438 43.261719 236.703125 42.113281 236.703125 39.839844 L 236.703125 28.128906 L 234.230469 28.128906 L 234.230469 24.453125 L 236.703125 24.453125 L 236.703125 18.90625 L 229.367188 18.90625 L 229.367188 39.210938 C 229.367188 44.242188 231.683594 46.757812 236.320312 46.757812 L 262.597656 46.757812 C 267.234375 46.757812 269.546875 44.042969 269.546875 38.828125 L 269.546875 25.867188 C 269.546875 21.234375 267.042969 18.90625 262.015625 18.90625 "/>
    <path style=" stroke:none;fill-rule:nonzero;fill:rgb(100%,100%,100%);fill-opacity:1;" d="M 234.230469 24.453125 L 234.230469 28.128906 L 236.703125 28.128906 L 236.703125 39.839844 C 236.703125 42.113281 237.773438 43.261719 239.957031 43.261719 L 244.859375 43.261719 L 244.859375 39.59375 C 244.570312 39.632812 244.238281 39.632812 243.871094 39.632812 L 242.675781 39.632812 C 241.644531 39.679688 241.109375 39.222656 241.109375 38.273438 L 241.109375 28.128906 L 244.816406 28.128906 L 244.816406 24.453125 L 241.109375 24.453125 L 241.109375 18.910156 L 236.703125 18.910156 L 236.703125 24.453125 L 234.230469 24.453125 "/>
    <path style=" stroke:none;fill-rule:nonzero;fill:rgb(100%,100%,100%);fill-opacity:1;" d="M 256.835938 38.480469 L 251.761719 24.453125 L 246.078125 24.453125 L 246.078125 28.128906 L 248.507812 28.128906 L 254.398438 43.261719 L 259.265625 43.261719 L 265.359375 24.453125 L 260.910156 24.453125 L 256.835938 38.480469 "/>
  </g>
</svg>