<?xml version="1.0" encoding="UTF-8" standalone="yes"?>
<svg xmlns="http://www.w3.org/2000/svg" xmlns:xlink="http://www.w3.org/1999/xlink" width="316px" height="106.66666666666666px" viewBox="0 0 237 80" version="1.1">
  <g id="surface1">
    <path style=" stroke:none;fill-rule:nonzero;fill:rgb(65.882353%,13.72549%,22.745098%);fill-opacity:1;" d="M 139.503906 53.046875 C 139.503906 57.597656 139.117188 62.035156 138.800781 64.734375 C 134.871094 65.824219 126.097656 67.621094 110.640625 67.648438 C 103.851562 67.65625 95.777344 67.148438 86.34375 66.328125 L 86.34375 38.554688 C 112.511719 34.613281 131.351562 39.027344 138.625 41.3125 C 138.941406 44.015625 139.503906 48.492188 139.503906 53.046875 M 151.839844 52.496094 C 151.839844 35.992188 148.851562 32.265625 148.851562 32.265625 C 148.851562 32.265625 135.023438 24.636719 106.75 24.636719 C 100.664062 24.683594 93.558594 25.097656 86.34375 26.101562 L 86.34375 0 L 74.066406 0 L 74.066406 77.546875 C 74.066406 77.546875 93.6875 79.972656 110.445312 79.972656 C 141.042969 79.972656 148.957031 73.578125 148.957031 73.578125 C 148.957031 73.578125 151.839844 69.527344 151.839844 52.496094 "/>
    <path style=" stroke:none;fill-rule:nonzero;fill:rgb(65.882353%,13.72549%,22.745098%);fill-opacity:1;" d="M 224.65625 53.046875 C 224.65625 57.597656 224.269531 62.035156 223.957031 64.734375 C 220.039062 65.824219 211.265625 67.621094 195.792969 67.648438 C 188.988281 67.65625 180.9375 67.148438 171.503906 66.328125 L 171.503906 38.554688 C 197.667969 34.613281 216.507812 39.027344 223.777344 41.3125 C 224.09375 44.015625 224.65625 48.492188 224.65625 53.046875 M 237 52.496094 C 237 35.992188 234.019531 32.265625 234.019531 32.265625 C 234.019531 32.265625 220.175781 24.636719 191.917969 24.636719 C 185.824219 24.683594 178.722656 25.097656 171.503906 26.101562 L 171.503906 0 L 159.214844 0 L 159.214844 77.546875 C 159.214844 77.546875 178.839844 79.972656 195.609375 79.972656 C 226.199219 79.972656 234.117188 73.578125 234.117188 73.578125 C 234.117188 73.578125 237 69.527344 237 52.496094 "/>
    <path style=" stroke:none;fill-rule:nonzero;fill:rgb(65.882353%,13.72549%,22.745098%);fill-opacity:1;" d="M 66.019531 24.878906 C 18.78125 25.121094 0 36.277344 0 36.277344 L 0 79.175781 L 12.523438 79.175781 L 12.523438 44.378906 C 18.464844 42.402344 35.101562 37.601562 66.019531 37.1875 Z M 66.019531 24.878906 "/>
  </g>
</svg>