<?xml version="1.0" encoding="UTF-8" ?>
<!DOCTYPE svg PUBLIC "-//W3C//DTD SVG 1.1//EN" "http://www.w3.org/Graphics/SVG/1.1/DTD/svg11.dtd">
<svg width="2499pt" height="617pt" viewBox="0 0 2499 617" version="1.1" xmlns="http://www.w3.org/2000/svg">
<g id="#f6c814ff">
<path fill="#f6c814" opacity="1.00" d=" M 268.01 7.99 C 271.35 6.01 275.13 4.12 279.15 4.81 C 284.05 5.77 288.07 8.97 292.36 11.34 C 297.67 14.63 303.29 17.48 308.42 21.05 C 311.80 25.01 318.17 27.18 318.49 33.08 C 317.85 38.02 313.11 40.77 309.48 43.51 C 301.94 48.71 295.15 54.91 287.54 60.01 C 287.79 58.23 288.25 56.49 288.67 54.75 C 286.46 54.28 284.26 53.59 282.46 52.17 C 284.33 50.08 286.46 48.20 288.96 46.89 C 294.27 43.99 299.17 40.43 304.44 37.47 C 307.12 35.87 309.98 34.45 312.21 32.22 C 314.54 30.12 310.97 25.87 308.42 27.42 C 303.22 29.49 298.18 31.97 292.98 34.06 C 288.92 35.60 285.27 39.09 280.65 38.42 C 276.65 38.00 272.34 39.42 268.66 37.24 C 262.67 34.00 256.16 31.92 250.07 28.92 C 247.01 26.97 242.98 26.68 240.17 29.26 C 236.81 31.54 237.79 36.33 239.89 39.13 C 245.18 44.40 252.41 47.44 257.15 53.32 C 253.73 51.51 250.48 49.41 247.30 47.21 C 243.93 44.72 239.30 43.77 237.00 40.02 C 234.96 36.99 235.72 33.20 235.97 29.80 C 237.15 27.18 239.40 25.24 241.84 23.81 C 250.57 18.55 259.30 13.28 268.01 7.99 Z" />
<path fill="#f6c814" opacity="1.00" d=" M 291.00 263.59 C 294.81 267.57 298.41 271.79 302.72 275.25 C 308.06 279.67 314.33 282.71 320.28 286.21 L 319.85 286.50 C 311.82 290.85 304.03 295.63 296.25 300.42 C 295.54 292.62 296.11 284.78 295.94 276.96 C 296.07 271.99 292.45 268.13 291.00 263.59 Z" />
</g>
<g id="#ca7f1fff">
<path fill="#ca7f1f" opacity="1.00" d=" M 308.42 21.05 C 312.45 22.92 316.80 25.09 318.95 29.20 C 320.91 32.10 320.99 35.70 320.93 39.06 C 320.77 89.26 321.19 139.47 320.83 189.66 C 319.81 199.07 320.50 208.55 320.26 217.99 C 320.46 240.73 319.91 263.48 320.28 286.21 C 314.33 282.71 308.06 279.67 302.72 275.25 C 298.41 271.79 294.81 267.57 291.00 263.59 C 289.53 261.27 287.95 258.86 287.96 256.01 C 285.94 230.08 286.65 204.05 286.67 178.07 C 286.74 173.70 287.32 169.36 287.33 164.99 C 287.36 130.00 287.62 95.00 287.54 60.01 C 295.15 54.91 301.94 48.71 309.48 43.51 C 313.11 40.77 317.85 38.02 318.49 33.08 C 318.17 27.18 311.80 25.01 308.42 21.05 Z" />
<path fill="#ca7f1f" opacity="1.00" d=" M 506.42 126.16 C 509.55 126.91 512.19 128.78 514.94 130.36 C 523.00 135.20 531.15 139.92 539.22 144.75 C 543.82 147.37 546.73 152.68 546.52 157.97 C 546.49 168.64 546.50 179.31 546.51 189.98 C 546.58 195.23 543.56 200.40 538.99 202.97 C 480.11 238.48 421.31 274.12 362.40 309.56 C 356.31 305.57 349.94 302.04 343.71 298.28 C 339.42 295.63 334.77 293.50 330.97 290.13 C 363.83 269.78 396.96 249.88 429.92 229.69 C 464.81 208.30 499.73 186.97 534.61 165.56 C 537.84 163.38 542.45 161.93 543.39 157.65 C 544.81 152.45 541.33 146.81 536.25 145.31 C 532.21 141.99 527.36 139.91 523.00 137.08 C 517.42 133.53 511.10 130.98 506.42 126.16 Z" />
<path fill="#ca7f1f" opacity="1.00" d=" M 238.71 346.70 C 240.01 346.10 241.37 345.57 242.80 345.38 C 247.21 346.03 251.59 346.97 255.87 348.22 C 263.61 350.54 270.50 354.89 277.22 359.26 C 276.45 360.15 275.69 361.04 274.90 361.91 C 272.38 363.26 269.84 364.56 267.31 365.88 C 257.23 371.03 247.99 377.65 238.09 383.11 C 236.37 384.08 234.61 385.12 233.44 386.76 L 232.70 387.80 C 175.55 422.74 118.04 457.09 60.76 491.82 C 56.27 494.90 50.07 495.61 45.29 492.75 C 40.65 490.03 35.84 487.52 31.48 484.36 C 36.01 484.83 39.63 487.87 43.75 489.52 C 46.80 490.79 49.44 493.77 53.01 493.15 C 57.00 492.72 59.78 488.83 59.99 485.01 C 60.85 477.02 61.31 469.00 62.09 461.01 C 62.34 459.10 62.50 457.12 63.41 455.39 C 64.69 453.64 66.65 452.58 68.40 451.36 C 75.49 446.83 82.40 442.00 89.75 437.90 C 92.20 436.55 94.21 434.60 96.14 432.62 C 129.82 412.17 163.41 391.57 196.96 370.92 C 210.76 362.64 224.23 353.77 238.71 346.70 Z" />
<path fill="#ca7f1f" opacity="1.00" d=" M 286.34 366.92 C 291.48 368.68 295.87 371.94 300.51 374.67 C 305.23 377.65 310.15 380.31 314.89 383.27 C 316.80 384.51 318.98 385.22 321.19 385.75 C 321.29 385.97 321.50 386.41 321.60 386.63 C 321.10 387.68 320.87 388.80 320.91 389.99 C 320.92 454.33 320.91 518.67 320.92 583.01 C 321.16 588.42 318.06 593.77 313.32 596.37 C 303.96 601.95 294.69 607.68 285.31 613.21 C 280.87 616.04 274.88 616.21 270.39 613.41 C 260.54 607.67 250.74 601.84 240.94 596.02 C 238.30 594.57 236.59 592.03 235.32 589.38 C 238.71 590.40 241.49 592.66 244.45 594.51 C 250.88 598.49 257.43 602.26 264.05 605.92 C 267.23 607.63 269.52 610.53 272.55 612.44 C 275.41 613.70 279.30 614.04 281.65 611.60 C 282.82 609.92 284.32 608.23 284.27 606.05 C 284.48 596.04 284.20 586.02 284.49 576.01 C 285.17 560.67 284.38 545.31 285.19 529.99 C 285.48 506.31 285.09 482.63 285.69 458.96 C 285.86 443.95 285.54 428.94 286.17 413.95 C 286.27 398.27 286.23 382.60 286.34 366.92 Z" />
<path fill="#ca7f1f" opacity="1.00" d=" M 546.50 420.31 C 548.14 422.90 549.11 425.88 549.00 428.97 C 548.99 439.66 549.04 450.36 548.97 461.05 C 549.01 466.20 546.14 471.14 541.75 473.79 C 532.67 479.41 523.47 484.84 514.36 490.41 C 510.73 492.90 506.21 493.64 501.91 492.84 L 502.32 492.71 C 505.80 491.77 510.31 490.18 510.55 485.91 C 511.60 474.86 512.47 463.78 512.87 452.69 C 513.78 451.05 514.83 449.49 515.87 447.93 C 524.63 442.80 532.72 436.63 541.31 431.22 C 545.29 429.05 545.97 424.36 546.50 420.31 Z" />
</g>
<g id="#f5d317ff">
<path fill="#f5d317" opacity="1.00" d=" M 240.17 29.26 C 242.98 26.68 247.01 26.97 250.07 28.92 C 256.16 31.92 262.67 34.00 268.66 37.24 C 272.34 39.42 276.65 38.00 280.65 38.42 C 285.27 39.09 288.92 35.60 292.98 34.06 C 298.18 31.97 303.22 29.49 308.42 27.42 C 310.97 25.87 314.54 30.12 312.21 32.22 C 309.98 34.45 307.12 35.87 304.44 37.47 C 299.17 40.43 294.27 43.99 288.96 46.89 C 286.46 48.20 284.33 50.08 282.46 52.17 C 284.26 53.59 286.46 54.28 288.67 54.75 C 288.25 56.49 287.79 58.23 287.54 60.01 C 287.62 95.00 287.36 130.00 287.33 164.99 C 287.32 169.36 286.74 173.70 286.67 178.07 C 286.65 204.05 285.94 230.08 287.96 256.01 C 287.95 258.86 289.53 261.27 291.00 263.59 C 292.45 268.13 296.07 271.99 295.94 276.96 C 296.11 284.78 295.54 292.62 296.25 300.42 C 292.93 302.60 289.39 304.40 285.77 306.04 C 283.97 297.15 284.82 288.03 284.60 279.03 C 284.42 274.01 285.00 269.01 285.32 264.01 C 285.73 228.68 285.27 193.35 284.98 158.03 C 284.88 156.61 284.70 155.22 284.43 153.83 C 282.08 141.97 284.84 129.91 284.58 117.96 C 284.48 99.10 285.11 80.24 285.43 61.39 C 285.52 59.72 285.64 58.06 285.75 56.39 C 284.33 56.47 282.91 56.54 281.49 56.60 C 279.16 60.06 281.37 64.22 281.21 68.02 C 281.50 88.01 281.33 108.01 281.56 127.99 C 282.98 139.01 282.08 150.12 282.73 161.17 C 283.02 187.12 283.02 213.06 282.98 239.00 C 283.05 256.33 282.88 273.67 282.08 290.98 C 281.78 297.58 282.08 304.62 278.86 310.63 C 278.62 310.64 278.15 310.66 277.92 310.67 L 276.85 310.69 C 274.21 308.17 274.15 304.32 273.73 300.94 C 272.59 287.76 272.77 274.51 272.54 261.29 C 272.96 254.20 272.55 247.11 272.59 240.01 C 272.61 225.02 272.72 210.04 272.68 195.05 C 273.86 177.75 273.03 160.37 274.28 143.08 C 274.45 115.87 274.63 88.66 274.60 61.45 C 274.62 59.53 274.50 57.61 274.37 55.69 C 272.32 55.58 270.26 55.47 268.21 55.37 C 268.42 57.51 268.76 59.63 269.35 61.70 C 269.24 83.46 269.60 105.22 269.69 126.99 C 270.42 135.83 270.39 144.70 270.44 153.58 C 270.32 175.31 270.04 197.03 269.59 218.76 C 268.76 226.93 269.43 235.18 268.27 243.33 C 268.12 241.22 267.92 239.12 267.86 237.01 C 267.72 209.68 267.73 182.34 267.17 155.01 C 266.44 143.98 265.55 132.98 265.10 121.94 C 264.00 114.85 264.77 107.66 263.75 100.58 C 263.10 90.00 264.00 79.35 262.63 68.82 C 262.14 64.97 262.80 60.99 261.77 57.24 C 260.52 55.63 258.74 54.56 257.15 53.32 C 252.41 47.44 245.18 44.40 239.89 39.13 C 237.79 36.33 236.81 31.54 240.17 29.26 M 274.33 45.68 C 274.41 46.63 274.56 48.52 274.64 49.47 C 276.55 49.52 278.46 49.53 280.38 49.52 C 280.47 48.52 280.65 46.52 280.75 45.53 C 278.69 44.18 276.36 44.43 274.33 45.68 Z" />
</g>
<g id="#da9921ff">
<path fill="#da9921" opacity="1.00" d=" M 234.14 36.98 C 234.08 34.46 234.52 31.90 235.97 29.80 C 235.72 33.20 234.96 36.99 237.00 40.02 C 239.30 43.77 243.93 44.72 247.30 47.21 C 246.74 56.28 247.12 65.41 248.59 74.38 C 248.92 80.59 249.26 86.80 249.90 93.00 C 249.77 101.36 251.04 109.65 251.07 118.00 C 251.31 126.78 254.16 135.25 254.05 144.04 C 254.75 152.07 255.68 160.08 257.24 167.99 C 258.51 179.94 259.04 191.95 260.21 203.89 C 259.80 211.64 261.60 219.26 261.54 227.00 C 263.01 236.08 261.15 245.42 263.37 254.40 C 263.94 257.67 263.20 260.97 262.99 264.23 C 255.83 273.84 245.81 280.81 235.13 285.99 C 234.66 268.86 235.20 251.71 234.71 234.58 C 235.07 196.72 234.47 158.86 234.68 121.00 C 234.71 117.57 234.47 114.15 234.20 110.73 C 234.08 86.15 234.22 61.56 234.14 36.98 Z" />
</g>
<g id="#f7f7e2ff">
<path fill="#f7f7e2" opacity="1.00" d=" M 274.33 45.68 C 276.36 44.43 278.69 44.18 280.75 45.53 C 280.65 46.52 280.47 48.52 280.38 49.52 C 278.46 49.53 276.55 49.52 274.64 49.47 C 274.56 48.52 274.41 46.63 274.33 45.68 Z" />
<path fill="#f7f7e2" opacity="1.00" d=" M 51.53 437.25 C 58.00 438.77 62.31 432.69 68.16 431.28 C 64.82 435.29 57.99 435.87 56.64 441.40 C 54.80 443.05 52.46 442.16 50.41 441.52 C 50.42 440.25 50.43 438.98 50.44 437.72 C 50.71 437.60 51.26 437.37 51.53 437.25 Z" />
</g>
<g id="#e3a81dff">
<path fill="#e3a81d" opacity="1.00" d=" M 247.30 47.21 C 250.48 49.41 253.73 51.51 257.15 53.32 C 258.74 54.56 260.52 55.63 261.77 57.24 C 262.80 60.99 262.14 64.97 262.63 68.82 C 264.00 79.35 263.10 90.00 263.75 100.58 C 264.77 107.66 264.00 114.85 265.10 121.94 C 265.55 132.98 266.44 143.98 267.17 155.01 C 267.73 182.34 267.72 209.68 267.86 237.01 C 267.92 239.12 268.12 241.22 268.27 243.33 C 268.09 247.14 267.90 250.95 267.75 254.76 C 267.34 258.41 265.44 261.59 262.99 264.23 C 263.20 260.97 263.94 257.67 263.37 254.40 C 261.15 245.42 263.01 236.08 261.54 227.00 C 261.60 219.26 259.80 211.64 260.21 203.89 C 259.04 191.95 258.51 179.94 257.24 167.99 C 255.68 160.08 254.75 152.07 254.05 144.04 C 254.16 135.25 251.31 126.78 251.07 118.00 C 251.04 109.65 249.77 101.36 249.90 93.00 C 249.26 86.80 248.92 80.59 248.59 74.38 C 247.12 65.41 246.74 56.28 247.30 47.21 Z" />
</g>
<g id="#f5ed95ff">
<path fill="#f5ed95" opacity="1.00" d=" M 268.21 55.37 C 270.26 55.47 272.32 55.58 274.37 55.69 C 274.50 57.61 274.62 59.53 274.60 61.45 C 274.19 63.30 273.70 65.15 273.54 67.05 C 272.73 83.82 272.93 100.63 272.34 117.39 C 270.74 114.54 271.40 111.14 271.26 108.02 C 271.55 94.69 270.61 81.37 270.43 68.04 C 270.43 65.88 269.96 63.76 269.35 61.70 C 268.76 59.63 268.42 57.51 268.21 55.37 M 269.24 57.70 C 269.83 59.09 270.45 60.47 271.09 61.85 C 271.74 61.75 273.04 61.55 273.70 61.45 C 273.59 59.97 273.27 58.53 272.81 57.12 C 271.62 57.32 270.43 57.51 269.24 57.70 Z" />
</g>
<g id="#f5ed97ff">
<path fill="#f5ed97" opacity="1.00" d=" M 281.49 56.60 C 282.91 56.54 284.33 56.47 285.75 56.39 C 285.64 58.06 285.52 59.72 285.43 61.39 C 284.13 61.44 282.84 61.50 281.54 61.56 C 281.55 59.91 281.54 58.25 281.49 56.60 Z" />
</g>
<g id="#f5f2c0ff">
<path fill="#f5f2c0" opacity="1.00" d=" M 269.24 57.70 C 270.43 57.51 271.62 57.32 272.81 57.12 C 273.27 58.53 273.59 59.97 273.70 61.45 C 273.04 61.55 271.74 61.75 271.09 61.85 C 270.45 60.47 269.83 59.09 269.24 57.70 Z" />
</g>
<g id="#f5e246ff">
<path fill="#f5e246" opacity="1.00" d=" M 281.21 68.02 C 281.37 64.22 279.16 60.06 281.49 56.60 C 281.54 58.25 281.55 59.91 281.54 61.56 C 282.84 61.50 284.13 61.44 285.43 61.39 C 285.11 80.24 284.48 99.10 284.58 117.96 C 284.84 129.91 282.08 141.97 284.43 153.83 C 283.76 156.25 283.14 158.69 282.73 161.17 C 282.08 150.12 282.98 139.01 281.56 127.99 C 281.33 108.01 281.50 88.01 281.21 68.02 Z" />
</g>
<g id="#f6e86bff">
<path fill="#f6e86b" opacity="1.00" d=" M 269.35 61.70 C 269.96 63.76 270.43 65.88 270.43 68.04 C 270.61 81.37 271.55 94.69 271.26 108.02 C 271.40 111.14 270.74 114.54 272.34 117.39 C 272.93 100.63 272.73 83.82 273.54 67.05 C 273.70 65.15 274.19 63.30 274.60 61.45 C 274.63 88.66 274.45 115.87 274.28 143.08 C 273.03 160.37 273.86 177.75 272.68 195.05 C 272.72 210.04 272.61 225.02 272.59 240.01 C 272.55 247.11 272.96 254.20 272.54 261.29 C 272.00 257.55 271.55 253.77 271.66 249.98 C 271.83 222.31 272.11 194.64 272.00 166.96 C 271.79 162.49 272.92 157.60 270.44 153.58 C 270.39 144.70 270.42 135.83 269.69 126.99 C 269.60 105.22 269.24 83.46 269.35 61.70 Z" />
<path fill="#f6e86b" opacity="1.00" d=" M 243.21 326.14 C 248.52 323.15 253.63 319.75 259.32 317.49 C 256.28 320.53 252.50 322.61 248.86 324.83 C 201.91 353.99 154.76 382.82 107.50 411.48 C 102.95 414.14 98.70 417.45 93.60 419.05 C 99.84 413.52 107.70 410.34 114.31 405.31 C 119.31 401.35 125.34 399.10 130.65 395.64 C 134.95 393.08 138.64 389.65 142.89 387.00 C 176.23 366.55 209.52 346.01 243.21 326.14 Z" />
</g>
<g id="#0a5286ff">
<path fill="#0a5286" opacity="1.00" d=" M 640.14 87.75 C 669.70 87.75 699.27 87.74 728.83 87.76 C 728.90 142.04 728.68 196.34 728.94 250.62 C 731.31 249.07 732.60 246.47 734.33 244.31 C 747.51 227.21 766.59 215.31 787.03 208.83 C 805.08 203.16 824.26 201.01 843.12 202.60 C 875.05 205.43 905.25 221.74 925.85 246.19 C 948.65 272.84 960.15 307.45 963.89 341.92 C 967.23 374.46 965.66 407.85 956.61 439.40 C 948.49 467.66 933.26 494.45 910.54 513.49 C 894.54 527.03 875.04 536.43 854.43 540.32 C 839.81 543.18 824.79 542.81 810.04 541.34 C 791.09 539.33 772.10 534.34 755.79 524.21 C 745.12 517.57 735.85 508.64 729.09 498.04 C 727.72 495.93 726.69 493.52 724.65 491.96 C 724.25 505.85 724.55 519.75 724.50 533.65 C 696.38 533.77 668.26 533.66 640.15 533.71 C 640.13 385.05 640.14 236.40 640.14 87.75 M 789.56 269.78 C 782.30 270.90 775.21 273.19 768.74 276.68 C 755.54 283.73 745.59 295.74 738.98 308.98 C 729.35 328.47 725.89 350.44 725.76 372.01 C 725.77 393.63 729.17 415.67 738.77 435.22 C 745.45 448.68 755.56 460.91 769.03 467.97 C 785.27 476.54 804.94 477.66 822.43 472.57 C 838.43 467.88 851.63 456.19 860.05 442.02 C 870.70 424.27 875.28 403.51 876.51 383.03 C 877.70 360.37 875.29 337.17 866.77 315.99 C 860.60 300.94 850.71 286.84 836.62 278.29 C 822.68 269.71 805.57 267.40 789.56 269.78 Z" />
<path fill="#0a5286" opacity="1.00" d=" M 986.72 87.75 C 1016.29 87.74 1045.85 87.74 1075.42 87.75 C 1075.42 112.11 1075.44 136.47 1075.41 160.84 C 1045.85 160.82 1016.29 160.83 986.73 160.83 C 986.71 136.47 986.71 112.11 986.72 87.75 Z" />
<path fill="#0a5286" opacity="1.00" d=" M 1114.05 87.75 C 1143.61 87.78 1173.18 87.68 1202.75 87.80 C 1202.79 142.07 1202.59 196.35 1202.85 250.62 C 1205.23 249.03 1206.52 246.41 1208.28 244.23 C 1218.77 230.72 1232.97 220.32 1248.60 213.49 C 1268.78 204.68 1291.12 201.19 1313.06 202.30 C 1346.39 204.14 1378.29 220.70 1399.72 246.17 C 1422.76 273.11 1434.29 308.14 1437.90 342.98 C 1440.72 371.30 1439.73 400.16 1433.47 427.97 C 1426.63 458.41 1412.28 487.85 1389.21 509.27 C 1374.96 522.56 1357.60 532.51 1338.84 537.82 C 1319.75 543.46 1299.51 543.27 1279.92 540.88 C 1261.91 538.54 1243.95 533.38 1228.56 523.50 C 1219.35 517.58 1211.24 509.93 1204.94 500.97 C 1202.74 497.99 1201.18 494.58 1198.72 491.81 C 1197.95 505.71 1198.55 519.69 1198.41 533.63 C 1170.30 533.81 1142.18 533.64 1114.06 533.71 C 1114.02 385.06 1114.05 236.41 1114.05 87.75 M 1263.51 269.77 C 1249.16 271.88 1235.53 279.00 1225.89 289.88 C 1212.24 304.72 1205.25 324.42 1201.94 344.00 C 1198.33 366.69 1198.84 390.17 1204.38 412.50 C 1209.04 430.91 1217.93 448.95 1232.77 461.23 C 1245.55 471.83 1262.54 476.42 1278.97 475.50 C 1295.67 474.92 1312.24 467.93 1323.62 455.56 C 1337.71 440.76 1345.00 420.83 1348.41 400.98 C 1352.38 376.05 1351.43 350.09 1344.17 325.83 C 1338.82 308.42 1329.29 291.57 1314.27 280.78 C 1299.79 270.27 1280.97 267.14 1263.51 269.77 Z" />
<path fill="#0a5286" opacity="1.00" d=" M 1787.89 87.75 C 1817.43 87.72 1846.96 87.79 1876.50 87.72 C 1876.68 236.38 1876.52 385.04 1876.58 533.70 C 1847.03 533.71 1817.49 533.68 1787.94 533.71 C 1787.82 385.06 1787.92 236.41 1787.89 87.75 Z" />
<path fill="#0a5286" opacity="1.00" d=" M 1545.59 215.50 C 1568.05 205.87 1592.64 201.66 1617.02 202.12 C 1638.47 202.47 1660.01 206.56 1679.64 215.37 C 1708.07 227.87 1731.46 250.51 1746.42 277.59 C 1766.01 312.74 1772.85 353.94 1770.37 393.81 C 1692.73 393.78 1615.09 393.80 1537.45 393.80 C 1538.51 414.46 1542.79 436.30 1556.58 452.47 C 1568.23 466.39 1586.24 473.30 1603.95 474.93 C 1622.43 477.08 1641.70 474.20 1658.06 465.08 C 1670.59 458.13 1682.23 447.75 1686.78 433.77 C 1712.77 433.79 1738.77 433.78 1764.77 433.78 C 1759.38 449.45 1752.85 464.85 1743.70 478.73 C 1733.63 494.25 1720.57 507.92 1705.10 518.13 C 1688.69 529.04 1669.78 535.77 1650.47 539.30 C 1625.62 543.56 1599.95 543.62 1575.17 538.83 C 1542.84 532.67 1512.12 516.60 1490.18 491.86 C 1466.49 465.55 1453.53 430.91 1450.00 395.98 C 1445.75 356.23 1452.34 314.59 1472.82 279.88 C 1489.35 251.36 1515.21 228.35 1545.59 215.50 M 1562.72 284.71 C 1547.18 297.64 1538.72 317.64 1537.41 337.56 C 1585.51 337.59 1633.62 337.57 1681.73 337.57 C 1678.18 318.83 1672.47 299.23 1658.55 285.44 C 1646.64 273.54 1629.35 269.04 1612.93 268.93 C 1595.11 268.43 1576.57 273.08 1562.72 284.71 Z" />
<path fill="#0a5286" opacity="1.00" d=" M 986.66 214.39 C 1016.23 214.29 1045.81 214.29 1075.39 214.39 C 1075.36 320.81 1075.38 427.22 1075.45 533.64 C 1045.86 533.71 1016.26 533.80 986.67 533.60 C 986.76 427.20 986.70 320.79 986.66 214.39 Z" />
<path fill="#0a5286" opacity="1.00" d=" M 1963.54 438.73 C 1981.41 434.85 2001.03 442.39 2011.73 457.22 C 2023.15 472.28 2024.22 494.23 2014.32 510.34 C 2005.58 525.24 1988.31 534.60 1971.04 533.61 C 1952.82 533.06 1935.66 520.98 1928.85 504.10 C 1922.04 488.07 1924.95 468.45 1936.21 455.15 C 1943.10 446.79 1952.90 440.87 1963.54 438.73 Z" />
</g>
<g id="#f2c214ff">
<path fill="#f2c214" opacity="1.00" d=" M 234.20 110.73 C 234.47 114.15 234.71 117.57 234.68 121.00 C 234.47 158.86 235.07 196.72 234.71 234.58 C 233.19 247.27 234.47 260.10 233.76 272.84 C 216.71 263.06 199.72 253.19 182.81 243.17 C 163.14 231.47 143.16 220.32 123.64 208.39 C 99.93 194.36 76.21 180.36 52.38 166.55 C 41.79 159.72 30.79 153.57 19.89 147.26 C 17.54 147.81 15.19 148.33 12.88 149.01 C 23.82 143.10 34.34 136.44 44.93 129.93 C 47.69 128.05 51.14 128.16 54.32 127.90 C 55.42 128.22 56.47 128.72 57.47 129.29 C 116.20 164.17 175.11 198.77 233.81 233.71 C 233.95 232.45 234.10 231.19 234.14 229.94 C 234.17 190.20 233.99 150.46 234.20 110.73 Z" />
<path fill="#f2c214" opacity="1.00" d=" M 493.18 129.04 C 497.05 126.64 501.85 124.36 506.42 126.16 C 511.10 130.98 517.42 133.53 523.00 137.08 C 527.36 139.91 532.21 141.99 536.25 145.31 C 532.67 146.53 529.03 147.72 525.92 149.92 C 518.13 155.33 509.66 159.63 501.60 164.61 C 489.07 172.02 476.71 179.72 464.22 187.21 C 454.94 193.37 444.95 198.37 435.62 204.45 C 419.34 213.72 403.53 223.78 387.33 233.18 C 365.56 245.76 344.30 259.22 322.33 271.41 C 321.02 272.04 321.09 273.66 320.95 274.89 C 320.71 278.66 321.16 282.50 320.28 286.21 C 319.91 263.48 320.46 240.73 320.26 217.99 C 320.50 208.55 319.81 199.07 320.83 189.66 C 320.92 204.13 320.79 218.61 320.88 233.09 C 378.34 198.45 435.76 163.75 493.18 129.04 Z" />
</g>
<g id="#d69322ff">
<path fill="#d69322" opacity="1.00" d=" M 40.69 129.70 C 44.67 127.13 49.83 126.05 54.32 127.90 C 51.14 128.16 47.69 128.05 44.93 129.93 C 34.34 136.44 23.82 143.10 12.88 149.01 C 7.46 152.51 6.57 161.88 12.60 165.19 C 79.92 205.18 147.13 245.36 214.41 285.41 C 217.73 287.23 221.03 289.17 223.77 291.84 C 213.30 297.94 203.00 304.33 192.67 310.65 C 133.02 275.07 73.09 239.95 13.39 204.45 C 8.70 201.72 5.91 196.40 6.05 191.01 C 6.05 180.32 5.99 169.63 6.08 158.94 C 6.10 153.81 8.93 148.86 13.37 146.29 C 22.45 140.72 31.62 135.29 40.69 129.70 Z" />
<path fill="#d69322" opacity="1.00" d=" M 238.09 383.11 C 247.99 377.65 257.23 371.03 267.31 365.88 C 267.78 368.56 268.22 371.26 268.30 374.00 C 268.31 422.33 268.57 470.66 268.50 519.00 C 268.48 522.18 268.85 525.35 269.38 528.49 C 268.51 532.92 268.45 537.44 268.61 541.94 C 268.61 562.62 268.72 583.30 268.74 603.98 C 268.51 606.74 269.90 609.36 272.29 610.76 C 274.98 612.92 278.55 611.75 281.65 611.60 C 279.30 614.04 275.41 613.70 272.55 612.44 C 269.52 610.53 267.23 607.63 264.05 605.92 C 257.43 602.26 250.88 598.49 244.45 594.51 C 241.49 592.66 238.71 590.40 235.32 589.38 L 235.05 589.28 C 234.49 587.23 234.10 585.13 234.14 583.00 C 234.15 519.01 234.12 455.02 234.16 391.03 C 234.22 389.56 233.90 388.13 233.44 386.76 C 234.61 385.12 236.37 384.08 238.09 383.11 Z" />
</g>
<g id="#f5d71aff">
<path fill="#f5d71a" opacity="1.00" d=" M 525.92 149.92 C 529.03 147.72 532.67 146.53 536.25 145.31 C 538.29 148.00 541.80 150.24 541.68 154.00 C 541.75 156.03 540.24 157.60 538.63 158.59 C 516.84 171.71 495.42 185.45 473.66 198.62 C 425.19 228.65 376.64 258.54 328.22 288.63 C 329.23 289.90 330.24 291.18 331.25 292.46 C 327.41 290.53 323.68 288.41 319.85 286.50 L 320.28 286.21 C 321.16 282.50 320.71 278.66 320.95 274.89 C 321.09 273.66 321.02 272.04 322.33 271.41 C 344.30 259.22 365.56 245.76 387.33 233.18 C 403.53 223.78 419.34 213.72 435.62 204.45 C 444.95 198.37 454.94 193.37 464.22 187.21 C 476.71 179.72 489.07 172.02 501.60 164.61 C 509.66 159.63 518.13 155.33 525.92 149.92 Z" />
</g>
<g id="#e6af19ff">
<path fill="#e6af19" opacity="1.00" d=" M 536.25 145.31 C 541.33 146.81 544.81 152.45 543.39 157.65 C 542.45 161.93 537.84 163.38 534.61 165.56 C 499.73 186.97 464.81 208.30 429.92 229.69 C 396.96 249.88 363.83 269.78 330.97 290.13 C 334.77 293.50 339.42 295.63 343.71 298.28 C 349.94 302.04 356.31 305.57 362.40 309.56 C 419.32 343.35 476.33 377.01 533.28 410.74 C 537.90 413.54 542.97 415.86 546.54 420.07 L 546.50 420.31 C 545.97 424.36 545.29 429.05 541.31 431.22 C 532.72 436.63 524.63 442.80 515.87 447.93 C 514.47 445.71 512.51 443.97 510.33 442.56 C 519.92 436.63 530.07 431.66 539.61 425.64 C 541.31 424.49 543.83 422.73 542.75 420.35 C 541.02 415.73 535.08 416.55 531.43 414.44 C 481.79 384.86 432.64 354.44 382.94 324.96 C 362.00 312.46 341.21 299.68 319.91 287.80 L 319.85 286.50 C 323.68 288.41 327.41 290.53 331.25 292.46 C 330.24 291.18 329.23 289.90 328.22 288.63 C 376.64 258.54 425.19 228.65 473.66 198.62 C 495.42 185.45 516.84 171.71 538.63 158.59 C 540.24 157.60 541.75 156.03 541.68 154.00 C 541.80 150.24 538.29 148.00 536.25 145.31 Z" />
</g>
<g id="#f5d71cff">
<path fill="#f5d71c" opacity="1.00" d=" M 12.88 149.01 C 15.19 148.33 17.54 147.81 19.89 147.26 C 30.79 153.57 41.79 159.72 52.38 166.55 C 76.21 180.36 99.93 194.36 123.64 208.39 C 143.16 220.32 163.14 231.47 182.81 243.17 C 199.72 253.19 216.71 263.06 233.76 272.84 C 234.47 260.10 233.19 247.27 234.71 234.58 C 235.20 251.71 234.66 268.86 235.13 285.99 C 245.81 280.81 255.83 273.84 262.99 264.23 C 265.44 261.59 267.34 258.41 267.75 254.76 C 267.45 271.51 267.90 288.26 267.63 305.01 C 265.38 303.99 263.14 302.92 261.03 301.63 C 254.29 297.36 247.20 293.67 240.41 289.49 C 238.77 288.27 236.76 288.26 234.85 288.59 C 234.75 288.11 234.55 287.15 234.46 286.67 C 233.99 283.47 234.31 280.23 233.90 277.03 C 232.14 275.05 229.62 273.99 227.40 272.63 C 209.08 261.49 190.37 251.01 171.83 240.23 C 162.53 235.73 153.72 230.34 144.67 225.36 C 138.78 221.85 132.62 218.80 126.88 215.03 C 118.74 209.60 109.81 205.53 101.43 200.49 C 86.80 192.45 72.41 183.94 57.41 176.59 C 54.88 175.49 52.09 173.03 49.27 174.75 C 53.09 179.16 58.47 181.60 63.27 184.73 C 87.10 200.06 111.39 214.64 135.38 229.71 C 153.25 240.76 170.92 252.12 188.72 263.29 C 201.76 272.07 215.41 279.93 228.14 289.18 C 226.69 290.08 225.24 290.98 223.77 291.84 C 221.03 289.17 217.73 287.23 214.41 285.41 C 147.13 245.36 79.92 205.18 12.60 165.19 C 6.57 161.88 7.46 152.51 12.88 149.01 Z" />
<path fill="#f5d71c" opacity="1.00" d=" M 259.32 317.49 C 264.89 314.69 270.31 310.46 276.85 310.69 L 277.92 310.67 C 277.77 311.23 277.46 312.35 277.31 312.91 C 274.80 318.33 268.95 320.93 264.42 324.39 C 234.57 343.72 204.02 361.94 173.54 380.25 C 168.11 381.14 163.79 384.71 159.07 387.24 C 154.63 389.70 150.21 392.18 145.87 394.82 C 141.65 397.39 137.03 399.39 133.30 402.70 C 130.28 405.48 126.35 406.82 122.85 408.85 C 115.85 412.83 108.96 416.99 102.06 421.14 C 97.47 423.93 92.56 426.22 88.35 429.60 C 82.96 434.25 76.02 436.36 70.14 440.25 C 66.44 442.68 62.65 444.97 58.60 446.79 C 56.62 447.65 57.10 450.26 56.58 451.99 C 55.89 450.19 55.14 448.43 54.36 446.68 C 52.15 445.65 49.58 444.72 48.80 442.15 C 50.79 442.99 52.73 444.48 54.98 444.34 C 57.41 443.14 59.41 441.30 61.64 439.81 C 66.41 436.37 72.18 434.33 76.20 429.89 C 81.86 426.05 87.79 422.64 93.60 419.05 C 98.70 417.45 102.95 414.14 107.50 411.48 C 154.76 382.82 201.91 353.99 248.86 324.83 C 252.50 322.61 256.28 320.53 259.32 317.49 Z" />
</g>
<g id="#f5efa3ff">
<path fill="#f5efa3" opacity="1.00" d=" M 270.44 153.58 C 272.92 157.60 271.79 162.49 272.00 166.96 C 272.11 194.64 271.83 222.31 271.66 249.98 C 271.55 253.77 272.00 257.55 272.54 261.29 C 272.77 274.51 272.59 287.76 273.73 300.94 C 274.15 304.32 274.21 308.17 276.85 310.69 C 270.31 310.46 264.89 314.69 259.32 317.49 C 253.63 319.75 248.52 323.15 243.21 326.14 C 209.52 346.01 176.23 366.55 142.89 387.00 C 138.64 389.65 134.95 393.08 130.65 395.64 C 125.34 399.10 119.31 401.35 114.31 405.31 C 107.70 410.34 99.84 413.52 93.60 419.05 C 87.79 422.64 81.86 426.05 76.20 429.89 C 69.33 433.08 63.00 437.31 56.64 441.40 C 57.99 435.87 64.82 435.29 68.16 431.28 C 62.31 432.69 58.00 438.77 51.53 437.25 C 52.42 436.71 53.31 436.17 54.19 435.62 C 62.07 430.50 70.44 426.20 78.43 421.25 C 104.38 405.44 130.85 390.52 156.84 374.78 C 179.32 361.18 201.73 347.47 223.56 332.84 C 227.09 331.42 230.40 329.53 233.63 327.51 C 242.44 322.36 251.17 317.08 259.94 311.86 C 263.34 309.70 266.70 307.39 270.55 306.10 C 270.70 288.18 270.46 270.26 270.47 252.35 C 270.48 246.88 269.49 241.47 269.61 236.01 C 269.69 230.26 269.79 224.51 269.59 218.76 C 270.04 197.03 270.32 175.31 270.44 153.58 Z" />
</g>
<g id="#f6e86cff">
<path fill="#f6e86c" opacity="1.00" d=" M 282.73 161.17 C 283.14 158.69 283.76 156.25 284.43 153.83 C 284.70 155.22 284.88 156.61 284.98 158.03 C 285.27 193.35 285.73 228.68 285.32 264.01 C 285.00 269.01 284.42 274.01 284.60 279.03 C 284.82 288.03 283.97 297.15 285.77 306.04 L 286.34 306.35 C 284.08 307.36 282.01 308.77 280.31 310.59 C 279.95 310.60 279.22 310.62 278.86 310.63 C 282.08 304.62 281.78 297.58 282.08 290.98 C 282.88 273.67 283.05 256.33 282.98 239.00 C 283.02 213.06 283.02 187.12 282.73 161.17 Z" />
</g>
<g id="#f5df37ff">
<path fill="#f5df37" opacity="1.00" d=" M 49.27 174.75 C 52.09 173.03 54.88 175.49 57.41 176.59 C 72.41 183.94 86.80 192.45 101.43 200.49 C 109.81 205.53 118.74 209.60 126.88 215.03 C 132.62 218.80 138.78 221.85 144.67 225.36 C 153.72 230.34 162.53 235.73 171.83 240.23 C 190.37 251.01 209.08 261.49 227.40 272.63 C 229.62 273.99 232.14 275.05 233.90 277.03 C 234.31 280.23 233.99 283.47 234.46 286.67 C 228.89 290.53 222.75 293.47 217.22 297.38 C 210.15 301.07 203.42 305.36 196.61 309.48 C 194.75 310.62 192.68 311.30 190.63 312.00 C 191.14 311.66 192.16 310.99 192.67 310.65 C 203.00 304.33 213.30 297.94 223.77 291.84 C 225.24 290.98 226.69 290.08 228.14 289.18 C 215.41 279.93 201.76 272.07 188.72 263.29 C 170.92 252.12 153.25 240.76 135.38 229.71 C 111.39 214.64 87.10 200.06 63.27 184.73 C 58.47 181.60 53.09 179.16 49.27 174.75 Z" />
</g>
<g id="#f89c0eff">
<path fill="#f89c0e" opacity="1.00" d=" M 1975.66 214.06 C 2079.08 214.10 2182.50 213.99 2285.92 214.06 C 2306.67 292.73 2327.40 371.41 2348.15 450.08 C 2347.96 450.92 2349.42 453.02 2349.64 450.98 C 2370.55 372.03 2391.29 293.03 2412.14 214.06 C 2441.09 214.06 2470.04 214.04 2499.00 214.07 L 2499.00 214.21 C 2464.44 320.68 2430.06 427.21 2395.58 533.70 C 2363.67 533.73 2331.77 533.66 2299.86 533.74 C 2273.71 451.10 2247.71 368.42 2221.68 285.74 C 2199.23 285.63 2176.78 285.77 2154.33 285.68 C 2154.21 368.35 2154.33 451.03 2154.27 533.71 C 2126.52 533.70 2098.77 533.70 2071.02 533.71 C 2071.00 451.04 2071.02 368.37 2071.01 285.71 C 2039.22 285.67 2007.42 285.76 1975.63 285.66 C 1975.68 261.80 1975.63 237.93 1975.66 214.06 Z" />
</g>
<g id="#f5e24aff">
<path fill="#f5e24a" opacity="1.00" d=" M 268.27 243.33 C 269.43 235.18 268.76 226.93 269.59 218.76 C 269.79 224.51 269.69 230.26 269.61 236.01 C 269.49 241.47 270.48 246.88 270.47 252.35 C 270.46 270.26 270.70 288.18 270.55 306.10 C 266.70 307.39 263.34 309.70 259.94 311.86 C 251.17 317.08 242.44 322.36 233.63 327.51 C 230.40 329.53 227.09 331.42 223.56 332.84 C 226.31 330.60 229.21 328.36 230.92 325.16 C 233.74 320.97 235.46 315.67 240.16 313.12 C 246.98 309.07 253.89 305.11 261.03 301.63 C 263.14 302.92 265.38 303.99 267.63 305.01 C 267.90 288.26 267.45 271.51 267.75 254.76 C 267.90 250.95 268.09 247.14 268.27 243.33 Z" />
</g>
<g id="#f6cd15ff">
<path fill="#f6cd15" opacity="1.00" d=" M 217.22 297.38 C 222.75 293.47 228.89 290.53 234.46 286.67 C 234.55 287.15 234.75 288.11 234.85 288.59 C 236.66 300.92 234.26 313.31 230.92 325.16 C 229.21 328.36 226.31 330.60 223.56 332.84 C 201.73 347.47 179.32 361.18 156.84 374.78 C 130.85 390.52 104.38 405.44 78.43 421.25 C 70.44 426.20 62.07 430.50 54.19 435.62 C 48.11 434.62 42.79 431.25 36.77 430.03 C 39.80 435.12 46.77 436.36 48.80 442.15 C 49.58 444.72 52.15 445.65 54.36 446.68 C 55.14 448.43 55.89 450.19 56.58 451.99 C 57.66 452.36 58.74 452.71 59.83 453.06 L 61.37 453.50 C 60.51 454.11 59.66 454.75 58.82 455.40 C 56.52 454.24 54.24 453.06 51.95 451.90 C 49.50 459.58 50.27 467.84 48.60 475.71 C 47.62 474.73 46.64 473.75 45.66 472.79 C 45.31 467.95 44.24 463.20 43.56 458.41 C 43.01 455.70 42.83 452.46 40.30 450.78 C 31.79 444.21 22.99 438.01 14.28 431.74 C 10.81 429.36 11.35 424.86 11.58 421.23 C 13.17 418.89 15.66 417.42 18.08 416.08 C 20.64 416.29 23.53 417.35 25.93 415.89 C 46.81 403.13 67.73 390.43 88.63 377.69 C 129.40 353.24 169.65 327.93 210.34 303.35 C 212.98 301.82 216.17 300.55 217.22 297.38 M 43.39 447.49 C 43.11 450.58 44.72 454.60 48.48 453.56 C 48.58 451.60 48.54 449.64 48.39 447.69 C 46.72 447.62 45.06 447.55 43.39 447.49 Z" />
</g>
<g id="#f5dd2cff">
<path fill="#f5dd2c" opacity="1.00" d=" M 296.25 300.42 C 304.03 295.63 311.82 290.85 319.85 286.50 L 319.91 287.80 C 319.89 294.89 319.69 302.01 320.55 309.08 C 321.08 315.14 322.93 321.03 322.92 327.16 C 310.17 321.23 298.76 312.87 286.34 306.35 L 285.77 306.04 C 289.39 304.40 292.93 302.60 296.25 300.42 Z" />
</g>
<g id="#f5e03bff">
<path fill="#f5e03b" opacity="1.00" d=" M 234.85 288.59 C 236.76 288.26 238.77 288.27 240.41 289.49 C 247.20 293.67 254.29 297.36 261.03 301.63 C 253.89 305.11 246.98 309.07 240.16 313.12 C 235.46 315.67 233.74 320.97 230.92 325.16 C 234.26 313.31 236.66 300.92 234.85 288.59 Z" />
<path fill="#f5e03b" opacity="1.00" d=" M 36.77 430.03 C 42.79 431.25 48.11 434.62 54.19 435.62 C 53.31 436.17 52.42 436.71 51.53 437.25 C 51.26 437.37 50.71 437.60 50.44 437.72 C 50.43 438.98 50.42 440.25 50.41 441.52 C 52.46 442.16 54.80 443.05 56.64 441.40 C 63.00 437.31 69.33 433.08 76.20 429.89 C 72.18 434.33 66.41 436.37 61.64 439.81 C 59.41 441.30 57.41 443.14 54.98 444.34 C 52.73 444.48 50.79 442.99 48.80 442.15 C 46.77 436.36 39.80 435.12 36.77 430.03 Z" />
</g>
<g id="#f6ca15ff">
<path fill="#f6ca15" opacity="1.00" d=" M 319.91 287.80 C 341.21 299.68 362.00 312.46 382.94 324.96 C 432.64 354.44 481.79 384.86 531.43 414.44 C 535.08 416.55 541.02 415.73 542.75 420.35 C 543.83 422.73 541.31 424.49 539.61 425.64 C 530.07 431.66 519.92 436.63 510.33 442.56 C 512.51 443.97 514.47 445.71 515.87 447.93 C 514.83 449.49 513.78 451.05 512.87 452.69 L 512.21 453.86 C 509.89 452.88 507.65 451.43 505.10 451.21 C 502.14 451.85 502.17 455.56 501.90 457.94 C 501.71 467.09 502.03 476.37 499.88 485.36 C 496.86 477.82 497.90 469.46 496.21 461.63 C 495.93 458.50 495.75 455.38 495.70 452.25 C 496.30 452.32 497.49 452.47 498.08 452.55 C 502.39 452.18 502.47 447.69 502.60 444.37 C 505.06 442.78 508.77 441.46 508.74 437.97 C 509.10 435.38 506.14 435.13 504.46 434.16 C 499.23 432.18 495.11 428.02 489.60 426.64 C 471.04 416.20 452.81 405.17 434.37 394.52 C 400.01 374.47 365.63 354.43 332.16 332.93 C 329.09 330.99 326.13 328.87 322.92 327.16 C 322.93 321.03 321.08 315.14 320.55 309.08 C 319.69 302.01 319.89 294.89 319.91 287.80 M 509.24 447.60 C 509.21 449.18 509.73 450.64 510.90 451.76 C 512.60 450.42 514.10 448.41 512.28 446.45 C 511.52 446.74 510.00 447.32 509.24 447.60 Z" />
</g>
<g id="#eab517ff">
<path fill="#eab517" opacity="1.00" d=" M 196.61 309.48 C 203.42 305.36 210.15 301.07 217.22 297.38 C 216.17 300.55 212.98 301.82 210.34 303.35 C 169.65 327.93 129.40 353.24 88.63 377.69 C 67.73 390.43 46.81 403.13 25.93 415.89 C 23.53 417.35 20.64 416.29 18.08 416.08 C 74.52 381.82 131.10 347.77 187.57 313.55 C 188.55 312.97 189.55 312.38 190.63 312.00 C 192.68 311.30 194.75 310.62 196.61 309.48 Z" />
</g>
<g id="#f5efa6ff">
<path fill="#f5efa6" opacity="1.00" d=" M 280.31 310.59 C 282.01 308.77 284.08 307.36 286.34 306.35 C 298.76 312.87 310.17 321.23 322.92 327.16 C 326.13 328.87 329.09 330.99 332.16 332.93 C 365.63 354.43 400.01 374.47 434.37 394.52 C 452.81 405.17 471.04 416.20 489.60 426.64 C 491.91 428.37 494.15 430.19 496.45 431.93 C 492.60 431.79 489.52 429.29 486.00 428.10 C 491.11 432.38 497.90 434.37 502.28 439.59 C 503.56 439.87 504.85 440.15 506.14 440.44 C 502.39 443.47 498.72 439.10 495.48 437.41 C 478.73 427.63 462.45 417.08 445.60 407.49 C 415.35 389.40 385.22 371.12 354.95 353.06 C 355.80 352.87 356.67 352.69 357.53 352.51 C 351.35 350.18 346.04 346.16 340.34 342.91 C 324.84 334.02 309.68 324.54 293.92 316.10 C 289.61 313.78 285.21 311.39 280.31 310.59 Z" />
</g>
<g id="#f5e03fff">
<path fill="#f5e03f" opacity="1.00" d=" M 277.92 310.67 C 278.15 310.66 278.62 310.64 278.86 310.63 C 279.22 310.62 279.95 310.60 280.31 310.59 C 285.21 311.39 289.61 313.78 293.92 316.10 C 309.68 324.54 324.84 334.02 340.34 342.91 C 346.04 346.16 351.35 350.18 357.53 352.51 C 356.67 352.69 355.80 352.87 354.95 353.06 C 385.22 371.12 415.35 389.40 445.60 407.49 C 462.45 417.08 478.73 427.63 495.48 437.41 C 498.72 439.10 502.39 443.47 506.14 440.44 C 506.58 439.83 507.46 438.59 507.89 437.98 C 507.39 437.44 506.40 436.38 505.90 435.84 C 502.29 435.90 499.22 434.02 496.45 431.93 C 494.15 430.19 491.91 428.37 489.60 426.64 C 495.11 428.02 499.23 432.18 504.46 434.16 C 506.14 435.13 509.10 435.38 508.74 437.97 C 508.77 441.46 505.06 442.78 502.60 444.37 C 502.47 447.69 502.39 452.18 498.08 452.55 L 498.21 452.01 C 499.65 450.43 501.13 448.77 500.31 446.50 C 500.02 446.11 499.45 445.33 499.16 444.94 C 492.93 441.98 487.16 438.20 481.17 434.81 C 466.59 426.03 451.48 418.16 437.15 408.98 C 422.81 400.65 408.50 392.24 394.10 384.02 C 388.64 380.88 382.66 378.81 377.26 375.57 C 349.99 359.62 322.67 343.75 295.83 327.10 C 289.32 322.85 282.34 318.99 277.31 312.91 C 277.46 312.35 277.77 311.23 277.92 310.67 Z" />
</g>
<g id="#f5ed94ff">
<path fill="#f5ed94" opacity="1.00" d=" M 277.31 312.91 C 282.34 318.99 289.32 322.85 295.83 327.10 C 322.67 343.75 349.99 359.62 377.26 375.57 C 382.66 378.81 388.64 380.88 394.10 384.02 C 408.50 392.24 422.81 400.65 437.15 408.98 C 451.48 418.16 466.59 426.03 481.17 434.81 C 487.16 438.20 492.93 441.98 499.16 444.94 C 499.45 445.33 500.02 446.11 500.31 446.50 C 493.96 445.48 488.98 441.21 483.09 439.00 C 485.02 440.70 486.82 442.53 488.52 444.46 C 485.08 443.07 481.83 441.26 478.73 439.26 C 442.25 417.30 405.79 395.33 368.97 373.97 C 353.29 364.73 337.25 356.10 321.79 346.49 C 311.15 340.09 300.50 333.69 289.80 327.39 C 285.52 324.82 280.96 322.73 277.00 319.66 C 242.94 339.43 210.10 361.19 176.08 381.01 C 167.43 386.07 158.96 391.44 150.17 396.25 C 151.09 394.87 152.15 393.56 153.58 392.69 C 160.16 388.43 167.15 384.81 173.54 380.25 C 204.02 361.94 234.57 343.72 264.42 324.39 C 268.95 320.93 274.80 318.33 277.31 312.91 Z" />
</g>
<g id="#f6d216ff">
<path fill="#f6d216" opacity="1.00" d=" M 277.00 319.66 C 280.96 322.73 285.52 324.82 289.80 327.39 C 300.50 333.69 311.15 340.09 321.79 346.49 C 337.25 356.10 353.29 364.73 368.97 373.97 C 405.79 395.33 442.25 417.30 478.73 439.26 C 481.83 441.26 485.08 443.07 488.52 444.46 C 492.10 446.49 495.89 448.45 498.21 452.01 L 498.08 452.55 C 497.49 452.47 496.30 452.32 495.70 452.25 C 437.19 417.13 378.38 382.51 319.85 347.43 C 316.58 345.90 313.15 343.50 309.36 344.39 C 298.07 347.14 288.37 353.77 278.31 359.25 C 277.22 349.65 278.56 339.94 277.52 330.34 C 277.63 328.81 275.54 329.24 274.79 329.81 C 267.61 333.84 260.53 338.08 253.58 342.49 C 250.39 344.63 246.47 344.81 242.80 345.38 C 241.37 345.57 240.01 346.10 238.71 346.70 C 224.23 353.77 210.76 362.64 196.96 370.92 C 163.41 391.57 129.82 412.17 96.14 432.62 C 90.20 435.30 84.88 439.08 79.32 442.43 C 73.55 446.02 67.61 449.33 61.96 453.11 L 61.37 453.50 L 59.83 453.06 C 64.24 447.77 70.73 445.09 76.32 441.32 C 81.56 438.37 86.31 434.64 91.64 431.86 C 101.99 426.35 111.56 419.50 121.67 413.57 C 126.39 410.93 130.54 407.40 135.32 404.89 C 140.50 402.41 145.18 399.05 150.17 396.25 C 158.96 391.44 167.43 386.07 176.08 381.01 C 210.10 361.19 242.94 339.43 277.00 319.66 Z" />
</g>
<g id="#ecb914ff">
<path fill="#ecb914" opacity="1.00" d=" M 274.79 329.81 C 275.54 329.24 277.63 328.81 277.52 330.34 C 278.56 339.94 277.22 349.65 278.31 359.25 L 278.51 360.10 C 277.30 360.70 276.10 361.30 274.90 361.91 C 275.69 361.04 276.45 360.15 277.22 359.26 C 270.50 354.89 263.61 350.54 255.87 348.22 C 251.59 346.97 247.21 346.03 242.80 345.38 C 246.47 344.81 250.39 344.63 253.58 342.49 C 260.53 338.08 267.61 333.84 274.79 329.81 Z" />
</g>
<g id="#da9821ff">
<path fill="#da9821" opacity="1.00" d=" M 309.36 344.39 C 313.15 343.50 316.58 345.90 319.85 347.43 C 378.38 382.51 437.19 417.13 495.70 452.25 C 495.75 455.38 495.93 458.50 496.21 461.63 C 495.24 469.74 495.86 477.96 497.08 486.01 C 497.45 491.64 507.72 492.15 507.65 486.07 C 507.43 475.13 510.70 464.60 512.21 453.86 L 512.87 452.69 C 512.47 463.78 511.60 474.86 510.55 485.91 C 510.31 490.18 505.80 491.77 502.32 492.71 C 500.78 492.48 499.36 491.83 498.00 491.12 C 439.26 456.39 380.51 421.65 321.76 386.95 L 321.60 386.63 C 321.50 386.41 321.29 385.97 321.19 385.75 C 318.98 385.22 316.80 384.51 314.89 383.27 C 310.15 380.31 305.23 377.65 300.51 374.67 C 301.60 373.28 299.73 372.68 299.02 371.93 C 294.78 369.11 290.23 366.77 285.80 364.27 C 283.34 362.94 280.85 361.63 278.51 360.10 L 278.31 359.25 C 288.37 353.77 298.07 347.14 309.36 344.39 Z" />
</g>
<g id="#f6c915ff">
<path fill="#f6c915" opacity="1.00" d=" M 278.51 360.10 C 280.85 361.63 283.34 362.94 285.80 364.27 C 282.60 366.91 284.00 371.39 283.71 374.98 C 283.39 390.31 284.16 405.68 282.89 420.97 C 282.73 432.31 282.97 443.65 282.24 454.97 C 282.30 471.32 281.72 487.67 281.80 504.02 C 280.55 526.79 281.73 549.62 280.54 572.39 C 280.13 583.93 280.45 595.50 279.81 607.03 C 280.20 610.18 276.33 611.70 273.97 610.06 C 270.60 608.79 271.48 604.78 271.39 601.97 C 271.92 595.25 270.20 588.65 270.42 581.94 C 270.51 566.62 270.33 551.29 270.45 535.97 C 270.47 533.43 269.95 530.94 269.38 528.49 C 268.85 525.35 268.48 522.18 268.50 519.00 C 268.57 470.66 268.31 422.33 268.30 374.00 C 268.22 371.26 267.78 368.56 267.31 365.88 C 269.84 364.56 272.38 363.26 274.90 361.91 C 276.10 361.30 277.30 360.70 278.51 360.10 Z" />
</g>
<g id="#e4a91cff">
<path fill="#e4a91c" opacity="1.00" d=" M 283.71 374.98 C 284.00 371.39 282.60 366.91 285.80 364.27 C 290.23 366.77 294.78 369.11 299.02 371.93 C 299.73 372.68 301.60 373.28 300.51 374.67 C 295.87 371.94 291.48 368.68 286.34 366.92 C 286.23 382.60 286.27 398.27 286.17 413.95 C 285.54 428.94 285.86 443.95 285.69 458.96 C 285.09 482.63 285.48 506.31 285.19 529.99 C 284.38 545.31 285.17 560.67 284.49 576.01 C 284.20 586.02 284.48 596.04 284.27 606.05 C 284.32 608.23 282.82 609.92 281.65 611.60 C 278.55 611.75 274.98 612.92 272.29 610.76 C 269.90 609.36 268.51 606.74 268.74 603.98 C 268.72 583.30 268.61 562.62 268.61 541.94 C 268.45 537.44 268.51 532.92 269.38 528.49 C 269.95 530.94 270.47 533.43 270.45 535.97 C 270.33 551.29 270.51 566.62 270.42 581.94 C 270.20 588.65 271.92 595.25 271.39 601.97 C 271.48 604.78 270.60 608.79 273.97 610.06 C 276.33 611.70 280.20 610.18 279.81 607.03 C 280.45 595.50 280.13 583.93 280.54 572.39 C 281.73 549.62 280.55 526.79 281.80 504.02 C 281.72 487.67 282.30 471.32 282.24 454.97 C 282.97 443.65 282.73 432.31 282.89 420.97 C 284.16 405.68 283.39 390.31 283.71 374.98 Z" />
</g>
<g id="#f5e248ff">
<path fill="#f5e248" opacity="1.00" d=" M 159.07 387.24 C 163.79 384.71 168.11 381.14 173.54 380.25 C 167.15 384.81 160.16 388.43 153.58 392.69 C 152.15 393.56 151.09 394.87 150.17 396.25 C 145.18 399.05 140.50 402.41 135.32 404.89 C 134.65 404.15 133.97 403.42 133.30 402.70 C 137.03 399.39 141.65 397.39 145.87 394.82 C 150.21 392.18 154.63 389.70 159.07 387.24 Z" />
</g>
<g id="#f5e65dff">
<path fill="#f5e65d" opacity="1.00" d=" M 133.30 402.70 C 133.97 403.42 134.65 404.15 135.32 404.89 C 130.54 407.40 126.39 410.93 121.67 413.57 C 111.56 419.50 101.99 426.35 91.64 431.86 C 90.54 431.10 89.45 430.34 88.35 429.60 C 92.56 426.22 97.47 423.93 102.06 421.14 C 108.96 416.99 115.85 412.83 122.85 408.85 C 126.35 406.82 130.28 405.48 133.30 402.70 Z" />
</g>
<g id="#da9722ff">
<path fill="#da9722" opacity="1.00" d=" M 8.51 430.96 C 8.40 427.47 9.41 423.99 11.58 421.23 C 11.35 424.86 10.81 429.36 14.28 431.74 C 22.99 438.01 31.79 444.21 40.30 450.78 C 42.83 452.46 43.01 455.70 43.56 458.41 C 44.24 463.20 45.31 467.95 45.66 472.79 C 45.74 478.73 46.79 484.75 49.81 489.95 C 50.55 489.64 52.02 489.03 52.76 488.72 C 55.79 477.39 54.81 465.40 53.67 453.85 C 55.78 458.23 54.28 464.01 57.95 467.57 C 60.54 463.16 60.57 457.92 61.96 453.11 C 67.61 449.33 73.55 446.02 79.32 442.43 C 84.88 439.08 90.20 435.30 96.14 432.62 C 94.21 434.60 92.20 436.55 89.75 437.90 C 82.40 442.00 75.49 446.83 68.40 451.36 C 66.65 452.58 64.69 453.64 63.41 455.39 C 62.50 457.12 62.34 459.10 62.09 461.01 C 61.31 469.00 60.85 477.02 59.99 485.01 C 59.78 488.83 57.00 492.72 53.01 493.15 C 49.44 493.77 46.80 490.79 43.75 489.52 C 39.63 487.87 36.01 484.83 31.48 484.36 C 26.46 481.99 21.88 478.73 17.01 476.07 C 12.11 473.61 8.64 468.44 8.55 462.92 C 8.47 452.27 8.56 441.61 8.51 430.96 Z" />
</g>
<g id="#fafbefff">
<path fill="#fafbef" opacity="1.00" d=" M 486.00 428.10 C 489.52 429.29 492.60 431.79 496.45 431.93 C 499.22 434.02 502.29 435.90 505.90 435.84 C 506.40 436.38 507.39 437.44 507.89 437.98 C 507.46 438.59 506.58 439.83 506.14 440.44 C 504.85 440.15 503.56 439.87 502.28 439.59 C 497.90 434.37 491.11 432.38 486.00 428.10 Z" />
</g>
<g id="#f5e972ff">
<path fill="#f5e972" opacity="1.00" d=" M 88.35 429.60 C 89.45 430.34 90.54 431.10 91.64 431.86 C 86.31 434.64 81.56 438.37 76.32 441.32 C 70.73 445.09 64.24 447.77 59.83 453.06 C 58.74 452.71 57.66 452.36 56.58 451.99 C 57.10 450.26 56.62 447.65 58.60 446.79 C 62.65 444.97 66.44 442.68 70.14 440.25 C 76.02 436.36 82.96 434.25 88.35 429.60 Z" />
</g>
<g id="#f6f5d6ff">
<path fill="#f6f5d6" opacity="1.00" d=" M 483.09 439.00 C 488.98 441.21 493.96 445.48 500.31 446.50 C 501.13 448.77 499.65 450.43 498.21 452.01 C 495.89 448.45 492.10 446.49 488.52 444.46 C 486.82 442.53 485.02 440.70 483.09 439.00 Z" />
</g>
<g id="#f5ee9eff">
<path fill="#f5ee9e" opacity="1.00" d=" M 43.39 447.49 C 45.06 447.55 46.72 447.62 48.39 447.69 C 48.54 449.64 48.58 451.60 48.48 453.56 C 44.72 454.60 43.11 450.58 43.39 447.49 Z" />
</g>
<g id="#f5e24bff">
<path fill="#f5e24b" opacity="1.00" d=" M 509.24 447.60 C 510.00 447.32 511.52 446.74 512.28 446.45 C 514.10 448.41 512.60 450.42 510.90 451.76 C 509.73 450.64 509.21 449.18 509.24 447.60 Z" />
</g>
<g id="#e3a71dff">
<path fill="#e3a71d" opacity="1.00" d=" M 501.90 457.94 C 502.17 455.56 502.14 451.85 505.10 451.21 C 507.65 451.43 509.89 452.88 512.21 453.86 C 510.70 464.60 507.43 475.13 507.65 486.07 C 507.72 492.15 497.45 491.64 497.08 486.01 C 495.86 477.96 495.24 469.74 496.21 461.63 C 497.90 469.46 496.86 477.82 499.88 485.36 C 502.03 476.37 501.71 467.09 501.90 457.94 Z" />
</g>
<g id="#e7b119ff">
<path fill="#e7b119" opacity="1.00" d=" M 51.95 451.90 C 54.24 453.06 56.52 454.24 58.82 455.40 C 59.66 454.75 60.51 454.11 61.37 453.50 L 61.96 453.11 C 60.57 457.92 60.54 463.16 57.95 467.57 C 54.28 464.01 55.78 458.23 53.67 453.85 C 54.81 465.40 55.79 477.39 52.76 488.72 C 52.02 489.03 50.55 489.64 49.81 489.95 C 46.79 484.75 45.74 478.73 45.66 472.79 C 46.64 473.75 47.62 474.73 48.60 475.71 C 50.27 467.84 49.50 459.58 51.95 451.90 Z" />
</g>
</svg>
