<?xml version="1.0" encoding="UTF-8" standalone="no"?>
<!-- Created with Inkscape (http://www.inkscape.org/) -->

<svg
   xmlns:dc="http://purl.org/dc/elements/1.1/"
   xmlns:cc="http://creativecommons.org/ns#"
   xmlns:rdf="http://www.w3.org/1999/02/22-rdf-syntax-ns#"
   xmlns:svg="http://www.w3.org/2000/svg"
   xmlns="http://www.w3.org/2000/svg"
   xmlns:inkscape="http://www.inkscape.org/namespaces/inkscape"
   version="1.1"
   width="1488.1875"
   height="1052.3625"
   id="svg2"
   xml:space="preserve"><metadata
     id="metadata8"><rdf:RDF><cc:Work
         rdf:about=""><dc:format>image/svg+xml</dc:format><dc:type
           rdf:resource="http://purl.org/dc/dcmitype/StillImage" /></cc:Work></rdf:RDF></metadata><defs
     id="defs6"><clipPath
       id="clipPath16"><path
         d="m 0,841.89 1190.55,0 L 1190.55,0 0,0 0,841.89 z"
         inkscape:connector-curvature="0"
         id="path18" /></clipPath></defs><g
     transform="matrix(1.25,0,0,-1.25,0,1052.3625)"
     id="g10"><g
       id="g12"><g
         clip-path="url(#clipPath16)"
         id="g14"><g
           transform="translate(684.3945,399.5117)"
           id="g20"><path
             d="m 0,0 c 6.602,0 11.783,3.195 11.783,10.293 0,6.957 -5.323,10.01 -11.926,10.01 l -13.344,0 L -13.487,0 0,0 z m -0.994,24.064 c 5.963,0 11.428,2.982 11.428,9.654 0,6.53 -4.756,9.299 -10.789,9.299 l -13.132,0 0,-18.953 12.493,0 z m -16.965,22.786 18.668,0 c 8.519,0 14.126,-4.259 14.126,-12.422 0,-5.537 -3.479,-10.435 -9.368,-11.855 l 0,-0.07 C 12.564,21.437 16.326,16.185 16.326,10.15 16.326,0.568 8.801,-3.833 1.064,-3.833 l -19.023,0 0,50.683 z"
             inkscape:connector-curvature="0"
             id="path22"
             style="fill:#d62e86;fill-opacity:1;fill-rule:nonzero;stroke:none" /></g><g
           transform="translate(709.6689,404.0547)"
           id="g24"><path
             d="m 0,0 0,42.307 4.187,0 0,-42.59 c 0,-2.769 1.561,-4.898 5.11,-4.898 1.422,0 2.769,0.213 3.906,0.355 l 0,-3.195 C 11.5,-8.518 9.512,-8.73 7.951,-8.73 1.773,-8.73 0,-4.4 0,0"
             inkscape:connector-curvature="0"
             id="path26"
             style="fill:#d62e86;fill-opacity:1;fill-rule:nonzero;stroke:none" /></g><path
           d="m 730.112,431.029 4.117,0 0,-35.351 -4.117,0 0,35.351 z m 0,15.261 4.117,0 0,-7.24 -4.117,0 0,7.24 z"
           inkscape:connector-curvature="0"
           id="path28"
           style="fill:#d62e86;fill-opacity:1;fill-rule:nonzero;stroke:none" /><g
           transform="translate(742.2529,400.0088)"
           id="g30"><path
             d="m 0,0 2.838,2.414 c 2.982,-2.84 6.318,-4.259 11.004,-4.259 4.543,0 9.156,2.485 9.156,7.028 0,4.33 -2.697,5.677 -7.596,6.6 l -3.904,0.852 C 5.252,13.842 1.49,16.681 1.49,21.65 c 0,5.749 4.471,10.222 12.28,10.222 4.97,0 9.085,-1.136 11.783,-3.904 l -2.768,-2.343 c -2.273,1.846 -5.183,2.981 -9.371,2.981 -4.684,0 -7.807,-2.626 -7.807,-6.246 0,-3.691 2.838,-5.11 8.022,-6.247 l 5.252,-1.135 c 4.969,-1.136 8.447,-3.762 8.447,-8.944 0,-7.453 -6.744,-11.215 -13.416,-11.215 C 8.305,-5.181 3.264,-3.762 0,0"
             inkscape:connector-curvature="0"
             id="path32"
             style="fill:#d62e86;fill-opacity:1;fill-rule:nonzero;stroke:none" /></g><g
           transform="translate(774.9092,400.0088)"
           id="g34"><path
             d="m 0,0 2.838,2.414 c 2.982,-2.84 6.318,-4.259 11.004,-4.259 4.543,0 9.156,2.485 9.156,7.028 0,4.33 -2.697,5.677 -7.596,6.6 l -3.904,0.852 C 5.252,13.842 1.49,16.681 1.49,21.65 c 0,5.749 4.471,10.222 12.281,10.222 4.969,0 9.084,-1.136 11.782,-3.904 l -2.768,-2.343 c -2.271,1.846 -5.183,2.981 -9.369,2.981 -4.686,0 -7.809,-2.626 -7.809,-6.246 0,-3.691 2.838,-5.11 8.022,-6.247 l 5.252,-1.135 c 4.969,-1.136 8.447,-3.762 8.447,-8.944 0,-7.453 -6.744,-11.215 -13.416,-11.215 C 8.305,-5.181 3.266,-3.762 0,0"
             inkscape:connector-curvature="0"
             id="path36"
             style="fill:#d62e86;fill-opacity:1;fill-rule:nonzero;stroke:none" /></g><path
           d="m 640.196,369.63 -101.931,0 0,101.93 101.931,0 0,-101.93 z"
           inkscape:connector-curvature="0"
           id="path38"
           style="fill:#d62e86;fill-opacity:1;fill-rule:nonzero;stroke:none" /><g
           transform="translate(583.8247,455.4883)"
           id="g40"><path
             d="m 0,0 c -3.685,-1.135 -7.057,-3.145 -10.035,-5.968 -7.153,-6.803 -7.171,-16.128 -7.134,-17.449 l 15.782,0 -7.02,5.184 0,0.002 c 0.118,0.446 1.249,4.466 5.554,7.877 4.217,3.345 9.309,3.784 10.057,3.83 l 0,7.581 C 4.774,1.083 2.352,0.728 0,0"
             inkscape:connector-curvature="0"
             id="path42"
             style="fill:#ffffff;fill-opacity:1;fill-rule:nonzero;stroke:none" /></g><g
           transform="translate(588.5068,398.2891)"
           id="g44"><path
             d="m 0,0 -14.363,-7.77 33.43,0 6.383,-7.474 L 25.45,0 0,0 z"
             inkscape:connector-curvature="0"
             id="path46"
             style="fill:#ffffff;fill-opacity:1;fill-rule:nonzero;stroke:none" /></g><g
           transform="translate(596.8184,425.1802)"
           id="g48"><path
             d="m 0,0 -11.399,-8.822 c -8.266,-6.287 -13.214,-13.062 -13.972,-14.192 -1.35,-2.022 -3.18,-5.097 -4.479,-8.511 -1.434,-3.774 -2.271,-7.434 -2.366,-10.348 l 9.542,7.212 c 0.119,0.484 1.309,4.93 5.67,10.094 4.585,5.433 8.192,8.111 11.095,10.268 0.648,0.481 1.264,0.937 1.852,1.394 0.442,0.347 1.117,0.829 1.893,1.392 1.998,1.435 4.848,3.491 7.176,5.596 3.74,3.079 6.121,7.719 6.121,12.916 0,9.269 -7.576,16.785 -16.923,16.785 l 0,-7.729 C -0.748,16.055 3.335,12 3.335,6.999 3.335,5.192 2.798,3.51 1.874,2.095 1.424,1.471 0.817,0.786 0,0"
             inkscape:connector-curvature="0"
             id="path50"
             style="fill:#ffffff;fill-opacity:1;fill-rule:nonzero;stroke:none" /></g></g></g></g></svg>