<?xml version="1.0" encoding="UTF-8" standalone="yes"?>
<svg xmlns="http://www.w3.org/2000/svg" xmlns:xlink="http://www.w3.org/1999/xlink" width="222.66666666666666px" height="106.66666666666666px" viewBox="0 0 167 80" version="1.1">
  <g id="surface1">
    <path style=" stroke:none;fill-rule:nonzero;fill:rgb(62.352941%,5.490196%,24.313725%);fill-opacity:1;" d="M 3.296875 0 L 4.109375 0 C 5.53125 0.121094 6.832031 1.121094 7.339844 2.449219 C 7.597656 3.109375 7.53125 3.828125 7.535156 4.519531 C 7.539062 12.34375 7.53125 20.164062 7.539062 27.988281 C 4.3125 30.644531 1.707031 34.054688 0 37.875 L 0 3.207031 C 0.210938 1.550781 1.671875 0.226562 3.296875 0 Z M 3.296875 0 "/>
    <path style=" stroke:none;fill-rule:nonzero;fill:rgb(62.352941%,5.490196%,24.313725%);fill-opacity:1;" d="M 60.519531 4.039062 C 60.488281 1.910156 62.449219 -0.0234375 64.574219 0.0546875 C 66.703125 0.046875 68.597656 2.027344 68.515625 4.152344 C 68.515625 28.03125 68.515625 51.910156 68.515625 75.792969 C 68.539062 76.777344 68.179688 77.757812 67.515625 78.484375 C 66.847656 79.292969 65.863281 79.75 64.851562 79.949219 L 64.199219 79.949219 C 62.730469 79.71875 61.382812 78.753906 60.804688 77.371094 C 60.398438 76.449219 60.542969 75.425781 60.519531 74.453125 C 60.519531 50.980469 60.519531 27.511719 60.519531 4.039062 Z M 60.519531 4.039062 "/>
    <path style=" stroke:none;fill-rule:nonzero;fill:rgb(62.352941%,5.490196%,24.313725%);fill-opacity:1;" d="M 75.492188 0.1875 C 76.574219 -0.0429688 77.746094 0.0078125 78.765625 0.464844 C 80.140625 1.085938 81.183594 2.402344 81.429688 3.898438 C 81.554688 4.714844 81.535156 5.566406 81.300781 6.359375 C 80.835938 7.953125 79.445312 9.238281 77.816406 9.558594 C 77.074219 9.699219 76.296875 9.703125 75.558594 9.546875 C 73.90625 9.199219 72.515625 7.855469 72.09375 6.222656 C 71.890625 5.429688 71.878906 4.589844 72.027344 3.789062 C 72.347656 2.050781 73.769531 0.578125 75.492188 0.1875 Z M 75.492188 0.1875 "/>
    <path style=" stroke:none;fill-rule:nonzero;fill:rgb(62.352941%,5.490196%,24.313725%);fill-opacity:1;" d="M 75.019531 23.1875 C 75.777344 22.835938 76.652344 22.777344 77.464844 22.945312 C 78.746094 23.242188 79.824219 24.222656 80.328125 25.425781 C 80.660156 26.199219 80.597656 27.058594 80.601562 27.878906 C 80.601562 43.851562 80.597656 59.820312 80.601562 75.792969 C 80.613281 76.511719 80.441406 77.238281 80.066406 77.855469 C 79.40625 78.988281 78.21875 79.730469 76.9375 79.949219 L 76.28125 79.949219 C 75.730469 79.808594 75.160156 79.679688 74.667969 79.378906 C 73.464844 78.664062 72.582031 77.339844 72.605469 75.910156 C 72.601562 59.574219 72.605469 43.234375 72.605469 26.894531 C 72.5625 25.3125 73.617188 23.847656 75.019531 23.1875 Z M 75.019531 23.1875 "/>
    <path style=" stroke:none;fill-rule:nonzero;fill:rgb(62.352941%,5.490196%,24.313725%);fill-opacity:1;" d="M 84.382812 26.894531 C 84.324219 24.8125 86.183594 22.875 88.265625 22.859375 C 98.761719 22.859375 109.257812 22.863281 119.753906 22.859375 C 121.902344 22.789062 123.964844 24.710938 123.921875 26.886719 C 123.890625 27.980469 123.222656 28.90625 122.65625 29.789062 C 113.472656 43.820312 104.292969 57.851562 95.109375 71.878906 C 103.199219 71.886719 111.292969 71.882812 119.382812 71.882812 C 120.023438 71.859375 120.6875 71.894531 121.28125 72.160156 C 122.308594 72.609375 123.160156 73.480469 123.566406 74.527344 C 124.089844 75.910156 123.746094 77.570312 122.691406 78.609375 C 122.023438 79.363281 121.070312 79.78125 120.09375 79.949219 L 88.070312 79.949219 C 86.703125 79.742188 85.453125 78.902344 84.808594 77.667969 C 84.171875 76.457031 84.246094 74.902344 85.003906 73.761719 C 94.328125 59.464844 103.640625 45.160156 112.96875 30.867188 C 104.773438 30.871094 96.578125 30.863281 88.378906 30.871094 C 86.277344 30.921875 84.359375 28.996094 84.382812 26.894531 Z M 84.382812 26.894531 "/>
    <path style=" stroke:none;fill-rule:nonzero;fill:rgb(62.352941%,5.490196%,24.313725%);fill-opacity:1;" d="M 130.195312 23.023438 C 131.003906 22.757812 131.867188 22.890625 132.699219 22.859375 C 142.710938 22.859375 152.71875 22.863281 162.730469 22.859375 C 164.882812 22.792969 166.929688 24.71875 166.902344 26.894531 C 166.867188 27.804688 166.378906 28.601562 165.914062 29.351562 C 156.632812 43.527344 147.359375 57.707031 138.082031 71.882812 C 146.339844 71.882812 154.597656 71.882812 162.855469 71.882812 C 164.992188 71.871094 166.898438 73.894531 166.773438 76.03125 C 166.761719 77.234375 166.089844 78.351562 165.152344 79.078125 C 164.558594 79.570312 163.804688 79.796875 163.0625 79.949219 L 131.039062 79.949219 C 129.941406 79.765625 128.902344 79.222656 128.214844 78.328125 C 127.332031 77.285156 127.121094 75.761719 127.597656 74.488281 C 127.824219 73.894531 128.230469 73.398438 128.5625 72.863281 C 137.691406 58.863281 146.804688 44.855469 155.945312 30.867188 C 147.914062 30.871094 139.878906 30.867188 131.847656 30.871094 C 131.394531 30.871094 130.933594 30.890625 130.488281 30.785156 C 129.46875 30.558594 128.597656 29.875 128.011719 29.03125 C 127.210938 27.882812 127.136719 26.285156 127.796875 25.054688 C 128.3125 24.121094 129.167969 23.351562 130.195312 23.023438 Z M 130.195312 23.023438 "/>
    <path style=" stroke:none;fill-rule:nonzero;fill:rgb(62.352941%,5.490196%,24.313725%);fill-opacity:1;" d="M 22.695312 23.851562 C 26.75 23.085938 30.972656 23.171875 34.984375 24.15625 C 41.84375 25.875 47.996094 30.28125 51.808594 36.253906 C 54.199219 39.96875 55.746094 44.242188 56.152344 48.652344 C 56.613281 53.457031 55.929688 58.40625 53.949219 62.820312 C 52.132812 66.960938 49.324219 70.664062 45.800781 73.492188 C 42.417969 76.207031 38.417969 78.167969 34.179688 79.085938 C 29.601562 80.050781 24.777344 79.921875 20.277344 78.621094 C 15.976562 77.351562 11.980469 75.046875 8.734375 71.949219 C 5.839844 69.199219 3.566406 65.816406 2.050781 62.125 C 0.660156 58.785156 0.0117188 55.160156 0 51.546875 L 0 51.511719 C 0 47.21875 0.953125 42.921875 2.886719 39.085938 C 4.820312 35.148438 7.679688 31.671875 11.179688 29.03125 C 14.570312 26.480469 18.523438 24.652344 22.695312 23.851562 M 25.585938 30.660156 C 19.648438 31.359375 14.09375 34.78125 10.773438 39.765625 C 8.460938 43.195312 7.164062 47.316406 7.183594 51.46875 C 7.148438 55.117188 8.121094 58.761719 9.929688 61.925781 C 12.058594 65.710938 15.402344 68.78125 19.339844 70.601562 C 23.464844 72.5625 28.242188 73.03125 32.691406 72.058594 C 35.121094 71.523438 37.441406 70.519531 39.535156 69.175781 C 42.886719 67.019531 45.578125 63.871094 47.222656 60.242188 C 49.105469 56.203125 49.566406 51.554688 48.671875 47.199219 C 48.085938 44.367188 46.878906 41.675781 45.210938 39.316406 C 43.027344 36.226562 39.976562 33.765625 36.507812 32.253906 C 33.101562 30.730469 29.28125 30.222656 25.585938 30.660156 Z M 25.585938 30.660156 "/>
  </g>
</svg>