<?xml version="1.0" encoding="UTF-8" standalone="yes"?>
<svg xmlns="http://www.w3.org/2000/svg" xmlns:xlink="http://www.w3.org/1999/xlink" width="309.3333333333333px" height="106.66666666666666px" viewBox="0 0 232 80" version="1.1">
  <defs>
    <linearGradient id="linear0" gradientUnits="userSpaceOnUse" x1="0" y1="0" x2="1" y2="0" gradientTransform="matrix(-8.643538,65.612289,-65.564858,-8.649791,121.139858,-8.290868)">
      <stop offset="0" style="stop-color:rgb(87.45098%,5.490196%,32.156863%);stop-opacity:1;"/>
      <stop offset="1" style="stop-color:rgb(50.588235%,2.745098%,16.078431%);stop-opacity:1;"/>
    </linearGradient>
  </defs>
  <g id="surface1">
    <path style=" stroke:none;fill-rule:nonzero;fill:url(#linear0);" d="M 111.851562 2.796875 C 87.265625 3.707031 42.824219 40.582031 57.816406 52.277344 C 61.792969 55.464844 63.257812 58.472656 66.34375 58.394531 C 78.425781 58.058594 86.613281 42.640625 106.570312 27.855469 C 110.980469 24.589844 112.089844 29.476562 108.035156 38.957031 C 107.183594 40.9375 106.75 42.640625 105.125 43.945312 C 94.625 52.21875 74.371094 64.074219 84.359375 76.386719 C 84.65625 76.722656 85.03125 76.917969 85.507812 76.960938 L 85.960938 76.960938 C 91.617188 76.503906 106.945312 59.839844 112.859375 43.09375 C 112.957031 42.640625 113.550781 42.222656 113.910156 42.066406 C 117.765625 39.058594 121.5625 37.316406 124.152344 35.15625 C 124.746094 34.644531 124.507812 33.949219 123.996094 34.304688 C 121.324219 36.207031 118.65625 37.492188 115.371094 39.214844 C 114.859375 39.472656 113.988281 39.90625 114.421875 38.957031 C 116.914062 33.457031 116.398438 19.839844 106.15625 25.101562 C 92.289062 32.148438 84.183594 40.5 71.859375 47.054688 C 68.496094 48.835938 67.210938 48.417969 68.261719 45.589844 C 73.5 32.484375 90.828125 13.40625 113.039062 7.707031 C 115.746094 7.113281 116.125 8.714844 116.597656 10.296875 C 117.054688 11.800781 117.644531 13.308594 120.355469 12.96875 C 126.664062 12.277344 122.769531 5.054688 118.300781 3.589844 C 116.875 3.113281 115.292969 2.875 113.652344 2.796875 Z M 198.480469 14.257812 C 199.507812 14.433594 193.058594 24.074219 189.105469 28.527344 C 189.105469 28.527344 186.257812 28.449219 182.636719 28.449219 C 180.917969 28.449219 180.480469 29.238281 181.332031 30.171875 C 182.042969 31.039062 182.457031 31.039062 185.464844 31.296875 C 186.257812 31.296875 187.105469 31.296875 186.949219 31.398438 C 184.238281 34.5625 181.804688 37.890625 179.96875 41.113281 C 176.445312 43.964844 170.511719 48.476562 170.671875 48.242188 C 171.34375 44.558594 168.4375 41.886719 166.023438 39.292969 C 164.402344 37.574219 166.539062 37.136719 170.316406 35.335938 C 174.726562 33.179688 175.597656 31.734375 172.828125 28.449219 C 169.464844 24.253906 169.644531 25.339844 168.515625 25.695312 C 154.296875 31.398438 160.425781 36.722656 164.402344 41.453125 C 168.335938 46.4375 154.808594 52.277344 151.386719 55.800781 C 150.003906 57.207031 150.003906 58.652344 151.03125 59.34375 C 154.75 61.582031 170.253906 58.75 170.492188 51.347656 C 170.492188 51.050781 174.824219 47.371094 178.34375 44.261719 C 175.457031 50.734375 175.636719 56.335938 181.945312 58.75 C 187.542969 60.945312 193.8125 54.949219 202.078125 45.90625 C 199.429688 51.367188 199.707031 56.15625 206.648438 57.878906 C 211.988281 59.085938 231.132812 47.46875 228.878906 36.621094 C 228.285156 33.457031 224.152344 34.742188 225 34.128906 C 227.058594 32.425781 228.105469 31.398438 222.152344 26.902344 C 220.511719 25.617188 220.433594 25.617188 218.632812 26.984375 C 214.042969 30.644531 207.558594 36.9375 203.738281 42.957031 C 203.402344 42.9375 202.832031 43.214844 202 43.945312 C 190.230469 54.613281 182.894531 59.164062 184.359375 53.308594 C 185.464844 48.835938 189.617188 41.964844 195.632812 31.972656 C 195.90625 31.632812 196.144531 31.398438 196.601562 31.398438 C 200.8125 31.21875 206.152344 31.21875 208.566406 30.269531 C 210.367188 29.476562 210.523438 28.527344 208.902344 28.527344 C 206.84375 28.527344 202.871094 28.449219 199.171875 28.449219 C 197.867188 28.449219 197.867188 28.449219 198.042969 28.113281 C 204.433594 18.136719 202.871094 15.1875 199.785156 13.40625 C 199.527344 13.265625 199.308594 13.226562 199.113281 13.226562 C 198.242188 13.226562 197.847656 14.199219 198.480469 14.257812 M 207.519531 53.308594 C 208.644531 47.984375 218.019531 40.066406 221.558594 37.136719 C 221.996094 36.800781 223.183594 36.621094 224.824219 36.386719 C 231.804688 35.433594 220.691406 48.835938 209.417969 54.199219 C 208.566406 54.574219 208.011719 54.773438 207.714844 54.773438 C 207.222656 54.773438 207.320312 54.277344 207.519531 53.308594 M 2.796875 23.5 L 2.796875 42.660156 L 10.964844 42.660156 C 14.9375 42.660156 18.359375 41.730469 18.359375 36.917969 C 18.359375 34.644531 16.878906 32.445312 14.246094 32.1875 L 14.246094 32.128906 C 16.34375 31.753906 17.511719 30.367188 17.511719 28.269531 C 17.511719 25.082031 14.976562 23.5 11.832031 23.5 Z M 6.394531 26.351562 L 10.6875 26.351562 C 12.78125 26.351562 13.734375 27.300781 13.734375 28.746094 C 13.734375 30.585938 12.269531 31.199219 10.6875 31.199219 L 6.394531 31.199219 Z M 6.394531 33.890625 L 11.0625 33.890625 C 13.257812 33.890625 14.582031 34.664062 14.582031 36.820312 C 14.582031 38.820312 13.277344 39.492188 11.101562 39.492188 L 6.394531 39.492188 Z M 129.53125 26.648438 C 132.359375 26.566406 109.953125 51.605469 121.34375 56.257812 C 126.328125 58.394531 133.308594 47.984375 139.5 42.917969 C 139.9375 42.578125 140.964844 41.550781 140.273438 42.640625 C 135.980469 49.960938 137.007812 54.019531 139.757812 56.15625 C 144.148438 59.699219 150.617188 50.476562 154.234375 46.695312 C 158.113281 42.402344 158.113281 40.5 153.027344 45.488281 C 148.976562 49.625 140.726562 58.136719 142.882812 52.554688 C 145.613281 45.488281 155.878906 33.710938 146.582031 30.507812 C 145.277344 30.171875 145.097656 30.683594 144.839844 31.910156 C 144.761719 32.425781 143.554688 35.851562 140.964844 38.167969 C 134.773438 44.125 135.980469 43.09375 130.046875 47.726562 C 126.585938 50.300781 125.222656 50.65625 126.84375 47.054688 C 129.078125 42.222656 144.503906 28.449219 130.460938 25.519531 C 130.304688 25.5 130.164062 25.480469 130.046875 25.480469 C 128.917969 25.480469 128.980469 26.648438 129.53125 26.648438 M 38.890625 30.386719 L 38.832031 30.386719 L 38.832031 29.0625 L 35.546875 29.0625 L 35.546875 42.660156 L 38.832031 42.660156 L 38.832031 35.496094 C 38.832031 32.980469 40.15625 31.910156 41.757812 31.910156 C 43.4375 31.910156 44.011719 33.117188 44.011719 34.347656 L 44.011719 42.660156 L 47.296875 42.660156 L 47.296875 33.355469 C 47.296875 30.367188 45.851562 28.707031 42.609375 28.707031 C 41.285156 28.707031 39.859375 29.21875 38.890625 30.386719 M 19.765625 35.851562 C 19.765625 39.925781 22.335938 42.976562 26.746094 42.976562 C 31.15625 42.976562 33.726562 39.925781 33.726562 35.851562 C 33.726562 31.792969 31.15625 28.707031 26.746094 28.707031 C 22.335938 28.707031 19.765625 31.792969 19.765625 35.851562 M 23.226562 35.851562 C 23.226562 33.710938 24.394531 31.753906 26.746094 31.753906 C 29.101562 31.753906 30.265625 33.710938 30.265625 35.851562 C 30.265625 37.988281 29.101562 39.96875 26.746094 39.96875 C 24.394531 39.96875 23.226562 37.988281 23.226562 35.851562 "/>
  </g>
</svg>