<?xml version="1.0" encoding="UTF-8"?>
<!-- Generator: Adobe Illustrator 18.1.0, SVG Export Plug-In . SVG Version: 6.00 Build 0)  -->
<!DOCTYPE svg PUBLIC "-//W3C//DTD SVG 1.1//EN" "http://www.w3.org/Graphics/SVG/1.1/DTD/svg11.dtd">
<svg version="1.1" id="Layer_1" xmlns="http://www.w3.org/2000/svg" xmlns:xlink="http://www.w3.org/1999/xlink" x="0px" y="0px" viewBox="0 0 841.89 595.28" enable-background="new 0 0 841.89 595.28" xml:space="preserve">
<g>
	<polygon fill="#FFFFFF" points="422.206,422.377 106.707,240.225 106.343,353.779 421.845,535.931 735.295,353.777    735.657,240.223  "/>
	<g>
		<g>
			<g>
				<path fill="#020304" d="M696.223,275.847c11.211-7.132,26.619-13.548,25.761,2.179c-0.186,3.427-1.798,6.45-3.865,8.884      c-2.213,2.601-5.021,4.084-8.104,5.255c-5.773,2.188-10.371,6.332-13.494,11.65c-3.355,5.712-3.944,12.383-3.958,14.673      c-0.023,3.188,0.951,14.422,9.847,8.981c1.053-0.647,2.016-1.364,2.982-2.209c2.262-2.123,4.058-4.944,4.431-8.619l-3.8,2.35      c-4.434,2.733-4.359-4.77-4.355-5.146c0.084-8.362,4.097-10.863,4.311-10.995l15.408-9.659c0.234-0.148,4.678-2.951,4.515,5.283      c-0.545,27.886-7.64,47.926-26.373,59.276c-14.146,8.462-28.835,0.074-28.909-25.745      C670.544,306.065,681.571,285.088,696.223,275.847z"/>
			</g>
		</g>
	</g>
	<g>
		<g>
			<g>
				<path fill="#020304" d="M294.646,360.967c19.573,11.833,35.056,37.076,34.905,63.779c-0.146,25.886-15.81,33.357-35.387,21.524      c-18.206-11.002-34.172-35.696-34.018-62.904C260.296,356.663,275.618,349.471,294.646,360.967z M296.161,416.944      c6.019,2.974,8.673-1.552,8.093-8.729c-0.589-7.278-3.958-14.902-10.25-18.011c-6.197-3.067-8.659,1.67-8.072,8.951      C286.507,406.331,290.147,413.967,296.161,416.944"/>
			</g>
		</g>
		<path fill="#020304" d="M399.853,421.774c-4.067-2.36-8.321-2.304-11.191,0.009l-14.213,11.137l-15.659-29.141    c-1.618-3.13-5.101-8.831-10.254-11.826c-2.546-1.48-4.842-2.23-6.824-2.23c-7.761,0-8.027,10.557-8.031,11.759l-0.302,50.584    c-0.209,3.821,0.045,16.837,12.068,23.872c1.223,0.715,2.415,1.077,3.544,1.077c6.614,0,8.378-11.448,8.378-18.202l0.062-8.195    l12.477,20.524c0.678,1.408,1.864,2.654,3.339,3.508c1.694,0.991,3.621,0.673,5.473-0.833l9.585-6.615l-0.084,13.995    c0,9.132,1.034,21.851,9.966,26.861c2.542,1.425,4.831,2.148,6.802,2.148c0,0,0.001,0,0.002,0c5.896-0.002,8.022-6.348,8.051-11.8    l0.299-51.997C413.348,444.695,413.028,429.435,399.853,421.774z"/>
		<g>
			<g>
				<path fill="#020304" d="M173.222,333.399c10.399,9.299,11.197,18.524,11.16,24.399c-0.079,13.543-7.508,18.599-25.68,8.033      l-24.561-14.371c-15.429-8.97-15.248-24.378-15.246-24.972l0.29-49.361c0.002-0.594,0.002-16.104,15.434-7.137l24.561,14.373      c18.171,10.564,25.492,24.192,25.41,37.738C184.558,327.974,183.658,336.213,173.222,333.399z M152.521,341.823      c3.877,2.253,5.408,0.03,5.425-2.619c0.021-3.469-1.659-7.332-5.067-9.311l-7.387-4.297l-0.072,12.097L152.521,341.823       M152.979,313.125c3.408,1.981,5.12,0.091,5.139-3.378c0.016-2.65-1.48-6.631-5.357-8.886l-7.102-4.13l-0.07,12.097      L152.979,313.125"/>
			</g>
		</g>
		<g>
			<g>
				<path fill="#020304" d="M223.178,320.935c19.559,11.824,34.288,37.141,34.139,63.844c-0.148,25.886-15.058,33.283-34.619,21.459      c-18.206-11.002-35.459-36.306-35.308-63.512C187.542,316.021,204.159,309.439,223.178,320.935z M223.426,376.266      c6.165,2.617,8.569-2.049,7.561-9.179c-1.011-7.234-4.826-14.65-11.29-17.394c-6.369-2.703-8.548,2.169-7.531,9.401      C213.164,366.227,217.245,373.64,223.426,376.266"/>
			</g>
		</g>
	</g>
	<g>
		<g>
			<g>
				<path fill="#020304" d="M625.518,318.575c3.172-1.831,5.923-0.905,7.664,1.216l13.81,17.158l-0.042-14.397      c-0.002-0.592-1.441-16.053,8.647-21.877c10.225-5.903,10.19,9.601,10.192,10.195l0.142,50.501      c0.002,0.717,0.046,16.176-10.102,22.035c-2.093,1.209-3.872,0.773-6.037-1.699l-13.963-17.826l0.042,15.341      c0.002,0.712,0.046,16.174-10.118,22.042c-10.07,5.814-10.114-9.645-10.116-10.36l-0.144-50.461      C615.493,339.849,615.449,324.39,625.518,318.575z"/>
			</g>
		</g>
		<g>
			<g>
				<path fill="#020304" d="M472.176,408.287c0.819-0.473,10.162-5.749,10.197,6.596c0.037,12.689-9.673,18.292-10.128,18.557      l-17.202,9.93l0.021,7.2l17.823-10.29c3.125-1.805,6.696-1.944,6.712,4.399c0.021,6.833-3.54,10.687-6.663,12.489l-17.824,10.29      l0.019,7.079l17.202-9.933c0.821-0.473,10.165-5.749,10.2,6.596c0.035,12.705-9.673,18.311-10.128,18.573l-28.517,16.464      c-13.805,7.972-13.756-7.543-13.759-8.255l-0.139-49.26c-0.002-0.592-0.137-16.002,14.38-24.383L472.176,408.287z"/>
			</g>
		</g>
	</g>
	<g>
		<g>
			<path fill="#020304" d="M611.321,386.297c1.376,2.682,1.977,5.459,1.984,8.213c0.025,8.629-5.756,16.889-11.383,20.137     c-3.503,2.023-6.759,0.9-8.471-2.564l-1.975-5.093l-20.735,11.972l-2.689,9.571c-1.703,5.434-4.923,10.297-8.427,12.32     c-5.114,2.951-12.51,1.311-12.538-7.562c-0.005-2.631,0.466-5.401,1.747-9.369l21.248-65.907     c0.933-2.826,3.209-9.306,9.534-12.958c6.388-3.689,9.967-0.348,10.914,1.39L611.321,386.297z M575.897,399.069l12.585-6.898     l-5.9-18.953L575.897,399.069"/>
		</g>
	</g>
	<g>
		<g>
			<g>
				<path fill="#020304" d="M420.155,58.069l315.502,182.154L422.206,422.377L106.707,240.225L420.155,58.069z"/>
			</g>
		</g>
		<g>
			<g>
				<path fill="#FFFFFF" d="M588.442,194.595l-143.217-81.109l-13.404-7.592c-8.492-3.146-20.777-4.513-35.654,2.831      L198.649,223.625c0,0-18.246,9.599-4.961,20.68l161.929,93.375c47.691,28.473,100.111,31.865,144.419,8.102      c29.109-15.612,29.104-42.246,14.589-59.45c23.93,6.517,55.54,5.921,83.062-8.861      C643.913,252.645,638.727,223.075,588.442,194.595"/>
			</g>
			<g>
				<path fill="#020304" d="M484.765,207.532l-23.712-13.612c-0.316-0.148-0.64-0.309-1.014-0.548      c-4.378-2.784-7.949-2.225-10.114-1.334l-1.958,1.086c-0.2,0.148-0.313,0.248-0.313,0.248l-0.056-0.044l-19.656,10.912      l0.028,0.081c0,0-4.645,3.65,0,6.636c0.037,0.023,0.046,0.044,0.079,0.067l24.592,14.218      c12.158,7.025,24.712,7.861,35.315,2.039C498.589,221.444,497.006,214.56,484.765,207.532"/>
			</g>
			<g>
				<path fill="#020304" d="M401.527,258.959l-27.837-16.285c-0.531-0.132-1.144-0.381-1.898-0.863      c-3.188-2.03-5.954-2.283-8.06-1.93l-26.271,14.585c-0.93,1.334-1.596,3.422,1.264,5.262c0.016,0.009,0.021,0.019,0.035,0.03      l29.626,17.452c11.561,6.812,25.083,7.049,34.696,1.775C413.515,273.262,413.174,265.773,401.527,258.959"/>
			</g>
		</g>
	</g>
	<g>
		<g>
			<path fill="#020304" d="M535.872,411.802c8.399-0.886,8.322,4.97,8.35,15.046l0.019,5.872c0,0.715-0.049,15.392-12.487,22.575     c-12.332,7.118-10.309-9.573-10.311-10.288l-0.03-10.909c-0.019-6.223-1.524-6.682-2.935-5.866l-6.297,4.511l0.053,18.807     c0.002,0.731-0.232,15.146-12.306,22.116c-11.891,6.868-12.371-7.137-12.373-7.868l-0.144-50.443     c-0.002-0.594-0.137-16.002,14.23-24.295l22.754-13.434c16.928-9.773,21.629-3.128,21.666,10.415     C546.076,393.674,545.296,402.521,535.872,411.802z M519.723,412.73c3.169-1.831,4.754-5.626,4.745-9.095     c-0.007-2.65-1.427-6.696-5.053-4.603l-9.323,5.9l0.037,13.854l6.68-4.079"/>
		</g>
	</g>
</g>
</svg>