<?xml version="1.0" encoding="UTF-8" standalone="yes"?>
<svg xmlns="http://www.w3.org/2000/svg" xmlns:xlink="http://www.w3.org/1999/xlink" width="150.66666666666666px" height="106.66666666666666px" viewBox="0 0 113 80" version="1.1">
  <g id="surface1">
    <path style=" stroke:none;fill-rule:nonzero;fill:rgb(100%,100%,100%);fill-opacity:1;" d="M 56.667969 56.761719 L 14.347656 32.285156 L 14.300781 47.542969 L 56.621094 72.023438 L 98.667969 47.542969 L 98.714844 32.285156 Z M 56.667969 56.761719 "/>
    <path style=" stroke:none;fill-rule:nonzero;fill:rgb(0.784314%,1.176471%,1.568627%);fill-opacity:1;" d="M 93.425781 37.070312 C 94.929688 36.113281 96.996094 35.25 96.882812 37.363281 C 96.855469 37.824219 96.640625 38.230469 96.363281 38.558594 C 96.066406 38.90625 95.691406 39.105469 95.277344 39.265625 C 94.5 39.558594 93.886719 40.113281 93.464844 40.828125 C 93.015625 41.597656 92.9375 42.492188 92.933594 42.800781 C 92.933594 43.230469 93.0625 44.738281 94.257812 44.007812 C 94.398438 43.921875 94.527344 43.824219 94.65625 43.710938 C 94.960938 43.425781 95.199219 43.046875 95.25 42.554688 L 94.742188 42.871094 C 94.144531 43.238281 94.15625 42.226562 94.15625 42.179688 C 94.167969 41.054688 94.707031 40.71875 94.734375 40.699219 L 96.800781 39.402344 C 96.832031 39.382812 97.429688 39.003906 97.40625 40.113281 C 97.335938 43.859375 96.382812 46.554688 93.871094 48.078125 C 91.972656 49.214844 90 48.089844 89.992188 44.617188 C 89.980469 41.132812 91.460938 38.3125 93.425781 37.070312 Z M 93.425781 37.070312 "/>
    <path style=" stroke:none;fill-rule:nonzero;fill:rgb(0.784314%,1.176471%,1.568627%);fill-opacity:1;" d="M 39.558594 48.511719 C 42.183594 50.101562 44.261719 53.492188 44.242188 57.082031 C 44.222656 60.5625 42.121094 61.566406 39.492188 59.972656 C 37.050781 58.496094 34.910156 55.175781 34.929688 51.519531 C 34.949219 47.933594 37.003906 46.964844 39.558594 48.511719 Z M 39.761719 56.035156 C 40.570312 56.433594 40.925781 55.824219 40.847656 54.859375 C 40.769531 53.882812 40.316406 52.859375 39.472656 52.441406 C 38.640625 52.027344 38.308594 52.664062 38.390625 53.644531 C 38.464844 54.605469 38.953125 55.632812 39.761719 56.035156 "/>
    <path style=" stroke:none;fill-rule:nonzero;fill:rgb(0.784314%,1.176471%,1.568627%);fill-opacity:1;" d="M 53.671875 56.683594 C 53.125 56.367188 52.554688 56.371094 52.167969 56.683594 L 50.261719 58.179688 L 48.164062 54.265625 C 47.945312 53.84375 47.476562 53.078125 46.785156 52.675781 C 46.445312 52.476562 46.136719 52.375 45.871094 52.375 C 44.832031 52.375 44.792969 53.792969 44.792969 53.957031 L 44.753906 60.753906 C 44.726562 61.265625 44.761719 63.015625 46.371094 63.960938 C 46.535156 64.058594 46.695312 64.105469 46.847656 64.105469 C 47.734375 64.105469 47.972656 62.566406 47.972656 61.660156 L 47.980469 60.558594 L 49.652344 63.316406 C 49.746094 63.507812 49.902344 63.671875 50.101562 63.789062 C 50.328125 63.921875 50.585938 63.878906 50.835938 63.675781 L 52.121094 62.789062 L 52.109375 64.667969 C 52.109375 65.894531 52.25 67.605469 53.445312 68.277344 C 53.789062 68.46875 54.09375 68.566406 54.359375 68.566406 C 55.152344 68.566406 55.4375 67.714844 55.441406 66.980469 L 55.480469 59.992188 C 55.480469 59.761719 55.4375 57.710938 53.671875 56.683594 Z M 53.671875 56.683594 "/>
    <path style=" stroke:none;fill-rule:nonzero;fill:rgb(0.784314%,1.176471%,1.568627%);fill-opacity:1;" d="M 23.269531 44.804688 C 24.664062 46.054688 24.773438 47.296875 24.765625 48.085938 C 24.757812 49.90625 23.761719 50.585938 21.324219 49.164062 L 18.027344 47.234375 C 15.957031 46.027344 15.980469 43.957031 15.984375 43.875 L 16.023438 37.242188 C 16.023438 37.164062 16.023438 35.078125 18.09375 36.285156 L 21.386719 38.214844 C 23.824219 39.636719 24.804688 41.46875 24.796875 43.289062 C 24.789062 44.078125 24.671875 45.183594 23.269531 44.804688 Z M 20.492188 45.9375 C 21.011719 46.242188 21.21875 45.941406 21.222656 45.585938 C 21.222656 45.121094 21 44.601562 20.542969 44.335938 L 19.550781 43.757812 L 19.539062 45.382812 L 20.492188 45.9375 M 20.554688 42.082031 C 21.011719 42.347656 21.242188 42.09375 21.242188 41.628906 C 21.246094 41.269531 21.046875 40.734375 20.527344 40.433594 L 19.574219 39.878906 L 19.5625 41.503906 L 20.554688 42.082031 "/>
    <path style=" stroke:none;fill-rule:nonzero;fill:rgb(0.784314%,1.176471%,1.568627%);fill-opacity:1;" d="M 29.972656 43.128906 C 32.59375 44.71875 34.570312 48.121094 34.550781 51.710938 C 34.53125 55.191406 32.53125 56.183594 29.90625 54.59375 C 27.464844 53.117188 25.152344 49.714844 25.171875 46.058594 C 25.191406 42.46875 27.421875 41.585938 29.972656 43.128906 Z M 30.003906 50.566406 C 30.832031 50.917969 31.152344 50.292969 31.019531 49.332031 C 30.882812 48.359375 30.371094 47.363281 29.503906 46.996094 C 28.648438 46.632812 28.359375 47.285156 28.496094 48.257812 C 28.628906 49.21875 29.175781 50.214844 30.003906 50.566406 "/>
    <path style=" stroke:none;fill-rule:nonzero;fill:rgb(0.784314%,1.176471%,1.568627%);fill-opacity:1;" d="M 83.941406 42.8125 C 84.367188 42.566406 84.734375 42.691406 84.96875 42.976562 L 86.820312 45.28125 L 86.816406 43.347656 C 86.816406 43.269531 86.625 41.191406 87.976562 40.40625 C 89.347656 39.613281 89.34375 41.699219 89.34375 41.777344 L 89.363281 48.566406 C 89.363281 48.660156 89.367188 50.738281 88.007812 51.527344 C 87.726562 51.6875 87.488281 51.628906 87.199219 51.296875 L 85.324219 48.902344 L 85.332031 50.964844 C 85.332031 51.058594 85.335938 53.136719 83.972656 53.925781 C 82.621094 54.707031 82.617188 52.628906 82.617188 52.535156 L 82.597656 45.753906 C 82.597656 45.671875 82.589844 43.59375 83.941406 42.8125 Z M 83.941406 42.8125 "/>
    <path style=" stroke:none;fill-rule:nonzero;fill:rgb(0.784314%,1.176471%,1.568627%);fill-opacity:1;" d="M 63.371094 54.871094 C 63.480469 54.804688 64.734375 54.097656 64.738281 55.757812 C 64.746094 57.460938 63.441406 58.214844 63.382812 58.25 L 61.074219 59.585938 L 61.078125 60.550781 L 63.46875 59.167969 C 63.886719 58.925781 64.367188 58.910156 64.367188 59.761719 C 64.371094 60.679688 63.894531 61.195312 63.472656 61.4375 L 61.082031 62.820312 L 61.085938 63.773438 L 63.394531 62.4375 C 63.503906 62.375 64.757812 61.664062 64.761719 63.324219 C 64.765625 65.03125 63.464844 65.785156 63.402344 65.820312 L 59.578125 68.035156 C 57.726562 69.105469 57.730469 67.019531 57.730469 66.925781 L 57.714844 60.304688 C 57.714844 60.222656 57.695312 58.152344 59.640625 57.027344 Z M 63.371094 54.871094 "/>
    <path style=" stroke:none;fill-rule:nonzero;fill:rgb(0.784314%,1.176471%,1.568627%);fill-opacity:1;" d="M 82.039062 51.914062 C 82.222656 52.273438 82.300781 52.648438 82.304688 53.019531 C 82.308594 54.179688 81.53125 55.289062 80.777344 55.726562 C 80.304688 55.996094 79.871094 55.84375 79.640625 55.378906 L 79.375 54.695312 L 76.59375 56.304688 L 76.234375 57.589844 C 76.003906 58.320312 75.574219 58.972656 75.101562 59.246094 C 74.417969 59.644531 73.425781 59.421875 73.421875 58.230469 C 73.421875 57.875 73.484375 57.503906 73.65625 56.972656 L 76.503906 48.113281 C 76.628906 47.734375 76.9375 46.863281 77.785156 46.371094 C 78.640625 45.875 79.121094 46.324219 79.25 46.558594 Z M 77.285156 53.632812 L 78.972656 52.703125 L 78.183594 50.15625 L 77.285156 53.632812 "/>
    <path style=" stroke:none;fill-rule:nonzero;fill:rgb(0.784314%,1.176471%,1.568627%);fill-opacity:1;" d="M 56.394531 7.804688 L 98.714844 32.285156 L 56.667969 56.761719 L 14.347656 32.285156 Z M 56.394531 7.804688 "/>
    <path style=" stroke:none;fill-rule:nonzero;fill:rgb(100%,100%,100%);fill-opacity:1;" d="M 78.96875 26.152344 L 59.757812 15.25 L 57.957031 14.230469 C 56.820312 13.808594 55.171875 13.625 53.175781 14.613281 L 26.679688 30.054688 C 26.679688 30.054688 24.234375 31.34375 26.015625 32.832031 L 47.738281 45.382812 C 54.132812 49.207031 61.164062 49.664062 67.109375 46.46875 C 71.015625 44.371094 71.011719 40.792969 69.066406 38.480469 C 72.277344 39.355469 76.515625 39.277344 80.207031 37.289062 C 86.410156 33.953125 85.714844 29.980469 78.96875 26.152344 "/>
    <path style=" stroke:none;fill-rule:nonzero;fill:rgb(0.784314%,1.176471%,1.568627%);fill-opacity:1;" d="M 65.0625 27.890625 L 61.878906 26.0625 C 61.835938 26.042969 61.792969 26.019531 61.742188 25.988281 C 61.15625 25.613281 60.679688 25.6875 60.386719 25.808594 L 60.125 25.953125 C 60.097656 25.972656 60.082031 25.988281 60.082031 25.988281 L 60.074219 25.980469 L 57.4375 27.449219 L 57.441406 27.457031 C 57.441406 27.457031 56.820312 27.949219 57.441406 28.351562 C 57.449219 28.355469 57.449219 28.355469 57.453125 28.359375 L 60.75 30.269531 C 62.382812 31.214844 64.066406 31.328125 65.488281 30.542969 C 66.914062 29.761719 66.703125 28.835938 65.0625 27.890625 "/>
    <path style=" stroke:none;fill-rule:nonzero;fill:rgb(0.784314%,1.176471%,1.568627%);fill-opacity:1;" d="M 53.894531 34.800781 L 50.160156 32.613281 C 50.089844 32.59375 50.007812 32.5625 49.90625 32.496094 C 49.480469 32.222656 49.109375 32.191406 48.824219 32.238281 L 45.300781 34.199219 C 45.175781 34.378906 45.085938 34.65625 45.472656 34.90625 C 45.472656 34.90625 45.472656 34.90625 45.476562 34.910156 L 49.449219 37.253906 C 51 38.167969 52.8125 38.203125 54.105469 37.492188 C 55.503906 36.722656 55.457031 35.71875 53.894531 34.800781 "/>
    <path style=" stroke:none;fill-rule:nonzero;fill:rgb(0.784314%,1.176471%,1.568627%);fill-opacity:1;" d="M 71.917969 55.34375 C 73.042969 55.222656 73.03125 56.011719 73.035156 57.363281 L 73.039062 58.152344 C 73.039062 58.25 73.03125 60.222656 71.363281 61.1875 C 69.710938 62.144531 69.980469 59.902344 69.980469 59.804688 L 69.976562 58.339844 C 69.972656 57.503906 69.773438 57.441406 69.582031 57.550781 L 68.738281 58.15625 L 68.746094 60.683594 C 68.746094 60.78125 68.714844 62.71875 67.09375 63.65625 C 65.5 64.578125 65.433594 62.695312 65.433594 62.597656 L 65.414062 55.820312 C 65.414062 55.738281 65.398438 53.667969 67.324219 52.554688 L 70.375 50.75 C 72.648438 49.4375 73.277344 50.328125 73.285156 52.148438 C 73.285156 52.90625 73.179688 54.09375 71.917969 55.34375 Z M 69.75 55.46875 C 70.175781 55.222656 70.386719 54.710938 70.386719 54.246094 C 70.386719 53.886719 70.195312 53.34375 69.707031 53.625 L 68.457031 54.417969 L 68.464844 56.28125 L 69.359375 55.734375 "/>
  </g>
</svg>