<?xml version="1.0" encoding="UTF-8" ?>
<!DOCTYPE svg PUBLIC "-//W3C//DTD SVG 1.1//EN" "http://www.w3.org/Graphics/SVG/1.1/DTD/svg11.dtd">
<svg width="200pt" height="200pt" viewBox="0 0 200 200" version="1.1" xmlns="http://www.w3.org/2000/svg">
<g id="#ffffffff">
<path fill="#ffffff" opacity="1.00" d=" M 149.70 75.46 C 154.71 75.44 159.90 74.85 164.77 76.32 C 170.15 78.18 171.06 86.28 166.73 89.68 C 163.74 91.90 159.82 91.59 156.31 91.87 C 156.30 93.98 156.28 96.08 156.26 98.19 C 154.08 98.20 151.90 98.20 149.73 98.19 C 149.68 90.62 149.73 83.04 149.70 75.46 M 156.43 80.61 C 156.35 82.56 156.30 84.51 156.27 86.46 C 158.37 86.07 162.59 87.00 162.77 83.87 C 163.18 80.52 158.58 81.01 156.43 80.61 Z" />
<path fill="#ffffff" opacity="1.00" d=" M 177.75 75.43 C 180.14 75.38 182.54 75.38 184.93 75.38 C 182.43 79.65 179.65 83.81 178.14 88.57 C 179.68 88.58 181.23 88.58 182.78 88.58 C 182.76 87.08 182.74 85.59 182.73 84.09 C 184.93 83.94 187.13 83.86 189.34 83.81 C 189.36 88.60 189.36 93.39 189.34 98.19 C 187.15 98.19 184.97 98.19 182.79 98.17 C 182.78 96.78 182.77 95.39 182.76 94.01 C 178.69 94.00 174.62 94.02 170.55 93.94 C 171.40 87.27 174.22 81.07 177.75 75.43 Z" />
<path fill="#ffffff" opacity="1.00" d=" M 22.83 77.94 C 22.59 76.81 23.49 75.33 24.84 75.78 C 34.57 75.76 44.31 75.78 54.04 75.77 C 57.87 75.86 62.15 76.15 65.06 78.96 C 70.16 84.57 67.47 95.93 59.11 96.43 C 47.05 97.11 34.91 96.75 22.83 96.62 C 22.87 90.39 22.82 84.16 22.83 77.94 M 36.20 79.66 C 36.21 84.17 36.08 88.68 36.34 93.18 C 39.25 93.17 42.17 93.16 45.08 93.16 C 47.93 92.59 51.96 93.04 53.46 89.95 C 54.30 86.80 54.72 81.91 51.01 80.45 C 46.21 79.03 41.12 79.80 36.20 79.66 Z" />
<path fill="#ffffff" opacity="1.00" d=" M 72.46 96.75 C 72.44 89.76 72.40 82.77 72.48 75.79 C 83.33 75.76 94.19 75.77 105.04 75.77 C 108.21 75.79 112.08 76.08 113.97 79.02 C 115.07 81.62 115.36 85.18 113.04 87.23 C 111.32 88.94 108.73 89.07 106.49 89.60 C 109.97 91.83 113.36 94.21 116.65 96.72 C 111.19 96.72 105.72 96.95 100.26 96.65 C 97.79 95.23 95.94 92.94 93.48 91.49 C 90.88 91.15 88.23 91.37 85.62 91.35 C 85.59 93.15 85.58 94.94 85.56 96.74 C 81.19 96.79 76.83 96.78 72.46 96.75 M 85.61 79.67 C 85.60 82.29 85.60 84.92 85.62 87.54 C 90.18 87.45 94.78 87.89 99.30 87.25 C 102.28 86.41 101.71 83.04 101.33 80.72 C 96.30 78.84 90.85 79.91 85.61 79.67 Z" />
</g>
<g id="#000000ff">
<path fill="#000000" opacity="1.00" d=" M 0.00 65.96 C 46.18 65.96 92.36 65.96 138.55 65.96 C 138.55 79.80 138.51 93.65 138.57 107.50 C 92.38 107.51 46.19 107.50 0.00 107.50 L 0.00 65.96 M 22.83 77.94 C 22.82 84.16 22.87 90.39 22.83 96.62 C 34.91 96.75 47.05 97.11 59.11 96.43 C 67.47 95.93 70.16 84.57 65.06 78.96 C 62.15 76.15 57.87 75.86 54.04 75.77 C 44.31 75.78 34.57 75.76 24.84 75.78 C 23.49 75.33 22.59 76.81 22.83 77.94 M 72.46 96.75 C 76.83 96.78 81.19 96.79 85.56 96.74 C 85.58 94.94 85.59 93.15 85.62 91.35 C 88.23 91.37 90.88 91.15 93.48 91.49 C 95.94 92.94 97.79 95.23 100.26 96.65 C 105.72 96.95 111.19 96.72 116.65 96.72 C 113.36 94.21 109.97 91.83 106.49 89.60 C 108.73 89.07 111.32 88.94 113.04 87.23 C 115.36 85.18 115.07 81.62 113.97 79.02 C 112.08 76.08 108.21 75.79 105.04 75.77 C 94.19 75.77 83.33 75.76 72.48 75.79 C 72.40 82.77 72.44 89.76 72.46 96.75 Z" />
<path fill="#000000" opacity="1.00" d=" M 36.20 79.66 C 41.12 79.80 46.21 79.03 51.01 80.45 C 54.72 81.91 54.30 86.80 53.46 89.95 C 51.96 93.04 47.93 92.59 45.08 93.16 C 42.17 93.16 39.25 93.17 36.34 93.18 C 36.08 88.68 36.21 84.17 36.20 79.66 Z" />
<path fill="#000000" opacity="1.00" d=" M 85.61 79.67 C 90.85 79.91 96.30 78.84 101.33 80.72 C 101.71 83.04 102.28 86.41 99.30 87.25 C 94.78 87.89 90.18 87.45 85.62 87.54 C 85.60 84.92 85.60 82.29 85.61 79.67 Z" />
<path fill="#000000" opacity="1.00" d=" M 23.79 149.35 C 28.60 149.49 33.70 148.53 38.24 150.61 C 39.35 153.39 39.51 156.39 37.86 159.00 C 40.51 162.36 39.62 167.99 35.23 169.33 C 31.43 169.29 27.62 169.35 23.81 169.33 C 23.80 162.67 23.84 156.01 23.79 149.35 M 27.34 152.41 C 27.34 154.12 27.33 155.83 27.34 157.54 C 29.99 157.15 33.45 158.47 35.44 156.16 C 36.63 151.19 30.25 152.64 27.34 152.41 M 27.34 160.63 C 27.33 162.48 27.33 164.33 27.34 166.18 C 30.06 166.19 32.78 166.11 35.47 165.68 C 35.53 164.37 35.66 163.05 35.54 161.74 C 33.28 159.84 30.03 160.97 27.34 160.63 Z" />
<path fill="#000000" opacity="1.00" d=" M 44.76 150.75 C 47.82 148.61 51.97 148.97 55.42 149.76 C 59.48 151.33 59.28 156.42 59.28 160.01 C 59.16 163.13 59.05 167.47 55.59 168.77 C 50.99 170.51 43.89 169.90 42.71 164.11 C 43.08 159.68 41.44 154.39 44.76 150.75 M 46.72 154.49 C 46.08 158.29 45.62 162.65 47.81 166.06 C 50.27 166.11 54.22 167.12 55.18 163.98 C 55.83 160.23 56.09 156.07 54.17 152.63 C 51.64 152.53 47.95 151.43 46.72 154.49 Z" />
<path fill="#000000" opacity="1.00" d=" M 62.79 149.39 C 66.68 149.37 70.63 148.98 74.48 149.70 C 78.85 150.35 79.18 156.51 76.76 159.31 C 78.99 162.17 78.02 166.00 78.24 169.34 C 77.36 169.33 75.60 169.32 74.72 169.32 C 74.68 166.75 74.94 164.14 74.42 161.61 C 71.81 161.05 69.13 161.30 66.48 161.26 C 66.48 163.96 66.48 166.65 66.48 169.35 C 65.56 169.34 63.72 169.30 62.80 169.29 C 62.80 162.66 62.81 156.02 62.79 149.39 M 66.49 152.40 C 66.48 154.27 66.48 156.15 66.48 158.03 C 69.08 158.01 71.68 157.97 74.27 157.78 C 74.58 156.10 74.63 154.38 74.34 152.69 C 71.73 152.51 69.11 152.43 66.49 152.40 Z" />
<path fill="#000000" opacity="1.00" d=" M 82.20 149.31 C 83.41 149.31 84.61 149.30 85.81 149.30 C 88.59 153.70 90.76 158.50 94.00 162.60 C 94.32 158.17 94.11 153.73 94.17 149.30 C 95.26 149.31 96.36 149.31 97.46 149.32 C 97.45 155.99 97.46 162.66 97.46 169.32 C 96.56 169.33 94.76 169.34 93.86 169.35 C 91.04 164.58 88.32 159.76 85.55 154.97 C 85.50 159.76 85.53 164.54 85.52 169.34 C 84.69 169.33 83.03 169.33 82.20 169.33 C 82.21 162.66 82.20 155.99 82.20 149.31 Z" />
<path fill="#000000" opacity="1.00" d=" M 101.62 149.29 C 102.84 149.31 104.05 149.34 105.26 149.38 C 105.25 152.08 105.25 154.79 105.25 157.50 C 107.95 157.50 110.65 157.50 113.35 157.50 C 113.35 154.77 113.35 152.04 113.35 149.31 C 114.49 149.31 115.64 149.31 116.78 149.31 C 116.79 155.98 116.79 162.66 116.78 169.34 C 115.64 169.33 114.49 169.33 113.35 169.34 C 113.35 166.45 113.35 163.56 113.35 160.68 C 110.65 160.68 107.95 160.68 105.26 160.68 C 105.25 163.55 105.25 166.43 105.25 169.30 C 104.04 169.32 102.83 169.33 101.62 169.34 C 101.62 162.66 101.62 155.97 101.62 149.29 Z" />
<path fill="#000000" opacity="1.00" d=" M 122.75 150.75 C 125.81 148.61 129.96 148.97 133.42 149.76 C 137.48 151.33 137.27 156.43 137.28 160.03 C 137.14 163.02 137.09 167.16 133.92 168.60 C 129.32 170.59 121.92 170.01 120.71 164.10 C 121.07 159.67 119.47 154.41 122.75 150.75 M 124.70 154.54 C 124.08 158.33 123.64 162.65 125.80 166.06 C 128.27 166.10 132.15 167.14 133.19 164.00 C 133.85 160.23 134.09 156.08 132.17 152.63 C 129.63 152.52 125.88 151.42 124.70 154.54 Z" />
<path fill="#000000" opacity="1.00" d=" M 157.24 149.30 C 158.78 149.31 160.31 149.31 161.85 149.32 C 163.60 154.59 165.50 159.80 167.18 165.09 C 169.23 159.91 170.84 154.56 172.66 149.29 C 174.22 149.29 175.79 149.29 177.36 149.30 C 177.35 155.98 177.36 162.66 177.36 169.33 C 176.53 169.33 174.87 169.33 174.04 169.33 C 174.03 164.16 174.24 158.97 173.50 153.84 C 172.61 159.14 170.47 164.10 169.01 169.25 C 168.14 169.29 166.42 169.37 165.56 169.41 C 163.80 164.25 161.94 159.12 160.69 153.81 C 160.20 158.97 160.45 164.16 160.40 169.33 C 159.61 169.33 158.03 169.33 157.24 169.33 C 157.24 162.66 157.24 155.98 157.24 149.30 Z" />
<path fill="#000000" opacity="1.00" d=" M 140.79 149.41 C 141.71 149.38 143.57 149.30 144.49 149.27 C 144.51 154.89 144.50 160.52 144.50 166.14 C 147.82 166.14 151.13 166.14 154.45 166.15 C 154.44 167.21 154.44 168.27 154.43 169.33 C 149.89 169.33 145.34 169.35 140.80 169.30 C 140.80 162.67 140.81 156.04 140.79 149.41 Z" />
</g>
<g id="#ffa000ff">
<path fill="#ffa000" opacity="1.00" d=" M 138.55 65.96 C 159.03 65.96 179.51 65.96 200.00 65.96 L 200.00 107.50 C 179.52 107.50 159.05 107.51 138.57 107.50 C 138.51 93.65 138.55 79.80 138.55 65.96 M 149.70 75.46 C 149.73 83.04 149.68 90.62 149.73 98.19 C 151.90 98.20 154.08 98.20 156.26 98.19 C 156.28 96.08 156.30 93.98 156.31 91.87 C 159.82 91.59 163.74 91.90 166.73 89.68 C 171.06 86.28 170.15 78.18 164.77 76.32 C 159.90 74.85 154.71 75.44 149.70 75.46 M 177.75 75.43 C 174.22 81.07 171.40 87.27 170.55 93.94 C 174.62 94.02 178.69 94.00 182.76 94.01 C 182.77 95.39 182.78 96.78 182.79 98.17 C 184.97 98.19 187.15 98.19 189.34 98.19 C 189.36 93.39 189.36 88.60 189.34 83.81 C 187.13 83.86 184.93 83.94 182.73 84.09 C 182.74 85.59 182.76 87.08 182.78 88.58 C 181.23 88.58 179.68 88.58 178.14 88.57 C 179.65 83.81 182.43 79.65 184.93 75.38 C 182.54 75.38 180.14 75.38 177.75 75.43 Z" />
<path fill="#ffa000" opacity="1.00" d=" M 156.43 80.61 C 158.58 81.01 163.18 80.52 162.77 83.87 C 162.59 87.00 158.37 86.07 156.27 86.46 C 156.30 84.51 156.35 82.56 156.43 80.61 Z" />
</g>
</svg>
