<?xml version="1.0" encoding="UTF-8" standalone="yes"?>
<svg xmlns="http://www.w3.org/2000/svg" xmlns:xlink="http://www.w3.org/1999/xlink" width="253.33333333333331px" height="106.66666666666666px" viewBox="0 0 190 80" version="1.1">
  <g id="surface1">
    <path style=" stroke:none;fill-rule:nonzero;fill:rgb(0%,10.196078%,29.411765%);fill-opacity:1;" d="M 96.746094 58.921875 L 96.746094 71.789062 L 98.046875 71.789062 L 98.046875 58.921875 Z M 105.515625 58.921875 L 105.515625 63.003906 C 104.917969 62.953125 104.425781 62.9375 103.917969 62.9375 C 101.195312 62.9375 99.417969 64.675781 99.417969 67.796875 C 99.417969 70.355469 100.480469 71.949219 102.636719 71.949219 C 104.042969 71.949219 105.160156 71.113281 105.652344 69.863281 L 105.675781 69.886719 C 105.570312 70.414062 105.515625 71.257812 105.515625 71.789062 L 106.816406 71.789062 L 106.816406 58.921875 Z M 142.511719 58.921875 L 142.511719 71.789062 L 143.8125 71.789062 L 143.8125 67.203125 L 147.261719 71.789062 L 148.972656 71.789062 L 145.230469 67.019531 L 148.699219 63.027344 L 147.101562 63.027344 L 143.8125 66.972656 L 143.8125 58.921875 Z M 174.960938 58.921875 L 174.960938 71.789062 L 176.261719 71.789062 L 176.261719 58.921875 Z M 93.707031 59.65625 C 93.289062 59.738281 92.976562 60.117188 92.976562 60.550781 C 92.976562 61.0625 93.378906 61.445312 93.890625 61.445312 C 94.382812 61.445312 94.804688 61.0625 94.804688 60.550781 C 94.804688 60.054688 94.382812 59.65625 93.890625 59.65625 C 93.828125 59.65625 93.765625 59.644531 93.707031 59.65625 Z M 44.828125 59.816406 C 43.460938 59.816406 42.359375 59.832031 41.425781 59.886719 L 41.425781 71.789062 L 43.710938 71.789062 L 43.710938 66.882812 L 43.78125 66.882812 L 47.089844 71.789062 L 49.921875 71.789062 L 47.066406 67.796875 C 46.769531 67.394531 46.441406 66.933594 46.109375 66.492188 C 47.898438 66.207031 49.125 64.929688 49.125 63.164062 C 49.125 60.730469 47.445312 59.816406 44.828125 59.816406 Z M 55.335938 59.816406 C 53.878906 59.816406 52.429688 59.871094 51.496094 59.910156 L 51.496094 71.765625 C 52.5 71.800781 53.582031 71.859375 54.808594 71.859375 C 58.671875 71.859375 61.339844 69.734375 61.339844 65.640625 C 61.339844 61.460938 59.003906 59.816406 55.335938 59.816406 Z M 87.578125 59.839844 C 86.15625 59.839844 85.074219 59.867188 84.269531 59.886719 L 84.269531 71.789062 C 85.285156 71.808594 86.402344 71.859375 87.121094 71.859375 C 90.863281 71.859375 91.644531 69.566406 91.644531 68.28125 C 91.644531 67.011719 90.886719 65.792969 89.132812 65.527344 L 89.132812 65.480469 C 90.46875 65.09375 91.371094 63.964844 91.371094 62.660156 C 91.371094 60.933594 90.160156 59.839844 87.578125 59.839844 Z M 33.34375 59.886719 L 29.1875 71.789062 L 31.492188 71.789062 L 32.316406 69.359375 L 36.792969 69.359375 L 37.636719 71.789062 L 40.148438 71.789062 L 35.921875 59.886719 Z M 87.328125 60.941406 C 89.417969 60.941406 89.953125 61.761719 89.953125 62.890625 C 89.953125 64.300781 88.863281 65.136719 86.757812 65.136719 C 86.300781 65.136719 85.984375 65.132812 85.617188 65.113281 L 85.617188 60.964844 C 86.125 60.945312 86.75 60.941406 87.328125 60.941406 Z M 44.59375 61.695312 C 46.035156 61.695312 46.742188 62.246094 46.742188 63.394531 C 46.742188 64.503906 45.894531 65.207031 44.527344 65.207031 C 44.175781 65.207031 43.863281 65.199219 43.703125 65.183594 L 43.703125 61.742188 C 43.933594 61.707031 44.261719 61.695312 44.59375 61.695312 Z M 55.167969 61.742188 C 57.871094 61.742188 58.867188 63.269531 58.867188 65.824219 C 58.867188 68.644531 57.261719 69.90625 55.03125 69.90625 C 54.574219 69.90625 54.089844 69.867188 53.777344 69.816406 L 53.777344 61.789062 C 54.144531 61.753906 54.640625 61.742188 55.167969 61.742188 Z M 34.523438 62.523438 L 34.546875 62.523438 C 34.6875 63.191406 34.867188 63.773438 35.09375 64.425781 L 36.191406 67.546875 L 32.902344 67.546875 L 33.976562 64.515625 C 34.203125 63.828125 34.382812 63.140625 34.523438 62.523438 Z M 122.421875 62.84375 C 120.894531 62.84375 119.808594 63.707031 119.316406 64.976562 L 119.269531 64.976562 C 119.359375 64.449219 119.40625 63.59375 119.40625 63.027344 L 118.105469 63.027344 L 118.105469 71.789062 L 119.429688 71.789062 L 119.429688 67.570312 C 119.429688 65.488281 120.539062 63.945312 122.101562 63.945312 C 123.367188 63.945312 123.722656 64.75 123.722656 66.125 L 123.722656 71.789062 L 125.046875 71.789062 L 125.046875 65.664062 C 125.046875 64.113281 124.421875 62.84375 122.421875 62.84375 Z M 162.042969 62.84375 C 160.515625 62.84375 159.40625 63.707031 158.914062 64.976562 L 158.867188 64.976562 C 158.957031 64.449219 159.027344 63.59375 159.027344 63.027344 L 157.726562 63.027344 L 157.726562 71.789062 L 159.027344 71.789062 L 159.027344 67.570312 C 159.027344 65.488281 160.136719 63.945312 161.699219 63.945312 C 162.964844 63.945312 163.34375 64.75 163.34375 66.125 L 163.34375 71.789062 L 164.644531 71.789062 L 164.644531 65.664062 C 164.644531 64.113281 164.042969 62.84375 162.042969 62.84375 Z M 130.460938 62.867188 C 128.089844 62.867188 126.667969 64.425781 126.667969 66.261719 C 126.667969 67.390625 127.09375 68.296875 127.96875 68.808594 C 127.355469 69.089844 127.011719 69.628906 127.011719 70.230469 C 127.011719 70.792969 127.335938 71.246094 127.878906 71.492188 C 127.054688 71.914062 126.371094 72.738281 126.371094 73.832031 C 126.371094 75.503906 127.789062 76.398438 130.003906 76.398438 C 132.691406 76.398438 134.59375 75.015625 134.59375 73.164062 C 134.59375 71.632812 133.566406 70.710938 131.671875 70.710938 L 129.957031 70.710938 C 128.867188 70.710938 128.382812 70.464844 128.382812 69.953125 C 128.382812 69.636719 128.582031 69.332031 129.019531 69.175781 C 129.335938 69.246094 129.828125 69.289062 130.230469 69.289062 C 132.742188 69.289062 134.023438 67.855469 134.023438 65.988281 C 134.023438 65.15625 133.6875 64.464844 133.175781 64.058594 L 134.753906 64.058594 L 134.753906 63.027344 L 131.785156 63.027344 C 131.328125 62.921875 130.953125 62.867188 130.460938 62.867188 Z M 138.75 62.867188 C 136.539062 62.867188 135.324219 63.972656 135.324219 65.4375 C 135.324219 68.558594 139.59375 67.242188 139.59375 69.359375 C 139.59375 70.273438 138.710938 70.847656 137.449219 70.847656 C 136.761719 70.847656 136.046875 70.710938 135.484375 70.550781 L 135.460938 71.765625 C 135.988281 71.871094 136.660156 71.949219 137.3125 71.949219 C 139.59375 71.949219 140.941406 70.726562 140.941406 69.175781 C 140.941406 66.195312 136.695312 67.398438 136.695312 65.296875 C 136.695312 64.433594 137.308594 63.921875 138.589844 63.921875 C 139.1875 63.921875 139.835938 64.027344 140.417969 64.21875 L 140.441406 63.074219 C 139.894531 62.96875 139.292969 62.867188 138.75 62.867188 Z M 152.429688 62.867188 C 151.253906 62.867188 150.238281 63.160156 149.414062 63.53125 L 149.527344 64.679688 C 150.300781 64.183594 151.359375 63.921875 152.199219 63.921875 C 153.710938 63.921875 154.1875 64.664062 154.1875 65.988281 L 154.1875 66.71875 C 150.78125 66.71875 148.890625 67.984375 148.890625 69.816406 C 148.890625 71.210938 149.878906 71.949219 151.265625 71.949219 C 152.757812 71.949219 153.878906 71.066406 154.300781 69.953125 L 154.347656 69.953125 C 154.257812 70.464844 154.253906 71.117188 154.253906 71.789062 L 155.558594 71.789062 C 155.523438 71.011719 155.511719 70.039062 155.511719 69.175781 L 155.511719 65.734375 C 155.511719 64.078125 154.835938 62.867188 152.429688 62.867188 Z M 169.648438 62.867188 C 168.472656 62.867188 167.457031 63.160156 166.632812 63.53125 L 166.746094 64.679688 C 167.519531 64.183594 168.578125 63.921875 169.417969 63.921875 C 170.929688 63.921875 171.40625 64.664062 171.40625 65.988281 L 171.40625 66.71875 C 168 66.71875 166.109375 67.984375 166.109375 69.816406 C 166.109375 71.210938 167.117188 71.949219 168.503906 71.949219 C 169.996094 71.949219 171.121094 71.066406 171.542969 69.953125 L 171.566406 69.953125 C 171.476562 70.464844 171.472656 71.117188 171.472656 71.789062 L 172.777344 71.789062 C 172.742188 71.011719 172.753906 70.039062 172.753906 69.175781 L 172.753906 65.734375 C 172.753906 64.078125 172.050781 62.867188 169.648438 62.867188 Z M 93.195312 63.027344 L 93.195312 71.789062 L 94.519531 71.789062 L 94.519531 63.027344 Z M 108.996094 63.027344 L 108.996094 69.152344 C 108.996094 70.703125 109.621094 71.972656 111.625 71.972656 C 113.152344 71.972656 114.261719 71.109375 114.753906 69.839844 L 114.773438 69.863281 C 114.6875 70.390625 114.636719 71.226562 114.636719 71.789062 L 115.9375 71.789062 L 115.9375 63.027344 L 114.613281 63.027344 L 114.613281 67.246094 C 114.613281 69.328125 113.527344 70.871094 111.964844 70.871094 C 110.703125 70.871094 110.320312 70.089844 110.320312 68.714844 L 110.320312 63.027344 Z M 130.394531 63.898438 C 131.835938 63.898438 132.703125 64.714844 132.703125 66.125 C 132.703125 67.535156 131.765625 68.304688 130.328125 68.304688 C 128.851562 68.304688 127.996094 67.550781 127.996094 66.125 C 127.996094 64.835938 128.882812 63.898438 130.394531 63.898438 Z M 103.789062 63.96875 C 104.351562 63.96875 104.90625 64.035156 105.503906 64.175781 L 105.503906 67.269531 C 105.503906 68.824219 104.636719 70.871094 102.898438 70.871094 C 101.460938 70.871094 100.800781 69.683594 100.800781 67.707031 C 100.800781 65.0625 102 63.96875 103.789062 63.96875 Z M 86.753906 66.148438 C 88.703125 66.148438 90.25 66.652344 90.25 68.324219 C 90.25 69.71875 89.324219 70.757812 87.234375 70.757812 C 86.460938 70.757812 85.929688 70.695312 85.613281 70.640625 L 85.613281 66.171875 C 85.894531 66.152344 86.542969 66.148438 86.753906 66.148438 Z M 154.191406 67.683594 L 154.191406 67.820312 C 154.191406 69.339844 153.179688 70.871094 151.632812 70.871094 C 150.773438 70.871094 150.195312 70.359375 150.195312 69.566406 C 150.195312 68.71875 150.90625 67.683594 154.191406 67.683594 Z M 171.410156 67.683594 L 171.410156 67.820312 C 171.410156 69.339844 170.398438 70.871094 168.851562 70.871094 C 167.992188 70.871094 167.4375 70.359375 167.4375 69.566406 C 167.4375 68.71875 168.125 67.683594 171.410156 67.683594 Z M 128.933594 71.835938 C 129.089844 71.851562 129.328125 71.859375 129.503906 71.859375 L 131.285156 71.859375 C 132.621094 71.859375 133.273438 72.414062 133.273438 73.347656 C 133.273438 74.511719 132.148438 75.320312 130.234375 75.320312 C 128.777344 75.320312 127.699219 74.730469 127.699219 73.601562 C 127.699219 72.859375 128.179688 72.222656 128.933594 71.835938 Z M 128.933594 71.835938 "/>
    <path style=" stroke:none;fill-rule:evenodd;fill:rgb(85.882353%,31.372549%,16.862745%);fill-opacity:1;" d="M 175.800781 3.667969 C 169.832031 3.667969 165 8.535156 165 14.519531 C 165 20.535156 169.832031 25.414062 175.800781 25.414062 C 181.769531 25.414062 186.601562 20.535156 186.601562 14.519531 C 186.609375 8.539062 181.773438 3.667969 175.800781 3.667969 Z M 175.800781 5.273438 C 180.867188 5.273438 185.027344 9.414062 185.027344 14.519531 C 185.027344 19.65625 180.867188 23.832031 175.800781 23.832031 C 170.734375 23.832031 166.574219 19.65625 166.574219 14.519531 C 166.574219 9.414062 170.734375 5.273438 175.800781 5.273438 Z M 53.171875 7.957031 C 52.761719 7.957031 52.441406 8.292969 52.441406 8.691406 L 52.441406 54.792969 C 52.441406 55.191406 52.761719 55.527344 53.171875 55.527344 L 59.65625 55.527344 C 60.066406 55.527344 60.386719 55.191406 60.386719 54.792969 L 60.386719 8.691406 C 60.386719 8.292969 60.066406 7.957031 59.65625 7.957031 Z M 102.613281 7.980469 C 102.203125 7.980469 101.882812 8.316406 101.882812 8.714844 L 101.882812 54.792969 C 101.882812 55.203125 102.203125 55.527344 102.613281 55.527344 L 109.121094 55.527344 C 109.53125 55.527344 109.851562 55.203125 109.851562 54.792969 L 109.851562 40.550781 C 109.851562 35.105469 113.027344 30.480469 117.070312 30.480469 C 119.992188 30.480469 120.859375 32.414062 120.859375 35.664062 L 120.835938 54.792969 C 120.835938 55.203125 121.171875 55.527344 121.566406 55.527344 L 128.03125 55.527344 C 128.425781 55.527344 128.761719 55.203125 128.761719 54.792969 L 128.761719 33.738281 C 128.761719 28.304688 126.523438 23.804688 119.558594 23.804688 C 114.773438 23.804688 111.222656 26.117188 109.417969 29.609375 L 109.273438 29.542969 C 109.710938 27.726562 109.84375 25.113281 109.84375 23.234375 L 109.84375 8.714844 C 109.84375 8.316406 109.519531 7.980469 109.113281 7.980469 L 102.605469 7.980469 Z M 180.191406 8.050781 L 169.273438 11.996094 L 169.273438 14.703125 L 172.882812 13.394531 L 172.882812 21.558594 L 180.191406 18.945312 Z M 22.453125 22.683594 C 16.472656 22.683594 10.730469 28.613281 7.679688 33.554688 C 6.261719 36.0625 4.363281 40.046875 3.820312 43.992188 C 3.273438 47.921875 3.914062 52.191406 7.839844 54.425781 C 13.78125 57.824219 20.117188 54.875 24.554688 51.46875 C 24.953125 51.183594 25.351562 50.824219 25.8125 50.433594 C 26.949219 49.460938 27.914062 48.5 28.667969 47.683594 C 28.6875 47.652344 28.738281 47.601562 28.757812 47.570312 C 29.683594 46.59375 30.652344 45.527344 31.613281 44.425781 L 31.726562 44.65625 C 34.953125 50.445312 39.203125 56.019531 45.679688 55.527344 C 46.460938 55.390625 46.445312 54.714844 46.457031 53.875 C 46.46875 52.238281 46.410156 48.554688 46.410156 48.554688 C 46.433594 47.96875 45.984375 47.664062 45.222656 47.589844 C 44.867188 47.558594 44.183594 47.550781 43.808594 47.363281 C 42.085938 46.511719 41.265625 44.945312 39.855469 42.660156 C 38.925781 41.148438 38.0625 39.507812 37.160156 37.796875 C 38.992188 35.542969 46.160156 26.445312 46.160156 26.445312 C 48.175781 23.675781 47.058594 23.484375 45.222656 23.484375 L 39.398438 23.460938 C 38.554688 23.503906 37.988281 23.808594 37.777344 24.082031 C 37.285156 24.699219 36.488281 25.761719 35.65625 26.832031 C 34.757812 28.007812 33.898438 29.160156 33.027344 30.273438 C 30.46875 26.101562 27.492188 22.683594 22.453125 22.683594 Z M 152.371094 23.003906 C 146.378906 23.003906 140.671875 28.933594 137.617188 33.875 C 136.1875 36.382812 134.292969 40.378906 133.757812 44.335938 C 133.214844 48.265625 133.851562 52.511719 137.777344 54.746094 C 145.988281 59.4375 154.941406 52.042969 158.605469 48.003906 C 158.867188 47.722656 158.992188 47.035156 158.695312 46.582031 L 155.25 42.132812 C 154.621094 41.386719 153.949219 41.304688 153.101562 42.132812 C 150.917969 44.273438 149.75 46.046875 146.25 47.570312 C 143.679688 48.679688 142.242188 48.097656 141.730469 47.246094 C 140.390625 45.066406 144.113281 38.984375 144.5625 38.1875 C 147.421875 33.582031 150.429688 31.378906 152.347656 31.285156 C 152.746094 31.261719 153.476562 31.488281 154.199219 32.222656 C 154.90625 32.9375 155.652344 34.011719 156.457031 35.34375 C 158.089844 38.070312 159.785156 41.621094 161.664062 45 C 164.882812 50.789062 168.996094 56.042969 175.480469 55.550781 C 176.253906 55.425781 176.234375 54.761719 176.234375 53.921875 C 176.246094 52.273438 176.1875 48.578125 176.1875 48.578125 C 176.222656 48 175.777344 47.699219 175.023438 47.636719 C 174.667969 47.605469 173.984375 47.585938 173.609375 47.40625 C 171.875 46.558594 171.273438 45.28125 169.863281 43.003906 C 168.367188 40.570312 167.179688 37.644531 165.59375 34.792969 C 162.316406 28.875 159.097656 23.003906 152.371094 23.003906 Z M 84.957031 23.507812 C 80.289062 23.507812 77 25.683594 75.253906 29.3125 L 75.117188 29.3125 C 75.292969 28.117188 75.390625 26.671875 75.414062 25.414062 C 75.421875 25.378906 75.414062 24.722656 75.414062 24.722656 C 75.414062 24.316406 75.101562 23.992188 74.703125 23.992188 L 68.765625 23.992188 C 68.359375 23.992188 68.035156 24.316406 68.035156 24.722656 L 68.035156 71.214844 C 68.035156 71.625 68.359375 71.949219 68.765625 71.949219 L 75.253906 71.949219 C 75.660156 71.949219 76.007812 71.625 76.007812 71.214844 L 76.007812 55.367188 C 77.320312 55.554688 78.484375 55.617188 79.980469 55.617188 C 90.675781 55.617188 96.285156 48.808594 96.285156 38.003906 C 96.285156 28.816406 92.300781 23.507812 84.957031 23.507812 Z M 82.652344 30.070312 C 86.253906 30.070312 87.949219 33.066406 87.949219 38.875 C 87.949219 46.566406 84.644531 49.425781 80.164062 49.425781 C 78.554688 49.425781 77.257812 49.253906 76.007812 48.875 L 76.007812 40.25 C 76.007812 34.945312 78.484375 30.070312 82.652344 30.070312 Z M 22.414062 30.960938 C 22.796875 30.941406 23.539062 31.167969 24.261719 31.902344 C 24.972656 32.617188 25.785156 33.679688 26.589844 35.023438 C 26.96875 35.652344 27.367188 36.328125 27.757812 37.039062 C 26.292969 38.8125 24.875 40.445312 23.464844 41.925781 C 21.3125 44.035156 19.785156 45.734375 16.316406 47.246094 C 13.746094 48.359375 12.328125 47.765625 11.816406 46.925781 C 10.488281 44.742188 14.199219 38.640625 14.648438 37.84375 C 17.511719 33.238281 20.5 31.054688 22.414062 30.960938 Z M 22.414062 30.960938 "/>
  </g>
</svg>