<?xml version="1.0" encoding="UTF-8" standalone="yes"?>
<svg xmlns="http://www.w3.org/2000/svg" xmlns:xlink="http://www.w3.org/1999/xlink" width="112px" height="106.66666666666666px" viewBox="0 0 84 80" version="1.1">
  <g id="surface1">
    <path style=" stroke:none;fill-rule:nonzero;fill:rgb(0%,0%,0%);fill-opacity:1;" d="M 0 0 L 28.691406 0 C 30.410156 1.75 32.066406 3.5625 33.765625 5.332031 C 35.347656 7.046875 36.992188 8.707031 38.558594 10.4375 C 41.839844 6.949219 45.128906 3.472656 48.429688 0 L 77.296875 0 C 77.296875 7.167969 77.292969 14.332031 77.296875 21.5 C 77.28125 21.804688 77.355469 22.128906 77.226562 22.417969 C 75.03125 26.019531 73.105469 29.800781 71.59375 33.746094 C 71.328125 34.4375 71.121094 35.164062 70.710938 35.789062 C 70.484375 36.121094 70.054688 36.316406 69.660156 36.1875 C 69.167969 36.085938 69.007812 35.527344 68.949219 35.09375 C 68.820312 33.84375 68.664062 32.597656 68.511719 31.351562 C 68.285156 29.574219 68.148438 27.765625 67.632812 26.039062 C 67.34375 25.085938 66.699219 24.128906 65.6875 23.867188 C 64.140625 23.503906 62.226562 24.066406 61.488281 25.574219 C 60.964844 26.578125 60.953125 27.757812 61.167969 28.847656 C 61.769531 31.96875 62.988281 34.914062 64.09375 37.878906 C 65.125 40.585938 66.144531 43.296875 67.179688 46.003906 C 67.558594 46.945312 68.226562 47.894531 69.265625 48.144531 C 70.285156 48.40625 71.449219 48.425781 72.386719 47.894531 C 73.492188 47.113281 73.808594 45.695312 74.203125 44.476562 C 75.089844 41.429688 76.046875 38.398438 77.136719 35.414062 C 77.179688 35.378906 77.265625 35.304688 77.3125 35.269531 C 77.285156 40.910156 77.292969 46.550781 77.304688 52.191406 C 71.273438 52.207031 65.238281 52.21875 59.203125 52.183594 C 59.058594 50.546875 58.898438 48.90625 58.878906 47.257812 C 58.960938 44.726562 59.023438 42.191406 59.023438 39.65625 C 59.085938 36.125 58.53125 32.625 58.441406 29.097656 C 58.363281 27.324219 58.597656 25.539062 58.371094 23.773438 C 60.296875 22.582031 62.292969 21.507812 64.222656 20.316406 C 65.328125 19.632812 66.539062 19.019531 67.339844 17.957031 C 67.808594 17.351562 67.847656 16.40625 67.316406 15.828125 C 66.894531 15.347656 66.394531 14.898438 65.785156 14.6875 C 64.984375 14.453125 64.066406 14.429688 63.328125 14.863281 C 62.585938 15.304688 62.035156 15.984375 61.394531 16.554688 C 60.773438 17.152344 60 17.554688 59.273438 18.007812 C 58.328125 18.558594 57.410156 19.15625 56.441406 19.660156 C 55.542969 19.300781 54.566406 18.960938 53.585938 19.160156 C 52.816406 19.277344 51.980469 19.601562 51.605469 20.335938 C 51.226562 21.015625 51.421875 21.8125 51.351562 22.550781 C 51.308594 23.042969 50.941406 23.425781 50.53125 23.648438 C 48.332031 24.960938 46.117188 26.242188 43.933594 27.574219 C 42.890625 28.207031 41.777344 28.726562 40.601562 29.058594 C 39.707031 29.332031 38.71875 29.652344 38.175781 30.476562 C 37.625 31.292969 37.8125 32.410156 38.367188 33.175781 C 38.773438 33.714844 39.285156 34.21875 39.949219 34.40625 C 40.804688 34.640625 41.730469 34.449219 42.5 34.027344 C 43.832031 33.316406 44.964844 32.300781 46.179688 31.417969 C 47.335938 30.582031 48.472656 29.71875 49.664062 28.933594 C 50.308594 28.554688 51.035156 28.050781 51.820312 28.28125 C 52.507812 28.5625 52.683594 29.382812 52.773438 30.042969 C 52.949219 31.695312 52.824219 33.363281 52.828125 35.019531 C 52.804688 39.285156 52.28125 43.53125 52.324219 47.796875 C 52.316406 49.265625 52.332031 50.730469 52.398438 52.195312 C 50.800781 52.203125 49.199219 52.21875 47.601562 52.1875 C 47.621094 47.324219 47.597656 42.460938 47.613281 37.59375 C 44.589844 40.152344 41.550781 42.695312 38.550781 45.28125 C 35.53125 42.71875 32.507812 40.15625 29.476562 37.601562 C 29.5 42.464844 29.472656 47.332031 29.492188 52.195312 C 19.660156 52.214844 9.832031 52.199219 0 52.203125 Z M 0 0 "/>
    <path style=" stroke:none;fill-rule:nonzero;fill:rgb(0%,0%,0%);fill-opacity:1;" d="M 31.503906 0 L 31.539062 0 C 32.414062 0.472656 33.347656 0.820312 34.25 1.234375 C 36.21875 2.105469 38.183594 2.976562 40.152344 3.84375 C 40.609375 4.019531 40.894531 4.441406 41.21875 4.78125 C 40.292969 5.683594 39.445312 6.664062 38.539062 7.585938 C 36.21875 5.164062 33.941406 2.699219 31.613281 0.285156 C 31.585938 0.214844 31.53125 0.0703125 31.503906 0 Z M 31.503906 0 "/>
    <path style=" stroke:none;fill-rule:nonzero;fill:rgb(0%,0%,0%);fill-opacity:1;" d="M 79.214844 0 L 79.375 0 C 79.675781 0.277344 80.066406 0.433594 80.40625 0.664062 C 81.613281 1.386719 82.8125 2.121094 84.023438 2.832031 C 84.050781 6.378906 84.019531 9.929688 84.039062 13.476562 C 82.3125 15.371094 80.707031 17.375 79.222656 19.46875 C 79.203125 12.980469 79.222656 6.488281 79.214844 0 Z M 79.214844 0 "/>
    <path style=" stroke:none;fill-rule:nonzero;fill:rgb(0%,0%,0%);fill-opacity:1;" d="M 82.96875 24.625 C 83.304688 24.152344 83.613281 23.648438 84 23.210938 C 84.011719 23.316406 84.039062 23.527344 84.050781 23.632812 C 84.039062 32.265625 84.050781 40.894531 84.046875 49.527344 C 84.027344 50.417969 84.089844 51.3125 84.015625 52.203125 C 82.414062 52.203125 80.816406 52.199219 79.21875 52.207031 C 79.21875 45.132812 79.199219 38.054688 79.230469 30.984375 C 80.289062 28.757812 81.617188 26.679688 82.96875 24.625 Z M 82.96875 24.625 "/>
    <path style=" stroke:none;fill-rule:nonzero;fill:rgb(0%,0%,0%);fill-opacity:1;" d="M 41.511719 45.335938 C 42.90625 44.171875 44.277344 42.96875 45.6875 41.828125 C 45.671875 42.769531 45.683594 43.714844 45.675781 44.660156 C 45.242188 44.90625 44.945312 45.496094 44.386719 45.429688 C 43.417969 45.441406 42.441406 45.375 41.476562 45.460938 C 41.484375 45.429688 41.503906 45.367188 41.511719 45.335938 Z M 41.511719 45.335938 "/>
    <path style=" stroke:none;fill-rule:nonzero;fill:rgb(0%,0%,0%);fill-opacity:1;" d="M 31.445312 41.820312 C 32.769531 42.910156 34.074219 44.023438 35.375 45.140625 C 35.417969 47.492188 35.371094 49.851562 35.398438 52.207031 C 34.082031 52.203125 32.765625 52.195312 31.449219 52.210938 C 31.453125 48.746094 31.464844 45.28125 31.445312 41.820312 Z M 31.445312 41.820312 "/>
    <path style=" stroke:none;fill-rule:nonzero;fill:rgb(81.960784%,29.803922%,26.27451%);fill-opacity:1;" d="M 0.5625 56.640625 C 0.980469 56.148438 1.609375 55.820312 2.257812 55.804688 C 28.753906 55.808594 55.25 55.804688 81.746094 55.804688 C 82.96875 55.847656 84.023438 56.984375 83.96875 58.214844 C 83.976562 64.625 83.964844 71.035156 83.972656 77.445312 C 84.003906 78.269531 83.585938 79.101562 82.890625 79.542969 C 82.566406 79.757812 82.175781 79.832031 81.820312 79.972656 L 2.089844 79.972656 C 1.546875 79.765625 0.957031 79.59375 0.585938 79.109375 C 0.285156 78.773438 0.132812 78.339844 0 77.914062 L 0 57.609375 C 0.203125 57.292969 0.308594 56.917969 0.5625 56.640625 "/>
    <path style=" stroke:none;fill-rule:nonzero;fill:rgb(0%,0%,0%);fill-opacity:1;" d="M 23.320312 62.898438 C 23.453125 62.304688 23.957031 61.757812 24.597656 61.777344 C 25.097656 61.789062 25.621094 61.699219 26.097656 61.898438 C 26.496094 62.132812 26.769531 62.554688 26.84375 63.011719 C 27.472656 66.039062 28.058594 69.070312 28.683594 72.09375 C 28.765625 72.621094 29.003906 73.1875 28.695312 73.683594 C 28.285156 73.894531 27.796875 73.933594 27.410156 73.652344 C 27.097656 72.980469 27.089844 72.21875 26.878906 71.519531 C 26.789062 71.296875 26.53125 71.238281 26.316406 71.257812 C 25.386719 71.269531 24.453125 71.21875 23.523438 71.285156 C 23.183594 71.464844 23.171875 71.902344 23.109375 72.234375 C 23.011719 72.71875 23.003906 73.261719 22.683594 73.667969 C 22.332031 73.96875 21.816406 73.878906 21.449219 73.660156 C 21.195312 73.320312 21.324219 72.871094 21.390625 72.492188 C 22.035156 69.292969 22.671875 66.09375 23.320312 62.898438 M 24.871094 63.417969 C 24.503906 65.203125 24.15625 66.992188 23.800781 68.777344 C 23.714844 69.070312 23.6875 69.375 23.695312 69.679688 C 24.292969 69.789062 24.910156 69.6875 25.511719 69.726562 C 25.84375 69.691406 26.234375 69.828125 26.503906 69.582031 C 26.105469 67.515625 25.683594 65.453125 25.277344 63.386719 C 25.238281 63.15625 24.863281 63.191406 24.871094 63.417969 Z M 24.871094 63.417969 "/>
    <path style=" stroke:none;fill-rule:nonzero;fill:rgb(0%,0%,0%);fill-opacity:1;" d="M 5.761719 62.015625 C 6.320312 61.957031 6.886719 62.003906 7.445312 61.992188 C 8.332031 62 9.28125 61.902344 10.085938 62.355469 C 11.761719 63.136719 12.425781 65.46875 11.410156 67.019531 C 11.238281 67.289062 10.875 67.636719 11.179688 67.949219 C 12.550781 69.230469 12.453125 71.683594 11.019531 72.878906 C 10.382812 73.476562 9.507812 73.773438 8.644531 73.753906 C 7.714844 73.742188 6.789062 73.777344 5.859375 73.742188 C 5.503906 73.730469 5.203125 73.394531 5.222656 73.039062 C 5.207031 69.652344 5.222656 66.261719 5.214844 62.871094 C 5.175781 62.5 5.382812 62.113281 5.761719 62.015625 M 6.996094 64.078125 C 7.007812 64.886719 7 65.695312 7 66.503906 C 6.960938 66.75 7.207031 66.980469 7.445312 66.960938 C 8.003906 66.964844 8.59375 67.046875 9.128906 66.828125 C 9.535156 66.683594 9.816406 66.320312 9.992188 65.941406 C 10.398438 65.0625 9.839844 63.886719 8.898438 63.667969 C 8.375 63.542969 7.832031 63.640625 7.300781 63.617188 C 7.171875 63.746094 6.941406 63.851562 6.996094 64.078125 M 7.199219 68.636719 C 7.054688 68.730469 6.984375 68.863281 6.992188 69.03125 C 7 69.875 7.015625 70.722656 6.992188 71.570312 C 6.941406 71.890625 7.234375 72.230469 7.570312 72.144531 C 8.304688 72.105469 9.167969 72.296875 9.769531 71.757812 C 10.707031 70.984375 10.566406 69.261719 9.433594 68.742188 C 8.734375 68.476562 7.914062 68.511719 7.199219 68.636719 Z M 7.199219 68.636719 "/>
    <path style=" stroke:none;fill-rule:nonzero;fill:rgb(0%,0%,0%);fill-opacity:1;" d="M 14.148438 62.027344 C 14.609375 61.953125 15.078125 62.007812 15.542969 61.992188 C 16.378906 62.011719 17.230469 61.910156 18.046875 62.128906 C 19.394531 62.507812 20.40625 63.78125 20.542969 65.167969 C 20.605469 66.167969 20.605469 67.234375 20.097656 68.132812 C 19.808594 68.582031 19.457031 69.011719 19.003906 69.296875 C 18.871094 69.414062 18.570312 69.464844 18.628906 69.699219 C 19.144531 70.714844 19.726562 71.703125 20.183594 72.746094 C 20.460938 73.585938 19.1875 74.125 18.710938 73.449219 C 18.0625 72.355469 17.523438 71.195312 16.894531 70.089844 C 16.679688 69.777344 16.261719 69.894531 15.945312 69.875 C 15.660156 69.828125 15.355469 70.070312 15.371094 70.367188 C 15.332031 71.292969 15.375 72.21875 15.351562 73.144531 C 15.226562 73.9375 13.859375 74.003906 13.636719 73.25 C 13.519531 72.96875 13.578125 72.65625 13.566406 72.359375 C 13.574219 69.195312 13.570312 66.035156 13.566406 62.871094 C 13.566406 62.507812 13.746094 62.078125 14.148438 62.027344 M 15.566406 63.707031 C 15.273438 63.855469 15.375 64.230469 15.351562 64.496094 C 15.371094 65.605469 15.324219 66.71875 15.375 67.828125 C 15.371094 68.191406 15.785156 68.300781 16.078125 68.261719 C 16.683594 68.222656 17.347656 68.378906 17.898438 68.050781 C 18.503906 67.726562 18.789062 67.015625 18.78125 66.351562 C 18.769531 65.742188 18.867188 65.082031 18.550781 64.527344 C 18.261719 63.902344 17.550781 63.5625 16.886719 63.609375 C 16.449219 63.652344 15.972656 63.515625 15.566406 63.707031 Z M 15.566406 63.707031 "/>
    <path style=" stroke:none;fill-rule:nonzero;fill:rgb(0%,0%,0%);fill-opacity:1;" d="M 30.589844 62.238281 C 30.917969 61.886719 31.460938 61.964844 31.867188 62.117188 C 32.152344 62.226562 32.261719 62.542969 32.386719 62.796875 C 33.230469 64.835938 34.148438 66.855469 34.941406 68.90625 L 35.121094 68.953125 C 35.132812 66.84375 35.105469 64.734375 35.125 62.625 C 35.265625 61.765625 36.78125 61.746094 36.890625 62.625 C 36.914062 66.046875 36.890625 69.472656 36.902344 72.894531 C 36.933594 73.199219 36.796875 73.519531 36.523438 73.675781 C 36.007812 73.851562 35.285156 73.757812 35.039062 73.207031 C 34.253906 71.335938 33.425781 69.480469 32.652344 67.601562 C 32.535156 67.324219 32.507812 67 32.308594 66.761719 C 32.011719 67.023438 32.214844 67.46875 32.179688 67.8125 C 32.160156 69.554688 32.199219 71.296875 32.164062 73.039062 C 32.191406 73.296875 32.003906 73.476562 31.863281 73.664062 C 31.308594 73.890625 30.421875 73.765625 30.40625 73.023438 C 30.398438 69.6875 30.40625 66.351562 30.402344 63.015625 C 30.417969 62.753906 30.375 62.429688 30.589844 62.238281 Z M 30.589844 62.238281 "/>
    <path style=" stroke:none;fill-rule:nonzero;fill:rgb(0%,0%,0%);fill-opacity:1;" d="M 39.667969 62.03125 C 40.703125 61.949219 41.753906 62 42.792969 62.003906 C 44.558594 62.035156 46.113281 63.648438 46.089844 65.421875 C 46.097656 67.070312 46.097656 68.71875 46.085938 70.367188 C 46.085938 71.660156 45.277344 72.894531 44.109375 73.421875 C 42.996094 73.957031 41.726562 73.6875 40.539062 73.753906 C 40.03125 73.785156 39.3125 73.808594 39.167969 73.179688 C 39.136719 69.746094 39.160156 66.3125 39.15625 62.878906 C 39.121094 62.523438 39.304688 62.125 39.667969 62.03125 M 40.917969 64.066406 C 40.917969 66.515625 40.929688 68.964844 40.914062 71.417969 C 40.894531 71.617188 40.945312 71.808594 41.019531 71.992188 C 41.089844 72.03125 41.234375 72.109375 41.304688 72.148438 C 42.039062 72.0625 42.867188 72.320312 43.519531 71.875 C 44.027344 71.558594 44.332031 70.960938 44.3125 70.363281 C 44.316406 68.714844 44.3125 67.066406 44.316406 65.417969 C 44.351562 64.746094 43.960938 64.074219 43.363281 63.777344 C 42.765625 63.507812 42.101562 63.640625 41.46875 63.617188 C 41.203125 63.578125 40.921875 63.785156 40.917969 64.066406 Z M 40.917969 64.066406 "/>
    <path style=" stroke:none;fill-rule:nonzero;fill:rgb(0%,0%,0%);fill-opacity:1;" d="M 50.878906 62.609375 C 50.945312 61.96875 51.753906 61.875 52.234375 62.082031 C 52.765625 62.332031 52.867188 62.976562 53.109375 63.453125 C 53.855469 65.25 54.699219 67.011719 55.34375 68.847656 C 55.402344 68.878906 55.523438 68.933594 55.585938 68.960938 C 55.585938 66.8125 55.558594 64.660156 55.59375 62.507812 C 55.847656 61.890625 56.777344 61.808594 57.207031 62.277344 C 57.371094 62.488281 57.339844 62.765625 57.34375 63.019531 C 57.328125 66.398438 57.355469 69.78125 57.328125 73.160156 C 57.308594 73.707031 56.632812 73.824219 56.207031 73.726562 C 55.824219 73.699219 55.542969 73.402344 55.417969 73.058594 C 54.539062 70.964844 53.613281 68.890625 52.785156 66.78125 C 52.5 66.871094 52.640625 67.214844 52.609375 67.425781 C 52.632812 69.339844 52.605469 71.25 52.621094 73.164062 C 52.449219 74.035156 50.84375 73.960938 50.863281 73.023438 C 50.875 69.550781 50.847656 66.078125 50.878906 62.609375 Z M 50.878906 62.609375 "/>
    <path style=" stroke:none;fill-rule:nonzero;fill:rgb(0%,0%,0%);fill-opacity:1;" d="M 59.953125 62.113281 C 60.226562 61.929688 60.558594 61.992188 60.867188 61.988281 C 62.242188 61.992188 63.621094 61.996094 64.996094 61.988281 C 65.171875 61.988281 65.363281 61.984375 65.523438 62.082031 C 66.121094 62.375 66.03125 63.445312 65.375 63.601562 C 64.183594 63.636719 62.988281 63.59375 61.792969 63.617188 C 61.59375 63.597656 61.464844 63.796875 61.378906 63.945312 C 61.371094 64.792969 61.375 65.644531 61.378906 66.492188 C 61.355469 66.703125 61.5 66.914062 61.699219 66.984375 C 62.476562 67.050781 63.273438 66.914062 64.042969 67.050781 C 64.730469 67.257812 64.652344 68.335938 63.980469 68.503906 C 63.210938 68.53125 62.4375 68.484375 61.667969 68.527344 C 61.515625 68.636719 61.335938 68.800781 61.371094 69.011719 C 61.375 69.863281 61.378906 70.71875 61.371094 71.570312 C 61.320312 71.808594 61.53125 71.964844 61.660156 72.132812 C 62.867188 72.148438 64.074219 72.128906 65.277344 72.148438 C 65.992188 72.171875 66.136719 73.269531 65.601562 73.625 C 65.390625 73.785156 65.105469 73.734375 64.859375 73.753906 C 63.328125 73.746094 61.796875 73.769531 60.265625 73.742188 C 59.839844 73.75 59.558594 73.304688 59.59375 72.90625 C 59.59375 69.566406 59.597656 66.222656 59.589844 62.882812 C 59.578125 62.589844 59.667969 62.25 59.953125 62.113281 Z M 59.953125 62.113281 "/>
    <path style=" stroke:none;fill-rule:nonzero;fill:rgb(0%,0%,0%);fill-opacity:1;" d="M 67.035156 62.125 C 67.472656 61.730469 68.390625 61.824219 68.5 62.496094 C 68.863281 64.675781 69.203125 66.859375 69.558594 69.039062 C 69.765625 70.203125 69.878906 71.390625 70.175781 72.539062 C 70.332031 72.511719 70.542969 72.445312 70.527344 72.242188 C 70.960938 69.476562 71.414062 66.714844 71.859375 63.953125 C 72 63.433594 71.941406 62.859375 72.191406 62.375 C 72.363281 61.945312 72.925781 61.945312 73.300781 62.046875 C 73.707031 62.246094 73.800781 62.730469 73.839844 63.140625 C 74.335938 66.21875 74.832031 69.296875 75.332031 72.371094 C 75.402344 72.570312 75.714844 72.589844 75.726562 72.34375 C 76.296875 69.054688 76.777344 65.746094 77.339844 62.453125 C 77.476562 61.863281 78.175781 61.792969 78.652344 61.984375 C 78.96875 62.226562 78.964844 62.628906 78.902344 62.984375 C 78.394531 66.199219 77.867188 69.410156 77.367188 72.625 C 77.285156 73.246094 76.851562 73.953125 76.160156 73.957031 C 75.527344 73.96875 74.730469 74.136719 74.269531 73.582031 C 74.003906 73.332031 73.878906 72.980469 73.839844 72.628906 C 73.523438 70.46875 73.09375 68.320312 73.039062 66.132812 C 72.972656 66.136719 72.84375 66.140625 72.78125 66.144531 C 72.753906 68.332031 72.277344 70.476562 71.988281 72.636719 C 71.96875 73.003906 71.785156 73.335938 71.554688 73.609375 C 71.109375 74.105469 70.371094 73.964844 69.777344 73.980469 C 69.164062 73.980469 68.675781 73.507812 68.523438 72.933594 C 67.996094 69.71875 67.484375 66.5 66.976562 63.285156 C 66.921875 62.90625 66.761719 62.457031 67.035156 62.125 Z M 67.035156 62.125 "/>
  </g>
</svg>