<?xml version="1.0" encoding="UTF-8" standalone="no"?>
<svg
   xmlns:dc="http://purl.org/dc/elements/1.1/"
   xmlns:cc="http://creativecommons.org/ns#"
   xmlns:rdf="http://www.w3.org/1999/02/22-rdf-syntax-ns#"
   xmlns:svg="http://www.w3.org/2000/svg"
   xmlns="http://www.w3.org/2000/svg"
   xmlns:sodipodi="http://sodipodi.sourceforge.net/DTD/sodipodi-0.dtd"
   xmlns:inkscape="http://www.inkscape.org/namespaces/inkscape"
   width="790.49609"
   height="748.75"
   viewBox="0 0 632.39688 599"
   version="1.1"
   id="svg2"
   inkscape:version="0.48.2 r9819"
   sodipodi:docname="AJAX1.svg">
  <metadata
     id="metadata51">
    <rdf:RDF>
      <cc:Work
         rdf:about="">
        <dc:format>image/svg+xml</dc:format>
        <dc:type
           rdf:resource="http://purl.org/dc/dcmitype/StillImage" />
        <dc:title></dc:title>
      </cc:Work>
    </rdf:RDF>
  </metadata>
  <defs
     id="defs49" />
  <sodipodi:namedview
     pagecolor="#ffffff"
     bordercolor="#666666"
     borderopacity="1"
     objecttolerance="10"
     gridtolerance="10"
     guidetolerance="10"
     inkscape:pageopacity="0"
     inkscape:pageshadow="2"
     inkscape:window-width="1280"
     inkscape:window-height="1004"
     id="namedview47"
     showgrid="false"
     fit-margin-top="0"
     fit-margin-left="0"
     fit-margin-right="0"
     fit-margin-bottom="0"
     inkscape:zoom="0.44574878"
     inkscape:cx="564.35097"
     inkscape:cy="243.35438"
     inkscape:window-x="-8"
     inkscape:window-y="-8"
     inkscape:window-maximized="1"
     inkscape:current-layer="#d14c43ff" />
  <g
     id="#090102ff"
     style="fill:#000000;stroke:none"
     transform="translate(0,-2.367975e-6)">
    <path
       d="m 0,0 215.88,0 c 12.93,13.11 25.37,26.69 38.17,39.93 11.9,12.86 24.28,25.29 36.06,38.25 C 314.79,52.05 339.55,26 364.37,0 l 217.21,0 c -0.02,53.68 -0.03,107.36 0,161.04 -0.12,2.27 0.42,4.72 -0.54,6.86 -16.52,27 -31,55.31 -42.38,84.86 -2,5.18 -3.56,10.62 -6.64,15.3 -1.7,2.5 -4.95,3.96 -7.91,2.99 -3.71,-0.77 -4.92,-4.94 -5.34,-8.21 -0.98,-9.35 -2.14,-18.69 -3.3,-28.02 -1.7,-13.32 -2.74,-26.86 -6.61,-39.78 -2.19,-7.15 -7.04,-14.3 -14.65,-16.27 -11.64,-2.73 -26.03,1.48 -31.59,12.77 -3.94,7.52 -4.01,16.37 -2.41,24.54 4.53,23.36 13.7,45.43 22.02,67.63 7.75,20.28 15.42,40.59 23.22,60.85 2.85,7.05 7.88,14.17 15.68,16.04 7.67,1.95 16.44,2.12 23.5,-1.87 8.32,-5.84 10.68,-16.47 13.65,-25.59 6.67,-22.84 13.88,-45.54 22.08,-67.88 0.33,-0.28 0.98,-0.83 1.31,-1.1 -0.19,42.25 -0.13,84.5 -0.04,126.75 -45.39,0.12 -90.8,0.22 -136.19,-0.05 -1.08,-12.27 -2.3,-24.56 -2.45,-36.89 0.61,-18.98 1.09,-37.96 1.1,-56.95 0.46,-26.45 -3.7,-52.66 -4.39,-79.07 -0.58,-13.29 1.19,-26.66 -0.54,-39.9 14.51,-8.91 29.53,-16.97 44.03,-25.89 8.32,-5.12 17.44,-9.71 23.46,-17.67 3.54,-4.52 3.82,-11.62 -0.18,-15.95 -3.16,-3.59 -6.93,-6.94 -11.52,-8.52 -6.02,-1.78 -12.93,-1.94 -18.49,1.32 -5.59,3.29 -9.72,8.39 -14.53,12.64 -4.69,4.49 -10.5,7.49 -15.96,10.9 -7.11,4.12 -14.03,8.6 -21.31,12.38 -6.76,-2.71 -14.12,-5.24 -21.5,-3.74 -5.78,0.87 -12.07,3.3 -14.89,8.81 -2.85,5.09 -1.38,11.05 -1.92,16.57 -0.32,3.68 -3.07,6.55 -6.17,8.24 -16.53,9.82 -33.19,19.41 -49.64,29.38 -7.83,4.75 -16.22,8.65 -25.06,11.12 -6.73,2.05 -14.16,4.45 -18.25,10.63 -4.15,6.12 -2.75,14.48 1.43,20.22 3.05,4.03 6.92,7.8 11.9,9.22 6.46,1.75 13.42,0.32 19.21,-2.85 10.01,-5.33 18.54,-12.92 27.69,-19.55 8.7,-6.24 17.24,-12.73 26.21,-18.59 4.85,-2.86 10.31,-6.61 16.22,-4.89 5.17,2.1 6.48,8.25 7.18,13.2 1.31,12.38 0.37,24.85 0.41,37.27 -0.18,31.96 -4.12,63.75 -3.81,95.71 -0.05,10.98 0.08,21.96 0.58,32.93 -12.03,0.07 -24.07,0.17 -36.11,-0.05 0.14,-36.44 -0.03,-72.87 0.09,-109.31 -22.75,19.17 -45.61,38.21 -68.19,57.58 -22.72,-19.21 -45.47,-38.4 -68.26,-57.52 0.18,36.43 -0.02,72.87 0.1,109.3 C 147.92,391.09 73.96,390.96 0,391 L 0,0 z"
       id="path5"
       style="fill:#000000;stroke:none"
       inkscape:connector-curvature="0" />
    <path
       d="m 237.02,0 0.28,0 c 6.57,3.53 13.61,6.13 20.38,9.25 14.81,6.52 29.61,13.03 44.43,19.54 3.43,1.32 5.57,4.47 8.01,7.03 -6.96,6.76 -13.33,14.1 -20.15,21 C 272.5,38.69 255.38,20.21 237.85,2.15 237.64,1.61 237.23,0.54 237.02,0 z"
       id="path7"
       style="fill:#000000;stroke:none"
       inkscape:connector-curvature="0" />
    <path
       d="m 595.99,0 1.2,0 c 2.29,2.09 5.22,3.24 7.78,4.97 9.07,5.41 18.09,10.93 27.21,16.25 0.19,26.57 -0.03,53.14 0.11,79.71 -12.98,14.21 -25.08,29.22 -36.24,44.89 -0.13,-48.61 0,-97.21 -0.06,-145.82 z"
       id="path9"
       style="fill:#000000;stroke:none"
       inkscape:connector-curvature="0" />
    <path
       d="m 624.25,184.44 c 2.53,-3.55 4.85,-7.3 7.74,-10.58 0.1,0.79 0.29,2.36 0.39,3.15 -0.1,64.65 -0.01,129.3 -0.04,193.96 -0.14,6.67 0.34,13.37 -0.23,20.04 -12.03,0 -24.06,-0.04 -36.09,0.02 0.02,-52.98 -0.15,-105.99 0.09,-158.96 7.97,-16.66 17.97,-32.25 28.14,-47.63 z"
       id="path11"
       style="fill:#000000;stroke:none"
       inkscape:connector-curvature="0" />
    <path
       d="m 312.33,339.58 c 10.48,-8.74 20.79,-17.75 31.41,-26.3 -0.1,7.07 -0.04,14.15 -0.07,21.23 -3.29,1.83 -5.51,6.25 -9.71,5.75 -7.3,0.11 -14.63,-0.39 -21.9,0.24 0.06,-0.23 0.2,-0.69 0.27,-0.92 z"
       id="path13"
       style="fill:#000000;stroke:none"
       inkscape:connector-curvature="0" />
    <path
       d="m 236.59,313.23 c 9.95,8.17 19.77,16.5 29.56,24.86 0.34,17.62 -0.03,35.31 0.19,52.95 -9.91,-0.05 -19.81,-0.1 -29.72,0.03 0.04,-25.95 0.12,-51.9 -0.03,-77.84 z"
       id="path15"
       style="fill:#000000;stroke:none"
       inkscape:connector-curvature="0" />
  </g>
  <g
     id="#ffffffff"
     transform="translate(0,-2.367975e-6)" />
  <g
     id="#d14c43ff"
     transform="translate(0,-2.367975e-6)">
    <path
       d="m 4.23,424.23 c 3.16,-3.68 7.89,-6.14 12.77,-6.25 199.34,0.02 398.69,0 598.03,0.01 9.21,0.3 17.15,8.81 16.74,18.03 0.04,48.02 -0.02,96.04 0.03,144.05 0.24,6.16 -2.91,12.41 -8.15,15.7 -2.44,1.61 -5.37,2.17 -8.06,3.23 L 15.72,599 C 11.65,597.44 7.21,596.15 4.42,592.53 2.15,590.02 0.99,586.76 0,583.59 L 0,431.48 c 1.52,-2.35 2.31,-5.15 4.23,-7.25"
       id="path35"
       inkscape:connector-curvature="0"
       style="fill:#d14c43;stroke:none"
       sodipodi:nodetypes="cccccccccccc" />
    <path
       style="fill:#000000;stroke:none"
       inkscape:connector-curvature="0"
       d="m 175.47,471.1 c 0.98,-4.45 4.79,-8.54 9.61,-8.38 3.75,0.08 7.7,-0.59 11.26,0.9 3.02,1.76 5.06,4.92 5.63,8.35 4.73,22.65 9.15,45.36 13.85,68.02 0.6,3.95 2.41,8.17 0.07,11.89 -3.07,1.6 -6.75,1.89 -9.66,-0.22 -2.36,-5.03 -2.42,-10.73 -4,-15.98 -0.67,-1.66 -2.62,-2.11 -4.23,-1.97 -7,0.09 -14.03,-0.29 -21.01,0.23 -2.56,1.34 -2.66,4.6 -3.13,7.09 -0.73,3.64 -0.78,7.69 -3.19,10.73 -2.64,2.27 -6.52,1.58 -9.3,-0.05 -1.9,-2.54 -0.93,-5.9 -0.44,-8.75 4.85,-23.95 9.66,-47.91 14.54,-71.86 m 11.67,3.91 c -2.77,13.36 -5.4,26.75 -8.06,40.14 -0.64,2.19 -0.85,4.46 -0.79,6.74 4.49,0.82 9.12,0.06 13.67,0.35 2.47,-0.24 5.41,0.76 7.45,-1.07 -3,-15.48 -6.18,-30.93 -9.22,-46.41 -0.3,-1.73 -3.12,-1.46 -3.05,0.25 z"
       id="path17" />
    <path
       style="fill:#000000;stroke:none"
       inkscape:connector-curvature="0"
       d="m 43.35,464.51 c 4.21,-0.44 8.46,-0.09 12.68,-0.2 6.67,0.06 13.81,-0.67 19.86,2.73 12.6,5.84 17.59,23.32 9.96,34.94 -1.29,2.02 -4.03,4.62 -1.73,6.97 10.3,9.59 9.57,27.96 -1.22,36.91 -4.77,4.49 -11.37,6.71 -17.87,6.57 -6.98,-0.11 -13.96,0.15 -20.94,-0.1 -2.68,-0.09 -4.93,-2.6 -4.81,-5.26 -0.09,-25.38 0.01,-50.77 -0.05,-76.16 -0.28,-2.79 1.28,-5.69 4.12,-6.4 m 9.29,15.44 c 0.09,6.05 0.02,12.11 0.04,18.16 -0.3,1.84 1.54,3.57 3.33,3.42 4.22,0.05 8.64,0.64 12.66,-0.98 3.06,-1.08 5.19,-3.81 6.5,-6.66 3.08,-6.56 -1.13,-15.39 -8.23,-17.02 -3.93,-0.92 -8.01,-0.19 -12.01,-0.38 -0.97,0.96 -2.69,1.77 -2.29,3.46 m 1.53,34.14 c -1.09,0.71 -1.61,1.69 -1.55,2.95 0.05,6.33 0.15,12.68 -0.02,19.02 -0.36,2.4 1.83,4.95 4.35,4.3 5.52,-0.29 12.03,1.13 16.56,-2.89 7.04,-5.81 5.99,-18.7 -2.52,-22.6 -5.27,-1.99 -11.46,-1.72 -16.82,-0.78 z"
       id="path19" />
    <path
       style="fill:#000000;stroke:none"
       inkscape:connector-curvature="0"
       d="m 106.44,464.58 c 3.47,-0.55 7.01,-0.15 10.51,-0.26 6.27,0.16 12.68,-0.61 18.83,1.02 10.13,2.84 17.75,12.37 18.79,22.77 0.46,7.49 0.47,15.49 -3.37,22.21 -2.15,3.37 -4.8,6.57 -8.22,8.71 -1.01,0.88 -3.27,1.26 -2.83,3.02 3.9,7.6 8.27,15.01 11.7,22.82 2.09,6.29 -7.48,10.34 -11.08,5.27 -4.86,-8.21 -8.92,-16.9 -13.66,-25.18 -1.62,-2.34 -4.75,-1.46 -7.14,-1.61 -2.15,-0.33 -4.43,1.47 -4.32,3.71 -0.29,6.93 0.02,13.87 -0.15,20.79 -0.94,5.93 -11.22,6.44 -12.91,0.8 -0.88,-2.11 -0.43,-4.46 -0.51,-6.67 0.05,-23.7 0.03,-47.39 0,-71.09 -0.02,-2.7 1.35,-5.93 4.36,-6.31 m 10.68,12.58 c -2.21,1.11 -1.43,3.92 -1.61,5.91 0.15,8.31 -0.21,16.64 0.17,24.95 -0.04,2.73 3.09,3.54 5.28,3.26 4.57,-0.29 9.55,0.87 13.71,-1.59 4.55,-2.43 6.71,-7.73 6.63,-12.71 -0.08,-4.58 0.65,-9.53 -1.73,-13.68 -2.16,-4.66 -7.52,-7.22 -12.52,-6.86 -3.28,0.32 -6.87,-0.7 -9.93,0.72 z"
       id="path21" />
    <path
       style="fill:#000000;stroke:none"
       inkscape:connector-curvature="0"
       d="m 230.16,466.17 c 2.45,-2.65 6.55,-2.04 9.61,-0.92 2.13,0.82 2.96,3.19 3.9,5.09 6.34,15.28 13.27,30.4 19.23,45.78 l 1.34,0.33 c 0.08,-15.78 -0.1,-31.59 0.03,-47.38 1.05,-6.45 12.46,-6.58 13.3,0 0.15,25.63 0,51.27 0.08,76.9 0.22,2.29 -0.81,4.7 -2.86,5.85 -3.86,1.34 -9.31,0.62 -11.17,-3.49 -5.89,-14.03 -12.13,-27.91 -17.94,-41.98 -0.88,-2.1 -1.09,-4.52 -2.6,-6.3 -2.22,1.97 -0.7,5.28 -0.96,7.86 -0.15,13.05 0.13,26.1 -0.12,39.14 0.21,1.93 -1.22,3.29 -2.28,4.7 -4.17,1.68 -10.83,0.74 -10.94,-4.81 -0.07,-24.98 -0.01,-49.97 -0.03,-74.96 0.1,-1.96 -0.22,-4.37 1.41,-5.81 z"
       id="path23" />
    <path
       style="fill:#000000;stroke:none"
       inkscape:connector-curvature="0"
       d="m 298.45,464.61 c 7.79,-0.6 15.69,-0.23 23.52,-0.21 13.28,0.23 24.97,12.33 24.8,25.6 0.05,12.35 0.07,24.71 -0.02,37.06 -0.01,9.66 -6.08,18.92 -14.88,22.87 -8.38,4 -17.92,2 -26.85,2.5 -3.82,0.23 -9.24,0.41 -10.33,-4.32 -0.24,-25.71 -0.06,-51.43 -0.09,-77.14 -0.27,-2.66 1.11,-5.64 3.85,-6.36 m 9.41,15.24 c 0.01,18.35 0.09,36.71 -0.03,55.07 -0.14,1.49 0.24,2.93 0.79,4.31 0.54,0.29 1.62,0.86 2.16,1.15 5.52,-0.64 11.73,1.31 16.64,-2.03 3.82,-2.37 6.13,-6.85 5.99,-11.32 0.01,-12.35 0,-24.7 0.01,-37.05 0.28,-5.02 -2.67,-10.07 -7.17,-12.3 -4.48,-2.02 -9.5,-1 -14.24,-1.2 -2.02,-0.29 -4.12,1.26 -4.15,3.37 z"
       id="path25" />
    <path
       style="fill:#000000;stroke:none"
       inkscape:connector-curvature="0"
       d="m 382.79,468.93 c 0.52,-4.78 6.59,-5.48 10.21,-3.93 4.01,1.87 4.75,6.68 6.59,10.26 5.62,13.46 11.95,26.66 16.81,40.42 0.45,0.21 1.35,0.64 1.81,0.85 0,-16.1 -0.2,-32.24 0.06,-48.34 1.92,-4.62 8.91,-5.25 12.14,-1.73 1.25,1.57 1.01,3.66 1.02,5.55 -0.1,25.32 0.1,50.64 -0.1,75.95 -0.15,4.1 -5.23,4.98 -8.44,4.25 -2.88,-0.2 -5,-2.43 -5.95,-5 -6.59,-15.68 -13.56,-31.21 -19.8,-47.02 -2.13,0.67 -1.07,3.24 -1.31,4.84 0.17,14.32 -0.03,28.64 0.09,42.96 -1.31,6.54 -13.37,5.98 -13.23,-1.04 0.09,-26.01 -0.12,-52.02 0.1,-78.02 z"
       id="path27" />
    <path
       style="fill:#000000;stroke:none"
       inkscape:connector-curvature="0"
       d="m 451.07,465.22 c 2.05,-1.38 4.57,-0.89 6.89,-0.92 10.35,0.02 20.7,0.04 31.05,-0.02 1.33,0.02 2.78,-0.01 3.97,0.72 4.49,2.18 3.82,10.22 -1.1,11.38 -8.98,0.27 -17.98,-0.05 -26.95,0.11 -1.5,-0.14 -2.47,1.35 -3.14,2.46 -0.05,6.36 -0.02,12.72 0.01,19.08 -0.16,1.59 0.91,3.15 2.41,3.68 5.85,0.51 11.86,-0.51 17.63,0.51 5.17,1.54 4.59,9.62 -0.46,10.88 -5.8,0.2 -11.62,-0.15 -17.41,0.18 -1.15,0.82 -2.48,2.03 -2.22,3.62 0.03,6.38 0.05,12.77 -0.02,19.16 -0.36,1.8 1.21,2.97 2.19,4.22 9.07,0.1 18.15,-0.03 27.22,0.12 5.37,0.18 6.47,8.38 2.44,11.04 -1.6,1.2 -3.74,0.84 -5.6,0.98 -11.51,-0.07 -23.03,0.1 -34.54,-0.08 -3.22,0.05 -5.34,-3.3 -5.08,-6.26 0,-25.03 0.03,-50.06 -0.02,-75.09 -0.09,-2.19 0.6,-4.75 2.73,-5.77 z"
       id="path29" />
    <path
       style="fill:#000000;stroke:none"
       inkscape:connector-curvature="0"
       d="m 504.36,465.33 c 3.29,-2.97 10.21,-2.28 11.01,2.76 2.73,16.32 5.29,32.68 7.97,49.02 1.57,8.72 2.43,17.62 4.64,26.2 1.18,-0.21 2.78,-0.7 2.65,-2.21 3.28,-20.71 6.67,-41.4 10.03,-62.1 1.04,-3.89 0.61,-8.17 2.5,-11.81 1.28,-3.22 5.51,-3.22 8.35,-2.46 3.06,1.48 3.76,5.13 4.05,8.2 3.72,23.04 7.45,46.09 11.22,69.12 0.53,1.51 2.89,1.65 2.98,-0.19 4.28,-24.65 7.89,-49.42 12.13,-74.08 1.02,-4.43 6.29,-4.95 9.88,-3.52 2.37,1.81 2.35,4.82 1.89,7.5 -3.84,24.07 -7.81,48.12 -11.55,72.21 -0.62,4.64 -3.9,9.95 -9.1,9.96 -4.75,0.1 -10.76,1.34 -14.23,-2.81 -2,-1.86 -2.93,-4.49 -3.22,-7.14 -2.37,-16.16 -5.61,-32.27 -6.03,-48.64 -0.49,0.02 -1.46,0.06 -1.94,0.09 -0.19,16.38 -3.79,32.45 -5.95,48.63 -0.15,2.73 -1.54,5.23 -3.29,7.27 -3.34,3.71 -8.9,2.68 -13.36,2.77 -4.61,0.02 -8.3,-3.54 -9.42,-7.84 -3.98,-24.07 -7.83,-48.17 -11.65,-72.26 -0.42,-2.84 -1.62,-6.19 0.44,-8.67 z"
       id="path31" />
  </g>
</svg>
