<?xml version="1.0" encoding="UTF-8" ?>
<!DOCTYPE svg PUBLIC "-//W3C//DTD SVG 1.1//EN" "http://www.w3.org/Graphics/SVG/1.1/DTD/svg11.dtd">
<svg width="560pt" height="160pt" viewBox="0 0 560 160" version="1.1" xmlns="http://www.w3.org/2000/svg">
<g id="#f0be1eff">
<path fill="#f0be1e" opacity="1.00" d=" M 435.02 36.88 C 445.54 34.70 456.25 33.52 467.00 33.57 C 482.48 33.41 498.22 33.41 513.26 37.57 C 513.95 38.93 514.64 40.28 515.20 41.70 C 515.35 42.43 515.65 43.89 515.80 44.62 C 515.49 46.25 515.13 47.88 514.78 49.50 C 512.65 50.01 510.53 50.52 508.39 50.99 C 508.08 50.92 507.45 50.78 507.13 50.72 C 504.26 50.38 501.36 50.45 498.48 50.45 C 498.15 51.27 497.83 52.09 497.51 52.91 C 492.32 51.27 486.86 51.75 481.52 52.10 C 481.14 50.96 480.38 50.20 479.10 50.48 C 465.82 50.48 452.54 50.48 439.26 50.50 C 438.77 51.44 438.29 52.38 437.81 53.33 C 435.95 52.34 433.91 51.91 431.81 52.15 C 430.97 53.60 430.13 55.05 429.36 56.54 C 429.63 50.78 430.19 44.88 432.41 39.51 C 432.81 38.24 433.94 37.53 435.02 36.88 Z" />
</g>
<g id="#17171783">
<path fill="#171717" opacity="0.51" d=" M 431.94 38.74 C 432.33 37.34 433.88 37.31 435.02 36.88 C 433.94 37.53 432.81 38.24 432.41 39.51 C 430.19 44.88 429.63 50.78 429.36 56.54 C 429.13 60.64 429.19 64.76 429.16 68.87 C 429.17 71.53 429.19 74.18 429.23 76.83 C 429.28 79.17 429.35 81.51 429.52 83.84 C 429.86 86.92 430.38 89.98 430.98 93.03 C 430.40 91.61 429.75 90.23 429.17 88.83 C 428.16 86.01 428.79 82.93 428.35 80.01 C 427.02 69.69 427.97 59.27 429.00 48.97 C 429.59 45.47 430.30 41.92 431.94 38.74 Z" />
<path fill="#171717" opacity="0.51" d=" M 380.70 53.62 C 388.05 52.50 395.56 53.47 402.99 53.13 C 406.22 53.40 410.50 52.03 412.71 55.19 C 414.21 57.67 413.58 60.80 413.67 63.57 C 411.23 63.55 408.79 63.56 406.35 63.57 L 406.16 62.91 C 405.97 62.24 405.60 60.90 405.41 60.23 C 398.60 59.94 391.79 60.09 384.98 60.10 C 384.96 61.91 384.80 63.77 385.43 65.51 C 392.30 65.45 399.17 65.39 406.03 65.47 C 408.30 65.45 410.70 65.96 412.33 67.66 C 410.31 66.91 408.25 66.18 406.08 66.12 C 398.79 65.80 391.47 66.43 384.19 65.82 C 384.18 63.43 384.23 61.04 384.38 58.66 C 391.64 58.75 398.90 58.70 406.17 58.70 C 406.22 59.43 406.31 60.91 406.36 61.65 C 408.60 61.64 410.84 61.64 413.09 61.63 C 413.19 58.65 412.94 54.07 409.06 53.75 C 399.61 53.37 390.15 53.67 380.70 53.62 Z" />
</g>
<g id="#0000006b">
<path fill="#000000" opacity="0.42" d=" M 515.20 41.70 C 517.41 44.27 517.37 47.79 517.88 50.95 C 518.86 57.24 518.64 63.63 518.75 69.98 C 518.64 80.14 518.82 90.84 514.24 100.18 C 511.90 101.06 509.57 102.08 507.07 102.36 C 499.73 103.21 492.46 104.93 485.03 104.60 C 467.52 104.37 449.42 106.05 432.56 100.39 C 430.14 97.07 429.39 92.85 429.17 88.83 C 429.75 90.23 430.40 91.61 430.98 93.03 C 431.37 94.29 431.76 95.56 432.20 96.81 C 433.41 99.14 436.20 99.25 438.44 99.85 C 444.00 100.90 449.60 101.86 455.26 102.19 C 467.10 102.54 478.96 102.59 490.80 102.17 C 491.03 102.16 491.47 102.13 491.69 102.12 C 498.44 101.71 505.15 100.64 511.72 99.03 C 513.40 98.75 514.15 97.10 514.66 95.66 C 516.27 91.03 516.84 86.13 517.26 81.28 C 517.72 74.59 518.00 67.88 517.67 61.18 C 517.35 55.63 517.03 50.06 515.80 44.62 C 515.65 43.89 515.35 42.43 515.20 41.70 Z" />
</g>
<g id="#d6a822ff">
<path fill="#d6a822" opacity="1.00" d=" M 515.80 44.62 C 517.03 50.06 517.35 55.63 517.67 61.18 C 513.46 65.00 507.40 62.33 502.45 64.30 C 503.54 61.51 504.43 58.65 505.31 55.78 C 505.39 55.57 505.56 55.14 505.65 54.92 C 506.17 53.53 506.65 52.12 507.13 50.72 C 507.45 50.78 508.08 50.92 508.39 50.99 C 510.53 50.52 512.65 50.01 514.78 49.50 C 515.13 47.88 515.49 46.25 515.80 44.62 Z" />
</g>
<g id="#0c0a017a">
<path fill="#0c0a01" opacity="0.48" d=" M 439.26 50.50 C 452.54 50.48 465.82 50.48 479.10 50.48 C 480.38 50.20 481.14 50.96 481.52 52.10 C 484.02 59.69 486.73 67.22 489.64 74.66 C 492.09 67.35 494.93 60.18 497.51 52.91 C 497.83 52.09 498.15 51.27 498.48 50.45 C 501.36 50.45 504.26 50.38 507.13 50.72 C 506.65 52.12 506.17 53.53 505.65 54.92 C 505.15 54.08 504.67 53.23 504.19 52.39 C 502.10 52.64 498.94 51.91 498.39 54.72 C 495.62 62.10 492.97 69.52 490.39 76.96 C 489.41 76.26 488.23 75.65 487.83 74.44 C 485.32 67.82 483.41 60.97 480.69 54.44 C 480.05 52.35 477.71 52.50 475.97 52.51 C 464.13 52.62 452.28 52.49 440.43 52.59 C 440.36 54.78 440.30 56.97 440.22 59.15 C 443.50 59.21 446.83 59.05 450.06 59.77 C 446.44 59.93 442.82 59.89 439.20 59.81 C 439.16 56.71 439.19 53.60 439.26 50.50 Z" />
</g>
<g id="#cea023ff">
<path fill="#cea023" opacity="1.00" d=" M 437.81 53.33 C 438.29 52.38 438.77 51.44 439.26 50.50 C 439.19 53.60 439.16 56.71 439.20 59.81 C 442.82 59.89 446.44 59.93 450.06 59.77 L 450.48 60.53 C 450.44 63.30 450.32 66.07 450.30 68.84 C 447.74 66.52 444.20 66.89 441.00 66.86 C 436.98 66.92 432.57 66.21 429.16 68.87 C 429.19 64.76 429.13 60.64 429.36 56.54 C 430.13 55.05 430.97 53.60 431.81 52.15 C 433.91 51.91 435.95 52.34 437.81 53.33 Z" />
<path fill="#cea023" opacity="1.00" d=" M 461.45 60.61 C 465.72 59.14 470.78 59.11 474.99 60.84 C 475.47 62.32 475.99 63.79 476.53 65.25 C 471.59 65.21 466.58 64.55 461.72 65.75 C 461.67 64.04 461.56 62.32 461.45 60.61 Z" />
</g>
<g id="#d4a622ff">
<path fill="#d4a622" opacity="1.00" d=" M 481.52 52.10 C 486.86 51.75 492.32 51.27 497.51 52.91 C 494.93 60.18 492.09 67.35 489.64 74.66 C 486.73 67.22 484.02 59.69 481.52 52.10 Z" />
</g>
<g id="#aaacafff">
<path fill="#aaacaf" opacity="1.00" d=" M 42.25 53.39 C 53.25 53.53 64.28 53.02 75.26 53.66 C 64.42 54.23 53.56 53.70 42.71 53.97 C 42.68 55.38 42.65 56.80 42.64 58.22 C 42.63 60.52 42.69 62.82 42.74 65.12 C 42.78 67.11 42.80 69.10 42.85 71.08 C 43.02 73.41 42.90 75.86 43.86 78.03 C 45.33 79.12 47.26 79.26 48.97 79.81 C 49.04 77.47 49.07 75.12 49.16 72.78 C 49.41 72.57 49.93 72.15 50.19 71.93 C 50.05 74.73 50.03 77.52 50.03 80.32 L 50.69 80.32 C 57.24 80.28 63.79 80.45 70.33 80.22 C 72.16 78.13 71.42 75.24 71.48 72.73 C 71.77 74.76 72.09 76.78 72.37 78.81 C 73.14 77.67 73.76 76.33 75.07 75.68 C 76.41 76.67 77.54 77.90 78.70 79.09 C 79.40 83.04 75.88 86.30 72.06 86.04 C 62.19 86.12 52.31 86.08 42.44 86.03 C 42.36 75.30 42.51 64.55 42.26 53.82 L 42.25 53.39 Z" />
<path fill="#aaacaf" opacity="1.00" d=" M 282.67 53.49 C 294.18 53.35 305.71 53.20 317.22 53.57 C 306.08 54.35 294.89 53.66 283.73 53.94 C 283.65 58.70 283.65 63.46 283.71 68.22 C 283.66 70.99 283.75 73.77 283.84 76.55 C 285.32 76.00 286.81 75.50 288.33 75.05 C 288.75 76.02 289.17 77.00 289.59 77.97 C 289.90 75.90 290.21 73.83 290.53 71.76 C 290.61 74.54 290.63 77.31 290.61 80.09 L 291.64 80.09 C 300.14 79.96 308.66 80.39 317.15 79.86 C 317.10 81.93 317.10 84.00 317.11 86.07 C 305.82 86.07 294.54 86.08 283.25 86.06 C 283.04 75.21 283.66 64.32 282.67 53.49 Z" />
<path fill="#aaacaf" opacity="1.00" d=" M 406.67 79.77 C 408.21 77.57 410.62 76.51 413.15 75.88 C 413.10 78.51 413.30 81.19 412.70 83.77 C 411.21 86.54 407.61 86.01 404.98 86.11 C 396.71 85.90 388.42 86.35 380.17 85.90 C 375.98 85.33 376.30 80.27 376.33 77.12 C 378.40 77.12 380.47 77.13 382.55 77.15 C 382.90 78.16 383.28 79.17 383.69 80.17 C 390.98 79.94 398.30 80.30 405.59 79.98 L 406.67 79.77 Z" />
<path fill="#aaacaf" opacity="1.00" d=" M 90.92 79.80 C 93.48 79.13 96.21 78.90 98.34 80.79 C 98.33 82.56 98.32 84.33 98.31 86.10 C 95.85 86.09 93.39 86.09 90.92 86.09 C 90.92 84.00 90.92 81.90 90.92 79.80 Z" />
</g>
<g id="#cdced0ff">
<path fill="#cdced0" opacity="1.00" d=" M 90.77 53.52 C 101.22 53.36 111.67 53.42 122.12 53.49 C 125.14 53.16 127.00 56.20 127.17 58.87 C 127.39 62.81 126.87 66.76 126.46 70.67 C 124.52 74.88 119.14 73.62 115.42 73.88 L 115.83 74.99 C 113.64 75.68 111.49 76.47 109.33 77.20 C 108.04 76.05 106.91 74.61 105.29 73.91 C 102.96 73.69 100.62 73.80 98.28 73.83 C 98.29 74.58 98.31 76.08 98.32 76.83 C 96.32 74.52 93.52 74.54 90.91 75.75 C 90.93 71.72 90.91 67.69 90.92 63.66 C 93.48 63.26 96.22 62.96 98.32 64.81 C 98.33 65.60 98.33 67.16 98.34 67.95 C 105.09 67.90 112.01 68.70 118.66 67.56 C 120.14 65.32 119.23 62.26 119.42 59.70 C 119.72 61.92 120.11 64.12 120.50 66.32 C 120.91 64.97 121.32 63.63 121.74 62.30 C 122.58 62.35 123.41 62.41 124.25 62.47 C 124.59 63.12 125.26 64.43 125.60 65.08 C 125.48 61.52 127.64 56.41 123.75 54.24 C 112.80 53.16 101.73 54.67 90.77 53.52 Z" />
</g>
<g id="#0503017a">
<path fill="#050301" opacity="0.48" d=" M 188.43 53.45 C 200.16 52.83 211.96 53.09 223.71 53.32 C 223.53 55.40 224.20 57.94 222.46 59.53 C 215.92 66.41 208.37 72.44 202.60 80.00 C 201.57 79.97 200.55 79.94 199.52 79.91 C 200.80 78.67 202.04 77.39 203.28 76.12 C 206.86 72.46 210.64 68.99 214.15 65.26 C 217.10 61.40 222.54 58.97 223.08 53.69 C 211.83 53.42 200.58 53.63 189.33 53.58 C 189.37 55.48 189.40 57.38 189.49 59.28 L 189.52 59.78 C 195.98 60.22 202.53 59.10 208.89 60.69 C 208.60 60.94 208.00 61.46 207.70 61.72 C 201.29 60.76 194.73 62.16 188.41 60.44 C 188.34 58.11 188.35 55.78 188.43 53.45 Z" />
<path fill="#050301" opacity="0.48" d=" M 41.55 55.13 C 41.73 54.80 42.08 54.15 42.26 53.82 C 42.51 64.55 42.36 75.30 42.44 86.03 C 52.31 86.08 62.19 86.12 72.06 86.04 C 75.88 86.30 79.40 83.04 78.70 79.09 C 78.63 76.91 78.55 74.72 78.53 72.54 C 80.23 75.95 79.48 79.95 79.35 83.61 C 78.56 87.34 74.29 88.23 71.04 88.34 C 64.36 88.44 57.67 88.31 50.99 88.36 C 47.80 88.35 44.53 88.67 41.44 87.69 C 41.58 76.84 41.31 65.97 41.55 55.13 Z" />
<path fill="#050301" opacity="0.48" d=" M 270.09 56.86 C 270.73 55.92 271.31 54.93 271.91 53.96 C 272.55 59.59 267.08 62.34 263.85 65.96 C 259.48 70.70 254.23 74.65 250.52 79.96 C 249.49 79.91 248.46 79.89 247.44 79.91 C 249.05 78.31 250.62 76.67 252.21 75.05 C 255.55 71.63 259.08 68.38 262.38 64.90 C 264.89 62.16 267.85 59.84 270.09 56.86 Z" />
<path fill="#050301" opacity="0.48" d=" M 282.12 68.06 C 282.18 63.20 281.80 58.30 282.67 53.49 C 283.66 64.32 283.04 75.21 283.25 86.06 C 294.54 86.08 305.82 86.07 317.11 86.07 C 317.10 84.00 317.10 81.93 317.15 79.86 C 319.57 81.50 317.93 85.12 318.44 87.59 C 315.07 88.74 311.49 88.33 308.01 88.36 C 302.02 88.37 296.03 88.33 290.05 88.38 C 287.45 88.38 284.75 88.64 282.30 87.60 C 281.96 81.09 282.18 74.57 282.12 68.06 Z" />
<path fill="#050301" opacity="0.48" d=" M 237.41 59.29 C 244.32 59.15 251.27 58.75 258.16 59.51 C 257.77 59.84 256.97 60.49 256.57 60.82 C 250.29 60.56 243.99 60.87 237.72 60.62 L 236.97 59.98 L 237.41 59.29 Z" />
<path fill="#050301" opacity="0.48" d=" M 412.94 68.96 C 414.89 69.94 414.22 72.30 414.38 74.06 C 414.11 78.40 415.18 83.05 413.03 87.06 C 410.74 87.67 408.44 88.42 406.04 88.38 C 398.36 88.35 390.67 88.36 382.99 88.38 C 380.12 88.49 376.80 87.37 375.69 84.47 C 375.33 82.25 375.35 79.95 375.69 77.73 C 377.81 75.62 381.27 77.00 383.92 77.12 C 383.86 77.88 383.74 79.41 383.69 80.17 C 383.28 79.17 382.90 78.16 382.55 77.15 C 380.47 77.13 378.40 77.12 376.33 77.12 C 376.30 80.27 375.98 85.33 380.17 85.90 C 388.42 86.35 396.71 85.90 404.98 86.11 C 407.61 86.01 411.21 86.54 412.70 83.77 C 413.30 81.19 413.10 78.51 413.15 75.88 C 413.12 73.57 413.10 71.26 412.94 68.96 Z" />
<path fill="#050301" opacity="0.48" d=" M 50.19 71.93 C 57.27 72.01 64.54 70.98 71.48 72.73 C 71.42 75.24 72.16 78.13 70.33 80.22 C 70.37 78.36 70.44 76.50 70.53 74.65 C 64.15 72.86 57.50 73.93 51.03 74.42 C 50.94 76.39 50.83 78.35 50.69 80.32 L 50.03 80.32 C 50.03 77.52 50.05 74.73 50.19 71.93 Z" />
<path fill="#050301" opacity="0.48" d=" M 222.65 80.10 L 223.63 80.28 C 223.52 82.87 224.39 85.83 223.06 88.18 C 215.38 88.63 207.67 88.23 199.98 88.36 C 195.43 88.17 190.79 88.92 186.33 87.74 C 186.40 85.71 185.93 83.40 187.50 81.80 C 187.46 83.22 187.41 84.65 187.36 86.07 C 199.13 86.06 210.89 86.15 222.66 86.02 C 222.65 84.05 222.65 82.07 222.65 80.10 Z" />
<path fill="#050301" opacity="0.48" d=" M 270.51 79.79 C 272.57 81.87 271.26 85.19 271.61 87.80 C 267.15 88.91 262.52 88.16 257.98 88.36 C 250.10 88.08 242.15 88.95 234.33 87.88 C 234.38 85.60 233.61 82.72 235.87 81.23 C 235.58 82.83 235.35 84.45 235.13 86.07 C 246.91 86.09 258.70 86.08 270.48 86.07 C 270.46 83.98 270.45 81.88 270.51 79.79 Z" />
<path fill="#050301" opacity="0.48" d=" M 262.53 101.32 C 265.37 101.39 268.78 100.37 271.28 101.84 C 271.68 105.65 271.21 109.51 271.67 113.33 C 274.84 113.52 278.01 113.55 281.18 113.55 C 277.79 114.48 274.29 114.25 270.85 113.79 C 270.58 112.24 270.34 110.68 270.24 109.11 C 270.18 106.58 270.25 104.06 270.27 101.54 C 267.90 101.56 265.53 101.58 263.17 101.60 C 263.19 103.32 263.22 105.04 263.23 106.76 C 263.24 109.16 263.23 111.55 263.32 113.95 C 264.00 116.47 266.05 118.85 268.86 118.70 C 273.31 118.57 278.49 120.01 282.26 116.95 C 282.53 117.44 283.08 118.42 283.36 118.91 C 285.47 118.84 287.58 118.79 289.70 118.72 C 289.68 118.01 289.64 116.60 289.62 115.89 C 289.57 112.89 289.64 109.89 289.65 106.89 C 289.65 105.12 289.66 103.35 289.67 101.59 C 287.33 101.57 285.00 101.56 282.66 101.55 C 282.69 104.25 282.79 106.94 282.89 109.64 C 282.51 110.66 282.11 111.68 281.70 112.69 C 281.52 108.86 281.39 105.00 282.02 101.20 C 284.71 101.16 287.40 101.14 290.09 101.14 C 291.16 107.58 290.29 114.17 290.59 120.67 C 284.72 120.76 278.84 120.28 273.00 121.13 C 269.31 120.93 263.91 120.96 262.69 116.55 C 262.12 111.50 262.48 106.39 262.53 101.32 Z" />
<path fill="#050301" opacity="0.48" d=" M 333.21 106.53 C 337.07 104.93 341.61 105.04 345.44 106.69 C 345.57 108.43 345.71 110.18 345.76 111.93 C 345.48 112.28 344.94 112.97 344.67 113.32 C 344.61 111.42 344.49 109.53 344.37 107.63 C 341.02 107.60 337.66 107.58 334.31 107.58 C 334.09 109.54 333.87 111.51 333.67 113.48 L 333.42 113.43 C 333.18 112.99 332.69 112.12 332.44 111.69 C 332.50 109.95 332.70 108.21 333.21 106.53 Z" />
</g>
<g id="#f7f7f8ff">
<path fill="#f7f7f8" opacity="1.00" d=" M 42.71 53.97 C 53.56 53.70 64.42 54.23 75.26 53.66 C 78.66 54.93 78.66 58.78 78.66 61.82 C 77.09 61.21 75.51 60.61 73.92 60.04 C 73.11 61.50 72.29 62.96 71.43 64.40 C 71.43 63.09 71.43 61.77 71.43 60.46 C 71.09 59.97 70.43 58.99 70.10 58.50 C 63.19 57.76 56.23 58.17 49.31 58.22 C 49.27 58.95 49.21 60.41 49.18 61.14 C 46.97 60.24 44.78 59.28 42.64 58.22 C 42.65 56.80 42.68 55.38 42.71 53.97 Z" />
</g>
<g id="#00000072">
<path fill="#000000" opacity="0.45" d=" M 90.06 58.01 C 90.00 56.48 90.27 54.96 90.77 53.52 C 90.98 56.89 90.94 60.28 90.92 63.66 C 90.91 67.69 90.93 71.72 90.91 75.75 C 90.91 77.10 90.91 78.45 90.92 79.80 C 90.92 81.90 90.92 84.00 90.92 86.09 C 93.39 86.09 95.85 86.09 98.31 86.10 C 98.32 84.33 98.33 82.56 98.34 80.79 C 98.33 79.47 98.33 78.15 98.32 76.83 C 98.31 76.08 98.29 74.58 98.28 73.83 C 100.62 73.80 102.96 73.69 105.29 73.91 C 106.91 74.61 108.04 76.05 109.33 77.20 C 111.04 78.88 112.79 80.53 114.56 82.15 C 115.64 83.12 116.71 84.10 117.77 85.08 C 117.95 85.45 118.29 86.19 118.47 86.55 C 122.41 86.93 126.37 86.96 130.33 86.92 L 129.88 88.05 C 126.28 88.72 122.56 88.44 118.92 88.25 C 114.82 85.42 111.50 81.52 107.71 78.26 C 105.72 75.90 102.17 75.09 99.46 76.65 C 99.55 80.35 99.48 84.06 99.55 87.76 C 96.51 88.70 93.16 88.78 90.15 87.67 C 90.02 77.78 90.16 67.90 90.06 58.01 Z" />
<path fill="#000000" opacity="0.45" d=" M 138.00 63.00 C 138.31 60.35 137.26 56.70 139.95 55.02 C 138.14 59.20 139.19 63.87 138.99 68.27 C 138.89 71.62 138.97 74.98 139.01 78.33 C 138.94 80.92 138.94 83.51 138.93 86.10 L 139.75 86.10 C 142.02 86.10 144.30 86.10 146.57 86.10 C 146.56 83.77 146.56 81.44 146.56 79.11 C 146.56 77.36 146.55 75.61 146.55 73.85 C 153.55 73.79 160.56 73.84 167.56 73.82 C 167.55 74.49 167.53 75.81 167.51 76.48 C 161.09 76.55 154.56 74.87 148.23 76.45 C 146.84 79.85 147.94 84.05 147.60 87.76 C 144.63 88.33 141.03 89.26 138.33 87.59 C 137.54 79.44 138.26 71.19 138.00 63.00 Z" />
<path fill="#000000" opacity="0.45" d=" M 98.32 64.81 C 98.31 62.76 98.33 60.72 98.37 58.67 C 105.36 59.19 112.63 57.60 119.42 59.70 C 119.23 62.26 120.14 65.32 118.66 67.56 C 112.01 68.70 105.09 67.90 98.34 67.95 C 98.33 67.16 98.33 65.60 98.32 64.81 M 99.41 61.68 C 99.48 63.56 99.54 65.44 99.59 67.32 C 105.80 67.45 112.03 67.64 118.24 67.21 C 118.29 65.40 118.36 63.58 118.48 61.77 C 116.40 60.97 114.21 60.55 111.98 60.67 C 107.78 60.81 103.43 60.15 99.41 61.68 Z" />
<path fill="#000000" opacity="0.45" d=" M 189.52 59.78 L 189.49 59.28 C 191.31 59.19 193.14 59.12 194.97 59.08 C 200.08 59.38 205.22 58.96 210.32 59.50 C 209.97 59.79 209.25 60.39 208.89 60.69 C 202.53 59.10 195.98 60.22 189.52 59.78 Z" />
<path fill="#000000" opacity="0.45" d=" M 228.50 94.99 C 228.98 102.86 228.35 110.75 228.85 118.62 L 229.64 118.65 C 238.73 118.90 247.83 118.67 256.92 118.77 C 257.02 117.08 257.13 115.39 257.26 113.70 C 258.09 115.92 257.92 118.30 257.71 120.62 C 248.01 120.78 238.29 120.92 228.60 120.53 C 228.20 112.03 228.28 103.50 228.50 94.99 Z" />
<path fill="#000000" opacity="0.45" d=" M 296.30 101.33 C 300.55 100.94 304.82 101.63 309.05 100.96 C 312.09 100.63 315.42 100.48 318.22 101.89 C 320.93 104.22 320.92 108.44 319.41 111.45 C 317.44 111.45 315.47 111.47 313.50 111.48 C 311.80 109.40 308.79 106.73 306.33 109.37 C 304.59 112.72 305.88 116.83 305.42 120.49 C 302.42 120.82 299.40 120.83 296.40 120.59 C 295.92 114.18 296.07 107.74 296.30 101.33 M 296.97 101.52 L 297.14 102.76 C 297.03 108.05 297.24 113.33 297.15 118.63 C 299.56 118.71 301.97 118.74 304.39 118.71 C 304.39 115.51 304.40 112.31 304.42 109.11 C 304.89 108.21 305.36 107.31 305.85 106.41 C 307.88 106.29 309.93 106.30 311.97 106.44 C 312.45 107.43 312.95 108.43 313.47 109.42 C 315.46 109.36 317.45 109.33 319.45 109.29 L 319.14 108.12 C 318.97 106.36 319.69 104.15 318.18 102.82 C 316.97 101.18 314.76 101.54 312.99 101.36 C 309.83 101.44 305.43 100.54 304.31 104.50 C 304.25 103.73 304.13 102.21 304.07 101.45 C 301.70 101.44 299.33 101.45 296.97 101.52 Z" />
<path fill="#000000" opacity="0.45" d=" M 358.31 101.30 C 360.21 101.18 362.12 101.14 364.03 101.28 C 369.38 101.75 374.83 100.30 380.11 101.66 C 375.08 101.77 369.14 100.08 365.05 103.87 C 365.08 103.28 365.15 102.09 365.19 101.49 C 363.12 101.49 361.06 101.50 359.00 101.50 C 358.99 103.38 358.99 105.27 359.00 107.15 C 359.00 109.17 359.00 111.18 359.00 113.19 C 358.99 115.08 358.99 116.97 358.99 118.86 C 358.99 120.87 358.99 122.88 358.99 124.89 C 361.12 124.89 363.25 124.90 365.39 124.91 C 365.39 123.18 365.39 121.46 365.37 119.74 C 365.34 118.58 365.30 117.42 365.26 116.26 C 365.84 116.89 366.44 117.53 367.04 118.15 C 371.31 119.77 376.01 119.32 380.39 118.46 C 381.59 117.51 382.61 116.35 383.38 115.03 C 383.38 113.79 383.36 112.56 383.33 111.33 C 383.31 108.50 383.40 105.58 382.11 102.98 C 385.59 105.58 384.19 110.33 384.47 114.04 C 384.98 117.63 381.41 120.84 377.96 120.73 C 374.66 120.98 371.34 120.51 368.04 120.88 C 365.68 121.74 366.83 124.73 366.44 126.65 C 363.76 127.48 360.94 127.50 358.26 126.64 C 358.11 118.19 358.01 109.74 358.31 101.30 Z" />
<path fill="#000000" opacity="0.45" d=" M 324.55 113.96 C 324.57 109.70 323.55 102.99 328.97 101.57 C 327.86 102.61 326.82 103.73 325.86 104.91 C 325.64 106.92 325.54 108.93 325.48 110.94 C 325.60 112.62 325.84 114.29 326.27 115.92 L 326.82 117.04 C 330.38 119.62 334.96 118.59 339.05 118.80 C 342.51 118.65 346.11 119.23 349.46 118.14 C 352.99 116.64 352.53 112.20 352.63 109.04 C 352.47 107.37 352.24 105.70 351.87 104.06 C 353.94 104.84 353.31 107.28 353.52 109.00 C 353.39 112.63 354.56 117.44 350.67 119.57 C 344.54 122.64 337.48 120.57 330.95 120.66 C 327.51 120.75 324.07 117.51 324.55 113.96 Z" />
</g>
<g id="#f7f7f7ff">
<path fill="#f7f7f7" opacity="1.00" d=" M 90.77 53.52 C 101.73 54.67 112.80 53.16 123.75 54.24 C 127.64 56.41 125.48 61.52 125.60 65.08 C 125.26 64.43 124.59 63.12 124.25 62.47 C 123.41 62.41 122.58 62.35 121.74 62.30 C 121.32 63.63 120.91 64.97 120.50 66.32 C 120.11 64.12 119.72 61.92 119.42 59.70 C 112.63 57.60 105.36 59.19 98.37 58.67 C 98.33 60.72 98.31 62.76 98.32 64.81 C 96.22 62.96 93.48 63.26 90.92 63.66 C 90.94 60.28 90.98 56.89 90.77 53.52 Z" />
<path fill="#f7f7f7" opacity="1.00" d=" M 283.73 53.94 C 294.89 53.66 306.08 54.35 317.22 53.57 C 317.20 55.11 317.19 56.65 317.18 58.19 C 308.21 58.45 299.23 58.23 290.26 58.29 C 290.08 60.72 289.91 63.15 289.74 65.57 C 288.49 65.18 287.24 64.78 285.99 64.38 C 285.22 65.65 284.44 66.92 283.71 68.22 C 283.65 63.46 283.65 58.70 283.73 53.94 Z" />
<path fill="#f7f7f7" opacity="1.00" d=" M 329.45 53.51 C 340.66 53.62 351.90 53.22 363.10 53.72 C 366.34 56.49 365.57 61.03 365.66 64.82 C 363.60 64.28 361.55 63.74 359.50 63.21 C 359.01 62.38 358.53 61.54 358.07 60.71 C 357.96 60.38 357.73 59.72 357.61 59.39 C 350.93 57.97 344.03 59.06 337.26 58.63 C 336.94 59.14 336.30 60.17 335.98 60.68 C 334.61 59.66 332.99 59.15 331.33 58.90 C 331.26 60.83 331.21 62.76 331.00 64.67 C 330.55 65.97 330.09 67.26 329.63 68.54 C 329.39 63.53 329.54 58.52 329.45 53.51 Z" />
<path fill="#f7f7f7" opacity="1.00" d=" M 380.07 53.65 L 380.70 53.62 C 390.15 53.67 399.61 53.37 409.06 53.75 C 412.94 54.07 413.19 58.65 413.09 61.63 C 410.84 61.64 408.60 61.64 406.36 61.65 C 406.31 60.91 406.22 59.43 406.17 58.70 C 398.90 58.70 391.64 58.75 384.38 58.66 C 384.23 61.04 384.18 63.43 384.19 65.82 C 383.13 64.93 382.11 63.99 381.09 63.07 C 379.88 63.71 378.68 64.36 377.48 65.00 C 377.52 61.10 376.95 56.64 380.07 53.65 Z" />
</g>
<g id="#f7f8f8ff">
<path fill="#f7f8f8" opacity="1.00" d=" M 139.95 55.02 C 140.41 54.66 141.33 53.95 141.78 53.60 C 151.88 53.45 161.99 53.39 172.09 53.63 C 172.66 54.02 173.79 54.80 174.36 55.18 L 174.35 55.75 C 174.33 59.58 174.10 63.40 173.98 67.23 C 173.31 65.92 172.58 64.65 171.87 63.36 C 170.03 64.54 168.51 66.12 167.47 68.05 C 167.66 65.23 167.62 62.40 167.58 59.58 C 160.82 58.03 153.64 58.50 146.79 59.30 C 144.71 59.40 142.63 59.32 140.55 59.24 C 140.13 62.27 139.56 65.27 138.99 68.27 C 139.19 63.87 138.14 59.20 139.95 55.02 Z" />
</g>
<g id="#ffcc1bff">
<path fill="#ffcc1b" opacity="1.00" d=" M 189.33 53.58 C 200.58 53.63 211.83 53.42 223.08 53.69 C 222.54 58.97 217.10 61.40 214.15 65.26 C 211.19 64.91 208.24 64.56 205.29 64.18 C 205.89 63.57 207.10 62.33 207.70 61.72 C 208.00 61.46 208.60 60.94 208.89 60.69 C 209.25 60.39 209.97 59.79 210.32 59.50 C 205.22 58.96 200.08 59.38 194.97 59.08 C 193.14 59.12 191.31 59.19 189.49 59.28 C 189.40 57.38 189.37 55.48 189.33 53.58 Z" />
<path fill="#ffcc1b" opacity="1.00" d=" M 236.69 53.59 C 248.04 53.35 259.39 53.53 270.74 53.50 C 270.57 54.34 270.25 56.02 270.09 56.86 C 267.85 59.84 264.89 62.16 262.38 64.90 C 259.67 64.18 256.95 63.58 254.20 63.06 C 254.80 62.50 255.98 61.38 256.57 60.82 C 256.97 60.49 257.77 59.84 258.16 59.51 C 251.27 58.75 244.32 59.15 237.41 59.29 C 237.18 57.39 236.91 55.49 236.69 53.59 Z" />
</g>
<g id="#00000066">
<path fill="#000000" opacity="0.40" d=" M 328.26 70.05 C 328.33 64.66 327.98 59.25 328.53 53.88 C 329.43 64.62 328.05 75.51 329.30 86.20 C 331.93 86.12 334.57 86.07 337.21 85.97 C 337.17 81.96 337.19 77.94 337.24 73.92 C 339.56 73.78 341.90 73.80 344.23 73.78 C 345.17 74.62 346.11 75.47 347.05 76.33 C 348.77 77.92 350.49 79.52 352.21 81.14 C 353.92 82.76 355.62 84.39 357.31 86.05 C 361.10 86.17 364.93 86.30 368.70 85.71 L 369.21 85.64 C 369.29 86.61 369.14 87.54 368.75 88.42 C 364.69 88.50 360.60 88.63 356.55 88.31 C 352.48 83.83 348.24 79.47 343.08 76.23 C 341.52 76.30 339.96 76.36 338.41 76.42 C 338.35 80.37 338.39 84.32 338.28 88.28 C 335.06 88.52 331.83 88.53 328.61 88.35 C 327.94 82.26 328.44 76.15 328.26 70.05 Z" />
</g>
<g id="#00000071">
<path fill="#000000" opacity="0.44" d=" M 363.10 53.72 C 367.68 55.53 366.64 61.05 366.78 64.97 C 366.54 67.81 367.21 71.11 365.37 73.54 C 363.64 75.92 359.89 74.95 358.42 77.66 C 356.89 76.43 355.37 75.20 353.83 73.98 C 357.86 73.59 363.46 74.74 365.41 70.11 C 365.55 68.35 365.63 66.58 365.66 64.82 C 365.57 61.03 366.34 56.49 363.10 53.72 Z" />
<path fill="#000000" opacity="0.44" d=" M 317.56 58.61 C 317.93 57.40 318.31 56.19 318.69 54.98 C 318.56 56.78 318.43 58.57 318.32 60.36 C 312.21 60.98 306.07 60.56 299.95 60.66 C 297.08 60.76 293.97 60.13 291.35 61.66 C 291.42 62.58 291.56 64.43 291.63 65.36 C 296.63 65.56 301.62 65.41 306.62 65.52 C 307.59 68.08 307.44 70.83 307.42 73.52 C 302.15 74.80 296.71 73.77 291.40 74.58 C 291.48 76.42 291.56 78.25 291.64 80.09 L 290.61 80.09 C 290.63 77.31 290.61 74.54 290.53 71.76 C 295.73 71.81 300.92 71.79 306.12 71.78 C 306.11 69.92 306.10 68.06 306.09 66.20 C 300.94 66.19 295.78 66.17 290.63 66.22 C 290.62 63.69 290.63 61.16 290.65 58.63 C 299.47 58.66 308.29 58.69 317.12 58.61 L 317.56 58.61 Z" />
</g>
<g id="#00000069">
<path fill="#000000" opacity="0.41" d=" M 376.47 67.02 C 376.68 62.51 375.21 56.25 380.07 53.65 C 376.95 56.64 377.52 61.10 377.48 65.00 C 377.33 68.01 378.50 71.81 381.98 72.22 C 390.19 73.04 398.49 72.36 406.74 72.59 C 406.76 74.98 406.81 77.38 406.67 79.77 L 405.59 79.98 C 405.57 78.41 405.56 76.85 405.54 75.28 C 397.61 73.74 389.41 75.46 381.43 74.33 C 378.28 73.44 376.01 70.33 376.47 67.02 Z" />
</g>
<g id="#b3b4b7ff">
<path fill="#b3b4b7" opacity="1.00" d=" M 174.35 55.75 C 175.85 65.87 174.40 76.09 174.79 86.29 C 172.33 86.27 169.88 86.27 167.43 86.31 C 167.61 85.54 167.98 83.99 168.16 83.21 C 168.60 81.80 169.09 80.40 169.56 79.00 C 171.52 78.92 172.85 80.21 173.95 81.67 C 173.99 80.16 174.05 78.65 174.08 77.14 C 174.16 73.84 174.12 70.53 173.98 67.23 C 174.10 63.40 174.33 59.58 174.35 55.75 Z" />
<path fill="#b3b4b7" opacity="1.00" d=" M 140.16 80.29 C 142.30 79.90 144.43 79.51 146.56 79.11 C 146.56 81.44 146.56 83.77 146.57 86.10 C 144.30 86.10 142.02 86.10 139.75 86.10 C 139.91 84.17 140.05 82.23 140.16 80.29 Z" />
</g>
<g id="#2b210978">
<path fill="#2b2109" opacity="0.47" d=" M 502.41 61.40 C 503.06 59.38 504.14 57.55 505.31 55.78 C 504.43 58.65 503.54 61.51 502.45 64.30 C 500.34 69.93 498.40 75.62 496.33 81.27 C 495.69 83.02 495.04 84.77 494.41 86.53 C 491.10 86.58 487.79 86.59 484.49 86.55 C 483.83 84.80 483.16 83.05 482.51 81.30 C 481.52 78.65 480.54 75.99 479.56 73.34 C 478.55 70.64 477.54 67.95 476.53 65.25 C 475.99 63.79 475.47 62.32 474.99 60.84 C 476.30 62.34 477.18 64.14 477.85 66.00 C 480.25 72.64 482.85 79.20 485.16 85.87 C 488.00 86.05 490.86 86.07 493.71 85.92 C 496.39 77.67 499.60 69.61 502.41 61.40 Z" />
</g>
<g id="#e5e6e7ff">
<path fill="#e5e6e7" opacity="1.00" d=" M 42.64 58.22 C 44.78 59.28 46.97 60.24 49.18 61.14 C 49.10 63.01 49.02 64.89 48.93 66.76 C 46.87 66.20 44.81 65.66 42.74 65.12 C 42.69 62.82 42.63 60.52 42.64 58.22 Z" />
<path fill="#e5e6e7" opacity="1.00" d=" M 331.33 58.90 C 332.99 59.15 334.61 59.66 335.98 60.68 C 335.95 62.58 335.99 64.49 336.03 66.39 C 334.37 65.78 332.68 65.22 331.00 64.67 C 331.21 62.76 331.26 60.83 331.33 58.90 Z" />
</g>
<g id="#d0d1d3ff">
<path fill="#d0d1d3" opacity="1.00" d=" M 49.31 58.22 C 56.23 58.17 63.19 57.76 70.10 58.50 C 63.41 58.50 56.73 58.46 50.05 58.51 C 50.06 61.18 50.03 63.85 50.19 66.52 L 50.32 67.83 C 59.02 68.63 67.73 67.36 76.42 67.68 C 75.52 68.29 74.59 68.85 73.63 69.36 C 75.72 69.59 77.10 71.19 78.53 72.54 C 78.55 74.72 78.63 76.91 78.70 79.09 C 77.54 77.90 76.41 76.67 75.07 75.68 C 73.76 76.33 73.14 77.67 72.37 78.81 C 72.09 76.78 71.77 74.76 71.48 72.73 C 64.54 70.98 57.27 72.01 50.19 71.93 C 49.93 72.15 49.41 72.57 49.16 72.78 C 47.01 72.37 44.93 71.72 42.85 71.08 C 42.80 69.10 42.78 67.11 42.74 65.12 C 44.81 65.66 46.87 66.20 48.93 66.76 C 49.02 64.89 49.10 63.01 49.18 61.14 C 49.21 60.41 49.27 58.95 49.31 58.22 Z" />
<path fill="#d0d1d3" opacity="1.00" d=" M 377.48 65.00 C 378.68 64.36 379.88 63.71 381.09 63.07 C 382.11 63.99 383.13 64.93 384.19 65.82 C 391.47 66.43 398.79 65.80 406.08 66.12 C 408.25 66.18 410.31 66.91 412.33 67.66 C 412.48 67.99 412.78 68.63 412.94 68.96 C 413.10 71.26 413.12 73.57 413.15 75.88 C 410.62 76.51 408.21 77.57 406.67 79.77 C 406.81 77.38 406.76 74.98 406.74 72.59 C 398.49 72.36 390.19 73.04 381.98 72.22 C 378.50 71.81 377.33 68.01 377.48 65.00 Z" />
</g>
<g id="#d1d2d4ff">
<path fill="#d1d2d4" opacity="1.00" d=" M 290.26 58.29 C 299.23 58.23 308.21 58.45 317.18 58.19 L 317.12 58.61 C 308.29 58.69 299.47 58.66 290.65 58.63 C 290.63 61.16 290.62 63.69 290.63 66.22 C 295.78 66.17 300.94 66.19 306.09 66.20 C 306.10 68.06 306.11 69.92 306.12 71.78 C 300.92 71.79 295.73 71.81 290.53 71.76 C 290.21 73.83 289.90 75.90 289.59 77.97 C 289.17 77.00 288.75 76.02 288.33 75.05 C 286.81 75.50 285.32 76.00 283.84 76.55 C 283.75 73.77 283.66 70.99 283.71 68.22 C 284.44 66.92 285.22 65.65 285.99 64.38 C 287.24 64.78 288.49 65.18 289.74 65.57 C 289.91 63.15 290.08 60.72 290.26 58.29 Z" />
</g>
<g id="#0000005c">
<path fill="#000000" opacity="0.36" d=" M 50.05 58.51 C 56.73 58.46 63.41 58.50 70.10 58.50 C 70.43 58.99 71.09 59.97 71.43 60.46 C 71.43 61.77 71.43 63.09 71.43 64.40 C 71.04 65.04 70.64 65.69 70.24 66.33 C 63.56 66.65 56.88 66.41 50.19 66.52 C 50.03 63.85 50.06 61.18 50.05 58.51 M 51.57 60.85 C 51.53 62.39 51.49 63.92 51.46 65.46 C 57.69 65.56 63.95 65.86 70.16 65.26 C 69.74 63.87 70.07 62.11 69.03 60.98 C 63.24 60.39 57.38 60.75 51.57 60.85 Z" />
<path fill="#000000" opacity="0.36" d=" M 396.25 107.39 C 396.81 106.12 397.77 105.00 399.24 104.87 C 402.03 104.66 405.68 103.93 407.57 106.62 L 407.79 107.35 C 403.96 107.74 400.08 107.82 396.25 107.39 Z" />
</g>
<g id="#e5e5e6ff">
<path fill="#e5e5e6" opacity="1.00" d=" M 140.55 59.24 C 142.63 59.32 144.71 59.40 146.79 59.30 C 146.35 62.24 146.43 65.22 146.47 68.19 C 144.34 68.39 142.23 68.71 140.11 69.02 C 140.00 70.66 139.89 72.30 139.70 73.93 C 139.49 75.40 139.22 76.86 139.01 78.33 C 138.97 74.98 138.89 71.62 138.99 68.27 C 139.56 65.27 140.13 62.27 140.55 59.24 Z" />
</g>
<g id="#0000004f">
<path fill="#000000" opacity="0.31" d=" M 146.79 59.30 C 153.64 58.50 160.82 58.03 167.58 59.58 C 167.62 62.40 167.66 65.23 167.47 68.05 C 160.47 68.21 153.47 67.92 146.47 68.19 C 146.43 65.22 146.35 62.24 146.79 59.30 M 148.93 61.75 C 147.58 63.16 148.09 65.35 147.80 67.12 C 153.99 67.32 160.19 67.32 166.38 67.11 C 166.36 65.30 166.30 63.49 166.21 61.69 C 160.46 61.48 154.66 61.13 148.93 61.75 Z" />
<path fill="#000000" opacity="0.31" d=" M 337.26 58.63 C 344.03 59.06 350.93 57.97 357.61 59.39 C 357.73 59.72 357.96 60.38 358.07 60.71 C 357.75 62.94 358.92 66.28 356.86 67.79 C 350.36 68.54 343.77 67.92 337.24 68.10 C 337.19 64.94 337.26 61.78 337.26 58.63 M 338.62 61.62 C 338.55 63.46 338.53 65.30 338.56 67.14 C 344.51 67.37 350.47 67.18 356.43 67.27 C 356.67 65.40 358.04 61.69 355.04 61.59 C 349.57 61.34 344.09 61.44 338.62 61.62 Z" />
</g>
<g id="#d6d7d8ff">
<path fill="#d6d7d8" opacity="1.00" d=" M 335.98 60.68 C 336.30 60.17 336.94 59.14 337.26 58.63 C 337.26 61.78 337.19 64.94 337.24 68.10 C 343.77 67.92 350.36 68.54 356.86 67.79 C 358.92 66.28 357.75 62.94 358.07 60.71 C 358.53 61.54 359.01 62.38 359.50 63.21 C 361.55 63.74 363.60 64.28 365.66 64.82 C 365.63 66.58 365.55 68.35 365.41 70.11 C 353.99 69.79 342.56 70.04 331.14 70.07 C 331.15 71.94 331.17 73.81 331.04 75.68 C 330.59 76.97 330.13 78.25 329.66 79.53 C 329.49 75.88 329.25 72.19 329.63 68.54 C 330.09 67.26 330.55 65.97 331.00 64.67 C 332.68 65.22 334.37 65.78 336.03 66.39 C 335.99 64.49 335.95 62.58 335.98 60.68 Z" />
</g>
<g id="#e0e1e2ff">
<path fill="#e0e1e2" opacity="1.00" d=" M 73.92 60.04 C 75.51 60.61 77.09 61.21 78.66 61.82 C 78.48 63.71 78.82 67.29 76.42 67.68 C 67.73 67.36 59.02 68.63 50.32 67.83 L 50.19 66.52 C 56.88 66.41 63.56 66.65 70.24 66.33 C 70.64 65.69 71.04 65.04 71.43 64.40 C 72.29 62.96 73.11 61.50 73.92 60.04 Z" />
</g>
<g id="#0000003b">
<path fill="#000000" opacity="0.23" d=" M 384.98 60.10 C 391.79 60.09 398.60 59.94 405.41 60.23 C 405.60 60.90 405.97 62.24 406.16 62.91 C 399.74 60.66 392.79 61.76 386.14 61.88 C 385.96 62.79 385.61 64.60 385.43 65.51 C 384.80 63.77 384.96 61.91 384.98 60.10 Z" />
</g>
<g id="#a37a2aff">
<path fill="#a37a2a" opacity="1.00" d=" M 450.48 60.53 C 450.69 60.91 451.11 61.67 451.32 62.05 C 451.63 70.16 451.29 78.29 451.45 86.40 C 454.56 86.38 457.67 86.37 460.78 86.37 C 460.73 79.91 460.80 73.45 460.72 66.99 C 460.68 64.84 460.77 62.66 461.45 60.61 C 461.56 62.32 461.67 64.04 461.72 65.75 C 461.78 68.50 461.77 71.25 461.81 74.00 C 461.85 76.50 461.95 78.99 462.04 81.49 C 468.85 80.95 475.69 81.19 482.51 81.30 C 483.16 83.05 483.83 84.80 484.49 86.55 C 487.79 86.59 491.10 86.58 494.41 86.53 C 495.04 84.77 495.69 83.02 496.33 81.27 C 503.26 82.10 510.33 82.06 517.26 81.28 C 516.84 86.13 516.27 91.03 514.66 95.66 C 514.15 97.10 513.40 98.75 511.72 99.03 C 505.15 100.64 498.44 101.71 491.69 102.12 C 498.25 100.77 505.12 100.70 511.45 98.43 C 511.69 98.04 512.17 97.27 512.40 96.88 C 487.96 96.34 463.50 96.96 439.05 96.62 C 436.76 96.58 434.48 96.65 432.20 96.81 C 431.76 95.56 431.37 94.29 430.98 93.03 C 430.38 89.98 429.86 86.92 429.52 83.84 C 430.92 83.14 432.27 82.11 433.91 82.08 C 439.25 81.77 444.61 82.15 449.94 82.49 C 450.03 80.62 450.12 78.75 450.20 76.88 C 450.25 74.20 450.26 71.52 450.30 68.84 C 450.32 66.07 450.44 63.30 450.48 60.53 Z" />
<path fill="#a37a2a" opacity="1.00" d=" M 367.04 118.15 C 371.49 117.82 375.96 117.88 380.39 118.46 C 376.01 119.32 371.31 119.77 367.04 118.15 Z" />
</g>
<g id="#bb9026ff">
<path fill="#bb9026" opacity="1.00" d=" M 502.45 64.30 C 507.40 62.33 513.46 65.00 517.67 61.18 C 518.00 67.88 517.72 74.59 517.26 81.28 C 510.33 82.06 503.26 82.10 496.33 81.27 C 498.40 75.62 500.34 69.93 502.45 64.30 Z" />
</g>
<g id="#d6a722ff">
<path fill="#d6a722" opacity="1.00" d=" M 254.08 63.04 L 254.20 63.06 C 256.95 63.58 259.67 64.18 262.38 64.90 C 259.08 68.38 255.55 71.63 252.21 75.05 C 249.55 74.87 246.89 74.71 244.24 74.55 C 244.49 73.84 244.75 73.14 245.02 72.44 C 247.88 69.15 251.17 66.28 254.08 63.04 Z" />
</g>
<g id="#d2d3d4ff">
<path fill="#d2d3d4" opacity="1.00" d=" M 167.47 68.05 C 168.51 66.12 170.03 64.54 171.87 63.36 C 172.58 64.65 173.31 65.92 173.98 67.23 C 174.12 70.53 174.16 73.84 174.08 77.14 C 173.23 75.07 171.69 73.36 169.26 73.87 C 168.69 76.96 168.37 80.08 168.16 83.21 C 167.98 83.99 167.61 85.54 167.43 86.31 C 167.52 83.03 167.47 79.75 167.51 76.48 C 167.53 75.81 167.55 74.49 167.56 73.82 C 160.56 73.84 153.55 73.79 146.55 73.85 C 144.27 73.88 141.98 73.91 139.70 73.93 C 139.89 72.30 140.00 70.66 140.11 69.02 C 142.23 68.71 144.34 68.39 146.47 68.19 C 153.47 67.92 160.47 68.21 167.47 68.05 Z" />
</g>
<g id="#d2a422ff">
<path fill="#d2a422" opacity="1.00" d=" M 205.08 64.15 L 205.29 64.18 C 208.24 64.56 211.19 64.91 214.15 65.26 C 210.64 68.99 206.86 72.46 203.28 76.12 C 200.56 75.91 197.84 75.72 195.13 75.53 C 195.43 74.86 195.74 74.19 196.06 73.53 C 198.92 70.26 202.17 67.38 205.08 64.15 Z" />
</g>
<g id="#c19625ff">
<path fill="#c19625" opacity="1.00" d=" M 461.72 65.75 C 466.58 64.55 471.59 65.21 476.53 65.25 C 477.54 67.95 478.55 70.64 479.56 73.34 C 473.71 74.61 467.73 73.71 461.81 74.00 C 461.77 71.25 461.78 68.50 461.72 65.75 Z" />
</g>
<g id="#be9326ff">
<path fill="#be9326" opacity="1.00" d=" M 429.16 68.87 C 432.57 66.21 436.98 66.92 441.00 66.86 C 444.20 66.89 447.74 66.52 450.30 68.84 C 450.26 71.52 450.25 74.20 450.20 76.88 C 447.72 74.47 444.18 74.94 441.04 74.90 C 437.03 74.95 432.68 74.32 429.23 76.83 C 429.19 74.18 429.17 71.53 429.16 68.87 Z" />
</g>
<g id="#cacbcdff">
<path fill="#cacbcd" opacity="1.00" d=" M 331.14 70.07 C 342.56 70.04 353.99 69.79 365.41 70.11 C 363.46 74.74 357.86 73.59 353.83 73.98 C 351.51 74.57 349.27 75.46 347.05 76.33 C 346.11 75.47 345.17 74.62 344.23 73.78 C 341.90 73.80 339.56 73.78 337.24 73.92 L 336.31 74.27 C 336.13 75.30 335.96 76.34 335.82 77.38 C 334.22 76.82 332.62 76.26 331.04 75.68 C 331.17 73.81 331.15 71.94 331.14 70.07 Z" />
</g>
<g id="#bfc1c3ff">
<path fill="#bfc1c3" opacity="1.00" d=" M 42.85 71.08 C 44.93 71.72 47.01 72.37 49.16 72.78 C 49.07 75.12 49.04 77.47 48.97 79.81 C 47.26 79.26 45.33 79.12 43.86 78.03 C 42.90 75.86 43.02 73.41 42.85 71.08 Z" />
</g>
<g id="#bc9026ff">
<path fill="#bc9026" opacity="1.00" d=" M 237.28 80.13 C 239.95 77.66 242.19 74.74 245.02 72.44 C 244.75 73.14 244.49 73.84 244.24 74.55 C 246.89 74.71 249.55 74.87 252.21 75.05 C 250.62 76.67 249.05 78.31 247.44 79.91 C 244.22 81.45 240.63 80.91 237.28 80.13 Z" />
</g>
<g id="#b98e26ff">
<path fill="#b98e26" opacity="1.00" d=" M 189.31 80.30 C 191.62 78.10 193.53 75.48 196.06 73.53 C 195.74 74.19 195.43 74.86 195.13 75.53 C 197.84 75.72 200.56 75.91 203.28 76.12 C 202.04 77.39 200.80 78.67 199.52 79.91 C 196.32 81.57 192.68 81.03 189.31 80.30 Z" />
</g>
<g id="#b48927ff">
<path fill="#b48927" opacity="1.00" d=" M 479.56 73.34 C 480.54 75.99 481.52 78.65 482.51 81.30 C 475.69 81.19 468.85 80.95 462.04 81.49 C 461.95 78.99 461.85 76.50 461.81 74.00 C 467.73 73.71 473.71 74.61 479.56 73.34 Z" />
</g>
<g id="#c3c4c6ff">
<path fill="#c3c4c6" opacity="1.00" d=" M 139.70 73.93 C 141.98 73.91 144.27 73.88 146.55 73.85 C 146.55 75.61 146.56 77.36 146.56 79.11 C 144.43 79.51 142.30 79.90 140.16 80.29 C 140.05 82.23 139.91 84.17 139.75 86.10 L 138.93 86.10 C 138.94 83.51 138.94 80.92 139.01 78.33 C 139.22 76.86 139.49 75.40 139.70 73.93 Z" />
<path fill="#c3c4c6" opacity="1.00" d=" M 169.26 73.87 C 171.69 73.36 173.23 75.07 174.08 77.14 C 174.05 78.65 173.99 80.16 173.95 81.67 C 172.85 80.21 171.52 78.92 169.56 79.00 C 169.09 80.40 168.60 81.80 168.16 83.21 C 168.37 80.08 168.69 76.96 169.26 73.87 Z" />
</g>
<g id="#adafb2ff">
<path fill="#adafb2" opacity="1.00" d=" M 336.31 74.27 L 337.24 73.92 C 337.19 77.94 337.17 81.96 337.21 85.97 C 334.57 86.07 331.93 86.12 329.30 86.20 C 329.48 83.98 329.22 81.72 329.66 79.53 C 330.13 78.25 330.59 76.97 331.04 75.68 C 332.62 76.26 334.22 76.82 335.82 77.38 C 335.96 76.34 336.13 75.30 336.31 74.27 Z" />
</g>
<g id="#b9bbbdff">
<path fill="#b9bbbd" opacity="1.00" d=" M 347.05 76.33 C 349.27 75.46 351.51 74.57 353.83 73.98 C 355.37 75.20 356.89 76.43 358.42 77.66 C 358.93 78.08 359.94 78.90 360.45 79.31 C 357.68 79.84 354.94 80.46 352.21 81.14 C 350.49 79.52 348.77 77.92 347.05 76.33 Z" />
<path fill="#b9bbbd" opacity="1.00" d=" M 90.91 75.75 C 93.52 74.54 96.32 74.52 98.32 76.83 C 98.33 78.15 98.33 79.47 98.34 80.79 C 96.21 78.90 93.48 79.13 90.92 79.80 C 90.91 78.45 90.91 77.10 90.91 75.75 Z" />
</g>
<g id="#b6b8baff">
<path fill="#b6b8ba" opacity="1.00" d=" M 115.83 74.99 L 116.68 74.72 C 118.46 76.59 120.43 78.27 122.41 79.92 C 119.82 80.74 117.22 81.54 114.56 82.15 C 112.79 80.53 111.04 78.88 109.33 77.20 C 111.49 76.47 113.64 75.68 115.83 74.99 Z" />
</g>
<g id="#b28828ff">
<path fill="#b28828" opacity="1.00" d=" M 429.23 76.83 C 432.68 74.32 437.03 74.95 441.04 74.90 C 444.18 74.94 447.72 74.47 450.20 76.88 C 450.12 78.75 450.03 80.62 449.94 82.49 C 444.61 82.15 439.25 81.77 433.91 82.08 C 432.27 82.11 430.92 83.14 429.52 83.84 C 429.35 81.51 429.28 79.17 429.23 76.83 Z" />
</g>
<g id="#a7a9acff">
<path fill="#a7a9ac" opacity="1.00" d=" M 122.41 79.92 L 122.61 79.85 C 124.76 82.13 127.91 83.51 129.53 86.17 C 126.09 86.03 122.62 86.35 119.20 85.92 C 118.84 85.71 118.13 85.29 117.77 85.08 C 116.71 84.10 115.64 83.12 114.56 82.15 C 117.22 81.54 119.82 80.74 122.41 79.92 Z" />
<path fill="#a7a9ac" opacity="1.00" d=" M 360.45 79.31 L 360.66 79.27 C 363.23 81.55 365.88 83.73 368.70 85.71 C 364.93 86.30 361.10 86.17 357.31 86.05 C 355.62 84.39 353.92 82.76 352.21 81.14 C 354.94 80.46 357.68 79.84 360.45 79.31 Z" />
</g>
<g id="#a87f29ff">
<path fill="#a87f29" opacity="1.00" d=" M 189.31 80.30 C 192.68 81.03 196.32 81.57 199.52 79.91 C 200.55 79.94 201.57 79.97 202.60 80.00 C 209.28 80.20 215.97 80.00 222.65 80.10 C 222.65 82.07 222.65 84.05 222.66 86.02 C 210.89 86.15 199.13 86.06 187.36 86.07 C 187.41 84.65 187.46 83.22 187.50 81.80 C 188.10 81.30 188.71 80.80 189.31 80.30 Z" />
<path fill="#a87f29" opacity="1.00" d=" M 237.28 80.13 C 240.63 80.91 244.22 81.45 247.44 79.91 C 248.46 79.89 249.49 79.91 250.52 79.96 C 257.17 80.10 263.87 80.34 270.51 79.79 C 270.45 81.88 270.46 83.98 270.48 86.07 C 258.70 86.08 246.91 86.09 235.13 86.07 C 235.35 84.45 235.58 82.83 235.87 81.23 C 236.23 80.96 236.93 80.41 237.28 80.13 Z" />
</g>
<g id="#f9c61dff">
<path fill="#f9c61d" opacity="1.00" d=" M 229.43 94.54 C 238.63 94.28 247.87 94.19 257.07 94.59 C 256.86 96.17 256.84 97.76 256.79 99.35 C 250.06 99.44 243.34 99.21 236.62 99.51 C 236.67 100.91 236.72 102.31 236.77 103.71 C 243.01 103.84 249.26 103.75 255.51 103.79 L 255.53 104.81 C 249.17 104.30 242.78 105.09 236.46 104.21 C 234.76 104.01 233.05 104.08 231.35 104.18 C 231.00 101.58 230.53 99.00 229.87 96.47 C 229.76 95.98 229.54 95.02 229.43 94.54 Z" />
</g>
<g id="#0000006c">
<path fill="#000000" opacity="0.42" d=" M 257.07 94.59 L 257.46 93.86 C 257.94 96.38 257.83 98.96 257.53 101.51 C 251.32 101.72 245.10 101.32 238.90 101.67 C 238.63 101.99 238.09 102.62 237.82 102.93 C 243.77 103.50 249.79 102.65 255.73 103.42 C 257.46 105.24 256.38 108.11 256.34 110.36 C 250.37 110.77 244.38 110.38 238.41 110.62 L 238.42 112.40 C 244.68 113.03 251.20 111.61 257.31 113.09 C 250.60 113.34 243.88 113.37 237.18 113.16 C 236.23 111.34 236.74 109.65 238.11 108.28 C 243.91 108.59 249.72 108.55 255.53 108.39 L 255.54 107.91 C 255.54 107.14 255.53 105.59 255.53 104.81 L 255.51 103.79 C 249.26 103.75 243.01 103.84 236.77 103.71 C 236.72 102.31 236.67 100.91 236.62 99.51 C 243.34 99.21 250.06 99.44 256.79 99.35 C 256.84 97.76 256.86 96.17 257.07 94.59 Z" />
</g>
<g id="#c49f23ff">
<path fill="#c49f23" opacity="1.00" d=" M 432.20 96.81 C 434.48 96.65 436.76 96.58 439.05 96.62 C 463.50 96.96 487.96 96.34 512.40 96.88 C 512.17 97.27 511.69 98.04 511.45 98.43 C 505.12 100.70 498.25 100.77 491.69 102.12 C 491.47 102.13 491.03 102.16 490.80 102.17 C 489.30 101.36 487.78 100.41 486.00 100.59 C 477.31 100.60 468.62 100.64 459.94 100.60 C 458.18 100.42 456.71 101.40 455.26 102.19 C 449.60 101.86 444.00 100.90 438.44 99.85 C 436.20 99.25 433.41 99.14 432.20 96.81 Z" />
</g>
<g id="#d2a423ff">
<path fill="#d2a423" opacity="1.00" d=" M 229.87 96.47 C 230.53 99.00 231.00 101.58 231.35 104.18 C 233.05 104.08 234.76 104.01 236.46 104.21 C 242.78 105.09 249.17 104.30 255.53 104.81 C 255.53 105.59 255.54 107.14 255.54 107.91 C 248.92 108.16 242.30 107.73 235.68 108.10 C 235.21 110.22 232.66 109.36 231.16 109.80 C 230.66 108.42 230.17 107.04 229.73 105.65 C 229.47 102.59 229.61 99.51 229.87 96.47 Z" />
</g>
<g id="#5b490a7b">
<path fill="#5b490a" opacity="0.48" d=" M 393.80 101.63 C 399.33 100.15 405.16 100.72 410.79 101.29 L 410.63 102.16 C 405.08 101.04 399.41 101.59 393.80 101.63 Z" />
</g>
<g id="#fad51fff">
<path fill="#fad51f" opacity="1.00" d=" M 455.26 102.19 C 456.71 101.40 458.18 100.42 459.94 100.60 C 468.62 100.64 477.31 100.60 486.00 100.59 C 487.78 100.41 489.30 101.36 490.80 102.17 C 478.96 102.59 467.10 102.54 455.26 102.19 Z" />
</g>
<g id="#f5c31dff">
<path fill="#f5c31d" opacity="1.00" d=" M 263.17 101.60 C 265.53 101.58 267.90 101.56 270.27 101.54 C 270.25 104.06 270.18 106.58 270.24 109.11 C 269.44 108.19 268.69 107.22 267.78 106.41 C 266.26 106.39 264.74 106.61 263.23 106.76 C 263.22 105.04 263.19 103.32 263.17 101.60 Z" />
<path fill="#f5c31d" opacity="1.00" d=" M 282.66 101.55 C 285.00 101.56 287.33 101.57 289.67 101.59 C 289.66 103.35 289.65 105.12 289.65 106.89 C 288.08 106.22 286.49 105.61 284.86 105.11 C 284.19 106.61 283.52 108.12 282.89 109.64 C 282.79 106.94 282.69 104.25 282.66 101.55 Z" />
<path fill="#f5c31d" opacity="1.00" d=" M 359.00 101.50 C 361.06 101.50 363.12 101.49 365.19 101.49 C 365.15 102.09 365.08 103.28 365.05 103.87 C 369.14 100.08 375.08 101.77 380.11 101.66 C 380.61 101.99 381.61 102.65 382.11 102.98 C 383.40 105.58 383.31 108.50 383.33 111.33 C 382.55 109.58 381.77 107.81 380.58 106.31 C 379.14 106.38 377.72 106.68 376.31 106.90 C 372.98 106.06 369.52 106.36 366.14 106.64 C 363.76 106.84 361.38 107.01 359.00 107.15 C 358.99 105.27 358.99 103.38 359.00 101.50 Z" />
</g>
<g id="#f4c11cff">
<path fill="#f4c11c" opacity="1.00" d=" M 296.97 101.52 C 299.33 101.45 301.70 101.44 304.07 101.45 C 304.13 102.21 304.25 103.73 304.31 104.50 C 305.43 100.54 309.83 101.44 312.99 101.36 C 314.76 101.54 316.97 101.18 318.18 102.82 C 319.69 104.15 318.97 106.36 319.14 108.12 C 317.16 105.52 313.67 105.57 310.72 105.23 C 306.32 105.16 301.97 106.29 297.54 105.95 C 297.42 104.88 297.28 103.82 297.14 102.76 L 296.97 101.52 Z" />
</g>
<g id="#f3c11cff">
<path fill="#f3c11c" opacity="1.00" d=" M 328.97 101.57 C 334.96 101.16 340.98 101.16 346.98 101.44 C 348.61 101.44 350.02 102.31 351.45 102.99 C 351.25 103.64 350.85 104.95 350.64 105.61 C 348.91 105.98 347.17 106.34 345.44 106.69 C 341.61 105.04 337.07 104.93 333.21 106.53 C 330.74 106.06 328.29 105.52 325.86 104.91 C 326.82 103.73 327.86 102.61 328.97 101.57 Z" />
</g>
<g id="#f3c11dff">
<path fill="#f3c11d" opacity="1.00" d=" M 391.98 102.92 C 392.44 102.60 393.35 101.95 393.80 101.63 C 399.41 101.59 405.08 101.04 410.63 102.16 C 411.86 102.44 412.55 103.52 413.10 104.56 L 413.19 105.92 C 411.31 106.16 409.44 106.40 407.57 106.62 C 405.68 103.93 402.03 104.66 399.24 104.87 C 397.77 105.00 396.81 106.12 396.25 107.39 C 395.21 107.02 394.20 106.60 393.19 106.19 C 392.28 106.81 391.37 107.44 390.47 108.06 C 390.54 106.24 390.99 104.46 391.98 102.92 Z" />
</g>
<g id="#bb8f26ff">
<path fill="#bb8f26" opacity="1.00" d=" M 297.14 102.76 C 297.28 103.82 297.42 104.88 297.54 105.95 C 297.71 107.58 297.86 109.21 298.00 110.84 C 300.16 110.36 302.30 109.77 304.42 109.11 C 304.40 112.31 304.39 115.51 304.39 118.71 C 301.97 118.74 299.56 118.71 297.15 118.63 C 297.24 113.33 297.03 108.05 297.14 102.76 Z" />
</g>
<g id="#deaf20ff">
<path fill="#deaf20" opacity="1.00" d=" M 351.45 102.99 C 351.56 103.26 351.76 103.79 351.87 104.06 C 352.24 105.70 352.47 107.37 352.63 109.04 C 350.29 109.89 347.94 110.73 345.76 111.93 C 345.71 110.18 345.57 108.43 345.44 106.69 C 347.17 106.34 348.91 105.98 350.64 105.61 C 350.85 104.95 351.25 103.64 351.45 102.99 Z" />
<path fill="#deaf20" opacity="1.00" d=" M 376.31 106.90 C 377.72 106.68 379.14 106.38 380.58 106.31 C 381.77 107.81 382.55 109.58 383.33 111.33 C 383.36 112.56 383.38 113.79 383.38 115.03 C 381.77 114.08 380.15 113.17 378.52 112.28 C 377.86 110.78 377.21 109.28 376.63 107.76 L 376.31 106.90 Z" />
</g>
<g id="#0000005b">
<path fill="#000000" opacity="0.36" d=" M 389.16 110.00 C 389.29 107.51 389.13 103.96 391.98 102.92 C 390.99 104.46 390.54 106.24 390.47 108.06 C 390.46 110.31 390.49 112.56 390.56 114.82 C 391.39 116.20 392.38 117.57 393.82 118.38 C 399.41 119.83 405.63 119.85 411.20 118.33 C 413.04 117.23 413.12 115.02 413.49 113.14 C 411.54 113.14 409.60 113.15 407.66 113.20 C 405.85 116.15 401.92 115.39 399.02 115.13 C 396.92 115.13 396.85 112.94 396.30 111.46 C 401.96 111.24 407.63 111.40 413.29 111.30 C 413.27 109.51 413.26 107.71 413.19 105.92 L 413.10 104.56 C 413.43 104.81 414.08 105.30 414.41 105.55 C 414.70 109.53 414.57 113.56 414.36 117.55 C 412.19 121.74 406.89 120.84 402.98 120.97 C 399.04 120.69 394.28 121.88 391.18 118.77 C 388.53 116.68 389.38 112.93 389.16 110.00 Z" />
</g>
<g id="#cfa122ff">
<path fill="#cfa122" opacity="1.00" d=" M 284.86 105.11 C 286.49 105.61 288.08 106.22 289.65 106.89 C 289.64 109.89 289.57 112.89 289.62 115.89 C 287.34 113.88 284.30 113.34 281.36 113.53 L 281.70 112.69 C 282.11 111.68 282.51 110.66 282.89 109.64 C 283.52 108.12 284.19 106.61 284.86 105.11 Z" />
<path fill="#cfa122" opacity="1.00" d=" M 263.23 106.76 C 264.74 106.61 266.26 106.39 267.78 106.41 C 268.69 107.22 269.44 108.19 270.24 109.11 C 270.34 110.68 270.58 112.24 270.85 113.79 C 268.34 113.66 265.82 113.79 263.32 113.95 C 263.23 111.55 263.24 109.16 263.23 106.76 Z" />
</g>
<g id="#deaf21ff">
<path fill="#deaf21" opacity="1.00" d=" M 297.54 105.95 C 301.97 106.29 306.32 105.16 310.72 105.23 C 313.67 105.57 317.16 105.52 319.14 108.12 L 319.45 109.29 C 317.45 109.33 315.46 109.36 313.47 109.42 C 312.95 108.43 312.45 107.43 311.97 106.44 C 309.93 106.30 307.88 106.29 305.85 106.41 C 305.36 107.31 304.89 108.21 304.42 109.11 C 302.30 109.77 300.16 110.36 298.00 110.84 C 297.86 109.21 297.71 107.58 297.54 105.95 Z" />
<path fill="#deaf21" opacity="1.00" d=" M 325.48 110.94 C 325.54 108.93 325.64 106.92 325.86 104.91 C 328.29 105.52 330.74 106.06 333.21 106.53 C 332.70 108.21 332.50 109.95 332.44 111.69 C 331.35 111.00 330.24 110.38 329.13 109.76 C 327.91 110.15 326.70 110.55 325.48 110.94 Z" />
<path fill="#deaf21" opacity="1.00" d=" M 359.00 107.15 C 361.38 107.01 363.76 106.84 366.14 106.64 L 365.79 107.91 C 365.31 109.56 364.83 111.21 364.37 112.87 C 362.58 112.98 360.79 113.08 359.00 113.19 C 359.00 111.18 359.00 109.17 359.00 107.15 Z" />
</g>
<g id="#ad8329ff">
<path fill="#ad8329" opacity="1.00" d=" M 229.73 105.65 C 230.17 107.04 230.66 108.42 231.16 109.80 C 232.66 109.36 235.21 110.22 235.68 108.10 C 242.30 107.73 248.92 108.16 255.54 107.91 L 255.53 108.39 C 249.72 108.55 243.91 108.59 238.11 108.28 C 236.74 109.65 236.23 111.34 237.18 113.16 C 243.88 113.37 250.60 113.34 257.31 113.09 L 257.26 113.70 C 257.13 115.39 257.02 117.08 256.92 118.77 C 247.83 118.67 238.73 118.90 229.64 118.65 C 229.64 114.31 229.50 109.98 229.73 105.65 Z" />
</g>
<g id="#d7a823ff">
<path fill="#d7a823" opacity="1.00" d=" M 390.47 108.06 C 391.37 107.44 392.28 106.81 393.19 106.19 C 394.20 106.60 395.21 107.02 396.25 107.39 C 400.08 107.82 403.96 107.74 407.79 107.35 L 407.57 106.62 C 409.44 106.40 411.31 106.16 413.19 105.92 C 413.26 107.71 413.27 109.51 413.29 111.30 C 407.63 111.40 401.96 111.24 396.30 111.46 L 396.28 111.46 C 396.04 112.37 395.82 113.29 395.61 114.22 C 393.91 114.25 392.22 114.44 390.56 114.82 C 390.49 112.56 390.46 110.31 390.47 108.06 Z" />
</g>
<g id="#c69a25ff">
<path fill="#c69a25" opacity="1.00" d=" M 364.37 112.87 C 364.83 111.21 365.31 109.56 365.79 107.91 C 365.60 109.73 365.03 111.92 366.28 113.49 C 369.50 115.10 373.25 114.47 376.56 113.49 C 376.61 111.58 376.66 109.67 376.63 107.76 C 377.21 109.28 377.86 110.78 378.52 112.28 C 380.15 113.17 381.77 114.08 383.38 115.03 C 382.61 116.35 381.59 117.51 380.39 118.46 C 375.96 117.88 371.49 117.82 367.04 118.15 C 366.44 117.53 365.84 116.89 365.26 116.26 C 365.30 117.42 365.34 118.58 365.37 119.74 C 363.24 119.45 361.11 119.16 358.99 118.86 C 358.99 116.97 358.99 115.08 359.00 113.19 C 360.79 113.08 362.58 112.98 364.37 112.87 Z" />
</g>
<g id="#b08628ff">
<path fill="#b08628" opacity="1.00" d=" M 345.76 111.93 C 347.94 110.73 350.29 109.89 352.63 109.04 C 352.53 112.20 352.99 116.64 349.46 118.14 C 346.11 119.23 342.51 118.65 339.05 118.80 C 334.96 118.59 330.38 119.62 326.82 117.04 L 326.27 115.92 C 328.50 114.72 330.86 113.65 333.42 113.43 L 333.67 113.48 C 337.18 114.47 340.91 114.59 344.45 113.60 L 344.67 113.32 C 344.94 112.97 345.48 112.28 345.76 111.93 Z" />
</g>
<g id="#c59824ff">
<path fill="#c59824" opacity="1.00" d=" M 325.48 110.94 C 326.70 110.55 327.91 110.15 329.13 109.76 C 330.24 110.38 331.35 111.00 332.44 111.69 C 332.69 112.12 333.18 112.99 333.42 113.43 C 330.86 113.65 328.50 114.72 326.27 115.92 C 325.84 114.29 325.60 112.62 325.48 110.94 Z" />
</g>
<g id="#b28728ff">
<path fill="#b28728" opacity="1.00" d=" M 396.28 111.46 L 396.30 111.46 C 396.85 112.94 396.92 115.13 399.02 115.13 C 401.92 115.39 405.85 116.15 407.66 113.20 C 409.60 113.15 411.54 113.14 413.49 113.14 C 413.12 115.02 413.04 117.23 411.20 118.33 C 405.42 118.78 399.61 118.78 393.82 118.38 C 392.38 117.57 391.39 116.20 390.56 114.82 C 392.22 114.44 393.91 114.25 395.61 114.22 C 395.82 113.29 396.04 112.37 396.28 111.46 Z" />
</g>
<g id="#ae8528ff">
<path fill="#ae8528" opacity="1.00" d=" M 281.18 113.55 L 281.36 113.53 C 284.30 113.34 287.34 113.88 289.62 115.89 C 289.64 116.60 289.68 118.01 289.70 118.72 C 287.58 118.79 285.47 118.84 283.36 118.91 C 283.08 118.42 282.53 117.44 282.26 116.95 C 278.49 120.01 273.31 118.57 268.86 118.70 C 266.05 118.85 264.00 116.47 263.32 113.95 C 265.82 113.79 268.34 113.66 270.85 113.79 C 274.29 114.25 277.79 114.48 281.18 113.55 Z" />
</g>
<g id="#493712b7">
<path fill="#493712" opacity="0.72" d=" M 393.82 118.38 C 399.61 118.78 405.42 118.78 411.20 118.33 C 405.63 119.85 399.41 119.83 393.82 118.38 Z" />
</g>
<g id="#a98029ff">
<path fill="#a98029" opacity="1.00" d=" M 358.99 118.86 C 361.11 119.16 363.24 119.45 365.37 119.74 C 365.39 121.46 365.39 123.18 365.39 124.91 C 363.25 124.90 361.12 124.89 358.99 124.89 C 358.99 122.88 358.99 120.87 358.99 118.86 Z" />
</g>
</svg>
