<?xml version="1.0" encoding="UTF-8" standalone="yes"?>
<svg xmlns="http://www.w3.org/2000/svg" xmlns:xlink="http://www.w3.org/1999/xlink" width="373.3333333333333px" height="106.66666666666666px" viewBox="0 0 280 80" version="1.1">
  <g id="surface1">
    <path style=" stroke:none;fill-rule:nonzero;fill:rgb(94.117647%,74.509804%,11.764706%);fill-opacity:1;" d="M 217.511719 18.441406 C 222.769531 17.351562 228.125 16.761719 233.5 16.785156 C 241.238281 16.703125 249.109375 16.703125 256.628906 18.785156 C 256.976562 19.464844 257.320312 20.140625 257.601562 20.851562 C 257.675781 21.214844 257.824219 21.945312 257.898438 22.308594 C 257.746094 23.125 257.566406 23.941406 257.390625 24.75 C 256.324219 25.003906 255.265625 25.261719 254.195312 25.496094 C 254.039062 25.460938 253.726562 25.390625 253.566406 25.359375 C 252.128906 25.191406 250.679688 25.226562 249.238281 25.226562 C 249.074219 25.636719 248.914062 26.046875 248.753906 26.453125 C 246.160156 25.636719 243.429688 25.875 240.761719 26.050781 C 240.570312 25.480469 240.191406 25.101562 239.550781 25.238281 C 232.910156 25.238281 226.269531 25.238281 219.628906 25.25 C 219.386719 25.71875 219.144531 26.191406 218.90625 26.664062 C 217.976562 26.171875 216.953125 25.953125 215.90625 26.074219 C 215.484375 26.800781 215.066406 27.523438 214.679688 28.269531 C 214.816406 25.390625 215.09375 22.441406 216.203125 19.753906 C 216.40625 19.121094 216.96875 18.765625 217.511719 18.441406 Z M 217.511719 18.441406 "/>
    <path style=" stroke:none;fill-rule:nonzero;fill:rgb(9.019608%,9.019608%,9.019608%);fill-opacity:0.509804;" d="M 215.96875 19.371094 C 216.164062 18.671875 216.941406 18.65625 217.511719 18.441406 C 216.96875 18.765625 216.40625 19.121094 216.203125 19.753906 C 215.09375 22.441406 214.816406 25.390625 214.679688 28.269531 C 214.566406 30.320312 214.59375 32.378906 214.578125 34.433594 C 214.585938 35.765625 214.59375 37.089844 214.613281 38.414062 C 214.640625 39.585938 214.675781 40.753906 214.761719 41.921875 C 214.929688 43.460938 215.191406 44.988281 215.488281 46.515625 C 215.199219 45.804688 214.875 45.113281 214.585938 44.414062 C 214.078125 43.003906 214.394531 41.464844 214.175781 40.003906 C 213.511719 34.84375 213.984375 29.636719 214.5 24.484375 C 214.796875 22.734375 215.148438 20.960938 215.96875 19.371094 Z M 215.96875 19.371094 "/>
    <path style=" stroke:none;fill-rule:nonzero;fill:rgb(9.019608%,9.019608%,9.019608%);fill-opacity:0.509804;" d="M 190.351562 26.808594 C 194.023438 26.25 197.78125 26.734375 201.496094 26.566406 C 203.109375 26.699219 205.25 26.015625 206.355469 27.59375 C 207.105469 28.835938 206.789062 30.398438 206.835938 31.785156 C 205.613281 31.773438 204.394531 31.78125 203.175781 31.785156 L 203.078125 31.453125 C 202.984375 31.121094 202.800781 30.449219 202.703125 30.113281 C 199.300781 29.96875 195.894531 30.046875 192.488281 30.050781 C 192.480469 30.953125 192.398438 31.886719 192.714844 32.753906 C 196.148438 32.726562 199.585938 32.695312 203.015625 32.734375 C 204.148438 32.726562 205.351562 32.980469 206.164062 33.828125 C 205.15625 33.453125 204.125 33.089844 203.039062 33.058594 C 199.394531 32.898438 195.734375 33.214844 192.09375 32.910156 C 192.089844 31.714844 192.113281 30.519531 192.191406 29.328125 C 195.820312 29.375 199.449219 29.351562 203.085938 29.351562 C 203.109375 29.714844 203.15625 30.453125 203.179688 30.824219 C 204.300781 30.820312 205.421875 30.820312 206.546875 30.816406 C 206.59375 29.324219 206.46875 27.035156 204.53125 26.875 C 199.804688 26.683594 195.074219 26.835938 190.351562 26.808594 Z M 190.351562 26.808594 "/>
    <path style=" stroke:none;fill-rule:nonzero;fill:rgb(0%,0%,0%);fill-opacity:0.419608;" d="M 257.601562 20.851562 C 258.703125 22.136719 258.683594 23.894531 258.941406 25.476562 C 259.429688 28.621094 259.320312 31.816406 259.375 34.988281 C 259.320312 40.070312 259.410156 45.421875 257.121094 50.089844 C 255.949219 50.53125 254.785156 51.039062 253.535156 51.179688 C 249.863281 51.605469 246.230469 52.464844 242.515625 52.300781 C 233.761719 52.183594 224.710938 53.023438 216.28125 50.195312 C 215.070312 48.535156 214.695312 46.425781 214.585938 44.414062 C 214.875 45.113281 215.199219 45.804688 215.488281 46.515625 C 215.683594 47.144531 215.878906 47.78125 216.101562 48.40625 C 216.703125 49.570312 218.101562 49.625 219.21875 49.925781 C 222 50.449219 224.800781 50.929688 227.628906 51.09375 C 233.550781 51.269531 239.480469 51.296875 245.398438 51.085938 C 245.515625 51.078125 245.734375 51.066406 245.84375 51.058594 C 249.21875 50.855469 252.574219 50.320312 255.859375 49.515625 C 256.699219 49.375 257.074219 48.550781 257.328125 47.828125 C 258.136719 45.515625 258.421875 43.066406 258.628906 40.640625 C 258.859375 37.296875 259 33.941406 258.835938 30.589844 C 258.675781 27.816406 258.515625 25.03125 257.898438 22.308594 C 257.824219 21.945312 257.675781 21.214844 257.601562 20.851562 Z M 257.601562 20.851562 "/>
    <path style=" stroke:none;fill-rule:nonzero;fill:rgb(83.921569%,65.882353%,13.333333%);fill-opacity:1;" d="M 257.898438 22.308594 C 258.515625 25.03125 258.675781 27.816406 258.835938 30.589844 C 256.730469 32.5 253.699219 31.164062 251.226562 32.148438 C 251.769531 30.753906 252.214844 29.324219 252.65625 27.890625 C 252.695312 27.785156 252.78125 27.570312 252.824219 27.460938 C 253.085938 26.765625 253.324219 26.058594 253.566406 25.359375 C 253.726562 25.390625 254.039062 25.460938 254.195312 25.496094 C 255.265625 25.261719 256.324219 25.003906 257.390625 24.75 C 257.566406 23.941406 257.746094 23.125 257.898438 22.308594 Z M 257.898438 22.308594 "/>
    <path style=" stroke:none;fill-rule:nonzero;fill:rgb(4.705882%,3.921569%,0.392157%);fill-opacity:0.478431;" d="M 219.628906 25.25 C 226.269531 25.238281 232.910156 25.238281 239.550781 25.238281 C 240.191406 25.101562 240.570312 25.480469 240.761719 26.050781 C 242.011719 29.84375 243.363281 33.609375 244.820312 37.328125 C 246.046875 33.675781 247.464844 30.089844 248.753906 26.453125 C 248.914062 26.046875 249.074219 25.636719 249.238281 25.226562 C 250.679688 25.226562 252.128906 25.191406 253.566406 25.359375 C 253.324219 26.058594 253.085938 26.765625 252.824219 27.460938 C 252.574219 27.039062 252.335938 26.613281 252.09375 26.195312 C 251.050781 26.320312 249.46875 25.953125 249.195312 27.359375 C 247.808594 31.050781 246.484375 34.761719 245.195312 38.480469 C 244.703125 38.128906 244.113281 37.824219 243.914062 37.21875 C 242.660156 33.910156 241.703125 30.484375 240.34375 27.21875 C 240.023438 26.175781 238.855469 26.25 237.984375 26.253906 C 232.066406 26.308594 226.140625 26.246094 220.214844 26.296875 C 220.179688 27.390625 220.148438 28.484375 220.109375 29.574219 C 221.75 29.605469 223.414062 29.523438 225.03125 29.886719 C 223.21875 29.964844 221.410156 29.945312 219.601562 29.90625 C 219.578125 28.355469 219.59375 26.800781 219.628906 25.25 Z M 219.628906 25.25 "/>
    <path style=" stroke:none;fill-rule:nonzero;fill:rgb(80.784314%,62.745098%,13.72549%);fill-opacity:1;" d="M 218.90625 26.664062 C 219.144531 26.191406 219.386719 25.71875 219.628906 25.25 C 219.59375 26.800781 219.578125 28.355469 219.601562 29.90625 C 221.410156 29.945312 223.21875 29.964844 225.03125 29.886719 L 225.238281 30.265625 C 225.21875 31.648438 225.160156 33.035156 225.148438 34.421875 C 223.871094 33.261719 222.101562 33.445312 220.5 33.429688 C 218.488281 33.460938 216.285156 33.105469 214.578125 34.433594 C 214.59375 32.378906 214.566406 30.320312 214.679688 28.269531 C 215.066406 27.523438 215.484375 26.800781 215.90625 26.074219 C 216.953125 25.953125 217.976562 26.171875 218.90625 26.664062 Z M 218.90625 26.664062 "/>
    <path style=" stroke:none;fill-rule:nonzero;fill:rgb(80.784314%,62.745098%,13.72549%);fill-opacity:1;" d="M 230.726562 30.304688 C 232.859375 29.570312 235.390625 29.554688 237.496094 30.421875 C 237.734375 31.160156 237.996094 31.894531 238.265625 32.625 C 235.796875 32.605469 233.289062 32.273438 230.859375 32.875 C 230.835938 32.019531 230.78125 31.160156 230.726562 30.304688 Z M 230.726562 30.304688 "/>
    <path style=" stroke:none;fill-rule:nonzero;fill:rgb(83.137255%,65.098039%,13.333333%);fill-opacity:1;" d="M 240.761719 26.050781 C 243.429688 25.875 246.160156 25.636719 248.753906 26.453125 C 247.464844 30.089844 246.046875 33.675781 244.820312 37.328125 C 243.363281 33.609375 242.011719 29.84375 240.761719 26.050781 Z M 240.761719 26.050781 "/>
    <path style=" stroke:none;fill-rule:nonzero;fill:rgb(66.666667%,67.45098%,68.627451%);fill-opacity:1;" d="M 21.125 26.695312 C 26.625 26.765625 32.140625 26.511719 37.628906 26.828125 C 32.210938 27.113281 26.78125 26.851562 21.355469 26.984375 C 21.339844 27.691406 21.324219 28.398438 21.320312 29.109375 C 21.316406 30.261719 21.34375 31.410156 21.371094 32.558594 C 21.390625 33.554688 21.398438 34.550781 21.425781 35.539062 C 21.511719 36.703125 21.449219 37.929688 21.929688 39.015625 C 22.664062 39.558594 23.628906 39.628906 24.484375 39.90625 C 24.519531 38.734375 24.535156 37.558594 24.578125 36.390625 C 24.703125 36.285156 24.964844 36.074219 25.09375 35.964844 C 25.023438 37.363281 25.015625 38.761719 25.015625 40.160156 L 25.34375 40.160156 C 28.621094 40.140625 31.894531 40.226562 35.164062 40.109375 C 36.078125 39.066406 35.710938 37.621094 35.738281 36.363281 C 35.886719 37.378906 36.046875 38.390625 36.183594 39.40625 C 36.570312 38.835938 36.878906 38.164062 37.535156 37.839844 C 38.203125 38.335938 38.769531 38.949219 39.351562 39.546875 C 39.699219 41.519531 37.941406 43.148438 36.03125 43.019531 C 31.09375 43.058594 26.15625 43.039062 21.21875 43.015625 C 21.179688 37.648438 21.253906 32.273438 21.128906 26.910156 Z M 21.125 26.695312 "/>
    <path style=" stroke:none;fill-rule:nonzero;fill:rgb(66.666667%,67.45098%,68.627451%);fill-opacity:1;" d="M 141.335938 26.746094 C 147.089844 26.675781 152.855469 26.601562 158.609375 26.785156 C 153.039062 27.175781 147.445312 26.828125 141.863281 26.96875 C 141.824219 29.351562 141.824219 31.730469 141.855469 34.109375 C 141.828125 35.496094 141.875 36.886719 141.921875 38.273438 C 142.660156 38 143.40625 37.75 144.164062 37.523438 C 144.375 38.011719 144.585938 38.5 144.796875 38.984375 C 144.949219 37.949219 145.105469 36.914062 145.265625 35.878906 C 145.304688 37.269531 145.316406 38.65625 145.304688 40.046875 L 145.820312 40.046875 C 150.070312 39.980469 154.328125 40.195312 158.574219 39.929688 C 158.550781 40.964844 158.550781 42 158.554688 43.035156 C 152.910156 43.035156 147.269531 43.039062 141.625 43.03125 C 141.519531 37.605469 141.828125 32.160156 141.335938 26.746094 Z M 141.335938 26.746094 "/>
    <path style=" stroke:none;fill-rule:nonzero;fill:rgb(66.666667%,67.45098%,68.627451%);fill-opacity:1;" d="M 203.335938 39.886719 C 204.105469 38.785156 205.308594 38.253906 206.574219 37.941406 C 206.550781 39.253906 206.648438 40.59375 206.351562 41.886719 C 205.605469 43.269531 203.804688 43.003906 202.488281 43.054688 C 198.355469 42.949219 194.210938 43.175781 190.085938 42.949219 C 187.988281 42.664062 188.148438 40.136719 188.164062 38.558594 C 189.199219 38.558594 190.234375 38.566406 191.273438 38.574219 C 191.449219 39.078125 191.640625 39.585938 191.84375 40.085938 C 195.488281 39.96875 199.148438 40.148438 202.796875 39.988281 Z M 203.335938 39.886719 "/>
    <path style=" stroke:none;fill-rule:nonzero;fill:rgb(66.666667%,67.45098%,68.627451%);fill-opacity:1;" d="M 45.460938 39.898438 C 46.738281 39.566406 48.105469 39.449219 49.171875 40.394531 C 49.164062 41.28125 49.160156 42.164062 49.15625 43.050781 C 47.925781 43.046875 46.695312 43.046875 45.460938 43.046875 C 45.460938 42 45.460938 40.949219 45.460938 39.898438 Z M 45.460938 39.898438 "/>
    <path style=" stroke:none;fill-rule:nonzero;fill:rgb(80.392157%,80.784314%,81.568627%);fill-opacity:1;" d="M 45.386719 26.761719 C 50.609375 26.679688 55.835938 26.710938 61.058594 26.746094 C 62.570312 26.578125 63.5 28.101562 63.585938 29.433594 C 63.695312 31.40625 63.433594 33.378906 63.230469 35.335938 C 62.261719 37.441406 59.570312 36.808594 57.710938 36.941406 L 57.914062 37.496094 C 56.820312 37.839844 55.746094 38.234375 54.664062 38.601562 C 54.019531 38.023438 53.453125 37.304688 52.644531 36.953125 C 51.480469 36.84375 50.308594 36.898438 49.140625 36.914062 C 49.144531 37.289062 49.15625 38.039062 49.160156 38.414062 C 48.160156 37.261719 46.761719 37.269531 45.453125 37.875 C 45.464844 35.859375 45.453125 33.84375 45.460938 31.828125 C 46.738281 31.628906 48.109375 31.480469 49.160156 32.40625 C 49.164062 32.800781 49.164062 33.578125 49.171875 33.976562 C 52.546875 33.949219 56.003906 34.351562 59.328125 33.78125 C 60.070312 32.660156 59.613281 31.128906 59.710938 29.851562 C 59.859375 30.960938 60.054688 32.058594 60.25 33.160156 C 60.453125 32.484375 60.660156 31.816406 60.871094 31.148438 C 61.289062 31.175781 61.703125 31.203125 62.125 31.234375 C 62.296875 31.558594 62.628906 32.214844 62.800781 32.539062 C 62.738281 30.761719 63.820312 28.203125 61.875 27.121094 C 56.398438 26.578125 50.863281 27.335938 45.386719 26.761719 Z M 45.386719 26.761719 "/>
    <path style=" stroke:none;fill-rule:nonzero;fill:rgb(1.960784%,1.176471%,0.392157%);fill-opacity:0.478431;" d="M 94.214844 26.726562 C 100.078125 26.414062 105.980469 26.546875 111.855469 26.660156 C 111.765625 27.699219 112.101562 28.96875 111.230469 29.765625 C 107.960938 33.203125 104.183594 36.21875 101.300781 40 C 100.785156 39.984375 100.273438 39.96875 99.761719 39.953125 C 100.398438 39.335938 101.019531 38.695312 101.640625 38.058594 C 103.429688 36.230469 105.320312 34.496094 107.074219 32.628906 C 108.550781 30.699219 111.269531 29.484375 111.539062 26.84375 C 105.914062 26.710938 100.289062 26.816406 94.664062 26.789062 C 94.683594 27.738281 94.699219 28.691406 94.746094 29.640625 L 94.761719 29.890625 C 97.988281 30.109375 101.265625 29.550781 104.445312 30.34375 C 104.300781 30.46875 104 30.730469 103.851562 30.859375 C 100.644531 30.378906 97.363281 31.078125 94.203125 30.21875 C 94.171875 29.054688 94.175781 27.890625 94.214844 26.726562 Z M 94.214844 26.726562 "/>
    <path style=" stroke:none;fill-rule:nonzero;fill:rgb(1.960784%,1.176471%,0.392157%);fill-opacity:0.478431;" d="M 20.773438 27.566406 C 20.863281 27.398438 21.039062 27.074219 21.128906 26.910156 C 21.253906 32.273438 21.179688 37.648438 21.21875 43.015625 C 26.15625 43.039062 31.09375 43.058594 36.03125 43.019531 C 37.941406 43.148438 39.699219 41.519531 39.351562 39.546875 C 39.316406 38.453125 39.273438 37.359375 39.265625 36.269531 C 40.113281 37.976562 39.738281 39.976562 39.675781 41.804688 C 39.28125 43.671875 37.144531 44.113281 35.519531 44.171875 C 32.179688 44.21875 28.835938 44.15625 25.496094 44.179688 C 23.898438 44.175781 22.265625 44.335938 20.71875 43.84375 C 20.789062 38.421875 20.65625 32.984375 20.773438 27.566406 Z M 20.773438 27.566406 "/>
    <path style=" stroke:none;fill-rule:nonzero;fill:rgb(1.960784%,1.176471%,0.392157%);fill-opacity:0.478431;" d="M 135.046875 28.429688 C 135.363281 27.960938 135.65625 27.464844 135.953125 26.980469 C 136.273438 29.796875 133.539062 31.171875 131.925781 32.980469 C 129.738281 35.351562 127.113281 37.324219 125.261719 39.980469 C 124.746094 39.953125 124.230469 39.945312 123.71875 39.953125 C 124.523438 39.15625 125.308594 38.335938 126.105469 37.523438 C 127.773438 35.816406 129.539062 34.191406 131.191406 32.449219 C 132.445312 31.078125 133.925781 29.921875 135.046875 28.429688 Z M 135.046875 28.429688 "/>
    <path style=" stroke:none;fill-rule:nonzero;fill:rgb(1.960784%,1.176471%,0.392157%);fill-opacity:0.478431;" d="M 141.058594 34.03125 C 141.089844 31.601562 140.898438 29.148438 141.335938 26.746094 C 141.828125 32.160156 141.519531 37.605469 141.625 43.03125 C 147.269531 43.039062 152.910156 43.035156 158.554688 43.035156 C 158.550781 42 158.550781 40.964844 158.574219 39.929688 C 159.785156 40.75 158.964844 42.558594 159.21875 43.796875 C 157.535156 44.371094 155.746094 44.164062 154.003906 44.179688 C 151.011719 44.183594 148.015625 44.164062 145.023438 44.191406 C 143.726562 44.191406 142.375 44.320312 141.148438 43.800781 C 140.980469 40.546875 141.089844 37.285156 141.058594 34.03125 Z M 141.058594 34.03125 "/>
    <path style=" stroke:none;fill-rule:nonzero;fill:rgb(1.960784%,1.176471%,0.392157%);fill-opacity:0.478431;" d="M 118.703125 29.644531 C 122.160156 29.574219 125.636719 29.375 129.078125 29.753906 C 128.886719 29.921875 128.484375 30.246094 128.285156 30.410156 C 125.144531 30.28125 121.996094 30.433594 118.859375 30.308594 L 118.484375 29.988281 Z M 118.703125 29.644531 "/>
    <path style=" stroke:none;fill-rule:nonzero;fill:rgb(1.960784%,1.176471%,0.392157%);fill-opacity:0.478431;" d="M 206.46875 34.480469 C 207.445312 34.96875 207.109375 36.148438 207.191406 37.03125 C 207.054688 39.199219 207.589844 41.523438 206.515625 43.53125 C 205.371094 43.835938 204.21875 44.210938 203.019531 44.191406 C 199.179688 44.175781 195.335938 44.179688 191.496094 44.191406 C 190.058594 44.246094 188.398438 43.683594 187.84375 42.234375 C 187.664062 41.125 187.675781 39.976562 187.84375 38.863281 C 188.90625 37.808594 190.636719 38.5 191.960938 38.558594 C 191.929688 38.941406 191.871094 39.703125 191.84375 40.085938 C 191.640625 39.585938 191.449219 39.078125 191.273438 38.574219 C 190.234375 38.566406 189.199219 38.558594 188.164062 38.558594 C 188.148438 40.136719 187.988281 42.664062 190.085938 42.949219 C 194.210938 43.175781 198.355469 42.949219 202.488281 43.054688 C 203.804688 43.003906 205.605469 43.269531 206.351562 41.886719 C 206.648438 40.59375 206.550781 39.253906 206.574219 37.941406 C 206.558594 36.785156 206.550781 35.628906 206.46875 34.480469 Z M 206.46875 34.480469 "/>
    <path style=" stroke:none;fill-rule:nonzero;fill:rgb(1.960784%,1.176471%,0.392157%);fill-opacity:0.478431;" d="M 25.09375 35.964844 C 28.636719 36.003906 32.269531 35.488281 35.738281 36.363281 C 35.710938 37.621094 36.078125 39.066406 35.164062 40.109375 C 35.183594 39.179688 35.21875 38.25 35.265625 37.324219 C 32.074219 36.429688 28.75 36.964844 25.515625 37.210938 C 25.46875 38.195312 25.414062 39.175781 25.34375 40.160156 L 25.015625 40.160156 C 25.015625 38.761719 25.023438 37.363281 25.09375 35.964844 Z M 25.09375 35.964844 "/>
    <path style=" stroke:none;fill-rule:nonzero;fill:rgb(1.960784%,1.176471%,0.392157%);fill-opacity:0.478431;" d="M 111.324219 40.050781 L 111.816406 40.140625 C 111.761719 41.433594 112.195312 42.914062 111.53125 44.089844 C 107.691406 44.316406 103.835938 44.113281 99.988281 44.179688 C 97.714844 44.085938 95.394531 44.460938 93.164062 43.871094 C 93.199219 42.855469 92.964844 41.699219 93.75 40.898438 C 93.730469 41.609375 93.703125 42.324219 93.679688 43.035156 C 99.566406 43.03125 105.445312 43.074219 111.328125 43.011719 C 111.324219 42.023438 111.324219 41.035156 111.324219 40.050781 Z M 111.324219 40.050781 "/>
    <path style=" stroke:none;fill-rule:nonzero;fill:rgb(1.960784%,1.176471%,0.392157%);fill-opacity:0.478431;" d="M 135.253906 39.894531 C 136.285156 40.933594 135.628906 42.59375 135.804688 43.898438 C 133.574219 44.453125 131.261719 44.078125 128.988281 44.179688 C 125.050781 44.039062 121.074219 44.476562 117.164062 43.941406 C 117.191406 42.800781 116.804688 41.359375 117.933594 40.613281 C 117.789062 41.414062 117.675781 42.226562 117.566406 43.035156 C 123.453125 43.046875 129.351562 43.039062 135.238281 43.035156 C 135.230469 41.988281 135.226562 40.941406 135.253906 39.894531 Z M 135.253906 39.894531 "/>
    <path style=" stroke:none;fill-rule:nonzero;fill:rgb(1.960784%,1.176471%,0.392157%);fill-opacity:0.478431;" d="M 131.265625 50.660156 C 132.683594 50.695312 134.390625 50.183594 135.640625 50.921875 C 135.839844 52.824219 135.605469 54.753906 135.835938 56.664062 C 137.421875 56.761719 139.003906 56.773438 140.589844 56.773438 C 138.894531 57.238281 137.144531 57.125 135.425781 56.894531 C 135.289062 56.121094 135.171875 55.339844 135.121094 54.554688 C 135.089844 53.289062 135.125 52.03125 135.136719 50.769531 C 133.949219 50.78125 132.765625 50.789062 131.585938 50.800781 C 131.59375 51.660156 131.609375 52.519531 131.613281 53.378906 C 131.621094 54.578125 131.613281 55.773438 131.660156 56.976562 C 132 58.234375 133.023438 59.425781 134.429688 59.351562 C 136.65625 59.285156 139.246094 60.003906 141.128906 58.476562 C 141.265625 58.71875 141.539062 59.210938 141.679688 59.453125 C 142.734375 59.421875 143.789062 59.394531 144.851562 59.359375 C 144.839844 59.003906 144.820312 58.300781 144.808594 57.945312 C 144.785156 56.445312 144.820312 54.945312 144.824219 53.445312 C 144.824219 52.558594 144.828125 51.675781 144.835938 50.796875 C 143.664062 50.785156 142.5 50.78125 141.328125 50.773438 C 141.34375 52.125 141.394531 53.46875 141.445312 54.820312 C 141.253906 55.328125 141.054688 55.839844 140.851562 56.34375 C 140.761719 54.429688 140.695312 52.5 141.011719 50.601562 C 142.355469 50.578125 143.699219 50.570312 145.046875 50.570312 C 145.578125 53.789062 145.144531 57.085938 145.296875 60.335938 C 142.359375 60.378906 139.421875 60.140625 136.5 60.566406 C 134.65625 60.464844 131.953125 60.480469 131.34375 58.273438 C 131.058594 55.75 131.238281 53.195312 131.265625 50.660156 Z M 131.265625 50.660156 "/>
    <path style=" stroke:none;fill-rule:nonzero;fill:rgb(1.960784%,1.176471%,0.392157%);fill-opacity:0.478431;" d="M 166.605469 53.265625 C 168.535156 52.464844 170.804688 52.519531 172.71875 53.34375 C 172.785156 54.214844 172.855469 55.089844 172.878906 55.964844 C 172.738281 56.140625 172.46875 56.484375 172.335938 56.660156 C 172.304688 55.710938 172.246094 54.765625 172.183594 53.816406 C 170.511719 53.800781 168.828125 53.789062 167.15625 53.789062 C 167.046875 54.769531 166.933594 55.753906 166.835938 56.738281 L 166.710938 56.714844 C 166.589844 56.496094 166.34375 56.058594 166.21875 55.84375 C 166.25 54.976562 166.351562 54.105469 166.605469 53.265625 Z M 166.605469 53.265625 "/>
    <path style=" stroke:none;fill-rule:nonzero;fill:rgb(96.862745%,96.862745%,97.254902%);fill-opacity:1;" d="M 21.355469 26.984375 C 26.78125 26.851562 32.210938 27.113281 37.628906 26.828125 C 39.328125 27.464844 39.328125 29.390625 39.328125 30.910156 C 38.546875 30.605469 37.753906 30.304688 36.960938 30.019531 C 36.554688 30.75 36.144531 31.480469 35.714844 32.199219 C 35.714844 31.546875 35.714844 30.886719 35.714844 30.230469 C 35.546875 29.984375 35.214844 29.496094 35.050781 29.25 C 31.59375 28.878906 28.113281 29.085938 24.65625 29.109375 C 24.636719 29.476562 24.605469 30.203125 24.589844 30.570312 C 23.484375 30.121094 22.390625 29.640625 21.320312 29.109375 C 21.324219 28.398438 21.339844 27.691406 21.355469 26.984375 Z M 21.355469 26.984375 "/>
    <path style=" stroke:none;fill-rule:nonzero;fill:rgb(0%,0%,0%);fill-opacity:0.45098;" d="M 45.03125 29.003906 C 45 28.238281 45.136719 27.480469 45.386719 26.761719 C 45.488281 28.445312 45.46875 30.140625 45.460938 31.828125 C 45.453125 33.84375 45.464844 35.859375 45.453125 37.875 C 45.453125 38.550781 45.453125 39.226562 45.460938 39.898438 C 45.460938 40.949219 45.460938 42 45.460938 43.046875 C 46.695312 43.046875 47.925781 43.046875 49.15625 43.050781 C 49.160156 42.164062 49.164062 41.28125 49.171875 40.394531 C 49.164062 39.734375 49.164062 39.074219 49.160156 38.414062 C 49.15625 38.039062 49.144531 37.289062 49.140625 36.914062 C 50.308594 36.898438 51.480469 36.84375 52.644531 36.953125 C 53.453125 37.304688 54.019531 38.023438 54.664062 38.601562 C 55.519531 39.441406 56.394531 40.265625 57.28125 41.074219 C 57.820312 41.558594 58.355469 42.050781 58.886719 42.539062 C 58.976562 42.726562 59.144531 43.09375 59.234375 43.273438 C 61.203125 43.464844 63.183594 43.480469 65.164062 43.460938 L 64.941406 44.023438 C 63.140625 44.359375 61.28125 44.21875 59.460938 44.125 C 57.410156 42.710938 55.75 40.761719 53.855469 39.128906 C 52.859375 37.949219 51.085938 37.546875 49.730469 38.324219 C 49.773438 40.175781 49.738281 42.03125 49.773438 43.878906 C 48.253906 44.351562 46.578125 44.390625 45.074219 43.835938 C 45.011719 38.890625 45.078125 33.949219 45.03125 29.003906 Z M 45.03125 29.003906 "/>
    <path style=" stroke:none;fill-rule:nonzero;fill:rgb(0%,0%,0%);fill-opacity:0.45098;" d="M 69 31.5 C 69.15625 30.175781 68.628906 28.351562 69.976562 27.511719 C 69.070312 29.601562 69.59375 31.933594 69.496094 34.136719 C 69.445312 35.808594 69.484375 37.488281 69.503906 39.164062 C 69.46875 40.460938 69.46875 41.753906 69.464844 43.050781 L 69.875 43.050781 C 71.011719 43.050781 72.148438 43.050781 73.285156 43.050781 C 73.28125 41.886719 73.28125 40.71875 73.28125 39.554688 C 73.28125 38.679688 73.273438 37.804688 73.273438 36.925781 C 76.773438 36.894531 80.28125 36.921875 83.78125 36.910156 C 83.773438 37.246094 83.765625 37.90625 83.753906 38.238281 C 80.546875 38.273438 77.28125 37.433594 74.113281 38.226562 C 73.421875 39.925781 73.96875 42.023438 73.800781 43.878906 C 72.316406 44.164062 70.515625 44.628906 69.164062 43.796875 C 68.769531 39.71875 69.128906 35.59375 69 31.5 Z M 69 31.5 "/>
    <path style=" stroke:none;fill-rule:nonzero;fill:rgb(0%,0%,0%);fill-opacity:0.45098;" d="M 49.160156 32.40625 C 49.15625 31.378906 49.164062 30.359375 49.183594 29.335938 C 52.679688 29.59375 56.316406 28.800781 59.710938 29.851562 C 59.613281 31.128906 60.070312 32.660156 59.328125 33.78125 C 56.003906 34.351562 52.546875 33.949219 49.171875 33.976562 C 49.164062 33.578125 49.164062 32.800781 49.160156 32.40625 M 49.703125 30.839844 C 49.738281 31.78125 49.769531 32.71875 49.796875 33.660156 C 52.898438 33.726562 56.015625 33.820312 59.121094 33.605469 C 59.144531 32.699219 59.179688 31.789062 59.238281 30.886719 C 58.199219 30.484375 57.105469 30.273438 55.988281 30.335938 C 53.890625 30.40625 51.714844 30.074219 49.703125 30.839844 Z M 49.703125 30.839844 "/>
    <path style=" stroke:none;fill-rule:nonzero;fill:rgb(0%,0%,0%);fill-opacity:0.45098;" d="M 94.761719 29.890625 L 94.746094 29.640625 C 95.65625 29.59375 96.570312 29.558594 97.484375 29.539062 C 100.039062 29.691406 102.609375 29.480469 105.160156 29.75 C 104.984375 29.894531 104.625 30.195312 104.445312 30.34375 C 101.265625 29.550781 97.988281 30.109375 94.761719 29.890625 Z M 94.761719 29.890625 "/>
    <path style=" stroke:none;fill-rule:nonzero;fill:rgb(0%,0%,0%);fill-opacity:0.45098;" d="M 114.25 47.496094 C 114.488281 51.429688 114.175781 55.375 114.425781 59.308594 L 114.820312 59.324219 C 119.363281 59.449219 123.914062 59.335938 128.460938 59.386719 C 128.511719 58.539062 128.566406 57.695312 128.628906 56.851562 C 129.046875 57.960938 128.960938 59.148438 128.855469 60.308594 C 124.003906 60.390625 119.144531 60.460938 114.300781 60.265625 C 114.101562 56.015625 114.140625 51.75 114.25 47.496094 Z M 114.25 47.496094 "/>
    <path style=" stroke:none;fill-rule:nonzero;fill:rgb(0%,0%,0%);fill-opacity:0.45098;" d="M 148.148438 50.664062 C 150.273438 50.46875 152.410156 50.816406 154.523438 50.480469 C 156.046875 50.316406 157.710938 50.238281 159.109375 50.945312 C 160.464844 52.109375 160.460938 54.21875 159.703125 55.726562 C 158.71875 55.726562 157.734375 55.734375 156.75 55.738281 C 155.898438 54.699219 154.394531 53.363281 153.164062 54.683594 C 152.296875 56.359375 152.941406 58.414062 152.710938 60.246094 C 151.210938 60.410156 149.699219 60.414062 148.199219 60.296875 C 147.960938 57.089844 148.035156 53.871094 148.148438 50.664062 M 148.484375 50.761719 L 148.570312 51.378906 C 148.515625 54.023438 148.621094 56.664062 148.574219 59.316406 C 149.78125 59.355469 150.984375 59.371094 152.195312 59.355469 C 152.195312 57.753906 152.199219 56.15625 152.210938 54.554688 C 152.445312 54.105469 152.679688 53.65625 152.925781 53.203125 C 153.941406 53.144531 154.964844 53.148438 155.984375 53.21875 C 156.226562 53.714844 156.476562 54.214844 156.734375 54.710938 C 157.730469 54.679688 158.726562 54.664062 159.726562 54.644531 L 159.570312 54.058594 C 159.484375 53.179688 159.84375 52.074219 159.089844 51.410156 C 158.484375 50.589844 157.378906 50.769531 156.496094 50.679688 C 154.914062 50.71875 152.714844 50.269531 152.15625 52.25 C 152.125 51.863281 152.066406 51.105469 152.035156 50.726562 C 150.851562 50.71875 149.664062 50.726562 148.484375 50.761719 Z M 148.484375 50.761719 "/>
    <path style=" stroke:none;fill-rule:nonzero;fill:rgb(0%,0%,0%);fill-opacity:0.45098;" d="M 179.15625 50.648438 C 180.105469 50.589844 181.058594 50.570312 182.015625 50.640625 C 184.691406 50.875 187.414062 50.148438 190.054688 50.828125 C 187.539062 50.886719 184.570312 50.039062 182.523438 51.933594 C 182.539062 51.640625 182.574219 51.046875 182.59375 50.746094 C 181.558594 50.746094 180.53125 50.75 179.5 50.75 C 179.496094 51.691406 179.496094 52.636719 179.5 53.574219 C 179.5 54.585938 179.5 55.589844 179.5 56.59375 C 179.496094 57.539062 179.496094 58.484375 179.496094 59.429688 C 179.496094 60.433594 179.496094 61.441406 179.496094 62.445312 C 180.558594 62.445312 181.625 62.449219 182.695312 62.453125 C 182.695312 61.589844 182.695312 60.730469 182.683594 59.871094 C 182.671875 59.289062 182.648438 58.710938 182.628906 58.128906 C 182.921875 58.445312 183.21875 58.765625 183.519531 59.074219 C 185.65625 59.886719 188.003906 59.660156 190.195312 59.230469 C 190.796875 58.753906 191.304688 58.175781 191.691406 57.515625 C 191.691406 56.894531 191.679688 56.28125 191.664062 55.664062 C 191.65625 54.25 191.699219 52.789062 191.054688 51.488281 C 192.796875 52.789062 192.09375 55.164062 192.234375 57.019531 C 192.488281 58.816406 190.703125 60.421875 188.980469 60.363281 C 187.328125 60.488281 185.671875 60.253906 184.019531 60.441406 C 182.839844 60.871094 183.414062 62.363281 183.21875 63.324219 C 181.878906 63.738281 180.46875 63.75 179.128906 63.320312 C 179.054688 59.09375 179.003906 54.871094 179.15625 50.648438 Z M 179.15625 50.648438 "/>
    <path style=" stroke:none;fill-rule:nonzero;fill:rgb(0%,0%,0%);fill-opacity:0.45098;" d="M 162.273438 56.980469 C 162.285156 54.851562 161.773438 51.496094 164.484375 50.785156 C 163.929688 51.304688 163.410156 51.863281 162.929688 52.453125 C 162.820312 53.460938 162.769531 54.464844 162.738281 55.46875 C 162.800781 56.308594 162.921875 57.144531 163.136719 57.960938 L 163.410156 58.519531 C 165.191406 59.808594 167.480469 59.296875 169.523438 59.398438 C 171.253906 59.324219 173.054688 59.613281 174.730469 59.070312 C 176.496094 58.320312 176.265625 56.101562 176.316406 54.519531 C 176.234375 53.683594 176.121094 52.851562 175.933594 52.03125 C 176.96875 52.421875 176.65625 53.640625 176.761719 54.5 C 176.695312 56.316406 177.28125 58.71875 175.335938 59.785156 C 172.269531 61.320312 168.738281 60.285156 165.476562 60.328125 C 163.753906 60.375 162.035156 58.753906 162.273438 56.980469 Z M 162.273438 56.980469 "/>
    <path style=" stroke:none;fill-rule:nonzero;fill:rgb(96.862745%,96.862745%,96.862745%);fill-opacity:1;" d="M 45.386719 26.761719 C 50.863281 27.335938 56.398438 26.578125 61.875 27.121094 C 63.820312 28.203125 62.738281 30.761719 62.800781 32.539062 C 62.628906 32.214844 62.296875 31.558594 62.125 31.234375 C 61.703125 31.203125 61.289062 31.175781 60.871094 31.148438 C 60.660156 31.816406 60.453125 32.484375 60.25 33.160156 C 60.054688 32.058594 59.859375 30.960938 59.710938 29.851562 C 56.316406 28.800781 52.679688 29.59375 49.183594 29.335938 C 49.164062 30.359375 49.15625 31.378906 49.160156 32.40625 C 48.109375 31.480469 46.738281 31.628906 45.460938 31.828125 C 45.46875 30.140625 45.488281 28.445312 45.386719 26.761719 Z M 45.386719 26.761719 "/>
    <path style=" stroke:none;fill-rule:nonzero;fill:rgb(96.862745%,96.862745%,96.862745%);fill-opacity:1;" d="M 141.863281 26.96875 C 147.445312 26.828125 153.039062 27.175781 158.609375 26.785156 C 158.601562 27.554688 158.59375 28.324219 158.589844 29.09375 C 154.105469 29.226562 149.613281 29.113281 145.128906 29.144531 C 145.039062 30.359375 144.953125 31.574219 144.871094 32.785156 C 144.246094 32.589844 143.621094 32.390625 142.996094 32.191406 C 142.609375 32.824219 142.21875 33.460938 141.855469 34.109375 C 141.824219 31.730469 141.824219 29.351562 141.863281 26.96875 Z M 141.863281 26.96875 "/>
    <path style=" stroke:none;fill-rule:nonzero;fill:rgb(96.862745%,96.862745%,96.862745%);fill-opacity:1;" d="M 164.726562 26.753906 C 170.328125 26.808594 175.949219 26.609375 181.550781 26.859375 C 183.171875 28.246094 182.785156 30.515625 182.828125 32.410156 C 181.800781 32.140625 180.773438 31.871094 179.75 31.605469 C 179.503906 31.191406 179.265625 30.769531 179.035156 30.355469 C 178.980469 30.191406 178.863281 29.859375 178.804688 29.695312 C 175.464844 28.984375 172.015625 29.53125 168.628906 29.316406 C 168.46875 29.570312 168.148438 30.085938 167.988281 30.339844 C 167.304688 29.828125 166.496094 29.574219 165.664062 29.449219 C 165.628906 30.414062 165.605469 31.378906 165.5 32.335938 C 165.273438 32.984375 165.046875 33.628906 164.816406 34.269531 C 164.695312 31.765625 164.769531 29.261719 164.726562 26.753906 Z M 164.726562 26.753906 "/>
    <path style=" stroke:none;fill-rule:nonzero;fill:rgb(96.862745%,96.862745%,96.862745%);fill-opacity:1;" d="M 190.035156 26.824219 L 190.351562 26.808594 C 195.074219 26.835938 199.804688 26.683594 204.53125 26.875 C 206.46875 27.035156 206.59375 29.324219 206.546875 30.816406 C 205.421875 30.820312 204.300781 30.820312 203.179688 30.824219 C 203.15625 30.453125 203.109375 29.714844 203.085938 29.351562 C 199.449219 29.351562 195.820312 29.375 192.191406 29.328125 C 192.113281 30.519531 192.089844 31.714844 192.09375 32.910156 C 191.566406 32.464844 191.054688 31.996094 190.546875 31.535156 C 189.941406 31.855469 189.339844 32.179688 188.738281 32.5 C 188.761719 30.550781 188.476562 28.320312 190.035156 26.824219 Z M 190.035156 26.824219 "/>
    <path style=" stroke:none;fill-rule:nonzero;fill:rgb(96.862745%,97.254902%,97.254902%);fill-opacity:1;" d="M 69.976562 27.511719 C 70.203125 27.328125 70.664062 26.976562 70.890625 26.800781 C 75.941406 26.726562 80.996094 26.695312 86.046875 26.816406 C 86.328125 27.011719 86.894531 27.398438 87.179688 27.589844 L 87.175781 27.875 C 87.164062 29.789062 87.050781 31.699219 86.988281 33.613281 C 86.65625 32.960938 86.289062 32.324219 85.933594 31.679688 C 85.015625 32.269531 84.253906 33.058594 83.734375 34.023438 C 83.828125 32.613281 83.808594 31.199219 83.789062 29.789062 C 80.410156 29.015625 76.820312 29.25 73.394531 29.648438 C 72.355469 29.699219 71.316406 29.660156 70.273438 29.621094 C 70.066406 31.136719 69.78125 32.636719 69.496094 34.136719 C 69.59375 31.933594 69.070312 29.601562 69.976562 27.511719 Z M 69.976562 27.511719 "/>
    <path style=" stroke:none;fill-rule:nonzero;fill:rgb(100%,80%,10.588235%);fill-opacity:1;" d="M 94.664062 26.789062 C 100.289062 26.816406 105.914062 26.710938 111.539062 26.84375 C 111.269531 29.484375 108.550781 30.699219 107.074219 32.628906 C 105.59375 32.453125 104.121094 32.28125 102.644531 32.089844 C 102.945312 31.785156 103.550781 31.164062 103.851562 30.859375 C 104 30.730469 104.300781 30.46875 104.445312 30.34375 C 104.625 30.195312 104.984375 29.894531 105.160156 29.75 C 102.609375 29.480469 100.039062 29.691406 97.484375 29.539062 C 96.570312 29.558594 95.65625 29.59375 94.746094 29.640625 C 94.699219 28.691406 94.683594 27.738281 94.664062 26.789062 Z M 94.664062 26.789062 "/>
    <path style=" stroke:none;fill-rule:nonzero;fill:rgb(100%,80%,10.588235%);fill-opacity:1;" d="M 118.34375 26.796875 C 124.019531 26.675781 129.695312 26.765625 135.371094 26.75 C 135.285156 27.171875 135.125 28.011719 135.046875 28.429688 C 133.925781 29.921875 132.445312 31.078125 131.191406 32.449219 C 129.835938 32.089844 128.476562 31.789062 127.101562 31.53125 C 127.398438 31.25 127.988281 30.691406 128.285156 30.410156 C 128.484375 30.246094 128.886719 29.921875 129.078125 29.753906 C 125.636719 29.375 122.160156 29.574219 118.703125 29.644531 C 118.589844 28.695312 118.453125 27.746094 118.34375 26.796875 Z M 118.34375 26.796875 "/>
    <path style=" stroke:none;fill-rule:nonzero;fill:rgb(0%,0%,0%);fill-opacity:0.4;" d="M 164.128906 35.023438 C 164.164062 32.328125 163.988281 29.625 164.265625 26.941406 C 164.714844 32.308594 164.023438 37.753906 164.648438 43.101562 C 165.964844 43.058594 167.285156 43.035156 168.605469 42.984375 C 168.585938 40.980469 168.59375 38.96875 168.621094 36.960938 C 169.78125 36.890625 170.949219 36.898438 172.113281 36.890625 C 172.585938 37.308594 173.054688 37.734375 173.523438 38.164062 C 174.386719 38.960938 175.246094 39.761719 176.105469 40.570312 C 176.960938 41.378906 177.808594 42.195312 178.65625 43.023438 C 180.550781 43.085938 182.464844 43.148438 184.351562 42.855469 L 184.605469 42.820312 C 184.644531 43.304688 184.570312 43.769531 184.375 44.210938 C 182.34375 44.25 180.300781 44.316406 178.273438 44.15625 C 176.238281 41.914062 174.121094 39.734375 171.539062 38.113281 C 170.761719 38.148438 169.980469 38.179688 169.203125 38.210938 C 169.175781 40.183594 169.195312 42.160156 169.140625 44.140625 C 167.53125 44.261719 165.914062 44.265625 164.304688 44.175781 C 163.96875 41.128906 164.21875 38.074219 164.128906 35.023438 Z M 164.128906 35.023438 "/>
    <path style=" stroke:none;fill-rule:nonzero;fill:rgb(0%,0%,0%);fill-opacity:0.439216;" d="M 181.550781 26.859375 C 183.839844 27.765625 183.320312 30.523438 183.390625 32.484375 C 183.269531 33.90625 183.605469 35.554688 182.683594 36.769531 C 181.820312 37.960938 179.945312 37.476562 179.210938 38.828125 C 178.445312 38.214844 177.683594 37.601562 176.914062 36.988281 C 178.929688 36.796875 181.730469 37.371094 182.703125 35.054688 C 182.773438 34.175781 182.816406 33.289062 182.828125 32.410156 C 182.785156 30.515625 183.171875 28.246094 181.550781 26.859375 Z M 181.550781 26.859375 "/>
    <path style=" stroke:none;fill-rule:nonzero;fill:rgb(0%,0%,0%);fill-opacity:0.439216;" d="M 158.78125 29.304688 C 158.964844 28.699219 159.15625 28.09375 159.34375 27.488281 C 159.28125 28.390625 159.214844 29.285156 159.160156 30.179688 C 156.105469 30.488281 153.035156 30.28125 149.976562 30.328125 C 148.539062 30.378906 146.984375 30.066406 145.675781 30.828125 C 145.710938 31.289062 145.78125 32.214844 145.816406 32.679688 C 148.316406 32.78125 150.808594 32.703125 153.308594 32.761719 C 153.796875 34.039062 153.71875 35.414062 153.710938 36.761719 C 151.074219 37.398438 148.355469 36.886719 145.699219 37.289062 C 145.738281 38.210938 145.78125 39.125 145.820312 40.046875 L 145.304688 40.046875 C 145.316406 38.65625 145.304688 37.269531 145.265625 35.878906 C 147.863281 35.90625 150.460938 35.894531 153.058594 35.890625 C 153.054688 34.960938 153.050781 34.03125 153.046875 33.101562 C 150.46875 33.09375 147.890625 33.085938 145.316406 33.109375 C 145.308594 31.84375 145.316406 30.578125 145.324219 29.316406 C 149.734375 29.328125 154.144531 29.34375 158.558594 29.304688 Z M 158.78125 29.304688 "/>
    <path style=" stroke:none;fill-rule:nonzero;fill:rgb(0%,0%,0%);fill-opacity:0.411765;" d="M 188.234375 33.511719 C 188.339844 31.253906 187.605469 28.125 190.035156 26.824219 C 188.476562 28.320312 188.761719 30.550781 188.738281 32.5 C 188.664062 34.003906 189.25 35.90625 190.988281 36.109375 C 195.09375 36.519531 199.246094 36.179688 203.371094 36.296875 C 203.378906 37.488281 203.40625 38.691406 203.335938 39.886719 L 202.796875 39.988281 C 202.785156 39.203125 202.78125 38.425781 202.769531 37.640625 C 198.804688 36.871094 194.703125 37.730469 190.714844 37.164062 C 189.140625 36.71875 188.003906 35.164062 188.234375 33.511719 Z M 188.234375 33.511719 "/>
    <path style=" stroke:none;fill-rule:nonzero;fill:rgb(70.196078%,70.588235%,71.764706%);fill-opacity:1;" d="M 87.175781 27.875 C 87.925781 32.933594 87.199219 38.046875 87.394531 43.144531 C 86.164062 43.136719 84.941406 43.136719 83.714844 43.15625 C 83.804688 42.769531 83.988281 41.996094 84.078125 41.605469 C 84.300781 40.898438 84.546875 40.199219 84.78125 39.5 C 85.761719 39.460938 86.425781 40.105469 86.976562 40.835938 C 86.996094 40.078125 87.023438 39.324219 87.039062 38.570312 C 87.078125 36.921875 87.058594 35.265625 86.988281 33.613281 C 87.050781 31.699219 87.164062 29.789062 87.175781 27.875 Z M 87.175781 27.875 "/>
    <path style=" stroke:none;fill-rule:nonzero;fill:rgb(70.196078%,70.588235%,71.764706%);fill-opacity:1;" d="M 70.078125 40.144531 C 71.148438 39.949219 72.214844 39.753906 73.28125 39.554688 C 73.28125 40.71875 73.28125 41.886719 73.285156 43.050781 C 72.148438 43.050781 71.011719 43.050781 69.875 43.050781 C 69.953125 42.085938 70.023438 41.113281 70.078125 40.144531 Z M 70.078125 40.144531 "/>
    <path style=" stroke:none;fill-rule:nonzero;fill:rgb(16.862745%,12.941176%,3.529412%);fill-opacity:0.470588;" d="M 251.203125 30.699219 C 251.53125 29.691406 252.070312 28.773438 252.65625 27.890625 C 252.214844 29.324219 251.769531 30.753906 251.226562 32.148438 C 250.171875 34.964844 249.199219 37.808594 248.164062 40.636719 C 247.84375 41.511719 247.519531 42.386719 247.203125 43.265625 C 245.550781 43.289062 243.894531 43.296875 242.246094 43.273438 C 241.914062 42.398438 241.578125 41.523438 241.253906 40.648438 C 240.761719 39.324219 240.269531 37.996094 239.78125 36.671875 C 239.273438 35.320312 238.769531 33.976562 238.265625 32.625 C 237.996094 31.894531 237.734375 31.160156 237.496094 30.421875 C 238.148438 31.171875 238.589844 32.070312 238.925781 33 C 240.125 36.320312 241.425781 39.601562 242.578125 42.933594 C 244 43.023438 245.429688 43.035156 246.855469 42.960938 C 248.195312 38.835938 249.800781 34.804688 251.203125 30.699219 Z M 251.203125 30.699219 "/>
    <path style=" stroke:none;fill-rule:nonzero;fill:rgb(89.803922%,90.196078%,90.588235%);fill-opacity:1;" d="M 21.320312 29.109375 C 22.390625 29.640625 23.484375 30.121094 24.589844 30.570312 C 24.550781 31.503906 24.511719 32.445312 24.464844 33.378906 C 23.433594 33.101562 22.40625 32.828125 21.371094 32.558594 C 21.34375 31.410156 21.316406 30.261719 21.320312 29.109375 Z M 21.320312 29.109375 "/>
    <path style=" stroke:none;fill-rule:nonzero;fill:rgb(89.803922%,90.196078%,90.588235%);fill-opacity:1;" d="M 165.664062 29.449219 C 166.496094 29.574219 167.304688 29.828125 167.988281 30.339844 C 167.976562 31.289062 167.996094 32.246094 168.015625 33.195312 C 167.183594 32.890625 166.339844 32.609375 165.5 32.335938 C 165.605469 31.378906 165.628906 30.414062 165.664062 29.449219 Z M 165.664062 29.449219 "/>
    <path style=" stroke:none;fill-rule:nonzero;fill:rgb(81.568627%,81.960784%,82.745098%);fill-opacity:1;" d="M 24.65625 29.109375 C 28.113281 29.085938 31.59375 28.878906 35.050781 29.25 C 31.703125 29.25 28.363281 29.230469 25.023438 29.253906 C 25.03125 30.589844 25.015625 31.925781 25.09375 33.261719 L 25.160156 33.914062 C 29.511719 34.316406 33.863281 33.679688 38.210938 33.839844 C 37.761719 34.144531 37.296875 34.425781 36.816406 34.679688 C 37.859375 34.796875 38.550781 35.59375 39.265625 36.269531 C 39.273438 37.359375 39.316406 38.453125 39.351562 39.546875 C 38.769531 38.949219 38.203125 38.335938 37.535156 37.839844 C 36.878906 38.164062 36.570312 38.835938 36.183594 39.40625 C 36.046875 38.390625 35.886719 37.378906 35.738281 36.363281 C 32.269531 35.488281 28.636719 36.003906 25.09375 35.964844 C 24.964844 36.074219 24.703125 36.285156 24.578125 36.390625 C 23.503906 36.183594 22.464844 35.859375 21.425781 35.539062 C 21.398438 34.550781 21.390625 33.554688 21.371094 32.558594 C 22.40625 32.828125 23.433594 33.101562 24.464844 33.378906 C 24.511719 32.445312 24.550781 31.503906 24.589844 30.570312 C 24.605469 30.203125 24.636719 29.476562 24.65625 29.109375 Z M 24.65625 29.109375 "/>
    <path style=" stroke:none;fill-rule:nonzero;fill:rgb(81.568627%,81.960784%,82.745098%);fill-opacity:1;" d="M 188.738281 32.5 C 189.339844 32.179688 189.941406 31.855469 190.546875 31.535156 C 191.054688 31.996094 191.566406 32.464844 192.09375 32.910156 C 195.734375 33.214844 199.394531 32.898438 203.039062 33.058594 C 204.125 33.089844 205.15625 33.453125 206.164062 33.828125 C 206.238281 33.996094 206.390625 34.316406 206.46875 34.480469 C 206.550781 35.628906 206.558594 36.785156 206.574219 37.941406 C 205.308594 38.253906 204.105469 38.785156 203.335938 39.886719 C 203.40625 38.691406 203.378906 37.488281 203.371094 36.296875 C 199.246094 36.179688 195.09375 36.519531 190.988281 36.109375 C 189.25 35.90625 188.664062 34.003906 188.738281 32.5 Z M 188.738281 32.5 "/>
    <path style=" stroke:none;fill-rule:nonzero;fill:rgb(81.960784%,82.352941%,83.137255%);fill-opacity:1;" d="M 145.128906 29.144531 C 149.613281 29.113281 154.105469 29.226562 158.589844 29.09375 L 158.558594 29.304688 C 154.144531 29.34375 149.734375 29.328125 145.324219 29.316406 C 145.316406 30.578125 145.308594 31.84375 145.316406 33.109375 C 147.890625 33.085938 150.46875 33.09375 153.046875 33.101562 C 153.050781 34.03125 153.054688 34.960938 153.058594 35.890625 C 150.460938 35.894531 147.863281 35.90625 145.265625 35.878906 C 145.105469 36.914062 144.949219 37.949219 144.796875 38.984375 C 144.585938 38.5 144.375 38.011719 144.164062 37.523438 C 143.40625 37.75 142.660156 38 141.921875 38.273438 C 141.875 36.886719 141.828125 35.496094 141.855469 34.109375 C 142.21875 33.460938 142.609375 32.824219 142.996094 32.191406 C 143.621094 32.390625 144.246094 32.589844 144.871094 32.785156 C 144.953125 31.574219 145.039062 30.359375 145.128906 29.144531 Z M 145.128906 29.144531 "/>
    <path style=" stroke:none;fill-rule:nonzero;fill:rgb(0%,0%,0%);fill-opacity:0.360784;" d="M 25.023438 29.253906 C 28.363281 29.230469 31.703125 29.25 35.050781 29.25 C 35.214844 29.496094 35.546875 29.984375 35.714844 30.230469 C 35.714844 30.886719 35.714844 31.546875 35.714844 32.199219 C 35.519531 32.519531 35.320312 32.84375 35.121094 33.164062 C 31.78125 33.324219 28.441406 33.203125 25.09375 33.261719 C 25.015625 31.925781 25.03125 30.589844 25.023438 29.253906 M 25.785156 30.425781 C 25.765625 31.195312 25.746094 31.960938 25.730469 32.730469 C 28.84375 32.78125 31.976562 32.929688 35.078125 32.628906 C 34.871094 31.933594 35.035156 31.054688 34.515625 30.488281 C 31.621094 30.195312 28.691406 30.375 25.785156 30.425781 Z M 25.785156 30.425781 "/>
    <path style=" stroke:none;fill-rule:nonzero;fill:rgb(0%,0%,0%);fill-opacity:0.360784;" d="M 198.125 53.695312 C 198.40625 53.058594 198.886719 52.5 199.621094 52.433594 C 201.015625 52.328125 202.839844 51.964844 203.785156 53.308594 L 203.894531 53.675781 C 201.980469 53.871094 200.039062 53.910156 198.125 53.695312 Z M 198.125 53.695312 "/>
    <path style=" stroke:none;fill-rule:nonzero;fill:rgb(89.803922%,89.803922%,90.196078%);fill-opacity:1;" d="M 70.273438 29.621094 C 71.316406 29.660156 72.355469 29.699219 73.394531 29.648438 C 73.175781 31.121094 73.214844 32.609375 73.234375 34.09375 C 72.171875 34.195312 71.113281 34.355469 70.054688 34.511719 C 70 35.328125 69.945312 36.148438 69.851562 36.964844 C 69.746094 37.699219 69.609375 38.429688 69.503906 39.164062 C 69.484375 37.488281 69.445312 35.808594 69.496094 34.136719 C 69.78125 32.636719 70.066406 31.136719 70.273438 29.621094 Z M 70.273438 29.621094 "/>
    <path style=" stroke:none;fill-rule:nonzero;fill:rgb(0%,0%,0%);fill-opacity:0.309804;" d="M 73.394531 29.648438 C 76.820312 29.25 80.410156 29.015625 83.789062 29.789062 C 83.808594 31.199219 83.828125 32.613281 83.734375 34.023438 C 80.234375 34.105469 76.734375 33.960938 73.234375 34.09375 C 73.214844 32.609375 73.175781 31.121094 73.394531 29.648438 M 74.464844 30.875 C 73.789062 31.578125 74.046875 32.675781 73.898438 33.558594 C 76.996094 33.660156 80.09375 33.660156 83.191406 33.554688 C 83.179688 32.648438 83.148438 31.746094 83.105469 30.84375 C 80.230469 30.738281 77.328125 30.566406 74.464844 30.875 Z M 74.464844 30.875 "/>
    <path style=" stroke:none;fill-rule:nonzero;fill:rgb(0%,0%,0%);fill-opacity:0.309804;" d="M 168.628906 29.316406 C 172.015625 29.53125 175.464844 28.984375 178.804688 29.695312 C 178.863281 29.859375 178.980469 30.191406 179.035156 30.355469 C 178.875 31.46875 179.460938 33.140625 178.429688 33.894531 C 175.179688 34.269531 171.886719 33.960938 168.621094 34.050781 C 168.59375 32.46875 168.628906 30.890625 168.628906 29.316406 M 169.308594 30.808594 C 169.273438 31.730469 169.265625 32.648438 169.28125 33.570312 C 172.253906 33.683594 175.234375 33.589844 178.214844 33.636719 C 178.335938 32.699219 179.019531 30.84375 177.519531 30.796875 C 174.785156 30.671875 172.046875 30.71875 169.308594 30.808594 Z M 169.308594 30.808594 "/>
    <path style=" stroke:none;fill-rule:nonzero;fill:rgb(83.921569%,84.313725%,84.705882%);fill-opacity:1;" d="M 167.988281 30.339844 C 168.148438 30.085938 168.46875 29.570312 168.628906 29.316406 C 168.628906 30.890625 168.59375 32.46875 168.621094 34.050781 C 171.886719 33.960938 175.179688 34.269531 178.429688 33.894531 C 179.460938 33.140625 178.875 31.46875 179.035156 30.355469 C 179.265625 30.769531 179.503906 31.191406 179.75 31.605469 C 180.773438 31.871094 181.800781 32.140625 182.828125 32.410156 C 182.816406 33.289062 182.773438 34.175781 182.703125 35.054688 C 176.996094 34.894531 171.28125 35.019531 165.570312 35.035156 C 165.574219 35.96875 165.585938 36.90625 165.519531 37.839844 C 165.296875 38.484375 165.066406 39.125 164.828125 39.765625 C 164.746094 37.941406 164.625 36.09375 164.816406 34.269531 C 165.046875 33.628906 165.273438 32.984375 165.5 32.335938 C 166.339844 32.609375 167.183594 32.890625 168.015625 33.195312 C 167.996094 32.246094 167.976562 31.289062 167.988281 30.339844 Z M 167.988281 30.339844 "/>
    <path style=" stroke:none;fill-rule:nonzero;fill:rgb(87.843137%,88.235294%,88.627451%);fill-opacity:1;" d="M 36.960938 30.019531 C 37.753906 30.304688 38.546875 30.605469 39.328125 30.910156 C 39.238281 31.855469 39.410156 33.644531 38.210938 33.839844 C 33.863281 33.679688 29.511719 34.316406 25.160156 33.914062 L 25.09375 33.261719 C 28.441406 33.203125 31.78125 33.324219 35.121094 33.164062 C 35.320312 32.84375 35.519531 32.519531 35.714844 32.199219 C 36.144531 31.480469 36.554688 30.75 36.960938 30.019531 Z M 36.960938 30.019531 "/>
    <path style=" stroke:none;fill-rule:nonzero;fill:rgb(0%,0%,0%);fill-opacity:0.231373;" d="M 192.488281 30.050781 C 195.894531 30.046875 199.300781 29.96875 202.703125 30.113281 C 202.800781 30.449219 202.984375 31.121094 203.078125 31.453125 C 199.871094 30.328125 196.394531 30.878906 193.070312 30.941406 C 192.980469 31.394531 192.804688 32.300781 192.714844 32.753906 C 192.398438 31.886719 192.480469 30.953125 192.488281 30.050781 Z M 192.488281 30.050781 "/>
    <path style=" stroke:none;fill-rule:nonzero;fill:rgb(63.921569%,47.843137%,16.470588%);fill-opacity:1;" d="M 225.238281 30.265625 C 225.34375 30.453125 225.554688 30.835938 225.660156 31.023438 C 225.816406 35.078125 225.644531 39.144531 225.726562 43.199219 C 227.28125 43.191406 228.835938 43.183594 230.390625 43.183594 C 230.363281 39.953125 230.398438 36.726562 230.359375 33.496094 C 230.339844 32.421875 230.386719 31.328125 230.726562 30.304688 C 230.78125 31.160156 230.835938 32.019531 230.859375 32.875 C 230.890625 34.25 230.886719 35.625 230.90625 37 C 230.925781 38.25 230.976562 39.496094 231.019531 40.746094 C 234.425781 40.476562 237.84375 40.59375 241.253906 40.648438 C 241.578125 41.523438 241.914062 42.398438 242.246094 43.273438 C 243.894531 43.296875 245.550781 43.289062 247.203125 43.265625 C 247.519531 42.386719 247.84375 41.511719 248.164062 40.636719 C 251.628906 41.050781 255.164062 41.03125 258.628906 40.640625 C 258.421875 43.066406 258.136719 45.515625 257.328125 47.828125 C 257.074219 48.550781 256.699219 49.375 255.859375 49.515625 C 252.574219 50.320312 249.21875 50.855469 245.84375 51.058594 C 249.125 50.386719 252.558594 50.351562 255.726562 49.214844 C 255.84375 49.019531 256.085938 48.636719 256.199219 48.441406 C 243.980469 48.171875 231.75 48.480469 219.523438 48.308594 C 218.378906 48.289062 217.238281 48.324219 216.101562 48.40625 C 215.878906 47.78125 215.683594 47.144531 215.488281 46.515625 C 215.191406 44.988281 214.929688 43.460938 214.761719 41.921875 C 215.460938 41.570312 216.136719 41.054688 216.953125 41.039062 C 219.625 40.886719 222.304688 41.074219 224.96875 41.246094 C 225.015625 40.308594 225.058594 39.375 225.101562 38.441406 C 225.125 37.101562 225.128906 35.761719 225.148438 34.421875 C 225.160156 33.035156 225.21875 31.648438 225.238281 30.265625 Z M 225.238281 30.265625 "/>
    <path style=" stroke:none;fill-rule:nonzero;fill:rgb(63.921569%,47.843137%,16.470588%);fill-opacity:1;" d="M 183.519531 59.074219 C 185.746094 58.910156 187.980469 58.941406 190.195312 59.230469 C 188.003906 59.660156 185.65625 59.886719 183.519531 59.074219 Z M 183.519531 59.074219 "/>
    <path style=" stroke:none;fill-rule:nonzero;fill:rgb(73.333333%,56.470588%,14.901961%);fill-opacity:1;" d="M 251.226562 32.148438 C 253.699219 31.164062 256.730469 32.5 258.835938 30.589844 C 259 33.941406 258.859375 37.296875 258.628906 40.640625 C 255.164062 41.03125 251.628906 41.050781 248.164062 40.636719 C 249.199219 37.808594 250.171875 34.964844 251.226562 32.148438 Z M 251.226562 32.148438 "/>
    <path style=" stroke:none;fill-rule:nonzero;fill:rgb(83.921569%,65.490196%,13.333333%);fill-opacity:1;" d="M 127.039062 31.519531 L 127.101562 31.53125 C 128.476562 31.789062 129.835938 32.089844 131.191406 32.449219 C 129.539062 34.191406 127.773438 35.816406 126.105469 37.523438 C 124.773438 37.433594 123.445312 37.355469 122.121094 37.273438 C 122.246094 36.921875 122.375 36.570312 122.511719 36.21875 C 123.941406 34.574219 125.585938 33.140625 127.039062 31.519531 Z M 127.039062 31.519531 "/>
    <path style=" stroke:none;fill-rule:nonzero;fill:rgb(82.352941%,82.745098%,83.137255%);fill-opacity:1;" d="M 83.734375 34.023438 C 84.253906 33.058594 85.015625 32.269531 85.933594 31.679688 C 86.289062 32.324219 86.65625 32.960938 86.988281 33.613281 C 87.058594 35.265625 87.078125 36.921875 87.039062 38.570312 C 86.613281 37.535156 85.84375 36.679688 84.628906 36.933594 C 84.34375 38.480469 84.183594 40.039062 84.078125 41.605469 C 83.988281 41.996094 83.804688 42.769531 83.714844 43.15625 C 83.761719 41.515625 83.734375 39.875 83.753906 38.238281 C 83.765625 37.90625 83.773438 37.246094 83.78125 36.910156 C 80.28125 36.921875 76.773438 36.894531 73.273438 36.925781 C 72.136719 36.941406 70.988281 36.953125 69.851562 36.964844 C 69.945312 36.148438 70 35.328125 70.054688 34.511719 C 71.113281 34.355469 72.171875 34.195312 73.234375 34.09375 C 76.734375 33.960938 80.234375 34.105469 83.734375 34.023438 Z M 83.734375 34.023438 "/>
    <path style=" stroke:none;fill-rule:nonzero;fill:rgb(82.352941%,64.313725%,13.333333%);fill-opacity:1;" d="M 102.539062 32.074219 L 102.644531 32.089844 C 104.121094 32.28125 105.59375 32.453125 107.074219 32.628906 C 105.320312 34.496094 103.429688 36.230469 101.640625 38.058594 C 100.28125 37.953125 98.921875 37.859375 97.566406 37.765625 C 97.714844 37.429688 97.871094 37.09375 98.03125 36.765625 C 99.460938 35.128906 101.085938 33.691406 102.539062 32.074219 Z M 102.539062 32.074219 "/>
    <path style=" stroke:none;fill-rule:nonzero;fill:rgb(75.686275%,58.823529%,14.509804%);fill-opacity:1;" d="M 230.859375 32.875 C 233.289062 32.273438 235.796875 32.605469 238.265625 32.625 C 238.769531 33.976562 239.273438 35.320312 239.78125 36.671875 C 236.855469 37.304688 233.863281 36.855469 230.90625 37 C 230.886719 35.625 230.890625 34.25 230.859375 32.875 Z M 230.859375 32.875 "/>
    <path style=" stroke:none;fill-rule:nonzero;fill:rgb(74.509804%,57.647059%,14.901961%);fill-opacity:1;" d="M 214.578125 34.433594 C 216.285156 33.105469 218.488281 33.460938 220.5 33.429688 C 222.101562 33.445312 223.871094 33.261719 225.148438 34.421875 C 225.128906 35.761719 225.125 37.101562 225.101562 38.441406 C 223.859375 37.234375 222.089844 37.46875 220.519531 37.449219 C 218.515625 37.476562 216.339844 37.160156 214.613281 38.414062 C 214.59375 37.089844 214.585938 35.765625 214.578125 34.433594 Z M 214.578125 34.433594 "/>
    <path style=" stroke:none;fill-rule:nonzero;fill:rgb(79.215686%,79.607843%,80.392157%);fill-opacity:1;" d="M 165.570312 35.035156 C 171.28125 35.019531 176.996094 34.894531 182.703125 35.054688 C 181.730469 37.371094 178.929688 36.796875 176.914062 36.988281 C 175.753906 37.285156 174.636719 37.730469 173.523438 38.164062 C 173.054688 37.734375 172.585938 37.308594 172.113281 36.890625 C 170.949219 36.898438 169.78125 36.890625 168.621094 36.960938 L 168.15625 37.136719 C 168.066406 37.648438 167.980469 38.171875 167.910156 38.691406 C 167.109375 38.410156 166.308594 38.128906 165.519531 37.839844 C 165.585938 36.90625 165.574219 35.96875 165.570312 35.035156 Z M 165.570312 35.035156 "/>
    <path style=" stroke:none;fill-rule:nonzero;fill:rgb(74.901961%,75.686275%,76.470588%);fill-opacity:1;" d="M 21.425781 35.539062 C 22.464844 35.859375 23.503906 36.183594 24.578125 36.390625 C 24.535156 37.558594 24.519531 38.734375 24.484375 39.90625 C 23.628906 39.628906 22.664062 39.558594 21.929688 39.015625 C 21.449219 37.929688 21.511719 36.703125 21.425781 35.539062 Z M 21.425781 35.539062 "/>
    <path style=" stroke:none;fill-rule:nonzero;fill:rgb(73.72549%,56.470588%,14.901961%);fill-opacity:1;" d="M 118.640625 40.066406 C 119.976562 38.828125 121.09375 37.371094 122.511719 36.21875 C 122.375 36.570312 122.246094 36.921875 122.121094 37.273438 C 123.445312 37.355469 124.773438 37.433594 126.105469 37.523438 C 125.308594 38.335938 124.523438 39.15625 123.71875 39.953125 C 122.109375 40.726562 120.316406 40.453125 118.640625 40.066406 Z M 118.640625 40.066406 "/>
    <path style=" stroke:none;fill-rule:nonzero;fill:rgb(72.54902%,55.686275%,14.901961%);fill-opacity:1;" d="M 94.65625 40.148438 C 95.808594 39.050781 96.765625 37.738281 98.03125 36.765625 C 97.871094 37.09375 97.714844 37.429688 97.566406 37.765625 C 98.921875 37.859375 100.28125 37.953125 101.640625 38.058594 C 101.019531 38.695312 100.398438 39.335938 99.761719 39.953125 C 98.160156 40.785156 96.339844 40.515625 94.65625 40.148438 Z M 94.65625 40.148438 "/>
    <path style=" stroke:none;fill-rule:nonzero;fill:rgb(70.588235%,53.72549%,15.294118%);fill-opacity:1;" d="M 239.78125 36.671875 C 240.269531 37.996094 240.761719 39.324219 241.253906 40.648438 C 237.84375 40.59375 234.425781 40.476562 231.019531 40.746094 C 230.976562 39.496094 230.925781 38.25 230.90625 37 C 233.863281 36.855469 236.855469 37.304688 239.78125 36.671875 Z M 239.78125 36.671875 "/>
    <path style=" stroke:none;fill-rule:nonzero;fill:rgb(76.470588%,76.862745%,77.647059%);fill-opacity:1;" d="M 69.851562 36.964844 C 70.988281 36.953125 72.136719 36.941406 73.273438 36.925781 C 73.273438 37.804688 73.28125 38.679688 73.28125 39.554688 C 72.214844 39.753906 71.148438 39.949219 70.078125 40.144531 C 70.023438 41.113281 69.953125 42.085938 69.875 43.050781 L 69.464844 43.050781 C 69.46875 41.753906 69.46875 40.460938 69.503906 39.164062 C 69.609375 38.429688 69.746094 37.699219 69.851562 36.964844 Z M 69.851562 36.964844 "/>
    <path style=" stroke:none;fill-rule:nonzero;fill:rgb(76.470588%,76.862745%,77.647059%);fill-opacity:1;" d="M 84.628906 36.933594 C 85.84375 36.679688 86.613281 37.535156 87.039062 38.570312 C 87.023438 39.324219 86.996094 40.078125 86.976562 40.835938 C 86.425781 40.105469 85.761719 39.460938 84.78125 39.5 C 84.546875 40.199219 84.300781 40.898438 84.078125 41.605469 C 84.183594 40.039062 84.34375 38.480469 84.628906 36.933594 Z M 84.628906 36.933594 "/>
    <path style=" stroke:none;fill-rule:nonzero;fill:rgb(67.843137%,68.627451%,69.803922%);fill-opacity:1;" d="M 168.15625 37.136719 L 168.621094 36.960938 C 168.59375 38.96875 168.585938 40.980469 168.605469 42.984375 C 167.285156 43.035156 165.964844 43.058594 164.648438 43.101562 C 164.738281 41.988281 164.609375 40.859375 164.828125 39.765625 C 165.066406 39.125 165.296875 38.484375 165.519531 37.839844 C 166.308594 38.128906 167.109375 38.410156 167.910156 38.691406 C 167.980469 38.171875 168.066406 37.648438 168.15625 37.136719 Z M 168.15625 37.136719 "/>
    <path style=" stroke:none;fill-rule:nonzero;fill:rgb(72.54902%,73.333333%,74.117647%);fill-opacity:1;" d="M 173.523438 38.164062 C 174.636719 37.730469 175.753906 37.285156 176.914062 36.988281 C 177.683594 37.601562 178.445312 38.214844 179.210938 38.828125 C 179.464844 39.039062 179.96875 39.449219 180.226562 39.65625 C 178.839844 39.921875 177.46875 40.230469 176.105469 40.570312 C 175.246094 39.761719 174.386719 38.960938 173.523438 38.164062 Z M 173.523438 38.164062 "/>
    <path style=" stroke:none;fill-rule:nonzero;fill:rgb(72.54902%,73.333333%,74.117647%);fill-opacity:1;" d="M 45.453125 37.875 C 46.761719 37.269531 48.160156 37.261719 49.160156 38.414062 C 49.164062 39.074219 49.164062 39.734375 49.171875 40.394531 C 48.105469 39.449219 46.738281 39.566406 45.460938 39.898438 C 45.453125 39.226562 45.453125 38.550781 45.453125 37.875 Z M 45.453125 37.875 "/>
    <path style=" stroke:none;fill-rule:nonzero;fill:rgb(71.372549%,72.156863%,72.941176%);fill-opacity:1;" d="M 57.914062 37.496094 L 58.339844 37.359375 C 59.230469 38.296875 60.214844 39.136719 61.203125 39.960938 C 59.910156 40.371094 58.609375 40.769531 57.28125 41.074219 C 56.394531 40.265625 55.519531 39.441406 54.664062 38.601562 C 55.746094 38.234375 56.820312 37.839844 57.914062 37.496094 Z M 57.914062 37.496094 "/>
    <path style=" stroke:none;fill-rule:nonzero;fill:rgb(69.803922%,53.333333%,15.686275%);fill-opacity:1;" d="M 214.613281 38.414062 C 216.339844 37.160156 218.515625 37.476562 220.519531 37.449219 C 222.089844 37.46875 223.859375 37.234375 225.101562 38.441406 C 225.058594 39.375 225.015625 40.308594 224.96875 41.246094 C 222.304688 41.074219 219.625 40.886719 216.953125 41.039062 C 216.136719 41.054688 215.460938 41.570312 214.761719 41.921875 C 214.675781 40.753906 214.640625 39.585938 214.613281 38.414062 Z M 214.613281 38.414062 "/>
    <path style=" stroke:none;fill-rule:nonzero;fill:rgb(65.490196%,66.27451%,67.45098%);fill-opacity:1;" d="M 61.203125 39.960938 L 61.304688 39.925781 C 62.378906 41.066406 63.953125 41.753906 64.765625 43.085938 C 63.046875 43.015625 61.308594 43.175781 59.601562 42.960938 C 59.421875 42.855469 59.066406 42.644531 58.886719 42.539062 C 58.355469 42.050781 57.820312 41.558594 57.28125 41.074219 C 58.609375 40.769531 59.910156 40.371094 61.203125 39.960938 Z M 61.203125 39.960938 "/>
    <path style=" stroke:none;fill-rule:nonzero;fill:rgb(65.490196%,66.27451%,67.45098%);fill-opacity:1;" d="M 180.226562 39.65625 L 180.328125 39.636719 C 181.613281 40.773438 182.941406 41.863281 184.351562 42.855469 C 182.464844 43.148438 180.550781 43.085938 178.65625 43.023438 C 177.808594 42.195312 176.960938 41.378906 176.105469 40.570312 C 177.46875 40.230469 178.839844 39.921875 180.226562 39.65625 Z M 180.226562 39.65625 "/>
    <path style=" stroke:none;fill-rule:nonzero;fill:rgb(65.882353%,49.803922%,16.078431%);fill-opacity:1;" d="M 94.65625 40.148438 C 96.339844 40.515625 98.160156 40.785156 99.761719 39.953125 C 100.273438 39.96875 100.785156 39.984375 101.300781 40 C 104.640625 40.101562 107.984375 40 111.324219 40.050781 C 111.324219 41.035156 111.324219 42.023438 111.328125 43.011719 C 105.445312 43.074219 99.566406 43.03125 93.679688 43.035156 C 93.703125 42.324219 93.730469 41.609375 93.75 40.898438 C 94.050781 40.648438 94.355469 40.398438 94.65625 40.148438 Z M 94.65625 40.148438 "/>
    <path style=" stroke:none;fill-rule:nonzero;fill:rgb(65.882353%,49.803922%,16.078431%);fill-opacity:1;" d="M 118.640625 40.066406 C 120.316406 40.453125 122.109375 40.726562 123.71875 39.953125 C 124.230469 39.945312 124.746094 39.953125 125.261719 39.980469 C 128.585938 40.050781 131.933594 40.171875 135.253906 39.894531 C 135.226562 40.941406 135.230469 41.988281 135.238281 43.035156 C 129.351562 43.039062 123.453125 43.046875 117.566406 43.035156 C 117.675781 42.226562 117.789062 41.414062 117.933594 40.613281 C 118.113281 40.480469 118.464844 40.203125 118.640625 40.066406 Z M 118.640625 40.066406 "/>
    <path style=" stroke:none;fill-rule:nonzero;fill:rgb(97.647059%,77.647059%,11.372549%);fill-opacity:1;" d="M 114.714844 47.269531 C 119.316406 47.140625 123.933594 47.09375 128.535156 47.296875 C 128.429688 48.085938 128.421875 48.878906 128.394531 49.675781 C 125.03125 49.71875 121.671875 49.605469 118.308594 49.753906 C 118.335938 50.453125 118.359375 51.15625 118.386719 51.855469 C 121.503906 51.921875 124.628906 51.875 127.753906 51.894531 L 127.765625 52.40625 C 124.585938 52.148438 121.390625 52.546875 118.230469 52.105469 C 117.378906 52.003906 116.523438 52.039062 115.675781 52.089844 C 115.5 50.789062 115.265625 49.5 114.933594 48.234375 C 114.878906 47.988281 114.769531 47.511719 114.714844 47.269531 Z M 114.714844 47.269531 "/>
    <path style=" stroke:none;fill-rule:nonzero;fill:rgb(0%,0%,0%);fill-opacity:0.419608;" d="M 128.535156 47.296875 L 128.730469 46.929688 C 128.96875 48.191406 128.914062 49.480469 128.765625 50.753906 C 125.660156 50.859375 122.550781 50.660156 119.449219 50.835938 C 119.316406 50.996094 119.046875 51.308594 118.910156 51.464844 C 121.886719 51.75 124.894531 51.324219 127.863281 51.710938 C 128.730469 52.621094 128.191406 54.054688 128.171875 55.179688 C 125.183594 55.386719 122.191406 55.191406 119.203125 55.308594 L 119.210938 56.199219 C 122.339844 56.515625 125.601562 55.804688 128.65625 56.546875 C 125.300781 56.671875 121.941406 56.683594 118.589844 56.578125 C 118.113281 55.671875 118.371094 54.824219 119.054688 54.140625 C 121.953125 54.296875 124.859375 54.273438 127.765625 54.195312 L 127.769531 53.953125 C 127.769531 53.570312 127.765625 52.796875 127.765625 52.40625 L 127.753906 51.894531 C 124.628906 51.875 121.503906 51.921875 118.386719 51.855469 C 118.359375 51.15625 118.335938 50.453125 118.308594 49.753906 C 121.671875 49.605469 125.03125 49.71875 128.394531 49.675781 C 128.421875 48.878906 128.429688 48.085938 128.535156 47.296875 Z M 128.535156 47.296875 "/>
    <path style=" stroke:none;fill-rule:nonzero;fill:rgb(76.862745%,62.352941%,13.72549%);fill-opacity:1;" d="M 216.101562 48.40625 C 217.238281 48.324219 218.378906 48.289062 219.523438 48.308594 C 231.75 48.480469 243.980469 48.171875 256.199219 48.441406 C 256.085938 48.636719 255.84375 49.019531 255.726562 49.214844 C 252.558594 50.351562 249.125 50.386719 245.84375 51.058594 C 245.734375 51.066406 245.515625 51.078125 245.398438 51.085938 C 244.648438 50.679688 243.890625 50.203125 243 50.296875 C 238.65625 50.300781 234.308594 50.320312 229.96875 50.300781 C 229.089844 50.210938 228.355469 50.699219 227.628906 51.09375 C 224.800781 50.929688 222 50.449219 219.21875 49.925781 C 218.101562 49.625 216.703125 49.570312 216.101562 48.40625 Z M 216.101562 48.40625 "/>
    <path style=" stroke:none;fill-rule:nonzero;fill:rgb(82.352941%,64.313725%,13.72549%);fill-opacity:1;" d="M 114.933594 48.234375 C 115.265625 49.5 115.5 50.789062 115.675781 52.089844 C 116.523438 52.039062 117.378906 52.003906 118.230469 52.105469 C 121.390625 52.546875 124.585938 52.148438 127.765625 52.40625 C 127.765625 52.796875 127.769531 53.570312 127.769531 53.953125 C 124.460938 54.078125 121.148438 53.863281 117.839844 54.050781 C 117.605469 55.109375 116.328125 54.679688 115.578125 54.898438 C 115.328125 54.210938 115.085938 53.519531 114.863281 52.824219 C 114.734375 51.296875 114.804688 49.753906 114.933594 48.234375 Z M 114.933594 48.234375 "/>
    <path style=" stroke:none;fill-rule:nonzero;fill:rgb(35.686275%,28.627451%,3.921569%);fill-opacity:0.478431;" d="M 196.898438 50.816406 C 199.664062 50.074219 202.578125 50.359375 205.394531 50.644531 L 205.316406 51.078125 C 202.539062 50.519531 199.703125 50.796875 196.898438 50.816406 Z M 196.898438 50.816406 "/>
    <path style=" stroke:none;fill-rule:nonzero;fill:rgb(98.039216%,83.529412%,12.156863%);fill-opacity:1;" d="M 227.628906 51.09375 C 228.355469 50.699219 229.089844 50.210938 229.96875 50.300781 C 234.308594 50.320312 238.65625 50.300781 243 50.296875 C 243.890625 50.203125 244.648438 50.679688 245.398438 51.085938 C 239.480469 51.296875 233.550781 51.269531 227.628906 51.09375 Z M 227.628906 51.09375 "/>
    <path style=" stroke:none;fill-rule:nonzero;fill:rgb(96.078431%,76.470588%,11.372549%);fill-opacity:1;" d="M 131.585938 50.800781 C 132.765625 50.789062 133.949219 50.78125 135.136719 50.769531 C 135.125 52.03125 135.089844 53.289062 135.121094 54.554688 C 134.71875 54.09375 134.34375 53.609375 133.890625 53.203125 C 133.128906 53.195312 132.371094 53.304688 131.613281 53.378906 C 131.609375 52.519531 131.59375 51.660156 131.585938 50.800781 Z M 131.585938 50.800781 "/>
    <path style=" stroke:none;fill-rule:nonzero;fill:rgb(96.078431%,76.470588%,11.372549%);fill-opacity:1;" d="M 141.328125 50.773438 C 142.5 50.78125 143.664062 50.785156 144.835938 50.796875 C 144.828125 51.675781 144.824219 52.558594 144.824219 53.445312 C 144.039062 53.109375 143.246094 52.804688 142.429688 52.554688 C 142.09375 53.304688 141.761719 54.058594 141.445312 54.820312 C 141.394531 53.46875 141.34375 52.125 141.328125 50.773438 Z M 141.328125 50.773438 "/>
    <path style=" stroke:none;fill-rule:nonzero;fill:rgb(96.078431%,76.470588%,11.372549%);fill-opacity:1;" d="M 179.5 50.75 C 180.53125 50.75 181.558594 50.746094 182.59375 50.746094 C 182.574219 51.046875 182.539062 51.640625 182.523438 51.933594 C 184.570312 50.039062 187.539062 50.886719 190.054688 50.828125 C 190.304688 50.996094 190.804688 51.324219 191.054688 51.488281 C 191.699219 52.789062 191.65625 54.25 191.664062 55.664062 C 191.273438 54.789062 190.886719 53.90625 190.289062 53.15625 C 189.570312 53.191406 188.859375 53.339844 188.15625 53.449219 C 186.488281 53.03125 184.761719 53.179688 183.070312 53.320312 C 181.878906 53.421875 180.691406 53.503906 179.5 53.574219 C 179.496094 52.636719 179.496094 51.691406 179.5 50.75 Z M 179.5 50.75 "/>
    <path style=" stroke:none;fill-rule:nonzero;fill:rgb(95.686275%,75.686275%,10.980392%);fill-opacity:1;" d="M 148.484375 50.761719 C 149.664062 50.726562 150.851562 50.71875 152.035156 50.726562 C 152.066406 51.105469 152.125 51.863281 152.15625 52.25 C 152.714844 50.269531 154.914062 50.71875 156.496094 50.679688 C 157.378906 50.769531 158.484375 50.589844 159.089844 51.410156 C 159.84375 52.074219 159.484375 53.179688 159.570312 54.058594 C 158.578125 52.761719 156.835938 52.785156 155.359375 52.613281 C 153.160156 52.578125 150.984375 53.144531 148.769531 52.976562 C 148.710938 52.441406 148.640625 51.910156 148.570312 51.378906 Z M 148.484375 50.761719 "/>
    <path style=" stroke:none;fill-rule:nonzero;fill:rgb(95.294118%,75.686275%,10.980392%);fill-opacity:1;" d="M 164.484375 50.785156 C 167.480469 50.578125 170.488281 50.578125 173.488281 50.71875 C 174.304688 50.71875 175.011719 51.15625 175.726562 51.496094 C 175.625 51.820312 175.425781 52.476562 175.320312 52.804688 C 174.453125 52.988281 173.585938 53.171875 172.71875 53.34375 C 170.804688 52.519531 168.535156 52.464844 166.605469 53.265625 C 165.371094 53.03125 164.144531 52.761719 162.929688 52.453125 C 163.410156 51.863281 163.929688 51.304688 164.484375 50.785156 Z M 164.484375 50.785156 "/>
    <path style=" stroke:none;fill-rule:nonzero;fill:rgb(95.294118%,75.686275%,11.372549%);fill-opacity:1;" d="M 195.988281 51.460938 C 196.21875 51.300781 196.675781 50.976562 196.898438 50.816406 C 199.703125 50.796875 202.539062 50.519531 205.316406 51.078125 C 205.929688 51.21875 206.273438 51.761719 206.550781 52.28125 L 206.59375 52.960938 C 205.65625 53.078125 204.71875 53.199219 203.785156 53.308594 C 202.839844 51.964844 201.015625 52.328125 199.621094 52.433594 C 198.886719 52.5 198.40625 53.058594 198.125 53.695312 C 197.605469 53.511719 197.101562 53.300781 196.59375 53.09375 C 196.140625 53.40625 195.683594 53.71875 195.234375 54.03125 C 195.269531 53.121094 195.496094 52.230469 195.988281 51.460938 Z M 195.988281 51.460938 "/>
    <path style=" stroke:none;fill-rule:nonzero;fill:rgb(73.333333%,56.078431%,14.901961%);fill-opacity:1;" d="M 148.570312 51.378906 C 148.640625 51.910156 148.710938 52.441406 148.769531 52.976562 C 148.855469 53.789062 148.929688 54.605469 149 55.421875 C 150.078125 55.179688 151.148438 54.886719 152.210938 54.554688 C 152.199219 56.15625 152.195312 57.753906 152.195312 59.355469 C 150.984375 59.371094 149.78125 59.355469 148.574219 59.316406 C 148.621094 56.664062 148.515625 54.023438 148.570312 51.378906 Z M 148.570312 51.378906 "/>
    <path style=" stroke:none;fill-rule:nonzero;fill:rgb(87.058824%,68.627451%,12.54902%);fill-opacity:1;" d="M 175.726562 51.496094 C 175.78125 51.628906 175.878906 51.894531 175.933594 52.03125 C 176.121094 52.851562 176.234375 53.683594 176.316406 54.519531 C 175.144531 54.945312 173.96875 55.363281 172.878906 55.964844 C 172.855469 55.089844 172.785156 54.214844 172.71875 53.34375 C 173.585938 53.171875 174.453125 52.988281 175.320312 52.804688 C 175.425781 52.476562 175.625 51.820312 175.726562 51.496094 Z M 175.726562 51.496094 "/>
    <path style=" stroke:none;fill-rule:nonzero;fill:rgb(87.058824%,68.627451%,12.54902%);fill-opacity:1;" d="M 188.15625 53.449219 C 188.859375 53.339844 189.570312 53.191406 190.289062 53.15625 C 190.886719 53.90625 191.273438 54.789062 191.664062 55.664062 C 191.679688 56.28125 191.691406 56.894531 191.691406 57.515625 C 190.886719 57.039062 190.074219 56.585938 189.261719 56.140625 C 188.929688 55.390625 188.605469 54.640625 188.316406 53.878906 Z M 188.15625 53.449219 "/>
    <path style=" stroke:none;fill-rule:nonzero;fill:rgb(0%,0%,0%);fill-opacity:0.360784;" d="M 194.578125 55 C 194.644531 53.753906 194.566406 51.980469 195.988281 51.460938 C 195.496094 52.230469 195.269531 53.121094 195.234375 54.03125 C 195.230469 55.15625 195.246094 56.28125 195.28125 57.410156 C 195.695312 58.101562 196.191406 58.785156 196.910156 59.191406 C 199.703125 59.914062 202.816406 59.925781 205.601562 59.164062 C 206.519531 58.613281 206.558594 57.511719 206.746094 56.570312 C 205.769531 56.570312 204.800781 56.574219 203.828125 56.601562 C 202.925781 58.074219 200.960938 57.695312 199.511719 57.566406 C 198.460938 57.566406 198.425781 56.46875 198.148438 55.730469 C 200.980469 55.621094 203.816406 55.699219 206.644531 55.648438 C 206.636719 54.753906 206.628906 53.855469 206.59375 52.960938 L 206.550781 52.28125 C 206.714844 52.40625 207.039062 52.648438 207.203125 52.773438 C 207.351562 54.765625 207.285156 56.78125 207.179688 58.773438 C 206.09375 60.871094 203.445312 60.421875 201.488281 60.484375 C 199.519531 60.34375 197.140625 60.941406 195.589844 59.386719 C 194.265625 58.339844 194.691406 56.464844 194.578125 55 Z M 194.578125 55 "/>
    <path style=" stroke:none;fill-rule:nonzero;fill:rgb(81.176471%,63.137255%,13.333333%);fill-opacity:1;" d="M 142.429688 52.554688 C 143.246094 52.804688 144.039062 53.109375 144.824219 53.445312 C 144.820312 54.945312 144.785156 56.445312 144.808594 57.945312 C 143.671875 56.941406 142.148438 56.671875 140.679688 56.765625 L 140.851562 56.34375 C 141.054688 55.839844 141.253906 55.328125 141.445312 54.820312 C 141.761719 54.058594 142.09375 53.304688 142.429688 52.554688 Z M 142.429688 52.554688 "/>
    <path style=" stroke:none;fill-rule:nonzero;fill:rgb(81.176471%,63.137255%,13.333333%);fill-opacity:1;" d="M 131.613281 53.378906 C 132.371094 53.304688 133.128906 53.195312 133.890625 53.203125 C 134.34375 53.609375 134.71875 54.09375 135.121094 54.554688 C 135.171875 55.339844 135.289062 56.121094 135.425781 56.894531 C 134.171875 56.828125 132.910156 56.894531 131.660156 56.976562 C 131.613281 55.773438 131.621094 54.578125 131.613281 53.378906 Z M 131.613281 53.378906 "/>
    <path style=" stroke:none;fill-rule:nonzero;fill:rgb(87.058824%,68.627451%,12.941176%);fill-opacity:1;" d="M 148.769531 52.976562 C 150.984375 53.144531 153.160156 52.578125 155.359375 52.613281 C 156.835938 52.785156 158.578125 52.761719 159.570312 54.058594 L 159.726562 54.644531 C 158.726562 54.664062 157.730469 54.679688 156.734375 54.710938 C 156.476562 54.214844 156.226562 53.714844 155.984375 53.21875 C 154.964844 53.148438 153.941406 53.144531 152.925781 53.203125 C 152.679688 53.65625 152.445312 54.105469 152.210938 54.554688 C 151.148438 54.886719 150.078125 55.179688 149 55.421875 C 148.929688 54.605469 148.855469 53.789062 148.769531 52.976562 Z M 148.769531 52.976562 "/>
    <path style=" stroke:none;fill-rule:nonzero;fill:rgb(87.058824%,68.627451%,12.941176%);fill-opacity:1;" d="M 162.738281 55.46875 C 162.769531 54.464844 162.820312 53.460938 162.929688 52.453125 C 164.144531 52.761719 165.371094 53.03125 166.605469 53.265625 C 166.351562 54.105469 166.25 54.976562 166.21875 55.84375 C 165.675781 55.5 165.121094 55.191406 164.566406 54.878906 C 163.953125 55.074219 163.351562 55.273438 162.738281 55.46875 Z M 162.738281 55.46875 "/>
    <path style=" stroke:none;fill-rule:nonzero;fill:rgb(87.058824%,68.627451%,12.941176%);fill-opacity:1;" d="M 179.5 53.574219 C 180.691406 53.503906 181.878906 53.421875 183.070312 53.320312 L 182.894531 53.953125 C 182.65625 54.78125 182.414062 55.605469 182.183594 56.433594 C 181.289062 56.488281 180.394531 56.539062 179.5 56.59375 C 179.5 55.589844 179.5 54.585938 179.5 53.574219 Z M 179.5 53.574219 "/>
    <path style=" stroke:none;fill-rule:nonzero;fill:rgb(67.843137%,51.372549%,16.078431%);fill-opacity:1;" d="M 114.863281 52.824219 C 115.085938 53.519531 115.328125 54.210938 115.578125 54.898438 C 116.328125 54.679688 117.605469 55.109375 117.839844 54.050781 C 121.148438 53.863281 124.460938 54.078125 127.769531 53.953125 L 127.765625 54.195312 C 124.859375 54.273438 121.953125 54.296875 119.054688 54.140625 C 118.371094 54.824219 118.113281 55.671875 118.589844 56.578125 C 121.941406 56.683594 125.300781 56.671875 128.65625 56.546875 L 128.628906 56.851562 C 128.566406 57.695312 128.511719 58.539062 128.460938 59.386719 C 123.914062 59.335938 119.363281 59.449219 114.820312 59.324219 C 114.820312 57.15625 114.75 54.988281 114.863281 52.824219 Z M 114.863281 52.824219 "/>
    <path style=" stroke:none;fill-rule:nonzero;fill:rgb(84.313725%,65.882353%,13.72549%);fill-opacity:1;" d="M 195.234375 54.03125 C 195.683594 53.71875 196.140625 53.40625 196.59375 53.09375 C 197.101562 53.300781 197.605469 53.511719 198.125 53.695312 C 200.039062 53.910156 201.980469 53.871094 203.894531 53.675781 L 203.785156 53.308594 C 204.71875 53.199219 205.65625 53.078125 206.59375 52.960938 C 206.628906 53.855469 206.636719 54.753906 206.644531 55.648438 C 203.816406 55.699219 200.980469 55.621094 198.148438 55.730469 L 198.140625 55.730469 C 198.019531 56.183594 197.910156 56.644531 197.804688 57.109375 C 196.953125 57.125 196.109375 57.21875 195.28125 57.410156 C 195.246094 56.28125 195.230469 55.15625 195.234375 54.03125 Z M 195.234375 54.03125 "/>
    <path style=" stroke:none;fill-rule:nonzero;fill:rgb(77.647059%,60.392157%,14.509804%);fill-opacity:1;" d="M 182.183594 56.433594 C 182.414062 55.605469 182.65625 54.78125 182.894531 53.953125 C 182.800781 54.863281 182.515625 55.960938 183.140625 56.746094 C 184.75 57.550781 186.625 57.234375 188.28125 56.746094 C 188.304688 55.789062 188.328125 54.835938 188.316406 53.878906 C 188.605469 54.640625 188.929688 55.390625 189.261719 56.140625 C 190.074219 56.585938 190.886719 57.039062 191.691406 57.515625 C 191.304688 58.175781 190.796875 58.753906 190.195312 59.230469 C 187.980469 58.941406 185.746094 58.910156 183.519531 59.074219 C 183.21875 58.765625 182.921875 58.445312 182.628906 58.128906 C 182.648438 58.710938 182.671875 59.289062 182.683594 59.871094 C 181.621094 59.726562 180.554688 59.578125 179.496094 59.429688 C 179.496094 58.484375 179.496094 57.539062 179.5 56.59375 C 180.394531 56.539062 181.289062 56.488281 182.183594 56.433594 Z M 182.183594 56.433594 "/>
    <path style=" stroke:none;fill-rule:nonzero;fill:rgb(69.019608%,52.54902%,15.686275%);fill-opacity:1;" d="M 172.878906 55.964844 C 173.96875 55.363281 175.144531 54.945312 176.316406 54.519531 C 176.265625 56.101562 176.496094 58.320312 174.730469 59.070312 C 173.054688 59.613281 171.253906 59.324219 169.523438 59.398438 C 167.480469 59.296875 165.191406 59.808594 163.410156 58.519531 L 163.136719 57.960938 C 164.25 57.359375 165.429688 56.824219 166.710938 56.714844 L 166.835938 56.738281 C 168.589844 57.234375 170.453125 57.296875 172.226562 56.800781 L 172.335938 56.660156 C 172.46875 56.484375 172.738281 56.140625 172.878906 55.964844 Z M 172.878906 55.964844 "/>
    <path style=" stroke:none;fill-rule:nonzero;fill:rgb(77.254902%,59.607843%,14.117647%);fill-opacity:1;" d="M 162.738281 55.46875 C 163.351562 55.273438 163.953125 55.074219 164.566406 54.878906 C 165.121094 55.191406 165.675781 55.5 166.21875 55.84375 C 166.34375 56.058594 166.589844 56.496094 166.710938 56.714844 C 165.429688 56.824219 164.25 57.359375 163.136719 57.960938 C 162.921875 57.144531 162.800781 56.308594 162.738281 55.46875 Z M 162.738281 55.46875 "/>
    <path style=" stroke:none;fill-rule:nonzero;fill:rgb(69.803922%,52.941176%,15.686275%);fill-opacity:1;" d="M 198.140625 55.730469 L 198.148438 55.730469 C 198.425781 56.46875 198.460938 57.566406 199.511719 57.566406 C 200.960938 57.695312 202.925781 58.074219 203.828125 56.601562 C 204.800781 56.574219 205.769531 56.570312 206.746094 56.570312 C 206.558594 57.511719 206.519531 58.613281 205.601562 59.164062 C 202.710938 59.390625 199.804688 59.390625 196.910156 59.191406 C 196.191406 58.785156 195.695312 58.101562 195.28125 57.410156 C 196.109375 57.21875 196.953125 57.125 197.804688 57.109375 C 197.910156 56.644531 198.019531 56.183594 198.140625 55.730469 Z M 198.140625 55.730469 "/>
    <path style=" stroke:none;fill-rule:nonzero;fill:rgb(68.235294%,52.156863%,15.686275%);fill-opacity:1;" d="M 140.589844 56.773438 L 140.679688 56.765625 C 142.148438 56.671875 143.671875 56.941406 144.808594 57.945312 C 144.820312 58.300781 144.839844 59.003906 144.851562 59.359375 C 143.789062 59.394531 142.734375 59.421875 141.679688 59.453125 C 141.539062 59.210938 141.265625 58.71875 141.128906 58.476562 C 139.246094 60.003906 136.65625 59.285156 134.429688 59.351562 C 133.023438 59.425781 132 58.234375 131.660156 56.976562 C 132.910156 56.894531 134.171875 56.828125 135.425781 56.894531 C 137.144531 57.125 138.894531 57.238281 140.589844 56.773438 Z M 140.589844 56.773438 "/>
    <path style=" stroke:none;fill-rule:nonzero;fill:rgb(28.627451%,21.568627%,7.058824%);fill-opacity:0.721569;" d="M 196.910156 59.191406 C 199.804688 59.390625 202.710938 59.390625 205.601562 59.164062 C 202.816406 59.925781 199.703125 59.914062 196.910156 59.191406 Z M 196.910156 59.191406 "/>
    <path style=" stroke:none;fill-rule:nonzero;fill:rgb(66.27451%,50.196078%,16.078431%);fill-opacity:1;" d="M 179.496094 59.429688 C 180.554688 59.578125 181.621094 59.726562 182.683594 59.871094 C 182.695312 60.730469 182.695312 61.589844 182.695312 62.453125 C 181.625 62.449219 180.558594 62.445312 179.496094 62.445312 C 179.496094 61.441406 179.496094 60.433594 179.496094 59.429688 Z M 179.496094 59.429688 "/>
  </g>
</svg>