<?xml version="1.0" encoding="UTF-8" standalone="yes"?>
<svg xmlns="http://www.w3.org/2000/svg" xmlns:xlink="http://www.w3.org/1999/xlink" width="444px" height="106.66666666666666px" viewBox="0 0 333 80" version="1.1">
  <g id="surface1">
    <path style=" stroke:none;fill-rule:nonzero;fill:rgb(0%,0%,0%);fill-opacity:1;" d="M 158.941406 10.035156 C 159.339844 10.011719 159.738281 10 160.144531 9.992188 C 169.898438 19.984375 179.714844 29.921875 189.609375 39.773438 C 181.171875 48.324219 172.671875 56.808594 164.242188 65.371094 C 162.855469 66.789062 161.40625 68.148438 160.113281 69.652344 C 159.71875 69.652344 159.332031 69.652344 158.949219 69.652344 C 159.046875 63.109375 158.902344 56.558594 159.015625 50.019531 C 162.273438 46.488281 165.910156 43.261719 169.144531 39.691406 C 165.855469 36.546875 162.71875 33.238281 159.445312 30.078125 C 158.75 29.597656 159.023438 28.6875 158.96875 27.980469 C 158.96875 21.996094 159.019531 16.011719 158.941406 10.035156 Z M 158.941406 10.035156 "/>
    <path style=" stroke:none;fill-rule:nonzero;fill:rgb(0%,0%,0%);fill-opacity:1;" d="M 185.382812 9.988281 C 185.820312 10 186.261719 10.011719 186.703125 10.023438 C 190.230469 13.851562 194.027344 17.433594 197.65625 21.164062 C 203.824219 27.332031 209.929688 33.566406 216.125 39.703125 C 208.480469 47.703125 200.582031 55.464844 192.808594 63.339844 C 190.78125 65.457031 188.585938 67.421875 186.675781 69.640625 C 186.242188 69.648438 185.8125 69.664062 185.382812 69.675781 C 185.472656 63.335938 185.394531 56.996094 185.425781 50.65625 C 185.359375 50.183594 185.714844 49.824219 186.007812 49.507812 C 189.242188 46.273438 192.496094 43.058594 195.699219 39.789062 C 192.484375 36.558594 189.265625 33.335938 186.039062 30.121094 C 185.773438 29.804688 185.378906 29.488281 185.425781 29.03125 C 185.390625 22.683594 185.476562 16.335938 185.382812 9.988281 Z M 185.382812 9.988281 "/>
    <path style=" stroke:none;fill-rule:nonzero;fill:rgb(0%,0%,0%);fill-opacity:1;" d="M 22.214844 13.910156 C 29.285156 10.628906 37.367188 11.082031 44.851562 12.398438 C 44.863281 16.363281 44.816406 20.328125 44.839844 24.292969 C 40.738281 23.28125 36.523438 22.199219 32.265625 22.664062 C 30.285156 22.847656 28.167969 23.796875 27.304688 25.691406 C 26.894531 26.863281 26.867188 28.28125 27.59375 29.335938 C 28.34375 30.527344 29.617188 31.226562 30.808594 31.898438 C 35.214844 34.089844 40.21875 35.300781 43.980469 38.632812 C 46.9375 41.183594 48.507812 45.121094 48.433594 48.992188 C 48.578125 53.609375 46.800781 58.292969 43.515625 61.558594 C 41.34375 63.796875 38.539062 65.339844 35.601562 66.339844 C 31.136719 67.929688 26.308594 68.058594 21.625 67.714844 C 19.242188 67.308594 16.753906 67.324219 14.476562 66.453125 C 14.769531 62.226562 14.816406 57.988281 15.144531 53.765625 C 19.085938 55.367188 23.351562 56.332031 27.621094 56.226562 C 29.675781 56.179688 31.917969 55.679688 33.296875 54.035156 C 34.390625 52.882812 34.503906 51.148438 34.167969 49.671875 C 33.636719 48.058594 32.175781 47.011719 30.734375 46.246094 C 27.574219 44.625 24.09375 43.707031 20.976562 41.980469 C 18.082031 40.46875 15.507812 38.121094 14.230469 35.0625 C 13.765625 33.988281 13.214844 32.882812 13.308594 31.671875 C 13.351562 29.210938 13.273438 26.746094 13.34375 24.285156 C 14.390625 19.648438 17.910156 15.816406 22.214844 13.910156 Z M 22.214844 13.910156 "/>
    <path style=" stroke:none;fill-rule:nonzero;fill:rgb(0%,0%,0%);fill-opacity:1;" d="M 47.007812 12.480469 C 51.472656 12.558594 55.9375 12.484375 60.398438 12.523438 C 61.816406 21.347656 63.269531 30.167969 64.6875 38.988281 C 64.90625 40.398438 65.042969 41.839844 65.5625 43.179688 C 65.773438 40.558594 66.328125 37.988281 66.710938 35.390625 C 67.953125 27.761719 69.1875 20.136719 70.425781 12.511719 C 74.851562 12.523438 79.277344 12.5 83.703125 12.523438 C 85.226562 22.550781 87.019531 32.535156 88.5 42.570312 C 88.542969 42.695312 88.628906 42.949219 88.667969 43.078125 C 90.53125 32.917969 91.945312 22.667969 93.765625 12.5 C 98.21875 12.515625 102.671875 12.535156 107.121094 12.488281 C 104.035156 29.980469 100.957031 47.472656 97.851562 64.960938 C 97.75 65.640625 97.644531 66.320312 97.441406 66.980469 C 97.007812 67.257812 96.414062 67.046875 95.925781 67.109375 C 91.539062 67.09375 87.152344 67.082031 82.765625 67.117188 C 81.253906 58.660156 79.757812 50.199219 78.285156 41.734375 C 77.949219 39.859375 77.53125 37.992188 77.390625 36.089844 L 76.75 36.070312 C 75.152344 46.398438 73.070312 56.648438 71.4375 66.972656 C 70.9375 67.03125 70.441406 67.125 69.9375 67.109375 C 65.503906 67.078125 61.070312 67.109375 56.636719 67.09375 C 53.398438 48.898438 50.167969 30.691406 47.007812 12.480469 Z M 47.007812 12.480469 "/>
    <path style=" stroke:none;fill-rule:nonzero;fill:rgb(0%,0%,0%);fill-opacity:1;" d="M 109.132812 12.554688 C 114.925781 12.117188 120.734375 12.21875 126.535156 12.164062 C 131.507812 12.125 136.738281 12.816406 140.980469 15.605469 C 144.71875 18.082031 146.710938 22.605469 146.785156 27.011719 C 147.210938 31.253906 145.921875 35.699219 143.101562 38.925781 C 141.152344 41.210938 138.449219 42.707031 135.625 43.628906 C 140.179688 50.304688 144.578125 57.089844 149.027344 63.835938 C 149.675781 64.933594 150.550781 65.898438 151.054688 67.078125 C 145.738281 67.078125 140.417969 67.035156 135.101562 67.097656 C 131.371094 61.320312 127.933594 55.351562 124.296875 49.511719 C 123.679688 48.574219 123.269531 47.488281 122.464844 46.683594 C 122.394531 53.4375 122.5 60.195312 122.417969 66.945312 C 122.289062 66.976562 122.035156 67.035156 121.90625 67.066406 C 118.132812 67.082031 114.351562 67.050781 110.574219 67.078125 C 110.066406 67.101562 109.570312 66.976562 109.078125 66.875 C 109.183594 48.769531 109.066406 30.664062 109.132812 12.554688 M 122.433594 24.664062 C 122.449219 28.117188 122.449219 31.570312 122.433594 35.023438 C 122.476562 35.476562 122.320312 36.152344 122.878906 36.351562 C 124.652344 36.484375 126.460938 36.398438 128.199219 36.007812 C 130.683594 35.410156 132.898438 33.328125 133.195312 30.71875 C 133.519531 28.5625 133.070312 26.03125 131.179688 24.691406 C 128.761719 22.882812 125.5625 23.296875 122.734375 23.203125 C 122.546875 23.671875 122.378906 24.148438 122.433594 24.664062 Z M 122.433594 24.664062 "/>
    <path style=" stroke:none;fill-rule:nonzero;fill:rgb(0%,0%,0%);fill-opacity:1;" d="M 218.628906 13.1875 C 225.996094 13.226562 233.363281 13.160156 240.730469 13.21875 C 246.007812 13.554688 251.746094 14.90625 255.339844 19.085938 C 257.632812 21.527344 258.332031 25.09375 257.816406 28.328125 C 257.21875 32.308594 254.398438 35.707031 250.90625 37.566406 C 252.078125 38.207031 253.386719 38.570312 254.515625 39.308594 C 257.511719 41.125 259.835938 44.171875 260.441406 47.667969 C 261.039062 51.367188 260.527344 55.421875 258.265625 58.503906 C 255.414062 62.539062 250.722656 64.863281 246.015625 65.945312 C 243.089844 66.671875 240.066406 66.5625 237.078125 66.578125 C 230.929688 66.582031 224.78125 66.566406 218.632812 66.585938 C 218.652344 48.785156 218.65625 30.988281 218.628906 13.1875 M 231.617188 23.195312 C 231.675781 26.828125 231.605469 30.464844 231.65625 34.101562 C 234.132812 34.078125 236.636719 34.273438 239.085938 33.785156 C 241 33.519531 242.921875 32.492188 243.859375 30.742188 C 244.53125 29.285156 244.847656 27.511719 244.09375 26.015625 C 243.6875 24.925781 242.613281 24.3125 241.59375 23.898438 C 238.371094 22.863281 234.945312 23.21875 231.617188 23.195312 M 231.601562 44.175781 C 231.683594 48.007812 231.621094 51.839844 231.632812 55.671875 C 231.640625 56.070312 231.742188 56.445312 231.929688 56.804688 C 234.4375 56.726562 236.949219 56.773438 239.457031 56.769531 C 237.171875 56.292969 234.835938 56.777344 232.542969 56.5 C 235.933594 56.117188 239.449219 57.15625 242.75 56 C 244.515625 55.390625 246.214844 54.140625 246.847656 52.316406 C 247.742188 50.125 247.082031 47.308594 245.101562 45.941406 C 243.007812 44.410156 240.285156 44.097656 237.765625 44.117188 C 235.710938 44.125 233.648438 44.015625 231.601562 44.175781 Z M 231.601562 44.175781 "/>
    <path style=" stroke:none;fill-rule:nonzero;fill:rgb(0%,0%,0%);fill-opacity:1;" d="M 258.058594 13.195312 C 261.871094 13.125 265.691406 13.238281 269.503906 13.140625 C 271.207031 20.644531 272.789062 28.175781 274.433594 35.691406 C 275.21875 39.035156 275.789062 42.4375 276.703125 45.742188 C 279.179688 34.875 281.835938 24.050781 284.300781 13.183594 C 287.808594 13.171875 291.316406 13.179688 294.820312 13.175781 C 296.519531 21.003906 298.277344 28.820312 299.984375 36.648438 C 300.523438 39.246094 301.226562 41.8125 301.640625 44.441406 L 302.175781 44.667969 C 304.207031 34.152344 306.578125 23.703125 308.65625 13.195312 C 312.335938 13.140625 316.019531 13.214844 319.699219 13.15625 C 319.703125 13.664062 319.675781 14.171875 319.625 14.671875 C 316.347656 28.566406 313.167969 42.488281 309.929688 56.398438 C 309.21875 59.757812 308.230469 63.066406 307.730469 66.464844 C 303.90625 66.660156 300.070312 66.550781 296.242188 66.523438 C 294.085938 56.5 291.640625 46.535156 289.464844 36.515625 L 288.90625 36.289062 C 286.804688 46.398438 284.289062 56.421875 282.164062 66.527344 C 278.320312 66.582031 274.480469 66.589844 270.640625 66.519531 C 266.59375 48.714844 262.125 31 258.058594 13.195312 Z M 258.058594 13.195312 "/>
  </g>
</svg>