<?xml version="1.0" encoding="UTF-8" standalone="yes"?>
<svg xmlns="http://www.w3.org/2000/svg" xmlns:xlink="http://www.w3.org/1999/xlink" width="72px" height="105.33333333333333px" viewBox="0 0 54 79" version="1.1">
  <g id="surface1">
    <path style=" stroke:none;fill-rule:nonzero;fill:rgb(96.078431%,44.313725%,8.627451%);fill-opacity:1;" d="M 54 64.875 L 0 64.875 L 0 0 L 54 0 Z M 54 64.875 "/>
    <path style=" stroke:none;fill-rule:nonzero;fill:rgb(100%,100%,100%);fill-opacity:1;" d="M 36.605469 24.019531 C 36.605469 18.878906 32.464844 14.71875 27.339844 14.71875 C 22.140625 14.71875 17.996094 18.878906 17.996094 24.019531 C 17.996094 29.164062 22.140625 33.320312 27.265625 33.320312 C 32.464844 33.320312 36.605469 29.238281 36.605469 24.019531 Z M 13.175781 61.980469 L 26.738281 45.421875 L 25.605469 45.421875 L 23.648438 45.34375 C 22.066406 45.269531 18.597656 44.511719 16.488281 43.679688 C 8.050781 40.503906 3.003906 33.394531 3.003906 24.472656 C 3.003906 11.769531 12.949219 2.996094 27.265625 2.996094 C 41.050781 2.996094 50.921875 11.542969 50.921875 23.492188 C 50.921875 30.070312 47.683594 38.3125 42.332031 45.34375 L 29.75 61.980469 Z M 13.175781 61.980469 "/>
    <path style=" stroke:none;fill-rule:nonzero;fill:rgb(5.490196%,4.313725%,4.705882%);fill-opacity:1;" d="M 7.109375 78.53125 C 6.648438 78.761719 5.601562 78.953125 4.859375 78.953125 C 2.085938 78.953125 0.09375 76.953125 0.09375 74.171875 C 0.09375 71.246094 2.394531 68.953125 5.34375 68.953125 C 6.097656 68.953125 6.839844 69.105469 7.632812 69.4375 C 8.054688 69.617188 8.207031 69.734375 8.207031 69.875 L 8.207031 69.914062 L 7.976562 71.796875 L 7.886719 72.042969 L 7.796875 72.003906 L 7.65625 71.886719 C 7.199219 71.503906 6.328125 71.261719 5.574219 71.261719 C 3.835938 71.261719 2.585938 72.441406 2.585938 74.054688 C 2.585938 75.570312 3.671875 76.644531 5.203125 76.644531 C 5.984375 76.644531 7.007812 76.390625 7.3125 76.121094 L 7.390625 76.070312 L 7.441406 76.132812 L 7.425781 76.273438 L 7.25 78.363281 Z M 7.109375 78.53125 "/>
    <path style=" stroke:none;fill-rule:nonzero;fill:rgb(5.490196%,4.313725%,4.705882%);fill-opacity:1;" d="M 14.058594 75.082031 L 13.703125 73.402344 C 13.625 73.042969 13.574219 72.835938 13.5625 72.761719 C 13.511719 72.464844 13.484375 72.324219 13.433594 71.953125 L 13.320312 72.285156 L 13 73.09375 L 12.105469 75.082031 Z M 10.40625 78.761719 L 7.722656 78.761719 L 12.464844 69.144531 L 15.195312 69.144531 L 17.523438 78.761719 L 14.96875 78.761719 L 14.546875 77.003906 L 11.210938 77.003906 Z M 10.40625 78.761719 "/>
    <path style=" stroke:none;fill-rule:nonzero;fill:rgb(5.490196%,4.313725%,4.705882%);fill-opacity:1;" d="M 27.644531 78.761719 L 24.988281 78.761719 L 22.433594 74.453125 C 22.316406 74.25 22.175781 74.003906 22.023438 73.695312 C 21.703125 73.09375 21.578125 72.824219 21.257812 72.066406 L 21.257812 72.503906 C 21.257812 73.210938 21.230469 73.734375 21.15625 74.324219 L 20.617188 78.761719 L 18.191406 78.761719 L 19.367188 69.144531 L 21.984375 69.144531 L 24.71875 73.785156 L 25.128906 74.554688 L 25.5 75.300781 L 25.691406 75.65625 L 25.703125 75.261719 C 25.714844 74.890625 25.753906 74.414062 25.804688 74.003906 L 26.40625 69.144531 L 28.820312 69.144531 Z M 27.644531 78.761719 "/>
    <path style=" stroke:none;fill-rule:nonzero;fill:rgb(5.490196%,4.313725%,4.705882%);fill-opacity:1;" d="M 34.628906 75.082031 L 34.269531 73.402344 C 34.191406 73.042969 34.140625 72.835938 34.128906 72.761719 C 34.078125 72.464844 34.050781 72.324219 34 71.953125 L 33.886719 72.285156 L 33.566406 73.09375 L 32.671875 75.082031 Z M 30.972656 78.761719 L 28.289062 78.761719 L 33.03125 69.144531 L 35.765625 69.144531 L 38.089844 78.761719 L 35.535156 78.761719 L 35.113281 77.003906 L 31.777344 77.003906 Z M 30.972656 78.761719 "/>
    <path style=" stroke:none;fill-rule:nonzero;fill:rgb(5.490196%,4.313725%,4.705882%);fill-opacity:1;" d="M 41.441406 76.644531 L 44.496094 76.644531 L 44.238281 78.761719 L 38.757812 78.761719 L 39.933594 69.144531 L 42.363281 69.144531 Z M 41.441406 76.644531 "/>
    <path style=" stroke:none;fill-rule:nonzero;fill:rgb(5.490196%,4.313725%,4.705882%);fill-opacity:1;" d="M 51.558594 72.324219 C 51.558594 71.453125 50.859375 70.746094 49.988281 70.746094 C 49.105469 70.746094 48.40625 71.453125 48.40625 72.324219 C 48.40625 73.195312 49.105469 73.902344 49.976562 73.902344 C 50.859375 73.902344 51.558594 73.210938 51.558594 72.324219 Z M 47.585938 78.761719 L 49.886719 75.953125 L 49.695312 75.953125 L 49.363281 75.941406 C 49.09375 75.929688 48.507812 75.800781 48.148438 75.65625 C 46.71875 75.121094 45.863281 73.914062 45.863281 72.402344 C 45.863281 70.246094 47.546875 68.757812 49.976562 68.757812 C 52.3125 68.757812 53.988281 70.207031 53.988281 72.234375 C 53.988281 73.351562 53.4375 74.746094 52.53125 75.941406 L 50.398438 78.761719 Z M 47.585938 78.761719 "/>
  </g>
</svg>