<?xml version="1.0" encoding="UTF-8" standalone="no"?>
<!-- Created with Inkscape (http://www.inkscape.org/) -->
<svg
   xmlns:dc="http://purl.org/dc/elements/1.1/"
   xmlns:cc="http://web.resource.org/cc/"
   xmlns:rdf="http://www.w3.org/1999/02/22-rdf-syntax-ns#"
   xmlns:svg="http://www.w3.org/2000/svg"
   xmlns="http://www.w3.org/2000/svg"
   xmlns:xlink="http://www.w3.org/1999/xlink"
   xmlns:sodipodi="http://sodipodi.sourceforge.net/DTD/sodipodi-0.dtd"
   xmlns:inkscape="http://www.inkscape.org/namespaces/inkscape"
   width="260"
   height="383"
   id="svg2"
   sodipodi:version="0.32"
   inkscape:version="0.45.1"
   version="1.0"
   inkscape:output_extension="org.inkscape.output.svg.inkscape">
  <g
     inkscape:label="Layer 1"
     inkscape:groupmode="layer"
     id="layer1"
     transform="translate(-13.778116,-657.93681)">
    <g
       id="g3663"
       clip-path="url(#id28)"
       transform="matrix(1,0,0,-1,539.50507,530.44852)">
            <text
   id="text3665"
   transform="scale(1,-1)">
  <tspan
     id="tspan3667"
     x="510.19601"
     y="-69.729797"
     letter-spacing="0"
     font-size="10"
     style="font-size:10px;letter-spacing:0;fill:#221e1f;fill-rule:nonzero;stroke:none;font-family:font2"></tspan>
</text>

          </g>
    <text
       id="text3669"
       x="539.50507"
       y="530.44855">
      <tspan
         id="tspan3671"
         x="1058.42"
         y="460.71872"
         letter-spacing="0"
         font-size="7"
         style="font-size:7px;letter-spacing:0;fill:#f78712;fill-rule:nonzero;stroke:none;font-family:font3"></tspan>
    </text>
    <g
       id="g4313"
       clip-path="url(#id242)"
       transform="matrix(15.629255,0,0,-15.629255,-2582.3035,5031.5808)">
            <path
   id="path4315"
   d="M 182.73946,259.71277 L 166.10361,259.71277 L 166.10361,279.83731 L 182.73946,279.83731 L 182.73946,259.71277 z "
   style="fill:#f57116;fill-rule:nonzero;stroke:none" />

            <path
   id="path4317"
   d="M 177.38141,272.38635 C 177.38141,273.98129 176.10469,275.27148 174.52646,275.27148 C 172.92477,275.27148 171.64809,273.98129 171.64809,272.38635 C 171.64809,270.79108 172.92477,269.50113 174.50313,269.50113 C 176.10469,269.50113 177.38141,270.76764 177.38141,272.38635 z M 170.16249,260.61063 L 174.34058,265.74799 L 174.15501,265.74799 L 173.99258,265.74799 L 173.38904,265.77142 C 172.90163,265.79495 171.83368,266.02936 171.18387,266.28745 C 168.58426,267.27261 167.02899,269.47769 167.02899,272.24564 C 167.02899,276.18634 170.09288,278.90741 174.50313,278.90741 C 178.75087,278.90741 181.79163,276.25668 181.79163,272.55042 C 181.79163,270.50977 180.79337,267.95279 179.14552,265.77142 L 175.26917,260.61063 L 170.16249,260.61063 z "
   style="fill:#ffffff;fill-rule:nonzero;stroke:none" />

            <path
   id="path4319"
   d="M 168.29369,255.47734 C 168.15204,255.4055 167.82935,255.34598 167.601,255.34598 C 166.74699,255.34598 166.13293,255.96654 166.13293,256.82962 C 166.13293,257.73636 166.8414,258.44876 167.75056,258.44876 C 167.9828,258.44876 168.21123,258.40063 168.45512,258.29739 C 168.58501,258.24161 168.63217,258.20599 168.63217,258.16226 L 168.63217,258.15021 L 168.56133,257.5658 L 168.53381,257.48996 L 168.50639,257.50208 L 168.46304,257.53787 C 168.32135,257.65701 168.05363,257.73254 167.82146,257.73254 C 167.28616,257.73254 166.90054,257.36667 166.90054,256.86557 C 166.90054,256.39606 167.23512,256.06201 167.70744,256.06201 C 167.94746,256.06201 168.26233,256.14157 168.35666,256.22513 L 168.38036,256.24106 L 168.39615,256.22104 L 168.39212,256.17746 L 168.33707,255.5291 L 168.29369,255.47734 z "
   style="fill:#0e0b0c;fill-rule:nonzero;stroke:none" />

            <path
   id="path4321"
   d="M 170.43538,256.54733 L 170.32527,257.06839 C 170.30171,257.17975 170.28587,257.24341 170.2818,257.2673 C 170.26613,257.35852 170.25824,257.40231 170.24258,257.51788 L 170.20718,257.41428 L 170.10872,257.16406 L 169.83321,256.54733 L 170.43538,256.54733 z M 169.30969,255.4055 L 168.48329,255.4055 L 169.94347,258.38904 L 170.78571,258.38904 L 171.50217,255.4055 L 170.7149,255.4055 L 170.58514,255.95073 L 169.55788,255.95073 L 169.30969,255.4055 z "
   style="fill:#0e0b0c;fill-rule:nonzero;stroke:none" />

            <path
   id="path4323"
   d="M 174.62048,255.4055 L 173.80196,255.4055 L 173.01495,256.7421 C 172.97945,256.80551 172.93611,256.88138 172.88907,256.97705 C 172.79042,257.16406 172.75125,257.2471 172.6526,257.48184 L 172.6526,257.34692 C 172.6526,257.12793 172.64485,256.96506 172.6212,256.78189 L 172.45592,255.4055 L 171.70818,255.4055 L 172.07021,258.38904 L 172.87714,258.38904 L 173.71927,256.94907 L 173.84535,256.71036 L 173.95932,256.47964 L 174.01828,256.36841 L 174.02238,256.49176 C 174.02629,256.60699 174.03816,256.75409 174.0538,256.88138 L 174.23891,258.38904 L 174.98283,258.38904 L 174.62048,255.4055 z "
   style="fill:#0e0b0c;fill-rule:nonzero;stroke:none" />

            <path
   id="path4325"
   d="M 176.77144,256.54733 L 176.66125,257.06839 C 176.6376,257.17975 176.62184,257.24341 176.61792,257.2673 C 176.60228,257.35852 176.59441,257.40231 176.5787,257.51788 L 176.54332,257.41428 L 176.44493,257.16406 L 176.16924,256.54733 L 176.77144,256.54733 z M 175.64606,255.4055 L 174.81932,255.4055 L 176.27968,258.38904 L 177.12181,258.38904 L 177.83823,255.4055 L 177.05104,255.4055 L 176.92123,255.95073 L 175.894,255.95073 L 175.64606,255.4055 z "
   style="fill:#0e0b0c;fill-rule:nonzero;stroke:none" />

            <path
   id="path4327"
   d="M 178.87079,256.06201 L 179.81137,256.06201 L 179.73253,255.4055 L 178.04411,255.4055 L 178.40627,258.38904 L 179.15404,258.38904 L 178.87079,256.06201 z "
   style="fill:#0e0b0c;fill-rule:nonzero;stroke:none" />

            <path
   id="path4329"
   d="M 181.98776,257.40231 C 181.98776,257.67282 181.77144,257.89175 181.50377,257.89175 C 181.23218,257.89175 181.01578,257.67282 181.01578,257.40231 C 181.01578,257.13187 181.23218,256.91318 181.49985,256.91318 C 181.77144,256.91318 181.98776,257.12793 181.98776,257.40231 z M 180.76375,255.4055 L 181.47217,256.27676 L 181.44089,256.27676 L 181.41319,256.27676 L 181.31088,256.28082 C 181.22813,256.28458 181.04726,256.32455 180.937,256.36841 C 180.49608,256.53534 180.2325,256.90915 180.2325,257.37854 C 180.2325,258.04697 180.75195,258.50818 181.49985,258.50818 C 182.22006,258.50818 182.73579,258.05881 182.73579,257.43036 C 182.73579,257.08432 182.56639,256.65085 182.28691,256.28082 L 181.62984,255.4055 L 180.76375,255.4055 z "
   style="fill:#0e0b0c;fill-rule:nonzero;stroke:none" />

          </g>
  </g>
</svg>
