<?xml version="1.0" encoding="UTF-8" standalone="yes"?>
<svg xmlns="http://www.w3.org/2000/svg" xmlns:xlink="http://www.w3.org/1999/xlink" width="177.33333333333331px" height="106.66666666666666px" viewBox="0 0 133 80" version="1.1">
  <g id="surface1">
    <path style=" stroke:none;fill-rule:nonzero;fill:rgb(100%,100%,100%);fill-opacity:1;" d="M 66.402344 0 L 132.96875 0 C 132.96875 22.265625 132.96875 44.535156 132.96875 66.800781 C 110.777344 66.800781 88.589844 66.800781 66.402344 66.800781 Z M 66.402344 0 "/>
    <path style=" stroke:none;fill-rule:nonzero;fill:rgb(0%,0%,0%);fill-opacity:1;" d="M 0 0 L 66.484375 0 C 66.484375 22.265625 66.484375 44.535156 66.484375 66.800781 C 44.320312 66.800781 22.160156 66.800781 0 66.800781 Z M 0 0 "/>
    <path style=" stroke:none;fill-rule:nonzero;fill:rgb(100%,100%,100%);fill-opacity:1;" d="M 32.027344 3.71875 C 35.003906 3.386719 38.027344 3.554688 40.964844 4.136719 C 46.296875 5.203125 51.3125 7.792969 55.289062 11.519531 C 57.5 13.589844 59.433594 15.980469 60.898438 18.640625 C 55.390625 21.800781 49.878906 24.957031 44.386719 28.136719 C 43.296875 26.242188 41.648438 24.675781 39.679688 23.742188 C 37.859375 22.875 35.785156 22.515625 33.789062 22.792969 C 31.386719 23.074219 29.105469 24.234375 27.4375 25.988281 C 25.75 27.730469 24.6875 30.066406 24.484375 32.488281 C 24.117188 36.261719 25.945312 40.152344 29.078125 42.265625 C 31.8125 44.191406 35.476562 44.679688 38.621094 43.550781 C 41.042969 42.710938 43.113281 40.945312 44.386719 38.714844 C 49.878906 41.90625 55.398438 45.042969 60.898438 48.21875 C 58.960938 51.699219 56.265625 54.738281 53.128906 57.171875 C 49.851562 59.6875 46.054688 61.519531 42.039062 62.476562 C 37.429688 63.585938 32.558594 63.566406 27.957031 62.425781 C 24.042969 61.453125 20.335938 59.664062 17.132812 57.207031 C 13.671875 54.5625 10.792969 51.144531 8.78125 47.265625 C 5.480469 40.992188 4.5625 33.515625 6.183594 26.613281 C 7.445312 21.125 10.308594 16.023438 14.324219 12.09375 C 19.054688 7.394531 25.40625 4.378906 32.027344 3.71875 Z M 32.027344 3.71875 "/>
    <path style=" stroke:none;fill-rule:nonzero;fill:rgb(0%,0%,0%);fill-opacity:1;" d="M 71.257812 4.789062 C 77.582031 4.792969 83.902344 4.785156 90.226562 4.789062 C 96.578125 12.742188 102.886719 20.722656 109.242188 28.667969 C 109.257812 20.707031 109.238281 12.746094 109.25 4.785156 C 115.574219 4.792969 121.898438 4.789062 128.222656 4.785156 C 128.21875 23.867188 128.21875 42.953125 128.222656 62.035156 C 128.03125 62.035156 127.847656 62.039062 127.660156 62.042969 C 126.027344 62.027344 124.390625 62.054688 122.757812 62.035156 C 119.875 62.050781 116.988281 62.03125 114.101562 62.039062 C 112.46875 62.035156 110.835938 62.046875 109.203125 62.035156 C 102.886719 54.085938 96.558594 46.148438 90.246094 38.199219 C 90.21875 46.144531 90.242188 54.089844 90.234375 62.035156 C 89.253906 62.046875 88.277344 62.039062 87.296875 62.039062 C 87.15625 62.039062 87.015625 62.039062 86.878906 62.039062 C 81.769531 62.0625 76.660156 62.035156 71.546875 62.039062 C 71.472656 62.039062 71.328125 62.039062 71.253906 62.039062 C 71.257812 42.953125 71.246094 23.871094 71.257812 4.789062 Z M 71.257812 4.789062 "/>
    <path style=" stroke:none;fill-rule:nonzero;fill:rgb(0%,0%,0%);fill-opacity:1;" d="M 3.988281 72.238281 C 5.023438 71.5 6.398438 71.261719 7.613281 71.632812 C 8.660156 71.929688 9.539062 72.664062 10.105469 73.585938 C 9.375 74.003906 8.65625 74.4375 7.917969 74.847656 C 7.535156 74.3125 6.90625 73.925781 6.230469 74.03125 C 5.566406 74.09375 4.980469 74.605469 4.804688 75.25 C 4.472656 76.246094 5.3125 77.410156 6.355469 77.40625 C 6.988281 77.464844 7.570312 77.078125 7.921875 76.574219 C 8.648438 77.007812 9.378906 77.421875 10.109375 77.84375 C 9.386719 79.046875 8.105469 79.859375 6.707031 79.980469 L 6.167969 79.980469 C 4.644531 79.867188 3.199219 78.902344 2.582031 77.488281 C 2.210938 76.726562 2.148438 75.863281 2.246094 75.035156 C 2.421875 73.914062 3.070312 72.890625 3.988281 72.238281 Z M 3.988281 72.238281 "/>
    <path style=" stroke:none;fill-rule:nonzero;fill:rgb(0%,0%,0%);fill-opacity:1;" d="M 41.292969 71.496094 C 40.207031 71.503906 39.144531 71.992188 38.40625 72.78125 C 37.648438 73.542969 37.238281 74.617188 37.207031 75.6875 C 37.214844 76.667969 37.539062 77.652344 38.164062 78.410156 C 38.855469 79.285156 39.90625 79.824219 40.996094 79.980469 L 41.878906 79.980469 C 42.984375 79.832031 44.046875 79.292969 44.738281 78.402344 C 45.457031 77.539062 45.769531 76.378906 45.648438 75.265625 C 45.480469 73.207031 43.582031 71.433594 41.507812 71.5 C 41.433594 71.496094 41.363281 71.496094 41.292969 71.496094 Z M 41.402344 74.175781 C 42.101562 74.160156 42.796875 74.664062 42.941406 75.371094 C 43.234375 76.371094 42.273438 77.441406 41.253906 77.265625 C 40.5625 77.183594 39.976562 76.589844 39.917969 75.890625 C 39.832031 75.203125 40.28125 74.503906 40.925781 74.273438 C 41.082031 74.210938 41.242188 74.179688 41.402344 74.175781 Z M 41.402344 74.175781 "/>
    <path style=" stroke:none;fill-rule:nonzero;fill:rgb(0%,0%,0%);fill-opacity:1;" d="M 50.566406 71.492188 C 50.316406 71.496094 50.066406 71.515625 49.820312 71.550781 C 48.75 71.742188 47.777344 72.386719 47.148438 73.277344 C 46.472656 74.230469 46.21875 75.480469 46.472656 76.625 C 46.695312 77.703125 47.363281 78.679688 48.277344 79.28125 C 48.84375 79.671875 49.515625 79.867188 50.183594 79.980469 L 51.039062 79.980469 C 52.195312 79.824219 53.304688 79.230469 54 78.273438 C 54.757812 77.277344 54.992188 75.945312 54.722656 74.734375 C 54.457031 73.609375 53.714844 72.605469 52.710938 72.039062 C 52.066406 71.644531 51.316406 71.488281 50.566406 71.492188 Z M 50.609375 74.175781 C 51.398438 74.179688 52.160156 74.863281 52.132812 75.679688 C 52.226562 76.648438 51.191406 77.496094 50.269531 77.234375 C 49.457031 77.078125 48.878906 76.152344 49.117188 75.351562 C 49.253906 74.796875 49.71875 74.34375 50.273438 74.214844 C 50.386719 74.1875 50.496094 74.175781 50.609375 74.175781 Z M 50.609375 74.175781 "/>
    <path style=" stroke:none;fill-rule:nonzero;fill:rgb(0%,0%,0%);fill-opacity:1;" d="M 109.3125 71.46875 C 107.710938 71.460938 106.136719 72.441406 105.480469 73.921875 C 104.875 75.210938 104.976562 76.800781 105.742188 78 C 106.429688 79.125 107.660156 79.839844 108.953125 79.980469 L 109.707031 79.980469 C 110.679688 79.851562 111.625 79.429688 112.324219 78.722656 C 112.976562 78.050781 113.40625 77.160156 113.515625 76.230469 C 113.644531 75.261719 113.394531 74.261719 112.886719 73.433594 C 112.210938 72.375 111.058594 71.632812 109.808594 71.5 C 109.644531 71.480469 109.476562 71.46875 109.3125 71.46875 Z M 109.238281 74.171875 C 109.984375 74.144531 110.734375 74.703125 110.828125 75.472656 C 111.03125 76.453125 110.082031 77.425781 109.105469 77.257812 C 108.359375 77.164062 107.734375 76.445312 107.785156 75.683594 C 107.765625 75.082031 108.191406 74.523438 108.730469 74.289062 C 108.894531 74.21875 109.066406 74.179688 109.238281 74.171875 Z M 109.238281 74.171875 "/>
    <path style=" stroke:none;fill-rule:nonzero;fill:rgb(0%,0%,0%);fill-opacity:1;" d="M 16.855469 71.644531 C 15.503906 71.648438 14.148438 71.652344 12.796875 71.648438 C 11.964844 74.371094 11.113281 77.089844 10.265625 79.804688 C 11.226562 79.804688 12.1875 79.804688 13.148438 79.804688 C 13.273438 79.347656 13.398438 78.890625 13.535156 78.4375 C 14.402344 78.441406 15.269531 78.410156 16.136719 78.449219 C 16.3125 78.886719 16.386719 79.359375 16.542969 79.804688 C 17.496094 79.800781 18.445312 79.808594 19.398438 79.800781 C 18.542969 77.082031 17.710938 74.359375 16.855469 71.644531 Z M 14.820312 73.898438 C 15.097656 74.730469 15.335938 75.582031 15.554688 76.433594 C 15.074219 76.433594 14.589844 76.433594 14.105469 76.429688 C 14.339844 75.585938 14.582031 74.742188 14.820312 73.898438 Z M 14.820312 73.898438 "/>
    <path style=" stroke:none;fill-rule:nonzero;fill:rgb(0%,0%,0%);fill-opacity:1;" d="M 20.214844 71.648438 L 20.214844 79.804688 C 21.113281 79.808594 22.007812 79.804688 22.902344 79.804688 C 22.90625 79.011719 22.898438 78.214844 22.910156 77.421875 C 23.199219 77.414062 23.488281 77.417969 23.78125 77.421875 C 24.183594 78.214844 24.578125 79.015625 24.984375 79.808594 C 25.980469 79.800781 26.976562 79.808594 27.976562 79.804688 C 27.472656 78.902344 26.914062 78.03125 26.40625 77.128906 C 26.523438 77.007812 26.671875 76.929688 26.804688 76.828125 C 27.566406 76.292969 28.046875 75.359375 27.984375 74.421875 C 27.984375 72.957031 26.671875 71.703125 25.238281 71.664062 C 23.566406 71.628906 21.890625 71.660156 20.214844 71.648438 Z M 23.765625 74.023438 C 24.050781 74.023438 24.335938 74.023438 24.625 74.023438 C 25 74 25.347656 74.367188 25.300781 74.742188 C 25.300781 75.089844 24.980469 75.40625 24.636719 75.394531 C 24.058594 75.398438 23.480469 75.390625 22.902344 75.394531 C 22.902344 74.941406 22.902344 74.484375 22.902344 74.027344 C 23.191406 74.027344 23.476562 74.027344 23.765625 74.023438 Z M 23.765625 74.023438 "/>
    <path style=" stroke:none;fill-rule:nonzero;fill:rgb(0%,0%,0%);fill-opacity:1;" d="M 28.722656 74.027344 C 28.738281 73.234375 28.730469 72.441406 28.730469 71.648438 C 31.4375 71.652344 34.148438 71.648438 36.859375 71.648438 C 36.859375 72.441406 36.863281 73.234375 36.859375 74.023438 C 36.003906 74.027344 35.148438 74.019531 34.292969 74.03125 C 34.292969 75.953125 34.292969 77.878906 34.292969 79.804688 C 33.285156 79.804688 32.277344 79.808594 31.269531 79.804688 C 31.269531 77.878906 31.269531 75.953125 31.269531 74.027344 C 30.421875 74.027344 29.574219 74.023438 28.722656 74.027344 Z M 28.722656 74.027344 "/>
    <path style=" stroke:none;fill-rule:nonzero;fill:rgb(0%,0%,0%);fill-opacity:1;" d="M 55.664062 71.652344 C 56.5625 71.644531 57.457031 71.652344 58.355469 71.648438 C 59.277344 72.765625 60.152344 73.925781 61.078125 75.039062 C 61.101562 73.910156 61.082031 72.78125 61.089844 71.652344 C 61.984375 71.644531 62.882812 71.652344 63.777344 71.644531 C 63.773438 74.367188 63.765625 77.085938 63.78125 79.808594 C 62.886719 79.804688 61.988281 79.804688 61.09375 79.808594 C 60.164062 78.691406 59.289062 77.527344 58.363281 76.40625 C 58.316406 77.539062 58.347656 78.671875 58.347656 79.804688 C 57.453125 79.804688 56.558594 79.804688 55.664062 79.804688 C 55.664062 77.085938 55.664062 74.367188 55.664062 71.652344 Z M 55.664062 71.652344 "/>
    <path style=" stroke:none;fill-rule:nonzero;fill:rgb(0%,0%,0%);fill-opacity:1;" d="M 69.269531 71.648438 C 70.171875 71.65625 71.074219 71.640625 71.972656 71.65625 C 72.875 72.792969 73.761719 73.9375 74.691406 75.050781 C 74.707031 73.917969 74.691406 72.78125 74.699219 71.648438 C 75.585938 71.652344 76.476562 71.648438 77.367188 71.648438 C 77.367188 74.367188 77.367188 77.085938 77.367188 79.804688 C 76.472656 79.804688 75.578125 79.808594 74.683594 79.804688 C 73.757812 78.675781 72.875 77.515625 71.949219 76.390625 C 71.9375 77.53125 71.941406 78.667969 71.945312 79.804688 C 71.054688 79.804688 70.164062 79.804688 69.269531 79.804688 C 69.269531 77.085938 69.273438 74.367188 69.269531 71.648438 Z M 69.269531 71.648438 "/>
    <path style=" stroke:none;fill-rule:nonzero;fill:rgb(0%,0%,0%);fill-opacity:1;" d="M 78.550781 71.644531 C 80.914062 71.65625 83.277344 71.640625 85.640625 71.652344 C 85.644531 72.226562 85.636719 72.800781 85.644531 73.375 C 85.640625 73.59375 85.621094 73.808594 85.605469 74.027344 C 84.144531 74.027344 82.6875 74.019531 81.226562 74.03125 C 81.222656 74.277344 81.246094 74.519531 81.261719 74.765625 C 82.492188 74.761719 83.71875 74.765625 84.949219 74.761719 C 84.941406 75.433594 84.945312 76.101562 84.945312 76.769531 C 83.707031 76.773438 82.46875 76.761719 81.230469 76.773438 C 81.230469 77.054688 81.230469 77.339844 81.238281 77.625 C 82.707031 77.640625 84.175781 77.628906 85.640625 77.628906 C 85.640625 77.957031 85.640625 78.285156 85.640625 78.617188 C 85.640625 79.011719 85.640625 79.40625 85.640625 79.804688 C 83.28125 79.808594 80.914062 79.804688 78.554688 79.804688 C 78.554688 77.085938 78.558594 74.367188 78.550781 71.644531 Z M 78.550781 71.644531 "/>
    <path style=" stroke:none;fill-rule:nonzero;fill:rgb(0%,0%,0%);fill-opacity:1;" d="M 86.542969 71.648438 C 89.253906 71.652344 91.96875 71.640625 94.679688 71.652344 C 94.675781 72.445312 94.691406 73.234375 94.671875 74.023438 C 93.820312 74.023438 92.972656 74.023438 92.125 74.023438 C 92.121094 75.953125 92.125 77.878906 92.125 79.804688 C 91.117188 79.804688 90.109375 79.804688 89.101562 79.804688 C 89.101562 77.878906 89.101562 75.949219 89.101562 74.023438 C 88.25 74.007812 87.394531 74.054688 86.542969 73.996094 C 86.542969 73.214844 86.539062 72.433594 86.542969 71.648438 Z M 86.542969 71.648438 "/>
    <path style=" stroke:none;fill-rule:nonzero;fill:rgb(0%,0%,0%);fill-opacity:1;" d="M 95.351562 71.652344 C 96.261719 71.644531 97.167969 71.648438 98.078125 71.652344 C 98.292969 72.84375 98.503906 74.039062 98.765625 75.226562 C 99.21875 74.132812 99.660156 73.03125 100.117188 71.9375 C 100.570312 73.03125 100.988281 74.140625 101.476562 75.21875 C 101.71875 74.03125 101.917969 72.835938 102.164062 71.648438 C 103.066406 71.652344 103.964844 71.644531 104.867188 71.652344 C 104.347656 74.371094 103.835938 77.089844 103.320312 79.804688 C 102.570312 79.804688 101.820312 79.808594 101.070312 79.800781 C 100.761719 79.066406 100.441406 78.332031 100.113281 77.605469 C 99.769531 78.332031 99.476562 79.082031 99.132812 79.808594 C 98.398438 79.804688 97.660156 79.804688 96.921875 79.808594 C 96.363281 77.097656 95.898438 74.367188 95.351562 71.652344 Z M 95.351562 71.652344 "/>
    <path style=" stroke:none;fill-rule:nonzero;fill:rgb(0%,0%,0%);fill-opacity:1;" d="M 116.789062 71.648438 C 115.980469 71.648438 115.175781 71.652344 114.367188 71.652344 C 114.367188 74.367188 114.363281 77.085938 114.367188 79.804688 C 115.269531 79.804688 116.171875 79.808594 117.078125 79.804688 C 117.074219 79.003906 117.070312 78.203125 117.078125 77.402344 C 117.363281 77.398438 117.65625 77.398438 117.945312 77.410156 C 118.324219 78.210938 118.738281 79 119.125 79.800781 C 120.132812 79.808594 121.140625 79.804688 122.148438 79.804688 C 121.617188 78.898438 121.058594 78.003906 120.550781 77.089844 C 121.402344 76.648438 122 75.792969 122.152344 74.847656 C 122.152344 74.632812 122.152344 74.417969 122.152344 74.207031 C 122.046875 73.628906 121.828125 73.058594 121.421875 72.625 C 120.871094 72.003906 120.042969 71.640625 119.210938 71.660156 C 118.40625 71.648438 117.597656 71.648438 116.789062 71.648438 Z M 117.074219 74.023438 C 117.652344 74.027344 118.230469 74.019531 118.808594 74.023438 C 119.242188 74.007812 119.617188 74.546875 119.414062 74.941406 C 119.320312 75.191406 119.078125 75.390625 118.804688 75.394531 C 118.226562 75.402344 117.652344 75.390625 117.074219 75.394531 C 117.074219 74.9375 117.074219 74.480469 117.074219 74.023438 Z M 117.074219 74.023438 "/>
    <path style=" stroke:none;fill-rule:nonzero;fill:rgb(0%,0%,0%);fill-opacity:1;" d="M 123.011719 79.804688 C 123.003906 77.085938 123.003906 74.367188 123.011719 71.652344 C 123.917969 71.648438 124.824219 71.640625 125.730469 71.65625 C 125.730469 72.535156 125.714844 73.414062 125.738281 74.292969 C 126.425781 73.421875 127.070312 72.515625 127.757812 71.644531 C 128.910156 71.65625 130.058594 71.640625 131.210938 71.652344 C 130.15625 72.941406 129.128906 74.253906 128.070312 75.539062 C 129.070312 76.992188 130.179688 78.375 131.214844 79.804688 C 130.058594 79.808594 128.90625 79.804688 127.75 79.804688 C 127.082031 78.792969 126.40625 77.785156 125.738281 76.769531 C 125.707031 77.78125 125.734375 78.792969 125.726562 79.804688 C 124.820312 79.804688 123.917969 79.804688 123.011719 79.804688 Z M 123.011719 79.804688 "/>
  </g>
</svg>