<?xml version="1.0" encoding="UTF-8" standalone="no"?>
<svg
   xmlns:dc="http://purl.org/dc/elements/1.1/"
   xmlns:cc="http://creativecommons.org/ns#"
   xmlns:rdf="http://www.w3.org/1999/02/22-rdf-syntax-ns#"
   xmlns:svg="http://www.w3.org/2000/svg"
   xmlns="http://www.w3.org/2000/svg"
   xmlns:sodipodi="http://sodipodi.sourceforge.net/DTD/sodipodi-0.dtd"
   xmlns:inkscape="http://www.inkscape.org/namespaces/inkscape"
   width="1593.624"
   height="953.75"
   viewBox="0 0 1274.8992 763"
   version="1.1"
   id="svg2"
   inkscape:version="0.48.2 r9819"
   sodipodi:docname="AJAX.svg">
  <metadata
     id="metadata60">
    <rdf:RDF>
      <cc:Work
         rdf:about="">
        <dc:format>image/svg+xml</dc:format>
        <dc:type
           rdf:resource="http://purl.org/dc/dcmitype/StillImage" />
      </cc:Work>
    </rdf:RDF>
  </metadata>
  <defs
     id="defs58">
    <inkscape:perspective
       sodipodi:type="inkscape:persp3d"
       inkscape:vp_x="0 : 476.875 : 1"
       inkscape:vp_y="0 : 1000 : 0"
       inkscape:vp_z="1638.75 : 476.875 : 1"
       inkscape:persp3d-origin="819.375 : 317.91667 : 1"
       id="perspective62" />
    <inkscape:perspective
       id="perspective2902"
       inkscape:persp3d-origin="0.5 : 0.33333333 : 1"
       inkscape:vp_z="1 : 0.5 : 1"
       inkscape:vp_y="0 : 1000 : 0"
       inkscape:vp_x="0 : 0.5 : 1"
       sodipodi:type="inkscape:persp3d" />
  </defs>
  <sodipodi:namedview
     pagecolor="#ffffff"
     bordercolor="#666666"
     borderopacity="1"
     objecttolerance="10"
     gridtolerance="10"
     guidetolerance="10"
     inkscape:pageopacity="0"
     inkscape:pageshadow="2"
     inkscape:window-width="1280"
     inkscape:window-height="1004"
     id="namedview56"
     showgrid="false"
     inkscape:zoom="0.35355339"
     inkscape:cx="596.10024"
     inkscape:cy="333.79189"
     inkscape:window-x="-8"
     inkscape:window-y="-8"
     inkscape:window-maximized="1"
     inkscape:current-layer="svg2"
     fit-margin-top="0"
     fit-margin-left="0"
     fit-margin-right="0"
     fit-margin-bottom="0" />
  <path
     style="fill:#ffffff;fill-opacity:1;stroke:none"
     d="m 636.64959,3.0555556e-4 638.24961,0 C 1274.8892,212.43032 1274.9092,424.85032 1274.8892,637.28036 c -212.7465,0.01 -425.49308,0 -638.23961,0 l 0,-637.28005444444 z"
     id="path4-9"
     inkscape:connector-curvature="0" />
  <path
     d="M -9.375e-6,0 637.44999,0 c -0.01,212.43 0.01,424.85 -0.01,637.28 -212.48,0.01 -424.96,0 -637.4399993749999,0 l 0,-637.28 z"
     id="path4"
     style="fill:#000000;fill-opacity:1;stroke:none"
     inkscape:connector-curvature="0" />
  <path
     d="m 307.07999,35.49 c 28.54,-3.19 57.52,-1.57 85.69,3.98 51.11,10.18 99.22,34.87 137.33,70.42 21.19,19.76 39.74,42.57 53.78,67.96 -52.81,30.13 -105.63,60.23 -158.32,90.57 -10.42,-18.07 -26.25,-33.01 -45.13,-41.93 -17.45,-8.27 -37.32,-11.68 -56.48,-9.05 -23.01,2.69 -44.88,13.76 -60.88,30.47 -16.17,16.63 -26.36,38.92 -28.3,62.04 -3.53,36 13.98,73.1 44.03,93.25 26.23,18.4 61.36,23.05 91.51,12.26 23.22,-8.01 43.06,-24.85 55.26,-46.12 52.65,30.44 105.6,60.38 158.33,90.68 -18.6,33.18 -44.41,62.18 -74.49,85.39 -31.42,24.02 -67.85,41.49 -106.34,50.63 -44.18,10.58 -90.9,10.39 -135.01,-0.5 -37.52,-9.27 -73.08,-26.35 -103.8,-49.79 -33.19,-25.24 -60.79,-57.84 -80.069999,-94.82 -31.64,-59.86 -40.45,-131.2 -24.92,-197.04 12.11,-52.35 39.58,-101.03 78.079999,-138.52 45.34,-44.83 106.26,-73.61 169.73,-79.88 z"
     id="path8"
     style="fill:#ffffff;fill-opacity:1;stroke:none"
     inkscape:connector-curvature="0" />
  <path
     d="m 683.22999,45.67 c 60.62,0.05 121.24,-0.01 181.86,0.03 60.88,75.85 121.39,151.99 182.33001,227.78 0.14,-75.94 -0.03,-151.89 0.08,-227.83 60.63,0.07 121.26,0.05 181.89,0.01 -0.02,182.05 -0.04,364.1 0.01,546.14 -1.83,0.02 -3.61,0.06 -5.4,0.09 -15.67,-0.15 -31.33,0.13 -46.99,-0.07 -27.66,0.16 -55.34,-0.04 -83.01,0.04 -15.65,-0.04 -31.3,0.07 -46.95,-0.06 -60.57001,-75.81 -121.25001,-151.54 -181.78001,-227.38 -0.24,75.79 -0.04,151.59 -0.1,227.39 -9.39,0.12 -18.78,0.03 -28.16,0.05 -1.35,0.01 -2.69,0.01 -4.02,0 -48.99,0.2 -97.99,-0.04 -147,0.01 -0.7,0 -2.11,-0.02 -2.81,-0.02 0.04,-182.06 -0.06,-364.12 0.05,-546.18 z"
     id="path10"
     style="fill:#000000;fill-opacity:1;stroke:none"
     inkscape:connector-curvature="0" />
  <path
     d="m 38.249991,689.14 c 9.92,-7.03 23.09,-9.3 34.74,-5.75 10.03,2.82 18.46,9.84 23.91,18.63 -7.01,3.98 -13.92,8.13 -20.99,12.01 -3.66,-5.1 -9.69,-8.76 -16.16,-7.79 -6.39,0.62 -11.99,5.48 -13.67,11.66 -3.19,9.47 4.86,20.58 14.86,20.55 6.07,0.56 11.66,-3.11 15.03,-7.93 6.94,4.13 13.97,8.09 20.97,12.12 -6.93,11.46 -19.24,19.23 -32.62,20.36 l -5.17,0 c -14.63,-1.05 -28.47,-10.27 -34.41,-23.78 -3.55,-7.23 -4.13,-15.5 -3.2,-23.39 1.68,-10.68 7.88,-20.47 16.71,-26.69 z"
     id="path12"
     style="fill:#000000;fill-opacity:1;stroke:none"
     inkscape:connector-curvature="0" />
  <path
     d="m 395.89999,682.075 c -10.38402,0.0745 -20.56875,4.72187 -27.675,12.25 -7.25,7.29 -11.185,17.515 -11.475,27.725 0.08,9.36 3.175,18.74 9.175,26 6.62,8.34 16.69,13.47 27.15,14.95 l 8.45,0 c 10.59,-1.42 20.795,-6.55 27.425,-15.05 6.88,-8.23 9.885,-19.3 8.725,-29.9 -1.62,-19.67 -19.83,-36.59 -39.7,-35.95 -0.69313,-0.0362 -1.38273,-0.03 -2.075,-0.025 z m 1.075,25.575 c 6.69637,-0.14594 13.34438,4.64813 14.75,11.4 2.81,9.53 -6.425,19.725 -16.175,18.075 -6.62,-0.8 -12.24,-6.465 -12.8,-13.125 -0.83,-6.55 3.46,-13.245 9.65,-15.425 1.485,-0.59438 3.02969,-0.89132 4.575,-0.925 z"
     id="path14"
     style="fill:#000000;fill-opacity:1;stroke:none"
     inkscape:connector-curvature="0" />
  <path
     d="m 484.82499,682.05 c -2.3961,0.0211 -4.795,0.2 -7.15,0.55 -10.26,1.83 -19.59,7.97 -25.6,16.45 -6.5,9.11 -8.93,21.02 -6.5,31.95 2.14,10.28 8.53,19.6 17.3,25.35 5.42,3.72 11.87,5.6 18.3,6.65 l 8.175,0 c 11.11,-1.46 21.75,-7.135 28.4,-16.275 7.25,-9.49 9.505,-22.225 6.925,-33.775 -2.53,-10.73 -9.655,-20.31 -19.275,-25.7 -6.2025,-3.7575 -13.38672,-5.26328 -20.575,-5.2 z m 0.425,25.575 c 7.56683,0.0426 14.87125,6.56125 14.6,14.375 0.9,9.23 -9.015,17.325 -17.875,14.825 -7.8,-1.5 -13.34,-10.325 -11.05,-17.975 1.33,-5.28 5.79,-9.625 11.1,-10.825 1.07125,-0.27375 2.14402,-0.4061 3.225,-0.4 z"
     id="path16"
     style="fill:#000000;fill-opacity:1;stroke:none"
     inkscape:connector-curvature="0" />
  <path
     d="m 1048.075,681.8 c -15.3414,-0.0711 -30.4537,9.29656 -36.725,23.425 -5.8,12.27 -4.85,27.47 2.5,38.9 6.6,10.72 18.38,17.535 30.8,18.875 l 7.2,0 c 9.36,-1.2 18.42,-5.225 25.1,-11.975 6.25,-6.42 10.37,-14.9 11.45,-23.8 1.22,-9.24 -1.16,-18.77 -6.05,-26.65 -6.46,-10.1 -17.52,-17.21 -29.5,-18.45 -1.5825,-0.21469 -3.188,-0.31764 -4.775,-0.325 z m -0.7,25.8 c 7.144,-0.2575 14.3481,5.05562 15.25,12.425 1.94,9.35 -7.165,18.635 -16.525,17.025 -7.17,-0.9 -13.16,-7.755 -12.65,-15.025 -0.18,-5.76 3.89,-11.07 9.05,-13.3 1.5638,-0.69375 3.2264,-1.06558 4.875,-1.125 z"
     id="path18"
     style="fill:#000000;fill-opacity:1;stroke:none"
     inkscape:connector-curvature="0" />
  <path
     d="m 161.59999,683.5 c -12.96,0.03 -25.93,0.045 -38.9,0.025 -7.97,25.98 -16.135,51.895 -24.274999,77.825 9.199999,-0.02 18.424999,0.005 27.624999,-0.025 1.2,-4.36 2.425,-8.695 3.725,-13.025 8.3,0.03 16.635,-0.28 24.925,0.1 1.69,4.19 2.415,8.69 3.925,12.95 9.12,-0.06 18.23,0.04 27.35,-0.05 -8.18,-25.92 -16.145,-51.9 -24.375,-77.8 z m -19.5,21.475 c 2.67,7.96 4.93,16.08 7.05,24.2 -4.63,0.02 -9.27,0.015 -13.9,-0.025 2.25,-8.07 4.55,-16.125 6.85,-24.175 z"
     id="path20"
     style="fill:#000000;fill-opacity:1;stroke:none"
     inkscape:connector-curvature="0" />
  <path
     d="m 193.82499,683.525 0,77.8 c 8.59,0.05 17.185,0.015 25.775,0.025 0.02,-7.58 -0.04,-15.17 0.05,-22.75 2.78,-0.06 5.57,-0.05 8.35,0 3.88,7.58 7.66,15.195 11.55,22.775 9.56,-0.06 19.115,0.005 28.675,-0.025 -4.83,-8.61 -10.185,-16.915 -15.025,-25.525 1.11,-1.16 2.54,-1.915 3.8,-2.875 7.29,-5.11 11.92,-14.025 11.3,-22.975 0.01,-13.95 -12.56,-25.91 -26.3,-26.3 -16.05,-0.35 -32.115,-0.03 -48.175,-0.15 z m 34.025,22.675 c 2.7475,-0.007 5.5,-0.02 8.25,0 3.59,-0.24 6.935,3.26 6.475,6.85 0.01,3.29 -3.075,6.31 -6.375,6.2 -5.53,0.05 -11.07,-0.015 -16.6,0.025 0,-4.35 -0.02,-8.7 0,-13.05 2.75,0 5.5025,-0.0175 8.25,-0.025 z"
     id="path22"
     style="fill:#000000;fill-opacity:1;stroke:none"
     inkscape:connector-curvature="0" />
  <path
     d="m 275.40999,706.21 c 0.15,-7.56 0.06,-15.13 0.05,-22.69 25.98,0.03 51.96,-0.01 77.94,0.02 0.02,7.55 0.03,15.11 -0.01,22.66 -8.19,0.03 -16.39,-0.05 -24.59,0.05 -0.01,18.36 0,36.73 -0.01,55.09 -9.66,-0.01 -19.31,0.02 -28.97,-0.01 0,-18.38 0,-36.75 0,-55.12 -8.14,0 -16.27,-0.01 -24.41,0 z"
     id="path24"
     style="fill:#000000;fill-opacity:1;stroke:none"
     inkscape:connector-curvature="0" />
  <path
     d="m 533.70999,683.55 c 8.6,-0.05 17.19,0.01 25.79,-0.04 8.84,10.69 17.25,21.73 26.13,32.38 0.2,-10.78 0.04,-21.56 0.09,-32.34 8.59,-0.05 17.18,0.02 25.77,-0.05 -0.05,25.95 -0.1,51.9 0.03,77.86 -8.58,-0.03 -17.16,-0.03 -25.74,0 -8.92,-10.66 -17.32,-21.74 -26.18,-32.44 -0.45,10.79 -0.15,21.61 -0.17,32.42 -8.58,0.01 -17.15,0 -25.72,0 -0.01,-25.93 -0.01,-51.86 0,-77.79 z"
     id="path26"
     style="fill:#000000;fill-opacity:1;stroke:none"
     inkscape:connector-curvature="0" />
  <path
     d="m 664.14999,683.51 c 8.64,0.08 17.29,-0.07 25.93,0.08 8.63,10.84 17.15,21.79 26.05,32.4 0.15,-10.82 0.02,-21.64 0.07,-32.47 8.53,0.03 17.05,-0.01 25.58,0.02 0,25.94 0,51.87 0,77.8 -8.58,-0.01 -17.15,0.03 -25.73,-0.02 -8.87,-10.74 -17.33,-21.82 -26.22,-32.54 -0.08,10.85 -0.04,21.71 -0.02,32.56 -8.55,0.01 -17.09,0 -25.64,0 -0.02,-25.94 0.03,-51.89 -0.02,-77.83 z"
     id="path28"
     style="fill:#000000;fill-opacity:1;stroke:none"
     inkscape:connector-curvature="0" />
  <path
     d="m 753.14999,683.5 c 22.66,0.1 45.32,-0.05 67.98,0.08 0.02,5.47 -0.05,10.94 0.04,16.42 -0.05,2.07 -0.22,4.15 -0.38,6.23 -14,-0.02 -28,-0.09 -42,0.04 -0.04,2.33 0.19,4.66 0.35,7 11.78,-0.05 23.56,-0.01 35.34,-0.03 -0.05,6.38 -0.02,12.76 -0.02,19.14 -11.88,0.03 -23.75,-0.06 -35.63,0.05 0.01,2.69 0.01,5.39 0.08,8.1 14.07,0.15 28.15,0.05 42.22,0.04 -0.01,3.14 0,6.28 0,9.43 0,3.77 -0.01,7.54 0,11.32 -22.65,0.06 -45.31,0 -67.96,0.02 0.01,-25.94 0.04,-51.89 -0.02,-77.84 z"
     id="path30"
     style="fill:#000000;fill-opacity:1;stroke:none"
     inkscape:connector-curvature="0" />
  <path
     d="m 829.76999,683.54 c 26.01,0.01 52.02,-0.07 78.03,0.04 -0.07,7.53 0.09,15.07 -0.1,22.61 -8.14,0 -16.28,-0.02 -24.42,0 -0.01,18.39 0,36.77 0,55.15 -9.66,0 -19.31,0 -28.96,0 -0.01,-18.39 0,-36.77 -0.01,-55.16 -8.18,-0.13 -16.38,0.31 -24.54,-0.24 -0.01,-7.47 -0.02,-14.94 0,-22.4 z"
     id="path32"
     style="fill:#000000;fill-opacity:1;stroke:none"
     inkscape:connector-curvature="0" />
  <path
     d="m 914.21999,683.57 c 8.72,-0.08 17.44,-0.05 26.16,-0.01 2.06,11.38 4.06,22.79 6.57,34.09 4.37,-10.43 8.59,-20.93 12.97,-31.35 4.34,10.42 8.36,21 13.05,31.28 2.32,-11.32 4.21,-22.73 6.57,-34.05 8.64,0.02 17.28,-0.05 25.92001,0.05 -4.96,25.92 -9.87001,51.84 -14.82001,77.75 -7.19,0 -14.38,0.05 -21.57,-0.02 -2.98,-7.03 -6.03,-14.02 -9.18,-20.97 -3.29,6.94 -6.1,14.09 -9.39,21.02 -7.07,-0.03 -14.15,-0.03 -21.21,0.01 -5.36,-25.87 -9.83,-51.91 -15.07,-77.8 z"
     id="path34"
     style="fill:#000000;fill-opacity:1;stroke:none"
     inkscape:connector-curvature="0" />
  <path
     d="m 1119.775,683.525 c -7.7425,0.009 -15.485,0.045 -23.225,0.025 -0.01,25.93 -0.02,51.845 0,77.775 8.66,0.02 17.315,0.035 25.975,0.025 -0.01,-7.65 -0.04,-15.31 0,-22.95 2.76,-0.02 5.545,-0.025 8.325,0.075 3.65,7.66 7.625,15.175 11.325,22.825 9.65,0.07 19.315,0.055 28.975,0.025 -5.1,-8.64 -10.445,-17.15 -15.325,-25.9 8.16,-4.2 13.895,-12.345 15.375,-21.375 0,-2.05 -0.015,-4.085 -0.025,-6.125 -1.01,-5.51 -3.095,-10.945 -6.975,-15.075 -5.29,-5.95 -13.24,-9.415 -21.2,-9.225 -7.74,-0.105 -15.4825,-0.10875 -23.225,-0.1 z m 2.725,22.65 c 5.55,0.04 11.09,-0.045 16.65,0.025 4.13,-0.16 7.72,4.98 5.8,8.75 -0.91,2.39 -3.25,4.27 -5.85,4.3 -5.53,0.09 -11.07,-0.025 -16.6,0.025 0,-4.37 0.01,-8.74 0,-13.1 z"
     id="path36"
     style="fill:#000000;fill-opacity:1;stroke:none"
     inkscape:connector-curvature="0" />
  <path
     d="m 1179.44,761.33 c -0.07,-25.93 -0.07,-51.85 0,-77.78 8.68,-0.01 17.37,-0.08 26.06,0.06 -0.01,8.37 -0.15,16.75 0.07,25.13 6.6,-8.31 12.78,-16.93 19.36,-25.25 11.04,0.12 22.08,-0.04 33.12,0.08 -10.12,12.28 -19.95,24.8 -30.1,37.06 9.57,13.88 20.2,27.05 30.12,40.69 -11.07,0.05 -22.13,0.01 -33.19,0.03 -6.44,-9.65 -12.9,-19.28 -19.29,-28.96 -0.3,9.64 -0.05,19.29 -0.12,28.94 -8.68,0.02 -17.36,0.02 -26.03,0 z"
     id="path38"
     style="fill:#000000;fill-opacity:1;stroke:none"
     inkscape:connector-curvature="0" />
</svg>
