<?xml version="1.0" encoding="UTF-8" standalone="yes"?>
<svg xmlns="http://www.w3.org/2000/svg" xmlns:xlink="http://www.w3.org/1999/xlink" width="501.3333333333333px" height="106.66666666666666px" viewBox="0 0 376 80" version="1.1">
  <g id="surface1">
    <path style=" stroke:none;fill-rule:nonzero;fill:rgb(100%,38.039216%,0%);fill-opacity:1;" d="M 131 53.746094 C 122.027344 53.691406 114.722656 47.785156 110.84375 40.660156 C 114.757812 33.601562 122.089844 27.859375 131 27.859375 C 140.074219 27.859375 147.332031 33.554688 151.15625 40.660156 C 147.335938 47.785156 140.136719 53.78125 131 53.746094 M 131 18.820312 C 118.929688 18.820312 109.136719 28.675781 109.136719 40.832031 C 109.136719 52.96875 118.929688 62.8125 131 62.8125 C 143.082031 62.8125 152.875 52.96875 152.875 40.832031 C 152.875 28.675781 143.085938 18.820312 131 18.820312 "/>
    <path style=" stroke:none;fill-rule:nonzero;fill:rgb(100%,38.039216%,0%);fill-opacity:1;" d="M 131 52.480469 C 137.402344 52.480469 142.597656 47.253906 142.597656 40.832031 C 142.597656 34.386719 137.402344 29.160156 131 29.160156 C 124.605469 29.160156 119.402344 34.386719 119.402344 40.832031 C 119.40625 47.25 124.605469 52.480469 131 52.480469 "/>
    <path style=" stroke:none;fill-rule:nonzero;fill:rgb(100%,38.039216%,0%);fill-opacity:1;" d="M 36.863281 18.914062 L 56.761719 18.914062 C 65.203125 18.914062 71.101562 24.117188 71.101562 29.445312 C 71.101562 33.4375 69.597656 37.199219 61.253906 39.023438 C 64.472656 39.460938 73.242188 41.820312 73.242188 50.207031 C 73.242188 58.613281 64.046875 62.691406 57.730469 62.691406 L 36.863281 62.691406 L 36.863281 62.261719 L 57.519531 62.261719 C 62.4375 62.261719 65.5625 60.222656 65.5625 50.855469 C 65.5625 41.496094 62.132812 39.355469 57.839844 39.242188 L 51.421875 39.242188 L 51.421875 38.808594 L 58.210938 38.808594 C 60.996094 38.808594 63.933594 38.382812 63.933594 29.339844 C 63.933594 20.308594 60.394531 19.34375 56.664062 19.34375 L 51.421875 19.34375 L 51.421875 62.261719 L 43.507812 62.261719 L 43.507812 19.34375 L 36.871094 19.34375 L 36.871094 18.914062 Z M 36.863281 18.914062 "/>
    <path style=" stroke:none;fill-rule:nonzero;fill:rgb(100%,38.039216%,0%);fill-opacity:1;" d="M 8.769531 41.085938 C 8.769531 24.515625 13.570312 18.589844 19.261719 18.589844 C 27.289062 18.589844 31.671875 30.535156 33.054688 35.164062 L 33.054688 19.125 C 31.671875 20.203125 31.035156 20.734375 29.519531 20.734375 C 28.023438 20.734375 25.777344 19.980469 24.714844 19.34375 C 23.644531 18.699219 21.507812 18.152344 19.367188 18.152344 C 12.316406 18.152344 0 27.511719 0 41.082031 C 0 57.113281 10.910156 63.992188 19.367188 63.992188 C 21.507812 63.992188 23.847656 63.132812 24.933594 62.484375 C 25.992188 61.84375 28.023438 60.980469 29.519531 60.980469 C 31.035156 60.980469 31.671875 61.527344 33.054688 62.597656 L 33.054688 46.460938 C 31.871094 52.703125 27.289062 63.570312 19.261719 63.570312 C 16.953125 63.570312 13.789062 62.488281 12.347656 60.988281 C 11.917969 60.515625 8.769531 58.277344 8.769531 41.085938 "/>
    <path style=" stroke:none;fill-rule:nonzero;fill:rgb(100%,38.039216%,0%);fill-opacity:1;" d="M 101.761719 54.085938 C 101.648438 57.628906 98.953125 62.375 93.410156 62.25 C 87.84375 62.140625 81.097656 57.957031 78.53125 46.660156 L 78.53125 61.9375 C 79.597656 60.953125 81.429688 59.246094 84.3125 60.523438 C 87.195312 61.816406 91.484375 62.675781 93.410156 62.675781 C 95.324219 62.675781 105.925781 60.636719 106.355469 48.371094 C 106.449219 42.234375 102.066406 39.121094 99.402344 38.148438 C 96.289062 36.96875 91.90625 35.582031 89.34375 34.699219 C 86.78125 33.863281 82.601562 31.164062 82.703125 26.199219 C 82.8125 21.265625 85.8125 18.578125 89.886719 18.578125 C 93.9375 18.578125 99.410156 21.785156 102.179688 33.199219 L 102.179688 18.03125 C 100.585938 19.4375 99.308594 20.074219 98.328125 20.074219 C 97.476562 20.074219 94.988281 19.09375 93.730469 18.710938 C 92.332031 18.289062 90.96875 18.109375 89.226562 18.140625 C 86.183594 18.183594 79.015625 21.910156 78.527344 31.910156 C 78.179688 39.238281 83.5625 42.027344 86.011719 42.882812 C 88.152344 43.640625 94.375 45.894531 96.195312 46.660156 C 98.007812 47.414062 101.96875 49.984375 101.761719 54.085938 "/>
    <path style=" stroke:none;fill-rule:nonzero;fill:rgb(100%,72.54902%,0%);fill-opacity:1;" d="M 196.925781 34.855469 L 213.074219 34.855469 C 211.546875 30.742188 209.335938 28.789062 205.3125 28.789062 C 200.957031 28.792969 198.523438 30.886719 196.925781 34.855469 M 205.457031 17.917969 C 217.722656 17.917969 226.382812 26.074219 226.382812 41.335938 C 226.382812 42.382812 226.453125 42.941406 226.382812 43.917969 L 196.441406 43.917969 C 197.550781 49.007812 201.574219 51.441406 206.421875 51.441406 C 210.644531 51.441406 213.421875 48.449219 215.632812 45.515625 C 215.632812 45.515625 223.328125 49.980469 225.6875 51.441406 C 221.945312 58.132812 214.742188 62.597656 205.800781 62.597656 C 192.695312 62.597656 183.6875 54.578125 183.6875 40.21875 C 183.6875 27.257812 192.90625 17.917969 205.457031 17.917969 "/>
    <path style=" stroke:none;fill-rule:nonzero;fill:rgb(100%,72.54902%,0%);fill-opacity:1;" d="M 240.527344 40.152344 C 240.527344 46.074219 244.269531 50.953125 250.230469 50.953125 C 255.984375 50.953125 260.757812 46.703125 260.757812 40.496094 C 260.757812 34.222656 256.328125 29.902344 250.636719 29.902344 C 244.480469 29.910156 240.527344 34.503906 240.527344 40.152344 M 248.078125 17.917969 C 253.273438 17.917969 256.535156 19.660156 260.34375 23.144531 L 260.34375 18.753906 L 273.105469 18.753906 L 273.105469 61.550781 L 260.148438 61.550781 L 260.148438 57.367188 C 260.148438 57.367188 255.5 62.597656 247.398438 62.597656 C 235.539062 62.597656 227.425781 54.089844 227.425781 40.363281 C 227.421875 28.441406 236.226562 17.917969 248.078125 17.917969 "/>
    <path style=" stroke:none;fill-rule:nonzero;fill:rgb(100%,72.54902%,0%);fill-opacity:1;" d="M 276.914062 8.160156 L 289.808594 8.160156 L 289.808594 61.558594 L 276.914062 61.558594 Z M 276.914062 8.160156 "/>
    <path style=" stroke:none;fill-rule:nonzero;fill:rgb(100%,72.54902%,0%);fill-opacity:1;" d="M 294.3125 18.757812 L 307.199219 18.757812 L 307.199219 61.558594 L 294.3125 61.558594 Z M 300.828125 0 C 305.125 0 308.664062 3.425781 308.664062 7.738281 C 308.664062 12.132812 305.125 15.683594 300.691406 15.683594 C 296.460938 15.683594 293.058594 12.273438 293.058594 7.878906 C 293.054688 3.558594 296.535156 0 300.828125 0 "/>
    <path style=" stroke:none;fill-rule:nonzero;fill:rgb(100%,72.54902%,0%);fill-opacity:1;" d="M 313.800781 61.554688 L 313.800781 30.535156 L 309.566406 30.535156 L 309.566406 18.753906 L 313.800781 18.753906 L 313.800781 8.160156 L 326.757812 8.160156 L 326.757812 18.753906 L 333.617188 18.753906 L 333.617188 30.605469 L 326.757812 30.605469 L 326.757812 61.554688 Z M 313.800781 61.554688 "/>
    <path style=" stroke:none;fill-rule:nonzero;fill:rgb(100%,72.54902%,0%);fill-opacity:1;" d="M 363.382812 18.613281 L 363.382812 43.5 C 363.382812 47.824219 360.820312 50.542969 356.179688 50.542969 C 351.816406 50.542969 348.898438 47.824219 348.898438 43.152344 L 348.898438 18.613281 L 336.003906 18.613281 L 336.003906 43.5 C 336.003906 55.34375 343.84375 62.457031 356.035156 62.457031 C 358.898438 62.457031 361.496094 62.085938 363.824219 61.386719 L 363.820312 61.800781 C 363.820312 66.472656 359.890625 68.5625 355.636719 68.5625 C 352.617188 68.5625 350.910156 68.003906 349.210938 65.078125 L 335.523438 65.078125 C 336.832031 74.691406 345.480469 80 355.371094 80 C 366.636719 80 375.996094 73.09375 375.996094 59.851562 L 375.996094 18.613281 Z M 363.382812 18.613281 "/>
    <path style=" stroke:none;fill-rule:nonzero;fill:rgb(100%,72.54902%,0%);fill-opacity:1;" d="M 171.164062 41.824219 L 171.164062 61.558594 L 158.074219 61.558594 L 158.074219 18.753906 L 170.675781 18.753906 L 170.675781 25.511719 C 171.722656 22.300781 175.691406 17.910156 180.84375 17.910156 L 183.765625 17.910156 L 183.765625 31.296875 C 183.765625 31.296875 182.164062 30.460938 179.242188 30.460938 C 174.226562 30.460938 171.164062 33.527344 171.164062 41.824219 "/>
  </g>
</svg>