<?xml version="1.0" encoding="utf-8"?>
<!-- Generator: Adobe Illustrator 18.0.0, SVG Export Plug-In . SVG Version: 6.00 Build 0)  -->
<!DOCTYPE svg PUBLIC "-//W3C//DTD SVG 1.1//EN" "http://www.w3.org/Graphics/SVG/1.1/DTD/svg11.dtd">
<svg version="1.1" id="Charlie" xmlns="http://www.w3.org/2000/svg" xmlns:xlink="http://www.w3.org/1999/xlink" x="0px" y="0px"
	 width="100.3px" height="24px" viewBox="0 0 100.3 24" enable-background="new 0 0 100.3 24" xml:space="preserve">
<g>
	<g>
		<path fill="#FD731E" d="M35.7,9.4c2.3,0,3.8,1.1,4.5,2.8l-1.8,1c-0.5,0.2-1,0-1.4-0.3c-0.4-0.4-1-0.7-1.7-0.7
			c-1.8,0-3.3,1.7-3.3,3.6c0,1.4,0.9,2.3,2.2,2.3c0.6,0,1.2-0.2,1.7-0.5c0.4-0.3,1-0.3,1.4,0l1.4,1.2c-1.1,1.2-2.5,2.1-4.6,2.1
			c-3.1,0-5.2-1.9-5.2-4.8C28.8,12.8,31.4,9.4,35.7,9.4z"/>
		<path fill="#FD731E" d="M44.8,9.6c0.2,0,0.4,0.2,0.3,0.4l-1,3.7h3.9l1.1-4.1h2.6c0.2,0,0.4,0.2,0.3,0.4l-2.9,10.6h-2.6
			c-0.2,0-0.4-0.2-0.3-0.4l1-3.8h-3.9l-1.1,4.2h-2.6c-0.2,0-0.4-0.2-0.3-0.4l2.9-10.6H44.8z"/>
		<path fill="#FD731E" d="M80.3,10L78.2,18h5.3l-0.6,2.3c-0.1,0.2-0.3,0.4-0.6,0.4h-7.5c-0.2,0-0.4-0.2-0.3-0.4l2.9-10.6H80
			C80.2,9.6,80.4,9.8,80.3,10z"/>
		<path fill="#FD731E" d="M89.2,9.6c0.2,0,0.4,0.2,0.3,0.4l-2.9,10.6H84c-0.2,0-0.4-0.2-0.3-0.4l2.9-10.6H89.2z"/>
		<path fill="#FD731E" d="M100.3,9.6l-0.6,2.2c-0.1,0.2-0.3,0.4-0.6,0.4h-5.4l-0.5,1.7h5.3l-0.5,2c-0.1,0.2-0.3,0.4-0.6,0.4h-4.8
			L92.2,18h5.9l-0.6,2.2c-0.1,0.2-0.3,0.4-0.6,0.4h-8c-0.2,0-0.4-0.2-0.3-0.4l2.9-10.6H100.3z"/>
		<path fill="#FD731E" d="M63.2,20.2L66,9.6h4.2c1.8,0,3.1,0.4,3.8,1.2c0.6,0.6,0.9,1.4,0.9,2.3c0,1.8-1.1,3.3-3.3,3.9
			c0,0,0.4,1.1,0.9,1.4c0.5,0.4,1,0.5,1.3,0.5l-0.5,1.8c0,0-0.6,0.2-1.5,0.2c-0.9,0-2.1-0.6-2.6-1.7c-0.2-0.5-0.8-1.7-0.8-1.7H67
			l-0.9,3.3h-2.6C63.3,20.6,63.1,20.4,63.2,20.2z M69.4,14.9c1.4,0,2.3-0.6,2.3-1.5c0-0.3-0.1-0.5-0.3-0.7c-0.3-0.3-0.7-0.4-1.4-0.4
			h-1.7l-0.7,2.6H69.4z"/>
		<path fill="#FD731E" d="M57.7,9.6l-7.6,11h2.9c0.2,0,0.5-0.2,0.7-0.4l1.1-1.6h4.3l0.2,1.5c0,0.2,0.3,0.4,0.5,0.4h2.8l-1.6-10.1
			c-0.1-0.5-0.6-0.9-1.1-0.9H57.7z M56.2,16.3l2.1-3.2l0.4,3.2H56.2z"/>
	</g>
	<g>
		<path fill="#FD731E" d="M18.8,4.8h-6.3c-0.2,0-0.4,0.1-0.5,0.3l-1.3,2h7.6c0.3,0,0.6,0.2,0.6,0.5c0,0.4-0.4,0.9-0.9,0.9h-3.4
			c-0.2,0-0.4,0.1-0.5,0.3l-1.3,2h4.9c1.9,0,3.9-1.7,3.8-3.5C21.4,5.8,20.1,4.8,18.8,4.8z"/>
		<path fill="#FD731E" d="M8.6,7.1H0l1.3-2c0.1-0.2,0.3-0.3,0.5-0.3h8.6l-1.3,2C9,7,8.8,7.1,8.6,7.1z"/>
		<path fill="#FD731E" d="M3.6,13.7l0.5-5.2h2.5l-0.6,5.3l3.4-5C9.6,8.6,9.8,8.5,10,8.5h2.5l-3.8,5.7c-0.1,0.2-0.4,0.3-0.5,0.3H4.3
			C3.9,14.4,3.6,14.1,3.6,13.7z"/>
		<path fill="#FD731E" d="M18.3,14.4h-8l1.3-2c0.1-0.2,0.4-0.3,0.5-0.3h8l-1.3,2C18.7,14.3,18.5,14.4,18.3,14.4z"/>
	</g>
	<polygon fill="#AFB0B0" points="16.2,24 18.1,24 34.3,0 32.4,0 	"/>
</g>
</svg>
