<?xml version="1.0" encoding="UTF-8" standalone="yes"?>
<svg xmlns="http://www.w3.org/2000/svg" xmlns:xlink="http://www.w3.org/1999/xlink" width="444px" height="106.66666666666666px" viewBox="0 0 333 80" version="1.1">
  <g id="surface1">
    <path style=" stroke:none;fill-rule:nonzero;fill:rgb(99.215686%,45.098039%,11.764706%);fill-opacity:1;" d="M 118.882812 31.332031 C 126.539062 31.332031 131.535156 35 133.867188 40.667969 L 127.871094 44 C 126.207031 44.667969 124.542969 44 123.210938 43 C 121.878906 41.667969 119.878906 40.667969 117.550781 40.667969 C 111.554688 40.667969 106.558594 46.332031 106.558594 52.667969 C 106.558594 57.332031 109.558594 60.332031 113.886719 60.332031 C 115.882812 60.332031 117.882812 59.667969 119.546875 58.667969 C 120.878906 57.667969 122.878906 57.667969 124.210938 58.667969 L 128.871094 62.667969 C 125.207031 66.667969 120.546875 69.667969 113.554688 69.667969 C 103.230469 69.667969 96.238281 63.332031 96.238281 53.667969 C 95.902344 42.667969 104.5625 31.332031 118.882812 31.332031 Z M 118.882812 31.332031 "/>
    <path style=" stroke:none;fill-rule:nonzero;fill:rgb(99.215686%,45.098039%,11.764706%);fill-opacity:1;" d="M 149.183594 32 C 149.851562 32 150.515625 32.667969 150.183594 33.332031 L 146.851562 45.667969 L 159.839844 45.667969 L 163.503906 32 L 172.160156 32 C 172.828125 32 173.492188 32.667969 173.160156 33.332031 L 163.503906 68.667969 L 154.84375 68.667969 C 154.179688 68.667969 153.511719 68 153.847656 67.332031 L 157.175781 54.667969 L 144.1875 54.667969 L 140.527344 68.667969 L 131.867188 68.667969 C 131.203125 68.667969 130.535156 68 130.867188 67.332031 L 140.527344 32 Z M 149.183594 32 "/>
    <path style=" stroke:none;fill-rule:nonzero;fill:rgb(99.215686%,45.098039%,11.764706%);fill-opacity:1;" d="M 267.398438 33.332031 L 260.40625 60 L 278.054688 60 L 276.058594 67.667969 C 275.722656 68.332031 275.058594 69 274.058594 69 L 249.085938 69 C 248.417969 69 247.753906 68.332031 248.085938 67.667969 L 257.742188 32.332031 L 266.398438 32.332031 C 267.066406 32 267.730469 32.667969 267.398438 33.332031 Z M 267.398438 33.332031 "/>
    <path style=" stroke:none;fill-rule:nonzero;fill:rgb(99.215686%,45.098039%,11.764706%);fill-opacity:1;" d="M 297.035156 32 C 297.703125 32 298.367188 32.667969 298.035156 33.332031 L 288.378906 68.667969 L 279.71875 68.667969 C 279.054688 68.667969 278.386719 68 278.722656 67.332031 L 288.378906 32 Z M 297.035156 32 "/>
    <path style=" stroke:none;fill-rule:nonzero;fill:rgb(99.215686%,45.098039%,11.764706%);fill-opacity:1;" d="M 334 32 L 332 39.332031 C 331.667969 40 331.003906 40.667969 330.003906 40.667969 L 312.019531 40.667969 L 310.355469 46.332031 L 328.003906 46.332031 L 326.339844 53 C 326.007812 53.667969 325.339844 54.332031 324.34375 54.332031 L 308.359375 54.332031 L 307.027344 60 L 326.671875 60 L 324.675781 67.332031 C 324.34375 68 323.675781 68.667969 322.675781 68.667969 L 296.035156 68.667969 C 295.371094 68.667969 294.703125 68 295.039062 67.332031 L 304.695312 32 Z M 334 32 "/>
    <path style=" stroke:none;fill-rule:nonzero;fill:rgb(99.215686%,45.098039%,11.764706%);fill-opacity:1;" d="M 210.457031 67.332031 L 219.78125 32 L 233.765625 32 C 239.761719 32 244.089844 33.332031 246.421875 36 C 248.417969 38 249.417969 40.667969 249.417969 43.667969 C 249.417969 49.667969 245.753906 54.667969 238.429688 56.667969 C 238.429688 56.667969 239.761719 60.332031 241.425781 61.332031 C 243.089844 62.667969 244.753906 63 245.753906 63 L 244.089844 69 C 244.089844 69 242.089844 69.667969 239.09375 69.667969 C 236.097656 69.667969 232.101562 67.667969 230.4375 64 C 229.769531 62.332031 227.773438 58.332031 227.773438 58.332031 L 223.109375 58.332031 L 220.113281 69.332031 L 211.453125 69.332031 C 210.789062 68.667969 210.121094 68 210.457031 67.332031 Z M 231.101562 49.667969 C 235.765625 49.667969 238.761719 47.667969 238.761719 44.667969 C 238.761719 43.667969 238.429688 43 237.761719 42.332031 C 236.761719 41.332031 235.429688 41 233.101562 41 L 227.4375 41 L 225.109375 49.667969 Z M 231.101562 49.667969 "/>
    <path style=" stroke:none;fill-rule:nonzero;fill:rgb(99.215686%,45.098039%,11.764706%);fill-opacity:1;" d="M 192.140625 32 L 166.832031 68.667969 L 176.488281 68.667969 C 177.15625 68.667969 178.15625 68 178.820312 67.332031 L 182.484375 62 L 196.804688 62 L 197.46875 67 C 197.46875 67.667969 198.46875 68.332031 199.132812 68.332031 L 208.457031 68.332031 L 203.128906 34.667969 C 202.796875 33 201.132812 31.667969 199.46875 31.667969 L 192.140625 31.667969 Z M 187.144531 54.332031 L 194.140625 43.667969 L 195.472656 54.332031 Z M 187.144531 54.332031 "/>
    <path style=" stroke:none;fill-rule:nonzero;fill:rgb(99.215686%,45.098039%,11.764706%);fill-opacity:1;" d="M 62.605469 16 L 41.625 16 C 40.960938 16 40.292969 16.332031 39.960938 17 L 35.632812 23.667969 L 60.9375 23.667969 C 61.9375 23.667969 62.9375 24.332031 62.9375 25.332031 C 62.9375 26.667969 61.605469 28.332031 59.941406 28.332031 L 48.617188 28.332031 C 47.953125 28.332031 47.285156 28.667969 46.953125 29.332031 L 42.625 36 L 58.941406 36 C 65.269531 36 71.929688 30.332031 71.59375 24.332031 C 71.261719 19.332031 66.933594 16 62.605469 16 Z M 62.605469 16 "/>
    <path style=" stroke:none;fill-rule:nonzero;fill:rgb(99.215686%,45.098039%,11.764706%);fill-opacity:1;" d="M 28.636719 23.667969 L 0 23.667969 L 4.328125 17 C 4.660156 16.332031 5.328125 16 5.992188 16 L 34.632812 16 L 30.304688 22.667969 C 29.96875 23.332031 29.304688 23.667969 28.636719 23.667969 Z M 28.636719 23.667969 "/>
    <path style=" stroke:none;fill-rule:nonzero;fill:rgb(99.215686%,45.098039%,11.764706%);fill-opacity:1;" d="M 11.988281 45.667969 L 13.652344 28.332031 L 21.976562 28.332031 L 19.980469 46 L 31.300781 29.332031 C 31.96875 28.667969 32.632812 28.332031 33.300781 28.332031 L 41.625 28.332031 L 28.972656 47.332031 C 28.636719 48 27.640625 48.332031 27.304688 48.332031 L 14.320312 48.332031 C 12.988281 48 11.988281 47 11.988281 45.667969 Z M 11.988281 45.667969 "/>
    <path style=" stroke:none;fill-rule:nonzero;fill:rgb(99.215686%,45.098039%,11.764706%);fill-opacity:1;" d="M 60.9375 48 L 34.300781 48 L 38.628906 41.332031 C 38.960938 40.667969 39.960938 40.332031 40.292969 40.332031 L 66.933594 40.332031 L 62.605469 47 C 62.269531 47.667969 61.605469 48 60.9375 48 Z M 60.9375 48 "/>
    <path style=" stroke:none;fill-rule:nonzero;fill:rgb(68.627451%,69.019608%,69.019608%);fill-opacity:1;" d="M 53.945312 80 L 60.273438 80 L 114.21875 0 L 107.890625 0 Z M 53.945312 80 "/>
  </g>
</svg>