<?xml version="1.0" encoding="UTF-8" standalone="yes"?>
<svg xmlns="http://www.w3.org/2000/svg" xmlns:xlink="http://www.w3.org/1999/xlink" width="577.3333333333333px" height="106.66666666666666px" viewBox="0 0 433 80" version="1.1">
  <g id="surface1">
    <path style=" stroke:none;fill-rule:nonzero;fill:rgb(1.176471%,1.176471%,1.176471%);fill-opacity:1;" d="M 17.945312 10.058594 C 20.011719 9.558594 22.175781 9.660156 24.273438 9.835938 L 24.210938 9.847656 C 22.132812 10.089844 20.035156 9.921875 17.945312 10.058594 Z M 17.945312 10.058594 "/>
    <path style=" stroke:none;fill-rule:nonzero;fill:rgb(1.176471%,1.176471%,1.176471%);fill-opacity:1;" d="M 339.992188 12.191406 C 365.882812 12.222656 391.769531 12.207031 417.660156 12.261719 C 420.078125 12.140625 422.339844 13.371094 423.984375 15.078125 C 424.394531 15.585938 424.738281 16.148438 425.066406 16.722656 C 423.746094 15.8125 422.664062 14.371094 420.984375 14.144531 C 418.519531 13.898438 416.097656 14.589844 413.652344 14.796875 C 405.578125 15.527344 397.457031 15.425781 389.359375 15.523438 C 373.019531 15.71875 356.679688 15.539062 340.339844 15.601562 C 340.296875 14.460938 340.203125 13.316406 339.992188 12.191406 Z M 339.992188 12.191406 "/>
    <path style=" stroke:none;fill-rule:nonzero;fill:rgb(1.176471%,1.176471%,1.176471%);fill-opacity:1;" d="M 340.363281 30.886719 C 344.648438 31.304688 348.9375 31.613281 353.230469 31.902344 C 353.246094 39.394531 353.226562 46.882812 353.242188 54.375 C 354.992188 54.375 356.746094 54.375 358.5 54.375 C 358.5 50.441406 358.519531 46.511719 358.488281 42.578125 C 364.375 42.523438 370.265625 42.570312 376.152344 42.558594 C 376.152344 46.488281 376.152344 50.421875 376.152344 54.351562 C 377.90625 54.382812 379.664062 54.390625 381.421875 54.347656 C 381.417969 47.757812 381.417969 41.171875 381.421875 34.578125 C 383.363281 34.855469 385.308594 35.171875 387.273438 35.304688 C 387.289062 41.660156 387.269531 48.015625 387.28125 54.375 C 393.535156 54.375 399.785156 54.375 406.039062 54.375 C 409.386719 54.414062 412.734375 52.691406 414.503906 49.824219 C 415.945312 47.765625 416.179688 45.171875 416.089844 42.738281 C 417.84375 43.886719 419.398438 45.371094 420.582031 47.109375 C 422.257812 49.507812 423.222656 52.292969 424.320312 54.980469 C 424.921875 56.359375 424.984375 57.929688 425.765625 59.238281 C 425.777344 60.476562 425.800781 61.757812 425.367188 62.941406 C 424.863281 63.800781 424.222656 64.566406 423.679688 65.398438 C 423.53125 65.472656 423.222656 65.613281 423.074219 65.6875 C 421.617188 66.558594 420.089844 67.515625 418.328125 67.507812 C 414 67.558594 409.675781 67.542969 405.347656 67.558594 C 401.179688 67.46875 397.003906 67.394531 392.835938 67.539062 C 375.234375 67.441406 357.632812 67.527344 340.03125 67.53125 C 340.191406 66.375 340.3125 65.21875 340.316406 64.058594 C 340.351562 53 340.289062 41.941406 340.363281 30.886719 Z M 340.363281 30.886719 "/>
    <path style=" stroke:none;fill-rule:nonzero;fill:rgb(1.176471%,1.176471%,1.176471%);fill-opacity:1;" d="M 358.617188 32.398438 C 364.46875 32.832031 370.296875 33.503906 376.148438 34.003906 C 376.152344 35.09375 376.152344 36.179688 376.152344 37.269531 C 370.3125 37.261719 364.472656 37.269531 358.636719 37.265625 C 358.574219 35.648438 358.5625 34.023438 358.617188 32.398438 Z M 358.617188 32.398438 "/>
    <path style=" stroke:none;fill-rule:nonzero;fill:rgb(1.176471%,1.176471%,1.176471%);fill-opacity:1;" d="M 392.570312 36.101562 C 398.769531 36.761719 404.847656 38.230469 410.796875 40.058594 C 410.675781 42.164062 411.179688 44.386719 410.398438 46.398438 C 409.722656 47.964844 408.097656 49.101562 406.371094 49.058594 C 401.769531 49.078125 397.171875 49.058594 392.570312 49.066406 C 392.566406 44.742188 392.566406 40.421875 392.570312 36.101562 Z M 392.570312 36.101562 "/>
    <path style=" stroke:none;fill-rule:nonzero;fill:rgb(41.568627%,41.568627%,41.568627%);fill-opacity:1;" d="M 24.273438 9.835938 C 46.164062 9.730469 68.0625 9.816406 89.957031 9.785156 C 192.761719 9.789062 295.5625 9.78125 398.371094 9.792969 C 405.140625 9.816406 411.921875 9.695312 418.679688 10.222656 C 417.941406 10.3125 417.214844 10.46875 416.496094 10.601562 C 408.683594 10.160156 400.855469 10.398438 393.039062 10.328125 C 333.082031 10.285156 273.125 10.320312 213.164062 10.308594 C 166.433594 10.328125 119.703125 10.277344 72.96875 10.34375 C 59.125 10.296875 45.277344 10.378906 31.4375 10.308594 C 29.0625 9.761719 26.609375 10.214844 24.210938 9.847656 Z M 24.273438 9.835938 "/>
    <path style=" stroke:none;fill-rule:nonzero;fill:rgb(41.568627%,41.568627%,41.568627%);fill-opacity:1;" d="M 336.527344 63.558594 C 337.789062 63.703125 339.066406 63.804688 340.316406 64.058594 C 340.3125 65.21875 340.191406 66.375 340.03125 67.53125 C 338.636719 67.605469 337.238281 67.660156 335.839844 67.636719 C 335.941406 66.785156 336.054688 65.933594 336.132812 65.078125 C 336.136719 64.820312 336.15625 64.304688 336.160156 64.042969 C 336.253906 63.921875 336.433594 63.675781 336.527344 63.558594 Z M 336.527344 63.558594 "/>
    <path style=" stroke:none;fill-rule:nonzero;fill:rgb(36.470588%,35.294118%,36.078431%);fill-opacity:1;" d="M 13 10.425781 C 14.632812 10.148438 16.289062 10.058594 17.945312 10.058594 C 20.035156 9.921875 22.132812 10.089844 24.210938 9.847656 C 26.609375 10.214844 29.0625 9.761719 31.4375 10.308594 C 25.3125 10.476562 19.144531 10.085938 13.0625 10.976562 C 12.105469 11.101562 11.144531 11.199219 10.191406 11.351562 C 10.96875 10.683594 12.03125 10.597656 13 10.425781 Z M 13 10.425781 "/>
    <path style=" stroke:none;fill-rule:nonzero;fill:rgb(36.470588%,35.294118%,36.078431%);fill-opacity:1;" d="M 416.496094 10.601562 C 417.214844 10.46875 417.941406 10.3125 418.679688 10.222656 C 420.839844 10.429688 423.140625 10.886719 424.714844 12.507812 C 424.046875 12.332031 423.351562 12.191406 422.671875 12.398438 C 421.699219 11.84375 420.777344 11.136719 419.660156 10.917969 C 418.613281 10.710938 417.546875 10.679688 416.496094 10.601562 Z M 416.496094 10.601562 "/>
    <path style=" stroke:none;fill-rule:nonzero;fill:rgb(36.470588%,35.294118%,36.078431%);fill-opacity:1;" d="M 427.867188 60.269531 C 427.929688 60.742188 427.996094 61.214844 428.058594 61.695312 C 427.605469 63.667969 426.671875 65.722656 425 66.933594 C 423.878906 67.382812 422.828125 68.011719 421.640625 68.25 C 421.722656 68.101562 421.886719 67.808594 421.972656 67.660156 C 420.847656 67.960938 419.71875 68.238281 418.597656 68.527344 C 418.964844 68.601562 419.339844 68.671875 419.722656 68.742188 C 418.929688 68.957031 418.109375 69.011719 417.296875 68.984375 C 416.167969 68.414062 414.890625 68.605469 413.679688 68.601562 C 410.730469 68.636719 407.78125 68.574219 404.832031 68.671875 C 397.128906 68.519531 389.417969 68.648438 381.710938 68.601562 C 367.605469 68.605469 353.496094 68.601562 339.390625 68.605469 C 252.347656 68.5625 165.304688 68.597656 78.265625 68.597656 C 74.597656 68.535156 70.933594 68.808594 67.269531 68.609375 C 64.609375 68.796875 61.957031 68.554688 59.296875 68.703125 C 55.964844 68.765625 52.625 68.785156 49.292969 68.625 C 40.1875 68.574219 31.078125 68.605469 21.972656 68.582031 C 20.820312 68.609375 19.613281 68.425781 18.523438 68.898438 C 19.132812 69.039062 19.746094 69.175781 20.367188 69.253906 C 17.222656 69.375 14.089844 68.929688 11.027344 68.230469 C 10.769531 68.128906 10.523438 68 10.300781 67.832031 C 9.269531 66.691406 7.527344 65.894531 7.449219 64.164062 C 7.890625 64.503906 8.328125 64.851562 8.761719 65.203125 C 9.917969 66.140625 11.15625 67.054688 12.625 67.421875 C 14.941406 67.859375 17.3125 67.726562 19.65625 67.757812 C 28.65625 67.699219 37.660156 67.847656 46.652344 67.589844 C 56.421875 67.445312 66.195312 67.441406 75.964844 67.390625 C 83.167969 67.21875 90.378906 67.308594 97.585938 67.261719 C 101.683594 67.171875 105.78125 67.699219 109.878906 67.433594 C 109.570312 67.601562 109.257812 67.753906 108.941406 67.914062 C 111.707031 68.113281 114.480469 68.042969 117.246094 67.988281 C 135.789062 68.039062 154.335938 67.898438 172.875 67.988281 C 228.5 67.988281 284.125 67.96875 339.75 67.988281 C 355.070312 67.875 370.390625 68.003906 385.714844 67.902344 C 388.089844 67.839844 390.480469 67.914062 392.835938 67.539062 C 397.003906 67.394531 401.179688 67.46875 405.347656 67.558594 C 409.675781 67.542969 414 67.558594 418.328125 67.507812 C 420.089844 67.515625 421.617188 66.558594 423.074219 65.6875 C 423.1875 65.714844 423.398438 66.425781 423.648438 66.09375 C 425.308594 64.808594 426.089844 62.765625 426.476562 60.761719 C 426.636719 60.914062 426.949219 61.214844 427.109375 61.367188 C 426.90625 62.519531 426.433594 63.59375 426.078125 64.699219 C 427.113281 63.4375 427.476562 61.816406 427.867188 60.269531 Z M 427.867188 60.269531 "/>
    <path style=" stroke:none;fill-rule:nonzero;fill:rgb(36.470588%,35.294118%,36.078431%);fill-opacity:1;" d="M 416.882812 69.621094 C 417.808594 69.398438 418.761719 69.324219 419.71875 69.328125 C 418.792969 69.582031 417.828125 69.589844 416.882812 69.621094 Z M 416.882812 69.621094 "/>
    <path style=" stroke:none;fill-rule:nonzero;fill:rgb(88.235294%,89.019608%,91.764706%);fill-opacity:1;" d="M 13.0625 10.976562 C 19.144531 10.085938 25.3125 10.476562 31.4375 10.308594 C 45.277344 10.378906 59.125 10.296875 72.96875 10.34375 C 119.703125 10.277344 166.433594 10.328125 213.164062 10.308594 C 273.125 10.320312 333.082031 10.285156 393.039062 10.328125 C 400.855469 10.398438 408.683594 10.160156 416.496094 10.601562 C 417.546875 10.679688 418.613281 10.710938 419.660156 10.917969 C 420.777344 11.136719 421.699219 11.84375 422.671875 12.398438 C 422.835938 12.570312 423.160156 12.921875 423.324219 13.101562 C 421.097656 11.601562 418.269531 11.71875 415.703125 11.523438 C 396.160156 11.347656 376.621094 11.492188 357.078125 11.445312 C 287.796875 11.445312 218.519531 11.445312 149.238281 11.445312 C 126.433594 11.464844 103.625 11.40625 80.816406 11.476562 C 72.976562 11.390625 65.136719 11.464844 57.300781 11.441406 C 43.96875 11.476562 30.636719 11.363281 17.308594 11.535156 C 14.773438 11.75 11.96875 11.625 9.8125 13.191406 C 9.6875 13.210938 9.449219 13.238281 9.324219 13.25 C 10.527344 12.421875 11.789062 11.679688 13.0625 10.976562 Z M 13.0625 10.976562 "/>
    <path style=" stroke:none;fill-rule:nonzero;fill:rgb(57.254902%,58.039216%,61.176471%);fill-opacity:1;" d="M 10.191406 11.351562 C 11.144531 11.199219 12.105469 11.101562 13.0625 10.976562 C 11.789062 11.679688 10.527344 12.421875 9.324219 13.25 C 8.871094 13.523438 8.421875 13.816406 7.976562 14.109375 C 7.890625 13.875 7.71875 13.410156 7.628906 13.175781 C 8.441406 12.515625 9.152344 11.640625 10.191406 11.351562 Z M 10.191406 11.351562 "/>
    <path style=" stroke:none;fill-rule:nonzero;fill:rgb(27.45098%,25.882353%,23.921569%);fill-opacity:1;" d="M 17.308594 11.535156 C 30.636719 11.363281 43.96875 11.476562 57.300781 11.441406 C 65.136719 11.464844 72.976562 11.390625 80.816406 11.476562 C 81.511719 11.613281 82.210938 11.753906 82.925781 11.75 C 93.035156 11.699219 103.144531 11.78125 113.253906 11.726562 C 113.777344 11.730469 114.269531 11.941406 114.765625 12.09375 C 113.191406 12.125 111.613281 12.117188 110.039062 12.148438 C 79.132812 12.199219 48.230469 12.140625 17.324219 12.160156 C 15.046875 12.171875 12.546875 11.90625 10.566406 13.277344 C 9.699219 13.832031 8.875 14.453125 8.105469 15.140625 C 8.15625 15.042969 8.253906 14.851562 8.300781 14.761719 C 8.765625 14.203125 9.300781 13.707031 9.8125 13.191406 C 11.96875 11.625 14.773438 11.75 17.308594 11.535156 Z M 17.308594 11.535156 "/>
    <path style=" stroke:none;fill-rule:nonzero;fill:rgb(27.45098%,25.882353%,23.921569%);fill-opacity:1;" d="M 6.824219 65.613281 C 6.910156 65.507812 7.082031 65.292969 7.167969 65.191406 C 8.054688 66.242188 9.113281 67.136719 10.300781 67.832031 C 10.523438 68 10.769531 68.128906 11.027344 68.230469 C 14.089844 68.929688 17.222656 69.375 20.367188 69.253906 C 40.558594 69.625 60.75 69.035156 80.941406 69.398438 C 167.089844 69.382812 253.246094 69.414062 339.398438 69.382812 C 358.832031 69.402344 378.265625 69.394531 397.695312 69.386719 C 401.949219 69.339844 406.203125 69.417969 410.453125 69.246094 C 412.738281 69.261719 415.015625 69.125 417.296875 68.984375 C 418.109375 69.011719 418.929688 68.957031 419.722656 68.742188 C 420.359375 68.585938 420.996094 68.402344 421.640625 68.25 C 422.828125 68.011719 423.878906 67.382812 425 66.933594 C 423.71875 68.46875 421.675781 69.234375 419.71875 69.328125 C 418.761719 69.324219 417.808594 69.398438 416.882812 69.621094 L 416.636719 69.664062 C 399.324219 69.785156 382.007812 69.726562 364.691406 69.742188 C 301.75 69.761719 238.808594 69.75 175.867188 69.757812 C 122.707031 69.738281 69.542969 69.785156 16.382812 69.710938 L 16.101562 69.699219 C 15.453125 69.117188 14.5625 69.261719 13.777344 69.351562 C 11.792969 69.335938 9.765625 68.625 8.34375 67.214844 C 8.070312 66.894531 7.765625 66.601562 7.429688 66.347656 C 7.28125 66.164062 6.976562 65.796875 6.824219 65.613281 Z M 6.824219 65.613281 "/>
    <path style=" stroke:none;fill-rule:nonzero;fill:rgb(27.843137%,26.666667%,26.666667%);fill-opacity:1;" d="M 80.816406 11.476562 C 103.625 11.40625 126.433594 11.464844 149.238281 11.445312 C 218.519531 11.445312 287.796875 11.445312 357.078125 11.445312 C 376.621094 11.492188 396.160156 11.347656 415.703125 11.523438 C 418.269531 11.71875 421.097656 11.601562 423.324219 13.101562 C 423.71875 13.496094 424.125 13.878906 424.539062 14.261719 C 424.402344 14.464844 424.125 14.875 423.984375 15.078125 C 422.339844 13.371094 420.078125 12.140625 417.660156 12.261719 C 391.769531 12.207031 365.882812 12.222656 339.992188 12.191406 C 338.601562 12.167969 337.21875 12.144531 335.832031 12.164062 C 282.0625 12.175781 228.289062 12.15625 174.523438 12.15625 C 154.621094 12.117188 134.71875 12.230469 114.816406 12.097656 L 114.765625 12.09375 C 114.269531 11.941406 113.777344 11.730469 113.253906 11.726562 C 103.144531 11.78125 93.035156 11.699219 82.925781 11.75 C 82.210938 11.753906 81.511719 11.613281 80.816406 11.476562 Z M 80.816406 11.476562 "/>
    <path style=" stroke:none;fill-rule:nonzero;fill:rgb(77.647059%,77.647059%,78.039216%);fill-opacity:1;" d="M 110.039062 12.148438 C 111.613281 12.117188 113.191406 12.125 114.765625 12.09375 L 114.816406 12.097656 C 114.503906 13.28125 114.492188 14.507812 114.488281 15.722656 L 114.34375 15.625 C 114.289062 15.148438 114.25 14.671875 114.210938 14.191406 C 112.730469 14.382812 111.234375 14.398438 109.753906 14.578125 C 109.816406 13.765625 109.929688 12.957031 110.039062 12.148438 Z M 110.039062 12.148438 "/>
    <path style=" stroke:none;fill-rule:nonzero;fill:rgb(77.647059%,77.647059%,78.039216%);fill-opacity:1;" d="M 6.410156 55.003906 C 6.496094 43.53125 6.296875 32.054688 6.511719 20.582031 C 6.632812 23.058594 6.582031 25.535156 6.589844 28.011719 C 6.53125 38.359375 6.679688 48.710938 6.519531 59.058594 C 6.433594 57.707031 6.386719 56.351562 6.410156 55.003906 Z M 6.410156 55.003906 "/>
    <path style=" stroke:none;fill-rule:nonzero;fill:rgb(99.607843%,99.607843%,99.607843%);fill-opacity:1;" d="M 114.816406 12.097656 C 134.71875 12.230469 154.621094 12.117188 174.523438 12.15625 C 228.289062 12.15625 282.0625 12.175781 335.832031 12.164062 L 335.910156 12.523438 C 335.304688 12.632812 334.699219 12.738281 334.089844 12.746094 C 319.101562 12.738281 304.109375 12.796875 289.117188 12.773438 C 286.332031 12.890625 283.5625 13.242188 280.78125 13.390625 C 277.664062 13.265625 274.550781 13.558594 271.441406 13.714844 C 267.117188 13.738281 262.785156 13.601562 258.472656 13.988281 C 251.585938 14.113281 244.699219 13.988281 237.8125 14.078125 C 235.46875 14.382812 233.113281 14.324219 230.761719 14.171875 C 228.675781 14.332031 226.585938 14.226562 224.5 14.355469 C 220.171875 14.460938 215.832031 14.179688 211.515625 14.613281 C 206.179688 14.648438 200.847656 14.691406 195.515625 14.65625 C 193.957031 14.695312 192.414062 14.945312 190.855469 14.933594 C 171.984375 14.929688 153.113281 15.054688 134.238281 15.085938 C 127.8125 15.699219 121.332031 15.101562 114.890625 15.507812 C 118.226562 15.753906 121.578125 15.558594 124.917969 15.632812 C 126.9375 15.726562 128.996094 15.394531 130.984375 15.878906 C 127.859375 16.191406 124.707031 15.964844 121.570312 16.035156 C 119.203125 16.117188 116.820312 15.835938 114.480469 16.253906 C 114.480469 16.121094 114.484375 15.855469 114.488281 15.722656 C 114.492188 14.507812 114.503906 13.28125 114.816406 12.097656 Z M 114.816406 12.097656 "/>
    <path style=" stroke:none;fill-rule:nonzero;fill:rgb(66.666667%,67.058824%,67.058824%);fill-opacity:1;" d="M 335.832031 12.164062 C 337.21875 12.144531 338.601562 12.167969 339.992188 12.191406 C 340.203125 13.316406 340.296875 14.460938 340.339844 15.601562 C 340.4375 20.65625 340.378906 25.710938 340.367188 30.761719 L 340.15625 30.785156 C 340.179688 25.847656 340.269531 20.902344 340.121094 15.972656 C 338.992188 15.265625 337.429688 15.738281 336.136719 15.648438 C 336.097656 14.601562 336.050781 13.558594 335.910156 12.523438 Z M 335.832031 12.164062 "/>
    <path style=" stroke:none;fill-rule:nonzero;fill:rgb(48.235294%,47.058824%,47.45098%);fill-opacity:1;" d="M 422.671875 12.398438 C 423.351562 12.191406 424.046875 12.332031 424.714844 12.507812 L 424.882812 12.546875 C 426.917969 14.375 428.074219 16.996094 428.382812 19.6875 C 428.558594 28.5625 428.398438 37.441406 428.464844 46.320312 C 428.484375 47.476562 428.414062 48.632812 428.359375 49.789062 C 428.183594 49.339844 428.003906 48.898438 427.832031 48.453125 C 427.652344 48.621094 427.300781 48.957031 427.128906 49.125 C 426.976562 40.3125 427.148438 31.5 427.070312 22.6875 C 427.019531 21.460938 427.203125 20.214844 427 19.003906 C 426.222656 17.402344 426.015625 15.4375 424.539062 14.261719 C 424.125 13.878906 423.71875 13.496094 423.324219 13.101562 C 423.160156 12.921875 422.835938 12.570312 422.671875 12.398438 Z M 422.671875 12.398438 "/>
    <path style=" stroke:none;fill-rule:nonzero;fill:rgb(48.235294%,47.058824%,47.45098%);fill-opacity:1;" d="M 5.34375 19 C 5.734375 17.6875 5.882812 16.121094 6.996094 15.1875 C 6.386719 16.964844 5.691406 18.746094 5.714844 20.660156 C 5.34375 32.21875 5.546875 43.796875 5.199219 55.351562 C 5.035156 54.464844 5.109375 53.5625 5.109375 52.671875 C 5.121094 44.769531 5.121094 36.871094 5.042969 28.972656 C 4.824219 25.648438 4.929688 22.304688 5.34375 19 Z M 5.34375 19 "/>
    <path style=" stroke:none;fill-rule:nonzero;fill:rgb(48.235294%,47.058824%,47.45098%);fill-opacity:1;" d="M 16.382812 69.710938 C 69.542969 69.785156 122.707031 69.738281 175.867188 69.757812 C 238.808594 69.75 301.75 69.761719 364.691406 69.742188 C 382.007812 69.726562 399.324219 69.785156 416.636719 69.664062 C 413.210938 69.949219 409.769531 69.847656 406.339844 69.894531 C 283.101562 69.917969 159.863281 69.898438 36.625 69.90625 C 30.402344 69.871094 24.179688 69.957031 17.960938 69.785156 C 17.457031 69.714844 16.808594 70.085938 16.382812 69.710938 Z M 16.382812 69.710938 "/>
    <path style=" stroke:none;fill-rule:nonzero;fill:rgb(12.156863%,23.137255%,56.078431%);fill-opacity:1;" d="M 10.566406 13.277344 C 12.546875 11.90625 15.046875 12.171875 17.324219 12.160156 C 48.230469 12.140625 79.132812 12.199219 110.039062 12.148438 C 109.929688 12.957031 109.816406 13.765625 109.753906 14.578125 C 109.742188 14.828125 109.71875 15.320312 109.707031 15.566406 L 109.703125 15.714844 C 89.460938 15.464844 69.214844 15.808594 48.96875 15.691406 C 37.753906 15.285156 26.460938 15.617188 15.355469 13.761719 C 13.785156 13.394531 12.179688 13.171875 10.566406 13.277344 Z M 10.566406 13.277344 "/>
    <path style=" stroke:none;fill-rule:nonzero;fill:rgb(93.333333%,93.333333%,93.72549%);fill-opacity:1;" d="M 335.910156 12.523438 C 336.050781 13.558594 336.097656 14.601562 336.136719 15.648438 C 336.191406 17.445312 336.148438 19.246094 336.152344 21.050781 C 335.769531 20.617188 335.386719 20.1875 335.007812 19.753906 C 334.160156 20.023438 333.308594 20.285156 332.457031 20.535156 C 332.132812 20.359375 331.808594 20.1875 331.492188 20.011719 C 331.136719 20.191406 330.796875 20.371094 330.457031 20.550781 C 330.335938 20.488281 330.09375 20.375 329.972656 20.316406 C 328.589844 20.78125 327.089844 20.734375 325.726562 21.273438 C 324.308594 21.921875 322.566406 20.914062 321.394531 22.199219 C 320.109375 21.414062 318.816406 22.214844 317.570312 22.625 C 317.421875 22.832031 317.285156 23.042969 317.152344 23.25 C 316.976562 22.992188 316.804688 22.738281 316.632812 22.484375 C 315.140625 22.839844 313.636719 23.285156 312.085938 23.144531 C 311.378906 23.027344 310.792969 23.4375 310.246094 23.808594 C 310.113281 23.761719 309.847656 23.664062 309.714844 23.617188 C 308.128906 24.007812 306.46875 24.023438 304.851562 24.261719 C 304.640625 24.421875 304.4375 24.578125 304.234375 24.742188 C 303.757812 24.617188 303.265625 24.5625 302.792969 24.703125 C 301.664062 24.976562 300.425781 24.867188 299.410156 25.496094 C 299.269531 25.398438 298.988281 25.195312 298.847656 25.097656 C 298.523438 25.488281 298.253906 25.914062 298.046875 26.375 C 297.171875 25.796875 296.175781 25.375 295.109375 25.414062 C 293.632812 25.421875 292.035156 25.195312 290.6875 25.929688 C 289.609375 26.488281 288.855469 27.488281 288.300781 28.546875 L 288.195312 28.761719 C 283.355469 28.214844 278.464844 28.3125 273.609375 27.996094 C 273.4375 26.191406 271.414062 24.902344 269.730469 25.589844 C 268.820312 26.082031 268.386719 27.089844 267.804688 27.894531 L 267.710938 28.035156 C 265.988281 27.628906 264.214844 27.835938 262.464844 27.800781 C 257.078125 27.875 251.6875 27.511719 246.308594 27.894531 C 245.722656 27.136719 245.261719 26.238281 244.472656 25.671875 C 242.855469 24.84375 240.679688 26.066406 240.492188 27.871094 C 238.898438 27.917969 237.308594 27.90625 235.714844 27.898438 C 235.707031 27.066406 235.707031 26.238281 235.707031 25.410156 C 229.527344 25.410156 223.347656 25.410156 217.167969 25.410156 C 214.789062 25.347656 212.476562 26.527344 211.0625 28.429688 C 211.011719 28.5 210.90625 28.644531 210.855469 28.714844 C 208.988281 28.671875 207.128906 28.816406 205.269531 28.773438 C 205.28125 27.648438 205.273438 26.523438 205.230469 25.398438 C 203.476562 25.417969 201.726562 25.40625 199.96875 25.414062 C 199.972656 26.636719 199.976562 27.855469 199.972656 29.078125 L 199.972656 29.28125 C 196.921875 29.328125 193.886719 29.71875 190.851562 29.984375 C 189.195312 30.195312 187.480469 30.1875 185.898438 30.789062 C 185.828125 30.71875 185.691406 30.578125 185.621094 30.511719 C 184.125 29.019531 182.699219 27.457031 181.183594 25.988281 C 179.773438 24.535156 177.011719 25.699219 176.835938 27.648438 C 176.722656 28.925781 176.8125 30.210938 176.792969 31.488281 L 176.792969 31.707031 C 175.351562 31.730469 173.910156 31.796875 172.46875 31.878906 C 172.460938 29.722656 172.46875 27.566406 172.46875 25.414062 C 170.710938 25.410156 168.953125 25.410156 167.199219 25.414062 C 167.128906 27.734375 167.175781 30.058594 167.164062 32.375 C 159.085938 33.117188 150.996094 33.699219 142.925781 34.535156 C 142.902344 34.320312 142.855469 33.886719 142.832031 33.671875 C 143.570312 32.101562 145.074219 30.75 146.886719 30.761719 C 152.234375 30.738281 157.585938 30.78125 162.933594 30.753906 C 162.941406 28.96875 162.972656 27.1875 162.902344 25.402344 C 157.441406 25.4375 151.984375 25.375 146.527344 25.4375 C 141.574219 25.621094 137.320312 30.085938 137.300781 35.035156 C 129.683594 35.996094 122.03125 36.71875 114.460938 38.023438 C 114.480469 30.765625 114.410156 23.511719 114.480469 16.253906 C 116.820312 15.835938 119.203125 16.117188 121.570312 16.035156 C 124.707031 15.964844 127.859375 16.191406 130.984375 15.878906 C 128.996094 15.394531 126.9375 15.726562 124.917969 15.632812 C 121.578125 15.558594 118.226562 15.753906 114.890625 15.507812 C 121.332031 15.101562 127.8125 15.699219 134.238281 15.085938 C 153.113281 15.054688 171.984375 14.929688 190.855469 14.933594 C 192.414062 14.945312 193.957031 14.695312 195.515625 14.65625 C 200.847656 14.691406 206.179688 14.648438 211.515625 14.613281 C 215.832031 14.179688 220.171875 14.460938 224.5 14.355469 C 226.585938 14.226562 228.675781 14.332031 230.761719 14.171875 C 233.113281 14.324219 235.46875 14.382812 237.8125 14.078125 C 244.699219 13.988281 251.585938 14.113281 258.472656 13.988281 C 262.785156 13.601562 267.117188 13.738281 271.441406 13.714844 C 274.550781 13.558594 277.664062 13.265625 280.78125 13.390625 C 283.5625 13.242188 286.332031 12.890625 289.117188 12.773438 C 304.109375 12.796875 319.101562 12.738281 334.089844 12.746094 C 334.699219 12.738281 335.304688 12.632812 335.910156 12.523438 Z M 335.910156 12.523438 "/>
    <path style=" stroke:none;fill-rule:nonzero;fill:rgb(62.352941%,63.137255%,67.058824%);fill-opacity:1;" d="M 7.976562 14.109375 C 8.421875 13.816406 8.871094 13.523438 9.324219 13.25 C 9.449219 13.238281 9.6875 13.210938 9.8125 13.191406 C 9.300781 13.707031 8.765625 14.203125 8.300781 14.761719 C 8.253906 14.851562 8.15625 15.042969 8.105469 15.140625 C 7.144531 16.800781 6.410156 18.625 6.511719 20.582031 C 6.296875 32.054688 6.496094 43.53125 6.410156 55.003906 C 6.386719 56.351562 6.433594 57.707031 6.519531 59.058594 C 6.589844 60.417969 6.664062 61.851562 7.363281 63.058594 C 7.785156 63.140625 8.207031 63.191406 8.632812 63.222656 C 8.5 63.335938 8.234375 63.5625 8.101562 63.675781 C 8.203125 63.984375 8.308594 64.289062 8.425781 64.59375 L 8.761719 65.203125 C 8.328125 64.851562 7.890625 64.503906 7.449219 64.164062 C 7.527344 65.894531 9.269531 66.691406 10.300781 67.832031 C 9.113281 67.136719 8.054688 66.242188 7.167969 65.191406 C 7.082031 65.292969 6.910156 65.507812 6.824219 65.613281 C 4.878906 62.957031 4.476562 59.5 4.554688 56.296875 C 4.78125 52.65625 4.53125 49.003906 4.554688 45.363281 C 4.347656 43.90625 4.328125 42.433594 4.554688 40.976562 C 4.738281 37.765625 4.519531 34.542969 4.644531 31.328125 C 4.441406 28.757812 4.683594 26.171875 4.457031 23.601562 C 4.5625 19.957031 4.917969 15.910156 7.628906 13.175781 C 7.71875 13.410156 7.890625 13.875 7.976562 14.109375 M 5.34375 19 C 4.929688 22.304688 4.824219 25.648438 5.042969 28.972656 C 5.121094 36.871094 5.121094 44.769531 5.109375 52.671875 C 5.109375 53.5625 5.035156 54.464844 5.199219 55.351562 C 5.546875 43.796875 5.34375 32.21875 5.714844 20.660156 C 5.691406 18.746094 6.386719 16.964844 6.996094 15.1875 C 5.882812 16.121094 5.734375 17.6875 5.34375 19 Z M 5.34375 19 "/>
    <path style=" stroke:none;fill-rule:nonzero;fill:rgb(40.784314%,50.196078%,72.54902%);fill-opacity:1;" d="M 8.105469 15.140625 C 8.875 14.453125 9.699219 13.832031 10.566406 13.277344 C 12.179688 13.171875 13.785156 13.394531 15.355469 13.761719 C 26.460938 15.617188 37.753906 15.285156 48.96875 15.691406 C 69.214844 15.808594 89.460938 15.464844 109.703125 15.714844 C 109.699219 23.375 109.714844 31.035156 109.703125 38.691406 C 104.023438 39.4375 98.390625 40.476562 92.726562 41.296875 C 94.109375 38.28125 95.550781 35.285156 96.941406 32.273438 C 97.433594 31.15625 98.097656 30.105469 98.421875 28.925781 C 98.652344 28.207031 97.945312 27.511719 97.25 27.535156 C 95.917969 27.460938 94.589844 27.519531 93.261719 27.5 C 92.570312 27.53125 91.777344 27.445312 91.226562 27.953125 C 90.71875 28.535156 90.457031 29.277344 90.136719 29.96875 C 88.246094 34.4375 86.195312 38.839844 84.34375 43.324219 C 84.210938 43.191406 83.949219 42.9375 83.820312 42.808594 C 80.886719 38.273438 78.085938 33.660156 75.199219 29.101562 C 74.761719 28.398438 74.160156 27.714844 73.292969 27.601562 C 71.632812 27.390625 69.949219 27.5625 68.28125 27.5 C 67.035156 27.515625 65.566406 27.351562 64.605469 28.324219 C 61.066406 31.933594 57.84375 35.859375 54.203125 39.375 C 54.160156 32.140625 54.210938 24.902344 54.179688 17.671875 C 54.285156 16.9375 53.652344 16.285156 52.945312 16.242188 C 51.515625 16.152344 50.070312 16.167969 48.640625 16.238281 C 47.652344 16.289062 46.527344 16.898438 46.363281 17.957031 C 46.160156 19.070312 46.242188 20.203125 46.234375 21.328125 C 46.242188 30.839844 46.234375 40.351562 46.238281 49.863281 C 45.171875 50.035156 44.105469 50.195312 43.035156 50.324219 C 44.675781 47.867188 44.800781 44.507812 43.363281 41.925781 C 42.257812 40.066406 40.257812 38.964844 38.234375 38.375 C 35.101562 37.558594 31.925781 36.898438 28.78125 36.125 C 28.097656 35.972656 27.191406 35.492188 27.507812 34.648438 C 28.105469 34.148438 28.914062 34.167969 29.652344 34.148438 C 33.3125 34.148438 36.976562 34.175781 40.640625 34.148438 C 41.796875 34.183594 43.023438 33.484375 43.308594 32.308594 C 43.546875 31.011719 43.515625 29.667969 43.359375 28.363281 C 43.105469 27.640625 42.296875 27.46875 41.625 27.507812 C 37.523438 27.503906 33.425781 27.511719 29.328125 27.507812 C 27.089844 27.511719 24.722656 27.851562 22.875 29.21875 C 19.023438 31.835938 18.613281 38.410156 22.46875 41.203125 C 24.789062 43.035156 27.839844 43.25 30.605469 43.941406 C 32.261719 44.390625 33.996094 44.523438 35.601562 45.140625 C 36.097656 45.3125 36.628906 45.773438 36.488281 46.363281 C 36.117188 47.039062 35.304688 47.125 34.613281 47.113281 C 30.625 47.132812 26.628906 47.074219 22.640625 47.132812 C 21.429688 47.109375 20.382812 48.148438 20.253906 49.324219 C 20.140625 50.535156 20.09375 51.769531 20.304688 52.972656 C 20.488281 53.734375 21.375 53.640625 21.980469 53.671875 C 23.898438 53.613281 25.820312 53.667969 27.738281 53.738281 C 23.207031 55.195312 18.765625 56.972656 14.53125 59.160156 C 12.5 60.179688 10.621094 61.492188 8.910156 62.984375 L 8.632812 63.222656 C 8.207031 63.191406 7.785156 63.140625 7.363281 63.058594 C 6.664062 61.851562 6.589844 60.417969 6.519531 59.058594 C 6.679688 48.710938 6.53125 38.359375 6.589844 28.011719 C 6.582031 25.535156 6.632812 23.058594 6.511719 20.582031 C 6.410156 18.625 7.144531 16.800781 8.105469 15.140625 M 9.09375 16.921875 C 10.109375 16.054688 11.09375 15.117188 12.269531 14.464844 C 10.71875 14.234375 9.421875 15.488281 9.09375 16.921875 Z M 9.09375 16.921875 "/>
    <path style=" stroke:none;fill-rule:nonzero;fill:rgb(68.627451%,68.627451%,68.627451%);fill-opacity:1;" d="M 109.753906 14.578125 C 111.234375 14.398438 112.730469 14.382812 114.210938 14.191406 C 114.25 14.671875 114.289062 15.148438 114.34375 15.625 C 112.796875 15.5625 111.25 15.617188 109.707031 15.566406 C 109.71875 15.320312 109.742188 14.828125 109.753906 14.578125 Z M 109.753906 14.578125 "/>
    <path style=" stroke:none;fill-rule:nonzero;fill:rgb(68.627451%,68.627451%,68.627451%);fill-opacity:1;" d="M 418.597656 68.527344 C 419.71875 68.238281 420.847656 67.960938 421.972656 67.660156 C 421.886719 67.808594 421.722656 68.101562 421.640625 68.25 C 420.996094 68.402344 420.359375 68.585938 419.722656 68.742188 C 419.339844 68.671875 418.964844 68.601562 418.597656 68.527344 Z M 418.597656 68.527344 "/>
    <path style=" stroke:none;fill-rule:nonzero;fill:rgb(35.294118%,37.254902%,41.568627%);fill-opacity:1;" d="M 413.652344 14.796875 C 416.097656 14.589844 418.519531 13.898438 420.984375 14.144531 C 422.664062 14.371094 423.746094 15.8125 425.066406 16.722656 C 424.738281 16.148438 424.394531 15.585938 423.984375 15.078125 C 424.125 14.875 424.402344 14.464844 424.539062 14.261719 C 426.015625 15.4375 426.222656 17.402344 427 19.003906 C 427.203125 20.214844 427.019531 21.460938 427.070312 22.6875 C 427.148438 31.5 426.976562 40.3125 427.128906 49.125 C 427.152344 51.191406 427.128906 53.261719 427.15625 55.328125 C 427.128906 56.695312 427.308594 58.117188 426.785156 59.421875 C 426.925781 49.28125 426.820312 39.128906 426.828125 28.984375 C 426.605469 25.09375 427.371094 20.859375 425.441406 17.285156 C 426.09375 20.375 425.734375 23.546875 425.824219 26.675781 C 425.785156 37.53125 425.902344 48.382812 425.765625 59.238281 C 424.984375 57.929688 424.921875 56.359375 424.320312 54.980469 C 423.222656 52.292969 422.257812 49.507812 420.582031 47.109375 C 419.398438 45.371094 417.84375 43.886719 416.089844 42.738281 C 416.046875 39.933594 416.179688 37.125 416.027344 34.324219 C 415.648438 29.484375 411.210938 25.421875 406.359375 25.46875 C 399.988281 25.484375 393.613281 25.402344 387.246094 25.511719 C 387.296875 28.777344 387.25 32.039062 387.273438 35.304688 C 385.308594 35.171875 383.363281 34.855469 381.421875 34.578125 C 381.398438 31.542969 381.480469 28.507812 381.375 25.46875 C 379.632812 25.492188 377.886719 25.484375 376.140625 25.484375 C 376.148438 28.324219 376.140625 31.164062 376.148438 34.003906 C 370.296875 33.503906 364.46875 32.832031 358.617188 32.398438 C 358.5625 34.023438 358.574219 35.648438 358.636719 37.265625 L 358.425781 37.265625 C 358.472656 33.347656 358.523438 29.425781 358.523438 25.507812 C 356.753906 25.464844 354.988281 25.488281 353.226562 25.484375 C 353.230469 27.625 353.222656 29.761719 353.230469 31.902344 C 348.9375 31.613281 344.648438 31.304688 340.363281 30.886719 L 340.367188 30.761719 C 340.378906 25.710938 340.4375 20.65625 340.339844 15.601562 C 356.679688 15.539062 373.019531 15.71875 389.359375 15.523438 C 397.457031 15.425781 405.578125 15.527344 413.652344 14.796875 Z M 413.652344 14.796875 "/>
    <path style=" stroke:none;fill-rule:nonzero;fill:rgb(35.294118%,37.254902%,41.568627%);fill-opacity:1;" d="M 392.542969 30.816406 C 397.144531 30.6875 401.75 30.792969 406.355469 30.761719 C 408.65625 30.683594 410.683594 32.746094 410.785156 35.011719 C 410.832031 36.691406 410.785156 38.375 410.796875 40.058594 C 404.847656 38.230469 398.769531 36.761719 392.570312 36.101562 C 392.570312 34.339844 392.601562 32.578125 392.542969 30.816406 Z M 392.542969 30.816406 "/>
    <path style=" stroke:none;fill-rule:nonzero;fill:rgb(100%,100%,100%);fill-opacity:1;" d="M 9.09375 16.921875 C 9.421875 15.488281 10.71875 14.234375 12.269531 14.464844 C 11.09375 15.117188 10.109375 16.054688 9.09375 16.921875 Z M 9.09375 16.921875 "/>
    <path style=" stroke:none;fill-rule:nonzero;fill:rgb(100%,100%,100%);fill-opacity:1;" d="M 46.363281 17.957031 C 46.527344 16.898438 47.652344 16.289062 48.640625 16.238281 C 50.070312 16.167969 51.515625 16.152344 52.945312 16.242188 C 53.652344 16.285156 54.285156 16.9375 54.179688 17.671875 C 54.210938 24.902344 54.160156 32.140625 54.203125 39.375 C 57.84375 35.859375 61.066406 31.933594 64.605469 28.324219 C 65.566406 27.351562 67.035156 27.515625 68.28125 27.5 C 69.949219 27.5625 71.632812 27.390625 73.292969 27.601562 C 74.160156 27.714844 74.761719 28.398438 75.199219 29.101562 C 78.085938 33.660156 80.886719 38.273438 83.820312 42.808594 C 83.886719 42.945312 84.015625 43.222656 84.082031 43.363281 L 84.34375 43.324219 C 86.195312 38.839844 88.246094 34.4375 90.136719 29.96875 C 90.457031 29.277344 90.71875 28.535156 91.226562 27.953125 C 91.777344 27.445312 92.570312 27.53125 93.261719 27.5 C 94.589844 27.519531 95.917969 27.460938 97.25 27.535156 C 97.945312 27.511719 98.652344 28.207031 98.421875 28.925781 C 98.097656 30.105469 97.433594 31.15625 96.941406 32.273438 C 95.550781 35.285156 94.109375 38.28125 92.726562 41.296875 C 89.292969 48.496094 85.933594 55.734375 82.542969 62.953125 C 82.261719 63.402344 81.808594 63.738281 81.261719 63.738281 C 79.546875 63.847656 77.832031 63.714844 76.117188 63.808594 C 75.273438 63.488281 74.902344 62.539062 75.378906 61.753906 C 77.070312 58.246094 78.816406 54.761719 80.503906 51.253906 C 80.742188 50.847656 80.363281 50.464844 80.179688 50.132812 C 78.828125 48.191406 77.574219 46.191406 76.222656 44.253906 C 73.917969 40.769531 71.601562 37.296875 69.273438 33.828125 C 67.710938 35.429688 66.226562 37.105469 64.65625 38.703125 C 64.304688 39.117188 63.832031 39.480469 63.648438 40.011719 C 64.847656 42.140625 66.371094 44.078125 67.65625 46.164062 C 68.933594 48.144531 70.339844 50.039062 71.554688 52.058594 C 72.011719 52.710938 71.34375 53.613281 70.617188 53.59375 C 68.71875 53.679688 66.808594 53.648438 64.90625 53.613281 C 64.09375 53.703125 63.625 52.972656 63.191406 52.417969 C 62.015625 50.757812 60.910156 49.050781 59.722656 47.398438 C 57.882812 44.765625 56.132812 42.066406 54.222656 39.488281 C 54.144531 42.464844 54.207031 45.445312 54.183594 48.429688 C 54.0625 49.894531 54.609375 51.671875 53.4375 52.835938 C 52.488281 53.949219 50.890625 53.558594 49.609375 53.644531 C 48.613281 53.546875 47.46875 53.878906 46.578125 53.347656 C 45.996094 52.292969 46.324219 51.011719 46.238281 49.863281 C 46.234375 40.351562 46.242188 30.839844 46.234375 21.328125 C 46.242188 20.203125 46.160156 19.070312 46.363281 17.957031 Z M 46.363281 17.957031 "/>
    <path style=" stroke:none;fill-rule:nonzero;fill:rgb(100%,100%,100%);fill-opacity:1;" d="M 353.226562 25.484375 C 354.988281 25.488281 356.753906 25.464844 358.523438 25.507812 C 358.523438 29.425781 358.472656 33.347656 358.425781 37.265625 L 358.636719 37.265625 C 364.472656 37.269531 370.3125 37.261719 376.152344 37.269531 C 376.152344 36.179688 376.152344 35.09375 376.148438 34.003906 C 376.140625 31.164062 376.148438 28.324219 376.140625 25.484375 C 377.886719 25.484375 379.632812 25.492188 381.375 25.46875 C 381.480469 28.507812 381.398438 31.542969 381.421875 34.578125 C 381.417969 41.171875 381.417969 47.757812 381.421875 54.347656 C 379.664062 54.390625 377.90625 54.382812 376.152344 54.351562 C 376.152344 50.421875 376.152344 46.488281 376.152344 42.558594 C 370.265625 42.570312 364.375 42.523438 358.488281 42.578125 C 358.519531 46.511719 358.5 50.441406 358.5 54.375 C 356.746094 54.375 354.992188 54.375 353.242188 54.375 C 353.226562 46.882812 353.246094 39.394531 353.230469 31.902344 C 353.222656 29.761719 353.230469 27.625 353.226562 25.484375 Z M 353.226562 25.484375 "/>
    <path style=" stroke:none;fill-rule:nonzero;fill:rgb(100%,100%,100%);fill-opacity:1;" d="M 387.246094 25.511719 C 393.613281 25.402344 399.988281 25.484375 406.359375 25.46875 C 411.210938 25.421875 415.648438 29.484375 416.027344 34.324219 C 416.179688 37.125 416.046875 39.933594 416.089844 42.738281 C 416.179688 45.171875 415.945312 47.765625 414.503906 49.824219 C 412.734375 52.691406 409.386719 54.414062 406.039062 54.375 C 399.785156 54.375 393.535156 54.375 387.28125 54.375 C 387.269531 48.015625 387.289062 41.660156 387.273438 35.304688 C 387.25 32.039062 387.296875 28.777344 387.246094 25.511719 M 392.542969 30.816406 C 392.601562 32.578125 392.570312 34.339844 392.570312 36.101562 C 392.566406 40.421875 392.566406 44.742188 392.570312 49.066406 C 397.171875 49.058594 401.769531 49.078125 406.371094 49.058594 C 408.097656 49.101562 409.722656 47.964844 410.398438 46.398438 C 411.179688 44.386719 410.675781 42.164062 410.796875 40.058594 C 410.785156 38.375 410.832031 36.691406 410.785156 35.011719 C 410.683594 32.746094 408.65625 30.683594 406.355469 30.761719 C 401.75 30.792969 397.144531 30.6875 392.542969 30.816406 Z M 392.542969 30.816406 "/>
    <path style=" stroke:none;fill-rule:nonzero;fill:rgb(100%,100%,100%);fill-opacity:1;" d="M 22.875 29.21875 C 24.722656 27.851562 27.089844 27.511719 29.328125 27.507812 C 33.425781 27.511719 37.523438 27.503906 41.625 27.507812 C 42.296875 27.46875 43.105469 27.640625 43.359375 28.363281 C 43.515625 29.667969 43.546875 31.011719 43.308594 32.308594 C 43.023438 33.484375 41.796875 34.183594 40.640625 34.148438 C 36.976562 34.175781 33.3125 34.148438 29.652344 34.148438 C 28.914062 34.167969 28.105469 34.148438 27.507812 34.648438 C 27.191406 35.492188 28.097656 35.972656 28.78125 36.125 C 31.925781 36.898438 35.101562 37.558594 38.234375 38.375 C 40.257812 38.964844 42.257812 40.066406 43.363281 41.925781 C 44.800781 44.507812 44.675781 47.867188 43.035156 50.324219 C 42.1875 51.28125 41.203125 52.15625 40.007812 52.636719 C 36.140625 54.371094 31.808594 53.269531 27.738281 53.738281 C 25.820312 53.667969 23.898438 53.613281 21.980469 53.671875 C 21.375 53.640625 20.488281 53.734375 20.304688 52.972656 C 20.09375 51.769531 20.140625 50.535156 20.253906 49.324219 C 20.382812 48.148438 21.429688 47.109375 22.640625 47.132812 C 26.628906 47.074219 30.625 47.132812 34.613281 47.113281 C 35.304688 47.125 36.117188 47.039062 36.488281 46.363281 C 36.628906 45.773438 36.097656 45.3125 35.601562 45.140625 C 33.996094 44.523438 32.261719 44.390625 30.605469 43.941406 C 27.839844 43.25 24.789062 43.035156 22.46875 41.203125 C 18.613281 38.410156 19.023438 31.835938 22.875 29.21875 Z M 22.875 29.21875 "/>
    <path style=" stroke:none;fill-rule:nonzero;fill:rgb(81.176471%,81.176471%,81.176471%);fill-opacity:1;" d="M 109.703125 15.714844 L 109.707031 15.566406 C 111.25 15.617188 112.796875 15.5625 114.34375 15.625 L 114.488281 15.722656 C 114.484375 15.855469 114.480469 16.121094 114.480469 16.253906 C 114.410156 23.511719 114.480469 30.765625 114.460938 38.023438 C 112.867188 38.175781 111.28125 38.421875 109.703125 38.691406 C 109.714844 31.035156 109.699219 23.375 109.703125 15.714844 Z M 109.703125 15.714844 "/>
    <path style=" stroke:none;fill-rule:nonzero;fill:rgb(78.823529%,78.823529%,79.215686%);fill-opacity:1;" d="M 336.136719 15.648438 C 337.429688 15.738281 338.992188 15.265625 340.121094 15.972656 C 340.269531 20.902344 340.179688 25.847656 340.15625 30.785156 C 338.824219 30.851562 337.488281 30.75 336.15625 30.691406 C 336.140625 27.476562 336.199219 24.261719 336.152344 21.050781 C 336.148438 19.246094 336.191406 17.445312 336.136719 15.648438 Z M 336.136719 15.648438 "/>
    <path style=" stroke:none;fill-rule:nonzero;fill:rgb(84.313725%,85.098039%,88.627451%);fill-opacity:1;" d="M 425.441406 17.285156 C 427.371094 20.859375 426.605469 25.09375 426.828125 28.984375 C 426.820312 39.128906 426.925781 49.28125 426.785156 59.421875 C 426.660156 59.867188 426.558594 60.308594 426.476562 60.761719 C 426.089844 62.765625 425.308594 64.808594 423.648438 66.09375 C 423.398438 66.425781 423.1875 65.714844 423.074219 65.6875 C 423.222656 65.613281 423.53125 65.472656 423.679688 65.398438 C 424.222656 64.566406 424.863281 63.800781 425.367188 62.941406 C 425.800781 61.757812 425.777344 60.476562 425.765625 59.238281 C 425.902344 48.382812 425.785156 37.53125 425.824219 26.675781 C 425.734375 23.546875 426.09375 20.375 425.441406 17.285156 Z M 425.441406 17.285156 "/>
    <path style=" stroke:none;fill-rule:nonzero;fill:rgb(84.313725%,85.098039%,88.627451%);fill-opacity:1;" d="M 428.382812 19.6875 C 428.769531 23.214844 428.550781 26.777344 428.609375 30.324219 C 428.601562 36.207031 428.613281 42.089844 428.605469 47.976562 C 428.523438 51.976562 428.808594 55.996094 428.390625 59.984375 C 428.421875 56.585938 428.570312 53.183594 428.359375 49.789062 C 428.414062 48.632812 428.484375 47.476562 428.464844 46.320312 C 428.398438 37.441406 428.558594 28.5625 428.382812 19.6875 Z M 428.382812 19.6875 "/>
    <path style=" stroke:none;fill-rule:nonzero;fill:rgb(92.54902%,92.156863%,92.156863%);fill-opacity:1;" d="M 332.457031 20.535156 C 333.308594 20.285156 334.160156 20.023438 335.007812 19.753906 C 335.386719 20.1875 335.769531 20.617188 336.152344 21.050781 C 336.199219 24.261719 336.140625 27.476562 336.15625 30.691406 C 326.601562 29.96875 317.027344 29.578125 307.453125 29.308594 C 304.949219 29.269531 302.445312 29.003906 299.9375 29.097656 L 299.859375 28.921875 C 299.410156 27.976562 298.8125 27.09375 298.046875 26.375 C 298.253906 25.914062 298.523438 25.488281 298.847656 25.097656 C 298.988281 25.195312 299.269531 25.398438 299.410156 25.496094 C 300.425781 24.867188 301.664062 24.976562 302.792969 24.703125 C 303.265625 24.5625 303.757812 24.617188 304.234375 24.742188 C 304.4375 24.578125 304.640625 24.421875 304.851562 24.261719 C 306.46875 24.023438 308.128906 24.007812 309.714844 23.617188 C 309.847656 23.664062 310.113281 23.761719 310.246094 23.808594 C 310.792969 23.4375 311.378906 23.027344 312.085938 23.144531 C 313.636719 23.285156 315.140625 22.839844 316.632812 22.484375 C 316.804688 22.738281 316.976562 22.992188 317.152344 23.25 C 317.285156 23.042969 317.421875 22.832031 317.570312 22.625 C 318.816406 22.214844 320.109375 21.414062 321.394531 22.199219 C 322.566406 20.914062 324.308594 21.921875 325.726562 21.273438 C 327.089844 20.734375 328.589844 20.78125 329.972656 20.316406 C 330.09375 20.375 330.335938 20.488281 330.457031 20.550781 C 330.796875 20.371094 331.136719 20.191406 331.492188 20.011719 C 331.808594 20.1875 332.132812 20.359375 332.457031 20.535156 Z M 332.457031 20.535156 "/>
    <path style=" stroke:none;fill-rule:nonzero;fill:rgb(44.705882%,43.137255%,43.137255%);fill-opacity:1;" d="M 4.367188 28.328125 C 4.382812 26.753906 4.285156 25.171875 4.457031 23.601562 C 4.683594 26.171875 4.441406 28.757812 4.644531 31.328125 C 4.519531 34.542969 4.738281 37.765625 4.554688 40.976562 C 4.328125 42.433594 4.347656 43.90625 4.554688 45.363281 C 4.53125 49.003906 4.78125 52.65625 4.554688 56.296875 C 4.238281 55.964844 4.390625 55.421875 4.332031 55.007812 C 4.386719 46.113281 4.328125 37.21875 4.367188 28.328125 Z M 4.367188 28.328125 "/>
    <path style=" stroke:none;fill-rule:nonzero;fill:rgb(44.705882%,43.137255%,43.137255%);fill-opacity:1;" d="M 427.832031 48.453125 C 428.003906 48.898438 428.183594 49.339844 428.359375 49.789062 C 428.570312 53.183594 428.421875 56.585938 428.390625 59.984375 C 428.332031 60.5625 428.199219 61.128906 428.058594 61.695312 C 427.996094 61.214844 427.929688 60.742188 427.867188 60.269531 C 427.476562 61.816406 427.113281 63.4375 426.078125 64.699219 C 426.433594 63.59375 426.90625 62.519531 427.109375 61.367188 C 426.949219 61.214844 426.636719 60.914062 426.476562 60.761719 C 426.558594 60.308594 426.660156 59.867188 426.785156 59.421875 C 427.308594 58.117188 427.128906 56.695312 427.15625 55.328125 C 427.128906 53.261719 427.152344 51.191406 427.128906 49.125 C 427.300781 48.957031 427.652344 48.621094 427.832031 48.453125 Z M 427.832031 48.453125 "/>
    <path style=" stroke:none;fill-rule:nonzero;fill:rgb(43.921569%,52.54902%,70.588235%);fill-opacity:1;" d="M 137.300781 35.035156 C 137.320312 30.085938 141.574219 25.621094 146.527344 25.4375 C 151.984375 25.375 157.441406 25.4375 162.902344 25.402344 C 162.972656 27.1875 162.941406 28.96875 162.933594 30.753906 C 157.585938 30.78125 152.234375 30.738281 146.886719 30.761719 C 145.074219 30.75 143.570312 32.101562 142.832031 33.671875 C 142.761719 33.921875 142.703125 34.175781 142.652344 34.4375 C 140.863281 34.609375 139.085938 34.847656 137.300781 35.035156 Z M 137.300781 35.035156 "/>
    <path style=" stroke:none;fill-rule:nonzero;fill:rgb(43.529412%,52.156863%,70.196078%);fill-opacity:1;" d="M 167.199219 25.414062 C 168.953125 25.410156 170.710938 25.410156 172.46875 25.414062 C 172.46875 27.566406 172.460938 29.722656 172.46875 31.878906 C 170.703125 32.058594 168.929688 32.191406 167.164062 32.375 C 167.175781 30.058594 167.128906 27.734375 167.199219 25.414062 Z M 167.199219 25.414062 "/>
    <path style=" stroke:none;fill-rule:nonzero;fill:rgb(43.137255%,52.156863%,69.803922%);fill-opacity:1;" d="M 176.835938 27.648438 C 177.011719 25.699219 179.773438 24.535156 181.183594 25.988281 C 182.699219 27.457031 184.125 29.019531 185.621094 30.511719 C 182.675781 30.820312 179.738281 31.179688 176.792969 31.488281 C 176.8125 30.210938 176.722656 28.925781 176.835938 27.648438 Z M 176.835938 27.648438 "/>
    <path style=" stroke:none;fill-rule:nonzero;fill:rgb(43.529412%,52.156863%,69.411765%);fill-opacity:1;" d="M 199.96875 25.414062 C 201.726562 25.40625 203.476562 25.417969 205.230469 25.398438 C 205.273438 26.523438 205.28125 27.648438 205.269531 28.773438 L 205.269531 28.824219 C 203.5 28.851562 201.734375 28.980469 199.972656 29.078125 C 199.976562 27.855469 199.972656 26.636719 199.96875 25.414062 Z M 199.96875 25.414062 "/>
    <path style=" stroke:none;fill-rule:nonzero;fill:rgb(43.529412%,51.764706%,69.019608%);fill-opacity:1;" d="M 211.0625 28.429688 C 212.476562 26.527344 214.789062 25.347656 217.167969 25.410156 C 223.347656 25.410156 229.527344 25.410156 235.707031 25.410156 C 235.707031 26.238281 235.707031 27.066406 235.714844 27.898438 C 227.496094 27.859375 219.28125 28.308594 211.0625 28.429688 Z M 211.0625 28.429688 "/>
    <path style=" stroke:none;fill-rule:nonzero;fill:rgb(43.137255%,51.372549%,68.627451%);fill-opacity:1;" d="M 240.492188 27.871094 C 240.679688 26.066406 242.855469 24.84375 244.472656 25.671875 C 245.261719 26.238281 245.722656 27.136719 246.308594 27.894531 C 244.371094 27.71875 242.429688 27.847656 240.492188 27.871094 Z M 240.492188 27.871094 "/>
    <path style=" stroke:none;fill-rule:nonzero;fill:rgb(43.137255%,51.372549%,68.235294%);fill-opacity:1;" d="M 269.730469 25.589844 C 271.414062 24.902344 273.4375 26.191406 273.609375 27.996094 C 271.675781 27.921875 269.738281 27.921875 267.804688 27.894531 C 268.386719 27.089844 268.820312 26.082031 269.730469 25.589844 Z M 269.730469 25.589844 "/>
    <path style=" stroke:none;fill-rule:nonzero;fill:rgb(42.745098%,50.980392%,67.843137%);fill-opacity:1;" d="M 290.6875 25.929688 C 292.035156 25.195312 293.632812 25.421875 295.109375 25.414062 C 296.175781 25.375 297.171875 25.796875 298.046875 26.375 C 298.8125 27.09375 299.410156 27.976562 299.859375 28.921875 C 296.003906 28.867188 292.148438 28.804688 288.300781 28.546875 C 288.855469 27.488281 289.609375 26.488281 290.6875 25.929688 Z M 290.6875 25.929688 "/>
    <path style=" stroke:none;fill-rule:nonzero;fill:rgb(84.313725%,83.921569%,83.921569%);fill-opacity:1;" d="M 246.308594 27.894531 C 251.6875 27.511719 257.078125 27.875 262.464844 27.800781 C 264.214844 27.835938 265.988281 27.628906 267.710938 28.035156 C 264.125 33.304688 260.664062 38.65625 256.988281 43.859375 C 253.472656 38.511719 249.796875 33.261719 246.308594 27.894531 Z M 246.308594 27.894531 "/>
    <path style=" stroke:none;fill-rule:nonzero;fill:rgb(10.196078%,19.215686%,36.078431%);fill-opacity:1;" d="M 211.0625 28.429688 C 219.28125 28.308594 227.496094 27.859375 235.714844 27.898438 C 235.726562 28.871094 235.710938 29.84375 235.671875 30.8125 C 229.496094 30.761719 223.316406 30.800781 217.140625 30.789062 C 216.082031 30.6875 214.988281 31.53125 214.964844 32.625 C 214.875 34.171875 214.960938 35.71875 214.933594 37.265625 C 221.457031 37.261719 227.980469 37.261719 234.507812 37.265625 C 234.539062 39.039062 234.523438 40.8125 234.527344 42.589844 C 227.996094 42.632812 221.460938 42.574219 214.933594 42.617188 C 214.960938 44.191406 214.871094 45.773438 214.96875 47.351562 C 215.023438 48.4375 216.085938 49.253906 217.148438 49.171875 C 223.328125 49.164062 229.507812 49.195312 235.683594 49.148438 C 235.761719 50.921875 235.660156 52.695312 235.777344 54.464844 C 229.117188 54.535156 222.457031 54.476562 215.792969 54.488281 C 212.304688 53.859375 209.464844 50.601562 209.613281 47.007812 C 209.605469 42.332031 209.609375 37.664062 209.617188 32.988281 C 209.609375 31.484375 210 29.96875 210.855469 28.714844 C 210.90625 28.644531 211.011719 28.5 211.0625 28.429688 Z M 211.0625 28.429688 "/>
    <path style=" stroke:none;fill-rule:nonzero;fill:rgb(84.705882%,84.313725%,84.313725%);fill-opacity:1;" d="M 235.714844 27.898438 C 237.308594 27.90625 238.898438 27.917969 240.492188 27.871094 C 240.578125 29.859375 240.5625 31.855469 240.507812 33.851562 C 239.761719 36.910156 240.617188 40.101562 240.089844 43.207031 C 239.523438 41.835938 239.78125 40.339844 239.753906 38.902344 C 239.1875 38.796875 238.625 38.695312 238.058594 38.609375 C 237.191406 38.921875 236.257812 38.867188 235.351562 38.847656 C 235.207031 40.078125 235.164062 41.320312 235.074219 42.558594 C 234.9375 42.566406 234.664062 42.578125 234.527344 42.589844 C 234.523438 40.8125 234.539062 39.039062 234.507812 37.265625 C 227.980469 37.261719 221.457031 37.261719 214.933594 37.265625 C 214.960938 35.71875 214.875 34.171875 214.964844 32.625 C 214.988281 31.53125 216.082031 30.6875 217.140625 30.789062 C 223.316406 30.800781 229.496094 30.761719 235.671875 30.8125 C 235.710938 29.84375 235.726562 28.871094 235.714844 27.898438 Z M 235.714844 27.898438 "/>
    <path style=" stroke:none;fill-rule:nonzero;fill:rgb(9.803922%,18.823529%,35.686275%);fill-opacity:1;" d="M 240.492188 27.871094 C 242.429688 27.847656 244.371094 27.71875 246.308594 27.894531 C 249.796875 33.261719 253.472656 38.511719 256.988281 43.859375 C 260.664062 38.65625 264.125 33.304688 267.710938 28.035156 L 267.804688 27.894531 C 269.738281 27.921875 271.675781 27.921875 273.609375 27.996094 C 273.507812 36.839844 273.59375 45.6875 273.582031 54.53125 C 271.835938 54.457031 270.082031 54.511719 268.332031 54.5 C 268.308594 48.5 268.367188 42.503906 268.3125 36.503906 C 265.203125 40.871094 262.34375 45.421875 259.3125 49.84375 C 258.660156 50.851562 257.3125 51.460938 256.164062 50.96875 C 254.871094 50.539062 254.363281 49.148438 253.617188 48.140625 C 250.976562 44.261719 248.46875 40.289062 245.746094 36.46875 C 245.6875 42.070312 245.734375 47.671875 245.722656 53.269531 C 245.726562 53.570312 245.738281 54.171875 245.742188 54.472656 C 244.003906 54.511719 242.265625 54.5 240.53125 54.488281 C 240.539062 47.605469 240.585938 40.726562 240.507812 33.851562 C 240.5625 31.855469 240.578125 29.859375 240.492188 27.871094 Z M 240.492188 27.871094 "/>
    <path style=" stroke:none;fill-rule:nonzero;fill:rgb(83.137255%,83.137255%,83.137255%);fill-opacity:1;" d="M 273.609375 27.996094 C 278.464844 28.3125 283.355469 28.214844 288.195312 28.761719 C 284.835938 36.878906 281.757812 45.113281 278.457031 53.257812 C 278.351562 52.832031 278.210938 52.386719 278.414062 51.96875 C 278.917969 50.488281 279.625 49.078125 280.082031 47.574219 C 279.816406 47.464844 279.554688 47.351562 279.296875 47.246094 C 277.941406 48.199219 276.214844 47.578125 274.75 48.191406 C 274.570312 47.890625 274.394531 47.585938 274.222656 47.285156 C 273.871094 49.738281 274.609375 52.3125 273.777344 54.675781 L 273.582031 54.53125 C 273.59375 45.6875 273.507812 36.839844 273.609375 27.996094 Z M 273.609375 27.996094 "/>
    <path style=" stroke:none;fill-rule:nonzero;fill:rgb(82.745098%,82.745098%,82.745098%);fill-opacity:1;" d="M 205.269531 28.773438 C 207.128906 28.816406 208.988281 28.671875 210.855469 28.714844 C 210 29.96875 209.609375 31.484375 209.617188 32.988281 C 209.609375 37.664062 209.605469 42.332031 209.613281 47.007812 C 209.464844 50.601562 212.304688 53.859375 215.792969 54.488281 C 215.609375 54.59375 215.246094 54.792969 215.0625 54.898438 C 213.054688 53.9375 210.996094 55.578125 208.988281 54.96875 C 208.8125 55.054688 208.640625 55.140625 208.46875 55.226562 C 208.238281 55.132812 208.011719 55.042969 207.792969 54.949219 C 206.128906 55.339844 204.410156 55.390625 202.742188 55.78125 C 201.613281 55.644531 200.476562 55.648438 199.367188 55.941406 C 199.347656 56.289062 199.332031 56.640625 199.320312 56.992188 C 198.832031 56.644531 198.371094 56.238281 197.804688 56.023438 C 197.3125 55.972656 196.875 56.261719 196.425781 56.402344 C 196.261719 56.339844 196.105469 56.277344 195.953125 56.214844 C 195.894531 56.351562 195.785156 56.628906 195.730469 56.765625 C 194.488281 56.367188 193.105469 56.246094 191.929688 56.910156 C 191.71875 56.796875 191.515625 56.683594 191.316406 56.570312 C 191.027344 56.785156 190.738281 57 190.453125 57.214844 C 188.839844 57.136719 187.195312 57.078125 185.605469 57.433594 C 184.292969 57.707031 182.917969 58.058594 181.59375 57.65625 C 180.183594 57.847656 178.792969 58.308594 177.355469 58.121094 C 177.285156 58.285156 177.140625 58.605469 177.070312 58.769531 C 175.007812 57.964844 172.910156 59.078125 170.8125 58.871094 C 168.917969 58.785156 167.101562 59.421875 165.242188 59.65625 C 164.132812 59.609375 163.03125 59.785156 161.988281 60.175781 C 161.640625 59.921875 161.300781 59.667969 160.957031 59.414062 C 160.984375 59.714844 161.011719 60.019531 161.042969 60.324219 C 160.78125 60.152344 160.515625 59.980469 160.261719 59.808594 C 159.777344 60.085938 159.296875 60.367188 158.820312 60.644531 C 158.550781 60.375 158.28125 60.101562 158.015625 59.835938 C 157.941406 59.992188 157.789062 60.304688 157.710938 60.460938 C 157.039062 60.558594 156.347656 60.601562 155.707031 60.324219 C 154.242188 61.296875 152.488281 60.382812 150.9375 61.003906 C 149.914062 61.347656 148.816406 60.90625 147.796875 61.265625 C 146.765625 61.589844 145.679688 61.488281 144.636719 61.742188 C 144.414062 61.542969 144.195312 61.347656 143.980469 61.148438 C 143.914062 61.351562 143.847656 61.5625 143.785156 61.769531 C 143.1875 61.175781 142.648438 62.023438 142.128906 62.28125 C 141.9375 61.945312 141.746094 61.613281 141.554688 61.28125 C 141.472656 61.484375 141.390625 61.6875 141.3125 61.890625 C 139.324219 61.785156 137.296875 63.074219 135.394531 62.101562 C 135.425781 62.335938 135.460938 62.574219 135.496094 62.808594 C 133.632812 62.390625 131.789062 63.105469 129.921875 62.988281 C 128.238281 62.890625 126.578125 63.191406 124.90625 63.261719 C 121.421875 63.304688 117.9375 63.183594 114.457031 63.328125 C 114.5 59.28125 114.34375 55.230469 114.503906 51.1875 C 114.878906 50.433594 115 49.601562 115.066406 48.773438 C 115.851562 48.636719 116.625 48.425781 117.371094 48.144531 C 118.125 48.242188 118.933594 48.488281 119.640625 48.058594 C 120.433594 47.644531 121.316406 47.394531 122.175781 47.777344 C 123.859375 46.601562 126.023438 47.277344 127.765625 46.332031 C 128.941406 46.398438 130.191406 46.660156 131.304688 46.140625 C 132.203125 45.71875 133.214844 45.875 134.171875 45.898438 C 134.367188 45.53125 134.566406 45.160156 134.765625 44.789062 C 134.816406 44.957031 134.917969 45.289062 134.964844 45.457031 C 135.460938 45.328125 135.964844 45.210938 136.464844 45.09375 C 136.636719 45.808594 136.804688 46.519531 136.976562 47.234375 C 137.113281 47.175781 137.394531 47.0625 137.535156 47.007812 C 138.566406 51.0625 142.28125 54.398438 146.535156 54.488281 C 152.011719 54.511719 157.488281 54.5 162.964844 54.492188 C 163.097656 54.492188 163.363281 54.488281 163.496094 54.488281 C 163.535156 53.15625 163.269531 51.566406 164.535156 50.699219 C 164.738281 50.871094 164.941406 51.039062 165.148438 51.210938 C 165.347656 50.933594 165.546875 50.65625 165.75 50.378906 C 167.03125 51.371094 166.429688 53.136719 166.601562 54.527344 C 166.738281 54.523438 167.011719 54.519531 167.144531 54.515625 C 168.925781 54.480469 170.707031 54.515625 172.492188 54.488281 C 172.453125 46.949219 172.480469 39.414062 172.46875 31.878906 C 173.910156 31.796875 175.351562 31.730469 176.792969 31.707031 C 176.800781 39.300781 176.789062 46.898438 176.78125 54.492188 C 178.570312 54.5 180.359375 54.511719 182.148438 54.480469 C 182.125 47.867188 182.113281 41.253906 182.148438 34.644531 C 187.910156 40.457031 193.5625 46.375 199.285156 52.214844 C 200.246094 53.105469 201.066406 54.53125 202.535156 54.511719 C 204.066406 54.617188 205.425781 53.179688 205.28125 51.652344 C 205.277344 44.042969 205.269531 36.433594 205.269531 28.824219 Z M 205.269531 28.773438 "/>
    <path style=" stroke:none;fill-rule:nonzero;fill:rgb(82.745098%,82.745098%,82.745098%);fill-opacity:1;" d="M 238.058594 38.609375 C 238.625 38.695312 239.1875 38.796875 239.753906 38.902344 C 239.78125 40.339844 239.523438 41.835938 240.089844 43.207031 C 240.207031 46.703125 240.261719 50.222656 240.003906 53.714844 C 239.707031 52.410156 239.796875 51.0625 239.761719 49.738281 C 238.804688 49.875 237.796875 50.292969 236.859375 49.886719 C 236.164062 51.335938 236.484375 53.039062 235.777344 54.464844 C 235.660156 52.695312 235.761719 50.921875 235.683594 49.148438 C 229.507812 49.195312 223.328125 49.164062 217.148438 49.171875 C 216.085938 49.253906 215.023438 48.4375 214.96875 47.351562 C 214.871094 45.773438 214.960938 44.191406 214.933594 42.617188 C 221.460938 42.574219 227.996094 42.632812 234.527344 42.589844 C 234.664062 42.578125 234.9375 42.566406 235.074219 42.558594 C 235.164062 41.320312 235.207031 40.078125 235.351562 38.847656 C 236.257812 38.867188 237.191406 38.921875 238.058594 38.609375 Z M 238.058594 38.609375 "/>
    <path style=" stroke:none;fill-rule:nonzero;fill:rgb(9.411765%,18.431373%,34.901961%);fill-opacity:1;" d="M 288.195312 28.761719 L 288.300781 28.546875 C 292.148438 28.804688 296.003906 28.867188 299.859375 28.921875 L 299.9375 29.097656 C 302.269531 34.796875 304.464844 40.550781 306.753906 46.261719 C 307.804688 49.015625 308.933594 51.742188 309.976562 54.5 C 308.039062 54.488281 306.101562 54.535156 304.164062 54.460938 C 303.386719 52.304688 302.5 50.183594 301.699219 48.03125 C 299.28125 47.917969 296.863281 47.976562 294.449219 48.015625 C 291.714844 47.992188 288.972656 47.886719 286.242188 48.046875 C 285.488281 50.214844 284.589844 52.328125 283.792969 54.484375 C 281.867188 54.507812 279.9375 54.5 278.011719 54.488281 C 278.152344 54.078125 278.300781 53.664062 278.457031 53.257812 C 281.757812 45.113281 284.835938 36.878906 288.195312 28.761719 M 293.199219 30.808594 C 291.492188 34.738281 289.921875 38.734375 288.410156 42.738281 C 292.144531 42.769531 295.882812 42.738281 299.621094 42.757812 C 298.324219 39.382812 296.914062 36.058594 295.621094 32.691406 C 295.375 32.035156 295.074219 31.40625 294.742188 30.792969 C 294.222656 30.800781 293.710938 30.808594 293.199219 30.808594 Z M 293.199219 30.808594 "/>
    <path style=" stroke:none;fill-rule:nonzero;fill:rgb(10.588235%,19.607843%,36.862745%);fill-opacity:1;" d="M 199.972656 29.078125 C 201.734375 28.980469 203.5 28.851562 205.269531 28.824219 C 205.269531 36.433594 205.277344 44.042969 205.28125 51.652344 C 205.425781 53.179688 204.066406 54.617188 202.535156 54.511719 C 201.066406 54.53125 200.246094 53.105469 199.285156 52.214844 C 193.5625 46.375 187.910156 40.457031 182.148438 34.644531 C 182.113281 41.253906 182.125 47.867188 182.148438 54.480469 C 180.359375 54.511719 178.570312 54.5 176.78125 54.492188 C 176.789062 46.898438 176.800781 39.300781 176.792969 31.707031 L 176.792969 31.488281 C 179.738281 31.179688 182.675781 30.820312 185.621094 30.511719 C 185.691406 30.578125 185.828125 30.71875 185.898438 30.789062 C 190.550781 35.664062 195.300781 40.441406 199.953125 45.308594 C 199.984375 39.964844 199.957031 34.625 199.972656 29.28125 Z M 199.972656 29.078125 "/>
    <path style=" stroke:none;fill-rule:nonzero;fill:rgb(82.352941%,82.352941%,82.352941%);fill-opacity:1;" d="M 299.9375 29.097656 C 302.445312 29.003906 304.949219 29.269531 307.453125 29.308594 C 317.027344 29.578125 326.601562 29.96875 336.15625 30.691406 C 336.195312 35.734375 336.203125 40.777344 336.132812 45.820312 C 335.671875 44.789062 335.464844 43.679688 335.167969 42.597656 C 334.207031 42.308594 333.183594 42.347656 332.195312 42.394531 C 331.984375 42.175781 331.789062 41.960938 331.589844 41.746094 C 331.5 41.9375 331.324219 42.3125 331.238281 42.503906 C 330.183594 43.070312 328.992188 43.167969 327.90625 42.636719 C 327.609375 42.808594 327.320312 42.980469 327.035156 43.152344 C 325.53125 42.453125 324.015625 43.511719 322.46875 43.453125 C 321.9375 43.613281 321.628906 43.15625 321.324219 42.820312 C 320.984375 43.261719 320.707031 43.851562 320.109375 43.980469 C 319.785156 43.738281 319.492188 43.464844 319.195312 43.199219 C 318.96875 43.5625 318.742188 43.921875 318.519531 44.285156 C 318.070312 44.132812 317.636719 43.941406 317.171875 43.855469 C 315.324219 44.277344 313.386719 43.945312 311.527344 44.398438 C 311.203125 44.289062 310.894531 44.171875 310.582031 44.0625 C 310.519531 44.261719 310.386719 44.65625 310.324219 44.851562 C 310.132812 44.695312 309.949219 44.535156 309.765625 44.378906 C 309.53125 44.558594 309.304688 44.738281 309.078125 44.914062 C 308.820312 44.773438 308.566406 44.632812 308.316406 44.496094 C 308.109375 44.71875 307.90625 44.945312 307.714844 45.171875 C 307.457031 45.019531 307.203125 44.875 306.957031 44.722656 C 306.898438 45.238281 306.832031 45.753906 306.753906 46.261719 C 304.464844 40.550781 302.269531 34.796875 299.9375 29.097656 Z M 299.9375 29.097656 "/>
    <path style=" stroke:none;fill-rule:nonzero;fill:rgb(85.490196%,85.098039%,85.098039%);fill-opacity:1;" d="M 190.851562 29.984375 C 193.886719 29.71875 196.921875 29.328125 199.972656 29.28125 C 199.957031 34.625 199.984375 39.964844 199.953125 45.308594 C 195.300781 40.441406 190.550781 35.664062 185.898438 30.789062 C 187.480469 30.1875 189.195312 30.195312 190.851562 29.984375 Z M 190.851562 29.984375 "/>
    <path style=" stroke:none;fill-rule:nonzero;fill:rgb(85.490196%,85.098039%,85.098039%);fill-opacity:1;" d="M 142.925781 34.535156 C 150.996094 33.699219 159.085938 33.117188 167.164062 32.375 C 167.15625 39.757812 167.148438 47.136719 167.144531 54.515625 C 167.011719 54.519531 166.738281 54.523438 166.601562 54.527344 C 166.429688 53.136719 167.03125 51.371094 165.75 50.378906 C 165.546875 50.65625 165.347656 50.933594 165.148438 51.210938 C 164.941406 51.039062 164.738281 50.871094 164.535156 50.699219 C 163.269531 51.566406 163.535156 53.15625 163.496094 54.488281 C 163.363281 54.488281 163.097656 54.492188 162.964844 54.492188 C 162.960938 52.71875 162.957031 50.945312 162.960938 49.171875 C 157.617188 49.148438 152.265625 49.195312 146.921875 49.15625 C 144.59375 49.15625 142.527344 46.988281 142.628906 44.671875 C 142.640625 41.261719 142.585938 37.847656 142.652344 34.4375 C 142.703125 34.175781 142.761719 33.921875 142.832031 33.671875 C 142.855469 33.886719 142.902344 34.320312 142.925781 34.535156 Z M 142.925781 34.535156 "/>
    <path style=" stroke:none;fill-rule:nonzero;fill:rgb(82.352941%,82.745098%,82.352941%);fill-opacity:1;" d="M 293.199219 30.808594 C 293.710938 30.808594 294.222656 30.800781 294.742188 30.792969 C 295.074219 31.40625 295.375 32.035156 295.621094 32.691406 C 296.914062 36.058594 298.324219 39.382812 299.621094 42.757812 C 295.882812 42.738281 292.144531 42.769531 288.410156 42.738281 C 289.921875 38.734375 291.492188 34.738281 293.199219 30.808594 Z M 293.199219 30.808594 "/>
    <path style=" stroke:none;fill-rule:nonzero;fill:rgb(53.333333%,53.333333%,53.333333%);fill-opacity:1;" d="M 336.15625 30.691406 C 337.488281 30.75 338.824219 30.851562 340.15625 30.785156 L 340.367188 30.761719 L 340.363281 30.886719 C 340.289062 41.941406 340.351562 53 340.316406 64.058594 C 339.066406 63.804688 337.789062 63.703125 336.527344 63.558594 C 336.433594 63.675781 336.253906 63.921875 336.160156 64.042969 L 336.160156 63.738281 C 336.109375 57.765625 336.234375 51.792969 336.132812 45.820312 C 336.203125 40.777344 336.195312 35.734375 336.15625 30.691406 Z M 336.15625 30.691406 "/>
    <path style=" stroke:none;fill-rule:nonzero;fill:rgb(10.980392%,20%,37.254902%);fill-opacity:1;" d="M 167.164062 32.375 C 168.929688 32.191406 170.703125 32.058594 172.46875 31.878906 C 172.480469 39.414062 172.453125 46.949219 172.492188 54.488281 C 170.707031 54.515625 168.925781 54.480469 167.144531 54.515625 C 167.148438 47.136719 167.15625 39.757812 167.164062 32.375 Z M 167.164062 32.375 "/>
    <path style=" stroke:none;fill-rule:nonzero;fill:rgb(40.784314%,49.803922%,71.764706%);fill-opacity:1;" d="M 64.65625 38.703125 C 66.226562 37.105469 67.710938 35.429688 69.273438 33.828125 C 71.601562 37.296875 73.917969 40.769531 76.222656 44.253906 C 73.421875 45.140625 70.445312 45.246094 67.65625 46.164062 C 66.371094 44.078125 64.847656 42.140625 63.648438 40.011719 C 63.832031 39.480469 64.304688 39.117188 64.65625 38.703125 Z M 64.65625 38.703125 "/>
    <path style=" stroke:none;fill-rule:nonzero;fill:rgb(40.784314%,49.803922%,71.764706%);fill-opacity:1;" d="M 54.222656 39.488281 C 56.132812 42.066406 57.882812 44.765625 59.722656 47.398438 C 57.902344 47.871094 56.035156 48.125 54.183594 48.429688 C 54.207031 45.445312 54.144531 42.464844 54.222656 39.488281 Z M 54.222656 39.488281 "/>
    <path style=" stroke:none;fill-rule:nonzero;fill:rgb(80.392157%,80.392157%,80.784314%);fill-opacity:1;" d="M 240.089844 43.207031 C 240.617188 40.101562 239.761719 36.910156 240.507812 33.851562 C 240.585938 40.726562 240.539062 47.605469 240.53125 54.488281 C 242.265625 54.5 244.003906 54.511719 245.742188 54.472656 C 245.738281 54.171875 245.726562 53.570312 245.722656 53.269531 C 245.949219 53.609375 246.183594 53.949219 246.417969 54.289062 C 246.457031 53.273438 246.5 52.261719 246.542969 51.246094 C 247.15625 50.972656 247.773438 50.5 248.480469 50.648438 C 250.128906 51.058594 251.6875 49.742188 253.320312 50.398438 C 253.464844 50.308594 253.753906 50.140625 253.898438 50.054688 C 254.824219 50.847656 255.792969 51.898438 257.140625 51.734375 C 258.609375 51.792969 259.335938 50.324219 260.484375 49.714844 C 261.601562 49.46875 262.746094 49.59375 263.878906 49.5625 C 263.914062 49.457031 263.976562 49.242188 264.011719 49.140625 C 265.144531 49.308594 266.34375 49.328125 267.359375 48.710938 C 268.230469 50.503906 267.472656 52.597656 267.910156 54.5 C 268.015625 54.5 268.226562 54.5 268.332031 54.5 C 270.082031 54.511719 271.835938 54.457031 273.582031 54.53125 L 273.777344 54.675781 C 274.609375 52.3125 273.871094 49.738281 274.222656 47.285156 C 274.394531 47.585938 274.570312 47.890625 274.75 48.191406 C 276.214844 47.578125 277.941406 48.199219 279.296875 47.246094 C 279.554688 47.351562 279.816406 47.464844 280.082031 47.574219 C 279.625 49.078125 278.917969 50.488281 278.414062 51.96875 C 278.210938 52.386719 278.351562 52.832031 278.457031 53.257812 C 278.300781 53.664062 278.152344 54.078125 278.011719 54.488281 C 279.9375 54.5 281.867188 54.507812 283.792969 54.484375 C 284.589844 52.328125 285.488281 50.214844 286.242188 48.046875 C 288.972656 47.886719 291.714844 47.992188 294.449219 48.015625 C 296.863281 47.976562 299.28125 47.917969 301.699219 48.03125 C 302.5 50.183594 303.386719 52.304688 304.164062 54.460938 C 306.101562 54.535156 308.039062 54.488281 309.976562 54.5 C 308.933594 51.742188 307.804688 49.015625 306.753906 46.261719 C 306.832031 45.753906 306.898438 45.238281 306.957031 44.722656 C 307.203125 44.875 307.457031 45.019531 307.714844 45.171875 C 307.90625 44.945312 308.109375 44.71875 308.316406 44.496094 C 308.566406 44.632812 308.820312 44.773438 309.078125 44.914062 C 309.304688 44.738281 309.53125 44.558594 309.765625 44.378906 C 309.949219 44.535156 310.132812 44.695312 310.324219 44.851562 C 310.386719 44.65625 310.519531 44.261719 310.582031 44.0625 C 310.894531 44.171875 311.203125 44.289062 311.527344 44.398438 C 313.386719 43.945312 315.324219 44.277344 317.171875 43.855469 C 317.636719 43.941406 318.070312 44.132812 318.519531 44.285156 C 318.742188 43.921875 318.96875 43.5625 319.195312 43.199219 C 319.492188 43.464844 319.785156 43.738281 320.109375 43.980469 C 320.707031 43.851562 320.984375 43.261719 321.324219 42.820312 C 321.628906 43.15625 321.9375 43.613281 322.46875 43.453125 C 324.015625 43.511719 325.53125 42.453125 327.035156 43.152344 C 327.320312 42.980469 327.609375 42.808594 327.90625 42.636719 C 328.992188 43.167969 330.183594 43.070312 331.238281 42.503906 C 331.324219 42.3125 331.5 41.9375 331.589844 41.746094 C 331.789062 41.960938 331.984375 42.175781 332.195312 42.394531 C 333.183594 42.347656 334.207031 42.308594 335.167969 42.597656 C 335.464844 43.679688 335.671875 44.789062 336.132812 45.820312 C 336.234375 51.792969 336.109375 57.765625 336.160156 63.738281 C 263.855469 63.808594 191.542969 63.773438 119.230469 63.773438 C 117.632812 63.761719 116.027344 63.855469 114.4375 63.628906 L 114.457031 63.328125 C 117.9375 63.183594 121.421875 63.304688 124.90625 63.261719 C 126.578125 63.191406 128.238281 62.890625 129.921875 62.988281 C 131.789062 63.105469 133.632812 62.390625 135.496094 62.808594 C 135.460938 62.574219 135.425781 62.335938 135.394531 62.101562 C 137.296875 63.074219 139.324219 61.785156 141.3125 61.890625 C 141.390625 61.6875 141.472656 61.484375 141.554688 61.28125 C 141.746094 61.613281 141.9375 61.945312 142.128906 62.28125 C 142.648438 62.023438 143.1875 61.175781 143.785156 61.769531 C 143.847656 61.5625 143.914062 61.351562 143.980469 61.148438 C 144.195312 61.347656 144.414062 61.542969 144.636719 61.742188 C 145.679688 61.488281 146.765625 61.589844 147.796875 61.265625 C 148.816406 60.90625 149.914062 61.347656 150.9375 61.003906 C 152.488281 60.382812 154.242188 61.296875 155.707031 60.324219 C 156.347656 60.601562 157.039062 60.558594 157.710938 60.460938 C 157.789062 60.304688 157.941406 59.992188 158.015625 59.835938 C 158.28125 60.101562 158.550781 60.375 158.820312 60.644531 C 159.296875 60.367188 159.777344 60.085938 160.261719 59.808594 C 160.515625 59.980469 160.78125 60.152344 161.042969 60.324219 C 161.011719 60.019531 160.984375 59.714844 160.957031 59.414062 C 161.300781 59.667969 161.640625 59.921875 161.988281 60.175781 C 163.03125 59.785156 164.132812 59.609375 165.242188 59.65625 C 167.101562 59.421875 168.917969 58.785156 170.8125 58.871094 C 172.910156 59.078125 175.007812 57.964844 177.070312 58.769531 C 177.140625 58.605469 177.285156 58.285156 177.355469 58.121094 C 178.792969 58.308594 180.183594 57.847656 181.59375 57.65625 C 182.917969 58.058594 184.292969 57.707031 185.605469 57.433594 C 187.195312 57.078125 188.839844 57.136719 190.453125 57.214844 C 190.738281 57 191.027344 56.785156 191.316406 56.570312 C 191.515625 56.683594 191.71875 56.796875 191.929688 56.910156 C 193.105469 56.246094 194.488281 56.367188 195.730469 56.765625 C 195.785156 56.628906 195.894531 56.351562 195.953125 56.214844 C 196.105469 56.277344 196.261719 56.339844 196.425781 56.402344 C 196.875 56.261719 197.3125 55.972656 197.804688 56.023438 C 198.371094 56.238281 198.832031 56.644531 199.320312 56.992188 C 199.332031 56.640625 199.347656 56.289062 199.367188 55.941406 C 200.476562 55.648438 201.613281 55.644531 202.742188 55.78125 C 204.410156 55.390625 206.128906 55.339844 207.792969 54.949219 C 208.011719 55.042969 208.238281 55.132812 208.46875 55.226562 C 208.640625 55.140625 208.8125 55.054688 208.988281 54.96875 C 210.996094 55.578125 213.054688 53.9375 215.0625 54.898438 C 215.246094 54.792969 215.609375 54.59375 215.792969 54.488281 C 222.457031 54.476562 229.117188 54.535156 235.777344 54.464844 C 236.484375 53.039062 236.164062 51.335938 236.859375 49.886719 C 237.796875 50.292969 238.804688 49.875 239.761719 49.738281 C 239.796875 51.0625 239.707031 52.410156 240.003906 53.714844 C 240.261719 50.222656 240.207031 46.703125 240.089844 43.207031 Z M 240.089844 43.207031 "/>
    <path style=" stroke:none;fill-rule:nonzero;fill:rgb(10.980392%,20.392157%,37.647059%);fill-opacity:1;" d="M 137.300781 35.035156 C 139.085938 34.847656 140.863281 34.609375 142.652344 34.4375 C 142.585938 37.847656 142.640625 41.261719 142.628906 44.671875 C 142.527344 46.988281 144.59375 49.15625 146.921875 49.15625 C 152.265625 49.195312 157.617188 49.148438 162.960938 49.171875 C 162.957031 50.945312 162.960938 52.71875 162.964844 54.492188 C 157.488281 54.5 152.011719 54.511719 146.535156 54.488281 C 142.28125 54.398438 138.566406 51.0625 137.535156 47.007812 C 137.363281 46.238281 137.3125 45.445312 137.308594 44.664062 C 137.296875 41.453125 137.332031 38.242188 137.300781 35.035156 Z M 137.300781 35.035156 "/>
    <path style=" stroke:none;fill-rule:nonzero;fill:rgb(85.882353%,85.882353%,86.27451%);fill-opacity:1;" d="M 114.460938 38.023438 C 122.03125 36.71875 129.683594 35.996094 137.300781 35.035156 C 137.332031 38.242188 137.296875 41.453125 137.308594 44.664062 C 137.3125 45.445312 137.363281 46.238281 137.535156 47.007812 C 137.394531 47.0625 137.113281 47.175781 136.976562 47.234375 C 136.804688 46.519531 136.636719 45.808594 136.464844 45.09375 C 135.964844 45.210938 135.460938 45.328125 134.964844 45.457031 C 134.917969 45.289062 134.816406 44.957031 134.765625 44.789062 C 134.566406 45.160156 134.367188 45.53125 134.171875 45.898438 C 133.214844 45.875 132.203125 45.71875 131.304688 46.140625 C 130.191406 46.660156 128.941406 46.398438 127.765625 46.332031 C 126.023438 47.277344 123.859375 46.601562 122.175781 47.777344 C 121.316406 47.394531 120.433594 47.644531 119.640625 48.058594 C 118.933594 48.488281 118.125 48.242188 117.371094 48.144531 C 116.625 48.425781 115.851562 48.636719 115.066406 48.773438 C 115 49.601562 114.878906 50.433594 114.503906 51.1875 C 114.414062 46.800781 114.433594 42.414062 114.460938 38.023438 Z M 114.460938 38.023438 "/>
    <path style=" stroke:none;fill-rule:nonzero;fill:rgb(81.960784%,81.960784%,81.960784%);fill-opacity:1;" d="M 245.746094 36.46875 C 248.46875 40.289062 250.976562 44.261719 253.617188 48.140625 C 254.363281 49.148438 254.871094 50.539062 256.164062 50.96875 C 257.3125 51.460938 258.660156 50.851562 259.3125 49.84375 C 262.34375 45.421875 265.203125 40.871094 268.3125 36.503906 C 268.367188 42.503906 268.308594 48.5 268.332031 54.5 C 268.226562 54.5 268.015625 54.5 267.910156 54.5 C 267.472656 52.597656 268.230469 50.503906 267.359375 48.710938 C 266.34375 49.328125 265.144531 49.308594 264.011719 49.140625 C 263.976562 49.242188 263.914062 49.457031 263.878906 49.5625 C 262.746094 49.59375 261.601562 49.46875 260.484375 49.714844 C 259.335938 50.324219 258.609375 51.792969 257.140625 51.734375 C 255.792969 51.898438 254.824219 50.847656 253.898438 50.054688 C 253.753906 50.140625 253.464844 50.308594 253.320312 50.398438 C 251.6875 49.742188 250.128906 51.058594 248.480469 50.648438 C 247.773438 50.5 247.15625 50.972656 246.542969 51.246094 C 246.5 52.261719 246.457031 53.273438 246.417969 54.289062 C 246.183594 53.949219 245.949219 53.609375 245.722656 53.269531 C 245.734375 47.671875 245.6875 42.070312 245.746094 36.46875 Z M 245.746094 36.46875 "/>
    <path style=" stroke:none;fill-rule:nonzero;fill:rgb(57.647059%,57.647059%,57.647059%);fill-opacity:1;" d="M 109.703125 38.691406 C 111.28125 38.421875 112.867188 38.175781 114.460938 38.023438 C 114.433594 42.414062 114.414062 46.800781 114.503906 51.1875 C 114.34375 55.230469 114.5 59.28125 114.457031 63.328125 L 114.4375 63.628906 C 113.007812 63.730469 111.574219 63.746094 110.152344 63.875 C 110.046875 63.980469 109.832031 64.191406 109.726562 64.296875 C 109.722656 64.011719 109.722656 63.726562 109.726562 63.441406 C 109.714844 55.191406 109.710938 46.941406 109.703125 38.691406 Z M 109.703125 38.691406 "/>
    <path style=" stroke:none;fill-rule:nonzero;fill:rgb(11.764706%,18.039216%,39.215686%);fill-opacity:1;" d="M 92.726562 41.296875 C 98.390625 40.476562 104.023438 39.4375 109.703125 38.691406 C 109.710938 46.941406 109.714844 55.191406 109.726562 63.441406 C 109.027344 63.652344 108.304688 63.835938 107.570312 63.816406 C 99.460938 63.75 91.351562 63.828125 83.238281 63.792969 C 83.007812 63.511719 82.777344 63.234375 82.542969 62.953125 C 85.933594 55.734375 89.292969 48.496094 92.726562 41.296875 Z M 92.726562 41.296875 "/>
    <path style=" stroke:none;fill-rule:nonzero;fill:rgb(29.411765%,36.470588%,54.901961%);fill-opacity:1;" d="M 83.820312 42.808594 C 83.949219 42.9375 84.210938 43.191406 84.34375 43.324219 L 84.082031 43.363281 C 84.015625 43.222656 83.886719 42.945312 83.820312 42.808594 Z M 83.820312 42.808594 "/>
    <path style=" stroke:none;fill-rule:nonzero;fill:rgb(11.764706%,18.039216%,40%);fill-opacity:1;" d="M 67.65625 46.164062 C 70.445312 45.246094 73.421875 45.140625 76.222656 44.253906 C 77.574219 46.191406 78.828125 48.191406 80.179688 50.132812 C 80.363281 50.464844 80.742188 50.847656 80.503906 51.253906 C 78.816406 54.761719 77.070312 58.246094 75.378906 61.753906 C 74.902344 62.539062 75.273438 63.488281 76.117188 63.808594 C 75.703125 64.175781 75.164062 64.289062 74.625 64.261719 C 54.085938 64.25 33.542969 64.25 13.003906 64.238281 C 11.542969 64.242188 10.175781 63.65625 8.910156 62.984375 C 10.621094 61.492188 12.5 60.179688 14.53125 59.160156 C 18.765625 56.972656 23.207031 55.195312 27.738281 53.738281 C 31.808594 53.269531 36.140625 54.371094 40.007812 52.636719 C 41.203125 52.15625 42.1875 51.28125 43.035156 50.324219 C 44.105469 50.195312 45.171875 50.035156 46.238281 49.863281 C 46.324219 51.011719 45.996094 52.292969 46.578125 53.347656 C 47.46875 53.878906 48.613281 53.546875 49.609375 53.644531 C 50.890625 53.558594 52.488281 53.949219 53.4375 52.835938 C 54.609375 51.671875 54.0625 49.894531 54.183594 48.429688 C 56.035156 48.125 57.902344 47.871094 59.722656 47.398438 C 60.910156 49.050781 62.015625 50.757812 63.191406 52.417969 C 63.625 52.972656 64.09375 53.703125 64.90625 53.613281 C 66.808594 53.648438 68.71875 53.679688 70.617188 53.59375 C 71.34375 53.613281 72.011719 52.710938 71.554688 52.058594 C 70.339844 50.039062 68.933594 48.144531 67.65625 46.164062 Z M 67.65625 46.164062 "/>
    <path style=" stroke:none;fill-rule:nonzero;fill:rgb(9.411765%,12.941176%,25.490196%);fill-opacity:1;" d="M 8.632812 63.222656 L 8.910156 62.984375 C 10.175781 63.65625 11.542969 64.242188 13.003906 64.238281 C 33.542969 64.25 54.085938 64.25 74.625 64.261719 C 75.164062 64.289062 75.703125 64.175781 76.117188 63.808594 C 77.832031 63.714844 79.546875 63.847656 81.261719 63.738281 C 81.808594 63.738281 82.261719 63.402344 82.542969 62.953125 C 82.777344 63.234375 83.007812 63.511719 83.238281 63.792969 C 91.351562 63.828125 99.460938 63.75 107.570312 63.816406 C 108.304688 63.835938 109.027344 63.652344 109.726562 63.441406 C 109.722656 63.726562 109.722656 64.011719 109.726562 64.296875 C 109.730469 64.832031 109.773438 65.371094 109.828125 65.902344 C 109.867188 66.171875 109.945312 66.714844 109.984375 66.988281 L 109.878906 67.433594 C 105.78125 67.699219 101.683594 67.171875 97.585938 67.261719 C 90.378906 67.308594 83.167969 67.21875 75.964844 67.390625 C 66.195312 67.441406 56.421875 67.445312 46.652344 67.589844 C 37.660156 67.847656 28.65625 67.699219 19.65625 67.757812 C 17.3125 67.726562 14.941406 67.859375 12.625 67.421875 C 13.101562 67.375 13.578125 67.324219 14.050781 67.261719 C 12.933594 66.601562 11.746094 66.054688 10.703125 65.277344 C 10.046875 64.792969 9.265625 64.347656 8.425781 64.59375 C 8.308594 64.289062 8.203125 63.984375 8.101562 63.675781 C 8.234375 63.5625 8.5 63.335938 8.632812 63.222656 Z M 8.632812 63.222656 "/>
    <path style=" stroke:none;fill-rule:nonzero;fill:rgb(42.745098%,42.745098%,42.745098%);fill-opacity:1;" d="M 110.152344 63.875 C 111.574219 63.746094 113.007812 63.730469 114.4375 63.628906 C 114.453125 64.179688 114.460938 64.734375 114.484375 65.285156 C 114.5 65.441406 114.523438 65.757812 114.53125 65.914062 C 112.964844 65.980469 111.398438 65.789062 109.828125 65.902344 C 109.773438 65.371094 109.730469 64.832031 109.726562 64.296875 C 109.832031 64.191406 110.046875 63.980469 110.152344 63.875 Z M 110.152344 63.875 "/>
    <path style=" stroke:none;fill-rule:nonzero;fill:rgb(67.843137%,67.843137%,67.843137%);fill-opacity:1;" d="M 114.4375 63.628906 C 116.027344 63.855469 117.632812 63.761719 119.230469 63.773438 C 191.542969 63.773438 263.855469 63.808594 336.160156 63.738281 L 336.160156 64.042969 C 336.15625 64.304688 336.136719 64.820312 336.132812 65.078125 C 334.710938 65.539062 333.203125 65.398438 331.738281 65.394531 C 270.671875 65.40625 209.605469 65.335938 148.546875 65.273438 C 146.101562 65.214844 143.660156 65.070312 141.21875 65.292969 C 137.671875 65.226562 134.121094 65.144531 130.574219 65.140625 C 125.21875 65.507812 119.835938 64.84375 114.484375 65.285156 C 114.460938 64.734375 114.453125 64.179688 114.4375 63.628906 Z M 114.4375 63.628906 "/>
    <path style=" stroke:none;fill-rule:nonzero;fill:rgb(9.019608%,10.196078%,16.078431%);fill-opacity:1;" d="M 8.425781 64.59375 C 9.265625 64.347656 10.046875 64.792969 10.703125 65.277344 C 11.746094 66.054688 12.933594 66.601562 14.050781 67.261719 C 13.578125 67.324219 13.101562 67.375 12.625 67.421875 C 11.15625 67.054688 9.917969 66.140625 8.761719 65.203125 Z M 8.425781 64.59375 "/>
    <path style=" stroke:none;fill-rule:nonzero;fill:rgb(58.823529%,59.215686%,59.215686%);fill-opacity:1;" d="M 114.484375 65.285156 C 119.835938 64.84375 125.21875 65.507812 130.574219 65.140625 C 134.121094 65.144531 137.671875 65.226562 141.21875 65.292969 C 143.660156 65.070312 146.101562 65.214844 148.546875 65.273438 C 209.605469 65.335938 270.671875 65.40625 331.738281 65.394531 C 333.203125 65.398438 334.710938 65.539062 336.132812 65.078125 C 336.054688 65.933594 335.941406 66.785156 335.839844 67.636719 C 262.753906 67.613281 189.671875 67.574219 116.585938 67.558594 C 115.988281 67.5625 115.386719 67.578125 114.792969 67.601562 C 114.695312 67.039062 114.601562 66.476562 114.53125 65.914062 C 114.523438 65.757812 114.5 65.441406 114.484375 65.285156 Z M 114.484375 65.285156 "/>
    <path style=" stroke:none;fill-rule:nonzero;fill:rgb(36.862745%,37.254902%,36.862745%);fill-opacity:1;" d="M 109.828125 65.902344 C 111.398438 65.789062 112.964844 65.980469 114.53125 65.914062 C 114.601562 66.476562 114.695312 67.039062 114.792969 67.601562 C 113.28125 67.671875 111.773438 67.671875 110.265625 67.632812 C 110.195312 67.46875 110.054688 67.148438 109.984375 66.988281 C 109.945312 66.714844 109.867188 66.171875 109.828125 65.902344 Z M 109.828125 65.902344 "/>
    <path style=" stroke:none;fill-rule:nonzero;fill:rgb(13.333333%,13.333333%,13.333333%);fill-opacity:0.168627;" d="M 7.429688 66.347656 C 7.765625 66.601562 8.070312 66.894531 8.34375 67.214844 C 7.839844 67.730469 6.933594 66.875 7.429688 66.347656 Z M 7.429688 66.347656 "/>
    <path style=" stroke:none;fill-rule:nonzero;fill:rgb(25.098039%,24.313725%,24.313725%);fill-opacity:1;" d="M 109.984375 66.988281 C 110.054688 67.148438 110.195312 67.46875 110.265625 67.632812 C 111.773438 67.671875 113.28125 67.671875 114.792969 67.601562 C 115.386719 67.578125 115.988281 67.5625 116.585938 67.558594 C 189.671875 67.574219 262.753906 67.613281 335.839844 67.636719 C 337.238281 67.660156 338.636719 67.605469 340.03125 67.53125 C 357.632812 67.527344 375.234375 67.441406 392.835938 67.539062 C 390.480469 67.914062 388.089844 67.839844 385.714844 67.902344 C 370.390625 68.003906 355.070312 67.875 339.75 67.988281 C 284.125 67.96875 228.5 67.988281 172.875 67.988281 C 154.335938 67.898438 135.789062 68.039062 117.246094 67.988281 C 114.480469 68.042969 111.707031 68.113281 108.941406 67.914062 C 109.257812 67.753906 109.570312 67.601562 109.878906 67.433594 Z M 109.984375 66.988281 "/>
    <path style=" stroke:none;fill-rule:nonzero;fill:rgb(54.509804%,52.941176%,54.117647%);fill-opacity:1;" d="M 18.523438 68.898438 C 19.613281 68.425781 20.820312 68.609375 21.972656 68.582031 C 31.078125 68.605469 40.1875 68.574219 49.292969 68.625 C 52.625 68.785156 55.964844 68.765625 59.296875 68.703125 C 61.957031 68.554688 64.609375 68.796875 67.269531 68.609375 C 70.933594 68.808594 74.597656 68.535156 78.265625 68.597656 C 165.304688 68.597656 252.347656 68.5625 339.390625 68.605469 C 339.390625 68.800781 339.394531 69.191406 339.398438 69.382812 C 253.246094 69.414062 167.089844 69.382812 80.941406 69.398438 C 60.75 69.035156 40.558594 69.625 20.367188 69.253906 C 19.746094 69.175781 19.132812 69.039062 18.523438 68.898438 Z M 18.523438 68.898438 "/>
    <path style=" stroke:none;fill-rule:nonzero;fill:rgb(61.568627%,59.607843%,60.784314%);fill-opacity:1;" d="M 339.390625 68.605469 C 353.496094 68.601562 367.605469 68.605469 381.710938 68.601562 C 389.417969 68.648438 397.128906 68.519531 404.832031 68.671875 C 406.617188 69.390625 408.59375 68.847656 410.453125 69.246094 C 406.203125 69.417969 401.949219 69.339844 397.695312 69.386719 C 378.265625 69.394531 358.832031 69.402344 339.398438 69.382812 C 339.394531 69.191406 339.390625 68.800781 339.390625 68.605469 Z M 339.390625 68.605469 "/>
    <path style=" stroke:none;fill-rule:nonzero;fill:rgb(67.843137%,66.27451%,67.45098%);fill-opacity:1;" d="M 404.832031 68.671875 C 407.78125 68.574219 410.730469 68.636719 413.679688 68.601562 C 414.890625 68.605469 416.167969 68.414062 417.296875 68.984375 C 415.015625 69.125 412.738281 69.261719 410.453125 69.246094 C 408.59375 68.847656 406.617188 69.390625 404.832031 68.671875 Z M 404.832031 68.671875 "/>
    <path style=" stroke:none;fill-rule:nonzero;fill:rgb(27.843137%,27.45098%,27.843137%);fill-opacity:0.568627;" d="M 13.777344 69.351562 C 14.5625 69.261719 15.453125 69.117188 16.101562 69.699219 C 15.398438 69.667969 14.195312 69.960938 13.777344 69.351562 Z M 13.777344 69.351562 "/>
  </g>
</svg>