<?xml version="1.0" encoding="UTF-8" standalone="yes"?>
<svg xmlns="http://www.w3.org/2000/svg" xmlns:xlink="http://www.w3.org/1999/xlink" width="373.3333333333333px" height="106.66666666666666px" viewBox="0 0 280 80" version="1.1">
  <g id="surface1">
    <path style=" stroke:none;fill-rule:nonzero;fill:rgb(14.117647%,64.313725%,67.843137%);fill-opacity:1;" d="M 40.214844 9.988281 C 43.878906 10.011719 47.542969 9.996094 51.207031 10 C 51.078125 13.089844 51.1875 16.175781 51.144531 19.269531 C 47.46875 19.253906 43.789062 19.289062 40.109375 19.246094 C 40.171875 16.160156 39.996094 13.066406 40.214844 9.988281 Z M 40.214844 9.988281 "/>
    <path style=" stroke:none;fill-rule:nonzero;fill:rgb(14.117647%,64.313725%,67.843137%);fill-opacity:1;" d="M 163.386719 18.59375 C 166.015625 15.882812 170 15.378906 173.574219 15.058594 C 178.601562 14.835938 183.832031 14.710938 188.605469 16.542969 C 191.375 17.59375 193.414062 20 194.347656 22.773438 C 198.332031 22.769531 202.316406 22.707031 206.296875 22.808594 C 207.984375 25.894531 209.671875 28.984375 211.382812 32.058594 C 213.171875 29.054688 214.6875 25.894531 216.496094 22.910156 C 217.097656 22.683594 217.761719 22.78125 218.390625 22.746094 C 222.554688 22.777344 226.722656 22.738281 230.886719 22.769531 C 227.15625 29.597656 223.113281 36.246094 219.414062 43.09375 C 223.585938 50.183594 227.628906 57.347656 231.722656 64.484375 C 226.910156 64.511719 222.097656 64.511719 217.285156 64.480469 C 215.375 60.925781 213.367188 57.425781 211.414062 53.894531 C 209.300781 57.378906 207.476562 61.035156 205.359375 64.523438 C 201.988281 64.464844 198.617188 64.523438 195.246094 64.488281 C 195.234375 65.839844 195.234375 67.195312 195.253906 68.546875 C 190.539062 68.546875 185.832031 68.550781 181.125 68.550781 C 180.90625 66.699219 180.753906 64.84375 180.425781 63.011719 C 178.914062 65.011719 177.386719 67.105469 175.179688 68.378906 C 174.011719 69.144531 172.570312 69.277344 171.386719 69.996094 C 170.195312 70.011719 169.003906 70.011719 167.8125 69.992188 C 167.039062 69.476562 166.097656 69.386719 165.234375 69.105469 C 163.019531 68.4375 161.210938 66.703125 160.324219 64.578125 C 156.730469 64.386719 153.128906 64.566406 149.53125 64.480469 C 149.539062 54.71875 149.53125 44.964844 149.535156 35.203125 C 149.492188 34.070312 149.527344 32.855469 148.957031 31.839844 C 148.179688 30.734375 146.253906 30.816406 145.566406 31.980469 C 144.921875 33.0625 145.089844 34.382812 145.023438 35.59375 C 145.027344 45.226562 145.019531 54.859375 145.03125 64.492188 C 140.980469 64.5 136.929688 64.511719 132.878906 64.484375 C 132.882812 55.003906 132.875 45.519531 132.882812 36.035156 C 132.863281 34.707031 132.90625 33.320312 132.351562 32.085938 C 131.734375 30.699219 129.488281 30.753906 128.824219 32.058594 C 128.214844 33.285156 128.3125 34.6875 128.265625 36.015625 C 128.277344 45.5 128.257812 54.984375 128.277344 64.46875 C 124.253906 64.527344 120.226562 64.5 116.203125 64.488281 C 116.214844 50.65625 116.199219 36.824219 116.210938 22.988281 C 120.171875 23.03125 124.136719 22.992188 128.101562 23.011719 C 128.160156 24.308594 128.210938 25.605469 128.328125 26.894531 C 129.984375 24.867188 131.890625 22.742188 134.601562 22.261719 C 137.199219 21.835938 140.164062 21.980469 142.324219 23.660156 C 143.503906 24.550781 144.019531 25.984375 144.488281 27.328125 C 145.640625 25.953125 146.738281 24.472656 148.277344 23.496094 C 150.761719 21.832031 153.980469 21.789062 156.808594 22.425781 C 158.488281 22.730469 159.511719 24.191406 160.535156 25.40625 C 161.015625 22.988281 161.574219 20.402344 163.386719 18.59375 M 174.320312 25.585938 C 173.347656 27.332031 173.625 29.425781 173.527344 31.34375 C 169.566406 31.335938 165.613281 31.355469 161.65625 31.328125 C 161.738281 34.171875 161.671875 37.019531 161.714844 39.867188 C 163.042969 38.789062 164.433594 37.734375 166.050781 37.140625 C 170.625 35.339844 175.605469 35.128906 180.445312 34.71875 C 180.425781 32.402344 180.527344 30.078125 180.332031 27.769531 C 180.148438 26.484375 179.855469 24.855469 178.488281 24.324219 C 177.050781 23.894531 175.085938 24.121094 174.320312 25.585938 M 195.289062 29.429688 C 195.226562 38.328125 195.242188 47.230469 195.28125 56.132812 C 195.6875 56 195.992188 55.742188 196.191406 55.371094 C 198.375 51.558594 200.554688 47.746094 202.757812 43.949219 C 202.910156 43.523438 203.425781 43.023438 203.074219 42.566406 C 200.945312 38.707031 198.683594 34.921875 196.550781 31.058594 C 196.222656 30.445312 195.839844 29.855469 195.289062 29.429688 M 174.640625 45.863281 C 173.210938 47.578125 173.441406 49.925781 173.421875 52.003906 C 173.460938 54.257812 173.238281 56.605469 174.035156 58.757812 C 174.847656 60.746094 177.761719 61.054688 179.242188 59.679688 C 180.453125 58.351562 180.292969 56.433594 180.453125 54.773438 C 180.574219 51.089844 180.457031 47.402344 180.515625 43.71875 C 178.464844 43.984375 176.101562 44.207031 174.640625 45.863281 Z M 174.640625 45.863281 "/>
    <path style=" stroke:none;fill-rule:nonzero;fill:rgb(14.117647%,64.313725%,67.843137%);fill-opacity:1;" d="M 242.910156 19.882812 C 244.984375 16.753906 248.785156 15.382812 252.367188 14.992188 C 256.398438 14.710938 260.679688 14.839844 264.335938 16.769531 C 266.816406 18.09375 268.679688 20.460938 269.46875 23.15625 C 269.734375 24.046875 269.925781 24.980469 270.390625 25.800781 C 270.414062 28.464844 270.394531 31.125 270.398438 33.785156 C 269.785156 34.675781 269.578125 35.757812 269.171875 36.738281 C 268.074219 39.4375 266.304688 41.8125 264.261719 43.863281 C 260.738281 47.425781 256.929688 50.746094 253.929688 54.789062 C 252.84375 56.222656 251.953125 57.8125 251.503906 59.5625 C 257.800781 59.609375 264.101562 59.558594 270.398438 59.589844 C 270.398438 63.058594 270.398438 66.527344 270.398438 70 C 259.949219 70.003906 249.496094 69.992188 239.039062 70.007812 C 238.59375 64.304688 239.292969 58.382812 241.972656 53.265625 C 244.183594 48.886719 247.539062 45.230469 251.089844 41.90625 C 252.65625 40.402344 254.390625 39.027344 255.570312 37.175781 C 257.699219 34.007812 258.855469 29.925781 257.828125 26.167969 C 257.195312 23.871094 253.871094 23.558594 252.410156 25.195312 C 251.640625 26.21875 251.527344 27.5625 251.503906 28.804688 C 251.488281 30.789062 251.511719 32.769531 251.5 34.753906 C 247.683594 34.746094 243.871094 34.738281 240.054688 34.757812 C 239.921875 29.695312 240.03125 24.261719 242.910156 19.882812 Z M 242.910156 19.882812 "/>
    <path style=" stroke:none;fill-rule:nonzero;fill:rgb(14.117647%,64.313725%,67.843137%);fill-opacity:1;" d="M 14.429688 25.628906 C 17.632812 23.628906 21.574219 23.628906 25.222656 23.71875 C 28.683594 23.863281 32.535156 24.707031 34.765625 27.589844 C 36.957031 30.453125 37.039062 34.246094 36.984375 37.695312 C 33.398438 37.6875 29.8125 37.6875 26.226562 37.695312 C 26.167969 35.765625 26.457031 33.714844 25.710938 31.878906 C 25.003906 30.109375 22.085938 29.835938 21.121094 31.496094 C 20.480469 32.757812 20.484375 34.210938 20.421875 35.59375 C 20.421875 41.335938 20.414062 47.074219 20.425781 52.820312 C 20.480469 54.089844 20.464844 55.40625 20.933594 56.609375 C 21.554688 58.515625 24.824219 58.464844 25.410156 56.546875 C 26.238281 54.269531 25.847656 51.78125 25.949219 49.402344 C 29.628906 49.40625 33.3125 49.40625 36.992188 49.402344 C 36.988281 53.261719 37.234375 57.550781 34.789062 60.808594 C 32.265625 64.027344 27.847656 64.714844 24.003906 64.734375 C 20.140625 64.789062 15.742188 64.449219 12.878906 61.523438 C 10.554688 59.109375 9.980469 55.644531 9.566406 52.453125 C 9.476562 52.289062 9.296875 51.960938 9.203125 51.796875 C 9.195312 46.734375 9.195312 41.671875 9.203125 36.613281 C 9.832031 35.808594 9.679688 34.738281 9.894531 33.800781 C 10.355469 30.671875 11.625 27.367188 14.429688 25.628906 Z M 14.429688 25.628906 "/>
    <path style=" stroke:none;fill-rule:nonzero;fill:rgb(14.117647%,64.313725%,67.843137%);fill-opacity:1;" d="M 72.585938 23.839844 C 75.238281 23.40625 78.554688 23.726562 80.175781 26.175781 C 81.753906 28.734375 81.789062 31.882812 81.851562 34.796875 C 81.859375 44.472656 81.878906 54.148438 81.839844 63.820312 C 78.128906 63.785156 74.414062 63.804688 70.703125 63.8125 C 70.71875 54.53125 70.710938 45.253906 70.710938 35.96875 C 70.632812 34.652344 70.71875 33.117188 69.746094 32.078125 C 68.734375 31.285156 66.96875 31.59375 66.445312 32.828125 C 65.984375 33.957031 65.941406 35.199219 65.902344 36.398438 C 65.910156 45.539062 65.910156 54.679688 65.90625 63.824219 C 62.234375 63.792969 58.558594 63.792969 54.886719 63.824219 C 54.878906 50.738281 54.898438 37.65625 54.875 24.570312 C 58.441406 24.585938 62.003906 24.578125 65.566406 24.574219 C 65.746094 26.027344 65.816406 27.488281 65.929688 28.945312 C 67.648438 26.714844 69.683594 24.398438 72.585938 23.839844 Z M 72.585938 23.839844 "/>
    <path style=" stroke:none;fill-rule:nonzero;fill:rgb(14.117647%,64.313725%,67.843137%);fill-opacity:1;" d="M 89.359375 26.125 C 92.230469 23.859375 96.089844 23.632812 99.601562 23.695312 C 102.882812 23.730469 106.480469 24.261719 108.960938 26.613281 C 111.347656 28.949219 112.03125 32.386719 112.382812 35.578125 C 112.78125 39.015625 112.613281 42.476562 112.660156 45.925781 C 107.140625 45.9375 101.621094 45.9375 96.101562 45.921875 C 96.09375 48.601562 96.066406 51.285156 96.113281 53.96875 C 96.199219 55.273438 96.308594 56.882812 97.511719 57.675781 C 98.785156 58.300781 100.699219 58.046875 101.347656 56.644531 C 102.144531 54.921875 101.886719 52.960938 101.960938 51.117188 C 105.527344 51.113281 109.097656 51.117188 112.667969 51.121094 C 112.703125 54.691406 112.460938 58.730469 109.839844 61.449219 C 107.007812 64.347656 102.652344 64.761719 98.816406 64.738281 C 95.011719 64.746094 90.667969 64.144531 88.101562 61.015625 C 85.632812 57.933594 85.304688 53.792969 85.09375 49.996094 C 84.964844 45.179688 84.875 40.34375 85.304688 35.539062 C 85.65625 32.117188 86.554688 28.386719 89.359375 26.125 M 96.625 31.539062 C 95.792969 34.148438 96.195312 36.941406 96.136719 39.632812 C 98.070312 39.605469 100.007812 39.632812 101.949219 39.617188 C 101.804688 36.890625 102.292969 34.046875 101.367188 31.425781 C 100.617188 29.421875 97.261719 29.472656 96.625 31.539062 Z M 96.625 31.539062 "/>
    <path style=" stroke:none;fill-rule:nonzero;fill:rgb(14.117647%,64.313725%,67.843137%);fill-opacity:1;" d="M 40.113281 24.574219 C 43.789062 24.585938 47.46875 24.578125 51.144531 24.578125 C 51.152344 37.660156 51.148438 50.738281 51.148438 63.820312 C 47.472656 63.789062 43.792969 63.804688 40.117188 63.808594 C 40.113281 50.730469 40.121094 37.652344 40.113281 24.574219 Z M 40.113281 24.574219 "/>
  </g>
</svg>