<?xml version="1.0" encoding="UTF-8" standalone="yes"?>
<svg xmlns="http://www.w3.org/2000/svg" xmlns:xlink="http://www.w3.org/1999/xlink" width="320px" height="106.66666666666666px" viewBox="0 0 240 80" version="1.1">
  <g id="surface1">
    <path style=" stroke:none;fill-rule:nonzero;fill:rgb(86.27451%,44.705882%,15.686275%);fill-opacity:1;" d="M 39.355469 10.035156 C 43.105469 9.972656 46.855469 9.96875 50.605469 10.039062 C 50.523438 13.078125 50.574219 16.121094 50.589844 19.160156 C 46.910156 19.492188 43.207031 19.210938 39.519531 19.308594 C 39.167969 16.230469 39.484375 13.125 39.355469 10.035156 Z M 39.355469 10.035156 "/>
    <path style=" stroke:none;fill-rule:nonzero;fill:rgb(86.27451%,44.705882%,15.686275%);fill-opacity:1;" d="M 164.382812 18.789062 C 166.980469 16.695312 170.445312 16.476562 173.601562 15.964844 C 176 15.886719 178.402344 15.875 180.804688 15.949219 C 183.453125 16.394531 186.207031 16.480469 188.667969 17.699219 C 191.238281 18.746094 193.1875 20.980469 194.085938 23.585938 C 198.015625 23.648438 201.953125 23.523438 205.886719 23.652344 C 207.386719 26.492188 209.015625 29.265625 210.546875 32.085938 C 210.988281 31.925781 211.554688 31.871094 211.753906 31.359375 C 213.257812 28.820312 214.390625 26.042969 216.070312 23.628906 C 219.511719 23.546875 222.957031 23.632812 226.398438 23.597656 C 227.691406 23.617188 229.011719 23.472656 230.277344 23.816406 C 226.726562 30.011719 223.207031 36.226562 219.609375 42.390625 C 219.3125 42.949219 218.820312 43.625 219.261719 44.242188 C 223.132812 51.152344 227.246094 57.929688 231.03125 64.882812 C 226.339844 65.207031 221.625 64.90625 216.925781 65.039062 C 214.855469 62.074219 213.492188 58.695312 211.503906 55.683594 C 211.367188 55.175781 210.585938 54.945312 210.363281 55.496094 C 208.59375 58.675781 206.761719 61.820312 205.007812 65.011719 C 201.710938 65.046875 198.414062 64.984375 195.121094 65.035156 C 195.121094 66.355469 195.136719 67.675781 195.007812 68.992188 C 190.316406 69.027344 185.628906 68.984375 180.9375 69.015625 C 180.800781 67.585938 180.769531 66.128906 180.292969 64.757812 C 180.054688 64.796875 179.589844 64.867188 179.355469 64.90625 C 178.117188 66.085938 177.117188 67.546875 175.609375 68.421875 C 174.660156 68.957031 173.730469 69.535156 172.746094 70 C 170.394531 70.011719 168.035156 70.011719 165.683594 70 C 163.59375 68.738281 161.351562 67.425781 160.386719 65.027344 C 156.851562 64.992188 153.316406 65.050781 149.78125 64.996094 C 149.511719 55.066406 149.792969 45.125 149.640625 35.191406 C 149.601562 34.285156 149.660156 33.277344 149.019531 32.542969 C 147.910156 31.796875 145.800781 32.0625 145.648438 33.648438 C 145.335938 37.089844 145.542969 40.546875 145.484375 44 C 145.433594 50.996094 145.59375 58 145.402344 64.992188 C 141.425781 64.992188 137.4375 65.105469 133.460938 64.957031 L 133.214844 64.742188 C 133.140625 55.832031 133.195312 46.914062 133.1875 38.003906 C 133.15625 36.207031 133.363281 34.316406 132.621094 32.625 C 131.769531 31.929688 130.640625 32.203125 129.671875 32.425781 C 129.304688 33.441406 128.820312 34.460938 128.828125 35.566406 C 128.753906 45.390625 128.894531 55.21875 128.761719 65.042969 C 124.800781 64.992188 120.839844 65.019531 116.878906 65.027344 C 116.71875 63.09375 116.824219 61.144531 116.800781 59.199219 C 116.824219 47.433594 116.753906 35.664062 116.835938 23.894531 C 120.796875 23.847656 124.769531 23.765625 128.726562 23.941406 C 128.8125 25.0625 128.800781 26.195312 128.875 27.320312 C 129.753906 26.890625 130.28125 26.042969 130.980469 25.402344 C 133.875 22.542969 138.746094 22.160156 142.191406 24.21875 C 143.632812 25.046875 144.191406 26.667969 145.03125 28 C 146.402344 26.113281 148.101562 24.28125 150.375 23.53125 C 152.777344 22.660156 155.546875 22.679688 157.90625 23.6875 C 159.15625 24.210938 159.929688 25.359375 160.65625 26.441406 C 160.914062 23.5625 162.007812 20.585938 164.382812 18.789062 M 174.40625 26.40625 C 173.285156 28.167969 173.664062 30.339844 173.515625 32.316406 C 169.59375 32.347656 165.667969 32.3125 161.742188 32.332031 C 162.21875 34.894531 161.894531 37.503906 162.050781 40.09375 C 163.597656 39.386719 164.929688 38.273438 166.550781 37.726562 C 170.9375 36.113281 175.640625 35.652344 180.285156 35.550781 C 180.179688 32.679688 180.488281 29.761719 179.867188 26.9375 C 179.09375 24.625 175.714844 24.628906 174.40625 26.40625 M 195.101562 31.117188 C 195.027344 39.4375 195.03125 47.765625 195.101562 56.085938 C 195.675781 56.035156 196.113281 55.695312 196.335938 55.164062 C 198.035156 52.058594 199.859375 49.027344 201.609375 45.953125 C 202.019531 45.121094 202.859375 44.308594 202.675781 43.3125 C 200.792969 39.765625 198.714844 36.320312 196.765625 32.808594 C 196.332031 32.128906 196.066406 31.121094 195.101562 31.117188 M 175.996094 45.625 C 174.554688 46.191406 173.808594 47.757812 173.621094 49.207031 C 173.445312 51.46875 173.523438 53.738281 173.550781 56.003906 C 173.546875 57.511719 173.847656 59.152344 174.929688 60.273438 C 176.117188 60.855469 177.554688 60.8125 178.777344 60.347656 C 179.929688 59.429688 180.132812 57.824219 180.175781 56.433594 C 180.316406 52.5625 180.179688 48.691406 180.257812 44.820312 C 178.804688 44.816406 177.273438 44.847656 175.996094 45.625 Z M 175.996094 45.625 "/>
    <path style=" stroke:none;fill-rule:nonzero;fill:rgb(86.27451%,44.705882%,15.686275%);fill-opacity:1;" d="M 19.984375 23.585938 C 23.609375 23.441406 27.4375 23.195312 30.808594 24.792969 C 33.558594 25.972656 35.601562 28.621094 36.046875 31.578125 C 36.566406 33.5625 36.515625 35.628906 36.429688 37.660156 C 32.832031 37.738281 29.234375 37.710938 25.640625 37.679688 C 25.570312 35.414062 25.832031 32.992188 24.570312 30.972656 C 23.453125 30.285156 22.097656 30.441406 20.894531 30.796875 C 20.515625 31.691406 19.9375 32.5625 20.007812 33.574219 C 19.945312 40.390625 19.960938 47.207031 19.996094 54.019531 C 19.945312 55.210938 20.203125 56.636719 21.226562 57.363281 C 22.394531 57.726562 24.367188 57.804688 24.730469 56.289062 C 25.453125 54.007812 25.027344 51.585938 25.226562 49.234375 C 28.976562 49.15625 32.722656 49.207031 36.472656 49.210938 C 36.503906 52.824219 36.703125 56.734375 34.742188 59.941406 C 33.363281 62.222656 30.855469 63.609375 28.320312 64.222656 C 25.53125 64.523438 22.679688 65.332031 19.890625 64.539062 C 17.003906 64.378906 14.003906 63.390625 12.027344 61.1875 C 10.570312 59.613281 9.890625 57.519531 9.378906 55.484375 C 9.234375 55.375 8.945312 55.15625 8.800781 55.046875 C 8.800781 47.683594 8.800781 40.320312 8.800781 32.957031 C 9.242188 32.746094 9.5 32.40625 9.570312 31.9375 C 10.238281 29.097656 11.8125 26.214844 14.570312 24.960938 C 16.265625 24.183594 18.09375 23.53125 19.984375 23.585938 Z M 19.984375 23.585938 "/>
    <path style=" stroke:none;fill-rule:nonzero;fill:rgb(86.27451%,44.705882%,15.686275%);fill-opacity:1;" d="M 69.707031 24.480469 C 71.542969 23.199219 73.855469 23.53125 75.957031 23.621094 C 78.140625 24.035156 79.902344 25.808594 80.542969 27.90625 C 81.589844 31.988281 81.261719 36.226562 81.304688 40.398438 C 81.300781 48.148438 81.316406 55.890625 81.300781 63.640625 C 77.527344 63.652344 73.761719 63.6875 69.992188 63.621094 C 69.890625 55.078125 69.976562 46.539062 69.953125 38.003906 C 69.824219 35.863281 70.398438 33.261719 68.6875 31.605469 C 68.09375 31.605469 67.492188 31.585938 66.898438 31.644531 C 65.320312 32.675781 65.46875 34.753906 65.398438 36.40625 C 65.429688 45.460938 65.355469 54.511719 65.441406 63.558594 C 61.652344 63.699219 57.839844 63.734375 54.054688 63.527344 C 53.914062 53.023438 54.035156 42.507812 53.996094 32 C 54.039062 29.492188 53.902344 26.980469 54.0625 24.476562 C 57.746094 24.339844 61.445312 24.355469 65.128906 24.46875 C 65.234375 25.664062 65.242188 26.867188 65.339844 28.0625 C 66.980469 27.105469 67.941406 25.285156 69.707031 24.480469 Z M 69.707031 24.480469 "/>
    <path style=" stroke:none;fill-rule:nonzero;fill:rgb(86.27451%,44.705882%,15.686275%);fill-opacity:1;" d="M 86.355469 28.769531 C 87.898438 25.601562 91.414062 23.925781 94.78125 23.597656 C 98.527344 23.628906 102.511719 23.03125 105.980469 24.808594 C 109 26.101562 110.71875 29.242188 111.292969 32.347656 C 112.421875 36.800781 111.894531 41.421875 111.980469 45.957031 C 106.523438 46.011719 101.066406 45.953125 95.613281 45.988281 C 95.648438 48.921875 95.519531 51.855469 95.675781 54.785156 C 95.824219 55.808594 96.027344 57.195312 97.214844 57.492188 C 98.214844 57.621094 99.316406 57.648438 100.207031 57.101562 C 101.488281 55.285156 101.015625 52.925781 101.253906 50.84375 C 104.828125 50.738281 108.40625 50.816406 111.984375 50.808594 C 112.167969 53.925781 111.984375 57.214844 110.316406 59.953125 C 108.488281 62.867188 104.980469 64.316406 101.652344 64.488281 C 99.523438 65.007812 97.28125 64.992188 95.152344 64.492188 C 91.636719 64.261719 87.894531 62.5625 86.324219 59.234375 C 84.988281 56.910156 84.757812 54.199219 84.371094 51.605469 C 84.226562 46.410156 84.195312 41.210938 84.402344 36.019531 C 84.824219 33.550781 85.050781 30.972656 86.355469 28.769531 M 97.226562 29.996094 C 96.851562 30.441406 96.378906 30.816406 96.101562 31.335938 C 95.371094 33.875 95.65625 36.542969 95.640625 39.152344 C 97.46875 39.199219 99.300781 39.199219 101.128906 39.15625 C 101.101562 36.574219 101.367188 33.914062 100.609375 31.40625 C 100.300781 30.910156 99.925781 30.460938 99.570312 30 C 98.789062 30.007812 98.007812 30.003906 97.226562 29.996094 Z M 97.226562 29.996094 "/>
    <path style=" stroke:none;fill-rule:nonzero;fill:rgb(86.27451%,44.705882%,15.686275%);fill-opacity:1;" d="M 39.351562 24.433594 C 43.070312 24.347656 46.796875 24.429688 50.519531 24.394531 C 50.601562 37.480469 50.570312 50.5625 50.535156 63.648438 C 46.804688 63.613281 43.070312 63.746094 39.347656 63.574219 C 39.386719 50.527344 39.378906 37.480469 39.351562 24.433594 Z M 39.351562 24.433594 "/>
  </g>
</svg>