<?xml version="1.0" encoding="UTF-8" ?>
<!DOCTYPE svg PUBLIC "-//W3C//DTD SVG 1.1//EN" "http://www.w3.org/Graphics/SVG/1.1/DTD/svg11.dtd">
<svg width="1300pt" height="300pt" viewBox="0 0 1300 300" version="1.1" xmlns="http://www.w3.org/2000/svg">
<g id="#161928ff">
<path fill="#161928" opacity="1.00" d=" M 53.14 39.25 C 59.76 37.45 67.16 38.57 74.14 38.05 C 78.15 36.23 82.77 37.78 87.00 37.23 C 89.97 37.65 93.09 36.56 95.95 37.87 C 105.31 37.69 114.67 37.84 124.03 37.79 C 126.08 38.07 128.07 36.37 130.04 37.68 C 139.69 37.95 149.38 37.71 159.04 37.79 C 162.62 36.68 166.34 37.67 170.00 37.17 C 172.92 38.08 176.08 38.01 179.00 37.12 C 186.14 37.65 192.93 37.07 200.07 37.48 C 201.68 37.03 203.45 37.14 204.98 37.82 C 213.32 37.51 221.77 38.38 230.00 37.18 C 242.69 37.28 255.44 37.07 268.04 37.44 C 269.42 37.10 270.74 37.24 272.01 37.85 C 275.52 36.65 279.47 37.78 283.01 37.32 C 291.24 38.33 299.71 37.53 308.05 37.80 C 313.93 36.70 320.02 37.39 326.00 37.20 C 329.35 37.39 332.85 36.66 336.07 37.89 C 338.28 36.27 340.64 38.25 342.98 37.79 C 584.99 37.78 827.00 37.78 1069.02 37.79 C 1070.38 37.91 1071.73 37.74 1073.06 37.28 C 1085.03 37.32 1096.95 37.31 1108.97 37.29 C 1111.93 38.50 1114.90 36.70 1118.00 37.25 C 1124.94 37.70 1132.14 36.43 1138.93 37.88 C 1141.45 36.78 1144.31 37.14 1146.99 37.39 C 1159.60 37.02 1172.40 37.11 1185.02 37.35 C 1186.65 37.09 1188.40 37.15 1189.97 37.82 C 1194.62 37.77 1199.28 37.78 1203.95 37.82 C 1151.98 38.20 1100.01 37.78 1048.04 38.14 C 836.34 38.09 624.64 38.15 412.94 38.11 C 385.97 38.05 358.97 38.32 332.03 37.87 C 304.68 38.02 277.32 38.02 249.96 37.88 C 191.24 38.24 132.55 37.46 73.86 38.10 L 73.86 38.90 C 74.16 39.08 74.76 39.42 75.06 39.60 C 73.03 39.55 71.01 39.60 68.98 39.61 C 68.39 39.49 67.21 39.24 66.62 39.12 C 66.24 38.92 65.49 38.53 65.11 38.34 C 62.64 39.68 59.67 38.40 57.06 39.16 C 55.76 39.48 54.46 39.51 53.14 39.25 Z" />
<path fill="#161928" opacity="1.00" d=" M 36.27 242.06 C 38.20 240.57 40.44 241.95 42.43 242.53 C 45.60 243.33 47.48 246.24 50.30 247.67 C 52.53 248.91 55.00 249.59 57.27 250.72 C 57.53 251.29 58.06 252.44 58.32 253.01 C 56.01 252.77 53.71 252.47 51.42 252.11 C 45.64 250.12 40.06 246.97 36.27 242.06 Z" />
</g>
<g id="#343434ff">
<path fill="#343434" opacity="1.00" d=" M 73.86 38.10 C 132.55 37.46 191.24 38.24 249.96 37.88 C 277.32 38.02 304.68 38.02 332.03 37.87 C 358.97 38.32 385.97 38.05 412.94 38.11 C 624.64 38.15 836.34 38.09 1048.04 38.14 C 1100.01 37.78 1151.98 38.20 1203.95 37.82 C 1216.67 37.78 1229.37 37.94 1242.07 38.56 C 1243.22 38.91 1245.04 38.05 1245.85 39.16 C 1243.08 39.91 1239.97 37.64 1237.64 39.88 C 1214.08 39.26 1190.52 39.49 1166.97 39.43 C 809.98 39.36 452.99 39.35 96.01 39.46 C 89.02 39.46 82.04 39.55 75.06 39.60 C 74.76 39.42 74.16 39.08 73.86 38.90 L 73.86 38.10 Z" />
<path fill="#343434" opacity="1.00" d=" M 59.29 43.11 C 62.48 43.91 65.80 42.63 68.97 43.77 C 189.32 43.60 309.67 43.72 430.01 43.71 C 644.37 43.70 858.72 43.73 1073.07 43.69 C 1127.39 43.77 1181.70 43.52 1236.02 43.83 C 1241.34 44.72 1246.81 44.37 1252.21 44.88 C 1248.52 45.88 1244.66 45.70 1240.90 45.54 C 1239.26 45.11 1237.79 44.03 1236.05 44.26 C 1230.37 44.56 1224.55 43.90 1219.02 45.42 C 1167.37 45.72 1115.70 45.57 1064.04 45.63 C 854.03 45.58 644.02 45.68 434.01 45.55 C 429.30 45.95 424.67 43.34 420.05 45.13 C 418.04 45.90 415.95 45.23 414.01 44.65 C 409.75 45.60 405.20 46.02 400.97 44.63 C 398.58 44.13 396.40 45.66 394.02 45.46 C 327.34 45.46 260.66 45.45 193.99 45.46 C 192.26 45.54 190.65 44.82 188.97 44.60 C 185.09 45.89 180.99 45.42 176.98 45.46 C 164.64 45.45 152.30 45.46 139.97 45.43 C 137.93 45.45 136.05 44.44 134.00 44.56 C 114.34 44.54 94.68 44.63 75.02 44.40 C 69.74 44.23 63.83 42.56 59.06 45.49 C 55.67 45.60 52.19 45.77 48.88 44.82 C 52.54 44.63 56.20 44.36 59.87 44.44 L 59.29 43.11 Z" />
<path fill="#343434" opacity="1.00" d=" M 31.46 249.11 C 35.11 252.88 39.38 257.61 45.20 256.82 C 54.81 259.70 65.13 257.57 74.92 259.23 C 102.60 259.38 130.29 259.38 157.96 259.27 C 161.85 258.16 165.97 258.96 169.96 258.78 C 176.32 258.38 182.67 260.20 188.98 258.77 C 194.94 258.91 201.00 258.26 206.86 259.28 C 210.56 259.03 214.38 259.82 217.97 258.72 C 220.36 258.23 222.53 259.61 224.91 259.28 C 549.66 259.31 874.41 259.25 1199.17 259.30 C 1199.59 259.12 1200.44 258.76 1200.86 258.58 C 1215.26 258.67 1229.66 258.66 1244.06 258.24 C 1247.56 256.69 1251.51 257.91 1255.01 256.47 C 1257.60 257.00 1260.14 256.17 1262.69 255.75 L 1262.89 256.58 C 1258.92 258.78 1254.45 259.91 1249.97 260.08 C 1245.59 259.52 1241.29 260.66 1236.97 260.95 C 1178.64 261.27 1120.31 261.16 1061.98 261.18 C 867.96 261.18 673.95 261.18 479.93 261.19 C 413.30 261.12 346.66 261.30 280.03 261.10 C 212.67 261.09 145.31 261.27 77.95 260.98 C 76.45 260.92 74.97 261.10 73.52 261.44 C 63.30 261.38 53.01 261.04 42.96 259.08 C 39.64 258.11 36.46 256.44 34.06 253.91 C 33.71 252.95 33.06 252.29 32.12 251.91 C 31.74 251.31 31.00 250.11 30.62 249.51 L 31.46 249.11 Z" />
</g>
<g id="#5f5b5dff">
<path fill="#5f5b5d" opacity="1.00" d=" M 42.26 40.44 C 45.84 39.86 49.47 39.02 53.14 39.25 C 54.46 39.51 55.76 39.48 57.06 39.16 C 59.67 38.40 62.64 39.68 65.11 38.34 C 65.49 38.53 66.24 38.92 66.62 39.12 C 60.83 40.75 54.68 39.17 48.92 40.92 C 46.70 41.42 44.41 41.23 42.15 41.18 L 42.26 40.44 Z" />
<path fill="#5f5b5d" opacity="1.00" d=" M 1268.11 228.44 C 1268.34 229.16 1268.81 230.62 1269.04 231.34 C 1268.74 235.14 1266.56 238.41 1265.74 242.08 C 1265.98 243.07 1266.38 244.01 1266.93 244.89 C 1267.35 244.59 1268.20 243.98 1268.62 243.68 C 1268.34 248.35 1263.76 251.74 1260.06 254.04 C 1256.39 253.56 1252.71 254.31 1249.06 254.51 C 1243.76 255.68 1238.33 254.82 1232.97 255.13 C 1228.91 255.37 1224.98 254.02 1220.93 254.12 C 1217.50 253.93 1213.81 254.79 1210.68 253.05 C 1223.15 252.94 1235.63 253.03 1248.12 253.00 C 1249.02 253.02 1249.91 252.87 1250.79 252.54 C 1252.76 251.75 1255.04 251.49 1256.71 250.07 C 1263.57 245.08 1267.41 236.75 1268.11 228.44 Z" />
</g>
<g id="#e4e5ecff">
<path fill="#e4e5ec" opacity="1.00" d=" M 96.01 39.46 C 452.99 39.35 809.98 39.36 1166.97 39.43 C 1190.52 39.49 1214.08 39.26 1237.64 39.88 C 1240.76 40.63 1244.05 40.17 1247.24 40.70 C 1248.77 41.46 1250.49 41.39 1252.18 41.51 C 1252.61 41.84 1253.48 42.52 1253.91 42.86 C 1256.05 44.54 1258.73 45.37 1260.90 46.94 C 1258.14 45.74 1255.16 45.22 1252.21 44.88 C 1246.81 44.37 1241.34 44.72 1236.02 43.83 C 1181.70 43.52 1127.39 43.77 1073.07 43.69 C 858.72 43.73 644.37 43.70 430.01 43.71 C 309.67 43.72 189.32 43.60 68.97 43.77 C 65.80 42.63 62.48 43.91 59.29 43.11 L 59.87 44.44 C 56.20 44.36 52.54 44.63 48.88 44.82 C 46.05 45.04 43.18 45.51 40.55 46.62 C 40.19 46.65 39.46 46.72 39.10 46.76 C 42.89 45.24 45.96 42.27 50.09 41.57 C 56.17 39.46 62.84 41.00 68.98 39.61 C 71.01 39.60 73.03 39.55 75.06 39.60 C 82.04 39.55 89.02 39.46 96.01 39.46 Z" />
</g>
<g id="#4c4d51ff">
<path fill="#4c4d51" opacity="1.00" d=" M 1237.64 39.88 C 1239.97 37.64 1243.08 39.91 1245.85 39.16 C 1251.89 39.13 1258.37 39.90 1263.43 43.41 L 1263.83 44.27 C 1260.39 43.36 1257.21 41.60 1253.70 40.94 C 1253.75 41.42 1253.86 42.38 1253.91 42.86 C 1253.48 42.52 1252.61 41.84 1252.18 41.51 C 1250.49 41.39 1248.77 41.46 1247.24 40.70 C 1244.05 40.17 1240.76 40.63 1237.64 39.88 Z" />
</g>
<g id="#6a696cff">
<path fill="#6a696c" opacity="1.00" d=" M 48.92 40.92 C 54.68 39.17 60.83 40.75 66.62 39.12 C 67.21 39.24 68.39 39.49 68.98 39.61 C 62.84 41.00 56.17 39.46 50.09 41.57 C 45.96 42.27 42.89 45.24 39.10 46.76 C 34.33 48.15 32.12 53.00 28.85 56.28 C 29.12 53.14 32.10 51.03 32.17 47.83 L 32.26 47.32 C 35.10 44.73 38.01 41.25 42.15 41.18 C 44.41 41.23 46.70 41.42 48.92 40.92 Z" />
</g>
<g id="#6d6b6dff">
<path fill="#6d6b6d" opacity="1.00" d=" M 1253.70 40.94 C 1257.21 41.60 1260.39 43.36 1263.83 44.27 L 1264.64 44.43 C 1266.89 46.81 1269.55 49.09 1270.86 52.09 C 1270.06 52.22 1269.28 52.31 1268.51 52.37 C 1267.69 51.88 1266.90 51.38 1266.13 50.86 L 1265.83 51.87 C 1264.12 50.29 1262.53 48.59 1260.90 46.94 C 1258.73 45.37 1256.05 44.54 1253.91 42.86 C 1253.86 42.38 1253.75 41.42 1253.70 40.94 Z" />
</g>
<g id="#686366ff">
<path fill="#686366" opacity="1.00" d=" M 59.06 45.49 C 63.83 42.56 69.74 44.23 75.02 44.40 C 94.68 44.63 114.34 44.54 134.00 44.56 C 136.05 44.44 137.93 45.45 139.97 45.43 C 152.30 45.46 164.64 45.45 176.98 45.46 C 180.99 45.42 185.09 45.89 188.97 44.60 C 190.65 44.82 192.26 45.54 193.99 45.46 C 260.66 45.45 327.34 45.46 394.02 45.46 C 396.40 45.66 398.58 44.13 400.97 44.63 C 405.20 46.02 409.75 45.60 414.01 44.65 C 415.95 45.23 418.04 45.90 420.05 45.13 C 424.67 43.34 429.30 45.95 434.01 45.55 C 644.02 45.68 854.03 45.58 1064.04 45.63 C 1115.70 45.57 1167.37 45.72 1219.02 45.42 C 1224.55 43.90 1230.37 44.56 1236.05 44.26 C 1237.79 44.03 1239.26 45.11 1240.90 45.54 C 1244.66 45.70 1248.52 45.88 1252.21 44.88 C 1255.16 45.22 1258.14 45.74 1260.90 46.94 C 1262.53 48.59 1264.12 50.29 1265.83 51.87 C 1270.72 57.06 1272.12 64.31 1273.83 70.98 C 1274.89 82.37 1274.71 93.82 1274.35 105.25 C 1274.44 112.01 1274.58 118.79 1274.37 125.54 C 1274.10 125.94 1273.56 126.72 1273.29 127.11 C 1273.76 111.40 1273.49 95.65 1272.90 79.94 C 1272.71 78.10 1273.11 75.95 1271.63 74.54 C 1271.54 69.35 1270.11 63.59 1266.16 59.97 C 1265.03 59.03 1263.91 58.07 1263.25 56.75 C 1260.79 52.91 1257.37 49.28 1252.97 47.79 C 1248.49 46.05 1243.67 46.65 1239.00 46.55 C 1191.09 46.57 1143.18 46.48 1095.27 46.56 C 874.53 46.53 653.80 46.52 433.07 46.46 C 427.34 46.16 421.59 46.50 415.85 46.42 C 297.94 46.24 180.02 46.41 62.11 46.28 C 58.82 46.28 55.51 46.37 52.27 46.99 C 48.85 46.58 45.39 46.54 42.06 47.54 C 41.68 47.31 40.93 46.85 40.55 46.62 C 43.18 45.51 46.05 45.04 48.88 44.82 C 52.19 45.77 55.67 45.60 59.06 45.49 Z" />
</g>
<g id="#1e3d91ff">
<path fill="#1e3d91" opacity="1.00" d=" M 52.27 46.99 C 55.51 46.37 58.82 46.28 62.11 46.28 C 180.02 46.41 297.94 46.24 415.85 46.42 C 415.26 48.17 415.20 50.03 414.95 51.84 C 414.15 52.79 413.40 54.14 411.93 53.92 C 404.04 54.19 396.08 53.30 388.25 54.59 C 366.18 54.94 344.09 54.96 322.01 54.93 C 317.98 55.03 314.01 55.91 309.97 55.88 C 295.64 55.83 281.31 55.91 266.98 55.93 C 259.33 56.84 251.63 55.45 244.04 56.89 C 228.35 56.87 212.67 56.98 196.98 56.90 C 193.60 56.85 190.30 57.68 186.94 57.80 C 171.95 57.72 156.96 57.92 141.97 57.83 C 139.81 57.96 137.22 57.32 135.69 59.29 C 124.45 59.27 113.22 58.66 101.98 58.61 C 89.60 58.76 77.38 56.54 65.10 55.36 C 58.23 54.02 51.14 53.37 44.60 50.73 C 46.94 49.07 49.64 48.08 52.27 46.99 Z" />
</g>
<g id="#c5c5c6ff">
<path fill="#c5c5c6" opacity="1.00" d=" M 415.85 46.42 C 421.59 46.50 427.34 46.16 433.07 46.46 C 432.93 47.57 432.81 48.67 432.72 49.78 C 432.51 51.56 432.36 53.34 432.26 55.13 C 426.49 56.32 420.57 55.29 414.74 55.89 C 414.76 54.54 414.83 53.19 414.95 51.84 C 415.20 50.03 415.26 48.17 415.85 46.42 Z" />
</g>
<g id="#fdfdfdff">
<path fill="#fdfdfd" opacity="1.00" d=" M 433.07 46.46 C 653.80 46.52 874.53 46.53 1095.27 46.56 C 1093.20 49.54 1089.05 47.70 1086.01 48.31 C 1087.23 48.81 1088.79 48.81 1089.79 49.76 C 1085.87 50.14 1081.92 49.64 1078.02 50.00 C 1069.08 51.58 1059.92 51.09 1050.94 50.18 C 1048.74 49.90 1046.68 50.71 1044.63 51.29 C 1043.34 51.26 1042.19 50.48 1040.96 50.23 C 1035.65 53.67 1029.49 50.24 1023.75 51.73 C 1020.27 52.90 1016.62 51.67 1013.06 51.94 C 1003.36 51.69 993.71 52.35 984.04 52.83 C 967.66 53.18 951.25 52.51 934.89 53.30 C 928.57 53.04 922.32 54.26 916.02 53.89 C 896.34 53.86 876.66 54.02 856.99 53.90 C 842.10 55.56 827.02 54.61 812.04 54.93 C 790.37 54.78 768.70 55.20 747.04 54.94 C 719.42 56.54 691.69 55.62 664.02 56.00 C 653.29 56.40 642.51 55.29 631.83 56.54 C 626.90 56.07 621.98 57.00 617.03 56.86 C 585.69 56.89 554.33 56.91 522.99 57.08 C 518.99 57.57 514.98 57.61 510.99 57.10 C 494.73 57.13 478.46 57.03 462.20 57.32 C 452.54 56.79 442.93 58.84 433.27 57.77 C 432.98 55.12 432.95 52.44 432.72 49.78 C 432.81 48.67 432.93 47.57 433.07 46.46 Z" />
</g>
<g id="#8c8e98ff">
<path fill="#8c8e98" opacity="1.00" d=" M 28.85 56.28 C 32.12 53.00 34.33 48.15 39.10 46.76 C 37.47 49.61 34.21 51.15 32.78 54.14 L 34.08 54.53 C 30.90 61.23 28.33 68.46 28.45 75.98 C 28.51 84.34 27.09 92.68 28.14 101.02 C 27.48 106.34 27.85 111.69 28.22 117.01 C 28.01 128.33 28.66 139.68 27.81 150.97 C 28.64 161.28 28.05 171.65 28.19 181.98 C 26.90 191.64 28.80 201.35 27.90 211.01 C 28.73 217.31 27.81 223.77 29.30 229.99 C 29.86 234.37 31.65 238.48 32.34 242.84 C 32.74 241.44 33.24 240.09 33.77 238.74 L 33.89 239.76 C 33.73 241.86 33.79 243.97 33.85 246.08 C 32.53 245.01 31.72 242.95 29.84 242.86 C 30.53 246.14 33.31 248.50 35.60 250.77 C 38.21 253.38 41.71 254.32 45.32 254.31 L 44.53 254.72 C 44.21 254.89 43.57 255.23 43.25 255.39 C 43.88 255.89 44.53 256.36 45.20 256.82 C 39.38 257.61 35.11 252.88 31.46 249.11 L 30.62 249.51 L 30.28 249.67 C 28.12 246.11 25.86 242.56 24.84 238.46 C 27.08 238.77 27.39 242.10 29.76 242.07 C 27.76 237.26 26.07 232.26 26.02 226.99 C 24.36 215.40 25.72 203.68 25.24 192.04 C 24.98 188.34 25.92 184.72 26.03 181.04 C 25.94 159.01 26.11 136.97 25.91 114.94 C 25.74 112.61 24.98 110.34 25.11 107.99 C 25.22 103.44 26.70 98.87 25.50 94.36 C 24.68 91.46 26.34 88.18 23.82 85.79 C 23.72 83.82 23.78 81.82 23.32 79.89 C 22.98 79.35 22.30 78.26 21.96 77.71 C 22.58 67.25 24.72 55.73 32.17 47.83 C 32.10 51.03 29.12 53.14 28.85 56.28 Z" />
</g>
<g id="#666163ff">
<path fill="#666163" opacity="1.00" d=" M 39.10 46.76 C 39.46 46.72 40.19 46.65 40.55 46.62 C 40.93 46.85 41.68 47.31 42.06 47.54 C 45.39 46.54 48.85 46.58 52.27 46.99 C 49.64 48.08 46.94 49.07 44.60 50.73 C 44.31 50.71 43.74 50.68 43.45 50.66 C 39.79 49.64 35.88 51.14 34.08 54.53 L 32.78 54.14 C 34.21 51.15 37.47 49.61 39.10 46.76 Z" />
<path fill="#666163" opacity="1.00" d=" M 23.32 79.89 C 23.78 81.82 23.72 83.82 23.82 85.79 C 23.41 112.19 24.07 138.61 23.45 165.00 C 23.15 136.63 23.40 108.26 23.32 79.89 Z" />
</g>
<g id="#f0f0f0ff">
<path fill="#f0f0f0" opacity="1.00" d=" M 1095.27 46.56 C 1143.18 46.48 1191.09 46.57 1239.00 46.55 C 1243.67 46.65 1248.49 46.05 1252.97 47.79 C 1253.23 50.22 1253.81 52.61 1255.05 54.74 C 1254.37 57.50 1253.04 60.41 1249.93 60.95 C 1231.36 61.67 1212.64 60.16 1194.13 61.70 C 1188.81 60.19 1183.43 62.00 1178.07 61.22 C 1174.45 61.46 1170.81 60.75 1167.23 61.47 C 1163.28 62.25 1159.26 61.52 1155.27 61.67 C 1151.59 61.22 1147.92 62.08 1144.26 61.65 C 1139.26 61.09 1134.26 62.31 1129.28 61.61 C 1110.57 62.23 1091.77 61.99 1073.01 62.01 C 1023.34 62.05 973.67 62.03 924.00 62.05 C 912.52 63.62 900.92 61.44 889.41 62.52 C 885.28 62.19 881.14 62.04 877.02 62.48 C 867.57 61.44 858.08 62.48 848.64 62.58 C 842.86 61.76 837.07 62.99 831.29 62.77 C 820.45 63.24 809.56 63.11 798.73 62.71 C 790.18 63.56 781.57 62.52 773.01 63.17 C 770.64 63.29 768.45 64.21 766.40 65.31 C 766.11 65.09 765.54 64.65 765.26 64.44 C 764.76 65.25 764.93 66.74 763.74 66.86 C 763.29 66.01 763.62 64.38 762.31 64.41 C 761.52 65.19 760.82 66.05 760.02 66.80 C 758.86 66.75 757.73 66.54 756.59 66.59 C 755.12 67.74 754.24 69.46 752.78 70.58 C 751.69 70.63 750.62 70.57 749.55 70.62 C 748.47 73.08 750.88 77.03 747.02 77.93 C 745.78 77.14 744.65 76.20 743.40 75.45 C 742.15 77.16 741.17 79.07 739.78 80.67 C 738.27 80.88 736.89 80.23 735.47 79.88 C 734.17 80.10 732.87 80.35 731.57 80.48 C 731.57 81.18 731.59 81.88 731.62 82.59 C 730.81 82.58 730.00 82.57 729.21 82.56 C 729.38 83.51 729.63 84.45 729.82 85.40 C 727.97 85.23 726.25 85.95 724.49 86.31 C 724.17 86.09 723.54 85.66 723.23 85.44 C 723.30 88.79 720.84 91.08 718.34 92.89 C 718.41 91.33 718.60 89.68 717.78 88.26 C 715.89 88.79 715.71 91.15 714.66 92.54 C 714.02 92.23 713.39 91.92 712.76 91.61 C 711.27 92.58 709.57 93.00 707.86 93.38 C 706.45 95.93 703.87 97.75 703.42 100.79 C 703.20 100.18 702.76 98.95 702.54 98.33 C 700.87 96.90 699.92 99.67 698.78 100.48 C 698.30 100.18 697.84 99.89 697.38 99.60 C 697.00 99.96 696.25 100.67 695.88 101.02 C 695.28 100.07 694.75 99.09 694.19 98.13 C 693.73 100.59 693.80 103.14 693.05 105.55 L 692.27 105.08 C 688.74 101.70 686.02 96.80 680.96 95.63 C 675.01 94.67 668.42 99.59 669.10 105.94 C 663.52 106.27 657.91 107.02 652.33 106.92 C 652.29 103.24 652.44 99.55 652.24 95.88 C 645.69 95.78 639.14 95.83 632.60 95.85 C 632.27 99.87 632.50 103.92 632.50 107.96 C 632.48 108.21 632.45 108.72 632.43 108.97 C 627.48 108.55 622.55 109.32 617.63 109.74 C 617.23 105.17 618.29 100.15 617.16 95.85 C 597.12 95.86 577.08 95.77 557.04 95.90 C 543.05 96.19 529.77 105.40 524.68 118.45 C 524.60 118.62 524.43 118.95 524.34 119.12 C 500.90 121.35 477.41 123.08 454.03 126.02 C 446.93 126.23 439.94 127.54 432.90 128.31 L 432.11 128.18 C 432.57 105.13 432.31 82.06 432.20 59.00 C 432.23 57.71 432.25 56.42 432.26 55.13 C 432.36 53.34 432.51 51.56 432.72 49.78 C 432.95 52.44 432.98 55.12 433.27 57.77 C 442.93 58.84 452.54 56.79 462.20 57.32 C 478.46 57.03 494.73 57.13 510.99 57.10 C 514.98 57.61 518.99 57.57 522.99 57.08 C 554.33 56.91 585.69 56.89 617.03 56.86 C 621.98 57.00 626.90 56.07 631.83 56.54 C 642.51 55.29 653.29 56.40 664.02 56.00 C 691.69 55.62 719.42 56.54 747.04 54.94 C 768.70 55.20 790.37 54.78 812.04 54.93 C 827.02 54.61 842.10 55.56 856.99 53.90 C 876.66 54.02 896.34 53.86 916.02 53.89 C 922.32 54.26 928.57 53.04 934.89 53.30 C 951.25 52.51 967.66 53.18 984.04 52.83 C 993.71 52.35 1003.36 51.69 1013.06 51.94 C 1016.62 51.67 1020.27 52.90 1023.75 51.73 C 1029.49 50.24 1035.65 53.67 1040.96 50.23 C 1042.19 50.48 1043.34 51.26 1044.63 51.29 C 1046.68 50.71 1048.74 49.90 1050.94 50.18 C 1059.92 51.09 1069.08 51.58 1078.02 50.00 C 1081.92 49.64 1085.87 50.14 1089.79 49.76 C 1088.79 48.81 1087.23 48.81 1086.01 48.31 C 1089.05 47.70 1093.20 49.54 1095.27 46.56 Z" />
</g>
<g id="#cdcdceff">
<path fill="#cdcdce" opacity="1.00" d=" M 1252.97 47.79 C 1257.37 49.28 1260.79 52.91 1263.25 56.75 C 1262.22 56.57 1261.22 56.37 1260.23 56.16 C 1258.56 55.47 1256.82 54.98 1255.05 54.74 C 1253.81 52.61 1253.23 50.22 1252.97 47.79 Z" />
</g>
<g id="#d0d2dcff">
<path fill="#d0d2dc" opacity="1.00" d=" M 34.08 54.53 C 35.88 51.14 39.79 49.64 43.45 50.66 C 35.74 56.41 29.62 65.11 29.49 75.02 C 29.54 125.34 29.46 175.67 29.53 225.99 C 30.13 230.15 31.06 234.54 33.68 237.95 L 33.77 238.74 C 33.24 240.09 32.74 241.44 32.34 242.84 C 31.65 238.48 29.86 234.37 29.30 229.99 C 27.81 223.77 28.73 217.31 27.90 211.01 C 28.80 201.35 26.90 191.64 28.19 181.98 C 28.05 171.65 28.64 161.28 27.81 150.97 C 28.66 139.68 28.01 128.33 28.22 117.01 C 27.85 111.69 27.48 106.34 28.14 101.02 C 27.09 92.68 28.51 84.34 28.45 75.98 C 28.33 68.46 30.90 61.23 34.08 54.53 Z" />
<path fill="#d0d2dc" opacity="1.00" d=" M 43.25 255.39 C 43.57 255.23 44.21 254.89 44.53 254.72 C 50.62 256.15 56.80 257.77 63.11 257.54 C 86.75 257.43 110.40 257.71 134.04 257.70 C 142.00 259.16 150.30 258.15 158.43 258.58 L 157.96 259.27 C 130.29 259.38 102.60 259.38 74.92 259.23 C 65.13 257.57 54.81 259.70 45.20 256.82 C 44.53 256.36 43.88 255.89 43.25 255.39 Z" />
</g>
<g id="#6880b9ff">
<path fill="#6880b9" opacity="1.00" d=" M 43.45 50.66 C 43.74 50.68 44.31 50.71 44.60 50.73 C 51.14 53.37 58.23 54.02 65.10 55.36 C 77.38 56.54 89.60 58.76 101.98 58.61 C 113.22 58.66 124.45 59.27 135.69 59.29 C 165.11 59.92 194.55 59.44 223.98 59.40 C 273.66 59.16 323.35 59.62 373.03 59.33 C 386.85 59.42 400.68 59.01 414.50 59.31 C 414.52 82.83 414.76 106.36 414.40 129.87 C 403.87 131.74 393.19 132.55 382.66 134.42 C 374.94 134.84 367.41 137.26 359.69 137.18 C 363.75 128.41 367.85 119.66 372.03 110.95 C 373.46 108.15 372.37 104.35 369.05 103.68 C 362.38 103.60 355.70 103.57 349.03 103.70 C 345.39 104.13 343.70 107.63 342.65 110.70 C 337.89 121.47 333.18 132.25 328.42 143.02 C 323.37 143.67 318.43 145.00 313.37 145.62 C 312.12 146.02 310.38 145.71 309.54 146.90 L 309.62 147.77 C 301.77 134.56 293.32 121.72 285.28 108.62 C 283.38 105.37 279.71 103.57 275.99 103.63 C 268.68 103.62 261.37 103.61 254.06 103.63 C 250.53 103.66 247.11 105.24 244.88 107.99 C 232.61 121.42 220.05 134.59 207.93 148.16 C 211.25 153.96 215.42 159.24 219.14 164.80 C 215.34 166.22 211.37 167.14 207.38 167.82 C 207.40 134.22 207.39 100.62 207.39 67.02 C 207.87 63.96 204.86 61.37 201.95 61.51 C 196.32 61.57 190.65 61.23 185.04 61.75 C 180.61 62.47 177.41 66.55 177.69 71.03 C 177.61 105.67 177.70 140.31 177.65 174.94 C 175.18 175.50 172.71 176.04 170.29 176.78 C 170.98 169.64 170.30 161.96 165.99 155.98 C 161.44 149.34 153.77 145.78 146.24 143.67 C 137.90 141.63 129.48 139.91 121.17 137.73 C 117.15 136.98 113.10 136.14 109.34 134.49 C 107.71 133.81 106.84 131.60 107.89 130.06 C 109.60 128.73 111.87 128.44 113.97 128.43 C 128.31 128.41 142.65 128.45 156.99 128.41 C 160.59 128.34 164.63 126.66 166.10 123.14 C 168.17 118.74 166.94 113.74 167.28 109.06 C 167.63 106.08 164.94 103.47 162.01 103.63 C 145.66 103.61 129.31 103.61 112.95 103.63 C 104.30 103.70 95.18 105.64 88.50 111.47 C 76.38 121.66 75.08 143.02 87.44 153.54 C 95.05 160.31 105.41 161.90 114.99 164.03 C 121.03 165.02 126.89 166.90 132.94 167.81 C 136.02 168.79 140.51 169.23 141.37 173.01 C 141.12 175.47 138.22 176.57 136.05 176.66 C 121.05 176.75 106.05 176.64 91.05 176.71 C 87.18 176.65 83.00 178.31 81.43 182.07 C 80.14 185.58 80.66 189.36 80.55 193.01 C 80.58 195.54 80.22 198.36 81.92 200.48 C 65.60 209.15 48.88 218.54 37.05 233.09 C 35.79 234.61 34.69 236.25 33.68 237.95 C 31.06 234.54 30.13 230.15 29.53 225.99 C 29.46 175.67 29.54 125.34 29.49 75.02 C 29.62 65.11 35.74 56.41 43.45 50.66 M 46.19 55.61 C 42.05 56.91 39.74 61.04 38.23 64.84 C 41.57 61.01 46.84 58.77 49.63 54.46 C 48.39 54.59 47.47 55.67 46.19 55.61 Z" />
</g>
<g id="#7f7d7fff">
<path fill="#7f7d7f" opacity="1.00" d=" M 1266.13 50.86 C 1266.90 51.38 1267.69 51.88 1268.51 52.37 C 1269.28 52.31 1270.06 52.22 1270.86 52.09 C 1276.44 60.39 1277.79 70.96 1278.01 80.71 C 1276.92 83.35 1277.57 86.28 1277.43 89.05 C 1277.34 121.36 1277.51 153.68 1277.27 185.99 L 1275.85 185.96 C 1275.23 152.31 1275.92 118.64 1275.73 84.98 C 1276.23 79.99 1274.45 75.19 1274.67 70.21 C 1274.46 70.40 1274.04 70.79 1273.83 70.98 C 1272.12 64.31 1270.72 57.06 1265.83 51.87 L 1266.13 50.86 Z" />
</g>
<g id="#21377fff">
<path fill="#21377f" opacity="1.00" d=" M 411.93 53.92 C 413.40 54.14 414.15 52.79 414.95 51.84 C 414.83 53.19 414.76 54.54 414.74 55.89 C 414.73 56.63 414.69 58.11 414.67 58.85 L 414.50 59.31 C 400.68 59.01 386.85 59.42 373.03 59.33 C 323.35 59.62 273.66 59.16 223.98 59.40 C 194.55 59.44 165.11 59.92 135.69 59.29 C 137.22 57.32 139.81 57.96 141.97 57.83 C 156.96 57.92 171.95 57.72 186.94 57.80 C 190.30 57.68 193.60 56.85 196.98 56.90 C 212.67 56.98 228.35 56.87 244.04 56.89 C 251.63 55.45 259.33 56.84 266.98 55.93 C 281.31 55.91 295.64 55.83 309.97 55.88 C 314.01 55.91 317.98 55.03 322.01 54.93 C 344.09 54.96 366.18 54.94 388.25 54.59 C 396.08 53.30 404.04 54.19 411.93 53.92 Z" />
</g>
<g id="#ffffffff">
<path fill="#ffffff" opacity="1.00" d=" M 46.19 55.61 C 47.47 55.67 48.39 54.59 49.63 54.46 C 46.84 58.77 41.57 61.01 38.23 64.84 C 39.74 61.04 42.05 56.91 46.19 55.61 Z" />
<path fill="#ffffff" opacity="1.00" d=" M 177.69 71.03 C 177.41 66.55 180.61 62.47 185.04 61.75 C 190.65 61.23 196.32 61.57 201.95 61.51 C 204.86 61.37 207.87 63.96 207.39 67.02 C 207.39 100.62 207.40 134.22 207.38 167.82 C 207.32 175.85 207.43 183.89 207.33 191.92 C 207.17 197.19 202.14 201.26 197.04 201.24 C 192.03 201.22 187.02 201.24 182.01 201.23 C 179.76 201.16 177.89 199.25 177.71 197.02 C 177.62 189.66 177.75 182.30 177.65 174.94 C 177.70 140.31 177.61 105.67 177.69 71.03 Z" />
<path fill="#ffffff" opacity="1.00" d=" M 1265.39 69.98 C 1265.47 67.21 1264.73 64.34 1265.67 61.66 C 1267.16 65.96 1268.79 70.36 1268.62 74.99 C 1268.61 116.33 1268.63 157.66 1268.61 199.00 C 1268.36 208.80 1269.20 218.68 1268.11 228.44 C 1267.41 236.75 1263.57 245.08 1256.71 250.07 C 1255.84 245.63 1260.76 242.44 1261.15 238.03 C 1265.07 230.39 1265.66 221.54 1264.58 213.17 C 1265.62 208.50 1265.11 203.72 1265.17 198.99 C 1265.35 155.99 1265.23 112.98 1265.39 69.98 Z" />
<path fill="#ffffff" opacity="1.00" d=" M 88.50 111.47 C 95.18 105.64 104.30 103.70 112.95 103.63 C 129.31 103.61 145.66 103.61 162.01 103.63 C 164.94 103.47 167.63 106.08 167.28 109.06 C 166.94 113.74 168.17 118.74 166.10 123.14 C 164.63 126.66 160.59 128.34 156.99 128.41 C 142.65 128.45 128.31 128.41 113.97 128.43 C 111.87 128.44 109.60 128.73 107.89 130.06 C 106.84 131.60 107.71 133.81 109.34 134.49 C 113.10 136.14 117.15 136.98 121.17 137.73 C 129.48 139.91 137.90 141.63 146.24 143.67 C 153.77 145.78 161.44 149.34 165.99 155.98 C 170.30 161.96 170.98 169.64 170.29 176.78 C 169.27 183.80 165.54 190.60 159.49 194.49 C 152.38 199.55 143.44 200.83 134.93 201.22 C 117.93 201.23 100.94 201.26 83.95 201.21 C 83.44 201.02 82.43 200.66 81.92 200.48 C 80.22 198.36 80.58 195.54 80.55 193.01 C 80.66 189.36 80.14 185.58 81.43 182.07 C 83.00 178.31 87.18 176.65 91.05 176.71 C 106.05 176.64 121.05 176.75 136.05 176.66 C 138.22 176.57 141.12 175.47 141.37 173.01 C 140.51 169.23 136.02 168.79 132.94 167.81 C 126.89 166.90 121.03 165.02 114.99 164.03 C 105.41 161.90 95.05 160.31 87.44 153.54 C 75.08 143.02 76.38 121.66 88.50 111.47 Z" />
<path fill="#ffffff" opacity="1.00" d=" M 244.88 107.99 C 247.11 105.24 250.53 103.66 254.06 103.63 C 261.37 103.61 268.68 103.62 275.99 103.63 C 279.71 103.57 283.38 105.37 285.28 108.62 C 293.32 121.72 301.77 134.56 309.62 147.77 C 313.05 152.70 316.04 157.92 319.32 162.95 C 322.90 156.64 325.43 149.67 328.42 143.02 C 333.18 132.25 337.89 121.47 342.65 110.70 C 343.70 107.63 345.39 104.13 349.03 103.70 C 355.70 103.57 362.38 103.60 369.05 103.68 C 372.37 104.35 373.46 108.15 372.03 110.95 C 367.85 119.66 363.75 128.41 359.69 137.18 C 345.44 167.15 331.43 197.23 317.29 227.25 C 315.38 230.77 314.38 234.87 311.54 237.82 C 310.46 238.35 309.31 238.82 308.10 238.84 C 302.04 238.86 295.98 238.86 289.93 238.84 C 288.19 238.87 286.75 237.52 285.90 236.13 C 285.06 232.69 287.38 229.87 288.60 226.89 C 294.68 214.99 300.25 202.82 306.45 190.98 C 297.54 178.06 289.09 164.82 280.18 151.90 C 274.86 143.62 269.17 135.58 263.89 127.27 C 256.32 134.37 249.55 142.50 242.29 150.00 C 244.19 153.01 246.15 155.98 248.22 158.87 C 255.66 170.32 263.37 181.59 270.93 192.97 C 272.40 194.56 273.46 197.15 272.08 199.12 C 270.73 200.40 268.91 201.42 266.99 201.24 C 260.27 201.22 253.55 201.24 246.84 201.23 C 244.67 200.67 242.86 199.24 241.64 197.39 C 234.09 186.56 226.63 175.67 219.14 164.80 C 215.42 159.24 211.25 153.96 207.93 148.16 C 220.05 134.59 232.61 121.42 244.88 107.99 Z" />
<path fill="#ffffff" opacity="1.00" d=" M 1244.23 257.88 C 1248.12 256.65 1252.26 256.86 1255.98 255.01 C 1255.73 255.37 1255.25 256.10 1255.01 256.47 C 1251.51 257.91 1247.56 256.69 1244.06 258.24 C 1229.66 258.66 1215.26 258.67 1200.86 258.58 C 1200.44 258.76 1199.59 259.12 1199.17 259.30 C 874.41 259.25 549.66 259.31 224.91 259.28 C 222.53 259.61 220.36 258.23 217.97 258.72 C 214.38 259.82 210.56 259.03 206.86 259.28 C 201.00 258.26 194.94 258.91 188.98 258.77 C 182.67 260.20 176.32 258.38 169.96 258.78 C 165.97 258.96 161.85 258.16 157.96 259.27 L 158.43 258.58 C 167.64 257.87 176.86 258.84 186.08 258.70 C 191.71 258.13 197.40 258.48 203.05 258.39 C 209.35 259.37 215.73 258.12 221.98 258.59 C 547.70 258.59 873.44 258.61 1199.17 258.58 C 1200.41 258.11 1201.65 257.48 1203.05 257.72 C 1216.77 257.88 1230.51 257.36 1244.23 257.88 Z" />
</g>
<g id="#b1b0b0ff">
<path fill="#b1b0b0" opacity="1.00" d=" M 414.74 55.89 C 420.57 55.29 426.49 56.32 432.26 55.13 C 432.25 56.42 432.23 57.71 432.20 59.00 C 426.36 58.94 420.51 59.09 414.67 58.85 C 414.69 58.11 414.73 56.63 414.74 55.89 Z" />
</g>
<g id="#ebebebff">
<path fill="#ebebeb" opacity="1.00" d=" M 1255.05 54.74 C 1256.82 54.98 1258.56 55.47 1260.23 56.16 C 1259.25 56.58 1258.30 57.03 1257.39 57.52 C 1256.46 61.67 1256.86 66.08 1257.77 70.21 C 1258.97 74.83 1256.26 79.34 1256.99 84.02 C 1257.70 88.38 1255.63 92.67 1256.89 96.96 C 1255.10 100.30 1255.50 104.33 1255.89 108.01 C 1255.39 119.64 1254.66 131.34 1254.86 142.99 C 1253.17 149.88 1254.59 156.98 1253.84 163.94 C 1252.99 170.23 1253.52 176.63 1252.26 182.85 C 1252.57 184.73 1254.93 186.71 1253.01 188.39 C 1248.39 178.12 1243.55 167.59 1235.34 159.65 C 1228.36 153.21 1220.26 147.93 1211.37 144.56 C 1190.49 136.29 1167.92 134.31 1146.02 130.22 C 1140.22 129.32 1134.39 128.34 1128.52 128.37 C 1128.35 128.14 1128.02 127.68 1127.85 127.44 C 1125.61 121.05 1123.06 114.75 1120.35 108.55 C 1117.56 101.95 1111.56 96.01 1104.01 95.92 C 1097.11 95.89 1089.26 94.77 1083.54 99.53 C 1077.00 104.93 1075.02 113.59 1071.80 121.05 L 1071.62 121.35 C 1056.82 119.33 1041.92 118.27 1027.08 116.74 C 1026.05 111.22 1028.57 104.83 1024.99 99.97 C 1021.59 95.77 1014.32 94.18 1010.27 98.28 C 1006.29 103.51 1002.92 109.19 999.10 114.53 L 998.61 115.24 C 994.92 113.70 990.85 114.04 986.96 113.67 C 977.31 112.86 967.62 112.83 957.98 111.96 C 948.45 111.60 938.81 109.86 929.33 111.34 C 929.05 111.02 928.49 110.40 928.21 110.08 C 926.09 106.52 923.63 103.16 921.36 99.69 C 917.08 92.67 904.70 96.18 903.77 104.04 C 903.57 105.70 903.63 107.37 903.60 109.04 C 898.83 109.07 894.12 108.16 889.35 108.13 C 889.06 104.22 889.24 100.30 889.27 96.38 C 888.99 96.25 888.42 96.00 888.14 95.87 C 865.10 95.84 842.05 95.84 819.00 95.88 C 811.49 95.95 804.28 99.22 799.14 104.67 L 798.42 105.38 C 790.80 104.03 783.05 105.32 775.40 104.60 C 775.25 101.71 775.44 98.81 775.27 95.92 C 768.68 96.04 761.95 95.37 755.46 96.27 C 755.47 98.93 755.54 101.60 755.50 104.26 L 755.45 105.02 C 750.69 104.07 745.85 104.62 741.06 104.82 C 728.38 104.70 715.71 105.19 703.04 105.10 C 699.89 105.14 696.65 105.02 693.68 106.22 C 693.52 106.05 693.21 105.72 693.05 105.55 C 693.80 103.14 693.73 100.59 694.19 98.13 C 694.75 99.09 695.28 100.07 695.88 101.02 C 696.25 100.67 697.00 99.96 697.38 99.60 C 697.84 99.89 698.30 100.18 698.78 100.48 C 699.92 99.67 700.87 96.90 702.54 98.33 C 702.76 98.95 703.20 100.18 703.42 100.79 C 703.87 97.75 706.45 95.93 707.86 93.38 C 709.57 93.00 711.27 92.58 712.76 91.61 C 713.39 91.92 714.02 92.23 714.66 92.54 C 715.71 91.15 715.89 88.79 717.78 88.26 C 718.60 89.68 718.41 91.33 718.34 92.89 C 720.84 91.08 723.30 88.79 723.23 85.44 C 723.54 85.66 724.17 86.09 724.49 86.31 C 726.25 85.95 727.97 85.23 729.82 85.40 C 729.63 84.45 729.38 83.51 729.21 82.56 C 730.00 82.57 730.81 82.58 731.62 82.59 C 731.59 81.88 731.57 81.18 731.57 80.48 C 732.87 80.35 734.17 80.10 735.47 79.88 C 736.89 80.23 738.27 80.88 739.78 80.67 C 741.17 79.07 742.15 77.16 743.40 75.45 C 744.65 76.20 745.78 77.14 747.02 77.93 C 750.88 77.03 748.47 73.08 749.55 70.62 C 750.62 70.57 751.69 70.63 752.78 70.58 C 754.24 69.46 755.12 67.74 756.59 66.59 C 757.73 66.54 758.86 66.75 760.02 66.80 C 760.82 66.05 761.52 65.19 762.31 64.41 C 763.62 64.38 763.29 66.01 763.74 66.86 C 764.93 66.74 764.76 65.25 765.26 64.44 C 765.54 64.65 766.11 65.09 766.40 65.31 C 768.45 64.21 770.64 63.29 773.01 63.17 C 781.57 62.52 790.18 63.56 798.73 62.71 C 809.56 63.11 820.45 63.24 831.29 62.77 C 837.07 62.99 842.86 61.76 848.64 62.58 C 858.08 62.48 867.57 61.44 877.02 62.48 C 881.14 62.04 885.28 62.19 889.41 62.52 C 900.92 61.44 912.52 63.62 924.00 62.05 C 973.67 62.03 1023.34 62.05 1073.01 62.01 C 1091.77 61.99 1110.57 62.23 1129.28 61.61 C 1134.26 62.31 1139.26 61.09 1144.26 61.65 C 1147.92 62.08 1151.59 61.22 1155.27 61.67 C 1159.26 61.52 1163.28 62.25 1167.23 61.47 C 1170.81 60.75 1174.45 61.46 1178.07 61.22 C 1183.43 62.00 1188.81 60.19 1194.13 61.70 C 1212.64 60.16 1231.36 61.67 1249.93 60.95 C 1253.04 60.41 1254.37 57.50 1255.05 54.74 Z" />
</g>
<g id="#e2e3e3ff">
<path fill="#e2e3e3" opacity="1.00" d=" M 1260.23 56.16 C 1261.22 56.37 1262.22 56.57 1263.25 56.75 C 1263.91 58.07 1265.03 59.03 1266.16 59.97 C 1266.03 60.39 1265.79 61.24 1265.67 61.66 C 1264.73 64.34 1265.47 67.21 1265.39 69.98 C 1265.23 112.98 1265.35 155.99 1265.17 198.99 C 1265.11 203.72 1265.62 208.50 1264.58 213.17 C 1262.90 209.96 1261.63 206.56 1259.88 203.39 C 1257.83 198.28 1254.86 193.58 1253.01 188.39 C 1254.93 186.71 1252.57 184.73 1252.26 182.85 C 1253.52 176.63 1252.99 170.23 1253.84 163.94 C 1254.59 156.98 1253.17 149.88 1254.86 142.99 C 1254.66 131.34 1255.39 119.64 1255.89 108.01 C 1255.50 104.33 1255.10 100.30 1256.89 96.96 C 1255.63 92.67 1257.70 88.38 1256.99 84.02 C 1256.26 79.34 1258.97 74.83 1257.77 70.21 C 1256.86 66.08 1256.46 61.67 1257.39 57.52 C 1258.30 57.03 1259.25 56.58 1260.23 56.16 Z" />
</g>
<g id="#cfcfcfff">
<path fill="#cfcfcf" opacity="1.00" d=" M 414.50 59.31 L 414.67 58.85 C 420.51 59.09 426.36 58.94 432.20 59.00 C 432.31 82.06 432.57 105.13 432.11 128.18 C 426.32 129.00 420.48 129.33 414.66 129.84 L 414.40 129.87 C 414.76 106.36 414.52 82.83 414.50 59.31 Z" />
</g>
<g id="#cfd1daff">
<path fill="#cfd1da" opacity="1.00" d=" M 1266.16 59.97 C 1270.11 63.59 1271.54 69.35 1271.63 74.54 C 1271.01 82.99 1271.73 91.51 1271.49 99.99 C 1271.46 134.98 1271.47 169.97 1271.49 204.95 C 1271.39 212.62 1271.78 220.34 1270.68 227.95 C 1270.68 229.31 1269.76 230.31 1269.04 231.34 C 1268.81 230.62 1268.34 229.16 1268.11 228.44 C 1269.20 218.68 1268.36 208.80 1268.61 199.00 C 1268.63 157.66 1268.61 116.33 1268.62 74.99 C 1268.79 70.36 1267.16 65.96 1265.67 61.66 C 1265.79 61.24 1266.03 60.39 1266.16 59.97 Z" />
</g>
<g id="#91939cff">
<path fill="#91939c" opacity="1.00" d=" M 1273.83 70.98 C 1274.04 70.79 1274.46 70.40 1274.67 70.21 C 1274.45 75.19 1276.23 79.99 1275.73 84.98 C 1275.92 118.64 1275.23 152.31 1275.85 185.96 C 1274.80 198.37 1276.00 210.89 1274.30 223.25 C 1273.80 225.73 1273.27 228.22 1273.23 230.76 C 1272.90 231.39 1272.24 232.65 1271.91 233.28 C 1271.42 229.84 1272.71 226.51 1272.66 223.09 C 1272.67 196.05 1272.70 169.02 1272.65 141.99 C 1273.01 137.04 1271.93 131.94 1273.29 127.11 C 1273.56 126.72 1274.10 125.94 1274.37 125.54 C 1274.58 118.79 1274.44 112.01 1274.35 105.25 C 1274.71 93.82 1274.89 82.37 1273.83 70.98 Z" />
</g>
<g id="#9fa2adff">
<path fill="#9fa2ad" opacity="1.00" d=" M 1271.63 74.54 C 1273.11 75.95 1272.71 78.10 1272.90 79.94 C 1273.49 95.65 1273.76 111.40 1273.29 127.11 C 1271.93 131.94 1273.01 137.04 1272.65 141.99 C 1272.70 169.02 1272.67 196.05 1272.66 223.09 C 1272.71 226.51 1271.42 229.84 1271.91 233.28 C 1271.53 236.95 1270.01 240.32 1268.62 243.68 C 1268.20 243.98 1267.35 244.59 1266.93 244.89 C 1266.38 244.01 1265.98 243.07 1265.74 242.08 C 1266.56 238.41 1268.74 235.14 1269.04 231.34 C 1269.76 230.31 1270.68 229.31 1270.68 227.95 C 1271.78 220.34 1271.39 212.62 1271.49 204.95 C 1271.47 169.97 1271.46 134.98 1271.49 99.99 C 1271.73 91.51 1271.01 82.99 1271.63 74.54 Z" />
<path fill="#9fa2ad" opacity="1.00" d=" M 1277.43 89.05 C 1277.57 86.28 1276.92 83.35 1278.01 80.71 C 1279.03 82.29 1278.41 84.22 1278.57 85.97 C 1278.52 127.65 1278.55 169.33 1278.57 211.01 C 1278.78 217.07 1277.78 223.00 1277.21 229.04 C 1277.39 214.72 1277.22 200.34 1277.27 185.99 C 1277.51 153.68 1277.34 121.36 1277.43 89.05 Z" />
</g>
<g id="#96969eff">
<path fill="#96969e" opacity="1.00" d=" M 21.96 77.71 C 22.30 78.26 22.98 79.35 23.32 79.89 C 23.40 108.26 23.15 136.63 23.45 165.00 C 24.07 138.61 23.41 112.19 23.82 85.79 C 26.34 88.18 24.68 91.46 25.50 94.36 C 26.70 98.87 25.22 103.44 25.11 107.99 C 24.98 110.34 25.74 112.61 25.91 114.94 C 26.11 136.97 25.94 159.01 26.03 181.04 C 25.92 184.72 24.98 188.34 25.24 192.04 C 25.72 203.68 24.36 215.40 26.02 226.99 C 26.07 232.26 27.76 237.26 29.76 242.07 C 27.39 242.10 27.08 238.77 24.84 238.46 L 24.67 238.40 C 22.17 229.81 21.85 220.76 21.17 211.96 C 21.25 169.95 21.08 127.93 21.26 85.91 C 22.06 83.23 21.21 80.38 21.96 77.71 Z" />
</g>
<g id="#7086b4ff">
<path fill="#7086b4" opacity="1.00" d=" M 524.68 118.45 C 529.77 105.40 543.05 96.19 557.04 95.90 C 577.08 95.77 597.12 95.86 617.16 95.85 C 618.29 100.15 617.23 105.17 617.63 109.74 C 601.20 111.21 584.84 113.40 568.39 114.70 C 567.02 114.68 565.81 115.33 564.63 115.90 C 560.84 116.09 556.92 115.05 553.27 116.54 C 543.75 116.10 534.25 119.08 524.68 118.45 Z" />
</g>
<g id="#6f85b3ff">
<path fill="#6f85b3" opacity="1.00" d=" M 632.60 95.85 C 639.14 95.83 645.69 95.78 652.24 95.88 C 652.44 99.55 652.29 103.24 652.33 106.92 C 645.71 107.10 639.09 107.99 632.50 107.96 C 632.50 103.92 632.27 99.87 632.60 95.85 Z" />
</g>
<g id="#6f86b2ff">
<path fill="#6f86b2" opacity="1.00" d=" M 669.10 105.94 C 668.42 99.59 675.01 94.67 680.96 95.63 C 686.02 96.80 688.74 101.70 692.27 105.08 C 684.55 105.56 676.81 105.39 669.10 105.94 Z" />
</g>
<g id="#6f85b1ff">
<path fill="#6f85b1" opacity="1.00" d=" M 755.46 96.27 C 761.95 95.37 768.68 96.04 775.27 95.92 C 775.44 98.81 775.25 101.71 775.40 104.60 C 768.78 104.16 762.12 104.82 755.50 104.26 C 755.54 101.60 755.47 98.93 755.46 96.27 Z" />
</g>
<g id="#6f84afff">
<path fill="#6f84af" opacity="1.00" d=" M 799.14 104.67 C 804.28 99.22 811.49 95.95 819.00 95.88 C 842.05 95.84 865.10 95.84 888.14 95.87 C 888.42 96.00 888.99 96.25 889.27 96.38 C 889.24 100.30 889.06 104.22 889.35 108.13 C 889.41 110.62 889.51 113.12 889.54 115.61 L 889.01 115.75 C 889.03 113.14 889.20 110.52 889.07 107.91 C 859.13 106.28 829.14 104.21 799.14 104.67 Z" />
</g>
<g id="#6e83afff">
<path fill="#6e83af" opacity="1.00" d=" M 903.77 104.04 C 904.70 96.18 917.08 92.67 921.36 99.69 C 923.63 103.16 926.09 106.52 928.21 110.08 C 920.00 110.36 911.81 109.24 903.60 109.04 C 903.63 107.37 903.57 105.70 903.77 104.04 Z" />
</g>
<g id="#6e83aeff">
<path fill="#6e83ae" opacity="1.00" d=" M 1010.27 98.28 C 1014.32 94.18 1021.59 95.77 1024.99 99.97 C 1028.57 104.83 1026.05 111.22 1027.08 116.74 C 1017.81 115.41 1008.42 115.15 999.10 114.53 C 1002.92 109.19 1006.29 103.51 1010.27 98.28 Z" />
</g>
<g id="#6d82adff">
<path fill="#6d82ad" opacity="1.00" d=" M 1083.54 99.53 C 1089.26 94.77 1097.11 95.89 1104.01 95.92 C 1111.56 96.01 1117.56 101.95 1120.35 108.55 C 1123.06 114.75 1125.61 121.05 1127.85 127.44 C 1120.43 126.72 1113.02 125.80 1105.61 124.98 C 1105.51 124.74 1105.31 124.26 1105.20 124.03 C 1103.96 121.52 1103.25 118.78 1101.84 116.37 C 1100.05 115.36 1097.84 115.95 1095.91 115.92 C 1094.28 118.19 1092.91 120.86 1092.62 123.67 L 1092.35 123.65 C 1085.59 122.21 1078.67 121.64 1071.80 121.05 C 1075.02 113.59 1077.00 104.93 1083.54 99.53 Z" />
</g>
<g id="#dad9d9ff">
<path fill="#dad9d9" opacity="1.00" d=" M 741.06 104.82 C 745.85 104.62 750.69 104.07 755.45 105.02 C 755.49 126.62 755.41 148.22 755.48 169.83 C 734.76 148.76 714.21 127.48 693.68 106.22 C 696.65 105.02 699.89 105.14 703.04 105.10 C 715.71 105.19 728.38 104.70 741.06 104.82 Z" />
</g>
<g id="#1b325eff">
<path fill="#1b325e" opacity="1.00" d=" M 755.50 104.26 C 762.12 104.82 768.78 104.16 775.40 104.60 C 775.38 134.07 775.40 163.54 775.41 193.00 C 775.65 195.85 774.93 198.82 772.99 200.97 C 769.26 205.16 762.38 205.70 758.47 201.45 C 736.98 179.32 715.40 157.27 693.92 135.13 C 692.26 133.65 690.99 131.78 689.15 130.51 C 689.10 155.15 689.18 179.78 689.14 204.42 C 682.45 204.51 675.75 204.52 669.07 204.41 C 669.15 171.59 669.10 138.77 669.10 105.94 C 676.81 105.39 684.55 105.56 692.27 105.08 L 693.05 105.55 C 693.21 105.72 693.52 106.05 693.68 106.22 C 714.21 127.48 734.76 148.76 755.48 169.83 C 755.41 148.22 755.49 126.62 755.45 105.02 L 755.50 104.26 Z" />
</g>
<g id="#d6d6d6ff">
<path fill="#d6d6d6" opacity="1.00" d=" M 775.40 104.60 C 783.05 105.32 790.80 104.03 798.42 105.38 C 794.48 110.38 791.68 116.55 791.74 123.00 C 791.73 141.33 791.71 159.66 791.74 177.99 C 792.13 191.84 804.27 203.99 818.11 204.44 C 841.76 204.56 865.40 204.44 889.05 204.51 C 888.76 204.87 888.19 205.58 887.90 205.94 C 885.69 206.05 883.54 206.38 881.73 207.73 C 878.96 208.14 875.95 206.57 873.38 208.22 C 870.72 208.78 868.52 210.98 865.72 210.60 C 864.27 210.44 863.42 211.86 862.28 212.45 C 861.55 212.01 860.83 211.58 860.12 211.15 C 857.14 213.01 853.68 214.63 850.09 214.46 C 848.32 215.71 846.23 216.06 844.14 216.35 C 842.39 217.25 840.79 218.90 838.66 218.33 C 836.19 217.78 834.65 220.31 832.65 221.26 C 831.73 220.82 830.86 220.29 829.96 219.89 C 828.39 220.02 827.61 221.83 826.05 221.94 C 824.81 221.85 823.61 221.63 822.40 221.55 C 822.16 222.08 821.69 223.14 821.46 223.67 C 819.18 224.54 816.83 223.44 814.53 223.35 C 814.08 224.24 813.59 225.09 813.04 225.91 C 812.04 225.73 811.05 225.58 810.07 225.46 C 807.81 226.49 804.94 228.67 802.57 226.74 C 802.59 225.88 802.64 225.01 802.71 224.15 C 802.35 224.43 801.63 224.97 801.27 225.24 C 800.76 227.39 800.91 229.62 800.84 231.81 C 800.10 230.94 799.40 230.04 798.62 229.23 C 797.04 228.34 795.99 230.16 794.76 230.79 C 792.19 231.34 789.24 230.32 786.97 231.97 C 784.63 233.70 781.29 232.19 778.98 234.02 C 775.82 236.49 771.64 235.85 767.92 235.98 C 765.05 235.90 761.89 236.52 759.42 234.72 C 757.62 236.47 755.10 235.49 752.88 235.78 C 749.59 236.15 746.28 235.16 743.04 236.06 C 737.12 237.37 731.02 236.65 725.02 236.83 C 700.31 236.77 675.60 236.95 650.90 236.91 C 649.62 236.81 648.57 237.26 647.75 238.25 C 639.97 238.53 632.17 238.44 624.39 238.35 C 618.65 237.28 612.76 237.12 606.94 237.11 C 574.60 237.20 542.26 237.21 509.93 237.29 C 495.86 237.17 481.77 237.71 467.71 237.06 C 468.92 235.47 470.58 234.15 472.70 234.38 C 476.27 234.57 479.15 231.58 482.71 232.26 C 485.21 232.45 486.81 230.30 488.24 228.61 C 491.50 229.03 493.58 225.74 496.87 225.82 C 500.28 224.75 504.02 227.15 507.17 225.15 C 507.59 224.22 508.00 223.29 508.39 222.35 C 509.16 222.76 509.91 223.25 510.70 223.68 C 510.84 223.12 511.11 222.00 511.25 221.44 C 512.43 222.34 513.53 223.40 514.98 223.86 C 514.53 222.57 513.90 221.37 513.30 220.16 C 514.69 220.33 516.12 221.16 517.52 220.72 C 517.77 220.10 518.27 218.86 518.53 218.24 C 519.16 218.97 519.74 219.74 520.39 220.48 C 521.73 219.06 523.14 217.07 525.40 217.64 C 527.02 218.07 528.17 216.72 529.47 215.99 C 529.40 216.87 529.34 217.75 529.30 218.63 C 532.13 219.32 532.53 215.84 534.36 214.55 C 535.68 214.73 536.97 215.73 538.31 215.38 C 541.28 213.85 543.37 210.81 546.71 209.95 C 546.26 210.88 545.77 211.79 545.32 212.73 C 546.78 212.76 548.25 212.73 549.72 212.62 C 549.63 210.97 548.59 209.20 549.60 207.66 C 550.95 206.70 551.30 208.92 552.15 209.60 C 553.29 208.99 554.35 208.21 555.53 207.66 C 556.18 208.32 556.79 209.05 557.45 209.72 C 557.70 209.19 558.21 208.12 558.46 207.58 C 561.06 207.52 563.87 207.99 566.02 206.12 C 561.88 205.35 557.67 206.26 553.53 205.69 C 553.33 205.28 552.93 204.46 552.74 204.05 C 555.13 204.37 557.55 204.48 559.98 204.47 C 579.19 204.46 598.41 204.49 617.63 204.47 C 617.68 197.79 617.66 191.10 617.63 184.42 C 617.87 182.82 618.12 181.18 618.87 179.72 C 619.16 180.40 619.46 181.08 619.77 181.76 C 622.72 180.14 626.09 179.40 628.81 177.32 C 630.00 177.92 629.78 179.70 630.27 180.80 C 631.94 188.59 629.88 196.78 631.46 204.53 L 632.39 204.51 C 639.04 204.41 645.70 204.54 652.35 204.45 C 652.36 171.94 652.34 139.43 652.33 106.92 C 657.91 107.02 663.52 106.27 669.10 105.94 C 669.10 138.77 669.15 171.59 669.07 204.41 C 675.75 204.52 682.45 204.51 689.14 204.42 C 689.18 179.78 689.10 155.15 689.15 130.51 C 690.99 131.78 692.26 133.65 693.92 135.13 C 715.40 157.27 736.98 179.32 758.47 201.45 C 762.38 205.70 769.26 205.16 772.99 200.97 C 774.93 198.82 775.65 195.85 775.41 193.00 C 775.40 163.54 775.38 134.07 775.40 104.60 Z" />
</g>
<g id="#1a315cff">
<path fill="#1a315c" opacity="1.00" d=" M 798.42 105.38 L 799.14 104.67 C 829.14 104.21 859.13 106.28 889.07 107.91 C 889.20 110.52 889.03 113.14 889.01 115.75 C 866.01 115.81 843.00 115.76 820.00 115.77 C 815.93 115.45 811.66 118.76 811.60 122.99 C 811.51 128.73 811.52 134.48 811.59 140.22 C 836.01 140.25 860.42 140.20 884.84 140.23 C 884.85 146.82 884.95 153.42 884.78 160.01 C 860.40 160.21 836.00 160.08 811.61 160.06 C 811.50 165.68 811.54 171.30 811.59 176.92 C 811.58 180.85 815.12 184.21 818.93 184.47 C 842.38 184.52 865.84 184.40 889.28 184.52 C 889.29 191.05 889.24 197.58 889.31 204.11 L 889.05 204.51 C 865.40 204.44 841.76 204.56 818.11 204.44 C 804.27 203.99 792.13 191.84 791.74 177.99 C 791.71 159.66 791.73 141.33 791.74 123.00 C 791.68 116.55 794.48 110.38 798.42 105.38 Z" />
</g>
<g id="#1c335fff">
<path fill="#1c335f" opacity="1.00" d=" M 632.50 107.96 C 639.09 107.99 645.71 107.10 652.33 106.92 C 652.34 139.43 652.36 171.94 652.35 204.45 C 645.70 204.54 639.04 204.41 632.39 204.51 C 632.44 172.66 632.40 140.82 632.43 108.97 C 632.45 108.72 632.48 108.21 632.50 107.96 Z" />
</g>
<g id="#d5d5d6ff">
<path fill="#d5d5d6" opacity="1.00" d=" M 889.35 108.13 C 894.12 108.16 898.83 109.07 903.60 109.04 C 903.59 140.84 903.60 172.64 903.57 204.44 C 901.83 204.30 901.86 202.31 901.82 201.04 C 901.64 197.41 902.09 193.77 901.71 190.16 C 900.48 189.29 899.80 187.27 898.27 187.17 C 898.04 189.02 898.01 190.88 897.83 192.74 C 895.69 192.66 896.45 190.36 896.46 188.98 C 893.77 188.14 893.23 190.95 891.34 191.91 C 890.74 196.09 891.49 200.36 890.91 204.56 C 890.51 204.45 889.71 204.22 889.31 204.11 C 889.24 197.58 889.29 191.05 889.28 184.52 C 865.84 184.40 842.38 184.52 818.93 184.47 C 815.12 184.21 811.58 180.85 811.59 176.92 C 811.54 171.30 811.50 165.68 811.61 160.06 C 836.00 160.08 860.40 160.21 884.78 160.01 C 884.95 153.42 884.85 146.82 884.84 140.23 C 860.42 140.20 836.01 140.25 811.59 140.22 C 811.52 134.48 811.51 128.73 811.60 122.99 C 811.66 118.76 815.93 115.45 820.00 115.77 C 843.00 115.76 866.01 115.81 889.01 115.75 L 889.54 115.61 C 889.51 113.12 889.41 110.62 889.35 108.13 Z" />
</g>
<g id="#dbdbdbff">
<path fill="#dbdbdb" opacity="1.00" d=" M 617.63 109.74 C 622.55 109.32 627.48 108.55 632.43 108.97 C 632.40 140.82 632.44 172.66 632.39 204.51 L 631.46 204.53 C 629.88 196.78 631.94 188.59 630.27 180.80 C 629.78 179.70 630.00 177.92 628.81 177.32 C 626.09 179.40 622.72 180.14 619.77 181.76 C 619.46 181.08 619.16 180.40 618.87 179.72 C 618.12 181.18 617.87 182.82 617.63 184.42 C 597.74 184.52 577.84 184.44 557.95 184.47 C 548.88 184.44 541.11 176.03 541.61 167.01 C 541.61 155.36 541.57 143.72 541.62 132.07 C 541.71 125.11 546.63 118.61 553.27 116.54 C 556.92 115.05 560.84 116.09 564.63 115.90 C 582.27 115.40 599.96 115.82 617.63 115.67 C 617.68 113.69 617.60 111.72 617.63 109.74 Z" />
</g>
<g id="#19305bff">
<path fill="#19305b" opacity="1.00" d=" M 903.60 109.04 C 911.81 109.24 920.00 110.36 928.21 110.08 C 928.49 110.40 929.05 111.02 929.33 111.34 C 941.02 129.16 953.25 146.63 964.91 164.47 L 965.73 164.27 C 976.49 147.79 987.69 131.61 998.61 115.24 L 999.10 114.53 C 1008.42 115.15 1017.81 115.41 1027.08 116.74 C 1026.78 145.99 1027.23 175.22 1027.06 204.48 C 1020.57 204.49 1014.09 204.42 1007.60 204.52 C 1007.16 182.04 1007.57 159.45 1007.41 136.93 C 996.39 152.73 985.89 169.02 975.03 184.99 C 973.06 188.65 969.44 192.13 964.98 191.75 C 961.68 191.90 958.68 189.70 956.87 187.12 C 945.62 170.41 934.50 153.59 923.19 136.93 C 922.60 159.37 922.96 181.91 923.04 204.38 C 916.55 204.56 910.06 204.45 903.57 204.44 C 903.60 172.64 903.59 140.84 903.60 109.04 Z" />
</g>
<g id="#182f5cff">
<path fill="#182f5c" opacity="1.00" d=" M 568.39 114.70 C 584.84 113.40 601.20 111.21 617.63 109.74 C 617.60 111.72 617.68 113.69 617.63 115.67 C 599.96 115.82 582.27 115.40 564.63 115.90 C 565.81 115.33 567.02 114.68 568.39 114.70 Z" />
</g>
<g id="#d4d5d5ff">
<path fill="#d4d5d5" opacity="1.00" d=" M 929.33 111.34 C 938.81 109.86 948.45 111.60 957.98 111.96 C 967.62 112.83 977.31 112.86 986.96 113.67 C 990.85 114.04 994.92 113.70 998.61 115.24 C 987.69 131.61 976.49 147.79 965.73 164.27 L 964.91 164.47 C 953.25 146.63 941.02 129.16 929.33 111.34 Z" />
</g>
<g id="#1d3461ff">
<path fill="#1d3461" opacity="1.00" d=" M 524.68 118.45 C 534.25 119.08 543.75 116.10 553.27 116.54 C 546.63 118.61 541.71 125.11 541.62 132.07 C 541.57 143.72 541.61 155.36 541.61 167.01 C 541.11 176.03 548.88 184.44 557.95 184.47 C 577.84 184.44 597.74 184.52 617.63 184.42 C 617.66 191.10 617.68 197.79 617.63 204.47 C 598.41 204.49 579.19 204.46 559.98 204.47 C 557.55 204.48 555.13 204.37 552.74 204.05 C 536.13 201.61 522.63 186.74 521.78 169.99 C 521.71 157.33 521.77 144.67 521.77 132.01 C 521.69 127.58 522.73 123.22 524.34 119.12 C 524.43 118.95 524.60 118.62 524.68 118.45 Z" />
</g>
<g id="#eaeaeaff">
<path fill="#eaeaea" opacity="1.00" d=" M 1092.62 123.67 C 1092.91 120.86 1094.28 118.19 1095.91 115.92 C 1097.84 115.95 1100.05 115.36 1101.84 116.37 C 1103.25 118.78 1103.96 121.52 1105.20 124.03 L 1104.70 124.83 C 1100.66 124.51 1096.65 123.93 1092.62 123.67 Z" />
</g>
<g id="#d2d3d3ff">
<path fill="#d2d3d3" opacity="1.00" d=" M 1027.08 116.74 C 1041.92 118.27 1056.82 119.33 1071.62 121.35 C 1062.72 143.73 1053.87 166.12 1045.13 188.56 C 1043.41 186.76 1044.95 184.25 1043.77 182.26 C 1042.64 182.50 1041.50 182.79 1040.53 183.40 C 1039.86 184.75 1040.09 186.82 1038.40 187.40 C 1035.87 188.42 1033.93 184.64 1031.43 185.68 C 1030.41 186.62 1029.55 187.78 1029.13 189.11 C 1028.62 194.28 1029.54 199.52 1028.68 204.67 C 1028.28 204.62 1027.47 204.52 1027.06 204.48 C 1027.23 175.22 1026.78 145.99 1027.08 116.74 Z" />
</g>
<g id="#dcdcdcff">
<path fill="#dcdcdc" opacity="1.00" d=" M 454.03 126.02 C 477.41 123.08 500.90 121.35 524.34 119.12 C 522.73 123.22 521.69 127.58 521.77 132.01 C 521.77 144.67 521.71 157.33 521.78 169.99 C 522.63 186.74 536.13 201.61 552.74 204.05 C 552.93 204.46 553.33 205.28 553.53 205.69 C 557.67 206.26 561.88 205.35 566.02 206.12 C 563.87 207.99 561.06 207.52 558.46 207.58 C 558.21 208.12 557.70 209.19 557.45 209.72 C 556.79 209.05 556.18 208.32 555.53 207.66 C 554.35 208.21 553.29 208.99 552.15 209.60 C 551.30 208.92 550.95 206.70 549.60 207.66 C 548.59 209.20 549.63 210.97 549.72 212.62 C 548.25 212.73 546.78 212.76 545.32 212.73 C 545.77 211.79 546.26 210.88 546.71 209.95 C 543.37 210.81 541.28 213.85 538.31 215.38 C 536.97 215.73 535.68 214.73 534.36 214.55 C 532.53 215.84 532.13 219.32 529.30 218.63 C 529.34 217.75 529.40 216.87 529.47 215.99 C 528.17 216.72 527.02 218.07 525.40 217.64 C 523.14 217.07 521.73 219.06 520.39 220.48 C 519.74 219.74 519.16 218.97 518.53 218.24 C 518.27 218.86 517.77 220.10 517.52 220.72 C 516.12 221.16 514.69 220.33 513.30 220.16 C 513.90 221.37 514.53 222.57 514.98 223.86 C 513.53 223.40 512.43 222.34 511.25 221.44 C 511.11 222.00 510.84 223.12 510.70 223.68 C 509.91 223.25 509.16 222.76 508.39 222.35 C 508.00 223.29 507.59 224.22 507.17 225.15 C 504.02 227.15 500.28 224.75 496.87 225.82 C 493.58 225.74 491.50 229.03 488.24 228.61 C 486.81 230.30 485.21 232.45 482.71 232.26 C 479.15 231.58 476.27 234.57 472.70 234.38 C 470.58 234.15 468.92 235.47 467.71 237.06 C 458.80 237.54 449.87 237.17 440.95 237.33 C 438.37 237.20 435.68 237.68 433.19 236.91 C 432.61 235.01 432.78 232.99 432.72 231.04 C 432.69 200.35 432.61 169.67 432.65 138.98 C 432.65 135.42 432.59 131.86 432.90 128.31 C 439.94 127.54 446.93 126.23 454.03 126.02 Z" />
</g>
<g id="#182f59ff">
<path fill="#182f59" opacity="1.00" d=" M 1071.62 121.35 L 1071.80 121.05 C 1078.67 121.64 1085.59 122.21 1092.35 123.65 C 1087.21 135.80 1082.75 148.26 1077.40 160.32 C 1091.44 160.77 1105.60 160.46 1119.69 160.47 C 1115.06 148.62 1110.09 136.89 1105.61 124.98 C 1113.02 125.80 1120.43 126.72 1127.85 127.44 C 1128.02 127.68 1128.35 128.14 1128.52 128.37 C 1138.37 153.78 1148.42 179.10 1158.49 204.42 C 1151.32 204.52 1144.14 204.51 1136.97 204.43 C 1133.38 196.38 1130.82 187.88 1127.04 179.92 C 1107.99 179.90 1088.95 179.83 1069.91 179.95 C 1066.73 188.16 1063.67 196.48 1060.16 204.51 C 1053.04 204.34 1045.91 204.65 1038.81 204.35 C 1041.07 199.15 1042.90 193.78 1045.13 188.56 C 1053.87 166.12 1062.72 143.73 1071.62 121.35 Z" />
</g>
<g id="#d1d1d1ff">
<path fill="#d1d1d1" opacity="1.00" d=" M 1092.35 123.65 L 1092.62 123.67 C 1096.65 123.93 1100.66 124.51 1104.70 124.83 L 1105.20 124.03 C 1105.31 124.26 1105.51 124.74 1105.61 124.98 C 1110.09 136.89 1115.06 148.62 1119.69 160.47 C 1105.60 160.46 1091.44 160.77 1077.40 160.32 C 1082.75 148.26 1087.21 135.80 1092.35 123.65 Z" />
</g>
<g id="#687fb7ff">
<path fill="#687fb7" opacity="1.00" d=" M 242.29 150.00 C 249.55 142.50 256.32 134.37 263.89 127.27 C 269.17 135.58 274.86 143.62 280.18 151.90 C 269.60 154.52 258.79 156.17 248.22 158.87 C 246.15 155.98 244.19 153.01 242.29 150.00 Z" />
</g>
<g id="#939494ff">
<path fill="#939494" opacity="1.00" d=" M 414.66 129.84 C 420.48 129.33 426.32 129.00 432.11 128.18 C 432.04 164.50 432.45 200.82 432.05 237.14 C 426.47 239.14 420.44 238.32 414.64 238.19 C 414.65 202.07 414.50 165.96 414.66 129.84 Z" />
</g>
<g id="#c9c9caff">
<path fill="#c9c9ca" opacity="1.00" d=" M 432.11 128.18 L 432.90 128.31 C 432.59 131.86 432.65 135.42 432.65 138.98 C 432.61 169.67 432.69 200.35 432.72 231.04 C 432.78 232.99 432.61 235.01 433.19 236.91 C 435.68 237.68 438.37 237.20 440.95 237.33 C 449.87 237.17 458.80 237.54 467.71 237.06 C 481.77 237.71 495.86 237.17 509.93 237.29 C 542.26 237.21 574.60 237.20 606.94 237.11 C 612.76 237.12 618.65 237.28 624.39 238.35 C 621.59 240.17 618.14 239.68 614.97 239.80 C 555.64 239.76 496.32 240.20 436.98 240.19 C 435.51 240.11 434.12 240.57 432.77 241.06 C 432.66 240.75 432.42 240.12 432.31 239.81 C 432.24 239.14 432.12 237.80 432.05 237.14 C 432.45 200.82 432.04 164.50 432.11 128.18 Z" />
</g>
<g id="#cfceceff">
<path fill="#cfcece" opacity="1.00" d=" M 1128.52 128.37 C 1134.39 128.34 1140.22 129.32 1146.02 130.22 C 1167.92 134.31 1190.49 136.29 1211.37 144.56 C 1220.26 147.93 1228.36 153.21 1235.34 159.65 C 1243.55 167.59 1248.39 178.12 1253.01 188.39 C 1254.86 193.58 1257.83 198.28 1259.88 203.39 C 1258.71 206.80 1260.17 210.47 1259.70 214.00 C 1260.03 220.12 1259.19 226.13 1258.03 232.12 C 1256.22 234.14 1254.37 236.52 1251.83 237.54 C 1199.90 237.70 1147.97 237.60 1096.04 237.74 C 1029.35 237.67 962.69 238.17 896.01 238.23 C 840.99 238.26 785.98 238.45 730.97 238.39 C 703.23 238.30 675.48 238.67 647.75 238.25 C 648.57 237.26 649.62 236.81 650.90 236.91 C 675.60 236.95 700.31 236.77 725.02 236.83 C 731.02 236.65 737.12 237.37 743.04 236.06 C 746.28 235.16 749.59 236.15 752.88 235.78 C 755.10 235.49 757.62 236.47 759.42 234.72 C 761.89 236.52 765.05 235.90 767.92 235.98 C 771.64 235.85 775.82 236.49 778.98 234.02 C 781.29 232.19 784.63 233.70 786.97 231.97 C 789.24 230.32 792.19 231.34 794.76 230.79 C 795.99 230.16 797.04 228.34 798.62 229.23 C 799.40 230.04 800.10 230.94 800.84 231.81 C 800.91 229.62 800.76 227.39 801.27 225.24 C 801.63 224.97 802.35 224.43 802.71 224.15 C 802.64 225.01 802.59 225.88 802.57 226.74 C 804.94 228.67 807.81 226.49 810.07 225.46 C 811.05 225.58 812.04 225.73 813.04 225.91 C 813.59 225.09 814.08 224.24 814.53 223.35 C 816.83 223.44 819.18 224.54 821.46 223.67 C 821.69 223.14 822.16 222.08 822.40 221.55 C 823.61 221.63 824.81 221.85 826.05 221.94 C 827.61 221.83 828.39 220.02 829.96 219.89 C 830.86 220.29 831.73 220.82 832.65 221.26 C 834.65 220.31 836.19 217.78 838.66 218.33 C 840.79 218.90 842.39 217.25 844.14 216.35 C 846.23 216.06 848.32 215.71 850.09 214.46 C 853.68 214.63 857.14 213.01 860.12 211.15 C 860.83 211.58 861.55 212.01 862.28 212.45 C 863.42 211.86 864.27 210.44 865.72 210.60 C 868.52 210.98 870.72 208.78 873.38 208.22 C 875.95 206.57 878.96 208.14 881.73 207.73 C 883.54 206.38 885.69 206.05 887.90 205.94 C 888.19 205.58 888.76 204.87 889.05 204.51 L 889.31 204.11 C 889.71 204.22 890.51 204.45 890.91 204.56 C 891.49 200.36 890.74 196.09 891.34 191.91 C 893.23 190.95 893.77 188.14 896.46 188.98 C 896.45 190.36 895.69 192.66 897.83 192.74 C 898.01 190.88 898.04 189.02 898.27 187.17 C 899.80 187.27 900.48 189.29 901.71 190.16 C 902.09 193.77 901.64 197.41 901.82 201.04 C 901.86 202.31 901.83 204.30 903.57 204.44 C 910.06 204.45 916.55 204.56 923.04 204.38 C 922.96 181.91 922.60 159.37 923.19 136.93 C 934.50 153.59 945.62 170.41 956.87 187.12 C 958.68 189.70 961.68 191.90 964.98 191.75 C 969.44 192.13 973.06 188.65 975.03 184.99 C 985.89 169.02 996.39 152.73 1007.41 136.93 C 1007.57 159.45 1007.16 182.04 1007.60 204.52 C 1014.09 204.42 1020.57 204.49 1027.06 204.48 C 1027.47 204.52 1028.28 204.62 1028.68 204.67 C 1029.54 199.52 1028.62 194.28 1029.13 189.11 C 1029.55 187.78 1030.41 186.62 1031.43 185.68 C 1033.93 184.64 1035.87 188.42 1038.40 187.40 C 1040.09 186.82 1039.86 184.75 1040.53 183.40 C 1041.50 182.79 1042.64 182.50 1043.77 182.26 C 1044.95 184.25 1043.41 186.76 1045.13 188.56 C 1042.90 193.78 1041.07 199.15 1038.81 204.35 C 1045.91 204.65 1053.04 204.34 1060.16 204.51 C 1063.67 196.48 1066.73 188.16 1069.91 179.95 C 1088.95 179.83 1107.99 179.90 1127.04 179.92 C 1130.82 187.88 1133.38 196.38 1136.97 204.43 C 1144.14 204.51 1151.32 204.52 1158.49 204.42 C 1148.42 179.10 1138.37 153.78 1128.52 128.37 Z" />
</g>
<g id="#1e2e64ff">
<path fill="#1e2e64" opacity="1.00" d=" M 382.66 134.42 C 393.19 132.55 403.87 131.74 414.40 129.87 L 414.66 129.84 C 414.50 165.96 414.65 202.07 414.64 238.19 C 414.62 238.39 414.58 238.80 414.56 239.01 C 412.40 238.33 410.18 239.30 407.99 239.24 C 377.34 239.26 346.69 239.16 316.04 239.24 C 314.38 239.39 312.96 238.50 311.54 237.82 C 314.38 234.87 315.38 230.77 317.29 227.25 C 331.43 197.23 345.44 167.15 359.69 137.18 C 367.41 137.26 374.94 134.84 382.66 134.42 Z" />
</g>
<g id="#1e2f67ff">
<path fill="#1e2f67" opacity="1.00" d=" M 313.37 145.62 C 318.43 145.00 323.37 143.67 328.42 143.02 C 325.43 149.67 322.90 156.64 319.32 162.95 C 316.04 157.92 313.05 152.70 309.62 147.77 L 309.54 146.90 C 310.38 145.71 312.12 146.02 313.37 145.62 Z" />
</g>
<g id="#1e2e66ff">
<path fill="#1e2e66" opacity="1.00" d=" M 248.22 158.87 C 258.79 156.17 269.60 154.52 280.18 151.90 C 289.09 164.82 297.54 178.06 306.45 190.98 C 300.25 202.82 294.68 214.99 288.60 226.89 C 287.38 229.87 285.06 232.69 285.90 236.13 C 283.66 237.93 280.69 237.31 278.04 237.42 C 205.02 237.43 132.00 237.35 58.98 237.45 C 52.54 238.14 46.31 236.22 40.04 235.18 C 38.83 234.83 38.01 233.82 37.05 233.09 C 48.88 218.54 65.60 209.15 81.92 200.48 C 82.43 200.66 83.44 201.02 83.95 201.21 C 100.94 201.26 117.93 201.23 134.93 201.22 C 143.44 200.83 152.38 199.55 159.49 194.49 C 165.54 190.60 169.27 183.80 170.29 176.78 C 172.71 176.04 175.18 175.50 177.65 174.94 C 177.75 182.30 177.62 189.66 177.71 197.02 C 177.89 199.25 179.76 201.16 182.01 201.23 C 187.02 201.24 192.03 201.22 197.04 201.24 C 202.14 201.26 207.17 197.19 207.33 191.92 C 207.43 183.89 207.32 175.85 207.38 167.82 C 211.37 167.14 215.34 166.22 219.14 164.80 C 226.63 175.67 234.09 186.56 241.64 197.39 C 242.86 199.24 244.67 200.67 246.84 201.23 C 253.55 201.24 260.27 201.22 266.99 201.24 C 268.91 201.42 270.73 200.40 272.08 199.12 C 273.46 197.15 272.40 194.56 270.93 192.97 C 263.37 181.59 255.66 170.32 248.22 158.87 Z" />
</g>
<g id="#6f6b6bff">
<path fill="#6f6b6b" opacity="1.00" d=" M 1275.85 185.96 L 1277.27 185.99 C 1277.22 200.34 1277.39 214.72 1277.21 229.04 C 1276.58 232.04 1276.37 235.13 1275.34 238.04 C 1274.83 235.56 1274.11 233.13 1273.23 230.76 C 1273.27 228.22 1273.80 225.73 1274.30 223.25 C 1276.00 210.89 1274.80 198.37 1275.85 185.96 Z" />
</g>
<g id="#bdbdbeff">
<path fill="#bdbdbe" opacity="1.00" d=" M 1259.70 214.00 C 1260.17 210.47 1258.71 206.80 1259.88 203.39 C 1261.63 206.56 1262.90 209.96 1264.58 213.17 C 1265.66 221.54 1265.07 230.39 1261.15 238.03 C 1260.42 238.69 1259.72 239.36 1259.04 240.05 C 1259.16 236.75 1259.91 233.48 1259.77 230.18 C 1259.33 230.66 1258.46 231.63 1258.03 232.12 C 1259.19 226.13 1260.03 220.12 1259.70 214.00 Z" />
</g>
<g id="#b2b2b2ff">
<path fill="#b2b2b2" opacity="1.00" d=" M 1259.77 230.18 C 1259.91 233.48 1259.16 236.75 1259.04 240.05 C 1257.72 242.80 1255.71 245.10 1253.54 247.22 C 1253.39 243.62 1249.27 241.49 1246.00 241.78 C 1242.40 241.38 1238.93 242.70 1235.37 242.53 C 1230.55 241.89 1225.68 242.99 1220.89 242.12 C 1217.81 241.26 1214.79 242.96 1211.72 242.39 C 1209.49 242.08 1207.24 241.47 1205.02 242.03 C 1198.18 243.36 1191.22 241.87 1184.35 242.53 C 1021.95 242.73 859.49 242.75 697.01 242.78 C 609.16 242.74 521.30 242.98 433.45 242.74 C 433.28 242.32 432.94 241.48 432.77 241.06 C 434.12 240.57 435.51 240.11 436.98 240.19 C 496.32 240.20 555.64 239.76 614.97 239.80 C 618.14 239.68 621.59 240.17 624.39 238.35 C 632.17 238.44 639.97 238.53 647.75 238.25 C 675.48 238.67 703.23 238.30 730.97 238.39 C 785.98 238.45 840.99 238.26 896.01 238.23 C 962.69 238.17 1029.35 237.67 1096.04 237.74 C 1147.97 237.60 1199.90 237.70 1251.83 237.54 C 1254.37 236.52 1256.22 234.14 1258.03 232.12 C 1258.46 231.63 1259.33 230.66 1259.77 230.18 Z" />
</g>
<g id="#686365ff">
<path fill="#686365" opacity="1.00" d=" M 1273.23 230.76 C 1274.11 233.13 1274.83 235.56 1275.34 238.04 C 1273.16 244.83 1269.35 251.21 1263.73 255.71 L 1262.69 255.75 C 1260.14 256.17 1257.60 257.00 1255.01 256.47 C 1255.25 256.10 1255.73 255.37 1255.98 255.01 C 1252.26 256.86 1248.12 256.65 1244.23 257.88 C 1230.51 257.36 1216.77 257.88 1203.05 257.72 C 1201.65 257.48 1200.41 258.11 1199.17 258.58 C 873.44 258.61 547.70 258.59 221.98 258.59 C 215.73 258.12 209.35 259.37 203.05 258.39 C 197.40 258.48 191.71 258.13 186.08 258.70 C 176.86 258.84 167.64 257.87 158.43 258.58 C 150.30 258.15 142.00 259.16 134.04 257.70 C 110.40 257.71 86.75 257.43 63.11 257.54 C 56.80 257.77 50.62 256.15 44.53 254.72 L 45.32 254.31 C 57.87 254.65 70.45 255.02 83.02 254.70 C 114.02 255.02 145.01 254.53 176.01 254.79 C 180.04 254.92 184.01 253.97 188.05 254.10 C 230.04 254.33 272.03 254.17 314.03 253.97 C 319.69 254.16 325.36 254.19 331.00 254.77 C 365.01 255.64 399.03 254.98 433.04 255.21 C 631.35 255.31 829.66 255.27 1027.97 255.29 C 1071.47 255.09 1115.00 255.80 1158.48 254.61 L 1158.89 254.32 C 1156.45 254.12 1153.92 254.37 1151.71 253.19 C 1168.58 252.99 1185.46 253.02 1202.34 253.00 C 1205.11 253.04 1207.89 252.98 1210.68 253.05 C 1213.81 254.79 1217.50 253.93 1220.93 254.12 C 1224.98 254.02 1228.91 255.37 1232.97 255.13 C 1238.33 254.82 1243.76 255.68 1249.06 254.51 C 1252.71 254.31 1256.39 253.56 1260.06 254.04 C 1263.76 251.74 1268.34 248.35 1268.62 243.68 C 1270.01 240.32 1271.53 236.95 1271.91 233.28 C 1272.24 232.65 1272.90 231.39 1273.23 230.76 Z" />
</g>
<g id="#192244ff">
<path fill="#192244" opacity="1.00" d=" M 37.05 233.09 C 38.01 233.82 38.83 234.83 40.04 235.18 C 46.31 236.22 52.54 238.14 58.98 237.45 C 132.00 237.35 205.02 237.43 278.04 237.42 C 280.69 237.31 283.66 237.93 285.90 236.13 C 286.75 237.52 288.19 238.87 289.93 238.84 C 295.98 238.86 302.04 238.86 308.10 238.84 C 309.31 238.82 310.46 238.35 311.54 237.82 C 312.96 238.50 314.38 239.39 316.04 239.24 C 346.69 239.16 377.34 239.26 407.99 239.24 C 410.18 239.30 412.40 238.33 414.56 239.01 C 414.59 241.39 414.65 243.77 414.91 246.14 C 415.00 246.82 415.18 248.17 415.27 248.84 C 415.31 250.25 415.27 251.67 415.15 253.08 C 391.46 253.37 367.76 253.17 344.06 253.18 C 337.17 252.53 330.25 252.13 323.32 252.29 C 300.56 251.44 277.76 252.19 254.98 251.99 C 245.88 252.19 236.77 251.95 227.67 252.21 C 197.44 251.97 167.21 252.57 136.98 252.73 C 116.98 253.54 96.96 252.98 76.95 253.24 C 70.74 253.11 64.51 253.62 58.32 253.01 C 58.06 252.44 57.53 251.29 57.27 250.72 C 55.00 249.59 52.53 248.91 50.30 247.67 C 47.48 246.24 45.60 243.33 42.43 242.53 C 40.44 241.95 38.20 240.57 36.27 242.06 C 35.50 241.27 34.70 240.51 33.89 239.76 L 33.77 238.74 L 33.68 237.95 C 34.69 236.25 35.79 234.61 37.05 233.09 Z" />
</g>
<g id="#737373ff">
<path fill="#737373" opacity="1.00" d=" M 414.64 238.19 C 420.44 238.32 426.47 239.14 432.05 237.14 C 432.12 237.80 432.24 239.14 432.31 239.81 C 432.29 241.58 432.30 243.35 432.34 245.13 C 428.96 246.10 425.43 245.74 421.97 245.74 C 419.60 245.69 417.27 246.61 414.91 246.14 C 414.65 243.77 414.59 241.39 414.56 239.01 C 414.58 238.80 414.62 238.39 414.64 238.19 Z" />
</g>
<g id="#d0d1d1ff">
<path fill="#d0d1d1" opacity="1.00" d=" M 1259.04 240.05 C 1259.72 239.36 1260.42 238.69 1261.15 238.03 C 1260.76 242.44 1255.84 245.63 1256.71 250.07 C 1255.04 251.49 1252.76 251.75 1250.79 252.54 C 1249.88 250.56 1252.73 248.93 1253.54 247.22 C 1255.71 245.10 1257.72 242.80 1259.04 240.05 Z" />
</g>
<g id="#6a6568ff">
<path fill="#6a6568" opacity="1.00" d=" M 33.89 239.76 C 34.70 240.51 35.50 241.27 36.27 242.06 C 40.06 246.97 45.64 250.12 51.42 252.11 C 46.54 253.31 41.21 251.92 37.09 249.16 C 36.72 249.56 35.97 250.37 35.60 250.77 C 33.31 248.50 30.53 246.14 29.84 242.86 C 31.72 242.95 32.53 245.01 33.85 246.08 C 33.79 243.97 33.73 241.86 33.89 239.76 Z" />
</g>
<g id="#a2a2a3ff">
<path fill="#a2a2a3" opacity="1.00" d=" M 432.31 239.81 C 432.42 240.12 432.66 240.75 432.77 241.06 C 432.94 241.48 433.28 242.32 433.45 242.74 C 521.30 242.98 609.16 242.74 697.01 242.78 C 859.49 242.75 1021.95 242.73 1184.35 242.53 C 1191.22 241.87 1198.18 243.36 1205.02 242.03 C 1207.24 241.47 1209.49 242.08 1211.72 242.39 C 1214.79 242.96 1217.81 241.26 1220.89 242.12 C 1225.68 242.99 1230.55 241.89 1235.37 242.53 C 1238.93 242.70 1242.40 241.38 1246.00 241.78 C 1249.27 241.49 1253.39 243.62 1253.54 247.22 C 1252.73 248.93 1249.88 250.56 1250.79 252.54 C 1249.91 252.87 1249.02 253.02 1248.12 253.00 C 1235.63 253.03 1223.15 252.94 1210.68 253.05 C 1207.89 252.98 1205.11 253.04 1202.34 253.00 C 1200.37 252.01 1198.14 252.23 1196.03 252.18 C 1180.03 251.75 1164.01 251.32 1148.02 252.17 C 1146.81 252.19 1145.68 252.49 1144.65 253.08 C 1040.18 253.04 935.71 253.03 831.25 252.88 C 829.56 252.29 827.78 252.01 826.01 252.09 C 816.00 252.15 806.00 251.97 795.99 252.10 C 794.60 252.10 793.16 252.10 791.98 251.32 C 814.98 250.79 838.01 251.26 861.02 250.96 C 886.99 250.95 912.96 250.85 938.93 250.84 C 949.30 251.00 959.65 250.11 970.01 250.15 C 974.35 250.77 978.68 250.18 983.04 250.10 C 1023.67 250.16 1064.30 249.92 1104.93 249.93 C 1112.86 249.79 1120.79 250.13 1128.72 249.68 C 1135.81 250.30 1142.91 249.39 1150.01 249.87 C 1153.71 250.08 1157.40 249.13 1161.11 249.61 C 1166.98 250.34 1172.89 249.22 1178.79 249.65 C 1201.80 248.92 1224.89 249.26 1247.95 249.09 C 1249.46 249.23 1251.33 248.03 1250.76 246.32 C 1242.88 245.73 1234.95 246.32 1227.05 246.07 C 1220.34 245.72 1213.71 247.00 1207.01 246.78 C 953.36 246.83 699.70 246.88 446.06 246.97 C 441.60 247.20 436.85 246.10 432.65 248.06 C 432.54 247.08 432.43 246.10 432.34 245.13 C 432.30 243.35 432.29 241.58 432.31 239.81 Z" />
</g>
<g id="#60605fff">
<path fill="#60605f" opacity="1.00" d=" M 421.97 245.74 C 425.43 245.74 428.96 246.10 432.34 245.13 C 432.43 246.10 432.54 247.08 432.65 248.06 C 432.77 249.66 432.90 251.27 433.04 252.88 C 427.45 253.10 421.83 253.14 416.24 252.80 C 415.85 251.49 415.55 250.17 415.27 248.84 C 415.18 248.17 415.00 246.82 414.91 246.14 C 417.27 246.61 419.60 245.69 421.97 245.74 Z" />
</g>
<g id="#949595ff">
<path fill="#949595" opacity="1.00" d=" M 1207.01 246.78 C 1213.71 247.00 1220.34 245.72 1227.05 246.07 C 1234.95 246.32 1242.88 245.73 1250.76 246.32 C 1251.33 248.03 1249.46 249.23 1247.95 249.09 C 1224.89 249.26 1201.80 248.92 1178.79 249.65 C 1172.89 249.22 1166.98 250.34 1161.11 249.61 C 1157.40 249.13 1153.71 250.08 1150.01 249.87 C 1142.91 249.39 1135.81 250.30 1128.72 249.68 C 1120.79 250.13 1112.86 249.79 1104.93 249.93 C 1064.30 249.92 1023.67 250.16 983.04 250.10 C 978.68 250.18 974.35 250.77 970.01 250.15 C 959.65 250.11 949.30 251.00 938.93 250.84 C 912.96 250.85 886.99 250.95 861.02 250.96 C 838.01 251.26 814.98 250.79 791.98 251.32 C 793.16 252.10 794.60 252.10 795.99 252.10 C 806.00 251.97 816.00 252.15 826.01 252.09 C 827.78 252.01 829.56 252.29 831.25 252.88 C 781.17 253.25 731.07 252.93 680.98 253.03 C 598.33 252.96 515.69 253.04 433.04 252.88 C 432.90 251.27 432.77 249.66 432.65 248.06 C 436.85 246.10 441.60 247.20 446.06 246.97 C 699.70 246.88 953.36 246.83 1207.01 246.78 Z" />
</g>
<g id="#4e4e51ff">
<path fill="#4e4e51" opacity="1.00" d=" M 37.09 249.16 C 41.21 251.92 46.54 253.31 51.42 252.11 C 53.71 252.47 56.01 252.77 58.32 253.01 C 64.51 253.62 70.74 253.11 76.95 253.24 C 96.96 252.98 116.98 253.54 136.98 252.73 C 167.21 252.57 197.44 251.97 227.67 252.21 C 231.31 253.44 235.21 252.73 238.97 252.92 C 262.98 252.80 286.98 253.13 310.98 253.15 C 315.09 252.88 319.33 253.52 323.32 252.29 C 330.25 252.13 337.17 252.53 344.06 253.18 C 367.76 253.17 391.46 253.37 415.15 253.08 C 415.27 251.67 415.31 250.25 415.27 248.84 C 415.55 250.17 415.85 251.49 416.24 252.80 C 421.83 253.14 427.45 253.10 433.04 252.88 C 515.69 253.04 598.33 252.96 680.98 253.03 C 731.07 252.93 781.17 253.25 831.25 252.88 C 935.71 253.03 1040.18 253.04 1144.65 253.08 C 1146.99 253.14 1149.34 253.09 1151.71 253.19 C 1153.92 254.37 1156.45 254.12 1158.89 254.32 L 1158.48 254.61 C 1115.00 255.80 1071.47 255.09 1027.97 255.29 C 829.66 255.27 631.35 255.31 433.04 255.21 C 399.03 254.98 365.01 255.64 331.00 254.77 C 325.36 254.19 319.69 254.16 314.03 253.97 C 272.03 254.17 230.04 254.33 188.05 254.10 C 184.01 253.97 180.04 254.92 176.01 254.79 C 145.01 254.53 114.02 255.02 83.02 254.70 C 70.45 255.02 57.87 254.65 45.32 254.31 C 41.71 254.32 38.21 253.38 35.60 250.77 C 35.97 250.37 36.72 249.56 37.09 249.16 Z" />
</g>
<g id="#2a292a36">
<path fill="#2a292a" opacity="0.21" d=" M 32.12 251.91 C 33.06 252.29 33.71 252.95 34.06 253.91 C 32.40 254.25 31.75 253.59 32.12 251.91 Z" />
</g>
<g id="#505871ff">
<path fill="#505871" opacity="1.00" d=" M 227.67 252.21 C 236.77 251.95 245.88 252.19 254.98 251.99 C 277.76 252.19 300.56 251.44 323.32 252.29 C 319.33 253.52 315.09 252.88 310.98 253.15 C 286.98 253.13 262.98 252.80 238.97 252.92 C 235.21 252.73 231.31 253.44 227.67 252.21 Z" />
</g>
<g id="#bfc0c1ff">
<path fill="#bfc0c1" opacity="1.00" d=" M 1144.65 253.08 C 1145.68 252.49 1146.81 252.19 1148.02 252.17 C 1164.01 251.32 1180.03 251.75 1196.03 252.18 C 1198.14 252.23 1200.37 252.01 1202.34 253.00 C 1185.46 253.02 1168.58 252.99 1151.71 253.19 C 1149.34 253.09 1146.99 253.14 1144.65 253.08 Z" />
</g>
<g id="#37353694">
<path fill="#373536" opacity="0.58" d=" M 1236.97 260.95 C 1241.29 260.66 1245.59 259.52 1249.97 260.08 L 1249.74 260.51 C 1226.26 262.78 1202.59 261.75 1179.01 261.91 C 810.97 261.89 442.92 261.88 74.87 261.96 L 73.52 261.44 C 74.97 261.10 76.45 260.92 77.95 260.98 C 145.31 261.27 212.67 261.09 280.03 261.10 C 346.66 261.30 413.30 261.12 479.93 261.19 C 673.95 261.18 867.96 261.18 1061.98 261.18 C 1120.31 261.16 1178.64 261.27 1236.97 260.95 Z" />
</g>
</svg>
