<?xml version="1.0" encoding="UTF-8" ?>
<!DOCTYPE svg PUBLIC "-//W3C//DTD SVG 1.1//EN" "http://www.w3.org/Graphics/SVG/1.1/DTD/svg11.dtd">
<svg width="709pt" height="306pt" viewBox="0 0 709 306" version="1.1" xmlns="http://www.w3.org/2000/svg">
<g id="#443377ff">
<path fill="#443377" opacity="1.00" d=" M 232.66 0.00 L 235.93 0.00 C 238.75 1.09 239.10 4.30 239.01 6.93 C 238.97 82.29 239.02 157.64 238.99 233.00 C 238.96 238.51 238.68 244.49 241.68 249.37 C 243.81 252.84 248.22 254.07 252.07 253.77 C 255.60 253.70 258.68 251.82 261.98 250.83 C 265.09 249.86 267.41 252.80 268.50 255.31 C 271.96 263.57 275.41 271.85 278.86 280.12 C 279.76 282.51 280.92 285.21 279.81 287.74 C 278.82 290.28 276.33 291.70 274.17 293.12 C 257.26 303.59 235.84 306.09 216.84 300.42 C 205.57 297.11 195.76 288.81 191.21 277.91 C 184.62 263.55 185.05 247.44 184.70 232.00 C 184.73 171.00 184.69 109.99 184.72 48.99 C 178.57 46.74 172.30 44.86 166.17 42.57 C 164.22 41.88 162.26 40.34 162.30 38.07 C 162.16 31.43 162.06 24.75 162.36 18.11 C 162.45 15.63 164.87 14.31 167.05 13.98 C 188.92 9.30 210.83 4.83 232.66 0.00 Z" />
<path fill="#443377" opacity="1.00" d=" M 62.78 85.75 C 81.02 79.06 101.10 78.02 120.14 81.50 C 130.44 83.46 141.04 85.47 150.25 90.76 C 153.66 92.50 153.04 96.86 153.29 100.06 C 153.29 116.36 153.28 132.67 153.30 148.98 C 153.25 151.45 153.16 155.30 149.94 155.61 C 140.63 156.38 131.24 155.95 121.91 155.89 C 119.41 156.08 118.34 153.47 117.67 151.53 C 114.54 142.22 111.23 132.97 108.04 123.68 C 99.24 121.99 89.89 122.99 81.63 126.45 C 72.25 130.37 66.26 139.44 62.79 148.63 C 58.96 159.31 57.82 170.71 56.99 181.96 C 56.13 198.98 56.18 216.43 61.22 232.87 C 64.53 243.15 70.86 253.55 81.33 257.69 C 96.05 263.65 112.77 261.60 127.36 256.24 C 131.26 254.97 134.91 252.64 139.08 252.41 C 140.98 252.48 141.52 254.40 142.16 255.83 C 145.70 264.91 149.40 273.93 152.98 282.99 C 153.72 285.22 154.89 288.10 152.96 290.07 C 149.12 293.94 143.85 295.94 138.84 297.81 C 120.27 303.99 100.35 305.73 80.92 303.94 C 61.06 302.13 41.26 294.22 27.44 279.52 C 14.01 265.93 6.58 247.52 2.95 229.02 C 1.12 220.22 0.95 211.22 0.00 202.32 L 0.00 191.17 C 0.67 185.42 0.77 179.63 1.45 173.89 C 3.55 153.88 9.90 134.09 21.28 117.40 C 31.42 102.96 45.95 91.33 62.78 85.75 Z" />
<path fill="#443377" opacity="1.00" d=" M 321.32 89.26 C 340.40 82.42 360.82 80.02 381.01 80.20 C 396.13 80.42 411.72 82.45 425.15 89.84 C 440.52 98.20 450.72 114.66 452.62 131.91 C 453.57 142.94 453.23 154.01 453.29 165.07 C 453.27 197.99 453.34 230.90 453.25 263.82 C 459.69 266.13 466.27 268.07 472.64 270.55 C 476.52 271.98 475.70 276.74 475.81 280.00 C 475.53 285.08 476.36 290.27 475.24 295.27 C 474.73 297.62 472.10 297.95 470.14 298.15 C 454.39 299.80 438.64 301.46 422.90 303.14 C 418.40 303.53 411.26 305.19 409.83 299.22 C 408.24 294.25 406.97 289.19 405.40 284.22 C 395.61 292.86 384.29 300.54 371.15 302.67 C 354.13 305.51 335.67 304.17 320.37 295.63 C 309.91 289.70 301.31 280.30 296.97 269.02 C 291.16 254.56 290.07 238.48 292.65 223.18 C 294.13 215.39 297.10 207.89 301.14 201.07 C 307.53 192.27 315.48 184.26 325.41 179.52 C 339.05 173.04 354.03 169.83 369.00 168.41 C 380.06 167.66 391.14 167.45 402.22 166.96 C 401.95 157.27 403.10 147.34 400.48 137.87 C 399.11 132.60 395.74 127.57 390.66 125.28 C 384.20 122.36 376.94 122.18 369.98 122.31 C 353.76 122.94 338.30 128.60 323.21 134.12 C 320.70 135.13 316.88 135.35 315.83 132.23 C 312.15 122.67 309.20 112.85 305.74 103.21 C 304.77 100.88 305.03 97.82 307.18 96.23 C 311.51 93.24 316.26 90.77 321.32 89.26 M 385.42 203.21 C 374.76 203.79 363.53 205.39 354.59 211.68 C 341.65 221.31 339.24 241.56 348.68 254.42 C 354.12 262.03 363.67 266.40 373.00 265.39 C 384.70 264.80 394.23 256.94 402.23 249.11 C 402.19 233.67 402.21 218.23 402.22 202.79 C 396.61 202.76 391.01 202.73 385.42 203.21 Z" />
<path fill="#443377" opacity="1.00" d=" M 588.02 90.89 C 604.55 80.24 625.29 77.65 644.45 80.78 C 655.72 82.68 666.56 88.46 673.12 98.01 C 682.92 111.51 684.76 128.74 684.97 144.93 C 685.04 184.36 684.99 223.78 684.99 263.21 C 691.12 265.35 697.31 267.33 703.41 269.55 C 705.36 270.20 707.29 271.74 707.23 274.00 C 707.34 280.33 707.31 286.67 707.26 293.01 C 707.44 295.44 705.38 297.46 702.96 297.26 C 681.32 297.34 659.68 297.24 638.03 297.31 C 636.07 297.33 634.14 297.01 632.22 296.69 C 630.10 293.52 630.80 289.61 630.71 286.02 C 630.71 244.03 630.71 202.03 630.71 160.04 C 630.48 149.88 630.22 138.77 623.72 130.36 C 618.97 124.17 610.35 123.30 603.12 123.89 C 590.51 124.90 580.34 133.38 570.99 141.12 C 570.99 181.80 571.04 222.48 570.96 263.17 C 576.84 265.27 582.77 267.22 588.67 269.25 C 590.79 270.01 593.33 271.39 593.20 274.03 C 593.31 280.66 593.45 287.32 593.12 293.95 C 592.93 296.49 590.18 297.50 587.98 297.30 C 558.32 297.26 528.65 297.32 498.99 297.27 C 496.47 297.50 494.32 295.37 494.46 292.88 C 494.40 286.92 494.46 280.96 494.44 275.00 C 494.25 272.78 495.50 270.52 497.69 269.84 C 503.85 267.41 510.21 265.49 516.45 263.24 C 516.45 218.39 516.43 173.54 516.46 128.69 C 510.33 126.37 504.10 124.32 497.96 122.04 C 496.13 121.49 494.44 119.94 494.48 117.91 C 494.41 111.30 494.40 104.69 494.48 98.09 C 494.36 96.03 495.95 94.32 497.95 94.06 C 514.27 90.47 530.64 87.08 546.98 83.56 C 550.31 82.89 553.63 81.81 557.07 81.98 C 559.72 82.03 561.76 84.36 562.34 86.80 C 564.22 93.30 566.03 99.81 567.92 106.31 C 574.34 100.82 580.96 95.55 588.02 90.89 Z" />
</g>
</svg>
