<?xml version="1.0" encoding="UTF-8" standalone="no"?>
<!-- Created with Inkscape (http://www.inkscape.org/) -->
<svg
   xmlns:dc="http://purl.org/dc/elements/1.1/"
   xmlns:cc="http://web.resource.org/cc/"
   xmlns:rdf="http://www.w3.org/1999/02/22-rdf-syntax-ns#"
   xmlns:svg="http://www.w3.org/2000/svg"
   xmlns="http://www.w3.org/2000/svg"
   xmlns:xlink="http://www.w3.org/1999/xlink"
   xmlns:sodipodi="http://sodipodi.sourceforge.net/DTD/sodipodi-0.dtd"
   xmlns:inkscape="http://www.inkscape.org/namespaces/inkscape"
   width="620"
   height="433"
   id="svg2"
   sodipodi:version="0.32"
   inkscape:version="0.45.1"
   version="1.0"
   inkscape:output_extension="org.inkscape.output.svg.inkscape">
  <g
     inkscape:label="Layer 1"
     inkscape:groupmode="layer"
     id="layer1"
     transform="translate(-8.1710421,-614.49012)">
    <g
       id="g8356"
       transform="matrix(1,0,0,-1,282.37656,442.16818)" />
    <g
       id="g10024"
       transform="matrix(1,0,0,-1,347.92364,475.63739)">
        <path
   id="path10026"
   d="M 0,0 L 1.033,0 L 0,0 z "
   style="fill:#81a5d2;fill-rule:nonzero;stroke:none" />

      </g>
    <g
       id="g13496"
       clip-path="url(#id192)"
       transform="matrix(1,0,0,-1,63.19075,950.56068)">
        <g
   id="g13498"
   transform="translate(289.2009,473.02679)">
          <path
   id="path13500"
   d="M 0,0 L 0.423,0 L 0,0 z "
   style="fill:#81a5d2;fill-rule:nonzero;stroke:none" />

        </g>

      </g>
    <g
       id="g23806"
       clip-path="url(#id575)"
       transform="matrix(33.252697,0,0,-33.252697,-12645.51,9731.9141)">
        <g
   id="g23808"
   transform="translate(387.1147,273.3027)">
          <path
   id="path23810"
   d="M 0,0 C -1.26,-0.852 -2.023,-2.163 -2.218,-3.56 C -1.703,-3.81 -1.292,-3.52 -0.707,-3.395 C -0.563,-3.35 -0.425,-3.341 -0.297,-3.354 C 0.062,-3.389 0.336,-3.534 0.521,-3.698 C 0.705,-3.862 1.333,-4.563 1.333,-4.563 C 1.014,-4.38 0.606,-4.397 0.421,-4.414 C 0.259,-4.428 -0.183,-4.574 -0.369,-4.638 C -0.545,-4.698 -0.991,-4.792 -1.484,-4.382 L -2.229,-3.651 C -2.373,-4.839 -2.107,-6.083 -1.385,-7.153 C 0.209,-9.511 3.411,-10.13 5.769,-8.538 C 8.126,-6.944 8.746,-3.742 7.153,-1.384 C 5.56,0.973 2.358,1.593 0,0"
   style="fill:#ed1487;fill-rule:nonzero;stroke:none" />

        </g>

      </g>
    <g
       id="g23812"
       clip-path="url(#id576)"
       transform="matrix(33.252697,0,0,-33.252697,-12645.51,9731.9141)">
        <g
   id="g23814"
   transform="translate(386.74541,268.6644)">
          <path
   id="path23816"
   d="M 0,0 C 0.186,0.064 0.628,0.21 0.79,0.224 C 0.975,0.241 1.383,0.259 1.702,0.075 C 1.702,0.075 1.075,0.776 0.89,0.94 C 0.705,1.104 0.431,1.249 0.072,1.285 C -0.056,1.297 -0.194,1.288 -0.337,1.244 C -0.923,1.118 -1.334,0.828 -1.849,1.079 C -1.853,1.048 -1.856,1.018 -1.86,0.988 L -1.115,0.256 C -0.621,-0.154 -0.175,-0.06 0,0"
   style="fill:#5d2790;fill-rule:nonzero;stroke:none" />

        </g>

        <g
   id="g23818"
   transform="translate(392.0127,271.7249)">
          <path
   id="path23820"
   d="M 0,0 L -0.008,0.011 L -0.526,-0.361 L 1.584,-3.482 L 2.244,-3.036 L 0.895,-1.039 L 1.372,-0.717 L 1.009,-0.181 C 0.674,-0.421 0.339,-0.452 0,0"
   style="fill:#ffffff;fill-rule:nonzero;stroke:none" />

        </g>

        <g
   id="g23822"
   transform="translate(390.4803,269.9574)">
          <path
   id="path23824"
   d="M 0,0 L -0.009,-0.007 L -1.127,1.648 L -1.787,1.203 L 1.104,-3.075 L 1.763,-2.63 L 0.687,-1.037 C 0.447,-0.681 0.354,-0.253 0.669,-0.042 C 1.134,0.271 1.404,-0.216 1.71,-0.67 L 2.636,-2.039 L 2.92,-1.848 L 0.811,1.275 C 0.681,1.241 0.546,1.179 0.405,1.079 C 0.099,0.863 -0.099,0.418 0,0"
   style="fill:#ffffff;fill-rule:nonzero;stroke:none" />

        </g>

        <g
   id="g23826"
   transform="translate(389.6151,267.5103)">
          <path
   id="path23828"
   d="M 0,0 L -1.012,1.019 C -1.291,1.157 -1.64,1.275 -2.032,1.22 C -2.22,1.194 -2.29,1.185 -2.595,1.067 L 0.354,-1.719 L 1.319,-1.067 L 0.438,1.251 L -1.101,3.528 L -1.385,3.336 L 0,0 z "
   style="fill:#ffffff;fill-rule:nonzero;stroke:none" />

        </g>

        <g
   id="g23830"
   transform="translate(390.33611,269.26179)">
          <path
   id="path23832"
   d="M 0,0 C 0.126,-0.186 0.077,-0.439 -0.109,-0.565 C -0.296,-0.691 -0.548,-0.642 -0.675,-0.456 C -0.801,-0.269 -0.751,-0.017 -0.565,0.109 C -0.379,0.235 -0.126,0.186 0,0"
   style="fill:#ed1487;fill-rule:nonzero;stroke:none" />

        </g>

        <g
   id="g23834"
   transform="translate(380.5304,263.6615)">
          <path
   id="path23836"
   d="M 0,0 C 0,-1.349 1.13,-2.489 2.467,-2.489 C 3.036,-2.489 3.564,-2.306 4.002,-1.963 L 4.002,-2.428 L 8.395,-2.428 L 8.395,-2.202 C 8.668,-2.387 8.993,-2.489 9.346,-2.489 C 9.835,-2.489 10.294,-2.272 10.615,-1.896 C 10.927,-2.272 11.389,-2.489 11.893,-2.489 C 12.255,-2.489 12.605,-2.365 12.894,-2.145 L 12.894,-2.409 L 14.393,-2.409 L 14.393,-1.769 C 14.859,-2.231 15.492,-2.497 16.15,-2.497 C 17.526,-2.497 18.646,-1.377 18.646,0 C 18.646,1.376 17.526,2.496 16.15,2.496 C 15.492,2.496 14.859,2.23 14.393,1.768 L 14.393,2.425 L 12.894,2.425 L 12.894,2.199 C 12.634,2.396 12.317,2.504 11.968,2.504 C 11.435,2.504 10.969,2.268 10.674,1.857 C 10.395,2.268 9.942,2.504 9.42,2.504 C 9.034,2.504 8.677,2.372 8.395,2.139 L 8.395,2.406 L 7.046,2.406 L 6.33,1.353 C 5.806,1.752 5.408,2.195 5.255,2.406 L 4.002,2.406 L 4.002,1.985 C 3.572,2.324 3.046,2.504 2.473,2.504 C 1.086,2.504 0,1.404 0,0"
   style="fill:#1f1a1c;fill-rule:nonzero;stroke:none" />

        </g>

        <g
   id="g23838"
   transform="translate(384.77451,262.67731)">
          <path
   id="path23840"
   d="M 0,0 C -0.372,-0.654 -1.026,-1.037 -1.777,-1.037 C -2.862,-1.037 -3.777,-0.117 -3.777,0.984 C -3.777,2.122 -2.894,3.021 -1.771,3.021 C -1,3.021 -0.372,2.644 0.027,1.947 L -0.66,1.947 C -0.979,2.298 -1.33,2.457 -1.771,2.457 C -2.575,2.457 -3.213,1.803 -3.213,0.984 C -3.213,0.197 -2.548,-0.473 -1.766,-0.473 C -1.356,-0.473 -0.995,-0.314 -0.702,0 L 0,0 z "
   style="fill:#ffffff;fill-rule:nonzero;stroke:none" />

        </g>

        <g
   id="g23842"
   transform="translate(390.44521,264.6078)">
          <path
   id="path23844"
   d="M 0,0 C -0.021,0.314 -0.229,0.527 -0.516,0.527 C -0.819,0.527 -1.043,0.298 -1.043,-0.005 C -1.043,-0.324 -0.904,-0.441 -0.404,-0.558 C -0.032,-0.643 0.154,-0.739 0.33,-0.931 C 0.537,-1.16 0.644,-1.431 0.644,-1.729 C 0.644,-2.415 0.101,-2.968 -0.569,-2.968 C -1.261,-2.968 -1.766,-2.452 -1.777,-1.734 L -1.213,-1.734 C -1.17,-2.165 -0.942,-2.399 -0.569,-2.399 C -0.197,-2.399 0.08,-2.127 0.08,-1.76 C 0.08,-1.426 -0.085,-1.266 -0.548,-1.149 C -0.947,-1.048 -1.096,-0.989 -1.245,-0.872 C -1.479,-0.691 -1.623,-0.383 -1.623,-0.048 C -1.623,0.612 -1.149,1.091 -0.495,1.091 C 0.112,1.091 0.548,0.649 0.58,0 L 0,0 z "
   style="fill:#ffffff;fill-rule:nonzero;stroke:none" />

        </g>

        <g
   id="g23846"
   transform="translate(392.9931,264.6078)">
          <path
   id="path23848"
   d="M 0,0 C -0.021,0.314 -0.229,0.527 -0.516,0.527 C -0.819,0.527 -1.043,0.298 -1.043,-0.005 C -1.043,-0.324 -0.905,-0.441 -0.405,-0.558 C -0.032,-0.643 0.154,-0.739 0.33,-0.931 C 0.537,-1.16 0.644,-1.431 0.644,-1.729 C 0.644,-2.415 0.101,-2.968 -0.569,-2.968 C -1.261,-2.968 -1.766,-2.452 -1.777,-1.734 L -1.213,-1.734 C -1.17,-2.165 -0.942,-2.399 -0.569,-2.399 C -0.197,-2.399 0.08,-2.127 0.08,-1.76 C 0.08,-1.426 -0.085,-1.266 -0.548,-1.149 C -0.947,-1.048 -1.096,-0.989 -1.245,-0.872 C -1.479,-0.691 -1.623,-0.383 -1.623,-0.048 C -1.623,0.612 -1.149,1.091 -0.495,1.091 C 0.112,1.091 0.548,0.649 0.58,0 L 0,0 z "
   style="fill:#ffffff;fill-rule:nonzero;stroke:none" />

        </g>

        <path
   id="path23850"
   d="M 393.892,265.619 L 394.456,265.619 L 394.456,261.72 L 393.892,261.72 L 393.892,265.619 z "
   style="fill:#ffffff;fill-rule:nonzero;stroke:none" />

        <g
   id="g23852"
   transform="translate(398.46671,262.67709)">
          <path
   id="path23854"
   d="M 0,0 C -0.372,-0.654 -1.026,-1.037 -1.777,-1.037 C -2.862,-1.037 -3.777,-0.117 -3.777,0.984 C -3.777,2.123 -2.894,3.021 -1.771,3.021 C -1,3.021 -0.372,2.644 0.027,1.947 L -0.659,1.947 C -0.979,2.298 -1.33,2.457 -1.771,2.457 C -2.575,2.457 -3.213,1.803 -3.213,0.984 C -3.213,0.197 -2.548,-0.473 -1.766,-0.473 C -1.356,-0.473 -0.995,-0.314 -0.702,0 L 0,0 z "
   style="fill:#ffffff;fill-rule:nonzero;stroke:none" />

        </g>

        <g
   id="g23856"
   transform="translate(387.89391,263.377)">
          <path
   id="path23858"
   d="M 0,0 L -0.883,0 L 0,1.266 L 0,0 z M 0,2.224 L -2.175,-0.851 L -1.467,-0.851 L -1.255,-0.543 L 0,-0.543 L 0,-1.676 L 0.564,-1.676 L 0.564,2.224 L 0,2.224 z "
   style="fill:#ffffff;fill-rule:nonzero;stroke:none" />

        </g>

        <g
   id="g23860"
   transform="translate(385.5639,265.60049)">
          <path
   id="path23862"
   d="M 0,0 L -0.564,0 L -0.564,-3.899 L 1.484,-3.899 L 1.484,-3.356 L 0.002,-3.356 L 0,0 z "
   style="fill:#ffffff;fill-rule:nonzero;stroke:none" />

        </g>

      </g>
  </g>
</svg>
