<?xml version="1.0" encoding="UTF-8" standalone="yes"?>
<svg xmlns="http://www.w3.org/2000/svg" xmlns:xlink="http://www.w3.org/1999/xlink" width="820px" height="106.66666666666666px" viewBox="0 0 615 80" version="1.1">
  <g id="surface1">
    <path style=" stroke:none;fill-rule:nonzero;fill:rgb(94.901961%,32.54902%,13.72549%);fill-opacity:1;" d="M 118.929688 4.8125 C 118.929688 2.152344 116.777344 0 114.121094 0 L 4.8125 0 C 2.152344 0 0 2.152344 0 4.8125 L 0 74.519531 C 0 77.160156 2.152344 79.3125 4.8125 79.3125 L 114.121094 79.3125 C 116.777344 79.3125 118.929688 77.160156 118.929688 74.519531 L 118.929688 4.8125 "/>
    <path style=" stroke:none;fill-rule:nonzero;fill:rgb(100%,100%,100%);fill-opacity:1;" d="M 0.0898438 44.34375 C 3.6875 54.148438 10.632812 61.816406 19.765625 67.859375 C 27.382812 72.238281 35.828125 75.421875 45.25 75.386719 C 76.972656 75.222656 97.101562 52.085938 96.957031 23.71875 C 96.925781 16.515625 94.820312 9.679688 92.109375 3.472656 C 86.703125 5.28125 75.378906 7.617188 69.574219 8.304688 C 68.433594 17.152344 60.53125 23.375 49.644531 25.78125 C 49.644531 27.316406 49.265625 37.140625 49.121094 38.75 C 53.605469 38.0625 59.046875 37.070312 63.625 35.710938 C 58.378906 55.847656 37.960938 64.660156 19.949219 57.640625 C 8.011719 52.972656 0.179688 43.074219 0.0898438 24.042969 L 0.0898438 44.34375 "/>
    <path style=" stroke:none;fill-rule:nonzero;fill:rgb(13.72549%,12.156863%,12.54902%);fill-opacity:1;" d="M 586.113281 80 C 574.214844 80 565.1875 77.46875 557.484375 69.652344 L 567.394531 59.738281 C 572.351562 64.695312 579.0625 66.339844 586.332031 66.339844 C 595.355469 66.339844 600.203125 62.921875 600.203125 56.644531 C 600.203125 53.894531 599.441406 51.578125 597.78125 50.039062 C 596.242188 48.613281 594.488281 47.832031 590.851562 47.289062 L 581.375 45.96875 C 574.667969 44.972656 569.710938 42.875 566.183594 39.457031 C 562.441406 35.710938 560.558594 30.644531 560.558594 24.042969 C 560.558594 10.058594 570.921875 0.253906 587.867188 0.253906 C 598.664062 0.253906 606.496094 2.894531 613.207031 9.390625 L 603.511719 18.976562 C 598.558594 14.238281 592.605469 13.566406 587.433594 13.566406 C 579.296875 13.566406 575.316406 18.089844 575.316406 23.480469 C 575.316406 25.472656 575.988281 27.570312 577.632812 29.109375 C 579.167969 30.539062 581.71875 31.75 584.902344 32.183594 L 594.164062 33.523438 C 601.304688 34.5 605.828125 36.488281 609.136719 39.566406 C 613.316406 43.546875 615.175781 49.261719 615.175781 56.210938 C 615.175781 71.40625 602.519531 80 586.113281 80 Z M 522.921875 80 C 514.566406 80 507.515625 77.140625 501.78125 71.40625 C 498.382812 67.988281 496.285156 64.023438 495.398438 59.628906 C 494.53125 55.214844 494.078125 48.71875 494.078125 40.125 C 494.078125 31.535156 494.53125 25.039062 495.398438 20.625 C 496.285156 16.101562 498.382812 12.246094 501.78125 8.847656 C 507.515625 3.113281 514.566406 0.253906 522.921875 0.253906 C 538.023438 0.253906 549.148438 9.0625 551.789062 25.039062 L 536.253906 25.039062 C 534.605469 18.308594 530.429688 13.914062 523.050781 13.914062 C 518.855469 13.914062 515.542969 15.234375 513.246094 17.984375 C 510.046875 21.402344 509.394531 24.929688 509.394531 40.125 C 509.394531 55.324219 510.046875 58.851562 513.246094 62.269531 C 515.542969 65.019531 518.855469 66.339844 523.050781 66.339844 C 530.429688 66.339844 534.605469 61.925781 536.253906 55.214844 L 551.789062 55.214844 C 549.148438 71.191406 537.917969 80 522.921875 80 Z M 481.109375 79.332031 L 465.800781 79.332031 L 465.800781 0.898438 L 481.109375 0.898438 Z M 465.808594 79.332031 Z M 425.695312 80 C 413.796875 80 404.769531 77.46875 397.066406 69.652344 L 406.976562 59.738281 C 411.933594 64.695312 418.644531 66.339844 425.914062 66.339844 C 434.9375 66.339844 439.785156 62.921875 439.785156 56.644531 C 439.785156 53.894531 439.023438 51.578125 437.359375 50.039062 C 435.824219 48.613281 434.070312 47.832031 430.433594 47.289062 L 420.957031 45.96875 C 414.246094 44.972656 409.292969 42.875 405.765625 39.457031 C 402.023438 35.710938 400.140625 30.644531 400.140625 24.042969 C 400.140625 10.058594 410.503906 0.253906 427.449219 0.253906 C 438.246094 0.253906 446.058594 2.894531 452.789062 9.390625 L 443.09375 18.976562 C 438.140625 14.238281 432.1875 13.566406 427.015625 13.566406 C 418.859375 13.566406 414.898438 18.089844 414.898438 23.480469 C 414.898438 25.472656 415.570312 27.570312 417.214844 29.109375 C 418.75 30.539062 421.28125 31.75 424.484375 32.183594 L 433.726562 33.523438 C 440.886719 34.5 445.410156 36.488281 448.699219 39.566406 C 452.898438 43.546875 454.757812 49.261719 454.757812 56.210938 C 454.757812 71.40625 442.097656 80 425.695312 80 Z M 361.691406 80 C 349.792969 80 340.765625 77.46875 333.042969 69.652344 L 342.972656 59.738281 C 347.929688 64.695312 354.636719 66.339844 361.910156 66.339844 C 370.933594 66.339844 375.78125 62.921875 375.78125 56.644531 C 375.78125 53.894531 375 51.578125 373.355469 50.039062 C 371.820312 48.613281 370.046875 47.832031 366.410156 47.289062 L 356.953125 45.96875 C 350.226562 44.972656 345.269531 42.875 341.742188 39.457031 C 338 35.710938 336.136719 30.644531 336.136719 24.042969 C 336.136719 10.058594 346.480469 0.253906 363.445312 0.253906 C 374.242188 0.253906 382.054688 2.894531 388.765625 9.390625 L 379.089844 18.976562 C 374.132812 14.238281 368.183594 13.566406 363.011719 13.566406 C 354.855469 13.566406 350.894531 18.089844 350.894531 23.480469 C 350.894531 25.472656 351.546875 27.570312 353.210938 29.109375 C 354.746094 30.539062 357.277344 31.75 360.480469 32.183594 L 369.722656 33.523438 C 376.882812 34.5 381.40625 36.488281 384.695312 39.566406 C 388.890625 43.546875 390.753906 49.261719 390.753906 56.210938 C 390.753906 71.40625 378.09375 80 361.691406 80 Z M 294.578125 24.042969 L 284.664062 52.574219 L 304.144531 52.574219 Z M 312.859375 79.332031 L 308.230469 65.453125 L 280.359375 65.453125 L 275.621094 79.332031 L 259.671875 79.332031 L 288.191406 0.90625 L 300.183594 0.90625 L 328.8125 79.332031 Z M 202.484375 79.332031 L 202.484375 0.90625 L 217.804688 0.90625 L 217.804688 65.671875 L 253.378906 65.671875 L 253.378906 79.332031 Z M 163.078125 80 C 154.703125 80 147.648438 77.140625 141.933594 71.40625 C 138.515625 67.988281 136.417969 64.023438 135.550781 59.628906 C 134.664062 55.214844 134.230469 48.71875 134.230469 40.125 C 134.230469 31.53125 134.664062 25.039062 135.550781 20.625 C 136.417969 16.101562 138.515625 12.246094 141.933594 8.847656 C 147.648438 3.109375 154.703125 0.253906 163.078125 0.253906 C 178.160156 0.253906 189.28125 9.0625 191.921875 25.039062 L 176.40625 25.039062 C 174.742188 18.308594 170.5625 13.910156 163.183594 13.910156 C 159.007812 13.910156 155.699219 15.234375 153.382812 17.980469 C 150.183594 21.402344 149.53125 24.929688 149.53125 40.125 C 149.53125 55.324219 150.183594 58.851562 153.382812 62.269531 C 155.699219 65.019531 159.007812 66.339844 163.183594 66.339844 C 170.5625 66.339844 174.742188 61.925781 176.40625 55.214844 L 191.921875 55.214844 C 189.28125 71.1875 178.050781 80 163.078125 80 "/>
  </g>
</svg>