<?xml version="1.0" encoding="utf-8"?>
<!-- Generator: Adobe Illustrator 16.2.1, SVG Export Plug-In . SVG Version: 6.00 Build 0)  -->
<!DOCTYPE svg PUBLIC "-//W3C//DTD SVG 1.1//EN" "http://www.w3.org/Graphics/SVG/1.1/DTD/svg11.dtd">
<svg version="1.1" id="Layer_1" xmlns="http://www.w3.org/2000/svg" xmlns:xlink="http://www.w3.org/1999/xlink" x="0px" y="0px"
	 width="841.89px" height="595.28px" viewBox="0 0 841.89 595.28" enable-background="new 0 0 841.89 595.28" xml:space="preserve">
<g>
	<g id="circle_classic_outside">
		
			<linearGradient id="circle_classic_outside_03_1_" gradientUnits="userSpaceOnUse" x1="554.3184" y1="397.6875" x2="577.2361" y2="449.5871" gradientTransform="matrix(0.9922 -0.1249 0.1249 0.9922 -23.4062 15.1455)">
			<stop  offset="0.0061" style="stop-color:#8F7130;stop-opacity:0"/>
			<stop  offset="0.1838" style="stop-color:#96752E;stop-opacity:0.2518"/>
			<stop  offset="0.4422" style="stop-color:#AA8425;stop-opacity:0.6181"/>
			<stop  offset="0.7117" style="stop-color:#C79A04"/>
		</linearGradient>
		<path id="circle_classic_outside_03" opacity="0.48" fill="url(#circle_classic_outside_03_1_)" d="M617.837,362.123
			c1.848,14.677-8.549,28.073-23.226,29.921c-14.676,1.848-28.072-8.552-29.92-23.229c-1.848-14.676,8.552-28.07,23.226-29.918
			C602.598,337.045,615.992,347.449,617.837,362.123z"/>
		
			<linearGradient id="circle_outside_classic_02_1_" gradientUnits="userSpaceOnUse" x1="591.3457" y1="216.9736" x2="652.256" y2="324.9024">
			<stop  offset="0" style="stop-color:#DEA911"/>
			<stop  offset="0.2727" style="stop-color:#DFA81E;stop-opacity:0.7709"/>
			<stop  offset="0.6691" style="stop-color:#E0A435;stop-opacity:0.438"/>
			<stop  offset="1" style="stop-color:#E0A049;stop-opacity:0.16"/>
		</linearGradient>
		<path id="circle_outside_classic_02" opacity="0.5" fill="url(#circle_outside_classic_02_1_)" d="M657.714,274.639
			c-5.09-40.432-42.003-69.088-82.437-64c-0.275,0.035-0.546,0.086-0.818,0.124c34.181,7.867,61.442,36.31,66.082,73.139
			c2.896,23.01-3.596,45.024-16.46,62.242C647.409,331.295,661.395,303.896,657.714,274.639z"/>
		
			<linearGradient id="circle_classic_outside_01_1_" gradientUnits="userSpaceOnUse" x1="492.5" y1="255.5771" x2="509.9035" y2="332.0233" gradientTransform="matrix(0.9922 -0.1249 0.1249 0.9922 -23.4062 15.1455)">
			<stop  offset="0" style="stop-color:#EBBC30"/>
			<stop  offset="0.1383" style="stop-color:#E1B130;stop-opacity:0.9129"/>
			<stop  offset="0.6993" style="stop-color:#BD892F;stop-opacity:0.5594"/>
			<stop  offset="1" style="stop-color:#B07B2D;stop-opacity:0.37"/>
		</linearGradient>
		<path id="circle_classic_outside_01" opacity="0.54" fill="url(#circle_classic_outside_01_1_)" d="M550.434,239.363
			c2.76,21.948-12.79,41.979-34.737,44.742c-21.945,2.765-41.978-12.786-44.738-34.735c-2.766-21.95,12.79-41.975,34.731-44.741
			C527.64,201.867,547.667,217.418,550.434,239.363z"/>
	</g>
	<g id="circle_classic_inside">
		<defs>
			<path id="BG_circle_15_" d="M640.538,283.902c5.936,47.153-27.477,90.198-74.633,96.137
				c-47.156,5.936-90.197-27.48-96.133-74.635c-5.938-47.161,27.471-90.198,74.631-96.136
				C591.559,203.332,634.6,236.741,640.538,283.902z"/>
		</defs>
		<clipPath id="BG_circle_1_">
			<use xlink:href="#BG_circle_15_"  overflow="visible"/>
		</clipPath>
		<g clip-path="url(#BG_circle_1_)">
			
				<linearGradient id="circle_classic_inside_BG_1_" gradientUnits="userSpaceOnUse" x1="463.8652" y1="411.3486" x2="607.4343" y2="293.457" gradientTransform="matrix(0.9922 -0.1249 0.1249 0.9922 -23.4062 15.1455)">
				<stop  offset="0" style="stop-color:#E7B408"/>
				<stop  offset="0.1502" style="stop-color:#DDA90D"/>
				<stop  offset="0.3957" style="stop-color:#C38B14"/>
				<stop  offset="0.7041" style="stop-color:#9C6115"/>
				<stop  offset="1" style="stop-color:#753910"/>
			</linearGradient>
			<path id="circle_classic_inside_BG" fill="url(#circle_classic_inside_BG_1_)" d="M640.538,283.902
				c5.936,47.153-27.477,90.198-74.633,96.137c-47.156,5.936-90.197-27.48-96.133-74.635c-5.938-47.161,27.471-90.198,74.631-96.136
				C591.559,203.332,634.6,236.741,640.538,283.902z"/>
			
				<linearGradient id="circle_classic_inside_10_1_" gradientUnits="userSpaceOnUse" x1="486.1523" y1="396.9971" x2="527.6987" y2="299.9443" gradientTransform="matrix(0.9922 -0.1249 0.1249 0.9922 -23.4062 15.1455)">
				<stop  offset="0" style="stop-color:#FDD18C"/>
				<stop  offset="0.7362" style="stop-color:#6B4F12"/>
			</linearGradient>
			<path id="circle_classic_inside_10" opacity="0.51" fill="url(#circle_classic_inside_10_1_)" d="M576.719,290.414
				c3.721,29.553-17.22,56.526-46.772,60.244c-29.547,3.723-56.52-17.215-60.24-46.769c-3.721-29.553,17.22-56.52,46.764-60.242
				C546.025,239.928,572.998,260.863,576.719,290.414z"/>
			
				<linearGradient id="circle_classic_inside_09_1_" gradientUnits="userSpaceOnUse" x1="492.5" y1="255.5771" x2="509.9035" y2="332.0233" gradientTransform="matrix(0.9922 -0.1249 0.1249 0.9922 -23.4062 15.1455)">
				<stop  offset="0" style="stop-color:#EBBC30"/>
				<stop  offset="0.1383" style="stop-color:#E1B130;stop-opacity:0.9129"/>
				<stop  offset="0.6993" style="stop-color:#BD892F;stop-opacity:0.5594"/>
				<stop  offset="1" style="stop-color:#B07B2D;stop-opacity:0.37"/>
			</linearGradient>
			<path id="circle_classic_inside_09" opacity="0.54" fill="url(#circle_classic_inside_09_1_)" d="M550.434,239.363
				c2.76,21.948-12.79,41.979-34.737,44.742c-21.945,2.765-41.978-12.786-44.738-34.735c-2.766-21.95,12.79-41.975,34.731-44.741
				C527.64,201.867,547.667,217.418,550.434,239.363z"/>
			
				<linearGradient id="circle_classic_inside_08_1_" gradientUnits="userSpaceOnUse" x1="477.5557" y1="352.8682" x2="532.8128" y2="408.4635" gradientTransform="matrix(0.9922 -0.1249 0.1249 0.9922 -23.4062 15.1455)">
				<stop  offset="0.0123" style="stop-color:#B4ACBA"/>
				<stop  offset="0.1136" style="stop-color:#B2A9B4"/>
				<stop  offset="0.2576" style="stop-color:#AFA2A4"/>
				<stop  offset="0.427" style="stop-color:#A9978A"/>
				<stop  offset="0.6158" style="stop-color:#A08767"/>
				<stop  offset="0.8179" style="stop-color:#93753D"/>
				<stop  offset="1" style="stop-color:#866414"/>
			</linearGradient>
			<path id="circle_classic_inside_08" opacity="0.75" fill="url(#circle_classic_inside_08_1_)" d="M565.385,324.947
				c2.761,21.945-12.789,41.979-34.737,44.739c-21.944,2.767-41.975-12.784-44.737-34.734
				c-2.764-21.945,12.786-41.975,34.731-44.737C542.589,287.451,562.621,303,565.385,324.947z"/>
			
				<linearGradient id="circle_classic_inside_07_1_" gradientUnits="userSpaceOnUse" x1="524.4023" y1="359.4102" x2="619.7042" y2="417.0698" gradientTransform="matrix(0.9922 -0.1249 0.1249 0.9922 -23.4062 15.1455)">
				<stop  offset="0" style="stop-color:#F1F1F2;stop-opacity:0.43"/>
				<stop  offset="0.122" style="stop-color:#E4D4BA;stop-opacity:0.5831"/>
				<stop  offset="0.4026" style="stop-color:#C3922E;stop-opacity:0.9355"/>
				<stop  offset="0.454" style="stop-color:#BC870E"/>
			</linearGradient>
			<path id="circle_classic_inside_07" opacity="0.41" fill="url(#circle_classic_inside_07_1_)" d="M626.867,312.199
				c3.884,30.878-17.994,59.062-48.871,62.95s-59.061-17.991-62.951-48.869c-3.885-30.878,17.993-59.065,48.873-62.954
				C594.792,259.44,622.979,281.321,626.867,312.199z"/>
			
				<linearGradient id="circle_classic_inside_06_1_" gradientUnits="userSpaceOnUse" x1="546.0098" y1="320.3965" x2="632.4833" y2="372.7148" gradientTransform="matrix(0.9922 -0.1249 0.1249 0.9922 -23.4062 15.1455)">
				<stop  offset="0" style="stop-color:#FFE947;stop-opacity:0.66"/>
				<stop  offset="0.4416" style="stop-color:#A3852C;stop-opacity:0.8102"/>
				<stop  offset="0.8202" style="stop-color:#6A4919;stop-opacity:0.9389"/>
				<stop  offset="1" style="stop-color:#573712"/>
			</linearGradient>
			<path id="circle_classic_inside_06" opacity="0.6" fill="url(#circle_classic_inside_06_1_)" d="M635.665,269.983
				c3.529,28.017-16.325,53.59-44.343,57.119c-28.017,3.528-53.59-16.327-57.118-44.341c-3.526-28.018,16.327-53.591,44.343-57.125
				C603.834,222.457,632.095,241.623,635.665,269.983z"/>
			
				<linearGradient id="circle_classic_inside_05_1_" gradientUnits="userSpaceOnUse" x1="524.8838" y1="469.6426" x2="575.4124" y2="295.436" gradientTransform="matrix(0.9922 -0.1249 0.1249 0.9922 -23.4062 15.1455)">
				<stop  offset="0" style="stop-color:#8C5613"/>
				<stop  offset="0.391" style="stop-color:#9F762B"/>
				<stop  offset="0.7821" style="stop-color:#AF9343"/>
				<stop  offset="1" style="stop-color:#B59E4D"/>
				<stop  offset="1" style="stop-color:#733810"/>
			</linearGradient>
			<path id="circle_classic_inside_05" opacity="0.4" fill="url(#circle_classic_inside_05_1_)" d="M640.552,283.919
				c-4.639-36.829-31.901-65.272-66.081-73.139c-40,5.491-68.233,42.151-63.18,82.313c5.096,40.439,42,69.092,82.433,63.999
				c11.182-1.408,21.455-5.257,30.369-10.931C636.956,328.943,643.448,306.929,640.552,283.919z"/>
			
				<linearGradient id="circle_classic_inside_04_1_" gradientUnits="userSpaceOnUse" x1="564.6992" y1="398.6357" x2="615.899" y2="220.0807">
				<stop  offset="0.0184" style="stop-color:#9D6015;stop-opacity:0.7"/>
				<stop  offset="0.11" style="stop-color:#A2671B;stop-opacity:0.6091"/>
				<stop  offset="0.2608" style="stop-color:#B17D2D;stop-opacity:0.4595"/>
				<stop  offset="0.4519" style="stop-color:#CCA453;stop-opacity:0.2699"/>
				<stop  offset="0.674" style="stop-color:#F5DF92;stop-opacity:0.0496"/>
				<stop  offset="0.7239" style="stop-color:#FFEFA2;stop-opacity:0"/>
			</linearGradient>
			<path id="circle_classic_inside_04" opacity="0.33" fill="url(#circle_classic_inside_04_1_)" d="M640.561,283.893
				c-4.898-38.886-35.026-68.4-71.881-74.237c20.233,14.764,34.569,37.511,37.948,64.323c6.149,48.865-26.309,93.687-73.59,103.828
				c10.422,2.78,21.533,3.654,32.889,2.224C613.086,374.089,646.499,331.05,640.561,283.893z"/>
			
				<linearGradient id="circle_classic_inside_03_1_" gradientUnits="userSpaceOnUse" x1="554.3184" y1="397.6875" x2="577.2361" y2="449.5871" gradientTransform="matrix(0.9922 -0.1249 0.1249 0.9922 -23.4062 15.1455)">
				<stop  offset="0.0061" style="stop-color:#8F7130;stop-opacity:0"/>
				<stop  offset="0.1838" style="stop-color:#96752E;stop-opacity:0.2518"/>
				<stop  offset="0.4422" style="stop-color:#AA8425;stop-opacity:0.6181"/>
				<stop  offset="0.7117" style="stop-color:#C79A04"/>
			</linearGradient>
			<path id="circle_classic_inside_03" opacity="0.48" fill="url(#circle_classic_inside_03_1_)" d="M617.837,362.123
				c1.848,14.677-8.549,28.073-23.226,29.921c-14.676,1.848-28.072-8.552-29.92-23.229c-1.848-14.676,8.552-28.07,23.226-29.918
				C602.598,337.045,615.992,347.449,617.837,362.123z"/>
			
				<linearGradient id="circle_classic_inside_02_1_" gradientUnits="userSpaceOnUse" x1="527.3223" y1="330.6133" x2="488.6078" y2="278.9101" gradientTransform="matrix(0.9922 -0.1249 0.1249 0.9922 -23.4062 15.1455)">
				<stop  offset="0" style="stop-color:#270D0E"/>
				<stop  offset="0.1035" style="stop-color:#2C1011"/>
				<stop  offset="0.244" style="stop-color:#381818"/>
				<stop  offset="0.4059" style="stop-color:#4E2722"/>
				<stop  offset="0.5837" style="stop-color:#6E3D2E"/>
				<stop  offset="0.7744" style="stop-color:#9D5D39"/>
				<stop  offset="0.9733" style="stop-color:#DE8B41"/>
				<stop  offset="1" style="stop-color:#E89241"/>
			</linearGradient>
			<path id="circle_classic_inside_02" opacity="0.39" fill="url(#circle_classic_inside_02_1_)" d="M548.315,249.647
				c2.104,16.709-9.737,31.966-26.45,34.071c-16.713,2.104-31.968-9.741-34.072-26.451c-2.097-16.711,9.74-31.969,26.454-34.071
				C530.959,221.094,546.212,232.937,548.315,249.647z"/>
			
				<linearGradient id="circle_classic_inside_01_2_" gradientUnits="userSpaceOnUse" x1="645.9297" y1="331.8945" x2="708.6496" y2="505.8809" gradientTransform="matrix(1.1819 -0.0074 0.0072 1.141 -224.7158 -148.4863)">
				<stop  offset="0" style="stop-color:#F1F1F2;stop-opacity:0.43"/>
				<stop  offset="0.1203" style="stop-color:#D5C1AE;stop-opacity:0.5831"/>
				<stop  offset="0.3972" style="stop-color:#965B26;stop-opacity:0.9355"/>
				<stop  offset="0.4479" style="stop-color:#8B4C14"/>
			</linearGradient>
			<path id="circle_classic_inside_01_1_" opacity="0.05" fill="url(#circle_classic_inside_01_2_)" d="M639.884,293.463
				c0.242,38.768-32.112,70.408-72.271,70.661c-40.163,0.253-72.919-30.976-73.166-69.746
				c-0.343-54.604,40.202-70.464,72.275-70.667C606.889,223.456,639.636,254.69,639.884,293.463z"/>
			
				<linearGradient id="circle_classic_inside_01_3_" gradientUnits="userSpaceOnUse" x1="645.9297" y1="331.8965" x2="708.6491" y2="505.8814" gradientTransform="matrix(1.1819 -0.0074 0.0072 1.141 -224.7158 -148.4863)">
				<stop  offset="0.0123" style="stop-color:#B97C12;stop-opacity:0.72"/>
				<stop  offset="0.1838" style="stop-color:#C59240;stop-opacity:0.5949"/>
				<stop  offset="0.4815" style="stop-color:#D8B98B;stop-opacity:0.3779"/>
				<stop  offset="0.7263" style="stop-color:#E5D7C2;stop-opacity:0.1995"/>
				<stop  offset="0.9054" style="stop-color:#EEEAE5;stop-opacity:0.0689"/>
				<stop  offset="1" style="stop-color:#F1F1F2;stop-opacity:0"/>
			</linearGradient>
			<path id="circle_classic_inside_01" opacity="0.2" fill="url(#circle_classic_inside_01_3_)" d="M639.884,293.466
				c0.242,38.767-32.109,70.407-72.273,70.661c-40.16,0.256-72.916-30.976-73.163-69.745c-0.34-54.605,40.205-70.465,72.275-70.671
				C606.892,223.458,639.639,254.692,639.884,293.466z"/>
		</g>
	</g>
	<g id="CLASSIC">
		<g>
			<path fill="#C29720" d="M223.981,359.019c-2.654,2.71-9.265,7.15-20.157,7.15c-14.844,0-23.027-8.071-23.027-19.504
				c0-11.381,10.186-20.158,24.274-20.158c8.941,0,15.335,3.251,17.882,4.985l-2.656,4.986c-4.497-2.276-9.698-3.902-15.226-3.902
				c-10.404,0-17.338,5.365-17.338,14.089c0,8.072,5.743,13.382,16.091,13.382c7.478,0,13.059-3.033,16.799-6.229L223.981,359.019z"
				/>
			<path fill="#C29720" d="M257.734,359.18v6.446H227.77v-38.252h7.261v31.806H257.734z"/>
			<path fill="#C29720" d="M301.566,365.626l-4.932-9.966h-23.732l-5.636,9.966h-8.724l22.866-38.252h8.723l19.833,38.252H301.566z
				 M276.533,349.208h16.905l-7.91-15.926L276.533,349.208z"/>
			<path fill="#C29720" d="M347.942,337.398c-2.872-2.276-10.566-4.283-17.122-4.283c-5.96,0-11.108,1.79-11.108,5.907
				c0,6.936,31.644-0.542,31.644,14.089c0,7.152-7.044,13.763-20.048,13.763c-13.004,0-19.292-4.444-21.621-6.936l4.822-5.365
				c5.365,4.445,11.272,5.69,16.637,5.69c5.526,0,12.516-1.406,12.516-6.068c0-9.102-32.023,0.542-32.023-15.173
				c0-7.694,8.778-12.516,20.048-12.516c9.59,0,16.743,3.036,20.157,5.365C351.844,331.872,349.406,335.447,347.942,337.398z"/>
			<path fill="#C29720" d="M393.073,337.398c-2.872-2.276-10.567-4.283-17.123-4.283c-5.96,0-11.107,1.79-11.107,5.907
				c0,6.936,31.644-0.542,31.644,14.089c0,7.152-7.044,13.763-20.047,13.763c-13.006,0-19.292-4.444-21.621-6.936l4.822-5.365
				c5.366,4.445,11.271,5.69,16.635,5.69c5.526,0,12.518-1.406,12.518-6.068c0-9.102-32.023,0.542-32.023-15.173
				c0-7.694,8.777-12.516,20.047-12.516c9.591,0,16.742,3.036,20.157,5.365C396.975,331.872,394.537,335.447,393.073,337.398z"/>
			<path fill="#C29720" d="M409.81,365.626h-7.151v-38.252h7.151V365.626z"/>
			<path fill="#C29720" d="M459.498,359.019c-2.656,2.71-9.266,7.15-20.158,7.15c-14.846,0-23.027-8.071-23.027-19.504
				c0-11.381,10.186-20.158,24.275-20.158c8.939,0,15.334,3.251,17.881,4.985l-2.656,4.986c-4.497-2.276-9.697-3.902-15.225-3.902
				c-10.404,0-17.34,5.365-17.34,14.089c0,8.072,5.744,13.382,16.092,13.382c7.479,0,13.059-3.033,16.799-6.229L459.498,359.019z"/>
		</g>
	</g>
	<g id="FILM_6_">
		<path fill="#FFFFFF" d="M484.529,283.148v10.497h25.812v6.75h-25.812v16.055h-7.486v-40.051h34.774v6.75H484.529z"/>
		<path fill="#FFFFFF" d="M525.548,316.449h-7.489v-40.051h7.489V316.449z"/>
		<path fill="#FFFFFF" d="M566.561,309.7v6.749h-31.368v-40.051h7.598V309.7H566.561z"/>
		<path fill="#FFFFFF" d="M602.473,308.393l19.514-31.769h10.271v39.825h-7.491v-31.656l-19.454,31.656h-6.754l-18.834-31.541
			v31.541h-7.489v-39.825h11.349L602.473,308.393z"/>
	</g>
	<g id="VIASAT_6_">
		<path fill="#010202" d="M245.251,276.229h7.717l-23.729,40.368h-7.775l-21.441-40.368h9.033l16.755,33.221L245.251,276.229z"/>
		<path fill="#010202" d="M265.36,316.597h-7.549v-40.368h7.549V316.597z"/>
		<path fill="#010202" d="M317.897,316.597l-5.204-10.52H287.65l-5.947,10.52h-9.206l24.13-40.368h9.205l20.927,40.368H317.897z
			 M291.482,299.271h17.838l-8.349-16.811L291.482,299.271z"/>
		<path fill="#010202" d="M367.965,286.806c-3.03-2.401-11.147-4.516-18.068-4.516c-6.289,0-11.721,1.887-11.721,6.232
			c0,7.319,33.394-0.572,33.394,14.867c0,7.548-7.433,14.521-21.158,14.521c-13.722,0-20.354-4.687-22.813-7.319l5.09-5.66
			c5.66,4.692,11.894,6.006,17.554,6.006c5.83,0,13.208-1.486,13.208-6.406c0-9.605-33.792,0.573-33.792-16.008
			c0-8.119,9.261-13.208,21.155-13.208c10.121,0,17.668,3.203,21.272,5.662C372.084,280.975,369.51,284.749,367.965,286.806z"/>
		<path fill="#010202" d="M417.466,316.597l-5.204-10.52h-25.042l-5.947,10.52h-9.206l24.13-40.368h9.206l20.927,40.368H417.466z
			 M391.051,299.271h17.838l-8.348-16.811L391.051,299.271z"/>
		<path fill="#010202" d="M462.962,283.261h-16.638v33.336h-7.548v-33.336h-16.182v-6.804h40.367V283.261z"/>
	</g>
</g>
</svg>
