<?xml version="1.0" encoding="UTF-8" ?>
<!DOCTYPE svg PUBLIC "-//W3C//DTD SVG 1.1//EN" "http://www.w3.org/Graphics/SVG/1.1/DTD/svg11.dtd">
<svg width="500pt" height="187pt" viewBox="0 0 500 187" version="1.1" xmlns="http://www.w3.org/2000/svg">
<g id="#894c16ff">
<path fill="#894c16" opacity="1.00" d=" M 352.46 17.53 C 366.41 7.08 383.72 1.41 401.05 0.34 C 423.49 -1.07 446.32 6.06 463.98 19.99 C 480.77 32.98 492.83 51.93 497.49 72.64 C 502.69 94.92 499.37 119.08 488.15 139.04 C 485.60 143.89 482.20 148.19 479.16 152.72 L 478.43 152.52 C 473.68 153.05 468.26 158.30 464.03 153.89 C 460.73 149.93 458.65 145.01 454.58 141.67 C 454.44 140.73 454.31 139.80 454.18 138.86 C 450.95 135.10 447.84 131.20 444.04 127.99 C 441.58 125.99 440.28 123.05 438.54 120.49 C 437.05 119.01 435.13 118.09 433.25 117.24 C 433.18 105.90 433.22 94.56 433.18 83.22 C 440.08 94.56 446.73 106.05 453.65 117.37 C 456.08 117.34 458.51 117.32 460.95 117.29 C 467.97 105.98 474.78 94.53 481.90 83.28 C 481.96 94.61 481.88 105.95 481.89 117.28 C 484.68 117.29 487.48 117.29 490.28 117.29 C 490.25 102.90 490.25 88.51 490.23 74.11 C 486.49 74.11 482.75 74.11 479.02 74.10 C 471.87 85.48 465.01 97.04 457.80 108.38 C 451.04 96.98 444.20 85.62 437.52 74.18 C 433.38 74.09 429.24 74.10 425.10 74.07 C 425.06 80.26 425.20 86.46 424.93 92.64 C 424.63 97.20 424.00 101.73 423.96 106.31 C 423.12 104.46 422.49 102.47 421.25 100.84 C 419.65 99.32 417.59 98.41 415.69 97.33 C 408.79 93.72 402.48 89.10 395.62 85.43 C 395.12 86.41 394.64 87.40 394.16 88.39 C 393.92 83.52 393.60 78.66 393.23 73.80 C 390.38 73.75 387.54 73.65 384.69 73.68 C 383.95 75.15 383.14 76.59 382.18 77.93 C 380.32 78.58 378.50 79.33 376.71 80.15 C 376.30 78.25 375.90 76.34 375.40 74.45 L 374.38 73.84 C 371.70 73.65 369.01 73.69 366.34 73.60 C 364.75 71.19 362.67 69.15 361.10 66.74 C 359.76 64.17 360.99 61.23 361.78 58.69 C 363.90 53.00 366.20 47.34 369.08 41.98 C 370.05 40.54 370.90 38.31 372.98 38.41 C 382.05 37.46 390.68 40.93 399.08 43.82 C 397.04 34.25 391.72 24.81 382.59 20.47 C 373.58 14.81 362.45 15.08 352.46 17.53 Z" />
</g>
<g id="#b27522ff">
<path fill="#b27522" opacity="1.00" d=" M 352.46 17.53 C 362.45 15.08 373.58 14.81 382.59 20.47 C 391.72 24.81 397.04 34.25 399.08 43.82 C 390.68 40.93 382.05 37.46 372.98 38.41 C 370.90 38.31 370.05 40.54 369.08 41.98 C 366.20 47.34 363.90 53.00 361.78 58.69 C 360.99 61.23 359.76 64.17 361.10 66.74 C 362.67 69.15 364.75 71.19 366.34 73.60 C 366.20 88.16 366.32 102.73 366.23 117.29 C 368.94 117.29 371.64 117.30 374.35 117.31 C 374.44 102.82 374.27 88.33 374.38 73.84 L 375.40 74.45 C 375.90 76.34 376.30 78.25 376.71 80.15 C 378.50 79.33 380.32 78.58 382.18 77.93 C 383.14 76.59 383.95 75.15 384.69 73.68 C 385.20 88.20 384.72 102.74 384.84 117.27 C 396.17 117.26 407.50 117.25 418.83 117.23 C 418.82 114.84 418.81 112.45 418.82 110.07 C 410.24 110.05 401.67 110.08 393.11 110.04 C 393.10 97.96 392.84 85.87 393.23 73.80 C 393.60 78.66 393.92 83.52 394.16 88.39 C 394.64 87.40 395.12 86.41 395.62 85.43 C 402.48 89.10 408.79 93.72 415.69 97.33 C 417.59 98.41 419.65 99.32 421.25 100.84 C 422.49 102.47 423.12 104.46 423.96 106.31 C 424.00 101.73 424.63 97.20 424.93 92.64 C 425.20 100.84 425.09 109.03 425.08 117.23 C 427.80 117.22 430.52 117.16 433.25 117.24 C 435.13 118.09 437.05 119.01 438.54 120.49 C 440.28 123.05 441.58 125.99 444.04 127.99 C 447.84 131.20 450.95 135.10 454.18 138.86 C 454.31 139.80 454.44 140.73 454.58 141.67 C 458.65 145.01 460.73 149.93 464.03 153.89 C 468.26 158.30 473.68 153.05 478.43 152.52 C 476.90 155.49 474.40 157.75 472.09 160.09 C 456.70 175.53 435.66 185.15 413.94 186.78 C 406.44 187.14 398.89 187.15 391.46 185.96 L 391.34 185.79 C 387.40 179.11 380.61 175.07 375.28 169.66 C 369.48 164.18 364.60 157.36 357.14 153.97 C 369.95 156.50 383.75 155.86 395.51 149.80 C 386.42 142.93 377.35 135.48 371.40 125.60 C 369.88 123.22 368.39 120.48 365.54 119.54 C 361.59 118.01 358.08 115.65 354.44 113.53 C 346.21 109.74 338.94 103.64 329.77 102.16 C 329.77 101.56 329.78 100.37 329.78 99.77 C 339.13 99.77 348.49 99.76 357.85 99.77 C 357.85 97.36 357.86 94.96 357.88 92.55 C 348.50 92.50 339.12 92.58 329.75 92.47 C 329.76 88.70 329.77 84.93 329.78 81.16 C 339.65 81.17 349.52 81.15 359.40 81.12 C 359.40 78.68 359.40 76.24 359.40 73.80 C 346.83 73.74 334.26 73.85 321.70 73.79 C 321.68 88.23 321.62 102.68 321.62 117.12 C 321.34 116.98 320.79 116.71 320.52 116.57 C 320.42 114.29 320.45 112.00 320.45 109.72 C 318.55 108.35 316.65 106.96 314.75 105.59 C 314.65 106.27 314.45 107.62 314.35 108.29 C 308.13 74.10 323.83 37.13 352.46 17.53 Z" />
</g>
<g id="#000000ff">
<path fill="#000000" opacity="1.00" d=" M 173.25 74.25 C 184.72 70.83 197.60 72.66 207.91 78.68 C 206.45 80.75 204.99 82.83 203.55 84.91 C 195.87 81.04 187.02 79.44 178.50 80.65 C 175.25 81.23 170.82 83.03 171.07 87.01 C 170.94 89.03 173.32 89.63 174.84 90.07 C 183.11 91.80 191.85 90.99 199.90 93.87 C 203.14 95.02 206.33 97.41 207.05 100.97 C 208.18 106.58 204.74 112.19 200.00 114.99 C 192.71 119.42 183.70 119.36 175.52 118.21 C 169.57 117.39 163.87 114.98 159.29 111.07 C 161.14 109.03 162.85 106.85 164.94 105.05 C 172.94 110.76 183.47 113.03 192.96 110.01 C 195.32 109.21 198.05 107.68 198.36 104.92 C 198.89 101.92 195.61 100.37 193.20 99.87 C 184.89 98.22 176.05 99.28 168.07 96.10 C 164.00 94.63 161.12 90.45 161.72 86.06 C 162.15 79.93 167.82 75.90 173.25 74.25 Z" />
<path fill="#000000" opacity="1.00" d=" M 20.94 73.55 C 24.24 73.54 27.55 73.54 30.86 73.58 C 36.76 85.36 42.66 97.16 48.66 108.88 C 49.86 108.90 50.14 107.51 50.75 106.75 C 57.08 95.63 63.68 84.67 70.05 73.58 C 72.89 73.56 75.74 73.55 78.58 73.55 C 69.98 88.14 61.30 102.69 52.88 117.39 C 49.97 117.45 47.06 117.46 44.16 117.41 C 36.53 102.73 28.69 88.16 20.94 73.55 Z" />
<path fill="#000000" opacity="1.00" d=" M 83.75 73.54 C 86.49 73.55 89.22 73.55 91.96 73.57 C 91.87 88.19 91.88 102.82 91.95 117.44 C 89.22 117.45 86.48 117.46 83.75 117.47 C 83.77 102.82 83.77 88.18 83.75 73.54 Z" />
<path fill="#000000" opacity="1.00" d=" M 99.63 117.46 C 108.39 102.82 117.12 88.17 125.88 73.54 C 129.22 73.54 132.56 73.55 135.89 73.59 C 143.47 88.22 151.01 102.87 158.65 117.46 C 155.40 117.46 152.15 117.46 148.90 117.44 C 146.92 113.66 145.44 109.60 143.04 106.06 C 134.12 105.86 125.14 105.62 116.24 106.19 C 113.75 109.71 111.92 113.64 109.81 117.39 C 106.42 117.46 103.02 117.47 99.63 117.46 M 120.27 98.56 C 126.72 98.61 133.18 98.66 139.63 98.51 C 136.57 92.57 133.63 86.56 130.68 80.56 C 126.98 86.43 123.86 92.62 120.27 98.56 Z" />
<path fill="#000000" opacity="1.00" d=" M 207.71 117.43 C 216.49 102.82 225.20 88.17 233.95 73.54 C 237.29 73.54 240.63 73.55 243.97 73.59 C 251.53 88.23 259.10 102.86 266.73 117.47 C 263.47 117.46 260.23 117.46 256.98 117.44 C 254.88 113.75 253.69 109.41 251.00 106.12 C 242.07 105.65 233.09 105.91 224.15 106.05 C 222.07 109.84 219.92 113.59 217.87 117.40 C 214.48 117.46 211.09 117.47 207.71 117.43 M 228.39 98.53 C 234.83 98.65 241.27 98.60 247.71 98.57 C 244.67 92.59 241.72 86.57 238.74 80.56 C 235.09 86.43 231.90 92.57 228.39 98.53 Z" />
<path fill="#000000" opacity="1.00" d=" M 262.50 73.80 C 277.14 73.81 291.78 73.81 306.43 73.80 C 306.43 76.28 306.42 78.76 306.43 81.24 C 300.39 81.24 294.36 81.23 288.32 81.25 C 288.37 93.32 288.31 105.40 288.35 117.47 C 285.61 117.46 282.87 117.45 280.13 117.43 C 280.21 105.36 280.20 93.29 280.14 81.22 C 274.25 81.25 268.37 81.24 262.49 81.24 C 262.49 78.76 262.50 76.28 262.50 73.80 Z" />
</g>
<g id="#ffffffff">
<path fill="#ffffff" opacity="1.00" d=" M 321.70 73.79 C 334.26 73.85 346.83 73.74 359.40 73.80 C 359.40 76.24 359.40 78.68 359.40 81.12 C 349.52 81.15 339.65 81.17 329.78 81.16 C 329.77 84.93 329.76 88.70 329.75 92.47 C 339.12 92.58 348.50 92.50 357.88 92.55 C 357.86 94.96 357.85 97.36 357.85 99.77 C 348.49 99.76 339.13 99.77 329.78 99.77 C 329.78 100.37 329.77 101.56 329.77 102.16 C 329.73 107.19 329.75 112.23 329.79 117.26 C 327.06 117.26 324.34 117.29 321.62 117.12 C 321.62 102.68 321.68 88.23 321.70 73.79 Z" />
<path fill="#ffffff" opacity="1.00" d=" M 366.34 73.60 C 369.01 73.69 371.70 73.65 374.38 73.84 C 374.27 88.33 374.44 102.82 374.35 117.31 C 371.64 117.30 368.94 117.29 366.23 117.29 C 366.32 102.73 366.20 88.16 366.34 73.60 Z" />
<path fill="#ffffff" opacity="1.00" d=" M 384.69 73.68 C 387.54 73.65 390.38 73.75 393.23 73.80 C 392.84 85.87 393.10 97.96 393.11 110.04 C 401.67 110.08 410.24 110.05 418.82 110.07 C 418.81 112.45 418.82 114.84 418.83 117.23 C 407.50 117.25 396.17 117.26 384.84 117.27 C 384.72 102.74 385.20 88.20 384.69 73.68 Z" />
<path fill="#ffffff" opacity="1.00" d=" M 425.10 74.07 C 429.24 74.10 433.38 74.09 437.52 74.18 C 444.20 85.62 451.04 96.98 457.80 108.38 C 465.01 97.04 471.87 85.48 479.02 74.10 C 482.75 74.11 486.49 74.11 490.23 74.11 C 490.25 88.51 490.25 102.90 490.28 117.29 C 487.48 117.29 484.68 117.29 481.89 117.28 C 481.88 105.95 481.96 94.61 481.90 83.28 C 474.78 94.53 467.97 105.98 460.95 117.29 C 458.51 117.32 456.08 117.34 453.65 117.37 C 446.73 106.05 440.08 94.56 433.18 83.22 C 433.22 94.56 433.18 105.90 433.25 117.24 C 430.52 117.16 427.80 117.22 425.08 117.23 C 425.09 109.03 425.20 100.84 424.93 92.64 C 425.20 86.46 425.06 80.26 425.10 74.07 Z" />
</g>
<g id="#dba628ff">
<path fill="#dba628" opacity="1.00" d=" M 329.77 102.16 C 338.94 103.64 346.21 109.74 354.44 113.53 C 358.08 115.65 361.59 118.01 365.54 119.54 C 368.39 120.48 369.88 123.22 371.40 125.60 C 377.35 135.48 386.42 142.93 395.51 149.80 C 383.75 155.86 369.95 156.50 357.14 153.97 C 364.60 157.36 369.48 164.18 375.28 169.66 C 380.61 175.07 387.40 179.11 391.34 185.79 C 366.97 182.00 344.52 167.83 330.30 147.72 C 322.07 136.05 316.30 122.46 314.35 108.29 C 314.45 107.62 314.65 106.27 314.75 105.59 C 316.65 106.96 318.55 108.35 320.45 109.72 C 320.45 112.00 320.42 114.29 320.52 116.57 C 320.79 116.71 321.34 116.98 321.62 117.12 C 324.34 117.29 327.06 117.26 329.79 117.26 C 329.75 112.23 329.73 107.19 329.77 102.16 Z" />
<path fill="#dba628" opacity="1.00" d=" M 11.84 131.60 C 22.51 126.07 35.74 127.55 45.96 133.40 C 45.03 135.27 44.08 137.14 43.12 139.00 C 33.73 134.47 21.12 132.29 12.41 139.33 C 5.99 144.71 6.04 156.08 12.86 161.12 C 22.22 167.41 35.14 164.64 43.53 157.91 C 44.74 159.86 45.95 161.81 47.14 163.77 C 37.35 171.84 22.92 173.57 11.37 168.51 C 4.70 165.63 0.58 158.75 0.00 151.65 L 0.00 149.17 C 0.49 141.71 5.21 134.93 11.84 131.60 Z" />
<path fill="#dba628" opacity="1.00" d=" M 144.78 134.83 C 149.36 129.83 156.51 128.41 163.00 128.16 C 170.98 127.98 179.03 129.87 185.95 133.91 C 184.54 135.91 183.15 137.92 181.75 139.93 C 174.52 136.15 166.07 134.60 157.99 135.81 C 154.74 136.34 150.99 138.30 150.76 142.00 C 151.55 144.09 153.93 144.66 155.89 145.02 C 163.22 146.17 170.82 145.84 177.94 148.19 C 181.13 149.23 184.37 151.43 185.06 154.93 C 186.26 160.04 183.25 165.22 179.05 167.97 C 172.56 172.26 164.38 172.61 156.89 171.70 C 150.70 171.01 144.65 168.74 139.87 164.69 C 141.60 162.68 143.38 160.71 145.13 158.72 C 152.61 164.50 162.86 166.42 171.88 163.58 C 174.42 162.84 177.22 160.84 176.87 157.85 C 176.67 155.82 174.62 154.73 172.86 154.30 C 164.16 152.15 154.52 153.92 146.40 149.57 C 141.13 146.69 140.88 138.94 144.78 134.83 Z" />
<path fill="#dba628" opacity="1.00" d=" M 202.01 129.78 C 212.92 126.48 225.12 128.30 234.96 133.90 C 233.54 135.90 232.13 137.90 230.73 139.91 C 223.49 136.16 215.05 134.59 206.96 135.82 C 203.89 136.37 199.75 138.21 200.04 141.94 C 199.86 143.53 201.86 144.17 203.07 144.61 C 211.61 146.55 220.82 145.38 228.97 149.04 C 232.83 150.66 235.10 154.98 234.15 159.09 C 232.74 166.56 225.10 170.69 218.14 171.67 C 208.06 172.95 196.88 171.48 188.89 164.72 C 190.60 162.68 192.38 160.69 194.13 158.69 C 201.33 164.36 211.18 166.25 220.00 163.86 C 222.44 163.16 225.23 161.85 225.86 159.14 C 226.53 156.54 224.02 154.75 221.80 154.29 C 213.59 152.33 204.75 153.63 196.84 150.34 C 193.11 148.88 190.57 144.94 191.14 140.92 C 191.59 135.18 196.89 131.31 202.01 129.78 Z" />
<path fill="#dba628" opacity="1.00" d=" M 271.78 129.77 C 281.64 126.60 292.83 128.17 301.63 133.57 C 300.66 135.38 299.68 137.20 298.69 139.01 C 292.30 135.90 285.10 134.06 277.97 135.13 C 272.09 135.76 265.96 139.27 264.12 145.19 C 261.81 151.47 264.31 159.50 270.57 162.43 C 279.91 166.86 291.15 164.19 299.05 158.03 C 300.43 159.77 301.54 161.71 302.76 163.57 C 295.38 170.31 284.76 172.25 275.09 170.93 C 270.29 170.16 265.46 168.44 261.87 165.05 C 255.16 158.88 253.79 147.94 258.39 140.16 C 261.30 135.13 266.31 131.54 271.78 129.77 Z" />
<path fill="#dba628" opacity="1.00" d=" M 51.12 129.12 C 53.77 129.11 56.42 129.12 59.07 129.16 C 59.07 140.63 59.07 152.11 59.07 163.58 C 67.32 163.56 75.56 163.55 83.81 163.59 C 83.79 165.95 83.75 168.32 83.74 170.68 C 72.86 170.70 61.99 170.69 51.11 170.69 C 51.13 156.83 51.12 142.98 51.12 129.12 Z" />
<path fill="#dba628" opacity="1.00" d=" M 109.26 129.16 C 112.46 129.10 115.67 129.11 118.88 129.13 C 126.01 143.00 133.24 156.82 140.39 170.68 C 137.33 170.69 134.27 170.70 131.21 170.69 C 129.43 167.07 127.60 163.48 125.86 159.85 C 117.29 160.04 108.61 159.39 100.11 160.16 C 97.85 163.54 96.12 167.25 93.98 170.71 C 90.80 170.68 87.62 170.70 84.44 170.64 C 92.81 156.87 101.02 143.00 109.26 129.16 M 104.11 152.77 C 110.20 152.84 116.29 152.80 122.38 152.80 C 119.48 147.11 116.65 141.38 113.86 135.63 C 110.54 141.30 107.42 147.10 104.11 152.77 Z" />
<path fill="#dba628" opacity="1.00" d=" M 240.84 129.12 C 243.46 129.11 246.08 129.12 248.71 129.12 C 248.69 142.99 248.68 156.85 248.71 170.71 C 246.08 170.67 243.45 170.68 240.82 170.64 C 240.86 156.80 240.83 142.96 240.84 129.12 Z" />
</g>
</svg>
