<?xml version="1.0" encoding="UTF-8" standalone="no"?>
<!-- Created with Inkscape (http://www.inkscape.org/) -->

<svg
   xmlns:dc="http://purl.org/dc/elements/1.1/"
   xmlns:cc="http://creativecommons.org/ns#"
   xmlns:rdf="http://www.w3.org/1999/02/22-rdf-syntax-ns#"
   xmlns:svg="http://www.w3.org/2000/svg"
   xmlns="http://www.w3.org/2000/svg"
   xmlns:sodipodi="http://sodipodi.sourceforge.net/DTD/sodipodi-0.dtd"
   xmlns:inkscape="http://www.inkscape.org/namespaces/inkscape"
   width="912.80811"
   height="100"
   id="svg2"
   version="1.1"
   inkscape:version="0.48.1 "
   sodipodi:docname="Kabel eins classics HD 2012.svg">
  <defs
     id="defs4">
    <inkscape:perspective
       sodipodi:type="inkscape:persp3d"
       inkscape:vp_x="0 : 0.5 : 1"
       inkscape:vp_y="0 : 1000 : 0"
       inkscape:vp_z="1 : 0.5 : 1"
       inkscape:persp3d-origin="0.5 : 0.33333333 : 1"
       id="perspective2924" />
    <inkscape:perspective
       id="perspective2942"
       inkscape:persp3d-origin="372.04724 : 350.78739 : 1"
       inkscape:vp_z="744.09448 : 526.18109 : 1"
       inkscape:vp_y="0 : 1000 : 0"
       inkscape:vp_x="0 : 526.18109 : 1"
       sodipodi:type="inkscape:persp3d" />
  </defs>
  <sodipodi:namedview
     id="base"
     pagecolor="#ffffff"
     bordercolor="#666666"
     borderopacity="1.0"
     inkscape:pageopacity="0.0"
     inkscape:pageshadow="2"
     inkscape:zoom="0.7"
     inkscape:cx="468.81068"
     inkscape:cy="248.71464"
     inkscape:document-units="px"
     inkscape:current-layer="layer1"
     showgrid="false"
     inkscape:window-width="1618"
     inkscape:window-height="1028"
     inkscape:window-x="-8"
     inkscape:window-y="-8"
     inkscape:window-maximized="1"
     fit-margin-top="0"
     fit-margin-left="0"
     fit-margin-right="0"
     fit-margin-bottom="0" />
  <metadata
     id="metadata7">
    <rdf:RDF>
      <cc:Work
         rdf:about="">
        <dc:format>image/svg+xml</dc:format>
        <dc:type
           rdf:resource="http://purl.org/dc/dcmitype/StillImage" />
        <dc:title></dc:title>
      </cc:Work>
    </rdf:RDF>
  </metadata>
  <g
     inkscape:label="Ebene 1"
     inkscape:groupmode="layer"
     id="layer1"
     transform="translate(0,-952.36218)">
    <g
       transform="translate(241.25938,591.52196)"
       id="layer1-7"
       inkscape:label="Ebene 1">
      <path
         id="path4427"
         style="fill:#f25323;fill-opacity:1;fill-rule:nonzero;stroke:none"
         d="m -92.548389,366.8556 c 0,-3.32429 -2.691091,-6.01538 -6.015378,-6.01538 l -136.680233,0 c -3.32429,0 -6.01538,2.69109 -6.01538,6.01538 l 0,87.13252 c 0,3.30167 2.69109,5.99276 6.01538,5.99276 l 136.680233,0 c 3.324287,0 6.015378,-2.69109 6.015378,-5.99276 l 0,-87.13252"
         inkscape:connector-curvature="0" />
      <path
         id="path4431"
         style="fill:#ffffff;fill-opacity:1;fill-rule:nonzero;stroke:none"
         d="m -241.14631,416.26763 c 4.50023,12.2569 13.18408,21.84532 24.60425,29.39846 9.52058,5.47264 20.08141,9.45274 31.86341,9.40751 39.66531,-0.20443 64.83492,-29.12709 64.65401,-64.58616 -0.0362,-9.00045 -2.66848,-17.54862 -6.06061,-25.30529 -6.76165,2.26142 -20.91814,5.17865 -28.1773,6.03799 -1.4256,11.05834 -11.3071,18.83763 -24.92085,21.84532 0,1.9222 -0.4758,14.20172 -0.65671,16.21438 5.60832,-0.85934 12.41519,-2.10312 18.13659,-3.79919 -6.55812,25.16961 -32.08956,36.18273 -54.6133,27.40842 -14.92537,-5.83447 -24.71732,-18.20444 -24.83039,-41.99458 l 0,25.37314"
         inkscape:connector-curvature="0" />
      <path
         id="path4435"
         style="fill:#231f20;fill-opacity:1;fill-rule:nonzero;stroke:none"
         d="m 491.62167,460.84022 c -14.88015,0 -26.16463,-3.16599 -35.79828,-12.93532 l 12.39258,-12.39259 c 6.19629,6.1963 14.58616,8.25419 23.67707,8.25419 11.28449,0 17.34509,-4.27409 17.34509,-12.12121 0,-3.43736 -0.94979,-6.33198 -3.03012,-8.25419 -1.92239,-1.78562 -4.11597,-2.75893 -8.66142,-3.43736 L 485.69675,418.302 c -8.38987,-1.24468 -14.58616,-3.86703 -18.99593,-8.14111 -4.68114,-4.68114 -7.03302,-11.01312 -7.03302,-19.2673 0,-17.48078 12.95794,-29.73768 34.14745,-29.73768 13.50068,0 23.29262,3.30168 31.68249,11.42018 l -12.12121,11.98552 c -6.19629,-5.92492 -13.63636,-6.76164 -20.10402,-6.76164 -10.17639,0 -15.15152,5.65355 -15.15152,12.39258 0,2.48756 0.83763,5.11081 2.89462,7.03302 1.92221,1.78742 5.11081,3.30167 9.09091,3.84441 l 11.57847,1.67345 c 8.93261,1.22117 14.58616,3.70873 18.72456,7.55314 5.22388,4.97513 7.55314,12.12122 7.55314,20.80507 0,18.99593 -15.82994,29.73768 -36.34102,29.73768 z m -79.01402,0 c -10.44776,0 -19.2673,-3.57304 -26.436,-10.74175 -4.25147,-4.27408 -6.87472,-9.22659 -7.98282,-14.72184 -1.08548,-5.51787 -1.64993,-13.63636 -1.64993,-24.37811 0,-10.74175 0.56445,-18.86024 1.64993,-24.37811 1.109,-5.65355 3.73135,-10.47038 7.98282,-14.72185 7.1687,-7.1687 15.98824,-10.74174 26.436,-10.74174 18.88286,0 32.79059,11.01312 36.09226,30.98146 l -19.42559,0 c -2.0579,-8.41249 -7.28178,-13.90774 -16.50837,-13.90774 -5.2465,0 -9.3849,1.65174 -12.2569,5.0882 -4.00271,4.27408 -4.81682,8.68385 -4.81682,27.67978 0,18.99593 0.81411,23.4057 4.81682,27.67978 2.872,3.43736 7.0104,5.0882 12.2569,5.0882 9.22659,0 14.45047,-5.51787 16.50837,-13.90774 l 19.42559,0 c -3.30167,19.96834 -17.34509,30.98146 -36.09226,30.98146 z m -52.28404,-0.83582 -19.14029,0 0,-98.03944 19.14029,0 0,98.03944 z m -19.13161,0 z m -50.1583,0.83582 c -14.88014,0 -26.16463,-3.16599 -35.79828,-12.93532 L 267.628,435.51231 c 6.19629,6.1963 14.58616,8.25419 23.67707,8.25419 11.28449,0 17.34509,-4.27409 17.34509,-12.12121 0,-3.43736 -0.94979,-6.33198 -3.0303,-8.25419 -1.92221,-1.78562 -4.11578,-2.75893 -8.66124,-3.43736 L 285.10878,418.302 c -8.38987,-1.24468 -14.58616,-3.86703 -18.99593,-8.14111 -4.68114,-4.68114 -7.03302,-11.01312 -7.03302,-19.2673 0,-17.48078 12.95794,-29.73768 34.14745,-29.73768 13.50068,0 23.27001,3.30168 31.68249,11.42018 l -12.12121,11.98552 c -6.19629,-5.92492 -13.63636,-6.76164 -20.10402,-6.76164 -10.19901,0 -15.15152,5.65355 -15.15152,12.39258 0,2.48756 0.83763,5.11081 2.89462,7.03302 1.92221,1.78742 5.08819,3.30167 9.09091,3.84441 l 11.55586,1.67345 c 8.95522,1.22117 14.60877,3.70873 18.72455,7.55314 5.2465,4.97513 7.57576,12.12122 7.57576,20.80507 0,18.99593 -15.82994,29.73768 -36.34102,29.73768 z m -80.03166,0 c -14.88014,0 -26.16463,-3.16599 -35.8209,-12.93532 l 12.4152,-12.39259 c 6.19629,6.1963 14.58616,8.25419 23.67707,8.25419 11.28449,0 17.34509,-4.27409 17.34509,-12.12121 0,-3.43736 -0.97331,-6.33198 -3.0303,-8.25419 -1.92221,-1.78562 -4.1384,-2.75893 -8.68385,-3.43736 L 205.07712,418.302 c -8.41248,-1.24468 -14.60877,-3.86703 -19.01854,-8.14111 -4.68114,-4.68114 -7.01041,-11.01312 -7.01041,-19.2673 0,-17.48078 12.93533,-29.73768 34.14745,-29.73768 13.50068,0 23.27001,3.30168 31.65988,11.42018 l -12.0986,11.98552 c -6.19629,-5.92492 -13.63636,-6.76164 -20.10402,-6.76164 -10.19901,0 -15.15152,5.65355 -15.15152,12.39258 0,2.48756 0.81411,5.11081 2.89462,7.03302 1.92221,1.78742 5.08819,3.30167 9.09091,3.84441 l 11.55586,1.67345 c 8.95522,1.22117 14.60877,3.70873 18.72455,7.55314 5.2465,4.97513 7.57576,12.12122 7.57576,20.80507 0,18.99593 -15.82994,29.73768 -36.34102,29.73768 z m -83.9213,-69.94573 -12.39258,35.6626 24.35549,0 -11.96291,-35.6626 z m 22.86296,69.109 -5.78924,-17.34509 -34.84848,0 -5.92493,17.34509 -19.945722,0 35.662592,-98.03256 14.99322,0 35.79828,98.03256 -19.94572,0 z m -138.014478,0 0,-98.03256 19.154229,0 0,80.95884 44.482135,0 0,17.07372 -63.636364,0 z m -49.276345,0.83583 c -10.470375,0 -19.289914,-3.57305 -26.436002,-10.74175 -4.274084,-4.27408 -6.897331,-9.22659 -7.982813,-14.72185 -1.109001,-5.51786 -1.651741,-13.63636 -1.651741,-24.37811 0,-10.74174 0.54274,-18.86024 1.651741,-24.3781 1.085482,-5.65356 3.708729,-10.47038 7.982813,-14.72185 7.146088,-7.1687 15.965627,-10.74175 26.436002,-10.74175 18.860244,0 32.7679782,11.01312 36.0696516,30.98146 l -19.4029846,0 c -2.080507,-8.41248 -7.304388,-13.90773 -16.530982,-13.90773 -5.22388,0 -9.362279,1.65174 -12.256897,5.08819 -4.002714,4.27409 -4.816825,8.68386 -4.816825,27.67978 0,18.99593 0.814111,23.4057 4.816825,27.67979 2.894618,3.43736 7.033017,5.08819 12.256897,5.08819 9.226594,0 14.450475,-5.51786 16.530982,-13.90773 l 19.4029846,0 c -3.3016734,19.96834 -17.3450926,30.98146 -36.0696516,30.98146"
         inkscape:connector-curvature="0" />
    </g>
    <path
       style="fill:#b2b2b2;fill-opacity:1"
       d="m 794.25994,977.14267 0,-24.45163 13.28594,0.0568 0,9.0715 0,9.31592 13.93337,0 13.93335,0 0,-9.2349 0,-9.15252 c 4.23523,0.0824 8.55479,0 12.77274,0 0.46463,0 0.51256,1.83078 0.51256,24.18532 l 0,24.66114 -6.64265,0 -6.64265,0 0,-10.6931 0,-10.69307 -13.93335,0 -13.93337,0 0,10.69307 0,10.6931 -6.64264,0 -6.64265,0 0,-24.4517 0,0 -3.3e-4,0 -3.2e-4,0 z m 64.15825,8.92042 0,-15.57583 6.48063,0 6.48063,0 0,11.01708 0,11.01709 9.80195,-0.006 c 17.69992,-0.0101 18.19125,-0.42105 18.20428,-15.22387 0.01,-11.41083 -1.08908,-13.84523 -6.80541,-15.07347 -1.81817,-0.39066 -5.27864,-0.48137 -18.20352,-0.47715 l -15.95856,0.005 0,-4.55696 0,-4.55697 19.36087,0.1244 c 21.40687,0.13752 21.49113,-0.292 26.10368,1.84573 4.31372,1.99924 6.96162,6.08001 8.16437,11.67213 0.73439,3.41456 1.01591,13.94977 0.49112,18.37819 -1.17822,9.94161 -4.0552,14.36201 -12.14521,16.51874 -2.27443,0.6063 -3.86718,0.4813 -22.28991,0.6012 l -19.68492,-0.134 0,-15.57589 0,10e-6 0,-1.4e-4 z"
       id="path2885"
       sodipodi:nodetypes="cccccccccccccccccccccccccccccccsscccccssssccccccc"
       inkscape:connector-curvature="0" />
  </g>
</svg>
