<?xml version="1.0" encoding="UTF-8" standalone="no"?>
<!-- Created with Inkscape (http://www.inkscape.org/) -->

<svg
   xmlns:dc="http://purl.org/dc/elements/1.1/"
   xmlns:cc="http://creativecommons.org/ns#"
   xmlns:rdf="http://www.w3.org/1999/02/22-rdf-syntax-ns#"
   xmlns:svg="http://www.w3.org/2000/svg"
   xmlns="http://www.w3.org/2000/svg"
   version="1.1"
   width="533.49609"
   height="88.193001"
   id="svg21005">
  <defs
     id="defs3" />
  <metadata
     id="metadata4">
    <rdf:RDF>
      <cc:Work
         rdf:about="">
        <dc:format>image/svg+xml</dc:format>
        <dc:type
           rdf:resource="http://purl.org/dc/dcmitype/StillImage" />
        <dc:title></dc:title>
      </cc:Work>
    </rdf:RDF>
  </metadata>
  <g
     transform="translate(-191.22923,-370.50801)"
     id="layer1">
    <g
       transform="matrix(9.1405188,0,0,-9.1405188,328.64465,436.15625)"
       id="g2999">
      <path
         d="M 0,0 0.003,0 0.002,0.004 0,0"
         id="path3001"
         style="fill:#00adef;fill-opacity:1;fill-rule:nonzero;stroke:none" />
    </g>
    <g
       transform="matrix(9.1405188,0,0,-9.1405188,363.46089,371.63333)"
       id="g3003">
      <path
         d="m 0,0 -0.478,0 -3.001,-6.361 0.311,-0.686 2.922,6.117 3.878,-8.483 0.633,0 L 0,0"
         id="path3005"
         style="fill:#00adef;fill-opacity:1;fill-rule:nonzero;stroke:none" />
    </g>
    <g
       transform="matrix(9.1405188,0,0,-9.1405188,426.96007,381.9804)"
       id="g3007">
      <path
         d="m 0,0 c 0.367,0.342 0.887,0.525 1.504,0.528 l 0.015,0 c 0.603,0 1.206,-0.191 1.79,-0.568 L 3.321,-0.047 2.929,0.864 C 2.484,1.044 2.023,1.133 1.533,1.133 l -0.02,0 C -0.048,1.125 -1.176,0.092 -1.169,-1.322 -1.162,-2.596 -0.006,-3.183 1.113,-3.751 2.161,-4.283 3.152,-4.785 3.157,-5.806 3.159,-6.311 2.966,-6.775 2.612,-7.111 2.224,-7.479 1.672,-7.675 1.014,-7.678 l -0.017,0 c -0.978,0 -1.895,0.426 -2.383,0.79 l -0.053,0.04 -0.002,-0.026 0.41,-0.952 c 0.608,-0.287 1.336,-0.458 2.003,-0.458 l 0.019,0 c 0.849,0.005 1.572,0.276 2.09,0.785 0.475,0.468 0.735,1.097 0.731,1.772 -0.007,1.343 -1.196,1.938 -2.347,2.513 -1.021,0.511 -1.986,0.993 -1.991,1.958 C -0.529,-0.765 -0.342,-0.319 0,0"
         id="path3009"
         style="fill:#00adef;fill-opacity:1;fill-rule:nonzero;stroke:none" />
    </g>
    <g
       transform="matrix(9.1405188,0,0,-9.1405188,234.18653,452.29841)"
       id="g3011">
      <path
         d="M 0,0 C -2.138,0.06 -3.897,1.776 -4.008,3.912 -4.132,6.28 -2.247,8.251 0.097,8.263 1.512,8.27 2.766,7.562 3.517,6.478 L 3.796,7.069 C 2.908,8.179 1.53,8.878 -0.008,8.837 -2.524,8.771 -4.563,6.699 -4.59,4.182 c -0.027,-2.635 2.107,-4.773 4.732,-4.759 1.326,0.006 2.521,0.562 3.372,1.448 l 0,0.91 C 2.747,0.675 1.456,-0.041 0,0"
         id="path3013"
         style="fill:#00adef;fill-opacity:1;fill-rule:nonzero;stroke:none" />
    </g>
    <g
       transform="matrix(9.1405188,0,0,-9.1405188,343.89104,457.70046)"
       id="g3015">
      <path
         d="m 0,0 -0.273,0.593 -5.219,0 0,8.54 -0.593,0.28 L -6.085,0 0,0"
         id="path3017"
         style="fill:#00adef;fill-opacity:1;fill-rule:nonzero;stroke:none" />
    </g>
    <g
       transform="matrix(9.1405188,0,0,-9.1405188,549.06826,457.70046)"
       id="g3019">
      <path
         d="m 0,0 0.597,0 0,9.125 L 0,9.41 0,0"
         id="path3021"
         style="fill:#00adef;fill-opacity:1;fill-rule:nonzero;stroke:none" />
    </g>
    <g
       transform="matrix(9.1405188,0,0,-9.1405188,490.01137,381.9804)"
       id="g3023">
      <path
         d="m 0,0 c 0.367,0.342 0.887,0.525 1.504,0.528 l 0.015,0 c 0.603,0 1.206,-0.191 1.79,-0.568 L 3.321,-0.047 2.929,0.864 C 2.484,1.044 2.023,1.133 1.533,1.133 l -0.02,0 C -0.048,1.125 -1.176,0.092 -1.169,-1.322 -1.162,-2.596 -0.005,-3.183 1.113,-3.751 2.161,-4.283 3.152,-4.785 3.157,-5.806 3.159,-6.311 2.966,-6.775 2.612,-7.111 2.224,-7.479 1.672,-7.675 1.014,-7.678 l -0.017,0 c -0.978,0 -1.895,0.426 -2.383,0.79 l -0.053,0.04 -0.002,-0.026 0.41,-0.952 c 0.608,-0.287 1.336,-0.458 2.003,-0.458 l 0.019,0 c 0.849,0.005 1.572,0.276 2.09,0.785 0.475,0.468 0.735,1.097 0.731,1.772 -0.007,1.343 -1.196,1.938 -2.347,2.513 -1.021,0.511 -1.986,0.993 -1.991,1.958 C -0.529,-0.765 -0.342,-0.319 0,0"
         id="path3025"
         style="fill:#00adef;fill-opacity:1;fill-rule:nonzero;stroke:none" />
    </g>
    <g
       transform="matrix(9.1405188,0,0,-9.1405188,717.93021,457.70046)"
       id="g3027">
      <path
         d="m 0,0 0.634,0 -4.266,9.414 -0.478,0 L -6.322,4.727 -6.007,4.028 -3.878,8.484 0,0"
         id="path3029"
         style="fill:#00adef;fill-opacity:1;fill-rule:nonzero;stroke:none" />
    </g>
    <g
       transform="matrix(9.1405188,0,0,-9.1405188,618.98409,452.43552)"
       id="g3031">
      <path
         d="M 0,0 C -2.279,-0.011 -4.142,1.833 -4.153,4.112 -4.165,6.39 -2.32,8.253 -0.042,8.265 1.373,8.272 2.627,7.563 3.378,6.48 L 3.657,7.071 C 2.789,8.155 1.452,8.848 -0.045,8.841 -2.645,8.827 -4.742,6.709 -4.729,4.109 -4.716,1.508 -2.597,-0.589 0.003,-0.576 1.478,-0.568 2.79,0.117 3.648,1.182 L 3.377,1.785 C 2.634,0.713 1.4,0.007 0,0"
         id="path3033"
         style="fill:#00adef;fill-opacity:1;fill-rule:nonzero;stroke:none" />
    </g>
  </g>
</svg>
