<?xml version="1.0" encoding="utf-8"?>
<!-- Generator: Adobe Illustrator 13.0.1, SVG Export Plug-In  -->
<!DOCTYPE svg PUBLIC "-//W3C//DTD SVG 1.1//EN" "http://www.w3.org/Graphics/SVG/1.1/DTD/svg11.dtd" [
	<!ENTITY ns_flows "http://ns.adobe.com/Flows/1.0/">
]>
<svg version="1.1"
	 xmlns="http://www.w3.org/2000/svg" xmlns:xlink="http://www.w3.org/1999/xlink" xmlns:a="http://ns.adobe.com/AdobeSVGViewerExtensions/3.0/"
	 x="0px" y="0px" width="80px" height="77px" viewBox="-0.818 -0.811 80 77" enable-background="new -0.818 -0.811 80 77"
	 xml:space="preserve">
<defs>
</defs>
<path fill="#F36F21" d="M23.306,15.687l10.926,24.985L11.69,25.238c-5.654-3.745-4.506-10.162-1.374-12.989
	C14.747,8.504,21.014,9.803,23.306,15.687"/>
<path fill="#C9234A" d="M38.281,9.803l-3.974,27.966L23,11.179c-2.445-6.647,3.055-11.003,6.724-11.08
	C33.927-0.36,39.198,2.85,38.281,9.803"/>
<path fill="#635FAA" d="M55.474,11.102L44.242,37.769L40.649,13.7c-0.304-3.667,1.987-3.744,2.827-4.432
	c-0.15-0.533-1.299-0.533-1.299-0.533h-2.14C39.81,2.468,44.7-0.283,48.673,0.023C52.951,0.176,57.767,5.141,55.474,11.102"/>
<path fill="#0089CF" d="M66.937,25.085L44.396,40.596l10.62-24.68c3.209-7.794,10.696-6.266,13.372-3.285
	C71.291,15.535,72.132,21.417,66.937,25.085"/>
<path fill="#04B14B" d="M69.303,43.346H43.247l21.166-14.745c5.197-3.438,10.699-0.308,12.147,4.202
	C78.093,37.845,74.653,43.346,69.303,43.346"/>
<path fill="#FDB813" d="M1.833,32.497c1.987-5.194,7.489-7.029,12.379-3.896l21.164,14.745H9.704
	C4.354,43.346,0.151,38.456,1.833,32.497"/>
<polyline fill="#231F20" points="1.313,75.171 1.313,64.161 11.607,64.161 11.607,66.266 4.313,66.266 4.313,68.543 11.236,68.543 
	11.236,70.541 4.313,70.541 4.313,73.067 11.666,73.067 11.666,75.171 1.313,75.171 "/>
<path fill="#231F20" d="M13.19,71.229v-7.068h2.997v6.321c0,0.357,0.021,0.686,0.063,0.987c0.043,0.301,0.153,0.602,0.332,0.9
	c0.178,0.299,0.459,0.542,0.844,0.729c0.388,0.188,0.902,0.283,1.548,0.283c0.828,0,1.445-0.151,1.86-0.455
	c0.413-0.304,0.672-0.66,0.773-1.066c0.103-0.407,0.154-0.866,0.154-1.379v-6.321h2.998v7.068c0,0.467-0.048,0.916-0.144,1.342
	c-0.095,0.426-0.329,0.867-0.704,1.329c-0.377,0.459-0.962,0.84-1.764,1.138c-0.801,0.297-1.859,0.448-3.175,0.448
	c-1.312,0-2.367-0.151-3.171-0.453c-0.804-0.3-1.39-0.677-1.764-1.133c-0.37-0.455-0.604-0.896-0.7-1.325
	C13.238,72.146,13.19,71.696,13.19,71.229"/>
<path fill="#231F20" d="M26.734,75.171V64.161h8.008c0.938,0,1.673,0.16,2.205,0.48c0.528,0.317,0.886,0.7,1.074,1.142
	c0.19,0.44,0.283,0.899,0.283,1.372c0,0.672-0.143,1.228-0.432,1.664c-0.285,0.438-0.739,0.766-1.359,0.987v0.032
	c0.585,0.083,0.983,0.412,1.193,0.983c0.21,0.573,0.316,1.227,0.316,1.965c0,1.178,0.192,1.973,0.576,2.385H35.32
	c-0.099-0.19-0.169-0.372-0.209-0.539c-0.035-0.166-0.061-0.356-0.072-0.564c-0.009-0.212-0.012-0.547-0.012-1.008
	c0-0.714-0.138-1.214-0.415-1.498c-0.273-0.283-0.668-0.425-1.172-0.425h-3.706v4.034H26.734 M29.734,66.266v2.768h3.954
	c0.392,0,0.727-0.112,1.009-0.34c0.28-0.228,0.42-0.579,0.42-1.055c0-0.503-0.153-0.863-0.462-1.066
	c-0.308-0.204-0.683-0.307-1.125-0.307H29.734z"/>
<path fill="#231F20" d="M39.248,69.667c0-0.674,0.09-1.339,0.271-1.995c0.181-0.655,0.518-1.275,1.002-1.859
	c0.489-0.581,1.189-1.056,2.104-1.421c0.913-0.363,2.074-0.544,3.48-0.544c1.408,0,2.57,0.181,3.485,0.544
	c0.92,0.365,1.618,0.84,2.104,1.425c0.484,0.588,0.818,1.206,0.995,1.859c0.178,0.653,0.266,1.317,0.266,1.991
	c0,0.666-0.085,1.327-0.262,1.977s-0.507,1.27-0.995,1.854c-0.489,0.588-1.188,1.064-2.107,1.436
	c-0.915,0.368-2.077,0.553-3.485,0.553c-1.406,0-2.567-0.182-3.48-0.55c-0.914-0.369-1.614-0.844-2.104-1.429
	c-0.484-0.586-0.821-1.204-1.002-1.86C39.338,70.995,39.248,70.333,39.248,69.667 M42.438,69.67c0,0.618,0.123,1.209,0.372,1.771
	c0.246,0.568,0.646,1.032,1.192,1.396c0.544,0.363,1.245,0.545,2.104,0.545c0.847,0,1.544-0.182,2.092-0.545
	c0.549-0.364,0.948-0.828,1.196-1.396c0.249-0.562,0.373-1.152,0.373-1.771c0-0.458-0.068-0.905-0.201-1.341
	c-0.134-0.438-0.344-0.834-0.635-1.188c-0.291-0.358-0.674-0.646-1.15-0.863c-0.476-0.219-1.034-0.329-1.675-0.329
	c-0.637,0-1.191,0.11-1.67,0.324c-0.477,0.215-0.86,0.507-1.156,0.873c-0.297,0.369-0.51,0.765-0.641,1.195
	C42.506,68.77,42.438,69.212,42.438,69.67z"/>
<path fill="#231F20" d="M54.439,75.171V64.161h7.403c0.972,0,1.75,0.166,2.33,0.499c0.578,0.332,0.985,0.749,1.212,1.251
	c0.23,0.503,0.344,1.033,0.344,1.597c0,0.782-0.137,1.455-0.41,2.015c-0.274,0.56-0.684,0.988-1.228,1.28
	c-0.547,0.296-1.216,0.441-2.016,0.441h-4.638v3.928H54.439 M57.438,66.16v3.085h3.203c0.389,0,0.722-0.025,1.006-0.079
	c0.283-0.053,0.52-0.19,0.711-0.416c0.19-0.225,0.285-0.564,0.285-1.024c0-0.447-0.078-0.787-0.238-1.018
	c-0.157-0.23-0.36-0.376-0.612-0.444s-0.543-0.104-0.881-0.104H57.438z"/>
<polyline fill="#231F20" points="67.289,75.171 67.289,64.161 77.583,64.161 77.583,66.266 70.287,66.266 70.287,68.543 
	77.214,68.543 77.214,70.541 70.287,70.541 70.287,73.067 77.644,73.067 77.644,75.171 67.289,75.171 "/>
<path fill="#231F20" d="M0,53.94c0,2.521,2.063,7.111,9.936,7.111c7.256,0,9.55-3.329,9.55-4.856h-5.619
	c0,0-0.266,2.018-3.436,2.018c-3.172,0-4.031-2.649-4.031-4.178c0-1.526,0.859-4.03,4.031-4.03c3.17,0,3.436,1.757,3.436,1.757
	h5.619c0-1.528-1.682-4.813-9.55-4.813C2.063,46.948,0,51.839,0,53.94"/>
<path fill="#231F20" d="M58.93,53.94c0,2.521,2.063,7.111,9.934,7.111c7.257,0,9.551-3.329,9.551-4.856H72.8
	c0,0-0.27,2.018-3.44,2.018s-4.03-2.649-4.03-4.178c0-1.526,0.859-4.03,4.03-4.03s3.44,1.757,3.44,1.757h5.614
	c0-1.528-1.681-4.813-9.551-4.813C60.992,46.948,58.93,51.839,58.93,53.94"/>
<polyline fill="#231F20" points="34.844,47.184 34.844,55.721 28.305,47.184 20.947,47.184 20.947,60.707 25.988,60.707 
	25.988,52.071 32.413,60.707 39.886,60.707 39.886,47.184 34.844,47.184 "/>
<path fill="#231F20" d="M55.128,53.519c0.919,0,2.839-1.069,2.839-3.133c0-2.94-5.475-3.202-6.314-3.202H41.565v13.522h10.087
	c4.851,0,6.799-1.533,6.799-4.093S55.128,53.519,55.128,53.519 M46.839,49.814h4.049v0.006c0.686,0,1.243,0.451,1.243,1.006
	c0,0.558-0.558,1.006-1.243,1.006v0.008h-4.049V49.814z M51.003,57.474v0.02h-4.202v-2.482h4.202v0.009
	c0.896,0,1.621,0.55,1.621,1.229C52.624,56.925,51.898,57.474,51.003,57.474z"/>
</svg>
