<?xml version="1.0" encoding="UTF-8" standalone="yes"?>
<svg xmlns="http://www.w3.org/2000/svg" xmlns:xlink="http://www.w3.org/1999/xlink" width="110.66666666666666px" height="106.66666666666666px" viewBox="0 0 83 80" version="1.1">
  <g id="surface1">
    <path style=" stroke:none;fill-rule:nonzero;fill:rgb(95.294118%,43.529412%,12.941176%);fill-opacity:1;" d="M 25.027344 17.140625 L 36.363281 43.097656 L 12.976562 27.0625 C 7.109375 23.171875 8.300781 16.507812 11.550781 13.570312 C 16.148438 9.679688 22.652344 11.027344 25.027344 17.140625 "/>
    <path style=" stroke:none;fill-rule:nonzero;fill:rgb(78.823529%,13.72549%,29.019608%);fill-opacity:1;" d="M 40.566406 11.027344 L 36.441406 40.082031 L 24.710938 12.457031 C 22.175781 5.550781 27.878906 1.027344 31.6875 0.945312 C 36.046875 0.46875 41.515625 3.804688 40.566406 11.027344 "/>
    <path style=" stroke:none;fill-rule:nonzero;fill:rgb(38.823529%,37.254902%,66.666667%);fill-opacity:1;" d="M 58.402344 12.378906 L 46.75 40.082031 L 43.023438 15.078125 C 42.707031 11.265625 45.082031 11.1875 45.953125 10.472656 C 45.800781 9.917969 44.605469 9.917969 44.605469 9.917969 L 42.386719 9.917969 C 42.152344 3.40625 47.226562 0.546875 51.347656 0.867188 C 55.785156 1.027344 60.78125 6.183594 58.402344 12.378906 "/>
    <path style=" stroke:none;fill-rule:nonzero;fill:rgb(0%,53.72549%,81.176471%);fill-opacity:1;" d="M 70.296875 26.90625 L 46.910156 43.019531 L 57.929688 17.378906 C 61.257812 9.28125 69.023438 10.867188 71.800781 13.964844 C 74.8125 16.984375 75.6875 23.09375 70.296875 26.90625 "/>
    <path style=" stroke:none;fill-rule:nonzero;fill:rgb(1.568627%,69.411765%,29.411765%);fill-opacity:1;" d="M 72.75 45.878906 L 45.71875 45.878906 L 67.675781 30.558594 C 73.070312 26.984375 78.777344 30.238281 80.28125 34.921875 C 81.871094 40.160156 78.300781 45.878906 72.75 45.878906 "/>
    <path style=" stroke:none;fill-rule:nonzero;fill:rgb(99.215686%,72.156863%,7.45098%);fill-opacity:1;" d="M 2.75 34.605469 C 4.8125 29.210938 10.519531 27.304688 15.59375 30.558594 L 37.550781 45.878906 L 10.917969 45.878906 C 5.367188 45.878906 1.003906 40.796875 2.75 34.605469 "/>
    <path style=" stroke:none;fill-rule:nonzero;fill:rgb(13.72549%,12.156863%,12.54902%);fill-opacity:1;" d="M 2.210938 78.941406 L 2.210938 67.503906 L 12.890625 67.503906 L 12.890625 69.691406 L 5.324219 69.691406 L 5.324219 72.054688 L 12.507812 72.054688 L 12.507812 74.132812 L 5.324219 74.132812 L 5.324219 76.757812 L 12.953125 76.757812 L 12.953125 78.941406 L 2.210938 78.941406 "/>
    <path style=" stroke:none;fill-rule:nonzero;fill:rgb(13.72549%,12.156863%,12.54902%);fill-opacity:1;" d="M 14.535156 74.847656 L 14.535156 67.503906 L 17.644531 67.503906 L 17.644531 74.070312 C 17.644531 74.441406 17.664062 74.785156 17.707031 75.097656 C 17.753906 75.410156 17.867188 75.722656 18.050781 76.03125 C 18.238281 76.34375 18.527344 76.59375 18.929688 76.789062 C 19.332031 76.984375 19.863281 77.082031 20.535156 77.082031 C 21.394531 77.082031 22.035156 76.925781 22.464844 76.609375 C 22.890625 76.292969 23.160156 75.925781 23.265625 75.503906 C 23.371094 75.078125 23.425781 74.601562 23.425781 74.070312 L 23.425781 67.503906 L 26.535156 67.503906 L 26.535156 74.847656 C 26.535156 75.332031 26.488281 75.796875 26.386719 76.238281 C 26.289062 76.683594 26.046875 77.140625 25.65625 77.621094 C 25.265625 78.097656 24.660156 78.492188 23.828125 78.804688 C 22.996094 79.113281 21.898438 79.269531 20.53125 79.269531 C 19.171875 79.269531 18.078125 79.113281 17.242188 78.796875 C 16.40625 78.484375 15.800781 78.09375 15.410156 77.621094 C 15.027344 77.148438 14.785156 76.691406 14.6875 76.246094 C 14.582031 75.800781 14.535156 75.332031 14.535156 74.847656 "/>
    <path style=" stroke:none;fill-rule:nonzero;fill:rgb(13.72549%,12.156863%,12.54902%);fill-opacity:1;" d="M 28.585938 78.941406 L 28.585938 67.503906 L 36.894531 67.503906 C 37.867188 67.503906 38.628906 67.667969 39.179688 68.003906 C 39.730469 68.332031 40.101562 68.730469 40.296875 69.1875 C 40.492188 69.644531 40.589844 70.121094 40.589844 70.613281 C 40.589844 71.3125 40.441406 71.890625 40.140625 72.34375 C 39.84375 72.796875 39.375 73.140625 38.730469 73.367188 L 38.730469 73.402344 C 39.335938 73.488281 39.75 73.828125 39.96875 74.421875 C 40.1875 75.019531 40.296875 75.699219 40.296875 76.464844 C 40.296875 77.6875 40.496094 78.515625 40.894531 78.941406 L 37.492188 78.941406 C 37.390625 78.746094 37.316406 78.554688 37.277344 78.382812 C 37.238281 78.210938 37.214844 78.011719 37.203125 77.796875 C 37.191406 77.574219 37.1875 77.226562 37.1875 76.75 C 37.1875 76.007812 37.046875 75.488281 36.757812 75.191406 C 36.476562 74.898438 36.066406 74.75 35.542969 74.75 L 31.699219 74.75 L 31.699219 78.941406 L 28.585938 78.941406 M 31.699219 69.691406 L 31.699219 72.566406 L 35.800781 72.566406 C 36.207031 72.566406 36.554688 72.449219 36.847656 72.214844 C 37.136719 71.976562 37.28125 71.613281 37.28125 71.117188 C 37.28125 70.59375 37.125 70.21875 36.804688 70.007812 C 36.484375 69.796875 36.09375 69.691406 35.636719 69.691406 Z M 31.699219 69.691406 "/>
    <path style=" stroke:none;fill-rule:nonzero;fill:rgb(13.72549%,12.156863%,12.54902%);fill-opacity:1;" d="M 41.570312 73.222656 C 41.570312 72.523438 41.660156 71.832031 41.851562 71.152344 C 42.039062 70.46875 42.386719 69.828125 42.890625 69.21875 C 43.398438 68.617188 44.121094 68.121094 45.070312 67.742188 C 46.019531 67.367188 47.222656 67.179688 48.683594 67.179688 C 50.144531 67.179688 51.347656 67.367188 52.296875 67.742188 C 53.253906 68.121094 53.976562 68.617188 54.480469 69.222656 C 54.984375 69.835938 55.328125 70.476562 55.511719 71.15625 C 55.699219 71.832031 55.789062 72.523438 55.789062 73.222656 C 55.789062 73.914062 55.703125 74.601562 55.519531 75.277344 C 55.335938 75.953125 54.992188 76.597656 54.484375 77.203125 C 53.976562 77.816406 53.253906 78.308594 52.300781 78.695312 C 51.351562 79.078125 50.144531 79.269531 48.683594 79.269531 C 47.226562 79.269531 46.019531 79.082031 45.074219 78.699219 C 44.125 78.316406 43.398438 77.824219 42.890625 77.214844 C 42.386719 76.605469 42.039062 75.964844 41.851562 75.28125 C 41.660156 74.605469 41.570312 73.914062 41.570312 73.222656 M 44.878906 73.226562 C 44.878906 73.867188 45.003906 74.484375 45.265625 75.066406 C 45.519531 75.65625 45.933594 76.140625 46.5 76.515625 C 47.066406 76.894531 47.792969 77.082031 48.683594 77.082031 C 49.5625 77.082031 50.285156 76.894531 50.855469 76.515625 C 51.421875 76.140625 51.835938 75.65625 52.09375 75.066406 C 52.351562 74.484375 52.480469 73.871094 52.480469 73.226562 C 52.480469 72.75 52.410156 72.285156 52.273438 71.832031 C 52.132812 71.378906 51.917969 70.96875 51.613281 70.597656 C 51.3125 70.226562 50.914062 69.929688 50.421875 69.703125 C 49.925781 69.476562 49.347656 69.359375 48.683594 69.359375 C 48.023438 69.359375 47.449219 69.476562 46.949219 69.699219 C 46.457031 69.921875 46.058594 70.222656 45.75 70.605469 C 45.445312 70.988281 45.222656 71.398438 45.085938 71.847656 C 44.949219 72.292969 44.878906 72.75 44.878906 73.226562 Z M 44.878906 73.226562 "/>
    <path style=" stroke:none;fill-rule:nonzero;fill:rgb(13.72549%,12.156863%,12.54902%);fill-opacity:1;" d="M 57.328125 78.941406 L 57.328125 67.503906 L 65.007812 67.503906 C 66.019531 67.503906 66.824219 67.675781 67.425781 68.023438 C 68.027344 68.367188 68.449219 68.800781 68.683594 69.320312 C 68.921875 69.84375 69.042969 70.394531 69.042969 70.980469 C 69.042969 71.792969 68.898438 72.492188 68.617188 73.074219 C 68.332031 73.65625 67.90625 74.101562 67.34375 74.402344 C 66.773438 74.710938 66.082031 74.863281 65.25 74.863281 L 60.4375 74.863281 L 60.4375 78.945312 L 57.328125 78.945312 M 60.441406 69.582031 L 60.441406 72.785156 L 63.765625 72.785156 C 64.167969 72.785156 64.511719 72.757812 64.808594 72.703125 C 65.101562 72.648438 65.347656 72.507812 65.546875 72.269531 C 65.742188 72.039062 65.839844 71.683594 65.839844 71.207031 C 65.839844 70.742188 65.761719 70.390625 65.59375 70.148438 C 65.429688 69.910156 65.21875 69.757812 64.957031 69.6875 C 64.699219 69.617188 64.394531 69.582031 64.042969 69.582031 Z M 60.441406 69.582031 "/>
    <path style=" stroke:none;fill-rule:nonzero;fill:rgb(13.72549%,12.156863%,12.54902%);fill-opacity:1;" d="M 70.660156 78.941406 L 70.660156 67.503906 L 81.339844 67.503906 L 81.339844 69.691406 L 73.769531 69.691406 L 73.769531 72.054688 L 80.957031 72.054688 L 80.957031 74.132812 L 73.769531 74.132812 L 73.769531 76.757812 L 81.40625 76.757812 L 81.40625 78.941406 L 70.660156 78.941406 "/>
    <path style=" stroke:none;fill-rule:nonzero;fill:rgb(13.72549%,12.156863%,12.54902%);fill-opacity:1;" d="M 0.847656 56.882812 C 0.847656 59.503906 2.988281 64.273438 11.15625 64.273438 C 18.683594 64.273438 21.066406 60.8125 21.066406 59.226562 L 15.234375 59.226562 C 15.234375 59.226562 14.960938 61.324219 11.671875 61.324219 C 8.378906 61.324219 7.488281 58.570312 7.488281 56.984375 C 7.488281 55.398438 8.378906 52.796875 11.671875 52.796875 C 14.960938 52.796875 15.234375 54.621094 15.234375 54.621094 L 21.066406 54.621094 C 21.066406 53.035156 19.320312 49.621094 11.15625 49.621094 C 2.988281 49.621094 0.847656 54.703125 0.847656 56.882812 "/>
    <path style=" stroke:none;fill-rule:nonzero;fill:rgb(13.72549%,12.156863%,12.54902%);fill-opacity:1;" d="M 61.988281 56.882812 C 61.988281 59.503906 64.128906 64.273438 72.296875 64.273438 C 79.824219 64.273438 82.203125 60.8125 82.203125 59.226562 L 76.378906 59.226562 C 76.378906 59.226562 76.097656 61.324219 72.808594 61.324219 C 69.519531 61.324219 68.628906 58.570312 68.628906 56.984375 C 68.628906 55.398438 69.519531 52.796875 72.808594 52.796875 C 76.097656 52.796875 76.378906 54.621094 76.378906 54.621094 L 82.203125 54.621094 C 82.203125 53.035156 80.460938 49.621094 72.292969 49.621094 C 64.128906 49.621094 61.988281 54.703125 61.988281 56.882812 "/>
    <path style=" stroke:none;fill-rule:nonzero;fill:rgb(13.72549%,12.156863%,12.54902%);fill-opacity:1;" d="M 37 49.863281 L 37 58.734375 L 30.214844 49.863281 L 22.582031 49.863281 L 22.582031 63.914062 L 27.8125 63.914062 L 27.8125 54.941406 L 34.476562 63.914062 L 42.230469 63.914062 L 42.230469 49.863281 L 37 49.863281 "/>
    <path style=" stroke:none;fill-rule:nonzero;fill:rgb(13.72549%,12.156863%,12.54902%);fill-opacity:1;" d="M 58.042969 56.445312 C 58.996094 56.445312 60.988281 55.335938 60.988281 53.191406 C 60.988281 50.136719 55.308594 49.863281 54.4375 49.863281 L 43.972656 49.863281 L 43.972656 63.914062 L 54.4375 63.914062 C 59.46875 63.914062 61.492188 62.320312 61.492188 59.660156 C 61.492188 57 58.042969 56.445312 58.042969 56.445312 M 49.445312 52.597656 L 53.644531 52.597656 L 53.644531 52.605469 C 54.355469 52.605469 54.933594 53.070312 54.933594 53.648438 C 54.933594 54.230469 54.355469 54.695312 53.644531 54.695312 L 53.644531 54.703125 L 49.445312 54.703125 Z M 53.765625 60.554688 L 53.765625 60.578125 L 49.40625 60.578125 L 49.40625 57.996094 L 53.765625 57.996094 L 53.765625 58.007812 C 54.695312 58.007812 55.445312 58.578125 55.445312 59.285156 C 55.445312 59.984375 54.691406 60.554688 53.765625 60.554688 Z M 53.765625 60.554688 "/>
  </g>
</svg>