<?xml version="1.0" encoding="UTF-8" standalone="yes"?>
<svg xmlns="http://www.w3.org/2000/svg" xmlns:xlink="http://www.w3.org/1999/xlink" width="221.33333333333331px" height="106.66666666666666px" viewBox="0 0 166 80" version="1.1">
  <g id="surface1">
    <path style=" stroke:none;fill-rule:nonzero;fill:rgb(84.705882%,9.803922%,12.941176%);fill-opacity:1;" d="M 68.414062 0.449219 C 61.570312 0.9375 55.773438 6.71875 55.773438 14.863281 L 55.773438 53.628906 C 55.773438 55.03125 54.738281 56.238281 53.226562 56.238281 L 41.167969 56.238281 C 15.066406 56.269531 17.382812 22.773438 39.605469 22.730469 L 52.9375 22.730469 L 52.9375 12.996094 L 39.121094 12.996094 C 30.269531 12.996094 23.707031 16.308594 19.277344 21.257812 C 14.847656 26.203125 12.621094 32.863281 12.613281 39.503906 C 12.601562 46.144531 14.796875 52.765625 19.328125 57.710938 C 23.863281 62.648438 30.714844 65.972656 40.101562 65.972656 L 62.84375 65.972656 C 64.34375 65.972656 65.585938 64.675781 65.585938 63.167969 L 65.585938 15.894531 C 65.578125 13.460938 66.941406 11.570312 68.722656 11.019531 C 70.503906 10.46875 72.59375 11.164062 73.816406 12.941406 L 73.867188 12.996094 C 80.335938 23.617188 106.015625 64.976562 106.058594 65.050781 C 106.761719 66.058594 107.601562 66.234375 108.210938 66.035156 C 108.820312 65.828125 109.441406 65.164062 109.433594 63.523438 L 109.433594 15.894531 C 109.421875 13.460938 110.789062 11.570312 112.570312 11.019531 C 114.347656 10.46875 116.386719 11.164062 117.621094 12.941406 L 117.621094 12.996094 L 117.714844 12.996094 C 124.183594 23.617188 149.863281 64.976562 149.902344 65.050781 C 150.597656 66.046875 151.414062 66.246094 152.054688 66.035156 C 152.699219 65.828125 153.339844 65.207031 153.328125 63.574219 L 153.328125 0.699219 L 143.578125 0.699219 L 143.578125 37.394531 C 143.578125 37.394531 137.761719 27.417969 127.804688 10.242188 C 118.042969 -6.585938 99.628906 0.378906 99.628906 14.863281 L 99.628906 37.394531 C 99.628906 37.394531 93.917969 27.417969 83.949219 10.242188 C 79.683594 2.882812 73.734375 0.0664062 68.414062 0.449219 Z M 40.828125 0.699219 C -13.441406 0.699219 -12.914062 78.339844 41.5625 78.382812 L 62.875 78.382812 C 72.035156 78.382812 77.882812 72.9375 77.875 62.886719 L 77.875 43.203125 C 77.875 43.203125 89.839844 63.0625 94.539062 70.847656 C 102.507812 84.078125 121.78125 81.46875 121.730469 64.945312 L 121.730469 43.203125 C 121.730469 43.203125 133.652344 63.0625 138.34375 70.847656 C 146.3125 84.078125 165.636719 81.46875 165.585938 64.945312 L 165.585938 0.691406 L 155.835938 0.691406 L 155.835938 63.5625 C 155.84375 65.972656 154.582031 67.761719 152.84375 68.332031 C 151.105469 68.90625 149.105469 68.1875 147.894531 66.460938 L 147.84375 66.460938 L 147.84375 66.367188 C 147.84375 66.367188 122.152344 25.121094 115.601562 14.367188 C 115.582031 14.34375 115.570312 14.386719 115.550781 14.367188 C 115.539062 14.367188 115.558594 14.3125 115.550781 14.3125 C 114.875 13.410156 114.007812 13.210938 113.292969 13.429688 C 112.558594 13.660156 111.863281 14.292969 111.875 15.894531 L 111.875 63.511719 C 111.886719 65.910156 110.652344 67.804688 108.9375 68.386719 C 107.21875 68.96875 105.242188 68.199219 104.039062 66.460938 L 104.039062 66.410156 L 103.988281 66.410156 C 103.988281 66.410156 78.277344 25.082031 71.746094 14.355469 C 71.0625 13.378906 70.183594 13.140625 69.449219 13.367188 C 68.710938 13.597656 68.019531 14.230469 68.03125 15.832031 L 68.03125 63.15625 C 68.03125 66.027344 65.679688 68.425781 62.832031 68.425781 L 40.09375 68.425781 C 30.113281 68.425781 22.546875 64.820312 17.550781 59.375 C 12.550781 53.929688 10.085938 46.707031 10.097656 39.496094 C 10.105469 32.292969 12.570312 25.019531 17.445312 19.574219 C 22.320312 14.128906 29.640625 10.53125 39.097656 10.519531 L 52.917969 10.519531 L 52.917969 0.679688 L 40.816406 0.679688 Z M 40.828125 0.699219 "/>
  </g>
</svg>