<?xml version="1.0" encoding="UTF-8" standalone="no"?>
<svg xmlns="http://www.w3.org/2000/svg"
   xmlns:dc="http://purl.org/dc/elements/1.1/"
   xmlns:cc="http://creativecommons.org/ns#"
   xmlns:rdf="http://www.w3.org/1999/02/22-rdf-syntax-ns#"
   version="1.1" width="603" height="474" viewBox="0 0 603 474">
  <metadata>
    <rdf:RDF>
      <cc:Work rdf:about="">
        <dc:format>image/svg+xml</dc:format>
        <dc:type rdf:resource="http://purl.org/dc/dcmitype/StillImage" />
      </cc:Work>
    </rdf:RDF>
  </metadata>
  <g transform="translate(288,189)scale(1.224,1.224)" fill="none" stroke="#000000" stroke-width="34">
    <path d="M 48.930435,28.25 A56.5,56.5 0 1,1 48.930435,-28.25"/>
    <path d="M -119.639399,63.613397 A135.5,135.5 0 1,0 -119.639399,-63.613397"/>
  </g>
<path d="M100.833,470.515C100.658,471.546,101.197,472.406,101.966,472.406H108.482
C109.252,472.406,109.763,471.546,109.898,470.515L112.164,453.282L121.984,472.028
C122.488,472.988,124.488,472.988,125.006,472.028L134.944,453.615L137.233,470.515
C137.373,471.546,137.449,472.406,138.532,472.406H145.519C146.109,472.406,146.441,471.546,146.263,470.515L139.736,432.747
C139.469,431.204,137.521,431.204,137.092,431.991L123.495,456.92L109.898,431.991
C109.363,431.01,107.485,431.393,107.254,432.747ZM1.5,452.198C1.6189,463.688,10.7908,472.833,22.0842,472.781
C26.802,472.762,32.166,471.159,36.2712,467.116C36.6511,466.744,36.646,466.381,36.2478,465.984L30.96,460.694
C30.6128,460.35,30.2427,460.359,29.8623,460.694C27.9727,462.371,25.0854,463.621,22.0842,463.716
C15.8008,463.917,10.6829,458.685,10.5645,452.198C10.6824,445.711,15.8008,440.479,22.0842,440.677
C25.0854,440.772,27.9727,442.025,29.8623,443.699C30.2427,444.038,30.6128,444.047,30.96,443.699L36.2478,438.412
C36.646,438.013,36.6511,437.653,36.2712,437.278C32.166,433.238,26.802,431.634,22.0842,431.613
C10.7908,431.564,1.61914,440.708,1.5,452.198ZM47.5786,452.197C47.5786,463.567,56.7944,472.781,68.1628,472.781
C79.5313,472.781,88.7471,463.567,88.7471,452.197C88.7471,440.83,79.5313,431.613,68.1628,431.613
C56.7944,431.613,47.5786,440.83,47.5786,452.197ZM161.264,433.265V471.128C161.264,471.835,161.833,472.406,162.539,472.406H186.05
C186.757,472.406,187.325,471.835,187.325,471.128V464.993C187.325,464.286,186.757,463.716,186.05,463.716H170.329V456.164H183.406
C184.113,456.164,184.681,455.594,184.681,454.889V448.751C184.681,448.044,184.113,447.477,183.406,447.477H170.329V440.677H186.05
C186.757,440.677,187.325,440.11,187.325,439.403V433.265C187.325,432.561,186.757,431.991,186.05,431.991H162.539
C161.833,431.991,161.264,432.561,161.264,433.265ZM202.48,433.549V470.848C202.48,471.708,203.178,472.406,204.038,472.406H218.626
C218.794,472.406,218.948,472.372,219.099,472.32C229.439,471.436,237.558,462.768,237.558,452.197
C237.558,441.626,229.439,432.96,219.099,432.073C218.948,432.024,218.794,431.991,218.626,431.991H204.038
C203.178,431.991,202.48,432.689,202.48,433.549ZM245.939,433.549L258.709,452.776V470.54
C258.709,471.57,259.542,472.403,260.574,472.403H266.287C267.319,472.403,268.152,471.57,268.152,470.54V452.846L280.969,433.549
C281.541,432.689,281.164,431.991,280.132,431.991H273.569C272.536,431.991,271.249,432.689,270.677,433.549L263.454,444.419L256.23,433.549
C255.659,432.689,254.36,431.991,253.327,431.991H246.765C245.732,431.991,245.367,432.689,245.939,433.549ZM56.6428,452.197
C56.6428,445.836,61.8005,440.677,68.1628,440.677C74.5249,440.677,79.6821,445.836,79.6821,452.197
C79.6821,458.56,74.5249,463.716,68.1628,463.716C61.8005,463.716,56.6428,458.56,56.6428,452.197ZM211.498,440.677H216.596
C222.958,440.677,228.116,445.836,228.116,452.197C228.116,458.56,222.958,463.716,216.596,463.716H211.498ZM476.552,432.842V470.54
C476.552,471.573,477.385,472.406,478.416,472.406H484.129C485.163,472.406,485.995,471.573,485.995,470.54V450.758L508.302,472.665
C509.04,473.387,511.677,472.585,511.677,471.555V433.857C511.677,432.823,510.845,431.991,509.811,431.991H504.1
C503.067,431.991,502.234,432.823,502.234,433.857V454.346L479.928,431.732C479.748,431.549,479.44,431.46,479.089,431.448
C478.037,431.415,476.552,432.067,476.552,432.842ZM566.727,437.278C566.346,437.653,566.352,438.013,566.749,438.412L572.036,443.699
C572.383,444.047,572.752,444.038,573.133,443.699C575.024,442.025,577.911,440.772,580.911,440.677
C587.195,440.479,592.315,445.711,592.43,452.198C592.315,458.685,587.195,463.917,580.911,463.716
C577.911,463.621,575.024,462.371,573.133,460.694C572.752,460.359,572.383,460.35,572.036,460.694L566.749,465.984
C566.349,466.381,566.346,466.744,566.727,467.116C570.831,471.156,576.194,472.762,580.914,472.781
C592.208,472.83,601.379,463.688,601.498,452.198C601.379,440.708,592.208,431.564,580.914,431.613
C576.194,431.631,570.831,433.238,566.727,437.278ZM306.966,433.229V439.44C306.966,440.126,307.521,440.677,308.207,440.677H321.699V471.165
C321.699,471.851,322.251,472.403,322.937,472.403H329.901C330.587,472.403,331.139,471.851,331.139,471.165
C331.139,462.024,331.139,445.507,331.139,433.229C331.188,432.546,330.587,431.991,329.901,431.991H308.207
C307.521,431.991,306.966,432.543,306.966,433.229ZM342.966,433.229L361.165,472.403
C361.604,473.345,363.22,473.345,363.656,472.403L381.868,433.229C382.188,432.543,381.835,431.991,381.079,431.991H374.599
C373.84,431.991,372.971,432.543,372.651,433.229L370.419,438.034H354.464L352.232,433.229
C351.912,432.543,351.052,431.991,350.296,431.991H343.759C342.999,431.991,342.649,432.543,342.966,433.229ZM391.57,460.13
C391.57,466.908,397.068,472.403,403.845,472.403C410.136,472.403,414.932,472.403,420.984,472.403
C421.844,472.403,422.542,471.708,422.542,470.844V433.549C422.542,432.689,421.844,431.991,420.984,431.991H415.035
C414.176,431.991,413.477,432.689,413.477,433.549V447.855H409.959L402.147,433.36
C401.739,432.604,400.717,431.991,399.857,431.991H392.799C391.939,431.991,391.576,432.604,391.985,433.36L400.104,448.431
C395.156,450.014,391.57,454.654,391.57,460.13ZM435.76,464.957V471.165C435.76,471.851,436.314,472.403,437,472.403H462.472
C463.158,472.403,463.71,471.851,463.71,471.165V464.957C463.71,464.271,463.158,463.716,462.472,463.716H454.267V433.229
C454.267,432.543,453.715,431.991,453.029,431.991H446.443C445.757,431.991,445.202,432.543,445.202,433.229V463.716H437
C436.314,463.716,435.76,464.271,435.76,464.957ZM526.785,433.265V439.403C526.785,440.11,527.355,440.677,528.06,440.677H543.78V448.233H530.703
C529.999,448.233,529.428,448.8,529.428,449.508V455.645C529.428,456.35,529.999,456.92,530.703,456.92H543.78V463.716H528.06
C527.355,463.716,526.785,464.286,526.785,464.99V471.128C526.785,471.835,527.355,472.403,528.06,472.403H551.571
C552.278,472.403,552.845,471.835,552.845,471.128V433.265C552.845,432.558,552.278,431.991,551.571,431.991H528.06
C527.355,431.991,526.785,432.558,526.785,433.265ZM358.156,445.965H366.727L362.44,455.185ZM400.635,459.563
C400.635,457.06,402.666,455.029,405.169,455.029H413.477V464.094H405.169C402.666,464.094,400.635,462.066,400.635,459.563Z"/>
</svg>
