<?xml version="1.0" encoding="UTF-8" standalone="yes"?>
<svg xmlns="http://www.w3.org/2000/svg" xmlns:xlink="http://www.w3.org/1999/xlink" width="134.66666666666666px" height="106.66666666666666px" viewBox="0 0 101 80" version="1.1">
  <g id="surface1">
    <path style="fill:none;stroke-width:34;stroke-linecap:butt;stroke-linejoin:miter;stroke:rgb(0%,0%,0%);stroke-opacity:1;stroke-miterlimit:4;" d="M 48.926805 28.248506 C 36.141913 50.390864 10.076737 61.187864 -14.616587 54.569738 C -39.328964 47.951612 -56.49616 25.563438 -56.49616 -0.00143612 C -56.49616 -25.566311 -39.328964 -47.954485 -14.616587 -54.57261 C 10.076737 -61.190736 36.141913 -50.393737 48.926805 -28.251379 " transform="matrix(0.205015,0,0,0.206582,48.238806,31.898734)"/>
    <path style="fill:none;stroke-width:34;stroke-linecap:butt;stroke-linejoin:miter;stroke:rgb(0%,0%,0%);stroke-opacity:1;stroke-miterlimit:4;" d="M -119.639428 63.608207 C -90.430427 118.538651 -27.572961 146.523868 32.788498 131.472359 C 93.149957 116.420851 135.505867 62.208946 135.505867 -0.00143612 C 135.505867 -62.211818 93.149957 -116.423723 32.788498 -131.475232 C -27.572961 -146.526741 -90.430427 -118.541523 -119.639428 -63.611079 " transform="matrix(0.205015,0,0,0.206582,48.238806,31.898734)"/>
    <path style=" stroke:none;fill-rule:nonzero;fill:rgb(0%,0%,0%);fill-opacity:1;" d="M 16.890625 79.410156 C 16.859375 79.585938 16.949219 79.730469 17.078125 79.730469 L 18.171875 79.730469 C 18.300781 79.730469 18.386719 79.585938 18.40625 79.410156 L 18.785156 76.503906 L 20.433594 79.667969 C 20.515625 79.828125 20.851562 79.828125 20.9375 79.667969 L 22.601562 76.558594 L 22.984375 79.410156 C 23.007812 79.585938 23.023438 79.730469 23.203125 79.730469 L 24.375 79.730469 C 24.472656 79.730469 24.527344 79.585938 24.5 79.410156 L 23.40625 73.039062 C 23.359375 72.777344 23.035156 72.777344 22.960938 72.910156 L 20.683594 77.117188 L 18.40625 72.910156 C 18.316406 72.746094 18.003906 72.808594 17.964844 73.039062 Z M 0.25 76.320312 C 0.269531 78.257812 1.808594 79.804688 3.699219 79.792969 C 4.488281 79.792969 5.386719 79.519531 6.074219 78.839844 C 6.140625 78.773438 6.136719 78.714844 6.070312 78.648438 L 5.1875 77.753906 C 5.128906 77.695312 5.066406 77.699219 5 77.753906 C 4.683594 78.039062 4.203125 78.25 3.699219 78.265625 C 2.648438 78.296875 1.789062 77.414062 1.769531 76.320312 C 1.789062 75.226562 2.648438 74.34375 3.699219 74.375 C 4.203125 74.390625 4.683594 74.601562 5 74.886719 C 5.066406 74.941406 5.128906 74.945312 5.1875 74.886719 L 6.070312 73.992188 C 6.136719 73.925781 6.140625 73.867188 6.074219 73.800781 C 5.386719 73.121094 4.488281 72.851562 3.699219 72.847656 C 1.808594 72.835938 0.269531 74.382812 0.25 76.320312 Z M 7.96875 76.320312 C 7.96875 78.238281 9.511719 79.792969 11.417969 79.792969 C 13.320312 79.792969 14.863281 78.238281 14.863281 76.320312 C 14.863281 74.402344 13.320312 72.847656 11.417969 72.847656 C 9.511719 72.847656 7.96875 74.402344 7.96875 76.320312 Z M 27.011719 73.125 L 27.011719 79.515625 C 27.011719 79.632812 27.105469 79.730469 27.222656 79.730469 L 31.164062 79.730469 C 31.28125 79.730469 31.375 79.632812 31.375 79.515625 L 31.375 78.480469 C 31.375 78.359375 31.28125 78.265625 31.164062 78.265625 L 28.53125 78.265625 L 28.53125 76.988281 L 30.71875 76.988281 C 30.839844 76.988281 30.933594 76.894531 30.933594 76.773438 L 30.933594 75.738281 C 30.933594 75.621094 30.839844 75.523438 30.71875 75.523438 L 28.53125 75.523438 L 28.53125 74.375 L 31.164062 74.375 C 31.28125 74.375 31.375 74.28125 31.375 74.160156 L 31.375 73.125 C 31.375 73.007812 31.28125 72.910156 31.164062 72.910156 L 27.222656 72.910156 C 27.105469 72.910156 27.011719 73.007812 27.011719 73.125 Z M 33.914062 73.171875 L 33.914062 79.46875 C 33.914062 79.613281 34.03125 79.730469 34.175781 79.730469 L 36.617188 79.730469 C 36.648438 79.730469 36.671875 79.726562 36.699219 79.714844 C 38.429688 79.566406 39.789062 78.105469 39.789062 76.320312 C 39.789062 74.535156 38.429688 73.074219 36.699219 72.921875 C 36.671875 72.914062 36.648438 72.910156 36.617188 72.910156 L 34.175781 72.910156 C 34.03125 72.910156 33.914062 73.027344 33.914062 73.171875 Z M 41.195312 73.171875 L 43.332031 76.417969 L 43.332031 79.417969 C 43.332031 79.589844 43.472656 79.730469 43.644531 79.730469 L 44.601562 79.730469 C 44.773438 79.730469 44.914062 79.589844 44.914062 79.417969 L 44.914062 76.429688 L 47.0625 73.171875 C 47.15625 73.027344 47.09375 72.910156 46.921875 72.910156 L 45.820312 72.910156 C 45.648438 72.910156 45.433594 73.027344 45.335938 73.171875 L 44.128906 75.007812 L 42.917969 73.171875 C 42.820312 73.027344 42.605469 72.910156 42.429688 72.910156 L 41.332031 72.910156 C 41.160156 72.910156 41.097656 73.027344 41.195312 73.171875 Z M 9.488281 76.320312 C 9.488281 75.246094 10.351562 74.375 11.417969 74.375 C 12.484375 74.375 13.347656 75.246094 13.347656 76.320312 C 13.347656 77.394531 12.484375 78.265625 11.417969 78.265625 C 10.351562 78.265625 9.488281 77.394531 9.488281 76.320312 Z M 35.425781 74.375 L 36.277344 74.375 C 37.34375 74.375 38.207031 75.246094 38.207031 76.320312 C 38.207031 77.394531 37.34375 78.265625 36.277344 78.265625 L 35.425781 78.265625 Z M 79.820312 73.054688 L 79.820312 79.417969 C 79.820312 79.589844 79.960938 79.730469 80.132812 79.730469 L 81.089844 79.730469 C 81.261719 79.730469 81.402344 79.589844 81.402344 79.417969 L 81.402344 76.078125 L 85.136719 79.773438 C 85.261719 79.898438 85.703125 79.761719 85.703125 79.585938 L 85.703125 73.226562 C 85.703125 73.050781 85.5625 72.910156 85.390625 72.910156 L 84.433594 72.910156 C 84.261719 72.910156 84.121094 73.050781 84.121094 73.226562 L 84.121094 76.683594 L 80.386719 72.867188 C 80.355469 72.835938 80.304688 72.820312 80.246094 72.816406 C 80.070312 72.8125 79.820312 72.921875 79.820312 73.054688 Z M 94.925781 73.800781 C 94.859375 73.867188 94.863281 73.925781 94.929688 73.992188 L 95.8125 74.886719 C 95.871094 74.945312 95.933594 74.941406 95.996094 74.886719 C 96.3125 74.601562 96.796875 74.390625 97.300781 74.375 C 98.351562 74.34375 99.210938 75.226562 99.230469 76.320312 C 99.210938 77.414062 98.351562 78.296875 97.300781 78.265625 C 96.796875 78.25 96.3125 78.039062 95.996094 77.753906 C 95.933594 77.699219 95.871094 77.695312 95.8125 77.753906 L 94.929688 78.648438 C 94.859375 78.714844 94.859375 78.773438 94.925781 78.839844 C 95.613281 79.519531 96.511719 79.792969 97.300781 79.792969 C 99.191406 79.800781 100.726562 78.257812 100.75 76.320312 C 100.726562 74.382812 99.191406 72.835938 97.300781 72.847656 C 96.511719 72.847656 95.613281 73.121094 94.925781 73.800781 Z M 51.414062 73.117188 L 51.414062 74.167969 C 51.414062 74.28125 51.507812 74.375 51.625 74.375 L 53.882812 74.375 L 53.882812 79.523438 C 53.882812 79.636719 53.976562 79.730469 54.089844 79.730469 L 55.257812 79.730469 C 55.371094 79.730469 55.464844 79.636719 55.464844 79.523438 C 55.464844 77.980469 55.464844 75.191406 55.464844 73.117188 C 55.472656 73.003906 55.371094 72.910156 55.257812 72.910156 L 51.625 72.910156 C 51.507812 72.910156 51.414062 73.003906 51.414062 73.117188 Z M 57.445312 73.117188 L 60.492188 79.730469 C 60.566406 79.890625 60.835938 79.890625 60.910156 79.730469 L 63.960938 73.117188 C 64.015625 73.003906 63.957031 72.910156 63.828125 72.910156 L 62.742188 72.910156 C 62.617188 72.910156 62.472656 73.003906 62.417969 73.117188 L 62.042969 73.929688 L 59.371094 73.929688 L 58.996094 73.117188 C 58.945312 73.003906 58.800781 72.910156 58.671875 72.910156 L 57.578125 72.910156 C 57.449219 72.910156 57.390625 73.003906 57.445312 73.117188 Z M 65.585938 77.660156 C 65.585938 78.804688 66.507812 79.730469 67.640625 79.730469 C 68.695312 79.730469 69.5 79.730469 70.511719 79.730469 C 70.65625 79.730469 70.773438 79.613281 70.773438 79.46875 L 70.773438 73.171875 C 70.773438 73.027344 70.65625 72.910156 70.511719 72.910156 L 69.515625 72.910156 C 69.371094 72.910156 69.253906 73.027344 69.253906 73.171875 L 69.253906 75.585938 L 68.667969 75.585938 L 67.359375 73.140625 C 67.289062 73.011719 67.117188 72.910156 66.972656 72.910156 L 65.792969 72.910156 C 65.648438 72.910156 65.585938 73.011719 65.65625 73.140625 L 67.015625 75.683594 C 66.1875 75.953125 65.585938 76.734375 65.585938 77.660156 Z M 72.988281 78.472656 L 72.988281 79.523438 C 72.988281 79.636719 73.082031 79.730469 73.195312 79.730469 L 77.460938 79.730469 C 77.578125 79.730469 77.667969 79.636719 77.667969 79.523438 L 77.667969 78.472656 C 77.667969 78.359375 77.578125 78.265625 77.460938 78.265625 L 76.085938 78.265625 L 76.085938 73.117188 C 76.085938 73.003906 75.996094 72.910156 75.878906 72.910156 L 74.777344 72.910156 C 74.664062 72.910156 74.570312 73.003906 74.570312 73.117188 L 74.570312 78.265625 L 73.195312 78.265625 C 73.082031 78.265625 72.988281 78.359375 72.988281 78.472656 Z M 88.234375 73.125 L 88.234375 74.160156 C 88.234375 74.28125 88.328125 74.375 88.449219 74.375 L 91.082031 74.375 L 91.082031 75.652344 L 88.890625 75.652344 C 88.773438 75.652344 88.675781 75.746094 88.675781 75.867188 L 88.675781 76.902344 C 88.675781 77.019531 88.773438 77.117188 88.890625 77.117188 L 91.082031 77.117188 L 91.082031 78.265625 L 88.449219 78.265625 C 88.328125 78.265625 88.234375 78.359375 88.234375 78.480469 L 88.234375 79.515625 C 88.234375 79.632812 88.328125 79.730469 88.449219 79.730469 L 92.386719 79.730469 C 92.503906 79.730469 92.597656 79.632812 92.597656 79.515625 L 92.597656 73.125 C 92.597656 73.003906 92.503906 72.910156 92.386719 72.910156 L 88.449219 72.910156 C 88.328125 72.910156 88.234375 73.003906 88.234375 73.125 Z M 59.988281 75.269531 L 61.425781 75.269531 L 60.707031 76.824219 Z M 67.105469 77.5625 C 67.105469 77.140625 67.445312 76.796875 67.863281 76.796875 L 69.253906 76.796875 L 69.253906 78.328125 L 67.863281 78.328125 C 67.445312 78.328125 67.105469 77.984375 67.105469 77.5625 Z M 67.105469 77.5625 "/>
  </g>
</svg>