<?xml version="1.0" encoding="UTF-8" standalone="no"?>
<!-- Created with Inkscape (http://www.inkscape.org/) -->
<svg
   xmlns:dc="http://purl.org/dc/elements/1.1/"
   xmlns:cc="http://web.resource.org/cc/"
   xmlns:rdf="http://www.w3.org/1999/02/22-rdf-syntax-ns#"
   xmlns:svg="http://www.w3.org/2000/svg"
   xmlns="http://www.w3.org/2000/svg"
   xmlns:sodipodi="http://sodipodi.sourceforge.net/DTD/sodipodi-0.dtd"
   xmlns:inkscape="http://www.inkscape.org/namespaces/inkscape"
   width="405"
   height="255.00031"
   id="svg2"
   sodipodi:version="0.32"
   inkscape:version="0.45.1"
   version="1.0"
   inkscape:output_extension="org.inkscape.output.svg.inkscape">
  <g
     inkscape:label="Layer 1"
     inkscape:groupmode="layer"
     id="layer1"
     transform="translate(-1932.7217,-579.15625)">
    <g
       clip-path="none"
       id="g12570"
       transform="matrix(449.87883,0,0,-265.12821,1896.5065,844.28446)">
      <path
         style="fill:#0e0c0d;fill-rule:nonzero;stroke:none"
         d="M -1.2632,-2.0296 L 1.9967,-2.0296 L 1.9967,-0.2308 L -1.2632,-0.2308 L -1.2632,-2.0296 z "
         id="path12572" />
      <path
         style="fill:#989696;fill-rule:nonzero;stroke:none"
         d="M 0.3753,-2.3951 L 0.3792,-2.3951 C 0.3856,-2.3951 0.3875,-2.3894 0.3874,-2.3834 C 0.3873,-2.3767 0.385,-2.3726 0.3792,-2.3726 L 0.3753,-2.3726 L 0.3753,-2.3951 z M 0.3798,-2.3638 C 0.3883,-2.3638 0.3936,-2.3714 0.3936,-2.3839 C 0.3936,-2.3922 0.3911,-2.3984 0.3866,-2.4014 C 0.3904,-2.4057 0.3927,-2.4124 0.3959,-2.4213 C 0.3977,-2.4262 0.3988,-2.4287 0.4016,-2.4355 L 0.3944,-2.4355 L 0.3889,-2.4208 C 0.3834,-2.406 0.3809,-2.4044 0.3778,-2.4044 L 0.3753,-2.4044 L 0.3753,-2.4355 L 0.3693,-2.4355 L 0.3693,-2.3638"
         id="path12574" />
      <path
         style="fill:#989696;fill-rule:nonzero;stroke:none"
         d="M 0.4511,-2.4055 L 0.4511,-2.4141 L 0.4221,-2.4141 L 0.4221,-2.4055 L 0.4511,-2.4055 z M 0.4511,-2.3826 L 0.4511,-2.3912 L 0.4221,-2.3912 L 0.4221,-2.3826"
         id="path12576" />
      <path
         style="fill:#989696;fill-rule:nonzero;stroke:none"
         d="M 0.5003,-2.4355 L 0.4737,-2.4355 L 0.4737,-2.4348 C 0.4783,-2.4252 0.4847,-2.4121 0.4883,-2.4017 C 0.4903,-2.3959 0.4912,-2.3924 0.4912,-2.3864 C 0.4912,-2.3785 0.4882,-2.3729 0.4841,-2.3729 C 0.481,-2.3729 0.478,-2.3752 0.4746,-2.3826 L 0.4746,-2.3697 C 0.478,-2.365 0.4811,-2.3628 0.4845,-2.3628 C 0.492,-2.3628 0.4973,-2.372 0.4973,-2.3852 C 0.4973,-2.3969 0.4936,-2.4067 0.4842,-2.4257 L 0.5003,-2.4257"
         id="path12578" />
      <path
         style="fill:#989696;fill-rule:nonzero;stroke:none"
         d="M 0.531,-2.4355 L 0.5044,-2.4355 L 0.5044,-2.4348 C 0.5091,-2.4252 0.5154,-2.4121 0.519,-2.4017 C 0.521,-2.3959 0.5219,-2.3924 0.5219,-2.3864 C 0.5219,-2.3785 0.5189,-2.3729 0.5148,-2.3729 C 0.5118,-2.3729 0.5087,-2.3752 0.5053,-2.3826 L 0.5053,-2.3697 C 0.5087,-2.365 0.5118,-2.3628 0.5152,-2.3628 C 0.5228,-2.3628 0.528,-2.372 0.528,-2.3852 C 0.528,-2.3969 0.5243,-2.4067 0.5149,-2.4257 L 0.531,-2.4257"
         id="path12580" />
      <path
         style="fill:#989696;fill-rule:nonzero;stroke:none"
         d="M 0.5442,-2.4364 L 0.5388,-2.4324 L 0.5542,-2.3735 L 0.5361,-2.3735 L 0.5361,-2.3638 L 0.5632,-2.3638"
         id="path12582" />
      <path
         style="fill:#989696;fill-rule:nonzero;stroke:none"
         d="M 0.4059,-2.5568 C 0.4003,-2.561 0.3957,-2.5627 0.3899,-2.5627 C 0.3771,-2.5627 0.3676,-2.5473 0.3676,-2.5263 C 0.3676,-2.5051 0.3773,-2.4891 0.3901,-2.4891 C 0.395,-2.4891 0.3985,-2.4904 0.405,-2.4951 L 0.405,-2.5056 C 0.4001,-2.5009 0.395,-2.4985 0.39,-2.4985 C 0.3809,-2.4985 0.3738,-2.5104 0.3738,-2.526 C 0.3738,-2.5419 0.3808,-2.5532 0.3908,-2.5532 C 0.394,-2.5532 0.397,-2.5519 0.3999,-2.5504 L 0.3999,-2.5356 L 0.3918,-2.5356 L 0.3918,-2.5264 L 0.4059,-2.5264"
         id="path12584" />
      <path
         style="fill:#989696;fill-rule:nonzero;stroke:none"
         d="M 0.4595,-2.5317 L 0.4595,-2.5404 L 0.4305,-2.5404 L 0.4305,-2.5317 L 0.4595,-2.5317 z M 0.4595,-2.5088 L 0.4595,-2.5174 L 0.4305,-2.5174 L 0.4305,-2.5088"
         id="path12586" />
      <path
         style="fill:#989696;fill-rule:nonzero;stroke:none"
         d="M 0.4924,-2.5617 L 0.4984,-2.5617 L 0.4984,-2.49 L 0.4924,-2.49 L 0.4924,-2.5617 z "
         id="path12588" />
      <path
         style="fill:#989696;fill-rule:nonzero;stroke:none"
         d="M 0.5194,-2.5289 L 0.5291,-2.5289 L 0.5291,-2.5085 L 0.529,-2.5085 L 0.5194,-2.5289 z M 0.5352,-2.5289 L 0.5396,-2.5289 L 0.5396,-2.5382 L 0.5352,-2.5382 L 0.5352,-2.5617 L 0.5291,-2.5617 L 0.5291,-2.5382 L 0.5114,-2.5382 L 0.5114,-2.5334 L 0.5326,-2.4891 L 0.5352,-2.4891"
         id="path12590" />
      <path
         style="fill:#989696;fill-rule:nonzero;stroke:none"
         d="M 0.5662,-2.4992 L 0.5531,-2.4992 L 0.5531,-2.5172 C 0.5625,-2.5163 0.5683,-2.5265 0.5683,-2.5397 C 0.5683,-2.553 0.5625,-2.5627 0.5546,-2.5627 C 0.551,-2.5627 0.5481,-2.5614 0.5445,-2.5582 L 0.5445,-2.5476 C 0.5475,-2.5511 0.5506,-2.5529 0.5536,-2.5529 C 0.5584,-2.5529 0.5623,-2.547 0.5623,-2.5399 C 0.5623,-2.5308 0.5568,-2.5235 0.5476,-2.5273 L 0.5476,-2.49 L 0.5662,-2.49"
         id="path12592" />
      <path
         style="fill:#989696;fill-rule:nonzero;stroke:none"
         d="M 0.3752,-2.6787 L 0.3827,-2.6787 C 0.3898,-2.6787 0.3917,-2.6727 0.3917,-2.6673 C 0.3917,-2.6608 0.3887,-2.6562 0.3824,-2.6562 L 0.3752,-2.6562 L 0.3752,-2.6787 z M 0.3752,-2.6469 L 0.3792,-2.6469 C 0.3851,-2.6469 0.388,-2.6431 0.388,-2.6354 C 0.388,-2.6301 0.3862,-2.6254 0.3807,-2.6254 L 0.3752,-2.6254 L 0.3752,-2.6469 z M 0.3691,-2.6162 L 0.3813,-2.6162 C 0.3903,-2.6162 0.3942,-2.6254 0.3942,-2.6345 C 0.3942,-2.642 0.3922,-2.6468 0.3878,-2.6499 L 0.3878,-2.6501 C 0.3941,-2.6521 0.3979,-2.6591 0.3979,-2.6688 C 0.3979,-2.6776 0.394,-2.6879 0.3835,-2.6879 L 0.3691,-2.6879"
         id="path12594" />
      <path
         style="fill:#989696;fill-rule:nonzero;stroke:none"
         d="M 0.4486,-2.6579 L 0.4486,-2.6666 L 0.4196,-2.6666 L 0.4196,-2.6579 L 0.4486,-2.6579 z M 0.4486,-2.635 L 0.4486,-2.6437 L 0.4196,-2.6437 L 0.4196,-2.635"
         id="path12596" />
      <path
         style="fill:#989696;fill-rule:nonzero;stroke:none"
         d="M 0.4845,-2.625 C 0.4798,-2.625 0.477,-2.6352 0.477,-2.6521 C 0.477,-2.6689 0.4798,-2.6791 0.4845,-2.6791 C 0.4892,-2.6791 0.492,-2.6689 0.492,-2.6521 C 0.492,-2.6352 0.4892,-2.625 0.4845,-2.625 z M 0.4845,-2.6889 C 0.4764,-2.6889 0.471,-2.6741 0.471,-2.6521 C 0.471,-2.63 0.4764,-2.6152 0.4845,-2.6152 C 0.4926,-2.6152 0.498,-2.63 0.498,-2.6521 C 0.498,-2.6741 0.4926,-2.6889 0.4845,-2.6889"
         id="path12598" />
      <path
         style="fill:#989696;fill-rule:nonzero;stroke:none"
         d="M 0.7256,-2.3629 C 0.7216,-2.3589 0.7182,-2.3572 0.7145,-2.3572 C 0.7071,-2.3572 0.7017,-2.3661 0.7017,-2.3782 C 0.7017,-2.3906 0.7069,-2.3991 0.7147,-2.3991 C 0.7183,-2.3991 0.7223,-2.3969 0.7259,-2.3929 L 0.7259,-2.4015 C 0.7227,-2.4044 0.7193,-2.4064 0.7143,-2.4064 C 0.7022,-2.4064 0.6969,-2.3905 0.6969,-2.379 C 0.6969,-2.3621 0.7043,-2.3499 0.7145,-2.3499 C 0.7178,-2.3499 0.7212,-2.3513 0.7256,-2.3544"
         id="path12600" />
      <path
         style="fill:#989696;fill-rule:nonzero;stroke:none"
         d="M 0.766,-2.3827 L 0.766,-2.3893 L 0.7438,-2.3893 L 0.7438,-2.3827 L 0.766,-2.3827 z M 0.766,-2.3651 L 0.766,-2.3717 L 0.7438,-2.3717 L 0.7438,-2.3651"
         id="path12602" />
      <path
         style="fill:#989696;fill-rule:nonzero;stroke:none"
         d="M 0.8008,-2.3577 L 0.7907,-2.3577 L 0.7907,-2.3715 C 0.798,-2.3708 0.8024,-2.3786 0.8024,-2.3888 C 0.8024,-2.399 0.798,-2.4064 0.7919,-2.4064 C 0.7891,-2.4064 0.7869,-2.4054 0.7841,-2.403 L 0.7841,-2.3948 C 0.7864,-2.3975 0.7888,-2.3989 0.7911,-2.3989 C 0.7948,-2.3989 0.7978,-2.3944 0.7978,-2.3889 C 0.7978,-2.3819 0.7936,-2.3764 0.7865,-2.3793 L 0.7865,-2.3506 L 0.8008,-2.3506"
         id="path12604" />
      <path
         style="fill:#989696;fill-rule:nonzero;stroke:none"
         d="M 0.7281,-2.5026 L 0.7235,-2.5026 L 0.7235,-2.4597 L 0.7234,-2.4597 L 0.7135,-2.481 L 0.7127,-2.481 L 0.7028,-2.4597 L 0.7027,-2.4597 L 0.7027,-2.5026 L 0.6981,-2.5026 L 0.6981,-2.4475 L 0.7024,-2.4475 L 0.7131,-2.4701 L 0.7238,-2.4475 L 0.7281,-2.4475"
         id="path12606" />
      <path
         style="fill:#989696;fill-rule:nonzero;stroke:none"
         d="M 0.7695,-2.4795 L 0.7695,-2.4862 L 0.7472,-2.4862 L 0.7472,-2.4795 L 0.7695,-2.4795 z M 0.7695,-2.4619 L 0.7695,-2.4686 L 0.7472,-2.4686 L 0.7472,-2.4619"
         id="path12608" />
      <path
         style="fill:#989696;fill-rule:nonzero;stroke:none"
         d="M 0.8043,-2.4546 L 0.7942,-2.4546 L 0.7942,-2.4684 C 0.8014,-2.4677 0.8059,-2.4755 0.8059,-2.4857 C 0.8059,-2.4958 0.8014,-2.5033 0.7953,-2.5033 C 0.7926,-2.5033 0.7903,-2.5023 0.7876,-2.4999 L 0.7876,-2.4917 C 0.7899,-2.4944 0.7922,-2.4958 0.7946,-2.4958 C 0.7982,-2.4958 0.8012,-2.4912 0.8012,-2.4858 C 0.8012,-2.4788 0.797,-2.4732 0.79,-2.4761 L 0.79,-2.4475 L 0.8043,-2.4475"
         id="path12610" />
      <path
         style="fill:#989696;fill-rule:nonzero;stroke:none"
         d="M 0.8126,-2.4491 C 0.8145,-2.4475 0.8164,-2.4468 0.8188,-2.4468 C 0.8245,-2.4468 0.8282,-2.4524 0.8282,-2.4611 C 0.8282,-2.4673 0.8271,-2.4707 0.8241,-2.4735 C 0.8274,-2.4752 0.8288,-2.4809 0.8288,-2.4866 C 0.8288,-2.4964 0.8246,-2.5033 0.8186,-2.5033 C 0.8164,-2.5033 0.8141,-2.5021 0.8118,-2.5001 L 0.8118,-2.4916 C 0.8142,-2.4944 0.8166,-2.4958 0.819,-2.4958 C 0.8221,-2.4958 0.8241,-2.4923 0.8241,-2.487 C 0.8241,-2.4815 0.8218,-2.4774 0.8173,-2.4778 L 0.8173,-2.4705 C 0.8215,-2.4705 0.8236,-2.4675 0.8236,-2.4625 C 0.8236,-2.4574 0.8215,-2.4543 0.8181,-2.4543 C 0.8163,-2.4543 0.8148,-2.4549 0.8126,-2.4566"
         id="path12612" />
      <path
         style="fill:#989696;fill-rule:nonzero;stroke:none"
         d="M 0.7176,-2.5444 L 0.7231,-2.5444 L 0.7112,-2.5703 L 0.7112,-2.5994 L 0.7066,-2.5994 L 0.7066,-2.5703 L 0.6947,-2.5444 L 0.7002,-2.5444 L 0.7088,-2.5633"
         id="path12614" />
      <path
         style="fill:#989696;fill-rule:nonzero;stroke:none"
         d="M 0.7611,-2.5764 L 0.7611,-2.583 L 0.7389,-2.583 L 0.7389,-2.5764 L 0.7611,-2.5764 z M 0.7611,-2.5588 L 0.7611,-2.5654 L 0.7389,-2.5654 L 0.7389,-2.5588"
         id="path12616" />
      <path
         style="fill:#989696;fill-rule:nonzero;stroke:none"
         d="M 0.7886,-2.5685 C 0.79,-2.5685 0.7919,-2.5676 0.7936,-2.5655 C 0.7938,-2.5636 0.7938,-2.5625 0.7938,-2.5611 C 0.7938,-2.5557 0.7914,-2.5512 0.7885,-2.5512 C 0.7854,-2.5512 0.7832,-2.5548 0.7832,-2.5599 C 0.7832,-2.5646 0.7856,-2.5685 0.7886,-2.5685 z M 0.7829,-2.5943 C 0.7883,-2.5883 0.7918,-2.5806 0.7927,-2.5737 C 0.7912,-2.5751 0.7894,-2.576 0.7877,-2.576 C 0.7826,-2.576 0.7786,-2.5689 0.7786,-2.5599 C 0.7786,-2.5518 0.7824,-2.5436 0.7884,-2.5436 C 0.7943,-2.5436 0.7986,-2.5522 0.7986,-2.5637 C 0.7986,-2.5771 0.7932,-2.5922 0.7857,-2.6002"
         id="path12618" />
      <path
         style="fill:#989696;fill-rule:nonzero;stroke:none"
         d="M 0.8122,-2.5685 C 0.8136,-2.5685 0.8154,-2.5676 0.8172,-2.5655 C 0.8174,-2.5636 0.8174,-2.5625 0.8174,-2.5611 C 0.8174,-2.5557 0.815,-2.5512 0.812,-2.5512 C 0.809,-2.5512 0.8068,-2.5548 0.8068,-2.5599 C 0.8068,-2.5646 0.8092,-2.5685 0.8122,-2.5685 z M 0.8064,-2.5943 C 0.8118,-2.5883 0.8153,-2.5806 0.8162,-2.5737 C 0.8148,-2.5751 0.8129,-2.576 0.8112,-2.576 C 0.8061,-2.576 0.8021,-2.5689 0.8021,-2.5599 C 0.8021,-2.5518 0.806,-2.5436 0.8119,-2.5436 C 0.8179,-2.5436 0.8222,-2.5522 0.8222,-2.5637 C 0.8222,-2.5771 0.8168,-2.5922 0.8093,-2.6002"
         id="path12620" />
      <path
         style="fill:#989696;fill-rule:nonzero;stroke:none"
         d="M 0.7255,-2.6963 L 0.7192,-2.6963 L 0.7028,-2.6691 L 0.7028,-2.6963 L 0.6982,-2.6963 L 0.6982,-2.6413 L 0.7028,-2.6413 L 0.7028,-2.6664 L 0.7163,-2.6413 L 0.7221,-2.6413 L 0.7081,-2.6673"
         id="path12622" />
      <path
         style="fill:#989696;fill-rule:nonzero;stroke:none"
         d="M 0.7636,-2.6733 L 0.7636,-2.6799 L 0.7413,-2.6799 L 0.7413,-2.6733 L 0.7636,-2.6733 z M 0.7636,-2.6557 L 0.7636,-2.6623 L 0.7413,-2.6623 L 0.7413,-2.6557"
         id="path12624" />
      <path
         style="fill:#989696;fill-rule:nonzero;stroke:none"
         d="M 0.7888,-2.6963 L 0.7934,-2.6963 L 0.7934,-2.6412 L 0.7888,-2.6412 L 0.7888,-2.6963 z "
         id="path12626" />
      <path
         style="fill:#989696;fill-rule:nonzero;stroke:none"
         d="M 0.3753,-2.8978 L 0.3792,-2.8978 C 0.3856,-2.8978 0.3875,-2.8921 0.3874,-2.8861 C 0.3873,-2.8794 0.385,-2.8753 0.3792,-2.8753 L 0.3753,-2.8753 L 0.3753,-2.8978 z M 0.3798,-2.8665 C 0.3883,-2.8665 0.3936,-2.8741 0.3936,-2.8865 C 0.3936,-2.8949 0.3911,-2.901 0.3866,-2.9041 C 0.3904,-2.9084 0.3927,-2.915 0.3959,-2.924 C 0.3977,-2.9289 0.3988,-2.9313 0.4016,-2.9382 L 0.3944,-2.9382 L 0.3889,-2.9235 C 0.3834,-2.9087 0.3809,-2.9071 0.3778,-2.9071 L 0.3753,-2.9071 L 0.3753,-2.9382 L 0.3693,-2.9382 L 0.3693,-2.8665"
         id="path12628" />
      <path
         style="fill:#989696;fill-rule:nonzero;stroke:none"
         d="M 0.4511,-2.9082 L 0.4511,-2.9168 L 0.4221,-2.9168 L 0.4221,-2.9082 L 0.4511,-2.9082 z M 0.4511,-2.8853 L 0.4511,-2.8939 L 0.4221,-2.8939 L 0.4221,-2.8853"
         id="path12630" />
      <path
         style="fill:#989696;fill-rule:nonzero;stroke:none"
         d="M 0.4841,-2.9382 L 0.4901,-2.9382 L 0.4901,-2.8665 L 0.4841,-2.8665 L 0.4841,-2.9382 z "
         id="path12632" />
      <path
         style="fill:#989696;fill-rule:nonzero;stroke:none"
         d="M 0.5135,-2.9391 L 0.5081,-2.9351 L 0.5235,-2.8762 L 0.5054,-2.8762 L 0.5054,-2.8665 L 0.5325,-2.8665"
         id="path12634" />
      <path
         style="fill:#989696;fill-rule:nonzero;stroke:none"
         d="M 0.5484,-2.8753 C 0.5438,-2.8753 0.5409,-2.8855 0.5409,-2.9023 C 0.5409,-2.9191 0.5438,-2.9293 0.5484,-2.9293 C 0.5531,-2.9293 0.5559,-2.9191 0.5559,-2.9023 C 0.5559,-2.8855 0.5531,-2.8753 0.5484,-2.8753 z M 0.5484,-2.9391 C 0.5403,-2.9391 0.5349,-2.9244 0.5349,-2.9023 C 0.5349,-2.8802 0.5403,-2.8655 0.5484,-2.8655 C 0.5565,-2.8655 0.5619,-2.8802 0.5619,-2.9023 C 0.5619,-2.9244 0.5565,-2.9391 0.5484,-2.9391"
         id="path12636" />
      <path
         style="fill:#989696;fill-rule:nonzero;stroke:none"
         d="M 0.4059,-3.0594 C 0.4003,-3.0637 0.3957,-3.0653 0.3899,-3.0653 C 0.3771,-3.0653 0.3676,-3.05 0.3676,-3.029 C 0.3676,-3.0078 0.3773,-2.9917 0.3901,-2.9917 C 0.395,-2.9917 0.3985,-2.9931 0.405,-2.9978 L 0.405,-3.0082 C 0.4001,-3.0036 0.395,-3.0012 0.39,-3.0012 C 0.3809,-3.0012 0.3738,-3.0131 0.3738,-3.0286 C 0.3738,-3.0446 0.3808,-3.0559 0.3908,-3.0559 C 0.394,-3.0559 0.397,-3.0546 0.3999,-3.053 L 0.3999,-3.0383 L 0.3918,-3.0383 L 0.3918,-3.0291 L 0.4059,-3.0291"
         id="path12638" />
      <path
         style="fill:#989696;fill-rule:nonzero;stroke:none"
         d="M 0.4595,-3.0344 L 0.4595,-3.043 L 0.4305,-3.043 L 0.4305,-3.0344 L 0.4595,-3.0344 z M 0.4595,-3.0115 L 0.4595,-3.0201 L 0.4305,-3.0201 L 0.4305,-3.0115"
         id="path12640" />
      <path
         style="fill:#989696;fill-rule:nonzero;stroke:none"
         d="M 0.4957,-3.0015 C 0.4917,-3.0015 0.489,-3.0057 0.489,-3.0121 C 0.489,-3.018 0.492,-3.0231 0.4955,-3.0231 C 0.4992,-3.0231 0.5021,-3.0181 0.5021,-3.0123 C 0.5021,-3.0061 0.4994,-3.0015 0.4957,-3.0015 z M 0.4955,-3.0329 C 0.4909,-3.0329 0.488,-3.0375 0.488,-3.0442 C 0.488,-3.0508 0.4911,-3.0556 0.4953,-3.0556 C 0.5002,-3.0556 0.5027,-3.0502 0.5027,-3.0442 C 0.5027,-3.0377 0.4997,-3.0329 0.4955,-3.0329 z M 0.4955,-3.0653 C 0.4879,-3.0653 0.482,-3.0564 0.482,-3.0449 C 0.482,-3.0374 0.4839,-3.0318 0.4879,-3.0278 C 0.4848,-3.0239 0.4829,-3.0184 0.4829,-3.0123 C 0.4829,-3.0006 0.4885,-2.9917 0.4958,-2.9917 C 0.5028,-2.9917 0.5081,-3.0007 0.5081,-3.0126 C 0.5081,-3.0179 0.5065,-3.0238 0.5029,-3.0278 C 0.5068,-3.0313 0.5087,-3.0378 0.5087,-3.0451 C 0.5087,-3.0565 0.503,-3.0653 0.4955,-3.0653"
         id="path12642" />
      <path
         style="fill:#989696;fill-rule:nonzero;stroke:none"
         d="M 0.5355,-3.0019 L 0.5224,-3.0019 L 0.5224,-3.0199 C 0.5318,-3.019 0.5376,-3.0292 0.5376,-3.0424 C 0.5376,-3.0557 0.5318,-3.0653 0.5239,-3.0653 C 0.5203,-3.0653 0.5174,-3.0641 0.5138,-3.0609 L 0.5138,-3.0503 C 0.5168,-3.0538 0.5199,-3.0556 0.5229,-3.0556 C 0.5277,-3.0556 0.5316,-3.0497 0.5316,-3.0426 C 0.5316,-3.0335 0.5261,-3.0262 0.5169,-3.03 L 0.5169,-2.9927 L 0.5355,-2.9927"
         id="path12644" />
      <path
         style="fill:#989696;fill-rule:nonzero;stroke:none"
         d="M 0.3752,-3.1813 L 0.3827,-3.1813 C 0.3898,-3.1813 0.3917,-3.1754 0.3917,-3.17 C 0.3917,-3.1635 0.3887,-3.1588 0.3824,-3.1588 L 0.3752,-3.1588 L 0.3752,-3.1813 z M 0.3752,-3.1496 L 0.3792,-3.1496 C 0.3851,-3.1496 0.388,-3.1458 0.388,-3.1381 C 0.388,-3.1328 0.3862,-3.1281 0.3807,-3.1281 L 0.3752,-3.1281 L 0.3752,-3.1496 z M 0.3691,-3.1189 L 0.3813,-3.1189 C 0.3903,-3.1189 0.3942,-3.1281 0.3942,-3.1372 C 0.3942,-3.1446 0.3922,-3.1495 0.3878,-3.1525 L 0.3878,-3.1527 C 0.3941,-3.1547 0.3979,-3.1618 0.3979,-3.1715 C 0.3979,-3.1803 0.394,-3.1906 0.3835,-3.1906 L 0.3691,-3.1906"
         id="path12646" />
      <path
         style="fill:#989696;fill-rule:nonzero;stroke:none"
         d="M 0.4486,-3.1606 L 0.4486,-3.1693 L 0.4196,-3.1693 L 0.4196,-3.1606 L 0.4486,-3.1606 z M 0.4486,-3.1377 L 0.4486,-3.1463 L 0.4196,-3.1463 L 0.4196,-3.1377"
         id="path12648" />
      <path
         style="fill:#989696;fill-rule:nonzero;stroke:none"
         d="M 0.4845,-3.1277 C 0.4798,-3.1277 0.477,-3.1379 0.477,-3.1547 C 0.477,-3.1716 0.4798,-3.1818 0.4845,-3.1818 C 0.4892,-3.1818 0.492,-3.1716 0.492,-3.1547 C 0.492,-3.1379 0.4892,-3.1277 0.4845,-3.1277 z M 0.4845,-3.1916 C 0.4764,-3.1916 0.471,-3.1768 0.471,-3.1547 C 0.471,-3.1327 0.4764,-3.1179 0.4845,-3.1179 C 0.4926,-3.1179 0.498,-3.1327 0.498,-3.1547 C 0.498,-3.1768 0.4926,-3.1916 0.4845,-3.1916"
         id="path12650" />
      <path
         style="fill:#989696;fill-rule:nonzero;stroke:none"
         d="M 0.7256,-2.8656 C 0.7216,-2.8616 0.7182,-2.8598 0.7145,-2.8598 C 0.7071,-2.8598 0.7017,-2.8688 0.7017,-2.8809 C 0.7017,-2.8933 0.7069,-2.9018 0.7147,-2.9018 C 0.7183,-2.9018 0.7223,-2.8996 0.7259,-2.8956 L 0.7259,-2.9042 C 0.7227,-2.9071 0.7193,-2.9091 0.7143,-2.9091 C 0.7022,-2.9091 0.6969,-2.8932 0.6969,-2.8816 C 0.6969,-2.8648 0.7043,-2.8526 0.7145,-2.8526 C 0.7178,-2.8526 0.7212,-2.8539 0.7256,-2.8571"
         id="path12652" />
      <path
         style="fill:#989696;fill-rule:nonzero;stroke:none"
         d="M 0.766,-2.8853 L 0.766,-2.892 L 0.7438,-2.892 L 0.7438,-2.8853 L 0.766,-2.8853 z M 0.766,-2.8677 L 0.766,-2.8744 L 0.7438,-2.8744 L 0.7438,-2.8677"
         id="path12654" />
      <path
         style="fill:#989696;fill-rule:nonzero;stroke:none"
         d="M 0.8037,-2.9083 L 0.7834,-2.9083 L 0.7834,-2.9078 C 0.7869,-2.9004 0.7918,-2.8904 0.7945,-2.8824 C 0.796,-2.878 0.7968,-2.8752 0.7968,-2.8706 C 0.7968,-2.8646 0.7945,-2.8603 0.7913,-2.8603 C 0.789,-2.8603 0.7866,-2.8621 0.784,-2.8677 L 0.784,-2.8578 C 0.7866,-2.8543 0.789,-2.8526 0.7916,-2.8526 C 0.7974,-2.8526 0.8014,-2.8596 0.8014,-2.8698 C 0.8014,-2.8787 0.7986,-2.8862 0.7914,-2.9008 L 0.8037,-2.9008"
         id="path12656" />
      <path
         style="fill:#989696;fill-rule:nonzero;stroke:none"
         d="M 0.8273,-2.9083 L 0.8069,-2.9083 L 0.8069,-2.9078 C 0.8105,-2.9004 0.8154,-2.8904 0.8181,-2.8824 C 0.8196,-2.878 0.8204,-2.8752 0.8204,-2.8706 C 0.8204,-2.8646 0.818,-2.8603 0.8149,-2.8603 C 0.8126,-2.8603 0.8102,-2.8621 0.8076,-2.8677 L 0.8076,-2.8578 C 0.8102,-2.8543 0.8126,-2.8526 0.8152,-2.8526 C 0.821,-2.8526 0.825,-2.8596 0.825,-2.8698 C 0.825,-2.8787 0.8222,-2.8862 0.815,-2.9008 L 0.8273,-2.9008"
         id="path12658" />
      <path
         style="fill:#989696;fill-rule:nonzero;stroke:none"
         d="M 0.7281,-3.0052 L 0.7235,-3.0052 L 0.7235,-2.9624 L 0.7234,-2.9624 L 0.7135,-2.9837 L 0.7127,-2.9837 L 0.7028,-2.9624 L 0.7027,-2.9624 L 0.7027,-3.0052 L 0.6981,-3.0052 L 0.6981,-2.9502 L 0.7024,-2.9502 L 0.7131,-2.9728 L 0.7238,-2.9502 L 0.7281,-2.9502"
         id="path12660" />
      <path
         style="fill:#989696;fill-rule:nonzero;stroke:none"
         d="M 0.7695,-2.9822 L 0.7695,-2.9888 L 0.7472,-2.9888 L 0.7472,-2.9822 L 0.7695,-2.9822 z M 0.7695,-2.9646 L 0.7695,-2.9713 L 0.7472,-2.9713 L 0.7472,-2.9646"
         id="path12662" />
      <path
         style="fill:#989696;fill-rule:nonzero;stroke:none"
         d="M 0.7937,-3.006 L 0.7896,-3.0029 L 0.8014,-2.9577 L 0.7875,-2.9577 L 0.7875,-2.9502 L 0.8083,-2.9502"
         id="path12664" />
      <path
         style="fill:#989696;fill-rule:nonzero;stroke:none"
         d="M 0.8308,-3.0052 L 0.8104,-3.0052 L 0.8104,-3.0047 C 0.8139,-2.9973 0.8188,-2.9873 0.8216,-2.9793 C 0.8231,-2.9749 0.8238,-2.9721 0.8238,-2.9675 C 0.8238,-2.9615 0.8215,-2.9572 0.8183,-2.9572 C 0.816,-2.9572 0.8136,-2.959 0.811,-2.9646 L 0.811,-2.9547 C 0.8136,-2.9511 0.816,-2.9494 0.8186,-2.9494 C 0.8244,-2.9494 0.8284,-2.9565 0.8284,-2.9666 C 0.8284,-2.9756 0.8256,-2.9831 0.8184,-2.9977 L 0.8308,-2.9977"
         id="path12666" />
      <path
         style="fill:#989696;fill-rule:nonzero;stroke:none"
         d="M 0.7176,-3.0471 L 0.7231,-3.0471 L 0.7112,-3.073 L 0.7112,-3.1021 L 0.7066,-3.1021 L 0.7066,-3.073 L 0.6947,-3.0471 L 0.7002,-3.0471 L 0.7088,-3.066"
         id="path12668" />
      <path
         style="fill:#989696;fill-rule:nonzero;stroke:none"
         d="M 0.7611,-3.0791 L 0.7611,-3.0857 L 0.7389,-3.0857 L 0.7389,-3.0791 L 0.7611,-3.0791 z M 0.7611,-3.0615 L 0.7611,-3.0681 L 0.7389,-3.0681 L 0.7389,-3.0615"
         id="path12670" />
      <path
         style="fill:#989696;fill-rule:nonzero;stroke:none"
         d="M 0.7864,-3.1021 L 0.791,-3.1021 L 0.791,-3.047 L 0.7864,-3.047 L 0.7864,-3.1021 z "
         id="path12672" />
      <path
         style="fill:#989696;fill-rule:nonzero;stroke:none"
         d="M 0.8122,-3.0538 C 0.8086,-3.0538 0.8065,-3.0617 0.8065,-3.0746 C 0.8065,-3.0875 0.8086,-3.0953 0.8122,-3.0953 C 0.8158,-3.0953 0.818,-3.0875 0.818,-3.0746 C 0.818,-3.0617 0.8158,-3.0538 0.8122,-3.0538 z M 0.8122,-3.1028 C 0.806,-3.1028 0.8018,-3.0915 0.8018,-3.0746 C 0.8018,-3.0576 0.806,-3.0463 0.8122,-3.0463 C 0.8184,-3.0463 0.8226,-3.0576 0.8226,-3.0746 C 0.8226,-3.0915 0.8184,-3.1028 0.8122,-3.1028"
         id="path12674" />
      <path
         style="fill:#989696;fill-rule:nonzero;stroke:none"
         d="M 0.8358,-3.0538 C 0.8322,-3.0538 0.83,-3.0617 0.83,-3.0746 C 0.83,-3.0875 0.8322,-3.0953 0.8358,-3.0953 C 0.8394,-3.0953 0.8415,-3.0875 0.8415,-3.0746 C 0.8415,-3.0617 0.8394,-3.0538 0.8358,-3.0538 z M 0.8358,-3.1028 C 0.8296,-3.1028 0.8254,-3.0915 0.8254,-3.0746 C 0.8254,-3.0576 0.8296,-3.0463 0.8358,-3.0463 C 0.842,-3.0463 0.8462,-3.0576 0.8462,-3.0746 C 0.8462,-3.0915 0.842,-3.1028 0.8358,-3.1028"
         id="path12676" />
      <path
         style="fill:#989696;fill-rule:nonzero;stroke:none"
         d="M 0.7255,-3.199 L 0.7192,-3.199 L 0.7028,-3.1718 L 0.7028,-3.199 L 0.6982,-3.199 L 0.6982,-3.1439 L 0.7028,-3.1439 L 0.7028,-3.1691 L 0.7163,-3.1439 L 0.7221,-3.1439 L 0.7081,-3.17"
         id="path12678" />
      <path
         style="fill:#989696;fill-rule:nonzero;stroke:none"
         d="M 0.7636,-3.176 L 0.7636,-3.1826 L 0.7413,-3.1826 L 0.7413,-3.176 L 0.7636,-3.176 z M 0.7636,-3.1584 L 0.7636,-3.165 L 0.7413,-3.165 L 0.7413,-3.1584"
         id="path12680" />
      <path
         style="fill:#989696;fill-rule:nonzero;stroke:none"
         d="M 0.7888,-3.199 L 0.7934,-3.199 L 0.7934,-3.1439 L 0.7888,-3.1439 L 0.7888,-3.199 z "
         id="path12682" />
      <path
         style="fill:#989696;fill-rule:nonzero;stroke:none"
         d="M 0.8219,-3.151 L 0.8118,-3.151 L 0.8118,-3.1648 C 0.8191,-3.1641 0.8235,-3.1719 0.8235,-3.1821 C 0.8235,-3.1923 0.8191,-3.1997 0.813,-3.1997 C 0.8102,-3.1997 0.808,-3.1987 0.8052,-3.1963 L 0.8052,-3.1882 C 0.8076,-3.1908 0.8099,-3.1922 0.8123,-3.1922 C 0.8159,-3.1922 0.8189,-3.1877 0.8189,-3.1823 C 0.8189,-3.1752 0.8147,-3.1697 0.8076,-3.1726 L 0.8076,-3.1439 L 0.8219,-3.1439"
         id="path12684" />
      <path
         style="fill:#ffffff;fill-rule:evenodd;stroke:none"
         d="M 0.18,-0.9894 L 0.2477,-0.9894 L 0.2477,-1.225 L 0.3416,-1.225 L 0.3416,-0.6192 L 0.2477,-0.6192 L 0.2477,-0.8472 L 0.18,-0.8472 L 0.18,-0.6192 L 0.0848,-0.6192 L 0.0848,-1.225 L 0.18,-1.225"
         id="path12686" />
      <path
         style="fill:#ffffff;fill-rule:evenodd;stroke:none"
         d="M 0.505,-0.8522 L 0.4555,-0.8522 L 0.4555,-0.7589 L 0.506,-0.7589 C 0.5175,-0.759 0.5286,-0.7823 0.5286,-0.8055 C 0.5286,-0.8291 0.5178,-0.8522 0.505,-0.8522 M 0.5069,-1.0829 L 0.4559,-1.0829 L 0.4559,-0.9895 L 0.5029,-0.9895 C 0.5175,-0.9893 0.5286,-1.0119 0.5286,-1.0368 C 0.5286,-1.0593 0.5206,-1.0825 0.5069,-1.0829 M 0.5657,-0.9222 C 0.5994,-0.9095 0.6246,-0.8585 0.6246,-0.7975 C 0.6246,-0.6911 0.5885,-0.6193 0.5285,-0.6193 L 0.3607,-0.6194 L 0.3607,-1.2251 L 0.5266,-1.2251 C 0.5274,-1.2252 0.5281,-1.2253 0.529,-1.2253 C 0.589,-1.2253 0.6251,-1.1535 0.6251,-1.0471 C 0.6251,-0.9858 0.5996,-0.9346 0.5657,-0.9222"
         id="path12688" />
      <path
         style="fill:#ffffff;fill-rule:evenodd;stroke:none"
         d="M 0.7847,-1.0728 C 0.7345,-1.0728 0.6937,-1.0037 0.6937,-0.9184 C 0.6937,-0.8331 0.7345,-0.7641 0.7847,-0.7641 C 0.8349,-0.7641 0.8757,-0.8331 0.8757,-0.9184 C 0.8757,-1.0037 0.8349,-1.0728 0.7847,-1.0728 M 0.7847,-0.6029 C 0.682,-0.6029 0.5988,-0.7442 0.5988,-0.9184 C 0.5988,-1.0926 0.682,-1.2339 0.7847,-1.2339 C 0.8874,-1.2339 0.9706,-1.0926 0.9706,-0.9184 C 0.9706,-0.7442 0.8874,-0.6029 0.7847,-0.6029"
         id="path12690" />
      <path
         style="fill:#ffffff;fill-rule:evenodd;stroke:none"
         d="M 0.7847,-0.7974 C 0.7453,-0.7974 0.7134,-0.8516 0.7134,-0.9184 C 0.7134,-0.9852 0.7453,-1.0394 0.7847,-1.0394 C 0.8241,-1.0394 0.856,-0.9852 0.856,-0.9184 C 0.856,-0.8516 0.8241,-0.7974 0.7847,-0.7974"
         id="path12692" />
      <path
         style="fill:#0e0c0d;fill-rule:evenodd;stroke:none"
         d="M 0.1901,0.6135 L 0.2578,0.6135 L 0.2578,0.3779 L 0.3517,0.3779 L 0.3517,0.9836 L 0.2578,0.9836 L 0.2578,0.7556 L 0.1901,0.7556 L 0.1901,0.9836 L 0.0949,0.9836 L 0.0949,0.3779 L 0.1901,0.3779"
         id="path12694" />
      <path
         style="fill:#0e0c0d;fill-rule:evenodd;stroke:none"
         d="M 0.5151,0.7506 L 0.4656,0.7506 L 0.4656,0.8439 L 0.516,0.8439 C 0.5276,0.8439 0.5387,0.8206 0.5387,0.7974 C 0.5387,0.7738 0.5279,0.7506 0.5151,0.7506 M 0.517,0.5199 L 0.466,0.5199 L 0.466,0.6133 L 0.513,0.6133 C 0.5276,0.6136 0.5387,0.591 0.5387,0.5661 C 0.5387,0.5436 0.5307,0.5204 0.517,0.5199 M 0.5758,0.6807 C 0.6095,0.6933 0.6347,0.7443 0.6347,0.8054 C 0.6347,0.9118 0.5986,0.9835 0.5386,0.9835 L 0.3708,0.9835 L 0.3708,0.3778 L 0.5367,0.3778 C 0.5375,0.3777 0.5382,0.3776 0.539,0.3776 C 0.5991,0.3776 0.6352,0.4494 0.6352,0.5558 C 0.6352,0.6171 0.6097,0.6683 0.5758,0.6807"
         id="path12696" />
      <path
         style="fill:#0e0c0d;fill-rule:evenodd;stroke:none"
         d="M 0.7948,0.5301 C 0.7446,0.5301 0.7038,0.5992 0.7038,0.6845 C 0.7038,0.7698 0.7446,0.8388 0.7948,0.8388 C 0.845,0.8388 0.8858,0.7698 0.8858,0.6845 C 0.8858,0.5992 0.845,0.5301 0.7948,0.5301 M 0.7948,1 C 0.6921,1 0.6088,0.8587 0.6088,0.6845 C 0.6088,0.5102 0.6921,0.369 0.7948,0.369 C 0.8975,0.369 0.9807,0.5102 0.9807,0.6845 C 0.9807,0.8587 0.8975,1 0.7948,1"
         id="path12698" />
      <path
         style="fill:#0e0c0d;fill-rule:evenodd;stroke:none"
         d="M 0.7948,0.8055 C 0.7554,0.8055 0.7235,0.7513 0.7235,0.6845 C 0.7235,0.6176 0.7554,0.5635 0.7948,0.5635 C 0.8342,0.5635 0.8661,0.6176 0.8661,0.6845 C 0.8661,0.7513 0.8342,0.8055 0.7948,0.8055"
         id="path12700" />
      <path
         style="fill:#e08816;fill-rule:nonzero;stroke:none"
         d="M 0.0496,-2.7266 L 0.2733,-2.7266 L 0.2733,-2.3315 L 0.0496,-2.3315 L 0.0496,-2.7266 z "
         id="path12702" />
      <path
         style="fill:#b0491e;fill-rule:nonzero;stroke:none"
         d="M 0.0496,-3.2286 L 0.2733,-3.2286 L 0.2733,-2.8335 L 0.0496,-2.8335 L 0.0496,-3.2286 z "
         id="path12704" />
      <path
         style="fill:#e08816;fill-rule:nonzero;stroke:none"
         d="M 0.2054,0.2373 C 0.1881,0.2543 0.1733,0.262 0.1571,0.262 C 0.1251,0.262 0.1012,0.2233 0.1012,0.171 C 0.1012,0.1177 0.1242,0.0808 0.1579,0.0808 C 0.1737,0.0808 0.191,0.0902 0.2068,0.1076 L 0.2068,0.0703 C 0.1931,0.0581 0.178,0.0494 0.1561,0.0494 C 0.1035,0.0494 0.0805,0.1181 0.0805,0.1679 C 0.0805,0.2404 0.1127,0.2934 0.1573,0.2934 C 0.1717,0.2934 0.1863,0.2875 0.2054,0.2739"
         id="path12706" />
      <path
         style="fill:#e08816;fill-rule:nonzero;stroke:none"
         d="M 0.3005,0.0808 C 0.3319,0.0808 0.3551,0.1195 0.3551,0.1714 C 0.3551,0.2237 0.3319,0.262 0.3005,0.262 C 0.2693,0.262 0.246,0.2237 0.246,0.1714 C 0.246,0.1195 0.2693,0.0808 0.3005,0.0808 z M 0.3005,0.2934 C 0.3467,0.2934 0.3759,0.2376 0.3759,0.1714 C 0.3759,0.1073 0.3475,0.0494 0.3001,0.0494 C 0.2543,0.0494 0.2253,0.1069 0.2253,0.1714 C 0.2253,0.2373 0.2551,0.2934 0.3005,0.2934"
         id="path12708" />
      <path
         style="fill:#e08816;fill-rule:nonzero;stroke:none"
         d="M 0.5238,0.0525 L 0.5037,0.0525 L 0.5037,0.2376 L 0.5033,0.2376 L 0.4601,0.1456 L 0.4569,0.1456 L 0.4137,0.2376 L 0.4133,0.2376 L 0.4133,0.0525 L 0.3932,0.0525 L 0.3932,0.2902 L 0.4121,0.2902 L 0.4585,0.1927 L 0.5051,0.2902 L 0.5238,0.2902"
         id="path12710" />
      <path
         style="fill:#b0491e;fill-rule:nonzero;stroke:none"
         d="M 0.6068,0.2805 L 0.5644,0.21 L 0.594,0.1587 L 0.635,0.2267 L 0.6476,0.2048 L 0.6067,0.1368 L 0.6371,0.084 L 0.6809,0.1567 L 0.6935,0.1347 L 0.6354,0.0382 L 0.5374,0.208 L 0.5942,0.3024"
         id="path12712" />
      <path
         style="fill:#e08816;fill-rule:nonzero;stroke:none"
         d="M 0.7257,0.0832 L 0.7577,0.0832 C 0.8033,0.0832 0.8138,0.1421 0.8138,0.1714 C 0.8138,0.2191 0.7959,0.2596 0.7567,0.2596 L 0.7257,0.2596 L 0.7257,0.0832 z M 0.7056,0.2902 L 0.76,0.2902 C 0.8118,0.2902 0.8346,0.2275 0.8346,0.1714 C 0.8346,0.1104 0.8064,0.0525 0.7602,0.0525 L 0.7056,0.0525"
         id="path12714" />
      <path
         style="fill:#e08816;fill-rule:nonzero;stroke:none"
         d="M 0.9308,0.2902 L 0.955,0.2902 L 0.903,0.178 L 0.903,0.0525 L 0.8829,0.0525 L 0.8829,0.1784 L 0.8309,0.2902 L 0.8552,0.2902 L 0.8928,0.2083"
         id="path12716" />
      <path
         style="fill:#e08816;fill-rule:nonzero;stroke:none"
         d="M 0.1979,-1.3878 C 0.1807,-1.3707 0.1659,-1.363 0.1497,-1.363 C 0.1176,-1.363 0.0938,-1.4017 0.0938,-1.454 C 0.0938,-1.5073 0.1168,-1.5443 0.1505,-1.5443 C 0.1663,-1.5443 0.1836,-1.5348 0.1994,-1.5174 L 0.1994,-1.5547 C 0.1856,-1.5669 0.1706,-1.5756 0.1486,-1.5756 C 0.0961,-1.5756 0.073,-1.507 0.073,-1.4571 C 0.073,-1.3846 0.1053,-1.3316 0.1499,-1.3316 C 0.1642,-1.3316 0.1788,-1.3376 0.1979,-1.3512"
         id="path12718" />
      <path
         style="fill:#e08816;fill-rule:nonzero;stroke:none"
         d="M 0.293,-1.5443 C 0.3245,-1.5443 0.3477,-1.5056 0.3477,-1.4536 C 0.3477,-1.4013 0.3245,-1.363 0.293,-1.363 C 0.2618,-1.363 0.2386,-1.4013 0.2386,-1.4536 C 0.2386,-1.5056 0.2618,-1.5443 0.293,-1.5443 z M 0.293,-1.3316 C 0.3393,-1.3316 0.3684,-1.3874 0.3684,-1.4536 C 0.3684,-1.5178 0.3401,-1.5756 0.2926,-1.5756 C 0.2468,-1.5756 0.2179,-1.5181 0.2179,-1.4536 C 0.2179,-1.3878 0.2476,-1.3316 0.293,-1.3316"
         id="path12720" />
      <path
         style="fill:#e08816;fill-rule:nonzero;stroke:none"
         d="M 0.5164,-1.5725 L 0.4962,-1.5725 L 0.4962,-1.3874 L 0.4958,-1.3874 L 0.4527,-1.4794 L 0.4494,-1.4794 L 0.4063,-1.3874 L 0.4059,-1.3874 L 0.4059,-1.5725 L 0.3857,-1.5725 L 0.3857,-1.3348 L 0.4046,-1.3348 L 0.4511,-1.4324 L 0.4977,-1.3348 L 0.5164,-1.3348"
         id="path12722" />
      <path
         style="fill:#b0491e;fill-rule:nonzero;stroke:none"
         d="M 0.5994,-1.3445 L 0.557,-1.415 L 0.5866,-1.4663 L 0.6275,-1.3983 L 0.6402,-1.4202 L 0.5992,-1.4882 L 0.6297,-1.541 L 0.6734,-1.4684 L 0.6861,-1.4903 L 0.6279,-1.5868 L 0.5299,-1.417 L 0.5868,-1.3226"
         id="path12724" />
      <path
         style="fill:#e08816;fill-rule:nonzero;stroke:none"
         d="M 0.7182,-1.5418 L 0.7503,-1.5418 C 0.7959,-1.5418 0.8064,-1.4829 0.8064,-1.4536 C 0.8064,-1.4059 0.7885,-1.3655 0.7493,-1.3655 L 0.7182,-1.3655 L 0.7182,-1.5418 z M 0.6981,-1.3348 L 0.7526,-1.3348 C 0.8043,-1.3348 0.8271,-1.3975 0.8271,-1.4536 C 0.8271,-1.5146 0.799,-1.5725 0.7528,-1.5725 L 0.6981,-1.5725"
         id="path12726" />
      <path
         style="fill:#e08816;fill-rule:nonzero;stroke:none"
         d="M 0.9233,-1.3348 L 0.9476,-1.3348 L 0.8956,-1.447 L 0.8956,-1.5725 L 0.8755,-1.5725 L 0.8755,-1.4467 L 0.8235,-1.3348 L 0.8477,-1.3348 L 0.8853,-1.4167"
         id="path12728" />
    </g>
  </g>
</svg>
