<?xml version="1.0" encoding="UTF-8" standalone="yes"?>
<svg xmlns="http://www.w3.org/2000/svg" xmlns:xlink="http://www.w3.org/1999/xlink" width="169.33333333333331px" height="106.66666666666666px" viewBox="0 0 127 80" version="1.1">
  <g id="surface1">
    <path style=" stroke:none;fill-rule:evenodd;fill:rgb(5.490196%,4.705882%,5.098039%);fill-opacity:1;" d="M 15.460938 32.148438 L 25.011719 32.148438 L 25.011719 51.746094 L 38.257812 51.746094 L 38.257812 1.363281 L 25.011719 1.363281 L 25.011719 20.328125 L 15.460938 20.328125 L 15.460938 1.363281 L 2.03125 1.363281 L 2.03125 51.746094 L 15.460938 51.746094 "/>
    <path style=" stroke:none;fill-rule:evenodd;fill:rgb(5.490196%,4.705882%,5.098039%);fill-opacity:1;" d="M 61.308594 20.746094 L 54.328125 20.746094 L 54.328125 12.984375 L 61.4375 12.984375 C 63.074219 12.984375 64.640625 14.921875 64.640625 16.851562 C 64.640625 18.816406 63.117188 20.746094 61.308594 20.746094 M 61.578125 39.933594 L 54.382812 39.933594 L 54.382812 32.164062 L 61.015625 32.164062 C 63.074219 32.140625 64.640625 34.019531 64.640625 36.089844 C 64.640625 37.960938 63.511719 39.890625 61.578125 39.933594 M 69.875 26.558594 C 74.628906 25.511719 78.183594 21.269531 78.183594 16.1875 C 78.183594 7.335938 73.089844 1.371094 64.625 1.371094 L 40.953125 1.371094 L 40.953125 51.753906 L 64.359375 51.753906 C 64.46875 51.761719 64.570312 51.769531 64.683594 51.769531 C 73.160156 51.769531 78.253906 45.796875 78.253906 36.949219 C 78.253906 31.847656 74.65625 27.589844 69.875 26.558594 "/>
    <path style=" stroke:none;fill-rule:evenodd;fill:rgb(5.490196%,4.705882%,5.098039%);fill-opacity:1;" d="M 100.769531 39.085938 C 93.6875 39.085938 87.929688 33.335938 87.929688 26.242188 C 87.929688 19.148438 93.6875 13.410156 100.769531 13.410156 C 107.851562 13.410156 113.605469 19.148438 113.605469 26.242188 C 113.605469 33.335938 107.851562 39.085938 100.769531 39.085938 M 100.769531 0 C 86.28125 0 74.527344 11.753906 74.527344 26.242188 C 74.527344 40.742188 86.28125 52.484375 100.769531 52.484375 C 115.257812 52.484375 126.992188 40.742188 126.992188 26.242188 C 126.992188 11.753906 115.257812 0 100.769531 0 "/>
    <path style=" stroke:none;fill-rule:evenodd;fill:rgb(5.490196%,4.705882%,5.098039%);fill-opacity:1;" d="M 100.769531 16.179688 C 95.210938 16.179688 90.710938 20.6875 90.710938 26.242188 C 90.710938 31.808594 95.210938 36.308594 100.769531 36.308594 C 106.328125 36.308594 110.828125 31.808594 110.828125 26.242188 C 110.828125 20.6875 106.328125 16.179688 100.769531 16.179688 "/>
    <path style=" stroke:none;fill-rule:nonzero;fill:rgb(87.843137%,53.333333%,8.627451%);fill-opacity:1;" d="M 17.621094 63.441406 C 15.179688 62.027344 13.089844 61.386719 10.804688 61.386719 C 6.292969 61.386719 2.921875 64.605469 2.921875 68.953125 C 2.921875 73.386719 6.164062 76.457031 10.917969 76.457031 C 13.148438 76.457031 15.589844 75.675781 17.816406 74.226562 L 17.816406 77.332031 C 15.886719 78.34375 13.753906 79.070312 10.664062 79.070312 C 3.246094 79.070312 0 73.355469 0 69.210938 C 0 63.179688 4.542969 58.773438 10.835938 58.773438 C 12.867188 58.773438 14.925781 59.265625 17.621094 60.394531 "/>
    <path style=" stroke:none;fill-rule:nonzero;fill:rgb(87.843137%,53.333333%,8.627451%);fill-opacity:1;" d="M 31.035156 76.457031 C 35.464844 76.457031 38.738281 73.238281 38.738281 68.921875 C 38.738281 64.570312 35.464844 61.386719 31.035156 61.386719 C 26.632812 61.386719 23.347656 64.570312 23.347656 68.921875 C 23.347656 73.238281 26.632812 76.457031 31.035156 76.457031 Z M 31.035156 58.773438 C 37.554688 58.773438 41.671875 63.414062 41.671875 68.921875 C 41.671875 74.253906 37.667969 79.070312 30.980469 79.070312 C 24.519531 79.070312 20.425781 74.285156 20.425781 68.921875 C 20.425781 63.441406 24.632812 58.773438 31.035156 58.773438 "/>
    <path style=" stroke:none;fill-rule:nonzero;fill:rgb(87.843137%,53.333333%,8.627451%);fill-opacity:1;" d="M 62.539062 78.8125 L 59.703125 78.8125 L 59.703125 63.414062 L 59.644531 63.414062 L 53.550781 71.066406 L 53.101562 71.066406 L 47.003906 63.414062 L 46.949219 63.414062 L 46.949219 78.8125 L 44.113281 78.8125 L 44.113281 59.039062 L 46.78125 59.039062 L 53.324219 67.148438 L 59.898438 59.039062 L 62.539062 59.039062 "/>
    <path style=" stroke:none;fill-rule:nonzero;fill:rgb(69.019608%,28.627451%,11.764706%);fill-opacity:1;" d="M 74.246094 59.847656 L 68.265625 65.710938 L 72.441406 69.976562 L 78.226562 64.320312 L 80.003906 66.144531 L 74.234375 71.796875 L 78.519531 76.191406 L 84.699219 70.144531 L 86.476562 71.972656 L 78.28125 80 L 64.457031 65.875 L 72.46875 58.023438 "/>
    <path style=" stroke:none;fill-rule:nonzero;fill:rgb(87.843137%,53.333333%,8.627451%);fill-opacity:1;" d="M 91.019531 76.257812 L 95.535156 76.257812 C 101.96875 76.257812 103.449219 71.359375 103.449219 68.921875 C 103.449219 64.953125 100.921875 61.585938 95.394531 61.585938 L 91.019531 61.585938 Z M 88.183594 59.039062 L 95.859375 59.039062 C 103.167969 59.039062 106.382812 64.253906 106.382812 68.921875 C 106.382812 73.996094 102.40625 78.8125 95.886719 78.8125 L 88.183594 78.8125 "/>
    <path style=" stroke:none;fill-rule:nonzero;fill:rgb(87.843137%,53.333333%,8.627451%);fill-opacity:1;" d="M 119.953125 59.039062 L 123.367188 59.039062 L 116.03125 68.371094 L 116.03125 78.8125 L 113.195312 78.8125 L 113.195312 68.339844 L 105.859375 59.039062 L 109.289062 59.039062 L 114.59375 65.851562 "/>
  </g>
</svg>