<?xml version="1.0" encoding="UTF-8" standalone="yes"?>
<svg xmlns="http://www.w3.org/2000/svg" xmlns:xlink="http://www.w3.org/1999/xlink" width="405.3333333333333px" height="106.66666666666666px" viewBox="0 0 304 80" version="1.1">
  <g id="surface1">
    <path style=" stroke:none;fill-rule:nonzero;fill:rgb(100%,100%,100%);fill-opacity:1;" d="M 118.507812 14.113281 L 285.785156 14.113281 L 285.785156 64.113281 L 118.507812 64.113281 Z M 118.507812 14.113281 "/>
    <path style=" stroke:none;fill-rule:nonzero;fill:rgb(0.392157%,14.509804%,34.117647%);fill-opacity:1;" d="M 110.738281 8.980469 L 110.738281 70.808594 L 295.238281 70.808594 L 295.238281 8.980469 Z M 142.933594 18.078125 C 149.96875 18.078125 156.242188 22.398438 154.667969 29.570312 L 153.980469 32.714844 L 144.273438 32.714844 L 144.785156 29.984375 C 145.421875 26.664062 143.980469 25.671875 142.003906 25.671875 C 140.550781 25.671875 138.332031 26.128906 137.351562 30.617188 L 133.464844 48.398438 C 132.824219 51.375 133.402344 53.585938 136.304688 53.878906 C 139.445312 54.171875 140.375 50.917969 140.78125 48.933594 L 141.472656 45.433594 L 151.179688 45.433594 L 150.191406 50.21875 C 148.5625 58.027344 142.761719 61.117188 135.734375 61.117188 C 133.753906 61.117188 130.078125 60.652344 126.996094 57.734375 C 124.960938 55.8125 121.648438 56.210938 121.648438 56.210938 C 121.648438 56.210938 122.347656 55.21875 122.636719 53.699219 L 127.703125 30.441406 C 130.144531 19.132812 137.878906 18.078125 142.933594 18.078125 Z M 163.410156 18.789062 L 175.558594 18.789062 C 184.335938 18.789062 189.277344 25.078125 187.710938 32.972656 C 186.371094 39.535156 182.710938 42.804688 180.097656 43.96875 L 181.890625 60.34375 L 171.832031 60.34375 L 171.023438 45.769531 L 167.351562 45.847656 L 164.277344 60.34375 L 154.453125 60.34375 Z M 197.160156 18.789062 L 206.863281 18.789062 L 197.851562 60.34375 L 188.144531 60.34375 Z M 215.425781 18.789062 L 229.3125 18.789062 L 229.785156 43.808594 L 238.742188 18.789062 L 253.257812 18.789062 L 244.304688 60.34375 L 235.132812 60.34375 L 240.773438 36.015625 C 240.945312 35.144531 240.019531 34.851562 239.609375 35.898438 L 230.121094 60.34375 L 222.449219 60.34375 L 222.054688 36.078125 C 221.992188 34.617188 221.003906 35.027344 220.832031 35.957031 L 215.523438 60.34375 L 206.234375 60.34375 Z M 261.820312 18.789062 C 278.910156 18.789062 283.363281 18.789062 283.363281 18.789062 L 281.84375 26.1875 L 270.203125 26.1875 L 268.113281 35.285156 L 278.429688 35.285156 L 276.695312 42.800781 L 266.535156 42.800781 L 264.386719 52.949219 L 274.328125 52.949219 L 272.867188 60.34375 L 252.984375 60.34375 Z M 171.378906 26.246094 L 168.753906 38.371094 L 173.410156 38.371094 C 177.011719 37.910156 178.519531 33.207031 178.519531 33.207031 C 179.742188 28.277344 177.121094 26.246094 175.144531 26.246094 C 175.144531 26.246094 171.898438 26.246094 171.378906 26.246094 Z M 8.972656 32.476562 L 8.972656 70.789062 L 107.308594 70.789062 L 107.308594 32.476562 Z M 8.972656 32.476562 "/>
    <path style=" stroke:none;fill-rule:nonzero;fill:rgb(18.431373%,57.254902%,79.607843%);fill-opacity:1;" d="M 11.28125 49.917969 C 12.039062 49.496094 13.074219 49.679688 13.789062 49.285156 C 16.316406 47.9375 18.019531 44.710938 20.355469 43.117188 C 21.191406 42.480469 22.328125 43.183594 22.972656 42.433594 C 23.761719 41.773438 23.164062 40.996094 24.054688 40.238281 C 26.222656 38.582031 28.515625 37.726562 30.625 36.125 C 31.707031 35.3125 32.8125 33.734375 33.882812 32.476562 L 32.414062 32.476562 C 30.296875 34.496094 28.207031 36.503906 26.105469 38.179688 C 24.355469 39.585938 22.136719 40.089844 20.355469 41.472656 C 18.253906 43.101562 16.386719 45.746094 14.195312 47.234375 C 12.957031 48.101562 11.730469 47.753906 10.910156 48.464844 C 10.347656 48.816406 9.652344 49.640625 8.980469 50.257812 L 8.980469 51.988281 C 9.796875 51.257812 10.480469 50.347656 11.28125 49.917969 M 32.683594 69.4375 C 32.3125 69.941406 32.242188 70.492188 33.09375 70.667969 C 33.210938 70.703125 33.335938 70.746094 33.460938 70.789062 L 36.21875 70.789062 C 35.171875 70.398438 34.363281 69.941406 33.914062 69.433594 C 33.566406 69.027344 32.878906 69.027344 32.683594 69.4375 Z M 40.445312 42.292969 C 39.582031 42.269531 39.140625 42.570312 39.480469 42.929688 C 39.773438 43.375 40.503906 42.570312 40.484375 43.117188 C 40.046875 46.953125 34.546875 53.050781 37.144531 58.710938 C 40.382812 64.148438 41.53125 62.1875 44.855469 64.570312 C 46.195312 65.367188 47.613281 65.109375 47.878906 64.910156 C 48.390625 64.652344 48.296875 64.269531 47.878906 64.089844 C 43.578125 62.449219 39.433594 61.976562 38.023438 57.507812 C 37.246094 54.8125 37.921875 51.738281 38.433594 50.519531 C 40.167969 46.363281 43.117188 41.917969 46.238281 39.003906 C 49.164062 36.269531 52.1875 34.199219 55.585938 32.476562 L 51.613281 32.476562 C 50.71875 33.007812 49.878906 33.542969 49.113281 34.070312 C 46.332031 35.96875 44.253906 42.027344 40.445312 42.292969 Z M 18.714844 62.449219 C 18.222656 61.789062 18.222656 62.230469 18.304688 62.855469 C 18.84375 66.777344 22.199219 68.046875 24.054688 70.667969 C 24.082031 70.707031 24.109375 70.746094 24.140625 70.789062 L 25.285156 70.789062 C 22.914062 68.039062 20.730469 65.007812 19.125 62.855469 C 18.984375 62.71875 18.851562 62.582031 18.714844 62.449219 Z M 107.320312 49.589844 C 107.242188 49.65625 107.160156 49.699219 107.035156 49.695312 C 106.625 49.695312 106.402344 49.847656 106.046875 49.714844 C 105.730469 49.632812 105.53125 49.417969 105.390625 49.285156 C 104.996094 48.753906 104.855469 48.289062 105.382812 47.824219 C 105.644531 47.613281 105.964844 47.597656 106.421875 47.691406 C 106.636719 47.753906 106.898438 47.914062 107.035156 48.054688 C 107.148438 48.144531 107.238281 48.269531 107.320312 48.417969 L 107.320312 44.1875 C 105.246094 42.40625 102.921875 37.351562 101.285156 35.71875 C 100.105469 34.53125 98.84375 33.460938 97.507812 32.476562 L 94.710938 32.476562 C 96.550781 34.21875 98.320312 36.0625 100.464844 36.949219 C 101.375 37.332031 101.191406 38.648438 99.617188 38.25 C 96.300781 36.710938 95.371094 34.492188 93.066406 32.835938 C 92.894531 32.714844 92.722656 32.59375 92.539062 32.472656 L 89.453125 32.472656 C 94.726562 34.90625 100.996094 41.691406 102.925781 45.171875 C 104.285156 47.625 103.878906 50.785156 105.800781 52.574219 C 106.285156 52.980469 106.355469 53.617188 105.800781 53.808594 C 105.117188 53.945312 103.75 54.292969 103.683594 52.769531 C 103.582031 41.8125 94.425781 36.921875 87.25 32.769531 C 87.019531 32.664062 86.824219 32.566406 86.664062 32.472656 L 81.714844 32.472656 C 90.898438 34.667969 97.558594 40.308594 100.871094 48.054688 C 103.566406 54.351562 104.386719 62.753906 103.582031 70.789062 L 104.339844 70.789062 C 104.886719 68.722656 106.136719 66.285156 104.980469 64.5 C 104.027344 63.292969 104.980469 62.03125 104.980469 60.792969 C 104.921875 59.941406 105.421875 59.847656 105.800781 60.792969 C 106.765625 63.648438 106.554688 67.410156 105.992188 70.789062 L 107.320312 70.789062 L 107.3125 59.988281 C 107.195312 59.164062 106.882812 58.433594 106.214844 57.507812 C 105.179688 55.988281 105.453125 55.304688 106.214844 55.863281 C 106.609375 56.117188 106.988281 56.753906 107.320312 57.585938 Z M 105.875 58.199219 C 106.117188 59.085938 106.082031 59.835938 105.800781 59.976562 C 105.542969 60.085938 105.292969 59.828125 105.167969 59.414062 C 104.699219 57.679688 104.671875 57.191406 104.324219 55.902344 C 103.9375 54.515625 105.429688 56.835938 105.875 58.199219 Z M 102.691406 41.953125 C 102.59375 43.253906 102.007812 41.457031 101.285156 41.0625 C 100.8125 40.632812 100.496094 40.429688 101.113281 39.972656 C 101.414062 39.632812 101.285156 39.277344 101.285156 39.003906 C 101.433594 38.148438 102.234375 38.148438 102.511719 39.003906 C 102.691406 39.53125 102.976562 39.6875 103.347656 40.070312 C 103.972656 40.53125 103.667969 40.53125 103.027344 40.949219 C 102.894531 41.070312 102.691406 41.457031 102.691406 41.953125 Z M 105.800781 45.996094 C 105.371094 46.929688 104.828125 46.511719 104.570312 45.996094 C 104.21875 45.230469 104.738281 44.546875 103.75 43.9375 C 103.027344 43.449219 102.59375 43.050781 103.335938 43.117188 C 103.472656 43.117188 103.605469 43.203125 103.75 43.117188 C 103.859375 43.003906 103.75 42.84375 103.75 42.703125 C 103.535156 41.449219 105.25 43.171875 105.800781 43.9375 C 106.191406 44.292969 106.410156 45.269531 105.800781 45.996094 Z M 102.214844 32.476562 L 99.671875 32.476562 C 101.601562 33.914062 103.308594 35.566406 104.570312 37.359375 C 105.609375 38.832031 106.253906 40.492188 107.320312 41.820312 L 107.320312 39.078125 C 105.746094 36.886719 104.097656 34.792969 102.515625 32.835938 C 102.371094 32.679688 102.273438 32.5625 102.214844 32.476562 Z M 102.613281 32.476562 C 103.96875 33.175781 105.652344 34.890625 107.320312 36.949219 L 107.320312 34.425781 C 106.191406 33.988281 105.214844 33.289062 104.308594 32.472656 L 102.613281 32.472656 Z M 100.871094 55.863281 C 100.296875 55.167969 101.683594 54.722656 101.285156 53.398438 C 100.832031 51.714844 99.769531 48.640625 98.816406 46.820312 C 90.988281 31.859375 64.703125 27.445312 51.578125 40.648438 C 51.3125 40.929688 50.957031 41.324219 50.308594 40.8125 C 48.972656 39.410156 46.117188 44.433594 45.695312 47.792969 C 45.648438 50.984375 45.246094 52.539062 46.648438 54.222656 C 46.785156 54.359375 46.875 54.449219 47.09375 54.59375 C 48.492188 55.449219 47.457031 52.847656 48.703125 52.988281 C 49.351562 53.1875 50.789062 53.753906 51.988281 53.398438 C 52.5625 53.226562 53.46875 51.851562 54.453125 52.160156 C 56.929688 52.746094 61.207031 52.382812 65.761719 50.886719 C 68.582031 50.125 70.402344 50.125 72.050781 50.675781 C 72.910156 50.902344 73.015625 51.808594 72.910156 52.605469 C 72.023438 58.558594 67.332031 56.625 64.492188 60.308594 C 63.324219 61.617188 62.980469 59.308594 61.503906 59.484375 C 60.878906 59.617188 60.914062 60.136719 59.679688 60.613281 C 55.65625 61.90625 49.496094 62.449219 45.414062 60.796875 C 43.800781 60.210938 42.578125 59.507812 42.128906 57.507812 C 41.621094 55.328125 41.121094 52.546875 41.308594 50.933594 C 41.460938 49.589844 43.664062 48.316406 44.183594 47.234375 C 47.894531 39.511719 54.375 35.371094 62.328125 32.476562 L 58.320312 32.476562 C 52.722656 35.191406 48.003906 38.785156 45.414062 42.292969 C 41.042969 48.21875 37.585938 55.367188 42.578125 60.6875 C 45.394531 62.953125 55.664062 64.804688 60.203125 61.210938 C 61.296875 60.308594 62.25 60.367188 62.324219 61.0625 C 62.355469 61.472656 62.289062 62.03125 61.363281 62.339844 C 58.613281 63.574219 55.613281 64.277344 49.847656 64.125 C 48.648438 64.226562 48.578125 64.8125 50.296875 64.914062 C 62.59375 65.761719 70.8125 59.242188 73.628906 53.769531 C 74.417969 52.292969 74.902344 50.296875 73.148438 49.542969 C 69.152344 47.929688 64.488281 48.574219 59.058594 50.984375 C 57.789062 51.566406 56.414062 51.601562 55.683594 51.339844 C 54.832031 51.15625 55.3125 50.367188 56.09375 50.109375 C 58.695312 49.148438 59.550781 48.777344 62.152344 47.816406 C 64.898438 47.273438 67.03125 48.199219 69.242188 47.640625 C 72.839844 47.167969 77.097656 48.644531 76.171875 50.160156 C 74.882812 51.976562 76.003906 54.375 74.578125 56.6875 C 73.925781 57.75 72.019531 57.828125 71.292969 58.746094 C 70.671875 59.550781 71.191406 60.136719 70.636719 60.925781 C 69.957031 61.925781 67.398438 62.632812 66.363281 63.265625 C 65.277344 63.78125 65.863281 64.191406 66.773438 64.089844 C 71.34375 63.90625 78.5625 57.105469 76.746094 51.972656 C 76.277344 50.410156 76.863281 50.179688 77.367188 50.0625 C 78.253906 49.855469 78.339844 50.683594 78.277344 52.160156 C 78.074219 63.589844 66.292969 67.992188 56.1875 70.789062 L 63.261719 70.789062 C 64.164062 70.109375 64.898438 69.328125 65.539062 69.023438 C 70.660156 66.621094 75.039062 64.125 77.863281 59.566406 C 78.71875 58.191406 79.316406 55.59375 79.386719 54.035156 C 79.625 48.890625 77.09375 46.90625 75.109375 46.828125 C 73.773438 46.730469 73.582031 46.136719 72.933594 45.996094 C 70.738281 45.527344 69.898438 47.0625 66.976562 46.984375 C 66.085938 46.90625 65.773438 46.753906 65.539062 46.402344 C 65.265625 45.929688 65.460938 45.464844 66.121094 45.15625 C 69.625 43.671875 69.152344 45.773438 72.933594 44.757812 C 75.695312 43.90625 80.152344 48.078125 80.738281 51.339844 C 81.023438 52.984375 79.851562 57.257812 79.09375 58.746094 C 75.304688 66.210938 72.746094 67.300781 66.0625 70.789062 L 70.503906 70.789062 C 71.183594 70.703125 71.855469 70.589844 72.527344 70.257812 C 73.335938 69.796875 73.519531 68.433594 74.171875 67.792969 C 78.144531 63.835938 81.601562 61.136719 81.5625 52.988281 C 81.617188 51.949219 81.789062 51 82.371094 51.980469 C 82.632812 52.429688 82.714844 52.707031 82.796875 53.398438 C 82.972656 54.699219 83.382812 56.351562 82.738281 59.582031 C 82.246094 62.410156 78.957031 66.636719 74.5625 70.789062 L 76.671875 70.789062 C 78.574219 68.792969 80.214844 66.789062 81.5625 64.910156 C 87.691406 56.34375 81.78125 46.886719 75.996094 42.875 C 74.921875 42.191406 75.167969 41.535156 76.058594 41.550781 C 76.738281 41.601562 77.496094 41.667969 78.277344 42.292969 C 79.566406 43.222656 78.390625 44.417969 79.917969 45.582031 C 89.265625 52.714844 85.273438 63.175781 79.089844 70.789062 L 81.582031 70.789062 C 86.449219 62.582031 90.214844 50.632812 80.738281 43.9375 C 79.820312 43.316406 79.742188 42.949219 80.738281 43.113281 C 87.164062 44.277344 86.738281 50.589844 88.132812 57.097656 C 88.234375 57.550781 88.953125 59.304688 88.546875 60.386719 C 87.230469 63.882812 85.621094 67.472656 83.652344 70.789062 L 85.226562 70.789062 C 87.28125 67.015625 87.726562 64.160156 87.859375 63.464844 C 87.96875 62.574219 88.429688 62.25 88.957031 63.265625 C 89.972656 65.058594 87.121094 68.0625 86.492188 69.433594 C 86.28125 69.898438 86.121094 70.34375 85.980469 70.789062 L 87.929688 70.789062 C 88.089844 70.226562 88.277344 69.644531 88.546875 69.023438 C 90 65.667969 90.945312 55.128906 88.683594 51.296875 C 88.21875 50.378906 87.988281 49.660156 88.386719 49.195312 C 88.625 48.988281 89.039062 48.796875 89.433594 49.386719 C 91.90625 54.78125 92.78125 63.144531 90.601562 69.433594 C 90.441406 69.894531 90.242188 70.339844 90.011719 70.789062 L 91.40625 70.789062 C 92.222656 68.265625 92.695312 65.539062 92.65625 63.675781 C 92.601562 62.503906 93.527344 62.488281 93.886719 63.675781 C 94.191406 64.8125 93.5625 66.605469 94.296875 67.792969 C 94.542969 68.101562 94.992188 68.085938 95.292969 67.085938 C 97.425781 61.8125 96.632812 54.027344 93.628906 50.226562 C 93.304688 49.746094 93.304688 49.386719 93.0625 48.871094 C 92.804688 48.457031 92.230469 48.523438 92.421875 50.003906 C 93.164062 54.820312 94.332031 55.5 94.621094 61.609375 C 94.730469 63.207031 92.953125 62.332031 93.0625 61.347656 C 93.042969 56.554688 93.058594 52.054688 90.863281 49.179688 C 90.5 48.664062 90.257812 48.164062 89.980469 47.890625 C 89.023438 47.152344 88.488281 48.457031 88.09375 47.597656 C 86.050781 43.640625 83.238281 43.996094 79.511719 40.71875 C 79.304688 40.550781 79.136719 40.382812 79 40.246094 C 78.746094 40.03125 78.515625 39.71875 79.507812 39.824219 C 84.359375 40.285156 88.488281 44.207031 90.621094 47.511719 C 91.082031 48.148438 91.816406 48.761719 92.320312 48.128906 C 92.75 47.476562 92.390625 46.945312 91.957031 46.652344 C 86.976562 43.691406 85.550781 39.339844 78.277344 38.59375 C 77 38.472656 78.667969 40.277344 77.316406 40.050781 C 75.097656 39.835938 75.578125 39.085938 74.578125 37.769531 C 74.378906 37.410156 74.617188 37.351562 74.992188 37.359375 C 88.238281 38.132812 94.242188 44.878906 97.175781 55.863281 C 98.519531 60.925781 96.632812 65.9375 96.078125 70.789062 L 97.769531 70.789062 C 102.210938 54.957031 94.523438 41.085938 82.878906 37.078125 C 80.832031 36.484375 81.070312 35.320312 82.332031 35.484375 C 94.523438 38.5 102.417969 51.953125 99.222656 66.96875 C 98.847656 68.324219 99.746094 68.769531 99.222656 70.667969 C 99.214844 70.707031 99.203125 70.746094 99.191406 70.789062 L 100.617188 70.789062 C 100.75 69.777344 100.835938 68.777344 100.867188 67.792969 L 100.867188 58.332031 C 100.867188 57.582031 101.054688 57.632812 101.28125 58.332031 C 102.492188 61.796875 102.503906 66.191406 101.71875 70.789062 L 102.386719 70.789062 C 103.320312 66.386719 104.054688 60.542969 102.511719 57.097656 C 102.242188 56.28125 101.332031 56.425781 100.871094 55.863281 Z M 70.882812 34.480469 C 71.726562 34.152344 72.105469 34.269531 72.53125 34.480469 C 73.304688 35.171875 73.1875 36.152344 72.527344 36.273438 C 71.808594 36.410156 71.132812 36.210938 70.710938 35.792969 C 70.054688 35.367188 70.40625 34.59375 70.882812 34.480469 Z M 74.175781 39.417969 C 74.410156 39.59375 74.285156 39.71875 74.175781 39.824219 C 73.847656 40.113281 73.351562 40.09375 72.9375 39.824219 C 72.453125 39.476562 72.453125 38.972656 72.9375 39.003906 C 73.546875 38.972656 73.90625 39.171875 74.175781 39.417969 Z M 72.117188 39.417969 C 71.976562 39.550781 71.449219 39.875 70.949219 39.828125 C 69.058594 39.800781 69.328125 39.613281 68.550781 39.433594 C 67.351562 38.929688 67.253906 38.734375 67.050781 38.492188 C 66.507812 37.566406 67.285156 37.132812 68.433594 37.273438 C 69.390625 37.273438 70.066406 37.292969 71.265625 37.472656 C 71.761719 37.570312 72.191406 38.019531 72.328125 38.429688 C 72.464844 38.566406 72.269531 39.210938 72.117188 39.417969 Z M 47.878906 48.054688 C 47.445312 49.359375 48.054688 50.628906 47.496094 51.53125 C 47.316406 51.746094 47.210938 52.011719 47.375 52.492188 C 47.835938 53.847656 46.78125 52.992188 46.648438 52.160156 C 46.195312 49.574219 47.558594 47.824219 47.09375 45.792969 C 46.816406 44.589844 47.824219 45.167969 49.171875 42.851562 C 49.914062 41.890625 50.871094 41.8125 50.757812 42.292969 C 50.429688 44.773438 48.550781 46.054688 47.878906 48.054688 Z M 56.09375 46.402344 C 55.601562 47.117188 55.335938 49.617188 54.453125 50.519531 C 53.722656 51.265625 52.984375 50.894531 51.578125 52.160156 C 50.6875 52.789062 48.953125 52.511719 49.117188 51.753906 C 49.210938 48.441406 52.277344 42.441406 54.042969 40.648438 C 55.214844 39.460938 56.457031 39.425781 57.527344 38.109375 C 58.042969 37.511719 58.601562 38.089844 59.382812 37.769531 C 60.324219 37.234375 59.167969 36.390625 60.363281 36.234375 C 64.601562 35.707031 64.199219 34.761719 68.03125 34.613281 C 69.710938 34.511719 69.507812 35.449219 68.171875 35.890625 C 66.25 36.613281 64.792969 36.425781 62.671875 37.359375 C 61.679688 37.890625 62.355469 39.03125 60.613281 39.414062 C 59.042969 39.769531 58.261719 39.308594 56.917969 40.238281 C 53.796875 42.253906 53.71875 47.847656 50.632812 50.007812 C 50.351562 50.273438 49.957031 50.46875 50.050781 50.851562 C 50.210938 51.046875 50.453125 51.03125 50.757812 50.929688 C 53.21875 50 53.226562 48.199219 54.453125 45.996094 C 55.796875 43.585938 60.164062 40.632812 63.082031 39.824219 C 64.277344 39.339844 63.488281 40.667969 65.132812 40.238281 C 65.632812 40.109375 65.890625 39.507812 67.1875 39.414062 C 68.234375 39.328125 68.472656 40.429688 67.1875 40.648438 C 62.851562 41.722656 58.289062 43.246094 56.09375 46.402344 Z M 69.195312 43.597656 C 64.109375 43.597656 61.417969 45.640625 58.5625 48.054688 C 58.183594 48.390625 57.753906 48.582031 57.601562 48.273438 C 57.175781 47.84375 57.621094 46.8125 57.753906 46.671875 C 60.480469 42.96875 64.519531 41.796875 68.84375 41.613281 C 70.949219 41.496094 71.03125 43.480469 69.195312 43.597656 Z M 74.53125 42.113281 C 73.441406 42.5 73.816406 42.765625 73.367188 43.054688 C 72.859375 43.285156 72.195312 43.398438 71.84375 43.285156 C 70.890625 43.136719 70.636719 42.308594 70.949219 41.765625 C 71.148438 41.433594 71.441406 41.308594 71.691406 41.21875 C 72.972656 40.75 73.164062 41.308594 74.394531 41.449219 C 74.941406 41.519531 75.074219 41.953125 74.53125 42.113281 Z M 75.40625 35.71875 C 74.246094 37.335938 73.253906 36.910156 73.351562 35.300781 C 73.453125 34.359375 74.363281 34.253906 75.121094 34.863281 C 75.257812 34.996094 75.65625 35.4375 75.40625 35.71875 Z M 78.335938 36.269531 C 77.972656 36.996094 76.742188 36.851562 76.226562 36.125 C 75.804688 35.496094 75.898438 34.9375 76.121094 34.800781 C 76.257812 34.664062 76.667969 34.542969 76.851562 34.542969 C 77.183594 34.527344 77.425781 34.585938 77.867188 34.894531 C 78.367188 35.347656 78.484375 35.738281 78.335938 36.269531 Z M 80.199219 35.726562 C 79.378906 35.542969 79.410156 35.320312 79.097656 34.894531 C 78.792969 34.480469 78.972656 34.074219 80.152344 34.464844 C 80.652344 34.605469 80.804688 35.011719 80.847656 35.300781 C 80.867188 35.480469 80.730469 35.847656 80.199219 35.726562 Z M 107.226562 32.476562 L 105.84375 32.476562 C 106.320312 32.859375 106.804688 33.222656 107.320312 33.570312 L 107.320312 32.5625 C 107.285156 32.535156 107.257812 32.503906 107.226562 32.476562 Z M 35.96875 44.761719 C 35.691406 45.148438 36.011719 45.488281 36.542969 45.183594 C 38.566406 43.621094 41.308594 38.628906 43.769531 36.539062 C 45.0625 35.441406 47.09375 33.996094 49.546875 32.476562 L 47.113281 32.476562 C 45.480469 33.554688 43.949219 34.648438 42.542969 35.71875 C 39.539062 37.984375 38.488281 42.007812 35.96875 44.761719 Z M 36.011719 34.109375 C 37.78125 33.8125 39.242188 33.226562 40.539062 32.476562 L 37.402344 32.476562 C 36.878906 32.734375 36.355469 33.003906 35.84375 33.3125 C 35.15625 33.796875 35.375 34.277344 36.011719 34.109375 Z M 38.433594 36.539062 C 38.277344 36.695312 38.128906 36.941406 38.433594 36.949219 C 40.53125 36.492188 43.015625 34.542969 45.433594 32.476562 L 42.671875 32.476562 C 41.132812 33.832031 39.699219 35.210938 38.433594 36.539062 Z M 18.339844 36.734375 C 15.445312 38.851562 13.214844 39.886719 9.675781 41.472656 C 8.652344 41.9375 9.097656 43.253906 10.085938 43.117188 C 12.40625 42.609375 13.371094 40.917969 15.019531 39.824219 C 16.625 38.761719 18.425781 38.527344 19.945312 37.359375 C 21.253906 36.355469 22.035156 34.386719 23.230469 33.246094 C 23.449219 33.042969 23.765625 32.777344 24.152344 32.476562 L 22.261719 32.476562 C 21.527344 33.164062 20.863281 33.851562 20.355469 34.480469 C 19.679688 35.226562 19.75 35.769531 18.339844 36.734375 Z M 14.609375 33.660156 C 15.726562 32.921875 18.152344 33.109375 19.429688 32.476562 L 14.832031 32.476562 C 12.84375 33.152344 10.855469 33.640625 8.976562 34.382812 L 8.976562 36.332031 C 10.484375 35.902344 11.640625 36.257812 13.308594 35.25 C 13.804688 34.96875 13.988281 34.078125 14.609375 33.660156 Z M 12.550781 46.402344 C 15.023438 45.070312 18.605469 40.726562 21.179688 39.003906 C 22.304688 38.25 23.894531 38.261719 24.875 37.359375 C 25.984375 36.34375 26.515625 34.566406 27.75 33.660156 C 28.199219 33.328125 28.886719 32.929688 29.667969 32.472656 L 26.917969 32.472656 C 26.570312 33.035156 26.890625 33.433594 26.105469 34.066406 C 23.648438 36.125 20.902344 37.492188 18.304688 39.414062 C 16.058594 40.902344 15.515625 42.765625 14.195312 43.527344 C 13.449219 44.167969 11.28125 44.945312 8.976562 45.976562 L 8.976562 47.558594 C 9.195312 47.433594 9.414062 47.308594 9.660156 47.1875 C 10.625 46.621094 11.636719 47 12.550781 46.402344 Z M 18.410156 33.53125 C 16.003906 36.113281 12.605469 37.570312 8.976562 38.824219 L 8.976562 40.496094 C 12.929688 38.9375 16.53125 35.949219 19.535156 34.070312 C 21.070312 32.96875 19.234375 32.800781 18.410156 33.53125 Z M 33.65625 34.832031 C 31.351562 38.574219 22.882812 44.390625 18.714844 46.402344 C 17.707031 46.738281 17.515625 47.894531 18.714844 47.640625 C 19.972656 47.273438 21.371094 46.542969 22.820312 45.605469 L 22.820312 45.582031 C 22.824219 45.589844 22.835938 45.589844 22.835938 45.597656 C 27.277344 42.722656 32.214844 37.886719 35.148438 35.300781 C 36.175781 34.449219 34.324219 33.972656 33.65625 34.832031 Z M 38.433594 35.300781 C 38.617188 34.75 38.261719 34.523438 37.609375 34.480469 C 37.015625 34.457031 36.332031 35.117188 36.789062 35.71875 C 37.289062 36.117188 38.167969 35.992188 38.433594 35.300781 Z M 34.199219 37.070312 C 33.878906 38.082031 33.742188 37.96875 33.09375 38.59375 C 32.84375 38.859375 32.675781 39.199219 33.09375 39.414062 C 33.617188 39.695312 35.011719 39.28125 35.558594 38.179688 C 35.796875 37.675781 35.925781 37.433594 35.96875 36.949219 C 36.078125 36.011719 34.433594 36.164062 34.199219 37.070312 Z M 35.925781 39.101562 C 35.5 40.449219 36.265625 40.285156 35.472656 41.144531 C 35.171875 41.480469 35.292969 41.765625 35.558594 41.882812 C 36.652344 42.222656 38.121094 41.300781 38.023438 40.238281 C 38.066406 39.199219 38.074219 38.714844 38.433594 38.179688 C 38.910156 37.53125 37.84375 37.207031 37.191406 37.394531 C 36.597656 37.65625 36.171875 38.117188 35.925781 39.101562 Z M 59.484375 38.472656 C 59.90625 38.800781 60.066406 38.847656 60.664062 38.75 C 61.300781 38.472656 61.757812 37.929688 60.839844 37.449219 C 60.242188 37.214844 60.238281 37.617188 59.382812 37.769531 C 59.003906 38.011719 59.261719 38.1875 59.484375 38.472656 Z M 30.734375 40.480469 C 29.539062 42.035156 28.050781 42.375 26.929688 43.9375 C 24.34375 47.558594 22.796875 51.097656 19.214844 53.636719 C 17.683594 54.554688 18.511719 56.019531 19.125 56.6875 C 19.265625 56.828125 19.988281 57.027344 20.621094 55.664062 C 22.414062 50.992188 22.296875 52.335938 25.285156 49.285156 C 26.273438 48.28125 26.03125 46.753906 26.929688 45.582031 C 28.324219 43.78125 30.613281 43.566406 31.652344 41.421875 C 31.90625 40.808594 32.355469 40.785156 32.730469 40.527344 C 34.476562 39.601562 31.558594 38.808594 30.734375 40.480469 Z M 34.324219 40.238281 C 33.320312 41.691406 29.113281 44.550781 29.804688 45.996094 C 29.984375 46.175781 30.03125 46.28125 30.433594 46.175781 C 32.890625 45.289062 32.835938 42.480469 34.738281 41.0625 C 36.050781 39.9375 34.828125 39.398438 34.324219 40.238281 Z M 35.558594 43.9375 C 36.28125 43.574219 36.675781 42.480469 35.757812 42.285156 C 35.574219 42.253906 34.984375 42.0625 34.707031 42.535156 C 34.339844 43.203125 33.746094 42.410156 33.4375 43.433594 C 33.339844 43.621094 33.328125 43.796875 33.195312 44.046875 C 33.035156 44.382812 33.355469 44.722656 33.503906 44.761719 C 34.445312 45.015625 34.695312 44.398438 35.558594 43.9375 Z M 35.558594 52.578125 C 36.414062 50.292969 37.109375 47.410156 38.839844 45.996094 C 39.304688 45.574219 39.804688 44.210938 38.90625 44.652344 C 38.464844 44.898438 38.105469 45.09375 37.6875 45.550781 C 36.550781 46.589844 34.691406 50.550781 34.527344 51.96875 C 34.371094 53.171875 35.289062 53.429688 35.558594 52.578125 Z M 33.164062 46.792969 C 34.003906 45.992188 33.496094 45.476562 32.683594 45.582031 C 31.824219 45.753906 31.773438 46.746094 32.269531 47.234375 C 32.585938 47.433594 33.023438 46.929688 33.164062 46.792969 Z M 31.859375 55.042969 C 31.507812 51.679688 36.285156 49.101562 35.222656 46.492188 C 34.890625 45.753906 30.84375 51.769531 30.996094 54.277344 C 31.199219 59.859375 33.355469 62.285156 35.488281 65.859375 C 36.074219 66.914062 36.730469 66.6875 36.605469 65.761719 C 35.851562 61.828125 32.347656 59.726562 31.859375 55.042969 Z M 29.441406 48.390625 C 29.675781 47.871094 30.054688 47.492188 29.9375 47 C 29.765625 46.671875 29.582031 46.621094 29.042969 46.769531 C 25.089844 47.816406 26.671875 53.058594 24.464844 55.863281 C 24.074219 56.359375 22.765625 55.824219 22.820312 57.097656 C 22.957031 58.746094 23.097656 60.390625 23.230469 62.035156 C 23.351562 62.679688 24.527344 62.796875 24.464844 62.035156 C 24.234375 60.128906 24.230469 59.007812 24.464844 57.097656 C 24.574219 56.484375 25.046875 56.558594 25.285156 57.507812 C 25.398438 58.109375 27.230469 58.089844 26.929688 57.097656 C 26.453125 55.570312 25.375 56.394531 25.699219 55.453125 C 26.546875 52.863281 28.457031 50.707031 29.441406 48.390625 Z M 32.269531 47.640625 C 32.042969 47.492188 31.707031 47.402344 31.101562 47.679688 C 30.957031 47.738281 30.71875 47.914062 30.578125 48.070312 C 30.191406 48.539062 29.867188 49.4375 30.625 49.695312 C 31.042969 49.828125 31.636719 49.375 32.363281 48.980469 C 32.8125 48.722656 32.878906 48.039062 32.269531 47.640625 Z M 18.304688 48.054688 C 15.535156 48.621094 12.359375 51.160156 10.085938 52.578125 C 9.121094 53.238281 9.664062 53.921875 10.085938 53.808594 C 13.78125 53.199219 15.585938 50.503906 18.304688 48.875 C 18.742188 48.597656 19.019531 48.054688 18.304688 48.054688 Z M 20.769531 50.109375 C 22.199219 49.234375 21.871094 48.226562 20.769531 48.875 C 18.261719 50.210938 16.859375 52.820312 14.609375 54.222656 C 12.613281 55.460938 10.941406 56.292969 8.976562 56.8125 L 8.976562 58.183594 C 12.183594 57.242188 15.023438 55.644531 17.894531 53.398438 C 19.023438 52.511719 19.464844 50.984375 20.769531 50.109375 Z M 30.214844 50.519531 C 29.5 50.632812 28.984375 50.964844 28.574219 51.339844 C 28.136719 51.746094 27.652344 52.53125 28.574219 52.988281 C 29.003906 53.125 29.257812 53.074219 29.675781 52.957031 C 29.929688 52.878906 30.433594 52.609375 30.5625 52.472656 C 31.316406 51.738281 31.164062 50.265625 30.214844 50.519531 Z M 53.082031 58.761719 C 50.402344 58.796875 48.972656 58.695312 47.472656 57.507812 C 44.460938 55.515625 44.21875 49.046875 43.363281 50.519531 C 42.8125 52.144531 43.101562 55.789062 44.183594 57.097656 C 47.585938 61.902344 62.347656 59.003906 67.480469 56.664062 C 69.183594 55.910156 70.84375 54.800781 71.707031 53.398438 C 72.222656 52.257812 71.398438 51.433594 69.40625 51.601562 C 63.339844 52.429688 60.671875 55.320312 54.082031 53.945312 C 53.183594 53.769531 52.808594 53.5625 52.398438 54.21875 C 52.398438 54.492188 52.054688 54.90625 54.082031 55.28125 C 60.441406 56.523438 63.390625 54.910156 68.582031 52.804688 C 69.886719 52.1875 70.640625 52.738281 69.78125 53.601562 C 67.789062 55.457031 60.929688 58.050781 56.832031 57.761719 C 55.070312 57.636719 52.636719 56.589844 51.226562 55.523438 C 49.925781 54.699219 47.859375 54.460938 48.71875 56.109375 C 49.886719 57.703125 51.332031 57.695312 53.941406 58.105469 C 55.003906 58.316406 55.625 58.828125 53.082031 58.761719 Z M 25.285156 51.753906 C 25.796875 51.070312 24.429688 50.550781 24.054688 51.339844 C 23.296875 52.539062 22.515625 54.28125 21.589844 55.453125 C 21.492188 55.664062 21.398438 55.824219 21.515625 56.113281 C 21.65625 56.472656 22.222656 56.277344 22.410156 55.863281 C 23.25 54.359375 24.082031 52.886719 25.285156 51.753906 Z M 33.914062 53.398438 C 33.050781 52.925781 34.308594 56.070312 34.738281 57.507812 C 36.640625 63.9375 37.191406 64.859375 43.363281 66.96875 C 44.8125 67.457031 48.292969 68.480469 49.933594 67.378906 C 50.660156 66.707031 51.964844 67.546875 53.222656 67.378906 C 53.789062 67.257812 54.132812 66.808594 53.222656 66.554688 C 46.785156 65.441406 40.34375 66.808594 36.792969 61.625 C 35.363281 59.542969 35.882812 54.949219 33.914062 53.398438 Z M 28.164062 54.632812 C 26.746094 61.222656 31.894531 64.886719 35.148438 69.023438 C 35.660156 69.714844 36.140625 69.886719 35.96875 69.023438 C 35.382812 66.425781 33.539062 66.621094 32.269531 64.910156 C 30.535156 62.578125 28.972656 58.113281 29.394531 55.042969 C 29.511719 53.847656 28.511719 53.585938 28.164062 54.632812 Z M 38.433594 55.042969 C 38.222656 56.070312 38.308594 56.273438 38.425781 56.886719 C 38.695312 57.734375 39.621094 57.628906 39.667969 56.6875 C 39.667969 55.230469 38.664062 54.113281 38.433594 55.042969 Z M 17.070312 56.277344 C 17.285156 55.996094 17.277344 55.402344 17.140625 55.402344 C 15.988281 55.003906 12.550781 59.882812 11.730469 60.390625 C 11.054688 60.804688 9.835938 60.761719 8.976562 60.992188 L 8.976562 62.355469 C 13.214844 61.820312 15.515625 59.566406 17.070312 56.277344 Z M 16.582031 63.734375 C 17.414062 62.109375 19.398438 56.648438 18.109375 58.109375 C 17.121094 59.753906 16.660156 60.882812 15.433594 62.449219 C 14.742188 63.148438 14.90625 63.757812 15.433594 64.089844 C 15.636719 64.300781 16.246094 64.394531 16.582031 63.734375 Z M 21.140625 63.621094 C 21.351562 64.117188 21.636719 64.472656 21.773438 64.613281 C 22.054688 65.054688 22.453125 65.316406 22.414062 64.910156 C 21.785156 62.285156 21.199219 60.972656 21.589844 57.921875 C 21.589844 56.792969 20.414062 56.886719 20.355469 57.921875 C 20.425781 60.984375 19.839844 60.75 21.140625 63.621094 Z M 26.519531 59.976562 L 26.519531 59.152344 C 26.480469 58.183594 25.679688 58.460938 25.699219 59.152344 C 26.058594 63.09375 28.328125 66.878906 30.625 69.023438 C 30.914062 69.304688 32.003906 70.027344 31.859375 69.4375 C 31.308594 66.8125 28.9375 65.699219 27.75 63.679688 C 27.160156 62.75 26.503906 61.480469 26.519531 59.976562 Z M 25.238281 63.070312 C 25.183594 62.464844 24.476562 62.375 24.417969 63.070312 C 24.460938 64.660156 24.246094 64.757812 24.972656 65.550781 C 25.183594 65.804688 25.238281 66.222656 25.238281 66.355469 C 25.089844 66.753906 25.75 67.078125 25.652344 66.355469 C 25.515625 65.265625 25.378906 64.164062 25.238281 63.070312 Z M 13.789062 63.679688 C 12.199219 62.90625 11.511719 64.164062 8.976562 64.183594 L 8.976562 65.660156 C 11.039062 65.9375 12.265625 64.914062 13.945312 66.257812 C 14.410156 66.65625 14.933594 66.515625 15.019531 66.148438 C 15.1875 65.007812 14.507812 64.019531 13.789062 63.679688 Z M 64.3125 64.503906 C 64.246094 63.457031 62.113281 65.316406 61.027344 65.734375 C 59.292969 66.390625 56.195312 65.878906 54.78125 66.140625 C 54.304688 66.25 53.664062 66.808594 54.453125 66.96875 C 55.507812 67.015625 55.695312 66.84375 56.484375 66.707031 C 57.410156 66.53125 58.191406 66.554688 58.5625 66.554688 C 59.609375 66.515625 59.046875 67.078125 58.441406 67.414062 C 53.957031 69.804688 40.585938 69.636719 37.609375 66.554688 C 37.324219 66.207031 36.761719 66.199219 36.828125 66.808594 C 37.023438 67.835938 37.398438 69.164062 39.441406 69.628906 C 45.84375 71.074219 63.035156 70.539062 64.3125 64.503906 Z M 16.660156 65.324219 C 15.542969 65.058594 15.5625 66.304688 16.253906 66.96875 C 17.519531 68.242188 18.792969 69.515625 20.066406 70.789062 L 21.4375 70.789062 C 20.660156 69.488281 17.363281 65.605469 16.660156 65.324219 Z M 12.859375 66.863281 C 12.535156 66.554688 11.804688 66.5625 11.320312 66.96875 C 10.980469 67.21875 10.863281 67.597656 11.320312 68.203125 C 11.460938 68.339844 11.59375 68.476562 11.730469 68.613281 C 12.203125 69.007812 13.097656 69.175781 13.789062 68.613281 C 14.15625 68.070312 13.523438 67.386719 12.859375 66.863281 Z M 29.394531 69.847656 C 28.15625 69.003906 27.6875 67.914062 26.105469 67.378906 C 24.628906 66.996094 27.234375 69.34375 28.164062 70.667969 C 28.203125 70.710938 28.246094 70.753906 28.296875 70.789062 L 29.246094 70.789062 C 29.296875 70.753906 29.34375 70.710938 29.390625 70.667969 C 29.683594 70.457031 29.765625 70.109375 29.394531 69.847656 Z M 13.042969 70.789062 C 11.464844 70.027344 10.171875 69.207031 8.976562 68.230469 L 8.976562 70.789062 Z M 16.859375 70.789062 L 17.90625 70.789062 C 17.296875 70.40625 16.667969 70.023438 16.011719 69.648438 C 14.53125 68.890625 15.449219 69.6875 16.859375 70.789062 Z M 93.480469 69.4375 C 93.296875 69.894531 93.101562 70.34375 92.90625 70.789062 L 94.433594 70.789062 C 94.347656 70.414062 94.289062 69.980469 94.300781 69.4375 C 94.386719 68.273438 93.835938 68.359375 93.480469 69.4375 Z M 93.480469 69.4375 "/>
    <path style=" stroke:none;fill-rule:nonzero;fill:rgb(0.784314%,37.254902%,64.705882%);fill-opacity:1;" d="M 8.953125 8.980469 L 8.953125 29.09375 L 40.734375 29.09375 L 40.734375 8.980469 Z M 42.230469 8.980469 L 42.230469 29.09375 L 74.03125 29.09375 L 74.03125 8.980469 Z M 75.53125 8.980469 L 75.53125 29.09375 L 107.308594 29.09375 L 107.308594 8.980469 Z M 75.53125 8.980469 "/>
    <path style=" stroke:none;fill-rule:evenodd;fill:rgb(100%,100%,100%);fill-opacity:1;" d="M 14.003906 13.628906 L 13.984375 24.386719 L 21.953125 24.386719 L 21.953125 20.867188 L 23.570312 20.867188 L 27.695312 24.386719 L 36.019531 24.386719 L 30.769531 20.667969 L 30.988281 20.648438 C 32.679688 20.691406 34.304688 19.1875 34.300781 17.265625 C 34.300781 14.6875 32.382812 13.628906 30.632812 13.628906 Z M 68.171875 13.628906 L 47.695312 13.648438 L 47.695312 16.160156 L 53.730469 16.160156 L 53.730469 24.386719 L 62.214844 24.386719 L 62.234375 16.160156 L 68.171875 16.160156 Z M 81.03125 13.648438 L 81.03125 24.386719 L 101.824219 24.386719 L 101.824219 21.894531 L 90.144531 21.894531 L 90.144531 13.648438 Z M 21.953125 16.101562 L 25.601562 16.101562 C 26.332031 16.101562 26.746094 16.726562 26.746094 17.285156 C 26.746094 17.941406 26.308594 18.445312 25.683594 18.511719 L 21.953125 18.492188 Z M 21.953125 16.101562 "/>
  </g>
</svg>