<?xml version="1.0" encoding="UTF-8" standalone="yes"?>
<svg xmlns="http://www.w3.org/2000/svg" xmlns:xlink="http://www.w3.org/1999/xlink" width="408px" height="106.66666666666666px" viewBox="0 0 306 80" version="1.1">
  <g id="surface1">
    <path style=" stroke:none;fill-rule:nonzero;fill:rgb(74.901961%,18.431373%,21.568627%);fill-opacity:1;" d="M 48.214844 77.632812 L 92.234375 77.632812 L 92.234375 2.339844 L 17.691406 2.339844 L 17.691406 50.566406 L 48.214844 77.632812 "/>
    <path style=" stroke:none;fill-rule:nonzero;fill:rgb(74.901961%,18.431373%,21.568627%);fill-opacity:1;" d="M 2.796875 45.667969 L 3.113281 72.359375 L 32.914062 72.457031 L 2.796875 45.667969 "/>
    <path style=" stroke:none;fill-rule:nonzero;fill:rgb(100%,100%,100%);fill-opacity:1;" d="M 75.480469 40.492188 L 83.875 40.492188 L 83.875 71.296875 L 75.480469 71.296875 Z M 83.878906 40.492188 Z M 83.878906 35.734375 L 75.484375 35.734375 L 75.484375 28.773438 L 83.878906 28.773438 Z M 83.878906 35.734375 "/>
    <path style=" stroke:none;fill-rule:nonzero;fill:rgb(100%,100%,100%);fill-opacity:1;" d="M 58.210938 46.492188 C 56.9375 46.492188 55.863281 46.785156 55.007812 47.375 C 54.144531 47.957031 53.445312 48.714844 52.90625 49.648438 C 52.355469 50.574219 51.972656 51.601562 51.75 52.714844 C 51.523438 53.832031 51.417969 54.941406 51.417969 56.042969 C 51.417969 57.101562 51.523438 58.183594 51.75 59.285156 C 51.972656 60.382812 52.339844 61.375 52.847656 62.265625 C 53.355469 63.160156 54.035156 63.882812 54.890625 64.457031 C 55.757812 65.023438 56.804688 65.308594 58.042969 65.308594 C 59.949219 65.308594 61.417969 64.765625 62.449219 63.691406 C 63.480469 62.609375 64.128906 61.160156 64.386719 59.339844 L 72.089844 59.339844 C 71.5625 63.242188 70.058594 66.214844 67.589844 68.273438 C 65.121094 70.324219 61.953125 71.351562 58.101562 71.351562 C 55.921875 71.351562 53.925781 70.984375 52.105469 70.242188 C 50.292969 69.5 48.738281 68.464844 47.464844 67.132812 C 46.1875 65.808594 45.1875 64.226562 44.472656 62.382812 C 43.757812 60.542969 43.402344 58.515625 43.402344 56.316406 C 43.402344 54.042969 43.726562 51.925781 44.390625 49.964844 C 45.046875 48.015625 46.011719 46.324219 47.292969 44.898438 C 48.574219 43.476562 50.128906 42.367188 51.964844 41.566406 C 53.8125 40.773438 55.90625 40.375 58.269531 40.375 C 59.988281 40.375 61.644531 40.601562 63.242188 41.058594 C 64.828125 41.515625 66.25 42.207031 67.507812 43.132812 C 68.761719 44.066406 69.785156 45.226562 70.566406 46.609375 C 71.355469 48 71.804688 49.640625 71.914062 51.542969 L 64.105469 51.542969 C 63.582031 48.175781 61.617188 46.492188 58.210938 46.492188 "/>
    <path style=" stroke:none;fill-rule:nonzero;fill:rgb(42.745098%,43.137255%,43.921569%);fill-opacity:1;" d="M 106.113281 11.207031 C 105.390625 11.207031 104.792969 11.375 104.300781 11.707031 C 103.808594 12.042969 103.410156 12.464844 103.105469 12.992188 C 102.804688 13.515625 102.578125 14.101562 102.457031 14.734375 C 102.332031 15.367188 102.265625 15.992188 102.265625 16.617188 C 102.265625 17.214844 102.332031 17.824219 102.457031 18.449219 C 102.578125 19.074219 102.789062 19.632812 103.078125 20.140625 C 103.363281 20.640625 103.753906 21.058594 104.234375 21.382812 C 104.726562 21.699219 105.316406 21.859375 106.023438 21.859375 C 107.101562 21.859375 107.933594 21.558594 108.515625 20.941406 C 109.097656 20.332031 109.464844 19.515625 109.613281 18.484375 L 113.972656 18.484375 C 113.671875 20.691406 112.824219 22.375 111.425781 23.535156 C 110.023438 24.691406 108.234375 25.273438 106.046875 25.273438 C 104.816406 25.273438 103.6875 25.066406 102.664062 24.640625 C 101.632812 24.226562 100.75 23.640625 100.027344 22.890625 C 99.304688 22.132812 98.738281 21.242188 98.332031 20.199219 C 97.933594 19.160156 97.722656 18.015625 97.722656 16.773438 C 97.722656 15.484375 97.914062 14.285156 98.289062 13.183594 C 98.664062 12.074219 99.210938 11.125 99.9375 10.316406 C 100.660156 9.507812 101.539062 8.882812 102.578125 8.433594 C 103.621094 7.984375 104.808594 7.757812 106.148438 7.757812 C 107.121094 7.757812 108.058594 7.882812 108.957031 8.140625 C 109.863281 8.398438 110.671875 8.792969 111.378906 9.316406 C 112.085938 9.839844 112.667969 10.5 113.105469 11.285156 C 113.554688 12.066406 113.8125 13 113.871094 14.074219 L 109.457031 14.074219 C 109.15625 12.167969 108.042969 11.207031 106.113281 11.207031 "/>
    <path style=" stroke:none;fill-rule:nonzero;fill:rgb(42.745098%,43.137255%,43.921569%);fill-opacity:1;" d="M 120.132812 8.207031 L 120.132812 11.300781 L 120.191406 11.300781 C 120.398438 10.785156 120.683594 10.300781 121.046875 9.859375 C 121.40625 9.425781 121.8125 9.050781 122.285156 8.734375 C 122.753906 8.425781 123.25 8.183594 123.773438 8.007812 C 124.308594 7.839844 124.863281 7.75 125.429688 7.75 C 125.730469 7.75 126.054688 7.808594 126.417969 7.917969 L 126.417969 12.167969 C 126.210938 12.125 125.953125 12.082031 125.65625 12.050781 C 125.363281 12.023438 125.074219 12.007812 124.796875 12.007812 C 123.964844 12.007812 123.269531 12.140625 122.703125 12.425781 C 122.128906 12.699219 121.664062 13.082031 121.3125 13.566406 C 120.964844 14.050781 120.714844 14.617188 120.566406 15.257812 C 120.414062 15.898438 120.339844 16.601562 120.339844 17.351562 L 120.339844 24.851562 L 115.851562 24.851562 L 115.851562 8.207031 L 120.132812 8.207031 "/>
    <path style=" stroke:none;fill-rule:nonzero;fill:rgb(42.745098%,43.137255%,43.921569%);fill-opacity:1;" d="M 128.332031 8.214844 L 132.867188 8.214844 L 132.867188 24.847656 L 128.332031 24.847656 Z M 132.871094 8.214844 Z M 132.871094 5.648438 L 128.335938 5.648438 L 128.335938 1.902344 L 132.871094 1.902344 Z M 132.871094 5.648438 "/>
    <path style=" stroke:none;fill-rule:nonzero;fill:rgb(42.745098%,43.137255%,43.921569%);fill-opacity:1;" d="M 140.148438 8.214844 L 140.148438 10.464844 L 140.214844 10.464844 C 140.804688 9.609375 141.527344 8.941406 142.359375 8.464844 C 143.199219 7.992188 144.164062 7.75 145.253906 7.75 C 146.292969 7.75 147.242188 7.957031 148.105469 8.367188 C 148.960938 8.773438 149.617188 9.5 150.066406 10.535156 C 150.550781 9.800781 151.214844 9.148438 152.054688 8.589844 C 152.886719 8.035156 153.882812 7.75 155.023438 7.75 C 155.898438 7.75 156.695312 7.859375 157.445312 8.074219 C 158.183594 8.292969 158.816406 8.632812 159.347656 9.109375 C 159.871094 9.574219 160.296875 10.191406 160.585938 10.957031 C 160.886719 11.714844 161.027344 12.632812 161.027344 13.707031 L 161.027344 24.851562 L 156.496094 24.851562 L 156.496094 15.425781 C 156.496094 14.867188 156.472656 14.339844 156.429688 13.851562 C 156.386719 13.359375 156.269531 12.925781 156.089844 12.566406 C 155.890625 12.199219 155.613281 11.910156 155.25 11.699219 C 154.875 11.484375 154.375 11.375 153.742188 11.375 C 153.113281 11.375 152.597656 11.5 152.214844 11.742188 C 151.8125 11.992188 151.507812 12.308594 151.289062 12.707031 C 151.066406 13.109375 150.917969 13.558594 150.851562 14.058594 C 150.773438 14.566406 150.734375 15.074219 150.734375 15.582031 L 150.734375 24.851562 L 146.191406 24.851562 L 146.191406 15.523438 C 146.191406 15.023438 146.183594 14.542969 146.167969 14.058594 C 146.144531 13.574219 146.058594 13.132812 145.902344 12.726562 C 145.746094 12.316406 145.476562 11.992188 145.113281 11.742188 C 144.738281 11.5 144.199219 11.375 143.472656 11.375 C 143.265625 11.375 142.992188 11.425781 142.640625 11.515625 C 142.292969 11.617188 141.953125 11.800781 141.628906 12.066406 C 141.304688 12.332031 141.019531 12.714844 140.789062 13.226562 C 140.554688 13.726562 140.449219 14.382812 140.449219 15.199219 L 140.449219 24.851562 L 135.90625 24.851562 L 135.90625 8.214844 L 140.148438 8.214844 "/>
    <path style=" stroke:none;fill-rule:nonzero;fill:rgb(42.745098%,43.137255%,43.921569%);fill-opacity:1;" d="M 172.636719 12.109375 C 172.09375 11.507812 171.273438 11.207031 170.164062 11.207031 C 169.449219 11.207031 168.851562 11.332031 168.371094 11.574219 C 167.894531 11.824219 167.511719 12.132812 167.230469 12.492188 C 166.949219 12.859375 166.738281 13.242188 166.625 13.648438 C 166.507812 14.058594 166.441406 14.425781 166.414062 14.742188 L 173.765625 14.742188 C 173.550781 13.582031 173.175781 12.707031 172.636719 12.109375 Z M 167.53125 20.867188 C 168.210938 21.523438 169.183594 21.859375 170.457031 21.859375 C 171.371094 21.859375 172.152344 21.632812 172.808594 21.175781 C 173.46875 20.714844 173.875 20.226562 174.015625 19.707031 L 178 19.707031 C 177.359375 21.707031 176.386719 23.132812 175.070312 23.984375 C 173.757812 24.839844 172.160156 25.265625 170.300781 25.265625 C 169 25.265625 167.835938 25.066406 166.796875 24.640625 C 165.75 24.226562 164.878906 23.625 164.144531 22.859375 C 163.421875 22.082031 162.863281 21.167969 162.472656 20.089844 C 162.074219 19.015625 161.875 17.832031 161.875 16.550781 C 161.875 15.300781 162.082031 14.140625 162.492188 13.066406 C 162.890625 11.992188 163.464844 11.066406 164.210938 10.285156 C 164.960938 9.5 165.84375 8.882812 166.875 8.433594 C 167.902344 7.984375 169.050781 7.75 170.300781 7.75 C 171.695312 7.75 172.917969 8.023438 173.957031 8.574219 C 174.996094 9.125 175.84375 9.859375 176.519531 10.785156 C 177.183594 11.707031 177.667969 12.757812 177.957031 13.941406 C 178.257812 15.125 178.363281 16.359375 178.28125 17.648438 L 166.414062 17.648438 C 166.480469 19.125 166.847656 20.199219 167.53125 20.867188 "/>
    <path style=" stroke:none;fill-rule:nonzero;fill:rgb(69.803922%,70.588235%,71.372549%);fill-opacity:1;" d="M 108.035156 34.773438 C 107.628906 34.351562 107.144531 34.132812 106.597656 34.132812 C 106.046875 34.132812 105.574219 34.316406 105.175781 34.691406 C 104.773438 35.066406 104.574219 35.558594 104.574219 36.160156 C 104.574219 36.882812 104.765625 37.507812 105.140625 38.023438 C 105.523438 38.542969 105.921875 39.066406 106.347656 39.601562 C 106.980469 39.191406 107.519531 38.757812 107.96875 38.285156 C 108.425781 37.808594 108.648438 37.160156 108.648438 36.316406 C 108.648438 35.714844 108.441406 35.207031 108.035156 34.773438 Z M 103.800781 44.765625 C 103.417969 45 103.085938 45.285156 102.789062 45.601562 C 102.488281 45.925781 102.253906 46.273438 102.074219 46.667969 C 101.890625 47.050781 101.796875 47.484375 101.796875 47.949219 C 101.796875 48.359375 101.890625 48.75 102.074219 49.125 C 102.253906 49.5 102.488281 49.824219 102.789062 50.089844 C 103.085938 50.359375 103.429688 50.574219 103.820312 50.734375 C 104.210938 50.890625 104.625 50.976562 105.050781 50.976562 C 105.855469 50.976562 106.554688 50.785156 107.160156 50.410156 C 107.769531 50.042969 108.332031 49.550781 108.867188 48.949219 L 104.984375 44.160156 C 104.582031 44.324219 104.183594 44.535156 103.800781 44.765625 Z M 108.351562 54.042969 C 107.320312 54.5 106.164062 54.726562 104.867188 54.726562 C 103.851562 54.726562 102.886719 54.574219 101.988281 54.273438 C 101.082031 53.976562 100.308594 53.523438 99.644531 52.933594 C 98.988281 52.339844 98.472656 51.625 98.089844 50.773438 C 97.707031 49.933594 97.515625 48.957031 97.515625 47.867188 C 97.515625 47.050781 97.65625 46.300781 97.933594 45.625 C 98.207031 44.949219 98.589844 44.339844 99.0625 43.792969 C 99.542969 43.242188 100.09375 42.757812 100.707031 42.324219 C 101.324219 41.898438 101.964844 41.523438 102.621094 41.199219 C 102.007812 40.449219 101.492188 39.699219 101.074219 38.949219 C 100.667969 38.191406 100.460938 37.316406 100.460938 36.308594 C 100.460938 35.515625 100.617188 34.792969 100.949219 34.148438 C 101.273438 33.5 101.714844 32.949219 102.273438 32.492188 C 102.820312 32.023438 103.453125 31.675781 104.160156 31.425781 C 104.867188 31.183594 105.605469 31.058594 106.371094 31.058594 C 107.238281 31.058594 108.050781 31.175781 108.800781 31.410156 C 109.554688 31.648438 110.214844 32 110.769531 32.457031 C 111.335938 32.917969 111.777344 33.492188 112.109375 34.183594 C 112.433594 34.867188 112.601562 35.667969 112.601562 36.558594 C 112.601562 37.917969 112.21875 39.050781 111.4375 39.976562 C 110.664062 40.898438 109.707031 41.667969 108.558594 42.292969 L 111.484375 45.933594 C 111.71875 45.5 111.902344 45.058594 112.027344 44.589844 C 112.152344 44.132812 112.25 43.667969 112.308594 43.191406 L 116.226562 43.191406 C 116.117188 44.226562 115.882812 45.226562 115.527344 46.191406 C 115.167969 47.160156 114.671875 48.042969 114.03125 48.859375 L 118.644531 54.308594 L 113.105469 54.308594 L 111.261719 52.015625 C 110.355469 52.917969 109.382812 53.589844 108.351562 54.042969 "/>
    <path style=" stroke:none;fill-rule:nonzero;fill:rgb(42.745098%,43.137255%,43.921569%);fill-opacity:1;" d="M 120.132812 37.667969 L 124.671875 37.667969 L 124.671875 54.300781 L 120.132812 54.300781 Z M 124.671875 37.667969 Z M 124.671875 35.101562 L 120.136719 35.101562 L 120.136719 31.351562 L 124.671875 31.351562 Z M 124.671875 35.101562 "/>
    <path style=" stroke:none;fill-rule:nonzero;fill:rgb(42.745098%,43.137255%,43.921569%);fill-opacity:1;" d="M 132.496094 37.667969 L 132.496094 39.984375 L 132.597656 39.984375 C 133.164062 39.007812 133.902344 38.308594 134.816406 37.867188 C 135.734375 37.425781 136.664062 37.199219 137.621094 37.199219 C 138.824219 37.199219 139.816406 37.367188 140.597656 37.699219 C 141.371094 38.035156 141.976562 38.492188 142.425781 39.082031 C 142.867188 39.675781 143.183594 40.390625 143.359375 41.242188 C 143.539062 42.089844 143.632812 43.023438 143.632812 44.058594 L 143.632812 54.300781 L 139.140625 54.300781 L 139.140625 44.910156 C 139.140625 43.535156 138.925781 42.515625 138.492188 41.832031 C 138.070312 41.160156 137.3125 40.824219 136.222656 40.824219 C 134.992188 40.824219 134.09375 41.191406 133.539062 41.933594 C 132.988281 42.675781 132.707031 43.890625 132.707031 45.582031 L 132.707031 54.300781 L 128.214844 54.300781 L 128.214844 37.667969 L 132.496094 37.667969 "/>
    <path style=" stroke:none;fill-rule:nonzero;fill:rgb(42.745098%,43.137255%,43.921569%);fill-opacity:1;" d="M 149.851562 54.300781 L 144.222656 37.667969 L 148.960938 37.667969 L 152.429688 49.023438 L 152.488281 49.023438 L 155.957031 37.667969 L 160.445312 37.667969 L 154.875 54.300781 L 149.851562 54.300781 "/>
    <path style=" stroke:none;fill-rule:nonzero;fill:rgb(42.745098%,43.137255%,43.921569%);fill-opacity:1;" d="M 170.367188 41.558594 C 169.824219 40.957031 169 40.660156 167.894531 40.660156 C 167.171875 40.660156 166.582031 40.785156 166.101562 41.035156 C 165.625 41.273438 165.242188 41.582031 164.960938 41.941406 C 164.667969 42.308594 164.46875 42.699219 164.355469 43.101562 C 164.238281 43.507812 164.171875 43.875 164.144531 44.191406 L 171.496094 44.191406 C 171.28125 43.042969 170.90625 42.160156 170.367188 41.558594 Z M 165.261719 50.316406 C 165.941406 50.984375 166.914062 51.308594 168.1875 51.308594 C 169.101562 51.308594 169.882812 51.082031 170.539062 50.625 C 171.195312 50.167969 171.597656 49.675781 171.746094 49.167969 L 175.71875 49.167969 C 175.089844 51.160156 174.117188 52.582031 172.800781 53.441406 C 171.488281 54.292969 169.890625 54.726562 168.027344 54.726562 C 166.730469 54.726562 165.566406 54.507812 164.527344 54.101562 C 163.480469 53.675781 162.605469 53.082031 161.875 52.308594 C 161.152344 51.535156 160.59375 50.617188 160.195312 49.542969 C 159.804688 48.464844 159.605469 47.285156 159.605469 45.992188 C 159.605469 44.75 159.8125 43.589844 160.210938 42.515625 C 160.621094 41.441406 161.195312 40.515625 161.941406 39.734375 C 162.691406 38.949219 163.570312 38.332031 164.601562 37.882812 C 165.632812 37.433594 166.773438 37.207031 168.027344 37.207031 C 169.425781 37.207031 170.648438 37.476562 171.6875 38.023438 C 172.726562 38.574219 173.574219 39.316406 174.242188 40.234375 C 174.914062 41.160156 175.394531 42.214844 175.6875 43.390625 C 175.988281 44.574219 176.09375 45.808594 176.011719 47.101562 L 164.144531 47.101562 C 164.210938 48.582031 164.578125 49.648438 165.261719 50.316406 "/>
    <path style=" stroke:none;fill-rule:nonzero;fill:rgb(42.745098%,43.137255%,43.921569%);fill-opacity:1;" d="M 182.449219 50.175781 C 182.648438 50.523438 182.914062 50.808594 183.230469 51.035156 C 183.546875 51.257812 183.910156 51.425781 184.328125 51.535156 C 184.734375 51.640625 185.167969 51.691406 185.617188 51.691406 C 185.929688 51.691406 186.273438 51.660156 186.613281 51.574219 C 186.972656 51.5 187.285156 51.382812 187.570312 51.226562 C 187.859375 51.066406 188.101562 50.851562 188.292969 50.582031 C 188.476562 50.308594 188.574219 49.976562 188.574219 49.566406 C 188.574219 48.882812 188.125 48.367188 187.21875 48.023438 C 186.324219 47.675781 185.066406 47.332031 183.453125 46.992188 C 182.796875 46.839844 182.148438 46.667969 181.53125 46.457031 C 180.910156 46.257812 180.34375 45.984375 179.863281 45.660156 C 179.371094 45.324219 178.980469 44.898438 178.679688 44.398438 C 178.382812 43.890625 178.238281 43.273438 178.238281 42.550781 C 178.238281 41.476562 178.449219 40.601562 178.855469 39.910156 C 179.269531 39.226562 179.820312 38.683594 180.492188 38.285156 C 181.175781 37.882812 181.941406 37.609375 182.789062 37.449219 C 183.636719 37.285156 184.5 37.207031 185.398438 37.207031 C 186.289062 37.207031 187.152344 37.292969 187.992188 37.457031 C 188.824219 37.632812 189.574219 37.925781 190.230469 38.332031 C 190.886719 38.742188 191.4375 39.273438 191.867188 39.957031 C 192.308594 40.625 192.566406 41.484375 192.648438 42.507812 L 188.367188 42.507812 C 188.300781 41.640625 187.976562 41.050781 187.378906 40.742188 C 186.789062 40.433594 186.089844 40.273438 185.28125 40.273438 C 185.023438 40.273438 184.75 40.292969 184.460938 40.332031 C 184.167969 40.359375 183.894531 40.425781 183.652344 40.542969 C 183.402344 40.640625 183.195312 40.800781 183.03125 41 C 182.863281 41.207031 182.78125 41.484375 182.78125 41.824219 C 182.78125 42.234375 182.921875 42.566406 183.222656 42.816406 C 183.519531 43.074219 183.910156 43.285156 184.375 43.449219 C 184.859375 43.609375 185.40625 43.75 186.023438 43.882812 C 186.628906 44.007812 187.261719 44.148438 187.894531 44.300781 C 188.550781 44.449219 189.199219 44.632812 189.824219 44.851562 C 190.445312 45.058594 191.003906 45.339844 191.484375 45.699219 C 191.976562 46.050781 192.367188 46.492188 192.667969 47.015625 C 192.957031 47.542969 193.117188 48.191406 193.117188 48.964844 C 193.117188 50.058594 192.890625 50.976562 192.460938 51.714844 C 192.027344 52.449219 191.453125 53.050781 190.753906 53.5 C 190.054688 53.949219 189.257812 54.265625 188.351562 54.449219 C 187.453125 54.632812 186.53125 54.726562 185.597656 54.726562 C 184.644531 54.726562 183.710938 54.625 182.796875 54.433594 C 181.882812 54.242188 181.066406 53.917969 180.359375 53.464844 C 179.652344 53.023438 179.0625 52.425781 178.605469 51.691406 C 178.148438 50.949219 177.898438 50.023438 177.859375 48.910156 L 182.148438 48.910156 C 182.148438 49.398438 182.246094 49.824219 182.449219 50.175781 "/>
    <path style=" stroke:none;fill-rule:nonzero;fill:rgb(42.745098%,43.137255%,43.921569%);fill-opacity:1;" d="M 204.75 37.667969 L 204.75 40.742188 L 201.441406 40.742188 L 201.441406 48.964844 C 201.441406 49.734375 201.5625 50.25 201.820312 50.507812 C 202.078125 50.757812 202.585938 50.890625 203.351562 50.890625 C 203.601562 50.890625 203.851562 50.875 204.082031 50.859375 C 204.316406 50.832031 204.53125 50.808594 204.75 50.757812 L 204.75 54.300781 C 204.367188 54.367188 203.941406 54.417969 203.476562 54.433594 C 203.011719 54.457031 202.554688 54.464844 202.113281 54.464844 C 201.40625 54.464844 200.742188 54.425781 200.117188 54.324219 C 199.484375 54.234375 198.9375 54.042969 198.453125 53.757812 C 197.972656 53.484375 197.597656 53.082031 197.316406 52.574219 C 197.039062 52.058594 196.90625 51.382812 196.90625 50.550781 L 196.90625 40.742188 L 194.164062 40.742188 L 194.164062 37.667969 L 196.90625 37.667969 L 196.90625 32.699219 L 201.441406 32.699219 L 201.441406 37.667969 L 204.75 37.667969 "/>
    <path style=" stroke:none;fill-rule:nonzero;fill:rgb(42.745098%,43.137255%,43.921569%);fill-opacity:1;" d="M 207.035156 37.667969 L 211.574219 37.667969 L 211.574219 54.300781 L 207.035156 54.300781 Z M 211.574219 37.667969 Z M 211.574219 35.101562 L 207.035156 35.101562 L 207.035156 31.351562 L 211.574219 31.351562 Z M 211.574219 35.101562 "/>
    <path style=" stroke:none;fill-rule:nonzero;fill:rgb(42.745098%,43.137255%,43.921569%);fill-opacity:1;" d="M 224.472656 50 C 224.953125 49.742188 225.363281 49.398438 225.679688 48.976562 C 225.996094 48.542969 226.226562 48.050781 226.394531 47.507812 C 226.550781 46.957031 226.625 46.382812 226.625 45.785156 C 226.625 45.089844 226.566406 44.441406 226.433594 43.832031 C 226.308594 43.226562 226.101562 42.675781 225.804688 42.207031 C 225.511719 41.734375 225.113281 41.359375 224.628906 41.074219 C 224.148438 40.800781 223.53125 40.660156 222.792969 40.660156 C 222.160156 40.660156 221.613281 40.792969 221.164062 41.050781 C 220.707031 41.308594 220.332031 41.660156 220.023438 42.089844 C 219.714844 42.535156 219.492188 43.042969 219.359375 43.609375 C 219.21875 44.175781 219.152344 44.773438 219.152344 45.390625 C 219.152344 46 219.199219 46.589844 219.324219 47.183594 C 219.441406 47.773438 219.640625 48.308594 219.925781 48.773438 C 220.207031 49.25 220.582031 49.632812 221.046875 49.941406 C 221.511719 50.234375 222.09375 50.382812 222.792969 50.382812 C 223.425781 50.382812 223.992188 50.257812 224.472656 50 Z M 230.640625 55.523438 C 230.46875 56.382812 230.078125 57.183594 229.488281 57.925781 C 228.886719 58.660156 228.03125 59.292969 226.910156 59.808594 C 225.785156 60.316406 224.28125 60.574219 222.394531 60.574219 C 221.59375 60.574219 220.773438 60.476562 219.933594 60.273438 C 219.09375 60.066406 218.328125 59.75 217.644531 59.324219 C 216.949219 58.890625 216.375 58.332031 215.925781 57.660156 C 215.46875 56.984375 215.210938 56.175781 215.144531 55.234375 L 219.632812 55.234375 C 219.839844 56.082031 220.257812 56.675781 220.871094 57.007812 C 221.488281 57.339844 222.195312 57.5 223 57.5 C 224.273438 57.5 225.203125 57.117188 225.785156 56.351562 C 226.367188 55.582031 226.652344 54.609375 226.625 53.433594 L 226.625 51.257812 L 226.542969 51.257812 C 226.050781 52.140625 225.363281 52.792969 224.464844 53.207031 C 223.566406 53.632812 222.617188 53.839844 221.621094 53.839844 C 220.398438 53.839844 219.332031 53.625 218.453125 53.183594 C 217.5625 52.742188 216.832031 52.132812 216.257812 51.375 C 215.691406 50.609375 215.269531 49.714844 215 48.699219 C 214.742188 47.675781 214.609375 46.601562 214.609375 45.457031 C 214.609375 44.382812 214.761719 43.351562 215.066406 42.351562 C 215.375 41.351562 215.824219 40.464844 216.414062 39.699219 C 217.015625 38.941406 217.746094 38.332031 218.617188 37.882812 C 219.5 37.433594 220.515625 37.207031 221.652344 37.207031 C 222.734375 37.207031 223.683594 37.410156 224.496094 37.816406 C 225.3125 38.234375 225.996094 38.917969 226.542969 39.882812 L 226.625 39.882812 L 226.625 37.667969 L 230.917969 37.667969 L 230.917969 53.242188 C 230.917969 53.910156 230.824219 54.667969 230.640625 55.523438 "/>
    <path style=" stroke:none;fill-rule:nonzero;fill:rgb(42.745098%,43.137255%,43.921569%);fill-opacity:1;" d="M 242.765625 46.558594 C 242.476562 46.660156 242.175781 46.734375 241.851562 46.800781 C 241.519531 46.867188 241.179688 46.917969 240.820312 46.957031 C 240.460938 47 240.105469 47.058594 239.746094 47.117188 C 239.40625 47.183594 239.074219 47.273438 238.75 47.375 C 238.425781 47.484375 238.144531 47.632812 237.894531 47.808594 C 237.652344 47.992188 237.453125 48.226562 237.3125 48.5 C 237.171875 48.785156 237.09375 49.132812 237.09375 49.566406 C 237.09375 49.976562 237.171875 50.316406 237.3125 50.589844 C 237.453125 50.875 237.660156 51.089844 237.910156 51.257812 C 238.167969 51.417969 238.457031 51.523438 238.800781 51.589844 C 239.132812 51.660156 239.480469 51.691406 239.839844 51.691406 C 240.71875 51.691406 241.410156 51.542969 241.894531 51.242188 C 242.375 50.941406 242.742188 50.582031 242.972656 50.160156 C 243.199219 49.742188 243.347656 49.316406 243.398438 48.890625 C 243.457031 48.457031 243.480469 48.117188 243.480469 47.859375 L 243.480469 46.160156 C 243.289062 46.324219 243.046875 46.457031 242.765625 46.558594 Z M 233.851562 40.089844 C 234.316406 39.382812 234.917969 38.824219 235.632812 38.390625 C 236.355469 37.964844 237.171875 37.660156 238.066406 37.476562 C 238.972656 37.292969 239.871094 37.199219 240.796875 37.199219 C 241.617188 37.199219 242.457031 37.265625 243.304688 37.375 C 244.15625 37.5 244.929688 37.726562 245.625 38.066406 C 246.324219 38.417969 246.898438 38.890625 247.347656 39.507812 C 247.796875 40.117188 248.019531 40.925781 248.019531 41.933594 L 248.019531 50.601562 C 248.019531 51.351562 248.054688 52.066406 248.136719 52.757812 C 248.230469 53.441406 248.378906 53.957031 248.585938 54.300781 L 244.003906 54.300781 C 243.921875 54.042969 243.847656 53.773438 243.796875 53.507812 C 243.746094 53.242188 243.714844 52.964844 243.6875 52.691406 C 242.964844 53.441406 242.117188 53.964844 241.144531 54.265625 C 240.164062 54.566406 239.164062 54.714844 238.152344 54.714844 C 237.371094 54.714844 236.636719 54.625 235.957031 54.433594 C 235.28125 54.242188 234.683594 53.941406 234.175781 53.535156 C 233.660156 53.125 233.261719 52.609375 232.980469 51.984375 C 232.695312 51.367188 232.554688 50.625 232.554688 49.765625 C 232.554688 48.824219 232.714844 48.042969 233.046875 47.433594 C 233.371094 46.824219 233.792969 46.332031 234.316406 45.976562 C 234.832031 45.609375 235.421875 45.332031 236.089844 45.148438 C 236.761719 44.964844 237.425781 44.824219 238.109375 44.714844 C 238.792969 44.609375 239.457031 44.523438 240.113281 44.457031 C 240.769531 44.390625 241.351562 44.300781 241.859375 44.167969 C 242.367188 44.042969 242.765625 43.851562 243.066406 43.609375 C 243.363281 43.359375 243.496094 43 243.480469 42.523438 C 243.480469 42.035156 243.398438 41.640625 243.238281 41.359375 C 243.082031 41.066406 242.875 40.839844 242.609375 40.675781 C 242.34375 40.515625 242.035156 40.410156 241.683594 40.359375 C 241.34375 40.300781 240.96875 40.273438 240.570312 40.273438 C 239.679688 40.273438 238.992188 40.464844 238.476562 40.851562 C 237.96875 41.234375 237.675781 41.867188 237.59375 42.757812 L 233.0625 42.757812 C 233.121094 41.691406 233.386719 40.800781 233.851562 40.089844 "/>
    <path style=" stroke:none;fill-rule:nonzero;fill:rgb(42.745098%,43.137255%,43.921569%);fill-opacity:1;" d="M 259.894531 37.667969 L 259.894531 40.742188 L 256.585938 40.742188 L 256.585938 48.964844 C 256.585938 49.734375 256.710938 50.25 256.96875 50.507812 C 257.226562 50.757812 257.734375 50.890625 258.5 50.890625 C 258.746094 50.890625 258.988281 50.875 259.230469 50.859375 C 259.464844 50.832031 259.679688 50.808594 259.894531 50.757812 L 259.894531 54.300781 C 259.511719 54.367188 259.089844 54.417969 258.625 54.433594 C 258.15625 54.457031 257.699219 54.464844 257.25 54.464844 C 256.550781 54.464844 255.886719 54.425781 255.253906 54.324219 C 254.632812 54.234375 254.074219 54.042969 253.601562 53.757812 C 253.117188 53.484375 252.746094 53.082031 252.460938 52.574219 C 252.1875 52.058594 252.046875 51.382812 252.046875 50.550781 L 252.046875 40.742188 L 249.308594 40.742188 L 249.308594 37.667969 L 252.046875 37.667969 L 252.046875 32.699219 L 256.585938 32.699219 L 256.585938 37.667969 L 259.894531 37.667969 "/>
    <path style=" stroke:none;fill-rule:nonzero;fill:rgb(42.745098%,43.137255%,43.921569%);fill-opacity:1;" d="M 262.191406 37.667969 L 266.730469 37.667969 L 266.730469 54.300781 L 262.191406 54.300781 Z M 266.730469 37.667969 Z M 266.730469 35.101562 L 262.191406 35.101562 L 262.191406 31.351562 L 266.730469 31.351562 Z M 266.730469 35.101562 "/>
    <path style=" stroke:none;fill-rule:nonzero;fill:rgb(42.745098%,43.137255%,43.921569%);fill-opacity:1;" d="M 273.855469 47.949219 C 273.980469 48.582031 274.207031 49.148438 274.503906 49.660156 C 274.8125 50.160156 275.21875 50.566406 275.726562 50.859375 C 276.234375 51.167969 276.867188 51.316406 277.625 51.316406 C 278.378906 51.316406 279.019531 51.167969 279.535156 50.859375 C 280.050781 50.566406 280.46875 50.160156 280.773438 49.660156 C 281.074219 49.148438 281.289062 48.582031 281.421875 47.949219 C 281.546875 47.316406 281.605469 46.667969 281.605469 46 C 281.605469 45.339844 281.546875 44.683594 281.421875 44.042969 C 281.289062 43.390625 281.074219 42.824219 280.773438 42.332031 C 280.46875 41.839844 280.050781 41.441406 279.535156 41.125 C 279.019531 40.816406 278.378906 40.660156 277.625 40.660156 C 276.867188 40.660156 276.234375 40.816406 275.726562 41.125 C 275.21875 41.441406 274.8125 41.839844 274.503906 42.332031 C 274.207031 42.824219 273.980469 43.390625 273.855469 44.042969 C 273.730469 44.683594 273.664062 45.339844 273.664062 46 C 273.664062 46.667969 273.730469 47.316406 273.855469 47.949219 Z M 269.730469 42.375 C 270.140625 41.292969 270.714844 40.367188 271.453125 39.609375 C 272.195312 38.839844 273.082031 38.25 274.121094 37.832031 C 275.164062 37.417969 276.328125 37.207031 277.625 37.207031 C 278.914062 37.207031 280.085938 37.417969 281.140625 37.832031 C 282.1875 38.25 283.085938 38.839844 283.828125 39.609375 C 284.566406 40.367188 285.140625 41.292969 285.546875 42.375 C 285.945312 43.457031 286.148438 44.667969 286.148438 46 C 286.148438 47.324219 285.945312 48.535156 285.546875 49.609375 C 285.140625 50.675781 284.566406 51.589844 283.828125 52.359375 C 283.085938 53.117188 282.1875 53.707031 281.140625 54.117188 C 280.085938 54.523438 278.914062 54.726562 277.625 54.726562 C 276.328125 54.726562 275.164062 54.523438 274.121094 54.117188 C 273.082031 53.707031 272.195312 53.117188 271.453125 52.359375 C 270.714844 51.589844 270.140625 50.675781 269.730469 49.609375 C 269.332031 48.535156 269.132812 47.324219 269.132812 46 C 269.132812 44.667969 269.332031 43.457031 269.730469 42.375 "/>
    <path style=" stroke:none;fill-rule:nonzero;fill:rgb(42.745098%,43.137255%,43.921569%);fill-opacity:1;" d="M 292.066406 37.667969 L 292.066406 39.984375 L 292.167969 39.984375 C 292.742188 39.007812 293.472656 38.308594 294.386719 37.867188 C 295.300781 37.425781 296.234375 37.199219 297.1875 37.199219 C 298.394531 37.199219 299.394531 37.367188 300.167969 37.699219 C 300.9375 38.035156 301.546875 38.492188 301.996094 39.082031 C 302.4375 39.675781 302.753906 40.390625 302.925781 41.242188 C 303.109375 42.089844 303.199219 43.023438 303.199219 44.058594 L 303.199219 54.300781 L 298.703125 54.300781 L 298.703125 44.910156 C 298.703125 43.535156 298.496094 42.515625 298.070312 41.832031 C 297.636719 41.160156 296.882812 40.824219 295.792969 40.824219 C 294.5625 40.824219 293.664062 41.191406 293.105469 41.933594 C 292.558594 42.675781 292.273438 43.890625 292.273438 45.582031 L 292.273438 54.300781 L 287.785156 54.300781 L 287.785156 37.667969 L 292.066406 37.667969 "/>
    <path style=" stroke:none;fill-rule:nonzero;fill:rgb(69.803922%,70.588235%,71.372549%);fill-opacity:1;" d="M 101.175781 64.925781 L 101.175781 66.714844 L 101.25 66.714844 C 101.691406 65.964844 102.265625 65.433594 102.960938 65.089844 C 103.660156 64.75 104.382812 64.582031 105.117188 64.582031 C 106.046875 64.582031 106.8125 64.707031 107.410156 64.964844 C 108 65.226562 108.476562 65.574219 108.816406 66.035156 C 109.15625 66.492188 109.398438 67.042969 109.539062 67.699219 C 109.671875 68.351562 109.746094 69.074219 109.746094 69.867188 L 109.746094 77.757812 L 106.253906 77.757812 L 106.253906 70.515625 C 106.253906 69.457031 106.097656 68.667969 105.773438 68.140625 C 105.441406 67.625 104.867188 67.359375 104.035156 67.359375 C 103.085938 67.359375 102.40625 67.648438 101.980469 68.214844 C 101.558594 68.792969 101.339844 69.734375 101.339844 71.035156 L 101.339844 77.757812 L 97.855469 77.757812 L 97.855469 64.925781 L 101.175781 64.925781 "/>
    <path style=" stroke:none;fill-rule:nonzero;fill:rgb(69.803922%,70.588235%,71.372549%);fill-opacity:1;" d="M 120.089844 67.933594 C 119.675781 67.464844 119.042969 67.234375 118.1875 67.234375 C 117.628906 67.234375 117.164062 67.332031 116.800781 67.523438 C 116.433594 67.714844 116.132812 67.949219 115.917969 68.234375 C 115.691406 68.515625 115.535156 68.816406 115.445312 69.125 C 115.359375 69.441406 115.300781 69.726562 115.285156 69.976562 L 120.964844 69.976562 C 120.796875 69.074219 120.507812 68.398438 120.089844 67.933594 Z M 116.148438 74.683594 C 116.675781 75.191406 117.421875 75.441406 118.410156 75.441406 C 119.109375 75.441406 119.71875 75.273438 120.226562 74.917969 C 120.742188 74.574219 121.046875 74.199219 121.164062 73.800781 L 124.234375 73.800781 C 123.742188 75.339844 122.984375 76.449219 121.972656 77.109375 C 120.957031 77.765625 119.726562 78.101562 118.289062 78.101562 C 117.289062 78.101562 116.382812 77.941406 115.585938 77.617188 C 114.777344 77.292969 114.097656 76.832031 113.546875 76.234375 C 112.992188 75.640625 112.558594 74.925781 112.25 74.101562 C 111.949219 73.273438 111.800781 72.359375 111.800781 71.367188 C 111.800781 70.410156 111.949219 69.507812 112.265625 68.683594 C 112.574219 67.859375 113.023438 67.132812 113.589844 66.535156 C 114.164062 65.933594 114.84375 65.449219 115.644531 65.109375 C 116.441406 64.757812 117.324219 64.582031 118.289062 64.582031 C 119.367188 64.582031 120.308594 64.792969 121.113281 65.214844 C 121.914062 65.640625 122.578125 66.207031 123.09375 66.917969 C 123.609375 67.632812 123.984375 68.441406 124.207031 69.351562 C 124.441406 70.257812 124.523438 71.214844 124.457031 72.207031 L 115.285156 72.207031 C 115.335938 73.339844 115.625 74.167969 116.148438 74.683594 "/>
    <path style=" stroke:none;fill-rule:nonzero;fill:rgb(69.803922%,70.588235%,71.372549%);fill-opacity:1;" d="M 133.503906 64.917969 L 133.503906 67.273438 L 130.941406 67.273438 L 130.941406 73.617188 C 130.941406 74.214844 131.042969 74.617188 131.242188 74.808594 C 131.441406 75.007812 131.832031 75.109375 132.421875 75.109375 C 132.621094 75.109375 132.804688 75.101562 132.988281 75.082031 C 133.171875 75.066406 133.335938 75.042969 133.503906 75.007812 L 133.503906 77.757812 C 133.203125 77.808594 132.878906 77.839844 132.523438 77.867188 C 132.15625 77.875 131.808594 77.882812 131.46875 77.882812 C 130.925781 77.882812 130.410156 77.851562 129.929688 77.773438 C 129.445312 77.699219 129.023438 77.558594 128.648438 77.339844 C 128.28125 77.125 127.992188 76.816406 127.785156 76.425781 C 127.566406 76.023438 127.457031 75.5 127.457031 74.859375 L 127.457031 67.273438 L 125.347656 67.273438 L 125.347656 64.917969 L 127.457031 64.917969 L 127.457031 61.082031 L 130.941406 61.082031 L 130.941406 64.917969 L 133.503906 64.917969 "/>
    <path style=" stroke:none;fill-rule:nonzero;fill:rgb(69.803922%,70.588235%,71.372549%);fill-opacity:1;" d="M 146.109375 77.757812 L 143.847656 69.140625 L 143.796875 69.140625 L 141.636719 77.757812 L 138.019531 77.757812 L 133.996094 64.917969 L 137.679688 64.917969 L 140.015625 73.632812 L 140.066406 73.632812 L 142.175781 64.917969 L 145.570312 64.917969 L 147.730469 73.609375 L 147.78125 73.609375 L 150.117188 64.917969 L 153.710938 64.917969 L 149.703125 77.757812 L 146.109375 77.757812 "/>
    <path style=" stroke:none;fill-rule:nonzero;fill:rgb(69.803922%,70.588235%,71.372549%);fill-opacity:1;" d="M 158.417969 72.851562 C 158.515625 73.339844 158.683594 73.773438 158.914062 74.167969 C 159.15625 74.558594 159.472656 74.867188 159.863281 75.089844 C 160.261719 75.324219 160.753906 75.441406 161.34375 75.441406 C 161.933594 75.441406 162.433594 75.324219 162.832031 75.089844 C 163.230469 74.867188 163.554688 74.558594 163.789062 74.167969 C 164.03125 73.773438 164.203125 73.339844 164.296875 72.851562 C 164.394531 72.359375 164.445312 71.867188 164.445312 71.351562 C 164.445312 70.832031 164.394531 70.332031 164.296875 69.832031 C 164.203125 69.339844 164.03125 68.898438 163.789062 68.523438 C 163.554688 68.140625 163.230469 67.832031 162.832031 67.589844 C 162.433594 67.351562 161.933594 67.234375 161.34375 67.234375 C 160.753906 67.234375 160.261719 67.351562 159.863281 67.589844 C 159.472656 67.832031 159.15625 68.140625 158.914062 68.523438 C 158.683594 68.898438 158.515625 69.339844 158.417969 69.832031 C 158.316406 70.332031 158.265625 70.832031 158.265625 71.351562 C 158.265625 71.867188 158.316406 72.359375 158.417969 72.851562 Z M 155.25 68.566406 C 155.554688 67.734375 155.996094 67.015625 156.578125 66.433594 C 157.144531 65.839844 157.835938 65.382812 158.640625 65.066406 C 159.4375 64.742188 160.34375 64.574219 161.34375 64.574219 C 162.339844 64.574219 163.246094 64.742188 164.0625 65.066406 C 164.871094 65.382812 165.558594 65.839844 166.132812 66.433594 C 166.714844 67.015625 167.15625 67.734375 167.464844 68.566406 C 167.78125 69.410156 167.929688 70.332031 167.929688 71.367188 C 167.929688 72.390625 167.78125 73.316406 167.464844 74.140625 C 167.15625 74.976562 166.714844 75.683594 166.132812 76.265625 C 165.558594 76.859375 164.871094 77.308594 164.0625 77.625 C 163.246094 77.933594 162.339844 78.089844 161.34375 78.089844 C 160.34375 78.089844 159.4375 77.933594 158.640625 77.625 C 157.835938 77.308594 157.144531 76.859375 156.578125 76.265625 C 155.996094 75.683594 155.554688 74.976562 155.25 74.140625 C 154.933594 73.316406 154.78125 72.390625 154.78125 71.367188 C 154.78125 70.332031 154.933594 69.410156 155.25 68.566406 "/>
    <path style=" stroke:none;fill-rule:nonzero;fill:rgb(69.803922%,70.588235%,71.372549%);fill-opacity:1;" d="M 173.535156 64.933594 L 173.535156 67.316406 L 173.582031 67.316406 C 173.742188 66.917969 173.964844 66.550781 174.242188 66.207031 C 174.523438 65.875 174.839844 65.582031 175.203125 65.339844 C 175.5625 65.101562 175.945312 64.917969 176.359375 64.785156 C 176.769531 64.648438 177.191406 64.582031 177.632812 64.582031 C 177.867188 64.582031 178.117188 64.625 178.398438 64.707031 L 178.398438 67.992188 C 178.230469 67.957031 178.03125 67.925781 177.808594 67.910156 C 177.582031 67.875 177.359375 67.867188 177.140625 67.867188 C 176.503906 67.867188 175.960938 67.976562 175.519531 68.191406 C 175.082031 68.410156 174.722656 68.699219 174.449219 69.066406 C 174.183594 69.441406 173.992188 69.875 173.875 70.367188 C 173.757812 70.867188 173.699219 71.398438 173.699219 71.984375 L 173.699219 77.757812 L 170.214844 77.757812 L 170.214844 64.933594 L 173.535156 64.933594 "/>
    <path style=" stroke:none;fill-rule:nonzero;fill:rgb(69.803922%,70.588235%,71.372549%);fill-opacity:1;" d="M 183.5625 60.035156 L 183.5625 69.542969 L 187.960938 64.925781 L 192.09375 64.925781 L 187.304688 69.640625 L 192.632812 77.757812 L 188.410156 77.757812 L 184.917969 72.023438 L 183.5625 73.339844 L 183.5625 77.757812 L 180.070312 77.757812 L 180.070312 60.035156 L 183.5625 60.035156 "/>
    <path style=" stroke:none;fill-rule:nonzero;fill:rgb(69.803922%,70.588235%,71.372549%);fill-opacity:1;" d="M 195.410156 60.742188 L 195.410156 60.207031 L 199.203125 60.207031 L 199.203125 60.742188 L 197.621094 60.742188 L 197.621094 64.976562 L 196.992188 64.976562 L 196.992188 60.742188 L 195.410156 60.742188 "/>
    <path style=" stroke:none;fill-rule:nonzero;fill:rgb(69.803922%,70.588235%,71.372549%);fill-opacity:1;" d="M 200.75 60.207031 L 202.246094 64.214844 L 203.75 60.207031 L 204.609375 60.207031 L 204.609375 64.976562 L 204.015625 64.976562 L 204.015625 61.007812 L 204 61.007812 L 202.519531 64.976562 L 201.980469 64.976562 L 200.5 61.007812 L 200.484375 61.007812 L 200.484375 64.976562 L 199.882812 64.976562 L 199.882812 60.207031 L 200.75 60.207031 "/>
  </g>
</svg>