<?xml version="1.0" encoding="UTF-8" standalone="yes"?>
<svg xmlns="http://www.w3.org/2000/svg" xmlns:xlink="http://www.w3.org/1999/xlink" width="720px" height="106.66666666666666px" viewBox="0 0 540 80" version="1.1">
  <g id="surface1">
    <path style=" stroke:none;fill-rule:nonzero;fill:rgb(0.784314%,37.254902%,64.705882%);fill-opacity:1;" d="M 3.0625 3.066406 C 15.703125 3.046875 28.335938 3.09375 40.972656 3.039062 C 41.074219 11.035156 40.972656 19.019531 41.027344 27.011719 C 28.371094 27.046875 15.714844 27.011719 3.0625 27.027344 C 3.0625 19.039062 3.0625 11.054688 3.0625 3.066406 M 9.101562 21.390625 C 12.269531 21.398438 15.433594 21.398438 18.601562 21.390625 C 18.601562 19.9375 18.609375 18.492188 18.621094 17.039062 C 21.527344 17.101562 23.230469 19.777344 25.34375 21.371094 C 28.648438 21.414062 31.953125 21.40625 35.25 21.390625 C 33.3125 19.925781 31.34375 18.5 29.285156 17.195312 C 31.128906 16.738281 33.085938 15.582031 33.289062 13.492188 C 33.769531 10.953125 31.609375 8.453125 29.011719 8.636719 C 22.390625 8.535156 15.761719 8.65625 9.136719 8.585938 C 9.066406 12.859375 9.113281 17.128906 9.101562 21.390625 Z M 9.101562 21.390625 "/>
    <path style=" stroke:none;fill-rule:nonzero;fill:rgb(0.784314%,37.254902%,64.705882%);fill-opacity:1;" d="M 42.785156 26.992188 C 42.859375 19.011719 42.75 11.027344 42.84375 3.046875 C 55.480469 3.085938 68.113281 3.054688 80.75 3.0625 C 80.785156 11.035156 80.722656 19.011719 80.785156 26.988281 C 68.113281 27.054688 55.453125 27.046875 42.785156 26.992188 M 49.324219 8.65625 C 49.324219 9.640625 49.324219 10.636719 49.324219 11.621094 C 51.722656 11.621094 54.121094 11.621094 56.519531 11.628906 C 56.511719 14.871094 56.535156 18.113281 56.5 21.359375 C 59.886719 21.425781 63.269531 21.390625 66.65625 21.398438 C 66.648438 18.136719 66.636719 14.871094 66.714844 11.613281 C 69.066406 11.628906 71.417969 11.621094 73.769531 11.621094 C 73.761719 10.613281 73.761719 9.609375 73.761719 8.609375 C 65.621094 8.628906 57.472656 8.546875 49.324219 8.65625 Z M 49.324219 8.65625 "/>
    <path style=" stroke:none;fill-rule:nonzero;fill:rgb(0.784314%,37.254902%,64.705882%);fill-opacity:1;" d="M 82.546875 3.074219 C 95.1875 3.054688 107.832031 3.066406 120.464844 3.066406 C 120.464844 11.054688 120.472656 19.039062 120.464844 27.027344 C 107.824219 27.019531 95.183594 27.039062 82.546875 27.019531 C 82.5625 19.035156 82.554688 11.054688 82.546875 3.074219 M 89.109375 8.648438 C 89.128906 12.90625 89.054688 17.164062 89.164062 21.414062 C 97.425781 21.371094 105.6875 21.414062 113.953125 21.398438 C 113.953125 20.417969 113.953125 19.445312 113.953125 18.464844 C 109.304688 18.464844 104.648438 18.464844 100 18.464844 C 100 15.195312 100 11.917969 100 8.648438 C 96.371094 8.648438 92.738281 8.648438 89.109375 8.648438 Z M 89.109375 8.648438 "/>
    <path style=" stroke:none;fill-rule:nonzero;fill:rgb(0.784314%,37.254902%,64.705882%);fill-opacity:1;" d="M 18.613281 11.511719 C 20.242188 11.535156 21.878906 11.433594 23.492188 11.667969 C 24.554688 12.121094 24.535156 13.640625 23.648438 14.261719 C 21.980469 14.511719 20.285156 14.414062 18.601562 14.425781 C 18.601562 13.453125 18.609375 12.480469 18.613281 11.511719 Z M 18.613281 11.511719 "/>
    <path style=" stroke:none;fill-rule:nonzero;fill:rgb(0.392157%,14.509804%,34.117647%);fill-opacity:1;" d="M 124.609375 76.6875 C 124.535156 52.140625 124.539062 27.585938 124.601562 3.039062 C 198.011719 3.09375 271.425781 3.039062 344.832031 3.066406 C 344.832031 27.601562 344.832031 52.128906 344.832031 76.664062 C 271.425781 76.6875 198.011719 76.636719 124.609375 76.6875 M 152.761719 16.214844 C 148.488281 18.640625 146.0625 23.304688 145 27.953125 C 142.9375 37.121094 140.980469 46.3125 138.960938 55.488281 C 138.675781 56.75 138.257812 57.972656 137.824219 59.195312 C 139.90625 59.3125 142.140625 59.492188 143.761719 60.964844 C 146.128906 62.972656 148.925781 64.574219 152.054688 64.933594 C 157.886719 65.621094 164.511719 64.203125 168.359375 59.445312 C 171.417969 55.804688 171.886719 50.90625 172.851562 46.4375 C 168.992188 46.4375 165.136719 46.445312 161.277344 46.4375 C 160.621094 49.230469 160.464844 52.277344 158.871094 54.738281 C 157.480469 56.953125 153.9375 57.09375 152.269531 55.164062 C 151.039062 53.582031 151.453125 51.433594 151.785156 49.613281 C 153.3125 42.714844 154.804688 35.8125 156.335938 28.914062 C 156.84375 26.785156 157.65625 24.378906 159.769531 23.359375 C 161.511719 22.628906 164.214844 22.675781 165.09375 24.667969 C 165.804688 26.84375 164.933594 29.128906 164.628906 31.304688 C 168.492188 31.304688 172.351562 31.3125 176.214844 31.304688 C 176.886719 28.140625 177.953125 24.785156 176.714844 21.613281 C 175.113281 17.296875 170.59375 14.835938 166.242188 14.167969 C 161.714844 13.59375 156.804688 13.890625 152.761719 16.214844 M 176.769531 64.1875 C 180.675781 64.1875 184.585938 64.1875 188.492188 64.1875 C 189.714844 58.4375 190.9375 52.695312 192.164062 46.953125 C 193.621094 46.925781 195.074219 46.890625 196.535156 46.859375 C 196.863281 52.628906 197.195312 58.398438 197.492188 64.167969 C 201.5 64.203125 205.507812 64.183594 209.511719 64.1875 C 208.816406 57.722656 208.074219 51.269531 207.398438 44.804688 C 211.230469 42.742188 214.074219 39.164062 215.480469 35.066406 C 217.1875 30.554688 217.472656 25.136719 214.761719 20.945312 C 212.230469 16.878906 207.363281 14.863281 202.710938 14.777344 C 197.636719 14.648438 192.5625 14.785156 187.492188 14.710938 C 183.859375 31.1875 180.34375 47.695312 176.769531 64.1875 M 227.75 14.730469 C 224.148438 31.210938 220.585938 47.703125 216.980469 64.175781 C 220.835938 64.203125 224.703125 64.183594 228.5625 64.1875 C 232.167969 47.710938 235.738281 31.214844 239.332031 14.730469 C 235.472656 14.730469 231.609375 14.730469 227.75 14.730469 M 249.546875 14.738281 C 245.90625 31.222656 242.230469 47.703125 238.582031 64.1875 C 242.285156 64.183594 245.988281 64.210938 249.695312 64.167969 C 251.664062 54.933594 253.722656 45.722656 255.703125 36.488281 C 256.011719 35.835938 256.167969 33.242188 257.269531 34.4375 C 257.832031 44.332031 257.664062 54.277344 257.925781 64.1875 C 260.972656 64.1875 264.027344 64.183594 267.082031 64.203125 C 270.566406 55.289062 274.046875 46.378906 277.488281 37.445312 C 278.027344 36.15625 278.351562 34.5625 279.84375 34.019531 C 278.0625 44.167969 275.242188 54.113281 273.085938 64.1875 C 276.710938 64.019531 280.519531 64.527344 284.027344 63.953125 C 287.683594 47.566406 291.136719 31.136719 294.710938 14.730469 C 288.953125 14.710938 283.195312 14.757812 277.4375 14.703125 C 273.757812 24.445312 270.535156 34.363281 266.730469 44.054688 C 266.433594 34.285156 266.34375 24.507812 266.121094 14.730469 C 260.59375 14.738281 255.074219 14.714844 249.546875 14.738281 M 304.925781 14.738281 C 301.425781 31.222656 297.898438 47.703125 294.386719 64.1875 C 302.304688 64.1875 310.214844 64.195312 318.128906 64.183594 C 318.695312 61.257812 319.285156 58.332031 319.859375 55.40625 C 315.90625 55.40625 311.945312 55.40625 307.992188 55.40625 C 308.835938 51.390625 309.714844 47.386719 310.535156 43.359375 C 314.566406 43.3125 318.601562 43.324219 322.640625 43.351562 C 323.398438 40.371094 324.0625 37.363281 324.757812 34.371094 C 320.648438 34.363281 316.546875 34.378906 312.4375 34.359375 C 313.285156 30.761719 314.101562 27.15625 314.9375 23.5625 C 319.566406 23.554688 324.203125 23.5625 328.835938 23.554688 C 329.433594 20.613281 330.046875 17.675781 330.648438 14.730469 C 322.074219 14.730469 313.5 14.714844 304.925781 14.738281 Z M 304.925781 14.738281 "/>
    <path style=" stroke:none;fill-rule:nonzero;fill:rgb(0.392157%,14.509804%,34.117647%);fill-opacity:1;" d="M 196.953125 23.785156 C 199.574219 23.507812 203.128906 22.960938 204.851562 25.511719 C 207.019531 29.195312 205.398438 34.113281 202.269531 36.738281 C 199.945312 38.777344 196.640625 37.886719 193.835938 38.0625 C 194.890625 33.304688 195.851562 28.527344 196.953125 23.785156 Z M 196.953125 23.785156 "/>
    <path style=" stroke:none;fill-rule:nonzero;fill:rgb(0.392157%,14.509804%,34.117647%);fill-opacity:1;" d="M 3.101562 47.214844 C 2.953125 41.816406 2.878906 36.433594 3.121094 31.035156 C 5.296875 31.019531 7.472656 31.011719 9.640625 31.15625 C 7.472656 31.785156 5.351562 32.546875 3.203125 33.230469 C 3.167969 33.835938 3.09375 35.0625 3.0625 35.667969 C 4.445312 35.40625 5.863281 35.242188 7.203125 34.785156 C 8.554688 34.085938 9.472656 32.761719 10.832031 32.066406 C 12.214844 31.667969 13.675781 31.628906 15.109375 31.472656 C 12.046875 35.15625 7.511719 36.933594 3.203125 38.667969 C 3.296875 39.386719 3.386719 40.101562 3.480469 40.816406 C 7.878906 37.980469 12.507812 35.453125 16.5625 32.113281 C 16.027344 31.871094 14.960938 31.386719 14.425781 31.148438 C 15.859375 31.085938 17.289062 31.074219 18.722656 31.128906 C 16.84375 33.1875 15.277344 35.613281 12.851562 37.109375 C 9.972656 39.167969 6.539062 40.25 3.566406 42.128906 C 2.886719 43.316406 3.257812 43.8125 4.683594 43.613281 C 6.859375 42.988281 8.371094 41.167969 10.238281 39.980469 C 12.140625 38.640625 14.492188 38.082031 16.324219 36.636719 C 18.085938 34.914062 19.40625 32.8125 21 30.945312 C 22.277344 31.007812 23.554688 31.039062 24.832031 31.074219 C 21.914062 35.453125 16.5 36.925781 12.859375 40.519531 C 11.359375 41.953125 10.175781 43.761719 8.3125 44.761719 C 6.628906 45.6875 4.8125 46.335938 3.101562 47.214844 Z M 3.101562 47.214844 "/>
    <path style=" stroke:none;fill-rule:nonzero;fill:rgb(0.392157%,14.509804%,34.117647%);fill-opacity:1;" d="M 27.414062 30.953125 C 28.582031 31.035156 29.75 31.101562 30.917969 31.1875 C 28.460938 33.351562 26.242188 35.789062 23.585938 37.722656 C 20.9375 39.675781 17.664062 40.664062 15.285156 43 C 12.917969 45.082031 11.09375 47.960938 8.019531 49.082031 C 6.269531 49.738281 4.574219 50.566406 3.183594 51.835938 C 3.113281 50.832031 3.035156 49.832031 2.9375 48.832031 C 4.933594 48.261719 7.082031 47.9375 8.769531 46.664062 C 11.742188 44.453125 14.035156 41.460938 17.054688 39.316406 C 18.917969 38 21.527344 37.75 22.878906 35.761719 C 24.175781 33.964844 25.640625 32.296875 27.414062 30.953125 Z M 27.414062 30.953125 "/>
    <path style=" stroke:none;fill-rule:nonzero;fill:rgb(0.392157%,14.509804%,34.117647%);fill-opacity:1;" d="M 32.84375 30.953125 C 34.140625 31.027344 35.433594 31.09375 36.730469 31.1875 C 36.074219 31.5 35.425781 31.824219 34.777344 32.15625 C 35.695312 32.960938 37.257812 33.742188 36.65625 35.316406 C 37.335938 34.988281 38.019531 34.664062 38.710938 34.335938 C 38.285156 34.109375 37.433594 33.648438 37.007812 33.417969 C 37.082031 33.128906 37.222656 32.546875 37.296875 32.257812 C 38.398438 31.898438 39.488281 31.519531 40.582031 31.164062 C 41.417969 31.09375 42.257812 31.066406 43.09375 31.085938 C 41.289062 32.871094 39.460938 34.640625 37.796875 36.574219 C 41.136719 35.460938 43.988281 33.359375 46.574219 31.019531 C 47.011719 31.066406 47.886719 31.164062 48.324219 31.210938 C 45.269531 33.296875 41.964844 35.335938 39.972656 38.554688 C 38.304688 41.25 36.566406 43.90625 35.0625 46.695312 C 39.121094 43.898438 40.988281 39.066406 44.683594 35.898438 C 46.769531 34.085938 49.140625 32.648438 51.34375 30.992188 C 52.121094 31.046875 52.898438 31.101562 53.675781 31.15625 C 49.945312 33.066406 47.75 36.695312 45.222656 39.859375 C 43.964844 41.582031 41.980469 42.433594 39.988281 42.972656 C 40.203125 43.492188 40.417969 44.011719 40.640625 44.535156 C 38.796875 50.007812 34.464844 55.480469 36.453125 61.511719 C 37.980469 66.074219 42.6875 67.871094 46.761719 69.464844 C 47.9375 69.945312 49.222656 69.609375 50.4375 69.554688 C 47.316406 67.277344 43.148438 67.085938 40.1875 64.5625 C 38.695312 63.359375 38.082031 61.480469 37.351562 59.785156 C 37.8125 60.046875 38.730469 60.574219 39.1875 60.835938 C 39.59375 59.988281 40.007812 59.140625 40.425781 58.304688 C 40.6875 61.335938 42.167969 64.613281 45.210938 65.730469 C 49.472656 67.445312 54.214844 67.953125 58.761719 67.386719 C 61.464844 67.09375 63.65625 65.304688 66.195312 64.535156 C 67.777344 64.386719 66.507812 66.230469 65.824219 66.433594 C 61.136719 68.988281 55.664062 68.386719 50.5625 69.054688 C 56.113281 70.5625 62.082031 69.359375 67.363281 67.363281 C 72.75 65.140625 77.742188 61.351562 80.417969 56.082031 C 81.074219 54.730469 81.695312 52.574219 80.121094 51.621094 C 76.703125 49.871094 72.613281 50.113281 68.972656 50.953125 C 65.238281 51.757812 61.761719 54.371094 57.789062 53.304688 C 61.609375 50.675781 66.257812 48.890625 70.9375 49.15625 C 75.164062 49.296875 79.886719 48.1875 83.5 51.027344 C 82.730469 53.445312 82.472656 55.980469 81.960938 58.453125 C 81.75 60.242188 79.816406 60.761719 78.582031 61.703125 C 76.917969 62.5625 77.101562 65.027344 75.378906 65.816406 C 73.777344 66.710938 72.136719 67.546875 70.664062 68.65625 C 76.085938 68.789062 80.722656 64.851562 83.242188 60.335938 C 84.722656 57.84375 84.167969 54.886719 83.886719 52.167969 C 84.363281 52.140625 85.324219 52.082031 85.804688 52.054688 C 86.140625 57.148438 84.695312 62.480469 80.980469 66.121094 C 75.738281 71.714844 68.109375 73.628906 61.277344 76.445312 C 63.8125 76.5 66.710938 77.289062 68.960938 75.730469 C 73.445312 72.789062 78.703125 70.945312 82.433594 66.9375 C 86.519531 63.121094 88.34375 56.832031 86.359375 51.527344 C 85.460938 48.898438 82.59375 48.074219 80.195312 47.445312 C 77.539062 46.582031 74.964844 48.3125 72.3125 48.242188 C 71.0625 48.398438 70.4375 47.851562 70.453125 46.59375 C 72.84375 44.980469 75.777344 45.960938 78.4375 45.722656 C 83.417969 44.859375 88.011719 49.332031 88.761719 54.007812 C 88.628906 59.714844 85.851562 65.074219 82.214844 69.359375 C 79.445312 72.621094 75.398438 74.238281 71.886719 76.511719 C 74.59375 76.464844 78.414062 77.507812 80.007812 74.582031 C 82.324219 71.101562 86.007812 68.683594 87.816406 64.835938 C 89.695312 61.332031 89.566406 57.261719 90.121094 53.433594 C 92.082031 56.777344 91.816406 60.960938 90.769531 64.5625 C 88.90625 69.359375 84.960938 72.863281 81.566406 76.582031 C 82.121094 76.5625 83.214844 76.527344 83.769531 76.507812 C 86.472656 74.195312 88.648438 71.238281 90.601562 68.269531 C 94.085938 62.769531 93.175781 55.488281 89.628906 50.25 C 87.695312 46.878906 84.34375 44.742188 81.886719 41.8125 C 83.128906 42.066406 84.601562 41.851562 85.6875 42.628906 C 86.585938 44.007812 86.992188 45.710938 88.175781 46.898438 C 89.742188 48.507812 91.519531 49.980469 92.574219 52.007812 C 94.917969 56.085938 94.785156 61.140625 93.25 65.480469 C 91.917969 69.566406 89.433594 73.128906 86.953125 76.59375 C 87.914062 76.601562 88.871094 76.609375 89.832031 76.609375 C 93.785156 69.535156 97.335938 61.140625 94.953125 52.953125 C 93.917969 48.972656 90.640625 46.324219 87.878906 43.535156 C 91.019531 43.925781 94.09375 45.710938 95.121094 48.859375 C 96.648438 53.398438 97.15625 58.214844 98.085938 62.898438 C 97.664062 67.730469 94.324219 71.730469 92.757812 76.210938 C 93.574219 76.988281 94.4375 76.039062 94.804688 75.285156 C 96.257812 72.613281 96.804688 69.585938 97.6875 66.710938 C 100.757812 69.933594 95.738281 73.046875 95.460938 76.25 C 96.285156 76.777344 97.519531 76.675781 97.703125 75.539062 C 99.6875 70.675781 99.960938 65.269531 99.785156 60.074219 C 99.710938 56.664062 98.011719 53.574219 97.742188 50.1875 C 98.582031 50.964844 99.5 51.757812 99.859375 52.890625 C 102.582031 60.519531 102.804688 69.109375 99.972656 76.742188 C 87.816406 76.871094 75.664062 76.554688 63.5 76.796875 C 54.113281 76.535156 44.714844 76.566406 35.332031 76.703125 C 34.128906 75.945312 32.917969 75.1875 31.710938 74.4375 C 31.527344 74.980469 31.164062 76.0625 30.980469 76.601562 C 30.082031 76.609375 29.175781 76.613281 28.269531 76.621094 C 26.851562 74.710938 25.027344 73.109375 22.804688 72.203125 C 23.695312 73.761719 24.714844 75.25 25.917969 76.585938 C 24.789062 76.621094 23.664062 76.667969 22.539062 76.761719 C 19.710938 73.222656 17.113281 69.492188 14.136719 66.082031 C 14.269531 70.75 18.335938 73.546875 21.324219 76.535156 C 19.613281 76.695312 17.890625 76.972656 16.167969 76.769531 C 11.761719 76.472656 7.351562 76.804688 2.9375 76.769531 C 3.257812 73.425781 2.613281 70.085938 3.019531 66.757812 C 7.75 66.082031 12.128906 62.769531 13.082031 57.925781 C 9.3125 59.851562 7.683594 64.714844 3.113281 65.210938 C 3.09375 64.039062 3.082031 62.878906 3.054688 61.710938 C 9.34375 59.664062 15.148438 55.789062 18.511719 49.980469 C 15.878906 51.085938 13.898438 53.167969 11.925781 55.15625 C 9.492188 57.601562 6.238281 58.9375 3.046875 60.085938 C 3.113281 58.035156 3.164062 55.964844 2.945312 53.914062 C 4.507812 52.742188 6.203125 51.761719 8.0625 51.15625 C 11.554688 50.0625 13.164062 46.445312 15.933594 44.359375 C 17.269531 43.335938 19.378906 43.4375 20.242188 41.84375 C 21.789062 39 25.039062 38.027344 27.5625 36.304688 C 29.730469 34.964844 31.332031 32.953125 32.84375 30.953125 M 29.667969 37.15625 C 26.789062 39.933594 23.511719 42.269531 20.175781 44.464844 C 17.917969 45.980469 15.351562 47.019531 13.316406 48.859375 C 15.15625 49.34375 16.816406 48.261719 18.359375 47.425781 C 23.34375 44.488281 27.539062 40.4375 31.878906 36.65625 C 33.007812 35.628906 34.414062 34.640625 34.539062 32.980469 C 32.335938 33.566406 31.242188 35.703125 29.667969 37.15625 M 31.378906 39.464844 C 33.816406 39.695312 35.464844 37.789062 35.433594 35.453125 C 33.15625 35.492188 32.417969 37.878906 31.378906 39.464844 M 35.148438 41.914062 C 38.195312 42.859375 37.851562 38.8125 38.390625 36.917969 C 35.527344 36.101562 34.417969 40.257812 35.148438 41.914062 M 26.925781 42.453125 C 23.15625 45.359375 21.5625 50.074219 18.34375 53.472656 C 17.09375 54.914062 15.386719 55.898438 14.277344 57.464844 C 14.4375 58.425781 14.816406 59.324219 15.140625 60.238281 C 17.0625 59.390625 17.480469 57.242188 18.371094 55.5625 C 19.363281 53.488281 21.5625 52.398438 22.84375 50.546875 C 23.824219 48.84375 24.007812 46.546875 25.851562 45.460938 C 28.335938 43.90625 30.425781 41.835938 32.148438 39.464844 C 29.84375 39.085938 28.535156 41.242188 26.925781 42.453125 M 28.777344 44.917969 C 28.039062 45.730469 26.953125 47.9375 29.039062 47.238281 C 31.664062 45.433594 32.972656 42.183594 34.6875 39.5625 C 32.378906 40.925781 30.566406 42.964844 28.777344 44.917969 M 31.859375 45.433594 C 33.433594 46.417969 34.722656 44.566406 35.953125 43.859375 C 35.714844 43.554688 35.242188 42.945312 35.007812 42.648438 C 33.480469 42.582031 31.933594 43.859375 31.859375 45.433594 M 33.722656 55.871094 C 35.3125 54.761719 35.519531 52.714844 36.261719 51.082031 C 36.992188 48.953125 38.878906 47.425781 39.335938 45.183594 C 35.796875 47.398438 33.6875 51.757812 33.722656 55.871094 M 30.433594 48.59375 C 29.363281 49.242188 28.464844 50.09375 28.175781 51.363281 C 29.101562 51.3125 30.035156 51.289062 30.964844 51.304688 L 31.277344 51.535156 C 30.480469 53.417969 29.285156 55.277344 29.425781 57.414062 C 29.628906 62.859375 32.371094 67.964844 35.964844 71.9375 C 36.164062 66.667969 30.816406 63.324219 30.472656 58.148438 C 29.9375 53.964844 35.09375 51.664062 34.5625 47.460938 C 33.628906 48.175781 33.101562 49.546875 31.917969 49.871094 C 31.628906 49.675781 31.046875 49.285156 30.757812 49.085938 C 31.574219 48.371094 32.261719 47.539062 32.675781 46.535156 C 31.257812 46.378906 30.566406 47.316406 30.433594 48.59375 M 24.007812 53.488281 C 23.25 53.417969 22.5 53.351562 21.742188 53.289062 L 21.710938 52.730469 C 20.3125 54.960938 18.59375 57.09375 18.019531 59.730469 C 19.914062 58.085938 21.074219 55.835938 22.269531 53.6875 C 22.628906 54.113281 22.988281 54.546875 23.335938 54.988281 C 22.640625 56.898438 22 59.25 19.683594 59.710938 C 19.75 61.917969 19.917969 64.121094 20.109375 66.324219 C 20.4375 66.511719 21.113281 66.886719 21.445312 67.074219 C 21.527344 68.785156 21.9375 70.460938 22.863281 71.914062 C 22.8125 70.335938 22.953125 68.640625 22.140625 67.214844 C 20.917969 65.007812 21.585938 62.390625 21.5625 60 C 22.378906 60.535156 23.140625 61.25 24.15625 61.386719 C 25.140625 60.15625 23.675781 59.398438 22.972656 58.554688 C 24.433594 54.859375 26.972656 51.714844 28.398438 48.007812 C 25.519531 47.695312 22.992188 50.722656 24.007812 53.488281 M 9.65625 51.585938 C 7.472656 53.007812 4.992188 54.136719 3.4375 56.3125 C 8.167969 56.3125 11.613281 52.472656 14.925781 49.59375 C 13.039062 49.863281 11.25 50.554688 9.65625 51.585938 M 25.628906 55.324219 C 27.460938 55.84375 29.75 55.113281 29.511719 52.859375 C 27.738281 51.710938 26.007812 53.667969 25.628906 55.324219 M 32.445312 55.785156 C 33.261719 59.335938 34.351562 62.84375 35.738281 66.214844 C 37.621094 70.488281 42.636719 71.636719 46.695312 72.796875 C 49.164062 73.621094 51.609375 72.519531 54.082031 72.433594 C 57.140625 72.277344 60.164062 71.566406 63.242188 71.664062 C 60.742188 73.917969 57.195312 74.085938 54.007812 74.414062 C 47.972656 74.769531 41.480469 74.585938 36.214844 71.230469 C 36.621094 72.460938 36.75 74.082031 38.082031 74.730469 C 40.566406 75.757812 43.316406 75.789062 45.964844 75.972656 C 51.777344 76.15625 57.714844 75.871094 63.277344 74.035156 C 65.878906 73.15625 68.714844 71.601562 69.261719 68.648438 C 67.128906 69.4375 65.195312 71.027344 62.816406 70.980469 C 60.761719 71.109375 58.574219 70.730469 56.6875 71.757812 C 50.351562 70.296875 42.722656 71.992188 37.554688 67.222656 C 34.039062 64.285156 36.011719 58.609375 32.445312 55.785156 M 26.324219 56.324219 C 25.1875 59.804688 25.75 63.710938 27.878906 66.703125 C 30.066406 69.816406 32.582031 72.742188 35.386719 75.332031 C 35.386719 72.480469 32.554688 71.425781 30.933594 69.601562 C 28.203125 66.074219 27.417969 61.527344 27.285156 57.175781 C 27.046875 56.964844 26.566406 56.535156 26.324219 56.324219 M 16.878906 60.210938 C 16.304688 63.5625 16.316406 67.472656 19.011719 69.960938 C 18.511719 66.914062 17.917969 63.84375 18.195312 60.738281 C 17.863281 60.601562 17.210938 60.335938 16.878906 60.210938 M 10.554688 67.257812 C 9.789062 68.113281 10.964844 69.335938 11.878906 68.636719 C 13.242188 66.390625 13.972656 63.832031 14.582031 61.296875 C 12.964844 63.082031 11.761719 65.1875 10.554688 67.257812 M 23.046875 61.886719 C 23.4375 67 25.742188 72.84375 30.546875 75.238281 C 29.519531 71.351562 25.140625 69.488281 24.378906 65.507812 C 23.972656 64.289062 24.390625 62.585938 23.046875 61.886719 M 4.613281 68.4375 C 3.136719 68.085938 3.386719 69.785156 3.539062 70.601562 C 5.890625 70.316406 8.242188 70.527344 10.371094 71.628906 C 10.136719 70.539062 10.289062 69.128906 9.230469 68.425781 C 7.863281 67.417969 6.121094 68.296875 4.613281 68.4375 M 11.210938 70.085938 C 11.121094 72.203125 13.15625 73.390625 14.378906 74.816406 C 15.261719 75.464844 16.195312 77.128906 17.414062 76.214844 C 17.304688 74.953125 16.027344 74.167969 15.371094 73.167969 C 14.15625 71.988281 13.148438 70.007812 11.210938 70.085938 M 5.121094 72.304688 C 5.796875 73.371094 6.554688 74.851562 8.109375 74.414062 C 9.636719 74.914062 8.835938 72.59375 8.121094 72.230469 C 7.335938 71.140625 6.09375 72.085938 5.121094 72.304688 M 3.082031 73.6875 C 3.085938 74.433594 3.109375 75.90625 3.113281 76.640625 C 4.519531 76.621094 5.925781 76.59375 7.332031 76.546875 C 5.972656 75.511719 4.546875 74.574219 3.082031 73.6875 M 11.039062 75.1875 C 10.695312 76.011719 12.027344 76.863281 12.675781 76.304688 C 13.019531 75.480469 11.6875 74.640625 11.039062 75.1875 Z M 11.039062 75.1875 "/>
    <path style=" stroke:none;fill-rule:nonzero;fill:rgb(0.392157%,14.509804%,34.117647%);fill-opacity:1;" d="M 58.5625 31.066406 C 59.609375 30.988281 60.664062 31.082031 61.714844 31.121094 C 55.257812 34.460938 48.945312 38.714844 45.011719 44.988281 C 42.390625 48.917969 40.167969 53.371094 40.269531 58.214844 C 39.242188 58.101562 38.230469 57.980469 37.203125 57.878906 C 37.460938 56.214844 37.667969 54.539062 38.164062 52.933594 C 41.769531 43.304688 49.527344 35.738281 58.5625 31.066406 Z M 58.5625 31.066406 "/>
    <path style=" stroke:none;fill-rule:nonzero;fill:rgb(0.392157%,14.509804%,34.117647%);fill-opacity:1;" d="M 66.242188 31.109375 C 74.269531 30.960938 82.3125 31.019531 90.335938 31.074219 C 100.011719 33.464844 108.832031 40.0625 112.703125 49.398438 C 116.480469 57.804688 116.304688 67.183594 116.378906 76.195312 C 117.386719 76.351562 117.351562 74.914062 117.722656 74.289062 C 119.011719 70.804688 116.398438 67.222656 117.914062 63.714844 C 120.285156 67.5 119.417969 72.164062 118.851562 76.332031 C 119.636719 76.1875 121.359375 76.769531 120.546875 75.046875 C 120.222656 70.488281 121.285156 65.695312 119.640625 61.3125 C 119.203125 60.511719 118.722656 59.738281 118.257812 58.953125 C 118.433594 59 118.789062 59.09375 118.964844 59.136719 C 119.378906 59.304688 120.203125 59.636719 120.613281 59.804688 C 120.5 65.492188 120.742188 71.1875 120.613281 76.878906 C 117.886719 76.742188 115.128906 77.109375 112.417969 76.683594 C 113.230469 71.511719 112.378906 66.257812 113.113281 61.082031 C 114.972656 65.933594 114.101562 71.121094 114.398438 76.148438 C 115.546875 73.4375 115.640625 70.453125 115.757812 67.5625 C 115.761719 64.414062 115.835938 60.6875 112.960938 58.664062 C 113.046875 57.511719 113.277344 56.351562 113.039062 55.210938 C 111.664062 49.878906 109.011719 44.769531 104.871094 41.0625 C 96.738281 33.648438 85.214844 30.65625 74.398438 31.628906 C 66.535156 32.285156 58.964844 35.675781 53.351562 41.238281 C 52.648438 41.011719 51.945312 40.789062 51.25 40.566406 C 49.238281 42.804688 47.59375 45.460938 47.113281 48.480469 C 46.628906 51.695312 46.25 55.609375 49.085938 57.886719 C 49.417969 57.109375 49.742188 56.332031 50.074219 55.554688 C 52.390625 56.121094 54.816406 56.082031 56.785156 54.5625 C 60.5 54.859375 64.285156 54.816406 67.890625 53.769531 C 71.433594 52.914062 75.34375 51.34375 78.898438 52.964844 C 80.289062 55.304688 78.664062 58.777344 76.316406 59.972656 C 73.621094 61.304688 70.777344 62.464844 68.636719 64.664062 C 67.84375 64.164062 67.054688 63.664062 66.269531 63.164062 C 60.054688 66.425781 52.257812 66.945312 45.714844 64.378906 C 42.832031 63.371094 42.390625 60.074219 41.972656 57.472656 C 41.804688 55.480469 41.066406 53.039062 42.683594 51.4375 C 45.722656 48.269531 47.277344 44.007812 50.417969 40.925781 C 54.757812 36.34375 60.507812 33.519531 66.242188 31.109375 M 44.101562 52.238281 C 43.8125 54.890625 43.535156 57.886719 45.074219 60.238281 C 46.824219 62.601562 49.964844 63.101562 52.703125 63.359375 C 58.832031 63.648438 64.988281 62.535156 70.796875 60.640625 C 73.636719 59.613281 76.796875 58.261719 78.203125 55.40625 C 78.238281 54.085938 76.757812 53.675781 75.683594 53.804688 C 71 54.128906 66.789062 56.613281 62.109375 56.953125 C 59.546875 57.148438 57.007812 56.296875 54.453125 56.785156 C 56.667969 58.886719 60.035156 58.574219 62.863281 58.636719 C 67.648438 58.59375 71.710938 55.6875 76.316406 54.863281 C 75.507812 56.953125 73.3125 57.75 71.453125 58.621094 C 67.890625 60.082031 64.082031 61.277344 60.203125 61.09375 C 57.128906 60.945312 54.710938 58.898438 51.953125 57.84375 C 51.304688 57.195312 49.695312 58.230469 50.417969 58.9375 C 51.960938 61.445312 55.304688 61.074219 57.777344 61.835938 C 54.433594 62.832031 50.121094 62.554688 47.804688 59.621094 C 45.988281 57.460938 45.945312 54.363281 44.101562 52.238281 Z M 44.101562 52.238281 "/>
    <path style=" stroke:none;fill-rule:nonzero;fill:rgb(0.392157%,14.509804%,34.117647%);fill-opacity:1;" d="M 96.257812 31.1875 C 97.332031 31.113281 98.414062 31.046875 99.492188 30.980469 C 105.335938 34.613281 110.59375 39.277344 114.511719 44.960938 C 116.164062 47.324219 116.3125 50.3125 117.507812 52.871094 C 118.007812 54.054688 118.75 55.167969 118.898438 56.472656 C 118.035156 56.472656 117.167969 56.425781 116.3125 56.371094 C 116.0625 52.546875 115.539062 48.59375 113.488281 45.261719 C 109.613281 38.667969 102.621094 34.953125 96.257812 31.1875 Z M 96.257812 31.1875 "/>
    <path style=" stroke:none;fill-rule:nonzero;fill:rgb(0.392157%,14.509804%,34.117647%);fill-opacity:1;" d="M 103.167969 31.136719 C 103.9375 31.09375 104.710938 31.046875 105.480469 31.007812 C 107.710938 33.816406 111.289062 35.121094 113.359375 38.046875 C 108.785156 37.992188 106.390625 33.65625 103.167969 31.136719 Z M 103.167969 31.136719 "/>
    <path style=" stroke:none;fill-rule:nonzero;fill:rgb(0.392157%,14.509804%,34.117647%);fill-opacity:1;" d="M 109.039062 31.167969 C 109.878906 31.121094 110.714844 31.074219 111.554688 31.035156 C 114.054688 33.277344 116.546875 35.601562 118.214844 38.5625 C 118.871094 39.417969 119.195312 40.667969 120.214844 41.183594 C 121.164062 39.121094 119.371094 37.316406 118.238281 35.789062 C 116.960938 34.222656 115.722656 32.613281 114.664062 30.890625 L 115.019531 31.140625 C 117.101562 32.535156 118.804688 34.390625 120.585938 36.128906 C 120.511719 35.554688 120.371094 34.390625 120.296875 33.8125 C 119.664062 32.507812 118.214844 31.933594 117.113281 31.09375 C 117.613281 31.128906 118.613281 31.1875 119.113281 31.222656 C 119.730469 32.113281 120.109375 32.066406 120.238281 31.066406 L 120.667969 31.269531 C 120.621094 38.15625 120.609375 45.035156 120.554688 51.925781 C 118.992188 51.664062 117.8125 50.796875 117.683594 49.15625 C 118.390625 49.1875 119.796875 49.242188 120.5 49.269531 C 120.507812 47.925781 120.507812 46.582031 120.511719 45.238281 C 116.683594 40.539062 114.304688 34.582031 109.039062 31.167969 Z M 109.039062 31.167969 "/>
    <path style=" stroke:none;fill-rule:nonzero;fill:rgb(0.392157%,14.509804%,34.117647%);fill-opacity:1;" d="M 76.261719 33.832031 C 77.351562 33.007812 78.664062 33.1875 79.722656 33.960938 C 80.566406 33.527344 81.414062 33.5 82.257812 33.878906 C 82.675781 34.925781 81.730469 35.574219 81.148438 36.277344 C 80.804688 36.0625 80.113281 35.621094 79.769531 35.40625 C 78.417969 35.59375 76.414062 35.65625 76.261719 33.832031 Z M 76.261719 33.832031 "/>
    <path style=" stroke:none;fill-rule:nonzero;fill:rgb(0.392157%,14.509804%,34.117647%);fill-opacity:1;" d="M 65.007812 35.464844 C 68.417969 34.714844 71.789062 33.214844 75.359375 33.757812 C 73.621094 35.90625 70.601562 35.585938 68.230469 36.492188 C 66.914062 36.832031 66.324219 38.203125 65.351562 39.019531 C 63.492188 39.65625 61.230469 39.335938 59.703125 40.761719 C 57.601562 42.738281 56.871094 45.628906 55.621094 48.136719 C 54.742188 50.027344 53.257812 51.539062 52.019531 53.1875 C 55.8125 52.761719 56.238281 48.546875 58.167969 46.0625 C 60.351562 43.425781 63.34375 41.539062 66.460938 40.1875 C 67.488281 39.601562 68.601562 40.066406 69.664062 40.277344 C 71.074219 39.9375 72.980469 38.445312 73.914062 40.289062 C 69.257812 41.816406 64.066406 42.742188 60.445312 46.316406 C 58.804688 47.871094 58.675781 50.289062 57.601562 52.183594 C 55.757812 53.730469 53.488281 54.863281 51.035156 54.925781 C 51.09375 50.621094 53.035156 46.648438 55.1875 43.027344 C 56.675781 40.488281 59.296875 38.917969 61.785156 37.5 C 63.285156 37.507812 65.082031 39.582031 65.832031 37.230469 C 65.183594 37.113281 63.886719 36.886719 63.230469 36.769531 C 63.761719 36.269531 64.230469 35.59375 65.007812 35.464844 Z M 65.007812 35.464844 "/>
    <path style=" stroke:none;fill-rule:nonzero;fill:rgb(0.392157%,14.509804%,34.117647%);fill-opacity:1;" d="M 89.898438 34.574219 C 93.460938 35.074219 96.742188 36.796875 99.65625 38.859375 C 106.804688 44.085938 110.960938 52.75 111.5625 61.492188 C 112.066406 66.613281 110.511719 71.65625 110.925781 76.785156 C 110.488281 76.757812 109.601562 76.695312 109.164062 76.664062 C 110.757812 70.183594 111.230469 63.296875 109.414062 56.804688 C 107.085938 47.816406 100.527344 39.832031 91.683594 36.664062 C 90.988281 36.210938 88.742188 35.667969 89.898438 34.574219 Z M 89.898438 34.574219 "/>
    <path style=" stroke:none;fill-rule:nonzero;fill:rgb(0.392157%,14.509804%,34.117647%);fill-opacity:1;" d="M 72.230469 37.804688 C 71.871094 36.472656 73.648438 36.933594 74.335938 36.730469 C 76.148438 36.585938 78.035156 36.9375 79.175781 38.472656 C 79.917969 38.945312 80.664062 39.425781 81.386719 39.933594 C 80.4375 39.917969 79.554688 39.675781 78.742188 39.195312 C 76.613281 40.230469 73.613281 39.804688 72.230469 37.804688 Z M 72.230469 37.804688 "/>
    <path style=" stroke:none;fill-rule:nonzero;fill:rgb(0.392157%,14.509804%,34.117647%);fill-opacity:1;" d="M 81.066406 36.886719 C 87.304688 37.019531 93.769531 38.519531 98.738281 42.464844 C 103.964844 46.574219 106.878906 52.90625 108.453125 59.222656 C 109.8125 65.074219 107.8125 70.933594 107.054688 76.714844 C 106.214844 76.664062 105.371094 76.609375 104.527344 76.5625 C 104.992188 75.730469 104.933594 75.074219 104.363281 74.574219 C 103.785156 75.121094 103.566406 75.8125 103.714844 76.640625 C 103.164062 76.636719 102.0625 76.621094 101.507812 76.613281 C 102.601562 73.371094 102.769531 69.925781 103.488281 66.59375 C 104.703125 68.5 104.433594 70.816406 104.914062 72.933594 C 105.804688 74.257812 105.992188 71.925781 106.414062 71.425781 C 108.417969 65.1875 107.84375 57.992188 104.40625 52.359375 C 103.960938 51.816406 103.675781 50.898438 102.878906 50.835938 C 102.914062 56.371094 105.953125 61.539062 105.210938 67.1875 C 104.722656 66.628906 103.703125 66.371094 103.613281 65.535156 C 103.203125 62.175781 103.613281 58.730469 102.789062 55.414062 C 102.335938 53.183594 101.082031 51.242188 99.890625 49.34375 C 99.15625 49.257812 98.414062 49.164062 97.675781 49.074219 C 95.101562 44.535156 89.5625 43.453125 86.167969 39.75 C 91.324219 39.914062 95.933594 42.945312 99.011719 46.9375 C 100.046875 48.039062 100.851562 49.742188 102.527344 49.90625 C 103.074219 47.964844 100.898438 47.214844 99.796875 46.164062 C 95.664062 42.84375 91.621094 38.417969 85.890625 38.40625 C 85.582031 38.859375 84.964844 39.757812 84.664062 40.210938 C 82.9375 39.769531 81.90625 38.351562 81.066406 36.886719 Z M 81.066406 36.886719 "/>
    <path style=" stroke:none;fill-rule:nonzero;fill:rgb(0.392157%,14.509804%,34.117647%);fill-opacity:1;" d="M 77.9375 41.460938 C 79.261719 41 80.640625 41.683594 81.945312 41.917969 C 80.6875 42.898438 79.101562 44.742188 77.371094 43.535156 C 76.316406 43.269531 77.085938 41.566406 77.9375 41.460938 Z M 77.9375 41.460938 "/>
    <path style=" stroke:none;fill-rule:nonzero;fill:rgb(0.392157%,14.509804%,34.117647%);fill-opacity:1;" d="M 68.628906 42.863281 C 71.136719 42.289062 73.992188 41.316406 76.460938 42.460938 C 76.433594 42.8125 76.363281 43.507812 76.332031 43.859375 C 73.609375 44.636719 70.621094 44.359375 68.039062 45.667969 C 65.378906 46.757812 63.5 49.140625 60.785156 50.121094 C 61.277344 46.222656 65.261719 44.027344 68.628906 42.863281 Z M 68.628906 42.863281 "/>
    <path style=" stroke:none;fill-rule:nonzero;fill:rgb(0.392157%,14.509804%,34.117647%);fill-opacity:1;" d="M 48.777344 46.066406 C 50.039062 44.613281 51.277344 43.074219 53 42.128906 C 52.8125 44.242188 51.640625 46.007812 50.519531 47.730469 C 48.914062 50.035156 49.417969 53 48.824219 55.613281 C 46.917969 52.785156 49.039062 49.210938 48.777344 46.066406 Z M 48.777344 46.066406 "/>
    <path style=" stroke:none;fill-rule:nonzero;fill:rgb(73.333333%,73.72549%,75.686275%);fill-opacity:1;" d="M 361.289062 3.066406 C 368.011719 3.0625 374.738281 3.066406 381.460938 3.0625 C 381.59375 12.804688 381.738281 22.546875 381.84375 32.289062 C 394.242188 32.414062 406.640625 32.5625 419.039062 32.664062 C 419.035156 22.796875 419.046875 12.933594 419.035156 3.066406 C 426.007812 3.0625 432.972656 3.066406 439.945312 3.066406 C 439.945312 27.601562 439.945312 52.128906 439.945312 76.664062 C 432.972656 76.65625 426 76.683594 419.027344 76.648438 C 419.054688 66.789062 419.035156 56.925781 419.039062 47.066406 C 406.640625 47.167969 394.242188 47.316406 381.84375 47.4375 C 381.738281 57.183594 381.59375 66.925781 381.460938 76.667969 C 374.738281 76.664062 368.011719 76.667969 361.289062 76.664062 C 361.285156 52.128906 361.285156 27.601562 361.289062 3.066406 Z M 361.289062 3.066406 "/>
    <path style=" stroke:none;fill-rule:nonzero;fill:rgb(73.333333%,73.72549%,75.686275%);fill-opacity:1;" d="M 454.414062 3.066406 C 465.101562 3.082031 475.796875 3.011719 486.488281 3.136719 C 493.554688 3.210938 500.648438 3.085938 507.683594 3.925781 C 514.785156 4.769531 521.75 7.851562 526.695312 13.09375 C 531.082031 17.636719 534.539062 23.242188 535.953125 29.4375 C 536.816406 34.445312 536.6875 39.566406 536.425781 44.628906 C 535.988281 55.527344 529.785156 66.257812 520.085938 71.460938 C 512.167969 76.007812 502.816406 76.359375 493.925781 76.535156 C 480.757812 76.75 467.582031 76.636719 454.414062 76.664062 C 454.414062 52.128906 454.414062 27.59375 454.414062 3.066406 M 475.316406 63.140625 C 481.738281 62.917969 488.167969 62.816406 494.585938 62.425781 C 497.574219 62.1875 500.628906 62.019531 503.460938 60.945312 C 510.5625 58.195312 515.40625 50.851562 515.242188 43.25 C 515.371094 38.371094 515.480469 33.3125 513.722656 28.675781 C 511.488281 23.1875 506.378906 18.945312 500.507812 17.933594 C 492.230469 16.277344 483.722656 16.914062 475.335938 16.75 C 475.289062 32.210938 475.332031 47.675781 475.316406 63.140625 Z M 475.316406 63.140625 "/>
    <path style=" stroke:none;fill-rule:nonzero;fill:rgb(100%,100%,100%);fill-opacity:1;" d="M 9.101562 21.390625 C 9.113281 17.128906 9.066406 12.859375 9.136719 8.585938 C 15.761719 8.65625 22.390625 8.535156 29.011719 8.636719 C 31.609375 8.453125 33.769531 10.953125 33.289062 13.492188 C 33.085938 15.582031 31.128906 16.738281 29.285156 17.195312 C 31.34375 18.5 33.3125 19.925781 35.25 21.390625 C 31.953125 21.40625 28.648438 21.414062 25.34375 21.371094 C 23.230469 19.777344 21.527344 17.101562 18.621094 17.039062 C 18.609375 18.492188 18.601562 19.9375 18.601562 21.390625 C 15.433594 21.398438 12.269531 21.398438 9.101562 21.390625 M 18.613281 11.511719 C 18.609375 12.480469 18.601562 13.453125 18.601562 14.425781 C 20.285156 14.414062 21.980469 14.511719 23.648438 14.261719 C 24.535156 13.640625 24.554688 12.121094 23.492188 11.667969 C 21.878906 11.433594 20.242188 11.535156 18.613281 11.511719 Z M 18.613281 11.511719 "/>
    <path style=" stroke:none;fill-rule:nonzero;fill:rgb(100%,100%,100%);fill-opacity:1;" d="M 49.324219 8.65625 C 57.472656 8.546875 65.621094 8.628906 73.761719 8.609375 C 73.761719 9.609375 73.761719 10.613281 73.769531 11.621094 C 71.417969 11.621094 69.066406 11.628906 66.714844 11.613281 C 66.636719 14.871094 66.648438 18.136719 66.65625 21.398438 C 63.269531 21.390625 59.886719 21.425781 56.5 21.359375 C 56.535156 18.113281 56.511719 14.871094 56.519531 11.628906 C 54.121094 11.621094 51.722656 11.621094 49.324219 11.621094 C 49.324219 10.636719 49.324219 9.640625 49.324219 8.65625 Z M 49.324219 8.65625 "/>
    <path style=" stroke:none;fill-rule:nonzero;fill:rgb(100%,100%,100%);fill-opacity:1;" d="M 89.109375 8.648438 C 92.738281 8.648438 96.371094 8.648438 100 8.648438 C 100 11.917969 100 15.195312 100 18.464844 C 104.648438 18.464844 109.304688 18.464844 113.953125 18.464844 C 113.953125 19.445312 113.953125 20.417969 113.953125 21.398438 C 105.6875 21.414062 97.425781 21.371094 89.164062 21.414062 C 89.054688 17.164062 89.128906 12.90625 89.109375 8.648438 Z M 89.109375 8.648438 "/>
    <path style=" stroke:none;fill-rule:nonzero;fill:rgb(100%,100%,100%);fill-opacity:1;" d="M 152.761719 16.214844 C 156.804688 13.890625 161.714844 13.59375 166.242188 14.167969 C 170.59375 14.835938 175.113281 17.296875 176.714844 21.613281 C 177.953125 24.785156 176.886719 28.140625 176.214844 31.304688 C 172.351562 31.3125 168.492188 31.304688 164.628906 31.304688 C 164.933594 29.128906 165.804688 26.84375 165.09375 24.667969 C 164.214844 22.675781 161.511719 22.628906 159.769531 23.359375 C 157.65625 24.378906 156.84375 26.785156 156.335938 28.914062 C 154.804688 35.8125 153.3125 42.714844 151.785156 49.613281 C 151.453125 51.433594 151.039062 53.582031 152.269531 55.164062 C 153.9375 57.09375 157.480469 56.953125 158.871094 54.738281 C 160.464844 52.277344 160.621094 49.230469 161.277344 46.4375 C 165.136719 46.445312 168.992188 46.4375 172.851562 46.4375 C 171.886719 50.90625 171.417969 55.804688 168.359375 59.445312 C 164.511719 64.203125 157.886719 65.621094 152.054688 64.933594 C 148.925781 64.574219 146.128906 62.972656 143.761719 60.964844 C 142.140625 59.492188 139.90625 59.3125 137.824219 59.195312 C 138.257812 57.972656 138.675781 56.75 138.960938 55.488281 C 140.980469 46.3125 142.9375 37.121094 145 27.953125 C 146.0625 23.304688 148.488281 18.640625 152.761719 16.214844 Z M 152.761719 16.214844 "/>
    <path style=" stroke:none;fill-rule:nonzero;fill:rgb(100%,100%,100%);fill-opacity:1;" d="M 176.769531 64.1875 C 180.34375 47.695312 183.859375 31.1875 187.492188 14.710938 C 192.5625 14.785156 197.636719 14.648438 202.710938 14.777344 C 207.363281 14.863281 212.230469 16.878906 214.761719 20.945312 C 217.472656 25.136719 217.1875 30.554688 215.480469 35.066406 C 214.074219 39.164062 211.230469 42.742188 207.398438 44.804688 C 208.074219 51.269531 208.816406 57.722656 209.511719 64.1875 C 205.507812 64.183594 201.5 64.203125 197.492188 64.167969 C 197.195312 58.398438 196.863281 52.628906 196.535156 46.859375 C 195.074219 46.890625 193.621094 46.925781 192.164062 46.953125 C 190.9375 52.695312 189.714844 58.4375 188.492188 64.1875 C 184.585938 64.1875 180.675781 64.1875 176.769531 64.1875 M 196.953125 23.785156 C 195.851562 28.527344 194.890625 33.304688 193.835938 38.0625 C 196.640625 37.886719 199.945312 38.777344 202.269531 36.738281 C 205.398438 34.113281 207.019531 29.195312 204.851562 25.511719 C 203.128906 22.960938 199.574219 23.507812 196.953125 23.785156 Z M 196.953125 23.785156 "/>
    <path style=" stroke:none;fill-rule:nonzero;fill:rgb(100%,100%,100%);fill-opacity:1;" d="M 227.75 14.730469 C 231.609375 14.730469 235.472656 14.730469 239.332031 14.730469 C 235.738281 31.214844 232.167969 47.710938 228.5625 64.1875 C 224.703125 64.183594 220.835938 64.203125 216.980469 64.175781 C 220.585938 47.703125 224.148438 31.210938 227.75 14.730469 Z M 227.75 14.730469 "/>
    <path style=" stroke:none;fill-rule:nonzero;fill:rgb(100%,100%,100%);fill-opacity:1;" d="M 249.546875 14.738281 C 255.074219 14.714844 260.59375 14.738281 266.121094 14.730469 C 266.34375 24.507812 266.433594 34.285156 266.730469 44.054688 C 270.535156 34.363281 273.757812 24.445312 277.4375 14.703125 C 283.195312 14.757812 288.953125 14.710938 294.710938 14.730469 C 291.136719 31.136719 287.683594 47.566406 284.027344 63.953125 C 280.519531 64.527344 276.710938 64.019531 273.085938 64.1875 C 275.242188 54.113281 278.0625 44.167969 279.84375 34.019531 C 278.351562 34.5625 278.027344 36.15625 277.488281 37.445312 C 274.046875 46.378906 270.566406 55.289062 267.082031 64.203125 C 264.027344 64.183594 260.972656 64.1875 257.925781 64.1875 C 257.664062 54.277344 257.832031 44.332031 257.269531 34.4375 C 256.167969 33.242188 256.011719 35.835938 255.703125 36.488281 C 253.722656 45.722656 251.664062 54.933594 249.695312 64.167969 C 245.988281 64.210938 242.285156 64.183594 238.582031 64.1875 C 242.230469 47.703125 245.90625 31.222656 249.546875 14.738281 Z M 249.546875 14.738281 "/>
    <path style=" stroke:none;fill-rule:nonzero;fill:rgb(100%,100%,100%);fill-opacity:1;" d="M 304.925781 14.738281 C 313.5 14.714844 322.074219 14.730469 330.648438 14.730469 C 330.046875 17.675781 329.433594 20.613281 328.835938 23.554688 C 324.203125 23.5625 319.566406 23.554688 314.9375 23.5625 C 314.101562 27.15625 313.285156 30.761719 312.4375 34.359375 C 316.546875 34.378906 320.648438 34.363281 324.757812 34.371094 C 324.0625 37.363281 323.398438 40.371094 322.640625 43.351562 C 318.601562 43.324219 314.566406 43.3125 310.535156 43.359375 C 309.714844 47.386719 308.835938 51.390625 307.992188 55.40625 C 311.945312 55.40625 315.90625 55.40625 319.859375 55.40625 C 319.285156 58.332031 318.695312 61.257812 318.128906 64.183594 C 310.214844 64.195312 302.304688 64.1875 294.386719 64.1875 C 297.898438 47.703125 301.425781 31.222656 304.925781 14.738281 Z M 304.925781 14.738281 "/>
    <path style=" stroke:none;fill-rule:nonzero;fill:rgb(18.431373%,57.254902%,79.607843%);fill-opacity:1;" d="M 9.640625 31.15625 C 11.214844 30.914062 12.859375 30.863281 14.425781 31.148438 C 14.960938 31.386719 16.027344 31.871094 16.5625 32.113281 C 12.507812 35.453125 7.878906 37.980469 3.480469 40.816406 C 3.386719 40.101562 3.296875 39.386719 3.203125 38.667969 C 7.511719 36.933594 12.046875 35.15625 15.109375 31.472656 C 13.675781 31.628906 12.214844 31.667969 10.832031 32.066406 C 9.472656 32.761719 8.554688 34.085938 7.203125 34.785156 C 5.863281 35.242188 4.445312 35.40625 3.0625 35.667969 C 3.09375 35.0625 3.167969 33.835938 3.203125 33.230469 C 5.351562 32.546875 7.472656 31.785156 9.640625 31.15625 Z M 9.640625 31.15625 "/>
    <path style=" stroke:none;fill-rule:nonzero;fill:rgb(18.431373%,57.254902%,79.607843%);fill-opacity:1;" d="M 18.722656 31.128906 C 19.480469 31.035156 20.238281 30.972656 21 30.945312 C 19.40625 32.8125 18.085938 34.914062 16.324219 36.636719 C 14.492188 38.082031 12.140625 38.640625 10.238281 39.980469 C 8.371094 41.167969 6.859375 42.988281 4.683594 43.613281 C 3.257812 43.8125 2.886719 43.316406 3.566406 42.128906 C 6.539062 40.25 9.972656 39.167969 12.851562 37.109375 C 15.277344 35.613281 16.84375 33.1875 18.722656 31.128906 Z M 18.722656 31.128906 "/>
    <path style=" stroke:none;fill-rule:nonzero;fill:rgb(18.431373%,57.254902%,79.607843%);fill-opacity:1;" d="M 24.832031 31.074219 C 25.6875 31.035156 26.546875 30.992188 27.414062 30.953125 C 25.640625 32.296875 24.175781 33.964844 22.878906 35.761719 C 21.527344 37.75 18.917969 38 17.054688 39.316406 C 14.035156 41.460938 11.742188 44.453125 8.769531 46.664062 C 7.082031 47.9375 4.933594 48.261719 2.9375 48.832031 C 2.980469 48.425781 3.0625 47.621094 3.101562 47.214844 C 4.8125 46.335938 6.628906 45.6875 8.3125 44.761719 C 10.175781 43.761719 11.359375 41.953125 12.859375 40.519531 C 16.5 36.925781 21.914062 35.453125 24.832031 31.074219 Z M 24.832031 31.074219 "/>
    <path style=" stroke:none;fill-rule:nonzero;fill:rgb(18.431373%,57.254902%,79.607843%);fill-opacity:1;" d="M 30.917969 31.1875 C 31.398438 31.128906 32.363281 31.007812 32.84375 30.953125 C 31.332031 32.953125 29.730469 34.964844 27.5625 36.304688 C 25.039062 38.027344 21.789062 39 20.242188 41.84375 C 19.378906 43.4375 17.269531 43.335938 15.933594 44.359375 C 13.164062 46.445312 11.554688 50.0625 8.0625 51.15625 C 6.203125 51.761719 4.507812 52.742188 2.945312 53.914062 C 3 53.390625 3.121094 52.359375 3.183594 51.835938 C 4.574219 50.566406 6.269531 49.738281 8.019531 49.082031 C 11.09375 47.960938 12.917969 45.082031 15.285156 43 C 17.664062 40.664062 20.9375 39.675781 23.585938 37.722656 C 26.242188 35.789062 28.460938 33.351562 30.917969 31.1875 Z M 30.917969 31.1875 "/>
    <path style=" stroke:none;fill-rule:nonzero;fill:rgb(18.431373%,57.254902%,79.607843%);fill-opacity:1;" d="M 36.730469 31.1875 C 37.960938 30.75 39.316406 31.136719 40.582031 31.164062 C 39.488281 31.519531 38.398438 31.898438 37.296875 32.257812 C 37.222656 32.546875 37.082031 33.128906 37.007812 33.417969 C 37.433594 33.648438 38.285156 34.109375 38.710938 34.335938 C 38.019531 34.664062 37.335938 34.988281 36.65625 35.316406 C 37.257812 33.742188 35.695312 32.960938 34.777344 32.15625 C 35.425781 31.824219 36.074219 31.5 36.730469 31.1875 Z M 36.730469 31.1875 "/>
    <path style=" stroke:none;fill-rule:nonzero;fill:rgb(18.431373%,57.254902%,79.607843%);fill-opacity:1;" d="M 43.09375 31.085938 L 43.1875 30.992188 C 44.316406 31 45.445312 31.011719 46.574219 31.019531 C 43.988281 33.359375 41.136719 35.460938 37.796875 36.574219 C 39.460938 34.640625 41.289062 32.871094 43.09375 31.085938 Z M 43.09375 31.085938 "/>
    <path style=" stroke:none;fill-rule:nonzero;fill:rgb(18.431373%,57.254902%,79.607843%);fill-opacity:1;" d="M 48.324219 31.210938 C 49.304688 30.980469 50.3125 30.90625 51.34375 30.992188 C 49.140625 32.648438 46.769531 34.085938 44.683594 35.898438 C 40.988281 39.066406 39.121094 43.898438 35.0625 46.695312 C 36.566406 43.90625 38.304688 41.25 39.972656 38.554688 C 41.964844 35.335938 45.269531 33.296875 48.324219 31.210938 Z M 48.324219 31.210938 "/>
    <path style=" stroke:none;fill-rule:nonzero;fill:rgb(18.431373%,57.254902%,79.607843%);fill-opacity:1;" d="M 53.675781 31.15625 C 55.277344 30.835938 56.933594 31.039062 58.5625 31.066406 C 49.527344 35.738281 41.769531 43.304688 38.164062 52.933594 C 37.667969 54.539062 37.460938 56.214844 37.203125 57.878906 C 38.230469 57.980469 39.242188 58.101562 40.269531 58.214844 C 40.167969 53.371094 42.390625 48.917969 45.011719 44.988281 C 48.945312 38.714844 55.257812 34.460938 61.714844 31.121094 C 63.210938 30.859375 64.742188 31.039062 66.242188 31.109375 C 60.507812 33.519531 54.757812 36.34375 50.417969 40.925781 C 47.277344 44.007812 45.722656 48.269531 42.683594 51.4375 C 41.066406 53.039062 41.804688 55.480469 41.972656 57.472656 C 42.390625 60.074219 42.832031 63.371094 45.714844 64.378906 C 52.257812 66.945312 60.054688 66.425781 66.269531 63.164062 C 67.054688 63.664062 67.84375 64.164062 68.636719 64.664062 C 70.777344 62.464844 73.621094 61.304688 76.316406 59.972656 C 78.664062 58.777344 80.289062 55.304688 78.898438 52.964844 C 75.34375 51.34375 71.433594 52.914062 67.890625 53.769531 C 64.285156 54.816406 60.5 54.859375 56.785156 54.5625 C 54.816406 56.082031 52.390625 56.121094 50.074219 55.554688 C 49.742188 56.332031 49.417969 57.109375 49.085938 57.886719 C 46.25 55.609375 46.628906 51.695312 47.113281 48.480469 C 47.59375 45.460938 49.238281 42.804688 51.25 40.566406 C 51.945312 40.789062 52.648438 41.011719 53.351562 41.238281 C 58.964844 35.675781 66.535156 32.285156 74.398438 31.628906 C 85.214844 30.65625 96.738281 33.648438 104.871094 41.0625 C 109.011719 44.769531 111.664062 49.878906 113.039062 55.210938 C 113.277344 56.351562 113.046875 57.511719 112.960938 58.664062 C 115.835938 60.6875 115.761719 64.414062 115.757812 67.5625 C 115.640625 70.453125 115.546875 73.4375 114.398438 76.148438 C 114.101562 71.121094 114.972656 65.933594 113.113281 61.082031 C 112.378906 66.257812 113.230469 71.511719 112.417969 76.683594 C 112.039062 76.710938 111.296875 76.757812 110.925781 76.785156 C 110.511719 71.65625 112.066406 66.613281 111.5625 61.492188 C 110.960938 52.75 106.804688 44.085938 99.65625 38.859375 C 96.742188 36.796875 93.460938 35.074219 89.898438 34.574219 C 88.742188 35.667969 90.988281 36.210938 91.683594 36.664062 C 100.527344 39.832031 107.085938 47.816406 109.414062 56.804688 C 111.230469 63.296875 110.757812 70.183594 109.164062 76.664062 C 108.636719 76.675781 107.582031 76.703125 107.054688 76.714844 C 107.8125 70.933594 109.8125 65.074219 108.453125 59.222656 C 106.878906 52.90625 103.964844 46.574219 98.738281 42.464844 C 93.769531 38.519531 87.304688 37.019531 81.066406 36.886719 C 81.90625 38.351562 82.9375 39.769531 84.664062 40.210938 C 84.964844 39.757812 85.582031 38.859375 85.890625 38.40625 C 91.621094 38.417969 95.664062 42.84375 99.796875 46.164062 C 100.898438 47.214844 103.074219 47.964844 102.527344 49.90625 C 100.851562 49.742188 100.046875 48.039062 99.011719 46.9375 C 95.933594 42.945312 91.324219 39.914062 86.167969 39.75 C 89.5625 43.453125 95.101562 44.535156 97.675781 49.074219 C 98.414062 49.164062 99.15625 49.257812 99.890625 49.34375 C 101.082031 51.242188 102.335938 53.183594 102.789062 55.414062 C 103.613281 58.730469 103.203125 62.175781 103.613281 65.535156 C 103.703125 66.371094 104.722656 66.628906 105.210938 67.1875 C 105.953125 61.539062 102.914062 56.371094 102.878906 50.835938 C 103.675781 50.898438 103.960938 51.816406 104.40625 52.359375 C 107.84375 57.992188 108.417969 65.1875 106.414062 71.425781 C 105.992188 71.925781 105.804688 74.257812 104.914062 72.933594 C 104.433594 70.816406 104.703125 68.5 103.488281 66.59375 C 102.769531 69.925781 102.601562 73.371094 101.507812 76.613281 C 101.121094 76.648438 100.351562 76.714844 99.972656 76.742188 C 102.804688 69.109375 102.582031 60.519531 99.859375 52.890625 C 99.5 51.757812 98.582031 50.964844 97.742188 50.1875 C 98.011719 53.574219 99.710938 56.664062 99.785156 60.074219 C 99.960938 65.269531 99.6875 70.675781 97.703125 75.539062 C 97.519531 76.675781 96.285156 76.777344 95.460938 76.25 C 95.738281 73.046875 100.757812 69.933594 97.6875 66.710938 C 96.804688 69.585938 96.257812 72.613281 94.804688 75.285156 C 94.4375 76.039062 93.574219 76.988281 92.757812 76.210938 C 94.324219 71.730469 97.664062 67.730469 98.085938 62.898438 C 97.15625 58.214844 96.648438 53.398438 95.121094 48.859375 C 94.09375 45.710938 91.019531 43.925781 87.878906 43.535156 C 90.640625 46.324219 93.917969 48.972656 94.953125 52.953125 C 97.335938 61.140625 93.785156 69.535156 89.832031 76.609375 C 88.871094 76.609375 87.914062 76.601562 86.953125 76.59375 C 89.433594 73.128906 91.917969 69.566406 93.25 65.480469 C 94.785156 61.140625 94.917969 56.085938 92.574219 52.007812 C 91.519531 49.980469 89.742188 48.507812 88.175781 46.898438 C 86.992188 45.710938 86.585938 44.007812 85.6875 42.628906 C 84.601562 41.851562 83.128906 42.066406 81.886719 41.8125 C 84.34375 44.742188 87.695312 46.878906 89.628906 50.25 C 93.175781 55.488281 94.085938 62.769531 90.601562 68.269531 C 88.648438 71.238281 86.472656 74.195312 83.769531 76.507812 C 83.214844 76.527344 82.121094 76.5625 81.566406 76.582031 C 84.960938 72.863281 88.90625 69.359375 90.769531 64.5625 C 91.816406 60.960938 92.082031 56.777344 90.121094 53.433594 C 89.566406 57.261719 89.695312 61.332031 87.816406 64.835938 C 86.007812 68.683594 82.324219 71.101562 80.007812 74.582031 C 78.414062 77.507812 74.59375 76.464844 71.886719 76.511719 C 75.398438 74.238281 79.445312 72.621094 82.214844 69.359375 C 85.851562 65.074219 88.628906 59.714844 88.761719 54.007812 C 88.011719 49.332031 83.417969 44.859375 78.4375 45.722656 C 75.777344 45.960938 72.84375 44.980469 70.453125 46.59375 C 70.4375 47.851562 71.0625 48.398438 72.3125 48.242188 C 74.964844 48.3125 77.539062 46.582031 80.195312 47.445312 C 82.59375 48.074219 85.460938 48.898438 86.359375 51.527344 C 88.34375 56.832031 86.519531 63.121094 82.433594 66.9375 C 78.703125 70.945312 73.445312 72.789062 68.960938 75.730469 C 66.710938 77.289062 63.8125 76.5 61.277344 76.445312 C 68.109375 73.628906 75.738281 71.714844 80.980469 66.121094 C 84.695312 62.480469 86.140625 57.148438 85.804688 52.054688 C 85.324219 52.082031 84.363281 52.140625 83.886719 52.167969 C 84.167969 54.886719 84.722656 57.84375 83.242188 60.335938 C 80.722656 64.851562 76.085938 68.789062 70.664062 68.65625 C 72.136719 67.546875 73.777344 66.710938 75.378906 65.816406 C 77.101562 65.027344 76.917969 62.5625 78.582031 61.703125 C 79.816406 60.761719 81.75 60.242188 81.960938 58.453125 C 82.472656 55.980469 82.730469 53.445312 83.5 51.027344 C 79.886719 48.1875 75.164062 49.296875 70.9375 49.15625 C 66.257812 48.890625 61.609375 50.675781 57.789062 53.304688 C 61.761719 54.371094 65.238281 51.757812 68.972656 50.953125 C 72.613281 50.113281 76.703125 49.871094 80.121094 51.621094 C 81.695312 52.574219 81.074219 54.730469 80.417969 56.082031 C 77.742188 61.351562 72.75 65.140625 67.363281 67.363281 C 62.082031 69.359375 56.113281 70.5625 50.5625 69.054688 C 55.664062 68.386719 61.136719 68.988281 65.824219 66.433594 C 66.507812 66.230469 67.777344 64.386719 66.195312 64.535156 C 63.65625 65.304688 61.464844 67.09375 58.761719 67.386719 C 54.214844 67.953125 49.472656 67.445312 45.210938 65.730469 C 42.167969 64.613281 40.6875 61.335938 40.425781 58.304688 C 40.007812 59.140625 39.59375 59.988281 39.1875 60.835938 C 38.730469 60.574219 37.8125 60.046875 37.351562 59.785156 C 38.082031 61.480469 38.695312 63.359375 40.1875 64.5625 C 43.148438 67.085938 47.316406 67.277344 50.4375 69.554688 C 49.222656 69.609375 47.9375 69.945312 46.761719 69.464844 C 42.6875 67.871094 37.980469 66.074219 36.453125 61.511719 C 34.464844 55.480469 38.796875 50.007812 40.640625 44.535156 C 40.417969 44.011719 40.203125 43.492188 39.988281 42.972656 C 41.980469 42.433594 43.964844 41.582031 45.222656 39.859375 C 47.75 36.695312 49.945312 33.066406 53.675781 31.15625 M 76.261719 33.832031 C 76.414062 35.65625 78.417969 35.59375 79.769531 35.40625 C 80.113281 35.621094 80.804688 36.0625 81.148438 36.277344 C 81.730469 35.574219 82.675781 34.925781 82.257812 33.878906 C 81.414062 33.5 80.566406 33.527344 79.722656 33.960938 C 78.664062 33.1875 77.351562 33.007812 76.261719 33.832031 M 86.851562 33.304688 C 86.082031 34.414062 88.472656 35.816406 88.953125 34.460938 C 89.046875 33.453125 87.640625 32.703125 86.851562 33.304688 M 65.007812 35.464844 C 64.230469 35.59375 63.761719 36.269531 63.230469 36.769531 C 63.886719 36.886719 65.183594 37.113281 65.832031 37.230469 C 65.082031 39.582031 63.285156 37.507812 61.785156 37.5 C 59.296875 38.917969 56.675781 40.488281 55.1875 43.027344 C 53.035156 46.648438 51.09375 50.621094 51.035156 54.925781 C 53.488281 54.863281 55.757812 53.730469 57.601562 52.183594 C 58.675781 50.289062 58.804688 47.871094 60.445312 46.316406 C 64.066406 42.742188 69.257812 41.816406 73.914062 40.289062 C 72.980469 38.445312 71.074219 39.9375 69.664062 40.277344 C 68.601562 40.066406 67.488281 39.601562 66.460938 40.1875 C 63.34375 41.539062 60.351562 43.425781 58.167969 46.0625 C 56.238281 48.546875 55.8125 52.761719 52.019531 53.1875 C 53.257812 51.539062 54.742188 50.027344 55.621094 48.136719 C 56.871094 45.628906 57.601562 42.738281 59.703125 40.761719 C 61.230469 39.335938 63.492188 39.65625 65.351562 39.019531 C 66.324219 38.203125 66.914062 36.832031 68.230469 36.492188 C 70.601562 35.585938 73.621094 35.90625 75.359375 33.757812 C 71.789062 33.214844 68.417969 34.714844 65.007812 35.464844 M 83.019531 33.722656 C 82.640625 35.386719 84.414062 36.621094 85.90625 35.925781 C 86.472656 34.140625 84.527344 32.980469 83.019531 33.722656 M 72.230469 37.804688 C 73.613281 39.804688 76.613281 40.230469 78.742188 39.195312 C 79.554688 39.675781 80.4375 39.917969 81.386719 39.933594 C 80.664062 39.425781 79.917969 38.945312 79.175781 38.472656 C 78.035156 36.9375 76.148438 36.585938 74.335938 36.730469 C 73.648438 36.933594 71.871094 36.472656 72.230469 37.804688 M 77.9375 41.460938 C 77.085938 41.566406 76.316406 43.269531 77.371094 43.535156 C 79.101562 44.742188 80.6875 42.898438 81.945312 41.917969 C 80.640625 41.683594 79.261719 41 77.9375 41.460938 M 68.628906 42.863281 C 65.261719 44.027344 61.277344 46.222656 60.785156 50.121094 C 63.5 49.140625 65.378906 46.757812 68.039062 45.667969 C 70.621094 44.359375 73.609375 44.636719 76.332031 43.859375 C 76.363281 43.507812 76.433594 42.8125 76.460938 42.460938 C 73.992188 41.316406 71.136719 42.289062 68.628906 42.863281 M 48.777344 46.066406 C 49.039062 49.210938 46.917969 52.785156 48.824219 55.613281 C 49.417969 53 48.914062 50.035156 50.519531 47.730469 C 51.640625 46.007812 52.8125 44.242188 53 42.128906 C 51.277344 43.074219 50.039062 44.613281 48.777344 46.066406 Z M 48.777344 46.066406 "/>
    <path style=" stroke:none;fill-rule:nonzero;fill:rgb(18.431373%,57.254902%,79.607843%);fill-opacity:1;" d="M 90.335938 31.074219 C 92.304688 31.054688 94.324219 30.785156 96.257812 31.1875 C 102.621094 34.953125 109.613281 38.667969 113.488281 45.261719 C 115.539062 48.59375 116.0625 52.546875 116.3125 56.371094 C 117.167969 56.425781 118.035156 56.472656 118.898438 56.472656 C 118.75 55.167969 118.007812 54.054688 117.507812 52.871094 C 116.3125 50.3125 116.164062 47.324219 114.511719 44.960938 C 110.59375 39.277344 105.335938 34.613281 99.492188 30.980469 C 100.714844 31.011719 101.953125 30.933594 103.167969 31.136719 C 106.390625 33.65625 108.785156 37.992188 113.359375 38.046875 C 111.289062 35.121094 107.710938 33.816406 105.480469 31.007812 C 106.65625 31.082031 107.90625 30.832031 109.039062 31.167969 C 114.304688 34.582031 116.683594 40.539062 120.511719 45.238281 C 120.507812 46.582031 120.507812 47.925781 120.5 49.269531 C 119.796875 49.242188 118.390625 49.1875 117.683594 49.15625 C 117.8125 50.796875 118.992188 51.664062 120.554688 51.925781 C 120.621094 54.554688 120.582031 57.183594 120.613281 59.804688 C 120.203125 59.636719 119.378906 59.304688 118.964844 59.136719 C 118.789062 59.09375 118.433594 59 118.257812 58.953125 C 117.878906 58.886719 117.136719 58.738281 116.761719 58.664062 C 116.917969 59.378906 117.082031 60.09375 117.242188 60.804688 C 117.5 61.738281 117.59375 62.871094 118.390625 63.527344 C 118.851562 63.027344 119.085938 62.40625 119.101562 61.65625 L 119.640625 61.3125 C 121.285156 65.695312 120.222656 70.488281 120.546875 75.046875 C 121.359375 76.769531 119.636719 76.1875 118.851562 76.332031 C 119.417969 72.164062 120.285156 67.5 117.914062 63.714844 C 116.398438 67.222656 119.011719 70.804688 117.722656 74.289062 C 117.351562 74.914062 117.386719 76.351562 116.378906 76.195312 C 116.304688 67.183594 116.480469 57.804688 112.703125 49.398438 C 108.832031 40.0625 100.011719 33.464844 90.335938 31.074219 M 113.777344 37.796875 C 113.414062 38.730469 113.046875 39.667969 112.683594 40.609375 C 113.34375 41.335938 114 42.066406 114.664062 42.796875 C 115.121094 41.953125 115.601562 41.113281 116.074219 40.277344 C 115.304688 39.445312 114.539062 38.621094 113.777344 37.796875 M 116.417969 42.464844 C 116.210938 43.019531 116 43.574219 115.785156 44.128906 C 116.59375 45.390625 117.210938 46.761719 117.804688 48.136719 C 118.433594 47.304688 119.4375 46.492188 119.09375 45.316406 C 118.539062 44.101562 117.378906 43.335938 116.417969 42.464844 Z M 116.417969 42.464844 "/>
    <path style=" stroke:none;fill-rule:nonzero;fill:rgb(18.431373%,57.254902%,79.607843%);fill-opacity:1;" d="M 115.019531 31.140625 C 115.539062 31.128906 116.59375 31.109375 117.113281 31.09375 C 118.214844 31.933594 119.664062 32.507812 120.296875 33.8125 C 120.371094 34.390625 120.511719 35.554688 120.585938 36.128906 C 118.804688 34.390625 117.101562 32.535156 115.019531 31.140625 Z M 115.019531 31.140625 "/>
    <path style=" stroke:none;fill-rule:nonzero;fill:rgb(18.431373%,57.254902%,79.607843%);fill-opacity:1;" d="M 29.667969 37.15625 C 31.242188 35.703125 32.335938 33.566406 34.539062 32.980469 C 34.414062 34.640625 33.007812 35.628906 31.878906 36.65625 C 27.539062 40.4375 23.34375 44.488281 18.359375 47.425781 C 16.816406 48.261719 15.15625 49.34375 13.316406 48.859375 C 15.351562 47.019531 17.917969 45.980469 20.175781 44.464844 C 23.511719 42.269531 26.789062 39.933594 29.667969 37.15625 Z M 29.667969 37.15625 "/>
    <path style=" stroke:none;fill-rule:nonzero;fill:rgb(18.431373%,57.254902%,79.607843%);fill-opacity:1;" d="M 35.148438 41.914062 C 34.417969 40.257812 35.527344 36.101562 38.390625 36.917969 C 37.851562 38.8125 38.195312 42.859375 35.148438 41.914062 Z M 35.148438 41.914062 "/>
    <path style=" stroke:none;fill-rule:nonzero;fill:rgb(18.431373%,57.254902%,79.607843%);fill-opacity:1;" d="M 26.925781 42.453125 C 28.535156 41.242188 29.84375 39.085938 32.148438 39.464844 C 30.425781 41.835938 28.335938 43.90625 25.851562 45.460938 C 24.007812 46.546875 23.824219 48.84375 22.84375 50.546875 C 21.5625 52.398438 19.363281 53.488281 18.371094 55.5625 C 17.480469 57.242188 17.0625 59.390625 15.140625 60.238281 C 14.816406 59.324219 14.4375 58.425781 14.277344 57.464844 C 15.386719 55.898438 17.09375 54.914062 18.34375 53.472656 C 21.5625 50.074219 23.15625 45.359375 26.925781 42.453125 Z M 26.925781 42.453125 "/>
    <path style=" stroke:none;fill-rule:nonzero;fill:rgb(18.431373%,57.254902%,79.607843%);fill-opacity:1;" d="M 33.722656 55.871094 C 33.6875 51.757812 35.796875 47.398438 39.335938 45.183594 C 38.878906 47.425781 36.992188 48.953125 36.261719 51.082031 C 35.519531 52.714844 35.3125 54.761719 33.722656 55.871094 Z M 33.722656 55.871094 "/>
    <path style=" stroke:none;fill-rule:nonzero;fill:rgb(18.431373%,57.254902%,79.607843%);fill-opacity:1;" d="M 30.433594 48.59375 C 30.566406 47.316406 31.257812 46.378906 32.675781 46.535156 C 32.261719 47.539062 31.574219 48.371094 30.757812 49.085938 C 31.046875 49.285156 31.628906 49.675781 31.917969 49.871094 C 33.101562 49.546875 33.628906 48.175781 34.5625 47.460938 C 35.09375 51.664062 29.9375 53.964844 30.472656 58.148438 C 30.816406 63.324219 36.164062 66.667969 35.964844 71.9375 C 32.371094 67.964844 29.628906 62.859375 29.425781 57.414062 C 29.285156 55.277344 30.480469 53.417969 31.277344 51.535156 L 30.964844 51.304688 C 30.035156 51.289062 29.101562 51.3125 28.175781 51.363281 C 28.464844 50.09375 29.363281 49.242188 30.433594 48.59375 Z M 30.433594 48.59375 "/>
    <path style=" stroke:none;fill-rule:nonzero;fill:rgb(18.431373%,57.254902%,79.607843%);fill-opacity:1;" d="M 24.007812 53.488281 C 22.992188 50.722656 25.519531 47.695312 28.398438 48.007812 C 26.972656 51.714844 24.433594 54.859375 22.972656 58.554688 C 23.675781 59.398438 25.140625 60.15625 24.15625 61.386719 C 23.140625 61.25 22.378906 60.535156 21.5625 60 C 21.585938 62.390625 20.917969 65.007812 22.140625 67.214844 C 22.953125 68.640625 22.8125 70.335938 22.863281 71.914062 C 21.9375 70.460938 21.527344 68.785156 21.445312 67.074219 C 21.113281 66.886719 20.4375 66.511719 20.109375 66.324219 C 19.917969 64.121094 19.75 61.917969 19.683594 59.710938 C 22 59.25 22.640625 56.898438 23.335938 54.988281 C 22.988281 54.546875 22.628906 54.113281 22.269531 53.6875 C 21.074219 55.835938 19.914062 58.085938 18.019531 59.730469 C 18.59375 57.09375 20.3125 54.960938 21.710938 52.730469 L 21.742188 53.289062 C 22.5 53.351562 23.25 53.417969 24.007812 53.488281 Z M 24.007812 53.488281 "/>
    <path style=" stroke:none;fill-rule:nonzero;fill:rgb(18.431373%,57.254902%,79.607843%);fill-opacity:1;" d="M 9.65625 51.585938 C 11.25 50.554688 13.039062 49.863281 14.925781 49.59375 C 11.613281 52.472656 8.167969 56.3125 3.4375 56.3125 C 4.992188 54.136719 7.472656 53.007812 9.65625 51.585938 Z M 9.65625 51.585938 "/>
    <path style=" stroke:none;fill-rule:nonzero;fill:rgb(18.431373%,57.254902%,79.607843%);fill-opacity:1;" d="M 11.925781 55.15625 C 13.898438 53.167969 15.878906 51.085938 18.511719 49.980469 C 15.148438 55.789062 9.34375 59.664062 3.054688 61.710938 C 3.054688 61.304688 3.046875 60.492188 3.046875 60.085938 C 6.238281 58.9375 9.492188 57.601562 11.925781 55.15625 Z M 11.925781 55.15625 "/>
    <path style=" stroke:none;fill-rule:nonzero;fill:rgb(18.431373%,57.254902%,79.607843%);fill-opacity:1;" d="M 44.101562 52.238281 C 45.945312 54.363281 45.988281 57.460938 47.804688 59.621094 C 50.121094 62.554688 54.433594 62.832031 57.777344 61.835938 C 55.304688 61.074219 51.960938 61.445312 50.417969 58.9375 C 49.695312 58.230469 51.304688 57.195312 51.953125 57.84375 C 54.710938 58.898438 57.128906 60.945312 60.203125 61.09375 C 64.082031 61.277344 67.890625 60.082031 71.453125 58.621094 C 73.3125 57.75 75.507812 56.953125 76.316406 54.863281 C 71.710938 55.6875 67.648438 58.59375 62.863281 58.636719 C 60.035156 58.574219 56.667969 58.886719 54.453125 56.785156 C 57.007812 56.296875 59.546875 57.148438 62.109375 56.953125 C 66.789062 56.613281 71 54.128906 75.683594 53.804688 C 76.757812 53.675781 78.238281 54.085938 78.203125 55.40625 C 76.796875 58.261719 73.636719 59.613281 70.796875 60.640625 C 64.988281 62.535156 58.832031 63.648438 52.703125 63.359375 C 49.964844 63.101562 46.824219 62.601562 45.074219 60.238281 C 43.535156 57.886719 43.8125 54.890625 44.101562 52.238281 Z M 44.101562 52.238281 "/>
    <path style=" stroke:none;fill-rule:nonzero;fill:rgb(18.431373%,57.254902%,79.607843%);fill-opacity:1;" d="M 32.445312 55.785156 C 36.011719 58.609375 34.039062 64.285156 37.554688 67.222656 C 42.722656 71.992188 50.351562 70.296875 56.6875 71.757812 C 58.574219 70.730469 60.761719 71.109375 62.816406 70.980469 C 65.195312 71.027344 67.128906 69.4375 69.261719 68.648438 C 68.714844 71.601562 65.878906 73.15625 63.277344 74.035156 C 57.714844 75.871094 51.777344 76.15625 45.964844 75.972656 C 43.316406 75.789062 40.566406 75.757812 38.082031 74.730469 C 36.75 74.082031 36.621094 72.460938 36.214844 71.230469 C 41.480469 74.585938 47.972656 74.769531 54.007812 74.414062 C 57.195312 74.085938 60.742188 73.917969 63.242188 71.664062 C 60.164062 71.566406 57.140625 72.277344 54.082031 72.433594 C 51.609375 72.519531 49.164062 73.621094 46.695312 72.796875 C 42.636719 71.636719 37.621094 70.488281 35.738281 66.214844 C 34.351562 62.84375 33.261719 59.335938 32.445312 55.785156 Z M 32.445312 55.785156 "/>
    <path style=" stroke:none;fill-rule:nonzero;fill:rgb(18.431373%,57.254902%,79.607843%);fill-opacity:1;" d="M 26.324219 56.324219 C 26.566406 56.535156 27.046875 56.964844 27.285156 57.175781 C 27.417969 61.527344 28.203125 66.074219 30.933594 69.601562 C 32.554688 71.425781 35.386719 72.480469 35.386719 75.332031 C 32.582031 72.742188 30.066406 69.816406 27.878906 66.703125 C 25.75 63.710938 25.1875 59.804688 26.324219 56.324219 Z M 26.324219 56.324219 "/>
    <path style=" stroke:none;fill-rule:nonzero;fill:rgb(18.431373%,57.254902%,79.607843%);fill-opacity:1;" d="M 10.554688 67.257812 C 11.761719 65.1875 12.964844 63.082031 14.582031 61.296875 C 13.972656 63.832031 13.242188 66.390625 11.878906 68.636719 C 10.964844 69.335938 9.789062 68.113281 10.554688 67.257812 Z M 10.554688 67.257812 "/>
    <path style=" stroke:none;fill-rule:nonzero;fill:rgb(18.431373%,57.254902%,79.607843%);fill-opacity:1;" d="M 23.046875 61.886719 C 24.390625 62.585938 23.972656 64.289062 24.378906 65.507812 C 25.140625 69.488281 29.519531 71.351562 30.546875 75.238281 C 25.742188 72.84375 23.4375 67 23.046875 61.886719 Z M 23.046875 61.886719 "/>
    <path style=" stroke:none;fill-rule:nonzero;fill:rgb(18.431373%,57.254902%,79.607843%);fill-opacity:1;" d="M 14.136719 66.082031 C 17.113281 69.492188 19.710938 73.222656 22.539062 76.761719 C 22.238281 76.710938 21.628906 76.59375 21.324219 76.535156 C 18.335938 73.546875 14.269531 70.75 14.136719 66.082031 Z M 14.136719 66.082031 "/>
    <path style=" stroke:none;fill-rule:nonzero;fill:rgb(18.431373%,57.254902%,79.607843%);fill-opacity:1;" d="M 4.613281 68.4375 C 6.121094 68.296875 7.863281 67.417969 9.230469 68.425781 C 10.289062 69.128906 10.136719 70.539062 10.371094 71.628906 C 8.242188 70.527344 5.890625 70.316406 3.539062 70.601562 C 3.386719 69.785156 3.136719 68.085938 4.613281 68.4375 Z M 4.613281 68.4375 "/>
    <path style=" stroke:none;fill-rule:nonzero;fill:rgb(18.431373%,57.254902%,79.607843%);fill-opacity:1;" d="M 30.980469 76.601562 C 31.164062 76.0625 31.527344 74.980469 31.710938 74.4375 C 32.917969 75.1875 34.128906 75.945312 35.332031 76.703125 C 33.878906 76.722656 32.433594 76.695312 30.980469 76.601562 Z M 30.980469 76.601562 "/>
    <path style=" stroke:none;fill-rule:nonzero;fill:rgb(16.862745%,53.333333%,75.294118%);fill-opacity:1;" d="M 111.554688 31.035156 C 112.585938 31 113.628906 30.953125 114.664062 30.890625 C 115.722656 32.613281 116.960938 34.222656 118.238281 35.789062 C 119.371094 37.316406 121.164062 39.121094 120.214844 41.183594 C 119.195312 40.667969 118.871094 39.417969 118.214844 38.5625 C 116.546875 35.601562 114.054688 33.277344 111.554688 31.035156 Z M 111.554688 31.035156 "/>
    <path style=" stroke:none;fill-rule:nonzero;fill:rgb(13.72549%,46.27451%,68.235294%);fill-opacity:1;" d="M 119.113281 31.222656 C 119.390625 31.183594 119.960938 31.109375 120.238281 31.066406 C 120.109375 32.066406 119.730469 32.113281 119.113281 31.222656 Z M 119.113281 31.222656 "/>
    <path style=" stroke:none;fill-rule:nonzero;fill:rgb(6.27451%,27.843137%,48.627451%);fill-opacity:1;" d="M 86.851562 33.304688 C 87.640625 32.703125 89.046875 33.453125 88.953125 34.460938 C 88.472656 35.816406 86.082031 34.414062 86.851562 33.304688 Z M 86.851562 33.304688 "/>
    <path style=" stroke:none;fill-rule:nonzero;fill:rgb(1.176471%,16.862745%,36.470588%);fill-opacity:1;" d="M 83.019531 33.722656 C 84.527344 32.980469 86.472656 34.140625 85.90625 35.925781 C 84.414062 36.621094 82.640625 35.386719 83.019531 33.722656 Z M 83.019531 33.722656 "/>
    <path style=" stroke:none;fill-rule:nonzero;fill:rgb(16.862745%,53.72549%,76.078431%);fill-opacity:1;" d="M 31.378906 39.464844 C 32.417969 37.878906 33.15625 35.492188 35.433594 35.453125 C 35.464844 37.789062 33.816406 39.695312 31.378906 39.464844 Z M 31.378906 39.464844 "/>
    <path style=" stroke:none;fill-rule:nonzero;fill:rgb(16.862745%,53.72549%,76.078431%);fill-opacity:1;" d="M 3.113281 65.210938 C 7.683594 64.714844 9.3125 59.851562 13.082031 57.925781 C 12.128906 62.769531 7.75 66.082031 3.019531 66.757812 C 3.039062 66.371094 3.085938 65.59375 3.113281 65.210938 Z M 3.113281 65.210938 "/>
    <path style=" stroke:none;fill-rule:nonzero;fill:rgb(2.745098%,20%,40%);fill-opacity:1;" d="M 113.777344 37.796875 C 114.539062 38.621094 115.304688 39.445312 116.074219 40.277344 C 115.601562 41.113281 115.121094 41.953125 114.664062 42.796875 C 114 42.066406 113.34375 41.335938 112.683594 40.609375 C 113.046875 39.667969 113.414062 38.730469 113.777344 37.796875 Z M 113.777344 37.796875 "/>
    <path style=" stroke:none;fill-rule:nonzero;fill:rgb(2.745098%,20%,40%);fill-opacity:1;" d="M 116.417969 42.464844 C 117.378906 43.335938 118.539062 44.101562 119.09375 45.316406 C 119.4375 46.492188 118.433594 47.304688 117.804688 48.136719 C 117.210938 46.761719 116.59375 45.390625 115.785156 44.128906 C 116 43.574219 116.210938 43.019531 116.417969 42.464844 Z M 116.417969 42.464844 "/>
    <path style=" stroke:none;fill-rule:nonzero;fill:rgb(16.470588%,52.54902%,74.509804%);fill-opacity:1;" d="M 28.777344 44.917969 C 30.566406 42.964844 32.378906 40.925781 34.6875 39.5625 C 32.972656 42.183594 31.664062 45.433594 29.039062 47.238281 C 26.953125 47.9375 28.039062 45.730469 28.777344 44.917969 Z M 28.777344 44.917969 "/>
    <path style=" stroke:none;fill-rule:nonzero;fill:rgb(16.078431%,51.764706%,73.72549%);fill-opacity:1;" d="M 31.859375 45.433594 C 31.933594 43.859375 33.480469 42.582031 35.007812 42.648438 C 35.242188 42.945312 35.714844 43.554688 35.953125 43.859375 C 34.722656 44.566406 33.433594 46.417969 31.859375 45.433594 Z M 31.859375 45.433594 "/>
    <path style=" stroke:none;fill-rule:nonzero;fill:rgb(16.470588%,52.54902%,74.901961%);fill-opacity:1;" d="M 25.628906 55.324219 C 26.007812 53.667969 27.738281 51.710938 29.511719 52.859375 C 29.75 55.113281 27.460938 55.84375 25.628906 55.324219 Z M 25.628906 55.324219 "/>
    <path style=" stroke:none;fill-rule:nonzero;fill:rgb(16.470588%,52.54902%,74.901961%);fill-opacity:1;" d="M 11.210938 70.085938 C 13.148438 70.007812 14.15625 71.988281 15.371094 73.167969 C 16.027344 74.167969 17.304688 74.953125 17.414062 76.214844 C 16.195312 77.128906 15.261719 75.464844 14.378906 74.816406 C 13.15625 73.390625 11.121094 72.203125 11.210938 70.085938 Z M 11.210938 70.085938 "/>
    <path style=" stroke:none;fill-rule:nonzero;fill:rgb(10.196078%,38.039216%,59.215686%);fill-opacity:1;" d="M 116.761719 58.664062 C 117.136719 58.738281 117.878906 58.886719 118.257812 58.953125 C 118.722656 59.738281 119.203125 60.511719 119.640625 61.3125 L 119.101562 61.65625 C 118.621094 61.15625 118.011719 60.386719 117.242188 60.804688 C 117.082031 60.09375 116.917969 59.378906 116.761719 58.664062 Z M 116.761719 58.664062 "/>
    <path style=" stroke:none;fill-rule:nonzero;fill:rgb(16.078431%,51.372549%,73.333333%);fill-opacity:1;" d="M 16.878906 60.210938 C 17.210938 60.335938 17.863281 60.601562 18.195312 60.738281 C 17.917969 63.84375 18.511719 66.914062 19.011719 69.960938 C 16.316406 67.472656 16.304688 63.5625 16.878906 60.210938 Z M 16.878906 60.210938 "/>
    <path style=" stroke:none;fill-rule:nonzero;fill:rgb(1.960784%,18.431373%,38.039216%);fill-opacity:1;" d="M 117.242188 60.804688 C 118.011719 60.386719 118.621094 61.15625 119.101562 61.65625 C 119.085938 62.40625 118.851562 63.027344 118.390625 63.527344 C 117.59375 62.871094 117.5 61.738281 117.242188 60.804688 Z M 117.242188 60.804688 "/>
    <path style=" stroke:none;fill-rule:nonzero;fill:rgb(15.686275%,50.980392%,72.941176%);fill-opacity:1;" d="M 5.121094 72.304688 C 6.09375 72.085938 7.335938 71.140625 8.121094 72.230469 C 8.835938 72.59375 9.636719 74.914062 8.109375 74.414062 C 6.554688 74.851562 5.796875 73.371094 5.121094 72.304688 Z M 5.121094 72.304688 "/>
    <path style=" stroke:none;fill-rule:nonzero;fill:rgb(15.294118%,49.411765%,71.372549%);fill-opacity:1;" d="M 22.804688 72.203125 C 25.027344 73.109375 26.851562 74.710938 28.269531 76.621094 C 27.683594 76.613281 26.507812 76.59375 25.917969 76.585938 C 24.714844 75.25 23.695312 73.761719 22.804688 72.203125 Z M 22.804688 72.203125 "/>
    <path style=" stroke:none;fill-rule:nonzero;fill:rgb(17.254902%,54.901961%,77.254902%);fill-opacity:1;" d="M 3.082031 73.6875 C 4.546875 74.574219 5.972656 75.511719 7.332031 76.546875 C 5.925781 76.59375 4.519531 76.621094 3.113281 76.640625 C 3.109375 75.90625 3.085938 74.433594 3.082031 73.6875 Z M 3.082031 73.6875 "/>
    <path style=" stroke:none;fill-rule:nonzero;fill:rgb(16.470588%,52.941176%,74.901961%);fill-opacity:1;" d="M 104.363281 74.574219 C 104.933594 75.074219 104.992188 75.730469 104.527344 76.5625 C 104.324219 76.582031 103.917969 76.621094 103.714844 76.640625 C 103.566406 75.8125 103.785156 75.121094 104.363281 74.574219 Z M 104.363281 74.574219 "/>
    <path style=" stroke:none;fill-rule:nonzero;fill:rgb(9.803922%,37.254902%,58.039216%);fill-opacity:1;" d="M 11.039062 75.1875 C 11.6875 74.640625 13.019531 75.480469 12.675781 76.304688 C 12.027344 76.863281 10.695312 76.011719 11.039062 75.1875 Z M 11.039062 75.1875 "/>
  </g>
</svg>