<?xml version="1.0" encoding="UTF-8" ?>
<!DOCTYPE svg PUBLIC "-//W3C//DTD SVG 1.1//EN" "http://www.w3.org/Graphics/SVG/1.1/DTD/svg11.dtd">
<svg width="799pt" height="118pt" viewBox="0 0 799 118" version="1.1" xmlns="http://www.w3.org/2000/svg">
<g id="#025fa5ff">
<path fill="#025fa5" opacity="1.00" d=" M 4.53 4.54 C 23.24 4.51 41.94 4.58 60.64 4.50 C 60.79 16.33 60.64 28.15 60.72 39.98 C 41.99 40.03 23.26 39.98 4.53 40.00 C 4.53 28.18 4.53 16.36 4.53 4.54 M 13.47 31.66 C 18.16 31.67 22.84 31.67 27.53 31.66 C 27.53 29.51 27.54 27.37 27.56 25.22 C 31.86 25.31 34.38 29.27 37.51 31.63 C 42.40 31.69 47.29 31.68 52.17 31.66 C 49.30 29.49 46.39 27.38 43.34 25.45 C 46.07 24.77 48.97 23.06 49.27 19.97 C 49.98 16.21 46.78 12.51 42.94 12.78 C 33.14 12.63 23.33 12.81 13.52 12.71 C 13.42 19.03 13.49 25.35 13.47 31.66 Z" />
<path fill="#025fa5" opacity="1.00" d=" M 63.32 39.95 C 63.43 28.14 63.27 16.32 63.41 4.51 C 82.11 4.57 100.81 4.52 119.51 4.53 C 119.56 16.33 119.47 28.14 119.56 39.94 C 100.81 40.04 82.07 40.03 63.32 39.95 M 73.00 12.81 C 73.00 14.27 73.00 15.74 73.00 17.20 C 76.55 17.20 80.10 17.20 83.65 17.21 C 83.64 22.01 83.67 26.81 83.62 31.61 C 88.63 31.71 93.64 31.66 98.65 31.67 C 98.64 26.84 98.62 22.01 98.74 17.19 C 102.22 17.21 105.70 17.20 109.18 17.20 C 109.17 15.71 109.17 14.22 109.17 12.74 C 97.12 12.77 85.06 12.65 73.00 12.81 Z" />
<path fill="#025fa5" opacity="1.00" d=" M 122.17 4.55 C 140.88 4.52 159.59 4.54 178.29 4.54 C 178.29 16.36 178.30 28.18 178.29 40.00 C 159.58 39.99 140.87 40.02 122.17 39.99 C 122.19 28.17 122.18 16.36 122.17 4.55 M 131.88 12.80 C 131.91 19.10 131.80 25.40 131.96 31.69 C 144.19 31.63 156.42 31.69 168.65 31.67 C 168.65 30.22 168.65 28.78 168.65 27.33 C 161.77 27.33 154.88 27.33 148.00 27.33 C 148.00 22.49 148.00 17.64 148.00 12.80 C 142.63 12.80 137.25 12.80 131.88 12.80 Z" />
<path fill="#025fa5" opacity="1.00" d=" M 27.55 17.04 C 29.96 17.07 32.38 16.92 34.77 17.27 C 36.34 17.94 36.31 20.19 35.00 21.11 C 32.53 21.48 30.02 21.33 27.53 21.35 C 27.53 19.91 27.54 18.47 27.55 17.04 Z" />
</g>
<g id="#012557ff">
<path fill="#012557" opacity="1.00" d=" M 184.42 113.50 C 184.31 77.17 184.32 40.83 184.41 4.50 C 293.06 4.58 401.71 4.50 510.35 4.54 C 510.35 40.85 510.35 77.15 510.35 113.46 C 401.71 113.50 293.06 113.42 184.42 113.50 M 226.09 24.00 C 219.76 27.59 216.17 34.49 214.60 41.37 C 211.55 54.94 208.65 68.54 205.66 82.12 C 205.24 83.99 204.62 85.80 203.98 87.61 C 207.06 87.78 210.37 88.05 212.77 90.23 C 216.27 93.20 220.41 95.57 225.04 96.10 C 233.67 97.12 243.48 95.02 249.17 87.98 C 253.70 82.59 254.39 75.34 255.82 68.73 C 250.11 68.73 244.40 68.74 238.69 68.73 C 237.72 72.86 237.49 77.37 235.13 81.01 C 233.07 84.29 227.83 84.50 225.36 81.64 C 223.54 79.30 224.15 76.12 224.64 73.43 C 226.90 63.22 229.11 53.00 231.38 42.79 C 232.13 39.64 233.33 36.08 236.46 34.57 C 239.04 33.49 243.04 33.56 244.34 36.51 C 245.39 39.73 244.10 43.11 243.65 46.33 C 249.37 46.33 255.08 46.34 260.80 46.33 C 261.79 41.65 263.37 36.68 261.54 31.99 C 259.17 25.60 252.48 21.96 246.04 20.97 C 239.34 20.12 232.07 20.56 226.09 24.00 M 261.62 95.00 C 267.40 95.00 273.19 95.00 278.97 95.00 C 280.78 86.49 282.59 77.99 284.40 69.49 C 286.56 69.45 288.71 69.40 290.87 69.35 C 291.36 77.89 291.85 86.43 292.29 94.97 C 298.22 95.02 304.15 94.99 310.08 95.00 C 309.05 85.43 307.95 75.88 306.95 66.31 C 312.62 63.26 316.83 57.96 318.91 51.90 C 321.44 45.22 321.86 37.20 317.85 31.00 C 314.10 24.98 306.90 22.00 300.01 21.87 C 292.50 21.68 284.99 21.88 277.49 21.77 C 272.11 46.16 266.91 70.59 261.62 95.00 M 337.07 21.80 C 331.74 46.19 326.47 70.60 321.13 94.98 C 326.84 95.02 332.56 94.99 338.27 95.00 C 343.61 70.61 348.89 46.20 354.21 21.80 C 348.50 21.80 342.78 21.80 337.07 21.80 M 369.33 21.81 C 363.94 46.21 358.50 70.60 353.10 95.00 C 358.58 94.99 364.06 95.03 369.55 94.97 C 372.46 81.30 375.51 67.67 378.44 54.00 C 378.90 53.04 379.13 49.20 380.76 50.97 C 381.59 65.61 381.34 80.33 381.73 95.00 C 386.24 95.00 390.76 94.99 395.28 95.02 C 400.44 81.83 405.59 68.64 410.68 55.42 C 411.48 53.51 411.96 51.15 414.17 50.35 C 411.53 65.37 407.36 80.09 404.17 95.00 C 409.53 94.75 415.17 95.50 420.36 94.65 C 425.77 70.40 430.88 46.08 436.17 21.80 C 427.65 21.77 419.13 21.84 410.61 21.76 C 405.16 36.18 400.39 50.86 394.76 65.20 C 394.32 50.74 394.19 36.27 393.86 21.80 C 385.68 21.81 377.51 21.78 369.33 21.81 M 451.29 21.81 C 446.11 46.21 440.89 70.60 435.69 95.00 C 447.41 95.00 459.12 95.01 470.83 94.99 C 471.67 90.66 472.54 86.33 473.39 82.00 C 467.54 82.00 461.68 82.00 455.83 82.00 C 457.08 76.06 458.38 70.13 459.59 64.17 C 465.56 64.10 471.53 64.12 477.51 64.16 C 478.63 59.75 479.61 55.30 480.64 50.87 C 474.56 50.86 468.49 50.88 462.41 50.85 C 463.66 45.53 464.87 40.19 466.11 34.87 C 472.96 34.86 479.82 34.87 486.68 34.86 C 487.56 30.51 488.47 26.16 489.36 21.80 C 476.67 21.80 463.98 21.78 451.29 21.81 Z" />
<path fill="#012557" opacity="1.00" d=" M 291.49 35.20 C 295.37 34.79 300.63 33.98 303.18 37.76 C 306.39 43.21 303.99 50.49 299.36 54.37 C 295.92 57.39 291.03 56.07 286.88 56.33 C 288.44 49.29 289.86 42.22 291.49 35.20 Z" />
<path fill="#012557" opacity="1.00" d=" M 4.59 69.88 C 4.37 61.89 4.26 53.92 4.62 45.93 C 7.84 45.91 11.06 45.90 14.27 46.11 C 11.06 47.04 7.92 48.17 4.74 49.18 C 4.69 50.08 4.58 51.89 4.53 52.79 C 6.58 52.40 8.68 52.16 10.66 51.48 C 12.66 50.45 14.02 48.49 16.03 47.46 C 18.08 46.87 20.24 46.81 22.36 46.58 C 17.83 52.03 11.12 54.66 4.74 57.23 C 4.88 58.29 5.01 59.35 5.15 60.41 C 11.66 56.21 18.51 52.47 24.51 47.53 C 23.72 47.17 22.14 46.45 21.35 46.10 C 23.47 46.01 25.59 45.99 27.71 46.07 C 24.93 49.12 22.61 52.71 19.02 54.92 C 14.76 57.97 9.68 59.57 5.28 62.35 C 4.27 64.11 4.82 64.84 6.93 64.55 C 10.15 63.62 12.39 60.93 15.15 59.17 C 17.97 57.19 21.45 56.36 24.16 54.22 C 26.77 51.67 28.72 48.56 31.08 45.80 C 32.97 45.89 34.86 45.94 36.75 45.99 C 32.43 52.47 24.42 54.65 19.03 59.97 C 16.81 62.09 15.06 64.77 12.30 66.25 C 9.81 67.62 7.12 68.58 4.59 69.88 Z" />
<path fill="#012557" opacity="1.00" d=" M 40.57 45.81 C 42.30 45.93 44.03 46.03 45.76 46.16 C 42.12 49.36 38.84 52.97 34.91 55.83 C 30.99 58.72 26.14 60.18 22.62 63.64 C 19.12 66.72 16.42 70.98 11.87 72.64 C 9.28 73.61 6.77 74.84 4.71 76.72 C 4.61 75.23 4.49 73.75 4.35 72.27 C 7.30 71.43 10.48 70.95 12.98 69.06 C 17.38 65.79 20.77 61.36 25.24 58.19 C 28.00 56.24 31.86 55.87 33.86 52.93 C 35.78 50.27 37.95 47.80 40.57 45.81 Z" />
<path fill="#012557" opacity="1.00" d=" M 48.61 45.81 C 50.53 45.92 52.44 46.02 54.36 46.16 C 53.39 46.62 52.43 47.10 51.47 47.59 C 52.83 48.78 55.14 49.94 54.25 52.27 C 55.26 51.78 56.27 51.30 57.29 50.82 C 56.66 50.48 55.40 49.80 54.77 49.46 C 54.88 49.03 55.09 48.17 55.20 47.74 C 56.83 47.21 58.44 46.65 60.06 46.12 C 61.30 46.02 62.54 45.98 63.78 46.01 C 61.11 48.65 58.40 51.27 55.94 54.13 C 60.88 52.48 65.10 49.37 68.93 45.91 C 69.58 45.98 70.87 46.12 71.52 46.19 C 67.00 49.28 62.11 52.30 59.16 57.06 C 56.69 61.05 54.12 64.98 51.89 69.11 C 57.90 64.97 60.66 57.82 66.13 53.13 C 69.22 50.45 72.73 48.32 75.99 45.87 C 77.14 45.95 78.29 46.03 79.44 46.11 C 73.92 48.94 70.67 54.31 66.93 58.99 C 65.07 61.54 62.13 62.80 59.18 63.60 C 59.50 64.37 59.82 65.14 60.15 65.91 C 57.42 74.01 51.01 82.11 53.95 91.04 C 56.21 97.79 63.18 100.45 69.21 102.81 C 70.95 103.52 72.85 103.02 74.65 102.94 C 70.03 99.57 63.86 99.29 59.48 95.55 C 57.27 93.77 56.36 90.99 55.28 88.48 C 55.96 88.87 57.32 89.65 58.00 90.04 C 58.60 88.78 59.21 87.53 59.83 86.29 C 60.22 90.78 62.41 95.63 66.91 97.28 C 73.22 99.82 80.24 100.57 86.97 99.73 C 90.97 99.30 94.21 96.65 97.97 95.51 C 100.31 95.29 98.43 98.02 97.42 98.32 C 90.48 102.10 82.38 101.21 74.83 102.20 C 83.05 104.43 91.88 102.65 99.70 99.70 C 107.67 96.41 115.06 90.80 119.02 83.00 C 119.99 81.00 120.91 77.81 118.58 76.40 C 113.52 73.81 107.47 74.17 102.08 75.41 C 96.55 76.60 91.41 80.47 85.53 78.89 C 91.18 75.00 98.06 72.36 104.99 72.75 C 111.24 72.96 118.23 71.32 123.58 75.52 C 122.44 79.10 122.06 82.85 121.30 86.51 C 120.99 89.16 118.13 89.93 116.30 91.32 C 113.84 92.59 114.11 96.24 111.56 97.41 C 109.19 98.73 106.76 99.97 104.58 101.61 C 112.61 101.81 119.47 95.98 123.20 89.30 C 125.39 85.61 124.57 81.23 124.15 77.21 C 124.86 77.17 126.28 77.08 126.99 77.04 C 127.49 84.58 125.35 92.47 119.85 97.86 C 112.09 106.14 100.80 108.97 90.69 113.14 C 94.44 113.22 98.73 114.39 102.06 112.08 C 108.70 107.73 116.48 105.00 122.00 99.07 C 128.05 93.42 130.75 84.11 127.81 76.26 C 126.48 72.37 122.24 71.15 118.69 70.22 C 114.76 68.94 110.95 71.50 107.02 71.40 C 105.17 71.63 104.25 70.82 104.27 68.96 C 107.81 66.57 112.15 68.02 116.09 67.67 C 123.46 66.39 130.26 73.01 131.37 79.93 C 131.17 88.38 127.06 96.31 121.68 102.65 C 117.58 107.48 111.59 109.87 106.39 113.24 C 110.40 113.17 116.05 114.71 118.41 110.38 C 121.84 105.23 127.29 101.65 129.97 95.96 C 132.75 90.77 132.56 84.75 133.38 79.08 C 136.28 84.03 135.89 90.22 134.34 95.55 C 131.58 102.65 125.74 107.84 120.72 113.34 C 121.54 113.31 123.16 113.26 123.98 113.23 C 127.98 109.81 131.20 105.43 134.09 101.04 C 139.25 92.90 137.90 82.12 132.65 74.37 C 129.79 69.38 124.83 66.22 121.19 61.88 C 123.03 62.26 125.21 61.94 126.82 63.09 C 128.15 65.13 128.75 67.65 130.50 69.41 C 132.82 71.79 135.45 73.97 137.01 76.97 C 140.48 83.01 140.28 90.49 138.01 96.91 C 136.04 102.96 132.36 108.23 128.69 113.36 C 130.11 113.37 131.53 113.38 132.95 113.38 C 138.80 102.91 144.06 90.49 140.53 78.37 C 139.00 72.48 134.15 68.56 130.06 64.43 C 134.71 65.01 139.26 67.65 140.78 72.31 C 143.04 79.03 143.79 86.16 145.17 93.09 C 144.54 100.24 139.60 106.16 137.28 112.79 C 138.49 113.94 139.77 112.54 140.31 111.42 C 142.46 107.47 143.27 102.99 144.58 98.73 C 149.12 103.50 141.69 108.11 141.28 112.85 C 142.50 113.63 144.33 113.48 144.60 111.80 C 147.54 104.60 147.94 96.60 147.68 88.91 C 147.57 83.86 145.06 79.29 144.66 74.28 C 145.90 75.43 147.26 76.60 147.79 78.28 C 151.82 89.57 152.15 102.28 147.96 113.58 C 129.97 113.77 111.98 113.30 93.98 113.66 C 80.09 113.27 66.18 113.32 52.29 113.52 C 50.51 112.40 48.72 111.28 46.93 110.17 C 46.66 110.97 46.12 112.57 45.85 113.37 C 44.52 113.38 43.18 113.39 41.84 113.40 C 39.74 110.57 37.04 108.20 33.75 106.86 C 35.07 109.17 36.58 111.37 38.36 113.35 C 36.69 113.40 35.02 113.47 33.36 113.61 C 29.17 108.37 25.33 102.85 20.92 97.80 C 21.12 104.71 27.14 108.85 31.56 113.27 C 29.03 113.51 26.48 113.92 23.93 113.62 C 17.41 113.18 10.88 113.67 4.35 113.62 C 4.82 108.67 3.87 103.73 4.47 98.80 C 11.47 97.80 17.95 92.90 19.36 85.73 C 13.78 88.58 11.37 95.78 4.61 96.51 C 4.58 94.78 4.56 93.06 4.52 91.33 C 13.83 88.30 22.42 82.57 27.40 73.97 C 23.50 75.61 20.57 78.69 17.65 81.63 C 14.05 85.25 9.23 87.23 4.51 88.93 C 4.61 85.89 4.68 82.83 4.36 79.79 C 6.67 78.06 9.18 76.61 11.93 75.71 C 17.10 74.09 19.48 68.74 23.58 65.65 C 25.56 64.14 28.68 64.29 29.96 61.93 C 32.25 57.72 37.06 56.28 40.79 53.73 C 44.00 51.75 46.37 48.77 48.61 45.81 M 43.91 54.99 C 39.65 59.10 34.80 62.56 29.86 65.81 C 26.52 68.05 22.72 69.59 19.71 72.31 C 22.43 73.03 24.89 71.43 27.17 70.19 C 34.55 65.84 40.76 59.85 47.18 54.25 C 48.85 52.73 50.93 51.27 51.12 48.81 C 47.86 49.68 46.24 52.84 43.91 54.99 M 46.44 58.41 C 50.05 58.75 52.49 55.93 52.44 52.47 C 49.07 52.53 47.98 56.06 46.44 58.41 M 52.02 62.03 C 56.53 63.43 56.02 57.44 56.82 54.64 C 52.58 53.43 50.94 59.58 52.02 62.03 M 39.85 62.83 C 34.27 67.13 31.91 74.11 27.15 79.14 C 25.30 81.27 22.77 82.73 21.13 85.05 C 21.37 86.47 21.93 87.80 22.41 89.15 C 25.25 87.90 25.87 84.72 27.19 82.23 C 28.66 79.16 31.91 77.55 33.81 74.81 C 35.26 72.29 35.53 68.89 38.26 67.28 C 41.94 64.98 45.03 61.92 47.58 58.41 C 44.17 57.85 42.23 61.04 39.85 62.83 M 42.59 66.48 C 41.50 67.68 39.89 70.95 42.98 69.91 C 46.86 67.24 48.80 62.43 51.34 58.55 C 47.92 60.57 45.24 63.59 42.59 66.48 M 47.15 67.24 C 49.48 68.70 51.39 65.96 53.21 64.91 C 52.86 64.46 52.16 63.56 51.81 63.12 C 49.55 63.02 47.26 64.91 47.15 67.24 M 49.91 82.69 C 52.26 81.05 52.57 78.02 53.67 75.60 C 54.75 72.45 57.54 70.19 58.22 66.87 C 52.98 70.15 49.86 76.60 49.91 82.69 M 45.04 71.92 C 43.46 72.88 42.13 74.14 41.70 76.02 C 43.07 75.94 44.45 75.91 45.83 75.93 L 46.29 76.27 C 45.11 79.06 43.34 81.81 43.55 84.97 C 43.85 93.03 47.91 100.59 53.23 106.47 C 53.52 98.67 45.61 93.72 45.10 86.06 C 44.31 79.87 51.94 76.46 51.15 70.24 C 49.77 71.30 48.99 73.33 47.24 73.81 C 46.81 73.52 45.95 72.94 45.52 72.65 C 46.73 71.59 47.75 70.36 48.36 68.87 C 46.26 68.64 45.24 70.03 45.04 71.92 M 35.53 79.16 C 34.41 79.06 33.30 78.96 32.18 78.87 L 32.13 78.04 C 30.06 81.34 27.52 84.50 26.67 88.40 C 29.47 85.97 31.19 82.64 32.96 79.46 C 33.49 80.09 34.02 80.73 34.54 81.38 C 33.51 84.21 32.56 87.69 29.13 88.37 C 29.23 91.64 29.48 94.90 29.76 98.16 C 30.25 98.44 31.25 98.99 31.74 99.27 C 31.86 101.80 32.47 104.28 33.84 106.43 C 33.76 104.10 33.97 101.59 32.77 99.48 C 30.96 96.21 31.95 92.34 31.91 88.80 C 33.12 89.59 34.25 90.65 35.75 90.85 C 37.21 89.03 35.04 87.91 34.00 86.66 C 36.16 81.19 39.92 76.54 42.03 71.05 C 37.77 70.59 34.03 75.07 35.53 79.16 M 14.29 76.35 C 11.06 78.45 7.39 80.12 5.09 83.34 C 12.09 83.34 17.19 77.66 22.09 73.40 C 19.30 73.80 16.65 74.82 14.29 76.35 M 37.93 81.88 C 40.64 82.65 44.03 81.57 43.68 78.23 C 41.05 76.53 38.49 79.43 37.93 81.88 M 48.02 82.56 C 49.23 87.82 50.84 93.01 52.89 98.00 C 55.68 104.32 63.10 106.02 69.11 107.74 C 72.76 108.96 76.38 107.33 80.04 107.20 C 84.57 106.97 89.04 105.92 93.60 106.06 C 89.90 109.40 84.65 109.65 79.93 110.13 C 71.00 110.66 61.39 110.39 53.60 105.42 C 54.20 107.24 54.39 109.64 56.36 110.60 C 60.04 112.12 64.11 112.17 68.03 112.44 C 76.63 112.71 85.42 112.29 93.65 109.57 C 97.50 108.27 101.70 105.97 102.51 101.60 C 99.35 102.77 96.49 105.12 92.97 105.05 C 89.93 105.24 86.69 104.68 83.90 106.20 C 74.52 104.04 63.23 106.55 55.58 99.49 C 50.38 95.14 53.30 86.74 48.02 82.56 M 38.96 83.36 C 37.28 88.51 38.11 94.29 41.26 98.72 C 44.50 103.33 48.22 107.66 52.37 111.49 C 52.37 107.27 48.18 105.71 45.78 103.01 C 41.74 97.79 40.58 91.06 40.38 84.62 C 40.03 84.31 39.32 83.67 38.96 83.36 M 24.98 89.11 C 24.13 94.07 24.15 99.86 28.14 103.54 C 27.40 99.03 26.52 94.49 26.93 89.89 C 26.44 89.69 25.47 89.30 24.98 89.11 M 15.62 99.54 C 14.49 100.81 16.23 102.62 17.58 101.58 C 19.60 98.26 20.68 94.47 21.58 90.72 C 19.19 93.36 17.41 96.48 15.62 99.54 M 34.11 91.59 C 34.69 99.16 38.10 107.81 45.21 111.35 C 43.69 105.60 37.21 102.84 36.08 96.95 C 35.48 95.15 36.10 92.63 34.11 91.59 M 6.83 101.29 C 4.64 100.77 5.01 103.28 5.24 104.49 C 8.72 104.07 12.20 104.38 15.35 106.01 C 15.00 104.40 15.23 102.31 13.66 101.27 C 11.64 99.78 9.06 101.08 6.83 101.29 M 16.59 103.73 C 16.46 106.86 19.47 108.62 21.28 110.73 C 22.59 111.69 23.97 114.15 25.77 112.80 C 25.61 110.93 23.72 109.77 22.75 108.29 C 20.95 106.54 19.46 103.61 16.59 103.73 M 7.58 107.01 C 8.58 108.59 9.70 110.78 12.00 110.13 C 14.26 110.87 13.08 107.44 12.02 106.90 C 10.86 105.29 9.02 106.69 7.58 107.01 M 4.56 109.06 C 4.57 110.16 4.60 112.34 4.61 113.43 C 6.69 113.40 8.77 113.36 10.85 113.29 C 8.84 111.76 6.73 110.37 4.56 109.06 M 16.34 111.28 C 15.83 112.50 17.80 113.76 18.76 112.93 C 19.27 111.71 17.30 110.47 16.34 111.28 Z" />
<path fill="#012557" opacity="1.00" d=" M 86.67 45.98 C 88.22 45.86 89.78 46.00 91.34 46.06 C 81.78 51.00 72.44 57.30 66.62 66.58 C 62.74 72.40 59.45 78.99 59.60 86.16 C 58.08 85.99 56.58 85.81 55.06 85.66 C 55.44 83.20 55.75 80.72 56.48 78.34 C 61.82 64.09 73.30 52.89 86.67 45.98 Z" />
<path fill="#012557" opacity="1.00" d=" M 98.04 46.04 C 109.92 45.82 121.82 45.91 133.70 45.99 C 148.02 49.53 161.07 59.29 166.80 73.11 C 172.39 85.55 172.13 99.43 172.24 112.77 C 173.73 113.00 173.68 110.87 174.23 109.95 C 176.14 104.79 172.27 99.49 174.51 94.30 C 178.02 99.90 176.74 106.80 175.90 112.97 C 177.06 112.76 179.61 113.62 178.41 111.07 C 177.93 104.32 179.50 97.23 177.07 90.74 C 176.42 89.56 175.71 88.41 175.02 87.25 C 175.28 87.32 175.81 87.46 176.07 87.52 C 176.68 87.77 177.90 88.26 178.51 88.51 C 178.34 96.93 178.70 105.36 178.51 113.78 C 174.47 113.58 170.39 114.12 166.38 113.49 C 167.58 105.84 166.32 98.06 167.41 90.40 C 170.16 97.58 168.87 105.26 169.31 112.70 C 171.01 108.69 171.15 104.27 171.32 99.99 C 171.33 95.33 171.44 89.82 167.18 86.82 C 167.31 85.12 167.65 83.40 167.30 81.71 C 165.26 73.82 161.34 66.26 155.21 60.77 C 143.17 49.80 126.12 45.37 110.11 46.81 C 98.47 47.78 87.27 52.80 78.96 61.03 C 77.92 60.70 76.88 60.37 75.85 60.04 C 72.87 63.35 70.44 67.28 69.73 71.75 C 69.01 76.51 68.45 82.30 72.65 85.67 C 73.14 84.52 73.62 83.37 74.11 82.22 C 77.54 83.06 81.13 83.00 84.04 80.75 C 89.54 81.19 95.14 81.13 100.48 79.58 C 105.72 78.31 111.51 75.99 116.77 78.39 C 118.83 81.85 116.42 86.99 112.95 88.76 C 108.96 90.73 104.75 92.45 101.58 95.70 C 100.41 94.96 99.24 94.22 98.08 93.48 C 88.88 98.31 77.34 99.08 67.66 95.28 C 63.39 93.79 62.74 88.91 62.12 85.06 C 61.87 82.11 60.78 78.50 63.17 76.13 C 67.67 71.44 69.97 65.13 74.62 60.57 C 81.04 53.79 89.55 49.61 98.04 46.04 M 65.27 77.31 C 64.84 81.24 64.43 85.67 66.71 89.15 C 69.30 92.65 73.95 93.39 78.00 93.77 C 87.07 94.20 96.18 92.55 104.78 89.75 C 108.98 88.23 113.66 86.23 115.74 82.00 C 115.79 80.05 113.60 79.44 112.01 79.63 C 105.08 80.11 98.85 83.79 91.92 84.29 C 88.13 84.58 84.37 83.32 80.59 84.04 C 83.87 87.15 88.85 86.69 93.04 86.78 C 100.12 86.72 106.13 82.42 112.95 81.20 C 111.75 84.29 108.50 85.47 105.75 86.76 C 100.48 88.92 94.84 90.69 89.10 90.42 C 84.55 90.20 80.97 87.17 76.89 85.61 C 75.93 84.65 73.55 86.18 74.62 87.23 C 76.90 90.94 81.85 90.39 85.51 91.52 C 80.56 92.99 74.18 92.58 70.75 88.24 C 68.06 85.04 68.00 80.46 65.27 77.31 Z" />
<path fill="#012557" opacity="1.00" d=" M 142.46 46.16 C 144.05 46.05 145.65 45.95 147.25 45.85 C 155.90 51.23 163.68 58.13 169.48 66.54 C 171.92 70.04 172.14 74.46 173.91 78.25 C 174.65 80.00 175.75 81.65 175.97 83.58 C 174.69 83.58 173.41 83.51 172.14 83.43 C 171.77 77.77 171.00 71.92 167.96 66.99 C 162.23 57.23 151.88 51.73 142.46 46.16 Z" />
<path fill="#012557" opacity="1.00" d=" M 152.69 46.08 C 153.83 46.02 154.97 45.95 156.11 45.89 C 159.41 50.05 164.71 51.98 167.77 56.31 C 161.00 56.23 157.46 49.81 152.69 46.08 Z" />
<path fill="#012557" opacity="1.00" d=" M 161.38 46.13 C 162.62 46.06 163.86 45.99 165.10 45.93 C 168.80 49.25 172.49 52.69 174.96 57.07 C 175.93 58.34 176.41 60.19 177.92 60.95 C 179.32 57.90 176.67 55.23 174.99 52.97 C 173.10 50.65 171.27 48.27 169.70 45.72 L 170.23 46.09 C 173.31 48.15 175.83 50.90 178.47 53.47 C 178.36 52.62 178.15 50.90 178.04 50.04 C 177.10 48.11 174.96 47.26 173.33 46.02 C 174.07 46.07 175.55 46.16 176.29 46.21 C 177.20 47.53 177.76 47.46 177.95 45.98 L 178.59 46.28 C 178.52 56.47 178.50 66.65 178.42 76.85 C 176.11 76.46 174.36 75.18 174.17 72.75 C 175.22 72.80 177.30 72.88 178.34 72.92 C 178.35 70.93 178.35 68.94 178.36 66.95 C 172.69 60.00 169.17 51.18 161.38 46.13 Z" />
<path fill="#012557" opacity="1.00" d=" M 112.87 50.07 C 114.48 48.85 116.42 49.12 117.99 50.26 C 119.24 49.62 120.49 49.58 121.74 50.14 C 122.36 51.69 120.96 52.65 120.10 53.69 C 119.59 53.37 118.57 52.72 118.06 52.40 C 116.06 52.68 113.09 52.77 112.87 50.07 Z" />
<path fill="#012557" opacity="1.00" d=" M 96.21 52.49 C 101.26 51.38 106.25 49.16 111.53 49.96 C 108.96 53.14 104.49 52.67 100.98 54.01 C 99.03 54.51 98.16 56.54 96.72 57.75 C 93.97 58.69 90.62 58.22 88.36 60.33 C 85.25 63.25 84.17 67.53 82.32 71.24 C 81.02 74.04 78.82 76.28 76.99 78.72 C 82.60 78.09 83.23 71.85 86.09 68.17 C 89.32 64.27 93.75 61.48 98.36 59.48 C 99.88 58.61 101.53 59.30 103.10 59.61 C 105.19 59.11 108.01 56.90 109.39 59.63 C 102.50 61.89 94.82 63.26 89.46 68.55 C 87.03 70.85 86.84 74.43 85.25 77.23 C 82.52 79.52 79.16 81.20 75.53 81.29 C 75.62 74.92 78.49 69.04 81.68 63.68 C 83.88 59.92 87.76 57.60 91.44 55.50 C 93.66 55.51 96.32 58.58 97.43 55.10 C 96.47 54.93 94.55 54.59 93.58 54.42 C 94.37 53.68 95.06 52.68 96.21 52.49 Z" />
<path fill="#012557" opacity="1.00" d=" M 133.05 51.17 C 138.32 51.91 143.18 54.46 147.49 57.51 C 158.07 65.25 164.22 78.07 165.11 91.01 C 165.86 98.59 163.56 106.05 164.17 113.64 C 163.52 113.60 162.21 113.51 161.56 113.46 C 163.92 103.87 164.62 93.68 161.93 84.07 C 158.49 70.77 148.78 58.95 135.69 54.26 C 134.66 53.59 131.34 52.79 133.05 51.17 Z" />
<path fill="#012557" opacity="1.00" d=" M 106.90 55.95 C 106.37 53.98 109.00 54.66 110.02 54.36 C 112.70 54.15 115.49 54.67 117.18 56.94 C 118.28 57.64 119.38 58.35 120.45 59.10 C 119.05 59.08 117.74 58.72 116.54 58.01 C 113.39 59.54 108.95 58.91 106.90 55.95 Z" />
<path fill="#012557" opacity="1.00" d=" M 119.98 54.59 C 129.21 54.79 138.78 57.01 146.13 62.85 C 153.87 68.93 158.18 78.30 160.51 87.65 C 162.52 96.31 159.56 104.98 158.44 113.54 C 157.20 113.46 155.95 113.38 154.70 113.31 C 155.39 112.08 155.30 111.11 154.46 110.37 C 153.60 111.18 153.28 112.20 153.50 113.43 C 152.68 113.42 151.05 113.40 150.23 113.39 C 151.85 108.59 152.10 103.49 153.16 98.56 C 154.96 101.38 154.56 104.81 155.27 107.94 C 156.59 109.90 156.87 106.45 157.49 105.71 C 160.46 96.48 159.61 85.83 154.52 77.49 C 153.86 76.69 153.44 75.33 152.26 75.24 C 152.31 83.43 156.81 91.08 155.71 99.44 C 154.99 98.61 153.48 98.23 153.35 96.99 C 152.74 92.02 153.35 86.92 152.13 82.01 C 151.46 78.71 149.60 75.84 147.84 73.03 C 146.75 72.90 145.65 72.76 144.56 72.63 C 140.75 65.91 132.55 64.31 127.53 58.83 C 135.16 59.07 141.98 63.56 146.54 69.47 C 148.07 71.10 149.26 73.62 151.74 73.86 C 152.55 70.99 149.33 69.88 147.70 68.32 C 141.58 63.41 135.60 56.86 127.12 56.84 C 126.66 57.51 125.75 58.84 125.30 59.51 C 122.75 58.86 121.22 56.76 119.98 54.59 Z" />
<path fill="#012557" opacity="1.00" d=" M 115.35 61.36 C 117.31 60.68 119.35 61.69 121.28 62.04 C 119.42 63.49 117.07 66.22 114.51 64.43 C 112.95 64.04 114.09 61.52 115.35 61.36 Z" />
<path fill="#012557" opacity="1.00" d=" M 101.57 63.44 C 105.28 62.59 109.51 61.15 113.16 62.84 C 113.12 63.36 113.02 64.39 112.97 64.91 C 108.94 66.06 104.52 65.65 100.70 67.59 C 96.76 69.20 93.98 72.73 89.96 74.18 C 90.69 68.41 96.59 65.16 101.57 63.44 Z" />
<path fill="#012557" opacity="1.00" d=" M 72.19 68.18 C 74.06 66.03 75.89 63.75 78.44 62.35 C 78.16 65.48 76.43 68.09 74.77 70.64 C 72.39 74.05 73.14 78.44 72.26 82.31 C 69.44 78.12 72.58 72.83 72.19 68.18 Z" />
</g>
<g id="#bbbcc1ff">
<path fill="#bbbcc1" opacity="1.00" d=" M 534.71 4.54 C 544.66 4.53 554.61 4.54 564.56 4.53 C 564.76 18.95 564.97 33.37 565.13 47.79 C 583.48 47.97 601.83 48.19 620.18 48.34 C 620.17 33.74 620.19 19.14 620.17 4.54 C 630.49 4.53 640.80 4.54 651.12 4.54 C 651.12 40.85 651.12 77.15 651.12 113.46 C 640.80 113.45 630.48 113.49 620.16 113.44 C 620.20 98.85 620.17 84.25 620.18 69.66 C 601.83 69.81 583.48 70.03 565.13 70.21 C 564.97 84.63 564.76 99.05 564.56 113.47 C 554.61 113.46 544.66 113.47 534.71 113.46 C 534.70 77.15 534.70 40.85 534.71 4.54 Z" />
<path fill="#bbbcc1" opacity="1.00" d=" M 672.53 4.54 C 688.35 4.56 704.18 4.46 720.00 4.64 C 730.46 4.75 740.96 4.57 751.37 5.81 C 761.88 7.06 772.19 11.62 779.51 19.38 C 786.00 26.10 791.12 34.40 793.21 43.57 C 794.49 50.98 794.30 58.56 793.91 66.05 C 793.26 82.18 784.08 98.06 769.73 105.76 C 758.01 112.49 744.17 113.01 731.01 113.27 C 711.52 113.59 692.02 113.42 672.53 113.46 C 672.53 77.15 672.53 40.84 672.53 4.54 M 703.47 93.45 C 712.97 93.12 722.49 92.97 731.99 92.39 C 736.41 92.04 740.93 91.79 745.12 90.20 C 755.63 86.13 762.80 75.26 762.56 64.01 C 762.75 56.79 762.91 49.30 760.31 42.44 C 757.00 34.32 749.44 28.04 740.75 26.54 C 728.50 24.09 715.91 25.03 703.50 24.79 C 703.43 47.67 703.49 70.56 703.47 93.45 Z" />
</g>
<g id="#ffffffff">
<path fill="#ffffff" opacity="1.00" d=" M 13.47 31.66 C 13.49 25.35 13.42 19.03 13.52 12.71 C 23.33 12.81 33.14 12.63 42.94 12.78 C 46.78 12.51 49.98 16.21 49.27 19.97 C 48.97 23.06 46.07 24.77 43.34 25.45 C 46.39 27.38 49.30 29.49 52.17 31.66 C 47.29 31.68 42.40 31.69 37.51 31.63 C 34.38 29.27 31.86 25.31 27.56 25.22 C 27.54 27.37 27.53 29.51 27.53 31.66 C 22.84 31.67 18.16 31.67 13.47 31.66 M 27.55 17.04 C 27.54 18.47 27.53 19.91 27.53 21.35 C 30.02 21.33 32.53 21.48 35.00 21.11 C 36.31 20.19 36.34 17.94 34.77 17.27 C 32.38 16.92 29.96 17.07 27.55 17.04 Z" />
<path fill="#ffffff" opacity="1.00" d=" M 73.00 12.81 C 85.06 12.65 97.12 12.77 109.17 12.74 C 109.17 14.22 109.17 15.71 109.18 17.20 C 105.70 17.20 102.22 17.21 98.74 17.19 C 98.62 22.01 98.64 26.84 98.65 31.67 C 93.64 31.66 88.63 31.71 83.62 31.61 C 83.67 26.81 83.64 22.01 83.65 17.21 C 80.10 17.20 76.55 17.20 73.00 17.20 C 73.00 15.74 73.00 14.27 73.00 12.81 Z" />
<path fill="#ffffff" opacity="1.00" d=" M 131.88 12.80 C 137.25 12.80 142.63 12.80 148.00 12.80 C 148.00 17.64 148.00 22.49 148.00 27.33 C 154.88 27.33 161.77 27.33 168.65 27.33 C 168.65 28.78 168.65 30.22 168.65 31.67 C 156.42 31.69 144.19 31.63 131.96 31.69 C 131.80 25.40 131.91 19.10 131.88 12.80 Z" />
<path fill="#ffffff" opacity="1.00" d=" M 226.09 24.00 C 232.07 20.56 239.34 20.12 246.04 20.97 C 252.48 21.96 259.17 25.60 261.54 31.99 C 263.37 36.68 261.79 41.65 260.80 46.33 C 255.08 46.34 249.37 46.33 243.65 46.33 C 244.10 43.11 245.39 39.73 244.34 36.51 C 243.04 33.56 239.04 33.49 236.46 34.57 C 233.33 36.08 232.13 39.64 231.38 42.79 C 229.11 53.00 226.90 63.22 224.64 73.43 C 224.15 76.12 223.54 79.30 225.36 81.64 C 227.83 84.50 233.07 84.29 235.13 81.01 C 237.49 77.37 237.72 72.86 238.69 68.73 C 244.40 68.74 250.11 68.73 255.82 68.73 C 254.39 75.34 253.70 82.59 249.17 87.98 C 243.48 95.02 233.67 97.12 225.04 96.10 C 220.41 95.57 216.27 93.20 212.77 90.23 C 210.37 88.05 207.06 87.78 203.98 87.61 C 204.62 85.80 205.24 83.99 205.66 82.12 C 208.65 68.54 211.55 54.94 214.60 41.37 C 216.17 34.49 219.76 27.59 226.09 24.00 Z" />
<path fill="#ffffff" opacity="1.00" d=" M 261.62 95.00 C 266.91 70.59 272.11 46.16 277.49 21.77 C 284.99 21.88 292.50 21.68 300.01 21.87 C 306.90 22.00 314.10 24.98 317.85 31.00 C 321.86 37.20 321.44 45.22 318.91 51.90 C 316.83 57.96 312.62 63.26 306.95 66.31 C 307.95 75.88 309.05 85.43 310.08 95.00 C 304.15 94.99 298.22 95.02 292.29 94.97 C 291.85 86.43 291.36 77.89 290.87 69.35 C 288.71 69.40 286.56 69.45 284.40 69.49 C 282.59 77.99 280.78 86.49 278.97 95.00 C 273.19 95.00 267.40 95.00 261.62 95.00 M 291.49 35.20 C 289.86 42.22 288.44 49.29 286.88 56.33 C 291.03 56.07 295.92 57.39 299.36 54.37 C 303.99 50.49 306.39 43.21 303.18 37.76 C 300.63 33.98 295.37 34.79 291.49 35.20 Z" />
<path fill="#ffffff" opacity="1.00" d=" M 337.07 21.80 C 342.78 21.80 348.50 21.80 354.21 21.80 C 348.89 46.20 343.61 70.61 338.27 95.00 C 332.56 94.99 326.84 95.02 321.13 94.98 C 326.47 70.60 331.74 46.19 337.07 21.80 Z" />
<path fill="#ffffff" opacity="1.00" d=" M 369.33 21.81 C 377.51 21.78 385.68 21.81 393.86 21.80 C 394.19 36.27 394.32 50.74 394.76 65.20 C 400.39 50.86 405.16 36.18 410.61 21.76 C 419.13 21.84 427.65 21.77 436.17 21.80 C 430.88 46.08 425.77 70.40 420.36 94.65 C 415.17 95.50 409.53 94.75 404.17 95.00 C 407.36 80.09 411.53 65.37 414.17 50.35 C 411.96 51.15 411.48 53.51 410.68 55.42 C 405.59 68.64 400.44 81.83 395.28 95.02 C 390.76 94.99 386.24 95.00 381.73 95.00 C 381.34 80.33 381.59 65.61 380.76 50.97 C 379.13 49.20 378.90 53.04 378.44 54.00 C 375.51 67.67 372.46 81.30 369.55 94.97 C 364.06 95.03 358.58 94.99 353.10 95.00 C 358.50 70.60 363.94 46.21 369.33 21.81 Z" />
<path fill="#ffffff" opacity="1.00" d=" M 451.29 21.81 C 463.98 21.78 476.67 21.80 489.36 21.80 C 488.47 26.16 487.56 30.51 486.68 34.86 C 479.82 34.87 472.96 34.86 466.11 34.87 C 464.87 40.19 463.66 45.53 462.41 50.85 C 468.49 50.88 474.56 50.86 480.64 50.87 C 479.61 55.30 478.63 59.75 477.51 64.16 C 471.53 64.12 465.56 64.10 459.59 64.17 C 458.38 70.13 457.08 76.06 455.83 82.00 C 461.68 82.00 467.54 82.00 473.39 82.00 C 472.54 86.33 471.67 90.66 470.83 94.99 C 459.12 95.01 447.41 95.00 435.69 95.00 C 440.89 70.60 446.11 46.21 451.29 21.81 Z" />
</g>
<g id="#2f92cbff">
<path fill="#2f92cb" opacity="1.00" d=" M 14.27 46.11 C 16.60 45.75 19.03 45.68 21.35 46.10 C 22.14 46.45 23.72 47.17 24.51 47.53 C 18.51 52.47 11.66 56.21 5.15 60.41 C 5.01 59.35 4.88 58.29 4.74 57.23 C 11.12 54.66 17.83 52.03 22.36 46.58 C 20.24 46.81 18.08 46.87 16.03 47.46 C 14.02 48.49 12.66 50.45 10.66 51.48 C 8.68 52.16 6.58 52.40 4.53 52.79 C 4.58 51.89 4.69 50.08 4.74 49.18 C 7.92 48.17 11.06 47.04 14.27 46.11 Z" />
<path fill="#2f92cb" opacity="1.00" d=" M 27.71 46.07 C 28.83 45.93 29.95 45.84 31.08 45.80 C 28.72 48.56 26.77 51.67 24.16 54.22 C 21.45 56.36 17.97 57.19 15.15 59.17 C 12.39 60.93 10.15 63.62 6.93 64.55 C 4.82 64.84 4.27 64.11 5.28 62.35 C 9.68 59.57 14.76 57.97 19.02 54.92 C 22.61 52.71 24.93 49.12 27.71 46.07 Z" />
<path fill="#2f92cb" opacity="1.00" d=" M 36.75 45.99 C 38.02 45.93 39.29 45.87 40.57 45.81 C 37.95 47.80 35.78 50.27 33.86 52.93 C 31.86 55.87 28.00 56.24 25.24 58.19 C 20.77 61.36 17.38 65.79 12.98 69.06 C 10.48 70.95 7.30 71.43 4.35 72.27 C 4.41 71.67 4.53 70.48 4.59 69.88 C 7.12 68.58 9.81 67.62 12.30 66.25 C 15.06 64.77 16.81 62.09 19.03 59.97 C 24.42 54.65 32.43 52.47 36.75 45.99 Z" />
<path fill="#2f92cb" opacity="1.00" d=" M 45.76 46.16 C 46.47 46.07 47.90 45.89 48.61 45.81 C 46.37 48.77 44.00 51.75 40.79 53.73 C 37.06 56.28 32.25 57.72 29.96 61.93 C 28.68 64.29 25.56 64.14 23.58 65.65 C 19.48 68.74 17.10 74.09 11.93 75.71 C 9.18 76.61 6.67 78.06 4.36 79.79 C 4.44 79.02 4.62 77.49 4.71 76.72 C 6.77 74.84 9.28 73.61 11.87 72.64 C 16.42 70.98 19.12 66.72 22.62 63.64 C 26.14 60.18 30.99 58.72 34.91 55.83 C 38.84 52.97 42.12 49.36 45.76 46.16 Z" />
<path fill="#2f92cb" opacity="1.00" d=" M 54.36 46.16 C 56.18 45.51 58.19 46.08 60.06 46.12 C 58.44 46.65 56.83 47.21 55.20 47.74 C 55.09 48.17 54.88 49.03 54.77 49.46 C 55.40 49.80 56.66 50.48 57.29 50.82 C 56.27 51.30 55.26 51.78 54.25 52.27 C 55.14 49.94 52.83 48.78 51.47 47.59 C 52.43 47.10 53.39 46.62 54.36 46.16 Z" />
<path fill="#2f92cb" opacity="1.00" d=" M 63.78 46.01 L 63.92 45.87 C 65.59 45.88 67.26 45.90 68.93 45.91 C 65.10 49.37 60.88 52.48 55.94 54.13 C 58.40 51.27 61.11 48.65 63.78 46.01 Z" />
<path fill="#2f92cb" opacity="1.00" d=" M 71.52 46.19 C 72.97 45.85 74.46 45.74 75.99 45.87 C 72.73 48.32 69.22 50.45 66.13 53.13 C 60.66 57.82 57.90 64.97 51.89 69.11 C 54.12 64.98 56.69 61.05 59.16 57.06 C 62.11 52.30 67.00 49.28 71.52 46.19 Z" />
<path fill="#2f92cb" opacity="1.00" d=" M 79.44 46.11 C 81.81 45.64 84.26 45.94 86.67 45.98 C 73.30 52.89 61.82 64.09 56.48 78.34 C 55.75 80.72 55.44 83.20 55.06 85.66 C 56.58 85.81 58.08 85.99 59.60 86.16 C 59.45 78.99 62.74 72.40 66.62 66.58 C 72.44 57.30 81.78 51.00 91.34 46.06 C 93.55 45.67 95.82 45.94 98.04 46.04 C 89.55 49.61 81.04 53.79 74.62 60.57 C 69.97 65.13 67.67 71.44 63.17 76.13 C 60.78 78.50 61.87 82.11 62.12 85.06 C 62.74 88.91 63.39 93.79 67.66 95.28 C 77.34 99.08 88.88 98.31 98.08 93.48 C 99.24 94.22 100.41 94.96 101.58 95.70 C 104.75 92.45 108.96 90.73 112.95 88.76 C 116.42 86.99 118.83 81.85 116.77 78.39 C 111.51 75.99 105.72 78.31 100.48 79.58 C 95.14 81.13 89.54 81.19 84.04 80.75 C 81.13 83.00 77.54 83.06 74.11 82.22 C 73.62 83.37 73.14 84.52 72.65 85.67 C 68.45 82.30 69.01 76.51 69.73 71.75 C 70.44 67.28 72.87 63.35 75.85 60.04 C 76.88 60.37 77.92 60.70 78.96 61.03 C 87.27 52.80 98.47 47.78 110.11 46.81 C 126.12 45.37 143.17 49.80 155.21 60.77 C 161.34 66.26 165.26 73.82 167.30 81.71 C 167.65 83.40 167.31 85.12 167.18 86.82 C 171.44 89.82 171.33 95.33 171.32 99.99 C 171.15 104.27 171.01 108.69 169.31 112.70 C 168.87 105.26 170.16 97.58 167.41 90.40 C 166.32 98.06 167.58 105.84 166.38 113.49 C 165.82 113.53 164.72 113.60 164.17 113.64 C 163.56 106.05 165.86 98.59 165.11 91.01 C 164.22 78.07 158.07 65.25 147.49 57.51 C 143.18 54.46 138.32 51.91 133.05 51.17 C 131.34 52.79 134.66 53.59 135.69 54.26 C 148.78 58.95 158.49 70.77 161.93 84.07 C 164.62 93.68 163.92 103.87 161.56 113.46 C 160.78 113.48 159.22 113.52 158.44 113.54 C 159.56 104.98 162.52 96.31 160.51 87.65 C 158.18 78.30 153.87 68.93 146.13 62.85 C 138.78 57.01 129.21 54.79 119.98 54.59 C 121.22 56.76 122.75 58.86 125.30 59.51 C 125.75 58.84 126.66 57.51 127.12 56.84 C 135.60 56.86 141.58 63.41 147.70 68.32 C 149.33 69.88 152.55 70.99 151.74 73.86 C 149.26 73.62 148.07 71.10 146.54 69.47 C 141.98 63.56 135.16 59.07 127.53 58.83 C 132.55 64.31 140.75 65.91 144.56 72.63 C 145.65 72.76 146.75 72.90 147.84 73.03 C 149.60 75.84 151.46 78.71 152.13 82.01 C 153.35 86.92 152.74 92.02 153.35 96.99 C 153.48 98.23 154.99 98.61 155.71 99.44 C 156.81 91.08 152.31 83.43 152.26 75.24 C 153.44 75.33 153.86 76.69 154.52 77.49 C 159.61 85.83 160.46 96.48 157.49 105.71 C 156.87 106.45 156.59 109.90 155.27 107.94 C 154.56 104.81 154.96 101.38 153.16 98.56 C 152.10 103.49 151.85 108.59 150.23 113.39 C 149.66 113.44 148.52 113.54 147.96 113.58 C 152.15 102.28 151.82 89.57 147.79 78.28 C 147.26 76.60 145.90 75.43 144.66 74.28 C 145.06 79.29 147.57 83.86 147.68 88.91 C 147.94 96.60 147.54 104.60 144.60 111.80 C 144.33 113.48 142.50 113.63 141.28 112.85 C 141.69 108.11 149.12 103.50 144.58 98.73 C 143.27 102.99 142.46 107.47 140.31 111.42 C 139.77 112.54 138.49 113.94 137.28 112.79 C 139.60 106.16 144.54 100.24 145.17 93.09 C 143.79 86.16 143.04 79.03 140.78 72.31 C 139.26 67.65 134.71 65.01 130.06 64.43 C 134.15 68.56 139.00 72.48 140.53 78.37 C 144.06 90.49 138.80 102.91 132.95 113.38 C 131.53 113.38 130.11 113.37 128.69 113.36 C 132.36 108.23 136.04 102.96 138.01 96.91 C 140.28 90.49 140.48 83.01 137.01 76.97 C 135.45 73.97 132.82 71.79 130.50 69.41 C 128.75 67.65 128.15 65.13 126.82 63.09 C 125.21 61.94 123.03 62.26 121.19 61.88 C 124.83 66.22 129.79 69.38 132.65 74.37 C 137.90 82.12 139.25 92.90 134.09 101.04 C 131.20 105.43 127.98 109.81 123.98 113.23 C 123.16 113.26 121.54 113.31 120.72 113.34 C 125.74 107.84 131.58 102.65 134.34 95.55 C 135.89 90.22 136.28 84.03 133.38 79.08 C 132.56 84.75 132.75 90.77 129.97 95.96 C 127.29 101.65 121.84 105.23 118.41 110.38 C 116.05 114.71 110.40 113.17 106.39 113.24 C 111.59 109.87 117.58 107.48 121.68 102.65 C 127.06 96.31 131.17 88.38 131.37 79.93 C 130.26 73.01 123.46 66.39 116.09 67.67 C 112.15 68.02 107.81 66.57 104.27 68.96 C 104.25 70.82 105.17 71.63 107.02 71.40 C 110.95 71.50 114.76 68.94 118.69 70.22 C 122.24 71.15 126.48 72.37 127.81 76.26 C 130.75 84.11 128.05 93.42 122.00 99.07 C 116.48 105.00 108.70 107.73 102.06 112.08 C 98.73 114.39 94.44 113.22 90.69 113.14 C 100.80 108.97 112.09 106.14 119.85 97.86 C 125.35 92.47 127.49 84.58 126.99 77.04 C 126.28 77.08 124.86 77.17 124.15 77.21 C 124.57 81.23 125.39 85.61 123.20 89.30 C 119.47 95.98 112.61 101.81 104.58 101.61 C 106.76 99.97 109.19 98.73 111.56 97.41 C 114.11 96.24 113.84 92.59 116.30 91.32 C 118.13 89.93 120.99 89.16 121.30 86.51 C 122.06 82.85 122.44 79.10 123.58 75.52 C 118.23 71.32 111.24 72.96 104.99 72.75 C 98.06 72.36 91.18 75.00 85.53 78.89 C 91.41 80.47 96.55 76.60 102.08 75.41 C 107.47 74.17 113.52 73.81 118.58 76.40 C 120.91 77.81 119.99 81.00 119.02 83.00 C 115.06 90.80 107.67 96.41 99.70 99.70 C 91.88 102.65 83.05 104.43 74.83 102.20 C 82.38 101.21 90.48 102.10 97.42 98.32 C 98.43 98.02 100.31 95.29 97.97 95.51 C 94.21 96.65 90.97 99.30 86.97 99.73 C 80.24 100.57 73.22 99.82 66.91 97.28 C 62.41 95.63 60.22 90.78 59.83 86.29 C 59.21 87.53 58.60 88.78 58.00 90.04 C 57.32 89.65 55.96 88.87 55.28 88.48 C 56.36 90.99 57.27 93.77 59.48 95.55 C 63.86 99.29 70.03 99.57 74.65 102.94 C 72.85 103.02 70.95 103.52 69.21 102.81 C 63.18 100.45 56.21 97.79 53.95 91.04 C 51.01 82.11 57.42 74.01 60.15 65.91 C 59.82 65.14 59.50 64.37 59.18 63.60 C 62.13 62.80 65.07 61.54 66.93 58.99 C 70.67 54.31 73.92 48.94 79.44 46.11 M 112.87 50.07 C 113.09 52.77 116.06 52.68 118.06 52.40 C 118.57 52.72 119.59 53.37 120.10 53.69 C 120.96 52.65 122.36 51.69 121.74 50.14 C 120.49 49.58 119.24 49.62 117.99 50.26 C 116.42 49.12 114.48 48.85 112.87 50.07 M 128.54 49.29 C 127.40 50.93 130.94 53.01 131.65 51.00 C 131.79 49.51 129.71 48.40 128.54 49.29 M 96.21 52.49 C 95.06 52.68 94.37 53.68 93.58 54.42 C 94.55 54.59 96.47 54.93 97.43 55.10 C 96.32 58.58 93.66 55.51 91.44 55.50 C 87.76 57.60 83.88 59.92 81.68 63.68 C 78.49 69.04 75.62 74.92 75.53 81.29 C 79.16 81.20 82.52 79.52 85.25 77.23 C 86.84 74.43 87.03 70.85 89.46 68.55 C 94.82 63.26 102.50 61.89 109.39 59.63 C 108.01 56.90 105.19 59.11 103.10 59.61 C 101.53 59.30 99.88 58.61 98.36 59.48 C 93.75 61.48 89.32 64.27 86.09 68.17 C 83.23 71.85 82.60 78.09 76.99 78.72 C 78.82 76.28 81.02 74.04 82.32 71.24 C 84.17 67.53 85.25 63.25 88.36 60.33 C 90.62 58.22 93.97 58.69 96.72 57.75 C 98.16 56.54 99.03 54.51 100.98 54.01 C 104.49 52.67 108.96 53.14 111.53 49.96 C 106.25 49.16 101.26 51.38 96.21 52.49 M 122.87 49.91 C 122.31 52.37 124.93 54.20 127.14 53.17 C 127.98 50.53 125.10 48.81 122.87 49.91 M 106.90 55.95 C 108.95 58.91 113.39 59.54 116.54 58.01 C 117.74 58.72 119.05 59.08 120.45 59.10 C 119.38 58.35 118.28 57.64 117.18 56.94 C 115.49 54.67 112.70 54.15 110.02 54.36 C 109.00 54.66 106.37 53.98 106.90 55.95 M 115.35 61.36 C 114.09 61.52 112.95 64.04 114.51 64.43 C 117.07 66.22 119.42 63.49 121.28 62.04 C 119.35 61.69 117.31 60.68 115.35 61.36 M 101.57 63.44 C 96.59 65.16 90.69 68.41 89.96 74.18 C 93.98 72.73 96.76 69.20 100.70 67.59 C 104.52 65.65 108.94 66.06 112.97 64.91 C 113.02 64.39 113.12 63.36 113.16 62.84 C 109.51 61.15 105.28 62.59 101.57 63.44 M 72.19 68.18 C 72.58 72.83 69.44 78.12 72.26 82.31 C 73.14 78.44 72.39 74.05 74.77 70.64 C 76.43 68.09 78.16 65.48 78.44 62.35 C 75.89 63.75 74.06 66.03 72.19 68.18 Z" />
<path fill="#2f92cb" opacity="1.00" d=" M 133.70 45.99 C 136.61 45.96 139.60 45.56 142.46 46.16 C 151.88 51.73 162.23 57.23 167.96 66.99 C 171.00 71.92 171.77 77.77 172.14 83.43 C 173.41 83.51 174.69 83.58 175.97 83.58 C 175.75 81.65 174.65 80.00 173.91 78.25 C 172.14 74.46 171.92 70.04 169.48 66.54 C 163.68 58.13 155.90 51.23 147.25 45.85 C 149.06 45.90 150.89 45.78 152.69 46.08 C 157.46 49.81 161.00 56.23 167.77 56.31 C 164.71 51.98 159.41 50.05 156.11 45.89 C 157.85 46.00 159.70 45.63 161.38 46.13 C 169.17 51.18 172.69 60.00 178.36 66.95 C 178.35 68.94 178.35 70.93 178.34 72.92 C 177.30 72.88 175.22 72.80 174.17 72.75 C 174.36 75.18 176.11 76.46 178.42 76.85 C 178.52 80.74 178.46 84.63 178.51 88.51 C 177.90 88.26 176.68 87.77 176.07 87.52 C 175.81 87.46 175.28 87.32 175.02 87.25 C 174.46 87.15 173.36 86.93 172.81 86.82 C 173.04 87.88 173.28 88.94 173.52 89.99 C 173.90 91.37 174.04 93.05 175.22 94.02 C 175.90 93.28 176.25 92.36 176.27 91.25 L 177.07 90.74 C 179.50 97.23 177.93 104.32 178.41 111.07 C 179.61 113.62 177.06 112.76 175.90 112.97 C 176.74 106.80 178.02 99.90 174.51 94.30 C 172.27 99.49 176.14 104.79 174.23 109.95 C 173.68 110.87 173.73 113.00 172.24 112.77 C 172.13 99.43 172.39 85.55 166.80 73.11 C 161.07 59.29 148.02 49.53 133.70 45.99 M 168.39 55.94 C 167.85 57.32 167.31 58.71 166.77 60.10 C 167.75 61.18 168.72 62.26 169.70 63.34 C 170.38 62.09 171.09 60.85 171.79 59.61 C 170.65 58.38 169.52 57.16 168.39 55.94 M 172.30 62.85 C 171.99 63.67 171.68 64.49 171.36 65.31 C 172.56 67.18 173.47 69.21 174.35 71.24 C 175.28 70.01 176.77 68.81 176.26 67.07 C 175.44 65.27 173.72 64.14 172.30 62.85 Z" />
<path fill="#2f92cb" opacity="1.00" d=" M 170.23 46.09 C 171.00 46.07 172.56 46.04 173.33 46.02 C 174.96 47.26 177.10 48.11 178.04 50.04 C 178.15 50.90 178.36 52.62 178.47 53.47 C 175.83 50.90 173.31 48.15 170.23 46.09 Z" />
<path fill="#2f92cb" opacity="1.00" d=" M 43.91 54.99 C 46.24 52.84 47.86 49.68 51.12 48.81 C 50.93 51.27 48.85 52.73 47.18 54.25 C 40.76 59.85 34.55 65.84 27.17 70.19 C 24.89 71.43 22.43 73.03 19.71 72.31 C 22.72 69.59 26.52 68.05 29.86 65.81 C 34.80 62.56 39.65 59.10 43.91 54.99 Z" />
<path fill="#2f92cb" opacity="1.00" d=" M 52.02 62.03 C 50.94 59.58 52.58 53.43 56.82 54.64 C 56.02 57.44 56.53 63.43 52.02 62.03 Z" />
<path fill="#2f92cb" opacity="1.00" d=" M 39.85 62.83 C 42.23 61.04 44.17 57.85 47.58 58.41 C 45.03 61.92 41.94 64.98 38.26 67.28 C 35.53 68.89 35.26 72.29 33.81 74.81 C 31.91 77.55 28.66 79.16 27.19 82.23 C 25.87 84.72 25.25 87.90 22.41 89.15 C 21.93 87.80 21.37 86.47 21.13 85.05 C 22.77 82.73 25.30 81.27 27.15 79.14 C 31.91 74.11 34.27 67.13 39.85 62.83 Z" />
<path fill="#2f92cb" opacity="1.00" d=" M 49.91 82.69 C 49.86 76.60 52.98 70.15 58.22 66.87 C 57.54 70.19 54.75 72.45 53.67 75.60 C 52.57 78.02 52.26 81.05 49.91 82.69 Z" />
<path fill="#2f92cb" opacity="1.00" d=" M 45.04 71.92 C 45.24 70.03 46.26 68.64 48.36 68.87 C 47.75 70.36 46.73 71.59 45.52 72.65 C 45.95 72.94 46.81 73.52 47.24 73.81 C 48.99 73.33 49.77 71.30 51.15 70.24 C 51.94 76.46 44.31 79.87 45.10 86.06 C 45.61 93.72 53.52 98.67 53.23 106.47 C 47.91 100.59 43.85 93.03 43.55 84.97 C 43.34 81.81 45.11 79.06 46.29 76.27 L 45.83 75.93 C 44.45 75.91 43.07 75.94 41.70 76.02 C 42.13 74.14 43.46 72.88 45.04 71.92 Z" />
<path fill="#2f92cb" opacity="1.00" d=" M 35.53 79.16 C 34.03 75.07 37.77 70.59 42.03 71.05 C 39.92 76.54 36.16 81.19 34.00 86.66 C 35.04 87.91 37.21 89.03 35.75 90.85 C 34.25 90.65 33.12 89.59 31.91 88.80 C 31.95 92.34 30.96 96.21 32.77 99.48 C 33.97 101.59 33.76 104.10 33.84 106.43 C 32.47 104.28 31.86 101.80 31.74 99.27 C 31.25 98.99 30.25 98.44 29.76 98.16 C 29.48 94.90 29.23 91.64 29.13 88.37 C 32.56 87.69 33.51 84.21 34.54 81.38 C 34.02 80.73 33.49 80.09 32.96 79.46 C 31.19 82.64 29.47 85.97 26.67 88.40 C 27.52 84.50 30.06 81.34 32.13 78.04 L 32.18 78.87 C 33.30 78.96 34.41 79.06 35.53 79.16 Z" />
<path fill="#2f92cb" opacity="1.00" d=" M 14.29 76.35 C 16.65 74.82 19.30 73.80 22.09 73.40 C 17.19 77.66 12.09 83.34 5.09 83.34 C 7.39 80.12 11.06 78.45 14.29 76.35 Z" />
<path fill="#2f92cb" opacity="1.00" d=" M 17.65 81.63 C 20.57 78.69 23.50 75.61 27.40 73.97 C 22.42 82.57 13.83 88.30 4.52 91.33 C 4.52 90.73 4.51 89.53 4.51 88.93 C 9.23 87.23 14.05 85.25 17.65 81.63 Z" />
<path fill="#2f92cb" opacity="1.00" d=" M 65.27 77.31 C 68.00 80.46 68.06 85.04 70.75 88.24 C 74.18 92.58 80.56 92.99 85.51 91.52 C 81.85 90.39 76.90 90.94 74.62 87.23 C 73.55 86.18 75.93 84.65 76.89 85.61 C 80.97 87.17 84.55 90.20 89.10 90.42 C 94.84 90.69 100.48 88.92 105.75 86.76 C 108.50 85.47 111.75 84.29 112.95 81.20 C 106.13 82.42 100.12 86.72 93.04 86.78 C 88.85 86.69 83.87 87.15 80.59 84.04 C 84.37 83.32 88.13 84.58 91.92 84.29 C 98.85 83.79 105.08 80.11 112.01 79.63 C 113.60 79.44 115.79 80.05 115.74 82.00 C 113.66 86.23 108.98 88.23 104.78 89.75 C 96.18 92.55 87.07 94.20 78.00 93.77 C 73.95 93.39 69.30 92.65 66.71 89.15 C 64.43 85.67 64.84 81.24 65.27 77.31 Z" />
<path fill="#2f92cb" opacity="1.00" d=" M 48.02 82.56 C 53.30 86.74 50.38 95.14 55.58 99.49 C 63.23 106.55 74.52 104.04 83.90 106.20 C 86.69 104.68 89.93 105.24 92.97 105.05 C 96.49 105.12 99.35 102.77 102.51 101.60 C 101.70 105.97 97.50 108.27 93.65 109.57 C 85.42 112.29 76.63 112.71 68.03 112.44 C 64.11 112.17 60.04 112.12 56.36 110.60 C 54.39 109.64 54.20 107.24 53.60 105.42 C 61.39 110.39 71.00 110.66 79.93 110.13 C 84.65 109.65 89.90 109.40 93.60 106.06 C 89.04 105.92 84.57 106.97 80.04 107.20 C 76.38 107.33 72.76 108.96 69.11 107.74 C 63.10 106.02 55.68 104.32 52.89 98.00 C 50.84 93.01 49.23 87.82 48.02 82.56 Z" />
<path fill="#2f92cb" opacity="1.00" d=" M 38.96 83.36 C 39.32 83.67 40.03 84.31 40.38 84.62 C 40.58 91.06 41.74 97.79 45.78 103.01 C 48.18 105.71 52.37 107.27 52.37 111.49 C 48.22 107.66 44.50 103.33 41.26 98.72 C 38.11 94.29 37.28 88.51 38.96 83.36 Z" />
<path fill="#2f92cb" opacity="1.00" d=" M 15.62 99.54 C 17.41 96.48 19.19 93.36 21.58 90.72 C 20.68 94.47 19.60 98.26 17.58 101.58 C 16.23 102.62 14.49 100.81 15.62 99.54 Z" />
<path fill="#2f92cb" opacity="1.00" d=" M 34.11 91.59 C 36.10 92.63 35.48 95.15 36.08 96.95 C 37.21 102.84 43.69 105.60 45.21 111.35 C 38.10 107.81 34.69 99.16 34.11 91.59 Z" />
<path fill="#2f92cb" opacity="1.00" d=" M 20.92 97.80 C 25.33 102.85 29.17 108.37 33.36 113.61 C 32.91 113.53 32.01 113.36 31.56 113.27 C 27.14 108.85 21.12 104.71 20.92 97.80 Z" />
<path fill="#2f92cb" opacity="1.00" d=" M 6.83 101.29 C 9.06 101.08 11.64 99.78 13.66 101.27 C 15.23 102.31 15.00 104.40 15.35 106.01 C 12.20 104.38 8.72 104.07 5.24 104.49 C 5.01 103.28 4.64 100.77 6.83 101.29 Z" />
<path fill="#2f92cb" opacity="1.00" d=" M 45.85 113.37 C 46.12 112.57 46.66 110.97 46.93 110.17 C 48.72 111.28 50.51 112.40 52.29 113.52 C 50.14 113.55 48.00 113.51 45.85 113.37 Z" />
</g>
<g id="#2b88c0ff">
<path fill="#2b88c0" opacity="1.00" d=" M 165.10 45.93 C 166.63 45.88 168.17 45.81 169.70 45.72 C 171.27 48.27 173.10 50.65 174.99 52.97 C 176.67 55.23 179.32 57.90 177.92 60.95 C 176.41 60.19 175.93 58.34 174.96 57.07 C 172.49 52.69 168.80 49.25 165.10 45.93 Z" />
</g>
<g id="#2376aeff">
<path fill="#2376ae" opacity="1.00" d=" M 176.29 46.21 C 176.70 46.15 177.54 46.04 177.95 45.98 C 177.76 47.46 177.20 47.53 176.29 46.21 Z" />
</g>
<g id="#10477cff">
<path fill="#10477c" opacity="1.00" d=" M 128.54 49.29 C 129.71 48.40 131.79 49.51 131.65 51.00 C 130.94 53.01 127.40 50.93 128.54 49.29 Z" />
</g>
<g id="#032b5dff">
<path fill="#032b5d" opacity="1.00" d=" M 122.87 49.91 C 125.10 48.81 127.98 50.53 127.14 53.17 C 124.93 54.20 122.31 52.37 122.87 49.91 Z" />
</g>
<g id="#2b89c2ff">
<path fill="#2b89c2" opacity="1.00" d=" M 46.44 58.41 C 47.98 56.06 49.07 52.53 52.44 52.47 C 52.49 55.93 50.05 58.75 46.44 58.41 Z" />
<path fill="#2b89c2" opacity="1.00" d=" M 4.61 96.51 C 11.37 95.78 13.78 88.58 19.36 85.73 C 17.95 92.90 11.47 97.80 4.47 98.80 C 4.50 98.23 4.57 97.08 4.61 96.51 Z" />
</g>
<g id="#073366ff">
<path fill="#073366" opacity="1.00" d=" M 168.39 55.94 C 169.52 57.16 170.65 58.38 171.79 59.61 C 171.09 60.85 170.38 62.09 169.70 63.34 C 168.72 62.26 167.75 61.18 166.77 60.10 C 167.31 58.71 167.85 57.32 168.39 55.94 Z" />
<path fill="#073366" opacity="1.00" d=" M 172.30 62.85 C 173.72 64.14 175.44 65.27 176.26 67.07 C 176.77 68.81 175.28 70.01 174.35 71.24 C 173.47 69.21 172.56 67.18 171.36 65.31 C 171.68 64.49 171.99 63.67 172.30 62.85 Z" />
</g>
<g id="#2a86beff">
<path fill="#2a86be" opacity="1.00" d=" M 42.59 66.48 C 45.24 63.59 47.92 60.57 51.34 58.55 C 48.80 62.43 46.86 67.24 42.98 69.91 C 39.89 70.95 41.50 67.68 42.59 66.48 Z" />
</g>
<g id="#2984bcff">
<path fill="#2984bc" opacity="1.00" d=" M 47.15 67.24 C 47.26 64.91 49.55 63.02 51.81 63.12 C 52.16 63.56 52.86 64.46 53.21 64.91 C 51.39 65.96 49.48 68.70 47.15 67.24 Z" />
</g>
<g id="#2a86bfff">
<path fill="#2a86bf" opacity="1.00" d=" M 37.93 81.88 C 38.49 79.43 41.05 76.53 43.68 78.23 C 44.03 81.57 40.64 82.65 37.93 81.88 Z" />
<path fill="#2a86bf" opacity="1.00" d=" M 16.59 103.73 C 19.46 103.61 20.95 106.54 22.75 108.29 C 23.72 109.77 25.61 110.93 25.77 112.80 C 23.97 114.15 22.59 111.69 21.28 110.73 C 19.47 108.62 16.46 106.86 16.59 103.73 Z" />
</g>
<g id="#1a6197ff">
<path fill="#1a6197" opacity="1.00" d=" M 172.81 86.82 C 173.36 86.93 174.46 87.15 175.02 87.25 C 175.71 88.41 176.42 89.56 177.07 90.74 L 176.27 91.25 C 175.56 90.51 174.66 89.37 173.52 89.99 C 173.28 88.94 173.04 87.88 172.81 86.82 Z" />
</g>
<g id="#2983bbff">
<path fill="#2983bb" opacity="1.00" d=" M 24.98 89.11 C 25.47 89.30 26.44 89.69 26.93 89.89 C 26.52 94.49 27.40 99.03 28.14 103.54 C 24.15 99.86 24.13 94.07 24.98 89.11 Z" />
</g>
<g id="#052f61ff">
<path fill="#052f61" opacity="1.00" d=" M 173.52 89.99 C 174.66 89.37 175.56 90.51 176.27 91.25 C 176.25 92.36 175.90 93.28 175.22 94.02 C 174.04 93.05 173.90 91.37 173.52 89.99 Z" />
</g>
<g id="#2882baff">
<path fill="#2882ba" opacity="1.00" d=" M 7.58 107.01 C 9.02 106.69 10.86 105.29 12.02 106.90 C 13.08 107.44 14.26 110.87 12.00 110.13 C 9.70 110.78 8.58 108.59 7.58 107.01 Z" />
</g>
<g id="#277eb6ff">
<path fill="#277eb6" opacity="1.00" d=" M 33.75 106.86 C 37.04 108.20 39.74 110.57 41.84 113.40 C 40.97 113.39 39.23 113.36 38.36 113.35 C 36.58 111.37 35.07 109.17 33.75 106.86 Z" />
</g>
<g id="#2c8cc5ff">
<path fill="#2c8cc5" opacity="1.00" d=" M 4.56 109.06 C 6.73 110.37 8.84 111.76 10.85 113.29 C 8.77 113.36 6.69 113.40 4.61 113.43 C 4.60 112.34 4.57 110.16 4.56 109.06 Z" />
</g>
<g id="#2a87bfff">
<path fill="#2a87bf" opacity="1.00" d=" M 154.46 110.37 C 155.30 111.11 155.39 112.08 154.70 113.31 C 154.40 113.34 153.80 113.40 153.50 113.43 C 153.28 112.20 153.60 111.18 154.46 110.37 Z" />
</g>
<g id="#195f94ff">
<path fill="#195f94" opacity="1.00" d=" M 16.34 111.28 C 17.30 110.47 19.27 111.71 18.76 112.93 C 17.80 113.76 15.83 112.50 16.34 111.28 Z" />
</g>
</svg>
