<?xml version="1.0" encoding="UTF-8" standalone="yes"?>
<svg xmlns="http://www.w3.org/2000/svg" xmlns:xlink="http://www.w3.org/1999/xlink" width="149.33333333333331px" height="106.66666666666666px" viewBox="0 0 112 80" version="1.1">
  <g id="surface1">
    <path style=" stroke:none;fill-rule:nonzero;fill:rgb(0%,0%,0%);fill-opacity:1;" d="M 88.140625 0 L 89.71875 0 C 94.988281 0.148438 100.191406 2.160156 104.152344 5.644531 C 106.71875 7.890625 108.773438 10.71875 110.101562 13.863281 C 111.363281 16.796875 111.929688 20 111.960938 23.1875 C 111.882812 24.898438 111.714844 26.617188 111.308594 28.289062 C 110.859375 30.1875 110.164062 32.03125 109.253906 33.757812 C 106.550781 38.910156 101.863281 42.996094 96.359375 44.882812 C 92.335938 46.289062 87.917969 46.472656 83.765625 45.554688 C 80.542969 44.835938 77.5 43.363281 74.921875 41.304688 C 72.203125 39.136719 69.949219 36.382812 68.375 33.285156 C 68.332031 35.917969 67.261719 38.453125 65.664062 40.515625 C 63.546875 43.261719 60.390625 45.222656 56.949219 45.742188 C 55.734375 45.949219 54.5 45.886719 53.273438 45.894531 C 47.3125 45.894531 41.355469 45.894531 35.394531 45.894531 C 35.390625 30.847656 35.394531 15.796875 35.394531 0.75 C 42.4375 0.746094 49.484375 0.746094 56.53125 0.75 C 59.390625 0.808594 62.09375 2.183594 64.132812 4.132812 C 66.535156 6.433594 68.277344 9.601562 68.355469 12.976562 C 68.839844 11.875 69.457031 10.835938 70.144531 9.851562 C 72.117188 7.03125 74.699219 4.628906 77.683594 2.917969 C 80.855469 1.089844 84.492188 0.125 88.140625 0 M 47.097656 10.808594 C 47.101562 13.34375 47.097656 15.878906 47.101562 18.414062 C 49.191406 18.414062 51.28125 18.414062 53.371094 18.414062 C 54.410156 18.402344 55.339844 17.722656 55.871094 16.859375 C 56.769531 15.441406 56.710938 13.488281 55.714844 12.136719 C 55.15625 11.355469 54.246094 10.789062 53.269531 10.808594 C 51.210938 10.808594 49.15625 10.808594 47.097656 10.808594 M 87.195312 11.625 C 85.640625 11.871094 84.140625 12.445312 82.816406 13.296875 C 80.144531 15.003906 78.230469 17.859375 77.707031 20.992188 C 77.253906 23.554688 77.707031 26.265625 78.976562 28.535156 C 80.417969 31.148438 82.914062 33.152344 85.78125 33.980469 C 88.351562 34.742188 91.191406 34.558594 93.644531 33.46875 C 96.363281 32.277344 98.574219 29.984375 99.667969 27.222656 C 100.648438 24.792969 100.75 22.023438 99.960938 19.523438 C 99.058594 16.617188 96.945312 14.117188 94.234375 12.738281 C 92.085938 11.628906 89.582031 11.238281 87.195312 11.625 M 63.84375 22.015625 C 63.152344 22.429688 62.421875 22.808594 61.625 22.960938 C 62.097656 23.054688 62.542969 23.242188 62.964844 23.476562 C 64.214844 24.199219 65.335938 25.171875 66.164062 26.355469 C 65.984375 25.453125 65.953125 24.527344 65.9375 23.609375 C 65.933594 22.457031 65.941406 21.300781 66.148438 20.164062 C 65.488281 20.902344 64.683594 21.5 63.84375 22.015625 M 47.074219 27.753906 C 47.074219 30.289062 47.074219 32.824219 47.074219 35.359375 C 49.175781 35.363281 51.277344 35.363281 53.378906 35.359375 C 54.421875 35.332031 55.351562 34.644531 55.871094 33.769531 C 56.734375 32.371094 56.679688 30.46875 55.722656 29.128906 C 55.171875 28.335938 54.261719 27.75 53.273438 27.753906 C 51.207031 27.753906 49.140625 27.753906 47.074219 27.753906 Z M 47.074219 27.753906 "/>
    <path style=" stroke:none;fill-rule:nonzero;fill:rgb(0%,0%,0%);fill-opacity:1;" d="M 0 0.753906 C 4.214844 0.738281 8.433594 0.75 12.648438 0.75 C 12.648438 6.34375 12.648438 11.9375 12.648438 17.535156 C 15.296875 17.539062 17.945312 17.539062 20.59375 17.535156 C 20.59375 11.941406 20.59375 6.34375 20.59375 0.75 C 24.683594 0.746094 28.773438 0.746094 32.863281 0.75 C 32.863281 15.800781 32.863281 30.851562 32.863281 45.90625 C 28.773438 45.910156 24.683594 45.90625 20.59375 45.90625 C 20.59375 40.070312 20.597656 34.234375 20.59375 28.398438 C 17.945312 28.398438 15.296875 28.398438 12.648438 28.398438 C 12.648438 34.234375 12.652344 40.070312 12.648438 45.90625 C 8.449219 45.90625 4.25 45.910156 0.0546875 45.90625 C 0.0507812 43.265625 0.0546875 40.628906 0.0507812 37.988281 C 0.046875 37.519531 0.0820312 37.046875 0 36.582031 Z M 0 0.753906 "/>
    <path style=" stroke:none;fill-rule:nonzero;fill:rgb(0%,0%,0%);fill-opacity:1;" d="M 108.160156 2.78125 C 108.96875 2.585938 109.894531 2.964844 110.285156 3.710938 C 110.792969 4.601562 110.421875 5.863281 109.488281 6.300781 C 108.5 6.835938 107.105469 6.3125 106.78125 5.21875 C 106.410156 4.203125 107.09375 2.988281 108.160156 2.78125 M 108.175781 3.121094 C 107.292969 3.347656 106.84375 4.417969 107.195312 5.234375 C 107.480469 6.023438 108.480469 6.414062 109.234375 6.046875 C 109.996094 5.722656 110.320312 4.738281 110 3.996094 C 109.730469 3.292969 108.890625 2.894531 108.175781 3.121094 Z M 108.175781 3.121094 "/>
    <path style=" stroke:none;fill-rule:nonzero;fill:rgb(0%,0%,0%);fill-opacity:1;" d="M 107.871094 3.527344 C 108.320312 3.554688 108.800781 3.445312 109.226562 3.636719 C 109.683594 3.929688 109.492188 4.734375 108.933594 4.777344 C 109.136719 5.089844 109.339844 5.402344 109.542969 5.71875 C 109.445312 5.71875 109.25 5.71875 109.15625 5.71875 C 108.957031 5.402344 108.769531 5.082031 108.570312 4.769531 C 108.480469 4.773438 108.300781 4.777344 108.210938 4.777344 C 108.210938 5.089844 108.210938 5.40625 108.210938 5.71875 C 108.125 5.71875 107.957031 5.71875 107.871094 5.71875 C 107.871094 4.988281 107.871094 4.257812 107.871094 3.527344 M 108.210938 3.816406 C 108.210938 4.039062 108.210938 4.261719 108.210938 4.488281 C 108.445312 4.484375 108.683594 4.503906 108.914062 4.449219 C 109.171875 4.394531 109.199219 3.960938 108.953125 3.871094 C 108.714844 3.792969 108.457031 3.824219 108.210938 3.816406 Z M 108.210938 3.816406 "/>
    <path style=" stroke:none;fill-rule:nonzero;fill:rgb(0%,0%,0%);fill-opacity:1;" d="M 88 13.980469 C 89.667969 13.796875 91.390625 14.070312 92.90625 14.804688 C 94.75 15.679688 96.277344 17.207031 97.15625 19.050781 C 98.03125 20.847656 98.257812 22.933594 97.839844 24.878906 C 97.160156 28.207031 94.429688 30.996094 91.121094 31.753906 C 89.296875 32.191406 87.339844 32.046875 85.601562 31.335938 C 83.734375 30.582031 82.136719 29.175781 81.148438 27.417969 C 80.226562 25.796875 79.832031 23.886719 80.027344 22.03125 C 80.214844 20.105469 81.054688 18.253906 82.367188 16.835938 C 83.820312 15.246094 85.859375 14.207031 88 13.980469 Z M 88 13.980469 "/>
    <path style=" stroke:none;fill-rule:nonzero;fill:rgb(0%,0%,0%);fill-opacity:1;" d="M 0.0507812 53.703125 C 36.878906 53.703125 73.703125 53.699219 110.527344 53.703125 C 110.527344 53.925781 110.527344 54.152344 110.527344 54.375 C 73.703125 54.378906 36.878906 54.378906 0.0546875 54.375 C 0.0507812 54.152344 0.0507812 53.925781 0.0507812 53.703125 Z M 0.0507812 53.703125 "/>
    <path style=" stroke:none;fill-rule:nonzero;fill:rgb(0%,0%,0%);fill-opacity:1;" d="M 24.933594 61.878906 C 27.859375 59.851562 31.855469 59.578125 35.085938 61.019531 C 36.96875 61.863281 38.558594 63.339844 39.539062 65.15625 C 41.246094 68.289062 41.136719 72.332031 39.230469 75.347656 C 38.007812 77.320312 36.046875 78.808594 33.828125 79.472656 C 33.042969 79.722656 32.222656 79.816406 31.414062 79.957031 L 29.976562 79.957031 C 29.285156 79.824219 28.578125 79.753906 27.898438 79.5625 C 26.050781 79.074219 24.351562 78.027344 23.105469 76.574219 C 20.8125 73.957031 20.152344 70.101562 21.246094 66.824219 C 21.898438 64.835938 23.207031 63.066406 24.933594 61.878906 M 29.410156 63.34375 C 27.929688 63.628906 26.570312 64.480469 25.664062 65.6875 C 23.828125 68.109375 23.804688 71.726562 25.585938 74.1875 C 26.390625 75.3125 27.566406 76.164062 28.894531 76.554688 C 30.597656 77.058594 32.511719 76.855469 34.042969 75.941406 C 35.285156 75.207031 36.234375 74.019531 36.738281 72.671875 C 37.464844 70.730469 37.351562 68.476562 36.375 66.640625 C 35.769531 65.488281 34.8125 64.515625 33.652344 63.917969 C 32.359375 63.25 30.835938 63.066406 29.410156 63.34375 Z M 29.410156 63.34375 "/>
    <path style=" stroke:none;fill-rule:nonzero;fill:rgb(0%,0%,0%);fill-opacity:1;" d="M 99.007812 61.179688 C 101.125 60.09375 103.609375 59.898438 105.929688 60.320312 C 107.902344 60.660156 109.6875 61.714844 111.105469 63.101562 C 110.386719 63.9375 109.664062 64.769531 108.9375 65.601562 C 108.230469 64.960938 107.476562 64.359375 106.613281 63.9375 C 105.292969 63.265625 103.746094 63.054688 102.296875 63.351562 C 100.875 63.636719 99.578125 64.460938 98.703125 65.617188 C 96.742188 68.171875 96.804688 72.0625 98.835938 74.5625 C 99.777344 75.738281 101.167969 76.546875 102.660156 76.753906 C 104.050781 76.949219 105.507812 76.730469 106.75 76.070312 C 107.609375 75.617188 108.359375 74.988281 109.070312 74.332031 C 109.796875 75.0625 110.527344 75.792969 111.238281 76.535156 C 110.042969 77.792969 108.613281 78.875 106.945312 79.410156 C 106.082031 79.714844 105.171875 79.804688 104.273438 79.957031 L 102.738281 79.957031 C 102.101562 79.820312 101.449219 79.757812 100.820312 79.582031 C 98.839844 79.054688 97.042969 77.863281 95.792969 76.234375 C 93.679688 73.523438 93.191406 69.71875 94.339844 66.507812 C 95.148438 64.226562 96.839844 62.261719 99.007812 61.179688 Z M 99.007812 61.179688 "/>
    <path style=" stroke:none;fill-rule:nonzero;fill:rgb(0%,0%,0%);fill-opacity:1;" d="M 0 60.441406 C 1.039062 60.441406 2.078125 60.441406 3.117188 60.441406 C 6.53125 64.847656 9.941406 69.257812 13.355469 73.664062 C 13.359375 69.253906 13.359375 64.847656 13.355469 60.441406 C 14.460938 60.4375 15.566406 60.441406 16.675781 60.441406 C 16.671875 66.824219 16.675781 73.207031 16.671875 79.589844 C 15.800781 79.589844 14.929688 79.589844 14.054688 79.59375 C 13.925781 79.609375 13.796875 79.566406 13.726562 79.445312 C 10.257812 74.964844 6.789062 70.484375 3.316406 66.007812 C 3.316406 70.535156 3.320312 75.0625 3.316406 79.589844 C 2.210938 79.589844 1.105469 79.589844 0 79.589844 Z M 0 60.441406 "/>
    <path style=" stroke:none;fill-rule:nonzero;fill:rgb(0%,0%,0%);fill-opacity:1;" d="M 44.804688 60.441406 C 47.660156 60.441406 50.519531 60.4375 53.378906 60.441406 C 55.085938 60.453125 56.863281 60.808594 58.257812 61.847656 C 59.367188 62.664062 60.113281 63.921875 60.335938 65.277344 C 60.613281 66.902344 60.382812 68.683594 59.40625 70.042969 C 58.574219 71.222656 57.261719 71.972656 55.894531 72.351562 C 57.609375 74.765625 59.332031 77.175781 61.046875 79.589844 C 59.71875 79.589844 58.390625 79.59375 57.066406 79.589844 C 55.496094 77.371094 53.9375 75.140625 52.367188 72.925781 C 50.96875 72.933594 49.570312 72.921875 48.171875 72.929688 C 48.175781 75.148438 48.175781 77.371094 48.171875 79.589844 C 47.050781 79.589844 45.929688 79.59375 44.804688 79.589844 C 44.804688 73.207031 44.804688 66.824219 44.804688 60.441406 M 48.175781 63.523438 C 48.175781 65.664062 48.171875 67.800781 48.175781 69.9375 C 49.804688 69.9375 51.433594 69.9375 53.066406 69.9375 C 54.09375 69.929688 55.183594 69.707031 55.992188 69.023438 C 57.425781 67.839844 57.367188 65.246094 55.792969 64.203125 C 55.027344 63.695312 54.085938 63.535156 53.179688 63.523438 C 51.511719 63.523438 49.84375 63.523438 48.175781 63.523438 Z M 48.175781 63.523438 "/>
    <path style=" stroke:none;fill-rule:nonzero;fill:rgb(0%,0%,0%);fill-opacity:1;" d="M 64.558594 60.441406 C 66.425781 60.441406 68.292969 60.441406 70.15625 60.441406 C 71.167969 60.445312 72.1875 60.410156 73.195312 60.535156 C 75.039062 60.75 76.847656 61.421875 78.316406 62.566406 C 79.664062 63.601562 80.707031 65.03125 81.285156 66.632812 C 81.953125 68.472656 82.039062 70.507812 81.578125 72.40625 C 81.113281 74.3125 80.027344 76.054688 78.511719 77.296875 C 76.6875 78.8125 74.300781 79.566406 71.945312 79.59375 C 69.484375 79.589844 67.023438 79.59375 64.558594 79.589844 C 64.558594 73.207031 64.558594 66.824219 64.558594 60.441406 M 67.929688 63.523438 C 67.929688 67.855469 67.929688 72.1875 67.929688 76.519531 C 69.265625 76.519531 70.601562 76.527344 71.9375 76.519531 C 73.617188 76.484375 75.332031 75.890625 76.53125 74.679688 C 77.761719 73.464844 78.355469 71.703125 78.324219 69.992188 C 78.328125 68.285156 77.714844 66.542969 76.480469 65.339844 C 75.265625 64.128906 73.535156 63.539062 71.839844 63.523438 C 70.535156 63.523438 69.230469 63.523438 67.929688 63.523438 Z M 67.929688 63.523438 "/>
    <path style=" stroke:none;fill-rule:nonzero;fill:rgb(0%,0%,0%);fill-opacity:1;" d="M 86.109375 60.441406 C 87.238281 60.441406 88.363281 60.441406 89.492188 60.441406 C 89.492188 66.824219 89.492188 73.207031 89.492188 79.589844 C 88.363281 79.589844 87.238281 79.59375 86.109375 79.589844 C 86.109375 73.207031 86.109375 66.824219 86.109375 60.441406 Z M 86.109375 60.441406 "/>
  </g>
</svg>