<?xml version="1.0" encoding="UTF-8" standalone="yes"?>
<svg xmlns="http://www.w3.org/2000/svg" xmlns:xlink="http://www.w3.org/1999/xlink" width="112px" height="106.66666666666666px" viewBox="0 0 84 80" version="1.1">
  <g id="surface1">
    <path style=" stroke:none;fill-rule:nonzero;fill:rgb(56.078431%,32.156863%,62.745098%);fill-opacity:1;" d="M 0 77.375 L 0 57.839844 C 0 56.382812 1.796875 55.757812 2.214844 55.757812 L 81.703125 55.757812 C 82.746094 55.757812 83.84375 56.679688 83.84375 57.964844 L 83.84375 77.9375 C 83.84375 78.933594 82.570312 79.96875 81.816406 79.96875 L 1.945312 79.96875 C 0.996094 79.96875 0 78.65625 0 77.375 Z M 0 77.375 "/>
    <path style=" stroke:none;fill-rule:nonzero;fill:rgb(0%,0%,0%);fill-opacity:1;" d="M 0.105469 26.03125 L 0.105469 0.0078125 L 28.621094 0.0078125 L 33.597656 5.234375 L 38.570312 10.464844 L 42.671875 6.25 C 44.925781 3.933594 47.132812 1.578125 47.570312 1.019531 L 48.371094 0 L 62.78125 0.0976562 L 77.195312 0.191406 L 77.390625 22.128906 L 76.273438 23.945312 C 74.925781 26.144531 71.636719 33.078125 71.296875 34.4375 C 71.160156 34.976562 70.8125 35.613281 70.515625 35.859375 C 69.558594 36.65625 69.054688 35.453125 68.5625 31.199219 C 67.832031 24.875 66.839844 23.25 64.027344 23.777344 C 61.574219 24.238281 60.675781 26.261719 61.386719 29.722656 C 62.035156 32.878906 67.253906 46.492188 68.167969 47.410156 C 69.265625 48.511719 72.042969 48.488281 72.945312 47.371094 C 73.304688 46.925781 74.371094 44.140625 75.316406 41.1875 C 76.261719 38.230469 77.113281 35.8125 77.207031 35.8125 C 77.300781 35.8125 77.378906 39.46875 77.378906 43.933594 L 77.378906 52.054688 L 59.402344 52.054688 L 59.207031 50.117188 C 59.097656 49.050781 58.910156 42.667969 58.792969 35.933594 L 58.578125 23.6875 L 62.386719 21.453125 C 66.941406 18.78125 67.996094 17.785156 67.667969 16.460938 C 67.371094 15.273438 65.496094 14.257812 64.199219 14.585938 C 63.671875 14.71875 62.636719 15.375 61.894531 16.050781 C 61.152344 16.722656 59.742188 17.746094 58.761719 18.320312 C 57.269531 19.199219 56.632812 19.351562 54.875 19.265625 C 52.328125 19.136719 51.253906 19.929688 51.253906 21.933594 C 51.253906 23.144531 51.101562 23.277344 46.921875 25.75 C 44.542969 27.160156 41.738281 28.597656 40.695312 28.945312 C 39.652344 29.292969 38.601562 29.820312 38.355469 30.113281 C 37.65625 30.957031 37.839844 32.449219 38.761719 33.433594 C 40.015625 34.777344 41.9375 34.660156 43.957031 33.125 C 50.378906 28.230469 52.105469 27.480469 52.578125 29.375 C 52.707031 29.890625 52.691406 35.207031 52.542969 41.1875 L 52.273438 52.054688 L 47.589844 52.054688 L 47.488281 44.875 L 47.390625 37.699219 L 43.035156 41.375 C 40.644531 43.394531 38.535156 44.957031 38.355469 44.847656 C 38.175781 44.734375 36.160156 43.0625 33.875 41.128906 L 29.726562 37.617188 L 29.628906 44.835938 L 29.527344 52.054688 L 0.105469 52.054688 Z M 31.382812 47.074219 C 31.382812 44.332031 31.484375 42.089844 31.609375 42.089844 C 31.730469 42.089844 32.640625 42.769531 33.632812 43.601562 L 35.429688 45.109375 L 35.429688 52.054688 L 31.382812 52.054688 Z M 79.21875 41.40625 L 79.21875 30.757812 L 81.269531 27.472656 C 82.398438 25.664062 83.472656 24.027344 83.660156 23.835938 C 83.871094 23.621094 84.003906 28.992188 84.003906 37.769531 L 84.003906 52.054688 L 79.21875 52.054688 Z M 43.339844 43.757812 C 44.355469 42.855469 45.722656 41.75 45.71875 41.902344 C 45.691406 42.75 45.953125 45.410156 45.480469 45.410156 C 44.773438 45.414062 44.097656 45.40625 43.175781 45.402344 L 41.5 45.394531 Z M 79.21875 9.863281 C 79.21875 4.648438 79.320312 0.378906 79.445312 0.378906 C 79.570312 0.378906 80.648438 0.972656 81.839844 1.695312 L 84.003906 3.015625 L 84.003906 13.398438 L 81.90625 16.023438 C 80.753906 17.46875 79.675781 18.808594 79.515625 19 C 79.351562 19.191406 79.21875 15.082031 79.21875 9.863281 Z M 35.0625 3.882812 C 33.148438 1.957031 31.683594 0.378906 31.808594 0.378906 C 32.203125 0.378906 40.761719 4.375 41.097656 4.703125 C 41.378906 4.988281 39.207031 7.390625 38.734375 7.390625 C 38.628906 7.390625 36.976562 5.8125 35.0625 3.882812 Z M 35.0625 3.882812 "/>
    <path style=" stroke:none;fill-rule:nonzero;fill:rgb(0%,0%,0%);fill-opacity:1;" d="M 15.886719 61.15625 C 15.316406 61.152344 15.167969 61.488281 15.167969 61.878906 L 15.167969 73.722656 C 15.167969 74.175781 15.273438 74.546875 15.839844 74.546875 L 19.441406 74.546875 C 20.957031 74.546875 23.097656 72.933594 23.097656 70.90625 L 23.097656 65.070312 C 23.097656 62.273438 20.398438 61.175781 19.566406 61.15625 Z M 17.679688 63.027344 L 19.457031 63.027344 C 20.15625 63.027344 21.03125 63.648438 21.03125 64.898438 L 21.03125 70.46875 C 21.03125 71.507812 20.515625 72.738281 19.132812 72.738281 L 17.652344 72.738281 C 17.382812 72.738281 17.230469 72.550781 17.230469 72.175781 L 17.230469 63.5 C 17.230469 63.378906 17.265625 63.027344 17.679688 63.027344 Z M 17.679688 63.027344 "/>
    <path style=" stroke:none;fill-rule:nonzero;fill:rgb(0%,0%,0%);fill-opacity:1;" d="M 31.820312 60.894531 L 30.089844 60.90625 C 29.425781 60.90625 29.070312 61.890625 29.015625 62.246094 L 26.765625 73.6875 C 26.535156 74.6875 28.382812 75.144531 28.613281 74.113281 L 28.964844 72.242188 C 29.023438 71.867188 29.175781 71.734375 29.386719 71.75 L 32.65625 71.75 C 32.859375 71.746094 33.039062 71.800781 33.113281 72.152344 L 33.515625 73.988281 C 33.792969 75.171875 35.550781 74.722656 35.308594 73.441406 L 33 61.992188 C 32.945312 61.785156 32.597656 60.910156 31.820312 60.894531 Z M 31.050781 62.472656 C 31.15625 62.472656 31.261719 62.605469 31.308594 62.871094 L 32.574219 69.308594 C 32.625 69.65625 32.636719 69.976562 32.257812 69.96875 L 29.703125 69.96875 C 29.355469 69.964844 29.449219 69.542969 29.492188 69.351562 L 30.800781 62.871094 C 30.839844 62.609375 30.945312 62.476562 31.050781 62.472656 Z M 31.050781 62.472656 "/>
    <path style=" stroke:none;fill-rule:nonzero;fill:rgb(0%,0%,0%);fill-opacity:1;" d="M 38.878906 73.824219 L 38.878906 61.964844 C 38.878906 61.042969 40.609375 60.84375 40.90625 61.535156 L 43.988281 68.898438 C 44.050781 69.042969 44.265625 69.015625 44.265625 68.824219 L 44.265625 61.78125 C 44.265625 60.941406 46.273438 60.949219 46.273438 61.78125 L 46.273438 73.835938 C 46.273438 74.777344 44.382812 74.738281 44.074219 73.835938 L 41.242188 66.902344 C 41.089844 66.601562 40.917969 66.628906 40.917969 66.902344 L 40.917969 73.796875 C 40.917969 74.839844 38.878906 74.816406 38.878906 73.824219 Z M 38.878906 73.824219 "/>
    <path style=" stroke:none;fill-rule:nonzero;fill:rgb(0%,0%,0%);fill-opacity:1;" d="M 50.492188 71.132812 L 50.492188 64.167969 C 50.941406 61.8125 53.074219 60.90625 53.746094 60.90625 C 54.136719 60.878906 54.53125 60.855469 54.941406 60.941406 C 56.683594 61.210938 57.34375 61.804688 57.933594 62.503906 C 58.230469 62.855469 57.453125 64.207031 56.496094 63.695312 C 55.582031 63.132812 55.273438 62.742188 54.320312 62.769531 C 53.304688 62.628906 52.566406 63.789062 52.550781 64.328125 L 52.550781 71.167969 C 52.652344 71.929688 52.804688 72.679688 54.308594 72.914062 C 55.664062 73.019531 56.105469 71.914062 56.890625 71.871094 C 57.59375 71.878906 57.929688 72.617188 57.945312 72.984375 C 57.945312 74.0625 55.390625 74.78125 54.554688 74.78125 C 54.195312 74.785156 53.816406 74.804688 53.535156 74.730469 C 50.839844 74.269531 50.492188 71.273438 50.492188 71.132812 Z M 50.492188 71.132812 "/>
    <path style=" stroke:none;fill-rule:nonzero;fill:rgb(0%,0%,0%);fill-opacity:1;" d="M 61.484375 73.699219 L 61.484375 61.878906 C 61.484375 61.46875 61.664062 61.15625 62.058594 61.15625 L 68.023438 61.15625 C 68.34375 61.15625 68.691406 61.582031 68.691406 62.117188 C 68.691406 62.398438 68.464844 63.050781 67.898438 63.050781 L 63.847656 63.050781 C 63.636719 63.050781 63.5 63.160156 63.5 63.375 L 63.5 66.378906 C 63.5 66.785156 63.695312 66.867188 63.957031 66.867188 L 66.320312 66.867188 C 66.554688 66.867188 67.027344 66.941406 67.027344 67.703125 C 67.027344 68.039062 67.058594 68.613281 66.21875 68.613281 L 63.96875 68.613281 C 63.710938 68.625 63.511719 68.683594 63.511719 68.949219 L 63.511719 72.3125 C 63.523438 72.503906 63.476562 72.714844 64.007812 72.714844 L 68.007812 72.714844 C 68.335938 72.714844 68.667969 73.015625 68.667969 73.597656 C 68.667969 74.0625 68.433594 74.582031 67.921875 74.582031 L 62.09375 74.582031 C 61.679688 74.582031 61.484375 74.105469 61.484375 73.699219 Z M 61.484375 73.699219 "/>
  </g>
</svg>