<?xml version="1.0" encoding="UTF-8" standalone="yes"?>
<svg xmlns="http://www.w3.org/2000/svg" xmlns:xlink="http://www.w3.org/1999/xlink" width="153.33333333333331px" height="106.66666666666666px" viewBox="0 0 115 80" version="1.1">
  <g id="surface1">
    <path style=" stroke:none;fill-rule:nonzero;fill:rgb(13.333333%,100%,29.803922%);fill-opacity:1;" d="M 62.332031 19.042969 L 101.6875 19.042969 L 112.703125 30.257812 L 112.703125 63.902344 L 101.6875 75.117188 L 62.332031 75.117188 Z M 62.332031 19.042969 "/>
    <path style=" stroke:none;fill-rule:nonzero;fill:rgb(13.333333%,100%,29.803922%);fill-opacity:1;" d="M 2.902344 5.253906 C 2.890625 5.253906 2.839844 5.257812 2.75 5.261719 C 2.65625 5.265625 2.578125 5.269531 2.515625 5.269531 C 2 5.269531 1.742188 5.183594 1.742188 5.011719 C 1.742188 3.972656 2.984375 3.453125 5.46875 3.453125 C 6.835938 3.453125 8.46875 3.792969 10.363281 4.472656 C 10.878906 4.65625 11.441406 4.90625 12.050781 5.21875 C 12.65625 5.535156 13.296875 5.929688 13.964844 6.40625 C 14.628906 6.882812 15.234375 7.382812 15.769531 7.90625 C 16.308594 8.429688 16.757812 9.019531 17.113281 9.675781 C 17.464844 10.332031 17.644531 10.976562 17.644531 11.613281 C 17.644531 12.328125 17.464844 12.96875 17.113281 13.539062 C 16.757812 14.105469 16.28125 14.5625 15.691406 14.910156 C 15.097656 15.257812 14.449219 15.519531 13.738281 15.707031 C 13.027344 15.890625 12.292969 15.980469 11.542969 15.980469 C 11.003906 15.980469 10.21875 15.898438 9.183594 15.738281 C 9.109375 16.007812 9.042969 16.234375 8.988281 16.417969 C 8.730469 16.460938 8.542969 16.484375 8.425781 16.484375 L 8.054688 16.453125 C 7.902344 16.269531 7.761719 15.84375 7.632812 15.1875 C 6.222656 14.363281 5.269531 13.664062 4.777344 13.09375 C 4.25 12.539062 3.984375 12.070312 3.984375 11.679688 C 3.984375 11.429688 4.160156 11.183594 4.515625 10.933594 C 5.183594 10.4375 6.289062 10.050781 7.828125 9.78125 L 7.859375 9.117188 C 7.988281 7.839844 8.171875 7.097656 8.410156 6.890625 C 8.679688 7.121094 8.855469 7.359375 8.941406 7.605469 C 9.027344 7.855469 9.085938 8.195312 9.121094 8.628906 C 9.140625 9.082031 9.167969 9.425781 9.199219 9.652344 L 9.425781 9.652344 C 9.792969 9.652344 10.199219 9.679688 10.644531 9.734375 C 11.089844 9.785156 11.585938 9.875 12.121094 10 C 12.660156 10.125 13.109375 10.324219 13.46875 10.601562 C 13.832031 10.875 14.011719 11.203125 14.011719 11.582031 C 14.011719 11.800781 13.890625 12.039062 13.648438 12.304688 C 13.40625 12.570312 13.15625 12.703125 12.898438 12.703125 C 12.597656 12.703125 12.359375 12.632812 12.1875 12.492188 C 12.242188 12.425781 12.363281 12.308594 12.550781 12.132812 C 12.738281 11.960938 12.847656 11.835938 12.882812 11.761719 C 12.71875 11.566406 12.28125 11.378906 11.566406 11.191406 C 10.847656 11.007812 10.175781 10.917969 9.539062 10.917969 C 9.34375 10.917969 9.207031 10.921875 9.121094 10.933594 L 9.136719 14.488281 C 9.511719 14.726562 10.027344 14.84375 10.683594 14.84375 C 11.039062 14.84375 11.386719 14.832031 11.71875 14.804688 C 12.050781 14.777344 12.441406 14.730469 12.882812 14.660156 C 13.324219 14.585938 13.722656 14.476562 14.085938 14.324219 C 14.445312 14.175781 14.785156 13.988281 15.109375 13.765625 C 15.433594 13.542969 15.683594 13.25 15.867188 12.890625 C 16.050781 12.527344 16.144531 12.113281 16.144531 11.648438 C 16.144531 10.964844 15.945312 10.300781 15.546875 9.652344 C 15.148438 9.003906 14.621094 8.421875 13.972656 7.90625 C 13.320312 7.394531 12.648438 6.941406 11.953125 6.550781 C 11.257812 6.160156 10.539062 5.828125 9.796875 5.546875 C 7.882812 4.808594 5.9375 4.441406 3.96875 4.441406 C 3.460938 4.441406 3.019531 4.492188 2.644531 4.589844 C 2.398438 4.640625 2.273438 4.707031 2.273438 4.78125 C 2.273438 4.816406 2.320312 4.847656 2.410156 4.878906 C 2.5 4.914062 2.601562 4.9375 2.707031 4.953125 C 2.816406 4.96875 2.875 4.984375 2.886719 4.992188 C 2.941406 5.027344 2.96875 5.070312 2.96875 5.125 C 2.96875 5.167969 2.945312 5.210938 2.902344 5.253906 Z M 7.617188 14.113281 L 7.761719 10.964844 C 7.246094 11.007812 6.835938 11.046875 6.527344 11.078125 C 6.222656 11.113281 5.878906 11.160156 5.503906 11.226562 C 5.125 11.289062 4.847656 11.375 4.664062 11.476562 C 4.480469 11.582031 4.386719 11.695312 4.386719 11.828125 C 4.386719 12.109375 4.785156 12.546875 5.582031 13.140625 C 6.175781 13.628906 6.851562 13.953125 7.617188 14.113281 Z M 7.617188 14.113281 "/>
    <path style=" stroke:none;fill-rule:nonzero;fill:rgb(13.333333%,100%,29.803922%);fill-opacity:1;" d="M 21.695312 5.222656 L 21.726562 5.203125 C 21.738281 5.203125 21.75 5.203125 21.761719 5.203125 C 21.941406 5.203125 22.140625 5.28125 22.351562 5.441406 C 22.558594 5.597656 22.664062 5.808594 22.664062 6.082031 C 22.664062 6.664062 22.277344 7.257812 21.5 7.859375 C 20.726562 8.457031 20.046875 8.757812 19.46875 8.757812 C 19.078125 8.757812 18.742188 8.710938 18.449219 8.613281 C 18.417969 8.644531 18.378906 8.695312 18.335938 8.757812 C 18.292969 8.824219 18.257812 8.871094 18.230469 8.898438 C 18.207031 8.925781 18.167969 8.949219 18.121094 8.976562 C 18.070312 9.003906 18.019531 9.023438 17.964844 9.035156 C 17.878906 9.011719 17.792969 8.933594 17.707031 8.800781 C 17.621094 8.664062 17.574219 8.511719 17.5625 8.335938 C 17.5625 8.316406 17.578125 8.222656 17.609375 8.0625 C 17.332031 7.683594 17.191406 7.359375 17.191406 7.085938 C 17.191406 6.535156 17.527344 5.980469 18.199219 5.421875 C 18.871094 4.867188 19.582031 4.589844 20.324219 4.589844 C 20.679688 4.589844 20.984375 4.648438 21.234375 4.765625 C 21.488281 4.886719 21.640625 5.035156 21.695312 5.222656 Z M 18.886719 9.683594 C 19.15625 9.695312 19.332031 9.773438 19.417969 9.917969 C 19.503906 10.066406 19.558594 10.3125 19.582031 10.65625 C 19.589844 11.003906 19.621094 11.636719 19.667969 12.558594 C 19.71875 13.476562 19.742188 14.175781 19.742188 14.648438 C 19.742188 15.027344 19.574219 15.21875 19.242188 15.21875 C 19.113281 15.21875 18.960938 15.1875 18.789062 15.121094 C 18.628906 15.066406 18.519531 14.78125 18.464844 14.261719 C 18.464844 13.988281 18.484375 13.421875 18.515625 12.558594 C 18.578125 11.636719 18.671875 10.71875 18.789062 9.796875 C 18.800781 9.722656 18.832031 9.683594 18.886719 9.683594 Z M 18.949219 7.671875 C 18.949219 7.691406 18.96875 7.71875 19 7.753906 C 19.03125 7.785156 19.058594 7.800781 19.078125 7.800781 L 19.433594 7.800781 C 19.929688 7.800781 20.464844 7.65625 21.035156 7.363281 C 21.605469 7.070312 21.890625 6.703125 21.890625 6.257812 C 21.890625 6.164062 21.882812 6.09375 21.875 6.046875 C 21.863281 6.003906 21.824219 5.960938 21.761719 5.917969 C 21.695312 5.875 21.597656 5.855469 21.46875 5.855469 C 20.671875 5.855469 19.832031 6.460938 18.949219 7.671875 Z M 17.980469 7.085938 C 18.003906 7.109375 18.023438 7.121094 18.046875 7.121094 C 18.078125 7.121094 18.105469 7.109375 18.128906 7.085938 C 18.265625 6.902344 18.6875 6.46875 19.386719 5.789062 L 19.386719 5.773438 C 19.386719 5.738281 19.375 5.714844 19.355469 5.691406 C 18.96875 5.765625 18.648438 5.9375 18.402344 6.203125 C 18.15625 6.46875 18.015625 6.761719 17.980469 7.085938 Z M 17.980469 7.085938 "/>
    <path style=" stroke:none;fill-rule:nonzero;fill:rgb(13.333333%,100%,29.803922%);fill-opacity:1;" d="M 21.613281 11.113281 C 21.59375 11.132812 21.582031 11.15625 21.582031 11.175781 C 21.582031 11.199219 21.59375 11.210938 21.613281 11.210938 C 22.152344 11.40625 22.707031 11.519531 23.277344 11.550781 C 24.203125 11.617188 24.820312 11.71875 25.132812 11.859375 C 25.714844 12.097656 26.003906 12.535156 26.003906 13.171875 C 26.003906 13.585938 25.910156 13.925781 25.714844 14.195312 C 25.519531 14.464844 25.269531 14.65625 24.957031 14.765625 C 24.644531 14.871094 24.382812 14.941406 24.171875 14.976562 C 23.964844 15.007812 23.753906 15.023438 23.550781 15.023438 C 22.894531 15.023438 22.300781 14.851562 21.765625 14.511719 C 21.234375 14.171875 20.96875 13.828125 20.96875 13.480469 C 20.96875 13.125 21.113281 12.867188 21.402344 12.710938 C 21.695312 12.554688 22.039062 12.476562 22.4375 12.476562 C 23.167969 12.476562 23.863281 12.644531 24.519531 12.980469 C 24.542969 13 24.550781 13.023438 24.550781 13.042969 C 24.550781 13.085938 24.542969 13.121094 24.519531 13.140625 C 24.304688 13.359375 23.996094 13.464844 23.601562 13.464844 C 23.460938 13.464844 23.191406 13.402344 22.792969 13.269531 C 22.394531 13.140625 22.082031 13.074219 21.855469 13.074219 C 21.523438 13.074219 21.355469 13.210938 21.355469 13.480469 C 21.355469 13.578125 21.390625 13.65625 21.460938 13.71875 C 21.53125 13.777344 21.644531 13.816406 21.800781 13.839844 C 21.957031 13.859375 22.085938 13.875 22.195312 13.878906 C 22.300781 13.886719 22.457031 13.886719 22.664062 13.886719 C 23.007812 13.886719 23.515625 13.808594 24.1875 13.652344 C 24.863281 13.496094 25.199219 13.289062 25.199219 13.027344 C 25.199219 12.777344 24.921875 12.582031 24.367188 12.433594 C 23.8125 12.289062 23.292969 12.210938 22.808594 12.199219 C 21.90625 12.179688 21.328125 12.109375 21.082031 11.988281 C 20.832031 11.871094 20.710938 11.632812 20.710938 11.273438 C 20.710938 10.929688 20.863281 10.632812 21.167969 10.382812 C 21.476562 10.132812 21.847656 9.960938 22.285156 9.871094 C 22.71875 9.777344 23.070312 9.714844 23.332031 9.683594 C 23.597656 9.652344 23.792969 9.636719 23.921875 9.636719 C 24.546875 9.636719 25.234375 9.726562 25.988281 9.910156 C 26.109375 9.933594 26.167969 10.015625 26.167969 10.15625 C 26.15625 10.316406 26.039062 10.441406 25.8125 10.527344 C 25.652344 10.570312 25.472656 10.605469 25.277344 10.625 C 25.117188 10.648438 24.664062 10.683594 23.921875 10.738281 C 23.179688 10.792969 22.71875 10.835938 22.535156 10.867188 C 22.070312 10.933594 21.765625 11.015625 21.613281 11.113281 Z M 21.613281 11.113281 "/>
    <path style=" stroke:none;fill-rule:nonzero;fill:rgb(13.333333%,100%,29.803922%);fill-opacity:1;" d="M 29.453125 9.214844 L 29.453125 9.148438 C 29.453125 8.921875 29.503906 8.808594 29.613281 8.808594 C 29.730469 8.808594 29.886719 8.90625 30.074219 9.097656 C 30.261719 9.292969 30.453125 9.554688 30.644531 9.878906 C 30.839844 10.203125 31.007812 10.617188 31.148438 11.121094 C 31.285156 11.625 31.355469 12.140625 31.355469 12.671875 C 31.355469 13.210938 31.242188 13.710938 31.007812 14.164062 C 30.777344 14.617188 30.480469 14.84375 30.113281 14.84375 C 29.898438 14.84375 29.667969 14.6875 29.417969 14.375 C 29.171875 14.0625 28.957031 13.714844 28.773438 13.335938 C 28.589844 12.957031 28.421875 12.609375 28.265625 12.296875 C 28.109375 11.984375 28.007812 11.824219 27.964844 11.824219 C 27.921875 11.824219 27.886719 11.886719 27.851562 12.003906 C 27.84375 12.058594 27.820312 12.425781 27.789062 13.109375 C 27.757812 13.789062 27.722656 14.222656 27.691406 14.40625 C 27.582031 14.914062 27.421875 15.167969 27.207031 15.167969 C 26.980469 15.167969 26.820312 15.027344 26.722656 14.746094 C 26.625 14.464844 26.578125 14.179688 26.578125 13.886719 C 26.578125 13.28125 26.6875 12.492188 26.910156 11.519531 C 27.128906 10.542969 27.390625 10.058594 27.691406 10.058594 C 27.832031 10.058594 28.023438 10.230469 28.273438 10.578125 C 28.519531 10.921875 28.816406 11.375 29.160156 11.933594 C 29.503906 12.488281 29.785156 12.898438 30 13.15625 C 30.023438 13.179688 30.050781 13.210938 30.082031 13.253906 L 30.113281 13.285156 C 30.179688 13.285156 30.210938 13.144531 30.210938 12.863281 C 30.210938 12.507812 30.1875 12.179688 30.144531 11.882812 C 30.101562 11.585938 30.058594 11.347656 30.007812 11.167969 C 29.960938 10.988281 29.882812 10.71875 29.773438 10.355469 C 29.667969 9.996094 29.574219 9.679688 29.5 9.40625 Z M 29.453125 9.214844 "/>
    <path style=" stroke:none;fill-rule:nonzero;fill:rgb(13.333333%,100%,29.803922%);fill-opacity:1;" d="M 35.71875 14.164062 C 35.71875 14.28125 35.683594 14.363281 35.621094 14.40625 C 34.683594 15.144531 33.855469 15.511719 33.132812 15.511719 C 32.714844 15.511719 32.394531 15.378906 32.171875 15.113281 C 31.953125 14.847656 31.839844 14.527344 31.839844 14.148438 C 31.839844 13.984375 31.976562 13.523438 32.246094 12.769531 C 32.234375 12.722656 32.21875 12.679688 32.195312 12.628906 C 32.175781 12.582031 32.15625 12.53125 32.140625 12.484375 C 32.125 12.433594 32.117188 12.390625 32.117188 12.347656 L 32.195312 12.019531 C 32.402344 11.945312 32.542969 11.902344 32.617188 11.890625 L 33.003906 11 C 32.984375 10.988281 32.929688 10.964844 32.84375 10.925781 C 32.757812 10.886719 32.695312 10.859375 32.65625 10.835938 C 32.621094 10.816406 32.5625 10.785156 32.488281 10.746094 C 32.414062 10.710938 32.359375 10.675781 32.328125 10.640625 C 32.292969 10.609375 32.253906 10.570312 32.203125 10.527344 C 32.15625 10.484375 32.125 10.441406 32.109375 10.398438 C 32.09375 10.355469 32.085938 10.3125 32.085938 10.269531 C 32.085938 10.128906 32.222656 10.046875 32.503906 10.023438 C 32.632812 10.015625 33.003906 9.957031 33.617188 9.855469 C 34.230469 9.75 34.792969 9.699219 35.296875 9.699219 C 35.46875 9.699219 35.691406 9.738281 35.960938 9.8125 C 35.980469 9.835938 36.027344 9.886719 36.097656 9.96875 C 36.167969 10.050781 36.226562 10.121094 36.273438 10.179688 C 36.324219 10.238281 36.367188 10.308594 36.410156 10.390625 C 36.453125 10.472656 36.476562 10.542969 36.476562 10.609375 C 36.476562 10.683594 36.375 10.761719 36.167969 10.835938 C 35.964844 10.914062 35.777344 10.957031 35.605469 10.964844 C 35.59375 10.964844 35.164062 10.984375 34.3125 11.015625 C 34.203125 11.015625 34.125 11.019531 34.070312 11.03125 C 33.941406 11.160156 33.875 11.386719 33.875 11.714844 C 33.875 11.820312 33.925781 11.875 34.023438 11.875 L 35.214844 11.875 L 35.441406 11.90625 C 35.507812 11.996094 35.539062 12.152344 35.539062 12.378906 C 35.539062 12.628906 35.480469 12.757812 35.363281 12.769531 C 34.78125 12.800781 34.171875 12.816406 33.539062 12.816406 C 33.496094 12.816406 33.460938 12.839844 33.441406 12.882812 C 33.363281 13.207031 33.234375 13.570312 33.054688 13.96875 C 33.0625 13.96875 33.140625 13.957031 33.285156 13.929688 C 33.433594 13.902344 33.640625 13.867188 33.917969 13.824219 C 34.191406 13.78125 34.480469 13.742188 34.78125 13.710938 C 34.996094 13.6875 35.171875 13.675781 35.3125 13.675781 C 35.410156 13.675781 35.5 13.730469 35.585938 13.839844 C 35.675781 13.949219 35.71875 14.054688 35.71875 14.164062 Z M 35.71875 14.164062 "/>
    <path style=" stroke:none;fill-rule:nonzero;fill:rgb(13.333333%,100%,29.803922%);fill-opacity:1;" d="M 37.117188 19.8125 L 37.066406 19.941406 C 36.746094 19.910156 36.484375 19.769531 36.285156 19.527344 C 36.085938 19.285156 35.988281 18.988281 35.988281 18.644531 C 35.988281 18.503906 36.015625 18.257812 36.074219 17.90625 C 36.132812 17.554688 36.261719 17.046875 36.453125 16.386719 C 36.648438 15.726562 36.878906 15.066406 37.148438 14.40625 C 36.957031 13.984375 36.859375 13.589844 36.859375 13.222656 C 36.859375 12.714844 37 12.160156 37.277344 11.558594 C 37.558594 10.957031 37.851562 10.472656 38.160156 10.105469 C 38.464844 9.738281 38.675781 9.550781 38.796875 9.539062 C 38.96875 9.558594 39.054688 9.710938 39.054688 9.992188 C 39.054688 10.046875 39.050781 10.101562 39.039062 10.15625 C 39.027344 10.207031 39.011719 10.257812 38.988281 10.300781 C 38.96875 10.34375 38.9375 10.402344 38.894531 10.480469 C 38.851562 10.554688 38.808594 10.621094 38.773438 10.683594 C 38.734375 10.742188 38.671875 10.832031 38.585938 10.957031 C 38.5 11.082031 38.425781 11.195312 38.359375 11.289062 C 37.941406 11.949219 37.730469 12.503906 37.730469 12.945312 C 37.730469 13.054688 37.746094 13.121094 37.777344 13.140625 L 37.8125 13.140625 C 37.820312 13.140625 37.84375 13.117188 37.875 13.074219 C 38.425781 12.339844 39.003906 11.660156 39.613281 11.03125 C 40.21875 10.402344 40.707031 10.089844 41.074219 10.089844 C 41.4375 10.089844 41.707031 10.3125 41.871094 10.753906 C 42.039062 11.199219 42.121094 11.648438 42.121094 12.101562 C 42.121094 12.96875 41.707031 13.730469 40.878906 14.390625 C 40.050781 15.050781 39.308594 15.378906 38.652344 15.378906 C 38.585938 15.378906 38.46875 15.390625 38.296875 15.414062 C 38.101562 15.976562 37.949219 16.457031 37.835938 16.859375 C 37.722656 17.257812 37.589844 17.785156 37.441406 18.441406 C 37.289062 19.09375 37.179688 19.550781 37.117188 19.8125 Z M 39.101562 13.984375 C 39.664062 13.917969 40.191406 13.671875 40.683594 13.238281 C 41.148438 12.839844 41.378906 12.308594 41.378906 11.648438 C 41.378906 11.34375 41.308594 11.191406 41.167969 11.191406 C 40.964844 11.191406 40.589844 11.539062 40.039062 12.230469 C 39.953125 12.351562 39.792969 12.636719 39.554688 13.085938 C 39.316406 13.535156 39.167969 13.832031 39.101562 13.984375 Z M 39.101562 13.984375 "/>
    <path style=" stroke:none;fill-rule:nonzero;fill:rgb(13.333333%,100%,29.803922%);fill-opacity:1;" d="M 3.59375 19.039062 L 3.59375 36.632812 L 13.988281 47.082031 L 3.59375 57.53125 L 3.59375 75.121094 L 21.09375 75.121094 L 31.492188 64.671875 L 41.875 75.121094 L 59.378906 75.121094 L 59.378906 57.53125 L 48.984375 47.082031 L 59.378906 36.632812 L 59.378906 19.039062 L 41.886719 19.039062 L 31.492188 29.488281 L 21.085938 19.039062 Z M 3.59375 19.039062 "/>
  </g>
</svg>