<?xml version="1.0" encoding="UTF-8" standalone="no"?>
<svg
   xmlns:dc="http://purl.org/dc/elements/1.1/"
   xmlns:cc="http://creativecommons.org/ns#"
   xmlns:rdf="http://www.w3.org/1999/02/22-rdf-syntax-ns#"
   xmlns:svg="http://www.w3.org/2000/svg"
   xmlns="http://www.w3.org/2000/svg"
   xmlns:xlink="http://www.w3.org/1999/xlink"
   xmlns:sodipodi="http://sodipodi.sourceforge.net/DTD/sodipodi-0.dtd"
   xmlns:inkscape="http://www.inkscape.org/namespaces/inkscape"
   width="648.0px"
   height="365.0px"
   viewBox="0 0 648.0 365.0"
   version="1.1"
   id="svg2"
   inkscape:version="0.48.5 r10040"
   sodipodi:docname="Disney_Channel_logo_2014.svg">
  <metadata
     id="metadata31">
    <rdf:RDF>
      <cc:Work
         rdf:about="">
        <dc:format>image/svg+xml</dc:format>
        <dc:type
           rdf:resource="http://purl.org/dc/dcmitype/StillImage" />
      </cc:Work>
    </rdf:RDF>
  </metadata>
  <defs
     id="defs29">
    <linearGradient
       inkscape:collect="always"
       id="linearGradient4038">
      <stop
         style="stop-color:#0088ff;stop-opacity:1;"
         offset="0"
         id="stop4040" />
      <stop
         style="stop-color:#0044ff;stop-opacity:1"
         offset="1"
         id="stop4042" />
    </linearGradient>
    <clipPath
       clipPathUnits="userSpaceOnUse"
       id="clipPath3947">
      <g
         id="g3949"
         style="fill:#ffffff"
         transform="translate(2.8185328,-2.1138996)">
        <path
           d="m -43,613 q 4,4 4,8 0,5 -5,8 -2,1 -8,2 -6,1 -12,2 -6,1 -12,4 -6,3 -6,5 0,7 23,12 20,5 41,7 21,2 41,2 99,0 185,-17 86,-17 176,-51 42,-16 87,-38 45,-22 89,-49 44,-27 83,-59 39,-32 69,-68 30,-36 47,-77 17,-41 18,-85 0,-45 -17,-76 Q 743,112 714,89 685,66 649,54 613,42 576,34 539,26 502,24 q -37,-2 -63,-2 -19,0 -45,3 -26,3 -51,19 l -1,216 q 6,2 11,3 5,1 15,1 30,0 63,-5 33,-5 62,-12 29,-7 52,-17 23,-10 30,-18 -5,-10 -18,-21 -13,-11 -25,-24 8,-6 21,-9 13,-3 23,-4 13,0 25,7 12,7 22,18 10,11 16,23 6,12 6,21 0,25 -16,44 -16,19 -42,32 -26,13 -58,21 -32,8 -63,13 -31,5 -60,7 -29,2 -45,2 l -14,0 q -2,17 -3,32 -1,15 -2,31 -1,17 -3,32 -2,15 -6,27 -4,12 -13,25 -9,13 -22,23 -9,-8 -15,-28 -6,-20 -10,-44 -4,-24 -6,-42 -2,-18 -3,-23 l -2,-41 Q 188,321 140,305 92,289 57,263 24,240 24,217 24,194 40,171 56,148 73,130 93,107 137,74 181,41 250,1 q 5,-23 10,-43 5,-20 16,-35 l 23,-2 q 10,0 18,1 8,1 17,3 5,17 7,25 2,8 5,17 34,-5 72,-10 38,-5 74,-5 68,0 135,16 67,16 122,50 55,34 87,84 32,50 34,119 0,51 -23,100 -23,49 -61,93 -38,44 -86,84 -48,40 -98,70 -50,30 -98,55 -48,25 -85,38 -74,26 -154,44 -80,18 -149,19 -17,0 -41,0 -24,0 -49,-4 -25,-4 -51,-9 -26,-5 -45,-17 -19,-12 -32,-27 -13,-15 -13,-39 0,-10 15,-13 15,-3 33,-3 8,0 14,0 6,0 10,1 z M 258,261 249,67 q -35,8 -68,24 -33,16 -58,36 -11,8 -23,18 -12,10 -24,20 -12,10 -19,22 -7,12 -8,21 0,13 19,21 19,8 48,15 29,7 64,9 35,2 67,8 l 11,0 z"
           stroke-miterlimit="2.5"
           transform="matrix(0.2527003,0,0,-0.2527003,49.060055,239.88715)"
           id="path3951"
           style="fill:#ffffff;fill-opacity:1;stroke:#000000;stroke-width:168.84616089;stroke-linecap:round;stroke-linejoin:bevel;stroke-miterlimit:2.5;stroke-opacity:0"
           inkscape:connector-curvature="0" />
        <path
           d="m 946,340 c -3.3333,0 -5.3333,-2.33334 -6,-7 -6.6667,-50.66666 -11,-89.66667 -13,-117 -2,-27.33333 -3.3333,-45 -4,-53 -0.6667,-13.33333 -1,-23.66666 -1,-31 0,-7.33334 -0.3333,-14.66666 -1,-22 -0.6667,-7.33334 -1,-14.666664 -1,-22 0,-7.333336 0,-17.333336 0,-30 0,-2.666668 0.3333,-6.666668 1,-12 0.6667,-5.333332 2,-10.666664 4,-16 2,-5.333334 4,-10.666666 6,-16 2,-5.333334 5,-8.3333335 9,-9 4,-1.3333335 8.6667,-2.6666665 14,-4 5.3333,-1.33333337 10,-2 14,-2 12.6667,0 21,3.666666 25,11 4,7.333334 6,15.333332 6,24 0,40 -1.3333,80.66667 -4,122 -2.6667,41.33333 -4.6667,82.66667 -6,124 -1.3333,19.33334 -4.3333,34 -9,44 -4.6667,10 -16,15.33334 -34,16"
           stroke-miterlimit="2.5"
           transform="matrix(0.25216305,0,0,-0.25216305,46.9826,239.45169)"
           id="path3953"
           style="fill:#ffffff;fill-opacity:1;stroke:#000000;stroke-width:19.47068405;stroke-linecap:round;stroke-linejoin:bevel;stroke-miterlimit:2.5;stroke-opacity:0"
           inkscape:connector-curvature="0" />
        <path
           d="m 321.82092,113.46228 c -7.71185,20.47926 -37.95065,28.68599 -52.39956,20.85855 -14.44892,-7.82744 -14.00966,-29.14745 7.87554,-41.44111 -17.7789,-10.27327 -7.39935,-31.903096 7.17454,-31.457902 14.57388,0.445194 23.90612,11.477602 17.36846,27.074337 4.03254,0.02175 7.5646,1.722135 10.72754,6.38546 4.46706,-21.020215 26.51249,-21.115855 34.48151,-7.917965 7.96902,13.1979 -6.1e-4,35.36377 -25.22803,26.49863 m -40.43976,11.381 c 0,0.25649 0.19239,0.57708 0.57709,0.96181 0.38471,0.38473 0.70532,0.57709 0.96179,0.57709 0,0 4.23194,0 4.23194,0 2.56485,-0.25649 5.45025,-0.70533 8.65632,-1.34653 3.20604,-0.64121 6.4121,-1.79538 9.6181,-3.46252 3.206,-1.66713 5.835,-3.59075 7.88683,-5.77085 2.05182,-2.18011 3.07777,-4.74493 3.07777,-7.69448 0,-1.41064 -0.1924,-2.56481 -0.5771,-3.46251 -0.3847,-0.89769 -1.8595,-1.34653 -4.4243,-1.34653 -2.94957,0.12824 -5.70674,0.76944 -8.27156,1.92361 -2.56482,1.15418 -5.19378,2.75719 -7.88684,4.80906 -2.69305,2.05186 -5.19382,4.3602 -7.50214,6.92502 -2.30831,2.56482 -4.42431,5.19377 -6.3479,7.88683 m -11.54174,-6.92502 c 0.2565,0.25648 0.513,0.38473 0.76948,0.38473 0.3847,0 0.7053,-0.12825 0.96178,-0.38473 0.8977,-0.76945 1.8595,-1.85949 2.88544,-3.27015 1.02594,-1.41066 2.30831,-2.82132 3.84722,-4.23196 1.53891,-1.41065 3.01368,-2.82131 4.42432,-4.23196 1.41064,-1.41065 2.69309,-2.62895 3.84726,-3.65488 0,0 0,-0.19236 0,-0.19236 0,-0.38472 -0.12826,-0.70533 -0.38472,-0.96181 -4.87318,1.15417 -8.72035,3.27015 -11.5417,6.34794 -2.82135,3.07779 -4.42435,6.47618 -4.80908,10.19518"
           stroke-miterlimit="2.5"
           id="path3955"
           style="fill:#ffffff;fill-opacity:1;stroke:#000000;stroke-width:2.5;stroke-linecap:round;stroke-linejoin:bevel;stroke-miterlimit:2.5;stroke-opacity:0"
           inkscape:connector-curvature="0" />
        <path
           d="m 1114,252 c 5.3334,3.33333 12,6 20,8 8,2 20.3334,4.33334 37,7 8,1.33334 19.6666,2.66666 35,4 15.3334,1.33334 31.3334,2.66666 48,4 16.6666,1.33334 33.3334,2.33334 50,3 16.6666,0.66666 29,2 37,4 4,0.66666 9.3334,1.33334 16,2 6.6666,0.66666 12.3334,2 17,4 5.3334,2 10,4.66666 14,8 4,3.33334 6.6666,8.33334 8,15 0,5.33334 -1,9 -3,11 -2,2 -4.6666,3.33334 -8,4 -16.6666,4 -35.6666,7.66666 -57,11 -21.3334,3.33334 -45,5.33334 -71,6 -1.3334,0 -7,-0.33334 -17,-1 -10,-0.66666 -22.6666,-2 -38,-4 -15.3334,-2 -31.3334,-5.33334 -48,-10 -16.6666,-4.66666 -32,-10.66666 -46,-18 -14,-7.33334 -26,-16.66666 -36,-28 -10,-11.33334 -14.6666,-24.66666 -14,-40 0,-10.66667 1.3334,-19.33333 4,-26 2.6666,-6.66667 8.3334,-12.33333 17,-17 8.6666,-4.66667 22,-8 40,-10 18,-2 41,-3.33333 69,-4 10.6666,0 24.3334,-1 41,-3 16.6666,-2 33,-5.33333 49,-10 16,-4.66667 29.6666,-9.66667 41,-15 11.3334,-5.33333 17,-13 17,-23 0,-9.33334 -7.3334,-17.33334 -22,-24 -14.6666,-6.66666 -31,-12 -49,-16 -18,-4 -35.6666,-7.333336 -53,-10 -17.3334,-2.666664 -28.3334,-3.666664 -33,-3 -9.3334,0 -18.6666,0 -28,0 -9.3334,0 -18,1 -26,3 -8,2 -14.3334,4.333336 -19,7 -4.6666,2.666664 -7.3334,7.666664 -8,15 0,11.33334 3.3334,18.33333 10,21 6.6666,2.66667 13.6666,4 21,4 10,0 19.6666,-1.33334 29,-4 9.3334,-2.66666 19,-5.33334 29,-8 10,-2.66666 18.6666,-5.33334 26,-8 7.3334,-2.66666 15.3334,-4 24,-4 12.6666,0 24.3334,2.33334 35,7 10.6666,4.66666 18,9 22,13 1.3334,1.33333 2,3.33333 2,6 0,1.33333 -0.6666,2.66667 -2,4 -20.6666,10.66667 -42.3334,18.33333 -65,23 -22.6666,4.66667 -44,7.33333 -64,8 -10,0 -20.3334,-1 -31,-3 -10.6666,-2 -20.3334,-5.33333 -29,-10 -8.6666,-4.66667 -16,-11 -22,-19 -6,-8 -9,-18 -9,-30 0,-10 4.3334,-20.66667 13,-32 8.6666,-11.333332 20.3334,-21.666668 35,-31 14.6666,-9.333332 31.6666,-17 51,-23 19.3334,-6 39.6666,-9 61,-9 8,0 20.3334,0.666667 37,2 16.6666,1.333333 33.3334,6 50,14 16.6666,8 31.6666,19.333336 45,34 13.3334,14.666664 20,36 20,64 0,23.33333 -5.6666,41.33333 -17,54 -11.3334,12.66667 -25.3334,22.33333 -42,29 -16.6666,6.66667 -35,10.66667 -55,12 -20,1.33333 -38.3334,3 -55,5 -20,1.33333 -37.3334,3.33333 -52,6 -14.6666,2.66667 -31.6666,7.66667 -51,15 -1.3334,0 -2,0.66667 -2,2 0,1.33333 0.6666,2.66667 2,4"
           stroke-miterlimit="2.5"
           transform="matrix(0.25216305,0,0,-0.25216305,38.9826,239.45169)"
           id="path3957"
           style="fill:#ffffff;fill-opacity:1;stroke:#000000;stroke-width:19.47068405;stroke-linecap:round;stroke-linejoin:bevel;stroke-miterlimit:2.5;stroke-opacity:0"
           inkscape:connector-curvature="0" />
        <path
           d="m 1599,369 c 0,0 3,-12 3,-12 6,-23.33334 11.6666,-43.33334 17,-60 5.3334,-16.66666 10,-32.3333 14,-47 4,-14.66667 7,-30.33333 9,-47 2,-16.66667 3.3334,-36.33333 4,-59 0,-8.66667 0,-15 0,-19 0,-4 -2,-6.33334 -6,-7 0.6666,0 -1.6666,2.66666 -7,8 -13.3334,16.66667 -26.6666,36 -40,58 -13.3334,22 -26.6666,42.66666 -40,62 -13.3334,19.33334 -25,36 -35,50 -10,14 -19.3334,21 -28,21 -7.3334,0 -14,-4.66666 -20,-14 -6,-9.33334 -11.6666,-21.3333 -17,-36 -5.3334,-14.66667 -10,-30.66667 -14,-48 -4,-17.33333 -7.3334,-35 -10,-53 -2.6666,-18 -4.6666,-34.33334 -6,-49 -1.3334,-14.66666 -2,-26.666664 -2,-36 0,-6 0.3334,-13.33333 1,-22 0.6666,-8.666668 2.6666,-17.333332 6,-26 3.3334,-8.666668 7.3334,-16 12,-22 4.6666,-6 11.3334,-9 20,-9 5.3334,0 9.6666,1.666667 13,5 3.3334,3.333333 6.3334,7.666666 9,13 2.6666,5.333334 4.3334,10.666668 5,16 0.6666,5.333332 1.6666,9.666668 3,13 1.3334,8 2.3334,19.333336 3,34 0.6666,14.666664 1.6666,30.33333 3,47 1.3334,16.66667 2,31 2,43 0,12 0.6666,20 2,24 2,7.33333 4.3334,11 7,11 2,0 5.3334,-4.66667 10,-14 4.6666,-9.33333 10.6666,-20.66667 18,-34 7.3334,-13.33333 14.6666,-28.33334 22,-45 7.3334,-16.666664 15.6666,-31.33333 25,-44 9.3334,-12.666668 19,-24.333332 29,-35 10,-10.666668 19.6666,-15.333334 29,-14 12,0 22.6666,4 32,12 9.3334,8 17.6666,18.666664 25,32 7.3334,13.333336 12.3334,27.666664 15,43 2.6666,15.33334 4.3334,31 5,47 0,34.66667 -4.3334,66.66666 -13,96 -8.6666,29.33334 -18.6666,54.33334 -30,75 -11.3334,20.66666 -23.3334,37 -36,49 -12.6666,12 -22.3334,18 -29,18 -4.6666,0 -7.3334,-2.33334 -8,-7 -0.6666,-4.66666 -1.3334,-9.33334 -2,-14 0,0 0,-4 0,-4"
           stroke-miterlimit="2.5"
           transform="matrix(0.25216305,0,0,-0.25216305,38.9826,239.45169)"
           id="path3959"
           style="fill:#ffffff;fill-opacity:1;stroke:#000000;stroke-width:19.47068405;stroke-linecap:round;stroke-linejoin:bevel;stroke-miterlimit:2.5;stroke-opacity:0"
           inkscape:connector-curvature="0" />
        <path
           d="m 1987,64 c 0,6.666664 -2.6666,13.333336 -8,20 -5.3334,6.666664 -11,10 -17,10 -5.3334,0 -10.6666,0 -16,0 -5.3334,0 -11,-0.666664 -17,-2 -32,-3.333336 -57,-6.666664 -75,-10 -18,-3.333336 -28.6666,-5.333336 -32,-6 5.3334,11.333336 10,22.666664 14,34 4,11.33334 7.3334,22.33333 10,33 1.3334,2.66667 3.3334,4 6,4 25.3334,0 48,0.33333 68,1 20,0.66667 35,1.33333 45,2 4.6666,0.66667 7.6666,3.66667 9,9 1.3334,5.33333 2,10.33333 2,15 0,4.66667 -0.3334,9.66667 -1,15 -0.6666,5.33333 -2.3334,10 -5,14 0,0 -14,2 -14,2 0,0 -74,0 -74,0 -3.3334,0 -5.6666,1 -7,3 -1.3334,2 -2,4.33333 -2,7 0,12.66667 1.3334,22.33333 4,29 2.6666,6.66667 5.3334,11 8,13 3.3334,0.66666 8.3334,1 15,1 6.6666,0 12.6666,0 18,0 5.3334,0 10.6666,0.33334 16,1 5.3334,0 11.6666,0 19,0 7.3334,0 16.3334,0.66666 27,2 4.6666,0 10,0.66666 16,2 6,1.33334 12,3.33334 18,6 6,2.66666 10.6666,4.66666 14,6 3.3334,1.33334 5.3334,4 6,8 0,8.66666 -4,17.66666 -12,27 -8,9.33334 -14.6666,16.66666 -20,22 -10.6666,3.33334 -19,5.33334 -25,6 -6,0.66666 -11.3334,1 -16,1 -20.6666,0 -39.3334,-1 -56,-3 -16.6666,-2 -31.6666,-4 -45,-6 -13.3334,-2 -26,-4.33334 -38,-7 -12,-2.66666 -23.3334,-4 -34,-4 -8.6666,-0.66666 -15,-2 -19,-4 -4,-2 -6.3334,-5.66666 -7,-11 0,-5.33334 1.6666,-10 5,-14 3.3334,-4 8,-8 14,-12 6,-4 12.3334,-7.33334 19,-10 6.6666,-2.66666 13,-5.66666 19,-9 0,0 -24,-55 -24,-55 -4.6666,-0.66667 -9,-1.66667 -13,-3 -4,-1.33333 -8.3334,-3 -13,-5 -1.3334,-4 -2.3334,-7.33333 -3,-10 -0.6666,-2.66667 -1.3334,-6 -2,-10 0,-5.33333 1,-9.66667 3,-13 2,-3.33333 3.6666,-7.66667 5,-13 -5.3334,-15.33333 -10.6666,-30.33334 -16,-45 -5.3334,-14.666664 -8.3334,-28 -9,-40 0,-21.333336 6.3334,-40.666666 19,-58 12.6666,-17.333334 33,-26 61,-26 16.6666,0 32.6666,2.333334 48,7 15.3334,4.6666665 29.6666,11 43,19 13.3334,8 25.6666,15.333332 37,22 11.3334,6.666668 20,13.333332 26,20 4,2.666668 6,7.666668 6,15"
           stroke-miterlimit="2.5"
           transform="matrix(0.25216305,0,0,-0.25216305,33.9826,239.45169)"
           id="path3961"
           style="fill:#ffffff;fill-opacity:1;stroke:#000000;stroke-width:19.47068405;stroke-linecap:round;stroke-linejoin:bevel;stroke-miterlimit:2.5;stroke-opacity:0"
           inkscape:connector-curvature="0" />
        <path
           d="m 33,-284 q 10,40 17,71 7,31 14,62 7,31 17,62 10,31 25,76 6,1 11,1 5,0 11,1 25,0 62,15 37,15 71,42 34,27 58,64 24,37 24,81 0,15 -3,36 -3,21 -10,40 -7,19 -20,34 -13,15 -32,14 -19,0 -45,-20 -26,-20 -55,-48 -29,-28 -54,-60 -25,-32 -44,-56 -3,-4 -4,-4 l -2,0 q -2,2 -2,5 0,3 -1,7 0,27 13,55 13,28 26,47 23,35 33,50 10,15 10,30 0,14 -2,20 -2,6 -14,8 -8,-1 -27,-22 Q 91,306 70,274 49,242 33,201 17,160 17,122 17,104 22,86 27,68 35,49 14,-1 0,-45 q -14,-44 -22,-79 -8,-35 -11,-58 -3,-23 -4,-30 0,-32 18,-54 18,-22 49,-26 l 3,8 z M 156,75 q 3,6 10,21 7,15 17,33 10,18 18,33 8,15 13,21 6,7 15,18 9,11 19,21 10,10 20,17 10,7 16,8 10,0 11,-10 1,-10 2,-18 0,-61 -43,-98 -46,-40 -98,-46 z"
           stroke-miterlimit="2.5"
           transform="matrix(0.25203413,0,0,-0.25203413,541.4215,239.49855)"
           id="path3963"
           style="fill:#ffffff;fill-opacity:1;stroke:#000000;stroke-width:145.83334351;stroke-linecap:round;stroke-linejoin:bevel;stroke-miterlimit:2.5;stroke-opacity:0"
           inkscape:connector-curvature="0" />
        <path
           inkscape:connector-curvature="0"
           id="path3965"
           d="m 228.65625,250.96875 c -0.76313,0.0856 -1.46613,0.32763 -2.28125,0.53125 -1.63024,0.40725 -3.46238,1.04652 -5.5,1.875 -4.07524,1.65695 -8.89059,4.06428 -13.4375,6.9375 -4.54691,2.87322 -8.81121,6.15159 -11.84375,9.8125 -1.51627,1.83045 -2.74368,3.78241 -3.40625,5.96875 -0.66257,2.18634 -0.68437,4.716 0.34375,6.96875 1.83425,4.01909 5.6659,6.33356 9.78125,7.46875 4.11535,1.13519 8.78522,1.3146 13.65625,1.125 9.74207,-0.3792 20.4173,-2.33416 27.625,-2.9375 a 3.5125681,3.5125681 0 1 0 -0.59375,-7 c -7.85895,0.65786 -18.33487,2.58805 -27.3125,2.9375 -4.48882,0.17472 -8.59148,-0.0641 -11.53125,-0.875 -2.93977,-0.81091 -4.47918,-1.93603 -5.25,-3.625 -0.27441,-0.60128 -0.31154,-1.10634 -0.0312,-2.03125 0.28029,-0.92491 0.97596,-2.18184 2.09375,-3.53125 2.23559,-2.69882 6.05784,-5.71445 10.21875,-8.34375 4.16091,-2.6293 8.67372,-4.92676 12.3125,-6.40625 1.81939,-0.73975 3.41545,-1.27596 4.5625,-1.5625 1.14705,-0.28654 2.08238,-0.0245 1.09375,-0.34375 1.95461,0.63124 2.3896,1.09395 2.53125,1.28125 0.14165,0.1873 0.32324,0.74776 0.65625,2.28125 a 3.5031027,3.5031027 0 1 0 6.84375,-1.5 c -0.3266,-1.50398 -0.58536,-3.25344 -1.90625,-5 -1.32089,-1.74656 -3.3499,-2.87299 -5.96875,-3.71875 -1.066,-0.34426 -1.89312,-0.39815 -2.65625,-0.3125 z"
           style="font-size:medium;font-style:normal;font-variant:normal;font-weight:normal;font-stretch:normal;text-indent:0;text-align:start;text-decoration:none;line-height:normal;letter-spacing:normal;word-spacing:normal;text-transform:none;direction:ltr;block-progression:tb;writing-mode:lr-tb;text-anchor:start;baseline-shift:baseline;color:#000000;fill:#ffffff;fill-opacity:1;fill-rule:nonzero;stroke:none;stroke-width:1;marker:none;visibility:visible;display:inline;overflow:visible;enable-background:accumulate;font-family:Sans;-inkscape-font-specification:Sans" />
        <path
           style="font-size:medium;font-style:normal;font-variant:normal;font-weight:normal;font-stretch:normal;text-indent:0;text-align:start;text-decoration:none;line-height:normal;letter-spacing:normal;word-spacing:normal;text-transform:none;direction:ltr;block-progression:tb;writing-mode:lr-tb;text-anchor:start;baseline-shift:baseline;color:#000000;fill:#ffffff;fill-opacity:1;fill-rule:nonzero;stroke:none;stroke-width:1;marker:none;visibility:visible;display:inline;overflow:visible;enable-background:accumulate;font-family:Sans;-inkscape-font-specification:Sans"
           d="m 279.1875,249.625 a 3.50035,3.50035 0 0 0 -3.15625,3.8125 l 1.03125,13.09375 -13.65625,4.75 0.375,-13.65625 a 3.5012554,3.5012554 0 1 0 -7,-0.1875 l -0.4375,16.3125 -5.96875,2.0625 a 3.5084997,3.5084997 0 1 0 2.3125,6.625 l 3.4375,-1.1875 -0.21875,7.96875 a 3.5017086,3.5017086 0 1 0 7,0.21875 l 0.28125,-10.65625 14.4375,-5.03125 1.34375,17.03125 a 3.50035,3.50035 0 1 0 6.96875,-0.5625 l -1.46875,-18.84375 1.75,-0.625 a 3.50035,3.50035 0 1 0 -2.3125,-6.59375 l -0.875,-11.28125 a 3.50035,3.50035 0 0 0 -3.84375,-3.25 z"
           id="path3967"
           inkscape:connector-curvature="0" />
        <path
           inkscape:connector-curvature="0"
           id="path3969"
           d="m 309.90625,250.25 a 3.50035,3.50035 0 0 0 -3.125,2.5625 l -5.90625,21.15625 -6.65625,2.09375 a 3.5084997,3.5084997 0 1 0 2.125,6.6875 l 2.28125,-0.71875 -2.34375,8.40625 a 3.5027891,3.5027891 0 1 0 6.75,1.875 l 3.5625,-12.78125 12.59375,-3.96875 9.5625,15.875 a 3.5050187,3.5050187 0 1 0 6,-3.625 l -8.6875,-14.40625 1.78125,-0.5625 a 3.5084997,3.5084997 0 1 0 -2.125,-6.6875 l -3.375,1.0625 -9.1875,-15.28125 a 3.50035,3.50035 0 0 0 -3.25,-1.6875 z m 1.4375,12.28125 4.125,6.84375 -6.625,2.09375 2.5,-8.9375 z"
           style="font-size:medium;font-style:normal;font-variant:normal;font-weight:normal;font-stretch:normal;text-indent:0;text-align:start;text-decoration:none;line-height:normal;letter-spacing:normal;word-spacing:normal;text-transform:none;direction:ltr;block-progression:tb;writing-mode:lr-tb;text-anchor:start;baseline-shift:baseline;color:#000000;fill:#ffffff;fill-opacity:1;fill-rule:nonzero;stroke:none;stroke-width:1;marker:none;visibility:visible;display:inline;overflow:visible;enable-background:accumulate;font-family:Sans;-inkscape-font-specification:Sans" />
        <path
           inkscape:connector-curvature="0"
           id="path3971"
           d="m 373.625,250.5 a 3.50035,3.50035 0 0 0 -3.375,3.28125 l -2.125,27.3125 L 346.5,258.0625 a 3.50035,3.50035 0 0 0 -6.0625,2.3125 l -0.6875,33.5625 a 3.500558,3.500558 0 1 0 7,0.125 l 0.5,-24.96875 21.1875,22.5625 a 3.50035,3.50035 0 0 0 6.03125,-2.125 l 2.75,-35.21875 A 3.50035,3.50035 0 0 0 373.625,250.5 z"
           style="font-size:medium;font-style:normal;font-variant:normal;font-weight:normal;font-stretch:normal;text-indent:0;text-align:start;text-decoration:none;line-height:normal;letter-spacing:normal;word-spacing:normal;text-transform:none;direction:ltr;block-progression:tb;writing-mode:lr-tb;text-anchor:start;baseline-shift:baseline;color:#000000;fill:#ffffff;fill-opacity:1;fill-rule:nonzero;stroke:none;stroke-width:1;marker:none;visibility:visible;display:inline;overflow:visible;enable-background:accumulate;font-family:Sans;-inkscape-font-specification:Sans" />
        <path
           inkscape:connector-curvature="0"
           id="path3973"
           d="M 417.3125,251.65625 A 3.50035,3.50035 0 0 0 414,255.34375 l 0.96875,25.8125 -23.75,-20.71875 a 3.50035,3.50035 0 0 0 -5.8125,2.78125 l 1.15625,27.4375 a 3.503486,3.503486 0 1 0 7,-0.3125 l -0.8125,-19.25 23.75,20.6875 A 3.50035,3.50035 0 0 0 422.28125,289 l -1.3125,-33.9375 a 3.50035,3.50035 0 0 0 -3.65625,-3.40625 z"
           style="font-size:medium;font-style:normal;font-variant:normal;font-weight:normal;font-stretch:normal;text-indent:0;text-align:start;text-decoration:none;line-height:normal;letter-spacing:normal;word-spacing:normal;text-transform:none;direction:ltr;block-progression:tb;writing-mode:lr-tb;text-anchor:start;baseline-shift:baseline;color:#000000;fill:#ffffff;fill-opacity:1;fill-rule:nonzero;stroke:none;stroke-width:1;marker:none;visibility:visible;display:inline;overflow:visible;enable-background:accumulate;font-family:Sans;-inkscape-font-specification:Sans" />
        <path
           inkscape:connector-curvature="0"
           id="path3975"
           d="m 459.46875,252.5 a 3.50035,3.50035 0 0 0 -1.28125,0.25 c -2.21623,0.81464 -6.6462,1.3861 -11.5,1.75 -4.8538,0.3639 -10.20562,0.58931 -14.9375,1.125 a 3.50035,3.50035 0 0 0 -3.0625,3.90625 c 1.19966,10.28301 2.39407,20.56077 3.59375,30.84375 a 3.50035,3.50035 0 0 0 3.96875,3.0625 l 27,-3.875 a 3.50035,3.50035 0 1 0 -1,-6.90625 L 438.8125,286 c -0.42785,-3.66727 -0.8534,-7.33274 -1.28125,-11 l 18.75,0.21875 a 3.50035,3.50035 0 1 0 0.0937,-7 l -19.65625,-0.25 c -0.21893,-1.87654 -0.46857,-3.74845 -0.6875,-5.625 3.60729,-0.29729 7.36605,-0.55725 11.1875,-0.84375 5.01663,-0.3761 9.65647,-0.82064 13.375,-2.1875 a 3.50035,3.50035 0 0 0 -1.125,-6.8125 z"
           style="font-size:medium;font-style:normal;font-variant:normal;font-weight:normal;font-stretch:normal;text-indent:0;text-align:start;text-decoration:none;line-height:normal;letter-spacing:normal;word-spacing:normal;text-transform:none;direction:ltr;block-progression:tb;writing-mode:lr-tb;text-anchor:start;baseline-shift:baseline;color:#000000;fill:#ffffff;fill-opacity:1;fill-rule:nonzero;stroke:none;stroke-width:1;marker:none;visibility:visible;display:inline;overflow:visible;enable-background:accumulate;font-family:Sans;-inkscape-font-specification:Sans" />
        <path
           inkscape:connector-curvature="0"
           id="path3977"
           d="m 476.75,250.6875 a 3.50035,3.50035 0 0 0 -3.28125,3.71875 l 1.71875,37 a 3.50035,3.50035 0 0 0 4.4375,3.21875 c 11.13226,-3.09718 23.40867,-4.04235 34.21875,-2.65625 a 3.50035,3.50035 0 1 0 0.875,-6.9375 C 504.23076,283.68645 492.83992,284.45148 482,286.9375 l -1.53125,-32.875 a 3.50035,3.50035 0 0 0 -3.71875,-3.375 z"
           style="font-size:medium;font-style:normal;font-variant:normal;font-weight:normal;font-stretch:normal;text-indent:0;text-align:start;text-decoration:none;line-height:normal;letter-spacing:normal;word-spacing:normal;text-transform:none;direction:ltr;block-progression:tb;writing-mode:lr-tb;text-anchor:start;baseline-shift:baseline;color:#000000;fill:#ffffff;fill-opacity:1;fill-rule:nonzero;stroke:none;stroke-width:1;marker:none;visibility:visible;display:inline;overflow:visible;enable-background:accumulate;font-family:Sans;-inkscape-font-specification:Sans" />
      </g>
    </clipPath>
    <linearGradient
       inkscape:collect="always"
       xlink:href="#linearGradient4038"
       id="linearGradient4044"
       x1="353.0748"
       y1="130.327"
       x2="353.0748"
       y2="302.97256"
       gradientUnits="userSpaceOnUse" />
  </defs>
  <sodipodi:namedview
     pagecolor="#ffffff"
     bordercolor="#666666"
     borderopacity="1"
     objecttolerance="10"
     gridtolerance="10"
     guidetolerance="10"
     inkscape:pageopacity="0"
     inkscape:pageshadow="2"
     inkscape:window-width="1366"
     inkscape:window-height="705"
     id="namedview27"
     showgrid="false"
     inkscape:zoom="1.4191781"
     inkscape:cx="324"
     inkscape:cy="182.5"
     inkscape:window-x="-8"
     inkscape:window-y="-8"
     inkscape:window-maximized="1"
     inkscape:current-layer="svg2" />
  <desc
     id="desc4">Exported from Simplector Pro</desc>
  <path
     id="2"
     fill="rgb(0,136,255)"
     fill-opacity="1.0"
     stroke-width="2.5"
     stroke-linecap="round"
     stroke-linejoin="bevel"
     stroke-miterlimit="2.5"
     stroke="rgb(0,0,0)"
     stroke-opacity="0.0"
     d="       M 244.62587 109.93999 C 218.60986 85.50245 193.61237 73.35279 157.73389 58.135742        S 34.535164 32.287415 12.719974 60.09146 S 14.498035 103.98318 27.437496 103.490845        S 51.16924 102.66253 57.288155 89.179756 C 73.81689 87.62512 90.839615 89.54973 106.42862 94.952385        C 103.96324 104.87222 97.29513 125.01109 98.23988 139.84256 C 82.908676 143.03363 40.35447 157.86067 39.47743 179.17679        S 63.086884 228.88898 96.970055 247.76746 C 105.49671 269.4396 121.21156 281.25336 146.96437 263.3813        C 152.93777 265.03003 162.72691 266.5781 171.11076 264.81857 C 168.44598 288.6781 181.00423 306.8375 205.8325 306.7599        L 518.15674 305.7599 C 532.5446 334.18515 566.01135 332.02634 567.7324 312.13193        S 579.3466 274.36536 583.8895 251.35907 C 622.3035 245.06964 651.1087 211.00604 645.8699 173.46976        S 586.325 111.62403 553.4627 141.58107 C 538.26385 123.44727 488.49667 138.92412 471.09058 141.52858        C 454.78146 120.547516 438.51984 120.07543 431.77826 123.927055 S 421.84146 137.60928 422.24008 144.15884        C 410.32336 132.26283 348.79938 130.35536 326.58566 135.8451 C 329.39117 133.74123 332.92664 130.25763 333.8429 127.355515        C 350.4924 132.30168 374.8467 104.60266 360.54596 81.33294 S 323.42944 63.091316 317.45874 66.93594        C 308.37357 48.226776 286.42212 42.34781 272.4962 51.09421 S 251.05829 74.16952 258.05225 88.60183        C 252.82237 90.80876 245.21931 102.048706 244.62587 109.93999        "
     style="fill-opacity:1;fill:url(#linearGradient4044)" />
  <g
     id="g3855"
     style="opacity:0.5;fill:#000000"
     transform="translate(-2,4)">
    <path
       id="path3827"
       transform="matrix(0.2527003,0,0,-0.2527003,49.060055,239.88715)"
       stroke-miterlimit="2.5"
       d="m -43,613 q 4,4 4,8 0,5 -5,8 -2,1 -8,2 -6,1 -12,2 -6,1 -12,4 -6,3 -6,5 0,7 23,12 20,5 41,7 21,2 41,2 99,0 185,-17 86,-17 176,-51 42,-16 87,-38 45,-22 89,-49 44,-27 83,-59 39,-32 69,-68 30,-36 47,-77 17,-41 18,-85 0,-45 -17,-76 Q 743,112 714,89 685,66 649,54 613,42 576,34 539,26 502,24 q -37,-2 -63,-2 -19,0 -45,3 -26,3 -51,19 l -1,216 q 6,2 11,3 5,1 15,1 30,0 63,-5 33,-5 62,-12 29,-7 52,-17 23,-10 30,-18 -5,-10 -18,-21 -13,-11 -25,-24 8,-6 21,-9 13,-3 23,-4 13,0 25,7 12,7 22,18 10,11 16,23 6,12 6,21 0,25 -16,44 -16,19 -42,32 -26,13 -58,21 -32,8 -63,13 -31,5 -60,7 -29,2 -45,2 l -14,0 q -2,17 -3,32 -1,15 -2,31 -1,17 -3,32 -2,15 -6,27 -4,12 -13,25 -9,13 -22,23 -9,-8 -15,-28 -6,-20 -10,-44 -4,-24 -6,-42 -2,-18 -3,-23 l -2,-41 Q 188,321 140,305 92,289 57,263 24,240 24,217 24,194 40,171 56,148 73,130 93,107 137,74 181,41 250,1 q 5,-23 10,-43 5,-20 16,-35 l 23,-2 q 10,0 18,1 8,1 17,3 5,17 7,25 2,8 5,17 34,-5 72,-10 38,-5 74,-5 68,0 135,16 67,16 122,50 55,34 87,84 32,50 34,119 0,51 -23,100 -23,49 -61,93 -38,44 -86,84 -48,40 -98,70 -50,30 -98,55 -48,25 -85,38 -74,26 -154,44 -80,18 -149,19 -17,0 -41,0 -24,0 -49,-4 -25,-4 -51,-9 -26,-5 -45,-17 -19,-12 -32,-27 -13,-15 -13,-39 0,-10 15,-13 15,-3 33,-3 8,0 14,0 6,0 10,1 z M 258,261 249,67 q -35,8 -68,24 -33,16 -58,36 -11,8 -23,18 -12,10 -24,20 -12,10 -19,22 -7,12 -8,21 0,13 19,21 19,8 48,15 29,7 64,9 35,2 67,8 l 11,0 z"
       style="fill:#000000;fill-opacity:1;stroke:#000000;stroke-width:168.84616089;stroke-linecap:round;stroke-linejoin:bevel;stroke-miterlimit:2.5;stroke-opacity:0"
       inkscape:connector-curvature="0" />
    <path
       id="path3829"
       transform="matrix(0.25216305,0,0,-0.25216305,46.9826,239.45169)"
       stroke-miterlimit="2.5"
       d="m 946,340 c -3.3333,0 -5.3333,-2.33334 -6,-7 -6.6667,-50.66666 -11,-89.66667 -13,-117 -2,-27.33333 -3.3333,-45 -4,-53 -0.6667,-13.33333 -1,-23.66666 -1,-31 0,-7.33334 -0.3333,-14.66666 -1,-22 -0.6667,-7.33334 -1,-14.666664 -1,-22 0,-7.333336 0,-17.333336 0,-30 0,-2.666668 0.3333,-6.666668 1,-12 0.6667,-5.333332 2,-10.666664 4,-16 2,-5.333334 4,-10.666666 6,-16 2,-5.333334 5,-8.3333335 9,-9 4,-1.3333335 8.6667,-2.6666665 14,-4 5.3333,-1.33333337 10,-2 14,-2 12.6667,0 21,3.666666 25,11 4,7.333334 6,15.333332 6,24 0,40 -1.3333,80.66667 -4,122 -2.6667,41.33333 -4.6667,82.66667 -6,124 -1.3333,19.33334 -4.3333,34 -9,44 -4.6667,10 -16,15.33334 -34,16"
       style="fill:#000000;fill-opacity:1;stroke:#000000;stroke-width:19.47068405;stroke-linecap:round;stroke-linejoin:bevel;stroke-miterlimit:2.5;stroke-opacity:0"
       inkscape:connector-curvature="0" />
    <path
       id="path3831"
       stroke-miterlimit="2.5"
       d="m 321.82092,113.46228 c -7.71185,20.47926 -37.95065,28.68599 -52.39956,20.85855 -14.44892,-7.82744 -14.00966,-29.14745 7.87554,-41.44111 -17.7789,-10.27327 -7.39935,-31.903096 7.17454,-31.457902 14.57388,0.445194 23.90612,11.477602 17.36846,27.074337 4.03254,0.02175 7.5646,1.722135 10.72754,6.38546 4.46706,-21.020215 26.51249,-21.115855 34.48151,-7.917965 7.96902,13.1979 -6.1e-4,35.36377 -25.22803,26.49863 m -40.43976,11.381 c 0,0.25649 0.19239,0.57708 0.57709,0.96181 0.38471,0.38473 0.70532,0.57709 0.96179,0.57709 0,0 4.23194,0 4.23194,0 2.56485,-0.25649 5.45025,-0.70533 8.65632,-1.34653 3.20604,-0.64121 6.4121,-1.79538 9.6181,-3.46252 3.206,-1.66713 5.835,-3.59075 7.88683,-5.77085 2.05182,-2.18011 3.07777,-4.74493 3.07777,-7.69448 0,-1.41064 -0.1924,-2.56481 -0.5771,-3.46251 -0.3847,-0.89769 -1.8595,-1.34653 -4.4243,-1.34653 -2.94957,0.12824 -5.70674,0.76944 -8.27156,1.92361 -2.56482,1.15418 -5.19378,2.75719 -7.88684,4.80906 -2.69305,2.05186 -5.19382,4.3602 -7.50214,6.92502 -2.30831,2.56482 -4.42431,5.19377 -6.3479,7.88683 m -11.54174,-6.92502 c 0.2565,0.25648 0.513,0.38473 0.76948,0.38473 0.3847,0 0.7053,-0.12825 0.96178,-0.38473 0.8977,-0.76945 1.8595,-1.85949 2.88544,-3.27015 1.02594,-1.41066 2.30831,-2.82132 3.84722,-4.23196 1.53891,-1.41065 3.01368,-2.82131 4.42432,-4.23196 1.41064,-1.41065 2.69309,-2.62895 3.84726,-3.65488 0,0 0,-0.19236 0,-0.19236 0,-0.38472 -0.12826,-0.70533 -0.38472,-0.96181 -4.87318,1.15417 -8.72035,3.27015 -11.5417,6.34794 -2.82135,3.07779 -4.42435,6.47618 -4.80908,10.19518"
       style="fill:#000000;fill-opacity:1;stroke:#000000;stroke-width:2.5;stroke-linecap:round;stroke-linejoin:bevel;stroke-miterlimit:2.5;stroke-opacity:0"
       inkscape:connector-curvature="0" />
    <path
       id="path3833"
       transform="matrix(0.25216305,0,0,-0.25216305,38.9826,239.45169)"
       stroke-miterlimit="2.5"
       d="m 1114,252 c 5.3334,3.33333 12,6 20,8 8,2 20.3334,4.33334 37,7 8,1.33334 19.6666,2.66666 35,4 15.3334,1.33334 31.3334,2.66666 48,4 16.6666,1.33334 33.3334,2.33334 50,3 16.6666,0.66666 29,2 37,4 4,0.66666 9.3334,1.33334 16,2 6.6666,0.66666 12.3334,2 17,4 5.3334,2 10,4.66666 14,8 4,3.33334 6.6666,8.33334 8,15 0,5.33334 -1,9 -3,11 -2,2 -4.6666,3.33334 -8,4 -16.6666,4 -35.6666,7.66666 -57,11 -21.3334,3.33334 -45,5.33334 -71,6 -1.3334,0 -7,-0.33334 -17,-1 -10,-0.66666 -22.6666,-2 -38,-4 -15.3334,-2 -31.3334,-5.33334 -48,-10 -16.6666,-4.66666 -32,-10.66666 -46,-18 -14,-7.33334 -26,-16.66666 -36,-28 -10,-11.33334 -14.6666,-24.66666 -14,-40 0,-10.66667 1.3334,-19.33333 4,-26 2.6666,-6.66667 8.3334,-12.33333 17,-17 8.6666,-4.66667 22,-8 40,-10 18,-2 41,-3.33333 69,-4 10.6666,0 24.3334,-1 41,-3 16.6666,-2 33,-5.33333 49,-10 16,-4.66667 29.6666,-9.66667 41,-15 11.3334,-5.33333 17,-13 17,-23 0,-9.33334 -7.3334,-17.33334 -22,-24 -14.6666,-6.66666 -31,-12 -49,-16 -18,-4 -35.6666,-7.333336 -53,-10 -17.3334,-2.666664 -28.3334,-3.666664 -33,-3 -9.3334,0 -18.6666,0 -28,0 -9.3334,0 -18,1 -26,3 -8,2 -14.3334,4.333336 -19,7 -4.6666,2.666664 -7.3334,7.666664 -8,15 0,11.33334 3.3334,18.33333 10,21 6.6666,2.66667 13.6666,4 21,4 10,0 19.6666,-1.33334 29,-4 9.3334,-2.66666 19,-5.33334 29,-8 10,-2.66666 18.6666,-5.33334 26,-8 7.3334,-2.66666 15.3334,-4 24,-4 12.6666,0 24.3334,2.33334 35,7 10.6666,4.66666 18,9 22,13 1.3334,1.33333 2,3.33333 2,6 0,1.33333 -0.6666,2.66667 -2,4 -20.6666,10.66667 -42.3334,18.33333 -65,23 -22.6666,4.66667 -44,7.33333 -64,8 -10,0 -20.3334,-1 -31,-3 -10.6666,-2 -20.3334,-5.33333 -29,-10 -8.6666,-4.66667 -16,-11 -22,-19 -6,-8 -9,-18 -9,-30 0,-10 4.3334,-20.66667 13,-32 8.6666,-11.333332 20.3334,-21.666668 35,-31 14.6666,-9.333332 31.6666,-17 51,-23 19.3334,-6 39.6666,-9 61,-9 8,0 20.3334,0.666667 37,2 16.6666,1.333333 33.3334,6 50,14 16.6666,8 31.6666,19.333336 45,34 13.3334,14.666664 20,36 20,64 0,23.33333 -5.6666,41.33333 -17,54 -11.3334,12.66667 -25.3334,22.33333 -42,29 -16.6666,6.66667 -35,10.66667 -55,12 -20,1.33333 -38.3334,3 -55,5 -20,1.33333 -37.3334,3.33333 -52,6 -14.6666,2.66667 -31.6666,7.66667 -51,15 -1.3334,0 -2,0.66667 -2,2 0,1.33333 0.6666,2.66667 2,4"
       style="fill:#000000;fill-opacity:1;stroke:#000000;stroke-width:19.47068405;stroke-linecap:round;stroke-linejoin:bevel;stroke-miterlimit:2.5;stroke-opacity:0"
       inkscape:connector-curvature="0" />
    <path
       id="path3835"
       transform="matrix(0.25216305,0,0,-0.25216305,38.9826,239.45169)"
       stroke-miterlimit="2.5"
       d="m 1599,369 c 0,0 3,-12 3,-12 6,-23.33334 11.6666,-43.33334 17,-60 5.3334,-16.66666 10,-32.3333 14,-47 4,-14.66667 7,-30.33333 9,-47 2,-16.66667 3.3334,-36.33333 4,-59 0,-8.66667 0,-15 0,-19 0,-4 -2,-6.33334 -6,-7 0.6666,0 -1.6666,2.66666 -7,8 -13.3334,16.66667 -26.6666,36 -40,58 -13.3334,22 -26.6666,42.66666 -40,62 -13.3334,19.33334 -25,36 -35,50 -10,14 -19.3334,21 -28,21 -7.3334,0 -14,-4.66666 -20,-14 -6,-9.33334 -11.6666,-21.3333 -17,-36 -5.3334,-14.66667 -10,-30.66667 -14,-48 -4,-17.33333 -7.3334,-35 -10,-53 -2.6666,-18 -4.6666,-34.33334 -6,-49 -1.3334,-14.66666 -2,-26.666664 -2,-36 0,-6 0.3334,-13.33333 1,-22 0.6666,-8.666668 2.6666,-17.333332 6,-26 3.3334,-8.666668 7.3334,-16 12,-22 4.6666,-6 11.3334,-9 20,-9 5.3334,0 9.6666,1.666667 13,5 3.3334,3.333333 6.3334,7.666666 9,13 2.6666,5.333334 4.3334,10.666668 5,16 0.6666,5.333332 1.6666,9.666668 3,13 1.3334,8 2.3334,19.333336 3,34 0.6666,14.666664 1.6666,30.33333 3,47 1.3334,16.66667 2,31 2,43 0,12 0.6666,20 2,24 2,7.33333 4.3334,11 7,11 2,0 5.3334,-4.66667 10,-14 4.6666,-9.33333 10.6666,-20.66667 18,-34 7.3334,-13.33333 14.6666,-28.33334 22,-45 7.3334,-16.666664 15.6666,-31.33333 25,-44 9.3334,-12.666668 19,-24.333332 29,-35 10,-10.666668 19.6666,-15.333334 29,-14 12,0 22.6666,4 32,12 9.3334,8 17.6666,18.666664 25,32 7.3334,13.333336 12.3334,27.666664 15,43 2.6666,15.33334 4.3334,31 5,47 0,34.66667 -4.3334,66.66666 -13,96 -8.6666,29.33334 -18.6666,54.33334 -30,75 -11.3334,20.66666 -23.3334,37 -36,49 -12.6666,12 -22.3334,18 -29,18 -4.6666,0 -7.3334,-2.33334 -8,-7 -0.6666,-4.66666 -1.3334,-9.33334 -2,-14 0,0 0,-4 0,-4"
       style="fill:#000000;fill-opacity:1;stroke:#000000;stroke-width:19.47068405;stroke-linecap:round;stroke-linejoin:bevel;stroke-miterlimit:2.5;stroke-opacity:0"
       inkscape:connector-curvature="0" />
    <path
       id="path3837"
       transform="matrix(0.25216305,0,0,-0.25216305,33.9826,239.45169)"
       stroke-miterlimit="2.5"
       d="m 1987,64 c 0,6.666664 -2.6666,13.333336 -8,20 -5.3334,6.666664 -11,10 -17,10 -5.3334,0 -10.6666,0 -16,0 -5.3334,0 -11,-0.666664 -17,-2 -32,-3.333336 -57,-6.666664 -75,-10 -18,-3.333336 -28.6666,-5.333336 -32,-6 5.3334,11.333336 10,22.666664 14,34 4,11.33334 7.3334,22.33333 10,33 1.3334,2.66667 3.3334,4 6,4 25.3334,0 48,0.33333 68,1 20,0.66667 35,1.33333 45,2 4.6666,0.66667 7.6666,3.66667 9,9 1.3334,5.33333 2,10.33333 2,15 0,4.66667 -0.3334,9.66667 -1,15 -0.6666,5.33333 -2.3334,10 -5,14 0,0 -14,2 -14,2 0,0 -74,0 -74,0 -3.3334,0 -5.6666,1 -7,3 -1.3334,2 -2,4.33333 -2,7 0,12.66667 1.3334,22.33333 4,29 2.6666,6.66667 5.3334,11 8,13 3.3334,0.66666 8.3334,1 15,1 6.6666,0 12.6666,0 18,0 5.3334,0 10.6666,0.33334 16,1 5.3334,0 11.6666,0 19,0 7.3334,0 16.3334,0.66666 27,2 4.6666,0 10,0.66666 16,2 6,1.33334 12,3.33334 18,6 6,2.66666 10.6666,4.66666 14,6 3.3334,1.33334 5.3334,4 6,8 0,8.66666 -4,17.66666 -12,27 -8,9.33334 -14.6666,16.66666 -20,22 -10.6666,3.33334 -19,5.33334 -25,6 -6,0.66666 -11.3334,1 -16,1 -20.6666,0 -39.3334,-1 -56,-3 -16.6666,-2 -31.6666,-4 -45,-6 -13.3334,-2 -26,-4.33334 -38,-7 -12,-2.66666 -23.3334,-4 -34,-4 -8.6666,-0.66666 -15,-2 -19,-4 -4,-2 -6.3334,-5.66666 -7,-11 0,-5.33334 1.6666,-10 5,-14 3.3334,-4 8,-8 14,-12 6,-4 12.3334,-7.33334 19,-10 6.6666,-2.66666 13,-5.66666 19,-9 0,0 -24,-55 -24,-55 -4.6666,-0.66667 -9,-1.66667 -13,-3 -4,-1.33333 -8.3334,-3 -13,-5 -1.3334,-4 -2.3334,-7.33333 -3,-10 -0.6666,-2.66667 -1.3334,-6 -2,-10 0,-5.33333 1,-9.66667 3,-13 2,-3.33333 3.6666,-7.66667 5,-13 -5.3334,-15.33333 -10.6666,-30.33334 -16,-45 -5.3334,-14.666664 -8.3334,-28 -9,-40 0,-21.333336 6.3334,-40.666666 19,-58 12.6666,-17.333334 33,-26 61,-26 16.6666,0 32.6666,2.333334 48,7 15.3334,4.6666665 29.6666,11 43,19 13.3334,8 25.6666,15.333332 37,22 11.3334,6.666668 20,13.333332 26,20 4,2.666668 6,7.666668 6,15"
       style="fill:#000000;fill-opacity:1;stroke:#000000;stroke-width:19.47068405;stroke-linecap:round;stroke-linejoin:bevel;stroke-miterlimit:2.5;stroke-opacity:0"
       inkscape:connector-curvature="0" />
    <path
       id="path3839"
       transform="matrix(0.25203413,0,0,-0.25203413,541.4215,239.49855)"
       stroke-miterlimit="2.5"
       d="m 33,-284 q 10,40 17,71 7,31 14,62 7,31 17,62 10,31 25,76 6,1 11,1 5,0 11,1 25,0 62,15 37,15 71,42 34,27 58,64 24,37 24,81 0,15 -3,36 -3,21 -10,40 -7,19 -20,34 -13,15 -32,14 -19,0 -45,-20 -26,-20 -55,-48 -29,-28 -54,-60 -25,-32 -44,-56 -3,-4 -4,-4 l -2,0 q -2,2 -2,5 0,3 -1,7 0,27 13,55 13,28 26,47 23,35 33,50 10,15 10,30 0,14 -2,20 -2,6 -14,8 -8,-1 -27,-22 Q 91,306 70,274 49,242 33,201 17,160 17,122 17,104 22,86 27,68 35,49 14,-1 0,-45 q -14,-44 -22,-79 -8,-35 -11,-58 -3,-23 -4,-30 0,-32 18,-54 18,-22 49,-26 l 3,8 z M 156,75 q 3,6 10,21 7,15 17,33 10,18 18,33 8,15 13,21 6,7 15,18 9,11 19,21 10,10 20,17 10,7 16,8 10,0 11,-10 1,-10 2,-18 0,-61 -43,-98 -46,-40 -98,-46 z"
       style="fill:#000000;fill-opacity:1;stroke:#000000;stroke-width:145.83334351;stroke-linecap:round;stroke-linejoin:bevel;stroke-miterlimit:2.5;stroke-opacity:0"
       inkscape:connector-curvature="0" />
    <path
       style="font-size:medium;font-style:normal;font-variant:normal;font-weight:normal;font-stretch:normal;text-indent:0;text-align:start;text-decoration:none;line-height:normal;letter-spacing:normal;word-spacing:normal;text-transform:none;direction:ltr;block-progression:tb;writing-mode:lr-tb;text-anchor:start;baseline-shift:baseline;color:#000000;fill:#000000;fill-opacity:1;fill-rule:nonzero;stroke:none;stroke-width:1;marker:none;visibility:visible;display:inline;overflow:visible;enable-background:accumulate;font-family:Sans;-inkscape-font-specification:Sans"
       d="m 228.65625,250.96875 c -0.76313,0.0856 -1.46613,0.32763 -2.28125,0.53125 -1.63024,0.40725 -3.46238,1.04652 -5.5,1.875 -4.07524,1.65695 -8.89059,4.06428 -13.4375,6.9375 -4.54691,2.87322 -8.81121,6.15159 -11.84375,9.8125 -1.51627,1.83045 -2.74368,3.78241 -3.40625,5.96875 -0.66257,2.18634 -0.68437,4.716 0.34375,6.96875 1.83425,4.01909 5.6659,6.33356 9.78125,7.46875 4.11535,1.13519 8.78522,1.3146 13.65625,1.125 9.74207,-0.3792 20.4173,-2.33416 27.625,-2.9375 a 3.5125681,3.5125681 0 1 0 -0.59375,-7 c -7.85895,0.65786 -18.33487,2.58805 -27.3125,2.9375 -4.48882,0.17472 -8.59148,-0.0641 -11.53125,-0.875 -2.93977,-0.81091 -4.47918,-1.93603 -5.25,-3.625 -0.27441,-0.60128 -0.31154,-1.10634 -0.0312,-2.03125 0.28029,-0.92491 0.97596,-2.18184 2.09375,-3.53125 2.23559,-2.69882 6.05784,-5.71445 10.21875,-8.34375 4.16091,-2.6293 8.67372,-4.92676 12.3125,-6.40625 1.81939,-0.73975 3.41545,-1.27596 4.5625,-1.5625 1.14705,-0.28654 2.08238,-0.0245 1.09375,-0.34375 1.95461,0.63124 2.3896,1.09395 2.53125,1.28125 0.14165,0.1873 0.32324,0.74776 0.65625,2.28125 a 3.5031027,3.5031027 0 1 0 6.84375,-1.5 c -0.3266,-1.50398 -0.58536,-3.25344 -1.90625,-5 -1.32089,-1.74656 -3.3499,-2.87299 -5.96875,-3.71875 -1.066,-0.34426 -1.89312,-0.39815 -2.65625,-0.3125 z"
       id="path3841"
       inkscape:connector-curvature="0" />
    <path
       inkscape:connector-curvature="0"
       id="path3843"
       d="m 279.1875,249.625 a 3.50035,3.50035 0 0 0 -3.15625,3.8125 l 1.03125,13.09375 -13.65625,4.75 0.375,-13.65625 a 3.5012554,3.5012554 0 1 0 -7,-0.1875 l -0.4375,16.3125 -5.96875,2.0625 a 3.5084997,3.5084997 0 1 0 2.3125,6.625 l 3.4375,-1.1875 -0.21875,7.96875 a 3.5017086,3.5017086 0 1 0 7,0.21875 l 0.28125,-10.65625 14.4375,-5.03125 1.34375,17.03125 a 3.50035,3.50035 0 1 0 6.96875,-0.5625 l -1.46875,-18.84375 1.75,-0.625 a 3.50035,3.50035 0 1 0 -2.3125,-6.59375 l -0.875,-11.28125 a 3.50035,3.50035 0 0 0 -3.84375,-3.25 z"
       style="font-size:medium;font-style:normal;font-variant:normal;font-weight:normal;font-stretch:normal;text-indent:0;text-align:start;text-decoration:none;line-height:normal;letter-spacing:normal;word-spacing:normal;text-transform:none;direction:ltr;block-progression:tb;writing-mode:lr-tb;text-anchor:start;baseline-shift:baseline;color:#000000;fill:#000000;fill-opacity:1;fill-rule:nonzero;stroke:none;stroke-width:1;marker:none;visibility:visible;display:inline;overflow:visible;enable-background:accumulate;font-family:Sans;-inkscape-font-specification:Sans" />
    <path
       style="font-size:medium;font-style:normal;font-variant:normal;font-weight:normal;font-stretch:normal;text-indent:0;text-align:start;text-decoration:none;line-height:normal;letter-spacing:normal;word-spacing:normal;text-transform:none;direction:ltr;block-progression:tb;writing-mode:lr-tb;text-anchor:start;baseline-shift:baseline;color:#000000;fill:#000000;fill-opacity:1;fill-rule:nonzero;stroke:none;stroke-width:1;marker:none;visibility:visible;display:inline;overflow:visible;enable-background:accumulate;font-family:Sans;-inkscape-font-specification:Sans"
       d="m 309.90625,250.25 a 3.50035,3.50035 0 0 0 -3.125,2.5625 l -5.90625,21.15625 -6.65625,2.09375 a 3.5084997,3.5084997 0 1 0 2.125,6.6875 l 2.28125,-0.71875 -2.34375,8.40625 a 3.5027891,3.5027891 0 1 0 6.75,1.875 l 3.5625,-12.78125 12.59375,-3.96875 9.5625,15.875 a 3.5050187,3.5050187 0 1 0 6,-3.625 l -8.6875,-14.40625 1.78125,-0.5625 a 3.5084997,3.5084997 0 1 0 -2.125,-6.6875 l -3.375,1.0625 -9.1875,-15.28125 a 3.50035,3.50035 0 0 0 -3.25,-1.6875 z m 1.4375,12.28125 4.125,6.84375 -6.625,2.09375 2.5,-8.9375 z"
       id="path3845"
       inkscape:connector-curvature="0" />
    <path
       style="font-size:medium;font-style:normal;font-variant:normal;font-weight:normal;font-stretch:normal;text-indent:0;text-align:start;text-decoration:none;line-height:normal;letter-spacing:normal;word-spacing:normal;text-transform:none;direction:ltr;block-progression:tb;writing-mode:lr-tb;text-anchor:start;baseline-shift:baseline;color:#000000;fill:#000000;fill-opacity:1;fill-rule:nonzero;stroke:none;stroke-width:1;marker:none;visibility:visible;display:inline;overflow:visible;enable-background:accumulate;font-family:Sans;-inkscape-font-specification:Sans"
       d="m 373.625,250.5 a 3.50035,3.50035 0 0 0 -3.375,3.28125 l -2.125,27.3125 L 346.5,258.0625 a 3.50035,3.50035 0 0 0 -6.0625,2.3125 l -0.6875,33.5625 a 3.500558,3.500558 0 1 0 7,0.125 l 0.5,-24.96875 21.1875,22.5625 a 3.50035,3.50035 0 0 0 6.03125,-2.125 l 2.75,-35.21875 A 3.50035,3.50035 0 0 0 373.625,250.5 z"
       id="path3847"
       inkscape:connector-curvature="0" />
    <path
       style="font-size:medium;font-style:normal;font-variant:normal;font-weight:normal;font-stretch:normal;text-indent:0;text-align:start;text-decoration:none;line-height:normal;letter-spacing:normal;word-spacing:normal;text-transform:none;direction:ltr;block-progression:tb;writing-mode:lr-tb;text-anchor:start;baseline-shift:baseline;color:#000000;fill:#000000;fill-opacity:1;fill-rule:nonzero;stroke:none;stroke-width:1;marker:none;visibility:visible;display:inline;overflow:visible;enable-background:accumulate;font-family:Sans;-inkscape-font-specification:Sans"
       d="M 417.3125,251.65625 A 3.50035,3.50035 0 0 0 414,255.34375 l 0.96875,25.8125 -23.75,-20.71875 a 3.50035,3.50035 0 0 0 -5.8125,2.78125 l 1.15625,27.4375 a 3.503486,3.503486 0 1 0 7,-0.3125 l -0.8125,-19.25 23.75,20.6875 A 3.50035,3.50035 0 0 0 422.28125,289 l -1.3125,-33.9375 a 3.50035,3.50035 0 0 0 -3.65625,-3.40625 z"
       id="path3849"
       inkscape:connector-curvature="0" />
    <path
       style="font-size:medium;font-style:normal;font-variant:normal;font-weight:normal;font-stretch:normal;text-indent:0;text-align:start;text-decoration:none;line-height:normal;letter-spacing:normal;word-spacing:normal;text-transform:none;direction:ltr;block-progression:tb;writing-mode:lr-tb;text-anchor:start;baseline-shift:baseline;color:#000000;fill:#000000;fill-opacity:1;fill-rule:nonzero;stroke:none;stroke-width:1;marker:none;visibility:visible;display:inline;overflow:visible;enable-background:accumulate;font-family:Sans;-inkscape-font-specification:Sans"
       d="m 459.46875,252.5 a 3.50035,3.50035 0 0 0 -1.28125,0.25 c -2.21623,0.81464 -6.6462,1.3861 -11.5,1.75 -4.8538,0.3639 -10.20562,0.58931 -14.9375,1.125 a 3.50035,3.50035 0 0 0 -3.0625,3.90625 c 1.19966,10.28301 2.39407,20.56077 3.59375,30.84375 a 3.50035,3.50035 0 0 0 3.96875,3.0625 l 27,-3.875 a 3.50035,3.50035 0 1 0 -1,-6.90625 L 438.8125,286 c -0.42785,-3.66727 -0.8534,-7.33274 -1.28125,-11 l 18.75,0.21875 a 3.50035,3.50035 0 1 0 0.0937,-7 l -19.65625,-0.25 c -0.21893,-1.87654 -0.46857,-3.74845 -0.6875,-5.625 3.60729,-0.29729 7.36605,-0.55725 11.1875,-0.84375 5.01663,-0.3761 9.65647,-0.82064 13.375,-2.1875 a 3.50035,3.50035 0 0 0 -1.125,-6.8125 z"
       id="path3851"
       inkscape:connector-curvature="0" />
    <path
       style="font-size:medium;font-style:normal;font-variant:normal;font-weight:normal;font-stretch:normal;text-indent:0;text-align:start;text-decoration:none;line-height:normal;letter-spacing:normal;word-spacing:normal;text-transform:none;direction:ltr;block-progression:tb;writing-mode:lr-tb;text-anchor:start;baseline-shift:baseline;color:#000000;fill:#000000;fill-opacity:1;fill-rule:nonzero;stroke:none;stroke-width:1;marker:none;visibility:visible;display:inline;overflow:visible;enable-background:accumulate;font-family:Sans;-inkscape-font-specification:Sans"
       d="m 476.75,250.6875 a 3.50035,3.50035 0 0 0 -3.28125,3.71875 l 1.71875,37 a 3.50035,3.50035 0 0 0 4.4375,3.21875 c 11.13226,-3.09718 23.40867,-4.04235 34.21875,-2.65625 a 3.50035,3.50035 0 1 0 0.875,-6.9375 C 504.23076,283.68645 492.83992,284.45148 482,286.9375 l -1.53125,-32.875 a 3.50035,3.50035 0 0 0 -3.71875,-3.375 z"
       id="path3853"
       inkscape:connector-curvature="0" />
  </g>
  <g
     style="fill:#ffffff"
     id="g3887">
    <path
       style="fill:#ffffff"
       id="path3889"
       transform="matrix(0.2527003,0.0,0.0,-0.2527003,49.060055,239.88715)"
       fill="rgb(255,255,255)"
       fill-opacity="1.0"
       stroke-width="168.84616"
       stroke-linecap="round"
       stroke-linejoin="bevel"
       stroke-miterlimit="2.5"
       stroke="rgb(0,0,0)"
       stroke-opacity="0.0"
       d="       M -43.0 613.0 Q -39.0 617.0 -39.0 621.0 Q -39.0 626.0 -44.0 629.0 Q -46.0 630.0 -52.0 631.0        T -64.0 633.0 T -76.0 637.0 T -82.0 642.0 Q -82.0 649.0 -59.0 654.0 Q -39.0 659.0 -18.0 661.0        T 23.0 663.0 Q 122.0 663.0 208.0 646.0 T 384.0 595.0 Q 426.0 579.0 471.0 557.0 T 560.0 508.0        T 643.0 449.0 T 712.0 381.0 T 759.0 304.0 T 777.0 219.0 Q 777.0 174.0 760.0 143.0        T 714.0 89.0 T 649.0 54.0 T 576.0 34.0 T 502.0 24.0 T 439.0 22.0 Q 420.0 22.0 394.0 25.0        T 343.0 44.0 L 342.0 260.0 Q 348.0 262.0 353.0 263.0 T 368.0 264.0 Q 398.0 264.0 431.0 259.0        T 493.0 247.0 T 545.0 230.0 T 575.0 212.0 Q 570.0 202.0 557.0 191.0 T 532.0 167.0        Q 540.0 161.0 553.0 158.0 T 576.0 154.0 Q 589.0 154.0 601.0 161.0 T 623.0 179.0 T 639.0 202.0        T 645.0 223.0 Q 645.0 248.0 629.0 267.0 T 587.0 299.0 T 529.0 320.0 T 466.0 333.0        T 406.0 340.0 T 361.0 342.0 L 347.0 342.0 Q 345.0 359.0 344.0 374.0 T 342.0 405.0        Q 341.0 422.0 339.0 437.0 T 333.0 464.0 T 320.0 489.0 T 298.0 512.0 Q 289.0 504.0 283.0 484.0        T 273.0 440.0 T 267.0 398.0 T 264.0 375.0 L 262.0 334.0 Q 188.0 321.0 140.0 305.0        T 57.0 263.0 Q 24.0 240.0 24.0 217.0 Q 24.0 194.0 40.0 171.0 T 73.0 130.0 Q 93.0 107.0 137.0 74.0        T 250.0 1.0 Q 255.0 -22.0 260.0 -42.0 T 276.0 -77.0 L 299.0 -79.0 Q 309.0 -79.0 317.0 -78.0        T 334.0 -75.0 Q 339.0 -58.0 341.0 -50.0 T 346.0 -33.0 Q 380.0 -38.0 418.0 -43.0 T 492.0 -48.0        Q 560.0 -48.0 627.0 -32.0 T 749.0 18.0 T 836.0 102.0 T 870.0 221.0 Q 870.0 272.0 847.0 321.0        T 786.0 414.0 T 700.0 498.0 T 602.0 568.0 T 504.0 623.0 T 419.0 661.0 Q 345.0 687.0 265.0 705.0        T 116.0 724.0 Q 99.0 724.0 75.0 724.0 T 26.0 720.0 T -25.0 711.0 T -70.0 694.0 T -102.0 667.0        T -115.0 628.0 Q -115.0 618.0 -100.0 615.0 T -67.0 612.0 Q -59.0 612.0 -53.0 612.0        T -43.0 613.0 Z M 258.0 261.0 L 249.0 67.0 Q 214.0 75.0 181.0 91.0 T 123.0 127.0        Q 112.0 135.0 100.0 145.0 T 76.0 165.0 T 57.0 187.0 T 49.0 208.0 Q 49.0 221.0 68.0 229.0        T 116.0 244.0 T 180.0 253.0 T 247.0 261.0 L 258.0 261.0 Z        " />
    <path
       style="fill:#ffffff"
       id="path3891"
       transform="matrix(0.25216305,0.0,0.0,-0.25216305,46.9826,239.45169)"
       fill="rgb(255,255,255)"
       fill-opacity="1.0"
       stroke-width="19.470684"
       stroke-linecap="round"
       stroke-linejoin="bevel"
       stroke-miterlimit="2.5"
       stroke="rgb(0,0,0)"
       stroke-opacity="0.0"
       d="       M 946.0 340.0 C 942.6667 340.0 940.6667 337.66666 940.0 333.0 C 933.3333 282.33334 929.0 243.33333 927.0 216.0        C 925.0 188.66667 923.6667 171.0 923.0 163.0 C 922.3333 149.66667 922.0 139.33334 922.0 132.0        C 922.0 124.666664 921.6667 117.333336 921.0 110.0 C 920.3333 102.666664 920.0 95.333336 920.0 88.0        C 920.0 80.666664 920.0 70.666664 920.0 58.0 C 920.0 55.333332 920.3333 51.333332 921.0 46.0        C 921.6667 40.666668 923.0 35.333336 925.0 30.0 C 927.0 24.666666 929.0 19.333334 931.0 14.0        C 933.0 8.666666 936.0 5.6666665 940.0 5.0 C 944.0 3.6666665 948.6667 2.3333335 954.0 1.0        C 959.3333 -0.33333337 964.0 -1.0 968.0 -1.0 C 980.6667 -1.0 989.0 2.666666 993.0 10.0        C 997.0 17.333334 999.0 25.333332 999.0 34.0 C 999.0 74.0 997.6667 114.66667 995.0 156.0        C 992.3333 197.33333 990.3333 238.66667 989.0 280.0 C 987.6667 299.33334 984.6667 314.0 980.0 324.0        C 975.3333 334.0 964.0 339.33334 946.0 340.0        " />
    <path
       style="fill:#ffffff"
       id="path3893"
       fill="rgb(255,255,255)"
       fill-opacity="1.0"
       stroke-width="2.5"
       stroke-linecap="round"
       stroke-linejoin="bevel"
       stroke-miterlimit="2.5"
       stroke="rgb(0,0,0)"
       stroke-opacity="0.0"
       d="       M 321.82092 113.46228 C 314.10907 133.94154 283.87027 142.14827 269.42136 134.32083        C 254.97244 126.49339 255.4117 105.17338 277.2969 92.87972 C 259.518 82.60645 269.89755 60.976624 284.47144 61.421818        C 299.04532 61.867012 308.37756 72.89942 301.8399 88.496155 C 305.87244 88.51791 309.4045 90.21829 312.56744 94.881615        C 317.0345 73.8614 339.07993 73.76576 347.04895 86.96365 C 355.01797 100.161545 347.04834 122.32742 321.82092 113.46228        M 281.38116 124.843285 C 281.38116 125.09977 281.57355 125.420364 281.95825 125.80509        C 282.34296 126.18982 282.66357 126.38218 282.92004 126.38218 C 282.92004 126.38218 287.15198 126.38218 287.15198 126.38218        C 289.71683 126.125694 292.60223 125.67685 295.8083 125.035645 C 299.01434 124.39444 302.2204 123.24027 305.4264 121.573135        C 308.6324 119.906 311.2614 117.98238 313.31323 115.80228 C 315.36505 113.62217 316.391 111.05735 316.391 108.1078        C 316.391 106.69716 316.1986 105.54299 315.8139 104.645294 C 315.4292 103.7476 313.9544 103.29876 311.3896 103.29876        C 308.44003 103.427 305.68286 104.0682 303.11804 105.222374 C 300.55322 106.37655 297.92426 107.97956 295.2312 110.031425        C 292.53815 112.08329 290.03738 114.39163 287.72906 116.95645 C 285.42075 119.52127 283.30475 122.15022 281.38116 124.843285        M 269.83942 117.91826 C 270.09592 118.17474 270.35242 118.302986 270.6089 118.302986        C 270.9936 118.302986 271.3142 118.17474 271.57068 117.91826 C 272.46838 117.14881 273.43018 116.05877 274.45612 114.64811        C 275.48206 113.23745 276.76443 111.82679 278.30334 110.416145 C 279.84225 109.0055 281.31702 107.59484 282.72766 106.18419        C 284.1383 104.77354 285.42075 103.55524 286.57492 102.52931 C 286.57492 102.52931 286.57492 102.33695 286.57492 102.33695        C 286.57492 101.952225 286.44666 101.63162 286.1902 101.37514 C 281.31702 102.52931 277.46985 104.645294 274.6485 107.72308        C 271.82715 110.80087 270.22415 114.199265 269.83942 117.91826        " />
    <path
       style="fill:#ffffff"
       id="path3895"
       transform="matrix(0.25216305,0.0,0.0,-0.25216305,38.9826,239.45169)"
       fill="rgb(255,255,255)"
       fill-opacity="1.0"
       stroke-width="19.470684"
       stroke-linecap="round"
       stroke-linejoin="bevel"
       stroke-miterlimit="2.5"
       stroke="rgb(0,0,0)"
       stroke-opacity="0.0"
       d="       M 1114.0 252.0 C 1119.3334 255.33333 1126.0 258.0 1134.0 260.0 C 1142.0 262.0 1154.3334 264.33334 1171.0 267.0        C 1179.0 268.33334 1190.6666 269.66666 1206.0 271.0 C 1221.3334 272.33334 1237.3334 273.66666 1254.0 275.0        C 1270.6666 276.33334 1287.3334 277.33334 1304.0 278.0 C 1320.6666 278.66666 1333.0 280.0 1341.0 282.0        C 1345.0 282.66666 1350.3334 283.33334 1357.0 284.0 C 1363.6666 284.66666 1369.3334 286.0 1374.0 288.0        C 1379.3334 290.0 1384.0 292.66666 1388.0 296.0 C 1392.0 299.33334 1394.6666 304.33334 1396.0 311.0        C 1396.0 316.33334 1395.0 320.0 1393.0 322.0 C 1391.0 324.0 1388.3334 325.33334 1385.0 326.0        C 1368.3334 330.0 1349.3334 333.66666 1328.0 337.0 C 1306.6666 340.33334 1283.0 342.33334 1257.0 343.0        C 1255.6666 343.0 1250.0 342.66666 1240.0 342.0 C 1230.0 341.33334 1217.3334 340.0 1202.0 338.0        C 1186.6666 336.0 1170.6666 332.66666 1154.0 328.0 C 1137.3334 323.33334 1122.0 317.33334 1108.0 310.0        C 1094.0 302.66666 1082.0 293.33334 1072.0 282.0 C 1062.0 270.66666 1057.3334 257.33334 1058.0 242.0        C 1058.0 231.33333 1059.3334 222.66667 1062.0 216.0 C 1064.6666 209.33333 1070.3334 203.66667 1079.0 199.0        C 1087.6666 194.33333 1101.0 191.0 1119.0 189.0 C 1137.0 187.0 1160.0 185.66667 1188.0 185.0        C 1198.6666 185.0 1212.3334 184.0 1229.0 182.0 C 1245.6666 180.0 1262.0 176.66667 1278.0 172.0        C 1294.0 167.33333 1307.6666 162.33333 1319.0 157.0 C 1330.3334 151.66667 1336.0 144.0 1336.0 134.0        C 1336.0 124.666664 1328.6666 116.666664 1314.0 110.0 C 1299.3334 103.333336 1283.0 98.0 1265.0 94.0        C 1247.0 90.0 1229.3334 86.666664 1212.0 84.0 C 1194.6666 81.333336 1183.6666 80.333336 1179.0 81.0        C 1169.6666 81.0 1160.3334 81.0 1151.0 81.0 C 1141.6666 81.0 1133.0 82.0 1125.0 84.0        C 1117.0 86.0 1110.6666 88.333336 1106.0 91.0 C 1101.3334 93.666664 1098.6666 98.666664 1098.0 106.0        C 1098.0 117.333336 1101.3334 124.33333 1108.0 127.0 C 1114.6666 129.66667 1121.6666 131.0 1129.0 131.0        C 1139.0 131.0 1148.6666 129.66666 1158.0 127.0 C 1167.3334 124.333336 1177.0 121.666664 1187.0 119.0        C 1197.0 116.333336 1205.6666 113.666664 1213.0 111.0 C 1220.3334 108.333336 1228.3334 107.0 1237.0 107.0        C 1249.6666 107.0 1261.3334 109.333336 1272.0 114.0 C 1282.6666 118.666664 1290.0 123.0 1294.0 127.0        C 1295.3334 128.33333 1296.0 130.33333 1296.0 133.0 C 1296.0 134.33333 1295.3334 135.66667 1294.0 137.0        C 1273.3334 147.66667 1251.6666 155.33333 1229.0 160.0 C 1206.3334 164.66667 1185.0 167.33333 1165.0 168.0        C 1155.0 168.0 1144.6666 167.0 1134.0 165.0 C 1123.3334 163.0 1113.6666 159.66667 1105.0 155.0        C 1096.3334 150.33333 1089.0 144.0 1083.0 136.0 C 1077.0 128.0 1074.0 118.0 1074.0 106.0        C 1074.0 96.0 1078.3334 85.33333 1087.0 74.0 C 1095.6666 62.666668 1107.3334 52.333332 1122.0 43.0        C 1136.6666 33.666668 1153.6666 26.0 1173.0 20.0 C 1192.3334 14.0 1212.6666 11.0 1234.0 11.0        C 1242.0 11.0 1254.3334 11.666667 1271.0 13.0 C 1287.6666 14.333333 1304.3334 19.0 1321.0 27.0        C 1337.6666 35.0 1352.6666 46.333336 1366.0 61.0 C 1379.3334 75.666664 1386.0 97.0 1386.0 125.0        C 1386.0 148.33333 1380.3334 166.33333 1369.0 179.0 C 1357.6666 191.66667 1343.6666 201.33333 1327.0 208.0        C 1310.3334 214.66667 1292.0 218.66667 1272.0 220.0 C 1252.0 221.33333 1233.6666 223.0 1217.0 225.0        C 1197.0 226.33333 1179.6666 228.33333 1165.0 231.0 C 1150.3334 233.66667 1133.3334 238.66667 1114.0 246.0        C 1112.6666 246.0 1112.0 246.66667 1112.0 248.0 C 1112.0 249.33333 1112.6666 250.66667 1114.0 252.0        " />
    <path
       style="fill:#ffffff"
       id="path3897"
       transform="matrix(0.25216305,0.0,0.0,-0.25216305,38.9826,239.45169)"
       fill="rgb(255,255,255)"
       fill-opacity="1.0"
       stroke-width="19.470684"
       stroke-linecap="round"
       stroke-linejoin="bevel"
       stroke-miterlimit="2.5"
       stroke="rgb(0,0,0)"
       stroke-opacity="0.0"
       d="       M 1599.0 369.0 C 1599.0 369.0 1602.0 357.0 1602.0 357.0 C 1608.0 333.66666 1613.6666 313.66666 1619.0 297.0        C 1624.3334 280.33334 1629.0 264.6667 1633.0 250.0 C 1637.0 235.33333 1640.0 219.66667 1642.0 203.0        C 1644.0 186.33333 1645.3334 166.66667 1646.0 144.0 C 1646.0 135.33333 1646.0 129.0 1646.0 125.0        C 1646.0 121.0 1644.0 118.666664 1640.0 118.0 C 1640.6666 118.0 1638.3334 120.666664 1633.0 126.0        C 1619.6666 142.66667 1606.3334 162.0 1593.0 184.0 C 1579.6666 206.0 1566.3334 226.66666 1553.0 246.0        C 1539.6666 265.33334 1528.0 282.0 1518.0 296.0 C 1508.0 310.0 1498.6666 317.0 1490.0 317.0        C 1482.6666 317.0 1476.0 312.33334 1470.0 303.0 C 1464.0 293.66666 1458.3334 281.6667 1453.0 267.0        C 1447.6666 252.33333 1443.0 236.33333 1439.0 219.0 C 1435.0 201.66667 1431.6666 184.0 1429.0 166.0        C 1426.3334 148.0 1424.3334 131.66666 1423.0 117.0 C 1421.6666 102.333336 1421.0 90.333336 1421.0 81.0        C 1421.0 75.0 1421.3334 67.66667 1422.0 59.0 C 1422.6666 50.333332 1424.6666 41.666668 1428.0 33.0        C 1431.3334 24.333332 1435.3334 17.0 1440.0 11.0 C 1444.6666 5.0 1451.3334 2.0 1460.0 2.0        C 1465.3334 2.0 1469.6666 3.666667 1473.0 7.0 C 1476.3334 10.333333 1479.3334 14.666666 1482.0 20.0        C 1484.6666 25.333334 1486.3334 30.666668 1487.0 36.0 C 1487.6666 41.333332 1488.6666 45.666668 1490.0 49.0        C 1491.3334 57.0 1492.3334 68.333336 1493.0 83.0 C 1493.6666 97.666664 1494.6666 113.33333 1496.0 130.0        C 1497.3334 146.66667 1498.0 161.0 1498.0 173.0 C 1498.0 185.0 1498.6666 193.0 1500.0 197.0        C 1502.0 204.33333 1504.3334 208.0 1507.0 208.0 C 1509.0 208.0 1512.3334 203.33333 1517.0 194.0        C 1521.6666 184.66667 1527.6666 173.33333 1535.0 160.0 C 1542.3334 146.66667 1549.6666 131.66666 1557.0 115.0        C 1564.3334 98.333336 1572.6666 83.66667 1582.0 71.0 C 1591.3334 58.333332 1601.0 46.666668 1611.0 36.0        C 1621.0 25.333332 1630.6666 20.666666 1640.0 22.0 C 1652.0 22.0 1662.6666 26.0 1672.0 34.0        C 1681.3334 42.0 1689.6666 52.666664 1697.0 66.0 C 1704.3334 79.333336 1709.3334 93.666664 1712.0 109.0        C 1714.6666 124.333336 1716.3334 140.0 1717.0 156.0 C 1717.0 190.66667 1712.6666 222.66666 1704.0 252.0        C 1695.3334 281.33334 1685.3334 306.33334 1674.0 327.0 C 1662.6666 347.66666 1650.6666 364.0 1638.0 376.0        C 1625.3334 388.0 1615.6666 394.0 1609.0 394.0 C 1604.3334 394.0 1601.6666 391.66666 1601.0 387.0        C 1600.3334 382.33334 1599.6666 377.66666 1599.0 373.0 C 1599.0 373.0 1599.0 369.0 1599.0 369.0        " />
    <path
       style="fill:#ffffff"
       id="path3899"
       transform="matrix(0.25216305,0.0,0.0,-0.25216305,33.9826,239.45169)"
       fill="rgb(255,255,255)"
       fill-opacity="1.0"
       stroke-width="19.470684"
       stroke-linecap="round"
       stroke-linejoin="bevel"
       stroke-miterlimit="2.5"
       stroke="rgb(0,0,0)"
       stroke-opacity="0.0"
       d="       M 1987.0 64.0 C 1987.0 70.666664 1984.3334 77.333336 1979.0 84.0 C 1973.6666 90.666664 1968.0 94.0 1962.0 94.0        C 1956.6666 94.0 1951.3334 94.0 1946.0 94.0 C 1940.6666 94.0 1935.0 93.333336 1929.0 92.0        C 1897.0 88.666664 1872.0 85.333336 1854.0 82.0 C 1836.0 78.666664 1825.3334 76.666664 1822.0 76.0        C 1827.3334 87.333336 1832.0 98.666664 1836.0 110.0 C 1840.0 121.333336 1843.3334 132.33333 1846.0 143.0        C 1847.3334 145.66667 1849.3334 147.0 1852.0 147.0 C 1877.3334 147.0 1900.0 147.33333 1920.0 148.0        C 1940.0 148.66667 1955.0 149.33333 1965.0 150.0 C 1969.6666 150.66667 1972.6666 153.66667 1974.0 159.0        C 1975.3334 164.33333 1976.0 169.33333 1976.0 174.0 C 1976.0 178.66667 1975.6666 183.66667 1975.0 189.0        C 1974.3334 194.33333 1972.6666 199.0 1970.0 203.0 C 1970.0 203.0 1956.0 205.0 1956.0 205.0        C 1956.0 205.0 1882.0 205.0 1882.0 205.0 C 1878.6666 205.0 1876.3334 206.0 1875.0 208.0        C 1873.6666 210.0 1873.0 212.33333 1873.0 215.0 C 1873.0 227.66667 1874.3334 237.33333 1877.0 244.0        C 1879.6666 250.66667 1882.3334 255.0 1885.0 257.0 C 1888.3334 257.66666 1893.3334 258.0 1900.0 258.0        C 1906.6666 258.0 1912.6666 258.0 1918.0 258.0 C 1923.3334 258.0 1928.6666 258.33334 1934.0 259.0        C 1939.3334 259.0 1945.6666 259.0 1953.0 259.0 C 1960.3334 259.0 1969.3334 259.66666 1980.0 261.0        C 1984.6666 261.0 1990.0 261.66666 1996.0 263.0 C 2002.0 264.33334 2008.0 266.33334 2014.0 269.0        C 2020.0 271.66666 2024.6666 273.66666 2028.0 275.0 C 2031.3334 276.33334 2033.3334 279.0 2034.0 283.0        C 2034.0 291.66666 2030.0 300.66666 2022.0 310.0 C 2014.0 319.33334 2007.3334 326.66666 2002.0 332.0        C 1991.3334 335.33334 1983.0 337.33334 1977.0 338.0 C 1971.0 338.66666 1965.6666 339.0 1961.0 339.0        C 1940.3334 339.0 1921.6666 338.0 1905.0 336.0 C 1888.3334 334.0 1873.3334 332.0 1860.0 330.0        C 1846.6666 328.0 1834.0 325.66666 1822.0 323.0 C 1810.0 320.33334 1798.6666 319.0 1788.0 319.0        C 1779.3334 318.33334 1773.0 317.0 1769.0 315.0 C 1765.0 313.0 1762.6666 309.33334 1762.0 304.0        C 1762.0 298.66666 1763.6666 294.0 1767.0 290.0 C 1770.3334 286.0 1775.0 282.0 1781.0 278.0        C 1787.0 274.0 1793.3334 270.66666 1800.0 268.0 C 1806.6666 265.33334 1813.0 262.33334 1819.0 259.0        C 1819.0 259.0 1795.0 204.0 1795.0 204.0 C 1790.3334 203.33333 1786.0 202.33333 1782.0 201.0        C 1778.0 199.66667 1773.6666 198.0 1769.0 196.0 C 1767.6666 192.0 1766.6666 188.66667 1766.0 186.0        C 1765.3334 183.33333 1764.6666 180.0 1764.0 176.0 C 1764.0 170.66667 1765.0 166.33333 1767.0 163.0        C 1769.0 159.66667 1770.6666 155.33333 1772.0 150.0 C 1766.6666 134.66667 1761.3334 119.666664 1756.0 105.0        C 1750.6666 90.333336 1747.6666 77.0 1747.0 65.0 C 1747.0 43.666664 1753.3334 24.333334 1766.0 7.0        C 1778.6666 -10.333334 1799.0 -19.0 1827.0 -19.0 C 1843.6666 -19.0 1859.6666 -16.666666 1875.0 -12.0        C 1890.3334 -7.3333335 1904.6666 -1.0 1918.0 7.0 C 1931.3334 15.0 1943.6666 22.333332 1955.0 29.0        C 1966.3334 35.666668 1975.0 42.333332 1981.0 49.0 C 1985.0 51.666668 1987.0 56.666668 1987.0 64.0        " />
    <path
       style="fill:#ffffff"
       id="path3901"
       transform="matrix(0.25203413,0.0,0.0,-0.25203413,541.4215,239.49855)"
       fill="rgb(255,255,255)"
       fill-opacity="1.0"
       stroke-width="145.83334"
       stroke-linecap="round"
       stroke-linejoin="bevel"
       stroke-miterlimit="2.5"
       stroke="rgb(0,0,0)"
       stroke-opacity="0.0"
       d="       M 33.0 -284.0 Q 43.0 -244.0 50.0 -213.0 T 64.0 -151.0 T 81.0 -89.0 T 106.0 -13.0        Q 112.0 -12.0 117.0 -12.0 T 128.0 -11.0 Q 153.0 -11.0 190.0 4.0 T 261.0 46.0 T 319.0 110.0        T 343.0 191.0 Q 343.0 206.0 340.0 227.0 T 330.0 267.0 T 310.0 301.0 T 278.0 315.0        Q 259.0 315.0 233.0 295.0 T 178.0 247.0 T 124.0 187.0 T 80.0 131.0 Q 77.0 127.0 76.0 127.0        L 74.0 127.0 Q 72.0 129.0 72.0 132.0 T 71.0 139.0 Q 71.0 166.0 84.0 194.0 T 110.0 241.0        Q 133.0 276.0 143.0 291.0 T 153.0 321.0 Q 153.0 335.0 151.0 341.0 T 137.0 349.0 Q 129.0 348.0 110.0 327.0        T 70.0 274.0 T 33.0 201.0 T 17.0 122.0 Q 17.0 104.0 22.0 86.0 T 35.0 49.0 Q 14.0 -1.0 0.0 -45.0        T -22.0 -124.0 T -33.0 -182.0 T -37.0 -212.0 Q -37.0 -244.0 -19.0 -266.0 T 30.0 -292.0        L 33.0 -284.0 Z M 156.0 75.0 Q 159.0 81.0 166.0 96.0 T 183.0 129.0 T 201.0 162.0        T 214.0 183.0 Q 220.0 190.0 229.0 201.0 T 248.0 222.0 T 268.0 239.0 T 284.0 247.0        Q 294.0 247.0 295.0 237.0 T 297.0 219.0 Q 297.0 158.0 254.0 121.0 Q 208.0 81.0 156.0 75.0        Z        " />
    <path
       style="font-size:medium;font-style:normal;font-variant:normal;font-weight:normal;font-stretch:normal;text-indent:0;text-align:start;text-decoration:none;line-height:normal;letter-spacing:normal;word-spacing:normal;text-transform:none;direction:ltr;block-progression:tb;writing-mode:lr-tb;text-anchor:start;baseline-shift:baseline;color:#000000;fill:#ffffff;fill-opacity:1;fill-rule:nonzero;stroke:none;stroke-width:1;marker:none;visibility:visible;display:inline;overflow:visible;enable-background:accumulate;font-family:Sans;-inkscape-font-specification:Sans;stroke-miterlimit:5;stroke-dasharray:none"
       d="m 228.65625,250.96875 c -0.76313,0.0856 -1.46613,0.32763 -2.28125,0.53125 -1.63024,0.40725 -3.46238,1.04652 -5.5,1.875 -4.07524,1.65695 -8.89059,4.06428 -13.4375,6.9375 -4.54691,2.87322 -8.81121,6.15159 -11.84375,9.8125 -1.51627,1.83045 -2.74368,3.78241 -3.40625,5.96875 -0.66257,2.18634 -0.68437,4.716 0.34375,6.96875 1.83425,4.01909 5.6659,6.33356 9.78125,7.46875 4.11535,1.13519 8.78522,1.3146 13.65625,1.125 9.74207,-0.3792 20.4173,-2.33416 27.625,-2.9375 a 3.5125681,3.5125681 0 1 0 -0.59375,-7 c -7.85895,0.65786 -18.33487,2.58805 -27.3125,2.9375 -4.48882,0.17472 -8.59148,-0.0641 -11.53125,-0.875 -2.93977,-0.81091 -4.47918,-1.93603 -5.25,-3.625 -0.27441,-0.60128 -0.31154,-1.10634 -0.0312,-2.03125 0.28029,-0.92491 0.97596,-2.18184 2.09375,-3.53125 2.23559,-2.69882 6.05784,-5.71445 10.21875,-8.34375 4.16091,-2.6293 8.67372,-4.92676 12.3125,-6.40625 1.81939,-0.73975 3.41545,-1.27596 4.5625,-1.5625 1.14705,-0.28654 2.08238,-0.0245 1.09375,-0.34375 1.95461,0.63124 2.3896,1.09395 2.53125,1.28125 0.14165,0.1873 0.32324,0.74776 0.65625,2.28125 a 3.5031027,3.5031027 0 1 0 6.84375,-1.5 c -0.3266,-1.50398 -0.58536,-3.25344 -1.90625,-5 -1.32089,-1.74656 -3.3499,-2.87299 -5.96875,-3.71875 -1.066,-0.34426 -1.89312,-0.39815 -2.65625,-0.3125 z"
       id="path3903"
       inkscape:connector-curvature="0" />
    <path
       inkscape:connector-curvature="0"
       id="path3905"
       d="m 279.1875,249.625 a 3.50035,3.50035 0 0 0 -3.15625,3.8125 l 1.03125,13.09375 -13.65625,4.75 0.375,-13.65625 a 3.5012554,3.5012554 0 1 0 -7,-0.1875 l -0.4375,16.3125 -5.96875,2.0625 a 3.5084997,3.5084997 0 1 0 2.3125,6.625 l 3.4375,-1.1875 -0.21875,7.96875 a 3.5017086,3.5017086 0 1 0 7,0.21875 l 0.28125,-10.65625 14.4375,-5.03125 1.34375,17.03125 a 3.50035,3.50035 0 1 0 6.96875,-0.5625 l -1.46875,-18.84375 1.75,-0.625 a 3.50035,3.50035 0 1 0 -2.3125,-6.59375 l -0.875,-11.28125 a 3.50035,3.50035 0 0 0 -3.84375,-3.25 z"
       style="font-size:medium;font-style:normal;font-variant:normal;font-weight:normal;font-stretch:normal;text-indent:0;text-align:start;text-decoration:none;line-height:normal;letter-spacing:normal;word-spacing:normal;text-transform:none;direction:ltr;block-progression:tb;writing-mode:lr-tb;text-anchor:start;baseline-shift:baseline;color:#000000;fill:#ffffff;fill-opacity:1;fill-rule:nonzero;stroke:none;stroke-width:1;marker:none;visibility:visible;display:inline;overflow:visible;enable-background:accumulate;font-family:Sans;-inkscape-font-specification:Sans" />
    <path
       style="font-size:medium;font-style:normal;font-variant:normal;font-weight:normal;font-stretch:normal;text-indent:0;text-align:start;text-decoration:none;line-height:normal;letter-spacing:normal;word-spacing:normal;text-transform:none;direction:ltr;block-progression:tb;writing-mode:lr-tb;text-anchor:start;baseline-shift:baseline;color:#000000;fill:#ffffff;fill-opacity:1;fill-rule:nonzero;stroke:none;stroke-width:1;marker:none;visibility:visible;display:inline;overflow:visible;enable-background:accumulate;font-family:Sans;-inkscape-font-specification:Sans;stroke-miterlimit:5;stroke-dasharray:none"
       d="m 309.90625,250.25 a 3.50035,3.50035 0 0 0 -3.125,2.5625 l -5.90625,21.15625 -6.65625,2.09375 a 3.5084997,3.5084997 0 1 0 2.125,6.6875 l 2.28125,-0.71875 -2.34375,8.40625 a 3.5027891,3.5027891 0 1 0 6.75,1.875 l 3.5625,-12.78125 12.59375,-3.96875 9.5625,15.875 a 3.5050187,3.5050187 0 1 0 6,-3.625 l -8.6875,-14.40625 1.78125,-0.5625 a 3.5084997,3.5084997 0 1 0 -2.125,-6.6875 l -3.375,1.0625 -9.1875,-15.28125 a 3.50035,3.50035 0 0 0 -3.25,-1.6875 z m 1.4375,12.28125 4.125,6.84375 -6.625,2.09375 2.5,-8.9375 z"
       id="path3907"
       inkscape:connector-curvature="0" />
    <path
       style="font-size:medium;font-style:normal;font-variant:normal;font-weight:normal;font-stretch:normal;text-indent:0;text-align:start;text-decoration:none;line-height:normal;letter-spacing:normal;word-spacing:normal;text-transform:none;direction:ltr;block-progression:tb;writing-mode:lr-tb;text-anchor:start;baseline-shift:baseline;color:#000000;fill:#ffffff;fill-opacity:1;fill-rule:nonzero;stroke:none;stroke-width:1;marker:none;visibility:visible;display:inline;overflow:visible;enable-background:accumulate;font-family:Sans;-inkscape-font-specification:Sans;stroke-miterlimit:5;stroke-dasharray:none"
       d="m 373.625,250.5 a 3.50035,3.50035 0 0 0 -3.375,3.28125 l -2.125,27.3125 L 346.5,258.0625 a 3.50035,3.50035 0 0 0 -6.0625,2.3125 l -0.6875,33.5625 a 3.500558,3.500558 0 1 0 7,0.125 l 0.5,-24.96875 21.1875,22.5625 a 3.50035,3.50035 0 0 0 6.03125,-2.125 l 2.75,-35.21875 A 3.50035,3.50035 0 0 0 373.625,250.5 z"
       id="path3909"
       inkscape:connector-curvature="0" />
    <path
       style="font-size:medium;font-style:normal;font-variant:normal;font-weight:normal;font-stretch:normal;text-indent:0;text-align:start;text-decoration:none;line-height:normal;letter-spacing:normal;word-spacing:normal;text-transform:none;direction:ltr;block-progression:tb;writing-mode:lr-tb;text-anchor:start;baseline-shift:baseline;color:#000000;fill:#ffffff;fill-opacity:1;fill-rule:nonzero;stroke:none;stroke-width:1;marker:none;visibility:visible;display:inline;overflow:visible;enable-background:accumulate;font-family:Sans;-inkscape-font-specification:Sans;stroke-miterlimit:5;stroke-dasharray:none"
       d="M 417.3125,251.65625 A 3.50035,3.50035 0 0 0 414,255.34375 l 0.96875,25.8125 -23.75,-20.71875 a 3.50035,3.50035 0 0 0 -5.8125,2.78125 l 1.15625,27.4375 a 3.503486,3.503486 0 1 0 7,-0.3125 l -0.8125,-19.25 23.75,20.6875 A 3.50035,3.50035 0 0 0 422.28125,289 l -1.3125,-33.9375 a 3.50035,3.50035 0 0 0 -3.65625,-3.40625 z"
       id="path3911"
       inkscape:connector-curvature="0" />
    <path
       style="font-size:medium;font-style:normal;font-variant:normal;font-weight:normal;font-stretch:normal;text-indent:0;text-align:start;text-decoration:none;line-height:normal;letter-spacing:normal;word-spacing:normal;text-transform:none;direction:ltr;block-progression:tb;writing-mode:lr-tb;text-anchor:start;baseline-shift:baseline;color:#000000;fill:#ffffff;fill-opacity:1;fill-rule:nonzero;stroke:none;stroke-width:1;marker:none;visibility:visible;display:inline;overflow:visible;enable-background:accumulate;font-family:Sans;-inkscape-font-specification:Sans;stroke-miterlimit:5;stroke-dasharray:none"
       d="m 459.46875,252.5 a 3.50035,3.50035 0 0 0 -1.28125,0.25 c -2.21623,0.81464 -6.6462,1.3861 -11.5,1.75 -4.8538,0.3639 -10.20562,0.58931 -14.9375,1.125 a 3.50035,3.50035 0 0 0 -3.0625,3.90625 c 1.19966,10.28301 2.39407,20.56077 3.59375,30.84375 a 3.50035,3.50035 0 0 0 3.96875,3.0625 l 27,-3.875 a 3.50035,3.50035 0 1 0 -1,-6.90625 L 438.8125,286 c -0.42785,-3.66727 -0.8534,-7.33274 -1.28125,-11 l 18.75,0.21875 a 3.50035,3.50035 0 1 0 0.0937,-7 l -19.65625,-0.25 c -0.21893,-1.87654 -0.46857,-3.74845 -0.6875,-5.625 3.60729,-0.29729 7.36605,-0.55725 11.1875,-0.84375 5.01663,-0.3761 9.65647,-0.82064 13.375,-2.1875 a 3.50035,3.50035 0 0 0 -1.125,-6.8125 z"
       id="path3913"
       inkscape:connector-curvature="0" />
    <path
       style="font-size:medium;font-style:normal;font-variant:normal;font-weight:normal;font-stretch:normal;text-indent:0;text-align:start;text-decoration:none;line-height:normal;letter-spacing:normal;word-spacing:normal;text-transform:none;direction:ltr;block-progression:tb;writing-mode:lr-tb;text-anchor:start;baseline-shift:baseline;color:#000000;fill:#ffffff;fill-opacity:1;fill-rule:nonzero;stroke:none;stroke-width:1;marker:none;visibility:visible;display:inline;overflow:visible;enable-background:accumulate;font-family:Sans;-inkscape-font-specification:Sans;stroke-miterlimit:5;stroke-dasharray:none"
       d="m 476.75,250.6875 a 3.50035,3.50035 0 0 0 -3.28125,3.71875 l 1.71875,37 a 3.50035,3.50035 0 0 0 4.4375,3.21875 c 11.13226,-3.09718 23.40867,-4.04235 34.21875,-2.65625 a 3.50035,3.50035 0 1 0 0.875,-6.9375 C 504.23076,283.68645 492.83992,284.45148 482,286.9375 l -1.53125,-32.875 a 3.50035,3.50035 0 0 0 -3.71875,-3.375 z"
       id="path3915"
       inkscape:connector-curvature="0" />
  </g>
  <g
     id="g3871"
     style="fill:#f2f2f2"
     transform="translate(-2.8185328,2.1138996)"
     clip-path="url(#clipPath3947)">
    <path
       d="m -43,613 q 4,4 4,8 0,5 -5,8 -2,1 -8,2 -6,1 -12,2 -6,1 -12,4 -6,3 -6,5 0,7 23,12 20,5 41,7 21,2 41,2 99,0 185,-17 86,-17 176,-51 42,-16 87,-38 45,-22 89,-49 44,-27 83,-59 39,-32 69,-68 30,-36 47,-77 17,-41 18,-85 0,-45 -17,-76 Q 743,112 714,89 685,66 649,54 613,42 576,34 539,26 502,24 q -37,-2 -63,-2 -19,0 -45,3 -26,3 -51,19 l -1,216 q 6,2 11,3 5,1 15,1 30,0 63,-5 33,-5 62,-12 29,-7 52,-17 23,-10 30,-18 -5,-10 -18,-21 -13,-11 -25,-24 8,-6 21,-9 13,-3 23,-4 13,0 25,7 12,7 22,18 10,11 16,23 6,12 6,21 0,25 -16,44 -16,19 -42,32 -26,13 -58,21 -32,8 -63,13 -31,5 -60,7 -29,2 -45,2 l -14,0 q -2,17 -3,32 -1,15 -2,31 -1,17 -3,32 -2,15 -6,27 -4,12 -13,25 -9,13 -22,23 -9,-8 -15,-28 -6,-20 -10,-44 -4,-24 -6,-42 -2,-18 -3,-23 l -2,-41 Q 188,321 140,305 92,289 57,263 24,240 24,217 24,194 40,171 56,148 73,130 93,107 137,74 181,41 250,1 q 5,-23 10,-43 5,-20 16,-35 l 23,-2 q 10,0 18,1 8,1 17,3 5,17 7,25 2,8 5,17 34,-5 72,-10 38,-5 74,-5 68,0 135,16 67,16 122,50 55,34 87,84 32,50 34,119 0,51 -23,100 -23,49 -61,93 -38,44 -86,84 -48,40 -98,70 -50,30 -98,55 -48,25 -85,38 -74,26 -154,44 -80,18 -149,19 -17,0 -41,0 -24,0 -49,-4 -25,-4 -51,-9 -26,-5 -45,-17 -19,-12 -32,-27 -13,-15 -13,-39 0,-10 15,-13 15,-3 33,-3 8,0 14,0 6,0 10,1 z M 258,261 249,67 q -35,8 -68,24 -33,16 -58,36 -11,8 -23,18 -12,10 -24,20 -12,10 -19,22 -7,12 -8,21 0,13 19,21 19,8 48,15 29,7 64,9 35,2 67,8 l 11,0 z"
       stroke-miterlimit="2.5"
       transform="matrix(0.2527003,0,0,-0.2527003,49.060055,239.88715)"
       id="35"
       style="fill:#f2f2f2;fill-opacity:1;stroke:#000000;stroke-width:168.84616089;stroke-linecap:round;stroke-linejoin:bevel;stroke-miterlimit:2.5;stroke-opacity:0"
       inkscape:connector-curvature="0" />
    <path
       d="m 946,340 c -3.3333,0 -5.3333,-2.33334 -6,-7 -6.6667,-50.66666 -11,-89.66667 -13,-117 -2,-27.33333 -3.3333,-45 -4,-53 -0.6667,-13.33333 -1,-23.66666 -1,-31 0,-7.33334 -0.3333,-14.66666 -1,-22 -0.6667,-7.33334 -1,-14.666664 -1,-22 0,-7.333336 0,-17.333336 0,-30 0,-2.666668 0.3333,-6.666668 1,-12 0.6667,-5.333332 2,-10.666664 4,-16 2,-5.333334 4,-10.666666 6,-16 2,-5.333334 5,-8.3333335 9,-9 4,-1.3333335 8.6667,-2.6666665 14,-4 5.3333,-1.33333337 10,-2 14,-2 12.6667,0 21,3.666666 25,11 4,7.333334 6,15.333332 6,24 0,40 -1.3333,80.66667 -4,122 -2.6667,41.33333 -4.6667,82.66667 -6,124 -1.3333,19.33334 -4.3333,34 -9,44 -4.6667,10 -16,15.33334 -34,16"
       stroke-miterlimit="2.5"
       transform="matrix(0.25216305,0,0,-0.25216305,46.9826,239.45169)"
       id="13"
       style="fill:#f2f2f2;fill-opacity:1;stroke:#000000;stroke-width:19.47068405;stroke-linecap:round;stroke-linejoin:bevel;stroke-miterlimit:2.5;stroke-opacity:0"
       inkscape:connector-curvature="0" />
    <path
       d="m 321.82092,113.46228 c -7.71185,20.47926 -37.95065,28.68599 -52.39956,20.85855 -14.44892,-7.82744 -14.00966,-29.14745 7.87554,-41.44111 -17.7789,-10.27327 -7.39935,-31.903096 7.17454,-31.457902 14.57388,0.445194 23.90612,11.477602 17.36846,27.074337 4.03254,0.02175 7.5646,1.722135 10.72754,6.38546 4.46706,-21.020215 26.51249,-21.115855 34.48151,-7.917965 7.96902,13.1979 -6.1e-4,35.36377 -25.22803,26.49863 m -40.43976,11.381 c 0,0.25649 0.19239,0.57708 0.57709,0.96181 0.38471,0.38473 0.70532,0.57709 0.96179,0.57709 0,0 4.23194,0 4.23194,0 2.56485,-0.25649 5.45025,-0.70533 8.65632,-1.34653 3.20604,-0.64121 6.4121,-1.79538 9.6181,-3.46252 3.206,-1.66713 5.835,-3.59075 7.88683,-5.77085 2.05182,-2.18011 3.07777,-4.74493 3.07777,-7.69448 0,-1.41064 -0.1924,-2.56481 -0.5771,-3.46251 -0.3847,-0.89769 -1.8595,-1.34653 -4.4243,-1.34653 -2.94957,0.12824 -5.70674,0.76944 -8.27156,1.92361 -2.56482,1.15418 -5.19378,2.75719 -7.88684,4.80906 -2.69305,2.05186 -5.19382,4.3602 -7.50214,6.92502 -2.30831,2.56482 -4.42431,5.19377 -6.3479,7.88683 m -11.54174,-6.92502 c 0.2565,0.25648 0.513,0.38473 0.76948,0.38473 0.3847,0 0.7053,-0.12825 0.96178,-0.38473 0.8977,-0.76945 1.8595,-1.85949 2.88544,-3.27015 1.02594,-1.41066 2.30831,-2.82132 3.84722,-4.23196 1.53891,-1.41065 3.01368,-2.82131 4.42432,-4.23196 1.41064,-1.41065 2.69309,-2.62895 3.84726,-3.65488 0,0 0,-0.19236 0,-0.19236 0,-0.38472 -0.12826,-0.70533 -0.38472,-0.96181 -4.87318,1.15417 -8.72035,3.27015 -11.5417,6.34794 -2.82135,3.07779 -4.42435,6.47618 -4.80908,10.19518"
       stroke-miterlimit="2.5"
       id="34"
       style="fill:#f2f2f2;fill-opacity:1;stroke:#000000;stroke-width:2.5;stroke-linecap:round;stroke-linejoin:bevel;stroke-miterlimit:2.5;stroke-opacity:0"
       inkscape:connector-curvature="0" />
    <path
       d="m 1114,252 c 5.3334,3.33333 12,6 20,8 8,2 20.3334,4.33334 37,7 8,1.33334 19.6666,2.66666 35,4 15.3334,1.33334 31.3334,2.66666 48,4 16.6666,1.33334 33.3334,2.33334 50,3 16.6666,0.66666 29,2 37,4 4,0.66666 9.3334,1.33334 16,2 6.6666,0.66666 12.3334,2 17,4 5.3334,2 10,4.66666 14,8 4,3.33334 6.6666,8.33334 8,15 0,5.33334 -1,9 -3,11 -2,2 -4.6666,3.33334 -8,4 -16.6666,4 -35.6666,7.66666 -57,11 -21.3334,3.33334 -45,5.33334 -71,6 -1.3334,0 -7,-0.33334 -17,-1 -10,-0.66666 -22.6666,-2 -38,-4 -15.3334,-2 -31.3334,-5.33334 -48,-10 -16.6666,-4.66666 -32,-10.66666 -46,-18 -14,-7.33334 -26,-16.66666 -36,-28 -10,-11.33334 -14.6666,-24.66666 -14,-40 0,-10.66667 1.3334,-19.33333 4,-26 2.6666,-6.66667 8.3334,-12.33333 17,-17 8.6666,-4.66667 22,-8 40,-10 18,-2 41,-3.33333 69,-4 10.6666,0 24.3334,-1 41,-3 16.6666,-2 33,-5.33333 49,-10 16,-4.66667 29.6666,-9.66667 41,-15 11.3334,-5.33333 17,-13 17,-23 0,-9.33334 -7.3334,-17.33334 -22,-24 -14.6666,-6.66666 -31,-12 -49,-16 -18,-4 -35.6666,-7.333336 -53,-10 -17.3334,-2.666664 -28.3334,-3.666664 -33,-3 -9.3334,0 -18.6666,0 -28,0 -9.3334,0 -18,1 -26,3 -8,2 -14.3334,4.333336 -19,7 -4.6666,2.666664 -7.3334,7.666664 -8,15 0,11.33334 3.3334,18.33333 10,21 6.6666,2.66667 13.6666,4 21,4 10,0 19.6666,-1.33334 29,-4 9.3334,-2.66666 19,-5.33334 29,-8 10,-2.66666 18.6666,-5.33334 26,-8 7.3334,-2.66666 15.3334,-4 24,-4 12.6666,0 24.3334,2.33334 35,7 10.6666,4.66666 18,9 22,13 1.3334,1.33333 2,3.33333 2,6 0,1.33333 -0.6666,2.66667 -2,4 -20.6666,10.66667 -42.3334,18.33333 -65,23 -22.6666,4.66667 -44,7.33333 -64,8 -10,0 -20.3334,-1 -31,-3 -10.6666,-2 -20.3334,-5.33333 -29,-10 -8.6666,-4.66667 -16,-11 -22,-19 -6,-8 -9,-18 -9,-30 0,-10 4.3334,-20.66667 13,-32 8.6666,-11.333332 20.3334,-21.666668 35,-31 14.6666,-9.333332 31.6666,-17 51,-23 19.3334,-6 39.6666,-9 61,-9 8,0 20.3334,0.666667 37,2 16.6666,1.333333 33.3334,6 50,14 16.6666,8 31.6666,19.333336 45,34 13.3334,14.666664 20,36 20,64 0,23.33333 -5.6666,41.33333 -17,54 -11.3334,12.66667 -25.3334,22.33333 -42,29 -16.6666,6.66667 -35,10.66667 -55,12 -20,1.33333 -38.3334,3 -55,5 -20,1.33333 -37.3334,3.33333 -52,6 -14.6666,2.66667 -31.6666,7.66667 -51,15 -1.3334,0 -2,0.66667 -2,2 0,1.33333 0.6666,2.66667 2,4"
       stroke-miterlimit="2.5"
       transform="matrix(0.25216305,0,0,-0.25216305,38.9826,239.45169)"
       id="14"
       style="fill:#f2f2f2;fill-opacity:1;stroke:#000000;stroke-width:19.47068405;stroke-linecap:round;stroke-linejoin:bevel;stroke-miterlimit:2.5;stroke-opacity:0"
       inkscape:connector-curvature="0" />
    <path
       d="m 1599,369 c 0,0 3,-12 3,-12 6,-23.33334 11.6666,-43.33334 17,-60 5.3334,-16.66666 10,-32.3333 14,-47 4,-14.66667 7,-30.33333 9,-47 2,-16.66667 3.3334,-36.33333 4,-59 0,-8.66667 0,-15 0,-19 0,-4 -2,-6.33334 -6,-7 0.6666,0 -1.6666,2.66666 -7,8 -13.3334,16.66667 -26.6666,36 -40,58 -13.3334,22 -26.6666,42.66666 -40,62 -13.3334,19.33334 -25,36 -35,50 -10,14 -19.3334,21 -28,21 -7.3334,0 -14,-4.66666 -20,-14 -6,-9.33334 -11.6666,-21.3333 -17,-36 -5.3334,-14.66667 -10,-30.66667 -14,-48 -4,-17.33333 -7.3334,-35 -10,-53 -2.6666,-18 -4.6666,-34.33334 -6,-49 -1.3334,-14.66666 -2,-26.666664 -2,-36 0,-6 0.3334,-13.33333 1,-22 0.6666,-8.666668 2.6666,-17.333332 6,-26 3.3334,-8.666668 7.3334,-16 12,-22 4.6666,-6 11.3334,-9 20,-9 5.3334,0 9.6666,1.666667 13,5 3.3334,3.333333 6.3334,7.666666 9,13 2.6666,5.333334 4.3334,10.666668 5,16 0.6666,5.333332 1.6666,9.666668 3,13 1.3334,8 2.3334,19.333336 3,34 0.6666,14.666664 1.6666,30.33333 3,47 1.3334,16.66667 2,31 2,43 0,12 0.6666,20 2,24 2,7.33333 4.3334,11 7,11 2,0 5.3334,-4.66667 10,-14 4.6666,-9.33333 10.6666,-20.66667 18,-34 7.3334,-13.33333 14.6666,-28.33334 22,-45 7.3334,-16.666664 15.6666,-31.33333 25,-44 9.3334,-12.666668 19,-24.333332 29,-35 10,-10.666668 19.6666,-15.333334 29,-14 12,0 22.6666,4 32,12 9.3334,8 17.6666,18.666664 25,32 7.3334,13.333336 12.3334,27.666664 15,43 2.6666,15.33334 4.3334,31 5,47 0,34.66667 -4.3334,66.66666 -13,96 -8.6666,29.33334 -18.6666,54.33334 -30,75 -11.3334,20.66666 -23.3334,37 -36,49 -12.6666,12 -22.3334,18 -29,18 -4.6666,0 -7.3334,-2.33334 -8,-7 -0.6666,-4.66666 -1.3334,-9.33334 -2,-14 0,0 0,-4 0,-4"
       stroke-miterlimit="2.5"
       transform="matrix(0.25216305,0,0,-0.25216305,38.9826,239.45169)"
       id="15"
       style="fill:#f2f2f2;fill-opacity:1;stroke:#000000;stroke-width:19.47068405;stroke-linecap:round;stroke-linejoin:bevel;stroke-miterlimit:2.5;stroke-opacity:0"
       inkscape:connector-curvature="0" />
    <path
       d="m 1987,64 c 0,6.666664 -2.6666,13.333336 -8,20 -5.3334,6.666664 -11,10 -17,10 -5.3334,0 -10.6666,0 -16,0 -5.3334,0 -11,-0.666664 -17,-2 -32,-3.333336 -57,-6.666664 -75,-10 -18,-3.333336 -28.6666,-5.333336 -32,-6 5.3334,11.333336 10,22.666664 14,34 4,11.33334 7.3334,22.33333 10,33 1.3334,2.66667 3.3334,4 6,4 25.3334,0 48,0.33333 68,1 20,0.66667 35,1.33333 45,2 4.6666,0.66667 7.6666,3.66667 9,9 1.3334,5.33333 2,10.33333 2,15 0,4.66667 -0.3334,9.66667 -1,15 -0.6666,5.33333 -2.3334,10 -5,14 0,0 -14,2 -14,2 0,0 -74,0 -74,0 -3.3334,0 -5.6666,1 -7,3 -1.3334,2 -2,4.33333 -2,7 0,12.66667 1.3334,22.33333 4,29 2.6666,6.66667 5.3334,11 8,13 3.3334,0.66666 8.3334,1 15,1 6.6666,0 12.6666,0 18,0 5.3334,0 10.6666,0.33334 16,1 5.3334,0 11.6666,0 19,0 7.3334,0 16.3334,0.66666 27,2 4.6666,0 10,0.66666 16,2 6,1.33334 12,3.33334 18,6 6,2.66666 10.6666,4.66666 14,6 3.3334,1.33334 5.3334,4 6,8 0,8.66666 -4,17.66666 -12,27 -8,9.33334 -14.6666,16.66666 -20,22 -10.6666,3.33334 -19,5.33334 -25,6 -6,0.66666 -11.3334,1 -16,1 -20.6666,0 -39.3334,-1 -56,-3 -16.6666,-2 -31.6666,-4 -45,-6 -13.3334,-2 -26,-4.33334 -38,-7 -12,-2.66666 -23.3334,-4 -34,-4 -8.6666,-0.66666 -15,-2 -19,-4 -4,-2 -6.3334,-5.66666 -7,-11 0,-5.33334 1.6666,-10 5,-14 3.3334,-4 8,-8 14,-12 6,-4 12.3334,-7.33334 19,-10 6.6666,-2.66666 13,-5.66666 19,-9 0,0 -24,-55 -24,-55 -4.6666,-0.66667 -9,-1.66667 -13,-3 -4,-1.33333 -8.3334,-3 -13,-5 -1.3334,-4 -2.3334,-7.33333 -3,-10 -0.6666,-2.66667 -1.3334,-6 -2,-10 0,-5.33333 1,-9.66667 3,-13 2,-3.33333 3.6666,-7.66667 5,-13 -5.3334,-15.33333 -10.6666,-30.33334 -16,-45 -5.3334,-14.666664 -8.3334,-28 -9,-40 0,-21.333336 6.3334,-40.666666 19,-58 12.6666,-17.333334 33,-26 61,-26 16.6666,0 32.6666,2.333334 48,7 15.3334,4.6666665 29.6666,11 43,19 13.3334,8 25.6666,15.333332 37,22 11.3334,6.666668 20,13.333332 26,20 4,2.666668 6,7.666668 6,15"
       stroke-miterlimit="2.5"
       transform="matrix(0.25216305,0,0,-0.25216305,33.9826,239.45169)"
       id="16"
       style="fill:#f2f2f2;fill-opacity:1;stroke:#000000;stroke-width:19.47068405;stroke-linecap:round;stroke-linejoin:bevel;stroke-miterlimit:2.5;stroke-opacity:0"
       inkscape:connector-curvature="0" />
    <path
       d="m 33,-284 q 10,40 17,71 7,31 14,62 7,31 17,62 10,31 25,76 6,1 11,1 5,0 11,1 25,0 62,15 37,15 71,42 34,27 58,64 24,37 24,81 0,15 -3,36 -3,21 -10,40 -7,19 -20,34 -13,15 -32,14 -19,0 -45,-20 -26,-20 -55,-48 -29,-28 -54,-60 -25,-32 -44,-56 -3,-4 -4,-4 l -2,0 q -2,2 -2,5 0,3 -1,7 0,27 13,55 13,28 26,47 23,35 33,50 10,15 10,30 0,14 -2,20 -2,6 -14,8 -8,-1 -27,-22 Q 91,306 70,274 49,242 33,201 17,160 17,122 17,104 22,86 27,68 35,49 14,-1 0,-45 q -14,-44 -22,-79 -8,-35 -11,-58 -3,-23 -4,-30 0,-32 18,-54 18,-22 49,-26 l 3,8 z M 156,75 q 3,6 10,21 7,15 17,33 10,18 18,33 8,15 13,21 6,7 15,18 9,11 19,21 10,10 20,17 10,7 16,8 10,0 11,-10 1,-10 2,-18 0,-61 -43,-98 -46,-40 -98,-46 z"
       stroke-miterlimit="2.5"
       transform="matrix(0.25203413,0,0,-0.25203413,541.4215,239.49855)"
       id="36"
       style="fill:#f2f2f2;fill-opacity:1;stroke:#000000;stroke-width:145.83334351;stroke-linecap:round;stroke-linejoin:bevel;stroke-miterlimit:2.5;stroke-opacity:0"
       inkscape:connector-curvature="0" />
    <path
       inkscape:connector-curvature="0"
       id="22"
       d="m 228.65625,250.96875 c -0.76313,0.0856 -1.46613,0.32763 -2.28125,0.53125 -1.63024,0.40725 -3.46238,1.04652 -5.5,1.875 -4.07524,1.65695 -8.89059,4.06428 -13.4375,6.9375 -4.54691,2.87322 -8.81121,6.15159 -11.84375,9.8125 -1.51627,1.83045 -2.74368,3.78241 -3.40625,5.96875 -0.66257,2.18634 -0.68437,4.716 0.34375,6.96875 1.83425,4.01909 5.6659,6.33356 9.78125,7.46875 4.11535,1.13519 8.78522,1.3146 13.65625,1.125 9.74207,-0.3792 20.4173,-2.33416 27.625,-2.9375 a 3.5125681,3.5125681 0 1 0 -0.59375,-7 c -7.85895,0.65786 -18.33487,2.58805 -27.3125,2.9375 -4.48882,0.17472 -8.59148,-0.0641 -11.53125,-0.875 -2.93977,-0.81091 -4.47918,-1.93603 -5.25,-3.625 -0.27441,-0.60128 -0.31154,-1.10634 -0.0312,-2.03125 0.28029,-0.92491 0.97596,-2.18184 2.09375,-3.53125 2.23559,-2.69882 6.05784,-5.71445 10.21875,-8.34375 4.16091,-2.6293 8.67372,-4.92676 12.3125,-6.40625 1.81939,-0.73975 3.41545,-1.27596 4.5625,-1.5625 1.14705,-0.28654 2.08238,-0.0245 1.09375,-0.34375 1.95461,0.63124 2.3896,1.09395 2.53125,1.28125 0.14165,0.1873 0.32324,0.74776 0.65625,2.28125 a 3.5031027,3.5031027 0 1 0 6.84375,-1.5 c -0.3266,-1.50398 -0.58536,-3.25344 -1.90625,-5 -1.32089,-1.74656 -3.3499,-2.87299 -5.96875,-3.71875 -1.066,-0.34426 -1.89312,-0.39815 -2.65625,-0.3125 z"
       style="font-size:medium;font-style:normal;font-variant:normal;font-weight:normal;font-stretch:normal;text-indent:0;text-align:start;text-decoration:none;line-height:normal;letter-spacing:normal;word-spacing:normal;text-transform:none;direction:ltr;block-progression:tb;writing-mode:lr-tb;text-anchor:start;baseline-shift:baseline;color:#000000;fill:#f2f2f2;fill-opacity:1;fill-rule:nonzero;stroke:none;stroke-width:1;marker:none;visibility:visible;display:inline;overflow:visible;enable-background:accumulate;font-family:Sans;-inkscape-font-specification:Sans" />
    <path
       style="font-size:medium;font-style:normal;font-variant:normal;font-weight:normal;font-stretch:normal;text-indent:0;text-align:start;text-decoration:none;line-height:normal;letter-spacing:normal;word-spacing:normal;text-transform:none;direction:ltr;block-progression:tb;writing-mode:lr-tb;text-anchor:start;baseline-shift:baseline;color:#000000;fill:#f2f2f2;fill-opacity:1;fill-rule:nonzero;stroke:none;stroke-width:1;marker:none;visibility:visible;display:inline;overflow:visible;enable-background:accumulate;font-family:Sans;-inkscape-font-specification:Sans"
       d="m 279.1875,249.625 a 3.50035,3.50035 0 0 0 -3.15625,3.8125 l 1.03125,13.09375 -13.65625,4.75 0.375,-13.65625 a 3.5012554,3.5012554 0 1 0 -7,-0.1875 l -0.4375,16.3125 -5.96875,2.0625 a 3.5084997,3.5084997 0 1 0 2.3125,6.625 l 3.4375,-1.1875 -0.21875,7.96875 a 3.5017086,3.5017086 0 1 0 7,0.21875 l 0.28125,-10.65625 14.4375,-5.03125 1.34375,17.03125 a 3.50035,3.50035 0 1 0 6.96875,-0.5625 l -1.46875,-18.84375 1.75,-0.625 a 3.50035,3.50035 0 1 0 -2.3125,-6.59375 l -0.875,-11.28125 a 3.50035,3.50035 0 0 0 -3.84375,-3.25 z"
       id="25"
       inkscape:connector-curvature="0" />
    <path
       inkscape:connector-curvature="0"
       id="26"
       d="m 309.90625,250.25 a 3.50035,3.50035 0 0 0 -3.125,2.5625 l -5.90625,21.15625 -6.65625,2.09375 a 3.5084997,3.5084997 0 1 0 2.125,6.6875 l 2.28125,-0.71875 -2.34375,8.40625 a 3.5027891,3.5027891 0 1 0 6.75,1.875 l 3.5625,-12.78125 12.59375,-3.96875 9.5625,15.875 a 3.5050187,3.5050187 0 1 0 6,-3.625 l -8.6875,-14.40625 1.78125,-0.5625 a 3.5084997,3.5084997 0 1 0 -2.125,-6.6875 l -3.375,1.0625 -9.1875,-15.28125 a 3.50035,3.50035 0 0 0 -3.25,-1.6875 z m 1.4375,12.28125 4.125,6.84375 -6.625,2.09375 2.5,-8.9375 z"
       style="font-size:medium;font-style:normal;font-variant:normal;font-weight:normal;font-stretch:normal;text-indent:0;text-align:start;text-decoration:none;line-height:normal;letter-spacing:normal;word-spacing:normal;text-transform:none;direction:ltr;block-progression:tb;writing-mode:lr-tb;text-anchor:start;baseline-shift:baseline;color:#000000;fill:#f2f2f2;fill-opacity:1;fill-rule:nonzero;stroke:none;stroke-width:1;marker:none;visibility:visible;display:inline;overflow:visible;enable-background:accumulate;font-family:Sans;-inkscape-font-specification:Sans" />
    <path
       inkscape:connector-curvature="0"
       id="28"
       d="m 373.625,250.5 a 3.50035,3.50035 0 0 0 -3.375,3.28125 l -2.125,27.3125 L 346.5,258.0625 a 3.50035,3.50035 0 0 0 -6.0625,2.3125 l -0.6875,33.5625 a 3.500558,3.500558 0 1 0 7,0.125 l 0.5,-24.96875 21.1875,22.5625 a 3.50035,3.50035 0 0 0 6.03125,-2.125 l 2.75,-35.21875 A 3.50035,3.50035 0 0 0 373.625,250.5 z"
       style="font-size:medium;font-style:normal;font-variant:normal;font-weight:normal;font-stretch:normal;text-indent:0;text-align:start;text-decoration:none;line-height:normal;letter-spacing:normal;word-spacing:normal;text-transform:none;direction:ltr;block-progression:tb;writing-mode:lr-tb;text-anchor:start;baseline-shift:baseline;color:#000000;fill:#f2f2f2;fill-opacity:1;fill-rule:nonzero;stroke:none;stroke-width:1;marker:none;visibility:visible;display:inline;overflow:visible;enable-background:accumulate;font-family:Sans;-inkscape-font-specification:Sans" />
    <path
       inkscape:connector-curvature="0"
       id="29"
       d="M 417.3125,251.65625 A 3.50035,3.50035 0 0 0 414,255.34375 l 0.96875,25.8125 -23.75,-20.71875 a 3.50035,3.50035 0 0 0 -5.8125,2.78125 l 1.15625,27.4375 a 3.503486,3.503486 0 1 0 7,-0.3125 l -0.8125,-19.25 23.75,20.6875 A 3.50035,3.50035 0 0 0 422.28125,289 l -1.3125,-33.9375 a 3.50035,3.50035 0 0 0 -3.65625,-3.40625 z"
       style="font-size:medium;font-style:normal;font-variant:normal;font-weight:normal;font-stretch:normal;text-indent:0;text-align:start;text-decoration:none;line-height:normal;letter-spacing:normal;word-spacing:normal;text-transform:none;direction:ltr;block-progression:tb;writing-mode:lr-tb;text-anchor:start;baseline-shift:baseline;color:#000000;fill:#f2f2f2;fill-opacity:1;fill-rule:nonzero;stroke:none;stroke-width:1;marker:none;visibility:visible;display:inline;overflow:visible;enable-background:accumulate;font-family:Sans;-inkscape-font-specification:Sans" />
    <path
       inkscape:connector-curvature="0"
       id="31"
       d="m 459.46875,252.5 a 3.50035,3.50035 0 0 0 -1.28125,0.25 c -2.21623,0.81464 -6.6462,1.3861 -11.5,1.75 -4.8538,0.3639 -10.20562,0.58931 -14.9375,1.125 a 3.50035,3.50035 0 0 0 -3.0625,3.90625 c 1.19966,10.28301 2.39407,20.56077 3.59375,30.84375 a 3.50035,3.50035 0 0 0 3.96875,3.0625 l 27,-3.875 a 3.50035,3.50035 0 1 0 -1,-6.90625 L 438.8125,286 c -0.42785,-3.66727 -0.8534,-7.33274 -1.28125,-11 l 18.75,0.21875 a 3.50035,3.50035 0 1 0 0.0937,-7 l -19.65625,-0.25 c -0.21893,-1.87654 -0.46857,-3.74845 -0.6875,-5.625 3.60729,-0.29729 7.36605,-0.55725 11.1875,-0.84375 5.01663,-0.3761 9.65647,-0.82064 13.375,-2.1875 a 3.50035,3.50035 0 0 0 -1.125,-6.8125 z"
       style="font-size:medium;font-style:normal;font-variant:normal;font-weight:normal;font-stretch:normal;text-indent:0;text-align:start;text-decoration:none;line-height:normal;letter-spacing:normal;word-spacing:normal;text-transform:none;direction:ltr;block-progression:tb;writing-mode:lr-tb;text-anchor:start;baseline-shift:baseline;color:#000000;fill:#f2f2f2;fill-opacity:1;fill-rule:nonzero;stroke:none;stroke-width:1;marker:none;visibility:visible;display:inline;overflow:visible;enable-background:accumulate;font-family:Sans;-inkscape-font-specification:Sans" />
    <path
       inkscape:connector-curvature="0"
       id="32"
       d="m 476.75,250.6875 a 3.50035,3.50035 0 0 0 -3.28125,3.71875 l 1.71875,37 a 3.50035,3.50035 0 0 0 4.4375,3.21875 c 11.13226,-3.09718 23.40867,-4.04235 34.21875,-2.65625 a 3.50035,3.50035 0 1 0 0.875,-6.9375 C 504.23076,283.68645 492.83992,284.45148 482,286.9375 l -1.53125,-32.875 a 3.50035,3.50035 0 0 0 -3.71875,-3.375 z"
       style="font-size:medium;font-style:normal;font-variant:normal;font-weight:normal;font-stretch:normal;text-indent:0;text-align:start;text-decoration:none;line-height:normal;letter-spacing:normal;word-spacing:normal;text-transform:none;direction:ltr;block-progression:tb;writing-mode:lr-tb;text-anchor:start;baseline-shift:baseline;color:#000000;fill:#f2f2f2;fill-opacity:1;fill-rule:nonzero;stroke:none;stroke-width:1;marker:none;visibility:visible;display:inline;overflow:visible;enable-background:accumulate;font-family:Sans;-inkscape-font-specification:Sans" />
  </g>
  <path
     style="fill:#ffffff;fill-opacity:1;stroke:#000000;stroke-width:2.5;stroke-linecap:round;stroke-linejoin:bevel;stroke-miterlimit:2.5;stroke-opacity:0"
     d="M 69.1875,44.84375 C 44.360354,45.129067 22.262896,49.92948 12.71875,62.09375 5.9908856,70.668594 3.609533,78.109062 3.875,84.3125 4.1585697,78.527592 6.7005156,71.764151 12.71875,64.09375 c 21.81519,-27.804045 109.12152,-17.185798 145,-1.96875 35.87848,15.217048 60.89024,27.37496 86.90625,51.8125 0.59344,-7.89128 8.20762,-19.13682 13.4375,-21.34375 -0.26507,-0.546992 -0.52616,-1.078604 -0.75,-1.625 -5.18007,2.862359 -12.12087,13.43395 -12.6875,20.96875 C 218.60899,87.49996 193.59723,75.342048 157.71875,60.125 137.5371,51.56541 101.10812,44.476914 69.1875,44.84375 z"
     id="path4003" />
  <path
     style="fill:#ffffff;fill-opacity:1;stroke:#000000;stroke-width:2.5;stroke-linecap:round;stroke-linejoin:bevel;stroke-miterlimit:2.5;stroke-opacity:0"
     d="m 287.25,49.125 c -5.28177,-0.06848 -10.39815,1.2355 -14.75,3.96875 -10.57933,6.644518 -17.43423,16.501611 -17.0625,27.1875 0.49362,-9.907725 7.14904,-18.961189 17.0625,-25.1875 13.92592,-8.7464 35.88358,-2.865414 44.96875,15.84375 5.9707,-3.844624 28.76176,-8.86347 43.0625,14.40625 2.85381,4.643624 4.16898,9.454479 4.3125,14.15625 0.21049,-5.329163 -1.05022,-10.847963 -4.3125,-16.15625 C 346.23051,60.07403 323.43945,65.092876 317.46875,68.9375 311.2227,56.07495 298.86989,49.275662 287.25,49.125 z"
     id="path4001" />
  <path
     style="fill:#ffffff;fill-opacity:1;stroke:#000000;stroke-width:2.5;stroke-linecap:round;stroke-linejoin:bevel;stroke-miterlimit:2.5;stroke-opacity:0"
     d="m 105.96875,98.78125 c -2.60161,9.89335 -8.032192,27.25149 -7.78125,41 0.281954,-14.26488 6.00264,-31.80116 8.25,-40.84375 -0.15564,-0.05394 -0.31283,-0.103004 -0.46875,-0.15625 z"
     id="path3999" />
  <path
     style="fill:#ffffff;fill-opacity:1;stroke:#000000;stroke-width:2.5;stroke-linecap:round;stroke-linejoin:bevel;stroke-miterlimit:2.5;stroke-opacity:0"
     d="m 439.5,124.0625 c -3.19143,0.0392 -5.82268,0.79173 -7.71875,1.875 -6.54156,3.73736 -9.71116,13.08875 -9.53125,19.625 0.43671,-6.32199 3.63237,-14.25482 9.53125,-17.625 6.74158,-3.85162 23.00338,-3.38731 39.3125,17.59375 17.40609,-2.60445 67.17615,-18.0713 82.375,0.0625 32.8623,-29.95704 87.16745,-5.66128 92.40625,31.875 0.32742,2.34602 0.52633,4.68705 0.59375,7 0.008,-2.97052 -0.17107,-5.9715 -0.59375,-9 -5.2388,-37.53628 -59.54395,-61.83204 -92.40625,-31.875 -15.19885,-18.1338 -64.96891,-2.66695 -82.375,-0.0625 C 459.37157,128.45111 447.65588,123.96241 439.5,124.0625 z"
     id="path3997" />
  <path
     style="fill:#ffffff;fill-opacity:1;stroke:#000000;stroke-width:2.5;stroke-linecap:round;stroke-linejoin:bevel;stroke-miterlimit:2.5;stroke-opacity:0"
     d="m 356.21875,134.9375 c -10.26776,0.16532 -19.67787,0.94325 -26.53125,2.25 -1.02484,1.00012 -2.10352,1.91367 -3.09375,2.65625 22.21372,-5.48974 83.73953,-3.58351 95.65625,8.3125 -0.0388,-0.63792 -0.0293,-1.30839 0,-2 -8.19275,-8.17851 -39.83799,-11.64048 -66.03125,-11.21875 z"
     id="path3995" />
  <path
     style="fill:#ffffff;fill-opacity:1;stroke:#000000;stroke-width:2.5;stroke-linecap:round;stroke-linejoin:bevel;stroke-miterlimit:2.5;stroke-opacity:0"
     d="m 98.1875,141.84375 c -15.376652,3.21445 -57.842733,18.05249 -58.71875,39.34375 -0.02741,0.66613 -0.02164,1.32055 0,2 0.87704,-21.31612 43.450046,-36.15268 58.78125,-39.34375 -0.04152,-0.6519 -0.04939,-1.32892 -0.0625,-2 z"
     id="path3993" />
  <path
     style="fill:#000000;opacity:0.75"
     d="m 255.4375,76.28125 c -0.17351,3.482641 0.39715,7.08006 1.875,10.6875 0.24508,-0.135422 0.51374,-0.275304 0.75,-0.375 -1.68075,-3.468285 -2.50741,-6.932199 -2.625,-10.3125 z"
     id="path4020" />
  <path
     style="fill:#000000;opacity:0.75"
     d="m 3.875,80.3125 c -0.7443275,15.18451 14.192694,23.54401 23.5625,23.1875 12.939461,-0.49234 23.724835,-0.82973 29.84375,-14.3125 16.363713,-1.539115 33.225982,0.313791 48.6875,5.59375 0.15887,-0.604156 0.33329,-1.298718 0.46875,-1.84375 C 90.848495,87.534845 73.809985,85.632864 57.28125,87.1875 51.162335,100.67027 40.376961,101.00767 27.4375,101.5 18.488604,101.8405 4.4703133,94.223793 3.875,80.3125 z"
     id="path4018" />
  <path
     style="fill:#000000;opacity:0.75"
     d="m 364.84375,95.5 c -0.71223,18.03207 -18.14858,33.6616 -31,29.84375 -0.91626,2.90212 -4.44449,6.39613 -7.25,8.5 0.95519,-0.23606 2.00026,-0.44775 3.09375,-0.65625 1.87872,-1.8334 3.56339,-3.96597 4.15625,-5.84375 13.32698,3.95913 31.57567,-12.98442 31,-31.84375 z"
     id="path4016" />
  <path
     style="fill:#000000;opacity:0.75"
     d="m 98.1875,135.78125 c -0.01376,0.69605 -0.01327,1.38338 0,2.0625 0.01795,-0.004 0.04462,0.004 0.0625,0 -0.04282,-0.67225 -0.04986,-1.36989 -0.0625,-2.0625 z"
     id="path4014" />
  <path
     style="fill:#000000;opacity:0.75"
     d="m 39.46875,179.1875 c -0.87704,21.31612 23.616829,49.71527 57.5,68.59375 8.52665,21.67214 24.24719,33.46581 50,15.59375 5.92972,1.63667 15.62608,3.16757 23.96875,1.46875 0.0514,-0.67257 0.11131,-1.34907 0.1875,-2.03125 -8.38385,1.75953 -18.18285,0.21123 -24.15625,-1.4375 -25.75281,17.87206 -41.47334,6.07839 -50,-15.59375 -32.824322,-18.28853 -56.829055,-45.53079 -57.5,-66.59375 z"
     id="path4012" />
  <path
     style="fill:#000000;opacity:0.75"
     d="m 646.46875,181.90625 c -0.84253,33.23361 -27.78106,61.7377 -62.59375,67.4375 -4.5429,23.00629 -14.4352,40.88684 -16.15625,60.78125 -1.72105,19.89441 -35.17464,22.05025 -49.5625,-6.375 l -312.3125,1 c -22.2573,0.0696 -34.6535,-14.50864 -35.0625,-34.71875 -0.38858,21.23955 12.0783,36.79059 35.0625,36.71875 l 312.3125,-1 c 14.38786,28.42525 47.84145,26.26941 49.5625,6.375 1.72105,-19.89441 11.61335,-37.77496 16.15625,-60.78125 35.51112,-5.81415 62.80919,-35.35124 62.59375,-69.4375 z"
     id="path4005" />
</svg>
