<?xml version="1.0" encoding="UTF-8" ?>
<!DOCTYPE svg PUBLIC "-//W3C//DTD SVG 1.1//EN" "http://www.w3.org/Graphics/SVG/1.1/DTD/svg11.dtd">
<svg width="240pt" height="775pt" viewBox="0 0 240 775" version="1.1" xmlns="http://www.w3.org/2000/svg">
<g id="#ffffffff">
<path fill="#ffffff" opacity="1.00" d=" M 41.25 47.52 C 92.25 47.47 143.25 47.51 194.25 47.50 C 194.24 81.58 194.25 115.67 194.24 149.75 C 170.75 149.76 147.25 149.75 123.76 149.76 C 123.75 186.00 123.75 222.25 123.75 258.50 C 146.50 258.50 169.24 258.51 191.99 258.49 C 192.01 296.83 192.01 335.17 191.99 373.51 C 169.24 373.49 146.50 373.50 123.75 373.50 C 123.75 412.92 123.75 452.33 123.76 491.75 C 148.17 491.75 172.58 491.75 197.00 491.75 C 197.00 523.17 197.00 554.58 197.00 586.00 C 145.08 586.00 93.16 586.01 41.24 586.00 C 41.25 406.50 41.24 227.01 41.25 47.52 Z" />
</g>
<g id="#171411ff">
<path fill="#171411" opacity="1.00" d=" M 4.76 2.75 C 81.42 2.75 158.09 2.75 234.75 2.76 C 229.72 204.67 224.24 406.58 219.25 608.50 C 153.18 608.50 87.11 608.50 21.04 608.50 C 16.02 424.36 11.10 240.22 6.12 56.08 C 5.70 38.30 5.05 20.53 4.76 2.75 M 41.25 47.52 C 41.24 227.01 41.25 406.50 41.24 586.00 C 93.16 586.01 145.08 586.00 197.00 586.00 C 197.00 554.58 197.00 523.17 197.00 491.75 C 172.58 491.75 148.17 491.75 123.76 491.75 C 123.75 452.33 123.75 412.92 123.75 373.50 C 146.50 373.50 169.24 373.49 191.99 373.51 C 192.01 335.17 192.01 296.83 191.99 258.49 C 169.24 258.51 146.50 258.50 123.75 258.50 C 123.75 222.25 123.75 186.00 123.76 149.76 C 147.25 149.75 170.75 149.76 194.24 149.75 C 194.25 115.67 194.24 81.58 194.25 47.50 C 143.25 47.51 92.25 47.47 41.25 47.52 Z" />
<path fill="#171411" opacity="1.00" d=" M 21.01 629.24 C 87.08 629.25 153.16 629.24 219.24 629.25 C 219.25 677.16 219.25 725.08 219.25 773.00 C 153.16 773.00 87.08 773.00 21.00 773.00 C 21.00 725.08 20.99 677.16 21.01 629.24 Z" />
</g>
</svg>
