<?xml version="1.0" encoding="UTF-8" standalone="yes"?>
<svg xmlns="http://www.w3.org/2000/svg" xmlns:xlink="http://www.w3.org/1999/xlink" width="276px" height="106.66666666666666px" viewBox="0 0 207 80" version="1.1">
  <g id="surface1">
    <path style=" stroke:none;fill-rule:nonzero;fill:rgb(13.72549%,12.156863%,12.54902%);fill-opacity:1;" d="M 139.050781 23.402344 C 138.925781 23.261719 138.753906 23.191406 138.582031 23.203125 L 136.4375 23.203125 C 136.164062 23.203125 135.941406 23.433594 135.941406 23.722656 C 135.941406 23.875 136 23.996094 136.085938 24.089844 L 143.679688 32.21875 C 143.933594 32.484375 144.324219 32.476562 144.578125 32.21875 L 145.464844 31.1875 C 145.710938 30.914062 145.703125 30.472656 145.449219 30.203125 L 139.050781 23.398438 "/>
    <path style=" stroke:none;fill-rule:nonzero;fill:rgb(13.72549%,12.156863%,12.54902%);fill-opacity:1;" d="M 82.734375 24 C 81.820312 24.085938 77.660156 26.574219 77.660156 30.835938 C 77.660156 35.230469 81.792969 37.984375 82.734375 38.066406 C 83.285156 38.1875 83.574219 37.503906 83.226562 37.140625 C 81.222656 35.183594 81.128906 32.796875 81.128906 31.039062 C 81.117188 28.945312 81.222656 26.882812 83.226562 24.925781 C 83.574219 24.5625 83.285156 23.878906 82.734375 24 "/>
    <path style=" stroke:none;fill-rule:nonzero;fill:rgb(13.72549%,12.156863%,12.54902%);fill-opacity:1;" d="M 41.355469 24.453125 L 39.558594 25.167969 C 39.265625 25.289062 39.03125 25.644531 39.03125 25.953125 L 39.03125 38.472656 C 39.03125 38.78125 39.265625 38.949219 39.558594 38.828125 L 41.355469 38.109375 C 41.648438 38 41.878906 37.644531 41.878906 37.324219 L 41.878906 24.816406 C 41.878906 24.496094 41.648438 24.332031 41.355469 24.453125 "/>
    <path style=" stroke:none;fill-rule:nonzero;fill:rgb(13.72549%,12.156863%,12.54902%);fill-opacity:1;" d="M 165.878906 23.8125 L 164.089844 24.53125 C 163.800781 24.648438 163.570312 25.007812 163.570312 25.320312 L 163.570312 37.824219 C 163.570312 38.144531 163.800781 38.308594 164.089844 38.199219 L 165.878906 37.476562 C 166.179688 37.363281 166.402344 37.007812 166.402344 36.6875 L 166.402344 24.191406 C 166.402344 23.859375 166.179688 23.703125 165.878906 23.8125 "/>
    <path style=" stroke:none;fill-rule:nonzero;fill:rgb(13.72549%,12.156863%,12.54902%);fill-opacity:1;" d="M 174.117188 39.835938 C 174.871094 40.132812 175.835938 40.523438 176.589844 40.738281 C 177.457031 40.96875 177.589844 41.285156 177.53125 41.628906 L 177.53125 44.222656 L 152.375 44.222656 L 152.375 41.628906 C 152.316406 41.285156 152.453125 40.96875 153.316406 40.738281 C 154.070312 40.523438 155.039062 40.132812 155.789062 39.835938 C 156.449219 39.570312 156.621094 39.1875 156.601562 38.667969 L 156.574219 27.042969 C 156.574219 26.785156 156.417969 26.578125 156.1875 26.578125 C 156.042969 26.578125 155.902344 26.636719 155.824219 26.757812 L 143.554688 41.285156 L 131.402344 27.082031 C 131.328125 27.015625 131.25 26.984375 131.144531 26.984375 C 130.902344 26.984375 130.71875 27.1875 130.71875 27.441406 L 130.734375 38.667969 C 130.714844 39.1875 130.886719 39.570312 131.550781 39.835938 C 132.296875 40.132812 133.265625 40.523438 134.019531 40.738281 C 134.882812 40.96875 135.019531 41.285156 134.960938 41.628906 L 134.960938 44.222656 L 121.800781 44.222656 L 121.800781 41.628906 C 121.75 41.285156 121.878906 40.96875 122.746094 40.738281 C 123.503906 40.523438 124.46875 40.132812 125.222656 39.835938 C 125.875 39.570312 126.046875 39.1875 126.027344 38.667969 L 126.027344 24.5 C 126.046875 23.980469 125.875 23.597656 125.222656 23.328125 C 124.46875 23.035156 123.503906 22.640625 122.746094 22.429688 C 121.878906 22.191406 121.75 21.875 121.800781 21.539062 L 121.800781 18.941406 L 142.910156 18.941406 L 142.875 18.941406 L 149.644531 26.296875 C 149.703125 26.375 149.800781 26.394531 149.898438 26.394531 C 149.992188 26.394531 150.078125 26.34375 150.144531 26.277344 L 156.390625 18.941406 L 177.53125 18.941406 L 177.53125 21.539062 C 177.589844 21.875 177.457031 22.191406 176.589844 22.429688 C 175.835938 22.640625 174.871094 23.035156 174.117188 23.328125 C 173.457031 23.597656 173.289062 23.980469 173.304688 24.5 L 173.304688 38.667969 C 173.289062 39.1875 173.457031 39.570312 174.117188 39.835938 Z M 74.546875 39.992188 C 71.449219 37.796875 69.375 35.257812 69.375 31.238281 C 69.375 27.339844 71.859375 24.378906 74.921875 22.238281 C 83.71875 16.589844 95.03125 17.316406 105.394531 19.140625 C 106.855469 19.40625 107.320312 17.488281 107.320312 17.488281 L 109.820312 17.679688 L 111.632812 28.644531 C 111.632812 28.644531 111.484375 28.730469 109.128906 29.472656 C 108.664062 29.652344 108.449219 29.472656 108.402344 29.25 C 106.742188 25.132812 101.460938 22.449219 95.71875 22.320312 C 93.167969 22.617188 90.003906 22.320312 88.832031 25.015625 C 88.246094 26.296875 88.246094 35.300781 88.621094 37.007812 C 88.824219 38.109375 89.328125 39.339844 90.515625 39.746094 C 96.964844 41.285156 104.015625 39.664062 109.621094 36.40625 C 110.046875 36.238281 110.332031 36.40625 110.464844 36.832031 L 111.710938 41.476562 C 100.539062 45.304688 84.765625 46.972656 74.546875 39.992188 Z M 60.664062 29.515625 C 59.992188 29.792969 59.914062 29.347656 59.542969 28.933594 C 57.5625 24.855469 53.222656 21.859375 48.96875 23.292969 L 48.972656 38.667969 C 48.953125 39.1875 49.121094 39.570312 49.792969 39.835938 C 50.539062 40.132812 51.503906 40.523438 52.261719 40.738281 C 53.125 40.96875 53.257812 41.285156 53.207031 41.628906 L 53.199219 44.222656 L 27.507812 44.222656 L 27.507812 41.628906 C 27.449219 41.285156 27.582031 40.96875 28.445312 40.738281 C 29.199219 40.523438 30.175781 40.132812 30.917969 39.835938 C 31.589844 39.570312 31.753906 39.1875 31.734375 38.667969 L 31.738281 23.292969 C 27.484375 21.859375 23.144531 24.855469 21.160156 28.933594 C 20.789062 29.347656 20.714844 29.792969 20.042969 29.515625 L 17.699219 28.546875 C 18.5625 25.496094 20.089844 18.941406 20.089844 18.941406 L 60.609375 18.941406 C 60.609375 18.941406 62.144531 25.496094 63.007812 28.546875 Z M 197.382812 0 L 1.226562 0 C 0.550781 0 0 0.546875 0 1.226562 L 0 59.648438 C 0 60.320312 0.550781 60.871094 1.226562 60.871094 L 197.382812 60.871094 C 198.0625 60.871094 198.613281 60.320312 198.613281 59.648438 L 198.613281 1.226562 C 198.613281 0.546875 198.0625 0 197.382812 0 "/>
    <path style=" stroke:none;fill-rule:nonzero;fill:rgb(13.72549%,12.156863%,12.54902%);fill-opacity:1;" d="M 136.097656 24.128906 C 136.09375 24.121094 136.09375 24.128906 136.085938 24.128906 L 136.046875 24.074219 L 136.097656 24.144531 "/>
    <path style=" stroke:none;fill-rule:nonzero;fill:rgb(13.72549%,12.156863%,12.54902%);fill-opacity:1;" d="M 4.472656 71.738281 L 4.472656 79.910156 L 3.027344 79.910156 L 3.027344 71.738281 L 0.449219 71.738281 L 0.449219 70.441406 L 7.054688 70.441406 L 7.054688 71.738281 L 4.472656 71.738281 "/>
    <path style=" stroke:none;fill-rule:nonzero;fill:rgb(13.72549%,12.156863%,12.54902%);fill-opacity:1;" d="M 13.683594 80 C 11.761719 80 10.304688 78.695312 10.304688 76.722656 L 10.304688 70.441406 L 11.742188 70.441406 L 11.742188 76.660156 C 11.742188 77.925781 12.511719 78.707031 13.683594 78.707031 C 14.855469 78.707031 15.636719 77.925781 15.636719 76.660156 L 15.636719 70.441406 L 17.078125 70.441406 L 17.078125 76.722656 C 17.078125 78.695312 15.59375 80 13.683594 80 "/>
    <path style=" stroke:none;fill-rule:nonzero;fill:rgb(13.72549%,12.156863%,12.54902%);fill-opacity:1;" d="M 28.5625 79.914062 L 26.394531 75.722656 C 27.449219 75.449219 28.269531 74.585938 28.269531 73.226562 C 28.269531 71.609375 27.132812 70.449219 25.347656 70.449219 L 21.695312 70.449219 L 21.695312 79.914062 L 23.125 79.914062 L 23.125 75.929688 L 24.902344 75.929688 L 26.894531 79.914062 Z M 26.855469 73.234375 C 26.855469 74.167969 26.195312 74.707031 25.230469 74.707031 L 23.125 74.707031 L 23.125 71.742188 L 25.230469 71.742188 C 26.195312 71.742188 26.855469 72.308594 26.855469 73.234375 "/>
    <path style=" stroke:none;fill-rule:nonzero;fill:rgb(13.72549%,12.156863%,12.54902%);fill-opacity:1;" d="M 38.4375 79.914062 L 34.101562 73.257812 L 34.101562 79.914062 L 32.667969 79.914062 L 32.667969 70.449219 L 33.980469 70.449219 L 38.332031 77.105469 L 38.332031 70.449219 L 39.757812 70.449219 L 39.757812 79.914062 L 38.4375 79.914062 "/>
    <path style=" stroke:none;fill-rule:nonzero;fill:rgb(13.72549%,12.156863%,12.54902%);fill-opacity:1;" d="M 44.527344 79.914062 L 44.527344 70.449219 L 50.550781 70.449219 L 50.550781 71.742188 L 45.957031 71.742188 L 45.957031 74.507812 L 49.871094 74.507812 L 49.871094 75.785156 L 45.957031 75.785156 L 45.957031 78.628906 L 50.550781 78.628906 L 50.550781 79.914062 L 44.527344 79.914062 "/>
    <path style=" stroke:none;fill-rule:nonzero;fill:rgb(13.72549%,12.156863%,12.54902%);fill-opacity:1;" d="M 61.683594 79.914062 L 59.519531 75.722656 C 60.574219 75.449219 61.394531 74.585938 61.394531 73.226562 C 61.394531 71.609375 60.25 70.449219 58.464844 70.449219 L 54.808594 70.449219 L 54.808594 79.914062 L 56.246094 79.914062 L 56.246094 75.929688 L 58.027344 75.929688 L 60.007812 79.914062 Z M 59.957031 73.234375 C 59.957031 74.167969 59.3125 74.707031 58.363281 74.707031 L 56.246094 74.707031 L 56.246094 71.742188 L 58.363281 71.742188 C 59.3125 71.742188 59.957031 72.308594 59.957031 73.234375 "/>
    <path style=" stroke:none;fill-rule:nonzero;fill:rgb(13.72549%,12.156863%,12.54902%);fill-opacity:1;" d="M 73.871094 80 C 72.886719 80 72.046875 79.648438 71.398438 78.996094 C 70.464844 78.042969 70.488281 77.007812 70.488281 75.191406 C 70.488281 73.363281 70.464844 72.324219 71.398438 71.394531 C 72.046875 70.730469 72.886719 70.363281 73.871094 70.363281 C 75.582031 70.363281 76.890625 71.394531 77.214844 73.277344 L 75.78125 73.277344 C 75.554688 72.335938 74.917969 71.65625 73.871094 71.65625 C 73.304688 71.65625 72.8125 71.875 72.476562 72.242188 C 72.019531 72.746094 71.910156 73.277344 71.910156 75.191406 C 71.910156 77.074219 72.019531 77.617188 72.476562 78.136719 C 72.8125 78.496094 73.304688 78.707031 73.871094 78.707031 C 74.917969 78.707031 75.566406 78.039062 75.78125 77.074219 L 77.214844 77.074219 C 76.921875 78.96875 75.566406 80 73.871094 80 "/>
    <path style=" stroke:none;fill-rule:nonzero;fill:rgb(13.72549%,12.156863%,12.54902%);fill-opacity:1;" d="M 80.890625 79.914062 L 80.890625 70.449219 L 82.328125 70.449219 L 82.328125 78.628906 L 86.871094 78.628906 L 86.871094 79.914062 L 80.890625 79.914062 "/>
    <path style=" stroke:none;fill-rule:nonzero;fill:rgb(13.72549%,12.156863%,12.54902%);fill-opacity:1;" d="M 97.183594 79.914062 L 93.726562 70.449219 L 92.589844 70.449219 L 89.140625 79.914062 L 90.652344 79.914062 L 91.300781 78.011719 L 95.035156 78.011719 L 95.671875 79.914062 Z M 94.636719 76.792969 L 91.722656 76.792969 L 93.203125 72.605469 L 94.636719 76.792969 "/>
    <path style=" stroke:none;fill-rule:nonzero;fill:rgb(13.72549%,12.156863%,12.54902%);fill-opacity:1;" d="M 103.335938 80 C 101.917969 80 100.894531 79.648438 99.996094 78.753906 L 100.945312 77.796875 C 101.652344 78.496094 102.394531 78.707031 103.363281 78.707031 C 104.59375 78.707031 105.3125 78.179688 105.3125 77.265625 C 105.3125 76.84375 105.195312 76.492188 104.9375 76.28125 C 104.6875 76.050781 104.453125 75.949219 103.902344 75.882812 L 102.792969 75.703125 C 102.03125 75.617188 101.421875 75.339844 100.996094 74.957031 C 100.550781 74.523438 100.308594 73.914062 100.308594 73.152344 C 100.308594 71.503906 101.503906 70.363281 103.472656 70.363281 C 104.714844 70.363281 105.582031 70.691406 106.390625 71.457031 L 105.46875 72.363281 C 104.890625 71.804688 104.214844 71.625 103.421875 71.625 C 102.308594 71.625 101.714844 72.273438 101.714844 73.109375 C 101.714844 73.453125 101.800781 73.75 102.058594 73.984375 C 102.308594 74.191406 102.6875 74.355469 103.128906 74.414062 L 104.195312 74.582031 C 105.058594 74.707031 105.546875 74.929688 105.960938 75.269531 C 106.464844 75.722656 106.742188 76.40625 106.742188 77.210938 C 106.742188 78.957031 105.3125 80 103.335938 80 "/>
    <path style=" stroke:none;fill-rule:nonzero;fill:rgb(13.72549%,12.156863%,12.54902%);fill-opacity:1;" d="M 113.308594 80 C 111.910156 80 110.882812 79.648438 109.976562 78.753906 L 110.925781 77.796875 C 111.621094 78.496094 112.386719 78.707031 113.34375 78.707031 C 114.578125 78.707031 115.28125 78.179688 115.28125 77.265625 C 115.28125 76.84375 115.160156 76.492188 114.914062 76.28125 C 114.667969 76.050781 114.433594 75.949219 113.890625 75.882812 L 112.761719 75.703125 C 112 75.617188 111.394531 75.339844 110.988281 74.957031 C 110.523438 74.523438 110.296875 73.914062 110.296875 73.152344 C 110.296875 71.503906 111.480469 70.363281 113.453125 70.363281 C 114.695312 70.363281 115.558594 70.691406 116.371094 71.457031 L 115.460938 72.363281 C 114.878906 71.804688 114.191406 71.625 113.398438 71.625 C 112.296875 71.625 111.6875 72.273438 111.6875 73.109375 C 111.6875 73.453125 111.804688 73.75 112.050781 73.984375 C 112.285156 74.191406 112.664062 74.355469 113.109375 74.414062 L 114.160156 74.582031 C 115.050781 74.707031 115.53125 74.929688 115.9375 75.269531 C 116.445312 75.722656 116.699219 76.40625 116.699219 77.210938 C 116.699219 78.957031 115.28125 80 113.308594 80 "/>
    <path style=" stroke:none;fill-rule:nonzero;fill:rgb(13.72549%,12.156863%,12.54902%);fill-opacity:1;" d="M 120.9375 79.914062 L 122.367188 79.914062 L 122.367188 70.445312 L 120.9375 70.445312 Z M 120.9375 79.914062 "/>
    <path style=" stroke:none;fill-rule:nonzero;fill:rgb(13.72549%,12.156863%,12.54902%);fill-opacity:1;" d="M 130.167969 80 C 129.175781 80 128.34375 79.648438 127.707031 78.996094 C 126.769531 78.042969 126.792969 77.007812 126.792969 75.191406 C 126.792969 73.363281 126.769531 72.324219 127.707031 71.394531 C 128.34375 70.730469 129.175781 70.363281 130.167969 70.363281 C 131.894531 70.363281 133.195312 71.394531 133.542969 73.277344 L 132.085938 73.277344 C 131.851562 72.335938 131.210938 71.65625 130.167969 71.65625 C 129.625 71.65625 129.132812 71.875 128.78125 72.242188 C 128.316406 72.746094 128.210938 73.277344 128.210938 75.191406 C 128.210938 77.074219 128.316406 77.617188 128.78125 78.136719 C 129.132812 78.496094 129.625 78.707031 130.167969 78.707031 C 131.210938 78.707031 131.867188 78.039062 132.089844 77.074219 L 133.542969 77.074219 C 133.21875 78.96875 131.882812 80 130.167969 80 "/>
    <path style=" stroke:none;fill-rule:nonzero;fill:rgb(13.72549%,12.156863%,12.54902%);fill-opacity:1;" d="M 149.65625 79.914062 L 149.65625 73.59375 L 147.492188 78.195312 L 146.441406 78.195312 L 144.226562 73.59375 L 144.226562 79.914062 L 142.773438 79.914062 L 142.773438 70.449219 L 144.226562 70.449219 L 146.957031 76.355469 L 149.65625 70.449219 L 151.085938 70.449219 L 151.085938 79.914062 L 149.65625 79.914062 "/>
    <path style=" stroke:none;fill-rule:nonzero;fill:rgb(13.72549%,12.156863%,12.54902%);fill-opacity:1;" d="M 162.277344 75.191406 C 162.277344 73.363281 162.316406 72.324219 161.375 71.390625 C 160.726562 70.730469 159.914062 70.363281 158.894531 70.363281 C 157.882812 70.363281 157.066406 70.730469 156.421875 71.390625 C 155.496094 72.324219 155.496094 73.363281 155.496094 75.191406 C 155.496094 77.007812 155.496094 78.042969 156.421875 78.996094 C 157.066406 79.648438 157.882812 80 158.894531 80 C 159.914062 80 160.726562 79.648438 161.375 78.996094 C 162.316406 78.042969 162.277344 77.007812 162.277344 75.191406 Z M 160.851562 75.191406 C 160.851562 77.074219 160.761719 77.617188 160.292969 78.121094 C 159.960938 78.492188 159.449219 78.707031 158.894531 78.707031 C 158.339844 78.707031 157.816406 78.492188 157.488281 78.121094 C 157.027344 77.617188 156.929688 77.074219 156.929688 75.191406 C 156.929688 73.277344 157.027344 72.746094 157.488281 72.246094 C 157.816406 71.894531 158.339844 71.65625 158.894531 71.65625 C 159.449219 71.65625 159.960938 71.894531 160.292969 72.246094 C 160.761719 72.746094 160.851562 73.277344 160.851562 75.191406 "/>
    <path style=" stroke:none;fill-rule:nonzero;fill:rgb(13.72549%,12.156863%,12.54902%);fill-opacity:1;" d="M 169.609375 79.914062 L 168.492188 79.914062 L 165.417969 70.449219 L 166.894531 70.449219 L 169.0625 77.355469 L 171.222656 70.449219 L 172.714844 70.449219 L 169.609375 79.914062 "/>
    <path style=" stroke:none;fill-rule:nonzero;fill:rgb(13.72549%,12.156863%,12.54902%);fill-opacity:1;" d="M 176.332031 79.914062 L 177.777344 79.914062 L 177.777344 70.445312 L 176.332031 70.445312 Z M 176.332031 79.914062 "/>
    <path style=" stroke:none;fill-rule:nonzero;fill:rgb(13.72549%,12.156863%,12.54902%);fill-opacity:1;" d="M 182.542969 79.914062 L 182.542969 70.449219 L 188.566406 70.449219 L 188.566406 71.742188 L 183.976562 71.742188 L 183.976562 74.507812 L 187.890625 74.507812 L 187.890625 75.785156 L 183.976562 75.785156 L 183.976562 78.628906 L 188.566406 78.628906 L 188.566406 79.914062 L 182.542969 79.914062 "/>
    <path style=" stroke:none;fill-rule:nonzero;fill:rgb(13.72549%,12.156863%,12.54902%);fill-opacity:1;" d="M 195.324219 80 C 193.921875 80 192.90625 79.648438 191.988281 78.753906 L 192.949219 77.796875 C 193.640625 78.496094 194.398438 78.707031 195.355469 78.707031 C 196.59375 78.707031 197.304688 78.179688 197.304688 77.265625 C 197.304688 76.84375 197.191406 76.492188 196.9375 76.28125 C 196.691406 76.050781 196.457031 75.949219 195.902344 75.882812 L 194.78125 75.703125 C 194.015625 75.617188 193.410156 75.339844 193 74.957031 C 192.539062 74.523438 192.320312 73.914062 192.320312 73.152344 C 192.320312 71.503906 193.503906 70.363281 195.457031 70.363281 C 196.714844 70.363281 197.578125 70.691406 198.390625 71.457031 L 197.472656 72.363281 C 196.890625 71.804688 196.226562 71.625 195.414062 71.625 C 194.324219 71.625 193.707031 72.273438 193.707031 73.109375 C 193.707031 73.453125 193.8125 73.75 194.074219 73.984375 C 194.304688 74.191406 194.679688 74.355469 195.121094 74.414062 L 196.183594 74.582031 C 197.058594 74.707031 197.554688 74.929688 197.964844 75.269531 C 198.445312 75.722656 198.71875 76.40625 198.71875 77.210938 C 198.71875 78.957031 197.304688 80 195.324219 80 "/>
    <path style=" stroke:none;fill-rule:nonzero;fill:rgb(13.72549%,12.156863%,12.54902%);fill-opacity:1;" d="M 201.269531 60.871094 L 200.667969 60.871094 L 200.667969 56.472656 L 199.4375 56.472656 L 199.4375 55.933594 L 202.503906 55.933594 L 202.503906 56.472656 L 201.269531 56.472656 L 201.269531 60.871094 "/>
    <path style=" stroke:none;fill-rule:nonzero;fill:rgb(13.72549%,12.156863%,12.54902%);fill-opacity:1;" d="M 202.980469 55.933594 L 203.996094 55.933594 L 204.980469 59.847656 L 204.992188 59.847656 L 205.980469 55.933594 L 207 55.933594 L 207 60.871094 L 206.390625 60.871094 L 206.390625 56.554688 L 206.378906 56.554688 L 205.292969 60.871094 L 204.6875 60.871094 L 203.597656 56.554688 L 203.582031 56.554688 L 203.582031 60.871094 L 202.980469 60.871094 L 202.980469 55.933594 "/>
  </g>
</svg>