<?xml version="1.0" encoding="UTF-8" standalone="yes"?>
<svg xmlns="http://www.w3.org/2000/svg" xmlns:xlink="http://www.w3.org/1999/xlink" width="150.66666666666666px" height="106.66666666666666px" viewBox="0 0 113 80" version="1.1">
  <defs>
    <linearGradient id="linear0" gradientUnits="userSpaceOnUse" x1="178.2251" y1="220.022" x2="178.2251" y2="374.7116" gradientTransform="matrix(0.134204,0,0,0.134454,0,0)">
      <stop offset="0" style="stop-color:rgb(100%,100%,100%);stop-opacity:1;"/>
      <stop offset="1" style="stop-color:rgb(89.019608%,89.019608%,89.019608%);stop-opacity:1;"/>
    </linearGradient>
    <linearGradient id="linear1" gradientUnits="userSpaceOnUse" x1="426.9834" y1="220.0205" x2="426.9834" y2="374.7114" gradientTransform="matrix(0.134204,0,0,0.134454,0,0)">
      <stop offset="0" style="stop-color:rgb(100%,100%,100%);stop-opacity:1;"/>
      <stop offset="1" style="stop-color:rgb(89.019608%,89.019608%,89.019608%);stop-opacity:1;"/>
    </linearGradient>
    <linearGradient id="linear2" gradientUnits="userSpaceOnUse" x1="663.9746" y1="220.019" x2="663.9746" y2="374.7115" gradientTransform="matrix(0.134204,0,0,0.134454,0,0)">
      <stop offset="0" style="stop-color:rgb(100%,100%,100%);stop-opacity:1;"/>
      <stop offset="1" style="stop-color:rgb(89.019608%,89.019608%,89.019608%);stop-opacity:1;"/>
    </linearGradient>
    <linearGradient id="linear3" gradientUnits="userSpaceOnUse" x1="289.1797" y1="192.3999" x2="289.1797" y2="404.3461" gradientTransform="matrix(0.134204,0,0,0.134454,0,0)">
      <stop offset="0" style="stop-color:rgb(43.921569%,8.235294%,4.313725%);stop-opacity:1;"/>
      <stop offset="1" style="stop-color:rgb(25.098039%,3.137255%,0%);stop-opacity:1;"/>
    </linearGradient>
    <linearGradient id="linear4" gradientUnits="userSpaceOnUse" x1="182.5957" y1="193.9038" x2="182.5957" y2="189.3833" gradientTransform="matrix(0.134204,0,0,0.134454,0,0)">
      <stop offset="0" style="stop-color:rgb(65.882353%,9.411765%,8.235294%);stop-opacity:1;"/>
      <stop offset="1" style="stop-color:rgb(87.45098%,65.882353%,61.568627%);stop-opacity:1;"/>
    </linearGradient>
    <linearGradient id="linear5" gradientUnits="userSpaceOnUse" x1="76.5132" y1="189.9043" x2="76.5132" y2="407.1255" gradientTransform="matrix(0.134204,0,0,0.134454,0,0)">
      <stop offset="0" style="stop-color:rgb(84.705882%,22.745098%,22.745098%);stop-opacity:1;"/>
      <stop offset="1" style="stop-color:rgb(65.882353%,9.411765%,8.235294%);stop-opacity:1;"/>
    </linearGradient>
    <linearGradient id="linear6" gradientUnits="userSpaceOnUse" x1="528.0918" y1="192.3999" x2="528.0918" y2="404.3461" gradientTransform="matrix(0.134204,0,0,0.134454,0,0)">
      <stop offset="0" style="stop-color:rgb(43.921569%,8.235294%,4.313725%);stop-opacity:1;"/>
      <stop offset="1" style="stop-color:rgb(25.098039%,3.137255%,0%);stop-opacity:1;"/>
    </linearGradient>
    <linearGradient id="linear7" gradientUnits="userSpaceOnUse" x1="421.5083" y1="193.9038" x2="421.5083" y2="189.3833" gradientTransform="matrix(0.134204,0,0,0.134454,0,0)">
      <stop offset="0" style="stop-color:rgb(65.882353%,9.411765%,8.235294%);stop-opacity:1;"/>
      <stop offset="1" style="stop-color:rgb(87.45098%,65.882353%,61.568627%);stop-opacity:1;"/>
    </linearGradient>
    <linearGradient id="linear8" gradientUnits="userSpaceOnUse" x1="315.4258" y1="189.9043" x2="315.4258" y2="407.1255" gradientTransform="matrix(0.134204,0,0,0.134454,0,0)">
      <stop offset="0" style="stop-color:rgb(84.705882%,22.745098%,22.745098%);stop-opacity:1;"/>
      <stop offset="1" style="stop-color:rgb(65.882353%,9.411765%,8.235294%);stop-opacity:1;"/>
    </linearGradient>
    <linearGradient id="linear9" gradientUnits="userSpaceOnUse" x1="767.0508" y1="192.3999" x2="767.0508" y2="404.3461" gradientTransform="matrix(0.134204,0,0,0.134454,0,0)">
      <stop offset="0" style="stop-color:rgb(43.921569%,8.235294%,4.313725%);stop-opacity:1;"/>
      <stop offset="1" style="stop-color:rgb(25.098039%,3.137255%,0%);stop-opacity:1;"/>
    </linearGradient>
    <linearGradient id="linear10" gradientUnits="userSpaceOnUse" x1="660.4668" y1="193.9038" x2="660.4668" y2="189.3833" gradientTransform="matrix(0.134204,0,0,0.134454,0,0)">
      <stop offset="0" style="stop-color:rgb(65.882353%,9.411765%,8.235294%);stop-opacity:1;"/>
      <stop offset="1" style="stop-color:rgb(87.45098%,65.882353%,61.568627%);stop-opacity:1;"/>
    </linearGradient>
    <linearGradient id="linear11" gradientUnits="userSpaceOnUse" x1="554.3848" y1="189.9043" x2="554.3848" y2="407.1255" gradientTransform="matrix(0.134204,0,0,0.134454,0,0)">
      <stop offset="0" style="stop-color:rgb(84.705882%,22.745098%,22.745098%);stop-opacity:1;"/>
      <stop offset="1" style="stop-color:rgb(65.882353%,9.411765%,8.235294%);stop-opacity:1;"/>
    </linearGradient>
    <linearGradient id="linear12" gradientUnits="userSpaceOnUse" x1="98.5991" y1="368.584" x2="266.8504" y2="368.584" gradientTransform="matrix(0.134204,0,0,0.134454,0,0)">
      <stop offset="0" style="stop-color:rgb(43.921569%,8.235294%,4.313725%);stop-opacity:1;"/>
      <stop offset="1" style="stop-color:rgb(87.45098%,65.882353%,61.568627%);stop-opacity:1;"/>
    </linearGradient>
    <linearGradient id="linear13" gradientUnits="userSpaceOnUse" x1="183.0986" y1="195.9111" x2="183.0986" y2="400.8261" gradientTransform="matrix(0.134204,0,0,0.134454,0,0)">
      <stop offset="0" style="stop-color:rgb(65.882353%,9.411765%,8.235294%);stop-opacity:1;"/>
      <stop offset="1" style="stop-color:rgb(43.921569%,8.235294%,4.313725%);stop-opacity:1;"/>
    </linearGradient>
    <linearGradient id="linear14" gradientUnits="userSpaceOnUse" x1="422.043" y1="195.9111" x2="422.043" y2="400.8262" gradientTransform="matrix(0.134204,0,0,0.134454,0,0)">
      <stop offset="0" style="stop-color:rgb(65.882353%,9.411765%,8.235294%);stop-opacity:1;"/>
      <stop offset="1" style="stop-color:rgb(43.921569%,8.235294%,4.313725%);stop-opacity:1;"/>
    </linearGradient>
    <linearGradient id="linear15" gradientUnits="userSpaceOnUse" x1="660.9883" y1="195.9111" x2="660.9883" y2="400.8261" gradientTransform="matrix(0.134204,0,0,0.134454,0,0)">
      <stop offset="0" style="stop-color:rgb(65.882353%,9.411765%,8.235294%);stop-opacity:1;"/>
      <stop offset="1" style="stop-color:rgb(43.921569%,8.235294%,4.313725%);stop-opacity:1;"/>
    </linearGradient>
    <linearGradient id="linear16" gradientUnits="userSpaceOnUse" x1="183.0825" y1="324.4873" x2="183.0825" y2="191.8939" gradientTransform="matrix(0.134204,0,0,0.134454,0,0)">
      <stop offset="0" style="stop-color:rgb(100%,100%,100%);stop-opacity:1;"/>
      <stop offset="1" style="stop-color:rgb(43.921569%,8.235294%,4.313725%);stop-opacity:1;"/>
    </linearGradient>
    <linearGradient id="linear17" gradientUnits="userSpaceOnUse" x1="422.0234" y1="324.4873" x2="422.0234" y2="191.8934" gradientTransform="matrix(0.134204,0,0,0.134454,0,0)">
      <stop offset="0" style="stop-color:rgb(100%,100%,100%);stop-opacity:1;"/>
      <stop offset="1" style="stop-color:rgb(43.921569%,8.235294%,4.313725%);stop-opacity:1;"/>
    </linearGradient>
    <linearGradient id="linear18" gradientUnits="userSpaceOnUse" x1="660.9727" y1="324.4883" x2="660.9727" y2="191.8939" gradientTransform="matrix(0.134204,0,0,0.134454,0,0)">
      <stop offset="0" style="stop-color:rgb(100%,100%,100%);stop-opacity:1;"/>
      <stop offset="1" style="stop-color:rgb(43.921569%,8.235294%,4.313725%);stop-opacity:1;"/>
    </linearGradient>
    <filter id="alpha" filterUnits="objectBoundingBox" x="0%" y="0%" width="100%" height="100%">
      <feColorMatrix type="matrix" in="SourceGraphic" values="0 0 0 0 1 0 0 0 0 1 0 0 0 0 1 0 0 0 1 0"/>
    </filter>
    <mask id="mask0">
      <g filter="url(#alpha)">
        <rect x="0" y="0" width="113" height="80" style="fill:rgb(0%,0%,0%);fill-opacity:0.301961;stroke:none;"/>
      </g>
    </mask>
    <clipPath id="clip1">
      <rect width="113" height="80"/>
    </clipPath>
    <g id="surface6" clip-path="url(#clip1)">
      <path style=" stroke:none;fill-rule:nonzero;fill:rgb(100%,100%,100%);fill-opacity:1;" d="M 10.601562 26.140625 L 10.601562 41.515625 C 10.964844 41.328125 11.355469 41.136719 11.777344 40.941406 L 11.777344 39.453125 C 11.777344 37.902344 12.132812 36.703125 12.835938 35.890625 C 13.542969 35.074219 14.699219 34.558594 16.253906 34.355469 C 17.082031 34.21875 18.316406 34.148438 19.925781 34.148438 L 27.417969 34.148438 L 27.417969 29.695312 L 36.175781 29.695312 L 36.175781 41.761719 C 36.953125 41.984375 37.742188 42.191406 38.539062 42.375 L 38.539062 26.140625 Z M 10.601562 26.140625 "/>
      <path style=" stroke:none;fill-rule:nonzero;fill:url(#linear16);" d="M 10.601562 26.140625 L 10.601562 41.515625 C 10.964844 41.328125 11.355469 41.136719 11.777344 40.941406 L 11.777344 39.453125 C 11.777344 37.902344 12.132812 36.703125 12.835938 35.890625 C 13.542969 35.074219 14.699219 34.558594 16.253906 34.355469 C 17.082031 34.21875 18.316406 34.148438 19.925781 34.148438 L 27.417969 34.148438 L 27.417969 29.695312 L 36.175781 29.695312 L 36.175781 41.761719 C 36.953125 41.984375 37.742188 42.191406 38.539062 42.375 L 38.539062 26.140625 Z M 10.601562 26.140625 "/>
      <path style=" stroke:none;fill-rule:nonzero;fill:rgb(100%,100%,100%);fill-opacity:1;" d="M 44.320312 30.300781 L 44.320312 29.695312 L 53.035156 29.695312 L 53.035156 40.882812 L 60.117188 34.3125 L 60.292969 34.148438 L 70.605469 34.148438 L 70.605469 26.140625 L 42.667969 26.140625 L 42.667969 43.160156 C 43.21875 43.242188 43.769531 43.316406 44.320312 43.382812 Z M 44.320312 30.300781 "/>
      <path style=" stroke:none;fill-rule:nonzero;fill:url(#linear17);" d="M 44.320312 30.300781 L 44.320312 29.695312 L 53.035156 29.695312 L 53.035156 40.882812 L 60.117188 34.3125 L 60.292969 34.148438 L 70.605469 34.148438 L 70.605469 26.140625 L 42.667969 26.140625 L 42.667969 43.160156 C 43.21875 43.242188 43.769531 43.316406 44.320312 43.382812 Z M 44.320312 30.300781 "/>
      <path style=" stroke:none;fill-rule:nonzero;fill:rgb(100%,100%,100%);fill-opacity:1;" d="M 65.640625 39.558594 C 66.714844 39.785156 67.539062 40.175781 68.132812 40.738281 C 68.292969 40.890625 68.429688 41.066406 68.558594 41.25 C 69.332031 40.933594 70.019531 40.597656 70.605469 40.238281 L 70.605469 35.324219 Z M 65.640625 39.558594 "/>
      <path style=" stroke:none;fill-rule:nonzero;fill:rgb(100%,100%,100%);fill-opacity:1;" d="M 65.640625 39.558594 C 66.714844 39.785156 67.539062 40.175781 68.132812 40.738281 C 68.292969 40.890625 68.429688 41.066406 68.558594 41.25 C 69.332031 40.933594 70.019531 40.597656 70.605469 40.238281 L 70.605469 35.324219 Z M 65.640625 39.558594 "/>
      <path style=" stroke:none;fill-rule:nonzero;fill:rgb(100%,100%,100%);fill-opacity:1;" d="M 74.734375 26.140625 L 74.734375 36.8125 C 76.699219 35.996094 79.769531 35.457031 83.394531 35.253906 L 87.96875 29.90625 L 88.152344 29.695312 L 97.929688 29.695312 L 97.929688 36.070312 C 99.542969 36.335938 101.136719 36.660156 102.675781 37.050781 L 102.675781 26.140625 Z M 74.734375 26.140625 "/>
      <path style=" stroke:none;fill-rule:nonzero;fill:url(#linear18);" d="M 74.734375 26.140625 L 74.734375 36.8125 C 76.699219 35.996094 79.769531 35.457031 83.394531 35.253906 L 87.96875 29.90625 L 88.152344 29.695312 L 97.929688 29.695312 L 97.929688 36.070312 C 99.542969 36.335938 101.136719 36.660156 102.675781 37.050781 L 102.675781 26.140625 Z M 74.734375 26.140625 "/>
    </g>
  </defs>
  <g id="surface1">
    <path style=" stroke:none;fill-rule:nonzero;fill:url(#linear0);" d="M 36.726562 51.195312 L 19.867188 51.195312 C 18.273438 51.195312 17.128906 51.152344 16.359375 51.066406 C 14.542969 50.808594 13.265625 50.246094 12.414062 49.339844 C 11.550781 48.421875 11.113281 47.058594 11.113281 45.285156 L 11.113281 39.4375 C 11.113281 37.738281 11.519531 36.402344 12.324219 35.476562 C 13.125 34.554688 14.394531 33.96875 16.097656 33.742188 C 16.96875 33.597656 18.199219 33.527344 19.871094 33.527344 L 26.753906 33.527344 L 26.753906 29.074219 L 36.726562 29.074219 Z M 36.726562 51.195312 "/>
    <path style=" stroke:none;fill-rule:nonzero;fill:url(#linear1);" d="M 69.945312 51.195312 L 60.054688 51.195312 L 60.054688 46.101562 L 53.585938 46.101562 L 53.585938 51.195312 L 43.65625 51.195312 L 43.65625 29.074219 L 53.585938 29.074219 L 53.585938 39.476562 L 59.648438 33.851562 L 59.996094 33.527344 L 70.9375 33.527344 L 70.949219 35.667969 L 66.835938 39.273438 C 67.496094 39.527344 68.046875 39.863281 68.492188 40.285156 C 69.457031 41.195312 69.945312 42.636719 69.945312 44.566406 Z M 69.945312 51.195312 "/>
    <path style=" stroke:none;fill-rule:nonzero;fill:url(#linear2);" d="M 98.480469 51.195312 L 88.550781 51.195312 L 88.550781 48.171875 L 76.640625 48.171875 L 76.640625 42.128906 L 76.933594 41.789062 L 87.453125 29.496094 L 87.816406 29.074219 L 98.480469 29.074219 L 98.480469 40.808594 L 101.578125 40.808594 L 101.578125 48.171875 L 98.480469 48.171875 Z M 98.480469 51.195312 "/>
    <path style=" stroke:none;fill-rule:nonzero;fill:rgb(43.921569%,8.235294%,4.313725%);fill-opacity:1;" d="M 20.507812 44.269531 L 19.980469 44.699219 C 20.085938 44.886719 20.773438 44.976562 22.042969 44.976562 L 27.960938 44.976562 L 27.421875 44.371094 L 22.109375 44.371094 C 21.09375 44.371094 20.671875 44.308594 20.507812 44.269531 "/>
    <path style=" stroke:none;fill-rule:nonzero;fill:rgb(43.921569%,8.235294%,4.313725%);fill-opacity:1;" d="M 27.960938 44.976562 L 27.960938 39.765625 L 27.421875 40.375 L 27.421875 44.371094 Z M 27.960938 44.976562 "/>
    <path style=" stroke:none;fill-rule:nonzero;fill:rgb(84.705882%,22.745098%,22.745098%);fill-opacity:1;" d="M 20.496094 44.023438 L 20.496094 40.761719 C 20.496094 40.59375 20.507812 40.484375 20.519531 40.421875 C 20.71875 40.402344 21.164062 40.375 22.109375 40.375 L 27.421875 40.375 L 27.960938 39.765625 L 22.042969 39.765625 C 21.039062 39.765625 20.417969 39.792969 20.179688 39.847656 C 19.941406 39.898438 19.820312 40.203125 19.820312 40.761719 L 19.820312 44.023438 C 19.820312 44.023438 19.796875 44.433594 19.980469 44.699219 L 20.511719 44.269531 C 20.507812 44.269531 20.488281 44.113281 20.496094 44.023438 "/>
    <path style=" stroke:none;fill-rule:nonzero;fill:url(#linear3);" d="M 39.078125 54.730469 L 39.078125 25.523438 L 38.539062 26.132812 L 38.539062 54.125 Z M 39.078125 54.730469 "/>
    <path style=" stroke:none;fill-rule:nonzero;fill:rgb(25.098039%,3.137255%,0%);fill-opacity:1;" d="M 38.542969 54.125 L 10.601562 54.125 L 9.929688 54.734375 L 39.082031 54.734375 Z M 38.542969 54.125 "/>
    <path style=" stroke:none;fill-rule:nonzero;fill:url(#linear4);" d="M 39.082031 25.53125 L 9.929688 25.53125 L 10.601562 26.136719 L 38.542969 26.136719 Z M 39.082031 25.53125 "/>
    <path style=" stroke:none;fill-rule:nonzero;fill:url(#linear5);" d="M 10.605469 54.132812 L 10.605469 26.140625 L 9.929688 25.535156 L 9.929688 54.738281 Z M 10.605469 54.132812 "/>
    <path style=" stroke:none;fill-rule:nonzero;fill:url(#linear6);" d="M 71.140625 54.730469 L 71.140625 25.523438 L 70.601562 26.132812 L 70.601562 54.125 Z M 71.140625 54.730469 "/>
    <path style=" stroke:none;fill-rule:nonzero;fill:rgb(25.098039%,3.137255%,0%);fill-opacity:1;" d="M 70.605469 54.125 L 42.664062 54.125 L 41.992188 54.734375 L 71.144531 54.734375 Z M 70.605469 54.125 "/>
    <path style=" stroke:none;fill-rule:nonzero;fill:url(#linear7);" d="M 71.144531 25.53125 L 41.992188 25.53125 L 42.664062 26.136719 L 70.605469 26.136719 Z M 71.144531 25.53125 "/>
    <path style=" stroke:none;fill-rule:nonzero;fill:url(#linear8);" d="M 42.667969 54.132812 L 42.667969 26.140625 L 41.996094 25.535156 L 41.996094 54.738281 Z M 42.667969 54.132812 "/>
    <path style=" stroke:none;fill-rule:nonzero;fill:url(#linear9);" d="M 103.210938 54.730469 L 103.210938 25.523438 L 102.671875 26.132812 L 102.671875 54.125 Z M 103.210938 54.730469 "/>
    <path style=" stroke:none;fill-rule:nonzero;fill:rgb(25.098039%,3.137255%,0%);fill-opacity:1;" d="M 102.675781 54.125 L 74.734375 54.125 L 74.0625 54.734375 L 103.214844 54.734375 Z M 102.675781 54.125 "/>
    <path style=" stroke:none;fill-rule:nonzero;fill:url(#linear10);" d="M 103.214844 25.53125 L 74.0625 25.53125 L 74.734375 26.136719 L 102.675781 26.136719 Z M 103.214844 25.53125 "/>
    <path style=" stroke:none;fill-rule:nonzero;fill:url(#linear11);" d="M 74.738281 54.132812 L 74.738281 26.140625 L 74.0625 25.535156 L 74.0625 54.738281 Z M 74.738281 54.132812 "/>
    <path style=" stroke:none;fill-rule:nonzero;fill:rgb(84.705882%,22.745098%,22.745098%);fill-opacity:1;" d="M 36.179688 50.597656 L 36.179688 29.691406 L 35.503906 30.300781 L 35.503906 49.988281 Z M 36.179688 50.597656 "/>
    <path style=" stroke:none;fill-rule:nonzero;fill:url(#linear12);" d="M 12.921875 48.933594 C 13.664062 49.722656 14.855469 50.242188 16.472656 50.472656 C 17.234375 50.558594 18.359375 50.597656 19.933594 50.597656 L 36.183594 50.597656 L 35.507812 49.988281 L 19.863281 49.988281 C 18.328125 49.988281 17.207031 49.949219 16.492188 49.871094 C 15.007812 49.660156 13.941406 49.207031 13.292969 48.519531 Z M 12.921875 48.933594 "/>
    <path style=" stroke:none;fill-rule:nonzero;fill:rgb(43.921569%,8.235294%,4.313725%);fill-opacity:1;" d="M 36.179688 29.691406 L 27.421875 29.691406 L 27.421875 34.144531 L 19.929688 34.144531 C 18.320312 34.144531 17.085938 34.214844 16.257812 34.351562 C 14.703125 34.554688 13.546875 35.070312 12.839844 35.886719 C 12.136719 36.699219 11.78125 37.898438 11.78125 39.445312 L 11.78125 45.292969 C 11.78125 46.90625 12.164062 48.132812 12.917969 48.933594 L 13.292969 48.515625 C 12.644531 47.828125 12.320312 46.753906 12.320312 45.292969 L 12.320312 39.445312 C 12.320312 38.042969 12.621094 36.988281 13.230469 36.285156 C 13.839844 35.582031 14.859375 35.136719 16.289062 34.953125 C 17.082031 34.820312 18.273438 34.753906 19.863281 34.753906 L 27.960938 34.753906 L 27.960938 30.296875 L 35.503906 30.296875 Z M 36.179688 29.691406 "/>
    <path style=" stroke:none;fill-rule:nonzero;fill:rgb(87.45098%,65.882353%,61.568627%);fill-opacity:1;" d="M 52.363281 49.988281 L 44.859375 49.988281 L 44.320312 50.597656 L 53.039062 50.597656 Z M 52.363281 49.988281 "/>
    <path style=" stroke:none;fill-rule:nonzero;fill:rgb(84.705882%,22.745098%,22.745098%);fill-opacity:1;" d="M 53.039062 50.597656 L 53.039062 45.503906 L 52.367188 44.898438 L 52.367188 49.988281 Z M 53.039062 50.597656 "/>
    <path style=" stroke:none;fill-rule:nonzero;fill:rgb(87.45098%,65.882353%,61.568627%);fill-opacity:1;" d="M 53.039062 45.503906 L 60.554688 45.503906 C 60.554688 45.503906 60.71875 45.128906 60.789062 44.953125 C 60.324219 44.863281 59.074219 44.898438 59.074219 44.898438 L 52.363281 44.898438 Z M 53.039062 45.503906 "/>
    <path style=" stroke:none;fill-rule:nonzero;fill:rgb(43.921569%,8.235294%,4.313725%);fill-opacity:1;" d="M 60.554688 45.503906 C 60.652344 45.527344 60.71875 45.570312 60.71875 45.851562 L 60.71875 50.597656 L 61.257812 49.988281 L 61.257812 45.851562 C 61.257812 45.296875 61.046875 45.085938 60.789062 44.953125 Z M 60.554688 45.503906 "/>
    <path style=" stroke:none;fill-rule:nonzero;fill:rgb(84.705882%,22.745098%,22.745098%);fill-opacity:1;" d="M 68.722656 49.988281 L 61.257812 49.988281 L 60.71875 50.597656 L 69.394531 50.597656 Z M 68.722656 49.988281 "/>
    <path style=" stroke:none;fill-rule:nonzero;fill:rgb(43.921569%,8.235294%,4.313725%);fill-opacity:1;" d="M 69.394531 50.597656 L 69.394531 44.582031 C 69.394531 42.824219 68.972656 41.53125 68.132812 40.738281 C 67.539062 40.175781 66.71875 39.785156 65.644531 39.554688 L 64.15625 39.964844 C 65.769531 40.097656 66.9375 40.503906 67.652344 41.179688 C 68.363281 41.855469 68.722656 42.988281 68.722656 44.582031 L 68.722656 49.988281 Z M 69.394531 50.597656 "/>
    <path style=" stroke:none;fill-rule:nonzero;fill:rgb(84.705882%,22.745098%,22.745098%);fill-opacity:1;" d="M 70.609375 35.320312 L 70.609375 34.148438 L 70.269531 34.753906 L 64.160156 39.964844 L 65.644531 39.554688 L 70.613281 35.320312 "/>
    <path style=" stroke:none;fill-rule:nonzero;fill:rgb(43.921569%,8.235294%,4.313725%);fill-opacity:1;" d="M 70.609375 34.148438 L 60.292969 34.148438 L 60.121094 34.308594 L 53.039062 40.882812 L 52.363281 42.273438 L 60.464844 34.753906 L 70.269531 34.753906 Z M 70.609375 34.148438 "/>
    <path style=" stroke:none;fill-rule:nonzero;fill:rgb(84.705882%,22.745098%,22.745098%);fill-opacity:1;" d="M 53.039062 40.882812 L 53.039062 29.691406 L 52.367188 30.300781 L 52.367188 42.273438 Z M 53.039062 40.882812 "/>
    <path style=" stroke:none;fill-rule:nonzero;fill:rgb(43.921569%,8.235294%,4.313725%);fill-opacity:1;" d="M 44.863281 49.988281 L 44.863281 30.300781 L 52.367188 30.300781 L 53.039062 29.691406 L 44.324219 29.691406 L 44.324219 50.597656 Z M 44.863281 49.988281 "/>
    <path style=" stroke:none;fill-rule:nonzero;fill:rgb(43.921569%,8.235294%,4.313725%);fill-opacity:1;" d="M 89.75 42.039062 L 89.75 38.300781 L 89.210938 39.953125 L 89.210938 41.433594 Z M 89.75 42.039062 "/>
    <path style=" stroke:none;fill-rule:nonzero;fill:rgb(25.098039%,3.137255%,0%);fill-opacity:1;" d="M 89.214844 41.425781 L 87.957031 41.425781 L 86.578125 42.035156 L 89.753906 42.035156 Z M 89.214844 41.425781 "/>
    <path style=" stroke:none;fill-rule:nonzero;fill:rgb(84.705882%,22.745098%,22.745098%);fill-opacity:1;" d="M 87.949219 41.425781 L 89.207031 39.945312 L 89.746094 38.296875 L 86.570312 42.035156 Z M 87.949219 41.425781 "/>
    <path style=" stroke:none;fill-rule:nonzero;fill:rgb(84.705882%,22.745098%,22.745098%);fill-opacity:1;" d="M 89.761719 46.96875 L 77.847656 46.96875 L 77.3125 47.574219 L 89.222656 47.574219 Z M 89.761719 46.96875 "/>
    <path style=" stroke:none;fill-rule:nonzero;fill:rgb(43.921569%,8.235294%,4.313725%);fill-opacity:1;" d="M 89.753906 49.988281 L 89.753906 46.96875 L 89.214844 47.574219 L 89.214844 50.597656 Z M 89.753906 49.988281 "/>
    <path style=" stroke:none;fill-rule:nonzero;fill:rgb(84.705882%,22.745098%,22.745098%);fill-opacity:1;" d="M 89.21875 50.597656 L 97.9375 50.597656 L 97.9375 47.574219 L 101.035156 47.574219 L 100.359375 46.96875 L 97.261719 46.96875 L 97.261719 49.988281 L 89.757812 49.988281 Z M 89.21875 50.597656 "/>
    <path style=" stroke:none;fill-rule:nonzero;fill:rgb(43.921569%,8.235294%,4.313725%);fill-opacity:1;" d="M 101.023438 47.574219 L 101.023438 41.425781 L 100.347656 42.035156 L 100.347656 46.96875 Z M 101.023438 47.574219 "/>
    <path style=" stroke:none;fill-rule:nonzero;fill:rgb(25.098039%,3.137255%,0%);fill-opacity:1;" d="M 101.039062 41.425781 L 97.941406 41.425781 L 97.265625 42.035156 L 100.363281 42.035156 Z M 101.039062 41.425781 "/>
    <path style=" stroke:none;fill-rule:nonzero;fill:rgb(84.705882%,22.745098%,22.745098%);fill-opacity:1;" d="M 97.9375 41.425781 L 97.9375 29.695312 L 97.261719 30.300781 L 97.261719 42.035156 Z M 97.9375 41.425781 "/>
    <path style=" stroke:none;fill-rule:nonzero;fill:rgb(43.921569%,8.235294%,4.313725%);fill-opacity:1;" d="M 97.929688 29.695312 L 88.152344 29.695312 L 87.972656 29.90625 L 77.449219 42.195312 L 77.304688 42.367188 L 77.304688 47.574219 L 77.84375 46.96875 L 77.84375 42.589844 L 88.363281 30.300781 L 97.257812 30.300781 Z M 97.929688 29.695312 "/>
    <path style=" stroke:none;fill-rule:nonzero;fill:rgb(65.882353%,9.411765%,8.235294%);fill-opacity:1;" d="M 20.496094 40.761719 L 20.496094 44.023438 C 20.496094 44.140625 20.503906 44.222656 20.507812 44.269531 C 20.671875 44.308594 21.09375 44.371094 22.109375 44.371094 L 27.421875 44.371094 L 27.421875 40.375 L 22.109375 40.375 C 21.164062 40.375 20.71875 40.402344 20.519531 40.421875 C 20.507812 40.484375 20.496094 40.59375 20.496094 40.761719 Z M 20.496094 40.761719 "/>
    <path style=" stroke:none;fill-rule:nonzero;fill:url(#linear13);" d="M 38.542969 26.136719 L 10.601562 26.136719 L 10.601562 54.128906 L 38.542969 54.128906 Z M 36.175781 30.300781 L 36.175781 50.597656 L 19.929688 50.597656 C 18.355469 50.597656 17.230469 50.558594 16.46875 50.472656 C 14.851562 50.242188 13.65625 49.722656 12.917969 48.933594 C 12.160156 48.132812 11.777344 46.910156 11.777344 45.296875 L 11.777344 39.449219 C 11.777344 37.898438 12.132812 36.699219 12.839844 35.890625 C 13.546875 35.074219 14.703125 34.554688 16.253906 34.355469 C 17.082031 34.21875 18.320312 34.148438 19.929688 34.148438 L 27.421875 34.148438 L 27.421875 29.691406 L 36.175781 29.691406 Z M 36.175781 30.300781 "/>
    <path style=" stroke:none;fill-rule:nonzero;fill:url(#linear14);" d="M 70.609375 35.320312 L 65.644531 39.554688 C 66.71875 39.785156 67.539062 40.175781 68.132812 40.738281 C 68.972656 41.53125 69.394531 42.824219 69.394531 44.582031 L 69.394531 50.597656 L 60.71875 50.597656 L 60.71875 45.851562 C 60.71875 45.570312 60.652344 45.527344 60.554688 45.503906 L 53.039062 45.503906 L 53.039062 50.597656 L 44.320312 50.597656 L 44.320312 29.691406 L 53.039062 29.691406 L 53.039062 40.882812 L 60.121094 34.308594 L 60.292969 34.148438 L 70.609375 34.148438 L 70.609375 26.136719 L 42.671875 26.136719 L 42.671875 54.128906 L 70.609375 54.128906 Z M 70.609375 35.320312 "/>
    <path style=" stroke:none;fill-rule:nonzero;fill:rgb(65.882353%,9.411765%,8.235294%);fill-opacity:1;" d="M 89.214844 41.425781 L 89.214844 39.945312 L 87.957031 41.425781 Z M 89.214844 41.425781 "/>
    <path style=" stroke:none;fill-rule:nonzero;fill:url(#linear15);" d="M 74.738281 54.128906 L 102.675781 54.128906 L 102.675781 26.136719 L 74.738281 26.136719 Z M 77.304688 46.96875 L 77.304688 42.367188 L 77.449219 42.195312 L 87.972656 29.90625 L 88.152344 29.695312 L 97.933594 29.695312 L 97.933594 41.425781 L 101.027344 41.425781 L 101.027344 47.574219 L 97.933594 47.574219 L 97.933594 50.597656 L 89.214844 50.597656 L 89.214844 47.574219 L 77.304688 47.574219 Z M 77.304688 46.96875 "/>
    <use xlink:href="#surface6" mask="url(#mask0)"/>
  </g>
</svg>