<?xml version="1.0" encoding="UTF-8" standalone="no"?>
<!-- Created with Inkscape (http://www.inkscape.org/) -->

<svg
   xmlns:dc="http://purl.org/dc/elements/1.1/"
   xmlns:cc="http://creativecommons.org/ns#"
   xmlns:rdf="http://www.w3.org/1999/02/22-rdf-syntax-ns#"
   xmlns:svg="http://www.w3.org/2000/svg"
   xmlns="http://www.w3.org/2000/svg"
   xmlns:sodipodi="http://sodipodi.sourceforge.net/DTD/sodipodi-0.dtd"
   xmlns:inkscape="http://www.inkscape.org/namespaces/inkscape"
   version="1.0"
   width="300"
   height="50.46397"
   id="svg1968"
   inkscape:version="0.48.2 r9819"
   sodipodi:docname="AJAX1.svg">
  <metadata
     id="metadata10">
    <rdf:RDF>
      <cc:Work
         rdf:about="">
        <dc:format>image/svg+xml</dc:format>
        <dc:type
           rdf:resource="http://purl.org/dc/dcmitype/StillImage" />
        <dc:title></dc:title>
      </cc:Work>
    </rdf:RDF>
  </metadata>
  <sodipodi:namedview
     pagecolor="#ffffff"
     bordercolor="#666666"
     borderopacity="1"
     objecttolerance="10"
     gridtolerance="10"
     guidetolerance="10"
     inkscape:pageopacity="0"
     inkscape:pageshadow="2"
     inkscape:window-width="1280"
     inkscape:window-height="1004"
     id="namedview8"
     showgrid="false"
     inkscape:zoom="1.393091"
     inkscape:cx="171.87407"
     inkscape:cy="23.779489"
     inkscape:window-x="-8"
     inkscape:window-y="-8"
     inkscape:window-maximized="1"
     inkscape:current-layer="svg1968"
     fit-margin-top="0"
     fit-margin-left="0"
     fit-margin-right="0"
     fit-margin-bottom="0" />
  <defs
     id="defs1970">
    <inkscape:perspective
       sodipodi:type="inkscape:persp3d"
       inkscape:vp_x="0 : 124.01575 : 1"
       inkscape:vp_y="0 : 1000 : 0"
       inkscape:vp_z="921.25983 : 124.01575 : 1"
       inkscape:persp3d-origin="460.62991 : 82.677165 : 1"
       id="perspective12" />
    <style
       type="text/css"
       id="style2032" />
    <inkscape:perspective
       id="perspective2886"
       inkscape:persp3d-origin="0.5 : 0.33333333 : 1"
       inkscape:vp_z="1 : 0.5 : 1"
       inkscape:vp_y="0 : 1000 : 0"
       inkscape:vp_x="0 : 0.5 : 1"
       sodipodi:type="inkscape:persp3d" />
  </defs>
  <path
     d="m 193.31517,24.167391 c 16.77874,-25.3668296 -1.97216,2.90568 15.99121,-24.16449959 l -47.61809,0 c 18.10253,27.22721959 -1.27836,-1.88121001 15.9912,24.16449959 -18.47442,27.82316 3.50846,-5.32821 -17.41261,26.29656 l 50.4609,0 c -18.47654,-27.80445 2.222,3.34417 -17.41261,-26.29656 l 0,0 z m -85.68027,26.28198 50.85521,0.0146 -18.58106,-50.42270959 -13.37987,-0.0303 -18.89428,50.43838959 0,0 z m -57.884663,0.0146 56.502123,0 0,-50.46105959 -19.521825,0.007 -8.862206,27.45328959 -8.573251,-27.46069959 -19.544841,0 0,50.46105959 0,0 z m -28.783993,0 c 18.541184,0 25.230446,-9.6451 25.230446,-26.05836 C 46.523993,11.113321 37.279361,-0.20840859 22.743015,0.00291141 l -22.743015,0 0,50.46105959 20.966244,0 0,0 z"
     style="fill:#000000;fill-rule:evenodd;stroke:none"
     id="path2084"
     inkscape:connector-curvature="0" />
  <path
     style="font-size:286.10583496px;font-style:normal;font-variant:normal;font-weight:normal;font-stretch:normal;fill:#999999;fill-opacity:1;stroke:none;font-family:URW Gothic L;-inkscape-font-specification:URW Gothic L Book"
     d="m 214.33789,0.08639141 0,50.29851959 5.03282,0 0,-23.61785 30.35308,0 0,23.61785 5.03281,0 0,-50.29851959 -5.03281,0 0,22.12361959 -30.35308,0 0,-22.12361959 -5.03282,0 z m 44.61892,0 0,50.29851959 15.4479,0 c 7.55478,0 11.44018,-1.15298 15.86415,-3.73931 C 297.89171,42.153561 300,34.799071 300,25.406631 c 0,-9.4605 -2.04368,-16.9487996 -9.5304,-21.3727796 -4.76428,-2.85857 -8.63963,-3.94745999 -17.75984,-3.94745999 l -13.75295,0 z m 5.04028,4.56447999 8.91337,0 c 7.62287,0 10.95997,0.94945 14.77137,3.26353 5.7852,3.4711196 7.21843,9.8047796 7.21843,17.2915096 0,6.60194 -0.68716,12.38844 -5.31533,16.13181 -4.0156,3.19887 -7.75844,4.49014 -16.67447,4.49014 l -8.91337,0 0,-41.1769896 z"
     id="path2897"
     inkscape:connector-curvature="0" />
</svg>
