<?xml version="1.0" encoding="UTF-8" standalone="yes"?>
<svg xmlns="http://www.w3.org/2000/svg" xmlns:xlink="http://www.w3.org/1999/xlink" width="464px" height="106.66666666666666px" viewBox="0 0 348 80" version="1.1">
  <g id="surface1">
    <path style=" stroke:none;fill-rule:evenodd;fill:rgb(0%,0%,0%);fill-opacity:1;" d="M 0 80.074219 L 34.421875 80.074219 C 58.75 80.074219 73.660156 65.941406 73.660156 39.699219 C 73.660156 14.917969 58.972656 0 34.421875 0 L 0 0 Z M 0 80.074219 "/>
    <path style=" stroke:none;fill-rule:evenodd;fill:rgb(0%,0%,0%);fill-opacity:1;" d="M 79.105469 80.074219 L 168.347656 80.074219 L 168.347656 0 L 137.628906 0 L 123.617188 43.800781 L 109.824219 0 L 79.105469 0 Z M 79.105469 80.074219 "/>
    <path style=" stroke:none;fill-rule:evenodd;fill:rgb(0%,0%,0%);fill-opacity:1;" d="M 170.820312 80.074219 L 251.878906 80.074219 L 221.945312 0 L 200.753906 0 Z M 170.820312 80.074219 "/>
    <path style=" stroke:none;fill-rule:evenodd;fill:rgb(0%,0%,0%);fill-opacity:1;" d="M 253.832031 80.074219 L 334.554688 80.074219 L 306.304688 38.019531 L 332.199219 0 L 256.1875 0 L 282.308594 38.019531 Z M 253.832031 80.074219 "/>
    <path style=" stroke:none;fill-rule:nonzero;fill:rgb(0%,0%,0%);fill-opacity:1;" d="M 341.6875 73.714844 L 341.753906 73.714844 C 342.042969 73.714844 342.195312 73.839844 342.195312 74.074219 C 342.195312 74.3125 342.0625 74.417969 341.746094 74.417969 L 340.4375 74.417969 C 340.339844 74.417969 340.308594 74.46875 340.308594 74.542969 L 340.308594 79.707031 C 340.308594 80.003906 340.175781 80.160156 339.945312 80.160156 C 339.714844 80.160156 339.589844 80.015625 339.589844 79.707031 L 339.589844 74.542969 C 339.589844 74.429688 339.578125 74.417969 339.472656 74.417969 L 338.152344 74.417969 C 337.777344 74.417969 337.640625 74.332031 337.640625 74.082031 C 337.640625 73.820312 337.769531 73.714844 338.078125 73.714844 Z M 341.6875 73.714844 "/>
    <path style=" stroke:none;fill-rule:nonzero;fill:rgb(0%,0%,0%);fill-opacity:1;" d="M 345.523438 78.886719 C 345.351562 78.886719 345.207031 78.765625 345.058594 78.472656 L 343.722656 75.765625 C 343.722656 75.765625 343.679688 75.671875 343.652344 75.671875 C 343.617188 75.671875 343.625 75.726562 343.625 75.816406 L 343.617188 79.65625 L 343.617188 79.746094 C 343.617188 79.996094 343.476562 80.148438 343.261719 80.148438 C 343.042969 80.148438 342.914062 79.996094 342.914062 79.742188 L 342.914062 74.160156 C 342.914062 73.800781 343.019531 73.660156 343.242188 73.660156 C 343.414062 73.660156 343.539062 73.773438 343.683594 74.082031 L 345.453125 77.636719 C 345.453125 77.636719 345.480469 77.683594 345.527344 77.683594 C 345.574219 77.683594 345.597656 77.636719 345.597656 77.636719 L 347.359375 74.101562 C 347.511719 73.773438 347.636719 73.65625 347.808594 73.65625 C 348.03125 73.65625 348.136719 73.800781 348.136719 74.128906 L 348.136719 79.742188 C 348.136719 79.996094 348.011719 80.148438 347.789062 80.148438 C 347.578125 80.148438 347.433594 79.996094 347.433594 79.746094 L 347.433594 79.65625 L 347.425781 75.8125 C 347.425781 75.726562 347.4375 75.671875 347.402344 75.671875 C 347.371094 75.671875 347.328125 75.765625 347.328125 75.765625 L 345.992188 78.472656 C 345.847656 78.765625 345.699219 78.886719 345.523438 78.886719 "/>
    <path style=" stroke:none;fill-rule:evenodd;fill:rgb(0%,0%,0%);fill-opacity:1;" d="M 345.523438 78.886719 C 345.351562 78.886719 345.207031 78.765625 345.058594 78.472656 L 343.722656 75.765625 C 343.722656 75.765625 343.679688 75.671875 343.652344 75.671875 C 343.617188 75.671875 343.625 75.726562 343.625 75.816406 L 343.617188 79.65625 L 343.617188 79.746094 C 343.617188 79.996094 343.476562 80.148438 343.261719 80.148438 C 343.042969 80.148438 342.914062 79.996094 342.914062 79.742188 L 342.914062 74.128906 C 342.914062 73.800781 343.019531 73.660156 343.242188 73.660156 C 343.414062 73.660156 343.539062 73.773438 343.683594 74.082031 L 343.695312 74.101562 L 345.453125 77.636719 C 345.453125 77.636719 345.480469 77.683594 345.527344 77.683594 C 345.574219 77.683594 345.597656 77.636719 345.597656 77.636719 L 347.359375 74.101562 L 347.367188 74.082031 C 347.511719 73.773438 347.636719 73.660156 347.808594 73.660156 C 348.03125 73.660156 348.136719 73.800781 348.136719 74.128906 L 348.136719 79.742188 C 348.136719 79.996094 348.011719 80.148438 347.789062 80.148438 C 347.578125 80.148438 347.433594 79.996094 347.433594 79.746094 L 347.433594 79.65625 L 347.425781 75.816406 C 347.425781 75.726562 347.4375 75.671875 347.402344 75.671875 C 347.371094 75.671875 347.328125 75.765625 347.328125 75.765625 L 345.992188 78.472656 C 345.847656 78.765625 345.699219 78.886719 345.523438 78.886719 "/>
    <path style=" stroke:none;fill-rule:nonzero;fill:rgb(0%,0%,0%);fill-opacity:1;" d="M 341.6875 73.714844 L 341.753906 73.714844 C 342.042969 73.714844 342.195312 73.839844 342.195312 74.074219 C 342.195312 74.3125 342.0625 74.417969 341.746094 74.417969 L 340.398438 74.417969 C 340.339844 74.417969 340.308594 74.46875 340.308594 74.542969 L 340.308594 79.707031 C 340.308594 80.003906 340.175781 80.160156 339.945312 80.160156 C 339.710938 80.160156 339.585938 80.015625 339.585938 79.707031 L 339.585938 74.523438 C 339.585938 74.429688 339.578125 74.417969 339.472656 74.417969 L 338.125 74.417969 C 337.777344 74.417969 337.640625 74.332031 337.640625 74.082031 C 337.640625 73.820312 337.765625 73.714844 338.078125 73.714844 Z M 341.6875 73.714844 "/>
  </g>
</svg>