<?xml version="1.0" encoding="UTF-8" ?>
<!DOCTYPE svg PUBLIC "-//W3C//DTD SVG 1.1//EN" "http://www.w3.org/Graphics/SVG/1.1/DTD/svg11.dtd">
<svg width="1420pt" height="624pt" viewBox="0 0 1420 624" version="1.1" xmlns="http://www.w3.org/2000/svg">
<g id="#50b848ff">
<path fill="#50b848" opacity="1.00" d=" M 797.20 0.00 L 1350.93 0.00 C 1373.28 202.30 1395.66 404.60 1418.07 606.90 C 1418.58 611.51 1418.90 616.16 1420.00 620.69 L 1420.00 624.00 L 1417.51 624.00 C 1354.35 616.61 1291.15 609.58 1227.98 602.31 C 1117.41 589.76 1006.85 577.08 896.27 564.52 C 863.26 560.59 830.17 557.28 797.20 553.02 C 797.22 368.68 797.21 184.34 797.20 0.00 M 1074.43 180.69 C 1046.11 184.62 1020.09 201.96 1005.53 226.56 C 989.53 252.98 987.48 287.37 1000.64 315.36 C 1011.27 338.77 1031.62 357.56 1055.86 366.14 C 1081.21 375.37 1110.42 373.11 1134.07 360.13 C 1151.85 350.60 1166.50 335.30 1175.14 317.06 C 1184.27 298.47 1186.73 276.82 1182.61 256.57 C 1178.78 237.22 1168.58 219.25 1154.14 205.84 C 1133.21 185.92 1102.99 176.53 1074.43 180.69 M 846.25 183.12 C 846.31 204.75 846.26 226.37 846.29 248.00 C 846.31 251.23 846.43 254.48 845.95 257.69 C 837.70 257.72 829.43 257.34 821.20 257.84 C 821.21 267.52 821.15 277.19 821.17 286.86 C 829.50 286.94 837.83 286.73 846.17 286.95 C 846.46 314.17 846.17 341.41 846.31 368.64 C 869.56 368.44 892.82 368.66 916.07 368.53 C 930.34 367.98 944.94 364.23 956.44 355.45 C 968.21 346.59 976.16 332.94 978.57 318.45 C 980.82 302.78 974.65 285.79 961.99 276.03 C 958.54 273.31 954.44 271.65 950.47 269.86 C 956.44 264.98 962.26 259.55 965.28 252.29 C 972.47 236.97 968.14 218.59 958.84 205.16 C 949.81 191.80 933.98 184.12 918.09 183.26 C 905.40 182.60 892.69 183.05 880.00 182.92 C 868.75 183.04 857.49 182.67 846.25 183.12 M 1173.89 183.88 C 1179.99 194.39 1186.87 204.43 1193.27 214.76 C 1205.57 234.11 1217.89 253.45 1230.18 272.80 C 1231.07 273.77 1230.87 275.06 1230.12 276.06 C 1210.83 306.66 1191.22 337.06 1172.08 367.75 C 1185.58 367.59 1199.09 367.82 1212.59 367.63 C 1224.77 346.05 1236.88 324.43 1249.24 302.95 C 1252.05 306.87 1254.13 311.23 1256.62 315.36 C 1266.53 332.80 1276.71 350.09 1286.48 367.61 C 1299.98 367.79 1313.50 367.68 1327.01 367.67 C 1308.03 336.84 1288.45 306.36 1269.33 275.61 C 1268.16 274.13 1269.74 272.68 1270.39 271.38 C 1279.69 256.68 1288.96 241.94 1298.23 227.21 C 1307.16 212.74 1316.65 198.58 1325.23 183.90 C 1311.86 183.57 1298.48 183.67 1285.11 183.84 C 1276.70 198.58 1268.51 213.46 1260.22 228.27 C 1256.43 234.54 1253.43 241.31 1249.19 247.29 C 1239.55 230.33 1230.35 213.13 1220.88 196.08 C 1218.39 192.11 1216.75 187.58 1213.87 183.90 C 1200.56 183.57 1187.21 183.64 1173.89 183.88 M 1158.90 431.17 C 1158.50 452.44 1158.84 473.72 1158.73 495.00 C 1158.95 506.56 1158.28 518.16 1159.06 529.69 C 1168.94 529.58 1178.81 529.61 1188.69 529.67 C 1188.79 518.02 1188.53 506.36 1188.81 494.72 C 1197.24 494.49 1205.70 494.48 1214.15 494.72 C 1214.43 506.37 1214.13 518.03 1214.28 529.68 C 1224.16 529.60 1234.03 529.58 1243.91 529.69 C 1244.54 523.48 1244.07 517.23 1244.21 511.00 C 1244.10 484.39 1244.42 457.78 1244.06 431.18 C 1234.12 431.19 1224.18 431.12 1214.24 431.21 C 1214.17 442.82 1214.42 454.42 1214.13 466.02 C 1205.69 466.09 1197.25 466.11 1188.82 466.01 C 1188.54 454.41 1188.75 442.80 1188.73 431.20 C 1178.78 431.13 1168.84 431.19 1158.90 431.17 M 1256.09 431.14 C 1255.80 438.76 1256.02 446.38 1255.96 454.00 C 1256.10 479.23 1255.67 504.47 1256.17 529.69 C 1271.47 529.50 1286.77 529.70 1302.07 529.58 C 1316.99 529.03 1332.15 522.29 1341.04 510.01 C 1354.34 492.15 1353.33 465.15 1338.65 448.38 C 1329.41 437.53 1315.25 431.26 1301.05 431.20 C 1286.06 431.08 1271.07 431.19 1256.09 431.14 Z" />
<path fill="#50b848" opacity="1.00" d=" M 84.94 183.28 C 86.30 182.56 87.93 182.61 89.10 183.67 C 87.78 184.59 86.06 184.43 84.94 183.28 Z" />
<path fill="#50b848" opacity="1.00" d=" M 326.15 189.77 C 322.70 187.38 330.07 187.07 328.47 190.21 C 327.89 190.10 326.73 189.88 326.15 189.77 Z" />
<path fill="#50b848" opacity="1.00" d=" M 276.74 199.01 C 278.27 195.80 279.87 201.05 276.75 199.69 L 276.74 199.01 Z" />
<path fill="#50b848" opacity="1.00" d=" M 243.41 202.49 C 243.35 205.13 240.14 202.08 242.80 202.09 L 243.41 202.49 Z" />
<path fill="#50b848" opacity="1.00" d=" M 273.46 205.25 C 272.17 205.65 269.88 204.05 271.87 203.14 C 273.30 203.29 273.83 203.99 273.46 205.25 Z" />
<path fill="#50b848" opacity="1.00" d=" M 435.46 210.80 C 435.55 210.71 435.71 210.52 435.79 210.43 C 435.71 210.52 435.55 210.71 435.46 210.80 Z" />
<path fill="#50b848" opacity="1.00" d=" M 293.41 212.84 C 293.50 212.65 293.68 212.28 293.77 212.09 L 293.74 212.54 L 293.41 212.84 Z" />
<path fill="#50b848" opacity="1.00" d=" M 581.32 214.36 C 581.39 214.46 581.55 214.65 581.63 214.75 C 581.55 214.65 581.39 214.46 581.32 214.36 Z" />
<path fill="#50b848" opacity="1.00" d=" M 500.70 215.68 C 504.53 214.94 508.48 214.92 512.31 215.64 C 508.44 215.81 504.57 215.80 500.70 215.68 Z" />
<path fill="#50b848" opacity="1.00" d=" M 880.35 215.37 C 888.56 215.50 896.78 215.44 904.99 215.44 C 910.25 215.42 915.74 215.05 920.67 217.30 C 928.91 220.43 935.24 229.02 934.18 238.03 C 932.70 249.38 921.41 258.44 910.03 257.65 C 900.13 257.60 890.23 257.61 880.34 257.66 C 880.39 243.56 880.36 229.47 880.35 215.37 Z" />
<path fill="#50b848" opacity="1.00" d=" M 1080.42 216.63 C 1092.64 215.06 1105.40 216.86 1116.37 222.62 C 1131.00 229.95 1142.17 243.66 1146.59 259.40 C 1150.68 273.60 1149.12 289.32 1142.50 302.52 C 1136.40 314.80 1125.89 324.81 1113.35 330.35 C 1099.04 336.73 1082.15 337.23 1067.56 331.48 C 1053.31 326.04 1041.29 314.93 1034.93 301.05 C 1028.33 287.25 1027.53 270.89 1032.49 256.44 C 1039.34 235.55 1058.66 219.60 1080.42 216.63 Z" />
<path fill="#50b848" opacity="1.00" d=" M 298.25 225.36 L 299.16 225.23 C 298.92 225.70 298.46 226.63 298.23 227.10 L 297.78 226.32 L 298.25 225.36 Z" />
<path fill="#50b848" opacity="1.00" d=" M 279.30 231.12 C 278.16 230.19 278.42 227.13 280.21 227.30 C 280.26 228.63 279.97 229.96 279.30 231.12 Z" />
<path fill="#50b848" opacity="1.00" d=" M 340.01 228.91 C 340.20 228.42 340.58 227.44 340.77 226.96 L 341.29 227.74 L 340.89 228.73 L 340.01 228.91 Z" />
<path fill="#50b848" opacity="1.00" d=" M 328.16 230.17 C 328.34 230.28 328.69 230.49 328.87 230.59 L 328.35 230.65 L 328.16 230.17 Z" />
<path fill="#50b848" opacity="1.00" d=" M 117.29 231.35 C 117.39 231.43 117.58 231.60 117.67 231.68 C 117.58 231.60 117.39 231.43 117.29 231.35 Z" />
<path fill="#50b848" opacity="1.00" d=" M 257.15 232.19 L 257.54 231.85 C 257.44 231.93 257.25 232.11 257.15 232.19 Z" />
<path fill="#50b848" opacity="1.00" d=" M 278.27 232.72 C 278.43 232.55 278.75 232.20 278.91 232.03 L 278.73 232.55 L 278.27 232.72 Z" />
<path fill="#50b848" opacity="1.00" d=" M 244.17 238.48 C 243.53 237.24 243.87 236.40 245.17 235.96 C 245.34 236.25 245.67 236.84 245.83 237.14 C 245.85 238.39 245.30 238.84 244.17 238.48 Z" />
<path fill="#50b848" opacity="1.00" d=" M 213.35 239.73 C 213.41 239.63 213.55 239.41 213.61 239.31 C 213.55 239.41 213.41 239.63 213.35 239.73 Z" />
<path fill="#50b848" opacity="1.00" d=" M 320.84 251.40 C 322.80 250.86 322.88 255.12 320.88 254.52 C 320.82 253.47 320.81 252.43 320.84 251.40 Z" />
<path fill="#50b848" opacity="1.00" d=" M 247.32 259.27 C 246.81 257.62 247.42 256.94 249.12 257.22 C 248.93 258.26 248.33 258.95 247.32 259.27 Z" />
<path fill="#50b848" opacity="1.00" d=" M 336.23 266.25 C 336.71 265.24 337.28 264.27 337.90 263.34 C 338.70 264.56 338.63 265.74 337.68 266.91 L 336.92 267.24 C 336.75 266.99 336.40 266.50 336.23 266.25 Z" />
<path fill="#50b848" opacity="1.00" d=" M 241.46 267.76 C 241.52 267.65 241.64 267.43 241.69 267.31 C 241.64 267.43 241.52 267.65 241.46 267.76 Z" />
<path fill="#50b848" opacity="1.00" d=" M 388.18 270.23 C 389.47 270.75 389.67 271.57 388.79 272.68 C 388.43 272.75 387.71 272.87 387.34 272.93 C 386.54 271.71 386.81 270.81 388.18 270.23 Z" />
<path fill="#50b848" opacity="1.00" d=" M 302.96 288.03 C 303.16 287.53 303.56 286.53 303.76 286.03 L 304.27 286.79 L 303.86 287.81 L 302.96 288.03 Z" />
<path fill="#50b848" opacity="1.00" d=" M 880.30 287.12 C 887.18 286.56 894.10 286.99 901.00 286.86 C 909.95 286.95 919.45 286.11 927.70 290.30 C 937.33 294.82 943.10 306.28 940.65 316.69 C 938.80 324.70 932.23 330.97 924.66 333.74 C 917.80 336.56 910.24 335.96 903.00 336.04 C 895.43 335.93 887.85 336.26 880.30 335.83 C 880.41 319.59 880.40 303.35 880.30 287.12 Z" />
<path fill="#50b848" opacity="1.00" d=" M 301.90 290.83 C 302.15 290.35 302.65 289.40 302.89 288.93 L 303.31 289.74 L 302.80 290.71 L 301.90 290.83 Z" />
<path fill="#50b848" opacity="1.00" d=" M 416.30 304.01 C 416.51 304.49 416.93 305.47 417.13 305.96 C 416.81 305.66 416.15 305.06 415.82 304.77 L 416.30 304.01 Z" />
<path fill="#50b848" opacity="1.00" d=" M 417.18 306.87 C 417.41 307.36 417.86 308.33 418.09 308.82 C 417.75 308.53 417.08 307.95 416.74 307.66 L 417.18 306.87 Z" />
<path fill="#50b848" opacity="1.00" d=" M 554.33 309.74 C 554.40 309.64 554.54 309.43 554.61 309.32 C 554.54 309.43 554.40 309.64 554.33 309.74 Z" />
<path fill="#50b848" opacity="1.00" d=" M 123.36 312.72 C 123.44 312.62 123.59 312.44 123.67 312.34 C 123.59 312.44 123.44 312.62 123.36 312.72 Z" />
<path fill="#50b848" opacity="1.00" d=" M 729.39 315.70 C 729.45 315.57 729.57 315.30 729.63 315.17 C 729.57 315.30 729.45 315.57 729.39 315.70 Z" />
<path fill="#50b848" opacity="1.00" d=" M 163.40 319.69 C 163.45 319.60 163.56 319.41 163.61 319.31 C 163.56 319.41 163.45 319.60 163.40 319.69 Z" />
<path fill="#50b848" opacity="1.00" d=" M 658.29 320.33 C 658.36 320.44 658.51 320.66 658.58 320.77 C 658.51 320.66 658.36 320.44 658.29 320.33 Z" />
<path fill="#50b848" opacity="1.00" d=" M 334.02 331.39 C 335.97 331.29 335.91 335.79 333.94 335.60 C 333.93 334.19 333.96 332.79 334.02 331.39 Z" />
<path fill="#50b848" opacity="1.00" d=" M 501.70 333.35 C 505.23 333.15 508.76 333.17 512.29 333.34 C 508.79 333.96 505.20 333.97 501.70 333.35 Z" />
<path fill="#50b848" opacity="1.00" d=" M 288.14 334.10 C 289.44 334.69 289.47 335.32 288.21 335.99 C 288.19 335.52 288.15 334.57 288.14 334.10 Z" />
<path fill="#50b848" opacity="1.00" d=" M 331.77 341.79 C 332.04 341.34 332.57 340.43 332.84 339.97 L 333.24 340.78 L 332.70 341.72 L 331.77 341.79 Z" />
<path fill="#50b848" opacity="1.00" d=" M 268.24 358.76 C 268.36 358.63 268.60 358.38 268.72 358.26 C 268.60 358.38 268.36 358.63 268.24 358.76 Z" />
<path fill="#50b848" opacity="1.00" d=" M 0.00 366.12 C 28.08 366.35 56.16 365.92 84.24 366.34 C 78.18 366.94 72.08 366.54 66.00 366.65 C 44.00 366.72 22.00 366.50 0.00 366.75 L 0.00 366.12 Z" />
<path fill="#50b848" opacity="1.00" d=" M 1285.93 459.76 C 1294.04 459.89 1303.03 458.09 1310.29 462.71 C 1322.25 470.04 1322.85 490.29 1310.85 497.87 C 1303.46 502.68 1294.22 500.82 1285.92 501.05 C 1285.77 487.29 1285.77 473.52 1285.93 459.76 Z" />
</g>
<g id="#000101ff">
<path fill="#000101" opacity="1.00" d=" M 435.79 210.43 C 461.03 181.68 504.37 171.92 540.00 185.01 C 556.10 190.75 570.68 200.95 581.32 214.36 C 581.39 214.46 581.55 214.65 581.63 214.75 C 584.65 219.08 588.69 223.13 589.94 228.39 C 577.54 231.00 565.47 234.99 553.06 237.57 C 548.18 231.88 542.78 226.42 536.00 223.02 C 528.70 218.95 520.52 216.87 512.31 215.64 C 508.48 214.92 504.53 214.94 500.70 215.68 C 491.59 217.00 482.37 219.30 474.73 224.67 C 460.69 233.60 452.62 249.75 450.53 265.92 C 450.01 275.10 449.77 284.53 452.67 293.38 C 456.61 308.56 467.46 321.91 481.94 328.16 C 488.14 331.13 494.95 332.36 501.70 333.35 C 505.20 333.97 508.79 333.96 512.29 333.34 C 519.50 332.25 526.70 330.54 533.29 327.34 C 541.70 323.46 548.87 317.17 554.33 309.74 C 554.40 309.64 554.54 309.43 554.61 309.32 C 555.01 308.68 555.80 307.38 556.19 306.73 C 559.58 306.98 562.81 308.11 566.08 308.98 C 575.10 311.33 584.14 313.63 593.11 316.16 C 579.01 348.67 544.18 370.10 508.99 369.96 C 488.55 370.68 467.99 364.43 451.25 352.72 C 438.44 343.59 427.74 331.27 421.14 316.94 C 419.93 314.33 418.26 311.76 418.09 308.82 C 417.86 308.33 417.41 307.36 417.18 306.87 L 417.13 305.96 C 416.93 305.47 416.51 304.49 416.30 304.01 C 412.07 292.21 411.49 279.36 412.17 266.92 C 413.45 246.32 421.65 226.18 435.46 210.80 C 435.55 210.71 435.71 210.52 435.79 210.43 Z" />
<path fill="#000101" opacity="1.00" d=" M 281.35 180.37 C 304.55 177.73 328.62 183.91 347.81 197.20 C 363.08 207.53 375.13 222.38 382.65 239.17 C 390.88 257.86 392.77 279.08 388.89 299.06 C 385.21 316.67 376.66 333.24 364.36 346.39 C 349.13 362.84 328.19 374.05 305.91 377.02 C 275.38 381.77 242.81 370.92 221.36 348.65 C 206.37 334.01 196.65 314.25 193.56 293.58 C 190.38 271.23 194.60 247.71 206.37 228.35 C 222.07 201.85 250.57 183.22 281.35 180.37 M 284.30 182.28 C 263.63 183.78 243.42 192.12 227.95 205.94 C 225.80 208.37 222.52 210.03 221.38 213.21 C 219.72 212.76 219.04 213.39 219.33 215.10 C 216.95 216.41 215.62 218.96 213.94 221.01 C 200.50 238.90 193.52 261.60 194.79 283.95 C 195.80 303.71 203.04 323.09 215.28 338.63 C 225.41 351.38 238.60 361.92 253.72 368.09 C 248.92 360.90 248.08 351.90 247.37 343.51 C 243.40 338.85 238.88 334.52 236.22 328.91 C 234.07 324.98 232.81 319.60 235.72 315.74 C 237.32 313.50 236.92 310.46 236.03 308.03 C 234.13 307.18 231.87 307.16 230.22 305.77 C 227.78 304.34 227.42 301.30 225.73 299.25 C 224.17 297.40 222.92 295.33 221.82 293.19 C 220.85 290.71 217.96 290.36 216.00 289.00 C 211.67 283.39 212.12 275.93 209.49 269.68 C 209.27 271.63 209.14 273.59 208.93 275.55 C 208.08 274.75 207.53 273.79 207.29 272.67 C 206.11 264.70 208.49 256.87 209.13 248.97 C 209.51 245.52 211.56 242.60 213.35 239.73 C 213.41 239.63 213.55 239.41 213.61 239.31 C 215.16 237.27 215.45 234.70 216.35 232.40 C 220.48 226.57 223.00 219.83 225.82 213.32 C 225.10 212.57 224.38 211.84 223.64 211.13 C 226.02 208.63 228.54 206.23 231.48 204.40 C 236.13 201.43 240.52 197.56 246.17 196.73 C 245.20 198.61 244.08 200.40 242.80 202.09 C 240.14 202.08 243.35 205.13 243.41 202.49 C 243.76 202.56 244.47 202.70 244.82 202.76 C 245.41 204.18 245.98 205.60 246.56 207.02 C 247.86 205.55 248.33 203.65 248.96 201.85 C 249.95 200.69 251.56 200.38 252.87 199.71 C 253.86 200.98 254.92 202.21 256.07 203.36 C 259.78 201.85 263.41 200.14 266.78 197.94 C 271.37 196.25 276.13 194.79 281.02 194.28 C 282.95 193.97 284.86 194.51 286.55 195.43 C 289.39 197.01 292.77 196.11 295.80 197.03 C 295.50 198.10 295.19 199.17 294.87 200.23 C 295.63 200.35 297.14 200.57 297.89 200.69 C 297.19 202.27 295.69 203.21 294.57 204.46 C 294.20 206.99 294.02 209.54 293.77 212.09 C 293.68 212.28 293.50 212.65 293.41 212.84 C 292.69 213.52 292.01 214.22 291.35 214.95 C 291.93 217.26 290.59 219.37 290.53 221.66 C 286.45 221.20 281.02 222.70 280.21 227.30 C 278.42 227.13 278.16 230.19 279.30 231.12 L 278.91 232.03 C 278.75 232.20 278.43 232.55 278.27 232.72 C 276.52 233.70 273.98 234.47 272.80 232.26 C 270.70 227.39 271.41 221.87 273.23 217.05 C 272.87 212.99 276.30 209.23 274.42 205.32 L 273.46 205.25 C 273.83 203.99 273.30 203.29 271.87 203.14 C 273.50 202.00 275.25 201.01 276.75 199.69 C 279.87 201.05 278.27 195.80 276.74 199.01 C 273.16 201.21 268.47 201.90 265.65 205.13 C 265.52 208.54 265.86 211.97 265.46 215.37 C 265.09 216.94 266.57 218.15 266.53 219.66 C 265.74 220.68 264.33 220.90 263.24 221.50 C 262.85 223.44 262.33 225.41 260.94 226.92 C 258.36 226.16 258.36 222.89 256.01 222.01 C 256.65 225.37 257.50 228.74 257.15 232.19 C 257.25 232.11 257.44 231.93 257.54 231.85 C 258.46 231.00 259.38 230.16 260.31 229.32 C 262.12 231.38 261.19 234.33 262.07 236.74 C 263.03 238.64 264.33 240.36 265.53 242.12 C 263.63 246.06 259.08 247.02 255.43 248.61 C 254.31 249.83 255.60 251.20 255.99 252.42 C 257.67 251.76 259.62 251.30 260.69 249.69 C 261.97 248.54 262.60 246.19 264.62 246.25 C 265.53 248.35 266.26 250.56 266.29 252.87 C 262.06 253.38 257.84 254.18 254.03 256.17 C 253.29 255.47 252.54 254.78 251.80 254.08 C 250.81 255.02 249.45 255.78 249.12 257.22 C 247.42 256.94 246.81 257.62 247.32 259.27 C 244.61 261.17 243.39 264.56 241.69 267.31 C 241.64 267.43 241.52 267.65 241.46 267.76 C 239.05 272.17 237.78 277.06 236.72 281.94 C 235.24 281.57 233.69 281.37 232.35 280.61 C 231.48 278.30 231.73 275.77 231.59 273.36 C 228.17 272.47 224.79 269.88 221.17 270.90 C 218.01 273.94 218.26 278.87 218.94 282.86 C 219.47 284.48 219.79 287.23 221.97 287.33 C 223.98 286.68 225.90 285.79 227.89 285.05 C 227.40 287.34 226.87 289.61 226.40 291.91 C 228.14 293.29 230.24 294.46 231.36 296.46 C 232.12 299.29 231.95 302.30 232.98 305.07 C 237.31 304.60 242.14 302.15 246.18 304.77 C 249.13 306.46 252.61 306.84 255.59 308.46 C 257.35 310.03 258.26 312.36 260.12 313.87 C 262.60 316.18 266.05 317.14 268.40 319.61 C 269.08 321.43 269.23 323.40 269.84 325.25 C 271.61 326.23 273.65 326.57 275.44 327.52 C 279.25 330.60 284.71 330.32 288.14 334.10 C 288.15 334.57 288.19 335.52 288.21 335.99 C 283.45 340.08 281.38 346.13 278.54 351.51 C 277.25 354.16 273.75 353.40 271.43 354.37 C 270.20 355.39 269.60 356.95 268.72 358.26 C 268.60 358.38 268.36 358.63 268.24 358.76 C 266.72 359.83 265.02 360.61 263.30 361.31 C 263.08 361.81 262.63 362.83 262.41 363.33 C 261.26 363.56 260.12 363.81 258.99 364.07 C 257.57 368.39 262.27 371.25 265.75 372.37 C 270.74 373.67 275.80 374.80 280.92 375.46 C 293.39 376.29 306.14 375.94 318.17 372.23 C 340.28 366.07 359.96 351.66 372.56 332.47 C 384.43 315.03 389.58 293.64 388.79 272.68 C 389.67 271.57 389.47 270.75 388.18 270.23 C 386.81 270.81 386.54 271.71 387.34 272.93 C 386.20 278.84 387.24 284.89 386.52 290.83 C 386.42 291.75 385.98 292.47 385.20 293.02 C 383.74 286.71 384.83 279.63 380.80 274.12 C 379.19 274.37 377.58 274.61 375.98 274.87 C 377.61 277.43 378.51 280.48 377.25 283.41 C 375.32 288.17 372.55 293.14 367.99 295.80 C 367.71 295.64 367.15 295.33 366.87 295.17 C 364.13 289.86 365.52 282.62 360.69 278.45 C 360.68 281.58 361.36 284.64 362.10 287.67 C 363.19 292.19 364.04 296.96 366.87 300.80 C 368.34 300.45 369.81 300.11 371.31 299.81 C 370.82 309.60 360.78 315.46 359.37 325.00 C 358.65 328.94 359.40 333.44 356.84 336.83 C 353.97 340.98 350.38 344.65 348.24 349.27 C 345.42 355.23 339.96 360.10 333.25 360.90 C 332.47 359.63 331.33 358.44 331.27 356.88 C 330.92 351.85 331.03 346.78 331.77 341.79 L 332.70 341.72 L 333.24 340.78 L 332.84 339.97 C 333.40 338.58 333.84 337.11 333.94 335.60 C 335.91 335.79 335.97 331.29 334.02 331.39 C 332.87 327.57 330.35 324.20 330.14 320.10 C 330.17 316.98 326.64 315.54 323.98 315.93 C 319.30 316.22 315.33 318.94 310.93 320.17 C 306.02 320.50 303.31 315.43 301.08 311.85 C 296.74 305.37 301.41 297.74 301.90 290.83 L 302.80 290.71 L 303.31 289.74 L 302.89 288.93 L 302.96 288.03 L 303.86 287.81 L 304.27 286.79 L 303.76 286.03 C 308.29 279.99 312.25 272.43 319.84 269.84 C 325.08 267.87 330.48 265.42 336.23 266.25 C 336.40 266.50 336.75 266.99 336.92 267.24 C 336.97 268.73 337.06 270.22 337.19 271.72 C 339.09 272.32 340.96 273.04 342.95 273.34 C 345.59 272.19 347.87 270.20 350.79 269.68 C 353.24 268.73 357.50 268.62 357.39 265.10 C 355.61 262.80 352.18 262.73 349.87 261.02 C 350.68 259.20 351.44 257.32 352.76 255.80 C 354.48 253.47 357.49 252.91 359.98 251.74 C 359.49 249.94 357.99 248.92 356.45 248.06 C 356.08 248.47 355.34 249.30 354.96 249.71 C 353.69 249.15 352.42 248.61 351.15 248.08 C 349.87 253.74 350.45 260.22 346.96 265.12 C 344.65 265.20 344.88 262.61 344.24 261.06 C 341.59 262.52 340.74 266.05 337.68 266.91 C 338.63 265.74 338.70 264.56 337.90 263.34 C 339.81 261.08 337.57 257.64 335.20 256.75 C 334.99 258.78 334.83 260.83 334.66 262.87 C 334.09 262.87 332.94 262.85 332.37 262.84 C 332.08 260.25 332.07 257.58 331.12 255.12 C 325.85 256.93 326.87 263.81 322.95 266.91 C 319.77 268.48 316.07 268.57 312.59 268.53 C 312.78 264.56 313.36 260.54 314.83 256.83 C 316.72 255.91 318.88 255.86 320.90 255.42 L 320.88 254.52 C 322.88 255.12 322.80 250.86 320.84 251.40 C 320.66 250.34 320.45 249.30 320.21 248.26 C 322.70 246.78 325.43 245.52 327.43 243.35 C 330.06 240.20 329.91 235.85 330.47 232.01 C 332.82 232.05 332.88 235.08 333.91 236.63 C 335.89 236.42 337.87 236.20 339.85 235.98 C 339.99 233.63 340.19 231.27 340.01 228.91 L 340.89 228.73 L 341.29 227.74 L 340.77 226.96 C 341.09 226.49 341.72 225.56 342.04 225.09 C 339.72 223.21 337.67 220.87 334.80 219.81 C 336.08 224.61 337.90 229.85 336.03 234.73 C 334.42 233.60 333.31 231.99 332.41 230.28 C 331.22 230.36 330.04 230.47 328.87 230.59 C 328.69 230.49 328.34 230.28 328.16 230.17 C 327.58 227.83 325.11 225.21 326.77 222.88 C 330.31 217.74 325.99 210.40 330.93 205.87 C 334.47 207.44 337.80 209.54 341.57 210.56 C 340.55 207.33 336.53 207.75 334.41 205.59 C 331.86 203.08 328.05 200.98 327.88 196.99 C 332.41 197.20 332.22 202.60 335.48 204.62 C 337.42 206.27 339.89 207.01 342.21 207.95 C 342.97 205.59 342.38 203.14 342.29 200.74 C 341.19 200.33 339.57 200.28 339.15 198.97 C 337.64 194.22 332.42 192.46 328.47 190.21 C 330.07 187.07 322.70 187.38 326.15 189.77 C 323.23 189.59 320.93 187.98 318.94 185.98 C 307.86 182.18 295.91 181.75 284.30 182.28 M 340.89 198.69 C 341.24 199.21 341.94 200.23 342.29 200.74 C 344.17 202.01 346.06 203.29 348.08 204.34 C 347.27 200.98 343.87 199.58 340.89 198.69 M 251.31 217.31 C 247.75 220.25 243.06 222.01 240.42 225.92 C 242.72 228.88 244.96 232.08 245.17 235.96 C 243.87 236.40 243.53 237.24 244.17 238.48 C 245.30 238.84 245.85 238.39 245.83 237.14 C 246.03 236.52 246.43 235.29 246.63 234.67 L 247.56 234.63 L 248.13 233.71 L 247.73 232.89 C 249.12 230.12 249.90 227.05 251.56 224.43 C 253.76 222.00 256.80 220.16 258.01 216.98 C 258.79 214.89 260.57 213.30 260.98 211.06 C 257.19 212.07 254.61 215.36 251.31 217.31 Z" />
<path fill="#000101" opacity="1.00" d=" M 735.24 182.50 C 747.37 182.79 759.51 182.80 771.63 182.50 C 771.76 211.00 771.65 239.50 771.69 268.00 C 771.52 283.88 772.75 300.08 768.40 315.57 C 764.45 330.97 755.92 345.51 743.01 355.05 C 728.55 366.03 709.93 370.35 692.00 369.96 C 673.48 370.22 654.25 365.22 639.83 353.19 C 626.80 342.57 618.84 326.72 615.68 310.40 C 612.67 296.46 613.73 282.14 613.55 268.00 C 613.65 239.64 613.34 211.26 613.70 182.90 C 625.84 182.77 638.00 182.75 650.14 182.91 C 650.44 213.93 650.19 244.97 650.27 276.00 C 650.50 285.02 649.50 294.21 651.67 303.07 C 652.96 309.12 654.99 315.06 658.29 320.33 C 658.36 320.44 658.51 320.66 658.58 320.77 C 664.64 329.45 674.84 334.36 685.21 335.40 C 695.45 336.16 706.39 335.84 715.53 330.59 C 721.65 327.32 726.34 321.87 729.39 315.70 C 729.45 315.57 729.57 315.30 729.63 315.17 C 733.96 305.38 734.88 294.57 734.97 284.00 C 734.93 257.00 734.97 229.99 734.95 202.99 C 735.08 196.16 734.64 189.32 735.24 182.50 Z" />
<path fill="#000101" opacity="1.00" d=" M 0.00 182.87 C 24.33 182.75 48.67 182.87 73.00 182.81 C 76.99 182.77 80.96 183.01 84.94 183.28 C 86.06 184.43 87.78 184.59 89.10 183.67 C 120.02 185.61 149.81 204.14 163.88 231.98 C 164.16 232.50 164.71 233.55 164.99 234.08 C 169.29 242.64 171.87 251.99 173.25 261.44 C 175.71 281.08 173.18 301.79 163.61 319.31 C 163.56 319.41 163.45 319.60 163.40 319.69 C 157.78 329.83 150.31 339.02 141.10 346.10 C 124.99 358.80 104.66 365.61 84.24 366.34 C 56.16 365.92 28.08 366.35 0.00 366.12 L 0.00 182.87 M 36.82 217.57 C 36.66 255.73 36.63 293.90 36.83 332.06 C 51.22 332.25 65.61 332.09 80.00 332.15 C 96.25 331.99 112.88 325.44 123.36 312.72 C 123.44 312.62 123.59 312.44 123.67 312.34 C 142.47 289.30 139.79 251.64 117.67 231.68 C 117.58 231.60 117.39 231.43 117.29 231.35 C 106.66 221.79 92.19 217.12 78.00 217.39 C 64.28 217.54 50.54 217.17 36.82 217.57 Z" />
<path fill="#000101" opacity="1.00" d=" M 299.16 225.23 C 299.28 224.77 299.54 223.85 299.67 223.40 C 301.76 224.47 306.49 223.60 306.31 226.89 C 304.12 228.64 301.61 229.93 299.10 231.13 C 298.52 229.86 297.95 228.52 298.23 227.10 C 298.46 226.63 298.92 225.70 299.16 225.23 Z" />
<path fill="#000101" opacity="1.00" d=" M 313.27 233.98 C 313.18 232.36 314.95 230.57 316.59 231.37 C 318.77 235.29 319.63 239.79 321.38 243.92 C 320.68 246.80 316.61 245.86 314.40 247.04 C 315.89 244.64 315.76 241.75 315.85 239.04 C 315.54 237.14 313.76 235.84 313.27 233.98 Z" />
<path fill="#000101" opacity="1.00" d=" M 308.99 243.65 C 309.11 241.13 309.53 237.19 312.74 237.08 C 313.61 239.22 314.10 241.49 313.91 243.81 C 312.27 243.75 310.63 243.69 308.99 243.65 Z" />
</g>
<g id="#ffffffff">
<path fill="#ffffff" opacity="1.00" d=" M 1074.43 180.69 C 1102.99 176.53 1133.21 185.92 1154.14 205.84 C 1168.58 219.25 1178.78 237.22 1182.61 256.57 C 1186.73 276.82 1184.27 298.47 1175.14 317.06 C 1166.50 335.30 1151.85 350.60 1134.07 360.13 C 1110.42 373.11 1081.21 375.37 1055.86 366.14 C 1031.62 357.56 1011.27 338.77 1000.64 315.36 C 987.48 287.37 989.53 252.98 1005.53 226.56 C 1020.09 201.96 1046.11 184.62 1074.43 180.69 M 1080.42 216.63 C 1058.66 219.60 1039.34 235.55 1032.49 256.44 C 1027.53 270.89 1028.33 287.25 1034.93 301.05 C 1041.29 314.93 1053.31 326.04 1067.56 331.48 C 1082.15 337.23 1099.04 336.73 1113.35 330.35 C 1125.89 324.81 1136.40 314.80 1142.50 302.52 C 1149.12 289.32 1150.68 273.60 1146.59 259.40 C 1142.17 243.66 1131.00 229.95 1116.37 222.62 C 1105.40 216.86 1092.64 215.06 1080.42 216.63 Z" />
<path fill="#ffffff" opacity="1.00" d=" M 846.25 183.12 C 857.49 182.67 868.75 183.04 880.00 182.92 C 892.69 183.05 905.40 182.60 918.09 183.26 C 933.98 184.12 949.81 191.80 958.84 205.16 C 968.14 218.59 972.47 236.97 965.28 252.29 C 962.26 259.55 956.44 264.98 950.47 269.86 C 954.44 271.65 958.54 273.31 961.99 276.03 C 974.65 285.79 980.82 302.78 978.57 318.45 C 976.16 332.94 968.21 346.59 956.44 355.45 C 944.94 364.23 930.34 367.98 916.07 368.53 C 892.82 368.66 869.56 368.44 846.31 368.64 C 846.17 341.41 846.46 314.17 846.17 286.95 C 837.83 286.73 829.50 286.94 821.17 286.86 C 821.15 277.19 821.21 267.52 821.20 257.84 C 829.43 257.34 837.70 257.72 845.95 257.69 C 846.43 254.48 846.31 251.23 846.29 248.00 C 846.26 226.37 846.31 204.75 846.25 183.12 M 880.35 215.37 C 880.36 229.47 880.39 243.56 880.34 257.66 C 890.23 257.61 900.13 257.60 910.03 257.65 C 921.41 258.44 932.70 249.38 934.18 238.03 C 935.24 229.02 928.91 220.43 920.67 217.30 C 915.74 215.05 910.25 215.42 904.99 215.44 C 896.78 215.44 888.56 215.50 880.35 215.37 M 880.30 287.12 C 880.40 303.35 880.41 319.59 880.30 335.83 C 887.85 336.26 895.43 335.93 903.00 336.04 C 910.24 335.96 917.80 336.56 924.66 333.74 C 932.23 330.97 938.80 324.70 940.65 316.69 C 943.10 306.28 937.33 294.82 927.70 290.30 C 919.45 286.11 909.95 286.95 901.00 286.86 C 894.10 286.99 887.18 286.56 880.30 287.12 Z" />
<path fill="#ffffff" opacity="1.00" d=" M 1173.89 183.88 C 1187.21 183.64 1200.56 183.57 1213.87 183.90 C 1216.75 187.58 1218.39 192.11 1220.88 196.08 C 1230.35 213.13 1239.55 230.33 1249.19 247.29 C 1253.43 241.31 1256.43 234.54 1260.22 228.27 C 1268.51 213.46 1276.70 198.58 1285.11 183.84 C 1298.48 183.67 1311.86 183.57 1325.23 183.90 C 1316.65 198.58 1307.16 212.74 1298.23 227.21 C 1288.96 241.94 1279.69 256.68 1270.39 271.38 C 1269.74 272.68 1268.16 274.13 1269.33 275.61 C 1288.45 306.36 1308.03 336.84 1327.01 367.67 C 1313.50 367.68 1299.98 367.79 1286.48 367.61 C 1276.71 350.09 1266.53 332.80 1256.62 315.36 C 1254.13 311.23 1252.05 306.87 1249.24 302.95 C 1236.88 324.43 1224.77 346.05 1212.59 367.63 C 1199.09 367.82 1185.58 367.59 1172.08 367.75 C 1191.22 337.06 1210.83 306.66 1230.12 276.06 C 1230.87 275.06 1231.07 273.77 1230.18 272.80 C 1217.89 253.45 1205.57 234.11 1193.27 214.76 C 1186.87 204.43 1179.99 194.39 1173.89 183.88 Z" />
<path fill="#ffffff" opacity="1.00" d=" M 340.89 198.69 C 343.87 199.58 347.27 200.98 348.08 204.34 C 346.06 203.29 344.17 202.01 342.29 200.74 C 341.94 200.23 341.24 199.21 340.89 198.69 Z" />
<path fill="#ffffff" opacity="1.00" d=" M 219.33 215.10 C 219.04 213.39 219.72 212.76 221.38 213.21 C 221.07 214.20 220.39 214.83 219.33 215.10 Z" />
<path fill="#ffffff" opacity="1.00" d=" M 163.88 231.98 C 164.16 232.50 164.71 233.55 164.99 234.08 C 164.71 233.55 164.16 232.50 163.88 231.98 Z" />
<path fill="#ffffff" opacity="1.00" d=" M 246.63 234.67 C 246.90 234.23 247.46 233.34 247.73 232.89 L 248.13 233.71 L 247.56 234.63 L 246.63 234.67 Z" />
<path fill="#ffffff" opacity="1.00" d=" M 1158.90 431.17 C 1168.84 431.19 1178.78 431.13 1188.73 431.20 C 1188.75 442.80 1188.54 454.41 1188.82 466.01 C 1197.25 466.11 1205.69 466.09 1214.13 466.02 C 1214.42 454.42 1214.17 442.82 1214.24 431.21 C 1224.18 431.12 1234.12 431.19 1244.06 431.18 C 1244.42 457.78 1244.10 484.39 1244.21 511.00 C 1244.07 517.23 1244.54 523.48 1243.91 529.69 C 1234.03 529.58 1224.16 529.60 1214.28 529.68 C 1214.13 518.03 1214.43 506.37 1214.15 494.72 C 1205.70 494.48 1197.24 494.49 1188.81 494.72 C 1188.53 506.36 1188.79 518.02 1188.69 529.67 C 1178.81 529.61 1168.94 529.58 1159.06 529.69 C 1158.28 518.16 1158.95 506.56 1158.73 495.00 C 1158.84 473.72 1158.50 452.44 1158.90 431.17 Z" />
<path fill="#ffffff" opacity="1.00" d=" M 1256.09 431.14 C 1271.07 431.19 1286.06 431.08 1301.05 431.20 C 1315.25 431.26 1329.41 437.53 1338.65 448.38 C 1353.33 465.15 1354.34 492.15 1341.04 510.01 C 1332.15 522.29 1316.99 529.03 1302.07 529.58 C 1286.77 529.70 1271.47 529.50 1256.17 529.69 C 1255.67 504.47 1256.10 479.23 1255.96 454.00 C 1256.02 446.38 1255.80 438.76 1256.09 431.14 M 1285.93 459.76 C 1285.77 473.52 1285.77 487.29 1285.92 501.05 C 1294.22 500.82 1303.46 502.68 1310.85 497.87 C 1322.85 490.29 1322.25 470.04 1310.29 462.71 C 1303.03 458.09 1294.04 459.89 1285.93 459.76 Z" />
</g>
</svg>
