<?xml version="1.0" encoding="UTF-8" ?>
<!DOCTYPE svg PUBLIC "-//W3C//DTD SVG 1.1//EN" "http://www.w3.org/Graphics/SVG/1.1/DTD/svg11.dtd">
<svg width="1439pt" height="346pt" viewBox="0 0 1439 346" version="1.1" xmlns="http://www.w3.org/2000/svg">
<g id="#d6153eff">
<path fill="#d6153e" opacity="1.00" d=" M 0.00 0.00 L 1439.00 0.00 L 1439.00 346.00 L 0.00 346.00 L 0.00 200.14 C 15.85 234.73 40.37 265.36 70.83 288.20 C 113.42 320.41 167.78 336.52 221.04 332.89 C 251.89 331.13 282.35 322.85 309.85 308.76 C 338.06 294.30 363.13 273.76 382.80 248.90 C 418.13 204.79 435.98 147.29 432.59 90.94 C 431.17 74.26 428.23 57.70 423.61 41.60 C 420.83 32.13 417.60 22.73 412.87 14.03 C 378.14 21.25 343.01 26.60 307.64 29.45 C 303.16 49.52 292.08 68.13 276.18 81.24 C 259.70 95.11 239.13 103.43 218.11 107.42 C 215.10 131.18 211.97 154.98 206.86 178.40 C 230.37 176.26 253.70 171.19 275.68 162.49 C 270.04 179.09 261.03 194.42 250.17 208.13 C 243.86 215.81 236.79 222.94 228.70 228.76 C 203.91 248.11 172.54 259.26 141.01 258.62 C 120.78 258.87 100.65 254.08 82.23 245.84 C 54.61 233.41 31.41 211.58 17.07 184.92 C 7.01 166.63 1.52 146.06 0.00 125.30 L 0.00 0.00 M 518.00 31.61 C 518.00 126.35 517.99 221.09 518.01 315.83 C 814.80 315.83 1111.59 315.83 1408.38 315.83 C 1408.40 221.09 1408.40 126.36 1408.38 31.62 C 1111.59 31.59 814.80 31.61 518.00 31.61 Z" />
<path fill="#d6153e" opacity="1.00" d=" M 868.14 90.18 C 882.92 88.79 898.19 90.30 911.93 96.17 C 929.84 103.51 944.53 118.10 952.07 135.92 C 959.05 151.59 960.49 169.17 958.81 186.09 C 956.88 202.89 950.33 219.38 938.98 232.05 C 926.88 245.67 909.60 254.32 891.62 256.74 C 875.12 258.85 857.83 257.38 842.60 250.35 C 827.66 243.75 815.04 232.08 807.37 217.65 C 797.96 200.19 795.23 179.62 797.78 160.09 C 799.85 143.50 806.60 127.32 817.84 114.84 C 830.71 100.64 849.16 92.07 868.14 90.18 M 871.42 130.60 C 863.23 132.31 856.23 138.09 852.50 145.51 C 846.47 156.23 845.78 168.99 846.62 180.99 C 847.46 192.75 851.79 205.19 861.58 212.43 C 868.59 217.21 877.80 219.00 885.98 216.50 C 894.27 214.55 900.95 208.18 904.58 200.64 C 910.34 189.72 910.46 176.96 909.67 164.95 C 908.58 153.05 903.72 140.35 893.15 133.82 C 886.64 130.15 878.71 128.67 871.42 130.60 Z" />
<path fill="#d6153e" opacity="1.00" d=" M 625.83 93.64 C 654.57 93.64 683.31 93.63 712.05 93.64 C 729.72 94.16 747.79 100.77 759.78 114.12 C 771.65 127.18 777.20 144.76 778.82 162.05 C 780.25 179.48 778.82 197.58 771.67 213.72 C 766.15 226.28 756.47 237.00 744.36 243.48 C 729.68 251.64 712.58 253.80 696.04 254.01 C 672.64 253.98 649.24 254.02 625.84 253.99 C 625.82 200.54 625.84 147.09 625.83 93.64 M 675.36 212.82 C 687.13 212.36 699.53 214.44 710.69 209.73 C 719.04 206.33 724.92 198.58 727.44 190.10 C 730.53 179.55 730.87 168.00 727.42 157.50 C 724.59 148.99 718.28 141.59 709.92 138.13 C 699.05 133.32 686.92 134.87 675.39 134.61 C 675.33 160.68 675.38 186.75 675.36 212.82 Z" />
<path fill="#d6153e" opacity="1.00" d=" M 982.83 93.64 C 999.27 93.63 1015.72 93.64 1032.17 93.64 C 1032.18 112.14 1032.15 130.64 1032.19 149.13 C 1046.96 130.68 1061.73 112.23 1076.38 93.67 C 1096.78 93.57 1117.19 93.69 1137.60 93.61 C 1118.07 114.35 1098.86 135.39 1079.37 156.16 C 1101.93 188.75 1124.51 221.33 1147.02 253.96 C 1126.46 254.02 1105.89 254.05 1085.32 253.94 C 1072.30 233.16 1059.11 212.48 1045.99 191.75 C 1041.05 196.35 1036.83 201.66 1032.19 206.55 C 1032.13 222.37 1032.19 238.18 1032.16 253.99 C 1015.72 254.00 999.28 254.00 982.84 253.99 C 982.82 200.54 982.84 147.09 982.83 93.64 Z" />
<path fill="#d6153e" opacity="1.00" d=" M 1154.39 196.05 C 1154.40 161.90 1154.39 127.76 1154.40 93.61 C 1170.80 93.65 1187.20 93.65 1203.60 93.61 C 1203.61 119.40 1203.60 145.19 1203.61 170.98 C 1203.65 177.67 1203.39 184.36 1204.00 191.03 C 1204.01 198.41 1205.59 206.50 1211.04 211.86 C 1216.70 217.67 1225.56 218.33 1233.15 217.25 C 1240.38 216.34 1246.28 210.70 1248.58 203.95 C 1251.58 195.96 1250.57 187.31 1251.00 178.97 C 1251.01 150.53 1250.99 122.08 1251.00 93.64 C 1267.46 93.63 1283.91 93.65 1300.37 93.63 C 1300.35 123.08 1300.37 152.52 1300.36 181.97 C 1300.28 190.61 1300.78 199.33 1299.22 207.88 C 1297.38 220.23 1292.32 232.55 1282.92 241.06 C 1271.66 251.62 1255.97 255.58 1241.01 257.08 C 1224.69 258.22 1207.90 257.88 1192.24 252.69 C 1180.96 249.13 1170.63 242.02 1164.17 232.02 C 1157.34 221.37 1154.62 208.56 1154.39 196.05 Z" />
</g>
<g id="#ffffffff">
<path fill="#ffffff" opacity="1.00" d=" M 307.64 29.45 C 343.01 26.60 378.14 21.25 412.87 14.03 C 417.60 22.73 420.83 32.13 423.61 41.60 C 428.23 57.70 431.17 74.26 432.59 90.94 C 435.98 147.29 418.13 204.79 382.80 248.90 C 363.13 273.76 338.06 294.30 309.85 308.76 C 282.35 322.85 251.89 331.13 221.04 332.89 C 167.78 336.52 113.42 320.41 70.83 288.20 C 40.37 265.36 15.85 234.73 0.00 200.14 L 0.00 125.30 C 1.52 146.06 7.01 166.63 17.07 184.92 C 31.41 211.58 54.61 233.41 82.23 245.84 C 100.65 254.08 120.78 258.87 141.01 258.62 C 172.54 259.26 203.91 248.11 228.70 228.76 C 236.79 222.94 243.86 215.81 250.17 208.13 C 261.03 194.42 270.04 179.09 275.68 162.49 C 253.70 171.19 230.37 176.26 206.86 178.40 C 211.97 154.98 215.10 131.18 218.11 107.42 C 239.13 103.43 259.70 95.11 276.18 81.24 C 292.08 68.13 303.16 49.52 307.64 29.45 Z" />
<path fill="#ffffff" opacity="1.00" d=" M 518.00 31.61 C 814.80 31.61 1111.59 31.59 1408.38 31.62 C 1408.40 126.36 1408.40 221.09 1408.38 315.83 C 1111.59 315.83 814.80 315.83 518.01 315.83 C 517.99 221.09 518.00 126.35 518.00 31.61 M 868.14 90.18 C 849.16 92.07 830.71 100.64 817.84 114.84 C 806.60 127.32 799.85 143.50 797.78 160.09 C 795.23 179.62 797.96 200.19 807.37 217.65 C 815.04 232.08 827.66 243.75 842.60 250.35 C 857.83 257.38 875.12 258.85 891.62 256.74 C 909.60 254.32 926.88 245.67 938.98 232.05 C 950.33 219.38 956.88 202.89 958.81 186.09 C 960.49 169.17 959.05 151.59 952.07 135.92 C 944.53 118.10 929.84 103.51 911.93 96.17 C 898.19 90.30 882.92 88.79 868.14 90.18 M 625.83 93.64 C 625.84 147.09 625.82 200.54 625.84 253.99 C 649.24 254.02 672.64 253.98 696.04 254.01 C 712.58 253.80 729.68 251.64 744.36 243.48 C 756.47 237.00 766.15 226.28 771.67 213.72 C 778.82 197.58 780.25 179.48 778.82 162.05 C 777.20 144.76 771.65 127.18 759.78 114.12 C 747.79 100.77 729.72 94.16 712.05 93.64 C 683.31 93.63 654.57 93.64 625.83 93.64 M 982.83 93.64 C 982.84 147.09 982.82 200.54 982.84 253.99 C 999.28 254.00 1015.72 254.00 1032.16 253.99 C 1032.19 238.18 1032.13 222.37 1032.19 206.55 C 1036.83 201.66 1041.05 196.35 1045.99 191.75 C 1059.11 212.48 1072.30 233.16 1085.32 253.94 C 1105.89 254.05 1126.46 254.02 1147.02 253.96 C 1124.51 221.33 1101.93 188.75 1079.37 156.16 C 1098.86 135.39 1118.07 114.35 1137.60 93.61 C 1117.19 93.69 1096.78 93.57 1076.38 93.67 C 1061.73 112.23 1046.96 130.68 1032.19 149.13 C 1032.15 130.64 1032.18 112.14 1032.17 93.64 C 1015.72 93.64 999.27 93.63 982.83 93.64 M 1154.39 196.05 C 1154.62 208.56 1157.34 221.37 1164.17 232.02 C 1170.63 242.02 1180.96 249.13 1192.24 252.69 C 1207.90 257.88 1224.69 258.22 1241.01 257.08 C 1255.97 255.58 1271.66 251.62 1282.92 241.06 C 1292.32 232.55 1297.38 220.23 1299.22 207.88 C 1300.78 199.33 1300.28 190.61 1300.36 181.97 C 1300.37 152.52 1300.35 123.08 1300.37 93.63 C 1283.91 93.65 1267.46 93.63 1251.00 93.64 C 1250.99 122.08 1251.01 150.53 1251.00 178.97 C 1250.57 187.31 1251.58 195.96 1248.58 203.95 C 1246.28 210.70 1240.38 216.34 1233.15 217.25 C 1225.56 218.33 1216.70 217.67 1211.04 211.86 C 1205.59 206.50 1204.01 198.41 1204.00 191.03 C 1203.39 184.36 1203.65 177.67 1203.61 170.98 C 1203.60 145.19 1203.61 119.40 1203.60 93.61 C 1187.20 93.65 1170.80 93.65 1154.40 93.61 C 1154.39 127.76 1154.40 161.90 1154.39 196.05 Z" />
<path fill="#ffffff" opacity="1.00" d=" M 871.42 130.60 C 878.71 128.67 886.64 130.15 893.15 133.82 C 903.72 140.35 908.58 153.05 909.67 164.95 C 910.46 176.96 910.34 189.72 904.58 200.64 C 900.95 208.18 894.27 214.55 885.98 216.50 C 877.80 219.00 868.59 217.21 861.58 212.43 C 851.79 205.19 847.46 192.75 846.62 180.99 C 845.78 168.99 846.47 156.23 852.50 145.51 C 856.23 138.09 863.23 132.31 871.42 130.60 Z" />
<path fill="#ffffff" opacity="1.00" d=" M 675.36 212.82 C 675.38 186.75 675.33 160.68 675.39 134.61 C 686.92 134.87 699.05 133.32 709.92 138.13 C 718.28 141.59 724.59 148.99 727.42 157.50 C 730.87 168.00 730.53 179.55 727.44 190.10 C 724.92 198.58 719.04 206.33 710.69 209.73 C 699.53 214.44 687.13 212.36 675.36 212.82 Z" />
</g>
</svg>
