<?xml version="1.0" encoding="UTF-8" ?>
<!DOCTYPE svg PUBLIC "-//W3C//DTD SVG 1.1//EN" "http://www.w3.org/Graphics/SVG/1.1/DTD/svg11.dtd">
<svg width="260pt" height="70pt" viewBox="0 0 260 70" version="1.1" xmlns="http://www.w3.org/2000/svg">
<g id="#ffffffff">
</g>
<g id="#1e3c78ff">
<path fill="#1e3c78" opacity="1.00" d=" M 92.30 2.40 C 103.28 1.01 114.78 5.56 121.71 14.22 C 129.61 23.74 131.39 37.83 125.95 48.97 C 120.74 60.37 108.51 68.09 95.97 67.81 C 81.11 67.95 67.21 56.68 64.22 42.13 C 60.99 28.59 67.55 13.51 79.66 6.65 C 83.48 4.31 87.88 3.02 92.30 2.40 Z" />
<path fill="#1e3c78" opacity="1.00" d=" M 2.00 2.60 C 10.99 2.63 19.98 2.54 28.97 2.64 C 38.62 2.67 48.17 7.21 54.10 14.86 C 61.63 24.05 63.29 37.55 58.16 48.28 C 53.25 59.14 41.93 66.79 29.98 67.05 C 20.66 67.09 11.33 67.06 2.00 67.06 C 2.00 45.58 2.00 24.09 2.00 2.60 Z" />
<path fill="#1e3c78" opacity="1.00" d=" M 131.13 2.87 C 136.18 2.86 141.22 2.88 146.27 2.86 C 151.94 12.07 157.58 21.31 163.22 30.55 C 168.86 21.31 174.52 12.10 180.16 2.87 C 185.21 2.87 190.26 2.86 195.32 2.87 C 195.33 24.27 195.33 45.66 195.32 67.06 C 173.92 67.07 152.53 67.07 131.13 67.06 C 131.13 45.67 131.12 24.27 131.13 2.87 Z" />
<path fill="#1e3c78" opacity="1.00" d=" M 198.89 35.96 C 197.97 19.88 210.98 4.61 226.99 2.94 C 237.30 2.20 247.66 2.78 257.99 2.60 C 258.00 24.09 258.00 45.58 257.99 67.06 C 248.32 67.03 238.64 67.15 228.97 67.01 C 212.98 66.25 199.11 51.99 198.89 35.96 Z" />
</g>
</svg>
