<?xml version="1.0" encoding="UTF-8" standalone="yes"?>
<svg xmlns="http://www.w3.org/2000/svg" xmlns:xlink="http://www.w3.org/1999/xlink" width="458.66666666666663px" height="106.66666666666666px" viewBox="0 0 344 80" version="1.1">
  <g id="surface1">
    <path style=" stroke:none;fill-rule:nonzero;fill:rgb(93.72549%,25.490196%,13.72549%);fill-opacity:1;" d="M 343.828125 79.675781 L 264.515625 79.675781 L 227.65625 40.191406 L 264.515625 0.171875 L 343.828125 0.171875 Z M 343.828125 79.675781 "/>
    <path style=" stroke:none;fill-rule:nonzero;fill:rgb(0%,0%,0%);fill-opacity:1;" d="M 0.171875 79.675781 L 264.515625 79.675781 L 264.515625 0.179688 L 0.171875 0.179688 Z M 0.171875 79.675781 "/>
    <path style=" stroke:none;fill-rule:nonzero;fill:rgb(100%,100%,100%);fill-opacity:1;" d="M 91.019531 52.015625 L 73.296875 52.015625 C 72.792969 52.015625 72.695312 51.816406 72.695312 51.410156 L 72.695312 27.515625 C 72.695312 27.109375 72.792969 26.910156 73.296875 26.910156 L 91.019531 26.910156 C 101.558594 26.910156 105.777344 29.925781 105.777344 39.4375 C 105.777344 48.949219 101.558594 52.015625 91.019531 52.015625 M 105.667969 19.613281 L 49.097656 19.613281 C 48.59375 19.613281 48.34375 19.914062 48.34375 20.363281 L 48.34375 58.554688 C 48.34375 59.011719 48.59375 59.3125 49.097656 59.3125 L 105.667969 59.3125 C 122.28125 59.3125 130.667969 53.777344 130.667969 39.335938 C 130.667969 24.996094 122.28125 19.613281 105.667969 19.613281 "/>
    <path style=" stroke:none;fill-rule:nonzero;fill:rgb(100%,100%,100%);fill-opacity:1;" d="M 184.386719 41.800781 L 164.605469 41.800781 C 164.152344 41.800781 164.003906 41.652344 164.003906 41.195312 L 164.003906 27.511719 C 164.003906 27.058594 164.152344 26.90625 164.605469 26.90625 L 184.386719 26.90625 C 191.011719 26.90625 193.824219 28.722656 193.824219 34.203125 C 193.824219 39.738281 191.011719 41.800781 184.386719 41.800781 M 219.914062 57.703125 L 203.554688 46.128906 C 203.148438 45.824219 202.902344 45.675781 202.902344 45.472656 C 202.902344 45.273438 203.050781 45.171875 203.402344 45.171875 C 211.683594 45.171875 218.109375 41.300781 218.109375 32.746094 C 218.109375 24.246094 212.589844 19.609375 202.402344 19.609375 L 140.402344 19.609375 C 139.902344 19.609375 139.65625 19.914062 139.65625 20.367188 L 139.65625 58.554688 C 139.65625 59.007812 139.902344 59.3125 140.402344 59.3125 L 163.21875 59.3125 C 163.71875 59.3125 163.972656 59.007812 163.972656 58.554688 L 163.972656 49.503906 C 163.972656 49.050781 164.125 48.898438 164.578125 48.898438 L 177.703125 48.898438 C 178.355469 48.898438 178.609375 48.945312 179.054688 49.296875 L 190.449219 58.761719 C 191.003906 59.214844 191.402344 59.3125 192.054688 59.3125 L 220.421875 59.3125 C 220.820312 59.3125 221.019531 59.160156 221.019531 58.855469 C 221.019531 58.457031 220.320312 58.003906 219.914062 57.703125 "/>
    <path style=" stroke:none;fill-rule:nonzero;fill:rgb(100%,100%,100%);fill-opacity:1;" d="M 311.71875 18.394531 C 311.71875 17.898438 311.484375 17.601562 310.929688 17.601562 C 299.761719 17.601562 293.949219 18.957031 289.691406 20.050781 C 289.226562 20.183594 288.996094 20.28125 288.996094 20.710938 L 288.996094 30.875 C 288.996094 31.304688 289.09375 31.4375 289.394531 31.4375 C 289.527344 31.4375 289.691406 31.40625 289.984375 31.335938 C 291.933594 30.875 294.808594 30.046875 298.9375 29.644531 C 299.070312 29.644531 299.363281 29.644531 299.363281 30.148438 L 299.363281 50.011719 C 299.363281 50.574219 299.105469 50.804688 298.574219 50.804688 L 288.464844 50.804688 C 287.941406 50.804688 287.675781 51.035156 287.675781 51.597656 L 287.675781 60.632812 C 287.675781 61.035156 287.941406 61.332031 288.464844 61.332031 L 321.691406 61.332031 C 322.222656 61.332031 322.488281 61.035156 322.488281 60.632812 L 322.488281 51.597656 C 322.488281 51.035156 322.222656 50.804688 321.691406 50.804688 L 312.511719 50.804688 C 311.980469 50.804688 311.71875 50.574219 311.71875 50.011719 Z M 311.71875 18.394531 "/>
  </g>
</svg>