<?xml version="1.0" encoding="UTF-8" standalone="no"?>
<!-- Created with Inkscape (http://www.inkscape.org/) -->

<svg
   xmlns:dc="http://purl.org/dc/elements/1.1/"
   xmlns:cc="http://creativecommons.org/ns#"
   xmlns:rdf="http://www.w3.org/1999/02/22-rdf-syntax-ns#"
   xmlns:svg="http://www.w3.org/2000/svg"
   xmlns="http://www.w3.org/2000/svg"
   xmlns:sodipodi="http://sodipodi.sourceforge.net/DTD/sodipodi-0.dtd"
   xmlns:inkscape="http://www.inkscape.org/namespaces/inkscape"
   width="1000.0001"
   height="231.56017"
   id="svg6778"
   version="1.1"
   inkscape:version="0.48.2 r9819"
   sodipodi:docname="A.svg">
  <defs
     id="defs6780">
    <clipPath
       clipPathUnits="userSpaceOnUse"
       id="clipPath3583">
      <path
         inkscape:connector-curvature="0"
         d="m 28.346,356.42 81.569,0 0,9.712 -81.569,0 0,-9.712 z"
         id="path3585" />
    </clipPath>
    <clipPath
       clipPathUnits="userSpaceOnUse"
       id="clipPath7103">
      <path
         inkscape:connector-curvature="0"
         d="m 664.016,628.016 56.939,0 0,13.141 -56.939,0 0,-13.141 z"
         id="path7105" />
    </clipPath>
  </defs>
  <sodipodi:namedview
     id="base"
     pagecolor="#ffffff"
     bordercolor="#666666"
     borderopacity="1.0"
     inkscape:pageopacity="0.0"
     inkscape:pageshadow="2"
     inkscape:zoom="0.7"
     inkscape:cx="686.25785"
     inkscape:cy="37.880784"
     inkscape:document-units="px"
     inkscape:current-layer="layer1"
     showgrid="false"
     fit-margin-top="0.5"
     fit-margin-left="0.5"
     fit-margin-right="0.5"
     fit-margin-bottom="0.5"
     inkscape:window-width="1102"
     inkscape:window-height="1040"
     inkscape:window-x="821"
     inkscape:window-y="-18"
     inkscape:window-maximized="0" />
  <metadata
     id="metadata6783">
    <rdf:RDF>
      <cc:Work
         rdf:about="">
        <dc:format>image/svg+xml</dc:format>
        <dc:type
           rdf:resource="http://purl.org/dc/dcmitype/StillImage" />
        <dc:title></dc:title>
      </cc:Work>
    </rdf:RDF>
  </metadata>
  <g
     inkscape:label="Layer 1"
     inkscape:groupmode="layer"
     id="layer1"
     transform="translate(167.56749,178.20068)">
    <path
       d="m 831.93257,52.859478 -230.56016,0 -107.14284,-114.500024 107.14284,-116.060134 230.56016,0 z"
       style="fill:#ef4123;fill-opacity:1;fill-rule:nonzero;stroke:none"
       id="path7115"
       inkscape:connector-curvature="0"
       sodipodi:nodetypes="cccccc" />
    <path
       d="m -167.06749,52.859085 768.44027,0 0,-230.542605 -768.44027,0 0,230.542605 z"
       style="fill:#000000;fill-opacity:1;fill-rule:nonzero;stroke:none"
       id="path7097"
       inkscape:connector-curvature="0" />
    <g
       id="g7107"
       transform="matrix(17.5451,0,0,-17.5451,97.022721,-27.35321)">
      <path
         d="m 0,0 -2.936,0 c -0.084,0 -0.1,0.033 -0.1,0.1 l 0,3.95 c 0,0.067 0.016,0.1 0.1,0.1 L 0,4.15 C 1.746,4.15 2.445,3.651 2.445,2.079 2.445,0.507 1.746,0 0,0 m 2.427,5.356 -9.373,0 c -0.083,0 -0.125,-0.05 -0.125,-0.124 l 0,-6.313 c 0,-0.075 0.042,-0.125 0.125,-0.125 l 9.373,0 c 2.753,0 4.142,0.915 4.142,3.302 0,2.37 -1.389,3.26 -4.142,3.26"
         style="fill:#ffffff;fill-opacity:1;fill-rule:nonzero;stroke:none"
         id="path7109"
         inkscape:connector-curvature="0" />
    </g>
    <g
       id="g7111"
       transform="matrix(17.5451,0,0,-17.5451,368.43489,-56.974602)">
      <path
         d="m 0,0 -3.277,0 c -0.075,0 -0.1,0.025 -0.1,0.1 l 0,2.262 c 0,0.075 0.025,0.1 0.1,0.1 l 3.277,0 c 1.098,0 1.564,-0.3 1.564,-1.206 C 1.564,0.341 1.098,0 0,0 m 5.887,-2.628 -2.711,1.913 c -0.067,0.05 -0.108,0.075 -0.108,0.108 0,0.033 0.025,0.05 0.083,0.05 1.372,0 2.437,0.64 2.437,2.054 0,1.405 -0.915,2.171 -2.603,2.171 l -10.272,0 c -0.083,0 -0.124,-0.05 -0.124,-0.125 l 0,-6.312 c 0,-0.075 0.041,-0.125 0.124,-0.125 l 3.78,0 c 0.083,0 0.125,0.05 0.125,0.125 l 0,1.496 c 0,0.075 0.025,0.1 0.1,0.1 l 2.175,0 c 0.108,0 0.15,-0.008 0.224,-0.066 l 1.888,-1.564 c 0.092,-0.075 0.158,-0.091 0.266,-0.091 l 4.7,0 c 0.066,0 0.099,0.025 0.099,0.075 0,0.066 -0.116,0.141 -0.183,0.191"
         style="fill:#ffffff;fill-opacity:1;fill-rule:nonzero;stroke:none"
         id="path7113"
         inkscape:connector-curvature="0" />
    </g>
    <g
       id="g7117"
       transform="matrix(17.5451,0,0,-17.5451,738.59439,-124.8601)">
      <path
         d="m 0,0 c 0,0.082 -0.039,0.131 -0.131,0.131 -1.85,0 -2.813,-0.224 -3.519,-0.405 -0.077,-0.022 -0.115,-0.038 -0.115,-0.109 l 0,-1.68 c 0,-0.071 0.016,-0.093 0.066,-0.093 0.022,0 0.049,0.005 0.098,0.017 0.323,0.076 0.799,0.213 1.483,0.279 0.022,0 0.071,0 0.071,-0.083 l 0,-3.283 c 0,-0.093 -0.043,-0.131 -0.131,-0.131 l -1.675,0 c -0.087,0 -0.131,-0.038 -0.131,-0.131 l 0,-1.494 c 0,-0.066 0.044,-0.115 0.131,-0.115 l 5.505,0 c 0.088,0 0.132,0.049 0.132,0.115 l 0,1.494 c 0,0.093 -0.044,0.131 -0.132,0.131 l -1.521,0 C 0.043,-5.357 0,-5.319 0,-5.226 L 0,0 z"
         style="fill:#ffffff;fill-opacity:1;fill-rule:nonzero;stroke:none"
         id="path7119"
         inkscape:connector-curvature="0" />
    </g>
  </g>
</svg>
