<?xml version="1.0" encoding="UTF-8" standalone="yes"?>
<svg xmlns="http://www.w3.org/2000/svg" xmlns:xlink="http://www.w3.org/1999/xlink" width="458.66666666666663px" height="106.66666666666666px" viewBox="0 0 344 80" version="1.1">
  <g id="surface1">
    <path style=" stroke:none;fill-rule:nonzero;fill:rgb(0%,75.294118%,95.294118%);fill-opacity:1;" d="M 343.828125 79.675781 L 264.515625 79.675781 L 224.464844 40.441406 L 264.515625 0.171875 L 343.828125 0.171875 Z M 343.828125 79.675781 "/>
    <path style=" stroke:none;fill-rule:nonzero;fill:rgb(0%,0%,0%);fill-opacity:1;" d="M 0.171875 79.675781 L 264.519531 79.675781 L 264.519531 0.171875 L 0.171875 0.171875 Z M 0.171875 79.675781 "/>
    <path style=" stroke:none;fill-rule:nonzero;fill:rgb(100%,100%,100%);fill-opacity:1;" d="M 91.019531 52.015625 L 73.296875 52.015625 C 72.792969 52.015625 72.695312 51.8125 72.695312 51.40625 L 72.695312 27.507812 C 72.695312 27.109375 72.792969 26.902344 73.296875 26.902344 L 91.019531 26.902344 C 101.558594 26.902344 105.773438 29.921875 105.773438 39.429688 C 105.773438 48.945312 101.558594 52.015625 91.019531 52.015625 M 105.671875 19.609375 L 49.097656 19.609375 C 48.59375 19.609375 48.339844 19.910156 48.339844 20.359375 L 48.339844 58.554688 C 48.339844 59.011719 48.59375 59.308594 49.097656 59.308594 L 105.671875 59.308594 C 122.28125 59.308594 130.671875 53.777344 130.671875 39.335938 C 130.671875 24.992188 122.28125 19.609375 105.671875 19.609375 "/>
    <path style=" stroke:none;fill-rule:nonzero;fill:rgb(100%,100%,100%);fill-opacity:1;" d="M 184.386719 41.800781 L 164.609375 41.800781 C 164.15625 41.800781 164.007812 41.648438 164.007812 41.199219 L 164.007812 27.507812 C 164.007812 27.058594 164.15625 26.90625 164.609375 26.90625 L 184.386719 26.90625 C 191.015625 26.90625 193.824219 28.71875 193.824219 34.199219 C 193.824219 39.738281 191.015625 41.800781 184.386719 41.800781 M 219.921875 57.699219 L 203.558594 46.128906 C 203.152344 45.824219 202.902344 45.675781 202.902344 45.472656 C 202.902344 45.273438 203.054688 45.171875 203.40625 45.171875 C 211.6875 45.171875 218.113281 41.296875 218.113281 32.746094 C 218.113281 24.238281 212.589844 19.613281 202.402344 19.613281 L 140.40625 19.613281 C 139.90625 19.613281 139.652344 19.910156 139.652344 20.363281 L 139.652344 58.554688 C 139.652344 59.007812 139.90625 59.3125 140.40625 59.3125 L 163.21875 59.3125 C 163.722656 59.3125 163.976562 59.007812 163.976562 58.554688 L 163.976562 49.5 C 163.976562 49.046875 164.121094 48.894531 164.574219 48.894531 L 177.703125 48.894531 C 178.355469 48.894531 178.609375 48.941406 179.058594 49.300781 L 190.453125 58.753906 C 191.011719 59.207031 191.410156 59.3125 192.058594 59.3125 L 220.421875 59.3125 C 220.828125 59.3125 221.027344 59.160156 221.027344 58.855469 C 221.027344 58.457031 220.320312 58 219.921875 57.699219 "/>
    <path style=" stroke:none;fill-rule:nonzero;fill:rgb(100%,100%,100%);fill-opacity:1;" d="M 286.367188 52.640625 L 286.367188 60.519531 C 286.367188 61.046875 286.644531 61.324219 287.171875 61.324219 L 320.359375 61.324219 C 320.886719 61.324219 321.164062 61.046875 321.164062 60.519531 L 321.164062 51.488281 C 321.164062 50.960938 320.886719 50.714844 320.359375 50.714844 L 305.382812 50.714844 C 305.058594 50.714844 304.992188 50.609375 304.992188 50.5 C 304.992188 50.398438 305.03125 50.246094 305.207031 50.105469 L 311.199219 45.082031 C 317.792969 39.5625 320.5 36.675781 320.5 30.03125 C 320.5 23.492188 315.058594 17.089844 302.960938 17.089844 C 294.605469 17.089844 288.890625 19.902344 287.457031 20.855469 C 287.246094 20.996094 287.035156 21.132812 287.035156 21.484375 L 287.035156 31.507812 C 287.035156 31.890625 287.101562 32.105469 287.421875 32.105469 C 287.523438 32.105469 287.625 32.066406 287.835938 31.964844 C 290.226562 30.769531 296.46875 28.027344 302.046875 28.027344 C 305.902344 28.027344 308.011719 29.222656 308.011719 31.613281 C 308.011719 34.007812 306.292969 35.480469 302.289062 38.824219 L 286.644531 51.976562 C 286.507812 52.113281 286.367188 52.253906 286.367188 52.640625 "/>
  </g>
</svg>