<?xml version="1.0" encoding="UTF-8" standalone="no"?>
<!-- Created with Inkscape (http://www.inkscape.org/) -->

<svg
   xmlns:dc="http://purl.org/dc/elements/1.1/"
   xmlns:cc="http://creativecommons.org/ns#"
   xmlns:rdf="http://www.w3.org/1999/02/22-rdf-syntax-ns#"
   xmlns:svg="http://www.w3.org/2000/svg"
   xmlns="http://www.w3.org/2000/svg"
   xmlns:sodipodi="http://sodipodi.sourceforge.net/DTD/sodipodi-0.dtd"
   xmlns:inkscape="http://www.inkscape.org/namespaces/inkscape"
   width="999.99988"
   height="231.56013"
   id="svg6778"
   version="1.1"
   inkscape:version="0.48.2 r9819"
   sodipodi:docname="A.svg">
  <defs
     id="defs6780">
    <clipPath
       clipPathUnits="userSpaceOnUse"
       id="clipPath3583">
      <path
         inkscape:connector-curvature="0"
         d="m 28.346,356.42 81.569,0 0,9.712 -81.569,0 0,-9.712 z"
         id="path3585" />
    </clipPath>
    <clipPath
       clipPathUnits="userSpaceOnUse"
       id="clipPath7103">
      <path
         inkscape:connector-curvature="0"
         d="m 664.016,628.016 56.939,0 0,13.141 -56.939,0 0,-13.141 z"
         id="path7105" />
    </clipPath>
    <clipPath
       clipPathUnits="userSpaceOnUse"
       id="clipPath7151">
      <path
         inkscape:connector-curvature="0"
         d="m 664.016,528.803 56.81,0 0,13.111 -56.81,0 0,-13.111 z"
         id="path7153" />
    </clipPath>
  </defs>
  <sodipodi:namedview
     id="base"
     pagecolor="#ffffff"
     bordercolor="#666666"
     borderopacity="1.0"
     inkscape:pageopacity="0.0"
     inkscape:pageshadow="2"
     inkscape:zoom="0.24748737"
     inkscape:cx="1574.8932"
     inkscape:cy="321.10435"
     inkscape:document-units="px"
     inkscape:current-layer="layer1"
     showgrid="false"
     fit-margin-top="0.5"
     fit-margin-left="0.5"
     fit-margin-right="0.5"
     fit-margin-bottom="0.5"
     inkscape:window-width="1102"
     inkscape:window-height="1040"
     inkscape:window-x="821"
     inkscape:window-y="-18"
     inkscape:window-maximized="0" />
  <metadata
     id="metadata6783">
    <rdf:RDF>
      <cc:Work
         rdf:about="">
        <dc:format>image/svg+xml</dc:format>
        <dc:type
           rdf:resource="http://purl.org/dc/dcmitype/StillImage" />
        <dc:title></dc:title>
      </cc:Work>
    </rdf:RDF>
  </metadata>
  <g
     inkscape:label="Layer 1"
     inkscape:groupmode="layer"
     id="layer1"
     transform="translate(37.858829,-316.20804)">
    <path
       inkscape:connector-curvature="0"
       d="m 961.64106,547.26817 -230.5601,0 -116.42855,-113.78566 116.42855,-116.77444 230.5601,0 z"
       style="fill:#00c0f3;fill-opacity:1;fill-rule:nonzero;stroke:none"
       id="path7163"
       sodipodi:nodetypes="cccccc" />
    <path
       inkscape:connector-curvature="0"
       d="m -37.358829,547.26815 768.457489,0 0,-230.56011 -768.457489,0 0,230.56011 z"
       style="fill:#000000;fill-opacity:1;fill-rule:nonzero;stroke:none"
       id="path7145" />
    <g
       id="g7155"
       transform="matrix(17.585242,0,0,-17.585242,226.7327,467.04782)">
      <path
         inkscape:connector-curvature="0"
         d="m 0,0 -2.93,0 c -0.083,0 -0.099,0.033 -0.099,0.1 l 0,3.941 c 0,0.066 0.016,0.1 0.099,0.1 l 2.93,0 C 1.742,4.141 2.439,3.643 2.439,2.075 2.439,0.506 1.742,0 0,0 m 2.422,5.344 -9.352,0 c -0.083,0 -0.125,-0.05 -0.125,-0.124 l 0,-6.299 c 0,-0.075 0.042,-0.124 0.125,-0.124 l 9.352,0 c 2.746,0 4.133,0.912 4.133,3.294 0,2.365 -1.387,3.253 -4.133,3.253"
         style="fill:#ffffff;fill-opacity:1;fill-rule:nonzero;stroke:none"
         id="path7157" />
    </g>
    <g
       id="g7159"
       transform="matrix(17.585242,0,0,-17.585242,498.1486,437.42548)">
      <path
         inkscape:connector-curvature="0"
         d="m 0,0 -3.269,0 c -0.075,0 -0.1,0.025 -0.1,0.099 l 0,2.258 c 0,0.074 0.025,0.099 0.1,0.099 L 0,2.456 C 1.096,2.456 1.56,2.157 1.56,1.253 1.56,0.34 1.096,0 0,0 m 5.874,-2.622 -2.705,1.908 c -0.067,0.05 -0.108,0.075 -0.108,0.108 0,0.033 0.025,0.05 0.083,0.05 1.369,0 2.431,0.639 2.431,2.049 0,1.403 -0.913,2.166 -2.597,2.166 l -10.248,0 c -0.083,0 -0.125,-0.049 -0.125,-0.124 l 0,-6.298 c 0,-0.075 0.042,-0.125 0.125,-0.125 l 3.771,0 c 0.083,0 0.125,0.05 0.125,0.125 l 0,1.493 c 0,0.075 0.024,0.1 0.099,0.1 l 2.17,0 c 0.108,0 0.15,-0.008 0.224,-0.067 l 1.884,-1.559 c 0.092,-0.075 0.158,-0.092 0.265,-0.092 l 4.689,0 c 0.067,0 0.1,0.025 0.1,0.075 0,0.066 -0.117,0.141 -0.183,0.191"
         style="fill:#ffffff;fill-opacity:1;fill-rule:nonzero;stroke:none"
         id="path7161" />
    </g>
    <g
       id="g7165"
       transform="matrix(17.585242,0,0,-17.585242,794.60588,468.86965)">
      <path
         inkscape:connector-curvature="0"
         d="m 0,0 0,-1.299 c 0,-0.087 0.046,-0.133 0.133,-0.133 l 5.486,0 c 0.087,0 0.133,0.046 0.133,0.133 l 0,1.489 c 0,0.087 -0.046,0.128 -0.133,0.128 l -2.476,0 c -0.053,0 -0.064,0.017 -0.064,0.035 0,0.017 0.006,0.042 0.035,0.065 l 0.991,0.829 c 1.09,0.91 1.537,1.386 1.537,2.482 0,1.078 -0.899,2.134 -2.899,2.134 C 1.362,5.863 0.417,5.399 0.18,5.242 0.145,5.219 0.11,5.196 0.11,5.138 l 0,-1.653 c 0,-0.063 0.011,-0.098 0.064,-0.098 0.017,0 0.034,0.006 0.069,0.023 0.395,0.197 1.427,0.649 2.349,0.649 0.637,0 0.986,-0.197 0.986,-0.591 C 3.578,3.073 3.294,2.83 2.632,2.279 L 0.046,0.11 C 0.023,0.087 0,0.064 0,0"
         style="fill:#ffffff;fill-opacity:1;fill-rule:nonzero;stroke:none"
         id="path7167" />
    </g>
  </g>
</svg>
