<?xml version="1.0" encoding="UTF-8" ?>
<!DOCTYPE svg PUBLIC "-//W3C//DTD SVG 1.1//EN" "http://www.w3.org/Graphics/SVG/1.1/DTD/svg11.dtd">
<svg width="500pt" height="200pt" viewBox="0 0 500 200" version="1.1" xmlns="http://www.w3.org/2000/svg">
<g id="#3f3065a3">
<path fill="#3f3065" opacity="0.64" d=" M 333.24 4.28 C 347.37 -2.32 365.13 -1.09 377.80 8.18 C 365.41 11.55 353.37 17.04 343.45 25.28 C 338.98 28.47 334.85 32.14 331.37 36.40 C 322.68 44.66 316.70 55.34 311.95 66.24 C 306.39 56.39 305.38 44.18 308.45 33.36 C 311.91 20.66 321.25 9.72 333.24 4.28 Z" />
</g>
<g id="#6948aaff">
<path fill="#6948aa" opacity="1.00" d=" M 377.80 8.18 C 397.94 2.98 419.72 4.21 439.01 12.09 C 463.93 22.06 484.39 42.74 493.73 67.94 C 499.92 83.80 501.20 101.28 498.84 118.05 C 494.90 143.36 480.38 166.77 459.56 181.68 C 443.24 193.46 423.14 200.18 402.97 199.90 C 375.79 200.54 348.85 188.41 330.61 168.38 C 316.63 153.21 307.71 133.47 305.62 112.94 C 303.68 97.16 306.27 81.02 311.95 66.24 C 316.70 55.34 322.68 44.66 331.37 36.40 C 329.77 40.99 327.38 45.34 326.63 50.18 C 324.45 61.78 328.94 73.77 337.33 81.86 C 329.60 81.79 321.87 81.88 314.15 81.88 C 314.11 97.01 314.16 112.13 314.12 127.25 C 316.89 127.27 319.67 127.29 322.45 127.32 C 322.57 121.24 322.45 115.16 322.53 109.08 C 328.04 109.15 333.55 109.07 339.06 109.18 C 331.66 115.93 326.47 125.13 324.89 135.04 C 322.82 146.86 325.68 159.66 333.17 169.12 C 335.04 166.11 336.89 163.08 338.82 160.10 C 347.51 163.36 356.63 165.81 365.99 165.45 C 384.74 166.79 403.07 157.04 414.52 142.52 C 418.22 138.27 421.65 133.74 423.63 128.42 C 425.91 128.26 428.19 128.12 430.46 127.88 C 430.47 127.69 430.50 127.32 430.52 127.13 C 430.62 115.36 430.49 103.58 430.55 91.80 C 437.55 103.69 444.70 115.50 451.74 127.37 C 454.28 127.36 456.82 127.36 459.36 127.38 C 466.74 115.41 474.11 103.44 481.41 91.42 C 481.37 103.35 481.41 115.29 481.44 127.22 C 484.27 127.24 487.10 127.24 489.94 127.23 C 489.74 112.21 490.22 97.19 490.11 82.16 C 486.14 82.09 482.17 82.09 478.20 82.15 C 470.87 94.11 463.52 106.06 456.16 118.01 C 449.66 106.86 442.94 95.84 436.44 84.70 C 435.61 83.51 434.90 81.63 433.10 81.91 C 429.63 81.78 426.15 81.92 422.68 81.70 C 422.05 78.35 420.22 75.40 418.45 72.55 C 413.75 65.11 407.46 58.68 400.02 53.98 C 399.10 53.15 397.43 52.65 397.54 51.16 C 397.32 47.46 397.87 43.69 396.89 40.05 C 395.71 41.16 394.55 42.28 393.39 43.39 C 390.49 40.23 389.00 36.07 386.01 32.98 C 379.29 25.41 369.11 21.01 358.98 21.58 C 353.59 21.69 348.59 23.92 343.45 25.28 C 353.37 17.04 365.41 11.55 377.80 8.18 Z" />
<path fill="#6948aa" opacity="1.00" d=" M 369.15 89.85 C 372.21 88.61 375.28 87.39 378.34 86.15 C 378.33 89.97 378.80 93.78 379.81 97.47 L 379.84 98.30 C 376.33 97.55 372.74 97.27 369.16 97.26 C 369.17 94.79 369.16 92.32 369.15 89.85 Z" />
<path fill="#6948aa" opacity="1.00" d=" M 322.51 89.45 C 332.83 89.65 343.19 89.10 353.49 89.81 C 355.79 90.22 358.12 90.50 360.46 90.58 C 360.46 93.17 360.45 95.76 360.44 98.36 C 357.41 98.80 354.52 99.82 351.78 101.18 C 342.04 101.72 332.26 101.27 322.50 101.43 C 322.50 97.43 322.50 93.44 322.51 89.45 Z" />
<path fill="#6948aa" opacity="1.00" d=" M 9.08 139.47 C 18.04 139.46 27.00 139.43 35.96 139.48 C 42.36 139.50 49.03 141.73 53.38 146.60 C 59.42 153.61 59.87 164.48 55.42 172.43 C 51.67 179.26 43.69 182.87 36.09 182.83 C 27.09 182.88 18.10 182.84 9.10 182.84 C 9.12 168.38 9.17 153.93 9.08 139.47 M 17.31 146.78 C 17.32 156.37 17.35 165.97 17.29 175.57 C 23.38 175.50 29.47 175.73 35.55 175.45 C 40.56 175.15 46.01 173.13 48.47 168.45 C 50.73 164.04 50.83 158.55 48.83 154.03 C 46.56 149.19 40.95 147.16 35.93 146.90 C 29.73 146.59 23.52 146.84 17.31 146.78 Z" />
<path fill="#6948aa" opacity="1.00" d=" M 136.42 139.46 C 139.77 139.45 143.11 139.45 146.45 139.47 C 153.94 153.89 161.31 168.38 168.94 182.72 C 165.73 182.90 162.51 182.89 159.29 182.80 C 157.50 179.09 155.61 175.43 153.86 171.69 C 144.83 171.58 135.80 171.68 126.77 171.64 C 124.72 175.37 122.54 179.02 120.53 182.78 C 113.84 182.87 107.14 182.92 100.45 182.75 C 96.30 177.18 92.18 171.56 87.75 166.22 C 83.20 165.53 78.49 165.96 73.89 166.14 C 73.91 171.70 73.87 177.27 73.92 182.84 C 71.17 182.85 68.42 182.85 65.67 182.86 C 65.68 168.46 65.68 154.05 65.68 139.65 C 75.13 139.64 84.58 139.65 94.03 139.64 C 98.10 139.60 102.39 140.65 105.43 143.49 C 110.67 148.53 110.31 158.14 104.63 162.71 C 102.68 164.39 100.13 165.05 97.71 165.73 C 102.22 171.14 106.18 177.00 110.84 182.29 C 119.33 167.99 127.89 153.74 136.42 139.46 M 130.87 164.28 C 137.31 164.31 143.74 164.29 150.18 164.30 C 147.11 158.28 144.15 152.21 141.13 146.17 C 137.73 152.22 134.35 158.28 130.87 164.28 M 73.89 146.58 C 73.90 150.66 73.88 154.73 73.91 158.81 C 79.95 158.88 85.99 158.82 92.02 158.86 C 94.27 158.79 96.72 159.01 98.71 157.74 C 101.72 156.05 102.52 151.43 99.99 148.98 C 98.00 146.71 94.75 146.52 91.95 146.54 C 85.93 146.57 79.91 146.52 73.89 146.58 Z" />
<path fill="#6948aa" opacity="1.00" d=" M 268.17 139.44 C 271.50 139.46 274.83 139.45 278.17 139.47 C 285.56 153.98 293.15 168.39 300.62 182.86 C 297.41 182.85 294.21 182.85 291.00 182.84 C 289.14 179.10 287.34 175.32 285.41 171.61 C 276.46 171.66 267.51 171.68 258.57 171.60 C 256.32 175.30 254.30 179.14 252.09 182.86 C 248.77 182.86 245.45 182.87 242.13 182.78 C 250.94 168.42 259.40 153.84 268.17 139.44 M 262.56 164.30 C 268.99 164.30 275.43 164.28 281.87 164.31 C 278.85 158.32 275.83 152.33 272.95 146.27 C 269.23 152.13 266.12 158.35 262.56 164.30 Z" />
<path fill="#6948aa" opacity="1.00" d=" M 172.82 139.65 C 176.96 139.64 181.10 139.65 185.24 139.64 C 192.16 151.12 198.91 162.70 205.84 174.17 C 212.77 162.61 219.96 151.20 226.94 139.66 C 230.69 139.64 234.44 139.64 238.20 139.66 C 238.20 154.05 238.20 168.45 238.20 182.85 C 235.43 182.86 232.67 182.85 229.91 182.80 C 229.89 171.51 229.96 160.22 229.89 148.93 C 222.77 160.15 215.96 171.55 208.95 182.84 C 206.44 182.85 203.93 182.85 201.43 182.82 C 194.76 171.47 187.81 160.29 181.31 148.86 C 180.50 160.13 181.07 171.48 181.11 182.79 C 178.35 182.85 175.58 182.86 172.82 182.84 C 172.82 168.45 172.81 154.05 172.82 139.65 Z" />
</g>
<g id="#936ecfff">
<path fill="#936ecf" opacity="1.00" d=" M 343.45 25.28 C 348.59 23.92 353.59 21.69 358.98 21.58 C 369.11 21.01 379.29 25.41 386.01 32.98 C 389.00 36.07 390.49 40.23 393.39 43.39 C 394.55 42.28 395.71 41.16 396.89 40.05 C 397.87 43.69 397.32 47.46 397.54 51.16 C 397.43 52.65 399.10 53.15 400.02 53.98 C 407.46 58.68 413.75 65.11 418.45 72.55 C 420.22 75.40 422.05 78.35 422.68 81.70 C 421.85 82.97 421.60 84.47 421.68 85.97 C 421.75 99.76 421.71 113.56 421.70 127.36 C 424.63 127.22 427.57 127.16 430.52 127.13 C 430.50 127.32 430.47 127.69 430.46 127.88 C 428.19 128.12 425.91 128.26 423.63 128.42 C 421.65 133.74 418.22 138.27 414.52 142.52 C 403.07 157.04 384.74 166.79 365.99 165.45 C 356.63 165.81 347.51 163.36 338.82 160.10 C 336.89 163.08 335.04 166.11 333.17 169.12 C 325.68 159.66 322.82 146.86 324.89 135.04 C 326.47 125.13 331.66 115.93 339.06 109.18 C 343.31 109.27 347.56 109.24 351.82 109.19 C 351.83 106.52 351.84 103.85 351.78 101.18 C 354.52 99.82 357.41 98.80 360.44 98.36 C 360.54 108.02 360.31 117.68 360.66 127.33 C 363.43 127.27 366.20 127.23 368.98 127.21 C 369.12 117.23 369.09 107.24 369.16 97.26 C 372.74 97.27 376.33 97.55 379.84 98.30 C 379.88 107.94 380.10 117.58 380.03 127.22 C 391.89 127.19 403.75 127.31 415.61 127.43 C 415.61 124.79 415.61 122.16 415.61 119.52 C 406.59 119.70 397.57 119.33 388.56 119.80 C 388.56 107.18 388.47 94.55 388.56 81.92 C 385.59 81.77 382.62 81.67 379.64 81.60 C 379.89 86.88 380.04 92.18 379.81 97.47 C 378.80 93.78 378.33 89.97 378.34 86.15 C 375.28 87.39 372.21 88.61 369.15 89.85 C 369.14 87.15 369.15 84.46 369.17 81.77 C 366.27 81.77 363.37 81.80 360.47 81.87 C 360.46 84.77 360.46 87.67 360.46 90.58 C 358.12 90.50 355.79 90.22 353.49 89.81 C 353.52 87.19 353.54 84.57 353.56 81.95 C 348.15 81.73 342.74 81.91 337.33 81.86 C 328.94 73.77 324.45 61.78 326.63 50.18 C 327.38 45.34 329.77 40.99 331.37 36.40 C 334.85 32.14 338.98 28.47 343.45 25.28 Z" />
</g>
<g id="#000000ff">
<path fill="#000000" opacity="1.00" d=" M 149.50 88.47 C 153.23 83.79 159.28 81.87 164.98 80.97 C 175.32 79.75 186.25 81.48 195.21 86.98 C 193.67 89.20 192.11 91.41 190.51 93.59 C 183.77 89.66 175.72 88.41 168.02 88.54 C 163.81 89.00 157.65 89.84 156.75 94.93 C 156.19 97.73 159.52 98.61 161.61 99.06 C 169.08 100.25 176.75 100.14 184.14 101.93 C 187.86 102.91 191.92 104.63 193.69 108.30 C 195.69 113.06 193.93 118.78 190.27 122.25 C 184.97 127.45 177.16 129.02 169.96 128.86 C 160.97 128.90 151.39 126.93 144.56 120.69 C 146.51 118.53 148.48 116.38 150.43 114.22 C 158.49 120.85 169.84 122.41 179.73 119.66 C 182.93 118.76 186.50 115.72 185.00 112.04 C 182.27 108.40 177.09 108.75 173.04 108.22 C 165.71 107.28 157.68 107.87 151.17 103.79 C 146.10 100.56 145.84 92.86 149.50 88.47 Z" />
<path fill="#000000" opacity="1.00" d=" M 0.09 81.65 C 3.50 81.68 6.92 81.69 10.33 81.65 C 16.82 94.09 22.87 106.76 29.42 119.17 C 36.65 106.66 44.09 94.27 51.25 81.72 C 54.24 81.66 57.23 81.66 60.22 81.68 C 51.12 96.87 42.27 112.20 33.24 127.43 C 30.26 127.44 27.28 127.43 24.30 127.37 C 16.37 112.06 8.17 96.89 0.09 81.65 Z" />
<path fill="#000000" opacity="1.00" d=" M 65.59 81.67 C 68.48 81.67 71.37 81.67 74.26 81.68 C 74.25 96.92 74.25 112.17 74.26 127.42 C 71.37 127.43 68.48 127.43 65.59 127.42 C 65.61 112.17 65.61 96.92 65.59 81.67 Z" />
<path fill="#000000" opacity="1.00" d=" M 82.18 127.40 C 91.44 112.21 100.38 96.83 109.64 81.65 C 113.12 81.68 116.59 81.68 120.06 81.68 C 128.03 96.91 135.85 112.23 143.85 127.44 C 140.47 127.42 137.10 127.41 133.73 127.44 C 131.69 123.50 129.81 119.49 127.81 115.53 C 118.30 115.55 108.78 115.39 99.27 115.61 C 97.28 119.63 94.88 123.41 92.78 127.37 C 89.25 127.45 85.71 127.44 82.18 127.40 M 103.81 107.67 C 110.53 107.73 117.24 107.70 123.96 107.69 C 120.77 101.48 117.76 95.19 114.62 88.97 C 110.71 95.02 107.53 101.50 103.81 107.67 Z" />
<path fill="#000000" opacity="1.00" d=" M 222.26 81.76 C 225.85 81.63 229.44 81.61 233.03 81.78 C 240.79 97.04 248.75 112.20 256.63 127.41 C 253.28 127.42 249.93 127.42 246.59 127.45 C 244.59 123.54 242.60 119.62 240.79 115.63 C 231.27 115.39 221.75 115.53 212.24 115.55 C 210.06 119.50 207.75 123.37 205.66 127.37 C 202.11 127.45 198.56 127.44 195.02 127.41 C 204.13 112.21 213.31 97.05 222.26 81.76 M 216.63 107.69 C 223.35 107.69 230.07 107.75 236.79 107.66 C 233.53 101.43 230.63 95.01 227.27 88.83 C 223.79 95.15 220.23 101.43 216.63 107.69 Z" />
<path fill="#000000" opacity="1.00" d=" M 252.24 81.97 C 267.55 81.68 282.87 81.92 298.19 81.85 C 298.18 84.39 298.21 86.94 298.30 89.48 C 292.01 89.78 285.71 89.64 279.42 89.54 C 279.16 102.16 279.37 114.79 279.32 127.42 C 276.43 127.43 273.54 127.43 270.66 127.42 C 270.64 114.81 270.75 102.20 270.60 89.59 C 264.49 89.67 258.38 89.63 252.27 89.62 C 252.30 87.07 252.29 84.52 252.24 81.97 Z" />
</g>
<g id="#ffffffff">
<path fill="#ffffff" opacity="1.00" d=" M 314.15 81.88 C 321.87 81.88 329.60 81.79 337.33 81.86 C 342.74 81.91 348.15 81.73 353.56 81.95 C 353.54 84.57 353.52 87.19 353.49 89.81 C 343.19 89.10 332.83 89.65 322.51 89.45 C 322.50 93.44 322.50 97.43 322.50 101.43 C 332.26 101.27 342.04 101.72 351.78 101.18 C 351.84 103.85 351.83 106.52 351.82 109.19 C 347.56 109.24 343.31 109.27 339.06 109.18 C 333.55 109.07 328.04 109.15 322.53 109.08 C 322.45 115.16 322.57 121.24 322.45 127.32 C 319.67 127.29 316.89 127.27 314.12 127.25 C 314.16 112.13 314.11 97.01 314.15 81.88 Z" />
<path fill="#ffffff" opacity="1.00" d=" M 360.47 81.87 C 363.37 81.80 366.27 81.77 369.17 81.77 C 369.15 84.46 369.14 87.15 369.15 89.85 C 369.16 92.32 369.17 94.79 369.16 97.26 C 369.09 107.24 369.12 117.23 368.98 127.21 C 366.20 127.23 363.43 127.27 360.66 127.33 C 360.31 117.68 360.54 108.02 360.44 98.36 C 360.45 95.76 360.46 93.17 360.46 90.58 C 360.46 87.67 360.46 84.77 360.47 81.87 Z" />
<path fill="#ffffff" opacity="1.00" d=" M 379.64 81.60 C 382.62 81.67 385.59 81.77 388.56 81.92 C 388.47 94.55 388.56 107.18 388.56 119.80 C 397.57 119.33 406.59 119.70 415.61 119.52 C 415.61 122.16 415.61 124.79 415.61 127.43 C 403.75 127.31 391.89 127.19 380.03 127.22 C 380.10 117.58 379.88 107.94 379.84 98.30 L 379.81 97.47 C 380.04 92.18 379.89 86.88 379.64 81.60 Z" />
<path fill="#ffffff" opacity="1.00" d=" M 421.68 85.97 C 421.60 84.47 421.85 82.97 422.68 81.70 C 426.15 81.92 429.63 81.78 433.10 81.91 C 434.90 81.63 435.61 83.51 436.44 84.70 C 442.94 95.84 449.66 106.86 456.16 118.01 C 463.52 106.06 470.87 94.11 478.20 82.15 C 482.17 82.09 486.14 82.09 490.11 82.16 C 490.22 97.19 489.74 112.21 489.94 127.23 C 487.10 127.24 484.27 127.24 481.44 127.22 C 481.41 115.29 481.37 103.35 481.41 91.42 C 474.11 103.44 466.74 115.41 459.36 127.38 C 456.82 127.36 454.28 127.36 451.74 127.37 C 444.70 115.50 437.55 103.69 430.55 91.80 C 430.49 103.58 430.62 115.36 430.52 127.13 C 427.57 127.16 424.63 127.22 421.70 127.36 C 421.71 113.56 421.75 99.76 421.68 85.97 Z" />
</g>
</svg>
