<?xml version="1.0" encoding="UTF-8" ?>
<!DOCTYPE svg PUBLIC "-//W3C//DTD SVG 1.1//EN" "http://www.w3.org/Graphics/SVG/1.1/DTD/svg11.dtd">
<svg width="500pt" height="161pt" viewBox="0 0 500 161" version="1.1" xmlns="http://www.w3.org/2000/svg">
<g id="#3f3065a3">
<path fill="#3f3065" opacity="0.64" d=" M 280.44 0.00 L 287.62 0.00 C 294.14 0.49 299.94 3.59 305.78 6.23 C 295.85 8.62 286.34 12.96 278.32 19.33 C 273.80 22.38 269.74 26.09 266.30 30.33 C 259.53 37.25 254.55 45.75 251.19 54.79 C 250.46 49.75 247.91 45.14 247.65 40.01 C 246.56 29.18 250.62 18.01 258.44 10.44 C 264.30 4.55 272.25 1.06 280.44 0.00 Z" />
</g>
<g id="#6948aaff">
<path fill="#6948aa" opacity="1.00" d=" M 305.78 6.23 C 331.95 -0.55 361.24 7.51 380.24 26.73 C 394.51 40.62 402.86 60.18 403.49 80.04 C 404.02 96.33 399.25 112.73 390.13 126.22 C 380.88 140.02 367.16 150.78 351.51 156.36 C 339.60 160.75 326.65 161.75 314.10 160.29 C 297.07 158.01 280.85 149.92 268.81 137.66 C 272.42 131.51 278.83 127.91 285.07 124.94 C 290.98 122.99 297.08 121.27 303.35 121.23 C 303.43 122.30 303.52 123.37 303.60 124.44 C 306.92 125.47 310.37 126.03 313.85 126.15 C 315.44 126.65 317.01 127.39 318.70 127.46 C 321.49 126.75 323.74 124.82 325.92 123.04 C 332.20 117.45 338.24 111.28 341.79 103.54 C 343.65 103.14 345.51 102.75 347.37 102.36 C 347.35 92.82 347.32 83.28 347.36 73.74 C 353.06 83.36 358.76 92.98 364.60 102.52 C 366.66 102.45 368.71 102.39 370.77 102.33 C 376.59 92.73 382.49 83.18 388.38 73.63 C 388.47 83.20 388.35 92.76 388.53 102.33 C 390.76 102.31 393.00 102.29 395.24 102.27 C 395.16 90.12 395.39 77.98 395.32 65.84 C 392.20 65.85 389.08 65.85 385.96 65.86 C 379.99 75.56 373.98 85.23 368.05 94.95 C 362.40 85.20 356.50 75.59 350.84 65.86 C 347.41 65.82 343.98 65.79 340.55 65.69 C 340.26 60.97 337.08 57.20 334.32 53.62 C 330.59 48.84 325.76 45.08 320.74 41.74 C 320.68 38.53 320.62 35.33 320.56 32.12 C 319.34 32.99 318.13 33.85 316.92 34.72 C 313.38 27.79 307.96 21.39 300.35 18.90 C 293.24 16.10 285.48 17.54 278.32 19.33 C 286.34 12.96 295.85 8.62 305.78 6.23 Z" />
<path fill="#6948aa" opacity="1.00" d=" M 251.19 54.79 C 254.55 45.75 259.53 37.25 266.30 30.33 C 264.16 36.80 262.31 43.69 263.61 50.53 C 264.56 56.32 268.19 61.10 271.47 65.78 C 265.45 65.72 259.43 65.77 253.41 65.81 C 253.46 78.00 253.36 90.19 253.47 102.38 C 255.70 102.35 257.94 102.32 260.18 102.30 C 260.18 97.44 260.18 92.57 260.16 87.71 C 264.52 87.71 268.87 87.71 273.23 87.72 C 266.14 94.96 261.22 104.67 261.61 115.00 C 261.33 122.30 264.73 128.90 266.94 135.66 C 246.94 114.59 240.52 81.83 251.19 54.79 Z" />
<path fill="#6948aa" opacity="1.00" d=" M 297.74 71.77 C 300.63 70.84 303.58 70.08 306.44 69.04 C 306.41 72.32 306.46 75.59 306.52 78.86 C 303.59 78.45 300.66 78.04 297.73 77.67 C 297.73 75.70 297.73 73.73 297.74 71.77 Z" />
<path fill="#6948aa" opacity="1.00" d=" M 260.20 71.91 C 267.02 71.88 273.83 71.86 280.64 72.15 C 283.85 72.38 287.04 72.77 290.24 73.11 C 290.25 75.03 290.25 76.96 290.27 78.89 C 288.09 79.71 285.92 80.55 283.70 81.25 C 275.86 81.81 267.99 81.37 260.14 81.50 C 260.16 78.31 260.18 75.11 260.20 71.91 Z" />
<path fill="#6948aa" opacity="1.00" d=" M 7.25 112.16 C 14.84 112.26 22.43 112.07 30.02 112.24 C 36.78 112.40 43.76 116.34 45.97 122.99 C 47.94 129.39 47.11 137.26 42.08 142.09 C 38.43 145.81 33.04 147.21 27.96 147.20 C 21.05 147.24 14.15 147.18 7.25 147.21 C 7.26 135.53 7.25 123.84 7.25 112.16 M 13.85 118.14 C 13.85 125.85 13.85 133.56 13.85 141.27 C 20.52 140.91 27.50 142.29 33.93 140.01 C 40.49 137.59 42.02 128.80 38.91 123.16 C 36.86 119.77 32.79 118.42 29.03 118.22 C 23.97 117.99 18.91 118.18 13.85 118.14 Z" />
<path fill="#6948aa" opacity="1.00" d=" M 52.90 112.34 C 60.30 112.31 67.69 112.32 75.09 112.31 C 78.27 112.26 81.62 112.80 84.22 114.76 C 88.50 117.97 89.03 124.67 86.16 128.97 C 84.56 131.52 81.57 132.45 78.95 133.54 C 82.62 137.75 85.40 142.74 89.63 146.45 C 86.91 147.52 83.95 147.18 81.11 147.21 C 77.70 142.57 74.14 138.06 70.67 133.47 C 66.98 133.47 63.30 133.48 59.62 133.47 C 59.66 138.05 59.63 142.64 59.61 147.23 C 57.37 147.21 55.13 147.20 52.89 147.19 C 52.90 135.57 52.89 123.96 52.90 112.34 M 59.64 117.85 C 59.64 121.19 59.63 124.53 59.64 127.87 C 65.42 127.72 71.22 128.05 77.00 127.72 C 79.46 127.61 81.92 125.61 81.74 122.99 C 82.05 119.90 78.84 118.00 76.11 117.97 C 70.62 117.66 65.13 117.96 59.64 117.85 Z" />
<path fill="#6948aa" opacity="1.00" d=" M 110.01 112.19 C 112.70 112.18 115.39 112.17 118.08 112.15 C 124.14 123.84 130.20 135.53 136.27 147.20 C 133.71 147.21 131.14 147.21 128.58 147.23 C 127.03 144.21 125.53 141.16 124.02 138.11 C 116.74 138.13 109.46 138.07 102.18 138.15 C 100.51 141.17 98.82 144.17 97.12 147.17 C 94.57 147.20 92.02 147.23 89.47 147.35 C 91.01 143.47 93.36 140.00 95.49 136.44 C 100.31 128.34 105.18 120.28 110.01 112.19 M 105.56 132.21 C 110.72 132.18 115.89 132.20 121.05 132.19 C 118.69 127.31 116.24 122.48 113.85 117.61 C 111.06 122.46 108.33 127.35 105.56 132.21 Z" />
<path fill="#6948aa" opacity="1.00" d=" M 139.43 112.30 C 142.77 112.33 146.10 112.33 149.44 112.31 C 154.95 121.61 160.56 130.86 166.00 140.21 C 171.64 130.88 177.39 121.62 183.09 112.32 C 186.12 112.32 189.15 112.32 192.18 112.32 C 192.19 123.95 192.18 135.58 192.19 147.20 C 189.97 147.21 187.75 147.21 185.53 147.22 C 185.51 138.04 185.57 128.86 185.51 119.68 C 179.70 128.79 174.25 138.13 168.43 147.23 C 166.48 147.22 164.54 147.22 162.61 147.22 C 157.07 138.10 151.59 128.94 146.17 119.74 C 146.02 128.89 146.14 138.04 146.11 147.19 C 143.88 147.20 141.67 147.21 139.45 147.23 C 139.41 135.59 139.44 123.94 139.43 112.30 Z" />
<path fill="#6948aa" opacity="1.00" d=" M 216.24 112.22 C 218.93 112.18 221.62 112.17 224.31 112.12 C 230.48 123.78 236.42 135.56 242.60 147.22 C 240.01 147.21 237.41 147.21 234.83 147.21 C 233.35 144.29 231.91 141.34 230.46 138.41 L 229.89 138.09 C 222.75 138.33 215.57 137.72 208.47 138.37 C 206.57 141.22 205.07 144.30 203.32 147.23 C 200.64 147.21 197.97 147.21 195.29 147.21 C 202.30 135.56 209.29 123.90 216.24 112.22 M 211.86 132.20 C 217.03 132.19 222.20 132.19 227.37 132.20 C 224.96 127.35 222.58 122.49 220.14 117.66 C 217.31 122.46 214.60 127.34 211.86 132.20 Z" />
</g>
<g id="#936ecfff">
<path fill="#936ecf" opacity="1.00" d=" M 278.32 19.33 C 285.48 17.54 293.24 16.10 300.35 18.90 C 307.96 21.39 313.38 27.79 316.92 34.72 C 318.13 33.85 319.34 32.99 320.56 32.12 C 320.62 35.33 320.68 38.53 320.74 41.74 C 325.76 45.08 330.59 48.84 334.32 53.62 C 337.08 57.20 340.26 60.97 340.55 65.69 C 340.14 77.89 340.41 90.11 340.35 102.32 C 342.69 102.32 345.03 102.33 347.37 102.36 C 345.51 102.75 343.65 103.14 341.79 103.54 C 338.24 111.28 332.20 117.45 325.92 123.04 C 323.74 124.82 321.49 126.75 318.70 127.46 C 317.01 127.39 315.44 126.65 313.85 126.15 C 310.37 126.03 306.92 125.47 303.60 124.44 C 303.52 123.37 303.43 122.30 303.35 121.23 C 297.08 121.27 290.98 122.99 285.07 124.94 C 278.83 127.91 272.42 131.51 268.81 137.66 C 268.18 136.99 267.56 136.33 266.94 135.66 C 264.73 128.90 261.33 122.30 261.61 115.00 C 261.22 104.67 266.14 94.96 273.23 87.72 C 276.75 87.74 280.27 87.75 283.79 87.76 C 283.76 85.59 283.73 83.42 283.70 81.25 C 285.92 80.55 288.09 79.71 290.27 78.89 C 290.25 76.96 290.25 75.03 290.24 73.11 C 287.04 72.77 283.85 72.38 280.64 72.15 C 282.17 72.10 283.71 72.04 285.25 71.95 C 285.23 69.88 285.22 67.81 285.21 65.74 C 280.63 65.76 276.05 65.79 271.47 65.78 C 268.19 61.10 264.56 56.32 263.61 50.53 C 262.31 43.69 264.16 36.80 266.30 30.33 C 269.74 26.09 273.80 22.38 278.32 19.33 M 290.75 65.68 C 291.13 77.90 290.58 90.13 290.88 102.36 C 293.16 102.27 295.44 102.23 297.73 102.22 C 297.67 94.03 297.73 85.85 297.73 77.67 C 300.66 78.04 303.59 78.45 306.52 78.86 C 306.64 86.66 306.58 94.47 306.65 102.27 C 316.24 102.22 325.84 102.41 335.44 102.43 C 335.40 100.34 335.38 98.24 335.36 96.14 C 328.04 96.22 320.73 96.14 313.42 96.23 C 313.64 86.06 313.48 75.89 313.45 65.72 C 311.11 65.66 308.78 65.59 306.45 65.53 C 306.44 66.70 306.44 67.87 306.44 69.04 C 303.58 70.08 300.63 70.84 297.74 71.77 C 297.74 69.76 297.76 67.75 297.77 65.74 C 295.43 65.75 293.08 65.73 290.75 65.68 Z" />
</g>
<g id="#000000ff">
<path fill="#000000" opacity="1.00" d=" M 121.80 69.78 C 125.63 66.25 131.00 65.16 136.03 64.76 C 143.49 64.39 151.05 66.13 157.55 69.84 C 156.31 71.60 155.06 73.35 153.82 75.10 C 146.82 71.79 138.64 70.01 131.01 71.98 C 128.25 72.51 126.79 74.97 125.74 77.33 C 127.36 78.29 128.94 79.51 130.88 79.72 C 137.89 80.87 145.29 80.29 151.94 83.15 C 154.65 84.29 156.98 86.87 156.88 89.95 C 157.35 96.06 151.99 100.79 146.55 102.37 C 136.54 105.08 124.76 103.88 116.54 97.15 C 118.09 95.39 119.64 93.63 121.19 91.87 C 126.04 95.42 131.91 97.60 137.98 97.29 C 141.72 97.08 146.22 96.81 148.78 93.68 C 150.42 91.72 149.12 88.81 146.78 88.25 C 139.75 85.97 132.06 87.41 125.05 84.98 C 122.55 84.12 120.01 82.55 119.09 79.94 C 117.65 76.41 119.03 72.25 121.80 69.78 Z" />
<path fill="#000000" opacity="1.00" d=" M 0.02 65.64 C 2.78 65.62 5.54 65.62 8.30 65.60 C 13.41 75.67 18.47 85.76 23.59 95.83 C 29.55 85.82 35.48 75.79 41.25 65.67 C 43.67 65.65 46.08 65.63 48.49 65.60 C 41.70 77.16 34.87 88.69 28.10 100.26 C 26.79 103.76 22.52 102.12 19.69 102.53 C 13.06 90.27 6.59 77.93 0.02 65.64 Z" />
<path fill="#000000" opacity="1.00" d=" M 52.82 65.63 C 55.16 65.63 57.49 65.63 59.83 65.63 C 59.82 77.91 59.81 90.18 59.83 102.46 C 57.49 102.46 55.16 102.46 52.82 102.47 C 52.83 90.19 52.83 77.91 52.82 65.63 Z" />
<path fill="#000000" opacity="1.00" d=" M 88.27 65.63 C 91.15 65.64 94.04 65.64 96.92 65.67 C 103.16 77.99 109.65 90.18 115.96 102.46 C 113.25 102.47 110.54 102.47 107.82 102.48 C 106.23 99.28 104.63 96.09 103.06 92.88 C 95.41 92.89 87.76 92.82 80.11 92.93 C 78.35 96.10 76.57 99.26 74.82 102.43 C 71.96 102.45 69.10 102.47 66.25 102.48 C 73.61 90.21 81.02 77.97 88.27 65.63 M 92.26 71.50 C 89.40 76.54 86.56 81.59 83.72 86.64 C 89.13 86.63 94.54 86.64 99.96 86.63 C 97.40 81.58 94.99 76.46 92.26 71.50 Z" />
<path fill="#000000" opacity="1.00" d=" M 179.29 65.67 C 182.17 65.64 185.05 65.64 187.93 65.64 C 194.23 77.95 200.64 90.20 207.04 102.45 C 204.31 102.47 201.59 102.47 198.87 102.48 C 197.26 99.28 195.67 96.08 194.09 92.87 C 186.45 92.89 178.81 92.84 171.17 92.91 C 169.43 96.10 167.64 99.26 165.88 102.43 C 163.02 102.45 160.16 102.47 157.30 102.49 C 164.66 90.23 172.08 78.01 179.29 65.67 M 183.36 71.43 C 180.49 76.49 177.62 81.55 174.79 86.63 C 180.19 86.64 185.59 86.63 190.99 86.64 C 188.47 81.56 185.99 76.45 183.36 71.43 Z" />
<path fill="#000000" opacity="1.00" d=" M 203.55 65.77 C 215.87 65.78 228.19 65.79 240.51 65.77 C 240.51 67.90 240.51 70.03 240.50 72.15 C 235.43 72.15 230.35 72.16 225.27 72.13 C 225.28 82.24 225.27 92.35 225.28 102.46 C 222.98 102.47 220.69 102.48 218.40 102.50 C 218.34 92.37 218.40 82.25 218.37 72.12 C 213.43 72.16 208.50 72.15 203.56 72.15 C 203.56 70.02 203.55 67.90 203.55 65.77 Z" />
</g>
<g id="#ffffffff">
<path fill="#ffffff" opacity="1.00" d=" M 253.41 65.81 C 259.43 65.77 265.45 65.72 271.47 65.78 C 276.05 65.79 280.63 65.76 285.21 65.74 C 285.22 67.81 285.23 69.88 285.25 71.95 C 283.71 72.04 282.17 72.10 280.64 72.15 C 273.83 71.86 267.02 71.88 260.20 71.91 C 260.18 75.11 260.16 78.31 260.14 81.50 C 267.99 81.37 275.86 81.81 283.70 81.25 C 283.73 83.42 283.76 85.59 283.79 87.76 C 280.27 87.75 276.75 87.74 273.23 87.72 C 268.87 87.71 264.52 87.71 260.16 87.71 C 260.18 92.57 260.18 97.44 260.18 102.30 C 257.94 102.32 255.70 102.35 253.47 102.38 C 253.36 90.19 253.46 78.00 253.41 65.81 Z" />
<path fill="#ffffff" opacity="1.00" d=" M 290.75 65.68 C 293.08 65.73 295.43 65.75 297.77 65.74 C 297.76 67.75 297.74 69.76 297.74 71.77 C 297.73 73.73 297.73 75.70 297.73 77.67 C 297.73 85.85 297.67 94.03 297.73 102.22 C 295.44 102.23 293.16 102.27 290.88 102.36 C 290.58 90.13 291.13 77.90 290.75 65.68 Z" />
<path fill="#ffffff" opacity="1.00" d=" M 306.44 69.04 C 306.44 67.87 306.44 66.70 306.45 65.53 C 308.78 65.59 311.11 65.66 313.45 65.72 C 313.48 75.89 313.64 86.06 313.42 96.23 C 320.73 96.14 328.04 96.22 335.36 96.14 C 335.38 98.24 335.40 100.34 335.44 102.43 C 325.84 102.41 316.24 102.22 306.65 102.27 C 306.58 94.47 306.64 86.66 306.52 78.86 C 306.46 75.59 306.41 72.32 306.44 69.04 Z" />
<path fill="#ffffff" opacity="1.00" d=" M 340.35 102.32 C 340.41 90.11 340.14 77.89 340.55 65.69 C 343.98 65.79 347.41 65.82 350.84 65.86 C 356.50 75.59 362.40 85.20 368.05 94.95 C 373.98 85.23 379.99 75.56 385.96 65.86 C 389.08 65.85 392.20 65.85 395.32 65.84 C 395.39 77.98 395.16 90.12 395.24 102.27 C 393.00 102.29 390.76 102.31 388.53 102.33 C 388.35 92.76 388.47 83.20 388.38 73.63 C 382.49 83.18 376.59 92.73 370.77 102.33 C 368.71 102.39 366.66 102.45 364.60 102.52 C 358.76 92.98 353.06 83.36 347.36 73.74 C 347.32 83.28 347.35 92.82 347.37 102.36 C 345.03 102.33 342.69 102.32 340.35 102.32 Z" />
</g>
<g id="#00000080">
<path fill="#000000" opacity="0.50" d=" M 412.06 65.56 C 414.41 65.57 416.76 65.57 419.12 65.54 C 418.91 70.79 418.88 76.04 418.99 81.29 C 426.01 81.34 433.04 81.27 440.06 81.37 C 441.46 81.15 443.28 81.72 444.43 80.78 C 444.94 75.73 444.45 70.64 444.60 65.58 C 446.93 65.53 449.27 65.48 451.61 65.43 C 451.90 77.65 451.61 89.87 451.77 102.09 C 449.38 102.11 447.00 102.17 444.62 102.27 C 444.60 97.33 444.58 92.39 444.60 87.46 C 436.11 87.46 427.62 87.52 419.14 87.41 C 418.93 92.34 418.84 97.27 418.98 102.20 C 416.68 102.18 414.39 102.17 412.11 102.17 C 412.09 89.97 412.16 77.76 412.06 65.56 Z" />
<path fill="#000000" opacity="0.50" d=" M 458.46 65.53 C 464.99 65.55 471.52 65.51 478.05 65.49 C 482.97 65.50 488.21 65.83 492.43 68.65 C 496.37 71.02 498.63 75.28 500.00 79.53 L 500.00 87.37 C 498.75 91.49 496.84 95.68 493.24 98.25 C 489.46 101.17 484.60 102.07 479.93 102.17 C 472.78 102.33 465.63 102.12 458.47 102.19 C 458.43 89.97 458.45 77.75 458.46 65.53 M 465.34 71.85 C 465.44 79.85 465.40 87.85 465.37 95.86 C 472.42 95.52 479.82 96.97 486.60 94.49 C 495.46 90.98 495.52 75.73 486.17 72.83 C 479.41 70.91 472.26 71.85 465.34 71.85 Z" />
</g>
</svg>
