<?xml version="1.0" encoding="UTF-8" standalone="yes"?>
<svg xmlns="http://www.w3.org/2000/svg" xmlns:xlink="http://www.w3.org/1999/xlink" width="106.66666666666666px" height="106.66666666666666px" viewBox="0 0 80 80" version="1.1">
  <g id="surface1">
    <path style=" stroke:none;fill-rule:nonzero;fill:rgb(0.392157%,17.647059%,35.686275%);fill-opacity:1;" d="M 22.902344 17.097656 C 10.253906 17.097656 0 27.351562 0 40 C 0 52.648438 10.253906 62.902344 22.902344 62.902344 C 29.699219 62.902344 35.804688 59.941406 40 55.238281 C 44.195312 59.941406 50.300781 62.902344 57.097656 62.902344 C 69.746094 62.902344 80 52.648438 80 40 C 80 27.351562 69.746094 17.097656 57.097656 17.097656 C 50.300781 17.097656 44.195312 20.058594 40 24.761719 C 35.804688 20.058594 29.699219 17.097656 22.902344 17.097656 Z M 22.902344 22.105469 C 32.785156 22.105469 40.796875 30.117188 40.796875 40 C 40.796875 49.882812 32.785156 57.894531 22.902344 57.894531 C 13.019531 57.894531 5.011719 49.882812 5.011719 40 C 5.011719 30.117188 13.019531 22.105469 22.902344 22.105469 Z M 13.179688 31.304688 L 13.179688 49 L 24.945312 49 C 30.308594 49 34.550781 45.6875 34.550781 40.152344 C 34.550781 34.617188 30.109375 31.304688 24.945312 31.304688 Z M 45.101562 32.539062 L 50.386719 32.539062 L 52.761719 40.753906 L 55.734375 32.539062 L 59.75 32.539062 L 62.722656 40.789062 L 65.097656 32.539062 L 70.382812 32.539062 L 65.425781 48.203125 L 60.890625 48.203125 L 57.722656 40.558594 L 54.515625 48.203125 L 50.058594 48.203125 Z M 18.789062 36.417969 L 24.117188 36.417969 C 26.953125 36.417969 28.585938 37.789062 28.585938 40.191406 C 28.585938 42.578125 27.050781 43.84375 24.199219 43.84375 L 18.789062 43.84375 Z M 18.789062 36.417969 "/>
  </g>
</svg>