<?xml version="1.0" encoding="UTF-8" standalone="yes"?>
<svg xmlns="http://www.w3.org/2000/svg" xmlns:xlink="http://www.w3.org/1999/xlink" width="445.3333333333333px" height="106.66666666666666px" viewBox="0 0 334 80" version="1.1">
  <defs>
    <linearGradient id="linear0" gradientUnits="userSpaceOnUse" x1="274.64203" y1="353.65765" x2="302.80609" y2="325.49359" gradientTransform="matrix(1.109635,0,0,1.111111,-73.790698,-376.631944)">
      <stop offset="0" style="stop-color:rgb(0%,10.196078%,29.411765%);stop-opacity:1;"/>
      <stop offset="1" style="stop-color:rgb(0%,10.196078%,29.411765%);stop-opacity:0;"/>
    </linearGradient>
  </defs>
  <g id="surface1">
    <path style=" stroke:none;fill-rule:nonzero;fill:url(#linear0);" d="M 295.371094 0 C 273.921875 0 256.535156 17.410156 256.535156 38.890625 C 256.535156 60.367188 273.921875 77.777344 295.371094 77.777344 C 316.820312 77.777344 334.207031 60.367188 334.207031 38.890625 C 334.207031 17.410156 316.820312 0 295.371094 0 Z M 295.371094 7.777344 C 312.53125 7.777344 326.441406 21.707031 326.441406 38.890625 C 326.441406 56.070312 312.53125 70 295.371094 70 C 278.210938 70 264.300781 56.070312 264.300781 38.890625 C 264.300781 21.707031 278.210938 7.777344 295.371094 7.777344 Z M 295.371094 7.777344 "/>
    <path style=" stroke:none;fill-rule:evenodd;fill:rgb(0%,10.196078%,29.411765%);fill-opacity:1;" d="M 238.882812 18.855469 C 232.140625 18.855469 226.675781 24.339844 226.675781 31.078125 C 226.675781 37.851562 232.140625 43.367188 238.882812 43.367188 C 245.625 43.367188 251.089844 37.851562 251.089844 31.078125 C 251.089844 24.339844 245.625 18.855469 238.882812 18.855469 Z M 152.4375 20.589844 L 152.4375 53.957031 L 158.261719 53.957031 L 158.261719 42.984375 C 158.261719 39.007812 160.597656 35.625 163.566406 35.625 C 165.714844 35.625 166.339844 37.066406 166.339844 39.445312 L 166.339844 53.957031 L 172.167969 53.957031 L 172.167969 38.019531 C 172.167969 34.042969 170.519531 30.765625 165.40625 30.765625 C 161.890625 30.765625 159.273438 32.441406 157.949219 35 L 157.84375 34.964844 C 158.164062 33.640625 158.261719 31.71875 158.261719 30.347656 L 158.261719 20.589844 Z M 238.882812 20.660156 C 244.609375 20.660156 249.320312 25.328125 249.320312 31.078125 C 249.320312 36.863281 244.609375 41.5625 238.882812 41.5625 C 233.160156 41.5625 228.445312 36.863281 228.445312 31.078125 C 228.445312 25.328125 233.160156 20.660156 238.882812 20.660156 Z M 10.578125 22.742188 L 7.144531 23.714844 L 7.144531 31.25 L 2.21875 31.25 L 2.21875 33.957031 L 7.144531 33.957031 L 7.144531 47.605469 C 7.144531 52.3125 8.472656 54.339844 13.039062 54.339844 C 14.453125 54.339844 16.046875 54.164062 17.234375 53.890625 L 17.234375 50.902344 C 16.320312 51.175781 15.152344 51.320312 14.007812 51.320312 C 11.316406 51.320312 10.578125 50.285156 10.578125 46.214844 L 10.578125 33.957031 L 17.234375 33.957031 L 17.234375 31.25 L 10.578125 31.25 Z M 243.84375 23.785156 L 231.53125 28.230469 L 231.53125 31.25 L 235.589844 29.792969 L 235.589844 38.992188 L 243.84375 36.078125 Z M 283.511719 24.757812 C 281.949219 24.757812 280.351562 24.914062 278.726562 25.207031 C 277.101562 25.492188 275.429688 25.90625 273.769531 26.457031 L 273.769531 32.742188 C 275.328125 31.769531 276.800781 31.042969 278.171875 30.554688 C 279.539062 30.054688 280.800781 29.792969 281.953125 29.792969 C 283.449219 29.792969 284.660156 30.222656 285.558594 31.042969 C 286.464844 31.863281 286.910156 32.925781 286.910156 34.269531 C 286.910156 35.140625 286.699219 36 286.25 36.804688 C 285.804688 37.613281 285.105469 38.425781 284.171875 39.269531 L 273.699219 48.542969 L 273.699219 53.957031 L 294.539062 53.957031 L 294.539062 48.542969 L 281.917969 48.542969 L 288.054688 43.160156 C 290.640625 40.890625 292.3125 39.089844 293.117188 37.742188 C 293.921875 36.386719 294.332031 34.898438 294.332031 33.332031 C 294.332031 30.628906 293.394531 28.527344 291.488281 27.015625 C 289.59375 25.5 286.941406 24.757812 283.511719 24.757812 Z M 308.0625 25.277344 L 296.585938 42.394531 L 296.585938 48.75 L 309.277344 48.75 L 309.277344 53.957031 L 316.28125 53.957031 L 316.28125 48.75 L 320.335938 48.75 L 320.335938 43.367188 L 316.28125 43.367188 L 316.28125 25.277344 Z M 122.269531 30.765625 C 115.875 30.765625 112.628906 34.042969 112.628906 38.019531 C 112.628906 45.75 121.78125 43.441406 121.78125 47.464844 C 121.78125 48.972656 120.34375 49.894531 118.105469 49.894531 C 116.371094 49.894531 114.632812 49.601562 113.21875 49.234375 L 113.078125 54.027344 C 114.539062 54.257812 116.183594 54.445312 117.828125 54.445312 C 124.039062 54.445312 127.953125 51.425781 127.953125 46.945312 C 127.953125 39.582031 118.660156 41.203125 118.660156 37.5 C 118.660156 36.082031 119.742188 35.171875 122.023438 35.171875 C 123.441406 35.171875 124.941406 35.398438 126.222656 35.765625 L 126.394531 31.144531 C 125.023438 30.917969 123.59375 30.765625 122.269531 30.765625 Z M 186.625 30.765625 C 183.703125 30.765625 180.796875 31.328125 178.511719 32.152344 L 179.03125 37.046875 C 180.949219 35.953125 183.671875 35.277344 185.726562 35.277344 C 189.011719 35.277344 190.164062 36.511719 190.164062 38.890625 L 190.164062 40.105469 C 182.445312 40.105469 177.054688 42.996094 177.054688 48.4375 C 177.054688 52.09375 179.429688 54.445312 183.539062 54.445312 C 186.917969 54.445312 189.691406 52.664062 190.789062 50.105469 L 190.855469 50.140625 C 190.675781 51.328125 190.613281 52.632812 190.613281 53.957031 L 196.128906 53.957031 C 196.035156 52.082031 195.988281 49.953125 195.988281 48.125 L 195.988281 38.644531 C 195.988281 33.707031 193.933594 30.765625 186.625 30.765625 Z M 30.480469 30.832031 C 27.421875 30.832031 24.789062 31.574219 22.644531 32.535156 L 22.957031 35.554688 C 24.964844 34.273438 27.699219 33.578125 29.890625 33.578125 C 33.816406 33.578125 35.058594 35.496094 35.058594 38.921875 L 35.058594 40.796875 C 26.199219 40.796875 21.257812 44.097656 21.257812 48.855469 C 21.257812 52.464844 23.855469 54.375 27.464844 54.375 C 31.34375 54.375 34.273438 52.046875 35.371094 49.167969 L 35.472656 49.167969 C 35.246094 50.492188 35.230469 52.222656 35.230469 53.957031 L 38.59375 53.957031 C 38.503906 51.945312 38.523438 49.394531 38.523438 47.152344 L 38.523438 38.230469 C 38.523438 33.929688 36.734375 30.832031 30.480469 30.832031 Z M 55.308594 30.832031 C 49.144531 30.832031 45.425781 34.863281 45.425781 39.617188 C 45.425781 42.542969 46.539062 44.890625 48.824219 46.214844 C 47.226562 46.945312 46.292969 48.339844 46.292969 49.894531 C 46.292969 51.359375 47.164062 52.554688 48.582031 53.195312 C 46.433594 54.292969 44.664062 56.402344 44.664062 59.234375 C 44.664062 63.578125 48.375 65.902344 54.128906 65.902344 C 61.117188 65.902344 66.023438 62.335938 66.023438 57.535156 C 66.023438 53.558594 63.324219 51.144531 58.394531 51.144531 L 53.992188 51.144531 C 51.160156 51.144531 49.863281 50.5625 49.863281 49.234375 C 49.863281 48.414062 50.421875 47.5625 51.5625 47.152344 C 52.386719 47.335938 53.597656 47.464844 54.648438 47.464844 C 61.179688 47.464844 64.53125 43.769531 64.53125 38.921875 C 64.53125 36.773438 63.671875 35.011719 62.347656 33.957031 L 66.4375 33.957031 L 66.4375 31.25 L 58.742188 31.25 C 57.554688 30.976562 56.585938 30.832031 55.308594 30.832031 Z M 80.066406 30.832031 C 73.765625 30.832031 70.113281 35.929688 70.113281 42.742188 C 70.113281 50.699219 73.773438 54.375 80.621094 54.375 C 83.453125 54.375 86.011719 53.890625 88.113281 53.019531 L 87.800781 50.105469 C 86.109375 50.972656 83.585938 51.5625 81.210938 51.5625 C 76.144531 51.5625 73.457031 48.722656 73.6875 41.910156 L 88.839844 41.910156 C 88.929688 41.222656 88.945312 40.621094 88.945312 40.207031 C 88.945312 35.179688 86.324219 30.832031 80.066406 30.832031 Z M 102.539062 30.832031 C 96.785156 30.832031 93.695312 33.703125 93.695312 37.5 C 93.695312 45.59375 104.722656 42.1875 104.722656 47.671875 C 104.722656 50.050781 102.460938 51.492188 99.171875 51.492188 C 97.394531 51.492188 95.539062 51.175781 94.078125 50.765625 L 94.007812 53.921875 C 95.375 54.199219 97.101562 54.375 98.792969 54.375 C 104.726562 54.375 108.292969 51.246094 108.292969 47.222656 C 108.292969 39.496094 97.195312 42.59375 97.195312 37.152344 C 97.195312 34.914062 98.855469 33.542969 102.191406 33.542969 C 103.742188 33.542969 105.363281 33.800781 106.871094 34.304688 L 106.976562 31.355469 C 105.558594 31.078125 103.953125 30.832031 102.539062 30.832031 Z M 143.109375 30.832031 C 135.070312 30.832031 131.386719 36.28125 131.386719 43.367188 C 131.386719 51.09375 135.316406 54.375 141.617188 54.375 C 144.039062 54.375 146.273438 53.925781 147.824219 53.332031 L 147.375 48.332031 C 146.140625 48.972656 144.453125 49.304688 142.898438 49.304688 C 139.019531 49.304688 137.492188 46.664062 137.492188 42.777344 C 137.492188 38.480469 139.375 35.730469 143.074219 35.730469 C 144.535156 35.730469 145.96875 36.105469 147.199219 36.5625 L 147.789062 31.492188 C 146.328125 31.082031 144.660156 30.832031 143.109375 30.832031 Z M 202.371094 31.25 L 202.371094 47.222656 C 202.371094 51.199219 204.015625 54.480469 209.132812 54.480469 C 212.875 54.480469 215.460938 52.59375 216.828125 49.894531 L 216.898438 49.964844 C 216.671875 51.152344 216.621094 52.90625 216.621094 53.957031 L 222.101562 53.957031 L 222.101562 31.25 L 216.238281 31.25 L 216.238281 42.222656 C 216.238281 46.199219 213.972656 49.582031 211.003906 49.582031 C 208.8125 49.582031 208.160156 48.175781 208.160156 45.796875 L 208.160156 31.25 Z M 309.277344 31.355469 L 309.277344 43.367188 L 301.160156 43.367188 Z M 79.894531 33.4375 C 83.363281 33.4375 85.464844 35.820312 85.371094 39.339844 L 73.859375 39.339844 C 74.40625 35.773438 76.699219 33.4375 79.894531 33.4375 Z M 54.40625 33.507812 C 54.640625 33.488281 54.890625 33.507812 55.136719 33.507812 C 58.878906 33.507812 61.097656 35.578125 61.097656 39.234375 C 61.097656 42.894531 58.671875 44.929688 54.925781 44.929688 C 51.089844 44.929688 48.859375 42.941406 48.859375 39.234375 C 48.859375 36.105469 50.914062 33.785156 54.40625 33.507812 Z M 35.058594 43.332031 L 35.058594 43.679688 C 35.058594 47.613281 32.417969 51.597656 28.398438 51.597656 C 26.164062 51.597656 24.6875 50.285156 24.6875 48.230469 C 24.6875 46.035156 26.519531 43.332031 35.058594 43.332031 Z M 190.164062 43.921875 L 190.164062 44.480469 C 190.164062 47.222656 188.1875 49.964844 185.308594 49.964844 C 183.621094 49.964844 182.640625 48.996094 182.640625 47.535156 C 182.640625 45.707031 184 43.921875 190.164062 43.921875 Z M 51.320312 54.0625 C 51.730469 54.109375 52.320312 54.097656 52.777344 54.097656 L 57.457031 54.097656 C 60.929688 54.097656 62.625 55.5625 62.625 57.984375 C 62.625 61.003906 59.695312 63.125 54.71875 63.125 C 50.929688 63.125 48.097656 61.570312 48.097656 58.644531 C 48.097656 56.726562 49.355469 55.066406 51.320312 54.0625 Z M 51.320312 54.0625 "/>
  </g>
</svg>