<?xml version="1.0" encoding="UTF-8" standalone="yes"?>
<svg xmlns="http://www.w3.org/2000/svg" xmlns:xlink="http://www.w3.org/1999/xlink" width="246.66666666666666px" height="106.66666666666666px" viewBox="0 0 185 80" version="1.1">
  <g id="surface1">
    <path style=" stroke:none;fill-rule:nonzero;fill:rgb(69.019608%,76.078431%,0%);fill-opacity:1;" d="M 21.347656 29.246094 C 18 29.246094 16.296875 30.648438 14.71875 32.679688 L 14.71875 48.136719 C 16.359375 50.40625 18.855469 51.652344 21.941406 51.652344 C 26.074219 51.652344 28.304688 48.054688 28.304688 41.191406 C 28.304688 32.75 25.550781 29.246094 21.347656 29.246094 M 23.382812 61.800781 C 19.773438 61.800781 16.6875 60.394531 14.71875 58.597656 L 14.71875 70.617188 L 4.023438 76 L 4.023438 19.960938 L 14.71875 19.960938 L 14.71875 22.535156 C 16.753906 20.75 19.445312 19.097656 23.382812 19.097656 C 32.046875 19.097656 39.199219 25.660156 39.199219 40.957031 C 39.199219 53.210938 33.492188 61.800781 23.382812 61.800781 "/>
    <path style=" stroke:none;fill-rule:nonzero;fill:rgb(69.019608%,76.078431%,0%);fill-opacity:1;" d="M 47.144531 60.941406 L 47.144531 9.421875 L 57.839844 4.03125 L 57.839844 60.941406 Z M 47.144531 60.941406 "/>
    <path style=" stroke:none;fill-rule:nonzero;fill:rgb(69.019608%,76.078431%,0%);fill-opacity:1;" d="M 91.578125 60.941406 L 91.578125 58.203125 C 89.671875 60.160156 86.261719 61.800781 81.996094 61.800781 C 71.558594 61.800781 66.898438 54.617188 66.898438 43.0625 L 66.898438 19.960938 L 77.597656 19.960938 L 77.597656 42.121094 C 77.597656 49.464844 80.089844 51.652344 84.554688 51.652344 C 88.953125 51.652344 91.578125 49.464844 91.578125 42.359375 L 91.578125 19.960938 L 102.273438 19.960938 L 102.273438 60.941406 Z M 91.578125 60.941406 "/>
    <path style=" stroke:none;fill-rule:nonzero;fill:rgb(69.019608%,76.078431%,0%);fill-opacity:1;" d="M 126.230469 61.800781 C 119.800781 61.800781 113.5 59.929688 109.167969 57.035156 L 112.710938 48.84375 C 117.109375 51.253906 121.636719 52.582031 126.886719 52.582031 C 131.089844 52.582031 132.335938 51.570312 132.335938 49.464844 C 132.335938 47.589844 130.824219 46.648438 126.363281 45.332031 C 116.515625 42.359375 110.214844 39.941406 110.214844 31.28125 C 110.214844 22.773438 117.042969 19.097656 126.558594 19.097656 C 131.679688 19.097656 137.257812 20.65625 141.65625 23.082031 L 138.242188 31.589844 C 134.171875 29.402344 129.773438 28.308594 126.363281 28.308594 C 121.964844 28.308594 120.785156 29.171875 120.785156 30.957031 C 120.785156 32.679688 122.03125 33.390625 129.25 35.722656 C 136.601562 38.140625 142.902344 40.796875 142.902344 48.996094 C 142.902344 58.445312 135.417969 61.800781 126.230469 61.800781 "/>
    <path style=" stroke:none;fill-rule:nonzero;fill:rgb(69.019608%,76.078431%,0%);fill-opacity:1;" d="M 171.191406 30.027344 L 171.191406 13.613281 L 154.714844 19.539062 L 154.714844 23.617188 L 160.164062 21.632812 L 160.164062 33.976562 Z M 164.625 9.386719 C 156.882812 9.386719 150.648438 15.65625 150.648438 23.386719 C 150.648438 31.117188 156.882812 37.382812 164.625 37.382812 C 172.304688 37.382812 178.542969 31.117188 178.542969 23.386719 C 178.542969 15.65625 172.304688 9.386719 164.625 9.386719 M 164.625 6.984375 C 173.617188 6.984375 180.96875 14.324219 180.96875 23.386719 C 180.96875 32.449219 173.617188 39.789062 164.625 39.789062 C 155.570312 39.789062 148.285156 32.449219 148.285156 23.386719 C 148.285156 14.324219 155.570312 6.984375 164.625 6.984375 "/>
  </g>
</svg>