<?xml version="1.0" encoding="UTF-8" standalone="no"?>
<!-- Created with Inkscape (http://www.inkscape.org/) -->

<svg
   xmlns:dc="http://purl.org/dc/elements/1.1/"
   xmlns:cc="http://creativecommons.org/ns#"
   xmlns:rdf="http://www.w3.org/1999/02/22-rdf-syntax-ns#"
   xmlns:svg="http://www.w3.org/2000/svg"
   xmlns="http://www.w3.org/2000/svg"
   xmlns:xlink="http://www.w3.org/1999/xlink"
   version="1.1"
   width="301.1875"
   height="72"
   id="svg2">
  <defs
     id="defs4">
    <linearGradient
       id="linearGradient3864">
      <stop
         id="stop3866"
         style="stop-color:#001a4b;stop-opacity:1"
         offset="0" />
      <stop
         id="stop3868"
         style="stop-color:#001a4b;stop-opacity:0"
         offset="1" />
    </linearGradient>
    <linearGradient
       x1="274.64203"
       y1="353.65765"
       x2="302.80609"
       y2="325.49359"
       id="linearGradient3870"
       xlink:href="#linearGradient3864"
       gradientUnits="userSpaceOnUse"
       gradientTransform="translate(-20,-20)" />
  </defs>
  <metadata
     id="metadata7">
    <rdf:RDF>
      <cc:Work
         rdf:about="">
        <dc:format>image/svg+xml</dc:format>
        <dc:type
           rdf:resource="http://purl.org/dc/dcmitype/StillImage" />
        <dc:title></dc:title>
      </cc:Work>
    </rdf:RDF>
  </metadata>
  <g
     transform="translate(-46.5,-318.96875)"
     id="layer1">
    <path
       d="m 312.6875,318.96875 c -19.32997,0 -35,15.67003 -35,35 0,19.32997 15.67003,35 35,35 19.32997,0 35,-15.67003 35,-35 0,-19.32997 -15.67003,-35 -35,-35 z m 0,7 c 15.46397,0 28,12.53603 28,28 0,15.46397 -12.53603,28 -28,28 -15.46397,0 -28,-12.53603 -28,-28 0,-15.46397 12.53603,-28 28,-28 z"
       id="path3078"
       style="fill:url(#linearGradient3870);fill-opacity:1" />
    <path
       d="m 261.78125,335.9375 c -6.07704,0 -11,4.93753 -11,11 0,6.09811 4.92296,11.0625 11,11.0625 6.07462,0 11.00016,-4.96439 11,-11.0625 0,-6.06247 -4.92538,-11 -11,-11 z M 183.875,337.5 l 0,30.03125 5.25,0 0,-9.875 c 0,-3.58014 2.10643,-6.625 4.78125,-6.625 1.9341,0 2.5,1.29765 2.5,3.4375 l 0,13.0625 5.25,0 0,-14.34375 c 0,-3.58014 -1.48484,-6.53125 -6.09375,-6.53125 -3.16863,0 -5.52537,1.50804 -6.71875,3.8125 l -0.0937,-0.0312 c 0.28806,-1.19338 0.375,-2.92172 0.375,-4.15625 l 0,-8.78125 -5.25,0 z m 77.90625,0.0625 c 5.15838,0 9.40625,4.20218 9.40625,9.375 0,5.20788 -4.24787,9.43766 -9.40625,9.4375 -5.15838,0 -9.40604,-4.22962 -9.40625,-9.4375 0,-5.17296 4.24801,-9.375 9.40625,-9.375 z m -205.75,1.875 -3.09375,0.875 0,6.78125 -4.4375,0 0,2.4375 4.4375,0 0,12.28125 c 0,4.23855 1.197399,6.0625 5.3125,6.0625 1.275681,0 2.711324,-0.15934 3.78125,-0.40625 l 0,-2.6875 c -0.82302,0.24691 -1.877475,0.375 -2.90625,0.375 -2.42791,0 -3.09375,-0.93131 -3.09375,-4.59375 l 0,-11.03125 6,0 0,-2.4375 -6,0 0,-7.65625 z m 210.21875,0.9375 -11.09375,4 0,2.71875 3.65625,-1.3125 0,8.28125 7.4375,-2.625 0,-11.0625 z M 302,341.25 c -1.407,3e-5 -2.84785,0.14102 -4.3125,0.40625 -1.46466,0.25375 -2.9695,0.62912 -4.46875,1.125 l 0,5.65625 c 1.40699,-0.87647 2.73474,-1.53049 3.96875,-1.96875 1.23399,-0.44976 2.36829,-0.68748 3.40625,-0.6875 1.34932,2e-5 2.4427,0.38693 3.25,1.125 0.81881,0.73812 1.21874,1.69533 1.21875,2.90625 -10e-6,0.78424 -0.19012,1.5547 -0.59375,2.28125 -0.40366,0.72658 -1.03312,1.4576 -1.875,2.21875 l -9.4375,8.34375 0,4.875 18.78125,0 0,-4.875 -11.375,0 5.53125,-4.84375 c 2.32959,-2.04128 3.83592,-3.66405 4.5625,-4.875 0.72654,-1.22245 1.09373,-2.56174 1.09375,-3.96875 -2e-5,-2.43339 -0.84414,-4.32661 -2.5625,-5.6875 -1.70686,-1.36084 -4.09674,-2.03122 -7.1875,-2.03125 z m 22.125,0.46875 -10.34375,15.40625 0,5.71875 11.4375,0 0,4.6875 6.3125,0 0,-4.6875 3.65625,0 0,-4.84375 -3.65625,0 0,-16.28125 -7.40625,0 z m -167.4375,4.9375 c -5.76114,0 -8.6875,2.95111 -8.6875,6.53125 0,6.95452 8.25,4.87871 8.25,8.5 0,1.35798 -1.2961,2.1875 -3.3125,2.1875 -1.56374,0 -3.13057,-0.26454 -4.40625,-0.59375 l -0.125,4.3125 c 1.31683,0.20576 2.79981,0.375 4.28125,0.375 5.59654,0 9.125,-2.7172 9.125,-6.75 0,-6.62531 -8.375,-5.16677 -8.375,-8.5 0,-1.27568 0.9737,-2.09375 3.03125,-2.09375 1.27568,0 2.62902,0.20204 3.78125,0.53125 L 160.40625,347 c -1.23453,-0.20576 -2.52537,-0.34375 -3.71875,-0.34375 z m 58,0 c -2.63366,0 -5.25495,0.50928 -7.3125,1.25 l 0.46875,4.40625 c 1.72834,-0.98762 4.17945,-1.59375 6.03125,-1.59375 2.96287,0 4,1.11015 4,3.25 l 0,1.09375 c -6.95452,0 -11.8125,2.60303 -11.8125,7.5 0,3.29208 2.14016,5.40625 5.84375,5.40625 3.04517,0 5.54363,-1.60179 6.53125,-3.90625 l 0.0625,0.0312 c -0.1646,1.06993 -0.21875,2.24412 -0.21875,3.4375 l 4.96875,0 c -0.0823,-1.68719 -0.125,-3.60396 -0.125,-5.25 l 0,-8.53125 c 0,-4.44431 -1.85334,-7.09375 -8.4375,-7.09375 z m -140.71875,0.0625 c -2.757118,0 -5.128403,0.66708 -7.0625,1.53125 l 0.28125,2.71875 c 1.810644,-1.15223 4.274752,-1.78125 6.25,-1.78125 3.538987,0 4.65625,1.72617 4.65625,4.8125 l 0,1.6875 c -7.983296,0 -12.4375,2.9703 -12.4375,7.25 0,3.25093 2.34282,4.96875 5.59375,4.96875 3.497836,0 6.137376,-2.09499 7.125,-4.6875 l 0.09375,0 c -0.205755,1.19338 -0.21875,2.74876 -0.21875,4.3125 l 3.03125,0 c -0.0823,-1.81064 -0.0625,-4.1086 -0.0625,-6.125 l 0,-8.03125 c 0,-3.86819 -1.612312,-6.65625 -7.25,-6.65625 z m 22.375,0 c -5.555386,0 -8.90625,3.62655 -8.90625,7.90625 0,2.63366 1.00495,4.74412 3.0625,5.9375 -1.440285,0.65842 -2.28125,1.91337 -2.28125,3.3125 0,1.31683 0.786819,2.39264 2.0625,2.96875 -1.934097,0.98762 -3.53125,2.88614 -3.53125,5.4375 0,3.90935 3.346223,6 8.53125,6 6.2961,0 10.71875,-3.21039 10.71875,-7.53125 0,-3.58014 -2.43069,-5.75 -6.875,-5.75 l -3.96875,0 c -2.551363,0 -3.71875,-0.52537 -3.71875,-1.71875 0,-0.74072 0.502475,-1.50464 1.53125,-1.875 0.740718,0.1646 1.834777,0.28125 2.78125,0.28125 5.88459,0 8.90625,-3.32549 8.90625,-7.6875 0,-1.9341 -0.77537,-3.52228 -1.96875,-4.46875 l 3.6875,0 0,-2.4375 -6.9375,0 c -1.069926,-0.24691 -1.941522,-0.375 -3.09375,-0.375 z m 22.3125,0 c -5.67884,0 -8.96875,4.58725 -8.96875,10.71875 0,7.16028 3.2961,10.46875 9.46875,10.46875 2.55136,0 4.85705,-0.43688 6.75,-1.21875 l -0.28125,-2.625 c -1.52259,0.78187 -3.79765,1.3125 -5.9375,1.3125 -4.56776,0 -6.98701,-2.556 -6.78125,-8.6875 l 13.65625,0 c 0.0823,-0.61727 0.0937,-1.16089 0.0937,-1.53125 0,-4.52661 -2.36231,-8.4375 -8,-8.4375 z m 20.25,0 c -5.18503,0 -7.96875,2.58447 -7.96875,6 0,7.28373 9.9375,4.21813 9.9375,9.15625 0,2.13985 -2.03713,3.4375 -5,3.4375 -1.60489,0 -3.27692,-0.28589 -4.59375,-0.65625 l -0.0625,2.84375 c 1.23453,0.24691 2.78991,0.40625 4.3125,0.40625 5.34963,0 8.5625,-2.81621 8.5625,-6.4375 0,-6.95452 -10,-4.16553 -10,-9.0625 0,-2.0164 1.49598,-3.25 4.5,-3.25 1.39913,0 2.86077,0.23484 4.21875,0.6875 l 0.0937,-2.65625 c -1.27568,-0.24691 -2.72432,-0.46875 -4,-0.46875 z m 36.5625,0 c -7.24258,0 -10.5625,4.90284 -10.5625,11.28125 0,6.95452 3.53991,9.90625 9.21875,9.90625 2.181,0 4.19462,-0.40254 5.59375,-0.9375 l -0.40625,-4.5 c -1.11108,0.57611 -2.63212,0.875 -4.03125,0.875 -3.49784,0 -4.875,-2.37716 -4.875,-5.875 0,-3.86819 1.69802,-6.34375 5.03125,-6.34375 1.31683,0 2.60767,0.33849 3.71875,0.75 l 0.53125,-4.5625 c -1.31683,-0.37036 -2.81962,-0.59375 -4.21875,-0.59375 z m 53.40625,0.375 0,14.375 c 0,3.58014 1.48484,6.53125 6.09375,6.53125 3.37438,0 5.70297,-1.69709 6.9375,-4.125 l 0.0625,0.0625 c -0.20576,1.06993 -0.25,2.64728 -0.25,3.59375 l 4.9375,0 0,-20.4375 -5.28125,0 0,9.875 c 0,3.58014 -2.04393,6.625 -4.71875,6.625 -1.97525,0 -2.5625,-1.2664 -2.5625,-3.40625 l 0,-13.09375 -5.21875,0 z m 96.34375,0.0937 0,10.8125 -7.3125,0 7.3125,-10.8125 z M 118.5,349.0625 c 3.12748,0 5.0198,2.14387 4.9375,5.3125 l -10.375,0 c 0.49381,-3.20978 2.55693,-5.3125 5.4375,-5.3125 z m -22.96875,0.0625 c 0.209774,-0.0167 0.435063,0 0.65625,0 3.374383,0 5.375,1.86417 5.375,5.15625 0,3.29208 -2.188117,5.125 -5.5625,5.125 -3.456685,0 -5.46875,-1.79177 -5.46875,-5.125 0,-2.81627 1.853394,-4.90564 5,-5.15625 z m -17.4375,8.84375 0,0.3125 c 0,3.53899 -2.378711,7.125 -6,7.125 -2.016399,0 -3.34375,-1.17945 -3.34375,-3.03125 0,-1.97525 1.648511,-4.40625 9.34375,-4.40625 z M 217.875,358.5 l 0,0.5 c 0,2.46906 -1.78249,4.9375 -4.375,4.9375 -1.52259,0 -2.40625,-0.87067 -2.40625,-2.1875 0,-1.64604 1.22586,-3.25 6.78125,-3.25 z M 92.75,367.625 c 0.370359,0.0412 0.90099,0.0312 1.3125,0.0312 l 4.21875,0 c 3.12748,0 4.65625,1.319 4.65625,3.5 0,2.71597 -2.63954,4.625 -7.125,4.625 -3.415534,0 -5.96875,-1.39759 -5.96875,-4.03125 0,-1.72834 1.136757,-3.21968 2.90625,-4.125 z"
       id="path1910"
       style="fill:#001a4b;fill-rule:evenodd" />
  </g>
</svg>
