<?xml version="1.0" encoding="UTF-8" ?>
<!DOCTYPE svg PUBLIC "-//W3C//DTD SVG 1.1//EN" "http://www.w3.org/Graphics/SVG/1.1/DTD/svg11.dtd">
<svg width="1600pt" height="364pt" viewBox="0 0 1600 364" version="1.1" xmlns="http://www.w3.org/2000/svg">
<g id="#ffffffff">
<path fill="#ffffff" opacity="1.00" d=" M 0.00 0.00 L 40.23 0.00 C 27.19 1.43 14.83 8.67 7.47 19.57 C 3.38 25.41 1.01 32.31 0.00 39.33 L 0.00 0.00 Z" />
<path fill="#ffffff" opacity="1.00" d=" M 1559.65 0.00 L 1600.00 0.00 L 1600.00 38.67 C 1598.97 33.80 1597.77 28.90 1595.39 24.49 C 1588.60 10.97 1574.63 1.63 1559.65 0.00 Z" />
<path fill="#ffffff" opacity="1.00" d=" M 38.09 4.29 C 40.04 3.90 42.04 3.72 44.04 3.72 C 546.68 3.72 1049.33 3.70 1551.97 3.73 C 1558.44 3.56 1565.04 4.37 1570.95 7.14 C 1583.88 12.75 1593.56 25.78 1593.99 40.03 C 1594.02 133.37 1593.99 226.71 1594.00 320.05 C 1594.18 335.49 1582.95 349.96 1568.26 354.33 C 1563.01 356.12 1557.40 356.10 1551.94 355.99 C 1051.30 356.04 550.66 355.96 50.02 356.01 C 43.37 355.97 36.47 356.36 30.17 353.81 C 16.24 348.94 5.84 334.92 6.00 320.04 C 6.01 227.02 5.99 133.99 6.00 40.96 C 5.93 23.04 20.70 7.21 38.09 4.29 M 11.74 36.86 C 10.76 38.05 10.83 39.62 10.82 41.07 C 10.88 77.73 10.87 114.38 10.76 151.04 C 11.12 168.67 10.38 186.35 11.80 203.93 C 12.10 215.30 11.72 226.69 12.21 238.05 C 13.53 243.60 12.54 249.30 13.14 254.91 C 13.35 255.23 13.78 255.88 14.00 256.20 L 14.67 255.64 C 15.56 250.48 14.26 245.04 15.56 240.00 C 15.85 241.58 16.07 243.18 16.33 244.77 C 37.81 245.49 59.34 244.50 80.83 245.25 C 80.16 248.43 79.40 251.60 79.03 254.83 C 79.93 254.47 80.84 254.11 81.75 253.75 C 81.56 252.52 81.39 251.29 81.25 250.06 C 82.81 250.89 83.09 252.75 83.72 254.23 C 82.99 260.63 82.80 267.25 84.49 273.53 C 109.19 276.39 134.08 277.94 158.95 277.46 C 162.85 277.20 166.79 277.35 170.64 276.57 C 188.21 275.68 206.74 270.39 219.52 257.69 L 219.51 257.54 C 226.98 250.66 231.43 240.91 233.18 231.02 C 234.92 220.64 234.32 209.69 230.38 199.85 C 230.67 199.89 231.26 199.95 231.55 199.98 C 231.54 199.64 231.53 198.94 231.52 198.59 C 234.18 196.91 237.58 195.61 238.69 192.37 C 239.07 192.46 239.84 192.63 240.22 192.72 C 240.39 193.97 240.57 195.22 240.75 196.47 C 240.31 196.43 239.44 196.34 239.00 196.29 C 238.25 198.11 237.63 200.03 237.99 202.03 C 239.16 201.80 240.34 201.57 241.52 201.35 C 241.99 202.68 241.45 205.94 243.83 204.92 C 244.65 200.70 244.08 196.36 244.52 192.10 C 246.24 196.26 245.44 200.81 246.13 205.16 C 248.18 203.41 246.87 200.26 247.32 197.93 C 248.84 187.68 248.03 177.28 248.26 166.95 C 248.53 132.23 248.40 97.51 248.40 62.79 C 248.99 67.82 248.70 72.89 248.72 77.94 C 248.76 142.32 248.67 206.69 248.61 271.07 C 248.69 273.11 248.23 275.36 249.44 277.17 C 262.19 277.91 275.66 278.62 287.65 273.46 C 294.92 270.59 298.61 262.56 298.51 255.11 C 298.45 231.70 298.59 208.28 298.47 184.87 C 299.80 185.09 301.13 185.31 302.47 185.52 C 303.69 187.39 303.75 189.54 303.15 191.63 C 303.89 191.53 304.64 191.43 305.39 191.33 C 307.16 193.54 307.96 197.85 311.36 197.72 C 315.57 204.45 319.88 211.11 324.14 217.80 C 323.98 220.05 324.50 222.21 326.26 223.73 C 328.45 225.88 328.10 231.53 332.30 230.61 C 336.55 237.37 340.85 244.11 345.17 250.82 C 349.06 257.06 352.85 263.64 358.68 268.30 C 362.16 271.33 366.26 273.60 370.58 275.19 C 371.10 276.33 372.20 276.89 373.22 277.51 C 373.40 280.39 376.68 279.92 378.76 280.38 C 378.41 280.71 377.70 281.38 377.35 281.71 C 380.73 283.22 384.43 282.63 388.00 282.72 C 392.64 281.95 397.36 282.03 401.99 281.18 C 405.24 281.68 408.49 282.43 411.79 281.79 C 410.75 280.97 408.35 280.77 408.39 279.29 C 410.72 277.07 413.55 279.30 416.10 279.77 C 417.45 279.58 419.02 278.88 418.91 277.27 C 417.94 277.36 416.97 277.45 416.00 277.55 C 416.40 276.47 416.81 275.40 417.22 274.33 C 417.68 274.75 418.15 275.16 418.62 275.58 C 419.35 274.70 420.09 273.82 420.83 272.94 C 420.71 274.28 420.59 275.63 420.47 276.98 C 420.75 277.19 421.30 277.62 421.58 277.84 C 421.78 277.32 422.18 276.29 422.37 275.77 C 424.80 274.77 426.05 271.83 428.87 271.67 C 431.34 270.78 432.70 273.88 435.02 273.90 C 439.98 274.13 445.01 273.48 449.92 274.57 C 448.54 276.70 446.21 279.85 448.78 282.03 C 447.91 283.79 447.13 285.60 446.18 287.32 C 444.11 288.48 441.51 287.94 439.23 288.22 C 439.19 289.30 439.17 290.38 439.14 291.47 C 439.57 291.49 440.43 291.51 440.86 291.52 C 439.42 295.09 441.09 298.95 439.71 302.54 C 438.09 300.03 437.10 302.87 436.63 304.38 C 435.47 304.45 433.95 304.02 433.32 305.34 C 430.70 309.60 432.60 314.79 433.47 319.29 C 431.16 324.54 428.15 329.53 426.45 335.02 C 438.47 339.56 452.04 341.40 464.53 337.74 C 474.41 334.95 480.91 326.03 484.94 317.09 C 496.55 291.35 508.00 265.55 519.58 239.80 C 520.91 242.60 524.16 240.93 526.50 241.03 C 526.41 241.94 526.34 242.85 526.27 243.76 C 526.98 243.43 527.69 243.11 528.41 242.79 C 528.46 242.38 528.57 241.58 528.63 241.17 C 570.60 241.07 612.57 240.93 654.54 241.19 C 654.87 242.46 655.22 243.73 655.57 245.01 C 655.88 243.33 656.19 241.66 656.52 240.00 C 657.61 245.32 655.98 250.88 657.61 256.10 C 658.31 251.77 658.01 247.38 658.11 243.03 C 658.13 226.69 657.98 210.35 658.44 194.03 C 658.57 196.10 658.79 198.17 659.38 200.18 C 659.85 198.32 660.36 196.49 660.78 194.62 C 661.82 198.03 658.98 203.68 663.47 205.14 C 663.64 238.18 663.10 271.23 663.67 304.25 C 663.37 319.65 663.60 335.08 663.52 350.50 C 796.37 350.46 929.22 350.59 1062.07 350.43 C 1061.97 313.43 1062.07 276.43 1061.71 239.43 C 1062.53 237.12 1061.90 234.49 1062.08 232.06 C 1062.10 211.98 1062.06 191.91 1062.13 171.83 C 1062.03 146.47 1062.42 121.10 1061.91 95.75 C 1062.20 93.28 1062.45 90.76 1062.06 88.28 C 1062.40 83.34 1062.30 78.38 1062.18 73.43 C 1062.41 66.68 1062.19 59.92 1062.16 53.17 C 1062.21 48.78 1062.34 44.37 1062.05 39.98 C 1063.76 42.88 1062.39 46.44 1064.06 49.36 C 1063.31 51.80 1063.63 54.40 1063.58 56.92 C 1062.38 83.92 1063.14 110.98 1062.92 138.01 C 1062.89 154.00 1063.28 169.99 1062.76 185.97 C 1062.68 188.14 1062.95 190.30 1063.39 192.42 C 1062.59 194.87 1062.99 197.48 1062.97 200.01 C 1063.04 207.66 1062.97 215.31 1063.02 222.97 C 1063.15 230.29 1062.49 237.75 1064.45 244.91 C 1065.70 242.57 1064.62 239.17 1067.19 237.61 C 1067.52 238.66 1067.60 239.77 1067.67 240.87 C 1080.44 241.27 1093.24 241.04 1106.02 241.03 C 1117.36 240.84 1128.75 241.54 1140.06 240.73 C 1139.56 240.54 1138.55 240.15 1138.05 239.95 C 1115.39 239.83 1092.71 240.08 1070.04 239.77 C 1070.15 239.42 1070.35 238.73 1070.45 238.38 C 1082.58 237.65 1094.79 238.31 1106.95 238.08 C 1117.78 237.84 1128.65 238.54 1139.47 237.74 C 1140.09 236.85 1140.25 234.55 1141.87 235.17 C 1142.94 235.59 1143.12 237.01 1143.78 237.89 C 1143.94 235.90 1144.17 233.93 1144.49 231.97 C 1145.59 234.61 1143.22 239.86 1147.20 240.25 C 1147.19 251.15 1147.58 262.07 1147.10 272.97 C 1147.15 274.33 1146.67 276.10 1148.01 277.05 C 1155.79 277.76 1163.70 277.90 1171.44 276.63 C 1176.78 275.85 1182.27 273.84 1185.98 269.78 C 1188.20 270.02 1189.07 267.65 1190.37 266.35 C 1191.71 266.73 1193.06 267.11 1194.42 267.50 C 1194.74 268.95 1195.06 270.40 1195.40 271.85 C 1196.51 272.03 1197.59 271.97 1198.65 271.66 C 1198.62 270.25 1198.31 268.86 1198.07 267.48 C 1198.54 267.49 1199.49 267.51 1199.96 267.52 C 1200.02 265.87 1200.00 264.08 1198.49 263.08 C 1198.28 263.74 1197.86 265.04 1197.65 265.70 C 1196.73 264.81 1195.82 263.93 1194.92 263.05 C 1195.21 262.62 1195.80 261.74 1196.10 261.30 C 1196.88 261.47 1197.67 261.64 1198.49 261.81 C 1198.51 261.36 1198.55 260.44 1198.57 259.98 C 1200.53 261.14 1202.63 262.23 1205.01 261.97 C 1225.21 261.67 1245.42 262.34 1265.61 261.73 C 1265.80 261.08 1266.18 259.79 1266.37 259.15 C 1266.73 260.04 1267.10 260.93 1267.49 261.83 C 1268.66 261.90 1269.85 261.98 1271.05 262.06 C 1271.20 266.34 1270.78 270.65 1271.20 274.91 C 1271.60 278.41 1275.35 280.84 1278.70 279.61 C 1284.69 278.04 1291.01 279.75 1296.98 278.03 C 1300.91 276.98 1305.07 277.08 1308.93 275.68 C 1308.83 274.79 1308.62 273.01 1308.51 272.11 L 1308.88 271.86 C 1310.31 271.78 1312.01 272.33 1313.30 271.33 C 1314.34 269.90 1314.77 268.13 1315.40 266.49 C 1315.73 266.49 1316.39 266.50 1316.72 266.50 C 1316.61 265.60 1316.51 264.71 1316.45 263.82 C 1319.40 265.42 1316.69 270.04 1318.94 272.44 C 1320.09 270.05 1321.16 267.35 1320.49 264.66 C 1320.05 261.76 1318.16 259.39 1317.41 256.62 C 1316.79 255.08 1318.44 254.28 1319.31 253.31 C 1320.63 254.81 1322.24 256.11 1323.25 257.88 C 1324.29 260.38 1323.50 263.22 1324.34 265.77 C 1324.65 265.76 1325.26 265.75 1325.57 265.74 C 1325.64 261.94 1326.58 258.23 1326.67 254.44 C 1328.63 254.74 1330.60 254.88 1332.60 254.94 C 1332.86 254.24 1333.36 252.83 1333.62 252.12 C 1334.86 254.73 1332.51 256.28 1331.03 258.03 C 1330.94 259.03 1330.93 262.02 1332.69 260.69 C 1334.01 259.49 1334.57 257.69 1335.46 256.18 C 1336.44 256.81 1337.41 257.43 1338.43 258.05 C 1337.62 258.24 1336.82 258.42 1336.04 258.60 C 1338.91 261.49 1336.48 267.13 1340.53 268.86 C 1341.47 271.73 1344.53 272.40 1347.21 271.88 C 1351.81 275.06 1357.41 276.41 1362.96 276.49 C 1374.30 276.51 1385.65 276.49 1397.01 276.50 C 1405.33 276.41 1413.68 276.79 1421.98 275.92 C 1435.39 274.73 1448.75 271.63 1460.97 265.85 C 1475.39 259.22 1487.99 248.49 1496.39 234.97 C 1496.75 235.29 1497.48 235.92 1497.84 236.24 C 1498.71 235.18 1499.66 234.14 1500.59 233.11 C 1502.28 235.22 1500.61 237.82 1501.90 240.02 C 1503.82 237.42 1507.16 238.12 1509.97 238.02 C 1534.00 238.14 1558.03 237.99 1582.05 238.11 C 1583.79 237.90 1584.92 241.09 1586.63 239.69 C 1587.27 235.83 1587.45 231.86 1588.00 227.97 C 1589.54 218.04 1588.64 207.96 1588.94 197.95 C 1588.69 191.80 1589.76 185.54 1588.44 179.49 C 1589.05 176.02 1588.62 172.49 1588.76 169.00 C 1589.20 126.98 1588.78 84.97 1589.01 42.96 C 1588.93 40.90 1589.30 38.66 1588.20 36.80 C 1585.98 21.81 1572.04 9.97 1557.05 9.34 C 1392.44 9.17 1227.83 9.50 1063.22 9.18 C 1063.00 11.62 1062.96 14.07 1063.13 16.51 L 1062.07 16.49 C 1062.16 14.12 1062.20 11.75 1062.32 9.38 C 1036.54 9.08 1010.75 9.34 984.97 9.25 C 877.76 9.29 770.56 9.17 663.36 9.31 C 662.85 9.24 661.85 9.09 661.35 9.02 C 641.26 9.68 621.12 9.12 601.01 9.31 C 415.33 9.30 229.65 9.31 43.96 9.31 C 28.53 9.28 14.04 21.55 11.74 36.86 Z" />
<path fill="#ffffff" opacity="1.00" d=" M 859.39 38.31 C 862.43 36.90 865.47 35.03 868.96 35.26 C 885.29 35.27 901.62 35.19 917.96 35.35 C 918.62 43.42 917.58 51.53 918.30 59.59 C 918.39 87.81 917.81 116.03 918.30 144.24 C 918.23 153.51 918.19 162.78 918.24 172.05 C 918.42 205.20 918.05 238.35 918.35 271.49 C 918.18 279.62 918.40 287.75 918.13 295.88 C 917.76 306.48 912.07 317.83 901.74 321.79 C 892.63 325.35 882.63 325.23 873.01 324.93 C 864.07 324.79 855.19 323.66 846.40 322.12 L 846.28 321.40 C 846.20 290.13 846.34 258.86 846.18 227.59 C 846.34 196.92 846.26 166.25 846.11 135.58 C 846.49 128.29 846.13 120.99 846.32 113.70 C 834.26 118.62 822.60 124.47 810.67 129.68 C 806.28 131.62 801.85 133.45 797.61 135.69 C 791.65 128.45 785.70 120.96 782.59 111.97 C 780.00 104.76 778.82 96.84 780.50 89.28 C 781.68 83.60 784.61 78.43 788.70 74.34 C 794.78 68.83 802.21 65.20 809.63 61.89 C 826.32 54.25 842.81 46.17 859.39 38.31 Z" />
<path fill="#ffffff" opacity="1.00" d=" M 1587.59 351.57 C 1594.39 344.95 1598.58 335.99 1600.00 326.65 L 1600.00 364.00 L 1563.17 364.00 C 1572.23 362.19 1581.15 358.38 1587.59 351.57 Z" />
<path fill="#ffffff" opacity="1.00" d=" M 0.00 327.13 C 1.48 335.11 4.63 342.90 10.05 349.04 C 16.66 357.15 26.44 361.92 36.54 364.00 L 0.00 364.00 L 0.00 327.13 Z" />
</g>
<g id="#9c9c9cff">
<path fill="#9c9c9c" opacity="1.00" d=" M 40.23 0.00 L 1559.65 0.00 C 1574.63 1.63 1588.60 10.97 1595.39 24.49 C 1597.77 28.90 1598.97 33.80 1600.00 38.67 L 1600.00 326.65 C 1598.58 335.99 1594.39 344.95 1587.59 351.57 C 1581.15 358.38 1572.23 362.19 1563.17 364.00 L 36.54 364.00 C 26.44 361.92 16.66 357.15 10.05 349.04 C 4.63 342.90 1.48 335.11 0.00 327.13 L 0.00 39.33 C 1.01 32.31 3.38 25.41 7.47 19.57 C 14.83 8.67 27.19 1.43 40.23 0.00 M 38.09 4.29 C 20.70 7.21 5.93 23.04 6.00 40.96 C 5.99 133.99 6.01 227.02 6.00 320.04 C 5.84 334.92 16.24 348.94 30.17 353.81 C 36.47 356.36 43.37 355.97 50.02 356.01 C 550.66 355.96 1051.30 356.04 1551.94 355.99 C 1557.40 356.10 1563.01 356.12 1568.26 354.33 C 1582.95 349.96 1594.18 335.49 1594.00 320.05 C 1593.99 226.71 1594.02 133.37 1593.99 40.03 C 1593.56 25.78 1583.88 12.75 1570.95 7.14 C 1565.04 4.37 1558.44 3.56 1551.97 3.73 C 1049.33 3.70 546.68 3.72 44.04 3.72 C 42.04 3.72 40.04 3.90 38.09 4.29 Z" />
</g>
<g id="#dadadaff">
<path fill="#dadada" opacity="1.00" d=" M 11.74 36.86 C 14.04 21.55 28.53 9.28 43.96 9.31 C 229.65 9.31 415.33 9.30 601.01 9.31 C 621.12 9.12 641.26 9.68 661.35 9.02 C 661.52 11.55 661.67 14.09 661.71 16.63 C 458.46 16.48 255.21 16.63 51.96 16.54 C 47.95 16.48 43.93 16.46 39.93 16.85 C 41.25 25.81 44.17 34.52 47.95 42.73 C 49.19 47.68 51.92 52.01 54.44 56.38 C 60.66 67.80 68.35 78.39 76.82 88.23 C 80.36 92.34 83.33 96.98 87.54 100.48 C 91.09 103.37 93.22 107.94 97.76 109.56 C 95.91 111.07 94.15 112.68 92.48 114.38 C 91.44 113.62 90.40 112.86 89.37 112.11 C 89.20 112.43 88.86 113.08 88.69 113.40 C 87.63 112.88 86.58 112.36 85.53 111.84 C 85.57 112.74 85.60 113.65 85.64 114.55 C 84.19 114.56 82.74 114.58 81.29 114.59 C 81.36 113.73 81.44 112.86 81.52 111.99 C 59.75 112.07 37.96 111.62 16.20 112.16 C 16.04 114.81 15.83 117.45 15.48 120.08 C 14.50 114.03 15.83 107.81 14.42 101.83 C 13.55 106.84 14.12 111.93 13.87 116.98 C 14.04 118.49 13.15 119.65 12.21 120.71 C 11.28 92.78 11.89 64.81 11.74 36.86 Z" />
<path fill="#dadada" opacity="1.00" d=" M 1063.22 9.18 C 1227.83 9.50 1392.44 9.17 1557.05 9.34 C 1572.04 9.97 1585.98 21.81 1588.20 36.80 C 1587.76 61.41 1588.62 86.05 1587.71 110.66 C 1587.24 113.79 1586.86 116.94 1586.49 120.09 C 1585.52 113.08 1586.48 105.97 1585.56 98.95 C 1584.56 105.98 1585.52 113.11 1584.52 120.14 C 1584.08 117.49 1583.82 114.83 1583.68 112.16 C 1560.44 111.78 1537.20 112.21 1513.96 111.97 C 1512.39 111.80 1510.93 111.22 1509.46 110.74 C 1507.72 111.48 1505.89 111.93 1504.03 112.04 C 1506.24 109.36 1508.85 106.90 1510.00 103.52 C 1523.05 88.11 1534.07 71.05 1542.98 52.94 C 1543.49 51.65 1543.89 50.32 1544.40 49.02 C 1548.09 42.37 1550.35 35.06 1552.87 27.91 C 1554.07 24.26 1555.32 20.58 1555.47 16.71 C 1391.36 16.34 1227.25 16.73 1063.13 16.51 C 1062.96 14.07 1063.00 11.62 1063.22 9.18 Z" />
</g>
<g id="#f5f5f5ff">
<path fill="#f5f5f5" opacity="1.00" d=" M 661.35 9.02 C 661.85 9.09 662.85 9.24 663.36 9.31 C 663.45 11.70 663.43 14.10 663.50 16.49 C 663.76 22.76 663.46 29.02 663.56 35.28 C 663.56 42.31 663.51 49.34 663.34 56.36 C 662.50 52.32 662.64 48.19 662.54 44.10 C 662.26 45.93 661.99 47.76 661.74 49.59 C 660.86 49.58 659.97 49.57 659.11 49.56 C 658.54 42.69 659.52 35.77 658.42 28.95 C 657.49 36.66 658.66 44.46 657.59 52.16 C 656.75 49.38 656.83 46.45 656.88 43.58 C 655.61 44.15 654.42 45.06 652.99 45.07 C 540.68 45.06 428.36 45.07 316.05 45.09 C 312.13 45.02 308.21 45.01 304.29 45.21 C 304.13 47.85 303.91 50.49 303.56 53.11 C 302.54 48.79 303.33 44.30 302.46 39.97 C 301.90 44.36 302.26 48.81 301.54 53.19 C 301.03 51.19 300.83 49.13 300.94 47.07 C 301.20 41.86 299.56 36.80 299.60 31.59 C 296.34 30.07 292.93 27.97 289.18 28.49 C 284.59 29.18 279.86 29.00 275.38 30.36 C 272.03 31.33 267.83 30.90 265.77 34.29 C 259.82 37.18 254.56 41.78 252.13 48.06 C 250.17 52.80 249.63 57.98 249.50 63.07 C 249.39 134.44 249.64 205.80 249.44 277.17 C 248.23 275.36 248.69 273.11 248.61 271.07 C 248.67 206.69 248.76 142.32 248.72 77.94 C 248.70 72.89 248.99 67.82 248.40 62.79 C 248.16 58.78 248.04 54.76 247.73 50.76 C 245.30 51.19 244.97 55.91 242.58 54.64 C 241.74 52.60 241.29 50.43 240.81 48.28 C 239.45 52.07 235.06 50.87 231.94 51.04 C 177.65 50.88 123.35 51.09 69.05 51.00 C 65.08 50.94 61.08 51.39 57.13 50.81 C 53.91 49.76 53.00 46.05 52.53 43.08 C 52.11 44.44 51.67 45.80 51.24 47.16 C 50.16 45.67 49.05 44.21 47.95 42.73 C 44.17 34.52 41.25 25.81 39.93 16.85 C 43.93 16.46 47.95 16.48 51.96 16.54 C 255.21 16.63 458.46 16.48 661.71 16.63 C 661.67 14.09 661.52 11.55 661.35 9.02 Z" />
</g>
<g id="#1d4e80ff">
<path fill="#1d4e80" opacity="1.00" d=" M 663.36 9.31 C 770.56 9.17 877.76 9.29 984.97 9.25 C 1010.75 9.34 1036.54 9.08 1062.32 9.38 C 1062.20 11.75 1062.16 14.12 1062.07 16.49 C 929.22 16.47 796.36 16.45 663.50 16.49 C 663.43 14.10 663.45 11.70 663.36 9.31 M 666.98 15.67 C 676.64 14.94 686.34 15.44 696.03 15.30 C 817.44 15.29 938.85 15.35 1060.26 15.28 C 1060.67 13.46 1060.90 10.31 1058.10 10.68 C 949.40 10.66 840.69 10.69 731.99 10.68 C 710.65 10.80 689.30 10.44 667.96 10.86 C 665.35 10.31 663.80 15.82 666.98 15.67 Z" />
<path fill="#1d4e80" opacity="1.00" d=" M 1061.31 240.04 L 1061.71 239.43 C 1062.07 276.43 1061.97 313.43 1062.07 350.43 C 929.22 350.59 796.37 350.46 663.52 350.50 C 663.60 335.08 663.37 319.65 663.67 304.25 C 665.23 293.16 663.82 281.90 664.71 270.75 L 664.82 272.51 C 664.81 277.76 664.71 283.01 664.95 288.26 C 664.68 292.96 664.77 297.66 664.94 302.37 C 664.30 309.15 664.66 315.98 664.74 322.78 C 664.56 329.54 664.85 336.29 664.69 343.05 C 664.65 344.89 664.88 346.72 665.20 348.53 C 670.85 348.25 676.38 349.89 682.04 349.45 C 805.37 349.38 928.71 349.40 1052.04 349.45 C 1055.23 349.37 1057.99 347.21 1061.28 347.51 C 1061.28 345.77 1061.28 344.03 1061.29 342.30 C 1061.11 332.37 1061.80 322.44 1061.25 312.52 C 1061.90 298.84 1061.60 285.13 1061.22 271.44 C 1061.54 260.98 1061.34 250.50 1061.31 240.04 Z" />
</g>
<g id="#0054a7ff">
<path fill="#0054a7" opacity="1.00" d=" M 666.98 15.67 C 663.80 15.82 665.35 10.31 667.96 10.86 C 689.30 10.44 710.65 10.80 731.99 10.68 C 840.69 10.69 949.40 10.66 1058.10 10.68 C 1060.90 10.31 1060.67 13.46 1060.26 15.28 C 938.85 15.35 817.44 15.29 696.03 15.30 C 686.34 15.44 676.64 14.94 666.98 15.67 Z" />
</g>
<g id="#bed3e8ff">
<path fill="#bed3e8" opacity="1.00" d=" M 663.50 16.49 C 796.36 16.45 929.22 16.47 1062.07 16.49 C 1061.61 24.31 1062.10 32.15 1062.05 39.98 C 1061.35 37.21 1060.78 34.22 1058.49 32.28 C 1058.06 33.32 1057.65 34.36 1057.25 35.41 C 1040.16 34.66 1023.05 35.28 1005.95 35.08 C 983.63 35.10 961.31 34.99 938.99 35.11 C 933.76 35.19 928.50 34.76 923.30 35.40 C 921.71 35.71 919.37 36.25 919.36 38.26 C 918.82 42.56 918.90 46.91 918.82 51.24 C 918.80 54.35 918.77 57.47 918.77 60.58 L 918.30 59.59 C 917.58 51.53 918.62 43.42 917.96 35.35 C 901.62 35.19 885.29 35.27 868.96 35.26 C 865.47 35.03 862.43 36.90 859.39 38.31 C 858.91 37.90 857.95 37.06 857.47 36.64 C 857.84 35.81 858.23 34.99 858.63 34.17 C 853.91 36.51 848.34 36.94 843.27 35.65 C 839.36 34.48 835.56 36.88 831.62 36.40 C 823.75 35.64 815.85 36.26 807.96 36.07 C 778.63 36.15 749.30 36.03 719.97 36.08 C 701.16 35.93 682.32 36.58 663.56 35.28 C 663.46 29.02 663.76 22.76 663.50 16.49 Z" />
</g>
<g id="#f4f4f4ff">
<path fill="#f4f4f4" opacity="1.00" d=" M 1062.07 16.49 L 1063.13 16.51 C 1227.25 16.73 1391.36 16.34 1555.47 16.71 C 1555.32 20.58 1554.07 24.26 1552.87 27.91 C 1550.35 35.06 1548.09 42.37 1544.40 49.02 C 1543.04 50.80 1541.56 52.47 1540.01 54.06 C 1539.83 51.87 1540.59 49.84 1541.65 47.97 C 1541.05 48.05 1539.85 48.21 1539.25 48.29 C 1538.19 50.85 1538.36 53.61 1538.55 56.30 C 1537.20 54.83 1536.34 53.03 1535.60 51.21 C 1511.09 50.84 1486.57 51.17 1462.06 51.07 C 1352.69 51.03 1243.33 51.09 1133.97 51.02 C 1113.85 51.23 1093.72 50.80 1073.62 51.18 C 1072.92 52.61 1073.22 55.16 1071.08 55.18 C 1068.42 52.53 1069.58 48.27 1069.72 44.91 C 1067.13 45.27 1065.65 47.56 1064.06 49.36 C 1062.39 46.44 1063.76 42.88 1062.05 39.98 C 1062.10 32.15 1061.61 24.31 1062.07 16.49 Z" />
</g>
<g id="#edeeeeff">
<path fill="#edeeee" opacity="1.00" d=" M 275.38 30.36 C 279.86 29.00 284.59 29.18 289.18 28.49 C 292.93 27.97 296.34 30.07 299.60 31.59 C 299.56 36.80 301.20 41.86 300.94 47.07 C 300.83 49.13 301.03 51.19 301.54 53.19 C 302.26 48.81 301.90 44.36 302.46 39.97 C 303.33 44.30 302.54 48.79 303.56 53.11 C 303.91 50.49 304.13 47.85 304.29 45.21 C 308.21 45.01 312.13 45.02 316.05 45.09 C 428.36 45.07 540.68 45.06 652.99 45.07 C 654.42 45.06 655.61 44.15 656.88 43.58 C 656.83 46.45 656.75 49.38 657.59 52.16 C 658.66 44.46 657.49 36.66 658.42 28.95 C 659.52 35.77 658.54 42.69 659.11 49.56 C 659.97 49.57 660.86 49.58 661.74 49.59 C 661.99 47.76 662.26 45.93 662.54 44.10 C 662.64 48.19 662.50 52.32 663.34 56.36 L 663.38 56.98 C 663.67 61.05 663.49 65.13 663.52 69.20 C 663.56 77.63 663.33 86.06 663.51 94.49 C 663.49 96.26 663.60 98.03 663.74 99.79 C 663.56 134.91 663.58 170.03 663.47 205.14 C 658.98 203.68 661.82 198.03 660.78 194.62 C 661.07 188.06 661.26 181.45 660.51 174.91 C 657.61 180.55 657.15 186.90 656.57 193.09 C 655.73 189.52 655.83 185.83 655.78 182.19 C 624.25 181.81 592.70 182.41 561.16 181.94 C 559.92 180.80 558.62 179.74 557.28 178.72 C 555.57 181.28 553.68 183.71 551.55 185.92 C 550.57 183.82 549.63 181.70 548.73 179.57 C 547.90 179.83 547.09 180.10 546.27 180.35 C 558.30 153.13 570.64 126.04 582.68 98.83 C 571.36 94.10 558.35 92.55 546.52 96.27 C 535.36 99.92 527.45 109.70 522.88 120.16 C 513.19 142.87 503.71 165.68 493.92 188.36 C 492.81 189.86 491.68 191.34 490.60 192.85 C 489.37 192.21 488.15 191.57 486.98 190.85 C 467.94 159.65 448.80 128.51 429.67 97.37 C 428.74 95.28 426.22 95.30 424.32 94.83 C 411.59 92.11 397.93 91.87 385.62 96.54 C 371.11 101.79 361.32 114.28 351.26 125.28 C 334.94 143.05 318.70 160.90 302.41 178.69 C 301.08 178.55 299.76 178.41 298.45 178.28 C 298.54 129.55 298.47 80.82 298.50 32.10 C 287.66 30.09 276.20 30.55 265.77 34.29 C 267.83 30.90 272.03 31.33 275.38 30.36 Z" />
</g>
<g id="#0070b8ff">
<path fill="#0070b8" opacity="1.00" d=" M 265.77 34.29 C 276.20 30.55 287.66 30.09 298.50 32.10 C 298.47 80.82 298.54 129.55 298.45 178.28 C 298.42 180.48 298.42 182.67 298.47 184.87 C 298.59 208.28 298.45 231.70 298.51 255.11 C 298.61 262.56 294.92 270.59 287.65 273.46 C 275.66 278.62 262.19 277.91 249.44 277.17 C 249.64 205.80 249.39 134.44 249.50 63.07 C 249.63 57.98 250.17 52.80 252.13 48.06 C 254.56 41.78 259.82 37.18 265.77 34.29 Z" />
<path fill="#0070b8" opacity="1.00" d=" M 132.94 95.04 C 149.67 92.72 166.61 93.17 183.44 93.68 C 191.82 94.39 200.20 95.11 208.58 95.68 C 211.78 96.16 215.00 96.42 218.21 96.82 C 217.22 97.01 216.24 97.22 215.26 97.43 C 218.28 99.04 222.37 100.89 222.35 104.92 C 222.30 110.93 221.21 116.92 219.69 122.72 C 219.24 124.21 219.39 125.77 219.51 127.29 C 215.78 134.87 207.27 139.14 199.03 139.25 C 185.97 139.52 172.96 137.78 159.91 137.55 C 152.60 137.49 145.17 137.14 138.01 138.91 C 134.16 139.80 130.40 141.52 127.69 144.47 C 126.16 146.95 125.89 149.99 127.54 152.49 C 130.87 156.54 136.24 157.74 141.09 158.89 C 155.72 161.75 170.42 164.24 185.04 167.14 C 200.56 170.53 216.47 177.69 225.50 191.35 C 225.54 191.40 225.61 191.50 225.64 191.56 C 227.55 194.12 229.00 196.98 230.38 199.85 C 234.32 209.69 234.92 220.64 233.18 231.02 C 233.03 230.27 232.74 228.78 232.59 228.04 C 229.74 234.42 229.45 241.74 225.60 247.70 C 223.84 251.29 218.05 252.70 219.51 257.54 L 219.52 257.69 C 206.74 270.39 188.21 275.68 170.64 276.57 C 165.55 274.82 160.20 276.24 154.98 276.17 C 140.66 276.19 126.34 275.78 112.05 274.84 C 106.33 274.57 100.75 272.80 94.98 273.20 C 91.75 273.12 87.57 273.60 85.38 270.70 C 83.71 260.32 84.76 248.91 91.19 240.24 C 96.93 233.34 106.61 231.88 115.08 232.30 C 122.92 232.24 130.89 233.97 138.62 232.25 C 149.45 232.41 160.34 234.01 171.14 232.49 C 175.49 231.88 179.98 230.40 183.04 227.10 C 186.09 223.80 185.82 217.98 182.37 215.06 C 178.10 211.35 172.40 210.12 167.02 208.96 C 152.72 206.13 138.37 203.48 124.07 200.65 C 109.10 197.40 94.67 189.23 86.22 176.17 C 84.57 173.50 83.20 170.68 81.83 167.86 C 78.50 158.79 77.71 148.91 79.60 139.43 C 81.39 130.10 85.83 121.20 92.48 114.38 C 94.15 112.68 95.91 111.07 97.76 109.56 C 107.71 101.35 120.32 97.00 132.94 95.04 Z" />
<path fill="#0070b8" opacity="1.00" d=" M 546.52 96.27 C 558.35 92.55 571.36 94.10 582.68 98.83 C 570.64 126.04 558.30 153.13 546.27 180.35 C 545.86 181.25 545.45 182.15 545.03 183.05 C 543.05 186.66 541.40 190.44 540.03 194.32 C 533.10 209.43 526.39 224.63 519.58 239.80 C 508.00 265.55 496.55 291.35 484.94 317.09 C 480.91 326.03 474.41 334.95 464.53 337.74 C 452.04 341.40 438.47 339.56 426.45 335.02 C 428.15 329.53 431.16 324.54 433.47 319.29 C 444.81 295.32 456.27 271.40 467.48 247.36 C 458.16 232.86 448.90 218.30 439.67 203.74 C 431.51 190.84 423.16 178.06 415.09 165.11 C 414.16 163.56 413.16 162.06 412.16 160.57 C 408.03 154.16 403.99 147.71 399.82 141.33 C 386.28 155.92 372.44 170.23 358.90 184.82 C 361.15 188.46 363.51 192.03 365.97 195.54 C 367.75 198.65 369.66 201.68 371.80 204.55 C 371.99 204.81 372.37 205.34 372.56 205.61 C 385.09 224.14 397.20 242.95 409.68 261.51 C 412.21 265.31 414.73 269.10 417.05 273.03 C 402.35 278.50 385.66 279.97 370.58 275.19 C 366.26 273.60 362.16 271.33 358.68 268.30 C 352.85 263.64 349.06 257.06 345.17 250.82 C 340.85 244.11 336.55 237.37 332.30 230.61 C 329.69 226.27 327.03 221.97 324.14 217.80 C 319.88 211.11 315.57 204.45 311.36 197.72 C 310.32 195.95 309.25 194.19 308.20 192.42 C 308.71 188.97 306.52 186.18 303.40 185.03 C 302.51 183.59 301.59 182.17 300.69 180.75 C 301.25 180.05 301.82 179.37 302.41 178.69 C 318.70 160.90 334.94 143.05 351.26 125.28 C 361.32 114.28 371.11 101.79 385.62 96.54 C 389.53 97.19 393.27 96.01 396.98 95.01 C 406.05 93.73 415.23 95.29 424.32 94.83 C 426.22 95.30 428.74 95.28 429.67 97.37 C 448.80 128.51 467.94 159.65 486.98 190.85 C 488.09 192.80 489.31 194.70 490.61 196.55 C 491.85 193.88 492.92 191.13 493.92 188.36 C 503.71 165.68 513.19 142.87 522.88 120.16 C 527.45 109.70 535.36 99.92 546.52 96.27 Z" />
<path fill="#0070b8" opacity="1.00" d=" M 1175.81 99.83 C 1179.87 98.40 1184.89 99.22 1188.11 102.03 C 1188.70 123.36 1188.23 144.73 1188.41 166.07 C 1188.24 167.69 1189.29 169.59 1191.09 169.61 C 1196.42 169.76 1201.68 168.55 1207.02 168.61 C 1220.68 168.67 1234.33 168.59 1247.99 168.61 C 1254.48 168.72 1261.04 168.12 1267.47 169.39 C 1270.41 170.09 1273.76 169.11 1275.41 166.45 C 1275.77 162.95 1274.52 159.51 1274.61 156.00 C 1274.60 142.68 1274.64 129.35 1274.79 116.03 C 1274.75 113.31 1275.69 110.57 1277.63 108.63 C 1279.16 106.73 1281.82 107.83 1283.89 107.77 C 1282.58 107.04 1281.27 106.30 1280.00 105.55 C 1282.32 102.57 1286.37 102.08 1289.72 100.86 C 1296.51 98.63 1303.71 98.82 1310.75 99.34 C 1312.01 99.80 1313.30 100.88 1313.52 102.30 C 1312.80 124.49 1313.44 146.72 1313.23 168.94 C 1313.23 198.62 1313.22 228.31 1313.25 257.99 C 1313.50 266.16 1306.57 272.54 1299.10 274.32 C 1291.91 276.45 1284.30 276.12 1276.91 275.61 C 1275.39 275.72 1274.01 274.64 1274.40 273.02 C 1274.27 253.00 1274.48 232.98 1274.34 212.96 C 1274.20 210.27 1275.04 207.70 1275.95 205.21 C 1271.17 203.42 1266.02 204.19 1261.05 204.17 C 1249.71 204.21 1238.37 204.17 1227.03 204.19 C 1216.36 204.01 1205.66 204.63 1195.02 203.66 C 1192.88 203.51 1190.59 203.72 1188.76 204.89 C 1186.14 206.46 1188.52 209.63 1188.32 211.96 C 1188.45 225.62 1188.43 239.31 1188.38 252.98 C 1188.39 258.86 1186.56 264.49 1184.59 269.96 C 1185.05 269.75 1185.99 269.32 1186.46 269.11 L 1185.98 269.78 C 1182.27 273.84 1176.78 275.85 1171.44 276.63 C 1163.70 277.90 1155.79 277.76 1148.01 277.05 C 1148.07 226.36 1147.99 175.67 1148.05 124.99 C 1148.06 120.85 1147.80 116.68 1148.52 112.58 C 1151.65 112.36 1152.13 108.68 1153.42 106.47 C 1156.61 105.18 1159.28 102.95 1162.31 101.37 C 1166.70 100.07 1171.44 101.37 1175.81 99.83 Z" />
<path fill="#0070b8" opacity="1.00" d=" M 1343.88 107.28 C 1348.17 101.29 1356.00 99.40 1362.99 99.26 C 1377.99 99.27 1392.99 99.26 1407.98 99.27 C 1427.83 99.03 1447.97 102.87 1465.64 112.13 C 1468.83 114.11 1472.00 116.14 1475.23 118.07 C 1479.24 121.17 1483.14 124.44 1486.63 128.13 C 1486.98 128.51 1487.68 129.27 1488.03 129.65 C 1488.56 132.68 1490.32 135.98 1493.61 136.60 C 1499.86 145.39 1504.12 155.51 1506.50 166.00 C 1507.25 169.27 1507.80 172.58 1508.30 175.90 C 1509.09 186.61 1509.13 197.51 1506.93 208.07 C 1504.99 217.56 1501.33 226.65 1496.39 234.97 C 1487.99 248.49 1475.39 259.22 1460.97 265.85 C 1448.75 271.63 1435.39 274.73 1421.98 275.92 C 1413.68 276.79 1405.33 276.41 1397.01 276.50 C 1385.65 276.49 1374.30 276.51 1362.96 276.49 C 1357.41 276.41 1351.81 275.06 1347.21 271.88 C 1341.66 267.44 1339.78 260.20 1339.49 253.40 C 1339.64 210.60 1339.43 167.79 1339.53 124.99 C 1339.56 118.88 1340.18 112.38 1343.88 107.28 M 1380.70 137.36 C 1380.82 170.92 1380.55 204.49 1380.82 238.04 L 1381.64 238.70 C 1396.76 237.78 1412.15 239.89 1427.09 236.66 C 1441.21 233.83 1454.46 225.05 1460.81 211.88 C 1470.99 192.20 1467.42 165.44 1450.55 150.51 C 1440.32 141.39 1426.45 137.67 1413.00 137.38 C 1402.23 137.22 1391.46 137.26 1380.70 137.36 Z" />
</g>
<g id="#b1c9e2ff">
<path fill="#b1c9e2" opacity="1.00" d=" M 1058.49 32.28 C 1060.78 34.22 1061.35 37.21 1062.05 39.98 C 1062.34 44.37 1062.21 48.78 1062.16 53.17 C 1060.30 52.63 1058.65 51.63 1057.19 50.40 C 1055.59 51.28 1053.91 52.21 1052.02 52.03 C 1012.68 51.98 973.34 52.12 934.00 52.03 C 928.93 51.93 923.78 52.53 918.82 51.24 C 918.90 46.91 918.82 42.56 919.36 38.26 C 919.37 36.25 921.71 35.71 923.30 35.40 C 928.50 34.76 933.76 35.19 938.99 35.11 C 961.31 34.99 983.63 35.10 1005.95 35.08 C 1023.05 35.28 1040.16 34.66 1057.25 35.41 C 1057.65 34.36 1058.06 33.32 1058.49 32.28 Z" />
</g>
<g id="#afc7e1ff">
<path fill="#afc7e1" opacity="1.00" d=" M 843.27 35.65 C 848.34 36.94 853.91 36.51 858.63 34.17 C 858.23 34.99 857.84 35.81 857.47 36.64 C 857.95 37.06 858.91 37.90 859.39 38.31 C 842.81 46.17 826.32 54.25 809.63 61.89 C 807.94 61.23 806.18 60.81 804.38 60.66 C 806.44 59.78 807.73 57.97 808.77 56.07 C 804.18 55.55 799.57 55.70 794.97 55.91 C 764.66 55.87 734.34 55.89 704.03 55.91 C 691.71 55.65 679.35 56.44 667.07 55.35 C 665.76 55.71 664.58 56.41 663.38 56.98 L 663.34 56.36 C 663.51 49.34 663.56 42.31 663.56 35.28 C 682.32 36.58 701.16 35.93 719.97 36.08 C 749.30 36.03 778.63 36.15 807.96 36.07 C 815.85 36.26 823.75 35.64 831.62 36.40 C 835.56 36.88 839.36 34.48 843.27 35.65 Z" />
</g>
<g id="#f6f6f6ff">
<path fill="#f6f6f6" opacity="1.00" d=" M 10.82 41.07 C 10.83 39.62 10.76 38.05 11.74 36.86 C 11.89 64.81 11.28 92.78 12.21 120.71 C 11.75 124.01 11.81 127.35 12.25 130.64 C 11.10 141.07 12.34 151.57 12.10 162.03 C 12.50 168.19 10.47 175.42 15.41 180.28 C 17.13 179.43 19.00 178.94 20.94 179.07 C 40.08 179.34 59.23 178.82 78.36 179.24 C 78.94 180.41 79.51 181.59 80.09 182.76 C 81.67 181.61 83.34 180.37 85.42 180.61 C 85.39 179.08 85.53 177.55 86.22 176.17 C 94.67 189.23 109.10 197.40 124.07 200.65 C 138.37 203.48 152.72 206.13 167.02 208.96 C 172.40 210.12 178.10 211.35 182.37 215.06 C 185.82 217.98 186.09 223.80 183.04 227.10 C 179.98 230.40 175.49 231.88 171.14 232.49 C 160.34 234.01 149.45 232.41 138.62 232.25 C 135.48 231.94 132.34 231.70 129.19 231.54 C 128.72 231.06 127.77 230.10 127.30 229.62 C 119.10 229.84 110.90 228.98 102.70 229.40 C 102.51 229.95 102.14 231.07 101.96 231.62 C 91.47 233.97 84.79 243.96 83.72 254.23 C 83.09 252.75 82.81 250.89 81.25 250.06 C 81.39 251.29 81.56 252.52 81.75 253.75 C 80.84 254.11 79.93 254.47 79.03 254.83 C 79.40 251.60 80.16 248.43 80.83 245.25 C 59.34 244.50 37.81 245.49 16.33 244.77 C 16.07 243.18 15.85 241.58 15.56 240.00 C 14.26 245.04 15.56 250.48 14.67 255.64 L 14.00 256.20 C 13.78 255.88 13.35 255.23 13.14 254.91 C 12.54 249.30 13.53 243.60 12.21 238.05 C 11.72 226.69 12.10 215.30 11.80 203.93 C 10.38 186.35 11.12 168.67 10.76 151.04 C 10.87 114.38 10.88 77.73 10.82 41.07 Z" />
<path fill="#f6f6f6" opacity="1.00" d=" M 660.51 174.91 C 661.26 181.45 661.07 188.06 660.78 194.62 C 660.36 196.49 659.85 198.32 659.38 200.18 C 658.79 198.17 658.57 196.10 658.44 194.03 C 657.98 210.35 658.13 226.69 658.11 243.03 C 658.01 247.38 658.31 251.77 657.61 256.10 C 655.98 250.88 657.61 245.32 656.52 240.00 C 656.19 241.66 655.88 243.33 655.57 245.01 C 655.22 243.73 654.87 242.46 654.54 241.19 C 612.57 240.93 570.60 241.07 528.63 241.17 C 528.57 241.58 528.46 242.38 528.41 242.79 C 527.69 243.11 526.98 243.43 526.27 243.76 C 526.34 242.85 526.41 241.94 526.50 241.03 C 524.16 240.93 520.91 242.60 519.58 239.80 C 526.39 224.63 533.10 209.43 540.03 194.32 C 542.10 190.84 545.18 187.30 545.03 183.05 C 545.45 182.15 545.86 181.25 546.27 180.35 C 547.09 180.10 547.90 179.83 548.73 179.57 C 549.63 181.70 550.57 183.82 551.55 185.92 C 553.68 183.71 555.57 181.28 557.28 178.72 C 558.62 179.74 559.92 180.80 561.16 181.94 C 592.70 182.41 624.25 181.81 655.78 182.19 C 655.83 185.83 655.73 189.52 656.57 193.09 C 657.15 186.90 657.61 180.55 660.51 174.91 Z" />
<path fill="#f6f6f6" opacity="1.00" d=" M 1508.30 175.90 C 1508.77 176.22 1509.72 176.87 1510.20 177.20 C 1510.48 183.21 1509.95 189.23 1510.40 195.23 C 1511.43 194.08 1512.37 192.84 1513.33 191.60 C 1515.86 193.05 1517.38 195.58 1518.91 197.98 C 1519.99 196.66 1520.76 194.52 1522.90 194.98 C 1543.14 195.08 1563.41 194.74 1583.64 195.18 C 1583.93 196.79 1584.23 198.40 1584.56 200.02 C 1584.81 197.31 1585.12 194.62 1585.50 191.94 C 1585.82 194.68 1586.18 197.42 1586.58 200.16 C 1587.79 193.31 1587.18 186.30 1588.44 179.49 C 1589.76 185.54 1588.69 191.80 1588.94 197.95 C 1588.64 207.96 1589.54 218.04 1588.00 227.97 C 1587.45 231.86 1587.27 235.83 1586.63 239.69 C 1584.92 241.09 1583.79 237.90 1582.05 238.11 C 1558.03 237.99 1534.00 238.14 1509.97 238.02 C 1507.16 238.12 1503.82 237.42 1501.90 240.02 C 1500.61 237.82 1502.28 235.22 1500.59 233.11 C 1499.66 234.14 1498.71 235.18 1497.84 236.24 C 1497.48 235.92 1496.75 235.29 1496.39 234.97 C 1501.33 226.65 1504.99 217.56 1506.93 208.07 C 1509.13 197.51 1509.09 186.61 1508.30 175.90 Z" />
<path fill="#f6f6f6" opacity="1.00" d=" M 1063.39 192.42 C 1064.67 188.87 1063.93 185.02 1064.89 181.40 C 1066.94 185.59 1065.40 190.53 1067.23 194.84 C 1068.42 194.92 1069.62 195.00 1070.84 195.09 C 1071.58 194.04 1072.33 192.99 1073.10 191.94 C 1094.22 192.28 1115.37 191.53 1136.47 192.28 C 1136.85 193.12 1137.23 193.97 1137.64 194.83 C 1137.89 193.93 1138.17 193.03 1138.46 192.14 C 1138.76 192.84 1139.36 194.24 1139.66 194.94 C 1140.15 190.60 1139.73 186.21 1140.41 181.89 C 1141.11 184.85 1140.87 187.91 1141.24 190.91 C 1141.25 192.74 1143.65 191.71 1144.76 191.89 C 1144.90 189.23 1145.12 186.58 1145.41 183.93 C 1145.64 186.81 1146.06 189.69 1146.78 192.50 C 1147.39 208.40 1147.19 224.33 1147.20 240.25 C 1143.22 239.86 1145.59 234.61 1144.49 231.97 C 1144.17 233.93 1143.94 235.90 1143.78 237.89 C 1143.12 237.01 1142.94 235.59 1141.87 235.17 C 1140.25 234.55 1140.09 236.85 1139.47 237.74 C 1128.65 238.54 1117.78 237.84 1106.95 238.08 C 1094.79 238.31 1082.58 237.65 1070.45 238.38 C 1070.35 238.73 1070.15 239.42 1070.04 239.77 C 1092.71 240.08 1115.39 239.83 1138.05 239.95 C 1138.55 240.15 1139.56 240.54 1140.06 240.73 C 1128.75 241.54 1117.36 240.84 1106.02 241.03 C 1093.24 241.04 1080.44 241.27 1067.67 240.87 C 1067.60 239.77 1067.52 238.66 1067.19 237.61 C 1064.62 239.17 1065.70 242.57 1064.45 244.91 C 1062.49 237.75 1063.15 230.29 1063.02 222.97 C 1062.97 215.31 1063.04 207.66 1062.97 200.01 C 1062.99 197.48 1062.59 194.87 1063.39 192.42 Z" />
</g>
<g id="#efefefff">
<path fill="#efefef" opacity="1.00" d=" M 1588.20 36.80 C 1589.30 38.66 1588.93 40.90 1589.01 42.96 C 1588.78 84.97 1589.20 126.98 1588.76 169.00 C 1588.62 172.49 1589.05 176.02 1588.44 179.49 C 1587.18 186.30 1587.79 193.31 1586.58 200.16 C 1586.18 197.42 1585.82 194.68 1585.50 191.94 C 1585.12 194.62 1584.81 197.31 1584.56 200.02 C 1584.23 198.40 1583.93 196.79 1583.64 195.18 C 1563.41 194.74 1543.14 195.08 1522.90 194.98 C 1520.76 194.52 1519.99 196.66 1518.91 197.98 C 1517.38 195.58 1515.86 193.05 1513.33 191.60 C 1512.37 192.84 1511.43 194.08 1510.40 195.23 C 1509.95 189.23 1510.48 183.21 1510.20 177.20 C 1509.72 176.87 1508.77 176.22 1508.30 175.90 C 1507.80 172.58 1507.25 169.27 1506.50 166.00 C 1507.52 164.04 1510.03 163.20 1511.98 164.32 C 1513.01 162.79 1514.04 161.27 1515.09 159.74 C 1515.87 161.37 1516.67 163.00 1517.47 164.64 C 1519.34 162.75 1520.83 159.56 1523.98 159.89 C 1544.32 159.90 1564.67 159.86 1585.01 159.96 C 1586.84 162.04 1585.84 165.50 1586.59 168.13 C 1586.79 159.07 1587.91 150.06 1587.74 140.99 C 1587.89 132.67 1587.60 124.32 1588.47 116.03 C 1588.75 114.19 1588.09 112.42 1587.71 110.66 C 1588.62 86.05 1587.76 61.41 1588.20 36.80 Z" />
</g>
<g id="#eeeeeeff">
<path fill="#eeeeee" opacity="1.00" d=" M 47.95 42.73 C 49.05 44.21 50.16 45.67 51.24 47.16 C 51.67 45.80 52.11 44.44 52.53 43.08 C 53.00 46.05 53.91 49.76 57.13 50.81 C 61.08 51.39 65.08 50.94 69.05 51.00 C 123.35 51.09 177.65 50.88 231.94 51.04 C 235.06 50.87 239.45 52.07 240.81 48.28 C 241.29 50.43 241.74 52.60 242.58 54.64 C 244.97 55.91 245.30 51.19 247.73 50.76 C 248.04 54.76 248.16 58.78 248.40 62.79 C 248.40 97.51 248.53 132.23 248.26 166.95 C 248.03 177.28 248.84 187.68 247.32 197.93 C 246.87 200.26 248.18 203.41 246.13 205.16 C 245.44 200.81 246.24 196.26 244.52 192.10 C 244.08 196.36 244.65 200.70 243.83 204.92 C 241.45 205.94 241.99 202.68 241.52 201.35 C 240.34 201.57 239.16 201.80 237.99 202.03 C 237.63 200.03 238.25 198.11 239.00 196.29 C 239.44 196.34 240.31 196.43 240.75 196.47 C 240.57 195.22 240.39 193.97 240.22 192.72 C 239.84 192.63 239.07 192.46 238.69 192.37 C 237.58 195.61 234.18 196.91 231.52 198.59 C 231.53 198.94 231.54 199.64 231.55 199.98 C 231.26 199.95 230.67 199.89 230.38 199.85 C 229.00 196.98 227.55 194.12 225.64 191.56 C 225.61 191.50 225.54 191.40 225.50 191.35 C 216.47 177.69 200.56 170.53 185.04 167.14 C 170.42 164.24 155.72 161.75 141.09 158.89 C 136.24 157.74 130.87 156.54 127.54 152.49 C 128.32 149.87 128.82 147.08 127.69 144.47 C 130.40 141.52 134.16 139.80 138.01 138.91 C 145.17 137.14 152.60 137.49 159.91 137.55 C 172.96 137.78 185.97 139.52 199.03 139.25 C 207.27 139.14 215.78 134.87 219.51 127.29 C 224.06 118.09 224.25 107.31 222.51 97.37 C 221.07 97.17 219.65 96.97 218.21 96.82 C 215.00 96.42 211.78 96.16 208.58 95.68 C 205.40 93.79 201.61 93.73 198.03 93.40 C 193.17 93.21 188.27 92.88 183.44 93.68 C 166.61 93.17 149.67 92.72 132.94 95.04 C 120.32 97.00 107.71 101.35 97.76 109.56 C 93.22 107.94 91.09 103.37 87.54 100.48 C 83.33 96.98 80.36 92.34 76.82 88.23 C 68.35 78.39 60.66 67.80 54.44 56.38 C 51.92 52.01 49.19 47.68 47.95 42.73 Z" />
</g>
<g id="#edededff">
<path fill="#ededed" opacity="1.00" d=" M 1064.06 49.36 C 1065.65 47.56 1067.13 45.27 1069.72 44.91 C 1069.58 48.27 1068.42 52.53 1071.08 55.18 C 1073.22 55.16 1072.92 52.61 1073.62 51.18 C 1093.72 50.80 1113.85 51.23 1133.97 51.02 C 1243.33 51.09 1352.69 51.03 1462.06 51.07 C 1486.57 51.17 1511.09 50.84 1535.60 51.21 C 1536.34 53.03 1537.20 54.83 1538.55 56.30 C 1538.36 53.61 1538.19 50.85 1539.25 48.29 C 1539.85 48.21 1541.05 48.05 1541.65 47.97 C 1540.59 49.84 1539.83 51.87 1540.01 54.06 C 1541.56 52.47 1543.04 50.80 1544.40 49.02 C 1543.89 50.32 1543.49 51.65 1542.98 52.94 C 1534.07 71.05 1523.05 88.11 1510.00 103.52 C 1505.54 106.92 1502.43 111.63 1498.72 115.75 C 1494.90 120.09 1490.36 123.71 1486.63 128.13 C 1483.14 124.44 1479.24 121.17 1475.23 118.07 C 1473.63 114.26 1469.50 112.54 1465.64 112.13 C 1447.97 102.87 1427.83 99.03 1407.98 99.27 C 1392.99 99.26 1377.99 99.27 1362.99 99.26 C 1356.00 99.40 1348.17 101.29 1343.88 107.28 C 1340.18 112.38 1339.56 118.88 1339.53 124.99 C 1339.43 167.79 1339.64 210.60 1339.49 253.40 C 1338.06 247.01 1339.05 240.43 1338.80 233.94 C 1338.50 217.28 1338.94 200.62 1338.48 183.96 C 1337.64 189.30 1338.12 194.73 1337.54 200.09 C 1337.20 197.38 1336.96 194.66 1336.75 191.94 C 1333.57 191.79 1332.95 195.64 1331.52 197.73 C 1331.19 196.91 1330.88 196.10 1330.59 195.30 C 1330.19 196.09 1329.81 196.88 1329.45 197.67 C 1328.45 195.83 1327.45 194.00 1326.45 192.17 C 1325.68 194.72 1325.06 197.67 1322.27 198.75 C 1321.94 200.83 1321.67 202.93 1321.41 205.03 C 1321.24 201.03 1321.25 196.95 1319.89 193.13 C 1317.93 187.59 1319.47 181.64 1318.51 175.94 C 1317.44 183.95 1318.80 192.08 1317.57 200.08 C 1316.78 196.77 1317.00 193.35 1316.98 189.98 C 1316.53 160.01 1317.17 130.01 1316.09 100.05 C 1315.74 99.72 1315.04 99.06 1314.68 98.73 C 1306.85 97.51 1298.82 97.81 1291.01 99.06 C 1285.39 100.03 1279.27 101.99 1275.95 106.96 C 1273.45 110.45 1273.03 114.88 1272.94 119.04 C 1272.87 135.12 1273.05 151.21 1272.87 167.30 C 1245.17 167.23 1217.48 167.19 1189.78 167.32 C 1189.66 144.42 1189.83 121.52 1189.71 98.62 C 1189.70 97.98 1189.69 96.71 1189.68 96.07 C 1178.75 97.96 1167.22 95.52 1156.68 99.70 C 1153.66 101.19 1151.27 103.65 1148.87 105.96 C 1146.85 107.70 1147.11 110.59 1147.02 112.99 C 1147.06 138.00 1146.90 163.01 1147.15 188.01 C 1147.04 189.51 1146.92 191.00 1146.78 192.50 C 1146.06 189.69 1145.64 186.81 1145.41 183.93 C 1145.12 186.58 1144.90 189.23 1144.76 191.89 C 1143.65 191.71 1141.25 192.74 1141.24 190.91 C 1140.87 187.91 1141.11 184.85 1140.41 181.89 C 1139.73 186.21 1140.15 190.60 1139.66 194.94 C 1139.36 194.24 1138.76 192.84 1138.46 192.14 C 1138.17 193.03 1137.89 193.93 1137.64 194.83 C 1137.23 193.97 1136.85 193.12 1136.47 192.28 C 1115.37 191.53 1094.22 192.28 1073.10 191.94 C 1072.33 192.99 1071.58 194.04 1070.84 195.09 C 1069.62 195.00 1068.42 194.92 1067.23 194.84 C 1065.40 190.53 1066.94 185.59 1064.89 181.40 C 1063.93 185.02 1064.67 188.87 1063.39 192.42 C 1062.95 190.30 1062.68 188.14 1062.76 185.97 C 1063.28 169.99 1062.89 154.00 1062.92 138.01 C 1063.14 110.98 1062.38 83.92 1063.58 56.92 C 1063.63 54.40 1063.31 51.80 1064.06 49.36 Z" />
</g>
<g id="#a2beddff">
<path fill="#a2bedd" opacity="1.00" d=" M 1052.02 52.03 C 1053.91 52.21 1055.59 51.28 1057.19 50.40 C 1058.65 51.63 1060.30 52.63 1062.16 53.17 C 1062.19 59.92 1062.41 66.68 1062.18 73.43 C 1059.82 71.92 1058.19 69.65 1056.77 67.30 C 1050.88 68.24 1044.91 67.89 1038.98 68.00 C 1002.99 67.95 967.00 67.91 931.01 67.98 C 927.78 68.03 924.51 67.64 921.33 68.29 C 920.53 69.42 919.93 70.67 919.29 71.88 C 919.10 68.12 919.11 64.34 918.77 60.58 C 918.77 57.47 918.80 54.35 918.82 51.24 C 923.78 52.53 928.93 51.93 934.00 52.03 C 973.34 52.12 1012.68 51.98 1052.02 52.03 Z" />
</g>
<g id="#a0bddcff">
<path fill="#a0bddc" opacity="1.00" d=" M 663.38 56.98 C 664.58 56.41 665.76 55.71 667.07 55.35 C 679.35 56.44 691.71 55.65 704.03 55.91 C 734.34 55.89 764.66 55.87 794.97 55.91 C 799.57 55.70 804.18 55.55 808.77 56.07 C 807.73 57.97 806.44 59.78 804.38 60.66 C 806.18 60.81 807.94 61.23 809.63 61.89 C 802.21 65.20 794.78 68.83 788.70 74.34 C 788.92 72.27 789.24 70.21 789.68 68.18 C 751.47 67.84 713.26 68.17 675.05 67.98 C 672.52 68.00 670.09 67.27 667.80 66.26 C 666.36 67.24 664.94 68.22 663.52 69.20 C 663.49 65.13 663.67 61.05 663.38 56.98 Z" />
</g>
<g id="#92b4d9ff">
<path fill="#92b4d9" opacity="1.00" d=" M 918.30 59.59 L 918.77 60.58 C 919.11 64.34 919.10 68.12 919.29 71.88 C 919.93 70.67 920.53 69.42 921.33 68.29 C 924.51 67.64 927.78 68.03 931.01 67.98 C 967.00 67.91 1002.99 67.95 1038.98 68.00 C 1044.91 67.89 1050.88 68.24 1056.77 67.30 C 1058.19 69.65 1059.82 71.92 1062.18 73.43 C 1062.30 78.38 1062.40 83.34 1062.06 88.28 C 1060.81 86.22 1059.49 84.21 1058.26 82.15 C 1058.20 86.02 1057.98 89.89 1057.78 93.75 C 1056.11 92.19 1054.66 89.71 1052.05 89.94 C 1011.38 89.87 970.71 89.97 930.04 89.91 C 928.99 91.28 927.96 92.64 926.94 94.01 C 925.92 91.56 924.69 89.20 923.18 87.02 C 919.26 94.83 919.06 103.78 918.90 112.32 C 918.74 121.83 918.59 131.34 918.73 140.85 C 918.58 141.98 918.43 143.11 918.30 144.24 C 917.81 116.03 918.39 87.81 918.30 59.59 Z" />
<path fill="#92b4d9" opacity="1.00" d=" M 663.52 69.20 C 664.94 68.22 666.36 67.24 667.80 66.26 C 670.09 67.27 672.52 68.00 675.05 67.98 C 713.26 68.17 751.47 67.84 789.68 68.18 C 789.24 70.21 788.92 72.27 788.70 74.34 C 784.61 78.43 781.68 83.60 780.50 89.28 C 779.48 88.38 778.49 87.48 777.49 86.59 C 775.96 87.70 774.51 88.98 772.76 89.71 C 771.22 89.43 769.82 88.69 768.40 88.12 C 765.50 90.71 761.48 89.81 757.95 89.90 C 729.96 89.94 701.98 89.76 673.99 89.95 C 671.45 90.22 669.48 88.19 667.06 88.02 C 665.09 89.48 664.72 92.40 663.51 94.49 C 663.33 86.06 663.56 77.63 663.52 69.20 Z" />
</g>
<g id="#81a6d1ff">
<path fill="#81a6d1" opacity="1.00" d=" M 1058.26 82.15 C 1059.49 84.21 1060.81 86.22 1062.06 88.28 C 1062.45 90.76 1062.20 93.28 1061.91 95.75 C 1060.80 103.99 1062.04 112.34 1061.04 120.58 C 1059.79 117.87 1059.68 114.88 1059.56 111.95 C 1059.26 113.60 1058.93 115.24 1058.64 116.88 C 1058.24 116.08 1057.87 115.28 1057.51 114.49 C 1057.18 114.78 1056.54 115.37 1056.21 115.66 C 1055.97 114.50 1055.75 113.34 1055.54 112.18 C 1015.35 111.98 975.17 112.13 934.99 112.06 C 933.24 112.10 931.51 112.20 929.79 112.33 C 928.97 113.29 928.60 115.01 927.07 114.99 C 925.10 113.74 925.71 110.43 923.83 109.09 C 922.45 109.24 922.04 110.75 921.27 111.65 C 920.68 111.82 919.49 112.15 918.90 112.32 C 919.06 103.78 919.26 94.83 923.18 87.02 C 924.69 89.20 925.92 91.56 926.94 94.01 C 927.96 92.64 928.99 91.28 930.04 89.91 C 970.71 89.97 1011.38 89.87 1052.05 89.94 C 1054.66 89.71 1056.11 92.19 1057.78 93.75 C 1057.98 89.89 1058.20 86.02 1058.26 82.15 Z" />
</g>
<g id="#83a8d2ff">
<path fill="#83a8d2" opacity="1.00" d=" M 777.49 86.59 C 778.49 87.48 779.48 88.38 780.50 89.28 C 778.82 96.84 780.00 104.76 782.59 111.97 C 782.04 111.80 780.93 111.47 780.38 111.30 C 780.07 110.35 779.79 109.39 779.54 108.44 C 778.71 108.88 777.88 109.32 777.06 109.77 C 776.86 107.51 776.67 105.26 776.49 103.00 C 776.25 104.63 776.01 106.27 775.80 107.91 C 771.96 109.28 767.94 108.17 764.01 108.15 C 737.00 108.14 709.99 108.26 682.99 108.13 C 677.72 107.75 672.50 109.08 667.24 108.54 C 666.25 109.85 665.26 111.15 664.28 112.46 C 664.23 108.23 664.39 103.98 663.74 99.79 C 663.60 98.03 663.49 96.26 663.51 94.49 C 664.72 92.40 665.09 89.48 667.06 88.02 C 669.48 88.19 671.45 90.22 673.99 89.95 C 701.98 89.76 729.96 89.94 757.95 89.90 C 761.48 89.81 765.50 90.71 768.40 88.12 C 769.82 88.69 771.22 89.43 772.76 89.71 C 774.51 88.98 775.96 87.70 777.49 86.59 Z" />
</g>
<g id="#c4e7f9ff">
<path fill="#c4e7f9" opacity="1.00" d=" M 183.44 93.68 C 188.27 92.88 193.17 93.21 198.03 93.40 C 201.61 93.73 205.40 93.79 208.58 95.68 C 200.20 95.11 191.82 94.39 183.44 93.68 Z" />
</g>
<g id="#156a9eff">
<path fill="#156a9e" opacity="1.00" d=" M 385.62 96.54 C 397.93 91.87 411.59 92.11 424.32 94.83 C 415.23 95.29 406.05 93.73 396.98 95.01 C 393.27 96.01 389.53 97.19 385.62 96.54 Z" />
<path fill="#156a9e" opacity="1.00" d=" M 1158.95 100.94 C 1168.75 97.40 1179.47 97.67 1189.71 98.62 C 1189.83 121.52 1189.66 144.42 1189.78 167.32 C 1217.48 167.19 1245.17 167.23 1272.87 167.30 C 1273.05 151.21 1272.87 135.12 1272.94 119.04 C 1273.03 114.88 1273.45 110.45 1275.95 106.96 C 1279.27 101.99 1285.39 100.03 1291.01 99.06 C 1298.82 97.81 1306.85 97.51 1314.68 98.73 C 1314.88 150.50 1314.69 202.27 1314.76 254.04 C 1314.86 260.38 1314.15 267.57 1308.88 271.86 L 1308.51 272.11 C 1298.02 278.67 1284.87 277.86 1273.04 276.93 C 1272.90 253.12 1273.02 229.30 1272.92 205.49 C 1271.50 205.50 1270.10 205.51 1268.72 205.52 C 1242.39 205.56 1216.06 205.50 1189.74 205.54 C 1189.76 221.03 1189.74 236.53 1189.76 252.02 C 1189.74 257.82 1189.86 264.09 1186.46 269.11 C 1185.99 269.32 1185.05 269.75 1184.59 269.96 C 1186.56 264.49 1188.39 258.86 1188.38 252.98 C 1188.43 239.31 1188.45 225.62 1188.32 211.96 C 1188.52 209.63 1186.14 206.46 1188.76 204.89 C 1190.59 203.72 1192.88 203.51 1195.02 203.66 C 1205.66 204.63 1216.36 204.01 1227.03 204.19 C 1238.37 204.17 1249.71 204.21 1261.05 204.17 C 1266.02 204.19 1271.17 203.42 1275.95 205.21 C 1275.04 207.70 1274.20 210.27 1274.34 212.96 C 1274.48 232.98 1274.27 253.00 1274.40 273.02 C 1274.01 274.64 1275.39 275.72 1276.91 275.61 C 1284.30 276.12 1291.91 276.45 1299.10 274.32 C 1306.57 272.54 1313.50 266.16 1313.25 257.99 C 1313.22 228.31 1313.23 198.62 1313.23 168.94 C 1313.44 146.72 1312.80 124.49 1313.52 102.30 C 1313.30 100.88 1312.01 99.80 1310.75 99.34 C 1303.71 98.82 1296.51 98.63 1289.72 100.86 C 1286.37 102.08 1282.32 102.57 1280.00 105.55 C 1281.27 106.30 1282.58 107.04 1283.89 107.77 C 1281.82 107.83 1279.16 106.73 1277.63 108.63 C 1275.69 110.57 1274.75 113.31 1274.79 116.03 C 1274.64 129.35 1274.60 142.68 1274.61 156.00 C 1274.52 159.51 1275.77 162.95 1275.41 166.45 C 1273.76 169.11 1270.41 170.09 1267.47 169.39 C 1261.04 168.12 1254.48 168.72 1247.99 168.61 C 1234.33 168.59 1220.68 168.67 1207.02 168.61 C 1201.68 168.55 1196.42 169.76 1191.09 169.61 C 1189.29 169.59 1188.24 167.69 1188.41 166.07 C 1188.23 144.73 1188.70 123.36 1188.11 102.03 C 1184.89 99.22 1179.87 98.40 1175.81 99.83 C 1171.44 101.37 1166.70 100.07 1162.31 101.37 C 1159.28 102.95 1156.61 105.18 1153.42 106.47 C 1152.13 108.68 1151.65 112.36 1148.52 112.58 C 1149.57 107.10 1153.71 102.69 1158.95 100.94 Z" />
<path fill="#156a9e" opacity="1.00" d=" M 225.60 247.70 C 229.45 241.74 229.74 234.42 232.59 228.04 C 232.74 228.78 233.03 230.27 233.18 231.02 C 231.43 240.91 226.98 250.66 219.51 257.54 C 218.05 252.70 223.84 251.29 225.60 247.70 Z" />
<path fill="#156a9e" opacity="1.00" d=" M 101.96 231.62 C 110.96 230.00 120.13 231.18 129.19 231.54 C 132.34 231.70 135.48 231.94 138.62 232.25 C 130.89 233.97 122.92 232.24 115.08 232.30 C 106.61 231.88 96.93 233.34 91.19 240.24 C 84.76 248.91 83.71 260.32 85.38 270.70 C 87.57 273.60 91.75 273.12 94.98 273.20 C 100.75 272.80 106.33 274.57 112.05 274.84 C 126.34 275.78 140.66 276.19 154.98 276.17 C 160.20 276.24 165.55 274.82 170.64 276.57 C 166.79 277.35 162.85 277.20 158.95 277.46 C 134.08 277.94 109.19 276.39 84.49 273.53 C 82.80 267.25 82.99 260.63 83.72 254.23 C 84.79 243.96 91.47 233.97 101.96 231.62 Z" />
</g>
<g id="#638ac5ff">
<path fill="#638ac5" opacity="1.00" d=" M 1061.04 120.58 C 1062.04 112.34 1060.80 103.99 1061.91 95.75 C 1062.42 121.10 1062.03 146.47 1062.13 171.83 C 1052.76 172.31 1043.37 172.07 1034.00 171.92 C 1009.68 172.54 985.36 172.08 961.04 172.24 C 946.77 172.11 932.50 172.43 918.24 172.05 C 918.19 162.78 918.23 153.51 918.30 144.24 C 918.43 143.11 918.58 141.98 918.73 140.85 C 919.94 143.08 922.20 144.26 924.42 145.28 C 925.85 144.56 927.33 143.82 929.00 143.90 C 966.67 143.94 1004.35 143.90 1042.03 143.93 C 1045.98 143.99 1049.96 143.60 1053.90 144.08 C 1055.11 145.14 1055.95 146.54 1056.90 147.83 C 1057.44 146.61 1057.99 145.39 1058.55 144.18 C 1058.81 144.85 1059.32 146.19 1059.57 146.86 C 1061.43 141.78 1061.02 136.30 1061.20 131.00 C 1061.29 127.53 1061.32 124.05 1061.04 120.58 Z" />
</g>
<g id="#d9f5fdff">
<path fill="#d9f5fd" opacity="1.00" d=" M 1156.68 99.70 C 1167.22 95.52 1178.75 97.96 1189.68 96.07 C 1189.69 96.71 1189.70 97.98 1189.71 98.62 C 1179.47 97.67 1168.75 97.40 1158.95 100.94 C 1153.71 102.69 1149.57 107.10 1148.52 112.58 C 1147.80 116.68 1148.06 120.85 1148.05 124.99 C 1147.99 175.67 1148.07 226.36 1148.01 277.05 C 1146.67 276.10 1147.15 274.33 1147.10 272.97 C 1147.58 262.07 1147.19 251.15 1147.20 240.25 C 1147.19 224.33 1147.39 208.40 1146.78 192.50 C 1146.92 191.00 1147.04 189.51 1147.15 188.01 C 1146.90 163.01 1147.06 138.00 1147.02 112.99 C 1147.11 110.59 1146.85 107.70 1148.87 105.96 C 1151.27 103.65 1153.66 101.19 1156.68 99.70 Z" />
</g>
<g id="#1a6990ff">
<path fill="#1a6990" opacity="1.00" d=" M 215.26 97.43 C 216.24 97.22 217.22 97.01 218.21 96.82 C 219.65 96.97 221.07 97.17 222.51 97.37 C 224.25 107.31 224.06 118.09 219.51 127.29 C 219.39 125.77 219.24 124.21 219.69 122.72 C 221.21 116.92 222.30 110.93 222.35 104.92 C 222.37 100.89 218.28 99.04 215.26 97.43 Z" />
</g>
<g id="#f7f8f8ff">
<path fill="#f7f8f8" opacity="1.00" d=" M 1314.68 98.73 C 1315.04 99.06 1315.74 99.72 1316.09 100.05 C 1317.17 130.01 1316.53 160.01 1316.98 189.98 C 1317.00 193.35 1316.78 196.77 1317.57 200.08 C 1318.80 192.08 1317.44 183.95 1318.51 175.94 C 1319.47 181.64 1317.93 187.59 1319.89 193.13 C 1321.25 196.95 1321.24 201.03 1321.41 205.03 C 1321.67 202.93 1321.94 200.83 1322.27 198.75 C 1325.06 197.67 1325.68 194.72 1326.45 192.17 C 1327.45 194.00 1328.45 195.83 1329.45 197.67 C 1329.81 196.88 1330.19 196.09 1330.59 195.30 C 1330.88 196.10 1331.19 196.91 1331.52 197.73 C 1332.95 195.64 1333.57 191.79 1336.75 191.94 C 1336.96 194.66 1337.20 197.38 1337.54 200.09 C 1338.12 194.73 1337.64 189.30 1338.48 183.96 C 1338.94 200.62 1338.50 217.28 1338.80 233.94 C 1339.05 240.43 1338.06 247.01 1339.49 253.40 C 1339.78 260.20 1341.66 267.44 1347.21 271.88 C 1344.53 272.40 1341.47 271.73 1340.53 268.86 C 1336.48 267.13 1338.91 261.49 1336.04 258.60 C 1336.82 258.42 1337.62 258.24 1338.43 258.05 C 1337.41 257.43 1336.44 256.81 1335.46 256.18 C 1334.57 257.69 1334.01 259.49 1332.69 260.69 C 1330.93 262.02 1330.94 259.03 1331.03 258.03 C 1332.51 256.28 1334.86 254.73 1333.62 252.12 C 1333.36 252.83 1332.86 254.24 1332.60 254.94 C 1330.60 254.88 1328.63 254.74 1326.67 254.44 C 1326.58 258.23 1325.64 261.94 1325.57 265.74 C 1325.26 265.75 1324.65 265.76 1324.34 265.77 C 1323.50 263.22 1324.29 260.38 1323.25 257.88 C 1322.24 256.11 1320.63 254.81 1319.31 253.31 C 1318.44 254.28 1316.79 255.08 1317.41 256.62 C 1318.16 259.39 1320.05 261.76 1320.49 264.66 C 1321.16 267.35 1320.09 270.05 1318.94 272.44 C 1316.69 270.04 1319.40 265.42 1316.45 263.82 C 1316.51 264.71 1316.61 265.60 1316.72 266.50 C 1316.39 266.50 1315.73 266.49 1315.40 266.49 C 1314.77 268.13 1314.34 269.90 1313.30 271.33 C 1312.01 272.33 1310.31 271.78 1308.88 271.86 C 1314.15 267.57 1314.86 260.38 1314.76 254.04 C 1314.69 202.27 1314.88 150.50 1314.68 98.73 Z" />
</g>
<g id="#e5e5e5ff">
<path fill="#e5e5e5" opacity="1.00" d=" M 1584.52 120.14 C 1585.52 113.11 1584.56 105.98 1585.56 98.95 C 1586.48 105.97 1585.52 113.08 1586.49 120.09 C 1586.86 116.94 1587.24 113.79 1587.71 110.66 C 1588.09 112.42 1588.75 114.19 1588.47 116.03 C 1587.60 124.32 1587.89 132.67 1587.74 140.99 C 1587.91 150.06 1586.79 159.07 1586.59 168.13 C 1585.84 165.50 1586.84 162.04 1585.01 159.96 C 1564.67 159.86 1544.32 159.90 1523.98 159.89 C 1520.83 159.56 1519.34 162.75 1517.47 164.64 C 1516.67 163.00 1515.87 161.37 1515.09 159.74 C 1514.04 161.27 1513.01 162.79 1511.98 164.32 C 1510.03 163.20 1507.52 164.04 1506.50 166.00 C 1504.12 155.51 1499.86 145.39 1493.61 136.60 C 1491.95 134.13 1490.06 131.82 1488.03 129.65 C 1487.68 129.27 1486.98 128.51 1486.63 128.13 C 1490.36 123.71 1494.90 120.09 1498.72 115.75 C 1502.43 111.63 1505.54 106.92 1510.00 103.52 C 1508.85 106.90 1506.24 109.36 1504.03 112.04 C 1505.89 111.93 1507.72 111.48 1509.46 110.74 C 1510.93 111.22 1512.39 111.80 1513.96 111.97 C 1537.20 112.21 1560.44 111.78 1583.68 112.16 C 1583.82 114.83 1584.08 117.49 1584.52 120.14 Z" />
</g>
<g id="#4975baff">
<path fill="#4975ba" opacity="1.00" d=" M 663.74 99.79 C 664.39 103.98 664.23 108.23 664.28 112.46 C 664.06 122.33 664.64 132.19 664.43 142.06 C 664.26 146.78 666.05 151.37 665.53 156.10 C 665.00 161.30 663.49 166.71 665.13 171.85 C 665.84 171.93 667.24 172.10 667.94 172.19 C 721.29 172.18 774.65 172.16 828.00 172.22 C 833.66 172.27 839.34 172.38 844.96 171.51 C 845.56 162.57 845.65 153.57 845.27 144.61 C 845.27 141.58 845.59 138.56 846.11 135.58 C 846.26 166.25 846.34 196.92 846.18 227.59 C 845.72 229.54 845.20 231.47 844.81 233.43 C 844.19 231.32 843.71 229.17 843.44 226.99 C 842.45 231.63 841.90 236.36 840.68 240.95 C 839.78 238.25 838.81 235.57 837.59 233.00 C 835.53 234.88 835.48 237.71 835.20 240.28 C 834.96 239.93 834.48 239.23 834.23 238.88 C 833.63 234.18 834.24 229.41 833.69 224.69 C 831.77 225.88 831.40 228.31 829.89 229.79 C 825.28 230.44 820.61 229.88 815.97 229.99 C 768.42 230.24 720.85 229.76 673.30 230.20 C 672.71 232.58 672.15 234.99 671.08 237.22 C 669.48 235.61 670.30 232.99 670.03 230.94 C 670.25 226.47 669.18 222.09 667.49 217.98 C 665.71 225.54 666.38 233.35 664.99 240.96 C 664.78 250.89 664.76 260.82 664.71 270.75 C 663.82 281.90 665.23 293.16 663.67 304.25 C 663.10 271.23 663.64 238.18 663.47 205.14 C 663.58 170.03 663.56 134.91 663.74 99.79 Z" />
</g>
<g id="#e3e3e3ff">
<path fill="#e3e3e3" opacity="1.00" d=" M 14.42 101.83 C 15.83 107.81 14.50 114.03 15.48 120.08 C 15.83 117.45 16.04 114.81 16.20 112.16 C 37.96 111.62 59.75 112.07 81.52 111.99 C 81.44 112.86 81.36 113.73 81.29 114.59 C 82.74 114.58 84.19 114.56 85.64 114.55 C 85.60 113.65 85.57 112.74 85.53 111.84 C 86.58 112.36 87.63 112.88 88.69 113.40 C 88.86 113.08 89.20 112.43 89.37 112.11 C 90.40 112.86 91.44 113.62 92.48 114.38 C 85.83 121.20 81.39 130.10 79.60 139.43 C 78.38 139.59 77.17 139.77 75.97 139.97 C 75.54 140.06 74.68 140.23 74.25 140.32 C 73.97 141.56 73.72 142.82 73.48 144.08 C 73.17 142.84 72.85 141.61 72.53 140.38 C 72.16 140.76 71.42 141.51 71.04 141.89 C 69.88 140.40 68.46 139.16 66.81 138.24 C 66.41 137.75 65.59 136.76 65.19 136.27 C 63.93 137.41 63.05 139.41 61.02 139.06 C 46.10 138.88 31.17 139.31 16.25 138.88 C 16.02 136.90 15.76 134.91 15.48 132.93 C 15.07 136.65 15.01 140.40 14.81 144.14 C 14.43 143.97 13.69 143.64 13.32 143.48 C 12.66 139.23 13.54 134.82 12.25 130.64 C 11.81 127.35 11.75 124.01 12.21 120.71 C 13.15 119.65 14.04 118.49 13.87 116.98 C 14.12 111.93 13.55 106.84 14.42 101.83 Z" />
</g>
<g id="#729accff">
<path fill="#729acc" opacity="1.00" d=" M 775.80 107.91 C 776.01 106.27 776.25 104.63 776.49 103.00 C 776.67 105.26 776.86 107.51 777.06 109.77 C 777.88 109.32 778.71 108.88 779.54 108.44 C 779.79 109.39 780.07 110.35 780.38 111.30 C 780.93 111.47 782.04 111.80 782.59 111.97 C 785.70 120.96 791.65 128.45 797.61 135.69 C 801.85 133.45 806.28 131.62 810.67 129.68 C 822.60 124.47 834.26 118.62 846.32 113.70 C 846.13 120.99 846.49 128.29 846.11 135.58 C 845.59 138.56 845.27 141.58 845.27 144.61 C 843.67 142.03 843.66 138.97 843.55 136.04 C 842.71 138.49 841.52 140.80 840.14 142.99 C 838.59 141.42 837.17 139.72 835.94 137.90 C 834.89 139.41 833.83 140.90 832.78 142.40 C 832.14 141.69 831.57 140.92 830.95 140.21 C 823.64 139.84 816.32 140.20 809.02 139.99 C 806.44 139.71 804.48 141.87 802.03 141.96 C 799.78 141.01 797.57 139.76 795.05 140.03 C 753.69 140.10 712.32 140.09 670.96 140.02 C 668.55 139.80 666.25 140.47 664.43 142.06 C 664.64 132.19 664.06 122.33 664.28 112.46 C 665.26 111.15 666.25 109.85 667.24 108.54 C 672.50 109.08 677.72 107.75 682.99 108.13 C 709.99 108.26 737.00 108.14 764.01 108.15 C 767.94 108.17 771.96 109.28 775.80 107.91 Z" />
</g>
<g id="#7199cbff">
<path fill="#7199cb" opacity="1.00" d=" M 921.27 111.65 C 922.04 110.75 922.45 109.24 923.83 109.09 C 925.71 110.43 925.10 113.74 927.07 114.99 C 928.60 115.01 928.97 113.29 929.79 112.33 C 931.51 112.20 933.24 112.10 934.99 112.06 C 975.17 112.13 1015.35 111.98 1055.54 112.18 C 1055.75 113.34 1055.97 114.50 1056.21 115.66 C 1056.54 115.37 1057.18 114.78 1057.51 114.49 C 1057.87 115.28 1058.24 116.08 1058.64 116.88 C 1058.93 115.24 1059.26 113.60 1059.56 111.95 C 1059.68 114.88 1059.79 117.87 1061.04 120.58 C 1061.32 124.05 1061.29 127.53 1061.20 131.00 C 1061.02 136.30 1061.43 141.78 1059.57 146.86 C 1059.32 146.19 1058.81 144.85 1058.55 144.18 C 1057.99 145.39 1057.44 146.61 1056.90 147.83 C 1055.95 146.54 1055.11 145.14 1053.90 144.08 C 1049.96 143.60 1045.98 143.99 1042.03 143.93 C 1004.35 143.90 966.67 143.94 929.00 143.90 C 927.33 143.82 925.85 144.56 924.42 145.28 C 922.20 144.26 919.94 143.08 918.73 140.85 C 918.59 131.34 918.74 121.83 918.90 112.32 C 919.49 112.15 920.68 111.82 921.27 111.65 Z" />
</g>
<g id="#b8e2f6ff">
<path fill="#b8e2f6" opacity="1.00" d=" M 1465.64 112.13 C 1469.50 112.54 1473.63 114.26 1475.23 118.07 C 1472.00 116.14 1468.83 114.11 1465.64 112.13 Z" />
</g>
<g id="#3179a7ff">
<path fill="#3179a7" opacity="1.00" d=" M 1488.03 129.65 C 1490.06 131.82 1491.95 134.13 1493.61 136.60 C 1490.32 135.98 1488.56 132.68 1488.03 129.65 Z" />
</g>
<g id="#ecececff">
<path fill="#ececec" opacity="1.00" d=" M 12.25 130.64 C 13.54 134.82 12.66 139.23 13.32 143.48 C 13.69 143.64 14.43 143.97 14.81 144.14 C 15.01 140.40 15.07 136.65 15.48 132.93 C 15.76 134.91 16.02 136.90 16.25 138.88 C 31.17 139.31 46.10 138.88 61.02 139.06 C 63.05 139.41 63.93 137.41 65.19 136.27 C 65.59 136.76 66.41 137.75 66.81 138.24 C 68.46 139.16 69.88 140.40 71.04 141.89 C 71.42 141.51 72.16 140.76 72.53 140.38 C 72.85 141.61 73.17 142.84 73.48 144.08 C 73.72 142.82 73.97 141.56 74.25 140.32 C 74.68 140.23 75.54 140.06 75.97 139.97 C 75.84 140.48 75.60 141.49 75.47 142.00 C 78.61 146.15 76.78 151.47 77.70 156.20 C 78.39 159.72 79.06 163.26 80.03 166.72 C 80.48 167.00 81.38 167.58 81.83 167.86 C 83.20 170.68 84.57 173.50 86.22 176.17 C 85.53 177.55 85.39 179.08 85.42 180.61 C 83.34 180.37 81.67 181.61 80.09 182.76 C 79.51 181.59 78.94 180.41 78.36 179.24 C 59.23 178.82 40.08 179.34 20.94 179.07 C 19.00 178.94 17.13 179.43 15.41 180.28 C 10.47 175.42 12.50 168.19 12.10 162.03 C 12.34 151.57 11.10 141.07 12.25 130.64 Z" />
</g>
<g id="#648bc6ff">
<path fill="#648bc6" opacity="1.00" d=" M 840.14 142.99 C 841.52 140.80 842.71 138.49 843.55 136.04 C 843.66 138.97 843.67 142.03 845.27 144.61 C 845.65 153.57 845.56 162.57 844.96 171.51 C 839.34 172.38 833.66 172.27 828.00 172.22 C 774.65 172.16 721.29 172.18 667.94 172.19 C 667.24 172.10 665.84 171.93 665.13 171.85 C 663.49 166.71 665.00 161.30 665.53 156.10 C 666.05 151.37 664.26 146.78 664.43 142.06 C 666.25 140.47 668.55 139.80 670.96 140.02 C 712.32 140.09 753.69 140.10 795.05 140.03 C 797.57 139.76 799.78 141.01 802.03 141.96 C 804.48 141.87 806.44 139.71 809.02 139.99 C 816.32 140.20 823.64 139.84 830.95 140.21 C 831.57 140.92 832.14 141.69 832.78 142.40 C 833.83 140.90 834.89 139.41 835.94 137.90 C 837.17 139.72 838.59 141.42 840.14 142.99 Z" />
</g>
<g id="#f0f0f0ff">
<path fill="#f0f0f0" opacity="1.00" d=" M 1380.70 137.36 C 1391.46 137.26 1402.23 137.22 1413.00 137.38 C 1426.45 137.67 1440.32 141.39 1450.55 150.51 C 1467.42 165.44 1470.99 192.20 1460.81 211.88 C 1460.27 210.12 1458.76 209.17 1457.25 208.38 C 1453.81 209.52 1450.18 210.22 1447.07 212.11 C 1445.07 213.16 1443.05 214.79 1440.68 214.37 C 1439.98 212.09 1442.76 210.05 1441.36 207.69 C 1440.19 209.11 1439.28 211.28 1437.05 210.86 C 1422.03 211.06 1406.99 210.73 1391.98 210.98 C 1390.40 210.82 1390.05 212.75 1389.23 213.69 C 1387.76 210.96 1386.90 207.99 1386.49 204.94 C 1385.95 208.73 1385.32 212.59 1383.39 215.97 C 1383.20 213.22 1383.01 210.47 1382.64 207.75 C 1381.17 211.33 1381.95 215.26 1381.84 219.01 C 1381.71 225.57 1381.97 232.14 1381.64 238.70 L 1380.82 238.04 C 1380.55 204.49 1380.82 170.92 1380.70 137.36 Z" />
</g>
<g id="#c5e2f5ff">
<path fill="#c5e2f5" opacity="1.00" d=" M 75.97 139.97 C 77.17 139.77 78.38 139.59 79.60 139.43 C 77.71 148.91 78.50 158.79 81.83 167.86 C 81.38 167.58 80.48 167.00 80.03 166.72 C 79.06 163.26 78.39 159.72 77.70 156.20 C 76.78 151.47 78.61 146.15 75.47 142.00 C 75.60 141.49 75.84 140.48 75.97 139.97 Z" />
</g>
<g id="#f1f1f1ff">
<path fill="#f1f1f1" opacity="1.00" d=" M 399.82 141.33 C 403.99 147.71 408.03 154.16 412.16 160.57 C 412.47 162.27 412.76 163.98 413.07 165.68 C 413.58 165.54 414.59 165.25 415.09 165.11 C 423.16 178.06 431.51 190.84 439.67 203.74 C 438.17 204.52 436.62 204.17 435.16 203.60 C 435.43 204.73 435.69 205.86 435.96 207.00 C 435.17 206.27 434.37 205.54 433.59 204.82 C 431.09 205.41 428.51 205.21 425.98 205.09 C 412.12 204.74 398.24 205.42 384.39 204.79 C 384.08 203.53 383.77 202.27 383.47 201.01 C 382.38 201.25 380.96 200.87 380.13 201.76 C 380.55 202.70 381.00 203.63 381.48 204.56 C 380.71 205.33 379.93 206.09 379.16 206.86 C 377.14 205.72 374.88 204.90 372.56 205.61 C 372.37 205.34 371.99 204.81 371.80 204.55 C 371.94 203.98 372.24 202.84 372.39 202.27 C 370.46 199.83 368.42 197.46 365.97 195.54 C 363.51 192.03 361.15 188.46 358.90 184.82 C 372.44 170.23 386.28 155.92 399.82 141.33 Z" />
</g>
<g id="#aedcf5ff">
<path fill="#aedcf5" opacity="1.00" d=" M 127.54 152.49 C 125.89 149.99 126.16 146.95 127.69 144.47 C 128.82 147.08 128.32 149.87 127.54 152.49 Z" />
</g>
<g id="#b2e2f7ff">
<path fill="#b2e2f7" opacity="1.00" d=" M 412.16 160.57 C 413.16 162.06 414.16 163.56 415.09 165.11 C 414.59 165.25 413.58 165.54 413.07 165.68 C 412.76 163.98 412.47 162.27 412.16 160.57 Z" />
</g>
<g id="#4875b9ff">
<path fill="#4875b9" opacity="1.00" d=" M 918.24 172.05 C 932.50 172.43 946.77 172.11 961.04 172.24 C 985.36 172.08 1009.68 172.54 1034.00 171.92 C 1043.37 172.07 1052.76 172.31 1062.13 171.83 C 1062.06 191.91 1062.10 211.98 1062.08 232.06 C 1061.90 234.49 1062.53 237.12 1061.71 239.43 L 1061.31 240.04 C 1058.47 244.03 1060.74 249.40 1059.59 253.95 C 1059.21 251.91 1058.89 249.88 1058.50 247.85 C 1058.10 250.24 1057.73 252.62 1057.40 255.01 C 1055.85 253.64 1054.41 251.61 1052.08 251.89 C 1011.19 251.68 970.28 252.15 929.39 251.67 C 928.67 250.86 927.95 250.05 927.24 249.25 C 926.21 251.63 925.77 254.19 925.52 256.75 C 925.05 256.78 924.10 256.85 923.62 256.88 C 923.02 251.21 923.56 245.31 921.37 239.92 C 919.53 245.48 920.08 251.38 919.39 257.12 C 918.84 262.22 919.14 267.36 918.90 272.48 L 918.35 271.49 C 918.05 238.35 918.42 205.20 918.24 172.05 Z" />
</g>
<g id="#ceeefaff">
<path fill="#ceeefa" opacity="1.00" d=" M 298.45 178.28 C 299.76 178.41 301.08 178.55 302.41 178.69 C 301.82 179.37 301.25 180.05 300.69 180.75 C 301.59 182.17 302.51 183.59 303.40 185.03 C 304.87 187.57 306.49 190.02 308.20 192.42 C 309.25 194.19 310.32 195.95 311.36 197.72 C 307.96 197.85 307.16 193.54 305.39 191.33 C 304.64 191.43 303.89 191.53 303.15 191.63 C 303.75 189.54 303.69 187.39 302.47 185.52 C 301.13 185.31 299.80 185.09 298.47 184.87 C 298.42 182.67 298.42 180.48 298.45 178.28 Z" />
</g>
<g id="#a8d8ecff">
<path fill="#a8d8ec" opacity="1.00" d=" M 540.03 194.32 C 541.40 190.44 543.05 186.66 545.03 183.05 C 545.18 187.30 542.10 190.84 540.03 194.32 Z" />
</g>
<g id="#2e76a3ff">
<path fill="#2e76a3" opacity="1.00" d=" M 303.40 185.03 C 306.52 186.18 308.71 188.97 308.20 192.42 C 306.49 190.02 304.87 187.57 303.40 185.03 Z" />
</g>
<g id="#b7e4f5ff">
<path fill="#b7e4f5" opacity="1.00" d=" M 490.60 192.85 C 491.68 191.34 492.81 189.86 493.92 188.36 C 492.92 191.13 491.85 193.88 490.61 196.55 C 489.31 194.70 488.09 192.80 486.98 190.85 C 488.15 191.57 489.37 192.21 490.60 192.85 Z" />
</g>
<g id="#57809eff">
<path fill="#57809e" opacity="1.00" d=" M 225.50 191.35 C 225.54 191.40 225.61 191.50 225.64 191.56 C 225.61 191.50 225.54 191.40 225.50 191.35 Z" />
</g>
<g id="#bae3f6ff">
<path fill="#bae3f6" opacity="1.00" d=" M 365.97 195.54 C 368.42 197.46 370.46 199.83 372.39 202.27 C 372.24 202.84 371.94 203.98 371.80 204.55 C 369.66 201.68 367.75 198.65 365.97 195.54 Z" />
</g>
<g id="#f9f9f9ff">
<path fill="#f9f9f9" opacity="1.00" d=" M 380.13 201.76 C 380.96 200.87 382.38 201.25 383.47 201.01 C 383.77 202.27 384.08 203.53 384.39 204.79 C 398.24 205.42 412.12 204.74 425.98 205.09 C 428.51 205.21 431.09 205.41 433.59 204.82 C 434.37 205.54 435.17 206.27 435.96 207.00 C 435.69 205.86 435.43 204.73 435.16 203.60 C 436.62 204.17 438.17 204.52 439.67 203.74 C 448.90 218.30 458.16 232.86 467.48 247.36 C 456.27 271.40 444.81 295.32 433.47 319.29 C 432.60 314.79 430.70 309.60 433.32 305.34 C 433.95 304.02 435.47 304.45 436.63 304.38 C 437.10 302.87 438.09 300.03 439.71 302.54 C 441.09 298.95 439.42 295.09 440.86 291.52 C 440.43 291.51 439.57 291.49 439.14 291.47 C 439.17 290.38 439.19 289.30 439.23 288.22 C 441.51 287.94 444.11 288.48 446.18 287.32 C 447.13 285.60 447.91 283.79 448.78 282.03 C 446.21 279.85 448.54 276.70 449.92 274.57 C 445.01 273.48 439.98 274.13 435.02 273.90 C 432.70 273.88 431.34 270.78 428.87 271.67 C 426.05 271.83 424.80 274.77 422.37 275.77 C 422.18 276.29 421.78 277.32 421.58 277.84 C 421.30 277.62 420.75 277.19 420.47 276.98 C 420.59 275.63 420.71 274.28 420.83 272.94 C 420.09 273.82 419.35 274.70 418.62 275.58 C 418.15 275.16 417.68 274.75 417.22 274.33 C 416.81 275.40 416.40 276.47 416.00 277.55 C 416.97 277.45 417.94 277.36 418.91 277.27 C 419.02 278.88 417.45 279.58 416.10 279.77 C 413.55 279.30 410.72 277.07 408.39 279.29 C 408.35 280.77 410.75 280.97 411.79 281.79 C 408.49 282.43 405.24 281.68 401.99 281.18 C 397.36 282.03 392.64 281.95 388.00 282.72 C 384.43 282.63 380.73 283.22 377.35 281.71 C 377.70 281.38 378.41 280.71 378.76 280.38 C 376.68 279.92 373.40 280.39 373.22 277.51 C 372.20 276.89 371.10 276.33 370.58 275.19 C 385.66 279.97 402.35 278.50 417.05 273.03 C 414.73 269.10 412.21 265.31 409.68 261.51 C 397.20 242.95 385.09 224.14 372.56 205.61 C 374.88 204.90 377.14 205.72 379.16 206.86 C 379.93 206.09 380.71 205.33 381.48 204.56 C 381.00 203.63 380.55 202.70 380.13 201.76 Z" />
</g>
<g id="#f7f7f7ff">
<path fill="#f7f7f7" opacity="1.00" d=" M 1383.39 215.97 C 1385.32 212.59 1385.95 208.73 1386.49 204.94 C 1386.90 207.99 1387.76 210.96 1389.23 213.69 C 1390.05 212.75 1390.40 210.82 1391.98 210.98 C 1406.99 210.73 1422.03 211.06 1437.05 210.86 C 1439.28 211.28 1440.19 209.11 1441.36 207.69 C 1442.76 210.05 1439.98 212.09 1440.68 214.37 C 1443.05 214.79 1445.07 213.16 1447.07 212.11 C 1450.18 210.22 1453.81 209.52 1457.25 208.38 C 1458.76 209.17 1460.27 210.12 1460.81 211.88 C 1454.46 225.05 1441.21 233.83 1427.09 236.66 C 1412.15 239.89 1396.76 237.78 1381.64 238.70 C 1381.97 232.14 1381.71 225.57 1381.84 219.01 C 1381.95 215.26 1381.17 211.33 1382.64 207.75 C 1383.01 210.47 1383.20 213.22 1383.39 215.97 Z" />
</g>
<g id="#f8f8f8ff">
<path fill="#f8f8f8" opacity="1.00" d=" M 1189.76 252.02 C 1189.74 236.53 1189.76 221.03 1189.74 205.54 C 1216.06 205.50 1242.39 205.56 1268.72 205.52 C 1270.11 208.16 1271.25 211.01 1271.05 214.06 C 1270.96 230.06 1271.20 246.06 1271.05 262.06 C 1269.85 261.98 1268.66 261.90 1267.49 261.83 C 1267.10 260.93 1266.73 260.04 1266.37 259.15 C 1266.18 259.79 1265.80 261.08 1265.61 261.73 C 1245.42 262.34 1225.21 261.67 1205.01 261.97 C 1202.63 262.23 1200.53 261.14 1198.57 259.98 C 1198.55 260.44 1198.51 261.36 1198.49 261.81 C 1197.67 261.64 1196.88 261.47 1196.10 261.30 C 1195.80 261.74 1195.21 262.62 1194.92 263.05 C 1195.82 263.93 1196.73 264.81 1197.65 265.70 C 1197.86 265.04 1198.28 263.74 1198.49 263.08 C 1200.00 264.08 1200.02 265.87 1199.96 267.52 C 1199.49 267.51 1198.54 267.49 1198.07 267.48 C 1198.31 268.86 1198.62 270.25 1198.65 271.66 C 1197.59 271.97 1196.51 272.03 1195.40 271.85 C 1195.06 270.40 1194.74 268.95 1194.42 267.50 C 1193.06 267.11 1191.71 266.73 1190.37 266.35 C 1189.07 267.65 1188.20 270.02 1185.98 269.78 L 1186.46 269.11 C 1189.86 264.09 1189.74 257.82 1189.76 252.02 Z" />
</g>
<g id="#e6ffffff">
<path fill="#e6ffff" opacity="1.00" d=" M 1268.72 205.52 C 1270.10 205.51 1271.50 205.50 1272.92 205.49 C 1273.02 229.30 1272.90 253.12 1273.04 276.93 C 1284.87 277.86 1298.02 278.67 1308.51 272.11 C 1308.62 273.01 1308.83 274.79 1308.93 275.68 C 1305.07 277.08 1300.91 276.98 1296.98 278.03 C 1291.01 279.75 1284.69 278.04 1278.70 279.61 C 1275.35 280.84 1271.60 278.41 1271.20 274.91 C 1270.78 270.65 1271.20 266.34 1271.05 262.06 C 1271.20 246.06 1270.96 230.06 1271.05 214.06 C 1271.25 211.01 1270.11 208.16 1268.72 205.52 Z" />
</g>
<g id="#cbedf9ff">
<path fill="#cbedf9" opacity="1.00" d=" M 324.14 217.80 C 327.03 221.97 329.69 226.27 332.30 230.61 C 328.10 231.53 328.45 225.88 326.26 223.73 C 324.50 222.21 323.98 220.05 324.14 217.80 Z" />
</g>
<g id="#3f70b7ff">
<path fill="#3f70b7" opacity="1.00" d=" M 664.99 240.96 C 666.38 233.35 665.71 225.54 667.49 217.98 C 669.18 222.09 670.25 226.47 670.03 230.94 C 670.30 232.99 669.48 235.61 671.08 237.22 C 672.15 234.99 672.71 232.58 673.30 230.20 C 720.85 229.76 768.42 230.24 815.97 229.99 C 820.61 229.88 825.28 230.44 829.89 229.79 C 831.40 228.31 831.77 225.88 833.69 224.69 C 834.24 229.41 833.63 234.18 834.23 238.88 C 834.48 239.23 834.96 239.93 835.20 240.28 C 835.48 237.71 835.53 234.88 837.59 233.00 C 838.81 235.57 839.78 238.25 840.68 240.95 C 841.90 236.36 842.45 231.63 843.44 226.99 C 843.71 229.17 844.19 231.32 844.81 233.43 C 845.45 239.96 845.43 246.60 844.64 253.12 C 843.98 250.13 843.75 247.09 843.58 244.05 C 841.70 248.87 842.11 253.99 842.72 259.00 C 841.73 263.31 840.68 267.62 840.52 272.08 C 840.47 267.01 838.54 262.25 838.39 257.21 C 837.27 257.27 836.46 257.97 836.39 259.12 C 835.75 261.41 835.24 263.73 834.57 266.00 C 834.22 264.78 833.87 263.56 833.54 262.34 C 831.01 262.68 828.48 262.98 825.95 263.01 C 776.63 262.86 727.31 263.04 678.00 263.00 C 674.73 263.10 671.48 262.82 668.26 262.32 C 667.75 265.87 667.73 269.93 664.82 272.51 L 664.71 270.75 C 664.76 260.82 664.78 250.89 664.99 240.96 Z" />
</g>
<g id="#2f6bb3ff">
<path fill="#2f6bb3" opacity="1.00" d=" M 844.81 233.43 C 845.20 231.47 845.72 229.54 846.18 227.59 C 846.34 258.86 846.20 290.13 846.28 321.40 L 845.42 320.91 C 845.28 312.54 845.73 304.15 844.87 295.81 C 844.51 295.65 843.78 295.32 843.42 295.15 C 843.10 293.77 842.81 292.39 842.52 291.02 C 842.22 292.80 841.93 294.59 841.72 296.39 C 840.86 293.22 840.13 290.01 838.99 286.93 C 838.16 287.39 837.35 287.87 836.55 288.35 C 836.02 289.67 835.47 291.00 834.61 292.15 C 834.25 290.80 833.92 289.44 833.61 288.08 C 781.41 287.70 729.19 288.06 676.99 287.88 C 674.10 287.83 671.25 288.17 668.42 288.67 C 667.73 287.45 668.57 283.87 666.64 284.36 C 665.94 285.60 665.42 286.93 664.95 288.26 C 664.71 283.01 664.81 277.76 664.82 272.51 C 667.73 269.93 667.75 265.87 668.26 262.32 C 671.48 262.82 674.73 263.10 678.00 263.00 C 727.31 263.04 776.63 262.86 825.95 263.01 C 828.48 262.98 831.01 262.68 833.54 262.34 C 833.87 263.56 834.22 264.78 834.57 266.00 C 835.24 263.73 835.75 261.41 836.39 259.12 C 836.46 257.97 837.27 257.27 838.39 257.21 C 838.54 262.25 840.47 267.01 840.52 272.08 C 840.68 267.62 841.73 263.31 842.72 259.00 C 842.11 253.99 841.70 248.87 843.58 244.05 C 843.75 247.09 843.98 250.13 844.64 253.12 C 845.43 246.60 845.45 239.96 844.81 233.43 Z" />
</g>
<g id="#d5f6feff">
<path fill="#d5f6fe" opacity="1.00" d=" M 102.70 229.40 C 110.90 228.98 119.10 229.84 127.30 229.62 C 127.77 230.10 128.72 231.06 129.19 231.54 C 120.13 231.18 110.96 230.00 101.96 231.62 C 102.14 231.07 102.51 229.95 102.70 229.40 Z" />
</g>
<g id="#356cb6ff">
<path fill="#356cb6" opacity="1.00" d=" M 921.37 239.92 C 923.56 245.31 923.02 251.21 923.62 256.88 C 924.10 256.85 925.05 256.78 925.52 256.75 C 925.77 254.19 926.21 251.63 927.24 249.25 C 927.95 250.05 928.67 250.86 929.39 251.67 C 970.28 252.15 1011.19 251.68 1052.08 251.89 C 1054.41 251.61 1055.85 253.64 1057.40 255.01 C 1057.73 252.62 1058.10 250.24 1058.50 247.85 C 1058.89 249.88 1059.21 251.91 1059.59 253.95 C 1060.74 249.40 1058.47 244.03 1061.31 240.04 C 1061.34 250.50 1061.54 260.98 1061.22 271.44 C 1059.92 274.13 1059.76 277.13 1059.64 280.06 C 1059.26 278.76 1058.87 277.45 1058.52 276.16 C 1058.21 277.39 1057.90 278.61 1057.63 279.85 C 1023.10 280.10 988.56 279.85 954.02 279.98 C 944.24 280.03 934.43 279.52 924.67 280.32 C 922.30 280.77 922.11 277.84 921.37 276.31 C 920.76 278.22 920.11 280.12 919.42 282.01 C 919.06 278.84 919.01 275.65 918.90 272.48 C 919.14 267.36 918.84 262.22 919.39 257.12 C 920.08 251.38 919.53 245.48 921.37 239.92 Z" />
</g>
<g id="#2466b0ff">
<path fill="#2466b0" opacity="1.00" d=" M 918.35 271.49 L 918.90 272.48 C 919.01 275.65 919.06 278.84 919.42 282.01 C 920.11 280.12 920.76 278.22 921.37 276.31 C 922.11 277.84 922.30 280.77 924.67 280.32 C 934.43 279.52 944.24 280.03 954.02 279.98 C 988.56 279.85 1023.10 280.10 1057.63 279.85 C 1057.90 278.61 1058.21 277.39 1058.52 276.16 C 1058.87 277.45 1059.26 278.76 1059.64 280.06 C 1059.76 277.13 1059.92 274.13 1061.22 271.44 C 1061.60 285.13 1061.90 298.84 1061.25 312.52 C 1058.67 306.02 1060.55 298.77 1059.44 291.98 C 1059.15 296.73 1059.45 301.53 1058.72 306.25 C 1057.88 303.90 1057.61 301.41 1057.37 298.94 C 1057.17 302.29 1056.93 305.63 1056.63 308.98 C 1056.25 307.39 1055.90 305.81 1055.56 304.23 C 1014.03 303.85 972.49 304.22 930.96 304.04 C 928.85 303.88 926.90 302.98 924.95 302.26 C 924.08 303.11 923.22 303.98 922.37 304.85 C 922.07 303.03 921.99 301.16 921.40 299.42 C 920.10 298.44 918.69 297.50 918.13 295.88 C 918.40 287.75 918.18 279.62 918.35 271.49 Z" />
</g>
<g id="#2165b0ff">
<path fill="#2165b0" opacity="1.00" d=" M 666.64 284.36 C 668.57 283.87 667.73 287.45 668.42 288.67 C 671.25 288.17 674.10 287.83 676.99 287.88 C 729.19 288.06 781.41 287.70 833.61 288.08 C 833.92 289.44 834.25 290.80 834.61 292.15 C 835.47 291.00 836.02 289.67 836.55 288.35 C 837.35 287.87 838.16 287.39 838.99 286.93 C 840.13 290.01 840.86 293.22 841.72 296.39 C 842.17 299.12 842.39 301.98 841.15 304.55 C 839.52 301.22 838.46 297.66 837.46 294.11 C 836.57 297.27 836.02 300.51 835.69 303.78 C 818.46 304.26 801.21 303.87 783.97 303.95 C 752.63 303.92 721.30 304.02 689.96 303.96 C 684.47 303.86 678.98 304.20 673.51 303.76 C 672.74 302.50 671.97 301.25 671.21 300.01 C 670.38 300.69 669.55 301.37 668.73 302.06 C 668.30 300.82 667.88 299.58 667.47 298.34 C 666.61 299.67 665.74 301.00 664.94 302.37 C 664.77 297.66 664.68 292.96 664.95 288.26 C 665.42 286.93 665.94 285.60 666.64 284.36 Z" />
</g>
<g id="#1860acff">
<path fill="#1860ac" opacity="1.00" d=" M 842.52 291.02 C 842.81 292.39 843.10 293.77 843.42 295.15 C 843.78 295.32 844.51 295.65 844.87 295.81 C 845.73 304.15 845.28 312.54 845.42 320.91 C 843.80 320.64 842.21 320.41 840.61 320.17 C 840.61 321.10 840.61 322.03 840.62 322.97 C 839.03 322.93 837.45 322.79 835.90 322.45 C 836.52 321.28 837.16 320.13 837.80 318.96 C 835.42 319.53 832.53 320.02 832.06 322.89 C 783.73 323.11 735.39 322.91 687.05 322.98 C 681.25 323.06 675.45 322.66 669.67 323.22 C 668.92 324.28 668.58 325.85 667.14 326.18 C 666.25 325.11 665.47 323.95 664.74 322.78 C 664.66 315.98 664.30 309.15 664.94 302.37 C 665.74 301.00 666.61 299.67 667.47 298.34 C 667.88 299.58 668.30 300.82 668.73 302.06 C 669.55 301.37 670.38 300.69 671.21 300.01 C 671.97 301.25 672.74 302.50 673.51 303.76 C 678.98 304.20 684.47 303.86 689.96 303.96 C 721.30 304.02 752.63 303.92 783.97 303.95 C 801.21 303.87 818.46 304.26 835.69 303.78 C 836.02 300.51 836.57 297.27 837.46 294.11 C 838.46 297.66 839.52 301.22 841.15 304.55 C 842.39 301.98 842.17 299.12 841.72 296.39 C 841.93 294.59 842.22 292.80 842.52 291.02 Z" />
</g>
<g id="#145ba9ff">
<path fill="#145ba9" opacity="1.00" d=" M 1059.44 291.98 C 1060.55 298.77 1058.67 306.02 1061.25 312.52 C 1061.80 322.44 1061.11 332.37 1061.29 342.30 C 1057.78 343.46 1055.56 339.23 1052.03 339.90 C 926.35 339.92 800.65 339.91 674.97 339.88 C 672.65 339.77 670.97 341.56 669.17 342.73 C 668.41 342.20 667.66 341.68 666.92 341.16 C 666.17 341.79 665.43 342.42 664.69 343.05 C 664.85 336.29 664.56 329.54 664.74 322.78 C 665.47 323.95 666.25 325.11 667.14 326.18 C 668.58 325.85 668.92 324.28 669.67 323.22 C 675.45 322.66 681.25 323.06 687.05 322.98 C 735.39 322.91 783.73 323.11 832.06 322.89 C 832.53 320.02 835.42 319.53 837.80 318.96 C 837.16 320.13 836.52 321.28 835.90 322.45 C 837.45 322.79 839.03 322.93 840.62 322.97 C 840.61 322.03 840.61 321.10 840.61 320.17 C 842.21 320.41 843.80 320.64 845.42 320.91 L 846.28 321.40 L 846.40 322.12 C 855.19 323.66 864.07 324.79 873.01 324.93 C 882.63 325.23 892.63 325.35 901.74 321.79 C 912.07 317.83 917.76 306.48 918.13 295.88 C 918.69 297.50 920.10 298.44 921.40 299.42 C 921.99 301.16 922.07 303.03 922.37 304.85 C 923.22 303.98 924.08 303.11 924.95 302.26 C 926.90 302.98 928.85 303.88 930.96 304.04 C 972.49 304.22 1014.03 303.85 1055.56 304.23 C 1055.90 305.81 1056.25 307.39 1056.63 308.98 C 1056.93 305.63 1057.17 302.29 1057.37 298.94 C 1057.61 301.41 1057.88 303.90 1058.72 306.25 C 1059.45 301.53 1059.15 296.73 1059.44 291.98 Z" />
</g>
<g id="#0556a3ff">
<path fill="#0556a3" opacity="1.00" d=" M 669.17 342.73 C 670.97 341.56 672.65 339.77 674.97 339.88 C 800.65 339.91 926.35 339.92 1052.03 339.90 C 1055.56 339.23 1057.78 343.46 1061.29 342.30 C 1061.28 344.03 1061.28 345.77 1061.28 347.51 C 1057.99 347.21 1055.23 349.37 1052.04 349.45 C 928.71 349.40 805.37 349.38 682.04 349.45 C 676.38 349.89 670.85 348.25 665.20 348.53 C 664.88 346.72 664.65 344.89 664.69 343.05 C 665.43 342.42 666.17 341.79 666.92 341.16 C 667.66 341.68 668.41 342.20 669.17 342.73 Z" />
</g>
</svg>
