<?xml version="1.0" encoding="UTF-8" standalone="yes"?>
<svg xmlns="http://www.w3.org/2000/svg" xmlns:xlink="http://www.w3.org/1999/xlink" width="648px" height="106.66666666666666px" viewBox="0 0 486 80" version="1.1">
  <g id="surface1">
    <path style=" stroke:none;fill-rule:nonzero;fill:rgb(77.254902%,9.411765%,18.431373%);fill-opacity:1;" d="M 39.429688 56.800781 L 10.160156 56.800781 C 9.882812 67.433594 14.59375 72.242188 23.734375 72.242188 C 28.441406 72.242188 33.335938 71.132812 37.121094 69.28125 L 38.046875 77.140625 C 33.429688 79.085938 27.792969 80.101562 22.164062 80.101562 C 7.851562 80.101562 0 72.703125 0 56.523438 C 0 42.652344 7.574219 32.296875 20.964844 32.296875 C 34.074219 32.296875 39.707031 41.265625 39.707031 52.175781 C 39.707031 53.472656 39.617188 55.042969 39.429688 56.800781 M 20.589844 39.601562 C 15.054688 39.601562 11.171875 43.667969 10.34375 49.867188 L 29.828125 49.867188 C 30.011719 43.578125 26.410156 39.601562 20.589844 39.601562 Z M 20.589844 39.601562 "/>
    <path style=" stroke:none;fill-rule:nonzero;fill:rgb(77.254902%,9.411765%,18.431373%);fill-opacity:1;" d="M 52.308594 26.375 C 48.800781 26.375 45.9375 23.601562 45.9375 20.183594 C 45.9375 16.761719 48.800781 13.984375 52.308594 13.984375 C 55.726562 13.984375 58.589844 16.667969 58.589844 20.183594 C 58.589844 23.601562 55.726562 26.375 52.308594 26.375 M 47.320312 33.222656 L 57.207031 33.222656 L 57.207031 79.175781 L 47.320312 79.175781 Z M 47.320312 33.222656 "/>
    <path style=" stroke:none;fill-rule:nonzero;fill:rgb(77.254902%,9.411765%,18.431373%);fill-opacity:1;" d="M 96.632812 79.175781 L 96.632812 49.589844 C 96.632812 43.851562 95.0625 40.523438 89.796875 40.523438 C 82.875 40.523438 77.792969 47.832031 77.792969 56.984375 L 77.792969 79.175781 L 67.914062 79.175781 L 67.914062 33.222656 L 77.332031 33.222656 C 77.332031 35.625 77.148438 39.601562 76.683594 42.191406 L 76.777344 42.285156 C 79.457031 36.367188 84.996094 32.296875 92.753906 32.296875 C 103.1875 32.296875 106.417969 38.863281 106.417969 47 L 106.417969 79.175781 Z M 96.632812 79.175781 "/>
    <path style=" stroke:none;fill-rule:nonzero;fill:rgb(77.254902%,9.411765%,18.431373%);fill-opacity:1;" d="M 123.464844 80.101562 C 120.042969 80.101562 116.628906 79.734375 113.765625 79.175781 L 114.042969 70.761719 C 116.90625 71.59375 120.507812 72.242188 124.019531 72.242188 C 129.375 72.242188 133.066406 69.929688 133.066406 66.136719 C 133.066406 56.894531 112.9375 62.441406 112.9375 46.535156 C 112.9375 38.585938 119.398438 32.296875 131.867188 32.296875 C 134.546875 32.296875 137.683594 32.667969 140.453125 33.128906 L 140.175781 41.171875 C 137.40625 40.339844 134.175781 39.878906 131.21875 39.878906 C 125.769531 39.878906 123.09375 42.097656 123.09375 45.609375 C 123.09375 54.488281 143.40625 49.957031 143.40625 65.210938 C 143.40625 73.8125 135.746094 80.101562 123.464844 80.101562 Z M 123.464844 80.101562 "/>
    <path style=" stroke:none;fill-rule:nonzero;fill:rgb(77.254902%,9.411765%,18.431373%);fill-opacity:1;" d="M 179.328125 23.050781 C 177.667969 22.492188 175.820312 22.21875 174.246094 22.21875 C 170 22.21875 168.0625 24.25 168.0625 29.152344 L 168.0625 33.222656 L 177.484375 33.222656 L 177.484375 44.039062 L 168.0625 44.039062 L 168.0625 79.175781 L 154.027344 79.175781 L 154.027344 44.039062 L 147.007812 44.039062 L 147.007812 33.222656 L 154.027344 33.222656 L 154.027344 29.242188 C 154.027344 17.039062 159.472656 10.84375 172.863281 10.84375 C 175.265625 10.84375 177.847656 11.027344 180.253906 11.582031 Z M 179.328125 23.050781 "/>
    <path style=" stroke:none;fill-rule:nonzero;fill:rgb(77.254902%,9.411765%,18.431373%);fill-opacity:1;" d="M 220.777344 59.667969 L 193.441406 59.667969 C 193.535156 65.769531 197.230469 69.28125 204.800781 69.28125 C 209.328125 69.28125 214.035156 68.355469 218.28125 66.417969 L 219.578125 77.050781 C 214.40625 79.175781 208.214844 80.195312 202.585938 80.195312 C 187.535156 80.195312 179.222656 72.886719 179.222656 56.707031 C 179.222656 42.558594 187.074219 32.109375 201.289062 32.109375 C 215.140625 32.109375 221.238281 41.453125 221.238281 53.472656 C 221.238281 55.414062 221.050781 57.445312 220.777344 59.667969 M 200.921875 42.375 C 196.859375 42.375 193.90625 45.609375 193.535156 50.328125 L 207.386719 50.328125 C 207.570312 45.148438 204.984375 42.375 200.921875 42.375 Z M 200.921875 42.375 "/>
    <path style=" stroke:none;fill-rule:nonzero;fill:rgb(77.254902%,9.411765%,18.431373%);fill-opacity:1;" d="M 237.140625 80.195312 C 233.910156 80.195312 230.585938 79.824219 227.628906 79.453125 L 227.910156 67.988281 C 230.675781 68.820312 234.183594 69.464844 237.515625 69.464844 C 241.113281 69.464844 243.328125 67.988281 243.328125 65.859375 C 243.328125 59.109375 226.429688 62.714844 226.429688 47.460938 C 226.429688 39.136719 233.171875 32.109375 246.746094 32.109375 C 249.332031 32.109375 252.191406 32.480469 254.78125 32.851562 L 254.503906 43.855469 C 252.105469 43.117188 249.148438 42.742188 246.378906 42.742188 C 242.773438 42.742188 241.113281 44.128906 241.113281 46.257812 C 241.113281 51.992188 258.289062 50.238281 258.289062 64.660156 C 258.289062 74.183594 249.976562 80.195312 237.140625 80.195312 Z M 237.140625 80.195312 "/>
    <path style=" stroke:none;fill-rule:nonzero;fill:rgb(77.254902%,9.411765%,18.431373%);fill-opacity:1;" d="M 282.144531 80.195312 C 271.527344 80.195312 268.109375 76.675781 268.109375 65.398438 L 268.109375 44.039062 L 261.183594 44.039062 L 261.183594 33.222656 L 268.109375 33.222656 L 268.109375 19.625 L 282.144531 15.835938 L 282.144531 33.222656 L 292.117188 33.222656 L 292.117188 44.039062 L 282.234375 44.039062 L 282.234375 62.164062 C 282.234375 66.878906 283.4375 68.449219 286.945312 68.449219 C 288.609375 68.449219 290.640625 68.082031 292.117188 67.707031 L 292.117188 78.898438 C 289.074219 79.640625 285.46875 80.195312 282.144531 80.195312 Z M 282.144531 80.195312 "/>
    <path style=" stroke:none;fill-rule:nonzero;fill:rgb(77.254902%,9.411765%,18.431373%);fill-opacity:1;" d="M 307.484375 28.414062 C 302.773438 28.414062 298.898438 24.714844 298.898438 20.089844 C 298.898438 15.46875 302.773438 11.769531 307.484375 11.769531 C 312.285156 11.769531 316.164062 15.46875 316.164062 20.089844 C 316.164062 24.621094 312.285156 28.414062 307.484375 28.414062 M 300.464844 33.222656 L 314.503906 33.222656 L 314.503906 79.175781 L 300.464844 79.175781 Z M 300.464844 33.222656 "/>
    <path style=" stroke:none;fill-rule:nonzero;fill:rgb(77.254902%,9.411765%,18.431373%);fill-opacity:1;" d="M 349.792969 79.175781 L 335.484375 79.175781 L 318.582031 33.222656 L 334.003906 33.222656 L 339.636719 49.492188 C 340.835938 52.917969 342.039062 57.171875 342.964844 60.683594 L 343.148438 60.683594 C 343.886719 57.261719 344.90625 53.378906 346.105469 49.957031 L 351.734375 33.222656 L 366.695312 33.222656 Z M 349.792969 79.175781 "/>
    <path style=" stroke:none;fill-rule:nonzero;fill:rgb(77.254902%,9.411765%,18.431373%);fill-opacity:1;" d="M 393.800781 79.175781 C 393.800781 76.957031 393.800781 74.554688 394.167969 72.242188 L 394.074219 72.242188 C 391.859375 77.050781 386.410156 80.195312 380.039062 80.195312 C 371.265625 80.195312 366.648438 75.015625 366.648438 67.617188 C 366.648438 55.964844 377.914062 50.421875 392.507812 50.421875 L 392.507812 48.664062 C 392.507812 44.875 390.382812 43.023438 384.289062 43.023438 C 380.222656 43.023438 374.683594 44.316406 370.898438 46.351562 L 369.789062 34.703125 C 374.5 33.222656 380.6875 32.019531 386.410156 32.019531 C 402.203125 32.019531 406.632812 37.9375 406.632812 48.480469 L 406.632812 68.265625 C 406.632812 71.59375 406.726562 75.570312 407 79.175781 Z M 392.507812 59.390625 C 382.347656 59.390625 379.949219 62.164062 379.949219 65.488281 C 379.949219 67.800781 381.609375 69.464844 384.5625 69.464844 C 389.273438 69.464844 392.507812 65.210938 392.507812 60.683594 Z M 392.507812 59.390625 "/>
    <path style=" stroke:none;fill-rule:nonzero;fill:rgb(77.254902%,9.411765%,18.431373%);fill-opacity:1;" d="M 413.945312 11.675781 L 427.976562 11.675781 L 427.976562 79.175781 L 413.945312 79.175781 Z M 413.945312 11.675781 "/>
    <path style=" stroke:none;fill-rule:nonzero;fill:rgb(77.254902%,9.411765%,18.431373%);fill-opacity:1;" d="M 461.269531 0 C 474.984375 0 486.113281 11.140625 486.113281 24.878906 C 486.113281 38.621094 474.996094 49.769531 461.269531 49.769531 C 447.53125 49.769531 436.410156 38.621094 436.410156 24.878906 C 436.410156 11.140625 447.53125 0 461.269531 0 M 471.246094 34.964844 L 471.246094 10.046875 L 446.230469 19.039062 L 446.230469 25.226562 L 454.511719 22.234375 L 454.511719 40.953125 Z M 461.269531 3.644531 C 449.550781 3.644531 440.0625 13.148438 440.0625 24.878906 C 440.0625 36.609375 449.550781 46.117188 461.269531 46.117188 C 472.972656 46.117188 482.460938 36.609375 482.460938 24.878906 C 482.460938 13.148438 472.972656 3.644531 461.269531 3.644531 Z M 461.269531 3.644531 "/>
  </g>
</svg>