<?xml version="1.0" encoding="UTF-8" standalone="no"?>
<svg
   xmlns:dc="http://purl.org/dc/elements/1.1/"
   xmlns:cc="http://creativecommons.org/ns#"
   xmlns:rdf="http://www.w3.org/1999/02/22-rdf-syntax-ns#"
   xmlns:svg="http://www.w3.org/2000/svg"
   xmlns="http://www.w3.org/2000/svg"
   viewBox="0 0 409.94666 213.60001"
   height="213.60001"
   width="409.94666"
   xml:space="preserve"
   id="svg2"
   version="1.1"><metadata
     id="metadata8"><rdf:RDF><cc:Work
         rdf:about=""><dc:format>image/svg+xml</dc:format><dc:type
           rdf:resource="http://purl.org/dc/dcmitype/StillImage" /></cc:Work></rdf:RDF></metadata><defs
     id="defs6" /><g
     transform="matrix(1.3333333,0,0,-1.3333333,0,213.6)"
     id="g10"><g
       transform="scale(0.1)"
       id="g12"><path
         id="path14"
         style="fill:#100f0d;fill-opacity:1;fill-rule:nonzero;stroke:none"
         d="m 1779.3,101.75 h 67.62 c 31.98,0.02 72.14,20.852 72.14,77.488 0,56.653 -40.16,77.473 -72.15,77.492 h -67.61 c 23.97,-4.55 43.2,-19.082 43.2,-77.492 0,-58.398 -19.23,-72.906 -43.2,-77.488 z m -6.74,312.039 h -66.95 c -31.65,-0.039 -71.41,-21.141 -71.41,-78.527 0,-57.383 39.76,-78.481 71.43,-78.532 h 66.93 c -23.71,4.641 -42.76,19.34 -42.76,78.532 0,59.168 19.03,73.886 42.76,78.527 z m 252,-156.988 h -113.44 l 129.67,-154.992 h 121.17 z m -244.78,156.988 127.06,-151.891 v 151.891 z m -140.87,-311.98 h 133.65 l -133.65,139.16 z M 2030.3,256.73 h 52.31 c 31.98,0.051 72.15,21.149 72.15,78.532 0,57.367 -51.23,78.488 -83.21,78.508 H 1960.1 c 23.96,-4.622 101.17,0 101.17,-78.508 0,-78.5 -30.97,-78.532 -30.97,-78.532 z m 362.15,1.551 h -96.73 c -82.58,0 -93.97,-32.769 -93.97,-68.191 v -3.41 c 0,-44.68 29.57,-67.352 87.89,-67.352 l 8.35,0.07 c 39.06,0 73.98,24.59 86.89,61.18 5.07,14.301 7.52,39.254 7.52,76.32 h 0.05 z m 22.41,-156.472 h -22.37 l -0.02,44.91 c -20.87,-30.328 -55.69,-49.4807 -93.83,-49.6877 l -9,-0.0704 c -71.1,0 -110.25,31.8791 -110.25,89.7191 v 3.41 c 0,61.769 36.95,90.558 116.33,90.558 h 96.73 l -0.02,47.622 c 0,57.429 -49.91,65.992 -79.66,65.992 h -9.1 c -37.58,0 -81.93,-9.383 -86.06,-52.453 h -22.46 c 3.29,47.621 42.37,74.82 108.52,74.82 h 9.1 c 63.89,0 102.03,-32.981 102.03,-88.289 z m 256.71,78.492 c 5.04,14.258 7.48,39.211 7.48,76.238 0,54.852 -5.63,70.801 -7.48,76.051 -12.93,36.59 -47.82,61.14 -86.86,61.14 h -7.63 c -39.06,0 -73.94,-24.55 -86.85,-61.14 -3.23,-9.102 -7.52,-26.899 -7.52,-76.051 0,-55.027 5.66,-70.988 7.52,-76.238 12.91,-36.563 47.79,-61.16 86.85,-61.16 h 7.63 c 39.04,0 73.93,24.597 86.86,61.16 m 7.56,-33.813 c -20.98,-30.5 -56.07,-49.6794 -94.42,-49.6794 h -7.63 c -48.48,0 -91.86,30.5504 -107.9,76.0624 -3.8,10.649 -8.8,30.899 -8.8,83.668 0,52.012 4.69,71.949 8.8,83.492 16.04,45.481 59.42,76.051 107.9,76.051 h 7.63 c 38.35,0 73.44,-19.191 94.42,-49.672 v 142.5 h 22.33 V 101.711 h -22.33 z m 278.75,247.242 c 39.03,0 73.93,-24.589 86.86,-61.16 1.83,-5.25 7.48,-21.199 7.48,-76.05 0,-37.032 -2.45,-61.961 -7.48,-76.239 -12.93,-36.562 -47.83,-61.14 -86.86,-61.14 h -7.63 c -39.03,0 -73.94,24.578 -86.86,61.14 -1.85,5.27 -7.5,21.207 -7.5,76.239 0,49.171 4.28,66.941 7.5,76.05 12.92,36.571 47.83,61.16 86.86,61.16 z m 0,-296.9214 c 48.49,0 91.84,30.5504 107.91,76.0314 3.77,10.66 8.77,30.93 8.77,83.68 0,52.011 -4.69,71.941 -8.77,83.511 -16.07,45.457 -59.42,76.008 -107.91,76.008 h -7.63 c -48.49,0 -91.83,-30.551 -107.91,-76.008 -4.09,-11.57 -8.77,-31.5 -8.77,-83.511 0,-52.75 5.01,-73.02 8.77,-83.68 16.08,-45.481 59.42,-76.0314 107.91,-76.0314 h 7.63 M 939.84,412.5 c -9.242,2.371 -18.797,3.582 -28.637,3.582 h -7.633 c -38.293,0 -73.343,-19.133 -94.32,-49.551 v 44.891 H 786.914 V 101.73 h 22.336 v 160.149 c 0.305,45.062 4.367,61.973 7.473,70.711 12.914,36.59 47.816,61.14 86.847,61.14 h 7.633 c 9.938,0 19.488,-1.628 28.637,-4.57 z M 2782.6,362.891 v 48.531 h -22.34 V 101.73 h 22.34 z m -0.01,145.961 h -22.35 v -59.661 h 22.35 v 21.118 z M 1010.9,372.609 v 38.813 H 988.563 V 101.73 h 22.337 z m 0,136.243 h -22.353 v -59.661 h 22.353 v 38.688 z M 118.875,280.02 c -56.6562,0 -85.3867,18.402 -85.3867,54.691 0,25.277 8.2226,58.918 79.4177,58.918 h 9.074 c 65.161,0 77.583,-28.16 79.227,-52.328 h 22.356 c -2.114,35.508 -22.407,74.648 -101.583,74.648 h -9.074 c -84.1013,0 -101.7576,-44.187 -101.7576,-81.238 0,-28.789 13.9883,-77.039 107.7266,-77.039 82.551,0 93.684,-36.121 93.684,-71.442 0,-44.55 -29.485,-67.128 -87.645,-67.128 h -14.941 c -58.1527,0 -87.6332,22.578 -87.6332,67.128 L 0,186.23 C 0,128.551 39.0586,96.75 109.973,96.75 h 14.941 c 70.918,0 109.977,31.801 109.977,89.48 0,63.09 -37.942,93.79 -116.016,93.79 m 406.328,52.511 c -2.637,-7.461 -5.976,-20.703 -7.101,-52.152 h 195.621 c -1.321,35.75 -5.614,47.891 -7.114,52.152 -12.921,36.59 -47.828,61.16 -86.886,61.16 h -7.637 c -39.047,0 -73.953,-24.57 -86.883,-61.16 M 737.672,178.27 734.52,169.328 C 719.41,126.539 672.215,96.6719 619.723,96.6719 h -7.637 c -48.488,0 -91.875,30.5581 -107.941,76.0661 -3.766,10.653 -8.79,30.934 -8.79,83.703 0,52.028 4.704,71.957 8.79,83.528 16.066,45.5 59.453,76.07 107.941,76.07 h 7.637 c 48.504,0 91.886,-30.57 107.953,-76.07 3.387,-9.578 7.972,-27.309 8.683,-70.59 l 0.192,-11.348 H 517.695 v -1.59 c 0,-55.043 5.657,-71.011 7.508,-76.269 12.93,-36.582 47.836,-61.152 86.883,-61.152 h 7.637 c 42.504,0 81.91,24.269 93.726,57.742 l 0.543,1.508 z m 645.388,154.261 c -2.64,-7.461 -5.98,-20.703 -7.11,-52.152 h 195.62 c -1.33,35.75 -5.61,47.891 -7.11,52.152 -12.92,36.59 -47.83,61.16 -86.89,61.16 h -7.63 c -39.05,0 -73.96,-24.57 -86.88,-61.16 m 212.46,-154.261 -3.15,-8.942 c -15.09,-42.789 -62.31,-72.6561 -114.8,-72.6561 h -7.63 c -48.5,0 -91.88,30.5581 -107.95,76.0661 -3.76,10.653 -8.78,30.934 -8.78,83.703 0,52.028 4.69,71.957 8.78,83.528 16.07,45.5 59.45,76.07 107.95,76.07 h 7.63 c 48.5,0 91.89,-30.57 107.95,-76.07 3.39,-9.578 7.97,-27.309 8.68,-70.59 l 0.19,-11.348 h -218.84 v -1.59 c 0,-55.043 5.65,-71.011 7.51,-76.269 12.92,-36.582 47.83,-61.152 86.88,-61.152 h 7.63 c 42.5,0 81.91,24.269 93.74,57.742 l 0.54,1.508 z m -317.84,1.949 c 5.05,14.281 7.49,39.211 7.49,76.261 0,54.872 -5.64,70.84 -7.49,76.071 -12.93,36.59 -47.84,61.179 -86.89,61.179 h -7.64 c -39.05,0 -73.96,-24.589 -86.88,-61.179 -3.23,-9.11 -7.51,-26.879 -7.51,-76.071 0,-55.039 5.65,-71.011 7.51,-76.261 12.92,-36.59 47.83,-61.18 86.88,-61.18 h 7.64 c 39.05,0 73.96,24.59 86.89,61.18 m 29.83,231.121 V 159.77 c 0,-52.79 -5,-73.0591 -8.77,-83.7192 C 1282.67,30.5508 1239.28,0 1190.79,0 h -7.64 c -48.17,0 -91.81,25.1914 -110.36,62.4102 h 25.98 c 17.3,-24 49.82,-40.0782 84.38,-40.0782 h 7.64 c 39.05,0 73.96,24.5664 86.89,61.1563 4.39,12.4609 6.82,33.0317 7.36,62.6407 -20.99,-30.328 -56,-49.4181 -94.25,-49.4181 h -7.64 c -48.5,0 -91.89,30.5701 -107.95,76.0701 -3.76,10.66 -8.78,30.93 -8.78,83.699 0,52.032 4.69,71.961 8.78,83.508 16.06,45.5 59.45,76.094 107.95,76.094 h 7.64 c 38.33,0 73.41,-19.152 94.38,-49.613 V 411.34 Z M 485.426,411.23 382.383,101.711 H 347.422 L 244.371,411.23 h 23.52 l 97.011,-291.371 97.016,291.371 h 23.508" /><path
         id="path16"
         style="fill:#3460b6;fill-opacity:1;fill-rule:nonzero;stroke:none"
         d="m 2948.17,986.949 c -69.78,0 -126.36,-56.582 -126.36,-126.375 0,-69.801 56.58,-126.367 126.36,-126.367 69.8,0 126.39,56.566 126.39,126.367 0,69.793 -56.59,126.375 -126.39,126.375 z M 0,742.613 H 590.094 V 913.176 H 197.836 v 185.684 h 375.402 v 163.73 H 197.836 v 151.98 h 392.258 v 170.55 H 0 Z M 1448.77,1585.12 H 1193.29 L 889.023,1262.6 v 322.52 H 691.188 V 742.613 H 889.023 V 1092.02 L 1193.29,742.613 h 255.48 l -398.22,438.107 z m 587.29,-421.25 c 0,128.73 -104.71,233.45 -233.45,233.45 -128.71,0 -233.44,-104.72 -233.44,-233.45 0,-128.73 104.73,-233.44 233.44,-233.44 128.74,0 233.45,104.71 233.45,233.44 z m 204.67,0 c 0,-241.956 -196.15,-438.097 -438.12,-438.097 -241.94,0 -438.09,196.141 -438.09,438.097 0,241.95 196.15,438.1 438.09,438.1 241.97,0 438.12,-196.15 438.12,-438.1 z m 665.33,421.25 V 1414.57 H 2667.29 V 742.613 h -204.66 v 671.957 h -238.77 v 170.55 h 682.2" /></g></g></svg>