<?xml version="1.0" encoding="UTF-8" ?>
<!DOCTYPE svg PUBLIC "-//W3C//DTD SVG 1.1//EN" "http://www.w3.org/Graphics/SVG/1.1/DTD/svg11.dtd">
<svg width="1550pt" height="135pt" viewBox="0 0 1550 135" version="1.1" xmlns="http://www.w3.org/2000/svg">
<g id="#ffffffff">
</g>
<g id="#370505ff">
<path fill="#370505" opacity="1.00" d=" M 62.93 0.00 L 70.47 0.00 C 86.49 1.16 102.82 7.14 113.91 19.11 C 119.40 24.69 121.26 33.62 117.86 40.77 C 113.47 50.08 100.41 54.08 91.76 48.28 C 85.80 44.29 80.07 39.34 72.77 38.12 C 58.92 35.41 44.29 44.37 39.81 57.63 C 35.36 69.45 39.79 83.66 49.89 91.14 C 58.22 97.58 70.18 99.34 79.78 94.76 C 84.70 92.59 88.73 88.97 93.30 86.21 C 102.40 80.87 115.60 85.75 119.16 95.66 C 121.76 102.72 119.60 110.93 114.33 116.19 C 103.00 128.06 86.54 133.84 70.44 135.00 L 62.70 135.00 C 48.28 133.92 34.18 128.33 23.32 118.71 C 9.57 106.85 1.12 89.30 0.00 71.20 L 0.00 63.60 C 1.21 45.58 9.65 28.14 23.35 16.32 C 34.26 6.66 48.43 1.01 62.93 0.00 Z" />
<path fill="#370505" opacity="1.00" d=" M 386.56 6.76 C 399.41 4.56 412.96 6.57 424.60 12.46 C 437.95 19.14 448.73 30.80 454.27 44.67 C 460.25 59.41 460.14 76.52 453.91 91.17 C 447.88 105.62 436.08 117.52 421.73 123.75 C 409.01 129.35 394.39 130.45 380.97 126.87 C 366.14 122.99 352.92 113.34 344.69 100.40 C 337.21 88.81 333.89 74.61 335.43 60.90 C 336.86 47.08 343.26 33.88 353.09 24.08 C 362.10 15.03 373.95 8.85 386.56 6.76 M 388.50 29.68 C 372.73 33.23 360.59 47.87 359.35 63.89 C 358.18 75.82 362.79 88.18 371.64 96.30 C 379.14 103.37 389.69 107.09 399.98 106.15 C 409.18 105.41 417.96 100.97 424.17 94.17 C 432.34 85.44 436.09 72.81 434.02 61.03 C 432.17 49.47 424.80 38.95 414.54 33.31 C 406.71 28.91 397.23 27.61 388.50 29.68 Z" />
<path fill="#370505" opacity="1.00" d=" M 1056.11 6.14 C 1068.23 4.68 1080.78 6.87 1091.63 12.49 C 1104.92 19.29 1115.58 31.06 1120.99 44.98 C 1126.92 60.01 1126.63 77.38 1120.15 92.19 C 1114.03 106.38 1102.35 118.05 1088.17 124.18 C 1073.68 130.54 1056.72 130.98 1041.91 125.42 C 1028.93 120.62 1017.73 111.24 1010.64 99.36 C 1003.39 87.31 1000.52 72.74 1002.52 58.84 C 1004.47 44.54 1011.68 31.04 1022.44 21.43 C 1031.73 13.03 1043.66 7.60 1056.11 6.14 M 1055.53 22.70 C 1040.06 25.48 1026.79 37.16 1021.57 51.90 C 1016.65 65.24 1018.41 80.82 1026.29 92.66 C 1034.00 104.63 1047.67 112.64 1061.97 112.99 C 1075.32 113.57 1088.64 107.51 1097.27 97.36 C 1105.58 87.78 1109.61 74.63 1107.99 62.04 C 1106.43 48.59 1098.49 36.07 1087.04 28.86 C 1077.81 22.93 1066.32 20.67 1055.53 22.70 Z" />
<path fill="#370505" opacity="1.00" d=" M 1354.07 6.16 C 1371.44 3.94 1389.61 9.60 1402.61 21.35 C 1415.78 32.97 1423.57 50.42 1423.31 68.00 C 1423.35 85.75 1415.13 103.26 1401.53 114.66 C 1388.30 126.03 1370.09 131.22 1352.84 128.68 C 1334.93 126.27 1318.46 115.40 1309.10 99.97 C 1298.89 83.57 1297.18 62.32 1304.43 44.45 C 1312.44 23.95 1332.16 8.60 1354.07 6.16 M 1353.51 22.72 C 1332.82 26.35 1316.76 46.12 1316.92 67.04 C 1316.33 86.70 1330.07 105.76 1349.02 111.19 C 1365.90 116.51 1385.39 110.12 1396.26 96.27 C 1408.07 82.06 1409.73 60.55 1400.27 44.69 C 1391.27 28.57 1371.74 19.00 1353.51 22.72 Z" />
<path fill="#370505" opacity="1.00" d=" M 191.47 17.09 C 191.29 13.34 193.32 9.31 197.11 8.22 C 200.97 7.22 205.05 7.49 208.99 7.82 C 212.61 8.22 215.32 10.97 217.21 13.86 C 227.61 29.13 237.96 44.42 248.38 59.68 C 259.27 43.77 270.08 27.79 281.06 11.94 C 284.82 6.48 292.22 7.46 297.96 7.79 C 302.58 8.15 305.79 12.65 305.44 17.12 C 305.53 50.42 305.47 83.72 305.47 117.01 C 305.76 121.10 303.68 125.62 299.44 126.70 C 295.72 127.52 291.76 127.48 288.03 126.74 C 284.17 125.81 281.78 121.88 281.88 118.04 C 281.73 95.74 281.88 73.43 281.81 51.13 C 274.83 61.41 267.93 71.74 260.94 82.01 C 258.99 84.91 256.56 88.00 252.91 88.64 C 249.91 89.11 246.81 89.12 243.82 88.60 C 240.25 87.91 237.88 84.87 235.96 82.03 C 228.96 71.74 222.05 61.39 215.06 51.09 C 215.02 73.42 215.13 95.75 215.01 118.07 C 215.20 122.59 211.64 126.82 207.07 127.09 C 202.96 127.26 198.25 127.91 194.72 125.31 C 192.16 123.43 191.38 120.09 191.46 117.08 C 191.47 83.75 191.44 50.41 191.47 17.09 Z" />
<path fill="#370505" opacity="1.00" d=" M 490.00 11.15 C 491.97 8.28 495.68 7.50 498.97 7.58 C 511.32 7.57 523.68 7.58 536.04 7.58 C 545.62 7.46 555.14 11.23 562.13 17.77 C 571.41 26.29 576.25 39.68 573.68 52.12 C 571.66 61.86 565.15 70.21 556.95 75.62 C 562.61 80.52 566.65 87.12 568.74 94.30 C 570.85 101.55 572.99 108.79 575.01 116.07 C 575.84 118.91 575.86 122.39 573.50 124.54 C 569.95 128.05 564.56 127.22 560.03 127.17 C 556.32 127.14 552.98 124.49 551.95 120.96 C 549.70 113.80 547.92 106.49 545.73 99.31 C 543.24 91.42 536.38 84.79 528.04 83.66 C 522.70 83.04 517.31 83.49 511.95 83.36 C 511.87 94.93 512.05 106.50 511.87 118.07 C 512.04 122.55 508.63 126.89 504.02 127.10 C 499.69 127.27 494.61 127.97 491.09 124.85 C 488.60 122.66 488.22 119.14 488.26 116.02 C 488.26 84.36 488.28 52.69 488.26 21.03 C 488.32 17.71 487.95 14.01 490.00 11.15 M 511.95 29.87 C 511.94 40.27 511.94 50.66 511.94 61.06 C 519.96 61.02 527.97 61.14 535.99 61.00 C 543.45 60.88 549.82 54.30 550.18 46.93 C 551.12 38.67 544.45 30.21 535.99 29.95 C 527.98 29.74 519.96 29.92 511.95 29.87 Z" />
<path fill="#370505" opacity="1.00" d=" M 610.83 9.90 C 613.29 7.63 616.83 7.56 620.00 7.57 C 638.01 7.63 656.02 7.51 674.02 7.62 C 678.42 7.42 682.91 10.49 683.29 15.08 C 683.59 19.12 684.09 23.91 681.09 27.13 C 678.53 29.89 674.49 29.93 671.02 29.88 C 657.88 29.85 644.75 29.86 631.61 29.88 C 631.60 38.75 631.61 47.63 631.61 56.51 C 643.39 56.57 655.17 56.44 666.96 56.56 C 671.35 56.36 675.84 59.43 676.22 64.01 C 676.52 68.04 677.04 72.81 674.08 76.04 C 671.52 78.80 667.47 78.87 663.99 78.82 C 653.20 78.79 642.40 78.80 631.61 78.81 C 631.60 87.52 631.60 96.23 631.61 104.94 C 646.11 104.99 660.61 104.84 675.11 105.01 C 679.15 104.98 683.24 107.70 683.86 111.86 C 684.30 116.11 684.91 121.28 681.70 124.66 C 679.19 127.21 675.38 127.28 672.05 127.25 C 653.70 127.18 635.35 127.33 617.00 127.18 C 612.05 127.35 607.80 123.00 608.05 118.07 C 607.93 84.71 608.04 51.35 607.99 17.99 C 607.93 15.09 608.54 11.90 610.83 9.90 Z" />
<path fill="#370505" opacity="1.00" d=" M 757.66 13.97 C 757.22 10.34 760.44 7.13 764.08 7.59 C 784.05 7.60 804.02 7.51 823.99 7.64 C 827.88 7.52 830.00 11.53 829.56 15.00 C 830.10 18.71 828.41 23.57 823.94 23.41 C 807.36 23.58 790.77 23.43 774.19 23.48 C 774.17 35.53 774.17 47.59 774.19 59.64 C 788.12 59.67 802.05 59.60 815.98 59.67 C 818.96 59.48 821.75 61.86 821.85 64.88 C 821.95 67.58 822.35 70.57 820.95 73.02 C 819.75 75.05 817.25 75.58 815.06 75.54 C 801.43 75.55 787.81 75.53 774.18 75.55 C 774.18 87.54 774.16 99.53 774.19 111.52 C 790.77 111.53 807.35 111.48 823.94 111.54 C 827.63 111.10 830.79 114.40 830.36 118.06 C 830.95 121.92 829.77 127.42 824.88 127.36 C 804.61 127.50 784.33 127.40 764.05 127.41 C 760.41 127.85 757.21 124.62 757.66 120.99 C 757.63 85.32 757.63 49.64 757.66 13.97 Z" />
<path fill="#370505" opacity="1.00" d=" M 862.73 14.05 C 862.44 10.95 864.69 7.68 867.98 7.67 C 872.45 7.60 878.24 6.55 881.15 10.90 C 894.05 29.57 906.57 48.49 919.47 67.15 C 931.23 49.73 943.08 32.37 954.86 14.96 C 956.65 12.47 958.13 9.36 961.14 8.14 C 964.31 7.22 967.70 7.57 970.97 7.67 C 976.72 8.05 976.35 14.83 976.12 19.02 C 976.10 53.00 976.14 86.99 976.10 120.97 C 976.29 123.66 974.73 126.60 971.94 127.17 C 969.32 127.58 966.64 127.54 964.02 127.24 C 961.07 126.80 959.32 123.77 959.59 120.95 C 959.57 92.60 959.59 64.24 959.58 35.88 C 949.26 51.08 939.04 66.36 928.74 81.57 C 926.17 87.03 919.34 87.47 914.27 85.84 C 912.02 84.78 910.75 82.54 909.41 80.58 C 899.39 65.69 889.36 50.81 879.32 35.94 C 879.26 64.27 879.34 92.60 879.28 120.93 C 879.72 124.56 876.58 127.83 872.93 127.41 C 868.89 127.97 862.81 127.26 862.80 121.96 C 862.59 86.00 862.73 50.02 862.73 14.05 Z" />
<path fill="#370505" opacity="1.00" d=" M 1140.89 14.03 C 1140.56 10.56 1143.44 7.25 1147.03 7.60 C 1172.33 7.57 1197.63 7.56 1222.94 7.61 C 1225.99 7.35 1228.85 9.82 1228.92 12.91 C 1228.99 15.77 1229.52 19.10 1227.61 21.52 C 1225.78 23.75 1222.63 23.46 1220.07 23.50 C 1211.12 23.46 1202.18 23.49 1193.25 23.48 C 1193.21 55.99 1193.27 88.50 1193.22 121.01 C 1193.41 123.70 1191.82 126.61 1189.04 127.18 C 1186.09 127.53 1183.00 127.72 1180.12 126.95 C 1177.28 125.94 1176.46 122.69 1176.64 119.99 C 1176.64 87.82 1176.65 55.65 1176.64 23.48 C 1166.45 23.40 1156.25 23.64 1146.07 23.37 C 1141.33 23.21 1140.36 17.78 1140.89 14.03 Z" />
<path fill="#370505" opacity="1.00" d=" M 1260.39 8.41 C 1263.03 7.11 1266.15 7.60 1269.01 7.67 C 1272.27 7.71 1274.46 10.97 1274.21 14.04 C 1274.26 49.69 1274.26 85.35 1274.21 121.00 C 1274.56 124.54 1271.55 127.81 1267.94 127.41 C 1263.89 127.95 1257.77 127.33 1257.73 122.01 C 1257.52 86.38 1257.71 50.73 1257.64 15.09 C 1257.52 12.63 1257.97 9.67 1260.39 8.41 Z" />
<path fill="#370505" opacity="1.00" d=" M 1451.67 13.97 C 1451.47 11.22 1453.13 8.23 1456.03 7.80 C 1460.96 7.39 1467.41 6.52 1470.45 11.47 C 1491.51 40.62 1512.40 69.90 1533.45 99.07 C 1533.49 70.71 1533.42 42.35 1533.48 13.99 C 1533.29 11.19 1534.97 8.14 1537.97 7.77 C 1542.36 7.17 1549.28 6.81 1550.00 12.69 L 1550.00 122.57 C 1549.42 124.96 1547.62 127.23 1545.00 127.30 C 1540.27 127.57 1534.21 128.35 1531.31 123.65 C 1510.21 94.47 1489.29 65.16 1468.25 35.95 C 1468.23 63.96 1468.24 91.97 1468.24 119.97 C 1468.34 122.63 1467.65 125.88 1464.85 126.91 C 1462.00 127.73 1458.95 127.54 1456.06 127.21 C 1453.12 126.78 1451.46 123.75 1451.67 120.98 C 1451.62 85.31 1451.62 49.64 1451.67 13.97 Z" />
</g>
</svg>
