<?xml version="1.0" encoding="UTF-8" standalone="yes"?>
<svg xmlns="http://www.w3.org/2000/svg" xmlns:xlink="http://www.w3.org/1999/xlink" width="553.3333333333333px" height="106.66666666666666px" viewBox="0 0 415 80" version="1.1">
  <g id="surface1">
    <path style=" stroke:none;fill-rule:nonzero;fill:rgb(32.941176%,32.54902%,32.54902%);fill-opacity:0.560784;" d="M 16.269531 7.480469 C 19.144531 7.394531 22.023438 7.433594 24.898438 7.34375 C 141.101562 7.351562 257.300781 7.34375 373.5 7.347656 C 381.914062 7.359375 390.339844 7.292969 398.75 7.476562 C 397.648438 7.992188 396.382812 8.160156 395.203125 7.832031 C 380.628906 7.957031 366.042969 7.847656 351.460938 7.886719 C 248.136719 7.875 144.804688 7.878906 41.480469 7.882812 C 34.257812 7.871094 27.027344 7.9375 19.800781 7.832031 C 18.625 8.132812 17.339844 8.089844 16.269531 7.480469 Z M 16.269531 7.480469 "/>
    <path style=" stroke:none;fill-rule:nonzero;fill:rgb(8.627451%,9.803922%,15.294118%);fill-opacity:1;" d="M 12.617188 8.171875 C 12.488281 7.6875 13.660156 7.539062 13.675781 8.050781 C 13.359375 8.261719 13.003906 8.304688 12.617188 8.171875 Z M 12.617188 8.171875 "/>
    <path style=" stroke:none;fill-rule:nonzero;fill:rgb(8.627451%,9.803922%,15.294118%);fill-opacity:1;" d="M 400.398438 8.011719 C 400.703125 7.511719 402.113281 7.699219 402.375 8.183594 C 401.769531 8.238281 401.160156 8.257812 400.582031 8.109375 Z M 400.398438 8.011719 "/>
    <path style=" stroke:none;fill-rule:nonzero;fill:rgb(8.627451%,9.803922%,15.294118%);fill-opacity:1;" d="M 8.792969 66.132812 C 10.046875 66.066406 11.203125 66.570312 12.171875 67.335938 C 13.207031 68.171875 14.542969 68.535156 15.515625 69.457031 C 14.640625 69.429688 13.773438 69.296875 12.914062 69.140625 C 11.394531 68.371094 9.808594 67.550781 8.792969 66.132812 Z M 8.792969 66.132812 "/>
    <path style=" stroke:none;fill-rule:nonzero;fill:rgb(8.627451%,9.803922%,15.294118%);fill-opacity:1;" d="M 23.632812 71.921875 C 27.464844 71.851562 31.292969 71.886719 35.128906 71.957031 C 40.335938 71.832031 45.546875 71.902344 50.757812 71.898438 C 116.945312 71.890625 183.132812 71.902344 249.320312 71.886719 C 279.015625 71.910156 308.714844 71.855469 338.410156 71.921875 C 356.066406 71.902344 373.726562 71.851562 391.382812 71.921875 C 390.238281 72.257812 389.035156 72.097656 387.867188 72.132812 C 382.222656 72.144531 376.582031 72.097656 370.945312 72.132812 C 367.640625 72.042969 364.324219 72.285156 361.039062 71.914062 C 360.089844 71.855469 359.152344 72.21875 358.210938 72.042969 C 356.5 71.792969 354.769531 71.9375 353.066406 72.128906 C 350.515625 72.128906 347.964844 72.164062 345.417969 72.113281 C 343.609375 71.8125 341.78125 71.902344 339.976562 72.128906 C 319.96875 72.097656 299.980469 72.121094 279.964844 72.117188 C 279 72.121094 278.03125 72.152344 277.078125 71.992188 C 274.226562 72.125 271.34375 72.179688 268.480469 72.046875 C 264.125 72.222656 259.75 72.097656 255.390625 72.097656 C 253.375 71.710938 251.34375 72.429688 249.328125 71.925781 C 246.679688 72.253906 244.003906 72.105469 241.339844 72.132812 C 236.226562 72.085938 231.121094 72.132812 226.011719 72.097656 C 222.496094 72.242188 218.980469 71.59375 215.472656 72.101562 C 211.113281 72.195312 206.753906 72.078125 202.390625 72.132812 C 200.253906 72.105469 198.109375 72.25 195.984375 71.9375 C 193.753906 71.945312 191.515625 71.824219 189.300781 72.128906 C 184.941406 72.113281 180.570312 72.203125 176.214844 72.050781 C 170.566406 72.292969 164.925781 71.863281 159.292969 72.132812 C 151.640625 72.019531 143.980469 72.199219 136.316406 72.097656 C 132.488281 71.585938 128.65625 72.269531 124.820312 72.132812 C 120.453125 72.265625 116.082031 71.566406 111.726562 72.128906 C 109.074219 72.113281 106.417969 72.195312 103.769531 72.074219 C 102.59375 71.777344 101.417969 72.183594 100.238281 72.125 C 87.257812 72.089844 74.277344 72.15625 61.300781 72.113281 C 59.605469 71.8125 57.878906 71.910156 56.179688 72.128906 C 51.082031 72.070312 45.964844 72.316406 40.878906 71.914062 C 36.101562 72.324219 31.289062 72.054688 26.496094 72.132812 C 25.539062 72.113281 24.558594 72.214844 23.632812 71.921875 Z M 23.632812 71.921875 "/>
    <path style=" stroke:none;fill-rule:nonzero;fill:rgb(90.196078%,90.588235%,93.333333%);fill-opacity:1;" d="M 10.523438 8.273438 C 11.1875 7.976562 11.921875 8.066406 12.617188 8.171875 C 13.003906 8.304688 13.359375 8.261719 13.675781 8.050781 L 14.175781 7.640625 L 14.207031 8.269531 C 14.386719 8.152344 14.75 7.921875 14.925781 7.804688 C 15.230469 7.808594 15.832031 7.808594 16.136719 7.808594 L 16.179688 8.097656 C 18.765625 8.078125 21.347656 7.824219 23.9375 7.910156 C 139.496094 7.898438 255.0625 7.902344 370.625 7.910156 C 380.023438 7.980469 389.433594 7.742188 398.824219 8.101562 L 398.875 7.777344 C 399.410156 7.734375 399.917969 7.816406 400.398438 8.011719 L 400.582031 8.109375 C 401.160156 8.257812 401.769531 8.238281 402.375 8.183594 C 403.011719 8.113281 403.660156 8.179688 404.304688 8.21875 L 404.335938 8.324219 C 403.824219 8.296875 403.320312 8.285156 402.820312 8.289062 C 403.265625 9.019531 404.066406 9.390625 404.757812 9.84375 L 404.382812 9.800781 C 402.570312 9.523438 400.746094 9.316406 398.910156 9.335938 C 395.550781 8.996094 392.171875 9.183594 388.804688 9.128906 C 334.75 9.117188 280.691406 9.140625 226.640625 9.148438 C 158.546875 9.15625 90.449219 9.105469 22.359375 9.132812 C 20.277344 9.179688 18.1875 9.070312 16.113281 9.347656 C 15.097656 9.378906 14.074219 9.398438 13.054688 9.464844 C 11.992188 9.546875 10.957031 9.816406 9.925781 10.066406 C 10.925781 9.394531 11.992188 8.84375 13.0625 8.289062 C 12.21875 8.199219 11.367188 8.214844 10.523438 8.273438 Z M 10.523438 8.273438 "/>
    <path style=" stroke:none;fill-rule:nonzero;fill:rgb(40%,38.823529%,38.823529%);fill-opacity:1;" d="M 8.925781 9.167969 C 9.367188 8.730469 9.957031 8.496094 10.523438 8.273438 C 11.367188 8.214844 12.21875 8.199219 13.0625 8.289062 C 11.992188 8.84375 10.925781 9.394531 9.925781 10.066406 C 10.957031 9.816406 11.992188 9.546875 13.054688 9.464844 C 13.144531 9.644531 13.316406 10.007812 13.402344 10.1875 C 12.65625 10.484375 11.941406 10.851562 11.234375 11.222656 C 11.171875 11.207031 11.046875 11.175781 10.988281 11.160156 C 10.121094 10.902344 9.316406 11.269531 8.632812 11.777344 L 8.128906 11.96875 C 8.660156 11.320312 9.210938 10.683594 9.71875 10.023438 C 8.917969 10.410156 8.199219 10.941406 7.519531 11.511719 C 7.886719 10.914062 8.289062 10.339844 8.707031 9.78125 C 8.777344 9.574219 8.847656 9.371094 8.925781 9.167969 Z M 8.925781 9.167969 "/>
    <path style=" stroke:none;fill-rule:nonzero;fill:rgb(40%,38.823529%,38.823529%);fill-opacity:1;" d="M 393.835938 71.832031 C 396.296875 71.503906 398.785156 71.738281 401.261719 71.632812 C 398.792969 71.804688 396.304688 71.9375 393.835938 71.832031 Z M 393.835938 71.832031 "/>
    <path style=" stroke:none;fill-rule:nonzero;fill:rgb(51.764706%,51.372549%,52.156863%);fill-opacity:1;" d="M 404.335938 8.324219 C 405.464844 8.5 406.421875 9.238281 407.179688 10.058594 C 409.097656 12.109375 410.019531 14.925781 410.191406 17.691406 C 410.449219 25.957031 410.21875 34.234375 410.308594 42.503906 C 410.273438 47.078125 410.304688 51.644531 410.300781 56.21875 C 410.308594 58.042969 410.09375 59.859375 410.222656 61.679688 C 410.230469 62.339844 410.070312 62.980469 409.898438 63.609375 C 409.4375 61.746094 410.222656 59.839844 409.671875 58 C 409.542969 57.148438 409.484375 56.285156 409.453125 55.421875 C 409.34375 55.433594 409.128906 55.457031 409.019531 55.46875 C 409.105469 43.800781 408.964844 32.128906 409.078125 20.460938 C 409.308594 17.359375 408.777344 14.011719 406.796875 11.519531 C 406.191406 10.699219 405.253906 10.261719 404.382812 9.800781 L 404.757812 9.84375 C 404.066406 9.390625 403.265625 9.019531 402.820312 8.289062 C 403.320312 8.285156 403.824219 8.296875 404.335938 8.324219 Z M 404.335938 8.324219 "/>
    <path style=" stroke:none;fill-rule:nonzero;fill:rgb(53.72549%,54.117647%,57.254902%);fill-opacity:1;" d="M 8.59375 9.199219 C 8.675781 9.1875 8.84375 9.175781 8.925781 9.167969 C 8.847656 9.371094 8.777344 9.574219 8.707031 9.78125 C 8.289062 10.339844 7.886719 10.914062 7.519531 11.511719 C 8.199219 10.941406 8.917969 10.410156 9.71875 10.023438 C 9.210938 10.683594 8.660156 11.320312 8.128906 11.96875 L 8.632812 11.777344 C 7.160156 14.074219 6.488281 16.78125 6.519531 19.492188 C 6.507812 32.691406 6.503906 45.894531 6.515625 59.097656 C 6.488281 61.578125 6.75 64.179688 7.941406 66.394531 C 8.007812 66.484375 8.144531 66.667969 8.210938 66.757812 C 8.25 66.929688 8.324219 67.269531 8.359375 67.4375 C 7.957031 67.179688 7.554688 66.921875 7.144531 66.667969 C 7.949219 68.371094 9.511719 69.808594 11.46875 69.902344 C 10.992188 69.992188 10.515625 70.097656 10.039062 70.199219 C 9.53125 70.042969 9.039062 69.617188 8.488281 69.804688 L 8.382812 69.824219 C 7.101562 68.628906 6.105469 67.121094 5.632812 65.429688 C 6.035156 65.859375 6.417969 66.304688 6.804688 66.753906 C 6.914062 66.664062 7.140625 66.492188 7.257812 66.402344 C 6 64.082031 5.8125 61.378906 5.8125 58.792969 C 5.84375 48.144531 5.816406 37.492188 5.789062 26.84375 C 5.667969 25.078125 6.054688 23.238281 5.40625 21.542969 C 5.316406 20.734375 5.273438 19.921875 5.261719 19.109375 C 5.269531 18.578125 5.261719 18.007812 4.847656 17.609375 C 5.066406 15.484375 5.585938 13.332031 6.753906 11.515625 C 7.265625 10.660156 8.039062 10.011719 8.59375 9.199219 Z M 8.59375 9.199219 "/>
    <path style=" stroke:none;fill-rule:nonzero;fill:rgb(41.568627%,39.607843%,40.784314%);fill-opacity:1;" d="M 16.113281 9.347656 C 18.1875 9.070312 20.277344 9.179688 22.359375 9.132812 C 90.449219 9.105469 158.546875 9.15625 226.640625 9.148438 C 280.691406 9.140625 334.75 9.117188 388.804688 9.128906 C 392.171875 9.183594 395.550781 8.996094 398.910156 9.335938 C 395.664062 9.640625 392.402344 9.398438 389.148438 9.476562 C 337.003906 9.4375 284.863281 9.472656 232.722656 9.464844 C 162.390625 9.484375 92.054688 9.445312 21.722656 9.476562 C 19.851562 9.472656 17.980469 9.574219 16.113281 9.347656 Z M 16.113281 9.347656 "/>
    <path style=" stroke:none;fill-rule:nonzero;fill:rgb(41.568627%,39.607843%,40.784314%);fill-opacity:1;" d="M 8.148438 65.273438 L 8.171875 65.207031 C 8.375 65.515625 8.578125 65.828125 8.792969 66.132812 C 9.808594 67.550781 11.394531 68.371094 12.914062 69.140625 C 11.832031 69.09375 10.65625 69.132812 9.726562 68.503906 C 9.195312 67.945312 8.742188 67.320312 8.210938 66.757812 C 8.144531 66.667969 8.007812 66.484375 7.941406 66.394531 C 8.007812 66.019531 8.078125 65.644531 8.148438 65.273438 Z M 8.148438 65.273438 "/>
    <path style=" stroke:none;fill-rule:nonzero;fill:rgb(27.45098%,26.666667%,26.666667%);fill-opacity:1;" d="M 13.054688 9.464844 C 14.074219 9.398438 15.097656 9.378906 16.113281 9.347656 C 17.980469 9.574219 19.851562 9.472656 21.722656 9.476562 C 92.054688 9.445312 162.390625 9.484375 232.722656 9.464844 C 284.863281 9.472656 337.003906 9.4375 389.148438 9.476562 C 392.402344 9.398438 395.664062 9.640625 398.910156 9.335938 C 400.746094 9.316406 402.570312 9.523438 404.382812 9.800781 C 405.253906 10.261719 406.191406 10.699219 406.796875 11.519531 C 408.777344 14.011719 409.308594 17.359375 409.078125 20.460938 C 409.011719 18.78125 408.859375 17.058594 408.179688 15.5 C 407.882812 14.78125 407.480469 14.113281 407.09375 13.449219 C 406.550781 12.308594 405.96875 11.03125 404.753906 10.484375 C 404.03125 10.105469 403.210938 10.34375 402.449219 10.359375 L 402.179688 10.300781 C 401.875 10.230469 401.578125 10.164062 401.285156 10.097656 C 398.199219 9.886719 395.097656 10.070312 392.003906 10.007812 C 371.429688 10.03125 350.847656 9.9375 330.265625 10.046875 C 261.148438 9.96875 192.03125 10.027344 122.910156 9.992188 C 121.269531 9.972656 119.632812 9.972656 117.992188 9.992188 C 84.828125 10.03125 51.664062 9.992188 18.503906 9.996094 C 16.800781 10.019531 15.085938 9.902344 13.402344 10.1875 C 13.316406 10.007812 13.144531 9.644531 13.054688 9.464844 Z M 13.054688 9.464844 "/>
    <path style=" stroke:none;fill-rule:nonzero;fill:rgb(11.764706%,23.137255%,56.470588%);fill-opacity:1;" d="M 13.402344 10.1875 C 15.085938 9.902344 16.800781 10.019531 18.503906 9.996094 C 51.664062 9.992188 84.828125 10.03125 117.992188 9.992188 C 117.84375 10.882812 117.714844 11.773438 117.679688 12.675781 C 117.679688 12.925781 117.675781 13.429688 117.671875 13.683594 L 117.558594 13.683594 C 103.585938 13.800781 89.609375 13.832031 75.636719 13.761719 C 65.117188 13.746094 54.59375 13.859375 44.074219 13.832031 C 40.234375 13.890625 36.40625 13.597656 32.566406 13.601562 C 29.371094 13.621094 26.179688 13.328125 22.992188 13.152344 C 19.046875 12.726562 15.03125 12.488281 11.234375 11.222656 C 11.941406 10.851562 12.65625 10.484375 13.402344 10.1875 Z M 13.402344 10.1875 "/>
    <path style=" stroke:none;fill-rule:nonzero;fill:rgb(77.647059%,77.647059%,77.647059%);fill-opacity:1;" d="M 117.992188 9.992188 C 119.632812 9.972656 121.269531 9.972656 122.910156 9.992188 C 122.839844 11.117188 122.828125 12.25 122.804688 13.378906 L 122.714844 13.570312 C 122.640625 13.144531 122.566406 12.722656 122.492188 12.296875 C 120.894531 12.535156 119.273438 12.429688 117.679688 12.675781 C 117.714844 11.773438 117.84375 10.882812 117.992188 9.992188 Z M 117.992188 9.992188 "/>
    <path style=" stroke:none;fill-rule:nonzero;fill:rgb(100%,99.607843%,99.607843%);fill-opacity:1;" d="M 122.910156 9.992188 C 192.03125 10.027344 261.148438 9.96875 330.265625 10.046875 C 332.425781 10.460938 334.628906 10.195312 336.808594 10.261719 C 339.15625 10.324219 341.515625 10.117188 343.855469 10.386719 C 342.050781 10.695312 340.214844 10.515625 338.394531 10.5625 C 323.921875 10.582031 309.445312 10.605469 294.972656 10.628906 C 293.582031 10.582031 292.183594 10.605469 290.816406 10.863281 C 287.207031 11.1875 283.574219 11.164062 279.960938 11.5 C 277.585938 11.597656 275.207031 11.417969 272.835938 11.644531 C 271.464844 11.796875 270.085938 11.566406 268.714844 11.6875 C 266.695312 11.910156 264.664062 11.691406 262.640625 11.761719 C 256.285156 12.042969 249.90625 11.558594 243.5625 12.148438 C 237.199219 12.199219 230.828125 12.054688 224.46875 12.328125 C 222.003906 12.238281 219.535156 12.238281 217.074219 12.429688 C 207.8125 12.585938 198.539062 12.300781 189.292969 12.746094 C 183.335938 12.746094 177.378906 12.835938 171.421875 12.796875 C 168.644531 12.890625 165.859375 12.691406 163.09375 12.988281 C 149.871094 13.226562 136.628906 12.957031 123.40625 13.261719 C 123.199219 13.574219 123 13.886719 122.800781 14.203125 C 122.800781 13.996094 122.804688 13.585938 122.804688 13.378906 C 122.828125 12.25 122.839844 11.117188 122.910156 9.992188 Z M 122.910156 9.992188 "/>
    <path style=" stroke:none;fill-rule:nonzero;fill:rgb(93.72549%,93.72549%,93.72549%);fill-opacity:1;" d="M 330.265625 10.046875 C 350.847656 9.9375 371.429688 10.03125 392.003906 10.007812 C 395.097656 10.070312 398.199219 9.886719 401.285156 10.097656 C 401.417969 10.851562 401.472656 11.613281 401.488281 12.375 C 401.96875 12.558594 402.449219 12.746094 402.941406 12.929688 C 402.726562 13.722656 402.234375 14.65625 401.296875 14.652344 C 392.667969 14.773438 384.035156 14.574219 375.410156 14.75 C 364.992188 14.597656 354.570312 14.757812 344.148438 14.683594 C 329.777344 14.714844 315.40625 14.699219 301.03125 14.710938 C 299.925781 14.667969 298.808594 14.621094 297.738281 14.9375 C 296.925781 15.222656 295.8125 14.757812 295.402344 15.757812 C 294.441406 15.421875 292.976562 14.921875 292.339844 16.03125 C 292.628906 16.121094 292.917969 16.214844 293.214844 16.308594 C 292.894531 16.921875 292.203125 16.550781 291.710938 16.492188 C 291.644531 16.933594 291.679688 17.378906 291.699219 17.820312 C 291.492188 17.621094 291.285156 17.421875 291.085938 17.226562 C 290.734375 17.480469 290.394531 17.734375 290.054688 17.988281 C 289.425781 17.585938 288.902344 17.984375 288.4375 18.414062 C 288.199219 18.40625 287.960938 18.394531 287.730469 18.386719 C 287.554688 18.691406 287.378906 18.992188 287.207031 19.300781 C 286.738281 19.511719 286.28125 19.726562 285.816406 19.925781 C 285.6875 19.796875 285.566406 19.664062 285.449219 19.535156 C 284.382812 20.738281 282.601562 20.585938 281.410156 21.621094 C 281.316406 21.507812 281.125 21.289062 281.027344 21.179688 C 280.972656 21.355469 280.859375 21.699219 280.804688 21.875 C 280.359375 21.925781 279.914062 21.972656 279.46875 22.007812 C 279.480469 22.15625 279.496094 22.445312 279.503906 22.585938 C 278.929688 22.570312 278.355469 22.550781 277.789062 22.53125 C 277.652344 22.878906 277.523438 23.222656 277.394531 23.570312 C 280.769531 23.746094 284.152344 23.527344 287.527344 23.703125 C 287.523438 23.832031 287.523438 24.089844 287.523438 24.21875 C 277.109375 24.175781 266.695312 24.199219 256.285156 24.210938 C 256.265625 25.082031 256.25 25.957031 256.238281 26.828125 C 256.230469 27.824219 256.230469 28.824219 256.179688 29.824219 C 256.023438 28.855469 255.953125 27.878906 255.941406 26.902344 C 253.929688 26.792969 251.910156 26.75 249.898438 26.867188 C 249.675781 26.761719 249.460938 26.667969 249.234375 26.585938 C 247.492188 24.691406 244.75 24.214844 242.289062 24.191406 C 238.46875 24.214844 234.648438 24.179688 230.828125 24.207031 C 228.355469 24.238281 225.929688 25.121094 224.050781 26.738281 C 223.933594 26.835938 223.699219 27.03125 223.578125 27.128906 C 221.1875 26.585938 218.757812 27.246094 216.347656 27.113281 C 216.273438 25.132812 213.992188 23.636719 212.167969 24.429688 C 211.078125 24.957031 210.648438 26.183594 209.953125 27.09375 C 209.777344 27.34375 209.601562 27.59375 209.429688 27.847656 C 209.3125 27.6875 209.085938 27.375 208.976562 27.21875 C 202.722656 27.34375 196.488281 27.933594 190.242188 28.132812 C 189.484375 28.175781 188.730469 28.253906 187.972656 28.324219 C 187.105469 27.214844 186.457031 25.9375 185.527344 24.875 C 184.265625 23.625 182.046875 24.285156 181.167969 25.664062 C 180.710938 26.597656 180.867188 27.675781 180.828125 28.679688 C 180.828125 28.746094 180.832031 28.878906 180.832031 28.941406 C 179.460938 28.816406 178.09375 28.957031 176.738281 29.167969 C 176.664062 29.351562 176.515625 29.726562 176.441406 29.910156 L 176.382812 29.917969 C 176.382812 29.710938 176.382812 29.300781 176.382812 29.09375 C 176.371094 27.464844 176.378906 25.839844 176.347656 24.21875 C 169.710938 24.191406 163.074219 24.207031 156.4375 24.210938 C 153.851562 24.175781 151.292969 25.449219 149.828125 27.589844 C 148.945312 28.753906 148.5625 30.1875 148.324219 31.605469 C 139.828125 32.5625 131.324219 33.394531 122.832031 34.375 C 122.734375 27.652344 122.78125 20.925781 122.800781 14.203125 C 123 13.886719 123.199219 13.574219 123.40625 13.261719 C 136.628906 12.957031 149.871094 13.226562 163.09375 12.988281 C 165.859375 12.691406 168.644531 12.890625 171.421875 12.796875 C 177.378906 12.835938 183.335938 12.746094 189.292969 12.746094 C 198.539062 12.300781 207.8125 12.585938 217.074219 12.429688 C 219.535156 12.238281 222.003906 12.238281 224.46875 12.328125 C 230.828125 12.054688 237.199219 12.199219 243.5625 12.148438 C 249.90625 11.558594 256.285156 12.042969 262.640625 11.761719 C 264.664062 11.691406 266.695312 11.910156 268.714844 11.6875 C 270.085938 11.566406 271.464844 11.796875 272.835938 11.644531 C 275.207031 11.417969 277.585938 11.597656 279.960938 11.5 C 283.574219 11.164062 287.207031 11.1875 290.816406 10.863281 C 292.183594 10.605469 293.582031 10.582031 294.972656 10.628906 C 309.445312 10.605469 323.921875 10.582031 338.394531 10.5625 C 340.214844 10.515625 342.050781 10.695312 343.855469 10.386719 C 341.515625 10.117188 339.15625 10.324219 336.808594 10.261719 C 334.628906 10.195312 332.425781 10.460938 330.265625 10.046875 Z M 330.265625 10.046875 "/>
    <path style=" stroke:none;fill-rule:nonzero;fill:rgb(91.372549%,91.372549%,91.372549%);fill-opacity:1;" d="M 401.285156 10.097656 C 401.578125 10.164062 401.875 10.230469 402.179688 10.300781 C 402.3125 10.992188 402.453125 11.6875 402.585938 12.382812 C 403.371094 12.375 404.15625 12.363281 404.949219 12.363281 C 404.578125 12.882812 404.121094 13.324219 403.578125 13.648438 C 403.445312 14.597656 403.453125 15.554688 403.644531 16.496094 C 403.972656 18.128906 403.660156 19.785156 403.601562 21.429688 C 403.261719 30.796875 402.519531 40.140625 402.175781 49.507812 C 402.179688 50.445312 402.238281 51.394531 402.023438 52.3125 C 400.320312 49.8125 398.386719 47.40625 395.902344 45.640625 C 393.964844 44.289062 391.914062 43.066406 389.671875 42.292969 C 383.371094 40.003906 376.726562 38.902344 370.164062 37.664062 C 370.164062 33.203125 370.132812 28.738281 370.179688 24.277344 C 368.273438 24.144531 366.363281 24.21875 364.453125 24.210938 C 364.40625 28.328125 364.445312 32.445312 364.429688 36.558594 C 361.136719 36.046875 357.839844 35.425781 354.507812 35.277344 L 354.347656 35.113281 C 351.640625 32.398438 349.003906 29.609375 346.324219 26.867188 C 345.523438 26.066406 344.8125 25.167969 343.886719 24.503906 C 342.730469 23.726562 341.109375 24.214844 340.238281 25.203125 C 339.617188 25.902344 339.652344 26.894531 339.617188 27.773438 C 339.605469 29.585938 339.632812 31.410156 339.621094 33.226562 C 337.808594 32.988281 335.996094 32.726562 334.171875 32.617188 C 334.15625 32.558594 334.132812 32.449219 334.121094 32.390625 C 333.382812 29.089844 330.949219 26.246094 327.832031 24.96875 C 324.898438 23.796875 321.679688 24.324219 318.605469 24.207031 C 315.785156 24.292969 312.945312 24.019531 310.140625 24.386719 C 306.988281 24.828125 304.335938 26.96875 302.675781 29.605469 C 300.816406 29.414062 298.960938 29.21875 297.109375 29.039062 C 297.085938 27.449219 297.089844 25.851562 297.109375 24.261719 C 295.234375 24.171875 293.355469 24.195312 291.484375 24.242188 C 291.5 25.65625 291.492188 27.066406 291.449219 28.480469 C 290.128906 28.398438 288.816406 28.296875 287.503906 28.148438 C 287.46875 26.835938 287.464844 25.527344 287.523438 24.21875 C 287.523438 24.089844 287.523438 23.832031 287.527344 23.703125 C 284.152344 23.527344 280.769531 23.746094 277.394531 23.570312 C 277.523438 23.222656 277.652344 22.878906 277.789062 22.53125 C 278.355469 22.550781 278.929688 22.570312 279.503906 22.585938 C 279.496094 22.445312 279.480469 22.15625 279.46875 22.007812 C 279.914062 21.972656 280.359375 21.925781 280.804688 21.875 C 280.859375 21.699219 280.972656 21.355469 281.027344 21.179688 C 281.125 21.289062 281.316406 21.507812 281.410156 21.621094 C 282.601562 20.585938 284.382812 20.738281 285.449219 19.535156 C 285.566406 19.664062 285.6875 19.796875 285.816406 19.925781 C 286.28125 19.726562 286.738281 19.511719 287.207031 19.300781 C 287.378906 18.992188 287.554688 18.691406 287.730469 18.386719 C 287.960938 18.394531 288.199219 18.40625 288.4375 18.414062 C 288.902344 17.984375 289.425781 17.585938 290.054688 17.988281 C 290.394531 17.734375 290.734375 17.480469 291.085938 17.226562 C 291.285156 17.421875 291.492188 17.621094 291.699219 17.820312 C 291.679688 17.378906 291.644531 16.933594 291.710938 16.492188 C 292.203125 16.550781 292.894531 16.921875 293.214844 16.308594 C 292.917969 16.214844 292.628906 16.121094 292.339844 16.03125 C 292.976562 14.921875 294.441406 15.421875 295.402344 15.757812 C 295.8125 14.757812 296.925781 15.222656 297.738281 14.9375 C 298.808594 14.621094 299.925781 14.667969 301.03125 14.710938 C 315.40625 14.699219 329.777344 14.714844 344.148438 14.683594 C 354.570312 14.757812 364.992188 14.597656 375.410156 14.75 C 384.035156 14.574219 392.667969 14.773438 401.296875 14.652344 C 402.234375 14.65625 402.726562 13.722656 402.941406 12.929688 C 402.449219 12.746094 401.96875 12.558594 401.488281 12.375 C 401.472656 11.613281 401.417969 10.851562 401.285156 10.097656 Z M 401.285156 10.097656 "/>
    <path style=" stroke:none;fill-rule:nonzero;fill:rgb(41.176471%,39.215686%,40.392157%);fill-opacity:1;" d="M 402.449219 10.359375 C 403.210938 10.34375 404.03125 10.105469 404.753906 10.484375 C 405.96875 11.03125 406.550781 12.308594 407.09375 13.449219 C 406.652344 13.183594 406.207031 12.9375 405.777344 12.675781 C 405.660156 12.601562 405.417969 12.449219 405.300781 12.371094 C 404.425781 11.59375 403.507812 10.863281 402.449219 10.359375 Z M 402.449219 10.359375 "/>
    <path style=" stroke:none;fill-rule:nonzero;fill:rgb(80.392157%,80.392157%,80.784314%);fill-opacity:1;" d="M 402.179688 10.300781 L 402.449219 10.359375 C 403.507812 10.863281 404.425781 11.59375 405.300781 12.371094 L 404.949219 12.363281 C 404.15625 12.363281 403.371094 12.375 402.585938 12.382812 C 402.453125 11.6875 402.3125 10.992188 402.179688 10.300781 Z M 402.179688 10.300781 "/>
    <path style=" stroke:none;fill-rule:nonzero;fill:rgb(80.392157%,80.392157%,80.784314%);fill-opacity:1;" d="M 334.171875 32.617188 C 335.996094 32.726562 337.808594 32.988281 339.621094 33.226562 C 339.617188 40.621094 339.609375 48.019531 339.613281 55.414062 C 341.527344 55.421875 343.441406 55.449219 345.359375 55.390625 C 345.335938 48.308594 345.300781 41.21875 345.371094 34.132812 C 352.128906 40.945312 358.730469 47.910156 365.492188 54.710938 C 367.0625 56.324219 370.148438 54.949219 370.148438 52.75 C 370.179688 47.722656 370.136719 42.691406 370.164062 37.664062 C 376.726562 38.902344 383.371094 40.003906 389.671875 42.292969 C 391.914062 43.066406 393.964844 44.289062 395.902344 45.640625 C 398.386719 47.40625 400.320312 49.8125 402.023438 52.3125 C 402.828125 53.652344 403.839844 54.847656 404.742188 56.121094 L 404.71875 56.273438 C 404.074219 58.449219 404.894531 60.867188 403.832031 62.933594 C 403.238281 63.785156 402.453125 64.867188 401.292969 64.800781 C 384.683594 64.777344 368.074219 64.863281 351.464844 64.878906 C 341.003906 64.933594 330.539062 64.839844 320.078125 64.984375 C 298.734375 65.1875 277.382812 65.0625 256.035156 65.164062 C 253.742188 65.105469 251.4375 65.289062 249.148438 65.042969 C 248.671875 64.953125 248.191406 64.847656 247.710938 64.800781 C 242.167969 64.730469 236.617188 64.917969 231.078125 64.707031 C 232.886719 64.378906 234.722656 64.550781 236.546875 64.519531 C 245.097656 64.484375 253.652344 64.554688 262.203125 64.464844 C 262.382812 63.988281 262.582031 63.515625 262.84375 63.070312 C 262.839844 63.445312 262.835938 63.816406 262.832031 64.1875 C 263.0625 63.917969 263.292969 63.640625 263.527344 63.375 C 264.722656 62.992188 265.914062 62.449219 267.195312 62.542969 C 267.910156 62.707031 268.328125 62.046875 268.800781 61.640625 C 269.164062 61.738281 269.53125 61.839844 269.902344 61.941406 C 269.90625 61.800781 269.90625 61.527344 269.910156 61.390625 C 270.707031 61.429688 271.503906 61.472656 272.304688 61.527344 C 272.691406 61.308594 273.082031 61.085938 273.472656 60.867188 C 273.550781 60.964844 273.707031 61.167969 273.78125 61.269531 C 273.835938 61.0625 273.941406 60.652344 273.996094 60.449219 C 274.207031 60.675781 274.421875 60.910156 274.640625 61.144531 C 275.074219 60.714844 275.523438 60.296875 275.980469 59.890625 C 276.054688 59.984375 276.203125 60.171875 276.273438 60.265625 C 276.726562 60.179688 277.183594 60.097656 277.640625 60.003906 C 277.851562 59.980469 278.066406 59.957031 278.28125 59.9375 C 278.253906 59.632812 278.226562 59.328125 278.207031 59.027344 C 278.738281 59.15625 279.246094 59.367188 279.714844 59.660156 C 279.910156 59.484375 280.113281 59.304688 280.3125 59.128906 C 280.542969 59.148438 280.777344 59.167969 281.015625 59.191406 C 281.933594 58.851562 282.980469 58.558594 283.433594 57.59375 C 283.628906 57.867188 283.828125 58.136719 284.027344 58.414062 C 284.308594 58.183594 284.597656 57.957031 284.886719 57.734375 C 285.132812 57.867188 285.390625 57.988281 285.652344 58.097656 C 285.96875 57.8125 286.21875 57.453125 286.484375 57.113281 C 286.457031 57.421875 286.429688 57.730469 286.402344 58.042969 C 287.679688 57.121094 289.3125 57.394531 290.761719 57.019531 C 290.921875 56.816406 291.085938 56.617188 291.25 56.417969 C 292.324219 56.832031 293.433594 56.386719 294.523438 56.277344 C 294.628906 56.21875 294.839844 56.109375 294.941406 56.054688 C 295.683594 56.042969 296.429688 56.046875 297.179688 56.070312 C 297.523438 55.585938 297.789062 55.054688 298.003906 54.5 C 298.960938 54.816406 299.960938 54.5625 300.941406 54.492188 C 300.90625 54.253906 300.875 54.015625 300.847656 53.777344 C 301.667969 53.730469 302.480469 53.851562 303.300781 53.832031 C 303.691406 53.667969 304.078125 53.484375 304.503906 53.394531 C 305.230469 53.683594 305.882812 54.320312 306.726562 54.109375 C 308.632812 55.042969 310.734375 55.542969 312.867188 55.429688 C 316.683594 55.394531 320.5 55.453125 324.320312 55.410156 C 327.78125 55.308594 331.085938 53.332031 332.847656 50.359375 C 334.429688 47.9375 334.539062 44.960938 334.4375 42.167969 C 334.308594 38.988281 334.710938 35.765625 334.171875 32.617188 Z M 334.171875 32.617188 "/>
    <path style=" stroke:none;fill-rule:nonzero;fill:rgb(83.137255%,83.137255%,83.137255%);fill-opacity:1;" d="M 8.632812 11.777344 C 9.316406 11.269531 10.121094 10.902344 10.988281 11.160156 C 8.84375 12.785156 7.15625 15.171875 6.910156 17.910156 C 6.925781 32.382812 6.953125 46.863281 6.902344 61.335938 C 6.941406 62.742188 7.589844 64.019531 8.148438 65.273438 C 8.078125 65.644531 8.007812 66.019531 7.941406 66.394531 C 6.75 64.179688 6.488281 61.578125 6.515625 59.097656 C 6.503906 45.894531 6.507812 32.691406 6.519531 19.492188 C 6.488281 16.78125 7.160156 14.074219 8.632812 11.777344 Z M 8.632812 11.777344 "/>
    <path style=" stroke:none;fill-rule:nonzero;fill:rgb(83.137255%,83.137255%,83.137255%);fill-opacity:1;" d="M 216.347656 27.113281 C 218.757812 27.246094 221.1875 26.585938 223.578125 27.128906 C 222.269531 28.480469 221.238281 30.121094 220.714844 31.933594 C 220.25 33.601562 220.34375 35.347656 220.332031 37.0625 C 220.351562 39.726562 220.304688 42.398438 220.347656 45.0625 C 220.414062 48.617188 222.441406 52.050781 225.464844 53.894531 C 227.140625 54.972656 229.152344 55.425781 231.128906 55.429688 C 234.84375 55.425781 238.5625 55.414062 242.273438 55.429688 C 243.6875 55.453125 245.113281 55.269531 246.453125 54.792969 C 250.5625 53.335938 253.460938 49.097656 253.394531 44.746094 C 253.394531 41.4375 253.394531 38.128906 253.394531 34.816406 C 253.441406 31.816406 252 28.945312 249.898438 26.867188 C 251.910156 26.75 253.929688 26.792969 255.941406 26.902344 C 255.953125 27.878906 256.023438 28.855469 256.179688 29.824219 C 260.457031 29.800781 264.738281 29.832031 269.023438 29.808594 C 269.03125 38.34375 269.015625 46.882812 269.019531 55.417969 C 270.910156 55.433594 272.800781 55.417969 274.699219 55.4375 C 274.722656 46.910156 274.730469 38.382812 274.6875 29.859375 C 278.953125 29.761719 283.226562 29.847656 287.492188 29.816406 C 287.5 29.261719 287.503906 28.703125 287.503906 28.148438 C 288.816406 28.296875 290.128906 28.398438 291.449219 28.480469 L 291.445312 28.574219 C 291.445312 37.519531 291.414062 46.464844 291.421875 55.414062 C 293.304688 55.441406 295.191406 55.414062 297.074219 55.449219 C 297.160156 46.648438 297.085938 37.84375 297.109375 29.039062 C 298.960938 29.21875 300.816406 29.414062 302.675781 29.605469 C 301.859375 31.34375 301.292969 33.222656 301.308594 35.15625 C 301.304688 38.34375 301.285156 41.535156 301.316406 44.726562 C 301.375 48.519531 303.511719 52.121094 306.726562 54.109375 C 305.882812 54.320312 305.230469 53.683594 304.503906 53.394531 C 304.078125 53.484375 303.691406 53.667969 303.300781 53.832031 C 302.480469 53.851562 301.667969 53.730469 300.847656 53.777344 C 300.875 54.015625 300.90625 54.253906 300.941406 54.492188 C 299.960938 54.5625 298.960938 54.816406 298.003906 54.5 C 297.789062 55.054688 297.523438 55.585938 297.179688 56.070312 C 296.429688 56.046875 295.683594 56.042969 294.941406 56.054688 C 294.839844 56.109375 294.628906 56.21875 294.523438 56.277344 C 293.433594 56.386719 292.324219 56.832031 291.25 56.417969 C 291.085938 56.617188 290.921875 56.816406 290.761719 57.019531 C 289.3125 57.394531 287.679688 57.121094 286.402344 58.042969 C 286.429688 57.730469 286.457031 57.421875 286.484375 57.113281 C 286.21875 57.453125 285.96875 57.8125 285.652344 58.097656 C 285.390625 57.988281 285.132812 57.867188 284.886719 57.734375 C 284.597656 57.957031 284.308594 58.183594 284.027344 58.414062 C 283.828125 58.136719 283.628906 57.867188 283.433594 57.59375 C 282.980469 58.558594 281.933594 58.851562 281.015625 59.191406 C 280.777344 59.167969 280.542969 59.148438 280.3125 59.128906 C 280.113281 59.304688 279.910156 59.484375 279.714844 59.660156 C 279.246094 59.367188 278.738281 59.15625 278.207031 59.027344 C 278.226562 59.328125 278.253906 59.632812 278.28125 59.9375 C 278.066406 59.957031 277.851562 59.980469 277.640625 60.003906 C 277.183594 60.097656 276.726562 60.179688 276.273438 60.265625 C 276.203125 60.171875 276.054688 59.984375 275.980469 59.890625 C 275.523438 60.296875 275.074219 60.714844 274.640625 61.144531 C 274.421875 60.910156 274.207031 60.675781 273.996094 60.449219 C 273.941406 60.652344 273.835938 61.0625 273.78125 61.269531 C 273.707031 61.167969 273.550781 60.964844 273.472656 60.867188 C 273.082031 61.085938 272.691406 61.308594 272.304688 61.527344 C 271.503906 61.472656 270.707031 61.429688 269.910156 61.390625 C 269.90625 61.527344 269.90625 61.800781 269.902344 61.941406 C 269.53125 61.839844 269.164062 61.738281 268.800781 61.640625 C 268.328125 62.046875 267.910156 62.707031 267.195312 62.542969 C 265.914062 62.449219 264.722656 62.992188 263.527344 63.375 C 263.292969 63.640625 263.0625 63.917969 262.832031 64.1875 C 262.835938 63.816406 262.839844 63.445312 262.84375 63.070312 C 262.582031 63.515625 262.382812 63.988281 262.203125 64.464844 C 253.652344 64.554688 245.097656 64.484375 236.546875 64.519531 C 234.722656 64.550781 232.886719 64.378906 231.078125 64.707031 C 236.617188 64.917969 242.167969 64.730469 247.710938 64.800781 C 248.191406 64.847656 248.671875 64.953125 249.148438 65.042969 C 239.851562 65.316406 230.542969 65.089844 221.238281 65.148438 C 195.804688 65.234375 170.367188 65.273438 144.929688 65.296875 C 137.597656 65.324219 130.265625 65.210938 122.9375 65.359375 C 122.914062 65.238281 122.867188 64.992188 122.847656 64.867188 C 125.847656 64.679688 128.875 65.074219 131.851562 64.535156 C 132.746094 64.394531 133.652344 64.460938 134.550781 64.515625 C 134.550781 64.378906 134.558594 64.109375 134.5625 63.972656 C 134.78125 63.992188 135.007812 64.019531 135.230469 64.042969 C 135.359375 63.996094 135.621094 63.902344 135.753906 63.851562 C 136.070312 63.730469 136.402344 63.621094 136.742188 63.554688 C 137.136719 63.683594 137.578125 63.980469 137.960938 63.648438 C 138.96875 63.046875 139.957031 62.414062 141.058594 61.988281 C 141.386719 62.175781 141.71875 62.363281 142.050781 62.550781 C 141.980469 62.035156 141.90625 61.519531 141.835938 61.007812 C 142.175781 61.390625 142.519531 61.769531 142.871094 62.148438 C 143.398438 61.691406 143.863281 61.113281 144.523438 60.84375 C 145.132812 60.867188 145.710938 61.113281 146.324219 61.140625 C 146.679688 60.859375 146.976562 60.515625 147.285156 60.183594 C 147.722656 60.359375 148.15625 60.535156 148.59375 60.710938 C 148.609375 60.449219 148.628906 60.183594 148.648438 59.921875 C 148.867188 59.910156 149.089844 59.902344 149.3125 59.894531 C 149.386719 59.664062 149.464844 59.4375 149.539062 59.207031 C 149.695312 59.359375 149.859375 59.515625 150.023438 59.671875 C 150.710938 58.40625 152.410156 59.003906 153.570312 58.984375 C 153.804688 58.46875 154.050781 57.902344 154.589844 57.632812 C 155.171875 57.65625 155.628906 58.085938 156.121094 58.351562 C 156.246094 58.042969 156.375 57.742188 156.507812 57.4375 C 157.34375 57.527344 157.96875 57.058594 158.269531 56.292969 C 158.304688 56.492188 158.378906 56.886719 158.414062 57.085938 C 158.796875 56.691406 159.179688 56.296875 159.566406 55.902344 C 158.0625 55.785156 156.558594 55.871094 155.058594 55.804688 C 154.960938 55.679688 154.761719 55.4375 154.660156 55.3125 C 161.898438 55.5625 169.148438 55.339844 176.390625 55.429688 C 176.375 53.527344 176.375 51.621094 176.429688 49.722656 C 176.308594 49.308594 176.167969 48.902344 176.035156 48.5 C 176.742188 48.433594 177.433594 48.582031 178.109375 48.769531 C 178.792969 48.457031 179.539062 48.300781 180.292969 48.300781 C 180.3125 50.699219 180.296875 53.097656 180.367188 55.5 C 180.476562 55.484375 180.6875 55.460938 180.796875 55.445312 C 182.664062 55.371094 184.53125 55.453125 186.398438 55.402344 C 186.394531 48.949219 186.332031 42.496094 186.429688 36.042969 C 189.484375 40.46875 192.433594 44.964844 195.421875 49.441406 C 196.101562 50.585938 197.0625 51.886719 198.574219 51.746094 C 199.851562 51.816406 200.777344 50.8125 201.375 49.800781 C 204.453125 45.222656 207.460938 40.59375 210.613281 36.0625 C 210.628906 42.515625 210.601562 48.964844 210.617188 55.414062 C 212.496094 55.429688 214.378906 55.414062 216.257812 55.429688 C 216.355469 45.992188 216.167969 36.550781 216.347656 27.113281 Z M 216.347656 27.113281 "/>
    <path style=" stroke:none;fill-rule:nonzero;fill:rgb(40.784314%,50.196078%,72.54902%);fill-opacity:1;" d="M 10.988281 11.160156 C 11.046875 11.175781 11.171875 11.207031 11.234375 11.222656 C 15.03125 12.488281 19.046875 12.726562 22.992188 13.152344 C 26.179688 13.328125 29.371094 13.621094 32.566406 13.601562 C 36.40625 13.597656 40.234375 13.890625 44.074219 13.832031 C 54.59375 13.859375 65.117188 13.746094 75.636719 13.761719 C 89.609375 13.832031 103.585938 13.800781 117.558594 13.683594 C 117.730469 20.796875 117.488281 27.917969 117.683594 35.027344 L 117.597656 35.035156 C 115.507812 35.152344 113.464844 35.625 111.382812 35.832031 C 108.007812 36.148438 104.699219 36.964844 101.3125 37.199219 C 102.597656 34.355469 103.949219 31.539062 105.277344 28.714844 C 105.683594 27.996094 105.648438 26.820312 104.71875 26.554688 C 103.234375 26.308594 101.726562 26.496094 100.230469 26.429688 C 99.351562 26.480469 98.222656 26.285156 97.636719 27.113281 C 97.007812 27.996094 96.683594 29.046875 96.238281 30.027344 C 94.917969 32.992188 93.632812 35.976562 92.320312 38.953125 C 90.84375 39.246094 89.347656 39.464844 87.878906 39.796875 C 85.390625 35.796875 82.894531 31.808594 80.378906 27.832031 C 79.175781 25.867188 76.613281 26.550781 74.699219 26.445312 C 72.800781 26.574219 70.449219 25.902344 69.007812 27.523438 C 65.421875 31.441406 61.714844 35.265625 58.230469 39.273438 C 59.375 41.273438 60.824219 43.078125 62.085938 45.007812 C 60.75 45.375 59.402344 45.691406 58.054688 46.003906 C 58.09375 36.207031 58.03125 26.410156 58.070312 16.613281 C 58.085938 15.859375 58.066406 14.929688 57.28125 14.550781 C 56.222656 14.175781 55.058594 14.359375 53.953125 14.3125 C 52.757812 14.359375 51.40625 14.195312 50.402344 14.976562 C 49.601562 15.570312 49.539062 16.664062 49.515625 17.574219 C 49.523438 27.691406 49.511719 37.816406 49.523438 47.9375 C 48.777344 48.039062 48.035156 48.144531 47.289062 48.25 C 47.535156 46.148438 47.597656 43.851562 46.460938 41.976562 C 45.210938 39.820312 42.855469 38.589844 40.515625 37.984375 C 37.242188 37.164062 33.933594 36.46875 30.660156 35.640625 C 30.011719 35.476562 29.226562 35.027344 29.386719 34.238281 C 29.894531 33.519531 30.847656 33.585938 31.621094 33.523438 C 35.664062 33.480469 39.710938 33.566406 43.761719 33.492188 C 45.054688 33.5625 46.28125 32.601562 46.441406 31.300781 C 46.539062 29.964844 46.582031 28.609375 46.402344 27.285156 C 46.066406 26.488281 45.125 26.414062 44.375 26.433594 C 39.800781 26.460938 35.226562 26.429688 30.652344 26.449219 C 27.667969 26.476562 24.460938 27.507812 22.664062 30.027344 C 21.15625 32.019531 20.898438 34.664062 21.332031 37.0625 C 21.753906 38.992188 23.058594 40.65625 24.746094 41.652344 C 27.1875 43.167969 30.121094 43.421875 32.851562 44.097656 C 34.730469 44.574219 36.722656 44.707031 38.488281 45.5625 C 39.042969 45.820312 39.1875 46.65625 38.726562 47.0625 C 38.140625 47.484375 37.386719 47.445312 36.707031 47.464844 C 32.765625 47.449219 28.828125 47.457031 24.886719 47.449219 C 23.71875 47.425781 22.316406 47.800781 21.863281 49.011719 C 21.425781 50.296875 21.566406 51.691406 21.597656 53.027344 C 21.546875 53.671875 22.007812 54.144531 22.347656 54.636719 C 17.484375 57.21875 12.386719 59.84375 8.851562 64.203125 C 8.613281 64.527344 8.386719 64.863281 8.171875 65.207031 L 8.148438 65.273438 C 7.589844 64.019531 6.941406 62.742188 6.902344 61.335938 C 6.953125 46.863281 6.925781 32.382812 6.910156 17.910156 C 7.15625 15.171875 8.84375 12.785156 10.988281 11.160156 M 9.65625 15.304688 C 10.695312 14.5 11.6875 13.640625 12.660156 12.761719 C 12.542969 12.648438 12.308594 12.421875 12.195312 12.308594 C 10.867188 12.65625 9.410156 13.773438 9.65625 15.304688 Z M 9.65625 15.304688 "/>
    <path style=" stroke:none;fill-rule:nonzero;fill:rgb(68.627451%,68.235294%,68.235294%);fill-opacity:1;" d="M 117.679688 12.675781 C 119.273438 12.429688 120.894531 12.535156 122.492188 12.296875 C 122.566406 12.722656 122.640625 13.144531 122.714844 13.570312 C 121.039062 13.726562 119.351562 13.605469 117.671875 13.683594 C 117.675781 13.429688 117.679688 12.925781 117.679688 12.675781 Z M 117.679688 12.675781 "/>
    <path style=" stroke:none;fill-rule:nonzero;fill:rgb(66.27451%,79.607843%,92.156863%);fill-opacity:1;" d="M 9.65625 15.304688 C 9.410156 13.773438 10.867188 12.65625 12.195312 12.308594 C 12.308594 12.421875 12.542969 12.648438 12.660156 12.761719 C 11.6875 13.640625 10.695312 14.5 9.65625 15.304688 Z M 9.65625 15.304688 "/>
    <path style=" stroke:none;fill-rule:nonzero;fill:rgb(89.019608%,89.019608%,89.019608%);fill-opacity:1;" d="M 404.949219 12.363281 L 405.300781 12.371094 C 405.417969 12.449219 405.660156 12.601562 405.777344 12.675781 C 406.070312 13.183594 406.335938 13.703125 406.578125 14.238281 C 406.398438 17.269531 406.53125 20.304688 406.5 23.339844 C 406.492188 33.664062 406.5 43.988281 406.484375 54.3125 C 406.535156 55.847656 406.4375 57.375 406.300781 58.898438 C 405.796875 58.007812 405.269531 57.132812 404.71875 56.273438 L 404.742188 56.121094 C 403.839844 54.847656 402.828125 53.652344 402.023438 52.3125 C 402.238281 51.394531 402.179688 50.445312 402.175781 49.507812 C 402.519531 40.140625 403.261719 30.796875 403.601562 21.429688 C 403.660156 19.785156 403.972656 18.128906 403.644531 16.496094 C 403.453125 15.554688 403.445312 14.597656 403.578125 13.648438 C 404.121094 13.324219 404.578125 12.882812 404.949219 12.363281 Z M 404.949219 12.363281 "/>
    <path style=" stroke:none;fill-rule:nonzero;fill:rgb(81.568627%,81.960784%,85.490196%);fill-opacity:1;" d="M 405.777344 12.675781 C 406.207031 12.9375 406.652344 13.183594 407.09375 13.449219 C 407.480469 14.113281 407.882812 14.78125 408.179688 15.5 C 408.007812 17.269531 408.511719 19.003906 408.457031 20.773438 C 408.4375 33.550781 408.46875 46.335938 408.445312 59.117188 C 408.371094 60.757812 408.441406 62.464844 407.847656 64.023438 C 407.707031 63.632812 407.570312 63.242188 407.441406 62.851562 C 407.867188 59.925781 407.550781 56.953125 407.636719 54.007812 C 407.667969 42.0625 407.582031 30.113281 407.679688 18.171875 C 407.660156 16.785156 407.101562 15.492188 406.578125 14.238281 C 406.335938 13.703125 406.070312 13.183594 405.777344 12.675781 Z M 405.777344 12.675781 "/>
    <path style=" stroke:none;fill-rule:nonzero;fill:rgb(81.176471%,81.176471%,81.176471%);fill-opacity:1;" d="M 122.714844 13.570312 L 122.804688 13.378906 C 122.804688 13.585938 122.800781 13.996094 122.800781 14.203125 C 122.78125 20.925781 122.734375 27.652344 122.832031 34.375 L 122.675781 34.394531 C 121.011719 34.578125 119.355469 34.867188 117.683594 35.027344 C 117.488281 27.917969 117.730469 20.796875 117.558594 13.683594 L 117.671875 13.683594 C 119.351562 13.605469 121.039062 13.726562 122.714844 13.570312 Z M 122.714844 13.570312 "/>
    <path style=" stroke:none;fill-rule:nonzero;fill:rgb(100%,100%,100%);fill-opacity:1;" d="M 50.402344 14.976562 C 51.40625 14.195312 52.757812 14.359375 53.953125 14.3125 C 55.058594 14.359375 56.222656 14.175781 57.28125 14.550781 C 58.066406 14.929688 58.085938 15.859375 58.070312 16.613281 C 58.03125 26.410156 58.09375 36.207031 58.054688 46.003906 C 58.015625 47.933594 58.113281 49.867188 58.019531 51.796875 C 57.980469 53.132812 56.875 54.308594 55.550781 54.445312 C 53.945312 54.542969 52.328125 54.515625 50.722656 54.46875 C 49.984375 54.507812 49.480469 53.734375 49.542969 53.054688 C 49.476562 51.347656 49.550781 49.640625 49.523438 47.9375 C 49.511719 37.816406 49.523438 27.691406 49.515625 17.574219 C 49.539062 16.664062 49.601562 15.570312 50.402344 14.976562 Z M 50.402344 14.976562 "/>
    <path style=" stroke:none;fill-rule:nonzero;fill:rgb(100%,100%,100%);fill-opacity:1;" d="M 406.5 23.339844 C 406.53125 20.304688 406.398438 17.269531 406.578125 14.238281 C 407.101562 15.492188 407.660156 16.785156 407.679688 18.171875 C 407.582031 30.113281 407.667969 42.0625 407.636719 54.007812 C 407.550781 56.953125 407.867188 59.925781 407.441406 62.851562 C 406.941406 65.429688 405.269531 67.796875 402.832031 68.855469 L 402.480469 68.679688 C 403.808594 66.984375 405.234375 65.296875 405.953125 63.226562 C 406.484375 61.84375 406.246094 60.34375 406.300781 58.898438 C 406.4375 57.375 406.535156 55.847656 406.484375 54.3125 C 406.5 43.988281 406.492188 33.664062 406.5 23.339844 Z M 406.5 23.339844 "/>
    <path style=" stroke:none;fill-rule:nonzero;fill:rgb(100%,100%,100%);fill-opacity:1;" d="M 22.664062 30.027344 C 24.460938 27.507812 27.667969 26.476562 30.652344 26.449219 C 35.226562 26.429688 39.800781 26.460938 44.375 26.433594 C 45.125 26.414062 46.066406 26.488281 46.402344 27.285156 C 46.582031 28.609375 46.539062 29.964844 46.441406 31.300781 C 46.28125 32.601562 45.054688 33.5625 43.761719 33.492188 C 39.710938 33.566406 35.664062 33.480469 31.621094 33.523438 C 30.847656 33.585938 29.894531 33.519531 29.386719 34.238281 C 29.226562 35.027344 30.011719 35.476562 30.660156 35.640625 C 33.933594 36.46875 37.242188 37.164062 40.515625 37.984375 C 42.855469 38.589844 45.210938 39.820312 46.460938 41.976562 C 47.597656 43.851562 47.535156 46.148438 47.289062 48.25 C 46.726562 50.203125 45.5 52.007812 43.660156 52.960938 C 40.089844 54.996094 35.828125 54.394531 31.898438 54.496094 C 28.714844 54.582031 25.511719 54.316406 22.347656 54.636719 C 22.007812 54.144531 21.546875 53.671875 21.597656 53.027344 C 21.566406 51.691406 21.425781 50.296875 21.863281 49.011719 C 22.316406 47.800781 23.71875 47.425781 24.886719 47.449219 C 28.828125 47.457031 32.765625 47.449219 36.707031 47.464844 C 37.386719 47.445312 38.140625 47.484375 38.726562 47.0625 C 39.1875 46.65625 39.042969 45.820312 38.488281 45.5625 C 36.722656 44.707031 34.730469 44.574219 32.851562 44.097656 C 30.121094 43.421875 27.1875 43.167969 24.746094 41.652344 C 23.058594 40.65625 21.753906 38.992188 21.332031 37.0625 C 20.898438 34.664062 21.15625 32.019531 22.664062 30.027344 Z M 22.664062 30.027344 "/>
    <path style=" stroke:none;fill-rule:nonzero;fill:rgb(100%,100%,100%);fill-opacity:1;" d="M 69.007812 27.523438 C 70.449219 25.902344 72.800781 26.574219 74.699219 26.445312 C 76.613281 26.550781 79.175781 25.867188 80.378906 27.832031 C 82.894531 31.808594 85.390625 35.796875 87.878906 39.796875 C 88.660156 41.050781 89.433594 42.3125 90.257812 43.539062 C 91.019531 42.042969 91.628906 40.480469 92.320312 38.953125 C 93.632812 35.976562 94.917969 32.992188 96.238281 30.027344 C 96.683594 29.046875 97.007812 27.996094 97.636719 27.113281 C 98.222656 26.285156 99.351562 26.480469 100.230469 26.429688 C 101.726562 26.496094 103.234375 26.308594 104.71875 26.554688 C 105.648438 26.820312 105.683594 27.996094 105.277344 28.714844 C 103.949219 31.539062 102.597656 34.355469 101.3125 37.199219 C 97.308594 45.542969 93.429688 53.949219 89.472656 62.3125 C 88.90625 63.390625 88.613281 64.761719 87.425781 65.347656 C 85.4375 65.3125 83.445312 65.296875 81.453125 65.363281 C 80.617188 64.878906 80.355469 63.851562 80.863281 63.023438 C 82.6875 59.164062 84.660156 55.375 86.457031 51.5 C 84.203125 48.148438 81.964844 44.78125 79.726562 41.414062 C 77.886719 38.695312 76.066406 35.960938 74.246094 33.226562 C 72.214844 35.355469 70.148438 37.453125 68.234375 39.683594 C 68.566406 41.023438 69.734375 42.066406 70.398438 43.289062 C 72.351562 46.21875 74.308594 49.148438 76.277344 52.066406 C 76.660156 52.605469 76.96875 53.300781 76.636719 53.941406 C 75.9375 54.625 74.917969 54.484375 74.03125 54.503906 C 72.542969 54.464844 71.050781 54.546875 69.5625 54.472656 C 68.609375 54.464844 68.042969 53.582031 67.535156 52.902344 C 65.714844 50.273438 63.914062 47.632812 62.085938 45.007812 C 60.824219 43.078125 59.375 41.273438 58.230469 39.273438 C 61.714844 35.265625 65.421875 31.441406 69.007812 27.523438 Z M 69.007812 27.523438 "/>
    <path style=" stroke:none;fill-rule:nonzero;fill:rgb(56.470588%,58.039216%,61.960784%);fill-opacity:1;" d="M 408.179688 15.5 C 408.859375 17.058594 409.011719 18.78125 409.078125 20.460938 C 408.964844 32.128906 409.105469 43.800781 409.019531 55.46875 C 409.128906 55.457031 409.34375 55.433594 409.453125 55.421875 C 409.484375 56.285156 409.542969 57.148438 409.671875 58 C 409.578125 60.90625 408.898438 63.796875 407.675781 66.433594 C 407.378906 66.78125 407.042969 67.816406 406.550781 67.144531 C 406.761719 66.023438 407.355469 65.035156 407.847656 64.023438 C 408.441406 62.464844 408.371094 60.757812 408.445312 59.117188 C 408.46875 46.335938 408.4375 33.550781 408.457031 20.773438 C 408.511719 19.003906 408.007812 17.269531 408.179688 15.5 Z M 408.179688 15.5 "/>
    <path style=" stroke:none;fill-rule:nonzero;fill:rgb(70.980392%,70.980392%,71.372549%);fill-opacity:1;" d="M 410.191406 17.691406 L 410.285156 17.691406 C 410.671875 26.0625 410.394531 34.445312 410.484375 42.816406 C 410.375 49.105469 410.71875 55.414062 410.222656 61.679688 C 410.09375 59.859375 410.308594 58.042969 410.300781 56.21875 C 410.304688 51.644531 410.273438 47.078125 410.308594 42.503906 C 410.21875 34.234375 410.449219 25.957031 410.191406 17.691406 Z M 410.191406 17.691406 "/>
    <path style=" stroke:none;fill-rule:nonzero;fill:rgb(70.980392%,70.980392%,71.372549%);fill-opacity:1;" d="M 403.832031 62.933594 C 404.894531 60.867188 404.074219 58.449219 404.71875 56.273438 C 405.269531 57.132812 405.796875 58.007812 406.300781 58.898438 C 406.246094 60.34375 406.484375 61.84375 405.953125 63.226562 C 405.234375 65.296875 403.808594 66.984375 402.480469 68.679688 L 402.832031 68.855469 L 403.03125 68.957031 C 401.71875 69.25 400.382812 69.4375 399.039062 69.394531 C 392.546875 69.367188 386.058594 69.464844 379.570312 69.441406 L 379.574219 68.9375 C 386.382812 68.820312 393.191406 68.917969 400.003906 68.902344 C 401.085938 69.003906 401.820312 68.03125 402.382812 67.246094 C 402.433594 66.46875 401.28125 66.183594 400.648438 66.175781 C 345.839844 66.175781 291.027344 66.203125 236.214844 66.238281 C 233.660156 66.128906 231.125 66.539062 228.574219 66.429688 C 195.265625 66.460938 161.96875 66.464844 128.664062 66.496094 C 126.695312 66.523438 124.71875 66.363281 122.761719 66.664062 C 122.722656 66.101562 122.675781 65.539062 122.65625 64.980469 C 122.621094 63.320312 122.691406 61.660156 122.71875 60.003906 C 122.820312 61.621094 122.726562 63.25 122.847656 64.867188 C 122.867188 64.992188 122.914062 65.238281 122.9375 65.359375 C 130.265625 65.210938 137.597656 65.324219 144.929688 65.296875 C 170.367188 65.273438 195.804688 65.234375 221.238281 65.148438 C 230.542969 65.089844 239.851562 65.316406 249.148438 65.042969 C 251.4375 65.289062 253.742188 65.105469 256.035156 65.164062 C 277.382812 65.0625 298.734375 65.1875 320.078125 64.984375 C 330.539062 64.839844 341.003906 64.933594 351.464844 64.878906 C 368.074219 64.863281 384.683594 64.777344 401.292969 64.800781 C 402.453125 64.867188 403.238281 63.785156 403.832031 62.933594 Z M 403.832031 62.933594 "/>
    <path style=" stroke:none;fill-rule:nonzero;fill:rgb(70.980392%,70.980392%,71.372549%);fill-opacity:1;" d="M 10.039062 70.199219 C 10.515625 70.097656 10.992188 69.992188 11.46875 69.902344 C 13.070312 70.191406 14.644531 70.707031 16.289062 70.691406 C 25.457031 70.519531 34.625 70.816406 43.792969 70.710938 C 43.535156 70.851562 43.28125 70.996094 43.03125 71.148438 C 34.015625 71.066406 24.996094 71.355469 15.984375 71.003906 C 13.980469 70.972656 11.945312 70.867188 10.039062 70.199219 Z M 10.039062 70.199219 "/>
    <path style=" stroke:none;fill-rule:nonzero;fill:rgb(57.254902%,57.647059%,61.568627%);fill-opacity:1;" d="M 4.847656 17.609375 C 5.261719 18.007812 5.269531 18.578125 5.261719 19.109375 C 5.179688 26.363281 5.152344 33.628906 5.28125 40.886719 C 5.433594 34.441406 5.203125 27.988281 5.40625 21.542969 C 6.054688 23.238281 5.667969 25.078125 5.789062 26.84375 C 5.816406 37.492188 5.84375 48.144531 5.8125 58.792969 C 5.8125 61.378906 6 64.082031 7.257812 66.402344 C 7.140625 66.492188 6.914062 66.664062 6.804688 66.753906 C 6.417969 66.304688 6.035156 65.859375 5.632812 65.429688 L 5.535156 65.324219 C 4.691406 62.367188 4.574219 59.277344 4.519531 56.222656 C 4.542969 45.25 4.503906 34.273438 4.53125 23.300781 C 4.601562 21.402344 4.566406 19.492188 4.847656 17.609375 Z M 4.847656 17.609375 "/>
    <path style=" stroke:none;fill-rule:nonzero;fill:rgb(43.529412%,43.529412%,43.529412%);fill-opacity:1;" d="M 5.261719 19.109375 C 5.273438 19.921875 5.316406 20.734375 5.40625 21.542969 C 5.203125 27.988281 5.433594 34.441406 5.28125 40.886719 C 5.152344 33.628906 5.179688 26.363281 5.261719 19.109375 Z M 5.261719 19.109375 "/>
    <path style=" stroke:none;fill-rule:nonzero;fill:rgb(43.529412%,43.529412%,43.529412%);fill-opacity:1;" d="M 118.21875 65.285156 C 119.699219 65.289062 121.207031 65.378906 122.65625 64.980469 C 122.675781 65.539062 122.722656 66.101562 122.761719 66.664062 C 122.78125 66.953125 122.824219 67.527344 122.84375 67.816406 C 122.761719 67.675781 122.589844 67.398438 122.507812 67.261719 C 120.925781 67.414062 119.335938 67.425781 117.75 67.402344 C 117.695312 66.878906 117.664062 66.351562 117.648438 65.828125 C 117.792969 65.691406 118.074219 65.417969 118.21875 65.285156 Z M 118.21875 65.285156 "/>
    <path style=" stroke:none;fill-rule:nonzero;fill:rgb(43.921569%,52.54902%,70.588235%);fill-opacity:1;" d="M 149.828125 27.589844 C 151.292969 25.449219 153.851562 24.175781 156.4375 24.210938 C 163.074219 24.207031 169.710938 24.191406 176.347656 24.21875 C 176.378906 25.839844 176.371094 27.464844 176.382812 29.09375 C 173.417969 29.371094 170.410156 29.34375 167.492188 29.953125 C 166.199219 30.019531 164.910156 29.910156 163.625 29.96875 C 161.222656 29.921875 158.824219 29.898438 156.425781 29.9375 C 155.6875 29.894531 155.066406 30.324219 154.527344 30.769531 C 154.445312 30.832031 154.277344 30.957031 154.199219 31.015625 C 152.246094 31.296875 150.289062 31.53125 148.324219 31.605469 C 148.5625 30.1875 148.945312 28.753906 149.828125 27.589844 Z M 149.828125 27.589844 "/>
    <path style=" stroke:none;fill-rule:nonzero;fill:rgb(43.529412%,52.156863%,70.196078%);fill-opacity:1;" d="M 181.167969 25.664062 C 182.046875 24.285156 184.265625 23.625 185.527344 24.875 C 186.457031 25.9375 187.105469 27.214844 187.972656 28.324219 C 185.582031 28.242188 183.21875 28.710938 180.828125 28.679688 C 180.867188 27.675781 180.710938 26.597656 181.167969 25.664062 Z M 181.167969 25.664062 "/>
    <path style=" stroke:none;fill-rule:nonzero;fill:rgb(43.529412%,52.156863%,69.803922%);fill-opacity:1;" d="M 212.167969 24.429688 C 213.992188 23.636719 216.273438 25.132812 216.347656 27.113281 C 214.214844 26.96875 212.082031 27.308594 209.953125 27.09375 C 210.648438 26.183594 211.078125 24.957031 212.167969 24.429688 Z M 212.167969 24.429688 "/>
    <path style=" stroke:none;fill-rule:nonzero;fill:rgb(43.529412%,51.764706%,69.019608%);fill-opacity:1;" d="M 224.050781 26.738281 C 225.929688 25.121094 228.355469 24.238281 230.828125 24.207031 C 234.648438 24.179688 238.46875 24.214844 242.289062 24.191406 C 244.75 24.214844 247.492188 24.691406 249.234375 26.585938 C 243.410156 26.746094 237.574219 26.578125 231.746094 26.691406 C 229.183594 26.734375 226.617188 26.773438 224.050781 26.738281 Z M 224.050781 26.738281 "/>
    <path style=" stroke:none;fill-rule:nonzero;fill:rgb(43.137255%,51.372549%,68.235294%);fill-opacity:1;" d="M 256.285156 24.210938 C 266.695312 24.199219 277.109375 24.175781 287.523438 24.21875 C 287.464844 25.527344 287.46875 26.835938 287.503906 28.148438 C 287.503906 28.703125 287.5 29.261719 287.492188 29.816406 C 287.453125 29.234375 287.417969 28.644531 287.382812 28.0625 C 282.257812 27.796875 277.144531 27.195312 272 27.238281 C 266.75 26.992188 261.496094 26.972656 256.238281 26.828125 C 256.25 25.957031 256.265625 25.082031 256.285156 24.210938 Z M 256.285156 24.210938 "/>
    <path style=" stroke:none;fill-rule:nonzero;fill:rgb(42.745098%,50.980392%,67.843137%);fill-opacity:1;" d="M 291.484375 24.242188 C 293.355469 24.195312 295.234375 24.171875 297.109375 24.261719 C 297.089844 25.851562 297.085938 27.449219 297.109375 29.039062 C 295.214844 28.921875 293.339844 28.597656 291.445312 28.574219 L 291.449219 28.480469 C 291.492188 27.066406 291.5 25.65625 291.484375 24.242188 Z M 291.484375 24.242188 "/>
    <path style=" stroke:none;fill-rule:nonzero;fill:rgb(42.745098%,50.980392%,67.843137%);fill-opacity:1;" d="M 310.140625 24.386719 C 312.945312 24.019531 315.785156 24.292969 318.605469 24.207031 C 321.679688 24.324219 324.898438 23.796875 327.832031 24.96875 C 330.949219 26.246094 333.382812 29.089844 334.121094 32.390625 C 332.070312 32.410156 330.050781 32.007812 328.019531 31.855469 L 328.070312 32.253906 C 327.824219 31.933594 327.574219 31.621094 327.304688 31.324219 C 326.367188 30.371094 325.039062 29.867188 323.710938 29.882812 C 320.09375 29.867188 316.476562 29.902344 312.859375 29.867188 C 312.042969 29.851562 311.242188 29.957031 310.453125 30.140625 C 310.351562 30.160156 310.152344 30.203125 310.050781 30.21875 C 307.605469 29.886719 305.140625 29.710938 302.675781 29.605469 C 304.335938 26.96875 306.988281 24.828125 310.140625 24.386719 Z M 310.140625 24.386719 "/>
    <path style=" stroke:none;fill-rule:nonzero;fill:rgb(42.745098%,50.980392%,67.843137%);fill-opacity:1;" d="M 340.238281 25.203125 C 341.109375 24.214844 342.730469 23.726562 343.886719 24.503906 C 344.8125 25.167969 345.523438 26.066406 346.324219 26.867188 C 349.003906 29.609375 351.640625 32.398438 354.347656 35.113281 C 349.449219 34.429688 344.554688 33.628906 339.621094 33.226562 C 339.632812 31.410156 339.605469 29.585938 339.617188 27.773438 C 339.652344 26.894531 339.617188 25.902344 340.238281 25.203125 Z M 340.238281 25.203125 "/>
    <path style=" stroke:none;fill-rule:nonzero;fill:rgb(42.352941%,50.980392%,67.45098%);fill-opacity:1;" d="M 364.453125 24.210938 C 366.363281 24.21875 368.273438 24.144531 370.179688 24.277344 C 370.132812 28.738281 370.164062 33.203125 370.164062 37.664062 C 368.265625 37.242188 366.371094 36.785156 364.429688 36.605469 L 364.429688 36.558594 C 364.445312 32.445312 364.40625 28.328125 364.453125 24.210938 Z M 364.453125 24.210938 "/>
    <path style=" stroke:none;fill-rule:nonzero;fill:rgb(10.196078%,19.215686%,36.078431%);fill-opacity:1;" d="M 224.050781 26.738281 C 226.617188 26.773438 229.183594 26.734375 231.746094 26.691406 C 237.574219 26.578125 243.410156 26.746094 249.234375 26.585938 C 249.460938 26.667969 249.675781 26.761719 249.898438 26.867188 C 252 28.945312 253.441406 31.816406 253.394531 34.816406 C 253.394531 38.128906 253.394531 41.4375 253.394531 44.746094 C 253.460938 49.097656 250.5625 53.335938 246.453125 54.792969 C 245.113281 55.269531 243.6875 55.453125 242.273438 55.429688 C 238.5625 55.414062 234.84375 55.425781 231.128906 55.429688 C 229.152344 55.425781 227.140625 54.972656 225.464844 53.894531 C 222.441406 52.050781 220.414062 48.617188 220.347656 45.0625 C 220.304688 42.398438 220.351562 39.726562 220.332031 37.0625 C 220.34375 35.347656 220.25 33.601562 220.714844 31.933594 C 221.238281 30.121094 222.269531 28.480469 223.578125 27.128906 C 223.699219 27.03125 223.933594 26.835938 224.050781 26.738281 M 229.550781 30.078125 C 227.992188 30.570312 226.660156 31.828125 226.214844 33.414062 C 225.835938 34.816406 226.007812 36.28125 225.980469 37.710938 C 226.011719 40.15625 225.910156 42.605469 226.023438 45.042969 C 226.128906 47.617188 228.535156 49.875 231.113281 49.714844 C 235.058594 49.699219 239.003906 49.710938 242.953125 49.710938 C 245.398438 49.734375 247.734375 47.554688 247.660156 45.0625 C 247.664062 41.539062 247.683594 38.019531 247.652344 34.5 C 247.652344 31.914062 245.148438 29.785156 242.632812 29.878906 C 239.109375 29.875 235.59375 29.890625 232.070312 29.875 C 231.226562 29.886719 230.363281 29.828125 229.550781 30.078125 Z M 229.550781 30.078125 "/>
    <path style=" stroke:none;fill-rule:nonzero;fill:rgb(9.803922%,18.823529%,35.686275%);fill-opacity:1;" d="M 256.238281 26.828125 C 261.496094 26.972656 266.75 26.992188 272 27.238281 C 277.144531 27.195312 282.257812 27.796875 287.382812 28.0625 C 287.417969 28.644531 287.453125 29.234375 287.492188 29.816406 C 283.226562 29.847656 278.953125 29.761719 274.6875 29.859375 C 274.730469 38.382812 274.722656 46.910156 274.699219 55.4375 C 272.800781 55.417969 270.910156 55.433594 269.019531 55.417969 C 269.015625 46.882812 269.03125 38.34375 269.023438 29.808594 C 264.738281 29.832031 260.457031 29.800781 256.179688 29.824219 C 256.230469 28.824219 256.230469 27.824219 256.238281 26.828125 Z M 256.238281 26.828125 "/>
    <path style=" stroke:none;fill-rule:nonzero;fill:rgb(85.490196%,85.490196%,85.490196%);fill-opacity:1;" d="M 190.242188 28.132812 C 196.488281 27.933594 202.722656 27.34375 208.976562 27.21875 C 209.085938 27.375 209.3125 27.6875 209.429688 27.847656 C 206.03125 32.855469 202.667969 37.886719 199.28125 42.902344 C 199.011719 43.261719 198.710938 43.59375 198.410156 43.921875 C 194.992188 38.6875 191.40625 33.554688 187.972656 28.324219 C 188.730469 28.253906 189.484375 28.175781 190.242188 28.132812 Z M 190.242188 28.132812 "/>
    <path style=" stroke:none;fill-rule:nonzero;fill:rgb(10.588235%,19.607843%,36.862745%);fill-opacity:1;" d="M 209.429688 27.847656 C 209.601562 27.59375 209.777344 27.34375 209.953125 27.09375 C 212.082031 27.308594 214.214844 26.96875 216.347656 27.113281 C 216.167969 36.550781 216.355469 45.992188 216.257812 55.429688 C 214.378906 55.414062 212.496094 55.429688 210.617188 55.414062 C 210.601562 48.964844 210.628906 42.515625 210.613281 36.0625 C 207.460938 40.59375 204.453125 45.222656 201.375 49.800781 C 200.777344 50.8125 199.851562 51.816406 198.574219 51.746094 C 197.0625 51.886719 196.101562 50.585938 195.421875 49.441406 C 192.433594 44.964844 189.484375 40.46875 186.429688 36.042969 C 186.332031 42.496094 186.394531 48.949219 186.398438 55.402344 C 184.53125 55.453125 182.664062 55.371094 180.796875 55.445312 C 180.855469 46.609375 180.800781 37.777344 180.832031 28.941406 C 180.832031 28.878906 180.828125 28.746094 180.828125 28.679688 C 183.21875 28.710938 185.582031 28.242188 187.972656 28.324219 C 191.40625 33.554688 194.992188 38.6875 198.410156 43.921875 C 198.710938 43.59375 199.011719 43.261719 199.28125 42.902344 C 202.667969 37.886719 206.03125 32.855469 209.429688 27.847656 Z M 209.429688 27.847656 "/>
    <path style=" stroke:none;fill-rule:nonzero;fill:rgb(85.882353%,85.882353%,85.882353%);fill-opacity:1;" d="M 176.738281 29.167969 C 178.09375 28.957031 179.460938 28.816406 180.832031 28.941406 C 180.800781 37.777344 180.855469 46.609375 180.796875 55.445312 C 180.6875 55.460938 180.476562 55.484375 180.367188 55.5 C 180.296875 53.097656 180.3125 50.699219 180.292969 48.300781 C 179.539062 48.300781 178.792969 48.457031 178.109375 48.769531 C 177.433594 48.582031 176.742188 48.433594 176.035156 48.5 C 176.167969 48.902344 176.308594 49.308594 176.429688 49.722656 C 169.757812 49.683594 163.085938 49.726562 156.414062 49.707031 C 155.25 49.792969 154.105469 48.765625 154.082031 47.605469 C 154.007812 45.964844 154.089844 44.324219 154.066406 42.683594 C 161.09375 42.675781 168.117188 42.679688 175.144531 42.683594 C 175.121094 40.761719 175.160156 38.835938 175.105469 36.914062 C 168.085938 36.929688 161.066406 36.957031 154.046875 36.902344 C 154.101562 34.9375 153.957031 32.972656 154.199219 31.015625 C 154.277344 30.957031 154.445312 30.832031 154.527344 30.769531 C 155.671875 31.132812 156.859375 30.785156 158.027344 30.722656 C 159.894531 30.515625 161.824219 30.589844 163.625 29.96875 C 164.910156 29.910156 166.199219 30.019531 167.492188 29.953125 C 170.453125 29.878906 173.417969 29.953125 176.382812 29.917969 L 176.441406 29.910156 C 176.515625 29.726562 176.664062 29.351562 176.738281 29.167969 Z M 176.738281 29.167969 "/>
    <path style=" stroke:none;fill-rule:nonzero;fill:rgb(9.803922%,18.823529%,35.294118%);fill-opacity:1;" d="M 291.445312 28.574219 C 293.339844 28.597656 295.214844 28.921875 297.109375 29.039062 C 297.085938 37.84375 297.160156 46.648438 297.074219 55.449219 C 295.191406 55.414062 293.304688 55.441406 291.421875 55.414062 C 291.414062 46.464844 291.445312 37.519531 291.445312 28.574219 Z M 291.445312 28.574219 "/>
    <path style=" stroke:none;fill-rule:nonzero;fill:rgb(6.27451%,16.078431%,34.117647%);fill-opacity:1;" d="M 167.492188 29.953125 C 170.410156 29.34375 173.417969 29.371094 176.382812 29.09375 C 176.382812 29.300781 176.382812 29.710938 176.382812 29.917969 C 173.417969 29.953125 170.453125 29.878906 167.492188 29.953125 Z M 167.492188 29.953125 "/>
    <path style=" stroke:none;fill-rule:nonzero;fill:rgb(9.411765%,18.431373%,34.901961%);fill-opacity:1;" d="M 302.675781 29.605469 C 305.140625 29.710938 307.605469 29.886719 310.050781 30.21875 C 308.445312 31.050781 307.101562 32.621094 307.082031 34.5 C 307.015625 37.90625 307.050781 41.320312 307.066406 44.726562 C 306.988281 47.328125 309.292969 49.742188 311.902344 49.710938 C 315.941406 49.707031 319.980469 49.710938 324.019531 49.710938 C 326.613281 49.730469 328.898438 47.324219 328.742188 44.726562 C 328.738281 41.417969 328.742188 38.105469 328.742188 34.796875 C 328.777344 33.894531 328.398438 33.0625 328.070312 32.253906 L 328.019531 31.855469 C 330.050781 32.007812 332.070312 32.410156 334.121094 32.390625 C 334.132812 32.449219 334.15625 32.558594 334.171875 32.617188 C 334.710938 35.765625 334.308594 38.988281 334.4375 42.167969 C 334.539062 44.960938 334.429688 47.9375 332.847656 50.359375 C 331.085938 53.332031 327.78125 55.308594 324.320312 55.410156 C 320.5 55.453125 316.683594 55.394531 312.867188 55.429688 C 310.734375 55.542969 308.632812 55.042969 306.726562 54.109375 C 303.511719 52.121094 301.375 48.519531 301.316406 44.726562 C 301.285156 41.535156 301.304688 38.34375 301.308594 35.15625 C 301.292969 33.222656 301.859375 31.34375 302.675781 29.605469 Z M 302.675781 29.605469 "/>
    <path style=" stroke:none;fill-rule:nonzero;fill:rgb(94.509804%,94.509804%,94.509804%);fill-opacity:1;" d="M 154.527344 30.769531 C 155.066406 30.324219 155.6875 29.894531 156.425781 29.9375 C 158.824219 29.898438 161.222656 29.921875 163.625 29.96875 C 161.824219 30.589844 159.894531 30.515625 158.027344 30.722656 C 156.859375 30.785156 155.671875 31.132812 154.527344 30.769531 Z M 154.527344 30.769531 "/>
    <path style=" stroke:none;fill-rule:nonzero;fill:rgb(94.509804%,94.509804%,94.509804%);fill-opacity:1;" d="M 398.382812 70.761719 C 400.46875 70.824219 402.457031 70.167969 404.488281 69.796875 C 404.121094 70.007812 403.773438 70.246094 403.417969 70.464844 C 402.117188 70.945312 400.710938 70.734375 399.363281 70.839844 C 398.332031 70.910156 397.308594 71.015625 396.28125 71.046875 C 392.949219 70.601562 389.5625 71.183594 386.234375 70.707031 C 390.28125 70.839844 394.332031 70.722656 398.382812 70.761719 Z M 398.382812 70.761719 "/>
    <path style=" stroke:none;fill-rule:nonzero;fill:rgb(84.313725%,83.921569%,83.921569%);fill-opacity:1;" d="M 229.550781 30.078125 C 230.363281 29.828125 231.226562 29.886719 232.070312 29.875 C 235.59375 29.890625 239.109375 29.875 242.632812 29.878906 C 245.148438 29.785156 247.652344 31.914062 247.652344 34.5 C 247.683594 38.019531 247.664062 41.539062 247.660156 45.0625 C 247.734375 47.554688 245.398438 49.734375 242.953125 49.710938 C 239.003906 49.710938 235.058594 49.699219 231.113281 49.714844 C 228.535156 49.875 226.128906 47.617188 226.023438 45.042969 C 225.910156 42.605469 226.011719 40.15625 225.980469 37.710938 C 226.007812 36.28125 225.835938 34.816406 226.214844 33.414062 C 226.660156 31.828125 227.992188 30.570312 229.550781 30.078125 Z M 229.550781 30.078125 "/>
    <path style=" stroke:none;fill-rule:nonzero;fill:rgb(81.960784%,81.960784%,81.960784%);fill-opacity:1;" d="M 310.050781 30.21875 C 310.152344 30.203125 310.351562 30.160156 310.453125 30.140625 C 312.367188 30.683594 314.367188 30.625 316.332031 30.816406 C 319.972656 31.019531 323.597656 31.5 327.242188 31.707031 L 327.304688 31.324219 C 327.574219 31.621094 327.824219 31.933594 328.070312 32.253906 C 328.398438 33.0625 328.777344 33.894531 328.742188 34.796875 C 328.742188 38.105469 328.738281 41.417969 328.742188 44.726562 C 328.898438 47.324219 326.613281 49.730469 324.019531 49.710938 C 319.980469 49.710938 315.941406 49.707031 311.902344 49.710938 C 309.292969 49.742188 306.988281 47.328125 307.066406 44.726562 C 307.050781 41.320312 307.015625 37.90625 307.082031 34.5 C 307.101562 32.621094 308.445312 31.050781 310.050781 30.21875 Z M 310.050781 30.21875 "/>
    <path style=" stroke:none;fill-rule:nonzero;fill:rgb(91.764706%,91.764706%,91.764706%);fill-opacity:1;" d="M 310.453125 30.140625 C 311.242188 29.957031 312.042969 29.851562 312.859375 29.867188 C 316.476562 29.902344 320.09375 29.867188 323.710938 29.882812 C 325.039062 29.867188 326.367188 30.371094 327.304688 31.324219 L 327.242188 31.707031 C 323.597656 31.5 319.972656 31.019531 316.332031 30.816406 C 314.367188 30.625 312.367188 30.683594 310.453125 30.140625 Z M 310.453125 30.140625 "/>
    <path style=" stroke:none;fill-rule:nonzero;fill:rgb(10.980392%,20.392157%,37.647059%);fill-opacity:1;" d="M 148.324219 31.605469 C 150.289062 31.53125 152.246094 31.296875 154.199219 31.015625 C 153.957031 32.972656 154.101562 34.9375 154.046875 36.902344 C 161.066406 36.957031 168.085938 36.929688 175.105469 36.914062 C 175.160156 38.835938 175.121094 40.761719 175.144531 42.683594 C 168.117188 42.679688 161.09375 42.675781 154.066406 42.683594 C 154.089844 44.324219 154.007812 45.964844 154.082031 47.605469 C 154.105469 48.765625 155.25 49.792969 156.414062 49.707031 C 163.085938 49.726562 169.757812 49.683594 176.429688 49.722656 C 176.375 51.621094 176.375 53.527344 176.390625 55.429688 C 169.148438 55.339844 161.898438 55.5625 154.660156 55.3125 C 151.152344 54.476562 148.363281 51.25 148.328125 47.589844 C 148.304688 42.261719 148.332031 36.933594 148.324219 31.605469 Z M 148.324219 31.605469 "/>
    <path style=" stroke:none;fill-rule:nonzero;fill:rgb(86.27451%,86.27451%,86.27451%);fill-opacity:1;" d="M 122.832031 34.375 C 131.324219 33.394531 139.828125 32.5625 148.324219 31.605469 C 148.332031 36.933594 148.304688 42.261719 148.328125 47.589844 C 148.363281 51.25 151.152344 54.476562 154.660156 55.3125 C 154.761719 55.4375 154.960938 55.679688 155.058594 55.804688 C 156.558594 55.871094 158.0625 55.785156 159.566406 55.902344 C 159.179688 56.296875 158.796875 56.691406 158.414062 57.085938 C 158.378906 56.886719 158.304688 56.492188 158.269531 56.292969 C 157.96875 57.058594 157.34375 57.527344 156.507812 57.4375 C 156.375 57.742188 156.246094 58.042969 156.121094 58.351562 C 155.628906 58.085938 155.171875 57.65625 154.589844 57.632812 C 154.050781 57.902344 153.804688 58.46875 153.570312 58.984375 C 152.410156 59.003906 150.710938 58.40625 150.023438 59.671875 C 149.859375 59.515625 149.695312 59.359375 149.539062 59.207031 C 149.464844 59.4375 149.386719 59.664062 149.3125 59.894531 C 149.089844 59.902344 148.867188 59.910156 148.648438 59.921875 C 148.628906 60.183594 148.609375 60.449219 148.59375 60.710938 C 148.15625 60.535156 147.722656 60.359375 147.285156 60.183594 C 146.976562 60.515625 146.679688 60.859375 146.324219 61.140625 C 145.710938 61.113281 145.132812 60.867188 144.523438 60.84375 C 143.863281 61.113281 143.398438 61.691406 142.871094 62.148438 C 142.519531 61.769531 142.175781 61.390625 141.835938 61.007812 C 141.90625 61.519531 141.980469 62.035156 142.050781 62.550781 C 141.71875 62.363281 141.386719 62.175781 141.058594 61.988281 C 139.957031 62.414062 138.96875 63.046875 137.960938 63.648438 C 137.578125 63.980469 137.136719 63.683594 136.742188 63.554688 C 136.402344 63.621094 136.070312 63.730469 135.753906 63.851562 C 135.621094 63.902344 135.359375 63.996094 135.230469 64.042969 C 135.007812 64.019531 134.78125 63.992188 134.5625 63.972656 C 134.558594 64.109375 134.550781 64.378906 134.550781 64.515625 C 133.652344 64.460938 132.746094 64.394531 131.851562 64.535156 C 128.875 65.074219 125.847656 64.679688 122.847656 64.867188 C 122.726562 63.25 122.820312 61.621094 122.71875 60.003906 C 122.660156 51.464844 122.714844 42.929688 122.675781 34.394531 Z M 122.832031 34.375 "/>
    <path style=" stroke:none;fill-rule:nonzero;fill:rgb(40.784314%,49.803922%,71.764706%);fill-opacity:1;" d="M 68.234375 39.683594 C 70.148438 37.453125 72.214844 35.355469 74.246094 33.226562 C 76.066406 35.960938 77.886719 38.695312 79.726562 41.414062 C 76.597656 41.945312 73.484375 42.550781 70.398438 43.289062 C 69.734375 42.066406 68.566406 41.023438 68.234375 39.683594 Z M 68.234375 39.683594 "/>
    <path style=" stroke:none;fill-rule:nonzero;fill:rgb(9.803922%,18.431373%,34.509804%);fill-opacity:1;" d="M 339.621094 33.226562 C 344.554688 33.628906 349.449219 34.429688 354.347656 35.113281 L 354.507812 35.277344 C 357.820312 38.652344 361.039062 42.117188 364.410156 45.433594 C 364.433594 42.492188 364.40625 39.550781 364.429688 36.605469 C 366.371094 36.785156 368.265625 37.242188 370.164062 37.664062 C 370.136719 42.691406 370.179688 47.722656 370.148438 52.75 C 370.148438 54.949219 367.0625 56.324219 365.492188 54.710938 C 358.730469 47.910156 352.128906 40.945312 345.371094 34.132812 C 345.300781 41.21875 345.335938 48.308594 345.359375 55.390625 C 343.441406 55.449219 341.527344 55.421875 339.613281 55.414062 C 339.609375 48.019531 339.617188 40.621094 339.621094 33.226562 Z M 339.621094 33.226562 "/>
    <path style=" stroke:none;fill-rule:nonzero;fill:rgb(57.647059%,58.039216%,58.039216%);fill-opacity:1;" d="M 117.683594 35.027344 C 119.355469 34.867188 121.011719 34.578125 122.675781 34.394531 C 122.714844 42.929688 122.660156 51.464844 122.71875 60.003906 C 122.691406 61.660156 122.621094 63.320312 122.65625 64.980469 C 121.207031 65.378906 119.699219 65.289062 118.21875 65.285156 C 118.074219 65.417969 117.792969 65.691406 117.648438 65.828125 C 117.648438 65.761719 117.644531 65.625 117.644531 65.558594 C 117.601562 55.382812 117.664062 45.207031 117.597656 35.035156 Z M 117.683594 35.027344 "/>
    <path style=" stroke:none;fill-rule:nonzero;fill:rgb(11.764706%,18.039216%,39.215686%);fill-opacity:1;" d="M 111.382812 35.832031 C 113.464844 35.625 115.507812 35.152344 117.597656 35.035156 C 117.664062 45.207031 117.601562 55.382812 117.644531 65.558594 C 116.125 65.9375 114.5625 65.824219 113.015625 65.785156 C 105.140625 65.816406 97.261719 65.75 89.386719 65.816406 C 88.703125 65.84375 88.023438 65.695312 87.425781 65.347656 C 88.613281 64.761719 88.90625 63.390625 89.472656 62.3125 C 93.429688 53.949219 97.308594 45.542969 101.3125 37.199219 C 104.699219 36.964844 108.007812 36.148438 111.382812 35.832031 Z M 111.382812 35.832031 "/>
    <path style=" stroke:none;fill-rule:nonzero;fill:rgb(81.568627%,81.176471%,81.176471%);fill-opacity:1;" d="M 354.507812 35.277344 C 357.839844 35.425781 361.136719 36.046875 364.429688 36.558594 L 364.429688 36.605469 C 364.40625 39.550781 364.433594 42.492188 364.410156 45.433594 C 361.039062 42.117188 357.820312 38.652344 354.507812 35.277344 Z M 354.507812 35.277344 "/>
    <path style=" stroke:none;fill-rule:nonzero;fill:rgb(11.764706%,18.039216%,40.392157%);fill-opacity:1;" d="M 87.878906 39.796875 C 89.347656 39.464844 90.84375 39.246094 92.320312 38.953125 C 91.628906 40.480469 91.019531 42.042969 90.257812 43.539062 C 89.433594 42.3125 88.660156 41.050781 87.878906 39.796875 Z M 87.878906 39.796875 "/>
    <path style=" stroke:none;fill-rule:nonzero;fill:rgb(11.764706%,18.039216%,40%);fill-opacity:1;" d="M 70.398438 43.289062 C 73.484375 42.550781 76.597656 41.945312 79.726562 41.414062 C 81.964844 44.78125 84.203125 48.148438 86.457031 51.5 C 84.660156 55.375 82.6875 59.164062 80.863281 63.023438 C 80.355469 63.851562 80.617188 64.878906 81.453125 65.363281 C 80.273438 66.054688 78.863281 65.730469 77.574219 65.789062 C 56.398438 65.761719 35.222656 65.769531 14.050781 65.765625 C 12.226562 65.675781 10.398438 65.191406 8.851562 64.203125 C 12.386719 59.84375 17.484375 57.21875 22.347656 54.636719 C 25.511719 54.316406 28.714844 54.582031 31.898438 54.496094 C 35.828125 54.394531 40.089844 54.996094 43.660156 52.960938 C 45.5 52.007812 46.726562 50.203125 47.289062 48.25 C 48.035156 48.144531 48.777344 48.039062 49.523438 47.9375 C 49.550781 49.640625 49.476562 51.347656 49.542969 53.054688 C 49.480469 53.734375 49.984375 54.507812 50.722656 54.46875 C 52.328125 54.515625 53.945312 54.542969 55.550781 54.445312 C 56.875 54.308594 57.980469 53.132812 58.019531 51.796875 C 58.113281 49.867188 58.015625 47.933594 58.054688 46.003906 C 59.402344 45.691406 60.75 45.375 62.085938 45.007812 C 63.914062 47.632812 65.714844 50.273438 67.535156 52.902344 C 68.042969 53.582031 68.609375 54.464844 69.5625 54.472656 C 71.050781 54.546875 72.542969 54.464844 74.03125 54.503906 C 74.917969 54.484375 75.9375 54.625 76.636719 53.941406 C 76.96875 53.300781 76.660156 52.605469 76.277344 52.066406 C 74.308594 49.148438 72.351562 46.21875 70.398438 43.289062 Z M 70.398438 43.289062 "/>
    <path style=" stroke:none;fill-rule:nonzero;fill:rgb(41.960784%,40.784314%,40.784314%);fill-opacity:1;" d="M 409.671875 58 C 410.222656 59.839844 409.4375 61.746094 409.898438 63.609375 C 409.480469 66.550781 407.816406 69.582031 405.054688 70.894531 C 404.582031 70.515625 403.984375 70.476562 403.417969 70.464844 C 403.773438 70.246094 404.121094 70.007812 404.488281 69.796875 C 405.679688 69.601562 406.617188 68.804688 407.25 67.808594 C 407.066406 67.820312 406.703125 67.84375 406.519531 67.855469 C 406.445312 67.78125 406.292969 67.625 406.21875 67.550781 C 405.855469 67.945312 405.535156 68.378906 405.101562 68.691406 C 404.445312 68.960938 403.71875 68.898438 403.03125 68.957031 L 402.832031 68.855469 C 405.269531 67.796875 406.941406 65.429688 407.441406 62.851562 C 407.570312 63.242188 407.707031 63.632812 407.847656 64.023438 C 407.355469 65.035156 406.761719 66.023438 406.550781 67.144531 C 407.042969 67.816406 407.378906 66.78125 407.675781 66.433594 C 408.898438 63.796875 409.578125 60.90625 409.671875 58 Z M 409.671875 58 "/>
    <path style=" stroke:none;fill-rule:nonzero;fill:rgb(9.411765%,12.941176%,25.490196%);fill-opacity:1;" d="M 8.171875 65.207031 C 8.386719 64.863281 8.613281 64.527344 8.851562 64.203125 C 10.398438 65.191406 12.226562 65.675781 14.050781 65.765625 C 35.222656 65.769531 56.398438 65.761719 77.574219 65.789062 C 78.863281 65.730469 80.273438 66.054688 81.453125 65.363281 C 83.445312 65.296875 85.4375 65.3125 87.425781 65.347656 C 88.023438 65.695312 88.703125 65.84375 89.386719 65.816406 C 97.261719 65.75 105.140625 65.816406 113.015625 65.785156 C 114.5625 65.824219 116.125 65.9375 117.644531 65.558594 C 117.644531 65.625 117.648438 65.761719 117.648438 65.828125 C 117.664062 66.351562 117.695312 66.878906 117.75 67.402344 C 117.792969 67.8125 117.847656 68.21875 117.90625 68.632812 C 117.886719 68.816406 117.839844 69.183594 117.820312 69.371094 C 115.375 69.539062 112.917969 69.410156 110.46875 69.441406 C 107.167969 69.414062 103.863281 69.539062 100.570312 69.304688 C 99.769531 69.257812 98.96875 69.308594 98.167969 69.347656 C 97.265625 69.21875 96.355469 69.128906 95.445312 69.125 C 80.863281 69.050781 66.285156 69.242188 51.707031 69.273438 C 39.644531 69.566406 27.578125 69.453125 15.515625 69.457031 C 14.542969 68.535156 13.207031 68.171875 12.171875 67.335938 C 11.203125 66.570312 10.046875 66.066406 8.792969 66.132812 C 8.578125 65.828125 8.375 65.515625 8.171875 65.207031 Z M 8.171875 65.207031 "/>
    <path style=" stroke:none;fill-rule:nonzero;fill:rgb(60.784314%,60.784314%,61.176471%);fill-opacity:1;" d="M 228.574219 66.429688 C 231.125 66.539062 233.660156 66.128906 236.214844 66.238281 C 291.027344 66.203125 345.839844 66.175781 400.648438 66.175781 C 401.28125 66.183594 402.433594 66.46875 402.382812 67.246094 C 401.820312 68.03125 401.085938 69.003906 400.003906 68.902344 C 393.191406 68.917969 386.382812 68.820312 379.574219 68.9375 C 371.371094 68.945312 363.167969 68.828125 354.960938 68.988281 C 354.246094 68.980469 353.542969 69.113281 352.882812 69.378906 C 352.269531 69.414062 351.65625 69.476562 351.046875 69.511719 C 341.71875 69.347656 332.382812 69.484375 323.050781 69.4375 C 293.171875 69.449219 263.292969 69.394531 233.414062 69.449219 C 199.347656 69.3125 165.277344 69.390625 131.210938 69.34375 C 128.488281 69.308594 125.765625 69.414062 123.042969 69.304688 C 122.976562 68.808594 122.914062 68.308594 122.84375 67.816406 C 122.824219 67.527344 122.78125 66.953125 122.761719 66.664062 C 124.71875 66.363281 126.695312 66.523438 128.664062 66.496094 C 161.96875 66.464844 195.265625 66.460938 228.574219 66.429688 Z M 228.574219 66.429688 "/>
    <path style=" stroke:none;fill-rule:nonzero;fill:rgb(37.647059%,36.470588%,37.647059%);fill-opacity:1;" d="M 7.144531 66.667969 C 7.554688 66.921875 7.957031 67.179688 8.359375 67.4375 C 8.324219 67.269531 8.25 66.929688 8.210938 66.757812 C 8.742188 67.320312 9.195312 67.945312 9.726562 68.503906 C 10.65625 69.132812 11.832031 69.09375 12.914062 69.140625 C 13.773438 69.296875 14.640625 69.429688 15.515625 69.457031 C 27.578125 69.453125 39.644531 69.566406 51.707031 69.273438 C 66.285156 69.242188 80.863281 69.050781 95.445312 69.125 C 96.355469 69.128906 97.265625 69.21875 98.167969 69.347656 C 98.949219 69.589844 99.738281 69.863281 100.5625 69.871094 C 104.492188 70.027344 108.425781 69.953125 112.355469 69.964844 C 150.878906 70.097656 189.398438 70.007812 227.921875 70.035156 C 268.464844 70 309.003906 70.085938 349.546875 70.015625 C 352.417969 69.9375 355.292969 70.039062 358.164062 69.800781 C 355.796875 69.539062 353.414062 69.742188 351.046875 69.511719 C 351.65625 69.476562 352.269531 69.414062 352.882812 69.378906 C 361.777344 69.5 370.675781 69.402344 379.570312 69.441406 C 386.058594 69.464844 392.546875 69.367188 399.039062 69.394531 C 400.382812 69.4375 401.71875 69.25 403.03125 68.957031 C 403.71875 68.898438 404.445312 68.960938 405.101562 68.691406 C 405.535156 68.378906 405.855469 67.945312 406.21875 67.550781 C 406.292969 67.625 406.445312 67.78125 406.519531 67.855469 C 406.703125 67.84375 407.066406 67.820312 407.25 67.808594 C 406.617188 68.804688 405.679688 69.601562 404.488281 69.796875 C 402.457031 70.167969 400.46875 70.824219 398.382812 70.761719 C 394.332031 70.722656 390.28125 70.839844 386.234375 70.707031 C 383.070312 70.347656 379.875 70.628906 376.703125 70.554688 C 287 70.5 197.300781 70.550781 107.601562 70.535156 C 89.609375 70.511719 71.621094 70.5 53.628906 70.695312 C 50.347656 70.761719 47.066406 70.554688 43.792969 70.710938 C 34.625 70.816406 25.457031 70.519531 16.289062 70.691406 C 14.644531 70.707031 13.070312 70.191406 11.46875 69.902344 C 9.511719 69.808594 7.949219 68.371094 7.144531 66.667969 Z M 7.144531 66.667969 "/>
    <path style=" stroke:none;fill-rule:nonzero;fill:rgb(37.647059%,37.647059%,37.647059%);fill-opacity:1;" d="M 117.75 67.402344 C 119.335938 67.425781 120.925781 67.414062 122.507812 67.261719 C 122.589844 67.398438 122.761719 67.675781 122.84375 67.816406 C 122.914062 68.308594 122.976562 68.808594 123.042969 69.304688 C 125.765625 69.414062 128.488281 69.308594 131.210938 69.34375 C 165.277344 69.390625 199.347656 69.3125 233.414062 69.449219 C 226.058594 69.648438 218.691406 69.5 211.332031 69.535156 C 180.289062 69.550781 149.246094 69.535156 118.203125 69.554688 C 118.097656 69.25 118 68.9375 117.90625 68.632812 C 117.847656 68.21875 117.792969 67.8125 117.75 67.402344 Z M 117.75 67.402344 "/>
    <path style=" stroke:none;fill-rule:nonzero;fill:rgb(37.647059%,37.647059%,37.647059%);fill-opacity:1;" d="M 13.738281 71.621094 C 16.214844 71.757812 18.707031 71.5 21.175781 71.824219 C 18.699219 71.941406 16.207031 71.800781 13.738281 71.621094 Z M 13.738281 71.621094 "/>
    <path style=" stroke:none;fill-rule:nonzero;fill:rgb(31.372549%,30.980392%,30.980392%);fill-opacity:1;" d="M 117.90625 68.632812 C 118 68.9375 118.097656 69.25 118.203125 69.554688 C 149.246094 69.535156 180.289062 69.550781 211.332031 69.535156 C 218.691406 69.5 226.058594 69.648438 233.414062 69.449219 C 263.292969 69.394531 293.171875 69.449219 323.050781 69.4375 C 332.382812 69.484375 341.71875 69.347656 351.046875 69.511719 C 353.414062 69.742188 355.796875 69.539062 358.164062 69.800781 C 355.292969 70.039062 352.417969 69.9375 349.546875 70.015625 C 309.003906 70.085938 268.464844 70 227.921875 70.035156 C 189.398438 70.007812 150.878906 70.097656 112.355469 69.964844 C 108.425781 69.953125 104.492188 70.027344 100.5625 69.871094 C 99.738281 69.863281 98.949219 69.589844 98.167969 69.347656 C 98.96875 69.308594 99.769531 69.257812 100.570312 69.304688 C 103.863281 69.539062 107.167969 69.414062 110.46875 69.441406 C 112.917969 69.410156 115.375 69.539062 117.820312 69.371094 C 117.839844 69.183594 117.886719 68.816406 117.90625 68.632812 Z M 117.90625 68.632812 "/>
    <path style=" stroke:none;fill-rule:nonzero;fill:rgb(78.039216%,78.431373%,78.823529%);fill-opacity:1;" d="M 352.882812 69.378906 C 353.542969 69.113281 354.246094 68.980469 354.960938 68.988281 C 363.167969 68.828125 371.371094 68.945312 379.574219 68.9375 L 379.570312 69.441406 C 370.675781 69.402344 361.777344 69.5 352.882812 69.378906 Z M 352.882812 69.378906 "/>
    <path style=" stroke:none;fill-rule:nonzero;fill:rgb(29.803922%,28.627451%,29.411765%);fill-opacity:0.980392;" d="M 8.488281 69.804688 C 9.039062 69.617188 9.53125 70.042969 10.039062 70.199219 C 11.945312 70.867188 13.980469 70.972656 15.984375 71.003906 C 24.996094 71.355469 34.015625 71.066406 43.03125 71.148438 C 52.835938 71.296875 62.644531 71.09375 72.453125 71.269531 C 169.292969 71.296875 266.140625 71.289062 362.980469 71.273438 C 370.539062 71.25 378.097656 71.308594 385.65625 71.253906 C 389.195312 71.101562 392.746094 71.394531 396.28125 71.046875 C 397.308594 71.015625 398.332031 70.910156 399.363281 70.839844 C 400.710938 70.734375 402.117188 70.945312 403.417969 70.464844 C 403.984375 70.476562 404.582031 70.515625 405.054688 70.894531 C 404.625 71.160156 404.164062 71.265625 403.671875 71.210938 C 402.992188 71.113281 402.292969 71.117188 401.683594 71.460938 L 401.261719 71.632812 C 398.785156 71.738281 396.296875 71.503906 393.835938 71.832031 C 393.019531 71.917969 392.199219 71.9375 391.382812 71.921875 C 373.726562 71.851562 356.066406 71.902344 338.410156 71.921875 C 308.714844 71.855469 279.015625 71.910156 249.320312 71.886719 C 183.132812 71.902344 116.945312 71.890625 50.757812 71.898438 C 45.546875 71.902344 40.335938 71.832031 35.128906 71.957031 C 31.292969 71.886719 27.464844 71.851562 23.632812 71.921875 C 22.8125 71.9375 21.992188 71.910156 21.175781 71.824219 C 18.707031 71.5 16.214844 71.757812 13.738281 71.621094 C 13.605469 71.59375 13.34375 71.535156 13.214844 71.5 C 12.300781 71.234375 11.367188 71.023438 10.414062 71 C 9.683594 70.804688 8.863281 70.519531 8.488281 69.804688 Z M 8.488281 69.804688 "/>
    <path style=" stroke:none;fill-rule:nonzero;fill:rgb(58.823529%,56.862745%,58.039216%);fill-opacity:1;" d="M 43.792969 70.710938 C 47.066406 70.554688 50.347656 70.761719 53.628906 70.695312 C 71.621094 70.5 89.609375 70.511719 107.601562 70.535156 C 197.300781 70.550781 287 70.5 376.703125 70.554688 C 379.875 70.628906 383.070312 70.347656 386.234375 70.707031 C 389.5625 71.183594 392.949219 70.601562 396.28125 71.046875 C 392.746094 71.394531 389.195312 71.101562 385.65625 71.253906 C 378.097656 71.308594 370.539062 71.25 362.980469 71.273438 C 266.140625 71.289062 169.292969 71.296875 72.453125 71.269531 C 62.644531 71.09375 52.835938 71.296875 43.03125 71.148438 C 43.28125 70.996094 43.535156 70.851562 43.792969 70.710938 Z M 43.792969 70.710938 "/>
    <path style=" stroke:none;fill-rule:nonzero;fill:rgb(27.45098%,27.058824%,27.45098%);fill-opacity:0.568627;" d="M 10.414062 71 C 11.367188 71.023438 12.300781 71.234375 13.214844 71.5 C 12.148438 71.628906 11.09375 71.378906 10.085938 71.054688 Z M 10.414062 71 "/>
    <path style=" stroke:none;fill-rule:nonzero;fill:rgb(29.411765%,29.019608%,29.019608%);fill-opacity:0.560784;" d="M 401.683594 71.460938 C 402.292969 71.117188 402.992188 71.113281 403.671875 71.210938 L 403.695312 71.324219 C 403.164062 71.746094 402.269531 71.773438 401.683594 71.460938 Z M 401.683594 71.460938 "/>
  </g>
</svg>