<?xml version="1.0" encoding="UTF-8" standalone="no"?>
<!-- Generator: Adobe Illustrator 13.0.0, SVG Export Plug-In . SVG Version: 6.00 Build 14948)  -->

<svg
   xmlns:dc="http://purl.org/dc/elements/1.1/"
   xmlns:cc="http://creativecommons.org/ns#"
   xmlns:rdf="http://www.w3.org/1999/02/22-rdf-syntax-ns#"
   xmlns:svg="http://www.w3.org/2000/svg"
   xmlns="http://www.w3.org/2000/svg"
   xmlns:xlink="http://www.w3.org/1999/xlink"
   xmlns:sodipodi="http://sodipodi.sourceforge.net/DTD/sodipodi-0.dtd"
   xmlns:inkscape="http://www.inkscape.org/namespaces/inkscape"
   version="1.0"
   id="Layer_1"
   x="0px"
   y="0px"
   width="184.54599"
   height="88.453995"
   viewBox="0 0 184.54599 88.453994"
   enable-background="new 0 0 200 97.333"
   xml:space="preserve"
   inkscape:version="0.48.1 "
   sodipodi:docname="AJAX.svg"><metadata
   id="metadata66"><rdf:RDF><cc:Work
       rdf:about=""><dc:format>image/svg+xml</dc:format><dc:type
         rdf:resource="http://purl.org/dc/dcmitype/StillImage" /></cc:Work></rdf:RDF></metadata><defs
   id="defs64" /><sodipodi:namedview
   pagecolor="#ffffff"
   bordercolor="#666666"
   borderopacity="1"
   objecttolerance="10"
   gridtolerance="10"
   guidetolerance="10"
   inkscape:pageopacity="0"
   inkscape:pageshadow="2"
   inkscape:window-width="1280"
   inkscape:window-height="1004"
   id="namedview62"
   showgrid="false"
   fit-margin-top="0"
   fit-margin-left="0"
   fit-margin-right="0"
   fit-margin-bottom="0"
   inkscape:zoom="2.5827641"
   inkscape:cx="150.91731"
   inkscape:cy="10.34051"
   inkscape:window-x="-8"
   inkscape:window-y="-8"
   inkscape:window-maximized="1"
   inkscape:current-layer="Layer_1" />
<g
   id="g3"
   transform="translate(-3.78,-3.9340013)">
	<g
   id="g5">
		<g
   id="g7">
			<path
   id="SVGID_3_"
   d="M 9.899,3.934 C 6.535,3.934 3.78,6.688 3.78,10.046 V 86.27 c 0,3.365 2.755,6.118 6.119,6.118 h 45.606 c 3.365,0 6.118,-2.753 6.118,-6.118 V 10.046 c 0,-3.358 -2.753,-6.112 -6.118,-6.112 H 9.899 z"
   inkscape:connector-curvature="0"
   style="fill:#ee2e24" />
		</g>
		<g
   id="g10">
			<defs
   id="defs12">
				<path
   id="SVGID_1_"
   d="M 9.899,3.934 C 6.535,3.934 3.78,6.688 3.78,10.046 V 86.27 c 0,3.365 2.755,6.118 6.119,6.118 h 45.606 c 3.365,0 6.118,-2.753 6.118,-6.118 V 10.046 c 0,-3.358 -2.753,-6.112 -6.118,-6.112 H 9.899 z"
   inkscape:connector-curvature="0" />
			</defs>
			<clipPath
   id="SVGID_2_">
				<use
   xlink:href="#SVGID_1_"
   overflow="visible"
   id="use16"
   style="overflow:visible"
   x="0"
   y="0"
   width="200"
   height="97.333" />
			</clipPath>
			<rect
   x="3.7809999"
   y="3.934"
   clip-path="url(#SVGID_2_)"
   width="57.842999"
   height="88.454002"
   id="rect18"
   style="fill:#ee2e24" />
		</g>
	</g>
</g>
<g
   id="g20"
   transform="translate(-3.78,-3.9340013)">
	<g
   id="g22">
		<g
   id="g24">
			<path
   id="SVGID_9_"
   d="m 73.243,3.934 c -3.359,0 -6.113,2.754 -6.113,6.112 V 86.27 c 0,3.365 2.754,6.118 6.113,6.118 h 45.608 c 3.367,0 6.125,-2.753 6.125,-6.118 V 10.046 c 0,-3.358 -2.758,-6.112 -6.125,-6.112 H 73.243 z"
   inkscape:connector-curvature="0"
   style="fill:#ee2e24" />
		</g>
		<g
   id="g27">
			<defs
   id="defs29">
				<path
   id="SVGID_4_"
   d="m 73.243,3.934 c -3.359,0 -6.113,2.754 -6.113,6.112 V 86.27 c 0,3.365 2.754,6.118 6.113,6.118 h 45.608 c 3.367,0 6.125,-2.753 6.125,-6.118 V 10.046 c 0,-3.358 -2.758,-6.112 -6.125,-6.112 H 73.243 z"
   inkscape:connector-curvature="0" />
			</defs>
			<clipPath
   id="SVGID_5_">
				<use
   xlink:href="#SVGID_4_"
   overflow="visible"
   id="use33"
   style="overflow:visible"
   x="0"
   y="0"
   width="200"
   height="97.333" />
			</clipPath>
			<rect
   x="67.128998"
   y="3.934"
   clip-path="url(#SVGID_5_)"
   width="57.848"
   height="88.454002"
   id="rect35"
   style="fill:#ee2e24" />
		</g>
	</g>
</g>
<g
   id="g37"
   transform="translate(-3.78,-3.9340013)">
	<g
   id="g39">
		<g
   id="g41">
			<path
   id="SVGID_15_"
   d="m 136.598,3.934 c -3.367,0 -6.121,2.754 -6.121,6.112 V 86.27 c 0,3.365 2.754,6.118 6.121,6.118 h 45.61 c 3.356,0 6.118,-2.753 6.118,-6.118 V 10.046 c 0,-3.358 -2.762,-6.112 -6.118,-6.112 h -45.61 z"
   inkscape:connector-curvature="0"
   style="fill:#ee2e24" />
		</g>
		<g
   id="g44">
			<defs
   id="defs46">
				<path
   id="SVGID_6_"
   d="m 136.598,3.934 c -3.367,0 -6.121,2.754 -6.121,6.112 V 86.27 c 0,3.365 2.754,6.118 6.121,6.118 h 45.61 c 3.356,0 6.118,-2.753 6.118,-6.118 V 10.046 c 0,-3.358 -2.762,-6.112 -6.118,-6.112 h -45.61 z"
   inkscape:connector-curvature="0" />
			</defs>
			<clipPath
   id="SVGID_7_">
				<use
   xlink:href="#SVGID_6_"
   overflow="visible"
   id="use50"
   style="overflow:visible"
   x="0"
   y="0"
   width="200"
   height="97.333" />
			</clipPath>
			<rect
   x="130.47701"
   y="3.934"
   clip-path="url(#SVGID_7_)"
   width="57.851002"
   height="88.454002"
   id="rect52"
   style="fill:#ee2e24" />
		</g>
	</g>
</g>

<path
   d="M 44.995,24.392999 H 11.247 c -0.389,0 -0.714,0.318 -0.714,0.707 v 6.669 c 0,0.393 0.325,0.713 0.714,0.713 h 9.999 c 1.683,0 3.034,1.357 3.034,3.034 v 30.125 c 0,0.395 0.318,0.713 0.713,0.713 h 6.669 c 0.396,0 0.712,-0.318 0.712,-0.713 v -30.126 c 0,-1.677 1.357,-3.034 3.035,-3.034 h 9.585 c 0.395,0 0.722,-0.32 0.722,-0.713 v -6.669 c 0.002,-0.388 -0.326,-0.706 -0.721,-0.706"
   id="path56"
   inkscape:connector-curvature="0"
   style="fill:#ffffff" />
<path
   d="M 104.461,58.258999 H 92.16 c -2.148,0 -3.881,-1.735 -3.881,-3.878 v -29.282 c 0,-0.388 -0.317,-0.707 -0.712,-0.707 h -6.662 c -0.394,0 -0.715,0.318 -0.715,0.707 v 31.852 c 0,5.314 2.762,9.404 9.146,9.404 h 15.125 c 0.401,0 0.711,-0.322 0.711,-0.718 v -6.657 c 0,-0.391 -0.309,-0.721 -0.711,-0.721"
   id="path58"
   inkscape:connector-curvature="0"
   style="fill:#ffffff" />
<path
   d="m 171.688,59.819999 -4.716,-4.711 c -0.277,-0.273 -0.756,-0.273 -1.038,0 l 0.007,-0.012 c -2.303,2.061 -5.355,3.322 -8.688,3.322 -7.205,0 -13.054,-5.85 -13.054,-13.042 0,-7.208 5.849,-13.041 13.054,-13.041 3.333,0 6.382,1.257 8.688,3.314 l -0.007,-0.007 c 0.282,0.281 0.761,0.281 1.038,0.007 l 4.716,-4.718 c 0.248,-0.258 0.259,-0.659 0.036,-0.943 -3.785,-3.566 -8.87,-5.754 -14.473,-5.754 -11.678,0 -21.143,9.464 -21.143,21.142 0,11.66 9.465,21.129 21.143,21.129 5.603,0 10.699,-2.192 14.473,-5.747 0.223,-0.273 0.212,-0.683 -0.036,-0.939"
   id="path60"
   inkscape:connector-curvature="0"
   style="fill:#ffffff" />
</svg>