<?xml version="1.0" encoding="UTF-8" ?>
<!DOCTYPE svg PUBLIC "-//W3C//DTD SVG 1.1//EN" "http://www.w3.org/Graphics/SVG/1.1/DTD/svg11.dtd">
<svg width="750pt" height="750pt" viewBox="0 0 750 750" version="1.1" xmlns="http://www.w3.org/2000/svg">
<g id="#e00052ff">
<path fill="#e00052" opacity="1.00" d=" M 580.47 37.22 C 582.50 27.90 591.13 21.27 600.22 19.60 C 607.74 18.34 615.39 18.51 622.99 18.52 C 652.00 18.51 681.01 18.53 710.02 18.51 C 715.61 18.61 721.76 19.99 725.60 24.38 C 728.35 27.95 729.94 32.44 729.98 36.95 C 729.99 65.29 729.98 93.64 729.98 121.98 C 729.76 129.86 730.81 137.94 728.43 145.60 C 726.37 153.69 720.48 161.13 712.22 163.39 C 704.09 165.73 694.13 165.40 687.79 159.15 C 682.00 153.32 680.43 144.85 675.77 138.28 C 672.35 133.45 665.27 131.19 659.87 133.91 C 654.07 136.60 649.13 140.75 644.24 144.81 C 698.98 208.05 730.40 291.23 729.98 374.95 C 730.93 456.12 702.15 537.09 650.82 599.90 C 603.27 658.78 536.39 701.84 462.96 720.33 C 409.66 733.98 353.23 734.95 299.47 723.27 C 222.84 706.89 152.31 663.95 102.29 603.68 C 76.52 572.91 56.05 537.71 42.06 500.09 C 11.61 418.86 12.58 326.40 44.60 245.78 C 68.19 185.85 108.60 132.73 159.84 93.73 C 194.49 67.26 234.07 47.25 275.96 35.14 C 358.60 11.07 449.97 18.23 527.60 55.53 C 554.49 68.32 579.67 84.61 602.56 103.62 C 605.89 99.12 609.21 94.56 611.67 89.51 C 614.84 83.66 612.43 75.60 606.71 72.27 C 599.98 68.12 591.62 66.84 585.66 61.39 C 579.28 55.28 578.55 45.39 580.47 37.22 M 430.65 290.65 C 412.53 292.48 395.11 301.45 383.50 315.55 C 363.37 339.39 361.66 376.37 378.62 402.39 C 389.44 419.40 408.15 430.85 428.04 433.57 C 442.34 435.77 457.28 433.57 470.38 427.44 C 485.09 420.76 497.14 408.63 504.09 394.08 C 512.71 375.52 513.39 353.39 505.77 334.38 C 500.28 320.44 490.09 308.48 477.29 300.73 C 463.46 292.27 446.72 288.81 430.65 290.65 M 120.88 292.89 C 120.79 339.17 120.79 385.45 120.88 431.72 C 154.01 431.85 187.15 431.69 220.28 431.80 C 220.67 423.07 220.50 414.32 220.37 405.59 C 196.56 405.59 172.74 405.59 148.93 405.59 C 148.95 394.55 148.85 383.51 148.98 372.46 C 167.43 372.52 185.88 372.47 204.33 372.49 C 204.34 364.41 204.34 356.32 204.33 348.24 C 185.86 348.25 167.39 348.24 148.92 348.24 C 148.92 338.49 148.92 328.75 148.93 319.00 C 172.27 318.99 195.61 318.98 218.95 319.00 C 218.96 310.29 218.96 301.57 218.95 292.85 C 186.26 292.87 153.57 292.80 120.88 292.89 M 249.75 292.85 C 249.80 339.15 249.62 385.45 249.84 431.74 C 259.04 431.79 268.25 431.77 277.46 431.75 C 277.45 415.98 277.45 400.20 277.46 384.43 C 284.95 384.40 292.44 384.47 299.94 384.39 C 309.10 400.19 318.34 415.94 327.48 431.75 C 337.83 431.77 348.17 431.80 358.52 431.73 C 348.21 414.06 337.38 396.70 326.91 379.12 C 332.51 376.74 337.84 373.52 341.98 369.01 C 351.63 359.10 354.46 344.16 352.21 330.86 C 350.73 320.19 344.81 310.21 336.14 303.81 C 325.56 295.83 312.05 293.17 299.05 292.86 C 282.62 292.83 266.18 292.86 249.75 292.85 M 515.37 292.90 C 530.62 315.40 545.77 337.98 561.14 360.41 C 545.08 384.24 528.60 407.80 512.67 431.73 C 523.65 431.82 534.63 431.74 545.62 431.77 C 556.66 415.87 568.47 400.47 578.02 383.60 C 582.22 390.49 585.94 397.70 590.77 404.18 C 597.25 413.41 603.68 422.68 610.30 431.81 C 621.27 431.73 632.25 431.76 643.23 431.80 C 627.26 407.92 610.82 384.37 594.77 360.55 C 609.86 337.88 625.44 315.52 640.62 292.89 C 629.47 292.78 618.33 292.90 607.18 292.83 C 600.78 302.21 594.64 311.76 588.16 321.09 C 584.30 326.56 581.51 332.67 577.91 338.31 C 569.22 322.49 558.64 307.81 548.58 292.86 C 537.51 292.87 526.44 292.80 515.37 292.90 M 293.61 471.39 C 293.61 499.23 293.60 527.06 293.61 554.90 C 302.20 554.89 310.80 554.89 319.39 554.90 C 319.40 545.02 319.40 535.13 319.39 525.25 C 326.45 525.25 333.50 525.25 340.56 525.26 C 340.56 535.14 340.55 545.01 340.56 554.90 C 349.15 554.90 357.74 554.88 366.34 554.90 C 366.35 527.07 366.34 499.23 366.34 471.39 C 357.75 471.38 349.15 471.38 340.56 471.39 C 340.56 481.17 340.55 490.95 340.56 500.72 C 333.50 500.73 326.45 500.73 319.39 500.73 C 319.40 490.95 319.39 481.17 319.40 471.39 C 310.80 471.38 302.20 471.38 293.61 471.39 M 375.98 471.39 C 375.96 499.22 375.96 527.06 375.98 554.89 C 388.99 554.90 402.00 554.88 415.01 554.91 C 426.88 554.72 438.79 549.64 446.55 540.55 C 459.66 525.69 459.46 501.36 446.72 486.35 C 438.58 476.48 425.67 470.96 412.95 471.37 C 400.62 471.41 388.30 471.37 375.98 471.39 Z" />
<path fill="#e00052" opacity="1.00" d=" M 428.48 318.68 C 440.50 316.02 453.72 317.90 464.01 324.85 C 472.48 330.44 478.23 339.63 480.55 349.42 C 483.22 360.20 482.50 371.85 478.26 382.14 C 473.43 393.51 463.21 402.51 451.17 405.46 C 437.01 409.16 420.71 406.37 409.82 396.21 C 401.08 388.39 396.60 376.67 396.05 365.12 C 395.51 353.91 398.20 342.19 405.19 333.23 C 410.79 325.70 419.37 320.63 428.48 318.68 Z" />
<path fill="#e00052" opacity="1.00" d=" M 277.46 359.41 C 277.45 345.94 277.45 332.47 277.46 318.99 C 285.99 318.99 294.52 319.00 303.05 318.98 C 309.05 318.96 315.11 321.32 319.29 325.66 C 324.73 331.96 325.52 341.57 321.94 348.96 C 318.43 355.81 310.50 359.65 302.98 359.44 C 294.47 359.39 285.97 359.42 277.46 359.41 Z" />
<path fill="#e00052" opacity="1.00" d=" M 401.75 495.62 C 408.46 495.98 415.84 494.35 421.89 498.09 C 432.10 504.14 432.79 521.31 422.67 527.76 C 416.46 531.85 408.74 530.38 401.75 530.64 C 401.75 518.97 401.75 507.30 401.75 495.62 Z" />
</g>
<g id="#ffffffff">
<path fill="#ffffff" opacity="1.00" d=" M 430.65 290.65 C 446.72 288.81 463.46 292.27 477.29 300.73 C 490.09 308.48 500.28 320.44 505.77 334.38 C 513.39 353.39 512.71 375.52 504.09 394.08 C 497.14 408.63 485.09 420.76 470.38 427.44 C 457.28 433.57 442.34 435.77 428.04 433.57 C 408.15 430.85 389.44 419.40 378.62 402.39 C 361.66 376.37 363.37 339.39 383.50 315.55 C 395.11 301.45 412.53 292.48 430.65 290.65 M 428.48 318.68 C 419.37 320.63 410.79 325.70 405.19 333.23 C 398.20 342.19 395.51 353.91 396.05 365.12 C 396.60 376.67 401.08 388.39 409.82 396.21 C 420.71 406.37 437.01 409.16 451.17 405.46 C 463.21 402.51 473.43 393.51 478.26 382.14 C 482.50 371.85 483.22 360.20 480.55 349.42 C 478.23 339.63 472.48 330.44 464.01 324.85 C 453.72 317.90 440.50 316.02 428.48 318.68 Z" />
<path fill="#ffffff" opacity="1.00" d=" M 120.88 292.89 C 153.57 292.80 186.26 292.87 218.95 292.85 C 218.96 301.57 218.96 310.29 218.95 319.00 C 195.61 318.98 172.27 318.99 148.93 319.00 C 148.92 328.75 148.92 338.49 148.92 348.24 C 167.39 348.24 185.86 348.25 204.33 348.24 C 204.34 356.32 204.34 364.41 204.33 372.49 C 185.88 372.47 167.43 372.52 148.98 372.46 C 148.85 383.51 148.95 394.55 148.93 405.59 C 172.74 405.59 196.56 405.59 220.37 405.59 C 220.50 414.32 220.67 423.07 220.28 431.80 C 187.15 431.69 154.01 431.85 120.88 431.72 C 120.79 385.45 120.79 339.17 120.88 292.89 Z" />
<path fill="#ffffff" opacity="1.00" d=" M 249.75 292.85 C 266.18 292.86 282.62 292.83 299.05 292.86 C 312.05 293.17 325.56 295.83 336.14 303.81 C 344.81 310.21 350.73 320.19 352.21 330.86 C 354.46 344.16 351.63 359.10 341.98 369.01 C 337.84 373.52 332.51 376.74 326.91 379.12 C 337.38 396.70 348.21 414.06 358.52 431.73 C 348.17 431.80 337.83 431.77 327.48 431.75 C 318.34 415.94 309.10 400.19 299.94 384.39 C 292.44 384.47 284.95 384.40 277.46 384.43 C 277.45 400.20 277.45 415.98 277.46 431.75 C 268.25 431.77 259.04 431.79 249.84 431.74 C 249.62 385.45 249.80 339.15 249.75 292.85 M 277.46 359.41 C 285.97 359.42 294.47 359.39 302.98 359.44 C 310.50 359.65 318.43 355.81 321.94 348.96 C 325.52 341.57 324.73 331.96 319.29 325.66 C 315.11 321.32 309.05 318.96 303.05 318.98 C 294.52 319.00 285.99 318.99 277.46 318.99 C 277.45 332.47 277.45 345.94 277.46 359.41 Z" />
<path fill="#ffffff" opacity="1.00" d=" M 515.37 292.90 C 526.44 292.80 537.51 292.87 548.58 292.86 C 558.64 307.81 569.22 322.49 577.91 338.31 C 581.51 332.67 584.30 326.56 588.16 321.09 C 594.64 311.76 600.78 302.21 607.18 292.83 C 618.33 292.90 629.47 292.78 640.62 292.89 C 625.44 315.52 609.86 337.88 594.77 360.55 C 610.82 384.37 627.26 407.92 643.23 431.80 C 632.25 431.76 621.27 431.73 610.30 431.81 C 603.68 422.68 597.25 413.41 590.77 404.18 C 585.94 397.70 582.22 390.49 578.02 383.60 C 568.47 400.47 556.66 415.87 545.62 431.77 C 534.63 431.74 523.65 431.82 512.67 431.73 C 528.60 407.80 545.08 384.24 561.14 360.41 C 545.77 337.98 530.62 315.40 515.37 292.90 Z" />
<path fill="#ffffff" opacity="1.00" d=" M 293.61 471.39 C 302.20 471.38 310.80 471.38 319.40 471.39 C 319.39 481.17 319.40 490.95 319.39 500.73 C 326.45 500.73 333.50 500.73 340.56 500.72 C 340.55 490.95 340.56 481.17 340.56 471.39 C 349.15 471.38 357.75 471.38 366.34 471.39 C 366.34 499.23 366.35 527.07 366.34 554.90 C 357.74 554.88 349.15 554.90 340.56 554.90 C 340.55 545.01 340.56 535.14 340.56 525.26 C 333.50 525.25 326.45 525.25 319.39 525.25 C 319.40 535.13 319.40 545.02 319.39 554.90 C 310.80 554.89 302.20 554.89 293.61 554.90 C 293.60 527.06 293.61 499.23 293.61 471.39 Z" />
<path fill="#ffffff" opacity="1.00" d=" M 375.98 471.39 C 388.30 471.37 400.62 471.41 412.95 471.37 C 425.67 470.96 438.58 476.48 446.72 486.35 C 459.46 501.36 459.66 525.69 446.55 540.55 C 438.79 549.64 426.88 554.72 415.01 554.91 C 402.00 554.88 388.99 554.90 375.98 554.89 C 375.96 527.06 375.96 499.22 375.98 471.39 M 401.75 495.62 C 401.75 507.30 401.75 518.97 401.75 530.64 C 408.74 530.38 416.46 531.85 422.67 527.76 C 432.79 521.31 432.10 504.14 421.89 498.09 C 415.84 494.35 408.46 495.98 401.75 495.62 Z" />
</g>
</svg>
