<?xml version="1.0" encoding="UTF-8" ?>
<!DOCTYPE svg PUBLIC "-//W3C//DTD SVG 1.1//EN" "http://www.w3.org/Graphics/SVG/1.1/DTD/svg11.dtd">
<svg width="400pt" height="400pt" viewBox="0 0 400 400" version="1.1" xmlns="http://www.w3.org/2000/svg">
<g id="#da1d52ff">
<path fill="#da1d52" opacity="1.00" d=" M 315.27 12.24 C 319.41 9.75 324.38 10.06 329.02 10.00 C 346.03 10.06 363.05 9.92 380.06 10.07 C 384.86 9.92 389.24 14.05 388.98 18.93 C 389.02 36.97 389.00 55.01 388.99 73.04 C 389.02 77.44 387.30 82.00 383.90 84.89 C 379.66 88.15 373.42 88.77 368.66 86.30 C 364.00 83.61 363.21 77.81 360.30 73.71 C 358.89 71.62 356.29 70.65 353.84 70.71 C 349.82 71.75 346.70 74.68 343.48 77.14 C 367.49 104.99 383.23 139.94 387.75 176.46 C 389.44 188.25 389.03 200.20 388.88 212.07 C 387.01 246.46 375.20 280.19 355.52 308.42 C 325.29 352.28 275.85 382.33 222.87 388.40 C 190.45 392.35 156.99 387.82 126.87 375.14 C 93.15 361.07 63.76 336.95 43.27 306.71 C 24.28 278.82 12.89 245.72 11.10 212.00 C 11.00 199.98 10.53 187.89 12.27 175.96 C 17.22 136.89 34.96 99.64 61.96 71.00 C 87.58 43.63 121.50 24.11 158.11 15.93 C 194.07 7.80 232.40 10.37 266.88 23.44 C 286.61 30.91 305.08 41.70 321.26 55.24 C 323.94 51.28 328.45 46.79 326.28 41.62 C 324.15 37.43 318.99 36.83 315.24 34.75 C 306.59 30.70 307.15 16.56 315.27 12.24 M 257.48 102.80 C 245.58 105.59 235.27 114.58 231.18 126.13 C 226.53 138.62 228.43 153.57 236.78 164.08 C 245.95 176.02 262.54 181.09 276.97 177.22 C 286.54 174.80 295.16 168.59 300.14 160.02 C 305.99 150.10 307.05 137.53 303.17 126.72 C 300.00 117.34 292.77 109.46 283.79 105.32 C 275.65 101.51 266.20 100.70 257.48 102.80 M 97.43 103.22 C 97.49 127.78 97.42 152.33 97.47 176.89 C 115.16 176.98 132.86 176.91 150.55 176.91 C 150.55 172.38 150.54 167.84 150.57 163.30 C 137.84 163.29 125.11 163.28 112.39 163.31 C 112.40 157.41 112.39 151.51 112.39 145.61 C 122.23 145.61 132.07 145.67 141.91 145.57 C 141.88 141.23 141.85 136.88 141.93 132.54 C 132.09 132.48 122.24 132.51 112.39 132.53 C 112.48 127.27 112.19 122.01 112.56 116.76 C 125.00 116.97 137.45 116.81 149.90 116.84 C 149.88 112.30 149.87 107.76 149.91 103.22 C 132.42 103.19 114.93 103.18 97.43 103.22 M 166.17 103.21 C 166.20 127.78 166.19 152.34 166.17 176.91 C 171.17 176.85 176.17 177.06 181.17 176.88 C 181.12 168.50 181.18 160.13 181.13 151.76 C 185.06 151.75 189.00 151.75 192.93 151.77 C 197.67 160.15 202.71 168.36 207.36 176.79 C 212.93 176.94 218.52 177.08 224.09 176.88 C 218.50 167.59 212.87 158.33 207.30 149.04 C 209.64 147.91 212.00 146.71 213.98 144.98 C 224.43 135.80 223.39 116.91 212.09 108.83 C 206.60 104.85 199.71 103.18 193.00 103.19 C 184.05 103.21 175.11 103.18 166.17 103.21 M 96.30 200.60 C 104.52 212.51 112.52 224.57 120.73 236.49 C 112.10 249.14 103.54 261.84 94.78 274.41 C 100.73 274.38 106.67 274.47 112.62 274.35 C 118.36 265.88 124.62 257.76 129.74 248.88 C 134.65 257.89 140.97 266.00 146.80 274.42 C 152.69 274.39 158.57 274.42 164.46 274.40 C 155.77 261.84 147.24 249.16 138.58 236.58 C 146.74 224.57 154.83 212.51 163.13 200.60 C 157.14 200.60 151.15 200.57 145.16 200.61 C 139.99 208.64 134.17 216.25 129.71 224.71 C 125.04 216.32 119.35 208.59 114.08 200.58 C 108.16 200.61 102.23 200.57 96.30 200.60 M 168.15 200.60 C 176.36 212.58 184.53 224.59 192.58 236.67 C 183.80 249.15 175.40 261.90 166.66 274.41 C 172.54 274.41 178.43 274.39 184.31 274.42 C 190.26 266.06 196.36 257.78 201.57 248.92 C 206.54 257.89 212.83 266.01 218.66 274.43 C 224.54 274.38 230.43 274.43 236.31 274.39 C 227.60 261.90 219.23 249.17 210.44 236.73 C 218.44 224.57 226.72 212.59 234.98 200.60 C 228.99 200.59 223.01 200.58 217.02 200.61 C 211.76 208.57 206.18 216.34 201.45 224.65 C 196.97 216.22 191.13 208.62 185.97 200.60 C 180.03 200.59 174.09 200.59 168.15 200.60 M 240.03 200.61 C 248.22 212.57 256.34 224.58 264.43 236.60 C 255.74 249.16 247.23 261.85 238.54 274.41 C 244.42 274.42 250.31 274.40 256.20 274.41 C 262.05 266.01 268.32 257.87 273.34 248.92 C 278.41 257.77 284.63 265.87 290.33 274.32 C 296.29 274.52 302.26 274.35 308.23 274.41 C 299.44 261.87 290.96 249.12 282.25 236.52 C 290.50 224.59 298.55 212.52 306.80 200.58 C 300.84 200.60 294.88 200.60 288.91 200.59 C 283.69 208.59 277.86 216.23 273.46 224.75 C 268.77 216.38 263.07 208.65 257.86 200.61 C 251.92 200.57 245.97 200.59 240.03 200.61 M 161.22 307.90 C 161.10 322.74 161.26 337.57 161.14 352.41 C 165.72 352.45 170.30 352.45 174.89 352.41 C 174.81 347.15 174.85 341.90 174.84 336.64 C 178.63 336.62 182.42 336.62 186.20 336.64 C 186.19 341.89 186.23 347.15 186.16 352.41 C 190.74 352.45 195.32 352.44 199.90 352.41 C 199.78 337.57 199.95 322.73 199.82 307.89 C 195.29 307.89 190.77 307.89 186.24 307.89 C 186.16 313.10 186.21 318.31 186.21 323.53 C 182.39 323.50 178.58 323.66 174.77 323.41 C 174.90 318.24 174.86 313.06 174.80 307.89 C 170.27 307.89 165.75 307.88 161.22 307.90 M 205.11 307.76 C 205.10 322.64 205.17 337.53 205.07 352.41 C 211.72 352.46 218.36 352.41 225.01 352.45 C 231.63 352.51 238.38 349.79 242.73 344.71 C 249.49 336.81 249.50 324.06 242.87 316.07 C 238.80 311.00 232.40 308.14 225.97 307.87 C 219.02 307.57 212.06 307.78 205.11 307.76 Z" />
<path fill="#da1d52" opacity="1.00" d=" M 261.49 116.80 C 267.99 115.53 275.17 116.38 280.66 120.26 C 293.41 129.36 293.25 151.41 280.20 160.17 C 272.80 164.95 262.67 165.19 255.03 160.83 C 244.39 154.68 241.60 140.02 246.26 129.25 C 248.89 122.92 254.78 118.16 261.49 116.80 Z" />
<path fill="#da1d52" opacity="1.00" d=" M 181.16 116.86 C 187.59 117.29 194.52 115.66 200.56 118.48 C 208.00 122.21 207.40 134.56 199.66 137.60 C 193.73 139.66 187.28 138.24 181.12 138.64 C 181.18 131.38 181.12 124.12 181.16 116.86 Z" />
<path fill="#da1d52" opacity="1.00" d=" M 218.77 320.83 C 222.63 320.89 227.00 320.17 230.30 322.68 C 234.99 326.30 235.00 334.51 230.05 337.94 C 226.74 340.14 222.52 339.40 218.76 339.54 C 218.77 333.30 218.76 327.07 218.77 320.83 Z" />
</g>
<g id="#ffffffff">
<path fill="#ffffff" opacity="1.00" d=" M 257.48 102.80 C 266.20 100.70 275.65 101.51 283.79 105.32 C 292.77 109.46 300.00 117.34 303.17 126.72 C 307.05 137.53 305.99 150.10 300.14 160.02 C 295.16 168.59 286.54 174.80 276.97 177.22 C 262.54 181.09 245.95 176.02 236.78 164.08 C 228.43 153.57 226.53 138.62 231.18 126.13 C 235.27 114.58 245.58 105.59 257.48 102.80 M 261.49 116.80 C 254.78 118.16 248.89 122.92 246.26 129.25 C 241.60 140.02 244.39 154.68 255.03 160.83 C 262.67 165.19 272.80 164.95 280.20 160.17 C 293.25 151.41 293.41 129.36 280.66 120.26 C 275.17 116.38 267.99 115.53 261.49 116.80 Z" />
<path fill="#ffffff" opacity="1.00" d=" M 97.43 103.22 C 114.93 103.18 132.42 103.19 149.91 103.22 C 149.87 107.76 149.88 112.30 149.90 116.84 C 137.45 116.81 125.00 116.97 112.56 116.76 C 112.19 122.01 112.48 127.27 112.39 132.53 C 122.24 132.51 132.09 132.48 141.93 132.54 C 141.85 136.88 141.88 141.23 141.91 145.57 C 132.07 145.67 122.23 145.61 112.39 145.61 C 112.39 151.51 112.40 157.41 112.39 163.31 C 125.11 163.28 137.84 163.29 150.57 163.30 C 150.54 167.84 150.55 172.38 150.55 176.91 C 132.86 176.91 115.16 176.98 97.47 176.89 C 97.42 152.33 97.49 127.78 97.43 103.22 Z" />
<path fill="#ffffff" opacity="1.00" d=" M 166.17 103.21 C 175.11 103.18 184.05 103.21 193.00 103.19 C 199.71 103.18 206.60 104.85 212.09 108.83 C 223.39 116.91 224.43 135.80 213.98 144.98 C 212.00 146.71 209.64 147.91 207.30 149.04 C 212.87 158.33 218.50 167.59 224.09 176.88 C 218.52 177.08 212.93 176.94 207.36 176.79 C 202.71 168.36 197.67 160.15 192.93 151.77 C 189.00 151.75 185.06 151.75 181.13 151.76 C 181.18 160.13 181.12 168.50 181.17 176.88 C 176.17 177.06 171.17 176.85 166.17 176.91 C 166.19 152.34 166.20 127.78 166.17 103.21 M 181.16 116.86 C 181.12 124.12 181.18 131.38 181.12 138.64 C 187.28 138.24 193.73 139.66 199.66 137.60 C 207.40 134.56 208.00 122.21 200.56 118.48 C 194.52 115.66 187.59 117.29 181.16 116.86 Z" />
<path fill="#ffffff" opacity="1.00" d=" M 96.30 200.60 C 102.23 200.57 108.16 200.61 114.08 200.58 C 119.35 208.59 125.04 216.32 129.71 224.71 C 134.17 216.25 139.99 208.64 145.16 200.61 C 151.15 200.57 157.14 200.60 163.13 200.60 C 154.83 212.51 146.74 224.57 138.58 236.58 C 147.24 249.16 155.77 261.84 164.46 274.40 C 158.57 274.42 152.69 274.39 146.80 274.42 C 140.97 266.00 134.65 257.89 129.74 248.88 C 124.62 257.76 118.36 265.88 112.62 274.35 C 106.67 274.47 100.73 274.38 94.78 274.41 C 103.54 261.84 112.10 249.14 120.73 236.49 C 112.52 224.57 104.52 212.51 96.30 200.60 Z" />
<path fill="#ffffff" opacity="1.00" d=" M 168.15 200.60 C 174.09 200.59 180.03 200.59 185.97 200.60 C 191.13 208.62 196.97 216.22 201.45 224.65 C 206.18 216.34 211.76 208.57 217.02 200.61 C 223.01 200.58 228.99 200.59 234.98 200.60 C 226.72 212.59 218.44 224.57 210.44 236.73 C 219.23 249.17 227.60 261.90 236.31 274.39 C 230.43 274.43 224.54 274.38 218.66 274.43 C 212.83 266.01 206.54 257.89 201.57 248.92 C 196.36 257.78 190.26 266.06 184.31 274.42 C 178.43 274.39 172.54 274.41 166.66 274.41 C 175.40 261.90 183.80 249.15 192.58 236.67 C 184.53 224.59 176.36 212.58 168.15 200.60 Z" />
<path fill="#ffffff" opacity="1.00" d=" M 240.03 200.61 C 245.97 200.59 251.92 200.57 257.86 200.61 C 263.07 208.65 268.77 216.38 273.46 224.75 C 277.86 216.23 283.69 208.59 288.91 200.59 C 294.88 200.60 300.84 200.60 306.80 200.58 C 298.55 212.52 290.50 224.59 282.25 236.52 C 290.96 249.12 299.44 261.87 308.23 274.41 C 302.26 274.35 296.29 274.52 290.33 274.32 C 284.63 265.87 278.41 257.77 273.34 248.92 C 268.32 257.87 262.05 266.01 256.20 274.41 C 250.31 274.40 244.42 274.42 238.54 274.41 C 247.23 261.85 255.74 249.16 264.43 236.60 C 256.34 224.58 248.22 212.57 240.03 200.61 Z" />
<path fill="#ffffff" opacity="1.00" d=" M 161.22 307.90 C 165.75 307.88 170.27 307.89 174.80 307.89 C 174.86 313.06 174.90 318.24 174.77 323.41 C 178.58 323.66 182.39 323.50 186.21 323.53 C 186.21 318.31 186.16 313.10 186.24 307.89 C 190.77 307.89 195.29 307.89 199.82 307.89 C 199.95 322.73 199.78 337.57 199.90 352.41 C 195.32 352.44 190.74 352.45 186.16 352.41 C 186.23 347.15 186.19 341.89 186.20 336.64 C 182.42 336.62 178.63 336.62 174.84 336.64 C 174.85 341.90 174.81 347.15 174.89 352.41 C 170.30 352.45 165.72 352.45 161.14 352.41 C 161.26 337.57 161.10 322.74 161.22 307.90 Z" />
<path fill="#ffffff" opacity="1.00" d=" M 205.11 307.76 C 212.06 307.78 219.02 307.57 225.97 307.87 C 232.40 308.14 238.80 311.00 242.87 316.07 C 249.50 324.06 249.49 336.81 242.73 344.71 C 238.38 349.79 231.63 352.51 225.01 352.45 C 218.36 352.41 211.72 352.46 205.07 352.41 C 205.17 337.53 205.10 322.64 205.11 307.76 M 218.77 320.83 C 218.76 327.07 218.77 333.30 218.76 339.54 C 222.52 339.40 226.74 340.14 230.05 337.94 C 235.00 334.51 234.99 326.30 230.30 322.68 C 227.00 320.17 222.63 320.89 218.77 320.83 Z" />
</g>
</svg>
