<?xml version="1.0" encoding="UTF-8" ?>
<!DOCTYPE svg PUBLIC "-//W3C//DTD SVG 1.1//EN" "http://www.w3.org/Graphics/SVG/1.1/DTD/svg11.dtd">
<svg width="200pt" height="200pt" viewBox="0 0 200 200" version="1.1" xmlns="http://www.w3.org/2000/svg">
<g id="#ffffffff">
<path fill="#ffffff" opacity="1.00" d=" M 149.67 75.49 C 154.68 75.43 159.85 74.85 164.72 76.30 C 170.16 78.13 171.08 86.32 166.69 89.71 C 163.70 91.88 159.80 91.59 156.29 91.89 C 156.29 93.99 156.28 96.09 156.27 98.19 C 154.09 98.20 151.91 98.20 149.73 98.19 C 149.68 90.63 149.75 83.06 149.67 75.49 M 156.43 80.59 C 156.35 82.55 156.30 84.51 156.27 86.48 C 158.34 86.04 162.56 87.01 162.75 83.94 C 163.28 80.53 158.57 81.04 156.43 80.59 Z" />
<path fill="#ffffff" opacity="1.00" d=" M 177.75 75.42 C 180.14 75.39 182.54 75.38 184.93 75.38 C 182.42 79.64 179.67 83.83 178.13 88.57 C 179.67 88.58 181.23 88.58 182.78 88.58 C 182.76 87.08 182.75 85.57 182.74 84.07 C 184.93 83.94 187.13 83.86 189.34 83.81 C 189.36 88.60 189.36 93.40 189.34 98.19 C 187.15 98.19 184.97 98.19 182.79 98.17 C 182.78 96.78 182.77 95.39 182.76 94.01 C 178.69 94.00 174.61 94.02 170.54 93.94 C 171.41 87.28 174.22 81.08 177.75 75.42 Z" />
<path fill="#ffffff" opacity="1.00" d=" M 22.82 78.96 C 22.90 77.86 22.55 76.49 23.73 75.84 C 33.81 75.67 43.89 75.82 53.98 75.77 C 58.00 75.85 62.64 76.17 65.48 79.43 C 68.33 83.20 68.21 88.85 65.76 92.78 C 63.06 96.37 58.15 96.81 54.00 96.77 C 43.61 96.69 33.22 96.94 22.83 96.63 C 22.85 90.74 22.84 84.85 22.82 78.96 M 36.18 79.68 C 36.22 84.18 36.08 88.69 36.33 93.19 C 41.61 92.83 47.42 93.85 52.29 91.45 C 55.12 88.46 54.94 81.19 50.13 80.16 C 45.55 79.21 40.83 79.73 36.18 79.68 Z" />
<path fill="#ffffff" opacity="1.00" d=" M 72.46 96.75 C 72.44 89.76 72.40 82.77 72.48 75.79 C 83.32 75.76 94.15 75.77 104.98 75.77 C 108.17 75.79 112.08 76.06 113.98 79.03 C 115.07 81.63 115.36 85.17 113.06 87.22 C 111.34 88.94 108.73 89.03 106.52 89.62 C 110.00 91.84 113.37 94.24 116.67 96.73 C 111.21 96.72 105.74 96.94 100.29 96.65 C 97.80 95.24 95.95 92.95 93.48 91.49 C 90.89 91.15 88.26 91.37 85.65 91.35 C 85.56 93.13 85.75 94.97 85.32 96.73 C 81.03 96.86 76.75 96.74 72.46 96.75 M 85.61 79.67 C 85.60 82.29 85.60 84.91 85.62 87.54 C 90.18 87.45 94.78 87.89 99.31 87.25 C 102.29 86.40 101.69 83.04 101.35 80.70 C 96.30 78.86 90.85 79.90 85.61 79.67 Z" />
</g>
<g id="#000000ff">
<path fill="#000000" opacity="1.00" d=" M 0.00 65.96 C 46.18 65.96 92.36 65.96 138.55 65.96 C 138.55 79.80 138.50 93.65 138.57 107.50 C 92.38 107.51 46.19 107.50 0.00 107.50 L 0.00 65.96 M 22.82 78.96 C 22.84 84.85 22.85 90.74 22.83 96.63 C 33.22 96.94 43.61 96.69 54.00 96.77 C 58.15 96.81 63.06 96.37 65.76 92.78 C 68.21 88.85 68.33 83.20 65.48 79.43 C 62.64 76.17 58.00 75.85 53.98 75.77 C 43.89 75.82 33.81 75.67 23.73 75.84 C 22.55 76.49 22.90 77.86 22.82 78.96 M 72.46 96.75 C 76.75 96.74 81.03 96.86 85.32 96.73 C 85.75 94.97 85.56 93.13 85.65 91.35 C 88.26 91.37 90.89 91.15 93.48 91.49 C 95.95 92.95 97.80 95.24 100.29 96.65 C 105.74 96.94 111.21 96.72 116.67 96.73 C 113.37 94.24 110.00 91.84 106.52 89.62 C 108.73 89.03 111.34 88.94 113.06 87.22 C 115.36 85.17 115.07 81.63 113.98 79.03 C 112.08 76.06 108.17 75.79 104.98 75.77 C 94.15 75.77 83.32 75.76 72.48 75.79 C 72.40 82.77 72.44 89.76 72.46 96.75 Z" />
<path fill="#000000" opacity="1.00" d=" M 36.18 79.68 C 40.83 79.73 45.55 79.21 50.13 80.16 C 54.94 81.19 55.12 88.46 52.29 91.45 C 47.42 93.85 41.61 92.83 36.33 93.19 C 36.08 88.69 36.22 84.18 36.18 79.68 Z" />
<path fill="#000000" opacity="1.00" d=" M 85.61 79.67 C 90.85 79.90 96.30 78.86 101.35 80.70 C 101.69 83.04 102.29 86.40 99.31 87.25 C 94.78 87.89 90.18 87.45 85.62 87.54 C 85.60 84.91 85.60 82.29 85.61 79.67 Z" />
<path fill="#000000" opacity="1.00" d=" M 102.67 144.82 C 103.92 144.81 105.17 144.80 106.43 144.79 C 106.41 150.69 106.73 156.61 106.28 162.50 C 105.84 166.11 101.93 166.87 98.99 167.36 C 97.34 166.89 95.63 166.60 94.09 165.83 C 92.18 164.87 92.29 162.48 91.72 160.73 C 92.63 160.71 94.44 160.67 95.35 160.65 C 95.77 161.60 96.21 162.55 96.64 163.50 C 98.58 163.22 101.42 164.40 102.42 162.08 C 102.91 156.34 102.46 150.57 102.67 144.82 Z" />
<path fill="#000000" opacity="1.00" d=" M 32.12 144.79 C 36.97 144.82 41.82 144.83 46.67 144.79 C 46.75 145.98 46.82 147.18 46.90 148.38 C 43.18 148.41 39.46 148.40 35.75 148.40 C 35.75 150.24 35.75 152.09 35.76 153.94 C 39.39 153.94 43.03 153.94 46.67 153.94 C 46.67 154.79 46.67 156.48 46.67 157.33 C 43.02 157.33 39.37 157.33 35.73 157.34 C 35.73 159.34 35.73 161.34 35.73 163.35 C 39.43 163.35 43.12 163.35 46.82 163.35 C 46.82 164.47 46.82 165.61 46.83 166.74 C 41.86 166.74 36.90 166.74 31.94 166.74 C 32.02 159.42 31.74 152.10 32.12 144.79 Z" />
<path fill="#000000" opacity="1.00" d=" M 52.27 146.39 C 56.33 144.12 61.62 144.04 65.70 146.30 C 67.33 147.39 67.53 149.41 67.83 151.17 C 66.69 151.21 65.55 151.25 64.41 151.29 C 63.97 150.42 63.54 149.55 63.12 148.68 C 60.59 148.32 57.90 147.83 55.43 148.71 C 53.65 149.51 54.54 151.80 54.40 153.32 C 58.61 154.53 64.46 152.51 67.32 156.65 C 68.33 159.49 68.26 163.39 65.69 165.41 C 61.88 167.66 57.02 167.57 53.01 165.87 C 50.99 165.01 50.64 162.58 50.13 160.72 C 51.03 160.72 52.83 160.73 53.72 160.73 C 55.12 164.22 59.13 163.77 62.19 163.32 C 64.68 162.56 63.85 159.86 63.85 157.93 C 59.95 157.18 55.52 158.24 52.05 155.96 C 49.64 153.51 49.83 148.77 52.27 146.39 Z" />
<path fill="#000000" opacity="1.00" d=" M 110.71 145.33 C 115.68 144.35 120.76 144.99 125.78 144.79 C 125.84 145.99 125.90 147.19 125.96 148.40 C 122.20 148.40 118.44 148.40 114.68 148.40 C 114.68 150.24 114.68 152.09 114.68 153.93 C 118.32 153.94 121.96 153.94 125.61 153.94 C 125.61 154.79 125.61 156.48 125.61 157.33 C 121.96 157.33 118.32 157.33 114.68 157.34 C 114.68 159.34 114.68 161.34 114.68 163.35 C 118.42 163.35 122.16 163.35 125.91 163.34 C 125.91 164.19 125.93 165.89 125.93 166.73 C 120.88 166.73 115.82 166.78 110.76 166.69 C 110.75 159.57 110.83 152.45 110.71 145.33 Z" />
<path fill="#000000" opacity="1.00" d=" M 130.14 144.78 C 135.27 144.87 140.67 144.35 145.48 146.55 C 146.87 149.63 146.78 153.07 145.30 156.11 C 147.15 159.37 146.47 163.19 146.59 166.76 C 145.63 166.74 143.70 166.70 142.74 166.68 C 142.75 163.88 142.75 161.08 142.57 158.29 C 139.65 157.94 136.71 157.91 133.77 157.92 C 133.77 160.86 133.77 163.80 133.77 166.74 C 132.48 166.74 131.19 166.74 129.90 166.74 C 130.01 159.42 129.63 152.09 130.14 144.78 M 133.78 148.37 C 133.77 150.40 133.77 152.44 133.77 154.48 C 136.62 154.48 139.47 154.43 142.31 154.20 C 142.59 152.38 142.66 150.53 142.34 148.70 C 139.49 148.47 136.63 148.38 133.78 148.37 Z" />
<path fill="#000000" opacity="1.00" d=" M 152.64 146.67 C 156.39 144.00 161.69 144.12 165.73 146.09 C 167.66 147.07 167.82 149.32 168.18 151.19 C 166.99 151.21 165.80 151.23 164.61 151.25 C 164.18 150.38 163.75 149.51 163.32 148.64 C 160.82 148.23 158.28 148.29 155.77 148.62 C 153.77 152.53 154.04 157.17 154.82 161.36 C 155.95 164.23 159.58 163.55 161.99 163.15 C 164.55 162.43 164.07 159.37 164.57 157.35 C 162.68 157.30 160.78 157.28 158.89 157.24 C 158.85 156.22 158.82 155.21 158.79 154.19 C 161.89 153.86 165.02 153.85 168.15 153.89 C 168.14 158.23 168.15 162.57 168.15 166.91 C 166.85 166.68 165.55 166.43 164.28 166.10 C 162.50 166.47 160.74 166.88 158.99 167.32 C 155.26 167.05 150.75 165.40 150.64 160.98 C 150.66 156.26 149.27 150.57 152.64 146.67 Z" />
<path fill="#000000" opacity="1.00" d=" M 71.78 145.14 C 76.49 144.56 81.33 144.73 85.96 145.72 C 89.52 147.55 88.78 152.63 87.08 155.57 C 89.47 158.72 89.44 164.75 85.17 166.30 C 80.77 167.16 76.24 166.58 71.79 166.74 C 71.78 159.54 71.79 152.34 71.78 145.14 M 75.63 148.38 C 75.63 150.24 75.63 152.10 75.63 153.96 C 78.46 153.43 82.99 155.26 84.50 152.05 C 85.35 146.85 78.70 148.75 75.63 148.38 M 75.61 157.30 C 75.61 159.31 75.61 161.33 75.61 163.36 C 78.14 163.34 80.68 163.46 83.20 163.17 C 85.49 162.30 84.37 159.59 84.46 157.77 C 81.52 157.38 78.57 157.30 75.61 157.30 Z" />
</g>
<g id="#ffa000ff">
<path fill="#ffa000" opacity="1.00" d=" M 138.55 65.96 C 159.03 65.96 179.52 65.96 200.00 65.96 L 200.00 107.50 C 179.52 107.50 159.05 107.51 138.57 107.50 C 138.50 93.65 138.55 79.80 138.55 65.96 M 149.67 75.49 C 149.75 83.06 149.68 90.63 149.73 98.19 C 151.91 98.20 154.09 98.20 156.27 98.19 C 156.28 96.09 156.29 93.99 156.29 91.89 C 159.80 91.59 163.70 91.88 166.69 89.71 C 171.08 86.32 170.16 78.13 164.72 76.30 C 159.85 74.85 154.68 75.43 149.67 75.49 M 177.75 75.42 C 174.22 81.08 171.41 87.28 170.54 93.94 C 174.61 94.02 178.69 94.00 182.76 94.01 C 182.77 95.39 182.78 96.78 182.79 98.17 C 184.97 98.19 187.15 98.19 189.34 98.19 C 189.36 93.40 189.36 88.60 189.34 83.81 C 187.13 83.86 184.93 83.94 182.74 84.07 C 182.75 85.57 182.76 87.08 182.78 88.58 C 181.23 88.58 179.67 88.58 178.13 88.57 C 179.67 83.83 182.42 79.64 184.93 75.38 C 182.54 75.38 180.14 75.39 177.75 75.42 Z" />
<path fill="#ffa000" opacity="1.00" d=" M 156.43 80.59 C 158.57 81.04 163.28 80.53 162.75 83.94 C 162.56 87.01 158.34 86.04 156.27 86.48 C 156.30 84.51 156.35 82.55 156.43 80.59 Z" />
</g>
</svg>
