<?xml version="1.0" encoding="UTF-8" ?>
<!DOCTYPE svg PUBLIC "-//W3C//DTD SVG 1.1//EN" "http://www.w3.org/Graphics/SVG/1.1/DTD/svg11.dtd">
<svg width="525pt" height="410pt" viewBox="0 0 525 410" version="1.1" xmlns="http://www.w3.org/2000/svg">
<g id="#009bddff">
<path fill="#009bdd" opacity="1.00" d=" M 222.51 6.15 C 230.48 3.52 238.88 2.69 247.07 1.02 C 257.69 0.25 268.33 0.53 278.95 1.00 C 284.04 1.92 289.12 2.96 294.19 3.97 C 297.17 4.65 300.57 4.29 303.18 6.10 C 303.96 6.78 304.87 7.11 305.92 7.08 C 313.16 8.95 320.49 11.32 326.93 15.17 C 327.41 15.39 328.36 15.83 328.84 16.05 C 330.47 16.18 331.82 17.27 333.25 17.98 C 336.51 20.00 340.40 21.07 343.02 24.01 C 343.50 24.25 344.45 24.73 344.93 24.97 C 345.54 25.33 346.77 26.03 347.39 26.38 C 347.48 26.44 347.67 26.56 347.77 26.63 C 350.67 28.79 353.41 31.16 356.39 33.24 C 356.48 33.31 356.67 33.44 356.76 33.51 C 358.34 34.70 359.87 35.96 361.36 37.26 C 361.45 37.34 361.62 37.49 361.70 37.56 C 366.68 42.12 371.66 46.88 375.71 52.26 C 375.99 53.27 376.62 53.96 377.61 54.32 C 379.64 55.93 381.23 58.13 382.63 60.31 C 382.94 60.73 383.56 61.58 383.88 62.00 C 386.36 64.99 388.17 68.48 390.45 71.63 C 391.77 73.68 393.67 75.50 394.05 78.02 C 394.32 78.48 394.87 79.39 395.14 79.85 C 395.42 80.37 395.97 81.41 396.25 81.93 C 396.46 82.42 396.88 83.38 397.09 83.87 C 399.64 87.35 400.91 91.56 402.55 95.51 C 406.62 104.98 408.93 115.08 411.05 125.13 C 412.07 135.40 413.92 145.67 412.91 156.03 C 412.26 170.68 410.11 185.41 404.77 199.13 C 404.06 200.66 403.47 202.25 403.09 203.90 C 401.28 209.82 398.45 215.44 395.52 220.85 C 394.20 222.16 393.33 223.83 393.08 225.68 C 392.73 227.54 391.10 228.75 389.94 230.12 C 388.87 231.01 388.25 232.28 387.77 233.56 C 386.55 236.30 384.70 238.73 382.52 240.79 C 381.30 241.75 380.36 242.99 379.77 244.43 C 378.42 246.45 377.59 249.27 375.11 250.16 C 374.77 250.57 374.10 251.38 373.76 251.79 C 373.49 252.06 372.95 252.61 372.68 252.89 C 371.61 253.69 370.68 254.66 369.94 255.77 C 367.73 258.59 364.68 260.66 362.64 263.64 C 361.42 265.39 359.19 265.89 357.58 267.20 C 357.49 267.27 357.30 267.40 357.20 267.47 C 355.13 268.97 353.33 270.89 351.00 272.00 C 350.01 272.27 349.29 272.87 348.83 273.79 C 348.25 274.21 347.09 275.05 346.51 275.47 C 346.37 275.55 346.07 275.72 345.93 275.80 L 345.11 276.26 C 344.95 276.36 344.64 276.54 344.49 276.63 C 343.78 277.07 342.37 277.96 341.67 278.40 C 341.56 278.47 341.35 278.61 341.24 278.68 C 337.76 280.87 334.14 282.85 330.71 285.11 L 329.87 285.14 C 328.81 284.99 327.90 285.28 327.13 286.02 C 326.81 286.23 326.15 286.63 325.82 286.83 C 325.35 287.07 324.40 287.53 323.92 287.76 C 314.82 292.46 304.87 294.93 295.05 297.59 C 288.54 298.11 282.26 300.19 275.69 300.18 C 267.88 301.13 259.91 301.71 252.11 300.39 C 246.78 299.77 241.37 299.80 236.08 298.88 C 231.86 297.69 227.52 296.98 223.36 295.60 C 220.51 294.81 217.72 293.87 214.90 293.01 C 210.23 291.47 205.55 289.84 201.13 287.68 C 200.67 287.42 199.75 286.91 199.29 286.66 C 190.02 282.97 181.77 277.33 173.73 271.51 C 173.64 271.44 173.45 271.30 173.35 271.23 C 170.05 268.78 166.97 266.05 163.80 263.45 C 163.69 263.35 163.48 263.16 163.37 263.07 C 162.97 262.72 162.18 262.01 161.79 261.66 C 161.68 261.56 161.47 261.37 161.37 261.27 C 159.85 259.86 158.25 258.49 157.04 256.79 C 156.34 255.63 155.34 254.71 154.15 254.10 C 152.73 253.39 151.70 252.19 150.92 250.85 C 151.32 249.98 151.55 249.08 151.59 248.13 L 152.52 248.22 C 158.99 248.89 165.51 248.49 172.00 248.57 C 196.61 248.65 221.22 248.44 245.83 248.69 C 246.06 241.46 245.89 234.23 245.94 227.00 C 245.89 220.73 246.38 214.44 245.74 208.19 L 244.84 208.07 C 208.57 207.88 172.28 208.10 136.00 207.98 C 131.76 207.98 127.52 208.13 123.30 207.71 C 120.83 199.45 118.00 191.27 115.90 182.91 C 115.51 179.50 114.96 176.11 114.31 172.74 C 117.48 171.91 120.76 172.31 123.99 172.25 C 150.00 172.18 176.00 172.34 202.00 172.17 C 204.56 170.33 203.35 166.68 203.65 164.00 C 203.26 153.39 204.37 142.67 203.02 132.13 C 173.37 131.43 143.68 132.40 114.03 131.63 C 114.50 122.34 117.59 113.52 119.58 104.53 C 120.77 101.83 122.06 99.13 122.45 96.16 C 163.52 95.84 204.60 96.42 245.67 95.87 C 245.71 84.23 245.69 72.59 245.72 60.95 C 245.66 59.28 245.91 57.41 244.71 56.06 C 241.87 55.34 238.90 55.78 236.01 55.71 C 209.68 55.74 183.35 55.73 157.01 55.71 C 153.68 55.80 150.35 55.70 147.02 55.43 C 149.96 51.94 152.93 48.36 156.24 45.27 C 157.21 44.90 157.85 44.22 158.15 43.22 C 159.86 41.02 162.14 39.33 164.24 37.51 C 164.33 37.44 164.51 37.28 164.60 37.21 C 167.08 35.09 169.41 32.69 172.36 31.22 C 173.45 30.83 174.42 30.16 175.05 29.17 C 178.81 26.03 182.69 22.68 187.43 21.12 C 189.16 20.61 190.80 19.83 192.19 18.66 C 193.22 17.95 194.28 17.30 195.37 16.68 C 195.47 16.62 195.67 16.51 195.78 16.45 C 199.43 14.45 203.34 12.94 207.17 11.30 C 207.65 11.07 208.60 10.61 209.08 10.39 C 210.83 9.85 212.70 9.49 214.13 8.26 C 216.40 6.10 219.76 7.12 222.51 6.15 Z" />
</g>
<g id="#2e434b3d">
<path fill="#2e434b" opacity="0.24" d=" M 303.18 6.10 C 304.64 5.01 305.55 5.34 305.92 7.08 C 304.87 7.11 303.96 6.78 303.18 6.10 Z" />
<path fill="#2e434b" opacity="0.24" d=" M 207.29 10.38 L 208.27 9.91 L 209.08 10.39 C 208.60 10.61 207.65 11.07 207.17 11.30 L 207.29 10.38 Z" />
<path fill="#2e434b" opacity="0.24" d=" M 326.93 15.17 L 327.72 14.70 L 328.70 15.15 L 328.84 16.05 C 328.36 15.83 327.41 15.39 326.93 15.17 Z" />
<path fill="#2e434b" opacity="0.24" d=" M 195.37 16.68 C 195.47 16.62 195.67 16.51 195.78 16.45 C 195.67 16.51 195.47 16.62 195.37 16.68 Z" />
<path fill="#2e434b" opacity="0.24" d=" M 187.43 21.12 C 186.90 19.07 190.68 17.24 192.19 18.66 C 190.80 19.83 189.16 20.61 187.43 21.12 Z" />
<path fill="#2e434b" opacity="0.24" d=" M 343.02 24.01 L 343.84 23.57 L 344.82 24.06 L 344.93 24.97 C 344.45 24.73 343.50 24.25 343.02 24.01 Z" />
<path fill="#2e434b" opacity="0.24" d=" M 347.39 26.38 C 347.48 26.44 347.67 26.56 347.77 26.63 C 347.67 26.56 347.48 26.44 347.39 26.38 Z" />
<path fill="#2e434b" opacity="0.24" d=" M 172.36 31.22 C 171.35 29.78 173.93 27.82 175.05 29.17 C 174.42 30.16 173.45 30.83 172.36 31.22 Z" />
<path fill="#2e434b" opacity="0.24" d=" M 356.39 33.24 C 356.48 33.31 356.67 33.44 356.76 33.51 C 356.67 33.44 356.48 33.31 356.39 33.24 Z" />
<path fill="#2e434b" opacity="0.24" d=" M 164.24 37.51 C 164.33 37.44 164.51 37.28 164.60 37.21 C 164.51 37.28 164.33 37.44 164.24 37.51 Z" />
<path fill="#2e434b" opacity="0.24" d=" M 361.36 37.26 C 361.45 37.34 361.62 37.49 361.70 37.56 C 361.62 37.49 361.45 37.34 361.36 37.26 Z" />
<path fill="#2e434b" opacity="0.24" d=" M 156.24 45.27 C 155.77 43.57 156.41 42.88 158.15 43.22 C 157.85 44.22 157.21 44.90 156.24 45.27 Z" />
<path fill="#2e434b" opacity="0.24" d=" M 375.71 52.26 C 377.44 51.93 378.07 52.62 377.61 54.32 C 376.62 53.96 375.99 53.27 375.71 52.26 Z" />
<path fill="#2e434b" opacity="0.24" d=" M 382.63 60.31 L 383.54 60.27 L 384.18 61.14 L 383.88 62.00 C 383.56 61.58 382.94 60.73 382.63 60.31 Z" />
<path fill="#2e434b" opacity="0.24" d=" M 394.05 78.02 L 394.95 78.07 L 395.52 79.01 L 395.14 79.85 C 394.87 79.39 394.32 78.48 394.05 78.02 Z" />
<path fill="#2e434b" opacity="0.24" d=" M 396.25 81.93 L 397.13 82.09 L 397.57 83.08 L 397.09 83.87 C 396.88 83.38 396.46 82.42 396.25 81.93 Z" />
<path fill="#2e434b" opacity="0.24" d=" M 403.09 203.90 C 403.47 202.25 404.06 200.66 404.77 199.13 C 406.21 200.44 405.23 204.35 403.09 203.90 Z" />
<path fill="#2e434b" opacity="0.24" d=" M 244.84 208.07 L 245.74 208.19 C 246.38 214.44 245.89 220.73 245.94 227.00 C 245.89 234.23 246.06 241.46 245.83 248.69 C 221.22 248.44 196.61 248.65 172.00 248.57 C 165.51 248.49 158.99 248.89 152.52 248.22 C 158.34 247.77 164.17 248.00 169.99 247.96 C 195.02 247.93 220.04 248.02 245.07 247.92 C 245.22 234.64 245.27 221.35 244.84 208.07 Z" />
<path fill="#2e434b" opacity="0.24" d=" M 393.08 225.68 C 393.33 223.83 394.20 222.16 395.52 220.85 C 396.56 222.43 395.12 226.05 393.08 225.68 Z" />
<path fill="#2e434b" opacity="0.24" d=" M 387.77 233.56 C 388.25 232.28 388.87 231.01 389.94 230.12 C 391.29 231.34 389.47 234.50 387.77 233.56 Z" />
<path fill="#2e434b" opacity="0.24" d=" M 379.77 244.43 C 380.36 242.99 381.30 241.75 382.52 240.79 C 383.81 242.25 381.53 245.50 379.77 244.43 Z" />
<path fill="#2e434b" opacity="0.24" d=" M 150.92 250.85 C 147.94 251.60 149.21 246.13 151.59 248.13 C 151.55 249.08 151.32 249.98 150.92 250.85 Z" />
<path fill="#2e434b" opacity="0.24" d=" M 373.76 251.79 C 374.10 251.38 374.77 250.57 375.11 250.16 L 375.36 251.04 L 374.67 251.87 L 373.76 251.79 Z" />
<path fill="#2e434b" opacity="0.24" d=" M 369.94 255.77 C 370.68 254.66 371.61 253.69 372.68 252.89 C 374.05 254.35 371.49 257.08 369.94 255.77 Z" />
<path fill="#2e434b" opacity="0.24" d=" M 154.15 254.10 C 155.34 254.71 156.34 255.63 157.04 256.79 C 155.63 258.05 152.92 255.61 154.15 254.10 Z" />
<path fill="#2e434b" opacity="0.24" d=" M 161.37 261.27 C 161.47 261.37 161.68 261.56 161.79 261.66 C 161.68 261.56 161.47 261.37 161.37 261.27 Z" />
<path fill="#2e434b" opacity="0.24" d=" M 163.37 263.07 C 163.48 263.16 163.69 263.35 163.80 263.45 C 163.69 263.35 163.48 263.16 163.37 263.07 Z" />
<path fill="#2e434b" opacity="0.24" d=" M 357.20 267.47 C 357.30 267.40 357.49 267.27 357.58 267.20 C 357.49 267.27 357.30 267.40 357.20 267.47 Z" />
<path fill="#2e434b" opacity="0.24" d=" M 173.35 271.23 C 173.45 271.30 173.64 271.44 173.73 271.51 C 173.64 271.44 173.45 271.30 173.35 271.23 Z" />
<path fill="#2e434b" opacity="0.24" d=" M 348.83 273.79 C 349.29 272.87 350.01 272.27 351.00 272.00 C 351.26 273.77 350.53 274.36 348.83 273.79 Z" />
<path fill="#2e434b" opacity="0.24" d=" M 345.93 275.80 C 346.07 275.72 346.37 275.55 346.51 275.47 C 346.37 275.55 346.07 275.72 345.93 275.80 Z" />
<path fill="#2e434b" opacity="0.24" d=" M 344.49 276.63 C 344.64 276.54 344.95 276.36 345.11 276.26 C 344.95 276.36 344.64 276.54 344.49 276.63 Z" />
<path fill="#2e434b" opacity="0.24" d=" M 341.24 278.68 C 341.35 278.61 341.56 278.47 341.67 278.40 C 341.56 278.47 341.35 278.61 341.24 278.68 Z" />
<path fill="#2e434b" opacity="0.24" d=" M 327.13 286.02 C 327.90 285.28 328.81 284.99 329.87 285.14 C 329.45 286.81 328.54 287.11 327.13 286.02 Z" />
<path fill="#2e434b" opacity="0.24" d=" M 199.29 286.66 C 199.75 286.91 200.67 287.42 201.13 287.68 L 200.30 288.10 L 199.35 287.57 L 199.29 286.66 Z" />
<path fill="#2e434b" opacity="0.24" d=" M 323.92 287.76 C 324.40 287.53 325.35 287.07 325.82 286.83 L 325.71 287.74 L 324.73 288.22 L 323.92 287.76 Z" />
<path fill="#2e434b" opacity="0.24" d=" M 214.90 293.01 C 217.72 293.87 220.51 294.81 223.36 295.60 C 220.25 296.03 217.12 295.31 214.90 293.01 Z" />
<path fill="#2e434b" opacity="0.24" d=" M 74.95 344.89 C 77.13 343.37 79.88 343.21 82.07 344.82 C 79.72 345.28 77.31 345.30 74.95 344.89 Z" />
<path fill="#2e434b" opacity="0.24" d=" M 0.81 345.77 C 3.11 344.88 5.60 345.20 8.00 345.19 C 21.24 345.32 34.48 345.09 47.71 345.29 C 47.93 349.48 47.94 353.68 47.79 357.87 C 36.88 358.23 25.96 357.88 15.04 358.04 C 15.01 362.31 14.99 366.57 15.17 370.83 L 14.37 370.79 C 14.18 366.32 14.30 361.84 14.35 357.37 C 25.27 357.22 36.18 357.59 47.09 357.23 C 47.20 353.46 47.20 349.69 47.08 345.93 C 31.66 345.68 16.23 346.02 0.81 345.77 Z" />
<path fill="#2e434b" opacity="0.24" d=" M 71.90 345.78 C 72.47 345.56 73.61 345.11 74.19 344.89 C 73.61 345.11 72.47 345.56 71.90 345.78 Z" />
<path fill="#2e434b" opacity="0.24" d=" M 84.87 344.97 C 85.46 345.14 86.63 345.49 87.22 345.66 C 86.63 345.49 85.46 345.14 84.87 344.97 Z" />
<path fill="#2e434b" opacity="0.24" d=" M 112.85 345.80 C 116.69 344.33 120.98 345.51 125.01 345.18 C 130.08 345.52 135.33 344.35 140.27 345.80 C 131.13 345.84 121.99 345.94 112.85 345.80 Z" />
<path fill="#2e434b" opacity="0.24" d=" M 193.01 346.11 C 193.53 344.85 194.50 344.41 195.91 344.78 C 195.37 346.05 194.40 346.49 193.01 346.11 Z" />
<path fill="#2e434b" opacity="0.24" d=" M 206.98 344.83 C 208.22 344.47 209.25 344.80 210.07 345.81 C 208.63 346.51 207.60 346.18 206.98 344.83 Z" />
<path fill="#2e434b" opacity="0.24" d=" M 384.04 344.73 C 385.50 344.35 387.00 344.74 388.16 345.69 C 386.79 346.30 384.67 346.44 384.04 344.73 Z" />
<path fill="#2e434b" opacity="0.24" d=" M 406.29 345.28 C 423.42 345.09 440.57 345.10 457.70 345.28 C 457.84 349.47 457.82 353.67 457.72 357.86 C 451.49 358.20 445.24 357.91 439.00 358.05 C 438.87 375.02 439.04 391.98 438.94 408.95 C 434.30 409.02 429.67 409.03 425.04 408.95 C 424.90 392.01 425.19 375.06 424.92 358.13 C 418.70 357.84 412.48 358.23 406.27 357.85 C 406.11 353.66 406.09 349.46 406.29 345.28 M 406.92 345.91 C 406.80 349.67 406.81 353.44 406.91 357.21 C 413.12 357.50 419.33 357.20 425.54 357.40 C 425.48 374.39 425.30 391.39 425.62 408.37 C 429.87 408.68 434.14 408.68 438.39 408.37 C 438.76 391.38 438.57 374.37 438.48 357.38 C 444.67 357.21 450.88 357.53 457.07 357.19 C 457.18 353.44 457.18 349.68 457.07 345.93 C 440.35 345.79 423.63 345.83 406.92 345.91 Z" />
<path fill="#2e434b" opacity="0.24" d=" M 460.39 346.06 C 465.53 344.11 471.30 345.49 476.70 345.34 C 476.78 346.07 476.93 347.53 477.00 348.26 C 476.69 347.68 476.07 346.53 475.76 345.95 C 470.63 345.77 465.51 345.76 460.39 346.06 Z" />
<path fill="#2e434b" opacity="0.24" d=" M 509.75 345.99 C 511.96 344.75 514.56 345.17 516.99 345.09 C 519.53 345.25 522.30 344.63 524.60 346.03 C 519.65 345.83 514.69 345.73 509.75 345.99 Z" />
<path fill="#2e434b" opacity="0.24" d=" M 143.07 346.18 L 143.84 345.70 L 144.85 346.13 L 145.05 347.02 C 144.56 346.81 143.56 346.39 143.07 346.18 Z" />
<path fill="#2e434b" opacity="0.24" d=" M 188.93 346.87 C 189.49 346.62 190.59 346.12 191.14 345.87 C 190.59 346.12 189.49 346.62 188.93 346.87 Z" />
<path fill="#2e434b" opacity="0.24" d=" M 279.95 346.20 L 280.73 345.71 L 281.72 346.14 L 281.89 347.03 C 281.41 346.82 280.44 346.40 279.95 346.20 Z" />
<path fill="#2e434b" opacity="0.24" d=" M 65.84 347.89 C 66.38 347.65 67.48 347.17 68.02 346.93 C 67.48 347.17 66.38 347.65 65.84 347.89 Z" />
<path fill="#2e434b" opacity="0.24" d=" M 145.95 347.05 L 146.75 346.62 L 147.73 347.11 L 147.86 348.01 C 147.38 347.77 146.43 347.29 145.95 347.05 Z" />
<path fill="#2e434b" opacity="0.24" d=" M 461.24 346.97 C 461.43 347.49 461.80 348.54 461.99 349.06 L 461.12 348.80 L 460.74 347.74 L 461.24 346.97 Z" />
<path fill="#2e434b" opacity="0.24" d=" M 523.04 349.06 C 523.22 348.54 523.58 347.49 523.76 346.96 L 524.27 347.75 L 523.90 348.81 L 523.04 349.06 Z" />
<path fill="#2e434b" opacity="0.24" d=" M 116.30 348.40 C 124.30 348.74 132.37 347.89 140.32 348.88 C 132.56 349.03 124.80 348.85 117.04 349.03 C 116.92 359.66 116.95 370.29 117.07 380.93 L 116.21 380.91 C 116.26 370.07 116.10 359.23 116.30 348.40 Z" />
<path fill="#2e434b" opacity="0.24" d=" M 194.26 349.13 C 194.05 347.34 197.20 347.06 197.92 348.45 C 196.77 348.99 195.52 349.26 194.26 349.13 Z" />
<path fill="#2e434b" opacity="0.24" d=" M 204.10 348.46 C 204.81 347.06 207.96 347.37 207.74 349.16 C 206.47 349.28 205.23 349.00 204.10 348.46 Z" />
<path fill="#2e434b" opacity="0.24" d=" M 252.31 348.37 C 260.59 348.68 268.93 347.91 277.17 348.84 C 269.11 348.92 261.06 348.75 253.00 348.99 C 252.86 359.00 252.85 369.01 253.01 379.01 C 261.42 379.32 269.85 379.03 278.27 379.14 C 275.95 380.05 273.43 379.81 271.00 379.84 C 264.75 379.73 258.51 379.92 252.27 379.74 C 252.24 369.28 252.16 358.83 252.31 348.37 Z" />
<path fill="#2e434b" opacity="0.24" d=" M 373.90 348.67 C 375.10 347.72 376.67 347.68 378.09 348.12 C 377.03 349.21 375.13 349.96 373.90 348.67 Z" />
<path fill="#2e434b" opacity="0.24" d=" M 382.90 348.11 C 384.32 347.67 385.88 347.78 387.09 348.72 C 385.83 349.99 383.94 349.23 382.90 348.11 Z" />
<path fill="#2e434b" opacity="0.24" d=" M 508.14 348.32 L 509.01 348.13 C 508.80 348.62 508.36 349.59 508.14 350.07 C 508.14 349.64 508.14 348.76 508.14 348.32 Z" />
<path fill="#2e434b" opacity="0.24" d=" M 141.08 349.34 C 142.45 348.22 143.36 348.50 143.81 350.19 C 142.76 350.34 141.85 350.06 141.08 349.34 Z" />
<path fill="#2e434b" opacity="0.24" d=" M 477.07 349.03 L 477.97 349.21 L 478.37 350.22 L 477.87 350.97 C 477.67 350.49 477.27 349.51 477.07 349.03 Z" />
<path fill="#2e434b" opacity="0.24" d=" M 188.30 350.18 L 189.28 349.73 L 190.05 350.21 C 189.57 350.43 188.62 350.87 188.14 351.09 L 188.30 350.18 Z" />
<path fill="#2e434b" opacity="0.24" d=" M 462.36 349.77 C 463.14 350.98 463.80 352.28 464.04 353.71 C 462.17 354.33 460.98 350.90 462.36 349.77 Z" />
<path fill="#2e434b" opacity="0.24" d=" M 521.98 351.84 C 522.22 351.36 522.70 350.41 522.94 349.93 L 523.36 350.74 L 522.87 351.71 L 521.98 351.84 Z" />
<path fill="#2e434b" opacity="0.24" d=" M 507.12 351.18 L 508.01 350.97 C 507.81 351.47 507.40 352.46 507.20 352.96 L 506.71 352.19 L 507.12 351.18 Z" />
<path fill="#2e434b" opacity="0.24" d=" M 100.41 351.95 C 100.66 352.24 101.17 352.81 101.43 353.10 C 101.05 353.26 100.31 353.57 99.93 353.73 C 100.05 353.28 100.29 352.40 100.41 351.95 Z" />
<path fill="#2e434b" opacity="0.24" d=" M 57.83 358.14 C 57.46 356.40 58.36 354.75 59.75 353.77 C 60.18 355.44 59.49 357.41 57.83 358.14 Z" />
<path fill="#2e434b" opacity="0.24" d=" M 478.97 354.15 L 479.87 354.28 L 480.35 355.26 L 479.92 356.06 C 479.68 355.58 479.21 354.63 478.97 354.15 Z" />
<path fill="#2e434b" opacity="0.24" d=" M 364.99 357.18 C 365.17 356.60 365.55 355.44 365.74 354.86 C 365.55 355.44 365.17 356.60 364.99 357.18 Z" />
<path fill="#2e434b" opacity="0.24" d=" M 519.93 356.86 C 520.17 356.40 520.65 355.46 520.89 354.99 L 521.33 355.79 L 520.84 356.75 L 519.93 356.86 Z" />
<path fill="#2e434b" opacity="0.24" d=" M 75.01 357.00 C 75.55 356.74 76.62 356.21 77.15 355.95 C 76.62 356.21 75.55 356.74 75.01 357.00 Z" />
<path fill="#2e434b" opacity="0.24" d=" M 82.89 356.01 C 83.45 356.23 84.58 356.67 85.15 356.88 C 84.58 356.67 83.45 356.23 82.89 356.01 Z" />
<path fill="#2e434b" opacity="0.24" d=" M 292.99 357.10 L 293.89 357.25 L 294.36 358.23 L 293.92 359.03 C 293.69 358.55 293.23 357.59 292.99 357.10 Z" />
<path fill="#2e434b" opacity="0.24" d=" M 480.01 356.93 L 480.90 357.14 L 481.31 358.16 L 480.81 358.92 C 480.61 358.42 480.21 357.43 480.01 356.93 Z" />
<path fill="#2e434b" opacity="0.24" d=" M 71.85 360.12 C 72.16 359.61 72.77 358.59 73.08 358.08 C 72.77 358.59 72.16 359.61 71.85 360.12 Z" />
<path fill="#2e434b" opacity="0.24" d=" M 364.71 362.10 C 363.39 360.92 363.43 358.87 365.06 358.01 C 365.39 359.40 365.27 360.77 364.71 362.10 Z" />
<path fill="#2e434b" opacity="0.24" d=" M 289.83 359.23 C 291.51 359.66 291.79 360.57 290.68 361.96 C 289.96 361.18 289.67 360.27 289.83 359.23 Z" />
<path fill="#2e434b" opacity="0.24" d=" M 504.13 359.32 L 505.02 359.14 C 504.81 359.64 504.40 360.63 504.19 361.13 L 503.71 360.34 L 504.13 359.32 Z" />
<path fill="#2e434b" opacity="0.24" d=" M 57.63 365.11 C 56.31 363.53 56.30 361.27 57.93 359.90 C 58.29 361.63 58.18 363.42 57.63 365.11 Z" />
<path fill="#2e434b" opacity="0.24" d=" M 153.90 360.23 C 155.56 360.71 155.82 361.64 154.68 363.01 C 153.98 362.20 153.72 361.27 153.90 360.23 Z" />
<path fill="#2e434b" opacity="0.24" d=" M 517.95 361.88 C 518.18 361.40 518.64 360.45 518.87 359.97 L 519.32 360.77 L 518.85 361.74 L 517.95 361.88 Z" />
<path fill="#2e434b" opacity="0.24" d=" M 158.05 361.24 C 160.00 362.13 159.99 366.87 158.11 367.84 C 158.09 365.63 158.08 363.44 158.05 361.24 Z" />
<path fill="#2e434b" opacity="0.24" d=" M 294.14 361.16 C 296.02 362.09 296.02 366.86 294.06 367.73 C 294.10 365.53 294.12 363.34 294.14 361.16 Z" />
<path fill="#2e434b" opacity="0.24" d=" M 467.19 362.02 C 467.40 362.51 467.83 363.47 468.04 363.96 L 467.14 363.80 L 466.70 362.80 L 467.19 362.02 Z" />
<path fill="#2e434b" opacity="0.24" d=" M 481.96 362.18 L 482.85 362.29 L 483.36 363.26 L 482.94 364.08 C 482.70 363.60 482.20 362.65 481.96 362.18 Z" />
<path fill="#2e434b" opacity="0.24" d=" M 502.34 366.14 C 500.97 364.96 502.00 361.52 503.94 362.00 C 503.64 363.46 503.06 364.84 502.34 366.14 Z" />
<path fill="#2e434b" opacity="0.24" d=" M 483.01 364.96 L 483.90 365.16 L 484.33 366.16 L 483.85 366.93 C 483.64 366.44 483.22 365.45 483.01 364.96 Z" />
<path fill="#2e434b" opacity="0.24" d=" M 515.95 366.91 C 516.17 366.43 516.62 365.48 516.85 365.00 L 517.31 365.79 L 516.85 366.77 L 515.95 366.91 Z" />
<path fill="#2e434b" opacity="0.24" d=" M 153.87 369.76 C 153.69 368.70 153.96 367.78 154.67 366.99 C 155.80 368.35 155.54 369.27 153.87 369.76 Z" />
<path fill="#2e434b" opacity="0.24" d=" M 500.69 368.18 C 501.02 367.87 501.69 367.25 502.02 366.94 C 501.80 367.45 501.36 368.46 501.14 368.97 L 500.69 368.18 Z" />
<path fill="#2e434b" opacity="0.24" d=" M 168.95 370.08 C 169.14 369.52 169.53 368.38 169.73 367.81 C 169.53 368.38 169.14 369.52 168.95 370.08 Z" />
<path fill="#2e434b" opacity="0.24" d=" M 156.98 371.87 C 157.22 371.39 157.70 370.43 157.94 369.95 L 158.37 370.76 L 157.87 371.74 L 156.98 371.87 Z" />
<path fill="#2e434b" opacity="0.24" d=" M 172.45 374.88 C 171.12 373.88 171.17 370.30 173.15 370.30 C 173.23 371.86 172.96 373.41 172.45 374.88 Z" />
<path fill="#2e434b" opacity="0.24" d=" M 228.87 370.32 C 230.84 370.34 230.89 373.92 229.55 374.91 C 229.05 373.42 228.78 371.87 228.87 370.32 Z" />
<path fill="#2e434b" opacity="0.24" d=" M 470.39 369.91 C 471.25 371.09 471.83 372.45 472.01 373.91 C 470.18 374.33 469.03 371.02 470.39 369.91 Z" />
<path fill="#2e434b" opacity="0.24" d=" M 484.98 370.16 L 485.87 370.30 L 486.34 371.28 L 485.91 372.08 C 485.68 371.60 485.21 370.64 484.98 370.16 Z" />
<path fill="#2e434b" opacity="0.24" d=" M 500.08 370.12 L 500.96 369.90 C 500.77 370.40 500.39 371.41 500.20 371.91 L 499.69 371.15 L 500.08 370.12 Z" />
<path fill="#2e434b" opacity="0.24" d=" M 513.97 371.92 C 514.20 371.44 514.64 370.48 514.87 370.01 L 515.33 370.79 L 514.87 371.77 L 513.97 371.92 Z" />
<path fill="#2e434b" opacity="0.24" d=" M 82.96 371.04 C 83.52 371.24 84.64 371.66 85.20 371.86 C 84.64 371.66 83.52 371.24 82.96 371.04 Z" />
<path fill="#2e434b" opacity="0.24" d=" M 168.83 383.27 C 167.68 379.50 167.91 375.53 168.75 371.73 C 168.74 375.58 168.74 379.42 168.83 383.27 Z" />
<path fill="#2e434b" opacity="0.24" d=" M 233.25 371.65 C 234.26 375.15 234.15 378.82 233.29 382.33 C 233.31 378.77 233.30 375.21 233.25 371.65 Z" />
<path fill="#2e434b" opacity="0.24" d=" M 374.92 372.09 C 375.47 372.32 376.56 372.79 377.11 373.02 C 376.56 372.79 375.47 372.32 374.92 372.09 Z" />
<path fill="#2e434b" opacity="0.24" d=" M 377.92 372.89 C 378.46 373.13 379.55 373.61 380.10 373.84 C 379.55 373.61 378.46 373.13 377.92 372.89 Z" />
<path fill="#2e434b" opacity="0.24" d=" M 485.98 372.95 L 486.87 373.14 L 487.31 374.14 L 486.84 374.91 C 486.62 374.42 486.19 373.44 485.98 372.95 Z" />
<path fill="#2e434b" opacity="0.24" d=" M 472.23 374.84 C 472.43 375.34 472.84 376.34 473.05 376.84 L 472.16 376.65 L 471.74 375.63 L 472.23 374.84 Z" />
<path fill="#2e434b" opacity="0.24" d=" M 511.99 376.95 C 512.20 376.47 512.63 375.50 512.84 375.02 L 513.32 375.79 L 512.89 376.78 L 511.99 376.95 Z" />
<path fill="#2e434b" opacity="0.24" d=" M 375.87 376.18 C 376.42 376.41 377.52 376.87 378.07 377.09 C 377.52 376.87 376.42 376.41 375.87 376.18 Z" />
<path fill="#2e434b" opacity="0.24" d=" M 282.01 377.75 C 282.48 377.52 283.43 377.06 283.90 376.84 L 283.76 377.74 L 282.79 378.21 L 282.01 377.75 Z" />
<path fill="#2e434b" opacity="0.24" d=" M 378.89 376.97 C 379.42 377.22 380.49 377.72 381.03 377.97 C 380.49 377.72 379.42 377.22 378.89 376.97 Z" />
<path fill="#2e434b" opacity="0.24" d=" M 487.95 378.17 L 488.84 378.31 L 489.33 379.28 L 488.91 380.10 C 488.67 379.61 488.19 378.65 487.95 378.17 Z" />
<path fill="#2e434b" opacity="0.24" d=" M 497.11 378.23 L 498.01 378.05 C 497.81 378.54 497.40 379.51 497.20 380.00 L 496.69 379.24 L 497.11 378.23 Z" />
<path fill="#2e434b" opacity="0.24" d=" M 143.96 379.77 C 144.43 379.54 145.37 379.08 145.84 378.85 L 145.71 379.75 L 144.74 380.22 L 143.96 379.77 Z" />
<path fill="#2e434b" opacity="0.24" d=" M 383.91 378.93 C 384.47 379.15 385.58 379.60 386.14 379.82 C 385.58 379.60 384.47 379.15 383.91 378.93 Z" />
<path fill="#2e434b" opacity="0.24" d=" M 70.82 380.17 C 71.38 380.38 72.50 380.80 73.06 381.00 C 72.50 380.80 71.38 380.38 70.82 380.17 Z" />
<path fill="#2e434b" opacity="0.24" d=" M 228.90 383.83 C 228.74 382.53 229.02 381.26 229.56 380.09 C 230.91 380.83 230.66 383.93 228.90 383.83 Z" />
<path fill="#2e434b" opacity="0.24" d=" M 283.03 380.90 C 283.51 380.67 284.45 380.21 284.92 379.98 L 284.79 380.88 L 283.82 381.35 L 283.03 380.90 Z" />
<path fill="#2e434b" opacity="0.24" d=" M 474.18 380.03 C 474.41 380.50 474.87 381.45 475.10 381.93 L 474.19 381.79 L 473.72 380.81 L 474.18 380.03 Z" />
<path fill="#2e434b" opacity="0.24" d=" M 509.98 381.95 C 510.20 381.47 510.65 380.51 510.87 380.03 L 511.34 380.82 L 510.88 381.80 L 509.98 381.95 Z" />
<path fill="#2e434b" opacity="0.24" d=" M 172.48 381.08 C 173.03 382.20 173.30 383.44 173.20 384.70 C 171.40 384.93 171.06 381.78 172.48 381.08 Z" />
<path fill="#2e434b" opacity="0.24" d=" M 488.99 381.00 L 489.88 381.19 L 490.34 382.20 L 489.90 382.99 C 489.67 382.50 489.22 381.50 488.99 381.00 Z" />
<path fill="#2e434b" opacity="0.24" d=" M 278.67 384.10 C 277.32 383.27 278.34 381.58 279.72 381.93 L 279.94 382.76 C 279.62 383.09 278.99 383.77 278.67 384.10 Z" />
<path fill="#2e434b" opacity="0.24" d=" M 99.35 382.72 C 100.90 383.98 101.63 385.94 101.20 387.91 C 99.49 386.81 98.91 384.62 99.35 382.72 Z" />
<path fill="#2e434b" opacity="0.24" d=" M 232.22 387.13 C 231.57 385.82 231.85 384.76 233.04 383.94 C 233.58 385.21 233.31 386.27 232.22 387.13 Z" />
<path fill="#2e434b" opacity="0.24" d=" M 490.05 383.90 L 490.92 384.16 L 491.26 385.21 L 490.71 385.95 C 490.55 385.44 490.22 384.41 490.05 383.90 Z" />
<path fill="#2e434b" opacity="0.24" d=" M 507.97 386.94 C 508.20 386.46 508.66 385.51 508.89 385.04 L 509.34 385.83 L 508.87 386.80 L 507.97 386.94 Z" />
<path fill="#2e434b" opacity="0.24" d=" M 227.88 387.83 C 228.11 387.35 228.58 386.39 228.82 385.92 L 229.25 386.72 L 228.77 387.69 L 227.88 387.83 Z" />
<path fill="#2e434b" opacity="0.24" d=" M 494.12 386.37 L 494.99 386.11 C 494.84 386.61 494.55 387.62 494.40 388.12 L 493.81 387.41 L 494.12 386.37 Z" />
<path fill="#2e434b" opacity="0.24" d=" M 478.24 389.93 C 478.44 390.42 478.84 391.40 479.04 391.89 L 478.15 391.71 L 477.74 390.70 L 478.24 389.93 Z" />
<path fill="#2e434b" opacity="0.24" d=" M 505.98 391.92 C 506.20 391.45 506.66 390.49 506.88 390.02 L 507.34 390.80 L 506.88 391.78 L 505.98 391.92 Z" />
<path fill="#2e434b" opacity="0.24" d=" M 58.00 396.26 C 57.93 394.89 58.54 393.99 59.82 393.55 C 60.04 395.00 59.44 395.90 58.00 396.26 Z" />
<path fill="#2e434b" opacity="0.24" d=" M 86.18 396.03 C 86.42 395.47 86.90 394.34 87.14 393.78 C 86.90 394.34 86.42 395.47 86.18 396.03 Z" />
<path fill="#2e434b" opacity="0.24" d=" M 227.80 396.04 C 228.12 395.54 228.77 394.53 229.09 394.03 C 228.77 394.53 228.12 395.54 227.80 396.04 Z" />
<path fill="#2e434b" opacity="0.24" d=" M 100.21 397.16 C 100.43 396.60 100.87 395.48 101.10 394.93 C 100.87 395.48 100.43 396.60 100.21 397.16 Z" />
<path fill="#2e434b" opacity="0.24" d=" M 480.18 395.00 C 480.39 395.48 480.82 396.44 481.04 396.92 L 480.14 396.76 L 479.70 395.77 L 480.18 395.00 Z" />
<path fill="#2e434b" opacity="0.24" d=" M 503.98 396.93 C 504.20 396.45 504.64 395.49 504.86 395.01 L 505.33 395.79 L 504.88 396.78 L 503.98 396.93 Z" />
<path fill="#2e434b" opacity="0.24" d=" M 74.76 398.23 C 78.17 398.20 81.64 397.99 84.92 396.97 C 82.16 399.53 78.12 399.00 74.76 398.23 Z" />
<path fill="#2e434b" opacity="0.24" d=" M 359.92 399.67 C 360.19 399.40 360.74 398.88 361.01 398.61 C 361.15 399.01 361.44 399.80 361.59 400.20 C 361.17 400.07 360.33 399.80 359.92 399.67 Z" />
<path fill="#2e434b" opacity="0.24" d=" M 482.11 399.99 C 482.36 400.45 482.87 401.38 483.12 401.84 L 482.21 401.75 L 481.69 400.80 L 482.11 399.99 Z" />
<path fill="#2e434b" opacity="0.24" d=" M 501.94 401.93 C 502.17 401.46 502.64 400.51 502.88 400.04 L 503.33 400.83 L 502.84 401.81 L 501.94 401.93 Z" />
<path fill="#2e434b" opacity="0.24" d=" M 187.29 402.86 C 188.64 403.15 189.88 403.78 190.99 404.60 C 189.91 406.12 186.53 404.70 187.29 402.86 Z" />
<path fill="#2e434b" opacity="0.24" d=" M 210.84 404.85 C 211.32 404.62 212.30 404.15 212.78 403.92 L 212.63 404.81 L 211.64 405.28 L 210.84 404.85 Z" />
<path fill="#2e434b" opacity="0.24" d=" M 218.07 405.12 C 218.57 404.80 219.57 404.15 220.07 403.83 C 219.57 404.15 218.57 404.80 218.07 405.12 Z" />
<path fill="#2e434b" opacity="0.24" d=" M 207.05 405.64 C 207.89 404.96 208.84 404.71 209.90 404.88 C 209.34 406.54 208.39 406.79 207.05 405.64 Z" />
<path fill="#2e434b" opacity="0.24" d=" M 371.83 405.20 C 372.39 405.39 373.52 405.79 374.09 405.98 C 373.52 405.79 372.39 405.39 371.83 405.20 Z" />
<path fill="#2e434b" opacity="0.24" d=" M 195.79 406.13 C 198.98 406.09 202.18 406.10 205.37 406.18 C 202.26 407.14 198.90 407.00 195.79 406.13 Z" />
<path fill="#2e434b" opacity="0.24" d=" M 375.70 406.16 C 378.58 406.14 381.47 406.14 384.36 406.17 C 381.51 406.96 378.56 406.65 375.70 406.16 Z" />
<path fill="#2e434b" opacity="0.24" d=" M 63.94 407.08 C 64.49 407.33 65.58 407.83 66.13 408.08 C 65.58 407.83 64.49 407.33 63.94 407.08 Z" />
<path fill="#2e434b" opacity="0.24" d=" M 67.84 407.97 C 68.37 408.23 69.45 408.74 69.98 409.00 C 69.45 408.74 68.37 408.23 67.84 407.97 Z" />
<path fill="#2e434b" opacity="0.24" d=" M 85.94 408.92 C 86.52 408.78 87.69 408.51 88.27 408.38 C 87.69 408.51 86.52 408.78 85.94 408.92 Z" />
<path fill="#2e434b" opacity="0.24" d=" M 71.70 409.54 C 75.89 409.40 80.09 409.49 84.28 409.57 L 83.24 410.00 L 72.78 410.00 L 71.70 409.54 Z" />
<path fill="#2e434b" opacity="0.24" d=" M 194.70 409.50 C 198.90 409.43 203.12 409.42 207.33 409.53 L 206.24 410.00 L 195.77 410.00 L 194.70 409.50 Z" />
<path fill="#2e434b" opacity="0.24" d=" M 373.71 409.50 C 377.57 409.41 381.43 409.44 385.29 409.57 L 384.24 410.00 L 374.78 410.00 L 373.71 409.50 Z" />
</g>
<g id="#010101ff">
<path fill="#010101" opacity="1.00" d=" M 74.19 344.89 L 74.95 344.89 C 77.31 345.30 79.72 345.28 82.07 344.82 C 82.77 344.86 84.17 344.93 84.87 344.97 C 85.46 345.14 86.63 345.49 87.22 345.66 C 92.02 346.79 96.42 349.08 100.41 351.95 C 100.29 352.40 100.05 353.28 99.93 353.73 C 97.89 356.41 95.54 358.84 93.07 361.13 C 90.51 359.57 87.87 358.15 85.15 356.88 C 84.58 356.67 83.45 356.23 82.89 356.01 C 80.98 355.98 79.06 355.96 77.15 355.95 C 76.62 356.21 75.55 356.74 75.01 357.00 C 74.53 357.27 73.56 357.81 73.08 358.08 C 72.77 358.59 72.16 359.61 71.85 360.12 C 71.12 366.69 78.09 369.05 82.96 371.04 C 83.52 371.24 84.64 371.66 85.20 371.86 C 90.76 374.25 95.77 377.79 99.35 382.72 C 98.91 384.62 99.49 386.81 101.20 387.91 C 101.10 390.24 101.09 392.58 101.10 394.93 C 100.87 395.48 100.43 396.60 100.21 397.16 C 97.87 402.34 93.45 406.18 88.27 408.38 C 87.69 408.51 86.52 408.78 85.94 408.92 C 85.53 409.08 84.69 409.41 84.28 409.57 C 80.09 409.49 75.89 409.40 71.70 409.54 C 71.27 409.40 70.41 409.13 69.98 409.00 C 69.45 408.74 68.37 408.23 67.84 407.97 C 67.41 408.00 66.55 408.05 66.13 408.08 C 65.58 407.83 64.49 407.33 63.94 407.08 C 60.40 405.24 57.00 403.11 54.12 400.33 C 55.40 398.97 56.70 397.61 58.00 396.26 C 59.44 395.90 60.04 395.00 59.82 393.55 C 60.79 393.11 61.73 392.51 62.80 392.35 C 66.63 394.58 70.32 397.31 74.76 398.23 C 78.12 399.00 82.16 399.53 84.92 396.97 C 85.23 396.73 85.86 396.26 86.18 396.03 C 86.42 395.47 86.90 394.34 87.14 393.78 C 86.84 391.71 86.82 389.34 85.18 387.79 C 81.85 384.46 77.25 382.93 73.06 381.00 C 72.50 380.80 71.38 380.38 70.82 380.17 C 67.45 378.37 63.93 376.56 61.48 373.54 C 59.41 371.16 58.49 368.07 57.63 365.11 C 58.18 363.42 58.29 361.63 57.93 359.90 C 57.90 359.46 57.86 358.58 57.83 358.14 C 59.49 357.41 60.18 355.44 59.75 353.77 C 61.80 351.83 63.79 349.82 65.84 347.89 C 66.38 347.65 67.48 347.17 68.02 346.93 C 69.31 346.54 70.60 346.16 71.90 345.78 C 72.47 345.56 73.61 345.11 74.19 344.89 Z" />
<path fill="#010101" opacity="1.00" d=" M 195.91 344.78 C 199.59 344.93 203.29 344.96 206.98 344.83 C 207.60 346.18 208.63 346.51 210.07 345.81 C 221.92 349.15 231.23 359.51 233.25 371.65 C 233.30 375.21 233.31 378.77 233.29 382.33 C 233.23 382.74 233.11 383.54 233.04 383.94 C 231.85 384.76 231.57 385.82 232.22 387.13 C 231.22 389.45 230.17 391.74 229.09 394.03 C 228.77 394.53 228.12 395.54 227.80 396.04 C 225.45 398.85 222.88 401.47 220.07 403.83 C 219.57 404.15 218.57 404.80 218.07 405.12 C 214.67 407.01 210.98 408.25 207.33 409.53 C 203.12 409.42 198.90 409.43 194.70 409.50 C 191.26 408.29 187.62 407.50 184.50 405.53 C 176.43 400.76 170.50 392.53 168.83 383.27 C 168.74 379.42 168.74 375.58 168.75 371.73 C 168.80 371.32 168.90 370.50 168.95 370.08 C 169.14 369.52 169.53 368.38 169.73 367.81 C 172.64 358.41 179.92 350.71 188.93 346.87 C 189.49 346.62 190.59 346.12 191.14 345.87 C 191.61 345.93 192.54 346.05 193.01 346.11 C 194.40 346.49 195.37 346.05 195.91 344.78 M 194.26 349.13 C 192.80 349.11 191.23 349.27 190.05 350.21 L 189.28 349.73 L 188.30 350.18 L 188.14 351.09 C 185.30 351.89 183.06 353.98 180.97 355.97 C 177.06 359.79 173.46 364.67 173.15 370.30 C 171.17 370.30 171.12 373.88 172.45 374.88 C 171.84 376.88 171.77 379.09 172.48 381.08 C 171.06 381.78 171.40 384.93 173.20 384.70 C 173.27 388.14 175.22 391.17 176.98 394.00 C 179.59 397.70 182.91 401.34 187.29 402.86 C 186.53 404.70 189.91 406.12 190.99 404.60 C 192.42 405.50 194.12 405.94 195.79 406.13 C 198.90 407.00 202.26 407.14 205.37 406.18 C 205.79 406.04 206.63 405.77 207.05 405.64 C 208.39 406.79 209.34 406.54 209.90 404.88 L 210.84 404.85 L 211.64 405.28 L 212.63 404.81 L 212.78 403.92 C 219.85 401.44 225.90 395.04 227.88 387.83 L 228.77 387.69 L 229.25 386.72 L 228.82 385.92 C 228.84 385.39 228.88 384.35 228.90 383.83 C 230.66 383.93 230.91 380.83 229.56 380.09 C 230.17 378.43 230.00 376.58 229.55 374.91 C 230.89 373.92 230.84 370.34 228.87 370.32 C 228.45 364.22 224.43 358.94 220.05 354.94 C 216.54 352.09 212.43 349.24 207.74 349.16 C 207.96 347.37 204.81 347.06 204.10 348.46 C 202.12 347.77 199.89 347.79 197.92 348.45 C 197.20 347.06 194.05 347.34 194.26 349.13 Z" />
<path fill="#010101" opacity="1.00" d=" M 249.20 345.51 C 259.44 346.10 269.77 344.89 279.95 346.20 C 280.44 346.40 281.41 346.82 281.89 347.03 C 286.89 348.15 291.45 352.24 292.99 357.10 C 293.23 357.59 293.69 358.55 293.92 359.03 C 293.98 359.57 294.08 360.63 294.14 361.16 C 294.12 363.34 294.10 365.53 294.06 367.73 C 293.39 372.92 289.68 377.82 284.92 379.98 C 284.45 380.21 283.51 380.67 283.03 380.90 C 282.03 381.54 280.93 381.89 279.72 381.93 C 278.34 381.58 277.32 383.27 278.67 384.10 C 284.86 392.29 291.25 400.38 296.99 408.90 C 295.48 408.81 293.98 408.74 292.48 408.64 C 286.06 399.96 279.67 391.24 273.03 382.73 C 266.26 382.65 259.48 382.63 252.71 382.76 C 252.42 391.42 252.62 400.09 252.63 408.76 C 251.47 408.78 250.31 408.81 249.16 408.86 C 248.59 395.25 249.05 381.62 248.90 368.00 C 249.06 360.50 248.54 352.99 249.20 345.51 M 252.31 348.37 C 252.16 358.83 252.24 369.28 252.27 379.74 C 258.51 379.92 264.75 379.73 271.00 379.84 C 273.43 379.81 275.95 380.05 278.27 379.14 C 279.54 378.82 281.04 378.74 282.01 377.75 L 282.79 378.21 L 283.76 377.74 L 283.90 376.84 C 289.07 374.41 292.12 367.46 290.68 361.96 C 291.79 360.57 291.51 359.66 289.83 359.23 C 289.03 353.24 282.63 349.77 277.17 348.84 C 268.93 347.91 260.59 348.68 252.31 348.37 Z" />
<path fill="#010101" opacity="1.00" d=" M 304.28 345.55 C 320.11 345.69 335.94 345.71 351.76 345.54 C 351.80 346.58 351.86 347.63 351.93 348.68 C 344.61 348.89 337.29 348.64 329.98 348.87 C 329.70 368.86 330.06 388.87 329.80 408.86 C 328.61 408.83 327.43 408.82 326.25 408.81 C 326.00 388.83 326.32 368.84 326.10 348.86 C 318.78 348.62 311.46 348.94 304.15 348.68 C 304.20 347.63 304.25 346.59 304.28 345.55 Z" />
<path fill="#010101" opacity="1.00" d=" M 366.31 349.24 C 371.15 344.92 377.92 344.76 384.04 344.73 C 384.67 346.44 386.79 346.30 388.16 345.69 C 392.11 346.98 396.27 348.40 399.02 351.72 C 398.27 352.41 397.54 353.12 396.85 353.86 C 393.74 351.88 390.39 350.33 387.09 348.72 C 385.88 347.78 384.32 347.67 382.90 348.11 C 381.29 348.11 379.69 348.11 378.09 348.12 C 376.67 347.68 375.10 347.72 373.90 348.67 C 370.76 350.13 367.93 352.17 365.74 354.86 C 365.55 355.44 365.17 356.60 364.99 357.18 L 365.06 358.01 C 363.43 358.87 363.39 360.92 364.71 362.10 C 366.14 367.04 370.33 370.24 374.92 372.09 C 375.47 372.32 376.56 372.79 377.11 373.02 L 377.92 372.89 C 378.46 373.13 379.55 373.61 380.10 373.84 C 385.70 375.75 391.60 377.82 395.76 382.26 C 401.33 387.96 401.21 398.00 395.74 403.73 C 393.11 406.95 389.02 408.14 385.29 409.57 C 381.43 409.44 377.57 409.41 373.71 409.50 C 368.25 408.01 362.85 405.98 358.60 402.12 C 358.93 401.50 359.59 400.28 359.92 399.67 C 360.33 399.80 361.17 400.07 361.59 400.20 C 364.77 402.29 368.14 404.14 371.83 405.20 C 372.39 405.39 373.52 405.79 374.09 405.98 C 374.49 406.03 375.30 406.12 375.70 406.16 C 378.56 406.65 381.51 406.96 384.36 406.17 C 390.65 405.10 396.77 399.85 396.28 393.00 C 396.56 386.72 391.42 382.17 386.14 379.82 C 385.58 379.60 384.47 379.15 383.91 378.93 C 382.95 378.61 381.99 378.29 381.03 377.97 C 380.49 377.72 379.42 377.22 378.89 376.97 L 378.07 377.09 C 377.52 376.87 376.42 376.41 375.87 376.18 C 371.02 374.08 365.97 371.59 362.93 367.10 C 359.41 361.38 361.03 353.33 366.31 349.24 Z" />
<path fill="#010101" opacity="1.00" d=" M 0.81 345.77 C 16.23 346.02 31.66 345.68 47.08 345.93 C 47.20 349.69 47.20 353.46 47.09 357.23 C 36.18 357.59 25.27 357.22 14.35 357.37 C 14.30 361.84 14.18 366.32 14.37 370.79 L 15.17 370.83 C 24.32 370.62 33.49 370.97 42.65 370.57 C 42.87 374.32 42.87 378.09 42.76 381.85 C 33.43 382.26 24.10 381.80 14.77 382.09 C 14.54 387.03 14.57 391.98 14.76 396.93 C 26.00 397.20 37.26 396.57 48.49 397.25 C 48.27 401.07 48.30 404.89 48.46 408.71 C 32.66 409.04 16.85 408.83 1.04 408.81 C 0.59 387.80 1.04 366.78 0.81 345.77 Z" />
<path fill="#010101" opacity="1.00" d=" M 112.85 345.80 C 121.99 345.94 131.13 345.84 140.27 345.80 C 140.97 345.89 142.37 346.08 143.07 346.18 C 143.56 346.39 144.56 346.81 145.05 347.02 L 145.95 347.05 C 146.43 347.29 147.38 347.77 147.86 348.01 C 153.10 350.24 157.49 355.44 158.05 361.24 C 158.08 363.44 158.09 365.63 158.11 367.84 C 158.07 368.37 157.98 369.42 157.94 369.95 C 157.70 370.43 157.22 371.39 156.98 371.87 C 154.50 379.21 146.58 383.74 139.07 383.99 C 131.62 384.24 124.16 384.00 116.70 384.10 C 116.33 392.31 116.58 400.53 116.60 408.74 C 115.45 408.78 114.30 408.83 113.15 408.89 C 112.66 387.87 113.23 366.82 112.85 345.80 M 116.30 348.40 C 116.10 359.23 116.26 370.07 116.21 380.91 L 117.07 380.93 C 123.39 380.83 129.71 380.84 136.03 380.87 C 138.68 380.80 141.49 380.92 143.96 379.77 L 144.74 380.22 L 145.71 379.75 L 145.84 378.85 C 149.71 377.58 153.32 373.85 153.87 369.76 C 155.54 369.27 155.80 368.35 154.67 366.99 C 155.04 365.66 155.04 364.34 154.68 363.01 C 155.82 361.64 155.56 360.71 153.90 360.23 C 153.26 355.33 148.61 350.99 143.81 350.19 C 143.36 348.50 142.45 348.22 141.08 349.34 L 140.32 348.88 C 132.37 347.89 124.30 348.74 116.30 348.40 Z" />
<path fill="#010101" opacity="1.00" d=" M 406.92 345.91 C 423.63 345.83 440.35 345.79 457.07 345.93 C 457.18 349.68 457.18 353.44 457.07 357.19 C 450.88 357.53 444.67 357.21 438.48 357.38 C 438.57 374.37 438.76 391.38 438.39 408.37 C 434.14 408.68 429.87 408.68 425.62 408.37 C 425.30 391.39 425.48 374.39 425.54 357.40 C 419.33 357.20 413.12 357.50 406.91 357.21 C 406.81 353.44 406.80 349.67 406.92 345.91 Z" />
<path fill="#010101" opacity="1.00" d=" M 460.39 346.06 C 465.51 345.76 470.63 345.77 475.76 345.95 C 476.07 346.53 476.69 347.68 477.00 348.26 L 477.07 349.03 C 477.27 349.51 477.67 350.49 477.87 350.97 C 478.51 351.93 478.87 352.99 478.97 354.15 C 479.21 354.63 479.68 355.58 479.92 356.06 L 480.01 356.93 C 480.21 357.43 480.61 358.42 480.81 358.92 C 481.39 359.93 481.77 361.02 481.96 362.18 C 482.20 362.65 482.70 363.60 482.94 364.08 L 483.01 364.96 C 483.22 365.45 483.64 366.44 483.85 366.93 C 484.49 367.91 484.87 368.99 484.98 370.16 C 485.21 370.64 485.68 371.60 485.91 372.08 L 485.98 372.95 C 486.19 373.44 486.62 374.42 486.84 374.91 C 487.44 375.91 487.81 377.00 487.95 378.17 C 488.19 378.65 488.67 379.61 488.91 380.10 L 488.99 381.00 C 489.22 381.50 489.67 382.50 489.90 382.99 L 490.05 383.90 C 490.22 384.41 490.55 385.44 490.71 385.95 C 491.50 387.23 492.12 388.61 492.75 389.99 C 493.16 389.52 493.99 388.59 494.40 388.12 C 494.55 387.62 494.84 386.61 494.99 386.11 C 495.39 383.97 496.19 381.92 497.20 380.00 C 497.40 379.51 497.81 378.54 498.01 378.05 C 498.39 375.90 499.13 373.81 500.20 371.91 C 500.39 371.41 500.77 370.40 500.96 369.90 L 501.14 368.97 C 501.36 368.46 501.80 367.45 502.02 366.94 L 502.34 366.14 C 503.06 364.84 503.64 363.46 503.94 362.00 L 504.19 361.13 C 504.40 360.63 504.81 359.64 505.02 359.14 C 505.41 356.98 506.10 354.86 507.20 352.96 C 507.40 352.46 507.81 351.47 508.01 350.97 L 508.14 350.07 C 508.36 349.59 508.80 348.62 509.01 348.13 C 508.95 347.61 508.82 346.57 508.76 346.05 L 509.75 345.99 C 514.69 345.73 519.65 345.83 524.60 346.03 L 523.76 346.96 C 523.58 347.49 523.22 348.54 523.04 349.06 L 522.94 349.93 C 522.70 350.41 522.22 351.36 521.98 351.84 C 521.87 352.97 521.50 354.02 520.89 354.99 C 520.65 355.46 520.17 356.40 519.93 356.86 C 519.79 357.97 519.44 359.01 518.87 359.97 C 518.64 360.45 518.18 361.40 517.95 361.88 C 517.75 362.97 517.39 364.02 516.85 365.00 C 516.62 365.48 516.17 366.43 515.95 366.91 C 515.76 367.99 515.40 369.03 514.87 370.01 C 514.64 370.48 514.20 371.44 513.97 371.92 C 513.77 373.01 513.39 374.04 512.84 375.02 C 512.63 375.50 512.20 376.47 511.99 376.95 C 511.83 378.05 511.46 379.08 510.87 380.03 C 510.65 380.51 510.20 381.47 509.98 381.95 C 509.82 383.04 509.45 384.07 508.89 385.04 C 508.66 385.51 508.20 386.46 507.97 386.94 C 507.84 388.04 507.48 389.07 506.88 390.02 C 506.66 390.49 506.20 391.45 505.98 391.92 C 505.90 393.05 505.53 394.08 504.86 395.01 C 504.64 395.49 504.20 396.45 503.98 396.93 C 503.87 398.05 503.51 399.09 502.88 400.04 C 502.64 400.51 502.17 401.46 501.94 401.93 C 501.47 404.27 500.44 406.44 499.62 408.67 C 494.88 408.95 490.13 408.94 485.40 408.67 C 484.61 406.40 483.59 404.19 483.12 401.84 C 482.87 401.38 482.36 400.45 482.11 399.99 C 481.51 399.04 481.16 398.02 481.04 396.92 C 480.82 396.44 480.39 395.48 480.18 395.00 C 479.60 394.02 479.22 392.99 479.04 391.89 C 478.84 391.40 478.44 390.42 478.24 389.93 C 476.90 387.40 475.76 384.72 475.10 381.93 C 474.87 381.45 474.41 380.50 474.18 380.03 C 473.66 379.01 473.28 377.95 473.05 376.84 C 472.84 376.34 472.43 375.34 472.23 374.84 L 472.01 373.91 C 471.83 372.45 471.25 371.09 470.39 369.91 C 469.26 368.09 468.35 366.09 468.04 363.96 C 467.83 363.47 467.40 362.51 467.19 362.02 C 465.69 359.45 464.74 356.59 464.04 353.71 C 463.80 352.28 463.14 350.98 462.36 349.77 L 461.99 349.06 C 461.80 348.54 461.43 347.49 461.24 346.97 L 460.39 346.06 Z" />
</g>
</svg>
