<?xml version="1.0" encoding="UTF-8" standalone="no"?>
<!-- Created with Inkscape (http://www.inkscape.org/) -->
<svg
   xmlns:dc="http://purl.org/dc/elements/1.1/"
   xmlns:cc="http://creativecommons.org/ns#"
   xmlns:rdf="http://www.w3.org/1999/02/22-rdf-syntax-ns#"
   xmlns:svg="http://www.w3.org/2000/svg"
   xmlns="http://www.w3.org/2000/svg"
   xmlns:sodipodi="http://sodipodi.sourceforge.net/DTD/sodipodi-0.dtd"
   xmlns:inkscape="http://www.inkscape.org/namespaces/inkscape"
   width="227"
   height="72"
   id="svg2"
   sodipodi:version="0.32"
   inkscape:version="0.46"
   version="1.0"
   sodipodi:docname="Eesti Televisioon.svg"
   inkscape:output_extension="org.inkscape.output.svg.inkscape">
  <defs
     id="defs4">
    <inkscape:perspective
       sodipodi:type="inkscape:persp3d"
       inkscape:vp_x="0 : 526.18109 : 1"
       inkscape:vp_y="0 : 1000 : 0"
       inkscape:vp_z="744.09448 : 526.18109 : 1"
       inkscape:persp3d-origin="372.04724 : 350.78739 : 1"
       id="perspective10" />
    <inkscape:perspective
       id="perspective2447"
       inkscape:persp3d-origin="372.04724 : 350.78739 : 1"
       inkscape:vp_z="744.09448 : 526.18109 : 1"
       inkscape:vp_y="0 : 1000 : 0"
       inkscape:vp_x="0 : 526.18109 : 1"
       sodipodi:type="inkscape:persp3d" />
  </defs>
  <sodipodi:namedview
     id="base"
     pagecolor="#ffffff"
     bordercolor="#666666"
     borderopacity="1.0"
     gridtolerance="10000"
     guidetolerance="10"
     objecttolerance="10"
     inkscape:pageopacity="0.0"
     inkscape:pageshadow="2"
     inkscape:zoom="3.0276438"
     inkscape:cx="143.50244"
     inkscape:cy="13.261057"
     inkscape:document-units="px"
     inkscape:current-layer="layer1"
     showgrid="true"
     inkscape:window-width="1280"
     inkscape:window-height="914"
     inkscape:window-x="-8"
     inkscape:window-y="-8">
    <inkscape:grid
       type="xygrid"
       id="grid2453"
       visible="true"
       enabled="true" />
  </sodipodi:namedview>
  <metadata
     id="metadata7">
    <rdf:RDF>
      <cc:Work
         rdf:about="">
        <dc:format>image/svg+xml</dc:format>
        <dc:type
           rdf:resource="http://purl.org/dc/dcmitype/StillImage" />
      </cc:Work>
    </rdf:RDF>
  </metadata>
  <g
     inkscape:label="Layer 1"
     inkscape:groupmode="layer"
     id="layer1"
     transform="translate(-85.05701,-212.383)">
    <g
       id="g3428"
       transform="matrix(0.2442372,0,0,0.2442372,50.635204,144.56472)">
      <path
         style="fill:#a79a94;fill-opacity:1;fill-rule:evenodd;stroke:#000000;stroke-width:0;stroke-linecap:butt;stroke-linejoin:miter;stroke-miterlimit:4;stroke-dasharray:none;stroke-opacity:1"
         d="M 228,411.36218 L 176,381.36218 L 176,347.36218 L 181,347.36218 L 244,383.36218 L 228,411.36218 z"
         id="path3434" />
      <path
         style="fill:#b2004e;fill-opacity:1;fill-rule:evenodd;stroke:#000000;stroke-width:0;stroke-linecap:butt;stroke-linejoin:miter;stroke-miterlimit:4;stroke-dasharray:none;stroke-opacity:1"
         d="M 300,436.36218 L 271,419.36218 L 331,315.36218 L 365,315.36218 L 365,323.36218 L 300,436.36218 z"
         id="path3436" />
      <path
         style="opacity:1;fill:#a79a94;fill-opacity:1;fill-rule:nonzero;stroke:#000000;stroke-width:0;stroke-linecap:round;stroke-linejoin:miter;stroke-miterlimit:19.10000038;stroke-dasharray:none;stroke-dashoffset:0;stroke-opacity:1"
         d="M 84.5625,666.375 C 37.519178,667.55889 -3.8349416e-17,705.81749 0,753.15625 L 0,865.5625 C 0,913.65267 38.722327,952.375 86.8125,952.375 L 199.1875,952.375 C 247.27767,952.375 286,913.65266 286,865.5625 L 286,753.15625 C 286,705.06608 247.27767,666.375 199.1875,666.375 L 86.8125,666.375 C 86.061091,666.375 85.309219,666.35621 84.5625,666.375 z M 92.09375,702.375 L 194.90625,702.375 C 225.98529,702.37503 251,727.38971 251,758.46875 L 251,861.25 C 251,892.32902 225.98529,917.375 194.90625,917.375 L 92.09375,917.375 C 61.01471,917.37503 36,892.32904 36,861.25 L 36,758.46875 C 36,727.38972 61.01471,702.375 92.09375,702.375 z"
         transform="translate(145,-384.00015)"
         id="rect3430" />
      <path
         style="fill:#a79a94;fill-opacity:1;fill-rule:evenodd;stroke:#000000;stroke-width:0;stroke-linecap:butt;stroke-linejoin:miter;stroke-miterlimit:4;stroke-dasharray:none;stroke-opacity:1"
         d="M 407,738.375 C 378,738.375 355,761.375 355,790.375 C 355,791.375 355,828.375 355,857.375 C 355,886.375 378,909.375 407,909.375 C 408,909.375 559,909.375 559,909.375 L 559,868.375 C 559,868.375 408,868.375 407,868.375 C 401,868.37501 396,863.37501 396,857.375 C 396,856.375 396,838.375 396,838.375 L 559,838.375 C 559,838.375 559,791.375 559,790.375 C 559,761.375 536,738.375 507,738.375 C 506,738.375 408,738.375 407,738.375 z M 407,779.375 C 408,779.375 506,779.37501 507,779.375 C 513,779.375 518,784.37501 518,790.375 C 518,791.37501 518,807.375 518,807.375 L 396,807.375 C 396,807.375 396,791.375 396,790.375 C 396,784.375 401,779.375 407,779.375 z"
         transform="translate(135,-394)"
         id="path3438" />
      <path
         style="fill:#a79a94;fill-opacity:1;fill-rule:evenodd;stroke:#000000;stroke-width:0;stroke-linecap:butt;stroke-linejoin:miter;stroke-miterlimit:4;stroke-dasharray:none;stroke-opacity:1"
         d="M 862,515.36218 C 862,515.36218 778,515.36219 777,515.36218 C 748,515.36218 725,492.36218 725,463.36218 C 725,462.36218 725,308.36218 725,308.36218 L 766,308.36218 L 766,344.36218 L 874,344.36218 L 948,475.36218 L 1022,344.36218 L 1066,344.36218 L 1066,352.36218 L 982,498.36218 C 982,498.36218 972,516.36218 948,516.36218 C 924,516.36218 914,498.36218 914,498.36218 L 849,385.36218 L 766,385.36218 C 766,385.36218 766,462.36218 766,463.36218 C 766,469.36218 771,474.36218 777,474.36218 C 778,474.36218 862,474.36218 862,474.36218 L 862,515.36218 z"
         id="path3504"
         sodipodi:nodetypes="cccccccccccczccccccc" />
    </g>
  </g>
</svg>
