<?xml version="1.0" encoding="UTF-8" standalone="yes"?>
<svg xmlns="http://www.w3.org/2000/svg" xmlns:xlink="http://www.w3.org/1999/xlink" width="142.66666666666666px" height="106.66666666666666px" viewBox="0 0 107 80" version="1.1">
  <g id="surface1">
    <path style=" stroke:none;fill-rule:nonzero;fill:rgb(0%,0%,0%);fill-opacity:1;" d="M 18.765625 67.90625 C 18.371094 65.984375 16.800781 65.472656 15.042969 65.308594 C 9.363281 64.78125 8.355469 69.042969 8.355469 70.84375 C 8.355469 73.921875 9.25 76.46875 14.828125 76.46875 C 15.855469 76.46875 18.695312 75.40625 18.695312 73.679688 L 26.710938 73.679688 C 26.390625 78.800781 17.8125 80.027344 14.074219 80.027344 C 6.324219 80.027344 -0.308594 78.578125 0.0117188 70.914062 C 0.238281 65.441406 5.390625 61.601562 15.632812 61.839844 C 21.339844 61.972656 26.824219 63.761719 26.847656 67.90625 Z M 18.765625 67.90625 "/>
    <path style=" stroke:none;fill-rule:nonzero;fill:rgb(0%,0%,0%);fill-opacity:1;" d="M 99.082031 67.90625 C 98.6875 65.984375 97.117188 65.472656 95.359375 65.308594 C 89.679688 64.78125 88.671875 69.042969 88.671875 70.84375 C 88.671875 73.921875 89.566406 76.46875 95.144531 76.46875 C 96.171875 76.46875 99.007812 75.40625 99.007812 73.679688 L 107.027344 73.679688 C 106.707031 78.800781 98.128906 80.027344 94.390625 80.027344 C 86.640625 80.027344 80.007812 78.578125 80.328125 70.914062 C 80.554688 65.441406 85.707031 61.601562 95.945312 61.839844 C 101.65625 61.972656 107.140625 63.761719 107.164062 67.90625 Z M 99.082031 67.90625 "/>
    <path style=" stroke:none;fill-rule:nonzero;fill:rgb(0%,0%,0%);fill-opacity:1;" d="M 28.28125 62.207031 L 38.691406 62.207031 L 47.570312 74.710938 L 47.644531 74.710938 L 47.644531 62.207031 L 54.316406 62.207031 L 54.316406 79.570312 L 44.34375 79.570312 L 35.023438 67.066406 L 34.953125 67.066406 L 34.953125 79.570312 L 28.28125 79.570312 Z M 28.28125 62.207031 "/>
    <path style=" stroke:none;fill-rule:nonzero;fill:rgb(0%,0%,0%);fill-opacity:1;" d="M 56.375 62.207031 L 69.019531 62.207031 C 75.09375 62.207031 78.667969 63.914062 78.667969 66.488281 C 78.667969 68.007812 77.171875 69.886719 73.835938 70.4375 L 73.835938 70.488281 C 77.855469 70.726562 79.335938 73.277344 79.335938 74.804688 C 79.335938 77.867188 75.851562 79.570312 69.054688 79.570312 L 56.375 79.570312 Z M 63.695312 68.953125 L 65.789062 68.953125 C 69.019531 68.953125 70.730469 68.699219 70.730469 67.355469 C 70.730469 65.910156 69.304688 65.429688 66.398438 65.429688 L 63.695312 65.429688 Z M 63.695312 75.933594 L 65.789062 75.933594 C 69.679688 75.933594 71.109375 75.523438 71.109375 74.175781 C 71.109375 72.734375 69.304688 72.25 66.398438 72.25 L 63.695312 72.25 Z M 63.695312 75.933594 "/>
    <path style=" stroke:none;fill-rule:nonzero;fill:rgb(100%,100%,100%);fill-opacity:1;" d="M 98.097656 59.371094 C 96.390625 60.125 94.503906 60.464844 92.492188 60.464844 L 11.90625 60.398438 C 7.351562 60.042969 2.875 56.277344 1.601562 51.773438 C 0.25 47.269531 1.5625 42.621094 4.539062 39.339844 C 7.414062 36.371094 11.105469 35.132812 15.210938 35.59375 C 11.351562 32.964844 9.730469 28.609375 10.285156 23.9375 C 10.800781 19.878906 13.734375 15.921875 17.492188 14.300781 C 21.78125 12.367188 27.199219 13.417969 30.566406 16.679688 C 29.867188 14.300781 29.5 10.894531 30.464844 8.453125 C 31.613281 4.601562 35.347656 1.171875 39.144531 0.371094 C 44.214844 -0.722656 49.039062 1.195312 51.953125 5.550781 C 52.507812 6.371094 52.835938 7.296875 53.265625 8.160156 C 54.726562 3.992188 58.933594 0.542969 63.203125 0.0976562 C 67.617188 -0.46875 71.785156 1.425781 74.554688 5.148438 C 76.710938 8.242188 77.445312 12.851562 76.050781 16.574219 L 76.214844 16.574219 C 79.417969 13.691406 84.261719 12.640625 88.386719 14.238281 C 92.328125 15.542969 95.675781 19.75 96.207031 23.894531 C 96.804688 28.480469 95.242188 32.5 91.773438 35.46875 C 97.03125 35.152344 102.015625 37.949219 104.171875 42.851562 C 106.0625 47.125 105.507812 52.847656 102.304688 56.320312 C 101.011719 57.625 99.636719 58.71875 98.097656 59.371094 Z M 98.097656 59.371094 "/>
    <path style=" stroke:none;fill-rule:nonzero;fill:rgb(0%,53.72549%,81.568627%);fill-opacity:1;" d="M 89.558594 35.59375 L 59.753906 55.5625 L 69.792969 31.660156 L 74.554688 20.527344 C 76.480469 16.933594 80.113281 14.640625 84.078125 14.574219 C 87.875 14.574219 91.242188 16.40625 93.375 19.6875 C 95.570312 22.96875 95.695312 28.335938 93.496094 31.660156 C 92.515625 33.214844 91.054688 34.605469 89.558594 35.59375 Z M 89.558594 35.59375 "/>
    <path style=" stroke:none;fill-rule:nonzero;fill:rgb(39.215686%,37.647059%,66.666667%);fill-opacity:1;" d="M 74.71875 16.742188 L 59.980469 51.648438 L 59.324219 47.839844 L 54.890625 19.226562 C 54.703125 17.476562 55.421875 16.007812 56.816406 15.039062 L 58.933594 13.777344 C 59.054688 13.332031 58.441406 13.1875 58.152344 13.039062 L 54.007812 12.996094 C 53.738281 8.871094 55.546875 5.128906 59.035156 2.878906 C 61.746094 1.109375 65.871094 0.648438 68.886719 2.078125 C 72.808594 3.675781 75.539062 7.863281 75.597656 12.136719 C 75.578125 13.710938 75.3125 15.332031 74.71875 16.742188 Z M 74.71875 16.742188 "/>
    <path style=" stroke:none;fill-rule:nonzero;fill:rgb(80.784314%,6.666667%,25.490196%);fill-opacity:1;" d="M 46.414062 51.773438 L 31.902344 16.785156 C 30.339844 13.039062 30.996094 8.117188 33.664062 5.085938 C 36.519531 1.910156 40.542969 0.5625 44.6875 1.636719 C 48.199219 2.5 51.480469 5.863281 52.34375 9.460938 C 52.753906 10.808594 52.691406 12.429688 52.609375 13.902344 Z M 46.414062 51.773438 "/>
    <path style=" stroke:none;fill-rule:nonzero;fill:rgb(95.294118%,43.921569%,12.941176%);fill-opacity:1;" d="M 15.398438 34.332031 C 12.421875 31.746094 11.085938 28.292969 11.519531 24.296875 C 11.949219 20.253906 15.132812 16.300781 18.929688 15.082031 C 22.828125 13.859375 27.074219 14.828125 29.910156 17.753906 C 31.101562 18.886719 31.839844 20.234375 32.453125 21.625 L 46.472656 55.625 Z M 15.398438 34.332031 "/>
    <path style=" stroke:none;fill-rule:nonzero;fill:rgb(99.215686%,72.54902%,7.45098%);fill-opacity:1;" d="M 12.210938 59.171875 C 8.332031 58.730469 5.34375 56.636719 3.523438 53.074219 C 1.675781 49.476562 2.15625 44.375 4.636719 41.1875 C 7.339844 37.9375 11.253906 36.304688 15.199219 37.105469 C 16.804688 37.367188 18.152344 38.058594 19.421875 38.859375 L 49.59375 59.179688 Z M 12.210938 59.171875 "/>
    <path style=" stroke:none;fill-rule:nonzero;fill:rgb(5.098039%,69.411765%,29.411765%);fill-opacity:1;" d="M 94.125 59.171875 C 98.003906 58.730469 100.992188 56.636719 102.816406 53.074219 C 104.660156 49.476562 104.183594 44.375 101.699219 41.1875 C 98.996094 37.9375 95.082031 36.304688 91.136719 37.105469 C 89.53125 37.367188 88.183594 38.058594 86.914062 38.859375 L 56.746094 59.179688 Z M 94.125 59.171875 "/>
  </g>
</svg>