<?xml version="1.0" encoding="UTF-8" ?>
<!DOCTYPE svg PUBLIC "-//W3C//DTD SVG 1.1//EN" "http://www.w3.org/Graphics/SVG/1.1/DTD/svg11.dtd">
<svg width="800pt" height="320pt" viewBox="0 0 800 320" version="1.1" xmlns="http://www.w3.org/2000/svg">
<g id="#df3c41ff">
<path fill="#df3c41" opacity="1.00" d=" M 583.83 15.72 C 589.48 18.20 595.85 19.31 600.79 23.20 C 603.27 25.00 603.86 28.24 604.06 31.11 C 605.27 47.88 601.36 64.38 598.94 80.87 C 594.45 109.62 588.86 138.51 589.86 167.74 C 586.08 168.89 582.36 170.18 578.62 171.41 C 576.20 149.33 577.51 127.04 580.39 105.06 C 583.00 81.08 587.67 57.19 586.99 32.97 C 586.77 27.12 586.35 21.10 583.83 15.72 Z" />
<path fill="#df3c41" opacity="1.00" d=" M 114.95 27.69 C 122.99 30.26 131.01 33.31 138.06 38.05 C 139.68 39.26 141.74 40.69 141.73 42.95 C 142.09 48.98 140.75 54.92 140.15 60.89 C 136.88 90.16 133.60 119.44 131.62 148.83 C 130.66 161.19 129.76 173.58 129.99 185.99 C 129.76 194.14 131.36 202.29 130.57 210.44 C 129.07 213.01 125.75 213.49 123.14 212.53 C 117.90 210.84 113.11 207.95 108.61 204.82 C 108.49 201.92 109.27 199.05 109.62 196.18 C 112.68 174.99 115.72 153.79 118.80 132.60 C 114.56 146.27 107.75 158.95 100.19 171.04 C 94.21 180.87 87.40 190.19 79.76 198.79 C 72.08 207.40 62.94 215.41 51.73 218.87 C 44.67 220.71 36.07 220.70 30.41 215.47 C 25.59 210.70 24.98 203.43 24.97 197.01 C 24.58 186.66 27.23 176.48 30.84 166.86 C 36.44 152.32 44.79 138.80 55.46 127.42 C 65.07 117.58 76.98 108.54 91.06 106.93 C 100.70 106.26 110.79 107.29 119.49 111.79 C 122.02 93.30 124.10 74.69 124.19 56.00 C 123.88 48.69 123.60 41.13 120.77 34.27 C 119.68 31.44 117.31 29.46 114.95 27.69 M 86.29 122.28 C 74.41 129.83 65.21 140.88 57.68 152.63 C 51.31 162.66 46.20 173.56 43.11 185.06 C 41.39 191.83 40.44 199.08 42.27 205.93 C 43.01 208.48 45.02 211.51 48.12 210.75 C 56.34 209.88 62.63 203.80 68.42 198.44 C 82.96 183.62 93.55 165.52 103.21 147.28 C 107.81 137.88 112.90 128.43 114.88 118.05 C 105.35 114.73 94.53 116.59 86.29 122.28 Z" />
<path fill="#df3c41" opacity="1.00" d=" M 521.14 80.76 C 527.21 82.09 532.79 84.90 538.42 87.44 C 542.19 88.89 543.17 93.26 544.12 96.74 C 546.65 108.96 545.60 121.53 545.39 133.91 C 545.03 159.04 543.24 184.18 539.49 209.04 C 536.44 228.46 532.27 247.83 525.06 266.17 C 520.00 278.32 513.33 290.56 502.24 298.19 C 493.44 304.35 480.75 305.01 472.11 298.18 C 479.12 301.49 487.50 299.21 493.05 294.15 C 501.77 286.32 506.59 275.25 510.48 264.43 C 518.90 239.49 522.37 213.20 524.70 187.08 C 525.72 172.14 527.08 157.10 525.69 142.14 C 524.68 148.58 522.29 154.70 519.85 160.72 C 514.63 172.89 508.04 184.48 500.12 195.09 C 495.25 201.47 489.86 207.62 483.16 212.13 C 479.65 214.43 475.19 216.12 471.02 214.70 C 465.75 213.38 462.16 208.70 460.12 203.92 C 457.16 197.37 456.86 190.02 457.08 182.95 C 457.75 160.62 463.68 138.01 476.34 119.42 C 483.67 109.14 493.88 99.19 507.04 97.82 C 513.67 96.92 519.85 99.83 525.83 102.22 C 525.26 94.99 525.64 86.88 521.14 80.76 M 498.60 116.55 C 490.11 126.07 484.78 137.91 480.75 149.88 C 476.02 164.43 473.27 179.64 472.75 194.94 C 472.69 198.65 472.40 202.67 474.50 205.95 C 480.90 203.78 485.37 198.44 489.68 193.52 C 500.77 179.86 509.50 164.34 516.03 148.02 C 520.61 135.76 524.64 122.97 524.56 109.75 C 521.25 108.27 517.65 107.32 514.01 107.74 C 507.82 108.16 502.61 112.10 498.60 116.55 Z" />
<path fill="#df3c41" opacity="1.00" d=" M 345.31 85.41 C 349.21 84.91 352.98 86.75 356.40 88.43 C 358.69 89.77 361.50 91.16 362.26 93.94 C 361.96 98.51 360.26 102.92 358.04 106.89 C 357.13 108.29 355.94 110.25 353.96 109.72 C 350.17 109.28 346.58 107.78 343.19 106.10 C 340.85 104.80 337.59 103.18 338.52 99.92 C 339.36 94.74 340.72 88.50 345.31 85.41 Z" />
<path fill="#df3c41" opacity="1.00" d=" M 207.85 86.35 C 214.61 87.97 221.93 89.10 227.49 93.61 C 231.50 96.92 230.10 102.67 229.86 107.17 C 226.47 137.48 219.95 167.47 218.99 198.04 C 218.79 206.51 219.22 215.36 222.94 223.14 C 224.09 225.70 226.19 227.62 228.22 229.48 C 221.78 228.19 214.45 227.38 209.78 222.20 C 203.53 215.48 202.94 205.71 202.75 197.01 C 203.06 184.04 205.01 171.15 207.87 158.51 C 202.83 171.15 196.04 183.03 188.15 194.10 C 182.89 201.34 177.10 208.50 169.58 213.51 C 165.43 216.47 159.56 216.58 155.28 213.84 C 150.86 211.07 148.36 206.13 146.92 201.27 C 144.45 192.39 144.77 183.03 145.99 173.98 C 147.96 160.53 152.19 147.43 158.26 135.27 C 163.31 125.50 169.38 116.04 177.61 108.63 C 183.28 103.59 190.22 99.37 197.99 99.04 C 202.88 98.77 207.27 101.30 211.40 103.60 C 212.63 97.77 213.40 90.25 207.85 86.35 M 202.29 109.23 C 190.50 115.76 181.95 126.79 175.36 138.30 C 164.63 157.32 159.37 179.43 161.04 201.24 C 161.44 203.25 161.39 206.28 163.87 206.90 C 169.92 204.33 173.60 198.49 177.59 193.57 C 191.21 174.74 201.72 153.59 208.23 131.27 C 210.49 123.18 212.28 114.69 211.09 106.27 C 208.02 106.79 204.98 107.62 202.29 109.23 Z" />
<path fill="#df3c41" opacity="1.00" d=" M 295.05 93.05 C 302.29 88.13 313.63 87.05 319.82 94.21 C 327.01 102.95 324.86 118.20 314.61 123.70 C 310.74 126.14 306.05 125.38 301.72 125.59 C 307.47 122.12 307.65 114.86 308.15 108.93 C 308.60 104.24 308.36 98.71 303.91 95.92 C 298.67 97.36 294.78 101.31 291.09 105.07 C 287.58 108.89 284.10 112.78 281.15 117.07 C 273.88 128.30 269.53 141.11 266.25 154.00 C 262.30 170.34 260.37 187.36 262.23 204.13 C 262.85 210.33 265.00 216.64 269.88 220.78 C 263.10 218.89 255.60 217.55 250.29 212.59 C 245.32 207.89 244.48 200.60 244.91 194.12 C 244.99 171.03 248.25 148.11 248.87 125.04 C 249.23 117.14 249.40 108.68 245.37 101.58 C 243.58 98.28 240.22 96.40 236.98 94.78 C 245.19 96.53 253.40 98.97 260.67 103.26 C 262.97 104.69 265.47 106.38 266.43 109.03 C 267.49 113.67 267.24 118.47 267.22 123.19 C 274.23 111.35 283.37 100.50 295.05 93.05 Z" />
<path fill="#df3c41" opacity="1.00" d=" M 411.87 116.79 C 419.78 113.27 429.94 116.00 434.89 123.14 C 440.81 131.46 442.22 142.02 442.50 151.98 C 442.60 170.25 441.35 188.58 438.44 206.63 C 432.05 206.02 425.38 204.72 420.27 200.58 C 421.87 186.07 424.83 171.66 424.76 157.01 C 424.72 148.32 425.09 139.49 423.08 130.97 C 422.39 128.18 420.88 124.99 417.80 124.31 C 414.41 123.79 411.29 125.80 408.81 127.88 C 401.46 134.27 396.87 143.09 392.98 151.86 C 384.97 171.30 381.58 192.43 381.72 213.39 C 375.03 213.48 368.89 209.93 363.80 205.88 C 365.30 200.38 365.77 194.68 365.98 189.00 C 366.23 172.44 365.68 155.74 362.40 139.46 C 361.14 133.25 359.14 127.13 355.60 121.82 C 362.44 122.96 369.70 125.10 374.39 130.54 C 377.54 134.13 378.58 138.97 379.18 143.58 C 380.04 150.55 380.70 157.55 381.32 164.54 C 383.66 153.72 388.11 143.39 393.91 133.98 C 398.42 127.00 403.97 120.05 411.87 116.79 Z" />
<path fill="#df3c41" opacity="1.00" d=" M 324.56 125.25 C 330.76 125.82 337.88 126.83 342.02 132.03 C 345.20 136.15 343.31 141.53 342.16 146.03 C 337.59 166.01 334.94 186.53 335.27 207.05 C 335.54 213.19 335.85 219.55 338.51 225.21 C 334.71 223.21 330.41 221.78 327.42 218.57 C 323.85 214.23 323.10 208.40 322.10 203.05 C 319.66 184.74 321.69 166.22 324.40 148.05 C 325.17 140.53 326.59 132.67 324.56 125.25 Z" />
<path fill="#df3c41" opacity="1.00" d=" M 578.06 196.44 C 582.07 193.16 586.80 190.55 592.06 190.11 C 595.04 194.70 595.94 200.23 596.31 205.59 C 592.13 206.97 588.08 208.73 583.88 210.01 C 581.52 205.69 580.01 200.96 578.06 196.44 Z" />
</g>
<g id="#3a3838ff">
<path fill="#3a3838" opacity="1.00" d=" M 623.25 102.75 C 649.56 102.74 675.87 102.75 702.18 102.75 C 711.18 129.04 720.10 155.35 729.06 181.66 C 737.72 155.37 746.39 129.08 754.94 102.75 C 761.68 102.75 768.42 102.74 775.17 102.76 C 765.17 134.23 754.95 165.63 744.88 197.07 C 743.38 201.70 741.73 206.64 737.92 209.92 C 734.18 213.19 728.61 213.47 724.07 211.98 C 718.83 210.02 716.31 204.54 714.51 199.65 C 705.69 173.61 696.89 147.56 688.13 121.50 C 681.42 121.50 674.71 121.50 668.00 121.50 C 668.00 151.34 668.00 181.17 668.00 211.00 C 661.49 211.00 654.99 211.01 648.49 210.99 C 648.51 181.16 648.49 151.33 648.50 121.50 C 640.08 121.50 631.67 121.50 623.26 121.50 C 623.25 115.25 623.25 109.00 623.25 102.75 Z" />
</g>
</svg>
