<?xml version="1.0" encoding="UTF-8" standalone="yes"?>
<svg xmlns="http://www.w3.org/2000/svg" xmlns:xlink="http://www.w3.org/1999/xlink" width="88px" height="106.66666666666666px" viewBox="0 0 66 80" version="1.1">
  <defs>
    <clipPath id="clip1">
      <path d="M 9 0.105469 L 65.03125 0.105469 L 65.03125 68.652344 L 9 68.652344 Z M 9 0.105469 "/>
    </clipPath>
  </defs>
  <g id="surface1">
    <path style=" stroke:none;fill-rule:nonzero;fill:rgb(0%,0%,0%);fill-opacity:1;" d="M 0.308594 0.101562 L 65.03125 0.101562 L 65.03125 68.648438 L 0.308594 68.648438 Z M 0.308594 0.101562 "/>
    <path style=" stroke:none;fill-rule:nonzero;fill:rgb(0%,0%,0%);fill-opacity:1;" d="M 3.28125 75.75 C 3.808594 75.75 4.191406 75.511719 4.191406 74.855469 C 4.191406 74.144531 3.460938 74.054688 2.980469 74.054688 L 2.335938 74.054688 L 2.335938 75.75 Z M 0.0703125 79.90625 L 0.0703125 72.269531 L 3.40625 72.269531 C 5.398438 72.269531 6.355469 73.273438 6.355469 74.84375 C 6.355469 76.492188 5.472656 77.53125 3.480469 77.53125 L 2.335938 77.53125 L 2.335938 79.90625 Z M 0.0703125 79.90625 "/>
    <path style=" stroke:none;fill-rule:nonzero;fill:rgb(0%,0%,0%);fill-opacity:1;" d="M 7 79.90625 L 7 72.269531 L 9.269531 72.269531 L 9.269531 78.128906 L 12.386719 78.128906 L 12.386719 79.90625 Z M 7 79.90625 "/>
    <path style=" stroke:none;fill-rule:nonzero;fill:rgb(0%,0%,0%);fill-opacity:1;" d="M 16.207031 74.570312 L 15.503906 77.304688 L 16.9375 77.304688 Z M 12.59375 79.90625 L 15.078125 72.269531 L 17.378906 72.269531 L 19.859375 79.90625 L 17.601562 79.90625 L 17.328125 78.902344 L 15.078125 78.902344 L 14.8125 79.90625 Z M 12.59375 79.90625 "/>
    <path style=" stroke:none;fill-rule:nonzero;fill:rgb(0%,0%,0%);fill-opacity:1;" d="M 24.023438 72.269531 L 26.519531 72.269531 L 23.945312 77.082031 L 23.945312 79.90625 L 21.679688 79.90625 L 21.679688 77.121094 L 19.105469 72.269531 L 21.636719 72.269531 L 22.832031 74.855469 Z M 24.023438 72.269531 "/>
    <path style=" stroke:none;fill-rule:nonzero;fill:rgb(0%,0%,0%);fill-opacity:1;" d="M 30.039062 76.710938 C 30.757812 76.710938 31.289062 76.753906 31.289062 77.425781 C 31.289062 77.996094 30.867188 78.128906 30.308594 78.128906 L 29.320312 78.128906 L 29.320312 76.710938 Z M 30.117188 74.054688 C 30.59375 74.054688 31.039062 74.058594 31.039062 74.65625 C 31.039062 75.101562 30.710938 75.320312 30.261719 75.320312 L 29.320312 75.320312 L 29.320312 74.054688 Z M 30.421875 79.90625 C 32.21875 79.90625 33.40625 79.3125 33.40625 77.601562 C 33.40625 76.777344 33 76.0625 32.25 75.851562 C 32.6875 75.542969 33.15625 74.972656 33.15625 74.191406 C 33.15625 72.671875 31.917969 72.269531 30.359375 72.269531 L 27.050781 72.269531 L 27.050781 79.90625 Z M 30.421875 79.90625 "/>
    <path style=" stroke:none;fill-rule:nonzero;fill:rgb(0%,0%,0%);fill-opacity:1;" d="M 37.621094 73.933594 C 38.617188 73.902344 39.007812 75.007812 39.007812 76.050781 C 39.007812 77.308594 38.617188 78.242188 37.636719 78.242188 C 36.550781 78.242188 36.289062 77.027344 36.289062 76.050781 C 36.289062 75.078125 36.59375 73.933594 37.621094 73.933594 M 37.636719 72.070312 C 35.492188 72.070312 34.019531 73.625 34.019531 76.023438 C 34.019531 78.621094 35.46875 80.109375 37.636719 80.109375 C 39.6875 80.109375 41.273438 78.648438 41.273438 76.050781 C 41.273438 74.023438 40.113281 72.070312 37.636719 72.070312 "/>
    <path style=" stroke:none;fill-rule:nonzero;fill:rgb(0%,0%,0%);fill-opacity:1;" d="M 46.402344 72.269531 L 48.90625 72.269531 L 46.328125 77.082031 L 46.328125 79.90625 L 44.0625 79.90625 L 44.0625 77.121094 L 41.484375 72.269531 L 44.019531 72.269531 L 45.214844 74.855469 Z M 46.402344 72.269531 "/>
    <path style=" stroke:none;fill-rule:nonzero;fill:rgb(0%,0%,0%);fill-opacity:1;" d="M 54.417969 74.273438 L 52.378906 74.273438 L 52.378906 72.269531 L 58.722656 72.269531 L 58.722656 74.273438 L 56.691406 74.273438 L 56.691406 79.90625 L 54.417969 79.90625 Z M 54.417969 74.273438 "/>
    <path style=" stroke:none;fill-rule:nonzero;fill:rgb(0%,0%,0%);fill-opacity:1;" d="M 61.410156 79.90625 L 59.046875 72.269531 L 61.324219 72.269531 L 62.542969 77.347656 L 63.800781 72.269531 L 66.085938 72.269531 L 63.683594 79.90625 Z M 61.410156 79.90625 "/>
    <path style=" stroke:none;fill-rule:evenodd;fill:rgb(0%,0%,0%);fill-opacity:1;" d="M 0 69.152344 L 65.335938 69.152344 L 65.335938 0 L 0 0 Z M 64.726562 68.546875 L 0.609375 68.546875 L 0.609375 0.605469 L 64.726562 0.605469 Z M 64.726562 68.546875 "/>
    <g clip-path="url(#clip1)" clip-rule="nonzero">
      <path style=" stroke:none;fill-rule:nonzero;fill:rgb(100%,100%,100%);fill-opacity:1;" d="M 65.253906 35.257812 C 68.332031 39.921875 71.855469 44.589844 72.148438 50.5625 C 72.734375 57.417969 72.148438 65 68.621094 70.828125 C 62.898438 74.03125 56.738281 76.367188 50.425781 78.261719 C 49.691406 76.804688 50.71875 74.910156 50.570312 73.015625 C 46.316406 73.59375 42.5 76.65625 38.535156 78.550781 C 36.628906 77.09375 36.769531 74.46875 37.066406 72.144531 L 38.242188 68.933594 C 31.484375 67.039062 22.421875 62.582031 20.476562 56.6875 C 19.015625 51.652344 21.507812 45.171875 25.914062 41.089844 C 32.222656 34.535156 40.441406 32.636719 49.25 31.910156 C 41.46875 28.414062 33.101562 26.074219 26.351562 19.957031 C 16.957031 10.632812 9.46875 0.28125 9.765625 -12.988281 C 29.429688 -4.824219 46.164062 13.835938 57.320312 31.761719 C 57.757812 24.035156 57.476562 16.019531 60.261719 9.171875 C 63.195312 -0.597656 71.417969 -9.195312 80.074219 -15.464844 C 79.785156 3.046875 79.925781 22.433594 65.253906 35.257812 M 34.421875 40.214844 C 32.664062 40.796875 31.632812 42.550781 31.632812 44.445312 C 31.78125 46.046875 32.664062 47.648438 34.28125 48.375 C 35.890625 49.109375 37.796875 48.667969 39.121094 47.5 C 40.296875 46.335938 40.734375 44.445312 40.296875 42.839844 C 39.414062 40.363281 36.628906 39.488281 34.421875 40.214844 "/>
    </g>
  </g>
</svg>