<?xml version="1.0" encoding="UTF-8" standalone="yes"?>
<svg xmlns="http://www.w3.org/2000/svg" xmlns:xlink="http://www.w3.org/1999/xlink" width="266.66666666666663px" height="106.66666666666666px" viewBox="0 0 200 80" version="1.1">
  <g id="surface1">
    <path style=" stroke:none;fill-rule:nonzero;fill:rgb(87.45098%,23.529412%,25.490196%);fill-opacity:1;" d="M 145.957031 3.929688 C 147.371094 4.550781 148.960938 4.828125 150.199219 5.800781 C 150.816406 6.25 150.964844 7.058594 151.015625 7.777344 C 151.316406 11.96875 150.339844 16.09375 149.734375 20.21875 C 148.613281 27.40625 147.214844 34.628906 147.464844 41.933594 C 146.519531 42.222656 145.589844 42.546875 144.65625 42.851562 C 144.050781 37.332031 144.378906 31.761719 145.097656 26.265625 C 145.75 20.269531 146.917969 14.296875 146.746094 8.242188 C 146.691406 6.78125 146.585938 5.273438 145.957031 3.929688 Z M 145.957031 3.929688 "/>
    <path style=" stroke:none;fill-rule:nonzero;fill:rgb(87.45098%,23.529412%,25.490196%);fill-opacity:1;" d="M 28.738281 6.921875 C 30.746094 7.566406 32.753906 8.328125 34.515625 9.511719 C 34.921875 9.816406 35.433594 10.171875 35.433594 10.738281 C 35.523438 12.246094 35.1875 13.730469 35.039062 15.222656 C 34.21875 22.539062 33.398438 29.859375 32.90625 37.207031 C 32.664062 40.296875 32.441406 43.394531 32.496094 46.496094 C 32.441406 48.535156 32.839844 50.574219 32.640625 52.609375 C 32.265625 53.253906 31.4375 53.371094 30.785156 53.132812 C 29.476562 52.710938 28.277344 51.988281 27.152344 51.203125 C 27.121094 50.480469 27.316406 49.761719 27.40625 49.046875 C 28.171875 43.746094 28.929688 38.449219 29.699219 33.148438 C 28.640625 36.566406 26.9375 39.738281 25.046875 42.761719 C 23.550781 45.21875 21.851562 47.546875 19.941406 49.699219 C 18.019531 51.851562 15.734375 53.851562 12.933594 54.71875 C 11.167969 55.175781 9.015625 55.175781 7.601562 53.867188 C 6.398438 52.675781 6.246094 50.859375 6.242188 49.253906 C 6.144531 46.664062 6.808594 44.121094 7.710938 41.714844 C 9.109375 38.078125 11.199219 34.699219 13.863281 31.855469 C 16.265625 29.394531 19.246094 27.136719 22.765625 26.734375 C 25.175781 26.566406 27.699219 26.824219 29.871094 27.949219 C 30.503906 23.324219 31.023438 18.671875 31.046875 14 C 30.96875 12.171875 30.898438 10.28125 30.191406 8.566406 C 29.921875 7.859375 29.328125 7.363281 28.738281 6.921875 M 21.574219 30.570312 C 18.601562 32.457031 16.300781 35.21875 14.421875 38.15625 C 12.828125 40.664062 11.550781 43.390625 10.777344 46.265625 C 10.347656 47.957031 10.109375 49.769531 10.566406 51.484375 C 10.753906 52.121094 11.253906 52.878906 12.03125 52.6875 C 14.085938 52.46875 15.65625 50.949219 17.105469 49.609375 C 20.738281 45.90625 23.386719 41.378906 25.800781 36.820312 C 26.953125 34.46875 28.226562 32.109375 28.71875 29.511719 C 26.335938 28.683594 23.632812 29.148438 21.574219 30.570312 Z M 21.574219 30.570312 "/>
    <path style=" stroke:none;fill-rule:nonzero;fill:rgb(87.45098%,23.529412%,25.490196%);fill-opacity:1;" d="M 130.285156 20.191406 C 131.800781 20.523438 133.199219 21.226562 134.605469 21.859375 C 135.546875 22.222656 135.792969 23.316406 136.03125 24.183594 C 136.664062 27.238281 136.398438 30.382812 136.347656 33.476562 C 136.257812 39.761719 135.808594 46.046875 134.871094 52.261719 C 134.109375 57.113281 133.066406 61.957031 131.265625 66.542969 C 130 69.578125 128.332031 72.640625 125.558594 74.546875 C 123.359375 76.085938 120.1875 76.253906 118.027344 74.546875 C 119.78125 75.371094 121.875 74.800781 123.261719 73.539062 C 125.441406 71.578125 126.648438 68.8125 127.621094 66.109375 C 129.726562 59.871094 130.59375 53.300781 131.175781 46.769531 C 131.429688 43.035156 131.769531 39.273438 131.421875 35.535156 C 131.171875 37.144531 130.574219 38.675781 129.960938 40.179688 C 128.65625 43.222656 127.011719 46.121094 125.03125 48.773438 C 123.8125 50.367188 122.464844 51.90625 120.789062 53.03125 C 119.914062 53.609375 118.796875 54.03125 117.753906 53.675781 C 116.4375 53.34375 115.539062 52.175781 115.03125 50.980469 C 114.289062 49.34375 114.214844 47.503906 114.269531 45.738281 C 114.4375 40.15625 115.921875 34.503906 119.085938 29.855469 C 120.917969 27.285156 123.46875 24.796875 126.761719 24.453125 C 128.417969 24.230469 129.960938 24.957031 131.457031 25.554688 C 131.316406 23.746094 131.410156 21.71875 130.285156 20.191406 M 124.648438 29.136719 C 122.527344 31.515625 121.195312 34.476562 120.1875 37.46875 C 119.003906 41.109375 118.316406 44.910156 118.1875 48.734375 C 118.171875 49.664062 118.101562 50.667969 118.625 51.488281 C 120.226562 50.945312 121.34375 49.609375 122.421875 48.378906 C 125.191406 44.964844 127.375 41.085938 129.007812 37.003906 C 130.152344 33.941406 131.160156 30.742188 131.140625 27.4375 C 130.3125 27.066406 129.414062 26.828125 128.503906 26.933594 C 126.953125 27.039062 125.652344 28.023438 124.648438 29.136719 Z M 124.648438 29.136719 "/>
    <path style=" stroke:none;fill-rule:nonzero;fill:rgb(87.45098%,23.529412%,25.490196%);fill-opacity:1;" d="M 86.328125 21.351562 C 87.300781 21.226562 88.246094 21.6875 89.101562 22.109375 C 89.671875 22.441406 90.375 22.789062 90.566406 23.484375 C 90.488281 24.628906 90.066406 25.730469 89.511719 26.722656 C 89.28125 27.074219 88.984375 27.5625 88.488281 27.429688 C 87.542969 27.320312 86.644531 26.945312 85.796875 26.523438 C 85.210938 26.199219 84.398438 25.796875 84.628906 24.980469 C 84.839844 23.683594 85.179688 22.125 86.328125 21.351562 Z M 86.328125 21.351562 "/>
    <path style=" stroke:none;fill-rule:nonzero;fill:rgb(87.45098%,23.529412%,25.490196%);fill-opacity:1;" d="M 51.960938 21.585938 C 53.652344 21.992188 55.484375 22.273438 56.871094 23.402344 C 57.875 24.230469 57.523438 25.667969 57.464844 26.792969 C 56.617188 34.371094 54.988281 41.867188 54.746094 49.511719 C 54.699219 51.628906 54.804688 53.839844 55.734375 55.785156 C 56.023438 56.425781 56.546875 56.90625 57.054688 57.371094 C 55.445312 57.046875 53.613281 56.84375 52.445312 55.550781 C 50.882812 53.871094 50.734375 51.425781 50.6875 49.253906 C 50.765625 46.011719 51.253906 42.789062 51.96875 39.628906 C 50.707031 42.789062 49.011719 45.757812 47.039062 48.523438 C 45.722656 50.335938 44.273438 52.125 42.394531 53.378906 C 41.359375 54.117188 39.890625 54.144531 38.820312 53.460938 C 37.714844 52.765625 37.089844 51.53125 36.730469 50.316406 C 36.113281 48.097656 36.191406 45.757812 36.496094 43.496094 C 36.988281 40.132812 38.046875 36.859375 39.566406 33.816406 C 40.828125 31.375 42.34375 29.011719 44.402344 27.15625 C 45.820312 25.898438 47.554688 24.84375 49.496094 24.761719 C 50.71875 24.691406 51.816406 25.324219 52.851562 25.898438 C 53.15625 24.441406 53.351562 22.5625 51.960938 21.585938 M 50.574219 27.308594 C 47.625 28.941406 45.488281 31.699219 43.839844 34.574219 C 41.15625 39.328125 39.84375 44.859375 40.261719 50.308594 C 40.359375 50.8125 40.347656 51.570312 40.96875 51.726562 C 42.480469 51.082031 43.398438 49.621094 44.398438 48.390625 C 47.800781 43.683594 50.429688 38.398438 52.058594 32.816406 C 52.621094 30.796875 53.070312 28.671875 52.773438 26.566406 C 52.003906 26.699219 51.246094 26.90625 50.574219 27.308594 Z M 50.574219 27.308594 "/>
    <path style=" stroke:none;fill-rule:nonzero;fill:rgb(87.45098%,23.529412%,25.490196%);fill-opacity:1;" d="M 73.761719 23.261719 C 75.574219 22.03125 78.40625 21.761719 79.953125 23.550781 C 81.753906 25.738281 81.214844 29.550781 78.652344 30.925781 C 77.683594 31.535156 76.511719 31.34375 75.429688 31.398438 C 76.867188 30.53125 76.914062 28.714844 77.039062 27.234375 C 77.148438 26.058594 77.089844 24.675781 75.976562 23.980469 C 74.667969 24.339844 73.695312 25.328125 72.773438 26.265625 C 71.894531 27.222656 71.023438 28.195312 70.289062 29.265625 C 68.46875 32.074219 67.382812 35.277344 66.5625 38.5 C 65.574219 42.585938 65.09375 46.839844 65.558594 51.03125 C 65.710938 52.582031 66.25 54.160156 67.46875 55.195312 C 65.773438 54.722656 63.898438 54.386719 62.574219 53.148438 C 61.328125 51.972656 61.121094 50.148438 61.226562 48.53125 C 61.246094 42.757812 62.0625 37.027344 62.21875 31.261719 C 62.308594 29.285156 62.351562 27.171875 61.34375 25.394531 C 60.894531 24.570312 60.054688 24.101562 59.246094 23.695312 C 61.296875 24.132812 63.351562 24.742188 65.167969 25.816406 C 65.742188 26.171875 66.367188 26.59375 66.609375 27.257812 C 66.871094 28.417969 66.808594 29.617188 66.804688 30.796875 C 68.558594 27.835938 70.84375 25.125 73.761719 23.261719 Z M 73.761719 23.261719 "/>
    <path style=" stroke:none;fill-rule:nonzero;fill:rgb(87.45098%,23.529412%,25.490196%);fill-opacity:1;" d="M 102.96875 29.199219 C 104.945312 28.316406 107.484375 29 108.722656 30.785156 C 110.203125 32.863281 110.554688 35.503906 110.625 37.996094 C 110.648438 42.5625 110.335938 47.144531 109.609375 51.65625 C 108.011719 51.503906 106.34375 51.179688 105.066406 50.144531 C 105.46875 46.515625 106.207031 42.914062 106.191406 39.253906 C 106.179688 37.078125 106.273438 34.871094 105.769531 32.742188 C 105.597656 32.046875 105.21875 31.246094 104.449219 31.078125 C 103.601562 30.949219 102.824219 31.449219 102.203125 31.96875 C 100.363281 33.566406 99.21875 35.773438 98.246094 37.964844 C 96.242188 42.824219 95.394531 48.109375 95.429688 53.347656 C 93.757812 53.371094 92.222656 52.484375 90.949219 51.46875 C 91.324219 50.09375 91.441406 48.671875 91.496094 47.25 C 91.558594 43.109375 91.421875 38.933594 90.601562 34.863281 C 90.285156 33.3125 89.785156 31.78125 88.898438 30.453125 C 90.609375 30.738281 92.425781 31.273438 93.597656 32.636719 C 94.386719 33.53125 94.644531 34.742188 94.796875 35.894531 C 95.011719 37.636719 95.175781 39.386719 95.328125 41.136719 C 95.914062 38.429688 97.027344 35.847656 98.476562 33.496094 C 99.605469 31.75 100.992188 30.011719 102.96875 29.199219 Z M 102.96875 29.199219 "/>
    <path style=" stroke:none;fill-rule:nonzero;fill:rgb(87.45098%,23.529412%,25.490196%);fill-opacity:1;" d="M 81.140625 31.3125 C 82.691406 31.453125 84.46875 31.707031 85.503906 33.007812 C 86.300781 34.039062 85.828125 35.382812 85.539062 36.507812 C 84.398438 41.503906 83.734375 46.632812 83.816406 51.761719 C 83.886719 53.296875 83.960938 54.886719 84.628906 56.300781 C 83.675781 55.800781 82.601562 55.445312 81.855469 54.640625 C 80.960938 53.558594 80.773438 52.101562 80.523438 50.761719 C 79.914062 46.183594 80.421875 41.554688 81.101562 37.011719 C 81.292969 35.132812 81.648438 33.167969 81.140625 31.3125 Z M 81.140625 31.3125 "/>
    <path style=" stroke:none;fill-rule:nonzero;fill:rgb(87.45098%,23.529412%,25.490196%);fill-opacity:1;" d="M 144.515625 49.109375 C 145.515625 48.289062 146.699219 47.636719 148.015625 47.527344 C 148.761719 48.675781 148.984375 50.058594 149.078125 51.398438 C 148.03125 51.742188 147.019531 52.183594 145.96875 52.503906 C 145.378906 51.421875 145.003906 50.238281 144.515625 49.109375 Z M 144.515625 49.109375 "/>
    <path style=" stroke:none;fill-rule:nonzero;fill:rgb(22.745098%,21.960784%,21.960784%);fill-opacity:1;" d="M 155.8125 25.6875 C 162.390625 25.683594 168.96875 25.6875 175.546875 25.6875 C 177.796875 32.261719 180.023438 38.835938 182.265625 45.414062 C 184.429688 38.84375 186.597656 32.269531 188.734375 25.6875 C 190.421875 25.6875 192.105469 25.683594 193.792969 25.691406 C 191.292969 33.558594 188.738281 41.40625 186.21875 49.265625 C 185.84375 50.425781 185.433594 51.660156 184.480469 52.480469 C 183.546875 53.296875 182.152344 53.367188 181.015625 52.996094 C 179.707031 52.503906 179.078125 51.136719 178.628906 49.914062 C 176.421875 43.402344 174.222656 36.890625 172.03125 30.375 C 170.355469 30.375 168.675781 30.375 167 30.375 C 167 37.835938 167 45.292969 167 52.75 C 165.371094 52.75 163.746094 52.753906 162.121094 52.746094 C 162.128906 45.289062 162.121094 37.832031 162.125 30.375 C 160.019531 30.375 157.917969 30.375 155.816406 30.375 C 155.8125 28.8125 155.8125 27.25 155.8125 25.6875 Z M 155.8125 25.6875 "/>
  </g>
</svg>