<?xml version="1.0" encoding="UTF-8" standalone="no"?>
<!-- Created with Inkscape (http://www.inkscape.org/) -->
<svg
   xmlns:dc="http://purl.org/dc/elements/1.1/"
   xmlns:cc="http://web.resource.org/cc/"
   xmlns:rdf="http://www.w3.org/1999/02/22-rdf-syntax-ns#"
   xmlns:svg="http://www.w3.org/2000/svg"
   xmlns="http://www.w3.org/2000/svg"
   xmlns:xlink="http://www.w3.org/1999/xlink"
   xmlns:sodipodi="http://sodipodi.sourceforge.net/DTD/sodipodi-0.dtd"
   xmlns:inkscape="http://www.inkscape.org/namespaces/inkscape"
   width="24"
   height="24"
   id="svg2"
   sodipodi:version="0.32"
   inkscape:version="0.45.1"
   version="1.0"
   sodipodi:docbase="C:\Users\Simon\Pictures"
   sodipodi:docname="Euronews logo.svg"
   inkscape:output_extension="org.inkscape.output.svg.inkscape">
  <defs
     id="defs4">

  </defs>
  <sodipodi:namedview
     id="base"
     pagecolor="#ffffff"
     bordercolor="#666666"
     borderopacity="1.0"
     gridtolerance="10000"
     guidetolerance="10"
     objecttolerance="10"
     inkscape:pageopacity="0.0"
     inkscape:pageshadow="2"
     inkscape:zoom="10.221604"
     inkscape:cx="12.561488"
     inkscape:cy="13.096019"
     inkscape:document-units="px"
     inkscape:current-layer="layer1"
     height="24px"
     width="24px"
     showgrid="true"
     inkscape:window-width="784"
     inkscape:window-height="575"
     inkscape:window-x="21"
     inkscape:window-y="9" />
  <metadata
     id="metadata7">
    <rdf:RDF>
      <cc:Work
         rdf:about="">
        <dc:format>image/svg+xml</dc:format>
        <dc:type
           rdf:resource="http://purl.org/dc/dcmitype/StillImage" />
      </cc:Work>
    </rdf:RDF>
  </metadata>
  <g
     inkscape:label="Layer 1"
     inkscape:groupmode="layer"
     id="layer1"
     transform="translate(-5.7320198,-1025.5231)">
    <g
       id="g11033"
       clip-path="url(#id236)"
       transform="matrix(1,0,0,-1,-328.30292,933.75171)">
      <g
         id="g11035"
         transform="matrix(4.66003e-2,0,0,-4.66003e-2,459.3726,91.397858)">
        <path
           id="path11037"
           d="M 0,0 L -11.3,0 L -11.3,-11.5 L -16.3,-11.5 L -16.3,17.301 L -11.3,17.301 L -11.3,5 L -10.8,4.301 L -0.699,4.301 L 0,4.801 L 0,17.301 L 5,17.301 L 5,-11.5 L 0,-11.5 L 0,0 z "
           style="fill:#1c4e9d;fill-rule:nonzero;stroke:none" />
      </g>
      <g
         id="g11039"
         transform="matrix(4.66003e-2,0,0,-4.66003e-2,460.73804,91.933777)">
        <path
           id="path11041"
           d="M 0,0 L -10.601,28.801 L -5.5,28.801 L -3.101,22.301 L 8.399,22.301 L 10.8,28.801 L 16.1,28.5 L 5.5,0 L 0,0 z M -1,17.7 C -0.101,14 1.1,9.801 2.6,6 C 4.3,9.5 5.199,13.7 6.5,17.5 L -1,17.7"
           style="fill:#1c4e9d;fill-rule:nonzero;stroke:none" />
      </g>
      <g
         id="g11043"
         transform="matrix(4.66003e-2,0,0,-4.66003e-2,462.92825,90.927216)">
        <path
           id="path11045"
           d="M 0,0 C -4.301,-6.7 -6.801,-14.6 -10.801,-21.6 L -16.801,-21.6 L -16.801,7.201 L -12.2,7.201 L -12,-14.4 C -8.2,-7.5 -4.7,-0.1 -1.4,7.201 L 4.801,7.201 L 4.801,-21.6 L 0.301,-21.6 L 0,0"
           style="fill:#1c4e9d;fill-rule:nonzero;stroke:none" />
      </g>
      <g
         id="g11047"
         transform="matrix(4.66003e-2,0,0,-4.66003e-2,464.86215,90.927216)">
        <path
           id="path11049"
           d="M 0,0 C -3.801,-7.1 -6.699,-14.5 -10.5,-21.6 L -16.801,-21.6 L -16.801,7.201 L -12,7.201 L -11.699,-14.4 C -8.101,-7.5 -4.601,-0.1 -1.199,7.201 L 5.1,7.201 L 5.1,-21.6 L 0.301,-21.4 L 0,0"
           style="fill:#1c4e9d;fill-rule:nonzero;stroke:none" />
      </g>
      <g
         id="g11051"
         transform="matrix(4.66003e-2,0,0,-4.66003e-2,466.87526,91.742722)">
        <path
           id="path11053"
           d="M 0,0 L -0.199,-4.1 L -18,-4.1 L -18,24.701 L 0,24.701 L 0,20.4 L -12.898,20.1 L -12.699,12.4 L -1.398,12.4 L -1.398,8.6 L -12.898,8.1 L -12.699,0.201 L 0,0 z "
           style="fill:#1c4e9d;fill-rule:nonzero;stroke:none" />
      </g>
      <g
         id="g11055"
         transform="matrix(4.66003e-2,0,0,-4.66003e-2,467.99367,91.933777)">
        <path
           id="path11057"
           d="M 0,0 L -4.8,0 L -4.8,28.801 L 11.5,28.801 L 11.5,24.5 L 0.5,24.5 L 0,0 z "
           style="fill:#1c4e9d;fill-rule:nonzero;stroke:none" />
      </g>
    </g>
    <g
       id="g15405"
       clip-path="url(#id335)"
       transform="matrix(1,0,0,-1,-328.30292,933.75171)">
      <g
         id="g15407"
         transform="matrix(3.84521e-2,0,0,-3.84521e-2,58.949158,55.939194)">
        <path
           id="path15409"
           d="M 0,0 L -11.3,0 L -11.3,-11.5 L -16.3,-11.5 L -16.3,17.301 L -11.3,17.301 L -11.3,5 L -10.8,4.301 L -0.7,4.301 L 0,4.801 L 0,17.301 L 5,17.301 L 5,-11.5 L 0,-11.5 L 0,0 z "
           style="fill:#1c4e9d;fill-rule:nonzero;stroke:none" />
      </g>
      <g
         id="g15411"
         transform="matrix(3.84521e-2,0,0,-3.84521e-2,60.075806,56.381393)">
        <path
           id="path15413"
           d="M 0,0 L -10.6,28.801 L -5.5,28.801 L -3.1,22.301 L 8.4,22.301 L 10.8,28.801 L 16.1,28.5 L 5.5,0 L 0,0 z M -1,17.7 C -0.1,14 1.1,9.801 2.6,6 C 4.3,9.5 5.2,13.7 6.5,17.5 L -1,17.7"
           style="fill:#1c4e9d;fill-rule:nonzero;stroke:none" />
      </g>
      <g
         id="g15415"
         transform="matrix(3.84521e-2,0,0,-3.84521e-2,61.883057,55.550842)">
        <path
           id="path15417"
           d="M 0,0 C -4.3,-6.7 -6.8,-14.6 -10.8,-21.6 L -16.8,-21.6 L -16.8,7.201 L -12.2,7.201 L -12,-14.4 C -8.2,-7.5 -4.7,-0.1 -1.4,7.201 L 4.801,7.201 L 4.801,-21.6 L 0.301,-21.6 L 0,0"
           style="fill:#1c4e9d;fill-rule:nonzero;stroke:none" />
      </g>
      <g
         id="g15419"
         transform="matrix(3.84521e-2,0,0,-3.84521e-2,63.478821,55.550842)">
        <path
           id="path15421"
           d="M 0,0 C -3.8,-7.1 -6.699,-14.5 -10.5,-21.6 L -16.8,-21.6 L -16.8,7.201 L -12,7.201 L -11.699,-14.4 C -8.1,-7.5 -4.6,-0.1 -1.199,7.201 L 5.1,7.201 L 5.1,-21.6 L 0.301,-21.4 L 0,0"
           style="fill:#1c4e9d;fill-rule:nonzero;stroke:none" />
      </g>
      <g
         id="g15423"
         transform="matrix(3.84521e-2,0,0,-3.84521e-2,65.139938,56.223755)">
        <path
           id="path15425"
           d="M 0,0 L -0.2,-4.1 L -18,-4.1 L -18,24.701 L 0,24.701 L 0,20.4 L -12.899,20.1 L -12.7,12.4 L -1.399,12.4 L -1.399,8.6 L -12.899,8.1 L -12.7,0.201 L 0,0 z "
           style="fill:#1c4e9d;fill-rule:nonzero;stroke:none" />
      </g>
      <g
         id="g15427"
         transform="matrix(3.84521e-2,0,0,-3.84521e-2,66.06279,56.381393)">
        <path
           id="path15429"
           d="M 0,0 L -4.8,0 L -4.8,28.801 L 11.5,28.801 L 11.5,24.5 L 0.5,24.5 L 0,0 z "
           style="fill:#1c4e9d;fill-rule:nonzero;stroke:none" />
      </g>
    </g>
    <g
       id="g31379"
       clip-path="url(#id461)"
       transform="matrix(1,0,0,-1,-328.30292,933.75171)">
      <g
         id="g31381"
         transform="matrix(4.66003e-2,0,0,-4.66003e-2,459.3726,91.397858)">
        <path
           id="path31383"
           d="M 0,0 L -11.3,0 L -11.3,-11.5 L -16.3,-11.5 L -16.3,17.301 L -11.3,17.301 L -11.3,5 L -10.8,4.301 L -0.699,4.301 L 0,4.801 L 0,17.301 L 5,17.301 L 5,-11.5 L 0,-11.5 L 0,0 z "
           style="fill:#1c4e9d;fill-rule:nonzero;stroke:none" />
      </g>
      <g
         id="g31385"
         transform="matrix(4.66003e-2,0,0,-4.66003e-2,460.73804,91.933777)">
        <path
           id="path31387"
           d="M 0,0 L -10.601,28.801 L -5.5,28.801 L -3.101,22.301 L 8.399,22.301 L 10.8,28.801 L 16.1,28.5 L 5.5,0 L 0,0 z M -1,17.7 C -0.101,14 1.1,9.801 2.6,6 C 4.3,9.5 5.199,13.7 6.5,17.5 L -1,17.7"
           style="fill:#1c4e9d;fill-rule:nonzero;stroke:none" />
      </g>
      <g
         id="g31389"
         transform="matrix(4.66003e-2,0,0,-4.66003e-2,462.92825,90.927216)">
        <path
           id="path31391"
           d="M 0,0 C -4.301,-6.7 -6.801,-14.6 -10.801,-21.6 L -16.801,-21.6 L -16.801,7.201 L -12.2,7.201 L -12,-14.4 C -8.2,-7.5 -4.7,-0.1 -1.4,7.201 L 4.801,7.201 L 4.801,-21.6 L 0.301,-21.6 L 0,0"
           style="fill:#1c4e9d;fill-rule:nonzero;stroke:none" />
      </g>
      <g
         id="g31393"
         transform="matrix(4.66003e-2,0,0,-4.66003e-2,464.86215,90.927216)">
        <path
           id="path31395"
           d="M 0,0 C -3.801,-7.1 -6.699,-14.5 -10.5,-21.6 L -16.801,-21.6 L -16.801,7.201 L -12,7.201 L -11.699,-14.4 C -8.101,-7.5 -4.601,-0.1 -1.199,7.201 L 5.1,7.201 L 5.1,-21.6 L 0.301,-21.4 L 0,0"
           style="fill:#1c4e9d;fill-rule:nonzero;stroke:none" />
      </g>
      <g
         id="g31397"
         transform="matrix(4.66003e-2,0,0,-4.66003e-2,466.87526,91.742722)">
        <path
           id="path31399"
           d="M 0,0 L -0.199,-4.1 L -18,-4.1 L -18,24.701 L 0,24.701 L 0,20.4 L -12.898,20.1 L -12.699,12.4 L -1.398,12.4 L -1.398,8.6 L -12.898,8.1 L -12.699,0.201 L 0,0 z "
           style="fill:#1c4e9d;fill-rule:nonzero;stroke:none" />
      </g>
      <g
         id="g31401"
         transform="matrix(4.66003e-2,0,0,-4.66003e-2,467.99367,91.933777)">
        <path
           id="path31403"
           d="M 0,0 L -4.8,0 L -4.8,28.801 L 11.5,28.801 L 11.5,24.5 L 0.5,24.5 L 0,0 z "
           style="fill:#1c4e9d;fill-rule:nonzero;stroke:none" />
      </g>
    </g>
    <g
       id="g35751"
       clip-path="url(#id554)"
       transform="matrix(1,0,0,-1,-328.30292,933.75171)">
      <g
         id="g35753"
         transform="matrix(3.84521e-2,0,0,-3.84521e-2,58.949158,55.939194)">
        <path
           id="path35755"
           d="M 0,0 L -11.3,0 L -11.3,-11.5 L -16.3,-11.5 L -16.3,17.301 L -11.3,17.301 L -11.3,5 L -10.8,4.301 L -0.7,4.301 L 0,4.801 L 0,17.301 L 5,17.301 L 5,-11.5 L 0,-11.5 L 0,0 z "
           style="fill:#1c4e9d;fill-rule:nonzero;stroke:none" />
      </g>
      <g
         id="g35757"
         transform="matrix(3.84521e-2,0,0,-3.84521e-2,60.075806,56.381393)">
        <path
           id="path35759"
           d="M 0,0 L -10.6,28.801 L -5.5,28.801 L -3.1,22.301 L 8.4,22.301 L 10.8,28.801 L 16.1,28.5 L 5.5,0 L 0,0 z M -1,17.7 C -0.1,14 1.1,9.801 2.6,6 C 4.3,9.5 5.2,13.7 6.5,17.5 L -1,17.7"
           style="fill:#1c4e9d;fill-rule:nonzero;stroke:none" />
      </g>
      <g
         id="g35761"
         transform="matrix(3.84521e-2,0,0,-3.84521e-2,61.883057,55.550842)">
        <path
           id="path35763"
           d="M 0,0 C -4.3,-6.7 -6.8,-14.6 -10.8,-21.6 L -16.8,-21.6 L -16.8,7.201 L -12.2,7.201 L -12,-14.4 C -8.2,-7.5 -4.7,-0.1 -1.4,7.201 L 4.801,7.201 L 4.801,-21.6 L 0.301,-21.6 L 0,0"
           style="fill:#1c4e9d;fill-rule:nonzero;stroke:none" />
      </g>
      <g
         id="g35765"
         transform="matrix(3.84521e-2,0,0,-3.84521e-2,63.478821,55.550842)">
        <path
           id="path35767"
           d="M 0,0 C -3.8,-7.1 -6.699,-14.5 -10.5,-21.6 L -16.8,-21.6 L -16.8,7.201 L -12,7.201 L -11.699,-14.4 C -8.1,-7.5 -4.6,-0.1 -1.199,7.201 L 5.1,7.201 L 5.1,-21.6 L 0.301,-21.4 L 0,0"
           style="fill:#1c4e9d;fill-rule:nonzero;stroke:none" />
      </g>
      <g
         id="g35769"
         transform="matrix(3.84521e-2,0,0,-3.84521e-2,65.139938,56.223755)">
        <path
           id="path35771"
           d="M 0,0 L -0.2,-4.1 L -18,-4.1 L -18,24.701 L 0,24.701 L 0,20.4 L -12.899,20.1 L -12.7,12.4 L -1.399,12.4 L -1.399,8.6 L -12.899,8.1 L -12.7,0.201 L 0,0 z "
           style="fill:#1c4e9d;fill-rule:nonzero;stroke:none" />
      </g>
      <g
         id="g35773"
         transform="matrix(3.84521e-2,0,0,-3.84521e-2,66.06279,56.381393)">
        <path
           id="path35775"
           d="M 0,0 L -4.8,0 L -4.8,28.801 L 11.5,28.801 L 11.5,24.5 L 0.5,24.5 L 0,0 z "
           style="fill:#1c4e9d;fill-rule:nonzero;stroke:none" />
      </g>
    </g>
    <g
       id="g51917"
       clip-path="url(#id691)"
       transform="matrix(1,0,0,-1,-328.30292,933.75171)">
      <g
         id="g51919"
         transform="matrix(4.66003e-2,0,0,-4.66003e-2,459.3726,91.397858)">
        <path
           id="path51921"
           d="M 0,0 L -11.3,0 L -11.3,-11.5 L -16.3,-11.5 L -16.3,17.301 L -11.3,17.301 L -11.3,5 L -10.8,4.301 L -0.699,4.301 L 0,4.801 L 0,17.301 L 5,17.301 L 5,-11.5 L 0,-11.5 L 0,0 z "
           style="fill:#1c4e9d;fill-rule:nonzero;stroke:none" />
      </g>
      <g
         id="g51923"
         transform="matrix(4.66003e-2,0,0,-4.66003e-2,460.73804,91.933777)">
        <path
           id="path51925"
           d="M 0,0 L -10.601,28.801 L -5.5,28.801 L -3.101,22.301 L 8.399,22.301 L 10.8,28.801 L 16.1,28.5 L 5.5,0 L 0,0 z M -1,17.7 C -0.101,14 1.1,9.801 2.6,6 C 4.3,9.5 5.199,13.7 6.5,17.5 L -1,17.7"
           style="fill:#1c4e9d;fill-rule:nonzero;stroke:none" />
      </g>
      <g
         id="g51927"
         transform="matrix(4.66003e-2,0,0,-4.66003e-2,462.92825,90.927216)">
        <path
           id="path51929"
           d="M 0,0 C -4.301,-6.7 -6.801,-14.6 -10.801,-21.6 L -16.801,-21.6 L -16.801,7.201 L -12.2,7.201 L -12,-14.4 C -8.2,-7.5 -4.7,-0.1 -1.4,7.201 L 4.801,7.201 L 4.801,-21.6 L 0.301,-21.6 L 0,0"
           style="fill:#1c4e9d;fill-rule:nonzero;stroke:none" />
      </g>
      <g
         id="g51931"
         transform="matrix(4.66003e-2,0,0,-4.66003e-2,464.86215,90.927216)">
        <path
           id="path51933"
           d="M 0,0 C -3.801,-7.1 -6.699,-14.5 -10.5,-21.6 L -16.801,-21.6 L -16.801,7.201 L -12,7.201 L -11.699,-14.4 C -8.101,-7.5 -4.601,-0.1 -1.199,7.201 L 5.1,7.201 L 5.1,-21.6 L 0.301,-21.4 L 0,0"
           style="fill:#1c4e9d;fill-rule:nonzero;stroke:none" />
      </g>
      <g
         id="g51935"
         transform="matrix(4.66003e-2,0,0,-4.66003e-2,466.87526,91.742722)">
        <path
           id="path51937"
           d="M 0,0 L -0.199,-4.1 L -18,-4.1 L -18,24.701 L 0,24.701 L 0,20.4 L -12.898,20.1 L -12.699,12.4 L -1.398,12.4 L -1.398,8.6 L -12.898,8.1 L -12.699,0.201 L 0,0 z "
           style="fill:#1c4e9d;fill-rule:nonzero;stroke:none" />
      </g>
      <g
         id="g51939"
         transform="matrix(4.66003e-2,0,0,-4.66003e-2,467.99367,91.933777)">
        <path
           id="path51941"
           d="M 0,0 L -4.8,0 L -4.8,28.801 L 11.5,28.801 L 11.5,24.5 L 0.5,24.5 L 0,0 z "
           style="fill:#1c4e9d;fill-rule:nonzero;stroke:none" />
      </g>
    </g>
    <g
       id="g52177"
       clip-path="url(#id701)"
       transform="matrix(1.0855323,0,0,-1.0855323,-705.59128,1151.6609)">
      <g
         id="g52179"
         transform="scale(6.50024e-2,-6.50024e-2)">
        <path
           id="path52181"
           d="M 10081.155,-1787.643 L 10421.312,-1787.643 L 10421.312,-1447.486 L 10081.155,-1447.486 L 10081.155,-1787.643 z "
           style="fill:#b6b5b5;fill-rule:nonzero;stroke:none" />
      </g>
      <g
         id="g52183"
         transform="matrix(6.50024e-2,0,0,-6.50024e-2,666.44409,110.85893)">
        <path
           id="path52185"
           d="M 0,0 C -34.791,0 -63.002,28.205 -63.002,63.006 C -63.002,97.804 -34.791,126.007 0,126.007 C 34.792,126.007 63.001,97.804 63.001,63.006 C 63.001,28.205 34.792,0 0,0"
           style="fill:#ffffff;fill-rule:nonzero;stroke:none" />
      </g>
      <g
         id="g52187"
         transform="matrix(6.50024e-2,0,0,-6.50024e-2,662.82358,101.01237)">
        <path
           id="path52189"
           d="M 0,0 L -0.101,0 L -0.101,0.1 L -0.101,13.928 C -0.101,15.633 -0.702,17.195 -1.796,18.332 C -2.854,19.432 -4.272,20.039 -5.781,20.039 C -7.29,20.039 -8.703,19.432 -9.76,18.332 C -10.852,17.197 -11.451,15.633 -11.451,13.928 L -11.451,0.1 L -11.451,0 L -11.551,0 L -15.896,0 L -15.998,0 L -15.998,0.1 L -15.998,13.928 C -15.998,16.967 -14.987,19.59 -13.073,21.51 C -11.223,23.369 -8.632,24.393 -5.781,24.393 C -2.925,24.393 -0.331,23.369 1.524,21.51 C 3.435,19.59 4.447,16.969 4.447,13.928 L 4.447,0.1 L 4.447,0 L 4.349,0 L 0,0 z "
           style="fill:#ffffff;fill-rule:nonzero;stroke:none" />
      </g>
      <g
         id="g52191"
         transform="matrix(6.50024e-2,0,0,-6.50024e-2,665.32774,99.855926)">
        <path
           id="path52193"
           d="M 0,0 C -1.383,1.449 -3.334,2.248 -5.489,2.248 C -7.645,2.248 -9.595,1.449 -10.978,0 C -12.37,-1.463 -13.137,-3.533 -13.137,-5.832 C -13.137,-8.139 -12.37,-10.217 -10.978,-11.68 C -9.596,-13.133 -7.647,-13.932 -5.489,-13.932 C -3.334,-13.932 -1.383,-13.133 0,-11.68 C 1.396,-10.215 2.162,-8.139 2.162,-5.832 C 2.162,-3.533 1.396,-1.463 0,0 M 3.186,-14.822 C 0.874,-17.057 -2.209,-18.285 -5.489,-18.285 C -8.774,-18.285 -11.857,-17.057 -14.171,-14.822 C -16.565,-12.51 -17.883,-9.316 -17.883,-5.832 C -17.883,-2.351 -16.565,0.836 -14.171,3.147 C -11.858,5.375 -8.774,6.602 -5.489,6.602 C -2.209,6.602 0.874,5.375 3.186,3.147 C 5.587,0.836 6.905,-2.351 6.905,-5.832 C 6.905,-9.314 5.587,-12.508 3.186,-14.822"
           style="fill:#ffffff;fill-rule:nonzero;stroke:none" />
      </g>
      <g
         id="g52195"
         transform="matrix(6.50024e-2,0,0,-6.50024e-2,666.66551,101.04449)">
        <path
           id="path52197"
           d="M 0,0 C -2.854,0 -5.448,1.023 -7.299,2.883 C -9.213,4.803 -10.223,7.428 -10.223,10.475 L -10.223,24.303 L -10.223,24.402 L -10.123,24.402 L -5.78,24.402 L -5.68,24.402 L -5.68,24.303 L -5.68,10.475 C -5.68,8.766 -5.077,7.197 -3.984,6.062 C -2.923,4.959 -1.508,4.353 0,4.353 C 1.508,4.353 2.925,4.959 3.982,6.062 C 5.076,7.197 5.675,8.766 5.675,10.475 L 5.675,24.303 L 5.675,24.402 L 5.775,24.402 L 10.13,24.402 L 10.231,24.402 L 10.231,24.303 L 10.231,10.475 C 10.231,7.432 9.219,4.807 7.305,2.883 C 5.448,1.021 2.855,0 0,0"
           style="fill:#ffffff;fill-rule:nonzero;stroke:none" />
      </g>
      <g
         id="g52199"
         transform="matrix(6.50024e-2,0,0,-6.50024e-2,671.09283,101.01237)">
        <path
           id="path52201"
           d="M 0,0 L -0.102,0 L -0.102,0.1 L -0.102,15.215 C -0.102,18.145 -1.729,20.039 -4.248,20.039 C -7.262,20.039 -8.791,18.182 -8.791,14.52 L -8.791,0.1 L -8.791,0 L -8.893,0 L -13.232,0 L -13.332,0 L -13.332,0.1 L -13.332,14.52 C -13.332,18.182 -14.861,20.039 -17.879,20.039 C -20.396,20.039 -22.025,18.145 -22.025,15.215 L -22.025,0.1 L -22.025,0 L -22.123,0 L -26.473,0 L -26.57,0 L -26.57,0.1 L -26.57,16.19 C -26.57,20.789 -22.793,24.393 -17.971,24.393 C -15.082,24.393 -12.573,23.191 -11.055,21.1 C -9.553,23.191 -7.047,24.393 -4.146,24.393 C 0.67,24.393 4.441,20.789 4.441,16.19 L 4.441,0.1 L 4.441,0 L 4.345,0 L 0,0 z "
           style="fill:#ffffff;fill-rule:nonzero;stroke:none" />
      </g>
      <g
         id="g52203"
         transform="matrix(6.50024e-2,0,0,-6.50024e-2,672.28371,100.39902)">
        <path
           id="path52205"
           d="M 0,0 C -2.902,-0.809 -5.408,-1.51 -5.408,-3.108 C -5.313,-4.452 -4.883,-5.092 -2.695,-5.092 L 8.271,-5.092 L 8.369,-5.092 L 8.369,-5.192 L 8.369,-9.336 L 8.369,-9.436 L 8.271,-9.436 L -1.951,-9.436 C -7.24,-9.436 -10.152,-7.121 -10.152,-2.916 C -10.152,-0.766 -9.145,0.904 -7.072,2.189 C -5.279,3.3 -2.928,3.974 -0.848,4.572 C 2.188,5.443 4.813,6.197 4.813,7.955 C 4.813,9.451 3.975,10.119 2.1,10.119 L -10.053,10.119 L -10.152,10.119 L -10.152,10.218 L -10.152,14.373 L -10.152,14.472 L -10.053,14.472 L 2.1,14.472 C 4.275,14.472 6.113,13.902 7.41,12.822 C 8.813,11.656 9.551,9.906 9.551,7.757 C 9.551,2.666 4.256,1.187 0,0"
           style="fill:#ffffff;fill-rule:nonzero;stroke:none" />
      </g>
      <g
         id="g52207"
         transform="matrix(6.50024e-2,0,0,-6.50024e-2,663.37006,100.42352)">
        <path
           id="path52209"
           d="M 0,0 L 0,14.541 L 0,14.64 L 0.101,14.64 L 4.129,14.64 L 4.228,14.64 L 4.228,14.541 L 4.228,0 C 4.228,-2.702 5.06,-5.803 11.535,-5.803 L 11.635,-5.803 L 11.635,-5.903 L 11.635,-9.924 L 11.635,-10.024 L 11.535,-10.024 C 1.498,-10.024 0,-3.744 0,0"
           style="fill:#ffffff;fill-rule:nonzero;stroke:none" />
      </g>
      <g
         id="g52211"
         transform="matrix(6.50024e-2,0,0,-6.50024e-2,661.26764,100.00179)">
        <path
           id="path52213"
           d="M 0,0 L -0.089,-0.047 L -0.134,0.043 C -0.784,1.289 -1.775,2.363 -3,3.148 C -6.835,5.564 -11.919,4.416 -14.336,0.59 C -15.51,-1.26 -15.889,-3.459 -15.406,-5.604 C -14.922,-7.746 -13.639,-9.572 -11.787,-10.74 C -9.062,-12.461 -5.586,-12.418 -2.889,-10.648 L -10.144,-4.697 L -10.221,-4.635 L -10.159,-4.559 L -7.675,-1.469 L -7.611,-1.391 L -7.533,-1.455 L 3.101,-10.191 L 3.175,-10.254 L 3.116,-10.332 L 3.048,-10.42 C 1.293,-13.195 -1.454,-15.129 -4.681,-15.854 C -7.905,-16.58 -11.214,-16.008 -13.998,-14.246 C -16.786,-12.488 -18.721,-9.746 -19.447,-6.523 C -20.179,-3.295 -19.609,0.019 -17.848,2.809 C -14.204,8.568 -6.553,10.295 -0.785,6.652 C 1.035,5.504 2.53,3.887 3.541,1.978 L 3.588,1.889 L 3.499,1.842 L 0,0 z "
           style="fill:#ffffff;fill-rule:nonzero;stroke:none" />
      </g>
      <g
         id="g52215"
         transform="matrix(6.50024e-2,0,0,-6.50024e-2,668.82994,100.00179)">
        <path
           id="path52217"
           d="M 0,0 L -0.088,-0.047 L -0.133,0.043 C -0.785,1.289 -1.777,2.361 -3.002,3.148 C -6.834,5.562 -11.921,4.416 -14.342,0.59 C -15.514,-1.262 -15.889,-3.461 -15.404,-5.606 C -14.922,-7.75 -13.637,-9.572 -11.79,-10.74 C -9.06,-12.461 -5.586,-12.418 -2.893,-10.648 L -10.146,-4.697 L -10.223,-4.635 L -10.158,-4.559 L -7.673,-1.469 L -7.609,-1.391 L -7.532,-1.455 L 3.102,-10.191 L 3.178,-10.254 L 3.117,-10.334 L 3.047,-10.422 L 3.053,-10.412 C -0.592,-16.168 -8.241,-17.889 -13.994,-14.246 C -16.785,-12.49 -18.725,-9.748 -19.451,-6.527 C -20.182,-3.297 -19.615,0.016 -17.854,2.809 C -14.203,8.566 -6.55,10.291 -0.789,6.652 C 1.035,5.504 2.533,3.887 3.541,1.978 L 3.586,1.889 L 3.496,1.842 L 0,0 z "
           style="fill:#ffffff;fill-rule:nonzero;stroke:none" />
      </g>
    </g>
    <g
       id="g56347"
       clip-path="url(#id786)"
       transform="matrix(1,0,0,-1,-328.30292,933.75171)">
      <g
         id="g56349"
         transform="matrix(3.84521e-2,0,0,-3.84521e-2,58.949158,55.939194)">
        <path
           id="path56351"
           d="M 0,0 L -11.3,0 L -11.3,-11.5 L -16.3,-11.5 L -16.3,17.301 L -11.3,17.301 L -11.3,5 L -10.8,4.301 L -0.7,4.301 L 0,4.801 L 0,17.301 L 5,17.301 L 5,-11.5 L 0,-11.5 L 0,0 z "
           style="fill:#1c4e9d;fill-rule:nonzero;stroke:none" />
      </g>
      <g
         id="g56353"
         transform="matrix(3.84521e-2,0,0,-3.84521e-2,60.075806,56.381393)">
        <path
           id="path56355"
           d="M 0,0 L -10.6,28.801 L -5.5,28.801 L -3.1,22.301 L 8.4,22.301 L 10.8,28.801 L 16.1,28.5 L 5.5,0 L 0,0 z M -1,17.7 C -0.1,14 1.1,9.801 2.6,6 C 4.3,9.5 5.2,13.7 6.5,17.5 L -1,17.7"
           style="fill:#1c4e9d;fill-rule:nonzero;stroke:none" />
      </g>
      <g
         id="g56357"
         transform="matrix(3.84521e-2,0,0,-3.84521e-2,61.883057,55.550842)">
        <path
           id="path56359"
           d="M 0,0 C -4.3,-6.7 -6.8,-14.6 -10.8,-21.6 L -16.8,-21.6 L -16.8,7.201 L -12.2,7.201 L -12,-14.4 C -8.2,-7.5 -4.7,-0.1 -1.4,7.201 L 4.801,7.201 L 4.801,-21.6 L 0.301,-21.6 L 0,0"
           style="fill:#1c4e9d;fill-rule:nonzero;stroke:none" />
      </g>
      <g
         id="g56361"
         transform="matrix(3.84521e-2,0,0,-3.84521e-2,63.478821,55.550842)">
        <path
           id="path56363"
           d="M 0,0 C -3.8,-7.1 -6.699,-14.5 -10.5,-21.6 L -16.8,-21.6 L -16.8,7.201 L -12,7.201 L -11.699,-14.4 C -8.1,-7.5 -4.6,-0.1 -1.199,7.201 L 5.1,7.201 L 5.1,-21.6 L 0.301,-21.4 L 0,0"
           style="fill:#1c4e9d;fill-rule:nonzero;stroke:none" />
      </g>
      <g
         id="g56365"
         transform="matrix(3.84521e-2,0,0,-3.84521e-2,65.139938,56.223755)">
        <path
           id="path56367"
           d="M 0,0 L -0.2,-4.1 L -18,-4.1 L -18,24.701 L 0,24.701 L 0,20.4 L -12.899,20.1 L -12.7,12.4 L -1.399,12.4 L -1.399,8.6 L -12.899,8.1 L -12.7,0.201 L 0,0 z "
           style="fill:#1c4e9d;fill-rule:nonzero;stroke:none" />
      </g>
      <g
         id="g56369"
         transform="matrix(3.84521e-2,0,0,-3.84521e-2,66.06279,56.381393)">
        <path
           id="path56371"
           d="M 0,0 L -4.8,0 L -4.8,28.801 L 11.5,28.801 L 11.5,24.5 L 0.5,24.5 L 0,0 z "
           style="fill:#1c4e9d;fill-rule:nonzero;stroke:none" />
      </g>
    </g>
  </g>
</svg>
