<?xml version="1.0" encoding="UTF-8" standalone="yes"?>
<svg xmlns="http://www.w3.org/2000/svg" xmlns:xlink="http://www.w3.org/1999/xlink" width="296px" height="106.66666666666666px" viewBox="0 0 222 80" version="1.1">
  <g id="surface1">
    <path style=" stroke:none;fill-rule:nonzero;fill:rgb(85.882353%,86.27451%,86.666667%);fill-opacity:1;" d="M 1.222656 26.734375 C 2.160156 18.710938 3.21875 10.703125 4.152344 2.679688 C 6.488281 2.6875 8.835938 2.527344 11.167969 2.777344 C 13.832031 3.71875 12.632812 7.089844 12.742188 9.214844 C 15.664062 9.257812 18.609375 9 21.511719 9.371094 C 25.070312 10.214844 27.285156 13.820312 27.410156 17.332031 C 27.4375 21.925781 26.335938 27.25 22.132812 29.84375 C 22.429688 30.050781 23.027344 30.460938 23.324219 30.660156 C 23.679688 36.320312 23.363281 42.023438 23.464844 47.695312 C 26.808594 47.703125 30.148438 47.703125 33.492188 47.6875 C 33.492188 42.324219 33.492188 36.957031 33.492188 31.59375 C 31.574219 31.585938 29.652344 31.585938 27.734375 31.578125 C 29.105469 21.964844 30.015625 12.273438 31.398438 2.660156 C 33.75 2.703125 36.121094 2.496094 38.457031 2.820312 C 39.761719 3.289062 40.574219 4.585938 40.175781 5.964844 C 39.191406 14.042969 38.132812 22.125 37.214844 30.222656 C 38.15625 30.230469 39.101562 30.238281 40.046875 30.25 C 39.664062 28.84375 39.492188 27.386719 39.746094 25.941406 C 40.507812 20.371094 41.105469 14.777344 41.839844 9.199219 C 44.882812 9.207031 47.929688 9.199219 50.972656 9.207031 C 50.527344 14.628906 49.492188 19.984375 49.195312 25.421875 C 51.304688 26.074219 54.042969 26.867188 55.671875 24.820312 C 56.863281 20.496094 56.789062 15.933594 57.636719 11.539062 C 57.890625 10.414062 58.828125 9.355469 60.027344 9.273438 C 62.367188 9.089844 64.714844 9.222656 67.058594 9.207031 C 66.332031 14.777344 65.691406 20.363281 65.03125 25.941406 C 64.757812 27.4375 64.882812 29.273438 63.492188 30.257812 C 60.96875 32.355469 57.4375 31.371094 54.441406 31.585938 C 54.457031 41.304688 54.433594 51.023438 54.441406 60.742188 C 54.375 63.050781 55.277344 65.828125 57.710938 66.570312 C 60.664062 67.910156 64.195312 65.273438 64.128906 62.132812 C 64.21875 51.488281 64.128906 40.84375 64.164062 30.199219 C 65.421875 30.230469 66.679688 30.25 67.9375 30.289062 C 66.050781 26.03125 67.730469 21.445312 68.011719 17.042969 C 68.265625 13.753906 69.40625 9.539062 73.207031 8.910156 C 78.105469 8.125 83.308594 8.257812 87.980469 10.105469 C 87.972656 11.777344 87.808594 13.460938 87.140625 15.007812 C 83.703125 14.5625 79.492188 13.734375 76.894531 16.703125 C 79.742188 17 82.605469 17.117188 85.460938 17.214844 C 86.3125 18.957031 86.492188 21.519531 84.265625 22.289062 C 81.703125 22.710938 79.089844 22.429688 76.5 22.496094 C 76.492188 23.464844 76.488281 24.4375 76.492188 25.398438 C 79.542969 26.4375 82.753906 26.179688 85.871094 25.660156 C 85.9375 26.828125 86.003906 28 86.078125 29.179688 C 92.054688 27.808594 98.464844 29.546875 103.015625 33.636719 C 103.023438 32.496094 103.03125 31.363281 103.050781 30.222656 C 117.445312 30.230469 131.839844 30.230469 146.238281 30.222656 C 146.289062 41.769531 146.253906 53.3125 146.261719 64.859375 C 150.996094 64.867188 155.734375 64.859375 160.46875 64.867188 C 160.46875 53.273438 160.46875 41.675781 160.46875 30.082031 C 174.558594 30.023438 188.648438 30.089844 202.730469 30.050781 C 206.71875 30.109375 211.027344 31.058594 213.875 34.058594 C 218.234375 38.191406 218.914062 45.199219 216.398438 50.480469 C 214.910156 53.917969 211.707031 56.066406 208.488281 57.6875 C 212.988281 63.71875 217.5 69.742188 222 75.769531 L 222 76.460938 C 217.457031 76.460938 212.921875 76.445312 208.375 76.472656 C 204.90625 72.28125 201.65625 67.910156 198.210938 63.703125 C 198.179688 67.957031 198.210938 72.207031 198.179688 76.460938 C 177.074219 76.453125 155.96875 76.460938 134.863281 76.464844 C 134.835938 64.976562 134.863281 53.496094 134.851562 42.015625 C 131.726562 42 128.605469 42.007812 125.480469 42 C 125.472656 53.546875 125.472656 65.097656 125.480469 76.644531 C 121.679688 76.636719 117.882812 76.636719 114.078125 76.644531 C 114.09375 65.105469 114.085938 53.5625 114.085938 42.023438 C 110.394531 42 106.707031 42.007812 103.023438 42.023438 C 103.023438 41.414062 103.015625 40.199219 103.015625 39.59375 C 101.144531 41.4375 99.203125 43.214844 97.222656 44.941406 C 96.105469 43.214844 95.058594 41.214844 93.121094 40.273438 C 90.953125 39.207031 87.941406 39.273438 86.304688 41.257812 C 85.796875 42.445312 85.789062 44.023438 86.929688 44.84375 C 89.917969 47.394531 94.046875 47.578125 97.546875 49.074219 C 102.867188 51.050781 107.242188 56.296875 106.921875 62.171875 C 107.597656 69.171875 101.988281 75.378906 95.503906 77.105469 C 89.992188 78.320312 83.894531 77.332031 79.328125 73.910156 C 77.449219 72.546875 76.191406 70.546875 74.605469 68.890625 C 73.230469 70.894531 72.046875 73.140625 70.019531 74.59375 C 62.25 80.429688 49.03125 78.761719 44.679688 69.453125 C 44.71875 71.679688 44.726562 73.917969 44.726562 76.15625 C 40.972656 76.148438 37.230469 76.148438 33.484375 76.15625 C 33.492188 70.4375 33.484375 64.710938 33.492188 58.992188 C 30.148438 58.984375 26.804688 58.984375 23.457031 58.992188 C 23.464844 64.710938 23.464844 70.429688 23.457031 76.15625 C 19.65625 76.148438 15.859375 76.148438 12.054688 76.15625 C 12.054688 61.296875 12.054688 46.445312 12.054688 31.585938 C 9.382812 31.535156 6.691406 31.769531 4.03125 31.4375 C 2.132812 30.835938 0.777344 28.734375 1.222656 26.734375 M 5.71875 4.554688 C 5.03125 11.964844 3.804688 19.3125 3.136719 26.71875 C 2.878906 28.082031 3.484375 29.613281 5.039062 29.710938 C 9.035156 29.917969 13.054688 29.84375 17.058594 29.75 C 21.394531 29.5625 24.679688 25.621094 25.203125 21.503906 C 25.996094 17.976562 25.699219 13.183594 21.933594 11.503906 C 18.277344 10.304688 14.332031 11.074219 10.550781 10.882812 C 10.820312 8.679688 10.953125 6.464844 10.855469 4.25 C 9.140625 4.324219 7.429688 4.429688 5.71875 4.554688 M 32.960938 4.5625 C 31.886719 12.96875 30.894531 21.386719 29.875 29.792969 C 31.671875 29.808594 33.46875 29.820312 35.269531 29.851562 C 36.46875 21.472656 37.519531 13.066406 38.347656 4.644531 C 36.546875 4.605469 34.75 4.585938 32.960938 4.5625 M 72.550781 11.109375 C 69.8125 12.777344 70.121094 16.488281 69.605469 19.25 C 69.382812 22.40625 68.28125 25.792969 69.480469 28.835938 C 72.089844 30.667969 75.523438 29.992188 78.519531 30.015625 C 80.59375 29.710938 83.339844 29.976562 84.546875 27.875 C 81.546875 27.613281 78.046875 28.613281 75.457031 26.628906 C 73.785156 25.023438 74.84375 22.546875 74.941406 20.554688 C 77.988281 20.554688 81.039062 20.539062 84.085938 20.464844 C 84.117188 20.042969 84.191406 19.207031 84.226562 18.792969 C 81.171875 18.75 78.113281 18.761719 75.058594 18.734375 C 75.554688 17.148438 75.4375 15.082031 76.976562 14.042969 C 79.71875 12.179688 83.226562 12.894531 86.335938 12.902344 C 86.800781 11.347656 85.246094 11.140625 84.285156 10.859375 C 80.429688 10.171875 76.308594 9.792969 72.550781 11.109375 M 41.617188 28.777344 C 43.074219 30.238281 45.449219 29.652344 47.324219 29.800781 C 52.363281 29.535156 57.503906 30.355469 62.464844 29.140625 C 63.863281 23.132812 64.105469 16.925781 64.949219 10.820312 C 63.136719 10.867188 61.324219 10.976562 59.527344 11.25 C 58.828125 15.519531 58.503906 19.828125 57.859375 24.105469 C 57.210938 28.710938 49.773438 29.28125 47.613281 25.75 C 47.210938 20.777344 48.683594 15.875 48.824219 10.902344 C 47.042969 10.902344 45.25 10.902344 43.460938 10.894531 C 42.933594 16.859375 41.617188 22.777344 41.617188 28.777344 M 75.695312 32.15625 C 75.710938 33.535156 75.722656 34.910156 75.722656 36.289062 C 76.871094 34.601562 78.179688 33.023438 79.632812 31.585938 C 78.320312 31.792969 77.003906 31.992188 75.695312 32.15625 M 76.8125 39.109375 C 75.851562 42.949219 75.871094 47.675781 78.972656 50.578125 C 82.363281 54.460938 87.535156 55.578125 92.101562 57.4375 C 94.238281 58.363281 96.820312 59.570312 97.191406 62.179688 C 97.738281 65.667969 94.386719 68.453125 91.117188 68.464844 C 86.75 68.816406 83.199219 65.652344 80.695312 62.4375 C 79.203125 63.867188 77.589844 65.191406 76.234375 66.761719 C 79.394531 74.097656 88.761719 77.125 96.050781 74.726562 C 100.863281 72.957031 105.125 68.347656 104.859375 62.957031 C 105.367188 58.171875 102.28125 53.636719 98.058594 51.621094 C 93.882812 49.363281 88.472656 49.5625 85.046875 45.941406 C 82.863281 43.742188 83.828125 39.675781 86.558594 38.371094 C 90.441406 36.082031 95.207031 38.3125 97.828125 41.519531 C 99.550781 39.96875 101.261719 38.40625 102.941406 36.808594 C 101.230469 34.890625 99.257812 33.164062 96.875 32.15625 C 89.851562 29.097656 79.601562 31.289062 76.8125 39.109375 M 162.613281 32.171875 C 162.636719 46.214844 162.621094 60.265625 162.621094 74.3125 C 170.378906 74.324219 178.132812 74.332031 185.878906 74.304688 C 185.878906 71.894531 185.878906 69.488281 185.886719 67.082031 C 180.558594 67.03125 175.230469 67.066406 169.902344 67.050781 C 169.902344 63.585938 169.902344 60.117188 169.902344 56.652344 C 175.121094 56.644531 180.339844 56.644531 185.554688 56.652344 C 185.554688 54.265625 185.554688 51.882812 185.511719 49.496094 C 180.308594 49.511719 175.105469 49.503906 169.902344 49.503906 C 169.902344 46.222656 169.902344 42.949219 169.902344 39.667969 C 175.136719 39.675781 180.367188 39.636719 185.605469 39.6875 C 185.613281 37.171875 185.660156 34.660156 185.621094 32.140625 C 177.957031 32.171875 170.289062 32.117188 162.613281 32.171875 M 188.195312 32.058594 C 188.210938 46.148438 188.1875 60.238281 188.210938 74.324219 C 190.882812 74.320312 193.554688 74.324219 196.234375 74.304688 C 196.246094 68.785156 196.195312 63.257812 196.261719 57.734375 C 200.636719 63.25 204.929688 68.835938 209.339844 74.324219 C 212.3125 74.320312 215.296875 74.324219 218.277344 74.304688 C 213.875 68.332031 209.332031 62.472656 205.039062 56.429688 C 208.71875 55.503906 212.425781 53.5625 214.265625 50.089844 C 217.550781 44.265625 215.40625 35.578125 208.8125 33.191406 C 202.144531 31.15625 195.054688 32.414062 188.195312 32.058594 M 14.214844 32.320312 C 13.839844 36.605469 14.148438 40.917969 14.007812 45.214844 C 14.445312 54.792969 13.839844 64.394531 14.164062 73.964844 C 16.546875 73.957031 18.9375 73.949219 21.328125 73.957031 C 21.328125 68.363281 21.335938 62.777344 21.320312 57.183594 C 25.980469 56.859375 30.652344 57.050781 35.320312 56.902344 C 35.503906 62.554688 35.386719 68.214844 35.386719 73.867188 C 37.828125 73.964844 40.269531 73.964844 42.710938 73.964844 C 42.710938 60.050781 42.71875 46.148438 42.710938 32.246094 C 40.257812 32.25 37.804688 32.246094 35.355469 32.265625 C 35.355469 38.125 35.371094 43.984375 35.351562 49.84375 C 30.671875 49.828125 25.988281 49.84375 21.3125 49.828125 C 21.304688 43.992188 21.3125 38.164062 21.304688 32.324219 C 18.945312 32.324219 16.574219 32.332031 14.214844 32.320312 M 45.007812 32.339844 C 45.015625 41.800781 45.007812 51.25 45.007812 60.710938 C 45.023438 64.527344 46.09375 68.4375 48.550781 71.40625 C 52.902344 76.511719 60.886719 76.992188 66.652344 74.207031 C 71.203125 72.074219 73.683594 67.03125 73.695312 62.140625 C 73.761719 52.179688 73.703125 42.207031 73.71875 32.246094 C 71.253906 32.25 68.789062 32.25 66.328125 32.25 C 66.320312 41.992188 66.332031 51.734375 66.328125 61.472656 C 66.378906 64.089844 65.066406 66.742188 62.8125 68.125 C 60.316406 69.40625 57.113281 69.097656 54.894531 67.398438 C 52.941406 65.792969 52.4375 63.117188 52.421875 60.71875 C 52.421875 51.25 52.4375 41.785156 52.421875 32.320312 C 49.949219 32.324219 47.476562 32.324219 45.007812 32.339844 M 104.9375 32.339844 C 104.945312 34.835938 104.945312 37.324219 104.9375 39.820312 C 108.625 39.875 112.316406 39.851562 116.015625 39.84375 C 116.082031 51.378906 116.03125 62.910156 116.039062 74.445312 C 118.511719 74.464844 120.984375 74.464844 123.460938 74.464844 C 123.417969 63.042969 123.527344 51.621094 123.394531 40.199219 C 127.035156 39.628906 130.726562 39.964844 134.390625 39.890625 C 134.390625 37.371094 134.390625 34.84375 134.382812 32.324219 C 124.570312 32.339844 114.75 32.3125 104.9375 32.339844 M 136.773438 32.339844 C 136.78125 46.320312 136.773438 60.296875 136.773438 74.273438 C 144.566406 74.304688 152.359375 74.273438 160.144531 74.289062 C 160.152344 71.84375 160.152344 69.394531 160.15625 66.949219 C 154.832031 66.949219 149.496094 66.96875 144.167969 66.933594 C 144.167969 55.398438 144.175781 43.859375 144.167969 32.324219 C 141.695312 32.324219 139.238281 32.324219 136.773438 32.339844 M 172.058594 41.835938 C 172.066406 43.734375 172.066406 45.636719 172.085938 47.539062 C 176.757812 47.535156 181.433594 47.535156 186.101562 47.539062 C 186.125 45.636719 186.132812 43.734375 186.132812 41.828125 C 181.441406 41.835938 176.75 41.835938 172.058594 41.835938 M 75.710938 49.875 C 75.722656 54.667969 75.703125 59.453125 75.71875 64.246094 C 77.605469 62.429688 79.542969 60.667969 81.464844 58.890625 C 82.710938 61.910156 84.886719 64.652344 87.980469 65.902344 C 90.214844 66.859375 93.359375 66.578125 94.742188 64.363281 C 95.617188 63.191406 95.179688 61.4375 93.90625 60.75 C 89.878906 58.246094 84.972656 57.605469 80.992188 55.015625 C 78.90625 53.675781 77.203125 51.835938 75.710938 49.875 M 172.066406 58.816406 C 172.066406 60.890625 172.066406 62.964844 172.058594 65.035156 C 176.75 65.03125 181.441406 65.03125 186.132812 65.035156 C 186.125 62.964844 186.125 60.890625 186.132812 58.808594 C 181.441406 58.816406 176.75 58.816406 172.066406 58.816406 Z M 172.066406 58.816406 "/>
    <path style=" stroke:none;fill-rule:nonzero;fill:rgb(0%,46.27451%,74.117647%);fill-opacity:1;" d="M 5.71875 4.554688 C 7.429688 4.429688 9.140625 4.324219 10.855469 4.25 C 10.953125 6.464844 10.820312 8.679688 10.550781 10.882812 C 14.332031 11.074219 18.277344 10.304688 21.933594 11.503906 C 25.699219 13.183594 25.996094 17.976562 25.203125 21.503906 C 24.679688 25.621094 21.394531 29.5625 17.058594 29.75 C 13.054688 29.84375 9.035156 29.917969 5.039062 29.710938 C 3.484375 29.613281 2.878906 28.082031 3.136719 26.71875 C 3.804688 19.3125 5.03125 11.964844 5.71875 4.554688 M 10.25 12.992188 C 9.988281 17.050781 8.820312 21.074219 9.132812 25.15625 C 10.632812 29.6875 18.566406 28.703125 19.328125 24.058594 C 19.734375 21.273438 20.527344 18.394531 20.0625 15.585938 C 18.515625 11.59375 13.519531 13.191406 10.25 12.992188 Z M 10.25 12.992188 "/>
    <path style=" stroke:none;fill-rule:nonzero;fill:rgb(0%,46.27451%,74.117647%);fill-opacity:1;" d="M 32.960938 4.5625 C 34.75 4.585938 36.546875 4.605469 38.347656 4.644531 C 37.519531 13.066406 36.46875 21.472656 35.269531 29.851562 C 33.46875 29.820312 31.671875 29.808594 29.875 29.792969 C 30.894531 21.386719 31.886719 12.96875 32.960938 4.5625 Z M 32.960938 4.5625 "/>
    <path style=" stroke:none;fill-rule:nonzero;fill:rgb(0%,46.27451%,74.117647%);fill-opacity:1;" d="M 72.550781 11.109375 C 76.308594 9.792969 80.429688 10.171875 84.285156 10.859375 C 85.246094 11.140625 86.800781 11.347656 86.335938 12.902344 C 83.226562 12.894531 79.71875 12.179688 76.976562 14.042969 C 75.4375 15.082031 75.554688 17.148438 75.058594 18.734375 C 78.113281 18.761719 81.171875 18.75 84.226562 18.792969 C 84.191406 19.207031 84.117188 20.042969 84.085938 20.464844 C 81.039062 20.539062 77.988281 20.554688 74.941406 20.554688 C 74.84375 22.546875 73.785156 25.023438 75.457031 26.628906 C 78.046875 28.613281 81.546875 27.613281 84.546875 27.875 C 83.339844 29.976562 80.59375 29.710938 78.519531 30.015625 C 75.523438 29.992188 72.089844 30.667969 69.480469 28.835938 C 68.28125 25.792969 69.382812 22.40625 69.605469 19.25 C 70.121094 16.488281 69.8125 12.777344 72.550781 11.109375 Z M 72.550781 11.109375 "/>
    <path style=" stroke:none;fill-rule:nonzero;fill:rgb(0%,46.27451%,74.117647%);fill-opacity:1;" d="M 41.617188 28.777344 C 41.617188 22.777344 42.933594 16.859375 43.460938 10.894531 C 45.25 10.902344 47.042969 10.902344 48.824219 10.902344 C 48.683594 15.875 47.210938 20.777344 47.613281 25.75 C 49.773438 29.28125 57.210938 28.710938 57.859375 24.105469 C 58.503906 19.828125 58.828125 15.519531 59.527344 11.25 C 61.324219 10.976562 63.136719 10.867188 64.949219 10.820312 C 64.105469 16.925781 63.863281 23.132812 62.464844 29.140625 C 57.503906 30.355469 52.363281 29.535156 47.324219 29.800781 C 45.449219 29.652344 43.074219 30.238281 41.617188 28.777344 Z M 41.617188 28.777344 "/>
    <path style=" stroke:none;fill-rule:nonzero;fill:rgb(86.666667%,86.27451%,85.882353%);fill-opacity:1;" d="M 10.25 12.992188 C 13.519531 13.191406 18.515625 11.59375 20.0625 15.585938 C 20.527344 18.394531 19.734375 21.273438 19.328125 24.058594 C 18.566406 28.703125 10.632812 29.6875 9.132812 25.15625 C 8.820312 21.074219 9.988281 17.050781 10.25 12.992188 M 10.753906 24.570312 C 12.097656 27.371094 16.878906 26.535156 17.5 23.585938 C 18.054688 21.222656 18.335938 18.777344 18.308594 16.347656 C 17.359375 13.882812 14.113281 14.753906 12.0625 14.546875 C 11.492188 17.867188 10.9375 21.207031 10.753906 24.570312 Z M 10.753906 24.570312 "/>
    <path style=" stroke:none;fill-rule:nonzero;fill:rgb(0%,0%,0%);fill-opacity:1;" d="M 76.8125 39.109375 C 79.601562 31.289062 89.851562 29.097656 96.875 32.15625 C 99.257812 33.164062 101.230469 34.890625 102.941406 36.808594 C 101.261719 38.40625 99.550781 39.96875 97.828125 41.519531 C 95.207031 38.3125 90.441406 36.082031 86.558594 38.371094 C 83.828125 39.675781 82.863281 43.742188 85.046875 45.941406 C 88.472656 49.5625 93.882812 49.363281 98.058594 51.621094 C 102.28125 53.636719 105.367188 58.171875 104.859375 62.957031 C 105.125 68.347656 100.863281 72.957031 96.050781 74.726562 C 88.761719 77.125 79.394531 74.097656 76.234375 66.761719 C 77.589844 65.191406 79.203125 63.867188 80.695312 62.4375 C 83.199219 65.652344 86.75 68.816406 91.117188 68.464844 C 94.386719 68.453125 97.738281 65.667969 97.191406 62.179688 C 96.820312 59.570312 94.238281 58.363281 92.101562 57.4375 C 87.535156 55.578125 82.363281 54.460938 78.972656 50.578125 C 75.871094 47.675781 75.851562 42.949219 76.8125 39.109375 Z M 76.8125 39.109375 "/>
    <path style=" stroke:none;fill-rule:nonzero;fill:rgb(0%,0%,0%);fill-opacity:1;" d="M 162.613281 32.171875 C 170.289062 32.117188 177.957031 32.171875 185.621094 32.140625 C 185.660156 34.660156 185.613281 37.171875 185.605469 39.6875 C 180.367188 39.636719 175.136719 39.675781 169.902344 39.667969 C 169.902344 42.949219 169.902344 46.222656 169.902344 49.503906 C 175.105469 49.503906 180.308594 49.511719 185.511719 49.496094 C 185.554688 51.882812 185.554688 54.265625 185.554688 56.652344 C 180.339844 56.644531 175.121094 56.644531 169.902344 56.652344 C 169.902344 60.117188 169.902344 63.585938 169.902344 67.050781 C 175.230469 67.066406 180.558594 67.03125 185.886719 67.082031 C 185.878906 69.488281 185.878906 71.894531 185.878906 74.304688 C 178.132812 74.332031 170.378906 74.324219 162.621094 74.3125 C 162.621094 60.265625 162.636719 46.214844 162.613281 32.171875 Z M 162.613281 32.171875 "/>
    <path style=" stroke:none;fill-rule:nonzero;fill:rgb(0%,0%,0%);fill-opacity:1;" d="M 188.195312 32.058594 C 195.054688 32.414062 202.144531 31.15625 208.8125 33.191406 C 215.40625 35.578125 217.550781 44.265625 214.265625 50.089844 C 212.425781 53.5625 208.71875 55.503906 205.039062 56.429688 C 209.332031 62.472656 213.875 68.332031 218.277344 74.304688 C 215.296875 74.324219 212.3125 74.320312 209.339844 74.324219 C 204.929688 68.835938 200.636719 63.25 196.261719 57.734375 C 196.195312 63.257812 196.246094 68.785156 196.234375 74.304688 C 193.554688 74.324219 190.882812 74.320312 188.210938 74.324219 C 188.1875 60.238281 188.210938 46.148438 188.195312 32.058594 M 196.320312 39.519531 C 196.328125 42.808594 196.328125 46.089844 196.320312 49.378906 C 199.480469 49.132812 203.035156 50.125 205.859375 48.296875 C 208.546875 46.6875 208.53125 42.179688 205.800781 40.613281 C 202.96875 38.835938 199.46875 39.71875 196.320312 39.519531 Z M 196.320312 39.519531 "/>
    <path style=" stroke:none;fill-rule:nonzero;fill:rgb(0%,0%,0%);fill-opacity:1;" d="M 14.214844 32.320312 C 16.574219 32.332031 18.945312 32.324219 21.304688 32.324219 C 21.3125 38.164062 21.304688 43.992188 21.3125 49.828125 C 25.988281 49.84375 30.671875 49.828125 35.351562 49.84375 C 35.371094 43.984375 35.355469 38.125 35.355469 32.265625 C 37.804688 32.246094 40.257812 32.25 42.710938 32.246094 C 42.71875 46.148438 42.710938 60.050781 42.710938 73.964844 C 40.269531 73.964844 37.828125 73.964844 35.386719 73.867188 C 35.386719 68.214844 35.503906 62.554688 35.320312 56.902344 C 30.652344 57.050781 25.980469 56.859375 21.320312 57.183594 C 21.335938 62.777344 21.328125 68.363281 21.328125 73.957031 C 18.9375 73.949219 16.546875 73.957031 14.164062 73.964844 C 13.839844 64.394531 14.445312 54.792969 14.007812 45.214844 C 14.148438 40.917969 13.839844 36.605469 14.214844 32.320312 Z M 14.214844 32.320312 "/>
    <path style=" stroke:none;fill-rule:nonzero;fill:rgb(0%,0%,0%);fill-opacity:1;" d="M 45.007812 32.339844 C 47.476562 32.324219 49.949219 32.324219 52.421875 32.320312 C 52.4375 41.785156 52.421875 51.25 52.421875 60.71875 C 52.4375 63.117188 52.941406 65.792969 54.894531 67.398438 C 57.113281 69.097656 60.316406 69.40625 62.8125 68.125 C 65.066406 66.742188 66.378906 64.089844 66.328125 61.472656 C 66.332031 51.734375 66.320312 41.992188 66.328125 32.25 C 68.789062 32.25 71.253906 32.25 73.71875 32.246094 C 73.703125 42.207031 73.761719 52.179688 73.695312 62.140625 C 73.683594 67.03125 71.203125 72.074219 66.652344 74.207031 C 60.886719 76.992188 52.902344 76.511719 48.550781 71.40625 C 46.09375 68.4375 45.023438 64.527344 45.007812 60.710938 C 45.007812 51.25 45.015625 41.800781 45.007812 32.339844 Z M 45.007812 32.339844 "/>
    <path style=" stroke:none;fill-rule:nonzero;fill:rgb(0%,0%,0%);fill-opacity:1;" d="M 104.9375 32.339844 C 114.75 32.3125 124.570312 32.339844 134.382812 32.324219 C 134.390625 34.84375 134.390625 37.371094 134.390625 39.890625 C 130.726562 39.964844 127.035156 39.628906 123.394531 40.199219 C 123.527344 51.621094 123.417969 63.042969 123.460938 74.464844 C 120.984375 74.464844 118.511719 74.464844 116.039062 74.445312 C 116.03125 62.910156 116.082031 51.378906 116.015625 39.84375 C 112.316406 39.851562 108.625 39.875 104.9375 39.820312 C 104.945312 37.324219 104.945312 34.835938 104.9375 32.339844 Z M 104.9375 32.339844 "/>
    <path style=" stroke:none;fill-rule:nonzero;fill:rgb(0%,0%,0%);fill-opacity:1;" d="M 136.773438 32.339844 C 139.238281 32.324219 141.695312 32.324219 144.167969 32.324219 C 144.175781 43.859375 144.167969 55.398438 144.167969 66.933594 C 149.496094 66.96875 154.832031 66.949219 160.15625 66.949219 C 160.152344 69.394531 160.152344 71.84375 160.144531 74.289062 C 152.359375 74.273438 144.566406 74.304688 136.773438 74.273438 C 136.773438 60.296875 136.78125 46.320312 136.773438 32.339844 Z M 136.773438 32.339844 "/>
    <path style=" stroke:none;fill-rule:nonzero;fill:rgb(86.666667%,87.058824%,87.45098%);fill-opacity:1;" d="M 196.320312 39.519531 C 199.46875 39.71875 202.96875 38.835938 205.800781 40.613281 C 208.53125 42.179688 208.546875 46.6875 205.859375 48.296875 C 203.035156 50.125 199.480469 49.132812 196.320312 49.378906 C 196.328125 46.089844 196.328125 42.808594 196.320312 39.519531 M 198.171875 41.695312 C 198.179688 43.519531 198.179688 45.347656 198.171875 47.171875 C 199.917969 47.183594 201.671875 47.304688 203.410156 47.117188 C 204.816406 47.050781 205.355469 45.535156 206.113281 44.585938 C 205.898438 44.105469 205.460938 43.140625 205.246094 42.660156 C 203.109375 41.324219 200.5625 41.660156 198.171875 41.695312 Z M 198.171875 41.695312 "/>
  </g>
</svg>