<?xml version="1.0" encoding="UTF-8" ?>
<!DOCTYPE svg PUBLIC "-//W3C//DTD SVG 1.1//EN" "http://www.w3.org/Graphics/SVG/1.1/DTD/svg11.dtd">
<svg width="1000pt" height="101pt" viewBox="0 0 1000 101" version="1.1" xmlns="http://www.w3.org/2000/svg">
<g id="#0e0048ff">
<path fill="#0e0048" opacity="1.00" d=" M 384.62 0.00 L 385.41 0.00 C 393.90 0.30 402.48 1.98 409.98 6.12 C 422.16 12.47 430.75 24.72 433.51 38.07 C 436.28 51.63 434.59 66.41 427.31 78.33 C 421.24 88.36 411.17 95.83 399.82 98.74 C 384.47 102.77 367.00 100.59 354.15 90.88 C 341.81 81.72 335.21 66.15 335.46 50.96 C 335.02 36.87 340.34 22.43 350.83 12.82 C 359.92 4.36 372.36 0.34 384.62 0.00 M 378.48 20.67 C 371.04 22.12 364.09 26.65 360.35 33.33 C 356.11 40.56 355.31 49.37 356.67 57.52 C 358.04 65.25 362.32 72.80 369.25 76.81 C 380.51 83.29 396.33 82.11 405.76 72.86 C 412.20 66.42 414.55 56.88 413.95 48.00 C 413.59 40.27 410.50 32.51 404.78 27.20 C 397.79 20.83 387.60 18.77 378.48 20.67 Z" />
<path fill="#0e0048" opacity="1.00" d=" M 475.55 0.00 L 479.14 0.00 C 490.50 0.49 501.74 5.05 509.40 13.60 C 511.06 15.69 513.83 17.90 513.14 20.88 C 511.00 23.81 508.15 26.11 505.68 28.76 C 503.97 30.34 502.38 32.46 499.88 32.66 C 496.98 30.37 495.17 27.01 492.19 24.80 C 485.97 19.91 477.38 18.87 469.83 20.65 C 465.51 21.60 461.34 25.19 461.69 29.96 C 461.55 34.45 465.97 37.09 469.75 38.20 C 480.61 41.28 492.35 41.35 502.60 46.45 C 509.79 49.95 515.47 56.87 516.46 64.93 C 517.42 72.44 516.52 80.66 511.87 86.87 C 505.84 95.00 495.88 99.61 485.93 100.38 C 470.49 102.27 454.22 96.73 443.26 85.68 C 441.78 83.89 439.26 81.84 440.20 79.24 C 442.82 75.90 446.13 73.17 448.90 69.96 C 450.33 68.72 451.73 66.38 453.93 66.88 C 456.31 68.94 458.02 71.67 460.49 73.65 C 465.69 77.90 472.19 80.92 479.01 80.85 C 483.83 80.80 489.08 80.13 492.93 76.96 C 496.66 73.95 497.30 67.66 493.85 64.21 C 490.22 60.50 484.79 59.72 479.92 58.89 C 471.07 57.60 461.94 56.35 454.04 51.88 C 446.84 47.99 441.23 40.43 441.20 32.03 C 440.69 24.30 443.11 16.23 448.66 10.68 C 455.51 3.30 465.82 0.58 475.55 0.00 Z" />
<path fill="#0e0048" opacity="1.00" d=" M 656.31 0.00 L 656.57 0.00 C 665.76 0.29 675.05 2.36 682.97 7.18 C 694.70 14.14 702.72 26.60 704.96 39.97 C 707.28 53.93 705.08 69.06 696.80 80.78 C 689.41 91.68 676.92 98.53 663.98 100.12 C 650.51 101.95 636.09 99.13 625.15 90.82 C 614.53 82.85 607.99 70.08 606.84 56.94 C 605.14 42.19 609.07 26.42 619.32 15.40 C 628.66 5.14 642.63 0.16 656.31 0.00 M 649.50 20.67 C 644.15 21.77 639.03 24.30 635.26 28.31 C 629.40 34.22 626.96 42.80 627.21 50.97 C 627.04 60.48 630.97 70.48 638.99 75.98 C 651.28 84.05 670.16 82.24 679.22 70.10 C 684.63 62.98 685.77 53.56 684.71 44.91 C 683.70 36.86 679.38 29.06 672.49 24.61 C 665.77 20.27 657.28 19.08 649.50 20.67 Z" />
<path fill="#0e0048" opacity="1.00" d=" M 51.98 42.25 C 63.63 28.56 75.28 14.89 86.98 1.25 C 87.03 14.91 86.98 28.58 87.00 42.25 C 103.67 42.26 120.34 42.24 137.00 42.26 C 120.43 49.67 103.59 56.47 86.96 63.77 C 87.05 75.56 86.98 87.35 87.00 99.14 C 76.03 92.03 65.17 84.73 54.18 77.67 C 37.35 84.76 20.58 91.97 3.73 99.00 C 13.45 87.23 23.50 75.74 33.35 64.08 C 22.41 56.73 11.23 49.74 0.36 42.29 C 17.56 42.20 34.77 42.28 51.98 42.25 Z" />
<path fill="#0e0048" opacity="1.00" d=" M 95.00 1.50 C 111.01 1.48 127.01 1.53 143.02 1.48 C 145.29 1.51 147.61 1.31 149.85 1.79 C 151.85 2.66 151.72 5.18 151.77 6.99 C 151.65 11.19 152.04 15.42 151.52 19.59 C 151.03 21.56 148.81 21.83 147.13 21.76 C 129.75 21.74 112.38 21.75 95.01 21.75 C 94.99 15.00 95.00 8.25 95.00 1.50 Z" />
<path fill="#0e0048" opacity="1.00" d=" M 163.20 2.04 C 168.26 0.84 173.72 1.70 178.94 1.56 C 181.33 1.41 182.27 4.02 182.01 5.98 C 182.00 25.65 182.00 45.31 182.00 64.98 C 181.87 69.69 183.91 74.58 187.96 77.18 C 192.56 80.43 198.48 80.48 203.88 80.18 C 208.77 79.90 213.87 77.83 216.59 73.58 C 218.51 70.77 218.98 67.29 219.00 63.97 C 219.02 44.30 218.97 24.62 219.02 4.95 C 218.60 2.72 220.96 1.21 222.98 1.51 C 227.61 1.53 232.25 1.32 236.87 1.63 C 238.94 1.98 239.31 4.22 239.26 5.96 C 239.25 25.67 239.24 45.38 239.26 65.09 C 239.28 71.74 237.83 78.53 234.13 84.15 C 228.71 92.95 218.98 98.39 208.90 99.92 C 197.29 101.68 184.61 99.96 174.99 92.84 C 166.84 86.95 161.87 77.09 161.78 67.06 C 161.69 47.04 161.81 27.02 161.72 7.00 C 161.84 5.33 161.41 2.98 163.20 2.04 Z" />
<path fill="#0e0048" opacity="1.00" d=" M 252.99 6.00 C 252.75 4.05 253.62 1.44 256.01 1.56 C 268.01 1.39 280.02 1.57 292.03 1.48 C 300.70 1.33 309.55 4.06 316.12 9.83 C 327.77 19.64 330.76 37.38 325.06 51.13 C 322.19 57.86 316.67 63.18 310.15 66.39 C 317.44 75.30 324.61 84.31 331.86 93.26 C 333.29 94.71 334.10 97.76 331.80 98.79 C 324.89 99.31 317.93 98.85 311.01 98.99 C 300.18 85.38 289.96 71.30 279.28 57.57 C 278.26 56.16 276.58 53.81 278.76 52.61 C 285.45 51.39 292.55 53.45 299.09 51.11 C 307.80 47.55 309.79 35.47 305.14 27.98 C 302.58 23.91 297.74 21.64 292.99 21.75 C 286.41 21.72 279.83 21.76 273.25 21.76 C 273.25 46.17 273.26 70.58 273.25 94.99 C 273.40 96.57 272.80 98.39 271.13 98.88 C 265.70 99.24 260.24 98.82 254.80 99.07 C 253.83 97.92 252.75 96.72 253.01 95.08 C 252.97 65.39 253.02 35.69 252.99 6.00 Z" />
<path fill="#0e0048" opacity="1.00" d=" M 525.05 4.88 C 524.87 2.67 526.88 1.23 528.96 1.52 C 541.28 1.47 553.61 1.48 565.93 1.52 C 577.31 1.68 588.71 7.50 594.67 17.33 C 601.59 28.91 601.73 44.33 595.11 56.07 C 589.89 65.08 580.23 71.22 569.90 72.30 C 561.69 73.16 553.43 72.53 545.21 72.81 C 545.28 80.23 545.25 87.65 545.26 95.08 C 545.36 96.61 544.89 98.77 543.01 98.86 C 537.61 99.26 532.18 98.81 526.77 99.08 C 525.50 97.69 524.74 95.99 524.99 94.07 C 525.05 64.34 524.92 34.61 525.05 4.88 M 545.25 21.76 C 545.24 31.91 545.27 42.07 545.23 52.22 C 551.50 52.26 557.77 52.27 564.05 52.26 C 567.86 52.25 571.92 51.49 574.80 48.80 C 579.99 43.88 580.86 35.50 577.81 29.21 C 575.65 24.75 570.84 21.88 565.94 21.79 C 559.04 21.66 552.14 21.79 545.25 21.76 Z" />
<path fill="#0e0048" opacity="1.00" d=" M 714.99 5.96 C 714.74 4.02 715.64 1.43 718.02 1.56 C 730.00 1.39 741.98 1.57 753.97 1.48 C 762.42 1.34 771.01 3.91 777.55 9.38 C 789.54 19.03 792.76 36.93 787.15 50.87 C 784.29 57.70 778.74 63.17 772.07 66.30 C 779.29 75.29 786.57 84.24 793.79 93.23 C 795.28 94.77 796.03 97.57 793.76 98.82 C 786.86 99.28 779.91 98.87 773.00 98.99 C 762.14 85.43 751.94 71.35 741.29 57.63 C 740.05 56.30 739.76 54.51 739.61 52.77 C 746.53 51.37 753.74 53.31 760.57 51.31 C 771.49 47.35 772.65 30.04 763.05 24.00 C 760.41 22.20 757.16 21.68 754.04 21.73 C 747.77 21.75 741.51 21.75 735.25 21.76 C 735.26 45.82 735.23 69.89 735.27 93.95 C 735.28 95.75 735.22 98.37 733.06 98.87 C 728.02 99.16 722.96 99.00 717.92 98.97 C 715.87 99.12 714.69 96.86 714.99 95.07 C 715.00 65.37 715.01 35.66 714.99 5.96 Z" />
<path fill="#0e0048" opacity="1.00" d=" M 792.97 3.13 C 793.90 1.83 795.46 1.33 797.03 1.48 C 818.66 1.53 840.30 1.46 861.94 1.52 C 864.00 1.13 865.82 2.87 865.71 4.93 C 865.82 9.31 865.79 13.71 865.72 18.09 C 865.86 19.76 864.75 21.68 862.93 21.67 C 855.04 21.89 847.14 21.66 839.25 21.76 C 839.26 46.17 839.24 70.59 839.26 95.01 C 839.55 96.99 838.33 99.38 836.05 99.18 C 831.38 99.32 826.69 99.36 822.02 99.16 C 819.84 99.24 818.78 96.88 819.01 95.02 C 818.98 70.60 819.01 46.17 819.00 21.75 C 811.63 21.72 804.27 21.78 796.92 21.76 C 795.30 21.98 793.99 21.05 792.74 20.22 C 792.92 14.53 792.42 8.81 792.97 3.13 Z" />
<path fill="#0e0048" opacity="1.00" d=" M 999.61 2.60 L 1000.00 1.94 L 1000.00 98.02 L 999.72 97.46 C 999.20 89.64 999.58 81.81 999.47 73.98 C 999.56 50.19 999.28 26.39 999.61 2.60 Z" />
<path fill="#0e0048" opacity="1.00" d=" M 95.00 79.00 C 112.68 79.01 130.36 78.99 148.04 79.00 C 149.91 78.63 151.72 80.14 151.66 82.04 C 151.84 86.67 151.84 91.32 151.66 95.95 C 151.71 97.79 149.99 99.36 148.15 98.99 C 130.43 99.02 112.72 98.99 95.00 99.00 C 95.00 92.33 95.00 85.67 95.00 79.00 Z" />
</g>
<g id="#ed1944ff">
<path fill="#ed1944" opacity="1.00" d=" M 904.01 0.00 L 997.53 0.00 C 998.06 0.99 998.75 1.85 999.61 2.60 C 999.28 26.39 999.56 50.19 999.47 73.98 C 999.58 81.81 999.20 89.64 999.72 97.46 C 998.71 98.57 997.83 99.76 997.03 101.00 L 906.28 101.00 C 904.11 100.80 901.62 99.64 902.03 97.07 C 901.96 66.05 902.00 35.02 902.01 3.99 C 901.70 2.28 902.88 1.07 904.01 0.00 M 934.62 17.07 C 934.36 21.00 934.38 24.97 934.61 28.90 C 937.59 31.62 942.48 29.69 946.24 30.24 C 946.27 47.52 946.22 64.79 946.26 82.07 C 946.27 83.22 946.49 85.21 948.11 85.11 C 952.37 85.36 956.70 85.47 960.96 84.98 C 962.02 83.95 961.94 82.39 962.01 81.03 C 961.99 60.67 961.99 40.32 962.01 19.96 C 961.98 18.42 962.09 15.83 959.99 15.63 C 952.99 15.29 945.97 15.61 938.97 15.48 C 937.46 15.62 935.14 15.12 934.62 17.07 Z" />
</g>
<g id="#ffffffff">
<path fill="#ffffff" opacity="1.00" d=" M 934.62 17.07 C 935.14 15.12 937.46 15.62 938.97 15.48 C 945.97 15.61 952.99 15.29 959.99 15.63 C 962.09 15.83 961.98 18.42 962.01 19.96 C 961.99 40.32 961.99 60.67 962.01 81.03 C 961.94 82.39 962.02 83.95 960.96 84.98 C 956.70 85.47 952.37 85.36 948.11 85.11 C 946.49 85.21 946.27 83.22 946.26 82.07 C 946.22 64.79 946.27 47.52 946.24 30.24 C 942.48 29.69 937.59 31.62 934.61 28.90 C 934.38 24.97 934.36 21.00 934.62 17.07 Z" />
</g>
</svg>
