<?xml version="1.0" encoding="UTF-8" standalone="yes"?>
<svg xmlns="http://www.w3.org/2000/svg" xmlns:xlink="http://www.w3.org/1999/xlink" width="164px" height="106.66666666666666px" viewBox="0 0 123 80" version="1.1">
  <g id="surface1">
    <path style=" stroke:none;fill-rule:nonzero;fill:rgb(0%,33.72549%,64.313725%);fill-opacity:1;" d="M 6.613281 29.503906 L 62.125 29.507812 L 56.125 50.84375 L 0.554688 50.84375 Z M 6.613281 29.503906 "/>
    <path style=" stroke:none;fill-rule:nonzero;fill:rgb(85.490196%,85.490196%,85.490196%);fill-opacity:1;" d="M 43.023438 25.378906 L 39.460938 22.824219 L 33.898438 25.371094 L 37.355469 21.308594 L 33.898438 18.839844 L 39.460938 18.839844 L 43.023438 14.660156 L 43.023438 18.839844 L 48.140625 18.839844 L 43.023438 21.191406 Z M 43.023438 25.378906 "/>
    <path style=" stroke:none;fill-rule:nonzero;fill:rgb(85.490196%,85.490196%,85.490196%);fill-opacity:1;" d="M 59.566406 15.539062 L 56.003906 12.984375 L 50.441406 15.527344 L 53.902344 11.464844 L 50.441406 8.996094 L 56.003906 8.996094 L 59.566406 4.816406 L 59.566406 8.996094 L 64.683594 8.996094 L 59.566406 11.351562 Z M 59.566406 15.539062 "/>
    <path style=" stroke:none;fill-rule:nonzero;fill:rgb(85.490196%,85.490196%,85.490196%);fill-opacity:1;" d="M 77.949219 10.992188 L 74.386719 8.4375 L 68.824219 10.984375 L 72.285156 6.917969 L 68.824219 4.449219 L 74.386719 4.449219 L 77.949219 0.269531 L 77.949219 4.449219 L 83.066406 4.449219 L 77.949219 6.800781 Z M 77.949219 10.992188 "/>
    <path style=" stroke:none;fill-rule:nonzero;fill:rgb(85.490196%,85.490196%,85.490196%);fill-opacity:1;" d="M 94.742188 15.546875 L 91.179688 12.996094 L 85.613281 15.539062 L 89.074219 11.476562 L 85.617188 9.007812 L 91.179688 9.007812 L 94.742188 4.828125 L 94.742188 9.007812 L 99.859375 9.007812 L 94.742188 11.359375 Z M 94.742188 15.546875 "/>
    <path style=" stroke:none;fill-rule:nonzero;fill:rgb(85.490196%,85.490196%,85.490196%);fill-opacity:1;" d="M 106.261719 25.371094 L 102.695312 22.820312 L 97.136719 25.363281 L 100.59375 21.300781 L 97.136719 18.832031 L 102.695312 18.832031 L 106.261719 14.652344 L 106.261719 18.832031 L 111.378906 18.832031 L 106.261719 21.183594 Z M 106.261719 25.371094 "/>
    <path style=" stroke:none;fill-rule:nonzero;fill:rgb(85.490196%,85.490196%,85.490196%);fill-opacity:1;" d="M 91.175781 65.410156 L 87.613281 62.855469 L 82.050781 65.398438 L 85.507812 61.335938 L 82.050781 58.867188 L 87.613281 58.867188 L 91.175781 54.691406 L 91.175781 58.867188 L 96.292969 58.867188 L 91.175781 61.222656 Z M 91.175781 65.410156 "/>
    <path style=" stroke:none;fill-rule:nonzero;fill:rgb(85.490196%,85.490196%,85.490196%);fill-opacity:1;" d="M 56.003906 79.792969 L 52.4375 77.238281 L 46.875 79.78125 L 50.335938 75.722656 L 46.875 73.253906 L 52.4375 73.253906 L 56.003906 69.070312 L 56.003906 73.253906 L 61.121094 73.253906 L 56.003906 75.605469 Z M 56.003906 79.792969 "/>
    <path style=" stroke:none;fill-rule:nonzero;fill:rgb(85.490196%,85.490196%,85.490196%);fill-opacity:1;" d="M 27.722656 65.421875 L 24.160156 62.867188 L 18.59375 65.414062 L 22.054688 61.351562 L 18.59375 58.882812 L 24.160156 58.882812 L 27.722656 54.703125 L 27.722656 58.882812 L 32.839844 58.882812 L 27.722656 61.234375 Z M 27.722656 65.421875 "/>
    <path style=" stroke:none;fill-rule:nonzero;fill:rgb(85.490196%,85.490196%,85.490196%);fill-opacity:1;" d="M 74.402344 75.980469 L 70.839844 73.429688 L 65.277344 75.972656 L 68.738281 71.910156 L 65.277344 69.441406 L 70.839844 69.441406 L 74.402344 65.257812 L 74.402344 69.441406 L 79.519531 69.441406 L 74.402344 71.792969 Z M 74.402344 75.980469 "/>
    <path style=" stroke:none;fill-rule:nonzero;fill:rgb(85.490196%,85.490196%,85.490196%);fill-opacity:1;" d="M 39.042969 75.980469 L 35.476562 73.429688 L 29.914062 75.972656 L 33.375 71.910156 L 29.914062 69.441406 L 35.476562 69.441406 L 39.042969 65.257812 L 39.042969 69.441406 L 44.15625 69.441406 L 39.042969 71.792969 Z M 39.042969 75.980469 "/>
    <path style=" stroke:none;fill-rule:nonzero;fill:rgb(100%,100%,100%);fill-opacity:1;" d="M 9.441406 33.296875 L 18.070312 33.296875 L 17.3125 35.976562 L 11.707031 35.976562 L 10.972656 38.589844 L 16.144531 38.589844 L 15.382812 41.25 L 10.21875 41.25 L 9.332031 44.339844 L 14.929688 44.339844 L 14.191406 47.015625 L 5.5625 47.015625 Z M 9.441406 33.296875 "/>
    <path style=" stroke:none;fill-rule:nonzero;fill:rgb(100%,100%,100%);fill-opacity:1;" d="M 17.753906 43.742188 C 17.777344 43.515625 17.824219 43.265625 17.890625 43.042969 L 20.644531 33.296875 L 23.671875 33.296875 L 21.023438 42.628906 C 20.953125 42.855469 20.914062 43.0625 20.894531 43.265625 C 20.804688 44.089844 21.1875 44.542969 22.628906 44.542969 C 24.277344 44.542969 24.945312 43.882812 25.273438 42.75 L 27.953125 33.296875 L 30.980469 33.296875 L 28.226562 43.042969 C 27.566406 45.347656 26.214844 47.222656 22.035156 47.222656 C 18.71875 47.222656 17.558594 45.554688 17.753906 43.742188 "/>
    <path style=" stroke:none;fill-rule:nonzero;fill:rgb(100%,100%,100%);fill-opacity:1;" d="M 39.710938 37.539062 C 39.773438 37.3125 39.820312 37.066406 39.832031 36.964844 C 39.90625 36.261719 39.507812 35.972656 38.457031 35.972656 L 35.945312 35.972656 L 34.777344 40.117188 L 37.375 40.117188 C 38.710938 40.117188 39.113281 39.621094 39.414062 38.570312 Z M 36.105469 42.730469 L 34.027344 42.730469 L 32.824219 47.015625 L 29.796875 47.015625 L 33.679688 33.292969 L 38.925781 33.292969 C 41.871094 33.292969 43.195312 34.410156 42.980469 36.425781 C 42.949219 36.695312 42.882812 36.964844 42.804688 37.273438 L 42.339844 38.921875 C 41.871094 40.628906 41.132812 41.722656 39.359375 42.320312 L 41.453125 47.015625 L 38.054688 47.015625 Z M 36.105469 42.730469 "/>
    <path style=" stroke:none;fill-rule:nonzero;fill:rgb(100%,100%,100%);fill-opacity:1;" d="M 53.03125 37.128906 C 53.125 36.285156 52.621094 35.769531 51.160156 35.769531 C 49.597656 35.769531 48.699219 36.449219 48.375 37.542969 L 46.886719 42.773438 C 46.851562 42.9375 46.8125 43.105469 46.796875 43.246094 C 46.710938 44.070312 47.191406 44.542969 48.671875 44.542969 C 50.238281 44.542969 51.128906 43.949219 51.460938 42.773438 L 52.945312 37.542969 C 52.984375 37.394531 53.019531 37.253906 53.03125 37.128906 M 43.691406 43.578125 C 43.714844 43.371094 43.757812 43.144531 43.824219 42.9375 L 45.421875 37.273438 C 46.144531 34.71875 47.886719 33.089844 51.757812 33.089844 C 55.011719 33.089844 56.335938 34.945312 56.132812 36.820312 C 56.113281 37.003906 56.070312 37.230469 56.007812 37.4375 L 54.414062 43.042969 C 53.683594 45.660156 51.96875 47.222656 47.914062 47.222656 C 44.683594 47.222656 43.496094 45.429688 43.691406 43.578125 "/>
    <path style=" stroke:none;fill-rule:nonzero;fill:rgb(89.803922%,0%,25.098039%);fill-opacity:1;" d="M 60.296875 46.316406 L 61.203125 43.988281 C 62.476562 44.382812 63.539062 44.667969 64.859375 44.667969 C 66.460938 44.667969 66.867188 44.359375 67.199219 43.164062 C 67.292969 42.875 67.339844 42.628906 67.359375 42.441406 C 67.425781 41.824219 67.03125 41.660156 65.410156 41.230469 C 63.1875 40.652344 62.429688 39.847656 62.601562 38.242188 C 62.644531 37.808594 62.761719 37.3125 62.925781 36.757812 C 63.847656 33.707031 64.738281 33.089844 68.464844 33.089844 C 69.515625 33.089844 71.21875 33.316406 72.402344 33.625 L 71.59375 36.160156 C 70.414062 35.871094 68.867188 35.6875 67.941406 35.6875 C 66.457031 35.6875 66.148438 35.890625 65.84375 36.984375 C 65.769531 37.292969 65.703125 37.539062 65.683594 37.726562 C 65.613281 38.386719 66.011719 38.488281 67.574219 38.902344 C 70.0625 39.539062 70.675781 40.320312 70.523438 41.722656 C 70.480469 42.15625 70.367188 42.628906 70.203125 43.183594 C 69.410156 46.007812 68.289062 47.222656 64.398438 47.222656 C 63.265625 47.222656 61.308594 46.832031 60.296875 46.316406 "/>
    <path style=" stroke:none;fill-rule:nonzero;fill:rgb(89.803922%,0%,25.098039%);fill-opacity:1;" d="M 81.261719 37.601562 C 81.328125 37.355469 81.371094 37.148438 81.386719 37.003906 C 81.460938 36.304688 81.085938 35.972656 80.160156 35.972656 L 77.605469 35.972656 L 76.410156 40.21875 L 78.902344 40.21875 C 80.300781 40.21875 80.660156 39.722656 80.960938 38.691406 Z M 75.652344 42.832031 L 74.464844 47.015625 L 71.441406 47.015625 L 75.320312 33.296875 L 80.546875 33.296875 C 83.492188 33.296875 84.792969 34.429688 84.582031 36.386719 C 84.550781 36.671875 84.441406 37.109375 84.34375 37.4375 L 83.914062 38.980469 C 83.1875 41.535156 81.996094 42.832031 78.371094 42.832031 Z M 75.652344 42.832031 "/>
    <path style=" stroke:none;fill-rule:nonzero;fill:rgb(89.803922%,0%,25.098039%);fill-opacity:1;" d="M 93.992188 37.128906 C 94.085938 36.285156 93.585938 35.769531 92.121094 35.769531 C 90.558594 35.769531 89.660156 36.449219 89.339844 37.542969 L 87.851562 42.773438 C 87.8125 42.9375 87.773438 43.105469 87.757812 43.246094 C 87.671875 44.070312 88.15625 44.542969 89.636719 44.542969 C 91.203125 44.542969 92.089844 43.949219 92.421875 42.773438 L 93.90625 37.542969 C 93.945312 37.394531 93.980469 37.253906 93.992188 37.128906 M 84.65625 43.578125 C 84.675781 43.371094 84.722656 43.144531 84.785156 42.9375 L 86.378906 37.273438 C 87.109375 34.71875 88.847656 33.089844 92.71875 33.089844 C 95.96875 33.089844 97.296875 34.945312 97.09375 36.820312 C 97.074219 37.003906 97.027344 37.230469 96.964844 37.4375 L 95.378906 43.042969 C 94.644531 45.660156 92.933594 47.222656 88.875 47.222656 C 85.644531 47.222656 84.453125 45.429688 84.65625 43.578125 "/>
    <path style=" stroke:none;fill-rule:nonzero;fill:rgb(89.803922%,0%,25.098039%);fill-opacity:1;" d="M 106.53125 37.539062 C 106.59375 37.3125 106.640625 37.066406 106.65625 36.964844 C 106.730469 36.261719 106.328125 35.972656 105.277344 35.972656 L 102.765625 35.972656 L 101.601562 40.117188 L 104.195312 40.117188 C 105.535156 40.117188 105.9375 39.621094 106.234375 38.570312 Z M 102.925781 42.730469 L 100.847656 42.730469 L 99.648438 47.015625 L 96.621094 47.015625 L 100.5 33.292969 L 105.75 33.292969 C 108.695312 33.292969 110.019531 34.410156 109.800781 36.425781 C 109.769531 36.695312 109.703125 36.964844 109.628906 37.273438 L 109.164062 38.921875 C 108.691406 40.628906 107.953125 41.722656 106.183594 42.320312 L 108.273438 47.015625 L 104.875 47.015625 Z M 102.925781 42.730469 "/>
    <path style=" stroke:none;fill-rule:nonzero;fill:rgb(89.803922%,0%,25.098039%);fill-opacity:1;" d="M 114.738281 47.015625 L 111.691406 47.015625 L 114.808594 35.972656 L 111.105469 35.972656 L 111.863281 33.296875 L 122.324219 33.296875 L 121.5625 35.972656 L 117.855469 35.972656 Z M 114.738281 47.015625 "/>
  </g>
</svg>