<?xml version="1.0" encoding="UTF-8" ?>
<!DOCTYPE svg PUBLIC "-//W3C//DTD SVG 1.1//EN" "http://www.w3.org/Graphics/SVG/1.1/DTD/svg11.dtd">
<svg width="331pt" height="64pt" viewBox="0 0 331 64" version="1.1" xmlns="http://www.w3.org/2000/svg">
<g id="#161616ff">
<path fill="#161616" opacity="1.00" d=" M 25.38 1.49 C 31.72 0.26 38.46 0.83 44.36 3.54 C 56.02 8.64 63.78 21.39 62.85 34.10 C 62.12 47.69 51.55 60.08 38.16 62.69 C 29.27 64.74 19.56 62.32 12.45 56.66 C 4.24 50.25 -0.36 39.51 0.77 29.13 C 1.75 15.84 12.35 4.10 25.38 1.49 Z" />
<path fill="#161616" opacity="1.00" d=" M 80.19 26.09 C 82.93 18.85 91.55 14.75 98.91 17.02 C 102.87 17.91 105.79 20.90 108.24 23.94 C 103.49 27.57 99.05 31.59 94.30 35.22 C 93.19 33.84 92.07 32.48 90.95 31.12 C 94.06 28.44 97.44 26.08 100.36 23.19 C 98.01 22.25 95.49 21.60 92.94 21.98 C 86.70 22.66 82.33 30.19 85.00 35.93 C 86.79 41.32 93.54 43.95 98.65 41.75 C 101.08 40.92 102.64 38.81 104.10 36.83 C 105.62 37.77 107.15 38.71 108.66 39.67 C 104.97 45.64 97.47 49.68 90.49 47.35 C 81.68 45.16 76.20 34.40 80.19 26.09 Z" />
<path fill="#161616" opacity="1.00" d=" M 148.66 19.63 C 151.58 16.63 155.98 15.82 160.01 15.95 C 159.98 17.79 159.94 19.63 159.87 21.47 C 157.14 21.64 153.97 21.66 152.03 23.91 C 150.47 25.53 150.74 27.95 150.63 30.01 C 150.66 35.77 150.61 41.53 150.70 47.29 C 148.82 47.32 146.94 47.34 145.05 47.33 C 145.15 41.21 145.09 35.08 145.10 28.96 C 145.08 25.57 146.10 21.98 148.66 19.63 Z" />
<path fill="#161616" opacity="1.00" d=" M 114.63 17.09 C 116.50 17.08 118.37 17.06 120.24 17.05 C 120.56 23.55 119.97 30.09 120.52 36.57 C 120.95 40.23 124.32 42.29 127.62 43.03 C 130.87 42.17 134.18 40.06 134.55 36.41 C 135.09 29.97 134.57 23.49 134.80 17.04 C 136.71 17.08 138.62 17.13 140.53 17.19 C 140.33 23.94 140.79 30.71 140.27 37.44 C 139.66 43.89 133.35 48.87 126.94 48.24 C 120.75 48.35 115.12 43.18 114.71 37.00 C 114.41 30.38 114.59 23.73 114.63 17.09 Z" />
<path fill="#161616" opacity="1.00" d=" M 171.29 17.35 C 178.04 15.13 186.37 17.73 189.86 24.11 C 194.30 31.14 192.10 41.53 184.89 45.83 C 177.74 50.63 166.75 48.13 162.73 40.40 C 157.84 32.19 161.98 20.18 171.29 17.35 M 174.33 22.37 C 165.26 23.83 164.01 38.36 172.27 41.76 C 178.30 44.99 186.39 39.86 186.05 33.03 C 186.95 26.64 180.62 20.71 174.33 22.37 Z" />
<path fill="#161616" opacity="1.00" d=" M 203.71 17.76 C 210.46 14.56 219.72 17.88 221.77 25.37 C 223.17 32.67 222.11 40.18 222.51 47.57 C 220.57 47.64 218.63 47.69 216.70 47.74 C 216.46 41.38 216.99 34.99 216.46 28.65 C 216.17 24.45 211.38 20.92 207.35 22.53 C 203.64 23.46 202.04 27.49 202.09 30.98 C 202.05 36.56 202.15 42.14 202.07 47.71 C 200.16 47.69 198.26 47.65 196.35 47.61 C 196.43 41.40 196.16 35.18 196.46 28.98 C 196.64 24.29 199.33 19.67 203.71 17.76 Z" />
<path fill="#161616" opacity="1.00" d=" M 226.40 34.63 C 224.77 25.86 232.07 16.77 240.98 16.45 C 246.79 15.94 252.29 19.22 255.45 23.96 C 250.68 27.62 246.30 31.75 241.48 35.32 C 240.45 33.87 239.41 32.44 238.37 31.01 C 241.46 28.51 244.58 26.05 247.53 23.38 C 243.35 20.88 237.44 21.44 234.22 25.23 C 229.64 30.01 231.35 38.81 237.43 41.50 C 242.52 44.16 248.59 41.52 251.45 36.88 C 252.98 37.77 254.52 38.67 256.05 39.57 C 252.55 45.50 245.24 49.45 238.38 47.52 C 232.24 46.15 227.34 40.84 226.40 34.63 Z" />
<path fill="#161616" opacity="1.00" d=" M 261.94 17.04 C 263.87 17.07 265.81 17.14 267.75 17.23 C 267.82 24.14 267.51 31.05 267.87 37.95 C 267.93 41.38 272.24 43.94 275.26 42.22 C 277.89 41.52 278.59 38.49 278.60 36.12 C 278.70 29.76 278.54 23.39 278.66 17.03 C 280.62 17.07 282.58 17.12 284.54 17.19 C 284.69 24.40 284.06 31.66 284.85 38.83 C 285.86 43.86 293.95 43.97 295.07 38.94 C 295.82 31.74 295.23 24.46 295.37 17.22 C 297.29 17.14 299.22 17.08 301.16 17.04 C 301.17 24.02 301.23 31.00 301.17 37.98 C 301.33 43.82 295.72 48.70 289.99 48.24 C 286.61 48.47 283.72 46.54 281.47 44.22 C 278.18 48.50 271.77 49.49 267.18 46.83 C 264.02 45.13 261.85 41.61 261.93 38.00 C 261.89 31.02 261.95 24.03 261.94 17.04 Z" />
<path fill="#161616" opacity="1.00" d=" M 310.33 18.17 C 316.36 16.08 322.88 17.49 329.13 17.09 C 329.13 18.99 329.12 20.89 329.11 22.79 C 323.46 22.92 317.78 22.43 312.16 23.20 C 312.10 24.37 312.04 25.54 311.98 26.71 C 317.19 29.60 323.84 29.43 328.34 33.60 C 333.08 37.60 330.49 46.54 324.29 47.32 C 318.18 48.14 311.96 47.42 305.81 47.74 C 305.77 45.82 305.73 43.91 305.73 42.00 C 311.18 41.95 316.64 42.09 322.09 41.95 C 323.58 42.13 324.29 40.49 325.37 39.78 C 321.64 33.78 312.90 35.70 308.14 30.88 C 304.08 27.50 305.32 19.99 310.33 18.17 Z" />
</g>
</svg>
