<?xml version="1.0" encoding="UTF-8" standalone="no"?>
<!-- Created with Inkscape (http://www.inkscape.org/) -->
<svg xmlns:dc="http://purl.org/dc/elements/1.1/" xmlns:cc="http://creativecommons.org/ns#" xmlns:rdf="http://www.w3.org/1999/02/22-rdf-syntax-ns#" xmlns:svg="http://www.w3.org/2000/svg" xmlns="http://www.w3.org/2000/svg" xmlns:sodipodi="http://sodipodi.sourceforge.net/DTD/sodipodi-0.dtd" xmlns:inkscape="http://www.inkscape.org/namespaces/inkscape" id="svg2816" version="1.1" inkscape:version="0.47 r22583" width="200" height="130" xml:space="preserve" sodipodi:docname="document.pdf"><metadata id="metadata2822"><rdf:RDF><cc:Work rdf:about=""><dc:format>image/svg+xml</dc:format><dc:type rdf:resource="http://purl.org/dc/dcmitype/StillImage"/><dc:title/></cc:Work></rdf:RDF></metadata><defs id="defs2820"><inkscape:perspective sodipodi:type="inkscape:persp3d" inkscape:vp_x="0 : 0.5 : 1" inkscape:vp_y="0 : 1000 : 0" inkscape:vp_z="1 : 0.5 : 1" inkscape:persp3d-origin="0.5 : 0.33333333 : 1" id="perspective2824"/><clipPath clipPathUnits="userSpaceOnUse" id="clipPath2832"><path d="m 0,0 467.717,0 0,680.315 L 0,680.315 0,0 z" id="path2834"/></clipPath><clipPath clipPathUnits="userSpaceOnUse" id="clipPath2848"><path d="m 0,0 467.717,0 0,680.315 L 0,680.315 0,0 z" id="path2850"/></clipPath><clipPath clipPathUnits="userSpaceOnUse" id="clipPath2864"><path d="m 0,0 467.717,0 0,680.315 L 0,680.315 0,0 z" id="path2866"/></clipPath><clipPath clipPathUnits="userSpaceOnUse" id="clipPath2932"><path d="m 186.257,70.514 106.541,0 0,68.176 -106.541,0 0,-68.176 z" id="path2934"/></clipPath></defs><sodipodi:namedview pagecolor="#ffffff" bordercolor="#666666" borderopacity="1" objecttolerance="10" gridtolerance="10" guidetolerance="10" inkscape:pageopacity="0" inkscape:pageshadow="2" inkscape:window-width="1920" inkscape:window-height="1000" id="namedview2818" showgrid="false" inkscape:zoom="1.5698817" inkscape:cx="135.92305" inkscape:cy="21.81683" inkscape:window-x="-8" inkscape:window-y="-8" inkscape:window-maximized="1" inkscape:current-layer="g2968"/><g id="g2826" inkscape:groupmode="layer" inkscape:label="document" transform="matrix(1.25, 0, 0, -1.25, -201.291, 267.238)"><g id="g2968" transform="matrix(1.48675, 0, 0, 1.48675, -115.884, 4.95385)"><g id="g3014" transform="matrix(1.01989, 0, 0, 1.01989, -3.21995, -1.22076)"><g id="g2876" transform="translate(191.453, 113.627)"><path d="m 0,0 47.623,-0.001 -5.147,-18.294 -47.672,0 L 0,0 z" style="fill:#0056a4;fill-opacity:1;fill-rule:nonzero;stroke:none" id="path2878"/></g><g id="g2884" transform="translate(222.691, 117.165)"><path d="M 0,0 -3.057,2.188 -7.83,0.007 -4.862,3.49 -7.83,5.607 l 4.773,0 L 0,9.19 0,5.607 4.388,5.607 0,3.591 0,0 z" style="fill:#dadada;fill-opacity:1;fill-rule:nonzero;stroke:none" id="path2886"/></g><g id="g2888" transform="translate(236.883, 125.602)"><path d="m 0,0 -3.057,2.189 -4.773,-2.182 2.968,3.484 -2.966,2.116 4.771,0 L 0,9.19 0,5.607 4.39,5.607 0,3.59 0,0 z" style="fill:#dadada;fill-opacity:1;fill-rule:nonzero;stroke:none" id="path2890"/></g><g id="g2892" transform="translate(252.652, 129.5)"><path d="m 0,0 -3.057,2.189 -4.772,-2.182 2.969,3.484 -2.967,2.116 4.77,0 L 0,9.19 0,5.607 4.39,5.607 0,3.591 0,0 z" style="fill:#dadada;fill-opacity:1;fill-rule:nonzero;stroke:none" id="path2894"/></g><g id="g2896" transform="translate(267.058, 125.594)"><path d="m 0,0 -3.057,2.188 -4.773,-2.18 2.968,3.482 -2.966,2.117 4.771,0 L 0,9.189 0,5.607 4.39,5.607 0,3.59 0,0 z" style="fill:#dadada;fill-opacity:1;fill-rule:nonzero;stroke:none" id="path2898"/></g><g id="g2900" transform="translate(276.941, 117.171)"><path d="M 0,0 -3.059,2.188 -7.83,0.006 -4.862,3.49 -7.83,5.607 l 4.771,0 L 0,9.19 0,5.607 4.388,5.607 0,3.589 0,0 z" style="fill:#dadada;fill-opacity:1;fill-rule:nonzero;stroke:none" id="path2902"/></g><g id="g2904" transform="translate(263.999, 82.8453)"><path d="m 0,0 -3.057,2.19 -4.773,-2.181 2.968,3.482 -2.966,2.117 4.771,0 L 0,9.19 0,5.608 4.39,5.608 0,3.59 0,0 z" style="fill:#dadada;fill-opacity:1;fill-rule:nonzero;stroke:none" id="path2906"/></g><g id="g2908" transform="translate(233.824, 70.514)"><path d="M 0,0 -3.057,2.188 -7.83,0.009 -4.862,3.49 -7.83,5.606 l 4.773,0 L 0,9.191 0,5.606 4.39,5.606 0,3.588 0,0 z" style="fill:#dadada;fill-opacity:1;fill-rule:nonzero;stroke:none" id="path2910"/></g><g id="g2912" transform="translate(209.564, 82.8333)"><path d="m 0,0 -3.057,2.19 -4.773,-2.181 2.968,3.482 -2.968,2.117 4.773,0 L 0,9.19 0,5.608 4.39,5.608 0,3.592 0,0 z" style="fill:#dadada;fill-opacity:1;fill-rule:nonzero;stroke:none" id="path2914"/></g><g id="g2916" transform="translate(249.609, 73.7823)"><path d="m 0,0 -3.056,2.188 -4.771,-2.181 2.967,3.483 -2.967,2.116 4.771,0 L 0,9.191 0,5.606 4.39,5.606 0,3.588 0,0 z" style="fill:#dadada;fill-opacity:1;fill-rule:nonzero;stroke:none" id="path2918"/></g><g id="g2920" transform="translate(219.274, 73.7823)"><path d="M 0,0 -3.057,2.188 -7.83,0.007 -4.862,3.49 -7.83,5.606 l 4.773,0 L 0,9.191 0,5.606 4.388,5.606 0,3.588 0,0 z" style="fill:#dadada;fill-opacity:1;fill-rule:nonzero;stroke:none" id="path2922"/></g><g id="g2924" transform="translate(193.882, 110.377)"><path d="m 0,0 7.402,0 -0.652,-2.297 -4.806,0 -0.63,-2.243 4.435,0 -0.652,-2.279 -4.432,0 -0.761,-2.649 4.804,0 -0.636,-2.296 -7.4,0 L 0,0 z" style="fill:#ffffff;fill-opacity:1;fill-rule:nonzero;stroke:none" id="path2926"/></g><g id="g2928"><g id="g2930" clip-path="url(#clipPath2932)"><g id="g2936" transform="translate(201.011, 101.422)"><path d="m 0,0 c 0.021,0.192 0.062,0.406 0.117,0.6 l 2.364,8.355 2.596,0 L 2.805,0.953 C 2.747,0.759 2.713,0.582 2.695,0.406 2.618,-0.299 2.946,-0.689 4.183,-0.689 c 1.413,0 1.987,0.566 2.268,1.537 l 2.301,8.107 2.595,0 L 8.985,0.6 C 8.419,-1.378 7.259,-2.985 3.672,-2.985 0.828,-2.985 -0.166,-1.555 0,0" style="fill:#ffffff;fill-opacity:1;fill-rule:nonzero;stroke:none" id="path2938"/></g><g id="g2940" transform="translate(219.847, 106.738)"><path d="M 0,0 C 0.055,0.195 0.096,0.407 0.105,0.495 0.17,1.096 -0.174,1.343 -1.074,1.343 l -2.156,0 -1,-3.551 2.227,0 c 1.148,0 1.492,0.424 1.749,1.325 L 0,0 z m -3.092,-4.451 -1.784,0 -1.031,-3.674 -2.596,0 3.33,11.765 4.502,0 C 1.855,3.64 2.989,2.685 2.805,0.955 2.78,0.725 2.721,0.495 2.655,0.229 L 2.257,-1.183 C 1.854,-2.649 1.222,-3.585 -0.299,-4.098 l 1.794,-4.027 -2.914,0 -1.673,3.674 z" style="fill:#ffffff;fill-opacity:1;fill-rule:nonzero;stroke:none" id="path2942"/></g><g id="g2944" transform="translate(231.277, 107.091)"><path d="m 0,0 c 0.078,0.724 -0.352,1.166 -1.608,1.166 -1.34,0 -2.11,-0.584 -2.389,-1.52 L -5.272,-4.84 c -0.032,-0.141 -0.065,-0.283 -0.077,-0.406 -0.076,-0.706 0.338,-1.112 1.609,-1.112 1.343,0 2.106,0.512 2.391,1.518 l 1.275,4.486 C -0.043,-0.229 -0.012,-0.106 0,0 m -8.013,-5.528 c 0.018,0.176 0.057,0.37 0.113,0.547 l 1.369,4.857 c 0.622,2.191 2.115,3.586 5.436,3.586 2.791,0 3.927,-1.59 3.754,-3.197 C 2.643,0.106 2.604,-0.088 2.551,-0.265 L 1.185,-5.069 c -0.627,-2.245 -2.097,-3.586 -5.577,-3.586 -2.772,0 -3.791,1.538 -3.621,3.127" style="fill:#ffffff;fill-opacity:1;fill-rule:nonzero;stroke:none" id="path2946"/></g><g id="g2948" transform="translate(237.507, 99.2139)"><path d="M 0,0 0.779,1.995 C 1.872,1.659 2.783,1.413 3.914,1.413 5.29,1.413 5.637,1.677 5.923,2.702 6.003,2.949 6.042,3.162 6.06,3.321 6.118,3.85 5.778,3.992 4.388,4.362 2.481,4.857 1.831,5.546 1.979,6.924 c 0.038,0.371 0.137,0.795 0.276,1.271 0.794,2.615 1.556,3.144 4.755,3.144 0.9,0 2.362,-0.194 3.375,-0.459 L 9.694,8.708 C 8.679,8.955 7.352,9.114 6.559,9.114 5.286,9.114 5.021,8.938 4.761,8 4.697,7.736 4.64,7.524 4.622,7.365 4.562,6.8 4.904,6.712 6.245,6.358 8.378,5.811 8.905,5.14 8.776,3.939 8.737,3.568 8.64,3.162 8.501,2.685 7.818,0.264 6.858,-0.777 3.519,-0.777 2.549,-0.777 0.869,-0.441 0,0" style="fill:#e50040;fill-opacity:1;fill-rule:nonzero;stroke:none" id="path2950"/></g><g id="g2952" transform="translate(255.492, 106.686)"><path d="m 0,0 c 0.059,0.212 0.094,0.388 0.109,0.512 0.063,0.6 -0.258,0.883 -1.054,0.883 l -2.19,0 -1.025,-3.639 2.136,0 c 1.201,0 1.511,0.424 1.766,1.308 L 0,0 z m -4.809,-4.486 -1.02,-3.586 -2.595,0 3.327,11.763 4.486,0 C 1.915,3.691 3.03,2.72 2.85,1.042 2.824,0.795 2.731,0.423 2.647,0.141 L 2.276,-1.184 C 1.652,-3.374 0.631,-4.486 -2.477,-4.486 l -2.332,0 z" style="fill:#e50040;fill-opacity:1;fill-rule:nonzero;stroke:none" id="path2954"/></g><g id="g2956" transform="translate(266.416, 107.091)"><path d="m 0,0 c 0.078,0.724 -0.35,1.166 -1.605,1.166 -1.343,0 -2.113,-0.584 -2.389,-1.52 L -5.27,-4.84 c -0.032,-0.141 -0.065,-0.283 -0.08,-0.406 -0.075,-0.706 0.341,-1.112 1.612,-1.112 1.343,0 2.104,0.512 2.389,1.518 l 1.275,4.486 C -0.041,-0.229 -0.01,-0.106 0,0 m -8.011,-5.528 c 0.018,0.176 0.057,0.37 0.111,0.547 l 1.369,4.857 c 0.624,2.191 2.116,3.586 5.436,3.586 2.791,0 3.929,-1.59 3.756,-3.197 C 2.643,0.106 2.604,-0.088 2.55,-0.265 L 1.187,-5.069 c -0.63,-2.245 -2.097,-3.586 -5.577,-3.586 -2.774,0 -3.793,1.538 -3.621,3.127" style="fill:#e50040;fill-opacity:1;fill-rule:nonzero;stroke:none" id="path2958"/></g><g id="g2960" transform="translate(277.171, 106.738)"><path d="M 0,0 C 0.055,0.195 0.096,0.407 0.107,0.495 0.17,1.096 -0.174,1.343 -1.074,1.343 l -2.155,0 -0.999,-3.551 2.225,0 c 1.148,0 1.495,0.424 1.749,1.325 L 0,0 z m -3.092,-4.451 -1.784,0 -1.029,-3.674 -2.596,0 3.328,11.765 4.503,0 C 1.858,3.64 2.992,2.685 2.805,0.955 2.78,0.725 2.721,0.495 2.657,0.229 L 2.258,-1.183 C 1.854,-2.649 1.222,-3.585 -0.298,-4.098 l 1.793,-4.027 -2.914,0 -1.673,3.674 z" style="fill:#e50040;fill-opacity:1;fill-rule:nonzero;stroke:none" id="path2962"/></g><g id="g2964" transform="translate(284.212, 98.6133)"><path d="m 0,0 -2.614,0 2.675,9.468 -3.178,0 0.652,2.296 8.973,0 -0.652,-2.296 -3.18,0 L 0,0 z" style="fill:#e50040;fill-opacity:1;fill-rule:nonzero;stroke:none" id="path2966"/></g></g></g></g></g></g></svg>