<?xml version="1.0" encoding="UTF-8" ?>
<!DOCTYPE svg PUBLIC "-//W3C//DTD SVG 1.1//EN" "http://www.w3.org/Graphics/SVG/1.1/DTD/svg11.dtd">
<svg width="1000pt" height="101pt" viewBox="0 0 1000 101" version="1.1" xmlns="http://www.w3.org/2000/svg">
<g id="#ed1944ff">
<path fill="#ed1944" opacity="1.00" d=" M 904.52 0.00 L 998.16 0.00 C 997.96 1.33 998.57 1.84 1000.00 1.55 L 1000.00 100.70 C 999.99 100.78 999.98 100.93 999.97 101.00 L 902.72 101.00 C 901.68 93.40 902.49 85.68 902.24 78.03 C 902.27 53.35 902.18 28.65 902.28 3.97 C 902.04 2.23 903.37 1.06 904.52 0.00 M 937.02 19.93 C 929.89 25.19 927.98 35.07 929.62 43.35 C 933.89 43.45 938.17 43.43 942.45 43.41 C 943.53 40.44 943.18 37.19 944.20 34.22 C 946.36 28.25 956.55 28.69 958.17 34.86 C 959.46 42.05 953.43 47.33 949.74 52.69 C 943.29 61.28 936.85 69.87 930.38 78.44 C 928.63 80.51 927.85 84.22 930.08 86.21 C 944.01 86.67 957.99 86.25 971.94 86.42 C 973.57 86.71 975.90 86.00 975.51 83.93 C 975.19 79.87 976.60 75.31 974.41 71.64 C 967.54 71.81 960.68 71.74 953.82 71.68 C 958.21 65.79 962.64 59.94 966.93 53.98 C 971.87 47.15 974.52 38.16 972.10 29.88 C 970.23 23.03 964.14 17.67 957.18 16.43 C 950.39 15.12 942.77 15.83 937.02 19.93 Z" />
</g>
<g id="#0e0048ff">
<path fill="#0e0048" opacity="1.00" d=" M 356.60 8.64 C 370.89 -0.97 390.07 -2.32 405.89 4.18 C 419.86 9.79 430.10 22.84 433.41 37.38 C 436.42 51.20 435.09 66.37 427.86 78.72 C 421.37 90.45 409.31 98.38 396.31 101.00 L 374.64 101.00 C 361.83 98.65 350.06 90.95 343.25 79.80 C 335.09 66.69 333.71 50.12 337.60 35.38 C 340.67 24.69 347.21 14.77 356.60 8.64 M 377.16 21.31 C 370.35 23.09 364.11 27.45 360.61 33.63 C 356.41 40.63 355.58 49.12 356.60 57.09 C 357.72 65.59 362.46 73.79 369.96 78.17 C 382.95 85.43 402.14 82.32 409.78 68.78 C 416.89 56.11 415.74 38.26 405.14 27.82 C 397.92 20.70 386.76 18.93 377.16 21.31 Z" />
<path fill="#0e0048" opacity="1.00" d=" M 461.08 2.94 C 470.58 -0.47 481.17 -0.69 490.87 2.02 C 498.93 4.21 505.94 9.36 511.22 15.74 C 512.35 17.24 513.82 18.89 513.47 20.93 C 511.15 24.40 507.83 27.04 504.96 30.03 C 503.56 31.28 502.22 33.04 500.15 32.93 C 497.86 31.57 496.50 29.15 494.65 27.32 C 490.26 22.38 483.54 20.05 477.04 20.14 C 472.76 20.17 468.01 20.67 464.72 23.70 C 461.79 26.36 460.63 31.41 463.29 34.64 C 465.82 37.72 469.88 38.79 473.60 39.68 C 484.08 42.04 495.34 42.57 504.78 48.21 C 511.16 51.87 515.80 58.51 516.70 65.84 C 517.66 73.66 516.67 82.25 511.63 88.60 C 506.71 95.07 499.22 99.10 491.43 101.00 L 469.46 101.00 C 459.04 98.49 448.90 93.36 441.93 85.04 C 440.80 83.62 439.14 81.45 440.74 79.75 C 444.54 75.26 449.01 71.37 453.05 67.10 C 457.10 70.30 459.91 74.90 464.54 77.41 C 472.14 82.42 482.33 83.48 490.66 79.67 C 495.68 77.58 498.09 70.62 494.90 66.07 C 491.88 61.99 486.58 60.81 481.87 59.98 C 472.54 58.48 462.80 57.47 454.45 52.69 C 449.60 50.06 445.53 45.93 443.24 40.88 C 440.63 35.01 440.89 28.23 442.45 22.11 C 444.87 13.07 452.41 6.04 461.08 2.94 Z" />
<path fill="#0e0048" opacity="1.00" d=" M 631.43 6.36 C 645.89 -1.44 664.11 -1.88 678.99 5.07 C 691.69 10.91 700.91 22.95 704.37 36.37 C 707.96 51.02 706.26 67.30 698.14 80.19 C 691.47 91.18 679.80 98.52 667.30 101.00 L 645.53 101.00 C 632.57 98.51 620.60 90.61 613.99 79.08 C 607.03 67.61 605.52 53.53 607.66 40.48 C 610.01 26.35 618.72 13.19 631.43 6.36 M 647.42 21.55 C 641.40 23.33 635.87 27.10 632.52 32.48 C 627.58 39.94 626.74 49.32 627.94 58.00 C 629.36 66.56 634.31 74.87 642.26 78.81 C 655.12 85.20 673.29 81.93 680.84 69.00 C 688.58 55.75 686.86 36.44 674.65 26.39 C 667.15 20.27 656.56 19.02 647.42 21.55 Z" />
<path fill="#0e0048" opacity="1.00" d=" M 52.01 42.65 C 64.00 29.25 75.13 15.00 87.11 1.55 C 87.18 15.28 87.15 29.02 87.12 42.75 C 103.06 42.84 119.00 42.64 134.93 42.85 C 135.12 44.53 133.17 44.54 132.17 45.18 C 117.08 51.60 101.98 58.00 87.04 64.75 C 87.27 76.61 87.10 88.47 87.14 100.33 C 76.03 93.31 65.26 85.77 54.21 78.65 C 37.46 85.98 20.65 93.19 3.79 100.25 C 13.63 88.45 23.51 76.68 33.49 64.98 C 22.62 57.49 11.31 50.63 0.68 42.81 C 17.79 42.62 34.91 42.96 52.01 42.65 Z" />
<path fill="#0e0048" opacity="1.00" d=" M 95.35 21.93 C 95.39 15.12 95.33 8.30 95.39 1.49 C 112.28 1.52 129.16 1.53 146.05 1.49 C 147.98 1.51 150.44 1.42 151.55 3.35 C 151.89 8.58 151.68 13.85 151.68 19.09 C 151.95 21.64 148.97 22.34 147.01 22.14 C 129.78 21.97 112.56 22.24 95.35 21.93 Z" />
<path fill="#0e0048" opacity="1.00" d=" M 161.78 7.01 C 161.91 5.17 161.73 2.36 164.04 1.82 C 169.29 1.24 174.65 1.31 179.91 1.77 C 182.24 2.30 182.25 5.09 182.29 6.99 C 182.24 26.68 182.27 46.37 182.26 66.06 C 182.12 70.19 183.62 74.42 186.77 77.17 C 191.14 81.19 197.43 81.63 203.07 81.37 C 208.46 81.19 214.31 78.96 217.05 74.04 C 220.05 68.89 219.09 62.71 219.23 57.03 C 219.34 38.81 218.98 20.58 219.42 2.37 C 225.94 1.20 233.01 0.62 239.37 2.74 C 239.33 24.48 239.37 46.23 239.36 67.97 C 239.26 74.78 237.04 81.50 233.06 87.03 C 227.92 94.60 219.33 99.19 210.52 101.00 L 190.89 101.00 C 182.20 99.18 173.85 94.70 168.55 87.43 C 163.64 81.07 161.75 72.90 161.78 64.98 C 161.82 45.66 161.80 26.33 161.78 7.01 Z" />
<path fill="#0e0048" opacity="1.00" d=" M 253.50 2.56 C 255.25 1.95 257.06 1.39 258.95 1.49 C 270.30 1.57 281.65 1.44 292.99 1.55 C 300.43 1.64 307.93 3.71 313.96 8.16 C 328.24 18.31 331.96 39.64 323.78 54.74 C 320.75 60.19 315.93 64.55 310.27 67.15 C 317.46 76.14 324.60 85.17 331.79 94.16 C 333.14 95.54 333.33 97.47 333.53 99.30 C 331.76 100.02 329.92 100.64 327.99 100.52 C 322.97 100.45 317.96 100.61 312.95 100.44 C 311.21 100.60 310.11 99.11 309.17 97.91 C 299.22 84.51 289.14 71.20 279.11 57.85 C 277.93 56.65 278.32 54.90 278.18 53.39 C 285.08 52.88 292.17 53.89 298.93 52.01 C 307.13 48.76 309.62 38.07 306.34 30.49 C 304.32 25.67 299.36 22.01 294.04 22.19 C 287.17 22.17 280.29 22.20 273.42 22.20 C 273.51 47.60 273.29 73.00 273.53 98.39 C 272.20 99.49 270.87 100.82 268.97 100.49 C 263.82 100.21 258.38 101.43 253.48 99.41 C 253.16 78.94 253.43 58.47 253.34 38.00 C 253.43 26.19 253.15 14.37 253.50 2.56 Z" />
<path fill="#0e0048" opacity="1.00" d=" M 525.22 5.98 C 524.87 3.67 526.53 1.30 529.04 1.54 C 541.02 1.48 553.01 1.49 564.99 1.55 C 572.64 1.57 580.33 3.83 586.48 8.45 C 601.36 19.24 604.04 41.75 595.16 57.14 C 589.33 67.31 577.67 73.69 566.00 73.54 C 559.14 73.53 552.27 73.51 545.41 73.53 C 545.41 81.37 545.50 89.21 545.40 97.04 C 545.96 99.63 543.02 100.68 540.95 100.50 C 536.65 100.47 532.34 100.67 528.05 100.37 C 525.93 100.13 525.04 97.94 525.22 96.06 C 525.20 66.03 525.20 36.00 525.22 5.98 M 545.42 22.20 C 545.41 32.42 545.49 42.63 545.38 52.84 C 553.27 53.41 561.30 53.64 569.14 52.44 C 576.86 50.98 580.92 42.19 579.69 34.95 C 578.99 28.53 573.73 22.47 567.04 22.23 C 559.84 22.11 552.63 22.23 545.42 22.20 Z" />
<path fill="#0e0048" opacity="1.00" d=" M 715.69 2.81 C 717.45 1.29 719.86 1.51 722.04 1.48 C 732.72 1.56 743.40 1.47 754.08 1.52 C 762.02 1.50 770.10 3.60 776.47 8.48 C 788.99 17.72 792.94 35.60 788.04 49.94 C 785.37 57.47 779.63 63.86 772.32 67.12 C 779.51 76.13 786.66 85.17 793.87 94.17 C 795.19 95.57 795.37 97.49 795.60 99.32 C 793.81 100.03 791.96 100.64 790.02 100.52 C 785.01 100.44 780.01 100.62 775.01 100.44 C 773.25 100.59 772.15 99.07 771.20 97.87 C 761.25 84.49 751.20 71.17 741.16 57.86 C 739.96 56.66 740.35 54.90 740.24 53.38 C 746.16 52.96 752.14 53.63 758.03 52.65 C 762.48 52.32 766.29 49.10 768.15 45.15 C 772.29 36.81 768.62 24.36 758.73 22.40 C 751.01 21.89 743.25 22.35 735.52 22.19 C 735.47 47.16 735.58 72.13 735.47 97.10 C 735.75 99.99 732.26 100.77 730.03 100.52 C 725.21 100.19 720.10 101.41 715.55 99.39 C 715.21 70.60 715.50 41.81 715.40 13.03 C 715.48 9.63 715.10 6.18 715.69 2.81 Z" />
<path fill="#0e0048" opacity="1.00" d=" M 792.76 5.94 C 792.47 3.51 794.45 1.12 797.03 1.54 C 818.70 1.48 840.37 1.51 862.04 1.53 C 864.61 1.05 866.34 3.60 866.16 5.92 C 865.98 11.07 866.79 16.35 865.42 21.39 C 856.90 22.93 848.13 21.76 839.50 22.16 C 839.43 47.88 839.69 73.60 839.37 99.32 C 834.91 101.52 829.78 100.13 825.01 100.52 C 822.66 100.83 819.04 100.19 819.39 97.09 C 819.29 72.04 819.42 47.00 819.33 21.95 C 813.89 22.24 808.44 22.19 803.01 21.98 C 799.84 22.04 796.64 22.26 793.55 21.45 C 792.02 16.43 793.00 11.09 792.76 5.94 Z" />
<path fill="#0e0048" opacity="1.00" d=" M 95.36 80.11 C 112.94 79.94 130.52 80.10 148.10 79.94 C 149.73 79.98 151.94 80.88 151.66 82.89 C 151.71 88.14 151.88 93.42 151.55 98.66 C 150.41 100.60 147.95 100.49 146.00 100.52 C 129.13 100.48 112.26 100.48 95.39 100.52 C 95.34 93.72 95.38 86.91 95.36 80.11 Z" />
</g>
<g id="#ffffffff">
<path fill="#ffffff" opacity="1.00" d=" M 937.02 19.93 C 942.77 15.83 950.39 15.12 957.18 16.43 C 964.14 17.67 970.23 23.03 972.10 29.88 C 974.52 38.16 971.87 47.15 966.93 53.98 C 962.64 59.94 958.21 65.79 953.82 71.68 C 960.68 71.74 967.54 71.81 974.41 71.64 C 976.60 75.31 975.19 79.87 975.51 83.93 C 975.90 86.00 973.57 86.71 971.94 86.42 C 957.99 86.25 944.01 86.67 930.08 86.21 C 927.85 84.22 928.63 80.51 930.38 78.44 C 936.85 69.87 943.29 61.28 949.74 52.69 C 953.43 47.33 959.46 42.05 958.17 34.86 C 956.55 28.69 946.36 28.25 944.20 34.22 C 943.18 37.19 943.53 40.44 942.45 43.41 C 938.17 43.43 933.89 43.45 929.62 43.35 C 927.98 35.07 929.89 25.19 937.02 19.93 Z" />
</g>
</svg>
