<?xml version="1.0" encoding="UTF-8" standalone="yes"?>
<svg xmlns="http://www.w3.org/2000/svg" xmlns:xlink="http://www.w3.org/1999/xlink" width="482.66666666666663px" height="106.66666666666666px" viewBox="0 0 362 80" version="1.1">
  <g id="surface1">
    <path style=" stroke:none;fill-rule:nonzero;fill:rgb(85.882353%,86.666667%,86.27451%);fill-opacity:1;" d="M 354.519531 14.945312 C 333.867188 30.464844 322.996094 46.269531 317.03125 54.957031 C 315.226562 57.589844 313.355469 60.296875 312.632812 60.757812 L 312.257812 60.84375 L 311.722656 57.476562 L 311.6875 56.777344 L 311.6875 56.71875 C 311.589844 55.945312 311.535156 55.027344 311.535156 53.992188 C 311.535156 46.804688 313.644531 34.15625 315.074219 25.410156 C 315.75 21.375 316.191406 18.742188 316.382812 17.078125 C 317.773438 16.914062 319.941406 16.839844 321.546875 16.925781 C 318.871094 23.039062 314.605469 36.683594 314.605469 44.058594 C 314.605469 45.859375 314.863281 47.285156 315.445312 48.125 L 316.992188 50.316406 L 322.917969 43.417969 C 328.816406 36.53125 344.375 18.320312 346.625 16.714844 C 347.992188 16.082031 351.742188 15.25 354.519531 14.945312 M 344.765625 12.964844 C 343.332031 13.632812 339.078125 18.109375 319.769531 40.703125 L 318.871094 41.734375 C 319.808594 34.414062 323.988281 20.148438 326.296875 16.65625 L 327.042969 15.546875 L 326.34375 14.390625 C 325.792969 13.527344 324.847656 12.675781 319.769531 12.714844 C 319.007812 12.714844 315.074219 12.78125 313.566406 13.46875 L 312.296875 14.042969 L 312.355469 15.449219 C 312.375 16.273438 311.667969 20.570312 310.96875 24.730469 C 309.1875 35.574219 306.722656 50.421875 307.542969 57.226562 L 307.523438 57.09375 L 307.5625 57.667969 C 307.660156 59.734375 307.792969 62.871094 309.949219 64.335938 C 310.730469 64.871094 312.085938 65.378906 314.0625 64.679688 C 315.820312 64.078125 317.382812 61.820312 320.464844 57.320312 C 326.59375 48.386719 338.019531 31.753906 360.253906 15.890625 L 360.921875 15.421875 L 361.085938 14.617188 C 361.324219 13.460938 360.921875 12.351562 360.015625 11.625 C 356.789062 9.078125 346.035156 12.351562 344.765625 12.964844 "/>
    <path style=" stroke:none;fill-rule:nonzero;fill:rgb(85.882353%,86.666667%,86.27451%);fill-opacity:1;" d="M 354.519531 14.945312 L 355.300781 15.988281 C 334.8125 31.390625 324.054688 47.027344 318.101562 55.695312 C 317.203125 57.015625 316.277344 58.355469 315.476562 59.445312 C 314.625 60.566406 314.101562 61.320312 313.328125 61.859375 L 313.136719 61.980469 L 312.554688 62.117188 L 311.191406 62.429688 L 310.4375 57.675781 L 310.425781 57.617188 L 310.386719 56.84375 L 310.378906 56.816406 L 310.378906 56.71875 L 311.6875 56.71875 L 310.398438 56.882812 C 310.292969 56.039062 310.226562 55.074219 310.226562 53.992188 C 310.234375 46.597656 312.355469 33.964844 313.785156 25.199219 C 314.464844 21.164062 314.902344 18.53125 315.082031 16.925781 L 315.207031 15.902344 L 316.230469 15.777344 C 317.296875 15.652344 318.730469 15.585938 320.074219 15.585938 L 321.613281 15.625 L 323.492188 15.71875 L 322.738281 17.449219 C 320.125 23.375 315.875 37.105469 315.90625 44.058594 C 315.894531 45.734375 316.199219 46.96875 316.515625 47.378906 L 316.507812 47.371094 L 317.097656 48.203125 L 321.9375 42.566406 C 324.875 39.121094 330.25 32.847656 335.164062 27.230469 C 337.617188 24.417969 339.964844 21.765625 341.84375 19.707031 C 343.753906 17.640625 345.0625 16.253906 345.871094 15.652344 L 345.96875 15.574219 L 346.082031 15.527344 C 347.773438 14.773438 351.445312 13.988281 354.375 13.640625 L 359.109375 13.125 L 355.300781 15.988281 L 354.519531 14.945312 L 354.664062 16.246094 C 352.039062 16.511719 348.210938 17.394531 347.171875 17.902344 L 346.625 16.714844 L 347.378906 17.777344 C 347.066406 17.988281 345.585938 19.46875 343.761719 21.480469 C 338.191406 27.5625 328.332031 39.105469 323.910156 44.269531 L 316.886719 52.433594 L 314.386719 48.882812 L 314.378906 48.875 C 313.527344 47.601562 313.316406 45.984375 313.300781 44.058594 C 313.335938 36.261719 317.621094 22.703125 320.351562 16.398438 L 321.546875 16.925781 L 321.476562 18.226562 L 320.074219 18.195312 C 318.824219 18.195312 317.460938 18.265625 316.535156 18.378906 L 316.382812 17.078125 L 317.679688 17.230469 C 317.480469 18.953125 317.039062 21.585938 316.363281 25.632812 C 314.929688 34.359375 312.832031 47.027344 312.832031 53.992188 C 312.832031 54.976562 312.890625 55.847656 312.976562 56.554688 L 312.984375 56.644531 L 312.984375 56.738281 L 313.023438 57.332031 L 313.546875 60.640625 L 312.257812 60.84375 L 311.964844 59.570312 L 312.335938 59.484375 L 312.632812 60.757812 L 311.933594 59.65625 L 311.945312 59.648438 C 312.429688 59.273438 314.3125 56.644531 315.953125 54.222656 C 321.9375 45.515625 332.921875 29.535156 353.738281 13.902344 L 354.519531 14.945312 L 354.664062 16.246094 Z M 344.765625 12.964844 L 345.320312 14.148438 C 345.070312 14.207031 343.523438 15.5 339.9375 19.488281 C 336.300781 23.496094 330.410156 30.261719 320.761719 41.554688 L 320.773438 41.542969 L 319.855469 42.597656 L 317.03125 45.839844 L 317.585938 41.574219 C 318.070312 37.785156 319.359375 32.359375 320.820312 27.390625 C 322.308594 22.398438 323.875 17.996094 325.210938 15.9375 L 325.496094 15.507812 L 325.230469 15.066406 L 326.34375 14.390625 L 325.25 15.097656 L 324.390625 14.464844 C 323.730469 14.234375 322.414062 14.015625 320.09375 14.015625 L 319.78125 14.023438 C 319.417969 14.015625 318.261719 14.035156 317.050781 14.140625 C 315.855469 14.214844 314.519531 14.445312 314.109375 14.65625 L 313.632812 14.875 L 313.652344 15.394531 L 313.652344 15.433594 L 313.660156 15.488281 C 313.644531 16.722656 312.945312 20.78125 312.257812 24.953125 C 310.710938 34.289062 308.679688 46.664062 308.679688 54.03125 C 308.679688 55.1875 308.738281 56.210938 308.832031 57.074219 L 306.253906 57.40625 L 306.238281 57.273438 L 307.523438 57.09375 L 308.824219 57.007812 L 308.859375 57.582031 L 308.859375 57.609375 C 308.917969 59.703125 309.234375 62.382812 310.683594 63.253906 L 312.21875 63.714844 L 313.632812 63.445312 L 313.644531 63.445312 C 314.664062 63.195312 316.351562 61.109375 319.386719 56.585938 C 325.535156 47.628906 337.082031 30.808594 359.5 14.828125 L 359.75 14.648438 L 359.808594 14.359375 L 359.855469 13.96875 L 359.207031 12.648438 L 359.214844 12.648438 C 358.777344 12.265625 357.5625 11.957031 356.035156 11.976562 C 354.003906 11.96875 351.484375 12.40625 349.394531 12.914062 C 347.332031 13.414062 345.566406 14.015625 345.328125 14.140625 L 345.320312 14.148438 L 344.765625 12.964844 L 344.203125 11.785156 C 344.890625 11.46875 346.550781 10.925781 348.785156 10.378906 C 350.996094 9.84375 353.652344 9.367188 356.035156 9.367188 C 357.820312 9.375 359.5 9.585938 360.816406 10.601562 L 360.828125 10.601562 C 361.859375 11.421875 362.460938 12.667969 362.460938 13.96875 L 362.363281 14.886719 L 362.203125 15.679688 L 362.097656 16.195312 L 361 16.960938 C 338.953125 32.703125 327.652344 49.140625 321.535156 58.058594 C 318.414062 62.527344 316.972656 64.957031 314.484375 65.914062 L 314.492188 65.914062 L 312.21875 66.324219 C 310.914062 66.324219 309.890625 65.875 309.214844 65.417969 C 306.351562 63.359375 306.398438 59.761719 306.265625 57.722656 L 307.5625 57.667969 L 306.265625 57.753906 L 306.226562 57.179688 L 308.8125 56.910156 L 308.832031 57.042969 L 307.542969 57.226562 L 306.246094 57.378906 C 306.132812 56.382812 306.074219 55.265625 306.074219 54.03125 C 306.082031 46.25 308.144531 33.898438 309.683594 24.523438 C 310.371094 20.464844 311.066406 16.054688 311.054688 15.488281 L 311.046875 15.46875 L 312.355469 15.449219 L 311.054688 15.507812 L 311 14.101562 L 310.960938 13.222656 L 313.03125 12.285156 C 314.121094 11.804688 315.503906 11.652344 316.839844 11.527344 C 318.167969 11.421875 319.359375 11.414062 319.769531 11.414062 L 320.09375 11.402344 C 322.566406 11.414062 324.113281 11.613281 325.25 12.007812 C 326.375 12.371094 327.109375 13.125 327.441406 13.679688 L 327.453125 13.699219 L 328.160156 14.875 L 328.589844 15.585938 L 327.375 17.382812 L 327.386719 17.375 C 326.414062 18.808594 324.734375 23.289062 323.320312 28.128906 C 321.878906 33 320.609375 38.367188 320.160156 41.898438 L 318.871094 41.734375 L 317.890625 40.875 L 318.785156 39.839844 L 318.777344 39.859375 L 318.777344 39.851562 C 328.4375 28.550781 334.332031 21.785156 338.007812 17.738281 C 341.730469 13.671875 343.027344 12.390625 344.210938 11.777344 L 344.765625 12.964844 L 344.203125 11.785156 Z M 344.765625 12.964844 "/>
    <path style=" stroke:none;fill-rule:nonzero;fill:rgb(85.882353%,86.666667%,86.27451%);fill-opacity:1;" d="M 298.375 5.722656 L 298.46875 5.722656 C 308.558594 5.5 322.996094 5.378906 327.28125 5.675781 L 327.300781 6.804688 L 327.273438 9.023438 L 327.265625 9.558594 C 324.085938 9.65625 311.296875 10.046875 311.296875 10.046875 L 310.6875 10.832031 C 309.914062 11.863281 292.132812 35.441406 290.824219 60.53125 C 289.945312 60.519531 289.050781 60.492188 288.335938 60.453125 C 288.199219 59.707031 288.066406 58.566406 288.066406 57.007812 C 288.066406 55 288.285156 52.292969 289.019531 48.796875 C 290.976562 39.363281 302.851562 14.628906 304.003906 12.800781 L 303.710938 13.15625 L 306.316406 10.230469 L 302.601562 9.511719 C 301.828125 9.425781 299.101562 9.445312 292.09375 9.53125 C 289.976562 9.558594 287.476562 9.585938 284.917969 9.617188 L 285.539062 8.753906 L 284.289062 7.511719 C 283.859375 7.082031 283.636719 6.859375 282.511719 6.878906 C 281.863281 6.839844 280.363281 6.71875 278.5625 6.542969 L 278.371094 5.472656 C 284.230469 5.464844 292.191406 5.570312 298.375 5.722656 M 269.429688 3.769531 L 256.144531 7.933594 L 267.472656 11.578125 L 292.152344 13.710938 C 292.152344 13.710938 297.007812 13.636719 298.898438 13.625 C 296.65625 18.101562 293.515625 25.105469 293.34375 25.527344 C 290.136719 32.703125 286.089844 42.4375 284.9375 47.9375 C 284.152344 51.734375 283.894531 54.730469 283.894531 57.035156 C 283.894531 61.074219 284.679688 63 284.820312 63.3125 L 285.328125 64.453125 L 286.578125 64.527344 C 286.730469 64.539062 290.511719 64.804688 292.953125 64.664062 L 294.890625 64.546875 L 294.910156 62.605469 C 295.242188 40.617188 310.285156 18.542969 313.425781 14.171875 C 315.230469 14.113281 331.996094 13.585938 331.996094 13.585938 L 331.425781 11.203125 L 331.425781 10.6875 L 331.445312 9.109375 C 331.464844 8.21875 331.464844 7.464844 331.464844 6.8125 C 331.464844 4.5625 331.339844 3.558594 330.929688 2.851562 C 330.195312 1.570312 330.003906 1.226562 313.570312 1.339844 C 306.210938 1.386719 298.84375 1.53125 298.414062 1.539062 L 284.488281 1.3125 C 269.609375 1.175781 269.429688 3.769531 269.429688 3.769531 "/>
    <path style=" stroke:none;fill-rule:nonzero;fill:rgb(85.882353%,86.666667%,86.27451%);fill-opacity:1;" d="M 298.375 5.722656 L 298.375 4.410156 L 298.46875 4.410156 L 298.46875 5.722656 L 298.441406 4.421875 C 304.292969 4.285156 311.601562 4.191406 317.566406 4.191406 C 321.898438 4.191406 325.488281 4.238281 327.367188 4.371094 L 328.5625 4.449219 L 328.601562 6.785156 L 328.601562 6.804688 L 328.570312 9.042969 L 328.570312 9.070312 L 328.5625 9.578125 L 328.542969 10.832031 L 327.300781 10.859375 C 324.125 10.957031 311.355469 11.347656 311.335938 11.347656 L 311.296875 10.046875 L 312.328125 10.851562 L 311.71875 11.636719 L 310.6875 10.832031 L 311.726562 11.617188 C 310.992188 12.5625 293.375 36.0625 292.125 60.597656 L 292.054688 61.851562 L 290.816406 61.839844 C 289.917969 61.820312 289.003906 61.792969 288.265625 61.753906 L 287.238281 61.707031 L 287.054688 60.683594 C 286.902344 59.859375 286.757812 58.644531 286.757812 57.007812 C 286.757812 54.902344 287 52.101562 287.742188 48.53125 C 289.84375 38.664062 301.589844 14.246094 302.90625 12.105469 L 304.003906 12.800781 L 305.007812 13.644531 L 304.710938 14 L 303.710938 13.15625 L 302.734375 12.285156 L 303.816406 11.082031 L 302.355469 10.792969 L 302.601562 9.511719 L 302.460938 10.8125 C 302.25 10.785156 301.503906 10.765625 300.207031 10.765625 C 298.566406 10.765625 295.996094 10.792969 292.113281 10.832031 C 289.996094 10.859375 287.496094 10.890625 284.9375 10.925781 L 282.351562 10.957031 L 283.828125 8.898438 L 283.371094 8.4375 L 283.152344 8.230469 L 282.644531 8.179688 L 282.53125 8.179688 L 282.484375 8.191406 L 282.4375 8.179688 C 281.75 8.144531 280.25 8.019531 278.4375 7.847656 L 277.453125 7.75 L 277.089844 5.703125 L 276.816406 4.171875 L 278.371094 4.171875 L 279.125 4.164062 C 284.917969 4.164062 292.464844 4.265625 298.402344 4.421875 L 298.375 5.722656 L 298.375 4.410156 L 298.375 5.722656 L 298.347656 7.023438 C 292.429688 6.878906 284.878906 6.773438 279.125 6.773438 L 278.371094 6.785156 L 278.371094 5.472656 L 279.648438 5.242188 L 279.839844 6.316406 L 278.5625 6.542969 L 278.683594 5.242188 C 280.480469 5.414062 281.976562 5.539062 282.589844 5.578125 L 282.511719 6.878906 L 282.492188 5.578125 L 282.644531 5.570312 C 283.78125 5.464844 284.890625 6.132812 285.203125 6.582031 L 286.453125 7.828125 L 287.246094 8.613281 L 285.976562 10.382812 L 284.917969 9.617188 L 284.898438 8.316406 C 287.457031 8.285156 289.957031 8.257812 292.074219 8.230469 C 295.96875 8.179688 298.535156 8.152344 300.207031 8.152344 C 301.542969 8.152344 302.269531 8.160156 302.746094 8.210938 L 302.804688 8.21875 L 306.5625 8.945312 L 308.816406 9.378906 L 304.683594 14.027344 L 302.707031 12.316406 L 303.003906 11.960938 L 305.101562 13.5 C 304.109375 15.011719 292.113281 40.0625 290.300781 49.066406 C 289.574219 52.484375 289.375 55.09375 289.363281 57.007812 C 289.363281 58.492188 289.5 59.554688 289.613281 60.222656 L 288.335938 60.453125 L 288.402344 59.152344 L 290.835938 59.226562 L 290.824219 60.53125 L 289.527344 60.460938 C 290.890625 34.820312 308.835938 11.167969 309.644531 10.046875 L 309.65625 10.039062 L 310.265625 9.242188 L 310.648438 8.765625 L 311.257812 8.746094 C 311.257812 8.746094 324.046875 8.351562 327.226562 8.257812 L 327.265625 9.558594 L 325.964844 9.539062 L 325.976562 9.003906 L 325.976562 8.976562 L 325.996094 6.804688 L 325.984375 5.691406 L 327.28125 5.675781 L 327.195312 6.976562 C 325.46875 6.859375 321.863281 6.804688 317.566406 6.804688 C 311.632812 6.804688 304.328125 6.898438 298.5 7.023438 L 298.488281 7.03125 L 298.355469 7.03125 L 298.347656 7.023438 Z M 269.429688 3.769531 L 269.820312 5.015625 L 260.457031 7.953125 L 267.730469 10.285156 L 292.265625 12.410156 L 292.152344 13.710938 L 292.132812 12.410156 C 292.132812 12.410156 296.992188 12.332031 298.890625 12.316406 L 301.019531 12.304688 L 300.0625 14.210938 C 297.847656 18.628906 294.679688 25.691406 294.546875 26.027344 L 294.539062 26.046875 L 294.539062 26.0625 C 291.339844 33.191406 287.304688 42.953125 286.214844 48.207031 C 285.441406 51.925781 285.195312 54.828125 285.195312 57.035156 C 285.203125 60.902344 285.949219 62.632812 286.003906 62.777344 L 286.195312 63.199219 L 286.65625 63.226562 C 286.789062 63.238281 289.136719 63.398438 291.285156 63.398438 L 292.878906 63.363281 L 293.601562 63.3125 L 293.601562 62.597656 L 293.613281 62.585938 C 293.992188 40.035156 309.179688 17.882812 312.367188 13.40625 L 312.738281 12.886719 L 313.386719 12.871094 C 315.191406 12.8125 331.960938 12.285156 331.960938 12.285156 L 331.996094 13.585938 L 330.726562 13.894531 L 330.15625 11.511719 L 330.117188 11.359375 L 330.117188 10.679688 L 330.136719 9.089844 L 330.144531 9.082031 C 330.15625 8.210938 330.15625 7.464844 330.15625 6.8125 C 330.175781 4.582031 329.992188 3.789062 329.800781 3.511719 L 329.613281 3.214844 C 329.542969 3.015625 327.160156 2.5625 318.730469 2.621094 C 317.214844 2.621094 315.515625 2.632812 313.578125 2.640625 C 306.230469 2.6875 298.859375 2.832031 298.441406 2.84375 L 298.414062 2.851562 L 284.488281 2.621094 L 284.476562 2.613281 L 283.390625 2.613281 C 276.574219 2.613281 273.1875 3.234375 271.660156 3.769531 L 270.59375 4.316406 L 270.371094 4.09375 L 270.640625 4.21875 L 270.59375 4.316406 L 270.371094 4.09375 L 270.640625 4.21875 L 269.734375 3.789062 L 270.726562 3.867188 L 270.640625 4.21875 L 269.734375 3.789062 L 270.726562 3.867188 L 270.667969 4.746094 L 269.820312 5.015625 L 269.429688 3.769531 L 268.128906 3.675781 C 268.167969 2.976562 268.84375 1.953125 270.8125 1.300781 C 272.824219 0.613281 276.414062 0 283.390625 0 L 284.496094 0.0078125 L 284.507812 0.0078125 L 298.433594 0.238281 L 298.414062 1.539062 L 298.382812 0.238281 C 298.824219 0.230469 306.191406 0.0859375 313.558594 0.0390625 C 315.496094 0.0195312 317.214844 0.0078125 318.730469 0.0078125 C 324.410156 0.0195312 327.300781 0.105469 329.03125 0.375 C 329.898438 0.507812 330.527344 0.6875 331.070312 1.050781 L 332.054688 2.199219 C 332.683594 3.328125 332.75 4.546875 332.761719 6.8125 C 332.761719 7.464844 332.761719 8.230469 332.742188 9.136719 L 332.75 9.109375 L 332.722656 10.707031 L 331.425781 10.6875 L 332.722656 10.6875 L 332.722656 11.050781 L 333.265625 13.28125 L 333.640625 14.839844 L 332.035156 14.886719 C 332.015625 14.886719 315.265625 15.414062 313.464844 15.472656 L 313.425781 14.171875 L 314.484375 14.9375 C 311.382812 19.203125 296.496094 41.203125 296.207031 62.625 L 296.1875 64.558594 L 296.179688 65.78125 L 293.03125 65.964844 L 291.285156 66.011719 C 289.019531 66.011719 286.605469 65.839844 286.492188 65.832031 L 285.25 65.753906 L 284.460938 65.707031 L 283.628906 63.851562 L 283.636719 63.859375 L 283.636719 63.851562 C 283.410156 63.363281 282.589844 61.246094 282.589844 57.035156 C 282.589844 54.636719 282.867188 51.542969 283.65625 47.667969 C 284.878906 41.917969 288.933594 32.214844 292.152344 24.992188 L 293.34375 25.527344 L 292.140625 25.03125 C 292.351562 24.523438 295.464844 17.578125 297.734375 13.042969 L 298.898438 13.625 L 298.910156 14.9375 C 297.027344 14.9375 292.179688 15.011719 292.171875 15.011719 L 292.105469 15.023438 L 267.214844 12.871094 L 251.828125 7.914062 L 269.035156 2.527344 L 269.429688 3.769531 L 268.128906 3.675781 Z M 269.429688 3.769531 "/>
    <path style=" stroke:none;fill-rule:nonzero;fill:rgb(85.882353%,86.666667%,86.27451%);fill-opacity:1;" d="M 271.8125 16.757812 C 272.554688 16.804688 284.839844 17.753906 285.753906 31.703125 C 284.621094 44.707031 273.109375 46.1875 272.613281 46.246094 L 269.140625 46.640625 L 271.144531 49.527344 C 271.144531 49.527344 282.988281 66.472656 286.441406 71.460938 L 279.886719 71.460938 C 278.722656 69.863281 258.613281 42.277344 258.613281 42.277344 L 258.613281 71.546875 L 252.199219 71.546875 L 252.199219 16.757812 Z M 271.886719 12.585938 L 248.039062 12.585938 L 248.039062 75.707031 L 262.78125 75.707031 L 262.78125 55.058594 C 267.507812 61.546875 277.757812 75.621094 277.757812 75.621094 L 294.441406 75.621094 C 294.441406 75.621094 279.101562 53.644531 276.289062 49.613281 C 280.886719 48.082031 288.972656 43.757812 289.917969 31.875 L 289.925781 31.730469 L 289.917969 31.597656 C 288.867188 13.582031 272.144531 12.59375 271.984375 12.585938 Z M 271.886719 12.585938 "/>
    <path style=" stroke:none;fill-rule:nonzero;fill:rgb(85.882353%,86.666667%,86.27451%);fill-opacity:1;" d="M 271.8125 16.757812 L 271.898438 15.457031 C 272.375 15.492188 275.828125 15.742188 279.390625 17.894531 C 282.96875 20.03125 286.59375 24.25 287.054688 31.617188 L 287.0625 31.710938 L 287.054688 31.816406 C 286.472656 38.707031 282.996094 42.773438 279.65625 44.925781 C 276.308594 47.097656 273.128906 47.5 272.765625 47.546875 L 271.457031 47.691406 L 272.210938 48.78125 C 272.210938 48.78125 284.054688 65.726562 287.511719 70.714844 L 288.933594 72.769531 L 279.226562 72.769531 L 278.835938 72.234375 C 277.671875 70.636719 257.582031 43.078125 257.5625 43.050781 L 258.613281 42.277344 L 259.910156 42.277344 L 259.910156 72.855469 L 250.890625 72.855469 L 250.890625 15.457031 L 271.898438 15.457031 L 271.8125 16.757812 L 271.8125 18.066406 L 253.496094 18.066406 L 253.496094 70.242188 L 257.304688 70.242188 L 257.304688 38.277344 L 259.664062 41.5 C 259.664062 41.5 279.769531 69.085938 280.9375 70.683594 L 279.886719 71.460938 L 279.886719 70.15625 L 286.441406 70.15625 L 286.441406 71.460938 L 285.375 72.207031 C 281.917969 67.21875 270.09375 50.304688 270.074219 50.273438 L 268.070312 47.386719 L 266.820312 45.585938 L 272.46875 44.945312 C 272.59375 44.9375 275.417969 44.570312 278.234375 42.734375 C 281.050781 40.878906 283.902344 37.703125 284.457031 31.589844 L 285.753906 31.703125 L 284.457031 31.789062 C 284 25.207031 281.03125 21.972656 278.042969 20.132812 C 275.054688 18.316406 271.992188 18.066406 271.726562 18.058594 L 271.8125 16.757812 L 271.8125 18.066406 Z M 271.886719 12.585938 L 271.886719 13.894531 L 249.335938 13.894531 L 249.335938 74.40625 L 261.476562 74.40625 L 261.476562 51.058594 L 263.832031 54.292969 C 268.558594 60.78125 278.796875 74.828125 278.808594 74.855469 L 277.757812 75.621094 L 277.757812 74.320312 L 294.441406 74.320312 L 294.441406 75.621094 L 293.371094 76.367188 C 293.351562 76.347656 278.035156 54.390625 275.21875 50.359375 L 274.214844 48.925781 L 275.878906 48.371094 C 280.25 46.867188 287.703125 43.003906 288.617188 31.769531 L 289.917969 31.875 L 288.617188 31.789062 L 288.617188 31.675781 C 288.085938 23.082031 284.007812 18.84375 279.972656 16.46875 C 275.925781 14.125 271.90625 13.894531 271.90625 13.886719 L 271.984375 12.585938 L 271.984375 13.894531 L 271.886719 13.894531 L 271.886719 11.285156 L 272.058594 11.285156 C 272.25 11.292969 276.652344 11.550781 281.269531 14.203125 C 285.890625 16.832031 290.699219 22.097656 291.214844 31.519531 L 289.917969 31.597656 L 291.214844 31.5 L 291.222656 31.636719 L 291.234375 31.730469 L 291.214844 31.960938 L 291.214844 31.980469 C 290.242188 44.515625 281.527344 49.300781 276.699219 50.859375 L 276.289062 49.613281 L 277.355469 48.867188 C 280.171875 52.898438 295.507812 74.875 295.507812 74.875 L 296.941406 76.933594 L 277.097656 76.933594 L 276.707031 76.386719 C 276.707031 76.386719 266.457031 62.320312 261.734375 55.824219 L 262.78125 55.058594 L 264.082031 55.058594 L 264.082031 77.019531 L 246.730469 77.019531 L 246.730469 11.285156 L 271.886719 11.285156 Z M 271.886719 12.585938 "/>
    <path style=" stroke:none;fill-rule:nonzero;fill:rgb(85.882353%,86.666667%,86.27451%);fill-opacity:1;" d="M 268.792969 27.046875 C 269.707031 26.949219 272.410156 27.007812 273.972656 28.414062 C 274.890625 29.226562 275.339844 30.433594 275.359375 32.085938 C 275.367188 33.703125 274.957031 34.871094 274.078125 35.65625 C 272.496094 37.082031 269.574219 37.074219 268.589844 36.949219 L 268.476562 36.929688 L 262.789062 36.929688 C 262.769531 34.433594 262.769531 29.550781 262.769531 27.046875 C 265.023438 27.046875 268.667969 27.054688 268.667969 27.054688 Z M 268.476562 22.882812 L 258.609375 22.863281 L 258.628906 41.101562 L 268.210938 41.101562 C 269.203125 41.214844 273.734375 41.550781 276.828125 38.804688 C 278.078125 37.683594 279.566406 35.617188 279.527344 32.039062 C 279.492188 29.167969 278.535156 26.882812 276.714844 25.265625 C 273.699219 22.585938 269.328125 22.824219 268.476562 22.882812 "/>
    <path style=" stroke:none;fill-rule:nonzero;fill:rgb(85.882353%,86.666667%,86.27451%);fill-opacity:1;" d="M 268.792969 27.046875 L 268.660156 25.742188 L 269.449219 25.707031 C 270.824219 25.734375 273.085938 25.917969 274.84375 27.4375 C 276.101562 28.546875 276.65625 30.210938 276.65625 32.070312 L 276.664062 32.105469 L 276.65625 32.078125 L 276.65625 32.144531 C 276.675781 33.933594 276.167969 35.550781 274.949219 36.632812 C 273.238281 38.105469 271.015625 38.277344 269.546875 38.308594 L 268.429688 38.242188 L 261.5 38.242188 L 261.480469 36.9375 C 261.460938 34.433594 261.460938 29.550781 261.460938 27.046875 L 261.460938 25.734375 L 262.769531 25.734375 C 265.023438 25.734375 268.667969 25.753906 268.667969 25.753906 L 268.667969 27.054688 L 268.5625 25.753906 L 268.6875 25.742188 L 268.792969 27.046875 L 268.660156 25.742188 L 268.792969 27.046875 L 268.898438 28.347656 L 268.773438 28.355469 L 268.714844 28.367188 L 268.667969 28.367188 C 268.660156 28.367188 265.023438 28.355469 262.769531 28.355469 L 262.769531 27.046875 L 264.066406 27.046875 C 264.066406 29.550781 264.066406 34.433594 264.085938 36.917969 L 262.789062 36.929688 L 262.789062 35.617188 L 268.582031 35.617188 L 268.800781 35.65625 L 268.589844 36.949219 L 268.753906 35.65625 L 269.546875 35.695312 C 270.699219 35.722656 272.484375 35.398438 273.210938 34.679688 C 273.726562 34.210938 274.042969 33.53125 274.050781 32.144531 L 274.050781 32.097656 L 274.050781 32.105469 C 274.023438 30.652344 273.679688 29.90625 273.117188 29.390625 C 272.304688 28.605469 270.492188 28.296875 269.449219 28.316406 L 268.925781 28.347656 L 268.898438 28.347656 Z M 268.476562 22.882812 L 268.476562 24.195312 L 259.917969 24.175781 L 259.925781 39.800781 L 268.363281 39.800781 L 269.652344 39.867188 C 271.351562 39.875 274.097656 39.511719 275.960938 37.828125 C 276.980469 36.890625 278.210938 35.292969 278.230469 32.175781 L 278.222656 32.050781 L 278.230469 32.058594 C 278.183594 29.457031 277.371094 27.601562 275.855469 26.242188 C 273.878906 24.460938 270.941406 24.144531 269.414062 24.15625 L 268.5625 24.183594 L 268.515625 24.195312 L 268.476562 24.195312 L 268.476562 22.882812 L 268.390625 21.582031 L 269.414062 21.542969 C 271.214844 21.554688 274.765625 21.820312 277.582031 24.289062 C 279.699219 26.164062 280.796875 28.882812 280.828125 32.019531 L 280.828125 32.039062 L 280.828125 32.03125 L 280.835938 32.175781 C 280.847656 36.050781 279.148438 38.507812 277.695312 39.78125 C 275.015625 42.132812 271.65625 42.46875 269.652344 42.480469 L 268.058594 42.402344 L 268.210938 41.101562 L 268.210938 42.402344 L 257.328125 42.402344 L 257.300781 21.554688 L 268.476562 21.570312 L 268.476562 22.882812 L 268.390625 21.582031 Z M 268.476562 22.882812 "/>
    <path style=" stroke:none;fill-rule:nonzero;fill:rgb(85.882353%,86.666667%,86.27451%);fill-opacity:1;" d="M 246.5625 16.933594 L 246.5625 22.503906 L 222.714844 22.503906 L 222.714844 41.019531 L 246.316406 41.019531 L 246.316406 46.5 L 222.628906 46.5 L 222.628906 65.886719 L 246.648438 65.886719 L 246.648438 71.714844 L 216.289062 71.714844 C 216.289062 67.972656 216.222656 20.683594 216.214844 16.933594 Z M 248.644531 12.761719 L 212.050781 12.761719 L 212.148438 75.882812 L 250.808594 75.882812 L 250.808594 61.714844 L 226.796875 61.714844 L 226.796875 50.671875 L 250.46875 50.671875 L 250.46875 36.847656 L 226.875 36.847656 L 226.875 26.675781 L 250.734375 26.675781 L 250.734375 12.761719 Z M 248.644531 12.761719 "/>
    <path style=" stroke:none;fill-rule:nonzero;fill:rgb(85.882353%,86.666667%,86.27451%);fill-opacity:1;" d="M 246.574219 16.933594 L 247.878906 16.933594 L 247.878906 23.8125 L 224.019531 23.8125 L 224.019531 39.71875 L 247.632812 39.71875 L 247.632812 47.8125 L 223.933594 47.8125 L 223.933594 64.585938 L 247.957031 64.585938 L 247.957031 73.023438 L 214.992188 73.023438 L 214.992188 71.714844 C 214.992188 67.972656 214.925781 20.683594 214.925781 16.933594 L 214.914062 15.625 L 247.878906 15.625 L 247.878906 16.933594 L 246.574219 16.933594 L 246.574219 18.246094 L 216.222656 18.246094 L 216.222656 16.933594 L 217.519531 16.933594 C 217.539062 20.683594 217.597656 67.972656 217.597656 71.714844 L 216.300781 71.714844 L 216.300781 70.414062 L 245.351562 70.414062 L 245.351562 67.195312 L 221.328125 67.195312 L 221.328125 45.199219 L 245.015625 45.199219 L 245.015625 42.328125 L 221.425781 42.328125 L 221.425781 21.191406 L 245.265625 21.191406 L 245.265625 16.933594 L 246.574219 16.933594 L 246.574219 18.246094 Z M 248.652344 12.761719 L 248.652344 14.074219 L 213.367188 14.074219 L 213.453125 74.582031 L 249.519531 74.582031 L 249.519531 63.015625 L 225.5 63.015625 L 225.5 49.363281 L 249.167969 49.363281 L 249.167969 38.15625 L 225.574219 38.148438 L 225.574219 25.375 L 249.4375 25.375 L 249.4375 14.074219 L 248.652344 14.074219 L 248.652344 11.460938 L 252.050781 11.460938 L 252.050781 27.984375 L 228.179688 27.984375 L 228.179688 35.546875 L 251.785156 35.546875 L 251.785156 51.984375 L 228.105469 51.984375 L 228.105469 60.414062 L 252.117188 60.414062 L 252.117188 77.195312 L 210.859375 77.195312 L 210.753906 11.460938 L 248.652344 11.460938 Z M 248.652344 12.761719 "/>
    <path style=" stroke:none;fill-rule:nonzero;fill:rgb(85.882353%,86.666667%,86.27451%);fill-opacity:1;" d="M 186.121094 16.757812 L 186.121094 66.675781 L 209.789062 66.675781 L 209.789062 71.460938 L 179.6875 71.460938 L 179.6875 16.757812 Z M 188.203125 12.585938 L 175.539062 12.585938 L 175.539062 75.621094 L 213.953125 75.621094 L 213.953125 62.492188 L 190.28125 62.492188 L 190.28125 12.585938 Z M 188.203125 12.585938 "/>
    <path style=" stroke:none;fill-rule:nonzero;fill:rgb(85.882353%,86.666667%,86.27451%);fill-opacity:1;" d="M 186.121094 16.757812 L 187.417969 16.757812 L 187.417969 65.375 L 211.089844 65.375 L 211.089844 72.769531 L 178.382812 72.769531 L 178.382812 15.457031 L 187.417969 15.457031 L 187.417969 16.757812 L 186.121094 16.757812 L 186.121094 18.066406 L 180.988281 18.066406 L 180.988281 70.160156 L 208.484375 70.160156 L 208.484375 67.984375 L 184.8125 67.984375 L 184.8125 16.757812 L 186.121094 16.757812 L 186.121094 18.066406 Z M 188.203125 12.585938 L 188.203125 13.894531 L 176.835938 13.894531 L 176.835938 74.320312 L 212.644531 74.320312 L 212.644531 63.804688 L 188.976562 63.804688 L 188.976562 13.894531 L 188.203125 13.894531 L 188.203125 11.285156 L 191.582031 11.285156 L 191.582031 61.191406 L 215.25 61.191406 L 215.25 76.933594 L 174.230469 76.933594 L 174.230469 11.285156 L 188.203125 11.285156 Z M 188.203125 12.585938 "/>
    <path style=" stroke:none;fill-rule:nonzero;fill:rgb(85.882353%,86.666667%,86.27451%);fill-opacity:1;" d="M 171.378906 16.671875 L 171.378906 22.585938 L 156.117188 22.585938 L 156.117188 71.460938 L 149.609375 71.460938 L 149.609375 22.671875 L 134.519531 22.671875 L 134.519531 16.671875 Z M 173.457031 12.5 L 130.359375 12.5 L 130.359375 26.84375 L 145.445312 26.84375 L 145.445312 75.625 L 160.277344 75.625 L 160.277344 26.757812 L 175.539062 26.757812 L 175.539062 12.5 Z M 173.457031 12.5 "/>
    <path style=" stroke:none;fill-rule:nonzero;fill:rgb(85.882353%,86.666667%,86.27451%);fill-opacity:1;" d="M 171.378906 16.671875 L 172.683594 16.671875 L 172.683594 23.898438 L 157.414062 23.898438 L 157.414062 72.773438 L 148.300781 72.773438 L 148.300781 23.984375 L 133.210938 23.984375 L 133.210938 15.371094 L 172.683594 15.371094 L 172.683594 16.671875 L 171.378906 16.671875 L 171.378906 17.984375 L 135.816406 17.984375 L 135.816406 21.371094 L 150.90625 21.371094 L 150.90625 70.160156 L 154.808594 70.160156 L 154.808594 21.285156 L 170.070312 21.285156 L 170.070312 16.671875 L 171.378906 16.671875 L 171.378906 17.984375 Z M 173.457031 12.5 L 173.457031 13.8125 L 131.65625 13.8125 L 131.65625 25.542969 L 146.746094 25.542969 L 146.746094 74.324219 L 158.96875 74.324219 L 158.980469 25.457031 L 174.230469 25.457031 L 174.230469 13.8125 L 173.457031 13.8125 L 173.457031 11.199219 L 176.835938 11.199219 L 176.835938 28.070312 L 161.574219 28.070312 L 161.574219 76.933594 L 144.140625 76.933594 L 144.140625 28.15625 L 129.050781 28.15625 L 129.050781 11.199219 L 173.457031 11.199219 Z M 173.457031 12.5 "/>
    <path style=" stroke:none;fill-rule:nonzero;fill:rgb(85.882353%,86.666667%,86.27451%);fill-opacity:1;" d="M 115.046875 14.242188 C 115.523438 14.300781 118.816406 14.777344 121.8125 16.425781 C 123.691406 17.457031 125.199219 19.132812 126.097656 20.289062 C 125.039062 21.382812 124.015625 22.425781 122.699219 23.792969 C 120.761719 21.726562 117.070312 18.902344 111.296875 18.847656 L 111.230469 18.835938 L 111.160156 18.847656 C 106.761719 19.105469 103.488281 20.453125 101.4375 22.894531 C 98.992188 25.8125 99.28125 29.074219 99.316406 29.4375 C 99.347656 29.621094 99.917969 34.777344 104.539062 37.371094 C 108.367188 39.503906 114.433594 41.636719 115.523438 41.789062 L 115.351562 41.753906 C 116 41.933594 119.886719 43.570312 123.292969 45.074219 C 123.863281 45.378906 130.699219 49.1875 130.699219 57.453125 L 130.632812 58.824219 C 127.988281 74.449219 112.582031 74.324219 111.925781 74.3125 L 111.792969 74.3125 C 111.742188 74.3125 106.859375 74.496094 101.578125 71.691406 C 97.953125 69.769531 95.566406 66.640625 94.449219 64.90625 C 95.441406 63.902344 96.445312 62.890625 97.828125 61.484375 C 100.035156 64.515625 104.671875 69.367188 111.886719 69.367188 C 115.828125 69.367188 123.511719 67.269531 124.359375 59.328125 L 124.398438 58.507812 C 124.398438 51.101562 113.585938 47.074219 112.316406 46.621094 C 112.269531 46.605469 105.761719 44.25 100.738281 42.125 C 97.226562 40.632812 93.316406 34.957031 93.316406 29.695312 L 93.324219 29.324219 C 94.203125 17.496094 106.734375 14.550781 108.28125 14.242188 Z M 115.179688 10.0625 L 107.878906 10.0625 L 107.699219 10.089844 C 101.683594 11.191406 90.089844 16.550781 89.171875 29.046875 L 89.164062 29.113281 C 88.867188 36.421875 94.171875 43.867188 99.117188 45.953125 C 104.242188 48.132812 110.855469 50.527344 110.914062 50.546875 C 113.472656 51.453125 120.640625 54.917969 120.21875 58.890625 C 119.558594 65.109375 111.964844 65.183594 111.886719 65.183594 C 104.203125 65.183594 100.082031 57.28125 100.035156 57.195312 L 98.726562 54.632812 L 96.703125 56.6875 L 89.324219 64.171875 L 89.984375 65.5 C 90.109375 65.769531 93.21875 71.96875 99.632812 75.386719 C 105.730469 78.621094 111.296875 78.523438 111.914062 78.496094 C 113.300781 78.496094 131.652344 78.113281 134.753906 59.453125 L 134.765625 59.378906 L 134.773438 59.300781 L 134.859375 57.40625 C 134.859375 46.421875 125.5625 41.550781 125.144531 41.339844 L 125.085938 41.3125 L 125.039062 41.273438 C 117.527344 37.972656 116.476562 37.714844 116.105469 37.648438 C 115.285156 37.476562 109.949219 35.609375 106.570312 33.714844 C 103.871094 32.210938 103.480469 29.101562 103.460938 28.96875 L 103.449219 28.769531 C 103.449219 28.25 103.566406 26.808594 104.664062 25.542969 C 105.941406 24.050781 108.195312 23.21875 111.332031 23.027344 C 117.746094 23.140625 120.640625 27.8125 120.761719 28.003906 L 122.15625 30.316406 L 124.046875 28.394531 L 131.40625 20.808594 L 130.582031 19.429688 C 130.46875 19.238281 127.902344 15.007812 123.808594 12.761719 C 119.847656 10.578125 115.582031 10.089844 115.410156 10.070312 L 115.292969 10.0625 Z M 115.179688 10.0625 "/>
    <path style=" stroke:none;fill-rule:nonzero;fill:rgb(85.882353%,86.666667%,86.27451%);fill-opacity:1;" d="M 115.046875 14.242188 L 115.199219 12.941406 C 115.789062 13.027344 119.179688 13.496094 122.441406 15.277344 C 124.582031 16.464844 126.164062 18.253906 127.128906 19.488281 L 127.824219 20.386719 L 127.035156 21.199219 C 125.972656 22.300781 124.953125 23.332031 123.636719 24.703125 L 122.691406 25.6875 L 121.753906 24.683594 C 119.960938 22.789062 116.621094 20.203125 111.285156 20.148438 L 111.199219 20.148438 L 111.046875 20.128906 L 111.230469 18.835938 L 111.410156 20.128906 L 111.34375 20.136719 L 111.296875 20.148438 L 111.238281 20.148438 C 107.046875 20.40625 104.183594 21.660156 102.429688 23.734375 C 100.808594 25.667969 100.585938 27.8125 100.585938 28.796875 L 100.617188 29.292969 L 99.316406 29.4375 L 100.605469 29.238281 C 100.617188 29.417969 101.179688 34.011719 105.179688 36.230469 C 106.992188 37.246094 109.433594 38.296875 111.523438 39.101562 C 113.578125 39.90625 115.476562 40.480469 115.703125 40.5 L 115.523438 41.789062 L 115.238281 43.0625 L 115.066406 43.023438 L 115.351562 41.753906 L 115.703125 40.5 C 116.613281 40.765625 120.34375 42.355469 123.816406 43.875 L 123.863281 43.894531 L 123.902344 43.925781 C 124.601562 44.296875 131.957031 48.375 131.996094 57.453125 L 131.996094 57.484375 L 131.929688 58.890625 L 131.929688 58.964844 L 131.921875 59.042969 C 130.59375 67.023438 125.9375 71.328125 121.515625 73.414062 C 117.097656 75.527344 112.917969 75.613281 112.039062 75.625 L 111.898438 75.613281 L 111.925781 74.3125 L 111.925781 75.625 L 111.792969 75.625 L 111.792969 74.953125 L 111.8125 75.625 L 111.792969 75.625 L 111.792969 74.953125 L 111.8125 75.625 L 111.589844 75.625 C 110.492188 75.613281 105.921875 75.472656 100.96875 72.851562 C 97.035156 70.753906 94.546875 67.453125 93.351562 65.617188 L 92.789062 64.734375 L 93.523438 63.988281 C 94.515625 62.984375 95.519531 61.96875 96.902344 60.5625 L 97.980469 59.472656 L 98.878906 60.71875 C 100.988281 63.605469 105.3125 68.074219 111.886719 68.054688 C 113.632812 68.066406 116.363281 67.566406 118.617188 66.210938 C 120.867188 64.820312 122.671875 62.734375 123.0625 59.1875 L 124.359375 59.328125 L 123.0625 59.273438 L 123.101562 58.449219 L 124.398438 58.507812 L 123.09375 58.507812 C 123.128906 55.503906 120.828125 52.929688 118.089844 51.035156 C 115.390625 49.148438 112.460938 48.058594 111.886719 47.855469 L 111.859375 47.847656 L 111.828125 47.839844 L 112.011719 47.378906 L 111.847656 47.839844 L 111.828125 47.839844 L 112.011719 47.378906 L 111.847656 47.839844 C 111.410156 47.683594 105.140625 45.40625 100.234375 43.332031 C 96.074219 41.457031 92.101562 35.601562 92.007812 29.695312 L 92.007812 29.675781 L 92.027344 29.292969 L 92.027344 29.226562 C 92.484375 22.828125 96.1875 18.742188 99.84375 16.367188 C 103.5 13.976562 107.144531 13.144531 108.03125 12.960938 L 108.15625 12.933594 L 115.121094 12.933594 L 115.199219 12.941406 L 115.046875 14.242188 L 115.046875 15.554688 L 108.28125 15.554688 L 108.28125 14.242188 L 108.527344 15.527344 C 107.871094 15.648438 104.472656 16.445312 101.265625 18.558594 C 98.039062 20.691406 95.042969 23.992188 94.621094 29.417969 L 93.324219 29.324219 L 94.621094 29.351562 L 94.613281 29.726562 L 93.316406 29.695312 L 94.613281 29.695312 C 94.527344 34.316406 98.382812 39.808594 101.246094 40.921875 C 106.238281 43.035156 112.671875 45.359375 112.804688 45.40625 L 112.316406 46.621094 L 112.746094 45.386719 C 113.441406 45.636719 116.554688 46.785156 119.578125 48.882812 C 122.566406 50.96875 125.667969 54.105469 125.699219 58.507812 L 125.699219 58.535156 L 125.660156 59.386719 L 125.660156 59.472656 C 125.199219 63.863281 122.738281 66.792969 119.953125 68.449219 C 117.164062 70.113281 114.074219 70.667969 111.886719 70.675781 C 104.03125 70.660156 99.078125 65.425781 96.78125 62.246094 L 97.828125 61.484375 L 98.753906 62.402344 C 97.371094 63.808594 96.367188 64.820312 95.375 65.828125 L 94.449219 64.90625 L 95.546875 64.199219 C 96.589844 65.828125 98.871094 68.78125 102.191406 70.535156 C 106.582031 72.878906 110.742188 73.011719 111.589844 73.011719 L 111.792969 73.003906 L 111.933594 73.003906 L 111.953125 73.011719 L 112.039062 73.011719 C 112.699219 73.011719 116.542969 72.917969 120.390625 71.058594 C 124.246094 69.175781 128.113281 65.742188 129.34375 58.601562 L 130.632812 58.824219 L 129.332031 58.753906 L 129.402344 57.386719 L 130.699219 57.453125 L 129.390625 57.453125 C 129.4375 50 123.128906 46.460938 122.679688 46.222656 L 123.292969 45.074219 L 122.765625 46.269531 C 119.425781 44.785156 115.390625 43.101562 115 43.007812 L 115.636719 40.480469 L 115.808594 40.519531 L 115.34375 43.082031 C 114.484375 42.949219 112.804688 42.382812 110.589844 41.542969 C 108.421875 40.710938 105.914062 39.628906 103.910156 38.507812 C 98.648438 35.542969 98.078125 29.820312 98.03125 29.640625 L 98.03125 29.609375 L 98.019531 29.582031 L 97.980469 28.796875 C 97.980469 27.457031 98.269531 24.644531 100.433594 22.050781 C 102.792969 19.246094 106.476562 17.804688 111.085938 17.542969 L 111.160156 18.847656 L 110.980469 17.554688 L 111.046875 17.542969 L 111.230469 17.515625 L 111.476562 17.554688 L 111.296875 18.847656 L 111.304688 17.542969 C 117.519531 17.601562 121.566406 20.664062 123.644531 22.902344 L 122.699219 23.792969 L 121.765625 22.882812 C 123.082031 21.515625 124.105469 20.464844 125.164062 19.382812 L 126.097656 20.289062 L 125.066406 21.09375 C 124.238281 20.011719 122.804688 18.453125 121.183594 17.574219 C 118.453125 16.0625 115.257812 15.574219 114.894531 15.542969 L 115.046875 14.242188 L 115.046875 15.554688 Z M 115.179688 10.0625 L 115.179688 11.371094 L 107.984375 11.371094 L 107.898438 11.382812 L 107.699219 10.089844 L 107.9375 11.371094 C 105.140625 11.878906 100.882812 13.441406 97.34375 16.308594 C 93.78125 19.199219 90.910156 23.296875 90.472656 29.140625 L 90.472656 29.1875 L 90.453125 29.292969 L 89.164062 29.113281 L 90.460938 29.171875 L 90.453125 29.695312 C 90.375 36.183594 95.414062 43.054688 99.625 44.746094 C 104.683594 46.910156 111.316406 49.300781 111.324219 49.3125 L 111.351562 49.3125 C 112.707031 49.800781 115.09375 50.871094 117.25 52.375 C 119.359375 53.886719 121.46875 55.808594 121.535156 58.554688 L 121.515625 59.023438 C 121.144531 62.726562 118.550781 64.726562 116.316406 65.585938 C 114.0625 66.476562 112.039062 66.488281 111.886719 66.496094 C 103.222656 66.402344 98.992188 57.921875 98.898438 57.828125 L 98.886719 57.808594 L 98.382812 56.832031 L 97.628906 57.605469 L 90.910156 64.429688 L 91.148438 64.917969 L 91.15625 64.9375 L 91.167969 64.957031 C 91.195312 65.050781 94.257812 71.078125 100.242188 74.226562 C 105.378906 76.953125 110.160156 77.203125 111.515625 77.195312 L 111.914062 77.195312 C 112.5 77.195312 117.269531 77.089844 122.136719 74.792969 C 127.003906 72.457031 131.96875 68.132812 133.464844 59.242188 L 134.753906 59.453125 L 133.464844 59.292969 L 133.476562 59.214844 L 133.476562 59.1875 L 133.5625 57.347656 L 134.859375 57.40625 L 133.550781 57.40625 C 133.609375 47.265625 124.847656 42.640625 124.5625 42.507812 L 124.503906 42.480469 L 124.378906 42.421875 L 124.226562 42.296875 L 125.039062 41.273438 L 124.515625 42.46875 C 117.03125 39.167969 115.960938 38.9375 115.875 38.929688 L 115.839844 38.929688 C 114.710938 38.671875 109.539062 36.851562 105.933594 34.855469 C 102.589844 32.949219 102.21875 29.351562 102.171875 29.152344 L 102.160156 29.09375 L 102.152344 28.824219 L 102.144531 28.796875 L 102.144531 28.769531 C 102.152344 28.078125 102.285156 26.308594 103.679688 24.683594 L 103.679688 24.691406 L 103.671875 24.691406 C 105.320312 22.796875 107.945312 21.925781 111.257812 21.726562 L 111.304688 21.714844 L 111.351562 21.726562 C 118.453125 21.851562 121.6875 27.027344 121.851562 27.292969 L 121.871094 27.3125 L 122.40625 28.203125 L 123.121094 27.476562 L 123.109375 27.484375 L 129.773438 20.617188 L 129.46875 20.097656 C 129.417969 19.992188 126.890625 15.917969 123.179688 13.910156 C 119.492188 11.859375 115.351562 11.371094 115.265625 11.371094 L 115.410156 10.070312 L 115.304688 11.371094 L 115.179688 11.371094 L 115.179688 8.75 L 115.351562 8.75 L 115.515625 8.769531 L 115.550781 8.769531 C 115.808594 8.808594 120.199219 9.296875 124.4375 11.613281 C 128.914062 14.101562 131.519531 18.480469 131.699219 18.757812 L 132.519531 20.136719 L 133.035156 21 L 124.980469 29.304688 L 123.082031 31.238281 L 121.910156 32.433594 L 119.648438 28.683594 L 120.761719 28.003906 L 119.675781 28.710938 C 119.589844 28.597656 117.042969 24.433594 111.316406 24.328125 L 111.332031 23.027344 L 111.410156 24.328125 C 108.441406 24.511719 106.5625 25.304688 105.65625 26.394531 L 105.644531 26.40625 C 104.84375 27.304688 104.75 28.421875 104.75 28.769531 L 103.449219 28.769531 L 104.75 28.710938 L 104.757812 28.910156 L 103.460938 28.96875 L 104.75 28.789062 C 104.738281 28.855469 105.148438 31.476562 107.203125 32.578125 C 110.359375 34.367188 115.859375 36.28125 116.371094 36.367188 L 116.105469 37.648438 L 116.335938 36.367188 C 116.992188 36.488281 118.023438 36.777344 125.5625 40.078125 L 125.714844 40.144531 L 125.898438 40.289062 L 125.085938 41.3125 L 125.667969 40.144531 L 125.726562 40.171875 C 126.28125 40.460938 136.109375 45.578125 136.15625 57.40625 L 136.15625 57.433594 L 136.042969 59.644531 L 136.042969 59.664062 C 134.441406 69.433594 128.675781 74.628906 123.246094 77.15625 C 117.8125 79.710938 112.71875 79.796875 111.914062 79.804688 L 111.914062 78.496094 L 111.984375 79.796875 L 111.515625 79.804688 C 109.882812 79.804688 104.699219 79.546875 99.023438 76.542969 C 92.179688 72.859375 89.019531 66.488281 88.800781 66.046875 L 89.984375 65.5 L 88.820312 66.085938 L 88.160156 64.753906 L 87.742188 63.914062 L 95.777344 55.769531 L 97.800781 53.714844 L 99.070312 52.429688 L 101.199219 56.601562 L 100.035156 57.195312 L 101.167969 56.5625 C 101.179688 56.640625 105.1875 63.96875 111.886719 63.882812 L 112.945312 63.777344 C 113.9375 63.644531 115.417969 63.289062 116.613281 62.515625 C 117.796875 61.722656 118.703125 60.667969 118.921875 58.753906 L 118.929688 58.554688 C 119.007812 57.472656 117.691406 55.828125 115.761719 54.515625 C 113.882812 53.195312 111.609375 52.171875 110.476562 51.78125 L 110.914062 50.546875 L 110.503906 51.789062 C 110.371094 51.742188 103.804688 49.359375 98.613281 47.160156 C 93.199219 44.796875 87.921875 37.445312 87.847656 29.695312 L 87.867188 29.054688 L 87.867188 28.996094 L 87.882812 28.863281 L 89.171875 29.046875 L 87.875 28.949219 C 88.351562 22.300781 91.730469 17.46875 95.710938 14.28125 C 99.691406 11.066406 104.242188 9.402344 107.457031 8.808594 L 107.476562 8.800781 L 107.679688 8.769531 L 107.773438 8.75 L 115.179688 8.75 Z M 115.179688 10.0625 "/>
    <path style=" stroke:none;fill-rule:nonzero;fill:rgb(85.882353%,86.666667%,86.27451%);fill-opacity:1;" d="M 56.644531 16.851562 C 56.65625 20.609375 56.730469 56.578125 56.730469 56.578125 C 56.730469 56.796875 56.769531 61.925781 60.273438 65.410156 C 62.363281 67.484375 65.179688 68.519531 68.625 68.492188 C 72.097656 68.460938 74.894531 67.359375 76.957031 65.257812 C 80.199219 61.90625 80.316406 57.160156 80.316406 56.519531 C 80.316406 56.492188 80.382812 25.296875 80.402344 16.867188 C 82.425781 16.886719 84.722656 16.90625 86.726562 16.917969 C 86.71875 20.65625 86.652344 56.433594 86.652344 56.445312 C 86.652344 57.609375 86.316406 73.675781 68.539062 74.660156 C 51.074219 73.515625 50.414062 57.140625 50.394531 56.445312 C 50.394531 56.445312 50.328125 25.230469 50.316406 16.851562 Z M 76.238281 14.746094 L 76.152344 56.492188 C 76.164062 57.316406 76 64.261719 68.59375 64.320312 C 61.179688 64.386719 60.902344 57.363281 60.894531 56.566406 L 60.796875 12.667969 L 46.136719 12.667969 L 46.234375 56.5 C 46.242188 56.75 46.957031 77.523438 68.394531 78.84375 L 68.632812 78.84375 C 90.566406 77.714844 90.8125 57.125 90.8125 56.394531 L 90.898438 12.785156 L 76.25 12.660156 Z M 76.238281 14.746094 "/>
    <path style=" stroke:none;fill-rule:nonzero;fill:rgb(85.882353%,86.666667%,86.27451%);fill-opacity:1;" d="M 56.644531 16.851562 L 57.945312 16.851562 C 57.953125 20.609375 58.03125 56.578125 58.03125 56.578125 C 58.011719 56.664062 58.125 61.496094 61.1875 64.480469 C 62.992188 66.261719 65.359375 67.179688 68.480469 67.1875 L 68.605469 67.1875 C 71.820312 67.152344 74.214844 66.175781 76.03125 64.335938 C 78.855469 61.46875 79.035156 57.027344 79.007812 56.519531 C 79.007812 56.480469 79.074219 25.296875 79.09375 16.867188 L 79.101562 15.546875 L 80.410156 15.566406 C 82.433594 15.585938 84.734375 15.605469 86.738281 15.605469 L 88.035156 15.617188 L 88.027344 16.917969 C 88.015625 20.65625 87.949219 56.445312 87.949219 56.445312 C 87.949219 57.152344 87.875 61.640625 85.410156 66.242188 C 82.96875 70.855469 77.898438 75.484375 68.613281 75.964844 L 68.527344 75.972656 L 68.453125 75.964844 C 59.300781 75.398438 54.25 70.632812 51.777344 66.011719 C 49.277344 61.390625 49.105469 56.949219 49.097656 56.480469 L 49.085938 56.460938 L 49.085938 56.445312 C 49.085938 56.445312 49.019531 25.230469 49.011719 16.851562 L 49.011719 15.539062 L 57.945312 15.539062 L 57.945312 16.851562 L 56.644531 16.851562 L 56.644531 18.160156 L 50.316406 18.160156 L 50.316406 16.851562 L 51.617188 16.851562 C 51.625 25.230469 51.691406 56.40625 51.691406 56.445312 L 50.394531 56.445312 L 51.691406 56.40625 C 51.691406 56.636719 51.875 60.730469 54.070312 64.757812 C 56.292969 68.777344 60.3125 72.777344 68.625 73.359375 L 68.539062 74.660156 L 68.460938 73.359375 C 76.957031 72.851562 80.945312 68.960938 83.109375 64.996094 C 85.257812 61.035156 85.355469 56.902344 85.34375 56.445312 C 85.34375 56.425781 85.410156 20.65625 85.421875 16.917969 L 86.726562 16.917969 L 86.71875 18.226562 C 84.714844 18.21875 82.414062 18.199219 80.390625 18.179688 L 80.402344 16.867188 L 81.699219 16.867188 C 81.679688 25.296875 81.613281 56.5 81.613281 56.519531 C 81.59375 57.296875 81.546875 62.347656 77.890625 66.164062 C 75.570312 68.546875 72.363281 69.773438 68.632812 69.792969 L 68.480469 69.800781 C 64.84375 69.8125 61.675781 68.652344 59.355469 66.335938 C 55.414062 62.355469 55.453125 56.933594 55.425781 56.578125 C 55.425781 56.539062 55.347656 20.609375 55.339844 16.851562 L 56.644531 16.851562 L 56.644531 18.160156 Z M 76.238281 14.746094 L 77.539062 14.746094 L 77.453125 56.492188 L 76.152344 56.492188 L 77.453125 56.480469 L 77.460938 56.550781 C 77.453125 57.191406 77.386719 59.296875 76.238281 61.429688 C 75.121094 63.570312 72.640625 65.640625 68.605469 65.628906 L 68.488281 65.628906 C 64.40625 65.667969 61.914062 63.523438 60.808594 61.363281 C 59.660156 59.199219 59.605469 57.085938 59.59375 56.585938 L 59.585938 56.578125 L 59.5 13.980469 L 47.445312 13.980469 L 47.53125 56.5 L 46.234375 56.5 L 47.53125 56.453125 C 47.53125 56.480469 47.710938 61.554688 50.433594 66.652344 C 53.171875 71.753906 58.191406 76.871094 68.472656 77.542969 L 68.394531 78.84375 L 68.394531 77.53125 L 68.632812 77.53125 L 68.632812 78.84375 L 68.566406 77.542969 C 79.113281 76.957031 84.113281 71.925781 86.796875 66.863281 C 89.449219 61.800781 89.515625 56.636719 89.503906 56.394531 L 89.589844 14.074219 L 77.546875 13.980469 L 77.539062 14.753906 L 76.238281 14.746094 L 74.933594 14.734375 L 74.941406 12.648438 L 74.953125 11.339844 L 92.207031 11.492188 L 92.109375 56.394531 C 92.109375 56.882812 92.054688 62.375 89.105469 68.070312 C 86.175781 73.773438 80.085938 79.597656 68.699219 80.144531 L 68.660156 80.152344 L 68.355469 80.152344 L 68.316406 80.144531 C 57.152344 79.492188 51.101562 73.570312 48.132812 67.886719 C 45.125 62.203125 44.945312 56.769531 44.9375 56.550781 L 44.925781 56.53125 L 44.832031 11.359375 L 62.09375 11.359375 L 62.191406 56.558594 L 62.191406 56.550781 C 62.191406 56.835938 62.277344 58.605469 63.097656 60.128906 C 63.957031 61.628906 65.265625 62.96875 68.488281 63.015625 L 68.585938 63.015625 C 71.800781 62.949219 73.109375 61.648438 73.949219 60.175781 C 74.769531 58.691406 74.855469 56.941406 74.855469 56.550781 L 74.855469 56.5 L 74.847656 56.5 L 74.933594 14.746094 Z M 76.238281 14.746094 "/>
    <path style=" stroke:none;fill-rule:nonzero;fill:rgb(85.882353%,86.666667%,86.27451%);fill-opacity:1;" d="M 11.835938 16.839844 C 11.835938 20.304688 11.855469 40.703125 11.855469 40.703125 L 36.046875 40.703125 L 36.046875 16.851562 L 42.546875 16.851562 L 42.546875 71.496094 L 36.046875 71.496094 L 36.046875 47.097656 L 11.71875 47.097656 L 11.71875 71.496094 L 5.476562 71.496094 C 5.476562 67.746094 5.515625 20.582031 5.515625 16.839844 Z M 13.914062 12.660156 L 1.355469 12.660156 L 1.308594 75.65625 L 15.882812 75.65625 L 15.882812 51.289062 L 31.886719 51.289062 L 31.886719 75.65625 L 46.707031 75.65625 L 46.707031 12.667969 L 31.886719 12.667969 L 31.886719 36.542969 L 16.015625 36.542969 C 16.003906 33.058594 15.996094 12.660156 15.996094 12.660156 Z M 13.914062 12.660156 "/>
    <path style=" stroke:none;fill-rule:nonzero;fill:rgb(85.882353%,86.666667%,86.27451%);fill-opacity:1;" d="M 11.835938 16.839844 L 13.140625 16.839844 C 13.140625 20.304688 13.160156 40.675781 13.160156 40.703125 L 11.855469 40.703125 L 11.855469 39.394531 L 34.738281 39.394531 L 34.738281 15.550781 L 43.84375 15.550781 L 43.84375 72.804688 L 34.738281 72.804688 L 34.738281 48.40625 L 13.019531 48.40625 L 13.019531 72.804688 L 4.171875 72.804688 L 4.171875 71.496094 C 4.171875 67.746094 4.207031 20.582031 4.207031 16.839844 L 4.207031 15.53125 L 13.140625 15.53125 L 13.140625 16.839844 L 11.835938 16.839844 L 11.835938 18.152344 L 5.515625 18.152344 L 5.515625 16.839844 L 6.824219 16.839844 C 6.824219 20.582031 6.785156 67.746094 6.785156 71.496094 L 5.476562 71.496094 L 5.476562 70.195312 L 10.414062 70.195312 L 10.421875 45.785156 L 37.34375 45.785156 L 37.34375 70.195312 L 41.238281 70.195312 L 41.238281 18.160156 L 37.34375 18.160156 L 37.34375 42.015625 L 10.554688 42.015625 L 10.546875 40.703125 C 10.546875 40.703125 10.527344 20.304688 10.527344 16.839844 L 11.835938 16.839844 L 11.835938 18.152344 Z M 13.914062 12.660156 L 13.914062 13.96875 L 2.652344 13.96875 L 2.613281 74.347656 L 14.582031 74.347656 L 14.574219 49.984375 L 33.195312 49.984375 L 33.195312 74.347656 L 45.402344 74.347656 L 45.402344 13.980469 L 33.183594 13.980469 L 33.195312 37.851562 L 14.714844 37.851562 L 14.707031 36.542969 C 14.699219 33.058594 14.6875 12.660156 14.6875 12.660156 L 15.996094 12.660156 L 15.996094 13.96875 L 13.914062 13.96875 L 13.914062 11.347656 L 17.292969 11.347656 L 17.292969 12.660156 C 17.292969 12.679688 17.3125 33.058594 17.3125 36.542969 L 16.015625 36.542969 L 16.015625 35.242188 L 30.578125 35.242188 L 30.578125 11.367188 L 48.007812 11.367188 L 48.007812 76.96875 L 30.578125 76.96875 L 30.578125 52.597656 L 17.179688 52.597656 L 17.1875 76.96875 L 0 76.96875 L 0.0585938 11.347656 L 13.914062 11.347656 Z M 13.914062 12.660156 "/>
    <path style=" stroke:none;fill-rule:nonzero;fill:rgb(92.54902%,11.764706%,15.294118%);fill-opacity:1;" d="M 324.574219 15.496094 C 321.710938 19.800781 314.6875 43.40625 317.15625 46.925781 C 320.15625 43.550781 343.433594 15.886719 345.648438 14.855469 C 347.859375 13.800781 359.695312 11.066406 359.046875 14.195312 C 327.046875 37.015625 317.15625 61.414062 313.386719 62.714844 C 309.617188 64.007812 309.742188 59.183594 309.617188 56.964844 C 308.445312 47.320312 314.550781 18.5 314.429688 15.359375 C 315.859375 14.710938 323.925781 14.460938 324.574219 15.496094 "/>
    <path style=" stroke:none;fill-rule:nonzero;fill:rgb(92.54902%,11.764706%,15.294118%);fill-opacity:1;" d="M 312.34375 12.113281 C 312.34375 12.113281 293.21875 37.144531 292.828125 62.574219 C 290.488281 62.71875 286.71875 62.453125 286.71875 62.453125 C 286.71875 62.453125 284.898438 58.414062 286.976562 48.367188 C 289.058594 38.320312 301.808594 12.035156 302.324219 11.578125 C 300.378906 11.328125 267.726562 10.800781 266.554688 9.894531 C 265.378906 8.984375 282.683594 8.839844 282.808594 8.984375 L 261.621094 7.671875 L 276.328125 5.855469 C 276.699219 5.585938 266.800781 5.128906 267.996094 4.9375 C 280.992188 2.839844 298.820312 3.234375 298.820312 3.234375 C 298.820312 3.234375 328.609375 2.984375 329.125 3.894531 C 329.648438 4.800781 329.191406 11.003906 329.390625 11.578125 Z M 312.34375 12.113281 "/>
    <path style=" stroke:none;fill-rule:nonzero;fill:rgb(0%,0%,0%);fill-opacity:1;" d="M 268.570312 24.96875 L 260.6875 24.949219 L 260.703125 39.015625 L 268.332031 39.015625 C 268.332031 39.015625 277.519531 40.242188 277.445312 32.058594 C 277.347656 23.976562 268.570312 24.96875 268.570312 24.96875 M 271.890625 14.675781 C 271.890625 14.675781 286.894531 15.363281 287.847656 31.714844 C 286.636719 46.84375 272.84375 48.316406 272.84375 48.316406 L 290.453125 73.539062 L 278.828125 73.539062 L 260.703125 48.679688 L 260.703125 73.625 L 250.121094 73.625 L 250.121094 14.675781 Z M 271.890625 14.675781 "/>
    <path style=" stroke:none;fill-rule:nonzero;fill:rgb(0%,0%,0%);fill-opacity:1;" d="M 214.128906 14.851562 L 248.648438 14.851562 L 248.648438 24.59375 L 224.800781 24.59375 L 224.800781 38.933594 L 248.382812 38.933594 L 248.382812 48.578125 L 224.714844 48.578125 L 224.714844 63.804688 L 248.734375 63.804688 L 248.734375 73.800781 L 214.214844 73.800781 Z M 214.128906 14.851562 "/>
    <path style=" stroke:none;fill-rule:nonzero;fill:rgb(0%,0%,0%);fill-opacity:1;" d="M 177.621094 14.671875 L 188.207031 14.671875 L 188.207031 64.582031 L 211.875 64.582031 L 211.875 73.539062 L 177.621094 73.539062 Z M 177.621094 14.671875 "/>
    <path style=" stroke:none;fill-rule:nonzero;fill:rgb(0%,0%,0%);fill-opacity:1;" d="M 132.4375 14.589844 L 173.457031 14.589844 L 173.457031 24.675781 L 158.195312 24.675781 L 158.195312 73.539062 L 147.527344 73.539062 L 147.527344 24.761719 L 132.4375 24.761719 Z M 132.4375 14.589844 "/>
    <path style=" stroke:none;fill-rule:nonzero;fill:rgb(0%,0%,0%);fill-opacity:1;" d="M 128.792969 20.503906 C 128.792969 20.503906 126.457031 16.589844 122.808594 14.589844 C 119.164062 12.589844 115.175781 12.160156 115.175781 12.160156 L 108.0625 12.160156 C 108.0625 12.160156 92.277344 15.03125 91.238281 29.191406 C 90.980469 35.535156 95.667969 42.234375 99.933594 44.042969 C 105.058594 46.214844 111.625 48.585938 111.625 48.585938 C 111.625 48.585938 122.980469 52.585938 122.285156 59.101562 C 121.597656 65.628906 115.089844 67.285156 111.882812 67.285156 C 102.777344 67.285156 98.175781 58.15625 98.175781 58.15625 L 91.847656 64.574219 C 91.847656 64.574219 94.710938 70.414062 100.609375 73.542969 C 106.507812 76.660156 111.882812 76.410156 111.882812 76.410156 C 111.882812 76.410156 129.746094 76.84375 132.695312 59.101562 C 133.738281 48.070312 124.191406 43.191406 124.191406 43.191406 L 115.785156 39.71875 C 115.089844 39.621094 109.285156 37.621094 105.554688 35.535156 C 101.824219 33.460938 101.394531 29.191406 101.394531 29.191406 C 101.394531 29.191406 100.523438 21.539062 111.269531 20.933594 C 119.078125 21.03125 122.550781 26.933594 122.550781 26.933594 Z M 128.792969 20.503906 "/>
    <path style=" stroke:none;fill-rule:nonzero;fill:rgb(0%,0%,0%);fill-opacity:1;" d="M 48.230469 14.757812 L 58.730469 14.757812 L 58.816406 56.582031 C 58.816406 56.582031 58.816406 66.492188 68.605469 66.40625 C 78.410156 66.320312 78.238281 56.492188 78.238281 56.492188 L 78.324219 14.757812 L 88.820312 14.851562 L 88.734375 56.417969 C 88.734375 56.417969 88.992188 75.707031 68.519531 76.75 C 48.753906 75.542969 48.316406 56.492188 48.316406 56.492188 Z M 48.230469 14.757812 "/>
    <path style=" stroke:none;fill-rule:nonzero;fill:rgb(0%,0%,0%);fill-opacity:1;" d="M 3.390625 73.578125 L 13.792969 73.578125 L 13.792969 49.1875 L 33.960938 49.1875 L 33.960938 73.578125 L 44.628906 73.578125 L 44.628906 14.769531 L 33.960938 14.769531 L 33.960938 38.625 L 13.925781 38.625 L 13.90625 14.761719 L 3.4375 14.761719 Z M 3.390625 73.578125 "/>
  </g>
</svg>