<?xml version="1.0" encoding="UTF-8" standalone="yes"?>
<svg xmlns="http://www.w3.org/2000/svg" xmlns:xlink="http://www.w3.org/1999/xlink" width="106.66666666666666px" height="106.66666666666666px" viewBox="0 0 80 80" version="1.1">
  <g id="surface1">
    <path style=" stroke:none;fill-rule:nonzero;fill:rgb(74.117647%,75.686275%,76.862745%);fill-opacity:1;" d="M 40.640625 21.183594 C 41.238281 20.410156 41.917969 19.703125 42.488281 18.914062 C 42.523438 19.664062 42.527344 20.417969 42.515625 21.167969 C 43.40625 21.191406 44.296875 21.160156 45.1875 21.199219 C 44.320312 21.6875 43.359375 21.988281 42.5 22.5 C 42.519531 23.195312 42.527344 23.894531 42.507812 24.589844 C 41.824219 24.265625 41.265625 23.75 40.652344 23.320312 C 39.671875 23.710938 38.765625 24.28125 37.742188 24.550781 C 38.304688 23.863281 38.902344 23.207031 39.464844 22.515625 C 38.90625 22.050781 38.273438 21.679688 37.722656 21.203125 C 38.695312 21.164062 39.667969 21.183594 40.640625 21.183594 Z M 40.640625 21.183594 "/>
    <path style=" stroke:none;fill-rule:nonzero;fill:rgb(74.117647%,75.686275%,76.862745%);fill-opacity:1;" d="M 55.683594 28.824219 C 56.308594 28.09375 56.921875 27.355469 57.558594 26.636719 C 57.585938 27.367188 57.589844 28.09375 57.605469 28.820312 C 58.472656 28.835938 59.34375 28.785156 60.207031 28.882812 C 59.34375 29.328125 58.433594 29.675781 57.578125 30.132812 C 57.59375 30.839844 57.597656 31.550781 57.582031 32.257812 C 56.910156 31.878906 56.316406 31.375 55.664062 30.964844 C 54.695312 31.410156 53.742188 31.910156 52.734375 32.269531 C 53.335938 31.5625 53.9375 30.859375 54.550781 30.164062 C 53.953125 29.703125 53.34375 29.273438 52.714844 28.859375 C 53.703125 28.792969 54.695312 28.839844 55.683594 28.824219 Z M 55.683594 28.824219 "/>
    <path style=" stroke:none;fill-rule:nonzero;fill:rgb(74.117647%,75.686275%,76.862745%);fill-opacity:1;" d="M 19.972656 55.636719 C 20.605469 54.953125 21.15625 54.195312 21.789062 53.507812 C 21.84375 54.238281 21.84375 54.96875 21.824219 55.699219 C 22.71875 55.734375 23.613281 55.671875 24.503906 55.761719 C 23.636719 56.191406 22.738281 56.5625 21.851562 56.953125 C 21.832031 57.710938 21.835938 58.46875 21.828125 59.230469 C 21.152344 58.820312 20.585938 58.148438 19.828125 57.921875 C 18.871094 58.238281 18.027344 58.820312 17.058594 59.105469 C 17.542969 58.359375 18.230469 57.773438 18.757812 57.058594 C 18.195312 56.585938 17.558594 56.210938 17 55.738281 C 17.984375 55.640625 19.011719 55.847656 19.972656 55.636719 Z M 19.972656 55.636719 "/>
    <path style=" stroke:none;fill-rule:nonzero;fill:rgb(74.117647%,75.686275%,76.862745%);fill-opacity:1;" d="M 28.976562 57.722656 C 29.5625 56.949219 30.25 56.257812 30.820312 55.472656 C 30.871094 56.226562 30.851562 56.976562 30.84375 57.730469 C 31.734375 57.746094 32.628906 57.71875 33.519531 57.761719 C 32.636719 58.21875 31.707031 58.574219 30.835938 59.042969 C 30.851562 59.773438 30.859375 60.503906 30.8125 61.230469 C 30.191406 60.773438 29.5625 60.328125 28.945312 59.867188 C 27.992188 60.289062 27.070312 60.792969 26.089844 61.144531 C 26.59375 60.410156 27.238281 59.785156 27.78125 59.078125 C 27.203125 58.628906 26.597656 58.210938 26.027344 57.753906 C 27.007812 57.734375 27.996094 57.75 28.976562 57.722656 Z M 28.976562 57.722656 "/>
    <path style=" stroke:none;fill-rule:nonzero;fill:rgb(74.117647%,75.294118%,76.470588%);fill-opacity:1;" d="M 30.839844 23.5625 C 31.503906 22.871094 32.035156 22.0625 32.761719 21.433594 C 32.765625 22.152344 32.761719 22.867188 32.769531 23.585938 C 33.644531 23.597656 34.519531 23.574219 35.394531 23.621094 C 34.550781 24.078125 33.660156 24.445312 32.773438 24.804688 C 32.761719 25.554688 32.765625 26.308594 32.753906 27.058594 C 32.171875 26.757812 31.699219 26.300781 31.152344 25.949219 C 30.949219 25.804688 30.691406 25.828125 30.472656 25.917969 C 29.59375 26.234375 28.796875 26.738281 27.921875 27.066406 C 28.449219 26.285156 29.1875 25.667969 29.664062 24.855469 C 29.0625 24.472656 28.457031 24.089844 27.933594 23.601562 C 28.902344 23.578125 29.871094 23.605469 30.839844 23.5625 Z M 30.839844 23.5625 "/>
    <path style=" stroke:none;fill-rule:nonzero;fill:rgb(74.117647%,75.294118%,76.470588%);fill-opacity:1;" d="M 49.921875 23.191406 C 50.449219 22.605469 50.894531 21.945312 51.488281 21.417969 C 51.492188 22.144531 51.488281 22.867188 51.503906 23.59375 C 52.347656 23.605469 53.1875 23.585938 54.03125 23.609375 C 53.25 24.132812 52.359375 24.457031 51.496094 24.820312 C 51.492188 25.578125 51.496094 26.332031 51.484375 27.089844 C 50.789062 26.71875 50.246094 26.039062 49.480469 25.832031 C 48.5 26.109375 47.636719 26.695312 46.691406 27.066406 C 47.117188 26.234375 47.921875 25.695312 48.378906 24.886719 C 47.847656 24.5 47.289062 24.15625 46.777344 23.742188 C 46.796875 23.703125 46.832031 23.628906 46.847656 23.589844 C 47.660156 23.550781 48.476562 23.640625 49.289062 23.589844 C 49.570312 23.613281 49.742188 23.367188 49.921875 23.191406 Z M 49.921875 23.191406 "/>
    <path style=" stroke:none;fill-rule:nonzero;fill:rgb(74.117647%,75.294118%,76.470588%);fill-opacity:1;" d="M 13.921875 50.085938 C 14.539062 49.367188 15.121094 48.613281 15.769531 47.921875 C 15.785156 48.648438 15.765625 49.378906 15.804688 50.105469 C 16.671875 50.113281 17.539062 50.074219 18.40625 50.125 C 17.621094 50.710938 16.554688 50.828125 15.816406 51.453125 C 15.726562 52.160156 15.804688 52.878906 15.773438 53.589844 C 15.113281 53.167969 14.527344 52.640625 13.84375 52.257812 C 12.882812 52.722656 11.898438 53.144531 10.941406 53.621094 C 11.46875 52.828125 12.175781 52.179688 12.75 51.425781 C 12.191406 50.976562 11.539062 50.648438 11.039062 50.121094 C 12 50.070312 12.960938 50.109375 13.921875 50.085938 Z M 13.921875 50.085938 "/>
    <path style=" stroke:none;fill-rule:nonzero;fill:rgb(74.117647%,75.294118%,76.470588%);fill-opacity:1;" d="M 38.722656 55.710938 C 39.398438 55.011719 39.9375 54.191406 40.652344 53.53125 C 40.652344 54.261719 40.648438 54.988281 40.671875 55.71875 C 41.550781 55.722656 42.4375 55.679688 43.320312 55.761719 C 42.4375 56.203125 41.5 56.53125 40.640625 57.027344 C 40.65625 57.742188 40.660156 58.460938 40.65625 59.179688 C 39.988281 58.777344 39.375 58.296875 38.730469 57.867188 C 37.742188 58.285156 36.78125 58.761719 35.800781 59.191406 C 36.363281 58.445312 36.980469 57.742188 37.621094 57.066406 C 37.019531 56.621094 36.40625 56.191406 35.808594 55.742188 C 36.78125 55.691406 37.753906 55.738281 38.722656 55.710938 Z M 38.722656 55.710938 "/>
    <path style=" stroke:none;fill-rule:nonzero;fill:rgb(74.117647%,75.686275%,76.470588%);fill-opacity:1;" d="M 22.027344 28.816406 C 22.65625 28.085938 23.28125 27.359375 23.917969 26.640625 C 23.9375 27.367188 23.929688 28.089844 23.9375 28.816406 C 24.828125 28.835938 25.71875 28.808594 26.609375 28.855469 C 25.722656 29.296875 24.796875 29.664062 23.929688 30.136719 C 23.933594 30.867188 23.9375 31.597656 23.933594 32.328125 C 23.285156 31.886719 22.667969 31.398438 22.015625 30.964844 C 21.039062 31.410156 20.078125 31.898438 19.078125 32.289062 C 19.675781 31.570312 20.289062 30.867188 20.902344 30.15625 C 20.308594 29.710938 19.691406 29.289062 19.089844 28.847656 C 20.070312 28.789062 21.050781 28.851562 22.027344 28.816406 Z M 22.027344 28.816406 "/>
    <path style=" stroke:none;fill-rule:nonzero;fill:rgb(0.392157%,24.705882%,45.490196%);fill-opacity:1;" d="M 5.675781 35.449219 C 14.5 35.398438 23.328125 35.464844 32.15625 35.421875 C 31.246094 38.851562 30.238281 42.261719 29.289062 45.683594 C 21.585938 45.652344 13.878906 45.683594 6.175781 45.671875 C 5.027344 45.6875 3.878906 45.65625 2.730469 45.617188 C 3.554688 42.652344 4.371094 39.683594 5.242188 36.730469 C 5.351562 36.292969 5.449219 35.84375 5.675781 35.449219 M 6.886719 37.300781 C 6.320312 39.5 5.601562 41.660156 5.074219 43.871094 C 6.4375 43.867188 7.800781 43.867188 9.164062 43.871094 C 9.296875 43.445312 9.425781 43.019531 9.546875 42.59375 C 8.644531 42.574219 7.742188 42.582031 6.839844 42.582031 C 6.992188 42.078125 7.140625 41.578125 7.28125 41.074219 C 8.113281 41.070312 8.945312 41.078125 9.773438 41.058594 C 9.890625 40.640625 10.011719 40.226562 10.132812 39.808594 C 9.3125 39.796875 8.488281 39.835938 7.667969 39.839844 C 7.761719 39.417969 7.867188 38.996094 7.976562 38.574219 C 8.886719 38.492188 9.796875 38.59375 10.707031 38.507812 C 10.816406 38.105469 10.9375 37.707031 11.058594 37.304688 C 9.667969 37.28125 8.277344 37.265625 6.886719 37.300781 M 12.28125 37.300781 C 11.859375 38.867188 11.386719 40.421875 10.96875 41.988281 C 10.742188 42.644531 11.042969 43.46875 11.714844 43.722656 C 12.566406 44.070312 13.554688 44.015625 14.421875 43.738281 C 15.160156 43.503906 15.679688 42.847656 15.890625 42.121094 C 16.363281 40.519531 16.796875 38.902344 17.261719 37.300781 C 16.773438 37.269531 16.28125 37.269531 15.789062 37.304688 C 15.371094 38.867188 14.929688 40.429688 14.464844 41.984375 C 14.214844 42.707031 13.304688 42.769531 12.671875 42.597656 C 12.261719 42.421875 12.445312 41.917969 12.515625 41.589844 C 12.933594 40.164062 13.328125 38.730469 13.75 37.304688 C 13.261719 37.28125 12.769531 37.28125 12.28125 37.300781 M 18.546875 37.308594 C 17.964844 39.5 17.296875 41.671875 16.714844 43.867188 C 17.183594 43.867188 17.652344 43.867188 18.121094 43.878906 C 18.367188 43.195312 18.550781 42.496094 18.722656 41.789062 C 19.050781 41.789062 19.382812 41.789062 19.714844 41.78125 C 20.054688 42.46875 20.363281 43.167969 20.683594 43.867188 C 21.230469 43.867188 21.773438 43.871094 22.316406 43.863281 C 21.976562 43.113281 21.640625 42.367188 21.3125 41.613281 C 22.617188 41.214844 22.875 39.71875 23.054688 38.558594 C 23.105469 37.8125 22.347656 37.351562 21.6875 37.3125 C 20.644531 37.222656 19.59375 37.296875 18.546875 37.308594 M 26.039062 37.316406 C 25.15625 37.527344 24.445312 38.261719 24.234375 39.144531 C 23.964844 40.164062 23.628906 41.167969 23.398438 42.199219 C 23.238281 42.972656 23.847656 43.707031 24.589844 43.859375 C 25.554688 44.050781 26.628906 43.984375 27.5 43.484375 C 28.121094 43.121094 28.4375 42.421875 28.613281 41.75 C 28.835938 40.914062 29.078125 40.085938 29.308594 39.257812 C 29.527344 38.617188 29.261719 37.816406 28.648438 37.5 C 27.863281 37.050781 26.894531 37.113281 26.039062 37.316406 Z M 26.039062 37.316406 "/>
    <path style=" stroke:none;fill-rule:nonzero;fill:rgb(83.921569%,0%,20%);fill-opacity:1;" d="M 63.199219 35.429688 C 68.304688 35.492188 73.414062 35.433594 78.519531 35.464844 C 77.378906 38.839844 76.300781 42.238281 75.183594 45.621094 C 70.214844 45.683594 65.242188 45.585938 60.273438 45.675781 C 60.792969 43.894531 61.304688 42.109375 61.792969 40.320312 L 61.855469 40.25 C 62.390625 39.894531 62.339844 39.265625 62.300781 38.707031 C 62.523438 37.597656 62.902344 36.523438 63.199219 35.429688 M 65.246094 37.34375 C 64.722656 39.535156 63.996094 41.679688 63.46875 43.871094 C 64.5 43.855469 65.539062 43.894531 66.574219 43.851562 C 67.347656 43.789062 68.21875 43.472656 68.523438 42.6875 C 68.90625 41.671875 69.128906 40.605469 69.449219 39.566406 C 69.609375 38.96875 69.761719 38.160156 69.21875 37.707031 C 68.75 37.253906 68.058594 37.277344 67.453125 37.257812 C 66.71875 37.265625 65.976562 37.203125 65.246094 37.34375 M 70.921875 37.335938 C 70.363281 39.523438 69.703125 41.683594 69.121094 43.867188 C 69.605469 43.867188 70.089844 43.867188 70.574219 43.867188 C 70.882812 42.75 71.21875 41.640625 71.496094 40.515625 C 71.550781 40.585938 71.664062 40.726562 71.722656 40.792969 C 72.074219 41.8125 72.261719 42.875 72.65625 43.878906 C 73.171875 43.867188 73.6875 43.867188 74.207031 43.867188 C 73.953125 42.710938 73.449219 41.597656 73.320312 40.425781 C 74.234375 39.398438 75.078125 38.300781 76.089844 37.363281 C 75.480469 37.214844 74.855469 37.230469 74.238281 37.3125 C 73.46875 38.296875 72.664062 39.261719 71.855469 40.214844 C 71.773438 40.257812 71.613281 40.339844 71.535156 40.382812 C 71.8125 39.335938 72.242188 38.316406 72.339844 37.226562 C 71.863281 37.238281 71.390625 37.269531 70.921875 37.335938 M 69.714844 38.300781 C 69.566406 38.546875 69.574219 38.917969 69.734375 39.15625 C 70.015625 39.078125 69.980469 38.386719 69.714844 38.300781 Z M 69.714844 38.300781 "/>
    <path style=" stroke:none;fill-rule:nonzero;fill:rgb(83.921569%,0%,19.607843%);fill-opacity:1;" d="M 33.933594 37.292969 C 35.011719 37.054688 36.136719 37.167969 37.210938 37.40625 C 37.085938 37.820312 36.957031 38.234375 36.8125 38.640625 C 36.023438 38.496094 35.1875 38.300781 34.394531 38.503906 C 33.980469 38.753906 34.054688 39.285156 34.023438 39.695312 C 34.773438 39.984375 35.726562 40.011719 36.253906 40.695312 C 36.429688 41.921875 35.886719 43.570312 34.527344 43.859375 C 33.464844 44.039062 32.34375 43.96875 31.359375 43.523438 C 31.515625 43.15625 31.664062 42.789062 31.804688 42.417969 C 32.644531 42.683594 33.53125 42.785156 34.40625 42.628906 C 34.667969 42.253906 34.734375 41.808594 34.710938 41.363281 C 34.082031 41.128906 33.382812 41.03125 32.820312 40.644531 C 32.28125 40.214844 32.476562 39.4375 32.65625 38.871094 C 32.851562 38.21875 33.175781 37.425781 33.933594 37.292969 Z M 33.933594 37.292969 "/>
    <path style=" stroke:none;fill-rule:nonzero;fill:rgb(83.921569%,0%,19.607843%);fill-opacity:1;" d="M 36.753906 43.878906 C 37.367188 41.65625 37.957031 39.425781 38.648438 37.226562 C 39.761719 37.289062 40.886719 37.148438 41.992188 37.347656 C 42.570312 37.445312 43.144531 37.898438 43.066406 38.542969 C 42.949219 39.472656 42.734375 40.46875 42.140625 41.21875 C 41.238281 42.066406 39.902344 41.832031 38.777344 41.871094 C 38.578125 42.535156 38.386719 43.203125 38.207031 43.875 C 37.722656 43.875 37.238281 43.875 36.753906 43.878906 M 39.71875 38.578125 C 39.507812 39.246094 39.316406 39.921875 39.15625 40.605469 C 39.816406 40.605469 40.492188 40.660156 41.117188 40.410156 C 41.238281 39.847656 41.777344 39.152344 41.371094 38.632812 C 40.824219 38.535156 40.269531 38.585938 39.71875 38.578125 Z M 39.71875 38.578125 "/>
    <path style=" stroke:none;fill-rule:nonzero;fill:rgb(83.921569%,0%,19.607843%);fill-opacity:1;" d="M 48.890625 43.871094 C 49.480469 41.644531 50.066406 39.402344 50.796875 37.21875 C 51.960938 37.320312 53.152344 37.09375 54.292969 37.394531 C 54.878906 37.550781 55.351562 38.097656 55.210938 38.730469 C 54.996094 39.835938 54.742188 41.25 53.488281 41.617188 C 53.808594 42.375 54.148438 43.121094 54.484375 43.867188 C 53.941406 43.875 53.398438 43.867188 52.855469 43.875 C 52.5 43.242188 52.289062 42.539062 51.929688 41.910156 C 51.644531 41.722656 51.144531 41.679688 50.886719 41.910156 C 50.644531 42.554688 50.535156 43.242188 50.289062 43.890625 C 49.824219 43.875 49.355469 43.871094 48.890625 43.871094 M 51.789062 38.605469 C 51.644531 39.242188 51.441406 39.867188 51.277344 40.503906 C 51.882812 40.503906 52.511719 40.589844 53.105469 40.429688 C 53.558594 39.984375 53.667969 39.277344 53.710938 38.660156 C 53.074219 38.550781 52.425781 38.558594 51.789062 38.605469 Z M 51.789062 38.605469 "/>
    <path style=" stroke:none;fill-rule:nonzero;fill:rgb(83.529412%,0%,19.607843%);fill-opacity:1;" d="M 45.945312 37.257812 C 46.847656 37.132812 47.941406 37.023438 48.65625 37.714844 C 49.113281 38.082031 49.191406 38.761719 49.023438 39.296875 C 48.722656 40.308594 48.472656 41.335938 48.136719 42.335938 C 47.800781 43.289062 46.816406 43.871094 45.832031 43.921875 C 45.007812 43.980469 44 44.019531 43.40625 43.332031 C 42.867188 42.648438 43.191406 41.730469 43.417969 40.988281 C 43.738281 40.0625 43.820312 39.027344 44.390625 38.203125 C 44.753906 37.691406 45.335938 37.371094 45.945312 37.257812 M 45.359375 39.308594 C 45.097656 40.34375 44.671875 41.347656 44.597656 42.417969 C 45.183594 42.792969 45.890625 42.6875 46.503906 42.449219 C 46.875 41.921875 46.988281 41.277344 47.164062 40.671875 C 47.335938 40.011719 47.625 39.367188 47.574219 38.671875 C 46.820312 38.273438 45.648438 38.386719 45.359375 39.308594 Z M 45.359375 39.308594 "/>
    <path style=" stroke:none;fill-rule:nonzero;fill:rgb(83.529412%,0%,19.607843%);fill-opacity:1;" d="M 56.207031 37.328125 C 56.449219 37.140625 56.800781 37.277344 57.085938 37.238281 C 58.460938 37.246094 59.835938 37.242188 61.210938 37.238281 C 61.128906 37.703125 61 38.160156 60.816406 38.59375 C 60.226562 38.570312 59.640625 38.574219 59.054688 38.601562 C 58.582031 40.371094 58.101562 42.144531 57.542969 43.890625 C 57.054688 43.875 56.574219 43.871094 56.085938 43.867188 C 56.625 42.117188 57.101562 40.351562 57.597656 38.589844 C 57.015625 38.578125 56.4375 38.578125 55.859375 38.582031 C 55.960938 38.160156 56.007812 37.710938 56.207031 37.328125 Z M 56.207031 37.328125 "/>
    <path style=" stroke:none;fill-rule:nonzero;fill:rgb(99.215686%,100%,99.215686%);fill-opacity:1;" d="M 6.886719 37.300781 C 8.277344 37.265625 9.667969 37.28125 11.058594 37.304688 C 10.9375 37.707031 10.816406 38.105469 10.707031 38.507812 C 9.796875 38.59375 8.886719 38.492188 7.976562 38.574219 C 7.867188 38.996094 7.761719 39.417969 7.667969 39.839844 C 8.488281 39.835938 9.3125 39.796875 10.132812 39.808594 C 10.011719 40.226562 9.890625 40.640625 9.773438 41.058594 C 8.945312 41.078125 8.113281 41.070312 7.28125 41.074219 C 7.140625 41.578125 6.992188 42.078125 6.839844 42.582031 C 7.742188 42.582031 8.644531 42.574219 9.546875 42.59375 C 9.425781 43.019531 9.296875 43.445312 9.164062 43.871094 C 7.800781 43.867188 6.4375 43.867188 5.074219 43.871094 C 5.601562 41.660156 6.320312 39.5 6.886719 37.300781 Z M 6.886719 37.300781 "/>
    <path style=" stroke:none;fill-rule:nonzero;fill:rgb(99.215686%,100%,99.215686%);fill-opacity:1;" d="M 12.28125 37.300781 C 12.769531 37.28125 13.261719 37.28125 13.75 37.304688 C 13.328125 38.730469 12.933594 40.164062 12.515625 41.589844 C 12.445312 41.917969 12.261719 42.421875 12.671875 42.597656 C 13.304688 42.769531 14.214844 42.707031 14.464844 41.984375 C 14.929688 40.429688 15.371094 38.867188 15.789062 37.304688 C 16.28125 37.269531 16.773438 37.269531 17.261719 37.300781 C 16.796875 38.902344 16.363281 40.519531 15.890625 42.121094 C 15.679688 42.847656 15.160156 43.503906 14.421875 43.738281 C 13.554688 44.015625 12.566406 44.070312 11.714844 43.722656 C 11.042969 43.46875 10.742188 42.644531 10.96875 41.988281 C 11.386719 40.421875 11.859375 38.867188 12.28125 37.300781 Z M 12.28125 37.300781 "/>
    <path style=" stroke:none;fill-rule:nonzero;fill:rgb(99.215686%,100%,99.607843%);fill-opacity:1;" d="M 18.546875 37.308594 C 19.59375 37.296875 20.644531 37.222656 21.6875 37.3125 C 22.347656 37.351562 23.105469 37.8125 23.054688 38.558594 C 22.875 39.71875 22.617188 41.214844 21.3125 41.613281 C 21.640625 42.367188 21.976562 43.113281 22.316406 43.863281 C 21.773438 43.871094 21.230469 43.867188 20.683594 43.867188 C 20.363281 43.167969 20.054688 42.46875 19.714844 41.78125 C 19.382812 41.789062 19.050781 41.789062 18.722656 41.789062 C 18.550781 42.496094 18.367188 43.195312 18.121094 43.878906 C 17.652344 43.867188 17.183594 43.867188 16.714844 43.867188 C 17.296875 41.671875 17.964844 39.5 18.546875 37.308594 M 19.632812 38.582031 C 19.476562 39.246094 19.265625 39.898438 19.109375 40.566406 C 19.59375 40.5625 20.078125 40.59375 20.554688 40.53125 C 21.4375 40.464844 21.453125 39.324219 21.542969 38.660156 C 20.914062 38.535156 20.269531 38.515625 19.632812 38.582031 Z M 19.632812 38.582031 "/>
    <path style=" stroke:none;fill-rule:nonzero;fill:rgb(98.823529%,99.607843%,99.215686%);fill-opacity:1;" d="M 26.039062 37.316406 C 26.894531 37.113281 27.863281 37.050781 28.648438 37.5 C 29.261719 37.816406 29.527344 38.617188 29.308594 39.257812 C 29.078125 40.085938 28.835938 40.914062 28.613281 41.75 C 28.4375 42.421875 28.121094 43.121094 27.5 43.484375 C 26.628906 43.984375 25.554688 44.050781 24.589844 43.859375 C 23.847656 43.707031 23.238281 42.972656 23.398438 42.199219 C 23.628906 41.167969 23.964844 40.164062 24.234375 39.144531 C 24.445312 38.261719 25.15625 37.527344 26.039062 37.316406 M 25.644531 39.320312 C 25.382812 40.210938 25.113281 41.101562 24.894531 42.003906 C 24.777344 42.269531 25.015625 42.617188 25.296875 42.625 C 25.964844 42.773438 26.910156 42.644531 27.113281 41.871094 C 27.390625 40.847656 27.757812 39.839844 27.921875 38.789062 C 27.261719 38.191406 25.867188 38.351562 25.644531 39.320312 Z M 25.644531 39.320312 "/>
    <path style=" stroke:none;fill-rule:nonzero;fill:rgb(98.823529%,99.607843%,100%);fill-opacity:1;" d="M 65.246094 37.34375 C 65.976562 37.203125 66.71875 37.265625 67.453125 37.257812 C 68.058594 37.277344 68.75 37.253906 69.21875 37.707031 C 69.761719 38.160156 69.609375 38.96875 69.449219 39.566406 C 69.128906 40.605469 68.90625 41.671875 68.523438 42.6875 C 68.21875 43.472656 67.347656 43.789062 66.574219 43.851562 C 65.539062 43.894531 64.5 43.855469 63.46875 43.871094 C 63.996094 41.679688 64.722656 39.535156 65.246094 37.34375 M 66.46875 38.496094 C 65.996094 39.835938 65.632812 41.214844 65.300781 42.597656 C 65.851562 42.570312 66.441406 42.664062 66.960938 42.433594 C 67.371094 42.167969 67.367188 41.613281 67.527344 41.195312 C 67.707031 40.355469 68.105469 39.546875 68.070312 38.671875 C 67.535156 38.597656 67 38.550781 66.46875 38.496094 Z M 66.46875 38.496094 "/>
    <path style=" stroke:none;fill-rule:nonzero;fill:rgb(99.215686%,99.215686%,100%);fill-opacity:1;" d="M 70.921875 37.335938 C 71.390625 37.269531 71.863281 37.238281 72.339844 37.226562 C 72.242188 38.316406 71.8125 39.335938 71.535156 40.382812 C 71.523438 40.417969 71.503906 40.480469 71.496094 40.515625 C 71.21875 41.640625 70.882812 42.75 70.574219 43.867188 C 70.089844 43.867188 69.605469 43.867188 69.121094 43.867188 C 69.703125 41.683594 70.363281 39.523438 70.921875 37.335938 Z M 70.921875 37.335938 "/>
    <path style=" stroke:none;fill-rule:nonzero;fill:rgb(98.823529%,99.215686%,100%);fill-opacity:1;" d="M 74.238281 37.3125 C 74.855469 37.230469 75.480469 37.214844 76.089844 37.363281 C 75.078125 38.300781 74.234375 39.398438 73.320312 40.425781 C 73.449219 41.597656 73.953125 42.710938 74.207031 43.867188 C 73.6875 43.867188 73.171875 43.867188 72.65625 43.878906 C 72.261719 42.875 72.074219 41.8125 71.722656 40.792969 C 71.664062 40.726562 71.550781 40.585938 71.496094 40.515625 C 71.503906 40.480469 71.523438 40.417969 71.535156 40.382812 C 71.613281 40.339844 71.773438 40.257812 71.855469 40.214844 C 72.664062 39.261719 73.46875 38.296875 74.238281 37.3125 Z M 74.238281 37.3125 "/>
    <path style=" stroke:none;fill-rule:nonzero;fill:rgb(69.411765%,3.529412%,20.784314%);fill-opacity:1;" d="M 69.714844 38.300781 C 69.980469 38.386719 70.015625 39.078125 69.734375 39.15625 C 69.574219 38.917969 69.566406 38.546875 69.714844 38.300781 Z M 69.714844 38.300781 "/>
    <path style=" stroke:none;fill-rule:nonzero;fill:rgb(83.137255%,0%,19.607843%);fill-opacity:1;" d="M 66.46875 38.496094 C 67 38.550781 67.535156 38.597656 68.070312 38.671875 C 68.105469 39.546875 67.707031 40.355469 67.527344 41.195312 C 67.367188 41.613281 67.371094 42.167969 66.960938 42.433594 C 66.441406 42.664062 65.851562 42.570312 65.300781 42.597656 C 65.632812 41.214844 65.996094 39.835938 66.46875 38.496094 Z M 66.46875 38.496094 "/>
    <path style=" stroke:none;fill-rule:nonzero;fill:rgb(0%,24.313725%,44.313725%);fill-opacity:1;" d="M 19.632812 38.582031 C 20.269531 38.515625 20.914062 38.535156 21.542969 38.660156 C 21.453125 39.324219 21.4375 40.464844 20.554688 40.53125 C 20.078125 40.59375 19.59375 40.5625 19.109375 40.566406 C 19.265625 39.898438 19.476562 39.246094 19.632812 38.582031 Z M 19.632812 38.582031 "/>
    <path style=" stroke:none;fill-rule:nonzero;fill:rgb(0%,24.705882%,45.098039%);fill-opacity:1;" d="M 25.644531 39.320312 C 25.867188 38.351562 27.261719 38.191406 27.921875 38.789062 C 27.757812 39.839844 27.390625 40.847656 27.113281 41.871094 C 26.910156 42.644531 25.964844 42.773438 25.296875 42.625 C 25.015625 42.617188 24.777344 42.269531 24.894531 42.003906 C 25.113281 41.101562 25.382812 40.210938 25.644531 39.320312 Z M 25.644531 39.320312 "/>
    <path style=" stroke:none;fill-rule:nonzero;fill:rgb(69.803922%,4.705882%,20.392157%);fill-opacity:1;" d="M 62.300781 38.707031 C 62.339844 39.265625 62.390625 39.894531 61.855469 40.25 C 61.949219 39.722656 62.109375 39.207031 62.300781 38.707031 Z M 62.300781 38.707031 "/>
    <path style=" stroke:none;fill-rule:nonzero;fill:rgb(73.72549%,75.294118%,76.470588%);fill-opacity:1;" d="M 47.675781 50.082031 C 48.308594 49.367188 48.890625 48.609375 49.550781 47.921875 C 49.578125 48.644531 49.570312 49.367188 49.550781 50.09375 C 50.445312 50.117188 51.339844 50.074219 52.230469 50.121094 C 51.363281 50.597656 50.421875 50.921875 49.554688 51.410156 C 49.5625 52.144531 49.558594 52.875 49.542969 53.609375 C 48.921875 53.140625 48.3125 52.65625 47.648438 52.25 C 46.65625 52.65625 45.714844 53.167969 44.730469 53.59375 C 45.285156 52.832031 45.921875 52.132812 46.539062 51.425781 C 45.960938 50.996094 45.324219 50.632812 44.816406 50.109375 C 45.769531 50.089844 46.722656 50.117188 47.675781 50.082031 Z M 47.675781 50.082031 "/>
  </g>
</svg>