<?xml version="1.0" encoding="UTF-8" standalone="no"?>
<!-- Created with Inkscape (http://www.inkscape.org/) -->

<svg
   xmlns:dc="http://purl.org/dc/elements/1.1/"
   xmlns:cc="http://creativecommons.org/ns#"
   xmlns:rdf="http://www.w3.org/1999/02/22-rdf-syntax-ns#"
   xmlns:svg="http://www.w3.org/2000/svg"
   xmlns="http://www.w3.org/2000/svg"
   xmlns:sodipodi="http://sodipodi.sourceforge.net/DTD/sodipodi-0.dtd"
   xmlns:inkscape="http://www.inkscape.org/namespaces/inkscape"
   width="372.4726"
   height="82.15799"
   id="svg10128"
   version="1.1"
   inkscape:version="0.48.2 r9819"
   sodipodi:docname="AJAX.svg">
  <defs
     id="defs10130">
    <inkscape:perspective
       sodipodi:type="inkscape:persp3d"
       inkscape:vp_x="0 : 526.18109 : 1"
       inkscape:vp_y="0 : 1000 : 0"
       inkscape:vp_z="744.09448 : 526.18109 : 1"
       inkscape:persp3d-origin="372.04724 : 350.78739 : 1"
       id="perspective10136" />
    <inkscape:perspective
       id="perspective10062"
       inkscape:persp3d-origin="0.5 : 0.33333333 : 1"
       inkscape:vp_z="1 : 0.5 : 1"
       inkscape:vp_y="0 : 1000 : 0"
       inkscape:vp_x="0 : 0.5 : 1"
       sodipodi:type="inkscape:persp3d" />
  </defs>
  <sodipodi:namedview
     id="base"
     pagecolor="#ffffff"
     bordercolor="#666666"
     borderopacity="1.0"
     inkscape:pageopacity="0.0"
     inkscape:pageshadow="2"
     inkscape:zoom="2.8284271"
     inkscape:cx="111.57374"
     inkscape:cy="43.178694"
     inkscape:document-units="px"
     inkscape:current-layer="layer1"
     showgrid="false"
     inkscape:window-width="1280"
     inkscape:window-height="1004"
     inkscape:window-x="-8"
     inkscape:window-y="-8"
     inkscape:window-maximized="1"
     fit-margin-top="0"
     fit-margin-left="0"
     fit-margin-right="0"
     fit-margin-bottom="0" />
  <metadata
     id="metadata10133">
    <rdf:RDF>
      <cc:Work
         rdf:about="">
        <dc:format>image/svg+xml</dc:format>
        <dc:type
           rdf:resource="http://purl.org/dc/dcmitype/StillImage" />
      </cc:Work>
    </rdf:RDF>
  </metadata>
  <g
     inkscape:label="Layer 1"
     inkscape:groupmode="layer"
     id="layer1"
     transform="translate(-191.26369,-484.12656)">
    <g
       id="g7044"
       transform="matrix(9.8075661,0,0,-9.8075661,555.5764,499.44394)"
       style="fill:#dbdddc;fill-opacity:1">
      <path
         d="M 0,0 C -2.164,-1.622 -3.303,-3.274 -3.928,-4.182 -4.117,-4.457 -4.313,-4.74 -4.389,-4.788 l -0.039,-0.009 -0.056,0.352 -0.004,0.073 0,0.006 c -0.01,0.081 -0.016,0.177 -0.016,0.285 0,0.751 0.221,2.073 0.371,2.987 0.071,0.422 0.117,0.697 0.137,0.871 0.146,0.017 0.373,0.025 0.541,0.016 -0.28,-0.639 -0.727,-2.065 -0.727,-2.836 0,-0.188 0.027,-0.337 0.088,-0.425 l 0.162,-0.229 0.621,0.721 c 0.618,0.72 2.248,2.623 2.484,2.791 C -0.684,-0.119 -0.291,-0.032 0,0 m -1.022,0.207 c -0.15,-0.07 -0.596,-0.538 -2.619,-2.899 L -3.735,-2.8 c 0.098,0.765 0.536,2.256 0.778,2.621 l 0.078,0.116 -0.073,0.121 c -0.058,0.09 -0.157,0.179 -0.689,0.175 -0.08,0 -0.492,-0.007 -0.65,-0.079 l -0.133,-0.06 0.006,-0.147 c 0.002,-0.086 -0.072,-0.535 -0.145,-0.97 -0.187,-1.133 -0.445,-2.685 -0.359,-3.396 l -0.002,0.014 0.004,-0.06 c 0.01,-0.216 0.024,-0.544 0.25,-0.697 0.082,-0.056 0.224,-0.109 0.431,-0.036 0.184,0.063 0.348,0.299 0.671,0.769 0.642,0.934 1.839,2.672 4.169,4.33 l 0.07,0.049 0.017,0.084 C 0.713,0.155 0.671,0.271 0.576,0.347 0.238,0.613 -0.889,0.271 -1.022,0.207"
         style="fill:#dbdddc;fill-opacity:1;fill-rule:nonzero;stroke:none"
         id="path7046"
         inkscape:connector-curvature="0" />
    </g>
    <g
       id="g7048"
       transform="matrix(9.8075661,0,0,-9.8075661,555.5764,499.44394)"
       style="fill:#dbdddc;fill-opacity:1">
      <path
         d="m 0,0 0.082,-0.109 c -2.147,-1.61 -3.274,-3.244 -3.898,-4.15 -0.094,-0.138 -0.191,-0.278 -0.275,-0.392 -0.089,-0.117 -0.144,-0.196 -0.225,-0.252 l -0.02,-0.013 -0.061,-0.014 -0.143,-0.033 -0.079,0.497 -0.001,0.006 -0.004,0.081 -0.001,0.003 0,0.01 0.137,0 -0.135,-0.017 c -0.011,0.088 -0.018,0.189 -0.018,0.302 0.001,0.773 0.223,2.093 0.373,3.009 0.071,0.422 0.117,0.697 0.136,0.865 l 0.013,0.107 0.107,0.013 c 0.112,0.013 0.262,0.02 0.403,0.02 l 0.161,-0.004 0.197,-0.01 -0.079,-0.181 c -0.274,-0.619 -0.719,-2.054 -0.716,-2.781 -10e-4,-0.175 0.031,-0.304 0.064,-0.347 l -10e-4,0.001 0.062,-0.087 0.507,0.589 c 0.308,0.36 0.871,1.016 1.386,1.603 0.257,0.294 0.503,0.571 0.7,0.786 0.2,0.216 0.337,0.361 0.422,0.424 l 0.01,0.008 0.012,0.005 c 0.177,0.079 0.562,0.161 0.869,0.197 L 0.481,0.19 0.082,-0.109 0,0 0.015,-0.136 C -0.26,-0.164 -0.661,-0.256 -0.77,-0.309 l -0.057,0.124 0.079,-0.111 c -0.033,-0.022 -0.188,-0.177 -0.379,-0.387 -0.584,-0.636 -1.617,-1.842 -2.08,-2.382 l -0.736,-0.853 -0.262,0.371 -0.001,0.001 c -0.089,0.133 -0.111,0.302 -0.113,0.503 0.004,0.815 0.453,2.232 0.739,2.891 l 0.125,-0.055 -0.007,-0.136 -0.147,0.003 c -0.131,0 -0.274,-0.007 -0.371,-0.019 l -0.016,0.136 0.136,-0.016 c -0.021,-0.18 -0.067,-0.455 -0.138,-0.878 -0.15,-0.912 -0.37,-2.236 -0.37,-2.964 0,-0.103 0.006,-0.194 0.015,-0.268 l 10e-4,-0.009 0,-0.01 0.004,-0.062 0.055,-0.346 -0.135,-0.021 -0.031,0.133 0.039,0.009 0.031,-0.133 -0.073,0.115 10e-4,0.001 c 0.051,0.039 0.248,0.314 0.42,0.567 0.627,0.91 1.778,2.58 3.959,4.214 L 0,0 0.015,-0.136 0,0 z M -1.022,0.207 -0.964,0.083 C -0.99,0.077 -1.152,-0.058 -1.528,-0.475 -1.909,-0.894 -2.526,-1.601 -3.537,-2.781 l 10e-4,0.001 -0.096,-0.11 -0.296,-0.339 0.058,0.446 c 0.051,0.396 0.186,0.963 0.339,1.482 0.156,0.522 0.32,0.982 0.46,1.197 l 0.03,0.045 -0.028,0.046 0.117,0.071 -0.115,-0.074 -0.09,0.066 c -0.069,0.024 -0.207,0.047 -0.45,0.047 L -3.64,0.096 C -3.678,0.097 -3.799,0.095 -3.926,0.084 -4.051,0.076 -4.191,0.052 -4.234,0.03 l -0.05,-0.023 0.002,-0.054 0,-0.001 0,-0.003 0.001,-0.006 c -0.002,-0.129 -0.075,-0.553 -0.147,-0.989 -0.162,-0.976 -0.375,-2.269 -0.375,-3.039 0,-0.121 0.006,-0.228 0.016,-0.318 l -0.27,-0.035 -0.002,0.014 0.135,0.019 0.136,0.009 0.004,-0.06 0,-0.002 0,-10e-4 c 0.006,-0.219 0.039,-0.499 0.191,-0.59 l 0.161,-0.048 0.148,0.028 10e-4,0 c 0.107,0.026 0.284,0.244 0.602,0.717 0.644,0.936 1.854,2.694 4.203,4.364 l 0.026,0.019 0.006,0.03 0.005,0.041 -0.068,0.138 0.001,0 C 0.446,0.28 0.319,0.312 0.159,0.31 -0.054,0.311 -0.318,0.265 -0.537,0.212 -0.753,0.16 -0.938,0.097 -0.963,0.084 L -0.964,0.083 -1.022,0.207 -1.081,0.33 c 0.072,0.033 0.246,0.09 0.48,0.147 0.232,0.056 0.51,0.106 0.76,0.106 C 0.346,0.582 0.522,0.56 0.66,0.454 l 0.001,0 C 0.769,0.368 0.832,0.238 0.832,0.102 L 0.822,0.006 0.805,-0.077 0.794,-0.131 0.679,-0.211 c -2.31,-1.645 -3.494,-3.363 -4.135,-4.295 -0.327,-0.467 -0.478,-0.721 -0.739,-0.821 l 0.001,0 -0.238,-0.043 c -0.137,0 -0.244,0.047 -0.315,0.095 -0.3,0.215 -0.295,0.591 -0.309,0.804 l 0.136,0.006 -0.136,-0.009 -0.004,0.06 0.271,0.028 0.002,-0.014 -0.135,-0.019 -0.136,-0.016 c -0.012,0.104 -0.018,0.221 -0.018,0.35 10e-4,0.813 0.217,2.104 0.378,3.084 0.072,0.424 0.145,0.885 0.144,0.944 l -10e-4,0.002 0.137,0.002 -0.136,-0.006 -0.006,0.147 -0.004,0.092 0.217,0.098 c 0.114,0.05 0.259,0.066 0.399,0.079 0.139,0.011 0.264,0.012 0.307,0.012 l 0.034,0.001 c 0.259,-0.001 0.421,-0.022 0.54,-0.063 0.118,-0.038 0.195,-0.117 0.23,-0.175 l 0.001,-0.002 0.074,-0.123 0.045,-0.074 -0.127,-0.188 10e-4,0.001 C -2.945,-0.404 -3.121,-0.872 -3.269,-1.378 -3.42,-1.887 -3.553,-2.448 -3.6,-2.817 l -0.135,0.017 -0.103,0.09 0.094,0.108 -10e-4,-0.002 0,10e-4 c 1.012,1.181 1.63,1.888 2.015,2.311 0.39,0.425 0.526,0.559 0.65,0.623 L -1.022,0.207 -1.081,0.33 -1.022,0.207 z"
         style="fill:#dbdddc;fill-opacity:1;fill-rule:nonzero;stroke:none"
         id="path7050"
         inkscape:connector-curvature="0" />
    </g>
    <g
       id="g7052"
       transform="matrix(9.8075661,0,0,-9.8075661,497.88053,489.99148)"
       style="fill:#dbdddc;fill-opacity:1">
      <path
         d="M 0,0 0.006,0 0.01,0 C 1.067,0.023 2.58,0.036 3.029,0.005 L 3.031,-0.113 3.028,-0.345 3.027,-0.401 C 2.694,-0.411 1.354,-0.452 1.354,-0.452 L 1.29,-0.534 c -0.081,-0.108 -1.944,-2.572 -2.081,-5.194 -0.092,10e-4 -0.186,0.004 -0.261,0.008 -0.014,0.078 -0.028,0.197 -0.028,0.36 0,0.21 0.023,0.493 0.1,0.858 0.205,0.986 1.449,3.571 1.57,3.762 L 0.559,-0.777 0.832,-0.471 0.443,-0.396 C 0.362,-0.387 0.076,-0.389 -0.658,-0.398 -0.88,-0.401 -1.142,-0.404 -1.41,-0.407 l 0.065,0.09 -0.131,0.13 c -0.045,0.045 -0.068,0.068 -0.186,0.066 -0.068,0.004 -0.225,0.017 -0.414,0.035 l -0.02,0.112 C -1.482,0.027 -0.648,0.016 0,0 m -3.033,0.204 -1.392,-0.435 1.187,-0.381 2.586,-0.223 c 0,0 0.509,0.008 0.707,0.009 -0.235,-0.468 -0.564,-1.2 -0.582,-1.244 -0.336,-0.75 -0.76,-1.767 -0.881,-2.342 -0.082,-0.397 -0.109,-0.71 -0.109,-0.951 0,-0.422 0.082,-0.623 0.097,-0.656 l 0.053,-0.119 0.131,-0.008 c 0.016,-0.001 0.412,-0.029 0.668,-0.014 l 0.203,0.012 0.002,0.203 c 0.035,2.298 1.611,4.605 1.94,5.062 0.189,0.006 1.946,0.061 1.946,0.061 l -0.06,0.249 0,0.054 0.002,0.165 c 0.002,0.093 0.002,0.172 0.002,0.24 0,0.235 -0.013,0.34 -0.056,0.414 C 3.334,0.434 3.314,0.47 1.592,0.458 0.821,0.453 0.049,0.438 0.004,0.437 L -1.455,0.461 C -3.014,0.475 -3.033,0.204 -3.033,0.204"
         style="fill:#dbdddc;fill-opacity:1;fill-rule:nonzero;stroke:none"
         id="path7054"
         inkscape:connector-curvature="0" />
    </g>
    <g
       id="g7056"
       transform="matrix(9.8075661,0,0,-9.8075661,497.88053,489.99148)"
       style="fill:#dbdddc;fill-opacity:1">
      <path
         d="m 0,0 0,0.137 0.006,0 0.004,0 L 0.01,0 0.007,0.136 C 0.62,0.15 1.386,0.16 2.011,0.16 c 0.454,0 0.83,-0.005 1.027,-0.019 l 0.125,-0.008 0.004,-0.244 0,-0.002 -0.003,-0.234 0,-0.003 L 3.163,-0.403 3.161,-0.534 3.031,-0.537 C 2.698,-0.547 1.36,-0.588 1.358,-0.588 L 1.354,-0.452 1.462,-0.536 1.398,-0.618 1.29,-0.534 1.399,-0.616 C 1.322,-0.715 -0.524,-3.171 -0.655,-5.735 l -0.007,-0.131 -0.13,10e-4 c -0.094,0.002 -0.19,0.005 -0.267,0.009 l -0.108,0.005 -0.019,0.107 c -0.016,0.086 -0.031,0.213 -0.031,0.384 0,0.22 0.025,0.513 0.103,0.886 0.22,1.031 1.451,3.583 1.589,3.807 L 0.59,-0.74 0.695,-0.828 0.664,-0.865 0.559,-0.777 0.457,-0.686 0.57,-0.56 0.417,-0.53 0.443,-0.396 0.428,-0.532 c -0.022,0.003 -0.1,0.005 -0.236,0.005 -0.172,0 -0.441,-0.003 -0.848,-0.007 -0.222,-0.003 -0.484,-0.006 -0.752,-0.01 l -0.271,-0.003 0.155,0.215 -0.048,0.048 -0.023,0.022 -0.053,0.005 -0.012,0 -0.005,-0.001 -0.005,0.001 c -0.072,0.004 -0.229,0.017 -0.419,0.035 l -0.103,0.01 -0.038,0.214 -0.029,0.16 0.163,0 0.079,0.001 c 0.607,0 1.398,-0.011 2.02,-0.027 L 0,0 0,0.137 0,0 -0.003,-0.136 c -0.62,0.015 -1.411,0.026 -2.014,0.026 l -0.079,-0.001 0,0.137 0.134,0.024 0.02,-0.112 -0.134,-0.024 0.013,0.136 c 0.188,-0.018 0.345,-0.031 0.409,-0.035 l -0.008,-0.136 -0.002,0.136 0.016,0.001 c 0.119,0.011 0.235,-0.059 0.268,-0.106 l 0.131,-0.13 0.083,-0.082 -0.133,-0.185 -0.111,0.08 -0.002,0.136 c 0.268,0.003 0.53,0.006 0.752,0.009 0.408,0.005 0.677,0.008 0.852,0.008 0.14,0 0.216,-0.001 0.266,-0.006 l 0.006,-0.001 0.394,-0.076 0.236,-0.045 -0.433,-0.486 -0.207,0.179 0.031,0.037 0.22,-0.161 c -0.104,-0.158 -1.361,-2.776 -1.551,-3.717 -0.076,-0.357 -0.097,-0.63 -0.098,-0.83 0,-0.155 0.014,-0.266 0.026,-0.336 l -0.134,-0.024 0.007,0.136 0.255,-0.008 -0.001,-0.136 -0.136,0.007 c 0.143,2.68 2.023,5.152 2.108,5.269 l 10e-4,0.001 0.064,0.083 0.04,0.05 0.064,0.002 c 0,0 1.34,0.041 1.673,0.051 l 0.004,-0.136 -0.136,0.002 10e-4,0.056 0,0.003 0.002,0.227 L 2.893,0.003 3.029,0.005 3.02,-0.131 c -0.181,0.012 -0.559,0.018 -1.009,0.018 -0.622,0 -1.387,-0.01 -1.998,-0.023 l -10e-4,-0.001 -0.006,0 -0.006,0 -0.002,0 -0.001,0.001 L 0,0 z m -3.033,0.204 0.041,-0.13 -0.981,-0.307 0.762,-0.244 2.571,-0.222 -0.012,-0.136 -0.002,0.136 c 0,0 0.509,0.008 0.708,0.01 l 0.223,0.001 -0.1,-0.199 c -0.232,-0.462 -0.564,-1.2 -0.578,-1.235 l -0.001,-0.002 0,-0.002 c -0.335,-0.745 -0.758,-1.765 -0.872,-2.314 -0.081,-0.389 -0.107,-0.692 -0.107,-0.923 0.001,-0.404 0.079,-0.585 0.085,-0.6 l 0.02,-0.044 0.048,-0.003 c 0.014,-0.001 0.26,-0.018 0.485,-0.018 l 0.167,0.004 0.076,0.005 0,0.075 0.001,0.001 c 0.04,2.357 1.631,4.672 1.965,5.14 l 0.039,0.054 0.068,0.002 c 0.189,0.006 1.946,0.061 1.946,0.061 l 0.004,-0.136 -0.133,-0.032 -0.06,0.249 -0.004,0.016 0,0.07 0,0.001 0.002,0.166 0.001,0.001 C 3.33,-0.26 3.33,-0.182 3.33,-0.114 3.332,0.119 3.313,0.202 3.293,0.231 L 3.273,0.262 C 3.266,0.283 3.016,0.33 2.133,0.324 1.974,0.324 1.796,0.323 1.593,0.322 0.823,0.317 0.051,0.302 0.007,0.301 L 0.004,0.3 l -1.459,0.024 -10e-4,0.001 -0.114,0 c -0.714,0 -1.069,-0.065 -1.229,-0.121 L -2.911,0.147 -2.934,0.17 -2.906,0.157 -2.911,0.147 -2.934,0.17 -2.906,0.157 -3.001,0.202 -2.897,0.194 -2.906,0.157 -3.001,0.202 -2.897,0.194 -2.903,0.102 -2.992,0.074 l -0.041,0.13 -0.136,0.01 c 0.004,0.073 0.075,0.18 0.281,0.248 0.211,0.072 0.587,0.136 1.318,0.136 l 0.116,-0.001 10e-4,0 L 0.006,0.573 0.004,0.437 0.001,0.573 C 0.047,0.574 0.819,0.589 1.591,0.594 1.794,0.596 1.974,0.597 2.133,0.597 2.728,0.596 3.031,0.587 3.212,0.559 3.303,0.545 3.369,0.526 3.426,0.488 L 3.529,0.368 C 3.595,0.25 3.602,0.123 3.603,-0.114 c 0,-0.068 0,-0.148 -0.002,-0.243 l 10e-4,0.003 -0.003,-0.167 -0.136,0.002 0.136,0 0,-0.038 0.057,-0.233 0.039,-0.163 -0.168,-0.005 c -0.002,0 -1.757,-0.055 -1.946,-0.061 l -0.004,0.136 0.111,-0.08 C 1.363,-1.409 -0.197,-3.708 -0.227,-5.947 L -0.229,-6.149 -0.23,-6.277 -0.56,-6.296 -0.743,-6.301 c -0.237,0 -0.49,0.018 -0.502,0.019 l -0.13,0.008 -0.083,0.005 -0.087,0.194 10e-4,-10e-4 0,10e-4 c -0.024,0.051 -0.11,0.272 -0.11,0.712 0,0.251 0.029,0.574 0.112,0.979 0.128,0.601 0.553,1.615 0.89,2.37 l 0.125,-0.056 -0.126,0.052 c 0.022,0.053 0.348,0.779 0.586,1.253 l 0.122,-0.061 0.001,-0.137 c -0.197,0 -0.705,-0.008 -0.706,-0.008 l -0.007,-0.001 -2.608,0.225 -1.612,0.518 1.803,0.563 0.041,-0.13 -0.136,0.01 0.136,-0.01 z"
         style="fill:#dbdddc;fill-opacity:1;fill-rule:nonzero;stroke:none"
         id="path7058"
         inkscape:connector-curvature="0" />
    </g>
    <g
       id="g7060"
       transform="matrix(9.8075661,0,0,-9.8075661,470.58403,501.30243)"
       style="fill:#dbdddc;fill-opacity:1">
      <path
         d="M 0,0 C 0.078,-0.005 1.365,-0.104 1.461,-1.562 1.342,-2.921 0.136,-3.076 0.084,-3.082 l -0.364,-0.041 0.21,-0.302 c 0,0 1.241,-1.771 1.603,-2.292 l -0.687,0 c -0.122,0.167 -2.229,3.05 -2.229,3.05 l 0,-3.059 -0.672,0 0,5.726 L 0,0 z m 0.008,0.436 -2.499,0 0,-6.597 1.545,0 0,2.158 c 0.495,-0.678 1.569,-2.149 1.569,-2.149 l 1.748,0 c 0,0 -1.607,2.297 -1.902,2.718 0.482,0.16 1.329,0.612 1.428,1.854 l 10e-4,0.015 -10e-4,0.014 C 1.787,0.332 0.035,0.435 0.018,0.436 l -0.005,0 -0.005,0 z"
         style="fill:#dbdddc;fill-opacity:1;fill-rule:nonzero;stroke:none"
         id="path7062"
         inkscape:connector-curvature="0" />
    </g>
    <g
       id="g7064"
       transform="matrix(9.8075661,0,0,-9.8075661,470.58397,501.3025)"
       style="fill:#dbdddc;fill-opacity:1">
      <path
         d="M 0,0 0.009,0.136 C 0.059,0.132 0.421,0.106 0.794,-0.119 1.169,-0.342 1.549,-0.783 1.597,-1.553 L 1.598,-1.563 1.597,-1.574 C 1.536,-2.294 1.172,-2.719 0.822,-2.944 0.471,-3.171 0.138,-3.213 0.1,-3.218 l -0.137,-0.015 0.079,-0.114 c 0,0 1.241,-1.771 1.603,-2.292 l 0.149,-0.215 -0.948,0 -0.069,0 -0.041,0.056 c -0.122,0.167 -2.227,3.047 -2.229,3.05 l 0.11,0.081 0.136,0 0,-3.196 -0.808,0 -0.137,0 0,5.999 2.196,0 0.005,0 L 0,0 l 0,-0.137 -1.919,0 0,-5.453 0.399,0 0,3.341 0.247,-0.337 c 0,0 2.107,-2.883 2.229,-3.05 l -0.11,-0.081 0,0.136 0.687,0 0,-0.136 -0.112,-0.078 c -0.362,0.521 -1.601,2.289 -1.603,2.292 l -0.21,0.302 -0.131,0.188 0.592,0.067 c 0.013,0.001 0.309,0.039 0.604,0.231 0.295,0.194 0.594,0.526 0.652,1.165 L 1.461,-1.562 1.325,-1.571 c -0.048,0.688 -0.359,1.026 -0.672,1.218 -0.313,0.19 -0.634,0.216 -0.662,0.217 L 0,0 0,-0.137 0,0 z m 0.008,0.436 0,-0.137 -2.363,0 0,-6.324 1.272,0 0,2.44 0.247,-0.338 c 0.495,-0.678 1.568,-2.146 1.569,-2.149 l -0.11,-0.08 0,0.136 1.748,0 0,-0.136 -0.112,-0.078 c -0.002,0.002 -1.607,2.297 -1.902,2.718 l -0.105,0.15 0.174,0.058 c 0.458,0.157 1.239,0.561 1.335,1.735 l 0.136,-0.011 -0.136,0.009 0,0.006 0,0.004 0,10e-4 0,0.001 C 1.705,-0.661 1.278,-0.218 0.855,0.03 0.431,0.275 0.01,0.299 0.01,0.3 l 0.008,0.136 0,-0.137 -0.005,0 -0.005,0 0,0.137 0,0.136 0.005,0 0.005,0 0.004,0 0.004,0 C 0.046,0.571 0.507,0.544 0.991,0.267 1.475,-0.008 1.979,-0.558 2.033,-1.543 l -0.136,-0.008 0.136,0.01 10e-4,-0.014 0.001,-0.01 -0.002,-0.024 0,-0.001 0,-10e-4 C 1.931,-2.901 1.018,-3.401 0.512,-3.564 l -0.043,0.13 0.112,0.078 c 0.295,-0.421 1.902,-2.718 1.902,-2.718 l 0.15,-0.215 -2.079,0 -0.041,0.057 c 0,0 -1.074,1.47 -1.569,2.149 l 0.11,0.08 0.136,0 0,-2.295 -1.818,0 0,6.87 2.636,0 0,-0.136 z"
         style="fill:#dbdddc;fill-opacity:1;fill-rule:nonzero;stroke:none"
         id="path7066"
         inkscape:connector-curvature="0" />
    </g>
    <g
       id="g7068"
       transform="matrix(9.8075661,0,0,-9.8075661,467.481,511.84769)"
       style="fill:#dbdddc;fill-opacity:1">
      <path
         d="M 0,0 C 0.096,0.01 0.379,0.004 0.543,-0.143 0.639,-0.228 0.686,-0.354 0.688,-0.527 0.689,-0.696 0.646,-0.818 0.554,-0.9 0.388,-1.049 0.082,-1.048 -0.021,-1.035 l -0.012,0.002 -0.016,0 -0.58,0 c -0.002,0.261 -0.002,0.771 -0.002,1.033 0.236,0 0.618,-0.001 0.618,-0.001 L 0,0 z m -0.033,0.435 -1.034,0.002 0.002,-1.906 1.004,0 c 0.104,-0.012 0.579,-0.047 0.903,0.24 0.131,0.117 0.287,0.333 0.283,0.707 -0.004,0.3 -0.104,0.539 -0.295,0.708 -0.316,0.28 -0.774,0.255 -0.863,0.249"
         style="fill:#dbdddc;fill-opacity:1;fill-rule:nonzero;stroke:none"
         id="path7070"
         inkscape:connector-curvature="0" />
    </g>
    <g
       id="g7072"
       transform="matrix(9.8075661,0,0,-9.8075661,467.481,511.84795)"
       style="fill:#dbdddc;fill-opacity:1">
      <path
         d="M 0,0 -0.014,0.136 0.069,0.14 C 0.213,0.137 0.45,0.118 0.634,-0.041 c 0.132,-0.116 0.19,-0.29 0.19,-0.484 l 0.001,-0.004 -0.001,0.003 0,-0.007 C 0.826,-0.72 0.773,-0.889 0.645,-1.002 0.466,-1.156 0.233,-1.174 0.079,-1.177 l -0.117,0.007 -0.003,0 -0.003,0 -0.005,0 -0.58,0 -0.135,0 -0.002,0.136 C -0.768,-0.772 -0.768,-0.262 -0.768,0 l 0,0.137 0.137,0 c 0.236,0 0.618,-0.002 0.618,-0.002 l 0,-0.136 -0.011,0.136 0.013,0.001 L 0,0 -0.014,0.136 0,0 l 0.011,-0.136 -0.013,-0.001 -0.006,-0.001 -0.005,0 c -0.001,0 -0.382,0.001 -0.618,0.001 l 0,0.137 0.136,0 c 0,-0.262 0,-0.772 0.002,-1.032 l -0.136,-10e-4 0,0.137 0.58,0 0.016,0 0.011,0 0.023,-0.004 -0.022,-0.135 0.017,0.135 0.083,-0.004 c 0.121,-0.003 0.308,0.031 0.384,0.106 0.054,0.049 0.087,0.12 0.088,0.265 l 0,0.005 0,-0.001 c -0.003,0.152 -0.039,0.23 -0.098,0.284 -0.085,0.082 -0.275,0.114 -0.384,0.112 l -0.055,-0.003 -0.002,0 -0.001,0 L 0,0 z m -0.033,0.435 0,-0.137 -0.897,0.002 0.001,-1.633 0.868,0 0.008,0 0.008,0 0.135,-0.007 c 0.178,-10e-4 0.466,0.037 0.661,0.213 0.107,0.098 0.236,0.265 0.238,0.591 L 0.988,-0.523 0.989,-0.524 C 0.984,-0.252 0.899,-0.058 0.74,0.084 0.533,0.27 0.225,0.303 0.065,0.302 l -0.089,-0.003 -0.005,-0.001 -0.004,0 0,0.137 -0.009,0.136 0.107,0.004 C 0.254,0.574 0.626,0.546 0.921,0.288 1.143,0.092 1.258,-0.192 1.261,-0.52 l 0,-0.002 0,0.001 0.001,-0.015 C 1.263,-0.941 1.085,-1.198 0.933,-1.331 0.652,-1.577 0.3,-1.612 0.09,-1.613 l -0.167,0.008 0.016,0.136 0,-0.136 -1.004,0 -0.136,0 -0.003,2.179 1.171,-0.002 0,-0.137 -0.009,0.136 0.009,-0.136 z"
         style="fill:#dbdddc;fill-opacity:1;fill-rule:nonzero;stroke:none"
         id="path7074"
         inkscape:connector-curvature="0" />
    </g>
    <g
       id="g7076"
       transform="matrix(9.8075661,0,0,-9.8075661,444.63824,501.484)"
       style="fill:#dbdddc;fill-opacity:1">
      <path
         d="m 0,0 0,-0.582 -2.499,0 0,-1.935 2.473,0 0,-0.573 -2.482,0 0,-2.026 2.517,0 0,-0.609 -3.181,0 c 0,0.391 -0.007,5.333 -0.008,5.725 L 0,0 z m 0.218,0.436 -3.834,0 0.01,-6.597 4.051,0 0,1.481 -2.516,0 0,1.154 2.48,0 0,1.445 -2.472,0 0,1.063 2.5,0 0,1.454 -0.219,0 z"
         style="fill:#dbdddc;fill-opacity:1;fill-rule:nonzero;stroke:none"
         id="path7078"
         inkscape:connector-curvature="0" />
    </g>
    <g
       id="g7080"
       transform="matrix(9.8075661,0,0,-9.8075661,444.64749,501.4845)"
       style="fill:#dbdddc;fill-opacity:1">
      <path
         d="m 0,0 0.137,0 0,-0.582 0,-0.137 -2.5,0 0,-1.662 2.474,0 0,-0.709 0,-0.137 -2.483,0 0,-1.753 2.517,0 0,-0.745 0,-0.137 -3.454,0 0,0.137 c 0,0.391 -0.007,5.333 -0.007,5.725 l -0.001,0.137 3.454,0 L 0.137,0 0,0 l 0,-0.137 -3.18,0 0,0.137 0.136,0 c 0.002,-0.392 0.008,-5.334 0.008,-5.725 l -0.136,0 0,0.136 3.044,0 0,0.336 -2.517,0 0,2.299 2.482,0 0,0.3 -2.472,0 0,2.209 2.498,0 0,0.445 L 0,0 0,-0.137 0,0 z m 0.218,0.436 0,-0.137 -3.697,0 0.009,-6.324 3.779,0 0,1.209 -2.517,0 0,1.29 0,0.137 2.48,0 0,1.171 -2.472,10e-4 0,1.199 0,0.136 2.5,0 0,1.181 -0.082,0 0,0.137 0,0.136 0.219,0 0.137,0 0,-1.727 -2.501,0 0,-0.79 2.473,0 0,-1.718 -2.481,0 0,-0.881 2.516,0 0,-1.754 -4.323,0 -0.011,6.87 3.971,0 0,-0.136 z"
         style="fill:#dbdddc;fill-opacity:1;fill-rule:nonzero;stroke:none"
         id="path7082"
         inkscape:connector-curvature="0" />
    </g>
    <g
       id="g7084"
       transform="matrix(9.8075661,0,0,-9.8075661,382.52676,501.30243)"
       style="fill:#dbdddc;fill-opacity:1">
      <path
         d="m 0,0 0,-5.217 2.48,0 0,-0.5 -3.154,0 0,5.717 L 0,0 z m 0.218,0.436 -1.327,0 0,-6.588 4.025,0 0,1.372 -2.48,0 0,5.216 -0.218,0 z"
         style="fill:#dbdddc;fill-opacity:1;fill-rule:nonzero;stroke:none"
         id="path7086"
         inkscape:connector-curvature="0" />
    </g>
    <g
       id="g7088"
       transform="matrix(9.8075661,0,0,-9.8075661,382.52692,501.30277)"
       style="fill:#dbdddc;fill-opacity:1">
      <path
         d="m 0,0 0.136,0 0,-5.081 2.48,0 0,-0.636 0,-0.137 -3.427,0 0,5.99 0.811,0 0.136,0 L 0.136,0 0,0 l 0,-0.137 -0.538,0 0,-5.444 2.881,0 0,0.227 -2.48,0 0,5.354 L 0,0 0,-0.137 0,0 z m 0.218,0.436 0,-0.137 -1.191,0 0,-6.315 3.752,0 0,1.099 -2.48,0 0,5.216 -0.081,0 0,0.137 0,0.136 0.218,0 0.136,0 0,-5.216 2.48,0 0,-1.645 -4.298,0 0,6.861 1.464,0 0,-0.136 z"
         style="fill:#dbdddc;fill-opacity:1;fill-rule:nonzero;stroke:none"
         id="path7090"
         inkscape:connector-curvature="0" />
    </g>
    <g
       id="g7092"
       transform="matrix(9.8075661,0,0,-9.8075661,367.37517,501.21629)"
       style="fill:#dbdddc;fill-opacity:1">
      <path
         d="m 0,0 0,-0.618 -1.599,0 0,-5.108 -0.682,0 0,5.099 -1.581,0 0,0.627 L 0,0 z m 0.218,0.436 -4.516,0 0,-1.499 1.581,0 0,-5.098 1.554,0 0,5.107 1.599,0 0,1.49 -0.218,0 z"
         style="fill:#dbdddc;fill-opacity:1;fill-rule:nonzero;stroke:none"
         id="path7094"
         inkscape:connector-curvature="0" />
    </g>
    <g
       id="g7096"
       transform="matrix(9.8075661,0,0,-9.8075661,367.37525,501.2165)"
       style="fill:#dbdddc;fill-opacity:1">
      <path
         d="m 0,0 0.137,0 0,-0.618 0,-0.137 -1.6,0 0,-5.108 -0.818,0 -0.137,0 0,5.099 -1.581,0 0,0.764 0,0.136 4.136,0 L 0.137,0 0,0 l 0,-0.137 -3.726,0 0,-0.354 1.581,0 0,-5.099 0.409,0 0,5.108 1.599,0 0,0.482 L 0,0 0,-0.137 0,0 z m 0.218,0.436 0,-0.137 -4.38,0 0,-1.226 1.581,0 0,-5.098 1.281,0 0.001,5.107 1.598,0 0,1.217 -0.081,0 0,0.137 0,0.136 0.218,0 0.136,0 0,-1.763 -1.599,0 0,-5.107 -1.827,0 0,5.098 -1.581,0 0,1.772 4.653,0 0,-0.136 z"
         style="fill:#dbdddc;fill-opacity:1;fill-rule:nonzero;stroke:none"
         id="path7098"
         inkscape:connector-curvature="0" />
    </g>
    <g
       id="g7100"
       transform="matrix(9.8075661,0,0,-9.8075661,309.48802,498.7261)"
       style="fill:#dbdddc;fill-opacity:1">
      <path
         d="M 0,0 C 0.05,-0.006 0.395,-0.056 0.709,-0.228 0.906,-0.336 1.064,-0.511 1.158,-0.632 1.047,-0.746 0.94,-0.855 0.802,-0.998 0.599,-0.782 0.212,-0.487 -0.393,-0.481 L -0.4,-0.48 -0.407,-0.481 C -0.868,-0.508 -1.211,-0.649 -1.426,-0.904 -1.682,-1.209 -1.652,-1.55 -1.648,-1.588 -1.645,-1.607 -1.585,-2.146 -1.101,-2.417 -0.7,-2.64 -0.064,-2.863 0.05,-2.879 L 0.032,-2.875 C 0.1,-2.894 0.507,-3.065 0.864,-3.222 0.924,-3.254 1.64,-3.652 1.64,-4.516 L 1.633,-4.659 c -0.277,-1.633 -1.891,-1.62 -1.96,-1.619 l -0.006,0 -0.008,0 c -0.005,0 -0.517,-0.019 -1.07,0.274 -0.38,0.201 -0.63,0.528 -0.747,0.709 0.104,0.105 0.209,0.211 0.354,0.358 0.231,-0.317 0.717,-0.824 1.473,-0.824 0.413,0 1.218,0.219 1.307,1.049 l 0.004,0.086 c 0,0.774 -1.133,1.195 -1.266,1.242 -0.005,0.002 -0.687,0.248 -1.213,0.47 -0.368,0.156 -0.778,0.749 -0.778,1.299 l 0.001,0.039 C -2.184,-0.34 -0.871,-0.032 -0.709,0 L 0,0 z m 0.014,0.437 -0.765,0 L -0.77,0.434 C -1.4,0.319 -2.615,-0.241 -2.711,-1.547 l -0.001,-0.007 c -0.031,-0.764 0.525,-1.542 1.043,-1.76 0.537,-0.228 1.23,-0.478 1.236,-0.48 0.268,-0.095 1.019,-0.457 0.975,-0.872 -0.069,-0.65 -0.865,-0.658 -0.873,-0.658 -0.805,0 -1.237,0.826 -1.242,0.835 l -0.137,0.268 -0.212,-0.215 -0.773,-0.782 0.069,-0.139 c 0.013,-0.028 0.339,-0.676 1.011,-1.033 0.639,-0.338 1.222,-0.328 1.287,-0.325 0.145,0 2.068,0.04 2.393,1.99 l 10e-4,0.008 0.001,0.008 0.009,0.198 c 0,1.148 -0.974,1.657 -1.018,1.679 L 1.052,-2.829 1.047,-2.825 C 0.26,-2.48 0.15,-2.453 0.111,-2.446 c -0.086,0.018 -0.645,0.213 -0.999,0.411 -0.283,0.157 -0.324,0.482 -0.326,0.496 l -0.001,0.021 c 0,0.054 0.012,0.205 0.127,0.337 0.134,0.156 0.37,0.243 0.699,0.263 0.672,-0.012 0.975,-0.5 0.988,-0.52 l 0.146,-0.242 0.198,0.201 0.771,0.793 -0.086,0.144 C 1.616,-0.522 1.347,-0.08 0.918,0.155 0.503,0.383 0.056,0.434 0.038,0.436 l -0.012,0.001 -0.012,0 z"
         style="fill:#dbdddc;fill-opacity:1;fill-rule:nonzero;stroke:none"
         id="path7102"
         inkscape:connector-curvature="0" />
    </g>
    <g
       id="g7104"
       transform="matrix(9.8075661,0,0,-9.8075661,309.48814,498.72611)"
       style="fill:#dbdddc;fill-opacity:1">
      <path
         d="M 0,0 0.016,0.136 C 0.078,0.127 0.433,0.078 0.775,-0.108 0.999,-0.232 1.165,-0.419 1.266,-0.548 L 1.339,-0.642 1.256,-0.727 C 1.145,-0.842 1.038,-0.95 0.9,-1.093 L 0.801,-1.196 0.703,-1.091 c -0.188,0.198 -0.538,0.468 -1.097,0.474 l -0.009,0 -0.016,0.002 0.019,0.135 0.019,-0.135 -0.007,-0.001 -0.005,-0.001 -0.006,0 c -0.439,-0.027 -0.739,-0.158 -0.923,-0.375 -0.17,-0.202 -0.193,-0.426 -0.193,-0.529 l 0.003,-0.052 -0.136,-0.015 0.135,0.021 c 10e-4,-0.019 0.06,-0.499 0.479,-0.731 0.19,-0.106 0.446,-0.216 0.665,-0.3 0.215,-0.084 0.414,-0.144 0.438,-0.146 L 0.05,-2.879 0.02,-3.012 l -0.018,0.004 0.03,0.133 0.037,0.131 c 0.095,-0.028 0.486,-0.194 0.85,-0.353 l 0.005,-0.002 0.004,-0.003 c 0.073,-0.039 0.844,-0.465 0.848,-1.414 l 0,-0.003 -0.007,-0.147 0,-0.008 -10e-4,-0.008 C 1.629,-5.516 1.141,-5.966 0.678,-6.184 0.215,-6.405 -0.223,-6.414 -0.315,-6.415 l -0.015,0.001 0.003,0.136 0,-0.137 -0.006,0 -0.008,0 0,0.07 0.002,-0.07 -0.002,0 0,0.07 0.002,-0.07 -0.023,0 c -0.115,0.001 -0.594,0.016 -1.113,0.29 -0.412,0.219 -0.673,0.564 -0.798,0.756 l -0.059,0.092 0.077,0.078 c 0.104,0.105 0.209,0.211 0.354,0.358 l 0.113,0.114 0.094,-0.13 c 0.221,-0.302 0.674,-0.769 1.363,-0.767 0.183,-0.001 0.469,0.051 0.705,0.193 0.236,0.145 0.425,0.363 0.466,0.734 l 0.136,-0.015 -0.136,0.006 0.004,0.086 0.136,-0.006 -0.137,0 c 0.004,0.314 -0.237,0.583 -0.524,0.781 -0.283,0.197 -0.59,0.311 -0.65,0.332 l -0.003,10e-4 -0.003,10e-4 0.019,0.048 -0.017,-0.048 -0.002,0 0.019,0.048 -0.017,-0.048 c -0.046,0.016 -0.703,0.254 -1.217,0.471 -0.436,0.196 -0.852,0.808 -0.862,1.425 l 0,0.002 0.002,0.04 0,0.004 0,0.003 c 0.048,0.669 0.436,1.096 0.819,1.344 0.383,0.25 0.765,0.337 0.858,0.356 l 0.013,0.003 0.722,0 0.008,0 L 0.016,0.136 0,0 l 0,-0.137 -0.709,0 0,0.137 0.026,-0.134 C -0.752,-0.147 -1.108,-0.23 -1.444,-0.451 -1.782,-0.674 -2.096,-1.019 -2.14,-1.586 l -0.136,0.01 0.136,-0.003 -10e-4,-0.039 -0.136,0.003 0.136,0 c -0.009,-0.483 0.395,-1.057 0.695,-1.173 0.523,-0.221 1.197,-0.464 1.211,-0.469 l -0.051,-0.127 0.045,0.129 c 0.073,-0.026 0.399,-0.146 0.716,-0.365 0.313,-0.218 0.638,-0.546 0.641,-1.006 l 0,-0.003 -0.004,-0.089 0,-0.004 0,-0.005 C 1.064,-5.186 0.806,-5.492 0.514,-5.665 0.222,-5.839 -0.102,-5.897 -0.331,-5.898 c -0.823,0.002 -1.342,0.549 -1.583,0.881 l 0.11,0.08 0.097,-0.096 c -0.145,-0.147 -0.25,-0.253 -0.354,-0.358 l -0.097,0.096 0.115,0.074 c 0.109,-0.17 0.348,-0.479 0.696,-0.662 0.46,-0.245 0.896,-0.259 0.985,-0.259 l 0.021,0.001 0.008,0 0.006,0 0.001,0 0.002,-0.001 0.009,0 c 0.069,0 0.472,0.01 0.875,0.204 0.404,0.197 0.809,0.556 0.938,1.302 l 0.135,-0.023 -0.136,0.007 0.007,0.143 0.136,-0.007 -0.137,0 C 1.508,-3.737 0.847,-3.367 0.8,-3.342 l 0.064,0.12 -0.055,-0.125 c -0.35,0.155 -0.773,0.331 -0.814,0.341 L 0.062,-2.742 0.08,-2.746 0.031,-3.014 c -0.09,0.014 -0.266,0.073 -0.498,0.161 -0.227,0.087 -0.49,0.2 -0.7,0.317 -0.551,0.31 -0.611,0.908 -0.616,0.927 l 0,0.003 -0.001,0.003 -0.004,0.082 c 0,0.14 0.03,0.434 0.257,0.705 0.247,0.293 0.633,0.444 1.116,0.471 l 0.008,-0.136 -0.019,0.135 0.007,0.001 0.019,0.003 0.026,-0.004 -0.019,-0.135 0.001,0.136 c 0.651,-0.006 1.075,-0.326 1.293,-0.56 L 0.802,-0.998 0.704,-0.903 C 0.842,-0.76 0.949,-0.65 1.06,-0.537 L 1.158,-0.632 1.05,-0.716 C 0.963,-0.603 0.813,-0.44 0.643,-0.348 0.357,-0.19 0.022,-0.139 -0.016,-0.136 L 0,0 0,-0.137 0,0 z M 0.014,0.437 0.014,0.3 -0.74,0.3 -0.749,0.299 -0.77,0.434 -0.745,0.3 c -0.293,-0.053 -0.739,-0.216 -1.11,-0.516 -0.373,-0.302 -0.674,-0.73 -0.72,-1.341 l 0,-0.005 -0.002,-0.011 -0.135,0.019 0.136,-0.006 -10e-4,-0.055 c -0.008,-0.678 0.52,-1.396 0.961,-1.573 0.53,-0.226 1.225,-0.476 1.226,-0.477 l 0.002,0 0.001,0 c 0.142,-0.051 0.392,-0.163 0.618,-0.32 0.221,-0.158 0.442,-0.359 0.449,-0.646 L 0.678,-4.68 C 0.639,-5.067 0.367,-5.276 0.133,-5.366 -0.103,-5.459 -0.315,-5.46 -0.331,-5.461 c -0.908,0.01 -1.351,0.896 -1.361,0.906 l -0.001,0.002 -0.053,0.102 -0.079,-0.081 -0.704,-0.713 0.025,-0.051 10e-4,-0.002 0.001,-0.002 c 0.003,-0.01 0.324,-0.64 0.951,-0.969 0.538,-0.285 1.039,-0.311 1.181,-0.31 l 0.035,0 0.004,0 0.003,0 c 0.061,0 0.561,0.011 1.071,0.251 0.51,0.244 1.03,0.696 1.187,1.625 l 0.135,-0.022 -0.135,0.017 0.001,0.008 0,0.003 0.009,0.192 0.136,-0.006 -0.137,0 c 0.006,1.06 -0.912,1.543 -0.942,1.557 L 0.991,-2.951 0.978,-2.945 0.962,-2.932 1.047,-2.825 0.992,-2.95 c -0.784,0.345 -0.896,0.369 -0.905,0.37 l -0.002,0 -0.002,0 c -0.118,0.027 -0.66,0.217 -1.038,0.426 -0.35,0.199 -0.389,0.575 -0.394,0.596 l -0.001,0.006 -10e-4,0.028 -0.001,0.003 0,0.003 c 0.001,0.072 0.015,0.257 0.161,0.427 l 0,-0.001 -10e-4,0 c 0.173,0.198 0.448,0.289 0.795,0.31 l 0.005,0.001 0.005,-0.001 c 0.744,-0.013 1.083,-0.554 1.1,-0.582 l 0.002,-0.002 0.056,-0.093 0.075,0.076 -0.001,-10e-4 0.698,0.718 -0.032,0.054 C 1.506,-0.601 1.241,-0.175 0.852,0.035 0.466,0.249 0.032,0.3 0.023,0.3 L 0.038,0.436 0.027,0.3 l -0.007,0 -0.006,0 0,0.137 0,0.137 0.012,0 0.006,0 0.017,-0.002 0.002,0 0.002,0 C 0.08,0.568 0.54,0.517 0.984,0.275 1.453,0.015 1.726,-0.443 1.745,-0.472 L 1.831,-0.616 1.885,-0.706 1.041,-1.574 0.842,-1.776 0.719,-1.901 0.482,-1.509 0.599,-1.438 0.485,-1.512 C 0.476,-1.5 0.209,-1.065 -0.391,-1.054 l 0.002,0.136 0.008,-0.136 C -0.692,-1.073 -0.889,-1.156 -0.984,-1.27 l -0.001,-10e-4 c -0.084,-0.094 -0.094,-0.211 -0.094,-0.247 l -0.136,0 0.136,0.006 10e-4,-0.021 -0.136,-0.006 0.135,0.019 c -0.001,-0.007 0.042,-0.281 0.257,-0.396 0.331,-0.187 0.907,-0.387 0.961,-0.396 L 0.111,-2.446 0.135,-2.312 C 0.204,-2.325 0.312,-2.355 1.102,-2.7 L 1.118,-2.707 1.137,-2.722 1.052,-2.829 1.113,-2.707 1.119,-2.71 c 0.058,-0.03 1.088,-0.565 1.093,-1.801 l 0,-0.003 -0.012,-0.231 0,-0.002 C 2.032,-5.768 1.428,-6.311 0.859,-6.575 0.29,-6.842 -0.244,-6.851 -0.328,-6.852 l 0,0.137 0.007,-0.136 -0.049,-0.001 c -0.171,0 -0.714,0.027 -1.309,0.341 -0.717,0.385 -1.048,1.051 -1.071,1.097 l 0.124,0.057 -0.122,-0.061 -0.069,0.139 -0.044,0.088 0.842,0.851 0.212,0.215 0.133,0.134 0.223,-0.436 -0.122,-0.062 0.119,0.066 c 10e-4,-0.008 0.421,-0.774 1.123,-0.765 l 0.111,0.011 c 0.104,0.014 0.259,0.051 0.384,0.132 0.124,0.083 0.219,0.193 0.242,0.393 l 10e-4,0.021 c 0.008,0.113 -0.13,0.285 -0.332,0.422 -0.197,0.138 -0.435,0.245 -0.554,0.286 l 0.046,0.129 -0.043,-0.13 c -0.014,0.005 -0.702,0.254 -1.246,0.484 -0.567,0.247 -1.12,1.015 -1.128,1.825 l 0.002,0.067 0,0.006 0.002,0.014 0.135,-0.019 -0.136,0.01 c 0.05,0.695 0.404,1.2 0.821,1.533 0.417,0.336 0.894,0.51 1.231,0.572 l 0.002,0.001 0.021,0.003 0.01,0.002 0.776,0 0,-0.137 z"
         style="fill:#dbdddc;fill-opacity:1;fill-rule:nonzero;stroke:none"
         id="path7106"
         inkscape:connector-curvature="0" />
    </g>
    <g
       id="g7108"
       transform="matrix(9.8075661,0,0,-9.8075661,249.47442,501.39769)"
       style="fill:#dbdddc;fill-opacity:1">
      <path
         d="m 0,0 c 0.001,-0.393 0.009,-4.152 0.009,-4.152 0,-0.023 0.004,-0.559 0.371,-0.923 0.219,-0.217 0.514,-0.325 0.875,-0.322 0.364,0.003 0.657,0.118 0.873,0.338 0.34,0.35 0.352,0.846 0.352,0.913 0,0.003 0.007,3.263 0.009,4.144 0.212,-0.002 0.453,-0.004 0.663,-0.005 -0.001,-0.391 -0.008,-4.13 -0.008,-4.131 0,-0.122 -0.035,-1.801 -1.898,-1.904 -1.83,0.12 -1.899,1.831 -1.901,1.904 0,0 -0.007,3.262 -0.008,4.138 L 0,0 z M 2.053,0.22 2.044,-4.143 C 2.045,-4.229 2.028,-4.955 1.252,-4.961 0.475,-4.968 0.446,-4.234 0.445,-4.151 l -0.01,4.588 -1.536,0 0.01,-4.581 c 10e-4,-0.026 0.076,-2.197 2.322,-2.335 l 0.012,0 0.013,0 c 2.298,0.118 2.324,2.27 2.324,2.346 L 3.589,0.425 2.054,0.438 2.053,0.22 z"
         style="fill:#dbdddc;fill-opacity:1;fill-rule:nonzero;stroke:none"
         id="path7110"
         inkscape:connector-curvature="0" />
    </g>
    <g
       id="g7112"
       transform="matrix(9.8075661,0,0,-9.8075661,249.47446,501.39769)"
       style="fill:#dbdddc;fill-opacity:1">
      <path
         d="M 0,0 0.136,0 C 0.137,-0.393 0.145,-4.152 0.145,-4.152 0.143,-4.161 0.155,-4.666 0.476,-4.978 0.665,-5.164 0.913,-5.26 1.24,-5.261 l 0.013,0 c 0.337,0.004 0.588,0.106 0.778,0.298 0.296,0.3 0.315,0.764 0.312,0.817 0,0.004 0.007,3.263 0.009,4.144 L 2.353,0.136 2.49,0.134 C 2.702,0.132 2.943,0.13 3.153,0.13 L 3.289,0.129 3.288,-0.007 C 3.287,-0.398 3.28,-4.138 3.28,-4.138 3.28,-4.212 3.272,-4.681 3.014,-5.162 2.758,-5.644 2.227,-6.128 1.254,-6.178 L 1.245,-6.179 1.237,-6.178 c -0.959,0.059 -1.488,0.557 -1.747,1.04 -0.262,0.483 -0.28,0.947 -0.281,0.996 l -0.001,0.002 0,0.002 c 0,0 -0.007,3.262 -0.008,4.138 l 0,0.137 0.8,0 0.136,0 L 0.136,0 0,0 l 0,-0.137 -0.663,0 0,0.137 0.136,0 c 0.001,-0.876 0.008,-4.134 0.008,-4.138 l -0.136,0 0.136,0.004 c 0,-0.024 0.019,-0.452 0.249,-0.873 0.233,-0.42 0.654,-0.838 1.525,-0.899 L 1.246,-6.042 1.238,-5.906 c 0.89,0.053 1.308,0.46 1.535,0.874 0.225,0.414 0.235,0.846 0.234,0.894 0,0.002 0.007,3.74 0.008,4.131 l 0.137,0 -0.001,-0.137 C 2.941,-0.143 2.7,-0.141 2.488,-0.139 l 10e-4,0.137 0.136,0 C 2.623,-0.883 2.616,-4.144 2.616,-4.146 2.614,-4.227 2.609,-4.755 2.226,-5.154 1.983,-5.403 1.647,-5.531 1.256,-5.533 L 1.24,-5.534 c -0.381,-0.001 -0.713,0.12 -0.956,0.362 -0.413,0.416 -0.409,0.983 -0.412,1.02 0,0.004 -0.008,3.759 -0.009,4.152 L 0,0 0,-0.137 0,0 z m 2.053,0.22 0.136,0 -0.009,-4.363 -0.136,0 0.136,10e-4 10e-4,-0.007 C 2.18,-4.216 2.173,-4.436 2.053,-4.659 1.936,-4.883 1.676,-5.099 1.253,-5.098 l -0.012,0 C 0.813,-5.102 0.552,-4.878 0.436,-4.652 0.316,-4.426 0.31,-4.205 0.309,-4.153 L 0.308,-4.152 0.299,0.3 l -1.263,0 0.009,-4.444 -0.136,0 0.136,0.005 c 0,-0.003 0.019,-0.533 0.304,-1.066 0.287,-0.533 0.813,-1.068 1.89,-1.138 l -0.008,-0.136 0,0.137 0.012,0 0.013,0 0,-0.137 -0.007,0.136 c 1.105,0.061 1.629,0.587 1.91,1.116 0.278,0.529 0.285,1.069 0.284,1.094 L 3.452,0.29 2.19,0.3 2.189,0.219 2.053,0.22 1.916,0.221 1.917,0.439 1.918,0.576 3.726,0.56 3.716,-4.133 C 3.716,-4.184 3.71,-4.758 3.401,-5.353 3.094,-5.949 2.456,-6.558 1.263,-6.615 l -0.004,-10e-4 -0.016,0 -0.012,0 -0.004,0 -0.004,10e-4 c -1.17,0.068 -1.804,0.687 -2.115,1.281 -0.315,0.594 -0.334,1.162 -0.335,1.185 l -10e-4,0.002 -0.01,4.721 1.809,0 0.01,-4.724 0,0.001 c 0,-0.03 0.009,-0.215 0.095,-0.374 0.09,-0.157 0.227,-0.297 0.565,-0.302 l 0.01,0 c 0.337,0.007 0.474,0.143 0.562,0.297 0.086,0.155 0.095,0.338 0.095,0.379 l 0,0.005 -10e-4,0 0.009,4.364 0.137,0 z"
         style="fill:#dbdddc;fill-opacity:1;fill-rule:nonzero;stroke:none"
         id="path7114"
         inkscape:connector-curvature="0" />
    </g>
    <g
       id="g7116"
       transform="matrix(9.8075661,0,0,-9.8075661,203.42507,501.38881)"
       style="fill:#dbdddc;fill-opacity:1">
      <path
         d="m 0,0 c 0,-0.362 0.002,-2.494 0.002,-2.494 l 2.535,0 0,2.493 0.681,0 0,-5.711 -0.681,0 0,2.55 -2.549,0 0,-2.55 -0.654,0 c 0,0.392 0.004,5.321 0.004,5.712 L 0,0 z m 0.218,0.437 -1.316,0 -0.005,-6.584 1.527,0 0,2.547 1.677,0 0,-2.547 1.553,0 0,6.583 -1.553,0 0,-2.495 -1.663,0 C 0.437,-1.695 0.436,0.437 0.436,0.437 l -0.218,0 z"
         style="fill:#dbdddc;fill-opacity:1;fill-rule:nonzero;stroke:none"
         id="path7118"
         inkscape:connector-curvature="0" />
    </g>
    <g
       id="g7120"
       transform="matrix(9.8075661,0,0,-9.8075661,203.42507,501.3888)"
       style="fill:#dbdddc;fill-opacity:1">
      <path
         d="m 0,0 0.137,0 c 0,-0.362 0.002,-2.491 0.002,-2.494 l -0.137,0 0,0.137 2.398,0 0,2.492 0.818,0 0.136,0 0,-5.984 -0.817,0 -0.137,0 0,2.55 -2.276,0 0,-2.55 -0.79,0 -0.137,0 0,0.137 c 0,0.392 0.004,5.321 0.004,5.712 l 0,0.137 0.799,0 0.137,0 L 0.137,0 0,0 l 0,-0.137 -0.662,0 0,0.137 0.137,0 c 0,-0.391 -0.004,-5.32 -0.004,-5.712 l -0.137,0 0,0.136 0.517,0 0.001,2.551 2.821,0 0,-2.551 0.408,0 0,5.438 -0.408,0 0,-2.493 -2.807,0 -0.001,0.137 c 0,0 -0.002,2.132 -0.002,2.494 L 0,0 0,-0.137 0,0 z m 0.218,0.437 0,-0.137 -1.18,0 -0.004,-6.31 1.254,0 -0.001,2.546 1.951,0 0,-2.546 1.279,0 0,6.309 -1.28,0 10e-4,-2.495 -1.936,0 -0.001,0.137 C 0.3,-1.695 0.299,0.437 0.299,0.437 l 0.137,0 0,-0.137 -0.218,0 0,0.137 0,0.137 0.218,0 0.136,0 0,-0.137 c 0,-0.002 0.002,-2.132 0.002,-2.496 l -0.136,0 0,0.136 1.526,0 0,2.495 1.826,0 0,-6.856 -1.826,0 0,2.547 -1.404,0 0.001,-2.547 -1.801,0 0.006,6.858 1.452,0 0,-0.137 z"
         style="fill:#dbdddc;fill-opacity:1;fill-rule:nonzero;stroke:none"
         id="path7122"
         inkscape:connector-curvature="0" />
    </g>
    <g
       id="g7124"
       transform="matrix(9.8075661,0,0,-9.8075661,524.80332,500.00885)">
      <path
         d="m 0,0 c -0.3,-0.45 -1.036,-2.917 -0.777,-3.285 0.314,0.353 2.753,3.244 2.985,3.352 0.232,0.11 1.472,0.396 1.404,0.069 -3.353,-2.385 -4.389,-4.935 -4.784,-5.071 -0.395,-0.135 -0.382,0.369 -0.395,0.601 -0.123,1.008 0.517,4.02 0.504,4.348 C -0.913,0.082 -0.068,0.108 0,0"
         style="fill:#ec1e27;fill-opacity:1;fill-rule:nonzero;stroke:none"
         id="path7126"
         inkscape:connector-curvature="0" />
    </g>
    <g
       id="g7128"
       transform="matrix(9.8075661,0,0,-9.8075661,512.23771,496.54192)">
      <path
         d="m 0,0 c 0,0 -2.004,-2.616 -2.045,-5.274 -0.245,-0.015 -0.64,0.013 -0.64,0.013 0,0 -0.191,0.422 0.027,1.472 0.218,1.05 1.554,3.797 1.608,3.845 -0.204,0.026 -3.625,0.081 -3.748,0.176 -0.123,0.095 1.69,0.11 1.703,0.095 l -2.22,0.137 1.541,0.19 c 0.039,0.028 -0.998,0.076 -0.873,0.096 1.362,0.219 3.23,0.178 3.23,0.178 0,0 3.121,0.026 3.175,-0.069 C 1.813,0.764 1.765,0.116 1.786,0.056 L 0,0 z"
         style="fill:#ec1e27;fill-opacity:1;fill-rule:nonzero;stroke:none"
         id="path7130"
         inkscape:connector-curvature="0" />
    </g>
    <g
       id="g7132"
       transform="matrix(9.8075661,0,0,-9.8075661,467.25172,509.72108)"
       style="fill:#110f0d;fill-opacity:1">
      <path
         d="m 0,0 -0.826,0.002 0.002,-1.47 0.799,0 c 0,0 0.963,-0.128 0.955,0.727 C 0.92,0.104 0,0 0,0 m 0.348,1.076 c 0,0 1.572,-0.072 1.672,-1.781 C 1.893,-2.286 0.448,-2.44 0.448,-2.44 l 1.845,-2.636 -1.218,0 -1.899,2.598 0,-2.607 -1.109,0 0,6.161 2.281,0 z"
         style="fill:#000000;fill-opacity:1;fill-rule:nonzero;stroke:none"
         id="path7134"
         inkscape:connector-curvature="0" />
    </g>
    <g
       id="g7136"
       transform="matrix(9.8075661,0,0,-9.8075661,411.30769,499.34913)"
       style="fill:#110f0d;fill-opacity:1">
      <path
         d="m 0,0 3.617,0 0,-1.018 -2.499,0 0,-1.499 2.471,0 0,-1.008 -2.48,0 0,-1.591 2.517,0 0,-1.045 -3.617,0 L 0,0 z"
         style="fill:#000000;fill-opacity:1;fill-rule:nonzero;stroke:none"
         id="path7138"
         inkscape:connector-curvature="0" />
    </g>
    <g
       id="g7140"
       transform="matrix(9.8075661,0,0,-9.8075661,373.79269,499.1664)"
       style="fill:#110f0d;fill-opacity:1">
      <path
         d="m 0,0 1.109,0 0,-5.216 2.48,0 0,-0.936 L 0,-6.152 0,0 z"
         style="fill:#000000;fill-opacity:1;fill-rule:nonzero;stroke:none"
         id="path7142"
         inkscape:connector-curvature="0" />
    </g>
    <g
       id="g7144"
       transform="matrix(9.8075661,0,0,-9.8075661,327.35969,499.08013)"
       style="fill:#110f0d;fill-opacity:1">
      <path
         d="m 0,0 4.298,0 0,-1.054 -1.599,0 0,-5.107 -1.118,0 0,5.098 L 0,-1.063 0,0 z"
         style="fill:#000000;fill-opacity:1;fill-rule:nonzero;stroke:none"
         id="path7146"
         inkscape:connector-curvature="0" />
    </g>
    <g
       id="g7148"
       transform="matrix(9.8075661,0,0,-9.8075661,323.61491,505.14312)"
       style="fill:#110f0d;fill-opacity:1">
      <path
         d="m 0,0 c 0,0 -0.245,0.409 -0.627,0.618 -0.382,0.209 -0.8,0.254 -0.8,0.254 l -0.745,0 c 0,0 -1.654,-0.3 -1.763,-1.78 -0.027,-0.663 0.464,-1.363 0.911,-1.552 0.537,-0.227 1.225,-0.475 1.225,-0.475 0,0 1.19,-0.418 1.117,-1.099 -0.072,-0.682 -0.754,-0.855 -1.09,-0.855 -0.954,0 -1.436,0.954 -1.436,0.954 l -0.663,-0.671 c 0,0 0.3,-0.61 0.918,-0.937 0.618,-0.326 1.181,-0.3 1.181,-0.3 0,0 1.872,-0.045 2.181,1.809 0.109,1.153 -0.891,1.663 -0.891,1.663 l -0.881,0.363 c -0.073,0.01 -0.681,0.219 -1.072,0.437 -0.391,0.217 -0.436,0.663 -0.436,0.663 0,0 -0.091,0.8 1.035,0.863 0.818,-0.01 1.182,-0.627 1.182,-0.627 L 0,0 z"
         style="fill:#000000;fill-opacity:1;fill-rule:nonzero;stroke:none"
         id="path7150"
         inkscape:connector-curvature="0" />
    </g>
    <g
       id="g7152"
       transform="matrix(9.8075661,0,0,-9.8075661,240.82669,499.25233)"
       style="fill:#110f0d;fill-opacity:1">
      <path
         d="m 0,0 1.1,0 0.009,-4.371 c 0,0 0,-1.036 1.026,-1.027 1.027,0.009 1.009,1.036 1.009,1.036 L 3.153,0 4.253,-0.01 4.244,-4.354 c 0,0 0.027,-2.016 -2.118,-2.125 -2.071,0.126 -2.117,2.117 -2.117,2.117 L 0,0 z"
         style="fill:#000000;fill-opacity:1;fill-rule:nonzero;stroke:none"
         id="path7154"
         inkscape:connector-curvature="0" />
    </g>
    <g
       id="g7156"
       transform="matrix(9.8075661,0,0,-9.8075661,194.74769,559.54455)"
       style="fill:#110f0d;fill-opacity:1">
      <path
         d="m 0,0 1.09,0 0,2.549 2.113,0 0,-2.549 1.118,0 0,6.146 -1.118,0 0,-2.493 -2.099,0 -0.002,2.494 -1.097,0 L 0,0 z"
         style="fill:#000000;fill-opacity:1;fill-rule:nonzero;stroke:none"
         id="path7158"
         inkscape:connector-curvature="0" />
    </g>
  </g>
</svg>
