<?xml version="1.0" encoding="utf-8"?>
<!-- Generator: Adobe Illustrator 17.1.0, SVG Export Plug-In . SVG Version: 6.00 Build 0)  -->
<!DOCTYPE svg PUBLIC "-//W3C//DTD SVG 1.1//EN" "http://www.w3.org/Graphics/SVG/1.1/DTD/svg11.dtd">
<svg version="1.1" id="Layer_1" xmlns="http://www.w3.org/2000/svg" xmlns:xlink="http://www.w3.org/1999/xlink" x="0px" y="0px"
	 viewBox="0 0 841.89 595.28" enable-background="new 0 0 841.89 595.28" xml:space="preserve">
<rect x="340.787" y="348.69" fill="#808080" width="160.248" height="31.216"/>
<g>
	<path fill="#FFFFFF" d="M389.359,373.708h5.264v-18.735h-5.264V373.708z M375.993,367.036l-4.516-12.063h-5.461l8.082,18.813h3.75
		l8.099-18.813h-5.426L375.993,367.036z M450.403,354.973h-3.743l-8.099,18.813h5.461l0.785-2.116h7.473l0.799,2.116h5.421
		L450.403,354.973z M446.131,368.176l2.412-6.46l2.426,6.46H446.131z M409.777,354.973h-3.743l-8.099,18.813h5.468l0.785-2.116
		h7.473l0.792,2.116h5.419L409.777,354.973z M405.512,368.176l2.412-6.438l2.426,6.438H405.512z M475.81,354.973h-18.77v4.478h6.742
		v14.257h5.266v-14.257h6.762V354.973z M434.923,363.074c-0.955-0.488-2.045-0.637-4.875-0.637h-3.701
		c-1.172,0-1.654-0.467-1.654-1.592v-0.24c0-0.057,0-0.106,0.007-0.156l0,0c0.051-1.012,0.553-1.444,1.648-1.444h4.033
		c0.539,0,0.95,0.099,1.209,0.318c0.008,0-0.007,0,0,0c0.03,0.021,0.051,0.043,0.071,0.056c0.199,0.212,0.313,0.51,0.333,0.884
		c0.475-0.028,4.302-0.34,4.811-0.382c-0.091-0.474-0.219-0.905-0.347-1.295c0,0,0.007,0,0,0c-0.92-2.753-2.83-3.778-6.671-3.778
		h-2.929c-4.741,0-7.053,1.578-7.053,4.825v2.214c0,1.712,0.686,2.993,1.937,3.602c0.957,0.495,2.038,0.637,4.868,0.637h3.699
		c1.176,0,1.664,0.46,1.664,1.578v0.262c0,1.132-0.502,1.62-1.664,1.62h-4.026c-0.607,0-1.018-0.127-1.287-0.403
		c-0.199-0.219-0.303-0.516-0.332-0.912c-0.453,0.028-4.316,0.184-4.82,0.205c0.581,3.885,2.52,5.335,7.013,5.335h2.929
		c4.761,0,7.069-1.585,7.069-4.861v-2.229C436.856,364.963,436.168,363.683,434.923,363.074z"/>
</g>
<g>
	<linearGradient id="SVGID_1_" gradientUnits="userSpaceOnUse" x1="348.4061" y1="348.8427" x2="493.5978" y2="175.8099">
		<stop  offset="0" style="stop-color:#260C0D"/>
		<stop  offset="0.0685" style="stop-color:#3C0C0E"/>
		<stop  offset="0.2297" style="stop-color:#6B0D11"/>
		<stop  offset="0.3908" style="stop-color:#930D13"/>
		<stop  offset="0.549" style="stop-color:#B10E15"/>
		<stop  offset="0.7034" style="stop-color:#C70E16"/>
		<stop  offset="0.8524" style="stop-color:#D40E17"/>
		<stop  offset="0.9898" style="stop-color:#D80E17"/>
	</linearGradient>
	<path fill="url(#SVGID_1_)" d="M340.787,182.203h160.429l-23.773,43.951h-76.736v16.26h60.776v38.68h-60.776v17.398h77.875
		l22.634,43.958H340.787V182.203z"/>
</g>
<path fill="#A61916" d="M340.787,386.149h19.278v5.01h-13.726v5.198h12.077v5.009h-12.077v5.377h13.901v5.009h-19.453V386.149z"/>
<path fill="#A61916" d="M370.011,398.733l-8.561-12.585h6.588l5.365,8.307l5.419-8.307h6.403l-8.561,12.514l8.928,13.089h-6.587
	l-5.744-8.773l-5.775,8.773h-6.405L370.011,398.733z"/>
<path fill="#A61916" d="M387.526,386.149h10.465c1.535,0,2.908,0.217,4.119,0.642c1.203,0.425,2.227,1.033,3.069,1.807
	c0.842,0.782,1.492,1.717,1.939,2.801c0.453,1.09,0.679,2.293,0.679,3.608v0.071c0,1.491-0.27,2.792-0.805,3.911
	c-0.539,1.127-1.274,2.061-2.209,2.816c-0.948,0.759-2.045,1.325-3.297,1.698c-1.26,0.382-2.604,0.575-4.04,0.575h-4.282v7.674
	h-5.638V386.149z M397.628,399.059c1.408,0,2.507-0.368,3.292-1.108c0.778-0.745,1.166-1.67,1.166-2.769v-0.071
	c0-1.264-0.401-2.235-1.223-2.891c-0.82-0.66-1.93-0.986-3.345-0.986h-4.353v7.826H397.628z"/>
<path fill="#A61916" d="M409.7,386.149h5.632v20.481h12.771v5.122H409.7V386.149z"/>
<path fill="#A61916" d="M441.05,412.2c-1.974,0-3.792-0.349-5.448-1.042c-1.663-0.698-3.093-1.642-4.302-2.817
	c-1.203-1.189-2.143-2.575-2.815-4.179c-0.672-1.594-1.006-3.307-1.006-5.132v-0.076c0-1.825,0.34-3.538,1.028-5.146
	c0.677-1.6,1.621-3,2.837-4.203c1.203-1.203,2.638-2.155,4.309-2.848c1.676-0.703,3.494-1.047,5.475-1.047
	c1.974,0,3.794,0.344,5.448,1.047c1.654,0.693,3.093,1.632,4.296,2.816c1.21,1.179,2.15,2.566,2.817,4.165
	c0.671,1.608,1.011,3.311,1.011,5.146v0.071c0,1.826-0.347,3.543-1.028,5.137c-0.677,1.599-1.627,3.004-2.837,4.207
	c-1.203,1.212-2.645,2.16-4.316,2.859C444.85,411.851,443.031,412.2,441.05,412.2z M441.128,407.007
	c1.146,0,2.187-0.208,3.127-0.623c0.933-0.41,1.742-0.986,2.412-1.726c0.674-0.731,1.196-1.571,1.573-2.543
	c0.381-0.962,0.566-1.994,0.566-3.085v-0.076c0-1.098-0.185-2.132-0.566-3.113c-0.377-0.976-0.913-1.825-1.607-2.561
	c-0.694-0.731-1.516-1.311-2.456-1.736c-0.94-0.425-1.981-0.642-3.127-0.642c-1.125,0-2.158,0.212-3.106,0.628
	c-0.953,0.41-1.762,0.986-2.432,1.712c-0.674,0.735-1.196,1.584-1.579,2.547c-0.376,0.962-0.566,1.995-0.566,3.094v0.071
	c0,1.095,0.19,2.137,0.566,3.113c0.382,0.967,0.92,1.826,1.612,2.561c0.694,0.727,1.516,1.307,2.47,1.731
	C438.963,406.795,440.002,407.007,441.128,407.007z"/>
<path fill="#A61916" d="M457.444,386.149h11.708c3.234,0,5.724,0.869,7.459,2.604c1.455,1.462,2.193,3.41,2.193,5.844v0.076
	c0,2.075-0.505,3.763-1.516,5.065c-1.017,1.302-2.342,2.264-3.969,2.872l6.253,9.141h-6.587l-5.488-8.184h-0.071h-4.353v8.184h-5.63
	V386.149z M468.778,398.63c1.395,0,2.456-0.339,3.204-1c0.745-0.665,1.119-1.542,1.119-2.647v-0.071
	c0-1.221-0.398-2.141-1.176-2.759c-0.778-0.608-1.867-0.92-3.255-0.92h-5.596v7.396H468.778z"/>
<path fill="#A61916" d="M481.618,386.149H500.9v5.01h-13.719v5.198h12.072v5.009h-12.072v5.377h13.901v5.009h-19.464V386.149z"/>
</svg>
