<?xml version="1.0" encoding="UTF-8" ?>
<!DOCTYPE svg PUBLIC "-//W3C//DTD SVG 1.1//EN" "http://www.w3.org/Graphics/SVG/1.1/DTD/svg11.dtd">
<svg width="360pt" height="270pt" viewBox="0 0 360 270" version="1.1" xmlns="http://www.w3.org/2000/svg">
<g id="#16161616">
<path fill="#161616" opacity="0.09" d=" M 86.12 12.03 C 86.11 8.67 85.79 5.24 86.69 1.95 L 86.88 2.88 L 86.96 3.82 C 87.00 24.50 87.00 45.19 87.00 65.87 C 86.97 74.99 86.98 84.11 87.01 93.23 C 86.95 107.07 87.03 120.90 87.00 134.74 C 87.03 147.03 86.94 159.32 87.06 171.61 C 86.93 177.37 87.10 183.12 86.89 188.87 C 85.25 186.21 86.11 182.96 85.94 180.01 C 86.11 124.02 86.10 68.03 86.12 12.03 Z" />
</g>
<g id="#c34348e9">
<path fill="#c34348" opacity="0.91" d=" M 86.69 1.95 C 148.78 2.12 210.88 1.93 272.97 2.00 L 273.32 3.00 C 211.18 2.91 149.02 3.17 86.88 2.88 L 86.69 1.95 Z" />
</g>
<g id="#c30005ff">
<path fill="#c30005" opacity="1.00" d=" M 86.88 2.88 C 149.02 3.17 211.18 2.91 273.32 3.00 C 273.04 3.20 272.48 3.60 272.20 3.80 C 251.69 3.87 231.17 3.76 210.66 3.93 C 187.00 3.90 163.33 3.93 139.67 4.04 C 124.04 3.80 108.41 3.93 92.78 3.93 C 91.49 3.90 90.19 3.87 88.89 3.85 C 88.41 3.84 87.45 3.83 86.96 3.82 L 86.88 2.88 Z" />
</g>
<g id="#9b1c1fff">
<path fill="#9b1c1f" opacity="1.00" d=" M 86.96 3.82 C 87.45 3.83 88.41 3.84 88.89 3.85 C 88.65 12.39 89.28 20.92 89.12 29.46 C 89.72 29.16 90.31 28.86 90.91 28.56 C 103.76 39.94 117.20 50.64 130.29 61.75 C 143.30 72.34 155.86 83.45 168.79 94.14 C 177.85 101.81 187.09 109.25 196.09 117.00 C 182.89 117.02 169.69 116.97 156.49 117.01 C 153.19 116.23 150.93 113.55 148.41 111.48 C 136.42 101.49 124.49 91.43 112.45 81.51 C 105.01 75.11 97.60 68.66 89.78 62.73 C 88.83 63.76 87.88 64.79 87.00 65.87 C 87.00 45.19 87.00 24.50 86.96 3.82 Z" />
</g>
<g id="#ad1f23ff">
<path fill="#ad1f23" opacity="1.00" d=" M 88.89 3.85 C 90.19 3.87 91.49 3.90 92.78 3.93 C 96.24 4.83 99.55 6.39 102.16 8.87 C 115.21 20.58 129.07 31.34 142.35 42.79 C 146.84 46.40 151.03 50.40 155.87 53.56 L 156.49 54.57 C 156.64 60.35 156.53 66.14 156.47 71.92 C 170.85 72.10 185.23 71.95 199.61 72.00 C 208.75 79.79 217.95 87.51 227.09 95.29 C 227.08 102.52 227.09 109.76 227.09 117.00 C 216.75 117.01 206.42 116.97 196.09 117.00 C 187.09 109.25 177.85 101.81 168.79 94.14 C 155.86 83.45 143.30 72.34 130.29 61.75 C 117.20 50.64 103.76 39.94 90.91 28.56 C 90.31 28.86 89.72 29.16 89.12 29.46 C 89.28 20.92 88.65 12.39 88.89 3.85 Z" />
</g>
<g id="#bc2026ff">
<path fill="#bc2026" opacity="1.00" d=" M 92.78 3.93 C 108.41 3.93 124.04 3.80 139.67 4.04 C 142.99 4.72 146.44 5.61 149.02 7.96 C 159.79 17.19 170.92 26.01 181.60 35.36 C 188.60 41.21 195.92 46.72 202.44 53.13 C 188.29 53.17 174.13 53.16 159.97 53.12 C 158.59 53.13 157.23 53.39 155.87 53.56 C 151.03 50.40 146.84 46.40 142.35 42.79 C 129.07 31.34 115.21 20.58 102.16 8.87 C 99.55 6.39 96.24 4.83 92.78 3.93 Z" />
</g>
<g id="#cd2127ff">
<path fill="#cd2127" opacity="1.00" d=" M 139.67 4.04 C 163.33 3.93 187.00 3.90 210.66 3.93 C 216.72 10.42 224.13 15.42 230.72 21.33 C 237.88 27.79 245.68 33.50 252.73 40.09 C 250.49 44.48 248.00 48.75 245.73 53.13 C 231.30 53.17 216.87 53.16 202.44 53.13 C 195.92 46.72 188.60 41.21 181.60 35.36 C 170.92 26.01 159.79 17.19 149.02 7.96 C 146.44 5.61 142.99 4.72 139.67 4.04 Z" />
</g>
<g id="#d62027ff">
<path fill="#d62027" opacity="1.00" d=" M 210.66 3.93 C 231.17 3.76 251.69 3.87 272.20 3.80 C 266.08 16.09 259.14 27.97 252.78 40.14 L 252.73 40.09 C 245.68 33.50 237.88 27.79 230.72 21.33 C 224.13 15.42 216.72 10.42 210.66 3.93 Z" />
</g>
<g id="#87171aff">
<path fill="#87171a" opacity="1.00" d=" M 87.00 65.87 C 87.88 64.79 88.83 63.76 89.78 62.73 C 97.60 68.66 105.01 75.11 112.45 81.51 C 124.49 91.43 136.42 101.49 148.41 111.48 C 150.93 113.55 153.19 116.23 156.49 117.01 C 156.59 123.74 156.53 130.47 156.51 137.20 C 170.78 137.19 185.06 136.98 199.33 137.27 C 192.90 138.30 186.40 138.04 179.92 138.30 C 191.82 149.05 204.50 158.90 216.59 169.43 C 223.92 175.67 231.76 181.34 238.50 188.25 C 230.09 188.34 221.68 188.26 213.27 188.28 C 207.55 183.88 201.91 179.35 196.73 174.31 C 178.84 159.55 160.90 144.83 143.37 129.64 C 128.82 117.88 114.56 105.77 100.28 93.68 C 96.65 90.34 92.88 87.15 88.89 84.24 C 88.77 86.35 88.65 88.47 88.52 90.59 C 88.03 91.48 87.53 92.36 87.01 93.23 C 86.98 84.11 86.97 74.99 87.00 65.87 Z" />
</g>
<g id="#be2026ff">
<path fill="#be2026" opacity="1.00" d=" M 199.61 72.00 C 208.77 72.00 217.93 72.00 227.09 72.00 C 227.09 79.76 227.08 87.52 227.09 95.29 C 217.95 87.51 208.75 79.79 199.61 72.00 Z" />
</g>
<g id="#771214ff">
<path fill="#771214" opacity="1.00" d=" M 88.89 84.24 C 92.88 87.15 96.65 90.34 100.28 93.68 C 114.56 105.77 128.82 117.88 143.37 129.64 C 160.90 144.83 178.84 159.55 196.73 174.31 C 201.91 179.35 207.55 183.88 213.27 188.28 C 203.34 188.28 193.40 188.31 183.47 188.26 C 171.29 177.16 158.18 167.13 145.72 156.34 C 129.82 142.52 113.39 129.32 97.30 115.71 C 94.73 113.36 91.38 111.65 89.55 108.61 C 88.50 102.68 89.14 96.58 88.52 90.59 C 88.65 88.47 88.77 86.35 88.89 84.24 Z" />
</g>
<g id="#650e13ff">
<path fill="#650e13" opacity="1.00" d=" M 87.01 93.23 C 87.53 92.36 88.03 91.48 88.52 90.59 C 89.14 96.58 88.50 102.68 89.55 108.61 C 91.38 111.65 94.73 113.36 97.30 115.71 C 113.39 129.32 129.82 142.52 145.72 156.34 C 158.18 167.13 171.29 177.16 183.47 188.26 C 173.12 188.30 162.78 188.31 152.43 188.25 C 150.34 185.57 147.77 183.34 144.91 181.52 C 147.22 177.77 149.13 173.33 148.21 168.85 C 147.81 165.91 146.21 163.38 144.51 161.02 L 143.64 161.96 C 143.28 161.53 142.93 161.11 142.58 160.69 C 142.57 160.24 142.56 159.33 142.55 158.88 C 136.09 154.43 127.77 154.75 120.27 155.00 C 120.20 155.51 120.08 156.52 120.02 157.02 L 119.94 158.07 C 117.12 155.76 113.50 155.25 110.00 154.84 C 108.36 152.87 106.59 150.99 104.56 149.43 C 99.21 145.33 94.29 140.72 89.02 136.53 C 88.34 135.93 87.67 135.34 87.00 134.74 C 87.03 120.90 86.95 107.07 87.01 93.23 Z" />
</g>
<g id="#340507ff">
<path fill="#340507" opacity="1.00" d=" M 87.00 134.74 C 87.67 135.34 88.34 135.93 89.02 136.53 C 88.24 143.16 88.79 149.83 89.14 156.47 C 92.63 155.08 98.10 153.63 100.52 157.41 C 101.01 160.60 102.51 165.36 99.01 167.28 C 98.97 163.87 98.94 160.46 98.92 157.05 C 96.29 157.06 93.66 157.06 91.03 157.04 C 90.97 162.48 91.03 167.93 90.93 173.38 C 90.28 169.94 89.67 166.48 89.53 162.97 C 89.31 165.99 88.99 169.14 87.06 171.61 C 86.94 159.32 87.03 147.03 87.00 134.74 Z" />
</g>
<g id="#4e1315ff">
<path fill="#4e1315" opacity="1.00" d=" M 89.02 136.53 C 94.29 140.72 99.21 145.33 104.56 149.43 C 106.59 150.99 108.36 152.87 110.00 154.84 C 109.79 155.39 109.37 156.48 109.17 157.03 C 108.88 160.58 109.04 164.16 109.00 167.72 C 105.64 167.68 102.29 167.67 98.93 167.73 C 98.95 167.62 98.99 167.40 99.01 167.28 C 102.51 165.36 101.01 160.60 100.52 157.41 C 98.10 153.63 92.63 155.08 89.14 156.47 C 88.79 149.83 88.24 143.16 89.02 136.53 Z" />
</g>
<g id="#9c1c1fff">
<path fill="#9c1c1f" opacity="1.00" d=" M 199.33 137.27 C 215.17 136.92 231.03 137.37 246.87 137.01 C 255.85 154.08 264.53 171.31 273.43 188.42 C 261.79 188.10 250.14 188.40 238.50 188.25 C 231.76 181.34 223.92 175.67 216.59 169.43 C 204.50 158.90 191.82 149.05 179.92 138.30 C 186.40 138.04 192.90 138.30 199.33 137.27 Z" />
</g>
<g id="#290000ff">
<path fill="#290000" opacity="1.00" d=" M 109.17 157.03 C 109.37 156.48 109.79 155.39 110.00 154.84 C 113.50 155.25 117.12 155.76 119.94 158.07 C 119.78 167.13 119.85 176.19 119.93 185.25 C 118.95 185.32 117.96 185.39 116.98 185.44 C 116.90 175.98 117.00 166.51 116.93 157.05 C 114.34 157.06 111.75 157.05 109.17 157.03 Z" />
<path fill="#290000" opacity="1.00" d=" M 144.51 161.02 C 146.21 163.38 147.81 165.91 148.21 168.85 C 149.13 173.33 147.22 177.77 144.91 181.52 C 141.48 184.27 137.51 186.83 133.00 187.09 C 129.16 187.34 125.30 187.26 121.45 187.45 C 121.08 186.98 120.34 186.06 119.98 185.60 C 126.74 185.12 134.13 186.91 140.29 183.27 C 147.72 179.30 149.41 168.02 143.64 161.96 L 144.51 161.02 Z" />
<path fill="#290000" opacity="1.00" d=" M 127.87 164.03 C 130.87 164.32 134.53 163.70 136.78 166.19 C 139.47 168.51 139.21 172.76 137.64 175.66 C 136.79 172.48 138.28 167.95 134.76 166.11 C 132.87 165.44 130.82 165.79 128.87 165.73 C 128.79 169.49 128.90 173.26 129.25 177.02 C 131.74 176.56 134.27 176.40 136.78 176.62 C 134.25 178.71 130.91 178.40 127.85 178.51 C 127.89 173.68 127.86 168.85 127.87 164.03 Z" />
</g>
<g id="#540608ff">
<path fill="#540608" opacity="1.00" d=" M 120.27 155.00 C 127.77 154.75 136.09 154.43 142.55 158.88 C 142.56 159.33 142.57 160.24 142.58 160.69 C 136.17 155.50 127.58 157.47 120.02 157.02 C 120.08 156.52 120.20 155.51 120.27 155.00 Z" />
</g>
<g id="#ffffffff">
<path fill="#ffffff" opacity="1.00" d=" M 91.03 157.04 C 93.66 157.06 96.29 157.06 98.92 157.05 C 98.94 160.46 98.97 163.87 99.01 167.28 C 98.99 167.40 98.95 167.62 98.93 167.73 C 102.29 167.67 105.64 167.68 109.00 167.72 C 109.04 164.16 108.88 160.58 109.17 157.03 C 111.75 157.05 114.34 157.06 116.93 157.05 C 117.00 166.51 116.90 175.98 116.98 185.44 C 114.33 185.56 111.67 185.54 109.02 185.55 C 109.03 182.23 108.94 178.92 108.92 175.61 L 108.99 174.76 C 105.64 174.78 102.29 174.78 98.94 174.75 C 98.98 178.37 98.95 181.99 98.89 185.61 C 96.27 185.57 93.65 185.55 91.03 185.55 C 90.98 181.49 91.02 177.43 90.93 173.38 C 91.03 167.93 90.97 162.48 91.03 157.04 Z" />
<path fill="#ffffff" opacity="1.00" d=" M 120.02 157.02 C 127.58 157.47 136.17 155.50 142.58 160.69 C 142.93 161.11 143.28 161.53 143.64 161.96 C 149.41 168.02 147.72 179.30 140.29 183.27 C 134.13 186.91 126.74 185.12 119.98 185.60 L 119.93 185.25 C 119.85 176.19 119.78 167.13 119.94 158.07 L 120.02 157.02 M 127.87 164.03 C 127.86 168.85 127.89 173.68 127.85 178.51 C 130.91 178.40 134.25 178.71 136.78 176.62 C 137.07 176.30 137.35 175.98 137.64 175.66 C 139.21 172.76 139.47 168.51 136.78 166.19 C 134.53 163.70 130.87 164.32 127.87 164.03 Z" />
<path fill="#ffffff" opacity="1.00" d=" M 115.18 201.58 C 117.38 201.12 119.64 201.09 121.88 200.99 C 123.08 203.16 124.16 205.40 125.18 207.68 C 125.77 209.20 126.39 210.70 127.04 212.20 C 127.31 213.19 127.58 214.18 127.86 215.17 C 129.02 210.76 130.78 206.54 132.53 202.34 C 132.74 202.07 133.18 201.51 133.39 201.24 C 135.09 201.46 136.81 201.45 138.52 201.49 L 139.68 201.54 L 139.21 202.75 C 136.61 209.03 133.70 215.18 131.19 221.50 C 130.77 222.06 129.93 223.17 129.51 223.73 C 128.35 223.58 127.18 223.57 126.01 223.69 C 123.49 219.65 122.41 214.92 119.81 210.92 C 118.58 207.66 117.26 204.40 115.18 201.58 Z" />
<path fill="#ffffff" opacity="1.00" d=" M 143.43 201.26 C 145.13 201.48 146.85 201.43 148.56 201.40 L 149.37 201.55 L 149.62 202.48 C 149.54 209.17 149.54 215.85 149.62 222.54 L 149.34 223.45 L 148.53 223.55 C 146.82 223.53 145.11 223.48 143.41 223.68 L 143.39 223.31 C 143.13 216.13 143.09 208.93 143.40 201.75 L 143.43 201.26 Z" />
<path fill="#ffffff" opacity="1.00" d=" M 163.42 201.42 C 164.50 201.49 165.57 201.43 166.63 201.24 C 170.36 208.57 173.30 216.28 176.56 223.82 L 175.64 223.72 C 173.95 223.48 172.24 223.50 170.56 223.76 C 170.07 222.83 169.59 221.92 169.11 221.00 C 166.35 221.01 163.59 220.98 160.84 220.95 C 160.35 221.79 159.85 222.64 159.37 223.50 C 157.27 223.50 155.17 223.51 153.08 223.54 C 154.45 220.81 155.69 218.01 156.65 215.11 C 158.15 210.84 160.26 206.81 161.72 202.53 C 162.15 202.26 163.00 201.70 163.42 201.42 M 164.67 209.78 C 163.66 212.10 163.25 214.64 162.22 216.95 C 164.00 216.89 165.79 216.88 167.58 216.94 C 166.68 214.53 166.15 211.92 164.67 209.78 Z" />
<path fill="#ffffff" opacity="1.00" d=" M 178.86 204.19 C 182.43 199.27 189.34 201.57 194.48 201.36 C 194.81 201.57 195.45 202.00 195.77 202.22 C 197.25 203.65 198.00 205.58 198.72 207.47 C 194.38 207.61 190.30 209.93 185.93 208.35 C 187.54 208.48 189.14 208.64 190.76 208.81 C 191.42 208.05 192.07 207.29 192.72 206.52 C 190.12 206.39 187.53 206.30 184.93 206.15 C 184.61 207.47 184.52 208.82 184.63 210.16 C 188.28 210.09 191.95 209.99 195.58 210.53 C 196.93 211.17 197.99 212.34 198.62 213.69 C 198.54 216.63 199.33 220.51 196.26 222.28 C 192.65 224.32 188.27 223.27 184.31 223.56 C 181.07 222.99 179.01 220.14 178.57 217.02 C 180.37 217.12 182.29 216.67 184.03 217.34 C 184.49 217.55 185.43 217.98 185.89 218.20 C 187.97 218.22 190.05 218.28 192.13 218.06 C 192.31 216.98 192.37 215.88 192.45 214.79 C 188.84 214.75 185.23 214.89 181.62 214.63 C 181.28 214.39 180.58 213.90 180.23 213.66 C 179.99 213.43 179.50 212.98 179.26 212.75 L 178.43 211.66 C 178.39 209.20 177.80 206.49 178.86 204.19 Z" />
<path fill="#ffffff" opacity="1.00" d=" M 210.34 201.24 C 211.46 201.57 212.58 201.56 213.69 201.20 C 217.66 208.34 220.20 216.18 223.77 223.52 C 221.71 223.51 219.66 223.50 217.60 223.50 C 217.14 222.66 216.69 221.81 216.23 220.97 C 213.51 220.99 210.79 220.99 208.07 221.01 C 206.90 224.48 203.17 223.43 200.36 223.54 C 203.85 216.18 206.52 208.44 210.34 201.24 M 209.46 216.93 C 211.20 216.89 212.95 216.88 214.70 216.90 C 213.87 214.53 213.15 212.13 212.35 209.76 C 210.63 211.76 210.40 214.55 209.46 216.93 Z" />
<path fill="#ffffff" opacity="1.00" d=" M 222.00 201.43 C 229.21 201.39 236.43 201.67 243.63 201.30 C 243.74 203.16 243.77 205.02 243.79 206.88 C 241.18 206.83 238.56 206.79 235.95 206.77 C 235.78 212.42 236.32 218.10 235.62 223.72 C 233.94 223.53 232.25 223.47 230.57 223.44 L 229.60 223.40 C 229.73 217.87 229.62 212.34 229.75 206.81 C 227.09 206.82 224.43 206.84 221.78 206.95 C 221.93 205.12 221.98 203.27 222.00 201.43 Z" />
</g>
<g id="#210506ff">
<path fill="#210506" opacity="1.00" d=" M 89.53 162.97 C 89.67 166.48 90.28 169.94 90.93 173.38 C 91.02 177.43 90.98 181.49 91.03 185.55 C 93.65 185.55 96.27 185.57 98.89 185.61 C 98.95 181.99 98.98 178.37 98.94 174.75 C 102.29 174.78 105.64 174.78 108.99 174.76 L 108.92 175.61 C 108.42 179.17 108.03 182.75 107.63 186.32 C 106.99 182.97 106.91 179.55 107.00 176.15 C 105.02 176.17 103.05 176.18 101.08 176.18 C 100.83 179.42 101.46 182.95 100.12 185.97 C 97.35 188.63 93.08 186.71 89.69 186.73 C 89.33 187.05 88.60 187.69 88.24 188.00 C 87.90 188.22 87.23 188.66 86.89 188.87 C 87.10 183.12 86.93 177.37 87.06 171.61 C 88.99 169.14 89.31 165.99 89.53 162.97 Z" />
<path fill="#210506" opacity="1.00" d=" M 115.11 200.52 C 117.75 200.15 120.38 200.73 123.00 200.94 C 122.72 200.95 122.16 200.97 121.88 200.99 C 119.64 201.09 117.38 201.12 115.18 201.58 C 117.26 204.40 118.58 207.66 119.81 210.92 C 119.85 211.37 119.94 212.27 119.98 212.72 C 118.59 209.21 117.78 205.34 115.16 202.46 C 115.15 201.98 115.13 201.01 115.11 200.52 Z" />
<path fill="#210506" opacity="1.00" d=" M 177.78 206.96 C 177.63 203.66 180.83 200.73 184.05 200.80 C 187.64 200.87 191.30 200.51 194.86 201.04 C 195.09 201.33 195.55 201.92 195.77 202.22 C 195.45 202.00 194.81 201.57 194.48 201.36 C 189.34 201.57 182.43 199.27 178.86 204.19 C 177.80 206.49 178.39 209.20 178.43 211.66 L 179.26 212.75 C 177.10 211.62 177.92 208.91 177.78 206.96 Z" />
<path fill="#210506" opacity="1.00" d=" M 162.01 201.17 C 161.94 201.51 161.79 202.19 161.72 202.53 C 160.26 206.81 158.15 210.84 156.65 215.11 C 157.58 210.18 160.41 205.89 162.01 201.17 Z" />
<path fill="#210506" opacity="1.00" d=" M 128.06 212.39 C 129.87 209.19 130.37 205.35 132.53 202.34 C 130.78 206.54 129.02 210.76 127.86 215.17 C 127.58 214.18 127.31 213.19 127.04 212.20 C 126.39 210.70 125.77 209.20 125.18 207.68 C 125.17 207.02 125.17 205.70 125.16 205.04 C 125.84 207.57 125.92 210.54 128.06 212.39 Z" />
<path fill="#210506" opacity="1.00" d=" M 139.21 202.75 C 139.22 204.30 138.45 205.69 137.83 207.06 C 135.28 212.27 133.24 217.70 130.88 222.99 L 131.19 221.50 C 133.70 215.18 136.61 209.03 139.21 202.75 Z" />
<path fill="#210506" opacity="1.00" d=" M 180.23 213.66 C 180.58 213.90 181.28 214.39 181.62 214.63 C 185.23 214.89 188.84 214.75 192.45 214.79 C 192.37 215.88 192.31 216.98 192.13 218.06 C 190.05 218.28 187.97 218.22 185.89 218.20 C 185.43 217.98 184.49 217.55 184.03 217.34 C 186.62 217.74 189.25 217.87 191.88 217.74 L 191.86 215.27 C 188.42 215.11 184.97 215.42 181.54 215.16 C 181.22 214.78 180.56 214.03 180.23 213.66 Z" />
</g>
<g id="#580f13ff">
<path fill="#580f13" opacity="1.00" d=" M 128.87 165.73 C 130.82 165.79 132.87 165.44 134.76 166.11 C 138.28 167.95 136.79 172.48 137.64 175.66 C 137.35 175.98 137.07 176.30 136.78 176.62 C 134.27 176.40 131.74 176.56 129.25 177.02 C 128.90 173.26 128.79 169.49 128.87 165.73 Z" />
</g>
<g id="#361113ff">
<path fill="#361113" opacity="1.00" d=" M 101.08 176.18 C 103.05 176.18 105.02 176.17 107.00 176.15 C 106.91 179.55 106.99 182.97 107.63 186.32 C 108.03 182.75 108.42 179.17 108.92 175.61 C 108.94 178.92 109.03 182.23 109.02 185.55 C 111.67 185.54 114.33 185.56 116.98 185.44 C 117.96 185.39 118.95 185.32 119.93 185.25 L 119.98 185.60 C 120.34 186.06 121.08 186.98 121.45 187.45 L 122.26 188.21 C 110.92 188.21 99.56 188.59 88.24 188.00 C 88.60 187.69 89.33 187.05 89.69 186.73 C 93.08 186.71 97.35 188.63 100.12 185.97 C 101.46 182.95 100.83 179.42 101.08 176.18 M 109.00 186.01 L 108.99 187.00 C 111.62 187.00 114.25 186.97 116.89 186.91 L 116.87 186.01 C 114.25 185.98 111.62 185.98 109.00 186.01 Z" />
</g>
<g id="#541214ff">
<path fill="#541214" opacity="1.00" d=" M 133.00 187.09 C 137.51 186.83 141.48 184.27 144.91 181.52 C 147.77 183.34 150.34 185.57 152.43 188.25 C 142.38 188.27 132.31 188.37 122.26 188.21 L 121.45 187.45 C 125.30 187.26 129.16 187.34 133.00 187.09 Z" />
</g>
<g id="#030000ff">
<path fill="#030000" opacity="1.00" d=" M 109.00 186.01 C 111.62 185.98 114.25 185.98 116.87 186.01 L 116.89 186.91 C 114.25 186.97 111.62 187.00 108.99 187.00 L 109.00 186.01 Z" />
</g>
<g id="#939598ff">
<path fill="#939598" opacity="1.00" d=" M 86.89 194.22 C 148.95 194.35 211.01 194.30 273.07 194.24 C 273.02 206.38 273.23 218.52 272.95 230.66 C 210.93 230.50 148.91 230.56 86.89 230.63 C 86.88 218.49 86.87 206.35 86.89 194.22 M 115.11 200.52 C 115.13 201.01 115.15 201.98 115.16 202.46 C 117.78 205.34 118.59 209.21 119.98 212.72 C 119.94 212.27 119.85 211.37 119.81 210.92 C 122.41 214.92 123.49 219.65 126.01 223.69 C 124.12 225.44 129.92 225.90 129.51 223.73 C 129.93 223.17 130.77 222.06 131.19 221.50 L 130.88 222.99 C 133.24 217.70 135.28 212.27 137.83 207.06 C 138.45 205.69 139.22 204.30 139.21 202.75 L 139.68 201.54 L 138.52 201.49 C 138.48 199.33 133.90 199.49 133.39 201.24 C 133.18 201.51 132.74 202.07 132.53 202.34 C 130.37 205.35 129.87 209.19 128.06 212.39 C 125.92 210.54 125.84 207.57 125.16 205.04 C 125.17 205.70 125.17 207.02 125.18 207.68 C 124.16 205.40 123.08 203.16 121.88 200.99 C 122.16 200.97 122.72 200.95 123.00 200.94 C 120.38 200.73 117.75 200.15 115.11 200.52 M 143.43 201.26 L 143.40 201.75 L 142.21 202.42 C 141.82 209.15 141.83 215.98 142.23 222.72 L 143.39 223.31 L 143.41 223.68 C 143.91 225.51 148.38 225.63 148.53 223.55 L 149.34 223.45 L 149.62 222.54 L 150.77 223.48 C 151.11 216.16 151.10 208.81 150.77 201.49 L 149.62 202.48 L 149.37 201.55 L 148.56 201.40 C 148.34 199.37 143.85 199.41 143.43 201.26 M 163.42 201.42 C 163.00 201.70 162.15 202.26 161.72 202.53 C 161.79 202.19 161.94 201.51 162.01 201.17 C 160.41 205.89 157.58 210.18 156.65 215.11 C 155.69 218.01 154.45 220.81 153.08 223.54 C 155.17 223.51 157.27 223.50 159.37 223.50 C 159.85 222.64 160.35 221.79 160.84 220.95 C 163.59 220.98 166.35 221.01 169.11 221.00 C 169.59 221.92 170.07 222.83 170.56 223.76 C 170.78 225.65 175.29 225.54 175.64 223.72 L 176.56 223.82 C 173.30 216.28 170.36 208.57 166.63 201.24 C 166.92 199.35 162.86 199.50 163.42 201.42 M 177.78 206.96 C 177.92 208.91 177.10 211.62 179.26 212.75 C 179.50 212.98 179.99 213.43 180.23 213.66 C 180.56 214.03 181.22 214.78 181.54 215.16 C 184.97 215.42 188.42 215.11 191.86 215.27 L 191.88 217.74 C 189.25 217.87 186.62 217.74 184.03 217.34 C 182.29 216.67 180.37 217.12 178.57 217.02 C 179.01 220.14 181.07 222.99 184.31 223.56 L 182.57 223.68 C 184.81 225.85 188.21 224.91 191.02 225.05 C 194.55 225.18 197.81 223.22 199.94 220.51 C 200.36 217.92 199.98 215.28 199.77 212.69 L 198.62 213.69 C 197.99 212.34 196.93 211.17 195.58 210.53 C 196.65 209.53 197.70 208.51 198.72 207.47 C 198.00 205.58 197.25 203.65 195.77 202.22 C 195.55 201.92 195.09 201.33 194.86 201.04 C 191.30 200.51 187.64 200.87 184.05 200.80 C 180.83 200.73 177.63 203.66 177.78 206.96 M 210.34 201.24 C 206.52 208.44 203.85 216.18 200.36 223.54 C 203.17 223.43 206.90 224.48 208.07 221.01 C 210.79 220.99 213.51 220.99 216.23 220.97 C 216.69 221.81 217.14 222.66 217.60 223.50 C 219.66 223.50 221.71 223.51 223.77 223.52 C 220.20 216.18 217.66 208.34 213.69 201.20 C 213.88 199.47 210.12 199.52 210.34 201.24 M 221.94 200.06 L 222.00 201.43 C 221.98 203.27 221.93 205.12 221.78 206.95 C 223.10 208.87 225.93 207.82 227.91 208.22 C 228.13 213.14 227.98 218.06 228.07 222.99 C 228.45 223.09 229.21 223.30 229.60 223.40 L 230.57 223.44 C 230.53 225.62 235.12 225.52 235.62 223.72 C 236.32 218.10 235.78 212.42 235.95 206.77 C 238.56 206.79 241.18 206.83 243.79 206.88 C 243.77 205.02 243.74 203.16 243.63 201.30 L 244.21 200.19 C 236.79 199.86 229.36 200.05 221.94 200.06 Z" />
</g>
<g id="#76787cff">
<path fill="#76787c" opacity="1.00" d=" M 133.39 201.24 C 133.90 199.49 138.48 199.33 138.52 201.49 C 136.81 201.45 135.09 201.46 133.39 201.24 Z" />
</g>
<g id="#77797dff">
<path fill="#77797d" opacity="1.00" d=" M 143.43 201.26 C 143.85 199.41 148.34 199.37 148.56 201.40 C 146.85 201.43 145.13 201.48 143.43 201.26 Z" />
</g>
<g id="#75777bff">
<path fill="#75777b" opacity="1.00" d=" M 163.42 201.42 C 162.86 199.50 166.92 199.35 166.63 201.24 C 165.57 201.43 164.50 201.49 163.42 201.42 Z" />
<path fill="#75777b" opacity="1.00" d=" M 210.34 201.24 C 210.12 199.52 213.88 199.47 213.69 201.20 C 212.58 201.56 211.46 201.57 210.34 201.24 Z" />
</g>
<g id="#787a7eff">
<path fill="#787a7e" opacity="1.00" d=" M 221.94 200.06 C 229.36 200.05 236.79 199.86 244.21 200.19 L 243.63 201.30 C 236.43 201.67 229.21 201.39 222.00 201.43 L 221.94 200.06 Z" />
</g>
<g id="#7b7d81ff">
<path fill="#7b7d81" opacity="1.00" d=" M 142.21 202.42 L 143.40 201.75 C 143.09 208.93 143.13 216.13 143.39 223.31 L 142.23 222.72 C 141.83 215.98 141.82 209.15 142.21 202.42 Z" />
</g>
<g id="#77797cff">
<path fill="#77797c" opacity="1.00" d=" M 149.62 202.48 L 150.77 201.49 C 151.10 208.81 151.11 216.16 150.77 223.48 L 149.62 222.54 C 149.54 215.85 149.54 209.17 149.62 202.48 Z" />
<path fill="#77797c" opacity="1.00" d=" M 129.51 223.73 C 129.92 225.90 124.12 225.44 126.01 223.69 C 127.18 223.57 128.35 223.58 129.51 223.73 Z" />
</g>
<g id="#7e8185ff">
<path fill="#7e8185" opacity="1.00" d=" M 184.93 206.15 C 187.53 206.30 190.12 206.39 192.72 206.52 C 192.07 207.29 191.42 208.05 190.76 208.81 C 189.14 208.64 187.54 208.48 185.93 208.35 C 190.30 209.93 194.38 207.61 198.72 207.47 C 197.70 208.51 196.65 209.53 195.58 210.53 C 191.95 209.99 188.28 210.09 184.63 210.16 C 184.52 208.82 184.61 207.47 184.93 206.15 Z" />
<path fill="#7e8185" opacity="1.00" d=" M 221.78 206.95 C 224.43 206.84 227.09 206.82 229.75 206.81 C 229.62 212.34 229.73 217.87 229.60 223.40 C 229.21 223.30 228.45 223.09 228.07 222.99 C 227.98 218.06 228.13 213.14 227.91 208.22 C 225.93 207.82 223.10 208.87 221.78 206.95 Z" />
<path fill="#7e8185" opacity="1.00" d=" M 164.67 209.78 C 166.15 211.92 166.68 214.53 167.58 216.94 C 165.79 216.88 164.00 216.89 162.22 216.95 C 163.25 214.64 163.66 212.10 164.67 209.78 Z" />
<path fill="#7e8185" opacity="1.00" d=" M 209.46 216.93 C 210.40 214.55 210.63 211.76 212.35 209.76 C 213.15 212.13 213.87 214.53 214.70 216.90 C 212.95 216.88 211.20 216.89 209.46 216.93 Z" />
</g>
<g id="#7d7f83ff">
<path fill="#7d7f83" opacity="1.00" d=" M 198.62 213.69 L 199.77 212.69 C 199.98 215.28 200.36 217.92 199.94 220.51 C 197.81 223.22 194.55 225.18 191.02 225.05 C 188.21 224.91 184.81 225.85 182.57 223.68 L 184.31 223.56 C 188.27 223.27 192.65 224.32 196.26 222.28 C 199.33 220.51 198.54 216.63 198.62 213.69 Z" />
</g>
<g id="#777b7eff">
<path fill="#777b7e" opacity="1.00" d=" M 143.41 223.68 C 145.11 223.48 146.82 223.53 148.53 223.55 C 148.38 225.63 143.91 225.51 143.41 223.68 Z" />
</g>
<g id="#76787bff">
<path fill="#76787b" opacity="1.00" d=" M 170.56 223.76 C 172.24 223.50 173.95 223.48 175.64 223.72 C 175.29 225.54 170.78 225.65 170.56 223.76 Z" />
</g>
<g id="#777a7eff">
<path fill="#777a7e" opacity="1.00" d=" M 230.57 223.44 C 232.25 223.47 233.94 223.53 235.62 223.72 C 235.12 225.52 230.53 225.62 230.57 223.44 Z" />
</g>
<g id="#a51e22ff">
<path fill="#a51e22" opacity="1.00" d=" M 200.33 237.45 C 208.92 235.54 218.62 241.95 219.14 250.98 C 220.33 259.35 213.45 267.53 205.06 268.00 C 197.42 268.98 189.26 263.74 187.91 255.96 C 185.81 247.68 191.97 238.79 200.33 237.45 M 201.38 243.45 C 196.44 244.57 193.38 250.16 194.76 254.96 C 195.68 260.24 202.13 263.70 206.98 261.28 C 210.90 259.69 213.01 255.06 212.24 250.99 C 211.59 246.06 206.28 242.17 201.38 243.45 Z" />
<path fill="#a51e22" opacity="1.00" d=" M 86.88 237.79 C 94.32 237.81 101.76 237.84 109.21 237.78 C 109.19 239.74 109.18 241.71 109.18 243.69 C 103.94 243.45 98.69 243.70 93.46 243.44 C 93.38 245.51 93.36 247.59 93.37 249.66 C 98.03 249.52 102.69 249.63 107.35 249.49 C 107.35 251.50 107.34 253.51 107.35 255.52 C 102.69 255.38 98.03 255.47 93.38 255.35 C 93.37 257.50 93.36 259.65 93.37 261.80 C 98.79 261.65 104.20 261.76 109.62 261.67 C 109.54 263.65 109.45 265.63 109.29 267.61 C 101.83 267.35 94.36 267.49 86.89 267.52 C 86.88 257.61 86.89 247.70 86.88 237.79 Z" />
<path fill="#a51e22" opacity="1.00" d=" M 110.73 237.72 C 113.38 237.77 116.04 237.82 118.69 237.88 C 120.65 241.02 122.78 244.05 124.50 247.34 C 127.12 244.48 128.78 240.90 131.09 237.81 C 133.62 237.82 136.15 237.78 138.68 237.66 C 135.26 242.49 132.00 247.43 128.59 252.27 C 132.02 257.41 135.58 262.46 139.04 267.58 C 136.53 267.49 134.02 267.48 131.51 267.61 C 129.03 264.33 126.94 260.79 124.58 257.43 C 122.34 260.78 120.18 264.19 117.90 267.52 C 115.44 267.47 112.99 267.51 110.55 267.64 C 113.72 262.37 117.45 257.47 120.83 252.34 C 117.42 247.49 114.16 242.55 110.73 237.72 Z" />
<path fill="#a51e22" opacity="1.00" d=" M 141.17 237.81 C 146.87 238.14 152.76 237.03 158.32 238.55 C 165.33 240.77 167.04 251.00 161.62 255.71 C 157.81 259.05 152.46 258.67 147.75 258.50 C 147.72 261.46 147.73 264.43 147.86 267.39 C 145.62 267.50 143.39 267.54 141.16 267.41 C 141.26 257.55 141.24 247.68 141.17 237.81 M 147.74 243.63 C 147.73 246.73 147.74 249.85 147.79 252.96 C 150.90 252.65 154.77 253.59 157.16 251.04 C 159.01 248.75 157.91 245.50 155.67 243.93 C 153.03 243.77 150.39 243.67 147.74 243.63 Z" />
<path fill="#a51e22" opacity="1.00" d=" M 166.94 237.82 C 169.10 237.80 171.26 237.77 173.42 237.73 C 173.58 245.65 173.50 253.57 173.46 261.50 C 178.40 261.51 183.35 261.56 188.29 261.39 C 188.33 263.44 188.35 265.49 188.40 267.54 C 181.23 267.13 174.03 267.17 166.86 267.48 C 167.04 257.60 166.92 247.71 166.94 237.82 Z" />
<path fill="#a51e22" opacity="1.00" d=" M 222.52 267.60 C 222.36 257.64 222.38 247.68 222.50 237.72 C 228.01 238.00 233.54 237.54 239.03 237.99 C 243.84 238.55 247.81 243.07 247.24 248.00 C 247.51 252.17 244.47 255.47 240.85 257.01 C 243.41 260.46 245.77 264.05 248.24 267.56 C 245.71 267.49 243.18 267.49 240.66 267.59 C 238.31 264.49 236.24 261.19 234.02 258.00 C 232.35 258.01 230.68 258.01 229.01 258.02 C 229.01 261.17 228.99 264.32 228.98 267.48 C 226.82 267.50 224.67 267.53 222.52 267.60 M 229.01 243.71 C 229.00 246.54 229.00 249.38 229.00 252.22 C 232.02 252.17 235.08 252.48 238.06 251.91 C 241.25 250.78 241.62 245.70 238.51 244.26 C 235.44 243.33 232.16 243.79 229.01 243.71 Z" />
<path fill="#a51e22" opacity="1.00" d=" M 250.35 237.89 C 257.89 237.71 265.44 237.85 272.98 237.82 C 272.93 239.75 272.91 241.69 272.88 243.63 C 267.58 243.53 262.28 243.59 256.99 243.54 C 257.00 245.57 257.02 247.61 257.04 249.64 C 261.69 249.54 266.34 249.57 270.99 249.56 C 270.99 251.52 270.99 253.48 271.00 255.44 C 266.34 255.43 261.69 255.46 257.04 255.36 C 257.02 257.50 257.01 259.64 257.02 261.78 C 262.40 261.67 267.79 261.71 273.18 261.72 C 273.17 263.65 273.16 265.58 273.15 267.52 C 265.59 267.47 258.03 267.39 250.47 267.57 C 250.33 257.68 250.55 247.78 250.35 237.89 Z" />
</g>
<g id="#52161879">
<path fill="#521618" opacity="0.47" d=" M 166.86 267.48 C 174.03 267.17 181.23 267.13 188.40 267.54 C 181.22 267.71 174.02 267.86 166.86 267.48 Z" />
</g>
</svg>
