<?xml version="1.0" encoding="UTF-8" ?>
<!DOCTYPE svg PUBLIC "-//W3C//DTD SVG 1.1//EN" "http://www.w3.org/Graphics/SVG/1.1/DTD/svg11.dtd">
<svg width="351pt" height="500pt" viewBox="0 0 351 500" version="1.1" xmlns="http://www.w3.org/2000/svg">
<g id="#b00e15ff">
<path fill="#b00e15" opacity="1.00" d=" M 2.00 2.00 C 10.61 1.99 19.21 2.01 27.82 1.99 C 58.65 27.55 89.19 53.45 120.02 79.00 C 126.81 84.56 133.26 90.51 140.19 95.89 C 137.31 95.79 134.45 96.20 131.63 96.77 C 131.59 108.45 131.69 120.13 131.57 131.82 C 130.67 129.08 130.60 125.70 128.01 123.90 C 91.45 93.49 55.13 62.80 18.51 32.46 C 13.07 27.81 7.72 23.04 2.01 18.73 C 2.01 13.15 2.00 7.58 2.00 2.00 Z" />
</g>
<g id="#bc0e15ff">
<path fill="#bc0e15" opacity="1.00" d=" M 27.82 1.99 C 51.12 2.02 74.42 1.99 97.72 2.00 C 132.95 31.53 168.24 61.00 203.48 90.51 C 205.41 92.11 207.22 93.85 208.98 95.64 C 192.00 96.08 175.00 95.77 158.01 96.07 C 152.07 96.15 146.12 96.29 140.19 95.89 C 133.26 90.51 126.81 84.56 120.02 79.00 C 89.19 53.45 58.65 27.55 27.82 1.99 Z" />
</g>
<g id="#ca0e16ff">
<path fill="#ca0e16" opacity="1.00" d=" M 97.72 2.00 C 132.69 2.02 167.66 1.99 202.63 2.00 C 224.40 20.75 246.64 38.94 268.64 57.41 C 280.05 67.23 291.74 76.72 303.26 86.41 C 301.39 89.88 299.50 93.35 297.62 96.82 C 242.29 96.81 186.96 96.81 131.63 96.77 C 134.45 96.20 137.31 95.79 140.19 95.89 C 146.12 96.29 152.07 96.15 158.01 96.07 C 175.00 95.77 192.00 96.08 208.98 95.64 C 207.22 93.85 205.41 92.11 203.48 90.51 C 168.24 61.00 132.95 31.53 97.72 2.00 Z" />
</g>
<g id="#d40e17ff">
<path fill="#d40e17" opacity="1.00" d=" M 202.63 2.00 C 251.44 2.01 300.24 2.00 349.05 2.00 C 333.80 30.14 318.52 58.27 303.26 86.41 C 291.74 76.72 280.05 67.23 268.64 57.41 C 246.64 38.94 224.40 20.75 202.63 2.00 Z" />
</g>
<g id="#a70d14ff">
<path fill="#a70d14" opacity="1.00" d=" M 2.01 18.73 C 7.72 23.04 13.07 27.81 18.51 32.46 C 55.13 62.80 91.45 93.49 128.01 123.90 C 130.60 125.70 130.67 129.08 131.57 131.82 C 133.62 131.81 135.67 131.81 137.72 131.81 C 166.54 156.50 195.93 180.53 224.87 205.06 C 228.90 208.30 232.93 211.56 236.50 215.30 C 222.82 215.33 209.13 215.31 195.45 215.30 C 192.71 212.49 189.83 209.82 186.72 207.42 C 125.16 155.89 63.56 104.40 2.00 52.86 C 2.02 41.49 1.99 30.11 2.01 18.73 Z" />
</g>
<g id="#9a0d14ff">
<path fill="#9a0d14" opacity="1.00" d=" M 2.00 52.86 C 63.56 104.40 125.16 155.89 186.72 207.42 C 189.83 209.82 192.71 212.49 195.45 215.30 C 175.80 215.32 156.15 215.32 136.50 215.30 C 135.05 213.80 133.62 212.29 132.08 210.88 C 90.64 176.33 49.39 141.53 7.87 107.05 C 5.87 105.36 3.93 103.59 2.01 101.82 C 2.02 85.50 1.99 69.18 2.00 52.86 Z" />
</g>
<g id="#8b0d13ff">
<path fill="#8b0d13" opacity="1.00" d=" M 2.01 101.82 C 3.93 103.59 5.87 105.36 7.87 107.05 C 49.39 141.53 90.64 176.33 132.08 210.88 C 133.62 212.29 135.05 213.80 136.50 215.30 C 134.87 215.31 133.25 215.32 131.63 215.34 C 131.64 227.77 131.61 240.21 131.63 252.65 L 131.19 252.58 C 130.77 250.33 130.68 248.00 129.98 245.82 C 127.97 243.20 125.06 241.49 122.60 239.36 C 84.88 207.77 47.15 176.21 9.40 144.66 C 6.99 142.64 4.49 140.74 2.01 138.82 C 2.01 126.49 1.99 114.15 2.01 101.82 Z" />
</g>
<g id="#b30e15ff">
<path fill="#b30e15" opacity="1.00" d=" M 137.72 131.81 C 163.05 131.82 188.37 131.80 213.69 131.81 C 222.12 139.59 231.10 146.74 239.88 154.11 C 247.60 160.47 255.14 167.06 263.06 173.18 C 263.06 187.22 263.07 201.26 263.05 215.30 C 254.20 215.32 245.35 215.31 236.50 215.30 C 232.93 211.56 228.90 208.30 224.87 205.06 C 195.93 180.53 166.54 156.50 137.72 131.81 Z" />
</g>
<g id="#be0e16ff">
<path fill="#be0e16" opacity="1.00" d=" M 213.69 131.81 C 230.15 131.82 246.60 131.80 263.05 131.82 C 263.07 145.61 263.06 159.39 263.06 173.18 C 255.14 167.06 247.60 160.47 239.88 154.11 C 231.10 146.74 222.12 139.59 213.69 131.81 Z" />
</g>
<g id="#7c0d12ff">
<path fill="#7c0d12" opacity="1.00" d=" M 2.01 138.82 C 4.49 140.74 6.99 142.64 9.40 144.66 C 47.15 176.21 84.88 207.77 122.60 239.36 C 125.06 241.49 127.97 243.20 129.98 245.82 C 130.68 248.00 130.77 250.33 131.19 252.58 L 131.63 252.65 C 133.01 252.76 134.39 252.80 135.78 252.76 C 159.06 272.64 182.63 292.18 206.14 311.79 C 217.32 321.31 228.57 330.76 239.94 340.06 C 242.86 342.41 245.59 344.99 248.27 347.62 C 231.69 347.64 215.11 347.62 198.54 347.61 C 195.38 343.71 191.47 340.55 187.54 337.48 C 133.11 291.91 78.70 246.31 24.19 200.83 C 16.69 194.85 9.78 188.17 2.01 182.53 C 2.01 167.96 1.99 153.39 2.01 138.82 Z" />
</g>
<g id="#6b0d11ff">
<path fill="#6b0d11" opacity="1.00" d=" M 2.01 182.53 C 9.78 188.17 16.69 194.85 24.19 200.83 C 78.70 246.31 133.11 291.91 187.54 337.48 C 191.47 340.55 195.38 343.71 198.54 347.61 C 185.77 347.61 173.00 347.70 160.24 347.56 C 155.34 346.47 149.55 347.84 145.32 344.67 C 97.54 304.74 49.89 264.66 2.01 224.86 C 2.02 210.75 1.98 196.64 2.01 182.53 Z" />
</g>
<g id="#580d10ff">
<path fill="#580d10" opacity="1.00" d=" M 2.01 224.86 C 49.89 264.66 97.54 304.74 145.32 344.67 C 149.55 347.84 155.34 346.47 160.24 347.56 C 133.13 347.70 106.02 347.63 78.91 347.57 C 83.27 347.06 87.65 346.64 92.04 346.58 C 88.00 342.38 83.26 338.96 78.85 335.18 C 53.32 313.63 27.62 292.29 2.01 270.86 C 2.02 255.52 1.98 240.19 2.01 224.86 Z" />
</g>
<g id="#8a0d13ff">
<path fill="#8a0d13" opacity="1.00" d=" M 135.78 252.76 C 149.06 252.74 162.35 252.75 175.63 252.75 C 182.22 259.07 189.38 264.73 196.35 270.62 C 221.57 291.39 246.38 312.64 271.58 333.43 C 276.90 338.14 282.90 342.14 287.53 347.61 C 274.45 347.66 261.36 347.61 248.27 347.62 C 245.59 344.99 242.86 342.41 239.94 340.06 C 228.57 330.76 217.32 321.31 206.14 311.79 C 182.63 292.18 159.06 272.64 135.78 252.76 Z" />
</g>
<g id="#980d13ff">
<path fill="#980d13" opacity="1.00" d=" M 175.63 252.75 C 196.28 252.75 216.93 252.74 237.58 252.75 C 256.07 269.55 275.90 284.82 294.80 301.16 C 310.13 314.19 325.81 326.81 341.09 339.89 C 342.54 341.05 344.16 342.00 345.89 342.68 L 346.68 343.11 C 347.55 344.55 348.26 346.08 349.04 347.59 C 328.54 347.69 308.03 347.60 287.53 347.61 C 282.90 342.14 276.90 338.14 271.58 333.43 C 246.38 312.64 221.57 291.39 196.35 270.62 C 189.38 264.73 182.22 259.07 175.63 252.75 Z" />
</g>
<g id="#a50d14ff">
<path fill="#a50d14" opacity="1.00" d=" M 237.58 252.75 C 258.41 252.75 279.24 252.74 300.07 252.75 C 315.45 282.65 331.07 312.45 346.25 342.43 L 345.89 342.68 C 344.16 342.00 342.54 341.05 341.09 339.89 C 325.81 326.81 310.13 314.19 294.80 301.16 C 275.90 284.82 256.07 269.55 237.58 252.75 Z" />
</g>
<g id="#450c0fff">
<path fill="#450c0f" opacity="1.00" d=" M 2.01 270.86 C 27.62 292.29 53.32 313.63 78.85 335.18 C 83.26 338.96 88.00 342.38 92.04 346.58 C 87.65 346.64 83.27 347.06 78.91 347.57 C 69.72 347.71 60.53 347.58 51.34 347.62 C 47.69 343.96 43.72 340.65 39.70 337.40 C 27.23 326.79 14.68 316.25 2.00 305.87 C 2.01 294.20 1.98 282.53 2.01 270.86 Z" />
</g>
<g id="#350c0eff">
<path fill="#350c0e" opacity="1.00" d=" M 2.00 305.87 C 14.68 316.25 27.23 326.79 39.70 337.40 C 43.72 340.65 47.69 343.96 51.34 347.62 C 34.90 347.60 18.47 347.70 2.03 347.55 C 1.99 333.66 2.00 319.77 2.00 305.87 Z" />
</g>
<g id="#a0a0a0ff">
<path fill="#a0a0a0" opacity="1.00" d=" M 2.00 361.00 C 117.54 361.00 233.09 360.99 348.63 361.01 C 348.61 383.47 348.65 405.92 348.61 428.38 C 233.08 428.37 117.54 428.38 2.00 428.37 C 2.00 405.92 2.00 383.46 2.00 361.00 M 175.59 377.63 C 172.94 379.97 172.78 383.72 172.83 387.00 C 172.66 390.69 173.14 395.29 176.89 397.13 C 183.51 399.95 190.95 397.61 197.82 398.97 C 199.68 400.17 199.46 402.97 198.68 404.75 C 197.06 406.70 194.15 405.75 191.94 406.03 C 188.83 405.78 184.28 407.14 183.13 403.16 C 179.72 403.29 176.31 403.45 172.91 403.60 C 173.54 407.15 174.76 411.03 178.04 413.00 C 182.51 415.68 187.98 415.07 192.97 415.19 C 197.91 415.08 203.61 415.11 207.39 411.42 C 210.63 408.14 209.76 403.15 209.76 398.98 C 209.78 395.49 207.40 392.12 203.92 391.37 C 198.08 390.11 192.05 390.91 186.13 390.55 C 182.52 390.47 182.49 383.70 186.01 383.42 C 189.65 383.22 193.32 383.20 196.96 383.44 C 198.46 383.38 198.85 384.98 199.52 386.00 C 202.95 385.77 206.37 385.48 209.80 385.18 C 208.91 381.88 207.74 378.23 204.63 376.36 C 200.25 373.76 194.94 374.27 190.06 374.18 C 185.13 374.26 179.53 374.19 175.59 377.63 M 56.54 374.58 C 62.34 388.12 68.17 401.66 74.03 415.18 C 76.74 415.20 79.46 415.19 82.17 415.18 C 88.06 401.67 93.90 388.13 99.71 374.57 C 95.78 374.54 91.85 374.54 87.93 374.57 C 84.63 383.17 81.45 391.81 78.17 400.41 C 74.82 391.82 71.71 383.15 68.38 374.55 C 64.43 374.55 60.48 374.54 56.54 374.58 M 107.01 374.56 C 107.00 388.04 106.99 401.52 107.01 414.99 C 110.84 415.00 114.68 415.02 118.51 414.97 C 118.48 401.50 118.54 388.03 118.48 374.56 C 114.65 374.55 110.83 374.54 107.01 374.56 M 143.10 374.57 C 137.24 388.09 131.39 401.62 125.58 415.17 C 129.49 415.22 133.40 415.14 137.30 415.24 C 137.98 413.73 138.62 412.20 139.20 410.65 C 144.54 410.61 149.89 410.63 155.23 410.64 C 155.82 412.14 156.40 413.65 156.98 415.16 C 160.91 415.21 164.83 415.20 168.76 415.17 C 162.95 401.62 157.12 388.08 151.23 374.56 C 148.52 374.54 145.81 374.54 143.10 374.57 M 230.98 374.57 C 225.11 388.09 219.26 401.63 213.44 415.17 C 217.39 415.20 221.33 415.19 225.28 415.19 C 225.87 413.67 226.46 412.16 227.05 410.65 C 232.39 410.61 237.74 410.62 243.09 410.64 C 243.68 412.15 244.28 413.66 244.89 415.18 C 248.80 415.20 252.72 415.20 256.64 415.17 C 250.82 401.63 244.99 388.08 239.10 374.57 C 236.39 374.54 233.68 374.54 230.98 374.57 M 253.45 374.57 C 253.41 377.79 253.41 381.01 253.45 384.24 C 258.29 384.27 263.14 384.24 267.98 384.25 C 268.03 394.50 267.98 404.74 268.01 414.99 C 271.82 415.01 275.63 415.00 279.44 414.99 C 279.46 404.75 279.43 394.51 279.45 384.27 C 284.31 384.22 289.18 384.28 294.04 384.24 C 294.08 381.01 294.08 377.79 294.05 374.57 C 280.51 374.54 266.98 374.55 253.45 374.57 Z" />
<path fill="#a0a0a0" opacity="1.00" d=" M 142.08 402.99 C 143.78 398.43 145.47 393.87 147.22 389.34 C 148.94 393.88 150.68 398.42 152.38 402.98 C 148.94 403.01 145.51 403.01 142.08 402.99 Z" />
<path fill="#a0a0a0" opacity="1.00" d=" M 229.93 402.99 C 231.70 398.55 233.03 393.93 235.16 389.64 C 236.93 394.06 238.57 398.52 240.22 402.99 C 236.79 403.01 233.36 403.01 229.93 402.99 Z" />
</g>
<g id="#ffffffff">
<path fill="#ffffff" opacity="1.00" d=" M 175.59 377.63 C 179.53 374.19 185.13 374.26 190.06 374.18 C 194.94 374.27 200.25 373.76 204.63 376.36 C 207.74 378.23 208.91 381.88 209.80 385.18 C 206.37 385.48 202.95 385.77 199.52 386.00 C 198.85 384.98 198.46 383.38 196.96 383.44 C 193.32 383.20 189.65 383.22 186.01 383.42 C 182.49 383.70 182.52 390.47 186.13 390.55 C 192.05 390.91 198.08 390.11 203.92 391.37 C 207.40 392.12 209.78 395.49 209.76 398.98 C 209.76 403.15 210.63 408.14 207.39 411.42 C 203.61 415.11 197.91 415.08 192.97 415.19 C 187.98 415.07 182.51 415.68 178.04 413.00 C 174.76 411.03 173.54 407.15 172.91 403.60 C 176.31 403.45 179.72 403.29 183.13 403.16 C 184.28 407.14 188.83 405.78 191.94 406.03 C 194.15 405.75 197.06 406.70 198.68 404.75 C 199.46 402.97 199.68 400.17 197.82 398.97 C 190.95 397.61 183.51 399.95 176.89 397.13 C 173.14 395.29 172.66 390.69 172.83 387.00 C 172.78 383.72 172.94 379.97 175.59 377.63 Z" />
<path fill="#ffffff" opacity="1.00" d=" M 56.54 374.58 C 60.48 374.54 64.43 374.55 68.38 374.55 C 71.71 383.15 74.82 391.82 78.17 400.41 C 81.45 391.81 84.63 383.17 87.93 374.57 C 91.85 374.54 95.78 374.54 99.71 374.57 C 93.90 388.13 88.06 401.67 82.17 415.18 C 79.46 415.19 76.74 415.20 74.03 415.18 C 68.17 401.66 62.34 388.12 56.54 374.58 Z" />
<path fill="#ffffff" opacity="1.00" d=" M 107.01 374.56 C 110.83 374.54 114.65 374.55 118.48 374.56 C 118.54 388.03 118.48 401.50 118.51 414.97 C 114.68 415.02 110.84 415.00 107.01 414.99 C 106.99 401.52 107.00 388.04 107.01 374.56 Z" />
<path fill="#ffffff" opacity="1.00" d=" M 143.10 374.57 C 145.81 374.54 148.52 374.54 151.23 374.56 C 157.12 388.08 162.95 401.62 168.76 415.17 C 164.83 415.20 160.91 415.21 156.98 415.16 C 156.40 413.65 155.82 412.14 155.23 410.64 C 149.89 410.63 144.54 410.61 139.20 410.65 C 138.62 412.20 137.98 413.73 137.30 415.24 C 133.40 415.14 129.49 415.22 125.58 415.17 C 131.39 401.62 137.24 388.09 143.10 374.57 M 142.08 402.99 C 145.51 403.01 148.94 403.01 152.38 402.98 C 150.68 398.42 148.94 393.88 147.22 389.34 C 145.47 393.87 143.78 398.43 142.08 402.99 Z" />
<path fill="#ffffff" opacity="1.00" d=" M 230.98 374.57 C 233.68 374.54 236.39 374.54 239.10 374.57 C 244.99 388.08 250.82 401.63 256.64 415.17 C 252.72 415.20 248.80 415.20 244.89 415.18 C 244.28 413.66 243.68 412.15 243.09 410.64 C 237.74 410.62 232.39 410.61 227.05 410.65 C 226.46 412.16 225.87 413.67 225.28 415.19 C 221.33 415.19 217.39 415.20 213.44 415.17 C 219.26 401.63 225.11 388.09 230.98 374.57 M 229.93 402.99 C 233.36 403.01 236.79 403.01 240.22 402.99 C 238.57 398.52 236.93 394.06 235.16 389.64 C 233.03 393.93 231.70 398.55 229.93 402.99 Z" />
<path fill="#ffffff" opacity="1.00" d=" M 253.45 374.57 C 266.98 374.55 280.51 374.54 294.05 374.57 C 294.08 377.79 294.08 381.01 294.04 384.24 C 289.18 384.28 284.31 384.22 279.45 384.27 C 279.43 394.51 279.46 404.75 279.44 414.99 C 275.63 415.00 271.82 415.01 268.01 414.99 C 267.98 404.74 268.03 394.50 267.98 384.25 C 263.14 384.24 258.29 384.27 253.45 384.24 C 253.41 381.01 253.41 377.79 253.45 374.57 Z" />
</g>
<g id="#a61815ff">
<path fill="#a61815" opacity="1.00" d=" M 211.50 441.71 C 220.96 439.46 231.56 441.58 238.93 448.08 C 250.17 457.49 251.53 475.90 242.26 487.13 C 232.41 499.93 211.88 501.60 199.62 491.35 C 189.65 483.48 186.73 468.54 192.21 457.23 C 195.80 449.44 203.18 443.66 211.50 441.71 M 216.21 452.31 C 207.43 453.37 201.36 462.41 202.35 470.94 C 202.69 480.27 211.76 488.07 221.06 486.65 C 230.32 485.93 236.79 476.28 235.50 467.40 C 234.88 458.05 225.50 450.52 216.21 452.31 Z" />
<path fill="#a61815" opacity="1.00" d=" M 2.01 441.82 C 15.92 441.81 29.83 441.80 43.75 441.83 C 43.75 445.42 43.76 449.02 43.74 452.62 C 33.85 452.63 23.96 452.62 14.07 452.63 C 14.06 456.35 14.06 460.08 14.07 463.81 C 22.77 463.82 31.47 463.80 40.18 463.82 C 40.19 467.44 40.19 471.06 40.18 474.69 C 31.47 474.69 22.77 474.68 14.07 474.69 C 14.06 478.52 14.06 482.35 14.07 486.18 C 24.08 486.19 34.10 486.18 44.11 486.19 C 44.13 489.81 44.13 493.43 44.12 497.05 C 30.08 497.07 16.04 497.06 2.01 497.06 C 2.00 478.64 2.00 460.23 2.01 441.82 Z" />
<path fill="#a61815" opacity="1.00" d=" M 46.66 441.82 C 51.43 441.80 56.20 441.81 60.97 441.81 C 64.86 447.73 68.67 453.70 72.55 459.63 C 76.47 453.71 80.32 447.74 84.23 441.82 C 88.87 441.81 93.52 441.80 98.16 441.82 C 92.01 450.82 85.82 459.80 79.67 468.81 C 86.09 478.23 92.55 487.63 98.97 497.05 C 94.20 497.07 89.43 497.05 84.66 497.07 C 80.49 490.80 76.39 484.48 72.24 478.19 C 68.08 484.47 63.95 490.78 59.77 497.06 C 55.13 497.06 50.49 497.07 45.85 497.05 C 52.26 487.67 58.73 478.34 65.14 468.96 C 59.00 459.90 52.79 450.88 46.66 441.82 Z" />
<path fill="#a61815" opacity="1.00" d=" M 103.07 441.82 C 111.04 441.83 119.01 441.77 126.98 441.84 C 132.73 441.95 138.72 443.96 142.58 448.39 C 147.00 453.43 147.87 460.80 146.14 467.11 C 144.58 472.59 140.08 476.92 134.76 478.78 C 128.56 481.18 121.81 480.36 115.32 480.50 C 115.30 486.02 115.33 491.54 115.31 497.05 C 111.23 497.06 107.15 497.06 103.07 497.06 C 103.06 478.64 103.06 460.23 103.07 441.82 M 115.31 452.82 C 115.32 458.42 115.30 464.02 115.32 469.62 C 120.11 469.34 125.14 470.37 129.76 468.73 C 135.84 466.43 136.32 456.30 130.12 453.87 C 125.42 452.04 120.23 453.09 115.31 452.82 Z" />
<path fill="#a61815" opacity="1.00" d=" M 151.01 441.82 C 155.08 441.81 159.16 441.80 163.24 441.82 C 163.26 456.52 163.24 471.23 163.25 485.93 C 172.46 485.95 181.66 485.92 190.87 485.94 C 190.88 489.65 190.88 493.35 190.87 497.06 C 177.58 497.07 164.29 497.06 151.01 497.06 C 151.00 478.64 151.00 460.23 151.01 441.82 Z" />
<path fill="#a61815" opacity="1.00" d=" M 254.31 441.81 C 263.51 441.86 272.70 441.72 281.89 441.88 C 289.02 442.06 296.67 445.73 299.29 452.74 C 301.59 459.33 301.06 467.67 295.85 472.78 C 293.89 474.86 291.33 476.22 288.77 477.41 C 293.27 483.96 297.77 490.49 302.24 497.05 C 297.46 497.07 292.69 497.06 287.91 497.06 C 284.01 491.22 280.00 485.45 276.20 479.54 C 272.99 479.32 269.77 479.47 266.56 479.45 C 266.56 485.31 266.57 491.18 266.56 497.05 C 262.48 497.07 258.40 497.05 254.32 497.07 C 254.30 478.65 254.31 460.23 254.31 441.81 M 266.57 452.82 C 266.55 458.10 266.57 463.39 266.56 468.67 C 272.01 468.42 277.60 469.31 282.97 468.09 C 289.56 466.48 290.02 455.64 283.49 453.64 C 278.01 452.07 272.19 453.11 266.57 452.82 Z" />
<path fill="#a61815" opacity="1.00" d=" M 306.57 441.82 C 320.50 441.81 334.43 441.81 348.37 441.82 C 348.38 445.42 348.37 449.01 348.38 452.61 C 338.48 452.65 328.59 452.61 318.70 452.64 C 318.68 456.36 318.68 460.08 318.70 463.81 C 327.40 463.82 336.10 463.80 344.81 463.82 C 344.82 467.44 344.82 471.06 344.81 474.69 C 336.10 474.70 327.40 474.68 318.70 474.70 C 318.68 478.52 318.68 482.35 318.70 486.18 C 328.71 486.20 338.73 486.17 348.75 486.19 C 348.75 489.81 348.75 493.43 348.75 497.05 C 334.69 497.07 320.63 497.07 306.57 497.05 C 306.56 478.64 306.56 460.23 306.57 441.82 Z" />
</g>
</svg>
