<?xml version="1.0" encoding="UTF-8" standalone="no"?>
<!-- Created with Inkscape (http://www.inkscape.org/) -->

<svg
   xmlns:dc="http://purl.org/dc/elements/1.1/"
   xmlns:cc="http://creativecommons.org/ns#"
   xmlns:rdf="http://www.w3.org/1999/02/22-rdf-syntax-ns#"
   xmlns:svg="http://www.w3.org/2000/svg"
   xmlns="http://www.w3.org/2000/svg"
   xmlns:inkscape="http://www.inkscape.org/namespaces/inkscape"
   version="1.1"
   width="640.57501"
   height="59.837502"
   id="svg2"
   xml:space="preserve"><metadata
     id="metadata8"><rdf:RDF><cc:Work
         rdf:about=""><dc:format>image/svg+xml</dc:format><dc:type
           rdf:resource="http://purl.org/dc/dcmitype/StillImage" /></cc:Work></rdf:RDF></metadata><defs
     id="defs6"><clipPath
       id="clipPath18"><path
         d="M 0,478.691 0,0 l 5124.62,0 0,478.691 -5124.62,0 z"
         inkscape:connector-curvature="0"
         id="path20" /></clipPath></defs><g
     transform="matrix(1.25,0,0,-1.25,0,59.8375)"
     id="g10"><g
       transform="scale(0.1,0.1)"
       id="g12"><g
         id="g14"><g
           clip-path="url(#clipPath18)"
           id="g16"><path
             d="m 928.699,457.637 c -1.086,0.058 -2.117,0.308 -3.238,0.308 l -10.5,0 c -19.168,0 -32.731,-8 -42.633,-24.09 l -28.426,-46.21 -40.05,-65.079 -46.993,-76.375 -25.754,41.954 -69.265,112.871 -19.809,32.265 c -8.636,14.196 -22.851,24.664 -43.254,24.664 l -10.496,0 c -26.547,0 -47.539,-20.988 -47.539,-47.515 l 0,-344.5706 c 0,-11.875 4.418,-22.4219 11.5,-30.5196 8.438,-9.6562 20.742,-15.789 34.828,-15.789 25.942,0 46.918,20.3515 46.918,46.3086 l 0,214.8946 19.16,-29.504 49.981,-77.051 12.992,-20.019 c 9.871,-14.825 22.207,-24.094 39.52,-24.094 17.289,0 29.632,9.269 39.519,24.094 l 83.371,128.437 0,-215.5389 c 0,-25.9258 20.973,-47.5273 46.93,-47.5273 26.551,0 47.531,21.0234 47.531,47.5273 l 0,343.3519 c 0,25.429 -19.332,45.527 -44.293,47.207"
             inkscape:connector-curvature="0"
             id="path22"
             style="fill:#0b0605;fill-opacity:1;fill-rule:nonzero;stroke:none" /><path
             d="m 1266.32,103.562 c -76.56,0 -130.9,61.7 -130.9,135.801 l 0,1.262 c 0,5.027 0.29,9.98 0.77,14.871 2.7,27.551 12.91,52.609 28.9,72.629 10.79,13.484 24.22,24.617 39.77,32.695 17.6,9.141 37.87,14.414 60.21,14.414 29.43,0 55.52,-9.172 76.56,-24.621 24.03,-17.617 41.36,-43.437 49.35,-73.367 3.24,-12.062 5.02,-24.766 5.02,-37.883 l 0,-1.218 c 0,-44.688 -19.41,-84.309 -51.54,-108.809 -21.13,-16.133 -47.75,-25.774 -78.14,-25.774 m 228.72,150.274 c -1.77,31.203 -9.77,60.637 -22.96,87.043 -36.19,72.441 -111.56,122.035 -205.76,122.035 -80.42,0 -147.56,-36.644 -188.23,-92.652 -4.6,-6.317 -8.84,-12.899 -12.74,-19.676 -7.43,-12.957 -13.56,-26.719 -18.25,-41.125 -7.22,-22.078 -11.11,-45.633 -11.11,-70.098 l 0,-1.218 c 0,-122.883 95.71,-222.3052 229.08,-222.3052 65.29,0 121.78,24.129 162.51,63.1446 42.53,40.7106 67.85,97.6176 67.85,160.3786 l 0,1.262 c 0,4.434 -0.16,8.828 -0.39,13.211"
             inkscape:connector-curvature="0"
             id="path24"
             style="fill:#0b0605;fill-opacity:1;fill-rule:nonzero;stroke:none" /><path
             d="m 1822.7,307.91 0,-1.23 c 0,-0.371 -0.05,-0.735 -0.05,-1.094 -0.55,-35.84 -26.99,-60.059 -72.83,-60.059 l -96.32,0 0,124.129 94.46,0 c 27.34,0 48.39,-7.359 61.09,-21.746 8.39,-9.512 13.11,-22.07 13.54,-37.637 0.02,-0.812 0.11,-1.543 0.11,-2.363 m 59.26,103.738 c -10.09,10.09 -22.02,18.45 -35.64,25.192 -24.65,12.148 -54.87,18.672 -90.33,18.672 l -150.05,0 c -26.54,0 -47.55,-21.012 -47.55,-47.543 l 0,-340.8909 c 0,-26.5039 21.01,-47.5273 47.55,-47.5273 26.59,0 47.56,21.0234 47.56,47.5273 l 0,94.5239 75.96,0 92.62,-117.3832 c 11.12,-14.1602 25.29,-24.668 46.92,-24.668 22.86,0 45.06,17.3047 45.06,43.8476 0,14.8047 -6.15,24.7266 -15.41,36.4063 l -63.78,77.5073 -2.3,2.793 c 40.03,16.477 69.21,44.836 80.84,87.512 1.7,6.231 3.08,12.742 4.01,19.61 1.04,7.734 1.58,15.859 1.58,24.394 l 0,1.211 c 0,40.801 -12.96,74.746 -37.04,98.816"
             inkscape:connector-curvature="0"
             id="path26"
             style="fill:#0b0605;fill-opacity:1;fill-rule:nonzero;stroke:none" /><path
             d="m 2319.88,68.125 c -1.5,22.0977 -19.84,39.746 -42.3,39.746 l -195.77,0 0,90.781 164.89,0 c 6.52,0 12.65,1.563 18.2,4.121 14.35,6.688 24.35,20.918 24.35,37.852 0,23.437 -19.09,42.598 -42.55,42.598 l -164.89,0 0,87.675 192.66,0 c 23.45,0 42.65,18.504 42.65,41.973 0,23.453 -19.2,42.637 -42.65,42.637 l -239.57,0 c -26.54,0 -47.54,-21.008 -47.54,-47.539 l 0,-337.1682 c 0,-26.582 21,-47.5586 47.54,-47.5586 l 242.68,0 c 23.43,0 42.6,18.5742 42.6,42.0117 0,0.9766 -0.22,1.8945 -0.3,2.8711"
             inkscape:connector-curvature="0"
             id="path28"
             style="fill:#0b0605;fill-opacity:1;fill-rule:nonzero;stroke:none" /><path
             d="m 452.266,160.918 c -3.719,11.883 -11.614,22.402 -22.969,28.809 -20.219,11.445 -46.383,7.246 -61.985,-9.961 -7.988,-8.828 -12.996,-20.207 -20.609,-29.434 -9.047,-11.113 -20.211,-20.812 -32.301,-28.555 -2.183,-1.406 -4.437,-2.695 -6.707,-3.965 -42.043,-23.6518 -94.703,-23.8198 -137.019,-0.078 -44.84,26.356 -72.8283,74.786 -70.66,127.207 0.968,22.95 7.718,45.039 19.043,64.395 13.734,23.543 34.179,43.086 59.398,55.254 23.391,11.308 48.531,15.312 74.309,13.457 23.039,-1.731 43.629,-14.836 66.519,-4.777 19.442,8.527 31.391,28.976 29.793,49.972 -0.094,1.219 -0.055,2.391 -0.246,3.602 -3.738,24.062 -22.266,37.336 -44.355,43.355 C 237.457,488.531 166.586,476.5 110.074,440.801 85.9219,425.527 64.4961,405.867 47.0273,382.48 39.6133,372.559 32.8281,362.059 26.9883,350.801 20.9492,339.316 16.0859,327.5 12.0859,315.527 -16.4922,229.746 6.69531,134.062 70.3086,69.4531 76.8281,62.8125 83.6328,56.3867 90.9961,50.4492 116.684,29.7852 146.086,15.7617 176.887,7.75391 243.688,-9.60938 317.105,2.37109 375.035,41.8242 c 8.348,5.6758 16.496,11.7383 24.141,18.586 20.187,18.0664 41.707,41.3478 52.039,66.8628 4.39,10.997 4.43,22.883 1.051,33.645"
             inkscape:connector-curvature="0"
             id="path30"
             style="fill:#0b0605;fill-opacity:1;fill-rule:nonzero;stroke:none" /><path
             d="m 239.332,304.258 c -31.613,0 -57.832,-22.969 -62.961,-53.098 -0.601,-3.523 -0.988,-7.098 -0.988,-10.769 0,-35.313 28.66,-63.946 63.949,-63.946 3.34,0 6.59,0.332 9.801,0.84 30.629,4.719 54.121,31.133 54.121,63.106 0,35.254 -28.609,63.867 -63.922,63.867"
             inkscape:connector-curvature="0"
             id="path32"
             style="fill:#0b0605;fill-opacity:1;fill-rule:nonzero;stroke:none" /><path
             d="m 2479.6,46.6992 0,384.3828 c 0,13.641 11.16,24.797 24.18,24.797 l 269.67,0 c 12.4,0 22.33,-9.922 22.33,-22.305 0,-12.414 -9.93,-22.336 -22.33,-22.336 l -244.88,0 0,-148.172 216.99,0 c 12.4,0 22.33,-10.539 22.33,-22.312 0,-12.406 -9.93,-22.316 -22.33,-22.316 l -216.99,0 0,-151.895 247.99,0 c 12.4,0 22.32,-9.9219 22.32,-22.3242 0,-12.3946 -9.92,-22.3047 -22.32,-22.3047 l -272.78,0 c -13.02,0 -24.18,11.1523 -24.18,24.7851"
             inkscape:connector-curvature="0"
             id="path34"
             style="fill:#0b0605;fill-opacity:1;fill-rule:nonzero;stroke:none" /><path
             d="M 2839.86,59.1016 2984.94,243.23 2847.3,416.824 c -4.34,5.578 -8.07,11.153 -8.07,18.594 0,12.402 10.55,23.551 24.18,23.551 9.92,0 15.51,-4.946 21.7,-12.387 l 130.82,-169.871 128.96,168.012 c 6.82,8.058 13.02,14.246 23.54,14.246 11.79,0 22.33,-9.907 22.33,-22.926 0,-6.199 -2.47,-12.402 -6.82,-17.363 L 3045.69,243.848 3188.9,60.9766 c 4.96,-5.5977 8.06,-11.1719 8.06,-18 0,-13.0157 -10.54,-24.168 -24.18,-24.168 -9.91,0 -15.5,4.9492 -21.7,12.3906 L 3014.07,209.129 2878.92,33.0664 C 2872.1,25 2865.89,18.8086 2854.74,18.8086 c -11.16,0 -21.7,9.9102 -21.7,22.9375 0,6.1914 2.48,12.3945 6.82,17.3555"
             inkscape:connector-curvature="0"
             id="path36"
             style="fill:#0b0605;fill-opacity:1;fill-rule:nonzero;stroke:none" /><path
             d="m 3370.81,410.625 -125.86,0 c -12.4,0 -22.94,9.91 -22.94,22.313 0,12.41 10.54,22.937 22.94,22.937 l 301.3,0 c 12.4,0 22.94,-10.527 22.94,-22.937 0,-12.403 -10.54,-22.313 -22.94,-22.313 l -125.85,0 0,-367.0234 c 0,-13.6407 -11.15,-24.793 -24.8,-24.793 -13.64,0 -24.79,11.1523 -24.79,24.793 l 0,367.0234"
             inkscape:connector-curvature="0"
             id="path38"
             style="fill:#0b0605;fill-opacity:1;fill-rule:nonzero;stroke:none" /><path
             d="m 3788.63,234.551 c 65.1,0 111.6,33.476 111.6,89.277 l 0,1.238 c 0,53.321 -40.92,85.559 -110.98,85.559 l -133.91,0 0,-176.074 133.29,0 z m -182.27,196.531 c 0,13.641 11.17,24.797 24.18,24.797 l 162.44,0 c 53.3,0 96.09,-16.117 123.36,-43.399 21.09,-21.074 33.48,-51.464 33.48,-85.558 l 0,-1.238 c 0,-71.289 -48.35,-112.832 -115.94,-125.848 L 3941.75,60.9648 c 4.98,-5.5859 8.07,-11.1601 8.07,-17.9882 0,-13.0157 -12.39,-24.168 -24.79,-24.168 -9.94,0 -17.38,5.5742 -22.95,13.0156 l -122.12,158.7108 -124.62,0 0,-146.9334 c 0,-13.6407 -11.17,-24.793 -24.8,-24.793 -13.01,0 -24.18,11.1523 -24.18,24.793 l 0,387.4804"
             inkscape:connector-curvature="0"
             id="path40"
             style="fill:#0b0605;fill-opacity:1;fill-rule:nonzero;stroke:none" /><path
             d="m 3991.46,46.6992 0,384.3828 c 0,13.641 11.15,24.797 24.18,24.797 l 269.69,0 c 12.38,0 22.3,-9.922 22.3,-22.305 0,-12.414 -9.92,-22.336 -22.3,-22.336 l -244.91,0 0,-148.172 217.01,0 c 12.39,0 22.31,-10.539 22.31,-22.312 0,-12.406 -9.92,-22.316 -22.31,-22.316 l -217.01,0 0,-151.895 247.99,0 c 12.42,0 22.33,-9.9219 22.33,-22.3242 0,-12.3946 -9.91,-22.3047 -22.33,-22.3047 l -272.77,0 c -13.03,0 -24.18,11.1523 -24.18,24.7851"
             inkscape:connector-curvature="0"
             id="path42"
             style="fill:#0b0605;fill-opacity:1;fill-rule:nonzero;stroke:none" /><path
             d="m 4347.02,433.562 c 0,13.02 11.16,24.18 24.18,24.18 l 5.57,0 c 10.53,0 17.97,-5.59 22.95,-13.027 l 154.98,-233.106 155,233.106 c 4.95,8.066 13.01,13.027 22.93,13.027 l 5.59,0 c 13.02,0 24.17,-11.16 24.17,-24.18 l 0,-389.9604 c 0,-13.6407 -11.15,-24.793 -24.17,-24.793 -13.64,0 -24.81,11.7773 -24.81,24.793 l 0,323.6254 -138.86,-203.973 c -5.59,-8.059 -11.78,-12.395 -20.46,-12.395 -8.68,0 -15.5,4.336 -21.09,12.395 l -138.26,203.348 0,-323.6254 c 0,-13.6328 -10.53,-24.168 -24.18,-24.168 -13.01,0 -23.54,10.5352 -23.54,24.168 l 0,390.5854"
             inkscape:connector-curvature="0"
             id="path44"
             style="fill:#0b0605;fill-opacity:1;fill-rule:nonzero;stroke:none" /><path
             d="m 4805.35,46.6992 0,384.3828 c 0,13.641 11.16,24.797 24.18,24.797 l 269.68,0 c 12.4,0 22.32,-9.922 22.32,-22.305 0,-12.414 -9.92,-22.336 -22.32,-22.336 l -244.9,0 0,-148.172 217,0 c 12.4,0 22.32,-10.539 22.32,-22.312 0,-12.406 -9.92,-22.316 -22.32,-22.316 l -217,0 0,-151.895 248,0 c 12.41,0 22.31,-9.9219 22.31,-22.3242 0,-12.3946 -9.9,-22.3047 -22.31,-22.3047 l -272.78,0 c -13.02,0 -24.18,11.1523 -24.18,24.7851"
             inkscape:connector-curvature="0"
             id="path46"
             style="fill:#0b0605;fill-opacity:1;fill-rule:nonzero;stroke:none" /></g></g></g></g></svg>