<?xml version="1.0" encoding="UTF-8" standalone="no"?>
<!-- Created with Inkscape (http://www.inkscape.org/) -->
<svg
   xmlns:dc="http://purl.org/dc/elements/1.1/"
   xmlns:cc="http://web.resource.org/cc/"
   xmlns:rdf="http://www.w3.org/1999/02/22-rdf-syntax-ns#"
   xmlns:svg="http://www.w3.org/2000/svg"
   xmlns="http://www.w3.org/2000/svg"
   xmlns:sodipodi="http://sodipodi.sourceforge.net/DTD/sodipodi-0.dtd"
   xmlns:inkscape="http://www.inkscape.org/namespaces/inkscape"
   width="387"
   height="297"
   id="svg2"
   sodipodi:version="0.32"
   inkscape:version="0.45.1"
   version="1.0"
   inkscape:output_extension="org.inkscape.output.svg.inkscape">
  <g
     inkscape:label="Layer 1"
     inkscape:groupmode="layer"
     id="layer1"
     transform="translate(-382.42278,-489.77032)">
    <path
       style="fill:#221e1f;fill-rule:nonzero;stroke:none"
       id="path7196"
       d="M 410.38986,786.77031 C 407.72838,786.77031 405.5171,786.45967 403.71553,785.21713 L 406.45892,783.4154 C 407.40074,784.00563 408.99769,784.22312 410.38986,784.22312 C 412.10967,784.22312 412.92863,783.85024 412.92863,783.16686 C 412.92863,782.88728 412.84686,782.63888 412.60113,782.48349 C 412.39636,782.32825 411.98696,782.23495 411.41359,782.14181 L 409.28437,781.95536 C 407.76933,781.80012 406.58179,781.45843 405.80379,780.93031 C 404.98484,780.37113 404.57543,779.59461 404.57543,778.56941 C 404.57543,776.45719 406.99134,774.87296 411.00419,774.87296 C 413.502,774.87296 415.38548,775.27674 416.90067,776.3018 L 414.15713,778.07248 C 413.09245,777.35806 411.61836,777.3891 410.88132,777.3891 C 409.36628,777.3891 408.7521,777.97933 408.7521,778.47626 C 408.7521,778.63165 408.83387,778.81795 409.0796,779.03544 C 409.28437,779.15963 409.69377,779.31502 410.26714,779.37712 L 412.43731,779.56356 C 413.95235,779.71881 415.09895,780.02945 415.87694,780.52652 C 416.81876,781.1478 417.18721,781.98656 417.18721,783.10477 C 417.18721,785.46567 414.07522,786.77031 410.38986,786.77031" />
    <path
       style="fill:#221e1f;fill-rule:nonzero;stroke:none"
       id="path7199"
       d="M 439.09414,778.75585 C 439.09414,779.34607 438.39805,779.9363 437.16969,779.9363 L 434.79475,779.9363 L 434.79475,777.54435 L 437.16969,777.54435 C 438.39805,777.54435 439.09414,778.16562 439.09414,778.75585 z M 443.39367,778.75585 C 443.39367,776.82993 441.30541,774.99716 437.41542,774.99716 L 430.45426,774.99716 L 430.45426,786.70821 L 434.79475,786.70821 L 434.79475,782.51454 L 437.41542,782.51454 C 441.30541,782.51454 443.39367,780.65072 443.39367,778.75585" />
    <path
       style="fill:#221e1f;fill-rule:nonzero;stroke:none"
       id="path7201"
       d="M 464.85024,780.83716 C 464.85024,782.94952 464.56356,783.3533 464.19511,783.69499 C 463.86747,783.97458 463.25329,784.22312 462.4753,784.22312 C 461.6973,784.22312 461.08312,783.97458 460.75548,783.69499 C 460.34593,783.3533 460.10035,782.94952 460.10035,780.83716 C 460.10035,778.6627 460.34593,778.32102 460.75548,777.97933 C 461.08312,777.69974 461.6973,777.4512 462.4753,777.4512 C 463.25329,777.4512 463.86747,777.69974 464.19511,777.97933 C 464.56356,778.32102 464.85024,778.6627 464.85024,780.83716 z M 469.14978,780.83716 C 469.14978,779.06649 469.23169,777.4512 467.38901,776.20865 C 466.07874,775.36989 464.60451,774.87296 462.4753,774.87296 C 460.34593,774.87296 458.83089,775.36989 457.56158,776.20865 C 455.71891,777.4512 455.75986,779.06649 455.75986,780.83716 C 455.75986,782.60784 455.71891,784.22312 457.56158,785.46567 C 458.83089,786.30428 460.34593,786.77031 462.4753,786.77031 C 464.60451,786.77031 466.07874,786.30428 467.38901,785.46567 C 469.23169,784.22312 469.14978,782.60784 469.14978,780.83716" />
    <path
       style="fill:#221e1f;fill-rule:nonzero;stroke:none"
       id="path7203"
       d="M 709.59403,786.70821 L 709.59403,774.99716 L 721.50986,774.99716 L 721.50986,777.54435 L 713.89356,777.54435 L 713.89356,779.50147 L 720.40422,779.50147 L 720.40422,782.07971 L 713.89356,782.07971 L 713.89356,784.09877 L 721.50986,784.09877 L 721.50986,786.70821" />
    <path
       style="fill:#221e1f;fill-rule:nonzero;stroke:none"
       id="path7205"
       d="M 734.98154,786.70821 L 734.98154,774.99716 L 739.36298,774.99716 L 739.36298,784.09877 L 746.65164,784.09877 L 746.65164,786.70821" />
    <path
       style="fill:#221e1f;fill-rule:nonzero;stroke:none"
       id="path7207"
       d="M 575.90008,489.77032 C 469.02691,489.77032 382.42278,534.65729 382.42278,593.11928 C 382.42278,651.58113 469.02691,696.4681 575.90008,696.4681 C 682.77339,696.4681 769.41848,651.58113 769.41848,593.11928 C 769.41848,534.65729 682.77339,489.77032 575.90008,489.77032 z M 576.10485,686.99375 C 492.08043,686.99375 424.31219,646.17596 424.31219,592.65326 C 424.31219,539.1616 492.08043,499.74175 576.10485,499.74175 C 660.12942,499.74175 727.52906,539.1616 727.52906,592.65326 C 727.52906,646.17596 660.12942,686.99375 576.10485,686.99375" />
    <path
       style="fill:#221e1f;fill-rule:nonzero;stroke:none"
       id="path7209"
       d="M 575.90008,602.81113 L 687.19564,568.9517 L 687.19564,600.10854 L 627.57596,617.34897 L 682.15921,630.36452 L 675.19804,656.27174 L 575.94103,633.2846 L 476.76593,655.93005 L 469.64109,630.33348 L 524.34705,617.34897 L 464.76833,599.82895 L 464.76833,568.9517" />
    <path
       style="fill:#221e1f;fill-rule:nonzero;stroke:none"
       id="path7211"
       d="M 549.73457,536.17943 L 600.71437,536.17943 C 607.30694,536.17943 608.74007,534.16036 603.86731,531.73736 C 603.86731,531.73736 593.54857,526.54968 576.10485,526.54968 C 557.18704,526.54968 546.62258,531.76841 546.62258,531.76841 C 541.66791,534.19141 543.06023,536.17943 549.73457,536.17943 z M 494.57825,548.79135 C 494.57825,530.18418 535.44394,510.48985 575.65449,511.45281 C 616.02872,512.41577 649.07349,532.32759 650.54757,550.49977 C 650.58853,550.93476 650.62948,551.86667 650.62948,551.89771 L 546.4178,551.99086 C 539.12915,551.99086 536.46766,555.56326 541.9546,558.76278 C 541.9546,558.76278 555.67201,566.34226 574.71268,566.34226 C 587.40636,566.34226 596.82438,563.39128 602.06558,561.06143 L 650.01531,561.03038 L 648.54122,562.55252 C 635.27417,576.0653 606.77467,585.38441 576.43249,585.38441 C 536.22193,585.38441 494.57825,569.41758 494.57825,548.79135" />
    <path
       style="fill:#221e1f;fill-rule:nonzero;stroke:none"
       id="path7213"
       d="M 491.22053,778.75585 C 491.22053,779.34607 490.52444,779.9363 489.33689,779.9363 L 486.88004,779.9363 L 486.88004,777.54435 L 489.33689,777.54435 C 490.52444,777.54435 491.22053,778.16562 491.22053,778.75585 z M 496.46173,786.70821 L 492.65366,781.76907 C 494.04583,781.33409 495.52006,780.34008 495.52006,778.75585 C 495.52006,776.82993 493.43165,774.99716 489.50071,774.99716 L 482.62146,774.99716 L 482.62146,786.70821 L 486.88004,786.70821 L 486.88004,782.32825 L 488.35412,782.32825 L 491.46611,786.70821" />
    <path
       style="fill:#221e1f;fill-rule:nonzero;stroke:none"
       id="path7215"
       d="M 516.68995,777.54435 L 516.68995,786.70821 L 512.39041,786.70821 L 512.39041,777.54435 L 508.04992,777.54435 L 508.04992,774.99716 L 520.98934,774.99716 L 520.98934,777.54435" />
    <path
       style="fill:#221e1f;fill-rule:nonzero;stroke:none"
       id="path7217"
       d="M 538.96547,786.77031 C 536.26289,786.77031 534.05161,786.45967 532.33195,785.21713 L 535.07534,783.4154 C 535.9762,784.00563 537.57315,784.22312 539.00628,784.22312 C 540.68514,784.22312 541.50409,783.85024 541.50409,783.16686 C 541.50409,782.88728 541.42218,782.63888 541.1766,782.48349 C 540.93087,782.32825 540.56242,782.23495 539.98905,782.14181 L 537.90079,781.95536 C 536.3448,781.80012 535.15725,781.45843 534.3383,780.93031 C 533.5603,780.37113 533.1509,779.59461 533.1509,778.56941 C 533.1509,776.45719 535.5668,774.87296 539.57965,774.87296 C 542.07746,774.87296 543.96095,775.27674 545.47613,776.3018 L 542.77355,778.07248 C 541.66791,777.35806 540.19383,777.3891 539.41583,777.3891 C 537.94175,777.3891 537.32757,777.97933 537.32757,778.47626 C 537.32757,778.63165 537.40933,778.81795 537.69602,779.03544 C 537.90079,779.15963 538.26924,779.31502 538.84261,779.37712 L 540.97182,779.56356 C 542.56877,779.71881 543.71537,780.02945 544.45241,780.52652 C 545.39422,781.1478 545.76267,781.98656 545.76267,783.10477 C 545.76267,785.46567 542.69164,786.77031 538.96547,786.77031" />
    <path
       style="fill:#221e1f;fill-rule:nonzero;stroke:none"
       id="path7219"
       d="M 581.01856,786.77031 C 579.01221,786.77031 577.45622,786.30428 576.14581,785.46567 C 574.30313,784.22312 574.38504,782.60784 574.38504,780.83716 C 574.38504,779.06649 574.30313,777.4512 576.14581,776.20865 C 577.45622,775.36989 579.01221,774.87296 581.01856,774.87296 C 584.37628,774.87296 587.03791,776.11551 587.69304,778.6627 L 583.3116,778.6627 C 583.02506,778.04143 582.49265,777.4512 581.05952,777.4512 C 580.28152,777.4512 579.66734,777.66869 579.38066,777.94828 C 579.01221,778.28997 578.68457,778.6627 578.68457,780.83716 C 578.68457,782.94952 579.01221,783.38435 579.38066,783.72604 C 579.66734,784.00563 580.28152,784.22312 581.05952,784.22312 C 582.49265,784.22312 583.02506,783.60184 583.3116,782.94952 L 587.69304,782.94952 C 587.03791,785.55881 584.37628,786.77031 581.01856,786.77031" />
    <path
       style="fill:#221e1f;fill-rule:nonzero;stroke:none"
       id="path7221"
       d="M 609.31344,786.70821 L 609.31344,782.04866 L 604.72722,782.04866 L 604.72722,786.70821 L 600.42768,786.70821 L 600.42768,774.99716 L 604.72722,774.99716 L 604.72722,779.47027 L 609.31344,779.47027 L 609.31344,774.99716 L 613.61282,774.99716 L 613.61282,786.70821" />
    <path
       style="fill:#221e1f;fill-rule:nonzero;stroke:none"
       id="path7223"
       d="M 635.47895,782.51454 L 632.40776,782.51454 L 634.00471,779.40817 L 635.47895,782.51454 z M 641.94865,786.70821 L 635.56086,774.99716 L 632.20314,774.99716 L 625.81519,786.70821 L 630.3195,786.70821 L 631.22037,784.93754 L 636.58443,784.93754 L 637.44434,786.70821" />
    <path
       style="fill:#221e1f;fill-rule:nonzero;stroke:none"
       id="path7225"
       d="M 664.10131,786.70821 L 658.49151,780.80611 L 658.49151,786.70821 L 654.15102,786.70821 L 654.15102,774.99716 L 657.91814,774.99716 L 663.52794,780.86821 L 663.52794,774.99716 L 667.86843,774.99716 L 667.86843,786.70821" />
    <path
       style="fill:#221e1f;fill-rule:nonzero;stroke:none"
       id="path7227"
       d="M 691.82281,786.70821 L 686.21301,780.80611 L 686.21301,786.70821 L 681.87252,786.70821 L 681.87252,774.99716 L 685.63964,774.99716 L 691.29055,780.86821 L 691.29055,774.99716 L 695.54898,774.99716 L 695.54898,786.70821" />
    <path
       style="fill:#221e1f;fill-rule:nonzero;stroke:none"
       id="path7229"
       d="M 404.53448,725.51273 L 404.53448,761.39123 L 432.70634,761.39123 L 432.70634,753.19047 C 432.70634,753.19047 415.50835,753.19047 415.01704,753.19047 C 415.01704,752.72444 415.01704,747.87859 415.01704,747.41256 C 415.50835,747.41256 430.12662,747.41256 430.12662,747.41256 L 430.12662,739.18076 C 430.12662,739.18076 415.50835,739.18076 415.01704,739.18076 C 415.01704,738.71473 415.01704,734.30371 415.01704,733.83768 C 415.50835,733.83768 432.70634,733.83768 432.70634,733.83768 L 432.70634,725.51273 L 432.46076,725.51273" />
    <path
       style="fill:#221e1f;fill-rule:nonzero;stroke:none"
       id="path7231"
       d="M 486.67526,725.51273 L 486.18395,725.51273 L 474.67767,725.51273 C 474.67767,725.51273 469.27264,734.55225 468.86309,735.26667 C 468.45369,734.55225 463.08947,725.51273 463.08947,725.51273 L 451.05092,725.51273 C 451.05092,725.51273 462.8847,742.72196 463.13043,743.0326 C 462.8847,743.31218 450.23197,761.39123 450.23197,761.39123 L 462.31148,761.39123 C 462.31148,761.39123 468.45369,751.45084 468.86309,750.76747 C 469.27264,751.45084 475.41471,761.39123 475.41471,761.39123 L 487.49421,761.39123 C 487.49421,761.39123 474.80053,743.31218 474.59576,743.0326 C 474.80053,742.72196 486.67526,725.51273 486.67526,725.51273" />
    <path
       style="fill:#221e1f;fill-rule:nonzero;stroke:none"
       id="path7233"
       d="M 503.70958,725.51273 L 503.70958,733.83768 C 503.70958,733.83768 513.20937,733.83768 513.70068,733.83768 C 513.70068,734.33476 513.70068,761.39123 513.70068,761.39123 L 524.14243,761.39123 C 524.14243,761.39123 524.14243,734.33476 524.14243,733.83768 C 524.67469,733.83768 534.21543,733.83768 534.21543,733.83768 L 534.21543,725.51273 L 533.9289,725.51273" />
    <path
       style="fill:#221e1f;fill-rule:nonzero;stroke:none"
       id="path7235"
       d="M 585.40001,737.19259 C 585.40001,734.02412 584.17151,731.32154 581.79656,729.14708 C 579.13493,726.75528 575.61354,725.51273 571.27305,725.51273 L 555.18069,725.51273 L 554.89401,725.51273 L 554.89401,761.39123 L 565.41752,761.39123 C 565.41752,761.39123 565.41752,748.74841 565.41752,748.28238 C 565.78611,748.28238 568.12011,748.28238 568.36584,748.28238 C 568.48855,748.53092 575.57258,761.39123 575.57258,761.39123 L 587.77495,761.39123 C 587.77495,761.39123 579.21684,746.97773 578.88935,746.5117 C 583.18888,744.55473 585.40001,741.44836 585.40001,737.19259 z M 565.41752,733.83768 C 565.86802,733.83768 570.82269,733.83768 570.82269,733.83768 C 572.01009,733.83768 573.03382,734.17952 573.81181,734.80079 C 574.54886,735.48416 574.91745,736.22963 574.91745,737.19259 C 574.91745,738.06241 574.54886,738.80802 573.81181,739.46035 C 573.03382,740.11267 572.092,740.42331 570.82269,740.42331 C 570.82269,740.42331 565.86802,740.42331 565.41752,740.42331 C 565.41752,739.98833 565.41752,734.30371 565.41752,733.83768" />
    <path
       style="fill:#221e1f;fill-rule:nonzero;stroke:none"
       id="path7237"
       d="M 607.47076,725.51273 L 607.47076,761.39123 L 635.68357,761.39123 L 635.68357,753.19047 C 635.68357,753.19047 618.44463,753.19047 617.95331,753.19047 C 617.95331,752.72444 617.95331,747.87859 617.95331,747.41256 C 618.44463,747.41256 633.104,747.41256 633.104,747.41256 L 633.104,739.18076 C 633.104,739.18076 618.44463,739.18076 617.95331,739.18076 C 617.95331,738.71473 617.95331,734.30371 617.95331,733.83768 C 618.44463,733.83768 635.68357,733.83768 635.68357,733.83768 L 635.68357,725.51273 L 635.39704,725.51273" />
    <path
       style="fill:#221e1f;fill-rule:nonzero;stroke:none"
       id="path7239"
       d="M 685.76251,725.51273 C 685.76251,725.51273 677.20454,740.14372 676.75404,740.85814 C 676.34464,740.14372 667.78652,725.51273 667.78652,725.51273 L 657.54969,725.51273 L 657.54969,761.39123 L 668.03225,761.39123 C 668.03225,761.39123 668.03225,746.69814 668.03225,745.14496 C 668.8512,746.41855 676.71308,758.50235 676.71308,758.50235 C 676.71308,758.50235 684.65702,746.41855 685.51693,745.11391 C 685.51693,746.63604 685.51693,761.39123 685.51693,761.39123 L 696.04044,761.39123 L 696.04044,725.51273 L 695.75375,725.51273" />
    <path
       style="fill:#221e1f;fill-rule:nonzero;stroke:none"
       id="path7242"
       d="M 747.02009,733.83768 L 747.02009,725.51273 L 746.77451,725.51273 L 718.84823,725.51273 L 718.84823,761.39123 L 747.02009,761.39123 L 747.02009,753.19047 C 747.02009,753.19047 729.8221,753.19047 729.33079,753.19047 C 729.33079,752.72444 729.33079,747.87859 729.33079,747.41256 C 729.8221,747.41256 744.48147,747.41256 744.48147,747.41256 L 744.48147,739.18076 C 744.48147,739.18076 729.8221,739.18076 729.33079,739.18076 C 729.33079,738.71473 729.33079,734.30371 729.33079,733.83768 C 729.8221,733.83768 747.02009,733.83768 747.02009,733.83768" />
  </g>
</svg>
