<?xml version="1.0" encoding="UTF-8" ?>
<!DOCTYPE svg PUBLIC "-//W3C//DTD SVG 1.1//EN" "http://www.w3.org/Graphics/SVG/1.1/DTD/svg11.dtd">
<svg width="800pt" height="820pt" viewBox="0 0 800 820" version="1.1" xmlns="http://www.w3.org/2000/svg">
<g id="#040000e0">
<path fill="#040000" opacity="0.88" d=" M 282.09 54.01 C 325.97 31.43 377.33 23.23 425.97 31.99 C 484.61 41.63 538.53 75.70 573.17 123.88 C 594.18 152.78 608.29 186.68 613.84 221.97 C 620.42 263.15 615.70 306.16 599.79 344.72 C 576.20 403.31 527.22 451.09 468.02 473.14 C 412.59 494.31 348.85 492.54 294.61 468.54 C 248.23 448.25 208.72 412.15 185.04 367.35 C 199.69 359.50 214.25 351.48 228.92 343.66 C 239.33 362.27 252.59 379.35 268.75 393.32 C 295.20 416.54 328.64 431.74 363.56 436.18 C 402.15 441.42 442.38 433.53 476.09 414.05 C 507.29 396.27 532.87 368.88 548.58 336.61 C 558.88 315.56 564.80 292.43 566.41 269.07 C 568.06 240.67 562.87 211.90 551.36 185.90 C 535.07 148.90 505.87 117.74 469.99 99.11 C 422.65 73.97 363.80 72.05 314.90 93.94 C 279.11 109.42 248.89 137.11 229.93 171.15 C 215.21 163.23 200.78 154.77 186.02 146.93 C 207.98 107.41 241.79 74.55 282.09 54.01 Z" />
<path fill="#040000" opacity="0.88" d=" M 372.84 147.94 C 387.61 146.72 402.79 146.99 417.02 151.55 C 445.10 159.26 469.35 178.89 483.65 204.16 C 468.99 212.20 454.43 220.44 439.85 228.62 C 430.34 211.78 412.77 199.84 393.49 197.72 C 374.51 195.45 354.65 202.71 341.80 216.90 C 325.61 233.72 321.03 260.34 330.24 281.72 C 336.99 298.26 351.51 311.43 368.64 316.51 C 391.22 324.07 417.65 315.95 432.85 297.82 C 435.82 294.54 437.83 290.57 440.54 287.10 C 455.03 294.88 469.43 302.83 484.05 310.35 C 483.81 311.29 483.51 312.21 483.15 313.10 C 469.48 337.28 446.45 355.99 419.89 364.18 C 393.61 372.47 364.16 370.66 339.26 358.78 C 319.25 349.45 302.23 333.94 290.96 314.97 C 279.70 296.14 274.21 273.88 275.45 251.97 C 277.37 215.91 298.12 181.53 329.22 163.14 C 342.44 155.01 357.49 150.00 372.84 147.94 Z" />
<path fill="#040000" opacity="0.88" d=" M 36.13 564.22 C 45.85 556.77 61.57 557.39 69.74 566.92 C 67.46 569.31 65.33 571.87 62.81 574.04 C 60.43 573.49 58.77 571.19 56.33 570.64 C 52.13 569.69 47.19 569.72 43.76 572.69 C 36.37 577.99 36.00 590.16 43.01 595.92 C 47.32 599.40 53.65 600.28 58.53 597.48 C 60.03 596.89 61.29 595.44 62.98 595.55 C 65.64 597.59 67.58 600.35 69.67 602.93 C 65.38 607.47 59.32 610.32 53.08 610.65 C 40.58 611.68 28.45 602.36 26.13 590.05 C 24.03 580.49 28.26 569.95 36.13 564.22 Z" />
<path fill="#040000" opacity="0.88" d=" M 157.33 559.23 C 158.72 559.35 160.63 558.96 161.11 560.71 C 166.54 570.70 172.03 580.65 177.18 590.78 C 183.05 580.64 188.26 570.12 193.97 559.91 C 194.80 558.86 196.26 559.47 197.38 559.41 C 199.19 570.09 201.35 580.71 202.79 591.45 C 203.70 597.55 205.26 603.55 205.75 609.71 C 202.20 609.87 198.63 610.13 195.10 609.70 C 194.25 608.70 194.38 607.23 194.07 606.04 C 193.15 599.65 192.03 593.30 191.41 586.88 C 187.59 593.03 184.66 599.69 181.21 606.05 C 180.08 607.70 179.72 611.03 177.12 610.71 C 175.70 610.94 175.35 609.09 174.64 608.26 C 170.81 601.15 167.21 593.92 163.40 586.80 C 161.88 594.36 161.38 602.17 159.76 609.68 C 156.31 610.06 152.78 610.06 149.33 609.67 C 148.91 608.42 149.30 607.10 149.40 605.84 C 150.92 594.85 153.22 583.99 154.96 573.04 C 155.57 568.41 156.25 563.78 157.33 559.23 Z" />
<path fill="#040000" opacity="0.88" d=" M 619.53 559.45 C 620.92 559.43 622.68 558.80 623.67 560.16 C 632.90 569.28 641.85 578.68 651.19 587.68 C 651.37 578.58 650.98 569.47 651.37 560.38 C 654.70 559.05 658.66 560.08 662.24 559.85 C 662.76 576.72 662.55 593.65 662.46 610.55 C 661.31 610.43 659.85 611.06 658.94 610.14 C 649.44 601.38 640.43 592.09 630.88 583.39 C 630.70 592.16 631.00 600.95 630.71 609.72 C 627.07 609.62 622.97 610.65 619.62 609.27 C 619.35 592.67 619.55 576.06 619.53 559.45 Z" />
<path fill="#040000" opacity="0.88" d=" M 731.29 566.31 C 740.08 557.03 756.21 556.90 765.65 565.30 C 773.55 571.86 776.83 583.44 773.32 593.14 C 770.92 599.78 765.98 605.66 759.37 608.37 C 750.13 612.74 737.64 611.04 730.93 603.04 C 732.71 600.13 735.26 597.75 737.87 595.57 C 742.22 599.08 748.31 601.25 753.69 598.74 C 761.07 595.80 764.61 586.14 761.11 579.06 C 758.73 573.30 752.14 569.50 745.97 570.75 C 742.92 571.24 740.29 572.94 737.86 574.73 C 735.52 572.49 733.12 570.28 731.16 567.70 C 731.19 567.36 731.26 566.66 731.29 566.31 Z" />
<path fill="#040000" opacity="0.88" d=" M 101.18 560.12 C 108.10 558.61 115.93 558.84 121.96 562.96 C 129.82 567.66 134.76 576.85 134.27 586.01 C 134.01 596.48 126.59 606.29 116.57 609.39 C 106.99 612.75 95.67 609.53 89.04 601.90 C 83.62 595.44 81.19 586.29 83.69 578.11 C 85.97 569.63 92.78 562.64 101.18 560.12 M 104.20 571.28 C 98.52 573.27 94.22 578.90 94.30 584.99 C 94.22 591.61 99.41 597.67 105.89 598.89 C 114.17 600.73 122.95 593.51 122.77 585.04 C 123.08 575.90 112.94 567.97 104.20 571.28 Z" />
<path fill="#040000" opacity="0.88" d=" M 224.10 560.11 C 234.79 559.50 245.52 559.95 256.22 559.88 C 256.46 563.34 256.45 566.81 256.30 570.29 C 249.30 570.50 242.28 570.33 235.28 570.39 C 235.29 573.32 235.27 576.25 235.22 579.19 C 240.94 579.63 246.69 579.01 252.40 579.49 C 253.76 582.62 252.92 586.35 252.75 589.70 C 246.94 589.86 241.13 589.75 235.32 589.76 C 235.27 592.97 235.26 596.18 235.29 599.39 C 242.10 599.50 248.94 599.16 255.74 599.53 C 256.92 602.48 256.66 606.57 255.91 609.72 C 245.37 610.07 234.80 609.87 224.25 609.80 C 223.58 603.89 224.07 597.94 224.05 592.02 C 223.91 581.39 223.84 570.74 224.10 560.11 Z" />
<path fill="#040000" opacity="0.88" d=" M 275.23 560.02 C 281.48 559.62 287.75 559.91 294.01 559.82 C 302.32 559.70 310.24 564.35 314.91 571.09 C 321.14 580.39 320.15 594.06 312.14 602.03 C 307.37 607.33 300.09 610.11 293.01 609.89 C 287.09 609.83 281.17 610.02 275.25 609.75 C 275.01 593.18 275.05 576.60 275.23 560.02 M 286.32 570.40 C 286.46 580.07 286.13 589.74 286.49 599.41 C 291.17 599.23 296.29 599.99 300.44 597.27 C 309.01 592.40 309.31 578.30 301.14 572.89 C 296.96 569.50 291.29 570.51 286.32 570.40 Z" />
<path fill="#040000" opacity="0.88" d=" M 328.98 560.18 C 332.88 559.80 336.94 559.40 340.79 560.18 C 344.10 564.95 347.28 569.83 350.54 574.64 C 350.74 574.66 351.14 574.70 351.35 574.72 C 354.18 570.16 357.33 565.82 360.23 561.31 C 361.02 559.31 363.36 559.94 365.05 559.79 C 367.57 559.95 370.30 559.36 372.69 560.35 C 372.82 561.30 372.56 562.15 371.92 562.90 C 367.02 570.08 362.17 577.30 357.34 584.53 C 356.88 584.75 355.95 585.17 355.49 585.38 C 355.93 586.90 356.78 588.33 356.55 590.00 C 356.20 596.62 357.01 603.30 356.13 609.87 C 352.53 609.90 348.93 609.96 345.33 609.72 C 344.97 601.84 345.52 593.93 345.07 586.06 C 342.03 580.50 338.13 575.47 334.77 570.11 C 332.81 566.83 329.97 563.95 328.98 560.18 Z" />
<path fill="#040000" opacity="0.88" d=" M 409.20 560.10 C 414.42 559.46 419.70 559.92 424.95 559.79 C 429.50 559.94 434.10 559.39 438.62 560.19 C 438.61 573.82 438.61 587.44 438.61 601.07 C 438.61 604.01 438.82 606.98 438.26 609.90 C 434.75 609.53 430.77 610.62 427.54 609.32 C 427.10 596.42 427.38 583.46 427.41 570.54 C 421.34 570.07 415.23 570.75 409.17 570.15 C 409.16 566.80 409.16 563.45 409.20 560.10 Z" />
<path fill="#040000" opacity="0.88" d=" M 453.59 559.87 C 457.06 559.83 460.56 559.57 464.03 559.94 C 466.14 561.81 466.76 564.80 468.03 567.24 C 474.45 567.35 480.87 567.19 487.29 567.35 C 488.75 565.05 489.05 561.87 491.17 560.13 C 494.70 559.38 498.39 559.77 501.97 560.13 C 499.57 567.53 495.50 574.26 492.56 581.45 C 487.85 590.99 483.80 600.85 478.87 610.27 C 478.38 610.39 477.39 610.62 476.90 610.74 C 471.91 602.23 468.55 592.81 464.02 584.03 C 461.51 578.28 458.70 572.67 456.16 566.94 C 455.16 564.63 453.57 562.47 453.59 559.87 M 472.43 577.08 C 473.95 580.94 475.58 584.82 477.93 588.26 C 479.58 584.48 481.46 580.81 483.13 577.05 C 479.56 577.00 476.00 577.02 472.43 577.08 Z" />
<path fill="#040000" opacity="0.88" d=" M 514.63 559.88 C 518.42 559.83 522.22 559.60 526.00 559.90 C 530.04 566.01 532.74 573.03 536.21 579.52 C 537.75 579.52 539.30 579.52 540.86 579.53 C 541.07 573.01 540.60 566.47 541.16 559.97 C 544.72 559.90 548.39 559.31 551.90 560.15 C 551.99 560.62 552.18 561.55 552.28 562.02 C 552.31 576.69 552.24 591.37 552.31 606.05 C 552.05 607.20 552.91 609.89 550.98 609.79 C 544.00 610.03 537.01 609.82 530.02 609.88 C 523.41 610.17 516.90 605.75 514.80 599.47 C 513.88 595.59 513.78 591.24 515.64 587.62 C 517.76 584.25 520.85 581.43 524.63 580.05 C 521.50 574.80 518.89 569.27 515.78 564.01 C 514.96 562.78 514.63 561.33 514.63 559.88 M 527.61 589.60 C 523.73 591.79 524.55 597.89 528.67 599.31 C 532.68 600.07 536.82 599.49 540.89 599.68 C 540.90 595.98 540.90 592.28 540.94 588.59 C 536.54 588.97 531.66 587.49 527.61 589.60 Z" />
<path fill="#040000" opacity="0.88" d=" M 580.49 560.47 C 583.75 559.01 588.04 559.87 591.66 560.18 C 591.68 573.25 591.65 586.32 591.67 599.38 C 595.39 599.38 599.12 599.39 602.85 599.39 C 603.27 602.76 603.76 606.40 602.80 609.69 C 591.63 610.01 580.39 610.02 569.22 609.69 C 568.06 606.73 568.67 603.14 568.89 599.98 C 572.32 598.58 576.59 599.77 580.33 599.38 C 580.45 586.41 580.11 573.42 580.49 560.47 Z" />
<path fill="#040000" opacity="0.88" d=" M 681.31 560.15 C 687.49 559.37 693.74 559.98 699.96 559.79 C 704.49 559.94 709.06 559.38 713.56 560.20 C 713.45 576.56 713.76 592.94 713.41 609.28 L 712.90 609.74 C 702.40 609.97 691.87 610.01 681.38 609.70 C 681.27 606.30 681.25 602.89 681.45 599.50 C 688.44 599.25 695.43 599.46 702.43 599.38 C 702.43 596.45 702.43 593.54 702.43 590.62 C 696.69 590.59 690.96 590.63 685.23 590.59 C 684.57 587.17 684.71 583.67 685.11 580.23 C 690.86 580.10 696.63 580.19 702.39 580.17 C 702.41 576.95 702.44 573.72 702.49 570.51 C 695.66 570.16 688.81 570.61 681.98 570.30 C 680.45 567.44 681.70 563.44 681.31 560.15 Z" />
</g>
<g id="#07020767">
<path fill="#070207" opacity="0.40" d=" M 561.21 421.82 C 563.57 422.18 567.73 420.69 567.32 424.51 C 568.16 423.45 569.05 422.43 570.13 421.59 C 570.46 423.32 570.74 425.06 571.04 426.81 C 569.02 426.67 567.00 426.72 565.01 427.01 C 564.96 425.48 564.89 423.96 564.81 422.45 C 563.33 423.78 563.64 425.95 563.21 427.71 C 561.43 426.37 561.89 423.75 561.21 421.82 Z" />
</g>
<g id="#1919191d">
<path fill="#191919" opacity="0.11" d=" M 190.75 640.95 C 192.94 639.72 195.58 640.12 197.99 639.88 C 199.41 640.12 201.70 639.06 202.36 640.93 C 198.49 640.93 194.62 641.03 190.75 640.95 Z" />
</g>
<g id="#2223232d">
<path fill="#222323" opacity="0.18" d=" M 261.78 640.05 C 268.50 639.68 275.21 640.18 281.91 640.46 C 282.24 640.58 282.88 640.82 283.21 640.94 C 276.11 641.12 269.02 640.85 261.93 640.94 L 261.78 640.05 Z" />
</g>
<g id="#35363654">
<path fill="#353636" opacity="0.33" d=" M 288.74 640.92 C 290.90 639.25 293.64 640.74 296.01 641.08 C 296.01 642.36 296.02 643.66 296.03 644.96 C 295.53 645.26 294.54 645.86 294.05 646.16 C 294.40 644.54 296.13 641.98 293.78 641.14 C 292.11 640.90 290.42 640.92 288.74 640.92 Z" />
</g>
<g id="#22262485">
<path fill="#222624" opacity="0.52" d=" M 700.14 641.98 C 699.09 640.24 703.08 638.84 702.98 641.08 C 702.05 641.45 701.10 641.74 700.14 641.98 Z" />
</g>
<g id="#4c4b4bcf">
<path fill="#4c4b4b" opacity="0.81" d=" M 28.00 645.67 C 27.61 643.50 28.26 639.74 31.30 641.36 C 30.27 642.85 29.16 644.28 28.00 645.67 Z" />
</g>
<g id="#0a0e0fe6">
<path fill="#0a0e0f" opacity="0.90" d=" M 31.30 641.36 L 31.59 640.95 C 34.35 642.00 37.08 643.72 40.16 643.32 C 48.07 642.75 55.94 644.11 63.84 643.45 C 70.25 643.86 76.69 644.02 83.09 643.33 C 87.87 642.70 92.89 644.97 97.38 642.52 C 100.93 640.80 104.20 644.93 107.70 643.41 C 111.68 641.75 116.15 642.78 120.14 641.15 L 120.18 641.36 C 120.78 643.87 121.11 646.43 121.03 649.02 C 120.90 656.29 121.11 663.56 121.03 670.84 L 120.17 671.03 C 100.43 670.96 80.70 671.05 60.96 670.98 C 59.30 670.99 57.55 670.95 56.08 671.88 C 55.84 680.91 56.12 689.95 55.96 698.98 L 56.42 699.14 C 59.13 700.35 62.13 699.96 65.00 700.01 C 79.35 699.88 93.71 700.23 108.05 699.81 C 108.22 700.41 108.56 701.62 108.73 702.23 C 109.19 703.86 109.13 705.60 108.79 707.26 C 107.74 713.00 107.70 719.06 108.79 724.79 C 108.82 725.25 108.89 726.18 108.92 726.64 C 108.73 727.24 108.34 728.45 108.15 729.05 C 95.75 728.93 83.36 729.04 70.96 728.99 C 66.04 729.10 61.13 729.54 56.22 729.13 L 56.08 729.81 C 55.83 739.51 56.15 749.24 55.94 758.95 L 56.33 759.08 C 57.83 759.59 59.37 760.00 60.97 759.98 C 81.03 760.04 101.10 760.01 121.15 759.88 C 121.27 760.47 121.52 761.65 121.65 762.24 L 121.69 762.45 C 120.13 770.99 121.54 779.76 120.90 788.39 L 120.87 788.95 C 90.55 789.07 60.23 788.97 29.91 789.00 C 29.91 787.76 28.97 786.88 28.27 786.00 C 27.85 781.70 27.71 777.16 28.40 772.89 C 29.55 770.72 29.61 768.24 28.41 766.09 C 27.65 763.99 27.91 761.67 28.21 759.51 C 29.27 754.52 29.49 749.29 28.20 744.32 C 28.26 743.75 28.37 742.59 28.43 742.02 C 29.43 740.84 29.39 739.18 28.45 738.00 C 27.52 735.04 27.97 731.71 28.22 728.64 C 29.41 722.97 29.42 717.02 28.22 711.36 C 27.86 702.17 27.85 692.89 28.23 683.70 C 29.39 680.00 29.12 676.13 28.20 672.42 C 27.86 670.49 27.83 668.52 28.21 666.61 C 29.25 662.91 29.30 659.04 28.22 655.35 C 27.77 652.14 28.10 648.89 28.00 645.67 C 29.16 644.28 30.27 642.85 31.30 641.36 Z" />
<path fill="#0a0e0f" opacity="0.90" d=" M 165.62 640.80 C 173.99 641.24 182.38 640.95 190.75 640.95 C 194.62 641.03 198.49 640.93 202.36 640.93 C 202.74 640.97 203.51 641.03 203.90 641.07 C 205.99 644.45 207.85 647.97 210.05 651.29 C 210.16 651.56 210.39 652.10 210.50 652.38 C 210.79 653.62 211.60 654.63 212.60 655.41 L 213.46 656.42 C 213.50 656.48 213.59 656.59 213.63 656.65 C 214.97 659.08 217.07 661.21 217.67 663.98 C 217.79 665.20 218.09 666.76 219.47 667.16 L 219.93 667.37 C 221.53 671.15 223.19 675.09 226.24 677.98 L 226.80 678.56 L 227.00 679.34 C 226.84 681.85 230.43 683.73 231.16 680.60 C 231.54 679.48 232.17 678.57 233.06 677.86 C 233.38 677.48 234.01 676.74 234.33 676.36 C 236.15 673.28 238.41 670.51 240.41 667.56 C 240.45 667.49 240.53 667.36 240.57 667.30 L 241.49 665.68 C 241.52 665.63 241.58 665.53 241.61 665.48 C 242.85 663.47 244.29 661.59 245.44 659.54 C 245.48 659.47 245.55 659.35 245.58 659.29 L 246.45 657.64 C 246.48 657.59 246.54 657.49 246.57 657.43 C 247.03 656.73 247.96 655.31 248.42 654.61 C 248.46 654.55 248.53 654.43 248.57 654.38 C 250.39 651.48 251.73 648.32 253.42 645.35 C 255.25 644.85 256.09 642.99 256.98 641.50 L 257.32 640.88 C 258.85 640.91 260.39 640.94 261.93 640.94 C 269.02 640.85 276.11 641.12 283.21 640.94 C 285.05 640.96 286.89 640.95 288.74 640.92 C 290.42 640.92 292.11 640.90 293.78 641.14 C 296.13 641.98 294.40 644.54 294.05 646.16 L 293.91 646.36 C 291.43 648.96 289.44 651.96 287.97 655.24 C 287.61 655.65 286.88 656.48 286.52 656.89 C 285.29 657.71 284.79 659.12 284.60 660.54 C 284.34 661.25 283.82 662.68 283.57 663.40 L 283.45 663.64 L 283.32 663.86 C 282.88 664.51 282.02 665.80 281.58 666.44 C 281.55 666.48 281.49 666.57 281.46 666.61 C 280.97 667.30 280.00 668.67 279.51 669.36 C 279.48 669.40 279.42 669.49 279.39 669.54 L 278.92 670.19 C 276.78 673.10 274.75 676.10 272.99 679.26 L 272.65 679.84 C 271.57 680.03 270.96 680.73 270.83 681.92 C 270.54 682.55 269.95 683.82 269.66 684.45 C 269.63 684.50 269.57 684.60 269.54 684.65 C 266.29 689.37 262.89 693.98 259.68 698.72 C 258.33 699.85 257.07 701.24 257.01 703.11 L 256.87 703.87 C 256.44 704.13 255.57 704.64 255.13 704.89 L 254.65 705.72 C 253.60 706.05 252.99 706.75 252.83 707.83 C 252.53 708.48 251.95 709.79 251.65 710.44 C 251.62 710.49 251.54 710.60 251.51 710.65 L 250.83 711.52 C 250.13 712.38 249.43 713.24 248.74 714.11 C 250.07 716.27 251.33 718.48 252.78 720.57 C 255.25 723.77 257.27 727.25 259.32 730.72 C 262.13 733.97 264.27 737.69 266.49 741.37 C 266.52 741.41 266.58 741.50 266.61 741.54 C 269.66 745.15 271.63 749.48 274.38 753.30 C 274.45 753.39 274.57 753.58 274.64 753.67 C 275.97 755.52 277.20 757.45 278.34 759.44 C 278.37 759.49 278.42 759.58 278.45 759.63 C 281.28 764.29 284.47 768.74 287.46 773.31 C 287.49 773.37 287.56 773.48 287.60 773.53 C 288.49 774.96 289.43 776.40 290.06 777.99 C 290.22 779.11 290.81 779.81 291.82 780.09 L 292.05 780.64 C 292.78 782.94 294.28 784.83 295.89 786.60 L 296.26 787.35 L 296.27 787.85 L 296.28 789.26 L 294.95 789.06 C 294.55 789.05 293.75 789.02 293.35 789.00 C 282.09 789.12 270.83 788.71 259.58 789.22 L 259.09 789.23 L 257.69 788.59 C 257.66 788.55 257.59 788.48 257.55 788.45 C 255.68 785.95 254.27 783.16 252.51 780.59 C 252.49 780.54 252.43 780.44 252.40 780.39 C 251.78 779.33 251.30 778.21 250.96 777.05 C 250.75 776.03 250.20 775.27 249.30 774.75 C 247.93 772.76 246.84 770.59 245.47 768.61 C 245.44 768.56 245.37 768.46 245.34 768.41 C 244.04 766.48 242.70 764.58 241.61 762.53 C 241.59 762.49 241.55 762.40 241.53 762.36 L 240.99 760.94 C 240.64 759.24 239.79 757.73 238.38 756.71 L 237.46 755.68 C 237.43 755.64 237.37 755.55 237.34 755.51 C 236.14 753.46 235.20 751.29 234.03 749.23 C 233.06 747.59 231.86 746.09 230.67 744.62 C 230.17 744.86 229.18 745.34 228.68 745.58 C 228.46 745.95 228.02 746.68 227.80 747.05 C 227.03 748.47 226.30 749.92 225.46 751.32 C 225.43 751.38 225.36 751.49 225.32 751.55 C 224.89 752.26 224.02 753.67 223.58 754.38 C 223.55 754.43 223.49 754.53 223.46 754.58 C 222.46 756.18 221.52 757.82 220.58 759.47 C 220.55 759.53 220.49 759.64 220.45 759.70 C 219.49 761.27 218.48 762.83 217.58 764.47 C 217.55 764.53 217.49 764.64 217.45 764.70 L 216.56 766.40 C 216.53 766.46 216.46 766.58 216.43 766.64 L 215.52 768.32 C 215.49 768.37 215.44 768.46 215.41 768.51 C 214.15 770.50 212.72 772.38 211.53 774.42 C 211.50 774.47 211.44 774.57 211.41 774.62 C 210.14 776.90 208.99 779.25 207.63 781.49 C 207.60 781.55 207.54 781.65 207.50 781.71 C 206.52 783.24 205.62 784.83 204.73 786.43 C 204.68 786.51 204.58 786.66 204.53 786.74 C 203.61 787.82 202.71 789.53 200.99 789.13 C 193.09 788.87 185.18 789.00 177.28 789.08 C 173.14 788.93 169.00 789.13 164.87 789.04 C 164.46 788.89 163.66 788.58 163.26 788.43 C 163.80 787.74 164.90 786.36 165.45 785.66 C 165.50 785.58 165.60 785.41 165.65 785.33 L 166.46 783.65 C 166.49 783.59 166.55 783.47 166.58 783.41 C 167.34 781.88 168.12 780.31 169.39 779.14 C 170.57 778.11 171.49 776.84 171.91 775.33 C 172.35 773.99 173.19 772.86 174.02 771.75 C 175.52 769.80 176.87 767.74 178.14 765.64 L 178.19 765.56 C 179.36 763.78 180.53 762.01 181.68 760.23 L 182.13 759.54 C 184.71 756.04 187.10 752.42 189.03 748.53 L 189.56 747.69 C 189.60 747.64 189.67 747.54 189.70 747.49 C 191.85 744.66 193.50 741.52 195.40 738.53 C 195.43 738.49 195.49 738.39 195.52 738.35 C 195.88 737.83 196.59 736.81 196.94 736.30 C 198.11 734.61 199.26 732.92 200.38 731.21 C 200.85 730.49 201.29 729.77 201.70 729.04 L 202.25 728.09 C 203.24 727.47 203.96 726.53 204.15 725.38 C 206.39 721.40 209.32 717.66 210.36 713.15 C 210.04 712.49 209.39 711.18 209.07 710.52 L 208.53 709.58 C 208.50 709.53 208.43 709.43 208.40 709.38 C 207.18 707.42 205.85 705.56 204.52 703.69 C 204.48 703.64 204.41 703.53 204.37 703.48 C 203.91 702.79 202.98 701.41 202.51 700.71 C 202.48 700.66 202.41 700.56 202.38 700.51 C 201.92 699.79 201.01 698.36 200.55 697.65 C 200.52 697.59 200.45 697.48 200.41 697.42 C 200.08 696.72 199.41 695.33 199.08 694.64 C 198.63 692.91 198.53 690.32 196.29 690.05 L 195.33 689.80 C 194.79 688.71 194.22 687.65 193.62 686.60 C 193.58 686.54 193.50 686.42 193.46 686.36 C 192.50 685.05 191.48 683.80 190.58 682.47 C 190.55 682.43 190.49 682.33 190.46 682.28 L 189.50 680.69 C 189.47 680.64 189.40 680.53 189.37 680.48 C 188.91 679.78 187.98 678.37 187.52 677.67 C 187.49 677.62 187.42 677.51 187.39 677.46 C 185.51 674.47 183.79 671.37 181.57 668.61 C 181.54 668.57 181.47 668.47 181.44 668.42 C 180.97 667.72 180.04 666.30 179.58 665.59 C 179.54 665.53 179.47 665.40 179.43 665.34 L 178.57 663.69 C 178.54 663.64 178.48 663.53 178.45 663.48 C 177.56 661.82 176.54 660.26 175.51 658.71 C 175.48 658.66 175.42 658.57 175.39 658.52 C 173.21 654.59 170.10 651.34 167.63 647.62 C 167.60 647.57 167.54 647.48 167.51 647.43 L 167.00 646.60 C 166.29 645.38 165.60 644.17 164.91 642.97 C 165.09 642.42 165.44 641.34 165.62 640.80 Z" />
<path fill="#0a0e0f" opacity="0.90" d=" M 423.72 641.54 C 426.47 641.32 429.24 641.33 432.00 641.46 C 431.38 641.70 430.13 642.18 429.51 642.42 C 430.00 642.93 430.50 643.46 431.00 643.99 C 430.81 653.00 431.45 662.00 431.16 671.01 C 419.81 671.02 408.46 670.92 397.11 671.09 C 397.06 673.65 396.97 676.22 396.87 678.79 C 396.37 679.79 396.14 680.85 396.17 681.98 C 396.24 717.65 396.16 753.33 396.19 789.00 C 386.46 788.99 376.73 789.01 367.00 788.99 C 366.92 749.97 367.16 710.94 366.88 671.92 C 365.30 671.40 363.69 670.93 362.02 670.99 C 351.68 671.00 341.33 671.00 330.99 671.00 C 331.19 661.59 330.91 652.17 331.10 642.77 C 338.36 644.32 345.75 642.76 353.05 643.81 C 364.70 643.70 376.35 643.94 388.00 643.72 C 397.00 642.80 405.99 644.18 415.00 643.77 C 418.73 643.45 422.97 644.86 426.27 642.57 C 425.63 642.31 424.36 641.80 423.72 641.54 Z" />
<path fill="#0a0e0f" opacity="0.90" d=" M 700.14 641.98 C 701.10 641.74 702.05 641.45 702.98 641.08 C 704.45 640.92 705.94 640.93 707.43 640.88 C 708.95 642.76 710.54 644.60 711.91 646.61 C 712.96 649.03 713.94 651.49 715.03 653.91 C 715.38 655.01 715.96 656.01 716.59 657.00 L 716.89 658.07 C 717.05 659.29 717.68 660.36 718.50 661.29 C 719.20 662.24 719.82 663.26 720.36 664.34 C 720.38 664.39 720.42 664.49 720.44 664.53 C 720.73 665.23 721.31 666.63 721.59 667.32 C 721.62 667.39 721.68 667.52 721.71 667.59 L 722.50 669.33 C 722.52 669.39 722.58 669.51 722.60 669.56 L 723.42 671.35 C 723.46 671.43 723.53 671.58 723.57 671.66 C 724.26 673.18 725.08 674.67 725.62 676.27 C 725.67 677.30 726.00 678.24 726.63 679.08 C 727.24 680.16 727.85 681.25 728.46 682.35 C 728.49 682.40 728.54 682.49 728.57 682.54 C 729.11 683.49 729.60 684.47 730.06 685.49 C 730.95 688.01 732.24 690.36 733.78 692.56 C 734.36 693.60 734.70 694.77 734.94 695.96 C 735.05 697.48 735.76 698.85 736.69 700.06 C 739.60 705.07 741.86 710.44 744.45 715.62 C 745.05 717.05 745.89 718.48 745.95 720.08 C 746.17 720.56 746.61 721.52 746.83 722.00 C 747.11 722.53 747.67 723.60 747.95 724.13 C 748.17 724.61 748.61 725.57 748.83 726.05 C 749.57 727.30 749.85 728.73 750.28 730.12 C 750.66 731.90 751.61 733.46 752.60 734.98 L 752.86 735.60 C 753.86 738.71 755.33 741.64 756.78 744.57 L 756.91 744.89 C 757.75 747.20 758.72 749.48 760.05 751.57 L 760.54 752.41 C 760.56 752.45 760.62 752.55 760.65 752.60 C 764.00 759.49 767.16 766.46 770.56 773.34 C 770.58 773.39 770.64 773.50 770.66 773.55 C 771.24 774.65 771.73 775.81 772.12 777.01 C 772.60 778.86 773.10 780.92 774.85 782.02 L 774.94 782.47 C 775.27 784.26 775.63 786.08 775.81 787.91 C 775.68 788.20 775.43 788.78 775.30 789.07 C 765.44 788.87 755.58 789.12 745.74 788.94 C 744.86 788.64 743.99 788.41 743.10 788.25 C 742.75 786.96 742.27 785.74 741.66 784.57 C 741.63 784.52 741.58 784.40 741.55 784.35 C 740.81 782.78 740.11 781.21 739.49 779.62 C 739.47 779.56 739.43 779.45 739.41 779.39 L 739.01 778.04 C 738.84 777.54 738.49 776.52 738.32 776.02 C 738.01 775.71 737.41 775.10 737.10 774.80 C 737.09 774.30 737.06 773.30 737.05 772.80 C 737.21 771.06 736.31 768.69 734.21 768.97 C 732.44 768.94 730.70 769.03 728.95 769.10 L 728.18 769.11 C 711.87 768.78 695.56 769.24 679.24 768.93 C 679.32 769.41 679.46 770.36 679.54 770.84 C 679.40 770.40 679.11 769.50 678.96 769.06 L 677.62 768.96 C 676.42 768.64 675.11 769.30 674.84 770.55 C 674.55 771.17 673.97 772.41 673.69 773.03 C 673.49 773.52 673.10 774.51 672.91 775.01 L 672.50 776.43 C 672.48 776.48 672.43 776.59 672.41 776.64 L 671.60 777.82 C 670.60 778.94 669.76 780.29 669.97 781.88 C 669.84 782.34 669.59 783.26 669.47 783.72 C 668.21 784.80 667.37 786.25 667.21 787.92 L 666.95 789.11 L 665.71 789.01 C 664.54 788.88 663.38 788.88 662.22 788.98 C 652.31 789.00 642.39 789.04 632.47 788.96 C 633.11 787.79 633.74 786.63 634.36 785.47 C 634.39 785.41 634.44 785.30 634.47 785.25 L 635.32 783.53 C 635.35 783.47 635.41 783.34 635.44 783.28 C 637.23 778.48 639.17 773.73 641.35 769.10 C 642.05 768.09 642.75 767.06 643.00 765.86 L 643.38 764.61 C 643.40 764.55 643.45 764.43 643.47 764.37 C 643.82 763.13 644.41 762.03 645.24 761.08 C 645.42 760.58 645.77 759.58 645.95 759.08 L 646.07 758.03 C 646.97 757.21 647.75 756.22 647.95 755.00 C 648.53 752.96 649.22 750.93 650.30 749.10 C 651.02 748.17 651.66 747.16 651.97 746.03 C 652.35 744.94 652.79 743.90 653.31 742.89 C 653.97 741.67 654.51 740.41 654.94 739.11 L 655.35 738.09 C 656.14 736.87 656.88 735.59 657.19 734.16 C 657.66 732.38 658.41 730.69 659.34 729.12 C 660.01 728.16 660.67 727.19 661.05 726.09 C 661.51 724.95 661.98 723.82 662.44 722.69 C 662.46 722.63 662.51 722.52 662.53 722.46 C 662.75 721.88 663.20 720.71 663.43 720.13 C 664.09 719.19 664.70 718.20 664.92 717.07 L 665.24 716.01 C 665.54 715.57 666.13 714.70 666.42 714.26 C 666.53 713.99 666.76 713.45 666.88 713.18 C 667.93 711.02 668.96 708.85 669.84 706.63 C 670.35 705.44 670.78 704.20 671.55 703.16 C 672.33 702.24 672.92 701.17 673.07 699.97 L 673.39 698.75 C 673.42 698.69 673.48 698.57 673.51 698.51 L 674.07 697.69 C 675.84 695.63 676.67 693.04 677.40 690.49 C 677.89 689.28 678.56 688.14 679.33 687.09 C 679.50 686.59 679.83 685.58 680.00 685.07 L 680.34 683.61 C 680.37 683.54 680.43 683.41 680.46 683.35 L 680.95 682.51 C 682.73 679.75 684.05 676.74 685.07 673.63 L 685.28 673.22 C 686.19 672.70 686.76 671.93 686.97 670.93 C 687.59 668.86 688.27 666.78 689.45 664.97 C 690.25 663.80 691.07 662.55 691.09 661.09 L 691.19 660.25 C 692.78 660.32 693.14 658.48 693.10 657.26 C 693.18 656.11 693.58 655.07 694.31 654.15 C 695.05 653.12 695.68 652.01 696.04 650.79 C 696.60 649.26 697.32 647.80 698.19 646.43 C 698.87 645.39 699.51 644.29 699.82 643.08 L 700.14 641.98 M 702.15 706.81 C 701.58 707.96 701.12 709.16 700.77 710.41 C 700.73 710.51 700.65 710.72 700.61 710.82 C 699.89 712.29 699.20 713.79 698.58 715.32 C 698.56 715.37 698.52 715.47 698.50 715.52 C 697.67 717.73 696.85 719.97 696.40 722.31 C 694.63 722.52 694.26 723.42 695.29 725.01 C 694.26 726.90 692.95 728.90 693.07 731.14 L 692.19 731.28 L 691.75 732.26 L 692.21 733.06 L 691.53 734.35 C 691.51 734.40 691.47 734.50 691.45 734.56 C 691.34 735.13 691.11 736.29 690.99 736.87 C 689.35 736.35 688.38 739.24 689.42 740.32 C 689.41 740.59 689.39 741.12 689.38 741.38 C 694.80 742.60 700.45 741.72 705.97 742.00 C 710.77 741.75 715.68 742.59 720.38 741.42 L 719.57 739.58 C 719.54 739.53 719.49 739.43 719.47 739.38 L 718.79 738.05 L 719.27 737.24 L 718.83 736.24 L 717.94 736.10 C 717.87 734.19 717.08 732.43 716.39 730.70 C 716.37 730.64 716.32 730.53 716.30 730.48 C 714.90 727.56 713.84 724.50 712.50 721.57 C 712.47 721.52 712.42 721.43 712.40 721.38 L 711.61 720.18 C 712.62 718.99 711.59 715.92 709.91 716.22 C 710.02 713.85 708.82 711.68 707.52 709.80 C 707.45 709.67 707.31 709.40 707.24 709.26 C 706.83 708.06 706.37 706.89 705.87 705.75 C 705.67 703.69 701.29 704.86 702.15 706.81 Z" />
<path fill="#0a0e0f" opacity="0.90" d=" M 485.11 642.94 C 496.38 644.20 507.73 643.77 519.05 643.79 C 533.13 643.78 547.21 643.94 561.29 643.58 C 564.00 643.90 566.70 644.36 569.36 645.00 C 570.39 645.35 571.38 645.81 572.33 646.38 C 572.38 646.41 572.48 646.48 572.52 646.51 L 573.22 647.04 C 575.06 648.60 577.12 649.88 579.27 651.00 C 579.80 651.39 580.85 652.16 581.38 652.54 C 581.42 652.58 581.49 652.65 581.53 652.69 C 582.41 653.68 583.27 654.72 584.11 655.77 C 586.00 658.15 587.96 660.49 589.80 662.93 C 590.88 664.73 591.57 666.75 592.03 668.80 C 593.10 673.52 595.19 678.04 595.20 682.97 C 595.30 690.29 595.58 697.89 592.96 704.87 C 592.81 705.35 592.51 706.33 592.36 706.82 C 592.23 707.36 591.98 708.42 591.85 708.95 C 591.58 709.16 591.05 709.59 590.78 709.80 C 589.70 710.45 589.14 711.60 588.69 712.74 C 588.43 713.17 587.91 714.04 587.66 714.48 C 587.62 714.53 587.56 714.62 587.52 714.67 C 585.87 716.67 584.22 718.82 581.93 720.13 C 581.61 720.55 580.98 721.39 580.66 721.81 C 580.25 722.09 579.43 722.66 579.02 722.94 C 578.04 723.23 577.30 723.83 576.80 724.73 L 575.64 725.44 C 575.58 725.47 575.45 725.55 575.38 725.58 L 573.65 726.48 C 573.58 726.51 573.45 726.58 573.38 726.61 L 571.68 727.47 C 571.62 727.49 571.52 727.54 571.47 727.56 C 570.24 728.04 569.02 728.51 567.80 728.99 L 566.86 729.38 C 565.18 732.36 567.64 735.07 568.95 737.65 L 568.97 737.68 C 571.72 743.98 574.95 750.07 578.32 756.07 C 578.61 756.63 579.18 757.75 579.46 758.31 C 579.49 758.38 579.56 758.51 579.59 758.57 L 580.16 759.77 C 581.24 762.06 582.67 764.15 584.08 766.25 C 584.32 766.70 584.81 767.59 585.05 768.03 C 585.63 769.52 586.44 770.92 587.52 772.14 C 588.27 773.18 588.94 774.28 589.53 775.45 C 589.55 775.50 589.59 775.60 589.61 775.65 C 589.70 776.27 589.88 777.51 589.97 778.13 C 589.95 779.22 590.50 779.95 591.62 780.30 C 591.74 780.75 591.98 781.65 592.10 782.10 C 592.21 783.76 593.38 784.98 594.45 786.16 C 594.70 786.91 595.18 788.40 595.42 789.15 C 583.33 788.78 571.22 789.20 559.13 788.90 L 559.03 787.97 C 559.00 786.71 558.50 785.43 557.40 784.79 C 557.10 784.57 556.52 784.13 556.23 783.91 C 556.17 783.55 556.04 782.82 555.98 782.45 C 555.74 779.35 553.81 776.85 552.22 774.32 C 550.72 770.91 548.55 767.85 547.05 764.46 C 545.89 760.87 544.09 757.56 542.15 754.35 L 541.89 753.82 C 541.24 752.11 540.40 750.49 539.39 748.99 L 538.98 748.11 C 537.90 745.52 536.94 742.85 535.29 740.58 C 534.13 739.08 533.28 737.39 532.46 735.71 C 532.43 735.66 532.37 735.54 532.34 735.49 C 531.94 734.86 531.15 733.61 530.75 732.98 C 525.19 733.00 519.63 732.97 514.07 733.00 C 513.99 733.87 513.85 735.59 513.77 736.46 L 513.02 735.39 C 512.69 734.93 512.03 734.01 511.69 733.54 C 510.59 737.47 509.26 741.55 510.25 745.66 C 512.10 754.70 509.72 763.86 510.83 772.95 C 511.33 778.22 509.91 783.84 512.20 788.84 C 503.27 789.19 494.33 788.93 485.40 788.97 C 484.14 778.04 485.61 766.96 484.81 755.97 C 485.24 723.34 484.90 690.67 484.84 658.04 C 484.93 656.23 484.83 654.41 484.43 652.65 L 484.37 652.08 C 484.49 652.19 484.74 652.42 484.86 652.53 C 484.94 649.32 484.99 646.13 485.11 642.94 M 512.99 675.01 C 513.08 682.67 513.06 690.34 512.99 698.01 C 513.04 700.15 512.74 702.50 513.96 704.42 C 513.95 704.82 513.95 705.61 513.95 706.01 L 514.44 706.01 C 516.88 707.83 520.33 706.81 523.16 706.71 L 523.33 706.74 C 530.90 707.29 538.52 706.86 546.11 707.01 C 549.51 707.23 552.75 705.91 555.42 703.90 L 556.40 703.52 C 556.45 703.50 556.55 703.45 556.60 703.43 L 557.72 702.87 L 557.89 701.74 C 559.32 702.47 561.15 700.05 560.54 698.72 L 561.33 698.42 C 561.56 697.90 562.02 696.85 562.25 696.33 C 564.12 693.19 563.76 689.40 563.74 685.91 C 563.84 684.64 563.36 683.66 562.31 682.97 C 562.82 681.12 562.18 679.37 561.61 677.65 C 560.28 676.64 559.01 675.56 557.71 674.53 C 557.66 674.50 557.58 674.44 557.54 674.41 C 556.41 673.45 555.13 672.96 553.70 672.93 L 554.59 672.72 C 551.97 671.87 549.32 671.01 546.55 670.96 C 546.11 671.07 545.21 671.29 544.76 671.40 C 537.68 670.72 530.51 670.87 523.42 671.30 C 522.91 671.27 521.91 671.21 521.41 671.18 C 518.90 670.99 516.40 670.98 513.90 670.95 C 513.25 672.21 512.86 673.56 512.99 675.01 M 563.02 679.98 C 564.57 683.94 563.76 688.20 564.14 692.33 C 564.33 692.00 564.71 691.33 564.90 691.00 C 564.94 687.35 565.82 682.86 563.02 679.98 Z" />
</g>
<g id="#313032dd">
<path fill="#313032" opacity="0.87" d=" M 31.59 640.95 C 34.38 641.30 37.19 641.51 40.00 641.41 C 66.71 641.21 93.43 641.70 120.14 641.15 C 116.15 642.78 111.68 641.75 107.70 643.41 C 104.20 644.93 100.93 640.80 97.38 642.52 C 92.89 644.97 87.87 642.70 83.09 643.33 C 76.69 644.02 70.25 643.86 63.84 643.45 C 55.94 644.11 48.07 642.75 40.16 643.32 C 37.08 643.72 34.35 642.00 31.59 640.95 Z" />
<path fill="#313032" opacity="0.87" d=" M 284.60 660.54 C 284.79 659.12 285.29 657.71 286.52 656.89 C 287.42 658.14 286.46 661.23 284.60 660.54 Z" />
<path fill="#313032" opacity="0.87" d=" M 217.67 663.98 C 219.15 663.48 220.16 666.03 219.47 667.16 C 218.09 666.76 217.79 665.20 217.67 663.98 Z" />
<path fill="#313032" opacity="0.87" d=" M 219.93 667.37 C 222.16 670.82 224.29 674.35 226.24 677.98 C 223.19 675.09 221.53 671.15 219.93 667.37 Z" />
<path fill="#313032" opacity="0.87" d=" M 196.29 690.05 C 198.53 690.32 198.63 692.91 199.08 694.64 C 197.32 694.53 195.80 691.66 196.29 690.05 Z" />
<path fill="#313032" opacity="0.87" d=" M 535.29 740.58 C 536.94 742.85 537.90 745.52 538.98 748.11 C 537.86 746.62 536.73 745.14 535.65 743.63 C 535.89 742.58 535.65 741.54 535.29 740.58 Z" />
<path fill="#313032" opacity="0.87" d=" M 228.68 745.58 C 229.18 745.34 230.17 744.86 230.67 744.62 C 231.86 746.09 233.06 747.59 234.03 749.23 C 232.82 747.88 231.59 746.55 230.31 745.27 C 229.69 745.71 228.43 746.60 227.80 747.05 C 228.02 746.68 228.46 745.95 228.68 745.58 Z" />
</g>
<g id="#5b6060b6">
<path fill="#5b6060" opacity="0.71" d=" M 120.18 641.36 C 121.92 641.57 121.99 643.62 122.01 644.97 C 122.01 654.70 122.16 664.44 121.57 674.15 C 121.35 673.55 120.91 672.35 120.69 671.75 L 120.17 671.03 L 121.03 670.84 C 121.11 663.56 120.90 656.29 121.03 649.02 C 121.11 646.43 120.78 643.87 120.18 641.36 Z" />
</g>
<g id="#1a1a1b38">
<path fill="#1a1a1b" opacity="0.22" d=" M 167.00 646.60 C 164.94 645.55 162.61 642.21 165.62 640.80 C 165.44 641.34 165.09 642.42 164.91 642.97 C 165.60 644.17 166.29 645.38 167.00 646.60 Z" />
</g>
<g id="#2d2b2c74">
<path fill="#2d2b2c" opacity="0.45" d=" M 203.90 641.07 C 207.97 642.44 208.64 647.73 210.05 651.29 C 207.85 647.97 205.99 644.45 203.90 641.07 Z" />
</g>
<g id="#2b2c2c7e">
<path fill="#2b2c2c" opacity="0.49" d=" M 253.42 645.35 C 252.82 643.57 255.02 640.68 256.98 641.50 C 256.09 642.99 255.25 644.85 253.42 645.35 Z" />
</g>
<g id="#302e30db">
<path fill="#302e30" opacity="0.86" d=" M 331.19 641.39 C 362.03 641.43 392.89 641.09 423.72 641.54 C 424.36 641.80 425.63 642.31 426.27 642.57 C 422.97 644.86 418.73 643.45 415.00 643.77 C 405.99 644.18 397.00 642.80 388.00 643.72 C 376.35 643.94 364.70 643.70 353.05 643.81 C 345.75 642.76 338.36 644.32 331.10 642.77 L 331.19 641.39 Z" />
</g>
<g id="#302e2fdb">
<path fill="#302e2f" opacity="0.86" d=" M 484.18 641.25 C 508.23 641.50 532.29 641.18 556.34 641.45 C 557.84 642.46 559.50 643.21 561.29 643.58 C 547.21 643.94 533.13 643.78 519.05 643.79 C 507.73 643.77 496.38 644.20 485.11 642.94 C 484.99 646.13 484.94 649.32 484.86 652.53 C 484.74 652.42 484.49 652.19 484.37 652.08 C 483.48 648.54 484.13 644.84 484.18 641.25 Z" />
</g>
<g id="#3736378f">
<path fill="#373637" opacity="0.56" d=" M 556.34 641.45 C 557.80 641.37 559.26 641.32 560.72 641.28 C 561.43 641.74 562.14 642.20 562.86 642.67 C 565.29 642.41 567.49 643.55 569.36 645.00 C 566.70 644.36 564.00 643.90 561.29 643.58 C 559.50 643.21 557.84 642.46 556.34 641.45 Z" />
</g>
<g id="#2e2d2d80">
<path fill="#2e2d2d" opacity="0.50" d=" M 707.43 640.88 C 710.69 640.53 710.98 644.38 711.91 646.61 C 710.54 644.60 708.95 642.76 707.43 640.88 Z" />
</g>
<g id="#60635bc4">
<path fill="#60635b" opacity="0.77" d=" M 330.45 641.94 L 331.19 641.39 L 331.10 642.77 C 330.91 652.17 331.19 661.59 330.99 671.00 C 341.33 671.00 351.68 671.00 362.02 670.99 C 363.69 670.93 365.30 671.40 366.88 671.92 C 367.16 710.94 366.92 749.97 367.00 788.99 L 366.00 789.05 C 366.00 750.01 365.99 710.97 366.00 671.93 C 354.13 671.15 342.16 672.54 330.33 671.29 C 330.24 661.51 330.00 651.70 330.45 641.94 Z" />
</g>
<g id="#646264c6">
<path fill="#646264" opacity="0.78" d=" M 429.51 642.42 C 430.13 642.18 431.38 641.70 432.00 641.46 C 431.94 651.55 432.12 661.63 431.91 671.72 C 420.55 671.66 409.14 672.05 397.81 671.53 C 398.25 700.66 397.87 729.82 398.00 758.96 C 397.85 768.18 398.33 777.43 397.74 786.64 L 397.06 786.45 C 396.15 784.74 397.00 782.80 396.85 781.00 C 396.88 746.93 396.83 712.86 396.87 678.79 C 396.97 676.22 397.06 673.65 397.11 671.09 C 408.46 670.92 419.81 671.02 431.16 671.01 C 431.45 662.00 430.81 653.00 431.00 643.99 C 430.50 643.46 430.00 642.93 429.51 642.42 Z" />
</g>
<g id="#30323468">
<path fill="#303234" opacity="0.41" d=" M 698.19 646.43 C 696.08 645.89 698.09 642.14 699.82 643.08 C 699.51 644.29 698.87 645.39 698.19 646.43 Z" />
</g>
<g id="#4342426a">
<path fill="#434242" opacity="0.42" d=" M 572.33 646.38 C 572.38 646.41 572.48 646.48 572.52 646.51 C 572.48 646.48 572.38 646.41 572.33 646.38 Z" />
</g>
<g id="#302e3045">
<path fill="#302e30" opacity="0.27" d=" M 167.51 647.43 C 167.54 647.48 167.60 647.57 167.63 647.62 C 167.60 647.57 167.54 647.48 167.51 647.43 Z" />
</g>
<g id="#2a29298a">
<path fill="#2a2929" opacity="0.54" d=" M 287.97 655.24 C 289.44 651.96 291.43 648.96 293.91 646.36 C 293.69 647.42 293.22 648.35 292.47 649.16 C 291.55 651.57 290.14 653.77 287.97 655.24 Z" />
</g>
<g id="#232224ae">
<path fill="#232224" opacity="0.68" d=" M 573.22 647.04 C 575.57 647.74 577.87 648.88 579.27 651.00 C 577.12 649.88 575.06 648.60 573.22 647.04 Z" />
</g>
<g id="#2b2b2c4f">
<path fill="#2b2b2c" opacity="0.31" d=" M 694.31 654.15 C 693.11 653.02 694.33 650.02 696.04 650.79 C 695.68 652.01 695.05 653.12 694.31 654.15 Z" />
</g>
<g id="#34303372">
<path fill="#343033" opacity="0.45" d=" M 210.50 652.38 C 212.02 651.62 213.61 654.19 212.60 655.41 C 211.60 654.63 210.79 653.62 210.50 652.38 Z" />
</g>
<g id="#2b313262">
<path fill="#2b3132" opacity="0.38" d=" M 581.38 652.54 C 581.42 652.58 581.49 652.65 581.53 652.69 C 581.49 652.65 581.42 652.58 581.38 652.54 Z" />
</g>
<g id="#42463dd8">
<path fill="#42463d" opacity="0.85" d=" M 484.43 652.65 C 484.83 654.41 484.93 656.23 484.84 658.04 C 484.90 690.67 485.24 723.34 484.81 755.97 C 485.61 766.96 484.14 778.04 485.40 788.97 L 484.03 789.03 C 483.95 745.70 484.04 702.38 483.98 659.05 C 484.07 656.92 483.59 654.67 484.43 652.65 Z" />
</g>
<g id="#3d3f3c6b">
<path fill="#3d3f3c" opacity="0.42" d=" M 248.42 654.61 C 248.46 654.55 248.53 654.43 248.57 654.38 C 248.53 654.43 248.46 654.55 248.42 654.61 Z" />
</g>
<g id="#2e303061">
<path fill="#2e3030" opacity="0.38" d=" M 715.03 653.91 C 716.77 652.82 718.05 656.00 716.59 657.00 C 715.96 656.01 715.38 655.01 715.03 653.91 Z" />
</g>
<g id="#2d3132db">
<path fill="#2d3132" opacity="0.86" d=" M 28.22 655.35 C 29.30 659.04 29.25 662.91 28.21 666.61 C 27.89 662.86 27.88 659.09 28.22 655.35 Z" />
</g>
<g id="#52464a89">
<path fill="#52464a" opacity="0.54" d=" M 213.46 656.42 C 213.50 656.48 213.59 656.59 213.63 656.65 C 213.59 656.59 213.50 656.48 213.46 656.42 Z" />
</g>
<g id="#28292a69">
<path fill="#28292a" opacity="0.41" d=" M 584.11 655.77 C 587.56 655.96 588.86 660.15 589.80 662.93 C 587.96 660.49 586.00 658.15 584.11 655.77 Z" />
</g>
<g id="#3e393e68">
<path fill="#3e393e" opacity="0.41" d=" M 246.45 657.64 C 246.48 657.59 246.54 657.49 246.57 657.43 C 246.54 657.49 246.48 657.59 246.45 657.64 Z" />
</g>
<g id="#2b2b2d80">
<path fill="#2b2b2d" opacity="0.50" d=" M 691.19 660.25 C 690.14 659.12 691.59 656.39 693.10 657.26 C 693.14 658.48 692.78 660.32 691.19 660.25 Z" />
</g>
<g id="#322f319b">
<path fill="#322f31" opacity="0.61" d=" M 175.39 658.52 C 175.42 658.57 175.48 658.66 175.51 658.71 C 175.48 658.66 175.42 658.57 175.39 658.52 Z" />
</g>
<g id="#32323058">
<path fill="#323230" opacity="0.35" d=" M 716.89 658.07 C 718.55 657.26 719.67 660.23 718.50 661.29 C 717.68 660.36 717.05 659.29 716.89 658.07 Z" />
</g>
<g id="#3d3f3e6a">
<path fill="#3d3f3e" opacity="0.42" d=" M 245.44 659.54 C 245.48 659.47 245.55 659.35 245.58 659.29 C 245.55 659.35 245.48 659.47 245.44 659.54 Z" />
</g>
<g id="#38363552">
<path fill="#383635" opacity="0.32" d=" M 689.45 664.97 C 688.24 663.81 689.22 660.42 691.09 661.09 C 691.07 662.55 690.25 663.80 689.45 664.97 Z" />
</g>
<g id="#3638386d">
<path fill="#363838" opacity="0.43" d=" M 178.45 663.48 C 178.48 663.53 178.54 663.64 178.57 663.69 C 178.54 663.64 178.48 663.53 178.45 663.48 Z" />
</g>
<g id="#4c575c89">
<path fill="#4c575c" opacity="0.54" d=" M 283.45 663.64 L 283.57 663.40 C 283.51 663.52 283.38 663.75 283.32 663.86 L 283.45 663.64 Z" />
</g>
<g id="#1817171d">
<path fill="#181717" opacity="0.11" d=" M 594.24 664.36 C 595.69 664.93 595.34 667.37 594.69 668.50 C 593.18 668.28 592.64 665.01 594.24 664.36 Z" />
</g>
<g id="#37363c61">
<path fill="#37363c" opacity="0.38" d=" M 720.36 664.34 C 720.38 664.39 720.42 664.49 720.44 664.53 C 720.42 664.49 720.38 664.39 720.36 664.34 Z" />
</g>
<g id="#3e3e4066">
<path fill="#3e3e40" opacity="0.40" d=" M 179.43 665.34 C 179.47 665.40 179.54 665.53 179.58 665.59 C 179.54 665.53 179.47 665.40 179.43 665.34 Z" />
</g>
<g id="#393a3858">
<path fill="#393a38" opacity="0.35" d=" M 241.49 665.68 C 241.52 665.63 241.58 665.53 241.61 665.48 C 241.58 665.53 241.52 665.63 241.49 665.68 Z" />
</g>
<g id="#31323659">
<path fill="#313236" opacity="0.35" d=" M 281.46 666.61 C 281.49 666.57 281.55 666.48 281.58 666.44 C 281.55 666.48 281.49 666.57 281.46 666.61 Z" />
</g>
<g id="#3c3c3d74">
<path fill="#3c3c3d" opacity="0.45" d=" M 240.41 667.56 C 240.45 667.49 240.53 667.36 240.57 667.30 C 240.53 667.36 240.45 667.49 240.41 667.56 Z" />
</g>
<g id="#383e3999">
<path fill="#383e39" opacity="0.60" d=" M 721.59 667.32 C 721.62 667.39 721.68 667.52 721.71 667.59 C 721.68 667.52 721.62 667.39 721.59 667.32 Z" />
</g>
<g id="#393e4383">
<path fill="#393e43" opacity="0.51" d=" M 181.44 668.42 C 181.47 668.47 181.54 668.57 181.57 668.61 C 181.54 668.57 181.47 668.47 181.44 668.42 Z" />
</g>
<g id="#2c2c2c3a">
<path fill="#2c2c2c" opacity="0.23" d=" M 279.39 669.54 C 279.42 669.49 279.48 669.40 279.51 669.36 C 279.48 669.40 279.42 669.49 279.39 669.54 Z" />
</g>
<g id="#38383894">
<path fill="#383838" opacity="0.58" d=" M 592.03 668.80 C 597.69 677.47 596.10 688.41 596.32 698.22 C 595.36 700.45 594.63 702.75 594.78 705.26 C 594.32 705.16 593.41 704.96 592.96 704.87 C 595.58 697.89 595.30 690.29 595.20 682.97 C 595.19 678.04 593.10 673.52 592.03 668.80 Z" />
</g>
<g id="#3a3a3b8c">
<path fill="#3a3a3b" opacity="0.55" d=" M 722.50 669.33 C 722.52 669.39 722.58 669.51 722.60 669.56 C 722.58 669.51 722.52 669.39 722.50 669.33 Z" />
</g>
<g id="#54555682">
<path fill="#545556" opacity="0.51" d=" M 56.08 671.88 C 57.55 670.95 59.30 670.99 60.96 670.98 C 80.70 671.05 100.43 670.96 120.17 671.03 L 120.69 671.75 C 99.17 672.24 77.61 671.96 56.08 671.88 Z" />
</g>
<g id="#2c2d2c5a">
<path fill="#2c2d2c" opacity="0.35" d=" M 272.99 679.26 C 274.75 676.10 276.78 673.10 278.92 670.19 C 278.57 674.01 276.43 677.50 272.99 679.26 Z" />
</g>
<g id="#3a3f41cb">
<path fill="#3a3f41" opacity="0.80" d=" M 512.99 675.01 C 512.86 673.56 513.25 672.21 513.90 670.95 C 516.40 670.98 518.90 670.99 521.41 671.18 C 518.94 671.35 516.47 671.51 514.00 671.62 C 513.97 682.55 514.06 693.49 513.96 704.42 C 512.74 702.50 513.04 700.15 512.99 698.01 C 513.06 690.34 513.08 682.67 512.99 675.01 Z" />
</g>
<g id="#28292933">
<path fill="#282929" opacity="0.20" d=" M 523.42 671.30 C 530.51 670.87 537.68 670.72 544.76 671.40 C 542.24 672.01 539.63 672.14 537.04 672.06 C 532.50 671.87 527.86 672.53 523.42 671.30 Z" />
</g>
<g id="#2e2f2e40">
<path fill="#2e2f2e" opacity="0.25" d=" M 546.55 670.96 C 549.32 671.01 551.97 671.87 554.59 672.72 L 553.70 672.93 C 551.10 673.22 548.56 672.69 546.55 670.96 Z" />
</g>
<g id="#2d302e5a">
<path fill="#2d302e" opacity="0.35" d=" M 685.28 673.22 C 684.69 671.47 685.26 670.71 686.97 670.93 C 686.76 671.93 686.19 672.70 685.28 673.22 Z" />
</g>
<g id="#37393d77">
<path fill="#37393d" opacity="0.47" d=" M 723.42 671.35 C 723.46 671.43 723.53 671.58 723.57 671.66 C 723.53 671.58 723.46 671.43 723.42 671.35 Z" />
</g>
<g id="#2f3134dc">
<path fill="#2f3134" opacity="0.86" d=" M 28.20 672.42 C 29.12 676.13 29.39 680.00 28.23 683.70 C 27.87 679.95 27.90 676.17 28.20 672.42 Z" />
</g>
<g id="#3b373447">
<path fill="#3b3734" opacity="0.28" d=" M 557.54 674.41 C 557.58 674.44 557.66 674.50 557.71 674.53 C 557.66 674.50 557.58 674.44 557.54 674.41 Z" />
</g>
<g id="#20212546">
<path fill="#202125" opacity="0.27" d=" M 680.95 682.51 C 681.63 679.33 682.51 675.85 685.07 673.63 C 684.05 676.74 682.73 679.75 680.95 682.51 Z" />
</g>
<g id="#34343559">
<path fill="#343435" opacity="0.35" d=" M 233.06 677.86 C 230.83 677.33 233.18 674.52 234.33 676.36 C 234.01 676.74 233.38 677.48 233.06 677.86 Z" />
</g>
<g id="#2e31324c">
<path fill="#2e3132" opacity="0.30" d=" M 725.62 676.27 C 727.37 676.58 727.70 677.51 726.63 679.08 C 726.00 678.24 725.67 677.30 725.62 676.27 Z" />
</g>
<g id="#383a3796">
<path fill="#383a37" opacity="0.59" d=" M 187.39 677.46 C 187.42 677.51 187.49 677.62 187.52 677.67 C 187.49 677.62 187.42 677.51 187.39 677.46 Z" />
</g>
<g id="#292a2bb1">
<path fill="#292a2b" opacity="0.69" d=" M 227.00 679.34 C 228.40 679.44 229.66 680.60 231.16 680.60 C 230.43 683.73 226.84 681.85 227.00 679.34 Z" />
</g>
<g id="#3c3b3c86">
<path fill="#3c3b3c" opacity="0.53" d=" M 189.37 680.48 C 189.40 680.53 189.47 680.64 189.50 680.69 C 189.47 680.64 189.40 680.53 189.37 680.48 Z" />
</g>
<g id="#2627289d">
<path fill="#262728" opacity="0.62" d=" M 270.83 681.92 C 270.96 680.73 271.57 680.03 272.65 679.84 C 273.05 681.43 272.45 682.13 270.83 681.92 Z" />
</g>
<g id="#434b4de2">
<path fill="#434b4d" opacity="0.89" d=" M 563.02 679.98 C 565.82 682.86 564.94 687.35 564.90 691.00 C 564.71 691.33 564.33 692.00 564.14 692.33 C 563.76 688.20 564.57 683.94 563.02 679.98 Z" />
</g>
<g id="#33333252">
<path fill="#333332" opacity="0.32" d=" M 190.46 682.28 C 190.49 682.33 190.55 682.43 190.58 682.47 C 190.55 682.43 190.49 682.33 190.46 682.28 Z" />
</g>
<g id="#373b3c65">
<path fill="#373b3c" opacity="0.40" d=" M 728.46 682.35 C 728.49 682.40 728.54 682.49 728.57 682.54 C 728.54 682.49 728.49 682.40 728.46 682.35 Z" />
</g>
<g id="#4d50516f">
<path fill="#4d5051" opacity="0.44" d=" M 562.31 682.97 C 563.36 683.66 563.84 684.64 563.74 685.91 C 563.76 689.40 564.12 693.19 562.25 696.33 C 562.51 691.87 561.43 687.39 562.31 682.97 Z" />
</g>
<g id="#4a4f4cb9">
<path fill="#4a4f4c" opacity="0.73" d=" M 680.34 683.61 C 680.37 683.54 680.43 683.41 680.46 683.35 C 680.43 683.41 680.37 683.54 680.34 683.61 Z" />
</g>
<g id="#3d413f92">
<path fill="#3d413f" opacity="0.57" d=" M 269.54 684.65 C 269.57 684.60 269.63 684.50 269.66 684.45 C 269.63 684.50 269.57 684.60 269.54 684.65 Z" />
</g>
<g id="#2f2b2e62">
<path fill="#2f2b2e" opacity="0.38" d=" M 679.12 685.30 L 680.00 685.07 C 679.83 685.58 679.50 686.59 679.33 687.09 L 678.77 686.34 L 679.12 685.30 Z" />
</g>
<g id="#36363851">
<path fill="#363638" opacity="0.32" d=" M 193.46 686.36 C 193.50 686.42 193.58 686.54 193.62 686.60 C 193.58 686.54 193.50 686.42 193.46 686.36 Z" />
</g>
<g id="#22222330">
<path fill="#222223" opacity="0.19" d=" M 730.06 685.49 C 732.30 687.16 733.40 689.85 733.78 692.56 C 732.24 690.36 730.95 688.01 730.06 685.49 Z" />
</g>
<g id="#26292996">
<path fill="#262929" opacity="0.59" d=" M 674.07 697.69 C 674.97 695.28 675.00 691.93 677.40 690.49 C 676.67 693.04 675.84 695.63 674.07 697.69 Z" />
</g>
<g id="#2e2e3261">
<path fill="#2e2e32" opacity="0.38" d=" M 734.94 695.96 C 736.76 695.51 737.75 698.81 736.69 700.06 C 735.76 698.85 735.05 697.48 734.94 695.96 Z" />
</g>
<g id="#3f40417c">
<path fill="#3f4041" opacity="0.49" d=" M 200.41 697.42 C 200.45 697.48 200.52 697.59 200.55 697.65 C 200.52 697.59 200.45 697.48 200.41 697.42 Z" />
</g>
<g id="#48494a6f">
<path fill="#48494a" opacity="0.44" d=" M 673.39 698.75 C 673.42 698.69 673.48 698.57 673.51 698.51 C 673.48 698.57 673.42 698.69 673.39 698.75 Z" />
</g>
<g id="#778488dc">
<path fill="#778488" opacity="0.86" d=" M 56.42 699.14 C 68.26 698.81 80.12 699.09 91.97 699.00 C 97.52 699.12 103.12 698.61 108.64 699.52 C 108.66 700.20 108.71 701.55 108.73 702.23 C 108.56 701.62 108.22 700.41 108.05 699.81 C 93.71 700.23 79.35 699.88 65.00 700.01 C 62.13 699.96 59.13 700.35 56.42 699.14 Z" />
</g>
<g id="#27272576">
<path fill="#272725" opacity="0.46" d=" M 257.01 703.11 C 257.07 701.24 258.33 699.85 259.68 698.72 C 260.37 700.28 258.77 703.25 257.01 703.11 Z" />
</g>
<g id="#1e1e1f3c">
<path fill="#1e1e1f" opacity="0.24" d=" M 557.89 701.74 C 557.90 700.21 559.13 699.06 560.54 698.72 C 561.15 700.05 559.32 702.47 557.89 701.74 Z" />
</g>
<g id="#35373594">
<path fill="#353735" opacity="0.58" d=" M 202.38 700.51 C 202.41 700.56 202.48 700.66 202.51 700.71 C 202.48 700.66 202.41 700.56 202.38 700.51 Z" />
</g>
<g id="#2f312d67">
<path fill="#2f312d" opacity="0.40" d=" M 671.55 703.16 C 670.30 702.15 671.38 699.15 673.07 699.97 C 672.92 701.17 672.33 702.24 671.55 703.16 Z" />
</g>
<g id="#3a3b3b94">
<path fill="#3a3b3b" opacity="0.58" d=" M 204.37 703.48 C 204.41 703.53 204.48 703.64 204.52 703.69 C 204.48 703.64 204.41 703.53 204.37 703.48 Z" />
<path fill="#3a3b3b" opacity="0.58" d=" M 589.97 778.13 C 591.56 777.95 592.11 778.67 591.62 780.30 C 590.50 779.95 589.95 779.22 589.97 778.13 Z" />
</g>
<g id="#40414370">
<path fill="#404143" opacity="0.44" d=" M 556.40 703.52 C 556.45 703.50 556.55 703.45 556.60 703.43 C 556.55 703.45 556.45 703.50 556.40 703.52 Z" />
</g>
<g id="#2d2f2e75">
<path fill="#2d2f2e" opacity="0.46" d=" M 255.13 704.89 C 255.57 704.64 256.44 704.13 256.87 703.87 C 256.64 704.22 256.17 704.91 255.93 705.26 L 255.13 704.89 Z" />
</g>
<g id="#4444477c">
<path fill="#444447" opacity="0.49" d=" M 546.06 706.20 C 549.24 705.78 552.23 704.38 555.42 703.90 C 552.75 705.91 549.51 707.23 546.11 707.01 C 538.52 706.86 530.90 707.29 523.33 706.74 C 524.47 706.21 525.67 705.96 526.94 705.99 C 533.31 705.92 539.69 706.10 546.06 706.20 Z" />
</g>
<g id="#31333257">
<path fill="#313332" opacity="0.34" d=" M 592.96 704.87 C 593.41 704.96 594.32 705.16 594.78 705.26 C 596.17 706.64 593.25 708.11 592.36 706.82 C 592.51 706.33 592.81 705.35 592.96 704.87 Z" />
</g>
<g id="#343333b1">
<path fill="#343333" opacity="0.69" d=" M 702.15 706.81 C 701.29 704.86 705.67 703.69 705.87 705.75 C 704.65 706.19 703.39 706.48 702.15 706.81 Z" />
</g>
<g id="#1f2123ad">
<path fill="#1f2123" opacity="0.68" d=" M 252.83 707.83 C 252.99 706.75 253.60 706.05 254.65 705.72 C 255.14 707.33 254.53 708.03 252.83 707.83 Z" />
</g>
<g id="#44494b81">
<path fill="#44494b" opacity="0.51" d=" M 514.44 706.01 C 517.36 705.89 520.31 705.97 523.16 706.71 C 520.33 706.81 516.88 707.83 514.44 706.01 Z" />
</g>
<g id="#33333175">
<path fill="#333331" opacity="0.46" d=" M 666.88 713.18 C 666.69 710.58 667.57 708.05 669.84 706.63 C 668.96 708.85 667.93 711.02 666.88 713.18 Z" />
</g>
<g id="#323736e5">
<path fill="#323736" opacity="0.90" d=" M 108.79 724.79 C 107.70 719.06 107.74 713.00 108.79 707.26 C 109.13 713.09 109.14 718.96 108.79 724.79 Z" />
</g>
<g id="#3c383a7f">
<path fill="#3c383a" opacity="0.50" d=" M 208.40 709.38 C 208.43 709.43 208.50 709.53 208.53 709.58 C 208.50 709.53 208.43 709.43 208.40 709.38 Z" />
</g>
<g id="#5b64629c">
<path fill="#5b6462" opacity="0.61" d=" M 707.24 709.26 C 707.31 709.40 707.45 709.67 707.52 709.80 L 707.34 709.55 L 707.24 709.26 Z" />
</g>
<g id="#3a343794">
<path fill="#3a3437" opacity="0.58" d=" M 251.51 710.65 C 251.54 710.60 251.62 710.49 251.65 710.44 C 251.62 710.49 251.54 710.60 251.51 710.65 Z" />
</g>
<g id="#3230316f">
<path fill="#323031" opacity="0.44" d=" M 588.69 712.74 C 589.14 711.60 589.70 710.45 590.78 709.80 C 591.86 711.00 590.21 713.61 588.69 712.74 Z" />
</g>
<g id="#36404ab8">
<path fill="#36404a" opacity="0.72" d=" M 700.61 710.82 C 700.65 710.72 700.73 710.51 700.77 710.41 L 700.70 710.62 L 700.61 710.82 Z" />
</g>
<g id="#2a2a2c5a">
<path fill="#2a2a2c" opacity="0.35" d=" M 209.07 710.52 C 209.39 711.18 210.04 712.49 210.36 713.15 C 209.32 717.66 206.39 721.40 204.15 725.38 C 203.90 722.74 205.96 720.92 207.07 718.78 C 208.57 716.29 208.39 713.26 209.07 710.52 Z" />
</g>
<g id="#2d3132dc">
<path fill="#2d3132" opacity="0.86" d=" M 28.22 711.36 C 29.42 717.02 29.41 722.97 28.22 728.64 C 27.87 722.89 27.86 717.11 28.22 711.36 Z" />
</g>
<g id="#2a2b2b60">
<path fill="#2a2b2b" opacity="0.38" d=" M 248.74 714.11 C 249.43 713.24 250.13 712.38 250.83 711.52 C 248.28 715.08 253.28 717.13 252.78 720.57 C 251.33 718.48 250.07 716.27 248.74 714.11 Z" />
</g>
<g id="#3734397c">
<path fill="#373439" opacity="0.49" d=" M 587.52 714.67 C 587.56 714.62 587.62 714.53 587.66 714.48 C 587.62 714.53 587.56 714.62 587.52 714.67 Z" />
</g>
<g id="#2c2d2944">
<path fill="#2c2d29" opacity="0.27" d=" M 665.49 714.24 L 666.42 714.26 C 666.13 714.70 665.54 715.57 665.24 716.01 L 664.88 715.15 L 665.49 714.24 Z" />
</g>
<g id="#35333262">
<path fill="#353332" opacity="0.38" d=" M 698.50 715.52 C 698.52 715.47 698.56 715.37 698.58 715.32 C 698.56 715.37 698.52 715.47 698.50 715.52 Z" />
</g>
<g id="#292a294e">
<path fill="#292a29" opacity="0.31" d=" M 709.91 716.22 C 711.59 715.92 712.62 718.99 711.61 720.18 C 710.58 719.09 709.68 717.78 709.91 716.22 Z" />
</g>
<g id="#2122222b">
<path fill="#212222" opacity="0.17" d=" M 663.43 720.13 C 661.91 719.18 663.21 716.15 664.92 717.07 C 664.70 718.20 664.09 719.19 663.43 720.13 Z" />
</g>
<g id="#2a30296c">
<path fill="#2a3029" opacity="0.42" d=" M 580.66 721.81 C 580.98 721.39 581.61 720.55 581.93 720.13 L 582.23 720.99 L 581.58 721.85 L 580.66 721.81 Z" />
</g>
<g id="#2d302e80">
<path fill="#2d302e" opacity="0.50" d=" M 745.95 720.08 L 746.85 720.21 L 747.30 721.19 L 746.83 722.00 C 746.61 721.52 746.17 720.56 745.95 720.08 Z" />
</g>
<g id="#373e3f88">
<path fill="#373e3f" opacity="0.53" d=" M 712.40 721.38 C 712.42 721.43 712.47 721.52 712.50 721.57 C 712.47 721.52 712.42 721.43 712.40 721.38 Z" />
</g>
<g id="#191a1b25">
<path fill="#191a1b" opacity="0.15" d=" M 202.21 722.08 C 203.49 722.67 203.47 723.35 202.15 724.13 C 200.87 723.52 200.88 722.84 202.21 722.08 Z" />
</g>
<g id="#393a3961">
<path fill="#393a39" opacity="0.38" d=" M 662.44 722.69 C 662.46 722.63 662.51 722.52 662.53 722.46 C 662.51 722.52 662.46 722.63 662.44 722.69 Z" />
</g>
<g id="#3338377d">
<path fill="#333837" opacity="0.49" d=" M 695.29 725.01 C 694.26 723.42 694.63 722.52 696.40 722.31 C 696.33 723.32 695.96 724.22 695.29 725.01 Z" />
</g>
<g id="#2728273f">
<path fill="#272827" opacity="0.25" d=" M 576.80 724.73 C 577.30 723.83 578.04 723.23 579.02 722.94 C 579.24 724.73 578.50 725.32 576.80 724.73 Z" />
</g>
<g id="#2b292a6b">
<path fill="#2b292a" opacity="0.42" d=" M 747.95 724.13 L 748.85 724.27 L 749.30 725.26 L 748.83 726.05 C 748.61 725.57 748.17 724.61 747.95 724.13 Z" />
</g>
<g id="#26252641">
<path fill="#262526" opacity="0.25" d=" M 202.25 728.09 C 200.43 726.97 202.52 723.88 204.15 725.38 C 203.96 726.53 203.24 727.47 202.25 728.09 Z" />
</g>
<g id="#463f3e62">
<path fill="#463f3e" opacity="0.38" d=" M 575.38 725.58 C 575.45 725.55 575.58 725.47 575.64 725.44 C 575.58 725.47 575.45 725.55 575.38 725.58 Z" />
</g>
<g id="#454a447c">
<path fill="#454a44" opacity="0.49" d=" M 573.38 726.61 C 573.45 726.58 573.58 726.51 573.65 726.48 C 573.58 726.51 573.45 726.58 573.38 726.61 Z" />
</g>
<g id="#2829273f">
<path fill="#282927" opacity="0.25" d=" M 659.34 729.12 C 657.87 728.06 659.36 725.08 661.05 726.09 C 660.67 727.19 660.01 728.16 659.34 729.12 Z" />
</g>
<g id="#56545595">
<path fill="#565455" opacity="0.58" d=" M 108.15 729.05 C 108.34 728.45 108.73 727.24 108.92 726.64 C 108.95 727.48 108.99 729.16 109.01 730.00 C 91.37 729.90 73.72 730.18 56.08 729.81 L 56.22 729.13 C 61.13 729.54 66.04 729.10 70.96 728.99 C 83.36 729.04 95.75 728.93 108.15 729.05 Z" />
</g>
<g id="#292a2b47">
<path fill="#292a2b" opacity="0.28" d=" M 200.38 731.21 C 199.46 730.33 199.36 726.32 201.26 727.64 C 201.37 727.99 201.59 728.69 201.70 729.04 C 201.29 729.77 200.85 730.49 200.38 731.21 Z" />
</g>
<g id="#3c3c4086">
<path fill="#3c3c40" opacity="0.53" d=" M 571.47 727.56 C 571.52 727.54 571.62 727.49 571.68 727.47 C 571.62 727.49 571.52 727.54 571.47 727.56 Z" />
</g>
<g id="#1c1d1e28">
<path fill="#1c1d1e" opacity="0.16" d=" M 195.96 731.45 C 197.15 731.01 198.04 730.23 198.54 729.09 C 199.00 729.62 199.92 730.68 200.38 731.21 C 199.26 732.92 198.11 734.61 196.94 736.30 C 195.83 734.87 195.64 733.17 195.96 731.45 Z" />
</g>
<g id="#43434471">
<path fill="#434344" opacity="0.44" d=" M 566.86 729.38 L 567.80 728.99 C 568.61 731.79 569.48 734.69 568.95 737.65 C 567.64 735.07 565.18 732.36 566.86 729.38 Z" />
</g>
<g id="#3f3e43af">
<path fill="#3f3e43" opacity="0.69" d=" M 716.30 730.48 C 716.32 730.53 716.37 730.64 716.39 730.70 C 716.37 730.64 716.32 730.53 716.30 730.48 Z" />
</g>
<g id="#21202140">
<path fill="#212021" opacity="0.25" d=" M 750.28 730.12 C 752.47 729.90 754.12 733.32 752.60 734.98 C 751.61 733.46 750.66 731.90 750.28 730.12 Z" />
</g>
<g id="#3f3c447d">
<path fill="#3f3c44" opacity="0.49" d=" M 692.19 731.28 L 693.07 731.14 C 692.86 731.62 692.43 732.58 692.21 733.06 L 691.75 732.26 L 692.19 731.28 Z" />
</g>
<g id="#000000e6">
<path fill="#000000" opacity="0.90" d=" M 510.25 745.66 C 509.26 741.55 510.59 737.47 511.69 733.54 C 512.03 734.01 512.69 734.93 513.02 735.39 C 513.00 753.47 513.08 771.55 512.97 789.63 L 512.20 788.84 C 509.91 783.84 511.33 778.22 510.83 772.95 C 509.72 763.86 512.10 754.70 510.25 745.66 Z" />
</g>
<g id="#2f302f4f">
<path fill="#2f302f" opacity="0.31" d=" M 655.35 738.09 C 654.06 736.83 655.26 733.55 657.19 734.16 C 656.88 735.59 656.14 736.87 655.35 738.09 Z" />
</g>
<g id="#4342456a">
<path fill="#434245" opacity="0.42" d=" M 691.45 734.56 C 691.47 734.50 691.51 734.40 691.53 734.35 C 691.51 734.40 691.47 734.50 691.45 734.56 Z" />
</g>
<g id="#3336358f">
<path fill="#333635" opacity="0.56" d=" M 532.34 735.49 C 532.37 735.54 532.43 735.66 532.46 735.71 C 532.43 735.66 532.37 735.54 532.34 735.49 Z" />
</g>
<g id="#404144e4">
<path fill="#404144" opacity="0.89" d=" M 513.02 735.39 L 513.77 736.46 C 514.32 751.92 513.82 767.52 514.02 783.03 C 513.93 785.25 514.46 787.72 512.97 789.63 C 513.08 771.55 513.00 753.47 513.02 735.39 Z" />
</g>
<g id="#2b2c2e68">
<path fill="#2b2c2e" opacity="0.41" d=" M 717.94 736.10 L 718.83 736.24 L 719.27 737.24 L 718.79 738.05 C 718.57 737.56 718.15 736.59 717.94 736.10 Z" />
</g>
<g id="#25272767">
<path fill="#252727" opacity="0.40" d=" M 752.86 735.60 C 755.16 737.96 756.67 741.26 756.78 744.57 C 755.33 741.64 753.86 738.71 752.86 735.60 Z" />
</g>
<g id="#3b3b3f80">
<path fill="#3b3b3f" opacity="0.50" d=" M 689.42 740.32 C 688.38 739.24 689.35 736.35 690.99 736.87 C 690.95 738.18 690.26 739.34 689.42 740.32 Z" />
</g>
<g id="#2f2d35d9">
<path fill="#2f2d35" opacity="0.85" d=" M 28.45 738.00 C 29.39 739.18 29.43 740.84 28.43 742.02 C 27.40 740.67 27.40 739.33 28.45 738.00 Z" />
</g>
<g id="#3a3a4288">
<path fill="#3a3a42" opacity="0.53" d=" M 195.40 738.53 C 195.43 738.49 195.49 738.39 195.52 738.35 C 195.49 738.39 195.43 738.49 195.40 738.53 Z" />
</g>
<g id="#29292b6a">
<path fill="#29292b" opacity="0.42" d=" M 568.97 737.68 C 571.35 737.57 571.35 740.17 572.09 741.81 C 573.54 746.85 577.56 750.78 578.32 756.07 C 574.95 750.07 571.72 743.98 568.97 737.68 Z" />
</g>
<g id="#1f1f2035">
<path fill="#1f1f20" opacity="0.21" d=" M 653.31 742.89 C 651.73 741.77 652.93 738.22 654.94 739.11 C 654.51 740.41 653.97 741.67 653.31 742.89 Z" />
</g>
<g id="#3a373967">
<path fill="#3a3739" opacity="0.40" d=" M 719.47 739.38 C 719.49 739.43 719.54 739.53 719.57 739.58 C 719.54 739.53 719.49 739.43 719.47 739.38 Z" />
</g>
<g id="#3134357c">
<path fill="#313435" opacity="0.49" d=" M 266.49 741.37 C 266.52 741.41 266.58 741.50 266.61 741.54 C 266.58 741.50 266.52 741.41 266.49 741.37 Z" />
</g>
<g id="#4c4d51af">
<path fill="#4c4d51" opacity="0.69" d=" M 689.38 741.38 C 699.68 740.45 710.10 740.19 720.38 741.42 C 715.68 742.59 710.77 741.75 705.97 742.00 C 700.45 741.72 694.80 742.60 689.38 741.38 Z" />
</g>
<g id="#1818181e">
<path fill="#181818" opacity="0.12" d=" M 760.88 744.99 C 761.32 744.78 762.21 744.36 762.65 744.15 C 762.09 746.89 762.90 749.62 762.88 752.38 C 760.63 750.54 760.62 747.62 760.88 744.99 Z" />
</g>
<g id="#303232dc">
<path fill="#303232" opacity="0.86" d=" M 28.20 744.32 C 29.49 749.29 29.27 754.52 28.21 759.51 C 27.86 754.46 27.88 749.37 28.20 744.32 Z" />
</g>
<g id="#24242672">
<path fill="#242426" opacity="0.45" d=" M 756.91 744.89 C 758.64 746.71 759.79 749.04 760.05 751.57 C 758.72 749.48 757.75 747.20 756.91 744.89 Z" />
</g>
<g id="#27252637">
<path fill="#272526" opacity="0.22" d=" M 650.30 749.10 C 648.86 748.07 650.29 745.13 651.97 746.03 C 651.66 747.16 651.02 748.17 650.30 749.10 Z" />
</g>
<g id="#3c3b3e66">
<path fill="#3c3b3e" opacity="0.40" d=" M 189.56 747.69 C 189.60 747.64 189.67 747.54 189.70 747.49 C 189.67 747.54 189.60 747.64 189.56 747.69 Z" />
</g>
<g id="#1717171b">
<path fill="#171717" opacity="0.11" d=" M 183.27 749.24 C 184.58 747.98 185.34 750.51 184.32 751.26 C 183.04 752.59 182.20 749.95 183.27 749.24 Z" />
</g>
<g id="#1f202145">
<path fill="#1f2021" opacity="0.27" d=" M 182.13 759.54 C 182.72 755.03 184.99 750.81 189.03 748.53 C 187.10 752.42 184.71 756.04 182.13 759.54 Z" />
</g>
<g id="#2d2f2e55">
<path fill="#2d2f2e" opacity="0.33" d=" M 539.39 748.99 C 540.40 750.49 541.24 752.11 541.89 753.82 C 539.68 754.20 537.82 750.65 539.39 748.99 Z" />
</g>
<g id="#383c3540">
<path fill="#383c35" opacity="0.25" d=" M 225.32 751.55 C 225.36 751.49 225.43 751.38 225.46 751.32 C 225.43 751.38 225.36 751.49 225.32 751.55 Z" />
</g>
<g id="#3c3f4171">
<path fill="#3c3f41" opacity="0.44" d=" M 760.54 752.41 C 760.56 752.45 760.62 752.55 760.65 752.60 C 760.62 752.55 760.56 752.45 760.54 752.41 Z" />
</g>
<g id="#39383c8f">
<path fill="#39383c" opacity="0.56" d=" M 274.38 753.30 C 274.45 753.39 274.57 753.58 274.64 753.67 C 274.57 753.58 274.45 753.39 274.38 753.30 Z" />
</g>
<g id="#3a373a68">
<path fill="#3a373a" opacity="0.41" d=" M 223.46 754.58 C 223.49 754.53 223.55 754.43 223.58 754.38 C 223.55 754.43 223.49 754.53 223.46 754.58 Z" />
</g>
<g id="#13131422">
<path fill="#131314" opacity="0.13" d=" M 178.19 765.56 C 178.29 761.92 177.48 756.44 181.99 755.13 C 181.27 756.48 180.51 757.80 179.75 759.14 C 180.23 759.41 181.20 759.95 181.68 760.23 C 180.53 762.01 179.36 763.78 178.19 765.56 Z" />
</g>
<g id="#383a30ab">
<path fill="#383a30" opacity="0.67" d=" M 237.34 755.51 C 237.37 755.55 237.43 755.64 237.46 755.68 C 237.43 755.64 237.37 755.55 237.34 755.51 Z" />
</g>
<g id="#30333294">
<path fill="#303332" opacity="0.58" d=" M 542.15 754.35 C 544.09 757.56 545.89 760.87 547.05 764.46 C 546.66 764.34 545.89 764.12 545.50 764.01 C 544.65 760.68 542.63 757.77 542.15 754.35 Z" />
</g>
<g id="#2829295a">
<path fill="#282929" opacity="0.35" d=" M 646.07 758.03 C 644.88 756.90 646.38 754.23 647.95 755.00 C 647.75 756.22 646.97 757.21 646.07 758.03 Z" />
</g>
<g id="#2024227d">
<path fill="#202422" opacity="0.49" d=" M 238.38 756.71 C 239.79 757.73 240.64 759.24 240.99 760.94 C 239.16 761.32 237.51 758.22 238.38 756.71 Z" />
</g>
<g id="#3c403e9a">
<path fill="#3c403e" opacity="0.60" d=" M 579.46 758.31 C 579.49 758.38 579.56 758.51 579.59 758.57 C 579.56 758.51 579.49 758.38 579.46 758.31 Z" />
</g>
<g id="#403f405c">
<path fill="#403f40" opacity="0.36" d=" M 56.33 759.08 C 77.23 758.93 98.13 759.20 119.02 758.99 C 121.01 758.68 122.27 760.41 121.65 762.24 C 121.52 761.65 121.27 760.47 121.15 759.88 C 101.10 760.01 81.03 760.04 60.97 759.98 C 59.37 760.00 57.83 759.59 56.33 759.08 Z" />
</g>
<g id="#363d3c9b">
<path fill="#363d3c" opacity="0.61" d=" M 220.45 759.70 C 220.49 759.64 220.55 759.53 220.58 759.47 C 220.55 759.53 220.49 759.64 220.45 759.70 Z" />
</g>
<g id="#32353754">
<path fill="#323537" opacity="0.33" d=" M 278.34 759.44 C 278.37 759.49 278.42 759.58 278.45 759.63 C 278.42 759.58 278.37 759.49 278.34 759.44 Z" />
</g>
<g id="#2b30317b">
<path fill="#2b3031" opacity="0.48" d=" M 580.16 759.77 C 580.53 759.66 581.25 759.44 581.61 759.32 C 582.45 761.62 583.59 763.83 584.08 766.25 C 582.67 764.15 581.24 762.06 580.16 759.77 Z" />
</g>
<g id="#3533309f">
<path fill="#353330" opacity="0.62" d=" M 645.07 759.30 L 645.95 759.08 C 645.77 759.58 645.42 760.58 645.24 761.08 L 644.71 760.32 L 645.07 759.30 Z" />
</g>
<g id="#2e2c2b3d">
<path fill="#2e2c2b" opacity="0.24" d=" M 241.53 762.36 C 241.55 762.40 241.59 762.49 241.61 762.53 C 241.59 762.49 241.55 762.40 241.53 762.36 Z" />
</g>
<g id="#757577e2">
<path fill="#757577" opacity="0.89" d=" M 120.90 788.39 C 121.54 779.76 120.13 770.99 121.69 762.45 C 122.39 771.14 121.81 779.88 122.00 788.59 L 120.90 788.39 Z" />
</g>
<g id="#383a388f">
<path fill="#383a38" opacity="0.56" d=" M 217.45 764.70 C 217.49 764.64 217.55 764.53 217.58 764.47 C 217.55 764.53 217.49 764.64 217.45 764.70 Z" />
</g>
<g id="#45443a73">
<path fill="#45443a" opacity="0.45" d=" M 643.38 764.61 C 643.40 764.55 643.45 764.43 643.47 764.37 C 643.45 764.43 643.40 764.55 643.38 764.61 Z" />
</g>
<g id="#2e3233da">
<path fill="#2e3233" opacity="0.85" d=" M 28.41 766.09 C 29.61 768.24 29.55 770.72 28.40 772.89 C 27.49 770.84 27.53 768.13 28.41 766.09 Z" />
</g>
<g id="#1c1c1d2f">
<path fill="#1c1c1d" opacity="0.18" d=" M 174.02 771.75 C 173.35 769.88 173.17 767.90 174.25 766.17 C 174.48 766.61 174.96 767.50 175.19 767.94 C 176.04 766.99 176.76 765.85 178.14 765.64 C 176.87 767.74 175.52 769.80 174.02 771.75 Z" />
</g>
<g id="#3a3b3c5a">
<path fill="#3a3b3c" opacity="0.35" d=" M 216.43 766.64 C 216.46 766.58 216.53 766.46 216.56 766.40 C 216.53 766.46 216.46 766.58 216.43 766.64 Z" />
</g>
<g id="#37383a59">
<path fill="#37383a" opacity="0.35" d=" M 641.35 769.10 C 640.05 768.04 641.30 765.04 643.00 765.86 C 642.75 767.06 642.05 768.09 641.35 769.10 Z" />
</g>
<g id="#3838364e">
<path fill="#383836" opacity="0.31" d=" M 215.41 768.51 C 215.44 768.46 215.49 768.37 215.52 768.32 C 215.49 768.37 215.44 768.46 215.41 768.51 Z" />
</g>
<g id="#3b38398b">
<path fill="#3b3839" opacity="0.55" d=" M 245.34 768.41 C 245.37 768.46 245.44 768.56 245.47 768.61 C 245.44 768.56 245.37 768.46 245.34 768.41 Z" />
</g>
<g id="#3533345b">
<path fill="#353334" opacity="0.36" d=" M 585.05 768.03 C 587.19 766.98 589.27 770.58 587.52 772.14 C 586.44 770.92 585.63 769.52 585.05 768.03 Z" />
</g>
<g id="#2b2d2c59">
<path fill="#2b2d2c" opacity="0.35" d=" M 674.84 770.55 C 675.11 769.30 676.42 768.64 677.62 768.96 C 678.26 770.35 675.77 771.57 674.84 770.55 Z" />
</g>
<g id="#302d2e35">
<path fill="#302d2e" opacity="0.21" d=" M 728.18 769.11 L 728.95 769.10 C 730.69 771.02 726.49 771.09 728.18 769.11 Z" />
</g>
<g id="#2d2e2e9d">
<path fill="#2d2e2e" opacity="0.62" d=" M 734.21 768.97 C 736.31 768.69 737.21 771.06 737.05 772.80 C 735.71 772.52 734.11 770.36 734.21 768.97 Z" />
</g>
<g id="#313333a3">
<path fill="#313333" opacity="0.64" d=" M 287.46 773.31 C 287.49 773.37 287.56 773.48 287.60 773.53 C 287.56 773.48 287.49 773.37 287.46 773.31 Z" />
</g>
<g id="#2e2e347c">
<path fill="#2e2e34" opacity="0.49" d=" M 672.91 775.01 C 673.10 774.51 673.49 773.52 673.69 773.03 L 674.21 773.81 L 673.81 774.83 L 672.91 775.01 Z" />
</g>
<g id="#38393588">
<path fill="#383935" opacity="0.53" d=" M 770.56 773.34 C 770.58 773.39 770.64 773.50 770.66 773.55 C 770.64 773.50 770.58 773.39 770.56 773.34 Z" />
</g>
<g id="#363a3c67">
<path fill="#363a3c" opacity="0.40" d=" M 211.41 774.62 C 211.44 774.57 211.50 774.47 211.53 774.42 C 211.50 774.47 211.44 774.57 211.41 774.62 Z" />
</g>
<g id="#2d2a297b">
<path fill="#2d2a29" opacity="0.48" d=" M 169.39 779.14 C 168.26 777.63 169.92 774.41 171.91 775.33 C 171.49 776.84 170.57 778.11 169.39 779.14 Z" />
</g>
<g id="#2629294c">
<path fill="#262929" opacity="0.30" d=" M 249.30 774.75 C 250.20 775.27 250.75 776.03 250.96 777.05 C 249.20 777.21 248.65 776.44 249.30 774.75 Z" />
</g>
<g id="#2627268b">
<path fill="#262726" opacity="0.55" d=" M 552.22 774.32 C 553.81 776.85 555.74 779.35 555.98 782.45 C 553.90 780.20 553.25 777.11 552.22 774.32 Z" />
</g>
<g id="#3c3c3b7c">
<path fill="#3c3c3b" opacity="0.49" d=" M 589.53 775.45 C 589.55 775.50 589.59 775.60 589.61 775.65 C 589.59 775.60 589.55 775.50 589.53 775.45 Z" />
</g>
<g id="#3335384d">
<path fill="#333538" opacity="0.30" d=" M 672.41 776.64 C 672.43 776.59 672.48 776.48 672.50 776.43 C 672.48 776.48 672.43 776.59 672.41 776.64 Z" />
</g>
<g id="#3a3e3ba1">
<path fill="#3a3e3b" opacity="0.63" d=" M 738.32 776.02 C 738.49 776.52 738.84 777.54 739.01 778.04 L 738.13 777.82 L 737.78 776.79 L 738.32 776.02 Z" />
</g>
<g id="#21202277">
<path fill="#212022" opacity="0.47" d=" M 772.12 777.01 C 774.09 776.96 775.54 780.28 774.85 782.02 C 773.10 780.92 772.60 778.86 772.12 777.01 Z" />
</g>
<g id="#292a2d63">
<path fill="#292a2d" opacity="0.39" d=" M 290.06 777.99 C 291.76 777.77 292.35 778.47 291.82 780.09 C 290.81 779.81 290.22 779.11 290.06 777.99 Z" />
</g>
<g id="#2e2f2a95">
<path fill="#2e2f2a" opacity="0.58" d=" M 669.97 781.88 C 669.76 780.29 670.60 778.94 671.60 777.82 C 672.59 779.01 671.68 782.13 669.97 781.88 Z" />
</g>
<g id="#3c3e3776">
<path fill="#3c3e37" opacity="0.46" d=" M 739.41 779.39 C 739.43 779.45 739.47 779.56 739.49 779.62 C 739.47 779.56 739.43 779.45 739.41 779.39 Z" />
</g>
<g id="#373b3789">
<path fill="#373b37" opacity="0.54" d=" M 252.40 780.39 C 252.43 780.44 252.49 780.54 252.51 780.59 C 252.49 780.54 252.43 780.44 252.40 780.39 Z" />
</g>
<g id="#353a35a9">
<path fill="#353a35" opacity="0.66" d=" M 207.50 781.71 C 207.54 781.65 207.60 781.55 207.63 781.49 C 207.60 781.55 207.54 781.65 207.50 781.71 Z" />
</g>
<g id="#1d1d1d84">
<path fill="#1d1d1d" opacity="0.52" d=" M 292.05 780.64 C 293.74 782.33 294.99 784.39 295.89 786.60 C 294.28 784.83 292.78 782.94 292.05 780.64 Z" />
</g>
<g id="#2b2f2e76">
<path fill="#2b2f2e" opacity="0.46" d=" M 592.10 782.10 C 594.04 781.34 595.46 784.69 594.45 786.16 C 593.38 784.98 592.21 783.76 592.10 782.10 Z" />
</g>
<g id="#3f424268">
<path fill="#3f4242" opacity="0.41" d=" M 166.46 783.65 C 166.49 783.59 166.55 783.47 166.58 783.41 C 166.55 783.47 166.49 783.59 166.46 783.65 Z" />
</g>
<g id="#323838ab">
<path fill="#323838" opacity="0.67" d=" M 635.32 783.53 C 635.35 783.47 635.41 783.34 635.44 783.28 C 635.41 783.34 635.35 783.47 635.32 783.53 Z" />
</g>
<g id="#262826a5">
<path fill="#262826" opacity="0.65" d=" M 774.94 782.47 C 775.99 784.44 776.76 786.55 777.16 788.76 C 776.59 789.06 775.46 789.64 774.90 789.93 L 775.30 789.07 C 775.43 788.78 775.68 788.20 775.81 787.91 C 775.63 786.08 775.27 784.26 774.94 782.47 Z" />
</g>
<g id="#39353691">
<path fill="#393536" opacity="0.57" d=" M 667.21 787.92 C 667.37 786.25 668.21 784.80 669.47 783.72 C 670.35 785.15 669.20 788.51 667.21 787.92 Z" />
</g>
<g id="#3333354e">
<path fill="#333335" opacity="0.31" d=" M 741.55 784.35 C 741.58 784.40 741.63 784.52 741.66 784.57 C 741.63 784.52 741.58 784.40 741.55 784.35 Z" />
</g>
<g id="#40444265">
<path fill="#404442" opacity="0.40" d=" M 165.45 785.66 C 165.50 785.58 165.60 785.41 165.65 785.33 C 165.60 785.41 165.50 785.58 165.45 785.66 Z" />
</g>
<g id="#383e3b9a">
<path fill="#383e3b" opacity="0.60" d=" M 557.40 784.79 C 558.50 785.43 559.00 786.71 559.03 787.97 C 557.46 788.54 556.43 785.84 557.40 784.79 Z" />
</g>
<g id="#2f3b3da1">
<path fill="#2f3b3d" opacity="0.63" d=" M 634.36 785.47 C 634.39 785.41 634.44 785.30 634.47 785.25 C 634.44 785.30 634.39 785.41 634.36 785.47 Z" />
</g>
<g id="#4d4848db">
<path fill="#4d4848" opacity="0.86" d=" M 28.27 786.00 C 28.97 786.88 29.91 787.76 29.91 789.00 C 28.25 789.94 27.03 787.03 28.27 786.00 Z" />
</g>
<g id="#2f2f30ac">
<path fill="#2f2f30" opacity="0.67" d=" M 204.53 786.74 C 204.58 786.66 204.68 786.51 204.73 786.43 C 204.68 786.51 204.58 786.66 204.53 786.74 Z" />
</g>
<g id="#848788d5">
<path fill="#848788" opacity="0.84" d=" M 397.06 786.45 L 397.74 786.64 C 399.64 789.47 394.64 788.90 397.06 786.45 Z" />
</g>
<g id="#45464768">
<path fill="#454647" opacity="0.41" d=" M 296.26 787.35 C 296.26 787.47 296.27 787.72 296.27 787.85 L 296.26 787.35 Z" />
</g>
<g id="#3436354e">
<path fill="#343635" opacity="0.31" d=" M 257.55 788.45 C 257.59 788.48 257.66 788.55 257.69 788.59 C 257.66 788.55 257.59 788.48 257.55 788.45 Z" />
</g>
<g id="#2b2b2c5b">
<path fill="#2b2b2c" opacity="0.36" d=" M 743.10 788.25 C 743.99 788.41 744.86 788.64 745.74 788.94 C 746.03 791.23 741.77 790.09 743.10 788.25 Z" />
</g>
<g id="#27272836">
<path fill="#272728" opacity="0.21" d=" M 164.87 789.04 C 169.00 789.13 173.14 788.93 177.28 789.08 C 173.35 790.60 169.02 789.84 164.92 790.02 L 164.87 789.04 Z" />
</g>
<g id="#38373757">
<path fill="#383737" opacity="0.34" d=" M 259.09 789.23 L 259.58 789.22 C 259.46 789.22 259.21 789.23 259.09 789.23 Z" />
</g>
<g id="#393a3c85">
<path fill="#393a3c" opacity="0.52" d=" M 293.35 789.00 C 293.75 789.02 294.55 789.05 294.95 789.06 C 294.73 789.37 294.30 789.98 294.08 790.28 L 293.29 789.81 L 293.35 789.00 Z" />
</g>
<g id="#35343553">
<path fill="#353435" opacity="0.33" d=" M 662.22 788.98 C 663.38 788.88 664.54 788.88 665.71 789.01 C 665.96 790.78 661.84 790.81 662.22 788.98 Z" />
</g>
</svg>
