<?xml version="1.0" encoding="UTF-8" standalone="no"?>
<!-- Created with Inkscape (http://www.inkscape.org/) -->

<svg
   xmlns:dc="http://purl.org/dc/elements/1.1/"
   xmlns:cc="http://creativecommons.org/ns#"
   xmlns:rdf="http://www.w3.org/1999/02/22-rdf-syntax-ns#"
   xmlns:svg="http://www.w3.org/2000/svg"
   xmlns="http://www.w3.org/2000/svg"
   xmlns:sodipodi="http://sodipodi.sourceforge.net/DTD/sodipodi-0.dtd"
   xmlns:inkscape="http://www.inkscape.org/namespaces/inkscape"
   width="999.99994"
   height="165.91061"
   id="svg2"
   version="1.1"
   inkscape:version="0.48.2 r9819"
   sodipodi:docname="A.svg">
  <defs
     id="defs4">
    <clipPath
       clipPathUnits="userSpaceOnUse"
       id="clipPath3098">
      <path
         inkscape:connector-curvature="0"
         d="m 27.25,603.25 1024,0 0,-576 -1024,0 0,576 z"
         id="path3100" />
    </clipPath>
    <clipPath
       clipPathUnits="userSpaceOnUse"
       id="clipPath3497">
      <path
         inkscape:connector-curvature="0"
         d="m 27.25,603.25 1024,0 0,-576 -1024,0 0,576 z"
         id="path3499" />
    </clipPath>
    <clipPath
       clipPathUnits="userSpaceOnUse"
       id="clipPath3920">
      <path
         inkscape:connector-curvature="0"
         d="m 27.25,603.25 1024,0 0,-576 -1024,0 0,576 z"
         id="path3922" />
    </clipPath>
    <clipPath
       clipPathUnits="userSpaceOnUse"
       id="clipPath4335">
      <path
         inkscape:connector-curvature="0"
         d="m 27.25,603.25 1024,0 0,-576 -1024,0 0,576 z"
         id="path4337" />
    </clipPath>
    <clipPath
       clipPathUnits="userSpaceOnUse"
       id="clipPath4764">
      <path
         inkscape:connector-curvature="0"
         d="m 27.25,603.25 1024,0 0,-576 -1024,0 0,576 z"
         id="path4766" />
    </clipPath>
    <clipPath
       clipPathUnits="userSpaceOnUse"
       id="clipPath5207">
      <path
         inkscape:connector-curvature="0"
         d="m 27.25,603.25 1024,0 0,-576 -1024,0 0,576 z"
         id="path5209" />
    </clipPath>
    <clipPath
       clipPathUnits="userSpaceOnUse"
       id="clipPath5630">
      <path
         inkscape:connector-curvature="0"
         d="m 27.25,603.25 1024,0 0,-576 -1024,0 0,576 z"
         id="path5632" />
    </clipPath>
    <clipPath
       clipPathUnits="userSpaceOnUse"
       id="clipPath6059">
      <path
         inkscape:connector-curvature="0"
         d="m 27.25,603.25 1024,0 0,-576 -1024,0 0,576 z"
         id="path6061" />
    </clipPath>
    <clipPath
       clipPathUnits="userSpaceOnUse"
       id="clipPath6522">
      <path
         inkscape:connector-curvature="0"
         d="m 27.25,603.25 1024,0 0,-576 -1024,0 0,576 z"
         id="path6524" />
    </clipPath>
  </defs>
  <sodipodi:namedview
     id="base"
     pagecolor="#ffffff"
     bordercolor="#666666"
     borderopacity="1.0"
     inkscape:pageopacity="0.0"
     inkscape:pageshadow="2"
     inkscape:zoom="0.49497475"
     inkscape:cx="1222.8851"
     inkscape:cy="-103.25919"
     inkscape:document-units="px"
     inkscape:current-layer="layer1"
     showgrid="false"
     fit-margin-left="0.5"
     fit-margin-bottom="0.5"
     fit-margin-top="0.5"
     fit-margin-right="0.5"
     inkscape:window-width="1920"
     inkscape:window-height="1028"
     inkscape:window-x="-8"
     inkscape:window-y="-8"
     inkscape:window-maximized="1">
    <inkscape:grid
       type="xygrid"
       id="grid2996"
       empspacing="5"
       visible="true"
       enabled="true"
       snapvisiblegridlinesonly="true" />
  </sodipodi:namedview>
  <metadata
     id="metadata7">
    <rdf:RDF>
      <cc:Work
         rdf:about="">
        <dc:format>image/svg+xml</dc:format>
        <dc:type
           rdf:resource="http://purl.org/dc/dcmitype/StillImage" />
        <dc:title></dc:title>
      </cc:Work>
    </rdf:RDF>
  </metadata>
  <g
     inkscape:label="Layer 1"
     inkscape:groupmode="layer"
     id="layer1"
     transform="translate(381.83169,-339.06689)">
    <g
       transform="matrix(1.0423197,0,0,-1.0423197,-443.90245,750.61338)"
       id="g6518">
      <g
         id="g6520"
         clip-path="url(#clipPath6522)">
        <g
           id="g6526"
           transform="translate(139.2383,394.3574)">
          <path
             inkscape:connector-curvature="0"
             d="m 0,0 c -43.66,0 -79.208,-35.492 -79.208,-79.106 0,-43.624 35.548,-79.109 79.208,-79.109 43.676,0 79.204,35.485 79.204,79.109 C 79.204,-35.492 43.676,0 0,0 m 0,-149.521 c -38.863,0 -70.48,31.59 -70.48,70.415 0,38.806 31.617,70.397 70.48,70.397 38.859,0 70.495,-31.591 70.495,-70.397 0,-38.825 -31.636,-70.415 -70.495,-70.415"
             style="fill:#858588;fill-opacity:1;fill-rule:nonzero;stroke:none"
             id="path6528" />
        </g>
        <g
           id="g6530"
           transform="translate(190.123,331.5293)">
          <path
             inkscape:connector-curvature="0"
             d="m 0,0 -8.938,-22.726 -7.097,21.812 -11.58,0 13.408,-33.474 9.805,0 c 0,0 9.399,18.724 9.699,19.44 C 7.623,-9.822 4.934,-2.895 0,0"
             style="fill:#858588;fill-opacity:1;fill-rule:nonzero;stroke:none"
             id="path6532" />
        </g>
        <g
           id="g6534"
           transform="translate(156.6035,304.2939)">
          <path
             inkscape:connector-curvature="0"
             d="m 0,0 c -3.115,0 -4.056,2.764 -4.056,5.071 l 0,13.193 8.038,0 0,8.057 -8.038,0 0,10.141 -0.69,0 c -4.869,0 -9.705,-3.775 -9.705,-10.123 l 0,-20.697 c 0,-2.164 0.218,-4.003 0.65,-5.705 1.469,-5.794 6.992,-8.293 12.207,-8.293 3.405,0 6.573,1.005 9.508,3.005 L 4.889,1.757 C 4.202,1.295 2.697,0 0,0"
             style="fill:#858588;fill-opacity:1;fill-rule:nonzero;stroke:none"
             id="path6536" />
        </g>
        <g
           id="g6538"
           transform="translate(125.6377,331.4121)">
          <path
             inkscape:connector-curvature="0"
             d="M 0,0 C -4.581,0 -8.593,-1.639 -11.335,-4.645 -13.128,-2.172 -15.964,0 -21.079,0 c -3.766,0 -8.393,-2.436 -10.049,-5.25 l -0.453,5.224 -0.697,0 c -4.629,-0.135 -9.172,-3.74 -9.172,-8.811 l 0,-25.405 10.385,0 0,17.971 c 0,2.147 0.615,3.894 1.847,5.279 1.231,1.369 2.834,2.074 4.817,2.074 1.775,0 3.105,-0.562 3.992,-1.658 0.906,-1.095 1.339,-2.634 1.339,-4.645 l 0,-19.021 10.061,0 0,17.971 c 0,2.147 0.588,3.894 1.801,5.279 1.195,1.369 2.799,2.074 4.836,2.074 1.774,0 3.115,-0.562 4.001,-1.658 0.888,-1.095 1.35,-2.634 1.35,-4.645 l 0,-19.021 10.393,0 0,20.679 c 0,4.184 -1.149,7.477 -3.431,9.932 C 7.65,-1.213 4.345,0 0,0"
             style="fill:#858588;fill-opacity:1;fill-rule:nonzero;stroke:none"
             id="path6540" />
        </g>
        <g
           id="g6542"
           transform="translate(255.1865,377.7803)">
          <path
             inkscape:connector-curvature="0"
             d="m 0,0 100.756,0 0,-30.604 -65.843,0 0,-21.395 59.559,0 0,-28.973 -59.559,0 0,-44.984 -34.913,0 L 0,0 z"
             style="fill:#379fa6;fill-opacity:1;fill-rule:nonzero;stroke:none"
             id="path6544" />
        </g>
        <g
           id="g6546"
           transform="translate(594.9287,377.7803)">
          <path
             inkscape:connector-curvature="0"
             d="m 0,0 -2.506,0 -38.88,0 -43.372,-51.113 0,51.113 -34.893,0 0,-125.956 34.893,0 0,32.569 12.786,14.215 31.663,-46.784 41.931,0 -49.31,71.784 45.182,51.318 0,-27.75 37.79,0 0,-95.352 34.887,0 0,95.352 37.793,0 0,30.604 L 0,0 z"
             style="fill:#379fa6;fill-opacity:1;fill-rule:nonzero;stroke:none"
             id="path6548" />
        </g>
        <g
           id="g6550"
           transform="translate(857.9648,316.0645)">
          <path
             inkscape:connector-curvature="0"
             d="m 0,0 -46.612,61.725 16.751,0 38.672,-51.475 38.316,51.475 16.561,0 L 17.076,0.172 65.48,-64.24 l -16.894,0 -40.31,54.154 -40.301,-54.154 -16.399,0 L 0,0 z"
             style="fill:#858588;fill-opacity:1;fill-rule:nonzero;stroke:none"
             id="path6552" />
        </g>
        <g
           id="g6554"
           transform="translate(933.3594,377.7803)">
          <path
             inkscape:connector-curvature="0"
             d="m 0,0 14.215,0 0,-112.824 70.895,0 0,-13.132 -85.11,0 L 0,0 z"
             style="fill:#858588;fill-opacity:1;fill-rule:nonzero;stroke:none"
             id="path6556" />
        </g>
        <g
           id="g6558"
           transform="translate(390.6836,301.4795)">
          <path
             inkscape:connector-curvature="0"
             d="M 0,0 14.225,35.818 28.258,0 0,0 z m -2.727,76.301 -53.238,-125.956 36.705,0 9.002,22.482 48.584,0 9.18,-22.482 37.424,0 -53.248,125.956 -34.409,0 z"
             style="fill:#379fa6;fill-opacity:1;fill-rule:nonzero;stroke:none"
             id="path6560" />
        </g>
        <g
           id="g6562"
           transform="translate(724.4863,301.4795)">
          <path
             inkscape:connector-curvature="0"
             d="M 0,0 14.217,35.818 28.24,0 0,0 z m -2.734,76.301 -53.239,-125.956 36.705,0 9.002,22.482 48.592,0 9.154,-22.482 37.449,0 -53.256,125.956 -34.407,0 z"
             style="fill:#379fa6;fill-opacity:1;fill-rule:nonzero;stroke:none"
             id="path6564" />
        </g>
      </g>
    </g>
  </g>
</svg>
