<?xml version="1.0" encoding="UTF-8" standalone="yes"?>
<svg xmlns="http://www.w3.org/2000/svg" xmlns:xlink="http://www.w3.org/1999/xlink" width="641.3333333333333px" height="106.66666666666666px" viewBox="0 0 481 80" version="1.1">
  <g id="surface1">
    <path style=" stroke:none;fill-rule:nonzero;fill:rgb(52.156863%,52.156863%,53.333333%);fill-opacity:1;" d="M 39.953125 0.242188 C 18.0625 0.242188 0.242188 18.070312 0.242188 39.976562 C 0.242188 61.890625 18.0625 79.714844 39.953125 79.714844 C 61.847656 79.714844 79.660156 61.890625 79.660156 39.976562 C 79.660156 18.070312 61.847656 0.242188 39.953125 0.242188 M 39.953125 75.347656 C 20.46875 75.347656 4.617188 59.480469 4.617188 39.976562 C 4.617188 20.484375 20.46875 4.617188 39.953125 4.617188 C 59.433594 4.617188 75.296875 20.484375 75.296875 39.976562 C 75.296875 59.480469 59.433594 75.347656 39.953125 75.347656 "/>
    <path style=" stroke:none;fill-rule:nonzero;fill:rgb(52.156863%,52.156863%,53.333333%);fill-opacity:1;" d="M 65.464844 31.800781 L 60.980469 43.214844 L 57.425781 32.261719 L 51.617188 32.261719 L 58.339844 49.074219 L 63.257812 49.074219 C 63.257812 49.074219 67.96875 39.667969 68.117188 39.308594 C 69.285156 36.734375 67.9375 33.253906 65.464844 31.800781 "/>
    <path style=" stroke:none;fill-rule:nonzero;fill:rgb(52.156863%,52.156863%,53.333333%);fill-opacity:1;" d="M 48.65625 45.480469 C 47.097656 45.480469 46.625 44.09375 46.625 42.933594 L 46.625 36.308594 L 50.65625 36.308594 L 50.65625 32.261719 L 46.625 32.261719 L 46.625 27.167969 L 46.277344 27.167969 C 43.835938 27.167969 41.414062 29.0625 41.414062 32.25 L 41.414062 42.648438 C 41.414062 43.734375 41.523438 44.660156 41.738281 45.511719 C 42.476562 48.425781 45.246094 49.679688 47.859375 49.679688 C 49.566406 49.679688 51.152344 49.175781 52.625 48.167969 L 51.109375 44.597656 C 50.765625 44.832031 50.011719 45.480469 48.65625 45.480469 "/>
    <path style=" stroke:none;fill-rule:nonzero;fill:rgb(52.156863%,52.156863%,53.333333%);fill-opacity:1;" d="M 33.132812 31.859375 C 30.835938 31.859375 28.824219 32.683594 27.449219 34.191406 C 26.550781 32.949219 25.128906 31.859375 22.566406 31.859375 C 20.675781 31.859375 18.355469 33.082031 17.527344 34.496094 L 17.300781 31.871094 L 16.949219 31.871094 C 14.628906 31.941406 12.351562 33.75 12.351562 36.300781 L 12.351562 49.058594 L 17.558594 49.058594 L 17.558594 40.03125 C 17.558594 38.953125 17.867188 38.078125 18.484375 37.382812 C 19.101562 36.695312 19.90625 36.339844 20.898438 36.339844 C 21.789062 36.339844 22.457031 36.621094 22.902344 37.171875 C 23.355469 37.722656 23.574219 38.496094 23.574219 39.503906 L 23.574219 49.058594 L 28.617188 49.058594 L 28.617188 40.03125 C 28.617188 38.953125 28.910156 38.078125 29.519531 37.382812 C 30.117188 36.695312 30.921875 36.339844 31.945312 36.339844 C 32.832031 36.339844 33.503906 36.621094 33.949219 37.171875 C 34.394531 37.722656 34.625 38.496094 34.625 39.503906 L 34.625 49.058594 L 39.835938 49.058594 L 39.835938 38.671875 C 39.835938 36.570312 39.261719 34.917969 38.117188 33.683594 C 36.96875 32.46875 35.3125 31.859375 33.132812 31.859375 "/>
    <path style=" stroke:none;fill-rule:nonzero;fill:rgb(21.568627%,62.352941%,65.098039%);fill-opacity:1;" d="M 98.082031 8.566406 L 148.597656 8.566406 L 148.597656 23.941406 L 115.585938 23.941406 L 115.585938 34.6875 L 145.449219 34.6875 L 145.449219 49.242188 L 115.585938 49.242188 L 115.585938 71.839844 L 98.082031 71.839844 Z M 98.082031 8.566406 "/>
    <path style=" stroke:none;fill-rule:nonzero;fill:rgb(21.568627%,62.352941%,65.098039%);fill-opacity:1;" d="M 268.414062 8.566406 L 247.664062 8.566406 L 225.921875 34.242188 L 225.921875 8.566406 L 208.425781 8.566406 L 208.425781 71.839844 L 225.921875 71.839844 L 225.921875 55.476562 L 232.332031 48.339844 L 248.207031 71.839844 L 269.226562 71.839844 L 244.507812 35.78125 L 267.160156 10 L 267.160156 23.941406 L 286.105469 23.941406 L 286.105469 71.839844 L 303.59375 71.839844 L 303.59375 23.941406 L 322.542969 23.941406 L 322.542969 8.566406 Z M 268.414062 8.566406 "/>
    <path style=" stroke:none;fill-rule:nonzero;fill:rgb(52.156863%,52.156863%,53.333333%);fill-opacity:1;" d="M 400.289062 39.570312 L 376.921875 8.5625 L 385.320312 8.5625 L 404.707031 34.421875 L 423.917969 8.5625 L 432.21875 8.5625 L 408.851562 39.484375 L 433.117188 71.839844 L 424.648438 71.839844 L 404.4375 44.636719 L 384.234375 71.839844 L 376.011719 71.839844 Z M 400.289062 39.570312 "/>
    <path style=" stroke:none;fill-rule:nonzero;fill:rgb(52.156863%,52.156863%,53.333333%);fill-opacity:1;" d="M 438.089844 8.566406 L 445.214844 8.566406 L 445.214844 65.242188 L 480.757812 65.242188 L 480.757812 71.839844 L 438.089844 71.839844 Z M 438.089844 8.566406 "/>
    <path style=" stroke:none;fill-rule:nonzero;fill:rgb(21.568627%,62.352941%,65.098039%);fill-opacity:1;" d="M 166.015625 46.894531 L 173.148438 28.902344 L 180.183594 46.894531 Z M 164.648438 8.566406 L 137.957031 71.839844 L 156.359375 71.839844 L 160.871094 60.546875 L 185.230469 60.546875 L 189.832031 71.839844 L 208.59375 71.839844 L 181.898438 8.566406 Z M 164.648438 8.566406 "/>
    <path style=" stroke:none;fill-rule:nonzero;fill:rgb(21.568627%,62.352941%,65.098039%);fill-opacity:1;" d="M 333.371094 46.894531 L 340.496094 28.902344 L 347.527344 46.894531 Z M 332 8.566406 L 305.308594 71.839844 L 323.710938 71.839844 L 328.222656 60.546875 L 352.585938 60.546875 L 357.171875 71.839844 L 375.949219 71.839844 L 349.25 8.566406 Z M 332 8.566406 "/>
  </g>
</svg>