<?xml version="1.0" encoding="utf-8"?>
<!-- Generator: Adobe Illustrator 18.1.0, SVG Export Plug-In . SVG Version: 6.00 Build 0)  -->
<svg version="1.1" id="Layer_1" xmlns="http://www.w3.org/2000/svg" xmlns:xlink="http://www.w3.org/1999/xlink" x="0px" y="0px"
	 viewBox="0 0 1600 900" enable-background="new 0 0 1600 900" xml:space="preserve">
<g>
	<g>
		<g>
			<g>
				<path d="M771.598,567.157c-85.389,0-163.717-46.678-204.432-121.828l41.967-22.745c32.364,59.737,94.615,96.844,162.465,96.844
					c101.812,0,184.624-82.818,184.624-184.617c0-101.809-82.812-184.628-184.624-184.628c-67.009,0-128.886,36.427-161.481,95.059
					l-41.722-23.199c41.018-73.764,118.874-119.591,203.203-119.591c128.121,0,232.362,104.231,232.362,232.359
					C1003.96,462.921,899.719,567.157,771.598,567.157L771.598,567.157z"/>
			</g>
		</g>
	</g>
	<path d="M771.224,449.729c-63.366,0-114.923-51.557-114.923-114.918c0-63.376,51.557-114.93,114.923-114.93
		c41.605,0,80.064,22.569,100.377,58.904l-41.661,23.298c-11.892-21.271-34.385-34.477-58.716-34.477
		c-37.052,0-67.195,30.148-67.195,67.205c0,37.042,30.143,67.185,67.195,67.185c24.808,0,47.509-13.583,59.256-35.466l42.053,22.572
		C852.46,426.51,813.649,449.729,771.224,449.729L771.224,449.729z"/>
	<g>
		<g>
			<path d="M482.833,619.602c6.195,0,10.778,1.922,14.989,5.767c0.558,0.494,0.558,1.224,0.062,1.723l-4.83,5.022
				c-0.437,0.423-1.117,0.423-1.548,0c-2.294-2.04-5.329-3.166-8.365-3.166c-6.999,0-12.137,5.822-12.137,12.772
				c0,6.863,5.205,12.563,12.2,12.563c2.91,0,6.071-1.045,8.303-2.972c0.431-0.372,1.234-0.372,1.608,0.066l4.833,5.129
				c0.432,0.464,0.365,1.249-0.064,1.682c-4.216,4.089-9.534,6.022-15.051,6.022c-12.382,0-22.358-9.861-22.358-22.24
				C460.475,629.569,470.451,619.602,482.833,619.602z"/>
			<path d="M532.272,619.602c12.384,0,22.291,9.968,22.291,22.367c0,12.38-9.907,22.24-22.291,22.24
				c-12.385,0-22.235-9.861-22.235-22.24C510.037,629.569,519.887,619.602,532.272,619.602z M532.272,654.282
				c6.817,0,12.384-5.557,12.384-12.313c0-6.812-5.568-12.445-12.384-12.445c-6.756,0-12.323,5.634-12.323,12.445
				C519.948,648.725,525.516,654.282,532.272,654.282z"/>
			<path d="M574.401,620.591c0.066-0.566,0.627-0.989,1.117-0.989h0.989c0.311,0,0.872,0.24,1.055,0.627l14.368,26.763h0.125
				l14.371-26.763c0.183-0.387,0.742-0.627,1.053-0.627h0.992c0.49,0,1.05,0.423,1.109,0.989l7.008,41.615
				c0.117,0.821-0.443,1.366-1.183,1.366h-7.309c-0.556,0-1.109-0.494-1.18-0.974l-2.786-19.151h-0.115l-10.409,20.073
				c-0.186,0.367-0.742,0.688-1.053,0.688h-1.117c-0.372,0-0.867-0.321-1.055-0.688l-10.462-20.073h-0.125l-2.725,19.151
				c-0.056,0.479-0.561,0.974-1.178,0.974h-7.312c-0.745,0-1.3-0.546-1.175-1.366L574.401,620.591z"/>
			<path d="M632.577,621.391c0-0.617,0.495-1.162,1.178-1.162h25.638c0.681,0,1.18,0.546,1.18,1.162v6.771
				c0,0.612-0.5,1.152-1.18,1.152h-17.154v7.704h14.123c0.617,0,1.178,0.551,1.178,1.157v6.771c0,0.683-0.561,1.162-1.178,1.162
				h-14.123v8.357h17.154c0.681,0,1.18,0.566,1.18,1.178v6.745c0,0.637-0.5,1.183-1.18,1.183h-25.638
				c-0.683,0-1.178-0.546-1.178-1.183V621.391z"/>
			<path d="M676.935,621.391c0-0.617,0.494-1.162,1.117-1.162h15.107c11.956,0,21.741,9.723,21.741,21.608
				c0,12.012-9.784,21.735-21.741,21.735h-15.107c-0.622,0-1.117-0.546-1.117-1.183V621.391z M692.539,654.415
				c7.003,0,12.081-5.522,12.081-12.578c0-7.001-5.078-12.522-12.081-12.522h-5.942v25.1H692.539z"/>
			<path d="M737.649,642.703l-13.69-20.68c-0.495-0.816,0-1.795,0.994-1.795h8.051c0.495,0,0.806,0.301,0.987,0.546l8.609,12.701
				l8.611-12.701c0.189-0.245,0.436-0.546,0.994-0.546h8.051c0.989,0,1.484,0.979,0.989,1.795l-13.873,20.624v19.742
				c0,0.637-0.561,1.183-1.178,1.183h-7.365c-0.685,0-1.18-0.546-1.18-1.183V642.703z"/>
		</g>
		<g>
			<path d="M1074.663,664.209c-6.205,0-10.778-1.933-15-5.772c-0.54-0.505-0.54-1.229-0.051-1.728l4.828-5.022
				c0.423-0.428,1.111-0.428,1.54,0c2.3,2.045,5.343,3.161,8.377,3.161c6.995,0,12.135-5.822,12.135-12.772
				c0-6.858-5.196-12.553-12.196-12.553c-2.922,0-6.078,1.04-8.316,2.972c-0.428,0.367-1.224,0.367-1.601-0.066l-4.823-5.139
				c-0.433-0.449-0.377-1.244,0.056-1.678c4.211-4.089,9.529-6.011,15.051-6.011c12.38,0,22.352,9.85,22.352,22.235
				C1097.015,654.237,1087.042,664.209,1074.663,664.209z"/>
			<path d="M1044.107,662.415c0,0.612-0.484,1.157-1.173,1.157h-25.636c-0.678,0-1.178-0.546-1.178-1.157v-6.771
				c0-0.612,0.5-1.157,1.178-1.157h17.152v-7.704h-14.128c-0.607,0-1.168-0.546-1.168-1.152v-6.776c0-0.678,0.561-1.157,1.168-1.157
				h14.128v-8.362h-17.152c-0.678,0-1.178-0.561-1.178-1.173v-6.746c0-0.642,0.5-1.188,1.178-1.188h25.636
				c0.688,0,1.173,0.546,1.173,1.188V662.415z"/>
			<path d="M999.81,663.098c0,0.607-0.551,1.112-1.173,1.112h-1.55l-24.718-23.785h-0.041v21.991c0,0.612-0.505,1.157-1.188,1.157
				h-7.429c-0.622,0-1.178-0.546-1.178-1.157v-41.686c0-0.637,0.556-1.127,1.178-1.127h0.979c0.194,0,0.683,0.194,0.821,0.306
				l24.463,24.601h0.051v-23.092c0-0.642,0.489-1.188,1.173-1.188h7.383c0.617,0,1.178,0.546,1.178,1.188L999.81,663.098z"/>
			<path d="M938.224,654.486h8.867c0.673,0,1.178,0.545,1.178,1.157v6.771c0,0.612-0.505,1.157-1.178,1.157h-27.492
				c-0.678,0-1.178-0.546-1.178-1.157v-6.771c0-0.612,0.5-1.157,1.178-1.157h8.851v-33.07c0-0.642,0.551-1.188,1.178-1.188h7.429
				c0.622,0,1.168,0.546,1.168,1.188V654.486z"/>
			<path d="M904.155,662.415c0,0.612-0.49,1.157-1.168,1.157h-18.528c-7.429,0-13.491-5.986-13.491-13.374
				c0-5.69,3.768-10.274,9.152-12.456l-8.469-15.719c-0.433-0.821,0-1.795,1.045-1.795h8.244c0.485,0,0.867,0.301,0.984,0.546
				l8.239,16.423h4.268v-15.78c0-0.642,0.566-1.188,1.178-1.188h7.378c0.678,0,1.168,0.546,1.168,1.188V662.415z M885.275,645.054
				c-2.539,0-4.711,2.366-4.711,4.951c0,2.621,2.172,4.706,4.711,4.706h9.157v-9.657H885.275z"/>
			<path d="M860.179,621.84l-19.385,41.681c-0.194,0.367-0.632,0.688-1.066,0.688h-0.612c-0.428,0-0.857-0.321-1.055-0.688
				l-19.385-41.681c-0.367-0.816,0.122-1.611,1.055-1.611h6.87c1.114,0,1.614,0.362,2.164,1.545l2.238,4.885h16.836l2.238-4.951
				c0.306-0.75,0.989-1.479,2.233-1.479h6.807C860.052,620.229,860.541,621.024,860.179,621.84z M834.712,635.081l4.716,10.228
				h0.051l4.66-10.228H834.712z"/>
			<path d="M805.535,662.415c0,0.612-0.492,1.157-1.17,1.157h-7.383c-0.617,0-1.167-0.546-1.167-1.157v-33.08h-14.745
				c-0.678,0-1.17-0.561-1.17-1.173v-6.746c0-0.642,0.492-1.188,1.17-1.188h23.296c0.678,0,1.17,0.546,1.17,1.188V662.415z"/>
		</g>
	</g>
	<g>
		<path fill="#1D1D1B" d="M460.965,685.93c0-0.836,0.291-1.54,0.863-2.116c0.577-0.571,1.281-0.867,2.122-0.867h64.982
			c0.834,0,1.54,0.296,2.117,0.867c0.573,0.576,0.863,1.28,0.863,2.116v17.111c0,0.836-0.29,1.545-0.863,2.121
			c-0.577,0.571-1.284,0.862-2.117,0.862h-43.477v22.602h35.785c0.836,0,1.544,0.285,2.12,0.862
			c0.574,0.576,0.862,1.285,0.862,2.121v17.106c0,0.841-0.288,1.545-0.862,2.121c-0.576,0.576-1.284,0.861-2.12,0.861h-35.785
			v38.143c0,0.841-0.292,1.545-0.864,2.121c-0.577,0.576-1.284,0.862-2.121,0.862H463.95c-0.841,0-1.545-0.286-2.122-0.862
			c-0.572-0.576-0.863-1.28-0.863-2.121V685.93z"/>
		<path fill="#1D1D1B" d="M558.284,792.822c-1.156,0-2.019-0.413-2.594-1.254c-0.571-0.836-0.599-1.78-0.079-2.825l49.132-105.638
			c0.626-1.153,1.517-1.723,2.665-1.723h1.573c1.256,0,2.142,0.571,2.664,1.723l49.134,105.638c0.518,1.045,0.49,1.988-0.081,2.825
			c-0.577,0.841-1.44,1.254-2.591,1.254h-17.422c-1.463,0-2.566-0.286-3.294-0.862c-0.736-0.576-1.47-1.596-2.198-3.064
			l-5.653-12.395h-42.692l-5.652,12.553c-0.421,0.943-1.073,1.805-1.96,2.59c-0.892,0.785-2.12,1.178-3.688,1.178H558.284z
			 M620.124,755.148l-11.928-25.896h-0.156l-11.774,25.896H620.124z"/>
		<path fill="#1D1D1B" d="M704.878,683.89c0.103-0.729,0.449-1.336,1.02-1.805c0.579-0.469,1.179-0.703,1.809-0.703h2.511
			c0.416,0,0.913,0.133,1.491,0.393c0.572,0.26,0.966,0.653,1.177,1.173l36.417,67.812h0.312l36.416-67.812
			c0.207-0.52,0.602-0.913,1.178-1.173c0.574-0.26,1.071-0.393,1.491-0.393h2.508c0.63,0,1.231,0.234,1.802,0.703
			c0.581,0.469,0.918,1.076,1.025,1.805l17.738,105.48c0.209,1.045,0,1.886-0.632,2.508c-0.624,0.632-1.41,0.943-2.35,0.943H790.27
			c-0.737,0-1.395-0.26-1.965-0.785c-0.576-0.52-0.918-1.101-1.02-1.723l-7.062-48.503h-0.315l-26.368,50.859
			c-0.21,0.52-0.605,0.938-1.179,1.254c-0.576,0.311-1.073,0.469-1.489,0.469h-2.828c-1.151,0-2.042-0.576-2.668-1.723
			l-26.527-50.859h-0.312l-6.906,48.503c-0.107,0.622-0.419,1.203-0.944,1.723c-0.523,0.525-1.204,0.785-2.04,0.785h-18.521
			c-0.942,0-1.726-0.311-2.352-0.943c-0.632-0.622-0.842-1.463-0.632-2.508L704.878,683.89z"/>
		<path fill="#1D1D1B" d="M858.701,711.045c-3.452,0-6.383-1.203-8.787-3.61c-2.409-2.407-3.612-5.338-3.612-8.79
			c0-3.457,1.203-6.409,3.612-8.867c2.404-2.458,5.336-3.691,8.787-3.691c3.454,0,6.409,1.234,8.869,3.691
			c2.46,2.458,3.691,5.41,3.691,8.867c0,3.452-1.231,6.383-3.691,8.79C865.11,709.842,862.155,711.045,858.701,711.045z
			 M847.247,733.02c0-0.836,0.286-1.545,0.864-2.121c0.571-0.571,1.28-0.861,2.116-0.861h17.264c0.839,0,1.545,0.291,2.118,0.861
			c0.579,0.576,0.864,1.285,0.864,2.121v56.819c0,0.841-0.286,1.545-0.864,2.121c-0.574,0.576-1.28,0.862-2.118,0.862h-17.264
			c-0.836,0-1.545-0.286-2.116-0.862c-0.579-0.576-0.864-1.28-0.864-2.121V733.02z"/>
		<path fill="#1D1D1B" d="M912.853,685.93c0-0.836,0.288-1.54,0.862-2.116c0.576-0.571,1.28-0.867,2.121-0.867h18.679
			c0.833,0,1.54,0.296,2.118,0.867c0.573,0.576,0.862,1.28,0.862,2.116v83.821h37.357c0.836,0,1.545,0.291,2.116,0.861
			c0.579,0.576,0.867,1.28,0.867,2.121v17.106c0,0.841-0.288,1.545-0.867,2.121c-0.571,0.576-1.28,0.862-2.116,0.862h-59.016
			c-0.841,0-1.545-0.286-2.121-0.862c-0.574-0.576-0.862-1.28-0.862-2.121V685.93z"/>
		<path fill="#1D1D1B" d="M1033.708,739.924L999.022,687.5c-0.627-1.045-0.678-2.065-0.161-3.059
			c0.528-0.994,1.415-1.494,2.672-1.494h20.405c0.625,0,1.153,0.158,1.573,0.474c0.416,0.316,0.729,0.627,0.938,0.938l21.82,32.182
			l21.814-32.182c0.212-0.311,0.5-0.622,0.864-0.938c0.37-0.316,0.915-0.474,1.647-0.474h20.412c1.249,0,2.136,0.5,2.664,1.494
			c0.517,0.994,0.471,2.014-0.158,3.059l-35.155,52.271v50.068c0,0.841-0.293,1.545-0.864,2.121
			c-0.579,0.576-1.288,0.862-2.124,0.862h-18.674c-0.844,0-1.55-0.286-2.124-0.862c-0.579-0.576-0.864-1.28-0.864-2.121V739.924z"/>
	</g>
</g>
</svg>
