<?xml version="1.0" encoding="utf-8"?>
<!-- Generator: Adobe Illustrator 16.2.1, SVG Export Plug-In . SVG Version: 6.00 Build 0)  -->
<!DOCTYPE svg PUBLIC "-//W3C//DTD SVG 1.1//EN" "http://www.w3.org/Graphics/SVG/1.1/DTD/svg11.dtd">
<svg version="1.1" id="Layer_1" xmlns="http://www.w3.org/2000/svg" xmlns:xlink="http://www.w3.org/1999/xlink" x="0px" y="0px"
	 width="841.89px" height="595.28px" viewBox="0 0 841.89 595.28" enable-background="new 0 0 841.89 595.28" xml:space="preserve">
<g>
	<g id="circle_family_outside">
		
			<linearGradient id="circle_family_outside_03_1_" gradientUnits="userSpaceOnUse" x1="528.5459" y1="428.6836" x2="584.2676" y2="418.0287" gradientTransform="matrix(0.9922 -0.1249 0.1249 0.9922 -23.4062 15.1455)">
			<stop  offset="0.0123" style="stop-color:#D03E16;stop-opacity:0.45"/>
			<stop  offset="1" style="stop-color:#D03E16"/>
			<stop  offset="1" style="stop-color:#E52620"/>
		</linearGradient>
		<path id="circle_family_outside_03" opacity="0.35" fill="url(#circle_family_outside_03_1_)" d="M608.842,362.123
			c1.846,14.671-8.551,28.067-23.228,29.921c-14.677,1.848-28.073-8.555-29.921-23.231c-1.848-14.676,8.555-28.072,23.23-29.92
			C593.601,337.045,606.994,347.446,608.842,362.123z"/>
		
			<linearGradient id="circle_family_outside_02_1_" gradientUnits="userSpaceOnUse" x1="563.6309" y1="380.541" x2="611.5615" y2="241.3404">
			<stop  offset="0" style="stop-color:#E0B3A8;stop-opacity:0"/>
			<stop  offset="0.1153" style="stop-color:#E0B0A2;stop-opacity:0.1153"/>
			<stop  offset="0.2746" style="stop-color:#DEA492;stop-opacity:0.2746"/>
			<stop  offset="0.4595" style="stop-color:#DC9277;stop-opacity:0.4595"/>
			<stop  offset="0.6637" style="stop-color:#D97754;stop-opacity:0.6637"/>
			<stop  offset="0.8813" style="stop-color:#D4542C;stop-opacity:0.8813"/>
			<stop  offset="1" style="stop-color:#D03E16"/>
			<stop  offset="1" style="stop-color:#E52620"/>
		</linearGradient>
		<path id="circle_family_outside_02" opacity="0.4" fill="url(#circle_family_outside_02_1_)" d="M648.712,274.636
			c-5.087-40.433-42.001-69.089-82.433-63.999c-0.278,0.033-0.546,0.085-0.821,0.125c34.185,7.864,61.444,36.306,66.084,73.137
			c2.896,23.008-3.593,45.025-16.461,62.246C638.41,331.295,652.396,303.89,648.712,274.636z"/>
		
			<linearGradient id="circle_family_outside_01_1_" gradientUnits="userSpaceOnUse" x1="510.1855" y1="328.2783" x2="474.8055" y2="258.3141" gradientTransform="matrix(0.9922 -0.1249 0.1249 0.9922 -23.4062 15.1455)">
			<stop  offset="0" style="stop-color:#E0B3A8;stop-opacity:0.56"/>
			<stop  offset="0.1227" style="stop-color:#E0B3A8;stop-opacity:0.56"/>
			<stop  offset="0.1457" style="stop-color:#DFA694;stop-opacity:0.5716"/>
			<stop  offset="0.1903" style="stop-color:#DC8F73;stop-opacity:0.5939"/>
			<stop  offset="0.2404" style="stop-color:#D97A57;stop-opacity:0.619"/>
			<stop  offset="0.2958" style="stop-color:#D76740;stop-opacity:0.6468"/>
			<stop  offset="0.3583" style="stop-color:#D55930;stop-opacity:0.6782"/>
			<stop  offset="0.4313" style="stop-color:#D34D24;stop-opacity:0.7148"/>
			<stop  offset="0.5217" style="stop-color:#D1441D;stop-opacity:0.7601"/>
			<stop  offset="0.6483" style="stop-color:#D13F18;stop-opacity:0.8236"/>
			<stop  offset="1" style="stop-color:#D03E16"/>
			<stop  offset="1" style="stop-color:#E52620"/>
		</linearGradient>
		
			<circle id="circle_family_outside_01" opacity="0.32" fill="url(#circle_family_outside_01_1_)" cx="501.696" cy="244.365" r="40.052"/>
	</g>
	<g id="circle_family_inside">
		<defs>
			<circle id="BG_circle_14_" cx="546.156" cy="294.648" r="86.06"/>
		</defs>
		<clipPath id="BG_circle_1_">
			<use xlink:href="#BG_circle_14_"  overflow="visible"/>
		</clipPath>
		<g clip-path="url(#BG_circle_1_)">
			
				<linearGradient id="circle_family_inside_BG_1_" gradientUnits="userSpaceOnUse" x1="454.9375" y1="410.2246" x2="598.5098" y2="292.3304" gradientTransform="matrix(0.9922 -0.1249 0.1249 0.9922 -23.4062 15.145)">
				<stop  offset="0" style="stop-color:#F18619"/>
				<stop  offset="0.5544" style="stop-color:#B54518"/>
				<stop  offset="1" style="stop-color:#8B1812"/>
			</linearGradient>
			<circle id="circle_family_inside_BG" fill="url(#circle_family_inside_BG_1_)" cx="546.156" cy="294.648" r="86.06"/>
			
				<radialGradient id="circle_family_inside_BG_shadow_1_" cx="530.1777" cy="348.4404" r="86.0557" gradientTransform="matrix(0.9922 -0.1249 0.1249 0.9922 -23.4062 15.1455)" gradientUnits="userSpaceOnUse">
				<stop  offset="0" style="stop-color:#D15D94;stop-opacity:0"/>
				<stop  offset="0.39" style="stop-color:#D25D94;stop-opacity:0.1716"/>
				<stop  offset="0.5305" style="stop-color:#D35E91;stop-opacity:0.2334"/>
				<stop  offset="0.6307" style="stop-color:#D5608D;stop-opacity:0.2775"/>
				<stop  offset="0.7118" style="stop-color:#D76387;stop-opacity:0.3132"/>
				<stop  offset="0.7811" style="stop-color:#DA667F;stop-opacity:0.3437"/>
				<stop  offset="0.8425" style="stop-color:#DE6A73;stop-opacity:0.3707"/>
				<stop  offset="0.8981" style="stop-color:#E36F62;stop-opacity:0.3952"/>
				<stop  offset="0.949" style="stop-color:#E9744B;stop-opacity:0.4175"/>
				<stop  offset="0.9945" style="stop-color:#EE792B;stop-opacity:0.4376"/>
				<stop  offset="1" style="stop-color:#EF7A26;stop-opacity:0.44"/>
			</radialGradient>
			
				<circle id="circle_family_inside_BG_shadow" fill="url(#circle_family_inside_BG_shadow_1_)" cx="546.156" cy="294.648" r="86.06"/>
			
				<linearGradient id="circle_family_inside_10_1_" gradientUnits="userSpaceOnUse" x1="452.1641" y1="373.7012" x2="543.4086" y2="320.6135" gradientTransform="matrix(0.9922 -0.1249 0.1249 0.9922 -23.4062 15.1455)">
				<stop  offset="0" style="stop-color:#E26921"/>
				<stop  offset="1" style="stop-color:#FFCF1C"/>
			</linearGradient>
			<path id="circle_family_inside_10" opacity="0.51" fill="url(#circle_family_inside_10_1_)" d="M567.721,290.412
				c3.721,29.552-17.22,56.529-46.773,60.247c-29.551,3.723-56.521-17.221-60.242-46.773c-3.721-29.552,17.22-56.521,46.768-60.241
				C537.026,239.924,563.997,260.859,567.721,290.412z"/>
			
				<linearGradient id="circle_family_inside_09_1_" gradientUnits="userSpaceOnUse" x1="510.1855" y1="328.2783" x2="474.8055" y2="258.3141" gradientTransform="matrix(0.9922 -0.1249 0.1249 0.9922 -23.4062 15.1455)">
				<stop  offset="0" style="stop-color:#E0B3A8;stop-opacity:0.56"/>
				<stop  offset="0.1227" style="stop-color:#E0B3A8;stop-opacity:0.56"/>
				<stop  offset="0.1457" style="stop-color:#DFA694;stop-opacity:0.5716"/>
				<stop  offset="0.1903" style="stop-color:#DC8F73;stop-opacity:0.5939"/>
				<stop  offset="0.2404" style="stop-color:#D97A57;stop-opacity:0.619"/>
				<stop  offset="0.2958" style="stop-color:#D76740;stop-opacity:0.6468"/>
				<stop  offset="0.3583" style="stop-color:#D55930;stop-opacity:0.6782"/>
				<stop  offset="0.4313" style="stop-color:#D34D24;stop-opacity:0.7148"/>
				<stop  offset="0.5217" style="stop-color:#D1441D;stop-opacity:0.7601"/>
				<stop  offset="0.6483" style="stop-color:#D13F18;stop-opacity:0.8236"/>
				<stop  offset="1" style="stop-color:#D03E16"/>
				<stop  offset="1" style="stop-color:#E52620"/>
			</linearGradient>
			
				<circle id="circle_family_inside_09" opacity="0.32" fill="url(#circle_family_inside_09_1_)" cx="501.696" cy="244.365" r="40.052"/>
			
				<linearGradient id="circle_family_inside_08_1_" gradientUnits="userSpaceOnUse" x1="469.0488" y1="352.1641" x2="524.306" y2="407.7594" gradientTransform="matrix(0.9922 -0.1249 0.1249 0.9922 -23.4062 15.1455)">
				<stop  offset="0" style="stop-color:#FDF3ED"/>
				<stop  offset="0.2053" style="stop-color:#F9D9C3"/>
				<stop  offset="0.6665" style="stop-color:#EB955B"/>
				<stop  offset="0.9325" style="stop-color:#E26921"/>
			</linearGradient>
			<path id="circle_family_inside_08" opacity="0.35" fill="url(#circle_family_inside_08_1_)" d="M556.856,325.312
				c2.761,21.945-12.79,41.976-34.737,44.736c-21.948,2.766-41.979-12.784-44.74-34.735c-2.763-21.945,12.79-41.975,34.735-44.738
				S554.091,303.361,556.856,325.312z"/>
			
				<linearGradient id="circle_family_inside_07_1_" gradientUnits="userSpaceOnUse" x1="515.4766" y1="358.2852" x2="610.7817" y2="415.9467" gradientTransform="matrix(0.9922 -0.1249 0.1249 0.9922 -23.4062 15.1455)">
				<stop  offset="0.0061" style="stop-color:#F8A92D"/>
				<stop  offset="0.2826" style="stop-color:#E18729"/>
				<stop  offset="0.8902" style="stop-color:#AF381E"/>
				<stop  offset="1" style="stop-color:#A72C1C"/>
			</linearGradient>
			<path id="circle_family_inside_07" opacity="0.6" fill="url(#circle_family_inside_07_1_)" d="M617.87,312.199
				c3.888,30.878-17.991,59.062-48.872,62.947c-30.875,3.891-59.062-17.988-62.95-48.871c-3.888-30.876,17.994-59.064,48.872-62.95
				C585.798,259.438,613.982,281.32,617.87,312.199z"/>
			
				<linearGradient id="circle_family_inside_06_1_" gradientUnits="userSpaceOnUse" x1="537.084" y1="319.2695" x2="623.5575" y2="371.5878" gradientTransform="matrix(0.9922 -0.1249 0.1249 0.9922 -23.4062 15.1455)">
				<stop  offset="0.2699" style="stop-color:#F59B12"/>
				<stop  offset="0.469" style="stop-color:#ED7F1E"/>
				<stop  offset="0.9064" style="stop-color:#DA2D25"/>
				<stop  offset="1" style="stop-color:#D70F25"/>
			</linearGradient>
			<path id="circle_family_inside_06" opacity="0.6" fill="url(#circle_family_inside_06_1_)" d="M626.669,269.98
				c3.531,28.016-16.327,53.59-44.341,57.119c-28.021,3.528-53.595-16.324-57.12-44.341c-3.526-28.019,16.326-53.593,44.344-57.123
				C594.842,222.452,623.102,241.622,626.669,269.98z"/>
			
				<linearGradient id="circle_family_inside_05_1_" gradientUnits="userSpaceOnUse" x1="406.4033" y1="329.042" x2="574.2603" y2="287.7341">
				<stop  offset="0.0982" style="stop-color:#E0B3A8;stop-opacity:0.56"/>
				<stop  offset="0.2025" style="stop-color:#E0B0A2;stop-opacity:0.6109"/>
				<stop  offset="0.3457" style="stop-color:#DFA592;stop-opacity:0.6808"/>
				<stop  offset="0.5115" style="stop-color:#DC9278;stop-opacity:0.7616"/>
				<stop  offset="0.6942" style="stop-color:#D97855;stop-opacity:0.8508"/>
				<stop  offset="0.8884" style="stop-color:#D4552D;stop-opacity:0.9456"/>
				<stop  offset="1" style="stop-color:#D03E16"/>
				<stop  offset="1" style="stop-color:#E52620"/>
			</linearGradient>
			<path id="circle_family_inside_05" opacity="0.4" fill="url(#circle_family_inside_05_1_)" d="M502.28,293.073
				c-5.054-40.163,23.181-76.821,63.178-82.312c-9.587-2.209-19.722-2.797-30.052-1.496c-47.157,5.937-80.572,48.973-74.636,96.132
				c5.937,47.157,48.979,80.573,96.136,74.635c24.149-3.039,44.676-15.823,58.175-33.889c-8.913,5.671-19.188,9.522-30.366,10.931
				C544.278,362.168,507.373,333.51,502.28,293.073z"/>
			
				<linearGradient id="circle_family_inside_04_1_" gradientUnits="userSpaceOnUse" x1="555.6855" y1="398.6084" x2="606.8861" y2="220.0508">
				<stop  offset="0.0061" style="stop-color:#C35E17"/>
				<stop  offset="1" style="stop-color:#E50B44;stop-opacity:0"/>
			</linearGradient>
			<path id="circle_family_inside_04" fill="url(#circle_family_inside_04_1_)" d="M631.55,283.862
				c-4.895-38.886-35.027-68.397-71.883-74.237c20.234,14.764,34.574,37.514,37.946,64.325
				c6.153,48.864-26.309,93.689-73.588,103.83c10.418,2.777,21.533,3.651,32.893,2.221
				C604.075,374.062,637.485,331.022,631.55,283.862z"/>
			
				<linearGradient id="circle_family_inside_03_1_" gradientUnits="userSpaceOnUse" x1="528.5459" y1="428.6836" x2="584.2676" y2="418.0287" gradientTransform="matrix(0.9922 -0.1249 0.1249 0.9922 -23.4062 15.1455)">
				<stop  offset="0.0123" style="stop-color:#D03E16;stop-opacity:0.45"/>
				<stop  offset="1" style="stop-color:#D03E16"/>
				<stop  offset="1" style="stop-color:#E52620"/>
			</linearGradient>
			<path id="circle_family_inside_03" opacity="0.35" fill="url(#circle_family_inside_03_1_)" d="M608.842,362.123
				c1.846,14.671-8.551,28.067-23.228,29.921c-14.677,1.848-28.073-8.555-29.921-23.231c-1.848-14.676,8.555-28.072,23.23-29.92
				C593.601,337.045,606.994,347.446,608.842,362.123z"/>
			
				<linearGradient id="circle_family_inside_02_1_" gradientUnits="userSpaceOnUse" x1="518.3955" y1="329.4873" x2="479.6798" y2="277.7824" gradientTransform="matrix(0.9922 -0.1249 0.1249 0.9922 -23.4062 15.1455)">
				<stop  offset="0" style="stop-color:#FFEC79"/>
				<stop  offset="0.1731" style="stop-color:#F1CE66"/>
				<stop  offset="0.557" style="stop-color:#CD843C"/>
				<stop  offset="1" style="stop-color:#A72C1C"/>
			</linearGradient>
			<path id="circle_family_inside_02" opacity="0.39" fill="url(#circle_family_inside_02_1_)" d="M539.319,249.645
				c2.104,16.711-9.737,31.966-26.453,34.071c-16.711,2.103-31.967-9.74-34.07-26.451c-2.101-16.712,9.737-31.967,26.45-34.071
				C521.96,221.089,537.21,232.933,539.319,249.645z"/>
			
				<linearGradient id="circle_family_inside_01_1_" gradientUnits="userSpaceOnUse" x1="638.2988" y1="332.2158" x2="701.0187" y2="506.2021" gradientTransform="matrix(1.1819 -0.0074 0.0072 1.141 -224.7158 -148.4863)">
				<stop  offset="0" style="stop-color:#F8B47B"/>
				<stop  offset="0.2639" style="stop-color:#E3915D"/>
				<stop  offset="0.8438" style="stop-color:#B33F25"/>
				<stop  offset="1" style="stop-color:#A72C1C"/>
			</linearGradient>
			<path id="circle_family_inside_01" opacity="0.18" fill="url(#circle_family_inside_01_1_)" d="M630.868,293.889
				c0.245,38.765-32.108,70.405-72.27,70.661c-40.164,0.256-72.921-30.979-73.166-69.746c-0.339-54.606,40.203-70.465,72.275-70.669
				C597.875,223.881,630.623,255.116,630.868,293.889z"/>
		</g>
	</g>
	<g id="FAMILY">
		<path fill="#F1881B" d="M217.852,333.846v10.01h24.618v6.439h-24.618v15.309h-7.142v-38.197h33.166v6.439H217.852z"/>
		<path fill="#F1881B" d="M284.394,365.604l-4.923-9.954h-23.698l-5.626,9.954h-8.711l22.832-38.197h8.711l19.802,38.197H284.394z
			 M259.398,349.211h16.881l-7.899-15.907L259.398,349.211z"/>
		<path fill="#F1881B" d="M324.044,357.921l18.611-30.298h9.794v37.98h-7.143v-30.188l-18.558,30.188h-6.437l-17.963-30.078v30.078
			h-7.142v-37.98h10.821L324.044,357.921z"/>
		<path fill="#F1881B" d="M368.779,365.604h-7.142v-38.197h7.142V365.604z"/>
		<path fill="#F1881B" d="M407.893,359.165v6.438h-29.92v-38.197h7.25v31.759H407.893z"/>
		<path fill="#F1881B" d="M444.301,327.406l-20.885,26.082v12.115h-7.359v-11.795l-19.206-26.402h9.252l13.905,19.263l15.906-19.263
			H444.301z"/>
	</g>
	<g id="FILM_6_">
		<path fill="#FFFFFF" d="M475.529,283.148v10.497h25.812v6.75h-25.812v16.055h-7.486v-40.051h34.774v6.75H475.529z"/>
		<path fill="#FFFFFF" d="M516.548,316.449h-7.489v-40.051h7.489V316.449z"/>
		<path fill="#FFFFFF" d="M557.561,309.7v6.749h-31.368v-40.051h7.598V309.7H557.561z"/>
		<path fill="#FFFFFF" d="M593.473,308.393l19.514-31.769h10.271v39.825h-7.491v-31.656l-19.454,31.656h-6.754l-18.834-31.541
			v31.541h-7.489v-39.825h11.349L593.473,308.393z"/>
	</g>
	<g id="VIASAT_6_">
		<path fill="#010202" d="M236.251,276.229h7.717l-23.729,40.368h-7.775l-21.441-40.368h9.033l16.755,33.221L236.251,276.229z"/>
		<path fill="#010202" d="M256.36,316.597h-7.549v-40.368h7.549V316.597z"/>
		<path fill="#010202" d="M308.897,316.597l-5.204-10.52H278.65l-5.947,10.52h-9.206l24.13-40.368h9.205l20.927,40.368H308.897z
			 M282.482,299.271h17.838l-8.349-16.811L282.482,299.271z"/>
		<path fill="#010202" d="M358.965,286.806c-3.03-2.401-11.147-4.516-18.068-4.516c-6.289,0-11.721,1.887-11.721,6.232
			c0,7.319,33.394-0.572,33.394,14.867c0,7.548-7.433,14.521-21.158,14.521c-13.722,0-20.354-4.687-22.813-7.319l5.09-5.66
			c5.66,4.692,11.894,6.006,17.554,6.006c5.83,0,13.208-1.486,13.208-6.406c0-9.605-33.792,0.573-33.792-16.008
			c0-8.119,9.261-13.208,21.155-13.208c10.121,0,17.668,3.203,21.272,5.662C363.084,280.975,360.51,284.749,358.965,286.806z"/>
		<path fill="#010202" d="M408.466,316.597l-5.204-10.52h-25.042l-5.947,10.52h-9.206l24.13-40.368h9.206l20.927,40.368H408.466z
			 M382.051,299.271h17.838l-8.348-16.811L382.051,299.271z"/>
		<path fill="#010202" d="M453.962,283.261h-16.638v33.336h-7.548v-33.336h-16.182v-6.804h40.367V283.261z"/>
	</g>
</g>
</svg>
