<?xml version="1.0" encoding="UTF-8" ?>
<!DOCTYPE svg PUBLIC "-//W3C//DTD SVG 1.1//EN" "http://www.w3.org/Graphics/SVG/1.1/DTD/svg11.dtd">
<svg width="500pt" height="195pt" viewBox="0 0 500 195" version="1.1" xmlns="http://www.w3.org/2000/svg">
<g id="#962f1dff">
<path fill="#962f1d" opacity="1.00" d=" M 385.75 1.63 C 401.81 -1.32 418.69 -0.03 434.09 5.37 C 437.92 10.79 444.29 14.13 447.25 20.18 C 446.35 20.15 444.54 20.09 443.64 20.06 C 438.98 18.77 434.08 19.29 429.31 19.25 C 420.99 18.11 412.44 17.37 404.10 18.52 C 400.13 16.44 397.47 12.71 394.18 9.78 C 391.62 6.79 387.87 5.02 385.75 1.63 Z" />
</g>
<g id="#a3421fff">
<path fill="#a3421f" opacity="1.00" d=" M 345.61 18.52 C 357.40 9.84 371.35 4.03 385.75 1.63 C 387.87 5.02 391.62 6.79 394.18 9.78 C 397.47 12.71 400.13 16.44 404.10 18.52 C 396.50 19.38 388.92 20.74 381.70 23.34 C 375.08 18.88 367.24 16.04 359.17 16.48 C 354.54 16.32 350.20 18.30 345.61 18.52 Z" />
</g>
<g id="#8e201bff">
<path fill="#8e201b" opacity="1.00" d=" M 434.09 5.37 C 451.49 11.21 467.26 22.18 478.61 36.62 L 477.18 36.69 C 474.60 34.17 471.81 31.88 468.79 29.91 C 462.28 25.38 454.91 22.16 447.25 20.18 C 444.29 14.13 437.92 10.79 434.09 5.37 Z" />
</g>
<g id="#ca7030ff">
<path fill="#ca7030" opacity="1.00" d=" M 345.61 18.52 C 350.20 18.30 354.54 16.32 359.17 16.48 C 367.24 16.04 375.08 18.88 381.70 23.34 C 386.64 27.23 390.51 32.39 392.91 38.19 L 393.07 38.73 C 391.66 40.15 390.35 41.68 388.89 43.05 C 383.89 41.95 379.08 39.96 373.93 39.61 C 366.98 39.10 359.84 38.87 353.09 40.85 C 343.09 42.76 333.94 47.82 325.97 54.03 C 325.85 50.05 325.90 45.99 327.19 42.17 C 328.15 38.58 330.42 35.43 330.79 31.67 C 335.20 26.73 340.25 22.38 345.61 18.52 Z" />
</g>
<g id="#b1461dff">
<path fill="#b1461d" opacity="1.00" d=" M 404.10 18.52 C 412.44 17.37 420.99 18.11 429.31 19.25 L 428.70 19.70 C 415.01 21.21 402.27 28.21 392.91 38.19 C 390.51 32.39 386.64 27.23 381.70 23.34 C 388.92 20.74 396.50 19.38 404.10 18.52 Z" />
</g>
<g id="#d8490eff">
<path fill="#d8490e" opacity="1.00" d=" M 429.31 19.25 C 434.08 19.29 438.98 18.77 443.64 20.06 C 446.89 24.66 453.44 24.82 457.25 28.74 C 459.46 33.56 458.22 38.87 458.81 43.94 C 459.24 47.62 458.31 51.26 457.58 54.84 C 456.66 60.83 458.61 67.01 457.08 72.93 C 454.88 71.45 452.60 70.11 450.25 68.91 C 449.05 68.33 447.86 67.74 446.65 67.20 C 446.08 62.59 447.38 57.98 446.66 53.39 C 446.58 51.35 445.57 49.29 446.25 47.26 C 444.82 45.44 443.60 43.49 442.66 41.37 C 439.15 37.52 435.70 33.59 431.74 30.17 C 431.98 26.31 428.68 24.24 426.03 22.11 C 426.90 21.29 427.77 20.47 428.70 19.70 L 429.31 19.25 Z" />
</g>
<g id="#dc580fff">
<path fill="#dc580f" opacity="1.00" d=" M 392.91 38.19 C 402.27 28.21 415.01 21.21 428.70 19.70 C 427.77 20.47 426.90 21.29 426.03 22.11 C 428.68 24.24 431.98 26.31 431.74 30.17 C 435.70 33.59 439.15 37.52 442.66 41.37 C 443.60 43.49 444.82 45.44 446.25 47.26 C 445.57 49.29 446.58 51.35 446.66 53.39 C 447.38 57.98 446.08 62.59 446.65 67.20 C 444.53 66.23 442.38 65.33 440.13 64.71 C 431.72 61.88 422.84 61.07 414.02 61.72 C 408.70 55.62 402.53 50.01 395.12 46.58 L 394.87 46.02 C 394.35 43.57 393.71 41.15 393.07 38.73 L 392.91 38.19 Z" />
</g>
<g id="#d4350fff">
<path fill="#d4350f" opacity="1.00" d=" M 443.64 20.06 C 444.54 20.09 446.35 20.15 447.25 20.18 C 454.91 22.16 462.28 25.38 468.79 29.91 C 468.46 31.17 468.00 32.44 468.22 33.76 C 469.34 41.46 468.87 49.26 469.04 57.00 C 469.07 58.88 471.13 59.85 471.57 61.61 C 472.09 63.41 473.65 64.56 474.80 65.95 C 474.46 67.23 472.83 68.65 474.03 69.93 C 475.68 72.22 477.10 74.65 478.20 77.25 C 476.22 80.71 474.06 84.07 472.00 87.48 C 467.40 82.26 463.03 76.73 457.08 72.93 C 458.61 67.01 456.66 60.83 457.58 54.84 C 458.31 51.26 459.24 47.62 458.81 43.94 C 458.22 38.87 459.46 33.56 457.25 28.74 C 453.44 24.82 446.89 24.66 443.64 20.06 Z" />
</g>
<g id="#d0260eff">
<path fill="#d0260e" opacity="1.00" d=" M 468.79 29.91 C 471.81 31.88 474.60 34.17 477.18 36.69 C 476.62 37.69 476.40 38.85 476.97 39.90 C 478.97 46.28 484.14 50.84 487.32 56.58 C 489.01 59.88 491.42 62.76 492.82 66.21 C 494.61 71.96 494.35 78.11 493.80 84.03 C 493.12 88.61 492.48 93.37 490.11 97.43 C 490.08 90.70 490.13 83.98 490.07 77.25 C 486.11 77.15 482.15 77.14 478.20 77.25 C 477.10 74.65 475.68 72.22 474.03 69.93 C 472.83 68.65 474.46 67.23 474.80 65.95 C 473.65 64.56 472.09 63.41 471.57 61.61 C 471.13 59.85 469.07 58.88 469.04 57.00 C 468.87 49.26 469.34 41.46 468.22 33.76 C 468.00 32.44 468.46 31.17 468.79 29.91 Z" />
</g>
<g id="#c77321ff">
<path fill="#c77321" opacity="1.00" d=" M 306.10 84.37 C 308.34 64.76 317.50 46.15 330.79 31.67 C 330.42 35.43 328.15 38.58 327.19 42.17 C 325.90 45.99 325.85 50.05 325.97 54.03 L 325.99 54.88 C 319.52 60.23 314.47 67.15 310.60 74.56 C 308.81 77.70 308.35 81.47 306.10 84.37 Z" />
</g>
<g id="#c81e0fff">
<path fill="#c81e0f" opacity="1.00" d=" M 477.18 36.69 L 478.61 36.62 C 484.90 44.43 490.21 53.26 493.49 62.70 C 493.32 63.58 492.99 65.33 492.82 66.21 C 491.42 62.76 489.01 59.88 487.32 56.58 C 484.14 50.84 478.97 46.28 476.97 39.90 C 476.40 38.85 476.62 37.69 477.18 36.69 Z" />
</g>
<g id="#ec9c28ff">
<path fill="#ec9c28" opacity="1.00" d=" M 353.09 40.85 C 359.84 38.87 366.98 39.10 373.93 39.61 C 379.08 39.96 383.89 41.95 388.89 43.05 C 390.35 41.68 391.66 40.15 393.07 38.73 C 393.71 41.15 394.35 43.57 394.87 46.02 C 392.93 45.34 391.01 44.58 389.01 44.08 C 385.23 47.78 383.53 53.18 381.24 57.88 C 378.09 61.24 374.21 64.10 372.23 68.36 C 370.42 70.58 367.73 71.98 366.22 74.48 C 367.12 74.90 368.03 75.32 368.96 75.72 C 366.18 75.74 363.39 75.77 360.64 76.21 L 360.59 76.85 C 360.50 79.65 360.55 82.45 360.55 85.25 C 358.16 85.65 355.75 85.36 353.46 84.64 C 353.47 82.04 353.49 79.44 353.43 76.85 C 340.28 76.80 327.14 77.10 314.00 76.85 C 321.28 75.60 328.80 76.98 336.15 76.13 C 333.59 72.15 330.37 68.55 328.66 64.07 C 328.97 62.22 330.75 62.46 332.17 62.30 C 332.35 61.66 332.54 61.02 332.74 60.39 C 333.53 60.58 334.37 60.53 335.17 60.72 C 335.46 60.12 335.74 59.51 336.02 58.89 C 339.71 58.20 342.84 55.95 344.71 52.67 C 347.26 48.56 350.04 44.60 353.09 40.85 Z" />
</g>
<g id="#e88b24ff">
<path fill="#e88b24" opacity="1.00" d=" M 325.97 54.03 C 333.94 47.82 343.09 42.76 353.09 40.85 C 350.04 44.60 347.26 48.56 344.71 52.67 C 342.84 55.95 339.71 58.20 336.02 58.89 C 335.74 59.51 335.46 60.12 335.17 60.72 C 334.37 60.53 333.53 60.58 332.74 60.39 C 332.54 61.02 332.35 61.66 332.17 62.30 C 330.75 62.46 328.97 62.22 328.66 64.07 C 327.44 61.11 326.66 58.00 325.99 54.88 L 325.97 54.03 Z" />
</g>
<g id="#f7b52bff">
<path fill="#f7b52b" opacity="1.00" d=" M 381.24 57.88 C 383.53 53.18 385.23 47.78 389.01 44.08 C 391.01 44.58 392.93 45.34 394.87 46.02 L 395.12 46.58 C 395.61 54.43 394.21 62.36 390.21 69.19 C 389.96 69.35 389.44 69.68 389.19 69.84 C 384.90 71.27 381.73 74.65 378.08 77.14 C 378.15 70.58 379.91 64.26 381.24 57.88 Z" />
</g>
<g id="#f29707ff">
<path fill="#f29707" opacity="1.00" d=" M 395.12 46.58 C 402.53 50.01 408.70 55.62 414.02 61.72 C 405.67 62.61 397.63 65.30 390.21 69.19 C 394.21 62.36 395.61 54.43 395.12 46.58 Z" />
</g>
<g id="#e57c13ff">
<path fill="#e57c13" opacity="1.00" d=" M 310.60 74.56 C 314.47 67.15 319.52 60.23 325.99 54.88 C 326.66 58.00 327.44 61.11 328.66 64.07 C 330.37 68.55 333.59 72.15 336.15 76.13 C 328.80 76.98 321.28 75.60 314.00 76.85 C 312.86 78.35 313.14 80.30 313.03 82.06 C 313.02 86.99 313.06 91.91 312.94 96.83 C 310.96 94.18 308.27 92.25 305.33 90.80 C 305.49 88.67 305.29 86.36 306.10 84.37 C 308.35 81.47 308.81 77.70 310.60 74.56 Z" />
</g>
<g id="#eda931ff">
<path fill="#eda931" opacity="1.00" d=" M 372.23 68.36 C 374.21 64.10 378.09 61.24 381.24 57.88 C 379.91 64.26 378.15 70.58 378.08 77.14 C 376.25 79.05 374.56 81.09 372.83 83.08 C 372.02 83.49 371.23 83.93 370.46 84.39 C 370.28 85.03 369.94 86.31 369.76 86.94 L 369.05 87.23 C 368.92 83.79 369.33 80.34 369.06 76.90 C 366.23 76.83 363.41 76.91 360.59 76.85 L 360.64 76.21 C 363.39 75.77 366.18 75.74 368.96 75.72 C 368.03 75.32 367.12 74.90 366.22 74.48 C 367.73 71.98 370.42 70.58 372.23 68.36 Z" />
</g>
<g id="#fab603ff">
<path fill="#fab603" opacity="1.00" d=" M 390.21 69.19 C 397.63 65.30 405.67 62.61 414.02 61.72 C 417.57 66.37 420.94 71.36 422.67 77.01 C 422.48 77.27 422.11 77.80 421.92 78.06 C 421.86 92.78 421.96 107.49 421.88 122.20 C 420.31 116.93 421.77 111.27 420.70 105.89 C 418.64 108.83 421.25 113.14 418.71 115.77 C 417.65 115.52 416.61 115.22 415.59 114.87 C 406.61 114.31 397.44 115.13 388.52 114.46 C 388.63 102.08 388.53 89.69 388.56 77.31 L 388.17 76.90 C 387.13 76.56 386.09 76.23 385.06 75.91 C 386.53 73.95 388.01 72.00 389.19 69.84 C 389.44 69.68 389.96 69.35 390.21 69.19 Z" />
</g>
<g id="#f07e08ff">
<path fill="#f07e08" opacity="1.00" d=" M 414.02 61.72 C 422.84 61.07 431.72 61.88 440.13 64.71 C 438.11 69.12 439.40 74.76 435.55 78.33 C 435.34 78.05 434.93 77.49 434.72 77.21 C 430.70 77.04 426.66 77.43 422.67 77.01 C 420.94 71.36 417.57 66.37 414.02 61.72 Z" />
</g>
<g id="#a7361bff">
<path fill="#a7361b" opacity="1.00" d=" M 493.49 62.70 C 498.32 74.10 500.22 86.65 499.90 99.00 C 500.09 108.51 498.51 118.01 495.58 127.04 C 495.20 124.67 494.53 122.27 492.99 120.38 C 492.02 120.98 491.05 121.59 490.10 122.22 C 490.16 113.96 490.07 105.69 490.11 97.43 C 492.48 93.37 493.12 88.61 493.80 84.03 C 494.35 78.11 494.61 71.96 492.82 66.21 C 492.99 65.33 493.32 63.58 493.49 62.70 Z" />
</g>
<g id="#ec6309ff">
<path fill="#ec6309" opacity="1.00" d=" M 440.13 64.71 C 442.38 65.33 444.53 66.23 446.65 67.20 C 447.86 67.74 449.05 68.33 450.25 68.91 C 451.50 71.97 449.69 74.96 449.50 78.03 C 448.99 83.17 448.26 88.31 446.98 93.32 C 446.07 93.10 445.13 92.96 444.21 92.92 C 441.27 88.09 438.40 83.21 435.55 78.33 C 439.40 74.76 438.11 69.12 440.13 64.71 Z" />
</g>
<g id="#e84408ff">
<path fill="#e84408" opacity="1.00" d=" M 450.25 68.91 C 452.60 70.11 454.88 71.45 457.08 72.93 C 463.03 76.73 467.40 82.26 472.00 87.48 C 466.86 95.87 461.66 104.22 456.56 112.63 L 455.93 112.77 C 452.09 106.11 448.13 99.53 444.21 92.92 C 445.13 92.96 446.07 93.10 446.98 93.32 C 448.26 88.31 448.99 83.17 449.50 78.03 C 449.69 74.96 451.50 71.97 450.25 68.91 Z" />
</g>
<g id="#fac52bff">
<path fill="#fac52b" opacity="1.00" d=" M 378.08 77.14 C 381.73 74.65 384.90 71.27 389.19 69.84 C 388.01 72.00 386.53 73.95 385.06 75.91 C 386.09 76.23 387.13 76.56 388.17 76.90 C 385.39 77.13 382.62 76.77 379.85 76.87 C 380.12 83.24 380.11 89.62 379.95 95.99 C 379.89 104.76 380.29 113.53 379.89 122.29 C 379.53 121.24 379.33 120.17 379.30 119.07 C 379.21 110.70 379.36 102.33 379.24 93.97 C 379.27 89.38 379.55 84.78 379.10 80.21 C 377.09 81.33 375.04 82.41 372.83 83.08 C 374.56 81.09 376.25 79.05 378.08 77.14 Z" />
</g>
<g id="#000000ff">
<path fill="#000000" opacity="1.00" d=" M 159.99 77.17 C 171.66 74.20 184.75 75.70 195.10 82.02 C 193.72 84.36 192.21 86.69 190.34 88.66 C 185.20 85.24 178.92 84.42 172.94 83.67 C 168.29 83.34 163.25 83.66 159.19 86.16 C 156.79 87.65 155.39 92.00 158.73 93.25 C 169.04 96.64 180.92 93.85 190.52 99.68 C 195.73 103.02 195.59 110.53 192.17 115.11 C 187.42 121.71 178.75 124.03 170.98 123.87 C 161.87 124.04 151.89 122.39 145.00 115.98 C 146.16 113.48 148.68 111.05 150.82 109.42 C 158.25 115.81 168.79 117.03 178.12 115.20 C 181.59 114.46 185.99 112.10 185.34 107.90 C 184.31 104.92 180.82 104.28 178.11 103.80 C 170.23 102.66 162.02 103.14 154.41 100.51 C 150.38 99.17 146.84 95.53 147.13 91.03 C 146.65 83.74 153.63 78.75 159.99 77.17 Z" />
<path fill="#000000" opacity="1.00" d=" M 0.14 76.71 C 3.49 76.76 6.85 76.78 10.20 76.70 C 16.77 88.90 22.94 101.44 29.07 113.90 L 29.75 113.76 C 36.48 102.15 43.34 90.61 50.05 78.99 C 50.70 77.96 51.29 76.12 52.93 76.73 C 55.34 76.78 57.75 76.73 60.16 76.74 C 51.23 92.01 42.30 107.29 33.24 122.48 C 30.39 122.47 27.53 122.39 24.68 122.53 C 16.21 107.43 8.36 91.96 0.14 76.71 Z" />
<path fill="#000000" opacity="1.00" d=" M 65.64 76.74 C 68.52 76.75 71.40 76.74 74.28 76.75 C 74.30 91.99 74.29 107.22 74.29 122.45 C 71.40 122.46 68.52 122.45 65.63 122.47 C 65.61 107.22 65.60 91.98 65.64 76.74 Z" />
<path fill="#000000" opacity="1.00" d=" M 82.20 122.42 C 91.61 107.30 100.31 91.72 109.85 76.71 C 113.27 76.79 116.69 76.71 120.11 76.76 C 128.02 91.99 135.94 107.22 143.81 122.48 C 140.47 122.45 137.14 122.44 133.81 122.48 C 131.75 118.58 129.79 114.62 127.93 110.63 C 118.55 110.43 109.16 110.69 99.77 110.50 C 97.20 114.15 95.24 118.25 92.99 122.13 C 89.56 122.89 85.77 122.26 82.20 122.42 M 103.98 102.79 C 110.63 102.64 117.37 103.07 123.96 102.56 C 120.83 96.53 117.75 90.46 114.89 84.30 L 114.25 84.34 C 110.94 90.55 107.21 96.54 103.98 102.79 Z" />
<path fill="#000000" opacity="1.00" d=" M 222.23 77.13 L 222.81 76.71 C 226.20 76.89 229.63 76.54 233.01 76.89 C 240.96 92.05 248.65 107.36 256.75 122.45 C 253.40 122.50 250.05 122.39 246.71 122.51 C 244.55 118.67 242.71 114.64 240.76 110.68 C 231.26 110.49 221.66 110.45 212.17 110.70 C 210.16 114.64 207.77 118.36 205.77 122.29 C 202.26 122.70 198.68 122.30 195.15 122.49 C 204.09 107.33 213.18 92.24 222.23 77.13 M 216.82 102.80 C 223.49 102.77 230.16 102.75 236.83 102.82 C 233.55 96.65 230.90 89.93 227.15 84.14 C 223.86 90.45 220.04 96.47 216.82 102.80 Z" />
<path fill="#000000" opacity="1.00" d=" M 252.33 77.26 L 252.89 76.90 C 267.98 76.90 283.07 76.88 298.17 76.91 C 298.15 79.51 298.32 82.13 298.09 84.72 C 291.81 84.82 285.49 84.52 279.25 84.86 C 279.28 97.39 279.25 109.92 279.26 122.44 C 276.40 122.47 273.54 122.45 270.69 122.46 C 270.64 110.02 270.70 97.58 270.66 85.13 L 270.30 84.66 C 264.32 84.79 258.34 84.68 252.36 84.73 C 252.31 82.24 252.35 79.75 252.33 77.26 Z" />
</g>
<g id="#ef8912ff">
<path fill="#ef8912" opacity="1.00" d=" M 313.03 82.06 C 313.14 80.30 312.86 78.35 314.00 76.85 C 314.24 92.00 314.02 107.16 314.10 122.31 C 316.84 122.38 319.58 122.30 322.32 122.39 C 323.12 116.47 322.34 110.18 322.68 104.13 C 328.24 104.22 333.79 104.10 339.35 104.19 C 329.19 112.90 323.50 126.45 324.32 139.79 C 324.16 141.20 323.95 142.59 323.69 143.99 C 320.45 140.97 317.86 137.34 315.19 133.83 C 312.56 130.38 311.81 125.74 308.49 122.82 C 305.39 112.56 304.71 101.53 305.33 90.80 C 308.27 92.25 310.96 94.18 312.94 96.83 C 313.06 91.91 313.02 86.99 313.03 82.06 Z" />
</g>
<g id="#ffffffff">
<path fill="#ffffff" opacity="1.00" d=" M 314.00 76.85 C 327.14 77.10 340.28 76.80 353.43 76.85 C 353.49 79.44 353.47 82.04 353.46 84.64 C 343.19 84.43 332.92 84.60 322.65 84.56 C 322.62 88.53 322.63 92.50 322.65 96.47 C 332.36 96.45 342.08 96.57 351.80 96.42 C 351.82 98.98 351.85 101.55 351.78 104.12 C 347.63 104.20 343.49 104.21 339.35 104.19 C 333.79 104.10 328.24 104.22 322.68 104.13 C 322.34 110.18 323.12 116.47 322.32 122.39 C 319.58 122.30 316.84 122.38 314.10 122.31 C 314.02 107.16 314.24 92.00 314.00 76.85 Z" />
<path fill="#ffffff" opacity="1.00" d=" M 360.59 76.85 C 363.41 76.91 366.23 76.83 369.06 76.90 C 369.33 80.34 368.92 83.79 369.05 87.23 C 369.30 98.92 369.11 110.62 369.12 122.32 C 366.29 122.39 363.45 122.34 360.62 122.39 C 360.44 116.77 360.59 111.15 360.54 105.53 C 360.58 101.65 360.50 97.76 360.53 93.88 C 360.60 91.00 360.59 88.12 360.55 85.25 C 360.55 82.45 360.50 79.65 360.59 76.85 Z" />
<path fill="#ffffff" opacity="1.00" d=" M 379.85 76.87 C 382.62 76.77 385.39 77.13 388.17 76.90 L 388.56 77.31 C 388.53 89.69 388.63 102.08 388.52 114.46 C 397.44 115.13 406.61 114.31 415.59 114.87 C 415.44 117.37 415.84 119.92 415.39 122.38 C 403.56 122.22 391.72 122.46 379.89 122.29 C 380.29 113.53 379.89 104.76 379.95 95.99 C 380.11 89.62 380.12 83.24 379.85 76.87 Z" />
<path fill="#ffffff" opacity="1.00" d=" M 421.92 78.06 C 422.11 77.80 422.48 77.27 422.67 77.01 C 426.66 77.43 430.70 77.04 434.72 77.21 C 434.93 77.49 435.34 78.05 435.55 78.33 C 438.40 83.21 441.27 88.09 444.21 92.92 C 448.13 99.53 452.09 106.11 455.93 112.77 L 456.56 112.63 C 461.66 104.22 466.86 95.87 472.00 87.48 C 474.06 84.07 476.22 80.71 478.20 77.25 C 482.15 77.14 486.11 77.15 490.07 77.25 C 490.13 83.98 490.08 90.70 490.11 97.43 C 490.07 105.69 490.16 113.96 490.10 122.22 C 487.24 122.48 484.36 122.29 481.50 122.29 C 481.55 110.44 481.47 98.59 481.54 86.73 C 473.76 98.32 466.93 110.67 459.28 122.39 C 456.74 122.34 454.20 122.40 451.66 122.34 C 449.31 117.82 446.44 113.59 443.93 109.16 C 439.39 101.77 435.16 94.15 430.45 86.88 C 430.39 98.70 430.47 110.52 430.41 122.34 C 428.05 122.38 425.69 122.33 423.34 122.40 C 422.97 122.35 422.25 122.25 421.88 122.20 C 421.96 107.49 421.86 92.78 421.92 78.06 Z" />
</g>
<g id="#f5ad07ff">
<path fill="#f5ad07" opacity="1.00" d=" M 372.83 83.08 C 375.04 82.41 377.09 81.33 379.10 80.21 C 379.55 84.78 379.27 89.38 379.24 93.97 C 376.33 92.85 373.27 92.19 370.15 92.37 C 369.96 90.56 369.85 88.75 369.76 86.94 C 369.94 86.31 370.28 85.03 370.46 84.39 C 371.23 83.93 372.02 83.49 372.83 83.08 Z" />
</g>
<g id="#e88311ff">
<path fill="#e88311" opacity="1.00" d=" M 322.65 84.56 C 332.92 84.60 343.19 84.43 353.46 84.64 C 355.75 85.36 358.16 85.65 360.55 85.25 C 360.59 88.12 360.60 91.00 360.53 93.88 L 359.21 94.09 C 356.59 94.34 354.13 95.28 351.80 96.42 C 342.08 96.57 332.36 96.45 322.65 96.47 C 322.63 92.50 322.62 88.53 322.65 84.56 Z" />
</g>
<g id="#fab507ff">
<path fill="#fab507" opacity="1.00" d=" M 369.05 87.23 L 369.76 86.94 C 369.85 88.75 369.96 90.56 370.15 92.37 C 373.27 92.19 376.33 92.85 379.24 93.97 C 379.36 102.33 379.21 110.70 379.30 119.07 C 379.33 120.17 379.53 121.24 379.89 122.29 C 381.19 123.06 383.14 123.34 383.84 124.82 C 382.42 128.36 381.98 132.43 379.32 135.34 C 376.33 138.70 376.28 143.43 374.20 147.25 C 371.77 151.60 371.65 157.28 367.18 160.29 C 362.24 152.96 359.04 144.54 357.46 135.87 C 356.36 129.10 356.76 122.19 357.57 115.41 C 358.21 112.04 358.48 108.41 360.54 105.53 C 360.59 111.15 360.44 116.77 360.62 122.39 C 363.45 122.34 366.29 122.39 369.12 122.32 C 369.11 110.62 369.30 98.92 369.05 87.23 Z" />
</g>
<g id="#ee6809ff">
<path fill="#ee6809" opacity="1.00" d=" M 430.45 86.88 C 435.16 94.15 439.39 101.77 443.93 109.16 C 442.14 113.38 441.81 118.09 442.41 122.60 C 440.66 126.46 441.33 130.54 441.68 134.59 C 438.80 134.81 435.92 135.00 433.03 135.06 C 428.28 134.20 423.47 133.55 418.88 131.99 C 420.89 129.07 422.40 125.82 423.34 122.40 C 425.69 122.33 428.05 122.38 430.41 122.34 C 430.47 110.52 430.39 98.70 430.45 86.88 Z" />
</g>
<g id="#e33309ff">
<path fill="#e33309" opacity="1.00" d=" M 459.28 122.39 C 466.93 110.67 473.76 98.32 481.54 86.73 C 481.47 98.59 481.55 110.44 481.50 122.29 C 481.25 122.11 480.77 121.76 480.52 121.59 C 480.27 119.69 480.22 117.77 480.05 115.87 C 475.00 120.27 469.75 124.42 464.06 127.98 C 461.18 129.24 458.29 130.49 455.31 131.50 C 454.80 130.79 454.01 130.45 453.22 130.18 C 453.61 128.49 454.07 126.81 454.31 125.09 C 453.43 124.56 452.57 124.02 451.71 123.49 C 451.70 123.20 451.67 122.62 451.66 122.34 C 454.20 122.40 456.74 122.34 459.28 122.39 Z" />
</g>
<g id="#f3aa43ff">
<path fill="#f3aa43" opacity="1.00" d=" M 351.80 96.42 C 354.13 95.28 356.59 94.34 359.21 94.09 C 358.65 97.97 359.98 102.76 356.82 105.76 C 354.89 107.91 353.37 110.36 351.85 112.80 C 349.85 116.09 346.55 118.37 344.81 121.83 C 343.59 124.28 340.77 125.96 341.07 129.00 C 341.16 131.99 339.78 134.65 337.70 136.71 C 334.39 140.07 331.29 143.63 328.38 147.35 C 328.98 149.05 330.62 149.96 332.09 150.82 C 330.61 152.52 329.23 154.30 328.01 156.19 C 325.80 150.97 324.71 145.43 324.32 139.79 C 323.50 126.45 329.19 112.90 339.35 104.19 C 343.49 104.21 347.63 104.20 351.78 104.12 C 351.85 101.55 351.82 98.98 351.80 96.42 Z" />
</g>
<g id="#f4a229ff">
<path fill="#f4a229" opacity="1.00" d=" M 359.21 94.09 L 360.53 93.88 C 360.50 97.76 360.58 101.65 360.54 105.53 C 358.48 108.41 358.21 112.04 357.57 115.41 C 356.76 122.19 356.36 129.10 357.46 135.87 C 355.35 138.03 353.28 140.30 351.86 142.99 C 350.33 145.26 352.72 148.52 350.47 150.50 C 348.26 152.40 346.42 154.67 345.88 157.61 C 344.32 157.00 342.71 156.50 341.14 155.94 C 337.87 154.69 335.32 152.15 332.09 150.82 C 330.62 149.96 328.98 149.05 328.38 147.35 C 331.29 143.63 334.39 140.07 337.70 136.71 C 339.78 134.65 341.16 131.99 341.07 129.00 C 340.77 125.96 343.59 124.28 344.81 121.83 C 346.55 118.37 349.85 116.09 351.85 112.80 C 353.37 110.36 354.89 107.91 356.82 105.76 C 359.98 102.76 358.65 97.97 359.21 94.09 Z" />
</g>
<g id="#f9a607ff">
<path fill="#f9a607" opacity="1.00" d=" M 418.71 115.77 C 421.25 113.14 418.64 108.83 420.70 105.89 C 421.77 111.27 420.31 116.93 421.88 122.20 C 422.25 122.25 422.97 122.35 423.34 122.40 C 422.40 125.82 420.89 129.07 418.88 131.99 C 417.83 133.38 416.77 134.76 415.80 136.20 C 415.45 134.32 415.15 132.41 414.34 130.66 C 410.65 128.63 406.81 126.85 402.96 125.15 C 401.25 126.51 400.72 128.83 399.63 130.66 C 397.99 134.46 394.58 137.19 393.24 141.15 C 391.81 144.83 389.86 148.29 387.45 151.42 C 385.94 153.19 386.00 155.63 385.23 157.73 C 381.90 159.73 378.05 160.52 374.38 161.64 C 373.33 161.84 372.54 162.67 372.38 163.71 C 373.89 165.49 375.89 166.74 377.67 168.23 C 377.58 169.47 376.72 170.43 376.15 171.48 C 372.86 168.16 370.31 164.21 367.04 160.88 L 367.18 160.29 C 371.65 157.28 371.77 151.60 374.20 147.25 C 376.28 143.43 376.33 138.70 379.32 135.34 C 381.98 132.43 382.42 128.36 383.84 124.82 C 383.14 123.34 381.19 123.06 379.89 122.29 C 391.72 122.46 403.56 122.22 415.39 122.38 C 415.84 119.92 415.44 117.37 415.59 114.87 C 416.61 115.22 417.65 115.52 418.71 115.77 Z" />
</g>
<g id="#eb510aff">
<path fill="#eb510a" opacity="1.00" d=" M 442.41 122.60 C 441.81 118.09 442.14 113.38 443.93 109.16 C 446.44 113.59 449.31 117.82 451.66 122.34 C 451.67 122.62 451.70 123.20 451.71 123.49 C 452.57 124.02 453.43 124.56 454.31 125.09 C 454.07 126.81 453.61 128.49 453.22 130.18 C 454.01 130.45 454.80 130.79 455.31 131.50 C 452.86 132.40 450.39 133.23 447.88 133.92 C 445.82 134.21 443.75 134.42 441.68 134.59 C 441.33 130.54 440.66 126.46 442.41 122.60 Z" />
</g>
<g id="#cc4011ff">
<path fill="#cc4011" opacity="1.00" d=" M 464.06 127.98 C 469.75 124.42 475.00 120.27 480.05 115.87 C 480.22 117.77 480.27 119.69 480.52 121.59 C 480.77 121.76 481.25 122.11 481.50 122.29 C 482.46 122.64 483.43 123.00 484.40 123.37 C 484.44 130.06 483.56 136.73 482.28 143.29 C 479.75 148.99 477.55 154.88 474.00 160.05 C 470.21 156.81 467.11 151.78 468.21 146.66 C 467.68 142.13 464.68 138.01 465.40 133.34 C 465.86 131.40 464.81 129.67 464.06 127.98 Z" />
</g>
<g id="#b0471cff">
<path fill="#b0471c" opacity="1.00" d=" M 490.10 122.22 C 491.05 121.59 492.02 120.98 492.99 120.38 C 494.53 122.27 495.20 124.67 495.58 127.04 C 493.84 132.50 491.70 137.87 488.93 142.90 C 487.96 142.29 486.98 141.72 485.99 141.18 C 484.69 141.78 483.47 142.52 482.28 143.29 C 483.56 136.73 484.44 130.06 484.40 123.37 C 483.43 123.00 482.46 122.64 481.50 122.29 C 484.36 122.29 487.24 122.48 490.10 122.22 Z" />
</g>
<g id="#eca21cff">
<path fill="#eca21c" opacity="1.00" d=" M 308.49 122.82 C 311.81 125.74 312.56 130.38 315.19 133.83 C 317.86 137.34 320.45 140.97 323.69 143.99 C 323.95 142.59 324.16 141.20 324.32 139.79 C 324.71 145.43 325.80 150.97 328.01 156.19 C 328.89 158.70 330.34 160.99 330.86 163.62 C 320.21 152.15 312.28 138.02 308.49 122.82 Z" />
</g>
<g id="#f69507ff">
<path fill="#f69507" opacity="1.00" d=" M 399.63 130.66 C 400.72 128.83 401.25 126.51 402.96 125.15 C 406.81 126.85 410.65 128.63 414.34 130.66 C 415.15 132.41 415.45 134.32 415.80 136.20 C 415.54 136.57 415.01 137.31 414.75 137.69 C 412.54 139.85 410.78 142.42 408.62 144.63 C 404.40 148.46 399.72 151.73 395.00 154.90 C 392.74 160.43 391.69 166.38 389.22 171.83 C 391.32 173.01 393.51 174.00 395.64 175.12 C 393.08 177.18 390.08 178.53 386.93 179.44 C 383.14 177.07 379.33 174.64 376.15 171.48 C 376.72 170.43 377.58 169.47 377.67 168.23 C 375.89 166.74 373.89 165.49 372.38 163.71 C 372.54 162.67 373.33 161.84 374.38 161.64 C 378.05 160.52 381.90 159.73 385.23 157.73 C 386.00 155.63 385.94 153.19 387.45 151.42 C 389.86 148.29 391.81 144.83 393.24 141.15 C 394.58 137.19 397.99 134.46 399.63 130.66 Z" />
</g>
<g id="#d34e11ff">
<path fill="#d34e11" opacity="1.00" d=" M 455.31 131.50 C 458.29 130.49 461.18 129.24 464.06 127.98 C 464.81 129.67 465.86 131.40 465.40 133.34 C 464.68 138.01 467.68 142.13 468.21 146.66 C 467.11 151.78 470.21 156.81 474.00 160.05 C 472.43 162.95 469.42 165.20 469.22 168.70 L 469.24 168.85 C 465.91 171.79 462.57 174.74 458.86 177.19 C 458.49 173.99 458.83 170.64 457.62 167.60 C 456.58 167.19 455.55 166.78 454.53 166.37 C 453.45 163.79 451.76 161.24 451.52 158.44 C 452.75 153.27 450.56 148.26 449.56 143.26 C 448.98 140.15 448.58 137.01 447.88 133.92 C 450.39 133.23 452.86 132.40 455.31 131.50 Z" />
</g>
<g id="#e17011ff">
<path fill="#e17011" opacity="1.00" d=" M 415.80 136.20 C 416.77 134.76 417.83 133.38 418.88 131.99 C 423.47 133.55 428.28 134.20 433.03 135.06 C 432.83 138.25 432.04 141.62 433.37 144.68 C 435.03 148.51 434.66 152.81 436.13 156.68 C 438.54 161.69 436.54 167.57 439.31 172.52 C 440.73 172.84 442.14 173.20 443.57 173.52 C 444.59 176.45 444.36 179.65 445.39 182.58 C 446.12 182.87 447.60 183.43 448.34 183.72 C 446.08 184.94 443.77 186.14 441.34 186.96 C 435.83 186.83 430.59 189.05 425.07 188.91 C 425.55 187.35 425.66 185.73 424.63 184.37 C 423.22 182.31 423.79 179.65 422.67 177.52 C 420.64 176.57 417.49 176.82 416.84 174.15 C 416.40 170.82 415.34 167.57 415.43 164.18 C 415.58 161.68 413.86 159.43 414.37 156.93 C 414.65 155.04 415.01 152.95 413.26 151.64 C 414.30 147.05 415.42 142.42 414.75 137.69 C 415.01 137.31 415.54 136.57 415.80 136.20 Z" />
</g>
<g id="#da5d11ff">
<path fill="#da5d11" opacity="1.00" d=" M 441.68 134.59 C 443.75 134.42 445.82 134.21 447.88 133.92 C 448.58 137.01 448.98 140.15 449.56 143.26 C 450.56 148.26 452.75 153.27 451.52 158.44 C 451.76 161.24 453.45 163.79 454.53 166.37 C 455.55 166.78 456.58 167.19 457.62 167.60 C 458.83 170.64 458.49 173.99 458.86 177.19 C 455.55 179.65 451.99 181.80 448.34 183.72 C 447.60 183.43 446.12 182.87 445.39 182.58 C 444.36 179.65 444.59 176.45 443.57 173.52 C 442.14 173.20 440.73 172.84 439.31 172.52 C 436.54 167.57 438.54 161.69 436.13 156.68 C 434.66 152.81 435.03 148.51 433.37 144.68 C 432.04 141.62 432.83 138.25 433.03 135.06 C 435.92 135.00 438.80 134.81 441.68 134.59 Z" />
</g>
<g id="#f6881fff">
<path fill="#f6881f" opacity="1.00" d=" M 22.43 177.81 C 22.49 163.42 22.35 149.02 22.50 134.62 C 35.05 134.70 47.60 134.59 60.16 134.68 C 60.16 137.15 60.18 139.62 60.13 142.09 C 50.30 142.10 40.47 142.17 30.65 142.05 C 30.55 145.82 30.61 149.59 30.61 153.36 C 39.92 153.39 49.23 153.28 58.54 153.41 C 58.51 155.79 58.51 158.18 58.54 160.56 C 49.24 160.72 39.92 160.59 30.61 160.62 C 30.58 166.36 30.61 172.11 30.60 177.85 C 27.89 177.90 25.13 177.98 22.43 177.81 Z" />
<path fill="#f6881f" opacity="1.00" d=" M 83.21 134.66 C 86.50 134.64 89.79 134.64 93.08 134.66 C 100.50 149.10 108.04 163.48 115.48 177.92 C 112.30 177.87 109.12 177.88 105.94 177.90 C 104.02 174.19 102.31 170.38 100.32 166.71 C 91.45 166.74 82.57 166.77 73.70 166.69 C 71.24 170.28 69.57 174.46 67.00 177.93 C 63.79 177.85 60.57 177.86 57.36 177.95 C 65.87 163.46 74.56 149.07 83.21 134.66 M 77.71 159.38 C 84.07 159.33 90.44 159.37 96.80 159.36 C 93.83 153.46 90.72 147.60 88.05 141.56 C 84.25 147.19 81.19 153.47 77.71 159.38 Z" />
<path fill="#f6881f" opacity="1.00" d=" M 118.27 135.14 C 122.04 134.40 126.30 135.10 130.26 134.80 C 137.25 145.98 143.93 157.40 150.55 168.81 C 150.74 168.78 151.12 168.73 151.31 168.70 C 158.10 157.35 165.13 146.15 172.02 134.87 C 175.72 134.82 179.41 134.82 183.11 134.87 C 183.14 149.19 183.12 163.51 183.11 177.83 C 180.38 177.91 177.64 177.97 174.91 177.79 C 174.82 166.45 175.09 155.10 174.76 143.77 C 168.25 155.35 160.91 166.50 154.04 177.89 C 151.53 177.65 148.79 178.35 146.42 177.58 C 140.07 166.84 133.52 156.20 127.29 145.39 C 127.04 145.25 126.55 144.97 126.31 144.83 C 126.44 155.86 126.39 166.90 126.34 177.93 C 123.66 177.85 120.98 177.90 118.30 177.91 C 118.22 163.66 118.29 149.40 118.27 135.14 Z" />
<path fill="#f6881f" opacity="1.00" d=" M 193.55 134.64 C 196.21 134.63 198.87 134.68 201.54 134.61 C 201.81 148.97 201.54 163.38 201.67 177.75 C 199.02 178.14 196.27 177.71 193.58 177.95 C 193.48 163.52 193.55 149.08 193.55 134.64 Z" />
<path fill="#f6881f" opacity="1.00" d=" M 211.90 134.69 C 214.67 134.61 217.44 134.65 220.21 134.66 C 220.24 146.66 220.17 158.66 220.24 170.66 C 228.78 170.65 237.32 170.63 245.86 170.67 C 245.88 173.07 245.89 175.48 245.85 177.89 C 234.53 177.83 223.21 177.98 211.89 177.82 C 211.89 163.44 211.88 149.06 211.90 134.69 Z" />
<path fill="#f6881f" opacity="1.00" d=" M 233.11 134.73 C 236.70 134.58 240.29 134.63 243.88 134.69 C 249.12 141.91 254.42 149.08 259.48 156.41 C 265.82 149.40 271.58 141.82 277.74 134.62 C 280.74 134.63 283.74 134.74 286.73 134.56 L 286.94 135.09 C 279.09 144.85 271.20 154.57 263.49 164.43 C 263.45 168.93 263.55 173.44 263.45 177.94 C 260.69 177.84 257.94 177.91 255.18 177.90 C 255.12 173.55 255.17 169.19 255.17 164.84 C 247.97 154.72 240.79 144.49 233.11 134.73 Z" />
</g>
<g id="#f49a11ff">
<path fill="#f49a11" opacity="1.00" d=" M 351.86 142.99 C 353.28 140.30 355.35 138.03 357.46 135.87 C 359.04 144.54 362.24 152.96 367.18 160.29 L 367.04 160.88 C 361.66 161.29 356.16 161.30 351.01 159.50 C 349.26 158.96 347.57 158.28 345.88 157.61 C 346.42 154.67 348.26 152.40 350.47 150.50 C 352.72 148.52 350.33 145.26 351.86 142.99 Z" />
</g>
<g id="#ef7a0cff">
<path fill="#ef7a0c" opacity="1.00" d=" M 408.62 144.63 C 410.78 142.42 412.54 139.85 414.75 137.69 C 415.42 142.42 414.30 147.05 413.26 151.64 C 410.47 160.46 404.58 168.15 397.52 174.01 C 396.89 174.37 396.26 174.74 395.64 175.12 C 393.51 174.00 391.32 173.01 389.22 171.83 C 391.69 166.38 392.74 160.43 395.00 154.90 C 399.72 151.73 404.40 148.46 408.62 144.63 Z" />
</g>
<g id="#b05621ff">
<path fill="#b05621" opacity="1.00" d=" M 482.28 143.29 C 483.47 142.52 484.69 141.78 485.99 141.18 C 486.98 141.72 487.96 142.29 488.93 142.90 C 483.92 152.53 477.29 161.41 469.22 168.70 C 469.42 165.20 472.43 162.95 474.00 160.05 C 477.55 154.88 479.75 148.99 482.28 143.29 Z" />
</g>
<g id="#f2b02bff">
<path fill="#f2b02b" opacity="1.00" d=" M 332.09 150.82 C 335.32 152.15 337.87 154.69 341.14 155.94 C 341.90 160.60 337.97 164.69 334.98 167.85 C 333.57 166.48 332.11 165.14 330.86 163.62 C 330.34 160.99 328.89 158.70 328.01 156.19 C 329.23 154.30 330.61 152.52 332.09 150.82 Z" />
</g>
<g id="#e88412ff">
<path fill="#e88412" opacity="1.00" d=" M 413.26 151.64 C 415.01 152.95 414.65 155.04 414.37 156.93 C 413.86 159.43 415.58 161.68 415.43 164.18 C 415.34 167.57 416.40 170.82 416.84 174.15 C 417.49 176.82 420.64 176.57 422.67 177.52 C 423.79 179.65 423.22 182.31 424.63 184.37 C 425.66 185.73 425.55 187.35 425.07 188.91 C 418.75 189.36 412.41 189.00 406.17 187.98 L 405.93 187.62 C 407.10 184.03 405.37 180.15 404.32 176.71 C 402.07 175.75 399.77 174.94 397.52 174.01 C 404.58 168.15 410.47 160.46 413.26 151.64 Z" />
</g>
<g id="#f1a71bff">
<path fill="#f1a71b" opacity="1.00" d=" M 341.14 155.94 C 342.71 156.50 344.32 157.00 345.88 157.61 C 347.57 158.28 349.26 158.96 351.01 159.50 C 350.15 160.75 350.69 162.10 351.17 163.37 C 352.65 168.96 354.54 174.40 355.94 180.01 C 355.77 180.72 355.44 182.12 355.27 182.83 C 347.90 178.75 341.01 173.73 334.98 167.85 C 337.97 164.69 341.90 160.60 341.14 155.94 Z" />
</g>
<g id="#ec971aff">
<path fill="#ec971a" opacity="1.00" d=" M 351.17 163.37 C 350.69 162.10 350.15 160.75 351.01 159.50 C 356.16 161.30 361.66 161.29 367.04 160.88 C 370.31 164.21 372.86 168.16 376.15 171.48 C 379.33 174.64 383.14 177.07 386.93 179.44 L 387.11 180.08 C 384.14 181.39 379.85 181.10 378.15 184.27 C 380.29 188.01 384.66 189.82 386.61 193.67 C 375.61 192.16 364.96 188.21 355.27 182.83 C 355.44 182.12 355.77 180.72 355.94 180.01 C 354.54 174.40 352.65 168.96 351.17 163.37 Z" />
</g>
<g id="#eb9712ff">
<path fill="#eb9712" opacity="1.00" d=" M 395.64 175.12 C 396.26 174.74 396.89 174.37 397.52 174.01 C 399.77 174.94 402.07 175.75 404.32 176.71 C 405.37 180.15 407.10 184.03 405.93 187.62 C 399.35 185.91 393.03 183.44 387.11 180.08 L 386.93 179.44 C 390.08 178.53 393.08 177.18 395.64 175.12 Z" />
</g>
<g id="#e2931fff">
<path fill="#e2931f" opacity="1.00" d=" M 378.15 184.27 C 379.85 181.10 384.14 181.39 387.11 180.08 C 393.03 183.44 399.35 185.91 405.93 187.62 L 406.17 187.98 C 407.65 190.43 409.83 192.34 411.42 194.71 C 403.20 195.08 394.93 195.09 386.77 193.97 L 386.61 193.67 C 384.66 189.82 380.29 188.01 378.15 184.27 Z" />
</g>
<g id="#d88920ff">
<path fill="#d88920" opacity="1.00" d=" M 425.07 188.91 C 430.59 189.05 435.83 186.83 441.34 186.96 C 431.96 191.33 421.70 193.70 411.42 194.71 C 409.83 192.34 407.65 190.43 406.17 187.98 C 412.41 189.00 418.75 189.36 425.07 188.91 Z" />
</g>
</svg>
