<?xml version="1.0" encoding="UTF-8" ?>
<!DOCTYPE svg PUBLIC "-//W3C//DTD SVG 1.1//EN" "http://www.w3.org/Graphics/SVG/1.1/DTD/svg11.dtd">
<svg width="200pt" height="100pt" viewBox="0 0 200 100" version="1.1" xmlns="http://www.w3.org/2000/svg">
<g id="#23535bff">
<path fill="#23535b" opacity="1.00" d=" M 61.38 2.35 C 63.60 0.73 66.46 1.16 69.03 1.11 C 87.40 1.18 105.77 0.95 124.13 1.11 C 119.55 2.23 115.80 5.19 111.97 7.78 C 103.90 13.43 94.97 17.89 87.39 24.23 C 91.32 24.61 95.27 24.22 99.21 24.45 C 95.37 24.68 91.53 24.88 87.73 25.49 C 83.22 25.56 78.71 25.43 74.21 25.60 C 70.04 26.28 66.33 29.53 65.22 33.64 C 64.08 33.64 62.78 33.06 61.80 33.95 C 58.40 36.05 55.11 38.37 51.37 39.85 C 52.96 30.19 54.85 20.58 56.55 10.93 C 56.75 7.55 58.28 4.01 61.38 2.35 Z" />
<path fill="#23535b" opacity="1.00" d=" M 140.81 28.26 C 145.64 24.93 151.18 22.48 155.28 18.20 C 151.19 40.79 147.06 63.37 143.01 85.96 C 142.36 88.36 142.51 91.00 141.16 93.18 C 139.54 96.01 136.34 97.91 133.05 97.82 C 105.01 97.82 76.97 97.85 48.94 97.89 C 47.05 97.98 45.10 97.39 43.74 96.05 C 50.14 92.08 56.52 88.09 62.74 83.86 C 67.05 80.90 71.92 78.68 75.55 74.83 C 71.56 74.45 67.50 74.60 63.63 73.44 C 68.96 73.53 74.29 73.54 79.62 73.41 C 85.57 72.53 89.31 66.78 89.52 61.06 L 89.76 59.52 C 94.43 59.59 99.10 59.53 103.77 59.52 C 109.03 59.54 113.83 55.05 114.45 49.88 C 114.61 48.07 115.14 46.33 115.54 44.57 C 107.82 44.54 100.08 44.33 92.37 44.61 C 92.65 44.27 93.23 43.59 93.52 43.24 C 105.74 43.27 117.96 43.26 130.18 43.21 C 133.14 42.65 135.94 41.11 137.75 38.66 C 140.09 35.74 140.10 31.79 140.81 28.26 Z" />
</g>
<g id="#397781ff">
<path fill="#397781" opacity="1.00" d=" M 124.13 1.11 C 133.13 1.08 142.13 1.03 151.13 1.06 C 153.86 1.00 156.67 3.08 156.94 5.89 C 157.18 10.07 155.75 14.09 155.28 18.20 C 151.18 22.48 145.64 24.93 140.81 28.26 C 140.92 27.59 141.14 26.26 141.25 25.59 C 123.41 25.42 105.56 25.67 87.73 25.49 C 91.53 24.88 95.37 24.68 99.21 24.45 C 95.27 24.22 91.32 24.61 87.39 24.23 C 94.97 17.89 103.90 13.43 111.97 7.78 C 115.80 5.19 119.55 2.23 124.13 1.11 Z" />
<path fill="#397781" opacity="1.00" d=" M 61.80 33.95 C 62.78 33.06 64.08 33.64 65.22 33.64 C 64.86 36.82 64.00 39.93 63.58 43.11 C 73.56 43.25 83.54 43.10 93.52 43.24 C 93.23 43.59 92.65 44.27 92.37 44.61 C 86.72 47.81 83.63 53.96 80.56 59.42 C 83.63 59.58 86.70 59.35 89.76 59.52 L 89.52 61.06 C 79.70 61.24 69.80 60.32 60.03 61.31 C 59.44 65.36 58.66 69.37 57.85 73.39 C 59.77 73.47 61.70 73.38 63.63 73.44 C 67.50 74.60 71.56 74.45 75.55 74.83 C 71.92 78.68 67.05 80.90 62.74 83.86 C 56.52 88.09 50.14 92.08 43.74 96.05 C 42.24 94.47 41.80 92.25 42.23 90.16 C 45.21 73.38 48.28 56.61 51.36 39.86 L 51.37 39.85 C 55.11 38.37 58.40 36.05 61.80 33.95 M 83.07 46.90 C 79.70 46.52 76.25 46.35 72.89 46.83 C 71.09 50.87 70.04 55.20 69.05 59.49 C 70.40 59.49 71.76 59.49 73.11 59.48 C 73.41 55.60 73.06 51.62 73.94 47.82 C 75.14 46.92 77.28 46.63 78.30 47.94 C 78.24 50.20 78.04 52.45 78.13 54.71 C 80.27 51.33 82.64 48.08 85.42 45.20 L 85.08 43.67 C 84.61 44.89 83.94 45.97 83.07 46.90 M 62.52 48.32 C 61.93 52.06 61.08 55.75 60.45 59.48 C 62.03 59.51 63.61 59.51 65.19 59.49 C 66.27 55.58 67.20 51.63 68.46 47.78 C 66.47 47.78 64.50 48.15 62.52 48.32 Z" />
</g>
<g id="#ffffffff">
<path fill="#ffffff" opacity="1.00" d=" M 65.22 33.64 C 66.33 29.53 70.04 26.28 74.21 25.60 C 78.71 25.43 83.22 25.56 87.73 25.49 C 105.56 25.67 123.41 25.42 141.25 25.59 C 141.14 26.26 140.92 27.59 140.81 28.26 C 140.10 31.79 140.09 35.74 137.75 38.66 C 135.94 41.11 133.14 42.65 130.18 43.21 C 117.96 43.26 105.74 43.27 93.52 43.24 C 83.54 43.10 73.56 43.25 63.58 43.11 C 64.00 39.93 64.86 36.82 65.22 33.64 Z" />
<path fill="#ffffff" opacity="1.00" d=" M 83.07 46.90 C 83.94 45.97 84.61 44.89 85.08 43.67 L 85.42 45.20 C 82.64 48.08 80.27 51.33 78.13 54.71 C 78.04 52.45 78.24 50.20 78.30 47.94 C 77.28 46.63 75.14 46.92 73.94 47.82 C 73.06 51.62 73.41 55.60 73.11 59.48 C 71.76 59.49 70.40 59.49 69.05 59.49 C 70.04 55.20 71.09 50.87 72.89 46.83 C 76.25 46.35 79.70 46.52 83.07 46.90 Z" />
<path fill="#ffffff" opacity="1.00" d=" M 80.56 59.42 C 83.63 53.96 86.72 47.81 92.37 44.61 C 100.08 44.33 107.82 44.54 115.54 44.57 C 115.14 46.33 114.61 48.07 114.45 49.88 C 113.83 55.05 109.03 59.54 103.77 59.52 C 99.10 59.53 94.43 59.59 89.76 59.52 C 86.70 59.35 83.63 59.58 80.56 59.42 Z" />
<path fill="#ffffff" opacity="1.00" d=" M 62.52 48.32 C 64.50 48.15 66.47 47.78 68.46 47.78 C 67.20 51.63 66.27 55.58 65.19 59.49 C 63.61 59.51 62.03 59.51 60.45 59.48 C 61.08 55.75 61.93 52.06 62.52 48.32 Z" />
<path fill="#ffffff" opacity="1.00" d=" M 60.03 61.31 C 69.80 60.32 79.70 61.24 89.52 61.06 C 89.31 66.78 85.57 72.53 79.62 73.41 C 74.29 73.54 68.96 73.53 63.63 73.44 C 61.70 73.38 59.77 73.47 57.85 73.39 C 58.66 69.37 59.44 65.36 60.03 61.31 Z" />
</g>
</svg>
