<?xml version="1.0" encoding="UTF-8" ?>
<!DOCTYPE svg PUBLIC "-//W3C//DTD SVG 1.1//EN" "http://www.w3.org/Graphics/SVG/1.1/DTD/svg11.dtd">
<svg width="254pt" height="70pt" viewBox="0 0 254 70" version="1.1" xmlns="http://www.w3.org/2000/svg">
<g id="#050708ff">
<path fill="#050708" opacity="1.00" d=" M 5.70 0.00 L 64.03 0.00 C 67.34 1.23 70.26 4.12 69.90 7.91 C 69.94 25.95 69.93 43.99 69.91 62.03 C 70.29 65.73 67.54 68.55 64.42 70.00 L 5.86 70.00 C 3.22 68.94 1.19 66.87 0.00 64.31 L 0.00 5.99 C 1.04 3.30 3.12 1.23 5.70 0.00 M 13.82 10.70 C 13.82 11.65 13.82 13.55 13.82 14.50 C 15.96 14.57 18.09 14.57 20.22 14.48 C 20.23 13.54 20.23 11.66 20.23 10.72 C 18.10 10.63 15.96 10.63 13.82 10.70 M 21.00 10.68 C 21.08 11.99 21.17 13.30 21.27 14.61 C 23.27 14.61 25.27 14.59 27.27 14.47 C 27.27 13.18 27.25 11.89 27.22 10.60 C 25.15 10.57 23.07 10.55 21.00 10.68 M 42.76 10.66 C 42.74 11.61 42.70 13.53 42.68 14.48 C 44.71 14.62 46.74 14.63 48.77 14.64 C 48.84 13.33 48.90 12.01 48.93 10.70 C 46.88 10.61 44.82 10.60 42.76 10.66 M 49.78 10.64 C 49.78 11.59 49.79 13.48 49.79 14.42 C 51.91 14.52 54.04 14.52 56.16 14.44 C 56.16 13.48 56.16 11.57 56.16 10.61 C 54.04 10.53 51.91 10.53 49.78 10.64 M 6.68 15.59 C 6.68 16.56 6.67 18.50 6.67 19.47 C 8.73 19.51 10.80 19.54 12.86 19.42 C 12.84 18.47 12.81 16.56 12.80 15.61 C 10.76 15.51 8.72 15.54 6.68 15.59 M 13.81 15.70 C 13.81 16.63 13.81 18.48 13.81 19.41 C 15.93 19.52 18.05 19.53 20.17 19.46 C 20.17 18.50 20.17 16.60 20.17 15.65 C 18.05 15.57 15.93 15.58 13.81 15.70 M 49.87 15.62 C 49.87 16.55 49.86 18.42 49.86 19.35 C 51.97 19.45 54.09 19.46 56.20 19.38 C 56.20 18.43 56.19 16.54 56.18 15.59 C 54.08 15.51 51.97 15.52 49.87 15.62 M 57.32 15.50 C 57.28 16.46 57.20 18.39 57.16 19.35 C 59.24 19.45 61.31 19.46 63.38 19.41 C 63.38 18.44 63.38 16.50 63.37 15.53 C 61.35 15.47 59.33 15.45 57.32 15.50 M 35.51 20.58 C 35.53 21.54 35.56 23.48 35.57 24.44 C 37.60 24.50 39.62 24.50 41.65 24.44 C 41.67 23.48 41.72 21.56 41.74 20.60 C 39.67 20.50 37.59 20.50 35.51 20.58 M 6.57 20.65 C 6.59 21.60 6.63 23.51 6.65 24.46 C 8.69 24.52 10.73 24.50 12.77 24.43 C 12.77 23.48 12.76 21.57 12.76 20.62 C 10.70 20.56 8.63 20.56 6.57 20.65 M 13.77 20.66 C 13.78 21.60 13.81 23.48 13.82 24.42 C 15.92 24.51 18.02 24.50 20.12 24.41 C 20.12 23.47 20.13 21.60 20.13 20.66 C 18.01 20.57 15.89 20.56 13.77 20.66 M 28.25 20.55 C 28.25 21.51 28.25 23.42 28.25 24.38 C 30.29 24.47 32.33 24.47 34.37 24.42 C 34.37 23.44 34.36 21.47 34.35 20.48 C 32.32 20.44 30.28 20.45 28.25 20.55 M 49.82 20.57 C 49.82 21.52 49.83 23.41 49.83 24.36 C 51.94 24.44 54.06 24.45 56.17 24.35 C 56.17 23.41 56.18 21.54 56.19 20.60 C 54.07 20.49 51.95 20.49 49.82 20.57 M 57.16 20.60 C 57.16 21.54 57.17 23.42 57.18 24.35 C 59.23 24.46 61.28 24.43 63.33 24.40 C 63.33 23.43 63.33 21.51 63.33 20.54 C 61.27 20.51 59.21 20.48 57.16 20.60 M 21.38 25.50 C 21.13 26.73 20.96 27.98 20.88 29.24 C 23.04 29.38 25.20 29.38 27.36 29.31 C 27.29 28.46 27.16 26.76 27.10 25.91 C 25.50 24.81 23.23 25.48 21.38 25.50 M 42.90 25.86 C 42.83 26.73 42.69 28.46 42.62 29.32 C 44.79 29.43 46.97 29.42 49.13 29.30 C 48.94 28.03 48.78 26.77 48.64 25.50 C 46.75 25.44 44.65 24.99 42.90 25.86 M 6.61 25.58 C 6.63 26.54 6.66 28.47 6.68 29.43 C 8.72 29.49 10.75 29.49 12.79 29.42 C 12.79 28.45 12.81 26.52 12.81 25.56 C 10.75 25.50 8.68 25.49 6.61 25.58 M 13.82 25.59 C 13.81 26.53 13.80 28.39 13.79 29.33 C 15.92 29.44 18.06 29.43 20.20 29.34 C 20.21 28.41 20.24 26.54 20.25 25.60 C 18.11 25.49 15.96 25.50 13.82 25.59 M 28.34 25.52 C 28.32 26.46 28.29 28.35 28.28 29.29 C 30.33 29.38 32.38 29.38 34.43 29.34 C 34.41 28.37 34.39 26.44 34.37 25.47 C 32.36 25.44 30.35 25.45 28.34 25.52 M 35.57 25.54 C 35.58 26.50 35.59 28.41 35.60 29.37 C 37.63 29.43 39.66 29.41 41.69 29.35 C 41.68 28.40 41.67 26.49 41.67 25.53 C 39.64 25.47 37.60 25.49 35.57 25.54 M 49.78 25.55 C 49.78 26.48 49.79 28.33 49.80 29.26 C 51.93 29.36 54.06 29.37 56.19 29.29 C 56.19 28.34 56.18 26.45 56.18 25.51 C 54.04 25.45 51.91 25.44 49.78 25.55 M 56.97 25.62 C 57.07 26.45 57.27 28.12 57.37 28.96 C 59.12 29.95 61.40 29.22 63.36 29.34 C 63.36 28.04 63.36 26.75 63.33 25.45 C 61.21 25.44 59.08 25.45 56.97 25.62 M 13.75 30.59 C 13.76 31.54 13.79 33.44 13.80 34.39 C 15.91 34.46 18.02 34.46 20.12 34.34 C 20.13 33.41 20.15 31.55 20.15 30.62 C 18.02 30.52 15.88 30.52 13.75 30.59 M 20.93 30.56 C 20.93 31.50 20.93 33.37 20.93 34.31 C 23.01 34.43 25.09 34.42 27.17 34.38 C 27.18 33.41 27.21 31.49 27.22 30.52 C 25.12 30.45 23.02 30.46 20.93 30.56 M 28.26 30.52 C 28.26 31.48 28.26 33.38 28.26 34.33 C 30.28 34.43 32.31 34.43 34.34 34.38 C 34.34 33.41 34.35 31.47 34.36 30.50 C 32.32 30.45 30.29 30.45 28.26 30.52 M 35.48 30.56 C 35.50 31.52 35.54 33.44 35.57 34.40 C 37.56 34.45 39.55 34.46 41.54 34.41 C 41.58 33.45 41.64 31.53 41.68 30.57 C 39.61 30.50 37.54 30.48 35.48 30.56 M 42.70 30.54 C 42.71 31.52 42.74 33.46 42.76 34.44 C 44.78 34.47 46.80 34.49 48.82 34.38 C 48.83 33.43 48.85 31.54 48.85 30.60 C 46.80 30.49 44.75 30.50 42.70 30.54 M 49.79 30.50 C 49.78 31.45 49.77 33.35 49.77 34.30 C 51.88 34.40 53.99 34.40 56.10 34.30 C 56.12 33.36 56.15 31.48 56.17 30.55 C 54.04 30.43 51.92 30.43 49.79 30.50 M 43.30 35.55 C 42.82 36.74 42.55 37.98 42.49 39.29 C 44.63 39.32 46.78 39.32 48.93 39.28 C 48.87 37.98 48.80 36.69 48.73 35.39 C 46.92 35.41 45.11 35.36 43.30 35.55 M 13.81 35.53 C 13.81 36.47 13.80 38.35 13.80 39.30 C 15.92 39.37 18.05 39.38 20.18 39.28 C 20.15 38.35 20.10 36.48 20.08 35.54 C 17.99 35.45 15.90 35.46 13.81 35.53 M 20.61 35.58 C 20.78 36.43 21.14 38.13 21.31 38.98 C 23.23 39.50 25.24 39.29 27.20 39.33 C 27.20 38.35 27.20 36.39 27.21 35.41 C 25.01 35.43 22.81 35.48 20.61 35.58 M 28.21 35.51 C 28.23 36.45 28.28 38.33 28.30 39.26 C 30.33 39.32 32.36 39.33 34.38 39.28 C 34.38 38.32 34.38 36.39 34.37 35.42 C 32.32 35.38 30.26 35.42 28.21 35.51 M 35.60 35.45 C 35.58 36.42 35.54 38.35 35.52 39.32 C 37.57 39.34 39.62 39.37 41.67 39.26 C 41.69 38.34 41.72 36.49 41.73 35.57 C 39.69 35.44 37.64 35.44 35.60 35.45 M 49.83 35.47 C 49.82 36.41 49.81 38.29 49.81 39.22 C 51.92 39.31 54.04 39.30 56.15 39.23 C 56.15 38.29 56.15 36.41 56.15 35.47 C 54.04 35.39 51.93 35.39 49.83 35.47 M 13.86 40.57 C 13.87 41.50 13.87 43.37 13.87 44.30 C 15.99 44.42 18.10 44.42 20.21 44.34 C 20.23 43.39 20.25 41.49 20.26 40.54 C 18.13 40.45 16.00 40.46 13.86 40.57 M 21.09 40.49 C 21.12 41.46 21.20 43.39 21.24 44.36 C 23.24 44.41 25.25 44.41 27.25 44.34 C 27.25 43.36 27.25 41.38 27.25 40.39 C 25.19 40.35 23.14 40.36 21.09 40.49 M 28.34 40.48 C 28.36 41.45 28.39 43.38 28.41 44.34 C 30.41 44.41 32.41 44.42 34.42 44.37 C 34.43 43.39 34.46 41.42 34.47 40.43 C 32.43 40.38 30.38 40.39 28.34 40.48 M 35.58 40.51 C 35.61 41.49 35.66 43.43 35.68 44.40 C 37.70 44.46 39.72 44.44 41.73 44.36 C 41.73 43.39 41.71 41.44 41.71 40.47 C 39.67 40.42 37.62 40.43 35.58 40.51 M 42.79 40.47 C 42.79 41.44 42.79 43.38 42.79 44.35 C 44.80 44.43 46.82 44.46 48.84 44.39 C 48.90 43.43 49.03 41.49 49.10 40.53 C 47.00 40.39 44.89 40.39 42.79 40.47 M 49.86 40.50 C 49.83 41.42 49.76 43.28 49.73 44.21 C 51.88 44.33 54.03 44.35 56.18 44.29 C 56.19 43.33 56.20 41.39 56.20 40.43 C 54.09 40.37 51.97 40.38 49.86 40.50 M 13.67 45.57 C 13.81 46.47 14.09 48.26 14.23 49.15 C 16.22 49.44 18.23 49.32 20.23 49.26 C 20.23 48.31 20.22 46.40 20.21 45.45 C 18.03 45.39 15.85 45.42 13.67 45.57 M 49.68 45.51 C 49.83 46.40 50.12 48.19 50.26 49.08 C 52.23 49.37 54.23 49.26 56.22 49.21 C 56.22 48.25 56.22 46.33 56.22 45.37 C 54.04 45.32 51.86 45.35 49.68 45.51 M 21.24 50.30 C 21.17 51.59 21.12 52.89 21.09 54.19 C 23.17 54.31 25.26 54.30 27.34 54.25 C 27.43 52.89 27.25 51.59 26.79 50.36 C 24.95 50.18 23.09 50.26 21.24 50.30 M 28.50 50.45 C 28.29 51.69 28.34 52.95 28.23 54.20 C 30.30 54.29 32.38 54.33 34.46 54.27 C 34.45 53.40 34.43 51.67 34.41 50.80 C 32.70 49.71 30.42 50.32 28.50 50.45 M 35.66 50.85 C 35.62 51.70 35.55 53.40 35.51 54.24 C 37.54 54.32 39.57 54.34 41.60 54.31 C 41.65 53.35 41.75 51.43 41.79 50.47 C 39.79 50.52 37.43 49.69 35.66 50.85 M 42.65 54.23 C 44.47 54.31 46.30 54.45 48.12 54.27 C 50.00 53.64 48.88 51.73 48.80 50.34 C 47.21 50.30 45.62 50.24 44.03 50.35 C 42.05 50.31 43.02 53.07 42.65 54.23 M 13.82 50.49 C 13.83 51.44 13.85 53.35 13.87 54.30 C 15.98 54.39 18.09 54.39 20.20 54.31 C 20.21 53.36 20.24 51.45 20.26 50.49 C 18.11 50.39 15.97 50.39 13.82 50.49 M 49.69 50.46 C 49.81 51.41 50.03 53.32 50.15 54.28 C 52.16 54.32 54.16 54.31 56.17 54.24 C 56.17 53.27 56.18 51.34 56.18 50.37 C 54.02 50.30 51.85 50.31 49.69 50.46 M 20.76 55.50 C 20.90 56.37 21.19 58.11 21.33 58.98 C 23.27 59.42 25.27 59.24 27.24 59.22 C 27.25 58.25 27.26 56.29 27.27 55.32 C 25.10 55.29 22.93 55.32 20.76 55.50 M 28.36 55.38 C 28.37 56.33 28.38 58.24 28.39 59.20 C 30.41 59.25 32.43 59.24 34.45 59.22 C 34.45 58.25 34.45 56.30 34.45 55.33 C 32.42 55.31 30.39 55.30 28.36 55.38 M 35.63 55.38 C 35.63 56.35 35.64 58.27 35.64 59.24 C 37.66 59.27 39.69 59.28 41.71 59.23 C 41.72 58.27 41.73 56.35 41.73 55.39 C 39.70 55.33 37.66 55.34 35.63 55.38 M 42.79 55.40 C 42.79 56.35 42.79 58.27 42.80 59.22 C 44.75 59.06 47.04 59.81 48.80 58.84 C 48.93 58.00 49.19 56.32 49.32 55.48 C 47.15 55.34 44.97 55.32 42.79 55.40 Z" />
<path fill="#050708" opacity="1.00" d=" M 127.04 21.99 C 130.31 20.72 134.40 20.66 137.41 22.61 C 140.10 24.80 139.42 28.73 139.74 31.78 C 137.69 31.80 135.64 31.81 133.59 31.82 C 133.16 30.04 134.26 25.66 130.99 26.47 C 129.69 27.72 129.93 30.04 130.55 31.58 C 133.13 34.08 137.19 34.78 139.23 37.88 C 140.11 41.04 139.91 44.44 139.48 47.66 C 138.95 50.65 135.81 52.16 133.03 52.22 C 130.09 52.38 126.36 52.12 124.71 49.29 C 123.41 46.62 123.82 43.55 123.66 40.68 C 125.70 40.68 127.74 40.68 129.78 40.69 C 129.92 42.82 130.08 44.94 130.30 47.06 C 131.35 46.85 132.36 46.54 133.35 46.14 C 133.48 44.45 133.64 42.69 133.07 41.06 C 130.12 38.35 124.52 37.71 123.93 33.05 C 123.54 29.31 123.03 24.00 127.04 21.99 Z" />
<path fill="#050708" opacity="1.00" d=" M 162.40 21.51 C 165.38 20.93 168.82 20.80 171.48 22.52 C 173.91 24.17 173.82 27.39 173.86 30.00 C 173.78 35.32 173.96 40.64 173.77 45.96 C 173.82 53.36 162.29 54.31 158.70 49.25 C 156.85 44.08 158.16 38.39 157.75 33.01 C 157.68 28.89 157.13 22.62 162.40 21.51 M 164.45 27.19 C 163.97 33.12 164.22 39.10 164.29 45.05 C 164.13 46.70 165.69 47.28 167.05 46.74 C 167.82 40.87 167.35 34.90 167.37 28.99 C 168.10 26.97 165.76 25.33 164.45 27.19 Z" />
<path fill="#050708" opacity="1.00" d=" M 195.51 21.59 C 199.60 21.58 203.70 21.59 207.80 21.54 C 207.83 23.31 207.84 25.07 207.87 26.83 C 205.87 26.85 203.86 26.85 201.86 26.86 C 201.85 29.16 201.85 31.46 201.84 33.76 C 203.84 33.74 205.84 33.73 207.85 33.71 C 207.86 35.47 207.86 37.24 207.74 39.00 C 205.79 39.25 203.81 39.16 201.85 39.26 C 201.85 41.65 201.85 44.05 201.85 46.44 C 203.85 46.45 205.85 46.45 207.85 46.46 C 207.85 48.23 207.85 50.01 207.85 51.78 C 203.74 51.79 199.64 51.79 195.53 51.80 C 195.50 41.73 195.55 31.66 195.51 21.59 Z" />
<path fill="#050708" opacity="1.00" d=" M 140.62 21.59 C 145.98 21.58 151.35 21.57 156.71 21.59 C 156.67 23.36 156.63 25.12 156.59 26.89 C 154.98 26.87 153.38 26.85 151.78 26.84 C 151.77 35.15 151.76 43.47 151.79 51.78 C 149.67 51.78 147.54 51.78 145.42 51.78 C 145.45 43.47 145.44 35.16 145.43 26.85 C 143.86 26.85 142.29 26.85 140.72 26.85 C 140.68 25.10 140.65 23.34 140.62 21.59 Z" />
<path fill="#050708" opacity="1.00" d=" M 175.88 21.59 C 178.25 21.59 180.63 21.59 183.01 21.59 C 184.42 26.75 185.60 31.97 187.18 37.07 C 187.28 31.91 187.20 26.75 187.19 21.58 C 189.17 21.58 191.16 21.59 193.14 21.59 C 193.13 31.66 193.15 41.72 193.14 51.78 C 190.80 51.78 188.48 51.78 186.15 51.78 C 184.78 46.65 183.58 41.47 181.94 36.42 C 181.76 41.54 181.86 46.66 181.87 51.79 C 179.88 51.78 177.88 51.78 175.89 51.77 C 175.89 41.71 175.91 31.65 175.88 21.59 Z" />
<path fill="#050708" opacity="1.00" d=" M 218.36 21.59 C 223.68 21.57 229.00 21.58 234.31 21.59 C 234.33 23.34 234.35 25.10 234.36 26.86 C 232.76 26.85 231.17 26.85 229.57 26.85 C 229.56 35.16 229.55 43.47 229.58 51.78 C 227.44 51.78 225.31 51.78 223.17 51.79 C 223.20 43.47 223.19 35.15 223.18 26.84 C 221.60 26.85 220.02 26.87 218.44 26.89 C 218.41 25.12 218.38 23.35 218.36 21.59 Z" />
<path fill="#050708" opacity="1.00" d=" M 235.59 21.59 C 237.75 21.58 239.92 21.59 242.08 21.59 C 243.09 27.77 243.94 33.97 245.02 40.14 C 246.00 33.96 246.71 27.75 247.65 21.57 C 249.77 21.58 251.88 21.59 254.00 21.59 L 254.00 22.23 C 252.09 32.06 250.42 41.93 248.65 51.78 C 246.19 51.78 243.72 51.79 241.26 51.78 C 239.33 41.72 237.44 31.66 235.59 21.59 Z" />
<path fill="#050708" opacity="1.00" d=" M 210.37 46.90 C 212.39 46.91 214.41 46.93 216.44 46.95 C 216.43 48.56 216.43 50.17 216.43 51.78 C 214.41 51.78 212.39 51.78 210.37 51.79 C 210.37 50.16 210.37 48.53 210.37 46.90 Z" />
</g>
<g id="#ffffffff">
<path fill="#ffffff" opacity="1.00" d=" M 13.82 10.70 C 15.96 10.63 18.10 10.63 20.23 10.72 C 20.23 11.66 20.23 13.54 20.22 14.48 C 18.09 14.57 15.96 14.57 13.82 14.50 C 13.82 13.55 13.82 11.65 13.82 10.70 Z" />
<path fill="#ffffff" opacity="1.00" d=" M 21.00 10.68 C 23.07 10.55 25.15 10.57 27.22 10.60 C 27.25 11.89 27.27 13.18 27.27 14.47 C 25.27 14.59 23.27 14.61 21.27 14.61 C 21.17 13.30 21.08 11.99 21.00 10.68 Z" />
<path fill="#ffffff" opacity="1.00" d=" M 42.76 10.66 C 44.82 10.60 46.88 10.61 48.93 10.70 C 48.90 12.01 48.84 13.33 48.77 14.64 C 46.74 14.63 44.71 14.62 42.68 14.48 C 42.70 13.53 42.74 11.61 42.76 10.66 Z" />
<path fill="#ffffff" opacity="1.00" d=" M 49.78 10.64 C 51.91 10.53 54.04 10.53 56.16 10.61 C 56.16 11.57 56.16 13.48 56.16 14.44 C 54.04 14.52 51.91 14.52 49.79 14.42 C 49.79 13.48 49.78 11.59 49.78 10.64 Z" />
<path fill="#ffffff" opacity="1.00" d=" M 6.68 15.59 C 8.72 15.54 10.76 15.51 12.80 15.61 C 12.81 16.56 12.84 18.47 12.86 19.42 C 10.80 19.54 8.73 19.51 6.67 19.47 C 6.67 18.50 6.68 16.56 6.68 15.59 Z" />
<path fill="#ffffff" opacity="1.00" d=" M 13.81 15.70 C 15.93 15.58 18.05 15.57 20.17 15.65 C 20.17 16.60 20.17 18.50 20.17 19.46 C 18.05 19.53 15.93 19.52 13.81 19.41 C 13.81 18.48 13.81 16.63 13.81 15.70 Z" />
<path fill="#ffffff" opacity="1.00" d=" M 49.87 15.62 C 51.97 15.52 54.08 15.51 56.18 15.59 C 56.19 16.54 56.20 18.43 56.20 19.38 C 54.09 19.46 51.97 19.45 49.86 19.35 C 49.86 18.42 49.87 16.55 49.87 15.62 Z" />
<path fill="#ffffff" opacity="1.00" d=" M 57.32 15.50 C 59.33 15.45 61.35 15.47 63.37 15.53 C 63.38 16.50 63.38 18.44 63.38 19.41 C 61.31 19.46 59.24 19.45 57.16 19.35 C 57.20 18.39 57.28 16.46 57.32 15.50 Z" />
<path fill="#ffffff" opacity="1.00" d=" M 35.51 20.58 C 37.59 20.50 39.67 20.50 41.74 20.60 C 41.72 21.56 41.67 23.48 41.65 24.44 C 39.62 24.50 37.60 24.50 35.57 24.44 C 35.56 23.48 35.53 21.54 35.51 20.58 Z" />
<path fill="#ffffff" opacity="1.00" d=" M 6.57 20.65 C 8.63 20.56 10.70 20.56 12.76 20.62 C 12.76 21.57 12.77 23.48 12.77 24.43 C 10.73 24.50 8.69 24.52 6.65 24.46 C 6.63 23.51 6.59 21.60 6.57 20.65 Z" />
<path fill="#ffffff" opacity="1.00" d=" M 13.77 20.66 C 15.89 20.56 18.01 20.57 20.13 20.66 C 20.13 21.60 20.12 23.47 20.12 24.41 C 18.02 24.50 15.92 24.51 13.82 24.42 C 13.81 23.48 13.78 21.60 13.77 20.66 Z" />
<path fill="#ffffff" opacity="1.00" d=" M 28.25 20.55 C 30.28 20.45 32.32 20.44 34.35 20.48 C 34.36 21.47 34.37 23.44 34.37 24.42 C 32.33 24.47 30.29 24.47 28.25 24.38 C 28.25 23.42 28.25 21.51 28.25 20.55 Z" />
<path fill="#ffffff" opacity="1.00" d=" M 49.82 20.57 C 51.95 20.49 54.07 20.49 56.19 20.60 C 56.18 21.54 56.17 23.41 56.17 24.35 C 54.06 24.45 51.94 24.44 49.83 24.36 C 49.83 23.41 49.82 21.52 49.82 20.57 Z" />
<path fill="#ffffff" opacity="1.00" d=" M 57.16 20.60 C 59.21 20.48 61.27 20.51 63.33 20.54 C 63.33 21.51 63.33 23.43 63.33 24.40 C 61.28 24.43 59.23 24.46 57.18 24.35 C 57.17 23.42 57.16 21.54 57.16 20.60 Z" />
<path fill="#ffffff" opacity="1.00" d=" M 21.38 25.50 C 23.23 25.48 25.50 24.81 27.10 25.91 C 27.16 26.76 27.29 28.46 27.36 29.31 C 25.20 29.38 23.04 29.38 20.88 29.24 C 20.96 27.98 21.13 26.73 21.38 25.50 Z" />
<path fill="#ffffff" opacity="1.00" d=" M 42.90 25.86 C 44.65 24.99 46.75 25.44 48.64 25.50 C 48.78 26.77 48.94 28.03 49.13 29.30 C 46.97 29.42 44.79 29.43 42.62 29.32 C 42.69 28.46 42.83 26.73 42.90 25.86 Z" />
<path fill="#ffffff" opacity="1.00" d=" M 6.61 25.58 C 8.68 25.49 10.75 25.50 12.81 25.56 C 12.81 26.52 12.79 28.45 12.79 29.42 C 10.75 29.49 8.72 29.49 6.68 29.43 C 6.66 28.47 6.63 26.54 6.61 25.58 Z" />
<path fill="#ffffff" opacity="1.00" d=" M 13.82 25.59 C 15.96 25.50 18.11 25.49 20.25 25.60 C 20.24 26.54 20.21 28.41 20.20 29.34 C 18.06 29.43 15.92 29.44 13.79 29.33 C 13.80 28.39 13.81 26.53 13.82 25.59 Z" />
<path fill="#ffffff" opacity="1.00" d=" M 28.34 25.52 C 30.35 25.45 32.36 25.44 34.37 25.47 C 34.39 26.44 34.41 28.37 34.43 29.34 C 32.38 29.38 30.33 29.38 28.28 29.29 C 28.29 28.35 28.32 26.46 28.34 25.52 Z" />
<path fill="#ffffff" opacity="1.00" d=" M 35.57 25.54 C 37.60 25.49 39.64 25.47 41.67 25.53 C 41.67 26.49 41.68 28.40 41.69 29.35 C 39.66 29.41 37.63 29.43 35.60 29.37 C 35.59 28.41 35.58 26.50 35.57 25.54 Z" />
<path fill="#ffffff" opacity="1.00" d=" M 49.78 25.55 C 51.91 25.44 54.04 25.45 56.18 25.51 C 56.18 26.45 56.19 28.34 56.19 29.29 C 54.06 29.37 51.93 29.36 49.80 29.26 C 49.79 28.33 49.78 26.48 49.78 25.55 Z" />
<path fill="#ffffff" opacity="1.00" d=" M 56.97 25.62 C 59.08 25.45 61.21 25.44 63.33 25.45 C 63.36 26.75 63.36 28.04 63.36 29.34 C 61.40 29.22 59.12 29.95 57.37 28.96 C 57.27 28.12 57.07 26.45 56.97 25.62 Z" />
<path fill="#ffffff" opacity="1.00" d=" M 13.75 30.59 C 15.88 30.52 18.02 30.52 20.15 30.62 C 20.15 31.55 20.13 33.41 20.12 34.34 C 18.02 34.46 15.91 34.46 13.80 34.39 C 13.79 33.44 13.76 31.54 13.75 30.59 Z" />
<path fill="#ffffff" opacity="1.00" d=" M 20.93 30.56 C 23.02 30.46 25.12 30.45 27.22 30.52 C 27.21 31.49 27.18 33.41 27.17 34.38 C 25.09 34.42 23.01 34.43 20.93 34.31 C 20.93 33.37 20.93 31.50 20.93 30.56 Z" />
<path fill="#ffffff" opacity="1.00" d=" M 28.26 30.52 C 30.29 30.45 32.32 30.45 34.36 30.50 C 34.35 31.47 34.34 33.41 34.34 34.38 C 32.31 34.43 30.28 34.43 28.26 34.33 C 28.26 33.38 28.26 31.48 28.26 30.52 Z" />
<path fill="#ffffff" opacity="1.00" d=" M 35.48 30.56 C 37.54 30.48 39.61 30.50 41.68 30.57 C 41.64 31.53 41.58 33.45 41.54 34.41 C 39.55 34.46 37.56 34.45 35.57 34.40 C 35.54 33.44 35.50 31.52 35.48 30.56 Z" />
<path fill="#ffffff" opacity="1.00" d=" M 42.70 30.54 C 44.75 30.50 46.80 30.49 48.85 30.60 C 48.85 31.54 48.83 33.43 48.82 34.38 C 46.80 34.49 44.78 34.47 42.76 34.44 C 42.74 33.46 42.71 31.52 42.70 30.54 Z" />
<path fill="#ffffff" opacity="1.00" d=" M 49.79 30.50 C 51.92 30.43 54.04 30.43 56.17 30.55 C 56.15 31.48 56.12 33.36 56.10 34.30 C 53.99 34.40 51.88 34.40 49.77 34.30 C 49.77 33.35 49.78 31.45 49.79 30.50 Z" />
<path fill="#ffffff" opacity="1.00" d=" M 13.81 35.53 C 15.90 35.46 17.99 35.45 20.08 35.54 C 20.10 36.48 20.15 38.35 20.18 39.28 C 18.05 39.38 15.92 39.37 13.80 39.30 C 13.80 38.35 13.81 36.47 13.81 35.53 Z" />
<path fill="#ffffff" opacity="1.00" d=" M 28.21 35.51 C 30.26 35.42 32.32 35.38 34.37 35.42 C 34.38 36.39 34.38 38.32 34.38 39.28 C 32.36 39.33 30.33 39.32 28.30 39.26 C 28.28 38.33 28.23 36.45 28.21 35.51 Z" />
<path fill="#ffffff" opacity="1.00" d=" M 35.60 35.45 C 37.64 35.44 39.69 35.44 41.73 35.57 C 41.72 36.49 41.69 38.34 41.67 39.26 C 39.62 39.37 37.57 39.34 35.52 39.32 C 35.54 38.35 35.58 36.42 35.60 35.45 Z" />
<path fill="#ffffff" opacity="1.00" d=" M 49.83 35.47 C 51.93 35.39 54.04 35.39 56.15 35.47 C 56.15 36.41 56.15 38.29 56.15 39.23 C 54.04 39.30 51.92 39.31 49.81 39.22 C 49.81 38.29 49.82 36.41 49.83 35.47 Z" />
<path fill="#ffffff" opacity="1.00" d=" M 13.86 40.57 C 16.00 40.46 18.13 40.45 20.26 40.54 C 20.25 41.49 20.23 43.39 20.21 44.34 C 18.10 44.42 15.99 44.42 13.87 44.30 C 13.87 43.37 13.87 41.50 13.86 40.57 Z" />
<path fill="#ffffff" opacity="1.00" d=" M 21.09 40.49 C 23.14 40.36 25.19 40.35 27.25 40.39 C 27.25 41.38 27.25 43.36 27.25 44.34 C 25.25 44.41 23.24 44.41 21.24 44.36 C 21.20 43.39 21.12 41.46 21.09 40.49 Z" />
<path fill="#ffffff" opacity="1.00" d=" M 28.34 40.48 C 30.38 40.39 32.43 40.38 34.47 40.43 C 34.46 41.42 34.43 43.39 34.42 44.37 C 32.41 44.42 30.41 44.41 28.41 44.34 C 28.39 43.38 28.36 41.45 28.34 40.48 Z" />
<path fill="#ffffff" opacity="1.00" d=" M 35.58 40.51 C 37.62 40.43 39.67 40.42 41.71 40.47 C 41.71 41.44 41.73 43.39 41.73 44.36 C 39.72 44.44 37.70 44.46 35.68 44.40 C 35.66 43.43 35.61 41.49 35.58 40.51 Z" />
<path fill="#ffffff" opacity="1.00" d=" M 42.79 40.47 C 44.89 40.39 47.00 40.39 49.10 40.53 C 49.03 41.49 48.90 43.43 48.84 44.39 C 46.82 44.46 44.80 44.43 42.79 44.35 C 42.79 43.38 42.79 41.44 42.79 40.47 Z" />
<path fill="#ffffff" opacity="1.00" d=" M 49.86 40.50 C 51.97 40.38 54.09 40.37 56.20 40.43 C 56.20 41.39 56.19 43.33 56.18 44.29 C 54.03 44.35 51.88 44.33 49.73 44.21 C 49.76 43.28 49.83 41.42 49.86 40.50 Z" />
<path fill="#ffffff" opacity="1.00" d=" M 13.67 45.57 C 15.85 45.42 18.03 45.39 20.21 45.45 C 20.22 46.40 20.23 48.31 20.23 49.26 C 18.23 49.32 16.22 49.44 14.23 49.15 C 14.09 48.26 13.81 46.47 13.67 45.57 Z" />
<path fill="#ffffff" opacity="1.00" d=" M 49.68 45.51 C 51.86 45.35 54.04 45.32 56.22 45.37 C 56.22 46.33 56.22 48.25 56.22 49.21 C 54.23 49.26 52.23 49.37 50.26 49.08 C 50.12 48.19 49.83 46.40 49.68 45.51 Z" />
<path fill="#ffffff" opacity="1.00" d=" M 21.24 50.30 C 23.09 50.26 24.95 50.18 26.79 50.36 C 27.25 51.59 27.43 52.89 27.34 54.25 C 25.26 54.30 23.17 54.31 21.09 54.19 C 21.12 52.89 21.17 51.59 21.24 50.30 Z" />
<path fill="#ffffff" opacity="1.00" d=" M 28.50 50.45 C 30.42 50.32 32.70 49.71 34.41 50.80 C 34.43 51.67 34.45 53.40 34.46 54.27 C 32.38 54.33 30.30 54.29 28.23 54.20 C 28.34 52.95 28.29 51.69 28.50 50.45 Z" />
<path fill="#ffffff" opacity="1.00" d=" M 35.66 50.85 C 37.43 49.69 39.79 50.52 41.79 50.47 C 41.75 51.43 41.65 53.35 41.60 54.31 C 39.57 54.34 37.54 54.32 35.51 54.24 C 35.55 53.40 35.62 51.70 35.66 50.85 Z" />
<path fill="#ffffff" opacity="1.00" d=" M 42.65 54.23 C 43.02 53.07 42.05 50.31 44.03 50.35 C 45.62 50.24 47.21 50.30 48.80 50.34 C 48.88 51.73 50.00 53.64 48.12 54.27 C 46.30 54.45 44.47 54.31 42.65 54.23 Z" />
<path fill="#ffffff" opacity="1.00" d=" M 13.82 50.49 C 15.97 50.39 18.11 50.39 20.26 50.49 C 20.24 51.45 20.21 53.36 20.20 54.31 C 18.09 54.39 15.98 54.39 13.87 54.30 C 13.85 53.35 13.83 51.44 13.82 50.49 Z" />
<path fill="#ffffff" opacity="1.00" d=" M 49.69 50.46 C 51.85 50.31 54.02 50.30 56.18 50.37 C 56.18 51.34 56.17 53.27 56.17 54.24 C 54.16 54.31 52.16 54.32 50.15 54.28 C 50.03 53.32 49.81 51.41 49.69 50.46 Z" />
<path fill="#ffffff" opacity="1.00" d=" M 20.76 55.50 C 22.93 55.32 25.10 55.29 27.27 55.32 C 27.26 56.29 27.25 58.25 27.24 59.22 C 25.27 59.24 23.27 59.42 21.33 58.98 C 21.19 58.11 20.90 56.37 20.76 55.50 Z" />
<path fill="#ffffff" opacity="1.00" d=" M 28.36 55.38 C 30.39 55.30 32.42 55.31 34.45 55.33 C 34.45 56.30 34.45 58.25 34.45 59.22 C 32.43 59.24 30.41 59.25 28.39 59.20 C 28.38 58.24 28.37 56.33 28.36 55.38 Z" />
<path fill="#ffffff" opacity="1.00" d=" M 35.63 55.38 C 37.66 55.34 39.70 55.33 41.73 55.39 C 41.73 56.35 41.72 58.27 41.71 59.23 C 39.69 59.28 37.66 59.27 35.64 59.24 C 35.64 58.27 35.63 56.35 35.63 55.38 Z" />
<path fill="#ffffff" opacity="1.00" d=" M 42.79 55.40 C 44.97 55.32 47.15 55.34 49.32 55.48 C 49.19 56.32 48.93 58.00 48.80 58.84 C 47.04 59.81 44.75 59.06 42.80 59.22 C 42.79 58.27 42.79 56.35 42.79 55.40 Z" />
</g>
<g id="#ed1c24ff">
<path fill="#ed1c24" opacity="1.00" d=" M 79.74 21.59 C 83.68 21.58 87.62 21.58 91.56 21.58 C 91.56 23.34 91.55 25.09 91.55 26.85 C 89.75 26.85 87.95 26.85 86.16 26.85 C 86.14 29.15 86.13 31.45 86.11 33.74 C 87.93 33.75 89.74 33.76 91.56 33.77 C 91.55 35.56 91.54 37.36 91.53 39.16 C 89.73 39.16 87.92 39.17 86.12 39.18 C 86.14 43.37 86.14 47.57 86.14 51.77 C 84.01 51.78 81.88 51.78 79.75 51.79 C 79.75 41.73 79.77 31.66 79.74 21.59 Z" />
<path fill="#ed1c24" opacity="1.00" d=" M 106.82 21.58 C 112.15 21.58 117.48 21.58 122.81 21.58 C 122.81 23.33 122.81 25.08 122.81 26.83 C 121.17 26.84 119.53 26.85 117.90 26.86 C 117.90 35.16 117.86 43.46 117.92 51.76 C 115.83 51.78 113.73 51.79 111.64 51.82 C 111.57 43.53 111.68 35.24 111.58 26.96 C 110.42 26.86 108.11 26.67 106.96 26.57 C 106.42 27.04 105.89 27.51 105.37 27.99 C 106.93 35.90 108.19 43.87 109.72 51.79 C 107.49 51.79 105.26 51.78 103.04 51.75 C 102.77 49.66 102.50 47.57 102.23 45.48 C 100.82 45.50 99.42 45.53 98.01 45.57 C 97.87 47.64 97.75 49.70 97.60 51.77 C 95.42 51.78 93.23 51.78 91.05 51.78 C 92.70 41.72 94.38 31.67 95.99 21.61 C 98.78 21.58 101.57 21.58 104.36 21.58 C 104.59 23.34 104.81 25.09 105.01 26.85 C 105.61 26.14 106.21 25.43 106.81 24.72 C 106.81 23.94 106.82 22.37 106.82 21.58 M 99.92 30.07 C 99.39 33.54 99.02 37.04 98.68 40.53 C 99.62 40.54 100.56 40.54 101.50 40.54 C 100.97 37.05 100.55 33.55 99.92 30.07 Z" />
<path fill="#ed1c24" opacity="1.00" d=" M 43.30 35.55 C 45.11 35.36 46.92 35.41 48.73 35.39 C 48.80 36.69 48.87 37.98 48.93 39.28 C 46.78 39.32 44.63 39.32 42.49 39.29 C 42.55 37.98 42.82 36.74 43.30 35.55 Z" />
<path fill="#ed1c24" opacity="1.00" d=" M 20.61 35.58 C 22.81 35.48 25.01 35.43 27.21 35.41 C 27.20 36.39 27.20 38.35 27.20 39.33 C 25.24 39.29 23.23 39.50 21.31 38.98 C 21.14 38.13 20.78 36.43 20.61 35.58 Z" />
</g>
</svg>
