<?xml version="1.0" encoding="UTF-8" standalone="yes"?>
<svg xmlns="http://www.w3.org/2000/svg" xmlns:xlink="http://www.w3.org/1999/xlink" width="198.66666666666666px" height="106.66666666666666px" viewBox="0 0 149 80" version="1.1">
  <g id="surface1">
    <path style=" stroke:none;fill-rule:nonzero;fill:rgb(12.941176%,60.392157%,87.058824%);fill-opacity:1;" d="M 2.859375 76.972656 L 134.101562 76.972656 L 134.101562 2.871094 L 2.859375 2.871094 Z M 2.859375 76.972656 "/>
    <path style=" stroke:none;fill-rule:nonzero;fill:rgb(100%,100%,100%);fill-opacity:1;" d="M 46.132812 21.398438 L 21.609375 21.398438 L 21.609375 58.449219 L 29.785156 58.449219 L 29.785156 43.835938 L 44.164062 43.835938 L 44.164062 36.511719 L 29.785156 36.511719 L 29.785156 28.722656 L 46.667969 28.722656 L 46.667969 21.398438 Z M 46.132812 21.398438 "/>
    <path style=" stroke:none;fill-rule:nonzero;fill:rgb(100%,100%,100%);fill-opacity:1;" d="M 75.445312 21.398438 L 50.917969 21.398438 L 50.917969 58.449219 L 75.980469 58.449219 L 75.980469 51.125 L 59.097656 51.125 L 59.097656 43.433594 L 73.472656 43.433594 L 73.472656 36.109375 L 59.097656 36.109375 L 59.097656 28.722656 L 75.980469 28.722656 L 75.980469 21.398438 Z M 75.445312 21.398438 "/>
    <path style=" stroke:none;fill-rule:nonzero;fill:rgb(100%,100%,100%);fill-opacity:1;" d="M 114.820312 21.398438 L 107.476562 21.398438 C 107.476562 21.398438 99.207031 38.402344 98.34375 40.171875 C 97.476562 38.40625 89.164062 21.398438 89.164062 21.398438 L 81.289062 21.398438 L 81.289062 58.449219 L 89.464844 58.449219 L 89.464844 39.140625 C 90.941406 42.015625 95.613281 51.117188 95.613281 51.117188 L 101.078125 51.117188 C 101.078125 51.117188 105.699219 42.050781 107.175781 39.15625 L 107.175781 58.449219 L 115.351562 58.449219 L 115.351562 21.398438 Z M 114.820312 21.398438 "/>
    <path style=" stroke:none;fill-rule:nonzero;fill:rgb(88.627451%,14.509804%,14.509804%);fill-opacity:1;" d="M 134.101562 16.042969 L 147.226562 16.042969 L 147.226562 2.871094 L 134.101562 2.871094 Z M 134.101562 16.042969 "/>
    <path style=" stroke:none;fill-rule:nonzero;fill:rgb(100%,100%,100%);fill-opacity:1;" d="M 142.679688 5.503906 L 142.679688 10.601562 L 138.777344 5.503906 L 136.726562 5.503906 L 136.726562 13.410156 L 138.644531 13.410156 L 138.644531 8.332031 L 142.566406 13.410156 L 144.597656 13.410156 L 144.597656 5.503906 Z M 142.679688 5.503906 "/>
  </g>
</svg>