<?xml version="1.0" encoding="UTF-8" standalone="no"?>
<svg
   xmlns:dc="http://purl.org/dc/elements/1.1/"
   xmlns:cc="http://creativecommons.org/ns#"
   xmlns:rdf="http://www.w3.org/1999/02/22-rdf-syntax-ns#"
   xmlns:svg="http://www.w3.org/2000/svg"
   xmlns="http://www.w3.org/2000/svg"
   viewBox="0 0 840.25676 304.72238"
   height="304.72238"
   width="840.25677"
   xml:space="preserve"
   id="svg43"
   version="1.1"><metadata
     id="metadata49"><rdf:RDF><cc:Work
         rdf:about=""><dc:format>image/svg+xml</dc:format><dc:type
           rdf:resource="http://purl.org/dc/dcmitype/StillImage" /><dc:title></dc:title></cc:Work></rdf:RDF></metadata><defs
     id="defs47"><clipPath
       id="clipPath59"
       clipPathUnits="userSpaceOnUse"><path
         id="path57"
         d="M 166.125,338.193 H 394.672 V 566.735 H 166.125 Z" /></clipPath><clipPath
       id="clipPath115"
       clipPathUnits="userSpaceOnUse"><path
         id="path113"
         d="M 0,595.28 H 1011.333 V 0 H 0 Z" /></clipPath></defs><g
     transform="matrix(1.3333333,0,0,-1.3333333,-221.50253,755.64665)"
     id="g51"><g
       id="g53"><g
         clip-path="url(#clipPath59)"
         id="g55"><g
           transform="translate(394.6699,556.1372)"
           id="g61"><path
             id="path63"
             style="fill:#040606;fill-opacity:1;fill-rule:nonzero;stroke:none"
             d="m 0,0 v -207.337 c 0,-5.662 -4.893,-10.607 -10.265,-10.607 h -207.548 c -5.832,0 -10.73,4.945 -10.73,10.607 V 0 c 0,5.884 4.898,10.599 10.73,10.599 H -10.265 C -4.893,10.599 0,5.884 0,0" /></g><g
           transform="translate(259.708,479.9766)"
           id="g65"><path
             id="path67"
             style="fill:#ffffff;fill-opacity:1;fill-rule:nonzero;stroke:none"
             d="m 0,0 c 0,2.823 -1.831,4.643 -4.651,4.643 h -3.683 c -3.191,0 -4.625,-1.589 -5.704,-6.329 L -24.46,-46.97 h -2.32 c -3.514,0 -4.985,0.884 -6.23,5.843 l -10.412,39.477 -0.116,0.432 c -0.794,3.018 -1.544,5.861 -5.14,5.861 h -3.901 c -3.141,0 -4.869,-1.647 -4.869,-4.643 0,-1.822 0.494,-4.532 1.557,-8.56 l 11.065,-39.462 c 1.983,-7.448 6.024,-10.63 13.5,-10.63 h 4.438 c -0.468,-2.478 -1.47,-7.582 -2.096,-9.52 -2.029,-6.317 -5.173,-7.643 -10.586,-7.643 -4.47,0 -7.403,0.344 -9.544,0.594 -1.287,0.148 -2.313,0.271 -3.255,0.271 -2.543,0 -3.996,-1.536 -3.996,-4.214 v -2.602 c 0,-2.974 1.529,-3.885 3.073,-4.543 2.636,-1.195 5.945,-1.841 15.89,-1.841 9.975,0 17.378,5.345 19.792,14.316 4.383,16.273 16.152,65.692 16.268,66.173 0,0 1.342,5.228 1.342,7.661" /></g><g
           transform="translate(289.2109,507.7354)"
           id="g69"><path
             id="path71"
             style="fill:#ffffff;fill-opacity:1;fill-rule:nonzero;stroke:none"
             d="m 0,0 c 0,5.102 -0.526,10.073 -6.821,10.073 h -9.324 c -1.683,0 -6.166,0 -6.166,-4.431 V 1.518 c 0,-1.736 0.858,-4.643 6.595,-4.643 h 2.294 v -77.557 c 0,-4.141 0.845,-6.382 5.296,-6.382 h 3.038 c 4.222,0 5.088,2.549 5.088,6.382 z" /></g><g
           transform="translate(347.0664,459.3872)"
           id="g73"><path
             id="path75"
             style="fill:#ffffff;fill-opacity:1;fill-rule:nonzero;stroke:none"
             d="m 0,0 -28.274,-0.023 c 0.426,11.647 4.857,16.632 14.586,16.638 C -4.104,16.617 -0.284,10.946 0,0 m 12.338,-2.813 c 0,12.668 -2.912,29.787 -26.259,29.787 -19.564,0 -28.288,-10.67 -28.288,-34.583 0,-23.307 8.14,-31.972 30.024,-31.972 9.765,0 16.178,1.337 18.68,2.483 1.57,0.666 3.099,1.562 3.099,4.556 v 2.378 c 0,2.684 -1.454,4.215 -3.995,4.215 -0.892,0 -1.803,-0.179 -2.953,-0.405 -2.248,-0.442 -5.642,-1.113 -12.232,-1.113 -16.421,0 -18.475,2.963 -18.946,16.518 H 2.484 c 7.473,0 9.854,3.251 9.854,8.136" /></g></g></g><g
       transform="translate(439.6719,531.2246)"
       id="g77"><path
         id="path79"
         style="fill:#040606;fill-opacity:1;fill-rule:nonzero;stroke:none"
         d="M 0,0 V 9.169 H 59.388 V 0 H 34.865 V -66.851 H 24.203 V 0 Z" /></g><g
       transform="translate(510.3613,464.374)"
       id="g81"><path
         id="path83"
         style="fill:#040606;fill-opacity:1;fill-rule:nonzero;stroke:none"
         d="M 0,0 V 76.02 H 48.404 V 66.851 H 10.342 V 42.222 H 43.501 V 33.478 H 10.342 V 9.169 H 49.471 V 0 Z" /></g><g
       transform="translate(574.333,464.374)"
       id="g85"><path
         id="path87"
         style="fill:#040606;fill-opacity:1;fill-rule:nonzero;stroke:none"
         d="M 0,0 V 76.02 H 48.405 V 66.851 H 10.342 V 42.222 h 33.16 V 33.478 H 10.342 V 9.169 h 39.13 V 0 Z" /></g><g
       transform="translate(640.8652,540.394)"
       id="g89"><path
         id="path91"
         style="fill:#040606;fill-opacity:1;fill-rule:nonzero;stroke:none"
         d="M 0,0 H 13.434 L 37.423,-60.56 60.56,0 H 73.461 L 76.66,-76.02 H 66.104 L 64.078,-17.912 41.154,-75.913 H 32.839 L 9.275,-17.912 7.357,-76.02 h -10.45 z" /></g><g
       transform="translate(762.5215,532.1846)"
       id="g93"><path
         id="path95"
         style="fill:#040606;fill-opacity:1;fill-rule:nonzero;stroke:none"
         d="m 0,0 -13.008,-37.21 h 25.055 z m 14.713,-46.487 h -30.92 l -7.25,-21.324 H -34.226 L -7.251,8.53 H 7.89 L 33.798,-67.811 H 22.39 Z" /></g><g
       transform="translate(490.6465,440.5552)"
       id="g97"><path
         id="path99"
         style="fill:#040606;fill-opacity:1;fill-rule:nonzero;stroke:none"
         d="m 0,0 v -9.402 h -37.61 v -27.032 h 33.763 v -9.189 H -37.61 V -76.181 H -47.975 V 0 Z" /></g><g
       transform="translate(503.041,364.374)"
       id="g101"><path
         id="path103"
         style="fill:#040606;fill-opacity:1;fill-rule:nonzero;stroke:none"
         d="M 0,0 V 76.181 H 48.508 V 66.993 H 10.364 V 42.311 h 33.23 V 33.55 H 10.364 V 9.189 H 49.577 V 0 Z" /></g><g
       transform="translate(569.7148,440.5552)"
       id="g105"><path
         id="path107"
         style="fill:#040606;fill-opacity:1;fill-rule:nonzero;stroke:none"
         d="M 0,0 H 13.463 L 37.503,-60.688 60.69,0 h 12.927 l 3.205,-76.181 H 66.244 L 64.215,-17.95 41.243,-76.074 H 32.909 L 9.296,-17.95 7.372,-76.181 H -3.099 Z" /></g><g
       id="g109"><g
         clip-path="url(#clipPath115)"
         id="g111"><g
           transform="translate(354.2188,158.8926)"
           id="g117" /><g
           transform="translate(320.2915,184.4199)"
           id="g121" /><g
           transform="translate(439.6719,255.7402)"
           id="g125" /><g
           transform="translate(510.3613,188.8896)"
           id="g129" /><g
           transform="translate(574.333,188.8896)"
           id="g133" /><g
           transform="translate(640.8652,264.9102)"
           id="g137" /><g
           transform="translate(762.5215,256.7002)"
           id="g141" /><g
           transform="translate(490.6465,165.0703)"
           id="g145" /><g
           transform="translate(503.041,88.8896)"
           id="g149" /><g
           transform="translate(569.7148,165.0703)"
           id="g153" /></g></g></g></svg>