<?xml version="1.0" encoding="UTF-8" ?>
<!DOCTYPE svg PUBLIC "-//W3C//DTD SVG 1.1//EN" "http://www.w3.org/Graphics/SVG/1.1/DTD/svg11.dtd">
<svg width="500pt" height="200pt" viewBox="0 0 500 200" version="1.1" xmlns="http://www.w3.org/2000/svg">
<g id="#1c2e4f73">
<path fill="#1c2e4f" opacity="0.45" d=" M 349.45 0.00 L 355.99 0.00 C 363.58 1.21 371.29 3.30 377.50 8.03 C 359.41 13.33 342.36 23.09 329.91 37.39 C 321.76 46.14 315.39 56.58 311.30 67.82 C 311.12 63.99 308.96 60.67 308.11 56.99 C 304.26 43.01 307.91 27.34 317.27 16.32 C 325.15 6.69 337.14 1.00 349.45 0.00 Z" />
</g>
<g id="#194c8dff">
<path fill="#194c8d" opacity="1.00" d=" M 377.64 8.14 C 390.05 4.98 403.08 3.87 415.78 5.85 C 440.70 9.13 464.03 22.69 479.40 42.55 C 492.76 59.63 500.13 81.30 499.88 102.99 C 499.97 125.51 491.63 147.86 477.17 165.08 C 462.56 182.69 441.51 194.80 418.95 198.58 C 398.02 202.13 375.95 198.85 357.18 188.87 C 335.75 177.73 318.76 158.34 310.66 135.57 C 302.87 113.88 302.88 89.32 311.30 67.82 C 315.39 56.58 321.76 46.14 329.91 37.39 C 328.13 42.48 325.67 47.48 325.46 52.96 C 324.59 63.07 328.35 73.69 335.80 80.65 C 331.77 80.53 327.77 81.08 323.81 81.69 C 320.50 81.77 317.19 81.74 313.89 81.75 C 313.88 96.90 313.88 112.04 313.89 127.18 C 316.72 127.19 319.56 127.19 322.40 127.19 C 322.40 121.13 322.40 115.06 322.39 108.99 C 332.15 108.82 341.91 108.96 351.67 108.91 C 351.66 106.36 351.67 103.81 351.68 101.26 C 341.92 101.26 332.16 101.25 322.40 101.26 C 322.40 97.33 322.40 93.39 322.38 89.45 C 332.67 89.60 342.99 89.14 353.25 89.91 C 355.60 90.20 357.97 90.32 360.34 90.40 C 360.31 102.66 360.34 114.92 360.33 127.19 C 363.16 127.19 366.00 127.19 368.84 127.19 C 368.84 114.03 368.83 100.88 368.85 87.72 C 372.41 86.11 375.84 84.21 379.14 82.10 C 379.28 82.61 379.56 83.63 379.70 84.14 C 379.91 98.49 379.72 112.84 379.79 127.19 C 391.65 127.19 403.51 127.19 415.37 127.19 C 415.37 124.62 415.37 122.06 415.38 119.49 C 406.36 119.47 397.33 119.49 388.30 119.48 C 388.36 106.91 388.31 94.33 388.33 81.76 C 385.73 81.55 383.13 81.31 380.54 81.08 C 385.30 76.90 389.65 72.13 392.49 66.42 C 398.77 53.47 398.96 37.54 392.14 24.75 C 388.84 18.05 383.31 12.85 377.64 8.14 M 421.77 82.14 C 421.77 97.16 421.77 112.17 421.78 127.19 C 424.59 127.19 427.41 127.19 430.23 127.19 C 430.24 115.32 430.23 103.45 430.23 91.58 C 437.47 103.39 444.40 115.39 451.64 127.21 C 454.14 127.19 456.65 127.20 459.16 127.21 C 466.60 115.37 473.76 103.36 481.21 91.53 C 481.22 103.42 481.22 115.31 481.21 127.20 C 484.06 127.20 486.91 127.20 489.76 127.20 C 489.75 112.18 489.74 97.16 489.77 82.14 C 485.86 82.14 481.95 82.14 478.04 82.14 C 470.67 94.09 463.34 106.06 456.00 118.02 C 448.94 106.05 441.76 94.15 434.73 82.16 C 430.41 82.13 426.09 82.14 421.77 82.14 Z" />
</g>
<g id="#4d82bfff">
<path fill="#4d82bf" opacity="1.00" d=" M 329.91 37.39 C 342.36 23.09 359.41 13.33 377.50 8.03 L 377.64 8.14 C 383.31 12.85 388.84 18.05 392.14 24.75 C 398.96 37.54 398.77 53.47 392.49 66.42 C 389.65 72.13 385.30 76.90 380.54 81.08 C 383.13 81.31 385.73 81.55 388.33 81.76 C 385.57 81.80 382.81 81.83 380.06 82.04 C 379.97 82.57 379.79 83.62 379.70 84.14 C 379.56 83.63 379.28 82.61 379.14 82.10 C 375.84 84.21 372.41 86.11 368.85 87.72 C 368.84 85.74 368.84 83.76 368.84 81.78 C 366.00 81.79 363.17 81.79 360.34 81.81 C 360.34 84.67 360.35 87.53 360.34 90.40 C 357.97 90.32 355.60 90.20 353.25 89.91 C 353.30 87.21 353.33 84.51 353.35 81.81 C 343.50 81.72 333.65 82.01 323.81 81.69 C 327.77 81.08 331.77 80.53 335.80 80.65 C 328.35 73.69 324.59 63.07 325.46 52.96 C 325.67 47.48 328.13 42.48 329.91 37.39 Z" />
</g>
<g id="#000000ff">
<path fill="#000000" opacity="1.00" d=" M 0.00 81.49 C 3.43 81.49 6.86 81.49 10.30 81.48 C 16.63 94.04 22.95 106.60 29.28 119.15 C 36.71 106.63 44.01 94.04 51.36 81.48 C 54.31 81.49 57.26 81.49 60.21 81.49 C 51.11 96.76 42.22 112.16 33.14 127.43 C 30.20 127.42 27.27 127.41 24.34 127.38 C 16.28 112.08 8.18 96.80 0.00 81.56 L 0.00 81.49 Z" />
<path fill="#000000" opacity="1.00" d=" M 149.39 88.45 C 153.16 83.76 159.24 81.75 164.99 80.90 C 175.33 79.63 186.15 81.53 195.14 86.89 C 193.58 89.12 192.01 91.34 190.44 93.55 C 182.79 89.19 173.57 87.81 164.90 88.88 C 161.15 89.39 156.42 91.49 156.55 95.94 C 157.34 98.13 159.92 98.64 161.93 99.10 C 170.05 100.46 178.53 99.87 186.40 102.62 C 189.58 103.72 192.80 105.74 193.96 109.07 C 195.37 113.72 193.65 118.91 190.15 122.18 C 184.91 127.36 177.18 128.90 170.04 128.81 C 160.99 128.84 151.36 126.91 144.48 120.64 C 146.43 118.50 148.37 116.34 150.27 114.16 C 158.35 120.65 169.58 122.45 179.45 119.63 C 182.45 118.81 185.79 116.35 185.24 112.84 C 184.42 110.30 181.58 109.35 179.22 108.88 C 171.28 107.48 163.02 108.11 155.24 105.71 C 151.98 104.72 148.80 102.68 147.55 99.37 C 146.46 95.73 146.88 91.43 149.39 88.45 Z" />
<path fill="#000000" opacity="1.00" d=" M 65.61 81.49 C 68.47 81.49 71.32 81.49 74.18 81.50 C 74.18 96.80 74.18 112.10 74.19 127.41 C 71.32 127.41 68.46 127.42 65.60 127.42 C 65.62 112.11 65.62 96.80 65.61 81.49 Z" />
<path fill="#000000" opacity="1.00" d=" M 82.05 127.42 C 91.37 112.16 100.35 96.70 109.67 81.44 C 113.09 81.50 116.51 81.50 119.94 81.50 C 127.90 96.80 135.76 112.15 143.79 127.41 C 140.41 127.41 137.03 127.41 133.65 127.43 C 131.68 123.41 129.68 119.39 127.70 115.38 C 118.27 115.35 108.84 115.35 99.42 115.38 C 97.16 119.38 94.87 123.36 92.65 127.39 C 89.12 127.42 85.59 127.42 82.05 127.42 M 103.65 107.74 C 110.41 107.74 117.17 107.79 123.94 107.71 C 120.70 101.47 117.69 95.12 114.48 88.86 C 110.69 95.05 107.38 101.51 103.65 107.74 Z" />
<path fill="#000000" opacity="1.00" d=" M 222.30 81.53 C 225.79 81.47 229.29 81.47 232.78 81.53 C 240.70 96.84 248.54 112.19 256.62 127.42 C 253.18 127.44 249.73 127.44 246.29 127.32 C 244.43 123.29 242.45 119.33 240.48 115.36 C 231.07 115.37 221.66 115.36 212.24 115.37 C 209.93 119.38 207.67 123.42 205.36 127.43 C 201.85 127.41 198.35 127.41 194.84 127.41 C 204.10 112.18 213.18 96.84 222.30 81.53 M 216.48 107.75 C 223.24 107.73 229.99 107.80 236.75 107.70 C 233.49 101.41 230.41 95.03 227.25 88.69 C 223.70 95.06 220.08 101.40 216.48 107.75 Z" />
<path fill="#000000" opacity="1.00" d=" M 252.25 81.82 C 267.46 81.82 282.67 81.82 297.88 81.82 C 297.89 84.40 297.90 86.99 297.92 89.57 C 291.65 89.60 285.38 89.56 279.11 89.60 C 279.19 102.20 279.12 114.80 279.15 127.40 C 276.29 127.41 273.43 127.42 270.57 127.42 C 270.60 114.80 270.56 102.19 270.59 89.58 C 264.46 89.58 258.34 89.59 252.22 89.57 C 252.23 86.99 252.24 84.41 252.25 81.82 Z" />
</g>
<g id="#ffffffff">
<path fill="#ffffff" opacity="1.00" d=" M 313.89 81.75 C 317.19 81.74 320.50 81.77 323.81 81.69 C 333.65 82.01 343.50 81.72 353.35 81.81 C 353.33 84.51 353.30 87.21 353.25 89.91 C 342.99 89.14 332.67 89.60 322.38 89.45 C 322.40 93.39 322.40 97.33 322.40 101.26 C 332.16 101.25 341.92 101.26 351.68 101.26 C 351.67 103.81 351.66 106.36 351.67 108.91 C 341.91 108.96 332.15 108.82 322.39 108.99 C 322.40 115.06 322.40 121.13 322.40 127.19 C 319.56 127.19 316.72 127.19 313.89 127.18 C 313.88 112.04 313.88 96.90 313.89 81.75 Z" />
<path fill="#ffffff" opacity="1.00" d=" M 360.34 81.81 C 363.17 81.79 366.00 81.79 368.84 81.78 C 368.84 83.76 368.84 85.74 368.85 87.72 C 368.83 100.88 368.84 114.03 368.84 127.19 C 366.00 127.19 363.16 127.19 360.33 127.19 C 360.34 114.92 360.31 102.66 360.34 90.40 C 360.35 87.53 360.34 84.67 360.34 81.81 Z" />
<path fill="#ffffff" opacity="1.00" d=" M 380.06 82.04 C 382.81 81.83 385.57 81.80 388.33 81.76 C 388.31 94.33 388.36 106.91 388.30 119.48 C 397.33 119.49 406.36 119.47 415.38 119.49 C 415.37 122.06 415.37 124.62 415.37 127.19 C 403.51 127.19 391.65 127.19 379.79 127.19 C 379.72 112.84 379.91 98.49 379.70 84.14 C 379.79 83.62 379.97 82.57 380.06 82.04 Z" />
<path fill="#ffffff" opacity="1.00" d=" M 421.77 82.14 C 426.09 82.14 430.41 82.13 434.73 82.16 C 441.76 94.15 448.94 106.05 456.00 118.02 C 463.34 106.06 470.67 94.09 478.04 82.14 C 481.95 82.14 485.86 82.14 489.77 82.14 C 489.74 97.16 489.75 112.18 489.76 127.20 C 486.91 127.20 484.06 127.20 481.21 127.20 C 481.22 115.31 481.22 103.42 481.21 91.53 C 473.76 103.36 466.60 115.37 459.16 127.21 C 456.65 127.20 454.14 127.19 451.64 127.21 C 444.40 115.39 437.47 103.39 430.23 91.58 C 430.23 103.45 430.24 115.32 430.23 127.19 C 427.41 127.19 424.59 127.19 421.78 127.19 C 421.77 112.17 421.77 97.16 421.77 82.14 Z" />
</g>
</svg>
