<?xml version="1.0" encoding="UTF-8" ?>
<!DOCTYPE svg PUBLIC "-//W3C//DTD SVG 1.1//EN" "http://www.w3.org/Graphics/SVG/1.1/DTD/svg11.dtd">
<svg width="360pt" height="270pt" viewBox="0 0 360 270" version="1.1" xmlns="http://www.w3.org/2000/svg">
<g id="#1b2f4f73">
<path fill="#1b2f4f" opacity="0.45" d=" M 229.91 93.97 C 231.67 83.35 240.47 74.39 251.01 72.34 C 255.96 71.28 261.09 71.87 265.91 73.25 L 265.73 73.76 C 265.64 74.00 265.47 74.49 265.38 74.74 C 266.35 75.68 267.94 76.29 269.13 75.34 L 269.83 74.94 L 270.59 76.44 C 269.63 76.80 268.67 77.17 267.72 77.53 C 262.93 77.36 257.62 79.56 255.00 83.68 C 253.53 84.85 252.02 85.97 250.56 87.14 C 248.20 89.00 246.10 91.13 243.89 93.14 C 241.44 93.94 240.23 96.15 239.40 98.40 C 236.83 102.75 234.06 107.02 232.39 111.84 C 230.29 106.16 228.54 100.05 229.91 93.97 Z" />
<path fill="#1b2f4f" opacity="0.45" d=" M 326.65 175.39 C 328.91 175.00 328.29 177.73 328.64 178.99 C 329.31 185.40 326.08 191.85 320.75 195.39 L 319.57 195.04 C 322.42 192.00 325.88 189.11 326.88 184.85 C 327.86 182.12 327.37 179.22 326.84 176.45 L 326.65 175.39 Z" />
</g>
<g id="#2d476a8f">
<path fill="#2d476a" opacity="0.56" d=" M 265.38 74.74 C 265.47 74.49 265.64 74.00 265.73 73.76 C 267.15 73.66 268.29 74.19 269.13 75.34 C 267.94 76.29 266.35 75.68 265.38 74.74 Z" />
</g>
<g id="#05497dff">
<path fill="#05497d" opacity="1.00" d=" M 272.25 76.26 C 281.31 74.31 290.74 74.06 299.80 76.10 C 302.62 76.76 305.32 77.83 308.10 78.65 C 312.40 80.48 316.56 82.69 320.33 85.47 C 323.58 87.99 326.67 90.73 329.50 93.71 C 330.48 94.94 331.51 96.13 332.57 97.30 C 332.77 97.56 333.17 98.08 333.37 98.34 C 334.06 99.35 334.73 100.38 335.38 101.43 C 338.07 110.43 344.18 119.94 340.01 129.52 C 340.00 126.50 339.88 123.49 339.61 120.48 C 338.56 129.50 339.14 138.61 338.67 147.66 C 337.09 147.79 335.51 147.93 333.93 148.02 C 333.76 147.86 333.41 147.54 333.24 147.38 C 334.97 147.38 336.70 147.40 338.44 147.42 C 338.37 138.37 338.49 129.33 338.38 120.28 C 335.97 120.31 333.56 120.29 331.18 120.57 C 331.31 120.20 331.59 119.46 331.73 119.09 C 333.67 118.81 335.64 118.69 337.61 118.54 C 336.49 114.68 335.60 110.72 333.99 107.02 C 331.38 101.33 327.16 96.62 323.05 91.98 C 319.63 87.95 314.09 87.22 309.33 85.72 C 306.67 84.26 304.09 82.57 301.13 81.80 C 296.23 80.47 291.10 80.88 286.09 80.82 C 287.01 79.87 287.94 78.91 288.87 77.95 C 284.40 77.67 279.89 78.17 275.76 79.94 C 275.04 79.30 274.32 78.68 273.63 78.02 L 272.73 77.08 L 272.25 76.26 Z" />
</g>
<g id="#1d4f8fff">
<path fill="#1d4f8f" opacity="1.00" d=" M 270.59 76.44 C 271.41 76.21 272.12 76.43 272.73 77.08 L 273.63 78.02 C 271.98 80.85 268.62 81.39 265.81 82.44 C 265.71 82.95 265.50 83.97 265.40 84.49 C 260.56 83.58 255.73 84.90 251.46 87.15 L 250.56 87.14 C 252.02 85.97 253.53 84.85 255.00 83.68 C 259.01 81.20 263.30 79.19 267.72 77.53 C 268.67 77.17 269.63 76.80 270.59 76.44 Z" />
</g>
<g id="#1c2d4a69">
<path fill="#1c2d4a" opacity="0.41" d=" M 299.80 76.10 C 312.87 74.28 326.54 78.00 336.88 86.18 C 347.04 94.03 354.08 106.00 355.41 118.82 C 355.15 120.50 354.85 122.18 354.56 123.86 C 354.32 121.61 354.03 119.37 353.72 117.13 C 349.95 114.87 345.55 114.37 341.32 113.53 C 342.99 110.97 341.06 108.46 339.89 106.19 C 338.26 103.45 336.82 100.50 334.55 98.23 L 333.37 98.34 C 333.17 98.08 332.77 97.56 332.57 97.30 C 333.40 95.33 331.82 92.27 329.50 93.71 C 326.67 90.73 323.58 87.99 320.33 85.47 L 321.09 84.52 C 317.22 81.87 313.08 78.18 308.10 78.65 C 305.32 77.83 302.62 76.76 299.80 76.10 Z" />
</g>
<g id="#2131495b">
<path fill="#213149" opacity="0.36" d=" M 255.00 83.68 C 257.62 79.56 262.93 77.36 267.72 77.53 C 263.30 79.19 259.01 81.20 255.00 83.68 Z" />
</g>
<g id="#286bafff">
<path fill="#286baf" opacity="1.00" d=" M 273.63 78.02 C 274.32 78.68 275.04 79.30 275.76 79.94 C 276.95 81.07 278.04 82.31 279.01 83.64 C 277.18 85.07 275.36 86.53 273.55 87.99 C 271.05 86.37 268.26 85.27 265.40 84.49 C 265.50 83.97 265.71 82.95 265.81 82.44 C 268.62 81.39 271.98 80.85 273.63 78.02 Z" />
</g>
<g id="#0f5490ff">
<path fill="#0f5490" opacity="1.00" d=" M 275.76 79.94 C 279.89 78.17 284.40 77.67 288.87 77.95 C 287.94 78.91 287.01 79.87 286.09 80.82 C 291.10 80.88 296.23 80.47 301.13 81.80 C 304.09 82.57 306.67 84.26 309.33 85.72 C 299.87 85.06 290.38 88.42 283.42 94.85 C 282.49 90.93 281.23 87.04 279.01 83.64 C 278.04 82.31 276.95 81.07 275.76 79.94 Z" />
</g>
<g id="#1a253c4c">
<path fill="#1a253c" opacity="0.30" d=" M 308.10 78.65 C 313.08 78.18 317.22 81.87 321.09 84.52 L 320.33 85.47 C 316.56 82.69 312.40 80.48 308.10 78.65 Z" />
</g>
<g id="#5993cdff">
<path fill="#5993cd" opacity="1.00" d=" M 251.46 87.15 C 255.73 84.90 260.56 83.58 265.40 84.49 C 268.26 85.27 271.05 86.37 273.55 87.99 C 276.63 90.59 279.01 93.88 280.94 97.39 C 280.05 98.30 279.17 99.21 278.31 100.13 C 269.89 97.40 260.70 97.21 252.35 100.31 C 250.00 101.02 247.71 101.91 245.56 103.09 C 245.65 101.56 245.60 99.91 246.60 98.63 C 249.21 94.52 252.59 90.97 255.96 87.49 C 254.46 87.37 252.96 87.24 251.46 87.15 Z" />
</g>
<g id="#3a72acff">
<path fill="#3a72ac" opacity="1.00" d=" M 273.55 87.99 C 275.36 86.53 277.18 85.07 279.01 83.64 C 281.23 87.04 282.49 90.93 283.42 94.85 C 282.59 95.69 281.76 96.54 280.94 97.39 C 279.01 93.88 276.63 90.59 273.55 87.99 Z" />
</g>
<g id="#0a56aeff">
<path fill="#0a56ae" opacity="1.00" d=" M 283.42 94.85 C 290.38 88.42 299.87 85.06 309.33 85.72 C 314.09 87.22 319.63 87.95 323.05 91.98 C 327.16 96.62 331.38 101.33 333.99 107.02 C 335.60 110.72 336.49 114.68 337.61 118.54 C 335.64 118.69 333.67 118.81 331.73 119.09 C 331.59 119.46 331.31 120.20 331.18 120.57 C 328.12 126.51 324.26 131.99 320.87 137.75 C 320.99 132.99 321.77 128.29 322.33 123.57 C 323.30 123.95 324.27 124.33 325.25 124.71 C 323.63 122.61 321.91 120.57 319.78 118.97 C 315.99 116.30 311.84 114.06 307.34 112.87 C 302.90 111.86 298.30 111.05 293.77 111.95 C 293.52 111.67 293.02 111.12 292.77 110.84 C 289.86 107.55 286.44 104.76 282.73 102.41 C 283.23 99.92 283.45 97.39 283.42 94.85 Z" />
</g>
<g id="#5385bbff">
<path fill="#5385bb" opacity="1.00" d=" M 243.89 93.14 C 246.10 91.13 248.20 89.00 250.56 87.14 L 251.46 87.15 C 252.96 87.24 254.46 87.37 255.96 87.49 C 252.59 90.97 249.21 94.52 246.60 98.63 C 245.60 99.91 245.65 101.56 245.56 103.09 C 243.93 104.39 242.34 105.75 240.70 107.03 C 240.45 102.37 242.46 98.13 243.35 93.66 C 243.49 93.53 243.75 93.27 243.89 93.14 Z" />
</g>
<g id="#1b263d4a">
<path fill="#1b263d" opacity="0.29" d=" M 329.50 93.71 C 331.82 92.27 333.40 95.33 332.57 97.30 C 331.51 96.13 330.48 94.94 329.50 93.71 Z" />
</g>
<g id="#1c4e9bff">
<path fill="#1c4e9b" opacity="1.00" d=" M 239.40 98.40 C 240.52 96.67 241.83 95.06 243.35 93.66 C 242.46 98.13 240.45 102.37 240.70 107.03 C 238.76 109.26 236.47 111.36 235.42 114.18 C 235.23 116.15 237.06 117.56 238.15 118.99 C 236.86 118.89 234.69 118.70 234.09 120.08 C 233.42 129.16 233.95 138.30 233.76 147.41 C 235.51 147.43 237.27 147.46 239.02 147.54 C 237.70 148.73 235.88 149.04 234.26 149.64 C 235.97 153.24 238.17 156.59 239.60 160.33 C 240.38 163.84 241.81 167.16 242.79 170.62 C 228.58 155.13 224.61 131.28 232.39 111.84 C 234.06 107.02 236.83 102.75 239.40 98.40 Z" />
</g>
<g id="#367eccff">
<path fill="#367ecc" opacity="1.00" d=" M 280.94 97.39 C 281.76 96.54 282.59 95.69 283.42 94.85 C 283.45 97.39 283.23 99.92 282.73 102.41 C 281.28 101.60 279.79 100.87 278.31 100.13 C 279.17 99.21 280.05 98.30 280.94 97.39 Z" />
</g>
<g id="#78b0deff">
<path fill="#78b0de" opacity="1.00" d=" M 252.35 100.31 C 260.70 97.21 269.89 97.40 278.31 100.13 C 277.60 101.81 276.88 103.49 276.04 105.11 C 275.32 106.38 274.56 107.61 273.81 108.86 C 269.80 107.68 266.00 105.90 262.04 104.61 C 262.13 103.16 262.24 101.70 262.34 100.25 C 259.02 100.47 255.65 101.11 252.35 100.31 Z" />
</g>
<g id="#17233647">
<path fill="#172336" opacity="0.28" d=" M 334.55 98.23 C 336.82 100.50 338.26 103.45 339.89 106.19 C 341.06 108.46 342.99 110.97 341.32 113.53 C 339.78 109.30 337.89 105.17 335.38 101.43 C 334.73 100.38 334.06 99.35 333.37 98.34 L 334.55 98.23 Z" />
</g>
<g id="#4e9bd9ff">
<path fill="#4e9bd9" opacity="1.00" d=" M 245.56 103.09 C 247.71 101.91 250.00 101.02 252.35 100.31 C 255.65 101.11 259.02 100.47 262.34 100.25 C 262.24 101.70 262.13 103.16 262.04 104.61 C 266.00 105.90 269.80 107.68 273.81 108.86 C 274.56 107.61 275.32 106.38 276.04 105.11 C 277.43 106.55 278.84 107.98 280.27 109.39 C 281.10 109.17 281.93 108.95 282.76 108.73 C 284.75 111.08 287.77 111.38 290.62 111.67 C 288.26 112.57 285.85 113.34 283.47 114.17 C 280.73 115.16 278.29 116.76 275.88 118.35 C 276.45 118.80 277.60 119.69 278.18 120.14 C 276.57 120.18 274.97 120.19 273.36 120.18 L 272.93 120.76 C 271.02 122.97 268.78 124.85 266.51 126.66 C 266.48 124.53 266.51 122.40 266.53 120.27 C 264.89 120.25 263.24 120.23 261.61 120.21 C 261.56 121.68 261.51 123.15 261.49 124.62 C 260.97 124.62 259.92 124.63 259.40 124.63 C 259.16 123.09 259.09 121.48 258.35 120.09 C 258.14 119.74 257.73 119.05 257.53 118.71 C 257.50 116.95 257.52 115.19 257.54 113.44 C 255.07 112.77 252.42 111.74 249.85 112.54 C 247.77 113.35 245.92 114.64 244.01 115.79 C 242.52 113.03 241.66 110.00 240.70 107.03 C 242.34 105.75 243.93 104.39 245.56 103.09 Z" />
</g>
<g id="#5da9e0ff">
<path fill="#5da9e0" opacity="1.00" d=" M 278.31 100.13 C 279.79 100.87 281.28 101.60 282.73 102.41 C 286.44 104.76 289.86 107.55 292.77 110.84 C 292.23 111.05 291.16 111.46 290.62 111.67 C 287.77 111.38 284.75 111.08 282.76 108.73 C 281.93 108.95 281.10 109.17 280.27 109.39 C 278.84 107.98 277.43 106.55 276.04 105.11 C 276.88 103.49 277.60 101.81 278.31 100.13 Z" />
</g>
<g id="#08326cff">
<path fill="#08326c" opacity="1.00" d=" M 335.38 101.43 C 337.89 105.17 339.78 109.30 341.32 113.53 C 342.69 117.84 343.75 122.25 344.18 126.76 C 344.29 130.99 344.02 135.23 344.18 139.47 C 343.89 141.05 343.63 142.65 343.34 144.23 C 342.99 145.89 342.56 147.53 342.18 149.17 C 341.73 150.64 341.24 152.09 340.71 153.52 C 340.70 153.57 340.66 153.66 340.64 153.70 C 337.76 161.11 333.20 167.75 327.77 173.52 C 326.93 172.30 326.09 171.08 325.22 169.90 C 327.41 167.57 329.86 165.47 331.75 162.87 C 334.42 158.88 334.76 153.94 335.42 149.33 C 337.03 148.93 339.42 148.96 339.89 146.94 C 340.33 141.14 339.67 135.32 340.01 129.52 C 344.18 119.94 338.07 110.43 335.38 101.43 Z" />
</g>
<g id="#3076c2ff">
<path fill="#3076c2" opacity="1.00" d=" M 235.42 114.18 C 236.47 111.36 238.76 109.26 240.70 107.03 C 241.66 110.00 242.52 113.03 244.01 115.79 C 244.63 116.83 245.28 117.85 245.94 118.87 C 243.50 118.86 241.06 118.97 238.70 119.60 L 238.15 118.99 C 237.06 117.56 235.23 116.15 235.42 114.18 Z" />
</g>
<g id="#80bee7ff">
<path fill="#80bee7" opacity="1.00" d=" M 292.77 110.84 C 293.02 111.12 293.52 111.67 293.77 111.95 C 295.40 114.13 296.85 116.47 297.89 119.00 C 297.93 119.32 298.00 119.95 298.04 120.27 C 293.28 117.99 288.22 116.46 283.47 114.17 C 285.85 113.34 288.26 112.57 290.62 111.67 C 291.16 111.46 292.23 111.05 292.77 110.84 Z" />
</g>
<g id="#348ad7ff">
<path fill="#348ad7" opacity="1.00" d=" M 244.01 115.79 C 245.92 114.64 247.77 113.35 249.85 112.54 C 252.42 111.74 255.07 112.77 257.54 113.44 C 257.52 115.19 257.50 116.95 257.53 118.71 C 253.67 118.93 249.80 118.90 245.94 118.87 C 245.28 117.85 244.63 116.83 244.01 115.79 Z" />
</g>
<g id="#4289cbff">
<path fill="#4289cb" opacity="1.00" d=" M 293.77 111.95 C 298.30 111.05 302.90 111.86 307.34 112.87 C 305.03 114.04 303.44 115.99 303.16 118.60 C 301.40 118.74 299.64 118.87 297.89 119.00 C 296.85 116.47 295.40 114.13 293.77 111.95 Z" />
</g>
<g id="#237ec6ff">
<path fill="#237ec6" opacity="1.00" d=" M 307.34 112.87 C 311.84 114.06 315.99 116.30 319.78 118.97 C 317.07 121.92 315.17 125.45 312.87 128.69 C 311.28 126.42 309.75 123.95 307.12 122.76 C 306.49 121.93 305.87 121.11 305.26 120.28 C 302.85 120.35 300.44 120.36 298.04 120.27 C 298.00 119.95 297.93 119.32 297.89 119.00 C 299.64 118.87 301.40 118.74 303.16 118.60 C 303.44 115.99 305.03 114.04 307.34 112.87 Z" />
</g>
<g id="#1423374d">
<path fill="#142337" opacity="0.30" d=" M 341.32 113.53 C 345.55 114.37 349.95 114.87 353.72 117.13 C 354.03 119.37 354.32 121.61 354.56 123.86 C 354.85 122.18 355.15 120.50 355.41 118.82 C 356.50 124.33 355.99 130.09 354.73 135.53 C 354.19 132.85 353.65 130.17 353.27 127.47 C 351.36 126.91 349.41 126.53 347.45 126.24 C 343.64 129.36 345.73 134.36 344.46 138.44 C 345.29 134.57 344.85 130.61 344.18 126.76 C 343.75 122.25 342.69 117.84 341.32 113.53 Z" />
</g>
<g id="#6bafe0ff">
<path fill="#6bafe0" opacity="1.00" d=" M 275.88 118.35 C 278.29 116.76 280.73 115.16 283.47 114.17 C 288.22 116.46 293.28 117.99 298.04 120.27 C 297.95 123.59 297.93 126.91 297.89 130.22 C 297.55 127.74 297.01 125.28 296.48 122.83 C 296.34 124.77 296.21 126.71 296.03 128.65 C 290.66 126.94 285.25 130.17 279.84 128.67 C 279.86 125.99 279.69 123.31 279.38 120.65 C 278.31 127.82 278.64 135.09 278.69 142.32 C 283.85 142.52 289.05 142.01 294.18 142.77 C 288.82 143.14 283.45 142.76 278.09 142.89 C 278.37 135.31 278.07 127.72 278.18 120.14 C 277.60 119.69 276.45 118.80 275.88 118.35 Z" />
</g>
<g id="#00359eff">
<path fill="#00359e" opacity="1.00" d=" M 234.09 120.08 C 234.69 118.70 236.86 118.89 238.15 118.99 L 238.70 119.60 L 238.55 120.22 C 237.06 120.30 235.56 120.32 234.09 120.08 Z" />
</g>
<g id="#1270beff">
<path fill="#1270be" opacity="1.00" d=" M 238.70 119.60 C 241.06 118.97 243.50 118.86 245.94 118.87 C 249.80 118.90 253.67 118.93 257.53 118.71 C 257.73 119.05 258.14 119.74 258.35 120.09 C 258.45 121.80 258.18 123.51 257.54 125.10 C 257.44 123.45 257.39 121.81 257.35 120.16 C 251.09 120.35 244.82 120.27 238.55 120.22 L 238.70 119.60 Z" />
<path fill="#1270be" opacity="1.00" d=" M 319.78 118.97 C 321.91 120.57 323.63 122.61 325.25 124.71 C 324.27 124.33 323.30 123.95 322.33 123.57 C 321.77 128.29 320.99 132.99 320.87 137.75 C 320.02 139.12 319.17 140.50 318.33 141.87 C 314.60 135.50 310.71 129.22 307.12 122.76 C 309.75 123.95 311.28 126.42 312.87 128.69 C 315.17 125.45 317.07 121.92 319.78 118.97 Z" />
</g>
<g id="#000000ff">
<path fill="#000000" opacity="1.00" d=" M 47.10 120.00 C 49.07 120.20 51.06 120.23 53.03 120.02 C 57.12 127.35 60.62 135.01 64.48 142.47 C 69.11 135.09 73.18 127.36 77.86 120.02 C 79.54 120.18 81.22 120.14 82.90 120.01 C 77.71 129.21 72.19 138.24 66.89 147.40 C 65.21 147.44 63.53 147.50 61.85 147.61 C 56.72 138.54 51.91 129.26 47.10 120.00 Z" />
<path fill="#000000" opacity="1.00" d=" M 86.12 120.17 C 87.79 120.16 89.46 120.14 91.13 120.10 C 91.18 129.24 91.14 138.37 91.15 147.51 C 89.44 147.47 87.73 147.44 86.02 147.40 C 86.14 138.32 85.95 129.24 86.12 120.17 Z" />
<path fill="#000000" opacity="1.00" d=" M 112.36 120.13 C 114.30 120.22 116.25 120.19 118.19 120.01 C 123.30 129.05 127.81 138.41 132.68 147.58 C 130.73 147.47 128.78 147.43 126.83 147.59 C 125.26 145.26 124.27 142.61 122.89 140.16 C 117.39 140.38 111.87 140.32 106.37 140.20 C 104.88 142.51 103.79 145.06 102.20 147.30 C 100.11 147.72 97.93 147.38 95.81 147.50 C 101.47 138.47 106.72 129.18 112.36 120.13 M 108.76 135.89 C 112.78 135.79 116.81 135.63 120.81 136.01 C 119.18 132.13 116.88 128.55 115.53 124.55 C 112.73 127.89 111.04 132.14 108.76 135.89 Z" />
<path fill="#000000" opacity="1.00" d=" M 136.17 124.11 C 138.11 121.78 141.04 120.56 143.95 120.02 C 150.52 118.80 157.44 120.07 163.25 123.32 C 162.35 124.73 161.32 126.05 160.21 127.31 C 156.23 124.96 151.49 124.16 146.92 124.28 C 143.97 124.37 140.74 125.56 139.83 128.65 C 141.00 129.81 142.50 130.57 144.14 130.76 C 148.84 131.32 153.68 131.28 158.22 132.78 C 160.84 133.60 163.19 136.07 162.80 138.99 C 162.47 143.60 158.18 146.74 153.99 147.74 C 146.85 149.26 138.88 148.16 132.98 143.66 C 134.09 142.18 135.36 140.84 136.69 139.55 C 141.51 143.78 148.61 144.49 154.56 142.63 C 156.09 141.82 158.07 140.15 156.97 138.25 C 155.35 136.15 152.39 136.26 150.01 136.00 C 145.78 135.58 141.26 135.68 137.38 133.70 C 133.99 131.86 133.52 126.78 136.17 124.11 Z" />
<path fill="#000000" opacity="1.00" d=" M 179.30 120.21 C 181.29 120.21 183.27 120.16 185.25 120.01 C 190.44 129.00 194.88 138.41 199.73 147.58 C 197.77 147.47 195.81 147.44 193.86 147.56 C 192.45 145.14 191.27 142.60 189.99 140.12 C 184.47 140.43 178.93 140.28 173.41 140.20 C 171.97 142.66 170.71 145.23 169.06 147.56 C 167.02 147.45 164.98 147.46 162.95 147.52 C 168.41 138.42 173.93 129.36 179.30 120.21 M 175.84 135.97 C 179.89 135.67 183.95 135.79 188.00 135.87 C 186.16 132.16 184.05 128.57 182.62 124.67 C 179.69 127.84 178.17 132.28 175.84 135.97 Z" />
<path fill="#000000" opacity="1.00" d=" M 197.08 120.29 C 206.14 120.34 215.21 120.52 224.26 120.20 C 224.30 121.79 224.32 123.39 224.33 124.99 C 220.56 124.97 216.80 124.96 213.04 124.98 C 213.14 132.48 213.05 139.98 213.10 147.48 C 211.40 147.46 209.70 147.45 208.00 147.45 C 207.99 139.96 208.01 132.47 207.99 124.98 C 204.33 124.96 200.67 124.98 197.01 124.97 C 197.02 123.41 197.04 121.85 197.08 120.29 Z" />
</g>
<g id="#ffffffff">
<path fill="#ffffff" opacity="1.00" d=" M 234.09 120.08 C 235.56 120.32 237.06 120.30 238.55 120.22 C 244.82 120.27 251.09 120.35 257.35 120.16 C 257.39 121.81 257.44 123.45 257.54 125.10 C 255.98 125.03 254.42 124.98 252.86 124.94 C 248.23 124.88 243.60 124.94 238.98 124.93 C 238.98 125.43 238.98 126.45 238.98 126.96 C 238.98 127.73 238.98 129.26 238.98 130.02 L 238.99 131.09 L 238.99 131.99 C 244.77 131.88 250.55 131.92 256.34 131.99 C 256.34 133.15 256.33 134.31 256.32 135.48 L 256.22 136.71 C 250.47 136.52 244.72 136.60 238.98 136.58 L 238.98 138.02 C 238.96 141.19 239.00 144.36 239.02 147.54 C 237.27 147.46 235.51 147.43 233.76 147.41 C 233.95 138.30 233.42 129.16 234.09 120.08 Z" />
<path fill="#ffffff" opacity="1.00" d=" M 261.61 120.21 C 263.24 120.23 264.89 120.25 266.53 120.27 C 266.51 122.40 266.48 124.53 266.51 126.66 C 266.57 133.59 266.77 140.53 266.43 147.45 C 264.78 147.45 263.13 147.46 261.49 147.48 C 261.43 143.94 261.33 140.39 261.40 136.84 C 261.53 132.77 261.44 128.69 261.49 124.62 C 261.51 123.15 261.56 121.68 261.61 120.21 Z" />
<path fill="#ffffff" opacity="1.00" d=" M 273.36 120.18 C 274.97 120.19 276.57 120.18 278.18 120.14 C 278.07 127.72 278.37 135.31 278.09 142.89 C 283.45 142.76 288.82 143.14 294.18 142.77 C 294.18 144.34 294.19 145.91 294.21 147.48 C 287.15 146.90 280.06 147.41 272.98 147.35 C 272.95 138.49 273.03 129.62 272.93 120.76 L 273.36 120.18 Z" />
<path fill="#ffffff" opacity="1.00" d=" M 298.04 120.27 C 300.44 120.36 302.85 120.35 305.26 120.28 C 305.87 121.11 306.49 121.93 307.12 122.76 C 310.71 129.22 314.60 135.50 318.33 141.87 C 319.17 140.50 320.02 139.12 320.87 137.75 C 324.26 131.99 328.12 126.51 331.18 120.57 C 333.56 120.29 335.97 120.31 338.38 120.28 C 338.49 129.33 338.37 138.37 338.44 147.42 C 336.70 147.40 334.97 147.38 333.24 147.38 C 333.31 140.27 333.31 133.16 333.31 126.05 C 332.10 128.02 330.94 130.03 329.74 132.01 C 326.78 136.68 323.96 141.43 321.04 146.12 C 320.12 148.12 317.61 147.23 315.90 147.60 C 314.75 145.80 313.62 143.98 312.54 142.14 C 309.44 136.74 306.25 131.39 302.90 126.14 C 303.26 133.21 303.00 140.29 303.03 147.36 C 301.33 147.39 299.62 147.41 297.93 147.44 C 298.06 141.70 298.00 135.96 297.89 130.22 C 297.93 126.91 297.95 123.59 298.04 120.27 Z" />
</g>
<g id="#225ebaff">
<path fill="#225eba" opacity="1.00" d=" M 258.35 120.09 C 259.09 121.48 259.16 123.09 259.40 124.63 C 259.92 124.63 260.97 124.62 261.49 124.62 C 261.44 128.69 261.53 132.77 261.40 136.84 C 261.00 138.71 260.50 140.56 260.00 142.40 C 258.97 139.99 257.78 137.65 256.32 135.48 C 256.33 134.31 256.34 133.15 256.34 131.99 C 250.55 131.92 244.77 131.88 238.99 131.99 L 238.99 131.09 C 245.09 131.19 251.26 131.84 257.32 130.79 C 251.46 128.73 245.06 130.62 238.98 130.02 C 238.98 129.26 238.98 127.73 238.98 126.96 C 245.11 125.73 251.27 127.75 257.43 126.88 C 255.94 126.15 254.43 125.45 252.86 124.94 C 254.42 124.98 255.98 125.03 257.54 125.10 C 258.18 123.51 258.45 121.80 258.35 120.09 Z" />
</g>
<g id="#619fd7ff">
<path fill="#619fd7" opacity="1.00" d=" M 266.51 126.66 C 268.78 124.85 271.02 122.97 272.93 120.76 C 273.03 129.62 272.95 138.49 272.98 147.35 C 280.06 147.41 287.15 146.90 294.21 147.48 C 292.42 147.85 290.59 147.98 288.78 147.97 C 286.39 147.95 284.01 147.93 281.64 148.07 C 280.24 148.49 278.83 148.90 277.53 149.57 C 275.12 153.30 273.51 157.64 273.18 162.10 C 268.68 159.05 265.61 154.48 262.91 149.87 C 264.28 149.38 265.66 148.89 267.04 148.41 C 265.18 148.12 263.33 147.81 261.49 147.48 C 263.13 147.46 264.78 147.45 266.43 147.45 C 266.77 140.53 266.57 133.59 266.51 126.66 Z" />
</g>
<g id="#3a86d2ff">
<path fill="#3a86d2" opacity="1.00" d=" M 279.38 120.65 C 279.69 123.31 279.86 125.99 279.84 128.67 C 279.71 132.74 279.56 136.83 279.94 140.89 C 282.19 140.91 284.45 140.95 286.71 140.91 C 289.72 140.83 292.73 140.55 295.73 140.18 C 295.17 143.05 294.27 146.14 296.05 148.78 C 293.54 151.30 291.65 154.40 291.02 157.94 C 291.43 158.21 292.26 158.76 292.67 159.03 C 292.25 163.22 291.41 167.36 291.28 171.58 C 290.09 171.85 288.91 172.11 287.73 172.37 C 286.56 174.76 284.17 177.97 286.71 180.31 C 288.23 180.72 289.82 180.73 291.39 180.76 C 288.78 182.13 286.23 183.61 283.54 184.82 C 283.32 184.92 282.88 185.10 282.65 185.20 C 281.27 184.32 279.89 183.46 278.49 182.62 C 278.99 179.79 277.48 177.31 276.55 174.76 C 276.52 172.89 277.20 171.09 277.62 169.28 C 275.88 169.05 274.14 168.81 272.40 168.57 C 273.08 167.18 273.77 165.78 274.46 164.39 C 275.88 164.98 277.29 165.60 278.58 166.46 C 281.30 169.04 284.84 170.28 288.43 171.12 C 287.07 168.72 287.12 166.02 287.66 163.40 C 286.19 163.91 284.72 164.42 283.26 164.93 C 284.38 159.07 286.13 153.32 288.78 147.97 C 290.59 147.98 292.42 147.85 294.21 147.48 C 294.19 145.91 294.18 144.34 294.18 142.77 C 289.05 142.01 283.85 142.52 278.69 142.32 C 278.64 135.09 278.31 127.82 279.38 120.65 Z" />
</g>
<g id="#01135fff">
<path fill="#01135f" opacity="1.00" d=" M 338.67 147.66 C 339.14 138.61 338.56 129.50 339.61 120.48 C 339.88 123.49 340.00 126.50 340.01 129.52 C 339.67 135.32 340.33 141.14 339.89 146.94 C 339.42 148.96 337.03 148.93 335.42 149.33 C 335.05 149.00 334.30 148.35 333.93 148.02 C 335.51 147.93 337.09 147.79 338.67 147.66 Z" />
</g>
<g id="#4597d3ff">
<path fill="#4597d3" opacity="1.00" d=" M 296.48 122.83 C 297.01 125.28 297.55 127.74 297.89 130.22 C 298.00 135.96 298.06 141.70 297.93 147.44 C 297.27 143.26 297.19 139.02 296.67 134.83 C 296.36 136.61 296.05 138.39 295.73 140.18 C 292.73 140.55 289.72 140.83 286.71 140.91 C 286.61 139.18 285.57 137.18 286.55 135.60 C 288.99 133.36 292.53 133.27 295.59 132.45 C 295.74 131.18 295.89 129.91 296.03 128.65 C 296.21 126.71 296.34 124.77 296.48 122.83 Z" />
</g>
<g id="#094eb3ff">
<path fill="#094eb3" opacity="1.00" d=" M 238.98 124.93 C 243.60 124.94 248.23 124.88 252.86 124.94 C 254.43 125.45 255.94 126.15 257.43 126.88 C 251.27 127.75 245.11 125.73 238.98 126.96 C 238.98 126.45 238.98 125.43 238.98 124.93 Z" />
</g>
<g id="#0e192837">
<path fill="#0e1928" opacity="0.22" d=" M 347.45 126.24 C 349.41 126.53 351.36 126.91 353.27 127.47 C 353.65 130.17 354.19 132.85 354.73 135.53 C 354.37 140.41 351.96 145.02 349.68 149.31 C 349.58 148.31 349.44 147.32 349.31 146.33 C 347.24 145.88 345.18 145.32 343.34 144.23 C 343.63 142.65 343.89 141.05 344.18 139.47 L 344.46 138.44 C 345.73 134.36 343.64 129.36 347.45 126.24 Z" />
</g>
<g id="#1c69b9ff">
<path fill="#1c69b9" opacity="1.00" d=" M 302.90 126.14 C 306.25 131.39 309.44 136.74 312.54 142.14 C 311.39 145.61 315.17 147.89 317.14 150.13 C 315.43 154.31 313.35 158.36 310.68 162.02 L 310.45 162.32 C 304.90 162.74 299.59 164.97 295.93 169.25 C 298.30 164.14 296.05 158.42 297.17 153.10 C 297.67 151.41 299.31 150.47 300.55 149.34 C 299.97 149.18 298.83 148.87 298.26 148.71 C 298.17 148.39 298.01 147.76 297.93 147.44 C 299.62 147.41 301.33 147.39 303.03 147.36 C 303.00 140.29 303.26 133.21 302.90 126.14 Z" />
</g>
<g id="#092986ff">
<path fill="#092986" opacity="1.00" d=" M 329.74 132.01 C 330.94 130.03 332.10 128.02 333.31 126.05 C 333.31 133.16 333.31 140.27 333.24 147.38 C 332.92 147.03 332.29 146.32 331.97 145.97 C 332.00 141.46 332.33 136.94 331.95 132.43 C 331.21 132.29 330.47 132.15 329.74 132.01 Z" />
</g>
<g id="#1a345280">
<path fill="#1a3452" opacity="0.50" d=" M 344.18 126.76 C 344.85 130.61 345.29 134.57 344.46 138.44 L 344.18 139.47 C 344.02 135.23 344.29 130.99 344.18 126.76 Z" />
</g>
<g id="#56a0d7ff">
<path fill="#56a0d7" opacity="1.00" d=" M 279.84 128.67 C 285.25 130.17 290.66 126.94 296.03 128.65 C 295.89 129.91 295.74 131.18 295.59 132.45 C 292.53 133.27 288.99 133.36 286.55 135.60 C 285.57 137.18 286.61 139.18 286.71 140.91 C 284.45 140.95 282.19 140.91 279.94 140.89 C 279.56 136.83 279.71 132.74 279.84 128.67 Z" />
</g>
<g id="#0348b1ff">
<path fill="#0348b1" opacity="1.00" d=" M 238.98 130.02 C 245.06 130.62 251.46 128.73 257.32 130.79 C 251.26 131.84 245.09 131.19 238.99 131.09 L 238.98 130.02 Z" />
</g>
<g id="#0a3f99ff">
<path fill="#0a3f99" opacity="1.00" d=" M 321.04 146.12 C 323.96 141.43 326.78 136.68 329.74 132.01 C 330.47 132.15 331.21 132.29 331.95 132.43 C 332.33 136.94 332.00 141.46 331.97 145.97 C 332.29 146.32 332.92 147.03 333.24 147.38 C 333.41 147.54 333.76 147.86 333.93 148.02 C 334.30 148.35 335.05 149.00 335.42 149.33 C 334.76 153.94 334.42 158.88 331.75 162.87 C 329.86 165.47 327.41 167.57 325.22 169.90 L 324.88 169.49 C 321.35 165.17 316.26 162.40 310.68 162.02 C 313.35 158.36 315.43 154.31 317.14 150.13 C 315.17 147.89 311.39 145.61 312.54 142.14 C 313.62 143.98 314.75 145.80 315.90 147.60 C 317.61 147.23 320.12 148.12 321.04 146.12 Z" />
</g>
<g id="#2a77c8ff">
<path fill="#2a77c8" opacity="1.00" d=" M 296.67 134.83 C 297.19 139.02 297.27 143.26 297.93 147.44 C 298.01 147.76 298.17 148.39 298.26 148.71 C 298.83 148.87 299.97 149.18 300.55 149.34 C 299.31 150.47 297.67 151.41 297.17 153.10 C 296.05 158.42 298.30 164.14 295.93 169.25 C 294.30 172.48 292.89 175.98 293.36 179.68 C 293.23 179.75 292.97 179.91 292.84 179.99 C 292.48 180.18 291.75 180.57 291.39 180.76 C 289.82 180.73 288.23 180.72 286.71 180.31 C 284.17 177.97 286.56 174.76 287.73 172.37 C 288.91 172.11 290.09 171.85 291.28 171.58 C 291.41 167.36 292.25 163.22 292.67 159.03 C 292.26 158.76 291.43 158.21 291.02 157.94 C 291.65 154.40 293.54 151.30 296.05 148.78 C 294.27 146.14 295.17 143.05 295.73 140.18 C 296.05 138.39 296.36 136.61 296.67 134.83 Z" />
</g>
<g id="#2477d3ff">
<path fill="#2477d3" opacity="1.00" d=" M 256.32 135.48 C 257.78 137.65 258.97 139.99 260.00 142.40 C 257.52 152.02 260.29 162.38 265.48 170.64 C 261.57 170.63 257.75 169.75 253.97 168.84 C 255.05 168.20 256.13 167.56 257.21 166.92 C 256.25 164.02 255.01 161.21 253.36 158.63 C 250.21 153.74 248.34 148.18 245.43 143.16 C 246.55 141.33 247.76 139.56 249.07 137.86 C 251.31 137.26 255.03 139.01 256.22 136.71 L 256.32 135.48 Z" />
</g>
<g id="#0041b5ff">
<path fill="#0041b5" opacity="1.00" d=" M 238.98 136.58 C 244.72 136.60 250.47 136.52 256.22 136.71 C 255.03 139.01 251.31 137.26 249.07 137.86 C 248.59 137.89 247.63 137.95 247.15 137.98 C 244.43 138.10 241.70 138.04 238.98 138.02 L 238.98 136.58 Z" />
</g>
<g id="#589fe0ff">
<path fill="#589fe0" opacity="1.00" d=" M 261.40 136.84 C 261.33 140.39 261.43 143.94 261.49 147.48 C 263.33 147.81 265.18 148.12 267.04 148.41 C 265.66 148.89 264.28 149.38 262.91 149.87 C 265.61 154.48 268.68 159.05 273.18 162.10 C 273.51 157.64 275.12 153.30 277.53 149.57 C 278.83 148.90 280.24 148.49 281.64 148.07 C 278.16 153.49 278.01 160.24 278.58 166.46 C 277.29 165.60 275.88 164.98 274.46 164.39 C 273.77 165.78 273.08 167.18 272.40 168.57 C 274.14 168.81 275.88 169.05 277.62 169.28 C 277.20 171.09 276.52 172.89 276.55 174.76 C 277.48 177.31 278.99 179.79 278.49 182.62 C 275.96 181.19 273.52 179.60 271.31 177.71 C 269.39 175.34 267.31 173.08 265.48 170.64 C 260.29 162.38 257.52 152.02 260.00 142.40 C 260.50 140.56 261.00 138.71 261.40 136.84 Z" />
</g>
<g id="#2465c1ff">
<path fill="#2465c1" opacity="1.00" d=" M 238.98 138.02 C 241.70 138.04 244.43 138.10 247.15 137.98 C 244.63 141.32 242.22 144.81 240.63 148.70 C 239.39 151.59 240.09 154.80 239.91 157.84 C 239.83 158.46 239.67 159.71 239.60 160.33 C 238.17 156.59 235.97 153.24 234.26 149.64 C 235.88 149.04 237.70 148.73 239.02 147.54 C 239.00 144.36 238.96 141.19 238.98 138.02 Z" />
</g>
<g id="#2e87ddff">
<path fill="#2e87dd" opacity="1.00" d=" M 247.15 137.98 C 247.63 137.95 248.59 137.89 249.07 137.86 C 247.76 139.56 246.55 141.33 245.43 143.16 C 248.34 148.18 250.21 153.74 253.36 158.63 C 255.01 161.21 256.25 164.02 257.21 166.92 C 256.13 167.56 255.05 168.20 253.97 168.84 C 251.23 168.02 248.60 166.88 245.95 165.81 C 244.25 162.93 242.17 160.30 239.91 157.84 C 240.09 154.80 239.39 151.59 240.63 148.70 C 242.22 144.81 244.63 141.32 247.15 137.98 Z" />
</g>
<g id="#0a121c26">
<path fill="#0a121c" opacity="0.15" d=" M 342.18 149.17 C 342.56 147.53 342.99 145.89 343.34 144.23 C 345.18 145.32 347.24 145.88 349.31 146.33 C 349.44 147.32 349.58 148.31 349.68 149.31 C 347.21 154.43 343.34 159.05 338.65 162.31 C 339.60 157.90 343.82 153.82 342.18 149.17 Z" />
</g>
<g id="#488ed0ff">
<path fill="#488ed0" opacity="1.00" d=" M 281.64 148.07 C 284.01 147.93 286.39 147.95 288.78 147.97 C 286.13 153.32 284.38 159.07 283.26 164.93 C 284.72 164.42 286.19 163.91 287.66 163.40 C 287.12 166.02 287.07 168.72 288.43 171.12 C 284.84 170.28 281.30 169.04 278.58 166.46 C 278.01 160.24 278.16 153.49 281.64 148.07 Z" />
</g>
<g id="#18395eb6">
<path fill="#18395e" opacity="0.71" d=" M 340.64 153.70 C 340.66 153.66 340.70 153.57 340.71 153.52 C 340.70 153.57 340.66 153.66 340.64 153.70 Z" />
</g>
<g id="#326ab4ff">
<path fill="#326ab4" opacity="1.00" d=" M 4.14 156.97 C 10.51 157.50 17.50 155.60 23.41 158.71 C 27.95 160.83 28.84 167.82 24.91 170.95 C 20.76 174.79 14.72 173.91 9.55 173.95 C 9.57 176.63 9.58 179.31 9.60 182.00 C 7.79 182.00 5.97 182.00 4.15 182.01 C 4.20 173.66 4.23 165.32 4.14 156.97 M 9.59 161.01 C 9.56 164.00 9.57 167.00 9.56 169.99 C 13.25 169.66 17.56 171.06 20.68 168.43 C 22.56 167.01 22.47 163.88 20.70 162.40 C 17.41 160.18 13.29 161.27 9.59 161.01 Z" />
<path fill="#326ab4" opacity="1.00" d=" M 32.74 156.96 C 38.19 157.11 43.67 156.72 49.10 157.17 C 53.09 157.64 57.41 160.58 57.19 165.02 C 57.36 169.15 53.51 171.63 50.05 172.75 C 52.94 175.78 55.49 179.11 58.38 182.15 C 56.22 182.03 54.06 181.98 51.90 181.99 C 49.42 179.18 47.08 176.26 44.59 173.47 C 42.53 172.87 40.26 173.41 38.12 173.22 C 37.98 176.14 38.01 179.07 38.03 182.00 C 36.26 182.00 34.50 182.00 32.74 182.00 C 32.76 173.65 32.75 165.31 32.74 156.96 M 38.04 161.02 C 38.02 163.81 38.02 166.60 38.01 169.39 C 42.24 169.05 47.12 170.50 50.80 167.78 C 52.38 166.19 51.98 164.06 50.83 162.37 C 46.93 160.12 42.31 161.30 38.04 161.02 Z" />
<path fill="#326ab4" opacity="1.00" d=" M 63.51 156.96 C 70.91 156.99 78.31 156.97 85.72 156.97 C 85.70 158.31 85.69 159.65 85.68 161.00 C 80.05 161.01 74.42 160.99 68.78 161.01 C 68.78 163.15 68.78 165.29 68.79 167.44 C 73.78 167.26 78.76 167.46 83.74 167.26 C 83.81 168.61 83.88 169.97 83.95 171.33 C 78.89 171.39 73.83 171.39 68.78 171.28 C 68.78 173.55 68.78 175.81 68.77 178.08 C 74.47 178.02 80.17 178.09 85.86 178.02 C 85.90 179.35 85.94 180.67 85.97 182.00 C 78.49 182.00 71.00 181.99 63.52 182.01 C 63.54 173.66 63.56 165.31 63.51 156.96 Z" />
<path fill="#326ab4" opacity="1.00" d=" M 92.01 156.98 C 93.90 156.97 95.78 156.97 97.67 156.98 C 100.74 160.93 103.74 164.94 106.86 168.85 C 109.66 164.76 112.87 160.96 115.81 156.97 C 117.67 156.96 119.54 156.96 121.42 156.97 C 121.37 165.31 121.39 173.66 121.41 182.00 C 119.62 182.00 117.83 182.00 116.05 182.00 C 116.18 176.02 115.94 170.03 116.23 164.05 C 113.00 168.03 109.79 172.04 106.69 176.13 C 103.45 172.24 100.69 167.87 97.04 164.37 C 97.36 170.24 97.16 176.12 97.22 182.00 C 95.48 182.00 93.75 182.00 92.02 182.00 C 92.08 173.66 92.08 165.32 92.01 156.98 Z" />
<path fill="#326ab4" opacity="1.00" d=" M 129.24 156.98 C 131.05 156.97 132.87 156.97 134.68 156.97 C 134.61 165.31 134.63 173.66 134.67 182.00 C 132.86 182.00 131.06 182.00 129.25 182.00 C 129.30 173.66 129.32 165.32 129.24 156.98 Z" />
<path fill="#326ab4" opacity="1.00" d=" M 142.47 156.97 C 149.92 156.98 157.37 156.97 164.83 156.97 C 164.81 158.31 164.80 159.66 164.79 161.00 C 159.14 161.00 153.49 160.99 147.85 161.01 C 147.84 163.14 147.84 165.28 147.85 167.42 C 152.78 167.27 157.73 167.49 162.66 167.22 C 162.74 168.60 162.80 169.98 162.86 171.37 C 157.86 171.33 152.86 171.45 147.87 171.25 C 147.84 173.52 147.83 175.79 147.84 178.07 C 153.52 178.03 159.20 178.09 164.89 178.01 C 164.92 179.34 164.96 180.67 165.01 182.00 C 157.49 181.97 149.97 182.06 142.45 181.95 C 142.54 173.63 142.51 165.30 142.47 156.97 Z" />
<path fill="#326ab4" opacity="1.00" d=" M 171.04 156.98 C 178.19 157.62 186.17 155.25 192.66 159.17 C 198.10 162.82 195.17 172.24 188.63 172.19 C 190.57 175.93 194.09 178.71 196.55 182.18 C 194.48 182.04 192.41 181.98 190.33 181.99 C 187.59 179.20 185.37 175.96 182.67 173.14 C 180.61 173.42 178.49 172.95 176.47 173.35 C 176.20 176.22 176.40 179.12 176.37 182.01 C 174.59 182.00 172.82 182.00 171.05 182.00 C 171.10 173.66 171.13 165.32 171.04 156.98 M 176.39 161.01 C 176.33 163.83 176.33 166.66 176.42 169.49 C 180.14 169.27 183.91 169.70 187.58 168.92 C 188.40 168.18 189.22 167.44 190.06 166.72 C 190.15 165.07 190.28 163.18 188.68 162.14 C 184.93 160.09 180.46 161.39 176.39 161.01 Z" />
<path fill="#326ab4" opacity="1.00" d=" M 201.91 156.97 C 209.27 156.98 216.63 156.97 224.00 156.97 C 223.99 158.31 224.00 159.65 224.00 161.00 C 218.38 161.00 212.75 160.99 207.13 161.00 C 207.10 163.15 207.13 165.30 207.25 167.45 C 212.19 167.26 217.14 167.45 222.08 167.28 C 222.08 168.31 222.08 170.37 222.08 171.41 C 217.14 171.30 212.19 171.45 207.25 171.26 C 207.15 173.52 207.11 175.79 207.09 178.05 C 212.80 178.05 218.51 178.09 224.22 178.01 C 224.24 179.34 224.25 180.67 224.27 182.00 C 216.82 182.00 209.37 182.00 201.91 181.99 C 201.91 173.65 201.92 165.31 201.91 156.97 Z" />
</g>
<g id="#2e6bb5ff">
<path fill="#2e6bb5" opacity="1.00" d=" M 239.91 157.84 C 242.17 160.30 244.25 162.93 245.95 165.81 C 248.01 169.76 251.81 172.26 255.43 174.64 C 261.15 178.25 267.61 180.55 274.11 182.31 C 273.18 180.78 272.29 179.22 271.31 177.71 C 273.52 179.60 275.96 181.19 278.49 182.62 C 279.89 183.46 281.27 184.32 282.65 185.20 C 278.67 187.06 274.32 187.84 269.95 187.89 C 259.42 185.40 249.75 178.84 242.79 170.62 C 241.81 167.16 240.38 163.84 239.60 160.33 C 239.67 159.71 239.83 158.46 239.91 157.84 Z" />
</g>
<g id="#3c80c8ff">
<path fill="#3c80c8" opacity="1.00" d=" M 295.93 169.25 C 299.59 164.97 304.90 162.74 310.45 162.32 C 305.97 169.18 300.18 175.14 293.36 179.68 C 292.89 175.98 294.30 172.48 295.93 169.25 Z" />
</g>
<g id="#245ca8ff">
<path fill="#245ca8" opacity="1.00" d=" M 310.45 162.32 L 310.68 162.02 C 316.26 162.40 321.35 165.17 324.88 169.49 C 321.36 171.65 317.86 173.84 314.45 176.16 C 307.03 178.41 300.34 182.54 293.91 186.77 C 293.72 186.39 293.34 185.62 293.15 185.24 C 292.98 183.49 292.91 181.74 292.84 179.99 C 292.97 179.91 293.23 179.75 293.36 179.68 C 300.18 175.14 305.97 169.18 310.45 162.32 Z" />
</g>
<g id="#3d89d8ff">
<path fill="#3d89d8" opacity="1.00" d=" M 245.95 165.81 C 248.60 166.88 251.23 168.02 253.97 168.84 C 257.75 169.75 261.57 170.63 265.48 170.64 C 267.31 173.08 269.39 175.34 271.31 177.71 C 272.29 179.22 273.18 180.78 274.11 182.31 C 267.61 180.55 261.15 178.25 255.43 174.64 C 251.81 172.26 248.01 169.76 245.95 165.81 Z" />
</g>
<g id="#1c438aff">
<path fill="#1c438a" opacity="1.00" d=" M 314.45 176.16 C 317.86 173.84 321.36 171.65 324.88 169.49 L 325.22 169.90 C 326.09 171.08 326.93 172.30 327.77 173.52 C 322.97 178.61 317.07 182.61 310.73 185.54 C 310.50 185.65 310.05 185.85 309.83 185.95 C 304.92 187.86 299.79 190.01 294.43 189.81 L 295.33 189.14 C 298.81 187.23 303.00 187.20 306.49 185.30 C 309.66 182.76 311.98 179.35 314.45 176.16 Z" />
</g>
<g id="#275596ff">
<path fill="#275596" opacity="1.00" d=" M 293.91 186.77 C 300.34 182.54 307.03 178.41 314.45 176.16 C 311.98 179.35 309.66 182.76 306.49 185.30 C 303.00 187.20 298.81 187.23 295.33 189.14 C 294.97 188.55 294.27 187.36 293.91 186.77 Z" />
</g>
<g id="#1624384d">
<path fill="#162438" opacity="0.30" d=" M 312.69 185.97 C 317.81 183.41 322.17 179.70 326.84 176.45 C 327.37 179.22 327.86 182.12 326.88 184.85 C 325.88 189.11 322.42 192.00 319.57 195.04 L 320.75 195.39 C 314.50 199.83 305.29 199.29 299.53 194.25 C 301.72 194.43 304.70 196.68 306.36 194.34 C 308.50 191.61 312.15 189.65 312.69 185.97 Z" />
</g>
<g id="#094d92ff">
<path fill="#094d92" opacity="1.00" d=" M 291.39 180.76 C 291.75 180.57 292.48 180.18 292.84 179.99 C 292.91 181.74 292.98 183.49 293.15 185.24 C 290.32 187.79 286.54 186.03 283.54 184.82 C 286.23 183.61 288.78 182.13 291.39 180.76 Z" />
</g>
<g id="#07346fff">
<path fill="#07346f" opacity="1.00" d=" M 282.65 185.20 C 282.88 185.10 283.32 184.92 283.54 184.82 C 286.54 186.03 290.32 187.79 293.15 185.24 C 293.34 185.62 293.72 186.39 293.91 186.77 C 294.27 187.36 294.97 188.55 295.33 189.14 L 294.43 189.81 C 286.82 191.69 278.61 190.38 271.01 188.65 C 270.75 188.46 270.21 188.08 269.95 187.89 C 274.32 187.84 278.67 187.06 282.65 185.20 Z" />
</g>
<g id="#111e2e3d">
<path fill="#111e2e" opacity="0.24" d=" M 309.83 185.95 C 310.05 185.85 310.50 185.65 310.73 185.54 L 312.69 185.97 C 312.15 189.65 308.50 191.61 306.36 194.34 C 304.70 196.68 301.72 194.43 299.53 194.25 C 298.29 193.55 297.50 192.30 296.54 191.30 C 300.65 190.37 304.84 189.48 308.63 187.59 C 308.93 187.18 309.53 186.36 309.83 185.95 Z" />
</g>
</svg>
