<?xml version="1.0" encoding="UTF-8" standalone="yes"?>
<svg xmlns="http://www.w3.org/2000/svg" xmlns:xlink="http://www.w3.org/1999/xlink" width="81.33333333333333px" height="106.66666666666666px" viewBox="0 0 61 80" version="1.1">
  <g id="surface1">
    <path style=" stroke:none;fill-rule:nonzero;fill:rgb(63.529412%,77.647059%,8.235294%);fill-opacity:1;" d="M 6.660156 66.851562 L 15.527344 66.851562 L 15.527344 69.871094 L 9.894531 69.871094 L 9.894531 72.726562 L 14.550781 72.726562 L 14.550781 75.597656 L 9.894531 75.597656 L 9.894531 80 L 6.660156 80 Z M 6.660156 66.851562 "/>
    <path style=" stroke:none;fill-rule:nonzero;fill:rgb(63.529412%,77.647059%,8.235294%);fill-opacity:1;" d="M 19.550781 66.851562 L 22.820312 66.851562 L 22.820312 79.996094 L 19.550781 79.996094 Z M 19.550781 66.851562 "/>
    <path style=" stroke:none;fill-rule:nonzero;fill:rgb(63.529412%,77.647059%,8.235294%);fill-opacity:1;" d="M 27.6875 66.851562 L 30.957031 66.851562 L 30.957031 77.164062 L 36.59375 77.164062 L 36.59375 80 L 27.6875 80 Z M 27.6875 66.851562 "/>
    <path style=" stroke:none;fill-rule:nonzero;fill:rgb(63.529412%,77.647059%,8.235294%);fill-opacity:1;" d="M 41.074219 66.679688 L 42.253906 66.679688 L 47.234375 74.289062 L 52.214844 66.679688 L 53.398438 66.679688 L 54.335938 79.996094 L 51.066406 79.996094 L 50.695312 74.304688 L 47.480469 79.15625 L 46.78125 79.15625 L 43.570312 74.304688 L 43.195312 79.996094 L 40.128906 79.996094 Z M 41.074219 66.679688 "/>
    <path style=" stroke:none;fill-rule:nonzero;fill:rgb(63.529412%,77.647059%,8.235294%);fill-opacity:1;" d="M 28.078125 36.453125 L 28.078125 28.710938 C 28.078125 26.480469 26.25 24.6875 24 24.6875 L 6.726562 24.6875 C 4.488281 24.6875 2.65625 26.480469 2.65625 28.710938 L 2.65625 36.453125 C 2.65625 38.691406 4.488281 40.503906 6.726562 40.503906 L 24 40.503906 C 26.25 40.503906 28.078125 38.691406 28.078125 36.453125 M 0 0 L 2.65625 0 L 2.65625 7.515625 C 2.65625 9.753906 4.488281 11.550781 6.726562 11.550781 L 24 11.550781 C 26.25 11.550781 28.078125 9.753906 28.078125 7.515625 L 28.078125 0 L 61 0 L 61 60.542969 L 28.078125 60.542969 L 28.078125 57.652344 C 28.078125 55.429688 26.25 53.609375 24 53.609375 L 6.726562 53.609375 C 4.488281 53.609375 2.65625 55.429688 2.65625 57.652344 L 2.65625 60.542969 L 0 60.542969 Z M 0 0 "/>
    <path style=" stroke:none;fill-rule:nonzero;fill:rgb(100%,100%,100%);fill-opacity:1;" d="M 38.875 43.046875 L 45.21875 33.742188 L 45.21875 43.046875 Z M 55.21875 43.046875 L 51.898438 43.046875 L 51.898438 15.066406 C 51.898438 14.855469 51.761719 14.652344 51.558594 14.59375 C 51.339844 14.53125 51.105469 14.609375 50.980469 14.789062 L 28.078125 48.441406 C 27.964844 48.597656 27.949219 48.785156 28.035156 48.953125 C 28.117188 49.109375 28.292969 49.214844 28.488281 49.214844 L 45.394531 49.214844 L 45.394531 53 C 45.394531 53.28125 45.625 53.503906 45.90625 53.503906 L 51.390625 53.503906 C 51.683594 53.503906 51.898438 53.28125 51.898438 53 L 51.898438 49.214844 L 55.21875 49.214844 C 55.5 49.214844 55.726562 48.984375 55.726562 48.703125 L 55.726562 43.554688 C 55.726562 43.273438 55.5 43.046875 55.21875 43.046875 "/>
  </g>
</svg>