<?xml version="1.0" encoding="UTF-8" standalone="no"?>
<!-- Created with Inkscape (http://www.inkscape.org/) -->
<svg
   xmlns:svg="http://www.w3.org/2000/svg"
   xmlns="http://www.w3.org/2000/svg"
   version="1.0"
   width="150.55093"
   height="74.383736"
   id="svg2506">
  <defs
     id="defs2508" />
  <g
     transform="translate(-319.12598,-217.64141)"
     id="layer1">
    <rect
       width="146.85094"
       height="52.780472"
       x="320.97598"
       y="219.49141"
       id="rect2566"
       style="opacity:1;fill:none;fill-opacity:1;stroke:#000000;stroke-width:3.70000005;stroke-miterlimit:4;stroke-dasharray:none" />
    <path
       d="M 330.19361,262.29662 L 330.19361,228.20397 L 367.69553,228.20397 L 367.69553,235.27504 L 338.0223,235.27504 L 338.0223,242.21984 L 365.54895,242.21984 L 365.54895,248.53329 L 338.14857,248.53329 L 338.14857,262.29662 L 330.19361,262.29662 z"
       id="path3338"
       style="fill:#231f20;fill-opacity:1;fill-rule:evenodd;stroke:none;stroke-width:1px;stroke-linecap:butt;stroke-linejoin:miter;stroke-opacity:1" />
    <path
       d="M 373.88271,228.83532 L 373.88271,262.67543 L 408.60671,262.67543 L 408.60671,256.10944 L 381.33259,256.10944 L 381.33259,228.83532 L 373.88271,228.83532 z"
       id="path3340"
       style="fill:#231f20;fill-opacity:1;fill-rule:evenodd;stroke:none;stroke-width:1px;stroke-linecap:butt;stroke-linejoin:miter;stroke-opacity:1" />
    <path
       d="M 415.04643,262.92797 L 415.04643,228.70905 L 427.29453,228.70905 L 449.89669,256.86705 L 449.89669,228.70905 L 457.85164,228.70905 L 457.85164,263.05424 L 445.09847,263.05424 L 423.38019,235.40131 L 423.38019,262.92797 L 415.04643,262.92797 z"
       id="path3342"
       style="fill:#231f20;fill-opacity:1;fill-rule:evenodd" />
    <path
       d="M 291.6143,321.06621 L 291.6143,319.56723 L 285.7315,319.56723 L 285.7315,329.04193 L 287.23048,329.04193 L 287.23048,324.91266 L 289.98804,324.91266 L 289.98804,323.38539 L 287.23048,323.38539 L 287.23048,321.06621 L 291.6143,321.06621 z M 294.55049,329.04193 L 294.55049,319.56723 L 293.02322,319.56723 L 293.02322,329.04193 L 294.55049,329.04193 z M 303.25564,329.04193 L 303.25564,319.56723 L 301.75666,319.56723 L 301.75666,325.61973 L 298.30617,319.56723 L 296.80719,319.56723 L 296.80719,329.04193 L 298.30617,329.04193 L 298.30617,322.62176 L 301.92635,329.04193 L 303.25564,329.04193 z M 311.39034,329.04193 L 311.39034,327.51467 L 307.00652,327.51467 L 307.00652,324.91266 L 309.76408,324.91266 L 309.76408,323.38539 L 307.00652,323.38539 L 307.00652,321.06621 L 311.09337,321.06621 L 311.09337,319.56723 L 305.50754,319.56723 L 305.50754,329.04193 L 311.39034,329.04193 z M 321.99648,329.04193 L 321.99648,327.64194 L 317.61267,327.64194 L 317.61267,319.56723 L 316.11368,319.56723 L 316.11368,329.04193 L 321.99648,329.04193 z M 324.93267,329.04193 L 324.93267,319.56723 L 323.40541,319.56723 L 323.40541,329.04193 L 324.93267,329.04193 z M 333.53884,319.56723 L 331.94086,319.56723 L 329.94693,325.88841 L 327.92472,319.56723 L 326.35503,319.56723 L 329.353,329.04193 L 330.51259,329.04193 L 333.53884,319.56723 z M 336.47791,329.04193 L 336.47791,319.56723 L 334.95064,319.56723 L 334.95064,329.04193 L 336.47791,329.04193 z M 345.18306,329.04193 L 345.18306,319.56723 L 343.68407,319.56723 L 343.68407,325.61973 L 340.23358,319.56723 L 338.7346,319.56723 L 338.7346,329.04193 L 340.23358,329.04193 L 340.23358,322.62176 L 343.85377,329.04193 L 345.18306,329.04193 z M 353.68543,326.21366 L 353.68543,324.31872 L 350.46121,324.31872 L 350.46121,325.8177 L 352.18645,325.8177 L 352.18645,326.21366 C 352.17761,326.65234 352.02205,327.00528 351.71979,327.2725 C 351.41751,327.53971 351.02155,327.677 350.53191,327.68436 C 350.24879,327.68525 349.99837,327.62338 349.78065,327.49876 C 349.56293,327.37414 349.37968,327.18146 349.23091,326.92073 C 349.08154,326.60903 348.96664,326.22486 348.88621,325.76821 C 348.80578,325.31157 348.76513,324.8284 348.76424,324.31872 C 348.76454,323.91511 348.79577,323.5168 348.85793,323.12378 C 348.92009,322.73077 349.01142,322.38902 349.13192,322.09853 C 349.29307,321.68461 349.5046,321.38469 349.76651,321.19879 C 350.02842,321.0129 350.34954,320.92157 350.72989,320.9248 C 351.0843,320.92068 351.3795,321.00671 351.61549,321.18288 C 351.85147,321.35906 352.06536,321.65014 352.25716,322.05611 L 353.68543,321.49045 C 353.3749,320.75364 352.98484,320.21921 352.51524,319.88718 C 352.04562,319.55516 351.45051,319.39195 350.72989,319.39753 C 350.19369,319.39843 349.72467,319.48858 349.32283,319.66799 C 348.92097,319.84741 348.57923,320.1108 348.29758,320.45813 C 347.97498,320.88857 347.71867,321.44538 347.52864,322.12858 C 347.33862,322.81179 347.2414,323.54184 347.23698,324.31872 C 347.23816,324.90589 347.29236,325.47449 347.3996,326.02452 C 347.50684,326.57456 347.66004,327.06185 347.8592,327.48638 C 348.13525,328.07796 348.4988,328.51399 348.94985,328.79446 C 349.4009,329.07493 349.9801,329.21398 350.68747,329.21163 C 351.57336,329.19454 352.29044,328.91053 352.83872,328.35961 C 353.38698,327.80869 353.66922,327.09337 353.68543,326.21366 L 353.68543,326.21366 z M 365.31816,329.04193 L 365.31816,319.56723 L 363.81918,319.56723 L 363.81918,325.61973 L 360.36869,319.56723 L 358.86971,319.56723 L 358.86971,329.04193 L 360.36869,329.04193 L 360.36869,322.62176 L 363.98888,329.04193 L 365.31816,329.04193 z M 373.45286,329.04193 L 373.45286,327.51467 L 369.06904,327.51467 L 369.06904,324.91266 L 371.8266,324.91266 L 371.8266,323.38539 L 369.06904,323.38539 L 369.06904,321.06621 L 373.15589,321.06621 L 373.15589,319.56723 L 367.57006,319.56723 L 367.57006,329.04193 L 373.45286,329.04193 z M 380.07531,320.89652 L 380.07531,319.56723 L 374.22079,319.56723 L 374.22079,320.89652 L 376.38441,320.89652 L 376.38441,329.04193 L 377.8834,329.04193 L 377.8834,320.89652 L 380.07531,320.89652 z M 389.04276,319.56723 L 387.5155,319.56723 L 386.78015,324.55912 L 385.54985,319.56723 L 384.09329,319.56723 L 382.89128,324.55912 L 382.15593,319.56723 L 380.62866,319.56723 L 382.02866,329.04193 L 383.35794,329.04193 L 384.8145,322.96115 L 386.31348,329.04193 L 387.64277,329.04193 L 389.04276,319.56723 z M 396.95872,324.31872 C 396.95694,323.71684 396.90038,323.13527 396.78902,322.57403 C 396.67765,322.01281 396.5221,321.51963 396.32236,321.0945 C 396.02803,320.51648 395.66566,320.0887 395.23524,319.81117 C 394.80481,319.53365 394.29042,319.39578 393.69207,319.39753 C 393.15027,319.39666 392.68184,319.48328 392.28677,319.65738 C 391.89169,319.83151 391.55407,320.09842 391.2739,320.45813 C 390.95247,320.91774 390.70088,321.47985 390.5191,322.14449 C 390.33733,322.80914 390.24482,323.53388 390.24158,324.31872 C 390.24452,324.89646 390.3058,325.46977 390.42542,326.03866 C 390.54503,326.60756 390.7053,327.09956 390.90622,327.51467 C 391.18433,328.09269 391.54376,328.52047 391.9845,328.79799 C 392.42524,329.07552 392.97557,329.21339 393.6355,329.21163 C 394.13044,329.21251 394.56883,329.1259 394.95065,328.95178 C 395.33246,328.77766 395.65771,328.51075 395.9264,328.15103 C 396.26019,327.72001 396.51532,327.16437 396.6918,326.48412 C 396.86826,325.80386 396.95724,325.08206 396.95872,324.31872 L 396.95872,324.31872 z M 395.45974,324.31872 C 395.45678,324.69966 395.42025,325.09031 395.35014,325.49069 C 395.28002,325.89107 395.19399,326.22162 395.09206,326.48235 C 394.93238,326.89746 394.73558,327.20208 394.50166,327.39623 C 394.26773,327.59038 393.97901,327.68643 393.6355,327.68436 C 393.33382,327.68466 393.07809,327.62397 392.86833,327.50229 C 392.65857,327.38062 392.48062,327.19619 392.3345,326.94901 C 392.15007,326.64232 392.00983,326.2552 391.91379,325.78765 C 391.81775,325.32011 391.76943,324.83047 391.76884,324.31872 C 391.76914,323.91511 391.80037,323.5168 391.86253,323.12378 C 391.92469,322.73077 392.01602,322.38902 392.13652,322.09853 C 392.2903,321.69698 392.48475,321.4006 392.71985,321.20939 C 392.95495,321.0182 393.24131,320.92333 393.57894,320.9248 C 393.60722,320.92481 393.6355,320.92481 393.66378,320.9248 C 393.94396,320.94307 394.18259,321.00907 394.37969,321.12278 C 394.57678,321.23651 394.74824,321.41563 394.89408,321.66015 C 395.0785,321.98305 395.21874,322.37312 395.31479,322.83035 C 395.41082,323.28759 395.45914,323.78371 395.45974,324.31872 L 395.45974,324.31872 z M 405.5055,329.04193 L 403.83683,324.61569 C 404.28168,324.40564 404.63639,324.08333 404.90096,323.64878 C 405.16552,323.21423 405.30104,322.73991 405.30753,322.2258 C 405.30015,321.73145 405.1664,321.26715 404.90626,320.83288 C 404.64612,320.39863 404.30378,320.07574 403.87925,319.8642 C 403.65033,319.75284 403.40109,319.67507 403.13153,319.63087 C 402.86195,319.58668 402.54554,319.56547 402.18229,319.56723 L 399.05705,319.56723 L 399.05705,329.04193 L 400.55603,329.04193 L 400.55603,324.91266 L 402.35198,324.91266 L 403.87925,329.04193 L 405.5055,329.04193 z M 403.80854,322.2258 C 403.80677,322.42762 403.75374,322.61794 403.64945,322.79676 C 403.54515,322.97559 403.40021,323.11995 403.21461,323.22984 C 403.10265,323.29201 402.98716,323.33384 402.86814,323.35534 C 402.74912,323.37686 402.57706,323.38687 402.35198,323.38539 L 400.55603,323.38539 L 400.55603,321.06621 L 402.35198,321.06621 C 402.58855,321.06445 402.76237,321.07506 402.87345,321.09803 C 402.98451,321.12102 403.09823,321.16698 403.21461,321.23591 C 403.40021,321.33903 403.54515,321.47927 403.64945,321.65661 C 403.75374,321.83398 403.80677,322.02371 403.80854,322.2258 L 403.80854,322.2258 z M 413.71268,329.04193 L 410.58744,323.25812 L 413.5147,319.56723 L 411.57733,319.56723 L 408.59351,323.32883 L 408.59351,319.56723 L 407.09453,319.56723 L 407.09453,329.04193 L 408.59351,329.04193 L 408.59351,325.78942 L 409.5834,324.55912 L 411.98743,329.04193 L 413.71268,329.04193 z"
       transform="scale(1.1273401,0.8870438)"
       id="text3344"
       style="font-size:14.14152718px;font-style:normal;font-variant:normal;font-weight:normal;font-stretch:normal;text-align:start;line-height:100%;writing-mode:lr-tb;text-anchor:start;fill:#000000;fill-opacity:1;stroke:none;stroke-width:1px;stroke-linecap:butt;stroke-linejoin:miter;stroke-opacity:1;font-family:Roadgeek 2005 Series D;-inkscape-font-specification:Roadgeek 2005 Series D" />
  </g>
</svg>
