<?xml version="1.0" encoding="UTF-8" ?>
<!DOCTYPE svg PUBLIC "-//W3C//DTD SVG 1.1//EN" "http://www.w3.org/Graphics/SVG/1.1/DTD/svg11.dtd">
<svg width="1550pt" height="173pt" viewBox="0 0 1550 173" version="1.1" xmlns="http://www.w3.org/2000/svg">
<g id="#ffffffff">
</g>
<g id="#370505ff">
<path fill="#370505" opacity="1.00" d=" M 81.49 0.00 L 90.43 0.00 C 108.32 1.28 126.21 7.26 140.17 18.75 C 145.34 23.14 150.36 28.31 152.36 34.97 C 154.29 41.53 153.59 49.01 149.77 54.78 C 143.19 64.82 128.28 68.63 118.02 62.04 C 112.33 58.40 107.16 53.89 100.90 51.19 C 92.16 47.17 81.80 47.41 72.96 50.99 C 63.28 54.86 55.36 62.86 51.54 72.56 C 47.77 81.88 47.99 92.72 52.15 101.88 C 56.99 112.87 67.26 121.27 79.00 123.82 C 88.28 126.00 98.30 124.32 106.41 119.34 C 112.15 116.21 116.84 111.37 122.96 108.95 C 132.90 105.41 144.91 109.52 150.72 118.30 C 155.19 125.17 155.34 134.42 151.77 141.71 C 148.82 147.47 143.97 151.98 138.91 155.89 C 124.93 166.37 107.65 171.80 90.33 173.00 L 81.48 173.00 C 62.59 171.93 44.09 164.63 29.89 152.09 C 12.10 136.73 1.19 113.94 0.00 90.50 L 0.00 82.38 C 1.25 58.74 12.42 35.82 30.48 20.48 C 44.60 8.22 62.85 1.06 81.49 0.00 Z" />
<path fill="#370505" opacity="1.00" d=" M 495.46 8.76 C 511.85 5.87 529.14 8.26 544.08 15.63 C 558.58 22.71 570.82 34.33 578.65 48.44 C 587.04 63.43 590.21 81.21 587.63 98.18 C 585.19 114.76 577.15 130.42 565.22 142.17 C 554.09 153.26 539.59 160.93 524.14 163.82 C 507.99 166.91 490.89 164.88 475.96 157.96 C 458.62 150.04 444.32 135.64 436.62 118.18 C 428.99 101.15 427.85 81.36 433.34 63.53 C 441.68 35.57 466.68 13.53 495.46 8.76 M 500.46 37.61 C 482.06 40.93 466.78 55.99 462.40 74.05 C 458.57 88.90 461.91 105.44 471.41 117.51 C 479.66 128.23 492.55 135.32 506.10 136.10 C 520.42 137.17 534.90 131.08 544.47 120.44 C 554.60 109.45 559.33 93.79 557.01 79.03 C 554.88 64.23 545.72 50.61 532.74 43.16 C 523.11 37.51 511.43 35.51 500.46 37.61 Z" />
<path fill="#370505" opacity="1.00" d=" M 1349.50 8.64 C 1358.90 6.63 1368.85 6.89 1378.10 9.60 C 1389.59 12.99 1399.94 21.11 1404.81 32.21 C 1405.78 34.59 1406.93 37.34 1405.84 39.89 C 1404.21 42.98 1400.43 43.55 1397.46 44.65 C 1394.72 45.39 1391.50 47.07 1388.85 45.23 C 1386.23 43.03 1385.16 39.56 1382.85 37.08 C 1373.17 25.47 1353.97 25.50 1342.73 34.78 C 1336.04 40.22 1333.07 49.89 1336.05 58.06 C 1338.61 65.35 1345.39 70.38 1352.59 72.57 C 1361.06 75.05 1369.78 76.67 1378.11 79.62 C 1388.42 83.36 1398.31 89.52 1404.37 98.88 C 1414.98 115.12 1410.90 138.07 1397.30 151.33 C 1384.02 164.65 1363.47 168.07 1345.59 164.22 C 1329.17 160.80 1315.12 148.04 1310.39 131.91 C 1309.62 129.12 1308.61 125.31 1311.26 123.17 C 1314.42 121.01 1318.32 120.30 1321.95 119.23 C 1324.86 118.21 1328.06 119.80 1329.28 122.56 C 1331.85 127.79 1334.26 133.31 1338.65 137.33 C 1344.27 142.83 1352.38 144.98 1360.09 144.83 C 1368.17 144.83 1376.65 142.38 1382.41 136.46 C 1388.51 130.25 1390.66 120.14 1386.79 112.21 C 1383.66 106.01 1377.19 102.44 1370.88 100.21 C 1362.20 97.31 1353.15 95.68 1344.53 92.63 C 1334.13 88.80 1324.21 82.32 1318.50 72.60 C 1310.38 58.91 1311.93 40.75 1320.74 27.77 C 1327.29 17.90 1337.98 11.13 1349.50 8.64 Z" />
<path fill="#370505" opacity="1.00" d=" M 252.10 10.86 C 256.80 9.09 261.98 9.72 266.89 9.87 C 271.62 10.03 275.61 13.11 278.10 16.95 C 291.65 36.77 305.13 56.63 318.64 76.47 C 332.07 56.96 345.41 37.39 358.79 17.84 C 360.53 15.31 362.41 12.63 365.28 11.27 C 369.20 9.34 373.70 9.76 377.94 9.69 C 381.78 9.64 386.06 10.22 388.85 13.15 C 391.36 15.72 391.96 19.47 391.94 22.92 C 391.94 65.29 391.94 107.67 391.94 150.05 C 392.12 154.65 390.27 159.82 385.76 161.74 C 381.07 163.69 375.75 163.19 370.82 162.71 C 365.20 161.98 361.35 156.49 361.66 150.99 C 361.60 122.52 361.68 94.04 361.62 65.57 C 352.17 79.14 343.14 93.01 333.72 106.62 C 331.30 110.24 327.70 113.50 323.15 113.83 C 318.57 114.07 313.57 114.58 309.41 112.23 C 306.00 110.17 303.86 106.67 301.63 103.49 C 293.07 90.83 284.56 78.15 275.96 65.52 C 275.90 93.70 275.97 121.88 275.93 150.05 C 275.98 153.91 274.88 158.14 271.64 160.54 C 267.77 163.54 262.61 163.10 258.00 163.05 C 254.15 163.02 249.94 161.69 247.72 158.34 C 245.39 155.03 245.61 150.82 245.63 146.97 C 245.66 105.31 245.63 63.65 245.65 21.99 C 245.48 17.47 247.64 12.52 252.10 10.86 Z" />
<path fill="#370505" opacity="1.00" d=" M 629.43 13.40 C 632.07 10.45 636.24 9.64 640.04 9.70 C 653.03 9.70 666.03 9.70 679.03 9.70 C 685.70 9.75 692.48 9.33 699.02 10.96 C 712.66 14.05 724.66 23.36 731.21 35.70 C 736.94 46.39 738.72 59.43 734.91 71.05 C 731.49 81.75 723.88 90.79 714.55 96.88 C 721.77 103.10 726.93 111.48 729.65 120.59 C 732.38 130.01 735.18 139.41 737.79 148.86 C 738.89 152.53 738.76 157.04 735.67 159.74 C 731.24 164.06 724.59 163.02 718.97 163.00 C 714.29 163.04 709.83 160.03 708.37 155.54 C 705.35 146.15 703.07 136.54 700.16 127.11 C 697.34 118.52 690.62 111.04 681.91 108.25 C 673.78 105.80 665.16 107.26 656.80 106.87 C 656.79 121.28 656.81 135.68 656.80 150.09 C 656.86 153.90 655.84 158.09 652.68 160.51 C 649.12 163.37 644.31 163.11 640.02 163.08 C 636.48 163.11 632.66 162.43 630.01 159.89 C 627.29 157.40 626.43 153.57 626.51 150.01 C 626.52 107.65 626.53 65.29 626.51 22.93 C 626.46 19.57 627.06 15.95 629.43 13.40 M 656.87 38.26 C 656.71 51.59 656.83 64.93 656.81 78.26 C 667.18 78.22 677.56 78.37 687.93 78.19 C 696.67 77.87 704.36 70.75 705.67 62.15 C 707.43 53.25 702.54 43.47 694.13 39.88 C 689.68 37.80 684.69 38.35 679.94 38.30 C 672.25 38.28 664.56 38.35 656.87 38.26 Z" />
<path fill="#370505" opacity="1.00" d=" M 784.30 12.22 C 787.31 9.87 791.30 9.65 794.98 9.69 C 818.32 9.75 841.66 9.63 865.00 9.75 C 869.86 9.70 875.02 12.52 876.28 17.47 C 877.25 21.72 877.25 26.25 876.29 30.49 C 875.04 35.49 869.84 38.33 864.95 38.25 C 846.77 38.36 828.60 38.26 810.42 38.30 C 810.43 49.69 810.40 61.07 810.43 72.46 C 825.59 72.47 840.74 72.43 855.90 72.48 C 860.62 72.43 865.66 75.04 867.08 79.79 C 868.23 83.91 868.09 88.35 867.43 92.54 C 866.45 97.81 861.13 101.00 856.04 100.96 C 840.83 101.06 825.62 100.95 810.41 101.01 C 810.43 112.18 810.41 123.35 810.42 134.52 C 828.94 134.54 847.47 134.47 865.99 134.55 C 870.92 134.48 876.06 137.50 877.23 142.52 C 878.07 146.76 878.12 151.27 877.14 155.50 C 875.87 160.36 870.79 163.03 866.03 163.02 C 842.04 163.12 818.03 163.02 794.03 163.07 C 790.47 163.15 786.61 162.58 783.87 160.11 C 780.97 157.65 780.02 153.67 780.12 150.01 C 780.15 107.32 780.12 64.64 780.14 21.95 C 780.11 18.34 781.30 14.46 784.30 12.22 Z" />
<path fill="#370505" opacity="1.00" d=" M 972.81 13.89 C 973.92 11.01 977.14 9.64 980.08 9.72 C 1005.04 9.68 1030.00 9.70 1054.97 9.71 C 1058.73 9.39 1062.73 11.92 1063.05 15.89 C 1063.29 19.29 1063.66 22.92 1062.37 26.16 C 1060.99 29.35 1057.19 30.24 1054.04 30.12 C 1033.79 30.12 1013.54 30.11 993.30 30.12 C 993.30 46.27 993.29 62.43 993.30 78.58 C 1011.18 78.62 1029.06 78.51 1046.94 78.63 C 1050.23 78.53 1053.67 80.65 1054.25 84.05 C 1054.70 87.32 1054.78 90.71 1054.13 93.95 C 1053.28 97.51 1049.41 99.16 1046.05 98.98 C 1028.46 99.04 1010.87 98.97 993.29 99.01 C 993.30 117.67 993.30 136.32 993.30 154.97 C 993.53 158.38 991.66 162.19 988.10 162.92 C 984.48 163.51 980.71 163.54 977.12 162.88 C 973.65 162.05 971.96 158.35 972.09 155.04 C 972.02 111.37 972.08 67.69 972.06 24.02 C 972.16 20.65 971.64 17.13 972.81 13.89 Z" />
<path fill="#370505" opacity="1.00" d=" M 1104.47 10.71 C 1108.06 9.12 1112.19 9.69 1116.01 9.89 C 1119.96 10.23 1122.35 14.23 1122.09 17.94 C 1122.14 63.60 1122.12 109.27 1122.10 154.93 C 1122.39 158.67 1120.02 162.74 1116.04 163.11 C 1112.39 163.35 1108.56 163.73 1105.04 162.57 C 1102.05 161.40 1100.76 158.00 1100.89 154.99 C 1100.88 109.33 1100.88 63.66 1100.89 18.00 C 1100.82 15.21 1101.82 12.05 1104.47 10.71 Z" />
<path fill="#370505" opacity="1.00" d=" M 1168.65 18.06 C 1168.15 13.74 1171.56 9.50 1176.05 9.76 C 1189.02 9.62 1201.99 9.74 1214.96 9.70 C 1223.29 9.93 1231.78 8.93 1239.94 11.05 C 1252.56 14.13 1263.61 22.85 1269.73 34.28 C 1276.26 46.27 1277.32 61.32 1271.64 73.84 C 1267.21 84.08 1258.59 91.94 1248.74 96.90 C 1257.28 103.02 1264.09 111.68 1267.21 121.78 C 1270.29 131.81 1273.09 141.93 1276.02 152.02 C 1276.75 154.83 1277.96 158.26 1275.84 160.79 C 1272.95 164.31 1267.95 163.11 1263.99 163.31 C 1260.49 163.67 1256.79 161.76 1255.77 158.27 C 1253.94 152.62 1252.50 146.85 1250.81 141.16 C 1248.42 133.25 1246.89 124.80 1241.93 117.97 C 1235.99 109.12 1225.71 103.52 1215.07 103.19 C 1206.67 103.02 1198.27 103.16 1189.87 103.12 C 1189.84 120.44 1189.90 137.75 1189.84 155.07 C 1189.96 158.34 1188.31 162.00 1184.91 162.85 C 1181.35 163.57 1177.63 163.47 1174.06 162.98 C 1170.39 162.32 1168.39 158.48 1168.65 155.00 C 1168.63 109.35 1168.64 63.70 1168.65 18.06 M 1189.87 30.12 C 1189.86 47.65 1189.85 65.17 1189.88 82.70 C 1200.58 82.71 1211.29 82.70 1222.00 82.71 C 1227.77 82.86 1233.80 82.69 1239.05 79.98 C 1249.31 75.22 1255.35 63.22 1253.28 52.13 C 1251.54 40.37 1240.92 30.73 1229.04 30.18 C 1215.98 30.03 1202.92 30.16 1189.87 30.12 Z" />
<path fill="#370505" opacity="1.00" d=" M 1439.46 11.50 C 1442.10 9.27 1445.77 9.76 1448.99 9.68 C 1479.97 9.75 1510.95 9.65 1541.93 9.73 C 1546.00 9.36 1549.71 12.41 1550.00 16.53 L 1550.00 23.47 C 1549.54 26.97 1546.73 29.96 1543.09 29.99 C 1530.11 30.31 1517.11 30.02 1504.12 30.12 C 1504.10 71.76 1504.14 113.40 1504.10 155.04 C 1504.28 158.38 1502.52 162.12 1499.03 162.89 C 1495.37 163.54 1491.55 163.56 1487.92 162.87 C 1484.46 162.06 1482.75 158.36 1482.91 155.06 C 1482.85 113.41 1482.90 71.76 1482.88 30.12 C 1470.92 30.12 1458.96 30.11 1447.00 30.13 C 1444.24 30.10 1441.09 30.03 1439.06 27.89 C 1437.00 25.82 1436.99 22.68 1436.95 19.96 C 1436.96 17.03 1437.01 13.56 1439.46 11.50 Z" />
</g>
</svg>
