<?xml version="1.0" encoding="UTF-8" standalone="yes"?>
<svg xmlns="http://www.w3.org/2000/svg" xmlns:xlink="http://www.w3.org/1999/xlink" width="877.3333333333333px" height="106.66666666666666px" viewBox="0 0 658 80" version="1.1">
  <defs>
    <clipPath id="clip1">
      <path d="M 0 0 L 76 0 L 76 79.785156 L 0 79.785156 Z M 0 0 "/>
    </clipPath>
  </defs>
  <g id="surface1">
    <path style=" stroke:none;fill-rule:nonzero;fill:rgb(4.313725%,2.352941%,1.960784%);fill-opacity:1;" d="M 154.625 3.511719 C 154.445312 3.5 154.273438 3.460938 154.085938 3.460938 L 152.339844 3.460938 C 149.148438 3.460938 146.890625 4.792969 145.242188 7.472656 L 140.507812 15.175781 L 133.839844 26.023438 L 126.015625 38.75 L 121.726562 31.757812 L 110.195312 12.949219 L 106.898438 7.570312 C 105.460938 5.203125 103.09375 3.460938 99.695312 3.460938 L 97.949219 3.460938 C 93.527344 3.460938 90.03125 6.957031 90.03125 11.378906 L 90.03125 68.808594 C 90.03125 70.785156 90.769531 72.542969 91.945312 73.894531 C 93.351562 75.503906 95.402344 76.523438 97.746094 76.523438 C 102.066406 76.523438 105.558594 73.132812 105.558594 68.808594 L 105.558594 32.992188 L 108.746094 37.910156 L 117.070312 50.75 L 119.234375 54.085938 C 120.875 56.558594 122.929688 58.101562 125.8125 58.101562 C 128.691406 58.101562 130.746094 56.558594 132.390625 54.085938 L 146.273438 32.679688 L 146.273438 68.605469 C 146.273438 72.925781 149.765625 76.523438 154.085938 76.523438 C 158.507812 76.523438 162 73.019531 162 68.605469 L 162 11.378906 C 162 7.140625 158.78125 3.789062 154.625 3.511719 "/>
    <path style=" stroke:none;fill-rule:nonzero;fill:rgb(4.313725%,2.352941%,1.960784%);fill-opacity:1;" d="M 210.839844 62.523438 C 198.09375 62.523438 189.046875 52.238281 189.046875 39.890625 L 189.046875 39.679688 C 189.046875 38.839844 189.09375 38.015625 189.171875 37.199219 C 189.621094 32.609375 191.324219 28.433594 193.984375 25.097656 C 195.78125 22.847656 198.019531 20.992188 200.605469 19.648438 C 203.539062 18.125 206.910156 17.246094 210.632812 17.246094 C 215.53125 17.246094 219.875 18.773438 223.378906 21.347656 C 227.378906 24.285156 230.265625 28.585938 231.59375 33.574219 C 232.136719 35.585938 232.429688 37.703125 232.429688 39.890625 L 232.429688 40.09375 C 232.429688 47.539062 229.199219 54.144531 223.851562 58.226562 C 220.332031 60.917969 215.898438 62.523438 210.839844 62.523438 M 248.921875 37.476562 C 248.625 32.277344 247.292969 27.371094 245.097656 22.96875 C 239.074219 10.898438 226.523438 2.632812 210.839844 2.632812 C 197.449219 2.632812 186.269531 8.738281 179.5 18.074219 C 178.734375 19.125 178.027344 20.222656 177.378906 21.351562 C 176.140625 23.511719 175.121094 25.804688 174.339844 28.207031 C 173.136719 31.886719 172.492188 35.8125 172.492188 39.890625 L 172.492188 40.09375 C 172.492188 60.574219 188.425781 77.144531 210.632812 77.144531 C 221.503906 77.144531 230.90625 73.121094 237.6875 66.621094 C 244.769531 59.835938 248.984375 50.351562 248.984375 39.890625 L 248.984375 39.679688 C 248.984375 38.941406 248.960938 38.207031 248.921875 37.476562 "/>
    <path style=" stroke:none;fill-rule:nonzero;fill:rgb(4.313725%,2.352941%,1.960784%);fill-opacity:1;" d="M 303.476562 28.464844 L 303.476562 28.671875 C 303.476562 28.730469 303.46875 28.792969 303.46875 28.851562 C 303.375 34.824219 298.972656 38.863281 291.339844 38.863281 L 275.304688 38.863281 L 275.304688 18.175781 L 291.03125 18.175781 C 295.582031 18.175781 299.089844 19.402344 301.203125 21.796875 C 302.601562 23.382812 303.386719 25.476562 303.457031 28.070312 C 303.460938 28.207031 303.476562 28.328125 303.476562 28.464844 M 313.34375 11.175781 C 311.664062 9.492188 309.675781 8.101562 307.410156 6.976562 C 303.304688 4.953125 298.273438 3.863281 292.367188 3.863281 L 267.386719 3.863281 C 262.96875 3.863281 259.46875 7.367188 259.46875 11.789062 L 259.46875 68.605469 C 259.46875 73.019531 262.96875 76.523438 267.386719 76.523438 C 271.8125 76.523438 275.304688 73.019531 275.304688 68.605469 L 275.304688 52.851562 L 287.953125 52.851562 L 303.371094 72.414062 C 305.222656 74.773438 307.582031 76.523438 311.183594 76.523438 C 314.992188 76.523438 318.6875 73.640625 318.6875 69.21875 C 318.6875 66.75 317.664062 65.097656 316.121094 63.148438 L 305.503906 50.230469 L 305.121094 49.765625 C 311.785156 47.019531 316.640625 42.292969 318.578125 35.179688 C 318.863281 34.140625 319.089844 33.058594 319.246094 31.914062 C 319.417969 30.625 319.507812 29.269531 319.507812 27.847656 L 319.507812 27.644531 C 319.507812 20.84375 317.351562 15.1875 313.34375 11.175781 "/>
    <path style=" stroke:none;fill-rule:nonzero;fill:rgb(4.313725%,2.352941%,1.960784%);fill-opacity:1;" d="M 386.253906 68.429688 C 386.003906 64.746094 382.949219 61.804688 379.210938 61.804688 L 346.617188 61.804688 L 346.617188 46.675781 L 374.070312 46.675781 C 375.15625 46.675781 376.175781 46.414062 377.101562 45.988281 C 379.492188 44.875 381.15625 42.5 381.15625 39.679688 C 381.15625 35.773438 377.976562 32.578125 374.070312 32.578125 L 346.617188 32.578125 L 346.617188 17.96875 L 378.695312 17.96875 C 382.597656 17.96875 385.796875 14.882812 385.796875 10.972656 C 385.796875 7.0625 382.597656 3.867188 378.695312 3.867188 L 338.808594 3.867188 C 334.386719 3.867188 330.890625 7.367188 330.890625 11.789062 L 330.890625 67.984375 C 330.890625 72.414062 334.386719 75.910156 338.808594 75.910156 L 379.210938 75.910156 C 383.113281 75.910156 386.304688 72.8125 386.304688 68.90625 C 386.304688 68.746094 386.269531 68.59375 386.253906 68.429688 "/>
    <path style=" stroke:none;fill-rule:nonzero;fill:rgb(4.313725%,2.352941%,1.960784%);fill-opacity:1;" d="M 39.847656 29.074219 C 34.585938 29.074219 30.21875 32.902344 29.367188 37.921875 C 29.265625 38.511719 29.199219 39.105469 29.199219 39.71875 C 29.199219 45.605469 33.972656 50.375 39.847656 50.375 C 40.40625 50.375 40.945312 50.320312 41.480469 50.234375 C 46.578125 49.449219 50.492188 45.046875 50.492188 39.71875 C 50.492188 33.84375 45.726562 29.074219 39.847656 29.074219 "/>
    <path style=" stroke:none;fill-rule:nonzero;fill:rgb(4.313725%,2.352941%,1.960784%);fill-opacity:1;" d="M 412.863281 8.027344 C 412.863281 5.777344 414.703125 3.9375 416.847656 3.9375 L 461.050781 3.9375 C 463.089844 3.9375 464.722656 5.578125 464.722656 7.617188 C 464.722656 9.660156 463.089844 11.398438 461.050781 11.398438 L 420.929688 11.398438 L 420.929688 36.945312 L 456.453125 36.945312 C 458.496094 36.945312 460.128906 38.578125 460.128906 40.625 C 460.128906 42.671875 458.496094 44.300781 456.453125 44.300781 L 420.929688 44.300781 L 420.929688 71.894531 C 420.929688 74.140625 419.089844 75.980469 416.847656 75.980469 C 414.703125 75.980469 412.863281 74.140625 412.863281 71.894531 L 412.863281 8.027344 "/>
    <path style=" stroke:none;fill-rule:nonzero;fill:rgb(4.313725%,2.352941%,1.960784%);fill-opacity:1;" d="M 471.226562 7.515625 C 471.226562 5.269531 473.0625 3.429688 475.207031 3.429688 C 477.453125 3.429688 479.289062 5.269531 479.289062 7.515625 L 479.289062 71.894531 C 479.289062 74.140625 477.453125 75.980469 475.207031 75.980469 C 473.0625 75.980469 471.226562 74.140625 471.226562 71.894531 L 471.226562 7.515625 "/>
    <path style=" stroke:none;fill-rule:nonzero;fill:rgb(4.313725%,2.352941%,1.960784%);fill-opacity:1;" d="M 515.914062 40.421875 C 526.632812 40.421875 534.292969 34.902344 534.292969 25.703125 L 534.292969 25.5 C 534.292969 16.710938 527.554688 11.398438 516.019531 11.398438 L 493.964844 11.398438 L 493.964844 40.421875 Z M 485.902344 8.027344 C 485.902344 5.78125 487.742188 3.941406 489.882812 3.941406 L 516.628906 3.941406 C 525.40625 3.941406 532.453125 6.597656 536.945312 11.09375 C 540.414062 14.566406 542.457031 19.574219 542.457031 25.195312 L 542.457031 25.402344 C 542.457031 37.148438 534.496094 44 523.367188 46.144531 L 541.128906 69.03125 C 541.949219 69.953125 542.457031 70.871094 542.457031 71.996094 C 542.457031 74.140625 540.414062 75.980469 538.371094 75.980469 C 536.742188 75.980469 535.515625 75.0625 534.597656 73.835938 L 514.488281 47.675781 L 493.964844 47.675781 L 493.964844 71.894531 C 493.964844 74.140625 492.132812 75.980469 489.882812 75.980469 C 487.742188 75.980469 485.902344 74.140625 485.902344 71.894531 L 485.902344 8.027344 "/>
    <path style=" stroke:none;fill-rule:nonzero;fill:rgb(4.313725%,2.352941%,1.960784%);fill-opacity:1;" d="M 548.046875 66.886719 C 547.128906 66.269531 546.519531 65.148438 546.519531 63.820312 C 546.519531 61.574219 548.253906 59.835938 550.398438 59.835938 C 551.417969 59.835938 552.335938 60.246094 552.84375 60.753906 C 559.585938 66.476562 566.320312 69.238281 575.40625 69.238281 C 585.003906 69.238281 591.332031 64.128906 591.332031 57.078125 L 591.332031 56.875 C 591.332031 50.230469 587.757812 46.449219 572.75 43.28125 C 556.316406 39.703125 548.761719 34.390625 548.761719 22.640625 L 548.761719 22.4375 C 548.761719 11.195312 558.664062 2.917969 572.242188 2.917969 C 581.632812 2.917969 588.472656 5.269531 595.007812 9.96875 C 595.820312 10.582031 596.742188 11.707031 596.742188 13.238281 C 596.742188 15.382812 595.007812 17.121094 592.863281 17.121094 C 591.945312 17.121094 591.230469 16.914062 590.511719 16.410156 C 584.492188 12.011719 578.671875 10.171875 572.039062 10.171875 C 562.75 10.171875 556.828125 15.28125 556.828125 21.71875 L 556.828125 21.925781 C 556.828125 28.671875 560.503906 32.449219 576.222656 35.824219 C 592.148438 39.296875 599.496094 45.121094 599.496094 56.054688 L 599.496094 56.261719 C 599.496094 68.523438 589.292969 76.492188 575.101562 76.492188 C 564.6875 76.492188 556.011719 73.222656 548.046875 66.886719 "/>
    <path style=" stroke:none;fill-rule:nonzero;fill:rgb(4.313725%,2.352941%,1.960784%);fill-opacity:1;" d="M 625.425781 11.398438 L 604.699219 11.398438 C 602.660156 11.398438 600.925781 9.765625 600.925781 7.722656 C 600.925781 5.675781 602.660156 3.941406 604.699219 3.941406 L 654.316406 3.941406 C 656.355469 3.941406 658.09375 5.675781 658.09375 7.722656 C 658.09375 9.765625 656.355469 11.398438 654.316406 11.398438 L 633.59375 11.398438 L 633.59375 71.894531 C 633.59375 74.144531 631.753906 75.980469 629.507812 75.980469 C 627.261719 75.980469 625.425781 74.144531 625.425781 71.894531 L 625.425781 11.398438 "/>
    <g clip-path="url(#clip1)" clip-rule="nonzero">
      <path style=" stroke:none;fill-rule:nonzero;fill:rgb(4.313725%,2.352941%,1.960784%);fill-opacity:1;" d="M 75.300781 52.964844 C 74.683594 50.984375 73.367188 49.230469 71.476562 48.164062 C 68.109375 46.253906 63.753906 46.953125 61.15625 49.824219 C 59.828125 51.292969 58.992188 53.191406 57.726562 54.726562 C 56.21875 56.582031 54.359375 58.195312 52.347656 59.488281 C 51.984375 59.722656 51.609375 59.9375 51.230469 60.148438 C 44.230469 64.089844 35.460938 64.117188 28.417969 60.160156 C 20.953125 55.769531 16.292969 47.695312 16.652344 38.960938 C 16.8125 35.136719 17.9375 31.453125 19.824219 28.226562 C 22.109375 24.304688 25.515625 21.046875 29.710938 19.019531 C 33.605469 17.132812 37.792969 16.464844 42.085938 16.777344 C 45.921875 17.0625 49.347656 19.25 53.160156 17.570312 C 56.398438 16.152344 58.386719 12.742188 58.121094 9.242188 C 58.105469 9.039062 58.113281 8.84375 58.078125 8.644531 C 57.457031 4.632812 54.371094 2.421875 50.695312 1.417969 C 39.535156 -1.636719 27.734375 0.367188 18.328125 6.316406 C 14.304688 8.863281 10.738281 12.140625 7.828125 16.035156 C 6.59375 17.691406 5.464844 19.441406 4.492188 21.316406 C 3.488281 23.230469 2.679688 25.199219 2.011719 27.195312 C -2.746094 41.492188 1.113281 57.441406 11.707031 68.207031 C 12.792969 69.316406 13.925781 70.386719 15.152344 71.375 C 19.425781 74.820312 24.324219 77.15625 29.453125 78.492188 C 40.574219 81.386719 52.796875 79.386719 62.441406 72.8125 C 63.832031 71.867188 65.1875 70.855469 66.460938 69.714844 C 69.824219 66.703125 73.40625 62.824219 75.125 58.570312 C 75.855469 56.738281 75.863281 54.757812 75.300781 52.964844 "/>
    </g>
  </g>
</svg>