<?xml version="1.0" encoding="UTF-8" standalone="yes"?>
<svg xmlns="http://www.w3.org/2000/svg" xmlns:xlink="http://www.w3.org/1999/xlink" width="116px" height="106.66666666666666px" viewBox="0 0 87 80" version="1.1">
  <g id="surface1">
    <path style=" stroke:none;fill-rule:nonzero;fill:rgb(99.215686%,72.156863%,7.45098%);fill-opacity:1;" d="M 12.316406 1.15625 L 74.683594 1.15625 C 80.710938 1.15625 85.597656 6.042969 85.597656 12.074219 L 85.597656 67.929688 C 85.597656 73.957031 80.710938 78.84375 74.683594 78.84375 L 12.316406 78.84375 C 6.289062 78.84375 1.402344 73.957031 1.402344 67.929688 L 1.402344 12.074219 C 1.402344 6.042969 6.289062 1.15625 12.316406 1.15625 "/>
    <path style=" stroke:none;fill-rule:nonzero;fill:rgb(0%,0%,0%);fill-opacity:1;" d="M 43.859375 42.324219 L 43.859375 43.457031 L 44.917969 43.457031 L 44.917969 42.324219 Z M 43.859375 42.324219 "/>
    <path style=" stroke:none;fill-rule:nonzero;fill:rgb(0%,0%,0%);fill-opacity:1;" d="M 23.445312 44.277344 C 23.152344 44.277344 22.816406 44.316406 22.53125 44.445312 C 22.328125 44.535156 22.199219 44.738281 22.046875 44.929688 L 22.046875 44.347656 L 21.035156 44.347656 L 21.035156 49.507812 L 22.097656 49.507812 L 22.097656 46.253906 C 22.097656 45.964844 22.195312 45.699219 22.386719 45.507812 C 22.574219 45.3125 22.863281 45.21875 23.277344 45.21875 L 23.78125 45.21875 C 24.511719 45.21875 24.933594 45.246094 25.132812 45.410156 C 25.234375 45.492188 25.28125 45.601562 25.324219 45.773438 C 25.367188 45.941406 25.398438 46.171875 25.398438 46.46875 L 25.398438 46.808594 L 26.386719 46.808594 L 26.386719 46.109375 C 26.386719 45.492188 26.257812 45.039062 25.902344 44.734375 C 25.546875 44.429688 25.003906 44.277344 24.214844 44.277344 Z M 23.445312 44.277344 "/>
    <path style=" stroke:none;fill-rule:nonzero;fill:rgb(0%,0%,0%);fill-opacity:1;" d="M 43.859375 44.347656 L 43.859375 49.507812 L 44.917969 49.507812 L 44.917969 44.347656 Z M 43.859375 44.347656 "/>
    <path style=" stroke:none;fill-rule:nonzero;fill:rgb(0%,0%,0%);fill-opacity:1;" d="M 41.761719 42.324219 L 40.796875 42.324219 L 40.796875 44.832031 C 40.699219 44.699219 40.625 44.570312 40.460938 44.496094 C 40.183594 44.363281 39.832031 44.277344 39.351562 44.277344 L 38.074219 44.277344 C 37.066406 44.277344 36.367188 44.417969 35.929688 44.785156 C 35.492188 45.148438 35.351562 45.71875 35.351562 46.519531 L 35.351562 47.410156 C 35.351562 48.28125 35.636719 48.816406 36.121094 49.148438 C 36.605469 49.476562 37.242188 49.582031 38.003906 49.582031 L 39.183594 49.582031 C 39.628906 49.582031 40.035156 49.511719 40.363281 49.363281 C 40.59375 49.257812 40.703125 49.050781 40.847656 48.859375 L 40.847656 49.507812 L 41.859375 49.507812 L 41.859375 42.324219 Z M 40.796875 47.386719 C 40.796875 47.816406 40.707031 48.140625 40.484375 48.351562 C 40.265625 48.5625 39.878906 48.664062 39.28125 48.664062 L 37.953125 48.664062 C 37.292969 48.664062 36.910156 48.574219 36.699219 48.375 C 36.492188 48.175781 36.410156 47.851562 36.410156 47.386719 L 36.410156 46.421875 C 36.410156 45.875 36.550781 45.578125 36.796875 45.410156 C 37.042969 45.242188 37.441406 45.21875 38.003906 45.21875 L 39.136719 45.21875 C 39.6875 45.21875 40.089844 45.238281 40.363281 45.410156 C 40.636719 45.582031 40.796875 45.882812 40.796875 46.445312 Z M 40.796875 47.386719 "/>
    <path style=" stroke:none;fill-rule:nonzero;fill:rgb(0%,0%,0%);fill-opacity:1;" d="M 52.703125 44.6875 C 52.1875 44.371094 51.496094 44.277344 50.703125 44.277344 L 49.523438 44.277344 C 48.730469 44.277344 48.015625 44.371094 47.5 44.6875 C 46.980469 45.003906 46.679688 45.585938 46.679688 46.421875 L 46.679688 47.460938 C 46.679688 48.296875 46.980469 48.855469 47.5 49.171875 C 48.015625 49.488281 48.730469 49.582031 49.523438 49.582031 L 50.703125 49.582031 C 51.496094 49.582031 52.1875 49.488281 52.703125 49.171875 C 53.21875 48.855469 53.523438 48.296875 53.523438 47.460938 L 53.523438 46.421875 C 53.523438 45.585938 53.21875 45.003906 52.703125 44.6875 Z M 52.464844 47.433594 C 52.464844 47.984375 52.308594 48.25 52.054688 48.421875 C 51.800781 48.597656 51.441406 48.664062 50.96875 48.664062 L 49.28125 48.664062 C 48.808594 48.664062 48.425781 48.597656 48.175781 48.421875 C 47.921875 48.25 47.738281 47.984375 47.738281 47.433594 L 47.738281 46.445312 C 47.738281 45.898438 47.921875 45.585938 48.175781 45.410156 C 48.425781 45.234375 48.808594 45.21875 49.28125 45.21875 L 50.96875 45.21875 C 51.441406 45.21875 51.800781 45.234375 52.054688 45.410156 C 52.308594 45.585938 52.464844 45.898438 52.464844 46.445312 Z M 52.464844 47.433594 "/>
    <path style=" stroke:none;fill-rule:nonzero;fill:rgb(0%,0%,0%);fill-opacity:1;" d="M 33.039062 44.589844 C 32.550781 44.332031 31.886719 44.277344 31.109375 44.277344 L 29.785156 44.277344 C 29.03125 44.277344 28.53125 44.367188 28.167969 44.589844 C 27.808594 44.816406 27.613281 45.179688 27.613281 45.652344 L 27.613281 46.011719 L 28.699219 46.011719 L 28.699219 45.722656 C 28.699219 45.542969 28.746094 45.453125 28.890625 45.363281 C 29.035156 45.273438 29.296875 45.21875 29.808594 45.21875 L 31.011719 45.21875 C 31.644531 45.21875 32.125 45.238281 32.386719 45.363281 C 32.515625 45.421875 32.59375 45.492188 32.652344 45.601562 C 32.710938 45.714844 32.75 45.878906 32.75 46.085938 L 32.75 46.761719 C 32.621094 46.621094 32.492188 46.488281 32.289062 46.421875 C 32 46.328125 31.628906 46.277344 31.085938 46.277344 L 29.761719 46.277344 C 29.035156 46.277344 28.460938 46.304688 28.050781 46.496094 C 27.84375 46.589844 27.675781 46.761719 27.566406 46.953125 C 27.457031 47.148438 27.398438 47.382812 27.398438 47.675781 L 27.398438 47.964844 C 27.398438 48.441406 27.515625 48.863281 27.785156 49.148438 C 28.054688 49.433594 28.441406 49.582031 29.085938 49.582031 L 31.085938 49.582031 C 31.722656 49.582031 32.132812 49.558594 32.410156 49.460938 C 32.578125 49.402344 32.652344 49.257812 32.75 49.148438 L 32.75 49.511719 L 33.808594 49.511719 L 33.808594 46.109375 C 33.808594 45.347656 33.523438 44.847656 33.039062 44.589844 Z M 32.75 48.0625 C 32.75 48.195312 32.710938 48.304688 32.652344 48.375 C 32.59375 48.445312 32.515625 48.496094 32.363281 48.542969 C 32.058594 48.636719 31.519531 48.664062 30.773438 48.664062 L 29.710938 48.664062 C 29.152344 48.664062 28.824219 48.621094 28.675781 48.519531 C 28.601562 48.46875 28.558594 48.378906 28.53125 48.300781 C 28.503906 48.222656 28.507812 48.144531 28.507812 48.011719 L 28.507812 47.867188 C 28.507812 47.722656 28.496094 47.609375 28.53125 47.53125 C 28.566406 47.453125 28.613281 47.386719 28.699219 47.339844 C 28.867188 47.246094 29.207031 47.21875 29.734375 47.21875 L 30.988281 47.21875 C 31.621094 47.21875 32.085938 47.242188 32.363281 47.339844 C 32.5 47.386719 32.59375 47.453125 32.652344 47.53125 C 32.710938 47.609375 32.75 47.71875 32.75 47.867188 Z M 32.75 48.0625 "/>
    <path style=" stroke:none;fill-rule:nonzero;fill:rgb(0%,0%,0%);fill-opacity:1;" d="M 38.605469 52.472656 L 38.605469 67.417969 L 42.628906 67.417969 L 42.628906 56.691406 L 42.652344 56.691406 L 48.078125 67.417969 L 51.160156 67.417969 L 56.585938 56.691406 L 56.609375 56.691406 L 56.609375 67.417969 L 60.632812 67.417969 L 60.632812 52.472656 L 54.296875 52.472656 L 49.621094 62.089844 L 44.945312 52.472656 Z M 38.605469 52.472656 "/>
    <path style=" stroke:none;fill-rule:nonzero;fill:rgb(0%,0%,0%);fill-opacity:1;" d="M 21.082031 52.617188 L 21.082031 67.539062 L 25.664062 67.539062 L 25.664062 62.453125 L 36.148438 62.453125 L 36.148438 58.980469 L 25.664062 58.980469 L 25.664062 56.210938 L 36.675781 56.210938 L 36.675781 52.617188 Z M 21.082031 52.617188 "/>
    <path style=" stroke:none;fill-rule:nonzero;fill:rgb(0%,0%,0%);fill-opacity:1;" d="M 77.433594 61.199219 L 77.433594 52.617188 L 72.417969 52.617188 L 62.296875 59.078125 L 62.296875 64.550781 L 73.3125 64.550781 L 73.3125 67.539062 L 77.433594 67.539062 L 77.433594 64.550781 L 79.527344 64.550781 L 79.527344 61.199219 Z M 73.3125 61.199219 L 65.695312 61.199219 L 65.695312 61.175781 L 73.3125 56.210938 Z M 73.3125 61.199219 "/>
  </g>
</svg>