<?xml version="1.0" encoding="UTF-8" standalone="no"?>
<!-- Generator: Adobe Illustrator 13.0.0, SVG Export Plug-In . SVG Version: 6.00 Build 14948)  -->

<svg
   xmlns:dc="http://purl.org/dc/elements/1.1/"
   xmlns:cc="http://creativecommons.org/ns#"
   xmlns:rdf="http://www.w3.org/1999/02/22-rdf-syntax-ns#"
   xmlns:svg="http://www.w3.org/2000/svg"
   xmlns="http://www.w3.org/2000/svg"
   xmlns:sodipodi="http://sodipodi.sourceforge.net/DTD/sodipodi-0.dtd"
   xmlns:inkscape="http://www.inkscape.org/namespaces/inkscape"
   version="1.0"
   id="Layer_1"
   x="0px"
   y="0px"
   width="194.48"
   height="194.504"
   viewBox="0 0 194.48 194.504"
   enable-background="new 0 0 200 200"
   xml:space="preserve"
   inkscape:version="0.48.2 r9819"
   sodipodi:docname="AJAX1.svg"><metadata
   id="metadata37"><rdf:RDF><cc:Work
       rdf:about=""><dc:format>image/svg+xml</dc:format><dc:type
         rdf:resource="http://purl.org/dc/dcmitype/StillImage" /></cc:Work></rdf:RDF></metadata><defs
   id="defs35" /><sodipodi:namedview
   pagecolor="#ffffff"
   bordercolor="#666666"
   borderopacity="1"
   objecttolerance="10"
   gridtolerance="10"
   guidetolerance="10"
   inkscape:pageopacity="0"
   inkscape:pageshadow="2"
   inkscape:window-width="1280"
   inkscape:window-height="1004"
   id="namedview33"
   showgrid="false"
   fit-margin-top="0"
   fit-margin-left="0"
   fit-margin-right="0"
   fit-margin-bottom="0"
   inkscape:zoom="2.36"
   inkscape:cx="53.386965"
   inkscape:cy="78.739958"
   inkscape:window-x="-8"
   inkscape:window-y="-8"
   inkscape:window-maximized="1"
   inkscape:current-layer="g3" />
<g
   id="g3"
   transform="translate(-0.732,-2.248001)">
	<path
   d="m 195.212,99.505 c 0,53.714 -43.533,97.247 -97.247,97.247 -53.705,0 -97.233,-43.533 -97.233,-97.247 0,-53.719 43.529,-97.257 97.233,-97.257 53.714,0 97.247,43.538 97.247,97.257"
   id="path5"
   style="fill:#ee3424;stroke:none"
   inkscape:connector-curvature="0" />
	
	
	<path
   d="m 34.353,128.785 c 1.674,-7.993 3.409,-25.721 5.633,-47.013 l 7.552,-0.019 0.527,-3.334 -7.665,0.019 c 0.696,-6.588 1.975,-20.803 8.13,-23.361 1.665,2.887 3.263,5.121 6.799,5.187 2.29,0.052 4.312,-0.969 4.35,-3.466 0.08,-3.531 -5.351,-4.97 -8.125,-5.017 -5.163,-0.085 -19.82,1.838 -23.431,21.574 l -0.936,5.083 -5.949,0.028 -0.541,3.353 6,0.019 c -1.735,15.456 -5.154,46.721 -6.084,51.01 -2.064,9.404 -2.784,11.661 -7.486,14.22 0.569,1.006 1.147,1.993 1.754,2.98 8.031,-2.453 17.064,-9.789 19.472,-21.263"
   id="path11"
   inkscape:connector-curvature="0"
   style="fill:#ffffff;stroke:none" />
	<path
   d="m 76.315,94.727 c 0,-3.95 -0.277,-13.312 -6.057,-13.312 -8.544,0 -9.738,16.43 -9.738,22.401 0,3.847 0.282,13.214 6.057,13.214 8.535,0 9.738,-16.429 9.738,-22.303 m -29.102,11.469 c 0,-15.151 9.907,-28.275 26.347,-28.275 10.105,0 16.063,4.5 16.063,14.318 0,15.151 -9.908,28.298 -26.347,28.298 -10.1,10e-4 -16.063,-4.504 -16.063,-14.341"
   id="path13"
   inkscape:connector-curvature="0"
   style="fill:#ffffff;stroke:none" />
	<path
   d="m 122.214,94.727 c 0,-3.95 -0.272,-13.312 -6.047,-13.312 -8.539,0 -9.743,16.43 -9.743,22.401 0,3.847 0.282,13.214 6.057,13.214 8.548,0 9.733,-16.429 9.733,-22.303 m -29.102,11.469 c 0,-15.151 9.908,-28.275 26.347,-28.275 10.119,0 16.072,4.5 16.072,14.318 0,15.151 -9.903,28.298 -26.343,28.298 -10.104,10e-4 -16.076,-4.504 -16.076,-14.341"
   id="path15"
   inkscape:connector-curvature="0"
   style="fill:#ffffff;stroke:none" />
	<path
   d="m 164.45,101.795 c 2.19,-5.681 2.943,-10.919 4.138,-19.463 -0.461,-0.183 -1.016,-0.268 -1.467,-0.268 -10.11,0 -14.888,14.685 -14.888,22.863 0,2.013 0.461,6.884 3.395,6.884 4.044,0 7.618,-6.884 8.822,-10.016 m 21.019,13.674 c -5.784,2.774 -12.837,5.06 -17.709,5.06 -2.482,0 -2.389,-3.94 -2.389,-5.604 0,-1.929 0.188,-4.59 0.64,-9.725 l -0.188,-0.188 c -3.302,6.621 -9.734,15.518 -18.001,15.518 -6.592,0 -9.357,-6.884 -9.357,-12.583 0,-14.413 11.389,-29.389 27.273,-29.389 h 3.301 c 1.298,-9.997 1.373,-14.224 1.373,-17.248 0,-1.011 0,-1.928 -1.101,-1.928 -0.837,0 -2.097,0.263 -5.332,1.284 L 163.17,58 c 6.508,-2.295 13.599,-3.757 19.909,-3.94 0.827,0 1.109,0 1.109,1.377 0,8.445 -6.348,52.049 -6.348,56.451 0,1.204 0,2.765 1.204,2.765 0.639,0 2.765,-0.733 5.604,-1.739 l 0.821,2.555"
   id="path17"
   inkscape:connector-curvature="0"
   style="fill:#ffffff;stroke:none" />
	<path
   d="m 60.981,143.137 v -11.765 h 2.582 v 1.27 c 1.03,-0.733 2.224,-1.486 3.611,-1.486 2.337,0 3.475,1.543 3.475,3.932 v 8.05 H 67.846 V 135.5 c 0,-1.599 -0.499,-2.087 -1.443,-2.087 -1.213,0 -2.149,0.695 -2.619,1.241 v 8.482 h -2.803 z"
   id="path19"
   inkscape:connector-curvature="0"
   style="fill:#ffffff;stroke:none" />
	<path
   d="m 82.664,135.802 c -0.042,-1.627 -0.908,-2.567 -2.267,-2.567 -1.345,0 -2.206,0.94 -2.262,2.567 h 4.529 z m -4.529,1.909 c 0.056,2.436 1.138,3.395 2.455,3.395 1.302,0 1.909,-0.602 2.61,-1.41 l 2.041,1.26 c -1.077,1.674 -2.666,2.389 -4.928,2.389 -3.052,0 -4.961,-2.36 -4.961,-6.085 0,-3.733 1.909,-6.104 5.106,-6.104 3.071,-0.037 4.782,2.577 4.782,5.398 v 1.157 h -7.105"
   id="path21"
   inkscape:connector-curvature="0"
   style="fill:#ffffff;stroke:none" />
	<path
   d="m 90.704,131.372 v -3.865 h 2.803 v 3.865 h 2.309 v 2.267 h -2.309 v 6.658 c 0,0.62 0.329,0.809 1.021,0.809 0.423,0 0.875,-0.141 1.288,-0.244 v 2.332 c -0.775,0.075 -1.453,0.16 -2.224,0.16 -2.078,0 -2.887,-1.025 -2.887,-2.718 v -6.997 h -1.617 v -2.267 h 1.616 z"
   id="path23"
   inkscape:connector-curvature="0"
   style="fill:#ffffff;stroke:none" />
	<path
   style="fill:#ffffff;stroke:none"
   d="m 106.593,135.802 -0.056,0 -1.712,7.335 -2.53,0 -3.023,-11.765 2.666,0 1.599,7.326 0.037,0 1.702,-7.326 2.587,0 1.646,7.326 0.037,0 1.693,-7.326 2.653,0 -3.029,11.765 -2.549,0 z"
   id="polygon25" />
	<path
   d="m 122.468,133.413 c -1.561,0 -2.294,1.222 -2.294,3.837 0,2.614 0.733,3.855 2.294,3.855 1.562,0 2.305,-1.241 2.305,-3.855 -10e-4,-2.615 -0.744,-3.837 -2.305,-3.837 m 0,-2.258 c 3.198,0 5.116,2.38 5.116,6.095 0,3.743 -1.918,6.094 -5.116,6.094 -3.188,0 -5.097,-2.351 -5.097,-6.094 0,-3.715 1.909,-6.095 5.097,-6.095"
   id="path27"
   inkscape:connector-curvature="0"
   style="fill:#ffffff;stroke:none" />
	<path
   d="m 132.099,143.137 v -11.765 h 2.567 v 2.021 h 0.047 c 0.677,-1.41 1.617,-2.2 3.311,-2.238 v 2.953 c -0.15,-0.009 -0.32,-0.009 -0.508,-0.009 -1.393,0 -2.615,1.607 -2.615,1.89 v 7.147 h -2.802 z"
   id="path29"
   inkscape:connector-curvature="0"
   style="fill:#ffffff;stroke:none" />
	<path
   style="fill:#ffffff;stroke:none"
   d="m 145.312,143.137 -2.803,0 0,-16.317 2.803,0 0,9.094 0.084,0 3.47,-4.542 3.207,0 -3.469,4.392 3.714,7.373 -2.991,0 -2.596,-5.267 -1.419,1.637 z"
   id="polygon31" />
</g>
</svg>