<?xml version="1.0" encoding="UTF-8" standalone="yes"?>
<svg xmlns="http://www.w3.org/2000/svg" xmlns:xlink="http://www.w3.org/1999/xlink" width="106.66666666666666px" height="106.66666666666666px" viewBox="0 0 80 80" version="1.1">
  <g id="surface1">
    <path style=" stroke:none;fill-rule:nonzero;fill:rgb(93.333333%,20.392157%,14.117647%);fill-opacity:1;" d="M 80.199219 39.898438 C 80.199219 61.9375 62.246094 79.796875 40.097656 79.796875 C 17.949219 79.796875 0 61.9375 0 39.898438 C 0 17.863281 17.949219 0 40.097656 0 C 62.246094 0 80.199219 17.863281 80.199219 39.898438 "/>
    <path style=" stroke:none;fill-rule:nonzero;fill:rgb(100%,100%,100%);fill-opacity:1;" d="M 13.863281 51.914062 C 14.554688 48.632812 15.269531 41.359375 16.1875 32.625 L 19.300781 32.617188 L 19.519531 31.25 L 16.359375 31.257812 C 16.644531 28.554688 17.171875 22.722656 19.710938 21.671875 C 20.398438 22.859375 21.054688 23.773438 22.515625 23.800781 C 23.457031 23.824219 24.292969 23.402344 24.308594 22.378906 C 24.339844 20.929688 22.101562 20.339844 20.957031 20.320312 C 18.828125 20.285156 12.785156 21.074219 11.296875 29.171875 L 10.910156 31.257812 L 8.457031 31.269531 L 8.234375 32.644531 L 10.707031 32.652344 C 9.992188 38.992188 8.582031 51.820312 8.199219 53.578125 C 7.347656 57.4375 7.050781 58.363281 5.113281 59.414062 C 5.347656 59.824219 5.585938 60.230469 5.835938 60.636719 C 9.144531 59.628906 12.871094 56.621094 13.863281 51.914062 "/>
    <path style=" stroke:none;fill-rule:nonzero;fill:rgb(100%,100%,100%);fill-opacity:1;" d="M 31.167969 37.941406 C 31.167969 36.320312 31.054688 32.480469 28.671875 32.480469 C 25.148438 32.480469 24.65625 39.21875 24.65625 41.667969 C 24.65625 43.246094 24.769531 47.089844 27.152344 47.089844 C 30.671875 47.089844 31.167969 40.351562 31.167969 37.941406 M 19.167969 42.644531 C 19.167969 36.429688 23.253906 31.046875 30.03125 31.046875 C 34.199219 31.046875 36.65625 32.890625 36.65625 36.917969 C 36.65625 43.136719 32.570312 48.527344 25.792969 48.527344 C 21.625 48.527344 19.167969 46.679688 19.167969 42.644531 "/>
    <path style=" stroke:none;fill-rule:nonzero;fill:rgb(100%,100%,100%);fill-opacity:1;" d="M 50.09375 37.941406 C 50.09375 36.320312 49.984375 32.480469 47.601562 32.480469 C 44.082031 32.480469 43.585938 39.21875 43.585938 41.667969 C 43.585938 43.246094 43.699219 47.089844 46.082031 47.089844 C 49.605469 47.089844 50.09375 40.351562 50.09375 37.941406 M 38.09375 42.644531 C 38.09375 36.429688 42.179688 31.046875 48.960938 31.046875 C 53.132812 31.046875 55.585938 32.890625 55.585938 36.917969 C 55.585938 43.136719 51.503906 48.527344 44.722656 48.527344 C 40.558594 48.527344 38.09375 46.679688 38.09375 42.644531 "/>
    <path style=" stroke:none;fill-rule:nonzero;fill:rgb(100%,100%,100%);fill-opacity:1;" d="M 67.511719 40.839844 C 68.414062 38.507812 68.726562 36.359375 69.21875 32.855469 C 69.027344 32.78125 68.800781 32.746094 68.613281 32.746094 C 64.445312 32.746094 62.476562 38.769531 62.476562 42.125 C 62.476562 42.949219 62.664062 44.949219 63.875 44.949219 C 65.542969 44.949219 67.015625 42.125 67.511719 40.839844 M 76.179688 46.449219 C 73.796875 47.585938 70.886719 48.527344 68.878906 48.527344 C 67.855469 48.527344 67.890625 46.910156 67.890625 46.226562 C 67.890625 45.433594 67.96875 44.34375 68.15625 42.238281 L 68.078125 42.160156 C 66.71875 44.875 64.066406 48.527344 60.65625 48.527344 C 57.9375 48.527344 56.796875 45.703125 56.796875 43.363281 C 56.796875 37.449219 61.492188 31.308594 68.042969 31.308594 L 69.40625 31.308594 C 69.941406 27.207031 69.972656 25.472656 69.972656 24.230469 C 69.972656 23.816406 69.972656 23.441406 69.515625 23.441406 C 69.171875 23.441406 68.652344 23.546875 67.316406 23.964844 L 66.984375 22.871094 C 69.667969 21.929688 72.59375 21.332031 75.195312 21.257812 C 75.535156 21.257812 75.652344 21.257812 75.652344 21.820312 C 75.652344 25.285156 73.035156 43.175781 73.035156 44.980469 C 73.035156 45.472656 73.035156 46.113281 73.53125 46.113281 C 73.792969 46.113281 74.671875 45.8125 75.839844 45.402344 L 76.179688 46.449219 "/>
    <path style=" stroke:none;fill-rule:nonzero;fill:rgb(100%,100%,100%);fill-opacity:1;" d="M 24.84375 57.800781 L 24.84375 52.972656 L 25.910156 52.972656 L 25.910156 53.496094 C 26.335938 53.195312 26.828125 52.886719 27.398438 52.886719 C 28.363281 52.886719 28.832031 53.519531 28.832031 54.5 L 28.832031 57.800781 L 27.675781 57.800781 L 27.675781 54.667969 C 27.675781 54.011719 27.46875 53.8125 27.082031 53.8125 C 26.582031 53.8125 26.195312 54.097656 26 54.320312 L 26 57.800781 Z M 24.84375 57.800781 "/>
    <path style=" stroke:none;fill-rule:nonzero;fill:rgb(100%,100%,100%);fill-opacity:1;" d="M 33.785156 54.792969 C 33.769531 54.125 33.410156 53.738281 32.851562 53.738281 C 32.296875 53.738281 31.941406 54.125 31.917969 54.792969 Z M 31.917969 55.574219 C 31.941406 56.574219 32.386719 56.96875 32.929688 56.96875 C 33.46875 56.96875 33.71875 56.71875 34.007812 56.390625 L 34.847656 56.90625 C 34.40625 57.59375 33.75 57.886719 32.816406 57.886719 C 31.558594 57.886719 30.769531 56.917969 30.769531 55.390625 C 30.769531 53.859375 31.558594 52.886719 32.875 52.886719 C 34.144531 52.871094 34.847656 53.941406 34.847656 55.101562 L 34.847656 55.574219 L 31.917969 55.574219 "/>
    <path style=" stroke:none;fill-rule:nonzero;fill:rgb(100%,100%,100%);fill-opacity:1;" d="M 37.101562 52.972656 L 37.101562 51.386719 L 38.257812 51.386719 L 38.257812 52.972656 L 39.210938 52.972656 L 39.210938 53.902344 L 38.257812 53.902344 L 38.257812 56.636719 C 38.257812 56.890625 38.394531 56.96875 38.679688 56.96875 C 38.851562 56.96875 39.039062 56.910156 39.210938 56.867188 L 39.210938 57.824219 C 38.890625 57.855469 38.609375 57.890625 38.292969 57.890625 C 37.4375 57.890625 37.101562 57.46875 37.101562 56.773438 L 37.101562 53.902344 L 36.433594 53.902344 L 36.433594 52.972656 Z M 37.101562 52.972656 "/>
    <path style=" stroke:none;fill-rule:nonzero;fill:rgb(100%,100%,100%);fill-opacity:1;" d="M 43.652344 54.792969 L 43.632812 54.792969 L 42.925781 57.800781 L 41.882812 57.800781 L 40.636719 52.972656 L 41.734375 52.972656 L 42.394531 55.980469 L 42.410156 55.980469 L 43.109375 52.972656 L 44.175781 52.972656 L 44.855469 55.980469 L 44.871094 55.980469 L 45.570312 52.972656 L 46.664062 52.972656 L 45.414062 57.800781 L 44.363281 57.800781 Z M 43.652344 54.792969 "/>
    <path style=" stroke:none;fill-rule:nonzero;fill:rgb(100%,100%,100%);fill-opacity:1;" d="M 50.199219 53.8125 C 49.558594 53.8125 49.253906 54.3125 49.253906 55.386719 C 49.253906 56.457031 49.558594 56.96875 50.199219 56.96875 C 50.84375 56.96875 51.152344 56.457031 51.152344 55.386719 C 51.152344 54.3125 50.84375 53.8125 50.199219 53.8125 M 50.199219 52.886719 C 51.519531 52.886719 52.308594 53.863281 52.308594 55.386719 C 52.308594 56.921875 51.519531 57.886719 50.199219 57.886719 C 48.886719 57.886719 48.097656 56.921875 48.097656 55.386719 C 48.097656 53.863281 48.886719 52.886719 50.199219 52.886719 "/>
    <path style=" stroke:none;fill-rule:nonzero;fill:rgb(100%,100%,100%);fill-opacity:1;" d="M 54.171875 57.800781 L 54.171875 52.972656 L 55.230469 52.972656 L 55.230469 53.804688 L 55.25 53.804688 C 55.527344 53.226562 55.917969 52.902344 56.617188 52.886719 L 56.617188 54.097656 C 56.554688 54.09375 56.484375 54.09375 56.40625 54.09375 C 55.832031 54.09375 55.328125 54.753906 55.328125 54.867188 L 55.328125 57.800781 Z M 54.171875 57.800781 "/>
    <path style=" stroke:none;fill-rule:nonzero;fill:rgb(100%,100%,100%);fill-opacity:1;" d="M 59.621094 57.800781 L 58.464844 57.800781 L 58.464844 51.105469 L 59.621094 51.105469 L 59.621094 54.835938 L 59.65625 54.835938 L 61.085938 52.972656 L 62.410156 52.972656 L 60.976562 54.777344 L 62.507812 57.800781 L 61.277344 57.800781 L 60.207031 55.640625 L 59.621094 56.3125 Z M 59.621094 57.800781 "/>
  </g>
</svg>