<?xml version="1.0" encoding="UTF-8" ?>
<!DOCTYPE svg PUBLIC "-//W3C//DTD SVG 1.1//EN" "http://www.w3.org/Graphics/SVG/1.1/DTD/svg11.dtd">
<svg width="1550pt" height="136pt" viewBox="0 0 1550 136" version="1.1" xmlns="http://www.w3.org/2000/svg">
<g id="#ffffffff">
</g>
<g id="#370505ff">
<path fill="#370505" opacity="1.00" d=" M 63.88 0.00 L 71.24 0.00 C 87.30 1.23 103.65 7.22 114.80 19.20 C 120.14 24.63 122.12 33.16 119.17 40.27 C 115.22 49.96 102.08 54.49 93.10 48.99 C 87.32 45.34 82.05 40.52 75.26 38.82 C 61.59 35.13 46.36 43.12 40.94 56.04 C 35.61 67.58 38.98 82.18 48.59 90.41 C 56.64 97.64 68.81 100.17 78.92 96.11 C 84.23 94.07 88.60 90.34 93.32 87.28 C 102.12 81.52 115.34 85.69 119.64 95.18 C 122.86 102.27 121.04 111.05 115.66 116.60 C 104.28 128.87 87.46 134.79 71.07 136.00 L 63.68 136.00 C 48.73 135.06 34.10 129.17 22.96 119.11 C 9.30 107.05 0.93 89.38 0.00 71.21 L 0.00 64.62 C 0.99 46.98 8.94 29.83 21.97 17.86 C 33.28 7.22 48.39 0.91 63.88 0.00 Z" />
<path fill="#370505" opacity="1.00" d=" M 389.59 6.83 C 402.92 4.52 416.99 6.71 428.97 13.02 C 442.21 19.92 452.84 31.71 458.22 45.64 C 463.91 60.10 463.80 76.74 457.91 91.12 C 452.24 105.16 441.20 116.92 427.59 123.54 C 414.51 129.99 399.14 131.59 385.00 128.05 C 371.17 124.67 358.63 116.32 350.12 104.91 C 342.16 94.37 337.74 81.21 337.80 68.00 C 337.74 54.51 342.35 41.07 350.60 30.39 C 360.03 18.02 374.23 9.39 389.59 6.83 M 392.48 29.72 C 382.12 31.87 372.95 38.70 367.63 47.79 C 361.92 57.33 360.57 69.31 363.91 79.91 C 367.05 90.18 374.62 99.05 384.38 103.58 C 392.92 107.61 403.02 108.18 411.95 105.11 C 421.39 101.94 429.36 94.83 433.83 85.96 C 438.68 76.47 439.44 64.98 435.88 54.94 C 432.63 45.56 425.70 37.48 416.83 32.97 C 409.41 29.13 400.65 28.00 392.48 29.72 Z" />
<path fill="#370505" opacity="1.00" d=" M 905.50 6.79 C 918.52 4.37 932.31 6.19 944.19 12.05 C 956.91 18.25 967.37 28.91 973.32 41.75 C 980.19 56.35 981.00 73.66 975.59 88.86 C 970.50 103.37 959.78 115.77 946.20 122.96 C 932.96 130.07 917.11 132.06 902.50 128.59 C 888.82 125.40 876.36 117.33 867.79 106.21 C 859.36 95.39 854.72 81.69 854.81 67.97 C 854.76 54.29 859.42 40.66 867.82 29.86 C 877.00 17.91 890.66 9.48 905.50 6.79 M 909.59 22.74 C 892.05 25.54 877.27 39.76 873.20 56.96 C 869.84 70.26 872.82 84.98 881.16 95.88 C 888.86 106.17 901.10 113.01 913.97 113.77 C 926.71 114.70 939.64 109.67 948.60 100.60 C 957.41 91.86 962.44 79.44 962.06 67.02 C 961.86 52.86 954.58 39.07 943.12 30.78 C 933.62 23.74 921.25 20.72 909.59 22.74 Z" />
<path fill="#370505" opacity="1.00" d=" M 1271.53 6.68 C 1289.68 3.39 1309.17 8.73 1323.04 20.93 C 1336.57 32.53 1344.70 50.16 1344.57 68.00 C 1344.75 85.85 1336.64 103.51 1323.09 115.11 C 1309.77 126.76 1291.32 132.17 1273.82 129.67 C 1255.85 127.34 1239.26 116.57 1229.72 101.18 C 1218.35 83.33 1217.17 59.61 1226.55 40.66 C 1235.01 23.04 1252.23 9.94 1271.53 6.68 M 1275.49 22.67 C 1262.29 24.68 1250.39 33.09 1243.70 44.59 C 1236.49 56.67 1235.28 72.09 1240.55 85.14 C 1245.94 98.91 1258.37 109.77 1272.90 112.84 C 1289.10 116.61 1306.90 110.06 1317.20 97.10 C 1328.92 83.09 1330.86 61.96 1321.92 46.05 C 1313.27 29.63 1293.92 19.47 1275.49 22.67 Z" />
<path fill="#370505" opacity="1.00" d=" M 193.03 16.98 C 192.88 13.14 195.18 9.13 199.06 8.17 C 202.61 7.35 206.31 7.59 209.92 7.78 C 213.64 7.95 216.70 10.48 218.65 13.50 C 229.25 29.02 239.78 44.59 250.39 60.11 C 261.20 44.36 271.94 28.56 282.76 12.82 C 284.74 9.64 288.29 7.61 292.07 7.69 C 296.20 7.74 300.86 6.94 304.48 9.43 C 307.22 11.29 308.02 14.80 307.94 17.92 C 307.91 51.64 307.99 85.36 307.90 119.08 C 308.01 123.13 305.23 127.13 301.13 127.84 C 297.27 128.31 293.17 128.60 289.44 127.36 C 285.67 126.01 283.96 121.83 284.15 118.08 C 284.10 95.89 284.17 73.69 284.12 51.50 C 276.99 61.95 269.99 72.48 262.86 82.92 C 260.99 85.66 258.68 88.51 255.26 89.24 C 252.14 89.79 248.90 89.78 245.78 89.26 C 242.31 88.56 239.96 85.69 238.09 82.92 C 230.95 72.47 223.95 61.94 216.81 51.49 C 216.77 73.66 216.83 95.84 216.78 118.01 C 217.08 122.16 214.78 126.66 210.50 127.68 C 206.75 128.44 202.76 128.45 199.03 127.63 C 194.86 126.55 192.70 122.08 193.00 118.02 C 193.02 84.34 192.96 50.66 193.03 16.98 Z" />
<path fill="#370505" opacity="1.00" d=" M 495.04 10.05 C 497.17 8.03 500.23 7.62 503.04 7.64 C 515.69 7.64 528.33 7.64 540.98 7.65 C 551.50 7.64 561.85 12.35 568.91 20.12 C 577.33 29.21 581.23 42.68 577.79 54.73 C 575.30 63.63 569.11 71.13 561.48 76.18 C 567.55 81.40 571.68 88.58 573.77 96.27 C 575.81 103.84 578.38 111.29 580.09 118.94 C 581.32 123.85 576.64 128.02 572.02 128.11 C 566.72 128.39 559.39 129.01 556.91 123.04 C 554.14 115.21 552.47 107.02 549.85 99.13 C 547.11 91.41 540.11 85.13 531.84 84.21 C 526.59 83.78 521.31 84.09 516.06 84.00 C 516.03 95.69 516.12 107.38 516.02 119.06 C 516.23 123.58 512.65 127.85 508.05 128.05 C 503.72 128.20 498.66 128.91 495.12 125.81 C 492.62 123.64 492.20 120.12 492.26 117.01 C 492.28 83.99 492.25 50.97 492.27 17.95 C 492.25 15.12 492.82 12.01 495.04 10.05 M 516.06 30.12 C 516.06 40.59 516.05 51.06 516.07 61.52 C 524.23 61.47 532.39 61.60 540.55 61.47 C 548.04 61.20 554.38 54.55 554.68 47.13 C 555.50 39.02 549.11 30.77 540.85 30.20 C 532.59 30.00 524.32 30.18 516.06 30.12 Z" />
<path fill="#370505" opacity="1.00" d=" M 612.97 17.00 C 612.65 11.94 616.99 7.47 622.08 7.70 C 641.04 7.57 660.02 7.66 678.99 7.66 C 683.16 7.41 687.75 9.77 688.64 14.12 C 689.27 17.74 689.46 21.67 688.11 25.16 C 686.62 28.68 682.62 30.16 679.03 30.09 C 664.93 30.16 650.84 30.09 636.74 30.12 C 636.73 39.06 636.73 48.00 636.74 56.94 C 648.48 56.96 660.23 56.91 671.97 56.96 C 675.76 56.84 679.98 58.66 681.23 62.51 C 682.25 66.05 682.22 69.93 681.37 73.50 C 680.24 77.54 675.86 79.53 671.93 79.39 C 660.20 79.48 648.47 79.38 636.74 79.43 C 636.73 88.18 636.74 96.94 636.73 105.69 C 651.15 105.75 665.57 105.63 679.99 105.75 C 684.15 105.55 688.60 108.10 689.37 112.42 C 689.87 115.89 690.08 119.58 688.97 122.95 C 687.67 126.57 683.64 128.23 680.03 128.16 C 661.69 128.22 643.35 128.14 625.02 128.19 C 621.70 128.26 617.94 128.06 615.51 125.50 C 613.23 123.29 612.89 119.95 612.93 116.95 C 612.97 83.63 612.89 50.32 612.97 17.00 Z" />
<path fill="#370505" opacity="1.00" d=" M 763.84 13.96 C 763.48 10.48 766.49 7.28 770.03 7.66 C 789.67 7.62 809.31 7.64 828.96 7.65 C 831.75 7.40 834.75 9.16 835.21 12.07 C 835.52 14.66 835.64 17.36 835.01 19.90 C 834.29 22.45 831.57 23.72 829.10 23.63 C 812.90 23.72 796.69 23.64 780.49 23.67 C 780.47 36.37 780.49 49.06 780.48 61.76 C 794.29 61.78 808.11 61.73 821.93 61.78 C 824.71 61.54 827.82 63.13 828.36 66.06 C 828.71 68.75 828.88 71.58 828.16 74.22 C 827.33 76.76 824.54 77.91 822.05 77.79 C 808.20 77.82 794.35 77.78 780.49 77.81 C 780.45 92.52 780.52 107.23 780.47 121.94 C 780.69 124.75 778.91 127.77 775.97 128.18 C 773.33 128.48 770.63 128.52 768.01 128.11 C 765.27 127.56 763.66 124.71 763.84 122.06 C 763.81 86.02 763.81 49.99 763.84 13.96 Z" />
<path fill="#370505" opacity="1.00" d=" M 995.00 12.97 C 995.07 9.87 997.96 7.41 1001.03 7.67 C 1026.69 7.64 1052.35 7.60 1078.01 7.69 C 1081.39 7.52 1083.94 10.69 1083.71 13.94 C 1084.23 17.70 1083.45 23.23 1078.67 23.53 C 1068.35 23.87 1058.00 23.56 1047.68 23.68 C 1047.64 56.46 1047.71 89.25 1047.64 122.04 C 1047.83 124.88 1045.96 127.90 1042.96 128.21 C 1040.04 128.40 1036.95 128.74 1034.16 127.76 C 1031.53 126.66 1030.82 123.58 1030.94 121.02 C 1030.94 88.57 1030.94 56.12 1030.94 23.67 C 1021.59 23.67 1012.25 23.67 1002.91 23.68 C 1000.59 23.68 997.86 23.62 996.29 21.64 C 994.38 19.19 994.95 15.85 995.00 12.97 Z" />
<path fill="#370505" opacity="1.00" d=" M 1110.91 13.99 C 1110.57 10.52 1113.54 7.31 1117.08 7.67 C 1129.72 7.60 1142.36 7.66 1155.01 7.64 C 1163.79 7.59 1172.98 9.44 1180.12 14.83 C 1191.77 23.54 1194.62 40.88 1188.81 53.75 C 1186.15 59.44 1181.26 63.89 1175.54 66.40 C 1182.24 68.49 1188.61 72.42 1192.51 78.40 C 1197.72 86.44 1198.22 96.83 1195.62 105.86 C 1192.88 115.27 1185.08 122.66 1175.89 125.76 C 1166.66 129.25 1156.65 128.20 1147.00 128.36 C 1136.67 128.29 1126.33 128.49 1116.00 128.26 C 1112.86 128.15 1110.70 125.05 1110.91 122.07 C 1110.86 86.05 1110.87 50.02 1110.91 13.99 M 1127.61 23.68 C 1127.59 35.68 1127.61 47.68 1127.60 59.69 C 1135.41 59.72 1143.21 59.69 1151.02 59.70 C 1155.92 59.69 1161.14 60.15 1165.64 57.77 C 1176.13 52.70 1178.13 36.26 1169.33 28.72 C 1164.83 24.91 1158.74 23.72 1153.00 23.67 C 1144.53 23.66 1136.07 23.67 1127.61 23.68 M 1127.60 75.43 C 1127.61 87.73 1127.60 100.02 1127.61 112.32 C 1136.41 112.34 1145.20 112.32 1154.00 112.34 C 1160.98 112.56 1168.61 111.85 1174.19 107.19 C 1181.93 101.00 1182.03 87.87 1174.76 81.28 C 1169.74 76.65 1162.61 75.40 1156.01 75.42 C 1146.54 75.42 1137.07 75.41 1127.60 75.43 Z" />
<path fill="#370505" opacity="1.00" d=" M 1372.26 14.96 C 1372.07 12.19 1373.06 8.82 1376.07 8.01 C 1378.96 7.40 1382.04 7.47 1384.97 7.94 C 1388.08 8.67 1389.22 12.13 1389.00 14.99 C 1389.00 47.44 1388.99 79.88 1389.00 112.33 C 1406.31 112.38 1423.62 112.24 1440.93 112.39 C 1443.99 112.28 1446.72 114.80 1446.73 117.89 C 1447.21 121.74 1446.99 127.59 1442.04 128.22 C 1421.71 128.55 1401.36 128.24 1381.02 128.38 C 1378.72 128.34 1376.13 128.59 1374.26 127.01 C 1372.48 125.58 1372.26 123.15 1372.26 121.04 C 1372.27 85.68 1372.26 50.32 1372.26 14.96 Z" />
<path fill="#370505" opacity="1.00" d=" M 1475.61 13.01 C 1475.68 7.60 1481.96 7.14 1486.02 7.65 C 1489.52 7.34 1492.51 10.47 1492.16 13.95 C 1492.21 46.74 1492.16 79.53 1492.18 112.32 C 1509.39 112.37 1526.61 112.25 1543.83 112.38 C 1546.93 112.18 1549.64 114.48 1550.00 117.57 L 1550.00 123.51 C 1549.40 126.33 1546.92 128.55 1543.96 128.32 C 1523.30 128.40 1502.63 128.36 1481.98 128.34 C 1478.35 128.78 1475.12 125.64 1475.55 122.00 C 1475.54 85.67 1475.41 49.33 1475.61 13.01 Z" />
</g>
</svg>
