<?xml version="1.0" encoding="UTF-8" ?>
<!DOCTYPE svg PUBLIC "-//W3C//DTD SVG 1.1//EN" "http://www.w3.org/Graphics/SVG/1.1/DTD/svg11.dtd">
<svg width="500pt" height="154pt" viewBox="0 0 500 154" version="1.1" xmlns="http://www.w3.org/2000/svg">
<g id="#000000ff">
<path fill="#000000" opacity="1.00" d=" M 46.52 3.82 C 55.54 2.39 65.30 2.42 73.74 6.27 C 80.91 9.55 81.12 20.62 74.53 24.62 C 68.44 28.67 61.46 23.56 54.90 24.36 C 40.18 24.55 27.00 37.30 26.48 52.04 C 25.51 65.38 35.09 78.46 47.97 81.85 C 58.78 84.96 71.27 81.16 78.39 72.43 C 81.30 68.65 83.65 63.35 89.02 62.76 C 96.08 61.05 103.06 68.03 101.64 75.08 C 100.18 81.47 95.38 86.41 90.78 90.80 C 77.95 102.65 58.97 107.10 42.15 102.55 C 30.56 99.63 20.35 92.11 13.77 82.18 C 4.46 68.69 2.29 50.59 8.22 35.31 C 14.29 19.01 29.49 6.86 46.52 3.82 Z" />
<path fill="#000000" opacity="1.00" d=" M 270.26 6.37 C 282.43 5.51 295.07 8.72 304.80 16.22 C 315.34 24.15 322.00 36.85 322.78 49.99 C 324.00 64.72 317.90 79.89 306.51 89.38 C 294.29 99.84 276.92 103.19 261.42 99.55 C 249.68 96.90 238.99 89.64 232.46 79.49 C 224.37 67.08 222.82 50.82 227.97 36.98 C 234.25 19.45 251.83 7.28 270.26 6.37 M 268.45 25.53 C 261.67 26.82 255.46 30.83 251.55 36.52 C 243.27 48.33 245.09 66.32 256.32 75.65 C 266.75 84.94 284.36 84.17 293.81 73.82 C 304.20 63.01 304.01 44.12 293.58 33.41 C 287.28 26.69 277.44 23.70 268.45 25.53 Z" />
<path fill="#000000" opacity="1.00" d=" M 122.98 9.96 C 128.23 5.50 137.82 6.23 141.48 12.42 C 149.64 25.52 157.68 38.70 165.84 51.80 C 174.02 38.67 182.11 25.48 190.29 12.35 C 193.76 6.20 202.97 5.74 208.26 9.64 C 211.39 12.06 212.15 16.21 212.02 19.95 C 211.95 42.97 212.06 65.99 211.97 89.01 C 212.38 94.31 208.47 99.58 203.06 100.09 C 197.17 101.08 191.38 95.94 191.54 90.00 C 191.41 75.03 191.55 60.07 191.49 45.10 C 185.90 53.63 180.33 62.19 174.77 70.74 C 172.82 73.75 169.98 76.85 166.09 76.78 C 162.48 77.16 159.16 74.94 157.26 72.00 C 151.39 63.15 145.72 54.16 139.78 45.36 C 139.70 60.26 139.77 75.16 139.76 90.05 C 140.16 94.69 136.55 99.03 132.07 99.92 C 125.95 101.59 119.36 96.32 119.78 89.95 C 119.70 66.30 119.80 42.65 119.73 19.00 C 119.61 15.72 120.43 12.21 122.98 9.96 Z" />
<path fill="#000000" opacity="1.00" d=" M 336.03 17.92 C 335.89 12.91 339.98 8.22 345.03 7.93 C 350.69 7.48 356.38 7.87 362.05 7.75 C 371.89 7.97 381.97 6.89 391.59 9.55 C 399.77 11.72 407.32 17.30 410.50 25.33 C 413.94 34.02 413.81 44.27 409.79 52.75 C 406.82 59.08 400.94 63.39 394.77 66.31 C 399.16 71.56 403.50 76.86 407.90 82.11 C 409.99 84.63 412.10 87.60 411.80 91.05 C 411.92 95.43 408.27 99.30 404.05 99.98 C 399.47 100.94 394.78 98.68 392.08 95.00 C 385.56 86.75 379.00 78.53 372.50 70.27 C 367.17 70.23 361.83 70.26 356.51 70.25 C 356.36 77.35 356.77 84.47 356.34 91.57 C 355.72 98.26 347.55 102.21 341.72 99.17 C 337.83 97.45 335.71 93.14 335.99 88.99 C 336.03 65.30 335.95 41.61 336.03 17.92 M 356.51 26.24 C 356.49 34.91 356.50 43.58 356.50 52.25 C 365.65 51.77 375.07 53.42 384.01 50.99 C 392.02 48.60 394.66 37.73 389.71 31.37 C 386.77 27.49 381.62 26.31 376.99 26.25 C 370.16 26.20 363.34 26.29 356.51 26.24 Z" />
<path fill="#000000" opacity="1.00" d=" M 432.09 9.20 C 434.78 7.62 438.00 7.75 441.01 7.72 C 456.65 7.82 472.29 7.66 487.93 7.79 C 492.64 7.58 497.06 11.27 497.46 16.01 C 498.20 21.32 493.40 26.28 488.10 25.96 C 474.57 26.07 461.03 25.96 447.50 26.00 C 447.50 32.08 447.50 38.17 447.50 44.25 C 459.35 44.30 471.21 44.16 483.06 44.30 C 487.64 44.32 491.59 48.48 491.55 53.03 C 491.90 57.76 487.82 62.21 483.07 62.20 C 471.22 62.35 459.36 62.20 447.51 62.24 C 447.50 68.58 447.50 74.91 447.50 81.25 C 461.37 81.29 475.23 81.18 489.09 81.29 C 493.80 81.11 498.09 85.24 498.04 89.96 C 498.61 94.97 493.96 99.62 488.98 99.25 C 471.97 99.27 454.96 99.22 437.95 99.27 C 432.66 99.85 427.27 95.54 427.29 90.11 C 427.19 66.07 427.28 42.02 427.25 17.98 C 427.05 14.43 428.98 10.92 432.09 9.20 Z" />
<path fill="#000000" opacity="1.00" d=" M 51.37 40.49 C 59.32 37.41 69.02 43.45 69.51 52.01 C 70.50 59.33 64.51 66.55 57.14 66.96 C 49.68 67.92 42.25 61.62 42.22 54.05 C 41.74 48.14 45.74 42.29 51.37 40.49 Z" />
<path fill="#000000" opacity="1.00" d=" M 107.41 122.10 C 107.60 120.00 110.39 119.61 111.47 121.35 C 111.86 123.39 111.71 125.48 111.75 127.55 C 114.54 126.40 118.36 125.79 120.30 128.72 C 122.34 132.45 122.39 137.53 120.15 141.19 C 118.21 143.93 114.67 143.26 111.93 142.36 C 110.48 142.87 107.84 143.97 107.47 141.67 C 107.07 135.17 107.17 128.61 107.41 122.10 M 113.02 130.70 C 110.63 133.22 111.06 140.78 115.86 139.06 C 118.54 136.71 117.84 128.82 113.02 130.70 Z" />
<path fill="#000000" opacity="1.00" d=" M 149.19 121.99 C 149.47 119.71 153.09 119.57 153.28 122.02 C 153.78 127.40 153.29 132.83 153.52 138.23 C 154.82 139.26 156.43 140.19 156.58 142.05 C 154.83 143.78 151.77 143.63 150.06 141.95 C 148.74 139.89 149.08 137.31 148.97 134.98 C 149.08 130.65 148.74 126.30 149.19 121.99 Z" />
<path fill="#000000" opacity="1.00" d=" M 163.01 123.90 C 162.96 122.47 163.23 120.26 165.11 120.26 C 166.78 119.86 167.34 121.71 167.40 123.03 C 167.64 128.23 167.37 133.44 167.49 138.64 C 168.54 139.11 169.59 139.59 170.65 140.06 C 170.75 144.71 163.49 144.01 163.25 139.94 C 162.70 134.62 163.05 129.24 163.01 123.90 Z" />
<path fill="#000000" opacity="1.00" d=" M 193.36 121.29 C 193.79 119.39 196.20 119.84 197.12 121.10 C 196.68 125.13 194.95 128.85 193.84 132.71 C 192.70 136.00 192.03 139.47 190.43 142.57 C 189.49 144.41 187.78 142.82 186.49 142.40 C 188.79 135.37 190.69 128.19 193.36 121.29 Z" />
<path fill="#000000" opacity="1.00" d=" M 215.44 122.07 C 215.59 119.60 219.57 119.70 219.81 122.07 C 220.16 124.54 220.00 127.05 220.03 129.54 C 222.58 129.53 225.13 129.53 227.68 129.54 C 227.66 126.38 227.73 123.20 228.42 120.09 C 229.79 120.52 231.98 120.12 232.29 122.03 C 232.66 128.33 232.53 134.68 232.36 140.99 C 232.60 143.51 228.98 144.05 228.00 141.96 C 227.54 139.24 227.74 136.47 227.71 133.73 C 225.15 133.73 222.59 133.73 220.03 133.73 C 219.92 136.62 220.37 139.62 219.52 142.43 C 218.06 144.09 215.18 143.18 215.37 140.86 C 215.20 134.61 215.08 128.32 215.44 122.07 Z" />
<path fill="#000000" opacity="1.00" d=" M 280.42 122.03 C 280.59 120.04 283.58 119.52 284.38 121.43 C 285.14 125.09 284.61 128.89 284.73 132.61 C 286.93 130.41 289.14 128.21 291.45 126.12 C 292.20 127.04 292.88 128.01 293.47 129.04 C 292.36 130.58 291.01 131.93 289.73 133.32 C 291.32 135.85 293.11 138.29 294.24 141.08 C 293.58 142.12 292.85 143.12 292.05 144.07 C 289.62 141.72 287.94 138.78 286.20 135.92 C 285.89 136.41 285.27 137.39 284.96 137.88 C 284.54 139.88 285.09 143.66 281.99 143.33 C 279.75 142.54 280.44 139.88 280.24 138.06 C 280.35 132.72 280.03 127.36 280.42 122.03 Z" />
<path fill="#000000" opacity="1.00" d=" M 359.19 120.05 C 360.36 119.87 361.34 120.22 362.13 121.11 C 361.37 126.39 359.06 131.28 357.70 136.40 C 356.72 138.84 356.56 141.97 354.27 143.62 C 353.58 143.30 352.19 142.67 351.49 142.35 C 353.18 136.83 355.00 131.35 356.69 125.83 C 357.35 123.85 357.85 121.72 359.19 120.05 Z" />
<path fill="#000000" opacity="1.00" d=" M 380.44 122.07 C 380.59 119.62 384.58 119.69 384.81 122.07 C 385.19 124.83 384.99 127.62 385.02 130.40 C 387.89 127.15 390.18 123.32 393.52 120.53 C 394.86 119.56 395.84 120.89 396.71 121.79 C 395.90 124.97 393.18 127.10 391.18 129.55 C 393.43 133.45 395.74 137.33 397.78 141.35 C 396.43 142.27 394.96 144.47 393.41 142.58 C 391.17 139.75 389.77 136.39 388.00 133.27 C 387.03 134.47 386.08 135.69 385.13 136.90 C 384.69 139.07 385.81 142.70 382.87 143.35 C 379.95 143.46 380.28 140.01 380.24 138.03 C 380.37 132.71 380.00 127.37 380.44 122.07 Z" />
<path fill="#000000" opacity="1.00" d=" M 405.26 120.33 C 408.20 118.53 410.62 123.39 407.71 124.85 C 405.00 126.96 402.31 121.49 405.26 120.33 Z" />
<path fill="#000000" opacity="1.00" d=" M 425.55 127.52 C 425.66 125.12 424.49 119.42 428.65 120.36 C 430.90 122.16 429.70 125.53 430.03 128.03 C 429.55 133.05 431.06 138.48 429.01 143.22 C 427.75 142.98 426.51 142.70 425.28 142.36 C 423.07 142.85 420.56 143.95 418.48 142.47 C 415.66 140.70 415.39 137.00 415.51 134.00 C 415.58 131.30 416.42 128.13 419.14 126.95 C 421.21 125.85 423.47 127.10 425.55 127.52 M 421.01 130.82 C 419.75 132.86 419.65 135.48 420.39 137.72 C 420.91 139.82 424.39 139.87 425.05 137.86 C 426.52 134.97 425.41 128.72 421.01 130.82 Z" />
<path fill="#000000" opacity="1.00" d=" M 52.30 140.08 C 52.58 133.70 51.42 127.02 52.95 120.83 C 57.23 120.34 61.60 120.31 65.89 120.74 C 68.03 120.85 67.77 124.65 65.66 124.55 C 62.79 124.93 59.89 124.72 57.00 124.74 C 57.00 126.39 57.00 128.04 57.00 129.70 C 59.84 129.88 62.94 129.17 65.56 130.57 C 65.81 131.50 65.77 132.42 65.44 133.33 C 62.79 134.44 59.82 133.90 57.02 134.03 C 56.93 136.84 57.35 139.75 56.50 142.48 C 54.62 144.46 51.84 142.54 52.30 140.08 Z" />
<path fill="#000000" opacity="1.00" d=" M 93.21 126.30 C 93.64 124.78 93.60 122.96 95.01 121.95 C 97.82 121.34 97.89 124.64 98.28 126.52 C 99.54 127.14 100.91 127.70 101.75 128.91 C 100.59 129.75 99.34 130.44 98.01 130.99 C 98.01 133.45 97.99 135.91 98.05 138.37 C 99.42 139.33 101.46 139.94 101.42 141.97 C 99.33 144.47 94.16 143.39 93.75 139.97 C 93.35 137.06 93.55 134.11 93.46 131.19 C 92.65 130.47 91.88 129.72 91.14 128.94 C 91.76 128.01 92.50 127.16 93.21 126.30 Z" />
<path fill="#000000" opacity="1.00" d=" M 74.48 127.66 C 77.81 125.53 83.20 126.22 85.03 130.01 C 86.38 133.12 86.42 136.88 84.90 139.93 C 82.37 144.84 73.75 144.28 72.12 138.90 C 70.98 135.21 71.10 130.16 74.48 127.66 M 77.05 130.81 C 75.55 133.15 75.41 136.59 77.10 138.88 C 83.20 141.99 83.28 127.83 77.05 130.81 Z" />
<path fill="#000000" opacity="1.00" d=" M 131.48 127.66 C 135.20 125.19 141.44 126.60 142.52 131.30 C 144.23 136.11 142.14 143.47 136.02 143.29 C 127.91 143.97 126.03 131.86 131.48 127.66 M 134.06 130.80 C 132.55 133.12 132.39 136.61 134.12 138.86 C 140.19 142.00 140.26 127.78 134.06 130.80 Z" />
<path fill="#000000" opacity="1.00" d=" M 243.49 127.65 C 247.21 125.18 253.47 126.61 254.53 131.33 C 256.22 136.15 254.11 143.49 248.00 143.29 C 239.90 143.95 238.04 131.85 243.49 127.65 M 246.09 130.79 C 244.66 132.77 244.63 135.51 245.40 137.74 C 245.95 139.82 249.37 139.87 250.07 137.85 C 251.53 135.00 250.46 128.79 246.09 130.79 Z" />
<path fill="#000000" opacity="1.00" d=" M 261.07 138.86 C 259.62 134.47 260.49 127.54 266.01 126.67 C 268.88 126.11 274.08 127.26 273.49 131.03 C 271.22 132.97 268.33 130.33 265.80 130.24 C 265.24 133.16 263.79 137.22 266.78 139.31 C 268.91 138.95 270.95 137.90 273.16 138.04 C 273.86 139.42 273.66 140.56 272.56 141.49 C 269.15 144.52 262.45 143.59 261.07 138.86 Z" />
<path fill="#000000" opacity="1.00" d=" M 301.89 128.83 C 305.32 124.84 313.52 125.99 314.55 131.60 C 314.78 133.09 315.75 135.17 313.99 136.10 C 310.65 136.42 307.29 136.22 303.96 136.54 C 304.90 137.58 305.91 138.54 306.99 139.44 C 309.49 139.68 311.90 137.89 314.38 138.68 C 315.32 141.51 312.09 142.48 310.00 143.01 C 306.42 144.00 301.79 142.45 300.73 138.60 C 299.95 135.40 299.87 131.62 301.89 128.83 M 304.08 133.16 C 306.33 133.23 308.59 133.24 310.85 133.21 C 310.02 132.04 309.71 130.00 307.91 130.00 C 305.79 129.52 305.17 131.92 304.08 133.16 Z" />
<path fill="#000000" opacity="1.00" d=" M 320.24 129.79 C 319.19 127.78 322.09 125.48 323.68 127.29 C 325.44 130.20 326.25 133.55 327.54 136.67 C 328.72 133.44 329.45 129.99 331.27 127.03 C 332.99 125.83 335.48 127.86 334.52 129.76 C 332.45 135.44 330.32 141.15 327.66 146.59 C 326.26 149.53 322.62 148.98 320.08 148.21 C 321.46 145.93 323.71 144.44 325.59 142.60 C 323.78 138.35 321.71 134.18 320.24 129.79 Z" />
<path fill="#000000" opacity="1.00" d=" M 405.21 127.20 C 406.60 125.82 408.79 127.33 408.62 129.11 C 408.82 133.28 409.00 137.50 408.49 141.64 C 408.34 143.87 404.64 143.79 404.48 141.66 C 404.12 137.03 403.96 132.29 404.61 127.68 L 405.21 127.20 Z" />
<path fill="#000000" opacity="1.00" d=" M 440.37 127.36 C 443.68 125.59 447.44 126.99 450.76 127.95 C 450.54 128.69 450.11 130.16 449.89 130.89 C 447.43 130.69 445.02 130.05 442.56 129.93 C 442.53 130.45 442.47 131.48 442.44 132.00 C 445.64 133.09 451.00 132.53 451.45 137.03 C 451.94 143.88 442.55 144.73 438.26 141.55 C 436.40 140.81 437.77 137.34 439.66 138.27 C 442.33 139.03 445.99 140.92 447.62 137.49 C 444.90 136.72 441.91 136.67 439.41 135.28 C 436.77 133.29 437.41 128.71 440.37 127.36 Z" />
</g>
</svg>
