<?xml version="1.0" encoding="UTF-8" standalone="yes"?>
<svg xmlns="http://www.w3.org/2000/svg" xmlns:xlink="http://www.w3.org/1999/xlink" width="1122.6666666666665px" height="106.66666666666666px" viewBox="0 0 842 80" version="1.1">
  <defs>
    <clipPath id="clip1">
      <path d="M 0 0 L 76 0 L 76 79.785156 L 0 79.785156 Z M 0 0 "/>
    </clipPath>
  </defs>
  <g id="surface1">
    <path style=" stroke:none;fill-rule:nonzero;fill:rgb(4.313725%,2.352941%,1.960784%);fill-opacity:1;" d="M 154.660156 3.511719 C 154.480469 3.5 154.308594 3.460938 154.121094 3.460938 L 152.371094 3.460938 C 149.179688 3.460938 146.921875 4.792969 145.273438 7.472656 L 140.539062 15.175781 L 133.871094 26.023438 L 126.042969 38.75 L 121.753906 31.757812 L 110.21875 12.949219 L 106.921875 7.570312 C 105.480469 5.203125 103.113281 3.460938 99.71875 3.460938 L 97.96875 3.460938 C 93.546875 3.460938 90.050781 6.957031 90.050781 11.378906 L 90.050781 68.808594 C 90.050781 70.785156 90.789062 72.542969 91.96875 73.894531 C 93.371094 75.503906 95.421875 76.523438 97.769531 76.523438 C 102.085938 76.523438 105.582031 73.132812 105.582031 68.808594 L 105.582031 32.992188 L 108.773438 37.910156 L 117.09375 50.75 L 119.257812 54.085938 C 120.902344 56.558594 122.957031 58.101562 125.839844 58.101562 C 128.71875 58.101562 130.773438 56.558594 132.421875 54.085938 L 146.304688 32.679688 L 146.304688 68.605469 C 146.304688 72.925781 149.796875 76.523438 154.121094 76.523438 C 158.542969 76.523438 162.035156 73.019531 162.035156 68.605469 L 162.035156 11.378906 C 162.035156 7.140625 158.816406 3.789062 154.660156 3.511719 "/>
    <path style=" stroke:none;fill-rule:nonzero;fill:rgb(4.313725%,2.352941%,1.960784%);fill-opacity:1;" d="M 210.886719 62.523438 C 198.136719 62.523438 189.085938 52.238281 189.085938 39.890625 L 189.085938 39.679688 C 189.085938 38.839844 189.136719 38.015625 189.214844 37.199219 C 189.664062 32.609375 191.363281 28.433594 194.027344 25.097656 C 195.824219 22.847656 198.0625 20.992188 200.652344 19.648438 C 203.582031 18.125 206.957031 17.246094 210.679688 17.246094 C 215.578125 17.246094 219.925781 18.773438 223.429688 21.347656 C 227.429688 24.285156 230.316406 28.585938 231.648438 33.574219 C 232.1875 35.585938 232.484375 37.703125 232.484375 39.890625 L 232.484375 40.09375 C 232.484375 47.539062 229.25 54.144531 223.898438 58.226562 C 220.378906 60.917969 215.949219 62.523438 210.886719 62.523438 M 248.976562 37.476562 C 248.679688 32.277344 247.347656 27.371094 245.152344 22.96875 C 239.125 10.898438 226.574219 2.632812 210.886719 2.632812 C 197.492188 2.632812 186.3125 8.738281 179.539062 18.074219 C 178.773438 19.125 178.066406 20.222656 177.417969 21.351562 C 176.179688 23.511719 175.160156 25.804688 174.378906 28.207031 C 173.175781 31.886719 172.527344 35.8125 172.527344 39.890625 L 172.527344 40.09375 C 172.527344 60.574219 188.46875 77.144531 210.679688 77.144531 C 221.550781 77.144531 230.957031 73.121094 237.742188 66.621094 C 244.824219 59.835938 249.042969 50.351562 249.042969 39.890625 L 249.042969 39.679688 C 249.042969 38.941406 249.015625 38.207031 248.976562 37.476562 "/>
    <path style=" stroke:none;fill-rule:nonzero;fill:rgb(4.313725%,2.352941%,1.960784%);fill-opacity:1;" d="M 303.542969 28.464844 L 303.542969 28.671875 C 303.542969 28.730469 303.535156 28.792969 303.535156 28.851562 C 303.441406 34.824219 299.039062 38.863281 291.40625 38.863281 L 275.367188 38.863281 L 275.367188 18.175781 L 291.097656 18.175781 C 295.648438 18.175781 299.15625 19.402344 301.269531 21.796875 C 302.667969 23.382812 303.453125 25.476562 303.523438 28.070312 C 303.527344 28.207031 303.542969 28.328125 303.542969 28.464844 M 313.410156 11.175781 C 311.730469 9.492188 309.746094 8.101562 307.476562 6.976562 C 303.371094 4.953125 298.339844 3.863281 292.433594 3.863281 L 267.445312 3.863281 C 263.023438 3.863281 259.527344 7.367188 259.527344 11.789062 L 259.527344 68.605469 C 259.527344 73.019531 263.023438 76.523438 267.445312 76.523438 C 271.875 76.523438 275.367188 73.019531 275.367188 68.605469 L 275.367188 52.851562 L 288.015625 52.851562 L 303.441406 72.414062 C 305.292969 74.773438 307.652344 76.523438 311.253906 76.523438 C 315.058594 76.523438 318.757812 73.640625 318.757812 69.21875 C 318.757812 66.75 317.734375 65.097656 316.191406 63.148438 L 305.570312 50.230469 L 305.1875 49.765625 C 311.851562 47.019531 316.710938 42.292969 318.648438 35.179688 C 318.933594 34.140625 319.164062 33.058594 319.316406 31.914062 C 319.492188 30.625 319.582031 29.269531 319.582031 27.847656 L 319.582031 27.644531 C 319.582031 20.84375 317.421875 15.1875 313.410156 11.175781 "/>
    <path style=" stroke:none;fill-rule:nonzero;fill:rgb(4.313725%,2.352941%,1.960784%);fill-opacity:1;" d="M 386.339844 68.429688 C 386.089844 64.746094 383.035156 61.804688 379.296875 61.804688 L 346.695312 61.804688 L 346.695312 46.675781 L 374.152344 46.675781 C 375.238281 46.675781 376.261719 46.414062 377.183594 45.988281 C 379.574219 44.875 381.238281 42.5 381.238281 39.679688 C 381.238281 35.773438 378.0625 32.578125 374.152344 32.578125 L 346.695312 32.578125 L 346.695312 17.96875 L 378.777344 17.96875 C 382.683594 17.96875 385.882812 14.882812 385.882812 10.972656 C 385.882812 7.0625 382.683594 3.867188 378.777344 3.867188 L 338.882812 3.867188 C 334.460938 3.867188 330.964844 7.367188 330.964844 11.789062 L 330.964844 67.984375 C 330.964844 72.414062 334.460938 75.910156 338.882812 75.910156 L 379.296875 75.910156 C 383.199219 75.910156 386.390625 72.8125 386.390625 68.90625 C 386.390625 68.746094 386.355469 68.59375 386.339844 68.429688 "/>
    <path style=" stroke:none;fill-rule:nonzero;fill:rgb(4.313725%,2.352941%,1.960784%);fill-opacity:1;" d="M 39.855469 29.074219 C 34.59375 29.074219 30.226562 32.902344 29.371094 37.921875 C 29.273438 38.511719 29.207031 39.105469 29.207031 39.71875 C 29.207031 45.605469 33.980469 50.375 39.855469 50.375 C 40.414062 50.375 40.953125 50.320312 41.488281 50.234375 C 46.589844 49.449219 50.503906 45.046875 50.503906 39.71875 C 50.503906 33.84375 45.738281 29.074219 39.855469 29.074219 "/>
    <path style=" stroke:none;fill-rule:nonzero;fill:rgb(4.313725%,2.352941%,1.960784%);fill-opacity:1;" d="M 413 7.941406 C 413 5.6875 414.839844 3.847656 416.988281 3.847656 L 461.230469 3.847656 C 463.273438 3.847656 464.910156 5.484375 464.910156 7.53125 C 464.910156 9.578125 463.273438 11.316406 461.230469 11.316406 L 421.074219 11.316406 L 421.074219 36.878906 L 456.632812 36.878906 C 458.675781 36.878906 460.3125 38.515625 460.3125 40.5625 C 460.3125 42.605469 458.675781 44.242188 456.632812 44.242188 L 421.074219 44.242188 L 421.074219 71.851562 C 421.074219 74.101562 419.234375 75.941406 416.988281 75.941406 C 414.839844 75.941406 413 74.101562 413 71.851562 L 413 7.941406 "/>
    <path style=" stroke:none;fill-rule:nonzero;fill:rgb(4.313725%,2.352941%,1.960784%);fill-opacity:1;" d="M 531.96875 39.84375 L 531.96875 39.640625 C 531.96875 23.378906 520.117188 10.089844 503.769531 10.089844 C 487.417969 10.089844 475.773438 23.175781 475.773438 39.433594 L 475.773438 39.640625 C 475.773438 55.898438 487.625 69.191406 503.972656 69.191406 C 520.324219 69.191406 531.96875 56.105469 531.96875 39.84375 M 467.394531 39.84375 L 467.394531 39.640625 C 467.394531 19.902344 482.207031 2.625 503.972656 2.625 C 525.734375 2.625 540.347656 19.699219 540.347656 39.433594 L 540.347656 39.640625 C 540.347656 59.375 525.535156 76.660156 503.769531 76.660156 C 482.003906 76.660156 467.394531 59.582031 467.394531 39.84375 "/>
    <path style=" stroke:none;fill-rule:nonzero;fill:rgb(4.313725%,2.352941%,1.960784%);fill-opacity:1;" d="M 561.253906 11.316406 L 540.511719 11.316406 C 538.46875 11.316406 536.730469 9.679688 536.730469 7.632812 C 536.730469 5.589844 538.46875 3.851562 540.511719 3.851562 L 590.167969 3.851562 C 592.214844 3.851562 593.953125 5.589844 593.953125 7.632812 C 593.953125 9.679688 592.214844 11.316406 590.167969 11.316406 L 569.429688 11.316406 L 569.429688 71.851562 C 569.429688 74.101562 567.589844 75.941406 565.34375 75.941406 C 563.09375 75.941406 561.253906 74.101562 561.253906 71.851562 L 561.253906 11.316406 "/>
    <path style=" stroke:none;fill-rule:nonzero;fill:rgb(4.313725%,2.352941%,1.960784%);fill-opacity:1;" d="M 632.886719 68.171875 C 643.71875 68.171875 650.460938 63.363281 650.460938 55.390625 L 650.460938 55.183594 C 650.460938 47.414062 643.921875 42.914062 631.453125 42.914062 L 608.875 42.914062 L 608.875 68.171875 Z M 630.023438 35.753906 C 639.730469 35.753906 646.476562 31.359375 646.476562 22.972656 L 646.476562 22.769531 C 646.476562 15.710938 640.855469 11.109375 630.636719 11.109375 L 608.875 11.109375 L 608.875 35.753906 Z M 600.902344 7.941406 C 600.902344 5.691406 602.742188 3.851562 604.890625 3.851562 L 631.355469 3.851562 C 639.527344 3.851562 645.964844 6.203125 650.050781 10.191406 C 653.015625 13.257812 654.648438 17.042969 654.648438 21.640625 L 654.648438 21.847656 C 654.648438 31.152344 648.929688 35.957031 643.308594 38.414062 C 651.789062 40.96875 658.636719 45.878906 658.636719 55.695312 L 658.636719 55.898438 C 658.636719 68.171875 648.316406 75.429688 632.683594 75.429688 L 604.890625 75.429688 C 602.742188 75.429688 600.902344 73.589844 600.902344 71.339844 L 600.902344 7.941406 "/>
    <path style=" stroke:none;fill-rule:nonzero;fill:rgb(4.313725%,2.352941%,1.960784%);fill-opacity:1;" d="M 712.367188 49.152344 L 695.917969 12.542969 L 679.464844 49.152344 Z M 661.789062 70.113281 L 690.808594 6.609375 C 691.828125 4.359375 693.363281 3.03125 695.917969 3.03125 L 696.324219 3.03125 C 698.777344 3.03125 700.414062 4.359375 701.332031 6.609375 L 730.351562 70.011719 C 730.65625 70.726562 730.863281 71.445312 730.863281 72.058594 C 730.863281 74.203125 729.125 75.941406 726.980469 75.941406 C 725.039062 75.941406 723.710938 74.613281 722.996094 72.976562 L 715.535156 56.515625 L 676.296875 56.515625 L 668.839844 73.183594 C 668.125 74.921875 666.796875 75.941406 664.957031 75.941406 C 662.914062 75.941406 661.28125 74.308594 661.28125 72.261719 C 661.28125 71.648438 661.378906 70.933594 661.789062 70.113281 "/>
    <path style=" stroke:none;fill-rule:nonzero;fill:rgb(4.313725%,2.352941%,1.960784%);fill-opacity:1;" d="M 737.800781 7.429688 C 737.800781 5.179688 739.640625 3.339844 741.785156 3.339844 C 744.035156 3.339844 745.871094 5.179688 745.871094 7.429688 L 745.871094 67.96875 L 782.964844 67.96875 C 785.007812 67.96875 786.640625 69.707031 786.640625 71.75 C 786.640625 73.796875 785.007812 75.429688 782.964844 75.429688 L 741.785156 75.429688 C 739.640625 75.429688 737.800781 73.589844 737.800781 71.339844 L 737.800781 7.429688 "/>
    <path style=" stroke:none;fill-rule:nonzero;fill:rgb(4.313725%,2.352941%,1.960784%);fill-opacity:1;" d="M 793.25 7.429688 C 793.25 5.179688 795.089844 3.339844 797.234375 3.339844 C 799.484375 3.339844 801.320312 5.179688 801.320312 7.429688 L 801.320312 67.96875 L 838.414062 67.96875 C 840.457031 67.96875 842.089844 69.707031 842.089844 71.75 C 842.089844 73.796875 840.457031 75.429688 838.414062 75.429688 L 797.234375 75.429688 C 795.089844 75.429688 793.25 73.589844 793.25 71.339844 L 793.25 7.429688 "/>
    <g clip-path="url(#clip1)" clip-rule="nonzero">
      <path style=" stroke:none;fill-rule:nonzero;fill:rgb(4.313725%,2.352941%,1.960784%);fill-opacity:1;" d="M 75.316406 52.964844 C 74.699219 50.984375 73.382812 49.230469 71.492188 48.164062 C 68.125 46.253906 63.769531 46.953125 61.171875 49.824219 C 59.839844 51.292969 59.007812 53.191406 57.738281 54.726562 C 56.230469 56.582031 54.371094 58.195312 52.359375 59.488281 C 51.996094 59.722656 51.621094 59.9375 51.242188 60.148438 C 44.242188 64.089844 35.46875 64.117188 28.421875 60.160156 C 20.957031 55.769531 16.296875 47.695312 16.65625 38.960938 C 16.816406 35.136719 17.941406 31.453125 19.828125 28.226562 C 22.113281 24.304688 25.519531 21.046875 29.71875 19.019531 C 33.613281 17.132812 37.800781 16.464844 42.09375 16.777344 C 45.929688 17.0625 49.359375 19.25 53.171875 17.570312 C 56.410156 16.152344 58.398438 12.742188 58.132812 9.242188 C 58.117188 9.039062 58.125 8.84375 58.09375 8.644531 C 57.46875 4.632812 54.382812 2.421875 50.707031 1.417969 C 39.542969 -1.636719 27.742188 0.367188 18.332031 6.316406 C 14.308594 8.863281 10.742188 12.140625 7.832031 16.035156 C 6.597656 17.691406 5.46875 19.441406 4.496094 21.316406 C 3.488281 23.230469 2.679688 25.199219 2.011719 27.195312 C -2.746094 41.492188 1.113281 57.441406 11.707031 68.207031 C 12.792969 69.316406 13.929688 70.386719 15.152344 71.375 C 19.433594 74.820312 24.328125 77.15625 29.457031 78.492188 C 40.582031 81.386719 52.808594 79.386719 62.457031 72.8125 C 63.847656 71.867188 65.203125 70.855469 66.476562 69.714844 C 69.839844 66.703125 73.421875 62.824219 75.144531 58.570312 C 75.875 56.738281 75.878906 54.757812 75.316406 52.964844 "/>
    </g>
  </g>
</svg>