<?xml version="1.0" encoding="UTF-8" ?>
<!DOCTYPE svg PUBLIC "-//W3C//DTD SVG 1.1//EN" "http://www.w3.org/Graphics/SVG/1.1/DTD/svg11.dtd">
<svg width="800pt" height="300pt" viewBox="0 0 800 300" version="1.1" xmlns="http://www.w3.org/2000/svg">
<g id="#32823dff">
<path fill="#32823d" opacity="1.00" d=" M 131.79 25.51 C 153.10 22.91 175.16 25.78 195.02 34.09 C 195.47 34.36 196.37 34.90 196.82 35.16 C 200.86 35.97 204.38 38.48 208.05 40.30 C 208.21 40.72 208.53 41.55 208.69 41.97 C 199.01 41.56 189.59 44.16 180.07 45.47 C 178.40 45.16 176.74 44.65 175.54 43.38 C 170.54 38.76 163.62 37.03 158.57 32.47 C 154.06 28.54 147.95 27.01 142.06 27.10 C 138.82 27.08 135.28 27.84 132.42 25.88 L 131.79 25.51 Z" />
</g>
<g id="#488f3fff">
<path fill="#488f3f" opacity="1.00" d=" M 122.00 27.32 C 125.45 26.76 128.90 25.65 132.42 25.88 C 135.28 27.84 138.82 27.08 142.06 27.10 C 147.95 27.01 154.06 28.54 158.57 32.47 C 163.62 37.03 170.54 38.76 175.54 43.38 C 176.74 44.65 178.40 45.16 180.07 45.47 C 171.14 46.90 162.39 49.16 153.68 51.50 C 142.73 43.13 129.32 38.68 115.90 36.26 C 109.99 35.06 103.94 35.27 97.95 35.15 C 105.46 31.26 113.80 29.23 122.00 27.32 Z" />
</g>
<g id="#45544472">
<path fill="#455444" opacity="0.45" d=" M 195.02 34.09 L 195.89 33.73 L 196.81 34.28 L 196.82 35.16 C 196.37 34.90 195.47 34.36 195.02 34.09 Z" />
</g>
<g id="#7fb33dff">
<path fill="#7fb33d" opacity="1.00" d=" M 88.38 39.56 C 91.52 38.00 94.55 36.07 97.95 35.15 C 103.94 35.27 109.99 35.06 115.90 36.26 C 129.32 38.68 142.73 43.13 153.68 51.50 L 154.25 51.90 C 148.33 52.91 142.75 55.22 137.13 57.22 C 128.43 60.59 119.71 64.14 111.75 69.05 C 99.33 75.63 87.78 83.89 77.63 93.62 C 68.61 102.62 60.46 112.96 56.36 125.17 C 54.46 128.96 54.15 133.23 53.17 137.30 C 52.45 132.20 53.15 127.06 52.96 121.93 C 52.88 105.09 53.00 88.25 52.96 71.40 C 52.24 71.73 51.53 72.04 50.80 72.33 C 50.47 72.33 49.81 72.32 49.48 72.32 C 59.69 58.62 73.43 47.71 88.38 39.56 Z" />
</g>
<g id="#919392ff">
<path fill="#919392" opacity="1.00" d=" M 208.05 40.30 C 209.06 40.53 209.55 41.29 209.75 42.25 C 205.45 42.21 201.16 42.79 196.85 42.88 C 197.00 43.31 197.30 44.18 197.45 44.61 C 201.05 46.46 204.84 48.05 208.12 50.47 C 203.79 50.73 199.52 52.52 195.15 51.61 C 188.17 50.26 181.03 50.95 173.96 50.78 C 167.36 50.71 160.86 52.36 154.25 51.90 L 153.68 51.50 C 162.39 49.16 171.14 46.90 180.07 45.47 C 189.59 44.16 199.01 41.56 208.69 41.97 C 208.53 41.55 208.21 40.72 208.05 40.30 Z" />
</g>
<g id="#a3a5a3ff">
<path fill="#a3a5a3" opacity="1.00" d=" M 208.12 50.47 C 219.04 57.03 228.87 65.57 236.89 75.41 C 240.62 76.83 244.71 76.23 248.62 76.65 C 250.67 77.86 251.64 80.21 252.78 82.20 C 251.47 80.55 250.37 78.71 248.80 77.30 C 244.88 76.63 240.85 76.91 236.95 76.01 C 227.84 74.90 218.61 75.49 209.46 75.69 L 208.69 75.65 C 209.27 75.29 209.87 74.94 210.47 74.60 C 208.87 72.36 210.84 69.27 208.93 67.15 C 205.36 63.11 200.75 59.66 195.41 58.43 C 186.42 54.91 176.56 54.54 167.01 54.93 C 152.79 56.17 138.59 58.88 125.31 64.26 C 120.52 65.14 116.62 68.52 111.75 69.05 C 119.71 64.14 128.43 60.59 137.13 57.22 C 142.75 55.22 148.33 52.91 154.25 51.90 C 160.86 52.36 167.36 50.71 173.96 50.78 C 181.03 50.95 188.17 50.26 195.15 51.61 C 199.52 52.52 203.79 50.73 208.12 50.47 Z" />
</g>
<g id="#bebfbcff">
<path fill="#bebfbc" opacity="1.00" d=" M 125.31 64.26 C 138.59 58.88 152.79 56.17 167.01 54.93 C 176.56 54.54 186.42 54.91 195.41 58.43 C 200.75 59.66 205.36 63.11 208.93 67.15 C 210.84 69.27 208.87 72.36 210.47 74.60 C 209.87 74.94 209.27 75.29 208.69 75.65 C 203.48 75.88 198.31 76.56 193.13 77.05 C 192.32 76.92 190.70 76.67 189.89 76.55 C 191.73 74.43 194.94 72.10 193.06 68.96 C 189.10 64.07 182.41 62.82 176.60 61.41 C 167.99 59.10 159.04 60.53 150.36 61.59 C 137.82 64.24 125.01 67.18 113.96 73.98 C 104.37 78.51 95.59 84.54 87.58 91.46 C 83.46 94.71 79.71 98.42 76.49 102.57 C 72.51 107.09 68.61 111.90 66.44 117.58 C 65.20 120.74 66.45 124.05 67.15 127.17 C 63.53 126.62 59.94 125.91 56.36 125.17 C 60.46 112.96 68.61 102.62 77.63 93.62 C 87.78 83.89 99.33 75.63 111.75 69.05 C 116.62 68.52 120.52 65.14 125.31 64.26 Z" />
<path fill="#bebfbc" opacity="1.00" d=" M 692.57 88.48 C 720.58 88.30 748.59 88.44 776.60 88.41 C 776.70 95.19 776.61 101.98 776.66 108.77 C 771.83 109.97 766.85 108.58 761.96 109.07 C 756.77 109.49 751.56 109.04 746.39 109.50 C 746.37 109.28 746.33 108.84 746.31 108.62 C 756.30 108.78 766.29 108.72 776.29 108.63 C 776.28 102.04 776.31 95.44 776.26 88.85 C 748.45 88.86 720.64 88.78 692.83 88.89 C 692.80 95.42 692.85 101.96 692.79 108.50 C 702.84 109.02 712.92 108.36 722.97 108.84 C 713.06 109.04 703.14 109.12 693.24 108.81 L 692.52 108.76 C 692.60 102.00 692.52 95.24 692.57 88.48 Z" />
</g>
<g id="#dcdcd6ff">
<path fill="#dcdcd6" opacity="1.00" d=" M 150.36 61.59 C 159.04 60.53 167.99 59.10 176.60 61.41 C 182.41 62.82 189.10 64.07 193.06 68.96 C 194.94 72.10 191.73 74.43 189.89 76.55 C 190.70 76.67 192.32 76.92 193.13 77.05 C 190.18 77.40 187.25 77.87 184.32 78.36 C 161.49 82.35 139.01 89.53 118.93 101.25 C 118.83 100.74 118.63 99.74 118.53 99.23 C 122.40 93.78 128.76 91.58 134.50 88.74 C 144.10 85.04 153.69 81.32 163.68 78.77 C 166.90 78.19 169.22 75.81 171.09 73.30 C 168.12 69.28 163.04 68.67 158.44 68.23 C 154.63 67.48 150.86 68.84 147.04 68.67 C 141.82 68.51 136.87 70.37 131.86 71.52 C 111.14 78.05 91.96 90.32 78.66 107.65 C 76.15 110.75 74.35 114.38 72.92 118.09 C 71.88 120.73 73.59 123.81 75.89 125.17 C 79.32 126.87 83.15 127.47 86.84 128.38 C 85.82 128.97 84.80 129.57 83.78 130.16 C 78.23 129.21 72.71 128.07 67.15 127.17 C 66.45 124.05 65.20 120.74 66.44 117.58 C 68.61 111.90 72.51 107.09 76.49 102.57 C 79.71 98.42 83.46 94.71 87.58 91.46 C 95.59 84.54 104.37 78.51 113.96 73.98 C 125.01 67.18 137.82 64.24 150.36 61.59 Z" />
</g>
<g id="#eaeae8ff">
<path fill="#eaeae8" opacity="1.00" d=" M 147.04 68.67 C 150.86 68.84 154.63 67.48 158.44 68.23 C 163.04 68.67 168.12 69.28 171.09 73.30 C 169.22 75.81 166.90 78.19 163.68 78.77 C 153.69 81.32 144.10 85.04 134.50 88.74 C 128.76 91.58 122.40 93.78 118.53 99.23 C 118.63 99.74 118.83 100.74 118.93 101.25 C 118.36 101.57 117.78 101.89 117.21 102.22 C 119.47 102.72 121.73 103.18 123.99 103.65 C 123.37 104.50 122.19 105.19 122.40 106.41 C 123.77 108.59 126.25 109.67 128.56 110.56 C 138.51 114.24 149.09 115.71 159.19 118.89 C 167.15 120.64 174.83 123.37 182.65 125.64 C 196.71 130.20 210.45 137.34 220.02 148.88 C 223.36 153.60 225.07 159.37 225.57 165.08 C 225.38 174.86 221.13 184.40 214.21 191.27 C 208.28 198.18 200.46 203.06 192.61 207.50 C 187.24 210.56 181.18 212.27 176.21 216.02 C 172.12 216.91 168.01 218.37 164.83 221.19 C 158.80 223.45 152.53 225.02 146.36 226.85 C 146.05 226.44 145.44 225.63 145.13 225.22 C 142.82 226.13 140.38 226.57 137.91 226.72 C 124.82 228.49 110.71 229.37 98.48 223.45 C 95.10 221.83 91.38 219.15 91.09 215.08 C 92.58 210.83 97.11 209.12 101.07 208.01 C 113.62 205.03 126.42 202.98 138.64 198.75 C 146.56 197.21 153.89 193.79 161.61 191.58 C 165.80 189.67 169.99 187.78 174.34 186.26 C 180.81 183.08 187.23 179.59 192.61 174.73 C 192.43 174.17 192.07 173.04 191.89 172.48 C 194.81 170.61 197.47 168.36 199.99 165.99 C 201.76 168.98 201.07 172.54 199.40 175.40 C 195.01 181.21 188.68 185.21 182.01 187.95 C 178.35 190.28 174.45 192.09 170.26 193.27 C 164.52 196.21 158.29 197.94 152.34 200.38 C 147.86 202.07 143.05 202.62 138.65 204.54 C 128.42 208.58 117.15 209.55 107.26 214.43 C 110.09 219.18 115.56 220.68 120.64 221.59 C 124.98 223.18 129.57 222.13 134.02 221.78 C 145.53 219.77 156.77 216.47 167.87 212.89 C 174.69 209.66 182.03 207.59 188.47 203.59 C 195.83 199.93 202.56 195.14 208.73 189.73 C 214.25 183.27 220.68 176.12 220.18 166.99 C 220.81 159.94 216.93 153.64 212.70 148.37 C 209.51 144.76 205.30 142.34 201.34 139.69 C 196.31 135.85 190.11 134.19 184.46 131.52 C 178.87 129.77 173.39 127.63 167.67 126.34 C 157.43 124.26 147.63 120.49 137.37 118.52 C 130.59 116.88 123.32 115.77 117.60 111.49 C 115.21 109.00 112.37 105.90 113.16 102.14 C 113.92 98.81 115.69 95.58 118.23 93.28 C 125.82 88.88 133.76 85.02 141.98 81.94 C 147.00 79.70 152.24 77.98 156.97 75.14 C 150.06 74.49 143.11 74.86 136.18 74.61 C 126.65 75.72 118.00 80.30 109.61 84.70 C 105.39 86.96 101.74 90.09 97.78 92.76 C 94.11 95.07 91.95 98.98 88.70 101.77 C 85.06 104.90 82.71 109.12 79.82 112.87 C 77.96 115.09 77.52 118.17 77.97 120.96 C 81.56 124.50 86.90 125.20 91.59 126.43 C 96.41 127.67 101.15 129.24 106.10 129.89 C 118.26 131.65 129.96 135.51 141.98 137.88 C 157.47 141.80 173.16 145.49 187.71 152.28 C 191.86 154.10 195.08 157.37 198.61 160.13 C 198.41 160.67 198.02 161.75 197.82 162.29 C 189.32 156.03 179.23 152.46 169.19 149.52 C 141.08 141.60 112.58 135.05 83.78 130.16 C 84.80 129.57 85.82 128.97 86.84 128.38 C 83.15 127.47 79.32 126.87 75.89 125.17 C 73.59 123.81 71.88 120.73 72.92 118.09 C 74.35 114.38 76.15 110.75 78.66 107.65 C 91.96 90.32 111.14 78.05 131.86 71.52 C 136.87 70.37 141.82 68.51 147.04 68.67 Z" />
</g>
<g id="#80b14aff">
<path fill="#80b14a" opacity="1.00" d=" M 50.80 72.33 C 51.53 72.04 52.24 71.73 52.96 71.40 C 53.00 88.25 52.88 105.09 52.96 121.93 C 53.15 127.06 52.45 132.20 53.17 137.30 C 52.71 140.68 52.46 144.10 52.92 147.49 C 51.85 156.19 52.75 165.09 54.19 173.70 C 54.06 175.05 53.91 176.40 53.75 177.74 C 53.22 177.22 52.70 176.71 52.18 176.19 C 51.12 183.92 50.78 191.75 49.03 199.38 C 46.94 198.76 44.90 198.00 42.94 197.04 C 44.93 189.46 43.50 181.64 42.80 174.02 C 44.23 165.09 44.10 156.00 43.52 146.99 C 43.72 136.91 44.14 126.82 43.71 116.73 C 43.79 111.42 44.26 106.09 43.59 100.79 C 42.83 95.27 44.03 89.75 43.89 84.22 C 42.97 84.76 42.05 85.30 41.14 85.84 C 41.36 84.88 41.60 83.93 41.85 82.98 C 43.84 79.13 46.63 75.75 49.26 72.32 L 49.48 72.32 C 49.81 72.32 50.47 72.33 50.80 72.33 Z" />
</g>
<g id="#fbfbf9ff">
<path fill="#fbfbf9" opacity="1.00" d=" M 136.18 74.61 C 143.11 74.86 150.06 74.49 156.97 75.14 C 152.24 77.98 147.00 79.70 141.98 81.94 C 133.76 85.02 125.82 88.88 118.23 93.28 C 115.69 95.58 113.92 98.81 113.16 102.14 C 112.37 105.90 115.21 109.00 117.60 111.49 C 123.32 115.77 130.59 116.88 137.37 118.52 C 147.63 120.49 157.43 124.26 167.67 126.34 C 173.39 127.63 178.87 129.77 184.46 131.52 C 190.11 134.19 196.31 135.85 201.34 139.69 C 205.30 142.34 209.51 144.76 212.70 148.37 C 216.93 153.64 220.81 159.94 220.18 166.99 C 220.68 176.12 214.25 183.27 208.73 189.73 C 202.56 195.14 195.83 199.93 188.47 203.59 C 182.03 207.59 174.69 209.66 167.87 212.89 C 156.77 216.47 145.53 219.77 134.02 221.78 C 129.57 222.13 124.98 223.18 120.64 221.59 C 115.56 220.68 110.09 219.18 107.26 214.43 C 117.15 209.55 128.42 208.58 138.65 204.54 C 143.05 202.62 147.86 202.07 152.34 200.38 C 158.29 197.94 164.52 196.21 170.26 193.27 C 174.45 192.09 178.35 190.28 182.01 187.95 C 188.68 185.21 195.01 181.21 199.40 175.40 C 201.07 172.54 201.76 168.98 199.99 165.99 C 200.19 165.71 200.58 165.15 200.78 164.87 C 199.80 164.00 198.83 163.12 197.82 162.29 C 198.02 161.75 198.41 160.67 198.61 160.13 C 195.08 157.37 191.86 154.10 187.71 152.28 C 173.16 145.49 157.47 141.80 141.98 137.88 C 129.96 135.51 118.26 131.65 106.10 129.89 C 101.15 129.24 96.41 127.67 91.59 126.43 C 86.90 125.20 81.56 124.50 77.97 120.96 C 77.52 118.17 77.96 115.09 79.82 112.87 C 82.71 109.12 85.06 104.90 88.70 101.77 C 91.95 98.98 94.11 95.07 97.78 92.76 C 101.74 90.09 105.39 86.96 109.61 84.70 C 118.00 80.30 126.65 75.72 136.18 74.61 Z" />
</g>
<g id="#469b42ff">
<path fill="#469b42" opacity="1.00" d=" M 193.13 77.05 C 198.31 76.56 203.48 75.88 208.69 75.65 L 209.46 75.69 C 211.59 76.93 214.06 77.14 216.46 77.35 C 217.30 80.23 218.67 82.94 220.64 85.22 C 220.38 85.50 219.88 86.06 219.62 86.34 C 221.41 89.03 221.81 92.37 223.34 95.22 C 223.11 95.78 222.88 96.34 222.65 96.90 C 224.05 100.38 225.23 104.00 225.24 107.80 C 226.17 109.14 227.10 110.48 228.03 111.82 C 227.56 112.43 227.10 113.03 226.64 113.64 C 228.20 116.40 227.55 119.52 226.70 122.38 C 226.35 128.41 225.87 134.56 223.56 140.21 C 223.36 140.00 222.96 139.57 222.77 139.36 C 221.99 131.63 217.97 124.76 215.14 117.66 C 212.10 112.39 209.84 106.64 206.03 101.84 C 202.29 96.38 198.00 91.33 193.70 86.29 C 190.88 83.30 187.31 81.16 184.32 78.36 C 187.25 77.87 190.18 77.40 193.13 77.05 Z" />
</g>
<g id="#3d9341ff">
<path fill="#3d9341" opacity="1.00" d=" M 209.46 75.69 C 218.61 75.49 227.84 74.90 236.95 76.01 C 235.89 78.21 239.06 78.94 239.12 80.96 C 239.58 84.39 240.85 87.57 242.36 90.66 C 244.97 96.44 244.35 102.93 246.13 108.91 C 247.05 111.89 245.98 114.97 246.23 117.99 C 246.35 119.61 246.40 121.25 245.88 122.82 C 246.37 124.76 246.00 126.72 245.51 128.63 C 244.86 131.37 247.30 133.87 246.56 136.59 C 245.55 140.18 244.93 143.89 243.52 147.35 C 241.20 153.45 241.18 160.41 237.39 165.92 C 237.12 164.25 236.87 162.58 236.43 160.96 C 236.17 163.54 236.18 166.23 234.84 168.54 C 235.57 158.64 232.08 148.53 224.87 141.62 C 224.54 141.27 223.89 140.57 223.56 140.21 C 225.87 134.56 226.35 128.41 226.70 122.38 C 227.55 119.52 228.20 116.40 226.64 113.64 C 227.10 113.03 227.56 112.43 228.03 111.82 C 227.10 110.48 226.17 109.14 225.24 107.80 C 225.23 104.00 224.05 100.38 222.65 96.90 C 222.88 96.34 223.11 95.78 223.34 95.22 C 221.81 92.37 221.41 89.03 219.62 86.34 C 219.88 86.06 220.38 85.50 220.64 85.22 C 218.67 82.94 217.30 80.23 216.46 77.35 C 214.06 77.14 211.59 76.93 209.46 75.69 Z" />
</g>
<g id="#328a40ff">
<path fill="#328a40" opacity="1.00" d=" M 239.12 80.96 C 239.06 78.94 235.89 78.21 236.95 76.01 C 240.85 76.91 244.88 76.63 248.80 77.30 C 250.37 78.71 251.47 80.55 252.78 82.20 C 254.36 84.36 255.98 86.56 256.94 89.08 C 256.52 95.25 261.27 99.96 262.45 105.76 C 263.25 111.25 263.97 116.78 263.52 122.34 C 264.18 127.24 261.74 131.86 262.70 136.75 C 262.21 144.11 260.36 151.49 257.51 158.30 C 257.11 160.91 257.61 163.76 256.10 166.11 C 253.30 170.66 252.84 176.28 249.55 180.56 C 248.07 182.27 248.10 184.84 246.38 186.37 C 242.81 189.73 241.83 194.95 238.11 198.18 C 233.67 202.15 232.23 208.71 226.93 211.80 C 226.16 211.14 225.38 210.48 224.62 209.83 C 225.38 202.05 227.41 194.29 226.60 186.44 C 227.80 184.84 228.90 183.17 229.96 181.47 C 232.57 177.59 233.82 173.05 234.84 168.54 C 236.18 166.23 236.17 163.54 236.43 160.96 C 236.87 162.58 237.12 164.25 237.39 165.92 C 241.18 160.41 241.20 153.45 243.52 147.35 C 244.93 143.89 245.55 140.18 246.56 136.59 C 247.30 133.87 244.86 131.37 245.51 128.63 C 246.00 126.72 246.37 124.76 245.88 122.82 C 246.40 121.25 246.35 119.61 246.23 117.99 C 245.98 114.97 247.05 111.89 246.13 108.91 C 244.35 102.93 244.97 96.44 242.36 90.66 C 240.85 87.57 239.58 84.39 239.12 80.96 Z" />
</g>
<g id="#6cad41ff">
<path fill="#6cad41" opacity="1.00" d=" M 118.93 101.25 C 139.01 89.53 161.49 82.35 184.32 78.36 C 187.31 81.16 190.88 83.30 193.70 86.29 C 198.00 91.33 202.29 96.38 206.03 101.84 C 204.90 105.02 204.88 108.49 206.36 111.55 C 206.16 111.85 205.76 112.46 205.56 112.76 C 205.77 113.16 206.20 113.96 206.42 114.36 C 206.13 115.11 205.76 115.83 205.48 116.59 C 206.17 117.08 206.87 117.58 207.57 118.08 C 207.16 118.77 206.75 119.46 206.35 120.15 C 206.54 121.83 206.03 123.35 204.70 124.44 C 203.23 124.42 201.76 124.56 200.34 124.96 C 181.28 116.84 160.95 112.47 140.94 107.40 C 136.89 106.43 132.86 105.37 128.76 104.61 C 127.17 104.30 125.58 103.99 123.99 103.65 C 121.73 103.18 119.47 102.72 117.21 102.22 C 117.78 101.89 118.36 101.57 118.93 101.25 Z" />
</g>
<g id="#84b15dff">
<path fill="#84b15d" opacity="1.00" d=" M 29.91 106.93 C 33.00 98.56 36.81 90.34 41.85 82.98 C 41.60 83.93 41.36 84.88 41.14 85.84 C 42.05 85.30 42.97 84.76 43.89 84.22 C 44.03 89.75 42.83 95.27 43.59 100.79 C 44.26 106.09 43.79 111.42 43.71 116.73 C 44.14 126.82 43.72 136.91 43.52 146.99 C 44.10 156.00 44.23 165.09 42.80 174.02 C 43.50 181.64 44.93 189.46 42.94 197.04 C 41.61 196.39 40.30 195.73 38.99 195.06 C 34.29 192.56 31.10 187.77 29.03 183.00 C 29.09 182.66 29.22 182.00 29.28 181.67 C 29.70 181.58 30.54 181.39 30.96 181.30 C 31.49 163.52 30.60 145.70 31.66 127.93 C 31.91 123.73 30.60 119.55 31.53 115.37 C 32.31 112.42 30.43 109.75 29.91 106.93 Z" />
</g>
<g id="#888b8bff">
<path fill="#888b8b" opacity="1.00" d=" M 542.20 89.56 C 552.53 86.55 563.39 87.82 573.99 87.54 C 580.91 87.94 588.39 88.76 593.99 93.27 C 582.90 86.34 569.34 88.33 556.93 88.05 C 546.78 88.23 534.85 90.05 529.07 99.49 C 531.28 94.08 536.92 91.22 542.20 89.56 Z" />
<path fill="#888b8b" opacity="1.00" d=" M 351.88 88.54 C 360.16 88.23 368.46 88.41 376.75 88.45 C 373.42 97.05 369.46 105.41 365.94 113.95 C 364.99 115.99 364.45 118.29 362.96 120.04 C 367.13 109.60 371.88 99.41 376.09 88.99 C 368.14 89.03 360.19 88.93 352.24 89.04 C 351.01 92.54 349.73 96.01 348.29 99.43 C 348.90 95.64 350.93 92.26 351.88 88.54 Z" />
<path fill="#888b8b" opacity="1.00" d=" M 465.60 88.43 C 471.33 88.51 477.13 88.06 482.83 88.64 C 490.30 105.94 497.79 123.30 505.21 140.65 C 508.32 148.23 512.06 155.59 514.67 163.36 C 503.78 138.69 493.20 113.88 482.66 89.06 C 477.07 88.91 471.48 89.04 465.89 88.98 C 463.24 94.74 460.97 100.66 458.28 106.40 C 460.04 100.19 463.27 94.46 465.60 88.43 Z" />
<path fill="#888b8b" opacity="1.00" d=" M 646.48 88.37 C 652.14 88.41 657.79 88.39 663.46 88.38 C 667.57 98.06 672.21 107.59 675.70 117.50 C 671.31 108.09 667.56 98.39 663.22 88.95 C 657.71 89.02 652.20 89.02 646.69 88.96 C 641.43 100.73 636.57 112.69 631.29 124.46 C 635.67 112.21 641.41 100.39 646.48 88.37 Z" />
<path fill="#888b8b" opacity="1.00" d=" M 594.90 93.99 C 599.69 98.18 602.36 104.66 602.81 110.94 C 595.89 111.30 589.01 112.22 582.10 112.51 C 581.84 112.38 581.34 112.13 581.08 112.01 C 588.22 111.97 595.28 110.70 602.41 110.51 C 601.79 104.33 598.92 98.64 594.90 93.99 Z" />
<path fill="#888b8b" opacity="1.00" d=" M 527.09 110.95 C 527.12 107.13 526.82 102.98 529.00 99.62 C 527.57 103.94 527.27 108.50 527.44 113.02 C 527.55 118.94 526.66 125.57 530.36 130.68 C 533.80 135.71 540.18 137.20 545.87 137.84 C 556.24 138.57 566.71 137.33 577.05 138.39 C 581.82 139.46 581.72 145.36 581.07 149.18 C 580.26 153.73 574.61 154.09 570.93 154.01 C 564.78 153.65 558.49 154.75 552.47 153.22 C 558.27 153.71 564.10 153.41 569.92 153.52 C 572.95 153.54 576.18 153.66 578.90 152.10 C 581.47 149.91 580.99 146.14 580.81 143.14 C 580.53 140.32 577.78 138.31 575.03 138.54 C 566.05 138.45 557.05 138.40 548.08 138.61 C 544.05 137.92 539.82 137.78 536.12 135.88 C 531.68 133.94 528.36 129.72 527.43 124.98 C 526.81 120.33 527.21 115.63 527.09 110.95 Z" />
<path fill="#888b8b" opacity="1.00" d=" M 553.50 106.73 C 560.32 106.04 567.21 106.56 574.06 106.44 C 577.03 106.27 580.90 107.45 581.07 111.00 C 580.02 107.46 576.21 106.61 572.95 106.80 C 566.66 106.99 560.35 106.50 554.09 107.05 C 548.40 107.70 548.40 115.01 549.95 119.18 C 550.66 119.72 551.29 120.35 551.85 121.06 C 564.29 122.79 577.06 120.32 589.47 122.75 C 594.42 123.77 599.27 126.69 601.41 131.45 C 604.37 137.54 603.22 144.45 603.45 150.97 C 603.46 157.42 600.67 164.10 595.03 167.57 C 586.42 172.94 575.81 172.71 566.03 172.63 C 557.97 172.46 549.40 173.46 541.85 170.05 C 547.42 171.60 553.17 172.38 558.96 172.14 C 570.78 171.81 583.57 173.69 594.31 167.55 C 600.20 164.34 602.89 157.48 602.92 151.04 C 602.77 144.69 603.76 138.02 601.17 132.01 C 599.14 127.02 594.03 123.92 588.86 123.10 C 579.35 121.45 569.66 122.39 560.07 122.17 C 556.37 122.06 551.23 122.93 549.36 118.77 C 548.08 114.66 548.08 107.66 553.50 106.73 Z" />
<path fill="#888b8b" opacity="1.00" d=" M 473.78 119.44 C 476.05 120.19 476.22 124.03 476.75 126.23 C 475.94 124.19 475.65 121.75 473.95 120.22 C 471.38 127.25 468.75 134.27 466.10 141.27 C 467.97 133.81 471.42 126.78 473.78 119.44 Z" />
<path fill="#888b8b" opacity="1.00" d=" M 430.04 171.29 C 433.32 163.82 436.06 156.02 439.95 148.88 C 437.83 154.44 435.24 159.81 433.02 165.33 C 432.16 167.38 431.45 169.53 430.04 171.29 Z" />
<path fill="#888b8b" opacity="1.00" d=" M 457.74 162.77 C 467.15 162.82 476.57 162.83 485.99 162.76 C 487.30 162.77 488.67 162.77 489.93 163.24 C 479.28 162.72 468.62 163.11 457.97 162.96 C 456.77 166.18 455.64 169.42 454.40 172.62 C 447.61 172.65 440.83 172.61 434.05 172.64 C 432.53 172.48 430.78 172.98 429.46 172.05 C 437.66 172.15 445.86 172.14 454.07 172.11 C 455.24 168.98 456.42 165.85 457.74 162.77 Z" />
<path fill="#888b8b" opacity="1.00" d=" M 638.63 162.80 C 649.38 162.95 660.16 162.50 670.90 163.01 C 661.91 162.97 652.92 163.00 643.93 162.96 C 642.08 162.96 640.23 163.08 638.45 163.57 C 637.51 166.62 636.26 169.56 635.20 172.57 C 626.87 172.68 618.53 172.67 610.21 172.58 C 611.03 170.53 611.75 168.41 613.00 166.57 C 612.34 168.43 611.69 170.28 611.10 172.16 C 619.02 172.07 626.94 172.20 634.86 172.08 C 636.04 168.95 637.21 165.83 638.63 162.80 Z" />
<path fill="#888b8b" opacity="1.00" d=" M 38.99 195.06 C 40.30 195.73 41.61 196.39 42.94 197.04 C 44.90 198.00 46.94 198.76 49.03 199.38 C 53.51 200.82 58.15 201.68 62.83 202.16 L 63.02 202.48 C 59.10 204.57 55.64 207.92 51.02 208.31 C 49.72 208.53 48.42 208.75 47.11 208.92 C 43.39 205.04 42.72 198.97 38.99 195.06 Z" />
</g>
<g id="#4a494995">
<path fill="#4a4949" opacity="0.58" d=" M 287.81 88.09 C 295.58 87.90 303.38 88.01 311.16 88.02 C 312.71 87.71 312.84 89.63 313.39 90.58 C 314.25 93.20 315.85 95.69 315.77 98.54 C 314.27 95.45 313.11 92.23 311.96 89.00 C 303.69 89.11 295.41 88.74 287.15 89.25 L 287.81 88.09 Z" />
</g>
<g id="#40404090">
<path fill="#404040" opacity="0.56" d=" M 390.90 87.82 C 399.21 87.72 407.54 87.66 415.86 87.86 C 416.02 115.97 415.94 144.09 415.94 172.21 L 415.00 172.27 C 415.01 144.38 415.00 116.50 415.00 88.61 C 406.97 88.69 398.94 88.41 390.91 88.79 L 390.90 87.82 Z" />
</g>
<g id="#050607ff">
<path fill="#050607" opacity="1.00" d=" M 529.07 99.49 C 534.85 90.05 546.78 88.23 556.93 88.05 C 569.34 88.33 582.90 86.34 593.99 93.27 C 594.22 93.45 594.67 93.81 594.90 93.99 C 598.92 98.64 601.79 104.33 602.41 110.51 C 595.28 110.70 588.22 111.97 581.08 112.01 L 581.07 111.00 C 580.90 107.45 577.03 106.27 574.06 106.44 C 567.21 106.56 560.32 106.04 553.50 106.73 C 548.08 107.66 548.08 114.66 549.36 118.77 C 551.23 122.93 556.37 122.06 560.07 122.17 C 569.66 122.39 579.35 121.45 588.86 123.10 C 594.03 123.92 599.14 127.02 601.17 132.01 C 603.76 138.02 602.77 144.69 602.92 151.04 C 602.89 157.48 600.20 164.34 594.31 167.55 C 583.57 173.69 570.78 171.81 558.96 172.14 C 553.17 172.38 547.42 171.60 541.85 170.05 L 541.20 169.89 C 540.77 168.50 539.23 168.14 537.97 167.99 L 537.59 167.91 C 533.81 164.79 531.13 160.70 528.94 156.37 C 527.75 153.89 527.34 151.12 527.21 148.39 C 530.58 148.47 533.95 148.27 537.32 148.14 C 541.32 148.03 545.32 148.01 549.32 148.02 L 548.98 149.22 C 548.21 151.20 550.06 153.03 551.99 153.10 L 552.47 153.22 C 558.49 154.75 564.78 153.65 570.93 154.01 C 574.61 154.09 580.26 153.73 581.07 149.18 C 581.72 145.36 581.82 139.46 577.05 138.39 C 566.71 137.33 556.24 138.57 545.87 137.84 C 540.18 137.20 533.80 135.71 530.36 130.68 C 526.66 125.57 527.55 118.94 527.44 113.02 C 527.27 108.50 527.57 103.94 529.00 99.62 L 529.07 99.49 Z" />
<path fill="#050607" opacity="1.00" d=" M 287.15 89.25 C 295.41 88.74 303.69 89.11 311.96 89.00 C 313.11 92.23 314.27 95.45 315.77 98.54 L 315.83 98.72 C 318.30 106.85 321.41 114.80 324.75 122.61 L 324.77 122.66 C 326.74 129.39 329.35 135.93 332.06 142.39 C 332.27 141.92 332.69 140.98 332.90 140.51 L 333.24 139.77 C 334.52 137.19 335.55 134.49 336.22 131.68 L 336.25 131.61 C 337.45 129.10 338.43 126.50 339.11 123.80 L 339.25 123.41 C 340.49 120.98 341.47 118.44 342.18 115.80 L 342.29 115.49 C 343.46 113.00 344.47 110.43 345.15 107.76 L 345.22 107.56 C 346.52 104.98 347.50 102.27 348.27 99.49 L 348.29 99.43 C 349.73 96.01 351.01 92.54 352.24 89.04 C 360.19 88.93 368.14 89.03 376.09 88.99 C 371.88 99.41 367.13 109.60 362.96 120.04 L 362.86 120.25 C 361.09 123.09 359.69 126.15 358.82 129.39 L 358.81 129.40 C 356.87 133.23 355.04 137.12 353.84 141.25 L 353.81 141.31 C 352.58 143.63 351.46 146.00 350.82 148.55 L 350.58 149.29 C 350.53 149.40 350.44 149.64 350.39 149.76 L 349.77 150.77 C 348.41 151.69 347.86 153.24 347.91 154.84 L 347.85 155.30 C 346.62 157.53 345.56 159.84 344.81 162.28 L 344.77 162.37 C 343.09 165.41 341.66 168.59 340.61 171.90 C 335.06 172.10 329.50 171.99 323.95 171.99 C 323.05 170.12 322.08 168.29 321.21 166.42 L 321.19 166.36 C 320.38 164.01 319.46 161.70 318.29 159.51 L 318.20 159.26 C 316.47 154.54 314.51 149.91 312.29 145.40 L 312.23 145.28 C 309.18 137.53 306.10 129.74 302.25 122.35 L 302.25 122.34 C 301.55 119.86 300.51 117.52 299.29 115.26 L 299.25 115.16 C 298.52 112.77 297.51 110.49 296.24 108.34 L 296.24 108.34 C 295.57 105.88 294.54 103.55 293.24 101.37 L 293.22 101.33 C 292.51 98.79 291.61 96.28 289.97 94.18 L 289.99 93.81 C 290.23 92.32 289.71 90.58 288.25 89.91 L 287.15 89.25 Z" />
<path fill="#050607" opacity="1.00" d=" M 390.91 88.79 C 398.94 88.41 406.97 88.69 415.00 88.61 C 415.00 116.50 415.01 144.38 415.00 172.27 C 406.97 172.22 398.95 172.31 390.93 172.22 C 390.91 144.41 390.93 116.60 390.91 88.79 Z" />
<path fill="#050607" opacity="1.00" d=" M 465.89 88.98 C 471.48 89.04 477.07 88.91 482.66 89.06 C 493.20 113.88 503.78 138.69 514.67 163.36 L 514.73 163.51 C 515.53 166.01 516.49 168.48 517.99 170.67 L 518.33 171.23 C 516.77 172.29 514.81 171.99 513.04 172.05 C 506.82 171.91 500.60 172.13 494.38 171.91 C 493.79 169.93 493.09 167.95 491.87 166.26 L 491.94 165.85 C 491.92 165.44 491.89 164.61 491.88 164.20 L 491.23 163.89 C 490.90 163.73 490.25 163.40 489.93 163.24 C 488.67 162.77 487.30 162.77 485.99 162.76 C 476.57 162.83 467.15 162.82 457.74 162.77 C 456.42 165.85 455.24 168.98 454.07 172.11 C 445.86 172.14 437.66 172.15 429.46 172.05 L 430.04 171.29 C 431.45 169.53 432.16 167.38 433.02 165.33 C 435.24 159.81 437.83 154.44 439.95 148.88 L 440.04 148.71 C 442.22 144.91 443.81 140.82 445.23 136.69 L 445.25 136.65 C 449.94 126.75 454.31 116.67 458.25 106.46 L 458.28 106.40 C 460.97 100.66 463.24 94.74 465.89 88.98 M 473.78 119.44 C 471.42 126.78 467.97 133.81 466.10 141.27 L 465.99 141.94 C 464.23 141.70 463.44 144.77 464.26 146.05 L 463.43 146.77 L 463.88 147.86 C 470.97 148.03 478.09 148.02 485.19 147.84 C 484.56 146.14 484.81 143.38 482.82 142.67 L 482.80 142.62 C 482.75 139.96 482.03 136.13 479.77 134.68 L 479.75 134.62 C 479.93 131.77 478.60 128.69 476.83 126.49 L 476.75 126.23 C 476.22 124.03 476.05 120.19 473.78 119.44 Z" />
<path fill="#050607" opacity="1.00" d=" M 646.69 88.96 C 652.20 89.02 657.71 89.02 663.22 88.95 C 667.56 98.39 671.31 108.09 675.70 117.50 L 675.71 117.52 C 676.37 120.00 677.38 122.35 678.68 124.57 L 678.83 124.88 C 680.56 129.56 682.39 134.22 684.76 138.62 L 684.85 138.83 C 685.44 141.33 686.54 143.65 687.87 145.84 L 687.94 146.20 C 688.03 147.66 688.19 149.49 689.78 150.13 L 689.88 150.45 C 690.67 153.70 692.15 156.72 693.81 159.61 L 693.88 159.78 C 695.24 163.99 697.06 168.03 699.02 171.99 C 691.08 171.99 683.14 172.02 675.21 171.98 C 674.09 169.16 673.57 166.01 671.63 163.60 C 671.45 163.45 671.08 163.16 670.90 163.01 C 660.16 162.50 649.38 162.95 638.63 162.80 C 637.21 165.83 636.04 168.95 634.86 172.08 C 626.94 172.20 619.02 172.07 611.10 172.16 C 611.69 170.28 612.34 168.43 613.00 166.57 L 613.16 166.13 C 614.79 165.57 615.02 163.67 615.09 162.19 L 615.16 161.68 C 616.83 158.82 618.19 155.79 619.20 152.64 L 619.23 152.56 C 620.56 150.40 621.57 148.07 622.23 145.61 L 622.26 145.53 C 624.59 141.10 626.65 136.51 628.17 131.74 L 628.18 131.70 C 629.54 129.45 630.59 127.05 631.27 124.50 L 631.29 124.46 C 636.57 112.69 641.43 100.73 646.69 88.96 M 653.10 124.74 L 653.10 125.18 L 652.23 125.29 L 651.81 126.30 L 652.29 127.15 L 652.15 127.50 L 651.23 128.01 C 650.07 132.24 647.29 136.17 647.28 140.61 L 647.22 140.76 C 645.00 142.09 644.98 145.47 644.02 147.78 C 651.32 148.09 658.65 148.13 665.96 147.77 C 664.79 144.39 664.27 140.27 661.80 137.69 L 661.58 137.11 C 662.84 135.93 661.83 132.51 659.93 133.11 L 659.82 132.75 C 659.72 127.98 656.90 123.70 655.39 119.25 C 653.29 119.77 653.14 122.98 653.10 124.74 Z" />
<path fill="#050607" opacity="1.00" d=" M 692.83 88.89 C 720.64 88.78 748.45 88.86 776.26 88.85 C 776.31 95.44 776.28 102.04 776.29 108.63 C 766.29 108.72 756.30 108.78 746.31 108.62 C 746.33 108.84 746.37 109.28 746.39 109.50 C 746.85 130.30 746.34 151.13 746.65 171.94 C 738.79 172.73 730.86 171.91 722.98 172.37 C 722.98 151.19 723.00 130.01 722.97 108.84 C 712.92 108.36 702.84 109.02 692.79 108.50 C 692.85 101.96 692.80 95.42 692.83 88.89 Z" />
</g>
<g id="#27813eff">
<path fill="#27813e" opacity="1.00" d=" M 256.94 89.08 C 272.95 116.81 277.32 151.19 268.70 182.00 C 268.53 182.53 268.19 183.58 268.02 184.11 C 266.68 191.19 263.55 197.83 260.60 204.37 C 260.55 204.46 260.46 204.65 260.42 204.74 C 259.81 205.93 259.20 207.12 258.59 208.31 C 258.54 208.40 258.45 208.59 258.40 208.68 C 250.26 224.04 238.89 237.70 225.21 248.44 C 224.89 247.67 224.58 246.90 224.27 246.14 C 221.35 244.36 218.12 243.20 214.79 242.52 C 216.18 239.57 217.20 236.46 218.21 233.37 C 220.88 225.69 223.31 217.87 224.62 209.83 C 225.38 210.48 226.16 211.14 226.93 211.80 C 232.23 208.71 233.67 202.15 238.11 198.18 C 241.83 194.95 242.81 189.73 246.38 186.37 C 248.10 184.84 248.07 182.27 249.55 180.56 C 252.84 176.28 253.30 170.66 256.10 166.11 C 257.61 163.76 257.11 160.91 257.51 158.30 C 260.36 151.49 262.21 144.11 262.70 136.75 C 261.74 131.86 264.18 127.24 263.52 122.34 C 263.97 116.78 263.25 111.25 262.45 105.76 C 261.27 99.96 256.52 95.25 256.94 89.08 Z" />
</g>
<g id="#383837a5">
<path fill="#383837" opacity="0.65" d=" M 288.25 89.91 C 289.71 90.58 290.23 92.32 289.99 93.81 C 288.42 93.95 287.57 91.13 288.25 89.91 Z" />
</g>
<g id="#383737a9">
<path fill="#383737" opacity="0.66" d=" M 289.97 94.18 C 291.61 96.28 292.51 98.79 293.22 101.33 C 291.17 99.72 290.50 96.66 289.97 94.18 Z" />
</g>
<g id="#34343499">
<path fill="#343434" opacity="0.60" d=" M 315.83 98.72 C 318.49 101.90 318.98 106.42 320.74 110.15 C 321.89 114.35 324.67 118.19 324.75 122.61 C 321.41 114.80 318.30 106.85 315.83 98.72 Z" />
</g>
<g id="#38383882">
<path fill="#383838" opacity="0.51" d=" M 347.34 99.89 L 348.27 99.49 C 347.50 102.27 346.52 104.98 345.22 107.56 C 344.93 104.85 346.64 102.44 347.34 99.89 Z" />
</g>
<g id="#63a440ff">
<path fill="#63a440" opacity="1.00" d=" M 206.03 101.84 C 209.84 106.64 212.10 112.39 215.14 117.66 C 217.97 124.76 221.99 131.63 222.77 139.36 C 216.03 133.49 208.42 128.73 200.34 124.96 C 201.76 124.56 203.23 124.42 204.70 124.44 C 206.03 123.35 206.54 121.83 206.35 120.15 C 206.75 119.46 207.16 118.77 207.57 118.08 C 206.87 117.58 206.17 117.08 205.48 116.59 C 205.76 115.83 206.13 115.11 206.42 114.36 C 206.20 113.96 205.77 113.16 205.56 112.76 C 205.76 112.46 206.16 111.85 206.36 111.55 C 204.88 108.49 204.90 105.02 206.03 101.84 Z" />
</g>
<g id="#373737a1">
<path fill="#373737" opacity="0.63" d=" M 293.24 101.37 C 294.54 103.55 295.57 105.88 296.24 108.34 C 294.23 106.90 293.42 103.82 293.24 101.37 Z" />
</g>
<g id="#cfd0d2ff">
<path fill="#cfd0d2" opacity="1.00" d=" M 123.99 103.65 C 125.58 103.99 127.17 104.30 128.76 104.61 C 128.99 105.30 129.46 106.69 129.70 107.38 C 139.21 111.27 149.45 112.97 159.35 115.64 C 178.47 120.80 198.54 125.92 214.11 138.86 C 217.91 142.41 222.22 145.78 224.44 150.62 C 229.05 159.15 229.58 169.81 225.76 178.73 C 223.24 184.77 219.42 190.23 214.77 194.82 C 213.66 195.74 213.54 197.21 213.19 198.51 C 207.59 202.60 201.45 205.86 195.35 209.14 C 187.30 212.81 179.20 216.38 170.88 219.38 C 168.89 220.07 166.85 220.61 164.83 221.19 C 168.01 218.37 172.12 216.91 176.21 216.02 C 181.18 212.27 187.24 210.56 192.61 207.50 C 200.46 203.06 208.28 198.18 214.21 191.27 C 221.13 184.40 225.38 174.86 225.57 165.08 C 225.07 159.37 223.36 153.60 220.02 148.88 C 210.45 137.34 196.71 130.20 182.65 125.64 C 174.83 123.37 167.15 120.64 159.19 118.89 C 149.09 115.71 138.51 114.24 128.56 110.56 C 126.25 109.67 123.77 108.59 122.40 106.41 C 122.19 105.19 123.37 104.50 123.99 103.65 Z" />
</g>
<g id="#bcbec0ff">
<path fill="#bcbec0" opacity="1.00" d=" M 128.76 104.61 C 132.86 105.37 136.89 106.43 140.94 107.40 C 160.95 112.47 181.28 116.84 200.34 124.96 C 208.42 128.73 216.03 133.49 222.77 139.36 C 222.96 139.57 223.36 140.00 223.56 140.21 C 223.89 140.57 224.54 141.27 224.87 141.62 C 224.68 142.97 224.41 144.44 225.39 145.58 C 229.62 152.34 231.66 160.40 231.40 168.34 C 231.34 172.77 228.33 177.09 229.96 181.47 C 228.90 183.17 227.80 184.84 226.60 186.44 C 222.64 190.98 218.27 195.22 213.19 198.51 C 213.54 197.21 213.66 195.74 214.77 194.82 C 219.42 190.23 223.24 184.77 225.76 178.73 C 229.58 169.81 229.05 159.15 224.44 150.62 C 222.22 145.78 217.91 142.41 214.11 138.86 C 198.54 125.92 178.47 120.80 159.35 115.64 C 149.45 112.97 139.21 111.27 129.70 107.38 C 129.46 106.69 128.99 105.30 128.76 104.61 Z" />
</g>
<g id="#8ab06eff">
<path fill="#8ab06e" opacity="1.00" d=" M 22.37 144.01 C 23.14 131.38 25.36 118.77 29.91 106.93 C 30.43 109.75 32.31 112.42 31.53 115.37 C 30.60 119.55 31.91 123.73 31.66 127.93 C 30.60 145.70 31.49 163.52 30.96 181.30 C 30.54 181.39 29.70 181.58 29.28 181.67 C 29.22 182.00 29.09 182.66 29.03 183.00 C 23.21 170.94 21.98 157.23 22.37 144.01 Z" />
</g>
<g id="#30303099">
<path fill="#303030" opacity="0.60" d=" M 457.34 106.99 L 458.25 106.46 C 454.31 116.67 449.94 126.75 445.25 136.65 C 445.05 135.10 445.76 133.69 446.35 132.32 C 450.16 123.95 453.58 115.39 457.34 106.99 Z" />
</g>
<g id="#39393987">
<path fill="#393939" opacity="0.53" d=" M 342.29 115.49 C 342.07 112.82 343.28 109.61 345.15 107.76 C 344.47 110.43 343.46 113.00 342.29 115.49 Z" />
</g>
<g id="#3636369d">
<path fill="#363636" opacity="0.62" d=" M 296.24 108.34 C 297.51 110.49 298.52 112.77 299.25 115.16 L 298.39 115.25 C 297.87 112.88 295.99 110.87 296.24 108.34 Z" />
</g>
<g id="#34343441">
<path fill="#343434" opacity="0.25" d=" M 693.24 108.81 C 703.14 109.12 713.06 109.04 722.97 108.84 C 723.00 130.01 722.98 151.19 722.98 172.37 L 722.12 171.91 C 721.83 151.27 722.15 130.61 721.99 109.96 C 712.38 109.90 702.75 110.27 693.15 109.78 L 693.24 108.81 Z" />
<path fill="#343434" opacity="0.25" d=" M 537.81 147.08 C 541.49 146.93 545.20 146.87 548.88 147.13 L 549.32 148.02 C 545.32 148.01 541.32 148.03 537.32 148.14 L 537.81 147.08 Z" />
</g>
<g id="#383738a3">
<path fill="#383738" opacity="0.64" d=" M 299.29 115.26 C 300.51 117.52 301.55 119.86 302.25 122.34 C 300.36 120.76 299.21 117.75 299.29 115.26 Z" />
</g>
<g id="#38373783">
<path fill="#383737" opacity="0.51" d=" M 341.38 115.98 L 342.18 115.80 C 341.47 118.44 340.49 120.98 339.25 123.41 C 338.95 120.78 340.61 118.42 341.38 115.98 Z" />
</g>
<g id="#3a3939a0">
<path fill="#3a3939" opacity="0.63" d=" M 675.71 117.52 C 677.57 119.20 678.69 122.06 678.68 124.57 C 677.38 122.35 676.37 120.00 675.71 117.52 Z" />
</g>
<g id="#33323299">
<path fill="#333232" opacity="0.60" d=" M 653.10 124.74 C 653.14 122.98 653.29 119.77 655.39 119.25 C 656.90 123.70 659.72 127.98 659.82 132.75 C 658.29 129.31 657.15 125.72 655.71 122.24 C 654.69 119.82 653.55 123.86 653.10 124.74 Z" />
</g>
<g id="#343334b2">
<path fill="#343334" opacity="0.70" d=" M 358.82 129.39 C 359.69 126.15 361.09 123.09 362.86 120.25 C 362.22 123.39 361.18 127.31 358.82 129.39 Z" />
</g>
<g id="#333232a9">
<path fill="#333232" opacity="0.66" d=" M 302.25 122.35 C 306.10 129.74 309.18 137.53 312.23 145.28 L 311.35 145.10 C 308.72 138.95 306.16 132.77 303.44 126.66 C 302.86 125.29 302.13 123.90 302.25 122.35 Z" />
</g>
<g id="#333333a4">
<path fill="#333333" opacity="0.64" d=" M 324.77 122.66 C 326.86 124.38 326.94 127.63 328.18 129.99 C 329.88 133.43 330.08 137.72 332.90 140.51 C 332.69 140.98 332.27 141.92 332.06 142.39 C 329.35 135.93 326.74 129.39 324.77 122.66 Z" />
</g>
<g id="#39393985">
<path fill="#393939" opacity="0.52" d=" M 336.25 131.61 C 336.34 128.97 337.03 125.48 339.11 123.80 C 338.43 126.50 337.45 129.10 336.25 131.61 Z" />
</g>
<g id="#363636a6">
<path fill="#363636" opacity="0.65" d=" M 628.18 131.70 C 628.42 129.21 629.28 126.03 631.27 124.50 C 630.59 127.05 629.54 129.45 628.18 131.70 Z" />
</g>
<g id="#3e3e3e8d">
<path fill="#3e3e3e" opacity="0.55" d=" M 652.23 125.29 L 653.10 125.18 C 652.90 125.67 652.49 126.66 652.29 127.15 L 651.81 126.30 L 652.23 125.29 Z" />
</g>
<g id="#3130308b">
<path fill="#313030" opacity="0.55" d=" M 678.83 124.88 L 679.65 125.06 C 681.29 129.59 684.19 133.81 684.76 138.62 C 682.39 134.22 680.56 129.56 678.83 124.88 Z" />
</g>
<g id="#68aa41ff">
<path fill="#68aa41" opacity="1.00" d=" M 53.17 137.30 C 54.15 133.23 54.46 128.96 56.36 125.17 C 59.94 125.91 63.53 126.62 67.15 127.17 C 72.71 128.07 78.23 129.21 83.78 130.16 C 112.58 135.05 141.08 141.60 169.19 149.52 C 179.23 152.46 189.32 156.03 197.82 162.29 C 198.83 163.12 199.80 164.00 200.78 164.87 C 200.58 165.15 200.19 165.71 199.99 165.99 C 197.47 168.36 194.81 170.61 191.89 172.48 C 177.39 181.44 161.30 187.47 145.02 192.31 C 131.40 196.31 117.51 199.43 103.44 201.29 C 101.51 200.35 99.71 199.18 97.83 198.16 C 95.77 197.01 93.31 196.88 91.25 195.73 C 89.05 194.51 87.06 192.85 84.56 192.27 C 84.31 191.86 83.79 191.06 83.54 190.65 C 82.54 190.32 81.44 190.12 80.67 189.34 C 77.46 186.59 74.07 184.01 71.48 180.63 C 70.80 180.61 70.11 180.60 69.42 180.59 C 69.01 175.81 65.96 171.96 62.29 169.13 C 60.63 168.03 60.05 166.07 59.14 164.40 C 57.72 161.65 55.63 159.21 54.87 156.15 C 54.10 153.28 54.60 150.09 52.92 147.49 C 52.46 144.10 52.71 140.68 53.17 137.30 Z" />
</g>
<g id="#34343486">
<path fill="#343434" opacity="0.53" d=" M 476.83 126.49 C 478.60 128.69 479.93 131.77 479.75 134.62 C 478.52 132.01 477.48 129.31 476.83 126.49 Z" />
</g>
<g id="#2f2f2f99">
<path fill="#2f2f2f" opacity="0.60" d=" M 651.23 128.01 L 652.15 127.50 C 650.81 131.97 649.16 136.34 647.28 140.61 C 647.29 136.17 650.07 132.24 651.23 128.01 Z" />
</g>
<g id="#3333339d">
<path fill="#333333" opacity="0.62" d=" M 353.84 141.25 C 355.04 137.12 356.87 133.23 358.81 129.40 C 359.07 132.00 357.31 134.18 356.51 136.53 C 355.67 138.12 355.46 140.23 353.84 141.25 Z" />
</g>
<g id="#3938389e">
<path fill="#393838" opacity="0.62" d=" M 333.24 139.77 C 333.24 136.99 334.26 133.59 336.22 131.68 C 335.55 134.49 334.52 137.19 333.24 139.77 Z" />
</g>
<g id="#343333a8">
<path fill="#343333" opacity="0.66" d=" M 624.34 139.12 C 625.56 136.65 626.06 133.66 628.17 131.74 C 626.65 136.51 624.59 141.10 622.26 145.53 C 621.98 143.19 623.63 141.24 624.34 139.12 Z" />
</g>
<g id="#323232a8">
<path fill="#323232" opacity="0.66" d=" M 659.93 133.11 C 661.83 132.51 662.84 135.93 661.58 137.11 C 660.77 135.89 660.14 134.57 659.93 133.11 Z" />
</g>
<g id="#313031a4">
<path fill="#313031" opacity="0.64" d=" M 479.77 134.68 C 482.03 136.13 482.75 139.96 482.80 142.62 C 481.67 140.02 480.66 137.37 479.77 134.68 Z" />
</g>
<g id="#3232329d">
<path fill="#323232" opacity="0.62" d=" M 443.07 140.05 C 443.75 138.94 443.74 137.07 445.23 136.69 C 443.81 140.82 442.22 144.91 440.04 148.71 C 440.05 145.56 442.09 142.94 443.07 140.05 Z" />
</g>
<g id="#3636369f">
<path fill="#363636" opacity="0.62" d=" M 661.80 137.69 C 664.27 140.27 664.79 144.39 665.96 147.77 C 658.65 148.13 651.32 148.09 644.02 147.78 C 644.98 145.47 645.00 142.09 647.22 140.76 C 646.52 142.85 645.81 144.94 645.01 147.00 C 651.66 146.98 658.32 147.01 664.98 146.99 C 663.86 143.91 662.70 140.84 661.80 137.69 Z" />
</g>
<g id="#383738a5">
<path fill="#383738" opacity="0.65" d=" M 684.85 138.83 C 686.89 140.33 687.56 143.41 687.87 145.84 C 686.54 143.65 685.44 141.33 684.85 138.83 Z" />
</g>
<g id="#acadaeff">
<path fill="#acadae" opacity="1.00" d=" M 224.87 141.62 C 232.08 148.53 235.57 158.64 234.84 168.54 C 233.82 173.05 232.57 177.59 229.96 181.47 C 228.33 177.09 231.34 172.77 231.40 168.34 C 231.66 160.40 229.62 152.34 225.39 145.58 C 224.41 144.44 224.68 142.97 224.87 141.62 Z" />
</g>
<g id="#35343480">
<path fill="#353434" opacity="0.50" d=" M 350.82 148.55 C 351.46 146.00 352.58 143.63 353.81 141.31 C 353.66 143.87 352.80 146.84 350.82 148.55 Z" />
</g>
<g id="#35353599">
<path fill="#353535" opacity="0.60" d=" M 464.26 146.05 C 463.44 144.77 464.23 141.70 465.99 141.94 C 465.84 143.43 465.60 145.13 464.26 146.05 Z" />
</g>
<g id="#3a3a3aa2">
<path fill="#3a3a3a" opacity="0.64" d=" M 482.82 142.67 C 484.81 143.38 484.56 146.14 485.19 147.84 C 478.09 148.02 470.97 148.03 463.88 147.86 L 463.43 146.77 C 470.32 147.20 477.22 146.93 484.12 146.99 C 483.69 145.55 483.26 144.10 482.82 142.67 Z" />
</g>
<g id="#3333339b">
<path fill="#333333" opacity="0.61" d=" M 312.29 145.40 C 314.51 149.91 316.47 154.54 318.20 159.26 L 317.31 158.97 C 315.81 154.42 312.55 150.20 312.29 145.40 Z" />
</g>
<g id="#373636ac">
<path fill="#373636" opacity="0.67" d=" M 619.23 152.56 C 619.40 150.14 620.23 146.96 622.23 145.61 C 621.57 148.07 620.56 150.40 619.23 152.56 Z" />
</g>
<g id="#383737a5">
<path fill="#383737" opacity="0.65" d=" M 687.94 146.20 C 689.56 145.99 690.47 148.88 689.78 150.13 C 688.19 149.49 688.03 147.66 687.94 146.20 Z" />
</g>
<g id="#5d9e40ff">
<path fill="#5d9e40" opacity="1.00" d=" M 52.92 147.49 C 54.60 150.09 54.10 153.28 54.87 156.15 C 55.63 159.21 57.72 161.65 59.14 164.40 C 60.05 166.07 60.63 168.03 62.29 169.13 C 65.96 171.96 69.01 175.81 69.42 180.59 C 70.11 180.60 70.80 180.61 71.48 180.63 C 74.07 184.01 77.46 186.59 80.67 189.34 C 81.44 190.12 82.54 190.32 83.54 190.65 C 83.79 191.06 84.31 191.86 84.56 192.27 C 87.06 192.85 89.05 194.51 91.25 195.73 C 93.31 196.88 95.77 197.01 97.83 198.16 C 99.71 199.18 101.51 200.35 103.44 201.29 C 98.80 201.97 94.13 202.53 89.45 202.79 C 85.00 202.84 80.56 203.26 76.11 203.17 C 71.73 203.24 67.39 202.67 63.02 202.48 L 62.83 202.16 C 58.86 193.03 56.52 183.34 54.19 173.70 C 52.75 165.09 51.85 156.19 52.92 147.49 Z" />
<path fill="#5d9e40" opacity="1.00" d=" M 648.38 185.00 C 655.38 184.44 662.42 184.66 669.43 185.03 C 667.41 185.86 665.26 186.23 663.10 186.37 C 662.38 191.59 664.90 196.69 663.72 201.87 C 661.92 214.25 661.20 226.80 659.01 239.11 C 651.02 239.36 642.99 239.46 635.01 239.05 C 635.73 237.61 637.19 237.46 638.67 237.38 C 639.65 230.62 640.37 223.82 639.97 216.98 C 639.54 209.95 640.73 203.01 641.21 196.02 C 641.63 192.68 642.96 189.00 640.50 186.12 C 643.16 186.19 645.97 186.40 648.38 185.00 Z" />
</g>
<g id="#47464696">
<path fill="#474646" opacity="0.59" d=" M 350.39 149.76 C 350.44 149.64 350.53 149.40 350.58 149.29 C 350.53 149.40 350.44 149.64 350.39 149.76 Z" />
</g>
<g id="#343333a9">
<path fill="#343333" opacity="0.66" d=" M 548.98 149.22 C 550.13 149.89 551.95 151.66 551.99 153.10 C 550.06 153.03 548.21 151.20 548.98 149.22 Z" />
</g>
<g id="#3939399e">
<path fill="#393939" opacity="0.62" d=" M 347.91 154.84 C 347.86 153.24 348.41 151.69 349.77 150.77 C 350.49 152.06 349.57 154.94 347.91 154.84 Z" />
</g>
<g id="#3131319a">
<path fill="#313131" opacity="0.60" d=" M 689.88 150.45 C 692.12 152.76 693.30 156.40 693.81 159.61 C 692.15 156.72 690.67 153.70 689.88 150.45 Z" />
</g>
<g id="#32313193">
<path fill="#323131" opacity="0.58" d=" M 615.16 161.68 C 615.69 158.53 616.86 154.70 619.20 152.64 C 618.19 155.79 616.83 158.82 615.16 161.68 Z" />
</g>
<g id="#34343480">
<path fill="#343434" opacity="0.50" d=" M 344.81 162.28 C 345.56 159.84 346.62 157.53 347.85 155.30 C 347.51 157.70 346.99 160.91 344.81 162.28 Z" />
</g>
<g id="#2c2c2c9d">
<path fill="#2c2c2c" opacity="0.62" d=" M 528.94 156.37 C 531.13 160.70 533.81 164.79 537.59 167.91 C 532.96 166.20 529.75 161.13 528.94 156.37 Z" />
</g>
<g id="#39383890">
<path fill="#393838" opacity="0.56" d=" M 318.29 159.51 C 319.46 161.70 320.38 164.01 321.19 166.36 C 319.16 165.15 318.23 161.87 318.29 159.51 Z" />
</g>
<g id="#3b3b3b96">
<path fill="#3b3b3b" opacity="0.59" d=" M 693.88 159.78 C 696.89 163.46 698.13 168.47 699.91 172.89 C 691.62 173.09 683.31 173.04 675.02 172.93 C 673.23 170.18 672.34 166.80 671.63 163.60 C 673.57 166.01 674.09 169.16 675.21 171.98 C 683.14 172.02 691.08 171.99 699.02 171.99 C 697.06 168.03 695.24 163.99 693.88 159.78 Z" />
</g>
<g id="#3737379d">
<path fill="#373737" opacity="0.62" d=" M 613.16 166.13 C 612.63 164.82 613.44 162.07 615.09 162.19 C 615.02 163.67 614.79 165.57 613.16 166.13 Z" />
</g>
<g id="#3a39398c">
<path fill="#3a3939" opacity="0.55" d=" M 340.61 171.90 C 341.66 168.59 343.09 165.41 344.77 162.37 C 344.54 166.15 342.06 169.30 341.01 172.88 C 335.10 173.08 329.17 173.11 323.26 172.86 C 322.45 170.77 321.04 168.75 321.21 166.42 C 322.08 168.29 323.05 170.12 323.95 171.99 C 329.50 171.99 335.06 172.10 340.61 171.90 Z" />
</g>
<g id="#444444a4">
<path fill="#444444" opacity="0.64" d=" M 491.23 163.89 L 491.88 164.20 C 491.89 164.61 491.92 165.44 491.94 165.85 L 491.16 165.73 C 491.18 165.27 491.21 164.35 491.23 163.89 Z" />
</g>
<g id="#35343582">
<path fill="#353435" opacity="0.51" d=" M 514.73 163.51 C 516.85 165.15 517.53 168.14 517.99 170.67 C 516.49 168.48 515.53 166.01 514.73 163.51 Z" />
</g>
<g id="#44434398">
<path fill="#444343" opacity="0.60" d=" M 491.87 166.26 C 493.09 167.95 493.79 169.93 494.38 171.91 C 500.60 172.13 506.82 171.91 513.04 172.05 C 514.81 171.99 516.77 172.29 518.33 171.23 L 519.15 170.80 C 519.07 171.32 518.91 172.35 518.82 172.86 C 511.25 173.19 503.65 172.91 496.07 173.00 C 492.48 173.54 492.63 168.60 491.87 166.26 Z" />
</g>
<g id="#393939a7">
<path fill="#393939" opacity="0.65" d=" M 537.97 167.99 C 539.23 168.14 540.77 168.50 541.20 169.89 C 540.05 170.52 537.51 169.47 537.97 167.99 Z" />
</g>
<g id="#c9c9c8ff">
<path fill="#c9c9c8" opacity="1.00" d=" M 145.02 192.31 C 161.30 187.47 177.39 181.44 191.89 172.48 C 192.07 173.04 192.43 174.17 192.61 174.73 C 187.23 179.59 180.81 183.08 174.34 186.26 C 169.99 187.78 165.80 189.67 161.61 191.58 C 153.89 193.79 146.56 197.21 138.64 198.75 C 126.42 202.98 113.62 205.03 101.07 208.01 C 97.11 209.12 92.58 210.83 91.09 215.08 C 91.38 219.15 95.10 221.83 98.48 223.45 C 110.71 229.37 124.82 228.49 137.91 226.72 C 140.38 226.57 142.82 226.13 145.13 225.22 C 145.44 225.63 146.05 226.44 146.36 226.85 C 133.60 230.48 120.52 232.89 107.38 234.61 C 100.11 232.68 92.38 232.46 85.42 229.45 C 80.33 226.60 74.42 223.77 71.96 218.11 C 70.02 214.14 73.62 209.79 77.37 208.65 C 81.68 207.29 85.21 204.31 89.45 202.79 C 94.13 202.53 98.80 201.97 103.44 201.29 C 117.51 199.43 131.40 196.31 145.02 192.31 Z" />
</g>
<g id="#75a93fff">
<path fill="#75a93f" opacity="1.00" d=" M 54.19 173.70 C 56.52 183.34 58.86 193.03 62.83 202.16 C 58.15 201.68 53.51 200.82 49.03 199.38 C 50.78 191.75 51.12 183.92 52.18 176.19 C 52.70 176.71 53.22 177.22 53.75 177.74 C 53.91 176.40 54.06 175.05 54.19 173.70 Z" />
</g>
<g id="#54655589">
<path fill="#546555" opacity="0.54" d=" M 268.02 184.11 C 268.19 183.58 268.53 182.53 268.70 182.00 C 268.74 182.49 268.81 183.47 268.85 183.96 L 268.02 184.11 Z" />
</g>
<g id="#44533fb5">
<path fill="#44533f" opacity="0.71" d=" M 304.21 184.20 C 351.44 183.72 398.71 184.16 445.95 183.98 C 447.45 184.02 449.02 183.82 450.49 184.26 L 451.51 184.57 C 438.78 185.18 426.02 184.28 413.30 185.00 C 398.65 184.77 383.96 184.42 369.33 185.04 C 355.57 184.40 341.78 184.88 328.01 184.65 C 325.24 184.54 322.47 184.72 319.77 185.35 C 314.94 185.06 310.08 185.04 305.25 185.38 C 304.59 202.23 305.11 219.11 304.95 235.97 C 304.81 236.95 304.54 238.90 304.40 239.87 C 347.96 239.72 391.52 239.90 435.09 239.81 L 434.67 240.98 C 397.11 241.15 359.54 241.01 321.98 241.07 C 316.04 240.99 310.08 241.26 304.15 240.89 C 304.09 222.00 304.00 203.10 304.21 184.20 Z" />
</g>
<g id="#587a49ae">
<path fill="#587a49" opacity="0.68" d=" M 450.49 184.26 C 470.99 183.84 491.52 184.18 512.02 184.10 C 597.36 184.09 682.70 184.03 768.04 184.06 C 770.94 184.01 773.86 184.08 776.77 184.34 C 777.01 203.17 777.06 222.03 776.71 240.85 C 726.14 241.25 675.56 240.87 624.98 241.03 C 613.36 241.14 601.70 240.60 590.10 241.29 C 589.92 241.09 589.55 240.68 589.36 240.48 L 589.04 240.10 C 596.34 239.44 603.68 239.94 611.00 239.81 C 631.25 239.68 651.52 240.01 671.76 239.62 C 677.47 240.56 683.27 239.91 689.02 240.02 C 697.34 240.11 705.66 240.20 713.99 240.07 C 734.67 240.10 755.35 240.20 776.02 240.04 C 776.47 221.70 776.23 203.33 776.08 184.99 C 766.39 184.30 756.67 184.85 746.97 184.69 C 739.80 184.81 732.61 184.36 725.45 184.95 C 717.78 184.63 710.07 184.47 702.40 184.98 C 695.60 184.40 688.78 184.84 681.97 184.71 C 677.79 184.66 673.59 184.52 669.43 185.03 C 662.42 184.66 655.38 184.44 648.38 185.00 C 639.41 184.69 630.40 184.39 621.44 185.03 C 612.11 184.59 602.73 184.52 593.40 184.96 C 580.62 184.40 567.82 184.82 555.04 184.66 C 547.84 184.76 540.63 184.43 533.43 184.83 C 523.11 184.62 512.76 184.46 502.44 184.85 C 490.12 184.57 477.78 184.47 465.47 184.85 C 460.82 184.54 456.16 184.71 451.51 184.57 L 450.49 184.26 Z" />
</g>
<g id="#1f3310ff">
<path fill="#1f3310" opacity="1.00" d=" M 319.77 185.35 C 322.47 184.72 325.24 184.54 328.01 184.65 C 341.78 184.88 355.57 184.40 369.33 185.04 C 367.58 185.48 365.82 185.94 364.01 185.91 C 352.34 185.98 340.65 185.80 328.99 186.41 C 330.54 186.74 332.09 187.06 333.65 187.38 C 333.57 188.23 333.50 189.08 333.43 189.94 C 339.76 190.71 346.98 188.35 352.54 192.32 C 340.54 192.54 328.55 192.31 316.55 192.46 C 316.63 205.24 316.58 218.01 316.58 230.78 C 316.58 231.03 316.58 231.52 316.57 231.77 C 321.42 232.23 326.63 230.87 331.24 232.73 C 327.49 233.27 323.70 233.19 319.94 233.47 C 321.92 233.78 323.90 234.06 325.90 234.29 C 325.90 235.46 325.91 236.62 325.92 237.80 C 323.72 237.97 321.42 237.52 319.37 238.57 L 319.07 239.03 C 314.39 239.37 309.45 239.90 304.95 238.28 C 305.12 222.50 304.97 206.73 305.02 190.95 C 305.09 189.21 305.16 186.74 307.03 185.95 C 311.24 185.27 315.59 186.39 319.77 185.35 Z" />
</g>
<g id="#243e18ff">
<path fill="#243e18" opacity="1.00" d=" M 369.33 185.04 C 383.96 184.42 398.65 184.77 413.30 185.00 C 409.33 186.40 405.09 185.90 400.98 185.99 C 391.01 186.08 381.05 186.14 371.08 186.40 C 372.23 186.71 373.38 187.02 374.54 187.32 C 374.80 187.90 375.31 189.06 375.57 189.64 C 380.10 189.98 384.81 189.04 389.20 190.52 C 388.57 190.84 387.30 191.49 386.67 191.81 C 379.79 191.37 372.42 191.80 366.39 195.48 C 354.80 202.43 355.39 222.49 367.59 228.53 C 375.38 232.40 384.63 232.25 392.92 230.29 C 393.14 230.70 393.57 231.51 393.78 231.91 C 386.47 233.85 378.71 234.72 371.40 232.30 C 371.21 234.09 371.02 235.89 370.84 237.69 C 369.23 237.82 367.63 237.95 366.03 238.10 C 366.02 238.31 366.01 238.74 366.00 238.96 C 363.01 239.31 359.99 239.43 356.99 239.29 C 344.35 239.12 331.70 239.50 319.07 239.03 L 319.37 238.57 C 321.42 237.52 323.72 237.97 325.92 237.80 C 325.91 236.62 325.90 235.46 325.90 234.29 C 323.90 234.06 321.92 233.78 319.94 233.47 C 323.70 233.19 327.49 233.27 331.24 232.73 C 326.63 230.87 321.42 232.23 316.57 231.77 C 316.58 231.52 316.58 231.03 316.58 230.78 C 321.20 230.75 325.81 230.78 330.43 230.74 C 330.39 226.53 330.36 222.32 330.46 218.11 C 336.79 218.21 343.12 218.14 349.45 218.17 C 349.47 214.90 349.53 211.63 349.70 208.36 C 343.25 208.19 336.81 208.33 330.36 208.29 C 330.42 206.56 330.46 204.84 330.51 203.12 C 338.16 203.34 345.82 203.07 353.47 203.31 C 353.72 199.72 353.46 196.13 353.51 192.54 C 353.26 192.48 352.78 192.37 352.54 192.32 C 346.98 188.35 339.76 190.71 333.43 189.94 C 333.50 189.08 333.57 188.23 333.65 187.38 C 332.09 187.06 330.54 186.74 328.99 186.41 C 340.65 185.80 352.34 185.98 364.01 185.91 C 365.82 185.94 367.58 185.48 369.33 185.04 Z" />
</g>
<g id="#2c4f24ff">
<path fill="#2c4f24" opacity="1.00" d=" M 413.30 185.00 C 426.02 184.28 438.78 185.18 451.51 184.57 C 456.16 184.71 460.82 184.54 465.47 184.85 C 464.37 185.36 463.23 185.69 462.05 185.85 C 450.36 186.21 438.63 185.63 426.96 186.48 C 428.41 186.80 429.87 187.13 431.34 187.47 C 431.84 188.32 432.44 189.11 433.12 189.84 C 437.30 190.29 441.88 189.65 445.48 192.33 C 433.50 192.53 421.52 192.27 409.55 192.49 C 409.51 196.07 409.44 199.65 409.36 203.24 C 413.81 203.22 418.26 203.23 422.71 203.22 C 422.65 212.39 422.81 221.58 422.63 230.75 C 422.62 231.03 422.60 231.58 422.59 231.86 C 427.43 232.07 432.30 231.61 437.11 232.36 C 433.85 233.61 430.29 232.68 426.98 233.61 C 428.58 233.90 430.19 234.14 431.82 234.36 C 432.00 235.49 431.93 236.57 431.61 237.62 C 430.09 237.84 428.56 237.84 427.03 237.65 C 426.79 237.99 426.31 238.68 426.06 239.03 C 410.40 239.56 394.70 238.97 379.03 239.33 C 374.69 239.23 370.32 239.45 366.00 238.96 C 366.01 238.74 366.02 238.31 366.03 238.10 C 367.63 237.95 369.23 237.82 370.84 237.69 C 371.02 235.89 371.21 234.09 371.40 232.30 C 378.71 234.72 386.47 233.85 393.78 231.91 C 393.57 231.51 393.14 230.70 392.92 230.29 C 397.62 228.67 402.15 225.76 404.35 221.14 C 408.16 213.33 407.09 202.56 400.09 196.86 C 396.35 193.67 391.40 192.55 386.67 191.81 C 387.30 191.49 388.57 190.84 389.20 190.52 C 384.81 189.04 380.10 189.98 375.57 189.64 C 375.31 189.06 374.80 187.90 374.54 187.32 C 373.38 187.02 372.23 186.71 371.08 186.40 C 381.05 186.14 391.01 186.08 400.98 185.99 C 405.09 185.90 409.33 186.40 413.30 185.00 Z" />
</g>
<g id="#305b2bff">
<path fill="#305b2b" opacity="1.00" d=" M 465.47 184.85 C 477.78 184.47 490.12 184.57 502.44 184.85 C 501.83 185.08 500.61 185.54 499.99 185.77 C 489.99 186.30 479.92 185.63 469.94 186.57 C 473.33 186.97 477.71 186.07 479.21 190.06 C 481.76 190.61 484.35 190.97 486.95 191.28 C 486.29 191.78 485.63 192.28 484.98 192.78 C 475.23 192.07 465.41 192.37 455.65 192.58 C 455.91 205.32 455.54 218.08 455.84 230.82 C 464.69 230.69 473.54 230.94 482.39 230.69 C 486.04 230.64 489.61 229.76 492.94 228.30 C 492.03 232.15 487.57 231.80 484.53 232.61 C 484.22 234.21 483.90 235.81 483.58 237.42 C 481.99 238.00 480.42 238.63 478.84 239.20 C 461.25 239.14 443.65 239.51 426.06 239.03 C 426.31 238.68 426.79 237.99 427.03 237.65 C 428.56 237.84 430.09 237.84 431.61 237.62 C 431.93 236.57 432.00 235.49 431.82 234.36 C 430.19 234.14 428.58 233.90 426.98 233.61 C 430.29 232.68 433.85 233.61 437.11 232.36 C 432.30 231.61 427.43 232.07 422.59 231.86 C 422.60 231.58 422.62 231.03 422.63 230.75 C 427.29 230.79 431.96 230.78 436.64 230.79 C 436.64 221.57 436.53 212.36 436.69 203.14 C 441.20 203.26 445.72 203.22 450.23 203.22 C 450.24 199.61 450.01 196.00 449.72 192.40 C 448.30 192.38 446.89 192.37 445.48 192.33 C 441.88 189.65 437.30 190.29 433.12 189.84 C 432.44 189.11 431.84 188.32 431.34 187.47 C 429.87 187.13 428.41 186.80 426.96 186.48 C 438.63 185.63 450.36 186.21 462.05 185.85 C 463.23 185.69 464.37 185.36 465.47 184.85 Z" />
</g>
<g id="#346c34ff">
<path fill="#346c34" opacity="1.00" d=" M 502.44 184.85 C 512.76 184.46 523.11 184.62 533.43 184.83 C 528.08 187.64 521.71 185.44 515.92 186.36 C 515.94 188.68 517.79 189.62 519.86 189.67 C 520.02 190.28 520.36 191.48 520.52 192.08 C 515.06 204.97 509.38 217.76 503.93 230.65 C 508.09 230.42 512.27 230.45 516.44 230.66 C 517.39 229.16 517.35 226.17 519.60 226.12 C 523.23 227.15 527.02 226.83 530.72 227.36 C 532.17 228.69 531.78 231.09 532.30 232.88 C 533.48 233.16 534.66 233.46 535.84 233.79 C 535.80 235.09 535.76 236.40 535.73 237.71 C 534.81 237.67 532.97 237.59 532.05 237.55 C 531.80 237.93 531.31 238.68 531.06 239.06 C 513.67 239.47 496.25 239.17 478.84 239.20 C 480.42 238.63 481.99 238.00 483.58 237.42 C 483.90 235.81 484.22 234.21 484.53 232.61 C 487.57 231.80 492.03 232.15 492.94 228.30 C 495.70 226.00 498.04 222.80 497.60 219.01 C 497.57 214.77 493.69 212.02 489.97 211.00 C 493.37 209.32 496.40 206.03 495.75 201.95 C 495.56 196.41 489.71 193.70 484.98 192.78 C 485.63 192.28 486.29 191.78 486.95 191.28 C 484.35 190.97 481.76 190.61 479.21 190.06 C 477.71 186.07 473.33 186.97 469.94 186.57 C 479.92 185.63 489.99 186.30 499.99 185.77 C 500.61 185.54 501.83 185.08 502.44 184.85 Z" />
</g>
<g id="#357d3bff">
<path fill="#357d3b" opacity="1.00" d=" M 533.43 184.83 C 540.63 184.43 547.84 184.76 555.04 184.66 C 567.82 184.82 580.62 184.40 593.40 184.96 C 591.98 185.44 590.56 186.02 589.05 186.02 C 582.71 186.17 576.37 186.04 570.03 186.29 C 569.41 188.95 572.05 189.89 573.01 191.93 C 568.23 192.92 563.32 192.07 558.50 192.49 C 558.63 205.33 558.57 218.18 558.53 231.02 C 562.14 232.51 566.13 231.67 569.92 231.86 C 576.30 232.10 582.71 231.71 589.06 232.53 C 586.36 232.76 583.67 232.95 580.97 233.15 C 581.00 234.48 581.01 235.81 581.03 237.13 C 581.60 236.15 582.17 235.16 582.72 234.16 C 582.78 235.05 582.84 235.94 582.93 236.84 C 581.91 237.56 580.47 237.84 579.91 239.04 C 563.64 239.42 547.33 239.37 531.06 239.06 C 531.31 238.68 531.80 237.93 532.05 237.55 C 532.97 237.59 534.81 237.67 535.73 237.71 C 535.76 236.40 535.80 235.09 535.84 233.79 C 534.66 233.46 533.48 233.16 532.30 232.88 C 531.78 231.09 532.17 228.69 530.72 227.36 C 527.02 226.83 523.23 227.15 519.60 226.12 C 524.70 225.71 529.81 226.12 534.92 226.10 C 535.49 227.59 536.07 229.07 536.65 230.56 C 540.77 230.47 544.91 230.42 549.04 230.66 C 543.77 217.71 537.60 205.13 532.71 192.04 C 528.65 192.04 524.58 192.04 520.52 192.08 C 520.36 191.48 520.02 190.28 519.86 189.67 C 517.79 189.62 515.94 188.68 515.92 186.36 C 521.71 185.44 528.08 187.64 533.43 184.83 Z" />
</g>
<g id="#42873dff">
<path fill="#42873d" opacity="1.00" d=" M 593.40 184.96 C 602.73 184.52 612.11 184.59 621.44 185.03 C 615.91 187.09 609.88 185.74 604.12 186.31 C 604.94 186.70 605.76 187.10 606.59 187.49 C 606.58 188.27 606.59 189.05 606.60 189.83 C 608.71 189.96 610.83 190.10 612.96 190.21 C 611.50 190.93 610.05 191.66 608.58 192.33 C 605.55 192.34 602.51 192.36 599.48 192.53 C 599.67 205.36 599.59 218.19 599.52 231.02 C 605.12 233.10 611.28 231.19 617.07 232.42 C 611.53 233.53 605.86 232.85 600.26 233.25 C 600.15 235.16 600.04 237.08 599.98 239.00 C 593.31 239.47 586.58 239.41 579.91 239.04 C 580.47 237.84 581.91 237.56 582.93 236.84 C 582.84 235.94 582.78 235.05 582.72 234.16 C 582.17 235.16 581.60 236.15 581.03 237.13 C 581.01 235.81 581.00 234.48 580.97 233.15 C 583.67 232.95 586.36 232.76 589.06 232.53 C 582.71 231.71 576.30 232.10 569.92 231.86 C 566.13 231.67 562.14 232.51 558.53 231.02 C 570.11 230.56 581.72 230.83 593.31 230.89 C 593.60 227.30 593.73 223.69 593.52 220.09 C 586.58 220.29 579.63 220.19 572.69 220.19 L 572.56 219.32 C 574.35 219.06 576.17 218.81 577.97 218.55 C 576.71 218.22 575.46 217.90 574.22 217.59 C 574.06 210.06 574.21 202.52 574.24 194.99 C 574.30 193.78 573.88 192.77 573.01 191.93 C 572.05 189.89 569.41 188.95 570.03 186.29 C 576.37 186.04 582.71 186.17 589.05 186.02 C 590.56 186.02 591.98 185.44 593.40 184.96 Z" />
</g>
<g id="#53953fff">
<path fill="#53953f" opacity="1.00" d=" M 621.44 185.03 C 630.40 184.39 639.41 184.69 648.38 185.00 C 645.97 186.40 643.16 186.19 640.50 186.12 C 642.96 189.00 641.63 192.68 641.21 196.02 C 640.73 203.01 639.54 209.95 639.97 216.98 C 640.37 223.82 639.65 230.62 638.67 237.38 C 637.19 237.46 635.73 237.61 635.01 239.05 C 623.35 239.39 611.63 239.48 599.98 239.00 C 600.04 237.08 600.15 235.16 600.26 233.25 C 605.86 232.85 611.53 233.53 617.07 232.42 C 611.28 231.19 605.12 233.10 599.52 231.02 C 611.19 230.49 622.89 231.00 634.58 230.77 C 634.64 227.23 634.68 223.70 634.79 220.17 C 627.72 220.22 620.65 220.18 613.58 220.21 C 613.47 210.94 613.54 201.68 613.55 192.41 C 611.89 192.38 610.23 192.35 608.58 192.33 C 610.05 191.66 611.50 190.93 612.96 190.21 C 610.83 190.10 608.71 189.96 606.60 189.83 C 606.59 189.05 606.58 188.27 606.59 187.49 C 605.76 187.10 604.94 186.70 604.12 186.31 C 609.88 185.74 615.91 187.09 621.44 185.03 Z" />
</g>
<g id="#67a941ff">
<path fill="#67a941" opacity="1.00" d=" M 669.43 185.03 C 673.59 184.52 677.79 184.66 681.97 184.71 C 688.78 184.84 695.60 184.40 702.40 184.98 C 699.53 186.22 696.38 186.09 693.33 186.22 C 691.38 193.33 692.13 200.72 691.98 208.00 C 692.31 216.41 690.39 224.67 689.92 233.04 C 689.92 235.05 689.00 236.85 688.18 238.62 C 696.91 239.21 705.66 239.00 714.40 239.34 L 713.99 240.07 C 705.66 240.20 697.34 240.11 689.02 240.02 C 683.27 239.91 677.47 240.56 671.76 239.62 C 667.54 238.91 663.25 239.56 659.01 239.11 C 661.20 226.80 661.92 214.25 663.72 201.87 C 664.90 196.69 662.38 191.59 663.10 186.37 C 665.26 186.23 667.41 185.86 669.43 185.03 Z" />
</g>
<g id="#73b541ff">
<path fill="#73b541" opacity="1.00" d=" M 702.40 184.98 C 710.07 184.47 717.78 184.63 725.45 184.95 C 723.18 186.08 720.64 186.18 718.17 186.29 C 717.82 190.52 718.31 194.76 718.00 198.99 C 716.88 206.35 716.65 213.81 715.34 221.15 C 714.27 227.17 716.18 233.42 714.40 239.34 C 705.66 239.00 696.91 239.21 688.18 238.62 C 689.00 236.85 689.92 235.05 689.92 233.04 C 690.39 224.67 692.31 216.41 691.98 208.00 C 692.13 200.72 691.38 193.33 693.33 186.22 C 696.38 186.09 699.53 186.22 702.40 184.98 Z" />
</g>
<g id="#7fc241ff">
<path fill="#7fc241" opacity="1.00" d=" M 725.45 184.95 C 732.61 184.36 739.80 184.81 746.97 184.69 C 756.67 184.85 766.39 184.30 776.08 184.99 C 776.23 203.33 776.47 221.70 776.02 240.04 C 755.35 240.20 734.67 240.10 713.99 240.07 L 714.40 239.34 C 716.18 233.42 714.27 227.17 715.34 221.15 C 716.65 213.81 716.88 206.35 718.00 198.99 C 718.31 194.76 717.82 190.52 718.17 186.29 C 720.64 186.18 723.18 186.08 725.45 184.95 Z" />
</g>
<g id="#5b983fff">
<path fill="#5b983f" opacity="1.00" d=" M 213.19 198.51 C 218.27 195.22 222.64 190.98 226.60 186.44 C 227.41 194.29 225.38 202.05 224.62 209.83 C 223.31 217.87 220.88 225.69 218.21 233.37 C 217.76 232.81 216.85 231.70 216.40 231.15 C 214.31 233.01 212.16 234.88 209.40 235.65 C 206.08 237.41 202.71 239.80 201.19 243.36 C 200.19 245.35 197.23 245.13 196.28 247.19 C 194.97 250.25 191.46 251.18 189.86 254.02 C 189.08 254.26 188.30 254.48 187.53 254.72 C 185.59 258.39 181.49 259.41 178.06 261.10 C 172.68 264.99 166.43 267.38 160.75 270.79 C 158.64 272.16 156.23 272.95 153.83 273.66 C 156.94 274.02 160.07 274.34 163.20 274.42 C 137.93 277.72 111.52 272.84 89.02 260.78 C 89.10 260.40 89.24 259.65 89.31 259.27 C 92.08 260.19 94.98 262.39 97.98 261.07 C 100.59 260.34 103.14 259.26 105.03 257.25 C 107.03 258.46 109.26 259.59 111.54 258.32 C 113.94 257.68 116.38 257.17 118.79 256.55 C 119.82 256.93 120.85 257.31 121.87 257.71 C 125.42 256.58 128.93 254.95 132.75 255.29 C 136.32 255.75 139.42 253.13 143.01 253.90 C 144.53 254.30 144.86 252.27 145.69 251.45 C 149.46 250.75 153.26 249.81 156.38 247.45 C 158.73 245.63 161.74 245.36 164.48 244.47 C 167.84 242.91 170.52 239.91 174.31 239.31 C 176.23 239.16 176.31 236.92 176.63 235.47 C 180.45 235.98 180.67 230.97 183.71 229.74 C 187.92 227.39 190.44 223.09 194.31 220.30 C 197.03 218.31 199.04 215.58 200.97 212.86 C 200.33 212.66 199.69 212.46 199.06 212.27 C 199.99 210.82 200.91 209.36 201.86 207.92 C 199.76 208.62 197.62 210.03 195.35 209.14 C 201.45 205.86 207.59 202.60 213.19 198.51 Z" />
</g>
<g id="#ffffffff">
<path fill="#ffffff" opacity="1.00" d=" M 366.39 195.48 C 372.42 191.80 379.79 191.37 386.67 191.81 C 391.40 192.55 396.35 193.67 400.09 196.86 C 407.09 202.56 408.16 213.33 404.35 221.14 C 402.15 225.76 397.62 228.67 392.92 230.29 C 384.63 232.25 375.38 232.40 367.59 228.53 C 355.39 222.49 354.80 202.43 366.39 195.48 M 377.51 202.76 C 372.30 204.60 371.99 211.46 373.33 215.98 C 374.37 220.62 379.91 221.62 383.94 221.20 C 387.25 220.96 390.80 219.12 391.45 215.58 C 392.02 211.24 392.56 205.20 387.78 202.97 C 384.51 201.91 380.84 202.01 377.51 202.76 Z" />
<path fill="#ffffff" opacity="1.00" d=" M 316.55 192.46 C 328.55 192.31 340.54 192.54 352.54 192.32 C 352.78 192.37 353.26 192.48 353.51 192.54 C 353.46 196.13 353.72 199.72 353.47 203.31 C 345.82 203.07 338.16 203.34 330.51 203.12 C 330.46 204.84 330.42 206.56 330.36 208.29 C 336.81 208.33 343.25 208.19 349.70 208.36 C 349.53 211.63 349.47 214.90 349.45 218.17 C 343.12 218.14 336.79 218.21 330.46 218.11 C 330.36 222.32 330.39 226.53 330.43 230.74 C 325.81 230.78 321.20 230.75 316.58 230.78 C 316.58 218.01 316.63 205.24 316.55 192.46 Z" />
<path fill="#ffffff" opacity="1.00" d=" M 409.55 192.49 C 421.52 192.27 433.50 192.53 445.48 192.33 C 446.89 192.37 448.30 192.38 449.72 192.40 C 450.01 196.00 450.24 199.61 450.23 203.22 C 445.72 203.22 441.20 203.26 436.69 203.14 C 436.53 212.36 436.64 221.57 436.64 230.79 C 431.96 230.78 427.29 230.79 422.63 230.75 C 422.81 221.58 422.65 212.39 422.71 203.22 C 418.26 203.23 413.81 203.22 409.36 203.24 C 409.44 199.65 409.51 196.07 409.55 192.49 Z" />
<path fill="#ffffff" opacity="1.00" d=" M 455.65 192.58 C 465.41 192.37 475.23 192.07 484.98 192.78 C 489.71 193.70 495.56 196.41 495.75 201.95 C 496.40 206.03 493.37 209.32 489.97 211.00 C 493.69 212.02 497.57 214.77 497.60 219.01 C 498.04 222.80 495.70 226.00 492.94 228.30 C 489.61 229.76 486.04 230.64 482.39 230.69 C 473.54 230.94 464.69 230.69 455.84 230.82 C 455.54 218.08 455.91 205.32 455.65 192.58 M 468.75 202.40 C 468.82 204.12 468.83 205.84 468.80 207.56 C 472.73 207.71 476.70 207.93 480.61 207.45 C 483.16 207.23 483.51 202.95 480.97 202.54 C 476.94 201.94 472.81 202.28 468.75 202.40 M 468.83 221.28 C 473.06 221.41 477.33 221.57 481.55 221.22 C 484.98 220.95 484.53 215.58 481.11 215.75 C 477.08 215.83 472.81 215.18 468.93 216.08 C 468.75 217.80 468.84 219.54 468.83 221.28 Z" />
<path fill="#ffffff" opacity="1.00" d=" M 558.50 192.49 C 563.32 192.07 568.23 192.92 573.01 191.93 C 571.93 200.98 572.73 210.20 572.56 219.32 L 572.69 220.19 C 579.63 220.19 586.58 220.29 593.52 220.09 C 593.73 223.69 593.60 227.30 593.31 230.89 C 581.72 230.83 570.11 230.56 558.53 231.02 C 558.57 218.18 558.63 205.33 558.50 192.49 Z" />
<path fill="#ffffff" opacity="1.00" d=" M 599.48 192.53 C 602.51 192.36 605.55 192.34 608.58 192.33 C 610.23 192.35 611.89 192.38 613.55 192.41 C 613.54 201.68 613.47 210.94 613.58 220.21 C 620.65 220.18 627.72 220.22 634.79 220.17 C 634.68 223.70 634.64 227.23 634.58 230.77 C 622.89 231.00 611.19 230.49 599.52 231.02 C 599.59 218.19 599.67 205.36 599.48 192.53 Z" />
</g>
<g id="#faf9f8ff">
<path fill="#faf9f8" opacity="1.00" d=" M 520.52 192.08 C 524.58 192.04 528.65 192.04 532.71 192.04 C 537.60 205.13 543.77 217.71 549.04 230.66 C 544.91 230.42 540.77 230.47 536.65 230.56 C 536.07 229.07 535.49 227.59 534.92 226.10 C 529.81 226.12 524.70 225.71 519.60 226.12 C 517.35 226.17 517.39 229.16 516.44 230.66 C 512.27 230.45 508.09 230.42 503.93 230.65 C 509.38 217.76 515.06 204.97 520.52 192.08 M 526.07 204.47 C 524.84 209.04 522.95 213.44 520.96 217.73 C 524.72 217.78 528.48 217.76 532.24 217.78 C 529.28 213.79 529.17 208.12 526.07 204.47 Z" />
</g>
<g id="#2e7b32ff">
<path fill="#2e7b32" opacity="1.00" d=" M 573.01 191.93 C 573.88 192.77 574.30 193.78 574.24 194.99 C 574.21 202.52 574.06 210.06 574.22 217.59 C 575.46 217.90 576.71 218.22 577.97 218.55 C 576.17 218.81 574.35 219.06 572.56 219.32 C 572.73 210.20 571.93 200.98 573.01 191.93 Z" />
</g>
<g id="#29471fff">
<path fill="#29471f" opacity="1.00" d=" M 377.51 202.76 C 380.84 202.01 384.51 201.91 387.78 202.97 C 392.56 205.20 392.02 211.24 391.45 215.58 C 390.80 219.12 387.25 220.96 383.94 221.20 C 379.91 221.62 374.37 220.62 373.33 215.98 C 371.99 211.46 372.30 204.60 377.51 202.76 Z" />
</g>
<g id="#31622fff">
<path fill="#31622f" opacity="1.00" d=" M 468.75 202.40 C 472.81 202.28 476.94 201.94 480.97 202.54 C 483.51 202.95 483.16 207.23 480.61 207.45 C 476.70 207.93 472.73 207.71 468.80 207.56 C 468.83 205.84 468.82 204.12 468.75 202.40 Z" />
</g>
<g id="#9ea19eff">
<path fill="#9ea19e" opacity="1.00" d=" M 51.02 208.31 C 55.64 207.92 59.10 204.57 63.02 202.48 C 67.39 202.67 71.73 203.24 76.11 203.17 C 72.75 205.16 69.60 207.49 66.01 209.08 C 63.01 210.30 61.71 214.21 62.80 217.15 C 64.08 222.29 69.00 224.99 72.70 228.25 C 76.36 231.59 81.40 232.45 85.93 234.03 C 89.24 235.21 92.71 235.89 96.23 235.96 C 91.39 236.61 86.50 236.72 81.63 236.90 C 77.41 236.81 73.18 236.77 68.95 236.85 C 68.53 235.76 67.81 234.84 66.94 234.09 C 59.18 226.72 52.14 218.40 47.11 208.92 C 48.42 208.75 49.72 208.53 51.02 208.31 Z" />
</g>
<g id="#aeafadff">
<path fill="#aeafad" opacity="1.00" d=" M 76.11 203.17 C 80.56 203.26 85.00 202.84 89.45 202.79 C 85.21 204.31 81.68 207.29 77.37 208.65 C 73.62 209.79 70.02 214.14 71.96 218.11 C 74.42 223.77 80.33 226.60 85.42 229.45 C 92.38 232.46 100.11 232.68 107.38 234.61 C 103.69 235.29 99.96 235.66 96.23 235.96 C 92.71 235.89 89.24 235.21 85.93 234.03 C 81.40 232.45 76.36 231.59 72.70 228.25 C 69.00 224.99 64.08 222.29 62.80 217.15 C 61.71 214.21 63.01 210.30 66.01 209.08 C 69.60 207.49 72.75 205.16 76.11 203.17 Z" />
</g>
<g id="#4a584a76">
<path fill="#4a584a" opacity="0.46" d=" M 260.42 204.74 C 260.46 204.65 260.55 204.46 260.60 204.37 C 260.55 204.46 260.46 204.65 260.42 204.74 Z" />
</g>
<g id="#357438ff">
<path fill="#357438" opacity="1.00" d=" M 526.07 204.47 C 529.17 208.12 529.28 213.79 532.24 217.78 C 528.48 217.76 524.72 217.78 520.96 217.73 C 522.95 213.44 524.84 209.04 526.07 204.47 Z" />
</g>
<g id="#659f3fff">
<path fill="#659f3f" opacity="1.00" d=" M 195.35 209.14 C 197.62 210.03 199.76 208.62 201.86 207.92 C 200.91 209.36 199.99 210.82 199.06 212.27 C 199.69 212.46 200.33 212.66 200.97 212.86 C 199.04 215.58 197.03 218.31 194.31 220.30 C 190.44 223.09 187.92 227.39 183.71 229.74 C 180.67 230.97 180.45 235.98 176.63 235.47 C 176.31 236.92 176.23 239.16 174.31 239.31 C 170.52 239.91 167.84 242.91 164.48 244.47 C 161.74 245.36 158.73 245.63 156.38 247.45 C 153.26 249.81 149.46 250.75 145.69 251.45 C 144.86 252.27 144.53 254.30 143.01 253.90 C 139.42 253.13 136.32 255.75 132.75 255.29 C 128.93 254.95 125.42 256.58 121.87 257.71 C 120.85 257.31 119.82 256.93 118.79 256.55 C 116.38 257.17 113.94 257.68 111.54 258.32 C 109.83 256.43 107.69 255.07 105.22 254.45 C 105.31 253.39 105.39 252.33 105.49 251.28 C 104.66 251.05 103.84 250.83 103.01 250.62 C 102.04 249.68 101.06 248.74 100.08 247.81 C 100.05 247.07 100.01 245.60 99.99 244.86 C 104.65 245.94 109.31 247.10 114.07 247.65 C 130.57 249.60 147.79 244.21 160.25 233.24 C 164.35 229.12 169.02 225.08 170.88 219.38 C 179.20 216.38 187.30 212.81 195.35 209.14 Z" />
</g>
<g id="#4954496b">
<path fill="#495449" opacity="0.42" d=" M 258.40 208.68 C 258.45 208.59 258.54 208.40 258.59 208.31 C 258.54 208.40 258.45 208.59 258.40 208.68 Z" />
</g>
<g id="#30622fff">
<path fill="#30622f" opacity="1.00" d=" M 468.83 221.28 C 468.84 219.54 468.75 217.80 468.93 216.08 C 472.81 215.18 477.08 215.83 481.11 215.75 C 484.53 215.58 484.98 220.95 481.55 221.22 C 477.33 221.57 473.06 221.41 468.83 221.28 Z" />
</g>
<g id="#4f923fff">
<path fill="#4f923f" opacity="1.00" d=" M 164.83 221.19 C 166.85 220.61 168.89 220.07 170.88 219.38 C 169.02 225.08 164.35 229.12 160.25 233.24 C 147.79 244.21 130.57 249.60 114.07 247.65 C 109.31 247.10 104.65 245.94 99.99 244.86 C 93.70 242.68 87.17 240.72 81.63 236.90 C 86.50 236.72 91.39 236.61 96.23 235.96 C 99.96 235.66 103.69 235.29 107.38 234.61 C 120.52 232.89 133.60 230.48 146.36 226.85 C 152.53 225.02 158.80 223.45 164.83 221.19 Z" />
</g>
<g id="#4d8c3dff">
<path fill="#4d8c3d" opacity="1.00" d=" M 209.40 235.65 C 212.16 234.88 214.31 233.01 216.40 231.15 C 216.85 231.70 217.76 232.81 218.21 233.37 C 217.20 236.46 216.18 239.57 214.79 242.52 C 211.61 249.13 208.20 255.74 203.07 261.08 C 204.37 260.84 205.69 260.63 206.99 260.37 C 193.47 267.78 178.48 272.42 163.20 274.42 C 160.07 274.34 156.94 274.02 153.83 273.66 C 156.23 272.95 158.64 272.16 160.75 270.79 C 166.43 267.38 172.68 264.99 178.06 261.10 C 181.49 259.41 185.59 258.39 187.53 254.72 C 188.30 254.48 189.08 254.26 189.86 254.02 C 191.46 251.18 194.97 250.25 196.28 247.19 C 197.23 245.13 200.19 245.35 201.19 243.36 C 202.71 239.80 206.08 237.41 209.40 235.65 Z" />
</g>
<g id="#699c47ff">
<path fill="#699c47" opacity="1.00" d=" M 56.86 236.19 C 60.90 236.12 64.90 237.01 68.95 236.85 C 73.18 236.77 77.41 236.81 81.63 236.90 C 87.17 240.72 93.70 242.68 99.99 244.86 C 100.01 245.60 100.05 247.07 100.08 247.81 C 101.06 248.74 102.04 249.68 103.01 250.62 C 103.84 250.83 104.66 251.05 105.49 251.28 C 105.39 252.33 105.31 253.39 105.22 254.45 C 107.69 255.07 109.83 256.43 111.54 258.32 C 109.26 259.59 107.03 258.46 105.03 257.25 C 103.14 259.26 100.59 260.34 97.98 261.07 C 94.98 262.39 92.08 260.19 89.31 259.27 C 89.24 259.65 89.10 260.40 89.02 260.78 C 77.08 254.44 65.91 246.27 56.86 236.19 Z" />
</g>
<g id="#4c674ca8">
<path fill="#4c674c" opacity="0.66" d=" M 435.09 239.81 C 471.72 239.85 508.36 239.80 545.00 239.82 C 559.67 240.02 574.38 239.41 589.04 240.10 L 589.36 240.48 L 589.33 240.83 C 567.55 241.30 545.75 240.91 523.96 241.03 C 494.20 240.99 464.43 241.14 434.67 240.98 L 435.09 239.81 Z" />
</g>
<g id="#367638ff">
<path fill="#367638" opacity="1.00" d=" M 203.07 261.08 C 208.20 255.74 211.61 249.13 214.79 242.52 C 218.12 243.20 221.35 244.36 224.27 246.14 C 224.58 246.90 224.89 247.67 225.21 248.44 C 219.50 252.93 213.40 256.95 206.99 260.37 C 205.69 260.63 204.37 260.84 203.07 261.08 Z" />
</g>
</svg>
