<?xml version="1.0" encoding="UTF-8" standalone="yes"?>
<svg xmlns="http://www.w3.org/2000/svg" xmlns:xlink="http://www.w3.org/1999/xlink" width="245.33333333333331px" height="106.66666666666666px" viewBox="0 0 184 80" version="1.1">
  <g id="surface1">
    <path style=" stroke:none;fill-rule:nonzero;fill:rgb(96.078431%,52.156863%,0%);fill-opacity:1;" d="M 183.667969 79.789062 C 175.3125 79.789062 166.804688 79.789062 158.550781 79.789062 C 158.316406 79.789062 157.898438 78.769531 157.777344 78.558594 C 154.320312 72.300781 150.867188 66.015625 147.429688 59.769531 C 143.753906 66.417969 140.179688 73.179688 136.511719 79.839844 C 128.289062 79.859375 120.132812 79.796875 111.976562 79.820312 C 112.902344 78.085938 113.886719 76.394531 114.871094 74.691406 C 121.730469 62.800781 128.488281 50.75 135.359375 38.851562 C 128.058594 26.054688 120.644531 13.359375 113.300781 0.59375 C 113.28125 0.59375 113.230469 0.515625 113.28125 0.523438 C 121.699219 0.523438 130.105469 0.523438 138.523438 0.523438 C 141.625 6.1875 144.648438 11.917969 147.703125 17.621094 C 150.875 11.96875 153.9375 6.207031 157.082031 0.523438 C 165.21875 0.523438 173.34375 0.523438 181.480469 0.523438 C 181.5 0.625 181.429688 0.734375 181.378906 0.816406 C 174.257812 13.371094 166.964844 25.964844 159.855469 38.539062 C 167.757812 52.300781 175.8125 66.054688 183.667969 79.789062 Z M 183.667969 79.789062 "/>
    <path style=" stroke:none;fill-rule:nonzero;fill:rgb(96.078431%,52.156863%,0%);fill-opacity:1;" d="M 122.683594 31.285156 C 123.328125 33.902344 123.699219 36.785156 123.699219 39.820312 C 123.699219 49.28125 120.964844 56.292969 117.167969 61.996094 C 116.527344 62.960938 115.875 63.890625 115.171875 64.777344 C 113.113281 67.394531 110.621094 69.785156 107.839844 71.769531 C 105.972656 73.097656 104.023438 74.308594 101.863281 75.324219 C 97.5625 77.351562 92.371094 78.933594 86.386719 78.933594 C 77.023438 78.933594 70.113281 76.070312 64.519531 72.140625 C 58.925781 68.203125 54.566406 62.992188 51.605469 56.421875 C 49.617188 52.019531 48.308594 46.941406 48.160156 40.753906 C 48.089844 37.691406 48.472656 34.671875 49.023438 32.050781 C 50.429688 25.441406 53.191406 20.261719 56.6875 15.796875 C 60.183594 11.34375 64.609375 7.859375 69.964844 5.230469 C 72.0625 4.203125 74.414062 3.324219 76.976562 2.691406 C 79.535156 2.054688 82.367188 1.621094 85.429688 1.621094 C 85.453125 1.621094 85.460938 1.621094 85.480469 1.621094 C 88.476562 1.480469 91.648438 1.964844 94.140625 2.519531 C 96.730469 3.09375 99.132812 3.96875 101.269531 4.9375 C 107.898438 7.941406 112.839844 12.433594 116.816406 18.046875 C 119.4375 21.722656 121.40625 26.136719 122.683594 31.285156 Z M 92.550781 57.542969 C 92.792969 56.574219 92.722656 55.335938 92.722656 54.054688 C 92.722656 44.292969 92.722656 34.730469 92.722656 24.9375 C 92.722656 23.6875 92.582031 22.71875 92.222656 21.8125 C 91.890625 20.988281 91.378906 20.230469 90.773438 19.617188 C 89.597656 18.417969 87.832031 17.339844 85.613281 17.511719 C 84.539062 17.59375 83.644531 17.933594 82.859375 18.429688 C 81.402344 19.355469 80.300781 20.777344 79.847656 22.660156 C 79.617188 23.617188 79.625 24.835938 79.625 26.097656 C 79.625 35.726562 79.625 45.492188 79.625 55.214844 C 79.625 55.839844 79.597656 56.441406 79.675781 56.976562 C 79.886719 58.507812 80.570312 59.738281 81.464844 60.65625 C 82.621094 61.832031 84.40625 62.820312 86.71875 62.570312 C 89.699219 62.246094 91.890625 60.261719 92.550781 57.542969 Z M 92.550781 57.542969 "/>
    <path style=" stroke:none;fill-rule:nonzero;fill:rgb(96.078431%,52.156863%,0%);fill-opacity:1;" d="M 49.183594 22.144531 C 40.285156 22.144531 31.398438 22.144531 22.496094 22.144531 C 22.386719 25.472656 22.476562 29.148438 22.449219 32.492188 C 29.660156 32.554688 36.980469 32.503906 44.242188 32.515625 C 44.242188 39.75 44.242188 46.972656 44.242188 54.207031 C 36.929688 54.226562 29.558594 54.175781 22.285156 54.226562 C 22.296875 62.832031 22.335938 71.273438 22.335938 79.878906 C 22.335938 79.910156 22.328125 79.917969 22.316406 79.929688 C 14.90625 79.929688 7.484375 79.929688 0.0703125 79.929688 C 0.03125 79.941406 0.03125 79.910156 0 79.910156 C -0.0507812 53.492188 -0.0507812 26.902344 -0.0117188 0.472656 C -0.0117188 0.441406 -0.0117188 0.402344 0.0117188 0.402344 C 15.898438 0.402344 31.789062 0.402344 47.667969 0.402344 C 47.699219 0.402344 47.707031 0.402344 47.71875 0.421875 C 48.21875 7.65625 48.703125 14.902344 49.183594 22.144531 Z M 49.183594 22.144531 "/>
  </g>
</svg>