<?xml version="1.0" encoding="UTF-8" ?>
<!DOCTYPE svg PUBLIC "-//W3C//DTD SVG 1.1//EN" "http://www.w3.org/Graphics/SVG/1.1/DTD/svg11.dtd">
<svg width="800pt" height="800pt" viewBox="0 0 800 800" version="1.1" xmlns="http://www.w3.org/2000/svg">
<g id="#ffffffff">
<path fill="#ffffff" opacity="1.00" d=" M 492.74 94.57 C 498.78 85.45 509.14 79.68 519.94 78.53 C 529.47 77.56 539.73 78.67 547.83 84.19 C 556.88 90.31 561.12 101.29 562.03 111.82 C 554.03 111.88 546.03 111.88 538.03 111.83 C 537.24 108.45 536.06 104.98 533.47 102.53 C 528.37 97.73 519.27 98.47 514.95 103.98 C 510.70 109.29 509.80 116.42 509.69 123.01 C 509.84 129.34 510.77 136.12 514.75 141.28 C 518.67 146.45 526.79 147.71 532.08 143.95 C 535.77 141.13 537.11 136.43 537.98 132.07 C 546.12 131.68 554.28 132.00 562.44 131.90 C 562.35 142.84 557.09 153.69 548.25 160.21 C 536.66 168.86 520.29 169.34 507.38 163.48 C 496.22 158.37 488.75 147.28 486.26 135.48 C 483.36 121.74 484.79 106.45 492.74 94.57 Z" />
<path fill="#ffffff" opacity="1.00" d=" M 160.12 80.16 C 180.98 80.14 201.85 80.13 222.71 80.17 C 222.69 86.75 222.68 93.34 222.71 99.93 C 210.66 99.91 198.60 100.10 186.54 99.90 C 186.47 105.46 186.53 111.02 186.49 116.59 C 196.10 116.61 205.71 116.59 215.33 116.60 C 215.33 123.24 215.32 129.89 215.33 136.54 C 205.72 136.56 196.10 136.53 186.49 136.55 C 186.53 146.15 186.49 155.74 186.52 165.34 C 177.71 165.34 168.90 165.36 160.10 165.32 C 160.17 136.94 160.13 108.55 160.12 80.16 Z" />
<path fill="#ffffff" opacity="1.00" d=" M 233.05 80.24 C 247.03 80.22 261.02 80.20 275.00 80.25 C 282.82 80.30 291.17 82.42 296.70 88.28 C 302.91 94.78 304.44 104.42 303.44 113.06 C 302.35 121.31 296.64 128.49 289.13 131.93 C 295.01 142.97 300.49 154.22 306.23 165.34 C 297.46 165.35 288.68 165.34 279.91 165.34 C 275.19 155.69 270.50 146.03 265.75 136.40 C 262.96 136.39 260.17 136.39 257.38 136.40 C 257.41 146.05 257.37 155.69 257.40 165.33 C 249.25 165.34 241.10 165.36 232.96 165.32 C 233.22 136.96 233.03 108.60 233.05 80.24 M 257.40 99.77 C 257.39 105.46 257.38 111.15 257.40 116.84 C 262.96 116.71 268.52 117.02 274.07 116.69 C 282.62 116.09 282.61 100.60 274.08 99.91 C 268.53 99.56 262.96 99.87 257.40 99.77 Z" />
<path fill="#ffffff" opacity="1.00" d=" M 338.78 80.15 C 347.66 80.31 356.55 80.19 365.43 80.21 C 375.06 108.58 384.56 136.98 394.23 165.33 C 385.46 165.34 376.70 165.36 367.94 165.32 C 366.91 161.60 365.87 157.88 364.85 154.16 C 356.14 154.03 347.42 154.15 338.71 154.09 C 337.71 157.83 336.73 161.57 335.76 165.32 C 327.13 165.35 318.50 165.35 309.87 165.32 C 319.58 136.96 328.99 108.49 338.78 80.15 M 351.82 106.10 C 349.00 116.14 346.48 126.26 343.67 136.31 C 349.21 136.32 354.76 136.32 360.31 136.31 C 357.39 126.26 354.78 116.13 351.82 106.10 Z" />
<path fill="#ffffff" opacity="1.00" d=" M 400.65 80.22 C 409.13 80.23 417.61 80.22 426.09 80.22 C 433.92 95.44 441.77 110.64 449.58 125.87 C 449.77 110.65 449.61 95.43 449.66 80.21 C 457.50 80.25 465.34 80.19 473.19 80.24 C 473.19 108.60 473.18 136.97 473.19 165.33 C 465.13 165.35 457.08 165.35 449.02 165.33 C 440.75 149.80 432.55 134.24 424.26 118.72 C 424.12 134.26 424.24 149.79 424.21 165.33 C 416.35 165.35 408.50 165.35 400.65 165.33 C 400.67 136.96 400.66 108.59 400.65 80.22 Z" />
<path fill="#ffffff" opacity="1.00" d=" M 573.34 80.16 C 595.44 80.14 617.55 80.14 639.66 80.17 C 639.64 86.74 639.62 93.32 639.67 99.90 C 626.36 100.09 613.04 99.87 599.73 100.07 C 599.71 104.30 599.71 108.54 599.72 112.77 C 610.74 112.77 621.77 112.77 632.79 112.78 C 632.81 119.38 632.77 125.98 632.82 132.58 C 621.79 132.60 610.75 132.58 599.72 132.59 C 599.72 136.89 599.72 141.18 599.72 145.48 C 613.03 145.49 626.35 145.46 639.67 145.49 C 639.63 152.11 639.62 158.72 639.67 165.34 C 617.57 165.37 595.48 165.30 573.38 165.37 C 573.30 136.97 573.39 108.56 573.34 80.16 Z" />
<path fill="#ffffff" opacity="1.00" d=" M 175.04 204.00 C 186.66 191.46 204.25 186.24 220.97 186.32 C 236.64 186.21 253.37 189.07 265.81 199.26 C 276.08 207.55 280.97 221.01 280.81 233.96 C 281.22 246.49 276.86 259.12 268.56 268.54 C 257.29 281.58 241.66 289.48 227.07 298.14 C 223.91 300.16 220.40 301.70 217.63 304.28 C 238.53 304.41 259.43 304.30 280.32 304.34 C 280.31 292.86 280.37 281.39 280.29 269.92 C 301.96 243.03 323.78 216.26 345.48 189.39 C 346.88 187.09 349.85 188.17 352.04 188.04 C 364.09 188.08 376.14 187.95 388.19 188.10 C 388.15 216.64 388.21 245.18 388.16 273.72 C 394.68 273.74 401.21 273.71 407.74 273.73 C 407.73 286.26 407.72 298.80 407.75 311.34 C 401.21 311.34 394.68 311.32 388.15 311.34 C 388.20 321.50 388.17 331.67 388.17 341.83 C 373.68 341.88 359.18 341.84 344.69 341.85 C 344.69 331.68 344.67 321.51 344.70 311.34 C 324.09 311.35 303.49 311.30 282.88 311.36 C 282.91 321.52 282.87 331.68 282.90 341.84 C 240.99 341.86 199.08 341.86 157.17 341.84 C 156.19 326.69 161.05 311.34 170.69 299.61 C 184.21 282.97 203.33 272.54 221.01 261.01 C 227.72 256.71 235.54 252.22 238.12 244.15 C 239.34 239.05 238.67 233.41 236.24 228.75 C 233.68 224.00 228.30 221.46 223.06 221.27 C 216.51 220.72 209.27 222.68 205.13 228.10 C 199.80 235.09 199.25 244.33 199.31 252.80 C 186.25 252.81 173.19 252.80 160.13 252.81 C 158.95 235.56 162.91 216.94 175.04 204.00 M 309.40 273.73 C 321.17 273.71 332.93 273.74 344.70 273.72 C 344.65 259.44 344.72 245.15 344.67 230.87 C 332.86 245.11 321.17 259.45 309.40 273.73 Z" />
<path fill="#ffffff" opacity="1.00" d=" M 633.30 338.34 C 644.74 339.97 656.10 342.75 666.75 347.31 C 676.50 351.60 686.33 358.09 690.50 368.33 C 694.16 377.19 691.87 387.26 687.23 395.30 C 679.11 409.36 666.41 420.04 653.41 429.43 C 624.91 449.36 592.80 463.46 560.19 475.16 C 514.58 491.16 467.13 502.06 419.06 507.24 C 392.78 509.93 366.22 510.84 339.90 508.27 C 322.53 506.30 304.83 503.09 289.30 494.66 C 280.97 490.05 273.08 483.04 270.72 473.47 C 268.21 463.94 271.87 454.05 277.10 446.12 C 284.47 435.02 294.69 426.20 305.25 418.24 C 306.81 417.12 308.31 415.67 310.35 415.55 C 309.86 416.61 309.18 417.54 308.33 418.33 C 299.55 426.09 290.91 435.27 288.10 446.98 C 286.02 455.11 289.81 463.71 296.14 468.87 C 305.98 476.99 318.64 480.51 330.92 483.00 C 356.66 487.80 383.06 487.31 409.06 485.44 C 454.94 481.58 500.26 471.77 543.89 457.15 C 575.30 446.43 606.26 433.42 633.91 414.85 C 646.26 406.20 658.67 396.49 666.08 383.06 C 670.37 375.47 671.41 365.29 665.98 357.99 C 659.18 348.60 647.79 344.11 637.03 341.01 C 635.66 340.30 632.83 340.73 633.30 338.34 Z" />
<path fill="#ffffff" opacity="1.00" d=" M 531.08 341.98 C 545.72 341.85 560.72 342.58 574.67 347.47 C 580.95 349.76 587.44 353.32 590.52 359.55 C 593.21 365.26 591.25 371.95 587.87 376.92 C 581.87 385.86 573.01 392.39 564.04 398.11 C 548.70 407.68 531.93 414.71 514.89 420.61 C 490.65 428.81 465.53 434.50 440.07 437.21 C 420.29 439.10 400.02 439.75 380.55 435.13 C 372.40 432.93 363.47 429.78 358.77 422.26 C 355.44 416.90 356.86 410.10 360.02 405.02 C 365.39 396.23 373.76 389.84 382.18 384.18 C 399.78 372.73 419.35 364.66 439.24 358.17 C 468.93 348.73 499.87 342.68 531.08 341.98 M 516.31 348.40 C 488.94 350.09 461.88 355.96 436.00 364.97 C 421.85 370.01 407.92 376.01 395.27 384.20 C 389.38 388.18 383.49 392.56 379.55 398.59 C 377.41 401.84 375.96 406.15 377.82 409.86 C 380.25 414.94 385.90 417.21 390.92 418.89 C 402.27 422.20 414.24 422.45 425.98 422.19 C 449.56 421.19 472.93 416.88 495.57 410.28 C 513.84 404.84 531.89 398.07 548.25 388.17 C 555.20 383.75 562.31 378.95 566.92 371.96 C 569.30 368.46 570.62 363.56 568.31 359.69 C 565.50 355.19 560.32 353.01 555.46 351.48 C 542.78 347.70 529.39 348.05 516.31 348.40 Z" />
</g>
<g id="#00a7e3ff">
<path fill="#00a7e3" opacity="1.00" d=" M 80.38 0.00 L 719.46 0.00 C 719.44 153.31 719.49 306.62 719.43 459.92 C 682.48 486.05 640.88 504.83 598.53 520.37 C 557.34 535.25 514.96 546.82 471.96 555.11 C 428.83 563.33 384.99 568.67 341.04 568.49 C 316.46 568.50 291.76 566.63 267.76 561.11 C 252.69 557.44 237.56 552.34 225.01 542.97 C 217.10 537.13 210.64 528.66 209.22 518.73 C 207.42 506.75 212.53 494.93 219.35 485.35 C 220.30 483.76 222.13 482.25 221.35 480.18 C 213.62 487.24 206.95 495.50 201.49 504.43 C 195.26 514.93 190.93 527.49 193.48 539.78 C 195.57 550.68 202.74 559.99 211.49 566.53 C 224.57 576.42 240.30 582.03 256.03 586.09 C 280.54 592.20 305.86 594.47 331.07 594.88 C 341.39 595.64 351.71 594.65 362.03 594.64 C 408.79 592.78 455.27 585.97 500.93 575.85 C 543.76 566.27 585.97 553.76 626.81 537.68 C 658.89 524.96 690.27 510.15 719.47 491.69 C 719.46 517.60 719.43 543.51 719.49 569.42 C 655.00 600.58 586.45 622.78 516.74 638.82 C 512.25 640.04 507.56 639.54 502.97 639.61 C 398.66 639.62 294.34 639.60 190.03 639.62 C 186.54 639.44 182.72 640.34 179.55 638.47 C 165.62 631.29 152.05 621.27 145.51 606.56 C 140.18 594.92 140.88 581.33 145.33 569.54 C 146.73 565.30 149.28 561.52 150.33 557.16 C 149.14 558.01 147.93 558.91 147.09 560.14 C 137.99 572.83 130.44 587.26 128.87 603.01 C 127.43 615.95 131.33 629.16 138.96 639.63 C 119.43 639.58 99.90 639.63 80.37 639.61 C 80.39 426.41 80.37 213.20 80.38 0.00 M 492.74 94.57 C 484.79 106.45 483.36 121.74 486.26 135.48 C 488.75 147.28 496.22 158.37 507.38 163.48 C 520.29 169.34 536.66 168.86 548.25 160.21 C 557.09 153.69 562.35 142.84 562.44 131.90 C 554.28 132.00 546.12 131.68 537.98 132.07 C 537.11 136.43 535.77 141.13 532.08 143.95 C 526.79 147.71 518.67 146.45 514.75 141.28 C 510.77 136.12 509.84 129.34 509.69 123.01 C 509.80 116.42 510.70 109.29 514.95 103.98 C 519.27 98.47 528.37 97.73 533.47 102.53 C 536.06 104.98 537.24 108.45 538.03 111.83 C 546.03 111.88 554.03 111.88 562.03 111.82 C 561.12 101.29 556.88 90.31 547.83 84.19 C 539.73 78.67 529.47 77.56 519.94 78.53 C 509.14 79.68 498.78 85.45 492.74 94.57 M 160.12 80.16 C 160.13 108.55 160.17 136.94 160.10 165.32 C 168.90 165.36 177.71 165.34 186.52 165.34 C 186.49 155.74 186.53 146.15 186.49 136.55 C 196.10 136.53 205.72 136.56 215.33 136.54 C 215.32 129.89 215.33 123.24 215.33 116.60 C 205.71 116.59 196.10 116.61 186.49 116.59 C 186.53 111.02 186.47 105.46 186.54 99.90 C 198.60 100.10 210.66 99.91 222.71 99.93 C 222.68 93.34 222.69 86.75 222.71 80.17 C 201.85 80.13 180.98 80.14 160.12 80.16 M 233.05 80.24 C 233.03 108.60 233.22 136.96 232.96 165.32 C 241.10 165.36 249.25 165.34 257.40 165.33 C 257.37 155.69 257.41 146.05 257.38 136.40 C 260.17 136.39 262.96 136.39 265.75 136.40 C 270.50 146.03 275.19 155.69 279.91 165.34 C 288.68 165.34 297.46 165.35 306.23 165.34 C 300.49 154.22 295.01 142.97 289.13 131.93 C 296.64 128.49 302.35 121.31 303.44 113.06 C 304.44 104.42 302.91 94.78 296.70 88.28 C 291.17 82.42 282.82 80.30 275.00 80.25 C 261.02 80.20 247.03 80.22 233.05 80.24 M 338.78 80.15 C 328.99 108.49 319.58 136.96 309.87 165.32 C 318.50 165.35 327.13 165.35 335.76 165.32 C 336.73 161.57 337.71 157.83 338.71 154.09 C 347.42 154.15 356.14 154.03 364.85 154.16 C 365.87 157.88 366.91 161.60 367.94 165.32 C 376.70 165.36 385.46 165.34 394.23 165.33 C 384.56 136.98 375.06 108.58 365.43 80.21 C 356.55 80.19 347.66 80.31 338.78 80.15 M 400.65 80.22 C 400.66 108.59 400.67 136.96 400.65 165.33 C 408.50 165.35 416.35 165.35 424.21 165.33 C 424.24 149.79 424.12 134.26 424.26 118.72 C 432.55 134.24 440.75 149.80 449.02 165.33 C 457.08 165.35 465.13 165.35 473.19 165.33 C 473.18 136.97 473.19 108.60 473.19 80.24 C 465.34 80.19 457.50 80.25 449.66 80.21 C 449.61 95.43 449.77 110.65 449.58 125.87 C 441.77 110.64 433.92 95.44 426.09 80.22 C 417.61 80.22 409.13 80.23 400.65 80.22 M 573.34 80.16 C 573.39 108.56 573.30 136.97 573.38 165.37 C 595.48 165.30 617.57 165.37 639.67 165.34 C 639.62 158.72 639.63 152.11 639.67 145.49 C 626.35 145.46 613.03 145.49 599.72 145.48 C 599.72 141.18 599.72 136.89 599.72 132.59 C 610.75 132.58 621.79 132.60 632.82 132.58 C 632.77 125.98 632.81 119.38 632.79 112.78 C 621.77 112.77 610.74 112.77 599.72 112.77 C 599.71 108.54 599.71 104.30 599.73 100.07 C 613.04 99.87 626.36 100.09 639.67 99.90 C 639.62 93.32 639.64 86.74 639.66 80.17 C 617.55 80.14 595.44 80.14 573.34 80.16 M 175.04 204.00 C 162.91 216.94 158.95 235.56 160.13 252.81 C 173.19 252.80 186.25 252.81 199.31 252.80 C 199.25 244.33 199.80 235.09 205.13 228.10 C 209.27 222.68 216.51 220.72 223.06 221.27 C 228.30 221.46 233.68 224.00 236.24 228.75 C 238.67 233.41 239.34 239.05 238.12 244.15 C 235.54 252.22 227.72 256.71 221.01 261.01 C 203.33 272.54 184.21 282.97 170.69 299.61 C 161.05 311.34 156.19 326.69 157.17 341.84 C 199.08 341.86 240.99 341.86 282.90 341.84 C 282.87 331.68 282.91 321.52 282.88 311.36 C 303.49 311.30 324.09 311.35 344.70 311.34 C 344.67 321.51 344.69 331.68 344.69 341.85 C 359.18 341.84 373.68 341.88 388.17 341.83 C 388.17 331.67 388.20 321.50 388.15 311.34 C 394.68 311.32 401.21 311.34 407.75 311.34 C 407.72 298.80 407.73 286.26 407.74 273.73 C 401.21 273.71 394.68 273.74 388.16 273.72 C 388.21 245.18 388.15 216.64 388.19 188.10 C 376.14 187.95 364.09 188.08 352.04 188.04 C 349.85 188.17 346.88 187.09 345.48 189.39 C 323.78 216.26 301.96 243.03 280.29 269.92 C 280.37 281.39 280.31 292.86 280.32 304.34 C 259.43 304.30 238.53 304.41 217.63 304.28 C 220.40 301.70 223.91 300.16 227.07 298.14 C 241.66 289.48 257.29 281.58 268.56 268.54 C 276.86 259.12 281.22 246.49 280.81 233.96 C 280.97 221.01 276.08 207.55 265.81 199.26 C 253.37 189.07 236.64 186.21 220.97 186.32 C 204.25 186.24 186.66 191.46 175.04 204.00 M 633.30 338.34 C 632.83 340.73 635.66 340.30 637.03 341.01 C 647.79 344.11 659.18 348.60 665.98 357.99 C 671.41 365.29 670.37 375.47 666.08 383.06 C 658.67 396.49 646.26 406.20 633.91 414.85 C 606.26 433.42 575.30 446.43 543.89 457.15 C 500.26 471.77 454.94 481.58 409.06 485.44 C 383.06 487.31 356.66 487.80 330.92 483.00 C 318.64 480.51 305.98 476.99 296.14 468.87 C 289.81 463.71 286.02 455.11 288.10 446.98 C 290.91 435.27 299.55 426.09 308.33 418.33 C 309.18 417.54 309.86 416.61 310.35 415.55 C 308.31 415.67 306.81 417.12 305.25 418.24 C 294.69 426.20 284.47 435.02 277.10 446.12 C 271.87 454.05 268.21 463.94 270.72 473.47 C 273.08 483.04 280.97 490.05 289.30 494.66 C 304.83 503.09 322.53 506.30 339.90 508.27 C 366.22 510.84 392.78 509.93 419.06 507.24 C 467.13 502.06 514.58 491.16 560.19 475.16 C 592.80 463.46 624.91 449.36 653.41 429.43 C 666.41 420.04 679.11 409.36 687.23 395.30 C 691.87 387.26 694.16 377.19 690.50 368.33 C 686.33 358.09 676.50 351.60 666.75 347.31 C 656.10 342.75 644.74 339.97 633.30 338.34 M 531.08 341.98 C 499.87 342.68 468.93 348.73 439.24 358.17 C 419.35 364.66 399.78 372.73 382.18 384.18 C 373.76 389.84 365.39 396.23 360.02 405.02 C 356.86 410.10 355.44 416.90 358.77 422.26 C 363.47 429.78 372.40 432.93 380.55 435.13 C 400.02 439.75 420.29 439.10 440.07 437.21 C 465.53 434.50 490.65 428.81 514.89 420.61 C 531.93 414.71 548.70 407.68 564.04 398.11 C 573.01 392.39 581.87 385.86 587.87 376.92 C 591.25 371.95 593.21 365.26 590.52 359.55 C 587.44 353.32 580.95 349.76 574.67 347.47 C 560.72 342.58 545.72 341.85 531.08 341.98 Z" />
<path fill="#00a7e3" opacity="1.00" d=" M 257.40 99.77 C 262.96 99.87 268.53 99.56 274.08 99.91 C 282.61 100.60 282.62 116.09 274.07 116.69 C 268.52 117.02 262.96 116.71 257.40 116.84 C 257.38 111.15 257.39 105.46 257.40 99.77 Z" />
<path fill="#00a7e3" opacity="1.00" d=" M 351.82 106.10 C 354.78 116.13 357.39 126.26 360.31 136.31 C 354.76 136.32 349.21 136.32 343.67 136.31 C 346.48 126.26 349.00 116.14 351.82 106.10 Z" />
<path fill="#00a7e3" opacity="1.00" d=" M 309.40 273.73 C 321.17 259.45 332.86 245.11 344.67 230.87 C 344.72 245.15 344.65 259.44 344.70 273.72 C 332.93 273.74 321.17 273.71 309.40 273.73 Z" />
<path fill="#00a7e3" opacity="1.00" d=" M 516.31 348.40 C 529.39 348.05 542.78 347.70 555.46 351.48 C 560.32 353.01 565.50 355.19 568.31 359.69 C 570.62 363.56 569.30 368.46 566.92 371.96 C 562.31 378.95 555.20 383.75 548.25 388.17 C 531.89 398.07 513.84 404.84 495.57 410.28 C 472.93 416.88 449.56 421.19 425.98 422.19 C 414.24 422.45 402.27 422.20 390.92 418.89 C 385.90 417.21 380.25 414.94 377.82 409.86 C 375.96 406.15 377.41 401.84 379.55 398.59 C 383.49 392.56 389.38 388.18 395.27 384.20 C 407.92 376.01 421.85 370.01 436.00 364.97 C 461.88 355.96 488.94 350.09 516.31 348.40 Z" />
<path fill="#00a7e3" opacity="1.00" d=" M 627.99 639.56 C 658.87 630.39 689.25 619.54 719.47 608.40 C 719.45 618.80 719.45 629.20 719.47 639.60 C 688.98 639.59 658.48 639.67 627.99 639.56 Z" />
<path fill="#00a7e3" opacity="1.00" d=" M 93.71 674.84 C 96.12 669.55 101.18 665.55 106.88 664.41 C 114.94 662.79 123.22 663.28 131.37 663.81 C 131.38 669.79 131.37 675.77 131.38 681.75 C 127.39 680.95 122.92 679.90 119.17 682.05 C 116.94 683.47 117.38 686.42 117.05 688.68 C 121.58 688.74 126.12 688.71 130.67 688.72 C 130.65 694.06 130.64 699.40 130.68 704.75 C 126.35 704.78 122.02 704.76 117.69 704.77 C 117.69 721.88 117.72 738.99 117.67 756.10 C 109.09 756.14 100.51 756.10 91.92 756.12 C 91.84 739.00 91.89 721.89 91.90 704.77 C 88.39 704.77 84.88 704.77 81.37 704.74 C 81.41 699.40 81.40 694.06 81.39 688.73 C 84.88 688.71 88.37 688.71 91.86 688.72 C 91.89 684.06 91.91 679.22 93.71 674.84 Z" />
<path fill="#00a7e3" opacity="1.00" d=" M 518.44 663.34 C 527.06 663.28 535.69 663.30 544.32 663.33 C 544.32 669.31 544.31 675.30 544.32 681.29 C 535.69 681.31 527.07 681.31 518.44 681.29 C 518.45 675.30 518.45 669.32 518.44 663.34 Z" />
<path fill="#00a7e3" opacity="1.00" d=" M 172.05 689.03 C 177.38 686.18 183.69 686.56 189.44 687.73 C 189.45 695.39 189.44 703.05 189.44 710.72 C 183.56 708.83 176.66 708.02 170.99 710.97 C 165.33 714.09 164.04 721.11 163.77 727.01 C 163.59 736.70 163.79 746.40 163.68 756.11 C 155.18 756.15 146.67 756.06 138.17 756.16 C 137.53 733.71 138.07 711.21 137.90 688.74 C 146.12 688.64 154.34 688.84 162.56 688.62 C 162.74 692.28 162.68 695.94 162.63 699.60 C 164.99 695.50 167.73 691.29 172.05 689.03 Z" />
<path fill="#00a7e3" opacity="1.00" d=" M 200.32 695.27 C 206.66 688.68 216.29 687.40 224.98 686.99 C 233.89 686.69 243.32 686.64 251.55 690.53 C 256.92 692.92 260.82 698.24 261.18 704.16 C 261.96 714.77 261.45 725.43 261.59 736.07 C 261.72 742.81 260.88 750.13 264.61 756.15 C 256.02 756.01 247.43 756.26 238.84 756.04 C 237.06 754.62 237.75 751.83 237.32 749.82 C 232.42 755.78 224.42 757.75 217.02 757.89 C 210.07 758.12 202.43 756.84 197.33 751.71 C 191.88 746.50 190.59 738.10 192.59 731.06 C 194.16 725.73 198.56 721.65 203.58 719.54 C 211.50 716.25 220.16 715.75 228.54 714.43 C 231.21 713.83 234.34 713.42 236.17 711.16 C 237.52 708.42 236.83 704.38 233.73 703.19 C 228.34 700.47 219.27 701.92 218.57 709.07 C 210.72 709.12 202.87 709.09 195.02 709.09 C 194.95 704.02 196.57 698.82 200.32 695.27 M 223.28 730.24 C 221.11 730.98 218.57 732.29 218.26 734.84 C 217.21 738.53 220.38 741.98 223.87 742.58 C 228.04 743.42 232.93 741.95 235.21 738.17 C 237.39 734.52 236.64 730.09 236.79 726.05 C 232.44 727.91 227.75 728.73 223.28 730.24 Z" />
<path fill="#00a7e3" opacity="1.00" d=" M 300.15 697.31 C 308.31 685.42 326.82 683.43 337.96 692.11 C 342.98 696.14 345.43 702.66 345.47 708.98 C 345.49 724.69 345.50 740.40 345.46 756.11 C 336.86 756.12 328.25 756.12 319.64 756.11 C 319.50 742.73 319.83 729.34 319.47 715.97 C 319.46 711.85 316.55 707.40 312.03 707.61 C 306.06 706.78 301.18 712.22 301.24 717.93 C 300.97 730.37 301.28 742.84 301.10 755.29 C 300.89 755.48 300.47 755.86 300.26 756.06 C 291.95 756.18 283.63 756.14 275.32 756.05 C 275.34 733.60 275.27 711.15 275.35 688.70 C 283.64 688.75 291.93 688.68 300.22 688.73 C 300.21 691.59 300.20 694.45 300.15 697.31 Z" />
<path fill="#00a7e3" opacity="1.00" d=" M 367.47 696.39 C 378.86 685.73 396.72 684.39 410.70 690.28 C 420.34 694.26 426.78 704.01 427.51 714.31 C 419.36 714.32 411.21 714.36 403.07 714.29 C 402.56 712.44 402.34 710.38 401.01 708.90 C 396.86 703.95 387.71 704.77 384.63 710.52 C 382.05 715.23 382.40 720.79 382.54 725.97 C 382.70 730.61 384.21 736.13 388.89 738.11 C 392.63 739.36 397.41 739.30 400.27 736.22 C 402.25 734.38 403.12 731.75 403.71 729.19 C 411.91 729.15 420.11 729.14 428.32 729.20 C 427.19 735.71 424.74 742.18 420.09 747.00 C 413.52 753.99 403.87 757.26 394.46 757.60 C 393.10 759.78 391.72 761.95 390.28 764.08 C 395.19 763.01 400.69 763.16 405.01 766.00 C 408.55 768.35 410.11 773.07 408.80 777.10 C 407.60 782.04 402.50 784.76 397.85 785.61 C 389.81 787.26 381.61 785.26 374.09 782.43 C 375.04 780.42 375.98 778.41 376.90 776.40 C 381.82 777.79 387.14 780.37 392.23 778.18 C 395.51 777.12 395.62 772.00 392.57 770.59 C 389.90 768.83 386.74 770.04 383.98 770.87 C 382.89 769.87 381.81 768.86 380.73 767.87 C 382.93 764.24 385.13 760.61 387.37 757.01 C 377.84 755.77 368.74 750.80 363.04 743.00 C 352.95 729.20 354.77 707.97 367.47 696.39 Z" />
<path fill="#00a7e3" opacity="1.00" d=" M 450.88 690.06 C 461.37 686.17 472.94 686.42 483.93 687.55 C 492.21 688.47 501.81 692.80 503.48 701.85 C 505.34 717.18 503.58 732.68 504.60 748.06 C 504.79 750.94 505.95 753.62 507.27 756.15 C 498.74 756.01 490.20 756.25 481.68 756.04 C 479.51 755.00 480.70 751.76 480.11 749.91 C 474.12 756.67 464.55 758.31 455.94 757.85 C 449.33 757.60 442.30 755.23 438.24 749.74 C 434.44 744.81 433.73 738.12 434.96 732.17 C 436.21 726.54 440.64 722.03 445.81 719.75 C 454.24 716.07 463.57 715.78 472.50 714.18 C 475.04 713.49 478.42 712.96 479.35 710.07 C 479.86 707.54 479.26 704.36 476.64 703.28 C 471.27 700.62 461.91 701.72 461.33 709.07 C 453.38 709.12 445.44 709.08 437.49 709.09 C 437.37 700.64 442.99 692.89 450.88 690.06 M 464.03 731.06 C 460.60 732.41 459.59 737.24 462.05 739.93 C 466.50 745.00 476.02 743.08 478.53 736.91 C 479.96 733.46 479.31 729.63 479.45 726.01 C 474.52 728.34 468.96 728.78 464.03 731.06 Z" />
<path fill="#00a7e3" opacity="1.00" d=" M 562.58 694.61 C 569.79 688.32 579.78 687.03 588.99 686.82 C 598.35 687.14 608.74 688.22 615.80 695.07 C 619.47 698.40 621.03 703.30 621.39 708.13 C 613.58 708.13 605.78 708.16 597.98 708.11 C 596.94 701.03 587.12 698.93 582.25 703.27 C 580.23 705.85 582.05 709.34 585.06 709.97 C 595.31 712.86 606.75 712.94 615.82 719.18 C 625.65 726.00 625.32 742.02 616.66 749.67 C 609.55 756.25 599.33 757.65 590.02 757.89 C 579.87 758.05 568.70 756.18 561.24 748.70 C 557.21 744.87 555.05 739.40 555.09 733.87 C 563.20 733.87 571.32 733.80 579.44 733.90 C 580.19 737.32 582.44 740.83 586.12 741.51 C 589.85 742.10 594.40 742.15 597.28 739.31 C 599.62 736.99 598.02 732.78 594.95 732.09 C 584.54 728.78 572.73 729.01 563.53 722.41 C 554.57 716.19 554.39 701.53 562.58 694.61 Z" />
<path fill="#00a7e3" opacity="1.00" d=" M 518.44 688.73 C 527.07 688.70 535.69 688.71 544.32 688.73 C 544.31 711.19 544.34 733.65 544.30 756.11 C 535.69 756.12 527.08 756.11 518.47 756.11 C 518.41 733.65 518.47 711.19 518.44 688.73 Z" />
</g>
</svg>
