<?xml version="1.0" encoding="UTF-8" standalone="yes"?>
<svg xmlns="http://www.w3.org/2000/svg" xmlns:xlink="http://www.w3.org/1999/xlink" width="106.66666666666666px" height="106.66666666666666px" viewBox="0 0 80 80" version="1.1">
  <g id="surface1">
    <path style=" stroke:none;fill-rule:nonzero;fill:rgb(100%,100%,100%);fill-opacity:1;" d="M 49.273438 9.457031 C 49.878906 8.546875 50.914062 7.96875 51.992188 7.851562 C 52.945312 7.757812 53.972656 7.867188 54.78125 8.417969 C 55.6875 9.03125 56.113281 10.128906 56.203125 11.183594 C 55.402344 11.1875 54.601562 11.1875 53.804688 11.183594 C 53.722656 10.84375 53.605469 10.496094 53.347656 10.253906 C 52.835938 9.773438 51.925781 9.847656 51.496094 10.398438 C 51.070312 10.929688 50.980469 11.640625 50.96875 12.300781 C 50.984375 12.933594 51.078125 13.613281 51.476562 14.128906 C 51.867188 14.644531 52.679688 14.769531 53.207031 14.394531 C 53.578125 14.113281 53.710938 13.644531 53.796875 13.207031 C 54.613281 13.167969 55.429688 13.199219 56.242188 13.191406 C 56.234375 14.285156 55.710938 15.367188 54.824219 16.019531 C 53.664062 16.886719 52.027344 16.933594 50.738281 16.347656 C 49.621094 15.835938 48.875 14.726562 48.625 13.546875 C 48.335938 12.175781 48.480469 10.644531 49.273438 9.457031 Z M 49.273438 9.457031 "/>
    <path style=" stroke:none;fill-rule:nonzero;fill:rgb(100%,100%,100%);fill-opacity:1;" d="M 16.011719 8.015625 C 18.097656 8.015625 20.183594 8.011719 22.269531 8.015625 C 22.269531 8.675781 22.269531 9.335938 22.269531 9.992188 C 21.066406 9.992188 19.859375 10.011719 18.652344 9.988281 C 18.648438 10.546875 18.652344 11.101562 18.648438 11.660156 C 19.609375 11.660156 20.570312 11.660156 21.53125 11.660156 C 21.53125 12.324219 21.53125 12.988281 21.53125 13.652344 C 20.570312 13.65625 19.609375 13.652344 18.648438 13.65625 C 18.652344 14.613281 18.648438 15.574219 18.652344 16.535156 C 17.769531 16.535156 16.890625 16.535156 16.011719 16.53125 C 16.015625 13.695312 16.011719 10.855469 16.011719 8.015625 Z M 16.011719 8.015625 "/>
    <path style=" stroke:none;fill-rule:nonzero;fill:rgb(100%,100%,100%);fill-opacity:1;" d="M 23.304688 8.023438 C 24.703125 8.023438 26.101562 8.019531 27.5 8.023438 C 28.28125 8.03125 29.117188 8.242188 29.671875 8.828125 C 30.289062 9.476562 30.445312 10.441406 30.34375 11.304688 C 30.234375 12.132812 29.664062 12.847656 28.914062 13.191406 C 29.5 14.296875 30.050781 15.421875 30.621094 16.535156 C 29.746094 16.535156 28.867188 16.535156 27.992188 16.535156 C 27.519531 15.570312 27.050781 14.601562 26.574219 13.640625 C 26.296875 13.640625 26.015625 13.640625 25.738281 13.640625 C 25.742188 14.605469 25.738281 15.570312 25.738281 16.53125 C 24.925781 16.535156 24.109375 16.535156 23.296875 16.53125 C 23.320312 13.695312 23.304688 10.859375 23.304688 8.023438 M 25.738281 9.976562 C 25.738281 10.546875 25.738281 11.113281 25.738281 11.683594 C 26.296875 11.671875 26.851562 11.703125 27.40625 11.667969 C 28.261719 11.609375 28.261719 10.058594 27.40625 9.992188 C 26.851562 9.957031 26.296875 9.988281 25.738281 9.976562 Z M 25.738281 9.976562 "/>
    <path style=" stroke:none;fill-rule:nonzero;fill:rgb(100%,100%,100%);fill-opacity:1;" d="M 33.878906 8.015625 C 34.765625 8.03125 35.65625 8.019531 36.542969 8.019531 C 37.507812 10.859375 38.457031 13.699219 39.421875 16.53125 C 38.546875 16.535156 37.671875 16.535156 36.792969 16.53125 C 36.691406 16.160156 36.585938 15.789062 36.484375 15.414062 C 35.613281 15.402344 34.742188 15.414062 33.871094 15.410156 C 33.769531 15.78125 33.671875 16.15625 33.574219 16.53125 C 32.714844 16.535156 31.851562 16.535156 30.988281 16.53125 C 31.957031 13.695312 32.898438 10.847656 33.878906 8.015625 M 35.183594 10.609375 C 34.898438 11.613281 34.648438 12.625 34.367188 13.632812 C 34.921875 13.632812 35.476562 13.632812 36.03125 13.632812 C 35.738281 12.625 35.476562 11.613281 35.183594 10.609375 Z M 35.183594 10.609375 "/>
    <path style=" stroke:none;fill-rule:nonzero;fill:rgb(100%,100%,100%);fill-opacity:1;" d="M 40.066406 8.023438 C 40.914062 8.023438 41.761719 8.023438 42.609375 8.023438 C 43.390625 9.542969 44.175781 11.0625 44.957031 12.585938 C 44.976562 11.066406 44.960938 9.542969 44.964844 8.019531 C 45.75 8.023438 46.535156 8.019531 47.320312 8.023438 C 47.320312 10.859375 47.316406 13.695312 47.320312 16.53125 C 46.511719 16.535156 45.707031 16.535156 44.902344 16.53125 C 44.074219 14.980469 43.253906 13.425781 42.425781 11.871094 C 42.410156 13.425781 42.425781 14.980469 42.421875 16.53125 C 41.636719 16.535156 40.851562 16.535156 40.066406 16.53125 C 40.066406 13.695312 40.066406 10.859375 40.066406 8.023438 Z M 40.066406 8.023438 "/>
    <path style=" stroke:none;fill-rule:nonzero;fill:rgb(100%,100%,100%);fill-opacity:1;" d="M 57.335938 8.015625 C 59.542969 8.015625 61.753906 8.015625 63.964844 8.015625 C 63.964844 8.675781 63.960938 9.332031 63.96875 9.988281 C 62.636719 10.007812 61.304688 9.988281 59.972656 10.007812 C 59.972656 10.429688 59.972656 10.855469 59.972656 11.277344 C 61.074219 11.277344 62.175781 11.277344 63.277344 11.277344 C 63.28125 11.9375 63.277344 12.597656 63.28125 13.257812 C 62.179688 13.261719 61.074219 13.257812 59.972656 13.257812 C 59.972656 13.6875 59.972656 14.117188 59.972656 14.546875 C 61.304688 14.550781 62.636719 14.546875 63.96875 14.550781 C 63.964844 15.210938 63.960938 15.871094 63.96875 16.535156 C 61.757812 16.535156 59.546875 16.53125 57.339844 16.535156 C 57.328125 13.695312 57.339844 10.855469 57.335938 8.015625 Z M 57.335938 8.015625 "/>
    <path style=" stroke:none;fill-rule:nonzero;fill:rgb(100%,100%,100%);fill-opacity:1;" d="M 17.503906 20.398438 C 18.664062 19.144531 20.425781 18.625 22.097656 18.632812 C 23.664062 18.621094 25.335938 18.90625 26.582031 19.925781 C 27.609375 20.753906 28.097656 22.101562 28.082031 23.394531 C 28.121094 24.648438 27.6875 25.910156 26.855469 26.855469 C 25.730469 28.15625 24.164062 28.949219 22.707031 29.8125 C 22.390625 30.015625 22.039062 30.171875 21.761719 30.429688 C 23.851562 30.441406 25.941406 30.429688 28.03125 30.433594 C 28.03125 29.285156 28.035156 28.140625 28.027344 26.992188 C 30.195312 24.304688 32.378906 21.625 34.546875 18.9375 C 34.6875 18.710938 34.984375 18.816406 35.203125 18.804688 C 36.410156 18.808594 37.613281 18.796875 38.820312 18.808594 C 38.816406 21.664062 38.820312 24.519531 38.816406 27.371094 C 39.46875 27.375 40.121094 27.371094 40.773438 27.371094 C 40.773438 28.625 40.773438 29.878906 40.773438 31.132812 C 40.121094 31.132812 39.46875 31.132812 38.816406 31.132812 C 38.820312 32.148438 38.816406 33.167969 38.816406 34.183594 C 37.367188 34.1875 35.917969 34.183594 34.46875 34.183594 C 34.46875 33.167969 34.46875 32.152344 34.46875 31.132812 C 32.410156 31.136719 30.347656 31.128906 28.289062 31.136719 C 28.289062 32.152344 28.285156 33.167969 28.289062 34.183594 C 24.097656 34.1875 19.90625 34.1875 15.71875 34.183594 C 15.617188 32.667969 16.105469 31.132812 17.070312 29.960938 C 18.421875 28.296875 20.332031 27.253906 22.101562 26.101562 C 22.773438 25.671875 23.554688 25.222656 23.8125 24.414062 C 23.933594 23.90625 23.867188 23.339844 23.625 22.875 C 23.367188 22.398438 22.828125 22.144531 22.304688 22.128906 C 21.652344 22.070312 20.925781 22.269531 20.511719 22.808594 C 19.980469 23.507812 19.925781 24.433594 19.929688 25.28125 C 18.625 25.28125 17.320312 25.28125 16.011719 25.28125 C 15.894531 23.554688 16.289062 21.695312 17.503906 20.398438 M 30.941406 27.371094 C 32.117188 27.371094 33.292969 27.375 34.46875 27.371094 C 34.464844 25.945312 34.472656 24.515625 34.46875 23.085938 C 33.285156 24.511719 32.117188 25.945312 30.941406 27.371094 Z M 30.941406 27.371094 "/>
    <path style=" stroke:none;fill-rule:nonzero;fill:rgb(100%,100%,100%);fill-opacity:1;" d="M 63.328125 33.835938 C 64.472656 33.996094 65.609375 34.273438 66.675781 34.730469 C 67.648438 35.160156 68.632812 35.808594 69.050781 36.832031 C 69.414062 37.71875 69.1875 38.726562 68.722656 39.53125 C 67.910156 40.9375 66.640625 42.003906 65.339844 42.941406 C 62.492188 44.9375 59.28125 46.347656 56.019531 47.515625 C 51.457031 49.117188 46.714844 50.207031 41.90625 50.722656 C 39.277344 50.992188 36.621094 51.085938 33.988281 50.828125 C 32.253906 50.628906 30.484375 50.308594 28.929688 49.464844 C 28.097656 49.003906 27.308594 48.304688 27.070312 47.347656 C 26.820312 46.394531 27.1875 45.40625 27.710938 44.613281 C 28.445312 43.503906 29.46875 42.621094 30.523438 41.824219 C 30.679688 41.710938 30.832031 41.566406 31.035156 41.554688 C 30.984375 41.660156 30.917969 41.753906 30.832031 41.832031 C 29.953125 42.609375 29.089844 43.527344 28.808594 44.699219 C 28.601562 45.511719 28.980469 46.371094 29.613281 46.886719 C 30.597656 47.699219 31.863281 48.050781 33.09375 48.300781 C 35.664062 48.78125 38.304688 48.730469 40.90625 48.542969 C 45.492188 48.15625 50.027344 47.175781 54.390625 45.714844 C 57.53125 44.644531 60.625 43.34375 63.390625 41.484375 C 64.625 40.621094 65.867188 39.648438 66.609375 38.304688 C 67.035156 37.546875 67.140625 36.527344 66.597656 35.800781 C 65.917969 34.859375 64.777344 34.410156 63.703125 34.101562 C 63.566406 34.03125 63.28125 34.074219 63.328125 33.835938 Z M 63.328125 33.835938 "/>
    <path style=" stroke:none;fill-rule:nonzero;fill:rgb(100%,100%,100%);fill-opacity:1;" d="M 53.109375 34.199219 C 54.570312 34.183594 56.070312 34.257812 57.46875 34.746094 C 58.09375 34.976562 58.742188 35.332031 59.050781 35.953125 C 59.320312 36.527344 59.125 37.195312 58.785156 37.691406 C 58.1875 38.585938 57.300781 39.238281 56.402344 39.8125 C 54.871094 40.769531 53.191406 41.472656 51.488281 42.0625 C 49.066406 42.882812 46.554688 43.449219 44.007812 43.722656 C 42.027344 43.910156 40.003906 43.976562 38.054688 43.511719 C 37.238281 43.292969 36.347656 42.976562 35.878906 42.226562 C 35.542969 41.691406 35.6875 41.011719 36.003906 40.503906 C 36.539062 39.621094 37.375 38.984375 38.21875 38.417969 C 39.976562 37.273438 41.933594 36.464844 43.925781 35.816406 C 46.894531 34.871094 49.988281 34.269531 53.109375 34.199219 M 51.632812 34.839844 C 48.894531 35.007812 46.1875 35.597656 43.601562 36.496094 C 42.183594 37 40.792969 37.601562 39.527344 38.421875 C 38.9375 38.816406 38.347656 39.257812 37.953125 39.859375 C 37.742188 40.183594 37.597656 40.613281 37.78125 40.984375 C 38.023438 41.492188 38.589844 41.722656 39.09375 41.890625 C 40.226562 42.21875 41.425781 42.246094 42.597656 42.21875 C 44.957031 42.117188 47.292969 41.6875 49.558594 41.027344 C 51.382812 40.484375 53.1875 39.808594 54.824219 38.816406 C 55.519531 38.375 56.230469 37.894531 56.691406 37.195312 C 56.929688 36.847656 57.0625 36.355469 56.832031 35.96875 C 56.550781 35.519531 56.03125 35.300781 55.546875 35.148438 C 54.277344 34.769531 52.9375 34.804688 51.632812 34.839844 Z M 51.632812 34.839844 "/>
    <path style=" stroke:none;fill-rule:nonzero;fill:rgb(0%,65.490196%,89.019608%);fill-opacity:1;" d="M 8.039062 0 L 71.945312 0 C 71.945312 15.332031 71.949219 30.660156 71.941406 45.992188 C 68.246094 48.605469 64.089844 50.484375 59.851562 52.035156 C 55.734375 53.523438 51.496094 54.683594 47.195312 55.511719 C 42.882812 56.332031 38.5 56.867188 34.105469 56.847656 C 31.644531 56.851562 29.175781 56.664062 26.777344 56.109375 C 25.269531 55.742188 23.757812 55.234375 22.5 54.296875 C 21.710938 53.714844 21.0625 52.867188 20.921875 51.871094 C 20.742188 50.675781 21.253906 49.492188 21.933594 48.535156 C 22.03125 48.375 22.214844 48.226562 22.136719 48.019531 C 21.363281 48.722656 20.695312 49.550781 20.148438 50.441406 C 19.527344 51.492188 19.09375 52.75 19.347656 53.976562 C 19.558594 55.066406 20.273438 56 21.148438 56.652344 C 22.457031 57.640625 24.03125 58.203125 25.601562 58.609375 C 28.054688 59.21875 30.585938 59.445312 33.105469 59.488281 C 34.140625 59.5625 35.171875 59.464844 36.203125 59.464844 C 40.878906 59.277344 45.527344 58.597656 50.09375 57.585938 C 54.375 56.628906 58.597656 55.375 62.679688 53.769531 C 65.890625 52.496094 69.027344 51.015625 71.945312 49.167969 C 71.945312 51.761719 71.941406 54.351562 71.949219 56.941406 C 65.5 60.058594 58.644531 62.277344 51.675781 63.882812 C 51.226562 64.003906 50.757812 63.953125 50.296875 63.960938 C 39.867188 63.960938 29.433594 63.960938 19.003906 63.960938 C 18.652344 63.945312 18.273438 64.035156 17.953125 63.847656 C 16.5625 63.128906 15.203125 62.128906 14.550781 60.65625 C 14.019531 59.492188 14.089844 58.132812 14.53125 56.953125 C 14.671875 56.53125 14.929688 56.152344 15.03125 55.714844 C 14.914062 55.800781 14.792969 55.890625 14.710938 56.015625 C 13.800781 57.28125 13.042969 58.726562 12.886719 60.300781 C 12.742188 61.59375 13.132812 62.914062 13.894531 63.964844 C 11.941406 63.957031 9.988281 63.964844 8.035156 63.960938 C 8.039062 42.640625 8.035156 21.320312 8.039062 0 M 49.273438 9.457031 C 48.480469 10.644531 48.335938 12.175781 48.625 13.546875 C 48.875 14.726562 49.621094 15.835938 50.738281 16.347656 C 52.027344 16.933594 53.664062 16.886719 54.824219 16.019531 C 55.710938 15.367188 56.234375 14.285156 56.242188 13.191406 C 55.429688 13.199219 54.613281 13.167969 53.796875 13.207031 C 53.710938 13.644531 53.578125 14.113281 53.207031 14.394531 C 52.679688 14.769531 51.867188 14.644531 51.476562 14.128906 C 51.078125 13.613281 50.984375 12.933594 50.96875 12.300781 C 50.980469 11.640625 51.070312 10.929688 51.496094 10.398438 C 51.925781 9.847656 52.835938 9.773438 53.347656 10.253906 C 53.605469 10.496094 53.722656 10.84375 53.804688 11.183594 C 54.601562 11.1875 55.402344 11.1875 56.203125 11.183594 C 56.113281 10.128906 55.6875 9.03125 54.78125 8.417969 C 53.972656 7.867188 52.945312 7.757812 51.992188 7.851562 C 50.914062 7.96875 49.878906 8.546875 49.273438 9.457031 M 16.011719 8.015625 C 16.011719 10.855469 16.015625 13.695312 16.011719 16.53125 C 16.890625 16.535156 17.769531 16.535156 18.652344 16.535156 C 18.648438 15.574219 18.652344 14.613281 18.648438 13.65625 C 19.609375 13.652344 20.570312 13.65625 21.53125 13.652344 C 21.53125 12.988281 21.53125 12.324219 21.53125 11.660156 C 20.570312 11.660156 19.609375 11.660156 18.648438 11.660156 C 18.652344 11.101562 18.648438 10.546875 18.652344 9.988281 C 19.859375 10.011719 21.066406 9.992188 22.269531 9.992188 C 22.269531 9.335938 22.269531 8.675781 22.269531 8.015625 C 20.183594 8.011719 18.097656 8.015625 16.011719 8.015625 M 23.304688 8.023438 C 23.304688 10.859375 23.320312 13.695312 23.296875 16.53125 C 24.109375 16.535156 24.925781 16.535156 25.738281 16.53125 C 25.738281 15.570312 25.742188 14.605469 25.738281 13.640625 C 26.015625 13.640625 26.296875 13.640625 26.574219 13.640625 C 27.050781 14.601562 27.519531 15.570312 27.992188 16.535156 C 28.867188 16.535156 29.746094 16.535156 30.621094 16.535156 C 30.050781 15.421875 29.5 14.296875 28.914062 13.191406 C 29.664062 12.847656 30.234375 12.132812 30.34375 11.304688 C 30.445312 10.441406 30.289062 9.476562 29.671875 8.828125 C 29.117188 8.242188 28.28125 8.03125 27.5 8.023438 C 26.101562 8.019531 24.703125 8.023438 23.304688 8.023438 M 33.878906 8.015625 C 32.898438 10.847656 31.957031 13.695312 30.988281 16.53125 C 31.851562 16.535156 32.714844 16.535156 33.574219 16.53125 C 33.671875 16.15625 33.769531 15.78125 33.871094 15.410156 C 34.742188 15.414062 35.613281 15.402344 36.484375 15.414062 C 36.585938 15.789062 36.691406 16.160156 36.792969 16.53125 C 37.671875 16.535156 38.546875 16.535156 39.421875 16.53125 C 38.457031 13.699219 37.507812 10.859375 36.542969 8.019531 C 35.65625 8.019531 34.765625 8.03125 33.878906 8.015625 M 40.066406 8.023438 C 40.066406 10.859375 40.066406 13.695312 40.066406 16.53125 C 40.851562 16.535156 41.636719 16.535156 42.421875 16.53125 C 42.425781 14.980469 42.410156 13.425781 42.425781 11.871094 C 43.253906 13.425781 44.074219 14.980469 44.902344 16.53125 C 45.707031 16.535156 46.511719 16.535156 47.320312 16.53125 C 47.316406 13.695312 47.320312 10.859375 47.320312 8.023438 C 46.535156 8.019531 45.75 8.023438 44.964844 8.019531 C 44.960938 9.542969 44.976562 11.066406 44.957031 12.585938 C 44.175781 11.0625 43.390625 9.542969 42.609375 8.023438 C 41.761719 8.023438 40.914062 8.023438 40.066406 8.023438 M 57.335938 8.015625 C 57.339844 10.855469 57.328125 13.695312 57.339844 16.535156 C 59.546875 16.53125 61.757812 16.535156 63.96875 16.535156 C 63.960938 15.871094 63.964844 15.210938 63.96875 14.550781 C 62.636719 14.546875 61.304688 14.550781 59.972656 14.546875 C 59.972656 14.117188 59.972656 13.6875 59.972656 13.257812 C 61.074219 13.257812 62.179688 13.261719 63.28125 13.257812 C 63.277344 12.597656 63.28125 11.9375 63.277344 11.277344 C 62.175781 11.277344 61.074219 11.277344 59.972656 11.277344 C 59.972656 10.855469 59.972656 10.429688 59.972656 10.007812 C 61.304688 9.988281 62.636719 10.007812 63.96875 9.988281 C 63.960938 9.332031 63.964844 8.675781 63.964844 8.015625 C 61.753906 8.015625 59.542969 8.015625 57.335938 8.015625 M 17.503906 20.398438 C 16.289062 21.695312 15.894531 23.554688 16.011719 25.28125 C 17.320312 25.28125 18.625 25.28125 19.929688 25.28125 C 19.925781 24.433594 19.980469 23.507812 20.511719 22.808594 C 20.925781 22.269531 21.652344 22.070312 22.304688 22.128906 C 22.828125 22.144531 23.367188 22.398438 23.625 22.875 C 23.867188 23.339844 23.933594 23.90625 23.8125 24.414062 C 23.554688 25.222656 22.773438 25.671875 22.101562 26.101562 C 20.332031 27.253906 18.421875 28.296875 17.070312 29.960938 C 16.105469 31.132812 15.617188 32.667969 15.71875 34.183594 C 19.90625 34.1875 24.097656 34.1875 28.289062 34.183594 C 28.285156 33.167969 28.289062 32.152344 28.289062 31.136719 C 30.347656 31.128906 32.410156 31.136719 34.46875 31.132812 C 34.46875 32.152344 34.46875 33.167969 34.46875 34.183594 C 35.917969 34.183594 37.367188 34.1875 38.816406 34.183594 C 38.816406 33.167969 38.820312 32.148438 38.816406 31.132812 C 39.46875 31.132812 40.121094 31.132812 40.773438 31.132812 C 40.773438 29.878906 40.773438 28.625 40.773438 27.371094 C 40.121094 27.371094 39.46875 27.375 38.816406 27.371094 C 38.820312 24.519531 38.816406 21.664062 38.820312 18.808594 C 37.613281 18.796875 36.410156 18.808594 35.203125 18.804688 C 34.984375 18.816406 34.6875 18.710938 34.546875 18.9375 C 32.378906 21.625 30.195312 24.304688 28.027344 26.992188 C 28.035156 28.140625 28.03125 29.285156 28.03125 30.433594 C 25.941406 30.429688 23.851562 30.441406 21.761719 30.429688 C 22.039062 30.171875 22.390625 30.015625 22.707031 29.8125 C 24.164062 28.949219 25.730469 28.15625 26.855469 26.855469 C 27.6875 25.910156 28.121094 24.648438 28.082031 23.394531 C 28.097656 22.101562 27.609375 20.753906 26.582031 19.925781 C 25.335938 18.90625 23.664062 18.621094 22.097656 18.632812 C 20.425781 18.625 18.664062 19.144531 17.503906 20.398438 M 63.328125 33.835938 C 63.28125 34.074219 63.566406 34.03125 63.703125 34.101562 C 64.777344 34.410156 65.917969 34.859375 66.597656 35.800781 C 67.140625 36.527344 67.035156 37.546875 66.609375 38.304688 C 65.867188 39.648438 64.625 40.621094 63.390625 41.484375 C 60.625 43.34375 57.53125 44.644531 54.390625 45.714844 C 50.027344 47.175781 45.492188 48.15625 40.90625 48.542969 C 38.304688 48.730469 35.664062 48.78125 33.09375 48.300781 C 31.863281 48.050781 30.597656 47.699219 29.613281 46.886719 C 28.980469 46.371094 28.601562 45.511719 28.808594 44.699219 C 29.089844 43.527344 29.953125 42.609375 30.832031 41.832031 C 30.917969 41.753906 30.984375 41.660156 31.035156 41.554688 C 30.832031 41.566406 30.679688 41.710938 30.523438 41.824219 C 29.46875 42.621094 28.445312 43.503906 27.710938 44.613281 C 27.1875 45.40625 26.820312 46.394531 27.070312 47.347656 C 27.308594 48.304688 28.097656 49.003906 28.929688 49.464844 C 30.484375 50.308594 32.253906 50.628906 33.988281 50.828125 C 36.621094 51.085938 39.277344 50.992188 41.90625 50.722656 C 46.714844 50.207031 51.457031 49.117188 56.019531 47.515625 C 59.28125 46.347656 62.492188 44.9375 65.339844 42.941406 C 66.640625 42.003906 67.910156 40.9375 68.722656 39.53125 C 69.1875 38.726562 69.414062 37.71875 69.050781 36.832031 C 68.632812 35.808594 67.648438 35.160156 66.675781 34.730469 C 65.609375 34.273438 64.472656 33.996094 63.328125 33.835938 M 53.109375 34.199219 C 49.988281 34.269531 46.894531 34.871094 43.925781 35.816406 C 41.933594 36.464844 39.976562 37.273438 38.21875 38.417969 C 37.375 38.984375 36.539062 39.621094 36.003906 40.503906 C 35.6875 41.011719 35.542969 41.691406 35.878906 42.226562 C 36.347656 42.976562 37.238281 43.292969 38.054688 43.511719 C 40.003906 43.976562 42.027344 43.910156 44.007812 43.722656 C 46.554688 43.449219 49.066406 42.882812 51.488281 42.0625 C 53.191406 41.472656 54.871094 40.769531 56.402344 39.8125 C 57.300781 39.238281 58.1875 38.585938 58.785156 37.691406 C 59.125 37.195312 59.320312 36.527344 59.050781 35.953125 C 58.742188 35.332031 58.09375 34.976562 57.46875 34.746094 C 56.070312 34.257812 54.570312 34.183594 53.109375 34.199219 Z M 53.109375 34.199219 "/>
    <path style=" stroke:none;fill-rule:nonzero;fill:rgb(0%,65.490196%,89.019608%);fill-opacity:1;" d="M 25.738281 9.976562 C 26.296875 9.988281 26.851562 9.957031 27.40625 9.992188 C 28.261719 10.058594 28.261719 11.609375 27.40625 11.667969 C 26.851562 11.703125 26.296875 11.671875 25.738281 11.683594 C 25.738281 11.113281 25.738281 10.546875 25.738281 9.976562 Z M 25.738281 9.976562 "/>
    <path style=" stroke:none;fill-rule:nonzero;fill:rgb(0%,65.490196%,89.019608%);fill-opacity:1;" d="M 35.183594 10.609375 C 35.476562 11.613281 35.738281 12.625 36.03125 13.632812 C 35.476562 13.632812 34.921875 13.632812 34.367188 13.632812 C 34.648438 12.625 34.898438 11.613281 35.183594 10.609375 Z M 35.183594 10.609375 "/>
    <path style=" stroke:none;fill-rule:nonzero;fill:rgb(0%,65.490196%,89.019608%);fill-opacity:1;" d="M 30.941406 27.371094 C 32.117188 25.945312 33.285156 24.511719 34.46875 23.085938 C 34.472656 24.515625 34.464844 25.945312 34.46875 27.371094 C 33.292969 27.375 32.117188 27.371094 30.941406 27.371094 Z M 30.941406 27.371094 "/>
    <path style=" stroke:none;fill-rule:nonzero;fill:rgb(0%,65.490196%,89.019608%);fill-opacity:1;" d="M 51.632812 34.839844 C 52.9375 34.804688 54.277344 34.769531 55.546875 35.148438 C 56.03125 35.300781 56.550781 35.519531 56.832031 35.96875 C 57.0625 36.355469 56.929688 36.847656 56.691406 37.195312 C 56.230469 37.894531 55.519531 38.375 54.824219 38.816406 C 53.1875 39.808594 51.382812 40.484375 49.558594 41.027344 C 47.292969 41.6875 44.957031 42.117188 42.597656 42.21875 C 41.425781 42.246094 40.226562 42.21875 39.09375 41.890625 C 38.589844 41.722656 38.023438 41.492188 37.78125 40.984375 C 37.597656 40.613281 37.742188 40.183594 37.953125 39.859375 C 38.347656 39.257812 38.9375 38.816406 39.527344 38.421875 C 40.792969 37.601562 42.183594 37 43.601562 36.496094 C 46.1875 35.597656 48.894531 35.007812 51.632812 34.839844 Z M 51.632812 34.839844 "/>
    <path style=" stroke:none;fill-rule:nonzero;fill:rgb(0%,65.490196%,89.019608%);fill-opacity:1;" d="M 62.800781 63.957031 C 65.886719 63.039062 68.925781 61.953125 71.945312 60.839844 C 71.945312 61.878906 71.945312 62.921875 71.945312 63.960938 C 68.898438 63.960938 65.847656 63.96875 62.800781 63.957031 Z M 62.800781 63.957031 "/>
    <path style=" stroke:none;fill-rule:nonzero;fill:rgb(0%,65.490196%,89.019608%);fill-opacity:1;" d="M 9.371094 67.484375 C 9.613281 66.953125 10.117188 66.554688 10.6875 66.441406 C 11.492188 66.277344 12.320312 66.328125 13.136719 66.382812 C 13.136719 66.980469 13.136719 67.578125 13.136719 68.175781 C 12.738281 68.09375 12.292969 67.988281 11.917969 68.203125 C 11.695312 68.347656 11.738281 68.640625 11.703125 68.867188 C 12.15625 68.875 12.613281 68.871094 13.066406 68.871094 C 13.066406 69.40625 13.0625 69.941406 13.066406 70.476562 C 12.636719 70.476562 12.203125 70.476562 11.769531 70.476562 C 11.769531 72.1875 11.773438 73.898438 11.765625 75.609375 C 10.910156 75.613281 10.050781 75.609375 9.191406 75.613281 C 9.183594 73.898438 9.1875 72.1875 9.191406 70.476562 C 8.839844 70.476562 8.488281 70.476562 8.136719 70.472656 C 8.140625 69.941406 8.140625 69.40625 8.140625 68.871094 C 8.488281 68.871094 8.835938 68.871094 9.1875 68.871094 C 9.1875 68.40625 9.191406 67.921875 9.371094 67.484375 Z M 9.371094 67.484375 "/>
    <path style=" stroke:none;fill-rule:nonzero;fill:rgb(0%,65.490196%,89.019608%);fill-opacity:1;" d="M 51.84375 66.335938 C 52.707031 66.328125 53.570312 66.328125 54.433594 66.332031 C 54.433594 66.929688 54.429688 67.53125 54.433594 68.128906 C 53.570312 68.132812 52.707031 68.132812 51.84375 68.128906 C 51.84375 67.53125 51.84375 66.933594 51.84375 66.335938 Z M 51.84375 66.335938 "/>
    <path style=" stroke:none;fill-rule:nonzero;fill:rgb(0%,65.490196%,89.019608%);fill-opacity:1;" d="M 17.203125 68.902344 C 17.738281 68.617188 18.367188 68.65625 18.945312 68.773438 C 18.945312 69.539062 18.945312 70.304688 18.945312 71.070312 C 18.355469 70.882812 17.664062 70.800781 17.097656 71.097656 C 16.53125 71.410156 16.402344 72.109375 16.378906 72.699219 C 16.359375 73.671875 16.378906 74.640625 16.367188 75.609375 C 15.519531 75.613281 14.667969 75.605469 13.816406 75.617188 C 13.753906 73.371094 13.808594 71.121094 13.789062 68.875 C 14.613281 68.863281 15.433594 68.882812 16.257812 68.863281 C 16.273438 69.226562 16.269531 69.59375 16.261719 69.960938 C 16.5 69.550781 16.773438 69.128906 17.203125 68.902344 Z M 17.203125 68.902344 "/>
    <path style=" stroke:none;fill-rule:nonzero;fill:rgb(0%,65.490196%,89.019608%);fill-opacity:1;" d="M 20.03125 69.527344 C 20.664062 68.867188 21.628906 68.738281 22.496094 68.699219 C 23.390625 68.667969 24.332031 68.664062 25.15625 69.054688 C 25.691406 69.292969 26.082031 69.824219 26.117188 70.414062 C 26.195312 71.476562 26.144531 72.542969 26.160156 73.605469 C 26.171875 74.28125 26.089844 75.011719 26.460938 75.613281 C 25.601562 75.601562 24.742188 75.625 23.882812 75.605469 C 23.707031 75.460938 23.773438 75.183594 23.730469 74.980469 C 23.242188 75.578125 22.441406 75.773438 21.703125 75.789062 C 21.007812 75.8125 20.242188 75.683594 19.734375 75.171875 C 19.1875 74.648438 19.058594 73.808594 19.257812 73.105469 C 19.414062 72.574219 19.855469 72.164062 20.359375 71.953125 C 21.148438 71.625 22.015625 71.574219 22.855469 71.441406 C 23.121094 71.382812 23.433594 71.34375 23.617188 71.117188 C 23.753906 70.84375 23.683594 70.4375 23.371094 70.320312 C 22.835938 70.046875 21.925781 70.191406 21.855469 70.90625 C 21.070312 70.910156 20.285156 70.910156 19.503906 70.910156 C 19.496094 70.402344 19.65625 69.882812 20.03125 69.527344 M 22.328125 73.023438 C 22.109375 73.097656 21.855469 73.230469 21.824219 73.484375 C 21.722656 73.851562 22.039062 74.199219 22.386719 74.257812 C 22.804688 74.34375 23.292969 74.195312 23.519531 73.816406 C 23.738281 73.453125 23.664062 73.007812 23.679688 72.605469 C 23.242188 72.789062 22.773438 72.871094 22.328125 73.023438 Z M 22.328125 73.023438 "/>
    <path style=" stroke:none;fill-rule:nonzero;fill:rgb(0%,65.490196%,89.019608%);fill-opacity:1;" d="M 30.015625 69.730469 C 30.832031 68.542969 32.683594 68.34375 33.796875 69.210938 C 34.296875 69.613281 34.542969 70.265625 34.546875 70.898438 C 34.550781 72.46875 34.550781 74.039062 34.546875 75.609375 C 33.6875 75.613281 32.824219 75.613281 31.964844 75.609375 C 31.949219 74.273438 31.984375 72.933594 31.945312 71.597656 C 31.945312 71.183594 31.65625 70.738281 31.203125 70.761719 C 30.605469 70.679688 30.117188 71.222656 30.125 71.792969 C 30.097656 73.035156 30.128906 74.285156 30.109375 75.527344 C 30.089844 75.546875 30.046875 75.585938 30.027344 75.605469 C 29.195312 75.617188 28.363281 75.613281 27.53125 75.605469 C 27.535156 73.359375 27.527344 71.113281 27.535156 68.871094 C 28.363281 68.875 29.191406 68.867188 30.023438 68.871094 C 30.019531 69.160156 30.019531 69.445312 30.015625 69.730469 Z M 30.015625 69.730469 "/>
    <path style=" stroke:none;fill-rule:nonzero;fill:rgb(0%,65.490196%,89.019608%);fill-opacity:1;" d="M 36.746094 69.640625 C 37.886719 68.574219 39.671875 68.4375 41.070312 69.027344 C 42.035156 69.425781 42.679688 70.402344 42.75 71.429688 C 41.9375 71.433594 41.121094 71.4375 40.308594 71.429688 C 40.257812 71.242188 40.234375 71.039062 40.101562 70.890625 C 39.6875 70.394531 38.769531 70.476562 38.464844 71.050781 C 38.203125 71.523438 38.238281 72.078125 38.253906 72.597656 C 38.269531 73.0625 38.421875 73.613281 38.890625 73.8125 C 39.261719 73.9375 39.742188 73.929688 40.027344 73.621094 C 40.226562 73.4375 40.3125 73.175781 40.371094 72.917969 C 41.191406 72.914062 42.011719 72.914062 42.832031 72.921875 C 42.71875 73.570312 42.472656 74.21875 42.007812 74.699219 C 41.351562 75.398438 40.386719 75.726562 39.445312 75.761719 C 39.308594 75.976562 39.171875 76.195312 39.027344 76.40625 C 39.519531 76.300781 40.070312 76.316406 40.5 76.601562 C 40.855469 76.835938 41.011719 77.308594 40.878906 77.710938 C 40.761719 78.203125 40.25 78.476562 39.785156 78.5625 C 38.980469 78.726562 38.160156 78.527344 37.410156 78.242188 C 37.503906 78.042969 37.597656 77.839844 37.691406 77.640625 C 38.183594 77.777344 38.714844 78.035156 39.222656 77.816406 C 39.550781 77.710938 39.5625 77.199219 39.257812 77.058594 C 38.988281 76.882812 38.675781 77.003906 38.398438 77.085938 C 38.289062 76.988281 38.179688 76.886719 38.074219 76.785156 C 38.292969 76.425781 38.511719 76.0625 38.738281 75.699219 C 37.785156 75.578125 36.875 75.078125 36.304688 74.300781 C 35.296875 72.921875 35.476562 70.796875 36.746094 69.640625 Z M 36.746094 69.640625 "/>
    <path style=" stroke:none;fill-rule:nonzero;fill:rgb(0%,65.490196%,89.019608%);fill-opacity:1;" d="M 45.089844 69.007812 C 46.136719 68.617188 47.292969 68.640625 48.394531 68.753906 C 49.222656 68.847656 50.179688 69.28125 50.347656 70.183594 C 50.535156 71.71875 50.359375 73.269531 50.460938 74.804688 C 50.480469 75.09375 50.59375 75.363281 50.726562 75.613281 C 49.875 75.601562 49.019531 75.625 48.167969 75.605469 C 47.949219 75.5 48.070312 75.175781 48.011719 74.992188 C 47.410156 75.667969 46.453125 75.832031 45.59375 75.785156 C 44.933594 75.761719 44.230469 75.523438 43.824219 74.972656 C 43.445312 74.480469 43.371094 73.8125 43.496094 73.21875 C 43.621094 72.652344 44.0625 72.203125 44.582031 71.976562 C 45.425781 71.605469 46.355469 71.578125 47.25 71.417969 C 47.503906 71.347656 47.84375 71.296875 47.933594 71.007812 C 47.984375 70.753906 47.925781 70.4375 47.664062 70.328125 C 47.128906 70.0625 46.191406 70.171875 46.132812 70.90625 C 45.339844 70.910156 44.542969 70.90625 43.75 70.910156 C 43.738281 70.0625 44.300781 69.289062 45.089844 69.007812 M 46.402344 73.105469 C 46.058594 73.242188 45.960938 73.722656 46.203125 73.992188 C 46.648438 74.5 47.601562 74.308594 47.851562 73.691406 C 47.996094 73.347656 47.929688 72.964844 47.945312 72.601562 C 47.453125 72.835938 46.894531 72.878906 46.402344 73.105469 Z M 46.402344 73.105469 "/>
    <path style=" stroke:none;fill-rule:nonzero;fill:rgb(0%,65.490196%,89.019608%);fill-opacity:1;" d="M 56.257812 69.460938 C 56.980469 68.832031 57.976562 68.703125 58.898438 68.683594 C 59.835938 68.714844 60.875 68.820312 61.578125 69.507812 C 61.945312 69.839844 62.101562 70.328125 62.140625 70.8125 C 61.359375 70.8125 60.578125 70.816406 59.796875 70.8125 C 59.695312 70.101562 58.710938 69.894531 58.226562 70.328125 C 58.023438 70.585938 58.203125 70.933594 58.507812 70.996094 C 59.53125 71.285156 60.675781 71.292969 61.582031 71.917969 C 62.566406 72.601562 62.53125 74.203125 61.664062 74.96875 C 60.953125 75.625 59.933594 75.765625 59.003906 75.789062 C 57.988281 75.804688 56.871094 75.617188 56.125 74.871094 C 55.722656 74.488281 55.503906 73.941406 55.507812 73.386719 C 56.320312 73.386719 57.132812 73.378906 57.945312 73.390625 C 58.019531 73.730469 58.242188 74.082031 58.613281 74.152344 C 58.984375 74.210938 59.441406 74.214844 59.726562 73.929688 C 59.960938 73.699219 59.800781 73.277344 59.496094 73.210938 C 58.453125 72.878906 57.273438 72.902344 56.351562 72.242188 C 55.457031 71.617188 55.4375 70.152344 56.257812 69.460938 Z M 56.257812 69.460938 "/>
    <path style=" stroke:none;fill-rule:nonzero;fill:rgb(0%,65.490196%,89.019608%);fill-opacity:1;" d="M 51.84375 68.871094 C 52.707031 68.871094 53.570312 68.871094 54.433594 68.871094 C 54.429688 71.117188 54.433594 73.363281 54.429688 75.609375 C 53.570312 75.613281 52.707031 75.609375 51.847656 75.609375 C 51.839844 73.363281 51.847656 71.117188 51.84375 68.871094 Z M 51.84375 68.871094 "/>
  </g>
</svg>