<?xml version="1.0" encoding="UTF-8" standalone="yes"?>
<svg xmlns="http://www.w3.org/2000/svg" xmlns:xlink="http://www.w3.org/1999/xlink" width="106.66666666666666px" height="106.66666666666666px" viewBox="0 0 80 80" version="1.1">
  <g id="surface1">
    <path style=" stroke:none;fill-rule:nonzero;fill:rgb(0%,65.490196%,89.019608%);fill-opacity:1;" d="M 80.035156 80.03125 L 80.035156 76.121094 C 76.023438 77.605469 72.226562 78.902344 68.628906 80.03125 Z M 80.035156 80.03125 "/>
    <path style=" stroke:none;fill-rule:nonzero;fill:rgb(0%,65.490196%,89.019608%);fill-opacity:1;" d="M 37.835938 51.941406 C 39.660156 53.167969 44.65625 53.140625 49.984375 51.875 C 56.605469 50.300781 61.664062 47.371094 61.238281 45.324219 C 61.167969 44.992188 60.941406 44.691406 60.570312 44.441406 C 58.734375 43.210938 53.746094 43.238281 48.425781 44.503906 C 43.097656 45.773438 38.570312 48 37.417969 49.929688 C 37.175781 50.324219 37.089844 50.714844 37.160156 51.039062 C 37.230469 51.378906 37.460938 51.683594 37.835938 51.941406 "/>
    <path style=" stroke:none;fill-rule:nonzero;fill:rgb(0%,65.490196%,89.019608%);fill-opacity:1;" d="M 54.160156 71.699219 C 38.007812 75.53125 23.039062 75.335938 16.898438 71.210938 C 15.402344 70.203125 14.492188 68.992188 14.199219 67.59375 C 13.730469 65.386719 14.890625 62.824219 17.546875 60.179688 C 17.582031 60.152344 17.640625 60.152344 17.671875 60.179688 C 17.707031 60.207031 17.714844 60.285156 17.6875 60.320312 C 16.375 62.050781 15.867188 63.671875 16.179688 65.132812 C 16.425781 66.316406 17.210938 67.363281 18.507812 68.226562 C 24.144531 72.023438 38.203125 72.132812 53.492188 68.515625 C 64.25 65.949219 73.890625 61.960938 80.03125 57.542969 L 80.03125 0 L 0 0 L 0 80.03125 L 7.363281 80.03125 C 6.796875 79.246094 6.402344 78.402344 6.210938 77.496094 C 6.117188 77.042969 6.070312 76.578125 6.070312 76.117188 C 6.070312 74.140625 6.917969 72.027344 8.59375 69.808594 C 8.613281 69.78125 8.675781 69.769531 8.714844 69.804688 L 8.75 69.921875 C 7.804688 71.660156 7.492188 73.300781 7.804688 74.804688 C 8.261719 76.964844 9.984375 78.714844 12.695312 80.03125 L 54.242188 80.03125 C 54.785156 79.910156 55.324219 79.796875 55.871094 79.667969 C 64.675781 77.570312 72.996094 74.675781 80.035156 71.265625 L 80.035156 61.503906 C 73.429688 65.679688 64.28125 69.300781 54.160156 71.699219 M 48.289062 43.882812 C 56.367188 41.964844 63.410156 42.621094 63.992188 45.351562 C 64.097656 45.867188 63.976562 46.441406 63.613281 47.027344 C 62.109375 49.535156 56.800781 52.238281 50.375 53.773438 C 42.296875 55.679688 35.257812 55.03125 34.679688 52.308594 C 34.109375 49.582031 40.199219 45.800781 48.289062 43.882812 M 28.613281 52.019531 C 28.65625 51.996094 28.710938 51.996094 28.730469 52.039062 C 28.769531 52.082031 28.753906 52.140625 28.722656 52.167969 C 26.636719 53.949219 25.703125 55.632812 26 57.050781 C 26.15625 57.800781 26.660156 58.46875 27.488281 59.027344 C 31.210938 61.527344 41.085938 61.554688 51.503906 59.082031 C 64.660156 55.949219 74.648438 49.96875 73.75 45.714844 C 73.441406 44.304688 71.910156 43.195312 69.324219 42.539062 C 69.277344 42.515625 69.242188 42.476562 69.257812 42.414062 C 69.269531 42.371094 69.316406 42.339844 69.363281 42.34375 C 73.609375 43.035156 76.101562 44.503906 76.539062 46.605469 C 76.746094 47.539062 76.511719 48.5625 75.863281 49.640625 C 73.15625 54.167969 63.59375 59.054688 52.066406 61.792969 C 40.539062 64.519531 29.929688 64.4375 25.652344 61.5625 C 24.636719 60.871094 24.023438 60.0625 23.828125 59.109375 C 23.390625 57.007812 25.039062 54.554688 28.613281 52.019531 "/>
    <path style=" stroke:none;fill-rule:nonzero;fill:rgb(100%,100%,100%);fill-opacity:1;" d="M 54.238281 80.03125 L 68.628906 80.03125 C 72.226562 78.902344 76.023438 77.605469 80.035156 76.121094 L 80.035156 71.261719 C 72.996094 74.675781 64.675781 77.570312 55.871094 79.667969 C 55.324219 79.796875 54.785156 79.910156 54.238281 80.03125 "/>
    <path style=" stroke:none;fill-rule:nonzero;fill:rgb(100%,100%,100%);fill-opacity:1;" d="M 7.804688 74.804688 C 7.492188 73.300781 7.804688 71.660156 8.75 69.921875 L 8.714844 69.804688 C 8.675781 69.765625 8.613281 69.78125 8.59375 69.808594 C 6.917969 72.027344 6.070312 74.140625 6.070312 76.117188 C 6.070312 76.578125 6.117188 77.042969 6.210938 77.496094 C 6.402344 78.402344 6.796875 79.246094 7.363281 80.03125 L 12.695312 80.03125 C 9.984375 78.714844 8.261719 76.964844 7.804688 74.804688 "/>
    <path style=" stroke:none;fill-rule:nonzero;fill:rgb(100%,100%,100%);fill-opacity:1;" d="M 25.652344 61.5625 C 29.929688 64.4375 40.539062 64.519531 52.066406 61.792969 C 63.59375 59.054688 73.15625 54.167969 75.867188 49.636719 C 76.511719 48.5625 76.746094 47.535156 76.539062 46.605469 C 76.101562 44.503906 73.609375 43.035156 69.363281 42.34375 C 69.320312 42.339844 69.269531 42.371094 69.257812 42.414062 C 69.246094 42.476562 69.277344 42.515625 69.324219 42.539062 C 71.910156 43.195312 73.441406 44.304688 73.75 45.714844 C 74.648438 49.964844 64.660156 55.945312 51.503906 59.082031 C 41.085938 61.554688 31.210938 61.527344 27.488281 59.023438 C 26.660156 58.46875 26.15625 57.800781 26 57.050781 C 25.703125 55.632812 26.636719 53.949219 28.722656 52.167969 C 28.753906 52.140625 28.769531 52.082031 28.730469 52.039062 C 28.710938 51.996094 28.65625 51.996094 28.613281 52.019531 C 25.039062 54.554688 23.390625 57.003906 23.828125 59.109375 C 24.023438 60.058594 24.636719 60.871094 25.652344 61.5625 "/>
    <path style=" stroke:none;fill-rule:nonzero;fill:rgb(100%,100%,100%);fill-opacity:1;" d="M 18.507812 68.226562 C 17.210938 67.363281 16.425781 66.320312 16.179688 65.132812 C 15.867188 63.675781 16.375 62.050781 17.6875 60.320312 C 17.714844 60.289062 17.707031 60.210938 17.671875 60.179688 C 17.640625 60.15625 17.582031 60.15625 17.546875 60.179688 C 14.890625 62.828125 13.734375 65.386719 14.199219 67.59375 C 14.492188 68.992188 15.402344 70.203125 16.898438 71.214844 C 23.039062 75.335938 38.007812 75.53125 54.160156 71.703125 C 64.28125 69.300781 73.429688 65.679688 80.03125 61.503906 L 80.03125 57.542969 C 73.890625 61.960938 64.25 65.949219 53.492188 68.515625 C 38.203125 72.132812 24.144531 72.023438 18.507812 68.226562 "/>
    <path style=" stroke:none;fill-rule:nonzero;fill:rgb(100%,100%,100%);fill-opacity:1;" d="M 50.375 53.773438 C 56.800781 52.238281 62.109375 49.535156 63.613281 47.027344 C 63.976562 46.441406 64.097656 45.867188 63.992188 45.351562 C 63.410156 42.621094 56.367188 41.964844 48.289062 43.882812 C 40.199219 45.800781 34.109375 49.582031 34.679688 52.308594 C 35.257812 55.03125 42.296875 55.679688 50.375 53.773438 M 37.417969 49.929688 C 38.570312 48 43.097656 45.773438 48.425781 44.503906 C 53.746094 43.238281 58.734375 43.210938 60.570312 44.441406 C 60.941406 44.691406 61.167969 44.992188 61.238281 45.324219 C 61.664062 47.371094 56.605469 50.300781 49.984375 51.875 C 44.65625 53.140625 39.660156 53.167969 37.835938 51.941406 C 37.460938 51.683594 37.230469 51.378906 37.160156 51.039062 C 37.089844 50.714844 37.175781 50.324219 37.417969 49.929688 "/>
    <path style=" stroke:none;fill-rule:nonzero;fill:rgb(100%,100%,100%);fill-opacity:1;" d="M 32.980469 17.035156 L 34 13.21875 L 35.058594 17.035156 Z M 32.355469 10.011719 L 28.753906 20.664062 L 31.984375 20.664062 L 32.355469 19.253906 L 35.625 19.253906 L 36.019531 20.664062 L 39.296875 20.664062 L 35.703125 10.011719 Z M 10 20.664062 L 13.300781 20.664062 L 13.300781 17.0625 L 16.910156 17.0625 L 16.910156 14.566406 L 13.300781 14.566406 L 13.300781 12.484375 L 17.832031 12.484375 L 17.832031 10 L 10 10 Z M 70.027344 12.484375 L 70.027344 10 L 61.730469 10 L 61.730469 20.664062 L 70.027344 20.664062 L 70.027344 18.183594 L 65.03125 18.183594 L 65.03125 16.570312 L 69.171875 16.570312 L 69.171875 14.09375 L 65.03125 14.09375 L 65.03125 12.484375 Z M 24.070312 14.597656 L 22.175781 14.597656 L 22.175781 12.460938 L 24.070312 12.460938 C 24.726562 12.460938 25.050781 12.820312 25.050781 13.53125 C 25.050781 14.234375 24.726562 14.597656 24.070312 14.597656 M 27.976562 13.605469 C 27.976562 11.289062 26.65625 10.011719 24.261719 10.011719 L 19.125 10.011719 L 19.125 20.664062 L 22.175781 20.664062 L 22.175781 17.042969 L 23.226562 17.042969 C 23.367188 17.324219 24.996094 20.664062 24.996094 20.664062 L 28.28125 20.664062 C 28.28125 20.664062 26.429688 16.988281 26.144531 16.472656 C 27.265625 15.984375 27.976562 14.90625 27.976562 13.605469 M 55.675781 18.261719 C 54.238281 18.261719 53.761719 16.777344 53.761719 15.335938 C 53.761719 13.90625 54.238281 12.40625 55.675781 12.40625 C 56.953125 12.40625 57.242188 13.59375 57.300781 13.980469 L 60.3125 13.980469 C 60.046875 11.304688 58.53125 9.765625 55.761719 9.761719 C 52.667969 9.761719 50.660156 11.980469 50.660156 15.335938 C 50.660156 18.488281 52.503906 20.914062 55.761719 20.914062 C 58.703125 20.914062 60.355469 18.632812 60.355469 16.488281 L 57.308594 16.488281 C 57.121094 17.488281 56.722656 18.261719 55.675781 18.261719 M 46.25 15.703125 L 46.222656 15.703125 L 43.292969 10.011719 L 40.117188 10.011719 L 40.117188 20.664062 L 43.054688 20.664062 L 43.054688 14.839844 L 43.078125 14.839844 L 46.167969 20.664062 L 49.183594 20.664062 L 49.183594 10.011719 L 46.25 10.011719 Z M 46.25 15.703125 "/>
    <path style=" stroke:none;fill-rule:nonzero;fill:rgb(100%,100%,100%);fill-opacity:1;" d="M 33.109375 34.242188 L 28.679688 34.242188 L 33.109375 28.851562 Z M 38.539062 34.242188 L 38.539062 23.507812 L 33.347656 23.507812 L 25.046875 33.75 L 25.046875 38.066406 L 17.15625 38.066406 L 17.15625 38.039062 C 20.578125 35.824219 25.113281 34.273438 25.113281 29.339844 C 25.113281 25.25 22.117188 23.292969 17.699219 23.292969 C 12.816406 23.292969 9.710938 26.324219 10 31.617188 L 14.910156 31.617188 C 14.847656 29.261719 15.558594 27.65625 17.652344 27.65625 C 18.863281 27.65625 19.839844 28.265625 19.839844 30.003906 C 19.839844 31.421875 18.320312 32.1875 17.390625 32.792969 C 15.058594 34.300781 12.460938 35.765625 10.933594 38.007812 C 10.042969 39.308594 9.527344 40.921875 9.632812 42.769531 L 25.375 42.769531 L 25.375 38.9375 L 33.113281 38.9375 L 33.113281 42.769531 L 38.539062 42.769531 L 38.539062 38.9375 L 40.996094 38.9375 L 40.996094 34.242188 Z M 38.539062 34.242188 "/>
  </g>
</svg>