<?xml version="1.0" encoding="utf-8"?>
<!-- Generator: Adobe Illustrator 17.0.0, SVG Export Plug-In . SVG Version: 6.00 Build 0)  -->
<!DOCTYPE svg PUBLIC "-//W3C//DTD SVG 1.1//EN" "http://www.w3.org/Graphics/SVG/1.1/DTD/svg11.dtd">
<svg version="1.1" id="Calque_1" xmlns="http://www.w3.org/2000/svg" xmlns:xlink="http://www.w3.org/1999/xlink" x="0px" y="0px"
	 width="141.062px" height="141.058px" viewBox="0 0 141.062 141.058" enable-background="new 0 0 141.062 141.058"
	 xml:space="preserve">
<g>
	<path fill="#00A7E3" d="M141.059,141.058v-6.895c-7.066,2.615-13.758,4.899-20.102,6.895H141.059z"/>
	<path fill="#00A7E3" d="M66.689,91.546c3.212,2.162,12.016,2.115,21.409-0.118c11.672-2.775,20.582-7.937,19.834-11.541
		c-0.123-0.587-0.525-1.119-1.177-1.559c-3.238-2.172-12.03-2.121-21.403,0.111C75.959,80.673,67.98,84.598,65.946,88
		c-0.426,0.698-0.578,1.384-0.448,1.957C65.62,90.558,66.023,91.091,66.689,91.546"/>
	<path fill="#00A7E3" d="M95.455,126.373c-28.467,6.753-54.85,6.407-65.673-0.861c-2.638-1.78-4.237-3.914-4.758-6.377
		c-0.821-3.893,1.221-8.404,5.902-13.066c0.065-0.048,0.165-0.048,0.221,0c0.061,0.049,0.075,0.187,0.027,0.246
		c-2.312,3.047-3.208,5.91-2.66,8.484c0.434,2.087,1.821,3.93,4.107,5.452c9.934,6.687,34.715,6.882,61.656,0.507
		c18.963-4.521,35.957-11.554,46.781-19.341V0H0v141.058h12.977c-0.997-1.39-1.69-2.877-2.029-4.468
		c-0.165-0.801-0.247-1.618-0.247-2.431c0-3.483,1.493-7.212,4.448-11.12c0.035-0.049,0.144-0.073,0.209-0.01l0.061,0.211
		c-1.664,3.062-2.216,5.952-1.664,8.603c0.806,3.805,3.84,6.891,8.62,9.215h73.224c0.958-0.216,1.908-0.415,2.872-0.643
		c15.518-3.694,30.184-8.8,42.588-14.812v-17.2C129.419,115.759,113.297,122.144,95.455,126.373 M85.111,77.344
		c14.237-3.378,26.648-2.225,27.674,2.587c0.184,0.911-0.029,1.924-0.664,2.953c-2.65,4.425-12.008,9.186-23.334,11.892
		c-14.241,3.362-26.644,2.216-27.665-2.581C60.119,87.39,70.851,80.726,85.111,77.344 M50.431,91.685
		c0.073-0.04,0.17-0.04,0.208,0.037c0.065,0.072,0.039,0.177-0.014,0.226c-3.676,3.139-5.322,6.105-4.798,8.604
		c0.274,1.324,1.162,2.498,2.621,3.481c6.558,4.41,23.964,4.459,42.331,0.098c23.185-5.521,40.789-16.064,39.208-23.556
		c-0.548-2.489-3.242-4.444-7.802-5.598c-0.086-0.04-0.143-0.11-0.121-0.221c0.021-0.074,0.109-0.132,0.188-0.125
		c7.483,1.219,11.877,3.808,12.65,7.509c0.361,1.645-0.051,3.454-1.19,5.349c-4.773,7.983-21.631,16.593-41.947,21.419
		c-20.314,4.811-39.015,4.663-46.55-0.403c-1.795-1.219-2.872-2.648-3.22-4.324C41.225,100.473,44.134,96.156,50.431,91.685"/>
	<polyline fill="#FFFFFF" points="141.062,134.162 141.062,125.6 141.059,125.602 141.059,134.164 141.062,134.162 	"/>
	<path fill="#FFFFFF" d="M95.598,141.058h25.359c6.344-1.995,13.035-4.279,20.102-6.895v-8.561
		c-12.404,6.013-27.07,11.118-42.588,14.811C97.507,140.643,96.556,140.842,95.598,141.058"/>
	<path fill="#FFFFFF" d="M13.755,131.843c-0.552-2.65,0-5.54,1.664-8.603l-0.061-0.21c-0.065-0.065-0.174-0.04-0.209,0.008
		c-2.955,3.909-4.449,7.638-4.449,11.121c0,0.812,0.082,1.629,0.247,2.431c0.34,1.591,1.033,3.078,2.03,4.468h9.398
		C17.595,138.734,14.561,135.648,13.755,131.843"/>
	<path fill="#FFFFFF" d="M45.215,108.504c7.537,5.066,26.236,5.215,46.551,0.403c20.316-4.826,37.174-13.436,41.947-21.419
		c1.139-1.895,1.55-3.704,1.19-5.349c-0.774-3.7-5.167-6.29-12.651-7.509c-0.078-0.007-0.166,0.051-0.188,0.125
		c-0.021,0.11,0.035,0.181,0.121,0.221c4.559,1.153,7.254,3.108,7.802,5.598c1.581,7.492-16.023,18.033-39.208,23.556
		c-18.366,4.361-35.773,4.312-42.331-0.098c-1.459-0.983-2.347-2.157-2.62-3.481c-0.525-2.498,1.121-5.465,4.798-8.604
		c0.052-0.049,0.078-0.153,0.013-0.226c-0.038-0.077-0.134-0.077-0.208-0.037c-6.297,4.471-9.205,8.788-8.436,12.495
		C42.343,105.856,43.421,107.286,45.215,108.504"/>
	<polyline fill="#FFFFFF" points="141.062,108.399 141.062,101.415 141.059,101.418 141.059,108.402 141.062,108.399 	"/>
	<path fill="#FFFFFF" d="M32.621,120.252c-2.286-1.521-3.673-3.365-4.107-5.452c-0.548-2.574,0.348-5.438,2.66-8.484
		c0.048-0.059,0.034-0.197-0.027-0.246c-0.056-0.047-0.156-0.047-0.221,0c-4.68,4.662-6.722,9.173-5.902,13.066
		c0.521,2.463,2.12,4.597,4.758,6.377c10.823,7.269,37.206,7.614,65.673,0.861c17.842-4.229,33.964-10.614,45.603-17.972v-6.983
		c-10.824,7.786-27.818,14.819-46.781,19.341C67.336,127.134,42.555,126.94,32.621,120.252"/>
	<path fill="#FFFFFF" d="M88.787,94.776c11.326-2.706,20.683-7.467,23.334-11.892c0.635-1.03,0.848-2.042,0.664-2.953
		c-1.025-4.812-13.438-5.965-27.674-2.587c-14.26,3.382-24.993,10.046-23.99,14.851C62.143,96.992,74.546,98.138,88.787,94.776
		 M65.946,88c2.034-3.402,10.013-7.327,19.406-9.561c9.373-2.232,18.165-2.283,21.403-0.111c0.651,0.439,1.054,0.972,1.177,1.559
		c0.748,3.604-8.162,8.766-19.834,11.541c-9.393,2.233-18.197,2.28-21.409,0.118c-0.666-0.455-1.069-0.988-1.191-1.589
		C65.368,89.384,65.52,88.699,65.946,88"/>
	<path fill="#FFFFFF" d="M58.126,30.026l1.796-6.729l1.87,6.729H58.126z M57.025,17.649l-6.348,18.773h5.694l0.654-2.49h5.764
		l0.696,2.49h5.778l-6.339-18.773H57.025z M17.623,36.422h5.822V30.07h6.358v-4.395h-6.358v-3.67h7.987v-4.381H17.623V36.422z
		 M123.423,22.005v-4.381h-14.626v18.798h14.626v-4.373h-8.804v-2.846h7.295v-4.364h-7.295v-2.834H123.423z M42.422,25.728h-3.34
		v-3.765h3.34c1.156,0,1.729,0.631,1.729,1.886C44.151,25.088,43.579,25.728,42.422,25.728 M49.312,23.983
		c0-4.089-2.329-6.334-6.553-6.334h-9.05v18.773h5.373v-6.386h1.856c0.246,0.497,3.119,6.386,3.119,6.386h5.791
		c0,0-3.269-6.481-3.769-7.388C48.058,28.17,49.312,26.271,49.312,23.983 M98.129,32.185c-2.533,0-3.371-2.617-3.371-5.154
		c0-2.523,0.838-5.163,3.371-5.163c2.254,0,2.759,2.088,2.867,2.771h5.306c-0.47-4.714-3.143-7.426-8.019-7.435
		c-5.457,0-8.996,3.912-8.996,9.827c0,5.558,3.254,9.833,8.996,9.833c5.181,0,8.093-4.023,8.093-7.803h-5.369
		C100.679,30.821,99.973,32.185,98.129,32.185 M81.518,27.675h-0.051l-5.162-10.026h-5.6v18.773h5.178V26.157h0.039l5.448,10.265
		h5.314V17.649h-5.166V27.675z"/>
	<path fill="#FFFFFF" d="M58.358,60.351h-7.81l7.81-9.503V60.351z M67.928,60.351V41.434h-9.152L44.147,59.486v7.605H30.236v-0.048
		c6.032-3.905,14.025-6.639,14.025-15.331c0-7.211-5.281-10.661-13.068-10.661c-8.605,0-14.077,5.346-13.57,14.672h8.653
		c-0.108-4.146,1.144-6.978,4.835-6.978c2.137,0,3.858,1.076,3.858,4.14c0,2.498-2.682,3.843-4.319,4.916
		c-4.107,2.651-8.688,5.236-11.379,9.188c-1.569,2.29-2.481,5.135-2.294,8.395h27.745V68.63h13.637v6.754h9.569V68.63h4.33v-8.279
		H67.928z"/>
</g>
</svg>
