<?xml version="1.0" encoding="UTF-8" standalone="no"?>
<!-- Created with Inkscape (http://www.inkscape.org/) -->

<svg
   xmlns:dc="http://purl.org/dc/elements/1.1/"
   xmlns:cc="http://creativecommons.org/ns#"
   xmlns:rdf="http://www.w3.org/1999/02/22-rdf-syntax-ns#"
   xmlns:svg="http://www.w3.org/2000/svg"
   xmlns="http://www.w3.org/2000/svg"
   xmlns:sodipodi="http://sodipodi.sourceforge.net/DTD/sodipodi-0.dtd"
   xmlns:inkscape="http://www.inkscape.org/namespaces/inkscape"
   width="1000"
   height="420.69794"
   id="svg6778"
   version="1.1"
   inkscape:version="0.48.2 r9819"
   sodipodi:docname="A.svg">
  <defs
     id="defs6780">
    <clipPath
       clipPathUnits="userSpaceOnUse"
       id="clipPath3583">
      <path
         inkscape:connector-curvature="0"
         d="m 28.346,356.42 81.569,0 0,9.712 -81.569,0 0,-9.712 z"
         id="path3585" />
    </clipPath>
    <clipPath
       clipPathUnits="userSpaceOnUse"
       id="clipPath7103">
      <path
         inkscape:connector-curvature="0"
         d="m 664.016,628.016 56.939,0 0,13.141 -56.939,0 0,-13.141 z"
         id="path7105" />
    </clipPath>
    <clipPath
       clipPathUnits="userSpaceOnUse"
       id="clipPath7151">
      <path
         inkscape:connector-curvature="0"
         d="m 664.016,528.803 56.81,0 0,13.111 -56.81,0 0,-13.111 z"
         id="path7153" />
    </clipPath>
    <clipPath
       clipPathUnits="userSpaceOnUse"
       id="clipPath7127">
      <path
         inkscape:connector-curvature="0"
         d="m 664.016,430.623 56.939,0 0,13.141 -56.939,0 0,-13.141 z"
         id="path7129" />
    </clipPath>
    <clipPath
       clipPathUnits="userSpaceOnUse"
       id="clipPath7053">
      <path
         inkscape:connector-curvature="0"
         d="m 664.016,341.686 56.939,0 0,13.141 -56.939,0 0,-13.141 z"
         id="path7055" />
    </clipPath>
    <clipPath
       clipPathUnits="userSpaceOnUse"
       id="clipPath7039">
      <path
         inkscape:connector-curvature="0"
         d="m 664.016,237.397 71.556,0 0,23.694 -71.556,0 0,-23.694 z"
         id="path7041" />
    </clipPath>
    <clipPath
       clipPathUnits="userSpaceOnUse"
       id="clipPath7023">
      <path
         inkscape:connector-curvature="0"
         d="m 664.016,237.397 71.555,0 0,23.694 -71.555,0 0,-23.694 z"
         id="path7025" />
    </clipPath>
    <clipPath
       clipPathUnits="userSpaceOnUse"
       id="clipPath7011">
      <path
         inkscape:connector-curvature="0"
         d="m 664.016,237.397 71.556,0 0,23.694 -71.556,0 0,-23.694 z"
         id="path7013" />
    </clipPath>
    <clipPath
       clipPathUnits="userSpaceOnUse"
       id="clipPath13240">
      <path
         inkscape:connector-curvature="0"
         d="m 126.559,582.52 39.686,0 0,21.26 -39.686,0 0,-21.26 z"
         id="path13242" />
    </clipPath>
    <clipPath
       clipPathUnits="userSpaceOnUse"
       id="clipPath12956">
      <path
         inkscape:connector-curvature="0"
         d="m 126.559,626.173 39.686,0 0,21.26 -39.686,0 0,-21.26 z"
         id="path12958" />
    </clipPath>
    <clipPath
       clipPathUnits="userSpaceOnUse"
       id="clipPath12940">
      <path
         inkscape:connector-curvature="0"
         d="m 126.562,631.048 39.683,0 0,11.509 -39.683,0 0,-11.509 z"
         id="path12942" />
    </clipPath>
    <clipPath
       clipPathUnits="userSpaceOnUse"
       id="clipPath12912">
      <path
         inkscape:connector-curvature="0"
         d="m 126.559,626.173 39.686,0 0,21.26 -39.686,0 0,-21.26 z"
         id="path12914" />
    </clipPath>
    <clipPath
       clipPathUnits="userSpaceOnUse"
       id="clipPath13112">
      <path
         inkscape:connector-curvature="0"
         d="m 122.354,609.223 48.095,0 0,11.508 -48.095,0 0,-11.508 z"
         id="path13114" />
    </clipPath>
    <clipPath
       clipPathUnits="userSpaceOnUse"
       id="clipPath13096">
      <path
         inkscape:connector-curvature="0"
         d="m 122.354,609.223 48.092,0 0,11.508 -48.092,0 0,-11.508 z"
         id="path13098" />
    </clipPath>
    <clipPath
       clipPathUnits="userSpaceOnUse"
       id="clipPath13076">
      <path
         inkscape:connector-curvature="0"
         d="m 122.354,609.223 48.095,0 0,11.508 -48.095,0 0,-11.508 z"
         id="path13078" />
    </clipPath>
    <clipPath
       clipPathUnits="userSpaceOnUse"
       id="clipPath34654">
      <path
         inkscape:connector-curvature="0"
         d="m 126.559,276.944 39.686,0 0,21.26 -39.686,0 0,-21.26 z"
         id="path34656" />
    </clipPath>
    <clipPath
       clipPathUnits="userSpaceOnUse"
       id="clipPath34638">
      <path
         inkscape:connector-curvature="0"
         d="m 132.705,281.821 27.392,0 0,11.508 -27.392,0 0,-11.508 z"
         id="path34640" />
    </clipPath>
  </defs>
  <sodipodi:namedview
     id="base"
     pagecolor="#ffffff"
     bordercolor="#666666"
     borderopacity="1.0"
     inkscape:pageopacity="0.0"
     inkscape:pageshadow="2"
     inkscape:zoom="0.49497475"
     inkscape:cx="758.99882"
     inkscape:cy="-211.17251"
     inkscape:document-units="px"
     inkscape:current-layer="layer1"
     showgrid="false"
     fit-margin-top="0.5"
     fit-margin-left="0.5"
     fit-margin-right="0.5"
     fit-margin-bottom="0.5"
     inkscape:window-width="1102"
     inkscape:window-height="1040"
     inkscape:window-x="821"
     inkscape:window-y="-18"
     inkscape:window-maximized="0" />
  <metadata
     id="metadata6783">
    <rdf:RDF>
      <cc:Work
         rdf:about="">
        <dc:format>image/svg+xml</dc:format>
        <dc:type
           rdf:resource="http://purl.org/dc/dcmitype/StillImage" />
        <dc:title></dc:title>
      </cc:Work>
    </rdf:RDF>
  </metadata>
  <g
     inkscape:label="Layer 1"
     inkscape:groupmode="layer"
     id="layer1"
     transform="translate(-2830.9693,1466.2779)">
    <g
       transform="matrix(36.470103,0,0,-36.470103,-2008.2848,9231.9609)"
       id="g34634">
      <g
         id="g34636"
         clip-path="url(#clipPath34638)">
        <g
           id="g34642"
           transform="translate(140.4761,281.8206)">
          <path
             inkscape:connector-curvature="0"
             d="m 0,0 0.9,0 7.762,11.509 -0.899,0 L 0,0 z"
             style="fill:#a7a9ac;fill-opacity:1;fill-rule:nonzero;stroke:none"
             id="path34644" />
        </g>
        <g
           id="g34646"
           transform="translate(159.9352,288.7257)">
          <path
             inkscape:connector-curvature="0"
             d="m 0,0 c 0.116,0 0.186,-0.091 0.156,-0.203 l -1.367,-5.089 -1.257,0 c -0.116,0 -0.186,0.091 -0.155,0.203 L -1.257,0 0,0 z"
             style="fill:#62bb46;fill-opacity:1;fill-rule:nonzero;stroke:none"
             id="path34648" />
        </g>
      </g>
    </g>
    <g
       transform="matrix(36.470103,0,0,-36.470103,-2008.2848,9231.9609)"
       id="g34650">
      <g
         id="g34652"
         clip-path="url(#clipPath34654)">
        <g
           id="g34658"
           transform="translate(154.8262,286.1856)">
          <path
             inkscape:connector-curvature="0"
             d="M 0,0 C 0.658,0 1.089,0.28 1.089,0.733 1.089,0.877 1.043,0.99 0.953,1.089 0.832,1.21 0.612,1.27 0.302,1.27 l -0.793,0 L -0.839,0 0,0 z m -2.993,-2.549 1.368,5.089 1.995,0 c 0.885,0 1.467,-0.196 1.822,-0.552 0.28,-0.28 0.409,-0.657 0.409,-1.081 0,-0.884 -0.507,-1.58 -1.588,-1.875 0,0 0.208,-0.517 0.427,-0.687 0.24,-0.186 0.501,-0.221 0.629,-0.221 L 1.837,-2.732 c 0,0 -0.267,-0.083 -0.72,-0.083 -0.445,0 -0.993,0.268 -1.244,0.827 -0.102,0.229 -0.364,0.839 -0.364,0.839 l -0.651,0 -0.43,-1.603 -1.265,0 c -0.116,0 -0.186,0.091 -0.156,0.203"
             style="fill:#62bb46;fill-opacity:1;fill-rule:nonzero;stroke:none"
             id="path34660" />
        </g>
        <g
           id="g34662"
           transform="translate(152.556,288.7257)">
          <path
             inkscape:connector-curvature="0"
             d="m 0,0 -0.293,-1.082 c -0.03,-0.112 -0.149,-0.203 -0.265,-0.203 l -2.549,0 -0.242,-0.9 2.495,0 -0.271,-1.014 c -0.03,-0.112 -0.148,-0.203 -0.264,-0.203 l -2.285,0 -0.507,-1.89 -1.264,0 c -0.116,0 -0.185,0.091 -0.155,0.203 L -4.233,0 0,0 z"
             style="fill:#62bb46;fill-opacity:1;fill-rule:nonzero;stroke:none"
             id="path34664" />
        </g>
        <g
           id="g34666"
           transform="translate(141.7039,291.0274)">
          <path
             inkscape:connector-curvature="0"
             d="m 0,0 -3.002,0 c -0.092,0 -0.208,-0.062 -0.26,-0.138 l -0.646,-0.958 3.662,0 c 0.147,-0.002 0.286,-0.076 0.304,-0.248 0.02,-0.214 -0.208,-0.41 -0.419,-0.41 l -1.637,0 c -0.093,0 -0.209,-0.062 -0.26,-0.138 l -0.647,-0.958 2.356,0 c 0.917,0 1.87,0.799 1.835,1.679 C 1.259,-0.476 0.645,0 0,0"
             style="fill:#62bb46;fill-opacity:1;fill-rule:nonzero;stroke:none"
             id="path34668" />
        </g>
        <g
           id="g34670"
           transform="translate(136.8087,289.9316)">
          <path
             inkscape:connector-curvature="0"
             d="m 0,0 -4.104,0 0.646,0.957 c 0.052,0.077 0.168,0.139 0.26,0.139 l 4.104,0 L 0.26,0.138 C 0.209,0.061 0.092,0 0,0"
             style="fill:#62bb46;fill-opacity:1;fill-rule:nonzero;stroke:none"
             id="path34672" />
        </g>
        <g
           id="g34674"
           transform="translate(134.4332,286.7729)">
          <path
             inkscape:connector-curvature="0"
             d="m 0,0 0.262,2.501 1.22,0 -0.265,-2.524 1.609,2.386 c 0.052,0.076 0.168,0.138 0.26,0.138 l 1.176,0 L 2.434,-0.21 C 2.382,-0.288 2.266,-0.349 2.174,-0.349 l -1.86,0 C 0.12,-0.349 -0.02,-0.193 0,0"
             style="fill:#62bb46;fill-opacity:1;fill-rule:nonzero;stroke:none"
             id="path34676" />
        </g>
        <g
           id="g34678"
           transform="translate(141.4687,286.424)">
          <path
             inkscape:connector-curvature="0"
             d="m 0,0 -3.852,0 0.646,0.958 c 0.051,0.076 0.168,0.138 0.259,0.138 l 3.853,0 L 0.259,0.139 C 0.208,0.061 0.092,0 0,0"
             style="fill:#62bb46;fill-opacity:1;fill-rule:nonzero;stroke:none"
             id="path34680" />
        </g>
      </g>
    </g>
  </g>
</svg>
