<?xml version="1.0" encoding="UTF-8" standalone="yes"?>
<svg xmlns="http://www.w3.org/2000/svg" xmlns:xlink="http://www.w3.org/1999/xlink" width="253.33333333333331px" height="106.66666666666666px" viewBox="0 0 190 80" version="1.1">
  <defs>
    <clipPath id="clip1">
      <path d="M 53 0.09375 L 114 0.09375 L 114 79.847656 L 53 79.847656 Z M 53 0.09375 "/>
    </clipPath>
    <clipPath id="clip2">
      <path d="M 170 31 L 189.90625 31 L 189.90625 69 L 170 69 Z M 170 31 "/>
    </clipPath>
  </defs>
  <g id="surface1">
    <g clip-path="url(#clip1)" clip-rule="nonzero">
      <path style=" stroke:none;fill-rule:nonzero;fill:rgb(65.490196%,66.27451%,67.45098%);fill-opacity:1;" d="M 53.945312 79.851562 L 60.183594 79.851562 L 113.96875 0.0898438 L 107.738281 0.0898438 Z M 53.945312 79.851562 "/>
    </g>
    <g clip-path="url(#clip2)" clip-rule="nonzero">
      <path style=" stroke:none;fill-rule:nonzero;fill:rgb(38.431373%,73.333333%,27.45098%);fill-opacity:1;" d="M 188.785156 31.996094 C 189.585938 31.996094 190.074219 32.628906 189.863281 33.402344 L 180.390625 68.671875 L 171.683594 68.671875 C 170.878906 68.671875 170.394531 68.039062 170.609375 67.265625 L 180.074219 31.996094 Z M 188.785156 31.996094 "/>
    </g>
    <path style=" stroke:none;fill-rule:nonzero;fill:rgb(38.431373%,73.333333%,27.45098%);fill-opacity:1;" d="M 153.382812 49.601562 C 157.941406 49.601562 160.929688 47.660156 160.929688 44.519531 C 160.929688 43.523438 160.609375 42.738281 159.984375 42.054688 C 159.148438 41.214844 157.621094 40.796875 155.472656 40.796875 L 149.980469 40.796875 L 147.566406 49.601562 Z M 132.640625 67.265625 L 142.121094 31.996094 L 155.945312 31.996094 C 162.078125 31.996094 166.109375 33.355469 168.570312 35.824219 C 170.511719 37.761719 171.40625 40.375 171.40625 43.3125 C 171.40625 49.441406 167.890625 54.265625 160.402344 56.308594 C 160.402344 56.308594 161.84375 59.890625 163.359375 61.070312 C 165.023438 62.359375 166.832031 62.601562 167.71875 62.601562 L 166.109375 68.535156 C 166.109375 68.535156 164.261719 69.109375 161.121094 69.109375 C 158.039062 69.109375 154.242188 67.25 152.5 63.378906 C 151.796875 61.789062 149.980469 57.5625 149.980469 57.5625 L 145.46875 57.5625 L 142.488281 68.671875 L 133.722656 68.671875 C 132.917969 68.671875 132.433594 68.042969 132.640625 67.265625 "/>
    <path style=" stroke:none;fill-rule:nonzero;fill:rgb(38.431373%,73.333333%,27.45098%);fill-opacity:1;" d="M 137.652344 31.996094 L 135.621094 39.496094 C 135.414062 40.269531 134.589844 40.902344 133.785156 40.902344 L 116.121094 40.902344 L 114.445312 47.140625 L 131.734375 47.140625 L 129.855469 54.167969 C 129.648438 54.941406 128.828125 55.574219 128.027344 55.574219 L 112.191406 55.574219 L 108.679688 68.671875 L 99.921875 68.671875 C 99.117188 68.671875 98.640625 68.039062 98.847656 67.265625 L 108.320312 31.996094 Z M 137.652344 31.996094 "/>
    <path style=" stroke:none;fill-rule:nonzero;fill:rgb(38.431373%,73.333333%,27.45098%);fill-opacity:1;" d="M 62.453125 16.046875 L 41.652344 16.046875 C 41.015625 16.046875 40.210938 16.476562 39.851562 17 L 35.375 23.640625 L 60.75 23.640625 C 61.765625 23.65625 62.730469 24.167969 62.855469 25.359375 C 62.992188 26.84375 61.414062 28.199219 59.953125 28.199219 L 48.609375 28.199219 C 47.964844 28.199219 47.160156 28.628906 46.808594 29.15625 L 42.324219 35.796875 L 58.648438 35.796875 C 65.003906 35.796875 71.605469 30.257812 71.363281 24.160156 C 71.175781 19.34375 66.921875 16.046875 62.453125 16.046875 "/>
    <path style=" stroke:none;fill-rule:nonzero;fill:rgb(38.431373%,73.333333%,27.45098%);fill-opacity:1;" d="M 28.53125 23.640625 L 0.09375 23.640625 L 4.570312 17.007812 C 4.933594 16.472656 5.734375 16.042969 6.371094 16.042969 L 34.8125 16.042969 L 30.335938 22.683594 C 29.980469 23.21875 29.171875 23.640625 28.53125 23.640625 "/>
    <path style=" stroke:none;fill-rule:nonzero;fill:rgb(38.431373%,73.333333%,27.45098%);fill-opacity:1;" d="M 12.074219 45.53125 L 13.886719 28.199219 L 22.339844 28.199219 L 20.503906 45.6875 L 31.65625 29.152344 C 32.015625 28.628906 32.820312 28.199219 33.457031 28.199219 L 41.605469 28.199219 L 28.9375 46.984375 C 28.578125 47.527344 27.773438 47.949219 27.136719 47.949219 L 14.25 47.949219 C 12.902344 47.949219 11.933594 46.867188 12.074219 45.53125 "/>
    <path style=" stroke:none;fill-rule:nonzero;fill:rgb(38.431373%,73.333333%,27.45098%);fill-opacity:1;" d="M 60.824219 47.949219 L 34.132812 47.949219 L 38.609375 41.308594 C 38.960938 40.78125 39.773438 40.351562 40.402344 40.351562 L 67.101562 40.351562 L 62.617188 46.984375 C 62.265625 47.523438 61.460938 47.949219 60.824219 47.949219 "/>
  </g>
</svg>