<?xml version="1.0" encoding="UTF-8" ?>
<!DOCTYPE svg PUBLIC "-//W3C//DTD SVG 1.1//EN" "http://www.w3.org/Graphics/SVG/1.1/DTD/svg11.dtd">
<svg width="400pt" height="400pt" viewBox="0 0 400 400" version="1.1" xmlns="http://www.w3.org/2000/svg">
<g id="#ed1966ff">
<path fill="#ed1966" opacity="1.00" d=" M 339.52 27.86 C 358.03 24.79 376.44 21.08 394.95 17.95 C 394.91 115.78 395.07 213.61 394.87 311.43 C 376.40 314.78 357.91 318.03 339.48 321.54 C 339.45 223.65 339.37 125.75 339.52 27.86 Z" />
<path fill="#ed1966" opacity="1.00" d=" M 161.03 60.44 C 171.97 58.62 182.81 55.86 193.94 55.50 C 207.99 55.34 222.63 58.36 234.07 66.90 C 246.18 75.57 253.27 90.27 253.67 105.03 C 254.45 121.37 248.20 137.48 238.28 150.28 C 225.38 166.68 206.72 178.18 186.61 183.41 C 200.36 183.05 214.70 184.22 227.04 190.85 C 240.44 197.56 249.99 210.74 253.41 225.20 C 254.88 232.71 254.79 240.41 255.07 248.03 C 254.93 277.69 255.31 307.36 254.88 337.01 C 242.67 338.60 229.48 337.84 218.63 331.51 C 209.90 326.42 204.74 316.99 202.40 307.42 C 198.21 290.61 199.59 273.13 199.31 255.97 C 199.01 244.96 200.33 233.80 197.97 222.93 C 196.18 212.99 190.72 203.24 181.62 198.33 C 169.67 191.74 155.40 192.12 142.23 193.50 C 142.23 192.47 142.21 190.41 142.21 189.38 C 158.77 186.44 175.56 179.80 186.72 166.72 C 197.68 154.20 201.92 137.26 202.44 120.96 C 203.16 104.86 199.55 87.65 188.80 75.18 C 181.99 67.26 171.43 63.15 161.06 63.86 C 161.05 62.72 161.04 61.58 161.03 60.44 Z" />
</g>
<g id="#512a7dff">
<path fill="#512a7d" opacity="1.00" d=" M 269.49 40.67 C 288.00 37.28 306.54 34.01 325.04 30.55 C 325.04 125.36 325.05 220.18 325.04 315.00 C 325.07 318.07 325.10 321.15 324.86 324.22 C 306.39 327.35 287.95 330.78 269.54 334.23 C 269.38 236.38 269.49 138.52 269.49 40.67 Z" />
<path fill="#512a7d" opacity="1.00" d=" M 75.10 75.88 C 98.95 71.89 122.75 67.55 146.54 63.27 C 146.59 92.01 146.58 120.76 146.55 149.50 C 145.19 149.70 143.84 149.89 142.48 150.10 C 139.80 130.68 134.33 110.30 120.04 96.07 C 108.32 84.33 91.29 79.70 75.06 80.11 C 75.07 78.70 75.08 77.29 75.10 75.88 Z" />
<path fill="#512a7d" opacity="1.00" d=" M 5.03 88.67 C 23.50 85.13 42.06 82.04 60.52 78.46 C 60.57 176.35 60.61 274.24 60.50 372.13 C 41.99 375.26 23.56 378.85 5.06 382.06 C 5.00 284.26 5.07 186.47 5.03 88.67 Z" />
<path fill="#512a7d" opacity="1.00" d=" M 123.68 153.54 C 124.95 153.18 126.23 152.82 127.51 152.47 C 127.88 154.94 127.77 157.45 127.76 159.94 C 127.75 186.10 127.77 212.26 127.75 238.42 C 126.41 238.61 125.08 238.81 123.75 239.00 C 121.06 228.37 114.84 218.42 105.45 212.51 C 96.53 206.61 85.46 204.84 74.95 205.76 C 74.95 204.41 74.96 203.06 74.97 201.72 C 97.98 195.35 117.78 176.98 123.68 153.54 Z" />
</g>
</svg>
