<?xml version="1.0" encoding="UTF-8" standalone="yes"?>
<svg xmlns="http://www.w3.org/2000/svg" xmlns:xlink="http://www.w3.org/1999/xlink" width="106.66666666666666px" height="106.66666666666666px" viewBox="0 0 80 80" version="1.1">
  <g id="surface1">
    <path style=" stroke:none;fill-rule:nonzero;fill:rgb(49.803922%,20%,31.764706%);fill-opacity:1;" d="M 62.648438 1.15625 C 63.257812 1.054688 63.855469 0.761719 64.480469 0.820312 C 65.125 0.945312 65.34375 1.867188 64.820312 2.265625 C 63.292969 3.578125 61.753906 4.878906 60.210938 6.175781 C 60.25 5.867188 60.332031 5.566406 60.496094 5.300781 C 60.988281 4.457031 61.496094 3.621094 61.976562 2.769531 C 62.253906 2.265625 62.679688 1.785156 62.648438 1.171875 Z M 62.648438 1.15625 "/>
    <path style=" stroke:none;fill-rule:nonzero;fill:rgb(55.294118%,21.960784%,33.333333%);fill-opacity:1;" d="M 60.007812 1.8125 C 60.886719 1.59375 61.761719 1.367188 62.648438 1.171875 C 62.679688 1.785156 62.253906 2.265625 61.976562 2.769531 C 61.496094 3.621094 60.988281 4.457031 60.496094 5.300781 C 60.332031 5.566406 60.25 5.867188 60.210938 6.175781 C 58.503906 7.621094 56.8125 9.085938 55.085938 10.507812 C 55.25 10.132812 55.40625 9.75 55.621094 9.394531 C 57.078125 6.863281 58.578125 4.359375 60.007812 1.8125 Z M 60.007812 1.8125 "/>
    <path style=" stroke:none;fill-rule:nonzero;fill:rgb(61.960784%,24.313725%,34.117647%);fill-opacity:1;" d="M 55.25 2.976562 C 56.832031 2.582031 58.421875 2.203125 60.007812 1.8125 C 58.578125 4.359375 57.078125 6.863281 55.621094 9.394531 C 55.40625 9.75 55.25 10.132812 55.085938 10.507812 C 52.46875 12.75 49.84375 14.996094 47.191406 17.195312 C 47.390625 16.390625 47.902344 15.734375 48.300781 15.027344 C 50.59375 11 53.003906 7.035156 55.25 2.976562 Z M 55.25 2.976562 "/>
    <path style=" stroke:none;fill-rule:nonzero;fill:rgb(69.803922%,26.27451%,33.72549%);fill-opacity:1;" d="M 48.867188 4.539062 C 50.996094 4.023438 53.121094 3.496094 55.25 2.976562 C 53.003906 7.035156 50.59375 11 48.300781 15.027344 C 47.902344 15.734375 47.390625 16.390625 47.191406 17.195312 C 46.210938 18.070312 45.210938 19.007812 43.929688 19.414062 C 42.742188 19.816406 41.445312 19.75 40.238281 19.46875 C 42.652344 15.359375 45.03125 11.230469 47.433594 7.109375 C 47.910156 6.261719 48.449219 5.4375 48.863281 4.550781 Z M 48.867188 4.539062 "/>
    <path style=" stroke:none;fill-rule:nonzero;fill:rgb(77.647059%,27.843137%,31.372549%);fill-opacity:1;" d="M 42.421875 6.125 C 44.566406 5.597656 46.710938 5.0625 48.863281 4.550781 C 48.449219 5.4375 47.910156 6.261719 47.433594 7.109375 C 45.03125 11.230469 42.652344 15.359375 40.238281 19.46875 C 38.710938 19.160156 37.183594 18.84375 35.652344 18.542969 L 35.660156 18.53125 C 38.019531 14.496094 40.363281 10.453125 42.710938 6.414062 C 42.636719 6.339844 42.496094 6.195312 42.421875 6.125 Z M 42.421875 6.125 "/>
    <path style=" stroke:none;fill-rule:nonzero;fill:rgb(83.921569%,28.627451%,28.235294%);fill-opacity:1;" d="M 34.003906 8.179688 C 36.8125 7.507812 39.613281 6.808594 42.421875 6.125 C 42.496094 6.195312 42.636719 6.339844 42.710938 6.414062 C 40.363281 10.453125 38.019531 14.496094 35.660156 18.53125 C 33.46875 18.105469 31.285156 17.648438 29.101562 17.207031 C 29.5625 16.089844 30.289062 15.117188 30.859375 14.054688 C 31.816406 12.355469 32.8125 10.679688 33.804688 8.996094 C 33.964844 8.761719 34.023438 8.484375 34.003906 8.203125 Z M 34.003906 8.179688 "/>
    <path style=" stroke:none;fill-rule:nonzero;fill:rgb(89.019608%,29.019608%,25.098039%);fill-opacity:1;" d="M 26.617188 10.003906 C 29.078125 9.398438 31.535156 8.78125 34.003906 8.203125 C 34.023438 8.484375 33.964844 8.761719 33.804688 8.996094 C 32.8125 10.679688 31.816406 12.355469 30.859375 14.054688 C 30.289062 15.117188 29.5625 16.089844 29.101562 17.207031 C 27.171875 16.8125 25.238281 16.425781 23.308594 16.03125 C 23.757812 14.921875 24.488281 13.960938 25.039062 12.902344 C 25.539062 11.921875 26.242188 11.046875 26.617188 10.003906 Z M 26.617188 10.003906 "/>
    <path style=" stroke:none;fill-rule:nonzero;fill:rgb(91.372549%,29.019608%,23.137255%);fill-opacity:1;" d="M 15.511719 12.726562 C 19.214844 11.816406 22.914062 10.90625 26.617188 10.003906 C 26.242188 11.046875 25.539062 11.921875 25.039062 12.902344 C 24.488281 13.960938 23.757812 14.921875 23.308594 16.03125 C 20.691406 15.5 18.070312 14.972656 15.453125 14.433594 C 15 14.34375 14.503906 13.972656 14.589844 13.457031 C 14.675781 13.027344 15.121094 12.808594 15.511719 12.726562 Z M 15.511719 12.726562 "/>
    <path style=" stroke:none;fill-rule:nonzero;fill:rgb(81.960784%,33.72549%,21.960784%);fill-opacity:1;" d="M 17.175781 20.699219 C 17.90625 20.203125 18.835938 20.601562 19.648438 20.585938 C 20.65625 21.980469 21.894531 23.191406 22.902344 24.585938 C 21.085938 23.761719 19.289062 22.898438 17.492188 22.035156 C 16.980469 21.832031 16.671875 21.078125 17.175781 20.699219 Z M 17.175781 20.699219 "/>
    <path style=" stroke:none;fill-rule:nonzero;fill:rgb(83.921569%,38.431373%,21.960784%);fill-opacity:1;" d="M 19.648438 20.585938 C 20.707031 20.671875 21.765625 20.761719 22.824219 20.847656 C 24.242188 22.628906 25.761719 24.328125 27.210938 26.078125 C 27.390625 26.3125 27.511719 26.574219 27.636719 26.835938 C 26.058594 26.09375 24.464844 25.363281 22.902344 24.585938 C 21.894531 23.191406 20.65625 21.980469 19.648438 20.585938 Z M 19.648438 20.585938 "/>
    <path style=" stroke:none;fill-rule:nonzero;fill:rgb(86.666667%,44.705882%,21.960784%);fill-opacity:1;" d="M 22.824219 20.847656 C 24.589844 20.992188 26.351562 21.15625 28.117188 21.28125 L 28.117188 21.304688 C 28.058594 21.585938 28.175781 21.835938 28.371094 22.035156 C 30.273438 24.238281 32.140625 26.476562 34.019531 28.703125 C 34.496094 29.277344 35.035156 29.808594 35.363281 30.488281 C 32.785156 29.28125 30.210938 28.0625 27.636719 26.835938 C 27.511719 26.574219 27.390625 26.3125 27.210938 26.078125 C 25.761719 24.328125 24.242188 22.628906 22.824219 20.847656 Z M 22.824219 20.847656 "/>
    <path style=" stroke:none;fill-rule:nonzero;fill:rgb(89.411765%,50.980392%,22.352941%);fill-opacity:1;" d="M 28.371094 22.035156 C 28.175781 21.835938 28.058594 21.585938 28.117188 21.304688 C 29.28125 21.375 30.441406 21.484375 31.601562 21.585938 C 32.265625 22.582031 33.144531 23.410156 33.878906 24.355469 C 36.09375 26.945312 38.277344 29.566406 40.480469 32.167969 C 40.8125 32.515625 41.105469 32.898438 41.355469 33.308594 C 39.34375 32.398438 37.359375 31.433594 35.363281 30.488281 C 35.035156 29.808594 34.496094 29.277344 34.019531 28.703125 C 32.140625 26.476562 30.273438 24.238281 28.371094 22.035156 Z M 28.371094 22.035156 "/>
    <path style=" stroke:none;fill-rule:nonzero;fill:rgb(92.54902%,58.039216%,21.568627%);fill-opacity:1;" d="M 31.601562 21.585938 C 34.390625 21.8125 37.179688 22.042969 39.972656 22.277344 C 40.488281 23.171875 41.238281 23.886719 41.878906 24.6875 C 44.375 27.714844 46.980469 30.648438 49.445312 33.699219 C 48.273438 34.246094 47.121094 35.070312 45.757812 34.945312 C 44.175781 34.800781 42.761719 33.972656 41.355469 33.308594 C 41.105469 32.898438 40.8125 32.515625 40.480469 32.167969 C 38.277344 29.566406 36.09375 26.945312 33.878906 24.355469 C 33.144531 23.410156 32.265625 22.582031 31.601562 21.585938 Z M 31.601562 21.585938 "/>
    <path style=" stroke:none;fill-rule:nonzero;fill:rgb(96.862745%,66.666667%,20.392157%);fill-opacity:1;" d="M 39.972656 22.277344 C 43.132812 22.542969 46.296875 22.796875 49.460938 23.070312 C 49.613281 23.414062 49.785156 23.757812 50.042969 24.035156 C 51.183594 25.296875 52.21875 26.648438 53.351562 27.921875 C 54.070312 28.835938 54.894531 29.667969 55.570312 30.621094 C 53.53125 31.648438 51.484375 32.664062 49.445312 33.699219 C 46.980469 30.648438 44.375 27.714844 41.878906 24.6875 C 41.238281 23.886719 40.488281 23.171875 39.972656 22.277344 Z M 39.972656 22.277344 "/>
    <path style=" stroke:none;fill-rule:nonzero;fill:rgb(97.647059%,69.803922%,16.078431%);fill-opacity:1;" d="M 49.460938 23.070312 C 51.378906 23.21875 53.292969 23.398438 55.210938 23.539062 L 55.222656 23.558594 C 55.757812 24.78125 56.867188 25.617188 57.640625 26.675781 C 58.144531 27.402344 58.902344 27.945312 59.238281 28.777344 C 58.015625 29.390625 56.796875 30.007812 55.570312 30.621094 C 54.894531 29.667969 54.070312 28.835938 53.351562 27.921875 C 52.21875 26.648438 51.183594 25.296875 50.042969 24.035156 C 49.785156 23.757812 49.613281 23.414062 49.460938 23.070312 Z M 49.460938 23.070312 "/>
    <path style=" stroke:none;fill-rule:nonzero;fill:rgb(98.431373%,72.54902%,10.980392%);fill-opacity:1;" d="M 55.222656 23.558594 C 56.054688 23.601562 56.882812 23.691406 57.710938 23.753906 C 58.300781 24.535156 58.960938 25.257812 59.589844 26.003906 C 60.089844 26.585938 60.535156 27.214844 61.101562 27.734375 L 61.117188 27.8125 C 60.511719 28.167969 59.859375 28.449219 59.238281 28.777344 C 58.902344 27.945312 58.144531 27.402344 57.640625 26.675781 C 56.867188 25.617188 55.757812 24.78125 55.222656 23.558594 Z M 55.222656 23.558594 "/>
    <path style=" stroke:none;fill-rule:nonzero;fill:rgb(98.823529%,74.509804%,7.058824%);fill-opacity:1;" d="M 57.710938 23.753906 C 58.871094 23.851562 60.03125 23.945312 61.191406 24.046875 C 61.707031 25.078125 62.660156 25.789062 63.273438 26.753906 C 62.589844 27.078125 61.929688 27.460938 61.238281 27.753906 L 61.101562 27.734375 C 60.535156 27.214844 60.089844 26.585938 59.589844 26.003906 C 58.960938 25.257812 58.300781 24.535156 57.710938 23.753906 Z M 57.710938 23.753906 "/>
    <path style=" stroke:none;fill-rule:nonzero;fill:rgb(99.215686%,76.862745%,3.137255%);fill-opacity:1;" d="M 61.191406 24.046875 C 62.289062 24.136719 63.390625 24.222656 64.484375 24.320312 C 64.875 24.339844 65.324219 24.546875 65.402344 24.96875 C 65.496094 25.386719 65.191406 25.78125 64.832031 25.960938 C 64.320312 26.238281 63.792969 26.488281 63.273438 26.753906 C 62.660156 25.789062 61.707031 25.078125 61.191406 24.046875 Z M 61.191406 24.046875 "/>
    <path style=" stroke:none;fill-rule:nonzero;fill:rgb(17.647059%,48.627451%,27.45098%);fill-opacity:1;" d="M 22.359375 30.40625 C 22.511719 29.859375 23.191406 29.789062 23.644531 29.972656 C 24.398438 30.242188 25.167969 30.484375 25.902344 30.796875 C 26.121094 30.980469 26.335938 31.183594 26.582031 31.335938 C 32.457031 34.703125 38.332031 38.078125 44.210938 41.441406 C 44.101562 42.246094 44 43.050781 43.886719 43.855469 C 40.621094 42.054688 37.40625 40.164062 34.175781 38.300781 C 30.945312 36.472656 27.726562 34.621094 24.511719 32.761719 C 24.050781 32.476562 23.582031 32.1875 23.039062 32.089844 C 22.691406 31.605469 22.203125 31.046875 22.359375 30.40625 Z M 22.359375 30.40625 "/>
    <path style=" stroke:none;fill-rule:nonzero;fill:rgb(14.117647%,42.352941%,27.058824%);fill-opacity:1;" d="M 25.902344 30.796875 C 29.042969 31.886719 32.183594 33.003906 35.296875 34.164062 C 35.511719 34.371094 35.726562 34.59375 35.992188 34.738281 C 38.808594 36.304688 41.585938 37.941406 44.382812 39.539062 C 44.414062 40.175781 44.296875 40.808594 44.210938 41.441406 C 38.332031 38.078125 32.457031 34.703125 26.582031 31.335938 C 26.335938 31.183594 26.121094 30.980469 25.902344 30.796875 Z M 25.902344 30.796875 "/>
    <path style=" stroke:none;fill-rule:nonzero;fill:rgb(23.529412%,55.686275%,27.058824%);fill-opacity:1;" d="M 23.039062 32.089844 C 23.582031 32.1875 24.050781 32.476562 24.511719 32.761719 C 27.726562 34.621094 30.945312 36.472656 34.175781 38.300781 C 37.40625 40.164062 40.621094 42.054688 43.886719 43.855469 C 43.761719 44.816406 43.625 45.777344 43.507812 46.738281 L 43.492188 46.730469 C 38.195312 43.710938 32.917969 40.664062 27.625 37.640625 C 27.1875 37.394531 26.773438 37.035156 26.242188 37.054688 C 25.167969 35.40625 24.082031 33.761719 23.039062 32.089844 Z M 23.039062 32.089844 "/>
    <path style=" stroke:none;fill-rule:nonzero;fill:rgb(5.882353%,36.862745%,26.666667%);fill-opacity:1;" d="M 35.296875 34.164062 C 37.554688 34.910156 39.777344 35.757812 42.019531 36.546875 C 43.300781 36.980469 44.195312 38.21875 44.382812 39.539062 C 41.585938 37.941406 38.808594 36.304688 35.992188 34.738281 C 35.726562 34.59375 35.511719 34.371094 35.296875 34.164062 Z M 35.296875 34.164062 "/>
    <path style=" stroke:none;fill-rule:nonzero;fill:rgb(30.980392%,61.176471%,26.666667%);fill-opacity:1;" d="M 26.242188 37.054688 C 26.773438 37.035156 27.1875 37.394531 27.625 37.640625 C 32.917969 40.664062 38.195312 43.710938 43.492188 46.730469 C 43.421875 47.375 43.328125 48.019531 43.242188 48.660156 C 40.417969 47.1875 37.714844 45.5 34.9375 43.945312 C 33.039062 42.851562 31.125 41.789062 29.234375 40.683594 C 28.976562 40.539062 28.691406 40.449219 28.40625 40.371094 L 28.375 40.359375 C 27.671875 39.253906 26.945312 38.160156 26.242188 37.054688 Z M 26.242188 37.054688 "/>
    <path style=" stroke:none;fill-rule:nonzero;fill:rgb(35.686275%,65.882353%,25.490196%);fill-opacity:1;" d="M 28.40625 40.371094 C 28.691406 40.449219 28.976562 40.539062 29.234375 40.683594 C 31.125 41.789062 33.039062 42.851562 34.9375 43.945312 C 37.714844 45.5 40.417969 47.1875 43.242188 48.660156 C 43.066406 49.992188 42.871094 51.324219 42.71875 52.660156 L 42.691406 52.632812 C 42.089844 51.964844 41.214844 51.675781 40.488281 51.183594 C 38.351562 49.957031 36.210938 48.738281 34.070312 47.511719 C 33.632812 47.265625 33.210938 46.890625 32.667969 46.964844 C 31.242188 44.769531 29.800781 42.585938 28.40625 40.371094 Z M 28.40625 40.371094 "/>
    <path style=" stroke:none;fill-rule:nonzero;fill:rgb(39.607843%,70.196078%,24.313725%);fill-opacity:1;" d="M 32.667969 46.964844 C 33.210938 46.890625 33.632812 47.265625 34.070312 47.511719 C 36.210938 48.738281 38.351562 49.957031 40.488281 51.183594 C 41.214844 51.675781 42.089844 51.964844 42.691406 52.632812 C 42.480469 54.429688 42.222656 56.21875 41.980469 58.007812 C 41.886719 58.460938 41.773438 59.054688 41.273438 59.214844 C 40.71875 59.261719 40.335938 58.742188 40.042969 58.339844 C 37.582031 54.550781 35.121094 50.761719 32.667969 46.964844 Z M 32.667969 46.964844 "/>
    <path style=" stroke:none;fill-rule:nonzero;fill:rgb(34.117647%,33.333333%,32.941176%);fill-opacity:1;" d="M 33.402344 70.636719 C 33.695312 70.617188 33.988281 70.617188 34.28125 70.628906 C 35.453125 73.492188 36.644531 76.339844 37.824219 79.199219 C 37.398438 79.203125 36.972656 79.210938 36.546875 79.171875 C 36.324219 78.503906 36.054688 77.847656 35.796875 77.1875 C 34.488281 77.191406 33.183594 77.191406 31.875 77.1875 C 31.621094 77.847656 31.363281 78.511719 31.132812 79.183594 C 30.710938 79.203125 30.289062 79.203125 29.867188 79.199219 C 31.039062 76.34375 32.242188 73.496094 33.402344 70.636719 M 33.835938 72.046875 C 33.308594 73.46875 32.753906 74.878906 32.21875 76.300781 C 33.289062 76.300781 34.363281 76.292969 35.433594 76.304688 C 34.941406 74.871094 34.378906 73.460938 33.835938 72.046875 Z M 33.835938 72.046875 "/>
    <path style=" stroke:none;fill-rule:nonzero;fill:rgb(34.117647%,33.333333%,32.941176%);fill-opacity:1;" d="M 51.21875 70.617188 C 51.5 70.617188 51.785156 70.621094 52.066406 70.621094 C 53.246094 73.480469 54.4375 76.339844 55.617188 79.199219 C 55.203125 79.199219 54.785156 79.199219 54.371094 79.199219 C 54.105469 78.53125 53.859375 77.851562 53.585938 77.1875 C 52.277344 77.195312 50.96875 77.1875 49.664062 77.191406 C 49.410156 77.859375 49.15625 78.523438 48.910156 79.195312 C 48.496094 79.199219 48.074219 79.203125 47.65625 79.199219 C 48.84375 76.339844 50.019531 73.472656 51.21875 70.617188 M 51.621094 72.09375 C 51.078125 73.496094 50.542969 74.898438 50.007812 76.300781 C 51.089844 76.289062 52.171875 76.324219 53.25 76.28125 C 52.683594 74.894531 52.230469 73.460938 51.621094 72.09375 Z M 51.621094 72.09375 "/>
    <path style=" stroke:none;fill-rule:nonzero;fill:rgb(34.117647%,33.333333%,32.941176%);fill-opacity:1;" d="M 0.644531 70.789062 C 2.777344 70.789062 4.90625 70.792969 7.039062 70.789062 C 7.058594 71.492188 7.054688 72.195312 7.042969 72.902344 C 5.636719 72.902344 4.234375 72.898438 2.832031 72.902344 C 2.832031 73.214844 2.828125 73.53125 2.828125 73.847656 C 4.070312 73.855469 5.308594 73.847656 6.550781 73.851562 C 6.550781 74.554688 6.550781 75.257812 6.546875 75.960938 C 5.308594 75.960938 4.070312 75.957031 2.832031 75.960938 C 2.832031 77.039062 2.828125 78.117188 2.832031 79.195312 C 2.101562 79.203125 1.371094 79.199219 0.640625 79.199219 C 0.644531 76.394531 0.632812 73.59375 0.644531 70.789062 Z M 0.644531 70.789062 "/>
    <path style=" stroke:none;fill-rule:nonzero;fill:rgb(34.117647%,33.333333%,32.941176%);fill-opacity:1;" d="M 8.570312 70.792969 C 9.875 70.789062 11.183594 70.78125 12.488281 70.796875 C 13.410156 70.808594 14.4375 71.105469 14.9375 71.941406 C 15.6875 73.238281 15.382812 75.027344 14.222656 75.980469 C 14.84375 77.058594 15.492188 78.121094 16.117188 79.199219 C 15.269531 79.199219 14.421875 79.199219 13.570312 79.199219 C 13.042969 78.269531 12.527344 77.332031 12 76.402344 C 11.585938 76.394531 11.167969 76.394531 10.753906 76.417969 C 10.765625 77.34375 10.757812 78.273438 10.757812 79.199219 C 10.027344 79.199219 9.300781 79.199219 8.570312 79.199219 C 8.570312 76.398438 8.570312 73.59375 8.570312 70.792969 M 10.761719 72.902344 C 10.761719 73.363281 10.761719 73.824219 10.761719 74.289062 C 11.382812 74.269531 12.015625 74.339844 12.636719 74.238281 C 13.222656 74.109375 13.222656 73.066406 12.628906 72.949219 C 12.011719 72.847656 11.382812 72.917969 10.761719 72.902344 Z M 10.761719 72.902344 "/>
    <path style=" stroke:none;fill-rule:nonzero;fill:rgb(34.117647%,33.333333%,32.941176%);fill-opacity:1;" d="M 17.707031 70.796875 C 18.433594 70.789062 19.160156 70.777344 19.886719 70.800781 C 19.875 73.601562 19.886719 76.398438 19.878906 79.199219 C 19.15625 79.199219 18.433594 79.199219 17.710938 79.199219 C 17.707031 76.398438 17.710938 73.597656 17.707031 70.796875 Z M 17.707031 70.796875 "/>
    <path style=" stroke:none;fill-rule:nonzero;fill:rgb(34.117647%,33.333333%,32.941176%);fill-opacity:1;" d="M 22.320312 70.792969 C 22.695312 70.789062 23.074219 70.789062 23.449219 70.789062 C 23.453125 72.054688 23.449219 73.320312 23.453125 74.585938 C 24.726562 73.324219 25.992188 72.050781 27.269531 70.789062 C 27.800781 70.789062 28.332031 70.789062 28.863281 70.792969 C 27.660156 71.957031 26.4375 73.097656 25.230469 74.257812 C 26.589844 75.910156 27.957031 77.550781 29.320312 79.199219 C 28.824219 79.199219 28.328125 79.199219 27.832031 79.199219 C 26.722656 77.78125 25.617188 76.363281 24.507812 74.945312 C 24.152344 75.277344 23.796875 75.609375 23.449219 75.953125 C 23.453125 77.035156 23.445312 78.113281 23.453125 79.195312 C 23.074219 79.199219 22.699219 79.199219 22.320312 79.199219 C 22.320312 76.398438 22.320312 73.59375 22.320312 70.792969 Z M 22.320312 70.792969 "/>
    <path style=" stroke:none;fill-rule:nonzero;fill:rgb(34.117647%,33.333333%,32.941176%);fill-opacity:1;" d="M 39.199219 70.78125 C 39.445312 70.785156 39.691406 70.789062 39.9375 70.792969 C 41.691406 72.910156 43.425781 75.046875 45.191406 77.15625 C 45.175781 75.035156 45.183594 72.910156 45.171875 70.789062 C 45.546875 70.789062 45.921875 70.789062 46.300781 70.792969 C 46.300781 73.59375 46.300781 76.398438 46.300781 79.203125 C 46.011719 79.148438 45.613281 79.335938 45.414062 79.050781 C 43.707031 76.976562 42 74.902344 40.292969 72.832031 C 40.300781 74.953125 40.308594 77.078125 40.308594 79.199219 C 39.933594 79.199219 39.558594 79.199219 39.179688 79.199219 C 39.191406 76.394531 39.15625 73.585938 39.199219 70.78125 Z M 39.199219 70.78125 "/>
    <path style=" stroke:none;fill-rule:nonzero;fill:rgb(34.117647%,33.333333%,32.941176%);fill-opacity:1;" d="M 56.980469 70.789062 C 57.347656 70.789062 57.714844 70.789062 58.082031 70.785156 C 58.125 73.246094 58.085938 75.707031 58.101562 78.171875 C 59.789062 78.171875 61.472656 78.167969 63.160156 78.171875 C 63.160156 78.511719 63.160156 78.855469 63.160156 79.199219 C 61.101562 79.203125 59.039062 79.199219 56.980469 79.199219 C 56.980469 76.394531 56.976562 73.59375 56.980469 70.789062 Z M 56.980469 70.789062 "/>
    <path style=" stroke:none;fill-rule:nonzero;fill:rgb(34.117647%,33.333333%,32.941176%);fill-opacity:1;" d="M 64.203125 70.789062 C 66.257812 70.789062 68.320312 70.789062 70.378906 70.789062 C 70.378906 71.132812 70.378906 71.480469 70.378906 71.828125 C 68.699219 71.832031 67.015625 71.828125 65.332031 71.832031 C 65.328125 72.679688 65.328125 73.523438 65.328125 74.367188 C 66.816406 74.371094 68.300781 74.367188 69.789062 74.371094 C 69.789062 74.71875 69.789062 75.0625 69.789062 75.410156 C 68.300781 75.410156 66.816406 75.40625 65.332031 75.410156 C 65.328125 76.328125 65.328125 77.25 65.332031 78.167969 C 67.015625 78.171875 68.699219 78.167969 70.378906 78.171875 C 70.378906 78.511719 70.378906 78.855469 70.378906 79.199219 C 68.320312 79.199219 66.257812 79.203125 64.199219 79.199219 C 64.203125 76.394531 64.195312 73.59375 64.203125 70.789062 Z M 64.203125 70.789062 "/>
    <path style=" stroke:none;fill-rule:nonzero;fill:rgb(34.117647%,33.333333%,32.941176%);fill-opacity:1;" d="M 78.246094 70.789062 C 78.613281 70.789062 78.984375 70.789062 79.355469 70.789062 C 79.367188 73.589844 79.355469 76.394531 79.359375 79.199219 C 79.105469 79.199219 78.855469 79.199219 78.601562 79.199219 C 76.859375 77.074219 75.109375 74.953125 73.363281 72.832031 C 73.371094 74.957031 73.367188 77.078125 73.378906 79.199219 C 73.003906 79.199219 72.625 79.199219 72.25 79.199219 C 72.25 76.398438 72.246094 73.59375 72.25 70.792969 C 72.496094 70.789062 72.742188 70.789062 72.992188 70.785156 C 74.757812 72.898438 76.488281 75.039062 78.253906 77.152344 C 78.253906 75.03125 78.234375 72.910156 78.246094 70.789062 Z M 78.246094 70.789062 "/>
  </g>
</svg>