<?xml version="1.0" encoding="UTF-8" standalone="no"?>
<!-- Created with Inkscape (http://www.inkscape.org/) -->
<svg
   xmlns:dc="http://purl.org/dc/elements/1.1/"
   xmlns:cc="http://creativecommons.org/ns#"
   xmlns:rdf="http://www.w3.org/1999/02/22-rdf-syntax-ns#"
   xmlns:svg="http://www.w3.org/2000/svg"
   xmlns="http://www.w3.org/2000/svg"
   xmlns:sodipodi="http://sodipodi.sourceforge.net/DTD/sodipodi-0.dtd"
   xmlns:inkscape="http://www.inkscape.org/namespaces/inkscape"
   width="119.01781"
   height="119.01584"
   id="svg3816"
   sodipodi:version="0.32"
   inkscape:version="0.46"
   version="1.0"
   sodipodi:docname="logo_ft.svg"
   inkscape:output_extension="org.inkscape.output.svg.inkscape">
  <defs
     id="defs3818">
    <inkscape:perspective
       sodipodi:type="inkscape:persp3d"
       inkscape:vp_x="0 : 526.18109 : 1"
       inkscape:vp_y="0 : 1000 : 0"
       inkscape:vp_z="744.09448 : 526.18109 : 1"
       inkscape:persp3d-origin="372.04724 : 350.78739 : 1"
       id="perspective3824" />
  </defs>
  <sodipodi:namedview
     id="base"
     pagecolor="#ffffff"
     bordercolor="#666666"
     borderopacity="1.0"
     gridtolerance="10000"
     guidetolerance="10"
     objecttolerance="10"
     inkscape:pageopacity="0.0"
     inkscape:pageshadow="2"
     inkscape:zoom="1.979899"
     inkscape:cx="114.88315"
     inkscape:cy="77.880738"
     inkscape:document-units="px"
     inkscape:current-layer="layer1"
     showgrid="false"
     inkscape:window-width="640"
     inkscape:window-height="543"
     inkscape:window-x="957"
     inkscape:window-y="44" />
  <metadata
     id="metadata3821">
    <rdf:RDF>
      <cc:Work
         rdf:about="">
        <dc:format>image/svg+xml</dc:format>
        <dc:type
           rdf:resource="http://purl.org/dc/dcmitype/StillImage" />
      </cc:Work>
    </rdf:RDF>
  </metadata>
  <g
     inkscape:label="Layer 1"
     inkscape:groupmode="layer"
     id="layer1"
     transform="translate(-337.20938,-494.57218)">
    <g
       transform="matrix(1.9683752,0,0,-1.9683752,360.24526,571.16087)"
       id="g2510">
      <path
         id="path2512"
         style="fill:#af0032;fill-opacity:1;fill-rule:nonzero;stroke:none"
         d="M 0,0 C -0.323,0.359 -0.575,0.769 -0.75,1.22 C -0.93,1.679 -1.024,2.161 -1.027,2.65 C -1.029,2.885 -1.222,3.076 -1.456,3.074 C -1.693,3.072 -1.883,2.879 -1.88,2.644 C -1.88,2.432 -1.864,2.221 -1.833,2.012 L -1.839,2.012 C -1.81,1.822 -1.917,1.63 -2.107,1.557 L -3.37,1.064 L -3.37,1.065 C -3.539,0.998 -3.722,1.059 -3.777,1.197 L -3.872,1.445 C -3.909,1.539 -3.878,1.689 -3.755,1.75 C -3.677,1.789 -3.519,1.881 -3.388,1.973 C -3.198,2.112 -3.156,2.381 -3.294,2.571 C -3.435,2.761 -3.7,2.804 -3.894,2.664 C -3.982,2.6 -4.078,2.541 -4.177,2.492 C -4.558,2.306 -4.977,2.25 -5.386,2.334 C -5.617,2.381 -5.844,2.23 -5.891,2 C -5.938,1.768 -5.786,1.543 -5.555,1.497 C -5.355,1.456 -5.149,1.44 -4.948,1.445 C -4.828,1.433 -4.719,1.359 -4.675,1.243 L -4.56,0.947 C -4.495,0.783 -4.578,0.594 -4.747,0.528 L -4.747,0.527 L -5.833,0.104 L -5.836,0.101 C -6.263,-0.051 -6.732,0.156 -6.896,0.571 L -6.899,0.571 C -6.927,0.644 -6.956,0.719 -6.98,0.797 C -6.992,0.839 -7.005,0.881 -7.019,0.924 L -7.013,0.922 C -7.269,1.877 -7.286,2.557 -6.321,3.184 C -6.245,3.234 -6.078,3.328 -5.985,3.379 C -5.781,3.496 -5.719,3.765 -5.841,3.966 C -5.964,4.168 -6.227,4.232 -6.427,4.11 C -6.521,4.053 -6.622,4.002 -6.727,3.963 C -7.164,3.793 -7.641,3.793 -8.081,3.955 C -8.3,4.036 -8.531,3.928 -8.622,3.726 C -8.688,3.58 -8.661,3.351 -8.489,3.214 C -8.281,3.048 -8.024,2.766 -8.024,2.213 L -8.024,2.213 C -8.044,1.644 -7.969,1.08 -7.792,0.535 C -7.613,-0.023 -7.339,-0.539 -6.977,-0.996 C -6.833,-1.176 -6.706,-1.368 -6.597,-1.568 C -6.597,-1.571 -6.594,-1.574 -6.591,-1.577 C -6.536,-1.677 -6.495,-1.787 -6.472,-1.9 C -6.414,-2.162 -6.446,-2.43 -6.56,-2.675 C -6.659,-2.889 -6.568,-3.143 -6.355,-3.243 C -6.141,-3.344 -5.888,-3.253 -5.786,-3.039 C -5.656,-2.76 -5.589,-2.464 -5.589,-2.165 C -5.578,-2.016 -5.489,-1.878 -5.344,-1.811 L -1.536,0.01 C -1.524,0.016 -1.511,0.023 -1.497,0.028 C -1.313,0.1 -1.107,0.036 -0.997,-0.115 C -0.888,-0.273 -0.769,-0.425 -0.638,-0.57 C -0.48,-0.746 -0.211,-0.76 -0.034,-0.604 C 0.14,-0.445 0.156,-0.176 0,0" />
    </g>
    <g
       transform="matrix(1.9683752,0,0,-1.9683752,354.83793,547.70099)"
       id="g2514">
      <path
         id="path2516"
         style="fill:#af0032;fill-opacity:1;fill-rule:nonzero;stroke:none"
         d="M 0,0 C -0.389,0.417 -0.858,0.732 -1.381,0.932 C -2.136,1.31 -2.522,1.638 -2.522,1.638 C -2.534,1.652 -2.555,1.661 -2.576,1.663 C -2.597,1.663 -2.62,1.654 -2.636,1.639 C -2.686,1.602 -3.097,1.318 -3.839,1.016 C -5.264,0.579 -6.321,-0.683 -6.378,-2.204 C -6.436,-3.727 -5.477,-5.066 -4.086,-5.609 C -3.367,-5.966 -2.983,-6.28 -2.936,-6.319 C -2.92,-6.336 -2.899,-6.347 -2.875,-6.348 C -2.855,-6.348 -2.836,-6.34 -2.821,-6.328 L -2.821,-6.329 C -2.821,-6.329 -2.407,-6.026 -1.616,-5.702 C -0.188,-5.267 0.872,-4.004 0.929,-2.48 C 0.963,-1.565 0.634,-0.684 0,0 M -0.05,-2.441 C -0.058,-2.633 -0.097,-2.811 -0.186,-2.998 C -0.28,-3.174 -0.407,-3.315 -0.519,-3.42 C -1.045,-3.91 -1.897,-4.182 -2.792,-4.147 C -3.691,-4.114 -4.516,-3.78 -5.006,-3.252 C -5.11,-3.138 -5.225,-2.987 -5.308,-2.803 C -5.402,-2.59 -5.402,-2.309 -5.399,-2.243 C -5.391,-2.054 -5.358,-1.893 -5.269,-1.694 C -4.883,-0.989 -3.834,-0.493 -2.657,-0.538 C -1.48,-0.582 -0.469,-1.156 -0.139,-1.889 C -0.063,-2.123 -0.045,-2.255 -0.05,-2.441" />
    </g>
    <g
       transform="matrix(1.9683752,0,0,-1.9683752,362.31205,533.66372)"
       id="g2518">
      <path
         id="path2520"
         style="fill:#af0032;fill-opacity:1;fill-rule:nonzero;stroke:none"
         d="M 0,0 C 0.004,0.238 -0.183,0.437 -0.422,0.441 C -0.889,0.453 -1.331,0.638 -1.667,0.963 C -1.746,1.04 -1.819,1.124 -1.883,1.213 C -2.024,1.406 -2.292,1.45 -2.485,1.31 C -2.678,1.171 -2.722,0.901 -2.584,0.708 C -2.524,0.625 -2.324,0.4 -2.246,0.324 C -1.532,-0.444 -1.672,-0.981 -1.959,-1.616 C -2.264,-2.287 -2.696,-2.474 -3.227,-2.177 C -3.717,-1.904 -6.675,-0.302 -6.675,-0.302 C -6.863,-0.223 -7.006,-0.02 -6.972,0.172 L -6.977,0.172 C -6.956,0.342 -6.944,0.513 -6.941,0.685 C -6.938,0.923 -7.128,1.119 -7.366,1.123 C -7.605,1.126 -7.8,0.936 -7.805,0.698 C -7.813,0.199 -7.91,-0.293 -8.094,-0.762 C -8.277,-1.224 -8.535,-1.645 -8.86,-2.01 C -9.016,-2.188 -9,-2.461 -8.824,-2.62 C -8.647,-2.778 -8.373,-2.762 -8.214,-2.584 C -8.069,-2.419 -7.938,-2.244 -7.839,-2.11 C -7.719,-1.946 -7.545,-1.893 -7.383,-1.975 C -7.014,-2.159 -3.741,-3.795 -3.61,-3.862 C -3.519,-3.909 -3.61,-3.863 -3.61,-3.863 C -3.459,-3.935 -3.344,-4.106 -3.368,-4.241 C -3.441,-4.646 -3.378,-5.059 -3.206,-5.438 C -3.11,-5.654 -2.855,-5.751 -2.636,-5.653 C -2.417,-5.555 -2.321,-5.299 -2.42,-5.083 C -2.735,-4.392 -2.36,-3.927 -2.355,-3.918 C -2.069,-3.557 -1.769,-3.255 -1.545,-2.87 C -1.386,-2.598 -1.019,-1.971 -0.881,-1.172 C -0.805,-0.736 -0.506,-0.513 -0.25,-0.381 C -0.035,-0.27 -0.003,-0.077 0,0" />
    </g>
    <g
       transform="matrix(1.9683752,0,0,-1.9683752,372.31712,521.46334)"
       id="g2522">
      <path
         id="path2524"
         style="fill:#af0032;fill-opacity:1;fill-rule:nonzero;stroke:none"
         d="M 0,0 C 0.044,0.222 0.135,0.7 -0.102,1.109 C -0.214,1.303 -0.371,1.394 -0.563,1.356 C -0.852,1.3 -0.896,1.065 -0.917,0.874 C -0.933,0.71 -0.985,0.567 -1.079,0.468 C -1.172,0.368 -1.519,0.086 -2.089,0.596 C -2.547,1.071 -3.646,1.726 -4.675,0.915 C -4.691,0.903 -4.701,0.89 -4.714,0.878 C -4.714,0.878 -4.55,2.757 -4.497,3.441 C -4.49,3.54 -4.497,3.88 -4.394,4.069 C -4.355,4.14 -4.183,4.377 -4.183,4.377 C -4.107,4.49 -4.037,4.607 -3.972,4.728 C -3.86,4.935 -3.935,5.194 -4.144,5.307 C -4.349,5.42 -4.61,5.343 -4.722,5.136 C -4.956,4.708 -5.121,4.451 -5.5,4.132 C -5.871,3.821 -6.289,3.581 -6.743,3.42 C -6.964,3.341 -7.081,3.097 -7.003,2.875 C -6.922,2.653 -6.677,2.533 -6.456,2.614 C -6.388,2.64 -6.247,2.7 -6.154,2.735 C -5.904,2.827 -5.477,2.567 -5.472,2.06 L -5.657,-0.142 C -5.664,-0.184 -5.685,-0.226 -5.716,-0.261 C -5.805,-0.356 -5.958,-0.368 -6.06,-0.287 L -7.378,0.767 C -7.497,0.888 -7.537,1.069 -7.474,1.224 L -7.474,1.225 C -7.404,1.388 -7.339,1.556 -7.285,1.728 C -7.214,1.952 -7.339,2.192 -7.563,2.263 C -7.789,2.335 -8.029,2.21 -8.099,1.983 C -8.247,1.517 -8.417,1.159 -8.727,0.772 C -9.029,0.394 -9.391,0.077 -9.802,-0.169 C -10.005,-0.29 -10.071,-0.553 -9.951,-0.755 C -9.829,-0.957 -9.568,-1.023 -9.365,-0.903 C -9.191,-0.799 -9.024,-0.684 -8.865,-0.559 L -8.865,-0.561 C -8.719,-0.455 -8.527,-0.505 -8.371,-0.601 L -8.371,-0.604 C -8.371,-0.604 -4.922,-3.119 -4.91,-3.128 C -4.716,-3.267 -4.649,-3.49 -4.722,-3.662 C -4.818,-3.863 -4.902,-4.073 -4.969,-4.289 C -5.039,-4.514 -4.914,-4.753 -4.691,-4.824 C -4.464,-4.894 -4.224,-4.769 -4.154,-4.544 C -4.011,-4.085 -3.785,-3.659 -3.488,-3.277 C -3.185,-2.889 -2.863,-2.619 -2.446,-2.365 C -2.243,-2.242 -2.18,-1.979 -2.302,-1.777 C -2.425,-1.576 -2.688,-1.512 -2.888,-1.635 C -3.079,-1.75 -3.261,-1.878 -3.433,-2.018 C -3.581,-2.133 -3.792,-2.138 -3.951,-2.017 C -3.951,-2.017 -4.357,-1.703 -4.774,-1.384 C -4.875,-1.306 -4.871,-1.054 -4.871,-0.986 C -4.871,-0.116 -4.368,0.104 -4.154,0.208 C -3.375,0.586 -2.833,-0.246 -2.774,-0.341 L -2.766,-0.355 L -2.753,-0.371 C -2.43,-0.818 -2.044,-1.078 -1.615,-1.143 C -1.047,-1.23 -0.693,-0.974 -0.583,-0.904 C -0.193,-0.656 -0.044,-0.222 0,0" />
    </g>
    <g
       transform="matrix(1.9683752,0,0,-1.9683752,386.51126,514.21066)"
       id="g2526">
      <path
         id="path2528"
         style="fill:#af0032;fill-opacity:1;fill-rule:nonzero;stroke:none"
         d="M 0,0 C -0.321,0.344 -0.616,0.83 -0.511,1.539 C -0.477,1.772 -0.641,2.006 -0.875,2.044 C -1.108,2.081 -1.363,1.906 -1.381,1.576 C -1.394,1.362 -1.391,1.216 -1.394,1.062 C -1.422,0.113 -2.014,-0.296 -2.683,-0.505 C -3.074,-0.6 -3.469,-0.412 -3.654,-0.012 C -3.821,0.344 -4.118,0.983 -4.118,0.983 C -4.193,1.148 -4.146,1.332 -4.011,1.396 L -3.771,1.508 C -3.677,1.551 -3.524,1.518 -3.464,1.419 C -3.404,1.32 -3.313,1.182 -3.211,1.059 C -3.06,0.878 -2.79,0.853 -2.61,1.004 C -2.427,1.156 -2.404,1.424 -2.555,1.607 C -2.625,1.691 -2.688,1.783 -2.743,1.879 C -2.954,2.247 -3.052,2.658 -2.996,3.073 C -2.964,3.307 -3.128,3.522 -3.363,3.554 C -3.594,3.586 -3.81,3.422 -3.841,3.188 C -3.871,2.985 -3.857,2.787 -3.839,2.586 C -3.839,2.465 -3.907,2.35 -4.024,2.295 L -4.31,2.163 C -4.472,2.087 -4.665,2.16 -4.74,2.324 L -4.74,2.323 L -5.232,3.381 L -5.235,3.382 C -5.415,3.798 -5.235,4.246 -4.826,4.461 C -3.646,5.083 -2.818,4.987 -2.113,3.948 C -2.063,3.875 -2.027,3.816 -1.975,3.74 C -1.839,3.547 -1.574,3.498 -1.381,3.634 C -1.186,3.769 -1.139,4.035 -1.274,4.228 C -1.336,4.32 -1.391,4.417 -1.438,4.517 C -1.636,4.944 -1.675,5.344 -1.542,5.857 C -1.48,6.1 -1.592,6.327 -1.816,6.402 C -1.913,6.435 -2.128,6.45 -2.282,6.25 C -2.43,6.051 -2.662,5.845 -2.915,5.761 C -3.029,5.723 -3.149,5.703 -3.269,5.701 C -3.836,5.685 -4.261,5.622 -4.794,5.414 C -5.341,5.203 -5.805,4.974 -6.24,4.586 C -6.24,4.586 -6.794,4.072 -7.149,3.953 C -7.402,3.869 -7.675,3.896 -7.927,3.997 C -8.146,4.085 -8.41,3.984 -8.482,3.76 C -8.571,3.49 -8.419,3.283 -8.185,3.179 C -7.972,3.083 -7.636,3.037 -7.36,3.058 C -7.211,3.07 -7.068,2.975 -6.993,2.834 L -5.003,-0.772 C -4.922,-0.941 -4.966,-1.064 -5.123,-1.178 L -5.121,-1.179 C -5.446,-1.414 -5.696,-1.732 -5.844,-2.113 C -5.93,-2.332 -5.821,-2.58 -5.599,-2.666 C -5.38,-2.752 -5.169,-2.624 -5.047,-2.422 C -4.93,-2.229 -4.699,-1.957 -4.441,-1.823 C -4.06,-1.627 -3.688,-1.693 -3.128,-1.588 C -2.535,-1.477 -2.175,-1.302 -2.006,-1.205 C -1.852,-1.116 -1.42,-0.726 -1.246,-0.666 C -0.993,-0.578 -0.647,-0.631 -0.467,-0.69 C -0.28,-0.752 -0.1,-0.674 -0.024,-0.604 C 0.15,-0.443 0.161,-0.172 0,0" />
    </g>
    <g
       transform="matrix(1.9683752,0,0,-1.9683752,404.16365,500.3407)"
       id="g2530">
      <path
         id="path2532"
         style="fill:#af0032;fill-opacity:1;fill-rule:nonzero;stroke:none"
         d="M 0,0 C -0.084,0.072 -0.302,0.157 -0.498,0.028 C -0.703,-0.109 -0.998,-0.152 -1.201,-0.144 C -1.576,-0.128 -1.971,0.276 -2.854,0.276 C -3.326,0.276 -3.604,0.22 -3.781,0.133 C -3.961,0.22 -4.24,0.276 -4.711,0.276 C -5.593,0.276 -5.99,-0.128 -6.365,-0.144 C -6.568,-0.152 -6.862,-0.109 -7.068,0.028 C -7.263,0.157 -7.482,0.072 -7.565,0 C -7.734,-0.146 -7.763,-0.414 -7.62,-0.587 C -7.326,-0.939 -7.167,-1.396 -7.172,-1.872 C -7.175,-1.985 -7.185,-2.099 -7.206,-2.208 C -7.248,-2.435 -7.096,-2.652 -6.87,-2.692 C -6.643,-2.734 -6.404,-2.587 -6.385,-2.357 C -6.284,-1.16 -5.654,-0.682 -5.125,-0.632 C -4.709,-0.591 -4.714,-1.025 -4.701,-1.533 C -4.701,-1.533 -4.576,-5.446 -4.576,-5.461 C -4.576,-5.66 -4.703,-5.826 -4.875,-5.874 C -4.875,-5.874 -5.248,-5.992 -5.432,-6.065 C -5.648,-6.149 -5.753,-6.391 -5.67,-6.605 C -5.584,-6.819 -5.343,-6.925 -5.128,-6.841 C -4.703,-6.673 -4.24,-6.588 -3.781,-6.589 C -3.326,-6.588 -2.862,-6.673 -2.437,-6.841 C -2.221,-6.925 -1.979,-6.819 -1.896,-6.605 C -1.81,-6.391 -1.917,-6.149 -2.131,-6.065 C -2.318,-5.992 -2.69,-5.874 -2.69,-5.874 C -2.862,-5.826 -2.987,-5.66 -2.987,-5.461 C -2.987,-5.446 -2.865,-1.533 -2.865,-1.533 C -2.851,-1.025 -2.857,-0.591 -2.44,-0.632 C -1.912,-0.682 -1.281,-1.16 -1.179,-2.357 C -1.162,-2.587 -0.922,-2.734 -0.695,-2.692 C -0.468,-2.652 -0.318,-2.435 -0.359,-2.208 C -0.381,-2.099 -0.39,-1.985 -0.39,-1.872 C -0.398,-1.396 -0.24,-0.939 0.055,-0.587 C 0.198,-0.414 0.172,-0.146 0,0" />
    </g>
    <g
       transform="matrix(1.9683752,0,0,-1.9683752,432.61258,513.36583)"
       id="g2534">
      <path
         id="path2536"
         style="fill:#af0032;fill-opacity:1;fill-rule:nonzero;stroke:none"
         d="M 0,0 C -0.437,0.436 -0.921,0.717 -1.429,0.923 C -1.924,1.124 -2.263,1.303 -2.628,1.606 C -2.987,1.907 -3.287,2.266 -3.513,2.674 C -3.625,2.877 -3.88,2.95 -4.086,2.837 C -4.289,2.725 -4.362,2.468 -4.248,2.265 C -4.138,2.068 -4.015,1.882 -3.88,1.705 C -3.818,1.59 -3.834,1.449 -4.125,1.097 L -4.132,1.09 C -4.132,1.09 -6.334,-1.805 -6.51,-2.039 C -6.63,-2.196 -6.841,-2.242 -7.007,-2.169 C -7.007,-2.169 -7.373,-2.019 -7.562,-1.958 C -7.784,-1.888 -8.021,-2.009 -8.093,-2.231 C -8.164,-2.453 -8.042,-2.689 -7.82,-2.76 C -7.375,-2.903 -6.966,-3.125 -6.601,-3.419 C -6.229,-3.718 -5.921,-4.08 -5.687,-4.493 C -5.573,-4.695 -5.318,-4.766 -5.115,-4.651 C -4.912,-4.536 -4.841,-4.279 -4.956,-4.077 C -5.057,-3.9 -5.164,-3.729 -5.281,-3.566 C -5.388,-3.415 -5.393,-3.202 -5.265,-3.043 L -2.656,-0.088 C -2.307,0.315 -2.213,0.296 -2.06,0.277 C -1.831,0.248 -1.179,-0.052 -0.718,-0.513 C -0.088,-1.145 -0.088,-2.138 -0.753,-2.945 C -1.128,-3.404 -1.802,-3.655 -2.273,-3.655 C -2.596,-3.655 -3.123,-3.738 -3.503,-3.915 C -3.998,-4.148 -4.299,-4.49 -4.453,-4.897 C -4.612,-5.32 -4.492,-5.791 -4.435,-5.93 C -4.257,-6.368 -3.917,-6.59 -3.67,-6.712 C -3.421,-6.834 -3.003,-7.008 -2.498,-6.845 C -2.328,-6.79 -2.182,-6.631 -2.174,-6.441 C -2.167,-6.205 -2.357,-6.017 -2.609,-5.992 C -2.909,-5.961 -3.292,-5.461 -2.94,-5.048 C -2.523,-4.562 -1.588,-4.668 -1.495,-4.674 C -1.401,-4.682 -1.492,-4.672 -1.492,-4.672 C -0.593,-4.777 0.193,-4.501 0.682,-3.904 C 1.523,-2.878 1.205,-1.207 0,0" />
    </g>
    <g
       transform="matrix(1.9683752,0,0,-1.9683752,416.43648,503.94303)"
       id="g2538">
      <path
         id="path2540"
         style="fill:#af0032;fill-opacity:1;fill-rule:nonzero;stroke:none"
         d="M 0,0 C -0.477,-0.02 -0.946,0.049 -1.397,0.206 C -1.839,0.359 -2.245,0.59 -2.6,0.892 C -2.777,1.041 -3.042,1.019 -3.194,0.842 C -3.344,0.664 -3.321,0.398 -3.144,0.248 C -2.972,0.103 -2.745,-0.055 -2.67,-0.103 C -2.469,-0.227 -2.475,-0.357 -2.616,-0.8 C -2.709,-1.092 -3.589,-4.099 -3.741,-4.576 C -3.811,-4.797 -4.003,-4.896 -4.155,-4.882 C -4.36,-4.865 -4.553,-4.863 -4.753,-4.873 C -4.985,-4.885 -5.164,-5.083 -5.152,-5.315 C -5.141,-5.547 -4.944,-5.727 -4.711,-5.714 C -4.245,-5.69 -3.782,-5.753 -3.336,-5.9 C -2.883,-6.048 -2.469,-6.278 -2.105,-6.582 C -1.925,-6.731 -1.66,-6.706 -1.511,-6.527 C -1.363,-6.348 -1.386,-6.082 -1.566,-5.934 C -1.722,-5.804 -1.894,-5.674 -2.05,-5.571 C -2.191,-5.478 -2.285,-5.271 -2.222,-5.077 C -2.222,-5.077 -0.967,-1.752 -0.824,-1.373 C -0.647,-0.903 -0.563,-0.819 -0.319,-0.841 C -0.141,-0.858 -0.078,-0.856 0.047,-0.841 C 0.283,-0.813 0.447,-0.636 0.437,-0.403 C 0.426,-0.171 0.231,0.01 0,0" />
    </g>
    <g
       transform="matrix(1.9683752,0,0,-1.9683752,446.61758,533.6714)"
       id="g2542">
      <path
         id="path2544"
         style="fill:#af0032;fill-opacity:1;fill-rule:nonzero;stroke:none"
         d="M 0,0 C -0.328,1.714 -0.824,2.488 -0.827,2.494 C -1.516,3.853 -2.816,4.572 -4.483,4.355 C -5.282,4.318 -5.774,4.404 -5.836,4.416 C -5.858,4.424 -5.881,4.423 -5.899,4.413 C -5.917,4.403 -5.933,4.388 -5.938,4.369 L -5.941,4.368 C -5.941,4.368 -6.152,3.909 -6.68,3.249 C -7.071,2.849 -7.36,2.364 -7.542,1.825 C -7.813,1.021 -7.868,0.03 -7.154,-1.333 C -6.777,-2.052 -5.941,-2.612 -5.745,-2.913 C -5.574,-3.177 -5.545,-3.364 -5.545,-3.738 C -5.545,-3.955 -5.397,-4.084 -5.277,-4.128 C -5.077,-4.2 -4.86,-4.108 -4.769,-3.922 C -4.769,-3.92 -4.766,-3.919 -4.766,-3.918 C -4.761,-3.906 -4.753,-3.895 -4.75,-3.883 C -4.625,-3.545 -4.407,-3.27 -4.12,-3.089 C -3.662,-2.877 -3.097,-2.928 -2.664,-3.225 C -2.506,-3.333 -2.289,-3.293 -2.18,-3.134 C -2.071,-2.975 -2.113,-2.759 -2.269,-2.65 C -2.6,-2.424 -2.983,-2.297 -3.368,-2.27 C -3.381,-2.247 -3.397,-2.225 -3.414,-2.206 C -3.225,-1.873 -3.11,-1.5 -3.086,-1.121 C -3.071,-0.896 -3.243,-0.7 -3.469,-0.686 C -3.696,-0.671 -3.875,-0.844 -3.907,-1.069 C -3.936,-1.29 -4.027,-1.58 -4.118,-1.69 C -5.027,-2.794 -6.194,-1.403 -6.508,-0.247 C -6.933,1.233 -5.703,2.044 -4.905,2.449 C -4.105,2.856 -3.219,2.965 -2.535,2.742 C -2.425,2.706 -1.92,2.509 -1.61,2.003 C -1.566,1.934 -1.147,1.299 -1.019,0.227 C -0.967,-0.19 -1.272,-0.58 -1.725,-0.948 C -1.787,-0.991 -1.847,-1.035 -1.905,-1.083 C -2.089,-1.235 -2.118,-1.506 -1.967,-1.69 C -1.813,-1.875 -1.542,-1.901 -1.358,-1.75 C -1.274,-1.68 -1.133,-1.591 -1.084,-1.563 C -0.691,-1.34 -0.289,-1.286 0.257,-1.401 C 0.47,-1.446 0.711,-1.297 0.734,-1.075 C 0.791,-0.487 0.103,-0.545 0,0" />
    </g>
    <g
       transform="matrix(1.9683752,0,0,-1.9683752,437.62998,556.8248)"
       id="g2546">
      <path
         id="path2548"
         style="fill:#af0032;fill-opacity:1;fill-rule:nonzero;stroke:none"
         d="M 0,0 C 0.427,0.191 0.909,0.217 1.357,0.073 C 1.461,0.038 1.566,-0.004 1.661,-0.055 C 1.867,-0.166 2.128,-0.087 2.238,0.122 C 2.347,0.33 2.305,0.611 2,0.731 C 0.891,1.173 0.399,1.375 0.469,2.626 C 0.492,3.025 0.833,3.339 1.253,3.385 C 1.594,3.422 2.341,3.5 2.341,3.5 C 2.524,3.519 2.683,3.414 2.698,3.265 L 2.727,3.001 C 2.738,2.9 2.677,2.805 2.581,2.748 C 2.425,2.717 2.269,2.674 2.12,2.618 C 1.902,2.534 1.789,2.287 1.872,2.067 C 1.958,1.846 2.203,1.736 2.425,1.819 C 2.527,1.859 2.636,1.889 2.745,1.91 C 3.161,1.99 3.578,1.933 3.953,1.744 C 4.164,1.638 4.422,1.723 4.527,1.934 C 4.633,2.145 4.547,2.402 4.336,2.508 C 4.154,2.6 3.964,2.669 3.769,2.717 C 3.654,2.758 3.568,2.858 3.555,2.986 L 3.521,3.299 C 3.5,3.477 3.633,3.635 3.813,3.654 L 3.813,3.656 L 4.972,3.778 L 4.974,3.781 C 5.427,3.816 5.808,3.469 5.872,3.035 C 6.086,1.62 5.625,0.876 4.255,0.578 C 4.027,0.528 3.899,0.277 3.964,0.05 C 4.029,-0.177 4.263,-0.309 4.489,-0.242 C 4.597,-0.213 4.706,-0.191 4.818,-0.181 C 5.286,-0.131 5.774,-0.271 6.125,-0.529 C 6.321,-0.672 6.591,-0.614 6.722,-0.435 C 6.781,-0.352 6.875,-0.117 6.716,0.078 C 6.568,0.26 6.469,0.547 6.474,0.815 C 6.474,0.935 6.492,1.054 6.531,1.168 C 6.7,1.711 6.774,2.275 6.747,2.846 C 6.722,3.433 6.591,4.002 6.363,4.538 L 6.363,4.539 C 6.274,4.749 6.2,4.969 6.149,5.191 C 6.149,5.193 6.146,5.196 6.146,5.199 C 6.12,5.311 6.107,5.428 6.114,5.544 C 6.128,5.811 6.227,6.061 6.404,6.268 C 6.558,6.447 6.536,6.718 6.357,6.87 C 6.177,7.023 5.906,7.002 5.755,6.823 C 5.555,6.589 5.414,6.319 5.333,6.032 C 5.284,5.891 5.161,5.781 5.005,5.754 L 0.95,5.018 C 0.763,4.997 0.664,5.078 0.605,5.261 L 0.602,5.26 C 0.485,5.643 0.261,5.981 -0.052,6.243 C -0.231,6.393 -0.503,6.37 -0.653,6.189 C -0.804,6.007 -0.781,5.737 -0.598,5.587 C -0.39,5.414 -0.221,5.188 -0.19,4.922 C -0.114,4.268 -0.333,4.269 -0.445,3.416 C -0.523,2.822 -0.409,2.266 -0.278,1.744 C -0.13,1.162 -0.401,0.789 -0.503,0.666 C -0.633,0.505 -0.606,0.313 -0.565,0.217 C -0.469,0.001 -0.216,-0.096 0,0" />
    </g>
    <g
       transform="matrix(1.9683752,0,0,-1.9683752,358.92251,553.59254)"
       id="g2550">
      <path
         id="path2552"
         style="fill:#af0032;fill-opacity:1;fill-rule:nonzero;stroke:none"
         d="M 0,0 C 0,-10.589 8.612,-19.202 19.2,-19.202 C 29.789,-19.202 38.4,-10.589 38.4,0 C 38.4,10.587 29.789,19.2 19.2,19.2 C 8.612,19.2 0,10.587 0,0 M 0.987,0 C 0.987,10.042 9.156,18.213 19.2,18.213 C 29.244,18.213 37.416,10.042 37.416,0 C 37.416,-10.044 29.244,-18.215 19.2,-18.215 C 9.156,-18.215 0.987,-10.044 0.987,0" />
    </g>
    <g
       transform="matrix(1.9683752,0,0,-1.9683752,337.20938,554.0801)"
       id="g2554">
      <path
         id="path2556"
         style="fill:#af0032;fill-opacity:1;fill-rule:nonzero;stroke:none"
         d="M 0,0 C 0,-16.67 13.562,-30.232 30.231,-30.232 C 46.903,-30.232 60.465,-16.67 60.465,0 C 60.465,16.67 46.903,30.232 30.231,30.232 C 13.562,30.232 0,16.67 0,0 M 1.231,0 C 1.231,15.99 14.242,28.999 30.231,28.999 C 46.223,28.999 59.231,15.99 59.231,0 C 59.231,-15.991 46.223,-28.998 30.231,-28.998 C 14.242,-28.998 1.231,-15.991 1.231,0" />
    </g>
    <g
       transform="matrix(1.9683752,0,0,-1.9683752,405.63993,536.71431)"
       id="g2558">
      <path
         id="path2560"
         style="fill:#af0032;fill-opacity:1;fill-rule:nonzero;stroke:none"
         d="M 0,0 C -1.052,0.764 -0.409,1.167 -0.409,1.167 C -0.409,1.167 -0.581,1.535 -0.951,1.922 C -1.156,2.175 -1.287,2.083 -1.287,2.083 L -2.698,1.317 L -1.888,0.48 C -2.687,0.37 -3.107,-0.167 -3.107,-0.167 L -4.224,-0.092 C -4.381,-0.09 -4.49,-0.139 -4.49,-0.139 C -4.49,-0.139 -4.584,-0.167 -4.643,-0.315 C -4.724,-0.507 -4.651,-0.783 -4.425,-0.831 L -4.375,-0.841 L -4.312,-0.36 L -3.859,-0.644 C -4.304,-0.943 -4.17,-1.214 -4.17,-1.214 C -4.101,-1.583 -3.354,-1.466 -3.354,-1.466 L -3.771,-1.126 L -3.209,-0.643 L -3.01,-0.744 C -3.209,-1.321 -2.768,-1.351 -2.768,-1.351 C -2.513,-1.412 -2.076,-1.287 -2.076,-1.287 L -2.482,-0.707 C -1.406,-0.527 0.065,-0.047 0,0" />
    </g>
    <g
       transform="matrix(1.9683752,0,0,-1.9683752,405.5671,581.68716)"
       id="g2562">
      <path
         id="path2564"
         style="fill:#af0032;fill-opacity:1;fill-rule:nonzero;stroke:none"
         d="M 0,0 C -0.984,1.05 -0.205,1.73 -0.205,1.73 C -0.525,2.322 -0.65,2.485 -0.869,2.732 C -1.033,2.937 -1.203,2.864 -1.203,2.864 L -2.606,2.069 L -1.765,0.661 C -2.515,0.027 -2.903,-0.409 -2.903,-0.409 L -3.95,-0.305 C -4.098,-0.302 -4.197,-0.369 -4.197,-0.369 C -4.197,-0.369 -4.286,-0.407 -4.344,-0.612 C -4.419,-0.875 -4.351,-1.254 -4.138,-1.321 L -4.091,-1.334 L -4.033,-0.674 L -3.609,-1.063 C -4.025,-1.476 -3.898,-1.848 -3.898,-1.848 C -3.836,-2.356 -3.138,-2.194 -3.138,-2.194 L -3.525,-1.726 L -3,-1.063 L -2.814,-1.201 C -3,-1.995 -2.588,-2.036 -2.588,-2.036 C -2.351,-2.12 -1.942,-1.947 -1.942,-1.947 L -2.32,-1.149 C -1.314,-0.903 0.061,-0.064 0,0" />
    </g>
    <g
       transform="matrix(1.9683752,0,0,-1.9683752,409.9251,560.68203)"
       id="g2566">
      <path
         id="path2568"
         style="fill:#af0032;fill-opacity:1;fill-rule:nonzero;stroke:none"
         d="M 0,0 C -1.633,1.135 -0.636,1.735 -0.636,1.735 C -0.636,1.735 -0.903,2.284 -1.472,2.859 C -1.792,3.235 -1.995,3.099 -1.995,3.099 L -4.187,1.958 L -2.93,0.713 C -4.172,0.548 -4.82,-0.253 -4.82,-0.253 L -6.555,-0.141 C -6.8,-0.136 -6.966,-0.21 -6.966,-0.21 C -6.966,-0.21 -7.112,-0.252 -7.208,-0.473 C -7.331,-0.758 -7.219,-1.168 -6.867,-1.24 L -6.789,-1.254 L -6.69,-0.539 L -5.987,-0.961 C -6.677,-1.407 -6.472,-1.809 -6.472,-1.809 C -6.364,-2.359 -5.208,-2.184 -5.208,-2.184 L -5.854,-1.677 L -4.979,-0.958 L -4.672,-1.109 C -4.979,-1.969 -4.297,-2.013 -4.297,-2.013 C -3.901,-2.103 -3.224,-1.915 -3.224,-1.915 L -3.854,-1.054 C -2.183,-0.785 0.099,-0.071 0,0" />
    </g>
    <g
       transform="matrix(1.9683752,0,0,-1.9683752,375.38189,596.32694)"
       id="g2570">
      <path
         id="path2572"
         style="fill:#af0032;fill-opacity:1;fill-rule:nonzero;stroke:none"
         d="M 0,0 C 0,0 0.318,0.306 0.321,0.307 C 0.68,0.716 1.018,1.129 1.404,1.32 C 1.424,1.332 1.492,1.36 1.505,1.365 C 1.658,1.431 1.83,1.462 2.01,1.441 C 2.432,1.395 2.763,1.097 2.877,0.714 C 2.891,0.688 2.904,0.664 2.922,0.638 C 3.096,0.379 3.458,0.289 3.702,0.481 C 3.984,0.701 3.952,0.963 3.952,0.978 C 3.932,1.807 2.966,2.443 1.815,2.443 C 1.513,2.443 1.229,2.392 0.966,2.314 C 0.779,2.259 0.419,2.096 0.208,1.907 C -0.219,1.569 -0.601,1.097 -1.053,0.622 C -1.914,-0.276 -2.581,-0.866 -3.601,-0.506 C -3.803,-0.435 -4.031,-0.303 -4.242,-0.102 C -4.687,0.3 -4.94,0.898 -4.875,1.539 C -4.765,2.609 -3.679,3.536 -2.383,3.247 L -2.386,3.246 C -2.031,3.165 -1.758,2.875 -1.724,2.512 C -1.693,2.278 -1.474,2.107 -1.242,2.14 C -1.008,2.172 -0.844,2.388 -0.878,2.621 C -0.906,2.986 -1.172,3.501 -1.523,3.72 L -1.565,3.745 C -2.279,4.218 -3.381,4.168 -4.612,3.615 C -4.612,3.615 -5.662,3.133 -5.94,3.061 C -6.323,2.961 -6.818,2.982 -6.998,3.269 C -7.047,3.349 -7.06,3.425 -7.037,3.504 C -6.979,3.683 -6.729,3.875 -6.289,4.162 C -5.818,4.466 -5.398,4.8 -5.263,5.22 C -5.178,5.494 -5.211,5.805 -5.437,6.166 C -5.69,6.568 -6.086,6.863 -6.648,7.066 L -6.648,7.067 C -6.615,7.259 -6.617,7.555 -6.818,7.877 C -7.414,8.824 -8.445,9.577 -9.508,9.428 L -9.57,9.417 C -9.795,9.371 -10.011,9.287 -10.214,9.166 C -10.417,9.045 -10.482,8.782 -10.359,8.58 C -10.24,8.377 -9.971,8.293 -9.771,8.415 C -9.771,8.415 -9.711,8.447 -9.685,8.478 C -9.459,8.716 -9.133,8.855 -8.784,8.818 C -8.182,8.757 -7.748,8.222 -7.81,7.624 C -7.815,7.562 -7.831,7.503 -7.846,7.445 C -7.854,7.394 -7.875,7.338 -7.909,7.276 C -8.011,7.058 -8.5,6.679 -8.565,6.63 C -9.304,6.09 -9.951,5.318 -9.506,4.49 C -9.304,4.122 -9.047,3.955 -8.513,3.767 C -8.554,3.535 -8.492,3.262 -8.339,3.019 C -7.881,2.287 -6.839,1.978 -5.776,2.349 C -6.461,0.646 -5.432,-1.235 -3.969,-1.68 C -2.584,-2.101 -1.672,-1.386 -1.256,-1.156 C -0.831,-0.868 -0.386,-0.374 0,0 M -8.006,4.382 C -8.398,4.418 -8.685,4.773 -8.643,5.166 C -8.625,5.357 -8.531,5.521 -8.396,5.637 L -7.388,6.38 L -7.383,6.375 C -7.242,6.485 -7.062,6.544 -6.87,6.525 C -6.476,6.485 -6.19,6.134 -6.229,5.74 C -6.248,5.565 -6.331,5.414 -6.448,5.3 L -7.425,4.593 C -7.625,4.451 -7.828,4.365 -8.006,4.382" />
    </g>
    <g
       transform="matrix(1.9683752,0,0,-1.9683752,421.22159,599.45726)"
       id="g2574">
      <path
         id="path2576"
         style="fill:#af0032;fill-opacity:1;fill-rule:nonzero;stroke:none"
         d="M 0,0 C -0.301,0.219 -0.726,0.148 -0.947,-0.155 C -0.968,-0.186 -0.986,-0.215 -1.005,-0.244 C -1.158,-0.701 -1.478,-1.132 -1.989,-1.172 C -2.203,-1.188 -2.509,-1.138 -2.783,-1.005 C -3.289,-0.708 -3.489,-0.382 -3.906,0.125 C -3.906,0.127 -4.437,0.738 -4.437,0.738 C -4.884,1.207 -5.348,1.706 -5.895,2.185 C -6.505,2.667 -7.455,3.38 -9.14,2.934 C -10.497,2.574 -11.583,1.203 -11.695,-0.349 L -13.195,-0.349 C -13.306,1.203 -14.392,2.574 -15.75,2.934 C -17.434,3.38 -18.384,2.667 -18.994,2.185 C -19.541,1.706 -20.005,1.207 -20.452,0.738 C -20.452,0.738 -20.983,0.127 -20.983,0.125 C -21.4,-0.382 -21.6,-0.708 -22.103,-1.005 C -22.38,-1.138 -22.686,-1.188 -22.9,-1.172 C -23.411,-1.132 -23.731,-0.701 -23.884,-0.244 C -23.903,-0.215 -23.921,-0.186 -23.942,-0.155 C -24.163,0.148 -24.588,0.219 -24.889,0 C -25.194,-0.217 -25.194,-0.603 -25.046,-0.945 C -25.044,-0.952 -25.038,-0.957 -25.036,-0.963 L -25.044,-0.962 C -24.702,-1.743 -23.741,-2.305 -22.608,-2.305 C -21.811,-2.305 -21.098,-2.025 -20.627,-1.586 C -20.124,-1.158 -19.692,-0.567 -19.158,0.037 C -18.297,1.004 -17.598,1.686 -16.619,1.601 L -16.619,1.602 C -16.611,1.602 -16.603,1.6 -16.595,1.6 C -16.591,1.599 -16.583,1.599 -16.578,1.598 C -15.426,1.513 -14.512,0.691 -14.32,-0.349 L -14.914,-0.349 C -15.179,-0.349 -15.395,-0.59 -15.395,-0.887 C -15.395,-1.185 -15.179,-1.426 -14.914,-1.426 L -14.383,-1.426 C -14.7,-2.47 -15.728,-3.268 -16.895,-3.2 C -16.895,-3.2 -17.291,-3.167 -17.505,-2.959 C -17.781,-2.742 -17.786,-2.527 -17.841,-2.214 C -17.895,-1.907 -18.189,-1.7 -18.497,-1.756 C -18.804,-1.81 -19.054,-2.069 -19.017,-2.439 C -19.009,-2.504 -19.009,-2.565 -18.997,-2.621 C -18.903,-3.227 -18.642,-3.573 -18.148,-3.927 L -18.07,-3.971 C -17.187,-4.47 -15.822,-4.38 -14.692,-3.553 C -13.645,-2.788 -13.398,-1.836 -13.398,-1.836 C -13.351,-1.7 -13.309,-1.563 -13.278,-1.426 L -11.611,-1.426 C -11.58,-1.563 -11.541,-1.7 -11.492,-1.836 C -11.492,-1.836 -11.244,-2.788 -10.197,-3.553 C -9.067,-4.38 -7.7,-4.47 -6.82,-3.971 L -6.742,-3.927 C -6.247,-3.573 -5.986,-3.227 -5.892,-2.621 C -5.88,-2.565 -5.88,-2.504 -5.872,-2.439 C -5.833,-2.069 -6.086,-1.81 -6.392,-1.756 C -6.7,-1.7 -6.992,-1.907 -7.049,-2.214 C -7.103,-2.527 -7.109,-2.742 -7.384,-2.959 C -7.598,-3.167 -7.994,-3.2 -7.994,-3.2 C -9.161,-3.268 -10.189,-2.47 -10.505,-1.426 L -9.961,-1.426 C -9.692,-1.426 -9.478,-1.185 -9.478,-0.887 C -9.478,-0.59 -9.692,-0.349 -9.961,-0.349 L -10.57,-0.349 C -10.377,0.691 -9.463,1.513 -8.312,1.598 C -8.306,1.599 -8.299,1.599 -8.294,1.6 C -8.286,1.6 -8.278,1.602 -8.27,1.602 L -8.27,1.601 C -7.291,1.686 -6.593,1.004 -5.728,0.037 C -5.197,-0.567 -4.765,-1.158 -4.262,-1.586 C -3.791,-2.025 -3.078,-2.305 -2.281,-2.305 C -1.148,-2.305 -0.187,-1.743 0.155,-0.962 L 0.147,-0.963 C 0.149,-0.957 0.155,-0.952 0.157,-0.945 C 0.305,-0.603 0.305,-0.217 0,0" />
    </g>
    <g
       transform="matrix(1.9683752,0,0,-1.9683752,438.175,578.28482)"
       id="g2578">
      <path
         id="path2580"
         style="fill:#af0032;fill-opacity:1;fill-rule:nonzero;stroke:none"
         d="M 0,0 C -0.204,0.121 -0.42,0.205 -0.644,0.251 L -0.706,0.262 C -1.769,0.411 -2.8,-0.342 -3.396,-1.289 C -3.597,-1.611 -3.599,-1.907 -3.566,-2.099 L -3.566,-2.1 C -4.128,-2.303 -4.521,-2.598 -4.774,-3 C -5.003,-3.361 -5.037,-3.672 -4.951,-3.946 C -4.816,-4.366 -4.396,-4.7 -3.925,-5.004 C -3.485,-5.292 -3.235,-5.483 -3.177,-5.662 C -3.154,-5.741 -3.164,-5.817 -3.216,-5.897 C -3.396,-6.184 -3.891,-6.206 -4.274,-6.105 C -4.552,-6.033 -5.602,-5.551 -5.602,-5.551 C -6.833,-4.998 -7.933,-4.948 -8.649,-5.421 L -8.691,-5.446 C -9.042,-5.665 -9.308,-6.18 -9.336,-6.545 C -9.371,-6.778 -9.206,-6.994 -8.972,-7.026 C -8.74,-7.06 -8.521,-6.888 -8.49,-6.654 C -8.456,-6.291 -8.183,-6.001 -7.829,-5.92 L -7.829,-5.919 C -6.535,-5.63 -5.449,-6.557 -5.339,-7.627 C -5.274,-8.268 -5.527,-8.866 -5.972,-9.268 C -6.18,-9.469 -6.412,-9.602 -6.613,-9.672 C -7.633,-10.032 -8.3,-9.442 -9.162,-8.544 C -9.61,-8.069 -9.996,-7.597 -10.422,-7.259 C -10.633,-7.07 -10.993,-6.907 -11.18,-6.852 C -11.443,-6.774 -11.727,-6.723 -12.029,-6.723 C -13.18,-6.723 -14.146,-7.359 -14.164,-8.188 C -14.167,-8.203 -14.196,-8.465 -13.917,-8.685 C -13.672,-8.877 -13.31,-8.787 -13.136,-8.528 C -13.118,-8.502 -13.105,-8.478 -13.091,-8.452 C -12.977,-8.069 -12.644,-7.771 -12.224,-7.725 C -12.044,-7.704 -11.872,-7.735 -11.719,-7.801 C -11.706,-7.806 -11.638,-7.834 -11.618,-7.846 C -11.232,-8.037 -10.894,-8.45 -10.535,-8.859 C -10.532,-8.86 -10.214,-9.166 -10.214,-9.166 C -9.829,-9.54 -9.383,-10.034 -8.958,-10.322 C -8.542,-10.552 -7.63,-11.267 -6.246,-10.846 C -4.779,-10.401 -3.753,-8.521 -4.438,-6.817 C -3.375,-7.188 -2.333,-6.879 -1.875,-6.147 C -1.722,-5.904 -1.66,-5.631 -1.702,-5.399 C -1.188,-5.211 -0.913,-5.022 -0.714,-4.655 C -0.258,-3.818 -0.91,-3.076 -1.649,-2.536 C -1.714,-2.487 -2.201,-2.108 -2.305,-1.89 C -2.339,-1.828 -2.36,-1.772 -2.368,-1.721 C -2.383,-1.663 -2.399,-1.604 -2.404,-1.542 C -2.466,-0.944 -2.032,-0.409 -1.43,-0.348 C -1.079,-0.311 -0.753,-0.45 -0.53,-0.688 C -0.503,-0.719 -0.444,-0.751 -0.444,-0.751 C -0.243,-0.873 0.025,-0.789 0.145,-0.586 C 0.267,-0.384 0.203,-0.121 0,0 M -1.819,-3.529 C -1.683,-3.645 -1.589,-3.81 -1.571,-4 C -1.53,-4.393 -1.816,-4.748 -2.208,-4.784 C -2.386,-4.801 -2.589,-4.715 -2.789,-4.573 L -3.766,-3.866 C -3.883,-3.752 -3.966,-3.601 -3.982,-3.426 C -4.024,-3.032 -3.738,-2.681 -3.344,-2.641 C -3.152,-2.622 -2.972,-2.681 -2.831,-2.791 L -2.826,-2.786 L -1.819,-3.529" />
    </g>
    <g
       transform="matrix(1.9683752,0,0,-1.9683752,397.2387,544.36677)"
       id="g2582">
      <path
         id="path2584"
         style="fill:#af0032;fill-opacity:1;fill-rule:nonzero;stroke:none"
         d="M 0,0 C 0.005,-0.329 -0.081,-0.404 -0.235,-0.406 C -0.388,-0.407 -0.474,-0.335 -0.48,-0.005 C -0.482,0.324 -0.672,0.406 -0.902,0.404 C -1.128,0.402 -1.367,0.184 -1.324,-0.271 C -1.3,-0.521 -1.075,-1.115 -0.222,-1.591 C 0.62,-1.098 0.833,-0.499 0.851,-0.249 C 0.887,0.207 0.643,0.42 0.417,0.418 C 0.187,0.415 -0.003,0.328 0,0" />
    </g>
    <g
       transform="matrix(1.9683752,0,0,-1.9683752,428.61874,552.1566)"
       id="g2586">
      <path
         id="path2588"
         style="fill:#af0032;fill-opacity:1;fill-rule:nonzero;stroke:none"
         d="M 0,0 C -0.226,-0.002 -0.419,-0.09 -0.414,-0.418 C -0.411,-0.747 -0.497,-0.822 -0.65,-0.823 C -0.805,-0.825 -0.891,-0.752 -0.892,-0.424 C -0.895,-0.095 -1.088,-0.011 -1.317,-0.014 C -1.544,-0.016 -1.783,-0.234 -1.739,-0.69 C -1.716,-0.94 -1.492,-1.533 -0.638,-2.009 C 0.206,-1.516 0.417,-0.917 0.438,-0.667 C 0.472,-0.211 0.227,0.002 0,0" />
    </g>
    <g
       transform="matrix(1.9683752,0,0,-1.9683752,368.03609,554.09427)"
       id="g2590">
      <path
         id="path2592"
         style="fill:#af0032;fill-opacity:1;fill-rule:nonzero;stroke:none"
         d="M 0,0 C 0.034,0.456 -0.211,0.669 -0.438,0.667 C -0.664,0.665 -0.857,0.577 -0.852,0.249 C -0.849,-0.08 -0.935,-0.155 -1.088,-0.157 C -1.242,-0.158 -1.328,-0.085 -1.33,0.244 C -1.333,0.572 -1.526,0.656 -1.755,0.654 C -1.982,0.652 -2.221,0.433 -2.177,-0.022 C -2.151,-0.273 -1.927,-0.866 -1.075,-1.342 C -0.232,-0.849 -0.018,-0.251 0,0" />
    </g>
    <g
       transform="matrix(1.9683752,0,0,-1.9683752,421.90461,571.74647)"
       id="g2594">
      <path
         id="path2596"
         style="fill:#af0032;fill-opacity:1;fill-rule:nonzero;stroke:none"
         d="M 0,0 C -0.227,-0.003 -0.417,-0.089 -0.414,-0.417 C -0.409,-0.747 -0.495,-0.822 -0.648,-0.824 C -0.802,-0.824 -0.888,-0.752 -0.894,-0.422 C -0.896,-0.095 -1.086,-0.011 -1.315,-0.014 C -1.542,-0.017 -1.784,-0.233 -1.737,-0.688 C -1.714,-0.939 -1.489,-1.533 -0.636,-2.009 C 0.206,-1.516 0.419,-0.917 0.437,-0.666 C 0.472,-0.21 0.227,0.001 0,0" />
    </g>
    <g
       transform="matrix(1.9683752,0,0,-1.9683752,374.21266,572.23266)"
       id="g2598">
      <path
         id="path2600"
         style="fill:#af0032;fill-opacity:1;fill-rule:nonzero;stroke:none"
         d="M 0,0 C -0.229,-0.002 -0.419,-0.088 -0.417,-0.416 C -0.412,-0.747 -0.498,-0.821 -0.651,-0.822 C -0.804,-0.824 -0.89,-0.752 -0.893,-0.421 C -0.898,-0.094 -1.088,-0.011 -1.318,-0.014 C -1.544,-0.015 -1.784,-0.233 -1.74,-0.688 C -1.716,-0.938 -1.492,-1.532 -0.638,-2.008 C 0.206,-1.515 0.416,-0.917 0.435,-0.666 C 0.471,-0.21 0.227,0.003 0,0" />
    </g>
    <g
       transform="matrix(1.9683752,0,0,-1.9683752,397.02829,570.6678)"
       id="g2602">
      <path
         id="path2604"
         style="fill:#af0032;fill-opacity:1;fill-rule:nonzero;stroke:none"
         d="M 0,0 C 0.844,0.493 1.055,1.092 1.073,1.343 C 1.11,1.798 0.865,2.012 0.638,2.009 C 0.408,2.007 0.219,1.919 0.221,1.591 C 0.227,1.262 0.141,1.187 -0.013,1.185 C -0.167,1.184 -0.253,1.257 -0.256,1.586 C -0.26,1.914 -0.451,1.998 -0.679,1.996 C -0.906,1.993 -1.146,1.775 -1.101,1.32 C -1.078,1.07 -0.854,0.476 0,0" />
    </g>
    <g
       transform="matrix(1.9683752,0,0,-1.9683752,420.25315,536.6403)"
       id="g2606">
      <path
         id="path2608"
         style="fill:#af0032;fill-opacity:1;fill-rule:nonzero;stroke:none"
         d="M 0,0 C 0.844,0.493 1.055,1.092 1.073,1.342 C 1.109,1.798 0.865,2.01 0.639,2.008 C 0.412,2.006 0.222,1.918 0.225,1.591 C 0.227,1.262 0.144,1.187 -0.01,1.185 C -0.164,1.184 -0.252,1.256 -0.255,1.586 C -0.258,1.914 -0.45,1.997 -0.677,1.995 C -0.906,1.993 -1.145,1.775 -1.101,1.32 C -1.075,1.07 -0.851,0.476 0,0" />
    </g>
    <g
       transform="matrix(1.9683752,0,0,-1.9683752,372.55746,537.12472)"
       id="g2610">
      <path
         id="path2612"
         style="fill:#af0032;fill-opacity:1;fill-rule:nonzero;stroke:none"
         d="M 0,0 C 0.843,0.493 1.057,1.091 1.076,1.342 C 1.109,1.797 0.867,2.01 0.638,2.008 C 0.412,2.006 0.221,1.918 0.224,1.591 C 0.226,1.261 0.143,1.187 -0.01,1.185 C -0.164,1.184 -0.252,1.256 -0.255,1.586 C -0.258,1.914 -0.451,1.997 -0.677,1.995 C -0.907,1.992 -1.146,1.775 -1.102,1.32 C -1.076,1.07 -0.852,0.475 0,0" />
    </g>
    <g
       transform="matrix(1.9683752,0,0,-1.9683752,396.63264,525.01389)"
       id="g2614">
      <path
         id="path2616"
         style="fill:#af0032;fill-opacity:1;fill-rule:nonzero;stroke:none"
         d="M 0,0 C 0.844,0.494 1.055,1.091 1.073,1.343 C 1.109,1.798 0.865,2.011 0.639,2.008 C 0.409,2.006 0.219,1.919 0.225,1.591 C 0.227,1.262 0.144,1.187 -0.01,1.185 C -0.164,1.184 -0.252,1.257 -0.255,1.586 C -0.258,1.914 -0.45,1.998 -0.68,1.995 C -0.906,1.992 -1.145,1.774 -1.101,1.32 C -1.078,1.07 -0.853,0.476 0,0" />
    </g>
    <g
       transform="matrix(1.9683752,0,0,-1.9683752,404.17349,527.86055)"
       id="g2618">
      <path
         id="path2620"
         style="fill:#af0032;fill-opacity:1;fill-rule:nonzero;stroke:none"
         d="M 0,0 C 0.245,0.014 0.531,0.071 1.344,0.177 C 2.302,0.302 3.711,0.35 4.066,0.351 C 4.513,0.374 5.308,0.31 5.581,0.04 C 5.646,-0.023 5.683,-0.107 5.683,-0.195 C 5.685,-0.285 5.649,-0.369 5.586,-0.433 C 5.125,-0.904 3.935,-0.843 3.516,-0.78 L 3.516,-0.781 L 2.823,-0.71 C 3.214,-0.843 3.583,-1.31 3.583,-1.31 L 3.63,-1.315 L 3.633,-1.315 C 3.641,-1.316 3.652,-1.317 3.661,-1.318 L 3.688,-1.32 C 4.203,-1.364 5.375,-1.39 5.956,-0.796 C 6.117,-0.633 6.203,-0.418 6.2,-0.19 C 6.198,0.037 6.107,0.25 5.945,0.41 C 5.417,0.927 4.188,0.92 4.05,0.913 C 3.685,0.913 2.271,0.853 1.284,0.691 C 0.511,0.565 0.222,0.532 -0.015,0.518 C -0.464,0.494 -1.255,0.559 -1.531,0.829 C -1.597,0.891 -1.63,0.975 -1.633,1.065 C -1.633,1.153 -1.598,1.237 -1.536,1.301 C -1.075,1.773 0.036,1.711 0.37,1.646 C 0.378,1.645 0.818,1.57 0.818,1.57 C 1.164,1.514 1.316,1.458 1.75,1.372 C 2.149,1.313 2.997,1.336 3.253,1.808 L 3.568,2.61 L 3.461,2.665 L 2.964,2.181 C 2.745,1.916 2.208,1.827 1.766,1.89 C 1.464,1.896 1.302,1.997 0.867,2.085 L 0.425,2.159 C 0.375,2.17 -1.167,2.421 -1.906,1.664 C -2.067,1.501 -2.153,1.287 -2.151,1.059 C -2.148,0.831 -2.057,0.618 -1.893,0.458 C -1.367,-0.058 -0.138,-0.007 0,0" />
    </g>
    <g
       transform="matrix(1.9683752,0,0,-1.9683752,379.53534,526.70257)"
       id="g2622">
      <path
         id="path2624"
         style="fill:#af0032;fill-opacity:1;fill-rule:nonzero;stroke:none"
         d="M 0,0 L 0.617,-0.578 L 0.515,-0.669 C -0.274,-0.369 -0.368,-0.725 -0.368,-0.725 C -0.483,-0.921 -0.209,-1.285 -0.209,-1.285 L 0.314,-0.893 C 0.778,-2.627 2.939,-4.246 2.939,-4.246 C 2.939,-4.246 3.053,-3.429 3.697,-2.592 L 2.84,-2.447 L 2.525,-2.398 C 2.092,-1.416 1.327,-0.725 1.327,-0.725 C 1.572,-0.019 1.587,0.176 1.587,0.176 C 1.587,0.327 1.541,0.408 1.541,0.408 C 1.541,0.408 1.517,0.533 1.314,0.619 C 1.054,0.731 0.653,0.695 0.556,0.52 L 0.515,0.414 L 1.187,0.248 L 0.757,0.008 C 0.387,0.446 -0.011,0.399 -0.011,0.399 C -0.539,0.344 -0.461,-0.213 -0.461,-0.213 L 0,0" />
    </g>
    <g
       transform="matrix(1.9683752,0,0,-1.9683752,392.57385,525.17314)"
       id="g2626">
      <path
         id="path2628"
         style="fill:#af0032;fill-opacity:1;fill-rule:nonzero;stroke:none"
         d="M 0,0 L 0.049,-0.002 L 0.081,1.102 L -0.112,1.11 L -0.625,0.409 L -0.875,1.042 L -0.907,1.042 L -1.057,1.049 L -1.088,1.05 L -1.393,0.442 L -1.844,1.185 L -2.037,1.193 L -2.099,0.09 L -2.041,0.088 L 0,0 z" />
    </g>
    <g
       transform="matrix(1.9683752,0,0,-1.9683752,379.60603,569.36277)"
       id="g2630">
      <path
         id="path2632"
         style="fill:#af0032;fill-opacity:1;fill-rule:nonzero;stroke:none"
         d="M 0,0 C -0.529,-0.056 -0.45,-0.613 -0.45,-0.613 L 0.01,-0.4 L 0.628,-0.978 L 0.526,-1.07 C -0.263,-0.769 -0.357,-1.125 -0.357,-1.125 C -0.472,-1.321 -0.199,-1.686 -0.199,-1.686 L 0.325,-1.292 C 0.789,-3.027 2.95,-4.645 2.95,-4.645 C 2.95,-4.645 3.064,-3.83 3.708,-2.992 L 2.851,-2.847 L 2.536,-2.798 C 2.103,-1.816 1.338,-1.125 1.338,-1.125 C 1.583,-0.419 1.598,-0.224 1.598,-0.224 C 1.598,-0.073 1.551,0.009 1.551,0.009 C 1.551,0.009 1.528,0.133 1.325,0.22 C 1.065,0.331 0.664,0.295 0.57,0.12 L 0.526,0.014 L 1.198,-0.152 L 0.768,-0.392 C 0.398,0.046 0,0 0,0" />
    </g>
    <g
       transform="matrix(1.9683752,0,0,-1.9683752,392.76282,568.62463)"
       id="g2634">
      <path
         id="path2636"
         style="fill:#af0032;fill-opacity:1;fill-rule:nonzero;stroke:none"
         d="M 0,0 L 0.032,1.104 L -0.161,1.112 L -0.675,0.412 L -0.925,1.043 L -0.956,1.044 L -1.106,1.051 L -1.137,1.052 L -1.442,0.444 L -1.893,1.187 L -2.086,1.194 L -2.148,0.093 L -2.091,0.09 L -0.05,0.003 L 0,0 z" />
    </g>
    <g
       transform="matrix(1.9683752,0,0,-1.9683752,411.89917,575.94738)"
       id="g2638">
      <path
         id="path2640"
         style="fill:#af0032;fill-opacity:1;fill-rule:nonzero;stroke:none"
         d="M 0,0 C 0,0 -1.167,3.946 -8.172,0.768 L -8.175,0.766 C -8.217,0.748 -8.284,0.719 -8.336,0.697 C -8.977,0.419 -9.375,0.452 -9.573,0.529 C -9.589,0.535 -9.581,0.607 -9.581,0.607 C -9.303,0.556 -9.063,0.572 -9.063,0.572 L -8.987,0.895 C -9.164,1.17 -9.5,1.52 -9.5,1.52 L -9.495,1.684 C -9.284,1.629 -8.914,1.139 -8.914,1.139 L -8.836,1.747 C -9.07,2.106 -9.318,2.35 -9.503,2.458 L -9.495,2.584 C -9.313,2.577 -8.815,2.097 -8.815,2.097 L -8.834,2.642 C -9.109,3.04 -9.328,3.373 -9.865,3.427 L -9.865,3.428 L -9.87,3.428 C -9.873,3.428 -9.875,3.429 -9.878,3.43 L -10.084,3.438 L -12.164,3.527 L -12.542,3.241 C -12.901,3.172 -13.139,3.107 -13.347,2.936 C -13.347,2.936 -13.313,2.65 -13.266,2.353 C -13.24,2.17 -13.172,2.098 -12.839,2.184 C -12.394,2.296 -12.589,2.608 -12.217,2.593 C -11.742,2.575 -11.773,2.129 -11.766,1.836 C -11.742,1.025 -12.378,1.252 -12.378,1.252 C -12.651,1.348 -12.631,1.477 -12.969,1.473 C -13.178,1.471 -13.141,1.033 -13.141,1.033 C -13.115,0.797 -12.436,0.749 -12.436,0.749 L -12.258,0.75 C -13.311,-0.907 -13.339,-1.67 -13.339,-1.67 C -14.648,-1.782 -15.565,-1.995 -15.565,-1.995 C -16.214,-1.092 -16.73,-1.095 -16.925,-1.136 C -17.237,-1.202 -17.364,-1.473 -17.271,-1.734 L -16.7,-1.497 L -16.695,-1.915 C -17.323,-1.782 -17.472,-2.052 -17.472,-2.052 C -17.688,-2.493 -17.102,-2.802 -17.102,-2.802 L -17.105,-2.392 L -16.169,-2.385 L -16.169,-2.594 C -16.888,-2.816 -16.573,-3.153 -16.573,-3.153 C -16.442,-3.377 -15.867,-3.53 -15.867,-3.53 L -15.855,-2.796 C -11.881,-3.442 -9.523,-2.463 -9.523,-2.463 C -9.344,-2.095 -9.258,-1.794 -9.258,-1.794 C -7.576,-1.449 -4.522,0.332 -4.522,0.332 C -3.842,0.625 -3.022,-1.207 -3.022,-1.207 C -2.303,-2.198 0.302,-1.438 0.302,-1.438 C 0,-1.903 -0.123,-2.268 -0.123,-2.268 C -0.897,-2.793 -1.068,-2.958 -1.068,-2.958 C -1.193,-3.063 -1.222,-3.178 -1.222,-3.178 C -1.222,-3.178 -1.266,-3.262 -1.172,-3.41 C -1.055,-3.602 -0.737,-3.751 -0.519,-3.632 L -0.472,-3.605 L -0.784,-3.17 L -0.276,-3.165 C -0.264,-4.479 0.906,-3.682 0.9,-3.268 L 0.252,-3.275 L 0.247,-2.744 L 0.533,-2.584 C 0.867,-3.05 1.177,-2.816 1.177,-2.816 C 1.393,-2.707 1.617,-2.396 1.617,-2.396 L 0.856,-2.403 L 1.227,-2.194 C 1.227,-2.194 2.58,-1.466 1.736,-0.565 C 1.736,-0.565 0.352,-1.188 0,0" />
    </g>
    <g
       transform="matrix(1.9683752,0,0,-1.9683752,412.41114,569.39623)"
       id="g2642">
      <path
         id="path2644"
         style="fill:#af0032;fill-opacity:1;fill-rule:nonzero;stroke:none"
         d="M 0,0 C -0.365,0 -1.06,-0.06 -2.055,-0.177 C -3.016,-0.291 -3.711,-0.351 -4.065,-0.352 C -4.513,-0.375 -5.307,-0.311 -5.58,-0.041 C -5.646,0.022 -5.682,0.106 -5.682,0.195 C -5.682,0.285 -5.649,0.369 -5.588,0.432 C -5.125,0.904 -4.013,0.842 -3.68,0.777 C -3.672,0.776 -3.414,0.733 -3.414,0.733 L -3.235,0.702 C -2.885,0.645 -2.032,0.512 -1.586,0.503 C -1.487,0.494 -0.344,0.467 -0.086,0.939 C -0.086,0.94 0.498,2.186 0.498,2.186 L 0.388,2.24 L -0.375,1.313 C -0.594,1.047 -1.227,0.992 -1.573,1.021 C -1.875,1.027 -2.474,1.1 -3.182,1.215 L -3.36,1.246 L -3.625,1.291 C -3.677,1.301 -5.216,1.552 -5.955,0.795 C -6.117,0.633 -6.203,0.418 -6.2,0.19 C -6.198,-0.038 -6.107,-0.251 -5.946,-0.411 C -5.416,-0.927 -4.19,-0.877 -4.049,-0.87 C -3.685,-0.869 -2.99,-0.809 -1.994,-0.692 C -1.033,-0.58 -0.338,-0.519 0.013,-0.518 C 0.464,-0.496 1.256,-0.56 1.531,-0.83 C 1.596,-0.892 1.633,-0.975 1.633,-1.065 C 1.633,-1.154 1.599,-1.238 1.537,-1.302 C 1.076,-1.773 -0.117,-1.712 -0.536,-1.649 L -0.536,-1.651 L -1.227,-1.58 C -0.836,-1.711 -0.469,-2.179 -0.469,-2.179 L -0.419,-2.184 L -0.419,-2.185 C -0.408,-2.186 -0.399,-2.186 -0.391,-2.187 L -0.362,-2.19 L -0.362,-2.189 C 0.151,-2.233 1.326,-2.258 1.906,-1.666 C 2.065,-1.502 2.154,-1.287 2.151,-1.06 C 2.148,-0.832 2.057,-0.619 1.893,-0.459 C 1.367,0.057 0.138,0.007 0,0" />
    </g>
    <g
       transform="matrix(1.9683752,0,0,-1.9683752,412.15506,541.69883)"
       id="g2646">
      <path
         id="path2648"
         style="fill:#af0032;fill-opacity:1;fill-rule:nonzero;stroke:none"
         d="M 0,0 L -0.519,0.066 C -0.617,0.081 -3.263,0.454 -4.414,-0.68 C -4.661,-0.923 -4.794,-1.245 -4.792,-1.586 C -4.789,-1.927 -4.646,-2.246 -4.396,-2.485 C -3.578,-3.259 -1.672,-3.183 -1.458,-3.172 C -0.894,-3.171 -0.425,-3.081 1.117,-2.905 C 2.606,-2.735 3.684,-2.645 4.231,-2.643 C 4.927,-2.608 6.156,-2.704 6.583,-3.109 C 6.682,-3.202 6.739,-3.328 6.739,-3.461 C 6.742,-3.595 6.687,-3.72 6.591,-3.816 C 5.875,-4.522 4.031,-4.432 3.38,-4.337 L 3.378,-4.339 L 2.307,-4.234 C 2.914,-4.431 3.484,-5.132 3.484,-5.132 L 3.559,-5.138 C 3.559,-5.138 3.559,-5.139 3.562,-5.139 C 3.573,-5.14 3.586,-5.142 3.601,-5.142 L 3.648,-5.146 C 4.442,-5.211 6.263,-5.249 7.167,-4.36 C 7.411,-4.116 7.547,-3.794 7.544,-3.453 C 7.542,-3.113 7.398,-2.793 7.145,-2.554 C 6.331,-1.78 4.425,-1.856 4.211,-1.868 C 3.643,-1.869 2.565,-1.958 1.023,-2.135 C -0.466,-2.305 -0.933,-2.395 -1.48,-2.396 C -2.175,-2.431 -3.403,-2.336 -3.831,-1.931 C -3.933,-1.837 -3.987,-1.712 -3.989,-1.579 C -3.989,-1.444 -3.938,-1.318 -3.841,-1.223 C -3.125,-0.517 -1.277,-0.608 -0.625,-0.703 C -0.612,-0.704 -0.11,-0.768 -0.11,-0.768 L 0.245,-0.813 C 0.922,-0.897 1.628,-1.094 2.487,-1.104 C 2.682,-1.116 4.914,-1.152 5.411,-0.444 C 5.411,-0.443 6.552,1.427 6.552,1.427 L 6.347,1.508 L 4.854,0.113 C 4.425,-0.285 3.192,-0.37 2.518,-0.329 C 1.93,-0.321 1.726,-0.215 0.347,-0.044 L 0,0" />
    </g>
    <g
       transform="matrix(1.9683752,0,0,-1.9683752,369.41986,546.06233)"
       id="g2650">
      <path
         id="path2652"
         style="fill:#af0032;fill-opacity:1;fill-rule:nonzero;stroke:none"
         d="M 0,0 L 0.953,-0.86 L 0.8,-0.996 C -0.427,-0.549 -0.572,-1.079 -0.572,-1.079 C -0.752,-1.372 -0.325,-1.913 -0.325,-1.913 L 0.49,-1.329 C 1.203,-3.91 4.56,-6.316 4.56,-6.316 C 4.56,-6.316 4.737,-5.101 5.734,-3.854 L 4.404,-3.639 L 3.917,-3.567 C 3.245,-2.106 2.06,-1.077 2.06,-1.077 C 2.44,-0.029 2.467,0.263 2.467,0.263 C 2.467,0.486 2.393,0.608 2.393,0.608 C 2.393,0.608 2.354,0.794 2.042,0.922 C 1.636,1.087 1.014,1.035 0.867,0.773 L 0.8,0.616 L 1.842,0.369 L 1.172,0.011 C 0.6,0.664 -0.018,0.593 -0.018,0.593 C -0.838,0.511 -0.716,-0.318 -0.716,-0.318 L 0,0" />
    </g>
    <g
       transform="matrix(1.9683752,0,0,-1.9683752,386.98743,540.99237)"
       id="g2654">
      <path
         id="path2656"
         style="fill:#af0032;fill-opacity:1;fill-rule:nonzero;stroke:none"
         d="M 0,0 L -0.05,0.002 L -0.284,0.012 L -0.334,0.014 L -0.805,-0.892 L -1.503,0.212 L -1.805,0.225 L -1.905,-1.416 L -1.816,-1.418 L 1.353,-1.549 L 1.431,-1.552 L 1.481,0.09 L 1.181,0.102 L 0.384,-0.939 L 0,0 z" />
    </g>
    <g
       transform="matrix(1.9683752,0,0,-1.9683752,419.49534,554.66707)"
       id="g2658">
      <path
         id="path2660"
         style="fill:#af0032;fill-opacity:1;fill-rule:nonzero;stroke:none"
         d="M 0,0 C 0,0 -1.81,5.869 -12.682,1.136 C -12.682,1.136 -12.787,1.092 -12.828,1.074 C -13.76,0.663 -14.346,0.716 -14.638,0.828 C -14.659,0.839 -14.648,0.943 -14.648,0.943 C -14.24,0.869 -13.888,0.892 -13.888,0.892 L -13.776,1.364 C -14.037,1.767 -14.531,2.279 -14.531,2.279 L -14.521,2.518 C -14.211,2.438 -13.672,1.72 -13.672,1.72 L -13.557,2.61 C -13.901,3.136 -14.26,3.492 -14.534,3.651 L -14.523,3.834 C -14.256,3.825 -13.529,3.123 -13.529,3.123 L -13.554,3.92 C -13.961,4.506 -14.281,4.998 -15.084,5.072 L -18.873,5.217 L -19.461,4.858 C -20.015,4.756 -20.385,4.613 -20.708,4.358 C -20.708,4.358 -20.656,3.976 -20.586,3.534 C -20.542,3.262 -20.437,3.156 -19.922,3.282 C -19.229,3.45 -19.534,3.914 -18.956,3.893 C -18.218,3.865 -18.346,3.193 -18.336,2.757 C -18.302,1.551 -19.206,1.767 -19.206,1.767 C -19.63,1.91 -19.596,2.146 -20.125,2.141 C -20.448,2.138 -20.393,1.527 -20.393,1.527 C -20.351,1.177 -19.294,1.107 -19.294,1.107 L -19.023,1.109 C -20.656,-1.359 -20.698,-2.496 -20.698,-2.496 C -22.731,-2.663 -24.434,-3.246 -24.434,-3.246 C -25.437,-1.902 -26.239,-1.906 -26.544,-1.967 C -27.023,-2.065 -27.226,-2.469 -27.078,-2.858 L -26.192,-2.506 L -26.187,-3.128 C -27.159,-2.931 -27.387,-3.331 -27.387,-3.331 C -27.726,-3.988 -26.815,-4.446 -26.815,-4.446 L -26.823,-3.837 L -25.372,-3.825 L -25.367,-4.136 C -26.487,-4.468 -25.995,-4.969 -25.995,-4.969 C -25.797,-5.303 -24.901,-5.528 -24.901,-5.528 L -24.882,-4.437 C -18.69,-4.919 -14.779,-3.672 -14.779,-3.672 C -14.5,-3.124 -14.367,-2.677 -14.367,-2.677 C -11.757,-2.163 -7.015,0.49 -7.015,0.49 C -6.112,0.916 -4.687,-1.799 -4.687,-1.799 C -3.573,-3.274 0.469,-2.141 0.469,-2.141 C -0.003,-2.834 -0.187,-3.377 -0.187,-3.377 C -1.39,-4.157 -1.659,-4.403 -1.659,-4.403 C -1.851,-4.559 -1.896,-4.729 -1.896,-4.729 C -1.896,-4.729 -1.966,-4.855 -1.823,-5.076 C -1.638,-5.36 -1.148,-5.582 -0.807,-5.406 L -0.734,-5.366 L -1.218,-4.719 L -0.429,-4.711 C -0.409,-6.665 1.404,-5.481 1.399,-4.864 L 0.391,-4.875 L 0.385,-4.083 L 0.828,-3.846 C 1.344,-4.54 1.826,-4.19 1.826,-4.19 C 2.161,-4.027 2.508,-3.565 2.508,-3.565 L 1.328,-3.577 L 1.901,-3.265 C 1.901,-3.265 4.005,-2.18 2.698,-0.841 C 2.698,-0.841 0.547,-1.769 0,0" />
    </g>
    <g
       transform="matrix(1.9683752,0,0,-1.9683752,380.70239,549.64044)"
       id="g2662">
      <path
         id="path2664"
         style="fill:#af0032;fill-opacity:1;fill-rule:nonzero;stroke:none"
         d="M 0,0 C 0.69,0.217 0.841,-0.189 0.841,-0.189 C 0.841,-0.189 0.99,-0.349 1.015,0.305 C 1.034,0.744 1.115,0.865 -0.466,0.368 C -2.047,-0.13 -2.922,1.244 -2.922,1.244 L -3.062,1.199 C -1.984,-0.723 0,0 0,0" />
    </g>
    <g
       transform="matrix(1.9683752,0,0,-1.9683752,386.6333,529.15811)"
       id="g2666">
      <path
         id="path2668"
         style="fill:#af0032;fill-opacity:1;fill-rule:nonzero;stroke:none"
         d="M 0,0 C 0.432,0.129 0.523,-0.126 0.523,-0.126 C 0.523,-0.126 0.614,-0.228 0.638,0.18 C 0.653,0.455 0.705,0.529 -0.287,0.234 C -1.281,-0.062 -1.812,0.806 -1.812,0.806 L -1.901,0.779 C -1.248,-0.432 0,0 0,0" />
    </g>
    <g
       transform="matrix(1.9683752,0,0,-1.9683752,386.74139,572.62949)"
       id="g2670">
      <path
         id="path2672"
         style="fill:#af0032;fill-opacity:1;fill-rule:nonzero;stroke:none"
         d="M 0,0 C 0.431,0.129 0.523,-0.125 0.523,-0.125 C 0.523,-0.125 0.614,-0.227 0.637,0.182 C 0.653,0.456 0.705,0.531 -0.289,0.235 C -1.282,-0.061 -1.813,0.807 -1.813,0.807 L -1.902,0.78 C -1.248,-0.432 0,0 0,0" />
    </g>
    <g
       transform="matrix(1.9683752,0,0,-1.9683752,415.22395,533.61196)"
       id="g2674">
      <path
         id="path2676"
         style="fill:#af0032;fill-opacity:1;fill-rule:nonzero;stroke:none"
         d="M 0,0 C 0,0 -1.384,-0.623 -1.736,0.565 C -1.736,0.565 -2.872,4.402 -9.622,1.46 C -9.742,1.411 -10.054,1.277 -10.08,1.265 C -10.718,0.983 -11.119,1.02 -11.32,1.097 C -11.333,1.104 -11.325,1.176 -11.325,1.176 C -11.046,1.124 -10.806,1.14 -10.806,1.14 L -10.731,1.463 C -10.908,1.739 -11.247,2.088 -11.247,2.088 L -11.239,2.252 C -11.028,2.197 -10.658,1.707 -10.658,1.707 L -10.58,2.315 C -10.814,2.674 -11.062,2.918 -11.25,3.026 L -11.242,3.152 C -11.056,3.145 -10.562,2.665 -10.562,2.665 L -10.578,3.211 C -10.856,3.611 -11.075,3.948 -11.622,3.997 L -11.916,4.009 L -11.916,4.006 L -13.9,4.092 L -14.278,3.806 C -14.637,3.737 -14.875,3.672 -15.083,3.5 C -15.083,3.5 -15.048,3.215 -15.002,2.918 C -14.976,2.735 -14.908,2.664 -14.575,2.749 C -14.129,2.861 -14.325,3.173 -13.953,3.158 C -13.478,3.14 -13.509,2.694 -13.502,2.401 C -13.478,1.59 -14.114,1.817 -14.114,1.817 C -14.387,1.913 -14.367,2.042 -14.705,2.038 C -14.914,2.036 -14.877,1.598 -14.877,1.598 C -14.851,1.362 -14.171,1.313 -14.171,1.313 L -13.994,1.315 C -15.046,-0.342 -15.075,-1.105 -15.075,-1.105 C -16.384,-1.218 -17.481,-1.609 -17.481,-1.609 C -18.127,-0.706 -18.645,-0.708 -18.84,-0.749 C -19.15,-0.815 -19.28,-1.086 -19.184,-1.348 L -18.614,-1.111 L -18.611,-1.528 C -19.236,-1.396 -19.384,-1.666 -19.384,-1.666 C -19.6,-2.107 -19.014,-2.415 -19.014,-2.415 L -19.02,-2.005 L -18.085,-1.998 L -18.083,-2.207 C -18.803,-2.43 -18.486,-2.767 -18.486,-2.767 C -18.358,-2.991 -17.783,-3.143 -17.783,-3.143 L -17.77,-2.41 C -13.781,-2.735 -11.259,-1.898 -11.259,-1.898 C -11.08,-1.53 -10.994,-1.229 -10.994,-1.229 C -9.312,-0.884 -6.257,0.896 -6.257,0.896 C -5.676,1.182 -4.757,-0.642 -4.757,-0.642 C -4.039,-1.633 -1.434,-0.873 -1.434,-0.873 C -1.736,-1.339 -1.856,-1.704 -1.856,-1.704 C -2.632,-2.228 -2.804,-2.393 -2.804,-2.393 C -2.929,-2.498 -2.958,-2.613 -2.958,-2.613 C -2.958,-2.613 -3.002,-2.697 -2.911,-2.845 C -2.791,-3.037 -2.476,-3.187 -2.254,-3.067 L -2.208,-3.041 L -2.52,-2.605 L -2.012,-2.601 C -2,-3.914 -0.83,-3.117 -0.836,-2.705 L -1.484,-2.711 L -1.489,-2.179 L -1.203,-2.02 C -0.869,-2.486 -0.559,-2.251 -0.559,-2.251 C -0.343,-2.142 -0.119,-1.831 -0.119,-1.831 L -0.879,-1.839 L -0.512,-1.63 C -0.512,-1.63 0.844,-0.9 0,0" />
    </g>
    <g
       transform="matrix(1.9683752,0,0,-1.9683752,445.81644,576.86228)"
       id="g2678">
      <path
         id="path2680"
         style="fill:#af0032;fill-opacity:1;fill-rule:nonzero;stroke:none"
         d="M 0,0 C 0.094,0.059 0.24,0.243 0.174,0.467 C 0.107,0.703 0.151,0.998 0.221,1.189 C 0.349,1.542 0.852,1.824 1.118,2.667 C 1.258,3.115 1.287,3.399 1.258,3.595 C 1.393,3.738 1.532,3.989 1.672,4.438 C 1.935,5.281 1.669,5.81 1.766,6.172 C 1.818,6.369 1.948,6.638 2.138,6.792 C 2.321,6.939 2.305,7.174 2.26,7.276 C 2.172,7.482 1.924,7.588 1.716,7.502 C 1.291,7.327 0.81,7.312 0.357,7.461 C 0.25,7.496 0.146,7.541 0.047,7.593 C -0.156,7.699 -0.409,7.621 -0.515,7.417 C -0.623,7.213 -0.554,6.941 -0.341,6.854 C 0.771,6.4 1.039,5.623 0.93,5.104 C 0.841,4.694 0.43,4.83 -0.057,4.969 C -0.057,4.969 -3.831,6.021 -3.843,6.025 C -4.034,6.084 -4.154,6.255 -4.148,6.434 C -4.148,6.434 -4.148,6.824 -4.164,7.023 C -4.179,7.252 -4.38,7.426 -4.609,7.41 C -4.838,7.393 -5.01,7.194 -4.995,6.964 C -4.961,6.508 -5.021,6.04 -5.156,5.605 C -5.295,5.168 -5.513,4.751 -5.799,4.395 C -5.945,4.215 -5.917,3.954 -5.737,3.809 C -5.557,3.664 -5.295,3.693 -5.151,3.872 C -5.026,4.028 -4.802,4.348 -4.802,4.348 C -4.706,4.497 -4.507,4.569 -4.318,4.509 C -4.304,4.505 -0.607,3.217 -0.607,3.217 C -0.128,3.052 0.289,2.928 0.125,2.542 C -0.081,2.053 -0.724,1.57 -1.898,1.831 C -2.123,1.881 -2.334,1.697 -2.362,1.469 C -2.39,1.241 -2.229,1.033 -2,1.004 C -1.89,0.99 -1.779,0.967 -1.67,0.934 C -1.213,0.799 -0.826,0.51 -0.578,0.125 C -0.456,-0.064 -0.19,-0.118 0,0" />
    </g>
  </g>
</svg>
