<?xml version="1.0" encoding="UTF-8" standalone="yes"?>
<svg xmlns="http://www.w3.org/2000/svg" xmlns:xlink="http://www.w3.org/1999/xlink" width="106.66666666666666px" height="106.66666666666666px" viewBox="0 0 80 80" version="1.1">
  <g id="surface1">
    <path style=" stroke:none;fill-rule:nonzero;fill:rgb(68.627451%,0%,19.607843%);fill-opacity:1;" d="M 15.484375 51.488281 C 15.058594 51.011719 14.726562 50.46875 14.492188 49.875 C 14.253906 49.265625 14.132812 48.628906 14.128906 47.980469 C 14.125 47.671875 13.871094 47.417969 13.558594 47.421875 C 13.246094 47.421875 12.996094 47.679688 13 47.988281 C 13 48.269531 13.019531 48.550781 13.0625 48.824219 L 13.054688 48.824219 C 13.089844 49.078125 12.949219 49.332031 12.699219 49.429688 L 11.027344 50.082031 L 11.027344 50.078125 C 10.804688 50.167969 10.5625 50.085938 10.488281 49.902344 L 10.363281 49.574219 C 10.3125 49.453125 10.355469 49.253906 10.515625 49.171875 C 10.621094 49.121094 10.828125 49 11.003906 48.878906 C 11.253906 48.695312 11.308594 48.335938 11.128906 48.085938 C 10.941406 47.835938 10.589844 47.777344 10.332031 47.964844 C 10.21875 48.046875 10.089844 48.125 9.957031 48.191406 C 9.453125 48.4375 8.898438 48.511719 8.359375 48.398438 C 8.054688 48.335938 7.753906 48.539062 7.691406 48.839844 C 7.628906 49.148438 7.828125 49.445312 8.136719 49.507812 C 8.398438 49.5625 8.671875 49.582031 8.9375 49.574219 C 9.097656 49.59375 9.242188 49.691406 9.300781 49.84375 L 9.453125 50.234375 C 9.539062 50.453125 9.429688 50.703125 9.203125 50.789062 L 7.769531 51.351562 L 7.761719 51.355469 C 7.199219 51.554688 6.578125 51.28125 6.359375 50.734375 L 6.355469 50.734375 C 6.320312 50.636719 6.28125 50.535156 6.25 50.433594 C 6.234375 50.378906 6.214844 50.324219 6.199219 50.265625 L 6.207031 50.269531 C 5.867188 49.003906 5.84375 48.105469 7.121094 47.273438 C 7.222656 47.207031 7.445312 47.085938 7.566406 47.015625 C 7.835938 46.863281 7.917969 46.507812 7.757812 46.238281 C 7.59375 45.972656 7.246094 45.886719 6.980469 46.050781 C 6.855469 46.125 6.722656 46.191406 6.585938 46.242188 C 6.007812 46.46875 5.375 46.46875 4.792969 46.253906 C 4.503906 46.148438 4.199219 46.289062 4.078125 46.558594 C 3.988281 46.75 4.027344 47.054688 4.253906 47.234375 C 4.527344 47.453125 4.867188 47.828125 4.867188 48.558594 C 4.84375 49.3125 4.941406 50.058594 5.175781 50.78125 C 5.414062 51.519531 5.773438 52.203125 6.253906 52.804688 C 6.445312 53.042969 6.613281 53.296875 6.757812 53.5625 C 6.757812 53.566406 6.761719 53.570312 6.765625 53.574219 C 6.835938 53.707031 6.890625 53.851562 6.921875 54.003906 C 7 54.347656 6.957031 54.703125 6.804688 55.027344 C 6.675781 55.3125 6.796875 55.648438 7.078125 55.78125 C 7.359375 55.914062 7.695312 55.792969 7.828125 55.507812 C 8 55.140625 8.089844 54.75 8.089844 54.351562 C 8.105469 54.15625 8.222656 53.972656 8.414062 53.882812 L 13.453125 51.476562 C 13.46875 51.46875 13.488281 51.457031 13.503906 51.449219 C 13.75 51.355469 14.019531 51.441406 14.167969 51.640625 C 14.3125 51.847656 14.46875 52.050781 14.640625 52.242188 C 14.851562 52.476562 15.207031 52.492188 15.441406 52.289062 C 15.671875 52.078125 15.691406 51.722656 15.484375 51.488281 "/>
    <path style=" stroke:none;fill-rule:nonzero;fill:rgb(68.627451%,0%,19.607843%);fill-opacity:1;" d="M 11.851562 35.71875 C 11.335938 35.164062 10.714844 34.75 10.023438 34.484375 C 9.023438 33.984375 8.515625 33.550781 8.515625 33.550781 C 8.496094 33.53125 8.46875 33.519531 8.441406 33.515625 C 8.414062 33.515625 8.382812 33.527344 8.363281 33.546875 C 8.296875 33.597656 7.753906 33.972656 6.769531 34.371094 C 4.886719 34.949219 3.488281 36.621094 3.410156 38.632812 C 3.335938 40.648438 4.605469 42.421875 6.445312 43.140625 C 7.394531 43.613281 7.902344 44.027344 7.964844 44.078125 C 7.988281 44.101562 8.015625 44.117188 8.046875 44.117188 C 8.074219 44.117188 8.097656 44.105469 8.117188 44.089844 L 8.117188 44.09375 C 8.117188 44.09375 8.664062 43.691406 9.710938 43.261719 C 11.601562 42.6875 13.003906 41.015625 13.082031 39 C 13.125 37.789062 12.691406 36.621094 11.851562 35.71875 M 11.785156 38.945312 C 11.773438 39.199219 11.722656 39.4375 11.605469 39.683594 C 11.480469 39.917969 11.3125 40.101562 11.164062 40.242188 C 10.46875 40.890625 9.339844 41.25 8.15625 41.203125 C 6.96875 41.160156 5.875 40.71875 5.226562 40.019531 C 5.089844 39.871094 4.9375 39.667969 4.828125 39.425781 C 4.703125 39.144531 4.703125 38.773438 4.707031 38.683594 C 4.71875 38.433594 4.761719 38.222656 4.878906 37.957031 C 5.390625 37.027344 6.777344 36.371094 8.335938 36.429688 C 9.894531 36.488281 11.230469 37.246094 11.667969 38.214844 C 11.769531 38.527344 11.792969 38.699219 11.785156 38.945312 "/>
    <path style=" stroke:none;fill-rule:nonzero;fill:rgb(68.627451%,0%,19.607843%);fill-opacity:1;" d="M 16.875 26.28125 C 16.882812 25.964844 16.632812 25.703125 16.316406 25.695312 C 15.699219 25.679688 15.113281 25.4375 14.667969 25.003906 C 14.566406 24.902344 14.46875 24.792969 14.382812 24.675781 C 14.199219 24.417969 13.84375 24.359375 13.585938 24.546875 C 13.332031 24.730469 13.273438 25.085938 13.457031 25.34375 C 13.535156 25.453125 13.800781 25.75 13.902344 25.851562 C 14.847656 26.867188 14.664062 27.578125 14.285156 28.417969 C 13.878906 29.304688 13.308594 29.554688 12.605469 29.160156 C 11.957031 28.800781 8.042969 26.679688 8.042969 26.679688 C 7.792969 26.574219 7.605469 26.304688 7.648438 26.050781 L 7.644531 26.050781 C 7.671875 25.828125 7.6875 25.601562 7.691406 25.375 C 7.695312 25.058594 7.445312 24.800781 7.128906 24.792969 C 6.8125 24.789062 6.554688 25.042969 6.546875 25.355469 C 6.535156 26.015625 6.410156 26.667969 6.164062 27.289062 C 5.921875 27.898438 5.582031 28.457031 5.152344 28.941406 C 4.945312 29.175781 4.964844 29.535156 5.199219 29.746094 C 5.433594 29.957031 5.796875 29.933594 6.007812 29.699219 C 6.199219 29.480469 6.371094 29.25 6.503906 29.070312 C 6.660156 28.855469 6.890625 28.785156 7.105469 28.894531 C 7.59375 29.136719 11.925781 31.300781 12.097656 31.390625 C 12.21875 31.453125 12.097656 31.390625 12.097656 31.390625 C 12.296875 31.488281 12.449219 31.714844 12.417969 31.890625 C 12.324219 32.429688 12.40625 32.972656 12.632812 33.476562 C 12.761719 33.761719 13.097656 33.890625 13.386719 33.761719 C 13.675781 33.628906 13.804688 33.292969 13.671875 33.007812 C 13.257812 32.09375 13.753906 31.476562 13.757812 31.464844 C 14.136719 30.988281 14.535156 30.585938 14.832031 30.078125 C 15.042969 29.71875 15.527344 28.886719 15.710938 27.832031 C 15.808594 27.253906 16.207031 26.957031 16.546875 26.785156 C 16.828125 26.636719 16.871094 26.382812 16.875 26.28125 "/>
    <path style=" stroke:none;fill-rule:nonzero;fill:rgb(68.627451%,0%,19.607843%);fill-opacity:1;" d="M 23.601562 18.078125 C 23.660156 17.785156 23.78125 17.152344 23.46875 16.609375 C 23.320312 16.355469 23.109375 16.234375 22.855469 16.285156 C 22.472656 16.359375 22.417969 16.667969 22.386719 16.921875 C 22.367188 17.136719 22.296875 17.328125 22.175781 17.457031 C 22.050781 17.589844 21.589844 17.964844 20.835938 17.289062 C 20.230469 16.660156 18.777344 15.792969 17.414062 16.867188 C 17.394531 16.882812 17.382812 16.898438 17.363281 16.917969 C 17.363281 16.917969 17.582031 14.429688 17.652344 13.523438 C 17.660156 13.394531 17.652344 12.945312 17.789062 12.695312 C 17.839844 12.601562 18.066406 12.285156 18.066406 12.285156 C 18.167969 12.136719 18.261719 11.980469 18.347656 11.820312 C 18.492188 11.546875 18.394531 11.203125 18.117188 11.054688 C 17.847656 10.90625 17.5 11.007812 17.351562 11.28125 C 17.042969 11.847656 16.824219 12.1875 16.324219 12.609375 C 15.832031 13.023438 15.28125 13.339844 14.679688 13.550781 C 14.386719 13.65625 14.230469 13.980469 14.335938 14.273438 C 14.441406 14.566406 14.765625 14.726562 15.058594 14.617188 C 15.148438 14.585938 15.335938 14.503906 15.457031 14.457031 C 15.789062 14.335938 16.355469 14.679688 16.359375 15.351562 L 16.117188 18.265625 C 16.105469 18.320312 16.078125 18.378906 16.039062 18.421875 C 15.921875 18.550781 15.71875 18.566406 15.582031 18.457031 L 13.839844 17.0625 C 13.679688 16.902344 13.628906 16.664062 13.710938 16.457031 C 13.804688 16.242188 13.890625 16.019531 13.960938 15.792969 C 14.054688 15.496094 13.890625 15.175781 13.59375 15.082031 C 13.292969 14.988281 12.976562 15.152344 12.882812 15.453125 C 12.6875 16.070312 12.464844 16.542969 12.054688 17.054688 C 11.652344 17.558594 11.175781 17.976562 10.632812 18.300781 C 10.363281 18.460938 10.273438 18.808594 10.433594 19.078125 C 10.59375 19.34375 10.941406 19.433594 11.210938 19.273438 C 11.441406 19.136719 11.660156 18.984375 11.871094 18.816406 L 11.871094 18.820312 C 12.0625 18.679688 12.316406 18.746094 12.523438 18.875 L 12.523438 18.878906 C 12.523438 18.878906 17.089844 22.207031 17.105469 22.21875 C 17.359375 22.402344 17.449219 22.695312 17.351562 22.925781 C 17.226562 23.191406 17.113281 23.46875 17.027344 23.753906 C 16.933594 24.050781 17.097656 24.367188 17.394531 24.460938 C 17.695312 24.554688 18.011719 24.390625 18.105469 24.089844 C 18.292969 23.484375 18.59375 22.921875 18.984375 22.414062 C 19.386719 21.902344 19.8125 21.542969 20.363281 21.207031 C 20.632812 21.042969 20.71875 20.695312 20.554688 20.429688 C 20.394531 20.164062 20.042969 20.078125 19.78125 20.242188 C 19.527344 20.394531 19.285156 20.5625 19.058594 20.75 C 18.863281 20.902344 18.582031 20.90625 18.375 20.746094 C 18.375 20.746094 17.835938 20.332031 17.285156 19.910156 C 17.152344 19.804688 17.15625 19.472656 17.15625 19.382812 C 17.15625 18.230469 17.820312 17.941406 18.105469 17.804688 C 19.136719 17.300781 19.851562 18.402344 19.929688 18.53125 L 19.941406 18.546875 L 19.957031 18.570312 C 20.386719 19.160156 20.898438 19.503906 21.464844 19.589844 C 22.214844 19.707031 22.683594 19.367188 22.832031 19.273438 C 23.347656 18.945312 23.542969 18.371094 23.601562 18.078125 "/>
    <path style=" stroke:none;fill-rule:nonzero;fill:rgb(68.627451%,0%,19.607843%);fill-opacity:1;" d="M 33.144531 13.203125 C 32.71875 12.746094 32.328125 12.105469 32.46875 11.164062 C 32.511719 10.859375 32.296875 10.546875 31.984375 10.496094 C 31.679688 10.449219 31.339844 10.679688 31.316406 11.117188 C 31.300781 11.398438 31.304688 11.59375 31.300781 11.796875 C 31.261719 13.054688 30.480469 13.59375 29.59375 13.871094 C 29.078125 13.996094 28.554688 13.746094 28.308594 13.21875 C 28.085938 12.746094 27.695312 11.902344 27.695312 11.902344 C 27.59375 11.683594 27.65625 11.441406 27.835938 11.355469 L 28.152344 11.207031 C 28.277344 11.148438 28.480469 11.195312 28.558594 11.324219 C 28.640625 11.457031 28.761719 11.636719 28.894531 11.800781 C 29.09375 12.039062 29.453125 12.074219 29.691406 11.875 C 29.933594 11.671875 29.964844 11.316406 29.761719 11.074219 C 29.671875 10.964844 29.585938 10.84375 29.515625 10.714844 C 29.234375 10.230469 29.105469 9.683594 29.179688 9.136719 C 29.222656 8.828125 29.003906 8.542969 28.695312 8.5 C 28.386719 8.457031 28.101562 8.675781 28.0625 8.984375 C 28.023438 9.253906 28.039062 9.515625 28.0625 9.78125 C 28.0625 9.941406 27.972656 10.09375 27.820312 10.164062 L 27.441406 10.339844 C 27.226562 10.441406 26.972656 10.34375 26.871094 10.128906 L 26.222656 8.726562 L 26.214844 8.726562 C 25.980469 8.175781 26.214844 7.582031 26.757812 7.300781 C 28.320312 6.476562 29.414062 6.601562 30.347656 7.976562 C 30.414062 8.074219 30.460938 8.152344 30.53125 8.253906 C 30.710938 8.507812 31.0625 8.574219 31.316406 8.394531 C 31.574219 8.214844 31.636719 7.863281 31.457031 7.609375 C 31.375 7.484375 31.304688 7.359375 31.242188 7.226562 C 30.980469 6.660156 30.925781 6.128906 31.105469 5.453125 C 31.1875 5.128906 31.039062 4.828125 30.742188 4.730469 C 30.613281 4.6875 30.328125 4.667969 30.125 4.933594 C 29.929688 5.195312 29.621094 5.46875 29.285156 5.578125 C 29.136719 5.628906 28.976562 5.65625 28.816406 5.660156 C 28.066406 5.679688 27.503906 5.761719 26.800781 6.039062 C 26.078125 6.316406 25.460938 6.621094 24.886719 7.132812 C 24.886719 7.132812 24.152344 7.8125 23.683594 7.972656 C 23.347656 8.082031 22.988281 8.046875 22.65625 7.914062 C 22.363281 7.796875 22.015625 7.929688 21.921875 8.226562 C 21.800781 8.585938 22.003906 8.859375 22.3125 8.996094 C 22.59375 9.121094 23.039062 9.183594 23.40625 9.15625 C 23.601562 9.140625 23.792969 9.265625 23.890625 9.453125 L 26.523438 14.222656 C 26.632812 14.449219 26.574219 14.609375 26.363281 14.761719 L 26.367188 14.761719 C 25.9375 15.074219 25.605469 15.496094 25.410156 16 C 25.296875 16.289062 25.441406 16.617188 25.734375 16.730469 C 26.023438 16.84375 26.304688 16.675781 26.464844 16.40625 C 26.621094 16.152344 26.925781 15.792969 27.265625 15.613281 C 27.773438 15.355469 28.265625 15.441406 29.003906 15.304688 C 29.789062 15.15625 30.265625 14.925781 30.488281 14.796875 C 30.695312 14.679688 31.265625 14.164062 31.496094 14.082031 C 31.832031 13.96875 32.289062 14.039062 32.527344 14.117188 C 32.773438 14.199219 33.011719 14.09375 33.113281 14 C 33.34375 13.789062 33.355469 13.429688 33.144531 13.203125 "/>
    <path style=" stroke:none;fill-rule:nonzero;fill:rgb(68.627451%,0%,19.607843%);fill-opacity:1;" d="M 45.011719 3.878906 C 44.898438 3.78125 44.613281 3.671875 44.351562 3.839844 C 44.082031 4.023438 43.691406 4.078125 43.421875 4.070312 C 42.925781 4.046875 42.402344 3.511719 41.234375 3.511719 C 40.609375 3.511719 40.242188 3.585938 40.007812 3.703125 C 39.769531 3.585938 39.402344 3.511719 38.777344 3.511719 C 37.609375 3.511719 37.085938 4.046875 36.589844 4.070312 C 36.320312 4.078125 35.929688 4.023438 35.660156 3.839844 C 35.398438 3.671875 35.109375 3.78125 35 3.878906 C 34.777344 4.070312 34.738281 4.425781 34.929688 4.65625 C 35.316406 5.121094 35.527344 5.726562 35.519531 6.355469 C 35.515625 6.503906 35.503906 6.65625 35.476562 6.800781 C 35.421875 7.101562 35.621094 7.386719 35.921875 7.441406 C 36.222656 7.496094 36.535156 7.300781 36.5625 6.996094 C 36.695312 5.414062 37.53125 4.78125 38.230469 4.714844 C 38.78125 4.660156 38.773438 5.234375 38.789062 5.90625 C 38.789062 5.90625 38.957031 11.085938 38.957031 11.105469 C 38.957031 11.367188 38.789062 11.585938 38.558594 11.652344 C 38.558594 11.652344 38.066406 11.808594 37.824219 11.902344 C 37.539062 12.015625 37.398438 12.335938 37.507812 12.617188 C 37.621094 12.902344 37.941406 13.042969 38.226562 12.929688 C 38.789062 12.707031 39.402344 12.597656 40.007812 12.597656 C 40.609375 12.597656 41.222656 12.707031 41.785156 12.929688 C 42.074219 13.042969 42.390625 12.902344 42.503906 12.617188 C 42.617188 12.335938 42.472656 12.015625 42.191406 11.902344 C 41.945312 11.808594 41.453125 11.652344 41.453125 11.652344 C 41.222656 11.585938 41.058594 11.367188 41.058594 11.105469 C 41.058594 11.085938 41.21875 5.90625 41.21875 5.90625 C 41.238281 5.234375 41.230469 4.660156 41.78125 4.714844 C 42.480469 4.78125 43.316406 5.414062 43.449219 6.996094 C 43.472656 7.300781 43.792969 7.496094 44.089844 7.441406 C 44.390625 7.386719 44.589844 7.101562 44.535156 6.800781 C 44.507812 6.65625 44.496094 6.503906 44.496094 6.355469 C 44.484375 5.726562 44.695312 5.121094 45.085938 4.65625 C 45.273438 4.425781 45.238281 4.070312 45.011719 3.878906 "/>
    <path style=" stroke:none;fill-rule:nonzero;fill:rgb(68.627451%,0%,19.607843%);fill-opacity:1;" d="M 64.136719 12.632812 C 63.558594 12.058594 62.917969 11.6875 62.246094 11.414062 C 61.589844 11.148438 61.140625 10.910156 60.660156 10.507812 C 60.183594 10.109375 59.785156 9.636719 59.488281 9.097656 C 59.339844 8.828125 59.003906 8.730469 58.730469 8.878906 C 58.460938 9.027344 58.363281 9.367188 58.515625 9.636719 C 58.660156 9.898438 58.824219 10.144531 59.003906 10.378906 C 59.085938 10.53125 59.0625 10.71875 58.679688 11.183594 L 58.667969 11.191406 C 58.667969 11.191406 55.753906 15.023438 55.523438 15.332031 C 55.363281 15.539062 55.085938 15.601562 54.863281 15.503906 C 54.863281 15.503906 54.378906 15.304688 54.128906 15.226562 C 53.835938 15.132812 53.523438 15.292969 53.425781 15.585938 C 53.332031 15.878906 53.496094 16.191406 53.789062 16.285156 C 54.378906 16.476562 54.917969 16.769531 55.402344 17.160156 C 55.894531 17.554688 56.300781 18.035156 56.609375 18.578125 C 56.761719 18.847656 57.097656 18.941406 57.367188 18.789062 C 57.636719 18.636719 57.730469 18.296875 57.578125 18.03125 C 57.445312 17.796875 57.304688 17.570312 57.148438 17.351562 C 57.007812 17.152344 57 16.871094 57.167969 16.660156 L 60.621094 12.75 C 61.082031 12.21875 61.207031 12.242188 61.410156 12.269531 C 61.714844 12.304688 62.578125 12.703125 63.1875 13.3125 C 64.019531 14.148438 64.019531 15.464844 63.140625 16.53125 C 62.644531 17.140625 61.753906 17.472656 61.128906 17.472656 C 60.703125 17.472656 60.003906 17.582031 59.5 17.816406 C 58.847656 18.125 58.449219 18.574219 58.242188 19.113281 C 58.035156 19.675781 58.191406 20.296875 58.269531 20.480469 C 58.503906 21.0625 58.953125 21.355469 59.28125 21.515625 C 59.609375 21.675781 60.164062 21.90625 60.832031 21.691406 C 61.054688 21.621094 61.25 21.410156 61.261719 21.15625 C 61.269531 20.84375 61.019531 20.597656 60.683594 20.5625 C 60.289062 20.523438 59.78125 19.859375 60.246094 19.3125 C 60.796875 18.671875 62.035156 18.8125 62.160156 18.820312 C 62.28125 18.828125 62.164062 18.816406 62.164062 18.816406 C 63.351562 18.957031 64.390625 18.589844 65.039062 17.800781 C 66.152344 16.441406 65.730469 14.230469 64.136719 12.632812 "/>
    <path style=" stroke:none;fill-rule:nonzero;fill:rgb(68.627451%,0%,19.607843%);fill-opacity:1;" d="M 53.261719 6.300781 C 52.628906 6.328125 52.011719 6.234375 51.414062 6.027344 C 50.828125 5.824219 50.292969 5.519531 49.820312 5.121094 C 49.585938 4.921875 49.238281 4.953125 49.035156 5.183594 C 48.835938 5.421875 48.867188 5.773438 49.101562 5.972656 C 49.328125 6.164062 49.628906 6.371094 49.730469 6.4375 C 49.996094 6.601562 49.988281 6.773438 49.800781 7.359375 C 49.675781 7.746094 48.511719 11.722656 48.3125 12.355469 C 48.21875 12.648438 47.964844 12.777344 47.765625 12.761719 C 47.492188 12.738281 47.238281 12.734375 46.972656 12.75 C 46.664062 12.765625 46.429688 13.027344 46.445312 13.332031 C 46.457031 13.640625 46.71875 13.878906 47.027344 13.859375 C 47.644531 13.828125 48.257812 13.914062 48.847656 14.105469 C 49.445312 14.304688 49.996094 14.605469 50.476562 15.007812 C 50.714844 15.207031 51.066406 15.171875 51.261719 14.9375 C 51.457031 14.699219 51.429688 14.347656 51.191406 14.152344 C 50.984375 13.980469 50.753906 13.808594 50.550781 13.671875 C 50.363281 13.546875 50.238281 13.273438 50.320312 13.019531 C 50.320312 13.019531 51.980469 8.617188 52.171875 8.117188 C 52.40625 7.496094 52.515625 7.382812 52.839844 7.414062 C 53.074219 7.433594 53.160156 7.433594 53.324219 7.414062 C 53.636719 7.375 53.851562 7.140625 53.839844 6.832031 C 53.824219 6.527344 53.566406 6.285156 53.261719 6.300781 "/>
    <path style=" stroke:none;fill-rule:nonzero;fill:rgb(68.627451%,0%,19.607843%);fill-opacity:1;" d="M 73.550781 26.285156 C 73.117188 24.015625 72.460938 22.992188 72.457031 22.984375 C 71.546875 21.1875 69.824219 20.234375 67.621094 20.523438 C 66.5625 20.570312 65.910156 20.457031 65.828125 20.441406 C 65.800781 20.429688 65.769531 20.433594 65.746094 20.445312 C 65.722656 20.457031 65.699219 20.480469 65.695312 20.503906 L 65.691406 20.503906 C 65.691406 20.503906 65.410156 21.113281 64.710938 21.984375 C 64.195312 22.515625 63.8125 23.15625 63.570312 23.871094 C 63.214844 24.933594 63.140625 26.246094 64.085938 28.050781 C 64.582031 29 65.691406 29.742188 65.949219 30.140625 C 66.175781 30.488281 66.214844 30.738281 66.214844 31.230469 C 66.214844 31.519531 66.410156 31.691406 66.570312 31.746094 C 66.832031 31.84375 67.121094 31.722656 67.242188 31.476562 C 67.242188 31.472656 67.246094 31.472656 67.246094 31.46875 C 67.25 31.453125 67.261719 31.4375 67.265625 31.421875 C 67.429688 30.976562 67.71875 30.613281 68.101562 30.371094 C 68.707031 30.09375 69.453125 30.160156 70.027344 30.554688 C 70.234375 30.695312 70.523438 30.644531 70.667969 30.433594 C 70.8125 30.222656 70.753906 29.9375 70.550781 29.792969 C 70.109375 29.492188 69.605469 29.324219 69.09375 29.289062 C 69.078125 29.257812 69.054688 29.230469 69.035156 29.203125 C 69.285156 28.765625 69.4375 28.269531 69.46875 27.769531 C 69.488281 27.472656 69.261719 27.210938 68.960938 27.191406 C 68.660156 27.171875 68.425781 27.402344 68.382812 27.699219 C 68.34375 27.992188 68.222656 28.375 68.101562 28.523438 C 66.898438 29.984375 65.355469 28.140625 64.941406 26.613281 C 64.378906 24.652344 66.003906 23.582031 67.0625 23.042969 C 68.121094 22.507812 69.292969 22.363281 70.195312 22.65625 C 70.34375 22.703125 71.011719 22.964844 71.421875 23.632812 C 71.480469 23.726562 72.035156 24.566406 72.203125 25.984375 C 72.273438 26.535156 71.867188 27.050781 71.269531 27.539062 C 71.1875 27.597656 71.109375 27.65625 71.03125 27.71875 C 70.789062 27.917969 70.75 28.277344 70.949219 28.523438 C 71.152344 28.765625 71.511719 28.800781 71.753906 28.601562 C 71.867188 28.507812 72.050781 28.390625 72.117188 28.351562 C 72.636719 28.058594 73.167969 27.988281 73.890625 28.140625 C 74.171875 28.199219 74.492188 28 74.523438 27.707031 C 74.597656 26.929688 73.6875 27.007812 73.550781 26.285156 "/>
    <path style=" stroke:none;fill-rule:nonzero;fill:rgb(68.627451%,0%,19.607843%);fill-opacity:1;" d="M 67.507812 41.851562 C 68.074219 41.597656 68.710938 41.5625 69.304688 41.753906 C 69.441406 41.800781 69.582031 41.855469 69.707031 41.921875 C 69.980469 42.070312 70.324219 41.964844 70.472656 41.6875 C 70.617188 41.414062 70.558594 41.042969 70.15625 40.882812 C 68.6875 40.296875 68.039062 40.03125 68.128906 38.375 C 68.160156 37.847656 68.613281 37.433594 69.167969 37.371094 C 69.617188 37.320312 70.609375 37.21875 70.609375 37.21875 C 70.847656 37.195312 71.058594 37.332031 71.078125 37.53125 L 71.117188 37.878906 C 71.132812 38.011719 71.050781 38.140625 70.925781 38.214844 C 70.71875 38.253906 70.511719 38.3125 70.316406 38.386719 C 70.027344 38.496094 69.878906 38.824219 69.988281 39.117188 C 70.101562 39.40625 70.425781 39.554688 70.71875 39.445312 C 70.855469 39.390625 70.996094 39.351562 71.140625 39.324219 C 71.691406 39.21875 72.246094 39.292969 72.742188 39.542969 C 73.019531 39.683594 73.359375 39.570312 73.5 39.292969 C 73.640625 39.011719 73.527344 38.671875 73.246094 38.53125 C 73.007812 38.410156 72.753906 38.320312 72.496094 38.253906 C 72.34375 38.199219 72.230469 38.070312 72.214844 37.898438 L 72.167969 37.484375 C 72.140625 37.25 72.316406 37.039062 72.554688 37.015625 L 72.554688 37.011719 L 74.089844 36.851562 L 74.089844 36.847656 C 74.691406 36.800781 75.195312 37.261719 75.28125 37.835938 C 75.5625 39.707031 74.953125 40.691406 73.140625 41.085938 C 72.839844 41.152344 72.667969 41.484375 72.753906 41.785156 C 72.839844 42.085938 73.152344 42.257812 73.449219 42.171875 C 73.59375 42.132812 73.738281 42.101562 73.886719 42.089844 C 74.503906 42.023438 75.148438 42.210938 75.613281 42.550781 C 75.875 42.738281 76.230469 42.664062 76.40625 42.425781 C 76.484375 42.316406 76.605469 42.003906 76.398438 41.746094 C 76.199219 41.507812 76.070312 41.125 76.078125 40.773438 C 76.078125 40.613281 76.101562 40.457031 76.152344 40.304688 C 76.375 39.585938 76.472656 38.839844 76.4375 38.085938 C 76.40625 37.308594 76.230469 36.554688 75.929688 35.84375 C 75.8125 35.566406 75.714844 35.273438 75.644531 34.980469 C 75.644531 34.980469 75.640625 34.976562 75.640625 34.972656 C 75.609375 34.824219 75.589844 34.667969 75.601562 34.515625 C 75.617188 34.160156 75.75 33.832031 75.984375 33.554688 C 76.1875 33.320312 76.160156 32.960938 75.921875 32.757812 C 75.683594 32.558594 75.324219 32.585938 75.125 32.820312 C 74.859375 33.132812 74.675781 33.488281 74.566406 33.867188 C 74.5 34.054688 74.339844 34.199219 74.132812 34.238281 L 68.765625 35.210938 C 68.519531 35.238281 68.386719 35.132812 68.308594 34.890625 L 68.304688 34.890625 C 68.152344 34.382812 67.855469 33.9375 67.441406 33.589844 C 67.203125 33.390625 66.84375 33.421875 66.644531 33.660156 C 66.445312 33.902344 66.476562 34.257812 66.71875 34.457031 C 66.992188 34.6875 67.21875 34.984375 67.257812 35.335938 C 67.359375 36.203125 67.070312 36.203125 66.921875 37.332031 C 66.816406 38.117188 66.96875 38.851562 67.140625 39.542969 C 67.335938 40.3125 66.980469 40.804688 66.84375 40.96875 C 66.671875 41.183594 66.707031 41.4375 66.761719 41.5625 C 66.890625 41.847656 67.222656 41.976562 67.507812 41.851562 "/>
    <path style=" stroke:none;fill-rule:nonzero;fill:rgb(68.627451%,0%,19.607843%);fill-opacity:1;" d="M 14.597656 39.675781 C 14.597656 53.691406 25.992188 65.085938 40.003906 65.085938 C 54.015625 65.085938 65.410156 53.691406 65.410156 39.675781 C 65.410156 25.667969 54.015625 14.269531 40.003906 14.269531 C 25.992188 14.269531 14.597656 25.667969 14.597656 39.675781 M 15.902344 39.675781 C 15.902344 26.390625 26.714844 15.578125 40.003906 15.578125 C 53.296875 15.578125 64.109375 26.390625 64.109375 39.675781 C 64.109375 52.96875 53.296875 63.78125 40.003906 63.78125 C 26.714844 63.78125 15.902344 52.96875 15.902344 39.675781 "/>
    <path style=" stroke:none;fill-rule:nonzero;fill:rgb(68.627451%,0%,19.607843%);fill-opacity:1;" d="M 0 40.003906 C 0 62.0625 17.945312 80.011719 40.003906 80.011719 C 62.066406 80.011719 80.011719 62.0625 80.011719 40.003906 C 80.011719 17.945312 62.066406 0 40.003906 0 C 17.945312 0 0 17.945312 0 40.003906 M 1.628906 40.003906 C 1.628906 18.847656 18.847656 1.632812 40.003906 1.632812 C 61.164062 1.632812 78.378906 18.847656 78.378906 40.003906 C 78.378906 61.164062 61.164062 78.378906 40.003906 78.378906 C 18.847656 78.378906 1.628906 61.164062 1.628906 40.003906 "/>
    <path style=" stroke:none;fill-rule:nonzero;fill:rgb(68.627451%,0%,19.607843%);fill-opacity:1;" d="M 46.003906 28.332031 C 44.613281 27.320312 45.460938 26.785156 45.460938 26.785156 C 45.460938 26.785156 45.234375 26.300781 44.746094 25.789062 C 44.472656 25.453125 44.300781 25.574219 44.300781 25.574219 L 42.433594 26.589844 L 43.503906 27.695312 C 42.449219 27.839844 41.890625 28.550781 41.890625 28.550781 L 40.414062 28.453125 C 40.207031 28.449219 40.0625 28.515625 40.0625 28.515625 C 40.0625 28.515625 39.9375 28.550781 39.859375 28.746094 C 39.753906 29 39.847656 29.367188 40.148438 29.429688 L 40.214844 29.445312 L 40.296875 28.808594 L 40.898438 29.183594 C 40.308594 29.578125 40.484375 29.9375 40.484375 29.9375 C 40.578125 30.425781 41.566406 30.269531 41.566406 30.269531 L 41.011719 29.820312 L 41.757812 29.183594 L 42.019531 29.316406 C 41.757812 30.078125 42.339844 30.117188 42.339844 30.117188 C 42.679688 30.199219 43.257812 30.035156 43.257812 30.035156 L 42.71875 29.265625 C 44.144531 29.027344 46.089844 28.394531 46.003906 28.332031 "/>
    <path style=" stroke:none;fill-rule:nonzero;fill:rgb(68.627451%,0%,19.607843%);fill-opacity:1;" d="M 45.953125 58.566406 C 44.652344 57.175781 45.683594 56.277344 45.683594 56.277344 C 45.261719 55.492188 45.09375 55.277344 44.804688 54.949219 C 44.585938 54.679688 44.363281 54.773438 44.363281 54.773438 L 42.507812 55.828125 L 43.621094 57.691406 C 42.625 58.527344 42.113281 59.105469 42.113281 59.105469 L 40.726562 58.96875 C 40.53125 58.964844 40.402344 59.054688 40.402344 59.054688 C 40.402344 59.054688 40.28125 59.101562 40.207031 59.375 C 40.105469 59.722656 40.195312 60.222656 40.480469 60.3125 L 40.542969 60.328125 L 40.617188 59.457031 L 41.179688 59.972656 C 40.628906 60.519531 40.796875 61.011719 40.796875 61.011719 C 40.878906 61.683594 41.800781 61.46875 41.800781 61.46875 L 41.289062 60.847656 L 41.984375 59.972656 L 42.230469 60.152344 C 41.984375 61.203125 42.53125 61.257812 42.53125 61.257812 C 42.84375 61.371094 43.386719 61.140625 43.386719 61.140625 L 42.886719 60.085938 C 44.214844 59.757812 46.035156 58.648438 45.953125 58.566406 "/>
    <path style=" stroke:none;fill-rule:nonzero;fill:rgb(68.627451%,0%,19.607843%);fill-opacity:1;" d="M 48.882812 44.445312 C 46.722656 42.941406 48.042969 42.148438 48.042969 42.148438 C 48.042969 42.148438 47.691406 41.421875 46.9375 40.660156 C 46.511719 40.164062 46.246094 40.34375 46.246094 40.34375 L 43.34375 41.851562 L 45.007812 43.5 C 43.363281 43.71875 42.507812 44.777344 42.507812 44.777344 L 40.210938 44.628906 C 39.886719 44.625 39.667969 44.722656 39.667969 44.722656 C 39.667969 44.722656 39.472656 44.777344 39.347656 45.070312 C 39.183594 45.445312 39.332031 45.988281 39.796875 46.085938 L 39.902344 46.101562 L 40.03125 45.15625 L 40.960938 45.714844 C 40.050781 46.304688 40.320312 46.835938 40.320312 46.835938 C 40.464844 47.566406 41.992188 47.332031 41.992188 47.332031 L 41.136719 46.664062 L 42.296875 45.710938 L 42.703125 45.910156 C 42.296875 47.050781 43.199219 47.105469 43.199219 47.105469 C 43.722656 47.226562 44.617188 46.976562 44.617188 46.976562 L 43.785156 45.839844 C 45.996094 45.480469 49.015625 44.539062 48.882812 44.445312 "/>
    <path style=" stroke:none;fill-rule:nonzero;fill:rgb(68.627451%,0%,19.607843%);fill-opacity:1;" d="M 25.664062 68.40625 C 25.664062 68.40625 26.082031 68 26.085938 68 C 26.5625 67.460938 27.007812 66.914062 27.519531 66.660156 C 27.546875 66.644531 27.636719 66.605469 27.652344 66.601562 C 27.855469 66.511719 28.082031 66.472656 28.320312 66.5 C 28.878906 66.5625 29.320312 66.953125 29.46875 67.460938 C 29.488281 67.496094 29.503906 67.527344 29.527344 67.5625 C 29.757812 67.90625 30.238281 68.023438 30.5625 67.769531 C 30.933594 67.480469 30.890625 67.132812 30.890625 67.113281 C 30.867188 66.015625 29.585938 65.171875 28.0625 65.171875 C 27.664062 65.171875 27.289062 65.242188 26.941406 65.34375 C 26.691406 65.417969 26.214844 65.632812 25.9375 65.882812 C 25.371094 66.332031 24.867188 66.953125 24.269531 67.582031 C 23.128906 68.773438 22.246094 69.550781 20.898438 69.074219 C 20.628906 68.980469 20.328125 68.808594 20.050781 68.542969 C 19.460938 68.007812 19.125 67.21875 19.210938 66.371094 C 19.355469 64.953125 20.792969 63.726562 22.507812 64.109375 L 22.503906 64.109375 C 22.976562 64.21875 23.335938 64.601562 23.382812 65.082031 C 23.421875 65.390625 23.710938 65.617188 24.019531 65.574219 C 24.328125 65.53125 24.546875 65.246094 24.5 64.9375 C 24.464844 64.457031 24.109375 63.773438 23.648438 63.484375 L 23.589844 63.449219 C 22.644531 62.824219 21.1875 62.890625 19.558594 63.621094 C 19.558594 63.621094 18.167969 64.261719 17.800781 64.355469 C 17.296875 64.488281 16.640625 64.460938 16.402344 64.082031 C 16.335938 63.976562 16.320312 63.875 16.351562 63.769531 C 16.425781 63.53125 16.757812 63.277344 17.339844 62.898438 C 17.964844 62.496094 18.519531 62.054688 18.699219 61.5 C 18.808594 61.136719 18.765625 60.726562 18.46875 60.246094 C 18.132812 59.714844 17.609375 59.324219 16.863281 59.054688 C 16.910156 58.800781 16.90625 58.410156 16.640625 57.984375 C 15.851562 56.730469 14.488281 55.734375 13.082031 55.929688 L 13 55.945312 C 12.699219 56.007812 12.414062 56.117188 12.144531 56.277344 C 11.878906 56.4375 11.792969 56.785156 11.953125 57.054688 C 12.113281 57.320312 12.46875 57.433594 12.734375 57.269531 C 12.734375 57.269531 12.8125 57.230469 12.847656 57.1875 C 13.144531 56.871094 13.578125 56.6875 14.039062 56.738281 C 14.835938 56.820312 15.410156 57.527344 15.328125 58.316406 C 15.320312 58.398438 15.300781 58.476562 15.28125 58.554688 C 15.269531 58.621094 15.242188 58.695312 15.195312 58.777344 C 15.0625 59.066406 14.414062 59.570312 14.328125 59.632812 C 13.351562 60.347656 12.496094 61.371094 13.082031 62.464844 C 13.351562 62.953125 13.691406 63.171875 14.398438 63.421875 C 14.34375 63.730469 14.425781 64.089844 14.628906 64.410156 C 15.234375 65.378906 16.613281 65.789062 18.019531 65.296875 C 17.113281 67.550781 18.472656 70.039062 20.410156 70.628906 C 22.242188 71.1875 23.449219 70.242188 24 69.9375 C 24.5625 69.554688 25.152344 68.902344 25.664062 68.40625 M 15.066406 62.609375 C 14.550781 62.558594 14.167969 62.089844 14.226562 61.570312 C 14.25 61.316406 14.375 61.101562 14.550781 60.945312 L 15.886719 59.964844 L 15.890625 59.96875 C 16.078125 59.824219 16.316406 59.746094 16.570312 59.773438 C 17.09375 59.824219 17.472656 60.289062 17.417969 60.8125 C 17.394531 61.042969 17.285156 61.242188 17.128906 61.394531 L 15.835938 62.328125 C 15.570312 62.515625 15.304688 62.628906 15.066406 62.609375 "/>
    <path style=" stroke:none;fill-rule:nonzero;fill:rgb(68.627451%,0%,19.607843%);fill-opacity:1;" d="M 56.480469 70.511719 C 56.082031 70.222656 55.519531 70.316406 55.226562 70.714844 C 55.199219 70.757812 55.175781 70.796875 55.148438 70.832031 C 54.945312 71.4375 54.523438 72.007812 53.847656 72.0625 C 53.5625 72.082031 53.160156 72.015625 52.796875 71.839844 C 52.125 71.449219 51.863281 71.015625 51.308594 70.34375 C 51.308594 70.34375 50.605469 69.535156 50.605469 69.535156 C 50.015625 68.914062 49.402344 68.253906 48.679688 67.621094 C 47.871094 66.980469 46.613281 66.039062 44.382812 66.628906 C 42.589844 67.105469 41.152344 68.917969 41.003906 70.972656 L 39.019531 70.972656 C 38.871094 68.917969 37.433594 67.105469 35.636719 66.628906 C 33.410156 66.039062 32.152344 66.980469 31.34375 67.621094 C 30.621094 68.253906 30.007812 68.914062 29.414062 69.535156 C 29.414062 69.535156 28.710938 70.34375 28.710938 70.34375 C 28.160156 71.015625 27.894531 71.449219 27.230469 71.839844 C 26.863281 72.015625 26.457031 72.082031 26.175781 72.0625 C 25.5 72.007812 25.074219 71.4375 24.875 70.832031 C 24.847656 70.796875 24.824219 70.757812 24.796875 70.714844 C 24.503906 70.316406 23.941406 70.222656 23.542969 70.511719 C 23.140625 70.796875 23.140625 71.308594 23.335938 71.761719 C 23.339844 71.769531 23.347656 71.777344 23.347656 71.785156 L 23.339844 71.785156 C 23.792969 72.816406 25.0625 73.5625 26.5625 73.5625 C 27.617188 73.5625 28.558594 73.191406 29.183594 72.609375 C 29.847656 72.042969 30.421875 71.261719 31.128906 70.460938 C 32.265625 69.183594 33.191406 68.28125 34.488281 68.390625 C 34.496094 68.390625 34.507812 68.394531 34.519531 68.394531 C 34.523438 68.394531 34.535156 68.394531 34.542969 68.394531 C 36.066406 68.507812 37.277344 69.597656 37.53125 70.972656 L 36.742188 70.972656 C 36.394531 70.972656 36.105469 71.292969 36.105469 71.683594 C 36.105469 72.078125 36.394531 72.398438 36.742188 72.398438 L 37.445312 72.398438 C 37.027344 73.78125 35.667969 74.835938 34.121094 74.746094 C 34.121094 74.746094 33.597656 74.703125 33.316406 74.425781 C 32.949219 74.140625 32.941406 73.855469 32.871094 73.441406 C 32.796875 73.035156 32.410156 72.761719 32.003906 72.835938 C 31.597656 72.90625 31.265625 73.25 31.3125 73.738281 C 31.324219 73.824219 31.324219 73.90625 31.339844 73.980469 C 31.464844 74.78125 31.808594 75.238281 32.464844 75.707031 L 32.566406 75.765625 C 33.734375 76.425781 35.542969 76.308594 37.039062 75.210938 C 38.421875 74.199219 38.75 72.941406 38.75 72.941406 C 38.8125 72.761719 38.867188 72.578125 38.910156 72.398438 L 41.113281 72.398438 C 41.15625 72.578125 41.207031 72.761719 41.273438 72.941406 C 41.273438 72.941406 41.601562 74.199219 42.984375 75.210938 C 44.480469 76.308594 46.289062 76.425781 47.453125 75.765625 L 47.558594 75.707031 C 48.210938 75.238281 48.558594 74.78125 48.683594 73.980469 C 48.699219 73.90625 48.699219 73.824219 48.707031 73.738281 C 48.761719 73.25 48.425781 72.90625 48.019531 72.835938 C 47.613281 72.761719 47.226562 73.035156 47.152344 73.441406 C 47.078125 73.855469 47.070312 74.140625 46.707031 74.425781 C 46.425781 74.703125 45.902344 74.746094 45.902344 74.746094 C 44.355469 74.835938 42.996094 73.78125 42.578125 72.398438 L 43.296875 72.398438 C 43.652344 72.398438 43.9375 72.078125 43.9375 71.683594 C 43.9375 71.292969 43.652344 70.972656 43.296875 70.972656 L 42.492188 70.972656 C 42.746094 69.597656 43.957031 68.507812 45.480469 68.394531 C 45.488281 68.394531 45.496094 68.394531 45.503906 68.394531 C 45.515625 68.394531 45.523438 68.390625 45.535156 68.390625 C 46.832031 68.28125 47.753906 69.183594 48.898438 70.460938 C 49.601562 71.261719 50.171875 72.042969 50.839844 72.609375 C 51.460938 73.191406 52.40625 73.5625 53.460938 73.5625 C 54.960938 73.5625 56.230469 72.816406 56.683594 71.785156 L 56.671875 71.785156 C 56.675781 71.777344 56.683594 71.769531 56.6875 71.761719 C 56.882812 71.308594 56.882812 70.796875 56.480469 70.511719 "/>
    <path style=" stroke:none;fill-rule:nonzero;fill:rgb(68.627451%,0%,19.607843%);fill-opacity:1;" d="M 67.875 56.277344 C 67.605469 56.117188 67.320312 56.007812 67.023438 55.945312 L 66.941406 55.929688 C 65.535156 55.734375 64.171875 56.730469 63.382812 57.984375 C 63.117188 58.410156 63.113281 58.800781 63.15625 59.054688 C 62.414062 59.324219 61.894531 59.714844 61.558594 60.246094 C 61.253906 60.726562 61.210938 61.136719 61.324219 61.5 C 61.503906 62.054688 62.058594 62.496094 62.683594 62.898438 C 63.265625 63.28125 63.59375 63.53125 63.671875 63.769531 C 63.703125 63.875 63.6875 63.976562 63.621094 64.082031 C 63.382812 64.460938 62.726562 64.488281 62.21875 64.355469 C 61.851562 64.261719 60.464844 63.621094 60.464844 63.621094 C 58.835938 62.890625 57.378906 62.824219 56.429688 63.449219 L 56.375 63.484375 C 55.910156 63.773438 55.558594 64.457031 55.523438 64.9375 C 55.476562 65.246094 55.695312 65.53125 56.003906 65.574219 C 56.3125 65.621094 56.601562 65.390625 56.640625 65.082031 C 56.6875 64.601562 57.046875 64.21875 57.515625 64.109375 C 59.226562 63.726562 60.664062 64.953125 60.8125 66.371094 C 60.898438 67.21875 60.5625 68.007812 59.972656 68.542969 C 59.699219 68.808594 59.390625 68.984375 59.125 69.074219 C 57.777344 69.550781 56.894531 68.773438 55.753906 67.582031 C 55.160156 66.953125 54.648438 66.332031 54.085938 65.882812 C 53.804688 65.632812 53.328125 65.417969 53.082031 65.34375 C 52.734375 65.242188 52.359375 65.171875 51.957031 65.171875 C 50.433594 65.171875 49.15625 66.015625 49.132812 67.113281 C 49.128906 67.132812 49.089844 67.480469 49.460938 67.769531 C 49.785156 68.023438 50.261719 67.90625 50.492188 67.5625 C 50.515625 67.527344 50.535156 67.496094 50.554688 67.460938 C 50.703125 66.953125 51.144531 66.5625 51.699219 66.5 C 51.9375 66.472656 52.167969 66.511719 52.367188 66.601562 C 52.386719 66.605469 52.476562 66.644531 52.503906 66.660156 C 53.011719 66.914062 53.460938 67.460938 53.933594 68 C 53.9375 68 54.359375 68.40625 54.359375 68.40625 C 54.871094 68.902344 55.460938 69.554688 56.023438 69.9375 C 56.574219 70.242188 57.78125 71.1875 59.609375 70.628906 C 61.550781 70.039062 62.910156 67.554688 62.003906 65.296875 C 63.410156 65.789062 64.789062 65.378906 65.394531 64.410156 C 65.597656 64.089844 65.679688 63.730469 65.625 63.421875 C 66.304688 63.171875 66.667969 62.921875 66.929688 62.4375 C 67.535156 61.328125 66.671875 60.347656 65.695312 59.632812 C 65.609375 59.570312 64.964844 59.066406 64.824219 58.777344 C 64.78125 58.695312 64.753906 58.621094 64.742188 58.554688 C 64.722656 58.476562 64.703125 58.398438 64.695312 58.316406 C 64.613281 57.527344 65.1875 56.820312 65.984375 56.738281 C 66.449219 56.6875 66.878906 56.871094 67.175781 57.1875 C 67.210938 57.230469 67.289062 57.269531 67.289062 57.269531 C 67.554688 57.433594 67.910156 57.320312 68.066406 57.054688 C 68.230469 56.785156 68.144531 56.4375 67.875 56.277344 M 65.46875 60.945312 C 65.648438 61.101562 65.773438 61.320312 65.796875 61.570312 C 65.851562 62.089844 65.472656 62.558594 64.953125 62.609375 C 64.71875 62.628906 64.449219 62.515625 64.183594 62.328125 L 62.894531 61.394531 C 62.738281 61.242188 62.628906 61.042969 62.605469 60.8125 C 62.550781 60.289062 62.929688 59.824219 63.449219 59.773438 C 63.703125 59.746094 63.941406 59.824219 64.128906 59.96875 L 64.136719 59.964844 L 65.46875 60.945312 "/>
    <path style=" stroke:none;fill-rule:nonzero;fill:rgb(68.627451%,0%,19.607843%);fill-opacity:1;" d="M 40.355469 33.476562 C 40.363281 33.910156 40.25 34.011719 40.042969 34.011719 C 39.84375 34.015625 39.730469 33.917969 39.71875 33.480469 C 39.71875 33.046875 39.464844 32.9375 39.164062 32.941406 C 38.863281 32.945312 38.546875 33.230469 38.605469 33.832031 C 38.636719 34.164062 38.933594 34.949219 40.0625 35.582031 C 41.175781 34.929688 41.457031 34.136719 41.480469 33.804688 C 41.53125 33.203125 41.207031 32.917969 40.90625 32.921875 C 40.601562 32.925781 40.351562 33.042969 40.355469 33.476562 "/>
    <path style=" stroke:none;fill-rule:nonzero;fill:rgb(68.627451%,0%,19.607843%);fill-opacity:1;" d="M 61.453125 38.710938 C 61.152344 38.714844 60.898438 38.832031 60.902344 39.265625 C 60.90625 39.699219 60.792969 39.800781 60.589844 39.800781 C 60.386719 39.804688 60.273438 39.707031 60.269531 39.273438 C 60.265625 38.839844 60.011719 38.726562 59.707031 38.730469 C 59.410156 38.734375 59.09375 39.023438 59.152344 39.625 C 59.179688 39.957031 59.476562 40.742188 60.605469 41.371094 C 61.722656 40.71875 62.003906 39.925781 62.03125 39.59375 C 62.078125 38.992188 61.753906 38.710938 61.453125 38.710938 "/>
    <path style=" stroke:none;fill-rule:nonzero;fill:rgb(68.627451%,0%,19.607843%);fill-opacity:1;" d="M 20.722656 40.015625 C 20.769531 39.410156 20.445312 39.128906 20.144531 39.132812 C 19.84375 39.136719 19.589844 39.25 19.597656 39.683594 C 19.601562 40.121094 19.488281 40.21875 19.285156 40.222656 C 19.082031 40.222656 18.964844 40.128906 18.964844 39.691406 C 18.960938 39.257812 18.703125 39.148438 18.402344 39.148438 C 18.101562 39.152344 17.785156 39.441406 17.84375 40.042969 C 17.878906 40.375 18.175781 41.160156 19.300781 41.789062 C 20.417969 41.136719 20.699219 40.347656 20.722656 40.015625 "/>
    <path style=" stroke:none;fill-rule:nonzero;fill:rgb(68.627451%,0%,19.607843%);fill-opacity:1;" d="M 56.9375 51.882812 C 56.636719 51.886719 56.386719 52 56.390625 52.433594 C 56.398438 52.871094 56.28125 52.96875 56.082031 52.972656 C 55.875 52.972656 55.761719 52.878906 55.753906 52.441406 C 55.753906 52.007812 55.5 51.894531 55.199219 51.902344 C 54.898438 51.90625 54.578125 52.191406 54.640625 52.792969 C 54.667969 53.125 54.96875 53.910156 56.097656 54.539062 C 57.210938 53.886719 57.492188 53.09375 57.515625 52.761719 C 57.5625 52.160156 57.238281 51.878906 56.9375 51.882812 "/>
    <path style=" stroke:none;fill-rule:nonzero;fill:rgb(68.627451%,0%,19.607843%);fill-opacity:1;" d="M 24.875 52.207031 C 24.574219 52.210938 24.320312 52.324219 24.324219 52.757812 C 24.332031 53.195312 24.21875 53.296875 24.015625 53.296875 C 23.8125 53.300781 23.699219 53.203125 23.695312 52.765625 C 23.6875 52.332031 23.4375 52.222656 23.132812 52.226562 C 22.832031 52.230469 22.515625 52.515625 22.574219 53.121094 C 22.605469 53.449219 22.902344 54.234375 24.03125 54.867188 C 25.148438 54.214844 25.425781 53.421875 25.453125 53.089844 C 25.5 52.488281 25.175781 52.203125 24.875 52.207031 "/>
    <path style=" stroke:none;fill-rule:nonzero;fill:rgb(68.627451%,0%,19.607843%);fill-opacity:1;" d="M 40.214844 51.15625 C 41.332031 50.503906 41.609375 49.710938 41.632812 49.378906 C 41.683594 48.777344 41.359375 48.496094 41.058594 48.5 C 40.753906 48.5 40.503906 48.617188 40.507812 49.050781 C 40.515625 49.488281 40.402344 49.585938 40.195312 49.589844 C 39.992188 49.589844 39.878906 49.492188 39.875 49.058594 C 39.871094 48.625 39.617188 48.511719 39.316406 48.515625 C 39.015625 48.519531 38.699219 48.808594 38.757812 49.410156 C 38.789062 49.742188 39.085938 50.527344 40.214844 51.15625 "/>
    <path style=" stroke:none;fill-rule:nonzero;fill:rgb(68.627451%,0%,19.607843%);fill-opacity:1;" d="M 55.828125 28.28125 C 56.945312 27.628906 57.222656 26.835938 57.246094 26.503906 C 57.296875 25.902344 56.972656 25.621094 56.671875 25.625 C 56.371094 25.625 56.121094 25.742188 56.125 26.175781 C 56.128906 26.609375 56.019531 26.710938 55.816406 26.714844 C 55.609375 26.714844 55.496094 26.617188 55.492188 26.183594 C 55.488281 25.75 55.230469 25.636719 54.933594 25.640625 C 54.628906 25.644531 54.3125 25.933594 54.371094 26.535156 C 54.40625 26.863281 54.703125 27.652344 55.828125 28.28125 "/>
    <path style=" stroke:none;fill-rule:nonzero;fill:rgb(68.627451%,0%,19.607843%);fill-opacity:1;" d="M 23.761719 28.605469 C 24.878906 27.953125 25.164062 27.164062 25.1875 26.832031 C 25.230469 26.230469 24.910156 25.945312 24.609375 25.949219 C 24.308594 25.953125 24.054688 26.070312 24.058594 26.5 C 24.0625 26.9375 23.953125 27.035156 23.75 27.039062 C 23.546875 27.039062 23.429688 26.945312 23.425781 26.507812 C 23.421875 26.074219 23.167969 25.964844 22.867188 25.96875 C 22.5625 25.972656 22.246094 26.257812 22.304688 26.859375 C 22.339844 27.191406 22.636719 27.976562 23.761719 28.605469 "/>
    <path style=" stroke:none;fill-rule:nonzero;fill:rgb(68.627451%,0%,19.607843%);fill-opacity:1;" d="M 39.949219 20.464844 C 41.066406 19.8125 41.34375 19.019531 41.367188 18.6875 C 41.414062 18.085938 41.09375 17.804688 40.792969 17.808594 C 40.488281 17.808594 40.238281 17.925781 40.246094 18.359375 C 40.25 18.796875 40.140625 18.894531 39.933594 18.898438 C 39.730469 18.898438 39.613281 18.800781 39.609375 18.367188 C 39.605469 17.933594 39.351562 17.820312 39.046875 17.824219 C 38.75 17.828125 38.433594 18.117188 38.492188 18.71875 C 38.523438 19.050781 38.820312 19.835938 39.949219 20.464844 "/>
    <path style=" stroke:none;fill-rule:nonzero;fill:rgb(68.627451%,0%,19.607843%);fill-opacity:1;" d="M 45.019531 22.378906 C 45.34375 22.359375 45.71875 22.285156 46.796875 22.144531 C 48.0625 21.980469 49.929688 21.914062 50.398438 21.914062 C 50.988281 21.882812 52.042969 21.96875 52.402344 22.324219 C 52.488281 22.410156 52.539062 22.519531 52.539062 22.636719 C 52.539062 22.757812 52.492188 22.867188 52.410156 22.953125 C 51.800781 23.574219 50.226562 23.496094 49.671875 23.410156 L 49.671875 23.414062 L 48.753906 23.316406 C 49.269531 23.496094 49.757812 24.113281 49.757812 24.113281 L 49.820312 24.117188 L 49.824219 24.117188 C 49.835938 24.121094 49.851562 24.121094 49.863281 24.121094 L 49.898438 24.125 C 50.578125 24.183594 52.128906 24.21875 52.898438 23.433594 C 53.113281 23.214844 53.226562 22.933594 53.222656 22.628906 C 53.21875 22.328125 53.097656 22.046875 52.886719 21.835938 C 52.1875 21.152344 50.558594 21.160156 50.378906 21.171875 C 49.894531 21.171875 48.023438 21.25 46.71875 21.464844 C 45.695312 21.632812 45.3125 21.675781 44.996094 21.691406 C 44.402344 21.726562 43.355469 21.640625 42.992188 21.28125 C 42.90625 21.199219 42.859375 21.089844 42.855469 20.96875 C 42.855469 20.851562 42.902344 20.742188 42.984375 20.65625 C 43.59375 20.03125 45.066406 20.113281 45.507812 20.199219 C 45.519531 20.203125 46.101562 20.300781 46.101562 20.300781 C 46.558594 20.375 46.757812 20.449219 47.332031 20.5625 C 47.863281 20.640625 48.984375 20.609375 49.324219 19.984375 L 49.738281 18.925781 L 49.597656 18.851562 L 48.941406 19.492188 C 48.648438 19.84375 47.941406 19.960938 47.355469 19.878906 C 46.957031 19.871094 46.742188 19.734375 46.164062 19.621094 L 45.582031 19.523438 C 45.515625 19.507812 43.472656 19.175781 42.496094 20.175781 C 42.28125 20.390625 42.167969 20.675781 42.171875 20.976562 C 42.175781 21.277344 42.296875 21.5625 42.511719 21.773438 C 43.207031 22.457031 44.835938 22.386719 45.019531 22.378906 "/>
    <path style=" stroke:none;fill-rule:nonzero;fill:rgb(68.627451%,0%,19.607843%);fill-opacity:1;" d="M 28.453125 21.601562 L 29.269531 22.363281 L 29.136719 22.484375 C 28.09375 22.089844 27.96875 22.558594 27.96875 22.558594 C 27.816406 22.820312 28.179688 23.300781 28.179688 23.300781 L 28.871094 22.78125 C 29.484375 25.078125 32.34375 27.21875 32.34375 27.21875 C 32.34375 27.21875 32.496094 26.136719 33.347656 25.03125 L 32.210938 24.839844 L 31.796875 24.773438 C 31.222656 23.472656 30.210938 22.558594 30.210938 22.558594 C 30.535156 21.625 30.554688 21.367188 30.554688 21.367188 C 30.554688 21.167969 30.492188 21.058594 30.492188 21.058594 C 30.492188 21.058594 30.460938 20.894531 30.191406 20.78125 C 29.847656 20.632812 29.320312 20.679688 29.191406 20.914062 L 29.136719 21.050781 L 30.023438 21.273438 L 29.457031 21.589844 C 28.964844 21.011719 28.441406 21.074219 28.441406 21.074219 C 27.742188 21.144531 27.84375 21.882812 27.84375 21.882812 L 28.453125 21.601562 "/>
    <path style=" stroke:none;fill-rule:nonzero;fill:rgb(68.627451%,0%,19.607843%);fill-opacity:1;" d="M 37.21875 20.570312 L 37.285156 20.574219 L 37.328125 19.113281 L 37.070312 19.101562 L 36.394531 20.03125 L 36.0625 19.191406 L 36.019531 19.191406 L 35.820312 19.183594 L 35.78125 19.183594 L 35.375 19.988281 L 34.78125 19.003906 L 34.523438 18.992188 L 34.441406 20.453125 L 34.519531 20.457031 Z M 37.21875 20.570312 "/>
    <path style=" stroke:none;fill-rule:nonzero;fill:rgb(68.627451%,0%,19.607843%);fill-opacity:1;" d="M 28.5 50.28125 C 27.800781 50.351562 27.90625 51.089844 27.90625 51.089844 L 28.515625 50.808594 L 29.332031 51.574219 L 29.199219 51.695312 C 28.152344 51.296875 28.03125 51.769531 28.03125 51.769531 C 27.878906 52.027344 28.238281 52.511719 28.238281 52.511719 L 28.933594 51.988281 C 29.546875 54.285156 32.40625 56.425781 32.40625 56.425781 C 32.40625 56.425781 32.554688 55.347656 33.410156 54.238281 L 32.273438 54.046875 L 31.859375 53.980469 C 31.285156 52.683594 30.273438 51.769531 30.273438 51.769531 C 30.597656 50.832031 30.617188 50.574219 30.617188 50.574219 C 30.617188 50.375 30.554688 50.265625 30.554688 50.265625 C 30.554688 50.265625 30.523438 50.101562 30.253906 49.988281 C 29.910156 49.839844 29.378906 49.890625 29.257812 50.121094 L 29.199219 50.261719 L 30.085938 50.480469 L 29.519531 50.796875 C 29.027344 50.21875 28.5 50.28125 28.5 50.28125 "/>
    <path style=" stroke:none;fill-rule:nonzero;fill:rgb(68.627451%,0%,19.607843%);fill-opacity:1;" d="M 37.347656 49.78125 L 37.390625 48.320312 L 37.132812 48.3125 L 36.453125 49.238281 L 36.121094 48.402344 L 36.082031 48.402344 L 35.882812 48.390625 L 35.84375 48.390625 L 35.4375 49.195312 L 34.84375 48.210938 L 34.585938 48.203125 L 34.503906 49.660156 L 34.578125 49.664062 L 37.28125 49.777344 Z M 37.347656 49.78125 "/>
    <path style=" stroke:none;fill-rule:nonzero;fill:rgb(68.627451%,0%,19.607843%);fill-opacity:1;" d="M 50.210938 54.707031 C 50.210938 54.707031 48.667969 49.484375 39.398438 53.691406 L 39.394531 53.691406 C 39.339844 53.714844 39.25 53.753906 39.179688 53.785156 C 38.332031 54.152344 37.804688 54.109375 37.542969 54.007812 C 37.523438 54 37.535156 53.902344 37.535156 53.902344 C 37.902344 53.96875 38.21875 53.949219 38.21875 53.949219 L 38.320312 53.523438 C 38.085938 53.15625 37.640625 52.695312 37.640625 52.695312 L 37.648438 52.476562 C 37.925781 52.550781 38.414062 53.199219 38.414062 53.199219 L 38.519531 52.394531 C 38.210938 51.917969 37.882812 51.597656 37.636719 51.453125 L 37.648438 51.285156 C 37.886719 51.296875 38.546875 51.929688 38.546875 51.929688 L 38.523438 51.210938 C 38.15625 50.683594 37.867188 50.242188 37.15625 50.171875 L 37.15625 50.167969 L 37.152344 50.167969 C 37.148438 50.167969 37.144531 50.167969 37.140625 50.167969 L 36.867188 50.15625 L 34.117188 50.039062 L 33.613281 50.417969 C 33.140625 50.507812 32.824219 50.59375 32.550781 50.820312 C 32.550781 50.820312 32.59375 51.199219 32.65625 51.59375 C 32.691406 51.835938 32.78125 51.929688 33.222656 51.816406 C 33.8125 51.667969 33.554688 51.253906 34.046875 51.273438 C 34.671875 51.296875 34.632812 51.890625 34.640625 52.277344 C 34.671875 53.351562 33.832031 53.050781 33.832031 53.050781 C 33.472656 52.921875 33.496094 52.75 33.050781 52.757812 C 32.773438 52.757812 32.824219 53.339844 32.824219 53.339844 C 32.855469 53.652344 33.753906 53.714844 33.753906 53.714844 L 33.992188 53.714844 C 32.597656 55.90625 32.558594 56.914062 32.558594 56.914062 C 30.828125 57.0625 29.613281 57.347656 29.613281 57.347656 C 28.757812 56.152344 28.074219 56.15625 27.816406 56.210938 C 27.402344 56.296875 27.234375 56.65625 27.355469 57 L 28.113281 56.6875 L 28.121094 57.238281 C 27.289062 57.0625 27.089844 57.421875 27.089844 57.421875 C 26.804688 58.003906 27.582031 58.414062 27.582031 58.414062 L 27.578125 57.871094 L 28.816406 57.863281 L 28.816406 58.136719 C 27.863281 58.433594 28.28125 58.878906 28.28125 58.878906 C 28.453125 59.175781 29.214844 59.378906 29.214844 59.378906 L 29.230469 58.40625 C 34.488281 59.261719 37.609375 57.964844 37.609375 57.964844 C 37.847656 57.476562 37.960938 57.078125 37.960938 57.078125 C 40.1875 56.625 44.226562 54.265625 44.226562 54.265625 C 45.128906 53.878906 46.210938 56.304688 46.210938 56.304688 C 47.164062 57.613281 50.609375 56.609375 50.609375 56.609375 C 50.210938 57.222656 50.050781 57.707031 50.050781 57.707031 C 49.023438 58.402344 48.796875 58.621094 48.796875 58.621094 C 48.632812 58.757812 48.59375 58.910156 48.59375 58.910156 C 48.59375 58.910156 48.535156 59.023438 48.660156 59.21875 C 48.816406 59.472656 49.238281 59.667969 49.523438 59.511719 L 49.585938 59.476562 L 49.175781 58.902344 L 49.847656 58.894531 C 49.863281 60.632812 51.410156 59.578125 51.402344 59.03125 L 50.546875 59.039062 L 50.539062 58.335938 L 50.917969 58.125 C 51.359375 58.742188 51.769531 58.433594 51.769531 58.433594 C 52.054688 58.289062 52.351562 57.875 52.351562 57.875 L 51.34375 57.886719 L 51.835938 57.609375 C 51.835938 57.609375 53.625 56.644531 52.507812 55.453125 C 52.507812 55.453125 50.675781 56.277344 50.210938 54.707031 "/>
    <path style=" stroke:none;fill-rule:nonzero;fill:rgb(68.627451%,0%,19.607843%);fill-opacity:1;" d="M 50.554688 50.300781 C 50.074219 50.300781 49.152344 50.382812 47.835938 50.535156 C 46.566406 50.6875 45.644531 50.765625 45.175781 50.769531 C 44.582031 50.796875 43.53125 50.714844 43.171875 50.355469 C 43.085938 50.273438 43.035156 50.160156 43.035156 50.042969 C 43.035156 49.925781 43.082031 49.8125 43.160156 49.730469 C 43.773438 49.105469 45.246094 49.1875 45.6875 49.273438 C 45.695312 49.273438 46.039062 49.332031 46.039062 49.332031 L 46.273438 49.371094 C 46.738281 49.449219 47.867188 49.625 48.457031 49.636719 C 48.589844 49.648438 50.101562 49.683594 50.441406 49.058594 C 50.441406 49.058594 51.214844 47.410156 51.214844 47.410156 L 51.070312 47.335938 L 50.058594 48.5625 C 49.769531 48.917969 48.933594 48.988281 48.472656 48.949219 C 48.074219 48.941406 47.28125 48.847656 46.34375 48.695312 L 46.109375 48.652344 L 45.757812 48.59375 C 45.691406 48.582031 43.652344 48.25 42.675781 49.25 C 42.460938 49.464844 42.347656 49.75 42.351562 50.050781 C 42.355469 50.351562 42.472656 50.632812 42.6875 50.847656 C 43.390625 51.527344 45.011719 51.460938 45.199219 51.453125 C 45.679688 51.453125 46.597656 51.371094 47.917969 51.21875 C 49.1875 51.070312 50.109375 50.988281 50.574219 50.988281 C 51.167969 50.957031 52.21875 51.042969 52.582031 51.398438 C 52.667969 51.480469 52.714844 51.59375 52.714844 51.710938 C 52.714844 51.828125 52.671875 51.941406 52.589844 52.023438 C 51.980469 52.648438 50.402344 52.566406 49.847656 52.484375 L 49.847656 52.488281 L 48.933594 52.394531 C 49.449219 52.566406 49.933594 53.183594 49.933594 53.183594 L 50 53.191406 C 50.015625 53.195312 50.027344 53.195312 50.039062 53.195312 L 50.078125 53.199219 C 50.753906 53.257812 52.308594 53.289062 53.078125 52.507812 C 53.289062 52.289062 53.40625 52.003906 53.402344 51.703125 C 53.398438 51.402344 53.277344 51.121094 53.0625 50.910156 C 52.363281 50.226562 50.738281 50.292969 50.554688 50.300781 "/>
    <path style=" stroke:none;fill-rule:nonzero;fill:rgb(68.627451%,0%,19.607843%);fill-opacity:1;" d="M 50.382812 31.683594 L 49.695312 31.59375 C 49.566406 31.574219 46.066406 31.082031 44.542969 32.582031 C 44.214844 32.902344 44.039062 33.328125 44.042969 33.78125 C 44.046875 34.230469 44.234375 34.652344 44.566406 34.96875 C 45.648438 35.996094 48.171875 35.894531 48.453125 35.878906 C 49.199219 35.878906 49.820312 35.757812 51.863281 35.527344 C 53.832031 35.300781 55.257812 35.183594 55.984375 35.179688 C 56.902344 35.132812 58.53125 35.261719 59.09375 35.796875 C 59.226562 35.917969 59.300781 36.085938 59.300781 36.261719 C 59.304688 36.4375 59.230469 36.605469 59.105469 36.730469 C 58.15625 37.664062 55.71875 37.546875 54.855469 37.421875 L 53.4375 37.285156 C 54.238281 37.546875 54.992188 38.472656 54.992188 38.472656 L 55.09375 38.480469 C 55.09375 38.480469 55.09375 38.480469 55.097656 38.480469 C 55.113281 38.484375 55.128906 38.484375 55.148438 38.484375 L 55.210938 38.492188 C 56.261719 38.578125 58.671875 38.628906 59.867188 37.453125 C 60.191406 37.128906 60.371094 36.703125 60.367188 36.25 C 60.363281 35.800781 60.171875 35.378906 59.839844 35.0625 C 58.761719 34.039062 56.238281 34.136719 55.957031 34.152344 C 55.203125 34.15625 53.777344 34.273438 51.738281 34.507812 C 49.765625 34.730469 49.148438 34.851562 48.425781 34.851562 C 47.503906 34.898438 45.878906 34.773438 45.3125 34.238281 C 45.179688 34.113281 45.109375 33.945312 45.105469 33.769531 C 45.105469 33.59375 45.171875 33.425781 45.300781 33.300781 C 46.25 32.367188 48.695312 32.488281 49.554688 32.613281 C 49.574219 32.613281 50.238281 32.699219 50.238281 32.699219 L 50.707031 32.757812 C 51.605469 32.867188 52.539062 33.128906 53.675781 33.144531 C 53.933594 33.160156 56.886719 33.207031 57.542969 32.269531 C 57.542969 32.269531 59.054688 29.792969 59.054688 29.792969 L 58.78125 29.6875 L 56.808594 31.53125 C 56.238281 32.058594 54.609375 32.171875 53.714844 32.117188 C 52.9375 32.105469 52.667969 31.964844 50.84375 31.738281 L 50.382812 31.683594 "/>
    <path style=" stroke:none;fill-rule:nonzero;fill:rgb(68.627451%,0%,19.607843%);fill-opacity:1;" d="M 21.652344 34.613281 L 22.914062 35.753906 L 22.710938 35.933594 C 21.089844 35.339844 20.898438 36.042969 20.898438 36.042969 C 20.660156 36.429688 21.222656 37.148438 21.222656 37.148438 L 22.300781 36.375 C 23.246094 39.789062 27.6875 42.972656 27.6875 42.972656 C 27.6875 42.972656 27.921875 41.367188 29.242188 39.714844 L 27.480469 39.429688 L 26.835938 39.335938 C 25.949219 37.402344 24.378906 36.039062 24.378906 36.039062 C 24.882812 34.652344 24.917969 34.265625 24.917969 34.265625 C 24.917969 33.972656 24.820312 33.8125 24.820312 33.8125 C 24.820312 33.8125 24.769531 33.566406 24.355469 33.394531 C 23.820312 33.175781 22.996094 33.246094 22.800781 33.59375 L 22.710938 33.800781 L 24.089844 34.125 L 23.203125 34.601562 C 22.449219 33.738281 21.628906 33.832031 21.628906 33.832031 C 20.546875 33.9375 20.707031 35.035156 20.707031 35.035156 L 21.652344 34.613281 "/>
    <path style=" stroke:none;fill-rule:nonzero;fill:rgb(68.627451%,0%,19.607843%);fill-opacity:1;" d="M 33.464844 31.207031 L 33.398438 31.203125 L 33.089844 31.191406 L 33.023438 31.1875 L 32.398438 32.386719 L 31.476562 30.925781 L 31.074219 30.910156 L 30.945312 33.082031 L 31.0625 33.082031 L 35.253906 33.257812 L 35.359375 33.261719 L 35.425781 31.085938 L 35.027344 31.070312 L 33.972656 32.449219 Z M 33.464844 31.207031 "/>
    <path style=" stroke:none;fill-rule:nonzero;fill:rgb(68.627451%,0%,19.607843%);fill-opacity:1;" d="M 55.316406 40.398438 C 55.316406 40.398438 52.921875 32.632812 38.535156 38.898438 C 38.535156 38.898438 38.398438 38.953125 38.34375 38.980469 C 37.109375 39.523438 36.335938 39.453125 35.949219 39.304688 C 35.921875 39.289062 35.933594 39.152344 35.933594 39.152344 C 36.476562 39.25 36.941406 39.21875 36.941406 39.21875 L 37.089844 38.59375 C 36.742188 38.0625 36.089844 37.382812 36.089844 37.382812 L 36.101562 37.066406 C 36.511719 37.171875 37.226562 38.125 37.226562 38.125 L 37.378906 36.945312 C 36.921875 36.25 36.449219 35.777344 36.085938 35.570312 L 36.101562 35.328125 C 36.453125 35.339844 37.414062 36.265625 37.414062 36.265625 L 37.382812 35.210938 C 36.84375 34.4375 36.421875 33.785156 35.359375 33.6875 L 30.34375 33.496094 L 29.566406 33.972656 C 28.832031 34.105469 28.34375 34.296875 27.914062 34.632812 C 27.914062 34.632812 27.984375 35.136719 28.078125 35.722656 C 28.136719 36.082031 28.273438 36.222656 28.957031 36.058594 C 29.871094 35.835938 29.46875 35.21875 30.234375 35.25 C 31.210938 35.285156 31.042969 36.175781 31.054688 36.75 C 31.101562 38.347656 29.902344 38.0625 29.902344 38.0625 C 29.34375 37.871094 29.386719 37.558594 28.6875 37.566406 C 28.261719 37.570312 28.332031 38.378906 28.332031 38.378906 C 28.386719 38.84375 29.785156 38.933594 29.785156 38.933594 L 30.144531 38.933594 C 27.984375 42.199219 27.929688 43.703125 27.929688 43.703125 C 25.238281 43.921875 22.984375 44.695312 22.984375 44.695312 C 21.65625 42.917969 20.597656 42.921875 20.191406 43.003906 C 19.558594 43.132812 19.289062 43.667969 19.488281 44.183594 L 20.660156 43.714844 L 20.664062 44.539062 C 19.378906 44.277344 19.078125 44.808594 19.078125 44.808594 C 18.628906 45.675781 19.835938 46.285156 19.835938 46.285156 L 19.824219 45.476562 L 21.742188 45.460938 L 21.75 45.871094 C 20.269531 46.3125 20.917969 46.976562 20.917969 46.976562 C 21.183594 47.417969 22.367188 47.714844 22.367188 47.714844 L 22.390625 46.269531 C 30.585938 46.910156 35.761719 45.257812 35.761719 45.257812 C 36.128906 44.535156 36.308594 43.941406 36.308594 43.941406 C 39.761719 43.261719 46.035156 39.75 46.035156 39.75 C 47.230469 39.1875 49.117188 42.78125 49.117188 42.78125 C 50.589844 44.730469 55.9375 43.234375 55.9375 43.234375 C 55.3125 44.148438 55.070312 44.867188 55.070312 44.867188 C 53.480469 45.902344 53.121094 46.226562 53.121094 46.226562 C 52.867188 46.433594 52.808594 46.65625 52.808594 46.65625 C 52.808594 46.65625 52.714844 46.824219 52.90625 47.117188 C 53.152344 47.492188 53.800781 47.785156 54.25 47.554688 L 54.347656 47.5 L 53.707031 46.644531 L 54.75 46.632812 C 54.777344 49.21875 57.175781 47.652344 57.167969 46.835938 L 55.835938 46.851562 L 55.828125 45.804688 L 56.414062 45.488281 C 57.097656 46.40625 57.734375 45.945312 57.734375 45.945312 C 58.179688 45.730469 58.636719 45.117188 58.636719 45.117188 L 57.074219 45.132812 L 57.832031 44.71875 C 57.832031 44.71875 60.617188 43.285156 58.886719 41.511719 C 58.886719 41.511719 56.042969 42.742188 55.316406 40.398438 "/>
    <path style=" stroke:none;fill-rule:nonzero;fill:rgb(68.627451%,0%,19.607843%);fill-opacity:1;" d="M 29.238281 37.019531 C 30.152344 36.734375 30.351562 37.269531 30.351562 37.269531 C 30.351562 37.269531 30.550781 37.484375 30.582031 36.617188 C 30.605469 36.035156 30.714844 35.875 28.621094 36.535156 C 26.53125 37.191406 25.371094 35.375 25.371094 35.375 L 25.1875 35.433594 C 26.613281 37.976562 29.238281 37.019531 29.238281 37.019531 "/>
    <path style=" stroke:none;fill-rule:nonzero;fill:rgb(68.627451%,0%,19.607843%);fill-opacity:1;" d="M 33.226562 23.25 C 33.796875 23.082031 33.917969 23.417969 33.917969 23.417969 C 33.917969 23.417969 34.039062 23.554688 34.070312 23.011719 C 34.089844 22.648438 34.160156 22.550781 32.847656 22.941406 C 31.53125 23.332031 30.828125 22.183594 30.828125 22.183594 L 30.710938 22.21875 C 31.574219 23.824219 33.226562 23.25 33.226562 23.25 "/>
    <path style=" stroke:none;fill-rule:nonzero;fill:rgb(68.627451%,0%,19.607843%);fill-opacity:1;" d="M 33.300781 52.476562 C 33.871094 52.304688 33.992188 52.640625 33.992188 52.640625 C 33.992188 52.640625 34.109375 52.777344 34.140625 52.234375 C 34.164062 51.871094 34.230469 51.773438 32.917969 52.164062 C 31.601562 52.554688 30.898438 51.40625 30.898438 51.40625 L 30.78125 51.441406 C 31.648438 53.046875 33.300781 52.476562 33.300781 52.476562 "/>
    <path style=" stroke:none;fill-rule:nonzero;fill:rgb(68.627451%,0%,19.607843%);fill-opacity:1;" d="M 52.445312 26.246094 C 52.445312 26.246094 50.617188 27.070312 50.148438 25.496094 C 50.148438 25.496094 48.644531 20.421875 39.714844 24.3125 C 39.554688 24.378906 39.140625 24.554688 39.109375 24.570312 C 38.265625 24.945312 37.734375 24.894531 37.46875 24.792969 C 37.449219 24.785156 37.460938 24.6875 37.460938 24.6875 C 37.828125 24.757812 38.148438 24.738281 38.148438 24.738281 L 38.246094 24.308594 C 38.011719 23.945312 37.5625 23.480469 37.5625 23.480469 L 37.574219 23.265625 C 37.855469 23.339844 38.34375 23.988281 38.34375 23.988281 L 38.445312 23.183594 C 38.136719 22.707031 37.808594 22.382812 37.558594 22.242188 L 37.570312 22.074219 C 37.816406 22.082031 38.46875 22.71875 38.46875 22.71875 L 38.449219 21.996094 C 38.082031 21.46875 37.792969 21.019531 37.066406 20.957031 L 36.679688 20.941406 L 36.679688 20.945312 L 34.054688 20.832031 L 33.554688 21.207031 C 33.078125 21.300781 32.761719 21.386719 32.488281 21.613281 C 32.488281 21.613281 32.535156 21.992188 32.59375 22.382812 C 32.628906 22.625 32.71875 22.71875 33.160156 22.609375 C 33.75 22.460938 33.492188 22.046875 33.984375 22.066406 C 34.613281 22.089844 34.570312 22.679688 34.578125 23.066406 C 34.613281 24.140625 33.769531 23.839844 33.769531 23.839844 C 33.410156 23.714844 33.433594 23.542969 32.988281 23.546875 C 32.710938 23.550781 32.761719 24.128906 32.761719 24.128906 C 32.792969 24.441406 33.695312 24.507812 33.695312 24.507812 L 33.929688 24.503906 C 32.535156 26.699219 32.5 27.707031 32.5 27.707031 C 30.765625 27.855469 29.316406 28.375 29.316406 28.375 C 28.460938 27.179688 27.773438 27.183594 27.515625 27.238281 C 27.105469 27.324219 26.933594 27.683594 27.0625 28.027344 L 27.816406 27.714844 L 27.820312 28.265625 C 26.992188 28.09375 26.796875 28.449219 26.796875 28.449219 C 26.511719 29.035156 27.285156 29.441406 27.285156 29.441406 L 27.277344 28.898438 L 28.515625 28.890625 L 28.519531 29.164062 C 27.566406 29.460938 27.984375 29.90625 27.984375 29.90625 C 28.152344 30.203125 28.914062 30.402344 28.914062 30.402344 L 28.933594 29.433594 C 34.210938 29.863281 37.546875 28.757812 37.546875 28.757812 C 37.785156 28.269531 37.898438 27.871094 37.898438 27.871094 C 40.125 27.414062 44.167969 25.058594 44.167969 25.058594 C 44.9375 24.679688 46.152344 27.09375 46.152344 27.09375 C 47.101562 28.40625 50.550781 27.402344 50.550781 27.402344 C 50.148438 28.015625 49.992188 28.5 49.992188 28.5 C 48.964844 29.195312 48.734375 29.410156 48.734375 29.410156 C 48.570312 29.550781 48.53125 29.703125 48.53125 29.703125 C 48.53125 29.703125 48.472656 29.8125 48.59375 30.011719 C 48.753906 30.265625 49.171875 30.460938 49.464844 30.304688 L 49.523438 30.269531 L 49.113281 29.691406 L 49.785156 29.6875 C 49.800781 31.425781 51.347656 30.371094 51.339844 29.824219 L 50.484375 29.832031 L 50.476562 29.128906 L 50.855469 28.917969 C 51.296875 29.535156 51.707031 29.222656 51.707031 29.222656 C 51.992188 29.078125 52.289062 28.667969 52.289062 28.667969 L 51.285156 28.679688 L 51.769531 28.402344 C 51.769531 28.402344 53.5625 27.4375 52.445312 26.246094 "/>
    <path style=" stroke:none;fill-rule:nonzero;fill:rgb(68.627451%,0%,19.607843%);fill-opacity:1;" d="M 73.011719 55.320312 C 73.136719 55.242188 73.332031 55 73.242188 54.703125 C 73.15625 54.390625 73.214844 54 73.304688 53.746094 C 73.476562 53.28125 74.140625 52.90625 74.492188 51.792969 C 74.679688 51.199219 74.714844 50.824219 74.679688 50.5625 C 74.855469 50.375 75.039062 50.042969 75.226562 49.449219 C 75.574219 48.332031 75.222656 47.632812 75.351562 47.152344 C 75.417969 46.894531 75.589844 46.539062 75.84375 46.332031 C 76.085938 46.140625 76.0625 45.828125 76.003906 45.691406 C 75.886719 45.421875 75.558594 45.28125 75.285156 45.394531 C 74.722656 45.625 74.085938 45.644531 73.484375 45.449219 C 73.34375 45.402344 73.207031 45.34375 73.074219 45.273438 C 72.808594 45.132812 72.472656 45.238281 72.332031 45.507812 C 72.1875 45.777344 72.28125 46.136719 72.5625 46.25 C 74.035156 46.851562 74.386719 47.878906 74.242188 48.566406 C 74.125 49.109375 73.582031 48.929688 72.9375 48.746094 C 72.9375 48.746094 67.945312 47.355469 67.929688 47.347656 C 67.675781 47.269531 67.515625 47.042969 67.523438 46.808594 C 67.523438 46.808594 67.523438 46.292969 67.503906 46.027344 C 67.484375 45.726562 67.21875 45.496094 66.914062 45.515625 C 66.609375 45.539062 66.382812 45.800781 66.402344 46.105469 C 66.449219 46.710938 66.367188 47.328125 66.191406 47.902344 C 66.007812 48.480469 65.71875 49.035156 65.339844 49.503906 C 65.144531 49.742188 65.183594 50.089844 65.421875 50.28125 C 65.660156 50.472656 66.007812 50.433594 66.195312 50.199219 C 66.363281 49.992188 66.660156 49.566406 66.660156 49.566406 C 66.785156 49.371094 67.050781 49.273438 67.300781 49.355469 C 67.316406 49.359375 72.210938 51.0625 72.210938 51.0625 C 72.84375 51.28125 73.394531 51.445312 73.179688 51.957031 C 72.90625 52.605469 72.054688 53.242188 70.5 52.898438 C 70.203125 52.832031 69.925781 53.074219 69.886719 53.378906 C 69.851562 53.679688 70.0625 53.953125 70.367188 53.992188 C 70.511719 54.011719 70.660156 54.042969 70.804688 54.085938 C 71.40625 54.265625 71.921875 54.644531 72.25 55.15625 C 72.410156 55.40625 72.761719 55.476562 73.011719 55.320312 "/>
  </g>
</svg>