<?xml version="1.0" encoding="UTF-8" standalone="yes"?>
<svg xmlns="http://www.w3.org/2000/svg" xmlns:xlink="http://www.w3.org/1999/xlink" width="176px" height="106.66666666666666px" viewBox="0 0 132 80" version="1.1">
  <g id="surface1">
    <path style=" stroke:none;fill-rule:nonzero;fill:rgb(0%,0%,0%);fill-opacity:1;" d="M 69.082031 51.699219 L 52.007812 68.832031 L 11.839844 28.527344 L 31.25 9.054688 L 72.75 9.054688 L 92.171875 28.53125 L 83.828125 36.902344 L 90.339844 36.902344 L 98.683594 28.527344 L 74.65625 4.433594 L 29.34375 4.433594 L 5.332031 28.527344 L 52.007812 75.363281 L 75.59375 51.699219 Z M 69.082031 51.699219 "/>
    <path style=" stroke:none;fill-rule:nonzero;fill:rgb(0%,0%,0%);fill-opacity:1;" d="M 59.625 31.644531 L 59.625 33.117188 L 54.457031 33.117188 L 54.457031 55.515625 L 59.625 55.515625 L 59.625 56.988281 L 44.570312 56.988281 L 44.570312 55.515625 L 49.484375 55.515625 L 49.484375 33.117188 L 44.570312 33.117188 L 44.570312 31.644531 L 49.484375 31.644531 L 49.484375 28.507812 C 49.484375 17.566406 54.011719 12.957031 60.136719 12.957031 C 62.621094 12.957031 65.492188 14.109375 65.492188 17.117188 C 65.492188 18.398438 64.21875 19.230469 63.132812 19.230469 C 61.410156 19.230469 60.519531 18.011719 60.519531 16.285156 C 60.519531 15.582031 61.027344 15.515625 61.027344 14.683594 C 61.027344 14.363281 59.945312 14.300781 59.496094 14.300781 C 56.4375 14.300781 54.457031 18.011719 54.457031 24.414062 L 54.457031 31.644531 Z M 59.625 31.644531 "/>
    <path style=" stroke:none;fill-rule:nonzero;fill:rgb(0%,0%,0%);fill-opacity:1;" d="M 70.21875 32.285156 C 70.21875 33.5625 69.183594 34.597656 67.910156 34.597656 C 66.636719 34.597656 65.605469 33.5625 65.605469 32.285156 C 65.605469 31.007812 66.636719 29.96875 67.910156 29.96875 C 69.183594 29.96875 70.21875 31.007812 70.21875 32.285156 Z M 70.21875 32.285156 "/>
    <path style=" stroke:none;fill-rule:nonzero;fill:rgb(0%,0%,0%);fill-opacity:1;" d="M 66.550781 49.304688 C 66.496094 50.21875 65.796875 50.898438 64.902344 50.898438 C 64.1875 50.898438 63.777344 50.433594 63.644531 49.710938 C 62.984375 50.53125 62.011719 50.898438 61.023438 50.898438 C 59.800781 50.898438 58.753906 50.433594 58.753906 48.992188 C 58.8125 47.179688 60.65625 46.167969 63.625 46.167969 L 63.625 44.320312 C 63.625 43.40625 62.90625 43.132812 62.226562 43.132812 C 61.800781 43.132812 60.421875 43.269531 60.421875 43.835938 C 60.421875 43.988281 61.003906 44.085938 61.003906 44.730469 C 61.003906 45.214844 60.695312 45.546875 60.210938 45.546875 C 59.6875 45.546875 59.394531 45.15625 59.394531 44.613281 C 59.394531 43.910156 60.191406 42.746094 62.5 42.746094 C 65.136719 42.746094 65.136719 43.871094 65.136719 44.652344 L 65.136719 49.285156 C 65.136719 49.867188 65.136719 50.179688 65.542969 50.179688 C 65.933594 50.179688 66.125 49.632812 66.222656 49.304688 Z M 63.625 46.578125 C 62.363281 46.597656 60.210938 46.8125 60.210938 48.601562 C 60.210938 49.554688 60.8125 50.140625 61.703125 50.140625 C 62.324219 50.140625 62.730469 49.984375 63.195312 49.574219 C 63.351562 49.417969 63.625 49.207031 63.625 48.386719 Z M 72.644531 42.9375 L 72.644531 45.117188 L 72.214844 45.117188 C 71.925781 43.988281 71.265625 43.191406 70.101562 43.132812 C 68.511719 43.09375 68.277344 44.320312 68.277344 44.554688 C 68.277344 45.117188 68.433594 45.410156 71.402344 46.015625 C 72.894531 46.324219 73.417969 47.007812 73.417969 48.234375 C 73.417969 49.90625 72.160156 50.898438 70.625 50.898438 C 69.8125 50.898438 68.957031 50.566406 68.394531 49.945312 L 67.96875 50.644531 L 67.542969 50.644531 L 67.542969 48.078125 L 67.988281 48.078125 C 68.355469 49.476562 69.308594 50.507812 70.742188 50.507812 C 71.613281 50.507812 72.625 49.847656 72.625 48.835938 C 72.625 48.078125 71.558594 47.726562 69.945312 47.316406 C 68.667969 47.007812 67.542969 46.832031 67.542969 45.136719 C 67.542969 44.320312 68.046875 42.742188 70.160156 42.742188 C 70.761719 42.742188 71.363281 42.976562 71.964844 43.464844 L 72.3125 42.9375 Z M 75.785156 37.683594 L 74.71875 37.683594 L 74.71875 37.234375 L 75.125 37.234375 C 75.84375 37.234375 76.601562 37.195312 77.296875 37.058594 L 77.296875 44.808594 L 77.335938 44.808594 C 77.882812 43.582031 78.636719 42.742188 80.054688 42.742188 C 80.75 42.742188 82.359375 42.898438 82.359375 44.691406 L 82.359375 50.199219 L 83.410156 50.199219 L 83.410156 50.644531 L 79.839844 50.644531 L 79.839844 50.199219 L 80.847656 50.199219 L 80.847656 44.941406 C 80.847656 43.523438 80.402344 43.308594 79.625 43.308594 C 78.308594 43.308594 77.296875 45.117188 77.296875 46.578125 L 77.296875 50.199219 L 78.34375 50.199219 L 78.34375 50.644531 L 74.71875 50.644531 L 74.71875 50.199219 L 75.785156 50.199219 Z M 84.574219 50.644531 L 84.574219 50.199219 L 85.871094 50.199219 L 85.871094 43.386719 L 84.574219 43.386719 L 84.574219 42.9375 L 85.210938 42.9375 C 85.929688 42.9375 86.6875 42.917969 87.386719 42.746094 L 87.386719 50.199219 L 88.53125 50.199219 L 88.53125 50.644531 Z M 86.609375 37.800781 C 87.074219 37.800781 87.597656 38.226562 87.597656 38.734375 C 87.597656 39.335938 87.171875 39.765625 86.609375 39.765625 C 86.046875 39.765625 85.679688 39.296875 85.679688 38.734375 C 85.679688 38.226562 86.125 37.800781 86.609375 37.800781 Z M 97.394531 46.8125 C 97.394531 49.167969 95.6875 50.898438 93.652344 50.898438 C 91.613281 50.898438 89.90625 49.167969 89.90625 46.8125 C 89.90625 44.457031 91.613281 42.746094 93.652344 42.746094 C 95.6875 42.746094 97.394531 44.457031 97.394531 46.8125 Z M 91.671875 46.8125 C 91.671875 48.445312 91.691406 50.511719 93.652344 50.511719 C 95.609375 50.511719 95.628906 48.445312 95.628906 46.8125 C 95.628906 45.195312 95.609375 43.132812 93.652344 43.132812 C 91.691406 43.132812 91.671875 45.195312 91.671875 46.8125 Z M 99.585938 43.386719 L 98.519531 43.386719 L 98.519531 42.9375 L 98.925781 42.9375 C 99.296875 42.9375 99.664062 42.9375 100.015625 42.898438 C 100.382812 42.878906 100.75 42.820312 101.101562 42.746094 L 101.101562 44.808594 L 101.140625 44.808594 C 101.683594 43.582031 102.4375 42.746094 103.855469 42.746094 C 104.554688 42.746094 106.164062 42.898438 106.164062 44.691406 L 106.164062 50.199219 L 107.210938 50.199219 L 107.210938 50.644531 L 103.640625 50.644531 L 103.640625 50.199219 L 104.648438 50.199219 L 104.648438 44.941406 C 104.648438 43.523438 104.203125 43.308594 103.425781 43.308594 C 102.109375 43.308594 101.101562 45.117188 101.101562 46.578125 L 101.101562 50.199219 L 102.148438 50.199219 L 102.148438 50.644531 L 98.519531 50.644531 L 98.519531 50.199219 L 99.585938 50.199219 Z M 108.003906 42.9375 L 109.148438 42.9375 L 109.148438 40.542969 C 109.652344 40.542969 110.140625 40.542969 110.625 40.464844 L 110.625 42.9375 L 112.332031 42.9375 L 112.332031 43.386719 L 110.625 43.386719 L 110.625 49.34375 C 110.625 49.691406 110.625 50.21875 111.359375 50.21875 C 111.863281 50.21875 112.136719 49.867188 112.449219 49.5 L 112.757812 49.710938 C 112.390625 50.453125 111.4375 50.898438 110.664062 50.898438 C 109.265625 50.898438 109.109375 50.140625 109.109375 49.207031 L 109.109375 43.386719 L 108.003906 43.386719 Z M 113.417969 43.386719 L 113.417969 42.9375 L 116.910156 42.9375 L 116.910156 43.386719 L 115.882812 43.386719 L 117.761719 48.972656 L 117.800781 48.972656 L 119.761719 43.386719 L 118.578125 43.386719 L 118.578125 42.9375 L 121.214844 42.9375 L 121.214844 43.386719 L 120.285156 43.386719 L 117.605469 50.898438 L 116.949219 50.898438 L 114.347656 43.386719 Z M 113.417969 43.386719 "/>
  </g>
</svg>