<?xml version="1.0" encoding="UTF-8" standalone="yes"?>
<svg xmlns="http://www.w3.org/2000/svg" xmlns:xlink="http://www.w3.org/1999/xlink" width="354.66666666666663px" height="106.66666666666666px" viewBox="0 0 266 80" version="1.1">
  <g id="surface1">
    <path style=" stroke:none;fill-rule:nonzero;fill:rgb(99.607843%,0%,0%);fill-opacity:1;" d="M 28.460938 16.597656 C 31.578125 13.457031 34.730469 10.351562 37.820312 7.191406 C 37.890625 13.5 37.832031 19.816406 37.851562 26.128906 C 37.914062 26.40625 37.652344 26.558594 37.503906 26.738281 C 27.246094 36.984375 17.035156 47.277344 6.765625 57.511719 C 6.753906 51.117188 6.773438 44.722656 6.757812 38.328125 C 14.007812 31.101562 21.222656 23.839844 28.460938 16.597656 Z M 28.460938 16.597656 "/>
    <path style=" stroke:none;fill-rule:nonzero;fill:rgb(99.607843%,0%,0%);fill-opacity:1;" d="M 9.832031 60.175781 C 23.300781 46.652344 36.792969 33.15625 50.277344 19.644531 C 50.28125 26.070312 50.28125 32.496094 50.277344 38.925781 C 49.34375 39.84375 48.441406 40.800781 47.453125 41.667969 C 38.082031 51.058594 28.707031 60.445312 19.339844 69.839844 C 16.164062 66.625 12.914062 63.484375 9.832031 60.175781 Z M 9.832031 60.175781 "/>
    <path style=" stroke:none;fill-rule:nonzero;fill:rgb(99.607843%,0%,0%);fill-opacity:1;" d="M 57.265625 37.285156 C 60.355469 34.195312 63.441406 31.101562 66.527344 28.007812 C 74.707031 28.011719 82.882812 28.007812 91.0625 28.007812 C 91.054688 31.121094 91.054688 34.234375 91.058594 37.34375 C 82.902344 37.351562 74.742188 37.332031 66.582031 37.351562 C 66.601562 40.121094 66.582031 42.886719 66.59375 45.65625 C 74.484375 45.617188 82.375 45.664062 90.269531 45.636719 C 90.574219 45.605469 90.867188 45.722656 91.175781 45.722656 C 88.097656 48.796875 85.050781 51.902344 81.945312 54.945312 C 76.835938 55.046875 71.703125 54.957031 66.585938 54.988281 C 66.597656 60.867188 66.585938 66.746094 66.59375 72.625 C 63.484375 72.628906 60.375 72.628906 57.265625 72.628906 C 57.265625 60.84375 57.269531 49.066406 57.265625 37.285156 Z M 57.265625 37.285156 "/>
    <path style=" stroke:none;fill-rule:nonzero;fill:rgb(99.607843%,0%,0%);fill-opacity:1;" d="M 98.429688 28.011719 C 101.539062 28.003906 104.644531 28.011719 107.757812 28.003906 C 107.757812 39.765625 107.761719 51.527344 107.753906 63.289062 C 113.152344 63.289062 118.546875 63.289062 123.945312 63.285156 C 123.925781 51.527344 123.945312 39.765625 123.9375 28.007812 C 127.046875 28.007812 130.152344 28.007812 133.261719 28.007812 C 133.253906 42.882812 133.261719 57.753906 133.257812 72.628906 C 124.6875 72.625 116.117188 72.632812 107.542969 72.621094 C 104.625 69.667969 101.683594 66.734375 98.746094 63.800781 C 98.609375 63.640625 98.386719 63.492188 98.4375 63.25 C 98.429688 51.503906 98.449219 39.757812 98.429688 28.011719 Z M 98.429688 28.011719 "/>
    <path style=" stroke:none;fill-rule:nonzero;fill:rgb(99.607843%,0%,0%);fill-opacity:1;" d="M 141.535156 37.15625 C 144.582031 34.105469 147.625 31.054688 150.667969 28.003906 C 158.804688 28.011719 166.9375 28.003906 175.074219 28.007812 C 175.070312 31.121094 175.070312 34.234375 175.074219 37.34375 C 167.003906 37.34375 158.933594 37.34375 150.867188 37.34375 C 150.867188 40.109375 150.863281 42.878906 150.867188 45.644531 C 158.964844 45.648438 167.0625 45.621094 175.160156 45.660156 C 172.179688 48.867188 168.953125 51.847656 165.894531 54.984375 C 160.886719 54.992188 155.875 54.984375 150.863281 54.988281 C 150.867188 57.753906 150.867188 60.519531 150.863281 63.289062 C 158.933594 63.292969 167.003906 63.28125 175.074219 63.292969 C 175.066406 66.402344 175.074219 69.515625 175.070312 72.628906 C 163.894531 72.628906 152.71875 72.628906 141.539062 72.625 C 141.542969 60.804688 141.550781 48.980469 141.535156 37.15625 Z M 141.535156 37.15625 "/>
    <path style=" stroke:none;fill-rule:nonzero;fill:rgb(99.607843%,0%,0%);fill-opacity:1;" d="M 182.835938 28.011719 C 185.941406 28.003906 189.054688 28.011719 192.160156 28.007812 C 192.160156 39.765625 192.164062 51.527344 192.160156 63.289062 C 197.382812 63.289062 202.609375 63.289062 207.835938 63.289062 C 212.101562 63.316406 216.367188 63.230469 220.632812 63.332031 C 219.410156 64.632812 218.117188 65.863281 216.871094 67.136719 C 215.195312 69.058594 213.3125 70.78125 211.539062 72.609375 C 201.976562 72.648438 192.40625 72.617188 182.839844 72.625 C 182.839844 57.753906 182.851562 42.882812 182.835938 28.011719 Z M 182.835938 28.011719 "/>
    <path style=" stroke:none;fill-rule:nonzero;fill:rgb(99.607843%,0%,0%);fill-opacity:1;" d="M 198.316406 33.710938 C 200.230469 31.820312 202.082031 29.855469 204.046875 28.019531 C 212.425781 27.992188 220.804688 28.015625 229.1875 28.007812 C 229.179688 34.339844 229.179688 40.671875 229.1875 47.003906 C 230.152344 46.066406 231.082031 45.089844 231.984375 44.085938 C 236.046875 39.976562 240.148438 35.910156 244.214844 31.804688 C 245.386719 30.488281 246.652344 29.261719 247.890625 28.007812 C 250.609375 28.011719 253.332031 28 256.054688 28.015625 C 247.066406 36.992188 238.101562 45.988281 229.132812 54.984375 C 227.296875 54.992188 225.457031 54.984375 223.621094 54.988281 C 223.621094 47.898438 223.625 40.804688 223.625 33.714844 C 220.859375 33.714844 218.089844 33.714844 215.324219 33.714844 C 215.335938 40.804688 215.324219 47.894531 215.332031 54.984375 C 213.347656 54.988281 211.363281 54.988281 209.375 54.984375 C 209.386719 47.894531 209.371094 40.804688 209.382812 33.714844 C 205.695312 33.710938 202.003906 33.71875 198.316406 33.710938 Z M 198.316406 33.710938 "/>
    <path style=" stroke:none;fill-rule:nonzero;fill:rgb(99.607843%,0%,0%);fill-opacity:1;" d="M 258.375 28.019531 C 258.917969 28.003906 259.464844 28.007812 260.011719 28.011719 C 260.007812 28.105469 260 28.296875 259.996094 28.394531 C 259.492188 28.394531 258.988281 28.414062 258.488281 28.382812 C 258.460938 28.292969 258.40625 28.109375 258.375 28.019531 Z M 258.375 28.019531 "/>
    <path style=" stroke:none;fill-rule:nonzero;fill:rgb(99.607843%,0%,0%);fill-opacity:1;" d="M 260.140625 27.945312 C 260.855469 28.082031 260.894531 28.988281 261.230469 29.511719 C 261.460938 28.992188 261.390625 28.089844 262.070312 27.949219 C 262.078125 28.660156 262.066406 29.367188 262.082031 30.074219 C 261.980469 30.078125 261.78125 30.082031 261.679688 30.082031 C 261.679688 29.734375 261.683594 29.386719 261.695312 29.039062 C 261.496094 29.449219 261.429688 29.984375 260.972656 30.203125 C 260.875 29.722656 260.65625 29.28125 260.558594 28.800781 C 260.511719 29.242188 260.503906 29.683594 260.5 30.125 C 260.410156 30.101562 260.230469 30.054688 260.140625 30.03125 C 260.09375 29.335938 260.125 28.640625 260.140625 27.945312 Z M 260.140625 27.945312 "/>
    <path style=" stroke:none;fill-rule:nonzero;fill:rgb(99.607843%,0%,0%);fill-opacity:1;" d="M 22.035156 72.617188 C 27.238281 67.34375 32.492188 62.113281 37.730469 56.875 C 42.964844 62.128906 48.214844 67.371094 53.445312 72.628906 C 42.976562 72.621094 32.503906 72.640625 22.035156 72.617188 Z M 22.035156 72.617188 "/>
  </g>
</svg>