<?xml version="1.0" encoding="UTF-8" standalone="no"?>
<!-- Created with Inkscape (http://www.inkscape.org/) -->

<svg
   xmlns:dc="http://purl.org/dc/elements/1.1/"
   xmlns:cc="http://creativecommons.org/ns#"
   xmlns:rdf="http://www.w3.org/1999/02/22-rdf-syntax-ns#"
   xmlns:svg="http://www.w3.org/2000/svg"
   xmlns="http://www.w3.org/2000/svg"
   xmlns:xlink="http://www.w3.org/1999/xlink"
   version="1.1"
   width="392.25"
   height="110"
   id="svg2">
  <defs
     id="defs4">
    <linearGradient
       id="linearGradient3983">
      <stop
         id="stop3985"
         style="stop-color:#b3b3b3;stop-opacity:1"
         offset="0" />
      <stop
         id="stop3987"
         style="stop-color:#000000;stop-opacity:1"
         offset="1" />
    </linearGradient>
    <linearGradient
       id="linearGradient5905">
      <stop
         id="stop5907"
         style="stop-color:#eb008b;stop-opacity:1"
         offset="0" />
      <stop
         id="stop5913"
         style="stop-color:#ffffff;stop-opacity:1"
         offset="0.49565217" />
      <stop
         id="stop5909"
         style="stop-color:#eb008b;stop-opacity:1"
         offset="1" />
    </linearGradient>
    <linearGradient
       x1="108"
       y1="50"
       x2="382.25"
       y2="50"
       id="linearGradient3989"
       xlink:href="#linearGradient3983"
       gradientUnits="userSpaceOnUse" />
  </defs>
  <metadata
     id="metadata7">
    <rdf:RDF>
      <cc:Work
         rdf:about="">
        <dc:format>image/svg+xml</dc:format>
        <dc:type
           rdf:resource="http://purl.org/dc/dcmitype/StillImage" />
        <dc:title></dc:title>
      </cc:Work>
    </rdf:RDF>
  </metadata>
  <g
     transform="translate(57.07701,-709.74581)"
     id="layer1">
    <g
       transform="translate(-172.81652,87.988623)"
       id="g13939">
      <path
         d="m 121.12138,626.75719 0,27.33191 97.80268,0 0,-27.33191 -97.80268,0 z m 97.67748,32.15225 c -44.67012,0 -83.42311,28.25379 -98.05935,67.84775 l 98.05935,-0.1252 0,-67.72255 z"
         id="path12743"
         style="fill:#de003c;fill-opacity:1;fill-rule:evenodd;stroke:none" />
      <path
         d="m 158,0 c -27.7,0 -50,22.3 -50,50 l 0,50 31,0 0,-20.0625 35,0 0,-31 -35,0 C 139.03383,38.994798 147.04907,31 157,31 l 36,0 0,19 c 0,27.7 22.3,50 50,50 l 60,0 0,-69 30.25,0 c 9.972,0 18,8.028 18,18 l 0,51 31,0 0,-50 c 0,-27.7 -22.3,-50 -50,-50 L 272,0 l 0,69 -30,0 c -9.972,0 -18,-8.028 -18,-18 l 0,-51 -66,0 z"
         transform="translate(120.73951,626.75719)"
         id="rect3187"
         style="fill:url(#linearGradient3989);fill-opacity:1;fill-rule:nonzero;stroke:none" />
    </g>
  </g>
</svg>
