<?xml version="1.0" encoding="UTF-8" ?>
<!DOCTYPE svg PUBLIC "-//W3C//DTD SVG 1.1//EN" "http://www.w3.org/Graphics/SVG/1.1/DTD/svg11.dtd">
<svg width="200pt" height="200pt" viewBox="0 0 200 200" version="1.1" xmlns="http://www.w3.org/2000/svg">
<g id="#ffffffff">
<path fill="#ffffff" opacity="1.00" d=" M 149.65 75.54 C 154.67 75.34 159.85 74.91 164.74 76.30 C 170.17 78.16 171.09 86.38 166.64 89.74 C 163.65 91.92 159.76 91.56 156.27 91.94 C 156.28 94.02 156.28 96.11 156.27 98.19 C 154.09 98.20 151.91 98.20 149.73 98.19 C 149.66 90.64 149.78 83.09 149.65 75.54 M 156.42 80.66 C 156.35 82.58 156.30 84.50 156.27 86.42 C 158.37 86.12 162.49 87.00 162.76 83.96 C 163.25 80.51 158.60 80.97 156.42 80.66 Z" />
<path fill="#ffffff" opacity="1.00" d=" M 177.71 75.47 C 180.11 75.38 182.51 75.36 184.92 75.39 C 182.48 79.69 179.57 83.79 178.15 88.59 C 179.72 88.57 181.28 88.54 182.85 88.51 C 182.80 87.05 182.75 85.59 182.70 84.13 C 184.90 83.90 187.12 83.82 189.33 83.85 C 189.36 88.62 189.36 93.40 189.33 98.19 C 187.15 98.19 184.97 98.19 182.79 98.17 C 182.78 96.78 182.77 95.39 182.76 94.01 C 178.70 94.00 174.63 94.02 170.57 93.94 C 171.36 87.28 174.23 81.12 177.71 75.47 Z" />
<path fill="#ffffff" opacity="1.00" d=" M 23.18 75.80 C 33.45 75.74 43.72 75.78 53.98 75.77 C 57.83 75.86 62.15 76.13 65.06 78.98 C 67.98 82.06 68.05 86.88 66.82 90.71 C 65.37 95.19 60.24 96.73 55.98 96.73 C 45.05 96.82 34.11 96.75 23.18 96.76 C 23.19 93.84 23.31 90.90 22.90 88.00 C 23.45 83.95 23.07 79.87 23.18 75.80 M 36.19 79.67 C 36.18 84.04 36.19 88.41 36.19 92.78 C 41.13 92.92 46.23 93.58 51.03 92.12 C 54.41 91.02 54.21 86.74 53.78 83.90 C 53.62 81.59 51.28 80.20 49.19 79.94 C 44.88 79.36 40.52 79.68 36.19 79.67 Z" />
<path fill="#ffffff" opacity="1.00" d=" M 72.46 96.75 C 72.46 89.75 72.34 82.75 72.53 75.75 C 83.69 75.82 94.85 75.72 106.00 75.80 C 108.87 75.83 112.25 76.38 113.95 78.97 C 115.07 81.57 115.37 85.16 113.05 87.22 C 111.41 88.86 108.97 89.10 106.81 89.52 C 109.94 92.11 113.46 94.16 116.62 96.71 C 111.16 96.74 105.69 96.93 100.25 96.65 C 97.77 95.24 95.96 92.91 93.49 91.50 C 90.88 91.13 88.22 91.37 85.60 91.39 C 85.58 93.17 85.58 94.96 85.56 96.74 C 81.19 96.78 76.83 96.78 72.46 96.75 M 85.62 79.67 C 85.60 82.29 85.60 84.91 85.62 87.53 C 90.18 87.45 94.78 87.89 99.31 87.25 C 102.25 86.41 101.76 83.07 101.30 80.76 C 96.32 78.76 90.83 79.95 85.62 79.67 Z" />
</g>
<g id="#000000ff">
<path fill="#000000" opacity="1.00" d=" M 0.00 65.96 C 46.18 65.96 92.36 65.96 138.55 65.96 C 138.55 79.80 138.51 93.65 138.57 107.50 C 92.38 107.51 46.19 107.50 0.00 107.50 L 0.00 65.96 M 23.18 75.80 C 23.07 79.87 23.45 83.95 22.90 88.00 C 23.31 90.90 23.19 93.84 23.18 96.76 C 34.11 96.75 45.05 96.82 55.98 96.73 C 60.24 96.73 65.37 95.19 66.82 90.71 C 68.05 86.88 67.98 82.06 65.06 78.98 C 62.15 76.13 57.83 75.86 53.98 75.77 C 43.72 75.78 33.45 75.74 23.18 75.80 M 72.46 96.75 C 76.83 96.78 81.19 96.78 85.56 96.74 C 85.58 94.96 85.58 93.17 85.60 91.39 C 88.22 91.37 90.88 91.13 93.49 91.50 C 95.96 92.91 97.77 95.24 100.25 96.65 C 105.69 96.93 111.16 96.74 116.62 96.71 C 113.46 94.16 109.94 92.11 106.81 89.52 C 108.97 89.10 111.41 88.86 113.05 87.22 C 115.37 85.16 115.07 81.57 113.95 78.97 C 112.25 76.38 108.87 75.83 106.00 75.80 C 94.85 75.72 83.69 75.82 72.53 75.75 C 72.34 82.75 72.46 89.75 72.46 96.75 Z" />
<path fill="#000000" opacity="1.00" d=" M 36.19 79.67 C 40.52 79.68 44.88 79.36 49.19 79.94 C 51.28 80.20 53.62 81.59 53.78 83.90 C 54.21 86.74 54.41 91.02 51.03 92.12 C 46.23 93.58 41.13 92.92 36.19 92.78 C 36.19 88.41 36.18 84.04 36.19 79.67 Z" />
<path fill="#000000" opacity="1.00" d=" M 85.62 79.67 C 90.83 79.95 96.32 78.76 101.30 80.76 C 101.76 83.07 102.25 86.41 99.31 87.25 C 94.78 87.89 90.18 87.45 85.62 87.53 C 85.60 84.91 85.60 82.29 85.62 79.67 Z" />
<path fill="#000000" opacity="1.00" d=" M 70.59 142.69 C 75.96 142.69 81.33 142.70 86.71 142.68 C 86.72 143.96 86.74 145.24 86.75 146.53 C 82.75 146.53 78.76 146.51 74.76 146.56 C 74.76 148.56 74.76 150.56 74.75 152.57 C 78.67 152.65 82.58 152.62 86.50 152.62 C 86.50 153.57 86.50 155.46 86.50 156.40 C 82.58 156.40 78.67 156.37 74.75 156.46 C 74.76 159.89 74.76 163.32 74.76 166.75 C 73.37 166.75 71.98 166.75 70.59 166.76 C 70.58 158.73 70.57 150.71 70.59 142.69 Z" />
<path fill="#000000" opacity="1.00" d=" M 89.66 142.74 C 91.24 142.70 92.82 142.67 94.40 142.63 C 96.65 145.87 98.50 149.37 100.80 152.58 C 102.69 149.22 104.71 145.94 106.75 142.66 C 108.40 142.69 110.06 142.71 111.71 142.74 C 108.54 147.25 105.66 151.97 102.66 156.61 C 102.70 159.99 102.69 163.37 102.69 166.75 C 101.27 166.75 99.85 166.75 98.43 166.75 C 98.40 163.39 98.55 160.03 98.37 156.68 C 95.84 151.82 92.44 147.46 89.66 142.74 Z" />
<path fill="#000000" opacity="1.00" d=" M 114.73 142.71 C 116.19 142.70 117.64 142.70 119.10 142.70 C 122.51 148.19 125.34 154.05 129.15 159.28 C 129.36 153.75 129.17 148.21 129.28 142.67 C 130.27 142.68 132.25 142.72 133.24 142.73 C 133.26 150.72 133.22 158.70 133.26 166.68 C 131.73 166.71 130.20 166.73 128.67 166.73 C 125.42 160.98 122.09 155.27 118.76 149.56 C 118.68 155.30 118.74 161.04 118.71 166.78 C 117.38 166.75 116.04 166.72 114.71 166.69 C 114.74 158.70 114.71 150.70 114.73 142.71 Z" />
</g>
<g id="#ffa000ff">
<path fill="#ffa000" opacity="1.00" d=" M 138.55 65.96 C 159.03 65.96 179.52 65.96 200.00 65.96 L 200.00 107.50 C 179.52 107.50 159.05 107.51 138.57 107.50 C 138.51 93.65 138.55 79.80 138.55 65.96 M 149.65 75.54 C 149.78 83.09 149.66 90.64 149.73 98.19 C 151.91 98.20 154.09 98.20 156.27 98.19 C 156.28 96.11 156.28 94.02 156.27 91.94 C 159.76 91.56 163.65 91.92 166.64 89.74 C 171.09 86.38 170.17 78.16 164.74 76.30 C 159.85 74.91 154.67 75.34 149.65 75.54 M 177.71 75.47 C 174.23 81.12 171.36 87.28 170.57 93.94 C 174.63 94.02 178.70 94.00 182.76 94.01 C 182.77 95.39 182.78 96.78 182.79 98.17 C 184.97 98.19 187.15 98.19 189.33 98.19 C 189.36 93.40 189.36 88.62 189.33 83.85 C 187.12 83.82 184.90 83.90 182.70 84.13 C 182.75 85.59 182.80 87.05 182.85 88.51 C 181.28 88.54 179.72 88.57 178.15 88.59 C 179.57 83.79 182.48 79.69 184.92 75.39 C 182.51 75.36 180.11 75.38 177.71 75.47 Z" />
<path fill="#ffa000" opacity="1.00" d=" M 156.42 80.66 C 158.60 80.97 163.25 80.51 162.76 83.96 C 162.49 87.00 158.37 86.12 156.27 86.42 C 156.30 84.50 156.35 82.58 156.42 80.66 Z" />
</g>
</svg>
