<?xml version="1.0" encoding="UTF-8" standalone="yes"?>
<svg xmlns="http://www.w3.org/2000/svg" xmlns:xlink="http://www.w3.org/1999/xlink" width="193.33333333333331px" height="106.66666666666666px" viewBox="0 0 145 80" version="1.1">
  <g id="surface1">
    <path style=" stroke:none;fill-rule:nonzero;fill:rgb(100%,100%,100%);fill-opacity:1;" d="M 84.511719 22.636719 C 85.554688 22.464844 86.207031 23.449219 86.65625 24.238281 C 87.070312 24.914062 87.199219 25.710938 87.105469 26.492188 C 86.289062 26.710938 85.683594 26.046875 85.277344 25.441406 C 84.71875 24.628906 84.304688 23.640625 84.511719 22.636719 Z M 84.511719 22.636719 "/>
    <path style=" stroke:none;fill-rule:nonzero;fill:rgb(100%,100%,100%);fill-opacity:1;" d="M 94.144531 26.238281 C 94.320312 25.859375 94.886719 26.046875 95.214844 26.078125 C 96.1875 26.367188 97.078125 26.972656 97.683594 27.789062 C 97.976562 28.160156 98 28.886719 97.367188 28.886719 C 96.148438 28.765625 95.003906 28.058594 94.285156 27.070312 C 94.167969 26.832031 93.933594 26.492188 94.144531 26.238281 Z M 94.144531 26.238281 "/>
    <path style=" stroke:none;fill-rule:nonzero;fill:rgb(100%,100%,100%);fill-opacity:1;" d="M 75.011719 28.46875 C 76 28.183594 77.199219 27.960938 78.117188 28.53125 C 78.605469 29.015625 77.910156 29.523438 77.484375 29.683594 C 76.40625 30.101562 75.050781 30.378906 74.019531 29.703125 C 73.667969 29.023438 74.503906 28.65625 75.011719 28.46875 Z M 75.011719 28.46875 "/>
    <path style=" stroke:none;fill-rule:nonzero;fill:rgb(100%,100%,100%);fill-opacity:1;" d="M 93.105469 31.207031 C 94.089844 32.019531 95.226562 32.605469 96.433594 33 C 95.34375 36.707031 92.53125 40.125 88.652344 41.011719 C 89.523438 41.355469 90.308594 41.878906 91.011719 42.5 C 89.050781 43.441406 86.914062 43.972656 84.769531 44.277344 C 84.324219 44.421875 83.910156 44.667969 83.46875 44.824219 C 81.773438 45.117188 80.101562 45.542969 78.382812 45.648438 C 79.253906 43.304688 81.175781 41.347656 83.605469 40.664062 C 81.335938 39.703125 79.367188 37.992188 78.296875 35.746094 C 79.578125 35.578125 80.765625 34.984375 81.636719 34.015625 C 82.480469 35.457031 83.714844 36.792969 85.378906 37.21875 C 87.023438 37.703125 88.90625 37.277344 90.15625 36.097656 C 91.617188 34.820312 92.472656 33.007812 93.105469 31.207031 Z M 93.105469 31.207031 "/>
    <path style=" stroke:none;fill-rule:nonzero;fill:rgb(100%,100%,100%);fill-opacity:1;" d="M 51.941406 31.714844 C 53.675781 31.179688 55.503906 31.523438 57.269531 31.695312 C 58.402344 31.820312 59.277344 32.640625 59.960938 33.492188 C 60.644531 32.992188 61.371094 32.5 62.21875 32.339844 C 63.472656 32.109375 64.738281 32.378906 65.992188 32.460938 C 67.273438 32.570312 68.574219 33.085938 69.398438 34.109375 C 70.394531 35.332031 70.632812 36.992188 70.554688 38.519531 C 70.328125 41.164062 70.042969 43.804688 69.835938 46.449219 C 68.535156 46.417969 67.238281 46.378906 65.9375 46.386719 C 66.179688 44.332031 66.328125 42.265625 66.539062 40.207031 C 66.628906 39.179688 66.8125 38.085938 66.378906 37.109375 C 65.742188 35.671875 63.566406 35.328125 62.464844 36.414062 C 61.882812 37.042969 61.609375 37.890625 61.507812 38.726562 C 61.261719 40.976562 61.109375 43.238281 60.847656 45.480469 C 60.796875 45.589844 60.691406 45.800781 60.640625 45.90625 C 59.421875 45.730469 58.207031 45.542969 56.996094 45.320312 C 57.265625 43.054688 57.417969 40.777344 57.660156 38.507812 C 57.710938 37.785156 57.816406 37.007812 57.476562 36.335938 C 56.816406 34.914062 54.722656 34.539062 53.527344 35.488281 C 52.84375 36.125 52.621094 37.09375 52.527344 37.992188 C 52.339844 40.03125 52.136719 42.074219 51.960938 44.117188 C 50.75 43.789062 49.554688 43.402344 48.367188 42.992188 C 48.34375 42.839844 48.300781 42.539062 48.277344 42.386719 C 48.308594 41.246094 48.492188 40.117188 48.570312 38.980469 C 48.757812 37.308594 48.75 35.570312 49.414062 33.996094 C 49.859375 32.910156 50.804688 32.027344 51.941406 31.714844 Z M 51.941406 31.714844 "/>
    <path style=" stroke:none;fill-rule:nonzero;fill:rgb(100%,100%,100%);fill-opacity:1;" d="M 86.113281 33.042969 C 87.308594 32.398438 88.886719 33.554688 88.617188 34.890625 C 88.515625 36.253906 86.640625 36.894531 85.691406 35.945312 C 84.773438 35.175781 85.011719 33.523438 86.113281 33.042969 Z M 86.113281 33.042969 "/>
    <path style=" stroke:none;fill-rule:nonzero;fill:rgb(100%,100%,100%);fill-opacity:1;" d="M 73.632812 34.75 C 73.859375 33.144531 76.214844 33.015625 77.117188 34.097656 C 77.625 34.730469 77.390625 35.578125 77.351562 36.3125 C 77.109375 39.097656 76.761719 41.882812 76.613281 44.679688 L 76.53125 44.679688 C 76.460938 44.683594 76.324219 44.6875 76.253906 44.691406 C 76.3125 45.117188 76.359375 45.542969 76.40625 45.972656 C 75.183594 46.113281 73.953125 46.253906 72.71875 46.238281 C 72.6875 46.113281 72.632812 45.863281 72.605469 45.742188 C 72.921875 42.074219 73.265625 38.410156 73.632812 34.75 Z M 73.632812 34.75 "/>
    <path style=" stroke:none;fill-rule:nonzero;fill:rgb(84.705882%,19.607843%,19.607843%);fill-opacity:1;" d="M 69.296875 13.136719 C 70.269531 12.394531 71.207031 11.601562 72.1875 10.863281 C 73.15625 11.714844 74.160156 12.519531 75.140625 13.351562 C 76.277344 12.785156 77.34375 11.988281 78.53125 11.582031 C 79.339844 12.457031 80.097656 13.378906 80.84375 14.308594 C 82.117188 13.9375 83.347656 13.414062 84.609375 13.003906 C 85.234375 14.03125 85.765625 15.113281 86.445312 16.105469 C 87.734375 15.832031 89.035156 15.609375 90.324219 15.328125 C 90.75 16.410156 91.085938 17.523438 91.457031 18.628906 C 92.828125 18.601562 94.199219 18.496094 95.570312 18.417969 C 95.691406 19.53125 95.820312 20.648438 95.96875 21.761719 C 97.332031 22.015625 98.722656 22.007812 100.085938 22.234375 C 99.972656 23.347656 99.792969 24.457031 99.804688 25.582031 C 101.066406 25.878906 102.339844 26.15625 103.59375 26.5 L 103.679688 26.644531 C 103.425781 27.691406 103.042969 28.707031 102.703125 29.730469 C 103.9375 30.296875 105.21875 30.75 106.464844 31.289062 C 105.9375 32.285156 105.367188 33.253906 104.785156 34.214844 C 105.820312 35.042969 107.035156 35.597656 108.136719 36.320312 C 107.382812 37.238281 106.605469 38.132812 105.8125 39.015625 C 106.796875 39.851562 107.785156 40.6875 108.796875 41.496094 C 107.820312 42.238281 106.847656 42.992188 105.921875 43.800781 C 106.652344 44.792969 107.503906 45.691406 108.28125 46.648438 C 107.128906 47.203125 106.039062 47.886719 104.90625 48.480469 C 105.503906 49.5 106.085938 50.527344 106.660156 51.558594 C 105.441406 52.054688 104.191406 52.464844 102.949219 52.90625 C 103.296875 54.003906 103.699219 55.082031 104.050781 56.179688 C 102.722656 56.46875 101.386719 56.714844 100.050781 56.972656 C 100.222656 58.082031 100.34375 59.199219 100.445312 60.320312 C 99.074219 60.359375 97.71875 60.503906 96.351562 60.550781 C 96.21875 61.664062 96.199219 62.792969 96.011719 63.90625 C 94.65625 63.6875 93.28125 63.660156 91.921875 63.472656 C 91.59375 64.550781 91.253906 65.621094 90.90625 66.691406 C 89.5625 66.4375 88.25 66.027344 86.90625 65.765625 C 86.324219 66.757812 85.738281 67.746094 85.214844 68.769531 C 83.945312 68.296875 82.730469 67.675781 81.433594 67.292969 C 80.621094 68.136719 79.875 69.046875 79.125 69.949219 C 77.953125 69.335938 76.894531 68.507812 75.679688 67.988281 C 74.644531 68.660156 73.777344 69.550781 72.753906 70.226562 C 71.800781 69.398438 70.832031 68.585938 69.867188 67.765625 C 68.71875 68.316406 67.65625 69.164062 66.457031 69.523438 C 65.613281 68.652344 64.894531 67.671875 64.074219 66.78125 C 62.859375 67.257812 61.617188 67.671875 60.386719 68.117188 C 59.761719 67.09375 59.242188 66.011719 58.558594 65.027344 C 57.25 65.269531 55.945312 65.542969 54.628906 65.765625 C 54.273438 64.671875 53.886719 63.589844 53.546875 62.488281 C 52.179688 62.523438 50.8125 62.601562 49.449219 62.730469 C 49.28125 61.609375 49.1875 60.472656 49.03125 59.347656 C 47.667969 59.097656 46.277344 59.117188 44.914062 58.882812 C 45.019531 57.765625 45.207031 56.660156 45.195312 55.53125 C 43.929688 55.234375 42.65625 54.960938 41.402344 54.609375 L 41.316406 54.46875 C 41.570312 53.417969 41.957031 52.402344 42.292969 51.378906 C 41.046875 50.8125 39.742188 50.382812 38.515625 49.773438 C 39.0625 48.792969 39.785156 47.867188 40.136719 46.800781 C 39.09375 46.058594 37.933594 45.496094 36.863281 44.796875 C 37.597656 43.84375 38.445312 42.992188 39.179688 42.042969 C 38.152344 41.269531 37.1875 40.417969 36.203125 39.589844 C 37.207031 38.886719 38.160156 38.117188 39.074219 37.304688 C 38.3125 36.339844 37.503906 35.410156 36.71875 34.46875 C 37.867188 33.90625 38.953125 33.226562 40.085938 32.636719 C 39.5 31.613281 38.90625 30.589844 38.339844 29.550781 C 39.558594 29.058594 40.808594 28.648438 42.050781 28.214844 C 41.710938 27.109375 41.265625 26.042969 40.960938 24.925781 C 42.289062 24.648438 43.621094 24.394531 44.953125 24.140625 C 44.765625 23.03125 44.660156 21.914062 44.554688 20.796875 C 45.917969 20.757812 47.273438 20.601562 48.632812 20.578125 C 48.789062 19.46875 48.8125 18.351562 48.964844 17.246094 C 50.335938 17.386719 51.710938 17.46875 53.078125 17.644531 C 53.394531 16.5625 53.757812 15.492188 54.101562 14.421875 C 55.4375 14.699219 56.753906 15.066406 58.085938 15.363281 C 58.675781 14.371094 59.257812 13.371094 59.796875 12.351562 C 61.0625 12.816406 62.273438 13.449219 63.574219 13.824219 C 64.371094 12.972656 65.125 12.078125 65.863281 11.175781 C 67.050781 11.753906 68.144531 12.496094 69.296875 13.136719 M 82.511719 19.277344 C 81.863281 19.59375 81.765625 20.429688 81.753906 21.066406 C 81.839844 22.976562 82.636719 24.773438 83.605469 26.390625 C 84.445312 27.765625 85.46875 29.078125 86.84375 29.949219 C 87.425781 30.316406 88.222656 30.578125 88.851562 30.164062 C 89.675781 29.28125 89.425781 27.960938 89.175781 26.894531 C 88.53125 24.464844 87.21875 22.199219 85.421875 20.441406 C 84.640625 19.75 83.621094 18.902344 82.511719 19.277344 M 91.183594 23.828125 C 90.558594 24.066406 90.296875 24.773438 90.496094 25.390625 C 90.863281 26.679688 91.839844 27.683594 92.808594 28.566406 C 94.484375 29.984375 96.441406 31.152344 98.597656 31.636719 C 99.449219 31.792969 100.566406 31.921875 101.167969 31.148438 C 101.578125 30.257812 101.054688 29.289062 100.535156 28.566406 C 99.175781 26.746094 97.257812 25.40625 95.207031 24.472656 C 93.957031 23.957031 92.539062 23.414062 91.183594 23.828125 M 75.460938 26.972656 C 73.980469 27.246094 72.488281 27.671875 71.210938 28.5 C 70.621094 28.914062 69.96875 29.472656 69.984375 30.265625 C 70.179688 31.320312 71.359375 31.664062 72.261719 31.867188 C 74.839844 32.324219 77.554688 31.984375 79.976562 30.996094 C 80.917969 30.589844 81.921875 30.03125 82.371094 29.058594 C 82.707031 28.09375 81.71875 27.4375 80.9375 27.179688 C 79.175781 26.601562 77.269531 26.707031 75.460938 26.972656 M 93.105469 31.207031 C 92.472656 33.007812 91.617188 34.820312 90.15625 36.097656 C 88.90625 37.277344 87.023438 37.703125 85.378906 37.21875 C 83.714844 36.792969 82.480469 35.457031 81.636719 34.015625 C 80.765625 34.984375 79.578125 35.578125 78.296875 35.746094 C 79.367188 37.992188 81.335938 39.703125 83.605469 40.664062 C 81.175781 41.347656 79.253906 43.304688 78.382812 45.648438 L 78.332031 45.652344 C 78.089844 46.558594 77.707031 47.472656 77.777344 48.429688 C 77.964844 49.980469 80.210938 50.449219 81.171875 49.339844 C 81.585938 48.746094 81.605469 47.984375 81.84375 47.316406 C 82.109375 46.332031 82.757812 45.527344 83.46875 44.824219 C 83.910156 44.667969 84.324219 44.421875 84.769531 44.277344 C 85.722656 44.132812 86.742188 44.210938 87.597656 44.691406 C 88.878906 45.34375 89.523438 46.804688 89.660156 48.179688 C 89.765625 48.96875 89.625 49.886719 90.214844 50.527344 C 90.8125 51.0625 91.71875 51.222656 92.480469 50.972656 C 93.097656 50.726562 93.492188 50.066406 93.523438 49.410156 C 93.605469 46.898438 92.757812 44.347656 91.0625 42.476562 L 91.011719 42.5 C 90.308594 41.878906 89.523438 41.355469 88.652344 41.011719 C 92.53125 40.125 95.34375 36.707031 96.433594 33 C 95.226562 32.605469 94.089844 32.019531 93.105469 31.207031 M 51.941406 31.714844 C 50.804688 32.027344 49.859375 32.910156 49.414062 33.996094 C 48.75 35.570312 48.757812 37.308594 48.570312 38.980469 C 48.492188 40.117188 48.308594 41.246094 48.277344 42.386719 C 48.148438 43.503906 47.929688 44.636719 48.023438 45.761719 C 48.3125 47.117188 50.183594 47.410156 51.183594 46.695312 C 51.988281 46.097656 51.847656 44.992188 51.960938 44.117188 C 52.136719 42.074219 52.339844 40.03125 52.527344 37.992188 C 52.621094 37.09375 52.84375 36.125 53.527344 35.488281 C 54.722656 34.539062 56.816406 34.914062 57.476562 36.335938 C 57.816406 37.007812 57.710938 37.785156 57.660156 38.507812 C 57.417969 40.777344 57.265625 43.054688 56.996094 45.320312 C 56.90625 46.058594 56.851562 46.953125 57.496094 47.46875 C 58.308594 48.074219 59.625 48.175781 60.351562 47.378906 C 60.828125 46.875 60.824219 46.132812 60.847656 45.480469 C 61.109375 43.238281 61.261719 40.976562 61.507812 38.726562 C 61.609375 37.890625 61.882812 37.042969 62.464844 36.414062 C 63.566406 35.328125 65.742188 35.671875 66.378906 37.109375 C 66.8125 38.085938 66.628906 39.179688 66.539062 40.207031 C 66.328125 42.265625 66.179688 44.332031 65.9375 46.386719 C 65.933594 46.855469 65.839844 47.371094 66.082031 47.804688 C 66.605469 48.792969 68.023438 48.992188 68.949219 48.496094 C 69.675781 48.09375 69.796875 47.199219 69.835938 46.449219 C 70.042969 43.804688 70.328125 41.164062 70.554688 38.519531 C 70.632812 36.992188 70.394531 35.332031 69.398438 34.109375 C 68.574219 33.085938 67.273438 32.570312 65.992188 32.460938 C 64.738281 32.378906 63.472656 32.109375 62.21875 32.339844 C 61.371094 32.5 60.644531 32.992188 59.960938 33.492188 C 59.277344 32.640625 58.402344 31.820312 57.269531 31.695312 C 55.503906 31.523438 53.675781 31.179688 51.941406 31.714844 M 86.113281 33.042969 C 85.011719 33.523438 84.773438 35.175781 85.691406 35.945312 C 86.640625 36.894531 88.515625 36.253906 88.617188 34.890625 C 88.886719 33.554688 87.308594 32.398438 86.113281 33.042969 M 73.632812 34.75 C 73.265625 38.410156 72.921875 42.074219 72.605469 45.742188 C 72.503906 46.542969 72.355469 47.363281 72.488281 48.171875 C 72.929688 49.777344 75.703125 49.894531 76.175781 48.246094 C 76.449219 47.074219 76.347656 45.839844 76.6875 44.675781 C 76.648438 44.679688 76.570312 44.679688 76.53125 44.679688 L 76.613281 44.679688 C 76.761719 41.882812 77.109375 39.097656 77.351562 36.3125 C 77.390625 35.578125 77.625 34.730469 77.117188 34.097656 C 76.214844 33.015625 73.859375 33.144531 73.632812 34.75 M 49.027344 48.378906 C 48.550781 48.589844 48.515625 49.175781 48.371094 49.609375 C 47.953125 51.335938 47.417969 53.03125 47.046875 54.765625 C 46.796875 55.617188 48.335938 56.023438 48.535156 55.195312 C 48.972656 53.828125 49.191406 52.402344 49.609375 51.027344 C 49.878906 52.425781 50.105469 53.835938 50.40625 55.230469 C 50.417969 56.027344 51.734375 56.242188 52.027344 55.527344 C 52.648438 54.152344 53.097656 52.710938 53.71875 51.335938 C 53.71875 52.542969 53.808594 53.746094 53.859375 54.949219 C 53.898438 55.359375 53.863281 55.832031 54.171875 56.15625 C 54.589844 56.355469 55.164062 56.382812 55.40625 55.90625 C 55.558594 55.285156 55.429688 54.640625 55.402344 54.015625 C 55.246094 52.476562 55.234375 50.925781 55.03125 49.398438 C 54.816406 48.507812 53.414062 48.417969 53.054688 49.246094 C 52.46875 50.558594 51.988281 51.917969 51.410156 53.234375 C 51.203125 51.867188 50.90625 50.515625 50.640625 49.164062 C 50.550781 48.4375 49.648438 48.015625 49.027344 48.378906 M 56.820312 50.089844 C 56.652344 51.878906 56.472656 53.664062 56.324219 55.457031 C 56.246094 55.824219 56.382812 56.296875 56.800781 56.375 C 57.902344 56.558594 59.03125 56.6875 60.144531 56.628906 C 60.65625 56.359375 60.652344 55.507812 60.109375 55.273438 C 59.421875 55.097656 58.6875 55.1875 58.003906 54.980469 C 58.007812 54.507812 58.058594 54.035156 58.097656 53.566406 C 58.789062 53.601562 59.484375 53.730469 60.183594 53.660156 C 60.730469 53.4375 60.757812 52.496094 60.183594 52.304688 C 59.550781 52.136719 58.890625 52.136719 58.242188 52.058594 C 58.289062 51.589844 58.339844 51.121094 58.382812 50.652344 C 59.113281 50.703125 59.847656 50.835938 60.582031 50.757812 C 61.140625 50.496094 61.128906 49.472656 60.464844 49.378906 C 59.484375 49.214844 58.484375 49.117188 57.488281 49.101562 C 56.996094 49.105469 56.835938 49.691406 56.820312 50.089844 M 62.457031 50.464844 C 60.765625 51.972656 60.695312 55.0625 62.496094 56.515625 C 64.003906 57.769531 66.691406 57.480469 67.605469 55.636719 C 67.953125 54.898438 68.390625 53.851562 67.796875 53.136719 C 66.992188 52.855469 66.113281 52.863281 65.273438 52.824219 C 64.785156 52.839844 64.625 53.328125 64.671875 53.75 C 64.921875 54.476562 65.816406 54.277344 66.414062 54.410156 C 66.1875 55.621094 64.734375 56.167969 63.722656 55.519531 C 62.535156 54.675781 62.597656 52.789062 63.464844 51.734375 C 64.125 50.925781 65.410156 50.984375 66.167969 51.617188 C 66.5625 51.925781 67.289062 52.378906 67.652344 51.804688 C 68.042969 51.308594 67.621094 50.691406 67.195312 50.386719 C 65.816406 49.4375 63.757812 49.304688 62.457031 50.464844 M 70.464844 51.71875 C 69.726562 53.386719 68.839844 54.984375 68.140625 56.664062 C 67.890625 57.390625 68.902344 57.914062 69.4375 57.460938 C 69.707031 57.085938 69.867188 56.644531 70.058594 56.226562 C 70.980469 56.304688 71.910156 56.375 72.832031 56.511719 C 73.015625 57.066406 72.921875 58.0625 73.734375 58.058594 C 74.265625 58.175781 74.714844 57.664062 74.53125 57.148438 C 74.082031 55.195312 73.542969 53.265625 73.054688 51.320312 C 72.9375 50.640625 72.234375 50.078125 71.546875 50.359375 C 70.941406 50.546875 70.726562 51.207031 70.464844 51.71875 M 75.722656 51.578125 C 75.515625 53.335938 75.40625 55.105469 75.207031 56.867188 C 75.191406 57.28125 75.058594 57.796875 75.417969 58.105469 C 75.765625 58.421875 76.242188 58.226562 76.632812 58.125 C 76.78125 57.390625 76.863281 56.644531 76.910156 55.894531 C 77.886719 55.960938 78.992188 56.167969 79.84375 55.539062 C 81.085938 54.703125 81.191406 52.699219 80.085938 51.710938 C 79.136719 50.867188 77.769531 51.007812 76.59375 50.871094 C 76.152344 50.78125 75.710938 51.117188 75.722656 51.578125 M 83.253906 51.722656 C 80.730469 52.71875 80.195312 56.550781 82.210938 58.300781 C 83.59375 59.519531 85.925781 59.386719 87.140625 57.992188 C 88.246094 56.679688 88.429688 54.648438 87.554688 53.167969 C 86.730469 51.703125 84.785156 51.140625 83.253906 51.722656 M 89.121094 52.773438 C 88.914062 54.789062 88.6875 56.8125 88.578125 58.832031 C 88.621094 58.941406 88.703125 59.152344 88.742188 59.257812 C 89.703125 59.683594 90.8125 59.570312 91.839844 59.703125 C 92.648438 59.90625 93.066406 58.578125 92.285156 58.308594 C 91.613281 58.144531 90.917969 58.144531 90.234375 58.085938 C 90.34375 56.472656 90.539062 54.871094 90.671875 53.257812 C 90.671875 52.910156 90.78125 52.460938 90.445312 52.226562 C 89.976562 51.832031 89.101562 52.097656 89.121094 52.773438 Z M 89.121094 52.773438 "/>
    <path style=" stroke:none;fill-rule:nonzero;fill:rgb(84.705882%,19.607843%,19.607843%);fill-opacity:1;" d="M 70.683594 54.777344 C 71.03125 53.847656 71.4375 52.945312 71.851562 52.042969 C 72.042969 53.015625 72.265625 53.984375 72.5 54.953125 C 71.894531 54.894531 71.285156 54.839844 70.683594 54.777344 Z M 70.683594 54.777344 "/>
    <path style=" stroke:none;fill-rule:nonzero;fill:rgb(84.705882%,19.607843%,19.607843%);fill-opacity:1;" d="M 77.238281 52.34375 C 77.726562 52.40625 78.238281 52.394531 78.707031 52.589844 C 79.4375 53.007812 79.277344 54.195312 78.527344 54.507812 C 78.039062 54.570312 77.546875 54.5 77.058594 54.472656 C 77.117188 53.761719 77.179688 53.054688 77.238281 52.34375 Z M 77.238281 52.34375 "/>
    <path style=" stroke:none;fill-rule:nonzero;fill:rgb(84.705882%,19.607843%,19.607843%);fill-opacity:1;" d="M 83.925781 53.117188 C 84.773438 52.734375 85.855469 53.203125 86.214844 54.050781 C 86.667969 55.039062 86.472656 56.296875 85.753906 57.113281 C 84.976562 57.996094 83.328125 57.730469 82.886719 56.632812 C 82.355469 55.449219 82.675781 53.703125 83.925781 53.117188 Z M 83.925781 53.117188 "/>
    <path style=" stroke:none;fill-rule:nonzero;fill:rgb(19.607843%,17.647059%,18.039216%);fill-opacity:1;" d="M 82.511719 19.277344 C 83.621094 18.902344 84.640625 19.75 85.421875 20.441406 C 87.21875 22.199219 88.53125 24.464844 89.175781 26.894531 C 89.425781 27.960938 89.675781 29.28125 88.851562 30.164062 C 88.222656 30.578125 87.425781 30.316406 86.84375 29.949219 C 85.46875 29.078125 84.445312 27.765625 83.605469 26.390625 C 82.636719 24.773438 81.839844 22.976562 81.753906 21.066406 C 81.765625 20.429688 81.863281 19.59375 82.511719 19.277344 M 84.511719 22.636719 C 84.304688 23.640625 84.71875 24.628906 85.277344 25.441406 C 85.683594 26.046875 86.289062 26.710938 87.105469 26.492188 C 87.199219 25.710938 87.070312 24.914062 86.65625 24.238281 C 86.207031 23.449219 85.554688 22.464844 84.511719 22.636719 Z M 84.511719 22.636719 "/>
    <path style=" stroke:none;fill-rule:nonzero;fill:rgb(19.607843%,17.647059%,18.039216%);fill-opacity:1;" d="M 91.183594 23.828125 C 92.539062 23.414062 93.957031 23.957031 95.207031 24.472656 C 97.257812 25.40625 99.175781 26.746094 100.535156 28.566406 C 101.054688 29.289062 101.578125 30.257812 101.167969 31.148438 C 100.566406 31.921875 99.449219 31.792969 98.597656 31.636719 C 96.441406 31.152344 94.484375 29.984375 92.808594 28.566406 C 91.839844 27.683594 90.863281 26.679688 90.496094 25.390625 C 90.296875 24.773438 90.558594 24.066406 91.183594 23.828125 M 94.144531 26.238281 C 93.933594 26.492188 94.167969 26.832031 94.285156 27.070312 C 95.003906 28.058594 96.148438 28.765625 97.367188 28.886719 C 98 28.886719 97.976562 28.160156 97.683594 27.789062 C 97.078125 26.972656 96.1875 26.367188 95.214844 26.078125 C 94.886719 26.046875 94.320312 25.859375 94.144531 26.238281 Z M 94.144531 26.238281 "/>
    <path style=" stroke:none;fill-rule:nonzero;fill:rgb(19.607843%,17.647059%,18.039216%);fill-opacity:1;" d="M 75.460938 26.972656 C 77.269531 26.707031 79.175781 26.601562 80.9375 27.179688 C 81.71875 27.4375 82.707031 28.09375 82.371094 29.058594 C 81.921875 30.03125 80.917969 30.589844 79.976562 30.996094 C 77.554688 31.984375 74.839844 32.324219 72.261719 31.867188 C 71.359375 31.664062 70.179688 31.320312 69.984375 30.265625 C 69.96875 29.472656 70.621094 28.914062 71.210938 28.5 C 72.488281 27.671875 73.980469 27.246094 75.460938 26.972656 M 75.011719 28.46875 C 74.503906 28.65625 73.667969 29.023438 74.019531 29.703125 C 75.050781 30.378906 76.40625 30.101562 77.484375 29.683594 C 77.910156 29.523438 78.605469 29.015625 78.117188 28.53125 C 77.199219 27.960938 76 28.183594 75.011719 28.46875 Z M 75.011719 28.46875 "/>
    <path style=" stroke:none;fill-rule:nonzero;fill:rgb(81.960784%,83.137255%,85.490196%);fill-opacity:1;" d="M 48.023438 45.761719 C 47.929688 44.636719 48.148438 43.503906 48.277344 42.386719 C 48.300781 42.539062 48.34375 42.839844 48.367188 42.992188 C 49.554688 43.402344 50.75 43.789062 51.960938 44.117188 C 51.847656 44.992188 51.988281 46.097656 51.183594 46.695312 C 50.183594 47.410156 48.3125 47.117188 48.023438 45.761719 Z M 48.023438 45.761719 "/>
    <path style=" stroke:none;fill-rule:nonzero;fill:rgb(81.960784%,83.137255%,85.490196%);fill-opacity:1;" d="M 91.011719 42.5 L 91.0625 42.476562 C 92.757812 44.347656 93.605469 46.898438 93.523438 49.410156 C 93.492188 50.066406 93.097656 50.726562 92.480469 50.972656 C 91.71875 51.222656 90.8125 51.0625 90.214844 50.527344 C 89.625 49.886719 89.765625 48.96875 89.660156 48.179688 C 89.523438 46.804688 88.878906 45.34375 87.597656 44.691406 C 86.742188 44.210938 85.722656 44.132812 84.769531 44.277344 C 86.914062 43.972656 89.050781 43.441406 91.011719 42.5 Z M 91.011719 42.5 "/>
    <path style=" stroke:none;fill-rule:nonzero;fill:rgb(81.960784%,83.137255%,85.490196%);fill-opacity:1;" d="M 76.253906 44.691406 C 76.324219 44.6875 76.460938 44.683594 76.53125 44.679688 C 76.570312 44.679688 76.648438 44.679688 76.6875 44.675781 C 76.347656 45.839844 76.449219 47.074219 76.175781 48.246094 C 75.703125 49.894531 72.929688 49.777344 72.488281 48.171875 C 72.355469 47.363281 72.503906 46.542969 72.605469 45.742188 C 72.632812 45.863281 72.6875 46.113281 72.71875 46.238281 C 73.953125 46.253906 75.183594 46.113281 76.40625 45.972656 C 76.359375 45.542969 76.3125 45.117188 76.253906 44.691406 Z M 76.253906 44.691406 "/>
    <path style=" stroke:none;fill-rule:nonzero;fill:rgb(81.960784%,83.137255%,85.490196%);fill-opacity:1;" d="M 78.382812 45.648438 C 80.101562 45.542969 81.773438 45.117188 83.46875 44.824219 C 82.757812 45.527344 82.109375 46.332031 81.84375 47.316406 C 81.605469 47.984375 81.585938 48.746094 81.171875 49.339844 C 80.210938 50.449219 77.964844 49.980469 77.777344 48.429688 C 77.707031 47.472656 78.089844 46.558594 78.332031 45.652344 Z M 78.382812 45.648438 "/>
    <path style=" stroke:none;fill-rule:nonzero;fill:rgb(81.960784%,83.137255%,85.490196%);fill-opacity:1;" d="M 56.996094 45.320312 C 58.207031 45.542969 59.421875 45.730469 60.640625 45.90625 C 60.691406 45.800781 60.796875 45.589844 60.847656 45.480469 C 60.824219 46.132812 60.828125 46.875 60.351562 47.378906 C 59.625 48.175781 58.308594 48.074219 57.496094 47.46875 C 56.851562 46.953125 56.90625 46.058594 56.996094 45.320312 Z M 56.996094 45.320312 "/>
    <path style=" stroke:none;fill-rule:nonzero;fill:rgb(81.960784%,83.137255%,85.490196%);fill-opacity:1;" d="M 65.9375 46.386719 C 67.238281 46.378906 68.535156 46.417969 69.835938 46.449219 C 69.796875 47.199219 69.675781 48.09375 68.949219 48.496094 C 68.023438 48.992188 66.605469 48.792969 66.082031 47.804688 C 65.839844 47.371094 65.933594 46.855469 65.9375 46.386719 Z M 65.9375 46.386719 "/>
    <path style=" stroke:none;fill-rule:nonzero;fill:rgb(81.960784%,83.137255%,85.490196%);fill-opacity:1;" d="M 49.027344 48.378906 C 49.648438 48.015625 50.550781 48.4375 50.640625 49.164062 C 50.90625 50.515625 51.203125 51.867188 51.410156 53.234375 C 51.988281 51.917969 52.46875 50.558594 53.054688 49.246094 C 53.414062 48.417969 54.816406 48.507812 55.03125 49.398438 C 55.234375 50.925781 55.246094 52.476562 55.402344 54.015625 C 55.429688 54.640625 55.558594 55.285156 55.40625 55.90625 C 55.164062 56.382812 54.589844 56.355469 54.171875 56.15625 C 53.863281 55.832031 53.898438 55.359375 53.859375 54.949219 C 53.808594 53.746094 53.71875 52.542969 53.71875 51.335938 C 53.097656 52.710938 52.648438 54.152344 52.027344 55.527344 C 51.734375 56.242188 50.417969 56.027344 50.40625 55.230469 C 50.105469 53.835938 49.878906 52.425781 49.609375 51.027344 C 49.191406 52.402344 48.972656 53.828125 48.535156 55.195312 C 48.335938 56.023438 46.796875 55.617188 47.046875 54.765625 C 47.417969 53.03125 47.953125 51.335938 48.371094 49.609375 C 48.515625 49.175781 48.550781 48.589844 49.027344 48.378906 Z M 49.027344 48.378906 "/>
    <path style=" stroke:none;fill-rule:nonzero;fill:rgb(81.960784%,83.137255%,85.490196%);fill-opacity:1;" d="M 56.820312 50.089844 C 56.835938 49.691406 56.996094 49.105469 57.488281 49.101562 C 58.484375 49.117188 59.484375 49.214844 60.464844 49.378906 C 61.128906 49.472656 61.140625 50.496094 60.582031 50.757812 C 59.847656 50.835938 59.113281 50.703125 58.382812 50.652344 C 58.339844 51.121094 58.289062 51.589844 58.242188 52.058594 C 58.890625 52.136719 59.550781 52.136719 60.183594 52.304688 C 60.757812 52.496094 60.730469 53.4375 60.183594 53.660156 C 59.484375 53.730469 58.789062 53.601562 58.097656 53.566406 C 58.058594 54.035156 58.007812 54.507812 58.003906 54.980469 C 58.6875 55.1875 59.421875 55.097656 60.109375 55.273438 C 60.652344 55.507812 60.65625 56.359375 60.144531 56.628906 C 59.03125 56.6875 57.902344 56.558594 56.800781 56.375 C 56.382812 56.296875 56.246094 55.824219 56.324219 55.457031 C 56.472656 53.664062 56.652344 51.878906 56.820312 50.089844 Z M 56.820312 50.089844 "/>
    <path style=" stroke:none;fill-rule:nonzero;fill:rgb(81.960784%,83.137255%,85.490196%);fill-opacity:1;" d="M 62.457031 50.464844 C 63.757812 49.304688 65.816406 49.4375 67.195312 50.386719 C 67.621094 50.691406 68.042969 51.308594 67.652344 51.804688 C 67.289062 52.378906 66.5625 51.925781 66.167969 51.617188 C 65.410156 50.984375 64.125 50.925781 63.464844 51.734375 C 62.597656 52.789062 62.535156 54.675781 63.722656 55.519531 C 64.734375 56.167969 66.1875 55.621094 66.414062 54.410156 C 65.816406 54.277344 64.921875 54.476562 64.671875 53.75 C 64.625 53.328125 64.785156 52.839844 65.273438 52.824219 C 66.113281 52.863281 66.992188 52.855469 67.796875 53.136719 C 68.390625 53.851562 67.953125 54.898438 67.605469 55.636719 C 66.691406 57.480469 64.003906 57.769531 62.496094 56.515625 C 60.695312 55.0625 60.765625 51.972656 62.457031 50.464844 Z M 62.457031 50.464844 "/>
    <path style=" stroke:none;fill-rule:nonzero;fill:rgb(81.960784%,83.137255%,85.490196%);fill-opacity:1;" d="M 70.464844 51.71875 C 70.726562 51.207031 70.941406 50.546875 71.546875 50.359375 C 72.234375 50.078125 72.9375 50.640625 73.054688 51.320312 C 73.542969 53.265625 74.082031 55.195312 74.53125 57.148438 C 74.714844 57.664062 74.265625 58.175781 73.734375 58.058594 C 72.921875 58.0625 73.015625 57.066406 72.832031 56.511719 C 71.910156 56.375 70.980469 56.304688 70.058594 56.226562 C 69.867188 56.644531 69.707031 57.085938 69.4375 57.460938 C 68.902344 57.914062 67.890625 57.390625 68.140625 56.664062 C 68.839844 54.984375 69.726562 53.386719 70.464844 51.71875 M 70.683594 54.777344 C 71.285156 54.839844 71.894531 54.894531 72.5 54.953125 C 72.265625 53.984375 72.042969 53.015625 71.851562 52.042969 C 71.4375 52.945312 71.03125 53.847656 70.683594 54.777344 Z M 70.683594 54.777344 "/>
    <path style=" stroke:none;fill-rule:nonzero;fill:rgb(81.960784%,83.137255%,85.490196%);fill-opacity:1;" d="M 75.722656 51.578125 C 75.710938 51.117188 76.152344 50.78125 76.59375 50.871094 C 77.769531 51.007812 79.136719 50.867188 80.085938 51.710938 C 81.191406 52.699219 81.085938 54.703125 79.84375 55.539062 C 78.992188 56.167969 77.886719 55.960938 76.910156 55.894531 C 76.863281 56.644531 76.78125 57.390625 76.632812 58.125 C 76.242188 58.226562 75.765625 58.421875 75.417969 58.105469 C 75.058594 57.796875 75.191406 57.28125 75.207031 56.867188 C 75.40625 55.105469 75.515625 53.335938 75.722656 51.578125 M 77.238281 52.34375 C 77.179688 53.054688 77.117188 53.761719 77.058594 54.472656 C 77.546875 54.5 78.039062 54.570312 78.527344 54.507812 C 79.277344 54.195312 79.4375 53.007812 78.707031 52.589844 C 78.238281 52.394531 77.726562 52.40625 77.238281 52.34375 Z M 77.238281 52.34375 "/>
    <path style=" stroke:none;fill-rule:nonzero;fill:rgb(81.960784%,83.137255%,85.490196%);fill-opacity:1;" d="M 83.253906 51.722656 C 84.785156 51.140625 86.730469 51.703125 87.554688 53.167969 C 88.429688 54.648438 88.246094 56.679688 87.140625 57.992188 C 85.925781 59.386719 83.59375 59.519531 82.210938 58.300781 C 80.195312 56.550781 80.730469 52.71875 83.253906 51.722656 M 83.925781 53.117188 C 82.675781 53.703125 82.355469 55.449219 82.886719 56.632812 C 83.328125 57.730469 84.976562 57.996094 85.753906 57.113281 C 86.472656 56.296875 86.667969 55.039062 86.214844 54.050781 C 85.855469 53.203125 84.773438 52.734375 83.925781 53.117188 Z M 83.925781 53.117188 "/>
    <path style=" stroke:none;fill-rule:nonzero;fill:rgb(81.960784%,83.137255%,85.490196%);fill-opacity:1;" d="M 89.121094 52.773438 C 89.101562 52.097656 89.976562 51.832031 90.445312 52.226562 C 90.78125 52.460938 90.671875 52.910156 90.671875 53.257812 C 90.539062 54.871094 90.34375 56.472656 90.234375 58.085938 C 90.917969 58.144531 91.613281 58.144531 92.285156 58.308594 C 93.066406 58.578125 92.648438 59.90625 91.839844 59.703125 C 90.8125 59.570312 89.703125 59.683594 88.742188 59.257812 C 88.703125 59.152344 88.621094 58.941406 88.578125 58.832031 C 88.6875 56.8125 88.914062 54.789062 89.121094 52.773438 Z M 89.121094 52.773438 "/>
  </g>
</svg>