<?xml version="1.0" encoding="UTF-8" standalone="yes"?>
<svg xmlns="http://www.w3.org/2000/svg" xmlns:xlink="http://www.w3.org/1999/xlink" width="144px" height="106.66666666666666px" viewBox="0 0 108 80" version="1.1">
  <g id="surface1">
    <path style=" stroke:none;fill-rule:nonzero;fill:rgb(19.607843%,32.941176%,53.72549%);fill-opacity:1;" d="M 0.320312 0 L 84.40625 0 L 69.148438 8.15625 L 76.40625 25.632812 C 76.40625 25.632812 65.507812 8.328125 45.78125 18.980469 C 33.085938 25.847656 32.011719 40.863281 34.367188 48.042969 L 14.195312 58.660156 L 18.570312 69.058594 L 24.96875 65.953125 C 24.96875 65.953125 25.929688 70.140625 21.453125 72.175781 C 16.964844 74.210938 12.59375 72.175781 10.246094 66.597656 C 7.898438 61.019531 8.324219 54.910156 12.273438 52.65625 C 17.003906 49.957031 20.058594 52.976562 20.058594 52.976562 L 30.738281 41.070312 C 30.738281 41.070312 25.308594 36.070312 15.796875 36.46875 C 5.550781 36.894531 0 44.507812 0 44.507812 Z M 0.320312 0 "/>
    <path style=" stroke:none;fill-rule:nonzero;fill:rgb(19.607843%,32.941176%,53.72549%);fill-opacity:1;" d="M 56.449219 31.957031 C 62.097656 31.457031 65.734375 35.605469 65.839844 40.324219 C 65.953125 45.039062 63.171875 49.546875 57.835938 49.972656 C 52.5 50.402344 49.75 45.132812 49.410156 42.152344 C 48.984375 38.390625 51.652344 32.386719 56.449219 31.957031 "/>
    <path style=" stroke:none;fill-rule:nonzero;fill:rgb(19.607843%,32.941176%,53.72549%);fill-opacity:1;" d="M 89.109375 14.484375 L 96.472656 31.855469 C 96.472656 31.855469 105.324219 27.460938 102.769531 20.269531 C 100.203125 13.082031 98.074219 13.195312 95.933594 12.550781 C 93.804688 11.90625 89.109375 14.484375 89.109375 14.484375 "/>
    <path style=" stroke:none;fill-rule:nonzero;fill:rgb(19.607843%,32.941176%,53.72549%);fill-opacity:1;" d="M 80.46875 35.285156 L 87.714844 52.871094 C 87.714844 52.871094 105.011719 44.292969 108 41.507812 L 107.886719 79.894531 L 34.046875 80 C 34.046875 80 41.304688 73.890625 40.664062 60.375 C 45.460938 66.597656 57.855469 71.496094 69.363281 63.699219 C 85.046875 53.082031 80.46875 35.285156 80.46875 35.285156 "/>
  </g>
</svg>