<?xml version="1.0" encoding="UTF-8" standalone="no"?>
<!-- Created with Inkscape (http://www.inkscape.org/) -->

<svg
   xmlns:dc="http://purl.org/dc/elements/1.1/"
   xmlns:cc="http://creativecommons.org/ns#"
   xmlns:rdf="http://www.w3.org/1999/02/22-rdf-syntax-ns#"
   xmlns:svg="http://www.w3.org/2000/svg"
   xmlns="http://www.w3.org/2000/svg"
   version="1.1"
   width="952.70001"
   height="231"
   viewBox="0 0 952.70003 231.00001"
   id="Ebene_2"
   xml:space="preserve"><metadata
   id="metadata29"><rdf:RDF><cc:Work
       rdf:about=""><dc:format>image/svg+xml</dc:format><dc:type
         rdf:resource="http://purl.org/dc/dcmitype/StillImage" /><dc:title></dc:title></cc:Work></rdf:RDF></metadata><defs
   id="defs27">
	
	
	
	
	
	
	
	
	
	
</defs>

<g
   transform="matrix(0.84702512,0,0,1.0923628,51.292863,104.72408)"
   id="flowRoot3972"
   style="font-size:78px;font-style:normal;font-variant:normal;font-weight:bold;font-stretch:normal;line-height:125%;letter-spacing:0px;word-spacing:0px;fill:#000000;fill-opacity:1;stroke:none;font-family:Vrinda;-inkscape-font-specification:Vrinda Bold" /><g
   transform="matrix(1.0000013,0,0,1,-0.59375431,88.625009)"
   id="g4110"
   style="fill:#ba8d39;fill-opacity:1"><g
     id="g4096"
     style="fill:#ba8d39;fill-opacity:1"><path
       d="m 414.875,-85.15625 0,11 0,202.09375 0,11 11,0 115.625,0 11,0 0,-22 -11,0 -104.625,0 0,-191.09375 0,-11 -22,0 z"
       id="path3808-1"
       style="font-size:medium;font-style:normal;font-variant:normal;font-weight:normal;font-stretch:normal;text-indent:0;text-align:start;text-decoration:none;line-height:normal;letter-spacing:normal;word-spacing:normal;text-transform:none;direction:ltr;block-progression:tb;writing-mode:lr-tb;text-anchor:start;baseline-shift:baseline;color:#000000;fill:#ba8d39;fill-opacity:1;fill-rule:nonzero;stroke:none;stroke-width:22;marker:none;visibility:visible;display:inline;overflow:visible;enable-background:accumulate;font-family:Sans;-inkscape-font-specification:Sans" /><path
       d="m 577.09375,-85.15625 0,22 11,0 51.5,0 c 49.86354,0 89.99906,40.167714 89.99906,90.03125 0,49.86355 -40.13552,90.0625 -89.99906,90.0625 l -49.28125,0 0,-78.90625 0,-11 -22,0 0,11 0,89.90625 0,11 11,0 60.28125,0 c 61.75322,0 111.99906,-50.30927 111.99906,-112.0625 0,-61.753218 -50.24584,-112.03125 -111.99906,-112.03125 l -51.5,0 z"
       id="path3808-4"
       style="font-size:medium;font-style:normal;font-variant:normal;font-weight:normal;font-stretch:normal;text-indent:0;text-align:start;text-decoration:none;line-height:normal;letter-spacing:normal;word-spacing:normal;text-transform:none;direction:ltr;block-progression:tb;writing-mode:lr-tb;text-anchor:start;baseline-shift:baseline;color:#000000;fill:#ba8d39;fill-opacity:1;fill-rule:nonzero;stroke:none;stroke-width:22;marker:none;visibility:visible;display:inline;overflow:visible;enable-background:accumulate;font-family:Sans;-inkscape-font-specification:Sans" /><path
       d="m 112.65625,-85.15625 c -61.753215,0 -112.0625,50.278028 -112.0625,112.03125 0,61.753222 50.309283,112.0625 112.0625,112.0625 l 60.03125,0 11,0 0,-11 0,-101.03125 0,-11 -11,0 -13.5,0 -11,0 0,22 11,0 2.5,0 0,79.03125 -49.03125,0 c -49.863531,0 -90.0625,-40.198962 -90.0625,-90.0625 0,-49.863538 40.198967,-90.03125 90.0625,-90.03125 l 51.4375,0 11,0 0,-22 -11,0 -51.4375,0 z"
       id="path3863"
       style="font-size:medium;font-style:normal;font-variant:normal;font-weight:normal;font-stretch:normal;text-indent:0;text-align:start;text-decoration:none;line-height:normal;letter-spacing:normal;word-spacing:normal;text-transform:none;direction:ltr;block-progression:tb;writing-mode:lr-tb;text-anchor:start;baseline-shift:baseline;color:#000000;fill:#ba8d39;fill-opacity:1;fill-rule:nonzero;stroke:none;stroke-width:22.00000191;marker:none;visibility:visible;display:inline;overflow:visible;enable-background:accumulate;font-family:Sans;-inkscape-font-specification:Sans" /><g
       id="g4086"
       style="fill:#ba8d39;fill-opacity:1"><g
         id="g4083"
         style="fill:#ba8d39;fill-opacity:1"><path
           d="m 298.78125,-88.625 c -43.58853,0 -81.65855,24.186443 -101.40625,59.8125 l 26,0 c 17.05706,-22.964312 44.4228,-37.8125 75.40625,-37.8125 30.98462,0 58.37161,14.846713 75.4375,37.8125 l 26,0 C 380.46181,-64.438557 342.36979,-88.625 298.78125,-88.625 z m -101.375,171.21875 c 19.75357,35.6057 57.80163,59.78125 101.375,59.78125 43.57337,0 81.64344,-24.17555 101.40625,-59.78125 l -25.96875,0 c -17.06695,22.95417 -44.46206,37.78125 -75.4375,37.78125 -30.97442,0 -58.34815,-14.82836 -75.40625,-37.78125 l -25.96875,0 z"
           transform="translate(-3.5400581e-6,0)"
           id="path3891"
           style="font-size:medium;font-style:normal;font-variant:normal;font-weight:normal;font-stretch:normal;text-indent:0;text-align:start;text-decoration:none;line-height:normal;letter-spacing:normal;word-spacing:normal;text-transform:none;direction:ltr;block-progression:tb;writing-mode:lr-tb;text-anchor:start;baseline-shift:baseline;color:#000000;fill:#ba8d39;fill-opacity:1;stroke:none;stroke-width:22.00000763;marker:none;visibility:visible;display:inline;overflow:visible;enable-background:accumulate;font-family:Sans;-inkscape-font-specification:Sans" /></g><g
         id="g4076"
         style="fill:#ba8d39;fill-opacity:1"><path
           d="m 346.07359,46.731997 0,6.4 6.4,0 0,-6.4 z"
           id="rect3907"
           style="font-size:medium;font-style:normal;font-variant:normal;font-weight:normal;font-stretch:normal;text-indent:0;text-align:start;text-decoration:none;line-height:normal;letter-spacing:normal;word-spacing:normal;text-transform:none;direction:ltr;block-progression:tb;writing-mode:lr-tb;text-anchor:start;baseline-shift:baseline;color:#000000;fill:#ba8d39;fill-opacity:1;stroke:none;stroke-width:22;marker:none;visibility:visible;display:inline;overflow:visible;enable-background:accumulate;font-family:Sans;-inkscape-font-specification:Sans" /><path
           d="m 284.71875,-1.5625 c -4.06163,0 -7.94402,0.67919113 -11.15625,2.3125 -3.21223,1.6333088 -5.96875,4.7068428 -5.96875,8.625 l 0,41.5625 0,3.1875 6.40625,0 0,-3.1875 0,-17.3125 21.46875,0 0,17.3125 0,3.1875 6.40625,0 0,-3.1875 0,-41.5625 c 0,-3.9181572 -2.75652,-6.9916912 -5.96875,-8.625 -3.21223,-1.63330887 -7.12587,-2.3125 -11.1875,-2.3125 z m 0,6.40625 c 3.28033,0 6.36338,0.649828 8.28125,1.625 1.91787,0.975172 2.46875,1.7682992 2.46875,2.90625 l 0,17.84375 -21.46875,0 0,-17.84375 c 0,-1.1379508 0.55088,-1.931078 2.46875,-2.90625 1.91787,-0.975172 4.96967,-1.625 8.25,-1.625 z"
           transform="translate(-3.5400581e-6,0)"
           id="path3913"
           style="font-size:medium;font-style:normal;font-variant:normal;font-weight:normal;font-stretch:normal;text-indent:0;text-align:start;text-decoration:none;line-height:normal;letter-spacing:normal;word-spacing:normal;text-transform:none;direction:ltr;block-progression:tb;writing-mode:lr-tb;text-anchor:start;baseline-shift:baseline;color:#000000;fill:#ba8d39;fill-opacity:1;stroke:none;stroke-width:6.4000001;marker:none;visibility:visible;display:inline;overflow:visible;enable-background:accumulate;font-family:Sans;-inkscape-font-specification:Sans" /><path
           d="m 310.1875,-1.15625 0,6.375 14.3125,0 0,48.90625 6.40625,0 0,-48.90625 14.28125,0 0,-6.375 -35,0 z"
           transform="translate(-3.5400581e-6,0)"
           id="rect3915-4"
           style="color:#000000;fill:#ba8d39;fill-opacity:1;stroke:none;stroke-width:6.4000001;marker:none;visibility:visible;display:inline;overflow:visible;enable-background:accumulate" /><path
           d="m 359.00001,-1.1680054 0,7.0000002 8.09374,0 0,48.2930052 6.40625,0 0,-55.2930054 z"
           id="path3957"
           style="font-size:medium;font-style:normal;font-variant:normal;font-weight:normal;font-stretch:normal;text-indent:0;text-align:start;text-decoration:none;line-height:normal;letter-spacing:normal;word-spacing:normal;text-transform:none;direction:ltr;block-progression:tb;writing-mode:lr-tb;text-anchor:start;baseline-shift:baseline;color:#000000;fill:#ba8d39;fill-opacity:1;stroke:none;stroke-width:6.4000001;marker:none;visibility:visible;display:inline;overflow:visible;enable-background:accumulate;font-family:Sans;-inkscape-font-specification:Sans" /><path
           d="m 240,-1.5625 c -4.03168,0 -8.11088,0.91193156 -11.40625,3.3125 -3.29537,2.4005684 -5.53125,6.4604735 -5.53125,11.46875 0,5.952243 3.11472,10.16388 6.65625,12.3125 3.54153,2.14862 7.38221,2.74203 9.625,3.21875 8.59745,1.827444 11.25,6.157621 11.25,11.59375 0,3.705464 -3.09066,8.1875 -10.59375,8.1875 -4.94562,0 -7.50632,-1.082928 -8.78125,-2.25 -1.26356,-1.156665 -1.77228,-2.683303 -1.78125,-5.0625 l -6.375,0 c 0.0112,3.460111 0.96493,7.145979 3.84375,9.78125 2.89605,2.651042 7.22326,3.9375 13.09375,3.9375 10.29389,0 17,-7.140114 17,-14.59375 0,-8.067231 -5.66824,-15.5746 -16.34375,-17.84375 -2.45056,-0.520882 -5.46486,-1.12696 -7.625,-2.4375 -2.16014,-1.31054 -3.59375,-2.830232 -3.59375,-6.84375 0,-3.2912939 1.09417,-4.9924612 2.90625,-6.3125 1.81208,-1.3200388 4.61772,-2.0625 7.65625,-2.0625 3.086,0 5.36738,0.5776184 6.59375,1.4375 1.22637,0.8598816 1.90625,1.8902625 1.90625,4.65625 l 0,0.09375 6.40625,0 0,-0.09375 c 0,-4.2342549 -1.72188,-7.8706922 -4.625,-9.90625 C 247.37813,-1.0043078 243.79609,-1.5625 240,-1.5625 z"
           transform="translate(-3.5400581e-6,0)"
           id="path3983"
           style="font-size:medium;font-style:normal;font-variant:normal;font-weight:normal;font-stretch:normal;text-indent:0;text-align:start;text-decoration:none;line-height:normal;letter-spacing:normal;word-spacing:normal;text-transform:none;direction:ltr;block-progression:tb;writing-mode:lr-tb;text-anchor:start;baseline-shift:baseline;color:#000000;fill:#ba8d39;fill-opacity:1;stroke:none;stroke-width:6.4000001;marker:none;visibility:visible;display:inline;overflow:visible;enable-background:accumulate;font-family:Sans;-inkscape-font-specification:Sans" /></g></g></g><g
     id="g4072"
     style="fill:#ba8d39;fill-opacity:1"><path
       d="m 797,-29.368004 0,112.5 15,0 0,-48.1875 38,0 0,48.1875 15,0 0,-112.5 -15,0 0,49.3125 -38,0 0,-49.3125 z"
       transform="translate(-3.5400581e-6,0)"
       id="rect3997"
       style="color:#000000;fill:#ba8d39;fill-opacity:1;fill-rule:nonzero;stroke:none;stroke-width:6.4000001;marker:none;visibility:visible;display:inline;overflow:visible;enable-background:accumulate" /><path
       d="m 883.09375,-29.375 0,15 7.5,0 37.5,0 c 4.69524,0 10.21875,5.5235081 10.21875,10.21875 l 0,62.09375 c 0,4.398562 -5.82019,10.1875 -10.21875,10.1875 l -30,0 0,-61.375 0,-7.5 -15,0 0,7.5 0,68.875 0,7.5 7.5,0 37.5,0 c 13.8245,0 25.21875,-11.363002 25.21875,-25.1875 l 0,-62.09375 c 0,-13.817355 -11.40139,-25.21875 -25.21875,-25.21875 l -37.5,0 -7.5,0 z"
       id="path4066"
       style="font-size:medium;font-style:normal;font-variant:normal;font-weight:normal;font-stretch:normal;text-indent:0;text-align:start;text-decoration:none;line-height:normal;letter-spacing:normal;word-spacing:normal;text-transform:none;direction:ltr;block-progression:tb;writing-mode:lr-tb;text-anchor:start;baseline-shift:baseline;color:#000000;fill:#ba8d39;fill-opacity:1;stroke:none;stroke-width:15.00000095;marker:none;visibility:visible;display:inline;overflow:visible;enable-background:accumulate;font-family:Sans;-inkscape-font-specification:Sans" /></g></g></svg>