<?xml version="1.0" encoding="UTF-8" standalone="yes"?>
<svg xmlns="http://www.w3.org/2000/svg" xmlns:xlink="http://www.w3.org/1999/xlink" width="344px" height="106.66666666666666px" viewBox="0 0 258 80" version="1.1">
  <defs>
    <clipPath id="clip1">
      <path d="M 194 1 L 257.675781 1 L 257.675781 79.839844 L 194 79.839844 Z M 194 1 "/>
    </clipPath>
    <clipPath id="clip2">
      <path d="M 0.324219 1 L 64 1 L 64 79.839844 L 0.324219 79.839844 Z M 0.324219 1 "/>
    </clipPath>
  </defs>
  <g id="surface1">
    <path style=" stroke:none;fill-rule:nonzero;fill:rgb(75.686275%,53.72549%,12.941176%);fill-opacity:1;" d="M 202.292969 40.148438 L 202.3125 70.847656 L 202.761719 70.847656 L 218.808594 70.855469 C 222.921875 70.855469 226.917969 70.046875 230.699219 68.445312 C 234.351562 66.890625 237.648438 64.671875 240.476562 61.851562 C 246.328125 56.027344 249.546875 48.296875 249.546875 40.105469 C 249.546875 31.890625 246.351562 24.164062 240.542969 18.359375 C 234.734375 12.546875 227.019531 9.355469 218.816406 9.355469 L 198.105469 9.378906 L 197.664062 9.378906 L 197.664062 1.746094 L 218.800781 1.726562 L 219.242188 1.726562 C 224.433594 1.726562 229.460938 2.703125 234.195312 4.703125 C 234.71875 4.929688 235.207031 5.195312 235.714844 5.433594 L 236.027344 5.589844 C 237.078125 6.089844 238.09375 6.652344 239.082031 7.246094 L 239.191406 7.3125 C 240.210938 7.933594 241.199219 8.601562 242.152344 9.308594 L 242.257812 9.390625 C 243.175781 10.078125 244.054688 10.808594 244.921875 11.589844 L 245.164062 11.8125 C 245.578125 12.183594 246.011719 12.542969 246.40625 12.9375 C 246.800781 13.332031 247.15625 13.765625 247.527344 14.171875 L 247.765625 14.429688 C 248.53125 15.28125 249.261719 16.171875 249.957031 17.089844 L 250.035156 17.199219 C 250.746094 18.148438 251.414062 19.136719 252.027344 20.148438 L 252.097656 20.261719 C 252.699219 21.257812 253.253906 22.28125 253.769531 23.324219 L 253.902344 23.617188 C 254.148438 24.125 254.417969 24.621094 254.636719 25.152344 C 256.644531 29.886719 257.65625 34.914062 257.65625 40.105469 C 257.65625 45.285156 256.644531 50.324219 254.636719 55.058594 C 254.417969 55.585938 254.148438 56.082031 253.898438 56.59375 L 253.769531 56.875 C 253.253906 57.929688 252.699219 58.949219 252.097656 59.945312 L 252.027344 60.0625 C 251.414062 61.074219 250.742188 62.0625 250.035156 63.015625 L 249.957031 63.117188 C 249.261719 64.035156 248.53125 64.925781 247.761719 65.785156 L 247.535156 66.027344 C 247.15625 66.445312 246.800781 66.875 246.40625 67.269531 C 246.011719 67.667969 245.574219 68.019531 245.164062 68.402344 L 244.921875 68.625 C 244.054688 69.390625 243.175781 70.125 242.257812 70.820312 L 242.152344 70.902344 C 241.199219 71.605469 240.210938 72.273438 239.191406 72.894531 L 239.082031 72.960938 C 238.085938 73.566406 237.070312 74.117188 236.027344 74.621094 L 235.71875 74.765625 C 235.210938 75.011719 234.71875 75.289062 234.195312 75.503906 C 229.460938 77.507812 224.433594 78.523438 219.242188 78.523438 L 218.800781 78.523438 L 194.699219 78.507812 L 194.699219 40.148438 L 202.292969 40.148438 "/>
    <path style="fill-rule:nonzero;fill:rgb(75.686275%,53.72549%,12.941176%);fill-opacity:1;stroke-width:0.017;stroke-linecap:butt;stroke-linejoin:miter;stroke:rgb(75.686275%,53.72549%,12.941176%);stroke-opacity:1;stroke-miterlimit:10;" d="M 0.000233692 0.000149982 L -2.753404 0.000149982 L -2.753404 -27.608001 L 14.240476 -27.608001 L 14.240476 -24.856456 L 0.000233692 -24.856456 Z M 0.000233692 0.000149982 " transform="matrix(2.780413,0,0,-2.781108,149.839194,1.746511)"/>
    <path style=" stroke:none;fill-rule:nonzero;fill:rgb(75.686275%,53.72549%,12.941176%);fill-opacity:1;" d="M 128.222656 59.207031 C 122.390625 67.0625 113.078125 72.164062 102.546875 72.164062 C 92.019531 72.164062 82.707031 67.0625 76.871094 59.207031 L 67.765625 59.207031 C 74.507812 71.484375 87.550781 79.816406 102.546875 79.816406 C 117.546875 79.816406 130.59375 71.484375 137.335938 59.207031 L 128.222656 59.207031 "/>
    <path style="fill:none;stroke-width:0.017;stroke-linecap:butt;stroke-linejoin:miter;stroke:rgb(75.686275%,53.72549%,12.941176%);stroke-opacity:1;stroke-miterlimit:10;" d="M 0.00042118 -0.0000173772 C -2.09712 -2.8246 -5.446443 -4.658963 -9.2341 -4.658963 C -13.020353 -4.658963 -16.369676 -2.8246 -18.468622 -0.0000173772 L -21.743484 -0.0000173772 C -19.318597 -4.414569 -14.627578 -7.410508 -9.2341 -7.410508 C -3.839218 -7.410508 0.853206 -4.414569 3.278093 -0.0000173772 Z M 0.00042118 -0.0000173772 " transform="matrix(2.780413,0,0,-2.781108,128.221485,59.206983)"/>
    <path style=" stroke:none;fill-rule:nonzero;fill:rgb(75.686275%,53.72549%,12.941176%);fill-opacity:1;" d="M 76.8125 21.179688 C 82.640625 13.289062 91.980469 8.144531 102.546875 8.144531 C 113.117188 8.144531 122.457031 13.289062 128.285156 21.179688 L 137.378906 21.179688 C 130.65625 8.859375 117.578125 0.488281 102.546875 0.488281 C 87.515625 0.488281 74.445312 8.859375 67.714844 21.179688 L 76.8125 21.179688 "/>
    <path style="fill:none;stroke-width:0.017;stroke-linecap:butt;stroke-linejoin:miter;stroke:rgb(75.686275%,53.72549%,12.941176%);stroke-opacity:1;stroke-miterlimit:10;" d="M 0.000304183 0.000433625 C 2.096441 2.837657 5.455598 4.687471 9.2559 4.687471 C 13.057606 4.687471 16.416763 2.837657 18.5129 0.000433625 L 21.783547 0.000433625 C 19.365685 4.430435 14.662021 7.44042 9.2559 7.44042 C 3.849778 7.44042 -0.851076 4.430435 -3.271748 0.000433625 Z M 0.000304183 0.000433625 " transform="matrix(2.780413,0,0,-2.781108,76.811654,21.180893)"/>
    <path style=" stroke:none;fill-rule:nonzero;fill:rgb(75.686275%,53.72549%,12.941176%);fill-opacity:1;" d="M 50.957031 36.328125 L 50.957031 43.980469 L 55.6875 43.980469 L 55.6875 70.847656 L 55.242188 70.847656 L 39.191406 70.855469 C 35.085938 70.855469 31.085938 70.046875 27.304688 68.445312 C 23.648438 66.890625 20.359375 64.671875 17.523438 61.851562 C 11.671875 56.027344 8.453125 48.296875 8.453125 40.105469 C 8.453125 31.890625 11.65625 24.164062 17.457031 18.359375 C 23.261719 12.546875 30.980469 9.355469 39.191406 9.355469 L 59.898438 9.378906 L 60.347656 9.378906 L 60.347656 1.746094 L 39.203125 1.726562 L 38.757812 1.726562 C 33.570312 1.726562 28.539062 2.703125 23.804688 4.703125 C 23.285156 4.929688 22.792969 5.195312 22.285156 5.433594 L 21.972656 5.589844 C 20.925781 6.089844 19.90625 6.652344 18.917969 7.246094 L 18.808594 7.3125 C 17.792969 7.933594 16.808594 8.601562 15.851562 9.308594 L 15.75 9.390625 C 14.828125 10.078125 13.9375 10.808594 13.078125 11.589844 L 12.835938 11.8125 C 12.421875 12.183594 11.988281 12.542969 11.597656 12.9375 C 11.199219 13.332031 10.851562 13.765625 10.472656 14.171875 L 10.238281 14.429688 C 9.46875 15.28125 8.738281 16.171875 8.042969 17.089844 L 7.964844 17.199219 C 7.25 18.148438 6.589844 19.136719 5.964844 20.148438 L 5.910156 20.261719 C 5.300781 21.257812 4.75 22.28125 4.242188 23.324219 L 4.105469 23.617188 C 3.855469 24.125 3.582031 24.621094 3.363281 25.152344 C 1.355469 29.886719 0.34375 34.914062 0.34375 40.105469 C 0.34375 45.285156 1.355469 50.324219 3.363281 55.058594 C 3.582031 55.585938 3.855469 56.082031 4.105469 56.59375 L 4.234375 56.875 C 4.75 57.929688 5.300781 58.949219 5.910156 59.945312 L 5.964844 60.0625 C 6.59375 61.074219 7.257812 62.0625 7.964844 63.015625 L 8.042969 63.117188 C 8.738281 64.035156 9.46875 64.925781 10.246094 65.785156 L 10.46875 66.027344 C 10.847656 66.445312 11.195312 66.875 11.597656 67.269531 C 11.988281 67.667969 12.425781 68.019531 12.835938 68.402344 L 13.078125 68.625 C 13.9375 69.390625 14.824219 70.125 15.75 70.820312 L 15.851562 70.902344 C 16.808594 71.605469 17.792969 72.273438 18.808594 72.894531 L 18.917969 72.960938 C 19.910156 73.566406 20.929688 74.117188 21.976562 74.621094 L 22.28125 74.765625 C 22.792969 75.011719 23.28125 75.289062 23.804688 75.503906 C 28.539062 77.507812 33.570312 78.523438 38.757812 78.523438 L 39.203125 78.523438 L 63.300781 78.507812 L 63.300781 36.328125 L 50.957031 36.328125 "/>
    <path style="fill-rule:nonzero;fill:rgb(75.686275%,53.72549%,12.941176%);fill-opacity:1;stroke-width:0.017;stroke-linecap:butt;stroke-linejoin:miter;stroke:rgb(75.686275%,53.72549%,12.941176%);stroke-opacity:1;stroke-miterlimit:10;" d="M 0.0002819 0.000366823 L 0.79125 0.000366823 L 0.79125 0.86558 L 0.0002819 0.86558 Z M 0.0002819 0.000366823 " transform="matrix(2.780413,0,0,-2.781108,118.737497,49.297895)"/>
    <path style=" stroke:none;fill-rule:nonzero;fill:rgb(75.686275%,53.72549%,12.941176%);fill-opacity:1;" d="M 82.5625 38.558594 C 81.484375 38.289062 80.148438 37.949219 79.5 37.175781 C 78.710938 36.234375 78.832031 34.320312 79.742188 33.449219 C 80.3125 32.914062 81.433594 32.578125 82.59375 32.578125 C 83.621094 32.578125 84.492188 32.84375 84.941406 33.289062 C 85.175781 33.527344 85.285156 33.804688 85.28125 34.144531 L 85.273438 34.6875 L 87.648438 34.742188 L 87.65625 34.1875 C 87.65625 33.25 87.320312 32.421875 86.671875 31.769531 C 85.742188 30.835938 84.199219 30.296875 82.445312 30.296875 C 80.699219 30.296875 79.082031 30.84375 78.125 31.742188 C 76.277344 33.480469 76.132812 36.984375 77.832031 38.816406 C 78.753906 39.8125 80.15625 40.308594 81.96875 40.761719 C 84.699219 41.457031 86.019531 42.710938 86 44.613281 C 85.980469 45.453125 85.632812 46.167969 85 46.6875 C 83.933594 47.554688 82.296875 47.769531 80.488281 47.261719 C 79.761719 47.054688 79.007812 46.394531 78.964844 45.542969 L 78.941406 45.039062 L 76.640625 44.980469 L 76.632812 45.53125 C 76.605469 47.238281 77.734375 48.695312 79.582031 49.332031 C 80.460938 49.605469 81.433594 49.761719 82.394531 49.761719 C 84.054688 49.761719 85.515625 49.304688 86.507812 48.484375 C 87.695312 47.480469 88.335938 46.148438 88.371094 44.621094 C 88.390625 40.5625 85.28125 39.253906 82.5625 38.558594 "/>
    <path style="fill:none;stroke-width:0.017;stroke-linecap:butt;stroke-linejoin:miter;stroke:rgb(75.686275%,53.72549%,12.941176%);stroke-opacity:1;stroke-miterlimit:10;" d="M 0.000342495 -0.000480962 C -0.387415 0.0964341 -0.867896 0.218631 -1.101113 0.496735 C -1.384906 0.835236 -1.341354 1.523473 -1.014008 1.836691 C -0.80889 2.029117 -0.405679 2.14991 0.0115818 2.14991 C 0.381075 2.14991 0.694372 2.054399 0.855937 1.894279 C 0.940232 1.8086 0.97957 1.708876 0.978165 1.586679 L 0.975355 1.391444 L 1.829545 1.37178 L 1.832355 1.571229 C 1.832355 1.908324 1.711532 2.206092 1.478316 2.440655 C 1.143945 2.776346 0.589003 2.970176 -0.041805 2.970176 C -0.669803 2.970176 -1.251439 2.773537 -1.595644 2.450487 C -2.260169 1.825455 -2.312151 0.565559 -1.701012 -0.0931823 C -1.369452 -0.451347 -0.865087 -0.629727 -0.213205 -0.792656 C 0.768832 -1.042669 1.243694 -1.493535 1.23667 -2.177558 C 1.229645 -2.47954 1.104608 -2.736576 0.877011 -2.923383 C 0.493468 -3.235197 -0.0951919 -3.312448 -0.745669 -3.129854 C -1.006983 -3.055412 -1.278132 -2.818041 -1.293586 -2.511845 L -1.302016 -2.330656 L -2.129512 -2.309588 L -2.132322 -2.507631 C -2.142156 -3.121427 -1.736135 -3.64533 -1.071609 -3.874274 C -0.755503 -3.972594 -0.405679 -4.028777 -0.060069 -4.028777 C 0.537021 -4.028777 1.06246 -3.864442 1.419309 -3.569483 C 1.846404 -3.20851 2.07681 -2.729553 2.089455 -2.180368 C 2.096479 -0.721023 0.978165 -0.250494 0.000342495 -0.000480962 Z M 0.000342495 -0.000480962 " transform="matrix(2.780413,0,0,-2.781108,82.561548,38.557256)"/>
    <path style=" stroke:none;fill-rule:nonzero;fill:rgb(75.686275%,53.72549%,12.941176%);fill-opacity:1;" d="M 94.152344 34.339844 C 94.152344 33.761719 94.59375 33.40625 94.863281 33.246094 C 95.445312 32.882812 96.550781 32.660156 97.734375 32.660156 C 98.925781 32.660156 100.003906 32.878906 100.605469 33.25 C 100.875 33.410156 101.335938 33.769531 101.335938 34.339844 L 101.335938 40.117188 L 94.152344 40.117188 Z M 103.675781 33.90625 L 103.644531 33.789062 L 103.632812 33.789062 C 103.46875 32.738281 102.832031 31.839844 101.828125 31.238281 C 100.871094 30.65625 99.386719 30.316406 97.738281 30.316406 C 96.101562 30.316406 94.605469 30.652344 93.636719 31.238281 C 92.445312 31.945312 91.785156 33.046875 91.785156 34.339844 L 91.785156 49.488281 L 94.152344 49.488281 L 94.152344 42.484375 L 101.335938 42.484375 L 101.335938 49.488281 L 103.699219 49.488281 L 103.699219 34.324219 L 103.675781 33.90625 "/>
    <path style="fill:none;stroke-width:0.017;stroke-linecap:butt;stroke-linejoin:miter;stroke:rgb(75.686275%,53.72549%,12.941176%);stroke-opacity:1;stroke-miterlimit:10;" d="M -0.000267783 0.000450428 C -0.000267783 0.208326 0.158488 0.336142 0.255427 0.393729 C 0.46476 0.524354 0.862351 0.604414 1.288041 0.604414 C 1.716541 0.604414 2.104298 0.525758 2.320656 0.392324 C 2.417595 0.334737 2.583375 0.205517 2.583375 0.000450428 L 2.583375 -2.076903 L -0.000267783 -2.076903 Z M 3.424921 0.156357 L 3.413681 0.198494 L 3.409467 0.198494 C 3.35046 0.576323 3.121459 0.899373 2.760395 1.115676 C 2.41619 1.324956 1.882321 1.447154 1.289446 1.447154 C 0.700786 1.447154 0.162703 1.326361 -0.185717 1.115676 C -0.614217 0.861449 -0.851648 0.465362 -0.851648 0.000450428 L -0.851648 -5.446457 L -0.000267783 -5.446457 L -0.000267783 -2.92807 L 2.583375 -2.92807 L 2.583375 -5.446457 L 3.43335 -5.446457 L 3.43335 0.00606869 Z M 3.424921 0.156357 " transform="matrix(2.780413,0,0,-2.781108,94.153088,34.341096)"/>
    <path style="fill-rule:nonzero;fill:rgb(75.686275%,53.72549%,12.941176%);fill-opacity:1;stroke-width:0.017;stroke-linecap:butt;stroke-linejoin:miter;stroke:rgb(75.686275%,53.72549%,12.941176%);stroke-opacity:1;stroke-miterlimit:10;" d="M -0.000397859 -0.00067747 L 1.740295 -0.00067747 L 1.726246 -5.978511 L 1.726246 -6.023457 L 2.58184 -6.023457 L 2.601509 -0.00067747 L 4.343607 -0.00067747 L 4.343607 0.794307 L -0.000397859 0.794307 Z M -0.000397859 -0.00067747 " transform="matrix(2.780413,0,0,-2.781108,106.442512,32.736397)"/>
    <path style="fill-rule:nonzero;fill:rgb(75.686275%,53.72549%,12.941176%);fill-opacity:1;stroke-width:0.017;stroke-linecap:butt;stroke-linejoin:miter;stroke:rgb(75.686275%,53.72549%,12.941176%);stroke-opacity:1;stroke-miterlimit:10;" d="M 0.000169642 -0.000693057 L 0.000169642 -0.864501 L 0.970968 -0.864501 L 0.970968 -6.818457 L 1.830777 -6.818457 L 1.830777 -0.000693057 Z M 0.000169642 -0.000693057 " transform="matrix(2.780413,0,0,-2.781108,123.097185,30.525416)"/>
    <g clip-path="url(#clip1)" clip-rule="nonzero">
      <path style="fill:none;stroke-width:0.017;stroke-linecap:butt;stroke-linejoin:miter;stroke:rgb(75.686275%,53.72549%,12.941176%);stroke-opacity:1;stroke-miterlimit:10;" d="M -0.000536384 -0.000139366 L 0.0064882 -11.038624 L 0.168054 -11.038624 L 5.939454 -11.041433 C 7.418832 -11.041433 8.856062 -10.750688 10.216022 -10.174816 C 11.52962 -9.615799 12.71537 -8.818005 13.732531 -7.803909 C 15.837097 -5.709701 16.994749 -2.930064 16.994749 0.0153109 C 16.994749 2.969113 15.845526 5.747345 13.756414 7.83453 C 11.667302 9.924525 8.89259 11.072055 5.942264 11.072055 L -1.506608 11.063628 L -1.665363 11.063628 L -1.665363 13.80815 L 5.936644 13.815173 L 6.0954 13.815173 C 7.962535 13.815173 9.770664 13.464031 11.473423 12.744893 C 11.661682 12.663429 11.837297 12.567918 12.019936 12.48224 L 12.13233 12.426057 C 12.510252 12.246272 12.875531 12.044015 13.230975 11.830521 L 13.270313 11.806643 C 13.636996 11.583317 13.99244 11.343136 14.33524 11.08891 L 14.373173 11.059414 C 14.703328 10.81221 15.019435 10.549557 15.331326 10.268643 L 15.418431 10.188583 C 15.567353 10.055149 15.723298 9.925929 15.865195 9.784068 C 16.007092 9.642207 16.134939 9.4863 16.268406 9.340225 L 16.354106 9.247524 C 16.62947 8.941328 16.89219 8.621087 17.142265 8.291014 L 17.170363 8.251686 C 17.426058 7.910377 17.666299 7.555022 17.886871 7.191239 L 17.91216 7.150507 C 18.128517 6.792342 18.328015 6.424346 18.513464 6.049327 L 18.561231 5.943984 C 18.649741 5.761391 18.74668 5.583011 18.825356 5.39199 C 19.547483 3.689656 19.911357 1.881979 19.911357 0.0153109 C 19.911357 -1.847144 19.547483 -3.659034 18.825356 -5.361368 C 18.74668 -5.550985 18.649741 -5.729364 18.559826 -5.913363 L 18.513464 -6.014491 C 18.328015 -6.393724 18.128517 -6.760316 17.91216 -7.11848 L 17.886871 -7.160617 C 17.666299 -7.5244 17.424653 -7.879755 17.170363 -8.222469 L 17.142265 -8.258988 C 16.89219 -8.589061 16.62947 -8.909302 16.352701 -9.218307 L 16.271216 -9.30539 C 16.134939 -9.455678 16.007092 -9.610181 15.865195 -9.752042 C 15.723298 -9.895308 15.565948 -10.021719 15.418431 -10.159366 L 15.331326 -10.239426 C 15.019435 -10.514721 14.703328 -10.77878 14.373173 -11.028792 L 14.33524 -11.058288 C 13.99244 -11.31111 13.636996 -11.551291 13.270313 -11.774617 L 13.230975 -11.798495 C 12.872721 -12.016202 12.507443 -12.214246 12.13233 -12.395435 L 12.021341 -12.447404 C 11.838702 -12.535892 11.661682 -12.635616 11.473423 -12.712867 C 9.770664 -13.43341 7.962535 -13.798597 6.0954 -13.798597 L 5.936644 -13.798597 L -2.731696 -13.792978 L -2.731696 -0.000139366 Z M -0.000536384 -0.000139366 " transform="matrix(2.780413,0,0,-2.781108,202.29446,40.14805)"/>
    </g>
    <g clip-path="url(#clip2)" clip-rule="nonzero">
      <path style="fill:none;stroke-width:0.017;stroke-linecap:butt;stroke-linejoin:miter;stroke:rgb(75.686275%,53.72549%,12.941176%);stroke-opacity:1;stroke-miterlimit:10;" d="M 0.000156368 0.000526282 L 0.000156368 -2.751019 L 1.701511 -2.751019 L 1.701511 -12.411624 L 1.541351 -12.411624 L -4.231455 -12.414433 C -5.708023 -12.414433 -7.146658 -12.123688 -8.506618 -11.547816 C -9.821621 -10.988799 -11.004561 -10.191005 -12.024531 -9.176909 C -14.129097 -7.082701 -15.286749 -4.303064 -15.286749 -1.357689 C -15.286749 1.596113 -14.134717 4.374345 -12.048415 6.46153 C -9.960708 8.551525 -7.184591 9.699055 -4.231455 9.699055 L 3.216012 9.690628 L 3.377578 9.690628 L 3.377578 12.43515 L -4.22724 12.442173 L -4.3874 12.442173 C -6.253131 12.442173 -8.062664 12.091031 -9.765424 11.371893 C -9.952278 11.290429 -10.129298 11.194918 -10.311937 11.10924 L -10.42433 11.053057 C -10.800848 10.873272 -11.167531 10.671015 -11.522976 10.457521 L -11.562313 10.433643 C -11.927592 10.210317 -12.281631 9.970136 -12.625836 9.71591 L -12.662364 9.686414 C -12.993924 9.43921 -13.314245 9.176557 -13.623327 8.895643 L -13.710432 8.815583 C -13.859353 8.682149 -14.015299 8.552929 -14.155791 8.411068 C -14.299092 8.269207 -14.42413 8.1133 -14.560407 7.967225 L -14.644702 7.874524 C -14.921471 7.568328 -15.18419 7.248087 -15.434265 6.918014 L -15.462364 6.878686 C -15.719464 6.537377 -15.956895 6.182022 -16.181681 5.818239 L -16.20135 5.777507 C -16.420517 5.419342 -16.618611 5.051346 -16.80125 4.676327 L -16.850422 4.570984 C -16.940337 4.388391 -17.038681 4.210011 -17.117356 4.01899 C -17.839484 2.316656 -18.203357 0.508979 -18.203357 -1.357689 C -18.203357 -3.220144 -17.839484 -5.032034 -17.117356 -6.734368 C -17.038681 -6.923985 -16.940337 -7.102364 -16.850422 -7.286363 L -16.80406 -7.387491 C -16.618611 -7.766724 -16.420517 -8.133316 -16.20135 -8.49148 L -16.181681 -8.533617 C -15.95549 -8.8974 -15.716654 -9.252755 -15.462364 -9.595469 L -15.434265 -9.631988 C -15.18419 -9.962061 -14.921471 -10.282302 -14.641892 -10.591307 L -14.561812 -10.67839 C -14.425535 -10.828678 -14.300497 -10.983181 -14.155791 -11.125042 C -14.015299 -11.268308 -13.857948 -11.394719 -13.710432 -11.532366 L -13.623327 -11.612426 C -13.314245 -11.887721 -12.995329 -12.15178 -12.662364 -12.401792 L -12.625836 -12.431288 C -12.281631 -12.68411 -11.927592 -12.924291 -11.562313 -13.147617 L -11.522976 -13.171495 C -11.166127 -13.389202 -10.799443 -13.587246 -10.422925 -13.768435 L -10.313342 -13.820404 C -10.129298 -13.908892 -9.953683 -14.008616 -9.765424 -14.085867 C -8.062664 -14.80641 -6.253131 -15.171597 -4.3874 -15.171597 L -4.22724 -15.171597 L 4.439695 -15.165978 L 4.439695 0.000526282 Z M 0.000156368 0.000526282 " transform="matrix(2.780413,0,0,-2.781108,50.956596,36.329589)"/>
    </g>
  </g>
</svg>