<?xml version="1.0" encoding="UTF-8" standalone="no"?>
<!-- Created with Inkscape (http://www.inkscape.org/) -->

<svg
   xmlns:dc="http://purl.org/dc/elements/1.1/"
   xmlns:cc="http://creativecommons.org/ns#"
   xmlns:rdf="http://www.w3.org/1999/02/22-rdf-syntax-ns#"
   xmlns:svg="http://www.w3.org/2000/svg"
   xmlns="http://www.w3.org/2000/svg"
   xmlns:inkscape="http://www.inkscape.org/namespaces/inkscape"
   version="1.1"
   width="353.6875"
   height="216.83749"
   id="svg2"
   xml:space="preserve"><metadata
     id="metadata8"><rdf:RDF><cc:Work
         rdf:about=""><dc:format>image/svg+xml</dc:format><dc:type
           rdf:resource="http://purl.org/dc/dcmitype/StillImage" /></cc:Work></rdf:RDF></metadata><defs
     id="defs6"><clipPath
       id="clipPath18"><path
         d="m 0,0 2829,0 0,1734.67 -2829,0 L 0,0 z"
         inkscape:connector-curvature="0"
         id="path20" /></clipPath><clipPath
       id="clipPath46"><path
         d="m 1582.56,480.16 -192.73,383.735 -244.26,-353.157 99.01,417.844 -414.107,-113.52 344.397,256.448 -390.198,179.23 428.658,-24.94 -183.7,388.13 312.35,-294.67 108.73,415.41 49.88,-426.5 350.29,248.31 -235.91,-358.78 427.96,-34.97 -411.34,-123.17 305.37,-301.904 -394.28,170.067 39.88,-427.563 z"
         inkscape:connector-curvature="0"
         id="path48" /></clipPath><clipPath
       id="clipPath52"><path
         d="M 3665.43,1386.31 1872.75,-316.918 -137.605,1799.05 1655.1,3502.28 3665.43,1386.31 z"
         inkscape:connector-curvature="0"
         id="path54" /></clipPath><radialGradient
       cx="0"
       cy="0"
       r="1"
       fx="0"
       fy="0"
       id="radialGradient56"
       gradientUnits="userSpaceOnUse"
       gradientTransform="matrix(89.6381,85.1662,100.524,-105.796,176.392,159.269)"
       spreadMethod="pad"><stop
         id="stop58"
         style="stop-color:#fff319;stop-opacity:1"
         offset="0" /><stop
         id="stop60"
         style="stop-color:#e19914;stop-opacity:1"
         offset="0.96256697" /><stop
         id="stop62"
         style="stop-color:#e19914;stop-opacity:1"
         offset="0.96256697" /><stop
         id="stop64"
         style="stop-color:#e19914;stop-opacity:1"
         offset="1" /></radialGradient></defs><g
     transform="matrix(1.25,0,0,-1.25,0,216.8375)"
     id="g10"><g
       transform="scale(0.1,0.1)"
       id="g12"><g
         id="g14"><g
           clip-path="url(#clipPath18)"
           id="g16"><path
             d="m 467.18,147.48 c 0,-34.718 27.566,-67.0308 61.558,-67.0308 33.996,0 61.567,32.3128 61.567,67.0308 0,34.731 -27.571,58.711 -61.567,58.711 -33.992,0 -61.558,-23.98 -61.558,-58.711 z m -88.469,0 c 0,81.469 67.207,147.5 150.117,147.5 82.91,0 150.117,-66.031 150.117,-147.5 C 678.945,66.0391 611.738,0 528.828,0 445.918,0 378.711,66.0391 378.711,147.48"
             inkscape:connector-curvature="0"
             id="path22"
             style="fill:#1c63ac;fill-opacity:1;fill-rule:nonzero;stroke:none" /><path
             d="m 1802.25,70.7188 c 23.4,1.0195 42.42,11.8398 42.42,26.4726 0,14.6286 -19,25.3086 -42.42,25.8986 -23.48,0.558 -42.44,-8.399 -42.44,-25.8986 0,-18.8711 18.96,-27.5 42.44,-26.4726 z m 125.37,-45.1094 0,-13.8477 c 0,-4.24217 -3.45,-7.70311 -7.71,-7.70311 l -7.46,0 -54.61,-0.08984 c -8.54,0 -8.83,5.92969 -8.77,7.48045 -0.49,4.1797 -4.79,7.1524 -9.55,3.4219 C 1830.92,7.66016 1815.1,0 1786.9,0 c -70.68,0 -112.21,32.9297 -112.21,99.7305 0,58.5505 58.56,89.7575 112.21,89.7575 24.53,0 30.68,-0.758 43.59,-2.828 0,0 16.55,-2.582 16.55,9.051 0,4.918 -7.02,19.098 -39.14,19.859 -68.38,1.602 -89.79,-21.621 -103.72,-21.621 -6.97,0 -6.89,9.02 -6.89,9.02 l 0,58.562 c 0,10.699 8.87,13.61 8.87,13.61 0,0 43.84,19.839 102.87,19.839 118.08,0 118.55,-72.968 118.55,-72.968 l 0.04,-196.4026"
             inkscape:connector-curvature="0"
             id="path24"
             style="fill:#1c63ac;fill-opacity:1;fill-rule:nonzero;stroke:none" /><path
             d="m 2490.1,312.699 -66.93,-0.121 -28.07,0.102 c -4.26,0 -7.71,-3.461 -7.71,-7.719 l 0,-28.789 0.04,-236.6603 0.17,-27.75 c 0,-4.24217 -3.43,-7.70311 -7.69,-7.70311 l -10.33,0 -29.87,-0.04687 -29.86,0.04687 -9.98,0 c -4.26,0 -7.7,3.46094 -7.7,7.70311 l 0,9.3594 -0.17,253.6879 0.11,30.152 c 0,4.258 -3.43,7.719 -7.69,7.719 l -26.9,0 -40.58,-0.141 -12.29,0.16 c -4.25,0 -7.71,3.43 -7.71,7.692 l 0,77.07 c 0,4.258 3.46,7.719 7.71,7.719 l 334.61,0 58.38,-0.16 9.38,0 c 4.25,0 8.45,-3.442 9.39,-7.692 l 1.33,-6.269 14.9,-70.649 33.3,-159.121 c 0.82,-5 3.62,-9.73 8.65,-9.59 4.93,0.141 7.13,4.84 8.19,9.59 l 48.3,229.77 1.39,6.269 c 0.93,4.25 5.15,7.692 9.41,7.692 l 81.39,0 c 4.25,0 6.95,-3.442 6.01,-7.692 l -16.93,-76.918 -51.04,-231.8084 -14.41,-65.3633 -1.27,-5.5977 c -1.54,-6.6211 -8.13,-13.67185 -16.11,-13.67185 l -110.14,0 c -8.01,0 -14.57,7.05075 -16.13,13.67185 l -0.96,4.3477 -14.71,66.6133 -49.27,224.0974 -48.21,0"
             inkscape:connector-curvature="0"
             id="path26"
             style="fill:#1c63ac;fill-opacity:1;fill-rule:nonzero;stroke:none" /><path
             d="m 1424.1,383.91 -0.08,-59.16 c 0,-9.238 -7.45,-9.871 -13.41,-8.32 -18.09,4.691 -32.02,6.5 -51.63,6.5 -14.49,0.082 -37.21,-4.758 -37.21,-26.328 0,-14.961 11.42,-24.743 11.42,-24.743 0,0 63.37,-52.437 70.97,-59.121 7.61,-6.699 37.29,-35.097 37.29,-85.668 C 1441.45,14.1016 1341.37,0 1300.1,0 c -33.02,0 -57.78,7.37891 -66.66,11.3516 -8.9,3.9375 -9.65,7.9101 -9.65,13.0468 0,5.1328 0.57,58.3204 0.57,72.5625 0,11.0901 8.08,10.4801 12.89,9.8011 10.82,-1.543 38.71,-12.3011 63.99,-10.9808 6.43,0.3399 10.91,0.5079 16.4,1.7969 13.06,3.0509 24.7,9.9019 24.7,28.9339 0,19.019 -18.16,32.886 -18.16,32.886 0,0 -62.26,51.774 -69.47,59 -7.23,7.211 -34.06,34.551 -34.06,90.274 0,97 102.66,100.34 134.14,100.34 31.46,0 51.52,-6.742 59.39,-9.481 10.08,-3.472 9.92,-11.601 9.92,-15.621"
             inkscape:connector-curvature="0"
             id="path28"
             style="fill:#1c63ac;fill-opacity:1;fill-rule:nonzero;stroke:none" /><path
             d="m 256.113,104.141 -0.008,13.23 0,27.981 0.055,8.636 -0.039,13.801 c 0,3.313 -2.683,5.961 -5.984,5.961 l -25.703,0 -7.95,-0.059 c -4.257,0 -7.695,3.457 -7.695,7.719 l 0,10.352 -0.09,48.066 0.09,11.953 c 0,4.258 3.438,7.707 7.695,7.707 l 9.602,0 93.238,0.141 12.238,-0.141 c 4.258,0 7.715,-3.449 7.715,-7.707 l 0,-70.371 -0.156,-83.2186 0,-51.8398 0.125,-34.5899 c 0,-4.24217 -3.445,-7.70311 -7.703,-7.70311 l -10.273,0 -16.504,-0.08984 -94.571,0 c -2.129,0 -4.179,0.33203 -6.113,0.95313 C 90.3516,14.9414 0,102.91 0,234.379 0,334.98 79.7461,408.93 201.562,408.93 c 41.805,0 68.133,-3.211 98.321,-8.871 20.691,-3.887 27.91,-7.731 27.91,-23.278 l 0,-56.172 c 0,-10.918 -8.574,-12.578 -19.27,-10.39 0,0 -54.285,11.91 -89.753,11.91 0,0 -120.7231,8.73 -120.7231,-97.027 0,-110.411 95.9571,-126.9106 126.3871,-126.9106 l 25.703,0 c 3.301,0 5.976,2.6676 5.976,5.9496"
             inkscape:connector-curvature="0"
             id="path30"
             style="fill:#1c63ac;fill-opacity:1;fill-rule:nonzero;stroke:none" /><path
             d="m 2091.49,29.3398 0,-17.5781 c 0,-4.24217 -3.44,-7.70311 -7.7,-7.70311 l -10.15,0 -8.91,-0.02734 -39.59,-0.0625 -12.52,0.08984 c -4.26,0 -7.69,3.46094 -7.69,7.70311 l -0.02,12.0078 0.02,5.5703 -0.02,66.8321 0,185.0001 c 0,4.258 3.45,7.719 7.71,7.719 l 68.85,0 c 4.24,0 7.7,-3.461 7.7,-7.719 l 0,-8.863 0.07,-3.379 c 0,0 0.75,-5.758 6.08,-5.758 3.69,0 6.99,4.527 6.99,4.527 0,0 17.62,23.551 43.61,23.551 13.87,0 25.04,-1.27 25.04,-9.449 l 0,-88.071 c 0,-4.261 -3.46,-7.71 -7.71,-7.71 l -6.31,0 c -58.67,0 -64.83,-46.961 -65.45,-55.571 l 0,-101.1092"
             inkscape:connector-curvature="0"
             id="path32"
             style="fill:#1c63ac;fill-opacity:1;fill-rule:nonzero;stroke:none" /><path
             d="m 2019.38,4.05859 -1.93,-0.08984 1.93,0.08984"
             inkscape:connector-curvature="0"
             id="path34"
             style="fill:#1c63ac;fill-opacity:1;fill-rule:nonzero;stroke:none" /><path
             d="m 1473.13,281.039 c 0,4.25 3.46,7.711 7.71,7.711 l 3.58,-0.02 c 6.42,0 9.71,3.282 9.71,7.329 l 0,53.3 c 0,4.262 3.43,7.692 7.69,7.692 l 9.98,0 49.08,0.121 12.17,-0.121 c 4.26,0 7.72,-3.43 7.72,-7.692 l 0,-53.3 c 0,-4.047 3.28,-7.329 7.32,-7.329 l 21.56,0 3.66,0.02 c 4.25,0 7.71,-3.461 7.71,-7.711 l 0,-61.719 c 0,-4.261 -3.46,-7.718 -7.71,-7.718 l -26.31,0 c -3.54,-0.524 -6.23,-3.571 -6.23,-7.243 l -0.08,-99.961 c 0.99,-6.5269 4.82,-14.7691 14.67,-14.7691 l 6.03,-0.0391 3.73,0 c 4.26,0 7.7,-3.4414 7.7,-7.6914 l 0,-70.2187 c 0,-4.25782 -3.44,-7.71095 -7.7,-7.71095 l -49.12,0 c -30.57,0 -61.87,0 -61.87,82.08985 l 0,118.3004 c 0,3.672 -2.72,6.719 -6.25,7.243 l -7.04,0 c -4.25,0 -7.71,3.457 -7.71,7.718 l -0.06,58.059 0.06,3.66"
             inkscape:connector-curvature="0"
             id="path36"
             style="fill:#1c63ac;fill-opacity:1;fill-rule:nonzero;stroke:none" /><path
             d="m 718.672,397.371 c 0,4.25 3.445,7.707 7.695,7.707 l 77.625,0 c 4.25,0 7.707,-3.457 7.707,-7.707 l 0.02,-12.152 0,-361.4495 -0.02,-12.0078 c 0,-4.24217 -3.457,-7.70311 -7.707,-7.70311 l -10.125,0 -55.371,-0.08984 -12.129,0.08984 c -4.25,0 -7.695,3.46094 -7.695,7.70311 l 0,33.2188 0.019,318.4995 -0.019,33.891"
             inkscape:connector-curvature="0"
             id="path38"
             style="fill:#1c63ac;fill-opacity:1;fill-rule:nonzero;stroke:none" /><path
             d="m 1011.15,82.9688 c 43.11,0 60.9,26.3122 60.9,62.8122 0,34.688 -18.56,62.797 -60.9,62.797 -45.818,0 -68.67,-26.59 -68.623,-62.867 0.051,-36.25 22.661,-62.7422 68.623,-62.7422 z m 148.28,-59.1993 -0.02,-12.0078 c 0,-4.24217 -3.45,-7.70311 -7.71,-7.70311 l -10.12,0 -55.37,-0.08984 -12.13,0.08984 c -4.26,0 -7.69,3.46094 -7.69,7.70311 l 0,4.6289 C 1041.87,5.92188 1019.72,0 996.223,0 903.887,0 856.934,66.0391 856.934,147.48 c 0,81.469 46.953,147.5 139.289,147.5 20.807,0 40.577,-6.05 58.397,-16.089 0.98,-0.371 2.04,-0.59 3.15,-0.59 4.75,0 8.6,3.847 8.6,8.597 l 0.02,77.243 0.02,21.078 -0.02,12.152 c 0,4.25 3.43,7.707 7.69,7.707 l 77.62,0 c 4.26,0 7.71,-3.457 7.71,-7.707 l 0.02,-12.152 0,-361.4495"
             inkscape:connector-curvature="0"
             id="path40"
             style="fill:#1c63ac;fill-opacity:1;fill-rule:nonzero;stroke:none" /></g></g><g
         id="g42"><g
           clip-path="url(#clipPath46)"
           id="g44"><g
             clip-path="url(#clipPath52)"
             id="g50"><path
               d="m 1582,480 0,1 -1,0 0,2 -1,0 0,2 -1,0 0,2 -1,0 0,2 -1,0 0,2 -1,0 0,2 -1,0 0,2 -1,0 0,2 -1,0 0,2 -1,0 0,2 -1,0 0,2 -1,0 0,2 -1,0 0,2 -1,0 0,2 -1,0 0,2 -1,0 0,2 -1,0 0,2 -1,0 0,2 -1,0 0,2 -1,0 0,2 -1,0 0,2 -1,0 0,2 -1,0 0,2 -1,0 0,2 -1,0 0,2 -1,0 0,2 -1,0 0,2 -1,0 0,2 -1,0 0,2 -1,0 0,2 -1,0 0,2 -1,0 0,1 -1,0 0,2 -1,0 0,2 -1,0 0,2 -1,0 0,2 -1,0 0,2 -1,0 0,2 -1,0 0,2 -1,0 0,2 -1,0 0,2 -1,0 0,2 -1,0 0,2 -1,0 0,2 -1,0 0,2 -1,0 0,2 -1,0 0,2 -1,0 0,2 -1,0 0,2 -1,0 0,2 -1,0 0,2 -1,0 0,2 -1,0 0,2 -1,0 0,2 -1,0 0,2 -1,0 0,2 -1,0 0,2 -1,0 0,2 -1,0 0,2 -1,0 0,2 -1,0 0,2 -1,0 0,2 -1,0 0,2 -1,0 0,2 -1,0 0,2 -1,0 0,2 -1,0 0,2 -1,0 0,2 -1,0 0,2 -1,0 0,2 -1,0 0,2 -1,0 0,2 -1,0 0,2 -1,0 0,2 -1,0 0,2 -1,0 0,2 -1,0 0,2 -1,0 0,2 -1,0 0,2 -1,0 0,2 -1,0 0,2 -1,0 0,2 -1,0 0,2 -1,0 0,2 -1,0 0,2 -1,0 0,2 -1,0 0,2 -1,0 0,2 -1,0 0,2 -1,0 0,2 -1,0 0,2 -1,0 0,2 -1,0 0,2 -1,0 0,2 -1,0 0,2 -1,0 0,2 -1,0 0,2 -1,0 0,2 -1,0 0,2 -1,0 0,2 -1,0 0,2 -1,0 0,2 -1,0 0,2 -1,0 0,2 -1,0 0,2 -1,0 0,2 -1,0 0,2 -1,0 0,2 -1,0 0,2 -1,0 0,2 -1,0 0,2 -1,0 0,2 -1,0 0,2 -1,0 0,2 -1,0 0,2 -1,0 0,2 -1,0 0,2 -1,0 0,2 -1,0 0,2 -1,0 0,2 -1,0 0,2 -1,0 0,2 -1,0 0,2 -1,0 0,2 -1,0 0,2 -1,0 0,2 -1,0 0,2 -1,0 0,2 -1,0 0,2 -1,0 0,2 -1,0 0,2 -1,0 0,2 -1,0 0,2 -1,0 0,2 -1,0 0,2 -1,0 0,2 -1,0 0,2 -1,0 0,2 -1,0 0,2 -1,0 0,2 -1,0 0,2 -1,0 0,2 -1,0 0,2 -1,0 0,1 -1,0 0,2 -1,0 0,2 -1,0 0,2 -1,0 0,2 -1,0 0,2 -1,0 0,2 -1,0 0,2 -1,0 0,2 -1,0 0,2 -1,0 0,2 -1,0 0,2 -1,0 0,2 -1,0 0,2 -1,0 0,2 -1,0 0,2 -1,0 0,2 -1,0 0,2 -1,0 0,2 -1,0 0,2 -1,0 0,2 -1,0 0,2 -1,0 0,2 -1,0 0,2 -1,0 0,2 -1,0 0,2 -1,0 0,2 -1,0 0,2 -1,0 0,2 -1,0 0,2 -1,0 0,2 -1,0 0,2 -1,0 0,2 -1,0 0,2 -1,0 0,2 -1,0 0,2 -1,0 0,2 -1,0 0,2 -1,0 0,2 -1,0 0,2 -1,0 0,2 -1,0 0,2 -1,0 0,2 -1,0 0,2 -1,0 0,2 -1,0 0,2 -1,0 0,2 -1,0 0,2 -1,0 0,1 -1,0 0,-1 -1,0 0,-2 -1,0 0,-1 -1,0 0,-2 -1,0 0,-1 -1,0 0,-1 -1,0 0,-2 -1,0 0,-1 -1,0 0,-2 -1,0 0,-1 -1,0 0,-2 -1,0 0,-1 -1,0 0,-2 -1,0 0,-1 -1,0 0,-1 -1,0 0,-2 -1,0 0,-1 -1,0 0,-2 -1,0 0,-1 -1,0 0,-2 -1,0 0,-1 -1,0 0,-2 -1,0 0,-1 -1,0 0,-2 -1,0 0,-1 -1,0 0,-1 -1,0 0,-2 -1,0 0,-1 -1,0 0,-2 -1,0 0,-1 -1,0 0,-2 -1,0 0,-1 -1,0 0,-2 -1,0 0,-1 -1,0 0,-1 -1,0 0,-2 -1,0 0,-1 -1,0 0,-2 -1,0 0,-1 -1,0 0,-2 -1,0 0,-1 -1,0 0,-2 -1,0 0,-1 -1,0 0,-1 -1,0 0,-2 -1,0 0,-1 -1,0 0,-2 -1,0 0,-1 -1,0 0,-2 -1,0 0,-1 -1,0 0,-2 -1,0 0,-1 -1,0 0,-1 -1,0 0,-2 -1,0 0,-1 -1,0 0,-2 -1,0 0,-1 -1,0 0,-2 -1,0 0,-1 -1,0 0,-2 -1,0 0,-1 -1,0 0,-1 -1,0 0,-2 -1,0 0,-1 -1,0 0,-2 -1,0 0,-1 -1,0 0,-2 -1,0 0,-1 -1,0 0,-2 -1,0 0,-1 -1,0 0,-1 -1,0 0,-2 -1,0 0,-1 -1,0 0,-2 -1,0 0,-1 -1,0 0,-2 -1,0 0,-1 -1,0 0,-2 -1,0 0,-1 -1,0 0,-1 -1,0 0,-2 -1,0 0,-1 -1,0 0,-2 -1,0 0,-1 -1,0 0,-2 -1,0 0,-1 -1,0 0,-2 -1,0 0,-1 -1,0 0,-1 -1,0 0,-2 -1,0 0,-1 -1,0 0,-2 -1,0 0,-1 -1,0 0,-2 -1,0 0,-1 -1,0 0,-2 -1,0 0,-1 -1,0 0,-1 -1,0 0,-2 -1,0 0,-1 -1,0 0,-2 -1,0 0,-1 -1,0 0,-2 -1,0 0,-1 -1,0 0,-2 -1,0 0,-1 -1,0 0,-2 -1,0 0,-1 -1,0 0,-1 -1,0 0,-2 -1,0 0,-1 -1,0 0,-2 -1,0 0,-1 -1,0 0,-2 -1,0 0,-1 -1,0 0,-2 -1,0 0,-1 -1,0 0,-1 -1,0 0,-2 -1,0 0,-1 -1,0 0,-2 -1,0 0,-1 -1,0 0,-2 -1,0 0,-1 -1,0 0,-2 -1,0 0,-1 -1,0 0,-1 -1,0 0,-2 -1,0 0,-1 -1,0 0,-2 -1,0 0,-1 -1,0 0,-2 -1,0 0,-1 -1,0 0,-2 -1,0 0,-1 -1,0 0,-1 -1,0 0,-2 -1,0 0,-1 -1,0 0,-2 -1,0 0,-1 -1,0 0,-2 -1,0 0,-1 -1,0 0,-2 -1,0 0,-1 -1,0 0,-1 -1,0 0,-2 -1,0 0,-1 -1,0 0,-2 -1,0 0,-1 -1,0 0,-2 -1,0 0,-1 -1,0 0,-2 -1,0 0,-1 -1,0 0,-1 -1,0 0,-2 -1,0 0,-1 -1,0 0,-2 -1,0 0,-1 -1,0 0,-2 -1,0 0,-1 -1,0 0,-2 -1,0 0,-1 -1,0 0,-1 -1,0 0,-2 -1,0 0,-1 -1,0 0,-2 -1,0 0,-1 -1,0 0,-2 -1,0 0,-1 -1,0 0,-2 -1,0 0,-1 -1,0 0,-1 -1,0 0,-2 -1,0 0,-1 -1,0 0,-2 -1,0 0,-1 -1,0 0,-2 -1,0 0,-1 -1,0 0,-2 -1,0 0,-1 -1,0 0,-1 -1,0 0,-2 -1,0 0,-1 -1,0 0,-2 -1,0 0,-1 -1,0 0,-2 -1,0 0,-1 -1,0 0,-2 -1,0 0,-1 -1,0 0,-2 -1,0 0,-1 -1,0 0,-1 -1,0 0,-2 -1,0 0,-1 -1,0 0,-2 -1,0 0,-1 -1,0 0,-2 -1,0 0,-1 -1,0 0,-2 -1,0 0,-1 -1,0 0,-1 -1,0 0,-2 -1,0 0,-1 -1,0 0,-2 -1,0 0,-1 -1,0 0,-2 -1,0 0,-1 -1,0 0,-2 -1,0 0,-1 -1,0 0,-1 -1,0 0,-2 -1,0 0,-1 -1,0 0,-2 -1,0 0,-1 -1,0 0,-2 -1,0 0,-1 -1,0 0,-2 -1,0 0,-1 -1,0 0,-1 -1,0 0,-2 -1,0 0,-1 -1,0 0,-2 -1,0 0,-1 -1,0 0,-2 -1,0 0,-1 -1,0 0,-2 -1,0 0,-1 -1,0 0,-1 -1,0 0,-2 -1,0 0,-1 -1,0 0,-2 -1,0 0,-1 -1,0 0,-2 -1,0 0,-1 -1,0 0,-2 -1,0 0,-1 -1,0 0,-1 -1,0 0,-2 -1,0 0,-1 -1,0 0,-2 -1,0 0,-1 -1,0 0,-2 -1,0 0,-1 -1,0 0,-1 -1,0 0,3 1,0 0,4 1,0 0,4 1,0 0,5 1,0 0,4 1,0 0,4 1,0 0,4 1,0 0,5 1,0 0,4 1,0 0,4 1,0 0,4 1,0 0,4 1,0 0,5 1,0 0,4 1,0 0,4 1,0 0,4 1,0 0,5 1,0 0,4 1,0 0,4 1,0 0,4 1,0 0,4 1,0 0,5 1,0 0,4 1,0 0,4 1,0 0,4 1,0 0,5 1,0 0,4 1,0 0,4 1,0 0,4 1,0 0,4 1,0 0,5 1,0 0,4 1,0 0,4 1,0 0,4 1,0 0,5 1,0 0,4 1,0 0,4 1,0 0,4 1,0 0,4 1,0 0,5 1,0 0,4 1,0 0,4 1,0 0,4 1,0 0,5 1,0 0,4 1,0 0,4 1,0 0,4 1,0 0,4 1,0 0,5 1,0 0,4 1,0 0,4 1,0 0,4 1,0 0,4 1,0 0,5 1,0 0,4 1,0 0,4 1,0 0,4 1,0 0,5 1,0 0,4 1,0 0,4 1,0 0,4 1,0 0,4 1,0 0,5 1,0 0,4 1,0 0,4 1,0 0,4 1,0 0,5 1,0 0,4 1,0 0,4 1,0 0,4 1,0 0,4 1,0 0,5 1,0 0,4 1,0 0,4 1,0 0,4 1,0 0,5 1,0 0,4 1,0 0,4 1,0 0,4 1,0 0,4 1,0 0,5 1,0 0,4 1,0 0,4 1,0 0,4 1,0 0,5 1,0 0,4 1,0 0,4 1,0 0,4 1,0 0,4 1,0 0,5 1,0 0,4 1,0 0,4 1,0 0,4 1,0 0,5 1,0 0,4 1,0 0,4 1,0 0,4 1,0 0,4 1,0 0,5 1,0 0,1 -1,0 0,-1 -4,0 0,-1 -3,0 0,-1 -4,0 0,-1 -4,0 0,-1 -3,0 0,-1 -4,0 0,-1 -4,0 0,-1 -3,0 0,-1 -4,0 0,-1 -4,0 0,-1 -3,0 0,-1 -4,0 0,-1 -3,0 0,-1 -4,0 0,-1 -4,0 0,-1 -3,0 0,-1 -4,0 0,-1 -4,0 0,-1 -3,0 0,-1 -4,0 0,-1 -4,0 0,-1 -3,0 0,-1 -4,0 0,-1 -4,0 0,-1 -3,0 0,-1 -4,0 0,-1 -4,0 0,-1 -3,0 0,-1 -4,0 0,-1 -3,0 0,-1 -4,0 0,-1 -4,0 0,-1 -3,0 0,-1 -4,0 0,-1 -4,0 0,-1 -3,0 0,-1 -4,0 0,-1 -4,0 0,-1 -3,0 0,-1 -4,0 0,-1 -4,0 0,-1 -3,0 0,-1 -4,0 0,-1 -4,0 0,-1 -3,0 0,-1 -4,0 0,-1 -4,0 0,-1 -3,0 0,-1 -4,0 0,-1 -3,0 0,-1 -4,0 0,-1 -4,0 0,-1 -3,0 0,-1 -4,0 0,-1 -4,0 0,-1 -3,0 0,-1 -4,0 0,-1 -4,0 0,-1 -3,0 0,-1 -4,0 0,-1 -4,0 0,-1 -3,0 0,-1 -4,0 0,-1 -4,0 0,-1 -3,0 0,-1 -4,0 0,-1 -3,0 0,-1 -4,0 0,-1 -4,0 0,-1 -3,0 0,-1 -4,0 0,-1 -4,0 0,-1 -3,0 0,-1 -4,0 0,-1 -4,0 0,-1 -3,0 0,-1 -4,0 0,-1 -4,0 0,-1 -3,0 0,-1 -4,0 0,-1 -4,0 0,-1 -3,0 0,-1 -4,0 0,-1 -3,0 0,-1 -4,0 0,-1 -4,0 0,-1 -3,0 0,-1 -4,0 0,-1 -4,0 0,-1 -3,0 0,-1 -4,0 0,-1 -4,0 0,-1 -3,0 0,-1 -4,0 0,-1 -4,0 0,-1 -3,0 0,-1 -4,0 0,-1 -4,0 0,-1 -3,0 0,-1 -4,0 0,-1 -3,0 0,-1 -4,0 0,-1 -4,0 0,-1 -3,0 0,-1 -4,0 0,-1 -4,0 0,-1 -3,0 0,-1 -4,0 0,-1 -4,0 0,-1 -3,0 0,-1 -4,0 0,-1 -4,0 0,-1 -4,0 0,1 1,0 0,1 2,0 0,1 1,0 0,1 1,0 0,1 2,0 0,1 1,0 0,1 1,0 0,1 2,0 0,1 1,0 0,1 1,0 0,1 2,0 0,1 1,0 0,1 1,0 0,1 2,0 0,1 1,0 0,1 1,0 0,1 2,0 0,1 1,0 0,1 1,0 0,1 2,0 0,1 1,0 0,1 1,0 0,1 2,0 0,1 1,0 0,1 1,0 0,1 2,0 0,1 1,0 0,1 1,0 0,1 2,0 0,1 1,0 0,1 2,0 0,1 1,0 0,1 1,0 0,1 2,0 0,1 1,0 0,1 1,0 0,1 2,0 0,1 1,0 0,1 1,0 0,1 2,0 0,1 1,0 0,1 1,0 0,1 2,0 0,1 1,0 0,1 1,0 0,1 2,0 0,1 1,0 0,1 1,0 0,1 2,0 0,1 1,0 0,1 1,0 0,1 2,0 0,1 1,0 0,1 1,0 0,1 2,0 0,1 1,0 0,1 1,0 0,1 2,0 0,1 1,0 0,1 1,0 0,1 2,0 0,1 1,0 0,1 1,0 0,1 2,0 0,1 1,0 0,1 2,0 0,1 1,0 0,1 1,0 0,1 2,0 0,1 1,0 0,1 1,0 0,1 2,0 0,1 1,0 0,1 1,0 0,1 2,0 0,1 1,0 0,1 1,0 0,1 2,0 0,1 1,0 0,1 1,0 0,1 2,0 0,1 1,0 0,1 1,0 0,1 2,0 0,1 1,0 0,1 1,0 0,1 2,0 0,1 1,0 0,1 1,0 0,1 2,0 0,1 1,0 0,1 1,0 0,1 2,0 0,1 1,0 0,1 1,0 0,1 2,0 0,1 1,0 0,1 2,0 0,1 1,0 0,1 1,0 0,1 2,0 0,1 1,0 0,1 1,0 0,1 2,0 0,1 1,0 0,1 1,0 0,1 2,0 0,1 1,0 0,1 1,0 0,1 2,0 0,1 1,0 0,1 1,0 0,1 2,0 0,1 1,0 0,1 1,0 0,1 2,0 0,1 1,0 0,1 1,0 0,1 2,0 0,1 1,0 0,1 1,0 0,1 2,0 0,1 1,0 0,1 1,0 0,1 2,0 0,1 1,0 0,1 1,0 0,1 2,0 0,1 1,0 0,1 1,0 0,1 2,0 0,1 1,0 0,1 2,0 0,1 1,0 0,1 1,0 0,1 2,0 0,1 1,0 0,1 1,0 0,1 2,0 0,1 1,0 0,1 1,0 0,1 2,0 0,1 1,0 0,1 1,0 0,1 2,0 0,1 1,0 0,1 1,0 0,1 2,0 0,1 1,0 0,1 1,0 0,1 2,0 0,1 1,0 0,1 1,0 0,1 2,0 0,1 1,0 0,1 1,0 0,1 2,0 0,1 1,0 0,1 1,0 0,1 2,0 0,1 1,0 0,1 1,0 0,1 2,0 0,1 1,0 0,1 1,0 0,1 2,0 0,1 1,0 0,1 2,0 0,1 1,0 0,1 1,0 0,1 2,0 0,1 1,0 0,1 1,0 0,1 2,0 0,1 1,0 0,1 1,0 0,1 2,0 0,1 1,0 0,1 1,0 0,1 2,0 0,1 1,0 0,1 1,0 0,1 2,0 0,1 1,0 0,1 1,0 0,1 2,0 0,1 1,0 0,1 1,0 0,1 2,0 0,1 1,0 0,1 1,0 0,1 2,0 0,1 1,0 0,1 1,0 0,1 2,0 0,1 1,0 0,1 1,0 0,1 2,0 0,1 1,0 0,1 1,0 0,1 2,0 0,1 1,0 0,1 2,0 0,1 1,0 0,1 1,0 0,1 2,0 0,1 1,0 0,1 1,0 0,1 2,0 0,1 1,0 0,1 1,0 0,1 2,0 0,1 1,0 0,1 1,0 0,1 2,0 0,1 1,0 0,1 1,0 0,1 2,0 0,1 1,0 0,1 1,0 0,1 2,0 0,1 1,0 0,1 1,0 0,1 2,0 0,1 1,0 0,1 1,0 0,1 2,0 0,1 1,0 0,1 1,0 0,1 2,0 0,1 1,0 0,1 1,0 0,1 2,0 0,1 1,0 0,1 1,0 0,1 2,0 0,1 1,0 0,1 2,0 0,1 1,0 0,1 1,0 0,1 2,0 0,1 1,0 0,1 1,0 0,1 2,0 0,1 1,0 0,1 1,0 0,1 2,0 0,1 1,0 0,1 1,0 0,1 2,0 0,1 1,0 0,1 1,0 0,1 2,0 0,1 1,0 0,1 1,0 0,1 1,0 0,1 -2,0 0,1 -2,0 0,1 -2,0 0,1 -2,0 0,1 -3,0 0,1 -2,0 0,1 -2,0 0,1 -2,0 0,1 -2,0 0,1 -2,0 0,1 -3,0 0,1 -2,0 0,1 -2,0 0,1 -2,0 0,1 -2,0 0,1 -3,0 0,1 -2,0 0,1 -2,0 0,1 -2,0 0,1 -2,0 0,1 -2,0 0,1 -3,0 0,1 -2,0 0,1 -2,0 0,1 -2,0 0,1 -2,0 0,1 -2,0 0,1 -3,0 0,1 -2,0 0,1 -2,0 0,1 -2,0 0,1 -2,0 0,1 -3,0 0,1 -2,0 0,1 -2,0 0,1 -2,0 0,1 -2,0 0,1 -2,0 0,1 -3,0 0,1 -2,0 0,1 -2,0 0,1 -2,0 0,1 -2,0 0,1 -2,0 0,1 -3,0 0,1 -2,0 0,1 -2,0 0,1 -2,0 0,1 -2,0 0,1 -3,0 0,1 -2,0 0,1 -2,0 0,1 -2,0 0,1 -2,0 0,1 -2,0 0,1 -3,0 0,1 -2,0 0,1 -2,0 0,1 -2,0 0,1 -2,0 0,1 -2,0 0,1 -3,0 0,1 -2,0 0,1 -2,0 0,1 -2,0 0,1 -2,0 0,1 -3,0 0,1 -2,0 0,1 -2,0 0,1 -2,0 0,1 -2,0 0,1 -2,0 0,1 -3,0 0,1 -2,0 0,1 -2,0 0,1 -2,0 0,1 -2,0 0,1 -2,0 0,1 -3,0 0,1 -2,0 0,1 -2,0 0,1 -2,0 0,1 -2,0 0,1 -3,0 0,1 -2,0 0,1 -2,0 0,1 -2,0 0,1 -2,0 0,1 -2,0 0,1 -3,0 0,1 -2,0 0,1 -2,0 0,1 -2,0 0,1 -2,0 0,1 -3,0 0,1 -2,0 0,1 -2,0 0,1 -2,0 0,1 -2,0 0,1 -2,0 0,1 -3,0 0,1 -2,0 0,1 -2,0 0,1 -2,0 0,1 -2,0 0,1 -2,0 0,1 -3,0 0,1 -2,0 0,1 -2,0 0,1 -2,0 0,1 -2,0 0,1 -3,0 0,1 -2,0 0,1 -2,0 0,1 -2,0 0,1 -2,0 0,1 -2,0 0,1 -3,0 0,1 -2,0 0,1 -2,0 0,1 -2,0 0,1 -2,0 0,1 -2,0 0,1 -3,0 0,1 -2,0 0,1 -2,0 0,1 -2,0 0,1 -2,0 0,1 -3,0 0,1 -2,0 0,1 -2,0 0,1 -2,0 0,1 -2,0 0,1 -2,0 0,1 -3,0 0,1 -2,0 0,1 -2,0 0,1 -2,0 0,1 -2,0 0,1 -2,0 0,1 -3,0 0,1 -2,0 0,1 -2,0 0,1 -2,0 0,1 -2,0 0,1 -3,0 0,1 -2,0 0,1 -2,0 0,1 -2,0 0,1 -2,0 0,1 -2,0 0,1 -3,0 0,1 -2,0 0,1 -2,0 0,1 -2,0 0,1 -2,0 0,1 -2,0 0,1 -3,0 0,1 -2,0 0,1 -2,0 0,1 -2,0 0,1 -2,0 0,1 -3,0 0,1 -2,0 0,1 -2,0 0,1 -2,0 0,1 -2,0 0,1 -2,0 0,1 -3,0 0,1 -2,0 0,1 -2,0 0,1 -2,0 0,1 -2,0 0,1 -2,0 0,1 -3,0 0,1 -2,0 0,1 -2,0 0,1 -2,0 0,1 -2,0 0,1 14,0 0,-1 17,0 0,-1 17,0 0,-1 17,0 0,-1 18,0 0,-1 17,0 0,-1 17,0 0,-1 17,0 0,-1 17,0 0,-1 18,0 0,-1 17,0 0,-1 17,0 0,-1 17,0 0,-1 17,0 0,-1 18,0 0,-1 17,0 0,-1 17,0 0,-1 17,0 0,-1 17,0 0,-1 18,0 0,-1 17,0 0,-1 17,0 0,-1 17,0 0,-1 17,0 0,-1 17,0 0,-1 2,0 0,2 -1,0 0,2 -1,0 0,2 -1,0 0,2 -1,0 0,3 -1,0 0,2 -1,0 0,2 -1,0 0,2 -1,0 0,2 -1,0 0,2 -1,0 0,2 -1,0 0,2 -1,0 0,2 -1,0 0,3 -1,0 0,2 -1,0 0,2 -1,0 0,2 -1,0 0,2 -1,0 0,2 -1,0 0,2 -1,0 0,2 -1,0 0,2 -1,0 0,3 -1,0 0,2 -1,0 0,2 -1,0 0,2 -1,0 0,2 -1,0 0,2 -1,0 0,2 -1,0 0,2 -1,0 0,3 -1,0 0,2 -1,0 0,2 -1,0 0,2 -1,0 0,2 -1,0 0,2 -1,0 0,2 -1,0 0,2 -1,0 0,2 -1,0 0,3 -1,0 0,2 -1,0 0,2 -1,0 0,2 -1,0 0,2 -1,0 0,2 -1,0 0,2 -1,0 0,2 -1,0 0,2 -1,0 0,3 -1,0 0,2 -1,0 0,2 -1,0 0,2 -1,0 0,2 -1,0 0,2 -1,0 0,2 -1,0 0,2 -1,0 0,2 -1,0 0,3 -1,0 0,2 -1,0 0,2 -1,0 0,2 -1,0 0,2 -1,0 0,2 -1,0 0,2 -1,0 0,2 -1,0 0,2 -1,0 0,3 -1,0 0,2 -1,0 0,2 -1,0 0,2 -1,0 0,2 -1,0 0,2 -1,0 0,2 -1,0 0,2 -1,0 0,2 -1,0 0,3 -1,0 0,2 -1,0 0,2 -1,0 0,2 -1,0 0,2 -1,0 0,2 -1,0 0,2 -1,0 0,2 -1,0 0,2 -1,0 0,3 -1,0 0,2 -1,0 0,2 -1,0 0,2 -1,0 0,2 -1,0 0,2 -1,0 0,2 -1,0 0,2 -1,0 0,3 -1,0 0,2 -1,0 0,2 -1,0 0,2 -1,0 0,2 -1,0 0,2 -1,0 0,2 -1,0 0,2 -1,0 0,2 -1,0 0,3 -1,0 0,2 -1,0 0,2 -1,0 0,2 -1,0 0,2 -1,0 0,2 -1,0 0,2 -1,0 0,2 -1,0 0,2 -1,0 0,3 -1,0 0,2 -1,0 0,2 -1,0 0,2 -1,0 0,2 -1,0 0,2 -1,0 0,2 -1,0 0,2 -1,0 0,2 -1,0 0,3 -1,0 0,2 -1,0 0,2 -1,0 0,2 -1,0 0,2 -1,0 0,2 -1,0 0,2 -1,0 0,2 -1,0 0,2 -1,0 0,3 -1,0 0,2 -1,0 0,2 -1,0 0,2 -1,0 0,2 -1,0 0,2 -1,0 0,2 -1,0 0,2 -1,0 0,2 -1,0 0,3 -1,0 0,2 -1,0 0,2 -1,0 0,2 -1,0 0,2 -1,0 0,2 -1,0 0,2 -1,0 0,2 -1,0 0,2 -1,0 0,3 -1,0 0,2 -1,0 0,2 -1,0 0,2 -1,0 0,2 -1,0 0,2 -1,0 0,2 -1,0 0,2 -1,0 0,2 -1,0 0,3 -1,0 0,2 -1,0 0,2 -1,0 0,2 -1,0 0,2 -1,0 0,2 -1,0 0,2 -1,0 0,2 -1,0 0,3 -1,0 0,2 -1,0 0,2 -1,0 0,2 -1,0 0,2 -1,0 0,2 -1,0 0,2 -1,0 0,2 -1,0 0,2 -1,0 0,3 -1,0 0,2 -1,0 0,2 -1,0 0,2 -1,0 0,2 -1,0 0,2 -1,0 0,2 -1,0 0,2 -1,0 0,2 -1,0 0,3 -1,0 0,2 -1,0 0,1 2,0 0,-1 1,0 0,-1 1,0 0,-1 1,0 0,-1 1,0 0,-1 1,0 0,-1 1,0 0,-1 2,0 0,-1 1,0 0,-1 1,0 0,-1 1,0 0,-1 1,0 0,-1 1,0 0,-1 1,0 0,-1 1,0 0,-1 1,0 0,-1 1,0 0,-1 1,0 0,-1 1,0 0,-1 1,0 0,-1 1,0 0,-1 1,0 0,-1 1,0 0,-1 1,0 0,-1 2,0 0,-1 1,0 0,-1 1,0 0,-1 1,0 0,-1 1,0 0,-1 1,0 0,-1 1,0 0,-1 1,0 0,-1 1,0 0,-1 1,0 0,-1 1,0 0,-1 1,0 0,-1 1,0 0,-1 1,0 0,-1 1,0 0,-1 1,0 0,-1 2,0 0,-1 1,0 0,-1 1,0 0,-1 1,0 0,-1 1,0 0,-1 1,0 0,-1 1,0 0,-1 1,0 0,-1 1,0 0,-1 1,0 0,-1 1,0 0,-1 1,0 0,-1 1,0 0,-1 1,0 0,-1 1,0 0,-1 1,0 0,-1 1,0 0,-1 2,0 0,-1 1,0 0,-1 1,0 0,-1 1,0 0,-1 1,0 0,-1 1,0 0,-1 1,0 0,-1 1,0 0,-1 1,0 0,-1 1,0 0,-1 1,0 0,-1 1,0 0,-1 1,0 0,-1 1,0 0,-1 1,0 0,-1 1,0 0,-1 1,0 0,-1 2,0 0,-1 1,0 0,-1 1,0 0,-1 1,0 0,-1 1,0 0,-1 1,0 0,-1 1,0 0,-1 1,0 0,-1 1,0 0,-1 1,0 0,-1 1,0 0,-1 1,0 0,-1 1,0 0,-1 1,0 0,-1 1,0 0,-1 1,0 0,-1 2,0 0,-1 1,0 0,-1 1,0 0,-1 1,0 0,-1 1,0 0,-1 1,0 0,-1 1,0 0,-1 1,0 0,-1 1,0 0,-1 1,0 0,-1 1,0 0,-1 1,0 0,-1 1,0 0,-1 1,0 0,-1 1,0 0,-1 1,0 0,-1 1,0 0,-1 2,0 0,-1 1,0 0,-1 1,0 0,-1 1,0 0,-1 1,0 0,-1 1,0 0,-1 1,0 0,-1 1,0 0,-1 1,0 0,-1 1,0 0,-1 1,0 0,-1 1,0 0,-1 1,0 0,-1 1,0 0,-1 1,0 0,-1 1,0 0,-1 1,0 0,-1 2,0 0,-1 1,0 0,-1 1,0 0,-1 1,0 0,-1 1,0 0,-1 1,0 0,-1 1,0 0,-1 1,0 0,-1 1,0 0,-1 1,0 0,-1 1,0 0,-1 1,0 0,-1 1,0 0,-1 1,0 0,-1 1,0 0,-1 1,0 0,-1 2,0 0,-1 1,0 0,-1 1,0 0,-1 1,0 0,-1 1,0 0,-1 1,0 0,-1 1,0 0,-1 1,0 0,-1 1,0 0,-1 1,0 0,-1 1,0 0,-1 1,0 0,-1 1,0 0,-1 1,0 0,-1 1,0 0,-1 1,0 0,-1 1,0 0,-1 2,0 0,-1 1,0 0,-1 1,0 0,-1 1,0 0,-1 1,0 0,-1 1,0 0,-1 1,0 0,-1 1,0 0,-1 1,0 0,-1 1,0 0,-1 1,0 0,-1 1,0 0,-1 1,0 0,-1 1,0 0,-1 1,0 0,-1 1,0 0,-1 1,0 0,-1 2,0 0,-1 1,0 0,-1 1,0 0,-1 1,0 0,-1 1,0 0,-1 1,0 0,-1 1,0 0,-1 1,0 0,-1 1,0 0,-1 1,0 0,-1 1,0 0,-1 1,0 0,-1 1,0 0,-1 1,0 0,-1 1,0 0,-1 1,0 0,-1 2,0 0,-1 1,0 0,-1 1,0 0,-1 1,0 0,-1 1,0 0,-1 1,0 0,-1 1,0 0,-1 1,0 0,-1 1,0 0,-1 1,0 0,-1 1,0 0,-1 1,0 0,-1 1,0 0,-1 1,0 0,-1 1,0 0,-1 1,0 0,-1 1,0 0,-1 2,0 0,-1 1,0 0,-1 1,0 0,-1 1,0 0,-1 1,0 0,-1 1,0 0,-1 1,0 0,-1 1,0 0,-1 1,0 0,-1 1,0 0,-1 1,0 0,-1 1,0 0,-1 1,0 0,-1 1,0 0,-1 1,0 0,-1 1,0 0,-1 1,0 0,-1 2,0 0,-1 1,0 0,-1 1,0 0,-1 1,0 0,-1 1,0 0,-1 1,0 0,-1 1,0 0,-1 1,0 0,-1 1,0 0,-1 1,0 0,-1 1,0 0,-1 1,0 0,-1 1,0 0,-1 1,0 0,-1 1,0 0,-1 1,0 0,-1 2,0 0,-1 1,0 0,-1 1,0 0,-1 1,0 0,-1 1,0 0,-1 1,0 0,-1 1,0 0,-1 1,0 0,-1 1,0 0,-1 1,0 0,-1 1,0 0,-1 1,0 0,-1 1,0 0,-1 1,0 0,-1 1,0 0,-1 1,0 0,-1 1,0 0,-1 2,0 0,-1 1,0 0,-1 1,0 0,-1 1,0 0,-1 1,0 0,-1 1,0 0,-1 1,0 0,-1 1,0 0,-1 1,0 0,-1 1,0 0,-1 1,0 0,-1 1,0 0,-1 1,0 0,-1 1,0 0,-1 1,0 0,-1 1,0 0,-1 1,0 0,-1 2,0 0,-1 1,0 0,-1 1,0 0,-1 1,0 0,-1 1,0 0,-1 1,0 0,-1 1,0 0,-1 1,0 0,-1 1,0 0,-1 1,0 0,-1 1,0 0,-1 1,0 0,-1 1,0 0,-1 1,0 0,-1 1,0 0,-1 1,0 0,-1 2,0 0,-1 1,0 0,-1 1,0 0,-1 1,0 0,3 1,0 0,3 1,0 0,4 1,0 0,4 1,0 0,4 1,0 0,4 1,0 0,4 1,0 0,3 1,0 0,4 1,0 0,4 1,0 0,4 1,0 0,4 1,0 0,3 1,0 0,4 1,0 0,4 1,0 0,4 1,0 0,4 1,0 0,4 1,0 0,3 1,0 0,4 1,0 0,4 1,0 0,4 1,0 0,4 1,0 0,4 1,0 0,3 1,0 0,4 1,0 0,4 1,0 0,4 1,0 0,4 1,0 0,3 1,0 0,4 1,0 0,4 1,0 0,4 1,0 0,4 1,0 0,4 1,0 0,3 1,0 0,4 1,0 0,4 1,0 0,4 1,0 0,4 1,0 0,3 1,0 0,4 1,0 0,4 1,0 0,4 1,0 0,4 1,0 0,4 1,0 0,3 1,0 0,4 1,0 0,4 1,0 0,4 1,0 0,4 1,0 0,3 1,0 0,4 1,0 0,4 1,0 0,4 1,0 0,4 1,0 0,4 1,0 0,3 1,0 0,4 1,0 0,4 1,0 0,4 1,0 0,4 1,0 0,4 1,0 0,3 1,0 0,4 1,0 0,4 1,0 0,4 1,0 0,4 1,0 0,3 1,0 0,4 1,0 0,4 1,0 0,4 1,0 0,4 1,0 0,4 1,0 0,3 1,0 0,4 1,0 0,4 1,0 0,4 1,0 0,4 1,0 0,3 1,0 0,4 1,0 0,4 1,0 0,4 1,0 0,4 1,0 0,4 1,0 0,3 1,0 0,4 1,0 0,4 1,0 0,4 1,0 0,4 1,0 0,3 1,0 0,4 1,0 0,4 1,0 0,4 1,0 0,4 1,0 0,4 1,0 0,3 1,0 0,4 1,0 0,4 1,0 0,4 1,0 0,4 1,0 0,4 1,0 0,3 1,0 0,4 1,0 0,4 1,0 0,4 1,0 0,4 1,0 0,3 1,0 0,3 1,0 0,-2 1,0 0,-9 1,0 0,-8 1,0 0,-9 1,0 0,-9 1,0 0,-8 1,0 0,-9 1,0 0,-8 1,0 0,-9 1,0 0,-8 1,0 0,-9 1,0 0,-8 1,0 0,-9 1,0 0,-8 1,0 0,-9 1,0 0,-9 1,0 0,-8 1,0 0,-9 1,0 0,-8 1,0 0,-9 1,0 0,-8 1,0 0,-9 1,0 0,-8 1,0 0,-9 1,0 0,-9 1,0 0,-8 1,0 0,-9 1,0 0,-8 1,0 0,-9 1,0 0,-8 1,0 0,-9 1,0 0,-8 1,0 0,-9 1,0 0,-8 1,0 0,-9 1,0 0,-9 1,0 0,-8 1,0 0,-9 1,0 0,-8 1,0 0,-9 1,0 0,-8 1,0 0,-9 1,0 0,-8 1,0 0,-9 1,0 0,-9 1,0 0,-8 1,0 0,-9 1,0 0,-8 1,0 0,-9 1,0 0,-8 1,0 0,-4 2,0 0,1 1,0 0,1 1,0 0,1 2,0 0,1 1,0 0,1 2,0 0,1 1,0 0,1 2,0 0,1 1,0 0,1 1,0 0,1 2,0 0,1 1,0 0,1 2,0 0,1 1,0 0,1 1,0 0,1 2,0 0,1 1,0 0,1 2,0 0,1 1,0 0,1 1,0 0,1 2,0 0,1 1,0 0,1 2,0 0,1 1,0 0,1 2,0 0,1 1,0 0,1 1,0 0,1 2,0 0,1 1,0 0,1 2,0 0,1 1,0 0,1 1,0 0,1 2,0 0,1 1,0 0,1 2,0 0,1 1,0 0,1 1,0 0,1 2,0 0,1 1,0 0,1 2,0 0,1 1,0 0,1 2,0 0,1 1,0 0,1 1,0 0,1 2,0 0,1 1,0 0,1 2,0 0,1 1,0 0,1 1,0 0,1 2,0 0,1 1,0 0,1 2,0 0,1 1,0 0,1 1,0 0,1 2,0 0,1 1,0 0,1 2,0 0,1 1,0 0,1 1,0 0,1 2,0 0,1 1,0 0,1 2,0 0,1 1,0 0,1 2,0 0,1 1,0 0,1 1,0 0,1 2,0 0,1 1,0 0,1 2,0 0,1 1,0 0,1 1,0 0,1 2,0 0,1 1,0 0,1 2,0 0,1 1,0 0,1 1,0 0,1 2,0 0,1 1,0 0,1 2,0 0,1 1,0 0,1 2,0 0,1 1,0 0,1 1,0 0,1 2,0 0,1 1,0 0,1 2,0 0,1 1,0 0,1 1,0 0,1 2,0 0,1 1,0 0,1 2,0 0,1 1,0 0,1 1,0 0,1 2,0 0,1 1,0 0,1 2,0 0,1 1,0 0,1 2,0 0,1 1,0 0,1 1,0 0,1 2,0 0,1 1,0 0,1 2,0 0,1 1,0 0,1 1,0 0,1 2,0 0,1 1,0 0,1 2,0 0,1 1,0 0,1 1,0 0,1 2,0 0,1 1,0 0,1 2,0 0,1 1,0 0,1 1,0 0,1 2,0 0,1 1,0 0,1 2,0 0,1 1,0 0,1 2,0 0,1 1,0 0,1 1,0 0,1 2,0 0,1 1,0 0,1 2,0 0,1 1,0 0,1 1,0 0,1 2,0 0,1 1,0 0,1 2,0 0,1 1,0 0,1 1,0 0,1 2,0 0,1 1,0 0,1 2,0 0,1 1,0 0,1 2,0 0,1 1,0 0,1 1,0 0,1 2,0 0,1 1,0 0,1 2,0 0,1 1,0 0,1 1,0 0,1 2,0 0,1 1,0 0,1 2,0 0,1 1,0 0,1 1,0 0,1 2,0 0,1 1,0 0,1 2,0 0,1 1,0 0,1 2,0 0,1 1,0 0,1 1,0 0,1 2,0 0,1 1,0 0,1 2,0 0,1 1,0 0,1 1,0 0,1 2,0 0,1 1,0 0,1 2,0 0,1 1,0 0,1 1,0 0,1 2,0 0,1 1,0 0,1 2,0 0,1 1,0 0,1 1,0 0,1 2,0 0,1 1,0 0,1 2,0 0,1 1,0 0,1 2,0 0,1 1,0 0,1 1,0 0,1 2,0 0,1 1,0 0,1 2,0 0,1 1,0 0,1 1,0 0,1 2,0 0,1 1,0 0,1 2,0 0,1 1,0 0,1 1,0 0,1 2,0 0,1 1,0 0,1 2,0 0,1 1,0 0,1 2,0 0,1 1,0 0,1 1,0 0,1 2,0 0,1 1,0 0,1 2,0 0,1 1,0 0,1 1,0 0,1 2,0 0,1 1,0 0,1 2,0 0,1 1,0 0,1 1,0 0,1 2,0 0,1 1,0 0,1 2,0 0,1 1,0 0,1 2,0 0,1 1,0 0,1 1,0 0,1 2,0 0,1 1,0 0,1 2,0 0,1 1,0 0,1 1,0 0,1 2,0 0,1 1,0 0,1 2,0 0,1 1,0 0,1 1,0 0,1 2,0 0,1 1,0 0,1 2,0 0,1 1,0 0,1 1,0 0,1 2,0 0,1 1,0 0,1 2,0 0,1 1,0 0,1 2,0 0,1 1,0 0,1 1,0 0,1 2,0 0,1 1,0 0,1 2,0 0,1 1,0 0,1 1,0 0,1 2,0 0,1 1,0 0,1 2,0 0,1 1,0 0,1 1,0 0,1 2,0 0,1 1,0 0,1 2,0 0,1 1,0 0,-2 -1,0 0,-2 -1,0 0,-1 -1,0 0,-2 -1,0 0,-1 -1,0 0,-2 -1,0 0,-1 -1,0 0,-2 -1,0 0,-2 -1,0 0,-1 -1,0 0,-2 -1,0 0,-1 -1,0 0,-2 -1,0 0,-1 -1,0 0,-2 -1,0 0,-1 -1,0 0,-2 -1,0 0,-1 -1,0 0,-2 -1,0 0,-1 -1,0 0,-2 -1,0 0,-1 -1,0 0,-2 -1,0 0,-1 -1,0 0,-2 -1,0 0,-1 -1,0 0,-2 -1,0 0,-1 -1,0 0,-2 -1,0 0,-1 -1,0 0,-2 -1,0 0,-2 -1,0 0,-1 -1,0 0,-2 -1,0 0,-1 -1,0 0,-2 -1,0 0,-1 -1,0 0,-2 -1,0 0,-1 -1,0 0,-2 -1,0 0,-1 -1,0 0,-2 -1,0 0,-1 -1,0 0,-2 -1,0 0,-1 -1,0 0,-2 -1,0 0,-1 -1,0 0,-2 -1,0 0,-1 -1,0 0,-2 -1,0 0,-1 -1,0 0,-2 -1,0 0,-1 -1,0 0,-2 -1,0 0,-1 -1,0 0,-2 -1,0 0,-2 -1,0 0,-1 -1,0 0,-2 -1,0 0,-1 -1,0 0,-2 -1,0 0,-1 -1,0 0,-2 -1,0 0,-1 -1,0 0,-2 -1,0 0,-1 -1,0 0,-2 -1,0 0,-1 -1,0 0,-2 -1,0 0,-1 -1,0 0,-2 -1,0 0,-1 -1,0 0,-2 -1,0 0,-1 -1,0 0,-2 -1,0 0,-1 -1,0 0,-2 -1,0 0,-1 -1,0 0,-2 -1,0 0,-2 -1,0 0,-1 -1,0 0,-2 -1,0 0,-1 -1,0 0,-2 -1,0 0,-1 -1,0 0,-2 -1,0 0,-1 -1,0 0,-2 -1,0 0,-1 -1,0 0,-2 -1,0 0,-1 -1,0 0,-2 -1,0 0,-1 -1,0 0,-2 -1,0 0,-1 -1,0 0,-2 -1,0 0,-1 -1,0 0,-2 -1,0 0,-1 -1,0 0,-2 -1,0 0,-1 -1,0 0,-2 -1,0 0,-1 -1,0 0,-2 -1,0 0,-2 -1,0 0,-1 -1,0 0,-2 -1,0 0,-1 -1,0 0,-2 -1,0 0,-1 -1,0 0,-2 -1,0 0,-1 -1,0 0,-2 -1,0 0,-1 -1,0 0,-2 -1,0 0,-1 -1,0 0,-2 -1,0 0,-1 -1,0 0,-2 -1,0 0,-1 -1,0 0,-2 -1,0 0,-1 -1,0 0,-2 -1,0 0,-1 -1,0 0,-2 -1,0 0,-1 -1,0 0,-2 -1,0 0,-2 -1,0 0,-1 -1,0 0,-2 -1,0 0,-1 -1,0 0,-2 -1,0 0,-1 -1,0 0,-2 -1,0 0,-1 -1,0 0,-2 -1,0 0,-1 -1,0 0,-2 -1,0 0,-1 -1,0 0,-2 -1,0 0,-1 -1,0 0,-2 -1,0 0,-1 -1,0 0,-2 -1,0 0,-1 -1,0 0,-2 -1,0 0,-1 -1,0 0,-2 -1,0 0,-1 -1,0 0,-2 -1,0 0,-1 -1,0 0,-2 -1,0 0,-2 -1,0 0,-1 -1,0 0,-2 -1,0 0,-1 -1,0 0,-2 -1,0 0,-1 -1,0 0,-2 -1,0 0,-1 -1,0 0,-2 -1,0 0,-1 -1,0 0,-2 -1,0 0,-1 -1,0 0,-2 -1,0 0,-1 -1,0 0,-2 -1,0 0,-1 -1,0 0,-2 -1,0 0,-1 -1,0 0,-2 -1,0 0,-1 -1,0 0,-2 -1,0 0,-1 -1,0 0,-2 -1,0 0,-2 -1,0 0,-1 -1,0 0,-2 -1,0 0,-1 -1,0 0,-2 -1,0 0,-1 -1,0 0,-2 -1,0 0,-1 -1,0 0,-2 -1,0 0,-1 -1,0 0,-2 -1,0 0,-1 -1,0 0,-2 -1,0 0,-1 -1,0 0,-2 -1,0 0,-1 -1,0 0,-2 -1,0 0,-1 -1,0 0,-2 -1,0 0,-1 -1,0 0,-2 -1,0 0,-1 -1,0 0,-2 -1,0 0,-1 -1,0 0,-2 -1,0 0,-2 -1,0 0,-1 -1,0 0,-2 -1,0 0,-1 -1,0 0,-2 -1,0 0,-1 -1,0 0,-2 -1,0 0,-1 -1,0 0,-2 -1,0 0,-1 -1,0 0,-2 -1,0 0,-1 -1,0 0,-2 -1,0 0,-1 -1,0 0,-2 -1,0 0,-1 -1,0 0,-2 -1,0 0,-1 -1,0 0,-2 -1,0 0,-1 -1,0 0,-2 -1,0 0,-1 -1,0 0,-2 -1,0 0,-2 -1,0 0,-1 -1,0 0,-2 -1,0 0,-1 -1,0 0,-2 -1,0 0,-1 -1,0 0,-2 -1,0 0,-1 -1,0 0,-2 -1,0 0,-1 -1,0 0,-2 -1,0 0,-1 -1,0 0,-1 8,0 0,-1 12,0 0,-1 12,0 0,-1 13,0 0,-1 12,0 0,-1 12,0 0,-1 12,0 0,-1 13,0 0,-1 12,0 0,-1 12,0 0,-1 12,0 0,-1 13,0 0,-1 12,0 0,-1 12,0 0,-1 12,0 0,-1 13,0 0,-1 12,0 0,-1 12,0 0,-1 12,0 0,-1 13,0 0,-1 12,0 0,-1 12,0 0,-1 12,0 0,-1 12,0 0,-1 13,0 0,-1 12,0 0,-1 12,0 0,-1 12,0 0,-1 13,0 0,-1 12,0 0,-1 12,0 0,-1 12,0 0,-1 13,0 0,-1 12,0 0,-1 12,0 0,-1 3,0 0,-1 -2,0 0,-1 -3,0 0,-1 -4,0 0,-1 -3,0 0,-1 -3,0 0,-1 -4,0 0,-1 -3,0 0,-1 -3,0 0,-1 -4,0 0,-1 -3,0 0,-1 -3,0 0,-1 -4,0 0,-1 -3,0 0,-1 -3,0 0,-1 -4,0 0,-1 -3,0 0,-1 -3,0 0,-1 -4,0 0,-1 -3,0 0,-1 -3,0 0,-1 -4,0 0,-1 -3,0 0,-1 -3,0 0,-1 -4,0 0,-1 -3,0 0,-1 -4,0 0,-1 -3,0 0,-1 -3,0 0,-1 -4,0 0,-1 -3,0 0,-1 -3,0 0,-1 -4,0 0,-1 -3,0 0,-1 -3,0 0,-1 -4,0 0,-1 -3,0 0,-1 -3,0 0,-1 -4,0 0,-1 -3,0 0,-1 -3,0 0,-1 -4,0 0,-1 -3,0 0,-1 -3,0 0,-1 -4,0 0,-1 -3,0 0,-1 -3,0 0,-1 -4,0 0,-1 -3,0 0,-1 -3,0 0,-1 -4,0 0,-1 -3,0 0,-1 -3,0 0,-1 -4,0 0,-1 -3,0 0,-1 -3,0 0,-1 -4,0 0,-1 -3,0 0,-1 -3,0 0,-1 -4,0 0,-1 -3,0 0,-1 -3,0 0,-1 -4,0 0,-1 -3,0 0,-1 -3,0 0,-1 -4,0 0,-1 -3,0 0,-1 -3,0 0,-1 -4,0 0,-1 -3,0 0,-1 -3,0 0,-1 -4,0 0,-1 -3,0 0,-1 -3,0 0,-1 -4,0 0,-1 -3,0 0,-1 -3,0 0,-1 -4,0 0,-1 -3,0 0,-1 -4,0 0,-1 -3,0 0,-1 -3,0 0,-1 -4,0 0,-1 -3,0 0,-1 -3,0 0,-1 -4,0 0,-1 -3,0 0,-1 -3,0 0,-1 -4,0 0,-1 -3,0 0,-1 -3,0 0,-1 -4,0 0,-1 -3,0 0,-1 -3,0 0,-1 -4,0 0,-1 -3,0 0,-1 -3,0 0,-1 -4,0 0,-1 -3,0 0,-1 -3,0 0,-1 -4,0 0,-1 -3,0 0,-1 -3,0 0,-1 -4,0 0,-1 -3,0 0,-1 -3,0 0,-1 -4,0 0,-1 -3,0 0,-1 -3,0 0,-1 -4,0 0,-1 -3,0 0,-1 -3,0 0,-1 -4,0 0,-1 -3,0 0,-1 -3,0 0,-1 -4,0 0,-1 -3,0 0,-1 -3,0 0,-1 -4,0 0,-1 -3,0 0,-1 -3,0 0,-1 -4,0 0,-1 -3,0 0,-1 -3,0 0,-2 1,0 0,-1 1,0 0,-1 1,0 0,-1 1,0 0,-1 1,0 0,-1 1,0 0,-1 1,0 0,-1 1,0 0,-1 1,0 0,-1 1,0 0,-1 1,0 0,-1 1,0 0,-1 1,0 0,-1 1,0 0,-1 1,0 0,-1 1,0 0,-1 1,0 0,-1 1,0 0,-1 1,0 0,-1 1,0 0,-1 1,0 0,-1 1,0 0,-1 1,0 0,-1 1,0 0,-1 1,0 0,-1 1,0 0,-1 1,0 0,-1 1,0 0,-1 1,0 0,-1 1,0 0,-1 1,0 0,-1 1,0 0,-1 1,0 0,-1 1,0 0,-1 1,0 0,-1 1,0 0,-1 1,0 0,-1 1,0 0,-1 1,0 0,-1 1,0 0,-1 1,0 0,-1 1,0 0,-1 1,0 0,-1 1,0 0,-1 1,0 0,-1 1,0 0,-1 1,0 0,-1 1,0 0,-1 1,0 0,-1 1,0 0,-1 1,0 0,-1 1,0 0,-1 1,0 0,-1 1,0 0,-1 1,0 0,-1 1,0 0,-1 1,0 0,-1 1,0 0,-1 1,0 0,-1 1,0 0,-1 1,0 0,-1 1,0 0,-1 1,0 0,-1 1,0 0,-1 1,0 0,-1 1,0 0,-1 1,0 0,-1 1,0 0,-1 1,0 0,-1 1,0 0,-1 1,0 0,-1 1,0 0,-1 2,0 0,-1 1,0 0,-1 1,0 0,-1 1,0 0,-1 1,0 0,-1 1,0 0,-1 1,0 0,-1 1,0 0,-1 1,0 0,-1 1,0 0,-1 1,0 0,-1 1,0 0,-1 1,0 0,-1 1,0 0,-1 1,0 0,-1 1,0 0,-1 1,0 0,-1 1,0 0,-1 1,0 0,-1 1,0 0,-1 1,0 0,-1 1,0 0,-1 1,0 0,-1 1,0 0,-1 1,0 0,-1 1,0 0,-1 1,0 0,-1 1,0 0,-1 1,0 0,-1 1,0 0,-1 1,0 0,-1 1,0 0,-1 1,0 0,-1 1,0 0,-1 1,0 0,-1 1,0 0,-1 1,0 0,-1 1,0 0,-1 1,0 0,-1 1,0 0,-1 1,0 0,-1 1,0 0,-1 1,0 0,-1 1,0 0,-1 1,0 0,-1 1,0 0,-1 1,0 0,-1 1,0 0,-1 1,0 0,-1 1,0 0,-1 1,0 0,-1 1,0 0,-1 1,0 0,-1 1,0 0,-1 1,0 0,-1 1,0 0,-1 1,0 0,-1 1,0 0,-1 1,0 0,-1 1,0 0,-1 1,0 0,-1 1,0 0,-1 1,0 0,-1 1,0 0,-1 1,0 0,-1 1,0 0,-1 1,0 0,-1 1,0 0,-1 1,0 0,-1 1,0 0,-1 1,0 0,-1 1,0 0,-1 1,0 0,-1 1,0 0,-1 1,0 0,-1 1,0 0,-1 1,0 0,-1 1,0 0,-1 1,0 0,-1 1,0 0,-1 1,0 0,-1 1,0 0,-1 1,0 0,-1 1,0 0,-1 1,0 0,-1 1,0 0,-1 1,0 0,-1 2,0 0,-1 1,0 0,-1 1,0 0,-1 1,0 0,-1 1,0 0,-1 1,0 0,-1 1,0 0,-1 1,0 0,-1 1,0 0,-1 1,0 0,-1 1,0 0,-1 1,0 0,-1 1,0 0,-1 1,0 0,-1 1,0 0,-1 1,0 0,-1 1,0 0,-1 1,0 0,-1 1,0 0,-1 1,0 0,-1 1,0 0,-1 1,0 0,-1 1,0 0,-1 1,0 0,-1 1,0 0,-1 1,0 0,-1 1,0 0,-1 1,0 0,-1 1,0 0,-1 1,0 0,-1 1,0 0,-1 1,0 0,-1 1,0 0,-1 1,0 0,-1 1,0 0,-1 1,0 0,-1 1,0 0,-1 1,0 0,-1 1,0 0,-1 1,0 0,-1 1,0 0,-1 1,0 0,-1 1,0 0,-1 1,0 0,-1 1,0 0,-1 1,0 0,-1 1,0 0,-1 1,0 0,-1 1,0 0,-1 1,0 0,-1 1,0 0,-1 1,0 0,-1 1,0 0,-1 1,0 0,-1 1,0 0,-1 1,0 0,-1 1,0 0,-1 1,0 0,-1 1,0 0,-1 1,0 0,-1 1,0 0,-1 1,0 0,-1 1,0 0,-1 1,0 0,-1 1,0 0,-1 1,0 0,-1 1,0 0,-1 1,0 0,-1 1,0 0,-1 1,0 0,-1 1,0 0,-1 1,0 0,-1 1,0 0,-1 1,0 0,-1 1,0 0,-1 1,0 0,-1 1,0 0,-1 1,0 0,-1 1,0 0,-1 1,0 0,-1 1,0 0,-1 1,0 0,-1 1,0 0,-1 1,0 0,-1 1,0 0,-1 1,0 0,-1 1,0 0,-1 2,0 0,-1 1,0 0,-1 1,0 0,-1 1,0 0,-1 1,0 0,-1 1,0 0,-1 1,0 0,-1 1,0 0,-1 1,0 0,-1 1,0 0,-1 1,0 0,-1 1,0 0,-1 1,0 0,-1 1,0 0,-1 1,0 0,-1 1,0 0,-1 1,0 0,-1 1,0 0,-1 1,0 0,-1 1,0 0,-1 1,0 0,-1 1,0 0,-1 1,0 0,-1 1,0 0,-1 1,0 0,-1 1,0 0,-1 1,0 0,-1 1,0 0,-1 1,0 0,-1 1,0 0,-1 1,0 0,-1 1,0 0,-1 1,0 0,-1 1,0 0,-1 1,0 0,-1 1,0 0,-1 1,0 0,-1 1,0 0,-1 1,0 0,-1 1,0 0,-1 1,0 0,-1 1,0 0,-1 1,0 0,-1 1,0 0,-1 1,0 0,-1 1,0 0,-1 1,0 0,-1 1,0 0,-1 1,0 0,-1 1,0 0,-1 1,0 0,-1 1,0 0,-1 1,0 0,-1 1,0 0,-2 -1,0 0,1 -3,0 0,1 -2,0 0,1 -2,0 0,1 -3,0 0,1 -2,0 0,1 -2,0 0,1 -3,0 0,1 -2,0 0,1 -2,0 0,1 -3,0 0,1 -2,0 0,1 -2,0 0,1 -2,0 0,1 -3,0 0,1 -2,0 0,1 -2,0 0,1 -3,0 0,1 -2,0 0,1 -2,0 0,1 -3,0 0,1 -2,0 0,1 -2,0 0,1 -3,0 0,1 -2,0 0,1 -2,0 0,1 -3,0 0,1 -2,0 0,1 -2,0 0,1 -3,0 0,1 -2,0 0,1 -2,0 0,1 -3,0 0,1 -2,0 0,1 -2,0 0,1 -2,0 0,1 -3,0 0,1 -2,0 0,1 -2,0 0,1 -3,0 0,1 -2,0 0,1 -2,0 0,1 -3,0 0,1 -2,0 0,1 -2,0 0,1 -3,0 0,1 -2,0 0,1 -2,0 0,1 -3,0 0,1 -2,0 0,1 -2,0 0,1 -3,0 0,1 -2,0 0,1 -2,0 0,1 -3,0 0,1 -2,0 0,1 -2,0 0,1 -2,0 0,1 -3,0 0,1 -2,0 0,1 -2,0 0,1 -3,0 0,1 -2,0 0,1 -2,0 0,1 -3,0 0,1 -2,0 0,1 -2,0 0,1 -3,0 0,1 -2,0 0,1 -2,0 0,1 -3,0 0,1 -2,0 0,1 -2,0 0,1 -3,0 0,1 -2,0 0,1 -2,0 0,1 -3,0 0,1 -2,0 0,1 -2,0 0,1 -2,0 0,1 -3,0 0,1 -2,0 0,1 -2,0 0,1 -3,0 0,1 -2,0 0,1 -2,0 0,1 -3,0 0,1 -2,0 0,1 -2,0 0,1 -3,0 0,1 -2,0 0,1 -2,0 0,1 -3,0 0,1 -2,0 0,1 -2,0 0,1 -3,0 0,1 -2,0 0,1 -2,0 0,1 -3,0 0,1 -2,0 0,1 -2,0 0,1 -2,0 0,1 -3,0 0,1 -2,0 0,1 -2,0 0,1 -3,0 0,1 -2,0 0,1 -2,0 0,1 -3,0 0,1 -2,0 0,1 -2,0 0,1 -3,0 0,1 -2,0 0,1 -2,0 0,1 -3,0 0,1 -2,0 0,1 -2,0 0,1 -3,0 0,1 -2,0 0,1 -2,0 0,1 -3,0 0,1 -2,0 0,1 -2,0 0,1 -2,0 0,1 -3,0 0,1 -2,0 0,1 -2,0 0,1 -3,0 0,1 -2,0 0,1 -2,0 0,1 -3,0 0,1 -2,0 0,1 -2,0 0,1 -3,0 0,1 -2,0 0,1 -2,0 0,1 -3,0 0,1 -2,0 0,1 -2,0 0,1 -3,0 0,1 -2,0 0,1 -2,0 0,1 -3,0 0,1 -2,0 0,1 -2,0 0,1 -2,0 0,1 -3,0 0,1 -2,0 0,1 -2,0 0,1 -3,0 0,1 -2,0 0,1 -2,0 0,1 -3,0 0,1 -2,0 0,1 -2,0 0,1 -3,0 0,1 -2,0 0,1 -2,0 0,1 -3,0 0,1 -2,0 0,1 -2,0 0,1 -3,0 0,1 -2,0 0,1 -2,0 0,1 -3,0 0,1 -2,0 0,1 -2,0 0,1 -2,0 0,1 -3,0 0,1 -2,0 0,1 -1,0 0,-2 1,0 0,-11 1,0 0,-11 1,0 0,-10 1,0 0,-11 1,0 0,-11 1,0 0,-11 1,0 0,-10 1,0 0,-11 1,0 0,-11 1,0 0,-10 1,0 0,-11 1,0 0,-11 1,0 0,-11 1,0 0,-10 1,0 0,-11 1,0 0,-11 1,0 0,-10 1,0 0,-11 1,0 0,-11 1,0 0,-11 1,0 0,-10 1,0 0,-11 1,0 0,-11 1,0 0,-11 1,0 0,-10 1,0 0,-11 1,0 0,-11 1,0 0,-10 1,0 0,-11 1,0 0,-11 1,0 0,-11 1,0 0,-10 1,0 0,-11 1,0 0,-11 1,0 0,-10 1,0 0,-11 1,0 0,-11 1,0 0,-11 1,0 0,-10 1,0 0,-7"
               inkscape:connector-curvature="0"
               id="path66"
               style="fill:url(#radialGradient56);fill-opacity:1;fill-rule:nonzero;stroke:none" /></g></g></g></g></g></svg>