<?xml version="1.0" encoding="UTF-8" standalone="no"?>
<svg
   xmlns:dc="http://purl.org/dc/elements/1.1/"
   xmlns:cc="http://creativecommons.org/ns#"
   xmlns:rdf="http://www.w3.org/1999/02/22-rdf-syntax-ns#"
   xmlns:svg="http://www.w3.org/2000/svg"
   xmlns="http://www.w3.org/2000/svg"
   viewBox="0 0 545.23999 63.826668"
   height="63.826668"
   width="545.23999"
   xml:space="preserve"
   id="svg2"
   version="1.1"><metadata
     id="metadata8"><rdf:RDF><cc:Work
         rdf:about=""><dc:format>image/svg+xml</dc:format><dc:type
           rdf:resource="http://purl.org/dc/dcmitype/StillImage" /></cc:Work></rdf:RDF></metadata><defs
     id="defs6"><clipPath
       id="clipPath20"
       clipPathUnits="userSpaceOnUse"><path
         id="path18"
         d="M 0,0 H 4089 V 478.695 H 0 Z" /></clipPath></defs><g
     transform="matrix(1.3333333,0,0,-1.3333333,0,63.826667)"
     id="g10"><g
       transform="scale(0.1)"
       id="g12"><g
         id="g14"><g
           clip-path="url(#clipPath20)"
           id="g16"><path
             id="path22"
             style="fill:#0b0809;fill-opacity:1;fill-rule:nonzero;stroke:none"
             d="m 928.699,457.637 c -1.09,0.058 -2.121,0.308 -3.242,0.308 h -10.496 c -19.172,0 -32.731,-8 -42.633,-24.086 l -28.43,-46.211 -40.046,-65.078 -46.993,-76.379 -25.757,41.954 -69.262,112.871 -19.813,32.265 c -8.636,14.196 -22.847,24.664 -43.25,24.664 h -10.5 c -26.547,0 -47.539,-20.984 -47.539,-47.515 V 65.8594 c 0,-11.875 4.422,-22.4219 11.5,-30.5156 8.438,-9.6602 20.742,-15.793 34.828,-15.793 25.946,0 46.922,20.3515 46.922,46.3086 V 280.754 l 19.16,-29.504 49.981,-77.051 12.992,-20.019 c 9.867,-14.825 22.207,-24.09 39.516,-24.09 17.293,0 29.633,9.265 39.523,24.09 l 83.367,128.437 V 67.082 c 0,-25.9297 20.973,-47.5312 46.93,-47.5312 26.555,0 47.535,21.0273 47.535,47.5312 V 410.43 c 0,25.429 -19.332,45.527 -44.293,47.207" /><path
             id="path24"
             style="fill:#0b0809;fill-opacity:1;fill-rule:nonzero;stroke:none"
             d="m 1266.32,103.566 c -76.56,0 -130.91,61.7 -130.91,135.801 v 1.258 c 0,5.031 0.3,9.98 0.78,14.875 2.7,27.547 12.91,52.605 28.9,72.625 10.79,13.488 24.22,24.621 39.77,32.695 17.6,9.141 37.87,14.414 60.21,14.414 29.43,0 55.52,-9.168 76.56,-24.617 24.03,-17.617 41.36,-43.437 49.35,-73.371 3.24,-12.058 5.02,-24.766 5.02,-37.879 v -1.222 c 0,-44.688 -19.41,-84.305 -51.54,-108.809 -21.14,-16.133 -47.75,-25.77 -78.14,-25.77 m 228.72,150.274 c -1.77,31.199 -9.77,60.633 -22.96,87.039 -36.19,72.441 -111.56,122.039 -205.76,122.039 -80.42,0 -147.56,-36.648 -188.23,-92.652 -4.6,-6.321 -8.84,-12.903 -12.74,-19.68 -7.43,-12.957 -13.56,-26.719 -18.25,-41.121 -7.22,-22.082 -11.11,-45.637 -11.11,-70.098 v -1.222 c 0,-122.879 95.71,-222.3052 229.08,-222.3052 65.29,0 121.78,24.1329 162.51,63.1446 42.53,40.7146 67.85,97.6176 67.85,160.3826 v 1.258 c 0,4.434 -0.16,8.828 -0.39,13.215" /><path
             id="path26"
             style="fill:#0b0809;fill-opacity:1;fill-rule:nonzero;stroke:none"
             d="m 1822.7,307.91 v -1.23 c 0,-0.371 -0.05,-0.731 -0.05,-1.094 -0.55,-35.84 -26.99,-60.059 -72.83,-60.059 H 1653.5 V 369.66 h 94.46 c 27.34,0 48.39,-7.363 61.09,-21.75 8.39,-9.512 13.11,-22.07 13.54,-37.637 0.02,-0.808 0.11,-1.543 0.11,-2.363 m 59.26,103.742 c -10.09,10.086 -22.02,18.446 -35.64,25.188 -24.65,12.148 -54.87,18.672 -90.33,18.672 h -150.05 c -26.54,0 -47.55,-21.008 -47.55,-47.543 V 67.082 c 0,-26.5039 21.01,-47.5312 47.55,-47.5312 26.59,0 47.56,21.0273 47.56,47.5312 v 94.52 h 75.96 l 92.62,-117.3832 c 11.12,-14.1602 25.29,-24.668 46.92,-24.668 22.86,0 45.06,17.3047 45.06,43.8476 0,14.8047 -6.15,24.7266 -15.41,36.4063 l -63.78,77.5113 -2.3,2.793 c 40.03,16.473 69.21,44.832 80.84,87.508 1.7,6.231 3.08,12.746 4.01,19.61 1.04,7.734 1.58,15.859 1.58,24.394 v 1.211 c 0,40.801 -12.96,74.746 -37.04,98.82" /><path
             id="path28"
             style="fill:#0b0809;fill-opacity:1;fill-rule:nonzero;stroke:none"
             d="m 2319.88,68.125 c -1.5,22.1016 -19.84,39.746 -42.3,39.746 H 2081.8 v 90.781 h 164.9 c 6.52,0 12.65,1.563 18.2,4.121 14.35,6.692 24.35,20.918 24.35,37.852 0,23.437 -19.1,42.598 -42.55,42.598 h -164.9 v 87.675 h 192.67 c 23.45,0 42.65,18.508 42.65,41.973 0,23.453 -19.2,42.637 -42.65,42.637 H 2034.9 c -26.54,0 -47.54,-21.004 -47.54,-47.539 V 70.8008 c 0,-26.582 21,-47.5586 47.54,-47.5586 h 242.68 c 23.43,0 42.6,18.5742 42.6,42.0117 0,0.9766 -0.23,1.8945 -0.3,2.8711" /><path
             id="path30"
             style="fill:#0b0809;fill-opacity:1;fill-rule:nonzero;stroke:none"
             d="m 452.262,160.918 c -3.719,11.887 -11.61,22.402 -22.965,28.809 -20.223,11.445 -46.383,7.246 -61.985,-9.961 -7.988,-8.828 -13,-20.204 -20.609,-29.434 -9.051,-11.113 -20.211,-20.809 -32.301,-28.555 -2.187,-1.406 -4.437,-2.695 -6.711,-3.965 -42.039,-23.6518 -94.699,-23.8159 -137.019,-0.078 -44.84,26.36 -72.8282,74.786 -70.66,127.207 0.972,22.95 7.718,45.039 19.043,64.395 13.734,23.547 34.179,43.086 59.398,55.254 23.391,11.308 48.531,15.312 74.309,13.457 23.043,-1.727 43.633,-14.832 66.523,-4.774 19.438,8.524 31.387,28.973 29.789,49.969 -0.094,1.223 -0.054,2.395 -0.242,3.606 -3.742,24.062 -22.266,37.332 -44.355,43.355 C 237.453,488.531 166.586,476.5 110.07,440.801 85.9219,425.527 64.4961,405.871 47.0234,382.48 39.6133,372.559 32.8242,362.062 26.9844,350.801 20.9453,339.316 16.082,327.5 12.082,315.527 -16.4961,229.746 6.69141,134.062 70.3047,69.4531 76.8242,62.8125 83.6328,56.3867 90.9961,50.4492 116.684,29.7852 146.082,15.7617 176.883,7.75391 243.684,-9.60938 317.102,2.375 375.031,41.8281 c 8.352,5.6719 16.5,11.7383 24.141,18.5821 20.191,18.0664 41.711,41.3478 52.043,66.8668 4.387,10.996 4.426,22.879 1.047,33.641" /><path
             id="path32"
             style="fill:#0b0809;fill-opacity:1;fill-rule:nonzero;stroke:none"
             d="m 239.328,304.258 c -31.609,0 -57.832,-22.969 -62.957,-53.094 -0.601,-3.527 -0.992,-7.102 -0.992,-10.773 0,-35.313 28.66,-63.946 63.949,-63.946 3.34,0 6.594,0.332 9.801,0.84 30.629,4.719 54.121,31.133 54.121,63.106 0,35.254 -28.609,63.867 -63.922,63.867" /><path
             id="path34"
             style="fill:#0b0809;fill-opacity:1;fill-rule:nonzero;stroke:none"
             d="m 2879.21,252.277 h -138.22 c -11.67,0 -21.5,-9.832 -21.5,-22.117 0,-11.672 9.83,-21.504 21.5,-21.504 h 115.49 V 101.77 c -29.49,-23.9614 -74.95,-43.0044 -124.09,-43.0044 -104.44,0 -170.17,76.1754 -170.17,178.7654 v 1.231 c 0,95.832 68.19,176.308 163.41,176.308 54.06,0 88.46,-15.972 119.18,-39.316 4.91,-3.688 9.83,-6.145 15.36,-6.145 12.9,0 23.96,11.063 23.96,24.575 0,8.601 -4.31,15.359 -9.83,19.66 -39.32,28.871 -81.71,46.074 -146.83,46.074 -129,0 -215.62,-104.438 -215.62,-222.387 v -1.226 c 0,-122.867 83.55,-221.1566 218.7,-221.1566 63.88,0 116.72,23.3438 156.03,52.2149 11.06,7.375 16.59,17.8164 16.59,29.4883 V 227.699 c 0,13.516 -11.06,24.578 -23.96,24.578" /><path
             id="path36"
             style="fill:#0b0809;fill-opacity:1;fill-rule:nonzero;stroke:none"
             d="m 3338.67,236.305 c 0,-97.676 -70.03,-176.3089 -168.32,-176.3089 -98.29,0 -169.55,79.8589 -169.55,177.5349 v 1.231 c 0,97.676 70.03,176.308 168.32,176.308 98.29,0 169.55,-79.859 169.55,-177.539 z m -168.32,223.613 c -130.85,0 -219.93,-103.824 -219.93,-222.387 v -1.226 c 0,-118.567 87.85,-221.1566 218.7,-221.1566 130.85,0 219.92,103.8206 219.92,222.3826 v 1.231 c 0,118.562 -87.84,221.156 -218.69,221.156" /><path
             id="path38"
             style="fill:#0b0809;fill-opacity:1;fill-rule:nonzero;stroke:none"
             d="m 3707.83,67.3633 h -223 V 431.043 c 0,13.512 -11.06,24.574 -24.58,24.574 -12.9,0 -23.96,-11.062 -23.96,-24.574 V 47.0938 c 0,-13.5157 11.06,-24.5743 23.96,-24.5743 h 247.58 c 12.28,0 22.11,9.8282 22.11,22.1133 0,12.2891 -9.83,22.7305 -22.11,22.7305" /><path
             id="path40"
             style="fill:#0b0809;fill-opacity:1;fill-rule:nonzero;stroke:none"
             d="m 4067.15,452.547 h -266 c -12.9,0 -23.96,-11.063 -23.96,-24.578 V 44.0195 c 0,-13.5117 11.06,-24.5703 23.96,-24.5703 13.52,0 24.58,11.0586 24.58,24.5703 V 209.887 h 213.78 c 12.29,0 22.12,9.832 22.12,22.117 0,12.285 -9.83,22.113 -22.12,22.113 h -213.78 v 153.578 h 241.42 c 12.29,0 22.12,10.446 22.12,22.731 0,12.289 -9.83,22.121 -22.12,22.121" /></g></g></g></g></svg>