<?xml version="1.0" encoding="UTF-8" ?>
<!DOCTYPE svg PUBLIC "-//W3C//DTD SVG 1.1//EN" "http://www.w3.org/Graphics/SVG/1.1/DTD/svg11.dtd">
<svg width="800pt" height="300pt" viewBox="0 0 800 300" version="1.1" xmlns="http://www.w3.org/2000/svg">
<g id="#bc980eff">
<path fill="#bc980e" opacity="1.00" d=" M 99.43 33.65 C 126.86 22.51 158.41 20.35 186.54 30.00 C 188.99 31.30 191.60 32.28 194.33 32.83 C 196.46 33.34 198.40 34.37 200.37 35.30 C 200.46 35.34 200.65 35.42 200.74 35.47 C 204.04 36.84 207.17 38.56 210.21 40.43 C 206.44 41.33 202.53 41.34 198.74 42.11 C 198.25 42.18 197.27 42.31 196.78 42.37 C 186.95 43.44 177.10 44.89 167.55 47.51 C 163.07 48.36 158.68 49.62 154.30 50.89 C 147.45 44.92 138.89 41.40 130.33 38.65 C 123.97 36.90 117.53 35.18 110.92 34.74 C 107.11 34.20 102.96 35.53 99.43 33.65 Z" />
</g>
<g id="#e4d38fff">
<path fill="#e4d38f" opacity="1.00" d=" M 186.54 30.00 C 189.19 30.78 191.85 31.60 194.33 32.83 C 191.60 32.28 188.99 31.30 186.54 30.00 Z" />
<path fill="#e4d38f" opacity="1.00" d=" M 42.92 81.64 L 43.18 81.87 C 44.02 82.53 44.76 83.28 45.40 84.12 C 44.50 92.38 45.18 100.70 44.96 108.99 C 44.69 115.01 45.81 121.00 45.04 127.00 C 46.35 133.51 45.79 140.15 46.21 146.73 C 45.18 158.51 48.22 170.48 45.17 182.12 C 44.27 184.78 44.35 187.57 45.31 190.20 C 46.22 192.67 44.76 195.06 43.90 197.30 C 43.41 197.15 42.42 196.83 41.92 196.68 L 41.43 196.52 C 36.22 192.64 31.85 187.58 29.40 181.50 C 20.93 160.02 22.29 135.87 28.70 114.04 C 31.31 102.38 37.25 91.99 42.92 81.64 Z" />
<path fill="#e4d38f" opacity="1.00" d=" M 254.20 82.97 C 256.25 84.63 256.90 87.32 258.25 89.50 C 260.42 93.25 262.31 97.16 263.85 101.21 C 260.43 95.25 257.56 88.98 254.20 82.97 Z" />
</g>
<g id="#e3cb28ff">
<path fill="#e3cb28" opacity="1.00" d=" M 96.06 35.43 C 97.17 34.81 98.30 34.23 99.43 33.65 C 102.96 35.53 107.11 34.20 110.92 34.74 C 110.82 41.17 110.94 47.59 110.85 54.01 C 110.67 58.93 111.90 63.77 111.77 68.70 C 107.11 71.34 102.53 74.12 98.07 77.09 C 97.62 77.04 96.73 76.95 96.29 76.90 C 97.26 75.08 98.38 73.20 98.16 71.05 C 97.98 60.69 98.15 50.33 98.09 39.97 C 98.27 38.16 96.94 36.84 96.06 35.43 Z" />
</g>
<g id="#e2c80fff">
<path fill="#e2c80f" opacity="1.00" d=" M 110.92 34.74 C 117.53 35.18 123.97 36.90 130.33 38.65 C 138.89 41.40 147.45 44.92 154.30 50.89 C 147.64 52.94 140.98 55.09 134.60 57.92 C 126.71 60.86 119.18 64.72 111.77 68.70 C 111.90 63.77 110.67 58.93 110.85 54.01 C 110.94 47.59 110.82 41.17 110.92 34.74 Z" />
</g>
<g id="#8d8159a2">
<path fill="#8d8159" opacity="0.64" d=" M 200.37 35.30 C 200.46 35.34 200.65 35.42 200.74 35.47 C 200.65 35.42 200.46 35.34 200.37 35.30 Z" />
</g>
<g id="#e3cc42ff">
<path fill="#e3cc42" opacity="1.00" d=" M 84.56 41.73 C 88.14 39.18 92.15 37.37 96.06 35.43 C 96.94 36.84 98.27 38.16 98.09 39.97 C 98.15 50.33 97.98 60.69 98.16 71.05 C 98.38 73.20 97.26 75.08 96.29 76.90 C 96.73 76.95 97.62 77.04 98.07 77.09 C 94.67 79.60 91.19 82.02 87.89 84.67 C 86.53 80.87 88.04 76.90 87.93 73.01 C 87.99 62.87 87.79 52.73 87.96 42.59 C 87.49 42.58 86.57 42.56 86.10 42.54 C 85.72 42.34 84.95 41.94 84.56 41.73 Z" />
</g>
<g id="#a8a9a4ff">
<path fill="#a8a9a4" opacity="1.00" d=" M 210.21 40.43 L 210.85 40.29 C 210.82 40.57 210.75 41.12 210.71 41.40 C 206.70 41.32 202.74 42.12 198.74 42.11 C 202.53 41.34 206.44 41.33 210.21 40.43 Z" />
<path fill="#a8a9a4" opacity="1.00" d=" M 167.55 47.51 C 177.10 44.89 186.95 43.44 196.78 42.37 C 197.94 44.80 201.30 44.73 203.19 46.50 C 198.34 46.26 193.86 48.79 188.99 48.25 C 181.85 47.80 174.61 48.96 167.55 47.51 Z" />
<path fill="#a8a9a4" opacity="1.00" d=" M 264.04 101.53 C 275.32 128.34 276.81 159.36 267.95 187.10 C 270.92 174.93 273.28 162.53 273.23 149.95 C 273.10 133.76 270.19 117.49 263.92 102.52 L 264.04 101.53 Z" />
<path fill="#a8a9a4" opacity="1.00" d=" M 189.98 267.70 C 191.34 267.50 192.71 267.30 194.08 267.10 C 191.72 268.18 189.24 268.97 186.76 269.72 C 187.86 269.09 188.92 268.39 189.98 267.70 Z" />
</g>
<g id="#e3ce58ff">
<path fill="#e3ce58" opacity="1.00" d=" M 71.15 50.37 C 75.86 47.99 79.49 43.97 84.16 41.52 L 84.56 41.73 C 84.95 41.94 85.72 42.34 86.10 42.54 C 86.57 42.56 87.49 42.58 87.96 42.59 C 87.79 52.73 87.99 62.87 87.93 73.01 C 88.04 76.90 86.53 80.87 87.89 84.67 C 82.18 89.59 76.51 94.62 71.63 100.38 C 71.17 95.89 72.43 91.45 72.10 86.95 C 71.67 74.92 72.78 62.82 71.20 50.84 L 71.15 50.37 Z" />
</g>
<g id="#babab3ff">
<path fill="#babab3" opacity="1.00" d=" M 188.99 48.25 C 193.86 48.79 198.34 46.26 203.19 46.50 L 203.49 46.50 C 213.86 52.38 223.60 59.56 231.94 68.12 C 234.39 70.37 236.09 73.32 238.66 75.45 C 242.43 75.29 246.13 76.12 249.87 76.30 C 251.65 78.02 252.83 80.22 253.88 82.43 C 252.27 80.53 251.20 77.97 249.02 76.67 C 237.31 75.29 225.50 74.67 213.71 74.85 C 215.67 74.13 217.73 73.73 219.82 73.60 C 219.01 73.26 218.20 72.93 217.40 72.59 C 216.86 70.32 216.80 67.72 215.03 65.98 C 210.07 60.75 203.66 56.53 196.41 55.49 C 183.27 51.79 169.37 52.49 155.99 54.30 C 148.80 55.17 141.90 57.97 134.60 57.92 C 140.98 55.09 147.64 52.94 154.30 50.89 C 158.68 49.62 163.07 48.36 167.55 47.51 C 174.61 48.96 181.85 47.80 188.99 48.25 Z" />
<path fill="#babab3" opacity="1.00" d=" M 218.80 253.99 C 220.42 252.50 222.14 251.13 224.05 250.03 C 222.38 251.44 220.92 253.23 218.80 253.99 Z" />
</g>
<g id="#e3d06dff">
<path fill="#e3d06d" opacity="1.00" d=" M 56.64 64.38 C 61.54 59.92 65.49 54.30 71.20 50.84 C 72.78 62.82 71.67 74.92 72.10 86.95 C 72.43 91.45 71.17 95.89 71.63 100.38 C 66.05 107.13 61.35 114.55 57.78 122.55 C 56.82 118.96 57.81 115.48 58.81 112.05 C 57.25 106.72 59.35 101.42 59.01 96.02 C 58.81 87.00 59.07 77.97 59.02 68.95 C 59.31 67.00 57.68 65.76 56.64 64.38 Z" />
</g>
<g id="#cdcdc7ff">
<path fill="#cdcdc7" opacity="1.00" d=" M 155.99 54.30 C 169.37 52.49 183.27 51.79 196.41 55.49 C 203.66 56.53 210.07 60.75 215.03 65.98 C 216.80 67.72 216.86 70.32 217.40 72.59 C 218.20 72.93 219.01 73.26 219.82 73.60 C 217.73 73.73 215.67 74.13 213.71 74.85 C 210.11 75.47 206.45 75.36 202.83 75.72 C 199.15 76.17 195.47 76.54 191.78 76.82 C 195.47 75.82 199.23 75.09 203.00 74.45 C 201.84 74.24 200.67 74.04 199.51 73.83 C 199.67 72.28 200.14 70.71 199.87 69.15 C 197.55 65.69 193.49 64.07 190.09 61.91 C 182.02 59.15 173.55 57.21 164.96 57.94 C 145.06 59.49 125.45 65.19 108.01 74.96 C 90.52 85.08 74.29 98.75 64.96 116.99 C 63.89 119.96 63.94 123.20 63.28 126.27 C 61.17 125.88 59.06 125.50 56.94 125.15 C 57.22 124.28 57.50 123.42 57.78 122.55 C 61.35 114.55 66.05 107.13 71.63 100.38 C 76.51 94.62 82.18 89.59 87.89 84.67 C 91.19 82.02 94.67 79.60 98.07 77.09 C 102.53 74.12 107.11 71.34 111.77 68.70 C 119.18 64.72 126.71 60.86 134.60 57.92 C 141.90 57.97 148.80 55.17 155.99 54.30 Z" />
</g>
<g id="#e0dfdaff">
<path fill="#e0dfda" opacity="1.00" d=" M 108.01 74.96 C 125.45 65.19 145.06 59.49 164.96 57.94 C 173.55 57.21 182.02 59.15 190.09 61.91 C 193.49 64.07 197.55 65.69 199.87 69.15 C 200.14 70.71 199.67 72.28 199.51 73.83 C 200.67 74.04 201.84 74.24 203.00 74.45 C 199.23 75.09 195.47 75.82 191.78 76.82 C 189.52 77.24 187.26 77.61 185.00 77.99 C 182.62 78.42 180.23 78.77 177.84 79.16 C 179.21 78.54 180.59 77.90 181.95 77.25 C 181.26 77.09 179.88 76.77 179.19 76.61 C 181.00 74.98 183.10 73.29 182.89 70.58 C 172.37 63.06 158.40 62.79 146.15 65.27 C 137.87 66.23 130.14 69.49 122.38 72.34 C 106.10 79.05 91.53 89.67 79.86 102.83 C 76.39 107.16 72.67 111.44 70.65 116.69 C 69.03 120.15 70.99 123.88 70.40 127.49 C 68.02 127.13 65.65 126.71 63.28 126.27 C 63.94 123.20 63.89 119.96 64.96 116.99 C 74.29 98.75 90.52 85.08 108.01 74.96 Z" />
<path fill="#e0dfda" opacity="1.00" d=" M 205.67 261.67 C 207.77 260.42 209.90 259.21 212.11 258.18 C 210.33 259.93 208.12 261.13 205.67 261.67 Z" />
</g>
<g id="#efefebff">
<path fill="#efefeb" opacity="1.00" d=" M 146.15 65.27 C 158.40 62.79 172.37 63.06 182.89 70.58 C 183.10 73.29 181.00 74.98 179.19 76.61 C 179.88 76.77 181.26 77.09 181.95 77.25 C 180.59 77.90 179.21 78.54 177.84 79.16 C 175.16 79.83 172.48 80.47 169.80 81.13 C 152.04 85.63 134.35 91.77 118.90 101.78 C 121.87 102.48 124.85 103.11 127.82 103.84 C 128.73 104.37 129.64 104.91 130.54 105.47 C 130.09 105.93 129.65 106.39 129.21 106.85 C 136.49 110.91 144.92 112.12 152.88 114.27 C 161.78 116.68 170.71 119.01 179.58 121.53 C 193.59 126.10 207.40 132.46 218.18 142.73 C 223.02 147.23 226.24 153.37 227.20 159.91 C 229.27 169.82 226.08 180.17 220.19 188.20 C 217.76 192.27 213.75 195.02 211.00 198.82 C 211.18 199.19 211.54 199.94 211.72 200.32 C 206.80 203.55 201.67 206.42 196.45 209.13 C 188.50 212.91 180.44 216.47 172.15 219.45 C 159.48 223.94 146.54 227.70 133.41 230.57 C 129.52 228.57 125.16 229.94 121.03 229.79 C 112.73 229.51 104.14 228.41 96.91 224.05 C 94.06 221.76 90.53 219.65 89.37 215.97 C 90.30 211.93 94.46 209.64 97.92 207.97 C 108.05 205.37 118.46 203.87 128.40 200.57 C 141.64 197.33 154.63 193.14 167.37 188.33 C 172.94 185.58 178.56 182.90 184.07 180.03 C 185.70 179.51 185.81 177.69 186.15 176.30 C 190.45 173.79 194.72 171.15 198.48 167.86 C 199.30 168.13 200.13 168.41 200.96 168.69 C 201.65 174.78 196.49 178.92 192.31 182.39 C 184.63 186.91 176.62 190.93 168.28 194.11 C 163.95 195.13 160.17 197.61 155.93 198.90 C 149.84 200.83 143.80 202.92 137.65 204.66 C 129.30 208.82 119.79 209.51 111.27 213.30 C 108.92 214.56 110.74 217.62 112.45 218.57 C 117.20 221.15 122.61 222.77 128.02 222.98 C 134.40 222.28 140.94 222.41 147.06 220.20 C 164.30 216.69 180.42 209.29 195.77 200.85 C 201.62 197.16 206.97 192.76 212.02 188.04 C 219.12 180.12 223.01 168.64 219.82 158.19 C 217.46 152.63 213.50 147.94 208.78 144.23 C 204.55 139.36 198.87 136.09 192.84 133.96 C 179.99 127.61 165.78 125.05 152.18 120.81 C 143.31 118.97 134.54 116.62 125.84 114.07 C 121.17 112.65 116.61 109.14 115.33 104.27 C 114.07 99.86 117.73 96.37 120.42 93.43 C 126.90 88.66 134.77 86.35 141.99 82.95 C 147.75 80.06 154.54 79.23 159.57 74.95 C 155.77 73.31 151.57 73.17 147.56 72.35 C 142.59 71.10 138.09 74.43 133.18 74.57 C 129.77 74.58 126.91 76.46 123.91 77.80 C 112.29 82.20 101.85 89.32 92.88 97.86 C 89.33 100.14 88.43 104.67 85.01 107.04 C 82.49 108.99 81.29 112.08 79.56 114.66 C 78.19 116.47 78.61 118.81 78.46 120.92 C 83.03 125.53 89.84 126.07 95.63 128.31 C 98.73 129.60 102.06 130.15 105.37 130.65 C 121.64 133.86 137.78 137.70 153.75 142.16 C 153.07 142.93 152.39 143.71 151.71 144.49 C 141.63 141.99 131.58 139.34 121.42 137.20 C 104.51 133.48 87.47 130.39 70.40 127.49 C 70.99 123.88 69.03 120.15 70.65 116.69 C 72.67 111.44 76.39 107.16 79.86 102.83 C 91.53 89.67 106.10 79.05 122.38 72.34 C 130.14 69.49 137.87 66.23 146.15 65.27 Z" />
</g>
<g id="#e4d27fff">
<path fill="#e4d27f" opacity="1.00" d=" M 43.18 81.87 C 47.33 75.84 51.46 69.60 56.64 64.38 C 57.68 65.76 59.31 67.00 59.02 68.95 C 59.07 77.97 58.81 87.00 59.01 96.02 C 59.35 101.42 57.25 106.72 58.81 112.05 C 57.81 115.48 56.82 118.96 57.78 122.55 C 57.50 123.42 57.22 124.28 56.94 125.15 C 53.68 135.74 53.30 147.01 53.57 158.02 C 54.21 173.28 58.08 188.29 64.01 202.33 C 63.52 202.27 62.53 202.15 62.03 202.09 C 55.81 201.27 49.77 199.50 43.90 197.30 C 44.76 195.06 46.22 192.67 45.31 190.20 C 44.35 187.57 44.27 184.78 45.17 182.12 C 48.22 170.48 45.18 158.51 46.21 146.73 C 45.79 140.15 46.35 133.51 45.04 127.00 C 45.81 121.00 44.69 115.01 44.96 108.99 C 45.18 100.70 44.50 92.38 45.40 84.12 C 44.76 83.28 44.02 82.53 43.18 81.87 Z" />
</g>
<g id="#fcfcfaff">
<path fill="#fcfcfa" opacity="1.00" d=" M 133.18 74.57 C 138.09 74.43 142.59 71.10 147.56 72.35 C 151.57 73.17 155.77 73.31 159.57 74.95 C 154.54 79.23 147.75 80.06 141.99 82.95 C 134.77 86.35 126.90 88.66 120.42 93.43 C 117.73 96.37 114.07 99.86 115.33 104.27 C 116.61 109.14 121.17 112.65 125.84 114.07 C 134.54 116.62 143.31 118.97 152.18 120.81 C 165.78 125.05 179.99 127.61 192.84 133.96 C 198.87 136.09 204.55 139.36 208.78 144.23 C 213.50 147.94 217.46 152.63 219.82 158.19 C 223.01 168.64 219.12 180.12 212.02 188.04 C 206.97 192.76 201.62 197.16 195.77 200.85 C 180.42 209.29 164.30 216.69 147.06 220.20 C 140.94 222.41 134.40 222.28 128.02 222.98 C 122.61 222.77 117.20 221.15 112.45 218.57 C 110.74 217.62 108.92 214.56 111.27 213.30 C 119.79 209.51 129.30 208.82 137.65 204.66 C 143.80 202.92 149.84 200.83 155.93 198.90 C 160.17 197.61 163.95 195.13 168.28 194.11 C 176.62 190.93 184.63 186.91 192.31 182.39 C 196.49 178.92 201.65 174.78 200.96 168.69 C 200.13 168.41 199.30 168.13 198.48 167.86 C 199.47 166.90 200.43 165.92 201.39 164.94 C 194.45 157.96 184.96 154.35 175.80 151.29 C 167.92 148.53 159.79 146.58 151.71 144.49 C 152.39 143.71 153.07 142.93 153.75 142.16 C 137.78 137.70 121.64 133.86 105.37 130.65 C 102.06 130.15 98.73 129.60 95.63 128.31 C 89.84 126.07 83.03 125.53 78.46 120.92 C 78.61 118.81 78.19 116.47 79.56 114.66 C 81.29 112.08 82.49 108.99 85.01 107.04 C 88.43 104.67 89.33 100.14 92.88 97.86 C 101.85 89.32 112.29 82.20 123.91 77.80 C 126.91 76.46 129.77 74.58 133.18 74.57 Z" />
</g>
<g id="#b38c0cff">
<path fill="#b38c0c" opacity="1.00" d=" M 202.83 75.72 C 206.45 75.36 210.11 75.47 213.71 74.85 C 225.50 74.67 237.31 75.29 249.02 76.67 C 251.20 77.97 252.27 80.53 253.88 82.43 L 254.20 82.97 C 257.56 88.98 260.43 95.25 263.85 101.21 L 264.04 101.53 L 263.92 102.52 C 263.26 104.20 263.34 105.98 263.64 107.73 C 262.19 107.92 260.75 108.12 259.30 108.31 C 259.38 110.74 259.59 113.16 259.87 115.57 C 259.27 115.77 258.07 116.15 257.47 116.34 C 259.08 120.80 257.37 125.73 259.53 130.14 C 259.15 130.71 258.77 131.29 258.39 131.87 C 258.88 133.82 259.05 135.84 257.82 137.56 C 257.74 140.16 257.50 142.78 256.58 145.24 C 256.24 146.65 255.20 148.27 256.40 149.58 C 255.45 150.18 254.42 150.68 253.60 151.45 C 252.81 158.65 250.40 165.62 246.93 171.96 C 245.93 174.49 245.49 177.32 243.39 179.26 C 243.69 179.55 244.31 180.12 244.61 180.41 C 243.60 181.16 242.59 181.91 241.59 182.67 C 241.48 183.67 241.39 184.68 241.30 185.69 C 240.09 187.36 238.88 189.03 237.71 190.74 C 237.30 192.75 237.08 194.85 236.19 196.73 C 234.99 198.64 232.90 199.95 232.19 202.17 C 231.24 205.01 229.16 207.27 228.11 210.07 C 227.48 209.73 226.20 209.05 225.56 208.71 C 226.28 201.12 227.40 193.58 227.78 185.96 L 227.80 185.55 C 235.04 177.36 237.71 165.13 234.06 154.76 C 232.25 149.17 228.67 144.42 224.80 140.10 C 224.93 139.48 225.19 138.22 225.31 137.59 C 225.74 137.54 226.58 137.44 227.00 137.39 C 226.83 134.99 226.63 132.36 224.71 130.63 C 227.22 127.38 226.12 123.11 225.49 119.42 C 224.14 117.46 223.17 115.38 224.10 112.98 C 222.25 109.72 220.81 106.07 221.78 102.26 C 220.37 98.91 218.20 95.68 218.54 91.88 C 218.71 90.18 216.45 90.27 215.43 89.55 C 216.09 88.93 216.76 88.31 217.44 87.69 C 215.64 86.14 213.82 84.63 211.98 83.14 C 212.39 82.76 213.20 82.00 213.61 81.62 C 211.80 80.36 210.12 78.94 208.60 77.34 C 207.17 77.48 205.74 77.65 204.31 77.81 C 203.94 77.29 203.20 76.24 202.83 75.72 Z" />
</g>
<g id="#bc950cff">
<path fill="#bc950c" opacity="1.00" d=" M 191.78 76.82 C 195.47 76.54 199.15 76.17 202.83 75.72 C 203.20 76.24 203.94 77.29 204.31 77.81 C 205.74 77.65 207.17 77.48 208.60 77.34 C 210.12 78.94 211.80 80.36 213.61 81.62 C 213.20 82.00 212.39 82.76 211.98 83.14 C 213.82 84.63 215.64 86.14 217.44 87.69 C 216.76 88.31 216.09 88.93 215.43 89.55 C 216.45 90.27 218.71 90.18 218.54 91.88 C 218.20 95.68 220.37 98.91 221.78 102.26 C 220.81 106.07 222.25 109.72 224.10 112.98 C 223.17 115.38 224.14 117.46 225.49 119.42 C 226.12 123.11 227.22 127.38 224.71 130.63 C 226.63 132.36 226.83 134.99 227.00 137.39 C 226.58 137.44 225.74 137.54 225.31 137.59 C 225.19 138.22 224.93 139.48 224.80 140.10 C 224.60 139.87 224.21 139.40 224.02 139.17 C 222.24 130.01 217.99 121.55 213.92 113.23 C 209.35 103.99 203.37 95.46 196.36 87.92 C 192.96 84.19 189.31 80.65 185.00 77.99 C 187.26 77.61 189.52 77.24 191.78 76.82 Z" />
</g>
<g id="#d8b11fff">
<path fill="#d8b11f" opacity="1.00" d=" M 177.84 79.16 C 180.23 78.77 182.62 78.42 185.00 77.99 C 189.31 80.65 192.96 84.19 196.36 87.92 C 194.91 89.08 193.31 90.01 191.62 90.76 C 188.47 92.01 187.46 95.92 184.17 97.03 C 180.63 98.45 178.03 101.32 175.88 104.38 C 174.31 104.28 172.57 104.03 171.45 105.41 C 169.34 107.74 165.34 107.37 164.12 110.57 C 165.98 111.12 167.84 111.67 169.71 112.21 C 169.55 112.64 169.21 113.49 169.05 113.92 C 160.06 111.42 151.00 109.24 141.95 106.98 C 142.17 106.56 142.59 105.71 142.80 105.29 C 142.14 105.09 140.82 104.69 140.16 104.49 C 142.26 102.47 144.22 100.31 146.25 98.23 C 149.03 95.39 152.92 94.13 156.49 92.61 C 156.77 92.11 157.34 91.10 157.63 90.60 C 160.12 89.62 162.16 87.91 164.00 86.00 C 166.08 83.70 169.33 83.41 172.15 82.68 C 171.57 82.29 170.39 81.52 169.80 81.13 C 172.48 80.47 175.16 79.83 177.84 79.16 Z" />
</g>
<g id="#d9b00dff">
<path fill="#d9b00d" opacity="1.00" d=" M 118.90 101.78 C 134.35 91.77 152.04 85.63 169.80 81.13 C 170.39 81.52 171.57 82.29 172.15 82.68 C 169.33 83.41 166.08 83.70 164.00 86.00 C 162.16 87.91 160.12 89.62 157.63 90.60 C 157.34 91.10 156.77 92.11 156.49 92.61 C 152.92 94.13 149.03 95.39 146.25 98.23 C 144.22 100.31 142.26 102.47 140.16 104.49 C 140.82 104.69 142.14 105.09 142.80 105.29 C 142.59 105.71 142.17 106.56 141.95 106.98 C 137.27 105.80 132.58 104.66 127.82 103.84 C 124.85 103.11 121.87 102.48 118.90 101.78 Z" />
</g>
<g id="#a5a6a1ff">
<path fill="#a5a6a1" opacity="1.00" d=" M 545.14 88.56 C 552.97 86.67 561.06 87.53 569.04 87.34 C 573.06 87.49 577.19 86.91 581.13 87.93 C 572.09 87.65 563.03 87.99 553.99 87.80 C 547.49 88.16 540.70 89.34 535.19 93.02 C 530.28 96.24 527.61 102.18 527.74 107.97 C 527.74 113.50 527.34 119.09 528.19 124.58 C 528.82 128.42 531.44 131.43 534.00 134.19 C 529.05 130.85 526.92 124.76 527.24 118.97 C 527.56 112.17 526.01 104.72 529.62 98.54 C 532.60 92.77 539.06 89.84 545.14 88.56 Z" />
<path fill="#a5a6a1" opacity="1.00" d=" M 288.07 88.30 C 296.36 88.02 304.67 88.17 312.97 88.21 C 319.35 105.47 325.80 122.72 332.24 139.95 C 332.67 139.75 333.54 139.35 333.97 139.16 C 333.75 139.85 333.32 141.25 333.10 141.95 C 331.31 140.74 331.13 138.56 330.50 136.68 C 324.75 120.65 318.38 104.84 312.85 88.74 C 304.86 88.29 296.85 88.64 288.85 88.54 C 290.03 92.17 291.76 95.59 293.01 99.20 C 290.91 95.80 289.75 91.91 288.07 88.30 Z" />
<path fill="#a5a6a1" opacity="1.00" d=" M 352.49 88.26 C 360.68 88.05 368.88 88.16 377.07 88.21 C 376.21 90.64 375.55 93.21 374.02 95.32 C 374.86 93.09 375.66 90.84 376.45 88.59 C 368.60 88.52 360.74 88.45 352.89 88.62 C 347.61 102.52 342.58 116.52 337.21 130.39 C 337.51 127.85 338.69 125.57 339.54 123.20 C 343.77 111.52 348.28 99.94 352.49 88.26 Z" />
<path fill="#a5a6a1" opacity="1.00" d=" M 465.80 88.42 C 471.63 87.93 477.50 88.08 483.34 88.35 C 492.66 110.62 502.31 132.76 511.74 154.98 C 514.16 160.88 516.99 166.63 519.02 172.68 C 510.86 172.76 502.70 172.76 494.54 172.69 C 493.66 170.33 492.57 168.02 492.18 165.52 C 493.09 167.74 493.98 169.98 494.89 172.21 C 502.74 172.25 510.59 172.29 518.45 172.18 C 506.92 144.23 494.70 116.57 482.96 88.71 C 477.35 88.46 471.70 88.28 466.10 88.82 C 465.24 91.09 464.30 93.32 463.16 95.47 C 463.74 93.02 464.96 90.79 465.80 88.42 Z" />
<path fill="#a5a6a1" opacity="1.00" d=" M 581.63 88.05 C 590.01 88.62 598.33 94.08 600.89 102.29 C 599.14 99.11 597.25 95.91 594.41 93.57 C 590.89 90.33 586.09 89.32 581.63 88.05 Z" />
<path fill="#a5a6a1" opacity="1.00" d=" M 646.41 88.26 C 652.27 88.11 658.13 88.06 663.98 88.29 C 664.26 89.31 664.52 90.33 664.78 91.36 C 664.54 90.71 664.06 89.42 663.82 88.77 C 658.17 88.29 652.51 88.57 646.86 88.59 C 637.79 109.71 628.79 130.87 619.74 152.00 C 617.03 158.78 613.67 165.30 611.37 172.23 C 617.57 172.27 623.78 172.19 629.99 172.28 C 632.07 172.21 634.56 172.66 636.09 170.85 C 635.89 172.10 635.20 172.70 634.03 172.66 C 626.34 172.85 618.64 172.66 610.95 172.74 C 611.73 168.41 614.04 164.57 615.64 160.51 C 625.85 136.41 636.32 112.41 646.41 88.26 Z" />
<path fill="#a5a6a1" opacity="1.00" d=" M 360.05 128.03 C 364.37 117.11 368.96 106.28 373.88 95.61 C 371.11 103.65 367.22 111.26 364.10 119.17 C 362.68 122.09 361.85 125.31 360.05 128.03 Z" />
<path fill="#a5a6a1" opacity="1.00" d=" M 457.10 108.97 C 459.21 104.65 460.50 99.92 463.00 95.81 C 452.60 121.43 441.19 146.64 430.66 172.21 C 438.67 172.17 446.70 172.46 454.71 172.04 C 455.75 169.02 456.76 165.99 457.90 163.00 C 468.97 163.39 480.07 163.35 491.14 163.03 C 491.36 163.56 491.80 164.61 492.03 165.14 C 491.72 164.75 491.12 163.96 490.82 163.57 C 479.93 163.35 469.01 163.49 458.11 163.50 C 457.08 166.49 456.14 169.53 454.88 172.44 C 446.65 173.10 438.33 172.59 430.07 172.69 C 438.72 151.31 448.16 130.24 457.10 108.97 Z" />
<path fill="#a5a6a1" opacity="1.00" d=" M 668.04 98.90 C 672.28 107.21 675.43 116.08 679.30 124.59 C 686.11 140.61 693.01 156.60 699.81 172.63 C 691.58 172.74 683.34 172.90 675.12 172.57 C 673.78 169.73 672.85 166.71 671.99 163.69 C 665.37 163.15 658.72 163.59 652.08 163.45 C 647.52 163.59 642.92 163.11 638.39 163.77 L 638.54 163.26 C 649.78 163.12 661.03 162.98 672.26 163.35 C 673.22 166.26 674.21 169.17 675.16 172.10 C 683.11 172.41 691.07 172.16 699.03 172.23 C 689.00 147.68 677.99 123.50 668.04 98.90 Z" />
<path fill="#a5a6a1" opacity="1.00" d=" M 551.82 107.09 C 555.66 105.55 559.94 106.27 563.98 106.12 C 568.80 106.33 573.77 105.53 578.50 106.80 C 580.81 107.46 581.27 110.06 582.17 111.95 C 589.22 111.29 596.27 110.58 603.33 110.11 C 596.24 111.62 588.88 111.45 581.70 112.41 C 581.18 110.90 580.65 109.41 580.07 107.93 C 575.71 105.73 570.70 106.85 566.02 106.59 C 561.00 106.89 555.64 105.68 550.93 107.91 C 548.42 112.36 548.24 121.16 554.99 121.49 C 565.31 121.84 575.68 121.23 586.00 121.91 C 591.87 122.43 598.06 124.93 601.01 130.35 C 597.96 126.61 593.90 123.52 589.01 122.82 C 577.75 121.18 566.32 122.34 554.99 121.88 C 552.31 121.75 549.42 120.04 549.22 117.11 C 548.78 113.76 548.52 109.13 551.82 107.09 Z" />
<path fill="#a5a6a1" opacity="1.00" d=" M 654.87 119.12 C 656.48 119.82 656.59 121.78 656.81 123.28 C 656.50 122.48 655.89 120.88 655.58 120.08 C 654.70 121.38 653.69 122.63 653.21 124.15 C 652.63 122.10 653.95 120.75 654.87 119.12 Z" />
<path fill="#a5a6a1" opacity="1.00" d=" M 601.16 130.61 C 604.50 136.12 603.21 142.89 603.49 149.01 C 603.82 155.30 602.23 162.24 596.96 166.23 C 598.85 163.88 600.88 161.52 601.84 158.61 C 603.67 153.25 602.91 147.51 603.08 141.95 C 603.25 138.07 602.38 134.26 601.16 130.61 Z" />
<path fill="#a5a6a1" opacity="1.00" d=" M 535.01 134.94 C 548.40 140.01 563.01 137.09 576.94 138.24 C 582.16 138.95 582.36 145.44 581.26 149.43 C 581.02 146.36 581.93 142.84 579.92 140.18 C 578.37 138.65 576.09 138.38 574.03 138.36 C 565.66 138.32 557.29 138.53 548.94 138.20 C 544.19 137.85 539.15 137.54 535.01 134.94 Z" />
<path fill="#a5a6a1" opacity="1.00" d=" M 311.24 141.65 C 313.95 147.76 316.72 153.85 318.97 160.15 C 317.10 157.06 316.08 153.55 314.57 150.28 C 313.42 147.42 311.78 144.72 311.24 141.65 Z" />
<path fill="#a5a6a1" opacity="1.00" d=" M 527.34 148.48 C 534.58 147.70 541.85 147.72 549.12 147.55 C 549.58 150.21 550.95 152.97 554.01 153.10 C 561.81 153.68 569.66 153.29 577.49 153.23 C 572.40 154.37 567.16 153.68 562.00 153.87 C 558.40 153.77 554.48 154.36 551.22 152.51 C 549.49 151.68 549.46 149.50 548.76 147.96 C 541.78 148.12 534.78 148.25 527.82 148.95 C 528.61 154.65 530.77 160.04 533.92 164.85 C 529.88 160.40 528.19 154.31 527.34 148.48 Z" />
<path fill="#a5a6a1" opacity="1.00" d=" M 535.10 165.98 C 539.83 169.30 545.32 171.57 551.14 171.90 C 560.40 172.43 569.70 172.36 578.97 171.97 C 584.32 171.77 589.45 170.11 594.33 168.00 C 586.25 173.11 576.19 172.56 567.00 172.74 C 557.83 172.52 548.05 173.53 539.61 169.19 C 538.04 168.24 536.13 167.59 535.10 165.98 Z" />
<path fill="#a5a6a1" opacity="1.00" d=" M 595.29 167.49 C 595.36 167.44 595.52 167.35 595.59 167.30 C 595.52 167.35 595.36 167.44 595.29 167.49 Z" />
<path fill="#a5a6a1" opacity="1.00" d=" M 41.92 196.68 C 42.42 196.83 43.41 197.15 43.90 197.30 C 49.77 199.50 55.81 201.27 62.03 202.09 C 62.19 202.50 62.49 203.31 62.65 203.72 C 59.60 205.11 56.62 206.65 53.79 208.43 C 52.64 208.40 51.50 208.36 50.35 208.32 C 49.95 209.28 49.55 210.25 49.15 211.21 C 46.47 206.53 43.30 201.95 41.92 196.68 Z" />
</g>
<g id="#d7b436ff">
<path fill="#d7b436" opacity="1.00" d=" M 191.62 90.76 C 193.31 90.01 194.91 89.08 196.36 87.92 C 203.37 95.46 209.35 103.99 213.92 113.23 C 213.30 114.61 213.19 116.10 213.23 117.59 C 212.19 118.09 211.12 118.54 210.14 119.16 C 209.45 121.28 208.71 123.41 207.10 125.03 C 208.10 126.09 209.75 126.97 209.26 128.71 C 196.76 121.63 182.88 117.51 169.05 113.92 C 169.21 113.49 169.55 112.64 169.71 112.21 C 167.84 111.67 165.98 111.12 164.12 110.57 C 165.34 107.37 169.34 107.74 171.45 105.41 C 172.57 104.03 174.31 104.28 175.88 104.38 C 178.03 101.32 180.63 98.45 184.17 97.03 C 187.46 95.92 188.47 92.01 191.62 90.76 Z" />
</g>
<g id="#434544c9">
<path fill="#434544" opacity="0.79" d=" M 391.81 87.98 C 399.85 87.98 407.90 87.87 415.94 88.04 C 415.85 116.23 416.14 144.43 415.81 172.61 C 407.83 172.63 399.85 172.61 391.87 172.63 C 391.68 144.41 391.79 116.19 391.81 87.98 M 392.74 88.93 C 392.57 116.61 392.56 144.30 392.75 171.97 C 400.16 171.95 407.58 171.86 415.00 172.00 C 414.99 144.30 415.00 116.61 415.00 88.91 C 407.58 88.87 400.16 88.85 392.74 88.93 Z" />
</g>
<g id="#0f1110ff">
<path fill="#0f1110" opacity="1.00" d=" M 535.19 93.02 C 540.70 89.34 547.49 88.16 553.99 87.80 C 563.03 87.99 572.09 87.65 581.13 87.93 L 581.63 88.05 C 586.09 89.32 590.89 90.33 594.41 93.57 C 597.25 95.91 599.14 99.11 600.89 102.29 C 602.19 104.72 602.65 107.47 603.33 110.11 C 596.27 110.58 589.22 111.29 582.17 111.95 C 581.27 110.06 580.81 107.46 578.50 106.80 C 573.77 105.53 568.80 106.33 563.98 106.12 C 559.94 106.27 555.66 105.55 551.82 107.09 C 548.52 109.13 548.78 113.76 549.22 117.11 C 549.42 120.04 552.31 121.75 554.99 121.88 C 566.32 122.34 577.75 121.18 589.01 122.82 C 593.90 123.52 597.96 126.61 601.01 130.35 L 601.16 130.61 C 602.38 134.26 603.25 138.07 603.08 141.95 C 602.91 147.51 603.67 153.25 601.84 158.61 C 600.88 161.52 598.85 163.88 596.96 166.23 C 596.62 166.49 595.94 167.03 595.59 167.30 C 595.52 167.35 595.36 167.44 595.29 167.49 L 594.33 168.00 C 589.45 170.11 584.32 171.77 578.97 171.97 C 569.70 172.36 560.40 172.43 551.14 171.90 C 545.32 171.57 539.83 169.30 535.10 165.98 C 534.80 165.70 534.21 165.13 533.92 164.85 C 530.77 160.04 528.61 154.65 527.82 148.95 C 534.78 148.25 541.78 148.12 548.76 147.96 C 549.46 149.50 549.49 151.68 551.22 152.51 C 554.48 154.36 558.40 153.77 562.00 153.87 C 567.16 153.68 572.40 154.37 577.49 153.23 L 578.10 153.10 C 579.77 153.05 581.05 151.74 581.12 150.08 L 581.26 149.43 C 582.36 145.44 582.16 138.95 576.94 138.24 C 563.01 137.09 548.40 140.01 535.01 134.94 C 534.76 134.75 534.25 134.38 534.00 134.19 C 531.44 131.43 528.82 128.42 528.19 124.58 C 527.34 119.09 527.74 113.50 527.74 107.97 C 527.61 102.18 530.28 96.24 535.19 93.02 Z" />
<path fill="#0f1110" opacity="1.00" d=" M 288.85 88.54 C 296.85 88.64 304.86 88.29 312.85 88.74 C 318.38 104.84 324.75 120.65 330.50 136.68 C 331.13 138.56 331.31 140.74 333.10 141.95 C 333.32 141.25 333.75 139.85 333.97 139.16 L 334.14 138.67 C 335.43 136.06 336.56 133.38 337.16 130.52 L 337.21 130.39 C 342.58 116.52 347.61 102.52 352.89 88.62 C 360.74 88.45 368.60 88.52 376.45 88.59 C 375.66 90.84 374.86 93.09 374.02 95.32 L 373.88 95.61 C 368.96 106.28 364.37 117.11 360.05 128.03 L 359.88 128.36 C 358.55 130.53 357.53 132.87 356.90 135.33 L 356.84 135.46 C 355.43 137.56 354.40 139.88 353.81 142.34 L 353.79 142.37 C 352.43 144.51 351.42 146.85 350.82 149.32 L 350.79 149.39 C 349.43 151.53 348.42 153.87 347.83 156.34 L 347.77 156.50 C 346.42 158.52 345.45 160.76 344.86 163.13 L 344.77 163.39 C 343.48 165.60 342.22 167.89 341.89 170.47 C 341.74 171.21 341.63 171.96 341.55 172.72 C 336.08 171.02 330.06 172.58 324.38 171.91 C 323.69 170.37 322.91 168.89 322.21 167.37 L 322.18 167.28 C 321.47 164.85 320.42 162.56 319.09 160.41 L 318.97 160.15 C 316.72 153.85 313.95 147.76 311.24 141.65 L 311.18 141.46 C 310.66 138.92 309.56 136.59 308.21 134.40 L 308.19 134.36 C 307.58 131.89 306.57 129.56 305.21 127.42 L 305.19 127.38 C 304.58 124.90 303.56 122.55 302.20 120.39 L 302.20 120.38 C 301.58 117.91 300.56 115.58 299.20 113.43 L 299.19 113.40 C 298.62 110.90 297.59 108.55 296.19 106.40 L 296.19 106.39 C 295.61 103.85 294.56 101.46 293.07 99.32 L 293.01 99.20 C 291.76 95.59 290.03 92.17 288.85 88.54 Z" />
<path fill="#0f1110" opacity="1.00" d=" M 392.74 88.93 C 400.16 88.85 407.58 88.87 415.00 88.91 C 415.00 116.61 414.99 144.30 415.00 172.00 C 407.58 171.86 400.16 171.95 392.75 171.97 C 392.56 144.30 392.57 116.61 392.74 88.93 Z" />
<path fill="#0f1110" opacity="1.00" d=" M 466.10 88.82 C 471.70 88.28 477.35 88.46 482.96 88.71 C 494.70 116.57 506.92 144.23 518.45 172.18 C 510.59 172.29 502.74 172.25 494.89 172.21 C 493.98 169.98 493.09 167.74 492.18 165.52 L 492.03 165.14 C 491.80 164.61 491.36 163.56 491.14 163.03 C 489.84 162.39 488.38 162.24 486.97 162.26 C 478.99 162.23 471.01 162.37 463.03 162.23 C 461.29 162.23 459.47 162.15 457.90 163.00 C 456.76 165.99 455.75 169.02 454.71 172.04 C 446.70 172.46 438.67 172.17 430.66 172.21 C 441.19 146.64 452.60 121.43 463.00 95.81 L 463.16 95.47 C 464.30 93.32 465.24 91.09 466.10 88.82 M 473.92 118.74 L 474.32 119.62 L 474.07 120.55 C 472.28 121.81 472.24 124.23 471.43 126.09 C 470.41 129.64 468.13 132.87 468.16 136.67 L 468.12 137.17 L 467.24 137.26 L 466.76 138.23 L 467.21 139.08 L 467.02 140.10 C 465.10 139.64 464.15 142.88 465.44 144.06 L 465.13 144.87 L 463.99 144.94 C 463.99 145.67 464.00 147.13 464.00 147.85 C 471.07 148.04 478.15 147.95 485.23 147.92 L 485.20 146.94 L 484.95 146.53 C 484.40 143.81 483.99 140.58 481.89 138.62 L 481.71 138.09 L 482.20 137.26 L 481.77 136.26 L 480.89 136.14 L 480.80 135.66 C 480.57 132.94 480.23 129.40 477.80 127.73 L 477.73 127.52 C 477.53 124.53 477.04 119.95 473.92 118.74 Z" />
<path fill="#0f1110" opacity="1.00" d=" M 646.86 88.59 C 652.51 88.57 658.17 88.29 663.82 88.77 C 664.06 89.42 664.54 90.71 664.78 91.36 L 664.82 91.50 C 665.35 94.08 666.40 96.51 667.92 98.68 L 668.04 98.90 C 677.99 123.50 689.00 147.68 699.03 172.23 C 691.07 172.16 683.11 172.41 675.16 172.10 C 674.21 169.17 673.22 166.26 672.26 163.35 C 661.03 162.98 649.78 163.12 638.54 163.26 L 638.39 163.77 C 637.74 166.16 637.06 168.56 636.09 170.85 C 634.56 172.66 632.07 172.21 629.99 172.28 C 623.78 172.19 617.57 172.27 611.37 172.23 C 613.67 165.30 617.03 158.78 619.74 152.00 C 628.79 130.87 637.79 109.71 646.86 88.59 M 654.87 119.12 C 653.95 120.75 652.63 122.10 653.21 124.15 L 653.08 124.62 C 650.71 126.88 650.79 130.52 649.29 133.30 C 648.20 136.65 646.14 139.94 646.26 143.53 L 646.20 143.69 C 644.49 144.33 644.52 146.35 644.01 147.79 C 651.38 148.21 658.77 147.94 666.16 147.96 C 665.81 144.41 664.02 141.27 662.94 137.93 C 662.40 136.74 662.17 135.20 660.91 134.53 L 660.73 134.08 L 661.22 133.27 L 660.81 132.27 L 659.92 132.13 L 659.82 131.61 C 659.78 128.80 659.02 125.55 656.91 123.58 L 656.81 123.28 C 656.59 121.78 656.48 119.82 654.87 119.12 Z" />
<path fill="#0f1110" opacity="1.00" d=" M 693.16 89.02 C 720.78 88.72 748.40 88.97 776.02 88.89 C 776.06 95.28 776.06 101.68 776.03 108.07 C 766.05 108.16 756.07 107.92 746.10 108.18 C 745.96 129.45 746.10 150.72 746.03 171.99 C 738.36 171.96 730.70 172.03 723.04 171.95 C 723.00 150.68 723.14 129.40 722.97 108.13 C 712.95 107.97 702.93 108.17 692.92 108.03 C 693.60 101.71 693.13 95.35 693.16 89.02 Z" />
</g>
<g id="#414242c3">
<path fill="#414242" opacity="0.76" d=" M 692.36 88.13 C 720.24 87.73 748.13 88.07 776.01 87.96 L 776.02 88.89 C 748.40 88.97 720.78 88.72 693.16 89.02 C 693.13 95.35 693.60 101.71 692.92 108.03 L 692.78 109.06 C 691.86 102.15 692.63 95.10 692.36 88.13 Z" />
</g>
<g id="#4a4b4a75">
<path fill="#4a4b4a" opacity="0.46" d=" M 776.01 87.96 L 776.97 87.99 C 776.99 94.95 777.12 101.91 776.90 108.86 C 766.94 109.20 756.97 108.89 747.01 109.02 C 746.93 130.27 747.14 151.53 746.91 172.77 C 738.75 172.92 730.57 173.12 722.41 172.72 C 722.13 151.49 722.42 130.24 722.27 109.00 C 712.44 109.04 702.61 108.94 692.78 109.06 L 692.92 108.03 C 702.93 108.17 712.95 107.97 722.97 108.13 C 723.14 129.40 723.00 150.68 723.04 171.95 C 730.70 172.03 738.36 171.96 746.03 171.99 C 746.10 150.72 745.96 129.45 746.10 108.18 C 756.07 107.92 766.05 108.16 776.03 108.07 C 776.06 101.68 776.06 95.28 776.02 88.89 L 776.01 87.96 Z" />
</g>
<g id="#3f403fb1">
<path fill="#3f403f" opacity="0.69" d=" M 664.82 91.50 C 666.77 93.28 667.55 96.12 667.92 98.68 C 666.40 96.51 665.35 94.08 664.82 91.50 Z" />
</g>
<g id="#3f4040b3">
<path fill="#3f4040" opacity="0.70" d=" M 293.07 99.32 C 294.56 101.46 295.61 103.85 296.19 106.39 C 294.13 104.76 293.50 101.80 293.07 99.32 Z" />
</g>
<g id="#a57e0eff">
<path fill="#a57e0e" opacity="1.00" d=" M 263.64 107.73 C 263.34 105.98 263.26 104.20 263.92 102.52 C 270.19 117.49 273.10 133.76 273.23 149.95 C 273.28 162.53 270.92 174.93 267.95 187.10 L 267.71 187.69 C 267.56 187.92 267.26 188.39 267.11 188.62 C 264.57 190.08 262.37 192.02 260.33 194.10 C 260.77 194.71 261.23 195.31 261.69 195.92 C 259.87 199.25 257.07 201.82 254.54 204.58 C 245.86 216.65 237.71 229.51 225.81 238.74 C 222.66 241.89 219.20 244.69 215.76 247.51 C 215.19 247.31 214.03 246.89 213.45 246.68 C 215.81 241.23 218.61 235.96 220.04 230.16 C 222.50 223.18 224.37 216.00 225.56 208.71 C 226.20 209.05 227.48 209.73 228.11 210.07 C 229.16 207.27 231.24 205.01 232.19 202.17 C 232.90 199.95 234.99 198.64 236.19 196.73 C 237.08 194.85 237.30 192.75 237.71 190.74 C 238.88 189.03 240.09 187.36 241.30 185.69 C 241.39 184.68 241.48 183.67 241.59 182.67 C 242.59 181.91 243.60 181.16 244.61 180.41 C 244.31 180.12 243.69 179.55 243.39 179.26 C 245.49 177.32 245.93 174.49 246.93 171.96 C 250.40 165.62 252.81 158.65 253.60 151.45 C 254.42 150.68 255.45 150.18 256.40 149.58 C 255.20 148.27 256.24 146.65 256.58 145.24 C 257.50 142.78 257.74 140.16 257.82 137.56 C 259.05 135.84 258.88 133.82 258.39 131.87 C 258.77 131.29 259.15 130.71 259.53 130.14 C 257.37 125.73 259.08 120.80 257.47 116.34 C 258.07 116.15 259.27 115.77 259.87 115.57 C 259.59 113.16 259.38 110.74 259.30 108.31 C 260.75 108.12 262.19 107.92 263.64 107.73 Z" />
</g>
<g id="#d6d7d7ff">
<path fill="#d6d7d7" opacity="1.00" d=" M 127.82 103.84 C 132.58 104.66 137.27 105.80 141.95 106.98 C 151.00 109.24 160.06 111.42 169.05 113.92 C 182.88 117.51 196.76 121.63 209.26 128.71 C 211.25 129.92 213.17 131.24 215.10 132.54 C 215.34 136.06 218.66 137.88 220.83 140.22 C 231.59 150.51 234.17 167.70 228.15 181.12 C 227.47 182.51 227.74 184.07 227.80 185.55 L 227.78 185.96 C 223.26 191.59 217.73 196.36 211.72 200.32 C 211.54 199.94 211.18 199.19 211.00 198.82 C 213.75 195.02 217.76 192.27 220.19 188.20 C 226.08 180.17 229.27 169.82 227.20 159.91 C 226.24 153.37 223.02 147.23 218.18 142.73 C 207.40 132.46 193.59 126.10 179.58 121.53 C 170.71 119.01 161.78 116.68 152.88 114.27 C 144.92 112.12 136.49 110.91 129.21 106.85 C 129.65 106.39 130.09 105.93 130.54 105.47 C 129.64 104.91 128.73 104.37 127.82 103.84 Z" />
</g>
<g id="#3e3f3fb0">
<path fill="#3e3f3f" opacity="0.69" d=" M 296.19 106.40 C 297.59 108.55 298.62 110.90 299.19 113.40 C 297.18 111.77 296.42 108.89 296.19 106.40 Z" />
</g>
<g id="#d5b549ff">
<path fill="#d5b549" opacity="1.00" d=" M 213.23 117.59 C 213.19 116.10 213.30 114.61 213.92 113.23 C 217.99 121.55 222.24 130.01 224.02 139.17 C 221.16 136.81 218.22 134.54 215.10 132.54 C 213.17 131.24 211.25 129.92 209.26 128.71 C 209.75 126.97 208.10 126.09 207.10 125.03 C 208.71 123.41 209.45 121.28 210.14 119.16 C 211.12 118.54 212.19 118.09 213.23 117.59 Z" />
</g>
<g id="#3f403fb6">
<path fill="#3f403f" opacity="0.71" d=" M 299.20 113.43 C 300.56 115.58 301.58 117.91 302.20 120.38 C 300.29 118.94 299.16 115.88 299.20 113.43 Z" />
</g>
<g id="#333433b0">
<path fill="#333433" opacity="0.69" d=" M 473.92 118.74 C 477.04 119.95 477.53 124.53 477.73 127.52 C 476.69 124.84 475.53 122.22 474.32 119.62 L 473.92 118.74 Z" />
</g>
<g id="#404140b5">
<path fill="#404140" opacity="0.71" d=" M 302.20 120.39 C 303.56 122.55 304.58 124.90 305.19 127.38 C 303.13 126.01 302.39 122.81 302.20 120.39 Z" />
</g>
<g id="#2e2f2e94">
<path fill="#2e2f2e" opacity="0.58" d=" M 471.43 126.09 C 472.24 124.23 472.28 121.81 474.07 120.55 C 472.67 126.11 470.42 131.41 468.16 136.67 C 468.13 132.87 470.41 129.64 471.43 126.09 Z" />
</g>
<g id="#313231a3">
<path fill="#313231" opacity="0.64" d=" M 656.91 123.58 C 659.02 125.55 659.78 128.80 659.82 131.61 C 658.65 129.01 657.58 126.36 656.91 123.58 Z" />
</g>
<g id="#cca209ff">
<path fill="#cca209" opacity="1.00" d=" M 56.94 125.15 C 59.06 125.50 61.17 125.88 63.28 126.27 C 65.65 126.71 68.02 127.13 70.40 127.49 C 87.47 130.39 104.51 133.48 121.42 137.20 C 116.84 137.11 114.76 141.85 110.48 142.38 C 110.61 143.40 110.75 144.42 110.88 145.44 C 110.22 145.41 109.56 145.38 108.90 145.35 C 107.76 147.34 106.47 149.22 105.37 151.23 C 104.19 153.40 101.72 154.38 100.17 156.24 C 99.31 157.61 99.11 159.26 98.74 160.81 C 98.98 161.10 99.45 161.68 99.69 161.97 C 97.92 164.70 98.13 167.94 98.59 171.01 C 98.41 171.32 98.03 171.95 97.85 172.26 C 98.63 175.67 98.57 179.19 99.25 182.62 C 99.82 182.79 100.95 183.13 101.52 183.30 C 101.16 184.41 100.75 185.51 100.55 186.67 C 101.71 188.04 104.10 188.51 104.19 190.59 C 104.71 194.28 106.56 197.53 108.41 200.69 C 103.10 201.44 97.78 202.27 92.42 202.62 C 89.68 202.75 86.95 202.94 84.22 203.25 C 77.48 203.11 70.74 202.78 64.01 202.33 C 58.08 188.29 54.21 173.28 53.57 158.02 C 53.30 147.01 53.68 135.74 56.94 125.15 Z" />
</g>
<g id="#2e2e2e95">
<path fill="#2e2e2e" opacity="0.58" d=" M 649.29 133.30 C 650.79 130.52 650.71 126.88 653.08 124.62 C 651.35 131.10 648.77 137.33 646.26 143.53 C 646.14 139.94 648.20 136.65 649.29 133.30 Z" />
</g>
<g id="#3f403fb7">
<path fill="#3f403f" opacity="0.72" d=" M 305.21 127.42 C 306.57 129.56 307.58 131.89 308.19 134.36 C 306.10 132.98 305.42 129.83 305.21 127.42 Z" />
</g>
<g id="#313231ad">
<path fill="#313231" opacity="0.68" d=" M 477.80 127.73 C 480.23 129.40 480.57 132.94 480.80 135.66 C 479.65 133.08 478.60 130.45 477.80 127.73 Z" />
</g>
<g id="#3b3b3b89">
<path fill="#3b3b3b" opacity="0.54" d=" M 356.90 135.33 C 357.53 132.87 358.55 130.53 359.88 128.36 C 359.69 130.86 358.84 133.64 356.90 135.33 Z" />
</g>
<g id="#44454498">
<path fill="#444544" opacity="0.60" d=" M 334.14 138.67 C 334.20 135.81 335.14 132.54 337.16 130.52 C 336.56 133.38 335.43 136.06 334.14 138.67 Z" />
</g>
<g id="#42434283">
<path fill="#424342" opacity="0.51" d=" M 659.92 132.13 L 660.81 132.27 L 661.22 133.27 L 660.73 134.08 C 660.53 133.60 660.12 132.62 659.92 132.13 Z" />
</g>
<g id="#c7c7c5ff">
<path fill="#c7c7c5" opacity="1.00" d=" M 215.10 132.54 C 218.22 134.54 221.16 136.81 224.02 139.17 C 224.21 139.40 224.60 139.87 224.80 140.10 C 228.67 144.42 232.25 149.17 234.06 154.76 C 237.71 165.13 235.04 177.36 227.80 185.55 C 227.74 184.07 227.47 182.51 228.15 181.12 C 234.17 167.70 231.59 150.51 220.83 140.22 C 218.66 137.88 215.34 136.06 215.10 132.54 Z" />
</g>
<g id="#3f403fb9">
<path fill="#3f403f" opacity="0.73" d=" M 308.21 134.40 C 309.56 136.59 310.66 138.92 311.18 141.46 C 309.15 139.93 308.42 136.87 308.21 134.40 Z" />
</g>
<g id="#383838a6">
<path fill="#383838" opacity="0.65" d=" M 660.91 134.53 C 662.17 135.20 662.40 136.74 662.94 137.93 C 664.02 141.27 665.81 144.41 666.16 147.96 C 658.77 147.94 651.38 148.21 644.01 147.79 C 644.52 146.35 644.49 144.33 646.20 143.69 C 645.77 144.78 645.36 145.89 644.98 146.99 C 651.75 146.98 658.52 147.04 665.30 146.95 C 663.93 142.78 662.12 138.76 660.91 134.53 Z" />
</g>
<g id="#404141ab">
<path fill="#404141" opacity="0.67" d=" M 353.81 142.34 C 354.40 139.88 355.43 137.56 356.84 135.46 C 356.41 137.85 355.89 140.91 353.81 142.34 Z" />
<path fill="#404141" opacity="0.67" d=" M 350.82 149.32 C 351.42 146.85 352.43 144.51 353.79 142.37 C 353.61 144.83 352.80 147.74 350.82 149.32 Z" />
</g>
<g id="#4040408b">
<path fill="#404040" opacity="0.55" d=" M 480.89 136.14 L 481.77 136.26 L 482.20 137.26 L 481.71 138.09 C 481.50 137.60 481.10 136.62 480.89 136.14 Z" />
</g>
<g id="#41414182">
<path fill="#414141" opacity="0.51" d=" M 467.24 137.26 L 468.12 137.17 C 467.89 137.65 467.44 138.60 467.21 139.08 L 466.76 138.23 L 467.24 137.26 Z" />
</g>
<g id="#daad05ff">
<path fill="#daad05" opacity="1.00" d=" M 110.48 142.38 C 114.76 141.85 116.84 137.11 121.42 137.20 C 131.58 139.34 141.63 141.99 151.71 144.49 C 159.79 146.58 167.92 148.53 175.80 151.29 C 176.66 153.87 179.45 154.36 181.65 155.28 C 181.11 156.20 180.57 157.12 180.03 158.04 C 180.83 158.74 181.63 159.46 182.43 160.17 C 182.42 161.00 182.40 161.84 182.38 162.68 C 183.06 163.49 183.73 164.32 184.40 165.14 C 182.05 167.74 183.11 171.14 184.40 173.95 C 183.98 175.21 183.56 176.47 183.14 177.73 C 159.76 189.52 134.19 196.52 108.41 200.69 C 106.56 197.53 104.71 194.28 104.19 190.59 C 104.10 188.51 101.71 188.04 100.55 186.67 C 100.75 185.51 101.16 184.41 101.52 183.30 C 100.95 183.13 99.82 182.79 99.25 182.62 C 98.57 179.19 98.63 175.67 97.85 172.26 C 98.03 171.95 98.41 171.32 98.59 171.01 C 98.13 167.94 97.92 164.70 99.69 161.97 C 99.45 161.68 98.98 161.10 98.74 160.81 C 99.11 159.26 99.31 157.61 100.17 156.24 C 101.72 154.38 104.19 153.40 105.37 151.23 C 106.47 149.22 107.76 147.34 108.90 145.35 C 109.56 145.38 110.22 145.41 110.88 145.44 C 110.75 144.42 110.61 143.40 110.48 142.38 Z" />
</g>
<g id="#30303084">
<path fill="#303030" opacity="0.52" d=" M 481.89 138.62 C 483.99 140.58 484.40 143.81 484.95 146.53 C 483.25 144.20 482.60 141.35 481.89 138.62 Z" />
</g>
<g id="#3334339d">
<path fill="#333433" opacity="0.62" d=" M 465.44 144.06 C 464.15 142.88 465.10 139.64 467.02 140.10 C 466.91 141.56 466.27 142.88 465.44 144.06 Z" />
</g>
<g id="#3c3d3d9f">
<path fill="#3c3d3d" opacity="0.62" d=" M 463.99 144.94 L 465.13 144.87 C 465.01 145.41 464.78 146.47 464.66 147.00 C 471.51 146.99 478.35 147.04 485.20 146.94 L 485.23 147.92 C 478.15 147.95 471.07 148.04 464.00 147.85 C 464.00 147.13 463.99 145.67 463.99 144.94 Z" />
</g>
<g id="#3f403fad">
<path fill="#3f403f" opacity="0.68" d=" M 347.83 156.34 C 348.42 153.87 349.43 151.53 350.79 149.39 C 350.68 151.88 349.75 154.71 347.83 156.34 Z" />
<path fill="#3f403f" opacity="0.68" d=" M 578.10 153.10 C 577.84 151.73 579.74 149.84 581.12 150.08 C 581.05 151.74 579.77 153.05 578.10 153.10 Z" />
</g>
<g id="#cfa306ff">
<path fill="#cfa306" opacity="1.00" d=" M 175.80 151.29 C 184.96 154.35 194.45 157.96 201.39 164.94 C 200.43 165.92 199.47 166.90 198.48 167.86 C 194.72 171.15 190.45 173.79 186.15 176.30 C 185.39 176.66 183.89 177.37 183.14 177.73 C 183.56 176.47 183.98 175.21 184.40 173.95 C 183.11 171.14 182.05 167.74 184.40 165.14 C 183.73 164.32 183.06 163.49 182.38 162.68 C 182.40 161.84 182.42 161.00 182.43 160.17 C 181.63 159.46 180.83 158.74 180.03 158.04 C 180.57 157.12 181.11 156.20 181.65 155.28 C 179.45 154.36 176.66 153.87 175.80 151.29 Z" />
</g>
<g id="#414241af">
<path fill="#414241" opacity="0.69" d=" M 344.86 163.13 C 345.45 160.76 346.42 158.52 347.77 156.50 C 347.87 158.92 346.32 160.98 345.73 163.26 L 344.86 163.13 Z" />
</g>
<g id="#3b3b3b87">
<path fill="#3b3b3b" opacity="0.53" d=" M 319.09 160.41 C 320.42 162.56 321.47 164.85 322.18 167.28 C 320.02 165.78 319.42 162.85 319.09 160.41 Z" />
</g>
<g id="#2b2d2cff">
<path fill="#2b2d2c" opacity="1.00" d=" M 457.90 163.00 C 459.47 162.15 461.29 162.23 463.03 162.23 C 471.01 162.37 478.99 162.23 486.97 162.26 C 488.38 162.24 489.84 162.39 491.14 163.03 C 480.07 163.35 468.97 163.39 457.90 163.00 Z" />
</g>
<g id="#414242b0">
<path fill="#414242" opacity="0.69" d=" M 341.89 170.47 C 342.22 167.89 343.48 165.60 344.77 163.39 C 344.76 165.96 343.61 168.59 341.89 170.47 Z" />
</g>
<g id="#4d4e4ea7">
<path fill="#4d4e4e" opacity="0.65" d=" M 322.21 167.37 C 322.91 168.89 323.69 170.37 324.38 171.91 C 330.06 172.58 336.08 171.02 341.55 172.72 C 336.41 173.45 331.19 172.96 326.02 173.07 C 322.94 173.58 322.47 169.56 322.21 167.37 Z" />
</g>
<g id="#dbdcd8ff">
<path fill="#dbdcd8" opacity="1.00" d=" M 183.14 177.73 C 183.89 177.37 185.39 176.66 186.15 176.30 C 185.81 177.69 185.70 179.51 184.07 180.03 C 178.56 182.90 172.94 185.58 167.37 188.33 C 154.63 193.14 141.64 197.33 128.40 200.57 C 118.46 203.87 108.05 205.37 97.92 207.97 C 94.46 209.64 90.30 211.93 89.37 215.97 C 90.53 219.65 94.06 221.76 96.91 224.05 C 104.14 228.41 112.73 229.51 121.03 229.79 C 125.16 229.94 129.52 228.57 133.41 230.57 C 126.13 232.34 118.73 233.49 111.34 234.61 C 106.34 232.35 100.82 232.03 95.61 230.50 C 88.68 228.80 82.47 224.40 78.42 218.56 C 77.71 216.52 77.69 213.87 79.26 212.22 C 82.58 208.83 87.05 206.96 91.41 205.30 C 92.81 205.09 92.26 203.55 92.42 202.62 C 97.78 202.27 103.10 201.44 108.41 200.69 C 134.19 196.52 159.76 189.52 183.14 177.73 Z" />
</g>
<g id="#746b4c7d">
<path fill="#746b4c" opacity="0.49" d=" M 304.85 184.65 C 307.43 183.64 310.28 184.27 312.98 184.11 C 466.67 183.97 620.36 184.02 774.05 183.99 C 775.25 183.83 777.29 184.05 776.98 185.79 C 777.03 203.52 776.97 221.25 777.01 238.98 C 777.08 240.25 776.97 242.42 775.08 241.99 C 619.73 242.05 464.38 241.95 309.03 241.90 C 307.66 241.69 305.81 242.36 304.83 241.07 L 305.95 241.02 C 315.48 240.76 325.02 241.29 334.54 240.80 C 346.88 240.95 359.24 241.18 371.58 240.81 C 379.97 241.05 388.36 241.08 396.75 240.93 C 402.73 240.90 408.71 241.19 414.69 240.83 C 428.98 241.01 443.29 241.14 457.58 240.85 C 465.91 241.05 474.25 241.19 482.57 240.84 C 496.58 241.03 510.60 241.21 524.60 240.85 C 541.90 241.08 559.22 241.16 576.52 240.88 C 579.21 240.98 581.91 241.04 584.60 240.85 C 601.26 241.14 617.94 241.11 634.60 240.86 C 646.60 241.13 658.61 241.12 670.61 240.86 C 705.77 241.27 740.94 240.95 776.11 241.05 C 776.05 222.34 776.12 203.64 776.07 184.93 C 749.26 185.06 722.43 184.73 695.62 185.11 C 677.28 184.82 658.92 184.87 640.58 185.10 C 620.92 184.84 601.23 184.87 581.56 185.12 C 563.92 184.84 546.26 184.88 528.61 185.14 C 514.61 184.84 500.58 184.91 486.57 185.12 C 464.94 184.84 443.29 184.89 421.65 185.17 C 405.66 184.81 389.64 185.03 373.64 185.20 C 355.01 184.80 336.35 185.06 317.71 185.21 C 313.78 184.92 309.83 185.14 305.90 184.96 L 304.85 184.65 Z" />
</g>
<g id="#a2834fef">
<path fill="#a2834f" opacity="0.94" d=" M 304.85 184.65 L 305.90 184.96 C 305.86 203.65 305.84 222.34 305.95 241.02 L 304.83 241.07 C 305.04 222.27 305.00 203.45 304.85 184.65 Z" />
</g>
<g id="#946618ff">
<path fill="#946618" opacity="1.00" d=" M 305.90 184.96 C 309.83 185.14 313.78 184.92 317.71 185.21 C 323.72 186.96 330.02 185.34 336.12 186.49 C 334.80 186.81 333.48 187.13 332.17 187.44 C 332.21 188.57 332.24 189.70 332.28 190.84 C 336.86 189.98 341.67 189.05 346.23 190.58 C 343.36 190.78 340.48 191.00 337.72 191.82 C 331.99 192.85 325.84 194.30 321.79 198.81 C 316.83 203.98 316.37 211.84 317.89 218.49 C 319.77 225.25 326.13 229.80 332.80 231.08 C 339.36 232.59 346.11 232.23 352.72 231.34 C 353.82 231.74 354.93 232.17 356.03 232.61 C 353.66 233.05 351.22 233.20 348.91 233.93 C 347.07 234.96 348.06 237.23 347.93 238.90 C 350.30 239.03 352.67 239.21 355.04 239.48 C 348.24 240.45 341.11 238.50 334.54 240.80 C 325.02 241.29 315.48 240.76 305.95 241.02 C 305.84 222.34 305.86 203.65 305.90 184.96 Z" />
</g>
<g id="#a27415ff">
<path fill="#a27415" opacity="1.00" d=" M 317.71 185.21 C 336.35 185.06 355.01 184.80 373.64 185.20 C 376.04 185.81 378.49 186.24 380.96 186.46 C 380.31 186.72 379.01 187.23 378.36 187.49 C 378.31 188.43 378.26 189.37 378.22 190.31 C 379.66 190.87 381.06 191.52 382.40 192.31 C 377.39 193.09 372.30 194.98 368.87 198.87 C 364.07 204.18 363.37 212.18 365.34 218.83 C 367.08 224.73 372.27 229.05 378.07 230.70 C 375.26 232.90 375.20 237.18 377.51 239.77 C 375.49 239.81 373.50 240.18 371.58 240.81 C 359.24 241.18 346.88 240.95 334.54 240.80 C 341.11 238.50 348.24 240.45 355.04 239.48 C 352.67 239.21 350.30 239.03 347.93 238.90 C 348.06 237.23 347.07 234.96 348.91 233.93 C 351.22 233.20 353.66 233.05 356.03 232.61 C 354.93 232.17 353.82 231.74 352.72 231.34 C 354.70 230.74 358.51 231.15 358.14 228.07 C 358.08 222.27 358.44 216.44 357.82 210.66 L 357.55 209.32 C 354.70 208.98 351.84 208.78 348.98 208.59 C 351.67 208.02 354.28 207.08 356.66 205.69 C 356.14 205.04 355.62 204.41 355.10 203.77 C 355.44 203.77 356.13 203.75 356.47 203.74 C 356.94 200.34 357.28 196.93 357.65 193.52 C 351.11 192.14 344.40 191.56 337.72 191.82 C 340.48 191.00 343.36 190.78 346.23 190.58 C 341.67 189.05 336.86 189.98 332.28 190.84 C 332.24 189.70 332.21 188.57 332.17 187.44 C 333.48 187.13 334.80 186.81 336.12 186.49 C 330.02 185.34 323.72 186.96 317.71 185.21 Z" />
</g>
<g id="#b1820dff">
<path fill="#b1820d" opacity="1.00" d=" M 373.64 185.20 C 389.64 185.03 405.66 184.81 421.65 185.17 C 424.69 186.22 427.92 186.28 431.10 186.40 C 429.46 186.76 427.81 187.11 426.18 187.48 C 426.16 188.57 426.15 189.65 426.14 190.74 C 428.63 190.72 431.90 189.91 433.48 192.46 C 428.86 192.66 424.23 192.54 419.60 192.59 C 419.60 205.48 419.58 218.38 419.61 231.27 C 426.54 231.40 433.47 231.26 440.40 231.37 C 437.19 234.49 432.17 232.40 428.16 233.15 C 428.08 235.36 427.99 237.57 427.91 239.78 C 423.49 240.00 418.94 239.33 414.69 240.83 C 408.71 241.19 402.73 240.90 396.75 240.93 C 397.73 240.47 398.70 240.01 399.68 239.53 C 400.01 236.47 400.24 233.39 400.20 230.31 C 405.31 228.39 409.77 224.44 411.44 219.14 C 413.93 211.57 412.54 202.01 405.97 196.89 C 399.33 191.84 390.39 191.41 382.40 192.31 C 381.06 191.52 379.66 190.87 378.22 190.31 C 378.26 189.37 378.31 188.43 378.36 187.49 C 379.01 187.23 380.31 186.72 380.96 186.46 C 378.49 186.24 376.04 185.81 373.64 185.20 Z" />
</g>
<g id="#bc8d09ff">
<path fill="#bc8d09" opacity="1.00" d=" M 421.65 185.17 C 443.29 184.89 464.94 184.84 486.57 185.12 C 489.36 186.61 492.57 186.38 495.63 186.18 C 494.36 187.40 493.67 188.92 493.87 190.70 C 495.11 190.95 496.39 191.16 497.65 191.41 C 497.62 191.71 497.55 192.31 497.52 192.61 C 485.23 192.53 472.95 192.57 460.66 192.60 C 460.67 205.49 460.64 218.38 460.68 231.27 C 465.24 231.40 469.82 231.17 474.39 231.51 C 471.97 233.93 468.18 232.71 465.12 233.14 C 465.04 235.01 465.02 236.87 465.07 238.74 C 467.07 238.96 469.07 239.20 471.07 239.51 C 466.60 240.33 461.90 239.15 457.58 240.85 C 443.29 241.14 428.98 241.01 414.69 240.83 C 418.94 239.33 423.49 240.00 427.91 239.78 C 427.99 237.57 428.08 235.36 428.16 233.15 C 432.17 232.40 437.19 234.49 440.40 231.37 C 445.07 231.29 449.73 231.32 454.39 231.33 C 454.50 227.68 454.58 224.05 454.65 220.41 C 447.60 220.43 440.55 220.41 433.51 220.42 C 433.45 211.10 433.54 201.78 433.48 192.46 C 431.90 189.91 428.63 190.72 426.14 190.74 C 426.15 189.65 426.16 188.57 426.18 187.48 C 427.81 187.11 429.46 186.76 431.10 186.40 C 427.92 186.28 424.69 186.22 421.65 185.17 Z" />
</g>
<g id="#ce9f05ff">
<path fill="#ce9f05" opacity="1.00" d=" M 486.57 185.12 C 500.58 184.91 514.61 184.84 528.61 185.14 C 530.54 185.69 532.51 186.10 534.51 186.36 C 533.37 192.99 534.61 199.75 533.43 206.38 C 532.96 209.23 532.96 212.12 533.03 215.00 C 533.16 219.04 531.92 222.98 531.96 227.03 C 531.99 230.88 530.46 234.63 531.19 238.48 C 532.12 238.91 533.06 239.34 534.01 239.76 C 530.84 239.81 527.61 239.76 524.60 240.85 C 510.60 241.21 496.58 241.03 482.57 240.84 C 487.27 239.24 492.28 240.37 497.10 239.49 C 495.12 239.18 493.15 238.91 491.18 238.67 C 490.88 232.00 490.40 225.01 493.41 218.83 L 493.51 218.34 C 493.55 215.03 493.60 211.71 493.54 208.40 L 493.46 207.59 C 492.86 207.27 491.66 206.62 491.06 206.29 C 493.07 205.27 495.31 204.93 497.54 204.65 L 497.52 203.53 C 497.53 199.89 497.33 196.25 497.52 192.61 C 497.55 192.31 497.62 191.71 497.65 191.41 C 496.39 191.16 495.11 190.95 493.87 190.70 C 493.67 188.92 494.36 187.40 495.63 186.18 C 492.57 186.38 489.36 186.61 486.57 185.12 Z" />
</g>
<g id="#daab04ff">
<path fill="#daab04" opacity="1.00" d=" M 528.61 185.14 C 546.26 184.88 563.92 184.84 581.56 185.12 C 584.15 185.75 586.79 186.20 589.47 186.30 C 587.40 186.93 585.26 187.29 583.11 187.40 C 582.46 193.14 583.53 199.02 582.51 204.69 C 580.23 208.04 581.26 212.10 580.64 215.87 C 579.30 223.12 580.11 230.53 579.98 237.86 C 580.54 238.46 581.12 239.07 581.71 239.68 C 579.94 239.90 578.20 240.29 576.52 240.88 C 559.22 241.16 541.90 241.08 524.60 240.85 C 527.61 239.76 530.84 239.81 534.01 239.76 C 533.06 239.34 532.12 238.91 531.19 238.48 C 530.46 234.63 531.99 230.88 531.96 227.03 C 531.92 222.98 533.16 219.04 533.03 215.00 C 532.96 212.12 532.96 209.23 533.43 206.38 C 534.61 199.75 533.37 192.99 534.51 186.36 C 532.51 186.10 530.54 185.69 528.61 185.14 Z" />
</g>
<g id="#ebba04ff">
<path fill="#ebba04" opacity="1.00" d=" M 581.56 185.12 C 601.23 184.87 620.92 184.84 640.58 185.10 C 646.23 187.15 652.33 185.39 658.16 186.42 C 655.54 187.13 652.82 187.07 650.14 187.11 C 649.67 192.18 650.46 197.31 649.44 202.34 C 648.24 208.66 649.73 215.13 648.50 221.45 C 647.94 227.14 646.27 232.82 647.20 238.57 C 648.46 238.93 649.73 239.30 651.00 239.69 C 645.54 240.23 639.90 239.18 634.60 240.86 C 617.94 241.11 601.26 241.14 584.60 240.85 C 589.69 239.18 595.10 240.34 600.34 239.87 C 600.81 231.28 601.92 222.75 602.35 214.17 C 603.55 208.72 602.54 203.12 603.56 197.66 C 604.10 194.53 604.13 191.35 604.07 188.18 C 604.49 187.72 605.32 186.79 605.73 186.33 C 600.33 185.85 594.87 185.73 589.47 186.30 C 586.79 186.20 584.15 185.75 581.56 185.12 Z" />
</g>
<g id="#f4c505ff">
<path fill="#f4c505" opacity="1.00" d=" M 640.58 185.10 C 658.92 184.87 677.28 184.82 695.62 185.11 C 698.47 186.22 701.53 186.23 704.55 186.13 C 703.49 193.64 702.82 201.19 702.35 208.75 C 702.91 213.87 701.53 218.90 701.11 223.97 C 700.87 226.60 701.15 229.25 700.84 231.87 C 700.02 232.76 698.99 233.40 698.05 234.14 C 698.45 236.01 698.78 237.89 699.00 239.80 C 691.01 240.20 683.00 239.83 675.01 239.96 C 673.48 239.94 672.04 240.46 670.61 240.86 C 658.61 241.12 646.60 241.13 634.60 240.86 C 639.90 239.18 645.54 240.23 651.00 239.69 C 649.73 239.30 648.46 238.93 647.20 238.57 C 646.27 232.82 647.94 227.14 648.50 221.45 C 649.73 215.13 648.24 208.66 649.44 202.34 C 650.46 197.31 649.67 192.18 650.14 187.11 C 652.82 187.07 655.54 187.13 658.16 186.42 C 652.33 185.39 646.23 187.15 640.58 185.10 Z" />
</g>
<g id="#fccd05ff">
<path fill="#fccd05" opacity="1.00" d=" M 695.62 185.11 C 722.43 184.73 749.26 185.06 776.07 184.93 C 776.12 203.64 776.05 222.34 776.11 241.05 C 740.94 240.95 705.77 241.27 670.61 240.86 C 672.04 240.46 673.48 239.94 675.01 239.96 C 683.00 239.83 691.01 240.20 699.00 239.80 C 698.78 237.89 698.45 236.01 698.05 234.14 C 698.99 233.40 700.02 232.76 700.84 231.87 C 701.15 229.25 700.87 226.60 701.11 223.97 C 701.53 218.90 702.91 213.87 702.35 208.75 C 702.82 201.19 703.49 193.64 704.55 186.13 C 701.53 186.23 698.47 186.22 695.62 185.11 Z" />
</g>
<g id="#c6a20dff">
<path fill="#c6a20d" opacity="1.00" d=" M 211.72 200.32 C 217.73 196.36 223.26 191.59 227.78 185.96 C 227.40 193.58 226.28 201.12 225.56 208.71 C 224.37 216.00 222.50 223.18 220.04 230.16 C 219.45 229.52 218.85 228.89 218.26 228.26 C 215.46 232.13 211.36 234.72 208.43 238.46 C 206.70 240.68 203.76 241.26 201.15 241.74 C 200.40 242.48 199.67 243.24 198.96 244.02 C 198.95 240.48 200.35 236.72 198.64 233.36 C 198.98 232.97 199.65 232.18 199.99 231.79 C 199.48 230.50 198.96 229.22 198.45 227.94 C 200.49 224.73 199.56 220.92 199.73 217.36 C 200.14 215.09 200.62 212.83 200.45 210.51 C 199.09 210.11 197.75 209.66 196.45 209.13 C 201.67 206.42 206.80 203.55 211.72 200.32 Z" />
</g>
<g id="#e2b304ff">
<path fill="#e2b304" opacity="1.00" d=" M 589.47 186.30 C 594.87 185.73 600.33 185.85 605.73 186.33 C 605.32 186.79 604.49 187.72 604.07 188.18 C 604.13 191.35 604.10 194.53 603.56 197.66 C 602.54 203.12 603.55 208.72 602.35 214.17 C 601.92 222.75 600.81 231.28 600.34 239.87 C 595.10 240.34 589.69 239.18 584.60 240.85 C 581.91 241.04 579.21 240.98 576.52 240.88 C 578.20 240.29 579.94 239.90 581.71 239.68 C 581.12 239.07 580.54 238.46 579.98 237.86 C 580.11 230.53 579.30 223.12 580.64 215.87 C 581.26 212.10 580.23 208.04 582.51 204.69 C 583.53 199.02 582.46 193.14 583.11 187.40 C 585.26 187.29 587.40 186.93 589.47 186.30 Z" />
</g>
<g id="#b9b9b2ff">
<path fill="#b9b9b2" opacity="1.00" d=" M 267.11 188.62 C 267.26 188.39 267.56 187.92 267.71 187.69 C 266.74 191.24 266.22 194.98 264.02 198.05 C 265.00 194.89 266.08 191.76 267.11 188.62 Z" />
<path fill="#b9b9b2" opacity="1.00" d=" M 62.03 202.09 C 62.53 202.15 63.52 202.27 64.01 202.33 C 70.74 202.78 77.48 203.11 84.22 203.25 C 82.09 203.56 79.95 203.86 77.80 203.95 C 76.15 204.14 74.26 203.71 72.88 204.87 C 70.03 207.03 66.74 208.70 64.29 211.32 C 62.23 213.65 63.33 216.92 64.80 219.23 C 68.38 224.26 72.68 229.03 78.48 231.51 C 81.79 233.69 86.59 233.28 88.95 236.81 C 86.75 237.07 84.57 237.43 82.37 237.67 C 74.49 237.41 66.57 237.99 58.73 236.88 C 60.75 239.16 63.12 241.10 65.04 243.48 C 62.20 241.69 59.81 239.07 57.95 236.29 C 61.70 236.47 65.40 237.37 69.17 237.14 C 69.33 236.88 69.66 236.34 69.82 236.07 C 65.73 233.23 62.92 229.09 59.55 225.51 C 55.74 221.01 52.30 216.20 49.15 211.21 C 49.55 210.25 49.95 209.28 50.35 208.32 C 51.50 208.36 52.64 208.40 53.79 208.43 C 56.62 206.65 59.60 205.11 62.65 203.72 C 62.49 203.31 62.19 202.50 62.03 202.09 Z" />
<path fill="#b9b9b2" opacity="1.00" d=" M 250.13 223.02 C 251.09 221.12 252.27 219.34 253.69 217.75 C 252.96 219.79 252.32 222.10 250.13 223.02 Z" />
</g>
<g id="#9b7413ff">
<path fill="#9b7413" opacity="1.00" d=" M 260.33 194.10 C 262.37 192.02 264.57 190.08 267.11 188.62 C 266.08 191.76 265.00 194.89 264.02 198.05 L 263.59 199.36 C 263.55 199.44 263.48 199.59 263.45 199.67 L 262.91 200.68 C 260.40 205.02 258.17 209.51 256.05 214.05 C 255.47 215.41 254.68 216.66 253.69 217.75 C 252.27 219.34 251.09 221.12 250.13 223.02 C 248.99 225.20 247.49 227.19 245.71 228.89 C 242.86 231.53 240.83 234.88 238.19 237.72 C 235.98 239.92 233.93 242.38 231.28 244.07 C 228.81 244.80 227.23 246.82 225.76 248.78 C 225.33 249.10 224.48 249.72 224.05 250.03 C 222.14 251.13 220.42 252.50 218.80 253.99 C 216.78 255.69 214.48 257.02 212.11 258.18 C 209.90 259.21 207.77 260.42 205.67 261.67 L 204.75 262.20 C 207.18 256.79 210.92 252.06 213.45 246.68 C 214.03 246.89 215.19 247.31 215.76 247.51 C 219.20 244.69 222.66 241.89 225.81 238.74 C 237.71 229.51 245.86 216.65 254.54 204.58 C 257.07 201.82 259.87 199.25 261.69 195.92 C 261.23 195.31 260.77 194.71 260.33 194.10 Z" />
</g>
<g id="#ffffffff">
<path fill="#ffffff" opacity="1.00" d=" M 382.40 192.31 C 390.39 191.41 399.33 191.84 405.97 196.89 C 412.54 202.01 413.93 211.57 411.44 219.14 C 409.77 224.44 405.31 228.39 400.20 230.31 C 393.07 232.45 385.28 232.50 378.07 230.70 C 372.27 229.05 367.08 224.73 365.34 218.83 C 363.37 212.18 364.07 204.18 368.87 198.87 C 372.30 194.98 377.39 193.09 382.40 192.31 M 383.23 203.30 C 380.97 204.23 379.37 206.48 379.27 208.92 C 379.10 212.29 378.57 216.29 380.99 219.05 C 383.49 221.77 387.55 221.64 390.95 221.38 C 394.29 221.22 397.48 218.60 397.67 215.15 C 397.98 211.20 398.58 205.81 394.44 203.60 C 390.96 202.08 386.79 202.14 383.23 203.30 Z" />
<path fill="#ffffff" opacity="1.00" d=" M 321.79 198.81 C 325.84 194.30 331.99 192.85 337.72 191.82 C 344.40 191.56 351.11 192.14 357.65 193.52 C 357.28 196.93 356.94 200.34 356.47 203.74 C 356.13 203.75 355.44 203.77 355.10 203.77 C 349.13 202.69 342.91 201.70 336.92 203.14 C 334.11 203.73 332.16 206.31 331.90 209.09 C 331.50 212.45 331.44 216.45 333.83 219.14 C 337.20 222.08 342.04 221.42 346.18 221.31 C 346.17 217.76 346.17 214.22 346.30 210.68 C 350.13 210.77 353.98 210.77 357.82 210.66 C 358.44 216.44 358.08 222.27 358.14 228.07 C 358.51 231.15 354.70 230.74 352.72 231.34 C 346.11 232.23 339.36 232.59 332.80 231.08 C 326.13 229.80 319.77 225.25 317.89 218.49 C 316.37 211.84 316.83 203.98 321.79 198.81 Z" />
<path fill="#ffffff" opacity="1.00" d=" M 419.60 192.59 C 424.23 192.54 428.86 192.66 433.48 192.46 C 433.54 201.78 433.45 211.10 433.51 220.42 C 440.55 220.41 447.60 220.43 454.65 220.41 C 454.58 224.05 454.50 227.68 454.39 231.33 C 449.73 231.32 445.07 231.29 440.40 231.37 C 433.47 231.26 426.54 231.40 419.61 231.27 C 419.58 218.38 419.60 205.48 419.60 192.59 Z" />
<path fill="#ffffff" opacity="1.00" d=" M 460.66 192.60 C 472.95 192.57 485.23 192.53 497.52 192.61 C 497.33 196.25 497.53 199.89 497.52 203.53 C 489.86 203.44 482.19 203.49 474.54 203.49 C 474.53 205.14 474.54 206.78 474.55 208.43 C 480.88 208.45 487.21 208.47 493.54 208.40 C 493.60 211.71 493.55 215.03 493.51 218.34 C 487.16 218.53 480.81 218.22 474.47 218.52 C 474.53 222.85 474.71 227.19 474.39 231.51 C 469.82 231.17 465.24 231.40 460.68 231.27 C 460.64 218.38 460.67 205.49 460.66 192.60 Z" />
</g>
<g id="#68625378">
<path fill="#686253" opacity="0.47" d=" M 263.45 199.67 C 263.48 199.59 263.55 199.44 263.59 199.36 C 263.55 199.44 263.48 199.59 263.45 199.67 Z" />
</g>
<g id="#c4c3bcff">
<path fill="#c4c3bc" opacity="1.00" d=" M 256.05 214.05 C 258.17 209.51 260.40 205.02 262.91 200.68 C 262.88 202.94 261.06 204.48 260.24 206.46 C 258.75 208.96 258.39 212.09 256.05 214.05 Z" />
<path fill="#c4c3bc" opacity="1.00" d=" M 72.88 204.87 C 74.26 203.71 76.15 204.14 77.80 203.95 C 78.31 204.34 79.33 205.11 79.84 205.50 C 76.64 207.35 73.04 208.70 70.38 211.34 C 67.79 214.62 69.82 219.12 71.83 222.16 C 77.21 228.88 85.66 231.97 93.67 234.29 C 93.52 234.87 93.21 236.04 93.06 236.62 C 91.69 236.67 90.32 236.71 88.95 236.81 C 86.59 233.28 81.79 233.69 78.48 231.51 C 72.68 229.03 68.38 224.26 64.80 219.23 C 63.33 216.92 62.23 213.65 64.29 211.32 C 66.74 208.70 70.03 207.03 72.88 204.87 Z" />
</g>
<g id="#cecec7ff">
<path fill="#cecec7" opacity="1.00" d=" M 84.22 203.25 C 86.95 202.94 89.68 202.75 92.42 202.62 C 92.26 203.55 92.81 205.09 91.41 205.30 C 87.05 206.96 82.58 208.83 79.26 212.22 C 77.69 213.87 77.71 216.52 78.42 218.56 C 82.47 224.40 88.68 228.80 95.61 230.50 C 100.82 232.03 106.34 232.35 111.34 234.61 C 105.29 235.60 99.18 236.31 93.06 236.62 C 93.21 236.04 93.52 234.87 93.67 234.29 C 85.66 231.97 77.21 228.88 71.83 222.16 C 69.82 219.12 67.79 214.62 70.38 211.34 C 73.04 208.70 76.64 207.35 79.84 205.50 C 79.33 205.11 78.31 204.34 77.80 203.95 C 79.95 203.86 82.09 203.56 84.22 203.25 Z" />
<path fill="#cecec7" opacity="1.00" d=" M 238.19 237.72 C 240.83 234.88 242.86 231.53 245.71 228.89 C 244.42 231.23 242.47 233.14 241.32 235.56 C 240.69 236.72 239.62 237.83 238.19 237.72 Z" />
</g>
<g id="#9b6d16ff">
<path fill="#9b6d16" opacity="1.00" d=" M 331.90 209.09 C 332.16 206.31 334.11 203.73 336.92 203.14 C 342.91 201.70 349.13 202.69 355.10 203.77 C 355.62 204.41 356.14 205.04 356.66 205.69 C 354.28 207.08 351.67 208.02 348.98 208.59 C 351.84 208.78 354.70 208.98 357.55 209.32 L 357.82 210.66 C 353.98 210.77 350.13 210.77 346.30 210.68 C 346.17 214.22 346.17 217.76 346.18 221.31 C 342.04 221.42 337.20 222.08 333.83 219.14 C 331.44 216.45 331.50 212.45 331.90 209.09 Z" />
</g>
<g id="#aa7c11ff">
<path fill="#aa7c11" opacity="1.00" d=" M 383.23 203.30 C 386.79 202.14 390.96 202.08 394.44 203.60 C 398.58 205.81 397.98 211.20 397.67 215.15 C 397.48 218.60 394.29 221.22 390.95 221.38 C 387.55 221.64 383.49 221.77 380.99 219.05 C 378.57 216.29 379.10 212.29 379.27 208.92 C 379.37 206.48 380.97 204.23 383.23 203.30 Z" />
</g>
<g id="#c59705ff">
<path fill="#c59705" opacity="1.00" d=" M 474.54 203.49 C 482.19 203.49 489.86 203.44 497.52 203.53 L 497.54 204.65 C 495.31 204.93 493.07 205.27 491.06 206.29 C 491.66 206.62 492.86 207.27 493.46 207.59 L 493.54 208.40 C 487.21 208.47 480.88 208.45 474.55 208.43 C 474.54 206.78 474.53 205.14 474.54 203.49 Z" />
<path fill="#c59705" opacity="1.00" d=" M 474.47 218.52 C 480.81 218.22 487.16 218.53 493.51 218.34 L 493.41 218.83 C 490.40 225.01 490.88 232.00 491.18 238.67 C 493.15 238.91 495.12 239.18 497.10 239.49 C 492.28 240.37 487.27 239.24 482.57 240.84 C 474.25 241.19 465.91 241.05 457.58 240.85 C 461.90 239.15 466.60 240.33 471.07 239.51 C 469.07 239.20 467.07 238.96 465.07 238.74 C 465.02 236.87 465.04 235.01 465.12 233.14 C 468.18 232.71 471.97 233.93 474.39 231.51 C 474.71 227.19 474.53 222.85 474.47 218.52 Z" />
</g>
<g id="#cfab24ff">
<path fill="#cfab24" opacity="1.00" d=" M 172.15 219.45 C 180.44 216.47 188.50 212.91 196.45 209.13 C 197.75 209.66 199.09 210.11 200.45 210.51 C 200.62 212.83 200.14 215.09 199.73 217.36 C 199.56 220.92 200.49 224.73 198.45 227.94 C 196.91 227.32 194.76 227.36 193.71 228.81 C 191.07 232.28 189.37 236.55 185.68 239.12 C 185.42 240.07 185.16 241.02 184.88 241.96 C 183.47 243.19 181.95 244.28 180.44 245.38 C 180.85 246.19 181.27 247.01 181.68 247.83 C 181.19 247.73 180.21 247.52 179.72 247.41 C 179.15 248.00 178.58 248.59 178.01 249.18 C 173.83 249.89 169.92 248.16 166.03 246.94 C 167.45 246.19 167.86 245.27 166.53 244.18 C 170.41 242.22 176.18 238.20 173.82 233.21 C 173.11 230.50 168.66 231.62 168.49 228.69 C 168.37 228.12 168.14 226.98 168.03 226.41 C 169.71 224.29 171.05 221.92 172.15 219.45 Z" />
</g>
<g id="#c29607ff">
<path fill="#c29607" opacity="1.00" d=" M 133.41 230.57 C 146.54 227.70 159.48 223.94 172.15 219.45 C 171.05 221.92 169.71 224.29 168.03 226.41 C 164.83 230.41 161.00 233.83 156.97 236.96 C 151.70 240.49 145.99 243.37 140.02 245.51 C 131.56 248.39 122.50 248.57 113.66 248.06 C 102.78 246.17 92.25 242.62 82.37 237.67 C 84.57 237.43 86.75 237.07 88.95 236.81 C 90.32 236.71 91.69 236.67 93.06 236.62 C 99.18 236.31 105.29 235.60 111.34 234.61 C 118.73 233.49 126.13 232.34 133.41 230.57 Z" />
</g>
<g id="#d1af32ff">
<path fill="#d1af32" opacity="1.00" d=" M 156.97 236.96 C 161.00 233.83 164.83 230.41 168.03 226.41 C 168.14 226.98 168.37 228.12 168.49 228.69 C 168.66 231.62 173.11 230.50 173.82 233.21 C 176.18 238.20 170.41 242.22 166.53 244.18 C 167.86 245.27 167.45 246.19 166.03 246.94 C 164.84 246.74 163.65 246.62 162.46 246.50 C 161.99 243.69 160.28 241.51 157.98 239.93 C 158.17 239.01 158.36 238.09 158.56 237.18 C 158.16 237.12 157.36 237.02 156.97 236.96 Z" />
</g>
<g id="#c5a11dff">
<path fill="#c5a11d" opacity="1.00" d=" M 193.71 228.81 C 194.76 227.36 196.91 227.32 198.45 227.94 C 198.96 229.22 199.48 230.50 199.99 231.79 C 199.65 232.18 198.98 232.97 198.64 233.36 C 200.35 236.72 198.95 240.48 198.96 244.02 C 197.84 245.27 196.85 246.63 195.94 248.04 C 194.16 249.10 191.98 249.20 190.55 247.49 C 188.99 245.31 187.49 243.01 184.88 241.96 C 185.16 241.02 185.42 240.07 185.68 239.12 C 189.37 236.55 191.07 232.28 193.71 228.81 Z" />
</g>
<g id="#ba9614ff">
<path fill="#ba9614" opacity="1.00" d=" M 218.26 228.26 C 218.85 228.89 219.45 229.52 220.04 230.16 C 218.61 235.96 215.81 241.23 213.45 246.68 C 210.92 252.06 207.18 256.79 204.75 262.20 L 204.61 262.56 C 204.14 262.77 203.20 263.20 202.73 263.41 C 202.64 263.45 202.47 263.53 202.38 263.57 C 199.64 264.81 196.97 266.25 194.08 267.10 C 192.71 267.30 191.34 267.50 189.98 267.70 C 191.76 265.90 194.38 264.62 195.04 261.98 C 195.78 259.33 195.68 256.47 196.90 253.95 C 197.92 251.99 196.45 249.93 195.94 248.04 C 196.85 246.63 197.84 245.27 198.96 244.02 C 199.67 243.24 200.40 242.48 201.15 241.74 C 203.76 241.26 206.70 240.68 208.43 238.46 C 211.36 234.72 215.46 232.13 218.26 228.26 Z" />
</g>
<g id="#aa7b10ff">
<path fill="#aa7b10" opacity="1.00" d=" M 378.07 230.70 C 385.28 232.50 393.07 232.45 400.20 230.31 C 400.24 233.39 400.01 236.47 399.68 239.53 C 398.70 240.01 397.73 240.47 396.75 240.93 C 388.36 241.08 379.97 241.05 371.58 240.81 C 373.50 240.18 375.49 239.81 377.51 239.77 C 375.20 237.18 375.26 232.90 378.07 230.70 Z" />
</g>
<g id="#caae54ff">
<path fill="#caae54" opacity="1.00" d=" M 58.73 236.88 C 66.57 237.99 74.49 237.41 82.37 237.67 C 92.25 242.62 102.78 246.17 113.66 248.06 C 117.92 249.81 122.57 248.97 127.03 249.45 C 123.06 250.33 118.97 249.86 114.94 250.25 C 116.16 251.24 117.39 252.20 118.62 253.18 C 118.14 253.78 117.67 254.38 117.20 254.98 C 119.57 259.09 124.88 259.51 128.13 262.72 C 125.45 266.02 123.59 270.15 119.67 272.24 L 119.30 272.50 C 99.30 267.23 80.14 257.75 65.04 243.48 C 63.12 241.10 60.75 239.16 58.73 236.88 Z" />
</g>
<g id="#c8a739ff">
<path fill="#c8a739" opacity="1.00" d=" M 140.02 245.51 C 145.99 243.37 151.70 240.49 156.97 236.96 C 157.36 237.02 158.16 237.12 158.56 237.18 C 158.36 238.09 158.17 239.01 157.98 239.93 C 160.28 241.51 161.99 243.69 162.46 246.50 C 163.65 246.62 164.84 246.74 166.03 246.94 C 169.92 248.16 173.83 249.89 178.01 249.18 C 177.31 250.08 176.66 251.01 176.00 251.94 C 176.53 252.82 177.06 253.70 177.59 254.58 C 176.48 255.23 175.37 255.89 174.27 256.55 C 174.78 257.36 175.30 258.17 175.83 258.98 C 173.76 259.55 171.71 260.26 169.94 261.49 C 170.93 261.86 171.92 262.23 172.93 262.59 C 170.11 263.04 167.14 263.62 165.17 265.87 C 163.11 264.55 161.13 263.06 158.83 262.18 C 156.58 261.98 154.78 263.61 152.94 264.64 C 152.06 264.26 151.18 263.88 150.31 263.50 C 149.08 263.95 147.86 264.42 146.64 264.89 C 146.21 262.66 145.22 260.70 143.11 259.68 C 143.72 258.08 144.51 256.51 144.76 254.81 C 143.99 252.63 142.73 250.66 142.17 248.42 C 141.89 247.18 141.21 246.06 140.02 245.51 Z" />
</g>
<g id="#bd9a29ff">
<path fill="#bd9a29" opacity="1.00" d=" M 180.44 245.38 C 181.95 244.28 183.47 243.19 184.88 241.96 C 187.49 243.01 188.99 245.31 190.55 247.49 C 191.98 249.20 194.16 249.10 195.94 248.04 C 196.45 249.93 197.92 251.99 196.90 253.95 C 195.68 256.47 195.78 259.33 195.04 261.98 C 194.38 264.62 191.76 265.90 189.98 267.70 C 188.92 268.39 187.86 269.09 186.76 269.72 C 181.07 271.65 175.16 273.30 169.16 273.86 C 165.09 273.59 161.01 273.74 156.93 273.53 C 158.72 273.14 160.52 272.85 162.33 272.63 C 162.41 272.30 162.55 271.66 162.63 271.34 C 163.03 271.16 163.84 270.82 164.25 270.64 C 164.49 269.04 164.76 267.43 165.17 265.87 C 167.14 263.62 170.11 263.04 172.93 262.59 C 171.92 262.23 170.93 261.86 169.94 261.49 C 171.71 260.26 173.76 259.55 175.83 258.98 C 175.30 258.17 174.78 257.36 174.27 256.55 C 175.37 255.89 176.48 255.23 177.59 254.58 C 177.06 253.70 176.53 252.82 176.00 251.94 C 176.66 251.01 177.31 250.08 178.01 249.18 C 178.58 248.59 179.15 248.00 179.72 247.41 C 180.21 247.52 181.19 247.73 181.68 247.83 C 181.27 247.01 180.85 246.19 180.44 245.38 Z" />
</g>
<g id="#705c2ca5">
<path fill="#705c2c" opacity="0.65" d=" M 225.76 248.78 C 227.23 246.82 228.81 244.80 231.28 244.07 C 229.87 246.05 228.05 247.88 225.76 248.78 Z" />
</g>
<g id="#ccac48ff">
<path fill="#ccac48" opacity="1.00" d=" M 113.66 248.06 C 122.50 248.57 131.56 248.39 140.02 245.51 C 141.21 246.06 141.89 247.18 142.17 248.42 C 142.73 250.66 143.99 252.63 144.76 254.81 C 144.51 256.51 143.72 258.08 143.11 259.68 C 139.40 260.92 135.39 262.60 131.74 260.23 C 131.07 261.78 130.18 263.67 128.13 262.72 C 124.88 259.51 119.57 259.09 117.20 254.98 C 117.67 254.38 118.14 253.78 118.62 253.18 C 117.39 252.20 116.16 251.24 114.94 250.25 C 118.97 249.86 123.06 250.33 127.03 249.45 C 122.57 248.97 117.92 249.81 113.66 248.06 Z" />
</g>
<g id="#c1a242ff">
<path fill="#c1a242" opacity="1.00" d=" M 131.74 260.23 C 135.39 262.60 139.40 260.92 143.11 259.68 C 145.22 260.70 146.21 262.66 146.64 264.89 C 147.86 264.42 149.08 263.95 150.31 263.50 C 151.18 263.88 152.06 264.26 152.94 264.64 C 154.78 263.61 156.58 261.98 158.83 262.18 C 161.13 263.06 163.11 264.55 165.17 265.87 C 164.76 267.43 164.49 269.04 164.25 270.64 C 163.84 270.82 163.03 271.16 162.63 271.34 C 162.55 271.66 162.41 272.30 162.33 272.63 C 160.52 272.85 158.72 273.14 156.93 273.53 C 161.01 273.74 165.09 273.59 169.16 273.86 C 158.31 276.20 147.01 275.96 135.98 275.16 C 130.50 274.50 124.95 273.92 119.67 272.24 C 123.59 270.15 125.45 266.02 128.13 262.72 C 130.18 263.67 131.07 261.78 131.74 260.23 Z" />
</g>
<g id="#645f4f70">
<path fill="#645f4f" opacity="0.44" d=" M 202.38 263.57 C 202.47 263.53 202.64 263.45 202.73 263.41 C 202.64 263.45 202.47 263.53 202.38 263.57 Z" />
</g>
</svg>
