<?xml version="1.0" encoding="UTF-8" ?>
<!DOCTYPE svg PUBLIC "-//W3C//DTD SVG 1.1//EN" "http://www.w3.org/Graphics/SVG/1.1/DTD/svg11.dtd">
<svg width="500pt" height="427pt" viewBox="0 0 500 427" version="1.1" xmlns="http://www.w3.org/2000/svg">
<g id="#ffffffff">
<path fill="#ffffff" opacity="1.00" d=" M 93.33 63.16 C 95.66 57.97 94.82 52.03 96.89 46.74 C 100.66 64.11 103.15 81.79 108.25 98.85 C 110.93 105.84 111.88 113.78 116.89 119.64 C 118.73 115.36 121.34 110.74 126.12 109.30 C 130.94 107.48 135.66 110.67 139.08 113.80 C 142.82 117.48 147.85 119.25 152.41 121.64 C 148.30 121.92 144.18 122.14 140.11 122.80 C 136.73 123.29 134.02 125.53 131.18 127.24 C 135.10 131.86 137.87 137.87 136.60 144.05 C 134.69 153.96 126.65 161.13 118.84 166.79 C 113.77 170.24 108.64 173.84 102.74 175.74 C 89.42 180.26 77.89 190.85 73.66 204.43 C 72.20 208.75 72.03 213.33 71.58 217.83 C 65.47 204.02 52.08 195.16 37.98 191.04 C 50.16 190.15 62.20 185.52 71.54 177.59 C 75.23 174.25 79.00 170.17 79.42 164.98 C 79.67 162.43 78.03 160.25 76.05 158.88 C 70.04 154.38 65.94 147.52 64.75 140.11 C 62.26 139.17 59.53 138.27 57.87 136.04 C 55.39 133.00 55.27 128.88 53.67 125.44 C 51.43 122.75 48.06 120.58 47.52 116.84 C 46.65 113.25 48.45 108.58 44.98 106.04 C 38.70 100.43 32.60 92.60 33.93 83.66 C 30.36 76.94 25.67 70.80 23.08 63.59 C 41.08 74.35 58.44 86.18 75.23 98.74 C 80.05 102.44 84.89 106.14 89.41 110.21 C 87.95 104.98 88.10 99.43 89.91 94.31 C 88.47 87.79 87.55 79.88 92.41 74.51 C 92.19 70.72 91.89 66.77 93.33 63.16 Z" />
<path fill="#ffffff" opacity="1.00" d=" M 114.49 193.79 C 122.42 191.69 130.74 191.94 138.85 192.47 C 145.94 192.94 153.22 195.52 157.91 201.08 C 160.91 204.48 162.66 208.75 164.09 213.00 C 156.81 214.21 149.56 215.57 142.29 216.87 C 140.74 214.15 139.12 211.15 136.12 209.79 C 129.80 206.82 121.29 208.15 116.89 213.83 C 113.15 218.66 112.64 225.10 112.66 231.00 C 112.84 236.52 113.46 242.54 117.07 247.00 C 120.87 251.60 127.35 252.91 133.03 252.05 C 137.27 251.55 141.11 249.56 144.82 247.56 C 144.94 245.20 145.04 242.83 145.14 240.47 C 140.00 240.41 134.86 240.45 129.73 240.44 C 129.73 235.33 129.73 230.22 129.73 225.11 C 141.51 225.13 153.29 225.05 165.06 225.15 C 164.49 235.61 165.41 246.13 164.74 256.56 C 156.66 262.54 147.18 267.09 137.06 268.00 C 127.21 268.94 116.73 268.72 107.70 264.22 C 98.85 259.76 93.04 250.73 90.97 241.21 C 88.73 230.71 89.47 219.23 94.57 209.64 C 98.64 201.90 106.08 196.10 114.49 193.79 Z" />
<path fill="#ffffff" opacity="1.00" d=" M 447.21 193.34 C 454.06 193.34 460.91 193.34 467.76 193.34 C 467.72 217.96 467.75 242.58 467.74 267.20 C 460.90 267.19 454.06 267.19 447.22 267.20 C 447.21 242.58 447.24 217.96 447.21 193.34 Z" />
<path fill="#ffffff" opacity="1.00" d=" M 195.42 213.60 C 205.75 211.34 217.64 212.08 226.29 218.73 C 238.92 228.59 239.48 249.93 227.71 260.68 C 221.97 266.21 213.78 268.33 205.99 268.39 C 197.84 268.58 189.23 266.50 183.18 260.75 C 172.05 250.86 171.78 231.66 182.15 221.14 C 185.73 217.42 190.41 214.83 195.42 213.60 M 201.34 227.49 C 197.38 229.32 195.53 233.83 195.32 237.96 C 195.02 242.60 195.18 247.88 198.47 251.53 C 201.81 255.40 208.39 255.54 211.96 251.92 C 215.05 248.81 215.51 244.13 215.51 239.97 C 215.45 236.14 214.75 231.93 211.87 229.15 C 209.17 226.43 204.75 225.83 201.34 227.49 Z" />
<path fill="#ffffff" opacity="1.00" d=" M 247.39 220.44 C 252.39 213.84 261.30 212.59 269.02 212.48 C 276.01 212.53 283.65 212.28 289.71 216.32 C 293.51 218.69 295.61 222.81 297.52 226.70 C 291.17 227.48 284.79 227.97 278.44 228.67 C 276.82 226.36 274.92 223.76 271.85 223.50 C 268.41 222.79 262.88 223.46 262.80 228.00 C 264.15 231.66 268.80 231.38 271.95 232.08 C 280.55 233.32 291.00 233.70 296.56 241.45 C 302.24 249.20 298.08 260.83 289.73 264.75 C 279.88 269.59 268.25 268.90 257.71 267.15 C 250.05 265.93 244.09 259.80 242.12 252.44 C 248.83 251.56 255.60 251.15 262.33 250.39 C 263.83 252.88 265.36 255.91 268.47 256.65 C 272.12 257.65 276.73 257.48 279.49 254.57 C 281.43 252.62 280.18 249.25 277.68 248.56 C 269.28 245.77 259.96 246.06 251.99 241.96 C 244.58 237.87 242.12 227.16 247.39 220.44 Z" />
<path fill="#ffffff" opacity="1.00" d=" M 337.09 214.08 C 345.01 210.84 355.24 212.33 360.85 219.14 C 367.54 227.08 368.79 238.14 367.39 248.09 C 366.47 254.62 363.26 261.06 357.65 264.76 C 349.23 270.53 336.99 269.32 329.72 262.20 C 329.79 271.27 329.68 280.35 329.75 289.42 C 322.86 289.42 315.97 289.43 309.08 289.42 C 309.12 264.17 309.11 238.93 309.09 213.68 C 315.47 213.68 321.86 213.68 328.25 213.68 C 328.24 216.27 328.22 218.85 328.19 221.44 C 330.80 218.62 333.43 215.56 337.09 214.08 M 335.23 228.27 C 331.86 229.78 330.13 233.45 329.79 236.97 C 329.36 241.12 329.36 245.71 331.73 249.33 C 334.19 253.05 339.89 254.40 343.50 251.58 C 346.74 249.14 347.31 244.77 347.42 240.99 C 347.46 237.10 347.12 232.67 344.15 229.81 C 341.91 227.44 338.14 226.87 335.23 228.27 Z" />
<path fill="#ffffff" opacity="1.00" d=" M 393.79 214.06 C 401.48 211.83 409.75 212.06 417.52 213.75 C 425.09 215.43 431.75 220.86 434.59 228.12 C 436.87 233.62 437.05 239.66 437.21 245.52 C 423.37 245.56 409.53 245.47 395.70 245.57 C 396.60 249.51 398.15 254.00 402.29 255.56 C 407.22 257.76 412.73 255.38 415.99 251.47 C 422.68 252.15 429.39 252.61 436.06 253.42 C 432.48 259.01 427.79 264.39 421.22 266.37 C 413.39 268.77 404.96 268.84 396.90 267.70 C 390.26 266.81 384.03 263.18 380.28 257.60 C 375.04 250.41 374.13 240.83 376.12 232.35 C 378.23 223.68 385.24 216.53 393.79 214.06 M 399.39 227.37 C 397.12 229.52 396.61 232.74 395.79 235.61 C 402.68 235.73 409.57 235.69 416.47 235.64 C 415.66 232.68 415.24 229.33 412.95 227.08 C 409.30 223.67 402.87 223.73 399.39 227.37 Z" />
<path fill="#ffffff" opacity="1.00" d=" M 99.44 309.43 C 222.21 309.56 344.99 309.45 467.76 309.49 C 467.75 332.57 467.69 355.66 467.72 378.74 C 344.96 378.75 222.20 378.74 99.45 378.74 C 99.45 355.64 99.47 332.54 99.44 309.43 M 123.81 330.83 C 119.14 338.26 119.24 348.11 122.92 355.93 C 125.35 361.28 130.34 365.32 136.07 366.60 C 143.38 368.29 151.83 367.75 157.86 362.86 C 161.69 359.91 163.61 355.29 165.05 350.82 C 161.99 350.10 158.92 349.40 155.86 348.66 C 154.79 351.96 153.65 355.60 150.54 357.57 C 144.34 361.57 134.25 359.70 131.28 352.50 C 129.08 346.88 129.10 340.24 131.85 334.82 C 135.14 328.98 143.25 327.58 149.12 329.93 C 152.49 331.24 153.87 334.84 155.34 337.84 C 158.34 337.18 161.34 336.55 164.36 335.96 C 163.06 332.69 161.75 329.28 159.15 326.80 C 155.26 322.79 149.55 321.01 144.05 321.11 C 136.32 320.90 128.05 324.10 123.81 330.83 M 172.44 366.72 C 175.53 366.71 178.62 366.71 181.71 366.72 C 181.69 360.18 181.70 353.66 181.70 347.13 C 188.71 346.82 195.73 346.89 202.75 346.93 C 202.81 353.52 202.72 360.12 202.74 366.72 C 205.87 366.71 209.00 366.71 212.13 366.70 C 212.12 351.72 212.12 336.75 212.13 321.78 C 209.01 321.75 205.89 321.75 202.78 321.75 C 202.80 327.47 202.75 333.19 202.74 338.91 C 195.73 338.91 188.71 338.89 181.70 338.90 C 181.70 333.19 181.69 327.48 181.73 321.77 C 178.63 321.75 175.54 321.75 172.44 321.75 C 172.45 336.74 172.45 351.73 172.44 366.72 M 216.54 366.71 C 219.85 366.71 223.17 366.71 226.49 366.72 C 228.19 362.52 229.88 358.31 231.59 354.12 C 237.40 354.11 243.22 354.11 249.03 354.12 C 250.80 358.32 252.61 362.51 254.40 366.71 C 257.89 366.72 261.38 366.72 264.87 366.71 C 258.02 351.74 251.24 336.73 244.40 321.75 C 241.52 321.75 238.64 321.75 235.77 321.75 C 229.34 336.73 222.97 351.74 216.54 366.71 M 269.09 321.75 C 269.09 336.74 269.11 351.73 269.08 366.71 C 272.09 366.72 275.10 366.71 278.11 366.69 C 278.10 356.81 278.11 346.94 278.10 337.07 C 285.42 346.96 292.77 356.83 300.12 366.71 C 303.01 366.71 305.90 366.71 308.80 366.72 C 308.77 351.74 308.78 336.76 308.79 321.78 C 305.79 321.76 302.79 321.75 299.79 321.75 C 299.68 331.66 299.76 341.57 299.73 351.48 C 292.39 341.56 285.00 331.68 277.67 321.76 C 274.81 321.75 271.95 321.75 269.09 321.75 M 319.25 321.75 C 319.24 336.74 319.21 351.73 319.20 366.71 C 322.21 366.71 325.22 366.71 328.22 366.72 C 328.19 356.82 328.25 346.93 328.27 337.03 C 335.61 346.94 342.96 356.83 350.33 366.71 C 353.21 366.72 356.10 366.71 358.98 366.68 C 358.81 351.71 358.95 336.74 358.91 321.77 C 355.90 321.75 352.90 321.75 349.90 321.76 C 349.98 331.67 349.71 341.58 350.06 351.48 C 342.53 341.67 335.27 331.66 327.87 321.76 C 324.99 321.75 322.12 321.75 319.25 321.75 M 369.60 321.75 C 369.61 336.74 369.61 351.73 369.60 366.72 C 382.22 366.71 394.85 366.71 407.47 366.72 C 407.47 364.04 407.47 361.36 407.48 358.69 C 397.93 358.68 388.39 358.70 378.84 358.68 C 378.85 354.97 378.85 351.26 378.85 347.56 C 387.44 347.54 396.04 347.55 404.64 347.56 C 404.63 344.88 404.63 342.21 404.64 339.54 C 396.04 339.54 387.44 339.55 378.84 339.54 C 378.85 336.29 378.85 333.04 378.85 329.79 C 388.03 329.79 397.20 329.78 406.38 329.80 C 406.38 327.12 406.38 324.45 406.38 321.78 C 394.12 321.73 381.86 321.77 369.60 321.75 M 415.79 321.75 C 415.80 336.74 415.78 351.73 415.81 366.73 C 426.58 366.69 437.34 366.75 448.11 366.69 C 448.10 364.03 448.10 361.36 448.11 358.70 C 440.45 358.67 432.80 358.70 425.15 358.68 C 425.18 346.38 425.15 334.08 425.16 321.78 C 422.04 321.75 418.91 321.75 415.79 321.75 Z" />
<path fill="#ffffff" opacity="1.00" d=" M 240.15 332.97 C 242.01 337.46 243.87 341.96 245.79 346.42 C 242.07 346.43 238.34 346.43 234.62 346.43 C 236.53 341.97 238.44 337.52 240.15 332.97 Z" />
</g>
<g id="#002e50ff">
<path fill="#002e50" opacity="1.00" d=" M 31.02 0.00 L 469.44 0.00 C 477.27 1.05 485.37 3.20 491.25 8.79 C 496.27 13.10 498.92 19.42 500.00 25.83 L 500.00 401.09 C 498.91 409.27 494.42 416.96 487.30 421.29 C 480.16 426.03 471.36 427.10 462.99 426.68 C 318.97 426.66 174.94 426.68 30.92 426.67 C 21.47 426.47 11.82 422.54 5.85 415.03 C 2.16 410.57 0.38 404.76 0.35 399.02 C 0.32 275.68 0.36 152.33 0.33 28.98 C 0.34 26.60 0.62 24.23 1.00 21.88 C 2.90 28.77 2.76 35.94 2.51 43.01 C 2.50 153.35 2.52 263.68 2.50 374.01 C 2.64 382.02 2.86 390.03 3.18 398.03 C 3.40 401.06 3.57 404.69 6.34 406.60 C 12.34 410.90 20.06 412.05 27.27 411.35 C 40.80 409.99 54.41 410.85 67.97 410.62 C 83.32 411.39 98.66 410.11 114.01 410.82 C 130.32 410.98 146.65 410.23 162.96 410.79 C 174.31 411.28 185.66 410.33 197.01 410.63 C 219.01 410.54 241.00 410.80 262.99 410.87 C 271.00 411.43 279.01 410.90 287.02 410.66 C 346.04 410.69 405.06 410.55 464.07 410.71 C 471.17 410.77 478.49 407.48 482.57 401.59 C 485.01 396.43 484.07 390.49 484.00 384.98 C 483.70 365.32 484.48 345.66 484.39 326.00 C 484.54 316.00 483.23 306.03 483.92 296.03 C 484.42 289.03 484.36 282.01 483.88 275.01 C 483.32 266.33 484.50 257.68 484.38 249.00 C 484.15 230.68 484.58 212.35 484.25 194.03 C 483.19 177.70 483.88 161.34 483.65 145.00 C 483.36 131.99 485.04 119.00 483.97 106.00 C 484.00 89.66 484.40 73.32 484.36 56.99 C 484.42 46.68 482.22 36.13 485.18 26.04 C 485.98 22.44 487.58 18.58 486.08 14.95 C 483.08 7.84 476.04 1.98 468.02 2.33 C 323.69 2.47 179.34 2.31 35.01 2.41 C 31.60 2.21 28.24 1.55 24.86 1.06 C 26.91 0.69 28.96 0.33 31.02 0.00 Z" />
</g>
<g id="#003c69ff">
<path fill="#003c69" opacity="1.00" d=" M 1.00 21.88 C 3.57 10.78 13.91 2.82 24.86 1.06 C 28.24 1.55 31.60 2.21 35.01 2.41 C 179.34 2.31 323.69 2.47 468.02 2.33 C 476.04 1.98 483.08 7.84 486.08 14.95 C 487.58 18.58 485.98 22.44 485.18 26.04 C 482.22 36.13 484.42 46.68 484.36 56.99 C 484.40 73.32 484.00 89.66 483.97 106.00 C 485.04 119.00 483.36 131.99 483.65 145.00 C 483.88 161.34 483.19 177.70 484.25 194.03 C 484.58 212.35 484.15 230.68 484.38 249.00 C 484.50 257.68 483.32 266.33 483.88 275.01 C 484.36 282.01 484.42 289.03 483.92 296.03 C 483.23 306.03 484.54 316.00 484.39 326.00 C 484.48 345.66 483.70 365.32 484.00 384.98 C 484.07 390.49 485.01 396.43 482.57 401.59 C 478.49 407.48 471.17 410.77 464.07 410.71 C 405.06 410.55 346.04 410.69 287.02 410.66 C 279.01 410.90 271.00 411.43 262.99 410.87 C 241.00 410.80 219.01 410.54 197.01 410.63 C 185.66 410.33 174.31 411.28 162.96 410.79 C 146.65 410.23 130.32 410.98 114.01 410.82 C 98.66 410.11 83.32 411.39 67.97 410.62 C 54.41 410.85 40.80 409.99 27.27 411.35 C 20.06 412.05 12.34 410.90 6.34 406.60 C 3.57 404.69 3.40 401.06 3.18 398.03 C 2.86 390.03 2.64 382.02 2.50 374.01 C 2.52 263.68 2.50 153.35 2.51 43.01 C 2.76 35.94 2.90 28.77 1.00 21.88 M 10.45 19.40 C 10.29 23.99 12.27 28.36 12.39 32.94 C 12.34 155.56 12.36 278.18 12.38 400.81 C 14.31 401.42 16.17 402.37 18.21 402.59 C 22.52 401.97 26.67 400.38 31.07 400.37 C 50.37 400.35 69.68 399.91 88.99 400.20 C 104.99 400.40 120.99 400.30 136.99 400.09 C 149.31 400.45 161.63 400.36 173.95 400.24 C 183.28 399.52 192.62 400.78 201.95 400.15 C 209.30 399.76 216.65 400.65 224.00 400.24 C 233.32 399.71 242.64 400.41 251.97 400.30 C 266.97 400.08 281.97 400.57 296.97 400.21 C 309.30 399.57 321.63 400.58 333.96 400.23 C 346.65 399.58 359.35 400.85 372.04 399.93 C 385.71 400.36 399.38 399.83 413.05 400.12 C 426.02 400.91 439.01 399.55 451.98 400.26 C 458.14 400.56 464.30 400.30 470.46 400.27 C 470.85 386.84 470.54 373.40 470.63 359.96 C 470.63 249.34 470.63 138.73 470.64 28.11 C 473.50 26.74 478.64 26.35 478.18 22.04 C 477.48 16.24 472.12 10.77 466.01 11.30 C 427.01 11.27 388.00 11.47 349.00 11.20 C 338.00 10.87 326.99 11.29 315.99 11.30 C 267.99 11.37 220.00 11.31 172.00 11.36 C 160.33 10.72 148.65 11.55 136.98 11.23 C 127.66 10.67 118.34 11.54 109.02 11.36 C 93.69 10.86 78.34 11.80 63.01 11.12 C 53.67 10.77 44.31 12.01 34.98 11.10 C 30.66 10.73 26.35 9.60 21.99 10.11 C 16.92 10.87 11.71 14.18 10.45 19.40 Z" />
</g>
<g id="#004a81ff">
<path fill="#004a81" opacity="1.00" d=" M 10.45 19.40 C 11.71 14.18 16.92 10.87 21.99 10.11 C 26.35 9.60 30.66 10.73 34.98 11.10 C 44.31 12.01 53.67 10.77 63.01 11.12 C 78.34 11.80 93.69 10.86 109.02 11.36 C 118.34 11.54 127.66 10.67 136.98 11.23 C 148.65 11.55 160.33 10.72 172.00 11.36 C 220.00 11.31 267.99 11.37 315.99 11.30 C 326.99 11.29 338.00 10.87 349.00 11.20 C 388.00 11.47 427.01 11.27 466.01 11.30 C 472.12 10.77 477.48 16.24 478.18 22.04 C 478.64 26.35 473.50 26.74 470.64 28.11 C 470.63 138.73 470.63 249.34 470.63 359.96 C 470.54 373.40 470.85 386.84 470.46 400.27 C 464.30 400.30 458.14 400.56 451.98 400.26 C 439.01 399.55 426.02 400.91 413.05 400.12 C 399.38 399.83 385.71 400.36 372.04 399.93 C 359.35 400.85 346.65 399.58 333.96 400.23 C 321.63 400.58 309.30 399.57 296.97 400.21 C 281.97 400.57 266.97 400.08 251.97 400.30 C 242.64 400.41 233.32 399.71 224.00 400.24 C 216.65 400.65 209.30 399.76 201.95 400.15 C 192.62 400.78 183.28 399.52 173.95 400.24 C 161.63 400.36 149.31 400.45 136.99 400.09 C 120.99 400.30 104.99 400.40 88.99 400.20 C 69.68 399.91 50.37 400.35 31.07 400.37 C 26.67 400.38 22.52 401.97 18.21 402.59 C 16.17 402.37 14.31 401.42 12.38 400.81 C 12.36 278.18 12.34 155.56 12.39 32.94 C 12.27 28.36 10.29 23.99 10.45 19.40 M 93.33 63.16 C 91.89 66.77 92.19 70.72 92.41 74.51 C 87.55 79.88 88.47 87.79 89.91 94.31 C 88.10 99.43 87.95 104.98 89.41 110.21 C 84.89 106.14 80.05 102.44 75.23 98.74 C 58.44 86.18 41.08 74.35 23.08 63.59 C 25.67 70.80 30.36 76.94 33.93 83.66 C 32.60 92.60 38.70 100.43 44.98 106.04 C 48.45 108.58 46.65 113.25 47.52 116.84 C 48.06 120.58 51.43 122.75 53.67 125.44 C 55.27 128.88 55.39 133.00 57.87 136.04 C 59.53 138.27 62.26 139.17 64.75 140.11 C 65.94 147.52 70.04 154.38 76.05 158.88 C 78.03 160.25 79.67 162.43 79.42 164.98 C 79.00 170.17 75.23 174.25 71.54 177.59 C 62.20 185.52 50.16 190.15 37.98 191.04 C 52.08 195.16 65.47 204.02 71.58 217.83 C 72.03 213.33 72.20 208.75 73.66 204.43 C 77.89 190.85 89.42 180.26 102.74 175.74 C 108.64 173.84 113.77 170.24 118.84 166.79 C 126.65 161.13 134.69 153.96 136.60 144.05 C 137.87 137.87 135.10 131.86 131.18 127.24 C 134.02 125.53 136.73 123.29 140.11 122.80 C 144.18 122.14 148.30 121.92 152.41 121.64 C 147.85 119.25 142.82 117.48 139.08 113.80 C 135.66 110.67 130.94 107.48 126.12 109.30 C 121.34 110.74 118.73 115.36 116.89 119.64 C 111.88 113.78 110.93 105.84 108.25 98.85 C 103.15 81.79 100.66 64.11 96.89 46.74 C 94.82 52.03 95.66 57.97 93.33 63.16 M 114.49 193.79 C 106.08 196.10 98.64 201.90 94.57 209.64 C 89.47 219.23 88.73 230.71 90.97 241.21 C 93.04 250.73 98.85 259.76 107.70 264.22 C 116.73 268.72 127.21 268.94 137.06 268.00 C 147.18 267.09 156.66 262.54 164.74 256.56 C 165.41 246.13 164.49 235.61 165.06 225.15 C 153.29 225.05 141.51 225.13 129.73 225.11 C 129.73 230.22 129.73 235.33 129.73 240.44 C 134.86 240.45 140.00 240.41 145.14 240.47 C 145.04 242.83 144.94 245.20 144.82 247.56 C 141.11 249.56 137.27 251.55 133.03 252.05 C 127.35 252.91 120.87 251.60 117.07 247.00 C 113.46 242.54 112.84 236.52 112.66 231.00 C 112.64 225.10 113.15 218.66 116.89 213.83 C 121.29 208.15 129.80 206.82 136.12 209.79 C 139.12 211.15 140.74 214.15 142.29 216.87 C 149.56 215.57 156.81 214.21 164.09 213.00 C 162.66 208.75 160.91 204.48 157.91 201.08 C 153.22 195.52 145.94 192.94 138.85 192.47 C 130.74 191.94 122.42 191.69 114.49 193.79 M 447.21 193.34 C 447.24 217.96 447.21 242.58 447.22 267.20 C 454.06 267.19 460.90 267.19 467.74 267.20 C 467.75 242.58 467.72 217.96 467.76 193.34 C 460.91 193.34 454.06 193.34 447.21 193.34 M 195.42 213.60 C 190.41 214.83 185.73 217.42 182.15 221.14 C 171.78 231.66 172.05 250.86 183.18 260.75 C 189.23 266.50 197.84 268.58 205.99 268.39 C 213.78 268.33 221.97 266.21 227.71 260.68 C 239.48 249.93 238.92 228.59 226.29 218.73 C 217.64 212.08 205.75 211.34 195.42 213.60 M 247.39 220.44 C 242.12 227.16 244.58 237.87 251.99 241.96 C 259.96 246.06 269.28 245.77 277.68 248.56 C 280.18 249.25 281.43 252.62 279.49 254.57 C 276.73 257.48 272.12 257.65 268.47 256.65 C 265.36 255.91 263.83 252.88 262.33 250.39 C 255.60 251.15 248.83 251.56 242.12 252.44 C 244.09 259.80 250.05 265.93 257.71 267.15 C 268.25 268.90 279.88 269.59 289.73 264.75 C 298.08 260.83 302.24 249.20 296.56 241.45 C 291.00 233.70 280.55 233.32 271.95 232.08 C 268.80 231.38 264.15 231.66 262.80 228.00 C 262.88 223.46 268.41 222.79 271.85 223.50 C 274.92 223.76 276.82 226.36 278.44 228.67 C 284.79 227.97 291.17 227.48 297.52 226.70 C 295.61 222.81 293.51 218.69 289.71 216.32 C 283.65 212.28 276.01 212.53 269.02 212.48 C 261.30 212.59 252.39 213.84 247.39 220.44 M 337.09 214.08 C 333.43 215.56 330.80 218.62 328.19 221.44 C 328.22 218.85 328.24 216.27 328.25 213.68 C 321.86 213.68 315.47 213.68 309.09 213.68 C 309.11 238.93 309.12 264.17 309.08 289.42 C 315.97 289.43 322.86 289.42 329.75 289.42 C 329.68 280.35 329.79 271.27 329.72 262.20 C 336.99 269.32 349.23 270.53 357.65 264.76 C 363.26 261.06 366.47 254.62 367.39 248.09 C 368.79 238.14 367.54 227.08 360.85 219.14 C 355.24 212.33 345.01 210.84 337.09 214.08 M 393.79 214.06 C 385.24 216.53 378.23 223.68 376.12 232.35 C 374.13 240.83 375.04 250.41 380.28 257.60 C 384.03 263.18 390.26 266.81 396.90 267.70 C 404.96 268.84 413.39 268.77 421.22 266.37 C 427.79 264.39 432.48 259.01 436.06 253.42 C 429.39 252.61 422.68 252.15 415.99 251.47 C 412.73 255.38 407.22 257.76 402.29 255.56 C 398.15 254.00 396.60 249.51 395.70 245.57 C 409.53 245.47 423.37 245.56 437.21 245.52 C 437.05 239.66 436.87 233.62 434.59 228.12 C 431.75 220.86 425.09 215.43 417.52 213.75 C 409.75 212.06 401.48 211.83 393.79 214.06 M 99.44 309.43 C 99.47 332.54 99.45 355.64 99.45 378.74 C 222.20 378.74 344.96 378.75 467.72 378.74 C 467.69 355.66 467.75 332.57 467.76 309.49 C 344.99 309.45 222.21 309.56 99.44 309.43 Z" />
<path fill="#004a81" opacity="1.00" d=" M 399.39 227.37 C 402.87 223.73 409.30 223.67 412.95 227.08 C 415.24 229.33 415.66 232.68 416.47 235.64 C 409.57 235.69 402.68 235.73 395.79 235.61 C 396.61 232.74 397.12 229.52 399.39 227.37 Z" />
<path fill="#004a81" opacity="1.00" d=" M 201.34 227.49 C 204.75 225.83 209.17 226.43 211.87 229.15 C 214.75 231.93 215.45 236.14 215.51 239.97 C 215.51 244.13 215.05 248.81 211.96 251.92 C 208.39 255.54 201.81 255.40 198.47 251.53 C 195.18 247.88 195.02 242.60 195.32 237.96 C 195.53 233.83 197.38 229.32 201.34 227.49 Z" />
<path fill="#004a81" opacity="1.00" d=" M 335.23 228.27 C 338.14 226.87 341.91 227.44 344.15 229.81 C 347.12 232.67 347.46 237.10 347.42 240.99 C 347.31 244.77 346.74 249.14 343.50 251.58 C 339.89 254.40 334.19 253.05 331.73 249.33 C 329.36 245.71 329.36 241.12 329.79 236.97 C 330.13 233.45 331.86 229.78 335.23 228.27 Z" />
<path fill="#004a81" opacity="1.00" d=" M 123.81 330.83 C 128.05 324.10 136.32 320.90 144.05 321.11 C 149.55 321.01 155.26 322.79 159.15 326.80 C 161.75 329.28 163.06 332.69 164.36 335.96 C 161.34 336.55 158.34 337.18 155.34 337.84 C 153.87 334.84 152.49 331.24 149.12 329.93 C 143.25 327.58 135.14 328.98 131.85 334.82 C 129.10 340.24 129.08 346.88 131.28 352.50 C 134.25 359.70 144.34 361.57 150.54 357.57 C 153.65 355.60 154.79 351.96 155.86 348.66 C 158.92 349.40 161.99 350.10 165.05 350.82 C 163.61 355.29 161.69 359.91 157.86 362.86 C 151.83 367.75 143.38 368.29 136.07 366.60 C 130.34 365.32 125.35 361.28 122.92 355.93 C 119.24 348.11 119.14 338.26 123.81 330.83 Z" />
<path fill="#004a81" opacity="1.00" d=" M 172.44 366.72 C 172.45 351.73 172.45 336.74 172.44 321.75 C 175.54 321.75 178.63 321.75 181.73 321.77 C 181.69 327.48 181.70 333.19 181.70 338.90 C 188.71 338.89 195.73 338.91 202.74 338.91 C 202.75 333.19 202.80 327.47 202.78 321.75 C 205.89 321.75 209.01 321.75 212.13 321.78 C 212.12 336.75 212.12 351.72 212.13 366.70 C 209.00 366.71 205.87 366.71 202.74 366.72 C 202.72 360.12 202.81 353.52 202.75 346.93 C 195.73 346.89 188.71 346.82 181.70 347.13 C 181.70 353.66 181.69 360.18 181.71 366.72 C 178.62 366.71 175.53 366.71 172.44 366.72 Z" />
<path fill="#004a81" opacity="1.00" d=" M 216.54 366.71 C 222.97 351.74 229.34 336.73 235.77 321.75 C 238.64 321.75 241.52 321.75 244.40 321.75 C 251.24 336.73 258.02 351.74 264.87 366.71 C 261.38 366.72 257.89 366.72 254.40 366.71 C 252.61 362.51 250.80 358.32 249.03 354.12 C 243.22 354.11 237.40 354.11 231.59 354.12 C 229.88 358.31 228.19 362.52 226.49 366.72 C 223.17 366.71 219.85 366.71 216.54 366.71 M 240.15 332.97 C 238.44 337.52 236.53 341.97 234.62 346.43 C 238.34 346.43 242.07 346.43 245.79 346.42 C 243.87 341.96 242.01 337.46 240.15 332.97 Z" />
<path fill="#004a81" opacity="1.00" d=" M 269.09 321.75 C 271.95 321.75 274.81 321.75 277.67 321.76 C 285.00 331.68 292.39 341.56 299.73 351.48 C 299.76 341.57 299.68 331.66 299.79 321.75 C 302.79 321.75 305.79 321.76 308.79 321.78 C 308.78 336.76 308.77 351.74 308.80 366.72 C 305.90 366.71 303.01 366.71 300.12 366.71 C 292.77 356.83 285.42 346.96 278.10 337.07 C 278.11 346.94 278.10 356.81 278.11 366.69 C 275.10 366.71 272.09 366.72 269.08 366.71 C 269.11 351.73 269.09 336.74 269.09 321.75 Z" />
<path fill="#004a81" opacity="1.00" d=" M 319.25 321.75 C 322.12 321.75 324.99 321.75 327.87 321.76 C 335.27 331.66 342.53 341.67 350.06 351.48 C 349.71 341.58 349.98 331.67 349.90 321.76 C 352.90 321.75 355.90 321.75 358.91 321.77 C 358.95 336.74 358.81 351.71 358.98 366.68 C 356.10 366.71 353.21 366.72 350.33 366.71 C 342.96 356.83 335.61 346.94 328.27 337.03 C 328.25 346.93 328.19 356.82 328.22 366.72 C 325.22 366.71 322.21 366.71 319.20 366.71 C 319.21 351.73 319.24 336.74 319.25 321.75 Z" />
<path fill="#004a81" opacity="1.00" d=" M 369.60 321.75 C 381.86 321.77 394.12 321.73 406.38 321.78 C 406.38 324.45 406.38 327.12 406.38 329.80 C 397.20 329.78 388.03 329.79 378.85 329.79 C 378.85 333.04 378.85 336.29 378.84 339.54 C 387.44 339.55 396.04 339.54 404.64 339.54 C 404.63 342.21 404.63 344.88 404.64 347.56 C 396.04 347.55 387.44 347.54 378.85 347.56 C 378.85 351.26 378.85 354.97 378.84 358.68 C 388.39 358.70 397.93 358.68 407.48 358.69 C 407.47 361.36 407.47 364.04 407.47 366.72 C 394.85 366.71 382.22 366.71 369.60 366.72 C 369.61 351.73 369.61 336.74 369.60 321.75 Z" />
<path fill="#004a81" opacity="1.00" d=" M 415.79 321.75 C 418.91 321.75 422.04 321.75 425.16 321.78 C 425.15 334.08 425.18 346.38 425.15 358.68 C 432.80 358.70 440.45 358.67 448.11 358.70 C 448.10 361.36 448.10 364.03 448.11 366.69 C 437.34 366.75 426.58 366.69 415.81 366.73 C 415.78 351.73 415.80 336.74 415.79 321.75 Z" />
</g>
</svg>
