<?xml version="1.0" encoding="UTF-8" standalone="yes"?>
<svg xmlns="http://www.w3.org/2000/svg" xmlns:xlink="http://www.w3.org/1999/xlink" width="122.66666666666666px" height="106.66666666666666px" viewBox="0 0 92 80" version="1.1">
  <defs>
    <radialGradient id="radial0" gradientUnits="userSpaceOnUse" cx="-70.414391" cy="177.80991" fx="-70.414391" fy="177.80991" r="31.687525" gradientTransform="matrix(0.211148,1.820727,-1.499879,0.174572,290.479772,118.230641)">
      <stop offset="0" style="stop-color:rgb(89.803922%,64.313725%,27.45098%);stop-opacity:1;"/>
      <stop offset="1" style="stop-color:rgb(89.803922%,64.313725%,27.45098%);stop-opacity:0;"/>
    </radialGradient>
    <radialGradient id="radial1" gradientUnits="userSpaceOnUse" cx="-70.131592" cy="185.59911" fx="-70.131592" fy="185.59911" r="31.687525" gradientTransform="matrix(0.206089,0.522231,-0.840415,0.332862,178.583997,3.608879)">
      <stop offset="0" style="stop-color:rgb(83.921569%,49.411765%,16.862745%);stop-opacity:1;"/>
      <stop offset="1" style="stop-color:rgb(83.921569%,49.411765%,16.862745%);stop-opacity:0;"/>
    </radialGradient>
    <radialGradient id="radial2" gradientUnits="userSpaceOnUse" cx="-1005.5059" cy="151.52641" fx="-1005.5059" fy="151.52641" r="43.703098" gradientTransform="matrix(0.0241061,0.307908,-0.69214,0.0543851,146.536632,336.378269)">
      <stop offset="0" style="stop-color:rgb(62.745098%,40.784314%,16.078431%);stop-opacity:1;"/>
      <stop offset="1" style="stop-color:rgb(62.745098%,40.784314%,16.078431%);stop-opacity:0;"/>
    </radialGradient>
    <radialGradient id="radial3" gradientUnits="userSpaceOnUse" cx="-1171.9452" cy="56.647858" fx="-1171.9452" fy="56.647858" r="40.625" gradientTransform="matrix(0.29339,0.633772,-0.737138,0.342483,426.421451,749.884672)">
      <stop offset="0" style="stop-color:rgb(84.705882%,51.372549%,18.431373%);stop-opacity:1;"/>
      <stop offset="1" style="stop-color:rgb(84.705882%,51.372549%,18.431373%);stop-opacity:0;"/>
    </radialGradient>
    <radialGradient id="radial4" gradientUnits="userSpaceOnUse" cx="-1153.4524" cy="56.816086" fx="-1153.4524" fy="56.816086" r="40.625" gradientTransform="matrix(0.0504264,0.367404,-0.804978,0.110886,145.10001,447.567301)">
      <stop offset="0" style="stop-color:rgb(84.313725%,49.803922%,15.686275%);stop-opacity:1;"/>
      <stop offset="1" style="stop-color:rgb(84.313725%,49.803922%,15.686275%);stop-opacity:0;"/>
    </radialGradient>
    <radialGradient id="radial5" gradientUnits="userSpaceOnUse" cx="-1936.8396" cy="17.326803" fx="-1936.8396" fy="17.326803" r="45.671848" gradientTransform="matrix(-0.00407774,0.882374,-0.773726,-0.00358866,56.547032,1716.979912)">
      <stop offset="0" style="stop-color:rgb(70.980392%,46.666667%,18.823529%);stop-opacity:0.980392;"/>
      <stop offset="1" style="stop-color:rgb(70.980392%,46.666667%,18.823529%);stop-opacity:0;"/>
    </radialGradient>
    <radialGradient id="radial6" gradientUnits="userSpaceOnUse" cx="-1904.4447" cy="44.38097" fx="-1904.4447" fy="44.38097" r="45.671848" gradientTransform="matrix(-0.00407773,0.375826,-0.773688,-0.00842511,77.982484,752.373504)">
      <stop offset="0" style="stop-color:rgb(65.490196%,41.176471%,18.823529%);stop-opacity:0.980392;"/>
      <stop offset="1" style="stop-color:rgb(65.490196%,41.176471%,18.823529%);stop-opacity:0;"/>
    </radialGradient>
    <linearGradient id="linear0" gradientUnits="userSpaceOnUse" x1="-998.43475" y1="114.22007" x2="-1001.2632" y2="255.64142" gradientTransform="matrix(0.186234,0,0,0.186572,204.679473,7.90098)">
      <stop offset="0" style="stop-color:rgb(71.372549%,46.666667%,18.431373%);stop-opacity:1;"/>
      <stop offset="1" style="stop-color:rgb(71.372549%,46.666667%,18.431373%);stop-opacity:0;"/>
    </linearGradient>
    <linearGradient id="linear1" gradientUnits="userSpaceOnUse" x1="-968.02924" y1="-8.820418" x2="-1031.6688" y2="13.099891" gradientTransform="matrix(0.186234,0,0,0.186572,204.679473,7.901709)">
      <stop offset="0" style="stop-color:rgb(94.901961%,90.980392%,62.745098%);stop-opacity:1;"/>
      <stop offset="1" style="stop-color:rgb(94.901961%,90.980392%,62.745098%);stop-opacity:0;"/>
    </linearGradient>
    <linearGradient id="linear2" gradientUnits="userSpaceOnUse" x1="-963.75" y1="315.5" x2="-1062.25" y2="290.5" gradientTransform="matrix(0.186234,0,0,0.186572,204.679473,7.901709)">
      <stop offset="0" style="stop-color:rgb(89.019608%,69.019608%,18.431373%);stop-opacity:1;"/>
      <stop offset="1" style="stop-color:rgb(89.019608%,69.019608%,18.431373%);stop-opacity:0;"/>
    </linearGradient>
    <linearGradient id="linear3" gradientUnits="userSpaceOnUse" x1="-1286.2031" y1="3.94935" x2="-1356.2067" y2="25.162554" gradientTransform="matrix(0.186234,0,0,0.186572,299.180191,1.49195)">
      <stop offset="0" style="stop-color:rgb(94.901961%,90.588235%,60.392157%);stop-opacity:1;"/>
      <stop offset="1" style="stop-color:rgb(94.901961%,90.588235%,60.392157%);stop-opacity:0;"/>
    </linearGradient>
    <linearGradient id="linear4" gradientUnits="userSpaceOnUse" x1="-561.25" y1="214.75" x2="-658.25" y2="196.25" gradientTransform="matrix(0.186234,0,0,0.186572,161.703291,30.523617)">
      <stop offset="0" style="stop-color:rgb(88.627451%,70.196078%,25.490196%);stop-opacity:1;"/>
      <stop offset="1" style="stop-color:rgb(88.627451%,70.196078%,25.490196%);stop-opacity:0;"/>
    </linearGradient>
    <linearGradient id="linear5" gradientUnits="userSpaceOnUse" x1="-1196.375" y1="-78.75" x2="-1195.5" y2="-54.625" gradientTransform="matrix(0.190004,0,0,0.186572,253.997908,44.796409)">
      <stop offset="0" style="stop-color:rgb(84.313725%,62.745098%,16.862745%);stop-opacity:1;"/>
      <stop offset="1" style="stop-color:rgb(84.313725%,62.745098%,16.862745%);stop-opacity:0;"/>
    </linearGradient>
  </defs>
  <g id="surface1">
    <path style=" stroke:none;fill-rule:nonzero;fill:rgb(91.372549%,21.568627%,22.352941%);fill-opacity:1;" d="M 59.777344 40.347656 L 55.214844 37.6875 L 45.625 30.269531 C 48.773438 25.917969 52.117188 21.625 57.589844 18.003906 C 62.019531 15.34375 66.363281 14.652344 70.300781 14.597656 C 73.617188 14.605469 76.335938 14.578125 82.542969 17.722656 C 88.277344 20.992188 90.417969 24.828125 91.15625 28.546875 C 92.519531 34.847656 90.980469 40.320312 87.851562 45.664062 C 84.046875 50.730469 79.046875 55.457031 73.511719 60.03125 L 86.875 58.117188 L 91.019531 60.402344 L 91.109375 73.554688 L 49.628906 79.339844 L 45.644531 76.960938 L 45.578125 62.828125 L 53.910156 56.296875 L 67.085938 43.9375 C 68.984375 42.121094 70.679688 40.011719 71.742188 37.3125 C 72.566406 35.324219 72.867188 33.410156 71.835938 31.34375 C 66.699219 30.898438 63.367188 36.027344 59.777344 40.347656 Z M 59.777344 40.347656 "/>
    <path style=" stroke:none;fill-rule:nonzero;fill:rgb(74.117647%,7.843137%,10.196078%);fill-opacity:1;" d="M 45.578125 62.828125 L 49.628906 65.214844 L 49.628906 79.339844 L 45.578125 76.957031 Z M 45.578125 62.828125 "/>
    <path style=" stroke:none;fill-rule:nonzero;fill:rgb(74.117647%,7.843137%,10.196078%);fill-opacity:1;" d="M 69.761719 63.410156 L 73.460938 60.011719 L 86.835938 58.140625 L 91.03125 60.425781 Z M 69.761719 63.410156 "/>
    <path style=" stroke:none;fill-rule:nonzero;fill:rgb(74.117647%,7.843137%,10.196078%);fill-opacity:1;" d="M 71.832031 31.324219 L 71.792969 31.367188 C 71.808594 31.367188 71.824219 31.363281 71.839844 31.367188 C 72.871094 33.433594 72.570312 35.347656 71.746094 37.335938 C 70.683594 40.035156 68.988281 42.097656 67.089844 43.960938 L 53.914062 56.320312 L 45.578125 62.851562 L 45.585938 63.585938 C 45.589844 63.578125 45.667969 63.460938 45.667969 63.460938 L 50.925781 61.035156 L 53.253906 63.601562 L 56.65625 60.523438 L 72.808594 44.710938 C 75.496094 41.757812 77.445312 38.476562 76.441406 34.777344 C 75.605469 32.164062 74.082031 31.4375 71.832031 31.324219 Z M 71.832031 31.324219 "/>
    <path style=" stroke:none;fill-rule:nonzero;fill:rgb(93.72549%,78.431373%,23.529412%);fill-opacity:0.960784;" d="M 61.765625 1.339844 L 44.753906 3.703125 L 44.753906 69.578125 L 61.6875 71.871094 L 61.457031 67.636719 L 54.125 59.980469 L 54.148438 13.25 L 61.390625 5.769531 Z M 61.765625 1.339844 "/>
    <path style=" stroke:none;fill-rule:nonzero;fill:rgb(93.72549%,90.588235%,49.019608%);fill-opacity:1;" d="M 12.472656 7.84375 L 0.667969 9.390625 L 6.085938 15.214844 L 6.082031 58.253906 L 0.925781 63.617188 L 12.472656 65.222656 Z M 12.472656 7.84375 "/>
    <path style=" stroke:none;fill-rule:nonzero;fill:url(#radial0);" d="M 12.472656 7.84375 L 0.667969 9.390625 L 6.085938 15.214844 L 6.082031 58.253906 L 0.925781 63.617188 L 12.472656 65.222656 Z M 12.472656 7.84375 "/>
    <path style=" stroke:none;fill-rule:nonzero;fill:url(#radial1);" d="M 12.472656 7.84375 L 0.667969 9.390625 L 6.085938 15.214844 L 6.082031 58.253906 L 0.925781 63.617188 L 12.472656 65.222656 Z M 12.472656 7.84375 "/>
    <path style=" stroke:none;fill-rule:nonzero;fill:rgb(94.901961%,80%,23.921569%);fill-opacity:1;" d="M 25.050781 6.199219 L 12.457031 7.84375 L 12.457031 65.21875 L 25.195312 66.992188 L 28.734375 63.480469 L 23.21875 57.15625 L 23.113281 39.484375 L 23.152344 39.445312 L 23.054688 26.203125 L 23.03125 26.203125 L 23.03125 16.132812 L 28.710938 9.515625 Z M 25.050781 6.199219 "/>
    <path style=" stroke:none;fill-rule:nonzero;fill:url(#linear0);" d="M 25.050781 6.199219 L 12.457031 7.84375 L 12.457031 65.21875 L 25.195312 66.992188 L 28.734375 63.480469 L 23.21875 57.15625 L 23.125 39.460938 L 23.164062 39.421875 L 23.054688 26.203125 L 23.03125 26.203125 L 23.03125 16.132812 L 28.710938 9.515625 Z M 25.050781 6.199219 "/>
    <path style=" stroke:none;fill-rule:nonzero;fill:url(#radial2);" d="M 25.050781 6.199219 L 12.457031 7.84375 L 12.457031 65.21875 L 25.195312 66.992188 L 28.734375 63.480469 L 23.21875 57.15625 L 23.117188 39.460938 L 23.148438 39.410156 L 23.054688 26.203125 L 23.03125 26.203125 L 23.03125 16.132812 L 28.710938 9.515625 Z M 25.050781 6.199219 "/>
    <path style=" stroke:none;fill-rule:nonzero;fill:rgb(95.686275%,83.921569%,22.745098%);fill-opacity:1;" d="M 0.65625 9.390625 L 12.457031 14.464844 L 25.054688 6.199219 Z M 0.65625 9.390625 "/>
    <path style=" stroke:none;fill-rule:nonzero;fill:url(#linear1);" d="M 0.65625 9.390625 L 12.457031 14.464844 L 25.054688 6.199219 Z M 0.65625 9.390625 "/>
    <path style=" stroke:none;fill-rule:nonzero;fill:rgb(69.019608%,47.843137%,19.215686%);fill-opacity:1;" d="M 0.921875 63.617188 L 12.457031 58.886719 L 25.195312 66.992188 Z M 0.921875 63.617188 "/>
    <path style=" stroke:none;fill-rule:nonzero;fill:url(#linear2);" d="M 0.921875 63.617188 L 12.457031 58.886719 L 25.195312 66.992188 Z M 0.921875 63.617188 "/>
    <path style=" stroke:none;fill-rule:nonzero;fill:rgb(55.294118%,32.941176%,14.117647%);fill-opacity:1;" d="M 25.066406 6.203125 L 19.195312 13.550781 L 19.246094 59.429688 L 25.195312 66.996094 L 28.761719 63.453125 L 23.246094 57.179688 L 23.066406 16.132812 L 28.730469 9.535156 Z M 25.066406 6.203125 "/>
    <path style=" stroke:none;fill-rule:nonzero;fill:rgb(92.54902%,81.568627%,41.568627%);fill-opacity:1;" d="M 45.0625 3.457031 L 29.933594 5.566406 L 36.550781 11.734375 L 36.484375 61.304688 L 29.96875 67.542969 L 45.0625 69.597656 Z M 45.0625 3.457031 "/>
    <path style=" stroke:none;fill-rule:nonzero;fill:url(#radial3);" d="M 45.0625 3.457031 L 29.933594 5.566406 L 36.550781 11.734375 L 36.484375 61.304688 L 29.96875 67.542969 L 45.0625 69.597656 Z M 45.0625 3.457031 "/>
    <path style=" stroke:none;fill-rule:nonzero;fill:url(#radial4);" d="M 45.0625 3.457031 L 29.933594 5.566406 L 36.550781 11.734375 L 36.484375 61.304688 L 29.96875 67.542969 L 45.0625 69.597656 Z M 45.0625 3.457031 "/>
    <path style=" stroke:none;fill-rule:nonzero;fill:rgb(93.72549%,78.431373%,23.529412%);fill-opacity:0.980392;" d="M 62.03125 1.085938 L 45.019531 3.457031 L 45.019531 69.585938 L 61.957031 71.890625 L 61.722656 67.640625 L 54.390625 59.953125 L 54.414062 13.042969 L 61.660156 5.535156 Z M 62.03125 1.085938 "/>
    <path style=" stroke:none;fill-rule:nonzero;fill:url(#radial5);" d="M 62.03125 1.085938 L 45.019531 3.457031 L 45.019531 69.585938 L 61.957031 71.890625 L 61.722656 67.640625 L 54.390625 59.953125 L 54.414062 13.042969 L 61.660156 5.535156 Z M 62.03125 1.085938 "/>
    <path style=" stroke:none;fill-rule:nonzero;fill:url(#radial6);" d="M 62.03125 1.085938 L 45.019531 3.457031 L 45.019531 69.585938 L 61.957031 71.890625 L 61.722656 67.640625 L 54.390625 59.953125 L 54.414062 13.042969 L 61.660156 5.535156 Z M 62.03125 1.085938 "/>
    <path style=" stroke:none;fill-rule:nonzero;fill:rgb(95.686275%,83.921569%,22.745098%);fill-opacity:1;" d="M 29.929688 5.566406 L 45.023438 11.054688 L 62.015625 1.089844 Z M 29.929688 5.566406 "/>
    <path style=" stroke:none;fill-rule:nonzero;fill:url(#linear3);" d="M 29.929688 5.566406 L 45.019531 11.054688 L 62.015625 1.089844 Z M 29.929688 5.566406 "/>
    <path style=" stroke:none;fill-rule:nonzero;fill:rgb(62.745098%,42.745098%,18.823529%);fill-opacity:1;" d="M 29.972656 67.542969 L 45.023438 62.207031 L 61.960938 71.886719 Z M 29.972656 67.542969 "/>
    <path style=" stroke:none;fill-rule:nonzero;fill:url(#linear4);" d="M 29.972656 67.542969 L 45.023438 62.207031 L 61.960938 71.886719 Z M 29.972656 67.542969 "/>
    <path style=" stroke:none;fill-rule:nonzero;fill:rgb(69.019608%,49.411765%,24.313725%);fill-opacity:1;" d="M 45.296875 29.8125 L 12.457031 30.476562 L 19.222656 37.589844 L 36.550781 37.789062 L 45.308594 29.816406 Z M 45.296875 29.8125 "/>
    <path style=" stroke:none;fill-rule:nonzero;fill:rgb(95.294118%,88.627451%,49.019608%);fill-opacity:1;" d="M 36.550781 24 L 19.378906 24.714844 L 12.460938 30.488281 L 45.308594 29.824219 Z M 36.550781 24 "/>
    <path style=" stroke:none;fill-rule:nonzero;fill:url(#linear5);" d="M 45.296875 29.8125 L 12.457031 30.476562 L 19.210938 37.578125 L 36.539062 37.8125 L 45.308594 29.816406 Z M 45.296875 29.8125 "/>
    <path style=" stroke:none;fill-rule:nonzero;fill:rgb(54.901961%,32.941176%,13.72549%);fill-opacity:1;" d="M 62.027344 1.09375 L 61.65625 5.546875 L 54.480469 12.9375 L 54.433594 59.964844 L 61.738281 67.585938 L 61.960938 71.886719 L 53.882812 63.273438 L 53.875 9.859375 Z M 62.027344 1.09375 "/>
    <path style=" stroke:none;fill-rule:nonzero;fill:rgb(91.372549%,21.568627%,22.352941%);fill-opacity:1;" d="M 70.234375 14.546875 C 66.296875 14.601562 61.957031 15.292969 57.523438 17.953125 C 52.054688 21.574219 48.707031 25.867188 45.558594 30.21875 L 55.148438 37.636719 L 59.710938 40.292969 C 63.292969 35.988281 66.617188 30.878906 71.730469 31.292969 L 75.296875 14.9375 C 73.417969 14.546875 71.902344 14.550781 70.234375 14.546875 Z M 70.234375 14.546875 "/>
    <path style=" stroke:none;fill-rule:nonzero;fill:rgb(74.117647%,7.843137%,10.196078%);fill-opacity:1;" d="M 69.742188 14.332031 C 65.808594 14.382812 61.464844 15.074219 57.03125 17.734375 C 51.5625 21.355469 48.21875 25.648438 45.066406 30.003906 L 54.660156 37.417969 L 59.328125 40.097656 L 59.789062 40.339844 L 49.207031 32.003906 C 56.015625 20.433594 66.890625 14.410156 81.085938 17.011719 C 75.515625 14.320312 72.898438 14.335938 69.742188 14.332031 Z M 69.742188 14.332031 "/>
  </g>
</svg>