<?xml version="1.0" encoding="UTF-8" standalone="yes"?>
<svg xmlns="http://www.w3.org/2000/svg" xmlns:xlink="http://www.w3.org/1999/xlink" width="258.66666666666663px" height="106.66666666666666px" viewBox="0 0 194 80" version="1.1">
  <g id="surface1">
    <path style=" stroke:none;fill-rule:nonzero;fill:rgb(0%,0%,0%);fill-opacity:1;" d="M 94.703125 0.828125 C 100.675781 0.828125 117.6875 4.09375 117.6875 20.828125 C 117.6875 34.300781 111.25 38.300781 106.195312 39.21875 C 102.515625 39.90625 116.769531 39.21875 116.769531 56.09375 C 116.769531 80 96.082031 79.082031 96.082031 79.082031 L 61.601562 79.082031 L 61.601562 0.828125 Z M 80.910156 19.90625 L 80.910156 31.722656 L 92.402344 31.722656 C 92.402344 31.722656 97 31.171875 97 25.515625 C 97 19.863281 92.402344 19.90625 92.402344 19.90625 Z M 80.910156 48.734375 L 80.910156 60.691406 L 92.402344 60.691406 C 92.402344 60.691406 97 60.230469 97 54.253906 C 97 48.734375 92.402344 48.734375 92.402344 48.734375 Z M 0 0.828125 L 0 79.082031 L 21.605469 79.082031 L 21.605469 50.113281 L 35.398438 50.113281 L 35.398438 79.082031 L 57.003906 79.082031 L 57.003906 0.828125 L 35.398438 0.828125 L 35.398438 30.34375 L 21.605469 30.34375 L 21.605469 0.828125 Z M 0 0.828125 "/>
    <path style="fill:none;stroke-width:44;stroke-linecap:butt;stroke-linejoin:miter;stroke:rgb(0%,0%,0%);stroke-opacity:1;stroke-miterlimit:4;" d="M 400.001007 87 C 400.001007 122.895996 370.898438 152.003613 334.998188 152.003613 C 299.097938 152.003613 270.003866 122.895996 270.003866 87 C 270.003866 51.104004 299.097938 21.996387 334.998188 21.996387 C 370.898438 21.996387 400.001007 51.104004 400.001007 87 Z M 400.001007 87 " transform="matrix(0.459716,0,0,0.45977,0,0)"/>
    <path style=" stroke:none;fill-rule:nonzero;fill:rgb(0%,0%,0%);fill-opacity:1;" d="M 170.09375 40 C 170.09375 48.886719 162.890625 56.09375 154.003906 56.09375 C 145.117188 56.09375 137.914062 48.886719 137.914062 40 C 137.914062 31.113281 145.117188 23.90625 154.003906 23.90625 C 162.890625 23.90625 170.09375 31.113281 170.09375 40 Z M 170.09375 40 "/>
  </g>
</svg>