<?xml version="1.0" encoding="UTF-8" ?>
<!DOCTYPE svg PUBLIC "-//W3C//DTD SVG 1.1//EN" "http://www.w3.org/Graphics/SVG/1.1/DTD/svg11.dtd">
<svg width="278pt" height="89pt" viewBox="0 0 278 89" version="1.1" xmlns="http://www.w3.org/2000/svg">
<g id="#000000ff">
<path fill="#000000" opacity="1.00" d=" M 156.95 2.91 C 169.40 -1.42 183.87 -0.09 195.10 6.93 C 204.97 12.86 212.21 22.92 214.83 34.12 C 218.32 47.96 214.48 63.35 205.03 74.04 C 198.01 82.22 187.92 87.67 177.21 89.00 L 166.72 89.00 C 151.86 87.70 138.78 77.72 132.01 64.67 C 131.70 77.91 119.12 89.21 106.00 88.80 C 93.50 88.77 81.00 88.81 68.49 88.76 C 68.55 59.78 68.58 30.79 68.48 1.80 C 81.66 1.75 94.85 1.74 108.03 1.79 C 120.51 1.75 131.69 13.11 131.95 25.48 C 136.98 15.14 146.00 6.65 156.95 2.91 M 90.97 21.31 C 90.99 26.16 90.87 31.00 91.07 35.84 C 95.57 35.78 100.11 36.22 104.59 35.66 C 110.74 33.65 110.72 23.36 104.49 21.49 C 100.01 21.03 95.47 21.43 90.97 21.31 M 164.65 23.76 C 153.71 27.33 146.88 40.30 150.75 51.27 C 153.81 61.89 165.60 68.81 176.38 66.33 C 188.47 64.19 196.83 50.62 193.20 38.87 C 190.24 26.92 176.25 19.37 164.65 23.76 M 119.42 44.80 C 122.79 45.98 125.51 48.30 127.87 50.91 C 127.16 47.13 127.29 43.28 127.68 39.48 C 125.31 41.79 122.51 43.62 119.42 44.80 M 91.09 53.80 C 90.96 58.71 91.10 63.63 90.93 68.54 C 95.44 68.38 99.98 68.82 104.48 68.36 C 110.59 66.34 110.70 56.49 104.70 54.23 C 100.24 53.35 95.61 54.07 91.09 53.80 Z" />
<path fill="#000000" opacity="1.00" d=" M 0.00 1.75 C 8.22 1.77 16.44 1.79 24.66 1.75 C 24.60 12.59 24.67 23.44 24.62 34.29 C 29.73 34.24 34.85 34.23 39.97 34.27 C 39.82 23.44 39.92 12.60 39.89 1.77 C 47.79 1.75 55.69 1.81 63.59 1.72 C 63.67 30.81 63.57 59.91 63.64 89.00 L 63.52 89.00 C 55.66 88.55 47.78 88.91 39.91 88.76 C 39.90 77.59 39.85 66.41 39.95 55.24 C 34.84 55.20 29.73 55.20 24.62 55.21 C 24.65 66.48 24.65 77.74 24.62 89.00 L 0.00 89.00 L 0.00 1.75 Z" />
<path fill="#000000" opacity="1.00" d=" M 167.53 27.81 C 176.73 25.13 187.20 31.61 188.89 41.03 C 191.23 50.30 184.34 60.41 174.93 61.86 C 165.25 63.93 154.98 55.98 154.51 46.10 C 153.62 37.87 159.52 29.71 167.53 27.81 Z" />
</g>
<g id="#f3cd75f3">
<path fill="#f3cd75" opacity="0.95" d=" M 231.38 5.34 C 239.87 -0.58 251.62 -1.06 260.87 3.39 C 270.12 7.71 276.45 17.78 275.85 28.05 C 275.84 33.70 272.77 38.66 269.62 43.11 C 273.73 47.41 277.22 52.63 278.00 58.65 L 278.00 64.96 C 276.31 77.93 264.35 87.89 251.61 89.00 L 244.46 89.00 C 234.13 88.27 224.57 81.91 219.76 72.76 C 225.87 70.12 232.01 67.56 238.12 64.92 C 239.54 67.18 241.32 69.50 244.16 69.88 C 248.49 70.54 254.10 70.84 257.09 66.98 C 259.74 63.07 259.03 56.78 254.75 54.28 C 251.74 52.52 248.07 53.30 244.75 53.10 C 244.75 47.66 244.77 42.21 244.73 36.77 C 247.74 36.51 251.09 36.90 253.70 35.09 C 257.90 31.95 257.81 25.14 254.47 21.43 C 251.25 18.98 246.73 19.15 243.02 20.19 C 240.88 20.80 240.21 23.11 239.21 24.82 C 232.86 24.98 226.51 24.93 220.17 24.87 C 221.23 17.27 224.90 9.74 231.38 5.34 Z" />
</g>
</svg>
