<?xml version="1.0" encoding="UTF-8" standalone="no"?>
<svg
   xmlns:dc="http://purl.org/dc/elements/1.1/"
   xmlns:cc="http://creativecommons.org/ns#"
   xmlns:rdf="http://www.w3.org/1999/02/22-rdf-syntax-ns#"
   xmlns:svg="http://www.w3.org/2000/svg"
   xmlns="http://www.w3.org/2000/svg"
   xmlns:sodipodi="http://sodipodi.sourceforge.net/DTD/sodipodi-0.dtd"
   xmlns:inkscape="http://www.inkscape.org/namespaces/inkscape"
   version="1.1"
   width="699.4303"
   height="678.38464"
   viewBox="0 0 559.54424 542.5079"
   id="svg2"
   inkscape:version="0.48.2 r9819"
   sodipodi:docname="AJAX1.svg">
  <metadata
     id="metadata47">
    <rdf:RDF>
      <cc:Work
         rdf:about="">
        <dc:format>image/svg+xml</dc:format>
        <dc:type
           rdf:resource="http://purl.org/dc/dcmitype/StillImage" />
        <dc:title></dc:title>
      </cc:Work>
    </rdf:RDF>
  </metadata>
  <sodipodi:namedview
     pagecolor="#ffffff"
     bordercolor="#666666"
     borderopacity="1"
     objecttolerance="10"
     gridtolerance="10"
     guidetolerance="10"
     inkscape:pageopacity="0"
     inkscape:pageshadow="2"
     inkscape:window-width="1280"
     inkscape:window-height="1004"
     id="namedview45"
     showgrid="false"
     fit-margin-top="0"
     fit-margin-left="0"
     fit-margin-right="0"
     fit-margin-bottom="0"
     inkscape:zoom="0.69513991"
     inkscape:cx="269.97148"
     inkscape:cy="104.3096"
     inkscape:window-x="-8"
     inkscape:window-y="-8"
     inkscape:window-maximized="1"
     inkscape:current-layer="svg2" />
  <defs
     id="defs45" />
  <g
     transform="translate(-33.41,-29.322193)"
     style="fill:#000000"
     id="#000000ff">
    <path
       d="m 271.58,30.53 c 0.85,-1.08 2.37,-2.05 3.34,-0.5 11.51,11.49 23.01,23.01 34.56,34.46 0.63,0.76 2.26,1.97 0.95,2.93 -75.4,75.59 -150.76,151.25 -226.08,226.92 -4.49,4.25 -8.43,9.1 -13.29,12.94 -12.83,-12.21 -24.83,-25.3 -37.65,-37.54 13.82,-14.56 28.52,-28.29 42.18,-42.99 5.2,-4.5 9.89,-9.53 14.78,-14.35 C 150.78,151.78 211.13,91.11 271.58,30.53 z"
       id="path5"
       style="fill:#000000;stroke:none"
       inkscape:connector-curvature="0" />
    <path
       d="m 315.41,111.67 c 14.97,-2.36 30.71,-0.94 44.56,5.46 18.8,8.33 33.93,24.64 40.83,44.01 5.41,15.56 4.99,32.96 -0.41,48.46 -6.82,17.28 -19.96,30.98 -32.72,44.08 -9.67,9.63 -19.15,19.62 -30.42,27.42 -5.5,3.58 -11.63,6.59 -18.26,7.18 -7.01,0.8 -14.03,-0.46 -20.91,-1.71 1.92,10.06 2.84,20.92 -1.12,30.62 -4.82,11.83 -14.06,21 -22.75,30.04 -3.94,4.37 -8.55,8.15 -11.83,13.08 -2.11,1.89 -4.56,3.4 -6.55,5.45 -9.95,9.76 -20.13,19.5 -32.05,26.86 -14.07,7.75 -30.74,10.01 -46.56,7.94 -18.16,-2.93 -34.31,-13.83 -45.99,-27.75 -11.58,-13.89 -18.31,-31.77 -18.33,-49.87 0.78,-7.36 1.74,-14.82 4.51,-21.74 4.14,-10.83 10.94,-20.49 19.08,-28.69 7.44,-7.41 14.82,-14.88 22.27,-22.28 12.16,12.51 24.54,24.81 36.92,37.11 0.73,0.83 2.42,2.09 1.04,3.2 -6.64,7.11 -13.85,13.67 -20.47,20.8 -3.33,3.76 -6.04,8.5 -6.08,13.64 -1.07,11.73 11.08,22.82 22.7,20.21 5.83,-1.48 10.72,-5.24 14.73,-9.6 10.51,-10.51 20.96,-21.08 31.52,-31.54 4.88,-4.98 10.19,-10.13 12.22,-17.01 1.07,-3.29 -0.02,-6.77 -1.5,-9.74 -3.96,-7.7 -10.4,-13.64 -16.25,-19.86 -1.16,-0.95 0.47,-2.02 1.02,-2.74 11.1,-11.1 22.09,-22.31 33.28,-33.31 6.02,5.98 11.89,12.31 19.27,16.64 3.47,2.04 7.71,3.32 11.68,2.03 5.65,-1.77 10.06,-5.98 14.19,-10.04 9.48,-9.51 18.94,-19.05 28.46,-28.53 3.37,-3.22 6.6,-6.95 7.58,-11.65 3.38,-13.66 -11.86,-28.35 -25.32,-23.25 -3.75,1.22 -6.99,3.63 -9.73,6.43 -6.14,6.19 -12.34,12.32 -18.42,18.57 -0.8,0.7 -2.05,2.44 -3.1,1.05 -12.69,-12.76 -25.47,-25.46 -38.04,-38.34 7.76,-7.51 15.3,-15.25 22.85,-22.97 10.37,-10.16 23.83,-17.05 38.1,-19.66 z"
       id="path7"
       style="fill:#000000;stroke:none"
       inkscape:connector-curvature="0" />
    <path
       d="m 434.59,206.77 c 2.66,-2.75 4.99,-5.94 8.27,-8.01 8.68,8.24 16.99,16.89 25.48,25.32 -2.53,2.58 -4.83,5.42 -7.69,7.63 -0.31,-0.01 -0.93,-0.05 -1.25,-0.07 -2.64,-2.19 -4.84,-4.86 -7.32,-7.23 -12.25,12.29 -24.37,24.71 -36.63,37 -0.9,1 -2.51,2.29 -3.72,0.95 -2.88,-2.71 -5.77,-5.44 -8.3,-8.48 12.62,-13.29 25.83,-26.07 38.73,-39.12 -2.4,-2.78 -5,-5.37 -7.57,-7.99 z"
       id="path9"
       style="fill:#000000;stroke:none"
       inkscape:connector-curvature="0" />
    <path
       d="m 426.62,277.1 c 15.86,-15.72 31.45,-31.7 47.33,-47.4 3.36,3.21 6.64,6.52 9.76,9.97 -6.27,6.06 -12.53,12.16 -18.45,18.55 1.7,3.52 5.32,5.75 7.91,8.63 6.59,-5.97 12.63,-12.52 18.92,-18.8 3.39,3.22 6.67,6.56 9.94,9.91 -15.8,15.64 -31.27,31.63 -47.19,47.13 -3.9,-2.45 -6.57,-6.39 -10.05,-9.35 6.61,-6.98 13.65,-13.57 20.21,-20.61 -2.6,-2.63 -4.96,-5.54 -8.02,-7.65 -1.48,-0.13 -2.35,1.37 -3.4,2.15 -5.81,5.79 -11.53,11.68 -17.37,17.45 -3.14,-3.38 -6.46,-6.59 -9.59,-9.98 z"
       id="path11"
       style="fill:#000000;stroke:none"
       inkscape:connector-curvature="0" />
    <path
       d="m 393,263.99 c 1.39,-1.13 3.11,-4.09 4.92,-1.88 2.63,2.81 6.31,5.21 7.84,8.72 -2.31,2.91 -5.21,5.3 -7.73,8.03 2.82,2.84 5.68,5.63 8.7,8.27 10.52,11.58 22.16,22.11 32.78,33.6 -3.55,3.54 -7.11,7.08 -10.69,10.6 -14.13,-13.61 -27.69,-27.8 -41.71,-41.52 -2.78,2.71 -5.5,5.46 -8.21,8.24 -3.31,-3.27 -6.66,-6.51 -9.84,-9.91 7.84,-8.18 16.07,-15.99 23.94,-24.15 z"
       id="path13"
       style="fill:#000000;stroke:none"
       inkscape:connector-curvature="0" />
    <path
       d="m 339.5,317.98 c 8.15,-8.14 16.17,-16.42 24.44,-24.44 3.2,3.23 6.44,6.43 9.68,9.64 -4.38,4.72 -9.09,9.13 -13.53,13.79 3.4,3.47 6.91,6.84 10.24,10.4 4.31,-3.89 8.14,-8.28 12.51,-12.11 3.17,3.12 6.38,6.23 9.32,9.58 -3.97,4.12 -8.05,8.12 -12.09,12.16 3.89,3.96 7.77,7.93 11.83,11.72 4.54,-4.12 8.4,-9 13.2,-12.82 l 0.75,-0.17 c 3.32,2.87 6.25,6.17 9.33,9.29 -7.64,7.8 -15.38,15.51 -23.05,23.27 -1.43,1.47 -3.06,-0.35 -4.08,-1.37 -16.09,-16.4 -32.39,-32.61 -48.55,-48.94 z"
       id="path15"
       style="fill:#000000;stroke:none"
       inkscape:connector-curvature="0" />
    <path
       d="m 326.76,330.78 c 2.28,-2.26 4.34,-4.81 7.04,-6.59 3.16,3.14 6.6,6.07 9.22,9.69 -4.12,4.73 -8.88,8.84 -13.24,13.34 3.39,3.59 6.93,7.04 10.41,10.54 4.08,-3.78 7.58,-8.21 11.96,-11.66 2.4,0.89 3.88,3.3 5.81,4.92 1.22,1.46 3.26,2.54 3.61,4.54 -3.7,4.22 -8.08,7.79 -11.74,12.06 4,3.49 7.41,7.61 11.41,11.11 l 0.63,0.06 c 4.91,-4.08 8.78,-9.28 13.81,-13.23 2.72,3.64 6.01,6.78 9.01,10.19 -8.23,8.02 -16.11,16.4 -24.46,24.31 -16.72,-17.55 -34.38,-34.2 -51.01,-51.84 6.03,-5.62 11.75,-11.57 17.54,-17.44 z"
       id="path17"
       style="fill:#000000;stroke:none"
       inkscape:connector-curvature="0" />
    <path
       d="m 287.79,369.77 c 4.64,-4.91 10.75,-10.09 18.06,-8.39 7.72,2.15 13.55,8.48 17.81,14.99 1.99,2.82 1.57,6.35 1.43,9.59 6.82,-1.39 12.33,3.81 16.82,8.16 4.03,4.28 8.95,7.57 14.25,10.08 -3.67,4.02 -7.64,7.75 -11.42,11.66 -5.41,-2.47 -9.73,-6.57 -13.77,-10.83 -2.8,-2.76 -6.36,-6.38 -10.69,-5.03 -2.36,1.21 -4.12,3.28 -6.05,5.05 6.96,6.8 13.77,13.76 20.61,20.69 -3.7,3.45 -6.88,7.48 -10.95,10.5 -1.04,-0.66 -1.97,-1.47 -2.85,-2.31 -14.05,-14.26 -28.32,-28.29 -42.32,-42.6 -1.96,-2.01 -3.99,-3.95 -6.08,-5.82 4.53,-5.72 10.21,-10.38 15.15,-15.74 m 4.76,13.4 c 4.02,4.58 8.55,8.68 12.73,13.13 2.65,-2.75 6.72,-5.17 7.09,-9.27 -1.46,-4.18 -5.24,-7.2 -8.71,-9.76 -4.89,-1.93 -8.02,3.07 -11.11,5.9 z"
       id="path19"
       style="fill:#000000;stroke:none"
       inkscape:connector-curvature="0" />
    <path
       d="m 240.91,417 c 8.91,-9.13 17.9,-18.24 27.1,-27.07 3.37,2.95 7.32,5.91 9.32,9.94 -2.44,2.72 -5.22,5.12 -7.62,7.89 13.75,13.79 27.63,27.48 41.23,41.42 -3,4.08 -6.81,7.73 -10.76,10.91 -13.81,-13.76 -27.52,-27.64 -41.32,-41.41 -2.83,2.57 -5.5,5.29 -8.09,8.1 -3.45,-3.08 -7.03,-6.1 -9.86,-9.78 z"
       id="path21"
       style="fill:#000000;stroke:none"
       inkscape:connector-curvature="0" />
    <path
       d="m 220.66,436.58 c 3.94,-5.38 9.24,-11.07 16.38,-11.33 6.79,0.01 12.17,4.88 16.6,9.49 -3.33,3.38 -6.7,6.71 -9.96,10.15 -3.03,-2.05 -5.51,-6.05 -9.61,-5.49 -2.78,0.79 -4.76,3.69 -3.7,6.58 1.88,3.4 5.6,6.01 9.61,5.52 7.7,-0.5 15.1,-3.79 22.91,-3.04 9.57,0.72 17.4,8.43 20.61,17.12 2.51,6.3 -0.77,13.19 -4.95,17.95 -4.05,4.47 -8.99,9.52 -15.52,9.29 -7.91,0.38 -13.85,-5.82 -19,-10.98 3.35,-3.36 6.54,-6.91 10.09,-10.05 3.17,1.14 4.68,4.9 7.79,6.34 3.71,2.74 9.57,-1.63 8.25,-5.98 -1.56,-5.08 -6.92,-8.5 -12.14,-8.34 -7.37,0.85 -14.55,3.78 -22.07,3 -7.44,-0.69 -13.66,-6.09 -17.14,-12.45 -3.17,-5.6 -1.95,-12.79 1.85,-17.78 z"
       id="path23"
       style="fill:#000000;stroke:none"
       inkscape:connector-curvature="0" />
    <path
       d="m 254.03,532.6 c 2.67,0.18 5.24,-0.58 7.7,-1.54 -0.04,3.93 -0.03,7.86 -0.08,11.8 -1.8,-0.88 -3.51,-2.24 -5.6,-2.2 -6.99,-0.13 -13.99,0 -20.98,0 -0.02,1.93 -0.04,3.86 -0.06,5.8 6.06,-0.14 12.45,1.1 18.18,-1.46 0.05,3.66 0.04,7.33 0.02,11 -5.76,-2.48 -12.13,-1.36 -18.2,-1.44 0.05,2.42 0.09,4.85 0.16,7.29 6.96,-0.12 13.93,0.03 20.89,-0.05 2.21,0.25 3.71,-1.58 5.43,-2.62 0.27,4.18 0.22,8.37 0.19,12.56 -2.08,-1.05 -4.21,-2.26 -6.63,-2.06 -11.37,0.06 -22.74,-0.05 -34.12,0.11 0.96,-1.81 2.28,-3.59 2.16,-5.73 0.08,-8.38 0.01,-16.75 0.03,-25.12 0.17,-2.41 -1.1,-4.49 -2.14,-6.54 11.01,0.34 22.03,0.07 33.05,0.2 z"
       id="path25"
       style="fill:#000000;stroke:none"
       inkscape:connector-curvature="0" />
    <path
       d="m 47.07,532.41 c 4.92,0.2 9.84,0.19 14.76,0.02 -1.22,2.32 -2.08,4.84 -1.85,7.52 0.23,5.56 -0.42,11.2 0.37,16.72 1.92,4.88 8.26,4.89 12.5,3.63 4.06,-1.77 3.96,-6.57 3.79,-10.3 -0.34,-5.84 1.01,-12.01 -1.61,-17.49 4.72,0.07 9.44,0.13 14.15,-0.07 -3.09,8.41 -0.32,17.54 -1.83,26.19 -1.04,4.52 -4.37,8.34 -8.7,10.01 -6.65,2.62 -14.44,2.65 -21.04,-0.17 -4.62,-1.87 -8.14,-6.42 -8.45,-11.44 -0.3,-6.35 0.15,-12.71 -0.13,-19.05 0.01,-2.05 -1.14,-3.79 -1.96,-5.57 z"
       id="path27"
       style="fill:#000000;stroke:none"
       inkscape:connector-curvature="0" />
    <path
       d="m 96.98,532.47 c 6.9,0.15 13.8,-0.02 20.7,0.17 -0.57,1.1 -1.14,2.21 -1.7,3.32 4.48,4.8 8.63,9.92 13.53,14.3 -0.08,-5.91 1.54,-12.43 -1.86,-17.73 5.09,0.05 10.19,0.02 15.28,-0.06 -1.09,2.02 -2.73,3.99 -2.47,6.45 0.01,8.38 -0.04,16.76 0.02,25.14 -0.19,2.23 1.41,3.94 2.4,5.78 -5.33,-0.19 -10.68,-0.21 -16.01,0.04 0.59,-1.3 1.22,-2.57 1.83,-3.85 -6.13,-6.6 -12.56,-12.91 -18.57,-19.61 0.05,5.87 0,11.74 0.05,17.62 -0.12,2.11 0.97,3.97 1.73,5.86 -4.93,-0.29 -9.87,-0.22 -14.81,-0.07 0.94,-1.85 2.45,-3.58 2.33,-5.77 0.08,-8.37 0,-16.74 0.04,-25.11 0.27,-2.48 -1.4,-4.44 -2.49,-6.48 z"
       id="path29"
       style="fill:#000000;stroke:none"
       inkscape:connector-curvature="0" />
    <path
       d="m 173.07,532.52 c 5.51,0.03 11.02,0.06 16.54,0.02 -0.52,1.56 -1.89,3.13 -1.14,4.85 2.02,5.66 3.83,11.42 6.39,16.86 2.6,-5.4 4.64,-11.05 7.05,-16.54 1.11,-1.79 -0.08,-3.64 -0.64,-5.38 4.79,0.3 9.59,0.21 14.39,0.22 -2.11,3.78 -3.93,7.71 -5.4,11.78 -2.45,6.78 -5.75,13.23 -8.07,20.06 -0.85,1.8 0.14,3.68 0.47,5.48 -5.86,-0.24 -11.73,-0.27 -17.59,0.01 1.77,-4.33 -0.78,-8.52 -2.03,-12.58 -3.1,-8.34 -5.1,-17.23 -9.97,-24.78 z"
       id="path31"
       style="fill:#000000;stroke:none"
       inkscape:connector-curvature="0" />
    <path
       d="m 325.91,534.09 c 7.19,-3.3 15.35,-2.02 22.82,-0.51 2.43,0.6 4.92,0.31 7.36,-0.07 -1.58,3.88 -3.36,7.66 -5.09,11.48 -5.5,-5.35 -14.17,-5.49 -21.06,-3.17 0.02,0.83 0.07,2.49 0.09,3.31 6.98,2.01 14.62,1.38 21.25,4.7 4.03,1.83 6.2,6.94 4.51,11.08 -1.65,5.12 -6.86,7.99 -11.86,8.93 -7.08,1.67 -14.27,-0.22 -21.17,-1.8 -2.02,-0.62 -4.08,-0.15 -6.07,0.27 1.11,-3.91 2.18,-7.82 3.31,-11.72 4.86,5.11 12.42,5.49 19.03,5.46 2.27,-0.05 6.41,-0.96 5.37,-4.04 -5.3,-3.28 -11.99,-2.04 -17.79,-3.85 -4.29,-0.96 -9.18,-4.18 -8.76,-9.15 -0.2,-5 3.87,-8.91 8.06,-10.92 z"
       id="path33"
       style="fill:#000000;stroke:none"
       inkscape:connector-curvature="0" />
    <path
       d="m 150.69,532.58 c 5.56,-0.06 11.11,0.02 16.67,-0.09 -1.02,2.01 -2.26,4.05 -2.01,6.41 0.27,10.27 -0.47,20.59 0.53,30.84 -4.58,-0.07 -9.16,-0.06 -13.74,0.03 2.27,-4.62 1.33,-9.82 1.49,-14.77 -0.14,-6.18 0.26,-12.38 -0.14,-18.54 -0.76,-1.42 -1.86,-2.6 -2.8,-3.88 z"
       id="path35"
       style="fill:#000000;stroke:none"
       inkscape:connector-curvature="0" />
    <path
       d="m 268.92,532.92 c 7.67,-0.77 15.39,-0.13 23.08,-0.38 4.79,0.01 10.34,-0.15 14.03,3.44 4.44,3.7 5.1,11.06 1.35,15.46 -1.75,2.05 -4.21,3.28 -6.5,4.62 3.16,4.71 6.02,9.71 10.26,13.58 -5.96,0.14 -11.93,-0.01 -17.89,0.15 0.59,-1.16 1.19,-2.31 1.78,-3.46 -2.12,-3.33 -3.6,-7.12 -6.3,-10.05 -2.2,-0.24 -4.43,-0.17 -6.64,-0.19 0.01,4.63 -1.03,9.73 1.86,13.78 -4.9,-0.22 -9.8,-0.2 -14.7,-0.07 1.05,-2.11 2.04,-4.32 1.87,-6.73 -0.06,-8.37 0.06,-16.74 -0.05,-25.1 0.1,-1.95 -1.3,-3.44 -2.15,-5.05 m 13.06,7.71 c 0.01,2.75 0.04,5.5 0.13,8.26 4.57,-0.24 9.3,0.53 13.75,-0.65 3.54,-1.23 3.35,-6.17 -0.06,-7.45 -4.59,-0.53 -9.22,-0.14 -13.82,-0.16 z"
       id="path37"
       style="fill:#000000;stroke:none"
       inkscape:connector-curvature="0" />
    <path
       d="m 374.29,532.59 c 5.48,-0.03 10.95,-0.03 16.42,0 0.06,6.1 3.94,11.06 6.18,16.49 3.49,6.85 6.25,14.08 10.28,20.65 -4.58,0.01 -9.16,-0.09 -13.73,0.09 -0.02,-2.61 -0.31,-5.57 -2.45,-7.35 -6.05,-0.39 -12.13,-0.09 -18.19,-0.06 -1.15,2.29 -1.9,4.78 -1.45,7.36 -4.24,-0.1 -8.49,-0.06 -12.73,0.01 4.26,-7.23 7.03,-15.19 10.69,-22.71 2.05,-4.68 4.75,-9.26 4.98,-14.48 m 7.87,10.07 c -2.35,4.28 -4.25,8.78 -6.18,13.26 3.95,-0.08 7.92,-0.06 11.88,-0.06 -1.48,-4.57 -3.74,-8.83 -5.7,-13.2 z"
       id="path39"
       style="fill:#000000;stroke:none"
       inkscape:connector-curvature="0" />
    <path
       d="m 412.55,532.51 c 5.24,0.08 10.48,0.05 15.72,0.04 -0.81,1.76 -2.23,3.39 -2.11,5.45 -0.1,7.6 -0.01,15.2 0.01,22.8 6.29,-0.08 12.59,0.03 18.88,-0.01 2.12,0.12 4.06,-0.84 5.99,-1.57 -0.14,4.24 -0.06,8.49 0.32,12.71 -2.26,-1.22 -4.64,-2.52 -7.3,-2.25 -10.63,0.1 -21.26,-0.14 -31.88,0.17 0.99,-1.82 2.47,-3.59 2.24,-5.8 -0.01,-8.35 -0.01,-16.71 0.01,-25.06 0.16,-2.34 -1.04,-4.4 -1.88,-6.48 z"
       id="path41"
       style="fill:#000000;stroke:none"
       inkscape:connector-curvature="0" />
  </g>
  <path
     d="m 413.47073,319.59835 73.03675,-73.03688 73.03675,73.03688 -73.03675,73.03675"
     id="path3024"
     style="fill:#000000;stroke:none"
     inkscape:connector-curvature="0" />
  <path
     d="m 446.11386,298.0994 0,41.925 10.9,0 0,-15.85 14.15,0 0,15.85 10.9,0 0,-41.925 -10.9,0 0,16.175 -14.15,0 0,-16.175 -10.9,0 z m 46.325,0 0,41.925 17.7,0 c 2.25256,0 4.45429,-0.39231 6.625,-1.15 4.09558,-1.43347 7.45377,-3.99345 10.075,-7.7 2.64164,-3.727 3.97496,-7.76315 3.975,-12.125 -4e-5,-3.13312 -0.71656,-6.17612 -2.15,-9.125 -1.76115,-3.56315 -4.30306,-6.42024 -7.6,-8.55 -3.35843,-2.19112 -6.99324,-3.27496 -10.925,-3.275 l -17.7,0 z m 10.9,9.125 4.1,0 c 4.25943,0 7.44979,1.40358 9.6,4.25 1.61775,2.15024 2.44997,4.68762 2.45,7.575 -3e-5,2.88744 -0.83225,5.40434 -2.45,7.575 -2.12975,2.84648 -5.32009,4.275 -9.6,4.275 l -4.1,0 0,-23.675 z"
     id="path3044"
     style="fill:#ffffff;fill-opacity:1;stroke:none"
     inkscape:connector-curvature="0" />
</svg>
