<?xml version="1.0" encoding="UTF-8" ?>
<!DOCTYPE svg PUBLIC "-//W3C//DTD SVG 1.1//EN" "http://www.w3.org/Graphics/SVG/1.1/DTD/svg11.dtd">
<svg width="500pt" height="352pt" viewBox="0 0 500 352" version="1.1" xmlns="http://www.w3.org/2000/svg">
<g id="#bfbec0ff">
<path fill="#bfbec0" opacity="1.00" d=" M 41.55 0.00 L 62.73 0.00 L 62.83 1.15 C 62.87 3.26 62.76 6.00 60.03 6.12 C 53.90 6.81 47.69 6.26 41.53 6.35 C 41.53 4.24 41.54 2.12 41.55 0.00 Z" />
<path fill="#bfbec0" opacity="1.00" d=" M 0.13 0.24 C 7.26 0.17 14.40 0.20 21.53 0.22 C 21.52 2.26 21.49 4.30 21.49 6.34 C 14.40 6.46 7.30 6.41 0.21 6.37 C 0.21 4.33 0.16 2.29 0.13 0.24 Z" />
<path fill="#bfbec0" opacity="1.00" d=" M 76.25 0.25 C 85.16 0.15 94.07 0.22 102.99 0.21 C 110.78 0.26 118.91 0.57 126.00 4.19 C 122.56 5.92 118.68 5.54 114.97 5.52 C 102.08 5.43 89.20 5.58 76.32 5.44 C 76.29 3.71 76.27 1.98 76.25 0.25 Z" />
</g>
<g id="#2064a5ed">
<path fill="#2064a5" opacity="0.93" d=" M 170.65 0.00 L 276.46 0.00 L 275.30 0.52 C 273.86 0.54 272.41 0.53 270.98 0.51 C 265.31 0.40 259.64 0.59 253.97 0.65 C 249.29 0.66 244.61 0.75 239.94 0.84 C 231.28 0.77 222.62 1.14 213.96 1.08 C 206.31 0.86 198.65 1.19 191.00 0.94 C 183.88 0.47 176.73 0.78 169.62 0.15 L 170.65 0.00 Z" />
</g>
<g id="#3681baed">
<path fill="#3681ba" opacity="0.93" d=" M 276.46 0.00 L 404.63 0.00 L 403.34 0.42 C 400.55 0.69 397.75 0.81 394.95 0.93 C 385.66 1.33 376.36 0.80 367.06 1.07 C 359.71 1.10 352.37 0.84 345.02 0.88 C 331.31 0.66 317.60 0.67 303.88 0.87 C 294.36 0.55 284.79 1.71 275.30 0.52 L 276.46 0.00 Z" />
<path fill="#3681ba" opacity="0.93" d=" M 275.38 351.37 C 284.86 350.37 294.41 351.41 303.92 351.13 C 321.65 351.50 339.38 351.17 357.10 350.93 C 367.71 351.29 378.32 350.63 388.93 350.96 C 393.73 351.30 398.55 351.23 403.36 351.53 L 404.63 352.00 L 276.72 352.00 L 275.38 351.37 Z" />
</g>
<g id="#1a5e9fed">
<path fill="#1a5e9f" opacity="0.93" d=" M 404.63 0.00 L 477.50 0.00 L 478.52 0.14 C 476.96 0.41 475.40 0.66 473.85 0.91 C 465.21 1.29 456.55 0.75 447.90 1.12 C 436.30 1.22 424.71 0.56 413.12 0.70 C 409.85 0.72 406.60 0.59 403.34 0.42 L 404.63 0.00 Z" />
<path fill="#1a5e9f" opacity="0.93" d=" M 403.36 351.53 C 406.92 351.37 410.49 351.26 414.06 351.28 C 425.33 351.44 436.60 350.70 447.88 350.88 C 456.54 351.27 465.22 350.71 473.88 351.10 C 475.14 351.35 476.40 351.61 477.67 351.86 L 478.49 352.00 L 404.63 352.00 L 403.36 351.53 Z" />
</g>
<g id="#969194ff">
<path fill="#969194" opacity="1.00" d=" M 60.03 6.12 C 62.76 6.00 62.87 3.26 62.83 1.15 C 62.95 7.17 62.78 13.19 62.84 19.21 C 62.72 18.68 62.47 17.61 62.35 17.08 C 62.16 16.35 61.78 14.90 61.59 14.18 C 54.92 13.57 48.22 14.34 41.54 14.04 C 41.53 11.48 41.53 8.92 41.53 6.35 C 47.69 6.26 53.90 6.81 60.03 6.12 Z" />
<path fill="#969194" opacity="1.00" d=" M 0.21 6.37 C 7.30 6.41 14.40 6.46 21.49 6.34 C 21.48 8.90 21.50 11.46 21.49 14.02 C 14.39 14.16 7.30 13.70 0.20 14.00 C 0.19 11.46 0.22 8.92 0.21 6.37 Z" />
<path fill="#969194" opacity="1.00" d=" M 130.87 8.20 L 131.04 8.18 C 132.16 10.17 134.00 11.91 134.35 14.22 L 133.88 14.69 C 121.60 15.08 109.28 15.32 96.98 14.83 C 90.09 14.59 83.19 14.92 76.31 15.27 C 76.31 13.11 76.32 10.96 76.32 8.80 C 94.50 8.01 112.71 9.29 130.87 8.20 Z" />
</g>
<g id="#0d4b98ff">
<path fill="#0d4b98" opacity="1.00" d=" M 148.23 23.95 C 148.21 13.12 156.46 3.19 166.88 0.65 C 167.49 28.77 166.91 56.90 167.05 85.03 C 167.17 173.81 167.14 262.60 167.06 351.39 C 158.52 349.34 151.35 342.45 149.06 333.96 C 147.90 330.07 148.27 325.97 148.22 321.97 C 148.24 222.63 148.22 123.29 148.23 23.95 Z" />
</g>
<g id="#1657a1ff">
<path fill="#1657a1" opacity="1.00" d=" M 166.88 0.65 C 167.57 0.52 168.93 0.28 169.62 0.15 C 176.73 0.78 183.88 0.47 191.00 0.94 C 190.68 113.96 191.03 226.98 190.84 339.99 C 190.75 343.56 190.86 347.13 191.16 350.69 C 197.32 351.17 203.49 350.97 209.65 351.27 L 208.57 352.00 L 170.82 352.00 C 169.56 351.83 168.30 351.63 167.06 351.39 C 167.14 262.60 167.17 173.81 167.05 85.03 C 166.91 56.90 167.49 28.77 166.88 0.65 Z" />
</g>
<g id="#1d63aaff">
<path fill="#1d63aa" opacity="1.00" d=" M 191.00 0.94 C 198.65 1.19 206.31 0.86 213.96 1.08 C 214.17 117.72 213.95 234.36 214.05 350.99 C 212.58 351.04 211.11 351.14 209.65 351.27 C 203.49 350.97 197.32 351.17 191.16 350.69 C 190.86 347.13 190.75 343.56 190.84 339.99 C 191.03 226.98 190.68 113.96 191.00 0.94 Z" />
</g>
<g id="#1e6fb3ff">
<path fill="#1e6fb3" opacity="1.00" d=" M 213.96 1.08 C 222.62 1.14 231.28 0.77 239.94 0.84 C 239.79 59.68 239.90 118.52 239.90 177.36 C 240.86 177.19 241.84 177.04 242.81 176.89 C 235.22 196.20 231.45 217.52 235.29 238.12 C 236.86 246.93 239.83 255.49 243.99 263.42 C 241.23 263.04 240.52 260.00 239.15 258.04 C 238.60 289.00 239.03 319.99 238.94 350.96 C 230.64 351.10 222.34 350.90 214.05 350.99 C 213.95 234.36 214.17 117.72 213.96 1.08 Z" />
</g>
<g id="#2878bbff">
<path fill="#2878bb" opacity="1.00" d=" M 239.94 0.84 C 244.61 0.75 249.29 0.66 253.97 0.65 C 254.05 35.76 254.11 70.86 254.00 105.96 C 254.33 120.01 253.69 134.07 254.27 148.11 C 254.95 148.50 255.62 148.89 256.31 149.28 C 251.12 158.12 246.57 167.34 242.81 176.89 C 241.84 177.04 240.86 177.19 239.90 177.36 C 239.90 118.52 239.79 59.68 239.94 0.84 Z" />
<path fill="#2878bb" opacity="1.00" d=" M 413.70 244.05 C 414.52 253.01 413.50 262.00 414.00 270.97 C 414.06 297.74 413.62 324.51 414.06 351.28 C 410.49 351.26 406.92 351.37 403.36 351.53 C 398.55 351.23 393.73 351.30 388.93 350.96 C 389.24 342.31 389.25 333.65 388.92 325.01 C 388.58 314.35 389.26 303.69 389.21 293.03 C 389.24 290.13 388.64 287.28 387.92 284.49 C 398.11 274.93 405.47 262.66 410.04 249.52 C 412.86 249.39 412.69 245.95 413.70 244.05 Z" />
<path fill="#2878bb" opacity="1.00" d=" M 239.15 258.04 C 240.52 260.00 241.23 263.04 243.99 263.42 C 247.47 269.61 251.52 275.52 256.44 280.67 C 255.68 281.05 254.92 281.44 254.17 281.83 C 253.67 304.91 254.26 328.02 254.04 351.12 C 249.01 351.08 243.97 350.96 238.94 350.96 C 239.03 319.99 238.60 289.00 239.15 258.04 Z" />
</g>
<g id="#3280c1ff">
<path fill="#3280c1" opacity="1.00" d=" M 253.97 0.65 C 259.64 0.59 265.31 0.40 270.98 0.51 C 271.28 39.66 271.05 78.82 271.09 117.98 C 271.10 120.25 271.65 122.47 272.24 124.65 C 266.80 132.78 261.22 140.82 256.31 149.28 C 255.62 148.89 254.95 148.50 254.27 148.11 C 253.69 134.07 254.33 120.01 254.00 105.96 C 254.11 70.86 254.05 35.76 253.97 0.65 Z" />
<path fill="#3280c1" opacity="1.00" d=" M 254.17 281.83 C 254.92 281.44 255.68 281.05 256.44 280.67 C 261.05 285.55 266.19 289.93 271.83 293.58 C 271.40 296.38 271.06 299.21 271.05 302.05 C 271.12 318.48 271.20 334.91 271.06 351.35 C 265.38 351.43 259.71 351.24 254.04 351.12 C 254.26 328.02 253.67 304.91 254.17 281.83 Z" />
</g>
<g id="#3c8ac8ff">
<path fill="#3c8ac8" opacity="1.00" d=" M 270.98 0.51 C 272.41 0.53 273.86 0.54 275.30 0.52 C 284.79 1.71 294.36 0.55 303.88 0.87 C 303.84 23.27 303.95 45.67 303.81 68.07 C 303.74 70.67 304.42 73.20 305.22 75.65 C 294.23 91.99 283.28 108.35 272.24 124.65 C 271.65 122.47 271.10 120.25 271.09 117.98 C 271.05 78.82 271.28 39.66 270.98 0.51 Z" />
</g>
<g id="#4094cfff">
<path fill="#4094cf" opacity="1.00" d=" M 303.88 0.87 C 317.60 0.67 331.31 0.66 345.02 0.88 C 345.13 11.58 344.92 22.29 345.12 32.99 C 345.22 36.15 344.78 39.30 344.08 42.38 C 340.38 39.76 336.74 37.04 333.01 34.46 C 323.67 48.14 314.53 61.95 305.22 75.65 C 304.42 73.20 303.74 70.67 303.81 68.07 C 303.95 45.67 303.84 23.27 303.88 0.87 Z" />
</g>
<g id="#3d8dcbff">
<path fill="#3d8dcb" opacity="1.00" d=" M 345.02 0.88 C 352.37 0.84 359.71 1.10 367.06 1.07 C 367.25 13.73 366.99 26.40 367.11 39.06 C 367.07 44.78 367.41 50.51 366.81 56.21 C 366.08 56.55 365.35 56.89 364.62 57.22 C 357.75 52.31 350.93 47.32 344.08 42.38 C 344.78 39.30 345.22 36.15 345.12 32.99 C 344.92 22.29 345.13 11.58 345.02 0.88 Z" />
<path fill="#3d8dcb" opacity="1.00" d=" M 366.59 73.08 C 367.63 81.36 366.87 89.74 367.13 98.07 C 366.80 110.50 367.54 122.94 366.83 135.35 C 365.04 135.56 363.27 135.80 361.48 135.93 C 348.33 131.93 334.00 130.89 320.66 134.59 C 334.29 115.63 347.57 96.41 361.20 77.44 C 363.72 77.15 364.99 74.72 366.59 73.08 Z" />
</g>
<g id="#3582c2ff">
<path fill="#3582c2" opacity="1.00" d=" M 367.06 1.07 C 376.36 0.80 385.66 1.33 394.95 0.93 C 394.71 52.33 395.02 103.74 394.77 155.14 C 394.01 155.53 393.26 155.93 392.51 156.32 C 384.13 147.02 373.40 139.83 361.48 135.93 C 363.27 135.80 365.04 135.56 366.83 135.35 C 367.54 122.94 366.80 110.50 367.13 98.07 C 366.87 89.74 367.63 81.36 366.59 73.08 C 364.99 74.72 363.72 77.15 361.20 77.44 C 364.69 72.40 368.26 67.42 371.78 62.40 C 369.40 60.66 367.02 58.93 364.62 57.22 C 365.35 56.89 366.08 56.55 366.81 56.21 C 367.41 50.51 367.07 44.78 367.11 39.06 C 366.99 26.40 367.25 13.73 367.06 1.07 Z" />
</g>
<g id="#2677baff">
<path fill="#2677ba" opacity="1.00" d=" M 394.95 0.93 C 397.75 0.81 400.55 0.69 403.34 0.42 C 406.60 0.59 409.85 0.72 413.12 0.70 C 413.20 59.13 413.09 117.55 413.18 175.97 C 413.27 180.24 413.24 184.52 412.87 188.77 C 412.27 187.90 411.67 187.03 411.07 186.17 C 410.93 186.67 410.65 187.69 410.51 188.20 C 406.68 176.54 400.83 165.41 392.51 156.32 C 393.26 155.93 394.01 155.53 394.77 155.14 C 395.02 103.74 394.71 52.33 394.95 0.93 Z" />
</g>
<g id="#1d6bb0ff">
<path fill="#1d6bb0" opacity="1.00" d=" M 413.12 0.70 C 424.71 0.56 436.30 1.22 447.90 1.12 C 447.77 117.70 447.80 234.29 447.88 350.88 C 436.60 350.70 425.33 351.44 414.06 351.28 C 413.62 324.51 414.06 297.74 414.00 270.97 C 413.50 262.00 414.52 253.01 413.70 244.05 C 412.69 245.95 412.86 249.39 410.04 249.52 C 416.42 229.77 416.63 208.04 410.51 188.20 C 410.65 187.69 410.93 186.67 411.07 186.17 C 411.67 187.03 412.27 187.90 412.87 188.77 C 413.24 184.52 413.27 180.24 413.18 175.97 C 413.09 117.55 413.20 59.13 413.12 0.70 Z" />
</g>
<g id="#1c5ca4ff">
<path fill="#1c5ca4" opacity="1.00" d=" M 447.90 1.12 C 456.55 0.75 465.21 1.29 473.85 0.91 C 473.99 23.28 473.86 45.63 473.85 68.00 C 474.31 81.34 473.42 94.68 474.17 108.02 C 473.42 134.02 474.29 160.04 473.83 186.04 C 474.00 217.04 474.36 248.06 473.83 279.07 C 473.87 303.08 473.96 327.08 473.88 351.10 C 465.22 350.71 456.54 351.27 447.88 350.88 C 447.80 234.29 447.77 117.70 447.90 1.12 Z" />
</g>
<g id="#0e4d9aff">
<path fill="#0e4d9a" opacity="1.00" d=" M 473.85 0.91 C 475.40 0.66 476.96 0.41 478.52 0.14 C 489.48 1.38 498.44 10.70 500.00 21.51 L 500.00 330.04 C 498.72 341.30 489.12 351.17 477.67 351.86 C 476.40 351.61 475.14 351.35 473.88 351.10 C 473.96 327.08 473.87 303.08 473.83 279.07 C 474.36 248.06 474.00 217.04 473.83 186.04 C 474.29 160.04 473.42 134.02 474.17 108.02 C 473.42 94.68 474.31 81.34 473.85 68.00 C 473.86 45.63 473.99 23.28 473.85 0.91 Z" />
</g>
<g id="#9e9a9eff">
<path fill="#9e9a9e" opacity="1.00" d=" M 126.00 4.19 C 127.80 5.30 129.48 6.60 130.87 8.20 C 112.71 9.29 94.50 8.01 76.32 8.80 C 76.32 7.68 76.31 6.56 76.32 5.44 C 89.20 5.58 102.08 5.43 114.97 5.52 C 118.68 5.54 122.56 5.92 126.00 4.19 Z" />
</g>
<g id="#a29d9fff">
<path fill="#a29d9f" opacity="1.00" d=" M 0.20 14.00 C 7.30 13.70 14.39 14.16 21.49 14.02 C 21.49 14.80 21.50 16.37 21.50 17.16 C 14.40 17.30 7.30 17.27 0.20 17.16 C 0.20 16.37 0.20 14.79 0.20 14.00 Z" />
<path fill="#a29d9f" opacity="1.00" d=" M 41.54 14.04 C 48.22 14.34 54.92 13.57 61.59 14.18 C 61.78 14.90 62.16 16.35 62.35 17.08 C 55.41 17.33 48.47 17.31 41.53 17.08 C 41.53 16.32 41.53 14.80 41.54 14.04 Z" />
</g>
<g id="#aaa5a7ff">
<path fill="#aaa5a7" opacity="1.00" d=" M 76.31 15.27 C 83.19 14.92 90.09 14.59 96.98 14.83 C 109.28 15.32 121.60 15.08 133.88 14.69 L 134.68 14.92 C 135.43 16.29 135.81 17.81 136.25 19.30 C 128.59 19.82 120.91 19.15 113.27 19.83 C 109.13 15.77 102.89 16.89 97.64 16.75 C 97.64 17.29 97.64 18.37 97.63 18.91 C 90.53 19.04 83.42 19.11 76.31 19.05 C 76.31 17.79 76.31 16.53 76.31 15.27 Z" />
</g>
<g id="#b1adaeff">
<path fill="#b1adae" opacity="1.00" d=" M 0.20 17.16 C 7.30 17.27 14.40 17.30 21.50 17.16 C 21.49 18.84 21.50 20.52 21.50 22.20 C 14.40 22.40 7.30 22.40 0.20 22.23 C 0.20 20.54 0.20 18.85 0.20 17.16 Z" />
<path fill="#b1adae" opacity="1.00" d=" M 41.53 17.08 C 48.47 17.31 55.41 17.33 62.35 17.08 C 62.47 17.61 62.72 18.68 62.84 19.21 C 62.90 21.94 62.84 24.67 62.83 27.40 L 62.73 26.61 C 62.49 25.18 62.08 23.79 61.70 22.39 C 54.98 22.20 48.25 22.45 41.53 22.21 C 41.53 20.50 41.54 18.79 41.53 17.08 Z" />
</g>
<g id="#b5b0b1ff">
<path fill="#b5b0b1" opacity="1.00" d=" M 76.31 19.05 C 83.42 19.11 90.53 19.04 97.63 18.91 C 97.63 19.78 97.62 21.52 97.62 22.39 C 90.53 22.70 83.42 22.66 76.33 22.40 C 76.33 21.57 76.31 19.89 76.31 19.05 Z" />
</g>
<g id="#c0bbbcff">
<path fill="#c0bbbc" opacity="1.00" d=" M 113.27 19.83 C 120.91 19.15 128.59 19.82 136.25 19.30 C 136.77 22.07 137.21 24.86 137.57 27.66 C 130.41 27.90 123.02 26.52 116.07 28.71 C 115.70 25.61 114.99 22.49 113.27 19.83 Z" />
</g>
<g id="#c7c2c2ff">
<path fill="#c7c2c2" opacity="1.00" d=" M 0.20 22.23 C 7.30 22.40 14.40 22.40 21.50 22.20 C 21.49 24.18 21.50 26.16 21.49 28.14 C 14.39 28.37 7.29 28.34 0.20 28.19 C 0.20 26.20 0.21 24.22 0.20 22.23 Z" />
<path fill="#c7c2c2" opacity="1.00" d=" M 41.53 22.21 C 48.25 22.45 54.98 22.20 61.70 22.39 C 62.08 23.79 62.49 25.18 62.73 26.61 L 62.80 28.00 C 55.72 28.53 48.63 28.28 41.54 28.21 C 41.53 26.21 41.54 24.21 41.53 22.21 Z" />
</g>
<g id="#cdc9c8ff">
<path fill="#cdc9c8" opacity="1.00" d=" M 76.33 22.40 C 83.42 22.66 90.53 22.70 97.62 22.39 C 97.61 25.80 97.66 29.22 97.64 32.63 C 90.53 32.37 83.41 32.42 76.30 32.58 C 76.28 29.19 76.33 25.80 76.33 22.40 Z" />
</g>
<g id="#9c979bff">
<path fill="#9c979b" opacity="1.00" d=" M 62.73 26.61 L 62.83 27.40 C 62.83 40.44 62.92 53.48 62.83 66.52 L 62.67 67.31 C 62.63 65.98 62.53 64.66 62.38 63.34 C 62.18 62.01 61.96 60.68 61.73 59.35 C 55.00 59.20 48.26 59.43 41.53 59.17 C 41.52 56.87 41.53 54.57 41.54 52.27 C 48.32 52.26 55.11 52.75 61.86 51.99 C 62.10 50.71 62.31 49.42 62.48 48.13 C 62.54 47.29 62.66 45.60 62.71 44.76 C 62.77 42.91 62.79 41.05 62.82 39.20 C 62.83 37.43 62.82 35.67 62.82 33.90 C 62.81 31.93 62.82 29.97 62.80 28.00 L 62.73 26.61 Z" />
<path fill="#9c979b" opacity="1.00" d=" M 0.20 52.28 C 7.29 52.40 14.40 52.45 21.50 52.24 C 21.49 54.55 21.50 56.85 21.50 59.16 C 14.40 59.43 7.30 59.37 0.20 59.19 C 0.20 56.88 0.19 54.58 0.20 52.28 Z" />
<path fill="#9c979b" opacity="1.00" d=" M 76.31 52.34 C 83.42 52.34 90.52 52.43 97.63 52.28 C 97.64 54.63 97.63 56.97 97.63 59.32 C 90.53 59.60 83.42 59.58 76.32 59.32 C 76.31 56.99 76.30 54.67 76.31 52.34 Z" />
<path fill="#9c979b" opacity="1.00" d=" M 115.37 52.14 C 122.50 52.57 129.64 52.28 136.77 52.42 C 136.47 54.90 135.82 57.32 135.11 59.71 L 135.04 59.70 C 127.21 59.00 119.30 60.26 111.54 58.73 C 113.45 56.97 114.74 54.66 115.37 52.14 Z" />
</g>
<g id="#dad6d4ff">
<path fill="#dad6d4" opacity="1.00" d=" M 0.20 28.19 C 7.29 28.34 14.39 28.37 21.49 28.14 C 21.49 28.51 21.48 29.23 21.48 29.60 C 28.17 29.59 34.86 29.59 41.54 29.59 C 41.54 29.25 41.54 28.56 41.54 28.21 C 48.63 28.28 55.72 28.53 62.80 28.00 C 62.82 29.97 62.81 31.93 62.82 33.90 C 41.95 33.82 21.07 33.87 0.20 33.87 C 0.20 31.98 0.20 30.08 0.20 28.19 Z" />
</g>
<g id="#d7d3d1ff">
<path fill="#d7d3d1" opacity="1.00" d=" M 116.07 28.71 C 123.02 26.52 130.41 27.90 137.57 27.66 C 137.59 28.31 137.64 29.62 137.66 30.27 C 136.65 31.23 135.62 32.39 134.07 32.24 C 128.17 32.50 122.26 32.15 116.36 32.35 C 116.29 31.14 116.19 29.92 116.07 28.71 Z" />
</g>
<g id="#e5e1deff">
<path fill="#e5e1de" opacity="1.00" d=" M 137.66 30.27 C 137.89 34.86 137.89 39.47 137.68 44.06 C 137.35 42.83 137.00 41.60 136.63 40.38 C 129.90 40.26 123.18 40.52 116.46 40.25 C 116.48 37.62 116.47 34.98 116.36 32.35 C 122.26 32.15 128.17 32.50 134.07 32.24 C 135.62 32.39 136.65 31.23 137.66 30.27 Z" />
<path fill="#e5e1de" opacity="1.00" d=" M 76.30 32.58 C 83.41 32.42 90.53 32.37 97.64 32.63 C 97.64 34.77 97.63 36.91 97.63 39.05 C 90.53 38.90 83.42 38.88 76.31 38.97 C 76.31 36.84 76.31 34.71 76.30 32.58 Z" />
<path fill="#e5e1de" opacity="1.00" d=" M 0.20 33.87 C 21.07 33.87 41.95 33.82 62.82 33.90 C 62.82 35.67 62.83 37.43 62.82 39.20 C 41.95 39.29 21.07 39.29 0.20 39.19 C 0.20 37.42 0.19 35.64 0.20 33.87 Z" />
</g>
<g id="#ffffffff">
<path fill="#ffffff" opacity="1.00" d=" M 305.22 75.65 C 314.53 61.95 323.67 48.14 333.01 34.46 C 336.74 37.04 340.38 39.76 344.08 42.38 C 350.93 47.32 357.75 52.31 364.62 57.22 C 367.02 58.93 369.40 60.66 371.78 62.40 C 368.26 67.42 364.69 72.40 361.20 77.44 C 347.57 96.41 334.29 115.63 320.66 134.59 C 334.00 130.89 348.33 131.93 361.48 135.93 C 373.40 139.83 384.13 147.02 392.51 156.32 C 400.83 165.41 406.68 176.54 410.51 188.20 C 416.63 208.04 416.42 229.77 410.04 249.52 C 405.47 262.66 398.11 274.93 387.92 284.49 C 378.63 293.24 367.40 299.92 355.23 303.79 C 338.99 309.04 321.42 309.90 304.67 306.71 C 293.02 304.47 281.82 299.98 271.83 293.58 C 266.19 289.93 261.05 285.55 256.44 280.67 C 251.52 275.52 247.47 269.61 243.99 263.42 C 239.83 255.49 236.86 246.93 235.29 238.12 C 231.45 217.52 235.22 196.20 242.81 176.89 C 246.57 167.34 251.12 158.12 256.31 149.28 C 261.22 140.82 266.80 132.78 272.24 124.65 C 283.28 108.35 294.23 91.99 305.22 75.65 M 305.25 179.09 C 290.08 189.33 282.82 209.00 285.32 226.82 C 287.14 239.14 293.16 251.34 303.40 258.75 L 303.37 258.98 C 315.45 267.97 333.26 267.50 344.88 257.95 C 356.25 248.54 362.19 233.63 362.18 219.05 C 361.83 204.78 356.00 190.24 344.82 181.05 C 333.82 171.92 317.13 171.23 305.25 179.09 Z" />
</g>
<g id="#d5d0cfff">
<path fill="#d5d0cf" opacity="1.00" d=" M 0.20 39.19 C 21.07 39.29 41.95 39.29 62.82 39.20 C 62.79 41.05 62.77 42.91 62.71 44.76 C 41.88 44.37 21.04 44.53 0.20 44.69 C 0.21 42.85 0.19 41.02 0.20 39.19 Z" />
</g>
<g id="#d9d4d3ff">
<path fill="#d9d4d3" opacity="1.00" d=" M 76.31 38.97 C 83.42 38.88 90.53 38.90 97.63 39.05 C 97.63 40.32 97.63 41.60 97.63 42.87 C 90.52 42.88 83.42 42.71 76.31 42.83 C 76.31 41.55 76.31 40.26 76.31 38.97 Z" />
</g>
<g id="#ccc8c8ff">
<path fill="#ccc8c8" opacity="1.00" d=" M 116.46 40.25 C 123.18 40.52 129.90 40.26 136.63 40.38 C 137.00 41.60 137.35 42.83 137.68 44.06 C 137.66 44.73 137.62 46.06 137.60 46.72 C 130.47 46.57 123.34 46.66 116.21 46.61 C 116.37 44.49 116.43 42.37 116.46 40.25 Z" />
</g>
<g id="#c4c0c0ff">
<path fill="#c4c0c0" opacity="1.00" d=" M 76.31 42.83 C 83.42 42.71 90.52 42.88 97.63 42.87 C 97.63 44.53 97.63 46.18 97.63 47.84 C 90.53 47.65 83.42 47.70 76.32 47.84 C 76.31 46.17 76.31 44.50 76.31 42.83 Z" />
</g>
<g id="#c0bcbdff">
<path fill="#c0bcbd" opacity="1.00" d=" M 0.20 44.69 C 21.04 44.53 41.88 44.37 62.71 44.76 C 62.66 45.60 62.54 47.29 62.48 48.13 C 55.49 48.06 48.49 48.04 41.51 47.74 C 41.49 47.47 41.47 46.93 41.45 46.66 C 34.80 46.69 28.16 46.68 21.51 46.66 C 21.51 46.98 21.50 47.61 21.50 47.92 C 14.40 47.91 7.30 47.87 0.20 47.93 C 0.20 47.12 0.20 45.50 0.20 44.69 Z" />
</g>
<g id="#b4b0b2ff">
<path fill="#b4b0b2" opacity="1.00" d=" M 115.37 52.14 C 115.72 50.31 116.02 48.46 116.21 46.61 C 123.34 46.66 130.47 46.57 137.60 46.72 C 137.37 48.62 137.18 50.52 136.99 52.42 L 136.77 52.42 C 129.64 52.28 122.50 52.57 115.37 52.14 Z" />
<path fill="#b4b0b2" opacity="1.00" d=" M 0.20 47.93 C 7.30 47.87 14.40 47.91 21.50 47.92 C 21.50 49.36 21.50 50.80 21.50 52.24 C 14.40 52.45 7.29 52.40 0.20 52.28 C 0.20 50.83 0.20 49.38 0.20 47.93 Z" />
<path fill="#b4b0b2" opacity="1.00" d=" M 41.51 47.74 C 48.49 48.04 55.49 48.06 62.48 48.13 C 62.31 49.42 62.10 50.71 61.86 51.99 C 55.11 52.75 48.32 52.26 41.54 52.27 C 41.56 50.76 41.55 49.25 41.51 47.74 Z" />
<path fill="#b4b0b2" opacity="1.00" d=" M 76.32 47.84 C 83.42 47.70 90.53 47.65 97.63 47.84 C 97.63 49.32 97.63 50.80 97.63 52.28 C 90.52 52.43 83.42 52.34 76.31 52.34 C 76.31 50.84 76.32 49.34 76.32 47.84 Z" />
</g>
<g id="#aea9acff">
<path fill="#aea9ac" opacity="1.00" d=" M 0.20 59.19 C 7.30 59.37 14.40 59.43 21.50 59.16 C 21.49 60.53 21.49 61.90 21.49 63.27 C 14.40 63.57 7.30 63.54 0.21 63.26 C 0.20 61.90 0.20 60.54 0.20 59.19 Z" />
<path fill="#aea9ac" opacity="1.00" d=" M 41.53 59.17 C 48.26 59.43 55.00 59.20 61.73 59.35 C 61.96 60.68 62.18 62.01 62.38 63.34 C 55.44 63.67 48.48 63.68 41.54 63.34 C 41.54 61.95 41.54 60.56 41.53 59.17 Z" />
</g>
<g id="#b2aeb0ff">
<path fill="#b2aeb0" opacity="1.00" d=" M 76.32 59.32 C 83.42 59.58 90.53 59.60 97.63 59.32 C 97.63 59.59 97.63 60.14 97.63 60.41 C 102.29 60.34 107.23 60.90 111.54 58.73 C 119.30 60.26 127.21 59.00 135.04 59.70 C 134.26 61.66 133.41 63.59 132.41 65.43 C 113.71 65.24 95.01 65.50 76.31 65.28 C 76.31 63.30 76.32 61.31 76.32 59.32 Z" />
</g>
<g id="#c3bfc0ff">
<path fill="#c3bfc0" opacity="1.00" d=" M 0.21 63.26 C 7.30 63.54 14.40 63.57 21.49 63.27 C 21.49 65.28 21.50 67.29 21.49 69.29 C 14.40 69.54 7.30 69.53 0.21 69.31 C 0.20 67.29 0.21 65.28 0.21 63.26 Z" />
</g>
<g id="#c7c3c3ff">
<path fill="#c7c3c3" opacity="1.00" d=" M 41.54 63.34 C 48.48 63.68 55.44 63.67 62.38 63.34 C 62.53 64.66 62.63 65.98 62.67 67.31 C 62.35 68.72 61.91 70.11 61.50 71.50 C 54.84 71.58 48.18 71.32 41.52 71.65 C 41.52 68.88 41.54 66.11 41.54 63.34 Z" />
</g>
<g id="#ccc7c7ff">
<path fill="#ccc7c7" opacity="1.00" d=" M 76.31 65.28 C 95.01 65.50 113.71 65.24 132.41 65.43 C 130.29 68.22 127.93 71.04 124.72 72.59 C 121.85 72.06 118.96 71.48 116.03 71.57 C 102.79 71.77 89.54 71.53 76.30 71.68 C 76.30 69.55 76.32 67.41 76.31 65.28 Z" />
</g>
<g id="#e1dddbff">
<path fill="#e1dddb" opacity="1.00" d=" M 62.67 67.31 L 62.83 66.52 C 62.77 69.95 62.83 73.38 62.87 76.80 C 55.76 76.84 48.64 76.81 41.53 76.82 C 41.52 75.10 41.53 73.37 41.52 71.65 C 48.18 71.32 54.84 71.58 61.50 71.50 C 61.91 70.11 62.35 68.72 62.67 67.31 Z" />
<path fill="#e1dddb" opacity="1.00" d=" M 76.30 71.68 C 89.54 71.53 102.79 71.77 116.03 71.57 C 118.96 71.48 121.85 72.06 124.72 72.59 C 118.77 75.95 111.78 76.68 105.06 76.81 C 95.48 76.85 85.90 76.79 76.32 76.83 C 76.32 75.11 76.31 73.40 76.30 71.68 Z" />
</g>
<g id="#dedad8ff">
<path fill="#dedad8" opacity="1.00" d=" M 0.21 69.31 C 7.30 69.53 14.40 69.54 21.49 69.29 C 21.49 71.81 21.50 74.32 21.50 76.83 C 14.39 76.82 7.29 76.84 0.18 76.82 C 0.19 74.32 0.21 71.82 0.21 69.31 Z" />
</g>
<g id="#4094d0ff">
<path fill="#4094d0" opacity="1.00" d=" M 305.25 179.09 C 317.13 171.23 333.82 171.92 344.82 181.05 C 345.33 184.03 345.90 187.00 345.99 190.03 C 345.97 209.69 345.88 229.35 346.02 249.01 C 345.94 252.02 345.39 254.99 344.88 257.95 C 333.26 267.50 315.45 267.97 303.37 258.98 L 303.40 258.75 C 304.30 253.54 304.03 248.25 303.96 242.99 C 304.10 224.66 303.94 206.33 303.93 188.00 C 304.00 184.98 304.64 182.03 305.25 179.09 Z" />
</g>
<g id="#3d8ecbff">
<path fill="#3d8ecb" opacity="1.00" d=" M 285.32 226.82 C 282.82 209.00 290.08 189.33 305.25 179.09 C 304.64 182.03 304.00 184.98 303.93 188.00 C 303.94 206.33 304.10 224.66 303.96 242.99 C 304.03 248.25 304.30 253.54 303.40 258.75 C 293.16 251.34 287.14 239.14 285.32 226.82 Z" />
<path fill="#3d8ecb" opacity="1.00" d=" M 345.99 190.03 C 345.90 187.00 345.33 184.03 344.82 181.05 C 356.00 190.24 361.83 204.78 362.18 219.05 C 362.19 233.63 356.25 248.54 344.88 257.95 C 345.39 254.99 345.94 252.02 346.02 249.01 C 345.88 229.35 345.97 209.69 345.99 190.03 Z" />
</g>
<g id="#3985c5ff">
<path fill="#3985c5" opacity="1.00" d=" M 355.23 303.79 C 367.40 299.92 378.63 293.24 387.92 284.49 C 388.64 287.28 389.24 290.13 389.21 293.03 C 389.26 303.69 388.58 314.35 388.92 325.01 C 389.25 333.65 389.24 342.31 388.93 350.96 C 378.32 350.63 367.71 351.29 357.10 350.93 C 357.04 337.27 357.08 323.61 357.18 309.95 C 357.38 307.68 356.45 305.63 355.23 303.79 Z" />
</g>
<g id="#3c8ac9ff">
<path fill="#3c8ac9" opacity="1.00" d=" M 271.83 293.58 C 281.82 299.98 293.02 304.47 304.67 306.71 C 304.14 309.78 303.77 312.89 303.82 316.01 C 303.96 327.72 303.86 339.42 303.92 351.13 C 294.41 351.41 284.86 350.37 275.38 351.37 C 273.93 351.34 272.49 351.33 271.06 351.35 C 271.20 334.91 271.12 318.48 271.05 302.05 C 271.06 299.21 271.40 296.38 271.83 293.58 Z" />
</g>
<g id="#4093cfff">
<path fill="#4093cf" opacity="1.00" d=" M 304.67 306.71 C 321.42 309.90 338.99 309.04 355.23 303.79 C 356.45 305.63 357.38 307.68 357.18 309.95 C 357.08 323.61 357.04 337.27 357.10 350.93 C 339.38 351.17 321.65 351.50 303.92 351.13 C 303.86 339.42 303.96 327.72 303.82 316.01 C 303.77 312.89 304.14 309.78 304.67 306.71 Z" />
</g>
<g id="#246dabed">
<path fill="#246dab" opacity="0.93" d=" M 209.65 351.27 C 211.11 351.14 212.58 351.04 214.05 350.99 C 222.34 350.90 230.64 351.10 238.94 350.96 C 243.97 350.96 249.01 351.08 254.04 351.12 C 259.71 351.24 265.38 351.43 271.06 351.35 C 272.49 351.33 273.93 351.34 275.38 351.37 L 276.72 352.00 L 208.57 352.00 L 209.65 351.27 Z" />
</g>
</svg>
