<?xml version="1.0" encoding="UTF-8" standalone="yes"?>
<svg xmlns="http://www.w3.org/2000/svg" xmlns:xlink="http://www.w3.org/1999/xlink" width="394.66666666666663px" height="106.66666666666666px" viewBox="0 0 296 80" version="1.1">
  <defs>
    <linearGradient id="linear0" gradientUnits="userSpaceOnUse" x1="0" y1="841.89008" x2="1" y2="841.89008" gradientTransform="matrix(237.497257,-137.382631,-137.11903,-237.953828,115468.268555,200439.493228)">
      <stop offset="0" style="stop-color:rgb(94.509804%,65.882353%,6.666667%);stop-opacity:1;"/>
      <stop offset="0.118" style="stop-color:rgb(94.509804%,65.882353%,6.666667%);stop-opacity:1;"/>
      <stop offset="0.1709" style="stop-color:rgb(95.294118%,69.411765%,12.941176%);stop-opacity:1;"/>
      <stop offset="0.374" style="stop-color:rgb(97.647059%,81.176471%,34.901961%);stop-opacity:1;"/>
      <stop offset="0.4719" style="stop-color:rgb(98.431373%,85.882353%,43.529412%);stop-opacity:1;"/>
      <stop offset="0.5422" style="stop-color:rgb(97.647059%,82.352941%,37.254902%);stop-opacity:1;"/>
      <stop offset="0.6794" style="stop-color:rgb(96.078431%,73.333333%,20.392157%);stop-opacity:1;"/>
      <stop offset="0.7809" style="stop-color:rgb(94.509804%,65.882353%,6.666667%);stop-opacity:1;"/>
      <stop offset="1" style="stop-color:rgb(94.509804%,65.882353%,6.666667%);stop-opacity:1;"/>
    </linearGradient>
  </defs>
  <g id="surface1">
    <path style=" stroke:none;fill-rule:nonzero;fill:url(#linear0);" d="M 165.3125 0 C 91.285156 0 27.679688 23.84375 0 57.925781 C 36.453125 24.457031 104.363281 1.957031 182.132812 1.957031 C 191.269531 1.957031 200.253906 2.257812 209.082031 2.863281 C 195.070312 0.988281 180.410156 0 165.3125 0 Z M 295.996094 22.0625 C 259.546875 55.542969 191.632812 78.042969 113.855469 78.042969 C 104.738281 78.042969 95.742188 77.742188 86.914062 77.144531 C 100.925781 79.003906 115.585938 80 130.683594 80 C 204.714844 80 268.328125 56.15625 295.996094 22.0625 Z M 69.289062 30.585938 L 58.675781 53.515625 L 67.558594 53.515625 L 68.710938 50.480469 L 74.375 50.480469 L 74.636719 53.515625 L 82.816406 53.515625 L 79.589844 30.585938 Z M 86.984375 30.585938 L 84.082031 53.515625 L 92.269531 53.515625 L 93.519531 41.582031 L 99.179688 53.515625 L 107.382812 53.515625 L 110.222656 30.585938 L 102.082031 30.585938 L 100.792969 42.410156 C 99.238281 38.257812 97.394531 34.316406 95.253906 30.585938 Z M 112.921875 30.585938 L 109.992188 53.515625 L 118.457031 53.515625 L 121.234375 30.585938 Z M 122.0625 30.585938 L 128.109375 41.183594 L 118.941406 53.515625 L 128.339844 53.515625 L 132.203125 47.828125 L 135.351562 53.515625 L 143.984375 53.515625 L 137.28125 41.59375 L 145.679688 30.585938 L 136.242188 30.585938 L 133.390625 35.027344 L 131.039062 30.585938 Z M 147.414062 30.585938 L 144.519531 53.515625 L 159.640625 53.515625 L 160.511719 47.277344 L 153.496094 47.277344 L 153.8125 44.734375 L 159.996094 44.734375 L 160.660156 39.058594 L 154.488281 39.058594 L 154.878906 36.511719 L 161.636719 36.511719 L 162.375 30.585938 Z M 174.734375 30.585938 L 171.910156 53.515625 L 180.339844 53.515625 L 181.296875 45.222656 L 186.386719 45.222656 L 185.355469 53.515625 L 193.816406 53.515625 L 196.613281 30.585938 L 188.152344 30.585938 L 187.238281 38.417969 L 182.195312 38.417969 L 183.101562 30.585938 Z M 198.898438 30.585938 L 195.964844 53.515625 L 206.621094 53.515625 C 210.289062 53.515625 213.289062 52.457031 215.636719 50.328125 C 218.058594 48.132812 219.265625 45.203125 219.265625 41.566406 C 219.265625 37.757812 218.078125 34.9375 215.699219 33.078125 C 213.574219 31.421875 210.566406 30.585938 206.683594 30.585938 Z M 73.410156 37.261719 L 73.96875 45.277344 L 70.691406 45.277344 C 70.871094 44.597656 71.457031 42.917969 72.441406 40.257812 C 72.867188 39.101562 73.1875 38.097656 73.410156 37.261719 Z M 206.265625 37.351562 L 207.074219 37.351562 C 208.246094 37.351562 209.207031 37.777344 209.933594 38.613281 C 210.664062 39.449219 211.019531 40.464844 211.019531 41.648438 C 211.019531 43.320312 210.429688 44.636719 209.222656 45.582031 C 208.148438 46.417969 206.765625 46.835938 205.035156 46.835938 Z M 206.265625 37.351562 "/>
  </g>
</svg>