<?xml version="1.0" encoding="UTF-8" ?>
<!DOCTYPE svg PUBLIC "-//W3C//DTD SVG 1.1//EN" "http://www.w3.org/Graphics/SVG/1.1/DTD/svg11.dtd">
<svg width="150pt" height="70pt" viewBox="0 0 150 70" version="1.1" xmlns="http://www.w3.org/2000/svg">
<g id="#a91b16ff">
<path fill="#a91b16" opacity="1.00" d=" M 49.55 4.54 C 50.99 3.83 52.70 2.35 54.25 3.68 C 63.61 9.07 72.86 14.67 82.24 20.02 C 82.31 29.88 82.18 39.75 82.31 49.61 C 72.58 55.60 62.54 61.07 52.77 66.99 C 42.84 61.49 33.18 55.52 23.32 49.91 C 23.25 39.91 23.32 29.90 23.28 19.89 C 32.04 14.77 40.82 9.70 49.55 4.54 M 45.57 25.13 C 45.59 28.18 45.62 31.23 45.62 34.28 C 47.72 34.24 49.82 34.21 51.92 34.19 L 51.88 32.33 C 50.66 31.85 48.78 32.61 47.90 31.39 C 47.75 29.30 47.79 27.21 47.75 25.11 C 47.20 25.12 46.12 25.12 45.57 25.13 M 52.84 25.12 C 52.97 27.57 52.65 30.13 53.50 32.48 C 54.54 34.39 56.99 34.83 58.90 34.05 C 61.93 32.19 60.59 28.11 60.93 25.18 C 60.39 25.16 59.32 25.13 58.78 25.12 C 58.40 27.60 59.97 33.39 55.66 32.14 C 55.17 29.87 55.21 27.54 55.17 25.24 C 54.59 25.21 53.43 25.15 52.84 25.12 M 61.90 24.93 C 62.76 26.54 63.68 28.12 64.60 29.70 C 63.58 31.29 62.58 32.91 61.66 34.57 C 63.48 34.40 64.89 33.42 66.03 32.07 C 67.19 33.04 68.31 35.02 70.11 34.14 C 69.35 32.56 68.42 31.07 67.52 29.56 C 68.42 28.05 69.30 26.54 70.17 25.01 C 68.44 24.90 67.03 25.75 66.00 27.07 C 64.98 25.72 63.67 24.79 61.90 24.93 M 27.37 25.03 C 27.33 28.12 27.32 31.21 27.34 34.30 C 29.62 34.08 32.19 34.62 34.22 33.30 C 36.92 31.31 36.28 26.30 32.95 25.37 C 31.11 25.04 29.23 25.11 27.37 25.03 M 37.21 25.11 C 37.18 28.14 37.18 31.18 37.21 34.22 C 39.32 34.25 41.43 34.27 43.54 34.30 C 43.63 33.84 43.81 32.90 43.90 32.44 C 42.08 32.04 40.27 31.66 38.47 31.19 C 39.90 30.87 41.34 30.59 42.78 30.34 L 42.73 28.76 C 41.70 28.61 39.66 28.33 38.64 28.19 C 40.13 27.22 41.93 27.17 43.64 27.02 L 43.75 25.12 C 41.57 25.12 39.39 25.11 37.21 25.11 M 71.36 25.10 C 71.33 28.15 71.34 31.20 71.36 34.25 C 73.55 34.25 75.74 34.25 77.93 34.25 C 77.92 33.78 77.90 32.85 77.89 32.39 C 76.21 32.08 74.57 31.64 72.91 31.28 C 74.65 30.78 76.77 30.73 77.75 28.92 C 76.11 28.71 74.47 28.46 72.84 28.18 C 74.51 27.14 76.54 27.21 78.42 26.95 C 77.68 23.62 73.67 25.55 71.36 25.10 M 32.98 39.71 C 31.12 38.38 30.45 34.93 27.40 35.15 C 27.28 39.24 27.27 43.33 27.45 47.42 C 31.30 47.60 29.68 43.20 30.07 40.92 C 31.03 42.19 32.02 43.45 33.03 44.68 C 33.95 43.35 34.86 42.01 35.74 40.66 C 36.12 43.17 34.50 47.44 38.48 47.20 C 38.59 43.18 38.62 39.16 38.48 35.15 C 35.52 35.01 34.72 38.17 32.98 39.71 M 52.47 37.47 C 51.02 41.62 56.87 41.77 58.64 44.44 C 56.30 44.07 53.98 43.57 51.66 43.04 C 52.20 47.36 58.76 48.76 60.71 44.87 C 62.11 41.08 57.50 40.02 55.01 38.79 C 55.23 38.50 55.67 37.92 55.89 37.63 C 57.63 38.23 59.36 39.08 61.28 38.71 C 60.03 35.00 54.41 33.86 52.47 37.47 M 40.50 35.50 C 40.54 38.33 40.30 41.20 40.81 44.01 C 41.96 48.17 48.81 48.24 50.15 44.18 C 50.85 41.36 50.50 38.42 50.55 35.54 C 49.84 35.53 48.42 35.51 47.70 35.50 C 47.67 38.15 47.86 40.83 47.46 43.47 C 46.51 44.52 45.35 44.76 43.97 44.19 C 42.88 41.44 43.44 38.39 43.31 35.51 C 42.61 35.51 41.20 35.50 40.50 35.50 M 62.53 35.49 C 62.53 39.28 62.54 43.07 62.55 46.86 C 63.24 46.84 64.62 46.81 65.32 46.79 C 65.32 43.03 65.32 39.26 65.34 35.50 C 64.64 35.50 63.24 35.49 62.53 35.49 M 70.18 35.80 C 65.75 37.67 65.81 44.92 70.32 46.63 C 73.47 48.28 76.99 46.21 78.36 43.25 C 76.20 43.39 74.09 43.82 71.96 44.13 C 70.23 43.87 69.31 41.55 70.01 40.09 C 71.25 36.51 75.69 39.53 78.37 38.38 C 76.44 36.00 73.18 34.22 70.18 35.80 Z" />
<path fill="#a91b16" opacity="1.00" d=" M 85.89 25.18 C 87.68 25.17 89.47 25.17 91.26 25.18 C 91.25 27.95 91.25 30.72 91.26 33.49 C 93.91 33.46 96.57 33.45 99.22 33.40 C 99.20 30.65 99.20 27.90 99.18 25.16 C 100.89 25.18 102.59 25.20 104.29 25.21 C 104.31 32.34 104.27 39.46 104.32 46.58 C 102.61 46.61 100.90 46.64 99.19 46.66 C 99.19 43.91 99.19 41.16 99.18 38.41 C 96.54 38.39 93.90 38.39 91.26 38.39 C 91.25 41.14 91.25 43.89 91.25 46.64 C 89.49 46.65 87.73 46.66 85.97 46.66 C 85.77 39.50 85.88 32.34 85.89 25.18 Z" />
<path fill="#a91b16" opacity="1.00" d=" M 106.41 25.16 C 111.79 25.54 117.97 23.84 122.65 27.29 C 128.24 31.25 128.26 40.75 122.54 44.62 C 117.86 47.93 111.76 46.22 106.43 46.61 C 106.45 39.46 106.41 32.31 106.41 25.16 M 111.55 30.08 C 111.57 34.00 111.56 37.92 111.54 41.84 C 113.82 41.74 116.16 41.95 118.37 41.30 C 121.97 39.52 122.49 34.07 119.53 31.46 C 117.40 29.43 114.19 30.34 111.55 30.08 Z" />
<path fill="#a91b16" opacity="1.00" d=" M 29.54 26.92 C 30.96 27.38 33.27 27.16 33.52 29.10 C 34.03 30.74 32.54 32.06 31.01 32.20 C 28.33 32.19 30.03 28.59 29.54 26.92 Z" />
</g>
<g id="#f8eeedff">
<path fill="#f8eeed" opacity="1.00" d=" M 45.57 25.13 C 46.12 25.12 47.20 25.12 47.75 25.11 C 47.79 27.21 47.75 29.30 47.90 31.39 C 48.78 32.61 50.66 31.85 51.88 32.33 L 51.92 34.19 C 49.82 34.21 47.72 34.24 45.62 34.28 C 45.62 31.23 45.59 28.18 45.57 25.13 Z" />
<path fill="#f8eeed" opacity="1.00" d=" M 52.84 25.12 C 53.43 25.15 54.59 25.21 55.17 25.24 C 55.21 27.54 55.17 29.87 55.66 32.14 C 59.97 33.39 58.40 27.60 58.78 25.12 C 59.32 25.13 60.39 25.16 60.93 25.18 C 60.59 28.11 61.93 32.19 58.90 34.05 C 56.99 34.83 54.54 34.39 53.50 32.48 C 52.65 30.13 52.97 27.57 52.84 25.12 Z" />
<path fill="#f8eeed" opacity="1.00" d=" M 61.90 24.93 C 63.67 24.79 64.98 25.72 66.00 27.07 C 67.03 25.75 68.44 24.90 70.17 25.01 C 69.30 26.54 68.42 28.05 67.52 29.56 C 68.42 31.07 69.35 32.56 70.11 34.14 C 68.31 35.02 67.19 33.04 66.03 32.07 C 64.89 33.42 63.48 34.40 61.66 34.57 C 62.58 32.91 63.58 31.29 64.60 29.70 C 63.68 28.12 62.76 26.54 61.90 24.93 Z" />
<path fill="#f8eeed" opacity="1.00" d=" M 27.37 25.03 C 29.23 25.11 31.11 25.04 32.95 25.37 C 36.28 26.30 36.92 31.31 34.22 33.30 C 32.19 34.62 29.62 34.08 27.34 34.30 C 27.32 31.21 27.33 28.12 27.37 25.03 M 29.54 26.92 C 30.03 28.59 28.33 32.19 31.01 32.20 C 32.54 32.06 34.03 30.74 33.52 29.10 C 33.27 27.16 30.96 27.38 29.54 26.92 Z" />
<path fill="#f8eeed" opacity="1.00" d=" M 37.21 25.11 C 39.39 25.11 41.57 25.12 43.75 25.12 L 43.64 27.02 C 41.93 27.17 40.13 27.22 38.64 28.19 C 39.66 28.33 41.70 28.61 42.73 28.76 L 42.78 30.34 C 41.34 30.59 39.90 30.87 38.47 31.19 C 40.27 31.66 42.08 32.04 43.90 32.44 C 43.81 32.90 43.63 33.84 43.54 34.30 C 41.43 34.27 39.32 34.25 37.21 34.22 C 37.18 31.18 37.18 28.14 37.21 25.11 Z" />
<path fill="#f8eeed" opacity="1.00" d=" M 71.36 25.10 C 73.67 25.55 77.68 23.62 78.42 26.95 C 76.54 27.21 74.51 27.14 72.84 28.18 C 74.47 28.46 76.11 28.71 77.75 28.92 C 76.77 30.73 74.65 30.78 72.91 31.28 C 74.57 31.64 76.21 32.08 77.89 32.39 C 77.90 32.85 77.92 33.78 77.93 34.25 C 75.74 34.25 73.55 34.25 71.36 34.25 C 71.34 31.20 71.33 28.15 71.36 25.10 Z" />
<path fill="#f8eeed" opacity="1.00" d=" M 32.98 39.71 C 34.72 38.17 35.52 35.01 38.48 35.15 C 38.62 39.16 38.59 43.18 38.48 47.20 C 34.50 47.44 36.12 43.17 35.74 40.66 C 34.86 42.01 33.95 43.35 33.03 44.68 C 32.02 43.45 31.03 42.19 30.07 40.92 C 29.68 43.20 31.30 47.60 27.45 47.42 C 27.27 43.33 27.28 39.24 27.40 35.15 C 30.45 34.93 31.12 38.38 32.98 39.71 Z" />
<path fill="#f8eeed" opacity="1.00" d=" M 52.47 37.47 C 54.41 33.86 60.03 35.00 61.28 38.71 C 59.36 39.08 57.63 38.23 55.89 37.63 C 55.67 37.92 55.23 38.50 55.01 38.79 C 57.50 40.02 62.11 41.08 60.71 44.87 C 58.76 48.76 52.20 47.36 51.66 43.04 C 53.98 43.57 56.30 44.07 58.64 44.44 C 56.87 41.77 51.02 41.62 52.47 37.47 Z" />
<path fill="#f8eeed" opacity="1.00" d=" M 40.50 35.50 C 41.20 35.50 42.61 35.51 43.31 35.51 C 43.44 38.39 42.88 41.44 43.97 44.19 C 45.35 44.76 46.51 44.52 47.46 43.47 C 47.86 40.83 47.67 38.15 47.70 35.50 C 48.42 35.51 49.84 35.53 50.55 35.54 C 50.50 38.42 50.85 41.36 50.15 44.18 C 48.81 48.24 41.96 48.17 40.81 44.01 C 40.30 41.20 40.54 38.33 40.50 35.50 Z" />
<path fill="#f8eeed" opacity="1.00" d=" M 62.53 35.49 C 63.24 35.49 64.64 35.50 65.34 35.50 C 65.32 39.26 65.32 43.03 65.32 46.79 C 64.62 46.81 63.24 46.84 62.55 46.86 C 62.54 43.07 62.53 39.28 62.53 35.49 Z" />
<path fill="#f8eeed" opacity="1.00" d=" M 70.18 35.80 C 73.18 34.22 76.44 36.00 78.37 38.38 C 75.69 39.53 71.25 36.51 70.01 40.09 C 69.31 41.55 70.23 43.87 71.96 44.13 C 74.09 43.82 76.20 43.39 78.36 43.25 C 76.99 46.21 73.47 48.28 70.32 46.63 C 65.81 44.92 65.75 37.67 70.18 35.80 Z" />
</g>
</svg>
