<?xml version="1.0" encoding="UTF-8" standalone="yes"?>
<svg xmlns="http://www.w3.org/2000/svg" xmlns:xlink="http://www.w3.org/1999/xlink" width="241.33333333333331px" height="106.66666666666666px" viewBox="0 0 181 80" version="1.1">
  <defs>
    <linearGradient id="linear0" gradientUnits="userSpaceOnUse" x1="0" y1="0" x2="1" y2="0" gradientTransform="matrix(-24.776846,50.860876,-50.609384,-24.89997,43.584564,14.066278)">
      <stop offset="0" style="stop-color:rgb(18.039216%,28.627451%,53.333333%);stop-opacity:1;"/>
      <stop offset="1" style="stop-color:rgb(3.921569%,5.098039%,5.882353%);stop-opacity:1;"/>
    </linearGradient>
    <linearGradient id="linear1" gradientUnits="userSpaceOnUse" x1="0" y1="0" x2="1" y2="0" gradientTransform="matrix(-21.481544,46.053932,-45.826209,-21.588292,136.581698,32.284937)">
      <stop offset="0" style="stop-color:rgb(63.137255%,9.019608%,23.137255%);stop-opacity:1;"/>
      <stop offset="0.775017" style="stop-color:rgb(8.627451%,2.745098%,2.745098%);stop-opacity:1;"/>
      <stop offset="1" style="stop-color:rgb(8.627451%,2.745098%,2.745098%);stop-opacity:1;"/>
    </linearGradient>
  </defs>
  <g id="surface1">
    <path style=" stroke:none;fill-rule:nonzero;fill:url(#linear0);" d="M 6.078125 29.476562 L 61.605469 29.476562 L 55.59375 50.988281 L 0 50.988281 L 6.078125 29.476562 "/>
    <path style=" stroke:none;fill-rule:nonzero;fill:rgb(100%,100%,100%);fill-opacity:1;" d="M 61.605469 29.476562 L 126.316406 29.476562 L 120.230469 50.988281 L 55.59375 50.988281 L 61.605469 29.476562 "/>
    <path style=" stroke:none;fill-rule:nonzero;fill:rgb(100%,100%,100%);fill-opacity:1;" d="M 8.921875 33.300781 L 17.578125 33.300781 L 16.820312 36 L 11.195312 36 L 10.460938 38.640625 L 15.644531 38.640625 L 14.886719 41.320312 L 9.695312 41.320312 L 8.804688 44.433594 L 14.429688 44.433594 L 13.683594 47.136719 L 5.027344 47.136719 L 8.921875 33.300781 "/>
    <path style=" stroke:none;fill-rule:nonzero;fill:rgb(100%,100%,100%);fill-opacity:1;" d="M 17.261719 43.828125 C 17.289062 43.601562 17.335938 43.351562 17.394531 43.121094 L 20.164062 33.300781 L 23.195312 33.300781 L 20.542969 42.710938 C 20.476562 42.933594 20.433594 43.140625 20.410156 43.351562 C 20.320312 44.183594 20.707031 44.640625 22.152344 44.640625 C 23.808594 44.640625 24.480469 43.972656 24.804688 42.832031 L 27.5 33.300781 L 30.539062 33.300781 L 27.769531 43.121094 C 27.113281 45.453125 25.753906 47.339844 21.554688 47.339844 C 18.230469 47.339844 17.0625 45.65625 17.261719 43.828125 "/>
    <path style=" stroke:none;fill-rule:nonzero;fill:rgb(100%,100%,100%);fill-opacity:1;" d="M 39.296875 37.574219 C 39.363281 37.34375 39.410156 37.097656 39.417969 36.996094 C 39.492188 36.289062 39.09375 36 38.042969 36 L 35.519531 36 L 34.351562 40.171875 L 36.957031 40.171875 C 38.300781 40.171875 38.699219 39.675781 39 38.613281 Z M 35.679688 42.8125 L 33.589844 42.8125 L 32.390625 47.128906 L 29.351562 47.128906 L 33.246094 33.292969 L 38.515625 33.292969 C 41.46875 33.292969 42.796875 34.417969 42.582031 36.449219 C 42.546875 36.722656 42.480469 36.996094 42.402344 37.304688 L 41.9375 38.96875 C 41.46875 40.691406 40.726562 41.789062 38.949219 42.398438 L 41.046875 47.128906 L 37.632812 47.128906 L 35.679688 42.8125 "/>
    <path style=" stroke:none;fill-rule:nonzero;fill:rgb(100%,100%,100%);fill-opacity:1;" d="M 52.675781 37.160156 C 52.765625 36.308594 52.261719 35.789062 50.796875 35.789062 C 49.230469 35.789062 48.328125 36.472656 48 37.574219 L 46.507812 42.851562 C 46.46875 43.015625 46.433594 43.179688 46.414062 43.332031 C 46.324219 44.15625 46.8125 44.640625 48.300781 44.640625 C 49.875 44.640625 50.761719 44.03125 51.09375 42.851562 L 52.585938 37.574219 C 52.628906 37.433594 52.664062 37.28125 52.675781 37.160156 Z M 43.300781 43.65625 C 43.328125 43.453125 43.367188 43.222656 43.433594 43.015625 L 45.035156 37.304688 C 45.761719 34.734375 47.511719 33.089844 51.394531 33.089844 C 54.664062 33.089844 55.992188 34.957031 55.789062 36.847656 C 55.769531 37.039062 55.722656 37.261719 55.660156 37.472656 L 54.066406 43.121094 C 53.328125 45.757812 51.609375 47.339844 47.539062 47.339844 C 44.296875 47.339844 43.101562 45.53125 43.300781 43.65625 "/>
    <path style=" stroke:none;fill-rule:nonzero;fill:rgb(66.666667%,4.705882%,19.215686%);fill-opacity:1;" d="M 59.960938 46.425781 L 60.871094 44.082031 C 62.152344 44.476562 63.21875 44.761719 64.542969 44.761719 C 66.148438 44.761719 66.558594 44.457031 66.898438 43.25 C 66.984375 42.957031 67.03125 42.710938 67.050781 42.519531 C 67.121094 41.898438 66.726562 41.734375 65.097656 41.296875 C 62.867188 40.710938 62.105469 39.902344 62.277344 38.285156 C 62.324219 37.847656 62.4375 37.351562 62.601562 36.792969 C 63.53125 33.714844 64.425781 33.089844 68.164062 33.089844 C 69.21875 33.089844 70.933594 33.320312 72.113281 33.636719 L 71.304688 36.183594 C 70.121094 35.898438 68.566406 35.707031 67.636719 35.707031 C 66.148438 35.707031 65.839844 35.917969 65.53125 37.015625 C 65.457031 37.332031 65.390625 37.574219 65.371094 37.765625 C 65.300781 38.429688 65.703125 38.53125 67.269531 38.945312 C 69.765625 39.59375 70.382812 40.386719 70.234375 41.796875 C 70.1875 42.234375 70.070312 42.710938 69.910156 43.269531 C 69.109375 46.113281 67.988281 47.339844 64.082031 47.339844 C 62.949219 47.339844 60.980469 46.945312 59.960938 46.425781 "/>
    <path style=" stroke:none;fill-rule:nonzero;fill:rgb(66.666667%,4.705882%,19.215686%);fill-opacity:1;" d="M 81.007812 37.636719 C 81.078125 37.386719 81.117188 37.179688 81.136719 37.039062 C 81.210938 36.328125 80.832031 35.992188 79.902344 35.992188 L 77.339844 35.992188 L 76.136719 40.277344 L 78.640625 40.277344 C 80.046875 40.277344 80.40625 39.777344 80.703125 38.734375 Z M 75.382812 42.914062 L 74.191406 47.128906 L 71.152344 47.128906 L 75.046875 33.292969 L 80.296875 33.292969 C 83.246094 33.292969 84.558594 34.441406 84.339844 36.410156 C 84.3125 36.703125 84.203125 37.140625 84.101562 37.472656 L 83.667969 39.027344 C 82.941406 41.605469 81.75 42.914062 78.113281 42.914062 L 75.382812 42.914062 "/>
    <path style=" stroke:none;fill-rule:nonzero;fill:rgb(66.666667%,4.705882%,19.215686%);fill-opacity:1;" d="M 93.789062 37.160156 C 93.878906 36.308594 93.378906 35.789062 91.910156 35.789062 C 90.34375 35.789062 89.441406 36.472656 89.117188 37.574219 L 87.625 42.851562 C 87.582031 43.015625 87.550781 43.179688 87.527344 43.332031 C 87.441406 44.15625 87.929688 44.640625 89.414062 44.640625 C 90.988281 44.640625 91.878906 44.03125 92.210938 42.851562 L 93.703125 37.574219 C 93.742188 37.433594 93.777344 37.28125 93.789062 37.160156 Z M 84.414062 43.65625 C 84.433594 43.453125 84.480469 43.222656 84.550781 43.015625 L 86.152344 37.304688 C 86.878906 34.734375 88.628906 33.089844 92.507812 33.089844 C 95.773438 33.089844 97.109375 34.957031 96.90625 36.847656 C 96.882812 37.039062 96.835938 37.261719 96.777344 37.472656 L 95.183594 43.121094 C 94.441406 45.757812 92.726562 47.339844 88.65625 47.339844 C 85.410156 47.339844 84.21875 45.53125 84.414062 43.65625 "/>
    <path style=" stroke:none;fill-rule:nonzero;fill:rgb(66.666667%,4.705882%,19.215686%);fill-opacity:1;" d="M 106.371094 37.574219 C 106.4375 37.34375 106.484375 37.097656 106.492188 36.996094 C 106.574219 36.289062 106.167969 36 105.113281 36 L 102.589844 36 L 101.421875 40.171875 L 104.027344 40.171875 C 105.371094 40.171875 105.773438 39.675781 106.070312 38.613281 Z M 102.753906 42.8125 L 100.664062 42.8125 L 99.464844 47.128906 L 96.421875 47.128906 L 100.316406 33.292969 L 105.589844 33.292969 C 108.539062 33.292969 109.871094 34.417969 109.652344 36.449219 C 109.625 36.722656 109.550781 36.996094 109.476562 37.304688 L 109.007812 38.96875 C 108.539062 40.691406 107.800781 41.789062 106.023438 42.398438 L 108.121094 47.128906 L 104.707031 47.128906 L 102.753906 42.8125 "/>
    <path style=" stroke:none;fill-rule:nonzero;fill:rgb(66.666667%,4.705882%,19.215686%);fill-opacity:1;" d="M 114.613281 47.128906 L 111.554688 47.128906 L 114.6875 35.992188 L 110.960938 35.992188 L 111.730469 33.292969 L 122.226562 33.292969 L 121.464844 35.992188 L 117.742188 35.992188 L 114.613281 47.128906 "/>
    <path style=" stroke:none;fill-rule:nonzero;fill:rgb(70.196078%,70.980392%,71.764706%);fill-opacity:1;" d="M 42.628906 25.316406 L 39.050781 22.746094 L 33.46875 25.308594 L 36.9375 21.210938 L 33.46875 18.722656 L 39.050781 18.722656 L 42.628906 14.507812 L 42.628906 18.722656 L 47.765625 18.722656 L 42.628906 21.097656 L 42.628906 25.316406 "/>
    <path style=" stroke:none;fill-rule:nonzero;fill:rgb(70.196078%,70.980392%,71.764706%);fill-opacity:1;" d="M 59.230469 15.394531 L 55.65625 12.824219 L 50.070312 15.390625 L 53.542969 11.292969 L 50.070312 8.800781 L 55.65625 8.800781 L 59.230469 4.589844 L 59.230469 8.800781 L 64.367188 8.800781 L 59.230469 11.175781 L 59.230469 15.394531 "/>
    <path style=" stroke:none;fill-rule:nonzero;fill:rgb(70.196078%,70.980392%,71.764706%);fill-opacity:1;" d="M 77.683594 10.808594 L 74.109375 8.238281 L 68.523438 10.800781 L 71.992188 6.703125 L 68.523438 4.214844 L 74.109375 4.214844 L 77.683594 0 L 77.683594 4.214844 L 82.820312 4.214844 L 77.683594 6.585938 L 77.683594 10.808594 "/>
    <path style=" stroke:none;fill-rule:nonzero;fill:rgb(70.196078%,70.980392%,71.764706%);fill-opacity:1;" d="M 94.539062 15.402344 L 90.960938 12.832031 L 85.378906 15.394531 L 88.851562 11.296875 L 85.378906 8.808594 L 90.960938 8.808594 L 94.539062 4.59375 L 94.539062 8.808594 L 99.671875 8.808594 L 94.539062 11.183594 L 94.539062 15.402344 "/>
    <path style=" stroke:none;fill-rule:nonzero;fill:rgb(70.196078%,70.980392%,71.764706%);fill-opacity:1;" d="M 106.105469 25.308594 L 102.53125 22.738281 L 96.945312 25.304688 L 100.417969 21.207031 L 96.945312 18.714844 L 102.53125 18.714844 L 106.105469 14.503906 L 106.105469 18.714844 L 111.242188 18.714844 L 106.105469 21.089844 L 106.105469 25.308594 "/>
    <path style=" stroke:none;fill-rule:nonzero;fill:rgb(70.196078%,70.980392%,71.764706%);fill-opacity:1;" d="M 90.960938 65.667969 L 87.386719 63.097656 L 81.800781 65.660156 L 85.277344 61.5625 L 81.800781 59.074219 L 87.386719 59.074219 L 90.960938 54.859375 L 90.960938 59.074219 L 96.097656 59.074219 L 90.960938 61.445312 L 90.960938 65.667969 "/>
    <path style=" stroke:none;fill-rule:nonzero;fill:rgb(70.196078%,70.980392%,71.764706%);fill-opacity:1;" d="M 55.65625 80.171875 L 52.078125 77.601562 L 46.496094 80.164062 L 49.96875 76.066406 L 46.496094 73.578125 L 52.078125 73.578125 L 55.65625 69.363281 L 55.65625 73.578125 L 60.789062 73.578125 L 55.65625 75.949219 L 55.65625 80.171875 "/>
    <path style=" stroke:none;fill-rule:nonzero;fill:rgb(70.196078%,70.980392%,71.764706%);fill-opacity:1;" d="M 27.265625 65.679688 L 23.691406 63.109375 L 18.109375 65.675781 L 21.582031 61.578125 L 18.109375 59.089844 L 23.691406 59.089844 L 27.265625 54.875 L 27.265625 59.089844 L 32.402344 59.089844 L 27.265625 61.460938 L 27.265625 65.679688 "/>
    <path style=" stroke:none;fill-rule:nonzero;fill:rgb(70.196078%,70.980392%,71.764706%);fill-opacity:1;" d="M 74.121094 76.324219 L 70.546875 73.753906 L 64.964844 76.316406 L 68.429688 72.21875 L 64.964844 69.730469 L 70.546875 69.730469 L 74.121094 65.519531 L 74.121094 69.730469 L 79.257812 69.730469 L 74.121094 72.105469 L 74.121094 76.324219 "/>
    <path style=" stroke:none;fill-rule:nonzero;fill:rgb(70.196078%,70.980392%,71.764706%);fill-opacity:1;" d="M 38.632812 76.324219 L 35.054688 73.753906 L 29.472656 76.316406 L 32.941406 72.21875 L 29.472656 69.730469 L 35.054688 69.730469 L 38.632812 65.519531 L 38.632812 69.730469 L 43.769531 69.730469 L 38.632812 72.105469 L 38.632812 76.324219 "/>
    <path style=" stroke:none;fill-rule:nonzero;fill:url(#linear1);" d="M 126.316406 29.46875 L 145.515625 29.46875 L 139.4375 50.988281 L 120.230469 50.988281 L 126.316406 29.46875 "/>
    <path style=" stroke:none;fill-rule:nonzero;fill:rgb(100%,100%,100%);fill-opacity:1;" d="M 127.382812 44.613281 C 129.300781 43.078125 129.601562 42.828125 131.277344 41.414062 C 132.347656 40.480469 132.984375 39.914062 133.820312 39.109375 C 134.261719 38.613281 134.429688 38.21875 134.632812 37.488281 L 134.738281 37.113281 C 134.941406 36.363281 134.574219 36.097656 133.351562 36.097656 C 132.382812 36.097656 130.9375 36.261719 129.988281 36.472656 L 129.976562 34.105469 C 131.253906 33.730469 132.886719 33.5 134.230469 33.5 C 136.796875 33.5 138.015625 34.472656 137.832031 36.179688 C 137.804688 36.429688 137.765625 36.636719 137.699219 36.867188 L 137.566406 37.324219 C 137.066406 39.089844 137.03125 39.628906 134.515625 41.910156 C 133.183594 43.140625 132.433594 43.78125 131.480469 44.570312 L 135.574219 44.570312 L 134.867188 47.128906 L 126.679688 47.128906 L 127.382812 44.613281 "/>
    <path style=" stroke:none;fill-rule:nonzero;fill:rgb(70.196078%,70.980392%,71.764706%);fill-opacity:1;" d="M 173.753906 33.671875 C 175.78125 33.671875 176.386719 34.316406 176.261719 35.480469 C 176.234375 35.742188 176.171875 36.027344 176.074219 36.351562 L 173.894531 44.101562 C 173.425781 45.8125 172.867188 46.78125 170.324219 46.78125 L 167.046875 46.78125 L 170.414062 34.90625 L 168.695312 33.671875 Z M 175.386719 29.472656 L 167.230469 29.472656 L 161.140625 50.988281 L 169.878906 50.988281 C 176.023438 50.988281 177.46875 48.269531 178.253906 45.429688 L 180.933594 35.929688 C 181.046875 35.542969 181.121094 35.125 181.164062 34.738281 C 181.453125 32.019531 180.019531 29.472656 175.386719 29.472656 "/>
    <path style=" stroke:none;fill-rule:nonzero;fill:rgb(70.196078%,70.980392%,71.764706%);fill-opacity:1;" d="M 156.152344 42.261719 L 153.714844 50.988281 L 158.4375 50.988281 L 164.492188 29.464844 L 159.769531 29.464844 L 157.339844 38.09375 L 150.488281 38.09375 L 152.917969 29.464844 L 148.195312 29.464844 L 142.140625 50.988281 L 146.863281 50.988281 L 148.9375 43.589844 L 147.085938 42.261719 L 156.152344 42.261719 "/>
  </g>
</svg>