<?xml version="1.0" encoding="UTF-8" standalone="yes"?>
<svg xmlns="http://www.w3.org/2000/svg" xmlns:xlink="http://www.w3.org/1999/xlink" width="216px" height="106.66666666666666px" viewBox="0 0 162 80" version="1.1">
  <defs>
    <linearGradient id="linear0" gradientUnits="userSpaceOnUse" x1="0" y1="0" x2="1" y2="0" gradientTransform="matrix(-24.798924,50.866467,-50.653359,-24.903257,43.618481,14.060159)">
      <stop offset="0" style="stop-color:rgb(18.039216%,28.627451%,53.333333%);stop-opacity:1;"/>
      <stop offset="1" style="stop-color:rgb(3.921569%,5.098039%,5.882353%);stop-opacity:1;"/>
    </linearGradient>
  </defs>
  <g id="surface1">
    <path style=" stroke:none;fill-rule:nonzero;fill:rgb(70.196078%,70.980392%,71.764706%);fill-opacity:1;" d="M 154.671875 33.664062 C 156.699219 33.664062 157.304688 34.3125 157.179688 35.476562 C 157.152344 35.738281 157.089844 36.023438 156.992188 36.347656 L 154.8125 44.097656 C 154.34375 45.808594 153.78125 46.777344 151.238281 46.777344 L 147.960938 46.777344 L 151.328125 34.902344 L 149.609375 33.664062 Z M 156.304688 29.46875 L 148.140625 29.46875 L 142.046875 50.984375 L 150.792969 50.984375 C 156.941406 50.984375 158.390625 48.265625 159.171875 45.421875 L 161.855469 35.925781 C 161.96875 35.539062 162.046875 35.117188 162.085938 34.734375 C 162.375 32.015625 160.941406 29.46875 156.304688 29.46875 "/>
    <path style=" stroke:none;fill-rule:nonzero;fill:rgb(70.196078%,70.980392%,71.764706%);fill-opacity:1;" d="M 137.054688 42.257812 L 134.617188 50.984375 L 139.339844 50.984375 L 145.402344 29.460938 L 140.675781 29.460938 L 138.242188 38.089844 L 131.386719 38.089844 L 133.820312 29.460938 L 129.09375 29.460938 L 123.035156 50.984375 L 127.757812 50.984375 L 129.835938 43.585938 L 127.984375 42.257812 L 137.054688 42.257812 "/>
    <path style=" stroke:none;fill-rule:nonzero;fill:url(#linear0);" d="M 6.089844 29.46875 L 61.660156 29.46875 L 55.640625 50.984375 L 0 50.984375 L 6.089844 29.46875 "/>
    <path style=" stroke:none;fill-rule:nonzero;fill:rgb(100%,100%,100%);fill-opacity:1;" d="M 61.660156 29.46875 L 126.429688 29.46875 L 120.34375 50.984375 L 55.640625 50.984375 L 61.660156 29.46875 "/>
    <path style=" stroke:none;fill-rule:nonzero;fill:rgb(100%,100%,100%);fill-opacity:1;" d="M 8.925781 33.292969 L 17.59375 33.292969 L 16.832031 35.996094 L 11.207031 35.996094 L 10.464844 38.628906 L 15.65625 38.628906 L 14.894531 41.308594 L 9.703125 41.308594 L 8.816406 44.425781 L 14.441406 44.425781 L 13.695312 47.128906 L 5.027344 47.128906 L 8.925781 33.292969 "/>
    <path style=" stroke:none;fill-rule:nonzero;fill:rgb(100%,100%,100%);fill-opacity:1;" d="M 17.28125 43.824219 C 17.308594 43.597656 17.347656 43.347656 17.417969 43.113281 L 20.1875 33.292969 L 23.222656 33.292969 L 20.566406 42.699219 C 20.496094 42.929688 20.453125 43.136719 20.433594 43.347656 C 20.347656 44.175781 20.734375 44.636719 22.179688 44.636719 C 23.835938 44.636719 24.507812 43.96875 24.835938 42.828125 L 27.527344 33.292969 L 30.566406 33.292969 L 27.800781 43.113281 C 27.136719 45.445312 25.78125 47.332031 21.578125 47.332031 C 18.25 47.332031 17.082031 45.648438 17.28125 43.824219 "/>
    <path style=" stroke:none;fill-rule:nonzero;fill:rgb(100%,100%,100%);fill-opacity:1;" d="M 39.332031 37.570312 C 39.394531 37.335938 39.445312 37.089844 39.460938 36.984375 C 39.535156 36.277344 39.128906 35.988281 38.074219 35.988281 L 35.550781 35.988281 L 34.382812 40.164062 L 36.984375 40.164062 C 38.332031 40.164062 38.738281 39.667969 39.03125 38.609375 Z M 35.710938 42.804688 L 33.621094 42.804688 L 32.421875 47.121094 L 29.378906 47.121094 L 33.273438 33.285156 L 38.550781 33.285156 C 41.507812 33.285156 42.835938 34.410156 42.617188 36.445312 C 42.589844 36.71875 42.519531 36.984375 42.445312 37.292969 L 41.976562 38.957031 C 41.5 40.683594 40.765625 41.789062 38.984375 42.382812 L 41.082031 47.121094 L 37.667969 47.121094 L 35.710938 42.804688 "/>
    <path style=" stroke:none;fill-rule:nonzero;fill:rgb(100%,100%,100%);fill-opacity:1;" d="M 52.71875 37.15625 C 52.808594 36.304688 52.308594 35.785156 50.839844 35.785156 C 49.265625 35.785156 48.363281 36.464844 48.042969 37.570312 L 46.546875 42.847656 C 46.511719 43.007812 46.46875 43.175781 46.457031 43.324219 C 46.367188 44.152344 46.855469 44.628906 48.34375 44.628906 C 49.917969 44.628906 50.804688 44.027344 51.140625 42.847656 L 52.636719 37.570312 C 52.671875 37.421875 52.707031 37.28125 52.71875 37.15625 Z M 43.339844 43.65625 C 43.359375 43.449219 43.410156 43.21875 43.472656 43.007812 L 45.074219 37.300781 C 45.800781 34.726562 47.546875 33.082031 51.441406 33.082031 C 54.703125 33.082031 56.039062 34.949219 55.835938 36.84375 C 55.816406 37.027344 55.765625 37.261719 55.703125 37.464844 L 54.109375 43.113281 C 53.375 45.753906 51.648438 47.332031 47.574219 47.332031 C 44.332031 47.332031 43.136719 45.527344 43.339844 43.65625 "/>
    <path style=" stroke:none;fill-rule:nonzero;fill:rgb(66.666667%,4.705882%,19.215686%);fill-opacity:1;" d="M 60.015625 46.421875 L 60.925781 44.074219 C 62.210938 44.46875 63.273438 44.757812 64.601562 44.757812 C 66.210938 44.757812 66.617188 44.449219 66.953125 43.242188 C 67.050781 42.953125 67.097656 42.699219 67.113281 42.515625 C 67.183594 41.894531 66.785156 41.722656 65.15625 41.289062 C 62.925781 40.707031 62.164062 39.898438 62.339844 38.277344 C 62.378906 37.84375 62.5 37.34375 62.660156 36.78125 C 63.589844 33.707031 64.484375 33.082031 68.222656 33.082031 C 69.277344 33.082031 70.992188 33.316406 72.179688 33.625 L 71.371094 36.179688 C 70.179688 35.890625 68.628906 35.703125 67.699219 35.703125 C 66.210938 35.703125 65.894531 35.910156 65.59375 37.015625 C 65.519531 37.324219 65.449219 37.574219 65.425781 37.757812 C 65.359375 38.425781 65.761719 38.53125 67.328125 38.945312 C 69.824219 39.582031 70.445312 40.375 70.292969 41.789062 C 70.25 42.222656 70.132812 42.699219 69.972656 43.261719 C 69.175781 46.113281 68.050781 47.332031 64.140625 47.332031 C 63.003906 47.332031 61.039062 46.941406 60.015625 46.421875 "/>
    <path style=" stroke:none;fill-rule:nonzero;fill:rgb(66.666667%,4.705882%,19.215686%);fill-opacity:1;" d="M 81.078125 37.632812 C 81.148438 37.378906 81.191406 37.175781 81.203125 37.027344 C 81.28125 36.324219 80.902344 35.988281 79.972656 35.988281 L 77.410156 35.988281 L 76.207031 40.269531 L 78.710938 40.269531 C 80.113281 40.269531 80.476562 39.773438 80.769531 38.734375 Z M 75.453125 42.910156 L 74.25 47.121094 L 71.207031 47.121094 L 75.109375 33.292969 L 80.367188 33.292969 C 83.324219 33.292969 84.628906 34.429688 84.414062 36.402344 C 84.386719 36.699219 84.273438 37.132812 84.175781 37.464844 L 83.742188 39.023438 C 83.015625 41.597656 81.820312 42.910156 78.179688 42.910156 L 75.453125 42.910156 "/>
    <path style=" stroke:none;fill-rule:nonzero;fill:rgb(66.666667%,4.705882%,19.215686%);fill-opacity:1;" d="M 93.871094 37.15625 C 93.960938 36.304688 93.457031 35.785156 91.992188 35.785156 C 90.417969 35.785156 89.515625 36.464844 89.195312 37.570312 L 87.699219 42.847656 C 87.65625 43.007812 87.621094 43.175781 87.609375 43.324219 C 87.515625 44.152344 88.007812 44.628906 89.496094 44.628906 C 91.066406 44.628906 91.957031 44.027344 92.289062 42.847656 L 93.785156 37.570312 C 93.820312 37.421875 93.855469 37.28125 93.871094 37.15625 Z M 84.488281 43.65625 C 84.511719 43.449219 84.554688 43.21875 84.617188 43.007812 L 86.222656 37.300781 C 86.949219 34.726562 88.699219 33.082031 92.589844 33.082031 C 95.855469 33.082031 97.191406 34.949219 96.988281 36.84375 C 96.96875 37.027344 96.917969 37.261719 96.855469 37.464844 L 95.261719 43.113281 C 94.519531 45.753906 92.800781 47.332031 88.726562 47.332031 C 85.484375 47.332031 84.289062 45.527344 84.488281 43.65625 "/>
    <path style=" stroke:none;fill-rule:nonzero;fill:rgb(66.666667%,4.705882%,19.215686%);fill-opacity:1;" d="M 106.46875 37.570312 C 106.535156 37.335938 106.578125 37.089844 106.59375 36.984375 C 106.667969 36.277344 106.265625 35.988281 105.207031 35.988281 L 102.683594 35.988281 L 101.519531 40.164062 L 104.117188 40.164062 C 105.46875 40.164062 105.871094 39.667969 106.171875 38.609375 Z M 102.847656 42.804688 L 100.757812 42.804688 L 99.554688 47.121094 L 96.511719 47.121094 L 100.40625 33.285156 L 105.683594 33.285156 C 108.640625 33.285156 109.96875 34.410156 109.753906 36.445312 C 109.722656 36.71875 109.65625 36.984375 109.578125 37.292969 L 109.109375 38.957031 C 108.640625 40.683594 107.898438 41.789062 106.117188 42.382812 L 108.222656 47.121094 L 104.804688 47.121094 L 102.847656 42.804688 "/>
    <path style=" stroke:none;fill-rule:nonzero;fill:rgb(66.666667%,4.705882%,19.215686%);fill-opacity:1;" d="M 114.707031 47.128906 L 111.648438 47.128906 L 114.777344 35.996094 L 111.058594 35.996094 L 111.820312 33.292969 L 122.328125 33.292969 L 121.566406 35.996094 L 117.839844 35.996094 L 114.707031 47.128906 "/>
    <path style=" stroke:none;fill-rule:nonzero;fill:rgb(70.196078%,70.980392%,71.764706%);fill-opacity:1;" d="M 42.660156 25.304688 L 39.082031 22.734375 L 33.488281 25.296875 L 36.964844 21.199219 L 33.488281 18.714844 L 39.082031 18.714844 L 42.660156 14.503906 L 42.660156 18.714844 L 47.796875 18.714844 L 42.660156 21.085938 L 42.660156 25.304688 "/>
    <path style=" stroke:none;fill-rule:nonzero;fill:rgb(70.196078%,70.980392%,71.764706%);fill-opacity:1;" d="M 59.285156 15.386719 L 55.703125 12.8125 L 50.113281 15.378906 L 53.585938 11.28125 L 50.113281 8.796875 L 55.703125 8.796875 L 59.285156 4.578125 L 59.285156 8.796875 L 64.421875 8.796875 L 59.285156 11.167969 L 59.285156 15.386719 "/>
    <path style=" stroke:none;fill-rule:nonzero;fill:rgb(70.196078%,70.980392%,71.764706%);fill-opacity:1;" d="M 77.75 10.804688 L 74.171875 8.234375 L 68.582031 10.796875 L 72.054688 6.695312 L 68.582031 4.210938 L 74.171875 4.210938 L 77.75 0 L 77.75 4.210938 L 82.890625 4.210938 L 77.75 6.585938 L 77.75 10.804688 "/>
    <path style=" stroke:none;fill-rule:nonzero;fill:rgb(70.196078%,70.980392%,71.764706%);fill-opacity:1;" d="M 94.625 15.394531 L 91.046875 12.816406 L 85.453125 15.386719 L 88.9375 11.289062 L 85.453125 8.800781 L 91.046875 8.800781 L 94.625 4.582031 L 94.625 8.800781 L 99.761719 8.800781 L 94.625 11.175781 L 94.625 15.394531 "/>
    <path style=" stroke:none;fill-rule:nonzero;fill:rgb(70.196078%,70.980392%,71.764706%);fill-opacity:1;" d="M 106.195312 25.304688 L 102.617188 22.730469 L 97.023438 25.296875 L 100.503906 21.199219 L 97.023438 18.714844 L 102.617188 18.714844 L 106.195312 14.496094 L 106.195312 18.714844 L 111.332031 18.714844 L 106.195312 21.085938 L 106.195312 25.304688 "/>
    <path style=" stroke:none;fill-rule:nonzero;fill:rgb(70.196078%,70.980392%,71.764706%);fill-opacity:1;" d="M 91.039062 65.667969 L 87.460938 63.089844 L 81.867188 65.660156 L 85.351562 61.5625 L 81.867188 59.078125 L 87.460938 59.078125 L 91.039062 54.859375 L 91.039062 59.078125 L 96.175781 59.078125 L 91.039062 61.449219 L 91.039062 65.667969 "/>
    <path style=" stroke:none;fill-rule:nonzero;fill:rgb(70.196078%,70.980392%,71.764706%);fill-opacity:1;" d="M 55.703125 80.171875 L 52.125 77.59375 L 46.535156 80.164062 L 50.007812 76.0625 L 46.535156 73.578125 L 52.125 73.578125 L 55.703125 69.367188 L 55.703125 73.578125 L 60.84375 73.578125 L 55.703125 75.953125 L 55.703125 80.171875 "/>
    <path style=" stroke:none;fill-rule:nonzero;fill:rgb(70.196078%,70.980392%,71.764706%);fill-opacity:1;" d="M 27.289062 65.683594 L 23.710938 63.105469 L 18.117188 65.675781 L 21.59375 61.574219 L 18.117188 59.089844 L 23.710938 59.089844 L 27.289062 54.871094 L 27.289062 59.089844 L 32.425781 59.089844 L 27.289062 61.457031 L 27.289062 65.683594 "/>
    <path style=" stroke:none;fill-rule:nonzero;fill:rgb(70.196078%,70.980392%,71.764706%);fill-opacity:1;" d="M 74.191406 76.324219 L 70.613281 73.746094 L 65.023438 76.316406 L 68.496094 72.21875 L 65.023438 69.730469 L 70.613281 69.730469 L 74.191406 65.511719 L 74.191406 69.730469 L 79.332031 69.730469 L 74.191406 72.097656 L 74.191406 76.324219 "/>
    <path style=" stroke:none;fill-rule:nonzero;fill:rgb(70.196078%,70.980392%,71.764706%);fill-opacity:1;" d="M 38.664062 76.324219 L 35.082031 73.746094 L 29.492188 76.316406 L 32.964844 72.21875 L 29.492188 69.730469 L 35.082031 69.730469 L 38.664062 65.511719 L 38.664062 69.730469 L 43.800781 69.730469 L 38.664062 72.097656 L 38.664062 76.324219 "/>
  </g>
</svg>