<?xml version="1.0" encoding="UTF-8" standalone="yes"?>
<svg xmlns="http://www.w3.org/2000/svg" xmlns:xlink="http://www.w3.org/1999/xlink" width="152px" height="106.66666666666666px" viewBox="0 0 114 80" version="1.1">
  <defs>
    <linearGradient id="linear0" gradientUnits="userSpaceOnUse" x1="0" y1="0" x2="1" y2="0" gradientTransform="matrix(42.076931,-156.845046,156.714852,42.111887,23.024005,140.907948)">
      <stop offset="0" style="stop-color:rgb(36.862745%,8.627451%,10.196078%);stop-opacity:1;"/>
      <stop offset="0.44809" style="stop-color:rgb(90.980392%,14.901961%,18.431373%);stop-opacity:1;"/>
      <stop offset="1" style="stop-color:rgb(36.862745%,8.627451%,10.196078%);stop-opacity:1;"/>
    </linearGradient>
    <linearGradient id="linear1" gradientUnits="userSpaceOnUse" x1="0" y1="0" x2="1" y2="0" gradientTransform="matrix(41.826991,-155.913012,155.783592,41.86174,73.427408,154.060362)">
      <stop offset="0" style="stop-color:rgb(36.862745%,8.627451%,10.196078%);stop-opacity:1;"/>
      <stop offset="0.95082" style="stop-color:rgb(90.980392%,14.901961%,18.431373%);stop-opacity:1;"/>
      <stop offset="1" style="stop-color:rgb(90.980392%,14.901961%,18.431373%);stop-opacity:1;"/>
    </linearGradient>
    <linearGradient id="linear2" gradientUnits="userSpaceOnUse" x1="0" y1="0" x2="1" y2="0" gradientTransform="matrix(25.378946,47.828544,-47.788843,25.40003,43.289935,-4.188146)">
      <stop offset="0" style="stop-color:rgb(69.411765%,43.921569%,13.72549%);stop-opacity:1;"/>
      <stop offset="0.52" style="stop-color:rgb(58.431373%,35.294118%,11.764706%);stop-opacity:1;"/>
      <stop offset="1" style="stop-color:rgb(94.117647%,80%,16.078431%);stop-opacity:1;"/>
    </linearGradient>
    <linearGradient id="linear3" gradientUnits="userSpaceOnUse" x1="0" y1="0" x2="1" y2="0" gradientTransform="matrix(25.374106,0,0,25.395186,39.0221,2.96079)">
      <stop offset="0" style="stop-color:rgb(94.117647%,83.529412%,14.117647%);stop-opacity:1;"/>
      <stop offset="1" style="stop-color:rgb(94.901961%,93.333333%,64.313725%);stop-opacity:1;"/>
    </linearGradient>
    <linearGradient id="linear4" gradientUnits="userSpaceOnUse" x1="0" y1="0" x2="1" y2="0" gradientTransform="matrix(-11.343277,-50.950464,50.908171,-11.352701,19.513001,46.276012)">
      <stop offset="0" style="stop-color:rgb(92.941176%,91.764706%,39.215686%);stop-opacity:1;"/>
      <stop offset="0.51" style="stop-color:rgb(82.352941%,42.745098%,10.588235%);stop-opacity:1;"/>
      <stop offset="1" style="stop-color:rgb(96.078431%,80%,10.980392%);stop-opacity:1;"/>
    </linearGradient>
    <linearGradient id="linear5" gradientUnits="userSpaceOnUse" x1="0" y1="0" x2="1" y2="0" gradientTransform="matrix(25.454851,0,0,25.475998,9.438039,2.959109)">
      <stop offset="0" style="stop-color:rgb(94.117647%,83.529412%,14.117647%);stop-opacity:1;"/>
      <stop offset="1" style="stop-color:rgb(94.901961%,93.333333%,64.313725%);stop-opacity:1;"/>
    </linearGradient>
    <linearGradient id="linear6" gradientUnits="userSpaceOnUse" x1="0" y1="0" x2="1" y2="0" gradientTransform="matrix(9.160444,0,0,9.168054,22.169737,49.733932)">
      <stop offset="0" style="stop-color:rgb(59.607843%,40.392157%,12.941176%);stop-opacity:1;"/>
      <stop offset="1" style="stop-color:rgb(95.686275%,77.254902%,10.196078%);stop-opacity:1;"/>
    </linearGradient>
    <linearGradient id="linear7" gradientUnits="userSpaceOnUse" x1="130.17599" y1="-243.745" x2="122.467" y2="-243.745" gradientTransform="matrix(4.938537,4.94264,-4.938537,4.94264,-1780.999534,590.368705)">
      <stop offset="0" style="stop-color:rgb(92.941176%,91.764706%,39.215686%);stop-opacity:1;"/>
      <stop offset="0.51" style="stop-color:rgb(82.352941%,42.745098%,10.588235%);stop-opacity:1;"/>
      <stop offset="1" style="stop-color:rgb(96.078431%,80%,10.980392%);stop-opacity:1;"/>
    </linearGradient>
    <linearGradient id="linear8" gradientUnits="userSpaceOnUse" x1="130.123" y1="-240.82899" x2="122.504" y2="-240.82899" gradientTransform="matrix(4.938537,4.94264,-4.938537,4.94264,-1780.999534,590.368705)">
      <stop offset="0" style="stop-color:rgb(92.941176%,91.764706%,39.215686%);stop-opacity:1;"/>
      <stop offset="0.51" style="stop-color:rgb(82.352941%,42.745098%,10.588235%);stop-opacity:1;"/>
      <stop offset="1" style="stop-color:rgb(96.078431%,80%,10.980392%);stop-opacity:1;"/>
    </linearGradient>
    <linearGradient id="linear9" gradientUnits="userSpaceOnUse" x1="0" y1="0" x2="1" y2="0" gradientTransform="matrix(9.152838,0,0,9.160442,51.678436,49.733487)">
      <stop offset="0" style="stop-color:rgb(59.607843%,40.392157%,12.941176%);stop-opacity:1;"/>
      <stop offset="1" style="stop-color:rgb(95.686275%,77.254902%,10.196078%);stop-opacity:1;"/>
    </linearGradient>
    <linearGradient id="linear10" gradientUnits="userSpaceOnUse" x1="0" y1="0" x2="1" y2="0" gradientTransform="matrix(24.671994,46.496552,-46.457957,24.692491,25.32719,5.226348)">
      <stop offset="0" style="stop-color:rgb(69.411765%,43.921569%,13.72549%);stop-opacity:1;"/>
      <stop offset="0.52" style="stop-color:rgb(58.431373%,35.294118%,11.764706%);stop-opacity:1;"/>
      <stop offset="1" style="stop-color:rgb(94.117647%,80%,16.078431%);stop-opacity:1;"/>
    </linearGradient>
    <linearGradient id="linear11" gradientUnits="userSpaceOnUse" x1="0" y1="0" x2="1" y2="0" gradientTransform="matrix(25.977003,48.955911,-48.915274,25.998584,11.678654,11.670908)">
      <stop offset="0" style="stop-color:rgb(69.411765%,43.921569%,13.72549%);stop-opacity:1;"/>
      <stop offset="0.43" style="stop-color:rgb(63.921569%,36.862745%,15.686275%);stop-opacity:1;"/>
      <stop offset="0.92" style="stop-color:rgb(94.117647%,80%,16.078431%);stop-opacity:1;"/>
      <stop offset="1" style="stop-color:rgb(94.117647%,80%,16.078431%);stop-opacity:1;"/>
    </linearGradient>
    <radialGradient id="radial0" gradientUnits="userSpaceOnUse" cx="0" cy="0" fx="0" fy="0" r="1" gradientTransform="matrix(66.5541,0,0,66.688325,37.550515,79.456597)">
      <stop offset="0" style="stop-color:rgb(61.960784%,40.392157%,11.764706%);stop-opacity:1;"/>
      <stop offset="0.95" style="stop-color:rgb(90.588235%,70.588235%,5.882353%);stop-opacity:1;"/>
      <stop offset="0.95" style="stop-color:rgb(90.588235%,70.588235%,5.882353%);stop-opacity:1;"/>
      <stop offset="1" style="stop-color:rgb(90.588235%,70.588235%,5.882353%);stop-opacity:1;"/>
    </radialGradient>
  </defs>
  <g id="surface1">
    <path style=" stroke:none;fill-rule:nonzero;fill:url(#linear0);" d="M 83.367188 35.167969 L 82.027344 44.28125 L 76.113281 44.28125 L 77.464844 35.167969 L 69.816406 35.167969 L 66.769531 55.402344 L 6.730469 55.402344 C 6.578125 55.402344 6.371094 55.492188 6.265625 55.601562 L 2.136719 59.722656 C 2.039062 59.832031 2.074219 59.914062 2.222656 59.914062 L 73.796875 59.914062 L 75.222656 50.265625 L 81.148438 50.265625 L 79.742188 59.914062 L 87.445312 59.914062 L 91.015625 35.167969 L 83.367188 35.167969 "/>
    <path style=" stroke:none;fill-rule:nonzero;fill:url(#linear1);" d="M 99.441406 54.195312 C 99.949219 54.195312 100.402344 54.191406 100.78125 54.175781 C 101.160156 54.167969 101.609375 54.027344 102.140625 53.761719 C 102.875 53.375 103.5 52.832031 104.011719 52.136719 C 104.554688 51.414062 104.964844 50.648438 105.246094 49.839844 C 105.53125 49.03125 105.730469 48.210938 105.847656 47.367188 C 105.960938 46.519531 105.972656 45.617188 105.859375 44.65625 C 105.75 43.691406 105.476562 42.859375 105.039062 42.160156 C 104.796875 41.800781 104.539062 41.523438 104.261719 41.332031 C 103.984375 41.136719 103.691406 41 103.375 40.914062 C 103.050781 40.832031 102.707031 40.78125 102.332031 40.773438 C 101.957031 40.757812 101.550781 40.753906 101.113281 40.753906 L 100.238281 40.753906 L 98.339844 54.195312 Z M 93.339844 35.167969 L 102.554688 35.167969 C 103.453125 35.167969 104.300781 35.203125 105.113281 35.277344 C 105.910156 35.34375 106.671875 35.488281 107.398438 35.707031 C 108.121094 35.921875 108.804688 36.230469 109.453125 36.625 C 110.105469 37.019531 110.726562 37.542969 111.316406 38.191406 C 112.460938 39.417969 113.230469 40.839844 113.628906 42.460938 C 114.027344 44.082031 114.105469 45.785156 113.863281 47.5625 C 113.640625 49.199219 113.132812 50.804688 112.335938 52.390625 C 111.550781 53.980469 110.484375 55.359375 109.152344 56.535156 C 107.730469 57.808594 106.21875 58.6875 104.609375 59.167969 C 103.003906 59.648438 101.328125 59.914062 99.589844 59.914062 L 89.796875 59.914062 L 93.339844 35.167969 "/>
    <path style=" stroke:none;fill-rule:nonzero;fill:rgb(90.588235%,14.901961%,18.431373%);fill-opacity:1;" d="M 12.429688 45.664062 C 12.535156 45.554688 12.535156 45.382812 12.429688 45.269531 L 7.601562 40.4375 C 7.492188 40.332031 7.40625 40.367188 7.40625 40.519531 L 7.40625 50.410156 C 7.40625 50.5625 7.492188 50.597656 7.601562 50.488281 L 12.429688 45.664062 "/>
    <path style=" stroke:none;fill-rule:nonzero;fill:rgb(90.588235%,14.901961%,18.431373%);fill-opacity:1;" d="M 0 57.792969 C 0 57.953125 0.0898438 57.988281 0.207031 57.878906 L 4.613281 53.46875 C 4.722656 53.355469 4.816406 53.128906 4.816406 52.96875 L 4.816406 37.933594 C 4.816406 37.777344 4.722656 37.550781 4.613281 37.441406 L 0.207031 33.035156 C 0.0898438 32.921875 0 32.957031 0 33.117188 L 0 57.792969 "/>
    <path style=" stroke:none;fill-rule:nonzero;fill:url(#linear2);" d="M 64.308594 52.679688 L 51.539062 46.785156 L 51.542969 5.921875 L 64.316406 0 L 58.457031 5.921875 L 58.460938 46.835938 L 64.308594 52.679688 "/>
    <path style=" stroke:none;fill-rule:nonzero;fill:url(#linear3);" d="M 64.316406 0 L 51.542969 5.921875 L 38.941406 0 L 64.316406 0 "/>
    <path style=" stroke:none;fill-rule:nonzero;fill:url(#linear4);" d="M 9.359375 52.683594 L 22.105469 46.785156 L 22.109375 5.921875 L 9.355469 0 L 15.261719 5.921875 L 15.253906 46.773438 L 9.359375 52.683594 "/>
    <path style=" stroke:none;fill-rule:nonzero;fill:url(#linear5);" d="M 22.109375 5.921875 L 9.359375 0 L 34.8125 0.00390625 L 22.109375 5.921875 "/>
    <path style=" stroke:none;fill-rule:nonzero;fill:url(#linear6);" d="M 22.109375 46.785156 L 9.359375 52.683594 L 34.8125 52.679688 L 22.105469 46.785156 "/>
    <path style=" stroke:none;fill-rule:nonzero;fill:url(#linear7);" d="M 51.542969 22.25 L 51.542969 5.921875 L 38.941406 0 L 44.820312 5.917969 L 44.820312 17.234375 L 51.542969 22.25 "/>
    <path style=" stroke:none;fill-rule:nonzero;fill:url(#linear8);" d="M 51.542969 22.25 L 51.539062 46.796875 L 38.933594 52.671875 L 44.816406 46.777344 L 44.828125 28.691406 L 51.542969 22.25 "/>
    <path style=" stroke:none;fill-rule:nonzero;fill:url(#linear9);" d="M 64.308594 52.679688 L 51.539062 46.785156 L 38.933594 52.671875 L 64.308594 52.679688 "/>
    <path style=" stroke:none;fill-rule:nonzero;fill:url(#linear10);" d="M 22.109375 5.921875 L 34.8125 0.00390625 L 28.921875 5.90625 L 28.921875 17.234375 L 22.109375 22.257812 L 22.109375 5.921875 "/>
    <path style=" stroke:none;fill-rule:nonzero;fill:url(#linear11);" d="M 22.109375 22.257812 L 22.105469 46.785156 L 34.8125 52.679688 L 28.914062 46.785156 L 28.921875 28.695312 L 22.109375 22.257812 "/>
    <path style=" stroke:none;fill-rule:nonzero;fill:url(#radial0);" d="M 51.542969 22.25 L 22.109375 22.257812 L 28.921875 28.695312 L 44.828125 28.691406 L 51.542969 22.25 "/>
    <path style=" stroke:none;fill-rule:nonzero;fill:rgb(93.72549%,89.019608%,29.411765%);fill-opacity:1;" d="M 51.542969 22.25 L 44.820312 17.234375 L 28.921875 17.234375 L 22.109375 22.257812 L 51.542969 22.253906 "/>
    <path style=" stroke:none;fill-rule:nonzero;fill:rgb(0%,0%,0%);fill-opacity:1;" d="M 2.441406 64.089844 L 7.1875 64.089844 L 7.1875 70.003906 L 11.886719 70.003906 L 11.886719 64.089844 L 16.628906 64.089844 L 16.628906 79.664062 L 11.886719 79.664062 L 11.886719 73.460938 L 7.1875 73.460938 L 7.1875 79.664062 L 2.441406 79.664062 L 2.441406 64.089844 "/>
    <path style=" stroke:none;fill-rule:nonzero;fill:rgb(0%,0%,0%);fill-opacity:1;" d="M 19.859375 79.664062 L 24.601562 79.664062 L 24.601562 64.09375 L 19.859375 64.09375 Z M 19.859375 79.664062 "/>
    <path style=" stroke:none;fill-rule:nonzero;fill:rgb(0%,0%,0%);fill-opacity:1;" d="M 37.605469 68.394531 C 36.683594 67.40625 35.585938 67.015625 34.136719 67.015625 C 32.949219 67.015625 32.136719 67.40625 32.136719 68.128906 C 32.136719 70.644531 41.25 68.417969 41.25 74.761719 C 41.25 77.335938 39.054688 79.953125 34.203125 79.953125 C 31.234375 79.953125 28.625 79.292969 26.867188 76.925781 L 29.71875 74.839844 C 30.753906 76.039062 32.203125 76.738281 33.894531 76.738281 C 35.761719 76.738281 36.511719 76.058594 36.511719 75.378906 C 36.511719 73.011719 27.523438 74.820312 27.523438 68.933594 C 27.523438 65.886719 30.222656 63.804688 34.203125 63.804688 C 36.53125 63.804688 38.902344 64.46875 40.371094 66.257812 L 37.605469 68.394531 "/>
    <path style=" stroke:none;fill-rule:nonzero;fill:rgb(0%,0%,0%);fill-opacity:1;" d="M 46.414062 67.183594 L 41.84375 67.183594 L 41.84375 64.089844 L 55.726562 64.089844 L 55.726562 67.183594 L 51.160156 67.183594 L 51.160156 79.664062 L 46.414062 79.664062 L 46.414062 67.183594 "/>
    <path style=" stroke:none;fill-rule:nonzero;fill:rgb(0%,0%,0%);fill-opacity:1;" d="M 61.28125 71.878906 C 61.28125 76.058594 62.582031 76.863281 64.207031 76.863281 C 65.8125 76.863281 67.125 76.058594 67.125 71.878906 C 67.125 67.925781 66.046875 66.894531 64.207031 66.894531 C 62.292969 66.894531 61.28125 68.109375 61.28125 71.878906 Z M 64.207031 79.953125 C 59.261719 79.953125 56.273438 76.84375 56.273438 71.878906 C 56.273438 66.914062 59.261719 63.804688 64.207031 63.804688 C 69.148438 63.804688 72.136719 66.914062 72.136719 71.878906 C 72.136719 76.84375 69.148438 79.953125 64.207031 79.953125 "/>
    <path style=" stroke:none;fill-rule:nonzero;fill:rgb(0%,0%,0%);fill-opacity:1;" d="M 78.832031 70.3125 L 81.292969 70.3125 C 82.65625 70.3125 83.644531 69.753906 83.644531 68.746094 C 83.644531 67.757812 82.960938 67.0625 81.492188 67.0625 L 78.832031 67.0625 Z M 74.089844 64.089844 L 82.039062 64.089844 C 87.574219 64.089844 88.652344 66.566406 88.652344 68.585938 C 88.652344 70.515625 87.359375 71.816406 85.511719 72.5 L 88.613281 79.664062 L 83.335938 79.664062 L 80.988281 73.28125 L 78.832031 73.28125 L 78.832031 79.664062 L 74.089844 79.664062 L 74.089844 64.089844 "/>
    <path style=" stroke:none;fill-rule:nonzero;fill:rgb(0%,0%,0%);fill-opacity:1;" d="M 94.519531 73.050781 L 88.5 64.089844 L 93.882812 64.089844 L 97.351562 69.386719 L 100.667969 64.089844 L 104.972656 64.089844 L 99.265625 72.679688 L 99.265625 79.664062 L 94.519531 79.664062 L 94.519531 73.050781 "/>
  </g>
</svg>