<?xml version="1.0" encoding="UTF-8" standalone="yes"?>
<svg xmlns="http://www.w3.org/2000/svg" xmlns:xlink="http://www.w3.org/1999/xlink" width="1000px" height="106.66666666666666px" viewBox="0 0 750 80" version="1.1">
  <defs>
    <clipPath id="clip1">
      <path d="M 0 0 L 76 0 L 76 79.785156 L 0 79.785156 Z M 0 0 "/>
    </clipPath>
    <clipPath id="clip2">
      <path d="M 686 4 L 749.425781 4 L 749.425781 76 L 686 76 Z M 686 4 "/>
    </clipPath>
  </defs>
  <g id="surface1">
    <path style=" stroke:none;fill-rule:nonzero;fill:rgb(4.313725%,2.352941%,1.960784%);fill-opacity:1;" d="M 154.644531 3.511719 C 154.464844 3.5 154.292969 3.460938 154.105469 3.460938 L 152.359375 3.460938 C 149.167969 3.460938 146.90625 4.792969 145.257812 7.472656 L 140.527344 15.175781 L 133.855469 26.023438 L 126.03125 38.75 L 121.742188 31.757812 L 110.207031 12.949219 L 106.910156 7.570312 C 105.472656 5.203125 103.105469 3.460938 99.707031 3.460938 L 97.960938 3.460938 C 93.539062 3.460938 90.042969 6.957031 90.042969 11.378906 L 90.042969 68.808594 C 90.042969 70.785156 90.78125 72.542969 91.957031 73.894531 C 93.363281 75.503906 95.414062 76.523438 97.757812 76.523438 C 102.078125 76.523438 105.570312 73.132812 105.570312 68.808594 L 105.570312 32.992188 L 108.761719 37.910156 L 117.085938 50.75 L 119.246094 54.085938 C 120.890625 56.558594 122.945312 58.101562 125.828125 58.101562 C 128.707031 58.101562 130.761719 56.558594 132.410156 54.085938 L 146.292969 32.679688 L 146.292969 68.605469 C 146.292969 72.925781 149.785156 76.523438 154.105469 76.523438 C 158.527344 76.523438 162.019531 73.019531 162.019531 68.605469 L 162.019531 11.378906 C 162.019531 7.140625 158.800781 3.789062 154.644531 3.511719 "/>
    <path style=" stroke:none;fill-rule:nonzero;fill:rgb(4.313725%,2.352941%,1.960784%);fill-opacity:1;" d="M 210.867188 62.523438 C 198.117188 62.523438 189.070312 52.238281 189.070312 39.890625 L 189.070312 39.679688 C 189.070312 38.839844 189.117188 38.015625 189.195312 37.199219 C 189.644531 32.609375 191.347656 28.433594 194.007812 25.097656 C 195.804688 22.847656 198.042969 20.992188 200.632812 19.648438 C 203.5625 18.125 206.9375 17.246094 210.65625 17.246094 C 215.558594 17.246094 219.902344 18.773438 223.40625 21.347656 C 227.40625 24.285156 230.292969 28.585938 231.625 33.574219 C 232.164062 35.585938 232.460938 37.703125 232.460938 39.890625 L 232.460938 40.09375 C 232.460938 47.539062 229.226562 54.144531 223.878906 58.226562 C 220.359375 60.917969 215.925781 62.523438 210.867188 62.523438 M 248.953125 37.476562 C 248.65625 32.277344 247.324219 27.371094 245.128906 22.96875 C 239.101562 10.898438 226.550781 2.632812 210.867188 2.632812 C 197.472656 2.632812 186.292969 8.738281 179.523438 18.074219 C 178.757812 19.125 178.050781 20.222656 177.402344 21.351562 C 176.164062 23.511719 175.144531 25.804688 174.363281 28.207031 C 173.160156 31.886719 172.511719 35.8125 172.511719 39.890625 L 172.511719 40.09375 C 172.511719 60.574219 188.449219 77.144531 210.65625 77.144531 C 221.53125 77.144531 230.9375 73.121094 237.71875 66.621094 C 244.800781 59.835938 249.015625 50.351562 249.015625 39.890625 L 249.015625 39.679688 C 249.015625 38.941406 248.992188 38.207031 248.953125 37.476562 "/>
    <path style=" stroke:none;fill-rule:nonzero;fill:rgb(4.313725%,2.352941%,1.960784%);fill-opacity:1;" d="M 303.511719 28.464844 L 303.511719 28.671875 C 303.511719 28.730469 303.503906 28.792969 303.503906 28.851562 C 303.414062 34.824219 299.011719 38.863281 291.378906 38.863281 L 275.339844 38.863281 L 275.339844 18.175781 L 291.066406 18.175781 C 295.621094 18.175781 299.125 19.402344 301.242188 21.796875 C 302.636719 23.382812 303.421875 25.476562 303.496094 28.070312 C 303.5 28.207031 303.511719 28.328125 303.511719 28.464844 M 313.382812 11.175781 C 311.703125 9.492188 309.714844 8.101562 307.445312 6.976562 C 303.34375 4.953125 298.308594 3.863281 292.40625 3.863281 L 267.417969 3.863281 C 263 3.863281 259.5 7.367188 259.5 11.789062 L 259.5 68.605469 C 259.5 73.019531 263 76.523438 267.417969 76.523438 C 271.847656 76.523438 275.339844 73.019531 275.339844 68.605469 L 275.339844 52.851562 L 287.988281 52.851562 L 303.410156 72.414062 C 305.261719 74.773438 307.621094 76.523438 311.222656 76.523438 C 315.03125 76.523438 318.726562 73.640625 318.726562 69.21875 C 318.726562 66.75 317.703125 65.097656 316.160156 63.148438 L 305.539062 50.230469 L 305.15625 49.765625 C 311.824219 47.019531 316.683594 42.292969 318.617188 35.179688 C 318.902344 34.140625 319.132812 33.058594 319.285156 31.914062 C 319.460938 30.625 319.550781 29.269531 319.550781 27.847656 L 319.550781 27.644531 C 319.550781 20.84375 317.390625 15.1875 313.382812 11.175781 "/>
    <path style=" stroke:none;fill-rule:nonzero;fill:rgb(4.313725%,2.352941%,1.960784%);fill-opacity:1;" d="M 386.304688 68.429688 C 386.050781 64.746094 382.996094 61.804688 379.257812 61.804688 L 346.660156 61.804688 L 346.660156 46.675781 L 374.117188 46.675781 C 375.203125 46.675781 376.222656 46.414062 377.148438 45.988281 C 379.539062 44.875 381.203125 42.5 381.203125 39.679688 C 381.203125 35.773438 378.023438 32.578125 374.117188 32.578125 L 346.660156 32.578125 L 346.660156 17.96875 L 378.742188 17.96875 C 382.648438 17.96875 385.84375 14.882812 385.84375 10.972656 C 385.84375 7.0625 382.648438 3.867188 378.742188 3.867188 L 338.847656 3.867188 C 334.429688 3.867188 330.933594 7.367188 330.933594 11.789062 L 330.933594 67.984375 C 330.933594 72.414062 334.429688 75.910156 338.847656 75.910156 L 379.257812 75.910156 C 383.160156 75.910156 386.351562 72.8125 386.351562 68.90625 C 386.351562 68.746094 386.316406 68.59375 386.304688 68.429688 "/>
    <path style=" stroke:none;fill-rule:nonzero;fill:rgb(4.313725%,2.352941%,1.960784%);fill-opacity:1;" d="M 39.851562 29.074219 C 34.589844 29.074219 30.222656 32.902344 29.367188 37.921875 C 29.269531 38.511719 29.203125 39.105469 29.203125 39.71875 C 29.203125 45.605469 33.976562 50.375 39.851562 50.375 C 40.410156 50.375 40.949219 50.320312 41.484375 50.234375 C 46.585938 49.449219 50.496094 45.046875 50.496094 39.71875 C 50.496094 33.84375 45.734375 29.074219 39.851562 29.074219 "/>
    <path style=" stroke:none;fill-rule:nonzero;fill:rgb(4.313725%,2.352941%,1.960784%);fill-opacity:1;" d="M 623.355469 7.851562 C 623.355469 5.617188 625.1875 3.789062 627.316406 3.789062 C 629.558594 3.789062 631.382812 5.617188 631.382812 7.851562 L 631.382812 35.921875 L 672.425781 35.921875 L 672.425781 7.851562 C 672.425781 5.617188 674.253906 3.789062 676.488281 3.789062 C 678.621094 3.789062 680.453125 5.617188 680.453125 7.851562 L 680.453125 71.914062 C 680.453125 74.152344 678.621094 75.980469 676.488281 75.980469 C 674.253906 75.980469 672.425781 74.152344 672.425781 71.914062 L 672.425781 43.441406 L 631.382812 43.441406 L 631.382812 71.914062 C 631.382812 74.152344 629.558594 75.980469 627.316406 75.980469 C 625.1875 75.980469 623.355469 74.152344 623.355469 71.914062 L 623.355469 7.851562 "/>
    <path style=" stroke:none;fill-rule:nonzero;fill:rgb(4.313725%,2.352941%,1.960784%);fill-opacity:1;" d="M 412.945312 7.878906 C 412.945312 5.640625 414.773438 3.8125 416.90625 3.8125 C 419.140625 3.8125 420.96875 5.640625 420.96875 7.878906 L 420.96875 35.929688 L 461.992188 35.929688 L 461.992188 7.878906 C 461.992188 5.640625 463.820312 3.8125 466.054688 3.8125 C 468.1875 3.8125 470.015625 5.640625 470.015625 7.878906 L 470.015625 71.902344 C 470.015625 74.140625 468.1875 75.96875 466.054688 75.96875 C 463.820312 75.96875 461.992188 74.140625 461.992188 71.902344 L 461.992188 43.449219 L 420.96875 43.449219 L 420.96875 71.902344 C 420.96875 74.140625 419.140625 75.96875 416.90625 75.96875 C 414.773438 75.96875 412.945312 74.140625 412.945312 71.902344 L 412.945312 7.878906 "/>
    <path style=" stroke:none;fill-rule:nonzero;fill:rgb(4.313725%,2.352941%,1.960784%);fill-opacity:1;" d="M 476.554688 7.878906 C 476.554688 5.640625 478.386719 3.8125 480.515625 3.8125 C 482.75 3.8125 484.578125 5.640625 484.578125 7.878906 L 484.578125 71.902344 C 484.578125 74.140625 482.75 75.96875 480.515625 75.96875 C 478.386719 75.96875 476.554688 74.140625 476.554688 71.902344 L 476.554688 7.878906 "/>
    <path style=" stroke:none;fill-rule:nonzero;fill:rgb(4.313725%,2.352941%,1.960784%);fill-opacity:1;" d="M 514.898438 11.738281 L 494.285156 11.738281 C 492.253906 11.738281 490.527344 10.113281 490.527344 8.078125 C 490.527344 6.046875 492.253906 4.320312 494.285156 4.320312 L 543.632812 4.320312 C 545.667969 4.320312 547.394531 6.046875 547.394531 8.078125 C 547.394531 10.113281 545.667969 11.738281 543.632812 11.738281 L 523.019531 11.738281 L 523.019531 71.902344 C 523.019531 74.140625 521.195312 75.96875 518.957031 75.96875 C 516.726562 75.96875 514.898438 74.140625 514.898438 71.902344 L 514.898438 11.738281 "/>
    <path style=" stroke:none;fill-rule:nonzero;fill:rgb(4.313725%,2.352941%,1.960784%);fill-opacity:1;" d="M 548.574219 66.925781 C 547.65625 66.3125 547.050781 65.195312 547.050781 63.875 C 547.050781 61.640625 548.777344 59.914062 550.90625 59.914062 C 551.925781 59.914062 552.839844 60.320312 553.34375 60.824219 C 560.050781 66.515625 566.75 69.261719 575.785156 69.261719 C 585.328125 69.261719 591.625 64.179688 591.625 57.167969 L 591.625 56.964844 C 591.625 50.355469 588.070312 46.597656 573.144531 43.449219 C 556.796875 39.890625 549.28125 34.601562 549.28125 22.917969 L 549.28125 22.714844 C 549.28125 11.535156 559.132812 3.304688 572.636719 3.304688 C 581.980469 3.304688 588.78125 5.640625 595.28125 10.316406 C 596.09375 10.925781 597.007812 12.042969 597.007812 13.566406 C 597.007812 15.703125 595.28125 17.429688 593.148438 17.429688 C 592.234375 17.429688 591.523438 17.226562 590.8125 16.71875 C 584.820312 12.347656 579.035156 10.519531 572.433594 10.519531 C 563.191406 10.519531 557.304688 15.601562 557.304688 22.003906 L 557.304688 22.207031 C 557.304688 28.914062 560.960938 32.675781 576.597656 36.03125 C 592.4375 39.484375 599.75 45.277344 599.75 56.152344 L 599.75 56.355469 C 599.75 68.550781 589.597656 76.476562 575.480469 76.476562 C 565.121094 76.476562 556.492188 73.222656 548.574219 66.925781 "/>
    <g clip-path="url(#clip1)" clip-rule="nonzero">
      <path style=" stroke:none;fill-rule:nonzero;fill:rgb(4.313725%,2.352941%,1.960784%);fill-opacity:1;" d="M 75.3125 52.964844 C 74.691406 50.984375 73.375 49.230469 71.484375 48.164062 C 68.117188 46.253906 63.761719 46.953125 61.164062 49.824219 C 59.835938 51.292969 59 53.191406 57.734375 54.726562 C 56.226562 56.582031 54.367188 58.195312 52.355469 59.488281 C 51.992188 59.722656 51.613281 59.9375 51.238281 60.148438 C 44.234375 64.089844 35.46875 64.117188 28.421875 60.160156 C 20.953125 55.769531 16.292969 47.695312 16.65625 38.960938 C 16.816406 35.136719 17.941406 31.453125 19.824219 28.226562 C 22.113281 24.304688 25.515625 21.046875 29.714844 19.019531 C 33.613281 17.132812 37.796875 16.464844 42.089844 16.777344 C 45.925781 17.0625 49.355469 19.25 53.167969 17.570312 C 56.40625 16.152344 58.394531 12.742188 58.128906 9.242188 C 58.113281 9.039062 58.117188 8.84375 58.085938 8.644531 C 57.464844 4.632812 54.378906 2.421875 50.699219 1.417969 C 39.542969 -1.636719 27.738281 0.367188 18.328125 6.316406 C 14.308594 8.863281 10.738281 12.140625 7.832031 16.035156 C 6.597656 17.691406 5.464844 19.441406 4.492188 21.316406 C 3.488281 23.230469 2.679688 25.199219 2.011719 27.195312 C -2.746094 41.492188 1.113281 57.441406 11.707031 68.207031 C 12.792969 69.316406 13.925781 70.386719 15.152344 71.375 C 19.429688 74.820312 24.324219 77.15625 29.453125 78.492188 C 40.578125 81.386719 52.804688 79.386719 62.449219 72.8125 C 63.839844 71.867188 65.195312 70.855469 66.46875 69.714844 C 69.832031 66.703125 73.414062 62.824219 75.136719 58.570312 C 75.867188 56.738281 75.875 54.757812 75.3125 52.964844 "/>
    </g>
    <g clip-path="url(#clip2)" clip-rule="nonzero">
      <path style=" stroke:none;fill-rule:nonzero;fill:rgb(4.313725%,2.352941%,1.960784%);fill-opacity:1;" d="M 711.628906 68.046875 C 729.613281 68.046875 741.089844 55.847656 741.089844 40.085938 L 741.089844 39.882812 C 741.089844 24.121094 729.613281 11.71875 711.628906 11.71875 L 694.96875 11.71875 L 694.96875 68.046875 Z M 686.945312 8.359375 C 686.945312 6.125 688.769531 4.296875 690.90625 4.296875 L 711.628906 4.296875 C 733.980469 4.296875 749.425781 19.648438 749.425781 39.679688 L 749.425781 39.882812 C 749.425781 59.914062 733.980469 75.472656 711.628906 75.472656 L 690.90625 75.472656 C 688.769531 75.472656 686.945312 73.640625 686.945312 71.40625 L 686.945312 8.359375 "/>
    </g>
  </g>
</svg>