<?xml version="1.0" encoding="UTF-8" ?>
<!DOCTYPE svg PUBLIC "-//W3C//DTD SVG 1.1//EN" "http://www.w3.org/Graphics/SVG/1.1/DTD/svg11.dtd">
<svg width="1550pt" height="118pt" viewBox="0 0 1550 118" version="1.1" xmlns="http://www.w3.org/2000/svg">
<g id="#ffffffff">
</g>
<g id="#370505ff">
<path fill="#370505" opacity="1.00" d=" M 55.68 0.00 L 62.26 0.00 C 76.46 1.16 91.01 6.50 100.64 17.37 C 105.88 23.01 106.66 32.52 101.66 38.55 C 96.49 44.95 86.21 46.66 79.58 41.54 C 73.32 36.85 66.16 32.08 57.93 33.00 C 43.96 33.57 32.18 46.97 33.53 60.92 C 34.31 74.28 46.71 85.48 60.05 85.06 C 68.10 85.32 74.76 80.32 81.00 75.92 C 89.70 69.86 103.64 75.50 105.33 86.06 C 106.74 92.65 103.48 99.22 98.54 103.45 C 88.63 112.50 75.27 117.02 62.05 118.00 L 55.60 118.00 C 42.22 117.22 29.15 111.84 19.31 102.72 C 7.89 92.38 0.92 77.47 0.00 62.12 L 0.00 56.36 C 0.75 40.84 7.82 25.76 19.33 15.31 C 29.19 6.17 42.28 0.76 55.68 0.00 Z" />
<path fill="#370505" opacity="1.00" d=" M 340.48 5.75 C 353.71 3.74 367.64 6.78 378.75 14.27 C 391.81 22.86 400.86 37.35 402.53 52.93 C 404.03 65.66 400.72 78.88 393.35 89.37 C 384.61 102.05 370.24 110.66 354.93 112.33 C 341.99 113.87 328.54 110.62 317.80 103.22 C 306.24 95.39 297.89 82.93 295.28 69.19 C 292.69 56.02 295.28 41.91 302.50 30.59 C 310.77 17.32 325.00 7.98 340.48 5.75 M 342.49 25.69 C 335.47 27.06 328.93 30.80 324.18 36.16 C 313.42 47.85 312.62 67.05 322.32 79.62 C 331.26 92.13 349.51 96.65 363.14 89.40 C 378.14 82.18 385.57 63.05 379.69 47.54 C 374.71 32.54 358.12 22.37 342.49 25.69 Z" />
<path fill="#370505" opacity="1.00" d=" M 812.55 5.89 C 825.43 3.48 839.16 5.88 850.38 12.66 C 861.65 19.36 870.34 30.27 874.26 42.79 C 878.74 56.91 877.14 72.87 869.72 85.71 C 862.06 99.24 848.31 109.12 833.03 112.01 C 819.05 114.78 804.00 111.84 792.20 103.80 C 779.48 95.31 770.70 81.17 768.87 65.98 C 767.26 53.51 770.09 40.51 776.92 29.94 C 784.81 17.47 798.02 8.52 812.55 5.89 M 816.54 19.67 C 799.71 22.14 785.82 36.69 783.67 53.49 C 781.96 65.16 785.80 77.49 793.85 86.12 C 801.19 94.18 812.02 98.99 822.94 98.79 C 833.82 98.74 844.49 93.77 851.69 85.65 C 859.16 77.42 862.91 65.97 861.68 54.92 C 860.50 43.02 853.60 31.89 843.54 25.45 C 835.65 20.29 825.84 18.18 816.54 19.67 Z" />
<path fill="#370505" opacity="1.00" d=" M 945.38 5.66 C 963.42 2.66 982.85 9.44 994.79 23.36 C 996.68 25.32 995.85 28.39 993.94 30.00 C 991.76 32.01 989.41 35.32 986.02 34.27 C 982.85 32.91 980.73 29.99 978.00 27.99 C 972.11 23.08 964.78 19.84 957.09 19.33 C 945.21 18.26 933.09 23.23 925.15 32.08 C 917.58 40.31 913.72 51.81 914.92 62.94 C 916.00 74.74 922.69 85.85 932.59 92.35 C 942.41 98.93 955.36 100.68 966.51 96.64 C 973.05 94.37 978.54 89.99 983.48 85.26 C 985.41 83.18 988.88 82.91 990.86 85.10 C 993.31 87.29 997.54 90.43 995.17 94.11 C 986.33 104.85 972.90 111.51 959.11 112.77 C 946.12 114.05 932.70 110.47 922.15 102.76 C 910.54 94.44 902.50 81.31 900.46 67.16 C 898.34 53.50 901.73 39.07 909.77 27.82 C 918.02 16.05 931.16 7.84 945.38 5.66 Z" />
<path fill="#370505" opacity="1.00" d=" M 171.77 7.78 C 175.23 6.09 179.26 6.65 182.97 6.76 C 186.11 6.90 188.69 9.02 190.37 11.53 C 199.66 25.04 208.87 38.62 218.14 52.15 C 227.69 38.33 237.11 24.43 246.70 10.65 C 250.02 5.59 256.80 6.50 262.00 6.87 C 265.95 7.27 268.56 11.19 268.27 15.00 C 268.33 44.00 268.28 73.01 268.30 102.01 C 268.53 105.40 267.14 109.31 263.68 110.50 C 260.26 111.57 256.51 111.45 253.03 110.78 C 249.54 110.01 247.42 106.43 247.60 103.00 C 247.54 83.56 247.60 64.12 247.57 44.69 C 240.67 54.47 234.32 64.64 227.23 74.29 C 224.40 78.14 219.16 78.04 214.90 77.58 C 211.72 77.28 209.37 74.81 207.68 72.32 C 201.37 63.13 195.19 53.86 188.89 44.67 C 188.84 63.81 188.88 82.96 188.87 102.10 C 188.99 105.15 187.98 108.61 185.08 110.08 C 181.64 111.72 177.60 111.40 173.94 110.87 C 170.32 110.23 168.05 106.61 168.18 103.09 C 168.07 74.06 168.17 45.02 168.13 15.99 C 168.04 12.92 168.80 9.32 171.77 7.78 Z" />
<path fill="#370505" opacity="1.00" d=" M 430.99 9.01 C 433.02 6.80 436.23 6.60 439.05 6.63 C 450.35 6.70 461.66 6.54 472.97 6.71 C 489.02 7.29 503.24 21.01 504.34 37.05 C 505.63 48.70 498.80 59.92 489.20 66.09 C 494.39 70.59 498.00 76.69 499.81 83.29 C 501.62 89.90 503.85 96.40 505.38 103.09 C 506.40 107.09 502.90 110.74 499.06 111.08 C 495.42 111.23 491.41 111.85 488.09 110.05 C 484.31 107.72 484.13 102.81 482.82 99.01 C 480.36 91.20 479.44 81.87 472.24 76.70 C 465.86 71.51 457.20 73.11 449.61 72.88 C 449.57 82.93 449.66 92.99 449.57 103.04 C 449.73 106.57 447.49 110.21 443.87 110.88 C 440.43 111.42 436.76 111.58 433.43 110.45 C 430.03 109.20 428.67 105.36 428.88 102.01 C 428.88 73.36 428.89 44.71 428.88 16.06 C 428.86 13.59 429.15 10.85 430.99 9.01 M 449.61 26.12 C 449.61 35.21 449.60 44.30 449.61 53.39 C 456.74 53.34 463.87 53.51 471.00 53.32 C 477.45 53.08 482.91 47.41 483.25 41.02 C 484.04 33.84 478.29 26.53 470.96 26.19 C 463.84 26.01 456.72 26.17 449.61 26.12 Z" />
<path fill="#370505" opacity="1.00" d=" M 536.60 8.57 C 538.63 6.81 541.45 6.61 544.02 6.63 C 560.00 6.68 575.98 6.59 591.95 6.67 C 595.73 6.48 599.70 9.01 600.11 12.98 C 600.40 16.48 600.84 20.60 598.43 23.50 C 596.37 25.91 592.95 26.18 590.00 26.13 C 578.27 26.10 566.53 26.12 554.80 26.12 C 554.80 33.88 554.79 41.63 554.81 49.39 C 565.17 49.44 575.53 49.32 585.89 49.44 C 589.39 49.39 593.14 51.50 593.78 55.17 C 594.28 58.42 594.53 62.00 593.08 65.06 C 591.60 67.95 588.12 68.91 585.10 68.91 C 575.00 69.00 564.90 68.91 554.80 68.95 C 554.81 76.53 554.77 84.12 554.83 91.71 C 567.21 91.72 579.60 91.66 591.98 91.73 C 595.31 91.62 599.15 93.06 600.28 96.49 C 601.21 99.72 601.22 103.28 600.30 106.52 C 599.20 109.95 595.32 111.33 592.02 111.22 C 576.02 111.27 560.01 111.22 544.01 111.25 C 541.26 111.26 538.19 110.96 536.19 108.85 C 534.14 106.80 533.98 103.73 533.99 101.01 C 534.02 72.64 533.99 44.27 534.00 15.91 C 534.01 13.29 534.44 10.34 536.60 8.57 Z" />
<path fill="#370505" opacity="1.00" d=" M 665.49 11.95 C 665.31 9.32 667.30 6.72 670.05 6.69 C 673.64 6.24 679.41 6.16 679.88 10.94 C 680.16 24.35 679.91 37.78 680.00 51.20 C 697.07 51.20 714.13 51.21 731.19 51.19 C 731.21 38.45 731.18 25.70 731.21 12.96 C 731.10 10.66 731.80 7.92 734.21 7.04 C 736.99 6.34 740.04 6.33 742.83 7.06 C 745.23 7.97 745.90 10.70 745.80 13.02 C 745.80 43.69 745.80 74.36 745.80 105.04 C 746.00 107.63 744.84 110.74 741.96 111.20 C 739.35 111.52 736.60 111.69 734.07 110.90 C 731.77 109.97 731.12 107.33 731.21 105.08 C 731.18 91.72 731.21 78.36 731.20 65.00 C 714.13 65.00 697.07 65.00 680.00 65.00 C 679.97 78.69 680.05 92.38 679.97 106.07 C 680.08 108.45 678.48 110.92 676.01 111.22 C 673.41 111.50 670.65 111.72 668.16 110.82 C 665.91 109.86 665.34 107.23 665.45 105.02 C 665.48 74.00 665.41 42.97 665.49 11.95 Z" />
<path fill="#370505" opacity="1.00" d=" M 1025.33 13.00 C 1025.14 10.45 1026.20 7.38 1029.02 6.83 C 1031.61 6.47 1034.34 6.32 1036.89 7.04 C 1039.31 7.90 1040.03 10.65 1039.93 12.96 C 1039.96 27.10 1039.92 41.25 1039.95 55.40 C 1054.50 40.12 1068.89 24.68 1083.51 9.47 C 1086.58 5.72 1091.79 6.47 1096.08 6.73 C 1099.47 7.12 1100.62 11.99 1098.15 14.13 C 1085.60 27.32 1072.98 40.45 1060.38 53.59 C 1073.60 70.37 1086.89 87.08 1100.11 103.86 C 1102.45 106.14 1101.40 110.83 1097.97 111.26 C 1094.02 111.45 1088.95 112.42 1086.33 108.63 C 1074.22 93.88 1062.29 78.97 1050.27 64.15 C 1046.82 67.77 1043.37 71.39 1039.94 75.03 C 1039.93 85.05 1039.96 95.08 1039.93 105.11 C 1040.02 107.40 1039.28 110.10 1036.90 110.96 C 1034.33 111.67 1031.59 111.54 1029.00 111.15 C 1026.20 110.61 1025.14 107.55 1025.33 105.02 C 1025.32 74.35 1025.33 43.67 1025.33 13.00 Z" />
<path fill="#370505" opacity="1.00" d=" M 1129.76 7.82 C 1131.46 6.34 1133.86 6.66 1135.97 6.56 C 1152.63 6.64 1169.30 6.48 1185.97 6.64 C 1188.45 6.52 1190.89 8.37 1191.07 10.94 C 1191.20 13.54 1191.65 16.54 1190.01 18.79 C 1188.56 20.56 1186.12 20.53 1184.06 20.55 C 1170.24 20.53 1156.43 20.54 1142.61 20.55 C 1142.60 31.07 1142.60 41.60 1142.61 52.12 C 1154.76 52.17 1166.91 52.09 1179.06 52.15 C 1185.12 51.78 1185.54 59.66 1183.73 63.72 C 1182.62 65.73 1180.12 66.09 1178.06 66.06 C 1166.24 66.07 1154.42 66.05 1142.61 66.06 C 1142.61 76.53 1142.60 86.99 1142.61 97.45 C 1157.07 97.48 1171.54 97.43 1186.01 97.48 C 1188.41 97.32 1191.16 98.53 1191.68 101.11 C 1192.06 103.56 1192.21 106.19 1191.41 108.57 C 1190.40 111.08 1187.41 111.53 1185.04 111.43 C 1167.71 111.36 1150.38 111.53 1133.06 111.34 C 1130.19 111.49 1127.88 108.87 1128.05 106.09 C 1127.92 75.39 1128.05 44.68 1127.99 13.98 C 1128.01 11.86 1127.93 9.31 1129.76 7.82 Z" />
<path fill="#370505" opacity="1.00" d=" M 1215.36 13.58 C 1213.33 11.18 1214.87 7.09 1217.99 6.72 C 1222.40 6.37 1228.22 5.78 1230.66 10.43 C 1239.11 24.70 1247.36 39.08 1255.77 53.38 C 1264.11 39.13 1272.28 24.78 1280.67 10.57 C 1283.03 6.08 1288.63 6.17 1292.99 6.77 C 1295.79 7.39 1297.23 11.07 1295.42 13.37 C 1284.61 31.35 1273.40 49.09 1262.71 67.13 C 1262.38 80.38 1262.83 93.65 1262.50 106.90 C 1262.23 111.63 1256.57 111.80 1253.02 111.35 C 1250.19 111.44 1247.90 108.89 1248.09 106.12 C 1247.92 93.12 1248.25 80.10 1247.94 67.11 C 1237.28 49.15 1226.13 31.47 1215.36 13.58 Z" />
<path fill="#370505" opacity="1.00" d=" M 1348.94 12.98 C 1348.63 10.29 1349.99 7.09 1352.99 6.77 C 1356.71 6.25 1363.01 5.94 1363.38 11.08 C 1363.63 24.45 1363.39 37.83 1363.49 51.20 C 1380.52 51.25 1397.56 51.10 1414.59 51.28 C 1414.88 38.17 1414.56 25.05 1414.75 11.94 C 1414.59 9.42 1416.42 6.86 1419.07 6.72 C 1421.59 6.53 1424.33 6.24 1426.73 7.27 C 1428.86 8.26 1429.33 10.83 1429.29 12.96 C 1429.30 43.64 1429.30 74.32 1429.29 105.00 C 1429.34 107.15 1428.86 109.75 1426.70 110.75 C 1424.28 111.75 1421.55 111.47 1419.03 111.27 C 1416.40 111.12 1414.61 108.57 1414.75 106.07 C 1414.63 92.38 1414.73 78.69 1414.71 65.01 C 1397.63 64.99 1380.56 65.00 1363.48 65.00 C 1363.40 79.00 1363.64 93.01 1363.37 107.00 C 1363.05 111.66 1357.50 111.75 1354.01 111.36 C 1351.15 111.47 1348.77 108.95 1348.98 106.12 C 1348.89 75.07 1348.97 44.02 1348.94 12.98 Z" />
<path fill="#370505" opacity="1.00" d=" M 1458.92 11.89 C 1458.68 9.03 1461.12 6.48 1464.01 6.66 C 1476.65 6.50 1489.29 6.55 1501.93 6.65 C 1517.39 6.91 1532.92 14.46 1541.40 27.62 C 1546.93 35.91 1549.43 45.86 1550.00 55.73 L 1550.00 62.43 C 1549.44 71.78 1547.18 81.20 1542.17 89.20 C 1533.83 103.03 1517.82 111.02 1501.91 111.34 C 1489.27 111.46 1476.61 111.50 1463.98 111.34 C 1461.06 111.50 1458.66 108.90 1458.92 106.03 C 1458.86 74.65 1458.85 43.27 1458.92 11.89 M 1473.43 97.45 C 1478.27 97.46 1483.11 97.46 1487.97 97.46 C 1495.80 97.31 1503.88 98.18 1511.45 95.60 C 1519.14 93.22 1525.85 87.88 1529.79 80.85 C 1534.58 72.43 1535.65 62.38 1534.67 52.87 C 1533.74 44.12 1530.20 35.38 1523.62 29.36 C 1517.30 23.44 1508.54 20.60 1499.97 20.55 C 1491.12 20.52 1482.27 20.55 1473.43 20.55 C 1473.42 46.18 1473.42 71.82 1473.43 97.45 Z" />
</g>
</svg>
