<?xml version="1.0" encoding="UTF-8" standalone="no"?>
<!-- Created with Inkscape (http://www.inkscape.org/) -->

<svg
   xmlns:dc="http://purl.org/dc/elements/1.1/"
   xmlns:cc="http://creativecommons.org/ns#"
   xmlns:rdf="http://www.w3.org/1999/02/22-rdf-syntax-ns#"
   xmlns:svg="http://www.w3.org/2000/svg"
   xmlns="http://www.w3.org/2000/svg"
   xmlns:inkscape="http://www.inkscape.org/namespaces/inkscape"
   version="1.1"
   width="606.92499"
   height="59.837502"
   id="svg2"
   xml:space="preserve"><metadata
     id="metadata8"><rdf:RDF><cc:Work
         rdf:about=""><dc:format>image/svg+xml</dc:format><dc:type
           rdf:resource="http://purl.org/dc/dcmitype/StillImage" /></cc:Work></rdf:RDF></metadata><defs
     id="defs6"><clipPath
       id="clipPath18"><path
         d="m 0,0 4855,0 0,478.691 -4855,0 L 0,0 z"
         inkscape:connector-curvature="0"
         id="path20" /></clipPath></defs><g
     transform="matrix(1.25,0,0,-1.25,0,59.8375)"
     id="g10"><g
       transform="scale(0.1,0.1)"
       id="g12"><g
         id="g14"><g
           clip-path="url(#clipPath18)"
           id="g16"><path
             d="m 928.699,457.637 c -1.086,0.058 -2.117,0.308 -3.238,0.308 l -10.5,0 c -19.168,0 -32.731,-8 -42.633,-24.09 l -28.426,-46.21 -40.05,-65.079 -46.993,-76.375 -25.754,41.954 -69.265,112.871 -19.809,32.265 c -8.636,14.196 -22.851,24.664 -43.254,24.664 l -10.496,0 c -26.547,0 -47.539,-20.988 -47.539,-47.515 l 0,-344.5706 c 0,-11.875 4.418,-22.4219 11.5,-30.5196 8.438,-9.6562 20.742,-15.789 34.828,-15.789 25.942,0 46.918,20.3515 46.918,46.3086 l 0,214.8946 19.16,-29.504 49.981,-77.051 12.992,-20.019 c 9.871,-14.825 22.207,-24.094 39.52,-24.094 17.289,0 29.632,9.269 39.519,24.094 l 83.371,128.437 0,-215.5389 c 0,-25.9258 20.973,-47.5273 46.93,-47.5273 26.551,0 47.531,21.0234 47.531,47.5273 l 0,343.3519 c 0,25.429 -19.332,45.527 -44.293,47.207"
             inkscape:connector-curvature="0"
             id="path22"
             style="fill:#0b0605;fill-opacity:1;fill-rule:nonzero;stroke:none" /><path
             d="m 1266.32,103.562 c -76.56,0 -130.9,61.7 -130.9,135.801 l 0,1.262 c 0,5.027 0.29,9.98 0.77,14.871 2.7,27.551 12.91,52.609 28.9,72.629 10.79,13.484 24.22,24.617 39.77,32.695 17.6,9.141 37.87,14.414 60.21,14.414 29.43,0 55.52,-9.172 76.56,-24.621 24.03,-17.617 41.36,-43.437 49.35,-73.367 3.24,-12.062 5.02,-24.766 5.02,-37.883 l 0,-1.218 c 0,-44.688 -19.41,-84.309 -51.54,-108.809 -21.13,-16.133 -47.75,-25.774 -78.14,-25.774 m 228.72,150.274 c -1.77,31.203 -9.77,60.637 -22.96,87.043 -36.19,72.441 -111.56,122.035 -205.76,122.035 -80.42,0 -147.56,-36.644 -188.23,-92.652 -4.6,-6.317 -8.84,-12.899 -12.74,-19.676 -7.43,-12.957 -13.56,-26.719 -18.25,-41.125 -7.22,-22.078 -11.11,-45.633 -11.11,-70.098 l 0,-1.218 c 0,-122.883 95.71,-222.3052 229.08,-222.3052 65.29,0 121.78,24.129 162.51,63.1446 42.53,40.7106 67.85,97.6176 67.85,160.3786 l 0,1.262 c 0,4.434 -0.16,8.828 -0.39,13.211"
             inkscape:connector-curvature="0"
             id="path24"
             style="fill:#0b0605;fill-opacity:1;fill-rule:nonzero;stroke:none" /><path
             d="m 1822.7,307.91 0,-1.23 c 0,-0.371 -0.05,-0.735 -0.05,-1.094 -0.55,-35.84 -26.99,-60.059 -72.83,-60.059 l -96.32,0 0,124.129 94.46,0 c 27.34,0 48.39,-7.359 61.09,-21.746 8.39,-9.512 13.11,-22.07 13.54,-37.637 0.02,-0.812 0.11,-1.543 0.11,-2.363 m 59.26,103.738 c -10.09,10.09 -22.02,18.45 -35.64,25.192 -24.65,12.148 -54.87,18.672 -90.33,18.672 l -150.05,0 c -26.54,0 -47.55,-21.012 -47.55,-47.543 l 0,-340.8909 c 0,-26.5039 21.01,-47.5273 47.55,-47.5273 26.59,0 47.56,21.0234 47.56,47.5273 l 0,94.5239 75.96,0 92.62,-117.3832 c 11.12,-14.1602 25.29,-24.668 46.92,-24.668 22.86,0 45.06,17.3047 45.06,43.8476 0,14.8047 -6.15,24.7266 -15.41,36.4063 l -63.78,77.5073 -2.3,2.793 c 40.03,16.477 69.21,44.836 80.84,87.512 1.7,6.231 3.08,12.742 4.01,19.61 1.04,7.734 1.58,15.859 1.58,24.394 l 0,1.211 c 0,40.801 -12.96,74.746 -37.04,98.816"
             inkscape:connector-curvature="0"
             id="path26"
             style="fill:#0b0605;fill-opacity:1;fill-rule:nonzero;stroke:none" /><path
             d="m 2319.88,68.125 c -1.5,22.0977 -19.84,39.746 -42.3,39.746 l -195.77,0 0,90.781 164.89,0 c 6.52,0 12.65,1.563 18.2,4.121 14.35,6.688 24.35,20.918 24.35,37.852 0,23.437 -19.09,42.598 -42.55,42.598 l -164.89,0 0,87.675 192.66,0 c 23.45,0 42.65,18.504 42.65,41.973 0,23.453 -19.2,42.637 -42.65,42.637 l -239.57,0 c -26.54,0 -47.54,-21.008 -47.54,-47.539 l 0,-337.1682 c 0,-26.582 21,-47.5586 47.54,-47.5586 l 242.68,0 c 23.43,0 42.6,18.5742 42.6,42.0117 0,0.9766 -0.22,1.8945 -0.3,2.8711"
             inkscape:connector-curvature="0"
             id="path28"
             style="fill:#0b0605;fill-opacity:1;fill-rule:nonzero;stroke:none" /><path
             d="m 452.266,160.918 c -3.719,11.883 -11.614,22.402 -22.969,28.809 -20.219,11.445 -46.383,7.246 -61.985,-9.961 -7.988,-8.828 -12.996,-20.207 -20.609,-29.434 -9.047,-11.113 -20.211,-20.812 -32.301,-28.555 -2.183,-1.406 -4.437,-2.695 -6.707,-3.965 -42.043,-23.6518 -94.703,-23.8198 -137.019,-0.078 -44.84,26.356 -72.8283,74.786 -70.66,127.207 0.968,22.95 7.718,45.039 19.043,64.395 13.734,23.543 34.179,43.086 59.398,55.254 23.391,11.308 48.531,15.312 74.309,13.457 23.039,-1.731 43.629,-14.836 66.519,-4.777 19.442,8.527 31.391,28.976 29.793,49.972 -0.094,1.219 -0.055,2.391 -0.246,3.602 -3.738,24.062 -22.266,37.336 -44.355,43.355 C 237.457,488.531 166.586,476.5 110.074,440.801 85.9219,425.527 64.4961,405.867 47.0273,382.48 39.6133,372.559 32.8281,362.059 26.9883,350.801 20.9492,339.316 16.0859,327.5 12.0859,315.527 -16.4922,229.746 6.69531,134.062 70.3086,69.4531 76.8281,62.8125 83.6328,56.3867 90.9961,50.4492 116.684,29.7852 146.086,15.7617 176.887,7.75391 243.688,-9.60938 317.105,2.37109 375.035,41.8242 c 8.348,5.6758 16.496,11.7383 24.141,18.586 20.187,18.0664 41.707,41.3478 52.039,66.8628 4.39,10.997 4.43,22.883 1.051,33.645"
             inkscape:connector-curvature="0"
             id="path30"
             style="fill:#0b0605;fill-opacity:1;fill-rule:nonzero;stroke:none" /><path
             d="m 239.332,304.258 c -31.613,0 -57.832,-22.969 -62.961,-53.098 -0.601,-3.523 -0.988,-7.098 -0.988,-10.769 0,-35.313 28.66,-63.946 63.949,-63.946 3.34,0 6.59,0.332 9.801,0.84 30.629,4.719 54.121,31.133 54.121,63.106 0,35.254 -28.609,63.867 -63.922,63.867"
             inkscape:connector-curvature="0"
             id="path32"
             style="fill:#0b0605;fill-opacity:1;fill-rule:nonzero;stroke:none" /><path
             d="m 2479.62,431.699 c 0,13.426 10.97,24.391 23.77,24.391 13.42,0 24.39,-10.965 24.39,-24.391 l 0,-168.293 246.34,0 0,168.293 c 0,13.426 10.97,24.391 24.39,24.391 12.79,0 23.77,-10.965 23.77,-24.391 l 0,-384.1131 c 0,-13.414 -10.98,-24.3945 -23.77,-24.3945 -13.42,0 -24.39,10.9805 -24.39,24.3945 l 0,170.7341 -246.34,0 0,-170.7341 c 0,-13.414 -10.97,-24.3945 -24.39,-24.3945 -12.8,0 -23.77,10.9805 -23.77,24.3945 l 0,384.1131"
             inkscape:connector-curvature="0"
             id="path34"
             style="fill:#0b0605;fill-opacity:1;fill-rule:nonzero;stroke:none" /><path
             d="m 3246.38,238.426 0,1.222 c 0,96.954 -70.71,176.2 -168.28,176.2 -97.54,0 -167.05,-78.047 -167.05,-174.989 l 0,-1.211 c 0,-96.953 70.72,-176.2027 168.26,-176.2027 97.58,0 167.07,78.0467 167.07,174.9807 m -385.33,0 0,1.222 c 0,117.676 88.41,220.707 218.26,220.707 129.88,0 217.07,-101.832 217.07,-219.496 l 0,-1.211 c 0,-117.687 -88.4,-220.7222 -218.28,-220.7222 -129.86,0 -217.05,101.8362 -217.05,219.5002"
             inkscape:connector-curvature="0"
             id="path36"
             style="fill:#0b0605;fill-opacity:1;fill-rule:nonzero;stroke:none" /><path
             d="m 3333.61,238.426 0,1.222 c 0,120.711 90.22,220.707 215.82,220.707 68.9,0 112.8,-22.546 152.44,-55.472 4.86,-4.289 9.77,-10.969 9.77,-19.524 0,-12.8 -11.6,-23.777 -24.41,-23.777 -6.7,0 -12.18,3.055 -15.85,5.496 -32.92,29.27 -70.1,48.77 -122.55,48.77 -94.5,0 -165.22,-76.825 -165.22,-174.989 l 0,-1.211 c 0,-98.781 71.33,-176.2027 165.22,-176.2027 53.04,0 90.25,18.293 126.83,51.8277 3.65,3.653 9.14,6.688 15.24,6.688 12.18,0 23.16,-10.984 23.16,-23.1641 0,-7.3125 -3.65,-13.418 -7.93,-17.0586 -42.05,-38.418 -88.38,-62.8125 -158.53,-62.8125 -123.15,0 -213.99,96.9412 -213.99,219.5002"
             inkscape:connector-curvature="0"
             id="path38"
             style="fill:#0b0605;fill-opacity:1;fill-rule:nonzero;stroke:none" /><path
             d="m 3756.75,431.699 c 0,13.426 11,24.391 23.79,24.391 13.41,0 24.38,-10.965 24.38,-24.391 l 0,-233.508 243.3,249.368 c 5.48,4.89 10.97,8.531 18.88,8.531 12.81,0 23.19,-11.59 23.19,-23.766 0,-6.711 -3.07,-12.199 -7.92,-17.082 L 3931.14,265.254 4093.32,65.2617 c 4.27,-5.4883 6.71,-10.3711 6.71,-17.6758 0,-12.8007 -10.97,-24.3945 -24.37,-24.3945 -9.16,0 -15.27,4.8633 -19.52,10.9805 L 3897,232.336 l -92.08,-92.074 0,-92.6761 c 0,-13.414 -10.97,-24.3945 -24.38,-24.3945 -12.79,0 -23.79,10.9805 -23.79,24.3945 l 0,384.1131"
             inkscape:connector-curvature="0"
             id="path40"
             style="fill:#0b0605;fill-opacity:1;fill-rule:nonzero;stroke:none" /><path
             d="m 4143,50.6328 0,378.0192 c 0,13.414 11,24.395 23.81,24.395 l 265.21,0 c 12.21,0 21.96,-9.75 21.96,-21.945 0,-12.196 -9.75,-21.954 -21.96,-21.954 l -240.83,0 0,-145.742 213.39,0 c 12.21,0 21.96,-10.359 21.96,-21.922 0,-12.199 -9.75,-21.953 -21.96,-21.953 l -213.39,0 0,-149.3943 243.88,0 c 12.19,0 21.95,-9.7461 21.95,-21.9453 0,-12.1875 -9.76,-21.9414 -21.95,-21.9414 l -268.26,0 C 4154,26.25 4143,37.2266 4143,50.6328"
             inkscape:connector-curvature="0"
             id="path42"
             style="fill:#0b0605;fill-opacity:1;fill-rule:nonzero;stroke:none" /><path
             d="m 4641.97,193.914 -158.52,221.934 c -3.04,4.882 -5.48,10.363 -5.48,16.464 0,12.813 11.6,23.782 25,23.782 10.36,0 17.06,-6.09 23.18,-14.629 l 140.84,-203.039 142.05,203.039 c 6.1,8.539 12.21,14.629 22.58,14.629 13.4,0 23.77,-10.969 23.77,-23.782 0,-6.101 -3.67,-12.8 -6.72,-17.675 l -157.91,-219.508 0,-147.5431 c 0,-13.414 -10.98,-24.3945 -24.41,-24.3945 -13.39,0 -24.38,10.9805 -24.38,24.3945 l 0,146.3281"
             inkscape:connector-curvature="0"
             id="path44"
             style="fill:#0b0605;fill-opacity:1;fill-rule:nonzero;stroke:none" /></g></g></g></g></svg>