<?xml version="1.0" encoding="UTF-8" standalone="no"?>
<svg
   xmlns:svg="http://www.w3.org/2000/svg"
   xmlns="http://www.w3.org/2000/svg"
   version="1.1"
   width="566.92352"
   height="241.14"
   id="svg3038">
  <defs
     id="defs3040" />
  <g
     transform="translate(-66.53825,-411.79218)"
     id="layer1">
    <path
       d="m 66.53825,652.93218 566.9235,0 0,-241.14 -566.9235,0 0,241.14 z"
       id="path22"
       style="fill:#000000;fill-opacity:1;fill-rule:nonzero;stroke:none" />
    <path
       d="m 581.16875,489.98868 c -6.9525,-7.122 -16.2825,-9.327 -25.944,-9.327 l -29.175,0 0,104.46705 29.175,0 c 9.6615,0 18.9915,-2.20665 25.944,-9.3276 9.6675,-9.8379 8.988,-31.20405 8.988,-44.60445 0,-13.39635 0.6795,-31.371 -8.988,-41.208 z m 6.441,92.2572 c -7.122,7.1214 -17.634,11.0226 -30.1815,11.0226 l -40.5345,0 0,-120.7473 40.5345,0 c 12.5475,0 23.0595,3.9015 30.1815,11.0235 12.216,12.2085 11.706,31.374 11.706,47.652 0,16.2831 0.51,38.83935 -11.706,51.0492 z m -92.436,11.0226 0,-56.8101 -62.9205,0 0,56.8101 -9.1575,0 0,-120.7473 9.1575,0 0,55.79505 62.9205,0 0,-55.79505 9.156,0 0,120.7473 -9.156,0 m -189.6555,-40.41495 31.3095,0 0.002,0.002 4.035,0 11.1255,31.83525 11.1255,-31.83525 4.812,0 -14.0715,39.3528 -3.7335,0 -12.7335,-35.59275 -16.2885,0 0,35.59275 -4.1955,0 0,-35.59275 -11.388,0 0,-3.7623 z m -29.6415,39.35505 0,-35.59275 -11.388,0 0,-3.7623 26.976,0 0,3.7623 -11.385,0 0,35.59275 -4.203,0 z m -28.98,-39.3528 0,35.59395 18.5655,0 0,3.75885 -22.767,0 0,-39.3528 4.2015,0 z m -39.44985,0 24.43035,0 0,3.76005 -20.2293,0 0,13.8702 17.2398,0 0,3.75585 -17.2398,0 0,14.20785 20.2293,0 0,3.75885 -24.43035,0 0,-39.3528 z m -46.98345,39.3528 3.9222,0 8.73285,-31.50885 8.73405,31.50885 3.9222,0 10.0623,-39.3528 -4.4754,0 -7.6833,31.725 -8.6802,-31.725 -3.75405,0 -8.68005,31.725 -7.68405,-31.725 -4.473,0 10.05645,39.3528 z m 135.4503,0 0,-5.19795 5.1945,0 0,5.19795 -5.1945,0 m 33.6855,-85.6911 c 0,13.1742 0.666,16.3377 3.267,19.2276 1.92,2.20605 4.9995,3.648 8.649,3.648 3.6555,0 6.648,-1.44195 8.559,-3.648 2.592,-2.8899 3.366,-6.0534 3.366,-19.2276 0,-13.1748 -0.774,-16.3458 -3.366,-19.2273 -1.911,-2.208 -4.9035,-3.654 -8.559,-3.654 -3.6495,0 -6.729,1.446 -8.649,3.654 -2.601,2.8815 -3.267,6.0525 -3.267,19.2273 z m -13.3665,0 c 0,-11.8218 -0.1905,-20.3778 6.7305,-27.2958 4.8,-4.806 10.7685,-7.506 18.552,-7.506 7.794,0 13.6575,2.7 18.453,7.506 6.93,6.918 6.8295,15.474 6.8295,27.2958 0,11.82375 0.1005,20.38485 -6.8295,27.303 -4.7955,4.8093 -10.659,7.50645 -18.453,7.50645 -7.7835,0 -13.752,-2.69715 -18.552,-7.50645 -6.921,-6.91815 -6.7305,-15.47925 -6.7305,-27.303 z m -13.458,-34.2318 -13.371,0 0,41.9235 -27.1185,-41.9235 -11.925,0 0,68.4588 13.3755,0 0,-42.0153 27.1125,42.0153 11.9265,0 0,-68.4588 z m -70.8975,-0.005 -13.362,0 0,68.4633 13.362,0 0,-68.4633 z m -66.6495,0.005 0,29.8155 24.14235,-29.8155 16.24335,0 -22.6776,27.213 24.31005,41.2458 -15.57255,0 -17.59275,-31.14435 -8.85285,10.5645 0,20.57985 -13.3542,0 0,-68.4588 13.3542,0 m -64.54515,147.4725 310.73565,0 0,-14.3637 -310.73565,0 0,14.3637 z m 310.73565,-174.7905 0,14.355 -310.73565,0 0,-14.355 310.73565,0"
       id="path30"
       style="fill:#ffffff;fill-opacity:1;fill-rule:nonzero;stroke:none" />
  </g>
</svg>
