<?xml version="1.0" encoding="UTF-8" ?>
<!DOCTYPE svg PUBLIC "-//W3C//DTD SVG 1.1//EN" "http://www.w3.org/Graphics/SVG/1.1/DTD/svg11.dtd">
<svg width="1550pt" height="135pt" viewBox="0 0 1550 135" version="1.1" xmlns="http://www.w3.org/2000/svg">
<g id="#ffffffff">
</g>
<g id="#370505ff">
<path fill="#370505" opacity="1.00" d=" M 63.77 0.00 L 70.40 0.00 C 86.72 1.07 103.40 7.17 114.60 19.45 C 120.01 25.10 121.67 34.11 118.07 41.14 C 113.45 50.30 100.41 54.03 91.85 48.14 C 85.21 43.53 78.42 38.04 69.95 37.73 C 55.02 36.47 40.61 48.24 38.57 63.02 C 36.21 76.63 44.90 90.85 57.83 95.42 C 65.84 98.46 75.17 97.88 82.57 93.48 C 87.51 90.93 91.46 86.66 96.77 84.80 C 105.32 82.11 115.63 86.51 119.23 94.82 C 121.78 100.97 120.85 108.46 116.75 113.73 C 105.59 127.45 87.56 133.83 70.36 135.00 L 63.67 135.00 C 48.91 134.17 34.45 128.46 23.35 118.67 C 9.52 106.74 1.00 89.07 0.00 70.86 L 0.00 63.79 C 1.11 46.43 8.96 29.58 21.79 17.79 C 33.12 7.15 48.26 0.83 63.77 0.00 Z" />
<path fill="#370505" opacity="1.00" d=" M 388.52 6.65 C 401.17 4.64 414.42 6.65 425.87 12.38 C 439.70 19.20 450.80 31.36 456.26 45.79 C 461.69 59.94 461.57 76.12 455.88 90.17 C 450.16 104.50 438.81 116.44 424.86 122.98 C 411.59 129.29 396.08 130.64 381.92 126.78 C 366.64 122.71 353.12 112.53 344.98 98.98 C 338.26 87.95 335.25 74.74 336.48 61.89 C 337.83 46.08 345.78 31.03 357.87 20.79 C 366.53 13.37 377.26 8.41 388.52 6.65 M 392.17 29.21 C 383.79 30.59 375.98 35.00 370.36 41.35 C 362.50 50.06 358.94 62.43 360.94 73.99 C 362.63 84.59 368.91 94.37 377.92 100.22 C 386.66 106.02 397.93 107.80 408.03 104.95 C 417.19 102.45 425.20 96.27 430.17 88.21 C 435.74 79.31 437.45 68.13 434.86 57.96 C 432.23 47.26 424.84 37.82 415.01 32.80 C 408.05 29.18 399.91 27.92 392.17 29.21 Z" />
<path fill="#370505" opacity="1.00" d=" M 1189.25 14.23 C 1201.18 4.57 1218.60 3.38 1232.49 9.27 C 1242.03 13.28 1249.98 21.71 1251.93 32.05 C 1254.21 44.22 1249.59 58.62 1238.07 64.53 C 1243.78 66.76 1248.72 70.83 1252.01 76.01 C 1259.06 87.07 1258.68 102.35 1251.18 113.09 C 1246.20 120.31 1238.31 125.11 1229.93 127.37 C 1214.14 131.42 1195.38 129.50 1183.20 117.78 C 1176.96 111.69 1173.21 102.83 1174.07 94.07 C 1174.27 91.55 1176.49 89.54 1179.04 89.61 C 1182.28 89.56 1186.16 88.90 1188.86 91.16 C 1191.25 93.95 1190.14 98.01 1191.64 101.19 C 1194.14 107.94 1201.10 111.87 1207.94 112.86 C 1216.64 114.15 1226.43 113.17 1233.44 107.38 C 1240.72 101.41 1242.21 89.80 1236.89 82.08 C 1232.28 75.37 1223.89 72.16 1215.95 72.20 C 1213.06 72.33 1209.54 71.75 1208.26 68.78 C 1206.84 64.84 1207.07 58.47 1212.02 57.23 C 1217.54 56.71 1223.49 56.70 1228.24 53.35 C 1236.19 48.34 1237.97 36.12 1231.86 29.01 C 1225.71 21.57 1214.62 20.04 1205.85 23.11 C 1199.89 25.11 1195.27 30.60 1194.53 36.88 C 1194.09 39.56 1194.35 43.09 1191.57 44.59 C 1188.60 45.90 1185.20 45.42 1182.07 45.30 C 1179.40 45.16 1177.67 42.58 1177.70 40.09 C 1177.23 30.29 1181.61 20.41 1189.25 14.23 Z" />
<path fill="#370505" opacity="1.00" d=" M 195.42 9.44 C 199.05 6.89 203.75 7.66 207.92 7.64 C 211.71 7.58 215.18 9.73 217.22 12.85 C 227.95 28.41 238.51 44.09 249.22 59.66 C 260.17 43.78 270.98 27.80 282.00 11.97 C 284.19 8.72 288.20 7.43 291.98 7.58 C 295.79 7.63 300.13 7.08 303.35 9.58 C 305.92 11.52 306.57 14.91 306.49 17.95 C 306.49 50.30 306.46 82.66 306.50 115.01 C 306.46 117.72 306.66 120.65 305.19 123.06 C 303.59 125.94 300.16 127.22 297.00 127.21 C 293.25 127.26 288.96 127.67 285.87 125.11 C 283.44 123.18 282.75 119.91 282.82 116.95 C 282.81 94.99 282.84 73.02 282.81 51.06 C 275.83 61.33 268.91 71.64 261.91 81.89 C 259.95 84.79 257.57 87.91 253.91 88.61 C 250.92 89.12 247.83 89.11 244.84 88.64 C 241.22 88.03 238.78 85.00 236.84 82.14 C 229.80 71.82 222.85 61.44 215.81 51.13 C 215.74 73.42 215.89 95.71 215.74 118.00 C 215.86 122.05 213.16 126.06 209.08 126.86 C 205.23 127.40 201.13 127.64 197.39 126.44 C 193.58 125.10 191.90 120.87 192.08 117.10 C 192.04 84.05 192.06 51.01 192.07 17.96 C 192.03 14.86 192.72 11.35 195.42 9.44 Z" />
<path fill="#370505" opacity="1.00" d=" M 489.98 16.94 C 489.62 11.88 493.97 7.40 499.05 7.65 C 512.03 7.49 525.02 7.62 538.00 7.58 C 548.57 7.47 559.01 12.10 566.15 19.87 C 574.25 28.54 578.18 41.21 575.47 52.87 C 573.27 62.30 566.86 70.35 558.85 75.61 C 564.26 80.34 568.29 86.57 570.41 93.44 C 572.60 100.67 574.64 107.95 576.75 115.20 C 577.68 118.25 578.11 122.07 575.53 124.46 C 572.00 128.04 566.59 127.23 562.05 127.18 C 558.32 127.18 554.88 124.58 553.84 121.01 C 551.51 113.68 549.75 106.18 547.44 98.85 C 544.79 90.96 537.69 84.49 529.27 83.58 C 524.08 83.13 518.86 83.44 513.67 83.37 C 513.61 95.03 513.79 106.70 513.59 118.37 C 513.68 122.66 510.41 126.70 506.06 127.05 C 501.70 127.27 496.63 128.00 492.99 125.04 C 490.31 122.88 489.84 119.23 489.93 116.01 C 489.98 82.99 489.88 49.96 489.98 16.94 M 513.68 29.87 C 513.67 40.27 513.67 50.66 513.67 61.05 C 519.47 61.07 525.26 61.05 531.06 61.06 C 535.49 61.01 540.27 61.56 544.27 59.22 C 550.02 56.19 553.04 49.21 551.89 42.90 C 550.85 35.75 544.28 29.79 536.98 29.90 C 529.21 29.81 521.44 29.89 513.68 29.87 Z" />
<path fill="#370505" opacity="1.00" d=" M 612.95 9.87 C 615.42 7.66 618.90 7.55 622.04 7.57 C 640.01 7.61 657.99 7.53 675.96 7.60 C 680.10 7.39 684.60 9.80 685.44 14.13 C 685.97 17.67 686.22 21.50 684.90 24.90 C 683.49 28.38 679.58 29.90 676.05 29.85 C 661.97 29.90 647.89 29.84 633.81 29.87 C 633.79 38.75 633.80 47.63 633.80 56.51 C 645.53 56.56 657.25 56.46 668.98 56.55 C 672.62 56.46 676.64 58.20 677.95 61.83 C 679.08 65.24 678.92 69.01 678.31 72.51 C 677.39 76.68 673.01 78.92 669.00 78.78 C 657.27 78.84 645.54 78.77 633.81 78.81 C 633.79 87.52 633.80 96.23 633.80 104.94 C 648.20 104.97 662.61 104.88 677.01 104.98 C 681.21 104.84 685.62 107.58 686.21 111.98 C 686.57 115.68 687.00 119.78 685.17 123.19 C 683.37 126.39 679.41 127.32 676.00 127.24 C 657.67 127.24 639.34 127.23 621.01 127.24 C 617.98 127.31 614.65 126.79 612.50 124.46 C 610.30 122.24 610.03 118.96 610.05 116.01 C 610.07 83.33 610.05 50.64 610.06 17.96 C 610.03 15.06 610.62 11.84 612.95 9.87 Z" />
<path fill="#370505" opacity="1.00" d=" M 760.23 13.97 C 760.04 11.06 761.93 7.96 765.04 7.72 C 767.93 7.55 771.01 7.18 773.78 8.24 C 776.36 9.37 776.95 12.45 776.87 14.98 C 776.87 47.16 776.86 79.33 776.87 111.51 C 793.90 111.55 810.93 111.47 827.96 111.54 C 831.15 111.23 834.37 113.67 834.30 117.01 C 834.33 119.92 834.94 123.39 832.77 125.72 C 831.03 127.58 828.32 127.42 826.01 127.44 C 806.01 127.37 786.02 127.49 766.03 127.38 C 762.57 127.60 759.94 124.37 760.23 121.06 C 760.17 85.36 760.18 49.66 760.23 13.97 Z" />
<path fill="#370505" opacity="1.00" d=" M 864.25 8.27 C 867.00 7.17 870.09 7.55 872.99 7.70 C 876.10 7.91 878.09 11.02 877.86 13.96 C 877.87 49.68 877.88 85.40 877.85 121.12 C 878.07 124.04 876.05 127.10 872.98 127.30 C 870.08 127.45 866.99 127.83 864.25 126.72 C 861.72 125.56 861.14 122.55 861.26 120.05 C 861.27 85.03 861.27 50.02 861.26 15.00 C 861.14 12.48 861.70 9.44 864.25 8.27 Z" />
<path fill="#370505" opacity="1.00" d=" M 906.18 8.14 C 909.30 7.08 912.74 7.69 916.00 7.62 C 919.25 7.49 920.75 10.81 921.77 13.34 C 933.79 43.51 945.58 73.78 957.62 103.94 C 957.78 103.95 958.09 103.96 958.24 103.97 C 970.17 73.93 981.88 43.79 993.77 13.73 C 994.83 11.29 995.95 8.00 999.04 7.69 C 1002.30 7.54 1005.64 7.34 1008.89 7.85 C 1011.85 8.80 1012.09 12.43 1010.83 14.83 C 996.66 50.27 982.44 85.70 968.24 121.13 C 967.09 124.25 964.47 127.14 960.97 127.33 C 957.70 127.45 953.98 127.95 951.19 125.87 C 948.44 123.86 947.58 120.40 946.30 117.43 C 932.55 83.32 918.71 49.23 904.98 15.10 C 903.88 12.81 903.56 9.51 906.18 8.14 Z" />
<path fill="#370505" opacity="1.00" d=" M 1038.68 14.06 C 1038.27 10.47 1041.33 7.18 1044.98 7.60 C 1064.97 7.58 1084.96 7.54 1104.95 7.62 C 1107.58 7.51 1110.22 9.38 1110.60 12.07 C 1110.88 14.76 1111.11 17.63 1110.21 20.23 C 1109.25 22.68 1106.42 23.60 1104.00 23.47 C 1087.77 23.50 1071.53 23.47 1055.30 23.48 C 1055.29 35.54 1055.29 47.59 1055.30 59.64 C 1069.21 59.66 1083.13 59.60 1097.05 59.67 C 1100.08 59.42 1103.04 61.80 1103.10 64.92 C 1103.17 67.64 1103.63 70.66 1102.16 73.10 C 1100.88 75.12 1098.34 75.60 1096.13 75.54 C 1082.52 75.55 1068.92 75.54 1055.31 75.54 C 1055.28 87.53 1055.30 99.52 1055.30 111.52 C 1071.87 111.53 1088.44 111.50 1105.00 111.53 C 1107.65 111.35 1110.66 112.70 1111.32 115.49 C 1111.84 118.10 1111.83 120.84 1111.32 123.45 C 1110.67 126.24 1107.66 127.62 1105.00 127.42 C 1085.33 127.43 1065.65 127.41 1045.98 127.43 C 1043.95 127.46 1041.71 127.28 1040.26 125.71 C 1038.51 123.94 1038.67 121.29 1038.63 119.00 C 1038.68 84.02 1038.59 49.03 1038.68 14.06 Z" />
<path fill="#370505" opacity="1.00" d=" M 1320.34 13.96 C 1320.10 11.07 1322.00 8.01 1325.06 7.72 C 1327.95 7.53 1331.02 7.20 1333.82 8.21 C 1336.00 9.17 1336.96 11.65 1336.92 13.92 C 1336.98 28.80 1336.91 43.69 1336.95 58.58 C 1356.45 58.57 1375.95 58.59 1395.46 58.57 C 1395.50 43.43 1395.36 28.28 1395.53 13.14 C 1395.49 10.16 1398.04 7.54 1401.06 7.63 C 1403.61 7.57 1406.31 7.27 1408.79 8.12 C 1411.07 9.04 1412.15 11.60 1412.05 13.94 C 1412.07 49.65 1412.07 85.36 1412.05 121.07 C 1412.31 124.09 1410.11 127.25 1406.93 127.32 C 1404.06 127.42 1400.98 127.86 1398.30 126.65 C 1396.22 125.63 1395.43 123.19 1395.48 121.02 C 1395.42 105.47 1395.47 89.92 1395.46 74.37 C 1375.95 74.34 1356.45 74.36 1336.95 74.36 C 1336.91 89.94 1336.98 105.52 1336.92 121.10 C 1337.11 124.04 1335.07 127.14 1331.95 127.30 C 1329.03 127.44 1325.87 127.87 1323.14 126.64 C 1320.71 125.46 1320.20 122.51 1320.32 120.08 C 1320.35 84.71 1320.30 49.33 1320.34 13.96 Z" />
<path fill="#370505" opacity="1.00" d=" M 1445.92 13.94 C 1445.57 10.50 1448.44 7.29 1451.97 7.62 C 1466.96 7.59 1481.96 7.46 1496.95 7.69 C 1510.03 8.40 1523.04 13.42 1532.58 22.53 C 1543.92 33.10 1549.32 48.66 1550.00 63.89 L 1550.00 71.38 C 1549.30 84.47 1545.38 97.75 1536.84 107.91 C 1526.49 120.55 1510.10 127.27 1493.95 127.41 C 1479.95 127.41 1465.95 127.47 1451.95 127.38 C 1448.41 127.71 1445.56 124.46 1445.91 121.03 C 1445.86 85.33 1445.86 49.63 1445.92 13.94 M 1462.49 23.49 C 1462.48 52.83 1462.48 82.17 1462.49 111.51 C 1468.98 111.52 1475.47 111.52 1481.97 111.52 C 1489.31 111.45 1496.81 111.99 1503.98 109.99 C 1512.98 107.65 1521.11 101.91 1526.03 93.98 C 1532.00 84.51 1533.55 72.88 1532.63 61.89 C 1531.80 51.98 1528.23 41.99 1521.13 34.83 C 1514.11 27.54 1504.01 23.78 1494.00 23.53 C 1483.49 23.41 1472.99 23.51 1462.49 23.49 Z" />
</g>
</svg>
