<?xml version="1.0" encoding="UTF-8" standalone="yes"?>
<svg xmlns="http://www.w3.org/2000/svg" xmlns:xlink="http://www.w3.org/1999/xlink" width="914.6666666666666px" height="106.66666666666666px" viewBox="0 0 686 80" version="1.1">
  <defs>
    <clipPath id="clip1">
      <path d="M 0 0 L 76 0 L 76 79.785156 L 0 79.785156 Z M 0 0 "/>
    </clipPath>
    <clipPath id="clip2">
      <path d="M 636 4 L 685.960938 4 L 685.960938 77 L 636 77 Z M 636 4 "/>
    </clipPath>
  </defs>
  <g id="surface1">
    <path style=" stroke:none;fill-rule:nonzero;fill:rgb(4.313725%,2.352941%,1.960784%);fill-opacity:1;" d="M 154.632812 3.511719 C 154.453125 3.5 154.28125 3.460938 154.09375 3.460938 L 152.34375 3.460938 C 149.152344 3.460938 146.894531 4.792969 145.246094 7.472656 L 140.515625 15.175781 L 133.84375 26.023438 L 126.019531 38.75 L 121.734375 31.757812 L 110.199219 12.949219 L 106.902344 7.570312 C 105.464844 5.203125 103.097656 3.460938 99.699219 3.460938 L 97.953125 3.460938 C 93.53125 3.460938 90.035156 6.957031 90.035156 11.378906 L 90.035156 68.808594 C 90.035156 70.785156 90.773438 72.542969 91.949219 73.894531 C 93.355469 75.503906 95.40625 76.523438 97.75 76.523438 C 102.070312 76.523438 105.5625 73.132812 105.5625 68.808594 L 105.5625 32.992188 L 108.753906 37.910156 L 117.074219 50.75 L 119.238281 54.085938 C 120.882812 56.558594 122.933594 58.101562 125.816406 58.101562 C 128.695312 58.101562 130.75 56.558594 132.398438 54.085938 L 146.28125 32.679688 L 146.28125 68.605469 C 146.28125 72.925781 149.773438 76.523438 154.09375 76.523438 C 158.515625 76.523438 162.007812 73.019531 162.007812 68.605469 L 162.007812 11.378906 C 162.007812 7.140625 158.789062 3.789062 154.632812 3.511719 "/>
    <path style=" stroke:none;fill-rule:nonzero;fill:rgb(4.313725%,2.352941%,1.960784%);fill-opacity:1;" d="M 210.847656 62.523438 C 198.101562 62.523438 189.054688 52.238281 189.054688 39.890625 L 189.054688 39.679688 C 189.054688 38.839844 189.101562 38.015625 189.179688 37.199219 C 189.628906 32.609375 191.332031 28.433594 193.992188 25.097656 C 195.789062 22.847656 198.027344 20.992188 200.613281 19.648438 C 203.546875 18.125 206.921875 17.246094 210.640625 17.246094 C 215.539062 17.246094 219.882812 18.773438 223.386719 21.347656 C 227.390625 24.285156 230.273438 28.585938 231.605469 33.574219 C 232.144531 35.585938 232.441406 37.703125 232.441406 39.890625 L 232.441406 40.09375 C 232.441406 47.539062 229.207031 54.144531 223.859375 58.226562 C 220.339844 60.917969 215.910156 62.523438 210.847656 62.523438 M 248.929688 37.476562 C 248.636719 32.277344 247.304688 27.371094 245.109375 22.96875 C 239.082031 10.898438 226.53125 2.632812 210.847656 2.632812 C 197.457031 2.632812 186.277344 8.738281 179.507812 18.074219 C 178.742188 19.125 178.035156 20.222656 177.386719 21.351562 C 176.148438 23.511719 175.128906 25.804688 174.347656 28.207031 C 173.144531 31.886719 172.496094 35.8125 172.496094 39.890625 L 172.496094 40.09375 C 172.496094 60.574219 188.433594 77.144531 210.640625 77.144531 C 221.511719 77.144531 230.917969 73.121094 237.699219 66.621094 C 244.78125 59.835938 248.996094 50.351562 248.996094 39.890625 L 248.996094 39.679688 C 248.996094 38.941406 248.96875 38.207031 248.929688 37.476562 "/>
    <path style=" stroke:none;fill-rule:nonzero;fill:rgb(4.313725%,2.352941%,1.960784%);fill-opacity:1;" d="M 303.488281 28.464844 L 303.488281 28.671875 C 303.488281 28.730469 303.480469 28.792969 303.480469 28.851562 C 303.386719 34.824219 298.984375 38.863281 291.355469 38.863281 L 275.316406 38.863281 L 275.316406 18.175781 L 291.042969 18.175781 C 295.597656 18.175781 299.101562 19.402344 301.214844 21.796875 C 302.613281 23.382812 303.398438 25.476562 303.46875 28.070312 C 303.472656 28.207031 303.488281 28.328125 303.488281 28.464844 M 313.355469 11.175781 C 311.675781 9.492188 309.6875 8.101562 307.421875 6.976562 C 303.316406 4.953125 298.285156 3.863281 292.378906 3.863281 L 267.398438 3.863281 C 262.976562 3.863281 259.480469 7.367188 259.480469 11.789062 L 259.480469 68.605469 C 259.480469 73.019531 262.976562 76.523438 267.398438 76.523438 C 271.824219 76.523438 275.316406 73.019531 275.316406 68.605469 L 275.316406 52.851562 L 287.964844 52.851562 L 303.386719 72.414062 C 305.238281 74.773438 307.597656 76.523438 311.199219 76.523438 C 315.003906 76.523438 318.699219 73.640625 318.699219 69.21875 C 318.699219 66.75 317.675781 65.097656 316.132812 63.148438 L 305.515625 50.230469 L 305.132812 49.765625 C 311.796875 47.019531 316.65625 42.292969 318.59375 35.179688 C 318.875 34.140625 319.105469 33.058594 319.257812 31.914062 C 319.433594 30.625 319.523438 29.269531 319.523438 27.847656 L 319.523438 27.644531 C 319.523438 20.84375 317.363281 15.1875 313.355469 11.175781 "/>
    <path style=" stroke:none;fill-rule:nonzero;fill:rgb(4.313725%,2.352941%,1.960784%);fill-opacity:1;" d="M 386.269531 68.429688 C 386.019531 64.746094 382.964844 61.804688 379.226562 61.804688 L 346.632812 61.804688 L 346.632812 46.675781 L 374.085938 46.675781 C 375.171875 46.675781 376.191406 46.414062 377.117188 45.988281 C 379.507812 44.875 381.171875 42.5 381.171875 39.679688 C 381.171875 35.773438 377.992188 32.578125 374.085938 32.578125 L 346.632812 32.578125 L 346.632812 17.96875 L 378.710938 17.96875 C 382.613281 17.96875 385.8125 14.882812 385.8125 10.972656 C 385.8125 7.0625 382.613281 3.867188 378.710938 3.867188 L 338.820312 3.867188 C 334.402344 3.867188 330.90625 7.367188 330.90625 11.789062 L 330.90625 67.984375 C 330.90625 72.414062 334.402344 75.910156 338.820312 75.910156 L 379.226562 75.910156 C 383.128906 75.910156 386.320312 72.8125 386.320312 68.90625 C 386.320312 68.746094 386.285156 68.59375 386.269531 68.429688 "/>
    <path style=" stroke:none;fill-rule:nonzero;fill:rgb(4.313725%,2.352941%,1.960784%);fill-opacity:1;" d="M 39.851562 29.074219 C 34.585938 29.074219 30.21875 32.902344 29.367188 37.921875 C 29.265625 38.511719 29.203125 39.105469 29.203125 39.71875 C 29.203125 45.605469 33.972656 50.375 39.851562 50.375 C 40.40625 50.375 40.945312 50.320312 41.480469 50.234375 C 46.582031 49.449219 50.492188 45.046875 50.492188 39.71875 C 50.492188 33.84375 45.730469 29.074219 39.851562 29.074219 "/>
    <path style=" stroke:none;fill-rule:nonzero;fill:rgb(4.313725%,2.352941%,1.960784%);fill-opacity:1;" d="M 412.867188 7.921875 C 412.867188 5.675781 414.707031 3.839844 416.851562 3.839844 C 419.09375 3.839844 420.929688 5.675781 420.929688 7.921875 L 420.929688 68.40625 L 457.980469 68.40625 C 460.023438 68.40625 461.65625 70.140625 461.65625 72.1875 C 461.65625 74.230469 460.023438 75.863281 457.980469 75.863281 L 416.851562 75.863281 C 414.707031 75.863281 412.867188 74.023438 412.867188 71.777344 L 412.867188 7.921875 "/>
    <path style=" stroke:none;fill-rule:nonzero;fill:rgb(4.313725%,2.352941%,1.960784%);fill-opacity:1;" d="M 467.996094 7.921875 C 467.996094 5.675781 469.835938 3.839844 471.976562 3.839844 C 474.222656 3.839844 476.0625 5.675781 476.0625 7.921875 L 476.0625 72.289062 C 476.0625 74.535156 474.222656 76.375 471.976562 76.375 C 469.835938 76.375 467.996094 74.535156 467.996094 72.289062 L 467.996094 7.921875 "/>
    <path style=" stroke:none;fill-rule:nonzero;fill:rgb(4.313725%,2.352941%,1.960784%);fill-opacity:1;" d="M 510.628906 73.308594 L 483.070312 9.660156 C 482.765625 9.046875 482.664062 8.535156 482.664062 7.820312 C 482.664062 5.777344 484.5 3.835938 486.746094 3.835938 C 488.785156 3.835938 490.21875 5.167969 490.929688 6.902344 L 515.628906 66.160156 L 540.433594 6.699219 C 541.148438 5.265625 542.578125 3.835938 544.414062 3.835938 C 546.660156 3.835938 548.394531 5.675781 548.394531 7.71875 C 548.394531 8.332031 548.292969 8.84375 548.089844 9.355469 L 520.425781 73.308594 C 519.511719 75.351562 518.082031 76.679688 515.734375 76.679688 L 515.324219 76.679688 C 512.976562 76.679688 511.449219 75.351562 510.628906 73.308594 "/>
    <path style=" stroke:none;fill-rule:nonzero;fill:rgb(4.313725%,2.352941%,1.960784%);fill-opacity:1;" d="M 554.5625 71.777344 L 554.5625 8.433594 C 554.5625 6.1875 556.402344 4.347656 558.542969 4.347656 L 602.941406 4.347656 C 604.980469 4.347656 606.617188 5.980469 606.617188 8.023438 C 606.617188 10.070312 604.980469 11.703125 602.941406 11.703125 L 562.625 11.703125 L 562.625 36.121094 L 598.351562 36.121094 C 600.386719 36.121094 602.023438 37.859375 602.023438 39.796875 C 602.023438 41.84375 600.386719 43.476562 598.351562 43.476562 L 562.625 43.476562 L 562.625 68.507812 L 603.449219 68.507812 C 605.496094 68.507812 607.125 70.140625 607.125 72.1875 C 607.125 74.230469 605.496094 75.863281 603.449219 75.863281 L 558.542969 75.863281 C 556.402344 75.863281 554.5625 74.023438 554.5625 71.777344 "/>
    <g clip-path="url(#clip1)" clip-rule="nonzero">
      <path style=" stroke:none;fill-rule:nonzero;fill:rgb(4.313725%,2.352941%,1.960784%);fill-opacity:1;" d="M 75.304688 52.964844 C 74.683594 50.984375 73.371094 49.230469 71.480469 48.164062 C 68.113281 46.253906 63.757812 46.953125 61.160156 49.824219 C 59.828125 51.292969 58.996094 53.191406 57.726562 54.726562 C 56.222656 56.582031 54.363281 58.195312 52.347656 59.488281 C 51.984375 59.722656 51.609375 59.9375 51.234375 60.148438 C 44.230469 64.089844 35.464844 64.117188 28.417969 60.160156 C 20.953125 55.769531 16.292969 47.695312 16.652344 38.960938 C 16.8125 35.136719 17.9375 31.453125 19.824219 28.226562 C 22.109375 24.304688 25.515625 21.046875 29.714844 19.019531 C 33.609375 17.132812 37.792969 16.464844 42.085938 16.777344 C 45.921875 17.0625 49.351562 19.25 53.164062 17.570312 C 56.398438 16.152344 58.390625 12.742188 58.125 9.242188 C 58.109375 9.039062 58.113281 8.84375 58.082031 8.644531 C 57.460938 4.632812 54.375 2.421875 50.695312 1.417969 C 39.539062 -1.636719 27.738281 0.367188 18.328125 6.316406 C 14.304688 8.863281 10.738281 12.140625 7.832031 16.035156 C 6.597656 17.691406 5.464844 19.441406 4.492188 21.316406 C 3.488281 23.230469 2.679688 25.199219 2.011719 27.195312 C -2.746094 41.492188 1.113281 57.441406 11.707031 68.207031 C 12.792969 69.316406 13.925781 70.386719 15.152344 71.375 C 19.429688 74.820312 24.324219 77.15625 29.453125 78.492188 C 40.574219 81.386719 52.800781 79.386719 62.445312 72.8125 C 63.835938 71.867188 65.191406 70.855469 66.464844 69.714844 C 69.824219 66.703125 73.410156 62.824219 75.128906 58.570312 C 75.859375 56.738281 75.867188 54.757812 75.304688 52.964844 "/>
    </g>
    <g clip-path="url(#clip2)" clip-rule="nonzero">
      <path style=" stroke:none;fill-rule:nonzero;fill:rgb(4.313725%,2.352941%,1.960784%);fill-opacity:1;" d="M 637.464844 65.976562 C 636.859375 65.371094 636.144531 64.25 636.144531 63.136719 C 636.144531 61.003906 637.972656 59.171875 640.101562 59.171875 C 641.421875 59.171875 642.433594 59.785156 643.046875 60.390625 C 648.21875 66.28125 654.304688 69.433594 662.320312 69.433594 C 670.945312 69.433594 677.84375 63.949219 677.84375 55.617188 L 677.84375 55.417969 C 677.84375 46.582031 669.625 41.707031 657.957031 41.707031 L 655.417969 41.707031 C 653.496094 41.707031 651.871094 40.183594 651.871094 38.253906 C 651.871094 37.238281 652.378906 36.222656 653.496094 35.105469 L 674.191406 11.648438 L 642.742188 11.648438 C 640.710938 11.648438 638.988281 10.125 638.988281 8.097656 C 638.988281 6.066406 640.710938 4.4375 642.742188 4.4375 L 681.496094 4.4375 C 683.726562 4.4375 685.351562 5.859375 685.351562 7.890625 C 685.351562 9.515625 684.539062 10.632812 683.425781 11.851562 L 662.523438 35.105469 C 674.898438 36.121094 685.960938 42.113281 685.960938 55.113281 L 685.960938 55.316406 C 685.960938 68.007812 675.410156 76.742188 662.21875 76.742188 C 651.367188 76.742188 643.148438 72.375 637.464844 65.976562 "/>
    </g>
  </g>
</svg>