<?xml version="1.0" encoding="UTF-8" ?>
<!DOCTYPE svg PUBLIC "-//W3C//DTD SVG 1.1//EN" "http://www.w3.org/Graphics/SVG/1.1/DTD/svg11.dtd">
<svg width="1550pt" height="135pt" viewBox="0 0 1550 135" version="1.1" xmlns="http://www.w3.org/2000/svg">
<g id="#ffffffff">
</g>
<g id="#370505ff">
<path fill="#370505" opacity="1.00" d=" M 63.84 0.00 L 70.44 0.00 C 86.75 1.06 103.43 7.15 114.66 19.39 C 120.09 25.05 121.78 34.09 118.16 41.15 C 113.42 50.56 99.88 54.13 91.33 47.75 C 84.46 42.76 76.98 37.31 68.03 37.67 C 52.33 37.40 38.20 51.34 38.27 67.03 C 37.68 82.73 51.42 96.94 67.05 97.30 C 76.36 98.09 84.49 92.83 91.60 87.52 C 100.01 80.93 113.57 84.17 118.63 93.40 C 122.61 100.65 120.79 110.17 115.03 115.95 C 103.66 127.99 87.01 133.82 70.78 135.00 L 63.68 135.00 C 48.93 134.16 34.48 128.46 23.37 118.67 C 9.53 106.75 1.00 89.08 0.00 70.86 L 0.00 63.83 C 1.10 46.21 9.18 29.14 22.33 17.32 C 33.61 6.95 48.56 0.82 63.84 0.00 Z" />
<path fill="#370505" opacity="1.00" d=" M 387.48 6.88 C 400.61 4.50 414.48 6.46 426.40 12.46 C 440.01 19.23 450.97 31.16 456.48 45.34 C 461.90 59.15 462.02 74.96 456.78 88.84 C 451.72 102.41 441.65 114.00 429.00 121.03 C 416.67 127.98 401.92 130.45 387.98 128.04 C 372.76 125.51 358.66 117.01 349.26 104.78 C 340.94 94.11 336.33 80.59 336.51 67.04 C 336.52 52.37 342.19 37.85 351.93 26.91 C 361.10 16.51 373.83 9.31 387.48 6.88 M 390.39 29.63 C 379.87 31.98 370.65 39.17 365.53 48.63 C 359.96 58.67 359.20 71.20 363.40 81.88 C 367.12 91.51 374.84 99.57 384.42 103.48 C 393.32 107.20 403.70 107.22 412.61 103.50 C 422.01 99.66 429.64 91.85 433.47 82.46 C 437.29 73.24 437.40 62.54 433.73 53.26 C 427.48 36.28 408.17 25.18 390.39 29.63 Z" />
<path fill="#370505" opacity="1.00" d=" M 192.29 17.01 C 192.14 13.23 194.24 9.21 198.08 8.18 C 201.98 7.26 206.08 7.44 210.04 7.86 C 213.62 8.28 216.25 11.03 218.15 13.87 C 228.57 29.14 238.99 44.41 249.42 59.68 C 260.19 44.02 270.90 28.33 281.69 12.69 C 283.69 9.52 287.25 7.55 291.01 7.63 C 295.17 7.64 299.91 6.90 303.49 9.50 C 306.16 11.42 306.83 14.92 306.74 18.01 C 306.73 51.01 306.74 84.02 306.74 117.03 C 306.82 120.09 306.03 123.51 303.38 125.37 C 299.80 127.90 295.09 127.28 290.97 127.07 C 286.37 126.85 282.85 122.56 283.10 118.05 C 282.99 95.72 283.10 73.38 283.05 51.05 C 276.03 61.38 269.06 71.74 262.02 82.06 C 260.09 84.88 257.71 87.93 254.15 88.60 C 251.07 89.14 247.89 89.13 244.82 88.59 C 241.26 87.90 238.90 84.87 236.98 82.05 C 229.96 71.76 223.01 61.42 216.00 51.12 C 215.98 73.11 216.04 95.10 215.97 117.08 C 216.22 121.13 214.08 125.54 209.95 126.67 C 206.08 127.53 201.94 127.54 198.08 126.63 C 194.34 125.58 192.19 121.69 192.30 117.96 C 192.24 84.31 192.25 50.66 192.29 17.01 Z" />
<path fill="#370505" opacity="1.00" d=" M 493.59 9.58 C 496.22 7.46 499.79 7.59 502.98 7.56 C 515.65 7.66 528.33 7.45 541.00 7.67 C 559.47 8.46 575.71 24.47 576.71 42.93 C 577.88 56.08 570.17 68.65 559.33 75.60 C 565.36 80.82 569.50 87.94 571.57 95.61 C 573.59 103.03 576.09 110.33 577.81 117.83 C 578.88 121.64 576.19 125.51 572.57 126.61 C 569.13 127.60 565.48 127.28 561.96 127.12 C 558.37 126.97 555.25 124.30 554.27 120.89 C 551.97 113.62 550.21 106.18 547.91 98.91 C 545.32 91.12 538.39 84.69 530.12 83.64 C 524.79 83.06 519.41 83.48 514.07 83.35 C 514.02 94.90 514.12 106.44 514.03 117.98 C 514.22 122.16 511.33 126.38 507.05 126.95 C 503.41 127.38 499.59 127.58 496.04 126.55 C 492.42 125.40 490.32 121.61 490.42 117.94 C 490.35 84.63 490.42 51.32 490.39 18.01 C 490.32 14.94 490.98 11.52 493.59 9.58 M 514.06 29.87 C 514.06 40.27 514.06 50.66 514.06 61.06 C 522.05 61.02 530.04 61.14 538.02 61.01 C 545.24 61.01 551.64 54.99 552.43 47.87 C 553.85 39.61 547.57 30.79 539.11 30.03 C 530.77 29.65 522.41 29.97 514.06 29.87 Z" />
<path fill="#370505" opacity="1.00" d=" M 613.14 10.17 C 615.42 7.85 618.87 7.57 621.95 7.57 C 639.29 7.58 656.64 7.60 673.99 7.56 C 677.37 7.56 681.28 7.57 683.83 10.16 C 686.94 13.25 686.48 18.04 686.24 22.04 C 686.02 26.42 682.03 29.75 677.76 29.78 C 663.27 30.00 648.78 29.79 634.30 29.87 C 634.30 38.76 634.29 47.64 634.30 56.52 C 645.86 56.53 657.43 56.49 668.99 56.53 C 672.45 56.47 676.39 57.59 678.08 60.89 C 679.77 64.34 679.46 68.41 678.97 72.10 C 678.26 76.29 674.03 78.84 669.99 78.75 C 658.10 78.87 646.21 78.77 634.32 78.79 C 634.27 87.51 634.31 96.22 634.29 104.94 C 648.52 104.96 662.75 104.90 676.98 104.96 C 680.79 104.83 685.07 106.57 686.37 110.44 C 687.38 114.02 687.34 117.95 686.49 121.56 C 685.33 125.58 680.92 127.39 677.04 127.22 C 658.05 127.23 639.05 127.28 620.06 127.20 C 616.49 127.26 612.72 125.40 611.40 121.95 C 610.22 118.77 610.66 115.32 610.57 112.01 C 610.59 80.69 610.57 49.37 610.58 18.06 C 610.56 15.26 611.02 12.20 613.14 10.17 Z" />
<path fill="#370505" opacity="1.00" d=" M 760.86 14.04 C 760.60 10.99 762.75 7.76 765.99 7.68 C 768.86 7.55 771.96 7.15 774.67 8.37 C 777.11 9.58 777.57 12.56 777.49 15.02 C 777.47 47.19 777.48 79.35 777.48 111.52 C 794.63 111.55 811.78 111.45 828.93 111.56 C 832.53 111.22 835.40 114.49 835.11 117.98 C 835.62 121.71 834.68 127.11 829.99 127.31 C 810.00 127.59 790.00 127.31 770.00 127.44 C 767.59 127.34 764.81 127.77 762.85 126.07 C 760.75 124.39 760.84 121.46 760.80 119.02 C 760.87 84.03 760.76 49.03 760.86 14.04 Z" />
<path fill="#370505" opacity="1.00" d=" M 865.21 8.16 C 869.81 6.96 878.28 6.44 878.54 13.08 C 878.70 48.75 878.55 84.42 878.62 120.09 C 878.83 122.84 877.89 126.19 874.92 127.02 C 872.03 127.67 868.98 127.59 866.08 127.13 C 863.34 126.55 861.88 123.68 862.02 121.06 C 861.97 85.70 862.03 50.35 861.99 14.99 C 861.83 12.39 862.53 9.26 865.21 8.16 Z" />
<path fill="#370505" opacity="1.00" d=" M 905.82 15.31 C 904.64 12.92 904.26 9.42 907.10 8.05 C 910.27 7.17 913.66 7.60 916.93 7.65 C 920.14 7.59 921.52 10.91 922.57 13.39 C 934.67 43.86 946.67 74.37 958.75 104.85 C 970.69 74.52 982.60 44.17 994.56 13.84 C 995.66 11.02 997.28 7.24 1000.98 7.61 C 1004.49 7.92 1009.13 6.32 1011.75 9.40 C 1013.51 12.21 1011.26 15.38 1010.39 18.12 C 996.98 51.52 983.57 84.91 970.20 118.32 C 968.86 121.89 967.16 126.22 962.98 127.13 C 960.06 127.59 956.99 127.68 954.11 126.97 C 951.14 126.05 949.38 123.24 948.34 120.50 C 934.18 85.43 919.96 50.39 905.82 15.31 Z" />
<path fill="#370505" opacity="1.00" d=" M 1039.56 14.01 C 1039.27 10.84 1041.63 7.59 1044.99 7.66 C 1064.96 7.47 1084.94 7.63 1104.92 7.58 C 1107.66 7.36 1110.84 8.71 1111.44 11.66 C 1111.90 14.40 1112.00 17.32 1111.23 20.01 C 1110.37 22.59 1107.47 23.59 1104.98 23.47 C 1088.71 23.50 1072.45 23.47 1056.18 23.48 C 1056.17 35.53 1056.18 47.59 1056.18 59.64 C 1070.11 59.67 1084.04 59.59 1097.97 59.67 C 1100.59 59.51 1103.33 61.18 1103.85 63.86 C 1104.24 66.73 1104.49 69.86 1103.37 72.61 C 1102.24 74.99 1099.42 75.64 1097.03 75.54 C 1083.41 75.55 1069.79 75.53 1056.18 75.55 C 1056.18 87.54 1056.17 99.53 1056.18 111.52 C 1073.11 111.57 1090.03 111.41 1106.96 111.60 C 1111.46 111.41 1113.16 116.31 1112.63 120.04 C 1113.03 123.50 1110.90 127.53 1106.99 127.35 C 1086.66 127.50 1066.33 127.40 1046.01 127.40 C 1042.31 127.86 1039.14 124.62 1039.56 120.95 C 1039.49 85.31 1039.49 49.66 1039.56 14.01 Z" />
<path fill="#370505" opacity="1.00" d=" M 1221.75 12.57 C 1223.33 10.42 1225.19 7.94 1228.10 7.73 C 1230.92 7.53 1234.00 7.15 1236.67 8.38 C 1239.09 9.61 1239.53 12.58 1239.48 15.04 C 1239.48 38.00 1239.49 60.97 1239.48 83.93 C 1244.25 84.08 1249.07 83.64 1253.83 84.19 C 1257.05 84.66 1258.54 88.10 1258.28 91.05 C 1258.60 94.24 1257.70 98.44 1254.01 99.13 C 1249.18 99.65 1244.32 99.22 1239.48 99.36 C 1239.40 106.89 1239.64 114.43 1239.38 121.95 C 1239.35 124.47 1237.49 126.89 1234.94 127.23 C 1232.28 127.57 1229.56 127.58 1226.93 127.15 C 1224.18 126.56 1222.67 123.67 1222.85 121.02 C 1222.76 113.80 1222.85 106.58 1222.82 99.36 C 1207.54 99.34 1192.26 99.39 1176.98 99.33 C 1174.25 99.55 1171.36 97.84 1170.89 95.03 C 1170.21 89.56 1170.31 83.50 1173.86 78.96 C 1189.76 56.78 1205.82 34.72 1221.75 12.57 M 1188.19 83.94 C 1199.73 83.94 1211.28 83.94 1222.82 83.94 C 1222.81 68.04 1222.83 52.14 1222.82 36.25 C 1211.26 52.13 1199.73 68.04 1188.19 83.94 Z" />
<path fill="#370505" opacity="1.00" d=" M 1320.15 13.86 C 1320.01 11.33 1321.39 8.58 1324.00 7.91 C 1326.90 7.37 1329.95 7.36 1332.87 7.92 C 1335.51 8.58 1336.84 11.40 1336.72 13.96 C 1336.77 28.83 1336.71 43.70 1336.74 58.57 C 1356.27 58.58 1375.80 58.58 1395.33 58.57 C 1395.35 43.69 1395.28 28.80 1395.36 13.92 C 1395.26 11.46 1396.46 8.74 1398.98 7.99 C 1401.91 7.32 1405.02 7.40 1407.99 7.89 C 1411.10 8.62 1412.18 12.07 1412.00 14.91 C 1412.00 49.95 1412.00 84.98 1412.00 120.01 C 1412.18 122.88 1411.12 126.38 1407.97 127.11 C 1404.99 127.60 1401.87 127.68 1398.94 126.99 C 1396.42 126.22 1395.26 123.50 1395.35 121.05 C 1395.29 105.49 1395.35 89.93 1395.33 74.36 C 1375.80 74.35 1356.27 74.35 1336.74 74.37 C 1336.72 89.92 1336.76 105.48 1336.72 121.03 C 1336.83 123.55 1335.57 126.33 1332.97 127.04 C 1330.04 127.65 1326.97 127.62 1324.05 127.09 C 1321.41 126.44 1320.01 123.67 1320.15 121.11 C 1320.12 85.36 1320.12 49.61 1320.15 13.86 Z" />
<path fill="#370505" opacity="1.00" d=" M 1445.85 13.95 C 1445.58 10.92 1447.72 7.76 1450.94 7.71 C 1466.95 7.56 1483.00 7.33 1499.01 7.85 C 1511.82 8.97 1524.41 14.29 1533.53 23.47 C 1544.26 34.02 1549.31 49.10 1550.00 63.89 L 1550.00 71.37 C 1549.41 81.15 1547.25 90.98 1542.47 99.60 C 1535.60 112.41 1523.05 121.77 1509.02 125.34 C 1498.61 128.29 1487.71 127.23 1477.04 127.42 C 1468.35 127.31 1459.65 127.62 1450.97 127.30 C 1447.74 127.26 1445.58 124.09 1445.85 121.07 C 1445.80 85.36 1445.80 49.65 1445.85 13.95 M 1462.42 23.48 C 1462.42 52.83 1462.42 82.17 1462.42 111.52 C 1472.62 111.49 1482.82 111.57 1493.03 111.48 C 1503.13 111.36 1513.39 107.80 1520.65 100.62 C 1527.81 93.69 1531.56 83.89 1532.54 74.11 C 1533.49 64.01 1532.43 53.44 1527.83 44.28 C 1521.63 31.21 1507.28 23.34 1493.02 23.51 C 1482.82 23.44 1472.62 23.50 1462.42 23.48 Z" />
</g>
</svg>
