<?xml version="1.0" encoding="UTF-8" ?>
<!DOCTYPE svg PUBLIC "-//W3C//DTD SVG 1.1//EN" "http://www.w3.org/Graphics/SVG/1.1/DTD/svg11.dtd">
<svg width="769pt" height="729pt" viewBox="0 0 769 729" version="1.1" xmlns="http://www.w3.org/2000/svg">
<g id="#fffdfeff">
<path fill="#fffdfe" opacity="1.00" d=" M 241.54 559.49 C 243.95 556.29 248.64 555.65 252.29 556.71 C 255.49 557.65 257.27 560.82 257.83 563.91 C 261.52 582.12 265.07 600.36 268.71 618.59 C 271.82 633.68 274.67 648.83 277.85 663.91 C 277.84 666.80 282.12 666.69 282.06 663.88 C 285.23 648.80 288.07 633.65 291.21 618.56 C 294.66 600.64 298.45 582.78 301.84 564.85 C 302.41 561.51 304.02 557.85 307.47 556.68 C 311.03 555.78 315.41 556.17 318.02 559.02 C 319.92 561.57 319.43 564.95 318.88 567.87 C 315.47 584.64 312.07 601.42 308.73 618.20 C 305.26 635.09 301.92 652.00 298.45 668.88 C 297.28 674.61 293.15 680.52 286.96 681.25 C 282.33 681.67 277.65 681.64 273.03 681.28 C 266.81 680.59 262.73 674.64 261.46 668.95 C 258.00 652.02 254.63 635.08 251.18 618.15 C 248.12 602.75 244.97 587.36 241.86 571.97 C 241.15 567.90 239.41 563.40 241.54 559.49 Z" />
<path fill="#fffdfe" opacity="1.00" d=" M 100.23 562.09 C 103.45 554.33 118.37 555.84 118.21 565.02 C 118.30 582.73 118.21 600.45 118.25 618.17 C 118.27 631.13 118.19 644.09 118.27 657.06 C 118.00 659.76 120.34 662.09 122.99 662.17 C 133.55 662.54 144.15 661.96 154.71 662.42 C 161.17 663.69 162.85 673.02 158.17 677.17 C 155.97 679.17 152.85 679.24 150.04 679.26 C 136.71 679.23 123.37 679.23 110.03 679.26 C 107.46 679.19 104.59 679.22 102.52 677.46 C 100.19 675.79 99.52 672.78 99.51 670.07 C 99.51 652.75 99.53 635.42 99.50 618.10 C 99.50 601.41 99.55 584.72 99.47 568.03 C 99.51 566.03 99.47 563.97 100.23 562.09 Z" />
<path fill="#fffdfe" opacity="1.00" d=" M 189.37 564.11 C 189.94 557.35 198.57 555.85 203.74 558.18 C 207.09 559.69 208.10 563.63 207.95 567.00 C 207.98 584.06 207.93 601.11 207.97 618.16 C 207.92 635.79 208.07 653.41 207.91 671.03 C 208.04 674.61 205.59 678.26 201.96 678.91 C 198.99 679.49 195.72 679.43 192.97 678.08 C 190.59 676.57 189.08 673.80 189.26 670.97 C 189.28 653.36 189.27 635.75 189.27 618.14 C 189.37 600.13 189.14 582.11 189.37 564.11 Z" />
<path fill="#fffdfe" opacity="1.00" d=" M 354.95 559.98 C 356.88 557.65 360.10 557.23 362.94 557.26 C 378.30 557.30 393.67 557.29 409.04 557.27 C 411.42 557.31 414.05 557.38 416.01 558.94 C 421.38 563.03 419.41 574.02 411.97 574.17 C 400.30 574.41 388.61 574.09 376.93 574.28 C 374.29 574.14 371.64 576.22 371.78 579.01 C 371.60 587.00 371.76 595.01 371.71 603.01 C 371.41 605.66 373.06 608.64 375.91 608.86 C 383.26 609.45 390.66 608.64 398.01 609.20 C 402.48 609.72 404.91 614.46 404.27 618.62 C 403.55 621.64 401.28 624.45 398.05 624.84 C 390.66 625.31 383.24 624.61 375.85 625.14 C 373.50 625.37 371.62 627.57 371.77 629.94 C 371.69 638.98 371.70 648.02 371.76 657.06 C 371.43 660.01 374.14 662.40 377.00 662.22 C 388.90 662.45 400.82 662.05 412.72 662.39 C 419.42 663.41 421.13 673.24 416.24 677.34 C 414.06 679.40 410.81 679.13 408.04 679.26 C 392.39 679.16 376.72 679.36 361.07 679.17 C 356.68 679.33 352.73 675.45 353.05 671.02 C 352.98 653.40 353.05 635.77 353.02 618.14 C 353.05 601.09 353.05 584.03 353.02 566.98 C 353.04 564.54 353.19 561.85 354.95 559.98 Z" />
<path fill="#fffdfe" opacity="1.00" d=" M 492.60 559.63 C 495.28 556.93 499.44 556.97 502.93 557.51 C 506.35 558.11 508.97 561.40 508.90 564.87 C 509.08 577.60 508.85 590.34 508.98 603.07 C 508.65 605.97 510.89 608.88 513.88 608.96 C 519.58 609.22 525.30 608.94 531.01 609.08 C 533.23 608.91 535.87 609.36 537.68 607.74 C 539.07 606.58 539.25 604.66 539.29 602.98 C 539.39 590.09 539.10 577.20 539.39 564.32 C 540.11 555.54 554.64 554.59 557.50 562.41 C 558.03 564.22 557.94 566.13 557.99 568.00 C 557.92 584.71 557.96 601.42 557.98 618.12 C 557.91 636.13 558.10 654.14 557.89 672.13 C 557.26 681.85 539.85 681.73 539.35 671.97 C 539.11 657.96 539.40 643.95 539.23 629.94 C 539.44 627.10 536.78 624.87 534.07 625.03 C 527.68 624.89 521.29 624.96 514.90 624.99 C 512.05 624.72 508.85 626.90 509.02 629.96 C 508.87 643.64 509.05 657.33 508.96 671.02 C 509.15 674.29 507.15 677.63 504.00 678.69 C 501.23 679.45 498.22 679.49 495.46 678.67 C 492.27 677.58 490.22 674.30 490.29 670.98 C 490.23 653.38 490.29 635.78 490.27 618.18 C 490.29 601.11 490.30 584.04 490.26 566.98 C 490.19 564.36 490.62 561.52 492.60 559.63 Z" />
<path fill="#fffdfe" opacity="1.00" d=" M 600.75 558.84 C 604.05 556.64 608.21 557.40 611.95 557.27 C 620.91 557.50 629.91 556.81 638.85 557.71 C 655.02 559.46 668.55 573.84 669.75 589.98 C 670.33 599.36 670.25 608.77 670.25 618.16 C 670.24 627.81 670.37 637.48 669.72 647.11 C 668.56 659.76 659.86 671.20 648.28 676.23 C 639.07 680.35 628.75 679.01 618.96 679.24 C 613.95 679.11 608.91 679.57 603.93 678.96 C 600.14 678.45 597.39 674.71 597.54 670.97 C 597.48 653.39 597.53 635.81 597.52 618.22 C 597.53 601.15 597.55 584.08 597.50 567.02 C 597.39 564.01 598.14 560.65 600.75 558.84 M 616.27 579.04 C 616.20 592.07 616.24 605.11 616.26 618.15 C 616.24 631.11 616.23 644.07 616.25 657.03 C 615.94 659.75 618.37 662.18 621.04 662.20 C 626.02 662.29 631.04 662.46 636.01 662.06 C 644.11 661.32 650.72 653.96 651.12 645.93 C 651.87 636.69 651.38 627.42 651.50 618.16 C 651.35 608.78 651.93 599.36 651.06 590.00 C 650.43 581.81 643.32 574.62 635.04 574.31 C 630.32 574.19 625.59 574.15 620.87 574.31 C 618.35 574.24 616.20 576.56 616.27 579.04 Z" />
</g>
<g id="#080000ff">
<path fill="#080000" opacity="1.00" d=" M 725.30 0.00 L 725.74 0.00 C 726.78 1.00 727.92 1.91 729.16 2.67 C 742.48 10.54 755.68 18.62 769.00 26.49 L 769.00 123.35 C 753.17 140.21 738.79 158.43 725.28 177.19 C 725.25 118.13 725.21 59.06 725.30 0.00 Z" />
<path fill="#080000" opacity="1.00" d=" M 0.81 0.82 C 87.19 0.46 173.57 0.83 259.96 0.64 C 261.99 0.46 264.06 0.91 265.32 2.65 C 294.55 33.56 323.96 64.29 353.12 95.26 C 354.57 93.99 356.02 92.71 357.27 91.23 C 385.48 61.44 413.79 31.75 441.98 1.95 C 442.89 0.61 444.57 0.66 446.01 0.65 C 533.08 0.80 620.15 0.50 707.22 0.80 C 707.29 67.87 707.21 134.94 707.26 202.02 C 707.29 203.28 706.94 204.43 706.19 205.46 C 686.91 236.82 670.14 269.76 656.62 304.01 C 653.56 311.40 651.61 319.37 647.22 326.15 C 644.79 330.39 638.50 331.31 634.91 328.05 C 632.56 325.72 631.87 322.29 631.41 319.14 C 628.80 296.72 626.54 274.24 622.95 251.95 C 620.96 241.50 618.71 230.02 610.59 222.45 C 603.24 215.62 592.15 215.48 582.96 217.87 C 573.90 220.11 565.63 226.26 561.99 235.01 C 556.68 246.74 558.92 260.04 561.76 272.11 C 567.21 294.70 575.66 316.42 583.88 338.12 C 594.13 364.94 604.30 391.78 614.56 418.59 C 617.88 427.00 623.49 435.51 632.52 438.40 C 640.71 440.95 649.77 440.97 658.01 438.64 C 663.55 436.90 667.97 432.70 670.81 427.72 C 676.09 418.57 678.57 408.20 681.60 398.18 C 689.21 372.80 697.01 347.43 706.59 322.71 C 707.39 324.02 707.22 325.59 707.27 327.07 C 707.14 376.64 707.41 426.22 707.14 475.79 C 652.28 475.67 597.42 475.80 542.56 475.73 C 540.95 460.53 539.43 445.29 539.48 429.99 C 539.97 407.66 540.60 385.33 540.75 362.99 C 541.36 326.21 535.06 289.72 535.25 252.95 C 535.52 247.30 535.54 241.65 535.50 235.99 C 535.41 229.57 535.89 223.10 534.76 216.74 C 550.63 206.78 567.23 198.05 583.18 188.22 C 593.17 181.98 603.93 176.67 612.52 168.46 C 616.70 164.43 620.63 159.14 620.01 152.99 C 619.96 147.51 616.07 143.16 612.16 139.79 C 604.29 132.33 591.77 130.25 581.88 134.57 C 570.99 139.90 564.51 150.94 554.28 157.21 C 541.91 164.74 529.55 172.31 516.90 179.36 C 507.21 174.35 495.55 172.59 485.05 175.95 C 478.83 177.86 473.02 182.39 471.16 188.83 C 468.87 195.23 471.76 202.19 469.52 208.59 C 468.40 211.72 465.83 213.97 463.00 215.53 C 443.02 227.38 422.88 238.97 403.01 251.02 C 394.25 256.36 384.93 260.82 375.12 263.85 C 367.63 266.25 359.57 268.13 353.59 273.58 C 348.13 278.25 345.14 286.06 347.22 293.10 C 348.87 300.48 353.93 306.61 359.98 310.92 C 367.36 315.99 377.21 315.53 385.19 312.17 C 396.34 307.41 405.64 299.43 415.29 292.28 C 424.53 285.15 434.13 278.48 443.55 271.59 C 450.15 266.97 456.71 262.11 464.14 258.89 C 468.25 257.13 473.62 256.55 477.26 259.65 C 481.09 262.97 482.16 268.23 483.00 273.00 C 484.86 286.59 483.60 300.34 483.76 314.00 C 483.42 338.71 482.13 363.40 480.53 388.07 C 478.73 417.25 478.51 446.53 479.80 475.74 C 465.28 475.77 450.77 475.72 436.26 475.76 C 436.18 431.41 436.36 387.05 436.17 342.70 C 408.30 365.66 381.04 389.37 353.18 412.34 C 336.36 397.99 319.39 383.81 302.51 369.53 C 291.70 360.64 281.31 351.23 270.27 342.65 C 270.13 387.03 270.44 431.42 270.11 475.80 C 180.40 475.70 90.69 475.74 0.98 475.78 C 0.65 472.86 0.53 469.93 0.67 467.00 C 0.70 323.99 0.61 180.98 0.67 37.98 C 0.81 25.59 0.46 13.20 0.81 0.82 Z" />
<path fill="#080000" opacity="1.00" d=" M 288.74 0.94 C 315.15 12.11 341.26 23.99 367.56 35.39 C 371.73 36.88 374.58 40.57 377.19 43.96 C 369.46 52.51 361.24 60.63 353.49 69.18 C 339.98 55.51 326.97 41.31 313.64 27.45 C 305.39 18.57 296.75 10.03 288.74 0.94 Z" />
<path fill="#080000" opacity="1.00" d=" M 740.97 253.84 C 749.77 239.36 758.81 225.00 769.00 211.46 L 769.00 475.76 C 754.42 475.74 739.83 475.75 725.25 475.75 C 725.24 413.83 725.27 351.90 725.24 289.98 C 725.35 286.82 724.71 283.43 726.26 280.52 C 730.72 271.39 735.81 262.59 740.97 253.84 Z" />
<path fill="#080000" opacity="1.00" d=" M 288.59 381.55 C 297.79 388.95 306.67 396.75 315.76 404.27 C 318.62 406.85 321.85 409.03 324.46 411.87 C 324.62 433.11 324.35 454.37 324.59 475.61 C 312.60 475.97 300.60 475.57 288.60 475.82 C 288.42 444.40 288.44 412.97 288.59 381.55 Z" />
<path fill="#080000" opacity="1.00" d=" M 379.93 413.76 C 392.51 402.80 405.37 392.14 418.18 381.44 C 418.31 389.97 418.24 398.50 418.22 407.03 C 415.31 409.08 412.95 411.93 409.85 413.67 C 399.88 413.88 389.90 413.68 379.93 413.76 Z" />
<path fill="#080000" opacity="1.00" d=" M 7.68 624.64 C 11.86 620.22 18.04 618.36 23.99 618.30 C 49.16 618.13 74.34 618.52 99.50 618.10 C 99.53 635.42 99.51 652.75 99.51 670.07 C 99.52 672.78 100.19 675.79 102.52 677.46 C 104.59 679.22 107.46 679.19 110.03 679.26 C 123.37 679.23 136.71 679.23 150.04 679.26 C 152.85 679.24 155.97 679.17 158.17 677.17 C 162.85 673.02 161.17 663.69 154.71 662.42 C 144.15 661.96 133.55 662.54 122.99 662.17 C 120.34 662.09 118.00 659.76 118.27 657.06 C 118.19 644.09 118.27 631.13 118.25 618.17 C 141.92 618.34 165.60 618.37 189.27 618.14 C 189.27 635.75 189.28 653.36 189.26 670.97 C 189.08 673.80 190.59 676.57 192.97 678.08 C 195.72 679.43 198.99 679.49 201.96 678.91 C 205.59 678.26 208.04 674.61 207.91 671.03 C 208.07 653.41 207.92 635.79 207.97 618.16 C 222.37 618.29 236.78 618.38 251.18 618.15 C 254.63 635.08 258.00 652.02 261.46 668.95 C 262.73 674.64 266.81 680.59 273.03 681.28 C 277.65 681.64 282.33 681.67 286.96 681.25 C 293.15 680.52 297.28 674.61 298.45 668.88 C 301.92 652.00 305.26 635.09 308.73 618.20 C 323.49 618.29 338.26 618.40 353.02 618.14 C 353.05 635.77 352.98 653.40 353.05 671.02 C 352.73 675.45 356.68 679.33 361.07 679.17 C 376.72 679.36 392.39 679.16 408.04 679.26 C 410.81 679.13 414.06 679.40 416.24 677.34 C 421.13 673.24 419.42 663.41 412.72 662.39 C 400.82 662.05 388.90 662.45 377.00 662.22 C 374.14 662.40 371.43 660.01 371.76 657.06 C 371.70 648.02 371.69 638.98 371.77 629.94 C 371.62 627.57 373.50 625.37 375.85 625.14 C 383.24 624.61 390.66 625.31 398.05 624.84 C 401.28 624.45 403.55 621.64 404.27 618.62 C 409.51 617.98 414.79 618.35 420.05 618.28 C 443.46 618.21 466.86 618.42 490.27 618.18 C 490.29 635.78 490.23 653.38 490.29 670.98 C 490.22 674.30 492.27 677.58 495.46 678.67 C 498.22 679.49 501.23 679.45 504.00 678.69 C 507.15 677.63 509.15 674.29 508.96 671.02 C 509.05 657.33 508.87 643.64 509.02 629.96 C 508.85 626.90 512.05 624.72 514.90 624.99 C 521.29 624.96 527.68 624.89 534.07 625.03 C 536.78 624.87 539.44 627.10 539.23 629.94 C 539.40 643.95 539.11 657.96 539.35 671.97 C 539.85 681.73 557.26 681.85 557.89 672.13 C 558.10 654.14 557.91 636.13 557.98 618.12 C 571.15 618.41 584.34 618.29 597.52 618.22 C 597.53 635.81 597.48 653.39 597.54 670.97 C 597.39 674.71 600.14 678.45 603.93 678.96 C 608.91 679.57 613.95 679.11 618.96 679.24 C 628.75 679.01 639.07 680.35 648.28 676.23 C 659.86 671.20 668.56 659.76 669.72 647.11 C 670.37 637.48 670.24 627.81 670.25 618.16 C 695.51 618.44 720.78 618.18 746.05 618.30 C 751.51 618.35 757.05 620.06 761.14 623.79 C 766.11 627.81 768.39 634.13 769.00 640.33 L 769.00 707.79 C 768.20 719.33 757.54 728.83 745.99 728.24 C 505.33 728.26 264.67 728.25 24.02 728.24 C 15.41 728.61 6.89 723.73 3.09 715.98 C -0.30 709.52 0.99 702.01 0.75 695.02 C 0.96 675.12 0.32 655.20 1.10 635.31 C 2.70 631.44 4.60 627.56 7.68 624.64 Z" />
<path fill="#080000" opacity="1.00" d=" M 268.71 618.59 C 276.19 618.07 283.72 618.10 291.21 618.56 C 288.07 633.65 285.23 648.80 282.06 663.88 C 282.12 666.69 277.84 666.80 277.85 663.91 C 274.67 648.83 271.82 633.68 268.71 618.59 Z" />
<path fill="#080000" opacity="1.00" d=" M 616.26 618.15 C 628.00 618.38 639.75 618.33 651.50 618.16 C 651.38 627.42 651.87 636.69 651.12 645.93 C 650.72 653.96 644.11 661.32 636.01 662.06 C 631.04 662.46 626.02 662.29 621.04 662.20 C 618.37 662.18 615.94 659.75 616.25 657.03 C 616.23 644.07 616.24 631.11 616.26 618.15 Z" />
</g>
<g id="#61596eff">
<path fill="#61596e" opacity="1.00" d=" M 3.21 520.26 C 7.10 512.66 15.50 507.89 24.02 508.26 C 264.33 508.24 504.65 508.27 744.96 508.25 C 750.35 508.18 755.96 509.32 760.22 512.81 C 765.20 516.48 768.23 522.28 769.00 528.37 L 769.00 640.33 C 768.39 634.13 766.11 627.81 761.14 623.79 C 757.05 620.06 751.51 618.35 746.05 618.30 C 720.78 618.18 695.51 618.44 670.25 618.16 C 670.25 608.77 670.33 599.36 669.75 589.98 C 668.55 573.84 655.02 559.46 638.85 557.71 C 629.91 556.81 620.91 557.50 611.95 557.27 C 608.21 557.40 604.05 556.64 600.75 558.84 C 598.14 560.65 597.39 564.01 597.50 567.02 C 597.55 584.08 597.53 601.15 597.52 618.22 C 584.34 618.29 571.15 618.41 557.98 618.12 C 557.96 601.42 557.92 584.71 557.99 568.00 C 557.94 566.13 558.03 564.22 557.50 562.41 C 554.64 554.59 540.11 555.54 539.39 564.32 C 539.10 577.20 539.39 590.09 539.29 602.98 C 539.25 604.66 539.07 606.58 537.68 607.74 C 535.87 609.36 533.23 608.91 531.01 609.08 C 525.30 608.94 519.58 609.22 513.88 608.96 C 510.89 608.88 508.65 605.97 508.98 603.07 C 508.85 590.34 509.08 577.60 508.90 564.87 C 508.97 561.40 506.35 558.11 502.93 557.51 C 499.44 556.97 495.28 556.93 492.60 559.63 C 490.62 561.52 490.19 564.36 490.26 566.98 C 490.30 584.04 490.29 601.11 490.27 618.18 C 466.86 618.42 443.46 618.21 420.05 618.28 C 414.79 618.35 409.51 617.98 404.27 618.62 C 404.91 614.46 402.48 609.72 398.01 609.20 C 390.66 608.64 383.26 609.45 375.91 608.86 C 373.06 608.64 371.41 605.66 371.71 603.01 C 371.76 595.01 371.60 587.00 371.78 579.01 C 371.64 576.22 374.29 574.14 376.93 574.28 C 388.61 574.09 400.30 574.41 411.97 574.17 C 419.41 574.02 421.38 563.03 416.01 558.94 C 414.05 557.38 411.42 557.31 409.04 557.27 C 393.67 557.29 378.30 557.30 362.94 557.26 C 360.10 557.23 356.88 557.65 354.95 559.98 C 353.19 561.85 353.04 564.54 353.02 566.98 C 353.05 584.03 353.05 601.09 353.02 618.14 C 338.26 618.40 323.49 618.29 308.73 618.20 C 312.07 601.42 315.47 584.64 318.88 567.87 C 319.43 564.95 319.92 561.57 318.02 559.02 C 315.41 556.17 311.03 555.78 307.47 556.68 C 304.02 557.85 302.41 561.51 301.84 564.85 C 298.45 582.78 294.66 600.64 291.21 618.56 C 283.72 618.10 276.19 618.07 268.71 618.59 C 265.07 600.36 261.52 582.12 257.83 563.91 C 257.27 560.82 255.49 557.65 252.29 556.71 C 248.64 555.65 243.95 556.29 241.54 559.49 C 239.41 563.40 241.15 567.90 241.86 571.97 C 244.97 587.36 248.12 602.75 251.18 618.15 C 236.78 618.38 222.37 618.29 207.97 618.16 C 207.93 601.11 207.98 584.06 207.95 567.00 C 208.10 563.63 207.09 559.69 203.74 558.18 C 198.57 555.85 189.94 557.35 189.37 564.11 C 189.14 582.11 189.37 600.13 189.27 618.14 C 165.60 618.37 141.92 618.34 118.25 618.17 C 118.21 600.45 118.30 582.73 118.21 565.02 C 118.37 555.84 103.45 554.33 100.23 562.09 C 99.47 563.97 99.51 566.03 99.47 568.03 C 99.55 584.72 99.50 601.41 99.50 618.10 C 74.34 618.52 49.16 618.13 23.99 618.30 C 18.04 618.36 11.86 620.22 7.68 624.64 C 4.60 627.56 2.70 631.44 1.10 635.31 C 0.70 630.88 0.67 626.44 0.75 622.00 C 0.74 593.66 0.76 565.32 0.74 536.98 C 0.70 531.35 0.38 525.35 3.21 520.26 Z" />
<path fill="#61596e" opacity="1.00" d=" M 616.27 579.04 C 616.20 576.56 618.35 574.24 620.87 574.31 C 625.59 574.15 630.32 574.19 635.04 574.31 C 643.32 574.62 650.43 581.81 651.06 590.00 C 651.93 599.36 651.35 608.78 651.50 618.16 C 639.75 618.33 628.00 618.38 616.26 618.15 C 616.24 605.11 616.20 592.07 616.27 579.04 Z" />
</g>
</svg>
