<?xml version="1.0" encoding="UTF-8" standalone="yes"?>
<svg xmlns="http://www.w3.org/2000/svg" xmlns:xlink="http://www.w3.org/1999/xlink" width="112px" height="106.66666666666666px" viewBox="0 0 84 80" version="1.1">
  <g id="surface1">
    <path style=" stroke:none;fill-rule:nonzero;fill:rgb(100%,99.215686%,99.607843%);fill-opacity:1;" d="M 26.390625 61.414062 C 26.652344 61.0625 27.167969 60.992188 27.566406 61.109375 C 27.914062 61.214844 28.109375 61.5625 28.171875 61.898438 C 28.574219 63.898438 28.960938 65.902344 29.359375 67.902344 C 29.699219 69.558594 30.011719 71.222656 30.359375 72.878906 C 30.355469 73.195312 30.824219 73.183594 30.816406 72.875 C 31.164062 71.21875 31.476562 69.554688 31.816406 67.898438 C 32.195312 65.933594 32.609375 63.972656 32.980469 62.003906 C 33.042969 61.636719 33.21875 61.234375 33.59375 61.105469 C 33.984375 61.007812 34.460938 61.050781 34.746094 61.363281 C 34.953125 61.644531 34.902344 62.015625 34.839844 62.335938 C 34.46875 64.175781 34.097656 66.015625 33.730469 67.859375 C 33.351562 69.714844 32.988281 71.570312 32.609375 73.421875 C 32.480469 74.050781 32.03125 74.699219 31.355469 74.78125 C 30.847656 74.828125 30.335938 74.824219 29.832031 74.785156 C 29.152344 74.707031 28.707031 74.054688 28.566406 73.429688 C 28.1875 71.570312 27.820312 69.710938 27.445312 67.855469 C 27.109375 66.164062 26.765625 64.472656 26.425781 62.785156 C 26.347656 62.339844 26.160156 61.84375 26.390625 61.414062 Z M 26.390625 61.414062 "/>
    <path style=" stroke:none;fill-rule:nonzero;fill:rgb(100%,99.215686%,99.607843%);fill-opacity:1;" d="M 10.953125 61.699219 C 11.304688 60.847656 12.933594 61.015625 12.914062 62.023438 C 12.925781 63.964844 12.914062 65.910156 12.921875 67.855469 C 12.921875 69.277344 12.914062 70.703125 12.921875 72.125 C 12.894531 72.421875 13.148438 72.675781 13.4375 72.6875 C 14.59375 72.726562 15.75 72.664062 16.902344 72.714844 C 17.609375 72.851562 17.792969 73.878906 17.28125 74.332031 C 17.042969 74.550781 16.699219 74.558594 16.394531 74.5625 C 14.9375 74.558594 13.480469 74.558594 12.023438 74.5625 C 11.742188 74.554688 11.425781 74.558594 11.203125 74.363281 C 10.945312 74.179688 10.875 73.851562 10.871094 73.554688 C 10.871094 71.652344 10.875 69.75 10.871094 67.847656 C 10.871094 66.015625 10.875 64.183594 10.867188 62.351562 C 10.871094 62.132812 10.867188 61.90625 10.953125 61.699219 Z M 10.953125 61.699219 "/>
    <path style=" stroke:none;fill-rule:nonzero;fill:rgb(100%,99.215686%,99.607843%);fill-opacity:1;" d="M 20.691406 61.921875 C 20.753906 61.179688 21.695312 61.015625 22.261719 61.269531 C 22.625 61.4375 22.738281 61.871094 22.722656 62.238281 C 22.722656 64.113281 22.71875 65.984375 22.722656 67.855469 C 22.71875 69.789062 22.734375 71.722656 22.714844 73.660156 C 22.730469 74.050781 22.464844 74.453125 22.066406 74.523438 C 21.742188 74.585938 21.382812 74.582031 21.085938 74.433594 C 20.824219 74.265625 20.660156 73.960938 20.679688 73.652344 C 20.679688 71.71875 20.679688 69.785156 20.679688 67.851562 C 20.691406 65.875 20.664062 63.898438 20.691406 61.921875 Z M 20.691406 61.921875 "/>
    <path style=" stroke:none;fill-rule:nonzero;fill:rgb(100%,99.215686%,99.607843%);fill-opacity:1;" d="M 38.78125 61.46875 C 38.992188 61.214844 39.34375 61.167969 39.65625 61.171875 C 41.332031 61.175781 43.011719 61.171875 44.691406 61.171875 C 44.953125 61.175781 45.238281 61.183594 45.453125 61.355469 C 46.039062 61.804688 45.824219 63.011719 45.011719 63.027344 C 43.738281 63.050781 42.460938 63.015625 41.183594 63.039062 C 40.894531 63.023438 40.605469 63.25 40.621094 63.558594 C 40.601562 64.433594 40.617188 65.3125 40.613281 66.191406 C 40.582031 66.484375 40.761719 66.808594 41.074219 66.835938 C 41.875 66.898438 42.683594 66.808594 43.488281 66.871094 C 43.976562 66.929688 44.242188 67.449219 44.171875 67.90625 C 44.09375 68.238281 43.84375 68.546875 43.492188 68.589844 C 42.683594 68.640625 41.875 68.5625 41.066406 68.621094 C 40.808594 68.648438 40.605469 68.886719 40.621094 69.148438 C 40.609375 70.140625 40.613281 71.132812 40.617188 72.125 C 40.582031 72.449219 40.878906 72.710938 41.191406 72.691406 C 42.492188 72.714844 43.792969 72.671875 45.09375 72.710938 C 45.828125 72.820312 46.011719 73.902344 45.480469 74.351562 C 45.242188 74.578125 44.886719 74.546875 44.582031 74.5625 C 42.871094 74.550781 41.160156 74.574219 39.449219 74.550781 C 38.972656 74.570312 38.539062 74.144531 38.574219 73.65625 C 38.566406 71.722656 38.574219 69.789062 38.570312 67.851562 C 38.574219 65.980469 38.574219 64.109375 38.570312 62.238281 C 38.574219 61.96875 38.589844 61.675781 38.78125 61.46875 Z M 38.78125 61.46875 "/>
    <path style=" stroke:none;fill-rule:nonzero;fill:rgb(100%,99.215686%,99.607843%);fill-opacity:1;" d="M 53.820312 61.429688 C 54.113281 61.132812 54.570312 61.136719 54.949219 61.199219 C 55.324219 61.261719 55.609375 61.625 55.601562 62.003906 C 55.621094 63.402344 55.597656 64.800781 55.613281 66.199219 C 55.574219 66.515625 55.820312 66.835938 56.148438 66.84375 C 56.769531 66.875 57.394531 66.84375 58.019531 66.859375 C 58.261719 66.839844 58.550781 66.890625 58.746094 66.710938 C 58.898438 66.582031 58.917969 66.375 58.921875 66.1875 C 58.933594 64.773438 58.902344 63.359375 58.933594 61.945312 C 59.011719 60.980469 60.601562 60.878906 60.914062 61.734375 C 60.972656 61.933594 60.960938 62.144531 60.964844 62.347656 C 60.960938 64.183594 60.964844 66.015625 60.964844 67.851562 C 60.957031 69.828125 60.980469 71.804688 60.957031 73.78125 C 60.886719 74.847656 58.984375 74.832031 58.929688 73.761719 C 58.902344 72.222656 58.933594 70.6875 58.917969 69.148438 C 58.941406 68.835938 58.648438 68.589844 58.351562 68.609375 C 57.65625 68.59375 56.957031 68.601562 56.257812 68.605469 C 55.945312 68.574219 55.597656 68.816406 55.617188 69.148438 C 55.601562 70.652344 55.621094 72.15625 55.609375 73.65625 C 55.628906 74.015625 55.410156 74.382812 55.066406 74.5 C 54.765625 74.582031 54.4375 74.585938 54.132812 74.496094 C 53.785156 74.378906 53.5625 74.015625 53.570312 73.652344 C 53.5625 71.722656 53.570312 69.789062 53.566406 67.855469 C 53.570312 65.984375 53.570312 64.109375 53.566406 62.238281 C 53.558594 61.949219 53.605469 61.636719 53.820312 61.429688 Z M 53.820312 61.429688 "/>
    <path style=" stroke:none;fill-rule:nonzero;fill:rgb(100%,99.215686%,99.607843%);fill-opacity:1;" d="M 65.636719 61.34375 C 66 61.101562 66.453125 61.183594 66.863281 61.171875 C 67.839844 61.195312 68.824219 61.121094 69.800781 61.21875 C 71.566406 61.410156 73.046875 62.988281 73.175781 64.761719 C 73.242188 65.792969 73.230469 66.824219 73.230469 67.855469 C 73.230469 68.914062 73.246094 69.976562 73.175781 71.03125 C 73.046875 72.421875 72.097656 73.675781 70.832031 74.230469 C 69.824219 74.683594 68.699219 74.535156 67.628906 74.558594 C 67.082031 74.546875 66.53125 74.597656 65.984375 74.527344 C 65.570312 74.472656 65.273438 74.0625 65.289062 73.652344 C 65.28125 71.722656 65.285156 69.792969 65.285156 67.863281 C 65.285156 65.988281 65.289062 64.113281 65.285156 62.242188 C 65.273438 61.910156 65.351562 61.542969 65.636719 61.34375 M 67.335938 63.5625 C 67.328125 64.992188 67.332031 66.421875 67.332031 67.855469 C 67.332031 69.277344 67.328125 70.699219 67.332031 72.121094 C 67.296875 72.421875 67.5625 72.6875 67.855469 72.6875 C 68.398438 72.699219 68.949219 72.71875 69.492188 72.675781 C 70.375 72.59375 71.097656 71.785156 71.140625 70.902344 C 71.222656 69.890625 71.171875 68.871094 71.183594 67.855469 C 71.167969 66.824219 71.230469 65.792969 71.136719 64.765625 C 71.066406 63.863281 70.289062 63.074219 69.386719 63.042969 C 68.871094 63.027344 68.351562 63.023438 67.835938 63.042969 C 67.5625 63.035156 67.328125 63.289062 67.335938 63.5625 Z M 67.335938 63.5625 "/>
    <path style=" stroke:none;fill-rule:nonzero;fill:rgb(3.137255%,0%,0%);fill-opacity:1;" d="M 79.246094 0 L 79.296875 0 C 79.410156 0.109375 79.535156 0.210938 79.667969 0.292969 C 81.125 1.15625 82.566406 2.042969 84.023438 2.90625 L 84.023438 13.539062 C 82.292969 15.390625 80.722656 17.390625 79.246094 19.449219 C 79.242188 12.96875 79.238281 6.484375 79.246094 0 Z M 79.246094 0 "/>
    <path style=" stroke:none;fill-rule:nonzero;fill:rgb(3.137255%,0%,0%);fill-opacity:1;" d="M 0.0898438 0.0898438 C 9.527344 0.0507812 18.964844 0.0898438 28.402344 0.0703125 C 28.625 0.0507812 28.851562 0.101562 28.988281 0.289062 C 32.183594 3.683594 35.394531 7.058594 38.582031 10.457031 C 38.742188 10.316406 38.898438 10.175781 39.035156 10.015625 C 42.117188 6.746094 45.210938 3.484375 48.292969 0.214844 C 48.390625 0.0664062 48.574219 0.0742188 48.730469 0.0703125 C 58.246094 0.0859375 67.757812 0.0546875 77.273438 0.0859375 C 77.28125 7.449219 77.269531 14.8125 77.277344 22.175781 C 77.28125 22.3125 77.242188 22.441406 77.160156 22.554688 C 75.050781 25.996094 73.21875 29.613281 71.742188 33.371094 C 71.410156 34.183594 71.195312 35.058594 70.714844 35.800781 C 70.449219 36.265625 69.761719 36.367188 69.371094 36.011719 C 69.113281 35.753906 69.039062 35.378906 68.988281 35.03125 C 68.703125 32.570312 68.457031 30.101562 68.0625 27.65625 C 67.847656 26.507812 67.601562 25.25 66.714844 24.417969 C 65.910156 23.667969 64.699219 23.652344 63.695312 23.914062 C 62.703125 24.160156 61.800781 24.835938 61.402344 25.796875 C 60.824219 27.085938 61.066406 28.542969 61.378906 29.871094 C 61.972656 32.347656 62.898438 34.734375 63.796875 37.117188 C 64.914062 40.058594 66.027344 43.003906 67.148438 45.949219 C 67.511719 46.871094 68.125 47.804688 69.109375 48.121094 C 70.003906 48.402344 70.996094 48.40625 71.894531 48.148438 C 72.5 47.957031 72.984375 47.496094 73.292969 46.949219 C 73.871094 45.945312 74.140625 44.808594 74.472656 43.707031 C 75.304688 40.921875 76.15625 38.136719 77.203125 35.421875 C 77.289062 35.566406 77.273438 35.738281 77.277344 35.902344 C 77.261719 41.34375 77.292969 46.785156 77.261719 52.226562 C 71.269531 52.214844 65.273438 52.226562 59.28125 52.21875 C 59.105469 50.550781 58.9375 48.878906 58.945312 47.199219 C 58.996094 44.75 59.066406 42.296875 59.082031 39.84375 C 59.148438 35.808594 58.460938 31.800781 58.480469 27.765625 C 58.511719 27.144531 58.515625 26.527344 58.507812 25.90625 C 58.5 25.199219 58.550781 24.488281 58.429688 23.792969 C 60.164062 22.699219 61.976562 21.738281 63.71875 20.660156 C 64.808594 19.976562 65.984375 19.394531 66.925781 18.492188 C 67.382812 18.050781 67.8125 17.46875 67.742188 16.792969 C 67.738281 16.191406 67.3125 15.714844 66.886719 15.34375 C 66.027344 14.527344 64.65625 14.296875 63.578125 14.773438 C 62.386719 15.355469 61.679688 16.570312 60.5625 17.257812 C 59.210938 18.082031 57.859375 18.914062 56.476562 19.6875 C 55.417969 19.136719 54.144531 18.945312 52.996094 19.3125 C 52.316406 19.523438 51.683594 20.019531 51.480469 20.726562 C 51.230469 21.429688 51.546875 22.195312 51.300781 22.898438 C 51.179688 23.242188 50.898438 23.488281 50.589844 23.660156 C 48.40625 24.960938 46.203125 26.230469 44.035156 27.554688 C 43.078125 28.140625 42.058594 28.628906 40.984375 28.960938 C 40.167969 29.226562 39.285156 29.433594 38.632812 30.03125 C 38.035156 30.542969 37.710938 31.402344 37.9375 32.171875 C 38.117188 32.984375 38.671875 33.65625 39.332031 34.128906 C 40.136719 34.6875 41.214844 34.636719 42.085938 34.265625 C 43.304688 33.746094 44.320312 32.867188 45.375 32.082031 C 46.382812 31.300781 47.433594 30.570312 48.460938 29.8125 C 49.183594 29.304688 49.902344 28.773438 50.710938 28.417969 C 51.160156 28.226562 51.75 28.160156 52.144531 28.5 C 52.566406 28.867188 52.679688 29.445312 52.773438 29.96875 C 52.976562 31.457031 52.839844 32.96875 52.855469 34.46875 C 52.820312 37.179688 52.679688 39.890625 52.503906 42.597656 C 52.304688 45.800781 52.28125 49.015625 52.421875 52.222656 C 50.835938 52.226562 49.25 52.21875 47.667969 52.222656 C 47.65625 47.355469 47.675781 42.484375 47.65625 37.617188 C 44.613281 40.136719 41.632812 42.742188 38.589844 45.261719 C 36.75 43.6875 34.898438 42.128906 33.050781 40.5625 C 31.871094 39.585938 30.734375 38.554688 29.53125 37.613281 C 29.515625 42.484375 29.546875 47.355469 29.511719 52.226562 C 19.710938 52.21875 9.910156 52.222656 0.105469 52.226562 C 0.0703125 51.90625 0.0585938 51.582031 0.0742188 51.261719 C 0.078125 35.5625 0.0664062 19.867188 0.0742188 4.167969 C 0.0898438 2.808594 0.0507812 1.449219 0.0898438 0.0898438 Z M 0.0898438 0.0898438 "/>
    <path style=" stroke:none;fill-rule:nonzero;fill:rgb(3.137255%,0%,0%);fill-opacity:1;" d="M 31.546875 0.101562 C 34.433594 1.328125 37.285156 2.632812 40.160156 3.882812 C 40.617188 4.046875 40.925781 4.453125 41.210938 4.824219 C 40.367188 5.765625 39.46875 6.65625 38.621094 7.59375 C 37.148438 6.09375 35.726562 4.535156 34.269531 3.011719 C 33.367188 2.039062 32.421875 1.101562 31.546875 0.101562 Z M 31.546875 0.101562 "/>
    <path style=" stroke:none;fill-rule:nonzero;fill:rgb(3.137255%,0%,0%);fill-opacity:1;" d="M 80.960938 27.863281 C 81.921875 26.273438 82.910156 24.699219 84.023438 23.210938 L 84.023438 52.222656 C 82.429688 52.222656 80.835938 52.222656 79.242188 52.222656 C 79.242188 45.425781 79.242188 38.628906 79.242188 31.832031 C 79.253906 31.484375 79.183594 31.113281 79.351562 30.792969 C 79.839844 29.789062 80.394531 28.824219 80.960938 27.863281 Z M 80.960938 27.863281 "/>
    <path style=" stroke:none;fill-rule:nonzero;fill:rgb(3.137255%,0%,0%);fill-opacity:1;" d="M 31.53125 41.882812 C 32.535156 42.695312 33.507812 43.550781 34.5 44.375 C 34.8125 44.660156 35.164062 44.898438 35.449219 45.210938 C 35.46875 47.542969 35.4375 49.875 35.464844 52.207031 C 34.15625 52.246094 32.84375 52.203125 31.53125 52.230469 C 31.511719 48.78125 31.515625 45.332031 31.53125 41.882812 Z M 31.53125 41.882812 "/>
    <path style=" stroke:none;fill-rule:nonzero;fill:rgb(3.137255%,0%,0%);fill-opacity:1;" d="M 41.511719 45.417969 C 42.886719 44.214844 44.292969 43.046875 45.691406 41.871094 C 45.703125 42.808594 45.699219 43.742188 45.695312 44.679688 C 45.378906 44.90625 45.121094 45.21875 44.78125 45.410156 C 43.691406 45.429688 42.601562 45.410156 41.511719 45.417969 Z M 41.511719 45.417969 "/>
    <path style=" stroke:none;fill-rule:nonzero;fill:rgb(3.137255%,0%,0%);fill-opacity:1;" d="M 0.839844 68.566406 C 1.296875 68.082031 1.972656 67.878906 2.621094 67.871094 C 5.371094 67.851562 8.121094 67.894531 10.871094 67.847656 C 10.875 69.75 10.871094 71.652344 10.871094 73.554688 C 10.875 73.851562 10.945312 74.179688 11.203125 74.363281 C 11.425781 74.558594 11.742188 74.554688 12.023438 74.5625 C 13.480469 74.558594 14.9375 74.558594 16.394531 74.5625 C 16.699219 74.558594 17.042969 74.550781 17.28125 74.332031 C 17.792969 73.878906 17.609375 72.851562 16.902344 72.714844 C 15.75 72.664062 14.59375 72.726562 13.4375 72.6875 C 13.148438 72.675781 12.894531 72.421875 12.921875 72.125 C 12.914062 70.703125 12.921875 69.277344 12.921875 67.855469 C 15.507812 67.875 18.09375 67.878906 20.679688 67.851562 C 20.679688 69.785156 20.679688 71.71875 20.679688 73.652344 C 20.660156 73.960938 20.824219 74.265625 21.085938 74.433594 C 21.382812 74.582031 21.742188 74.585938 22.066406 74.523438 C 22.464844 74.453125 22.730469 74.050781 22.714844 73.660156 C 22.734375 71.722656 22.71875 69.789062 22.722656 67.855469 C 24.296875 67.871094 25.871094 67.878906 27.445312 67.855469 C 27.820312 69.710938 28.1875 71.570312 28.566406 73.429688 C 28.707031 74.054688 29.152344 74.707031 29.832031 74.785156 C 30.335938 74.824219 30.847656 74.828125 31.355469 74.78125 C 32.03125 74.699219 32.480469 74.050781 32.609375 73.421875 C 32.988281 71.570312 33.351562 69.714844 33.730469 67.859375 C 35.34375 67.871094 36.957031 67.882812 38.570312 67.851562 C 38.574219 69.789062 38.566406 71.722656 38.574219 73.65625 C 38.539062 74.144531 38.972656 74.570312 39.449219 74.550781 C 41.160156 74.574219 42.871094 74.550781 44.582031 74.5625 C 44.886719 74.546875 45.242188 74.578125 45.480469 74.351562 C 46.011719 73.902344 45.828125 72.820312 45.09375 72.710938 C 43.792969 72.671875 42.492188 72.714844 41.191406 72.691406 C 40.878906 72.710938 40.582031 72.449219 40.617188 72.125 C 40.613281 71.132812 40.609375 70.140625 40.621094 69.148438 C 40.605469 68.886719 40.808594 68.648438 41.066406 68.621094 C 41.875 68.5625 42.683594 68.640625 43.492188 68.589844 C 43.84375 68.546875 44.09375 68.238281 44.171875 67.90625 C 44.742188 67.835938 45.320312 67.875 45.894531 67.867188 C 48.453125 67.859375 51.007812 67.882812 53.566406 67.855469 C 53.570312 69.789062 53.5625 71.722656 53.570312 73.652344 C 53.5625 74.015625 53.785156 74.378906 54.132812 74.496094 C 54.4375 74.585938 54.765625 74.582031 55.066406 74.5 C 55.410156 74.382812 55.628906 74.015625 55.609375 73.65625 C 55.621094 72.15625 55.601562 70.652344 55.617188 69.148438 C 55.597656 68.816406 55.945312 68.574219 56.257812 68.605469 C 56.957031 68.601562 57.65625 68.59375 58.351562 68.609375 C 58.648438 68.589844 58.941406 68.835938 58.917969 69.148438 C 58.933594 70.6875 58.902344 72.222656 58.929688 73.761719 C 58.984375 74.832031 60.886719 74.847656 60.957031 73.78125 C 60.980469 71.804688 60.957031 69.828125 60.964844 67.851562 C 62.40625 67.882812 63.84375 67.871094 65.285156 67.863281 C 65.285156 69.792969 65.28125 71.722656 65.289062 73.652344 C 65.273438 74.0625 65.570312 74.472656 65.984375 74.527344 C 66.53125 74.597656 67.082031 74.546875 67.628906 74.558594 C 68.699219 74.535156 69.824219 74.683594 70.832031 74.230469 C 72.097656 73.675781 73.046875 72.421875 73.175781 71.03125 C 73.246094 69.976562 73.230469 68.914062 73.230469 67.855469 C 75.992188 67.886719 78.753906 67.855469 81.515625 67.871094 C 82.109375 67.875 82.714844 68.0625 83.164062 68.472656 C 83.707031 68.914062 83.957031 69.609375 84.023438 70.289062 L 84.023438 77.695312 C 83.933594 78.960938 82.769531 80.003906 81.507812 79.9375 C 55.214844 79.941406 28.917969 79.941406 2.625 79.9375 C 1.683594 79.980469 0.753906 79.445312 0.335938 78.59375 C -0.03125 77.882812 0.109375 77.058594 0.0820312 76.292969 C 0.105469 74.109375 0.0351562 71.921875 0.121094 69.738281 C 0.296875 69.3125 0.503906 68.886719 0.839844 68.566406 Z M 0.839844 68.566406 "/>
    <path style=" stroke:none;fill-rule:nonzero;fill:rgb(3.137255%,0%,0%);fill-opacity:1;" d="M 29.359375 67.902344 C 30.175781 67.84375 31 67.847656 31.816406 67.898438 C 31.476562 69.554688 31.164062 71.21875 30.816406 72.875 C 30.824219 73.183594 30.355469 73.195312 30.359375 72.878906 C 30.011719 71.222656 29.699219 69.558594 29.359375 67.902344 Z M 29.359375 67.902344 "/>
    <path style=" stroke:none;fill-rule:nonzero;fill:rgb(3.137255%,0%,0%);fill-opacity:1;" d="M 67.332031 67.855469 C 68.617188 67.878906 69.898438 67.875 71.183594 67.855469 C 71.171875 68.871094 71.222656 69.890625 71.140625 70.902344 C 71.097656 71.785156 70.375 72.59375 69.492188 72.675781 C 68.949219 72.71875 68.398438 72.699219 67.855469 72.6875 C 67.5625 72.6875 67.296875 72.421875 67.332031 72.121094 C 67.328125 70.699219 67.332031 69.277344 67.332031 67.855469 Z M 67.332031 67.855469 "/>
    <path style=" stroke:none;fill-rule:nonzero;fill:rgb(38.039216%,34.901961%,43.137255%);fill-opacity:1;" d="M 0.351562 57.109375 C 0.777344 56.273438 1.695312 55.75 2.625 55.792969 C 28.882812 55.789062 55.136719 55.792969 81.394531 55.789062 C 81.984375 55.78125 82.597656 55.90625 83.0625 56.289062 C 83.605469 56.695312 83.9375 57.332031 84.023438 58 L 84.023438 70.289062 C 83.957031 69.609375 83.707031 68.914062 83.164062 68.472656 C 82.714844 68.0625 82.109375 67.875 81.515625 67.871094 C 78.753906 67.855469 75.992188 67.886719 73.230469 67.855469 C 73.230469 66.824219 73.242188 65.792969 73.175781 64.761719 C 73.046875 62.988281 71.566406 61.410156 69.800781 61.21875 C 68.824219 61.121094 67.839844 61.195312 66.863281 61.171875 C 66.453125 61.183594 66 61.101562 65.636719 61.34375 C 65.351562 61.542969 65.273438 61.910156 65.285156 62.242188 C 65.289062 64.113281 65.285156 65.988281 65.285156 67.863281 C 63.84375 67.871094 62.40625 67.882812 60.964844 67.851562 C 60.964844 66.015625 60.960938 64.183594 60.964844 62.347656 C 60.960938 62.144531 60.972656 61.933594 60.914062 61.734375 C 60.601562 60.878906 59.011719 60.980469 58.933594 61.945312 C 58.902344 63.359375 58.933594 64.773438 58.921875 66.1875 C 58.917969 66.375 58.898438 66.582031 58.746094 66.710938 C 58.550781 66.890625 58.261719 66.839844 58.019531 66.859375 C 57.394531 66.84375 56.769531 66.875 56.148438 66.84375 C 55.820312 66.835938 55.574219 66.515625 55.613281 66.199219 C 55.597656 64.800781 55.621094 63.402344 55.601562 62.003906 C 55.609375 61.625 55.324219 61.261719 54.949219 61.199219 C 54.570312 61.136719 54.113281 61.132812 53.820312 61.429688 C 53.605469 61.636719 53.558594 61.949219 53.566406 62.238281 C 53.570312 64.109375 53.570312 65.984375 53.566406 67.855469 C 51.007812 67.882812 48.453125 67.859375 45.894531 67.867188 C 45.320312 67.875 44.742188 67.835938 44.171875 67.90625 C 44.242188 67.449219 43.976562 66.929688 43.488281 66.871094 C 42.683594 66.808594 41.875 66.898438 41.074219 66.835938 C 40.761719 66.808594 40.582031 66.484375 40.613281 66.191406 C 40.617188 65.3125 40.601562 64.433594 40.621094 63.558594 C 40.605469 63.25 40.894531 63.023438 41.183594 63.039062 C 42.460938 63.015625 43.738281 63.050781 45.011719 63.027344 C 45.824219 63.011719 46.039062 61.804688 45.453125 61.355469 C 45.238281 61.183594 44.953125 61.175781 44.691406 61.171875 C 43.011719 61.171875 41.332031 61.175781 39.65625 61.171875 C 39.34375 61.167969 38.992188 61.214844 38.78125 61.46875 C 38.589844 61.675781 38.574219 61.96875 38.570312 62.238281 C 38.574219 64.109375 38.574219 65.980469 38.570312 67.851562 C 36.957031 67.882812 35.34375 67.871094 33.730469 67.859375 C 34.097656 66.015625 34.46875 64.175781 34.839844 62.335938 C 34.902344 62.015625 34.953125 61.644531 34.746094 61.363281 C 34.460938 61.050781 33.984375 61.007812 33.59375 61.105469 C 33.21875 61.234375 33.042969 61.636719 32.980469 62.003906 C 32.609375 63.972656 32.195312 65.933594 31.816406 67.898438 C 31 67.847656 30.175781 67.84375 29.359375 67.902344 C 28.960938 65.902344 28.574219 63.898438 28.171875 61.898438 C 28.109375 61.5625 27.914062 61.214844 27.566406 61.109375 C 27.167969 60.992188 26.652344 61.0625 26.390625 61.414062 C 26.160156 61.84375 26.347656 62.339844 26.425781 62.785156 C 26.765625 64.472656 27.109375 66.164062 27.445312 67.855469 C 25.871094 67.878906 24.296875 67.871094 22.722656 67.855469 C 22.71875 65.984375 22.722656 64.113281 22.722656 62.238281 C 22.738281 61.871094 22.625 61.4375 22.261719 61.269531 C 21.695312 61.015625 20.753906 61.179688 20.691406 61.921875 C 20.664062 63.898438 20.691406 65.875 20.679688 67.851562 C 18.09375 67.878906 15.507812 67.875 12.921875 67.855469 C 12.914062 65.910156 12.925781 63.964844 12.914062 62.023438 C 12.933594 61.015625 11.304688 60.847656 10.953125 61.699219 C 10.867188 61.90625 10.871094 62.132812 10.867188 62.351562 C 10.875 64.183594 10.871094 66.015625 10.871094 67.847656 C 8.121094 67.894531 5.371094 67.851562 2.621094 67.871094 C 1.972656 67.878906 1.296875 68.082031 0.839844 68.566406 C 0.503906 68.886719 0.296875 69.3125 0.121094 69.738281 C 0.078125 69.25 0.0742188 68.765625 0.0820312 68.277344 C 0.0820312 65.164062 0.0820312 62.054688 0.0820312 58.945312 C 0.078125 58.324219 0.0429688 57.667969 0.351562 57.109375 Z M 0.351562 57.109375 "/>
    <path style=" stroke:none;fill-rule:nonzero;fill:rgb(38.039216%,34.901961%,43.137255%);fill-opacity:1;" d="M 67.335938 63.5625 C 67.328125 63.289062 67.5625 63.035156 67.835938 63.042969 C 68.351562 63.023438 68.871094 63.027344 69.386719 63.042969 C 70.289062 63.074219 71.066406 63.863281 71.136719 64.765625 C 71.230469 65.792969 71.167969 66.824219 71.183594 67.855469 C 69.898438 67.875 68.617188 67.878906 67.332031 67.855469 C 67.332031 66.421875 67.328125 64.992188 67.335938 63.5625 Z M 67.335938 63.5625 "/>
  </g>
</svg>