<?xml version="1.0" encoding="UTF-8" ?>
<!DOCTYPE svg PUBLIC "-//W3C//DTD SVG 1.1//EN" "http://www.w3.org/Graphics/SVG/1.1/DTD/svg11.dtd">
<svg width="800pt" height="200pt" viewBox="0 0 800 200" version="1.1" xmlns="http://www.w3.org/2000/svg">
<g id="#ad8272cc">
<path fill="#ad8272" opacity="0.80" d=" M 239.45 49.92 C 248.50 46.61 258.88 47.56 267.84 50.87 C 269.90 51.45 271.90 52.34 273.38 53.95 C 262.96 48.59 250.84 47.29 239.45 49.92 Z" />
<path fill="#ad8272" opacity="0.80" d=" M 485.78 57.71 C 496.08 50.86 508.64 46.41 521.12 48.33 C 523.28 48.76 525.67 48.63 527.56 49.94 C 515.59 47.20 502.62 48.62 491.92 54.83 C 484.74 58.45 479.22 64.34 473.64 69.95 C 474.25 68.57 475.26 67.43 476.37 66.42 C 479.54 63.55 482.16 60.07 485.78 57.71 Z" />
<path fill="#ad8272" opacity="0.80" d=" M 73.48 56.04 C 78.79 51.31 86.23 48.32 93.38 48.74 C 86.24 49.55 79.47 52.09 73.48 56.04 Z" />
<path fill="#ad8272" opacity="0.80" d=" M 107.66 50.09 C 109.32 50.42 110.96 50.86 112.60 51.29 C 120.27 54.14 125.62 61.02 127.58 68.83 C 129.00 65.90 130.24 62.67 132.90 60.62 C 131.06 63.86 129.22 67.10 127.57 70.44 C 125.87 66.32 124.58 61.87 121.56 58.47 C 118.03 54.15 112.69 52.07 107.66 50.09 Z" />
<path fill="#ad8272" opacity="0.80" d=" M 141.98 52.27 C 144.49 51.55 146.88 50.48 149.42 49.86 C 147.04 51.14 144.56 52.21 141.99 53.04 L 141.98 52.27 Z" />
<path fill="#ad8272" opacity="0.80" d=" M 172.77 50.23 L 173.53 49.71 L 174.55 50.07 L 174.77 50.94 C 174.27 50.76 173.27 50.41 172.77 50.23 Z" />
<path fill="#ad8272" opacity="0.80" d=" M 234.01 52.01 C 234.33 50.36 237.33 49.68 238.86 50.03 C 238.06 51.96 235.78 51.98 234.01 52.01 Z" />
<path fill="#ad8272" opacity="0.80" d=" M 528.14 50.06 C 529.66 49.66 532.68 50.37 532.98 52.05 C 531.23 51.92 528.93 51.99 528.14 50.06 Z" />
<path fill="#ad8272" opacity="0.80" d=" M 587.72 51.37 C 588.81 50.15 590.55 50.68 591.98 50.55 C 597.28 50.59 602.59 50.65 607.90 50.49 C 608.14 65.96 607.92 81.43 608.01 96.90 L 607.29 96.84 C 606.99 81.69 607.65 66.52 606.97 51.39 C 600.56 51.54 594.13 51.68 587.72 51.37 Z" />
<path fill="#ad8272" opacity="0.80" d=" M 175.63 50.94 C 180.39 52.16 184.53 55.43 187.16 59.54 C 183.64 56.26 179.85 53.28 175.63 50.94 Z" />
<path fill="#ad8272" opacity="0.80" d=" M 77.53 58.08 C 81.47 53.89 87.61 52.12 93.24 52.08 C 87.67 53.13 82.36 55.07 77.53 58.08 Z" />
<path fill="#ad8272" opacity="0.80" d=" M 93.56 52.17 C 96.21 51.82 98.99 52.30 101.03 54.13 C 98.55 53.43 96.03 52.90 93.56 52.17 Z" />
<path fill="#ad8272" opacity="0.80" d=" M 137.86 60.37 C 142.53 54.69 150.52 51.97 157.75 52.17 L 156.43 52.62 C 149.48 52.91 143.35 56.38 137.86 60.37 Z" />
<path fill="#ad8272" opacity="0.80" d=" M 159.25 52.21 C 164.57 51.66 170.92 54.98 171.96 60.56 C 169.72 56.05 165.41 53.25 160.48 52.55 L 159.25 52.21 Z" />
<path fill="#ad8272" opacity="0.80" d=" M 255.89 52.40 C 257.10 50.91 260.98 51.87 260.58 53.91 C 259.07 53.62 257.58 53.23 256.17 52.65 L 255.89 52.40 Z" />
<path fill="#ad8272" opacity="0.80" d=" M 491.89 64.51 C 494.53 57.31 502.14 52.31 509.74 52.16 L 508.52 52.50 C 505.02 53.28 501.62 54.56 498.74 56.72 C 495.78 58.65 494.13 61.88 491.89 64.51 Z" />
<path fill="#ad8272" opacity="0.80" d=" M 520.41 52.09 C 524.33 52.20 528.66 53.11 531.44 56.10 C 527.90 54.39 524.25 52.95 520.41 52.09 Z" />
<path fill="#ad8272" opacity="0.80" d=" M 533.71 52.14 C 536.51 52.52 539.04 53.89 541.09 55.80 C 538.48 54.89 536.09 53.52 533.71 52.14 Z" />
<path fill="#ad8272" opacity="0.80" d=" M 225.04 57.06 C 224.93 55.36 227.73 53.77 229.30 54.31 C 228.35 55.81 226.91 57.05 225.04 57.06 Z" />
<path fill="#ad8272" opacity="0.80" d=" M 261.86 54.18 C 263.47 53.89 264.13 54.56 263.86 56.19 C 262.70 55.94 262.03 55.27 261.86 54.18 Z" />
<path fill="#ad8272" opacity="0.80" d=" M 273.58 54.08 C 276.31 54.96 278.78 56.63 280.29 59.10 C 277.95 57.57 275.74 55.86 273.58 54.08 Z" />
<path fill="#ad8272" opacity="0.80" d=" M 326.67 54.66 C 334.68 54.19 342.71 54.60 350.73 54.39 L 350.64 55.03 C 342.66 54.47 334.65 55.14 326.67 54.66 Z" />
<path fill="#ad8272" opacity="0.80" d=" M 410.68 54.65 C 418.78 54.22 426.90 54.55 435.01 54.42 L 434.74 55.07 C 426.73 54.42 418.69 55.17 410.68 54.65 Z" />
<path fill="#ad8272" opacity="0.80" d=" M 42.42 54.56 C 42.81 79.38 42.49 104.21 42.58 129.03 C 42.25 133.41 47.19 135.14 49.64 138.03 C 46.82 136.73 44.02 134.55 42.27 131.98 C 42.30 106.18 42.00 80.36 42.42 54.56 Z" />
<path fill="#ad8272" opacity="0.80" d=" M 101.77 55.19 C 103.56 54.81 104.24 55.50 103.81 57.27 C 102.89 56.81 102.21 56.12 101.77 55.19 Z" />
<path fill="#ad8272" opacity="0.80" d=" M 315.95 56.93 C 318.41 55.15 321.41 54.61 324.39 54.75 C 321.67 55.77 318.70 55.94 315.95 56.93 Z" />
<path fill="#ad8272" opacity="0.80" d=" M 369.98 59.01 C 370.14 57.16 371.03 55.49 372.73 54.64 C 373.07 56.15 371.70 59.18 369.98 59.01 Z" />
<path fill="#ad8272" opacity="0.80" d=" M 387.22 54.89 L 387.96 54.83 C 388.14 55.91 387.95 56.93 387.39 57.89 C 387.35 57.14 387.26 55.64 387.22 54.89 Z" />
<path fill="#ad8272" opacity="0.80" d=" M 398.00 57.96 C 400.85 55.50 404.71 54.71 408.40 54.76 C 406.48 55.64 404.33 55.66 402.32 56.16 C 393.92 60.10 390.77 69.36 387.09 77.15 C 386.26 77.06 384.59 76.90 383.76 76.81 C 384.04 76.72 384.60 76.52 384.88 76.42 C 385.38 76.25 386.37 75.89 386.87 75.71 C 389.97 69.48 392.40 62.50 398.00 57.96 Z" />
<path fill="#ad8272" opacity="0.80" d=" M 133.18 60.14 C 133.13 58.39 135.42 56.08 137.19 56.16 C 136.73 58.14 135.17 59.71 133.18 60.14 Z" />
<path fill="#ad8272" opacity="0.80" d=" M 348.48 59.45 C 347.72 58.27 348.96 55.77 350.48 56.28 C 350.50 57.64 349.53 58.71 348.48 59.45 Z" />
<path fill="#ad8272" opacity="0.80" d=" M 431.22 60.32 C 432.23 58.70 433.21 57.06 434.49 55.65 C 432.70 60.24 429.76 64.24 427.35 68.51 C 424.21 73.55 421.58 78.94 417.88 83.61 C 421.89 75.61 426.82 68.11 431.22 60.32 Z" />
<path fill="#ad8272" opacity="0.80" d=" M 222.23 59.13 C 222.05 57.62 222.73 56.97 224.29 57.18 C 224.16 58.40 223.48 59.05 222.23 59.13 Z" />
<path fill="#ad8272" opacity="0.80" d=" M 264.66 56.62 C 267.20 58.40 268.74 61.45 268.93 64.51 C 267.71 61.78 266.17 59.20 264.66 56.62 Z" />
<path fill="#ad8272" opacity="0.80" d=" M 309.02 64.03 C 310.42 60.94 312.77 58.39 315.88 56.97 C 314.95 58.26 313.69 59.25 312.39 60.15 C 311.39 61.54 310.60 63.20 309.02 64.03 Z" />
<path fill="#ad8272" opacity="0.80" d=" M 453.93 59.13 C 454.02 58.04 454.56 57.22 455.53 56.68 C 456.11 58.33 455.57 59.15 453.93 59.13 Z" />
<path fill="#ad8272" opacity="0.80" d=" M 735.09 57.34 C 736.57 55.94 740.03 58.16 739.10 60.03 C 737.62 59.34 736.33 58.37 735.09 57.34 Z" />
<path fill="#ad8272" opacity="0.80" d=" M 104.75 57.95 C 107.10 60.13 107.80 63.52 107.76 66.61 C 106.84 63.69 105.87 60.79 104.75 57.95 Z" />
<path fill="#ad8272" opacity="0.80" d=" M 187.14 60.14 C 188.77 60.01 189.81 62.82 189.65 64.22 C 187.85 63.75 186.81 61.94 187.14 60.14 Z" />
<path fill="#ad8272" opacity="0.80" d=" M 215.05 65.03 C 216.87 63.08 218.58 60.87 221.06 59.73 C 218.11 63.26 214.60 66.32 212.03 70.17 C 209.13 74.04 207.40 78.60 204.98 82.75 C 206.61 76.10 210.74 70.28 215.05 65.03 Z" />
<path fill="#ad8272" opacity="0.80" d=" M 347.31 60.51 C 347.35 60.46 347.43 60.37 347.47 60.32 C 347.43 60.37 347.35 60.46 347.31 60.51 Z" />
<path fill="#ad8272" opacity="0.80" d=" M 365.91 66.29 C 367.01 63.83 368.36 61.49 369.90 59.29 C 369.21 61.90 367.87 64.42 365.91 66.29 Z" />
<path fill="#ad8272" opacity="0.80" d=" M 385.96 68.55 C 386.39 65.60 385.72 62.30 387.06 59.58 C 386.97 62.60 386.63 65.60 385.96 68.55 Z" />
<path fill="#ad8272" opacity="0.80" d=" M 447.22 70.62 C 449.05 66.67 451.58 63.10 453.86 59.41 C 452.56 63.44 450.09 67.03 447.89 70.63 L 447.22 70.62 Z" />
<path fill="#ad8272" opacity="0.80" d=" M 132.93 66.54 C 133.50 64.16 135.12 62.28 137.18 61.03 C 135.86 62.94 134.42 64.76 132.93 66.54 Z" />
<path fill="#ad8272" opacity="0.80" d=" M 536.05 60.53 C 538.30 62.20 539.66 64.82 539.99 67.59 C 538.66 65.24 537.42 62.85 536.05 60.53 Z" />
<path fill="#ad8272" opacity="0.80" d=" M 549.42 62.08 C 552.02 62.76 554.09 65.14 554.87 67.66 C 552.98 65.88 551.16 64.02 549.42 62.08 Z" />
<path fill="#ad8272" opacity="0.80" d=" M 284.54 63.34 C 284.57 63.38 284.63 63.47 284.66 63.52 L 284.61 63.42 L 284.54 63.34 Z" />
<path fill="#ad8272" opacity="0.80" d=" M 340.70 71.94 C 342.11 68.59 344.02 65.42 346.26 62.54 C 345.08 66.03 343.12 69.18 340.70 71.94 Z" />
<path fill="#ad8272" opacity="0.80" d=" M 742.06 62.59 C 745.20 64.88 747.54 68.78 747.79 72.67 C 746.08 69.20 744.34 65.73 742.06 62.59 Z" />
<path fill="#ad8272" opacity="0.80" d=" M 172.99 63.64 C 173.80 65.29 174.07 67.12 174.01 68.95 C 173.91 87.66 174.08 106.36 173.93 125.07 C 173.71 125.46 173.26 126.26 173.04 126.66 C 172.93 105.66 173.04 84.65 172.99 63.64 Z" />
<path fill="#ad8272" opacity="0.80" d=" M 62.97 71.64 C 63.03 69.00 64.27 66.48 66.10 64.63 C 65.36 67.10 64.12 69.35 62.97 71.64 Z" />
<path fill="#ad8272" opacity="0.80" d=" M 65.09 75.49 C 65.93 71.37 67.92 67.22 71.14 64.45 C 69.05 68.09 66.96 71.73 65.09 75.49 Z" />
<path fill="#ad8272" opacity="0.80" d=" M 268.98 64.69 C 269.99 66.25 270.43 68.07 270.49 69.91 C 270.85 76.20 270.59 82.51 270.65 88.82 C 255.25 89.19 239.84 89.01 224.44 88.90 L 225.19 88.11 C 240.19 87.84 255.20 88.09 270.21 87.98 C 270.44 80.21 270.86 72.32 268.98 64.69 Z" />
<path fill="#ad8272" opacity="0.80" d=" M 285.11 64.40 C 289.83 69.66 292.46 76.98 292.68 84.02 L 292.20 84.08 C 292.04 76.89 288.34 70.58 285.11 64.40 Z" />
<path fill="#ad8272" opacity="0.80" d=" M 304.02 74.31 C 304.75 70.90 306.37 67.79 308.42 64.99 C 307.62 68.36 305.70 71.32 304.02 74.31 Z" />
<path fill="#ad8272" opacity="0.80" d=" M 488.08 76.51 C 488.05 72.36 489.27 67.95 491.84 64.66 C 490.63 68.62 488.88 72.42 488.08 76.51 Z" />
<path fill="#ad8272" opacity="0.80" d=" M 759.72 65.09 C 761.20 64.35 763.40 66.64 762.74 68.11 C 761.22 67.74 760.31 66.42 759.72 65.09 Z" />
<path fill="#ad8272" opacity="0.80" d=" M 127.14 88.07 C 127.27 80.76 127.87 72.55 132.77 66.75 C 130.02 72.44 127.79 78.58 127.89 84.98 C 127.99 102.17 127.84 119.37 127.97 136.56 C 128.56 136.38 129.74 136.00 130.33 135.82 C 129.40 136.66 128.35 137.36 127.28 138.01 C 126.96 121.37 127.25 104.71 127.14 88.07 Z" />
<path fill="#ad8272" opacity="0.80" d=" M 359.84 76.39 C 361.46 72.85 363.48 69.51 365.84 66.42 C 364.31 69.96 362.45 73.54 359.84 76.39 Z" />
<path fill="#ad8272" opacity="0.80" d=" M 228.19 68.07 L 228.95 68.11 C 228.28 71.73 226.80 75.17 226.45 78.85 C 226.14 81.17 226.11 83.59 225.10 85.75 C 225.09 79.72 226.64 73.85 228.19 68.07 Z" />
<path fill="#ad8272" opacity="0.80" d=" M 540.13 67.88 C 542.98 72.55 543.66 78.39 543.82 83.77 C 542.40 78.53 542.25 72.97 540.13 67.88 Z" />
<path fill="#ad8272" opacity="0.80" d=" M 554.92 67.72 C 557.29 69.35 558.93 71.94 559.98 74.58 C 558.14 72.41 556.43 70.13 554.92 67.72 Z" />
<path fill="#ad8272" opacity="0.80" d=" M 763.80 68.93 C 766.73 71.28 768.16 74.87 769.81 78.14 C 773.67 86.21 774.08 95.32 773.99 104.11 L 773.19 104.11 C 772.79 97.63 773.54 91.00 771.48 84.72 C 770.08 78.94 766.61 74.06 763.80 68.93 Z" />
<path fill="#ad8272" opacity="0.80" d=" M 385.20 70.97 L 385.94 70.93 C 386.13 71.99 385.95 72.99 385.42 73.94 C 385.23 73.44 384.86 72.43 384.67 71.92 L 385.20 70.97 Z" />
<path fill="#ad8272" opacity="0.80" d=" M 470.23 75.13 C 470.04 73.61 471.43 71.08 473.06 71.09 C 473.09 72.89 472.08 74.72 470.23 75.13 Z" />
<path fill="#ad8272" opacity="0.80" d=" M 441.03 81.36 C 442.55 78.06 444.10 74.69 446.76 72.14 C 445.19 75.38 443.56 78.76 441.03 81.36 Z" />
<path fill="#ad8272" opacity="0.80" d=" M 327.87 93.63 C 331.61 86.38 335.62 79.18 340.35 72.54 C 339.27 75.30 337.85 77.89 336.25 80.38 C 333.45 84.79 331.19 89.56 327.87 93.63 Z" />
<path fill="#ad8272" opacity="0.80" d=" M 747.88 72.92 L 748.85 72.91 C 749.36 75.40 749.82 77.92 749.80 80.47 C 749.19 77.94 748.65 75.40 747.88 72.92 Z" />
<path fill="#ad8272" opacity="0.80" d=" M 303.79 75.15 C 305.04 77.98 298.07 77.48 300.78 75.40 C 301.78 75.29 302.78 75.20 303.79 75.15 Z" />
<path fill="#ad8272" opacity="0.80" d=" M 560.03 74.66 C 563.17 78.57 565.53 83.55 565.89 88.59 C 564.35 83.78 562.12 79.25 560.03 74.66 Z" />
<path fill="#ad8272" opacity="0.80" d=" M 63.18 81.78 C 62.05 80.13 62.83 76.43 64.94 76.19 C 64.54 78.09 64.49 80.22 63.18 81.78 Z" />
<path fill="#ad8272" opacity="0.80" d=" M 467.05 80.05 C 467.70 78.35 468.70 76.81 470.03 75.57 C 466.09 83.44 463.18 92.02 463.76 100.96 C 463.71 113.04 469.67 124.00 476.99 133.22 C 472.53 129.70 470.17 124.34 467.21 119.64 C 464.93 113.65 463.01 107.41 462.96 100.95 C 462.65 93.77 464.52 86.71 467.05 80.05 Z" />
<path fill="#ad8272" opacity="0.80" d=" M 357.06 80.90 C 356.87 79.10 358.00 77.48 359.63 76.79 C 359.90 78.23 358.79 81.21 357.06 80.90 Z" />
<path fill="#ad8272" opacity="0.80" d=" M 351.03 91.33 C 352.60 87.78 354.50 84.35 357.05 81.39 C 355.54 84.93 353.69 88.55 351.03 91.33 Z" />
<path fill="#ad8272" opacity="0.80" d=" M 435.02 91.38 C 436.64 87.88 438.59 84.53 440.96 81.48 C 439.62 85.06 437.65 88.61 435.02 91.38 Z" />
<path fill="#ad8272" opacity="0.80" d=" M 203.13 88.87 C 202.93 87.18 203.16 83.62 205.03 83.22 C 205.47 85.29 204.72 87.48 203.13 88.87 Z" />
<path fill="#ad8272" opacity="0.80" d=" M 565.96 88.98 L 566.75 88.87 C 567.39 94.23 567.38 99.64 567.21 105.02 C 566.44 115.34 561.22 124.79 554.73 132.63 C 552.81 135.64 549.59 137.29 547.14 139.77 C 546.16 140.87 544.87 141.57 543.47 141.95 C 552.34 135.12 560.08 126.46 563.96 115.81 C 567.44 107.32 567.27 97.90 565.96 88.98 Z" />
<path fill="#ad8272" opacity="0.80" d=" M 344.98 101.41 C 346.62 97.90 348.58 94.55 350.94 91.47 C 349.63 95.06 347.62 98.64 344.98 101.41 Z" />
<path fill="#ad8272" opacity="0.80" d=" M 431.12 98.28 C 432.05 95.83 433.33 93.54 434.95 91.48 C 434.38 94.08 432.75 96.26 431.12 98.28 Z" />
<path fill="#ad8272" opacity="0.80" d=" M 408.01 100.55 C 408.63 97.94 410.22 95.70 411.91 93.68 C 410.95 96.15 409.64 98.46 408.01 100.55 Z" />
<path fill="#ad8272" opacity="0.80" d=" M 402.03 110.52 C 403.38 106.94 405.35 103.36 407.99 100.59 C 406.34 104.09 404.41 107.46 402.03 110.52 Z" />
<path fill="#ad8272" opacity="0.80" d=" M 341.19 108.33 C 341.87 105.75 343.38 103.52 344.98 101.42 C 344.45 104.06 342.69 106.18 341.19 108.33 Z" />
<path fill="#ad8272" opacity="0.80" d=" M 316.09 113.59 C 317.54 110.07 319.52 106.74 321.85 103.73 C 320.48 107.31 318.48 110.60 316.09 113.59 Z" />
<path fill="#ad8272" opacity="0.80" d=" M 396.07 120.58 C 397.33 116.96 399.40 113.45 401.97 110.63 C 400.40 114.16 398.42 117.50 396.07 120.58 Z" />
<path fill="#ad8272" opacity="0.80" d=" M 335.09 118.34 C 336.02 115.84 337.41 113.55 339.06 111.47 C 338.31 114.04 336.82 116.32 335.09 118.34 Z" />
<path fill="#ad8272" opacity="0.80" d=" M 203.11 112.16 C 205.40 120.16 208.88 127.77 214.06 134.32 C 211.05 132.43 209.53 129.08 207.71 126.18 C 205.63 121.73 203.25 117.18 203.11 112.16 Z" />
<path fill="#ad8272" opacity="0.80" d=" M 312.18 120.25 C 312.75 117.83 314.16 115.66 315.91 113.92 C 314.93 116.18 313.81 118.38 312.18 120.25 Z" />
<path fill="#ad8272" opacity="0.80" d=" M 769.92 118.98 C 769.84 117.12 770.11 115.06 771.70 113.85 C 772.04 115.40 771.77 118.71 769.92 118.98 Z" />
<path fill="#ad8272" opacity="0.80" d=" M 225.03 115.64 C 226.66 118.97 226.38 122.99 226.88 126.63 C 225.62 123.09 225.19 119.36 225.03 115.64 Z" />
<path fill="#ad8272" opacity="0.80" d=" M 541.94 125.27 C 542.43 121.94 542.89 118.60 543.75 115.34 C 543.71 118.65 543.90 122.42 541.94 125.27 Z" />
<path fill="#ad8272" opacity="0.80" d=" M 373.81 118.02 C 374.71 117.86 375.62 117.69 376.53 117.53 C 377.07 124.01 375.32 130.37 375.02 136.82 C 374.56 140.55 374.57 144.31 373.87 148.01 C 347.80 148.02 321.74 148.01 295.67 148.01 C 295.72 147.54 295.80 146.59 295.85 146.11 L 296.33 146.33 C 297.74 147.11 299.32 147.48 300.94 147.42 C 325.11 147.28 349.28 147.49 373.45 147.31 C 374.26 137.68 375.20 128.05 376.34 118.45 C 375.77 118.62 374.62 118.95 374.05 119.11 L 373.81 118.02 Z" />
<path fill="#ad8272" opacity="0.80" d=" M 735.83 140.21 C 743.57 135.07 747.75 126.32 749.82 117.52 C 749.84 123.23 747.17 128.56 744.04 133.19 C 741.82 136.01 739.44 139.18 735.83 140.21 Z" />
<path fill="#ad8272" opacity="0.80" d=" M 411.12 131.04 C 413.75 126.80 415.99 122.31 419.10 118.40 C 417.43 123.20 414.01 127.13 411.77 131.67 C 409.99 134.17 408.81 137.08 406.75 139.38 C 407.78 136.39 409.48 133.72 411.12 131.04 Z" />
<path fill="#ad8272" opacity="0.80" d=" M 371.16 127.03 C 372.07 124.58 372.53 121.94 373.89 119.67 C 372.84 124.95 371.38 130.37 368.00 134.67 C 368.60 131.95 370.25 129.64 371.16 127.03 Z" />
<path fill="#ad8272" opacity="0.80" d=" M 451.67 135.09 C 454.02 130.04 455.96 124.85 457.80 119.60 C 457.13 125.10 455.26 130.78 451.67 135.09 Z" />
<path fill="#ad8272" opacity="0.80" d=" M 306.36 129.96 C 307.46 126.64 309.47 123.57 311.71 120.91 C 310.39 124.18 308.65 127.26 306.36 129.96 Z" />
<path fill="#ad8272" opacity="0.80" d=" M 387.15 135.59 C 389.61 130.41 392.27 125.05 396.00 120.70 C 393.48 125.89 390.52 130.89 387.15 135.59 Z" />
<path fill="#ad8272" opacity="0.80" d=" M 488.04 122.36 C 489.06 125.70 490.03 129.05 491.10 132.38 C 488.82 129.61 488.02 125.88 488.04 122.36 Z" />
<path fill="#ad8272" opacity="0.80" d=" M 765.01 128.06 C 764.69 126.16 765.99 124.38 767.85 123.96 C 767.81 125.48 766.59 127.90 765.01 128.06 Z" />
<path fill="#ad8272" opacity="0.80" d=" M 227.01 127.07 L 227.66 126.95 C 228.25 130.05 230.37 132.54 231.06 135.60 C 228.93 133.18 227.80 130.14 227.01 127.07 Z" />
<path fill="#ad8272" opacity="0.80" d=" M 285.21 126.67 L 286.03 126.89 C 285.30 130.29 283.33 133.19 281.12 135.80 C 282.01 132.53 285.08 130.26 285.21 126.67 Z" />
<path fill="#ad8272" opacity="0.80" d=" M 286.03 135.28 C 287.18 132.52 288.50 129.84 289.99 127.25 C 289.36 130.16 288.11 133.10 286.03 135.28 Z" />
<path fill="#ad8272" opacity="0.80" d=" M 319.53 143.99 C 322.46 138.63 325.51 133.30 329.06 128.32 C 327.18 133.05 324.10 137.17 321.84 141.71 C 321.41 142.27 320.56 143.39 320.13 143.94 L 319.53 143.99 Z" />
<path fill="#ad8272" opacity="0.80" d=" M 760.93 132.86 C 761.04 131.25 762.33 130.06 763.79 129.54 C 764.28 131.00 762.41 133.20 760.93 132.86 Z" />
<path fill="#ad8272" opacity="0.80" d=" M 299.96 140.56 C 301.40 137.19 303.17 133.81 305.66 131.10 C 304.31 134.55 302.44 137.79 299.96 140.56 Z" />
<path fill="#ad8272" opacity="0.80" d=" M 130.56 135.72 C 133.60 134.15 136.75 132.81 140.05 131.89 C 137.16 133.75 133.89 134.93 130.56 135.72 Z" />
<path fill="#ad8272" opacity="0.80" d=" M 491.36 132.75 C 492.15 133.69 492.92 134.75 493.06 136.03 C 491.41 136.73 490.24 133.83 491.36 132.75 Z" />
<path fill="#ad8272" opacity="0.80" d=" M 478.02 134.04 C 479.09 134.31 479.73 134.96 479.93 135.99 C 478.24 136.35 477.60 135.70 478.02 134.04 Z" />
<path fill="#ad8272" opacity="0.80" d=" M 759.43 134.67 C 759.48 134.63 759.59 134.55 759.65 134.51 C 759.59 134.55 759.48 134.63 759.43 134.67 Z" />
<path fill="#ad8272" opacity="0.80" d=" M 214.48 134.63 C 215.71 135.35 216.90 136.27 217.41 137.66 C 215.91 138.60 213.57 136.09 214.48 134.63 Z" />
<path fill="#ad8272" opacity="0.80" d=" M 365.75 138.17 C 364.79 136.95 366.57 134.42 368.01 135.13 C 368.33 136.66 366.99 137.66 365.75 138.17 Z" />
<path fill="#ad8272" opacity="0.80" d=" M 135.85 137.64 C 137.15 136.31 138.94 135.44 140.83 135.85 C 140.70 137.70 137.33 138.01 135.85 137.64 Z" />
<path fill="#ad8272" opacity="0.80" d=" M 263.60 149.98 C 272.52 147.85 280.18 142.41 285.96 135.39 C 284.52 139.19 281.15 141.64 278.09 144.06 C 273.72 146.97 269.01 149.81 263.60 149.98 Z" />
<path fill="#ad8272" opacity="0.80" d=" M 382.94 142.56 C 383.97 140.11 385.10 137.58 387.08 135.72 C 386.00 138.17 384.71 140.54 382.94 142.56 Z" />
<path fill="#ad8272" opacity="0.80" d=" M 450.39 136.64 C 450.43 136.59 450.51 136.49 450.55 136.44 C 450.51 136.49 450.43 136.59 450.39 136.64 Z" />
<path fill="#ad8272" opacity="0.80" d=" M 532.54 142.37 C 534.55 140.15 536.35 137.74 538.07 135.28 C 537.48 138.33 535.35 141.07 532.54 142.37 Z" />
<path fill="#ad8272" opacity="0.80" d=" M 480.69 137.03 C 484.48 139.34 487.81 142.36 491.76 144.42 C 496.13 146.91 501.01 148.23 505.72 149.92 C 501.49 149.60 497.47 148.09 493.80 146.03 C 489.00 143.78 484.13 141.16 480.69 137.03 Z" />
<path fill="#ad8272" opacity="0.80" d=" M 49.72 138.09 C 53.36 140.29 57.02 142.48 60.51 144.93 C 56.55 143.39 52.49 141.38 49.72 138.09 Z" />
<path fill="#ad8272" opacity="0.80" d=" M 357.65 143.22 C 359.96 141.77 362.14 140.08 364.62 138.89 C 362.87 141.15 360.43 142.63 357.65 143.22 Z" />
<path fill="#ad8272" opacity="0.80" d=" M 441.64 143.24 C 443.96 141.78 446.15 140.10 448.61 138.88 C 447.00 141.29 444.38 142.58 441.64 143.24 Z" />
<path fill="#ad8272" opacity="0.80" d=" M 742.29 143.99 C 745.93 142.10 749.58 140.22 753.46 138.84 C 750.18 141.28 746.34 143.28 742.29 143.99 Z" />
<path fill="#ad8272" opacity="0.80" d=" M 299.54 140.94 L 299.95 141.12 C 300.14 142.91 298.90 144.35 297.54 145.32 C 296.89 143.77 298.09 141.64 299.54 140.94 Z" />
<path fill="#ad8272" opacity="0.80" d=" M 497.95 142.12 C 499.36 142.87 500.72 143.72 502.01 144.68 C 500.47 146.12 497.04 144.14 497.95 142.12 Z" />
<path fill="#ad8272" opacity="0.80" d=" M 534.42 146.87 C 537.29 145.17 540.17 143.49 543.22 142.11 C 540.72 144.30 537.78 146.39 534.42 146.87 Z" />
<path fill="#ad8272" opacity="0.80" d=" M 62.24 143.77 L 62.80 143.49 L 62.79 143.95 C 62.65 143.91 62.38 143.82 62.24 143.77 Z" />
<path fill="#ad8272" opacity="0.80" d=" M 355.28 143.15 L 356.33 142.83 L 357.08 143.42 C 356.58 143.58 355.56 143.90 355.06 144.06 L 355.28 143.15 Z" />
<path fill="#ad8272" opacity="0.80" d=" M 382.21 143.50 C 382.26 143.44 382.35 143.31 382.39 143.25 L 382.30 143.37 L 382.21 143.50 Z" />
<path fill="#ad8272" opacity="0.80" d=" M 439.32 143.16 L 440.37 142.83 L 441.12 143.43 C 440.62 143.59 439.60 143.90 439.10 144.06 L 439.32 143.16 Z" />
<path fill="#ad8272" opacity="0.80" d=" M 502.32 144.89 C 511.94 148.27 523.20 148.15 532.06 142.75 C 529.88 145.82 525.79 146.34 522.40 147.14 C 516.21 147.76 509.78 147.93 503.78 146.06 C 503.42 145.77 502.69 145.18 502.32 144.89 Z" />
<path fill="#ad8272" opacity="0.80" d=" M 64.12 144.03 C 65.85 144.15 67.81 144.37 69.00 145.78 C 67.50 146.65 64.28 145.90 64.12 144.03 Z" />
<path fill="#ad8272" opacity="0.80" d=" M 239.65 143.98 C 243.14 145.49 246.84 146.27 250.45 147.30 C 246.60 147.50 242.69 146.39 239.65 143.98 Z" />
<path fill="#ad8272" opacity="0.80" d=" M 265.85 145.58 C 266.65 144.33 268.72 143.82 269.97 144.64 C 268.92 145.73 267.51 146.39 265.98 146.15 L 265.85 145.58 Z" />
<path fill="#ad8272" opacity="0.80" d=" M 716.54 145.72 C 720.42 144.89 724.47 145.03 728.26 143.66 C 725.15 146.21 720.37 145.67 716.54 145.72 Z" />
<path fill="#ad8272" opacity="0.80" d=" M 69.77 145.95 C 72.73 146.53 75.72 147.03 78.64 147.82 C 75.64 147.75 72.30 147.81 69.77 145.95 Z" />
<path fill="#ad8272" opacity="0.80" d=" M 97.57 147.42 C 100.40 146.72 103.32 146.44 106.22 146.12 C 103.05 147.29 99.68 148.00 96.29 147.79 L 97.57 147.42 Z" />
<path fill="#ad8272" opacity="0.80" d=" M 230.16 146.00 C 231.69 145.79 233.41 146.31 234.11 147.81 C 232.86 148.26 229.95 147.66 230.16 146.00 Z" />
<path fill="#ad8272" opacity="0.80" d=" M 257.64 147.31 C 260.10 146.15 262.91 146.26 265.55 146.17 C 262.98 146.90 260.34 147.52 257.64 147.31 Z" />
<path fill="#ad8272" opacity="0.80" d=" M 729.14 146.92 C 730.95 145.97 732.98 145.75 735.00 146.01 C 734.13 147.68 730.73 147.87 729.14 146.92 Z" />
<path fill="#ad8272" opacity="0.80" d=" M 531.95 147.90 C 532.39 147.64 533.28 147.12 533.72 146.86 L 533.68 147.73 C 533.24 147.77 532.38 147.86 531.95 147.90 Z" />
<path fill="#ad8272" opacity="0.80" d=" M 687.31 147.84 C 691.16 146.98 695.12 147.18 699.04 147.42 C 704.15 147.73 709.28 147.42 714.39 147.89 C 705.37 148.05 696.33 148.17 687.31 147.84 Z" />
<path fill="#ad8272" opacity="0.80" d=" M 718.65 147.89 C 721.55 147.54 724.47 147.32 727.40 147.31 C 724.67 148.62 721.55 147.89 718.65 147.89 Z" />
<path fill="#ad8272" opacity="0.80" d=" M 234.61 147.91 C 237.57 148.43 240.48 149.19 243.38 149.96 C 240.39 149.99 237.09 149.75 234.61 147.91 Z" />
<path fill="#ad8272" opacity="0.80" d=" M 525.13 149.86 C 526.47 148.03 528.82 147.76 530.93 147.93 C 530.45 150.00 526.89 149.79 525.13 149.86 Z" />
<path fill="#ad8272" opacity="0.80" d=" M 75.06 150.14 C 84.98 151.82 95.07 151.67 105.00 150.12 C 95.26 153.04 84.92 152.08 74.98 150.83 L 75.06 150.14 Z" />
<path fill="#ad8272" opacity="0.80" d=" M 244.06 150.00 C 244.46 150.01 245.26 150.01 245.67 150.01 L 245.72 150.77 L 244.92 151.25 L 244.07 150.82 L 244.06 150.00 Z" />
<path fill="#ad8272" opacity="0.80" d=" M 259.08 150.40 C 260.33 149.97 261.64 149.69 262.96 149.94 L 262.98 150.57 C 261.64 151.60 260.34 151.55 259.08 150.40 Z" />
<path fill="#ad8272" opacity="0.80" d=" M 506.65 150.13 C 512.56 149.95 518.49 150.60 524.39 149.95 C 523.41 151.49 521.40 150.57 519.95 150.88 C 515.54 151.30 510.87 151.55 506.65 150.13 Z" />
</g>
<g id="#e53417ff">
<path fill="#e53417" opacity="1.00" d=" M 93.38 48.74 C 94.73 48.59 96.11 48.60 97.46 48.85 C 100.61 49.59 103.84 49.93 107.07 50.04 L 107.66 50.09 C 112.69 52.07 118.03 54.15 121.56 58.47 C 124.58 61.87 125.87 66.32 127.57 70.44 C 129.22 67.10 131.06 63.86 132.90 60.62 L 133.18 60.14 C 135.17 59.71 136.73 58.14 137.19 56.16 L 138.08 56.05 C 139.19 55.96 139.91 55.35 140.24 54.23 C 140.68 53.93 141.56 53.34 141.99 53.04 C 144.56 52.21 147.04 51.14 149.42 49.86 C 153.72 48.05 158.50 48.83 163.03 48.65 C 166.27 48.73 169.92 48.46 172.77 50.23 C 173.27 50.41 174.27 50.76 174.77 50.94 L 175.63 50.94 C 179.85 53.28 183.64 56.26 187.16 59.54 L 187.14 60.14 C 186.81 61.94 187.85 63.75 189.65 64.22 L 189.74 64.63 C 191.85 71.92 192.49 79.48 192.41 87.04 C 192.29 103.03 192.59 119.03 192.25 135.02 C 191.63 135.07 190.39 135.17 189.77 135.22 C 187.51 135.21 185.31 134.59 183.12 134.12 C 172.18 131.61 160.66 131.60 149.69 133.94 L 149.00 134.06 C 146.56 134.45 144.14 135.02 141.84 135.92 L 140.83 135.85 C 138.94 135.44 137.15 136.31 135.85 137.64 L 135.28 138.08 C 129.90 139.94 125.02 142.93 119.79 145.15 C 115.31 147.16 110.57 148.50 105.89 149.94 L 105.00 150.12 C 95.07 151.67 84.98 151.82 75.06 150.14 L 74.19 150.00 C 70.23 149.00 66.38 147.59 62.57 146.12 C 61.86 145.76 61.17 145.37 60.51 144.93 C 57.02 142.48 53.36 140.29 49.72 138.09 L 49.64 138.03 C 47.19 135.14 42.25 133.41 42.58 129.03 C 42.49 104.21 42.81 79.38 42.42 54.56 C 36.99 53.72 31.48 54.24 26.01 54.12 C 26.00 53.58 26.00 52.50 26.00 51.96 C 37.65 51.97 49.30 51.92 60.94 51.99 C 61.03 59.87 60.59 67.77 61.17 75.64 C 61.73 74.72 62.50 73.88 62.68 72.78 L 62.97 71.64 C 64.12 69.35 65.36 67.10 66.10 64.63 C 66.21 64.34 66.41 63.74 66.52 63.44 L 67.51 63.18 C 69.11 63.05 69.87 61.50 70.08 60.08 C 70.50 58.29 72.14 57.15 73.48 56.04 C 79.47 52.09 86.24 49.55 93.38 48.74 M 77.53 58.08 C 77.29 58.27 76.82 58.64 76.59 58.82 C 73.92 59.47 71.70 61.72 71.16 64.42 L 71.14 64.45 C 67.92 67.22 65.93 71.37 65.09 75.49 L 64.94 76.19 C 62.83 76.43 62.05 80.13 63.18 81.78 L 63.09 82.41 C 60.99 84.99 61.83 88.84 61.23 91.97 C 61.03 107.30 61.24 122.63 61.14 137.96 C 61.21 139.94 60.82 142.13 62.24 143.77 C 62.38 143.82 62.65 143.91 62.79 143.95 L 64.12 144.03 C 64.28 145.90 67.50 146.65 69.00 145.78 L 69.77 145.95 C 72.30 147.81 75.64 147.75 78.64 147.82 L 79.38 147.95 C 79.97 149.86 83.62 149.53 85.06 148.51 C 86.67 148.65 88.31 148.78 89.89 148.31 C 91.18 149.59 95.13 149.95 95.60 147.95 L 96.29 147.79 C 99.68 148.00 103.05 147.29 106.22 146.12 L 107.09 146.02 C 107.46 145.93 108.19 145.74 108.56 145.65 C 108.90 121.10 108.58 96.54 108.73 71.98 C 108.62 70.22 109.05 68.22 107.78 66.76 L 107.76 66.61 C 107.80 63.52 107.10 60.13 104.75 57.95 C 104.51 57.78 104.05 57.44 103.81 57.27 C 104.24 55.50 103.56 54.81 101.77 55.19 C 101.58 54.93 101.21 54.40 101.03 54.13 C 98.99 52.30 96.21 51.82 93.56 52.17 L 93.24 52.08 C 87.61 52.12 81.47 53.89 77.53 58.08 M 137.86 60.37 C 137.69 60.54 137.35 60.87 137.18 61.03 C 135.12 62.28 133.50 64.16 132.93 66.54 L 132.77 66.75 C 127.87 72.55 127.27 80.76 127.14 88.07 C 127.25 104.71 126.96 121.37 127.28 138.01 C 128.35 137.36 129.40 136.66 130.33 135.82 L 130.56 135.72 C 133.89 134.93 137.16 133.75 140.05 131.89 L 140.52 131.73 C 143.47 131.38 147.59 131.54 149.36 128.78 L 149.42 128.76 C 152.70 128.73 155.85 127.74 159.02 127.04 C 159.54 126.90 160.57 126.63 161.09 126.49 C 162.42 127.69 163.36 127.55 163.91 126.06 C 166.88 126.87 170.01 126.32 173.04 126.66 C 173.26 126.26 173.71 125.46 173.93 125.07 C 174.08 106.36 173.91 87.66 174.01 68.95 C 174.07 67.12 173.80 65.29 172.99 63.64 C 172.74 62.58 172.39 61.55 171.96 60.56 C 170.92 54.98 164.57 51.66 159.25 52.21 C 158.87 52.20 158.13 52.18 157.75 52.17 C 150.52 51.97 142.53 54.69 137.86 60.37 Z" />
<path fill="#e53417" opacity="1.00" d=" M 239.45 49.92 C 250.84 47.29 262.96 48.59 273.38 53.95 L 273.58 54.08 C 275.74 55.86 277.95 57.57 280.29 59.10 C 281.94 60.26 283.29 61.78 284.54 63.34 L 284.61 63.42 L 284.66 63.52 L 285.11 64.40 C 288.34 70.58 292.04 76.89 292.20 84.08 C 291.83 86.00 291.73 88.09 292.81 89.83 L 293.52 91.23 C 275.02 91.36 256.51 91.27 238.01 91.29 C 233.48 91.37 228.85 90.74 224.44 92.04 L 224.09 92.13 C 223.89 94.02 223.96 95.92 224.22 97.80 C 224.51 100.30 224.49 102.83 224.28 105.34 C 223.79 108.43 224.00 111.57 224.85 114.58 C 224.89 114.85 224.98 115.38 225.03 115.64 C 225.19 119.36 225.62 123.09 226.88 126.63 L 227.01 127.07 C 227.80 130.14 228.93 133.18 231.06 135.60 L 231.16 135.73 C 233.14 139.04 236.02 141.65 239.25 143.70 L 239.65 143.98 C 242.69 146.39 246.60 147.50 250.45 147.30 C 252.85 147.29 255.25 147.26 257.64 147.31 C 260.34 147.52 262.98 146.90 265.55 146.17 L 265.98 146.15 C 267.51 146.39 268.92 145.73 269.97 144.64 L 270.46 144.25 C 274.84 142.80 278.95 140.09 281.07 135.87 L 281.12 135.80 C 283.33 133.19 285.30 130.29 286.03 126.89 L 286.14 126.51 C 286.59 124.96 287.00 123.40 287.43 121.85 C 288.40 122.08 290.34 122.55 291.31 122.79 C 290.94 124.15 290.58 125.51 290.15 126.86 L 289.99 127.25 C 288.50 129.84 287.18 132.52 286.03 135.28 L 285.96 135.39 C 280.18 142.41 272.52 147.85 263.60 149.98 L 262.96 149.94 C 261.64 149.69 260.33 149.97 259.08 150.40 C 258.48 150.44 257.27 150.54 256.67 150.59 C 253.01 150.23 249.33 150.30 245.67 150.01 C 245.26 150.01 244.46 150.01 244.06 150.00 L 243.38 149.96 C 240.48 149.19 237.57 148.43 234.61 147.91 L 234.11 147.81 C 233.41 146.31 231.69 145.79 230.16 146.00 L 228.84 146.01 C 227.87 144.32 225.96 143.68 224.21 143.15 C 223.77 142.99 222.89 142.69 222.45 142.53 L 222.22 141.54 C 222.09 140.00 220.65 138.83 219.13 138.97 L 218.06 138.92 C 217.90 138.61 217.57 137.98 217.41 137.66 C 216.90 136.27 215.71 135.35 214.48 134.63 L 214.06 134.32 C 208.88 127.77 205.40 120.16 203.11 112.16 C 203.08 112.00 203.03 111.68 203.00 111.52 C 202.89 104.23 202.72 96.94 203.09 89.65 L 203.13 88.87 C 204.72 87.48 205.47 85.29 205.03 83.22 L 204.98 82.75 C 207.40 78.60 209.13 74.04 212.03 70.17 C 214.60 66.32 218.11 63.26 221.06 59.73 L 221.50 59.22 L 222.23 59.13 C 223.48 59.05 224.16 58.40 224.29 57.18 L 225.04 57.06 C 226.91 57.05 228.35 55.81 229.30 54.31 C 230.47 52.99 232.23 52.08 234.01 52.01 C 235.78 51.98 238.06 51.96 238.86 50.03 L 239.45 49.92 M 246.61 52.11 C 244.52 52.66 242.40 53.15 240.41 53.97 C 237.45 54.18 235.44 56.57 233.53 58.55 C 231.41 61.10 229.02 63.94 229.08 67.46 L 228.95 68.11 L 228.19 68.07 C 226.64 73.85 225.09 79.72 225.10 85.75 C 225.13 86.34 225.17 87.52 225.19 88.11 L 224.44 88.90 C 239.84 89.01 255.25 89.19 270.65 88.82 C 270.59 82.51 270.85 76.20 270.49 69.91 C 270.43 68.07 269.99 66.25 268.98 64.69 L 268.93 64.51 C 268.74 61.45 267.20 58.40 264.66 56.62 C 264.46 56.51 264.06 56.30 263.86 56.19 C 264.13 54.56 263.47 53.89 261.86 54.18 L 260.58 53.91 C 260.98 51.87 257.10 50.91 255.89 52.40 L 255.40 52.00 C 252.84 50.49 249.06 50.34 246.61 52.11 Z" />
<path fill="#e53417" opacity="1.00" d=" M 491.92 54.83 C 502.62 48.62 515.59 47.20 527.56 49.94 L 528.14 50.06 C 528.93 51.99 531.23 51.92 532.98 52.05 L 533.71 52.14 C 536.09 53.52 538.48 54.89 541.09 55.80 L 541.42 55.93 C 543.50 58.46 546.16 60.41 549.08 61.86 L 549.42 62.08 C 551.16 64.02 552.98 65.88 554.87 67.66 L 554.92 67.72 C 556.43 70.13 558.14 72.41 559.98 74.58 L 560.03 74.66 C 562.12 79.25 564.35 83.78 565.89 88.59 L 565.96 88.98 C 567.27 97.90 567.44 107.32 563.96 115.81 C 560.08 126.46 552.34 135.12 543.47 141.95 L 543.22 142.11 C 540.17 143.49 537.29 145.17 534.42 146.87 L 533.72 146.86 C 533.28 147.12 532.39 147.64 531.95 147.90 L 530.93 147.93 C 528.82 147.76 526.47 148.03 525.13 149.86 L 524.39 149.95 C 518.49 150.60 512.56 149.95 506.65 150.13 C 506.41 150.08 505.95 149.97 505.72 149.92 C 501.01 148.23 496.13 146.91 491.76 144.42 C 487.81 142.36 484.48 139.34 480.69 137.03 L 480.07 136.64 L 479.93 135.99 C 479.73 134.96 479.09 134.31 478.02 134.04 C 477.76 133.83 477.25 133.43 476.99 133.22 C 469.67 124.00 463.71 113.04 463.76 100.96 C 463.18 92.02 466.09 83.44 470.03 75.57 L 470.23 75.13 C 472.08 74.72 473.09 72.89 473.06 71.09 L 473.13 70.42 L 473.64 69.95 C 479.22 64.34 484.74 58.45 491.92 54.83 M 510.43 52.02 C 510.26 52.05 509.92 52.13 509.74 52.16 C 502.14 52.31 494.53 57.31 491.89 64.51 L 491.84 64.66 C 489.27 67.95 488.05 72.36 488.08 76.51 C 487.85 77.52 487.60 78.53 487.34 79.53 C 486.96 83.38 486.44 87.20 486.56 91.07 C 485.81 95.78 485.37 100.68 486.35 105.37 C 486.05 110.91 486.32 116.55 487.99 121.87 L 488.04 122.36 C 488.02 125.88 488.82 129.61 491.10 132.38 L 491.36 132.75 C 490.24 133.83 491.41 136.73 493.06 136.03 L 493.17 136.55 C 494.23 138.51 495.57 140.33 497.37 141.68 L 497.95 142.12 C 497.04 144.14 500.47 146.12 502.01 144.68 L 502.32 144.89 C 502.69 145.18 503.42 145.77 503.78 146.06 C 509.78 147.93 516.21 147.76 522.40 147.14 C 525.79 146.34 529.88 145.82 532.06 142.75 C 532.18 142.65 532.42 142.47 532.54 142.37 C 535.35 141.07 537.48 138.33 538.07 135.28 L 538.14 135.15 C 540.19 132.39 541.03 128.94 541.78 125.65 L 541.94 125.27 C 543.90 122.42 543.71 118.65 543.75 115.34 C 543.99 113.38 543.94 111.39 544.12 109.42 C 544.27 109.02 544.55 108.23 544.69 107.83 C 544.76 100.25 545.03 92.64 543.83 85.13 C 543.83 84.79 543.82 84.11 543.82 83.77 C 543.66 78.39 542.98 72.55 540.13 67.88 L 539.99 67.59 C 539.66 64.82 538.30 62.20 536.05 60.53 L 535.60 60.10 C 536.72 58.12 534.06 55.34 532.03 56.37 L 531.44 56.10 C 528.66 53.11 524.33 52.20 520.41 52.09 L 520.25 52.06 C 517.51 50.35 513.17 50.37 510.43 52.02 Z" />
<path fill="#e53417" opacity="1.00" d=" M 304.37 52.08 C 320.92 51.83 337.48 52.02 354.03 51.96 C 360.84 52.07 367.66 51.65 374.45 52.35 C 374.02 52.92 373.16 54.07 372.73 54.64 C 371.03 55.49 370.14 57.16 369.98 59.01 L 369.90 59.29 C 368.36 61.49 367.01 63.83 365.91 66.29 L 365.84 66.42 C 363.48 69.51 361.46 72.85 359.84 76.39 L 359.63 76.79 C 358.00 77.48 356.87 79.10 357.06 80.90 L 357.05 81.39 C 354.50 84.35 352.60 87.78 351.03 91.33 L 350.94 91.47 C 348.58 94.55 346.62 97.90 344.98 101.41 L 344.98 101.42 C 343.38 103.52 341.87 105.75 341.19 108.33 L 340.95 109.06 C 339.96 109.34 339.39 110.03 339.25 111.14 L 339.06 111.47 C 337.41 113.55 336.02 115.84 335.09 118.34 L 334.97 118.58 C 333.03 121.66 331.19 124.80 329.32 127.91 L 329.06 128.32 C 325.51 133.30 322.46 138.63 319.53 143.99 L 319.69 144.95 C 328.80 145.10 337.91 144.91 347.02 145.05 C 349.58 145.14 352.13 144.79 354.61 144.14 L 355.06 144.06 C 355.56 143.90 356.58 143.58 357.08 143.42 L 357.65 143.22 C 360.43 142.63 362.87 141.15 364.62 138.89 C 364.90 138.71 365.47 138.35 365.75 138.17 C 366.99 137.66 368.33 136.66 368.01 135.13 L 368.00 134.67 C 371.38 130.37 372.84 124.95 373.89 119.67 L 374.05 119.11 C 374.62 118.95 375.77 118.62 376.34 118.45 C 375.20 128.05 374.26 137.68 373.45 147.31 C 349.28 147.49 325.11 147.28 300.94 147.42 C 299.32 147.48 297.74 147.11 296.33 146.33 L 297.54 145.32 C 298.90 144.35 300.14 142.91 299.95 141.12 L 299.96 140.56 C 302.44 137.79 304.31 134.55 305.66 131.10 L 306.36 129.96 C 308.65 127.26 310.39 124.18 311.71 120.91 L 312.18 120.25 C 313.81 118.38 314.93 116.18 315.91 113.92 L 316.09 113.59 C 318.48 110.60 320.48 107.31 321.85 103.73 L 322.00 103.43 C 324.07 100.27 326.00 97.04 327.81 93.73 L 327.87 93.63 C 331.19 89.56 333.45 84.79 336.25 80.38 C 337.85 77.89 339.27 75.30 340.35 72.54 C 340.44 72.39 340.61 72.09 340.70 71.94 C 343.12 69.18 345.08 66.03 346.26 62.54 C 346.52 62.04 347.05 61.02 347.31 60.51 C 347.35 60.46 347.43 60.37 347.47 60.32 L 348.48 59.45 C 349.53 58.71 350.50 57.64 350.48 56.28 C 350.52 55.96 350.60 55.34 350.64 55.03 L 350.73 54.39 C 342.71 54.60 334.68 54.19 326.67 54.66 C 326.10 54.68 324.96 54.72 324.39 54.75 C 321.41 54.61 318.41 55.15 315.95 56.93 L 315.88 56.97 C 312.77 58.39 310.42 60.94 309.02 64.03 L 308.42 64.99 C 306.37 67.79 304.75 70.90 304.02 74.31 L 303.79 75.15 C 302.78 75.20 301.78 75.29 300.78 75.40 L 300.95 74.37 C 301.86 69.32 302.36 64.22 303.14 59.15 L 303.23 58.64 C 303.74 56.48 304.10 54.29 304.37 52.08 Z" />
<path fill="#e53417" opacity="1.00" d=" M 387.76 52.10 C 403.51 51.79 419.26 52.05 435.00 51.95 C 442.83 52.06 450.68 51.70 458.50 52.20 C 457.64 53.77 457.04 55.60 455.53 56.68 C 454.56 57.22 454.02 58.04 453.93 59.13 L 453.86 59.41 C 451.58 63.10 449.05 66.67 447.22 70.62 L 446.76 72.14 C 444.10 74.69 442.55 78.06 441.03 81.36 L 440.96 81.48 C 438.59 84.53 436.64 87.88 435.02 91.38 L 434.95 91.48 C 433.33 93.54 432.05 95.83 431.12 98.28 L 430.98 98.56 C 429.09 101.54 427.11 104.48 425.63 107.69 L 425.14 108.52 C 422.93 111.63 421.04 114.95 419.18 118.28 L 419.10 118.40 C 415.99 122.31 413.75 126.80 411.12 131.04 C 409.48 133.72 407.78 136.39 406.75 139.38 C 406.67 139.57 406.52 139.96 406.44 140.15 L 406.27 140.31 C 404.62 141.40 403.76 143.11 403.29 144.97 C 412.84 145.05 422.40 144.94 431.95 145.05 C 434.23 145.10 436.49 144.67 438.70 144.13 L 439.10 144.06 C 439.60 143.90 440.62 143.59 441.12 143.43 L 441.64 143.24 C 444.38 142.58 447.00 141.29 448.61 138.88 C 449.21 138.14 449.80 137.39 450.39 136.64 C 450.43 136.59 450.51 136.49 450.55 136.44 C 450.83 136.11 451.39 135.43 451.67 135.09 C 455.26 130.78 457.13 125.10 457.80 119.60 L 457.89 118.21 C 458.52 118.16 459.78 118.07 460.41 118.03 C 460.27 120.46 460.14 122.90 460.04 125.34 C 459.95 127.08 459.92 128.81 459.85 130.55 C 458.33 135.82 459.20 141.53 457.81 146.86 C 432.22 147.08 406.61 147.10 381.02 146.86 L 380.91 145.54 C 381.23 145.03 381.89 144.01 382.21 143.50 L 382.30 143.37 L 382.39 143.25 L 382.94 142.56 C 384.71 140.54 386.00 138.17 387.08 135.72 L 387.15 135.59 C 390.52 130.89 393.48 125.89 396.00 120.70 L 396.07 120.58 C 398.42 117.50 400.40 114.16 401.97 110.63 L 402.03 110.52 C 404.41 107.46 406.34 104.09 407.99 100.59 L 408.01 100.55 C 409.64 98.46 410.95 96.15 411.91 93.68 L 412.03 93.43 C 414.06 90.26 416.00 87.04 417.80 83.73 L 417.88 83.61 C 421.58 78.94 424.21 73.55 427.35 68.51 C 429.76 64.24 432.70 60.24 434.49 55.65 C 434.56 55.50 434.68 55.21 434.74 55.07 L 435.01 54.42 C 426.90 54.55 418.78 54.22 410.68 54.65 C 410.11 54.68 408.97 54.73 408.40 54.76 C 404.71 54.71 400.85 55.50 398.00 57.96 C 392.40 62.50 389.97 69.48 386.87 75.71 C 386.37 75.89 385.38 76.25 384.88 76.42 C 385.01 75.80 385.28 74.56 385.42 73.94 C 385.95 72.99 386.13 71.99 385.94 70.93 C 385.95 70.33 385.96 69.14 385.96 68.55 C 386.63 65.60 386.97 62.60 387.06 59.58 C 387.15 59.16 387.31 58.31 387.39 57.89 C 387.95 56.93 388.14 55.91 387.96 54.83 C 387.91 54.14 387.81 52.78 387.76 52.10 Z" />
</g>
<g id="#e46c4cf7">
<path fill="#e46c4c" opacity="0.97" d=" M 97.46 48.85 C 100.62 48.34 103.78 48.95 106.92 49.29 L 107.07 50.04 C 103.84 49.93 100.61 49.59 97.46 48.85 Z" />
<path fill="#e46c4c" opacity="0.97" d=" M 25.00 51.00 C 37.35 50.91 49.71 51.18 62.06 50.86 C 61.47 57.61 61.90 64.41 61.81 71.18 C 62.03 71.58 62.46 72.38 62.68 72.78 C 62.50 73.88 61.73 74.72 61.17 75.64 C 60.59 67.77 61.03 59.87 60.94 51.99 C 49.30 51.92 37.65 51.97 26.00 51.96 C 26.00 52.50 26.00 53.58 26.01 54.12 C 31.48 54.24 36.99 53.72 42.42 54.56 C 36.62 54.98 30.80 54.61 25.00 54.80 C 25.00 53.53 25.00 52.27 25.00 51.00 Z" />
<path fill="#e46c4c" opacity="0.97" d=" M 246.61 52.11 C 249.06 50.34 252.84 50.49 255.40 52.00 C 252.46 51.98 249.53 51.98 246.61 52.11 Z" />
<path fill="#e46c4c" opacity="0.97" d=" M 303.23 58.64 C 302.53 55.98 303.93 53.44 303.67 50.78 C 327.71 51.23 351.78 50.98 375.83 50.91 C 375.49 51.27 374.80 51.99 374.45 52.35 C 367.66 51.65 360.84 52.07 354.03 51.96 C 337.48 52.02 320.92 51.83 304.37 52.08 C 304.10 54.29 303.74 56.48 303.23 58.64 Z" />
<path fill="#e46c4c" opacity="0.97" d=" M 387.80 50.65 C 411.62 50.64 435.43 50.63 459.25 50.65 L 459.20 52.24 L 458.50 52.20 C 450.68 51.70 442.83 52.06 435.00 51.95 C 419.26 52.05 403.51 51.79 387.76 52.10 L 387.80 50.65 Z" />
<path fill="#e46c4c" opacity="0.97" d=" M 510.43 52.02 C 513.17 50.37 517.51 50.35 520.25 52.06 C 516.98 51.99 513.70 51.99 510.43 52.02 Z" />
<path fill="#e46c4c" opacity="0.97" d=" M 138.08 56.05 C 137.89 54.44 138.61 53.84 140.24 54.23 C 139.91 55.35 139.19 55.96 138.08 56.05 Z" />
<path fill="#e46c4c" opacity="0.97" d=" M 233.53 58.55 C 235.44 56.57 237.45 54.18 240.41 53.97 C 235.48 57.34 231.42 61.93 229.08 67.46 C 229.02 63.94 231.41 61.10 233.53 58.55 Z" />
<path fill="#e46c4c" opacity="0.97" d=" M 532.03 56.37 C 534.06 55.34 536.72 58.12 535.60 60.10 C 534.26 59.01 532.90 57.88 532.03 56.37 Z" />
<path fill="#e46c4c" opacity="0.97" d=" M 541.42 55.93 C 544.27 57.45 547.27 59.08 549.08 61.86 C 546.16 60.41 543.50 58.46 541.42 55.93 Z" />
<path fill="#e46c4c" opacity="0.97" d=" M 71.16 64.42 C 71.70 61.72 73.92 59.47 76.59 58.82 C 74.80 60.71 72.96 62.54 71.16 64.42 Z" />
<path fill="#e46c4c" opacity="0.97" d=" M 67.51 63.18 C 66.83 61.85 68.65 59.52 70.08 60.08 C 69.87 61.50 69.11 63.05 67.51 63.18 Z" />
<path fill="#e46c4c" opacity="0.97" d=" M 189.74 64.63 C 192.70 68.74 192.68 74.12 193.11 78.96 C 193.09 98.12 193.01 117.29 193.14 136.44 C 192.32 136.30 190.68 136.02 189.86 135.88 L 189.77 135.22 C 190.39 135.17 191.63 135.07 192.25 135.02 C 192.59 119.03 192.29 103.03 192.41 87.04 C 192.49 79.48 191.85 71.92 189.74 64.63 Z" />
<path fill="#e46c4c" opacity="0.97" d=" M 107.78 66.76 C 109.05 68.22 108.62 70.22 108.73 71.98 C 108.58 96.54 108.90 121.10 108.56 145.65 C 108.19 145.74 107.46 145.93 107.09 146.02 C 107.41 145.03 107.61 144.02 107.69 142.99 C 107.76 117.58 107.57 92.17 107.78 66.76 Z" />
<path fill="#e46c4c" opacity="0.97" d=" M 61.23 91.97 C 61.83 88.84 60.99 84.99 63.09 82.41 C 62.72 85.07 62.36 87.74 62.38 90.44 C 61.96 93.62 61.42 96.81 61.61 100.04 C 62.24 114.61 61.40 129.21 62.24 143.77 C 60.82 142.13 61.21 139.94 61.14 137.96 C 61.24 122.63 61.03 107.30 61.23 91.97 Z" />
<path fill="#e46c4c" opacity="0.97" d=" M 292.20 84.08 L 292.68 84.02 C 293.74 85.66 293.46 88.07 292.81 89.83 C 291.73 88.09 291.83 86.00 292.20 84.08 Z" />
<path fill="#e46c4c" opacity="0.97" d=" M 203.00 111.52 C 201.35 104.49 200.94 96.64 203.09 89.65 C 202.72 96.94 202.89 104.23 203.00 111.52 Z" />
<path fill="#e46c4c" opacity="0.97" d=" M 224.44 92.04 C 228.85 90.74 233.48 91.37 238.01 91.29 C 256.51 91.27 275.02 91.36 293.52 91.23 L 292.89 92.20 C 270.08 91.93 247.26 92.23 224.44 92.04 Z" />
<path fill="#e46c4c" opacity="0.97" d=" M 224.09 92.13 L 224.44 92.04 L 224.98 92.48 C 225.18 94.00 225.88 97.16 224.22 97.80 C 223.96 95.92 223.89 94.02 224.09 92.13 Z" />
<path fill="#e46c4c" opacity="0.97" d=" M 224.28 105.34 C 225.74 108.20 225.00 111.52 224.85 114.58 C 224.00 111.57 223.79 108.43 224.28 105.34 Z" />
<path fill="#e46c4c" opacity="0.97" d=" M 140.52 131.73 C 143.43 130.65 146.37 129.66 149.36 128.78 C 147.59 131.54 143.47 131.38 140.52 131.73 Z" />
<path fill="#e46c4c" opacity="0.97" d=" M 270.46 144.25 C 274.06 141.52 277.86 139.10 281.07 135.87 C 278.95 140.09 274.84 142.80 270.46 144.25 Z" />
<path fill="#e46c4c" opacity="0.97" d=" M 219.13 138.97 C 220.65 138.83 222.09 140.00 222.22 141.54 C 220.89 142.00 218.68 140.40 219.13 138.97 Z" />
<path fill="#e46c4c" opacity="0.97" d=" M 403.29 144.97 C 403.76 143.11 404.62 141.40 406.27 140.31 C 405.76 141.12 404.73 142.75 404.22 143.56 C 415.66 144.54 427.23 143.43 438.70 144.13 C 436.49 144.67 434.23 145.10 431.95 145.05 C 422.40 144.94 412.84 145.05 403.29 144.97 Z" />
<path fill="#e46c4c" opacity="0.97" d=" M 319.53 143.99 L 320.13 143.94 C 331.62 144.03 343.13 143.68 354.61 144.14 C 352.13 144.79 349.58 145.14 347.02 145.05 C 337.91 144.91 328.80 145.10 319.69 144.95 L 319.53 143.99 Z" />
<path fill="#e46c4c" opacity="0.97" d=" M 379.57 147.99 C 379.90 147.38 380.57 146.15 380.91 145.54 L 381.02 146.86 C 406.61 147.10 432.22 147.08 457.81 146.86 L 458.08 147.98 C 431.91 148.04 405.74 148.01 379.57 147.99 Z" />
<path fill="#e46c4c" opacity="0.97" d=" M 79.38 147.95 C 81.27 147.99 83.35 147.47 85.06 148.51 C 83.62 149.53 79.97 149.86 79.38 147.95 Z" />
<path fill="#e46c4c" opacity="0.97" d=" M 89.89 148.31 C 91.74 147.75 93.69 147.89 95.60 147.95 C 95.13 149.95 91.18 149.59 89.89 148.31 Z" />
<path fill="#e46c4c" opacity="0.97" d=" M 245.67 150.01 C 249.33 150.30 253.01 150.23 256.67 150.59 C 253.19 152.64 249.41 149.90 245.72 150.77 L 245.67 150.01 Z" />
</g>
<g id="#543f365d">
<path fill="#543f36" opacity="0.36" d=" M 25.03 50.09 C 36.03 50.11 47.03 50.14 58.03 50.07 C 59.39 50.16 60.94 49.89 62.06 50.86 C 49.71 51.18 37.35 50.91 25.00 51.00 L 25.03 50.09 Z" />
<path fill="#543f36" opacity="0.36" d=" M 303.67 50.78 C 304.70 50.21 305.81 49.98 307.00 50.07 C 328.68 50.15 350.36 50.12 372.05 50.07 C 373.38 50.01 374.64 50.29 375.83 50.91 C 351.78 50.98 327.71 51.23 303.67 50.78 Z" />
<path fill="#543f36" opacity="0.36" d=" M 730.82 51.84 C 733.76 52.15 736.75 52.41 739.58 53.39 L 738.64 53.49 C 735.99 53.17 733.35 52.68 730.82 51.84 Z" />
<path fill="#543f36" opacity="0.36" d=" M 302.04 59.00 L 303.14 59.15 C 302.36 64.22 301.86 69.32 300.95 74.37 C 300.98 69.23 302.08 64.15 302.04 59.00 Z" />
<path fill="#543f36" opacity="0.36" d=" M 749.89 81.05 C 751.80 88.51 751.44 96.31 751.50 103.95 C 751.29 108.28 751.38 112.75 749.93 116.89 C 749.88 111.54 751.36 106.31 751.03 100.95 C 751.40 94.27 749.87 87.72 749.89 81.05 Z" />
<path fill="#543f36" opacity="0.36" d=" M 412.03 93.43 C 413.15 89.84 415.15 86.41 417.80 83.73 C 416.00 87.04 414.06 90.26 412.03 93.43 Z" />
<path fill="#543f36" opacity="0.36" d=" M 543.83 85.13 C 545.03 92.64 544.76 100.25 544.69 107.83 C 544.55 108.23 544.27 109.02 544.12 109.42 C 544.59 101.32 544.20 93.21 543.83 85.13 Z" />
<path fill="#543f36" opacity="0.36" d=" M 61.61 100.04 C 61.42 96.81 61.96 93.62 62.38 90.44 C 62.96 93.93 63.13 97.47 63.03 101.01 C 62.84 115.17 63.28 129.34 62.80 143.49 L 62.24 143.77 C 61.40 129.21 62.24 114.61 61.61 100.04 Z" />
<path fill="#543f36" opacity="0.36" d=" M 224.44 92.04 C 247.26 92.23 270.08 91.93 292.89 92.20 C 290.97 92.76 288.96 92.69 286.99 92.67 C 266.32 92.42 245.62 92.85 224.98 92.48 L 224.44 92.04 Z" />
<path fill="#543f36" opacity="0.36" d=" M 322.00 103.43 C 323.20 99.86 325.11 96.37 327.81 93.73 C 326.00 97.04 324.07 100.27 322.00 103.43 Z" />
<path fill="#543f36" opacity="0.36" d=" M 425.63 107.69 C 427.11 104.48 429.09 101.54 430.98 98.56 C 429.88 102.24 427.66 105.51 425.25 108.46 L 425.63 107.69 Z" />
<path fill="#543f36" opacity="0.36" d=" M 486.35 105.37 C 487.49 110.79 487.10 116.40 487.99 121.87 C 486.32 116.55 486.05 110.91 486.35 105.37 Z" />
<path fill="#543f36" opacity="0.36" d=" M 339.25 111.14 C 339.39 110.03 339.96 109.34 340.95 109.06 C 341.51 110.69 340.94 111.39 339.25 111.14 Z" />
<path fill="#543f36" opacity="0.36" d=" M 419.18 118.28 C 421.04 114.95 422.93 111.63 425.14 108.52 C 423.78 112.07 421.91 115.59 419.18 118.28 Z" />
<path fill="#543f36" opacity="0.36" d=" M 457.89 118.21 C 458.83 117.83 459.77 117.47 460.72 117.12 C 460.61 119.79 462.05 123.13 460.04 125.34 C 460.14 122.90 460.27 120.46 460.41 118.03 C 459.78 118.07 458.52 118.16 457.89 118.21 Z" />
<path fill="#543f36" opacity="0.36" d=" M 329.32 127.91 C 331.19 124.80 333.03 121.66 334.97 118.58 C 334.14 122.21 331.49 125.00 329.85 128.26 L 329.32 127.91 Z" />
<path fill="#543f36" opacity="0.36" d=" M 768.07 122.95 C 768.16 121.72 768.95 120.76 769.85 119.97 C 771.07 121.03 769.62 123.75 768.07 122.95 Z" />
<path fill="#543f36" opacity="0.36" d=" M 287.32 121.33 C 288.92 121.59 290.52 121.83 292.13 122.07 C 291.71 123.71 291.30 125.36 290.90 127.01 L 290.15 126.86 C 290.58 125.51 290.94 124.15 291.31 122.79 C 290.34 122.55 288.40 122.08 287.43 121.85 C 287.00 123.40 286.59 124.96 286.14 126.51 C 285.88 124.67 286.61 122.97 287.32 121.33 Z" />
<path fill="#543f36" opacity="0.36" d=" M 161.09 126.49 C 161.95 125.78 162.89 125.64 163.91 126.06 C 163.36 127.55 162.42 127.69 161.09 126.49 Z" />
<path fill="#543f36" opacity="0.36" d=" M 538.14 135.15 C 539.16 131.91 540.28 128.70 541.78 125.65 C 541.03 128.94 540.19 132.39 538.14 135.15 Z" />
<path fill="#543f36" opacity="0.36" d=" M 149.42 128.76 C 152.49 127.60 155.77 127.24 159.02 127.04 C 155.85 127.74 152.70 128.73 149.42 128.76 Z" />
<path fill="#543f36" opacity="0.36" d=" M 149.69 133.94 C 160.66 131.60 172.18 131.61 183.12 134.12 C 172.04 132.46 160.81 132.67 149.69 133.94 Z" />
<path fill="#543f36" opacity="0.36" d=" M 141.84 135.92 C 144.14 135.02 146.56 134.45 149.00 134.06 L 149.01 134.92 C 146.60 135.16 144.22 135.53 141.84 135.92 Z" />
<path fill="#543f36" opacity="0.36" d=" M 231.16 135.73 C 234.02 138.21 236.56 141.04 239.25 143.70 C 236.02 141.65 233.14 139.04 231.16 135.73 Z" />
<path fill="#543f36" opacity="0.36" d=" M 493.17 136.55 C 494.78 138.08 496.13 139.84 497.37 141.68 C 495.57 140.33 494.23 138.51 493.17 136.55 Z" />
<path fill="#543f36" opacity="0.36" d=" M 119.79 145.15 C 125.02 142.93 129.90 139.94 135.28 138.08 C 126.02 142.96 116.40 148.31 105.89 149.94 C 110.57 148.50 115.31 147.16 119.79 145.15 Z" />
<path fill="#543f36" opacity="0.36" d=" M 224.21 143.15 C 225.96 143.68 227.87 144.32 228.84 146.01 C 227.15 146.86 223.92 145.11 224.21 143.15 Z" />
<path fill="#543f36" opacity="0.36" d=" M 736.32 145.92 C 738.05 145.01 739.89 144.32 741.86 144.09 C 741.88 146.38 737.95 147.04 736.32 145.92 Z" />
<path fill="#543f36" opacity="0.36" d=" M 62.57 146.12 C 66.38 147.59 70.23 149.00 74.19 150.00 C 70.10 149.84 65.88 148.55 62.57 146.12 Z" />
</g>
<g id="#574443ff">
<path fill="#574443" opacity="1.00" d=" M 587.72 51.37 C 594.13 51.68 600.56 51.54 606.97 51.39 C 607.65 66.52 606.99 81.69 607.29 96.84 L 608.01 96.90 C 620.65 97.06 633.29 96.92 645.93 96.96 C 645.92 81.51 645.94 66.06 645.92 50.60 C 652.61 50.59 659.31 50.58 666.00 50.61 C 666.00 83.08 666.00 115.54 666.00 148.01 C 659.31 148.02 652.62 148.01 645.93 148.01 C 645.90 132.13 645.98 116.25 645.90 100.37 C 633.29 100.41 620.68 100.45 608.08 100.34 C 607.91 116.23 608.04 132.12 608.00 148.01 C 601.30 148.02 594.61 148.01 587.91 148.01 C 587.79 115.80 588.16 83.57 587.72 51.37 Z" />
<path fill="#574443" opacity="1.00" d=" M 687.13 50.67 C 697.76 50.42 708.39 50.83 719.03 50.61 C 722.51 50.46 725.92 51.51 729.42 51.21 C 729.77 51.37 730.47 51.68 730.82 51.84 C 733.35 52.68 735.99 53.17 738.64 53.49 C 744.66 55.15 750.43 57.76 755.62 61.24 C 757.18 62.26 758.87 63.33 759.72 65.09 C 760.31 66.42 761.22 67.74 762.74 68.11 L 763.53 68.43 L 763.80 68.93 C 766.61 74.06 770.08 78.94 771.48 84.72 C 773.54 91.00 772.79 97.63 773.19 104.11 C 773.49 106.99 773.24 109.88 772.84 112.74 C 772.55 113.02 771.99 113.57 771.70 113.85 C 770.11 115.06 769.84 117.12 769.92 118.98 L 769.85 119.97 C 768.95 120.76 768.16 121.72 768.07 122.95 L 767.85 123.96 C 765.99 124.38 764.69 126.16 765.01 128.06 L 765.03 128.95 C 764.72 129.10 764.10 129.39 763.79 129.54 C 762.33 130.06 761.04 131.25 760.93 132.86 L 760.73 133.86 L 759.65 134.51 C 759.59 134.55 759.48 134.63 759.43 134.67 C 757.47 136.11 755.74 137.93 753.46 138.84 C 749.58 140.22 745.93 142.10 742.29 143.99 L 741.86 144.09 C 739.89 144.32 738.05 145.01 736.32 145.92 L 735.00 146.01 C 732.98 145.75 730.95 145.97 729.14 146.92 C 728.71 147.01 727.84 147.21 727.40 147.31 C 724.47 147.32 721.55 147.54 718.65 147.89 C 717.23 148.02 715.80 147.97 714.39 147.89 C 709.28 147.42 704.15 147.73 699.04 147.42 C 695.12 147.18 691.16 146.98 687.31 147.84 L 687.09 147.88 C 687.52 130.27 687.15 112.65 687.27 95.04 C 687.18 80.25 687.45 65.46 687.13 50.67 M 707.34 53.44 C 707.39 83.90 707.39 114.37 707.34 144.83 C 710.36 145.34 713.44 146.65 716.54 145.72 C 720.37 145.67 725.15 146.21 728.26 143.66 C 730.80 142.57 733.43 141.62 735.83 140.21 C 739.44 139.18 741.82 136.01 744.04 133.19 C 747.17 128.56 749.84 123.23 749.82 117.52 L 749.93 116.89 C 751.38 112.75 751.29 108.28 751.50 103.95 C 751.44 96.31 751.80 88.51 749.89 81.05 L 749.80 80.47 C 749.82 77.92 749.36 75.40 748.85 72.91 L 747.88 72.92 L 747.79 72.67 C 747.54 68.78 745.20 64.88 742.06 62.59 C 741.22 61.58 740.26 60.63 739.10 60.03 C 740.03 58.16 736.57 55.94 735.09 57.34 C 726.58 52.61 716.69 53.49 707.34 53.44 Z" />
</g>
</svg>
