<?xml version="1.0" encoding="UTF-8" standalone="yes"?>
<svg xmlns="http://www.w3.org/2000/svg" xmlns:xlink="http://www.w3.org/1999/xlink" width="426.66666666666663px" height="106.66666666666666px" viewBox="0 0 320 80" version="1.1">
  <g id="surface1">
    <path style=" stroke:none;fill-rule:nonzero;fill:rgb(67.843137%,50.980392%,44.705882%);fill-opacity:0.8;" d="M 95.78125 19.96875 C 99.398438 18.644531 103.550781 19.023438 107.136719 20.347656 C 107.960938 20.578125 108.761719 20.9375 109.351562 21.578125 C 105.183594 19.4375 100.335938 18.914062 95.78125 19.96875 Z M 95.78125 19.96875 "/>
    <path style=" stroke:none;fill-rule:nonzero;fill:rgb(67.843137%,50.980392%,44.705882%);fill-opacity:0.8;" d="M 194.3125 23.085938 C 198.433594 20.34375 203.457031 18.5625 208.449219 19.332031 C 209.3125 19.503906 210.269531 19.453125 211.023438 19.976562 C 206.234375 18.878906 201.046875 19.449219 196.769531 21.933594 C 193.894531 23.378906 191.6875 25.734375 189.457031 27.980469 C 189.699219 27.429688 190.105469 26.972656 190.546875 26.566406 C 191.816406 25.421875 192.863281 24.027344 194.3125 23.085938 Z M 194.3125 23.085938 "/>
    <path style=" stroke:none;fill-rule:nonzero;fill:rgb(67.843137%,50.980392%,44.705882%);fill-opacity:0.8;" d="M 29.390625 22.414062 C 31.515625 20.523438 34.492188 19.328125 37.351562 19.496094 C 34.496094 19.820312 31.789062 20.835938 29.390625 22.414062 Z M 29.390625 22.414062 "/>
    <path style=" stroke:none;fill-rule:nonzero;fill:rgb(67.843137%,50.980392%,44.705882%);fill-opacity:0.8;" d="M 43.0625 20.035156 C 43.726562 20.167969 44.382812 20.34375 45.039062 20.515625 C 48.109375 21.65625 50.246094 24.40625 51.03125 27.53125 C 51.601562 26.359375 52.097656 25.066406 53.160156 24.246094 C 52.425781 25.542969 51.6875 26.839844 51.027344 28.175781 C 50.347656 26.527344 49.832031 24.746094 48.625 23.386719 C 47.210938 21.660156 45.074219 20.828125 43.0625 20.035156 Z M 43.0625 20.035156 "/>
    <path style=" stroke:none;fill-rule:nonzero;fill:rgb(67.843137%,50.980392%,44.705882%);fill-opacity:0.8;" d="M 56.792969 20.90625 C 57.796875 20.621094 58.753906 20.191406 59.769531 19.945312 C 58.816406 20.457031 57.824219 20.882812 56.796875 21.214844 Z M 56.792969 20.90625 "/>
    <path style=" stroke:none;fill-rule:nonzero;fill:rgb(67.843137%,50.980392%,44.705882%);fill-opacity:0.8;" d="M 69.109375 20.09375 L 69.410156 19.882812 L 69.820312 20.027344 L 69.90625 20.375 C 69.707031 20.304688 69.308594 20.164062 69.109375 20.09375 Z M 69.109375 20.09375 "/>
    <path style=" stroke:none;fill-rule:nonzero;fill:rgb(67.843137%,50.980392%,44.705882%);fill-opacity:0.8;" d="M 93.605469 20.804688 C 93.730469 20.144531 94.933594 19.871094 95.542969 20.011719 C 95.222656 20.785156 94.3125 20.792969 93.605469 20.804688 Z M 93.605469 20.804688 "/>
    <path style=" stroke:none;fill-rule:nonzero;fill:rgb(67.843137%,50.980392%,44.705882%);fill-opacity:0.8;" d="M 211.257812 20.023438 C 211.863281 19.863281 213.070312 20.148438 213.191406 20.820312 C 212.492188 20.769531 211.570312 20.796875 211.257812 20.023438 Z M 211.257812 20.023438 "/>
    <path style=" stroke:none;fill-rule:nonzero;fill:rgb(67.843137%,50.980392%,44.705882%);fill-opacity:0.8;" d="M 235.089844 20.546875 C 235.523438 20.058594 236.21875 20.273438 236.792969 20.21875 C 238.910156 20.234375 241.035156 20.261719 243.160156 20.195312 C 243.257812 26.382812 243.167969 32.570312 243.203125 38.761719 L 242.914062 38.734375 C 242.796875 32.675781 243.058594 26.609375 242.789062 20.554688 C 240.222656 20.617188 237.652344 20.671875 235.089844 20.546875 Z M 235.089844 20.546875 "/>
    <path style=" stroke:none;fill-rule:nonzero;fill:rgb(67.843137%,50.980392%,44.705882%);fill-opacity:0.8;" d="M 70.253906 20.375 C 72.15625 20.863281 73.8125 22.171875 74.863281 23.816406 C 73.457031 22.503906 71.941406 21.3125 70.253906 20.375 Z M 70.253906 20.375 "/>
    <path style=" stroke:none;fill-rule:nonzero;fill:rgb(67.843137%,50.980392%,44.705882%);fill-opacity:0.8;" d="M 31.011719 23.230469 C 32.589844 21.554688 35.042969 20.847656 37.296875 20.832031 C 35.066406 21.253906 32.945312 22.027344 31.011719 23.230469 Z M 31.011719 23.230469 "/>
    <path style=" stroke:none;fill-rule:nonzero;fill:rgb(67.843137%,50.980392%,44.705882%);fill-opacity:0.8;" d="M 37.425781 20.867188 C 38.484375 20.726562 39.597656 20.921875 40.410156 21.652344 C 39.421875 21.371094 38.410156 21.160156 37.425781 20.867188 Z M 37.425781 20.867188 "/>
    <path style=" stroke:none;fill-rule:nonzero;fill:rgb(67.843137%,50.980392%,44.705882%);fill-opacity:0.8;" d="M 55.144531 24.148438 C 57.011719 21.875 60.207031 20.789062 63.101562 20.867188 L 62.570312 21.046875 C 59.792969 21.164062 57.339844 22.550781 55.144531 24.148438 Z M 55.144531 24.148438 "/>
    <path style=" stroke:none;fill-rule:nonzero;fill:rgb(67.843137%,50.980392%,44.705882%);fill-opacity:0.8;" d="M 63.699219 20.882812 C 65.828125 20.664062 68.367188 21.992188 68.785156 24.222656 C 67.886719 22.421875 66.164062 21.300781 64.191406 21.019531 Z M 63.699219 20.882812 "/>
    <path style=" stroke:none;fill-rule:nonzero;fill:rgb(67.843137%,50.980392%,44.705882%);fill-opacity:0.8;" d="M 102.355469 20.960938 C 102.839844 20.363281 104.390625 20.746094 104.230469 21.5625 C 103.628906 21.449219 103.03125 21.292969 102.46875 21.058594 Z M 102.355469 20.960938 "/>
    <path style=" stroke:none;fill-rule:nonzero;fill:rgb(67.843137%,50.980392%,44.705882%);fill-opacity:0.8;" d="M 196.757812 25.804688 C 197.8125 22.925781 200.855469 20.925781 203.894531 20.863281 L 203.40625 21 C 202.007812 21.3125 200.648438 21.824219 199.496094 22.6875 C 198.3125 23.460938 197.652344 24.753906 196.757812 25.804688 Z M 196.757812 25.804688 "/>
    <path style=" stroke:none;fill-rule:nonzero;fill:rgb(67.843137%,50.980392%,44.705882%);fill-opacity:0.8;" d="M 208.164062 20.835938 C 209.730469 20.878906 211.464844 21.242188 212.574219 22.441406 C 211.160156 21.757812 209.699219 21.179688 208.164062 20.835938 Z M 208.164062 20.835938 "/>
    <path style=" stroke:none;fill-rule:nonzero;fill:rgb(67.843137%,50.980392%,44.705882%);fill-opacity:0.8;" d="M 213.484375 20.855469 C 214.605469 21.007812 215.617188 21.554688 216.4375 22.320312 C 215.390625 21.957031 214.4375 21.40625 213.484375 20.855469 Z M 213.484375 20.855469 "/>
    <path style=" stroke:none;fill-rule:nonzero;fill:rgb(67.843137%,50.980392%,44.705882%);fill-opacity:0.8;" d="M 90.015625 22.824219 C 89.972656 22.144531 91.09375 21.507812 91.71875 21.722656 C 91.339844 22.324219 90.765625 22.820312 90.015625 22.824219 Z M 90.015625 22.824219 "/>
    <path style=" stroke:none;fill-rule:nonzero;fill:rgb(67.843137%,50.980392%,44.705882%);fill-opacity:0.8;" d="M 104.742188 21.671875 C 105.386719 21.554688 105.652344 21.824219 105.542969 22.476562 C 105.078125 22.375 104.8125 22.109375 104.742188 21.671875 Z M 104.742188 21.671875 "/>
    <path style=" stroke:none;fill-rule:nonzero;fill:rgb(67.843137%,50.980392%,44.705882%);fill-opacity:0.8;" d="M 109.433594 21.632812 C 110.523438 21.984375 111.511719 22.652344 112.117188 23.640625 C 111.179688 23.027344 110.296875 22.34375 109.433594 21.632812 Z M 109.433594 21.632812 "/>
    <path style=" stroke:none;fill-rule:nonzero;fill:rgb(67.843137%,50.980392%,44.705882%);fill-opacity:0.8;" d="M 130.667969 21.863281 C 133.871094 21.675781 137.085938 21.839844 140.292969 21.757812 L 140.257812 22.011719 C 137.0625 21.789062 133.859375 22.054688 130.667969 21.863281 Z M 130.667969 21.863281 "/>
    <path style=" stroke:none;fill-rule:nonzero;fill:rgb(67.843137%,50.980392%,44.705882%);fill-opacity:0.8;" d="M 164.273438 21.859375 C 167.511719 21.6875 170.761719 21.820312 174.003906 21.769531 L 173.894531 22.027344 C 170.691406 21.769531 167.476562 22.066406 164.273438 21.859375 Z M 164.273438 21.859375 "/>
    <path style=" stroke:none;fill-rule:nonzero;fill:rgb(67.843137%,50.980392%,44.705882%);fill-opacity:0.8;" d="M 16.96875 21.824219 C 17.125 31.753906 16.996094 41.683594 17.03125 51.613281 C 16.898438 53.363281 18.875 54.054688 19.855469 55.210938 C 18.726562 54.691406 17.609375 53.820312 16.90625 52.792969 C 16.921875 42.472656 16.800781 32.144531 16.96875 21.824219 Z M 16.96875 21.824219 "/>
    <path style=" stroke:none;fill-rule:nonzero;fill:rgb(67.843137%,50.980392%,44.705882%);fill-opacity:0.8;" d="M 40.707031 22.074219 C 41.425781 21.925781 41.695312 22.199219 41.523438 22.90625 C 41.15625 22.722656 40.882812 22.449219 40.707031 22.074219 Z M 40.707031 22.074219 "/>
    <path style=" stroke:none;fill-rule:nonzero;fill:rgb(67.843137%,50.980392%,44.705882%);fill-opacity:0.8;" d="M 126.378906 22.773438 C 127.363281 22.058594 128.5625 21.84375 129.757812 21.898438 C 128.667969 22.308594 127.480469 22.375 126.378906 22.773438 Z M 126.378906 22.773438 "/>
    <path style=" stroke:none;fill-rule:nonzero;fill:rgb(67.843137%,50.980392%,44.705882%);fill-opacity:0.8;" d="M 147.992188 23.605469 C 148.054688 22.863281 148.410156 22.195312 149.09375 21.855469 C 149.226562 22.460938 148.679688 23.671875 147.992188 23.605469 Z M 147.992188 23.605469 "/>
    <path style=" stroke:none;fill-rule:nonzero;fill:rgb(67.843137%,50.980392%,44.705882%);fill-opacity:0.8;" d="M 154.886719 21.957031 L 155.183594 21.933594 C 155.257812 22.363281 155.179688 22.773438 154.957031 23.15625 C 154.941406 22.855469 154.902344 22.257812 154.886719 21.957031 Z M 154.886719 21.957031 "/>
    <path style=" stroke:none;fill-rule:nonzero;fill:rgb(67.843137%,50.980392%,44.705882%);fill-opacity:0.8;" d="M 159.199219 23.183594 C 160.339844 22.199219 161.882812 21.882812 163.359375 21.902344 C 162.59375 22.257812 161.730469 22.265625 160.929688 22.464844 C 157.566406 24.039062 156.308594 27.742188 154.835938 30.859375 C 154.503906 30.824219 153.835938 30.761719 153.503906 30.722656 C 153.617188 30.6875 153.839844 30.609375 153.953125 30.566406 C 154.152344 30.5 154.546875 30.355469 154.746094 30.285156 C 155.988281 27.792969 156.960938 25 159.199219 23.183594 Z M 159.199219 23.183594 "/>
    <path style=" stroke:none;fill-rule:nonzero;fill:rgb(67.843137%,50.980392%,44.705882%);fill-opacity:0.8;" d="M 53.273438 24.054688 C 53.253906 23.355469 54.167969 22.433594 54.875 22.464844 C 54.691406 23.257812 54.066406 23.882812 53.273438 24.054688 Z M 53.273438 24.054688 "/>
    <path style=" stroke:none;fill-rule:nonzero;fill:rgb(67.843137%,50.980392%,44.705882%);fill-opacity:0.8;" d="M 139.390625 23.78125 C 139.089844 23.308594 139.585938 22.308594 140.191406 22.511719 C 140.199219 23.054688 139.8125 23.484375 139.390625 23.78125 Z M 139.390625 23.78125 "/>
    <path style=" stroke:none;fill-rule:nonzero;fill:rgb(67.843137%,50.980392%,44.705882%);fill-opacity:0.8;" d="M 172.488281 24.128906 C 172.890625 23.480469 173.285156 22.824219 173.796875 22.261719 C 173.078125 24.097656 171.902344 25.695312 170.941406 27.402344 C 169.683594 29.421875 168.632812 31.574219 167.152344 33.445312 C 168.757812 30.242188 170.726562 27.242188 172.488281 24.128906 Z M 172.488281 24.128906 "/>
    <path style=" stroke:none;fill-rule:nonzero;fill:rgb(67.843137%,50.980392%,44.705882%);fill-opacity:0.8;" d="M 88.890625 23.652344 C 88.820312 23.046875 89.09375 22.789062 89.714844 22.871094 C 89.664062 23.359375 89.390625 23.621094 88.890625 23.652344 Z M 88.890625 23.652344 "/>
    <path style=" stroke:none;fill-rule:nonzero;fill:rgb(67.843137%,50.980392%,44.705882%);fill-opacity:0.8;" d="M 105.863281 22.648438 C 106.878906 23.359375 107.496094 24.578125 107.570312 25.804688 C 107.085938 24.710938 106.46875 23.679688 105.863281 22.648438 Z M 105.863281 22.648438 "/>
    <path style=" stroke:none;fill-rule:nonzero;fill:rgb(67.843137%,50.980392%,44.705882%);fill-opacity:0.8;" d="M 123.609375 25.613281 C 124.167969 24.375 125.109375 23.355469 126.351562 22.789062 C 125.980469 23.304688 125.476562 23.699219 124.957031 24.058594 C 124.554688 24.617188 124.238281 25.28125 123.609375 25.613281 Z M 123.609375 25.613281 "/>
    <path style=" stroke:none;fill-rule:nonzero;fill:rgb(67.843137%,50.980392%,44.705882%);fill-opacity:0.8;" d="M 181.570312 23.652344 C 181.609375 23.214844 181.824219 22.886719 182.210938 22.671875 C 182.445312 23.332031 182.226562 23.660156 181.570312 23.652344 Z M 181.570312 23.652344 "/>
    <path style=" stroke:none;fill-rule:nonzero;fill:rgb(67.843137%,50.980392%,44.705882%);fill-opacity:0.8;" d="M 294.035156 22.9375 C 294.628906 22.375 296.011719 23.265625 295.640625 24.011719 C 295.046875 23.734375 294.53125 23.347656 294.035156 22.9375 Z M 294.035156 22.9375 "/>
    <path style=" stroke:none;fill-rule:nonzero;fill:rgb(67.843137%,50.980392%,44.705882%);fill-opacity:0.8;" d="M 41.898438 23.179688 C 42.839844 24.050781 43.121094 25.40625 43.105469 26.644531 C 42.734375 25.476562 42.347656 24.316406 41.898438 23.179688 Z M 41.898438 23.179688 "/>
    <path style=" stroke:none;fill-rule:nonzero;fill:rgb(67.843137%,50.980392%,44.705882%);fill-opacity:0.8;" d="M 74.855469 24.054688 C 75.507812 24.003906 75.925781 25.128906 75.859375 25.6875 C 75.140625 25.5 74.722656 24.777344 74.855469 24.054688 Z M 74.855469 24.054688 "/>
    <path style=" stroke:none;fill-rule:nonzero;fill:rgb(67.843137%,50.980392%,44.705882%);fill-opacity:0.8;" d="M 86.019531 26.011719 C 86.746094 25.230469 87.433594 24.347656 88.425781 23.890625 C 87.242188 25.304688 85.839844 26.527344 84.8125 28.066406 C 83.652344 29.617188 82.960938 31.441406 81.992188 33.101562 C 82.644531 30.441406 84.296875 28.113281 86.019531 26.011719 Z M 86.019531 26.011719 "/>
    <path style=" stroke:none;fill-rule:nonzero;fill:rgb(67.843137%,50.980392%,44.705882%);fill-opacity:0.8;" d="M 138.925781 24.203125 C 138.941406 24.183594 138.972656 24.148438 138.988281 24.128906 C 138.972656 24.148438 138.941406 24.183594 138.925781 24.203125 Z M 138.925781 24.203125 "/>
    <path style=" stroke:none;fill-rule:nonzero;fill:rgb(67.843137%,50.980392%,44.705882%);fill-opacity:0.8;" d="M 146.363281 26.515625 C 146.804688 25.53125 147.34375 24.597656 147.960938 23.714844 C 147.683594 24.761719 147.148438 25.769531 146.363281 26.515625 Z M 146.363281 26.515625 "/>
    <path style=" stroke:none;fill-rule:nonzero;fill:rgb(67.843137%,50.980392%,44.705882%);fill-opacity:0.8;" d="M 154.382812 27.421875 C 154.554688 26.238281 154.289062 24.921875 154.824219 23.832031 C 154.789062 25.039062 154.652344 26.238281 154.382812 27.421875 Z M 154.382812 27.421875 "/>
    <path style=" stroke:none;fill-rule:nonzero;fill:rgb(67.843137%,50.980392%,44.705882%);fill-opacity:0.8;" d="M 178.886719 28.246094 C 179.621094 26.667969 180.632812 25.238281 181.542969 23.765625 C 181.023438 25.375 180.035156 26.8125 179.15625 28.253906 Z M 178.886719 28.246094 "/>
    <path style=" stroke:none;fill-rule:nonzero;fill:rgb(67.843137%,50.980392%,44.705882%);fill-opacity:0.8;" d="M 53.171875 26.617188 C 53.398438 25.664062 54.046875 24.910156 54.871094 24.410156 C 54.34375 25.175781 53.769531 25.902344 53.171875 26.617188 Z M 53.171875 26.617188 "/>
    <path style=" stroke:none;fill-rule:nonzero;fill:rgb(67.843137%,50.980392%,44.705882%);fill-opacity:0.8;" d="M 214.421875 24.210938 C 215.320312 24.878906 215.863281 25.929688 215.996094 27.035156 C 215.464844 26.097656 214.96875 25.140625 214.421875 24.210938 Z M 214.421875 24.210938 "/>
    <path style=" stroke:none;fill-rule:nonzero;fill:rgb(67.843137%,50.980392%,44.705882%);fill-opacity:0.8;" d="M 219.769531 24.832031 C 220.808594 25.105469 221.636719 26.054688 221.949219 27.0625 C 221.191406 26.351562 220.464844 25.609375 219.769531 24.832031 Z M 219.769531 24.832031 "/>
    <path style=" stroke:none;fill-rule:nonzero;fill:rgb(67.843137%,50.980392%,44.705882%);fill-opacity:0.8;" d="M 113.816406 25.335938 C 113.828125 25.351562 113.851562 25.386719 113.863281 25.40625 L 113.84375 25.367188 Z M 113.816406 25.335938 "/>
    <path style=" stroke:none;fill-rule:nonzero;fill:rgb(67.843137%,50.980392%,44.705882%);fill-opacity:0.8;" d="M 136.28125 28.777344 C 136.84375 27.4375 137.609375 26.167969 138.503906 25.015625 C 138.03125 26.410156 137.246094 27.671875 136.28125 28.777344 Z M 136.28125 28.777344 "/>
    <path style=" stroke:none;fill-rule:nonzero;fill:rgb(67.843137%,50.980392%,44.705882%);fill-opacity:0.8;" d="M 296.824219 25.035156 C 298.078125 25.953125 299.015625 27.511719 299.117188 29.066406 C 298.433594 27.679688 297.734375 26.292969 296.824219 25.035156 Z M 296.824219 25.035156 "/>
    <path style=" stroke:none;fill-rule:nonzero;fill:rgb(67.843137%,50.980392%,44.705882%);fill-opacity:0.8;" d="M 69.195312 25.457031 C 69.519531 26.117188 69.628906 26.847656 69.605469 27.578125 C 69.5625 35.0625 69.632812 42.542969 69.570312 50.027344 C 69.484375 50.183594 69.304688 50.503906 69.214844 50.664062 C 69.171875 42.265625 69.214844 33.859375 69.195312 25.457031 Z M 69.195312 25.457031 "/>
    <path style=" stroke:none;fill-rule:nonzero;fill:rgb(67.843137%,50.980392%,44.705882%);fill-opacity:0.8;" d="M 25.1875 28.65625 C 25.210938 27.601562 25.707031 26.59375 26.441406 25.851562 C 26.144531 26.839844 25.648438 27.738281 25.1875 28.65625 Z M 25.1875 28.65625 "/>
    <path style=" stroke:none;fill-rule:nonzero;fill:rgb(67.843137%,50.980392%,44.705882%);fill-opacity:0.8;" d="M 26.035156 30.195312 C 26.371094 28.546875 27.167969 26.886719 28.457031 25.78125 C 27.621094 27.234375 26.785156 28.691406 26.035156 30.195312 Z M 26.035156 30.195312 "/>
    <path style=" stroke:none;fill-rule:nonzero;fill:rgb(67.843137%,50.980392%,44.705882%);fill-opacity:0.8;" d="M 107.59375 25.875 C 107.996094 26.5 108.171875 27.226562 108.195312 27.964844 C 108.339844 30.480469 108.234375 33.003906 108.261719 35.527344 C 102.101562 35.675781 95.9375 35.605469 89.777344 35.558594 L 90.074219 35.242188 C 96.074219 35.136719 102.078125 35.234375 108.085938 35.191406 C 108.175781 32.085938 108.34375 28.929688 107.59375 25.875 Z M 107.59375 25.875 "/>
    <path style=" stroke:none;fill-rule:nonzero;fill:rgb(67.843137%,50.980392%,44.705882%);fill-opacity:0.8;" d="M 114.042969 25.761719 C 115.933594 27.863281 116.984375 30.792969 117.070312 33.609375 L 116.878906 33.632812 C 116.816406 30.757812 115.335938 28.230469 114.042969 25.761719 Z M 114.042969 25.761719 "/>
    <path style=" stroke:none;fill-rule:nonzero;fill:rgb(67.843137%,50.980392%,44.705882%);fill-opacity:0.8;" d="M 121.609375 29.722656 C 121.898438 28.359375 122.546875 27.117188 123.367188 25.996094 C 123.046875 27.34375 122.28125 28.527344 121.609375 29.722656 Z M 121.609375 29.722656 "/>
    <path style=" stroke:none;fill-rule:nonzero;fill:rgb(67.843137%,50.980392%,44.705882%);fill-opacity:0.8;" d="M 195.230469 30.605469 C 195.21875 28.945312 195.707031 27.179688 196.734375 25.863281 C 196.253906 27.449219 195.550781 28.96875 195.230469 30.605469 Z M 195.230469 30.605469 "/>
    <path style=" stroke:none;fill-rule:nonzero;fill:rgb(67.843137%,50.980392%,44.705882%);fill-opacity:0.8;" d="M 303.886719 26.035156 C 304.480469 25.738281 305.359375 26.65625 305.097656 27.242188 C 304.488281 27.097656 304.125 26.566406 303.886719 26.035156 Z M 303.886719 26.035156 "/>
    <path style=" stroke:none;fill-rule:nonzero;fill:rgb(67.843137%,50.980392%,44.705882%);fill-opacity:0.8;" d="M 50.855469 35.226562 C 50.90625 32.304688 51.148438 29.019531 53.109375 26.699219 C 52.007812 28.976562 51.117188 31.433594 51.15625 33.992188 C 51.195312 40.867188 51.136719 47.746094 51.1875 54.625 C 51.425781 54.550781 51.894531 54.398438 52.132812 54.328125 C 51.761719 54.664062 51.339844 54.945312 50.910156 55.203125 C 50.785156 48.546875 50.898438 41.882812 50.855469 35.226562 Z M 50.855469 35.226562 "/>
    <path style=" stroke:none;fill-rule:nonzero;fill:rgb(67.843137%,50.980392%,44.705882%);fill-opacity:0.8;" d="M 143.9375 30.554688 C 144.585938 29.140625 145.390625 27.804688 146.335938 26.566406 C 145.722656 27.984375 144.980469 29.414062 143.9375 30.554688 Z M 143.9375 30.554688 "/>
    <path style=" stroke:none;fill-rule:nonzero;fill:rgb(67.843137%,50.980392%,44.705882%);fill-opacity:0.8;" d="M 91.277344 27.226562 L 91.578125 27.242188 C 91.3125 28.691406 90.71875 30.066406 90.578125 31.539062 C 90.457031 32.46875 90.445312 33.4375 90.039062 34.300781 C 90.035156 31.886719 90.65625 29.539062 91.277344 27.226562 Z M 91.277344 27.226562 "/>
    <path style=" stroke:none;fill-rule:nonzero;fill:rgb(67.843137%,50.980392%,44.705882%);fill-opacity:0.8;" d="M 216.050781 27.152344 C 217.191406 29.019531 217.464844 31.355469 217.527344 33.507812 C 216.960938 31.410156 216.898438 29.1875 216.050781 27.152344 Z M 216.050781 27.152344 "/>
    <path style=" stroke:none;fill-rule:nonzero;fill:rgb(67.843137%,50.980392%,44.705882%);fill-opacity:0.8;" d="M 221.96875 27.089844 C 222.914062 27.738281 223.570312 28.777344 223.992188 29.832031 C 223.257812 28.964844 222.570312 28.050781 221.96875 27.089844 Z M 221.96875 27.089844 "/>
    <path style=" stroke:none;fill-rule:nonzero;fill:rgb(67.843137%,50.980392%,44.705882%);fill-opacity:0.8;" d="M 305.519531 27.570312 C 306.691406 28.511719 307.265625 29.949219 307.925781 31.257812 C 309.46875 34.484375 309.632812 38.128906 309.597656 41.644531 L 309.277344 41.644531 C 309.117188 39.050781 309.414062 36.398438 308.59375 33.886719 C 308.03125 31.574219 306.644531 29.625 305.519531 27.570312 Z M 305.519531 27.570312 "/>
    <path style=" stroke:none;fill-rule:nonzero;fill:rgb(67.843137%,50.980392%,44.705882%);fill-opacity:0.8;" d="M 154.078125 28.386719 L 154.375 28.371094 C 154.453125 28.796875 154.378906 29.195312 154.167969 29.574219 C 154.09375 29.375 153.945312 28.972656 153.867188 28.769531 Z M 154.078125 28.386719 "/>
    <path style=" stroke:none;fill-rule:nonzero;fill:rgb(67.843137%,50.980392%,44.705882%);fill-opacity:0.8;" d="M 188.09375 30.050781 C 188.015625 29.445312 188.570312 28.433594 189.222656 28.4375 C 189.234375 29.15625 188.832031 29.886719 188.09375 30.050781 Z M 188.09375 30.050781 "/>
    <path style=" stroke:none;fill-rule:nonzero;fill:rgb(67.843137%,50.980392%,44.705882%);fill-opacity:0.8;" d="M 176.410156 32.542969 C 177.019531 31.222656 177.640625 29.875 178.703125 28.855469 C 178.074219 30.152344 177.425781 31.503906 176.410156 32.542969 Z M 176.410156 32.542969 "/>
    <path style=" stroke:none;fill-rule:nonzero;fill:rgb(67.843137%,50.980392%,44.705882%);fill-opacity:0.8;" d="M 131.148438 37.453125 C 132.644531 34.550781 134.246094 31.671875 136.140625 29.015625 C 135.707031 30.121094 135.140625 31.15625 134.5 32.152344 C 133.378906 33.914062 132.476562 35.824219 131.148438 37.453125 Z M 131.148438 37.453125 "/>
    <path style=" stroke:none;fill-rule:nonzero;fill:rgb(67.843137%,50.980392%,44.705882%);fill-opacity:0.8;" d="M 299.152344 29.167969 L 299.539062 29.164062 C 299.742188 30.160156 299.929688 31.167969 299.921875 32.1875 C 299.675781 31.175781 299.460938 30.160156 299.152344 29.167969 Z M 299.152344 29.167969 "/>
    <path style=" stroke:none;fill-rule:nonzero;fill:rgb(67.843137%,50.980392%,44.705882%);fill-opacity:0.8;" d="M 121.515625 30.058594 C 122.015625 31.191406 119.226562 30.992188 120.3125 30.160156 C 120.710938 30.117188 121.113281 30.078125 121.515625 30.058594 Z M 121.515625 30.058594 "/>
    <path style=" stroke:none;fill-rule:nonzero;fill:rgb(67.843137%,50.980392%,44.705882%);fill-opacity:0.8;" d="M 224.011719 29.863281 C 225.269531 31.429688 226.210938 33.421875 226.355469 35.4375 C 225.738281 33.511719 224.847656 31.699219 224.011719 29.863281 Z M 224.011719 29.863281 "/>
    <path style=" stroke:none;fill-rule:nonzero;fill:rgb(67.843137%,50.980392%,44.705882%);fill-opacity:0.8;" d="M 25.273438 32.710938 C 24.820312 32.050781 25.132812 30.570312 25.976562 30.476562 C 25.816406 31.234375 25.796875 32.089844 25.273438 32.710938 Z M 25.273438 32.710938 "/>
    <path style=" stroke:none;fill-rule:nonzero;fill:rgb(67.843137%,50.980392%,44.705882%);fill-opacity:0.8;" d="M 186.820312 32.019531 C 187.078125 31.339844 187.480469 30.722656 188.011719 30.226562 C 186.4375 33.375 185.273438 36.808594 185.503906 40.382812 C 185.484375 45.214844 187.867188 49.601562 190.796875 53.289062 C 189.011719 51.878906 188.066406 49.734375 186.882812 47.855469 C 185.972656 45.460938 185.203125 42.964844 185.183594 40.378906 C 185.058594 37.507812 185.808594 34.683594 186.820312 32.019531 Z M 186.820312 32.019531 "/>
    <path style=" stroke:none;fill-rule:nonzero;fill:rgb(67.843137%,50.980392%,44.705882%);fill-opacity:0.8;" d="M 142.824219 32.359375 C 142.746094 31.640625 143.199219 30.992188 143.851562 30.714844 C 143.960938 31.292969 143.515625 32.484375 142.824219 32.359375 Z M 142.824219 32.359375 "/>
    <path style=" stroke:none;fill-rule:nonzero;fill:rgb(67.843137%,50.980392%,44.705882%);fill-opacity:0.8;" d="M 140.410156 36.53125 C 141.039062 35.113281 141.800781 33.738281 142.820312 32.554688 C 142.214844 33.972656 141.476562 35.421875 140.410156 36.53125 Z M 140.410156 36.53125 "/>
    <path style=" stroke:none;fill-rule:nonzero;fill:rgb(67.843137%,50.980392%,44.705882%);fill-opacity:0.8;" d="M 174.007812 36.550781 C 174.65625 35.152344 175.4375 33.8125 176.382812 32.59375 C 175.847656 34.023438 175.058594 35.445312 174.007812 36.550781 Z M 174.007812 36.550781 "/>
    <path style=" stroke:none;fill-rule:nonzero;fill:rgb(67.843137%,50.980392%,44.705882%);fill-opacity:0.8;" d="M 81.253906 35.546875 C 81.171875 34.871094 81.265625 33.449219 82.011719 33.289062 C 82.1875 34.117188 81.886719 34.992188 81.253906 35.546875 Z M 81.253906 35.546875 "/>
    <path style=" stroke:none;fill-rule:nonzero;fill:rgb(67.843137%,50.980392%,44.705882%);fill-opacity:0.8;" d="M 226.382812 35.59375 L 226.699219 35.546875 C 226.957031 37.691406 226.953125 39.855469 226.882812 42.007812 C 226.574219 46.136719 224.488281 49.914062 221.890625 53.050781 C 221.125 54.257812 219.835938 54.914062 218.855469 55.90625 C 218.464844 56.347656 217.949219 56.628906 217.386719 56.78125 C 220.9375 54.046875 224.03125 50.585938 225.585938 46.324219 C 226.976562 42.929688 226.90625 39.160156 226.382812 35.59375 Z M 226.382812 35.59375 "/>
    <path style=" stroke:none;fill-rule:nonzero;fill:rgb(67.843137%,50.980392%,44.705882%);fill-opacity:0.8;" d="M 137.992188 40.5625 C 138.648438 39.160156 139.433594 37.820312 140.375 36.589844 C 139.851562 38.023438 139.046875 39.457031 137.992188 40.5625 Z M 137.992188 40.5625 "/>
    <path style=" stroke:none;fill-rule:nonzero;fill:rgb(67.843137%,50.980392%,44.705882%);fill-opacity:0.8;" d="M 172.449219 39.3125 C 172.820312 38.332031 173.332031 37.414062 173.980469 36.59375 C 173.753906 37.632812 173.101562 38.503906 172.449219 39.3125 Z M 172.449219 39.3125 "/>
    <path style=" stroke:none;fill-rule:nonzero;fill:rgb(67.843137%,50.980392%,44.705882%);fill-opacity:0.8;" d="M 163.203125 40.21875 C 163.453125 39.175781 164.089844 38.28125 164.765625 37.472656 C 164.378906 38.460938 163.855469 39.382812 163.203125 40.21875 Z M 163.203125 40.21875 "/>
    <path style=" stroke:none;fill-rule:nonzero;fill:rgb(67.843137%,50.980392%,44.705882%);fill-opacity:0.8;" d="M 160.8125 44.207031 C 161.351562 42.777344 162.140625 41.34375 163.195312 40.234375 C 162.535156 41.636719 161.765625 42.984375 160.8125 44.207031 Z M 160.8125 44.207031 "/>
    <path style=" stroke:none;fill-rule:nonzero;fill:rgb(67.843137%,50.980392%,44.705882%);fill-opacity:0.8;" d="M 136.476562 43.332031 C 136.746094 42.300781 137.351562 41.40625 137.992188 40.566406 C 137.78125 41.625 137.074219 42.472656 136.476562 43.332031 Z M 136.476562 43.332031 "/>
    <path style=" stroke:none;fill-rule:nonzero;fill:rgb(67.843137%,50.980392%,44.705882%);fill-opacity:0.8;" d="M 126.4375 45.4375 C 127.015625 44.027344 127.808594 42.695312 128.738281 41.492188 C 128.191406 42.925781 127.390625 44.238281 126.4375 45.4375 Z M 126.4375 45.4375 "/>
    <path style=" stroke:none;fill-rule:nonzero;fill:rgb(67.843137%,50.980392%,44.705882%);fill-opacity:0.8;" d="M 158.429688 48.230469 C 158.933594 46.785156 159.761719 45.378906 160.789062 44.253906 C 160.160156 45.664062 159.367188 47 158.429688 48.230469 Z M 158.429688 48.230469 "/>
    <path style=" stroke:none;fill-rule:nonzero;fill:rgb(67.843137%,50.980392%,44.705882%);fill-opacity:0.8;" d="M 134.035156 47.335938 C 134.40625 46.335938 134.964844 45.421875 135.625 44.589844 C 135.324219 45.617188 134.726562 46.527344 134.035156 47.335938 Z M 134.035156 47.335938 "/>
    <path style=" stroke:none;fill-rule:nonzero;fill:rgb(67.843137%,50.980392%,44.705882%);fill-opacity:0.8;" d="M 81.242188 44.863281 C 82.160156 48.0625 83.550781 51.109375 85.625 53.726562 C 84.421875 52.972656 83.8125 51.632812 83.085938 50.472656 C 82.253906 48.691406 81.300781 46.871094 81.242188 44.863281 Z M 81.242188 44.863281 "/>
    <path style=" stroke:none;fill-rule:nonzero;fill:rgb(67.843137%,50.980392%,44.705882%);fill-opacity:0.8;" d="M 124.871094 48.101562 C 125.101562 47.132812 125.664062 46.265625 126.363281 45.566406 C 125.972656 46.472656 125.523438 47.351562 124.871094 48.101562 Z M 124.871094 48.101562 "/>
    <path style=" stroke:none;fill-rule:nonzero;fill:rgb(67.843137%,50.980392%,44.705882%);fill-opacity:0.8;" d="M 307.96875 47.59375 C 307.9375 46.847656 308.042969 46.023438 308.679688 45.539062 C 308.816406 46.160156 308.707031 47.484375 307.96875 47.59375 Z M 307.96875 47.59375 "/>
    <path style=" stroke:none;fill-rule:nonzero;fill:rgb(67.843137%,50.980392%,44.705882%);fill-opacity:0.8;" d="M 90.011719 46.257812 C 90.664062 47.589844 90.550781 49.195312 90.753906 50.652344 C 90.246094 49.234375 90.074219 47.742188 90.011719 46.257812 Z M 90.011719 46.257812 "/>
    <path style=" stroke:none;fill-rule:nonzero;fill:rgb(67.843137%,50.980392%,44.705882%);fill-opacity:0.8;" d="M 216.777344 50.109375 C 216.972656 48.777344 217.15625 47.441406 217.5 46.136719 C 217.484375 47.460938 217.558594 48.96875 216.777344 50.109375 Z M 216.777344 50.109375 "/>
    <path style=" stroke:none;fill-rule:nonzero;fill:rgb(67.843137%,50.980392%,44.705882%);fill-opacity:0.8;" d="M 149.523438 47.207031 C 149.882812 47.144531 150.246094 47.074219 150.613281 47.011719 C 150.828125 49.605469 150.128906 52.148438 150.007812 54.726562 C 149.824219 56.21875 149.828125 57.722656 149.546875 59.203125 C 139.121094 59.207031 128.695312 59.203125 118.269531 59.203125 C 118.289062 59.015625 118.320312 58.636719 118.339844 58.445312 L 118.53125 58.53125 C 119.097656 58.84375 119.726562 58.992188 120.375 58.96875 C 130.042969 58.910156 139.710938 58.996094 149.378906 58.925781 C 149.703125 55.070312 150.078125 51.21875 150.535156 47.378906 C 150.308594 47.449219 149.847656 47.578125 149.621094 47.644531 Z M 149.523438 47.207031 "/>
    <path style=" stroke:none;fill-rule:nonzero;fill:rgb(67.843137%,50.980392%,44.705882%);fill-opacity:0.8;" d="M 294.332031 56.085938 C 297.429688 54.027344 299.101562 50.527344 299.929688 47.007812 C 299.9375 49.292969 298.867188 51.425781 297.617188 53.277344 C 296.726562 54.402344 295.777344 55.671875 294.332031 56.085938 Z M 294.332031 56.085938 "/>
    <path style=" stroke:none;fill-rule:nonzero;fill:rgb(67.843137%,50.980392%,44.705882%);fill-opacity:0.8;" d="M 164.449219 52.414062 C 165.5 50.71875 166.394531 48.925781 167.640625 47.359375 C 166.972656 49.28125 165.605469 50.851562 164.707031 52.667969 C 163.996094 53.667969 163.523438 54.832031 162.699219 55.753906 C 163.113281 54.554688 163.792969 53.488281 164.449219 52.414062 Z M 164.449219 52.414062 "/>
    <path style=" stroke:none;fill-rule:nonzero;fill:rgb(67.843137%,50.980392%,44.705882%);fill-opacity:0.8;" d="M 148.464844 50.8125 C 148.828125 49.832031 149.011719 48.777344 149.554688 47.867188 C 149.136719 49.980469 148.550781 52.148438 147.199219 53.867188 C 147.441406 52.78125 148.101562 51.855469 148.464844 50.8125 Z M 148.464844 50.8125 "/>
    <path style=" stroke:none;fill-rule:nonzero;fill:rgb(67.843137%,50.980392%,44.705882%);fill-opacity:0.8;" d="M 180.667969 54.035156 C 181.609375 52.015625 182.382812 49.941406 183.121094 47.839844 C 182.851562 50.039062 182.105469 52.3125 180.667969 54.035156 Z M 180.667969 54.035156 "/>
    <path style=" stroke:none;fill-rule:nonzero;fill:rgb(67.843137%,50.980392%,44.705882%);fill-opacity:0.8;" d="M 122.542969 51.984375 C 122.984375 50.65625 123.789062 49.429688 124.683594 48.363281 C 124.15625 49.671875 123.460938 50.902344 122.542969 51.984375 Z M 122.542969 51.984375 "/>
    <path style=" stroke:none;fill-rule:nonzero;fill:rgb(67.843137%,50.980392%,44.705882%);fill-opacity:0.8;" d="M 154.859375 54.234375 C 155.84375 52.164062 156.90625 50.019531 158.398438 48.28125 C 157.390625 50.355469 156.207031 52.355469 154.859375 54.234375 Z M 154.859375 54.234375 "/>
    <path style=" stroke:none;fill-rule:nonzero;fill:rgb(67.843137%,50.980392%,44.705882%);fill-opacity:0.8;" d="M 195.214844 48.945312 C 195.625 50.28125 196.011719 51.621094 196.441406 52.953125 C 195.527344 51.84375 195.207031 50.351562 195.214844 48.945312 Z M 195.214844 48.945312 "/>
    <path style=" stroke:none;fill-rule:nonzero;fill:rgb(67.843137%,50.980392%,44.705882%);fill-opacity:0.8;" d="M 306.003906 51.222656 C 305.875 50.464844 306.394531 49.753906 307.140625 49.585938 C 307.125 50.191406 306.636719 51.160156 306.003906 51.222656 Z M 306.003906 51.222656 "/>
    <path style=" stroke:none;fill-rule:nonzero;fill:rgb(67.843137%,50.980392%,44.705882%);fill-opacity:0.8;" d="M 90.804688 50.828125 L 91.0625 50.78125 C 91.300781 52.019531 92.148438 53.015625 92.425781 54.238281 C 91.570312 53.273438 91.121094 52.054688 90.804688 50.828125 Z M 90.804688 50.828125 "/>
    <path style=" stroke:none;fill-rule:nonzero;fill:rgb(67.843137%,50.980392%,44.705882%);fill-opacity:0.8;" d="M 114.085938 50.667969 L 114.410156 50.757812 C 114.121094 52.117188 113.332031 53.277344 112.449219 54.320312 C 112.804688 53.011719 114.03125 52.105469 114.085938 50.667969 Z M 114.085938 50.667969 "/>
    <path style=" stroke:none;fill-rule:nonzero;fill:rgb(67.843137%,50.980392%,44.705882%);fill-opacity:0.8;" d="M 114.410156 54.113281 C 114.871094 53.007812 115.398438 51.9375 115.996094 50.898438 C 115.742188 52.0625 115.242188 53.238281 114.410156 54.113281 Z M 114.410156 54.113281 "/>
    <path style=" stroke:none;fill-rule:nonzero;fill:rgb(67.843137%,50.980392%,44.705882%);fill-opacity:0.8;" d="M 127.8125 57.597656 C 128.984375 55.453125 130.203125 53.320312 131.625 51.328125 C 130.871094 53.21875 129.640625 54.867188 128.734375 56.683594 C 128.5625 56.90625 128.222656 57.355469 128.050781 57.574219 Z M 127.8125 57.597656 "/>
    <path style=" stroke:none;fill-rule:nonzero;fill:rgb(67.843137%,50.980392%,44.705882%);fill-opacity:0.8;" d="M 304.371094 53.144531 C 304.414062 52.5 304.933594 52.023438 305.515625 51.816406 C 305.710938 52.398438 304.964844 53.28125 304.371094 53.144531 Z M 304.371094 53.144531 "/>
    <path style=" stroke:none;fill-rule:nonzero;fill:rgb(67.843137%,50.980392%,44.705882%);fill-opacity:0.8;" d="M 119.984375 56.222656 C 120.558594 54.875 121.269531 53.523438 122.265625 52.441406 C 121.722656 53.820312 120.976562 55.117188 119.984375 56.222656 Z M 119.984375 56.222656 "/>
    <path style=" stroke:none;fill-rule:nonzero;fill:rgb(67.843137%,50.980392%,44.705882%);fill-opacity:0.8;" d="M 52.222656 54.289062 C 53.441406 53.660156 54.699219 53.125 56.019531 52.757812 C 54.863281 53.5 53.554688 53.972656 52.222656 54.289062 Z M 52.222656 54.289062 "/>
    <path style=" stroke:none;fill-rule:nonzero;fill:rgb(67.843137%,50.980392%,44.705882%);fill-opacity:0.8;" d="M 196.542969 53.101562 C 196.859375 53.476562 197.167969 53.898438 197.222656 54.410156 C 196.5625 54.691406 196.097656 53.53125 196.542969 53.101562 Z M 196.542969 53.101562 "/>
    <path style=" stroke:none;fill-rule:nonzero;fill:rgb(67.843137%,50.980392%,44.705882%);fill-opacity:0.8;" d="M 191.207031 53.617188 C 191.636719 53.722656 191.890625 53.984375 191.972656 54.394531 C 191.296875 54.539062 191.039062 54.28125 191.207031 53.617188 Z M 191.207031 53.617188 "/>
    <path style=" stroke:none;fill-rule:nonzero;fill:rgb(67.843137%,50.980392%,44.705882%);fill-opacity:0.8;" d="M 303.773438 53.867188 C 303.792969 53.851562 303.835938 53.820312 303.859375 53.804688 C 303.835938 53.820312 303.792969 53.851562 303.773438 53.867188 Z M 303.773438 53.867188 "/>
    <path style=" stroke:none;fill-rule:nonzero;fill:rgb(67.843137%,50.980392%,44.705882%);fill-opacity:0.8;" d="M 85.792969 53.851562 C 86.285156 54.140625 86.761719 54.507812 86.964844 55.0625 C 86.363281 55.441406 85.429688 54.4375 85.792969 53.851562 Z M 85.792969 53.851562 "/>
    <path style=" stroke:none;fill-rule:nonzero;fill:rgb(67.843137%,50.980392%,44.705882%);fill-opacity:0.8;" d="M 146.300781 55.269531 C 145.914062 54.78125 146.628906 53.769531 147.203125 54.050781 C 147.332031 54.664062 146.796875 55.0625 146.300781 55.269531 Z M 146.300781 55.269531 "/>
    <path style=" stroke:none;fill-rule:nonzero;fill:rgb(67.843137%,50.980392%,44.705882%);fill-opacity:0.8;" d="M 54.339844 55.054688 C 54.859375 54.523438 55.574219 54.175781 56.332031 54.339844 C 56.28125 55.078125 54.933594 55.203125 54.339844 55.054688 Z M 54.339844 55.054688 "/>
    <path style=" stroke:none;fill-rule:nonzero;fill:rgb(67.843137%,50.980392%,44.705882%);fill-opacity:0.8;" d="M 105.441406 59.992188 C 109.007812 59.140625 112.070312 56.964844 114.382812 54.15625 C 113.808594 55.675781 112.460938 56.65625 111.234375 57.625 C 109.488281 58.789062 107.605469 59.925781 105.441406 59.992188 Z M 105.441406 59.992188 "/>
    <path style=" stroke:none;fill-rule:nonzero;fill:rgb(67.843137%,50.980392%,44.705882%);fill-opacity:0.8;" d="M 153.175781 57.023438 C 153.589844 56.042969 154.039062 55.03125 154.832031 54.289062 C 154.398438 55.269531 153.882812 56.214844 153.175781 57.023438 Z M 153.175781 57.023438 "/>
    <path style=" stroke:none;fill-rule:nonzero;fill:rgb(67.843137%,50.980392%,44.705882%);fill-opacity:0.8;" d="M 180.15625 54.65625 C 180.171875 54.636719 180.203125 54.597656 180.21875 54.574219 C 180.203125 54.597656 180.171875 54.636719 180.15625 54.65625 Z M 180.15625 54.65625 "/>
    <path style=" stroke:none;fill-rule:nonzero;fill:rgb(67.843137%,50.980392%,44.705882%);fill-opacity:0.8;" d="M 213.015625 56.949219 C 213.820312 56.058594 214.539062 55.097656 215.226562 54.113281 C 214.992188 55.332031 214.140625 56.429688 213.015625 56.949219 Z M 213.015625 56.949219 "/>
    <path style=" stroke:none;fill-rule:nonzero;fill:rgb(67.843137%,50.980392%,44.705882%);fill-opacity:0.8;" d="M 192.277344 54.8125 C 193.792969 55.734375 195.125 56.945312 196.703125 57.769531 C 198.453125 58.765625 200.402344 59.292969 202.289062 59.96875 C 200.597656 59.839844 198.988281 59.234375 197.519531 58.410156 C 195.601562 57.511719 193.652344 56.464844 192.277344 54.8125 Z M 192.277344 54.8125 "/>
    <path style=" stroke:none;fill-rule:nonzero;fill:rgb(67.843137%,50.980392%,44.705882%);fill-opacity:0.8;" d="M 19.886719 55.234375 C 21.34375 56.117188 22.808594 56.992188 24.203125 57.972656 C 22.621094 57.355469 20.996094 56.550781 19.886719 55.234375 Z M 19.886719 55.234375 "/>
    <path style=" stroke:none;fill-rule:nonzero;fill:rgb(67.843137%,50.980392%,44.705882%);fill-opacity:0.8;" d="M 143.058594 57.289062 C 143.984375 56.707031 144.855469 56.03125 145.847656 55.554688 C 145.148438 56.460938 144.171875 57.050781 143.058594 57.289062 Z M 143.058594 57.289062 "/>
    <path style=" stroke:none;fill-rule:nonzero;fill:rgb(67.843137%,50.980392%,44.705882%);fill-opacity:0.8;" d="M 176.65625 57.296875 C 177.585938 56.710938 178.460938 56.039062 179.445312 55.550781 C 178.800781 56.515625 177.753906 57.03125 176.65625 57.296875 Z M 176.65625 57.296875 "/>
    <path style=" stroke:none;fill-rule:nonzero;fill:rgb(67.843137%,50.980392%,44.705882%);fill-opacity:0.8;" d="M 296.914062 57.597656 C 298.371094 56.839844 299.832031 56.089844 301.382812 55.535156 C 300.070312 56.511719 298.535156 57.3125 296.914062 57.597656 Z M 296.914062 57.597656 "/>
    <path style=" stroke:none;fill-rule:nonzero;fill:rgb(67.843137%,50.980392%,44.705882%);fill-opacity:0.8;" d="M 119.816406 56.375 L 119.980469 56.449219 C 120.054688 57.164062 119.558594 57.738281 119.015625 58.128906 C 118.757812 57.507812 119.234375 56.65625 119.816406 56.375 Z M 119.816406 56.375 "/>
    <path style=" stroke:none;fill-rule:nonzero;fill:rgb(67.843137%,50.980392%,44.705882%);fill-opacity:0.8;" d="M 199.179688 56.847656 C 199.742188 57.148438 200.289062 57.488281 200.804688 57.871094 C 200.1875 58.449219 198.816406 57.65625 199.179688 56.847656 Z M 199.179688 56.847656 "/>
    <path style=" stroke:none;fill-rule:nonzero;fill:rgb(67.843137%,50.980392%,44.705882%);fill-opacity:0.8;" d="M 213.769531 58.746094 C 214.914062 58.066406 216.066406 57.394531 217.289062 56.84375 C 216.289062 57.71875 215.113281 58.554688 213.769531 58.746094 Z M 213.769531 58.746094 "/>
    <path style=" stroke:none;fill-rule:nonzero;fill:rgb(67.843137%,50.980392%,44.705882%);fill-opacity:0.8;" d="M 24.894531 57.507812 L 25.121094 57.394531 L 25.117188 57.578125 C 25.058594 57.5625 24.953125 57.527344 24.894531 57.507812 Z M 24.894531 57.507812 "/>
    <path style=" stroke:none;fill-rule:nonzero;fill:rgb(67.843137%,50.980392%,44.705882%);fill-opacity:0.8;" d="M 142.113281 57.261719 L 142.53125 57.132812 L 142.832031 57.367188 C 142.632812 57.433594 142.222656 57.558594 142.023438 57.625 Z M 142.113281 57.261719 "/>
    <path style=" stroke:none;fill-rule:nonzero;fill:rgb(67.843137%,50.980392%,44.705882%);fill-opacity:0.8;" d="M 152.882812 57.398438 C 152.902344 57.375 152.941406 57.324219 152.957031 57.300781 L 152.921875 57.347656 Z M 152.882812 57.398438 "/>
    <path style=" stroke:none;fill-rule:nonzero;fill:rgb(67.843137%,50.980392%,44.705882%);fill-opacity:0.8;" d="M 175.726562 57.265625 L 176.148438 57.132812 L 176.449219 57.371094 C 176.246094 57.4375 175.839844 57.558594 175.640625 57.625 Z M 175.726562 57.265625 "/>
    <path style=" stroke:none;fill-rule:nonzero;fill:rgb(67.843137%,50.980392%,44.705882%);fill-opacity:0.8;" d="M 200.929688 57.957031 C 204.777344 59.308594 209.28125 59.261719 212.824219 57.101562 C 211.953125 58.328125 210.316406 58.535156 208.960938 58.855469 C 206.484375 59.105469 203.910156 59.171875 201.511719 58.425781 C 201.367188 58.308594 201.074219 58.070312 200.929688 57.957031 Z M 200.929688 57.957031 "/>
    <path style=" stroke:none;fill-rule:nonzero;fill:rgb(67.843137%,50.980392%,44.705882%);fill-opacity:0.8;" d="M 25.648438 57.613281 C 26.339844 57.660156 27.125 57.746094 27.601562 58.3125 C 27 58.660156 25.710938 58.359375 25.648438 57.613281 Z M 25.648438 57.613281 "/>
    <path style=" stroke:none;fill-rule:nonzero;fill:rgb(67.843137%,50.980392%,44.705882%);fill-opacity:0.8;" d="M 95.859375 57.59375 C 97.257812 58.195312 98.734375 58.507812 100.179688 58.921875 C 98.640625 59 97.074219 58.554688 95.859375 57.59375 Z M 95.859375 57.59375 "/>
    <path style=" stroke:none;fill-rule:nonzero;fill:rgb(67.843137%,50.980392%,44.705882%);fill-opacity:0.8;" d="M 106.339844 58.230469 C 106.660156 57.730469 107.488281 57.527344 107.988281 57.855469 C 107.566406 58.292969 107.003906 58.554688 106.390625 58.460938 Z M 106.339844 58.230469 "/>
    <path style=" stroke:none;fill-rule:nonzero;fill:rgb(67.843137%,50.980392%,44.705882%);fill-opacity:0.8;" d="M 286.617188 58.289062 C 288.167969 57.957031 289.789062 58.011719 291.304688 57.464844 C 290.058594 58.484375 288.148438 58.269531 286.617188 58.289062 Z M 286.617188 58.289062 "/>
    <path style=" stroke:none;fill-rule:nonzero;fill:rgb(67.843137%,50.980392%,44.705882%);fill-opacity:0.8;" d="M 27.90625 58.378906 C 29.09375 58.613281 30.289062 58.8125 31.457031 59.128906 C 30.257812 59.101562 28.921875 59.125 27.90625 58.378906 Z M 27.90625 58.378906 "/>
    <path style=" stroke:none;fill-rule:nonzero;fill:rgb(67.843137%,50.980392%,44.705882%);fill-opacity:0.8;" d="M 39.027344 58.96875 C 40.160156 58.6875 41.328125 58.574219 42.488281 58.449219 C 41.21875 58.914062 39.871094 59.199219 38.515625 59.117188 Z M 39.027344 58.96875 "/>
    <path style=" stroke:none;fill-rule:nonzero;fill:rgb(67.843137%,50.980392%,44.705882%);fill-opacity:0.8;" d="M 92.0625 58.398438 C 92.675781 58.316406 93.363281 58.523438 93.644531 59.125 C 93.144531 59.304688 91.980469 59.0625 92.0625 58.398438 Z M 92.0625 58.398438 "/>
    <path style=" stroke:none;fill-rule:nonzero;fill:rgb(67.843137%,50.980392%,44.705882%);fill-opacity:0.8;" d="M 103.054688 58.925781 C 104.039062 58.460938 105.164062 58.503906 106.21875 58.46875 C 105.191406 58.761719 104.136719 59.007812 103.054688 58.925781 Z M 103.054688 58.925781 "/>
    <path style=" stroke:none;fill-rule:nonzero;fill:rgb(67.843137%,50.980392%,44.705882%);fill-opacity:0.8;" d="M 291.65625 58.769531 C 292.378906 58.386719 293.191406 58.300781 294 58.402344 C 293.652344 59.070312 292.292969 59.148438 291.65625 58.769531 Z M 291.65625 58.769531 "/>
    <path style=" stroke:none;fill-rule:nonzero;fill:rgb(67.843137%,50.980392%,44.705882%);fill-opacity:0.8;" d="M 212.78125 59.160156 C 212.957031 59.054688 213.3125 58.847656 213.488281 58.742188 L 213.472656 59.09375 C 213.296875 59.109375 212.953125 59.144531 212.78125 59.160156 Z M 212.78125 59.160156 "/>
    <path style=" stroke:none;fill-rule:nonzero;fill:rgb(67.843137%,50.980392%,44.705882%);fill-opacity:0.8;" d="M 274.925781 59.136719 C 276.464844 58.792969 278.046875 58.871094 279.617188 58.96875 C 281.660156 59.09375 283.710938 58.96875 285.757812 59.15625 C 282.148438 59.21875 278.53125 59.269531 274.925781 59.136719 Z M 274.925781 59.136719 "/>
    <path style=" stroke:none;fill-rule:nonzero;fill:rgb(67.843137%,50.980392%,44.705882%);fill-opacity:0.8;" d="M 287.460938 59.15625 C 288.621094 59.015625 289.789062 58.929688 290.960938 58.925781 C 289.867188 59.449219 288.621094 59.15625 287.460938 59.15625 Z M 287.460938 59.15625 "/>
    <path style=" stroke:none;fill-rule:nonzero;fill:rgb(67.843137%,50.980392%,44.705882%);fill-opacity:0.8;" d="M 93.84375 59.164062 C 95.027344 59.371094 96.191406 59.675781 97.351562 59.984375 C 96.15625 59.996094 94.835938 59.898438 93.84375 59.164062 Z M 93.84375 59.164062 "/>
    <path style=" stroke:none;fill-rule:nonzero;fill:rgb(67.843137%,50.980392%,44.705882%);fill-opacity:0.8;" d="M 210.050781 59.945312 C 210.589844 59.210938 211.527344 59.105469 212.371094 59.171875 C 212.179688 60 210.757812 59.914062 210.050781 59.945312 Z M 210.050781 59.945312 "/>
    <path style=" stroke:none;fill-rule:nonzero;fill:rgb(67.843137%,50.980392%,44.705882%);fill-opacity:0.8;" d="M 30.023438 60.054688 C 33.992188 60.726562 38.027344 60.667969 42 60.046875 C 38.105469 61.214844 33.96875 60.832031 29.992188 60.332031 Z M 30.023438 60.054688 "/>
    <path style=" stroke:none;fill-rule:nonzero;fill:rgb(67.843137%,50.980392%,44.705882%);fill-opacity:0.8;" d="M 97.625 60 C 97.785156 60.003906 98.105469 60.003906 98.269531 60.003906 L 98.289062 60.308594 L 97.96875 60.5 L 97.628906 60.328125 Z M 97.625 60 "/>
    <path style=" stroke:none;fill-rule:nonzero;fill:rgb(67.843137%,50.980392%,44.705882%);fill-opacity:0.8;" d="M 103.632812 60.160156 C 104.132812 59.988281 104.65625 59.875 105.183594 59.976562 L 105.191406 60.226562 C 104.65625 60.640625 104.136719 60.621094 103.632812 60.160156 Z M 103.632812 60.160156 "/>
    <path style=" stroke:none;fill-rule:nonzero;fill:rgb(67.843137%,50.980392%,44.705882%);fill-opacity:0.8;" d="M 202.660156 60.050781 C 205.023438 59.980469 207.394531 60.238281 209.757812 59.980469 C 209.363281 60.597656 208.558594 60.226562 207.980469 60.351562 C 206.214844 60.519531 204.347656 60.621094 202.660156 60.050781 Z M 202.660156 60.050781 "/>
    <path style=" stroke:none;fill-rule:nonzero;fill:rgb(89.803922%,20.392157%,9.019608%);fill-opacity:1;" d="M 37.351562 19.496094 C 37.890625 19.4375 38.445312 19.441406 38.984375 19.539062 C 40.242188 19.835938 41.535156 19.972656 42.828125 20.015625 L 43.0625 20.035156 C 45.074219 20.828125 47.210938 21.660156 48.625 23.386719 C 49.832031 24.746094 50.347656 26.527344 51.027344 28.175781 C 51.6875 26.839844 52.425781 25.542969 53.160156 24.246094 L 53.273438 24.054688 C 54.066406 23.882812 54.691406 23.257812 54.875 22.464844 L 55.230469 22.421875 C 55.675781 22.382812 55.964844 22.140625 56.097656 21.691406 C 56.273438 21.570312 56.625 21.335938 56.796875 21.214844 C 57.824219 20.882812 58.816406 20.457031 59.769531 19.945312 C 61.488281 19.21875 63.398438 19.53125 65.210938 19.460938 C 66.507812 19.492188 67.96875 19.382812 69.109375 20.09375 C 69.308594 20.164062 69.707031 20.304688 69.90625 20.375 L 70.253906 20.375 C 71.941406 21.3125 73.457031 22.503906 74.863281 23.816406 L 74.855469 24.054688 C 74.722656 24.777344 75.140625 25.5 75.859375 25.6875 L 75.894531 25.851562 C 76.738281 28.769531 76.996094 31.792969 76.964844 34.816406 C 76.914062 41.210938 77.035156 47.613281 76.898438 54.007812 C 76.652344 54.027344 76.15625 54.066406 75.90625 54.089844 C 75.003906 54.085938 74.125 53.835938 73.246094 53.648438 C 68.871094 52.644531 64.265625 52.640625 59.875 53.574219 L 59.601562 53.625 C 58.625 53.78125 57.65625 54.007812 56.734375 54.367188 L 56.332031 54.339844 C 55.574219 54.175781 54.859375 54.523438 54.339844 55.054688 L 54.113281 55.230469 C 51.960938 55.976562 50.007812 57.171875 47.914062 58.058594 C 46.125 58.863281 44.226562 59.398438 42.355469 59.976562 L 42 60.046875 C 38.027344 60.667969 33.992188 60.726562 30.023438 60.054688 L 29.675781 60 C 28.09375 59.601562 26.550781 59.035156 25.027344 58.449219 C 24.742188 58.304688 24.46875 58.148438 24.203125 57.972656 C 22.808594 56.992188 21.34375 56.117188 19.886719 55.234375 L 19.855469 55.210938 C 18.875 54.054688 16.898438 53.363281 17.03125 51.613281 C 16.996094 41.683594 17.125 31.753906 16.96875 21.824219 C 14.796875 21.488281 12.59375 21.695312 10.402344 21.648438 C 10.398438 21.433594 10.398438 21 10.398438 20.785156 C 15.058594 20.789062 19.71875 20.769531 24.375 20.796875 C 24.410156 23.949219 24.234375 27.109375 24.46875 30.257812 C 24.691406 29.886719 25 29.550781 25.070312 29.113281 L 25.1875 28.65625 C 25.648438 27.738281 26.144531 26.839844 26.441406 25.851562 C 26.484375 25.734375 26.5625 25.496094 26.609375 25.375 L 27.003906 25.273438 C 27.644531 25.21875 27.949219 24.601562 28.03125 24.03125 C 28.199219 23.316406 28.855469 22.859375 29.390625 22.414062 C 31.789062 20.835938 34.496094 19.820312 37.351562 19.496094 M 31.011719 23.230469 C 30.914062 23.308594 30.726562 23.457031 30.636719 23.527344 C 29.566406 23.789062 28.679688 24.6875 28.464844 25.769531 L 28.457031 25.78125 C 27.167969 26.886719 26.371094 28.546875 26.035156 30.195312 L 25.976562 30.476562 C 25.132812 30.570312 24.820312 32.050781 25.273438 32.710938 L 25.234375 32.964844 C 24.394531 33.996094 24.730469 35.535156 24.492188 36.789062 C 24.410156 42.921875 24.496094 49.050781 24.457031 55.183594 C 24.484375 55.976562 24.328125 56.851562 24.894531 57.507812 C 24.953125 57.527344 25.058594 57.5625 25.117188 57.578125 L 25.648438 57.613281 C 25.710938 58.359375 27 58.660156 27.601562 58.3125 L 27.90625 58.378906 C 28.921875 59.125 30.257812 59.101562 31.457031 59.128906 L 31.753906 59.179688 C 31.988281 59.945312 33.449219 59.8125 34.023438 59.402344 C 34.667969 59.460938 35.324219 59.511719 35.957031 59.324219 C 36.472656 59.835938 38.050781 59.980469 38.238281 59.179688 L 38.515625 59.117188 C 39.871094 59.199219 41.21875 58.914062 42.488281 58.449219 L 42.835938 58.40625 C 42.984375 58.371094 43.277344 58.296875 43.425781 58.261719 C 43.558594 48.441406 43.433594 38.617188 43.492188 28.792969 C 43.449219 28.089844 43.621094 27.289062 43.113281 26.703125 L 43.105469 26.644531 C 43.121094 25.40625 42.839844 24.050781 41.898438 23.179688 C 41.804688 23.113281 41.621094 22.976562 41.523438 22.90625 C 41.695312 22.199219 41.425781 21.925781 40.707031 22.074219 C 40.632812 21.972656 40.484375 21.761719 40.410156 21.652344 C 39.597656 20.921875 38.484375 20.726562 37.425781 20.867188 L 37.296875 20.832031 C 35.042969 20.847656 32.589844 21.554688 31.011719 23.230469 M 55.144531 24.148438 C 55.074219 24.214844 54.941406 24.347656 54.871094 24.410156 C 54.046875 24.910156 53.398438 25.664062 53.171875 26.617188 L 53.109375 26.699219 C 51.148438 29.019531 50.90625 32.304688 50.855469 35.226562 C 50.898438 41.882812 50.785156 48.546875 50.910156 55.203125 C 51.339844 54.945312 51.761719 54.664062 52.132812 54.328125 L 52.222656 54.289062 C 53.554688 53.972656 54.863281 53.5 56.019531 52.757812 L 56.207031 52.691406 C 57.386719 52.550781 59.035156 52.617188 59.742188 51.511719 L 59.769531 51.503906 C 61.078125 51.492188 62.339844 51.097656 63.609375 50.816406 C 63.816406 50.761719 64.226562 50.652344 64.4375 50.597656 C 64.96875 51.074219 65.34375 51.019531 65.5625 50.425781 C 66.753906 50.746094 68.003906 50.527344 69.214844 50.664062 C 69.304688 50.503906 69.484375 50.183594 69.570312 50.027344 C 69.632812 42.542969 69.5625 35.0625 69.605469 27.578125 C 69.628906 26.847656 69.519531 26.117188 69.195312 25.457031 C 69.097656 25.03125 68.957031 24.621094 68.785156 24.222656 C 68.367188 21.992188 65.828125 20.664062 63.699219 20.882812 C 63.546875 20.878906 63.253906 20.871094 63.101562 20.867188 C 60.207031 20.789062 57.011719 21.875 55.144531 24.148438 Z M 55.144531 24.148438 "/>
    <path style=" stroke:none;fill-rule:nonzero;fill:rgb(89.803922%,20.392157%,9.019608%);fill-opacity:1;" d="M 95.78125 19.96875 C 100.335938 18.914062 105.183594 19.4375 109.351562 21.578125 L 109.433594 21.632812 C 110.296875 22.34375 111.179688 23.027344 112.117188 23.640625 C 112.777344 24.105469 113.316406 24.710938 113.816406 25.335938 L 113.84375 25.367188 L 113.863281 25.40625 L 114.042969 25.761719 C 115.335938 28.230469 116.816406 30.757812 116.878906 33.632812 C 116.730469 34.398438 116.691406 35.234375 117.125 35.933594 L 117.40625 36.492188 C 110.007812 36.542969 102.605469 36.507812 95.203125 36.515625 C 93.390625 36.546875 91.539062 36.296875 89.777344 36.816406 L 89.636719 36.851562 C 89.554688 37.609375 89.585938 38.367188 89.6875 39.121094 C 89.804688 40.121094 89.796875 41.132812 89.710938 42.136719 C 89.515625 43.371094 89.601562 44.628906 89.941406 45.832031 C 89.957031 45.941406 89.992188 46.152344 90.011719 46.257812 C 90.074219 47.742188 90.246094 49.234375 90.753906 50.652344 L 90.804688 50.828125 C 91.121094 52.054688 91.570312 53.273438 92.425781 54.238281 L 92.464844 54.292969 C 93.257812 55.617188 94.40625 56.660156 95.699219 57.480469 L 95.859375 57.59375 C 97.074219 58.554688 98.640625 59 100.179688 58.921875 C 101.140625 58.914062 102.101562 58.902344 103.054688 58.925781 C 104.136719 59.007812 105.191406 58.761719 106.21875 58.46875 L 106.390625 58.460938 C 107.003906 58.554688 107.566406 58.292969 107.988281 57.855469 L 108.183594 57.699219 C 109.9375 57.121094 111.578125 56.035156 112.429688 54.347656 L 112.449219 54.320312 C 113.332031 53.277344 114.121094 52.117188 114.410156 50.757812 L 114.457031 50.605469 C 114.636719 49.984375 114.800781 49.359375 114.972656 48.738281 C 115.359375 48.832031 116.136719 49.019531 116.523438 49.117188 C 116.375 49.660156 116.230469 50.203125 116.058594 50.742188 L 115.996094 50.898438 C 115.398438 51.9375 114.871094 53.007812 114.410156 54.113281 L 114.382812 54.15625 C 112.070312 56.964844 109.007812 59.140625 105.441406 59.992188 L 105.183594 59.976562 C 104.65625 59.875 104.132812 59.988281 103.632812 60.160156 C 103.390625 60.175781 102.90625 60.214844 102.667969 60.234375 C 101.203125 60.09375 99.730469 60.121094 98.269531 60.003906 C 98.105469 60.003906 97.785156 60.003906 97.625 60 L 97.351562 59.984375 C 96.191406 59.675781 95.027344 59.371094 93.84375 59.164062 L 93.644531 59.125 C 93.363281 58.523438 92.675781 58.316406 92.0625 58.398438 L 91.535156 58.402344 C 91.148438 57.726562 90.382812 57.472656 89.683594 57.261719 C 89.507812 57.195312 89.15625 57.074219 88.980469 57.011719 L 88.886719 56.617188 C 88.835938 56 88.261719 55.53125 87.652344 55.589844 L 87.222656 55.566406 C 87.160156 55.445312 87.027344 55.191406 86.964844 55.0625 C 86.761719 54.507812 86.285156 54.140625 85.792969 53.851562 L 85.625 53.726562 C 83.550781 51.109375 82.160156 48.0625 81.242188 44.863281 C 81.230469 44.800781 81.210938 44.671875 81.199219 44.609375 C 81.15625 41.691406 81.089844 38.777344 81.234375 35.859375 L 81.253906 35.546875 C 81.886719 34.992188 82.1875 34.117188 82.011719 33.289062 L 81.992188 33.101562 C 82.960938 31.441406 83.652344 29.617188 84.8125 28.066406 C 85.839844 26.527344 87.242188 25.304688 88.425781 23.890625 L 88.601562 23.6875 L 88.890625 23.652344 C 89.390625 23.621094 89.664062 23.359375 89.714844 22.871094 L 90.015625 22.824219 C 90.765625 22.820312 91.339844 22.324219 91.71875 21.722656 C 92.1875 21.195312 92.890625 20.832031 93.605469 20.804688 C 94.3125 20.792969 95.222656 20.785156 95.542969 20.011719 L 95.78125 19.96875 M 98.644531 20.84375 C 97.808594 21.0625 96.960938 21.261719 96.164062 21.589844 C 94.980469 21.671875 94.175781 22.628906 93.410156 23.421875 C 92.5625 24.441406 91.609375 25.574219 91.632812 26.984375 L 91.578125 27.242188 L 91.277344 27.226562 C 90.65625 29.539062 90.035156 31.886719 90.039062 34.300781 C 90.050781 34.535156 90.066406 35.007812 90.074219 35.242188 L 89.777344 35.558594 C 95.9375 35.605469 102.101562 35.675781 108.261719 35.527344 C 108.234375 33.003906 108.339844 30.480469 108.195312 27.964844 C 108.171875 27.226562 107.996094 26.5 107.59375 25.875 L 107.570312 25.804688 C 107.496094 24.578125 106.878906 23.359375 105.863281 22.648438 C 105.785156 22.605469 105.625 22.519531 105.542969 22.476562 C 105.652344 21.824219 105.386719 21.554688 104.742188 21.671875 L 104.230469 21.5625 C 104.390625 20.746094 102.839844 20.363281 102.355469 20.960938 L 102.160156 20.800781 C 101.136719 20.195312 99.625 20.136719 98.644531 20.84375 Z M 98.644531 20.84375 "/>
    <path style=" stroke:none;fill-rule:nonzero;fill:rgb(89.803922%,20.392157%,9.019608%);fill-opacity:1;" d="M 196.769531 21.933594 C 201.046875 19.449219 206.234375 18.878906 211.023438 19.976562 L 211.257812 20.023438 C 211.570312 20.796875 212.492188 20.769531 213.191406 20.820312 L 213.484375 20.855469 C 214.4375 21.40625 215.390625 21.957031 216.4375 22.320312 L 216.566406 22.371094 C 217.398438 23.382812 218.464844 24.164062 219.632812 24.742188 L 219.769531 24.832031 C 220.464844 25.609375 221.191406 26.351562 221.949219 27.0625 L 221.96875 27.089844 C 222.570312 28.050781 223.257812 28.964844 223.992188 29.832031 L 224.011719 29.863281 C 224.847656 31.699219 225.738281 33.511719 226.355469 35.4375 L 226.382812 35.59375 C 226.90625 39.160156 226.976562 42.929688 225.585938 46.324219 C 224.03125 50.585938 220.9375 54.046875 217.386719 56.78125 L 217.289062 56.84375 C 216.066406 57.394531 214.914062 58.066406 213.769531 58.746094 L 213.488281 58.742188 C 213.3125 58.847656 212.957031 59.054688 212.78125 59.160156 L 212.371094 59.171875 C 211.527344 59.105469 210.589844 59.210938 210.050781 59.945312 L 209.757812 59.980469 C 207.394531 60.238281 205.023438 59.980469 202.660156 60.050781 C 202.5625 60.03125 202.378906 59.988281 202.289062 59.96875 C 200.402344 59.292969 198.453125 58.765625 196.703125 57.769531 C 195.125 56.945312 193.792969 55.734375 192.277344 54.8125 L 192.027344 54.65625 L 191.972656 54.394531 C 191.890625 53.984375 191.636719 53.722656 191.207031 53.617188 C 191.105469 53.53125 190.898438 53.371094 190.796875 53.289062 C 187.867188 49.601562 185.484375 45.214844 185.503906 40.382812 C 185.273438 36.808594 186.4375 33.375 188.011719 30.226562 L 188.09375 30.050781 C 188.832031 29.886719 189.234375 29.15625 189.222656 28.4375 L 189.253906 28.167969 L 189.457031 27.980469 C 191.6875 25.734375 193.894531 23.378906 196.769531 21.933594 M 204.171875 20.808594 C 204.105469 20.820312 203.96875 20.851562 203.894531 20.863281 C 200.855469 20.925781 197.8125 22.925781 196.757812 25.804688 L 196.734375 25.863281 C 195.707031 27.179688 195.21875 28.945312 195.230469 30.605469 C 195.140625 31.007812 195.039062 31.410156 194.9375 31.8125 C 194.785156 33.351562 194.574219 34.878906 194.625 36.429688 C 194.324219 38.3125 194.148438 40.273438 194.539062 42.148438 C 194.421875 44.363281 194.527344 46.621094 195.195312 48.746094 L 195.214844 48.945312 C 195.207031 50.351562 195.527344 51.84375 196.441406 52.953125 L 196.542969 53.101562 C 196.097656 53.53125 196.5625 54.691406 197.222656 54.410156 L 197.269531 54.621094 C 197.691406 55.402344 198.226562 56.132812 198.949219 56.671875 L 199.179688 56.847656 C 198.816406 57.65625 200.1875 58.449219 200.804688 57.871094 L 200.929688 57.957031 C 201.074219 58.070312 201.367188 58.308594 201.511719 58.425781 C 203.910156 59.171875 206.484375 59.105469 208.960938 58.855469 C 210.316406 58.535156 211.953125 58.328125 212.824219 57.101562 C 212.871094 57.058594 212.96875 56.988281 213.015625 56.949219 C 214.140625 56.429688 214.992188 55.332031 215.226562 54.113281 L 215.257812 54.058594 C 216.074219 52.957031 216.410156 51.574219 216.710938 50.261719 L 216.777344 50.109375 C 217.558594 48.96875 217.484375 47.460938 217.5 46.136719 C 217.597656 45.351562 217.574219 44.554688 217.648438 43.769531 C 217.707031 43.609375 217.820312 43.292969 217.875 43.132812 C 217.902344 40.101562 218.011719 37.054688 217.53125 34.050781 C 217.53125 33.914062 217.527344 33.644531 217.527344 33.507812 C 217.464844 31.355469 217.191406 29.019531 216.050781 27.152344 L 215.996094 27.035156 C 215.863281 25.929688 215.320312 24.878906 214.421875 24.210938 L 214.238281 24.039062 C 214.6875 23.246094 213.625 22.136719 212.8125 22.546875 L 212.574219 22.441406 C 211.464844 21.242188 209.730469 20.878906 208.164062 20.835938 L 208.101562 20.824219 C 207.003906 20.140625 205.269531 20.148438 204.171875 20.808594 Z M 204.171875 20.808594 "/>
    <path style=" stroke:none;fill-rule:nonzero;fill:rgb(89.803922%,20.392157%,9.019608%);fill-opacity:1;" d="M 121.746094 20.832031 C 128.367188 20.730469 134.992188 20.808594 141.613281 20.785156 C 144.335938 20.828125 147.0625 20.660156 149.78125 20.941406 C 149.609375 21.167969 149.265625 21.628906 149.09375 21.855469 C 148.410156 22.195312 148.054688 22.863281 147.992188 23.605469 L 147.960938 23.714844 C 147.34375 24.597656 146.804688 25.53125 146.363281 26.515625 L 146.335938 26.566406 C 145.390625 27.804688 144.585938 29.140625 143.9375 30.554688 L 143.851562 30.714844 C 143.199219 30.992188 142.746094 31.640625 142.824219 32.359375 L 142.820312 32.554688 C 141.800781 33.738281 141.039062 35.113281 140.410156 36.53125 L 140.375 36.589844 C 139.433594 37.820312 138.648438 39.160156 137.992188 40.5625 L 137.992188 40.566406 C 137.351562 41.40625 136.746094 42.300781 136.476562 43.332031 L 136.378906 43.625 C 135.984375 43.734375 135.757812 44.011719 135.699219 44.457031 L 135.625 44.589844 C 134.964844 45.421875 134.40625 46.335938 134.035156 47.335938 L 133.988281 47.433594 C 133.210938 48.664062 132.476562 49.921875 131.726562 51.164062 L 131.625 51.328125 C 130.203125 53.320312 128.984375 55.453125 127.8125 57.597656 L 127.875 57.980469 C 131.519531 58.039062 135.164062 57.964844 138.808594 58.019531 C 139.832031 58.054688 140.851562 57.914062 141.84375 57.65625 L 142.023438 57.625 C 142.222656 57.558594 142.632812 57.433594 142.832031 57.367188 L 143.058594 57.289062 C 144.171875 57.050781 145.148438 56.460938 145.847656 55.554688 C 145.960938 55.484375 146.1875 55.339844 146.300781 55.269531 C 146.796875 55.0625 147.332031 54.664062 147.203125 54.050781 L 147.199219 53.867188 C 148.550781 52.148438 149.136719 49.980469 149.554688 47.867188 L 149.621094 47.644531 C 149.847656 47.578125 150.308594 47.449219 150.535156 47.378906 C 150.078125 51.21875 149.703125 55.070312 149.378906 58.925781 C 139.710938 58.996094 130.042969 58.910156 120.375 58.96875 C 119.726562 58.992188 119.097656 58.84375 118.53125 58.53125 L 119.015625 58.128906 C 119.558594 57.738281 120.054688 57.164062 119.980469 56.449219 L 119.984375 56.222656 C 120.976562 55.117188 121.722656 53.820312 122.265625 52.441406 L 122.542969 51.984375 C 123.460938 50.902344 124.15625 49.671875 124.683594 48.363281 L 124.871094 48.101562 C 125.523438 47.351562 125.972656 46.472656 126.363281 45.566406 L 126.4375 45.4375 C 127.390625 44.238281 128.191406 42.925781 128.738281 41.492188 L 128.800781 41.371094 C 129.628906 40.109375 130.398438 38.816406 131.125 37.492188 L 131.148438 37.453125 C 132.476562 35.824219 133.378906 33.914062 134.5 32.152344 C 135.140625 31.15625 135.707031 30.121094 136.140625 29.015625 C 136.175781 28.957031 136.242188 28.835938 136.28125 28.777344 C 137.246094 27.671875 138.03125 26.410156 138.503906 25.015625 C 138.609375 24.816406 138.820312 24.40625 138.925781 24.203125 C 138.941406 24.183594 138.972656 24.148438 138.988281 24.128906 L 139.390625 23.78125 C 139.8125 23.484375 140.199219 23.054688 140.191406 22.511719 C 140.207031 22.382812 140.238281 22.136719 140.257812 22.011719 L 140.292969 21.757812 C 137.085938 21.839844 133.871094 21.675781 130.667969 21.863281 C 130.441406 21.871094 129.984375 21.886719 129.757812 21.898438 C 128.5625 21.84375 127.363281 22.058594 126.378906 22.773438 L 126.351562 22.789062 C 125.109375 23.355469 124.167969 24.375 123.609375 25.613281 L 123.367188 25.996094 C 122.546875 27.117188 121.898438 28.359375 121.609375 29.722656 L 121.515625 30.058594 C 121.113281 30.078125 120.710938 30.117188 120.3125 30.160156 L 120.378906 29.746094 C 120.742188 27.726562 120.945312 25.6875 121.257812 23.660156 L 121.292969 23.457031 C 121.496094 22.59375 121.640625 21.714844 121.746094 20.832031 Z M 121.746094 20.832031 "/>
    <path style=" stroke:none;fill-rule:nonzero;fill:rgb(89.803922%,20.392157%,9.019608%);fill-opacity:1;" d="M 155.105469 20.839844 C 161.402344 20.714844 167.703125 20.820312 174 20.78125 C 177.132812 20.824219 180.273438 20.679688 183.398438 20.878906 C 183.054688 21.507812 182.816406 22.238281 182.210938 22.671875 C 181.824219 22.886719 181.609375 23.214844 181.570312 23.652344 L 181.542969 23.765625 C 180.632812 25.238281 179.621094 26.667969 178.886719 28.246094 L 178.703125 28.855469 C 177.640625 29.875 177.019531 31.222656 176.410156 32.542969 L 176.382812 32.59375 C 175.4375 33.8125 174.65625 35.152344 174.007812 36.550781 L 173.980469 36.59375 C 173.332031 37.414062 172.820312 38.332031 172.449219 39.3125 L 172.390625 39.425781 C 171.636719 40.617188 170.84375 41.792969 170.253906 43.074219 L 170.054688 43.40625 C 169.171875 44.652344 168.414062 45.980469 167.671875 47.3125 L 167.640625 47.359375 C 166.394531 48.925781 165.5 50.71875 164.449219 52.414062 C 163.792969 53.488281 163.113281 54.554688 162.699219 55.753906 C 162.667969 55.828125 162.609375 55.984375 162.574219 56.058594 L 162.507812 56.125 C 161.847656 56.558594 161.503906 57.242188 161.316406 57.988281 C 165.136719 58.019531 168.960938 57.976562 172.78125 58.019531 C 173.691406 58.039062 174.597656 57.867188 175.480469 57.652344 L 175.640625 57.625 C 175.839844 57.558594 176.246094 57.4375 176.449219 57.371094 L 176.65625 57.296875 C 177.753906 57.03125 178.800781 56.515625 179.445312 55.550781 C 179.683594 55.257812 179.921875 54.957031 180.15625 54.65625 C 180.171875 54.636719 180.203125 54.597656 180.21875 54.574219 C 180.332031 54.445312 180.554688 54.171875 180.667969 54.035156 C 182.105469 52.3125 182.851562 50.039062 183.121094 47.839844 L 183.15625 47.285156 C 183.40625 47.265625 183.910156 47.226562 184.164062 47.210938 C 184.109375 48.183594 184.054688 49.160156 184.015625 50.136719 C 183.980469 50.832031 183.96875 51.523438 183.941406 52.21875 C 183.332031 54.328125 183.679688 56.613281 183.125 58.742188 C 172.886719 58.832031 162.644531 58.839844 152.40625 58.742188 L 152.363281 58.214844 C 152.492188 58.011719 152.757812 57.605469 152.882812 57.398438 L 152.921875 57.347656 L 152.957031 57.300781 L 153.175781 57.023438 C 153.882812 56.214844 154.398438 55.269531 154.832031 54.289062 L 154.859375 54.234375 C 156.207031 52.355469 157.390625 50.355469 158.398438 48.28125 L 158.429688 48.230469 C 159.367188 47 160.160156 45.664062 160.789062 44.253906 L 160.8125 44.207031 C 161.765625 42.984375 162.535156 41.636719 163.195312 40.234375 L 163.203125 40.21875 C 163.855469 39.382812 164.378906 38.460938 164.765625 37.472656 L 164.8125 37.371094 C 165.625 36.105469 166.398438 34.816406 167.121094 33.492188 L 167.152344 33.445312 C 168.632812 31.574219 169.683594 29.421875 170.941406 27.402344 C 171.902344 25.695312 173.078125 24.097656 173.796875 22.261719 C 173.824219 22.199219 173.871094 22.085938 173.894531 22.027344 L 174.003906 21.769531 C 170.761719 21.820312 167.511719 21.6875 164.273438 21.859375 C 164.042969 21.871094 163.589844 21.890625 163.359375 21.902344 C 161.882812 21.882812 160.339844 22.199219 159.199219 23.183594 C 156.960938 25 155.988281 27.792969 154.746094 30.285156 C 154.546875 30.355469 154.152344 30.5 153.953125 30.566406 C 154.003906 30.320312 154.113281 29.824219 154.167969 29.574219 C 154.378906 29.195312 154.453125 28.796875 154.375 28.371094 C 154.378906 28.132812 154.382812 27.65625 154.382812 27.421875 C 154.652344 26.238281 154.789062 25.039062 154.824219 23.832031 C 154.859375 23.664062 154.925781 23.324219 154.957031 23.15625 C 155.179688 22.773438 155.257812 22.363281 155.183594 21.933594 C 155.164062 21.65625 155.125 21.113281 155.105469 20.839844 Z M 155.105469 20.839844 "/>
    <path style=" stroke:none;fill-rule:nonzero;fill:rgb(89.411765%,42.352941%,29.803922%);fill-opacity:0.968627;" d="M 38.984375 19.539062 C 40.246094 19.335938 41.511719 19.578125 42.769531 19.714844 L 42.828125 20.015625 C 41.535156 19.972656 40.242188 19.835938 38.984375 19.539062 Z M 38.984375 19.539062 "/>
    <path style=" stroke:none;fill-rule:nonzero;fill:rgb(89.411765%,42.352941%,29.803922%);fill-opacity:0.968627;" d="M 10 20.398438 C 14.941406 20.363281 19.882812 20.472656 24.824219 20.34375 C 24.589844 23.042969 24.761719 25.765625 24.722656 28.472656 C 24.8125 28.632812 24.984375 28.953125 25.070312 29.113281 C 25 29.550781 24.691406 29.886719 24.46875 30.257812 C 24.234375 27.109375 24.410156 23.949219 24.375 20.796875 C 19.71875 20.769531 15.058594 20.789062 10.398438 20.785156 C 10.398438 21 10.398438 21.433594 10.402344 21.648438 C 12.59375 21.695312 14.796875 21.488281 16.96875 21.824219 C 14.648438 21.992188 12.320312 21.84375 10 21.921875 C 10 21.410156 10 20.90625 10 20.398438 Z M 10 20.398438 "/>
    <path style=" stroke:none;fill-rule:nonzero;fill:rgb(89.411765%,42.352941%,29.803922%);fill-opacity:0.968627;" d="M 98.644531 20.84375 C 99.625 20.136719 101.136719 20.195312 102.160156 20.800781 C 100.984375 20.792969 99.8125 20.792969 98.644531 20.84375 Z M 98.644531 20.84375 "/>
    <path style=" stroke:none;fill-rule:nonzero;fill:rgb(89.411765%,42.352941%,29.803922%);fill-opacity:0.968627;" d="M 121.292969 23.457031 C 121.011719 22.390625 121.570312 21.375 121.46875 20.3125 C 131.085938 20.492188 140.710938 20.390625 150.332031 20.363281 C 150.195312 20.507812 149.921875 20.796875 149.78125 20.941406 C 147.0625 20.660156 144.335938 20.828125 141.613281 20.785156 C 134.992188 20.808594 128.367188 20.730469 121.746094 20.832031 C 121.640625 21.714844 121.496094 22.59375 121.292969 23.457031 Z M 121.292969 23.457031 "/>
    <path style=" stroke:none;fill-rule:nonzero;fill:rgb(89.411765%,42.352941%,29.803922%);fill-opacity:0.968627;" d="M 155.121094 20.261719 C 164.648438 20.257812 174.171875 20.253906 183.699219 20.261719 L 183.679688 20.894531 L 183.398438 20.878906 C 180.273438 20.679688 177.132812 20.824219 174 20.78125 C 167.703125 20.820312 161.402344 20.714844 155.105469 20.839844 Z M 155.121094 20.261719 "/>
    <path style=" stroke:none;fill-rule:nonzero;fill:rgb(89.411765%,42.352941%,29.803922%);fill-opacity:0.968627;" d="M 204.171875 20.808594 C 205.269531 20.148438 207.003906 20.140625 208.101562 20.824219 C 206.792969 20.796875 205.480469 20.796875 204.171875 20.808594 Z M 204.171875 20.808594 "/>
    <path style=" stroke:none;fill-rule:nonzero;fill:rgb(89.411765%,42.352941%,29.803922%);fill-opacity:0.968627;" d="M 55.230469 22.421875 C 55.15625 21.777344 55.445312 21.535156 56.097656 21.691406 C 55.964844 22.140625 55.675781 22.382812 55.230469 22.421875 Z M 55.230469 22.421875 "/>
    <path style=" stroke:none;fill-rule:nonzero;fill:rgb(89.411765%,42.352941%,29.803922%);fill-opacity:0.968627;" d="M 93.410156 23.421875 C 94.175781 22.628906 94.980469 21.671875 96.164062 21.589844 C 94.191406 22.9375 92.566406 24.773438 91.632812 26.984375 C 91.609375 25.574219 92.5625 24.441406 93.410156 23.421875 Z M 93.410156 23.421875 "/>
    <path style=" stroke:none;fill-rule:nonzero;fill:rgb(89.411765%,42.352941%,29.803922%);fill-opacity:0.968627;" d="M 212.8125 22.546875 C 213.625 22.136719 214.6875 23.246094 214.238281 24.039062 C 213.703125 23.605469 213.160156 23.152344 212.8125 22.546875 Z M 212.8125 22.546875 "/>
    <path style=" stroke:none;fill-rule:nonzero;fill:rgb(89.411765%,42.352941%,29.803922%);fill-opacity:0.968627;" d="M 216.566406 22.371094 C 217.707031 22.980469 218.90625 23.632812 219.632812 24.742188 C 218.464844 24.164062 217.398438 23.382812 216.566406 22.371094 Z M 216.566406 22.371094 "/>
    <path style=" stroke:none;fill-rule:nonzero;fill:rgb(89.411765%,42.352941%,29.803922%);fill-opacity:0.968627;" d="M 28.464844 25.769531 C 28.679688 24.6875 29.566406 23.789062 30.636719 23.527344 C 29.921875 24.285156 29.183594 25.015625 28.464844 25.769531 Z M 28.464844 25.769531 "/>
    <path style=" stroke:none;fill-rule:nonzero;fill:rgb(89.411765%,42.352941%,29.803922%);fill-opacity:0.968627;" d="M 27.003906 25.273438 C 26.730469 24.738281 27.460938 23.808594 28.03125 24.03125 C 27.949219 24.601562 27.644531 25.21875 27.003906 25.273438 Z M 27.003906 25.273438 "/>
    <path style=" stroke:none;fill-rule:nonzero;fill:rgb(89.411765%,42.352941%,29.803922%);fill-opacity:0.968627;" d="M 75.894531 25.851562 C 77.078125 27.496094 77.070312 29.648438 77.242188 31.585938 C 77.234375 39.246094 77.203125 46.914062 77.257812 54.574219 C 76.929688 54.519531 76.273438 54.40625 75.945312 54.351562 L 75.90625 54.089844 C 76.15625 54.066406 76.652344 54.027344 76.898438 54.007812 C 77.035156 47.613281 76.914062 41.210938 76.964844 34.816406 C 76.996094 31.792969 76.738281 28.769531 75.894531 25.851562 Z M 75.894531 25.851562 "/>
    <path style=" stroke:none;fill-rule:nonzero;fill:rgb(89.411765%,42.352941%,29.803922%);fill-opacity:0.968627;" d="M 43.113281 26.703125 C 43.621094 27.289062 43.449219 28.089844 43.492188 28.792969 C 43.433594 38.617188 43.558594 48.441406 43.425781 58.261719 C 43.277344 58.296875 42.984375 58.371094 42.835938 58.40625 C 42.964844 58.011719 43.042969 57.609375 43.074219 57.195312 C 43.105469 47.03125 43.027344 36.867188 43.113281 26.703125 Z M 43.113281 26.703125 "/>
    <path style=" stroke:none;fill-rule:nonzero;fill:rgb(89.411765%,42.352941%,29.803922%);fill-opacity:0.968627;" d="M 24.492188 36.789062 C 24.730469 35.535156 24.394531 33.996094 25.234375 32.964844 C 25.089844 34.027344 24.945312 35.097656 24.953125 36.175781 C 24.785156 37.449219 24.566406 38.722656 24.644531 40.015625 C 24.894531 45.84375 24.558594 51.683594 24.894531 57.507812 C 24.328125 56.851562 24.484375 55.976562 24.457031 55.183594 C 24.496094 49.050781 24.410156 42.921875 24.492188 36.789062 Z M 24.492188 36.789062 "/>
    <path style=" stroke:none;fill-rule:nonzero;fill:rgb(89.411765%,42.352941%,29.803922%);fill-opacity:0.968627;" d="M 116.878906 33.632812 L 117.070312 33.609375 C 117.496094 34.265625 117.382812 35.226562 117.125 35.933594 C 116.691406 35.234375 116.730469 34.398438 116.878906 33.632812 Z M 116.878906 33.632812 "/>
    <path style=" stroke:none;fill-rule:nonzero;fill:rgb(89.411765%,42.352941%,29.803922%);fill-opacity:0.968627;" d="M 81.199219 44.609375 C 80.539062 41.796875 80.375 38.65625 81.234375 35.859375 C 81.089844 38.777344 81.15625 41.691406 81.199219 44.609375 Z M 81.199219 44.609375 "/>
    <path style=" stroke:none;fill-rule:nonzero;fill:rgb(89.411765%,42.352941%,29.803922%);fill-opacity:0.968627;" d="M 89.777344 36.816406 C 91.539062 36.296875 93.390625 36.546875 95.203125 36.515625 C 102.605469 36.507812 110.007812 36.542969 117.40625 36.492188 L 117.15625 36.878906 C 108.03125 36.773438 98.902344 36.890625 89.777344 36.816406 Z M 89.777344 36.816406 "/>
    <path style=" stroke:none;fill-rule:nonzero;fill:rgb(89.411765%,42.352941%,29.803922%);fill-opacity:0.968627;" d="M 89.636719 36.851562 L 89.777344 36.816406 L 89.992188 36.992188 C 90.070312 37.601562 90.351562 38.863281 89.6875 39.121094 C 89.585938 38.367188 89.554688 37.609375 89.636719 36.851562 Z M 89.636719 36.851562 "/>
    <path style=" stroke:none;fill-rule:nonzero;fill:rgb(89.411765%,42.352941%,29.803922%);fill-opacity:0.968627;" d="M 89.710938 42.136719 C 90.296875 43.28125 90 44.609375 89.941406 45.832031 C 89.601562 44.628906 89.515625 43.371094 89.710938 42.136719 Z M 89.710938 42.136719 "/>
    <path style=" stroke:none;fill-rule:nonzero;fill:rgb(89.411765%,42.352941%,29.803922%);fill-opacity:0.968627;" d="M 56.207031 52.691406 C 57.371094 52.261719 58.546875 51.863281 59.742188 51.511719 C 59.035156 52.617188 57.386719 52.550781 56.207031 52.691406 Z M 56.207031 52.691406 "/>
    <path style=" stroke:none;fill-rule:nonzero;fill:rgb(89.411765%,42.352941%,29.803922%);fill-opacity:0.968627;" d="M 108.183594 57.699219 C 109.625 56.609375 111.144531 55.640625 112.429688 54.347656 C 111.578125 56.035156 109.9375 57.121094 108.183594 57.699219 Z M 108.183594 57.699219 "/>
    <path style=" stroke:none;fill-rule:nonzero;fill:rgb(89.411765%,42.352941%,29.803922%);fill-opacity:0.968627;" d="M 87.652344 55.589844 C 88.261719 55.53125 88.835938 56 88.886719 56.617188 C 88.355469 56.800781 87.472656 56.160156 87.652344 55.589844 Z M 87.652344 55.589844 "/>
    <path style=" stroke:none;fill-rule:nonzero;fill:rgb(89.411765%,42.352941%,29.803922%);fill-opacity:0.968627;" d="M 161.316406 57.988281 C 161.503906 57.242188 161.847656 56.558594 162.507812 56.125 C 162.304688 56.449219 161.890625 57.101562 161.6875 57.425781 C 166.265625 57.816406 170.890625 57.371094 175.480469 57.652344 C 174.597656 57.867188 173.691406 58.039062 172.78125 58.019531 C 168.960938 57.976562 165.136719 58.019531 161.316406 57.988281 Z M 161.316406 57.988281 "/>
    <path style=" stroke:none;fill-rule:nonzero;fill:rgb(89.411765%,42.352941%,29.803922%);fill-opacity:0.968627;" d="M 127.8125 57.597656 L 128.050781 57.574219 C 132.648438 57.613281 137.253906 57.472656 141.84375 57.65625 C 140.851562 57.914062 139.832031 58.054688 138.808594 58.019531 C 135.164062 57.964844 131.519531 58.039062 127.875 57.980469 Z M 127.8125 57.597656 "/>
    <path style=" stroke:none;fill-rule:nonzero;fill:rgb(89.411765%,42.352941%,29.803922%);fill-opacity:0.968627;" d="M 151.828125 59.195312 C 151.960938 58.953125 152.226562 58.460938 152.363281 58.214844 L 152.40625 58.742188 C 162.644531 58.839844 172.886719 58.832031 183.125 58.742188 L 183.230469 59.191406 C 172.765625 59.214844 162.296875 59.203125 151.828125 59.195312 Z M 151.828125 59.195312 "/>
    <path style=" stroke:none;fill-rule:nonzero;fill:rgb(89.411765%,42.352941%,29.803922%);fill-opacity:0.968627;" d="M 31.753906 59.179688 C 32.507812 59.195312 33.339844 58.988281 34.023438 59.402344 C 33.449219 59.8125 31.988281 59.945312 31.753906 59.179688 Z M 31.753906 59.179688 "/>
    <path style=" stroke:none;fill-rule:nonzero;fill:rgb(89.411765%,42.352941%,29.803922%);fill-opacity:0.968627;" d="M 35.957031 59.324219 C 36.695312 59.101562 37.476562 59.15625 38.238281 59.179688 C 38.050781 59.980469 36.472656 59.835938 35.957031 59.324219 Z M 35.957031 59.324219 "/>
    <path style=" stroke:none;fill-rule:nonzero;fill:rgb(89.411765%,42.352941%,29.803922%);fill-opacity:0.968627;" d="M 98.269531 60.003906 C 99.730469 60.121094 101.203125 60.09375 102.667969 60.234375 C 101.277344 61.054688 99.765625 59.960938 98.289062 60.308594 Z M 98.269531 60.003906 "/>
    <path style=" stroke:none;fill-rule:nonzero;fill:rgb(32.941176%,24.705882%,21.176471%);fill-opacity:0.360784;" d="M 10.011719 20.035156 C 14.410156 20.042969 18.8125 20.054688 23.210938 20.027344 C 23.757812 20.0625 24.375 19.957031 24.824219 20.34375 C 19.882812 20.472656 14.941406 20.363281 10 20.398438 Z M 10.011719 20.035156 "/>
    <path style=" stroke:none;fill-rule:nonzero;fill:rgb(32.941176%,24.705882%,21.176471%);fill-opacity:0.360784;" d="M 121.46875 20.3125 C 121.878906 20.085938 122.324219 19.992188 122.800781 20.027344 C 131.472656 20.058594 140.144531 20.046875 148.820312 20.027344 C 149.351562 20.003906 149.855469 20.117188 150.332031 20.363281 C 140.710938 20.390625 131.085938 20.492188 121.46875 20.3125 Z M 121.46875 20.3125 "/>
    <path style=" stroke:none;fill-rule:nonzero;fill:rgb(32.941176%,24.705882%,21.176471%);fill-opacity:0.360784;" d="M 292.328125 20.734375 C 293.503906 20.859375 294.699219 20.964844 295.832031 21.355469 L 295.457031 21.394531 C 294.394531 21.269531 293.339844 21.070312 292.328125 20.734375 Z M 292.328125 20.734375 "/>
    <path style=" stroke:none;fill-rule:nonzero;fill:rgb(32.941176%,24.705882%,21.176471%);fill-opacity:0.360784;" d="M 120.816406 23.601562 L 121.257812 23.660156 C 120.945312 25.6875 120.742188 27.726562 120.378906 29.746094 C 120.390625 27.691406 120.832031 25.660156 120.816406 23.601562 Z M 120.816406 23.601562 "/>
    <path style=" stroke:none;fill-rule:nonzero;fill:rgb(32.941176%,24.705882%,21.176471%);fill-opacity:0.360784;" d="M 299.957031 32.421875 C 300.71875 35.402344 300.574219 38.523438 300.601562 41.578125 C 300.515625 43.3125 300.550781 45.101562 299.972656 46.757812 C 299.953125 44.617188 300.542969 42.523438 300.410156 40.378906 C 300.558594 37.707031 299.949219 35.089844 299.957031 32.421875 Z M 299.957031 32.421875 "/>
    <path style=" stroke:none;fill-rule:nonzero;fill:rgb(32.941176%,24.705882%,21.176471%);fill-opacity:0.360784;" d="M 164.8125 37.371094 C 165.261719 35.9375 166.058594 34.5625 167.121094 33.492188 C 166.398438 34.816406 165.625 36.105469 164.8125 37.371094 Z M 164.8125 37.371094 "/>
    <path style=" stroke:none;fill-rule:nonzero;fill:rgb(32.941176%,24.705882%,21.176471%);fill-opacity:0.360784;" d="M 217.53125 34.050781 C 218.011719 37.054688 217.902344 40.101562 217.875 43.132812 C 217.820312 43.292969 217.707031 43.609375 217.648438 43.769531 C 217.835938 40.527344 217.679688 37.285156 217.53125 34.050781 Z M 217.53125 34.050781 "/>
    <path style=" stroke:none;fill-rule:nonzero;fill:rgb(32.941176%,24.705882%,21.176471%);fill-opacity:0.360784;" d="M 24.644531 40.015625 C 24.566406 38.722656 24.785156 37.449219 24.953125 36.175781 C 25.183594 37.570312 25.253906 38.988281 25.210938 40.402344 C 25.136719 46.066406 25.3125 51.734375 25.121094 57.394531 L 24.894531 57.507812 C 24.558594 51.683594 24.894531 45.84375 24.644531 40.015625 Z M 24.644531 40.015625 "/>
    <path style=" stroke:none;fill-rule:nonzero;fill:rgb(32.941176%,24.705882%,21.176471%);fill-opacity:0.360784;" d="M 89.777344 36.816406 C 98.902344 36.890625 108.03125 36.773438 117.15625 36.878906 C 116.386719 37.105469 115.585938 37.074219 114.796875 37.066406 C 106.527344 36.96875 98.246094 37.140625 89.992188 36.992188 Z M 89.777344 36.816406 "/>
    <path style=" stroke:none;fill-rule:nonzero;fill:rgb(32.941176%,24.705882%,21.176471%);fill-opacity:0.360784;" d="M 128.800781 41.371094 C 129.28125 39.945312 130.042969 38.546875 131.125 37.492188 C 130.398438 38.816406 129.628906 40.109375 128.800781 41.371094 Z M 128.800781 41.371094 "/>
    <path style=" stroke:none;fill-rule:nonzero;fill:rgb(32.941176%,24.705882%,21.176471%);fill-opacity:0.360784;" d="M 170.253906 43.074219 C 170.84375 41.792969 171.636719 40.617188 172.390625 39.425781 C 171.953125 40.894531 171.0625 42.203125 170.101562 43.382812 Z M 170.253906 43.074219 "/>
    <path style=" stroke:none;fill-rule:nonzero;fill:rgb(32.941176%,24.705882%,21.176471%);fill-opacity:0.360784;" d="M 194.539062 42.148438 C 194.996094 44.316406 194.839844 46.558594 195.195312 48.746094 C 194.527344 46.621094 194.421875 44.363281 194.539062 42.148438 Z M 194.539062 42.148438 "/>
    <path style=" stroke:none;fill-rule:nonzero;fill:rgb(32.941176%,24.705882%,21.176471%);fill-opacity:0.360784;" d="M 135.699219 44.457031 C 135.757812 44.011719 135.984375 43.734375 136.378906 43.625 C 136.605469 44.277344 136.375 44.554688 135.699219 44.457031 Z M 135.699219 44.457031 "/>
    <path style=" stroke:none;fill-rule:nonzero;fill:rgb(32.941176%,24.705882%,21.176471%);fill-opacity:0.360784;" d="M 167.671875 47.3125 C 168.414062 45.980469 169.171875 44.652344 170.054688 43.40625 C 169.511719 44.828125 168.765625 46.234375 167.671875 47.3125 Z M 167.671875 47.3125 "/>
    <path style=" stroke:none;fill-rule:nonzero;fill:rgb(32.941176%,24.705882%,21.176471%);fill-opacity:0.360784;" d="M 183.15625 47.285156 C 183.53125 47.132812 183.90625 46.988281 184.289062 46.847656 C 184.242188 47.914062 184.820312 49.253906 184.015625 50.136719 C 184.054688 49.160156 184.109375 48.183594 184.164062 47.210938 C 183.910156 47.226562 183.40625 47.265625 183.15625 47.285156 Z M 183.15625 47.285156 "/>
    <path style=" stroke:none;fill-rule:nonzero;fill:rgb(32.941176%,24.705882%,21.176471%);fill-opacity:0.360784;" d="M 131.726562 51.164062 C 132.476562 49.921875 133.210938 48.664062 133.988281 47.433594 C 133.65625 48.882812 132.597656 50 131.941406 51.304688 Z M 131.726562 51.164062 "/>
    <path style=" stroke:none;fill-rule:nonzero;fill:rgb(32.941176%,24.705882%,21.176471%);fill-opacity:0.360784;" d="M 307.226562 49.179688 C 307.265625 48.6875 307.578125 48.304688 307.941406 47.988281 C 308.429688 48.410156 307.847656 49.5 307.226562 49.179688 Z M 307.226562 49.179688 "/>
    <path style=" stroke:none;fill-rule:nonzero;fill:rgb(32.941176%,24.705882%,21.176471%);fill-opacity:0.360784;" d="M 114.929688 48.53125 C 115.566406 48.636719 116.207031 48.730469 116.851562 48.828125 C 116.683594 49.484375 116.519531 50.144531 116.359375 50.804688 L 116.058594 50.742188 C 116.230469 50.203125 116.375 49.660156 116.523438 49.117188 C 116.136719 49.019531 115.359375 48.832031 114.972656 48.738281 C 114.800781 49.359375 114.636719 49.984375 114.457031 50.605469 C 114.351562 49.867188 114.644531 49.1875 114.929688 48.53125 Z M 114.929688 48.53125 "/>
    <path style=" stroke:none;fill-rule:nonzero;fill:rgb(32.941176%,24.705882%,21.176471%);fill-opacity:0.360784;" d="M 64.4375 50.597656 C 64.78125 50.3125 65.15625 50.257812 65.5625 50.425781 C 65.34375 51.019531 64.96875 51.074219 64.4375 50.597656 Z M 64.4375 50.597656 "/>
    <path style=" stroke:none;fill-rule:nonzero;fill:rgb(32.941176%,24.705882%,21.176471%);fill-opacity:0.360784;" d="M 215.257812 54.058594 C 215.664062 52.765625 216.113281 51.480469 216.710938 50.261719 C 216.410156 51.574219 216.074219 52.957031 215.257812 54.058594 Z M 215.257812 54.058594 "/>
    <path style=" stroke:none;fill-rule:nonzero;fill:rgb(32.941176%,24.705882%,21.176471%);fill-opacity:0.360784;" d="M 59.769531 51.503906 C 60.996094 51.039062 62.308594 50.894531 63.609375 50.816406 C 62.339844 51.097656 61.078125 51.492188 59.769531 51.503906 Z M 59.769531 51.503906 "/>
    <path style=" stroke:none;fill-rule:nonzero;fill:rgb(32.941176%,24.705882%,21.176471%);fill-opacity:0.360784;" d="M 59.875 53.574219 C 64.265625 52.640625 68.871094 52.644531 73.246094 53.648438 C 68.816406 52.984375 64.324219 53.066406 59.875 53.574219 Z M 59.875 53.574219 "/>
    <path style=" stroke:none;fill-rule:nonzero;fill:rgb(32.941176%,24.705882%,21.176471%);fill-opacity:0.360784;" d="M 56.734375 54.367188 C 57.65625 54.007812 58.625 53.78125 59.601562 53.625 L 59.605469 53.96875 C 58.640625 54.0625 57.6875 54.210938 56.734375 54.367188 Z M 56.734375 54.367188 "/>
    <path style=" stroke:none;fill-rule:nonzero;fill:rgb(32.941176%,24.705882%,21.176471%);fill-opacity:0.360784;" d="M 92.464844 54.292969 C 93.609375 55.285156 94.625 56.414062 95.699219 57.480469 C 94.40625 56.660156 93.257812 55.617188 92.464844 54.292969 Z M 92.464844 54.292969 "/>
    <path style=" stroke:none;fill-rule:nonzero;fill:rgb(32.941176%,24.705882%,21.176471%);fill-opacity:0.360784;" d="M 197.269531 54.621094 C 197.910156 55.230469 198.453125 55.9375 198.949219 56.671875 C 198.226562 56.132812 197.691406 55.402344 197.269531 54.621094 Z M 197.269531 54.621094 "/>
    <path style=" stroke:none;fill-rule:nonzero;fill:rgb(32.941176%,24.705882%,21.176471%);fill-opacity:0.360784;" d="M 47.914062 58.058594 C 50.007812 57.171875 51.960938 55.976562 54.113281 55.230469 C 50.40625 57.183594 46.558594 59.324219 42.355469 59.976562 C 44.226562 59.398438 46.125 58.863281 47.914062 58.058594 Z M 47.914062 58.058594 "/>
    <path style=" stroke:none;fill-rule:nonzero;fill:rgb(32.941176%,24.705882%,21.176471%);fill-opacity:0.360784;" d="M 89.683594 57.261719 C 90.382812 57.472656 91.148438 57.726562 91.535156 58.402344 C 90.859375 58.742188 89.566406 58.042969 89.683594 57.261719 Z M 89.683594 57.261719 "/>
    <path style=" stroke:none;fill-rule:nonzero;fill:rgb(32.941176%,24.705882%,21.176471%);fill-opacity:0.360784;" d="M 294.527344 58.367188 C 295.21875 58.003906 295.957031 57.726562 296.742188 57.636719 C 296.753906 58.550781 295.179688 58.816406 294.527344 58.367188 Z M 294.527344 58.367188 "/>
    <path style=" stroke:none;fill-rule:nonzero;fill:rgb(32.941176%,24.705882%,21.176471%);fill-opacity:0.360784;" d="M 25.027344 58.449219 C 26.550781 59.035156 28.09375 59.601562 29.675781 60 C 28.039062 59.9375 26.351562 59.421875 25.027344 58.449219 Z M 25.027344 58.449219 "/>
    <path style=" stroke:none;fill-rule:nonzero;fill:rgb(34.117647%,26.666667%,26.27451%);fill-opacity:1;" d="M 235.089844 20.546875 C 237.652344 20.671875 240.222656 20.617188 242.789062 20.554688 C 243.058594 26.609375 242.796875 32.675781 242.914062 38.734375 L 243.203125 38.761719 C 248.261719 38.824219 253.316406 38.769531 258.371094 38.785156 C 258.367188 32.605469 258.375 26.425781 258.367188 20.238281 C 261.042969 20.234375 263.722656 20.230469 266.398438 20.242188 C 266.398438 33.230469 266.398438 46.214844 266.398438 59.203125 C 263.722656 59.207031 261.046875 59.203125 258.371094 59.203125 C 258.359375 52.851562 258.390625 46.5 258.359375 40.148438 C 253.316406 40.164062 248.273438 40.179688 243.230469 40.136719 C 243.164062 46.492188 243.214844 52.847656 243.199219 59.203125 C 240.519531 59.207031 237.84375 59.203125 235.164062 59.203125 C 235.117188 46.320312 235.265625 33.429688 235.089844 20.546875 Z M 235.089844 20.546875 "/>
    <path style=" stroke:none;fill-rule:nonzero;fill:rgb(34.117647%,26.666667%,26.27451%);fill-opacity:1;" d="M 274.851562 20.269531 C 279.105469 20.167969 283.355469 20.332031 287.613281 20.242188 C 289.003906 20.183594 290.367188 20.605469 291.769531 20.484375 C 291.90625 20.546875 292.1875 20.671875 292.328125 20.734375 C 293.339844 21.070312 294.394531 21.269531 295.457031 21.394531 C 297.863281 22.058594 300.171875 23.105469 302.246094 24.496094 C 302.871094 24.902344 303.546875 25.332031 303.886719 26.035156 C 304.125 26.566406 304.488281 27.097656 305.097656 27.242188 L 305.410156 27.371094 L 305.519531 27.570312 C 306.644531 29.625 308.03125 31.574219 308.59375 33.886719 C 309.414062 36.398438 309.117188 39.050781 309.277344 41.644531 C 309.394531 42.796875 309.296875 43.953125 309.136719 45.097656 C 309.019531 45.207031 308.796875 45.429688 308.679688 45.539062 C 308.042969 46.023438 307.9375 46.847656 307.96875 47.59375 L 307.941406 47.988281 C 307.578125 48.304688 307.265625 48.6875 307.226562 49.179688 L 307.140625 49.585938 C 306.394531 49.753906 305.875 50.464844 306.003906 51.222656 L 306.011719 51.578125 C 305.886719 51.640625 305.640625 51.757812 305.515625 51.816406 C 304.933594 52.023438 304.414062 52.5 304.371094 53.144531 L 304.292969 53.542969 L 303.859375 53.804688 C 303.835938 53.820312 303.792969 53.851562 303.773438 53.867188 C 302.988281 54.445312 302.296875 55.171875 301.382812 55.535156 C 299.832031 56.089844 298.371094 56.839844 296.914062 57.597656 L 296.742188 57.636719 C 295.957031 57.726562 295.21875 58.003906 294.527344 58.367188 L 294 58.402344 C 293.191406 58.300781 292.378906 58.386719 291.65625 58.769531 C 291.484375 58.804688 291.136719 58.882812 290.960938 58.925781 C 289.789062 58.929688 288.621094 59.015625 287.460938 59.15625 C 286.890625 59.207031 286.320312 59.1875 285.757812 59.15625 C 283.710938 58.96875 281.660156 59.09375 279.617188 58.96875 C 278.046875 58.871094 276.464844 58.792969 274.925781 59.136719 L 274.835938 59.152344 C 275.007812 52.109375 274.859375 45.058594 274.90625 38.015625 C 274.871094 32.101562 274.980469 26.183594 274.851562 20.269531 M 282.9375 21.375 C 282.957031 33.558594 282.957031 45.746094 282.9375 57.933594 C 284.144531 58.136719 285.375 58.660156 286.617188 58.289062 C 288.148438 58.269531 290.058594 58.484375 291.304688 57.464844 C 292.320312 57.027344 293.371094 56.648438 294.332031 56.085938 C 295.777344 55.671875 296.726562 54.402344 297.617188 53.277344 C 298.867188 51.425781 299.9375 49.292969 299.929688 47.007812 L 299.972656 46.757812 C 300.550781 45.101562 300.515625 43.3125 300.601562 41.578125 C 300.574219 38.523438 300.71875 35.402344 299.957031 32.421875 L 299.921875 32.1875 C 299.929688 31.167969 299.742188 30.160156 299.539062 29.164062 L 299.152344 29.167969 L 299.117188 29.066406 C 299.015625 27.511719 298.078125 25.953125 296.824219 25.035156 C 296.488281 24.632812 296.105469 24.253906 295.640625 24.011719 C 296.011719 23.265625 294.628906 22.375 294.035156 22.9375 C 290.632812 21.042969 286.675781 21.394531 282.9375 21.375 Z M 282.9375 21.375 "/>
  </g>
</svg>