<?xml version="1.0" encoding="UTF-8" ?>
<!DOCTYPE svg PUBLIC "-//W3C//DTD SVG 1.1//EN" "http://www.w3.org/Graphics/SVG/1.1/DTD/svg11.dtd">
<svg width="1153pt" height="944pt" viewBox="0 0 1153 944" version="1.1" xmlns="http://www.w3.org/2000/svg">
<g id="#00af3fff">
<path fill="#00af3f" opacity="1.00" d=" M 1.14 1.14 C 385.09 1.28 769.05 1.16 1153.00 1.20 L 1153.00 624.14 C 769.07 624.15 385.13 624.13 1.20 624.15 C 1.16 416.48 1.28 208.81 1.14 1.14 M 156.15 156.61 C 156.18 260.68 156.15 364.76 156.16 468.84 C 179.24 468.85 202.32 468.82 225.40 468.85 C 225.45 414.99 225.41 361.12 225.42 307.26 C 242.38 340.40 259.51 373.46 276.38 406.64 L 276.91 407.00 C 292.34 407.03 307.76 406.93 323.19 407.05 C 340.00 373.97 356.95 340.95 373.68 307.83 C 373.84 308.86 373.95 309.90 374.00 310.95 C 374.00 363.58 373.99 416.21 374.01 468.84 C 397.00 468.84 420.00 468.84 442.99 468.84 C 443.01 364.76 443.00 260.67 443.00 156.58 C 420.85 156.56 398.71 156.62 376.57 156.55 C 351.04 209.10 325.55 261.68 299.88 314.16 C 274.19 261.68 248.52 209.19 222.91 156.67 C 200.66 156.47 178.40 156.61 156.15 156.61 M 447.94 468.76 C 471.91 468.96 495.88 468.76 519.86 468.86 C 527.48 447.22 536.02 425.89 543.34 404.15 C 582.49 403.80 621.66 404.10 660.82 404.00 C 668.23 425.75 676.80 447.08 684.27 468.81 C 719.02 468.78 753.77 469.01 788.52 468.70 C 813.02 433.62 838.02 398.88 862.72 363.93 C 886.54 398.91 910.51 433.80 934.32 468.79 C 961.80 468.91 989.28 468.79 1016.76 468.85 C 979.38 415.45 941.93 362.10 904.42 308.79 C 941.08 258.15 977.88 207.61 1014.62 157.03 C 987.15 156.96 959.68 157.01 932.21 157.01 C 909.42 188.94 886.70 220.92 863.98 252.91 C 841.92 220.98 819.89 189.02 797.93 157.03 C 770.75 156.99 743.57 156.96 716.39 157.04 C 751.49 207.35 786.62 257.63 821.67 307.97 C 794.56 344.93 767.79 382.16 740.50 418.98 C 722.74 371.09 704.45 323.39 686.53 275.55 C 671.41 235.90 656.78 196.05 641.41 156.49 C 616.17 156.69 590.93 156.54 565.69 156.57 C 526.46 260.64 487.18 364.69 447.94 468.76 Z" />
<path fill="#00af3f" opacity="1.00" d=" M 603.21 234.26 C 603.63 233.02 604.15 231.82 604.72 230.65 C 618.53 270.39 632.00 310.26 645.93 349.97 C 618.44 350.03 590.96 349.99 563.48 349.99 C 576.84 311.45 590.09 272.88 603.21 234.26 Z" />
</g>
<g id="#ffffffff">
<path fill="#ffffff" opacity="1.00" d=" M 156.15 156.61 C 178.40 156.61 200.66 156.47 222.91 156.67 C 248.52 209.19 274.19 261.68 299.88 314.16 C 325.55 261.68 351.04 209.10 376.57 156.55 C 398.71 156.62 420.85 156.56 443.00 156.58 C 443.00 260.67 443.01 364.76 442.99 468.84 C 420.00 468.84 397.00 468.84 374.01 468.84 C 373.99 416.21 374.00 363.58 374.00 310.95 C 373.95 309.90 373.84 308.86 373.68 307.83 C 356.95 340.95 340.00 373.97 323.19 407.05 C 307.76 406.93 292.34 407.03 276.91 407.00 L 276.38 406.64 C 259.51 373.46 242.38 340.40 225.42 307.26 C 225.41 361.12 225.45 414.99 225.40 468.85 C 202.32 468.82 179.24 468.85 156.16 468.84 C 156.15 364.76 156.18 260.68 156.15 156.61 Z" />
<path fill="#ffffff" opacity="1.00" d=" M 447.94 468.76 C 487.18 364.69 526.46 260.64 565.69 156.57 C 590.93 156.54 616.17 156.69 641.41 156.49 C 656.78 196.05 671.41 235.90 686.53 275.55 C 704.45 323.39 722.74 371.09 740.50 418.98 C 767.79 382.16 794.56 344.93 821.67 307.97 C 786.62 257.63 751.49 207.35 716.39 157.04 C 743.57 156.96 770.75 156.99 797.93 157.03 C 819.89 189.02 841.92 220.98 863.98 252.91 C 886.70 220.92 909.42 188.94 932.21 157.01 C 959.68 157.01 987.15 156.96 1014.62 157.03 C 977.88 207.61 941.08 258.15 904.42 308.79 C 941.93 362.10 979.38 415.45 1016.76 468.85 C 989.28 468.79 961.80 468.91 934.32 468.79 C 910.51 433.80 886.54 398.91 862.72 363.93 C 838.02 398.88 813.02 433.62 788.52 468.70 C 753.77 469.01 719.02 468.78 684.27 468.81 C 676.80 447.08 668.23 425.75 660.82 404.00 C 621.66 404.10 582.49 403.80 543.34 404.15 C 536.02 425.89 527.48 447.22 519.86 468.86 C 495.88 468.76 471.91 468.96 447.94 468.76 M 603.21 234.26 C 590.09 272.88 576.84 311.45 563.48 349.99 C 590.96 349.99 618.44 350.03 645.93 349.97 C 632.00 310.26 618.53 270.39 604.72 230.65 C 604.15 231.82 603.63 233.02 603.21 234.26 Z" />
</g>
<g id="#1e1e1eff">
<path fill="#1e1e1e" opacity="1.00" d=" M 430.04 750.05 C 440.96 748.22 452.19 748.48 463.08 750.50 C 464.04 751.84 465.58 753.07 465.35 754.93 C 465.43 779.07 465.30 803.23 465.40 827.37 C 489.47 827.27 513.53 827.28 537.60 827.37 C 537.68 803.54 537.60 779.71 537.64 755.89 C 537.61 753.92 538.09 751.52 540.20 750.79 C 543.92 749.22 548.05 749.40 552.00 749.00 C 558.31 748.30 564.64 749.13 570.93 749.65 C 573.91 749.94 578.34 751.03 577.69 754.98 C 577.67 816.00 577.71 877.02 577.67 938.04 C 577.99 942.66 572.17 942.30 569.47 944.00 L 568.27 944.00 C 568.31 943.85 568.39 943.56 568.44 943.41 C 559.03 943.70 549.37 944.54 540.17 942.06 C 537.70 941.16 537.58 938.20 537.60 936.00 C 537.66 911.72 537.63 887.45 537.62 863.17 C 513.54 863.11 489.46 863.13 465.38 863.16 C 465.32 888.13 465.43 913.10 465.34 938.07 C 465.57 940.16 463.82 942.01 461.86 942.43 C 459.27 942.97 456.67 943.41 454.10 944.00 L 436.59 944.00 C 432.76 942.71 425.70 943.56 425.35 938.03 C 425.28 877.02 425.32 816.00 425.33 754.99 C 424.99 752.24 427.53 750.28 430.04 750.05 Z" />
<path fill="#1e1e1e" opacity="1.00" d=" M 620.94 750.73 C 626.70 748.65 632.96 749.02 638.98 748.66 C 656.29 748.74 673.63 748.14 690.91 749.51 C 703.54 750.81 716.21 753.56 727.53 759.51 C 740.82 766.03 752.32 776.26 759.87 789.05 C 768.65 803.45 772.76 820.30 773.68 837.02 C 774.98 860.13 771.91 884.51 759.38 904.47 C 747.81 923.53 727.52 936.32 705.92 940.87 C 699.71 942.50 693.23 942.56 686.98 944.00 L 627.35 944.00 C 623.87 942.72 617.95 942.03 618.33 937.02 C 618.29 876.68 618.34 816.33 618.30 755.99 C 618.20 753.94 618.73 751.45 620.94 750.73 M 658.45 908.78 C 675.75 908.85 694.59 909.85 709.73 899.94 C 723.00 891.69 729.31 876.07 731.12 861.13 C 732.99 844.77 732.43 827.54 725.92 812.19 C 721.36 801.08 711.89 792.33 700.66 788.22 C 687.21 783.22 672.61 783.88 658.50 783.76 C 658.36 825.43 658.46 867.10 658.45 908.78 Z" />
</g>
</svg>
