<?xml version="1.0" encoding="UTF-8" standalone="no"?>
<!-- Created with Inkscape (http://www.inkscape.org/) -->

<svg
   xmlns:svg="http://www.w3.org/2000/svg"
   xmlns="http://www.w3.org/2000/svg"
   version="1.0"
   width="1024"
   height="360.9313"
   id="svg14620">
  <defs
     id="defs14622" />
  <g
     transform="translate(-328.73396,-510.46018)"
     id="layer1">
    <g
       transform="matrix(24.076131,0,0,24.076131,-8741.0636,-21861.856)"
       id="g14614">
      <path
         d="m 378.21,942.65345 7.3825,0 0,-11.87787 -7.3825,0 0,11.87787 z m 8.88375,1.4975 -10.3805,0 0,-14.8725 10.3805,0 0,14.8725 z"
         id="path2462"
         style="fill:#fdd005;fill-opacity:1;fill-rule:nonzero;stroke:none" />
      <path
         d="m 416.33125,941.1822 0.175,0 c 0.50625,0 0.74875,0.26375 0.74875,0.835 0,0.69125 -0.2575,0.96625 -0.6875,0.96625 l -0.23625,0 0,-1.80125 z m -4.76125,-1.18375 7.426,0 0,4.169 -7.426,0 0,-4.169 z m 1.91875,1.7275 0,-1.1175 -0.6625,0 0,2.94875 0.6625,0 0,-1.2575 0.85625,0 0,1.2575 0.6625,0 0,-2.94875 -0.6625,0 0,1.1175 -0.85625,0 z m 2.92375,-1.1175 -0.7425,0 0,2.94875 0.94125,0 c 0.8825,0 1.32125,-0.64375 1.32125,-1.47375 0,-0.84 -0.3975,-1.475 -1.52,-1.475"
         id="path2464"
         style="fill:#231f20;fill-opacity:1;fill-rule:evenodd;stroke:none" />
      <path
         d="m 413.48875,941.72595 0.85625,0 0,-1.1175 0.6625,0 0,2.94875 -0.6625,0 0,-1.2575 -0.85625,0 0,1.2575 -0.6625,0 0,-2.94875 0.6625,0 0,1.1175 z m 2.92375,-1.1175 c 1.1225,0 1.52,0.635 1.52,1.475 0,0.83 -0.43875,1.47375 -1.32125,1.47375 l -0.94125,0 0,-2.94875 0.7425,0 z m -0.0813,0.57375 0,1.80125 0.23625,0 c 0.43,0 0.6875,-0.275 0.6875,-0.96625 0,-0.57125 -0.2425,-0.835 -0.74875,-0.835 l -0.175,0"
         id="path2466"
         style="fill:#ffffff;fill-opacity:1;fill-rule:nonzero;stroke:none" />
      <path
         d="m 408.1425,940.5822 -1.1775,0 0,1.13125 1.15375,0 0,0.55375 -1.15375,0 0,1.3325 1.39,0 0,0.5525 -2.0975,0 0,-4.12375 1.885,0 0,0.55375 z m -2.43875,3.57 -0.5125,0 c -0.6725,-0.9475 -1.3375,-1.89 -2.005,-2.95625 l -0.005,2.95625 -0.56625,0 0,-4.12375 0.51375,0 c 0.67125,0.9425 1.33625,1.88 1.9975,2.94 l 0.0112,-2.94 0.56625,0 0,4.12375 z m -3.755,0 -0.51125,0 c -0.6725,-0.9475 -1.33875,-1.89 -2.005,-2.95625 l -0.005,2.95625 -0.56625,0 0,-4.12375 0.5125,0 c 0.67125,0.9425 1.33875,1.88 1.99875,2.94 l 0.0113,-2.94 0.565,0 0,4.12375 z m -5.24375,-4.12375 0.59,0 1.31375,4.12375 -0.78875,0 -0.325,-1.12375 -1.24375,0 -0.36,1.12375 -0.6125,0 1.42625,-4.12375 z m -0.27,2.4925 0.955,0 c -0.155,-0.5425 -0.3025,-1.04375 -0.4675,-1.67875 -0.15875,0.635 -0.32375,1.13625 -0.4875,1.67875 z m -1.41,1.63125 -0.70625,0 0,-1.985 -1.4675,0 0,1.985 -0.70125,0 0,-4.12375 0.70125,0 0,1.585 1.4675,0 0,-1.5725 0.70625,0 0,4.11125 z m -3.3175,-3.375 c -0.17,-0.10625 -0.45375,-0.23125 -0.725,-0.23125 -0.7175,0 -1.2425,0.59625 -1.2425,1.53375 0,0.9775 0.5775,1.555 1.26125,1.555 0.27,0 0.525,-0.0888 0.70625,-0.20625 l 0.19625,0.5125 c -0.21375,0.14625 -0.59,0.2825 -0.9325,0.2825 -1.21375,0 -1.98,-0.9425 -1.98,-2.15625 0,-1.12625 0.76,-2.11 1.99125,-2.11 0.36625,0 0.7075,0.15375 0.94875,0.3175 l -0.22375,0.5025 z m 27.31125,-5.3725 c -0.17,-0.1075 -0.45375,-0.23125 -0.725,-0.23125 -0.72125,0 -1.24875,0.59625 -1.24875,1.535 0,0.98125 0.58,1.56125 1.26625,1.56125 0.27125,0 0.52625,-0.0887 0.7075,-0.2075 l 0.19625,0.51375 c -0.21375,0.14875 -0.59125,0.28375 -0.93375,0.28375 -1.2175,0 -1.985,-0.945 -1.985,-2.1625 0,-1.1275 0.7625,-2.115 1.9975,-2.115 0.36625,0 0.7075,0.155 0.95125,0.31875 l -0.22625,0.50375 z m -3.18875,3.38375 -0.70283,0 0,-4.135 0.70283,0 0,4.135 z m -1.38375,0 -0.70875,0 0,-1.99 -1.47125,0 0,1.99 -0.7025,0 0,-4.135 0.7025,0 0,1.59 1.47125,0 0,-1.5775 0.70875,0 0,4.1225 z m -4.9625,0 -0.70875,0 0,-4.135 1.105,0 c 0.79125,0 1.28125,0.39 1.28125,1.19375 0,0.69625 -0.51375,1.3825 -1.35875,1.3825 l -0.31875,0 0,1.55875 z m 0,-2.075 c 0.055,-0.005 0.225,-0.01 0.295,-0.0163 0.3375,-0.0175 0.67375,-0.26625 0.67375,-0.82125 0,-0.425 -0.235,-0.6675 -0.65,-0.6675 l -0.31875,0 0,1.505 z m -2.84125,-2.06 0.59,0 1.31875,4.135 -0.7925,0 -0.325,-1.1275 -1.24625,0 -0.36125,1.1275 -0.61375,0 1.43,-4.135 z m -0.2725,2.49875 0.9575,0 c -0.15375,-0.5425 -0.30125,-1.045 -0.46625,-1.6825 -0.16,0.6375 -0.325,1.14 -0.49125,1.6825 z m -1.16875,1.63625 -0.81125,0 -0.6675,-1.55875 -0.3175,0 0,1.55875 -0.71,0 0,-4.135 1.105,0 c 0.7925,0 1.2825,0.39 1.2825,1.19375 0,0.49625 -0.26,0.98625 -0.71375,1.22875 l 0.8325,1.7125 z m -1.79625,-3.58 0,1.50625 c 0.0588,-0.006 0.22375,-0.0113 0.295,-0.0175 0.33625,-0.0175 0.67375,-0.26625 0.67375,-0.82125 0,-0.425 -0.23625,-0.6675 -0.65625,-0.6675 l -0.3125,0 z m -1.35875,1.69 0,1.7075 c -0.37875,0.1475 -0.775,0.25375 -1.17625,0.25375 -1.2175,0 -1.98625,-0.945 -1.98625,-2.1625 0,-1.1275 0.76875,-2.115 2.00875,-2.115 0.385,0 0.76875,0.1425 1.005,0.31875 l -0.23,0.49125 c -0.19,-0.11875 -0.48625,-0.21875 -0.7575,-0.21875 -0.755,0 -1.27,0.59625 -1.27,1.535 0,0.98125 0.59,1.56125 1.2,1.56125 0.18875,0 0.3475,-0.025 0.49625,-0.1 l 0,-1.27125 0.71,0 z m -5.15875,1.96125 c -1.08125,0 -1.755,-0.9625 -1.755,-2.1975 0,-1.1575 0.74375,-2.08 1.755,-2.08 1.01,0 1.755,0.9225 1.755,2.08 0,1.235 -0.67375,2.1975 -1.755,2.1975 z m 0,-0.59 c 0.7375,0 0.9975,-0.815 0.9975,-1.6075 0,-0.76125 -0.295,-1.48875 -0.9975,-1.48875 -0.70375,0 -0.99875,0.7275 -0.99875,1.48875 0,0.7925 0.26,1.6075 0.99875,1.6075 z m -2.18625,-3.06125 -1.1825,0 0,1.135 1.15875,0 0,0.555 -1.15875,0 0,1.335 1.395,0 0,0.555 -2.10375,0 0,-4.135 1.89125,0 0,0.555 z m -2.535,1.69 0,1.7075 c -0.37875,0.1475 -0.77375,0.25375 -1.17625,0.25375 -1.21625,0 -1.98375,-0.945 -1.98375,-2.1625 0,-1.1275 0.7675,-2.115 2.00875,-2.115 0.3825,0 0.7675,0.1425 1.00375,0.31875 l -0.23125,0.49125 c -0.1875,-0.11875 -0.48375,-0.21875 -0.755,-0.21875 -0.7575,0 -1.27125,0.59625 -1.27125,1.535 0,0.98125 0.59125,1.56125 1.20125,1.56125 0.1875,0 0.3475,-0.025 0.495,-0.1 l 0,-1.27125 0.70875,0 z m 18.5625,-7.595 0.70375,0 0,3.58 1.4,0 0,0.555 -2.10375,0 0,-4.135 z m -2.11375,0 0.59125,0 1.31625,4.135 -0.79125,0 -0.325,-1.12875 -1.24625,0 -0.36125,1.12875 -0.61375,0 1.43,-4.135 z m -0.27125,2.5 0.95625,0 c -0.15375,-0.545 -0.30125,-1.04625 -0.4675,-1.685 -0.15875,0.63875 -0.325,1.14 -0.48875,1.685 z m -1.34875,1.635 -0.51375,0 c -0.67375,-0.95 -1.34125,-1.89625 -2.01,-2.965 l -0.004,2.965 -0.5675,0 0,-4.135 0.5125,0 c 0.675,0.945 1.3425,1.885 2.00375,2.9475 l 0.0125,-2.9475 0.56625,0 0,4.135 z m -5.2825,0.0712 c -1.08125,0 -1.755,-0.9625 -1.755,-2.1975 0,-1.15875 0.745,-2.08 1.755,-2.08 1.01125,0 1.75625,0.92125 1.75625,2.08 0,1.235 -0.67375,2.1975 -1.75625,2.1975 z m 0,-0.59 c 0.74,0 0.99875,-0.81625 0.99875,-1.6075 0,-0.7625 -0.295,-1.48875 -0.99875,-1.48875 -0.7025,0 -0.9975,0.72625 -0.9975,1.48875 0,0.79125 0.26,1.6075 0.9975,1.6075 z m -2.185,0.51875 -0.70327,0 0,-4.13587 0.70327,0 0,4.13587 z m -2.73,0 0,-3.58 -1.08625,0 0,-0.555 2.8825,0 0,0.555 -1.0875,0 0,3.58 -0.70875,0 z m -2.57625,-4.135 0.59125,0 1.31625,4.135 -0.79,0 -0.325,-1.12875 -1.24625,0 -0.36125,1.12875 -0.61375,0 1.42875,-4.135 z m -0.27125,2.5 0.95625,0 c -0.1525,-0.545 -0.3,-1.04625 -0.46625,-1.685 -0.16,0.63875 -0.325,1.14 -0.49,1.685 z m -1.3475,1.635 -0.51375,0 c -0.67375,-0.95 -1.34125,-1.89625 -2.00875,-2.965 l -0.005,2.965 -0.5675,0 0,-4.135 0.5125,0 c 0.675,0.945 1.34125,1.885 2.00375,2.9475 l 0.0125,-2.9475 0.56625,0 0,4.135 z m 16.1475,6.59 0.70125,0 0,3.57125 1.39625,0 0,0.5525 -2.0975,0 0,-4.12375"
         id="path2468"
         style="fill:#4f4c4c;fill-opacity:1;fill-rule:nonzero;stroke:none" />
    </g>
  </g>
</svg>
