<?xml version="1.0" encoding="UTF-8" ?>
<!DOCTYPE svg PUBLIC "-//W3C//DTD SVG 1.1//EN" "http://www.w3.org/Graphics/SVG/1.1/DTD/svg11.dtd">
<svg width="800pt" height="150pt" viewBox="0 0 800 150" version="1.1" xmlns="http://www.w3.org/2000/svg">
<g id="#f57c14ff">
<path fill="#f57c14" opacity="1.00" d=" M 90.22 45.09 C 86.91 36.02 95.63 25.77 105.10 27.39 C 114.03 28.26 119.75 38.90 115.70 46.89 C 113.61 52.05 106.79 54.34 106.09 60.06 C 108.39 65.51 115.54 68.25 115.66 74.85 C 115.72 90.05 115.89 105.27 115.56 120.47 C 107.33 120.25 99.10 120.45 90.87 120.36 C 90.82 105.91 90.87 91.46 90.83 77.01 C 90.80 74.76 91.21 72.48 92.26 70.48 C 94.33 66.43 99.06 64.36 100.60 59.99 C 99.54 53.70 91.59 51.43 90.22 45.09 Z" />
<path fill="#f57c14" opacity="1.00" d=" M 311.21 39.01 C 311.01 31.98 318.24 26.16 325.06 27.26 C 331.14 28.02 336.21 33.83 335.69 40.03 C 335.62 66.84 335.90 93.66 335.55 120.46 C 327.42 120.24 319.29 120.49 311.17 120.33 C 311.24 93.22 311.17 66.11 311.21 39.01 Z" />
<path fill="#f57c14" opacity="1.00" d=" M 446.40 39.06 C 446.34 31.73 454.02 25.66 461.15 27.41 C 466.93 28.54 471.21 34.12 471.10 39.98 C 471.27 56.33 470.93 72.65 471.14 88.99 C 471.45 100.21 466.17 111.56 456.65 117.72 C 443.26 127.02 423.05 123.93 413.22 110.84 C 403.68 99.10 404.17 80.72 414.36 69.54 C 422.06 60.53 434.89 56.53 446.38 59.39 C 446.41 52.61 446.33 45.83 446.40 39.06 M 436.12 77.14 C 431.95 80.34 431.15 86.09 430.82 90.99 C 431.24 95.85 432.02 101.72 436.42 104.66 C 439.11 106.57 442.49 104.19 443.76 101.69 C 447.28 95.14 447.33 86.75 443.89 80.17 C 442.50 77.46 439.01 75.02 436.12 77.14 Z" />
<path fill="#f57c14" opacity="1.00" d=" M 22.23 87.99 C 23.15 71.54 38.60 57.73 55.04 58.48 C 71.39 58.42 86.11 72.62 86.64 88.96 C 86.74 99.43 86.70 109.91 86.66 120.39 C 78.51 120.40 70.37 120.30 62.22 120.44 C 61.87 110.61 62.25 100.77 62.03 90.93 C 61.93 87.26 60.94 83.44 58.40 80.67 C 56.87 79.24 54.44 78.08 52.43 79.28 C 48.54 81.19 47.06 85.89 46.71 89.94 C 46.54 100.09 46.74 110.24 46.62 120.39 C 38.49 120.38 30.35 120.34 22.21 120.42 C 22.14 109.61 22.09 98.80 22.23 87.99 Z" />
<path fill="#f57c14" opacity="1.00" d=" M 222.84 63.80 C 226.39 57.68 235.63 56.21 240.96 60.83 C 245.48 64.32 247.01 71.13 244.14 76.14 C 241.01 81.89 237.95 87.69 234.56 93.30 C 238.95 100.33 243.78 107.07 248.15 114.12 C 249.93 116.84 247.11 120.65 244.05 120.37 C 237.60 120.45 231.14 120.24 224.69 120.47 C 220.02 114.52 216.66 107.56 211.68 101.90 C 211.53 108.08 211.81 114.27 211.53 120.45 C 203.39 120.27 195.25 120.45 187.12 120.35 C 187.19 103.56 187.05 86.77 187.18 69.99 C 187.22 63.81 192.92 58.56 198.99 58.47 C 204.97 58.17 210.85 62.89 211.54 68.89 C 211.84 73.36 211.50 77.83 211.70 82.30 C 213.22 81.50 213.84 79.83 214.66 78.44 C 217.36 73.55 220.07 68.66 222.84 63.80 Z" />
<path fill="#f57c14" opacity="1.00" d=" M 567.63 58.82 C 575.17 57.67 583.09 59.27 589.57 63.31 C 599.24 69.26 605.43 80.56 604.79 91.96 C 604.68 107.17 592.17 121.11 577.06 122.79 C 571.85 123.15 566.45 123.18 561.52 121.25 C 552.57 118.05 545.25 110.71 542.10 101.74 C 538.96 93.11 539.75 83.12 544.28 75.12 C 549.02 66.48 557.88 60.29 567.63 58.82 M 570.16 77.02 C 565.85 80.18 564.97 86.00 564.88 91.00 C 565.06 95.92 565.90 101.81 570.39 104.69 C 573.18 106.61 576.50 104.01 577.75 101.46 C 581.18 94.99 581.15 86.78 577.81 80.28 C 576.48 77.56 573.10 75.07 570.16 77.02 Z" />
<path fill="#f57c14" opacity="1.00" d=" M 122.29 76.49 C 128.63 63.22 144.72 55.60 158.99 59.44 C 172.16 62.42 182.22 74.43 183.57 87.76 C 175.29 87.85 167.01 87.88 158.74 87.75 C 158.20 83.64 156.87 78.88 152.97 76.76 C 149.85 75.43 147.11 78.19 145.80 80.74 C 142.73 87.25 142.75 95.35 146.23 101.70 C 147.48 104.20 150.81 106.50 153.49 104.65 C 157.03 102.28 158.23 97.81 158.83 93.82 C 167.05 93.78 175.27 93.80 183.49 93.81 C 182.62 103.92 176.71 113.43 167.93 118.55 C 160.93 123.15 152.15 123.71 144.09 122.43 C 135.12 120.42 127.21 114.32 122.83 106.27 C 117.85 97.18 117.67 85.75 122.29 76.49 Z" />
<path fill="#f57c14" opacity="1.00" d=" M 249.00 75.02 C 254.45 64.99 265.59 58.38 277.02 58.46 C 289.75 58.17 302.57 66.55 306.42 78.87 C 307.90 83.86 308.65 89.18 307.73 94.34 C 295.02 94.49 282.28 93.98 269.60 94.59 C 270.77 98.19 271.73 102.57 275.35 104.51 C 279.94 106.18 283.80 101.53 285.01 97.60 C 292.50 97.12 300.05 97.31 307.57 97.49 C 306.25 106.29 301.27 114.76 293.21 118.92 C 286.52 123.00 278.38 123.66 270.78 122.50 C 260.31 120.50 251.18 112.83 247.24 102.95 C 243.56 94.01 244.20 83.42 249.00 75.02 M 270.35 85.08 C 274.91 84.80 279.49 84.76 284.07 84.85 C 283.32 81.17 281.35 76.39 277.01 76.10 C 272.80 76.89 271.09 81.36 270.35 85.08 Z" />
<path fill="#f57c14" opacity="1.00" d=" M 359.31 61.08 C 363.47 60.05 367.67 58.84 372.00 58.84 C 378.82 58.45 385.14 61.75 390.51 65.63 C 392.28 67.81 394.41 69.64 396.51 71.49 C 400.07 77.05 402.82 83.31 403.17 89.98 C 403.40 94.11 402.27 98.13 401.31 102.11 C 401.31 102.26 401.32 102.57 401.32 102.73 L 401.32 103.07 C 397.11 113.04 387.88 120.84 377.13 122.63 C 371.36 123.22 365.31 123.31 359.85 121.11 C 349.24 117.19 341.09 107.32 339.40 96.12 C 336.71 81.80 345.32 65.71 359.31 61.08 M 369.08 76.93 C 365.78 79.13 364.46 83.18 363.85 86.92 C 363.34 91.92 363.57 97.29 366.22 101.71 C 367.40 103.79 369.57 105.71 372.13 105.34 C 376.29 103.75 378.08 99.04 378.63 94.94 C 379.20 89.39 379.03 83.14 375.40 78.58 C 373.99 76.67 371.22 75.60 369.08 76.93 Z" />
<path fill="#f57c14" opacity="1.00" d=" M 486.40 65.26 C 495.37 58.12 508.29 56.41 518.80 61.02 C 526.12 64.32 532.55 70.29 535.12 78.04 C 537.16 83.22 537.04 88.87 536.75 94.33 C 524.17 94.30 511.59 94.37 499.01 94.29 C 499.34 98.15 500.79 102.44 504.30 104.50 C 508.86 106.19 512.82 101.62 513.94 97.65 C 521.44 96.99 529.01 97.46 536.53 97.40 C 535.34 104.83 531.92 112.31 525.58 116.70 C 517.80 122.83 507.19 124.31 497.72 122.02 C 486.78 119.15 477.77 110.06 474.99 99.10 C 471.48 86.89 476.32 72.92 486.40 65.26 M 503.29 77.61 L 502.67 77.69 C 500.96 79.78 499.86 82.29 499.41 84.95 C 503.95 84.88 508.49 84.75 513.04 84.84 C 512.48 82.73 511.96 80.52 510.68 78.73 C 510.70 78.14 510.74 76.97 510.76 76.38 C 508.80 76.23 506.84 76.09 504.89 75.97 C 504.35 76.51 503.81 77.06 503.29 77.61 Z" />
<path fill="#f57c14" opacity="1.00" d=" M 619.69 65.67 C 629.98 57.09 645.72 56.07 657.01 63.30 C 667.12 69.37 673.02 81.28 672.57 92.95 C 672.47 102.11 672.67 111.27 672.47 120.42 C 664.20 120.32 655.92 120.40 647.65 120.38 C 647.59 110.25 647.72 100.12 647.60 89.99 C 647.47 85.20 645.05 79.73 639.99 78.52 C 634.97 79.79 632.52 85.16 632.42 89.96 C 632.24 100.09 632.40 110.24 632.35 120.38 C 624.12 120.37 615.89 120.38 607.66 120.37 C 607.67 110.28 607.58 100.18 607.70 90.09 C 607.91 80.72 612.32 71.49 619.69 65.67 Z" />
</g>
<g id="#141111ff">
<path fill="#141111" opacity="1.00" d=" M 687.34 55.34 C 717.37 55.15 747.42 55.13 777.45 55.35 C 777.37 56.92 777.63 58.57 777.15 60.10 C 747.35 60.40 717.53 60.06 687.73 60.27 C 687.38 58.65 687.30 56.99 687.34 55.34 Z" />
<path fill="#141111" opacity="1.00" d=" M 687.41 65.22 C 691.35 65.01 695.31 64.94 699.25 65.29 C 699.16 70.89 699.07 76.50 699.29 82.10 C 704.73 81.89 710.18 81.86 715.63 81.99 C 715.51 76.41 715.57 70.83 715.52 65.25 C 719.42 64.66 723.36 65.18 727.29 65.11 C 727.34 80.17 727.26 95.23 727.33 110.29 C 723.42 110.56 719.51 110.43 715.61 110.38 C 715.49 104.18 715.54 97.99 715.62 91.79 C 710.14 91.84 704.66 91.75 699.19 91.85 C 699.16 97.99 699.18 104.14 699.18 110.28 C 695.29 110.56 691.39 110.42 687.50 110.40 C 687.16 95.35 687.35 80.28 687.41 65.22 Z" />
<path fill="#141111" opacity="1.00" d=" M 737.31 65.13 C 744.21 64.79 751.14 64.78 758.04 65.18 C 765.56 65.49 772.56 70.45 775.47 77.38 C 780.83 88.82 775.65 104.91 763.23 109.13 C 754.83 111.58 745.97 109.97 737.36 110.44 C 737.30 95.34 737.41 80.24 737.31 65.13 M 749.29 74.69 C 749.24 83.21 749.19 91.74 749.32 100.26 C 754.09 100.49 759.82 100.26 762.90 95.98 C 766.97 90.27 766.71 80.76 760.50 76.62 C 757.19 74.45 753.06 74.69 749.29 74.69 Z" />
<path fill="#141111" opacity="1.00" d=" M 687.38 115.36 C 717.40 115.28 747.42 115.29 777.45 115.36 C 777.41 116.96 777.37 118.56 777.34 120.17 C 747.40 120.19 717.46 120.15 687.51 120.18 C 687.41 118.57 687.37 116.97 687.38 115.36 Z" />
</g>
</svg>
