<?xml version="1.0" encoding="UTF-8" standalone="yes"?>
<svg xmlns="http://www.w3.org/2000/svg" xmlns:xlink="http://www.w3.org/1999/xlink" width="301.3333333333333px" height="106.66666666666666px" viewBox="0 0 226 80" version="1.1">
  <g id="surface1">
    <path style=" stroke:none;fill-rule:nonzero;fill:rgb(99.215686%,81.568627%,1.960784%);fill-opacity:1;" d="M 7.953125 71.609375 L 47.179688 71.609375 L 47.179688 8.234375 L 7.953125 8.234375 Z M 55.160156 79.597656 L 0 79.597656 L 0 0.246094 L 55.160156 0.246094 Z M 55.160156 79.597656 "/>
    <path style=" stroke:none;fill-rule:evenodd;fill:rgb(13.72549%,12.156863%,12.54902%);fill-opacity:1;" d="M 210.515625 63.757812 L 211.445312 63.757812 C 214.136719 63.757812 215.425781 65.164062 215.425781 68.214844 C 215.425781 71.902344 214.058594 73.367188 211.773438 73.367188 L 210.515625 73.367188 Z M 185.21875 57.441406 L 224.675781 57.441406 L 224.675781 79.6875 L 185.21875 79.6875 Z M 195.414062 66.660156 L 195.414062 60.695312 L 191.894531 60.695312 L 191.894531 76.429688 L 195.414062 76.429688 L 195.414062 69.722656 L 199.964844 69.722656 L 199.964844 76.429688 L 203.484375 76.429688 L 203.484375 60.695312 L 199.964844 60.695312 L 199.964844 66.660156 Z M 210.949219 60.695312 L 207.003906 60.695312 L 207.003906 76.429688 L 212.003906 76.429688 C 216.695312 76.429688 219.027344 72.996094 219.027344 68.566406 C 219.027344 64.085938 216.914062 60.695312 210.949219 60.695312 "/>
    <path style=" stroke:none;fill-rule:nonzero;fill:rgb(100%,100%,100%);fill-opacity:1;" d="M 195.414062 66.660156 L 199.964844 66.660156 L 199.964844 60.695312 L 203.484375 60.695312 L 203.484375 76.429688 L 199.964844 76.429688 L 199.964844 69.722656 L 195.414062 69.722656 L 195.414062 76.429688 L 191.894531 76.429688 L 191.894531 60.695312 L 195.414062 60.695312 Z M 210.949219 60.695312 C 216.914062 60.695312 219.027344 64.085938 219.027344 68.566406 C 219.027344 72.996094 216.695312 76.429688 212.003906 76.429688 L 207.003906 76.429688 L 207.003906 60.695312 Z M 210.515625 63.757812 L 210.515625 73.367188 L 211.773438 73.367188 C 214.058594 73.367188 215.425781 71.902344 215.425781 68.214844 C 215.425781 65.164062 214.136719 63.757812 211.445312 63.757812 L 210.515625 63.757812 "/>
    <path style=" stroke:none;fill-rule:nonzero;fill:rgb(30.980392%,29.803922%,29.803922%);fill-opacity:1;" d="M 167.003906 60.558594 L 160.746094 60.558594 L 160.746094 66.59375 L 166.878906 66.59375 L 166.878906 69.546875 L 160.746094 69.546875 L 160.746094 76.65625 L 168.132812 76.65625 L 168.132812 79.605469 L 156.988281 79.605469 L 156.988281 57.601562 L 167.003906 57.601562 Z M 154.046875 79.605469 L 151.324219 79.605469 C 147.75 74.550781 144.214844 69.519531 140.667969 63.832031 L 140.640625 79.605469 L 137.632812 79.605469 L 137.632812 57.601562 L 140.363281 57.601562 C 143.929688 62.632812 147.464844 67.632812 150.976562 73.289062 L 151.035156 57.601562 L 154.046875 57.601562 Z M 134.09375 79.605469 L 131.375 79.605469 C 127.804688 74.550781 124.261719 69.519531 120.722656 63.832031 L 120.695312 79.605469 L 117.6875 79.605469 L 117.6875 57.601562 L 120.410156 57.601562 C 123.976562 62.632812 127.523438 67.632812 131.03125 73.289062 L 131.089844 57.601562 L 134.09375 57.601562 Z M 106.230469 57.601562 L 109.363281 57.601562 L 116.34375 79.605469 L 112.15625 79.605469 L 110.425781 73.609375 L 103.820312 73.609375 L 101.90625 79.605469 L 98.652344 79.605469 Z M 104.796875 70.902344 L 109.871094 70.902344 C 109.046875 68.007812 108.261719 65.332031 107.386719 61.945312 C 106.542969 65.332031 105.664062 68.007812 104.796875 70.902344 Z M 97.300781 79.605469 L 93.550781 79.605469 L 93.550781 69.015625 L 85.753906 69.015625 L 85.753906 79.605469 L 82.027344 79.605469 L 82.027344 57.601562 L 85.753906 57.601562 L 85.753906 66.058594 L 93.550781 66.058594 L 93.550781 57.667969 L 97.300781 57.667969 Z M 79.675781 61.597656 C 78.769531 61.03125 77.261719 60.363281 75.820312 60.363281 C 72.007812 60.363281 69.21875 63.546875 69.21875 68.546875 C 69.21875 73.761719 72.289062 76.84375 75.921875 76.84375 C 77.355469 76.84375 78.710938 76.371094 79.675781 75.742188 L 80.71875 78.476562 C 79.582031 79.257812 77.582031 79.984375 75.761719 79.984375 C 69.3125 79.984375 65.242188 74.957031 65.242188 68.480469 C 65.242188 62.472656 69.28125 57.222656 75.820312 57.222656 C 77.769531 57.222656 79.582031 58.042969 80.863281 58.917969 Z M 224.796875 32.933594 C 223.894531 32.359375 222.386719 31.699219 220.945312 31.699219 C 217.113281 31.699219 214.308594 34.878906 214.308594 39.890625 C 214.308594 45.125 217.390625 48.21875 221.039062 48.21875 C 222.480469 48.21875 223.835938 47.746094 224.796875 47.113281 L 225.839844 49.851562 C 224.703125 50.648438 222.699219 51.367188 220.878906 51.367188 C 214.410156 51.367188 210.332031 46.324219 210.332031 39.828125 C 210.332031 33.8125 214.382812 28.542969 220.945312 28.542969 C 222.890625 28.542969 224.703125 29.371094 226 30.246094 Z M 207.855469 50.988281 L 204.121094 50.988281 L 204.121094 28.925781 L 207.855469 28.925781 Z M 200.5 50.988281 L 196.734375 50.988281 L 196.734375 40.371094 L 188.917969 40.371094 L 188.917969 50.988281 L 185.183594 50.988281 L 185.183594 28.925781 L 188.917969 28.925781 L 188.917969 37.40625 L 196.734375 37.40625 L 196.734375 28.992188 L 200.5 28.992188 Z M 174.132812 50.988281 L 170.367188 50.988281 L 170.367188 28.925781 L 176.238281 28.925781 C 180.441406 28.925781 183.046875 31.003906 183.046875 35.292969 C 183.046875 39.007812 180.316406 42.671875 175.824219 42.671875 L 174.132812 42.671875 Z M 174.132812 39.914062 C 174.425781 39.890625 175.328125 39.863281 175.699219 39.828125 C 177.492188 39.734375 179.28125 38.40625 179.28125 35.445312 C 179.28125 33.179688 178.03125 31.886719 175.824219 31.886719 L 174.132812 31.886719 Z M 159.035156 28.925781 L 162.167969 28.925781 L 169.175781 50.988281 L 164.964844 50.988281 L 163.238281 44.972656 L 156.617188 44.972656 L 154.695312 50.988281 L 151.4375 50.988281 Z M 157.585938 42.257812 L 162.675781 42.257812 C 161.855469 39.363281 161.074219 36.679688 160.195312 33.28125 C 159.347656 36.679688 158.46875 39.363281 157.585938 42.257812 Z M 151.375 50.988281 L 147.066406 50.988281 L 143.519531 42.671875 L 141.832031 42.671875 L 141.832031 50.988281 L 138.058594 50.988281 L 138.058594 28.925781 L 143.929688 28.925781 C 148.140625 28.925781 150.746094 31.003906 150.746094 35.292969 C 150.746094 37.941406 149.363281 40.554688 146.953125 41.851562 Z M 141.832031 31.886719 L 141.832031 39.921875 C 142.144531 39.890625 143.019531 39.863281 143.398438 39.828125 C 145.1875 39.734375 146.980469 38.410156 146.980469 35.449219 C 146.980469 33.179688 145.722656 31.886719 143.492188 31.886719 Z M 134.613281 40.902344 L 134.613281 50.011719 C 132.597656 50.800781 130.492188 51.367188 128.359375 51.367188 C 121.890625 51.367188 117.808594 46.324219 117.808594 39.828125 C 117.808594 33.8125 121.890625 28.542969 128.480469 28.542969 C 130.527344 28.542969 132.566406 29.304688 133.820312 30.246094 L 132.597656 32.867188 C 131.589844 32.234375 130.015625 31.699219 128.574219 31.699219 C 124.5625 31.699219 121.824219 34.878906 121.824219 39.890625 C 121.824219 45.125 124.960938 48.21875 128.203125 48.21875 C 129.203125 48.21875 130.046875 48.085938 130.839844 47.683594 L 130.839844 40.902344 Z M 107.199219 51.367188 C 101.453125 51.367188 97.875 46.230469 97.875 39.640625 C 97.875 33.464844 101.824219 28.542969 107.199219 28.542969 C 112.566406 28.542969 116.523438 33.464844 116.523438 39.640625 C 116.523438 46.230469 112.945312 51.367188 107.199219 51.367188 Z M 107.199219 48.21875 C 111.117188 48.21875 112.5 43.871094 112.5 39.640625 C 112.5 35.582031 110.933594 31.699219 107.199219 31.699219 C 103.460938 31.699219 101.890625 35.582031 101.890625 39.640625 C 101.890625 43.871094 103.273438 48.21875 107.199219 48.21875 Z M 95.582031 31.886719 L 89.300781 31.886719 L 89.300781 37.941406 L 95.457031 37.941406 L 95.457031 40.902344 L 89.300781 40.902344 L 89.300781 48.027344 L 96.710938 48.027344 L 96.710938 50.988281 L 85.53125 50.988281 L 85.53125 28.925781 L 95.582031 28.925781 Z M 82.113281 40.902344 L 82.113281 50.011719 C 80.101562 50.800781 78 51.367188 75.863281 51.367188 C 69.398438 51.367188 65.320312 46.324219 65.320312 39.828125 C 65.320312 33.8125 69.398438 28.542969 75.996094 28.542969 C 78.027344 28.542969 80.074219 29.304688 81.328125 30.246094 L 80.101562 32.867188 C 79.101562 32.234375 77.527344 31.699219 76.085938 31.699219 C 72.0625 31.699219 69.332031 34.878906 69.332031 39.890625 C 69.332031 45.125 72.472656 48.21875 75.714844 48.21875 C 76.710938 48.21875 77.5625 48.085938 78.347656 47.683594 L 78.347656 40.902344 Z M 180.746094 0.378906 L 184.488281 0.378906 L 184.488281 19.480469 L 191.925781 19.480469 L 191.925781 22.441406 L 180.746094 22.441406 Z M 169.515625 0.378906 L 172.65625 0.378906 L 179.652344 22.441406 L 175.445312 22.441406 L 173.71875 16.417969 L 167.097656 16.417969 L 165.179688 22.441406 L 161.917969 22.441406 Z M 168.074219 13.71875 L 173.15625 13.71875 C 172.339844 10.8125 171.554688 8.136719 170.671875 4.730469 C 169.828125 8.136719 168.945312 10.8125 168.074219 13.71875 Z M 160.90625 22.441406 L 158.175781 22.441406 C 154.597656 17.375 151.050781 12.324219 147.496094 6.621094 L 147.476562 22.441406 L 144.460938 22.441406 L 144.460938 0.378906 L 147.183594 0.378906 C 150.769531 5.421875 154.316406 10.4375 157.832031 16.105469 L 157.898438 0.378906 L 160.90625 0.378906 Z M 132.839844 22.820312 C 127.09375 22.820312 123.511719 17.6875 123.511719 11.097656 C 123.511719 4.914062 127.472656 0 132.839844 0 C 138.210938 0 142.171875 4.914062 142.171875 11.097656 C 142.171875 17.6875 138.589844 22.820312 132.839844 22.820312 Z M 132.839844 19.675781 C 136.769531 19.675781 138.144531 15.320312 138.144531 11.097656 C 138.144531 7.027344 136.578125 3.15625 132.839844 3.15625 C 129.105469 3.15625 127.539062 7.027344 127.539062 11.097656 C 127.539062 15.320312 128.917969 19.675781 132.839844 19.675781 Z M 121.226562 22.441406 L 117.492188 22.441406 L 117.492188 0.375 L 121.226562 0.375 Z M 106.722656 22.441406 L 106.722656 3.339844 L 100.949219 3.339844 L 100.949219 0.378906 L 116.265625 0.378906 L 116.265625 3.339844 L 110.488281 3.339844 L 110.488281 22.441406 Z M 93.03125 0.378906 L 96.171875 0.378906 L 103.167969 22.441406 L 98.96875 22.441406 L 97.242188 16.417969 L 90.621094 16.417969 L 88.703125 22.441406 L 85.441406 22.441406 Z M 91.589844 13.71875 L 96.671875 13.71875 C 95.863281 10.8125 95.078125 8.136719 94.195312 4.726562 C 93.34375 8.136719 92.46875 10.8125 91.589844 13.71875 Z M 84.429688 22.441406 L 81.699219 22.441406 C 78.121094 17.375 74.574219 12.324219 71.027344 6.621094 L 71 22.441406 L 67.984375 22.441406 L 67.984375 0.378906 L 70.707031 0.378906 C 74.292969 5.421875 77.835938 10.4375 81.355469 16.105469 L 81.421875 0.378906 L 84.429688 0.378906 Z M 170.234375 57.601562 L 173.960938 57.601562 L 173.960938 76.65625 L 181.378906 76.65625 L 181.378906 79.605469 L 170.234375 79.605469 L 170.234375 57.601562 "/>
  </g>
</svg>