<?xml version="1.0" encoding="UTF-8" ?>
<!DOCTYPE svg PUBLIC "-//W3C//DTD SVG 1.1//EN" "http://www.w3.org/Graphics/SVG/1.1/DTD/svg11.dtd">
<svg width="765pt" height="380pt" viewBox="0 0 765 380" version="1.1" xmlns="http://www.w3.org/2000/svg">
<g id="#ffffffff">
<path fill="#ffffff" opacity="1.00" d=" M 142.42 201.80 C 142.39 164.73 142.35 127.66 142.44 90.59 C 156.51 90.66 170.59 90.68 184.67 90.59 C 184.84 127.66 184.78 164.74 184.70 201.81 C 170.62 202.23 156.50 202.26 142.42 201.80 Z" />
<path fill="#ffffff" opacity="1.00" d=" M 210.70 90.77 C 224.87 90.58 239.04 90.66 253.22 90.64 C 253.12 127.70 253.26 164.76 253.15 201.82 C 239.03 202.44 224.91 201.83 210.79 201.92 C 210.79 164.87 210.96 127.82 210.70 90.77 Z" />
</g>
<g id="#711890ff">
<path fill="#711890" opacity="1.00" d=" M 191.37 13.59 C 228.26 11.34 265.64 26.19 291.45 52.58 C 310.44 71.60 323.46 96.53 328.04 123.02 C 332.88 148.57 329.45 175.44 319.35 199.33 C 307.10 227.90 284.55 251.92 256.74 265.81 C 239.48 274.61 220.23 279.04 200.95 280.00 C 190.25 280.44 179.63 278.75 169.12 276.92 C 145.51 271.64 123.35 259.90 105.87 243.16 C 80.83 219.41 65.48 185.57 64.70 151.04 C 62.97 111.87 80.00 72.40 109.54 46.64 C 131.92 26.71 161.35 14.39 191.37 13.59 M 142.42 201.80 C 156.50 202.26 170.62 202.23 184.70 201.81 C 184.78 164.74 184.84 127.66 184.67 90.59 C 170.59 90.68 156.51 90.66 142.44 90.59 C 142.35 127.66 142.39 164.73 142.42 201.80 M 210.70 90.77 C 210.96 127.82 210.79 164.87 210.79 201.92 C 224.91 201.83 239.03 202.44 253.15 201.82 C 253.26 164.76 253.12 127.70 253.22 90.64 C 239.04 90.66 224.87 90.58 210.70 90.77 Z" />
<path fill="#711890" opacity="1.00" d=" M 582.39 115.47 C 610.58 115.26 638.78 115.45 666.97 115.38 C 683.70 114.98 700.80 117.15 716.25 123.87 C 730.79 130.17 743.26 141.69 749.61 156.33 C 755.72 168.91 756.74 183.29 755.89 197.06 C 754.96 213.57 751.23 230.66 741.01 244.05 C 731.97 256.38 717.75 263.95 703.08 267.41 C 692.57 269.74 681.77 270.79 671.00 270.70 C 641.48 270.79 611.95 270.62 582.43 270.80 C 582.28 219.03 582.36 167.25 582.39 115.47 M 627.91 144.91 C 627.77 176.88 627.83 208.85 627.87 240.83 C 640.24 240.82 652.61 240.89 664.97 240.80 C 678.81 240.42 693.89 235.94 702.21 224.12 C 711.07 212.52 711.62 197.09 710.45 183.13 C 709.09 172.98 705.01 162.72 697.02 155.98 C 687.23 147.34 673.64 145.07 661.00 144.86 C 649.96 144.87 638.93 144.81 627.91 144.91 Z" />
<path fill="#711890" opacity="1.00" d=" M 386.80 115.50 C 402.05 115.22 417.30 115.48 432.55 115.36 C 432.92 136.10 432.34 156.84 432.87 177.57 C 458.15 177.54 483.42 177.62 508.70 177.52 C 508.88 156.81 508.73 136.10 508.76 115.39 C 523.88 115.47 539.02 115.20 554.14 115.53 C 554.51 145.03 554.20 174.54 554.31 204.05 C 554.14 226.26 554.63 248.48 554.06 270.68 C 538.94 270.78 523.82 270.75 508.71 270.66 C 508.70 250.00 509.06 229.33 508.52 208.69 C 483.20 208.72 457.88 208.59 432.56 208.75 C 432.73 229.39 432.75 250.05 432.55 270.69 C 417.30 270.68 402.05 270.84 386.81 270.66 C 386.79 218.94 386.80 167.22 386.80 115.50 Z" />
<path fill="#711890" opacity="1.00" d=" M 9.79 312.46 C 39.54 312.30 69.29 312.39 99.04 312.41 C 103.68 312.25 108.65 313.63 111.74 317.28 C 116.44 322.53 117.30 330.29 115.61 336.91 C 113.86 343.64 107.67 348.47 101.03 349.83 C 99.40 350.35 97.47 350.36 96.13 351.56 C 103.95 358.11 112.28 364.06 120.07 370.67 C 109.03 370.83 98.00 370.56 86.96 370.65 C 85.72 370.54 84.18 370.85 83.31 369.71 C 76.81 363.21 70.96 356.06 64.48 349.57 C 60.47 348.53 56.21 349.03 52.10 348.95 C 52.31 356.19 51.98 363.42 51.87 370.66 C 37.85 370.70 23.82 370.70 9.80 370.56 C 9.84 351.19 9.86 331.83 9.79 312.46 M 52.15 323.70 C 52.14 328.35 52.16 333.00 52.08 337.66 C 57.06 337.94 62.05 337.83 67.03 337.84 C 69.46 337.86 72.06 337.72 74.08 336.18 C 78.79 333.35 77.75 324.56 71.96 323.80 C 65.37 323.34 58.75 323.66 52.15 323.70 Z" />
<path fill="#711890" opacity="1.00" d=" M 147.04 312.39 C 181.31 312.40 215.57 312.35 249.84 312.41 C 249.94 316.03 249.92 319.66 249.94 323.29 C 239.84 323.19 229.75 323.20 219.65 323.31 C 219.43 339.06 219.66 354.82 219.57 370.58 C 205.48 370.82 191.39 370.56 177.31 370.63 C 177.37 354.91 177.25 339.20 177.37 323.48 C 167.23 322.95 157.06 323.42 146.91 323.24 C 146.92 319.62 146.90 316.00 147.04 312.39 Z" />
<path fill="#711890" opacity="1.00" d=" M 291.63 312.42 C 305.70 312.28 319.77 312.42 333.84 312.43 C 333.93 328.17 333.72 343.93 333.94 359.67 C 351.48 359.65 369.03 359.52 386.57 359.73 C 386.59 363.36 386.58 366.99 386.49 370.62 C 354.87 370.62 323.25 370.76 291.63 370.57 C 291.66 351.19 291.66 331.81 291.63 312.42 Z" />
</g>
</svg>
