<?xml version="1.0" encoding="UTF-8" ?>
<!DOCTYPE svg PUBLIC "-//W3C//DTD SVG 1.1//EN" "http://www.w3.org/Graphics/SVG/1.1/DTD/svg11.dtd">
<svg width="1550pt" height="130pt" viewBox="0 0 1550 130" version="1.1" xmlns="http://www.w3.org/2000/svg">
<g id="#ffffffff">
<path fill="#ffffff" opacity="1.00" d=" M 948.30 22.48 C 956.19 22.48 964.08 22.49 971.98 22.48 C 975.24 22.49 978.57 22.30 981.76 23.20 C 988.68 25.03 994.35 30.89 995.87 37.90 C 997.33 44.01 995.63 50.77 991.42 55.43 C 987.59 59.77 981.79 62.13 976.05 62.00 C 966.79 62.00 957.54 62.01 948.29 61.99 C 948.31 48.82 948.29 35.65 948.30 22.48 Z" />
</g>
<g id="#370505ff">
<path fill="#370505" opacity="1.00" d=" M 60.98 0.00 L 68.35 0.00 C 83.85 1.19 99.66 6.97 110.35 18.61 C 115.44 23.89 117.17 32.22 114.11 38.96 C 110.08 47.95 97.71 52.00 89.26 46.80 C 83.69 43.28 78.58 38.64 72.00 37.06 C 58.48 33.51 43.48 41.85 38.73 54.86 C 34.07 66.37 38.30 80.47 48.26 87.77 C 56.56 94.17 68.57 95.73 77.98 90.86 C 82.79 88.62 86.67 84.85 91.37 82.42 C 99.78 78.45 110.97 82.60 114.81 91.07 C 117.30 96.79 116.60 103.81 112.96 108.90 C 102.45 122.48 84.89 128.70 68.24 130.00 L 60.74 130.00 C 46.80 129.00 33.16 123.64 22.64 114.39 C 9.23 102.91 0.96 85.84 0.00 68.23 L 0.00 61.56 C 1.03 44.51 8.86 27.99 21.60 16.58 C 32.33 6.74 46.48 0.95 60.98 0.00 Z" />
<path fill="#370505" opacity="1.00" d=" M 372.57 6.73 C 384.99 4.37 398.14 6.01 409.55 11.48 C 423.10 17.90 434.07 29.57 439.52 43.55 C 445.20 57.91 444.89 74.53 438.59 88.64 C 433.08 101.20 423.04 111.65 410.78 117.79 C 398.58 123.95 384.26 125.73 370.91 122.78 C 355.34 119.45 341.33 109.57 332.93 96.05 C 324.59 82.86 321.94 66.28 325.68 51.14 C 330.87 28.85 350.07 10.77 372.57 6.73 M 375.42 28.65 C 361.59 31.89 350.52 43.94 348.06 57.87 C 344.95 72.75 351.95 89.12 364.98 96.99 C 376.05 104.01 391.01 104.12 402.16 97.23 C 414.48 89.97 421.72 75.19 420.03 61.00 C 418.86 49.52 412.09 38.76 402.18 32.82 C 394.28 27.96 384.43 26.43 375.42 28.65 Z" />
<path fill="#370505" opacity="1.00" d=" M 752.39 6.59 C 762.91 4.15 774.66 5.23 783.86 11.20 C 789.71 15.10 794.87 20.93 796.18 28.00 C 796.42 31.28 792.83 32.40 790.34 33.18 C 788.04 33.76 785.50 35.24 783.19 34.01 C 781.23 32.49 780.38 30.02 778.82 28.16 C 769.74 16.46 747.43 19.47 742.99 34.02 C 740.41 41.83 745.42 50.29 752.74 53.28 C 761.17 56.59 770.43 57.38 778.69 61.21 C 787.77 65.16 795.94 72.58 798.35 82.47 C 802.26 97.59 793.59 114.37 779.38 120.54 C 764.66 127.03 745.60 125.71 733.51 114.43 C 728.39 109.53 724.36 103.10 723.28 96.01 C 722.64 92.66 726.21 91.20 728.81 90.54 C 731.50 89.78 735.11 88.14 737.31 90.74 C 739.57 94.22 740.83 98.32 743.65 101.45 C 747.60 106.30 753.92 108.62 760.05 108.70 C 767.08 108.97 774.73 106.85 779.26 101.15 C 784.09 95.30 784.42 85.56 778.51 80.31 C 772.29 74.67 763.59 73.72 755.85 71.40 C 745.63 68.87 735.32 63.58 729.86 54.19 C 722.80 42.01 725.83 25.49 735.77 15.80 C 740.31 11.26 746.17 8.12 752.39 6.59 Z" />
<path fill="#370505" opacity="1.00" d=" M 1221.43 6.60 C 1230.01 4.59 1239.27 4.97 1247.47 8.32 C 1255.32 11.59 1262.21 17.95 1264.89 26.15 C 1265.80 28.27 1265.03 30.95 1262.82 31.86 C 1260.01 33.05 1257.07 34.16 1254.04 34.50 C 1251.36 34.49 1250.39 31.64 1249.07 29.83 C 1241.45 17.27 1220.02 18.39 1213.20 31.16 C 1209.96 37.12 1211.27 45.10 1216.36 49.61 C 1221.85 54.93 1229.86 55.46 1236.84 57.55 C 1247.43 60.09 1258.25 65.22 1264.17 74.79 C 1271.46 86.52 1268.73 102.68 1259.48 112.55 C 1252.52 120.19 1242.14 124.05 1231.95 124.34 C 1223.49 124.72 1214.75 122.97 1207.57 118.32 C 1200.33 113.65 1194.80 106.25 1192.66 97.88 C 1192.09 95.91 1192.02 93.22 1194.08 92.08 C 1196.84 90.67 1199.90 89.80 1202.97 89.30 C 1206.45 89.01 1207.56 92.81 1208.85 95.27 C 1211.38 100.92 1215.98 105.90 1222.09 107.59 C 1229.74 109.72 1238.64 109.02 1245.18 104.22 C 1250.99 100.00 1253.65 91.81 1250.95 85.09 C 1248.84 79.98 1243.70 77.02 1238.73 75.25 C 1229.74 72.19 1220.02 71.08 1211.69 66.28 C 1204.90 62.54 1199.09 56.59 1196.64 49.13 C 1192.99 38.13 1195.95 25.32 1203.83 16.86 C 1208.49 11.77 1214.74 8.24 1221.43 6.60 Z" />
<path fill="#370505" opacity="1.00" d=" M 190.10 8.11 C 193.87 6.85 197.98 7.21 201.89 7.50 C 205.34 7.81 208.04 10.31 209.87 13.08 C 219.98 27.87 230.06 42.67 240.17 57.46 C 250.70 42.22 261.09 26.88 271.66 11.68 C 273.70 8.58 277.42 7.21 281.02 7.30 C 284.89 7.31 289.34 6.75 292.56 9.39 C 295.10 11.44 295.43 14.93 295.42 17.97 C 295.42 49.33 295.42 80.69 295.42 112.06 C 295.49 115.29 294.83 119.01 291.91 120.90 C 288.39 123.13 283.95 122.59 280.00 122.34 C 275.77 122.06 272.48 118.15 272.63 113.96 C 272.50 92.37 272.63 70.77 272.57 49.18 C 265.75 59.16 259.03 69.21 252.20 79.18 C 250.38 81.82 248.16 84.61 244.85 85.30 C 241.79 85.84 238.60 85.86 235.55 85.28 C 232.19 84.52 229.99 81.63 228.15 78.94 C 221.41 69.06 214.73 59.13 208.01 49.24 C 207.99 70.15 208.01 91.06 208.00 111.98 C 208.00 114.92 207.57 118.23 205.19 120.27 C 202.45 122.78 198.46 122.59 194.99 122.54 C 192.20 122.53 189.15 121.91 187.24 119.68 C 185.37 117.63 185.11 114.70 185.13 112.05 C 185.15 80.36 185.11 48.66 185.14 16.97 C 184.98 13.41 186.48 9.38 190.10 8.11 Z" />
<path fill="#370505" opacity="1.00" d=" M 474.71 9.74 C 477.12 7.34 480.76 7.28 483.94 7.26 C 495.63 7.30 507.32 7.21 519.01 7.30 C 528.62 7.34 538.08 11.42 544.80 18.26 C 552.74 26.20 556.86 37.98 554.98 49.12 C 553.30 58.93 546.83 67.43 538.60 72.81 C 543.92 77.43 547.80 83.59 549.86 90.33 C 551.89 97.19 553.87 104.07 555.85 110.94 C 556.73 113.82 557.11 117.41 554.80 119.74 C 551.53 123.18 546.39 122.57 542.09 122.50 C 538.51 122.59 535.04 120.33 533.91 116.90 C 531.56 109.73 529.87 102.35 527.58 95.16 C 524.99 87.44 517.95 81.17 509.71 80.44 C 504.83 80.12 499.94 80.38 495.07 80.29 C 495.03 91.20 495.10 102.11 495.04 113.01 C 495.15 116.60 493.48 120.57 489.87 121.80 C 486.37 122.89 482.58 122.67 478.99 122.23 C 474.97 121.62 472.16 117.77 472.25 113.80 C 472.13 81.86 472.24 49.92 472.19 17.98 C 472.15 15.09 472.46 11.83 474.71 9.74 M 495.06 28.80 C 495.06 38.81 495.06 48.82 495.06 58.82 C 502.98 58.75 510.90 58.95 518.82 58.73 C 525.87 58.33 531.79 52.04 532.06 45.03 C 532.91 37.00 526.24 28.91 518.03 28.84 C 510.38 28.74 502.72 28.83 495.06 28.80 Z" />
<path fill="#370505" opacity="1.00" d=" M 596.58 7.37 C 614.71 7.15 632.85 7.30 650.99 7.29 C 654.92 7.14 659.42 8.95 660.46 13.10 C 661.22 17.08 661.60 21.73 659.33 25.31 C 657.28 28.34 653.32 28.85 649.96 28.80 C 636.91 28.81 623.86 28.79 610.81 28.81 C 610.79 37.36 610.79 45.90 610.81 54.45 C 622.22 54.49 633.64 54.41 645.06 54.49 C 648.99 54.34 653.09 56.83 653.80 60.89 C 654.23 64.51 654.64 68.54 652.87 71.89 C 651.14 74.98 647.35 75.95 644.05 75.92 C 632.97 75.98 621.89 75.91 610.80 75.95 C 610.80 84.32 610.80 92.68 610.80 101.05 C 624.58 101.09 638.36 101.02 652.14 101.08 C 655.99 100.96 660.22 103.02 661.17 107.03 C 661.79 110.56 661.99 114.39 660.76 117.82 C 659.34 121.29 655.38 122.59 651.91 122.53 C 634.25 122.57 616.60 122.53 598.95 122.55 C 595.84 122.60 592.35 122.21 590.18 119.72 C 588.00 117.38 587.92 113.98 587.93 110.97 C 588.01 79.29 587.83 47.60 588.01 15.92 C 587.82 11.21 591.90 7.24 596.58 7.37 Z" />
<path fill="#370505" opacity="1.00" d=" M 829.50 13.13 C 829.25 10.01 831.77 7.11 834.96 7.20 C 854.34 7.07 873.72 7.12 893.10 7.18 C 896.30 6.95 899.15 9.66 898.98 12.90 C 899.51 16.62 898.81 22.21 893.99 22.38 C 877.83 22.62 861.65 22.41 845.49 22.49 C 845.48 34.08 845.47 45.67 845.49 57.27 C 858.69 57.28 871.89 57.24 885.09 57.28 C 887.57 57.17 890.41 58.20 891.23 60.77 C 891.89 63.28 891.80 65.96 891.40 68.50 C 890.96 71.07 888.37 72.66 885.90 72.58 C 872.43 72.65 858.96 72.58 845.49 72.61 C 845.47 84.16 845.47 95.71 845.49 107.26 C 861.33 107.27 877.17 107.26 893.02 107.27 C 895.26 107.20 897.94 107.76 899.03 109.98 C 900.19 112.49 899.85 115.41 899.64 118.08 C 899.33 120.87 896.60 122.70 893.92 122.57 C 874.29 122.62 854.65 122.66 835.03 122.55 C 831.53 122.71 829.09 119.34 829.47 116.05 C 829.47 81.74 829.41 47.44 829.50 13.13 Z" />
<path fill="#370505" opacity="1.00" d=" M 932.31 13.11 C 932.08 9.89 934.75 7.01 938.02 7.19 C 951.01 7.06 964.01 7.16 977.00 7.14 C 986.18 7.02 995.38 10.56 1001.96 17.00 C 1011.45 26.01 1015.37 40.70 1010.86 53.10 C 1007.80 61.78 1000.89 68.78 992.60 72.64 C 999.34 77.38 1004.55 84.26 1006.88 92.20 C 1009.24 100.43 1011.87 108.60 1013.90 116.92 C 1014.83 119.90 1011.94 122.71 1009.04 122.56 C 1005.43 122.51 1000.34 123.63 998.35 119.66 C 995.48 111.56 993.74 103.07 990.93 94.94 C 987.62 85.73 979.09 78.48 969.22 77.57 C 962.26 77.10 955.27 77.47 948.30 77.36 C 948.26 90.57 948.36 103.79 948.25 117.00 C 948.40 119.90 945.97 122.52 943.06 122.52 C 940.22 122.56 937.02 123.12 934.51 121.50 C 932.37 120.09 932.25 117.30 932.26 114.99 C 932.31 81.03 932.19 47.07 932.31 13.11 M 948.30 22.48 C 948.29 35.65 948.31 48.82 948.29 61.99 C 957.54 62.01 966.79 62.00 976.05 62.00 C 981.79 62.13 987.59 59.77 991.42 55.43 C 995.63 50.77 997.33 44.01 995.87 37.90 C 994.35 30.89 988.68 25.03 981.76 23.20 C 978.57 22.30 975.24 22.49 971.98 22.48 C 964.08 22.49 956.19 22.48 948.30 22.48 Z" />
<path fill="#370505" opacity="1.00" d=" M 1049.40 7.58 C 1052.36 6.89 1055.57 6.87 1058.53 7.63 C 1061.14 8.48 1062.03 11.44 1061.93 13.92 C 1061.94 47.96 1061.96 82.00 1061.92 116.03 C 1062.03 118.57 1060.92 121.49 1058.25 122.22 C 1055.40 122.83 1052.36 122.81 1049.52 122.21 C 1046.85 121.49 1045.69 118.54 1045.89 116.00 C 1045.88 81.99 1045.89 47.99 1045.88 13.98 C 1045.69 11.43 1046.68 8.36 1049.40 7.58 Z" />
<path fill="#370505" opacity="1.00" d=" M 1096.55 13.04 C 1096.25 9.91 1098.90 7.11 1102.03 7.20 C 1120.68 7.03 1139.33 7.20 1157.99 7.12 C 1160.56 7.06 1163.84 7.19 1165.22 9.81 C 1166.42 12.36 1166.14 15.35 1165.85 18.08 C 1165.46 20.89 1162.63 22.68 1159.92 22.46 C 1144.13 22.53 1128.34 22.45 1112.55 22.49 C 1112.54 34.08 1112.53 45.67 1112.55 57.26 C 1126.03 57.32 1139.53 57.17 1153.01 57.33 C 1155.75 57.25 1158.40 59.31 1158.56 62.14 C 1158.71 64.71 1159.02 67.50 1157.92 69.92 C 1156.80 72.06 1154.24 72.70 1152.01 72.61 C 1138.86 72.61 1125.70 72.60 1112.55 72.61 C 1112.54 84.16 1112.54 95.71 1112.55 107.26 C 1128.38 107.28 1144.21 107.26 1160.04 107.26 C 1162.49 107.13 1165.41 107.97 1166.32 110.52 C 1167.13 113.22 1167.05 116.19 1166.46 118.92 C 1165.74 121.69 1162.68 122.76 1160.10 122.60 C 1140.76 122.57 1121.42 122.68 1102.09 122.55 C 1099.03 122.67 1096.35 120.01 1096.56 116.93 C 1096.48 82.30 1096.50 47.67 1096.55 13.04 Z" />
<path fill="#370505" opacity="1.00" d=" M 1328.67 13.08 C 1328.32 9.58 1331.51 6.84 1334.88 7.15 C 1338.70 6.62 1344.47 7.32 1344.57 12.32 C 1344.82 26.98 1344.59 41.66 1344.68 56.32 C 1363.47 56.33 1382.26 56.33 1401.05 56.33 C 1401.10 41.85 1401.00 27.38 1401.10 12.91 C 1401.03 10.45 1402.57 7.89 1405.11 7.42 C 1407.86 6.99 1410.75 6.90 1413.49 7.55 C 1416.21 8.32 1417.25 11.36 1417.06 13.93 C 1417.05 47.96 1417.06 81.99 1417.06 116.02 C 1417.27 118.62 1416.01 121.60 1413.28 122.27 C 1410.48 122.79 1407.55 122.81 1404.78 122.25 C 1402.08 121.56 1400.89 118.61 1401.06 116.06 C 1401.03 101.20 1401.09 86.34 1401.04 71.48 C 1382.25 71.49 1363.46 71.47 1344.67 71.49 C 1344.62 86.64 1344.76 101.79 1344.61 116.93 C 1344.70 119.65 1342.66 122.29 1339.87 122.47 C 1337.23 122.66 1334.48 122.89 1331.94 122.09 C 1329.44 121.24 1328.49 118.44 1328.64 116.03 C 1328.66 81.71 1328.61 47.39 1328.67 13.08 Z" />
<path fill="#370505" opacity="1.00" d=" M 1451.02 9.04 C 1452.69 6.98 1455.58 7.18 1457.98 7.11 C 1470.65 7.18 1483.32 7.08 1495.99 7.17 C 1508.93 7.31 1522.01 11.64 1531.78 20.27 C 1543.51 30.34 1549.22 45.82 1550.00 60.98 L 1550.00 68.54 C 1549.35 81.52 1545.33 94.71 1536.63 104.60 C 1526.61 116.30 1511.14 122.44 1495.90 122.57 C 1482.31 122.59 1468.71 122.70 1455.12 122.52 C 1451.61 122.67 1449.26 119.23 1449.66 115.96 C 1449.61 82.30 1449.67 48.65 1449.63 15.00 C 1449.70 12.97 1449.56 10.66 1451.02 9.04 M 1465.67 22.49 C 1465.67 50.75 1465.66 79.00 1465.68 107.26 C 1475.45 107.25 1485.22 107.31 1494.99 107.23 C 1503.34 107.10 1511.79 104.70 1518.48 99.58 C 1525.75 94.12 1530.45 85.73 1532.28 76.90 C 1534.14 67.86 1533.94 58.33 1531.39 49.45 C 1528.90 40.83 1523.44 32.95 1515.73 28.24 C 1509.27 24.17 1501.56 22.48 1493.99 22.49 C 1484.55 22.47 1475.11 22.48 1465.67 22.49 Z" />
</g>
</svg>
