<?xml version="1.0" encoding="UTF-8" standalone="yes"?>
<svg xmlns="http://www.w3.org/2000/svg" xmlns:xlink="http://www.w3.org/1999/xlink" width="414.66666666666663px" height="106.66666666666666px" viewBox="0 0 311 80" version="1.1">
  <defs>
    <clipPath id="clip1">
      <path d="M 264 0 L 310.972656 0 L 310.972656 55 L 264 55 Z M 264 0 "/>
    </clipPath>
    <clipPath id="clip2">
      <path d="M 0 49 L 29 49 L 29 79.929688 L 0 79.929688 Z M 0 49 "/>
    </clipPath>
    <clipPath id="clip3">
      <path d="M 32 49 L 56 49 L 56 79.929688 L 32 79.929688 Z M 32 49 "/>
    </clipPath>
    <clipPath id="clip4">
      <path d="M 57 49 L 82 49 L 82 79.929688 L 57 79.929688 Z M 57 49 "/>
    </clipPath>
    <clipPath id="clip5">
      <path d="M 146 49 L 154 49 L 154 79.929688 L 146 79.929688 Z M 146 49 "/>
    </clipPath>
    <clipPath id="clip6">
      <path d="M 157 49 L 185 49 L 185 79.929688 L 157 79.929688 Z M 157 49 "/>
    </clipPath>
    <clipPath id="clip7">
      <path d="M 188 49 L 214 49 L 214 79.929688 L 188 79.929688 Z M 188 49 "/>
    </clipPath>
    <clipPath id="clip8">
      <path d="M 84 49 L 112 49 L 112 79.929688 L 84 79.929688 Z M 84 49 "/>
    </clipPath>
    <clipPath id="clip9">
      <path d="M 114 49 L 140 49 L 140 79.929688 L 114 79.929688 Z M 114 49 "/>
    </clipPath>
    <clipPath id="clip10">
      <path d="M 217 49 L 243 49 L 243 79.929688 L 217 79.929688 Z M 217 49 "/>
    </clipPath>
    <clipPath id="clip11">
      <path d="M 246 49 L 269 49 L 269 79.929688 L 246 79.929688 Z M 246 49 "/>
    </clipPath>
  </defs>
  <g id="surface1">
    <g clip-path="url(#clip1)" clip-rule="nonzero">
      <path style=" stroke:none;fill-rule:nonzero;fill:rgb(94.117647%,23.529412%,12.156863%);fill-opacity:1;" d="M 282.316406 0.164062 L 264.046875 0.164062 L 264.046875 41.464844 L 267.800781 41.464844 L 267.800781 3.4375 L 282.316406 3.4375 C 296.609375 3.4375 306.980469 13.386719 306.980469 27.101562 C 306.980469 41.105469 296.839844 50.773438 282.316406 50.773438 L 275.941406 50.773438 L 275.941406 54.046875 L 282.316406 54.046875 C 298.921875 54.046875 310.972656 42.714844 310.972656 27.101562 C 310.972656 11.425781 298.921875 0.164062 282.316406 0.164062 "/>
    </g>
    <g clip-path="url(#clip2)" clip-rule="nonzero">
      <path style=" stroke:none;fill-rule:nonzero;fill:rgb(13.72549%,12.156863%,12.54902%);fill-opacity:1;" d="M 0 64.644531 L 0 64.558594 C 0 56.113281 6.566406 49.191406 15.546875 49.191406 C 20.886719 49.191406 24.105469 50.640625 27.195312 53.265625 L 23.085938 58.234375 C 20.796875 56.324219 18.765625 55.21875 15.332031 55.21875 C 10.589844 55.21875 6.816406 59.421875 6.816406 64.472656 L 6.816406 64.558594 C 6.816406 69.996094 10.546875 73.984375 15.800781 73.984375 C 18.175781 73.984375 20.289062 73.390625 21.945312 72.203125 L 21.945312 67.957031 L 15.378906 67.957031 L 15.378906 62.308594 L 28.253906 62.308594 L 28.253906 75.214844 C 25.203125 77.804688 21.011719 79.929688 15.589844 79.929688 C 6.351562 79.929688 0 73.433594 0 64.644531 "/>
    </g>
    <g clip-path="url(#clip3)" clip-rule="nonzero">
      <path style=" stroke:none;fill-rule:nonzero;fill:rgb(13.72549%,12.156863%,12.54902%);fill-opacity:1;" d="M 32.460938 49.703125 L 54.828125 49.703125 L 54.828125 55.515625 L 38.941406 55.515625 L 38.941406 61.546875 L 52.921875 61.546875 L 52.921875 67.363281 L 38.941406 67.363281 L 38.941406 73.601562 L 55.039062 73.601562 L 55.039062 79.417969 L 32.460938 79.417969 L 32.460938 49.703125 "/>
    </g>
    <g clip-path="url(#clip4)" clip-rule="nonzero">
      <path style=" stroke:none;fill-rule:nonzero;fill:rgb(13.72549%,12.156863%,12.54902%);fill-opacity:1;" d="M 57.867188 75.089844 L 61.722656 70.460938 C 64.390625 72.667969 67.1875 74.070312 70.574219 74.070312 C 73.246094 74.070312 74.855469 73.007812 74.855469 71.269531 L 74.855469 71.183594 C 74.855469 69.527344 73.839844 68.679688 68.878906 67.402344 C 62.90625 65.875 59.050781 64.222656 59.050781 58.320312 L 59.050781 58.234375 C 59.050781 52.84375 63.375 49.277344 69.433594 49.277344 C 73.753906 49.277344 77.4375 50.636719 80.445312 53.054688 L 77.058594 57.980469 C 74.429688 56.15625 71.84375 55.050781 69.347656 55.050781 C 66.84375 55.050781 65.535156 56.199219 65.535156 57.640625 L 65.535156 57.726562 C 65.535156 59.675781 66.804688 60.316406 71.933594 61.632812 C 77.945312 63.203125 81.335938 65.367188 81.335938 70.546875 L 81.335938 70.628906 C 81.335938 76.53125 76.84375 79.84375 70.449219 79.84375 C 65.957031 79.84375 61.425781 78.273438 57.867188 75.089844 "/>
    </g>
    <g clip-path="url(#clip5)" clip-rule="nonzero">
      <path style=" stroke:none;fill-rule:nonzero;fill:rgb(13.72549%,12.156863%,12.54902%);fill-opacity:1;" d="M 146.691406 79.417969 L 153.21875 79.417969 L 153.21875 49.703125 L 146.691406 49.703125 Z M 146.691406 79.417969 "/>
    </g>
    <g clip-path="url(#clip6)" clip-rule="nonzero">
      <path style=" stroke:none;fill-rule:nonzero;fill:rgb(13.72549%,12.156863%,12.54902%);fill-opacity:1;" d="M 172.808594 73.902344 C 167.722656 73.902344 164.207031 69.65625 164.207031 64.558594 L 164.207031 64.476562 C 164.207031 59.378906 167.808594 55.222656 172.808594 55.222656 C 175.773438 55.222656 178.101562 56.496094 180.390625 58.574219 L 184.542969 53.777344 C 181.785156 51.0625 178.441406 49.191406 172.851562 49.191406 C 163.738281 49.191406 157.386719 56.113281 157.386719 64.558594 L 157.386719 64.644531 C 157.386719 73.179688 163.871094 79.929688 172.59375 79.929688 C 178.316406 79.929688 181.707031 77.890625 184.753906 74.625 L 180.601562 70.421875 C 178.273438 72.542969 176.195312 73.902344 172.808594 73.902344 "/>
    </g>
    <g clip-path="url(#clip7)" clip-rule="nonzero">
      <path style=" stroke:none;fill-rule:nonzero;fill:rgb(13.72549%,12.156863%,12.54902%);fill-opacity:1;" d="M 207.46875 61.460938 L 195.441406 61.460938 L 195.441406 49.703125 L 188.917969 49.703125 L 188.917969 79.417969 L 195.441406 79.417969 L 195.441406 67.488281 L 207.46875 67.488281 L 207.46875 79.417969 L 213.996094 79.417969 L 213.996094 49.703125 L 207.46875 49.703125 L 207.46875 61.460938 "/>
    </g>
    <g clip-path="url(#clip8)" clip-rule="nonzero">
      <path style=" stroke:none;fill-rule:nonzero;fill:rgb(13.72549%,12.156863%,12.54902%);fill-opacity:1;" d="M 84.070312 64.644531 L 84.070312 64.558594 C 84.070312 56.113281 90.425781 49.191406 99.535156 49.191406 C 105.125 49.191406 108.472656 51.0625 111.226562 53.777344 L 107.078125 58.574219 C 104.789062 56.496094 102.457031 55.21875 99.492188 55.21875 C 94.492188 55.21875 90.890625 59.378906 90.890625 64.472656 L 90.890625 64.558594 C 90.890625 69.65625 94.40625 73.902344 99.492188 73.902344 C 102.878906 73.902344 104.957031 72.542969 107.285156 70.421875 L 111.4375 74.625 C 108.386719 77.890625 105 79.929688 99.28125 79.929688 C 90.554688 79.929688 84.070312 73.179688 84.070312 64.644531 "/>
    </g>
    <g clip-path="url(#clip9)" clip-rule="nonzero">
      <path style=" stroke:none;fill-rule:nonzero;fill:rgb(13.72549%,12.156863%,12.54902%);fill-opacity:1;" d="M 114.898438 49.703125 L 121.421875 49.703125 L 121.421875 61.460938 L 133.453125 61.460938 L 133.453125 49.703125 L 139.976562 49.703125 L 139.976562 79.417969 L 133.453125 79.417969 L 133.453125 67.488281 L 121.421875 67.488281 L 121.421875 79.417969 L 114.898438 79.417969 L 114.898438 49.703125 "/>
    </g>
    <g clip-path="url(#clip10)" clip-rule="nonzero">
      <path style=" stroke:none;fill-rule:nonzero;fill:rgb(13.72549%,12.156863%,12.54902%);fill-opacity:1;" d="M 217.855469 55.730469 L 226.875 55.730469 L 226.875 79.417969 L 233.398438 79.417969 L 233.398438 55.730469 L 242.421875 55.730469 L 242.421875 49.703125 L 217.855469 49.703125 L 217.855469 55.730469 "/>
    </g>
    <g clip-path="url(#clip11)" clip-rule="nonzero">
      <path style=" stroke:none;fill-rule:nonzero;fill:rgb(13.72549%,12.156863%,12.54902%);fill-opacity:1;" d="M 252.5 67.363281 L 266.480469 67.363281 L 266.480469 61.546875 L 252.5 61.546875 L 252.5 55.515625 L 268.386719 55.515625 L 268.386719 49.703125 L 246.019531 49.703125 L 246.019531 79.417969 L 268.597656 79.417969 L 268.597656 73.601562 L 252.5 73.601562 L 252.5 67.363281 "/>
    </g>
    <path style=" stroke:none;fill-rule:nonzero;fill:rgb(94.117647%,23.529412%,12.156863%);fill-opacity:1;" d="M 210.613281 25.402344 L 245.765625 25.402344 L 245.765625 41.460938 L 249.515625 41.460938 L 249.515625 0.164062 L 245.765625 0.164062 L 245.765625 22.050781 L 210.613281 22.050781 L 210.613281 0.164062 L 206.863281 0.164062 L 206.863281 41.460938 L 210.613281 41.460938 L 210.613281 25.402344 "/>
    <path style=" stroke:none;fill-rule:nonzero;fill:rgb(94.117647%,23.529412%,12.156863%);fill-opacity:1;" d="M 129.835938 32.929688 L 77.539062 32.929688 C 76.882812 32.929688 76.261719 32.671875 75.789062 32.261719 L 75.789062 32.929688 L 46.238281 32.929688 L 46.238281 28.933594 L 48.070312 28.933594 L 48.070312 12.621094 L 47.371094 12.621094 L 47.371094 19.597656 C 47.371094 21.039062 46.226562 22.253906 44.789062 22.253906 L 37.203125 22.253906 L 37.203125 28.933594 L 39.003906 28.933594 L 39.003906 32.929688 L 27.675781 32.929688 L 27.675781 32.320312 C 27.226562 32.695312 26.65625 32.929688 26.011719 32.929688 L 13.574219 32.929688 C 12.136719 32.929688 10.960938 31.71875 10.960938 30.273438 L 10.960938 24.347656 L 18.53125 24.347656 L 18.53125 28.933594 L 20.929688 28.933594 L 20.929688 22.253906 L 10.960938 22.253906 L 10.960938 11.144531 C 10.960938 9.738281 12.136719 8.5625 13.539062 8.5625 L 25.984375 8.5625 C 26.617188 8.5625 27.1875 8.78125 27.644531 9.148438 L 27.644531 8.5625 L 44.789062 8.5625 C 45.328125 8.5625 45.824219 8.722656 46.238281 9 L 46.238281 8.5625 L 75.789062 8.5625 L 75.789062 9.207031 C 76.238281 8.808594 76.820312 8.5625 77.46875 8.5625 L 89.945312 8.5625 C 90.640625 8.5625 91.269531 8.839844 91.730469 9.289062 L 91.730469 8.5625 L 121.792969 8.5625 L 121.792969 12.621094 L 119.769531 12.621094 L 119.769531 28.933594 L 122.328125 28.933594 L 122.328125 24.347656 L 129.835938 24.347656 Z M 1.511719 39.808594 L 137.191406 39.808594 L 137.191406 0 L 1.511719 0 L 1.511719 39.808594 "/>
    <path style=" stroke:none;fill-rule:nonzero;fill:rgb(94.117647%,23.529412%,12.156863%);fill-opacity:1;" d="M 37.207031 18.1875 L 39.769531 18.1875 L 39.769531 12.621094 L 37.207031 12.621094 Z M 37.207031 18.1875 "/>
    <path style=" stroke:none;fill-rule:nonzero;fill:rgb(94.117647%,23.529412%,12.156863%);fill-opacity:1;" d="M 84.921875 28.933594 L 84.921875 22.253906 L 82.359375 22.253906 L 82.359375 28.933594 L 84.921875 28.933594 "/>
    <path style=" stroke:none;fill-rule:nonzero;fill:rgb(94.117647%,23.529412%,12.156863%);fill-opacity:1;" d="M 108.367188 15.992188 L 103.691406 15.992188 L 103.691406 12.621094 L 101.035156 12.621094 L 101.035156 18.191406 L 108.386719 18.191406 L 108.386719 22.253906 L 101.035156 22.253906 L 101.035156 28.933594 L 103.691406 28.933594 L 103.691406 24.347656 L 111.230469 24.347656 L 111.230469 28.933594 L 112.128906 28.933594 L 112.128906 12.621094 L 111.230469 12.621094 L 111.230469 15.992188 L 108.367188 15.992188 "/>
    <path style=" stroke:none;fill-rule:nonzero;fill:rgb(94.117647%,23.529412%,12.156863%);fill-opacity:1;" d="M 89.664062 15.992188 L 84.761719 15.992188 L 84.761719 12.621094 L 82.359375 12.621094 L 82.359375 18.191406 L 92.5625 18.191406 L 92.5625 28.933594 L 93.5 28.933594 L 93.5 12.621094 L 92.527344 12.621094 L 92.527344 15.992188 L 89.664062 15.992188 "/>
    <path style=" stroke:none;fill-rule:nonzero;fill:rgb(94.117647%,23.529412%,12.156863%);fill-opacity:1;" d="M 71.113281 15.992188 L 68.25 15.992188 L 68.25 12.621094 L 65.589844 12.621094 L 65.589844 18.191406 L 72.945312 18.191406 L 72.945312 22.253906 L 65.589844 22.253906 L 65.589844 28.933594 L 68.25 28.933594 L 68.25 24.347656 L 74.890625 24.347656 L 74.890625 15.992188 L 71.113281 15.992188 "/>
    <path style=" stroke:none;fill-rule:nonzero;fill:rgb(94.117647%,23.529412%,12.156863%);fill-opacity:1;" d="M 55.640625 28.933594 L 58.054688 28.933594 L 58.054688 12.621094 L 55.640625 12.621094 L 55.640625 28.933594 "/>
    <path style=" stroke:none;fill-rule:nonzero;fill:rgb(94.117647%,23.529412%,12.156863%);fill-opacity:1;" d="M 25.734375 15.992188 L 20.929688 15.992188 L 20.929688 12.621094 L 18.53125 12.621094 L 18.53125 18.191406 L 28.59375 18.191406 L 28.59375 28.933594 L 29.539062 28.933594 L 29.539062 12.621094 L 28.59375 12.621094 L 28.59375 15.992188 L 25.734375 15.992188 "/>
    <path style=" stroke:none;fill-rule:nonzero;fill:rgb(13.72549%,12.156863%,12.54902%);fill-opacity:1;" d="M 34.34375 28.933594 L 36.140625 28.933594 L 36.140625 32.929688 L 39.007812 32.929688 L 39.007812 28.933594 L 37.207031 28.933594 L 37.207031 22.253906 L 34.34375 22.253906 L 34.34375 28.933594 "/>
    <path style=" stroke:none;fill-rule:nonzero;fill:rgb(13.72549%,12.156863%,12.54902%);fill-opacity:1;" d="M 70.078125 22.253906 L 72.945312 22.253906 L 72.945312 18.1875 L 70.078125 18.1875 Z M 70.078125 22.253906 "/>
    <path style=" stroke:none;fill-rule:nonzero;fill:rgb(13.72549%,12.156863%,12.54902%);fill-opacity:1;" d="M 25.734375 11.113281 L 25.734375 15.992188 L 28.59375 15.992188 L 28.59375 12.621094 L 27.644531 12.621094 L 27.644531 9.148438 C 27.191406 8.78125 26.617188 8.5625 25.984375 8.5625 L 23.117188 8.5625 C 24.558594 8.5625 25.734375 9.675781 25.734375 11.113281 "/>
    <path style=" stroke:none;fill-rule:nonzero;fill:rgb(13.72549%,12.156863%,12.54902%);fill-opacity:1;" d="M 15.667969 28.933594 L 18.53125 28.933594 L 18.53125 24.347656 L 15.667969 24.347656 Z M 15.667969 28.933594 "/>
    <path style=" stroke:none;fill-rule:nonzero;fill:rgb(13.72549%,12.156863%,12.54902%);fill-opacity:1;" d="M 15.667969 18.1875 L 18.53125 18.1875 L 18.53125 12.621094 L 15.667969 12.621094 Z M 15.667969 18.1875 "/>
    <path style=" stroke:none;fill-rule:nonzero;fill:rgb(13.72549%,12.156863%,12.54902%);fill-opacity:1;" d="M 28.59375 28.933594 L 28.59375 18.1875 L 25.730469 18.1875 L 25.730469 30.375 C 25.730469 31.78125 24.585938 32.929688 23.152344 32.929688 L 26.015625 32.929688 C 26.652344 32.929688 27.226562 32.695312 27.675781 32.320312 L 27.675781 28.933594 L 28.59375 28.933594 "/>
    <path style=" stroke:none;fill-rule:nonzero;fill:rgb(13.72549%,12.156863%,12.54902%);fill-opacity:1;" d="M 46.238281 9 C 45.828125 8.71875 45.332031 8.5625 44.789062 8.5625 L 41.921875 8.5625 C 43.363281 8.5625 44.507812 9.707031 44.507812 11.144531 L 44.507812 19.597656 C 44.507812 21.039062 43.363281 22.253906 41.921875 22.253906 L 44.789062 22.253906 C 46.226562 22.253906 47.371094 21.039062 47.371094 19.597656 L 47.371094 12.621094 L 46.238281 12.621094 L 46.238281 9 "/>
    <path style=" stroke:none;fill-rule:nonzero;fill:rgb(13.72549%,12.156863%,12.54902%);fill-opacity:1;" d="M 34.34375 18.1875 L 37.207031 18.1875 L 37.207031 12.621094 L 34.34375 12.621094 Z M 34.34375 18.1875 "/>
    <path style=" stroke:none;fill-rule:nonzero;fill:rgb(13.72549%,12.156863%,12.54902%);fill-opacity:1;" d="M 55.640625 28.933594 L 55.640625 12.621094 L 56.289062 12.621094 L 56.289062 8.5625 L 54.574219 8.5625 L 54.574219 12.621094 L 52.777344 12.621094 L 52.777344 28.933594 L 54.574219 28.933594 L 54.574219 32.929688 L 56.289062 32.929688 L 56.289062 28.933594 L 55.640625 28.933594 "/>
    <path style=" stroke:none;fill-rule:nonzero;fill:rgb(13.72549%,12.156863%,12.54902%);fill-opacity:1;" d="M 74.890625 15.992188 L 74.890625 11.179688 C 74.890625 10.390625 75.238281 9.6875 75.789062 9.207031 L 75.789062 8.5625 L 72.925781 8.5625 L 72.925781 15.992188 L 74.890625 15.992188 "/>
    <path style=" stroke:none;fill-rule:nonzero;fill:rgb(13.72549%,12.156863%,12.54902%);fill-opacity:1;" d="M 62.726562 18.1875 L 65.589844 18.1875 L 65.589844 12.621094 L 62.726562 12.621094 Z M 62.726562 18.1875 "/>
    <path style=" stroke:none;fill-rule:nonzero;fill:rgb(13.72549%,12.156863%,12.54902%);fill-opacity:1;" d="M 62.726562 28.933594 L 65.589844 28.933594 L 65.589844 22.253906 L 62.726562 22.253906 Z M 62.726562 28.933594 "/>
    <path style=" stroke:none;fill-rule:nonzero;fill:rgb(13.72549%,12.156863%,12.54902%);fill-opacity:1;" d="M 74.890625 30.375 L 74.890625 24.347656 L 72.925781 24.347656 L 72.925781 32.929688 L 75.789062 32.929688 L 75.789062 32.261719 C 75.246094 31.792969 74.890625 31.121094 74.890625 30.375 "/>
    <path style=" stroke:none;fill-rule:nonzero;fill:rgb(13.72549%,12.156863%,12.54902%);fill-opacity:1;" d="M 79.5 12.621094 L 79.5 28.933594 L 82.359375 28.933594 L 82.359375 22.253906 L 81.035156 22.253906 L 81.035156 18.191406 L 82.359375 18.191406 L 82.359375 12.621094 L 79.5 12.621094 "/>
    <path style=" stroke:none;fill-rule:nonzero;fill:rgb(13.72549%,12.156863%,12.54902%);fill-opacity:1;" d="M 89.664062 11.179688 L 89.664062 15.992188 L 92.527344 15.992188 L 92.527344 12.621094 L 91.730469 12.621094 L 91.730469 9.289062 C 91.269531 8.839844 90.644531 8.5625 89.945312 8.5625 L 87.082031 8.5625 C 88.519531 8.5625 89.664062 9.738281 89.664062 11.179688 "/>
    <path style=" stroke:none;fill-rule:nonzero;fill:rgb(13.72549%,12.156863%,12.54902%);fill-opacity:1;" d="M 92.5625 28.933594 L 92.5625 18.1875 L 89.695312 18.1875 L 89.695312 32.929688 L 91.730469 32.929688 L 91.730469 28.933594 L 92.5625 28.933594 "/>
    <path style=" stroke:none;fill-rule:nonzero;fill:rgb(13.72549%,12.156863%,12.54902%);fill-opacity:1;" d="M 111.230469 15.992188 L 111.230469 12.621094 L 110.300781 12.621094 L 110.300781 8.5625 L 108.367188 8.5625 L 108.367188 15.992188 L 111.230469 15.992188 "/>
    <path style=" stroke:none;fill-rule:nonzero;fill:rgb(13.72549%,12.156863%,12.54902%);fill-opacity:1;" d="M 98.171875 28.933594 L 101.035156 28.933594 L 101.035156 22.253906 L 98.171875 22.253906 Z M 98.171875 28.933594 "/>
    <path style=" stroke:none;fill-rule:nonzero;fill:rgb(13.72549%,12.156863%,12.54902%);fill-opacity:1;" d="M 105.527344 22.253906 L 108.386719 22.253906 L 108.386719 18.1875 L 105.527344 18.1875 Z M 105.527344 22.253906 "/>
    <path style=" stroke:none;fill-rule:nonzero;fill:rgb(13.72549%,12.156863%,12.54902%);fill-opacity:1;" d="M 98.171875 18.1875 L 101.035156 18.1875 L 101.035156 12.621094 L 98.171875 12.621094 Z M 98.171875 18.1875 "/>
    <path style=" stroke:none;fill-rule:nonzero;fill:rgb(13.72549%,12.156863%,12.54902%);fill-opacity:1;" d="M 111.230469 28.933594 L 111.230469 24.347656 L 108.367188 24.347656 L 108.367188 32.929688 L 110.269531 32.929688 L 110.269531 28.933594 L 111.230469 28.933594 "/>
    <path style=" stroke:none;fill-rule:nonzero;fill:rgb(13.72549%,12.156863%,12.54902%);fill-opacity:1;" d="M 126.972656 32.929688 L 129.835938 32.929688 L 129.835938 24.347656 L 126.972656 24.347656 Z M 126.972656 32.929688 "/>
    <path style=" stroke:none;fill-rule:nonzero;fill:rgb(13.72549%,12.156863%,12.54902%);fill-opacity:1;" d="M 116.902344 12.621094 L 116.902344 28.933594 L 119.769531 28.933594 L 119.769531 12.621094 L 121.792969 12.621094 L 121.792969 8.5625 L 118.929688 8.5625 L 118.929688 12.621094 L 116.902344 12.621094 "/>
    <path style=" stroke:none;fill-rule:nonzero;fill:rgb(100%,100%,100%);fill-opacity:1;" d="M 25.734375 30.375 L 25.734375 18.191406 L 15.667969 18.191406 L 15.667969 12.621094 L 20.929688 12.621094 L 20.929688 15.992188 L 25.734375 15.992188 L 25.734375 11.113281 C 25.734375 9.675781 24.558594 8.5625 23.117188 8.5625 L 13.539062 8.5625 C 12.136719 8.5625 10.960938 9.742188 10.960938 11.144531 L 10.960938 22.253906 L 20.929688 22.253906 L 20.929688 28.933594 L 15.667969 28.933594 L 15.667969 24.347656 L 10.960938 24.347656 L 10.960938 30.277344 C 10.960938 31.71875 12.136719 32.929688 13.578125 32.929688 L 23.152344 32.929688 C 24.585938 32.929688 25.734375 31.78125 25.734375 30.375 "/>
    <path style=" stroke:none;fill-rule:nonzero;fill:rgb(100%,100%,100%);fill-opacity:1;" d="M 39.769531 18.1875 L 34.34375 18.1875 L 34.34375 12.621094 L 39.769531 12.621094 Z M 44.507812 19.597656 L 44.507812 11.144531 C 44.507812 9.707031 43.363281 8.5625 41.921875 8.5625 L 27.644531 8.5625 L 27.644531 12.621094 L 29.539062 12.621094 L 29.539062 28.933594 L 27.675781 28.933594 L 27.675781 32.929688 L 36.140625 32.929688 L 36.140625 28.933594 L 34.34375 28.933594 L 34.34375 22.253906 L 41.921875 22.253906 C 43.363281 22.253906 44.507812 21.039062 44.507812 19.597656 "/>
    <path style=" stroke:none;fill-rule:nonzero;fill:rgb(100%,100%,100%);fill-opacity:1;" d="M 52.777344 28.933594 L 52.777344 12.621094 L 54.574219 12.621094 L 54.574219 8.5625 L 46.238281 8.5625 L 46.238281 12.621094 L 48.070312 12.621094 L 48.070312 28.933594 L 46.238281 28.933594 L 46.238281 32.929688 L 54.574219 32.929688 L 54.574219 28.933594 L 52.777344 28.933594 "/>
    <path style=" stroke:none;fill-rule:nonzero;fill:rgb(100%,100%,100%);fill-opacity:1;" d="M 71.113281 24.347656 L 68.25 24.347656 L 68.25 28.933594 L 62.726562 28.933594 L 62.726562 22.253906 L 70.082031 22.253906 L 70.082031 18.1875 L 62.726562 18.1875 L 62.726562 12.621094 L 68.25 12.621094 L 68.25 15.992188 L 72.925781 15.992188 L 72.925781 8.5625 L 56.289062 8.5625 L 56.289062 12.621094 L 58.054688 12.621094 L 58.054688 28.933594 L 56.289062 28.933594 L 56.289062 32.929688 L 72.925781 32.929688 L 72.925781 24.347656 L 71.113281 24.347656 "/>
    <path style=" stroke:none;fill-rule:nonzero;fill:rgb(100%,100%,100%);fill-opacity:1;" d="M 83.894531 18.1875 L 81.035156 18.1875 L 81.035156 22.253906 L 84.921875 22.253906 L 84.921875 28.933594 L 79.5 28.933594 L 79.5 12.621094 L 84.761719 12.621094 L 84.761719 15.992188 L 89.664062 15.992188 L 89.664062 11.179688 C 89.664062 9.738281 88.515625 8.5625 87.078125 8.5625 L 77.472656 8.5625 C 76.820312 8.5625 76.238281 8.808594 75.789062 9.207031 C 75.238281 9.6875 74.890625 10.390625 74.890625 11.179688 L 74.890625 30.375 C 74.890625 31.121094 75.246094 31.792969 75.789062 32.261719 C 76.261719 32.671875 76.882812 32.929688 77.539062 32.929688 L 89.695312 32.929688 L 89.695312 18.1875 L 83.894531 18.1875 "/>
    <path style=" stroke:none;fill-rule:nonzero;fill:rgb(100%,100%,100%);fill-opacity:1;" d="M 106.558594 24.347656 L 103.691406 24.347656 L 103.691406 28.933594 L 98.175781 28.933594 L 98.175781 22.253906 L 105.527344 22.253906 L 105.527344 18.1875 L 98.175781 18.1875 L 98.175781 12.621094 L 103.691406 12.621094 L 103.691406 15.992188 L 108.367188 15.992188 L 108.367188 8.5625 L 91.730469 8.5625 L 91.730469 12.621094 L 93.5 12.621094 L 93.5 28.933594 L 91.730469 28.933594 L 91.730469 32.929688 L 108.367188 32.929688 L 108.367188 24.347656 L 106.558594 24.347656 "/>
    <path style=" stroke:none;fill-rule:nonzero;fill:rgb(100%,100%,100%);fill-opacity:1;" d="M 125.191406 24.347656 L 122.328125 24.347656 L 122.328125 28.933594 L 116.902344 28.933594 L 116.902344 12.621094 L 118.929688 12.621094 L 118.929688 8.5625 L 110.300781 8.5625 L 110.300781 12.621094 L 112.128906 12.621094 L 112.128906 28.933594 L 110.269531 28.933594 L 110.269531 32.929688 L 126.96875 32.929688 L 126.96875 24.347656 L 125.191406 24.347656 "/>
  </g>
</svg>