<?xml version="1.0" encoding="UTF-8" standalone="yes"?>
<svg xmlns="http://www.w3.org/2000/svg" xmlns:xlink="http://www.w3.org/1999/xlink" width="634.6666666666666px" height="106.66666666666666px" viewBox="0 0 476 80" version="1.1">
  <g id="surface1">
    <path style=" stroke:none;fill-rule:nonzero;fill:rgb(52.156863%,52.156863%,53.333333%);fill-opacity:1;" d="M 39.9375 0.238281 C 18.050781 0.238281 0.238281 18.035156 0.238281 39.898438 C 0.238281 61.773438 18.050781 79.5625 39.9375 79.5625 C 61.824219 79.5625 79.628906 61.773438 79.628906 39.898438 C 79.628906 18.035156 61.824219 0.238281 39.9375 0.238281 M 39.9375 75.199219 C 20.457031 75.199219 4.609375 59.371094 4.609375 39.898438 C 4.609375 20.4375 20.457031 4.601562 39.9375 4.601562 C 59.414062 4.601562 75.261719 20.4375 75.261719 39.898438 C 75.261719 59.371094 59.414062 75.199219 39.9375 75.199219 "/>
    <path style=" stroke:none;fill-rule:nonzero;fill:rgb(52.156863%,52.156863%,53.333333%);fill-opacity:1;" d="M 65.441406 31.742188 L 60.960938 43.132812 L 57.40625 32.195312 L 51.601562 32.195312 L 58.316406 48.976562 L 63.234375 48.976562 C 63.234375 48.976562 67.941406 39.589844 68.09375 39.238281 C 69.257812 36.660156 67.914062 33.195312 65.441406 31.742188 "/>
    <path style=" stroke:none;fill-rule:nonzero;fill:rgb(52.156863%,52.156863%,53.333333%);fill-opacity:1;" d="M 48.640625 45.394531 C 47.074219 45.394531 46.609375 44.007812 46.609375 42.851562 L 46.609375 36.238281 L 50.632812 36.238281 L 50.632812 32.199219 L 46.609375 32.199219 L 46.609375 27.113281 L 46.261719 27.113281 C 43.820312 27.113281 41.394531 29.007812 41.394531 32.1875 L 41.394531 42.574219 C 41.394531 43.65625 41.503906 44.570312 41.71875 45.425781 C 42.457031 48.332031 45.226562 49.585938 47.839844 49.585938 C 49.550781 49.585938 51.136719 49.085938 52.605469 48.082031 L 51.085938 44.515625 C 50.746094 44.746094 49.988281 45.394531 48.640625 45.394531 "/>
    <path style=" stroke:none;fill-rule:nonzero;fill:rgb(52.156863%,52.156863%,53.333333%);fill-opacity:1;" d="M 33.121094 31.800781 C 30.820312 31.800781 28.8125 32.617188 27.4375 34.128906 C 26.539062 32.894531 25.117188 31.800781 22.554688 31.800781 C 20.667969 31.800781 18.347656 33.019531 17.515625 34.433594 L 17.292969 31.816406 L 16.941406 31.816406 C 14.621094 31.871094 12.339844 33.675781 12.339844 36.234375 L 12.339844 48.972656 L 17.546875 48.972656 L 17.546875 39.953125 C 17.546875 38.882812 17.859375 38.003906 18.476562 37.3125 C 19.09375 36.621094 19.898438 36.269531 20.886719 36.269531 C 21.777344 36.269531 22.445312 36.550781 22.886719 37.101562 C 23.339844 37.644531 23.558594 38.417969 23.558594 39.425781 L 23.558594 48.972656 L 28.605469 48.972656 L 28.605469 39.953125 C 28.605469 38.882812 28.902344 38.003906 29.503906 37.3125 C 30.105469 36.621094 30.910156 36.269531 31.929688 36.269531 C 32.820312 36.269531 33.492188 36.550781 33.933594 37.101562 C 34.378906 37.644531 34.609375 38.417969 34.609375 39.425781 L 34.609375 48.972656 L 39.824219 48.972656 L 39.824219 38.597656 C 39.824219 36.503906 39.25 34.84375 38.101562 33.625 C 36.953125 32.410156 35.296875 31.800781 33.121094 31.800781 "/>
    <path style=" stroke:none;fill-rule:nonzero;fill:rgb(5.490196%,52.941176%,82.352941%);fill-opacity:1;" d="M 316.546875 7.976562 L 316.546875 18.351562 L 337.324219 18.351562 L 337.324219 71.703125 L 348.613281 71.703125 L 348.613281 18.351562 L 369.363281 18.351562 L 369.363281 7.976562 Z M 316.546875 7.976562 "/>
    <path style=" stroke:none;fill-rule:nonzero;fill:rgb(5.490196%,52.941176%,82.352941%);fill-opacity:1;" d="M 313.332031 28.273438 L 313.332031 28.09375 C 313.332031 22.542969 311.421875 17.804688 308.054688 14.347656 C 303.960938 10.347656 297.679688 7.984375 289.675781 7.984375 L 264.128906 7.984375 C 267.445312 10.910156 270.308594 14.347656 272.585938 18.171875 L 288.769531 18.171875 C 297.046875 18.171875 301.960938 21.898438 301.960938 28.734375 L 301.960938 28.914062 C 301.960938 35.371094 296.859375 39.558594 288.855469 39.558594 L 278.488281 39.558594 C 278.609375 42.019531 277.929688 48.09375 277.414062 49.484375 L 286.496094 49.484375 L 302.144531 71.703125 L 315.324219 71.703125 L 298.144531 47.574219 C 307.050781 45.023438 313.332031 38.742188 313.332031 28.273438 "/>
    <path style=" stroke:none;fill-rule:nonzero;fill:rgb(5.490196%,52.941176%,82.352941%);fill-opacity:1;" d="M 235.054688 7.234375 C 217.058594 7.234375 202.46875 21.839844 202.46875 39.84375 C 202.46875 57.859375 217.058594 72.449219 235.054688 72.449219 C 253.066406 72.449219 267.652344 57.859375 267.652344 39.84375 C 267.652344 21.839844 253.066406 7.234375 235.054688 7.234375 "/>
    <path style=" stroke:none;fill-rule:nonzero;fill:rgb(5.490196%,52.941176%,82.352941%);fill-opacity:1;" d="M 122.917969 34.738281 C 110.730469 31.828125 107.816406 29.636719 107.816406 24.722656 L 107.816406 24.546875 C 107.816406 20.355469 111.632812 16.992188 118.191406 16.992188 C 124.011719 16.992188 129.742188 19.269531 135.476562 23.542969 L 141.484375 15.078125 C 135.027344 9.886719 127.648438 7.070312 118.375 7.070312 C 105.730469 7.070312 96.625 14.625 96.625 25.550781 L 96.625 25.726562 C 96.625 37.472656 104.261719 41.476562 117.816406 44.761719 C 129.65625 47.476562 132.199219 49.941406 132.199219 54.492188 L 132.199219 54.679688 C 132.199219 59.5 127.832031 62.683594 120.917969 62.683594 C 113 62.683594 106.90625 59.683594 100.808594 54.402344 L 94.074219 62.410156 C 101.722656 69.242188 110.902344 72.605469 120.648438 72.605469 C 134.015625 72.605469 143.394531 65.5 143.394531 53.585938 L 143.394531 53.394531 C 143.394531 42.835938 136.386719 38.011719 122.917969 34.738281 "/>
    <path style=" stroke:none;fill-rule:nonzero;fill:rgb(5.490196%,52.941176%,82.352941%);fill-opacity:1;" d="M 173.914062 7.976562 L 148.792969 7.976562 L 148.792969 71.699219 L 159.988281 71.699219 L 159.988281 51.214844 L 172.621094 51.214844 C 186.640625 51.214844 198.105469 43.75 198.105469 29.460938 L 198.105469 29.273438 C 198.105469 16.445312 188.746094 7.976562 173.914062 7.976562 M 186.730469 29.730469 C 186.730469 36.378906 181.464844 41.109375 172.988281 41.109375 L 159.988281 41.109375 L 159.988281 18.167969 L 172.988281 18.167969 C 181.367188 18.167969 186.730469 22.085938 186.730469 29.546875 Z M 186.730469 29.730469 "/>
    <path style=" stroke:none;fill-rule:nonzero;fill:rgb(5.490196%,52.941176%,82.352941%);fill-opacity:1;" d="M 380.804688 71.679688 L 424.210938 71.679688 L 424.210938 67.140625 L 388.246094 67.140625 L 407.6875 49.515625 C 410.472656 46.964844 412.859375 44.65625 414.855469 42.5625 C 416.851562 40.476562 418.503906 38.476562 419.800781 36.566406 C 421.109375 34.664062 422.058594 32.773438 422.664062 30.890625 C 423.265625 29.019531 423.578125 26.984375 423.578125 24.808594 L 423.578125 24.625 C 423.578125 22.140625 423.089844 19.835938 422.121094 17.71875 C 421.152344 15.605469 419.839844 13.761719 418.171875 12.191406 C 416.507812 10.605469 414.523438 9.382812 412.21875 8.496094 C 409.929688 7.621094 407.417969 7.183594 404.683594 7.183594 C 401.898438 7.183594 399.425781 7.507812 397.242188 8.160156 C 395.066406 8.808594 393.078125 9.734375 391.292969 10.925781 C 389.511719 12.128906 387.875 13.550781 386.382812 15.230469 C 384.902344 16.882812 383.472656 18.777344 382.082031 20.898438 L 385.617188 23.257812 C 388.285156 19.441406 391.027344 16.519531 393.882812 14.5 C 396.722656 12.460938 400.175781 11.460938 404.230469 11.460938 C 406.175781 11.460938 408.003906 11.777344 409.71875 12.394531 C 411.453125 13.042969 412.957031 13.933594 414.265625 15.117188 C 415.5625 16.308594 416.621094 17.738281 417.394531 19.429688 C 418.1875 21.121094 418.582031 23.003906 418.582031 25.058594 C 418.582031 26.757812 418.332031 28.382812 417.855469 29.957031 C 417.363281 31.53125 416.566406 33.164062 415.449219 34.851562 C 414.328125 36.546875 412.875 38.359375 411.085938 40.296875 C 409.304688 42.230469 407.101562 44.378906 404.507812 46.734375 L 380.804688 68.140625 Z M 380.804688 71.679688 "/>
    <path style=" stroke:none;fill-rule:nonzero;fill:rgb(52.156863%,52.156863%,53.333333%);fill-opacity:1;" d="M 434.628906 28.730469 L 440.21875 28.730469 L 440.21875 21.054688 L 447.40625 21.054688 L 447.40625 28.730469 L 452.996094 28.730469 L 452.996094 8.527344 L 447.40625 8.527344 L 447.40625 16.09375 L 440.21875 16.09375 L 440.21875 8.527344 L 434.628906 8.527344 Z M 456.570312 28.730469 L 464.246094 28.730469 C 471.523438 28.730469 475.761719 24.402344 475.761719 18.578125 L 475.761719 18.515625 C 475.761719 12.695312 471.578125 8.527344 464.363281 8.527344 L 456.570312 8.527344 Z M 462.175781 23.769531 L 462.175781 13.496094 L 464.453125 13.496094 C 467.796875 13.496094 470.011719 15.371094 470.011719 18.605469 L 470.011719 18.664062 C 470.011719 21.921875 467.796875 23.769531 464.453125 23.769531 Z M 462.175781 23.769531 "/>
  </g>
</svg>