<?xml version="1.0" encoding="UTF-8" standalone="yes"?>
<svg xmlns="http://www.w3.org/2000/svg" xmlns:xlink="http://www.w3.org/1999/xlink" width="226.66666666666666px" height="106.66666666666666px" viewBox="0 0 170 80" version="1.1">
  <defs>
    <clipPath id="clip1">
      <path d="M 10.003906 10.011719 L 126 10.011719 L 126 72.488281 L 10.003906 72.488281 Z M 10.003906 10.011719 "/>
    </clipPath>
    <clipPath id="clip2">
      <path d="M 130 26 L 163 26 L 163 47 L 130 47 Z M 130 26 "/>
    </clipPath>
    <clipPath id="clip3">
      <path d="M -10.457031 41.25 C -10.457031 94.601562 32.792969 137.863281 86.15625 137.863281 C 139.503906 137.863281 182.753906 94.601562 182.753906 41.25 C 182.753906 -12.097656 139.503906 -55.363281 86.15625 -55.363281 C 32.792969 -55.363281 -10.457031 -12.097656 -10.457031 41.25 "/>
    </clipPath>
  </defs>
  <g id="surface1">
    <g clip-path="url(#clip1)" clip-rule="nonzero">
      <path style=" stroke:none;fill-rule:evenodd;fill:rgb(21.568627%,5.098039%,39.215686%);fill-opacity:1;" d="M 10.027344 42.0625 C 10.027344 42.0625 10.039062 41.160156 10.066406 40.636719 L 20.367188 40.660156 L 20.328125 41.300781 C 20.328125 43.136719 21.441406 44.886719 22.429688 45.613281 C 23.414062 46.335938 24.816406 46.574219 25.679688 46.574219 C 27.878906 46.574219 29.890625 45.222656 29.914062 43.160156 C 29.839844 41.347656 28.816406 40.472656 27.351562 39.785156 C 26.039062 39.175781 23.789062 38.222656 21.367188 37.011719 C 18.929688 35.800781 16.289062 34.335938 14.214844 32.699219 C 11.214844 30.324219 9.867188 27.261719 10.027344 23.011719 C 10.164062 19.386719 11.742188 16.261719 14.691406 13.675781 C 17.640625 11.085938 21.265625 10.0625 25.117188 10.0625 C 30.003906 10.0625 34.089844 12.035156 36.789062 15.25 C 39.527344 18.613281 40.054688 21.800781 40.164062 24.148438 L 40.191406 24.597656 L 29.515625 24.597656 C 29.402344 23.5 28.878906 22.1875 28.253906 21.472656 C 27.527344 20.625 26.390625 20.074219 24.976562 20.074219 C 24.152344 20.074219 23.203125 20.324219 22.390625 20.835938 C 21.601562 21.335938 20.941406 22.160156 20.941406 23.25 C 20.929688 24.425781 21.476562 25.347656 23.003906 26.113281 C 24.492188 26.886719 28.964844 28.875 29.601562 29.113281 C 36.003906 31.613281 40.054688 35.648438 40.515625 41.738281 L 40.515625 42.160156 C 40.527344 44.222656 39.914062 47.785156 37.554688 50.898438 C 35.179688 54.011719 31.089844 56.722656 25.714844 56.722656 C 15.101562 56.6875 10.054688 48.988281 10.027344 42.0625 M 56.804688 72.488281 C 66.390625 72.472656 71.453125 65.460938 71.476562 58.886719 L 71.476562 27.023438 L 61.226562 27.023438 L 61.226562 42.886719 C 61.226562 43.613281 61.191406 44.574219 60.351562 45.460938 C 59.578125 46.285156 58.589844 46.9375 56.953125 46.9375 C 55.253906 46.949219 54.039062 46.3125 53.429688 45.449219 C 52.804688 44.585938 52.691406 43.597656 52.691406 42.886719 L 52.691406 27.023438 L 42.289062 27.023438 L 42.289062 43.113281 C 42.304688 49.824219 47.265625 56.710938 55.589844 56.722656 C 57.226562 56.722656 58.839844 56.386719 60.402344 55.761719 L 61.164062 55.460938 L 61.164062 56.273438 L 61.152344 58.613281 C 61.152344 59.097656 61.152344 59.785156 60.628906 60.6875 C 60.128906 61.597656 59.003906 62.488281 57.101562 62.472656 C 55.402344 62.472656 54.304688 61.722656 53.726562 60.949219 C 53.140625 60.1875 53.003906 59.4375 52.976562 59.324219 L 42.476562 59.285156 L 42.679688 60.960938 C 43.902344 66.710938 49.140625 72.5 56.804688 72.488281 M 111.253906 72.488281 C 120.839844 72.472656 125.902344 65.460938 125.914062 58.886719 L 125.914062 27.023438 L 115.679688 27.023438 L 115.679688 42.886719 C 115.679688 43.613281 115.589844 44.597656 114.804688 45.460938 C 114.039062 46.300781 113.039062 46.9375 111.402344 46.9375 C 109.691406 46.949219 108.476562 46.3125 107.867188 45.449219 C 107.253906 44.585938 107.128906 43.597656 107.128906 42.886719 L 107.128906 27.023438 L 96.726562 27.023438 L 96.726562 43.113281 C 96.742188 49.824219 101.703125 56.710938 110.039062 56.722656 C 111.664062 56.722656 113.277344 56.386719 114.851562 55.761719 L 115.601562 55.460938 L 115.601562 58.613281 C 115.601562 59.097656 115.589844 59.785156 115.078125 60.6875 C 114.566406 61.597656 113.441406 62.488281 111.554688 62.472656 C 109.851562 62.472656 108.753906 61.722656 108.179688 60.949219 C 107.578125 60.1875 107.453125 59.4375 107.429688 59.324219 L 96.914062 59.285156 L 97.128906 60.960938 C 98.339844 66.710938 103.578125 72.5 111.253906 72.488281 M 94.539062 27.023438 L 84.589844 27.023438 L 84.589844 25.9375 C 84.578125 25.273438 84.601562 24.5625 84.726562 23.925781 C 84.816406 23.4375 84.941406 23.023438 85.089844 22.710938 C 85.339844 22.222656 85.515625 21.988281 86.054688 21.660156 C 86.601562 21.335938 87.714844 20.910156 89.941406 20.910156 L 96.726562 20.910156 L 96.726562 10.011719 L 89.941406 10.011719 C 86.714844 10.011719 83.878906 10.585938 81.464844 11.761719 C 79.664062 12.636719 78.152344 13.863281 77.039062 15.222656 C 75.339844 17.273438 74.527344 19.511719 74.117188 21.386719 C 73.714844 23.273438 73.691406 24.898438 73.679688 25.9375 L 73.691406 55.386719 L 84.589844 55.386719 L 84.589844 37.335938 L 94.539062 37.335938 Z M 94.539062 27.023438 "/>
    </g>
    <g clip-path="url(#clip2)" clip-rule="nonzero">
      <g clip-path="url(#clip3)" clip-rule="nonzero">
        <path style=" stroke:none;fill-rule:evenodd;fill:rgb(21.568627%,5.098039%,39.215686%);fill-opacity:1;" d="M 145.445312 43.679688 L 145.445312 30.28125 L 142.023438 30.28125 L 142.023438 35.269531 L 137.648438 35.269531 L 137.648438 30.28125 L 134.222656 30.28125 L 134.222656 43.679688 L 137.648438 43.679688 L 137.648438 38.691406 L 142.023438 38.691406 L 142.023438 43.679688 Z M 147.597656 30.28125 L 152.035156 30.28125 C 153.546875 30.28125 156.222656 30.28125 157.960938 32.78125 C 158.882812 34.042969 159.195312 35.480469 159.195312 36.941406 C 159.195312 40.605469 157.382812 43.679688 152.296875 43.679688 L 147.597656 43.679688 Z M 151.023438 40.679688 L 152.496094 40.679688 C 155.046875 40.679688 155.773438 38.90625 155.773438 36.992188 C 155.773438 36.230469 155.609375 35.28125 155.121094 34.519531 C 154.722656 33.917969 154.035156 33.28125 152.507812 33.28125 L 151.023438 33.28125 Z M 162.285156 44.492188 C 162.285156 45.832031 161.183594 46.929688 159.847656 46.929688 L 132.734375 46.929688 C 131.398438 46.929688 130.296875 45.832031 130.296875 44.492188 L 130.296875 29.417969 C 130.296875 28.082031 131.398438 26.980469 132.734375 26.980469 L 159.847656 26.980469 C 161.183594 26.980469 162.285156 28.082031 162.285156 29.417969 Z M 162.285156 44.492188 "/>
      </g>
    </g>
  </g>
</svg>