<?xml version="1.0" encoding="utf-8"?>
<!-- Generator: Adobe Illustrator 16.0.4, SVG Export Plug-In . SVG Version: 6.00 Build 0)  -->
<!DOCTYPE svg PUBLIC "-//W3C//DTD SVG 1.1//EN" "http://www.w3.org/Graphics/SVG/1.1/DTD/svg11.dtd">
<svg version="1.1"
	 id="svg2985" xmlns:dc="http://purl.org/dc/elements/1.1/" xmlns:cc="http://creativecommons.org/ns#" xmlns:rdf="http://www.w3.org/1999/02/22-rdf-syntax-ns#" xmlns:svg="http://www.w3.org/2000/svg"
	 xmlns="http://www.w3.org/2000/svg" xmlns:xlink="http://www.w3.org/1999/xlink" x="0px" y="0px" width="505.208px"
	 height="169.98px" viewBox="0 0.221 505.208 169.98" enable-background="new 0 0.221 505.208 169.98" xml:space="preserve">
<g id="g61828" transform="matrix(40.59018,0,0,-40.594771,-19291.063,9086.0374)">
	<path id="path149841" fill="#EB2D37" d="M485.694,222.632c-0.001,0.016-0.013,0.028-0.029,0.03c-0.001,0-0.002,0-0.004,0h-0.311
		c-0.001,0-0.002,0-0.004,0c-0.016-0.002-0.029-0.016-0.029-0.033v-0.764h-0.849v0.764c0,0,0,0,0,0.001
		c-0.001,0.016-0.013,0.03-0.03,0.032c-0.001,0-0.002,0-0.004,0h-0.314c-0.001,0-0.002,0-0.003,0
		c-0.017-0.002-0.03-0.016-0.03-0.033v-1.923c0-0.018,0.015-0.033,0.033-0.033h0.314c0.019,0,0.033,0.015,0.034,0.033v0.807h0.848
		l0.001,0.001v-0.808c0-0.018,0.014-0.032,0.033-0.032h0.311c0.018,0,0.032,0.013,0.033,0.03c0.001,0.001,0.001,0.002,0.001,0.002
		v1.923C485.695,222.63,485.695,222.631,485.694,222.632"/>
	<path id="path149845" fill="#EB2D37" d="M486.806,221.026h-0.358v1.283h0.358c0.426,0,0.518-0.347,0.518-0.639
		C487.324,221.43,487.255,221.026,486.806,221.026 M486.417,220.673c0.004,0.001,0.008,0.002,0.013,0.003
		C486.426,220.674,486.421,220.673,486.417,220.673 M486.809,222.662h-0.704c-0.001,0-0.002,0-0.003,0
		c-0.017-0.002-0.03-0.016-0.03-0.033v-1.923c0-0.018,0.015-0.033,0.033-0.033c0.008,0,0.719,0,0.726,0.001
		c0.532,0.01,0.874,0.395,0.874,0.993C487.705,222.281,487.362,222.662,486.809,222.662"/>
</g>
<path fill="#EB2D37" d="M111.262,0.221c35.163,0,70.328,0,105.491,0c-0.044,0.649-0.125,1.298-0.125,1.947
	c-0.007,55.363-0.005,110.725-0.01,166.087c0,0.629-0.067,1.261-0.102,1.872c-35.095,0-70.021,0-105.124,0c0-0.714,0-1.357,0-2.003
	c0-55.319,0.001-110.638-0.005-165.957C111.388,1.52,111.306,0.87,111.262,0.221z M141.141,80.31c0,9.401-0.015,18.801,0.007,28.202
	c0.008,3.313,0.561,6.536,2.164,9.48c2.984,5.479,7.989,7.526,13.861,7.615c9.223,0.142,18.451,0.043,27.677,0.032
	c1.567-0.002,2.017-0.47,2.021-2.05c0.01-3.542,0.007-7.084,0.001-10.625c-0.001-1.939-0.361-2.302-2.279-2.303
	c-7.083-0.003-14.167-0.011-21.25,0.005c-1.829,0.004-3.444-0.531-4.823-1.721c-1.865-1.609-2.415-3.71-2.411-6.11
	c0.031-17.139,0.018-34.279,0.015-51.419c0-2.072-0.355-2.419-2.453-2.422c-3.367-0.004-6.733-0.004-10.1,0
	c-2.048,0.003-2.43,0.39-2.431,2.457C141.139,61.071,141.14,70.691,141.141,80.31z"/>
<path fill-rule="evenodd" clip-rule="evenodd" fill="#EB2D37" d="M-0.002,163.181c0-51.957,0-103.916,0-155.875
	C0.102,6.985,0.239,6.67,0.301,6.34c0.419-2.217,1.603-3.906,3.548-5.022C4.62,0.875,5.478,0.583,6.295,0.221
	c32.977,0,65.955,0,98.931,0c0,56.637,0,113.275,0,169.979c-0.82,0-1.385,0-1.95,0c-20.113,0-40.226,0-60.337,0
	c-11.717,0-23.435,0.004-35.152-0.003c-3.545,0-6.457-2.151-7.354-5.401C0.285,164.259,0.143,163.72-0.002,163.181z M60.606,64.025
	c0.793,0,1.316,0,1.838,0c6.776,0,13.553,0.004,20.331-0.004c1.607-0.002,2.037-0.437,2.041-2.002c0.007-3.672,0.007-7.345,0-11.018
	c-0.004-1.565-0.433-2.002-2.041-2.003c-20.026-0.006-40.05-0.006-60.074,0c-1.646,0-2.085,0.456-2.091,2.12
	c-0.014,3.542-0.01,7.083-0.002,10.625c0.004,1.917,0.376,2.279,2.318,2.28c7.039,0.003,14.079,0.002,21.118,0.002
	c0.501,0,1.002,0,1.578,0c0,0.754,0,1.277,0,1.798c0,19.193-0.001,38.387,0,57.582c0,1.831,0.393,2.232,2.22,2.238
	c3.324,0.009,6.646,0.004,9.969,0.002c2.538,0,2.796-0.252,2.796-2.74c0.001-18.975,0-37.951,0-56.926
	C60.606,65.381,60.606,64.783,60.606,64.025z"/>
<path fill-rule="evenodd" clip-rule="evenodd" fill="#EB2D37" d="M222.789,0.221c32.977,0,65.955,0,98.93,0
	c0.098,0.083,0.18,0.206,0.293,0.242c4.148,1.336,5.871,3.723,5.871,8.183c0.004,51.078,0.004,102.156,0.004,153.234
	c0,0.263,0.007,0.525-0.009,0.787c-0.221,4.582-3.295,7.531-7.858,7.531c-31.878,0.002-63.758,0.002-95.639,0.002
	c-0.469,0-0.94,0-1.592,0C222.789,113.452,222.789,56.837,222.789,0.221z"/>
<path fill-rule="evenodd" clip-rule="evenodd" fill="#EB2D37" d="M242.399,87.328c0.397,2.891,0.558,5.838,1.231,8.661
	c4.506,18.914,21.378,31.201,40.737,29.743c8.667-0.653,16.202-4.005,22.665-9.787c1.192-1.067,1.213-1.731,0.115-2.838
	c-2.559-2.575-5.125-5.143-7.698-7.7c-1.113-1.104-1.73-1.119-2.939-0.123c-5.974,4.929-12.797,6.798-20.34,5.062
	c-9.107-2.096-15.181-7.797-17.682-16.797c-2.447-8.803-0.257-16.717,6.27-23.081c8.92-8.697,22.037-9.025,31.721-1.12
	c1.303,1.066,1.837,1.056,3.028-0.128c2.543-2.528,5.08-5.063,7.607-7.61c1.146-1.16,1.119-1.847-0.129-2.942
	c-9.358-8.199-20.235-11.414-32.464-9.324C255.997,52.51,242.671,68.541,242.399,87.328z"/>
<path fill-rule="evenodd" clip-rule="evenodd" fill="#FFF0E6" d="M141.141,80.31c-0.001-9.619-0.002-19.239,0-28.858
	c0-2.067,0.382-2.454,2.431-2.457c3.367-0.004,6.733-0.004,10.1,0c2.098,0.003,2.453,0.351,2.453,2.422
	c0.003,17.14,0.017,34.28-0.015,51.419c-0.004,2.4,0.546,4.501,2.411,6.11c1.379,1.189,2.995,1.725,4.823,1.721
	c7.083-0.016,14.166-0.008,21.25-0.005c1.918,0.001,2.278,0.363,2.279,2.303c0.005,3.541,0.009,7.083-0.001,10.625
	c-0.005,1.58-0.455,2.048-2.021,2.05c-9.226,0.011-18.454,0.109-27.677-0.032c-5.873-0.089-10.877-2.136-13.861-7.615
	c-1.604-2.944-2.156-6.167-2.164-9.48C141.126,99.111,141.141,89.711,141.141,80.31z"/>
<path fill-rule="evenodd" clip-rule="evenodd" fill="#FFF0E6" d="M60.606,64.025c0,0.757,0,1.355,0,1.954
	c0,18.975,0.001,37.951,0,56.926c0,2.488-0.258,2.74-2.796,2.74c-3.323,0.002-6.645,0.007-9.969-0.002
	c-1.827-0.006-2.22-0.407-2.22-2.238c-0.001-19.194,0-38.388,0-57.582c0-0.521,0-1.044,0-1.798c-0.576,0-1.077,0-1.578,0
	c-7.039,0-14.079,0.001-21.118-0.002c-1.942-0.001-2.314-0.362-2.318-2.28c-0.008-3.542-0.011-7.083,0.002-10.625
	c0.006-1.664,0.445-2.119,2.091-2.12c20.024-0.006,40.048-0.006,60.074,0c1.608,0,2.037,0.438,2.041,2.003
	c0.007,3.672,0.007,7.345,0,11.018c-0.004,1.565-0.434,2-2.041,2.002c-6.778,0.008-13.555,0.004-20.331,0.004
	C61.922,64.025,61.399,64.025,60.606,64.025z"/>
<path fill-rule="evenodd" clip-rule="evenodd" fill="#FFF0E6" d="M242.399,87.328c0.272-18.788,13.597-34.818,32.124-37.983
	c12.229-2.09,23.105,1.125,32.464,9.324c1.248,1.095,1.275,1.783,0.129,2.942c-2.527,2.547-5.064,5.082-7.607,7.61
	c-1.191,1.185-1.726,1.195-3.028,0.128c-9.685-7.906-22.801-7.577-31.721,1.12c-6.527,6.364-8.717,14.278-6.27,23.081
	c2.5,9,8.574,14.701,17.682,16.797c7.543,1.735,14.366-0.134,20.34-5.062c1.209-0.996,1.826-0.981,2.939,0.123
	c2.573,2.558,5.14,5.125,7.698,7.7c1.098,1.106,1.077,1.771-0.115,2.838c-6.463,5.782-13.998,9.134-22.665,9.787
	c-19.359,1.458-36.231-10.829-40.737-29.743C242.957,93.166,242.796,90.219,242.399,87.328z"/>
<g id="g61819_1_" transform="matrix(38.945465,0,0,-38.94987,-18493.459,8723.4304)">
	<path id="path149833_1_" fill="#FFF0E6" d="M482.798,219.857h0.048v-0.134h0.029v0.134h0.048v0.023h-0.124"/>
	<path id="path149837_1_" fill="#FFF0E6" d="M483.082,219.88l-0.044-0.115l-0.045,0.115h-0.043v-0.156h0.029v0.128l0.05-0.128h0.018
		l0.05,0.128h0.001v-0.128h0.028v0.156"/>
</g>
</svg>
