<?xml version="1.0" encoding="UTF-8" standalone="no"?>
<!-- Created with Inkscape (http://www.inkscape.org/) -->
<svg
   xmlns:dc="http://purl.org/dc/elements/1.1/"
   xmlns:cc="http://web.resource.org/cc/"
   xmlns:rdf="http://www.w3.org/1999/02/22-rdf-syntax-ns#"
   xmlns:svg="http://www.w3.org/2000/svg"
   xmlns="http://www.w3.org/2000/svg"
   xmlns:xlink="http://www.w3.org/1999/xlink"
   xmlns:sodipodi="http://sodipodi.sourceforge.net/DTD/sodipodi-0.dtd"
   xmlns:inkscape="http://www.inkscape.org/namespaces/inkscape"
   width="118"
   height="50.000004"
   id="svg2"
   sodipodi:version="0.32"
   inkscape:version="0.45.1"
   version="1.0"
   inkscape:output_extension="org.inkscape.output.svg.inkscape">
  <sodipodi:namedview
     id="base"
     pagecolor="#ffffff"
     bordercolor="#666666"
     borderopacity="1.0"
     gridtolerance="10000"
     guidetolerance="10"
     objecttolerance="10"
     inkscape:pageopacity="0.0"
     inkscape:pageshadow="2"
     inkscape:zoom="5.7391576"
     inkscape:cx="58.900802"
     inkscape:cy="24.625194"
     inkscape:document-units="px"
     inkscape:current-layer="layer1"
     showgrid="false"
     width="118px"
     height="50.000004px"
     inkscape:window-width="784"
     inkscape:window-height="575"
     inkscape:window-x="-19"
     inkscape:window-y="18" />
  <metadata
     id="metadata7">
    <rdf:RDF>
      <cc:Work
         rdf:about="">
        <dc:format>image/svg+xml</dc:format>
        <dc:type
           rdf:resource="http://purl.org/dc/dcmitype/StillImage" />
      </cc:Work>
    </rdf:RDF>
  </metadata>
  <g
     inkscape:label="Layer 1"
     inkscape:groupmode="layer"
     id="layer1"
     transform="translate(-45.361146,-419.40518)">
    <g
       id="g24722"
       transform="matrix(1,0,0,-1,188.242,536.97918)">
      <path
         id="path24724"
         d="M 0,0 C -0.017,0 -0.034,0 -0.051,0 L 0.051,0 C 0.034,0 0.017,0 0,0"
         style="fill:#0e0b0c;fill-rule:nonzero;stroke:none" />
    </g>
    <g
       id="g24930"
       transform="matrix(3.3763255,0,0,-3.3763255,70.35946,469.40518)">
      <path
         id="path24932"
         d="M 0,0 C 4.09,0 7.404,3.315 7.404,7.404 C 7.404,11.493 4.09,14.809 0,14.809 C -4.089,14.809 -7.404,11.493 -7.404,7.404 C -7.404,3.315 -4.089,0 0,0"
         style="fill:#ee1e23;fill-rule:nonzero;stroke:none" />
    </g>
    <g
       id="g24934"
       transform="matrix(3.3763255,0,0,-3.3763255,71.193409,452.65187)">
      <path
         id="path24936"
         d="M 0,0 L -1.925,0 L 0,2.847 L 0,0 z M 3.035,0.004 L 2.029,0.004 L 2.029,8.555 C 2.029,8.622 1.985,8.682 1.921,8.702 C 1.856,8.721 1.787,8.697 1.749,8.641 L -5.203,-1.642 C -5.234,-1.69 -5.237,-1.75 -5.211,-1.801 C -5.184,-1.85 -5.132,-1.882 -5.076,-1.882 L 0.055,-1.882 L 0.055,-3.039 C 0.055,-3.125 0.123,-3.193 0.208,-3.193 L 1.876,-3.193 C 1.961,-3.193 2.029,-3.125 2.029,-3.039 L 2.029,-1.882 L 3.035,-1.882 C 3.12,-1.882 3.189,-1.813 3.189,-1.728 L 3.189,-0.149 C 3.189,-0.064 3.12,0.004 3.035,0.004"
         style="fill:#ffffff;fill-rule:nonzero;stroke:none" />
    </g>
    <g
       id="g24938"
       transform="matrix(3.3763255,0,0,-3.3763255,107.38429,429.01758)">
      <path
         id="path24940"
         d="M 0,0 L 0.9,0 L 0.9,-3.958 L 5.551,-3.958 L 5.551,0 L 6.451,0 L 6.451,-8.989 L 5.551,-8.989 L 5.551,-4.771 L 0.9,-4.771 L 0.9,-8.989 L 0,-8.989 L 0,0"
         style="fill:#6f6d6d;fill-rule:nonzero;stroke:none" />
    </g>
    <g
       id="g24942"
       transform="matrix(3.3763255,0,0,-3.3763255,107.38429,429.01758)">
      <path
         id="path24944"
         stroke-miterlimit="4"
         d="M 0,0 L 0.9,0 L 0.9,-3.958 L 5.551,-3.958 L 5.551,0 L 6.451,0 L 6.451,-8.989 L 5.551,-8.989 L 5.551,-4.771 L 0.9,-4.771 L 0.9,-8.989 L 0,-8.989 L 0,0 z "
         style="fill:none;stroke:#6f6d6d;stroke-width:0.57800001;stroke-linecap:butt;stroke-linejoin:miter;stroke-miterlimit:4" />
    </g>
    <g
       id="g24946"
       transform="matrix(3.3763255,0,0,-3.3763255,139.46946,456.61907)">
      <path
         id="path24948"
         d="M 0,0 L 1.299,0 C 1.501,0 1.728,0.004 1.979,0.012 C 2.23,0.02 2.49,0.046 2.761,0.091 C 3.033,0.135 3.306,0.206 3.581,0.303 C 3.856,0.401 4.123,0.543 4.382,0.729 C 4.52,0.842 4.669,0.988 4.831,1.166 C 4.993,1.345 5.145,1.555 5.286,1.798 C 5.428,2.041 5.547,2.32 5.644,2.637 C 5.741,2.952 5.79,3.305 5.79,3.693 C 5.79,4.292 5.653,4.853 5.377,5.375 C 5.102,5.898 4.73,6.33 4.261,6.67 C 4.059,6.799 3.852,6.909 3.642,6.998 C 3.431,7.087 3.209,7.158 2.974,7.21 C 2.739,7.263 2.485,7.301 2.209,7.326 C 1.934,7.35 1.631,7.362 1.299,7.362 L 0,7.362 L 0,0 z M -0.9,8.175 L 1.724,8.175 C 2.282,8.175 2.819,8.11 3.332,7.981 C 3.846,7.851 4.286,7.669 4.65,7.434 C 5.046,7.191 5.374,6.908 5.634,6.584 C 5.893,6.26 6.101,5.926 6.259,5.582 C 6.417,5.238 6.528,4.898 6.593,4.562 C 6.657,4.226 6.69,3.924 6.69,3.657 C 6.69,3.446 6.664,3.185 6.611,2.873 C 6.559,2.561 6.459,2.233 6.314,1.889 C 6.168,1.546 5.961,1.201 5.695,0.857 C 5.427,0.513 5.079,0.203 4.65,-0.072 C 4.286,-0.307 3.846,-0.49 3.332,-0.619 C 2.819,-0.748 2.282,-0.813 1.724,-0.813 L -0.9,-0.813 L -0.9,8.175"
         style="fill:#6f6d6d;fill-rule:nonzero;stroke:none" />
    </g>
    <g
       id="g24950"
       clip-path="url(#id522)"
       transform="matrix(3.3763255,0,0,-3.3763255,-167.76262,1839.106)">
      <g
         id="g24952"
         transform="translate(90.996,409.465)">
        <path
           id="path24954"
           stroke-miterlimit="4"
           d="M 0,0 L 1.299,0 C 1.501,0 1.728,0.004 1.979,0.012 C 2.23,0.02 2.49,0.046 2.761,0.091 C 3.033,0.135 3.306,0.206 3.581,0.303 C 3.856,0.401 4.123,0.543 4.382,0.729 C 4.52,0.842 4.669,0.988 4.831,1.166 C 4.993,1.345 5.145,1.555 5.286,1.798 C 5.428,2.041 5.547,2.32 5.644,2.637 C 5.741,2.952 5.79,3.305 5.79,3.693 C 5.79,4.292 5.653,4.853 5.377,5.375 C 5.102,5.898 4.73,6.33 4.261,6.67 C 4.059,6.799 3.852,6.909 3.642,6.998 C 3.431,7.087 3.209,7.158 2.974,7.21 C 2.739,7.263 2.485,7.301 2.209,7.326 C 1.934,7.35 1.631,7.362 1.299,7.362 L 0,7.362 L 0,0 z "
           style="fill:none;stroke:#6f6d6d;stroke-width:0.57800001;stroke-linecap:butt;stroke-linejoin:miter;stroke-miterlimit:4" />
        <g
           id="g24956"
           transform="translate(-0.9,8.175)">
          <path
             id="path24958"
             stroke-miterlimit="4"
             d="M 0,0 L 2.623,0 C 3.182,0 3.718,-0.065 4.232,-0.194 C 4.746,-0.324 5.185,-0.507 5.549,-0.741 C 5.946,-0.984 6.274,-1.267 6.533,-1.591 C 6.792,-1.915 7.001,-2.249 7.159,-2.594 C 7.316,-2.938 7.428,-3.278 7.493,-3.614 C 7.557,-3.95 7.59,-4.251 7.59,-4.518 C 7.59,-4.729 7.563,-4.99 7.511,-5.302 C 7.458,-5.614 7.359,-5.942 7.213,-6.286 C 7.067,-6.63 6.861,-6.974 6.594,-7.319 C 6.327,-7.663 5.979,-7.973 5.549,-8.248 C 5.185,-8.483 4.746,-8.665 4.232,-8.794 C 3.718,-8.924 3.182,-8.989 2.623,-8.989 L 0,-8.989 L 0,0 z "
             style="fill:none;stroke:#6f6d6d;stroke-width:0.57800001;stroke-linecap:butt;stroke-linejoin:miter;stroke-miterlimit:4" />
        </g>
      </g>
    </g>
  </g>
</svg>
