<?xml version="1.0" encoding="UTF-8" standalone="yes"?>
<svg xmlns="http://www.w3.org/2000/svg" xmlns:xlink="http://www.w3.org/1999/xlink" width="181.33333333333331px" height="106.66666666666666px" viewBox="0 0 136 80" version="1.1">
  <g id="surface1">
    <path style=" stroke:none;fill-rule:nonzero;fill:rgb(72.54902%,10.980392%,16.078431%);fill-opacity:1;" d="M 26.21875 43.910156 L 26.21875 26.742188 L 30.679688 26.742188 L 36.8125 37.398438 L 36.648438 26.742188 L 40.753906 26.742188 L 40.753906 43.910156 L 36.324219 43.910156 L 30.355469 33.890625 L 30.300781 43.910156 L 26.21875 43.910156 "/>
    <path style=" stroke:none;fill-rule:nonzero;fill:rgb(72.54902%,10.980392%,16.078431%);fill-opacity:1;" d="M 47.871094 43.910156 L 47.894531 30.667969 L 42.863281 30.667969 L 42.839844 26.742188 L 57.398438 26.742188 L 57.421875 30.667969 L 52.203125 30.667969 L 52.179688 43.910156 L 47.871094 43.910156 "/>
    <path style=" stroke:none;fill-rule:nonzero;fill:rgb(72.54902%,10.980392%,16.078431%);fill-opacity:1;" d="M 14.765625 43.910156 L 14.789062 30.667969 L 9.753906 30.667969 L 9.734375 26.742188 L 24.292969 26.742188 L 24.3125 30.667969 L 19.09375 30.667969 L 19.074219 43.910156 L 14.765625 43.910156 "/>
    <path style=" stroke:none;fill-rule:nonzero;fill:rgb(72.54902%,10.980392%,16.078431%);fill-opacity:1;" d="M 5.035156 33.78125 C 5.039062 41.71875 8.222656 48.878906 13.390625 54.082031 C 18.5625 59.28125 25.675781 62.492188 33.5625 62.492188 C 41.449219 62.492188 48.5625 59.28125 53.734375 54.082031 C 58.898438 48.878906 62.085938 41.71875 62.089844 33.78125 C 62.085938 25.84375 58.898438 18.683594 53.734375 13.476562 C 48.5625 8.277344 41.449219 5.070312 33.5625 5.070312 C 25.675781 5.070312 18.5625 8.277344 13.390625 13.476562 C 8.222656 18.683594 5.039062 25.84375 5.035156 33.78125 Z M 0 33.78125 C 0 15.121094 15.023438 0 33.5625 0 C 52.097656 0 67.125 15.121094 67.125 33.78125 C 67.125 52.4375 52.097656 67.558594 33.5625 67.5625 C 15.023438 67.558594 0 52.4375 0 33.78125 "/>
    <path style=" stroke:none;fill-rule:nonzero;fill:rgb(72.54902%,10.980392%,16.078431%);fill-opacity:1;" d="M 17.3125 77.582031 C 17.421875 77.792969 17.566406 77.960938 17.75 78.09375 C 17.929688 78.222656 18.140625 78.320312 18.382812 78.382812 C 18.625 78.445312 18.878906 78.480469 19.136719 78.480469 C 19.3125 78.480469 19.503906 78.464844 19.703125 78.433594 C 19.90625 78.40625 20.09375 78.347656 20.269531 78.265625 C 20.445312 78.179688 20.59375 78.0625 20.710938 77.914062 C 20.828125 77.769531 20.886719 77.582031 20.886719 77.351562 C 20.886719 77.109375 20.808594 76.910156 20.652344 76.757812 C 20.496094 76.605469 20.292969 76.480469 20.042969 76.378906 C 19.792969 76.277344 19.507812 76.1875 19.1875 76.113281 C 18.871094 76.035156 18.546875 75.953125 18.21875 75.859375 C 17.882812 75.773438 17.558594 75.671875 17.238281 75.546875 C 16.921875 75.425781 16.636719 75.269531 16.382812 75.074219 C 16.132812 74.878906 15.929688 74.636719 15.773438 74.347656 C 15.617188 74.054688 15.542969 73.703125 15.542969 73.289062 C 15.542969 72.824219 15.640625 72.421875 15.835938 72.082031 C 16.035156 71.738281 16.292969 71.453125 16.609375 71.226562 C 16.929688 70.996094 17.289062 70.828125 17.691406 70.71875 C 18.09375 70.609375 18.496094 70.554688 18.898438 70.554688 C 19.367188 70.554688 19.820312 70.609375 20.25 70.714844 C 20.683594 70.820312 21.066406 70.988281 21.402344 71.226562 C 21.738281 71.460938 22.003906 71.765625 22.199219 72.128906 C 22.398438 72.5 22.496094 72.941406 22.496094 73.464844 L 20.582031 73.464844 C 20.566406 73.195312 20.511719 72.972656 20.414062 72.796875 C 20.316406 72.617188 20.191406 72.480469 20.03125 72.378906 C 19.871094 72.277344 19.6875 72.203125 19.484375 72.164062 C 19.277344 72.121094 19.054688 72.097656 18.8125 72.097656 C 18.652344 72.097656 18.492188 72.117188 18.332031 72.148438 C 18.171875 72.183594 18.027344 72.242188 17.898438 72.328125 C 17.769531 72.410156 17.664062 72.515625 17.578125 72.644531 C 17.496094 72.769531 17.453125 72.929688 17.453125 73.125 C 17.453125 73.300781 17.484375 73.445312 17.554688 73.554688 C 17.621094 73.664062 17.75 73.765625 17.949219 73.859375 C 18.144531 73.953125 18.417969 74.042969 18.765625 74.136719 C 19.113281 74.230469 19.570312 74.347656 20.132812 74.492188 C 20.296875 74.527344 20.53125 74.585938 20.828125 74.675781 C 21.125 74.765625 21.421875 74.90625 21.714844 75.097656 C 22.007812 75.292969 22.261719 75.554688 22.476562 75.878906 C 22.691406 76.203125 22.796875 76.617188 22.796875 77.125 C 22.796875 77.539062 22.71875 77.921875 22.558594 78.277344 C 22.398438 78.628906 22.164062 78.9375 21.847656 79.195312 C 21.535156 79.453125 21.144531 79.652344 20.679688 79.796875 C 20.210938 79.9375 19.675781 80.011719 19.0625 80.011719 C 18.566406 80.011719 18.085938 79.949219 17.621094 79.828125 C 17.15625 79.703125 16.746094 79.511719 16.390625 79.25 C 16.035156 78.988281 15.75 78.65625 15.542969 78.25 C 15.332031 77.847656 15.230469 77.363281 15.238281 76.808594 L 17.152344 76.808594 C 17.152344 77.113281 17.203125 77.371094 17.3125 77.582031 "/>
    <path style=" stroke:none;fill-rule:nonzero;fill:rgb(72.54902%,10.980392%,16.078431%);fill-opacity:1;" d="M 30.683594 70.769531 L 30.683594 72.441406 L 25.941406 72.441406 L 25.941406 74.378906 L 30.292969 74.378906 L 30.292969 75.921875 L 25.941406 75.921875 L 25.941406 78.136719 L 30.78125 78.136719 L 30.78125 79.808594 L 23.964844 79.808594 L 23.964844 70.769531 L 30.683594 70.769531 "/>
    <path style=" stroke:none;fill-rule:nonzero;fill:rgb(72.54902%,10.980392%,16.078431%);fill-opacity:1;" d="M 36.253906 74.859375 C 36.707031 74.859375 37.046875 74.757812 37.273438 74.554688 C 37.5 74.351562 37.613281 74.023438 37.613281 73.566406 C 37.613281 73.128906 37.5 72.8125 37.273438 72.613281 C 37.046875 72.414062 36.707031 72.316406 36.253906 72.316406 L 34.089844 72.316406 L 34.089844 74.859375 Z M 36.957031 70.769531 C 37.359375 70.769531 37.722656 70.835938 38.046875 70.964844 C 38.367188 71.097656 38.644531 71.277344 38.875 71.503906 C 39.105469 71.730469 39.28125 71.996094 39.402344 72.296875 C 39.527344 72.59375 39.585938 72.917969 39.585938 73.265625 C 39.585938 73.796875 39.476562 74.253906 39.253906 74.644531 C 39.03125 75.03125 38.667969 75.328125 38.164062 75.53125 L 38.164062 75.554688 C 38.410156 75.621094 38.609375 75.726562 38.769531 75.863281 C 38.925781 76.003906 39.058594 76.167969 39.160156 76.359375 C 39.257812 76.550781 39.332031 76.757812 39.378906 76.984375 C 39.425781 77.214844 39.457031 77.441406 39.472656 77.667969 C 39.480469 77.8125 39.488281 77.980469 39.5 78.175781 C 39.507812 78.371094 39.523438 78.566406 39.542969 78.769531 C 39.5625 78.972656 39.597656 79.164062 39.644531 79.347656 C 39.6875 79.527344 39.757812 79.679688 39.851562 79.808594 L 37.875 79.808594 C 37.765625 79.523438 37.699219 79.179688 37.675781 78.78125 C 37.648438 78.386719 37.613281 78.007812 37.5625 77.644531 C 37.496094 77.171875 37.351562 76.824219 37.132812 76.605469 C 36.914062 76.386719 36.558594 76.277344 36.066406 76.277344 L 34.089844 76.277344 L 34.089844 79.808594 L 32.117188 79.808594 L 32.117188 70.769531 L 36.957031 70.769531 "/>
    <path style=" stroke:none;fill-rule:nonzero;fill:rgb(72.54902%,10.980392%,16.078431%);fill-opacity:1;" d="M 41.195312 79.808594 L 43.171875 79.808594 L 43.171875 70.769531 L 41.195312 70.769531 Z M 41.195312 79.808594 "/>
    <path style=" stroke:none;fill-rule:nonzero;fill:rgb(72.54902%,10.980392%,16.078431%);fill-opacity:1;" d="M 51.621094 70.769531 L 51.621094 72.441406 L 46.878906 72.441406 L 46.878906 74.378906 L 51.230469 74.378906 L 51.230469 75.921875 L 46.878906 75.921875 L 46.878906 78.136719 L 51.722656 78.136719 L 51.722656 79.808594 L 44.90625 79.808594 L 44.90625 70.769531 L 51.621094 70.769531 "/>
    <path style=" stroke:none;fill-rule:nonzero;fill:rgb(72.54902%,10.980392%,16.078431%);fill-opacity:1;" d="M 74.375 20.933594 L 82.292969 20.933594 L 82.292969 31.695312 L 92.457031 31.695312 L 92.457031 20.933594 L 100.375 20.933594 L 100.375 49.6875 L 92.457031 49.6875 L 92.457031 38.761719 L 82.292969 38.761719 L 82.292969 49.6875 L 74.375 49.6875 L 74.375 20.933594 "/>
    <path style=" stroke:none;fill-rule:nonzero;fill:rgb(72.54902%,10.980392%,16.078431%);fill-opacity:1;" d="M 114.738281 42.621094 C 119.472656 42.621094 122.613281 39.992188 122.613281 35.351562 L 122.613281 35.269531 C 122.613281 30.667969 119.472656 27.996094 114.738281 27.996094 L 111.511719 27.996094 L 111.511719 42.621094 Z M 103.59375 20.933594 L 114.617188 20.933594 C 124.816406 20.933594 130.734375 26.847656 130.734375 35.144531 L 130.734375 35.226562 C 130.734375 43.523438 124.738281 49.6875 114.449219 49.6875 L 103.59375 49.6875 L 103.59375 20.933594 "/>
    <path style=" stroke:none;fill-rule:nonzero;fill:rgb(72.54902%,10.980392%,16.078431%);fill-opacity:1;" d="M 130.152344 21.296875 L 128.992188 21.296875 L 128.992188 20.878906 L 131.8125 20.878906 L 131.8125 21.296875 L 130.648438 21.296875 L 130.648438 24.710938 L 130.152344 24.710938 L 130.152344 21.296875 "/>
    <path style=" stroke:none;fill-rule:nonzero;fill:rgb(72.54902%,10.980392%,16.078431%);fill-opacity:1;" d="M 135.445312 23.027344 C 135.417969 22.492188 135.382812 21.84375 135.382812 21.371094 L 135.371094 21.371094 C 135.234375 21.816406 135.082031 22.300781 134.890625 22.828125 L 134.21875 24.6875 L 133.84375 24.6875 L 133.222656 22.863281 C 133.042969 22.316406 132.898438 21.828125 132.789062 21.371094 L 132.777344 21.371094 C 132.765625 21.851562 132.738281 22.488281 132.703125 23.066406 L 132.601562 24.710938 L 132.132812 24.710938 L 132.398438 20.878906 L 133.027344 20.878906 L 133.675781 22.730469 C 133.835938 23.203125 133.957031 23.625 134.058594 24.023438 L 134.070312 24.023438 C 134.171875 23.636719 134.308594 23.214844 134.480469 22.730469 L 135.15625 20.878906 L 135.78125 20.878906 L 136.019531 24.710938 L 135.535156 24.710938 L 135.445312 23.027344 "/>
  </g>
</svg>