<?xml version="1.0" encoding="UTF-8" ?>
<!DOCTYPE svg PUBLIC "-//W3C//DTD SVG 1.1//EN" "http://www.w3.org/Graphics/SVG/1.1/DTD/svg11.dtd">
<svg width="360pt" height="270pt" viewBox="0 0 360 270" version="1.1" xmlns="http://www.w3.org/2000/svg">
<g id="#21b3e8ff">
<path fill="#21b3e8" opacity="1.00" d=" M 9.16 76.30 C 94.72 76.38 180.27 76.35 265.83 76.31 C 274.87 96.23 284.28 116.01 293.08 136.03 C 284.24 156.10 274.76 175.91 265.65 195.88 C 195.75 195.75 125.84 195.88 55.93 195.82 C 41.81 195.79 27.80 189.12 19.13 177.93 C 12.67 169.79 9.14 159.43 9.14 149.05 C 9.16 124.80 9.13 100.55 9.16 76.30 M 44.16 102.37 C 44.19 115.60 44.13 128.82 44.18 142.04 C 44.11 147.21 45.99 152.71 50.41 155.72 C 56.02 159.69 63.32 158.52 69.77 158.38 C 70.47 154.66 70.12 150.85 70.03 147.10 C 67.10 147.01 64.15 147.25 61.25 146.80 C 59.21 146.24 58.09 144.11 58.19 142.10 C 58.05 136.89 58.27 131.68 58.08 126.47 C 61.96 126.46 65.83 126.48 69.70 126.31 C 69.70 122.57 69.93 118.82 69.52 115.11 C 65.93 114.20 62.15 114.78 58.49 114.73 C 58.50 109.11 58.67 103.49 58.29 97.89 C 53.57 99.34 48.87 100.87 44.16 102.37 M 217.88 102.26 C 217.12 112.80 217.97 123.45 217.74 134.04 C 217.91 140.78 216.62 148.82 222.10 153.95 C 227.16 159.25 234.99 158.73 241.69 158.45 C 241.76 154.63 241.76 150.80 241.64 146.98 C 238.28 146.80 232.70 147.69 232.09 143.04 C 231.80 127.86 232.17 112.66 231.97 97.48 C 227.21 98.84 222.33 100.05 217.88 102.26 M 86.59 120.72 C 85.75 118.63 84.90 116.55 84.00 114.49 C 80.55 114.75 76.69 113.71 73.50 115.16 C 73.26 129.65 73.27 144.19 73.57 158.70 C 78.31 158.57 83.05 158.47 87.78 158.48 C 87.79 148.91 87.80 139.35 87.78 129.78 C 91.98 127.72 96.64 127.06 101.27 126.78 C 101.55 122.44 101.55 118.08 101.20 113.75 C 95.51 113.80 90.16 116.27 86.59 120.72 M 182.00 119.90 C 177.03 125.28 175.70 133.04 176.16 140.11 C 176.55 146.09 179.37 152.13 184.55 155.39 C 192.77 160.73 203.93 160.38 212.19 155.29 C 210.89 151.84 209.53 148.42 208.10 145.03 C 203.71 146.41 198.95 147.92 194.36 146.53 C 191.78 145.88 190.72 143.26 189.51 141.19 C 197.98 140.96 206.46 141.15 214.94 141.09 C 214.81 132.82 214.38 123.09 207.56 117.32 C 200.01 111.81 188.40 113.20 182.00 119.90 M 104.29 114.87 C 104.25 118.58 104.00 122.30 104.37 126.00 C 108.59 126.91 113.00 125.78 117.21 126.74 C 119.60 127.40 119.62 130.26 120.31 132.19 C 113.98 132.45 106.97 131.63 101.39 135.28 C 93.13 141.51 96.57 157.42 107.03 159.18 C 112.41 160.62 117.66 157.91 121.81 154.70 C 122.45 156.03 123.09 157.35 123.74 158.68 C 127.18 158.63 130.61 158.64 134.05 158.58 C 134.20 150.40 134.13 142.21 134.12 134.03 C 134.08 129.45 133.89 124.56 131.32 120.59 C 129.01 116.69 124.42 114.70 120.00 114.74 C 114.76 114.70 109.52 114.80 104.29 114.87 M 134.52 114.65 C 134.70 116.27 135.08 117.86 135.53 119.43 C 139.49 132.47 143.32 145.54 147.22 158.60 C 152.76 158.58 158.30 158.57 163.84 158.61 C 168.26 143.98 172.57 129.33 176.93 114.68 C 173.27 114.57 169.62 114.49 165.96 114.54 C 164.71 114.74 162.29 114.14 162.19 116.06 C 159.82 126.26 158.46 136.69 155.98 146.87 C 154.08 137.34 152.22 127.79 150.41 118.25 C 149.99 117.02 150.11 115.40 148.96 114.57 C 144.16 114.26 139.32 114.29 134.52 114.65 M 152.58 166.58 C 149.51 169.67 149.44 175.44 152.29 178.70 C 154.34 181.21 157.84 180.11 160.58 180.01 C 160.43 179.36 160.13 178.08 159.98 177.43 C 158.05 177.60 155.68 178.57 154.18 176.79 C 152.71 174.56 152.59 171.33 154.01 169.05 C 155.33 167.14 157.93 168.05 159.86 167.96 C 160.11 167.45 160.60 166.42 160.85 165.91 C 158.13 165.41 154.84 164.34 152.58 166.58 M 163.26 165.21 C 163.20 170.30 163.21 175.39 163.24 180.47 C 163.89 180.48 165.20 180.49 165.86 180.49 C 165.88 178.37 165.89 176.24 165.91 174.11 C 167.72 174.08 169.52 174.05 171.34 174.02 C 171.32 176.19 171.29 178.36 171.28 180.53 C 172.21 180.46 173.14 180.40 174.08 180.33 C 174.05 175.14 174.09 169.95 174.03 164.76 C 170.06 164.89 171.62 169.07 171.29 171.70 C 169.50 171.68 167.71 171.66 165.92 171.65 C 165.89 169.50 165.88 167.35 165.84 165.21 C 165.20 165.21 163.90 165.21 163.26 165.21 M 181.03 165.21 C 179.34 170.27 177.82 175.38 176.11 180.44 C 176.97 180.49 177.83 180.54 178.70 180.59 C 179.14 179.42 179.58 178.25 180.03 177.08 C 181.58 177.09 183.14 177.10 184.69 177.11 C 185.19 178.26 185.69 179.42 186.20 180.58 C 186.89 180.55 188.28 180.50 188.97 180.47 C 187.25 175.43 185.68 170.33 184.04 165.27 C 183.28 165.25 181.78 165.22 181.03 165.21 M 191.17 165.27 C 191.17 170.31 191.20 175.36 191.13 180.40 C 191.84 180.40 193.26 180.41 193.98 180.41 C 193.93 177.08 193.89 173.74 193.85 170.41 C 196.48 174.01 197.36 179.57 202.09 181.07 C 202.07 175.99 202.45 170.88 201.96 165.81 C 201.38 165.48 200.21 164.80 199.63 164.47 C 199.38 168.04 199.46 171.62 199.43 175.20 C 197.52 171.88 195.70 168.51 193.76 165.22 C 193.11 165.23 191.82 165.26 191.17 165.27 M 206.08 165.20 C 206.01 170.11 205.65 175.04 206.16 179.93 C 206.78 180.20 208.03 180.72 208.65 180.98 C 208.81 177.43 208.73 173.89 208.70 170.35 C 211.23 173.98 212.13 179.44 216.78 181.03 C 217.07 175.75 216.94 170.47 216.89 165.19 C 216.21 165.21 214.84 165.25 214.16 165.27 C 214.14 168.62 214.19 171.96 214.22 175.31 C 212.34 171.96 210.50 168.58 208.58 165.25 C 207.96 165.24 206.71 165.21 206.08 165.20 M 220.72 165.21 C 220.67 170.29 220.69 175.38 220.69 180.46 C 224.00 180.42 227.32 180.43 230.63 180.27 C 229.81 176.80 225.96 178.30 223.41 177.94 C 223.40 176.64 223.39 175.34 223.39 174.04 C 225.12 173.97 226.87 173.91 228.61 173.85 C 228.54 173.27 228.40 172.12 228.32 171.54 C 226.68 171.61 225.05 171.68 223.41 171.75 C 223.39 170.41 223.37 169.08 223.36 167.76 C 225.83 167.29 229.80 169.02 230.60 165.50 C 227.31 165.28 224.01 165.29 220.72 165.21 M 232.83 164.69 C 232.74 169.94 232.82 175.19 232.76 180.45 C 235.97 180.42 239.18 180.41 242.39 180.23 C 241.46 177.11 238.06 178.20 235.62 177.92 C 235.56 173.83 235.89 169.72 235.42 165.65 C 234.77 165.41 233.48 164.93 232.83 164.69 Z" />
<path fill="#21b3e8" opacity="1.00" d=" M 272.64 76.29 C 277.94 76.35 283.24 76.38 288.54 76.27 C 297.45 96.14 306.34 116.04 315.01 136.02 C 306.23 156.06 296.98 175.92 288.02 195.89 C 282.70 195.79 277.38 195.79 272.06 195.92 C 281.61 176.00 290.92 155.96 300.50 136.05 C 291.10 116.18 282.04 96.16 272.64 76.29 Z" />
<path fill="#21b3e8" opacity="1.00" d=" M 309.20 76.39 C 311.35 76.20 313.51 76.26 315.66 76.24 C 315.73 80.22 315.69 84.20 315.68 88.18 C 318.87 88.17 322.06 88.17 325.25 88.19 C 325.24 84.21 325.21 80.24 325.27 76.26 C 327.43 76.26 329.59 76.27 331.75 76.27 C 331.79 86.11 331.82 95.95 331.74 105.79 C 329.58 105.79 327.43 105.79 325.28 105.78 C 325.20 101.81 325.24 97.84 325.25 93.88 C 322.06 93.89 318.87 93.88 315.68 93.88 C 315.63 97.82 315.88 101.76 315.58 105.69 C 313.47 105.88 311.33 105.86 309.23 105.67 C 309.05 95.92 309.09 86.14 309.20 76.39 Z" />
<path fill="#21b3e8" opacity="1.00" d=" M 334.61 76.23 C 340.72 76.82 347.92 74.69 353.03 79.09 C 357.40 83.10 357.51 89.64 356.88 95.11 C 356.39 99.74 353.24 104.30 348.51 105.28 C 343.94 106.16 339.25 105.59 334.63 105.81 C 334.56 95.95 334.59 86.09 334.61 76.23 M 341.16 82.00 C 341.02 88.00 341.05 94.01 341.14 100.02 C 344.01 99.89 347.80 100.20 349.24 97.05 C 350.90 93.32 350.89 88.72 349.25 84.98 C 347.82 81.86 344.00 82.20 341.16 82.00 Z" />
<path fill="#21b3e8" opacity="1.00" d=" M 193.70 124.66 C 195.71 123.52 198.34 124.73 199.22 126.76 C 200.02 128.56 200.30 130.54 200.78 132.44 C 197.05 132.49 193.33 132.49 189.60 132.43 C 190.45 129.69 190.74 126.04 193.70 124.66 Z" />
<path fill="#21b3e8" opacity="1.00" d=" M 112.23 143.39 C 114.13 141.27 117.19 141.35 119.77 140.89 C 119.86 143.05 119.93 145.21 120.03 147.38 C 117.80 148.27 115.50 149.52 113.02 149.02 C 111.22 147.73 110.78 145.11 112.23 143.39 Z" />
<path fill="#21b3e8" opacity="1.00" d=" M 180.51 174.87 C 181.16 172.82 181.81 170.78 182.48 168.75 C 183.11 170.75 183.73 172.76 184.36 174.77 C 183.40 174.80 181.48 174.85 180.51 174.87 Z" />
</g>
<g id="#ffffffff">
<path fill="#ffffff" opacity="1.00" d=" M 44.16 102.37 C 48.87 100.87 53.57 99.34 58.29 97.89 C 58.67 103.49 58.50 109.11 58.49 114.73 C 62.15 114.78 65.93 114.20 69.52 115.11 C 69.93 118.82 69.70 122.57 69.70 126.31 C 65.83 126.48 61.96 126.46 58.08 126.47 C 58.27 131.68 58.05 136.89 58.19 142.10 C 58.09 144.11 59.21 146.24 61.25 146.80 C 64.15 147.25 67.10 147.01 70.03 147.10 C 70.12 150.85 70.47 154.66 69.77 158.38 C 63.32 158.52 56.02 159.69 50.41 155.72 C 45.99 152.71 44.11 147.21 44.18 142.04 C 44.13 128.82 44.19 115.60 44.16 102.37 Z" />
<path fill="#ffffff" opacity="1.00" d=" M 217.88 102.26 C 222.33 100.05 227.21 98.84 231.97 97.48 C 232.17 112.66 231.80 127.86 232.09 143.04 C 232.70 147.69 238.28 146.80 241.64 146.98 C 241.76 150.80 241.76 154.63 241.69 158.45 C 234.99 158.73 227.16 159.25 222.10 153.95 C 216.62 148.82 217.91 140.78 217.74 134.04 C 217.97 123.45 217.12 112.80 217.88 102.26 Z" />
<path fill="#ffffff" opacity="1.00" d=" M 86.59 120.72 C 90.16 116.27 95.51 113.80 101.20 113.75 C 101.55 118.08 101.55 122.44 101.27 126.78 C 96.64 127.06 91.98 127.72 87.78 129.78 C 87.80 139.35 87.79 148.91 87.78 158.48 C 83.05 158.47 78.31 158.57 73.57 158.70 C 73.27 144.19 73.26 129.65 73.50 115.16 C 76.69 113.71 80.55 114.75 84.00 114.49 C 84.90 116.55 85.75 118.63 86.59 120.72 Z" />
<path fill="#ffffff" opacity="1.00" d=" M 182.00 119.90 C 188.40 113.20 200.01 111.81 207.56 117.32 C 214.38 123.09 214.81 132.82 214.94 141.09 C 206.46 141.15 197.98 140.96 189.51 141.19 C 190.72 143.26 191.78 145.88 194.36 146.53 C 198.95 147.92 203.71 146.41 208.10 145.03 C 209.53 148.42 210.89 151.84 212.19 155.29 C 203.93 160.38 192.77 160.73 184.55 155.39 C 179.37 152.13 176.55 146.09 176.16 140.11 C 175.70 133.04 177.03 125.28 182.00 119.90 M 193.70 124.66 C 190.74 126.04 190.45 129.69 189.60 132.43 C 193.33 132.49 197.05 132.49 200.78 132.44 C 200.30 130.54 200.02 128.56 199.22 126.76 C 198.34 124.73 195.71 123.52 193.70 124.66 Z" />
<path fill="#ffffff" opacity="1.00" d=" M 104.29 114.87 C 109.52 114.80 114.76 114.70 120.00 114.74 C 124.42 114.70 129.01 116.69 131.32 120.59 C 133.89 124.56 134.08 129.45 134.12 134.03 C 134.13 142.21 134.20 150.40 134.05 158.58 C 130.61 158.64 127.18 158.63 123.74 158.68 C 123.09 157.35 122.45 156.03 121.81 154.70 C 117.66 157.91 112.41 160.62 107.03 159.18 C 96.57 157.42 93.13 141.51 101.39 135.28 C 106.97 131.63 113.98 132.45 120.31 132.19 C 119.62 130.26 119.60 127.40 117.21 126.74 C 113.00 125.78 108.59 126.91 104.37 126.00 C 104.00 122.30 104.25 118.58 104.29 114.87 M 112.23 143.39 C 110.78 145.11 111.22 147.73 113.02 149.02 C 115.50 149.52 117.80 148.27 120.03 147.38 C 119.93 145.21 119.86 143.05 119.77 140.89 C 117.19 141.35 114.13 141.27 112.23 143.39 Z" />
<path fill="#ffffff" opacity="1.00" d=" M 134.52 114.65 C 139.32 114.29 144.16 114.26 148.96 114.57 C 150.11 115.40 149.99 117.02 150.41 118.25 C 152.22 127.79 154.08 137.34 155.98 146.87 C 158.46 136.69 159.82 126.26 162.19 116.06 C 162.29 114.14 164.71 114.74 165.96 114.54 C 169.62 114.49 173.27 114.57 176.93 114.68 C 172.57 129.33 168.26 143.98 163.84 158.61 C 158.30 158.57 152.76 158.58 147.22 158.60 C 143.32 145.54 139.49 132.47 135.53 119.43 C 135.08 117.86 134.70 116.27 134.52 114.65 Z" />
<path fill="#ffffff" opacity="1.00" d=" M 152.58 166.58 C 154.84 164.34 158.13 165.41 160.85 165.91 C 160.60 166.42 160.11 167.45 159.86 167.96 C 157.93 168.05 155.33 167.14 154.01 169.05 C 152.59 171.33 152.71 174.56 154.18 176.79 C 155.68 178.57 158.05 177.60 159.98 177.43 C 160.13 178.08 160.43 179.36 160.58 180.01 C 157.84 180.11 154.34 181.21 152.29 178.70 C 149.44 175.44 149.51 169.67 152.58 166.58 Z" />
<path fill="#ffffff" opacity="1.00" d=" M 163.26 165.21 C 163.90 165.21 165.20 165.21 165.84 165.21 C 165.88 167.35 165.89 169.50 165.92 171.65 C 167.71 171.66 169.50 171.68 171.29 171.70 C 171.62 169.07 170.06 164.89 174.03 164.76 C 174.09 169.95 174.05 175.14 174.08 180.33 C 173.14 180.40 172.21 180.46 171.28 180.53 C 171.29 178.36 171.32 176.19 171.34 174.02 C 169.52 174.05 167.72 174.08 165.91 174.11 C 165.89 176.24 165.88 178.37 165.86 180.49 C 165.20 180.49 163.89 180.48 163.24 180.47 C 163.21 175.39 163.20 170.30 163.26 165.21 Z" />
<path fill="#ffffff" opacity="1.00" d=" M 181.03 165.21 C 181.78 165.22 183.28 165.25 184.04 165.27 C 185.68 170.33 187.25 175.43 188.97 180.47 C 188.28 180.50 186.89 180.55 186.20 180.58 C 185.69 179.42 185.19 178.26 184.69 177.11 C 183.14 177.10 181.58 177.09 180.03 177.08 C 179.58 178.25 179.14 179.42 178.70 180.59 C 177.83 180.54 176.97 180.49 176.11 180.44 C 177.82 175.38 179.34 170.27 181.03 165.21 M 180.51 174.87 C 181.48 174.85 183.40 174.80 184.36 174.77 C 183.73 172.76 183.11 170.75 182.48 168.75 C 181.81 170.78 181.16 172.82 180.51 174.87 Z" />
<path fill="#ffffff" opacity="1.00" d=" M 191.17 165.27 C 191.82 165.26 193.11 165.23 193.76 165.22 C 195.70 168.51 197.52 171.88 199.43 175.20 C 199.46 171.62 199.38 168.04 199.63 164.47 C 200.21 164.80 201.38 165.48 201.96 165.81 C 202.45 170.88 202.07 175.99 202.09 181.07 C 197.36 179.57 196.48 174.01 193.85 170.41 C 193.89 173.74 193.93 177.08 193.98 180.41 C 193.26 180.41 191.84 180.40 191.13 180.40 C 191.20 175.36 191.17 170.31 191.17 165.27 Z" />
<path fill="#ffffff" opacity="1.00" d=" M 206.08 165.20 C 206.71 165.21 207.96 165.24 208.58 165.25 C 210.50 168.58 212.34 171.96 214.22 175.31 C 214.19 171.96 214.14 168.62 214.16 165.27 C 214.84 165.25 216.21 165.21 216.89 165.19 C 216.94 170.47 217.07 175.75 216.78 181.03 C 212.13 179.44 211.23 173.98 208.70 170.35 C 208.73 173.89 208.81 177.43 208.65 180.98 C 208.03 180.72 206.78 180.20 206.16 179.93 C 205.65 175.04 206.01 170.11 206.08 165.20 Z" />
<path fill="#ffffff" opacity="1.00" d=" M 220.72 165.21 C 224.01 165.29 227.31 165.28 230.60 165.50 C 229.80 169.02 225.83 167.29 223.36 167.76 C 223.37 169.08 223.39 170.41 223.41 171.75 C 225.05 171.68 226.68 171.61 228.32 171.54 C 228.40 172.12 228.54 173.27 228.61 173.85 C 226.87 173.91 225.12 173.97 223.39 174.04 C 223.39 175.34 223.40 176.64 223.41 177.94 C 225.96 178.30 229.81 176.80 230.63 180.27 C 227.32 180.43 224.00 180.42 220.69 180.46 C 220.69 175.38 220.67 170.29 220.72 165.21 Z" />
<path fill="#ffffff" opacity="1.00" d=" M 232.83 164.69 C 233.48 164.93 234.77 165.41 235.42 165.65 C 235.89 169.72 235.56 173.83 235.62 177.92 C 238.06 178.20 241.46 177.11 242.39 180.23 C 239.18 180.41 235.97 180.42 232.76 180.45 C 232.82 175.19 232.74 169.94 232.83 164.69 Z" />
</g>
</svg>
