<?xml version="1.0" encoding="UTF-8" standalone="yes"?>
<svg xmlns="http://www.w3.org/2000/svg" xmlns:xlink="http://www.w3.org/1999/xlink" width="250.66666666666666px" height="106.66666666666666px" viewBox="0 0 188 80" version="1.1">
  <g id="surface1">
    <path style=" stroke:none;fill-rule:nonzero;fill:rgb(93.333333%,11.764706%,13.72549%);fill-opacity:1;" d="M 39.828125 80 C 61.828125 80 79.65625 62.09375 79.65625 40.003906 C 79.65625 17.914062 61.828125 0 39.828125 0 C 17.832031 0 0 17.914062 0 40.003906 C 0 62.09375 17.832031 80 39.828125 80 "/>
    <path style=" stroke:none;fill-rule:nonzero;fill:rgb(100%,100%,100%);fill-opacity:1;" d="M 41.15625 53.195312 L 30.800781 53.195312 L 41.15625 37.816406 Z M 57.484375 53.171875 L 52.070312 53.171875 L 52.070312 6.980469 C 52.070312 6.617188 51.835938 6.292969 51.488281 6.183594 C 51.140625 6.082031 50.769531 6.210938 50.566406 6.515625 L 13.167969 62.066406 C 13 62.324219 12.984375 62.648438 13.125 62.925781 C 13.269531 63.1875 13.550781 63.363281 13.851562 63.363281 L 41.453125 63.363281 L 41.453125 69.613281 C 41.453125 70.078125 41.816406 70.445312 42.273438 70.445312 L 51.246094 70.445312 C 51.707031 70.445312 52.070312 70.078125 52.070312 69.613281 L 52.070312 63.363281 L 57.484375 63.363281 C 57.941406 63.363281 58.3125 62.988281 58.3125 62.53125 L 58.3125 54 C 58.3125 53.539062 57.941406 53.171875 57.484375 53.171875 "/>
    <path style=" stroke:none;fill-rule:nonzero;fill:rgb(43.529412%,42.745098%,42.745098%);fill-opacity:1;" d="M 98.816406 15.378906 L 103.65625 15.378906 L 103.65625 36.761719 L 128.675781 36.761719 L 128.675781 15.378906 L 133.519531 15.378906 L 133.519531 63.941406 L 128.675781 63.941406 L 128.675781 41.152344 L 103.65625 41.152344 L 103.65625 63.941406 L 98.816406 63.941406 L 98.816406 15.378906 "/>
    <path style="fill:none;stroke-width:0.578;stroke-linecap:butt;stroke-linejoin:miter;stroke:rgb(43.529412%,42.745098%,42.745098%);stroke-opacity:1;stroke-miterlimit:4;" d="M -0.0000238433 0.000172849 L 0.899704 0.000172849 L 0.899704 -3.958053 L 5.55084 -3.958053 L 5.55084 0.000172849 L 6.451294 0.000172849 L 6.451294 -8.989352 L 5.55084 -8.989352 L 5.55084 -4.770812 L 0.899704 -4.770812 L 0.899704 -8.989352 L -0.0000238433 -8.989352 Z M -0.0000238433 0.000172849 " transform="matrix(5.37923,0,0,-5.402121,98.816535,15.37984)"/>
    <path style=" stroke:none;fill-rule:nonzero;fill:rgb(43.529412%,42.745098%,42.745098%);fill-opacity:1;" d="M 149.933594 59.542969 L 156.921875 59.542969 C 158.007812 59.542969 159.230469 59.519531 160.582031 59.476562 C 161.929688 59.433594 163.328125 59.292969 164.789062 59.050781 C 166.25 58.8125 167.71875 58.429688 169.199219 57.90625 C 170.675781 57.375 172.113281 56.609375 173.507812 55.605469 C 174.25 54.992188 175.050781 54.203125 175.921875 53.242188 C 176.792969 52.277344 177.613281 51.140625 178.371094 49.828125 C 179.132812 48.515625 179.773438 47.007812 180.296875 45.296875 C 180.816406 43.59375 181.082031 41.6875 181.082031 39.59375 C 181.082031 36.355469 180.34375 33.324219 178.859375 30.503906 C 177.378906 27.679688 175.378906 25.347656 172.855469 23.511719 C 171.769531 22.8125 170.65625 22.21875 169.527344 21.738281 C 168.390625 21.257812 167.195312 20.875 165.933594 20.59375 C 164.667969 20.304688 163.300781 20.101562 161.816406 19.964844 C 160.339844 19.835938 158.707031 19.773438 156.921875 19.773438 L 149.933594 19.773438 Z M 145.09375 15.378906 L 159.210938 15.378906 C 162.210938 15.378906 165.097656 15.730469 167.859375 16.429688 C 170.625 17.128906 172.992188 18.113281 174.949219 19.382812 C 177.078125 20.695312 178.84375 22.222656 180.242188 23.976562 C 181.636719 25.726562 182.753906 27.527344 183.605469 29.386719 C 184.453125 31.246094 185.050781 33.082031 185.402344 34.898438 C 185.746094 36.710938 185.921875 38.34375 185.921875 39.785156 C 185.921875 40.925781 185.78125 42.335938 185.496094 44.023438 C 185.21875 45.707031 184.679688 47.480469 183.898438 49.335938 C 183.113281 51.191406 182 53.054688 180.570312 54.914062 C 179.128906 56.769531 177.257812 58.445312 174.949219 59.929688 C 172.992188 61.199219 170.625 62.1875 167.859375 62.886719 C 165.097656 63.582031 162.210938 63.933594 159.210938 63.933594 L 145.09375 63.933594 L 145.09375 15.378906 "/>
    <path style="fill:none;stroke-width:0.578;stroke-linecap:butt;stroke-linejoin:miter;stroke:rgb(43.529412%,42.745098%,42.745098%);stroke-opacity:1;stroke-miterlimit:4;" d="M -0.000323887 -0.000194391 L 1.298799 -0.000194391 C 1.500675 -0.000194391 1.727967 0.00414418 1.979223 0.0120982 C 2.229752 0.0200523 2.489722 0.0460837 2.761311 0.0909157 C 3.032899 0.135024 3.30594 0.205888 3.58116 0.302783 C 3.855653 0.401124 4.122884 0.54285 4.382128 0.728686 C 4.520101 0.842212 4.668966 0.988277 4.830903 1.166159 C 4.992839 1.344764 5.145335 1.555184 5.286213 1.798144 C 5.427817 2.041105 5.546909 2.32022 5.644216 2.636935 C 5.740797 2.952205 5.790177 3.305076 5.790177 3.692655 C 5.790177 4.292101 5.65293 4.853224 5.376985 5.375299 C 5.101765 5.898097 4.729965 6.329785 4.260857 6.66964 C 4.058981 6.799074 3.852022 6.908984 3.642158 6.997925 C 3.430842 7.086866 3.209359 7.157729 2.974079 7.209792 C 2.738799 7.263301 2.484639 7.300902 2.208693 7.326211 C 1.9342 7.350073 1.63066 7.361642 1.298799 7.361642 L -0.000323887 7.361642 Z M -0.000323887 -0.000194391 " transform="matrix(5.37923,0,0,-5.402121,149.935336,59.541919)"/>
    <path style="fill:none;stroke-width:0.578;stroke-linecap:butt;stroke-linejoin:miter;stroke:rgb(43.529412%,42.745098%,42.745098%);stroke-opacity:1;stroke-miterlimit:4;" d="M -0.0000517915 0.000124921 L 2.622884 0.000124921 C 3.182037 0.000124921 3.717952 -0.0649537 4.232082 -0.193665 C 4.746213 -0.323822 5.184821 -0.506765 5.54936 -0.741048 C 5.94585 -0.984008 6.27408 -1.266739 6.533323 -1.590685 C 6.791841 -1.915355 7.000979 -2.248703 7.159284 -2.594342 C 7.316138 -2.937813 7.427968 -3.277668 7.493324 -3.613907 C 7.557227 -3.950147 7.589905 -4.250954 7.589905 -4.517777 C 7.589905 -4.728921 7.563036 -4.989958 7.510752 -5.302335 C 7.457741 -5.61399 7.358982 -5.942275 7.213021 -6.285745 C 7.06706 -6.629939 6.860827 -6.974133 6.594322 -7.319049 C 6.32709 -7.663243 5.979254 -7.972728 5.54936 -8.248227 C 5.184821 -8.483233 4.746213 -8.66473 4.232082 -8.794164 C 3.717952 -8.924321 3.182037 -8.988677 2.622884 -8.988677 L -0.0000517915 -8.988677 Z M -0.0000517915 0.000124921 " transform="matrix(5.37923,0,0,-5.402121,145.094029,15.379581)"/>
  </g>
</svg>