<?xml version="1.0" encoding="UTF-8" standalone="no"?>
<!-- Created with Inkscape (http://www.inkscape.org/) -->

<svg
   xmlns:dc="http://purl.org/dc/elements/1.1/"
   xmlns:cc="http://creativecommons.org/ns#"
   xmlns:rdf="http://www.w3.org/1999/02/22-rdf-syntax-ns#"
   xmlns:svg="http://www.w3.org/2000/svg"
   xmlns="http://www.w3.org/2000/svg"
   version="1.1"
   width="200.00002"
   height="32.440857"
   id="svg2">
  <metadata
     id="metadata8">
    <rdf:RDF>
      <cc:Work
         rdf:about="">
        <dc:format>image/svg+xml</dc:format>
        <dc:type
           rdf:resource="http://purl.org/dc/dcmitype/StillImage" />
        <dc:title></dc:title>
      </cc:Work>
    </rdf:RDF>
  </metadata>
  <defs
     id="defs6" />
  <path
     d="M 11.817197,2.7774208e-4 11.740447,0.18589774 C 11.630332,0.45274774 0,32.375128 0,32.410558 c 0,0.0162 21.754752,0.0303 48.343241,0.0303 l 48.341459,0 0.11244,-0.29985 c 0.614761,-1.64649 11.63005,-31.91609026 11.64942,-32.01227026 l 0.025,-0.12849999792 -48.327185,0 -48.327178,0 z m 115.177063,0 C 119.12562,0.00227774 111.25197,0.02077774 111.23265,0.05197774 c -0.0353,0.0572 -11.797568,32.32413026 -11.797568,32.36388026 0,0.0137 7.085878,0.0186 15.747338,0.0107 l 15.74913,-0.0143 5.89342,-16.1632 c 3.242,-8.8897503 5.89684,-16.18247026 5.89878,-16.20603026 0.003,-0.0313 -7.86083,-0.045 -15.72949,-0.0427999979 z M 128.63093,4.9227677 c 3.72583,0.001 4.78863,0.0178 4.77257,0.0607 -0.0147,0.0394 -0.35792,0.97749 -0.76211,2.08466 l -0.73534,2.01326 -7.07676,0.0143 -7.07675,0.0143 -0.67466,1.7705303 c -0.37182,0.97379 -0.74033,1.94378 -0.81922,2.15604 l -0.14457,0.38552 0.27129,-0.13564 c 0.74237,-0.37564 2.27816,-0.79362 3.72489,-1.01377 0.77961,-0.11864 1.08634,-0.13443 2.57012,-0.13387 1.83889,6.3e-4 2.34358,0.0513 3.64457,0.36946 2.34672,0.5739 3.94647,1.69508 4.65834,3.26441 0.64059,1.41221 0.61947,3.07491 -0.0625,5.04029 -0.43306,1.24817 -1.04337,2.20902 -2.04003,3.2073 -0.37866,0.37927 -0.86665,0.8204 -1.08337,0.97986 -1.92636,1.41724 -4.41995,2.29532 -7.43015,2.61474 -1.01075,0.10724 -3.3795,0.10344 -4.39776,-0.007 -1.48929,-0.16175 -3.00425,-0.56528 -3.98904,-1.06018 -1.49593,-0.75176 -2.38286,-1.74931 -2.81642,-3.16981 -0.14132,-0.46297 -0.15497,-0.58519 -0.15885,-1.53137 -0.002,-0.56542 0.0168,-1.09845 0.041,-1.18511 l 0.0428,-0.15884 3.12698,0.0161 3.1252,0.0143 0.0411,0.44977 c 0.1252,1.38124 0.66059,2.07189 1.87583,2.41663 0.31434,0.0892 0.58541,0.10309 1.88118,0.10173 1.69416,-0.002 2.20674,-0.0739 3.2073,-0.44977 0.70952,-0.26651 1.09443,-0.5113 1.62596,-1.03697 0.4009,-0.39648 0.50677,-0.54482 0.75319,-1.05661 1.09505,-2.27439 0.42801,-4.02093 -1.81158,-4.74044 -2.13398,-0.68558 -4.96333,-0.3185 -6.76442,0.87991 l -0.48546,0.32483 -2.85569,-0.0161 -2.85569,-0.0143 2.26671,-6.2254 2.26848,-6.2254003 9.47018,-0.0143 c 1.89249,-0.003 3.43068,-0.004 4.67262,-0.004 z m -113.599298,0.0464 11.0533,0 c 8.818001,0 11.046354,0.0144 11.024743,0.0714 -0.0149,0.0393 -0.394277,1.08038 -0.842428,2.3131 l -0.815656,2.24172 -3.856965,0.0143 -3.856964,0.0143 -3.239422,8.9383003 -3.241207,8.93831 -3.287612,0.0143 -3.287611,0.0161 0.183835,-0.50153 c 0.100454,-0.27512 1.558063,-4.30352 3.241206,-8.95258 l 3.060942,-8.4528403 -3.906939,-0.0143 c -3.689267,-0.0139 -3.906648,-0.0202 -3.869459,-0.11423 0.02976,-0.0752 1.15114,-3.16548 1.584908,-4.3692 l 0.05533,-0.15707 z m 24.742758,0 9.475532,0 c 9.001142,0 9.473793,0.005 9.436264,0.1 -0.0217,0.055 -0.388168,1.09587 -0.813872,2.31311 l -0.774599,2.21316 -6.182569,0 c -5.835756,0 -6.185446,0.006 -6.221832,0.1 -0.09599,0.24887 -1.401073,4.0112903 -1.401073,4.0390203 0,0.0171 2.622975,0.0303 5.829175,0.0303 5.526659,0 5.827303,0.005 5.795263,0.0999 -0.01859,0.055 -0.38604,1.08945 -0.81744,2.29883 l -0.78353,2.19888 -5.854162,0.0286 -5.854162,0.0286 -0.781745,2.19888 c -0.430778,1.20938 -0.78578,2.21815 -0.787099,2.24171 -0.0013,0.0236 2.737386,0.0428 6.086187,0.0428 4.84658,0 6.083393,0.0146 6.062984,0.0714 -0.0141,0.0393 -0.395188,1.0804 -0.847783,2.31311 l -0.822795,2.23993 -9.466608,0.002 -9.464824,0 0.132076,-0.35697 c 0.07343,-0.19632 1.917445,-5.27231 4.096128,-11.27997 L 39.77439,4.9694477 z m 25.777945,0 c 1.953742,-5.1e-4 3.269764,0.0204 3.269764,0.0518 0,0.0289 -1.413566,4.0578 -3.141258,8.9525803 -1.727692,4.89482 -3.141257,8.90705 -3.141257,8.91511 0,0.008 2.441613,0.0143 5.425808,0.0143 4.304471,0 5.425038,0.0148 5.422239,0.0714 -0.0019,0.0393 -0.35583,1.07374 -0.787102,2.29883 l -0.785314,2.22744 -8.863339,0.0143 -8.865131,0.0143 0.101734,-0.2713 c 0.05609,-0.1493 1.900245,-5.22565 4.09791,-11.27997 l 3.996183,-11.0068903 3.269763,-0.002 z m 16.834285,0 9.52908,0 c 9.05304,-2.2e-4 9.52911,0.005 9.49159,0.1 -0.0217,0.055 -0.38816,1.09587 -0.81387,2.31311 l -0.774602,2.21316 -6.182566,0 c -5.709847,0 -6.186427,0.007 -6.22005,0.0946 -0.115198,0.30022 -1.402857,4.0061203 -1.402857,4.0372403 0,0.0206 2.622973,0.0375 5.829175,0.0375 5.526523,0 5.828746,0.005 5.797048,0.0999 -0.01839,0.055 -0.387803,1.08945 -0.821011,2.29883 l -0.788884,2.19888 -5.850592,0.0286 -5.850592,0.0286 -0.783533,2.19888 c -0.431249,1.20938 -0.784389,2.21815 -0.785314,2.24171 -9.14e-4,0.0236 2.722545,0.0428 6.052278,0.0428 3.329733,0 6.054631,0.0193 6.05406,0.0428 -5.71e-4,0.0236 -0.357195,1.05804 -0.792453,2.29883 l -0.792454,2.256 -9.538001,0.0143 -9.538,0.0143 0.522945,-1.44213 c 0.287277,-0.79326 2.128305,-5.86929 4.090774,-11.27997 L 82.38662,4.9692577 z"
     id="path3011"
     style="fill:#d3334b;fill-opacity:1" />
  <path
     d="m 145.59372,0.05738774 -0.0553,0.15706 c -0.031,0.0864 -2.67262,7.32769996 -5.86845,16.09181026 -3.19584,8.76411 -5.82272,15.97972 -5.8381,16.03469 -0.0266,0.0951 1.29554,0.0999 27.18438,0.0999 l 27.21292,0 5.87201,-16.12036 c 3.22997,-8.8662003 5.88477,-16.15249026 5.89878,-16.19176026 0.0204,-0.0571 -5.44201,-0.0714 -27.18972,-0.0714 l -27.2165,0 z m 8.74376,1.83655996 c 4.57329,-3.4e-4 10.8781,10e-4 17.81236,0.005 l 25.21573,0.0143 -5.2152,14.3070103 c -2.86833,7.86885 -5.21457,14.31342 -5.2152,14.32128 -0.003,0.0431 -50.43325,0.007 -50.43325,-0.0357 0,-0.0519 10.3864,-28.5753603 10.41613,-28.6050803 0.005,-0.005 2.84615,-0.007 7.41943,-0.007 z m 18.62267,2.95564 -4.09257,11.3335203 c -2.25094,6.23323 -4.10837,11.37629 -4.12825,11.42811 -0.0335,0.0872 0.38752,0.0924 5.69531,0.075 6.35553,-0.0209 6.08854,-0.007 7.68359,-0.41586 4.16287,-1.06617 7.68636,-4.109 9.95921,-8.60098 1.5131,-2.9904 2.29092,-6.12449 2.05967,-8.30291 -0.30983,-2.9187103 -1.93173,-4.6476303 -4.99389,-5.3240803 l -0.69428,-0.15349 -5.7453,-0.0196 -5.74349,-0.0196 z m -20.62522,0.005 c -2.34094,0 -2.51599,0.007 -2.55227,0.0999 -0.0495,0.12697 -1.92382,5.3114703 -2.40056,6.6394703 -0.19735,0.54972 -1.58349,4.38748 -3.07879,8.5278 -1.49531,4.14033 -2.71826,7.53899 -2.71826,7.5533 0,0.0143 1.13384,0.0189 2.52014,0.0107 l 2.52015,-0.0143 1.73305,-4.79756 c 0.95267,-2.63865 1.75815,-4.85538 1.79015,-4.92606 l 0.0589,-0.12851 4.59766,0 c 3.64185,0 4.59885,0.0149 4.59765,0.0714 -8.5e-4,0.0393 -0.79333,2.26242 -1.7616,4.94034 l -1.76161,4.86895 2.52907,0 2.52729,0 0.0839,-0.24274 c 0.0773,-0.22368 8.07491,-22.3691203 8.13693,-22.5313803 0.0219,-0.0571 -0.48619,-0.069 -2.50408,-0.0571 l -2.53264,0.0143 -1.57241,4.35493 -1.57242,4.3549203 -4.64406,0 c -2.55414,0 -4.63088,-0.0198 -4.61551,-0.0446 0.0327,-0.0529 3.06561,-8.4457903 3.10557,-8.5938403 0.0254,-0.0941 -0.12017,-0.0999 -2.48624,-0.0999 z m 24.13593,4.25497 2.47552,0.002 c 2.35404,0.002 2.50211,0.008 3.01811,0.12851 1.35095,0.31615 2.22822,1.0006803 2.60224,2.0311103 0.40725,1.12194 0.28632,2.58057 -0.38373,4.6512 -0.78303,2.41974 -1.69736,3.97095 -3.16981,5.38119 -1.1536,1.10485 -2.54383,1.82264 -4.03902,2.08287 -0.40723,0.0709 -1.01893,0.0875 -3.09842,0.0875 l -2.58976,0 0.16956,-0.47119 c 0.0934,-0.25916 1.26083,-3.49108 2.59332,-7.18206 l 2.42199,-6.7108703 z"
     id="path2997"
     style="fill:#a8a9ad;fill-opacity:1" />
</svg>
