<?xml version="1.0" encoding="UTF-8" standalone="yes"?>
<svg xmlns="http://www.w3.org/2000/svg" xmlns:xlink="http://www.w3.org/1999/xlink" width="174.66666666666666px" height="106.66666666666666px" viewBox="0 0 131 80" version="1.1">
  <defs>
    <clipPath id="clip1">
      <path d="M 0 0.00390625 L 68 0.00390625 L 68 68 L 0 68 Z M 0 0.00390625 "/>
    </clipPath>
    <clipPath id="clip2">
      <path d="M 16 70 L 25 70 L 25 79.96875 L 16 79.96875 Z M 16 70 "/>
    </clipPath>
    <clipPath id="clip3">
      <path d="M 25 70 L 32 70 L 32 79.96875 L 25 79.96875 Z M 25 70 "/>
    </clipPath>
    <clipPath id="clip4">
      <path d="M 32 70 L 35 70 L 35 79.96875 L 32 79.96875 Z M 32 70 "/>
    </clipPath>
    <clipPath id="clip5">
      <path d="M 35 70 L 44 70 L 44 79.96875 L 35 79.96875 Z M 35 70 "/>
    </clipPath>
    <clipPath id="clip6">
      <path d="M 43 70 L 52 70 L 52 79.96875 L 43 79.96875 Z M 43 70 "/>
    </clipPath>
  </defs>
  <g id="surface1">
    <path style=" stroke:none;fill-rule:nonzero;fill:rgb(85.490196%,21.960784%,64.313725%);fill-opacity:1;" d="M 26.296875 43.996094 L 26.296875 26.792969 L 30.765625 26.792969 L 36.914062 37.46875 L 36.753906 26.792969 L 40.867188 26.792969 L 40.867188 43.996094 L 36.425781 43.996094 L 30.441406 33.953125 L 30.386719 43.996094 L 26.296875 43.996094 "/>
    <path style=" stroke:none;fill-rule:nonzero;fill:rgb(85.490196%,21.960784%,64.313725%);fill-opacity:1;" d="M 48.007812 43.996094 L 48.027344 30.726562 L 42.980469 30.726562 L 42.960938 26.792969 L 57.558594 26.792969 L 57.582031 30.726562 L 52.347656 30.726562 L 52.328125 43.996094 L 48.007812 43.996094 "/>
    <path style=" stroke:none;fill-rule:nonzero;fill:rgb(85.490196%,21.960784%,64.313725%);fill-opacity:1;" d="M 14.808594 43.996094 L 14.828125 30.726562 L 9.78125 30.726562 L 9.761719 26.792969 L 24.359375 26.792969 L 24.382812 30.726562 L 19.148438 30.726562 L 19.128906 43.996094 L 14.808594 43.996094 "/>
    <path style=" stroke:none;fill-rule:nonzero;fill:rgb(85.490196%,21.960784%,64.313725%);fill-opacity:1;" d="M 74.59375 21.125 L 82.519531 21.125 L 82.519531 31.890625 L 92.691406 31.890625 L 92.691406 21.125 L 100.617188 21.125 L 100.617188 49.882812 L 92.691406 49.882812 L 92.691406 38.953125 L 82.519531 38.953125 L 82.519531 49.882812 L 74.59375 49.882812 L 74.59375 21.125 "/>
    <path style=" stroke:none;fill-rule:nonzero;fill:rgb(85.490196%,21.960784%,64.313725%);fill-opacity:1;" d="M 114.996094 42.816406 C 119.734375 42.816406 122.882812 40.1875 122.882812 35.546875 L 122.882812 35.464844 C 122.882812 30.863281 119.734375 28.191406 114.996094 28.191406 L 111.769531 28.191406 L 111.769531 42.816406 Z M 103.84375 21.125 L 114.875 21.125 C 125.085938 21.125 131.011719 27.039062 131.011719 35.339844 L 131.011719 35.421875 C 131.011719 43.71875 125.007812 49.882812 114.710938 49.882812 L 103.84375 49.882812 L 103.84375 21.125 "/>
    <g clip-path="url(#clip1)" clip-rule="nonzero">
      <path style=" stroke:none;fill-rule:nonzero;fill:rgb(85.490196%,21.960784%,64.313725%);fill-opacity:1;" d="M 5.050781 33.84375 C 5.050781 41.796875 8.246094 48.96875 13.429688 54.183594 C 18.613281 59.394531 25.75 62.609375 33.65625 62.609375 C 41.5625 62.609375 48.699219 59.394531 53.882812 54.183594 C 59.066406 48.96875 62.261719 41.796875 62.261719 33.84375 C 62.261719 25.894531 59.066406 18.71875 53.882812 13.503906 C 48.699219 8.292969 41.5625 5.078125 33.65625 5.078125 C 25.75 5.078125 18.613281 8.292969 13.429688 13.503906 C 8.246094 18.71875 5.050781 25.894531 5.050781 33.84375 Z M 0 33.84375 C 0 15.152344 15.066406 0 33.65625 0 C 52.246094 0 67.3125 15.152344 67.3125 33.84375 C 67.3125 52.539062 52.246094 67.6875 33.65625 67.6875 C 15.066406 67.6875 0 52.539062 0 33.84375 "/>
    </g>
    <g clip-path="url(#clip2)" clip-rule="nonzero">
      <path style=" stroke:none;fill-rule:nonzero;fill:rgb(85.490196%,21.960784%,64.313725%);fill-opacity:1;" d="M 22.875 78.738281 C 22.1875 79.628906 21.289062 79.96875 20.429688 79.96875 C 17.675781 79.96875 16.054688 77.898438 16.054688 75.316406 C 16.054688 72.65625 17.675781 70.589844 20.429688 70.589844 C 22.25 70.589844 23.972656 71.714844 24.183594 73.75 L 22.3125 73.75 C 22.089844 72.757812 21.351562 72.242188 20.429688 72.242188 C 18.671875 72.242188 18.011719 73.75 18.011719 75.316406 C 18.011719 76.808594 18.671875 78.3125 20.429688 78.3125 C 21.703125 78.3125 22.4375 77.625 22.550781 76.382812 L 20.582031 76.382812 L 20.582031 74.914062 L 24.320312 74.914062 L 24.320312 79.753906 L 23.074219 79.753906 L 22.875 78.738281 "/>
    </g>
    <g clip-path="url(#clip3)" clip-rule="nonzero">
      <path style=" stroke:none;fill-rule:nonzero;fill:rgb(85.490196%,21.960784%,64.313725%);fill-opacity:1;" d="M 25.65625 70.800781 L 27.613281 70.800781 L 27.613281 78.101562 L 31.953125 78.101562 L 31.953125 79.753906 L 25.65625 79.753906 L 25.65625 70.800781 "/>
    </g>
    <g clip-path="url(#clip4)" clip-rule="nonzero">
      <path style=" stroke:none;fill-rule:nonzero;fill:rgb(85.490196%,21.960784%,64.313725%);fill-opacity:1;" d="M 32.800781 79.753906 L 34.757812 79.753906 L 34.757812 70.800781 L 32.800781 70.800781 Z M 32.800781 79.753906 "/>
    </g>
    <g clip-path="url(#clip5)" clip-rule="nonzero">
      <path style=" stroke:none;fill-rule:nonzero;fill:rgb(85.490196%,21.960784%,64.313725%);fill-opacity:1;" d="M 38.449219 72.457031 L 35.777344 72.457031 L 35.777344 70.800781 L 43.074219 70.800781 L 43.074219 72.457031 L 40.40625 72.457031 L 40.40625 79.753906 L 38.449219 79.753906 L 38.449219 72.457031 "/>
    </g>
    <g clip-path="url(#clip6)" clip-rule="nonzero">
      <path style=" stroke:none;fill-rule:nonzero;fill:rgb(85.490196%,21.960784%,64.313725%);fill-opacity:1;" d="M 43.523438 78.199219 L 48.296875 72.457031 L 43.894531 72.457031 L 43.894531 70.800781 L 50.90625 70.800781 L 50.90625 72.355469 L 46.128906 78.101562 L 51.027344 78.101562 L 51.027344 79.753906 L 43.523438 79.753906 L 43.523438 78.199219 "/>
    </g>
  </g>
</svg>