<?xml version="1.0" encoding="UTF-8" ?>
<!DOCTYPE svg PUBLIC "-//W3C//DTD SVG 1.1//EN" "http://www.w3.org/Graphics/SVG/1.1/DTD/svg11.dtd">
<svg width="1024pt" height="519pt" viewBox="0 0 1024 519" version="1.1" xmlns="http://www.w3.org/2000/svg">
<g id="#44a72fff">
<path fill="#44a72f" opacity="1.00" d=" M 0.00 0.00 L 1024.00 0.00 L 1024.00 519.00 L 0.00 519.00 L 0.00 0.00 M 564.50 29.49 C 547.76 49.17 534.05 71.21 520.96 93.41 C 520.53 93.47 519.68 93.60 519.26 93.66 C 519.76 94.11 520.26 94.56 520.76 95.01 C 510.80 87.58 499.21 81.91 486.86 79.95 C 483.47 79.53 479.48 79.06 476.73 81.57 C 467.78 89.19 461.59 99.36 455.19 109.08 C 438.61 135.98 424.31 164.20 410.58 192.64 C 410.25 193.75 409.54 194.10 408.44 193.70 C 400.86 181.11 392.83 168.77 384.13 156.91 C 378.01 148.95 371.95 140.76 363.99 134.52 C 361.04 132.25 356.74 130.07 353.24 132.50 C 341.13 140.31 331.97 151.65 322.15 162.00 C 299.61 187.60 278.03 214.04 257.23 241.09 C 289.25 221.51 321.14 201.72 353.09 182.04 C 353.88 181.73 355.58 180.51 356.09 181.68 C 359.50 197.33 363.95 213.05 372.05 227.00 C 375.84 233.18 380.76 239.67 388.24 241.34 C 392.17 242.29 395.84 240.03 398.96 237.91 C 407.23 230.82 414.05 222.26 420.51 213.54 C 439.51 187.33 455.99 159.42 473.19 132.02 C 478.49 124.09 483.24 115.72 489.43 108.42 C 490.72 107.26 492.01 104.96 494.07 105.69 C 497.64 107.73 500.38 110.87 503.12 113.88 C 517.55 130.48 529.63 149.15 545.56 164.42 C 549.36 167.82 554.15 171.92 559.65 170.42 C 566.17 168.47 571.39 163.80 576.05 159.03 C 583.58 151.62 590.13 143.27 596.08 134.55 C 596.55 134.50 597.48 134.38 597.94 134.33 C 605.11 142.41 612.35 150.43 620.03 158.04 C 634.73 173.38 649.94 188.42 667.42 200.63 C 695.94 220.58 728.47 235.13 762.74 241.58 C 741.26 210.44 719.00 179.83 696.72 149.25 C 674.07 118.38 651.19 87.67 627.20 57.83 C 615.99 44.40 605.21 30.47 592.18 18.72 C 589.50 16.86 586.64 13.54 583.05 14.77 C 575.28 17.28 569.97 23.83 564.50 29.49 M 794.95 290.17 C 779.67 289.92 763.78 290.23 749.57 296.55 C 750.64 307.00 751.56 317.46 752.57 327.92 C 758.57 325.70 764.53 323.21 770.86 322.06 C 776.31 321.08 781.87 321.26 787.39 321.39 C 782.73 353.28 776.81 385.55 780.57 417.86 C 793.89 417.08 807.05 414.47 820.33 413.21 C 818.94 404.56 819.38 395.74 819.56 387.02 C 820.52 368.29 822.83 349.65 825.48 331.09 C 825.62 329.51 825.99 327.91 825.66 326.34 C 822.36 323.79 817.97 323.14 814.66 320.59 C 821.38 319.93 828.19 320.94 834.86 319.67 C 842.55 318.91 849.88 316.09 856.33 311.89 C 855.86 301.56 854.85 291.25 854.31 280.91 C 835.92 289.84 814.99 290.43 794.95 290.17 M 688.90 289.63 C 662.43 329.81 639.02 372.62 625.21 418.90 C 638.29 417.39 651.37 415.59 664.38 413.62 C 667.69 403.82 671.35 394.12 675.92 384.83 C 678.64 388.25 680.78 392.08 683.45 395.53 C 685.58 396.14 687.90 395.47 690.10 395.40 C 696.47 394.51 702.91 394.33 709.33 394.39 C 712.51 403.05 714.84 412.18 719.92 420.00 C 733.53 416.24 747.13 412.38 760.66 408.33 C 759.42 406.56 758.23 404.76 757.31 402.81 C 748.69 386.21 744.03 367.96 739.19 349.99 C 733.47 328.44 728.95 306.49 721.39 285.47 C 710.59 287.06 699.74 288.32 688.90 289.63 M 172.76 295.77 C 171.33 324.99 164.50 353.70 163.46 382.95 C 162.89 394.89 163.59 406.82 164.86 418.68 C 177.56 417.39 190.10 414.81 202.78 413.23 C 202.25 400.79 202.25 388.33 202.98 375.90 C 203.85 370.47 202.92 364.82 204.74 359.55 C 207.33 364.00 208.69 369.09 211.72 373.29 C 221.36 373.10 230.99 372.55 240.63 372.14 C 240.45 387.75 240.56 403.47 243.51 418.86 C 256.26 416.36 268.94 413.52 281.69 411.03 C 280.12 396.45 279.12 381.73 280.07 367.07 C 280.98 340.53 284.46 314.10 289.81 288.09 C 277.39 289.35 265.09 291.55 252.68 292.91 C 250.92 293.12 250.89 295.31 250.38 296.61 C 247.03 310.02 244.48 323.67 243.19 337.43 C 241.45 337.86 239.69 338.30 237.89 338.35 C 227.73 338.82 217.55 338.86 207.39 338.56 C 209.86 321.68 211.15 304.61 210.57 287.53 C 197.98 290.35 185.34 292.94 172.76 295.77 M 331.80 291.86 C 320.86 293.90 309.76 294.90 298.77 296.46 C 298.79 301.28 298.50 306.11 299.07 310.92 C 299.67 315.73 299.27 320.66 300.54 325.39 C 306.50 325.44 312.32 323.98 318.25 323.67 C 315.21 325.94 311.89 327.77 308.71 329.82 C 307.09 349.27 299.73 368.40 302.50 388.09 C 303.65 397.14 308.48 405.82 316.15 410.93 C 325.08 417.27 336.31 418.54 346.94 419.13 C 364.30 418.36 382.28 417.44 398.33 410.11 C 397.49 398.80 397.71 387.43 397.40 376.09 C 387.49 381.71 376.40 385.42 365.06 386.63 C 358.44 386.93 350.56 387.74 345.43 382.64 C 340.75 376.85 341.73 368.74 342.49 361.86 C 345.28 363.12 346.88 365.86 349.28 367.64 C 362.72 366.97 376.13 365.00 389.63 365.18 C 389.26 354.88 387.56 344.68 387.00 334.40 C 373.33 334.56 359.71 335.95 346.07 336.66 C 346.56 331.32 347.56 326.04 347.74 320.68 C 365.25 317.95 383.01 316.27 400.73 317.84 C 398.83 308.50 396.48 299.26 394.54 289.93 C 394.32 289.08 394.21 287.65 392.97 287.74 C 372.51 285.29 351.98 288.65 331.80 291.86 M 421.60 295.69 C 420.60 307.49 419.36 319.26 417.66 330.99 C 413.64 360.21 408.78 390.02 413.68 419.44 C 426.48 416.61 439.51 414.89 452.38 412.38 C 447.11 370.51 461.91 329.37 459.59 287.50 C 446.95 290.35 434.25 292.89 421.60 295.69 M 581.67 294.46 C 570.73 316.42 559.87 338.45 547.71 359.78 C 547.02 361.10 546.11 362.31 545.00 363.31 C 537.71 338.34 535.24 311.73 523.33 288.27 C 512.78 290.66 502.28 293.24 491.74 295.67 C 486.31 331.48 469.28 364.66 466.47 400.97 C 466.45 407.08 465.18 413.28 466.26 419.33 C 478.03 417.10 489.95 415.61 501.76 413.61 C 501.78 396.26 505.27 379.08 509.68 362.35 C 510.06 362.36 510.83 362.39 511.22 362.40 C 515.96 379.98 518.51 398.31 526.15 414.98 C 526.69 416.62 528.69 415.53 529.87 415.49 C 538.91 412.97 548.05 410.80 557.05 408.15 C 557.71 403.83 559.40 399.78 560.99 395.75 C 565.21 385.31 570.19 375.20 575.44 365.25 C 575.92 365.27 576.89 365.32 577.37 365.34 C 576.51 372.88 577.36 380.43 577.41 387.99 C 578.28 397.93 579.61 408.05 583.68 417.26 C 584.04 419.55 586.37 418.70 587.93 418.52 C 598.92 416.70 609.90 414.77 620.93 413.16 C 619.43 406.08 616.66 399.28 615.76 392.03 C 610.50 357.49 615.04 322.50 618.99 288.08 C 606.52 289.99 594.03 291.96 581.67 294.46 M 373.40 446.03 C 373.51 464.44 373.26 482.85 373.52 501.25 C 377.78 501.16 382.04 501.37 386.29 501.17 C 386.52 500.92 386.97 500.43 387.19 500.18 C 387.41 492.72 387.08 485.25 387.35 477.79 C 394.21 485.29 400.06 493.67 406.85 501.25 C 412.90 501.17 418.94 501.30 424.99 501.15 C 416.88 490.97 407.94 481.43 400.00 471.13 C 408.23 463.09 415.61 454.24 423.79 446.16 C 418.85 445.99 413.90 446.02 408.96 445.89 C 407.57 445.97 405.83 445.69 404.90 447.00 C 399.01 453.56 393.42 460.39 387.36 466.80 C 387.13 459.91 387.28 453.02 387.26 446.13 C 382.64 445.95 378.02 446.10 373.40 446.03 M 491.55 446.08 C 491.59 464.46 491.47 482.84 491.61 501.22 C 496.16 501.24 500.72 501.20 505.28 501.23 C 505.58 490.12 504.59 478.95 505.59 467.87 C 512.54 478.80 518.92 490.13 526.17 500.84 C 531.13 501.81 536.50 500.88 541.62 501.29 C 541.86 482.84 541.69 464.39 541.70 445.94 C 537.20 446.02 532.70 445.84 528.20 446.02 C 528.13 457.15 528.49 468.29 528.12 479.41 C 521.70 469.90 515.99 459.92 509.91 450.19 C 508.75 448.75 508.33 446.14 506.16 445.97 C 501.29 445.86 496.42 446.22 491.55 446.08 M 546.99 501.21 C 552.02 501.21 557.05 501.23 562.08 501.24 C 563.46 497.73 564.93 494.25 566.01 490.64 C 572.75 490.33 579.50 490.61 586.24 490.48 C 587.85 494.04 588.96 497.81 590.74 501.29 C 595.80 501.12 600.87 501.28 605.94 501.19 C 600.26 485.75 593.37 470.77 587.27 455.48 C 585.76 452.42 584.93 448.92 583.07 446.10 C 578.67 445.58 574.23 446.20 569.82 446.08 C 562.27 464.48 554.19 482.67 546.99 501.21 M 611.30 446.10 C 611.45 464.47 611.21 482.85 611.43 501.23 C 623.05 501.23 634.67 501.22 646.29 501.22 C 646.33 497.01 646.31 492.80 646.33 488.60 C 639.36 488.50 632.38 488.71 625.42 488.49 C 625.55 474.28 625.52 460.08 625.46 445.88 C 620.74 446.26 616.02 445.78 611.30 446.10 M 449.95 446.23 C 442.76 464.70 434.37 482.70 427.29 501.21 C 432.29 501.26 437.30 501.15 442.31 501.27 C 443.95 497.75 445.02 494.00 446.63 490.47 C 453.23 490.55 459.84 490.50 466.45 490.48 C 468.09 493.99 469.35 497.67 470.91 501.22 C 476.12 501.26 481.32 501.22 486.53 501.20 C 478.75 482.77 471.49 464.12 463.37 445.85 C 458.89 446.04 454.40 445.66 449.95 446.23 M 152.29 469.40 C 152.28 470.79 152.29 472.18 152.33 473.58 C 158.56 473.96 164.80 473.72 171.04 473.78 C 225.36 473.77 279.68 473.83 334.00 473.75 C 337.28 474.67 337.47 468.47 334.08 469.25 C 273.49 469.29 212.88 468.99 152.29 469.40 M 684.08 474.44 C 744.29 474.56 804.49 474.51 864.70 474.47 C 866.54 473.32 866.68 471.25 865.17 469.73 C 804.76 469.76 744.35 469.70 683.94 469.76 C 680.40 469.28 680.77 474.93 684.08 474.44 Z" />
<path fill="#44a72f" opacity="1.00" d=" M 695.86 341.45 C 696.22 341.34 696.94 341.12 697.30 341.01 C 699.24 348.51 701.79 355.86 703.47 363.42 C 696.78 363.72 690.14 364.86 683.43 364.66 C 687.43 356.84 691.73 349.19 695.86 341.45 Z" />
<path fill="#44a72f" opacity="1.00" d=" M 456.21 463.80 C 457.58 464.53 457.92 466.12 458.44 467.46 C 459.72 471.25 461.12 474.99 462.61 478.71 C 458.71 478.79 454.82 478.80 450.92 478.73 C 452.38 473.65 454.60 468.83 456.21 463.80 Z" />
<path fill="#44a72f" opacity="1.00" d=" M 575.80 464.08 C 576.11 464.14 576.73 464.27 577.04 464.34 C 578.55 469.18 580.65 473.83 582.06 478.71 C 578.19 478.81 574.31 478.80 570.44 478.72 C 572.15 473.81 574.11 468.99 575.80 464.08 Z" />
</g>
<g id="#f8c014ff">
<path fill="#f8c014" opacity="1.00" d=" M 564.50 29.49 C 569.97 23.83 575.28 17.28 583.05 14.77 C 586.64 13.54 589.50 16.86 592.18 18.72 C 605.21 30.47 615.99 44.40 627.20 57.83 C 651.19 87.67 674.07 118.38 696.72 149.25 C 719.00 179.83 741.26 210.44 762.74 241.58 C 728.47 235.13 695.94 220.58 667.42 200.63 C 649.94 188.42 634.73 173.38 620.03 158.04 C 612.35 150.43 605.11 142.41 597.94 134.33 C 597.48 134.38 596.55 134.50 596.08 134.55 C 590.13 143.27 583.58 151.62 576.05 159.03 C 571.39 163.80 566.17 168.47 559.65 170.42 C 554.15 171.92 549.36 167.82 545.56 164.42 C 529.63 149.15 517.55 130.48 503.12 113.88 C 500.38 110.87 497.64 107.73 494.07 105.69 C 492.01 104.96 490.72 107.26 489.43 108.42 C 483.24 115.72 478.49 124.09 473.19 132.02 C 455.99 159.42 439.51 187.33 420.51 213.54 C 414.05 222.26 407.23 230.82 398.96 237.91 C 395.84 240.03 392.17 242.29 388.24 241.34 C 380.76 239.67 375.84 233.18 372.05 227.00 C 363.95 213.05 359.50 197.33 356.09 181.68 C 355.58 180.51 353.88 181.73 353.09 182.04 C 321.14 201.72 289.25 221.51 257.23 241.09 C 278.03 214.04 299.61 187.60 322.15 162.00 C 331.97 151.65 341.13 140.31 353.24 132.50 C 356.74 130.07 361.04 132.25 363.99 134.52 C 371.95 140.76 378.01 148.95 384.13 156.91 C 392.83 168.77 400.86 181.11 408.44 193.70 C 409.54 194.10 410.25 193.75 410.58 192.64 C 424.31 164.20 438.61 135.98 455.19 109.08 C 461.59 99.36 467.78 89.19 476.73 81.57 C 479.48 79.06 483.47 79.53 486.86 79.95 C 499.21 81.91 510.80 87.58 520.76 95.01 C 520.26 94.56 519.76 94.11 519.26 93.66 C 519.68 93.60 520.53 93.47 520.96 93.41 C 534.05 71.21 547.76 49.17 564.50 29.49 Z" />
</g>
<g id="#ffffffff">
<path fill="#ffffff" opacity="1.00" d=" M 794.95 290.17 C 814.99 290.43 835.92 289.84 854.31 280.91 C 854.85 291.25 855.86 301.56 856.33 311.89 C 849.88 316.09 842.55 318.91 834.86 319.67 C 828.19 320.94 821.38 319.93 814.66 320.59 C 817.97 323.14 822.36 323.79 825.66 326.34 C 825.99 327.91 825.62 329.51 825.48 331.09 C 822.83 349.65 820.52 368.29 819.56 387.02 C 819.38 395.74 818.94 404.56 820.33 413.21 C 807.05 414.47 793.89 417.08 780.57 417.86 C 776.81 385.55 782.73 353.28 787.39 321.39 C 781.87 321.26 776.31 321.08 770.86 322.06 C 764.53 323.21 758.57 325.70 752.57 327.92 C 751.56 317.46 750.64 307.00 749.57 296.55 C 763.78 290.23 779.67 289.92 794.95 290.17 Z" />
<path fill="#ffffff" opacity="1.00" d=" M 688.90 289.63 C 699.74 288.32 710.59 287.06 721.39 285.47 C 728.95 306.49 733.47 328.44 739.19 349.99 C 744.03 367.96 748.69 386.21 757.31 402.81 C 758.23 404.76 759.42 406.56 760.66 408.33 C 747.13 412.38 733.53 416.24 719.92 420.00 C 714.84 412.18 712.51 403.05 709.33 394.39 C 702.91 394.33 696.47 394.51 690.10 395.40 C 687.90 395.47 685.58 396.14 683.45 395.53 C 680.78 392.08 678.64 388.25 675.92 384.83 C 671.35 394.12 667.69 403.82 664.38 413.62 C 651.37 415.59 638.29 417.39 625.21 418.90 C 639.02 372.62 662.43 329.81 688.90 289.63 M 695.86 341.45 C 691.73 349.19 687.43 356.84 683.43 364.66 C 690.14 364.86 696.78 363.72 703.47 363.42 C 701.79 355.86 699.24 348.51 697.30 341.01 C 696.94 341.12 696.22 341.34 695.86 341.45 Z" />
<path fill="#ffffff" opacity="1.00" d=" M 172.76 295.77 C 185.34 292.94 197.98 290.35 210.57 287.53 C 211.15 304.61 209.86 321.68 207.39 338.56 C 217.55 338.86 227.73 338.82 237.89 338.35 C 239.69 338.30 241.45 337.86 243.19 337.43 C 244.48 323.67 247.03 310.02 250.38 296.61 C 250.89 295.31 250.92 293.12 252.68 292.91 C 265.09 291.55 277.39 289.35 289.81 288.09 C 284.46 314.10 280.98 340.53 280.07 367.07 C 279.12 381.73 280.12 396.45 281.69 411.03 C 268.94 413.52 256.26 416.36 243.51 418.86 C 240.56 403.47 240.45 387.75 240.63 372.14 C 230.99 372.55 221.36 373.10 211.72 373.29 C 208.69 369.09 207.33 364.00 204.74 359.55 C 202.92 364.82 203.85 370.47 202.98 375.90 C 202.25 388.33 202.25 400.79 202.78 413.23 C 190.10 414.81 177.56 417.39 164.86 418.68 C 163.59 406.82 162.89 394.89 163.46 382.95 C 164.50 353.70 171.33 324.99 172.76 295.77 Z" />
<path fill="#ffffff" opacity="1.00" d=" M 331.80 291.86 C 351.98 288.65 372.51 285.29 392.97 287.74 C 394.21 287.65 394.32 289.08 394.54 289.93 C 396.48 299.26 398.83 308.50 400.73 317.84 C 383.01 316.27 365.25 317.95 347.74 320.68 C 347.56 326.04 346.56 331.32 346.07 336.66 C 359.71 335.95 373.33 334.56 387.00 334.40 C 387.56 344.68 389.26 354.88 389.63 365.18 C 376.13 365.00 362.72 366.97 349.28 367.64 C 346.88 365.86 345.28 363.12 342.49 361.86 C 341.73 368.74 340.75 376.85 345.43 382.64 C 350.56 387.74 358.44 386.93 365.06 386.63 C 376.40 385.42 387.49 381.71 397.40 376.09 C 397.71 387.43 397.49 398.80 398.33 410.11 C 382.28 417.44 364.30 418.36 346.94 419.13 C 336.31 418.54 325.08 417.27 316.15 410.93 C 308.48 405.82 303.65 397.14 302.50 388.09 C 299.73 368.40 307.09 349.27 308.71 329.82 C 311.89 327.77 315.21 325.94 318.25 323.67 C 312.32 323.98 306.50 325.44 300.54 325.39 C 299.27 320.66 299.67 315.73 299.07 310.92 C 298.50 306.11 298.79 301.28 298.77 296.46 C 309.76 294.90 320.86 293.90 331.80 291.86 Z" />
<path fill="#ffffff" opacity="1.00" d=" M 421.60 295.69 C 434.25 292.89 446.95 290.35 459.59 287.50 C 461.91 329.37 447.11 370.51 452.38 412.38 C 439.51 414.89 426.48 416.61 413.68 419.44 C 408.78 390.02 413.64 360.21 417.66 330.99 C 419.36 319.26 420.60 307.49 421.60 295.69 Z" />
<path fill="#ffffff" opacity="1.00" d=" M 581.67 294.46 C 594.03 291.96 606.52 289.99 618.99 288.08 C 615.04 322.50 610.50 357.49 615.76 392.03 C 616.66 399.28 619.43 406.08 620.93 413.16 C 609.90 414.77 598.92 416.70 587.93 418.52 C 586.37 418.70 584.04 419.55 583.68 417.26 C 579.61 408.05 578.28 397.93 577.41 387.99 C 577.36 380.43 576.51 372.88 577.37 365.34 C 576.89 365.32 575.92 365.27 575.44 365.25 C 570.19 375.20 565.21 385.31 560.99 395.75 C 559.40 399.78 557.71 403.83 557.05 408.15 C 548.05 410.80 538.91 412.97 529.87 415.49 C 528.69 415.53 526.69 416.62 526.15 414.98 C 518.51 398.31 515.96 379.98 511.22 362.40 C 510.83 362.39 510.06 362.36 509.68 362.35 C 505.27 379.08 501.78 396.26 501.76 413.61 C 489.95 415.61 478.03 417.10 466.26 419.33 C 465.18 413.28 466.45 407.08 466.47 400.97 C 469.28 364.66 486.31 331.48 491.74 295.67 C 502.28 293.24 512.78 290.66 523.33 288.27 C 535.24 311.73 537.71 338.34 545.00 363.31 C 546.11 362.31 547.02 361.10 547.71 359.78 C 559.87 338.45 570.73 316.42 581.67 294.46 Z" />
<path fill="#ffffff" opacity="1.00" d=" M 373.40 446.03 C 378.02 446.10 382.64 445.95 387.26 446.13 C 387.28 453.02 387.13 459.91 387.36 466.80 C 393.42 460.39 399.01 453.56 404.90 447.00 C 405.83 445.69 407.57 445.97 408.96 445.89 C 413.90 446.02 418.85 445.99 423.79 446.16 C 415.61 454.24 408.23 463.09 400.00 471.13 C 407.94 481.43 416.88 490.97 424.99 501.15 C 418.94 501.30 412.90 501.17 406.85 501.25 C 400.06 493.67 394.21 485.29 387.35 477.79 C 387.08 485.25 387.41 492.72 387.19 500.18 C 386.97 500.43 386.52 500.92 386.29 501.17 C 382.04 501.37 377.78 501.16 373.52 501.25 C 373.26 482.85 373.51 464.44 373.40 446.03 Z" />
<path fill="#ffffff" opacity="1.00" d=" M 491.55 446.08 C 496.42 446.22 501.29 445.86 506.16 445.97 C 508.33 446.14 508.75 448.75 509.91 450.19 C 515.99 459.92 521.70 469.90 528.12 479.41 C 528.49 468.29 528.13 457.15 528.20 446.02 C 532.70 445.84 537.20 446.02 541.70 445.94 C 541.69 464.39 541.86 482.84 541.62 501.29 C 536.50 500.88 531.13 501.81 526.17 500.84 C 518.92 490.13 512.54 478.80 505.59 467.87 C 504.59 478.95 505.58 490.12 505.28 501.23 C 500.72 501.20 496.16 501.24 491.61 501.22 C 491.47 482.84 491.59 464.46 491.55 446.08 Z" />
<path fill="#ffffff" opacity="1.00" d=" M 546.99 501.21 C 554.19 482.67 562.27 464.48 569.82 446.08 C 574.23 446.20 578.67 445.58 583.07 446.10 C 584.93 448.92 585.76 452.42 587.27 455.48 C 593.37 470.77 600.26 485.75 605.94 501.19 C 600.87 501.28 595.80 501.12 590.74 501.29 C 588.96 497.81 587.85 494.04 586.24 490.48 C 579.50 490.61 572.75 490.33 566.01 490.64 C 564.93 494.25 563.46 497.73 562.08 501.24 C 557.05 501.23 552.02 501.21 546.99 501.21 M 575.80 464.08 C 574.11 468.99 572.15 473.81 570.44 478.72 C 574.31 478.80 578.19 478.81 582.06 478.71 C 580.65 473.83 578.55 469.18 577.04 464.34 C 576.73 464.27 576.11 464.14 575.80 464.08 Z" />
<path fill="#ffffff" opacity="1.00" d=" M 611.30 446.10 C 616.02 445.78 620.74 446.26 625.46 445.88 C 625.52 460.08 625.55 474.28 625.42 488.49 C 632.38 488.71 639.36 488.50 646.33 488.60 C 646.31 492.80 646.33 497.01 646.29 501.22 C 634.67 501.22 623.05 501.23 611.43 501.23 C 611.21 482.85 611.45 464.47 611.30 446.10 Z" />
<path fill="#ffffff" opacity="1.00" d=" M 449.95 446.23 C 454.40 445.66 458.89 446.04 463.37 445.85 C 471.49 464.12 478.75 482.77 486.53 501.20 C 481.32 501.22 476.12 501.26 470.91 501.22 C 469.35 497.67 468.09 493.99 466.45 490.48 C 459.84 490.50 453.23 490.55 446.63 490.47 C 445.02 494.00 443.95 497.75 442.31 501.27 C 437.30 501.15 432.29 501.26 427.29 501.21 C 434.37 482.70 442.76 464.70 449.95 446.23 M 456.21 463.80 C 454.60 468.83 452.38 473.65 450.92 478.73 C 454.82 478.80 458.71 478.79 462.61 478.71 C 461.12 474.99 459.72 471.25 458.44 467.46 C 457.92 466.12 457.58 464.53 456.21 463.80 Z" />
<path fill="#ffffff" opacity="1.00" d=" M 152.29 469.40 C 212.88 468.99 273.49 469.29 334.08 469.25 C 337.47 468.47 337.28 474.67 334.00 473.75 C 279.68 473.83 225.36 473.77 171.04 473.78 C 164.80 473.72 158.56 473.96 152.33 473.58 C 152.29 472.18 152.28 470.79 152.29 469.40 Z" />
<path fill="#ffffff" opacity="1.00" d=" M 684.08 474.44 C 680.77 474.93 680.40 469.28 683.94 469.76 C 744.35 469.70 804.76 469.76 865.17 469.73 C 866.68 471.25 866.54 473.32 864.70 474.47 C 804.49 474.51 744.29 474.56 684.08 474.44 Z" />
</g>
</svg>
