<?xml version="1.0" encoding="UTF-8" standalone="yes"?>
<svg xmlns="http://www.w3.org/2000/svg" xmlns:xlink="http://www.w3.org/1999/xlink" width="448px" height="106.66666666666666px" viewBox="0 0 336 80" version="1.1">
  <g id="surface1">
    <path style=" stroke:none;fill-rule:nonzero;fill:rgb(100%,34.901961%,41.960784%);fill-opacity:0.74902;" d="M 78.488281 38.988281 C 78.488281 60.082031 61.320312 77.183594 40.144531 77.183594 C 18.96875 77.183594 1.800781 60.082031 1.800781 38.988281 C 1.800781 17.890625 18.96875 0.789062 40.144531 0.789062 C 61.320312 0.789062 78.488281 17.890625 78.488281 38.988281 Z M 78.488281 38.988281 "/>
    <path style=" stroke:none;fill-rule:nonzero;fill:rgb(100%,34.901961%,41.960784%);fill-opacity:0.74902;" d="M 163.875 38.988281 C 163.875 60.082031 146.710938 77.183594 125.53125 77.183594 C 104.355469 77.183594 87.1875 60.082031 87.1875 38.988281 C 87.1875 17.890625 104.355469 0.789062 125.53125 0.789062 C 146.710938 0.789062 163.875 17.890625 163.875 38.988281 Z M 163.875 38.988281 "/>
    <path style=" stroke:none;fill-rule:nonzero;fill:rgb(100%,34.901961%,41.960784%);fill-opacity:0.74902;" d="M 249.265625 38.988281 C 249.265625 60.082031 232.097656 77.183594 210.917969 77.183594 C 189.742188 77.183594 172.574219 60.082031 172.574219 38.988281 C 172.574219 17.890625 189.742188 0.789062 210.917969 0.789062 C 232.097656 0.789062 249.265625 17.890625 249.265625 38.988281 Z M 249.265625 38.988281 "/>
    <path style=" stroke:none;fill-rule:nonzero;fill:rgb(100%,34.901961%,41.960784%);fill-opacity:0.74902;" d="M 334.652344 38.988281 C 334.652344 60.082031 317.484375 77.183594 296.304688 77.183594 C 275.128906 77.183594 257.960938 60.082031 257.960938 38.988281 C 257.960938 17.890625 275.128906 0.789062 296.304688 0.789062 C 317.484375 0.789062 334.652344 17.890625 334.652344 38.988281 Z M 334.652344 38.988281 "/>
    <path style=" stroke:none;fill-rule:nonzero;fill:rgb(100%,100%,100%);fill-opacity:1;" d="M 26.101562 55.21875 L 26.019531 22.796875 L 35.230469 22.796875 L 35.257812 35.015625 L 46.28125 35.015625 L 46.394531 22.753906 L 55.1875 22.769531 L 55.199219 55.007812 L 46.28125 55.039062 L 45.941406 42.75 L 35.160156 42.789062 L 35.269531 55.179688 Z M 26.101562 55.21875 "/>
    <path style=" stroke:none;fill-rule:nonzero;fill:rgb(100%,100%,100%);fill-opacity:1;" d="M 112.542969 55.292969 L 112.542969 22.683594 L 139.386719 22.839844 L 139.464844 30.269531 L 121.601562 30.429688 L 121.601562 35.1875 L 137.234375 35.03125 L 137.074219 42.515625 L 121.761719 42.277344 L 121.761719 47.089844 L 139.363281 47.167969 L 139.28125 55.292969 Z M 112.542969 55.292969 "/>
    <path style=" stroke:none;fill-rule:nonzero;fill:rgb(100%,100%,100%);fill-opacity:1;" d="M 198.546875 55.15625 L 198.546875 22.816406 L 213.480469 22.816406 C 217.234375 22.816406 219.566406 22.550781 221.265625 23.128906 C 224.824219 24.605469 227.328125 29.828125 227.363281 33.316406 C 227.46875 39.191406 225.796875 42.523438 220.875 43.25 C 223.152344 47.457031 225.65625 50.878906 228.167969 55.15625 L 217.660156 55.15625 C 214.757812 49.757812 214.371094 49.929688 211.777344 45.511719 C 208.402344 45.613281 210.46875 45.582031 207.722656 45.488281 L 207.777344 55.15625 Z M 207.722656 38.804688 C 215.585938 38.644531 208.957031 38.84375 216.253906 38.632812 C 218.085938 37.242188 218.023438 36.347656 218.289062 34.332031 C 217.800781 32.214844 217.519531 32.019531 216.1875 30.878906 C 213.15625 31.035156 211.328125 30.875 207.605469 31.015625 Z M 207.722656 38.804688 "/>
    <path style=" stroke:none;fill-rule:nonzero;fill:rgb(100%,100%,100%);fill-opacity:1;" d="M 279.425781 39.105469 C 279.460938 34.046875 280.824219 29.382812 284.242188 26.21875 C 287.789062 23.054688 293.441406 22.289062 297.589844 22.265625 C 302.957031 22.265625 306.613281 24.140625 309.832031 27.097656 C 313.054688 30.054688 314.664062 33.847656 314.664062 39.109375 C 314.664062 44.332031 313.066406 48.335938 309.871094 51.285156 C 306.675781 54.234375 303.039062 55.707031 297.691406 55.707031 C 292.277344 55.707031 287.015625 54.878906 283.820312 51.945312 C 280.625 49.011719 279.425781 44.253906 279.425781 39.105469 Z M 288.375 38.910156 C 288.339844 44.855469 290.917969 48.246094 297.375 48.382812 C 303.445312 48.199219 305.421875 43.15625 305.425781 39.441406 C 305.402344 34.171875 302.277344 30.527344 297.199219 30.382812 C 290.941406 30.421875 288.585938 33.726562 288.375 38.910156 Z M 288.375 38.910156 "/>
  </g>
</svg>