<?xml version="1.0" encoding="UTF-8" standalone="yes"?>
<svg xmlns="http://www.w3.org/2000/svg" xmlns:xlink="http://www.w3.org/1999/xlink" width="114.66666666666666px" height="106.66666666666666px" viewBox="0 0 86 80" version="1.1">
  <defs>
    <linearGradient id="linear0" gradientUnits="userSpaceOnUse" x1="100.744" y1="133.564" x2="135.76801" y2="199.524" gradientTransform="matrix(0.61586,0,0,0.622657,-8.355496,-76.584332)">
      <stop offset="0" style="stop-color:rgb(58.823529%,40.392157%,14.117647%);stop-opacity:1;"/>
      <stop offset="0.521569" style="stop-color:rgb(48.627451%,31.764706%,10.980392%);stop-opacity:1;"/>
      <stop offset="1" style="stop-color:rgb(88.627451%,78.823529%,21.568627%);stop-opacity:1;"/>
    </linearGradient>
    <linearGradient id="linear1" gradientUnits="userSpaceOnUse" x1="86.846001" y1="127.888" x2="128.827" y2="127.888" gradientTransform="matrix(0.61586,0,0,0.622657,-8.355496,-76.584332)">
      <stop offset="0" style="stop-color:rgb(96.470588%,84.313725%,23.137255%);stop-opacity:1;"/>
      <stop offset="0.478431" style="stop-color:rgb(96.470588%,85.490196%,32.156863%);stop-opacity:1;"/>
      <stop offset="1" style="stop-color:rgb(96.470588%,92.54902%,67.843137%);stop-opacity:1;"/>
    </linearGradient>
    <linearGradient id="linear2" gradientUnits="userSpaceOnUse" x1="58.184799" y1="210.27299" x2="38.697399" y2="122.815" gradientTransform="matrix(0.61586,0,0,0.622657,-8.355496,-76.584332)">
      <stop offset="0" style="stop-color:rgb(93.333333%,71.372549%,17.647059%);stop-opacity:1;"/>
      <stop offset="0.509804" style="stop-color:rgb(83.921569%,48.627451%,16.470588%);stop-opacity:1;"/>
      <stop offset="1" style="stop-color:rgb(94.901961%,91.764706%,51.372549%);stop-opacity:1;"/>
    </linearGradient>
    <linearGradient id="linear3" gradientUnits="userSpaceOnUse" x1="37.898499" y1="127.888" x2="80.0159" y2="127.888" gradientTransform="matrix(0.61586,0,0,0.622657,-8.355496,-76.584332)">
      <stop offset="0" style="stop-color:rgb(96.470588%,84.313725%,23.137255%);stop-opacity:1;"/>
      <stop offset="0.478431" style="stop-color:rgb(96.470588%,85.490196%,32.156863%);stop-opacity:1;"/>
      <stop offset="1" style="stop-color:rgb(96.470588%,92.54902%,67.843137%);stop-opacity:1;"/>
    </linearGradient>
    <linearGradient id="linear4" gradientUnits="userSpaceOnUse" x1="37.912498" y1="205.22" x2="80.0103" y2="205.22" gradientTransform="matrix(0.61586,0,0,0.622657,-8.355496,-76.584332)">
      <stop offset="0" style="stop-color:rgb(61.568627%,41.960784%,17.647059%);stop-opacity:1;"/>
      <stop offset="1" style="stop-color:rgb(98.039216%,79.607843%,19.607843%);stop-opacity:1;"/>
    </linearGradient>
    <linearGradient id="linear5" gradientUnits="userSpaceOnUse" x1="109.091" y1="153.214" x2="85.452103" y2="129.575" gradientTransform="matrix(0.61586,0,0,0.622657,-8.355496,-76.584332)">
      <stop offset="0" style="stop-color:rgb(93.333333%,71.372549%,17.647059%);stop-opacity:1;"/>
      <stop offset="0.509804" style="stop-color:rgb(83.921569%,48.627451%,16.470588%);stop-opacity:1;"/>
      <stop offset="1" style="stop-color:rgb(94.901961%,91.764706%,51.372549%);stop-opacity:1;"/>
    </linearGradient>
    <linearGradient id="linear6" gradientUnits="userSpaceOnUse" x1="110.786" y1="198.457" x2="83.750801" y2="171.42101" gradientTransform="matrix(0.61586,0,0,0.622657,-8.355496,-76.584332)">
      <stop offset="0" style="stop-color:rgb(93.333333%,71.372549%,17.647059%);stop-opacity:1;"/>
      <stop offset="0.509804" style="stop-color:rgb(83.921569%,48.627451%,16.470588%);stop-opacity:1;"/>
      <stop offset="1" style="stop-color:rgb(94.901961%,91.764706%,51.372549%);stop-opacity:1;"/>
    </linearGradient>
    <linearGradient id="linear7" gradientUnits="userSpaceOnUse" x1="86.837601" y1="205.22" x2="128.821" y2="205.22" gradientTransform="matrix(0.61586,0,0,0.622657,-8.355496,-76.584332)">
      <stop offset="0" style="stop-color:rgb(61.568627%,41.960784%,17.647059%);stop-opacity:1;"/>
      <stop offset="1" style="stop-color:rgb(98.039216%,79.607843%,19.607843%);stop-opacity:1;"/>
    </linearGradient>
    <linearGradient id="linear8" gradientUnits="userSpaceOnUse" x1="59.576" y1="122.7" x2="79.437698" y2="160.099" gradientTransform="matrix(0.61586,0,0,0.622657,-8.355496,-76.584332)">
      <stop offset="0" style="stop-color:rgb(58.823529%,40.392157%,14.117647%);stop-opacity:1;"/>
      <stop offset="0.521569" style="stop-color:rgb(48.627451%,31.764706%,10.980392%);stop-opacity:1;"/>
      <stop offset="1" style="stop-color:rgb(88.627451%,78.823529%,21.568627%);stop-opacity:1;"/>
    </linearGradient>
    <linearGradient id="linear9" gradientUnits="userSpaceOnUse" x1="57.279701" y1="161.93201" x2="81.722702" y2="207.95799" gradientTransform="matrix(0.61586,0,0,0.622657,-8.355496,-76.584332)">
      <stop offset="0" style="stop-color:rgb(58.823529%,40.392157%,14.117647%);stop-opacity:1;"/>
      <stop offset="0.431373" style="stop-color:rgb(52.54902%,33.72549%,14.509804%);stop-opacity:1;"/>
      <stop offset="0.921569" style="stop-color:rgb(88.627451%,78.823529%,21.568627%);stop-opacity:1;"/>
      <stop offset="1" style="stop-color:rgb(88.627451%,78.823529%,21.568627%);stop-opacity:1;"/>
    </linearGradient>
    <linearGradient id="linear10" gradientUnits="userSpaceOnUse" x1="100.744" y1="133.564" x2="135.76801" y2="199.524" gradientTransform="matrix(0.61586,0,0,0.622657,-8.355496,-76.584332)">
      <stop offset="0" style="stop-color:rgb(58.823529%,40.392157%,14.117647%);stop-opacity:1;"/>
      <stop offset="0.521569" style="stop-color:rgb(48.627451%,31.764706%,10.980392%);stop-opacity:1;"/>
      <stop offset="1" style="stop-color:rgb(88.627451%,78.823529%,21.568627%);stop-opacity:1;"/>
    </linearGradient>
    <linearGradient id="linear11" gradientUnits="userSpaceOnUse" x1="86.846001" y1="127.888" x2="128.827" y2="127.888" gradientTransform="matrix(0.61586,0,0,0.622657,-8.355496,-76.584332)">
      <stop offset="0" style="stop-color:rgb(96.470588%,84.313725%,23.137255%);stop-opacity:1;"/>
      <stop offset="0.478431" style="stop-color:rgb(96.470588%,85.490196%,32.156863%);stop-opacity:1;"/>
      <stop offset="1" style="stop-color:rgb(96.470588%,92.54902%,67.843137%);stop-opacity:1;"/>
    </linearGradient>
    <linearGradient id="linear12" gradientUnits="userSpaceOnUse" x1="58.184799" y1="210.27299" x2="38.697399" y2="122.815" gradientTransform="matrix(0.61586,0,0,0.622657,-8.355496,-76.584332)">
      <stop offset="0" style="stop-color:rgb(93.333333%,71.372549%,17.647059%);stop-opacity:1;"/>
      <stop offset="0.509804" style="stop-color:rgb(83.921569%,48.627451%,16.470588%);stop-opacity:1;"/>
      <stop offset="1" style="stop-color:rgb(94.901961%,91.764706%,51.372549%);stop-opacity:1;"/>
    </linearGradient>
    <linearGradient id="linear13" gradientUnits="userSpaceOnUse" x1="37.898499" y1="127.888" x2="80.0159" y2="127.888" gradientTransform="matrix(0.61586,0,0,0.622657,-8.355496,-76.584332)">
      <stop offset="0" style="stop-color:rgb(96.470588%,84.313725%,23.137255%);stop-opacity:1;"/>
      <stop offset="0.478431" style="stop-color:rgb(96.470588%,85.490196%,32.156863%);stop-opacity:1;"/>
      <stop offset="1" style="stop-color:rgb(96.470588%,92.54902%,67.843137%);stop-opacity:1;"/>
    </linearGradient>
    <linearGradient id="linear14" gradientUnits="userSpaceOnUse" x1="37.912498" y1="205.22" x2="80.0103" y2="205.22" gradientTransform="matrix(0.61586,0,0,0.622657,-8.355496,-76.584332)">
      <stop offset="0" style="stop-color:rgb(61.568627%,41.960784%,17.647059%);stop-opacity:1;"/>
      <stop offset="1" style="stop-color:rgb(98.039216%,79.607843%,19.607843%);stop-opacity:1;"/>
    </linearGradient>
    <linearGradient id="linear15" gradientUnits="userSpaceOnUse" x1="109.091" y1="153.214" x2="85.452103" y2="129.575" gradientTransform="matrix(0.61586,0,0,0.622657,-8.355496,-76.584332)">
      <stop offset="0" style="stop-color:rgb(93.333333%,71.372549%,17.647059%);stop-opacity:1;"/>
      <stop offset="0.509804" style="stop-color:rgb(83.921569%,48.627451%,16.470588%);stop-opacity:1;"/>
      <stop offset="1" style="stop-color:rgb(94.901961%,91.764706%,51.372549%);stop-opacity:1;"/>
    </linearGradient>
    <linearGradient id="linear16" gradientUnits="userSpaceOnUse" x1="110.786" y1="198.457" x2="83.750801" y2="171.42101" gradientTransform="matrix(0.61586,0,0,0.622657,-8.355496,-76.584332)">
      <stop offset="0" style="stop-color:rgb(93.333333%,71.372549%,17.647059%);stop-opacity:1;"/>
      <stop offset="0.509804" style="stop-color:rgb(83.921569%,48.627451%,16.470588%);stop-opacity:1;"/>
      <stop offset="1" style="stop-color:rgb(94.901961%,91.764706%,51.372549%);stop-opacity:1;"/>
    </linearGradient>
    <linearGradient id="linear17" gradientUnits="userSpaceOnUse" x1="86.837601" y1="205.22" x2="128.821" y2="205.22" gradientTransform="matrix(0.61586,0,0,0.622657,-8.355496,-76.584332)">
      <stop offset="0" style="stop-color:rgb(61.568627%,41.960784%,17.647059%);stop-opacity:1;"/>
      <stop offset="1" style="stop-color:rgb(98.039216%,79.607843%,19.607843%);stop-opacity:1;"/>
    </linearGradient>
    <linearGradient id="linear18" gradientUnits="userSpaceOnUse" x1="59.576" y1="122.7" x2="79.437698" y2="160.099" gradientTransform="matrix(0.61586,0,0,0.622657,-8.355496,-76.584332)">
      <stop offset="0" style="stop-color:rgb(58.823529%,40.392157%,14.117647%);stop-opacity:1;"/>
      <stop offset="0.521569" style="stop-color:rgb(48.627451%,31.764706%,10.980392%);stop-opacity:1;"/>
      <stop offset="1" style="stop-color:rgb(88.627451%,78.823529%,21.568627%);stop-opacity:1;"/>
    </linearGradient>
    <linearGradient id="linear19" gradientUnits="userSpaceOnUse" x1="57.279701" y1="161.93201" x2="81.722702" y2="207.95799" gradientTransform="matrix(0.61586,0,0,0.622657,-8.355496,-76.584332)">
      <stop offset="0" style="stop-color:rgb(58.823529%,40.392157%,14.117647%);stop-opacity:1;"/>
      <stop offset="0.431373" style="stop-color:rgb(52.54902%,33.72549%,14.509804%);stop-opacity:1;"/>
      <stop offset="0.921569" style="stop-color:rgb(88.627451%,78.823529%,21.568627%);stop-opacity:1;"/>
      <stop offset="1" style="stop-color:rgb(88.627451%,78.823529%,21.568627%);stop-opacity:1;"/>
    </linearGradient>
    <radialGradient id="radial0" gradientUnits="userSpaceOnUse" cx="84.323502" cy="175.75999" fx="84.323502" fy="175.75999" r="0.8717" gradientTransform="matrix(0.61586,0,0,0.622657,-8.355496,-76.584332)">
      <stop offset="0" style="stop-color:rgb(66.666667%,44.705882%,16.470588%);stop-opacity:1;"/>
      <stop offset="0.839216" style="stop-color:rgb(66.666667%,44.705882%,16.470588%);stop-opacity:1;"/>
      <stop offset="1" style="stop-color:rgb(76.078431%,55.294118%,16.078431%);stop-opacity:1;"/>
    </radialGradient>
    <radialGradient id="radial1" gradientUnits="userSpaceOnUse" cx="84.323502" cy="175.75999" fx="84.323502" fy="175.75999" r="0.8717" gradientTransform="matrix(0.61586,0,0,0.622657,-8.355496,-76.584332)">
      <stop offset="0" style="stop-color:rgb(66.666667%,44.705882%,16.470588%);stop-opacity:1;"/>
      <stop offset="0.839216" style="stop-color:rgb(66.666667%,44.705882%,16.470588%);stop-opacity:1;"/>
      <stop offset="1" style="stop-color:rgb(76.078431%,55.294118%,16.078431%);stop-opacity:1;"/>
    </radialGradient>
  </defs>
  <g id="surface1">
    <path style=" stroke:none;fill-rule:nonzero;fill:rgb(90.980392%,18.823529%,19.607843%);fill-opacity:0.941176;" d="M 18.347656 47.019531 C 18.453125 46.910156 18.453125 46.734375 18.347656 46.617188 L 13.449219 41.664062 C 13.339844 41.550781 13.25 41.589844 13.25 41.75 L 13.25 51.886719 C 13.25 52.039062 13.339844 52.078125 13.449219 51.964844 Z M 18.347656 47.019531 "/>
    <path style=" stroke:none;fill-rule:nonzero;fill:rgb(90.980392%,18.823529%,19.607843%);fill-opacity:0.941176;" d="M 12.089844 57.183594 C 12.195312 57.074219 12.40625 56.984375 12.558594 56.984375 L 73.414062 56.984375 C 73.566406 56.984375 73.777344 57.074219 73.878906 57.183594 L 78.050781 61.402344 C 78.167969 61.515625 78.128906 61.601562 77.976562 61.601562 L 7.996094 61.601562 C 7.839844 61.601562 7.804688 61.515625 7.910156 61.402344 Z M 12.089844 57.183594 "/>
    <path style=" stroke:none;fill-rule:nonzero;fill:rgb(90.980392%,18.823529%,19.607843%);fill-opacity:0.941176;" d="M 5.738281 59.449219 C 5.738281 59.609375 5.832031 59.648438 5.945312 59.535156 L 10.417969 55.011719 C 10.527344 54.902344 10.625 54.671875 10.625 54.503906 L 10.625 39.097656 C 10.625 38.9375 10.527344 38.710938 10.417969 38.59375 L 5.945312 34.078125 C 5.832031 33.96875 5.738281 34 5.738281 34.164062 Z M 5.738281 59.449219 "/>
    <path style=" stroke:none;fill-rule:nonzero;fill:url(#linear0);" d="M 70.980469 54.230469 L 65.023438 48.210938 L 65.019531 6.101562 L 70.984375 0 L 57.972656 6.09375 L 57.964844 48.164062 Z M 70.980469 54.230469 "/>
    <path style=" stroke:none;fill-rule:nonzero;fill:url(#linear1);" d="M 57.96875 6.089844 L 57.976562 6.089844 L 70.984375 0 L 45.128906 0 Z M 57.96875 6.089844 "/>
    <path style=" stroke:none;fill-rule:nonzero;fill:url(#linear2);" d="M 14.992188 54.230469 L 27.980469 48.164062 L 27.980469 6.09375 L 14.976562 0 L 21 6.101562 L 21 48.152344 Z M 14.992188 54.230469 "/>
    <path style=" stroke:none;fill-rule:nonzero;fill:url(#linear3);" d="M 27.976562 6.089844 L 27.980469 6.089844 L 40.921875 0.0078125 L 14.984375 0 Z M 27.976562 6.089844 "/>
    <path style=" stroke:none;fill-rule:nonzero;fill:url(#linear4);" d="M 14.992188 54.230469 L 40.917969 54.230469 L 27.980469 48.164062 Z M 14.992188 54.230469 "/>
    <path style=" stroke:none;fill-rule:nonzero;fill:url(#linear5);" d="M 57.972656 22.910156 L 57.972656 6.09375 L 45.128906 0 L 51.121094 6.09375 L 51.121094 17.746094 Z M 57.972656 22.910156 "/>
    <path style=" stroke:none;fill-rule:nonzero;fill:url(#linear6);" d="M 57.964844 48.175781 L 57.972656 22.914062 L 51.125 29.539062 L 51.113281 48.152344 L 45.125 54.226562 Z M 57.964844 48.175781 "/>
    <path style=" stroke:none;fill-rule:nonzero;fill:url(#linear7);" d="M 64.519531 54.230469 L 70.980469 54.230469 L 57.964844 48.164062 L 45.125 54.226562 Z M 64.519531 54.230469 "/>
    <path style=" stroke:none;fill-rule:nonzero;fill:url(#linear8);" d="M 27.980469 22.910156 L 34.914062 17.738281 L 34.914062 6.082031 L 40.921875 0.0078125 L 27.980469 6.09375 Z M 27.980469 22.910156 "/>
    <path style=" stroke:none;fill-rule:nonzero;fill:url(#linear9);" d="M 34.914062 29.539062 L 27.980469 22.914062 L 27.972656 48.164062 L 40.921875 54.234375 L 34.914062 48.164062 Z M 34.914062 29.539062 "/>
    <path style=" stroke:none;fill-rule:nonzero;fill:url(#radial0);" d="M 34.914062 29.539062 L 51.125 29.539062 L 57.972656 22.914062 L 27.980469 22.914062 Z M 34.914062 29.539062 "/>
    <path style=" stroke:none;fill-rule:nonzero;fill:rgb(94.901961%,90.196078%,40%);fill-opacity:1;" d="M 57.972656 22.910156 L 51.125 17.742188 L 34.914062 17.742188 L 27.976562 22.910156 Z M 57.972656 22.910156 "/>
    <path style=" stroke:none;fill-rule:nonzero;fill:rgb(0%,0%,0%);fill-opacity:1;" d="M 0 66.582031 L 3.976562 66.582031 L 3.976562 71.589844 L 7.921875 71.589844 L 7.921875 66.582031 L 11.898438 66.582031 L 11.898438 79.765625 L 7.921875 79.765625 L 7.921875 74.515625 L 3.976562 74.515625 L 3.976562 79.765625 L 0 79.765625 Z M 0 66.582031 "/>
    <path style=" stroke:none;fill-rule:nonzero;fill:rgb(0%,0%,0%);fill-opacity:1;" d="M 14.601562 66.578125 L 18.578125 66.578125 L 18.578125 79.765625 L 14.601562 79.765625 Z M 14.601562 66.578125 "/>
    <path style=" stroke:none;fill-rule:nonzero;fill:rgb(0%,0%,0%);fill-opacity:1;" d="M 29.484375 70.226562 C 28.714844 69.394531 27.792969 69.0625 26.578125 69.0625 C 25.582031 69.0625 24.894531 69.394531 24.894531 70 C 24.894531 72.128906 32.542969 70.246094 32.542969 75.613281 C 32.542969 77.800781 30.695312 80.015625 26.632812 80.015625 C 24.140625 80.015625 21.953125 79.457031 20.476562 77.449219 L 22.875 75.6875 C 23.738281 76.699219 24.957031 77.289062 26.371094 77.289062 C 27.9375 77.289062 28.5625 76.710938 28.5625 76.140625 C 28.5625 74.136719 21.03125 75.671875 21.03125 70.679688 C 21.03125 68.097656 23.292969 66.335938 26.632812 66.335938 C 28.578125 66.335938 30.570312 66.894531 31.800781 68.410156 Z M 29.484375 70.226562 "/>
    <path style=" stroke:none;fill-rule:nonzero;fill:rgb(0%,0%,0%);fill-opacity:1;" d="M 36.867188 69.195312 L 33.039062 69.195312 L 33.039062 66.582031 L 44.679688 66.582031 L 44.679688 69.195312 L 40.84375 69.195312 L 40.84375 79.769531 L 36.867188 79.769531 Z M 36.867188 69.195312 "/>
    <path style=" stroke:none;fill-rule:nonzero;fill:rgb(0%,0%,0%);fill-opacity:1;" d="M 49.335938 73.175781 C 49.335938 76.714844 50.421875 77.394531 51.789062 77.394531 C 53.128906 77.394531 54.234375 76.714844 54.234375 73.175781 C 54.234375 69.824219 53.328125 68.953125 51.789062 68.953125 C 50.1875 68.953125 49.335938 69.984375 49.335938 73.175781 Z M 51.789062 80.011719 C 47.644531 80.011719 45.136719 77.378906 45.136719 73.175781 C 45.136719 68.972656 47.644531 66.339844 51.789062 66.339844 C 55.925781 66.339844 58.433594 68.972656 58.433594 73.175781 C 58.433594 77.378906 55.925781 80.011719 51.789062 80.011719 Z M 51.789062 80.011719 "/>
    <path style=" stroke:none;fill-rule:nonzero;fill:rgb(0%,0%,0%);fill-opacity:1;" d="M 64.050781 71.847656 L 66.113281 71.847656 C 67.253906 71.847656 68.085938 71.375 68.085938 70.523438 C 68.085938 69.6875 67.507812 69.09375 66.277344 69.09375 L 64.050781 69.09375 Z M 60.074219 66.582031 L 66.738281 66.582031 C 71.382812 66.582031 72.277344 68.675781 72.277344 70.382812 C 72.277344 72.019531 71.195312 73.125 69.644531 73.695312 L 72.242188 79.769531 L 67.824219 79.769531 L 65.851562 74.359375 L 64.050781 74.359375 L 64.050781 79.769531 L 60.074219 79.769531 Z M 60.074219 66.582031 "/>
    <path style=" stroke:none;fill-rule:nonzero;fill:rgb(0%,0%,0%);fill-opacity:1;" d="M 77.199219 74.167969 L 72.15625 66.578125 L 76.664062 66.578125 L 79.578125 71.066406 L 82.355469 66.578125 L 85.960938 66.578125 L 81.171875 73.855469 L 81.171875 79.773438 L 77.199219 79.773438 Z M 77.199219 74.167969 "/>
    <path style=" stroke:none;fill-rule:nonzero;fill:url(#linear10);" d="M 70.980469 54.230469 L 65.023438 48.210938 L 65.019531 6.101562 L 70.984375 0 L 57.972656 6.09375 L 57.964844 48.164062 Z M 70.980469 54.230469 "/>
    <path style=" stroke:none;fill-rule:nonzero;fill:url(#linear11);" d="M 57.96875 6.089844 L 57.976562 6.089844 L 70.984375 0 L 45.128906 0 Z M 57.96875 6.089844 "/>
    <path style=" stroke:none;fill-rule:nonzero;fill:url(#linear12);" d="M 14.992188 54.230469 L 27.980469 48.164062 L 27.980469 6.09375 L 14.976562 0 L 21 6.101562 L 21 48.152344 Z M 14.992188 54.230469 "/>
    <path style=" stroke:none;fill-rule:nonzero;fill:url(#linear13);" d="M 27.976562 6.089844 L 27.980469 6.089844 L 40.921875 0.0078125 L 14.984375 0 Z M 27.976562 6.089844 "/>
    <path style=" stroke:none;fill-rule:nonzero;fill:url(#linear14);" d="M 14.992188 54.230469 L 40.917969 54.230469 L 27.980469 48.164062 Z M 14.992188 54.230469 "/>
    <path style=" stroke:none;fill-rule:nonzero;fill:url(#linear15);" d="M 57.972656 22.910156 L 57.972656 6.09375 L 45.128906 0 L 51.121094 6.09375 L 51.121094 17.746094 Z M 57.972656 22.910156 "/>
    <path style=" stroke:none;fill-rule:nonzero;fill:url(#linear16);" d="M 57.964844 48.175781 L 57.972656 22.914062 L 51.125 29.539062 L 51.113281 48.152344 L 45.125 54.226562 Z M 57.964844 48.175781 "/>
    <path style=" stroke:none;fill-rule:nonzero;fill:url(#linear17);" d="M 64.519531 54.230469 L 70.980469 54.230469 L 57.964844 48.164062 L 45.125 54.226562 Z M 64.519531 54.230469 "/>
    <path style=" stroke:none;fill-rule:nonzero;fill:url(#linear18);" d="M 27.980469 22.910156 L 34.914062 17.738281 L 34.914062 6.082031 L 40.921875 0.0078125 L 27.980469 6.09375 Z M 27.980469 22.910156 "/>
    <path style=" stroke:none;fill-rule:nonzero;fill:url(#linear19);" d="M 34.914062 29.539062 L 27.980469 22.914062 L 27.972656 48.164062 L 40.921875 54.234375 L 34.914062 48.164062 Z M 34.914062 29.539062 "/>
    <path style=" stroke:none;fill-rule:nonzero;fill:url(#radial1);" d="M 34.914062 29.539062 L 51.125 29.539062 L 57.972656 22.914062 L 27.980469 22.914062 Z M 34.914062 29.539062 "/>
    <path style=" stroke:none;fill-rule:nonzero;fill:rgb(94.901961%,90.196078%,40%);fill-opacity:1;" d="M 57.972656 22.910156 L 51.125 17.742188 L 34.914062 17.742188 L 27.976562 22.910156 Z M 57.972656 22.910156 "/>
  </g>
</svg>