<?xml version="1.0" encoding="UTF-8" standalone="yes"?>
<svg xmlns="http://www.w3.org/2000/svg" xmlns:xlink="http://www.w3.org/1999/xlink" width="246.66666666666666px" height="106.66666666666666px" viewBox="0 0 185 80" version="1.1">
  <g id="surface1">
    <path style=" stroke:none;fill-rule:nonzero;fill:rgb(74.901961%,60.392157%,18.823529%);fill-opacity:1;" d="M 185.203125 79.488281 L 178.601562 79.488281 L 176.886719 74.105469 L 167.707031 74.105469 L 165.992188 79.488281 L 159.554688 79.488281 L 168.707031 52.871094 L 176.058594 52.871094 Z M 175.34375 69.222656 L 172.292969 59.679688 L 169.25 69.222656 Z M 175.34375 69.222656 "/>
    <path style=" stroke:none;fill-rule:nonzero;fill:rgb(74.901961%,60.392157%,18.823529%);fill-opacity:1;" d="M 158.125 79.488281 L 143.621094 79.488281 L 143.621094 74.769531 L 147.679688 74.769531 L 147.679688 57.585938 L 143.621094 57.585938 L 143.621094 52.871094 L 158.125 52.871094 L 158.125 57.585938 L 154.066406 57.585938 L 154.066406 74.769531 L 158.125 74.769531 Z M 158.125 79.488281 "/>
    <path style=" stroke:none;fill-rule:nonzero;fill:rgb(74.901961%,60.392157%,18.823529%);fill-opacity:1;" d="M 141.609375 79.488281 L 133.808594 79.488281 L 127.054688 69.722656 L 124.113281 69.722656 L 124.113281 79.488281 L 117.761719 79.488281 L 117.761719 52.871094 L 128.46875 52.871094 C 129.929688 52.871094 131.191406 52.957031 132.242188 53.140625 C 133.296875 53.316406 134.285156 53.699219 135.207031 54.296875 C 136.136719 54.894531 136.875 55.664062 137.425781 56.609375 C 137.976562 57.5625 138.25 58.753906 138.25 60.179688 C 138.25 62.144531 137.824219 63.75 136.976562 64.988281 C 136.125 66.226562 134.914062 67.257812 133.34375 68.082031 Z M 131.644531 61.023438 C 131.644531 60.351562 131.515625 59.777344 131.265625 59.300781 C 131.011719 58.824219 130.566406 58.453125 129.949219 58.179688 C 129.515625 57.988281 129.011719 57.875 128.4375 57.832031 C 127.859375 57.789062 127.191406 57.765625 126.421875 57.765625 L 124.113281 57.765625 L 124.113281 64.933594 L 126.070312 64.933594 C 127.09375 64.933594 127.949219 64.878906 128.636719 64.773438 C 129.324219 64.664062 129.898438 64.421875 130.363281 64.042969 C 130.804688 63.671875 131.136719 63.261719 131.339844 62.816406 C 131.542969 62.371094 131.644531 61.773438 131.644531 61.023438 Z M 131.644531 61.023438 "/>
    <path style=" stroke:none;fill-rule:nonzero;fill:rgb(74.901961%,60.392157%,18.823529%);fill-opacity:1;" d="M 113.894531 66.183594 C 113.894531 70.429688 112.765625 73.800781 110.5 76.296875 C 108.242188 78.789062 105.113281 80.042969 101.121094 80.042969 C 97.140625 80.042969 94.019531 78.789062 91.753906 76.296875 C 89.496094 73.800781 88.367188 70.429688 88.367188 66.183594 C 88.367188 61.90625 89.496094 58.527344 91.753906 56.042969 C 94.019531 53.554688 97.140625 52.316406 101.121094 52.316406 C 105.089844 52.316406 108.210938 53.554688 110.484375 56.042969 C 112.757812 58.527344 113.894531 61.90625 113.894531 66.183594 Z M 105.429688 72.925781 C 106.050781 72.117188 106.507812 71.15625 106.808594 70.058594 C 107.109375 68.953125 107.257812 67.660156 107.257812 66.167969 C 107.257812 64.574219 107.089844 63.214844 106.742188 62.089844 C 106.402344 60.972656 105.945312 60.066406 105.398438 59.375 C 104.828125 58.660156 104.175781 58.140625 103.445312 57.820312 C 102.707031 57.496094 101.933594 57.335938 101.140625 57.335938 C 100.328125 57.335938 99.566406 57.488281 98.851562 57.800781 C 98.136719 58.113281 97.476562 58.625 96.882812 59.339844 C 96.324219 60.007812 95.875 60.925781 95.523438 62.101562 C 95.171875 63.273438 95.003906 64.636719 95.003906 66.183594 C 95.003906 67.769531 95.167969 69.121094 95.507812 70.234375 C 95.847656 71.351562 96.289062 72.257812 96.847656 72.964844 C 97.402344 73.664062 98.050781 74.183594 98.792969 74.519531 C 99.539062 74.847656 100.316406 75.019531 101.140625 75.019531 C 101.957031 75.019531 102.738281 74.847656 103.484375 74.507812 C 104.226562 74.164062 104.875 73.640625 105.429688 72.925781 Z M 105.429688 72.925781 "/>
    <path style=" stroke:none;fill-rule:nonzero;fill:rgb(74.901961%,60.392157%,18.823529%);fill-opacity:1;" d="M 87.148438 58.015625 L 79.414062 58.015625 L 79.414062 79.488281 L 73.027344 79.488281 L 73.027344 58.015625 L 65.292969 58.015625 L 65.292969 52.871094 L 87.148438 52.871094 Z M 87.148438 58.015625 "/>
    <path style=" stroke:none;fill-rule:nonzero;fill:rgb(74.901961%,60.392157%,18.823529%);fill-opacity:1;" d="M 64.070312 71.121094 C 64.070312 73.746094 63.039062 75.875 60.964844 77.507812 C 58.898438 79.152344 56.09375 79.96875 52.546875 79.96875 C 50.492188 79.96875 48.703125 79.773438 47.183594 79.390625 C 45.65625 79 44.230469 78.511719 42.898438 77.914062 L 42.898438 71.53125 L 43.59375 71.53125 C 44.917969 72.664062 46.394531 73.53125 48.027344 74.140625 C 49.664062 74.75 51.234375 75.050781 52.746094 75.050781 C 53.132812 75.050781 53.644531 75.019531 54.273438 74.945312 C 54.910156 74.875 55.417969 74.757812 55.824219 74.585938 C 56.3125 74.375 56.707031 74.105469 57.027344 73.78125 C 57.34375 73.464844 57.503906 72.988281 57.503906 72.355469 C 57.503906 71.769531 57.269531 71.265625 56.8125 70.839844 C 56.351562 70.417969 55.675781 70.097656 54.789062 69.871094 C 53.859375 69.632812 52.875 69.40625 51.835938 69.199219 C 50.800781 68.992188 49.828125 68.722656 48.917969 68.40625 C 46.835938 67.671875 45.335938 66.691406 44.417969 65.445312 C 43.503906 64.203125 43.050781 62.652344 43.050781 60.804688 C 43.050781 58.324219 44.082031 56.304688 46.148438 54.738281 C 48.214844 53.167969 50.878906 52.386719 54.125 52.386719 C 55.753906 52.386719 57.367188 52.554688 58.957031 52.894531 C 60.546875 53.238281 61.925781 53.664062 63.089844 54.175781 L 63.089844 60.300781 L 62.410156 60.300781 C 61.410156 59.449219 60.1875 58.726562 58.742188 58.148438 C 57.292969 57.574219 55.816406 57.28125 54.308594 57.28125 C 53.773438 57.28125 53.246094 57.324219 52.71875 57.398438 C 52.195312 57.476562 51.683594 57.625 51.195312 57.835938 C 50.765625 58.015625 50.394531 58.289062 50.082031 58.648438 C 49.769531 59.015625 49.617188 59.429688 49.617188 59.894531 C 49.617188 60.59375 49.867188 61.136719 50.367188 61.511719 C 50.867188 61.890625 51.808594 62.230469 53.195312 62.542969 C 54.101562 62.742188 54.976562 62.9375 55.8125 63.128906 C 56.652344 63.324219 57.550781 63.585938 58.515625 63.914062 C 60.410156 64.585938 61.8125 65.496094 62.714844 66.640625 C 63.617188 67.789062 64.070312 69.285156 64.070312 71.121094 Z M 64.070312 71.121094 "/>
    <path style=" stroke:none;fill-rule:nonzero;fill:rgb(74.901961%,60.392157%,18.823529%);fill-opacity:1;" d="M 40.558594 79.488281 L 26.054688 79.488281 L 26.054688 74.769531 L 30.113281 74.769531 L 30.113281 57.585938 L 26.054688 57.585938 L 26.054688 52.871094 L 40.558594 52.871094 L 40.558594 57.585938 L 36.5 57.585938 L 36.5 74.769531 L 40.558594 74.769531 Z M 40.558594 79.488281 "/>
    <path style=" stroke:none;fill-rule:nonzero;fill:rgb(74.901961%,60.392157%,18.823529%);fill-opacity:1;" d="M 22.203125 79.488281 L 15.816406 79.488281 L 15.816406 67.757812 L 6.386719 67.757812 L 6.386719 79.488281 L 0 79.488281 L 0 52.871094 L 6.386719 52.871094 L 6.386719 62.609375 L 15.816406 62.609375 L 15.816406 52.871094 L 22.203125 52.871094 Z M 22.203125 79.488281 "/>
    <path style=" stroke:none;fill-rule:evenodd;fill:rgb(74.901961%,60.392157%,18.823529%);fill-opacity:1;" d="M 45.375 0 L 134.140625 0 L 134.140625 43.027344 L 45.375 43.027344 Z M 45.375 0 "/>
    <path style=" stroke:none;fill-rule:evenodd;fill:rgb(100%,100%,100%);fill-opacity:1;" d="M 79.820312 8.457031 L 99.695312 8.457031 L 99.695312 34.570312 L 79.820312 34.570312 Z M 101.144531 8.457031 L 121.019531 8.457031 L 121.019531 34.570312 L 101.144531 34.570312 Z M 105.441406 12.753906 L 105.441406 30.550781 L 109.042969 30.550781 L 109.042969 25.117188 L 109.816406 25.144531 C 114.664062 25.144531 117.046875 21.996094 117.046875 18.875 C 117.042969 15.800781 114.738281 12.753906 110.148438 12.753906 Z M 109.035156 16.199219 L 110.332031 16.199219 C 112.386719 16.230469 113.414062 16.925781 113.5625 18.976562 C 113.433594 21.101562 112.230469 21.777344 110.160156 21.8125 L 109.035156 21.8125 Z M 89.757812 31.089844 L 81.527344 12.542969 L 85.523438 12.542969 L 89.613281 21.921875 L 89.757812 22.480469 L 89.902344 21.914062 L 93.992188 12.542969 L 97.988281 12.542969 Z M 75.324219 16.203125 L 75.324219 12.757812 L 61.546875 12.757812 L 61.546875 16.203125 L 66.523438 16.203125 L 66.523438 30.550781 L 70.347656 30.550781 L 70.347656 16.203125 Z M 58.5 8.457031 L 78.371094 8.457031 L 78.371094 34.570312 L 58.5 34.570312 Z M 57.046875 7.164062 L 122.46875 7.164062 L 122.46875 35.863281 L 57.046875 35.863281 Z M 57.046875 7.164062 "/>
  </g>
</svg>