<?xml version="1.0" encoding="utf-8"?>
<!-- Generator: Adobe Illustrator 17.1.0, SVG Export Plug-In . SVG Version: 6.00 Build 0)  -->
<!DOCTYPE svg PUBLIC "-//W3C//DTD SVG 1.1//EN" "http://www.w3.org/Graphics/SVG/1.1/DTD/svg11.dtd">
<svg version="1.1" id="Layer_1" xmlns="http://www.w3.org/2000/svg" xmlns:xlink="http://www.w3.org/1999/xlink" x="0px" y="0px"
	 viewBox="0 0 841.89 595.28" enable-background="new 0 0 841.89 595.28" xml:space="preserve">
<rect x="325.627" y="358.084" fill="#808080" width="190.748" height="37.158"/>
<g>
	<path fill="#FFFFFF" d="M383.444,387.864h6.264v-22.301h-6.264V387.864z M367.534,379.922l-5.378-14.359h-6.501l9.621,22.394h4.464
		l9.645-22.394h-6.461L367.534,379.922z M456.109,365.562h-4.456l-9.645,22.394h6.503l0.937-2.519h8.891l0.952,2.519h6.451
		L456.109,365.562z M451.02,381.278l2.873-7.69l2.89,7.69H451.02z M407.749,365.562h-4.454l-9.645,22.394h6.511l0.934-2.519h8.893
		l0.943,2.519h6.453L407.749,365.562z M402.67,381.278l2.872-7.664l2.892,7.664H402.67z M486.352,365.562h-22.344v5.331h8.027v16.97
		h6.264v-16.97h8.053V365.562z M437.681,375.205c-1.137-0.581-2.434-0.758-5.803-0.758h-4.404c-1.4,0-1.973-0.555-1.973-1.895
		v-0.286c0-0.068,0-0.126,0.01-0.185l0,0c0.058-1.204,0.656-1.719,1.963-1.719h4.801c0.638,0,1.127,0.118,1.44,0.379
		c0.008,0-0.008,0,0,0c0.032,0.025,0.058,0.051,0.084,0.067c0.237,0.253,0.369,0.607,0.395,1.053
		c0.563-0.033,5.119-0.404,5.727-0.454c-0.11-0.564-0.261-1.078-0.411-1.541c0,0,0.008,0,0,0c-1.095-3.277-3.369-4.498-7.945-4.498
		h-3.485c-5.643,0-8.398,1.878-8.398,5.744v2.636c0,2.038,0.818,3.562,2.31,4.287c1.135,0.59,2.424,0.758,5.793,0.758h4.405
		c1.396,0,1.977,0.547,1.977,1.878v0.312c0,1.348-0.598,1.928-1.977,1.928h-4.793c-0.726,0-1.213-0.152-1.532-0.48
		c-0.237-0.261-0.365-0.615-0.397-1.086c-0.539,0.033-5.137,0.218-5.735,0.244c0.69,4.624,2.998,6.351,8.346,6.351h3.485
		c5.671,0,8.414-1.887,8.414-5.786v-2.653C439.979,377.454,439.163,375.93,437.681,375.205z"/>
</g>
<path fill="#18529D" d="M326.589,402.807h6.695v12.048h12.352v-12.048h6.701v30.436h-6.701v-12.212h-12.352v12.212h-6.695V402.807z"
	/>
<path fill="#18529D" d="M358.069,402.807h6.699v30.436h-6.699V402.807z"/>
<path fill="#18529D" d="M381.847,433.688c-2.318,0-4.594-0.404-6.822-1.19c-2.236-0.798-4.271-2.005-6.092-3.648l3.958-4.735
	c1.386,1.134,2.817,2.038,4.279,2.7c1.466,0.658,3.076,1.006,4.809,1.006c1.394,0,2.466-0.264,3.24-0.769
	c0.77-0.512,1.151-1.219,1.151-2.123v-0.084c0-0.427-0.078-0.814-0.24-1.146c-0.156-0.342-0.465-0.651-0.915-0.931
	c-0.449-0.298-1.075-0.586-1.871-0.876c-0.804-0.298-1.845-0.595-3.126-0.915c-1.534-0.412-2.935-0.836-4.179-1.285
	c-1.251-0.455-2.318-1.017-3.188-1.704c-0.876-0.688-1.55-1.53-2.025-2.543c-0.479-1.014-0.722-2.288-0.722-3.799v-0.089
	c0-1.388,0.261-2.639,0.776-3.762c0.523-1.112,1.243-2.083,2.184-2.892c0.938-0.826,2.049-1.449,3.357-1.881
	c1.3-0.433,2.731-0.652,4.299-0.652c2.232,0,4.281,0.326,6.152,0.994c1.871,0.657,3.585,1.606,5.153,2.852l-3.477,5.025
	c-1.364-0.921-2.699-1.659-4.002-2.196c-1.306-0.538-2.615-0.808-3.914-0.808c-1.307,0-2.284,0.264-2.94,0.758
	c-0.654,0.516-0.983,1.145-0.983,1.903v0.096c0,0.488,0.104,0.915,0.291,1.279c0.186,0.36,0.523,0.686,1.029,0.978
	c0.489,0.292,1.163,0.566,2.021,0.825c0.858,0.259,1.937,0.568,3.253,0.921c1.532,0.405,2.912,0.865,4.119,1.373
	c1.203,0.507,2.222,1.114,3.052,1.833c0.826,0.71,1.456,1.544,1.877,2.492c0.417,0.967,0.63,2.112,0.63,3.442v0.095
	c0,1.505-0.277,2.853-0.818,4.026c-0.546,1.179-1.314,2.159-2.294,2.97c-0.975,0.792-2.15,1.398-3.505,1.825
	C385.012,433.481,383.5,433.688,381.847,433.688z"/>
<path fill="#18529D" d="M404.51,408.973h-9.268v-6.165h25.23v6.165h-9.268v24.271h-6.694V408.973z"/>
<path fill="#18529D" d="M438.343,433.772c-2.346,0-4.512-0.41-6.481-1.235c-1.973-0.837-3.673-1.951-5.113-3.352
	c-1.432-1.41-2.551-3.06-3.343-4.964c-0.796-1.892-1.197-3.93-1.197-6.114v-0.079c0-2.178,0.405-4.211,1.215-6.108
	c0.814-1.898,1.941-3.571,3.373-5.003c1.432-1.438,3.148-2.572,5.138-3.397c1.979-0.825,4.151-1.235,6.497-1.235
	c2.346,0,4.508,0.41,6.479,1.235c1.975,0.825,3.68,1.943,5.115,3.352c1.432,1.41,2.549,3.06,3.349,4.952
	c0.8,1.901,1.199,3.936,1.199,6.112v0.092c0,2.168-0.409,4.211-1.223,6.104c-0.814,1.909-1.933,3.576-3.373,5.002
	c-1.432,1.449-3.148,2.566-5.129,3.403C442.861,433.362,440.693,433.772,438.343,433.772z M438.431,427.596
	c1.36,0,2.605-0.248,3.718-0.736c1.119-0.494,2.077-1.179,2.873-2.049c0.796-0.875,1.418-1.872,1.871-3.021
	c0.449-1.145,0.674-2.369,0.674-3.683v-0.079c0-1.307-0.225-2.543-0.674-3.7c-0.453-1.157-1.091-2.17-1.919-3.046
	c-0.822-0.867-1.795-1.552-2.91-2.069c-1.113-0.505-2.358-0.758-3.722-0.758c-1.331,0-2.567,0.248-3.694,0.742
	c-1.137,0.493-2.098,1.173-2.898,2.043c-0.8,0.876-1.418,1.875-1.871,3.026c-0.445,1.143-0.67,2.37-0.67,3.67v0.092
	c0,1.306,0.225,2.536,0.67,3.695c0.453,1.162,1.087,2.176,1.919,3.043c0.832,0.87,1.807,1.558,2.938,2.066
	C435.864,427.337,437.099,427.596,438.431,427.596z"/>
<path fill="#18529D" d="M459.787,402.807h13.916c3.862,0,6.818,1.03,8.879,3.082c1.737,1.741,2.607,4.066,2.607,6.962v0.09
	c0,2.459-0.603,4.469-1.809,6.019c-1.199,1.552-2.771,2.695-4.716,3.408l7.44,10.875h-7.825l-6.531-9.735h-0.086h-5.174v9.735
	h-6.702V402.807z M473.274,417.635c1.652,0,2.92-0.39,3.806-1.184c0.882-0.786,1.322-1.834,1.322-3.15v-0.078
	c0-1.455-0.459-2.561-1.386-3.285c-0.931-0.73-2.226-1.09-3.874-1.09h-6.653v8.787H473.274z"/>
<path fill="#18529D" d="M497.974,421.246l-11.694-18.438h7.822l7.269,12.217l7.387-12.217h7.616l-11.703,18.309v12.128h-6.697
	V421.246z"/>
<g>
	<g>
		<linearGradient id="SVGID_1_" gradientUnits="userSpaceOnUse" x1="486.1781" y1="143.2199" x2="355.9012" y2="368.8661">
			<stop  offset="0" style="stop-color:#96D2EE"/>
			<stop  offset="0.1861" style="stop-color:#539FD7"/>
			<stop  offset="0.6461" style="stop-color:#18539D"/>
			<stop  offset="0.704" style="stop-color:#1D4589"/>
			<stop  offset="0.7847" style="stop-color:#233674"/>
			<stop  offset="0.8636" style="stop-color:#262D67"/>
			<stop  offset="0.9382" style="stop-color:#272A63"/>
		</linearGradient>
		<path fill="url(#SVGID_1_)" d="M325.745,160.631l65.391,28.404v76.404h59.808v-76.404l65.391-28.404v190.825h-65.391v-29.569
			h-59.808v29.569h-65.391V160.631z"/>
	</g>
</g>
</svg>
