<?xml version="1.0" encoding="UTF-8" ?>
<!DOCTYPE svg PUBLIC "-//W3C//DTD SVG 1.1//EN" "http://www.w3.org/Graphics/SVG/1.1/DTD/svg11.dtd">
<svg width="1300pt" height="350pt" viewBox="0 0 1300 350" version="1.1" xmlns="http://www.w3.org/2000/svg">
<g id="#575555ff">
<path fill="#575555" opacity="1.00" d=" M 73.14 28.88 C 94.07 28.08 115.04 28.36 135.98 28.29 C 477.69 28.31 819.40 28.29 1161.11 28.30 C 1183.36 28.36 1205.63 28.08 1227.88 28.87 C 1076.91 29.12 925.91 29.01 774.93 29.03 C 541.00 29.04 307.06 29.05 73.14 28.88 Z" />
<path fill="#575555" opacity="1.00" d=" M 1278.97 170.82 C 1279.23 170.56 1279.74 170.02 1279.99 169.76 C 1280.45 174.13 1280.55 178.52 1280.77 182.91 C 1282.10 194.53 1281.36 206.24 1281.63 217.91 C 1281.56 231.60 1281.86 245.28 1281.79 258.97 C 1281.23 270.48 1281.24 282.42 1276.64 293.20 C 1276.27 291.84 1275.92 290.48 1275.59 289.12 C 1272.51 296.84 1268.10 304.39 1261.15 309.22 C 1259.57 310.19 1257.74 311.18 1256.21 309.67 C 1251.01 311.74 1245.39 310.82 1240.04 312.03 C 1238.27 312.36 1236.47 311.98 1234.72 311.93 C 1236.50 311.56 1238.26 311.06 1240.05 310.62 C 1239.57 310.34 1238.61 309.77 1238.12 309.49 L 1237.58 309.11 C 1240.35 308.96 1243.10 308.47 1245.81 307.81 C 1251.52 308.87 1258.37 308.22 1262.25 303.37 C 1264.54 300.95 1265.36 297.23 1268.38 295.55 C 1267.67 298.37 1265.83 300.69 1264.67 303.32 C 1266.91 301.81 1268.26 299.46 1269.68 297.23 C 1274.02 291.45 1275.64 284.28 1276.26 277.21 C 1278.07 269.24 1277.54 261.05 1277.72 252.95 C 1277.86 237.97 1278.28 222.99 1278.01 208.00 C 1278.92 204.76 1278.63 201.37 1278.74 198.04 C 1278.90 188.97 1279.61 179.89 1278.97 170.82 Z" />
<path fill="#575555" opacity="1.00" d=" M 1219.94 320.16 C 1228.35 320.72 1236.65 318.78 1245.07 319.15 C 1234.09 320.51 1222.99 320.59 1211.94 320.70 C 1060.95 320.87 909.95 320.73 758.95 320.78 C 535.28 320.73 311.60 320.87 87.93 320.72 C 81.32 320.47 74.66 320.88 68.10 320.05 C 98.73 320.55 129.37 320.10 160.00 320.29 C 459.35 320.25 758.71 320.31 1058.06 320.28 C 1112.02 320.18 1165.98 320.45 1219.94 320.16 Z" />
</g>
<g id="#4544448c">
<path fill="#454444" opacity="0.55" d=" M 56.91 29.87 C 61.00 28.47 65.41 29.14 69.64 29.00 C 68.84 30.70 66.70 29.92 65.24 30.14 C 62.46 30.14 59.69 29.96 56.91 29.87 Z" />
</g>
<g id="#343233ff">
<path fill="#343233" opacity="1.00" d=" M 69.64 29.00 C 70.81 28.92 71.98 28.88 73.14 28.88 C 307.06 29.05 541.00 29.04 774.93 29.03 C 925.91 29.01 1076.91 29.12 1227.88 28.87 C 1228.49 28.97 1229.70 29.17 1230.31 29.27 C 1221.17 30.86 1211.85 28.82 1202.75 30.40 C 899.18 30.31 595.61 30.35 292.03 30.37 C 226.02 30.42 160.01 30.25 94.01 30.50 C 81.96 30.33 69.99 31.51 57.95 31.75 C 51.84 32.16 45.67 32.85 39.98 35.28 C 39.51 35.32 38.58 35.42 38.11 35.47 C 40.07 33.43 43.31 32.09 46.09 31.96 C 46.59 31.79 47.60 31.45 48.10 31.27 C 48.65 31.18 49.74 31.01 50.29 30.92 C 51.92 31.24 53.68 31.43 55.13 30.41 C 55.57 30.27 56.47 30.00 56.91 29.87 C 59.69 29.96 62.46 30.14 65.24 30.14 C 66.70 29.92 68.84 30.70 69.64 29.00 Z" />
<path fill="#343233" opacity="1.00" d=" M 1264.63 48.11 C 1264.96 47.70 1265.64 46.88 1265.98 46.47 C 1269.37 50.09 1271.23 54.75 1273.47 59.10 C 1276.87 69.69 1277.19 80.96 1277.44 91.99 C 1277.34 118.47 1277.66 144.95 1277.54 171.44 C 1277.36 178.96 1277.44 186.49 1277.41 194.01 C 1277.51 195.51 1276.74 196.83 1276.32 198.21 C 1276.48 164.80 1276.10 131.37 1275.92 97.95 C 1275.59 92.19 1276.24 86.24 1274.47 80.66 C 1273.85 76.15 1273.10 71.64 1271.90 67.24 C 1271.17 60.32 1268.83 53.68 1264.63 48.11 Z" />
</g>
<g id="#3d3e40ff">
<path fill="#3d3e40" opacity="1.00" d=" M 1230.31 29.27 C 1233.17 28.88 1236.05 29.38 1238.93 29.44 C 1240.14 29.87 1242.44 28.04 1242.80 29.99 C 1239.34 30.36 1235.84 30.04 1232.40 30.47 C 1236.33 31.12 1240.36 30.84 1244.32 30.40 L 1243.61 30.15 L 1242.88 29.88 C 1245.61 30.45 1248.84 29.78 1251.34 31.37 C 1249.40 32.09 1247.42 32.70 1245.52 33.49 C 1240.79 31.86 1235.68 32.18 1230.77 32.37 L 1230.62 31.22 C 1225.40 31.75 1220.25 30.44 1215.04 30.60 C 1210.94 30.57 1206.84 30.52 1202.75 30.40 C 1211.85 28.82 1221.17 30.86 1230.31 29.27 Z" />
</g>
<g id="#4948498b">
<path fill="#494849" opacity="0.55" d=" M 50.29 30.92 C 50.63 29.22 53.94 29.56 55.13 30.41 C 53.68 31.43 51.92 31.24 50.29 30.92 Z" />
</g>
<g id="#e5e5ebff">
<path fill="#e5e5eb" opacity="1.00" d=" M 94.01 30.50 C 160.01 30.25 226.02 30.42 292.03 30.37 C 595.61 30.35 899.18 30.31 1202.75 30.40 C 1206.84 30.52 1210.94 30.57 1215.04 30.60 C 1220.25 30.44 1225.40 31.75 1230.62 31.22 L 1230.77 32.37 C 1227.11 33.10 1223.28 32.40 1219.76 33.74 C 1209.91 34.71 1199.96 33.82 1190.07 34.06 C 1011.02 33.87 831.98 34.03 652.94 33.95 C 465.65 34.02 278.37 33.85 91.08 34.12 C 84.12 33.93 77.09 34.92 70.18 33.81 C 66.11 33.09 61.97 33.30 57.86 33.27 L 57.95 31.75 C 69.99 31.51 81.96 30.33 94.01 30.50 Z" />
<path fill="#e5e5eb" opacity="1.00" d=" M 47.05 312.46 L 47.47 311.78 C 51.26 313.01 55.29 313.08 59.12 314.15 C 61.69 314.82 64.31 315.30 66.96 315.40 C 81.30 315.58 95.64 315.64 109.98 315.71 C 118.58 317.07 127.35 316.49 136.02 316.23 C 132.96 316.96 129.78 316.65 126.72 317.40 C 113.83 317.37 100.94 317.43 88.05 317.27 C 77.44 316.06 66.69 317.01 56.10 315.82 C 53.40 315.11 50.73 314.35 48.01 313.75 C 47.77 313.43 47.29 312.78 47.05 312.46 Z" />
</g>
<g id="#d1d3ddff">
<path fill="#d1d3dd" opacity="1.00" d=" M 1232.40 30.47 C 1235.84 30.04 1239.34 30.36 1242.80 29.99 L 1243.61 30.15 L 1244.32 30.40 C 1240.36 30.84 1236.33 31.12 1232.40 30.47 Z" />
<path fill="#d1d3dd" opacity="1.00" d=" M 49.03 37.07 C 56.10 36.16 63.00 34.02 70.18 33.81 C 77.09 34.92 84.12 33.93 91.08 34.12 C 278.37 33.85 465.65 34.02 652.94 33.95 C 831.98 34.03 1011.02 33.87 1190.07 34.06 C 1199.96 33.82 1209.91 34.71 1219.76 33.74 C 1226.15 34.24 1232.67 33.14 1238.94 34.87 C 1242.03 35.86 1245.77 35.32 1248.38 37.51 C 1225.96 35.96 1203.43 36.38 1180.96 36.28 C 827.00 36.27 473.03 36.29 119.06 36.25 C 100.70 36.29 82.33 36.18 63.98 36.77 C 55.75 37.64 46.89 37.31 39.48 41.49 C 33.60 45.90 29.33 52.26 26.62 59.05 C 26.29 55.19 29.45 52.22 31.20 49.08 C 34.78 42.88 41.47 39.79 47.50 36.52 C 47.88 36.66 48.64 36.93 49.03 37.07 Z" />
</g>
<g id="#48474879">
<path fill="#484748" opacity="0.47" d=" M 46.24 31.14 C 46.70 31.17 47.63 31.24 48.10 31.27 C 47.60 31.45 46.59 31.79 46.09 31.96 L 46.24 31.14 Z" />
</g>
<g id="#6c696aff">
<path fill="#6c696a" opacity="1.00" d=" M 1251.34 31.37 C 1256.03 31.22 1260.21 34.07 1264.21 36.20 C 1267.37 39.44 1271.41 42.84 1272.79 47.28 C 1272.68 49.64 1274.12 51.47 1275.39 53.31 C 1275.56 55.45 1276.33 57.46 1277.39 59.31 C 1276.76 60.80 1276.56 62.38 1276.52 63.98 C 1276.29 61.56 1276.37 58.25 1273.57 57.27 L 1273.47 59.10 C 1271.23 54.75 1269.37 50.09 1265.98 46.47 C 1263.19 42.59 1258.82 40.82 1254.64 38.94 C 1255.25 38.90 1256.48 38.81 1257.09 38.77 C 1253.64 36.20 1249.53 34.88 1245.52 33.49 C 1247.42 32.70 1249.40 32.09 1251.34 31.37 Z" />
<path fill="#6c696a" opacity="1.00" d=" M 25.58 60.18 C 25.20 64.49 23.05 68.52 23.44 72.94 C 22.27 77.51 22.58 82.30 22.44 86.99 C 22.41 147.00 22.44 207.03 22.42 267.03 C 22.26 271.46 24.04 275.60 23.99 279.99 C 24.46 283.48 25.96 286.74 26.62 290.18 C 25.10 289.55 25.23 287.79 24.79 286.50 C 23.25 280.79 22.18 274.92 22.00 268.99 C 19.94 261.18 21.50 252.92 21.57 244.93 C 21.36 195.29 21.44 145.64 21.58 96.00 C 21.76 90.98 20.44 85.75 22.43 81.00 C 21.96 73.93 23.25 66.84 25.58 60.18 Z" />
</g>
<g id="#91959fff">
<path fill="#91959f" opacity="1.00" d=" M 39.98 35.28 C 45.67 32.85 51.84 32.16 57.95 31.75 L 57.86 33.27 C 54.33 34.09 50.75 34.87 47.50 36.52 C 41.47 39.79 34.78 42.88 31.20 49.08 C 29.45 52.22 26.29 55.19 26.62 59.05 C 26.96 59.45 27.64 60.24 27.98 60.63 C 25.65 67.20 26.91 74.19 26.02 80.97 C 25.45 86.63 25.73 92.31 25.68 97.98 C 25.65 152.64 25.68 207.30 25.66 261.97 C 25.76 267.67 26.64 273.34 26.46 279.05 C 26.36 282.01 26.78 284.95 27.52 287.82 C 27.58 286.43 27.40 284.90 28.47 283.83 C 29.27 287.56 29.51 291.37 30.17 295.12 C 29.13 293.82 27.74 292.88 26.27 292.12 C 28.17 298.87 32.84 304.57 38.18 308.99 C 37.80 309.22 37.03 309.68 36.65 309.91 C 32.91 307.12 29.87 303.40 27.98 299.14 C 27.06 297.34 26.46 295.18 24.64 294.06 C 24.66 295.09 24.71 297.14 24.74 298.16 C 24.50 297.61 24.03 296.50 23.80 295.94 C 24.45 289.77 21.51 284.09 20.98 278.04 C 20.38 271.71 19.23 265.41 19.65 259.02 C 19.66 202.35 19.69 145.68 19.65 89.00 C 19.44 81.60 20.61 74.24 21.69 66.93 C 23.55 56.07 28.86 45.92 36.85 38.31 C 36.37 38.18 35.42 37.92 34.94 37.79 C 35.77 37.03 36.60 36.28 37.43 35.52 L 38.11 35.47 C 38.58 35.42 39.51 35.32 39.98 35.28 M 25.58 60.18 C 23.25 66.84 21.96 73.93 22.43 81.00 C 20.44 85.75 21.76 90.98 21.58 96.00 C 21.44 145.64 21.36 195.29 21.57 244.93 C 21.50 252.92 19.94 261.18 22.00 268.99 C 22.18 274.92 23.25 280.79 24.79 286.50 C 25.23 287.79 25.10 289.55 26.62 290.18 C 25.96 286.74 24.46 283.48 23.99 279.99 C 24.04 275.60 22.26 271.46 22.42 267.03 C 22.44 207.03 22.41 147.00 22.44 86.99 C 22.58 82.30 22.27 77.51 23.44 72.94 C 23.05 68.52 25.20 64.49 25.58 60.18 Z" />
</g>
<g id="#f9f9f9ff">
<path fill="#f9f9f9" opacity="1.00" d=" M 47.50 36.52 C 50.75 34.87 54.33 34.09 57.86 33.27 C 61.97 33.30 66.11 33.09 70.18 33.81 C 63.00 34.02 56.10 36.16 49.03 37.07 C 48.64 36.93 47.88 36.66 47.50 36.52 Z" />
<path fill="#f9f9f9" opacity="1.00" d=" M 1219.76 33.74 C 1223.28 32.40 1227.11 33.10 1230.77 32.37 C 1235.68 32.18 1240.79 31.86 1245.52 33.49 C 1249.53 34.88 1253.64 36.20 1257.09 38.77 C 1256.48 38.81 1255.25 38.90 1254.64 38.94 C 1252.61 38.17 1250.45 38.04 1248.38 37.51 C 1245.77 35.32 1242.03 35.86 1238.94 34.87 C 1232.67 33.14 1226.15 34.24 1219.76 33.74 Z" />
<path fill="#f9f9f9" opacity="1.00" d=" M 553.88 39.53 C 770.56 39.72 987.24 39.58 1203.92 39.65 C 1215.19 39.81 1226.48 39.29 1237.74 39.93 C 1238.02 39.99 1238.57 40.09 1238.85 40.14 C 1239.44 43.02 1240.60 45.85 1240.32 48.84 C 1242.11 49.01 1243.92 49.20 1245.74 49.42 C 1244.64 51.63 1243.79 54.25 1241.43 55.45 C 1236.68 58.78 1230.67 57.82 1225.25 57.69 C 1200.49 58.27 1175.68 57.38 1150.93 58.15 C 1143.19 57.59 1135.45 58.51 1127.71 58.42 C 1123.35 58.03 1119.00 58.94 1114.64 58.62 C 1108.85 58.19 1103.08 58.85 1097.29 58.56 C 1093.83 58.97 1090.40 58.86 1087.02 58.11 C 1080.67 59.27 1074.23 57.14 1067.99 58.71 C 1051.37 58.66 1034.71 58.97 1018.07 58.85 C 1012.06 59.71 1006.05 58.36 1000.04 58.91 C 994.43 59.74 988.78 58.11 983.21 59.38 C 971.50 58.38 959.69 59.11 947.93 58.86 C 942.58 58.57 937.24 59.83 931.91 59.08 C 928.25 58.42 924.65 60.01 921.02 59.11 C 914.23 59.38 907.40 59.16 900.59 59.42 C 896.75 60.13 892.94 58.15 889.13 59.24 C 886.40 59.94 883.62 59.63 880.88 59.21 C 868.96 60.11 856.92 59.42 844.95 59.87 C 838.95 60.29 833.05 58.47 827.09 59.18 C 821.50 59.82 815.86 59.30 810.26 59.72 C 801.28 59.36 792.28 60.47 783.32 59.61 C 748.22 60.12 713.09 59.78 677.99 59.91 C 672.36 60.05 666.72 59.58 661.12 60.20 C 658.07 60.55 655.05 59.64 652.01 59.89 C 649.01 60.14 645.99 60.45 643.00 60.02 C 638.22 59.22 633.49 61.26 628.73 60.38 C 626.49 59.97 624.24 60.38 622.02 60.58 C 610.70 61.11 599.37 60.68 588.05 60.94 C 587.68 61.34 586.95 62.13 586.58 62.53 C 586.05 62.03 585.53 61.53 585.02 61.04 C 583.73 61.23 582.50 61.69 581.42 62.42 C 580.90 61.87 580.38 61.32 579.88 60.78 C 579.16 60.85 577.71 60.99 576.99 61.06 C 577.29 62.41 577.41 63.79 577.75 65.14 C 576.84 66.36 576.39 68.18 574.91 68.79 C 572.46 69.04 569.44 69.41 567.86 67.12 C 568.34 66.27 568.83 65.42 569.32 64.57 C 570.53 64.70 571.75 64.81 572.98 64.95 C 572.39 62.97 570.57 61.90 568.82 61.11 C 567.00 61.19 565.19 61.27 563.38 61.32 C 563.40 61.70 563.43 62.47 563.44 62.86 C 562.81 62.47 562.18 62.09 561.56 61.70 C 559.49 61.79 557.43 61.63 555.41 61.19 C 555.39 64.79 555.35 68.44 556.59 71.89 C 554.63 74.21 556.70 77.03 556.70 79.66 C 556.98 80.00 557.55 80.70 557.83 81.05 C 556.91 81.19 556.01 81.38 555.12 81.60 C 554.52 86.49 556.33 91.86 553.97 96.40 C 553.41 81.92 553.79 67.41 553.72 52.92 C 553.85 48.46 553.88 43.99 553.88 39.53 Z" />
<path fill="#f9f9f9" opacity="1.00" d=" M 1235.02 315.17 C 1241.71 314.45 1248.33 312.87 1254.94 311.52 C 1253.98 312.38 1252.98 313.17 1251.79 313.67 C 1250.39 314.20 1249.03 314.76 1247.66 315.31 C 1243.37 316.22 1238.99 316.44 1234.63 316.47 L 1235.02 315.17 Z" />
</g>
<g id="#464443ff">
<path fill="#464443" opacity="1.00" d=" M 63.98 36.77 C 82.33 36.18 100.70 36.29 119.06 36.25 C 473.03 36.29 827.00 36.27 1180.96 36.28 C 1203.43 36.38 1225.96 35.96 1248.38 37.51 C 1250.45 38.04 1252.61 38.17 1254.64 38.94 C 1258.82 40.82 1263.19 42.59 1265.98 46.47 C 1265.64 46.88 1264.96 47.70 1264.63 48.11 C 1261.77 43.38 1256.56 40.40 1251.04 40.32 C 1246.60 40.32 1242.16 40.24 1237.74 39.93 C 1226.48 39.29 1215.19 39.81 1203.92 39.65 C 987.24 39.58 770.56 39.72 553.88 39.53 C 546.55 39.39 539.21 39.33 531.88 39.57 L 531.30 39.59 C 382.19 39.75 233.08 39.60 83.97 39.65 C 75.14 39.88 66.21 38.93 57.48 40.68 C 52.62 39.72 47.56 40.35 42.85 41.72 C 40.08 42.45 38.48 44.96 37.14 47.28 C 33.30 51.13 29.69 55.35 27.98 60.63 C 27.64 60.24 26.96 59.45 26.62 59.05 C 29.33 52.26 33.60 45.90 39.48 41.49 C 46.89 37.31 55.75 37.64 63.98 36.77 Z" />
</g>
<g id="#9395a0ff">
<path fill="#9395a0" opacity="1.00" d=" M 23.20 54.83 C 25.69 48.36 29.63 42.30 34.94 37.79 C 35.42 37.92 36.37 38.18 36.85 38.31 C 28.86 45.92 23.55 56.07 21.69 66.93 C 20.61 74.24 19.44 81.60 19.65 89.00 C 19.69 145.68 19.66 202.35 19.65 259.02 C 19.23 265.41 20.38 271.71 20.98 278.04 C 21.51 284.09 24.45 289.77 23.80 295.94 C 16.52 278.61 17.58 259.42 17.48 241.03 C 16.90 202.03 17.34 163.02 17.18 124.01 C 18.59 100.98 14.72 76.91 23.20 54.83 Z" />
</g>
<g id="#6a6568ff">
<path fill="#6a6568" opacity="1.00" d=" M 42.85 41.72 C 47.56 40.35 52.62 39.72 57.48 40.68 C 53.82 42.27 49.82 43.17 46.56 45.55 C 46.32 45.55 45.85 45.53 45.62 45.52 C 42.67 45.32 39.76 45.94 37.14 47.28 C 38.48 44.96 40.08 42.45 42.85 41.72 Z" />
<path fill="#6a6568" opacity="1.00" d=" M 1237.74 39.93 C 1242.16 40.24 1246.60 40.32 1251.04 40.32 C 1256.56 40.40 1261.77 43.38 1264.63 48.11 C 1268.83 53.68 1271.17 60.32 1271.90 67.24 C 1270.39 63.95 1269.29 60.43 1267.08 57.52 C 1264.47 53.68 1261.07 50.48 1257.33 47.76 C 1254.53 45.46 1251.29 43.76 1247.81 42.76 C 1244.89 41.63 1241.86 40.88 1238.85 40.14 C 1238.57 40.09 1238.02 39.99 1237.74 39.93 Z" />
<path fill="#6a6568" opacity="1.00" d=" M 32.10 288.91 C 32.92 289.99 33.78 291.03 34.59 292.13 C 35.20 292.99 35.81 293.88 36.43 294.75 C 41.32 301.43 48.73 305.69 56.46 308.28 C 51.90 309.25 47.11 308.65 42.70 307.29 C 37.92 305.46 36.09 300.23 33.58 296.22 C 33.23 296.49 32.52 297.02 32.17 297.29 L 31.92 296.65 C 30.98 294.12 31.53 291.44 32.10 288.91 Z" />
<path fill="#6a6568" opacity="1.00" d=" M 1267.22 291.54 C 1268.20 293.36 1269.07 295.24 1269.68 297.23 C 1268.26 299.46 1266.91 301.81 1264.67 303.32 C 1265.83 300.69 1267.67 298.37 1268.38 295.55 C 1265.36 297.23 1264.54 300.95 1262.25 303.37 C 1258.37 308.22 1251.52 308.87 1245.81 307.81 C 1246.43 307.49 1247.06 307.18 1247.72 306.87 C 1255.59 303.92 1262.60 298.61 1267.22 291.54 Z" />
</g>
<g id="#1e3c90ff">
<path fill="#1e3c90" opacity="1.00" d=" M 57.48 40.68 C 66.21 38.93 75.14 39.88 83.97 39.65 C 233.08 39.60 382.19 39.75 531.30 39.59 C 530.99 44.34 530.81 49.11 530.74 53.87 C 472.46 53.90 414.18 53.41 355.90 54.31 C 285.93 53.63 215.95 54.94 145.99 53.37 C 129.64 53.38 113.29 52.79 96.94 52.53 C 80.04 51.25 62.89 50.49 46.56 45.55 C 49.82 43.17 53.82 42.27 57.48 40.68 Z" />
</g>
<g id="#b6b6b5ff">
<path fill="#b6b6b5" opacity="1.00" d=" M 531.30 39.59 L 531.88 39.57 C 531.53 43.22 531.57 46.89 532.04 50.52 C 538.90 49.15 545.93 50.54 552.82 49.43 C 553.05 50.74 553.29 52.05 553.54 53.36 C 545.99 54.17 538.32 53.24 530.74 53.87 C 530.81 49.11 530.99 44.34 531.30 39.59 Z" />
</g>
<g id="#c6c6c6ff">
<path fill="#c6c6c6" opacity="1.00" d=" M 531.88 39.57 C 539.21 39.33 546.55 39.39 553.88 39.53 C 553.88 43.99 553.85 48.46 553.72 52.92 L 553.54 53.36 C 553.29 52.05 553.05 50.74 552.82 49.43 C 545.93 50.54 538.90 49.15 532.04 50.52 C 531.57 46.89 531.53 43.22 531.88 39.57 Z" />
</g>
<g id="#eeeeeeff">
<path fill="#eeeeee" opacity="1.00" d=" M 1238.85 40.14 C 1241.86 40.88 1244.89 41.63 1247.81 42.76 C 1248.15 44.15 1248.37 45.60 1249.07 46.89 C 1251.69 47.82 1254.58 47.55 1257.33 47.76 C 1261.07 50.48 1264.47 53.68 1267.08 57.52 C 1266.65 57.98 1265.77 58.89 1265.34 59.34 C 1266.82 65.84 1265.84 72.48 1265.20 79.01 C 1265.15 130.36 1265.06 181.73 1265.00 233.08 C 1264.55 240.38 1265.57 247.65 1265.37 254.94 C 1265.29 260.29 1265.38 265.65 1265.38 271.00 C 1265.39 273.98 1264.79 277.10 1262.74 279.39 C 1263.14 260.05 1264.36 240.45 1260.70 221.32 C 1263.07 218.03 1261.98 213.79 1262.17 210.03 C 1262.15 167.03 1262.19 124.02 1262.19 81.02 C 1262.55 75.07 1261.85 69.14 1260.75 63.30 C 1259.93 61.56 1257.94 62.07 1256.47 62.34 C 1256.02 61.93 1255.11 61.10 1254.66 60.69 C 1254.28 65.78 1254.38 70.97 1255.34 76.00 C 1254.27 83.64 1255.01 91.36 1254.77 99.04 C 1254.80 128.35 1254.82 157.67 1254.82 186.97 C 1254.70 187.60 1254.47 188.85 1254.35 189.47 C 1252.25 184.11 1250.75 178.39 1247.32 173.67 C 1245.86 171.58 1244.49 169.43 1242.93 167.42 C 1237.64 160.62 1229.97 156.34 1222.40 152.55 C 1198.61 143.69 1173.14 141.22 1148.07 138.61 C 1116.78 135.26 1085.39 132.79 1053.94 131.58 C 1051.77 131.49 1049.71 130.77 1047.63 130.29 C 1051.70 129.49 1055.85 130.20 1059.97 130.09 C 1087.33 129.88 1114.70 130.42 1142.05 129.89 C 1142.14 121.33 1142.23 112.76 1141.98 104.20 C 1110.99 104.19 1080.01 104.15 1049.02 104.23 C 1033.93 104.07 1019.64 114.58 1014.87 128.81 L 1014.72 129.34 C 1010.82 128.91 1006.91 128.81 1003.03 128.40 C 1002.68 120.34 1002.98 112.26 1002.86 104.19 C 955.67 104.22 908.49 104.12 861.30 104.25 C 861.40 111.56 861.32 118.86 861.35 126.17 L 861.35 126.81 C 855.03 125.39 848.48 127.27 842.22 126.22 C 842.20 118.88 842.38 111.53 842.14 104.18 C 833.54 104.25 824.95 104.11 816.36 104.27 C 816.46 111.87 816.41 119.47 816.40 127.08 C 809.23 127.55 802.03 127.46 794.85 127.19 C 794.73 119.53 794.85 111.87 794.78 104.20 C 786.24 104.17 777.70 104.24 769.17 104.17 C 768.95 112.06 769.36 119.96 768.94 127.85 C 744.94 128.14 720.98 129.32 697.00 130.33 C 692.15 130.54 687.32 131.27 682.47 130.97 C 682.32 122.03 682.74 113.05 682.25 104.13 C 673.63 104.31 665.01 104.12 656.39 104.24 C 656.49 113.83 656.40 123.41 656.44 132.99 L 656.44 133.81 C 653.29 133.19 650.14 134.02 647.00 134.25 C 628.77 135.95 610.48 137.12 592.32 139.58 C 579.47 141.03 566.73 143.29 553.86 144.67 C 553.40 133.78 553.74 122.88 553.64 111.98 C 553.81 106.79 553.33 101.57 553.97 96.40 C 556.33 91.86 554.52 86.49 555.12 81.60 C 556.01 81.38 556.91 81.19 557.83 81.05 C 557.55 80.70 556.98 80.00 556.70 79.66 C 556.70 77.03 554.63 74.21 556.59 71.89 C 555.35 68.44 555.39 64.79 555.41 61.19 C 557.43 61.63 559.49 61.79 561.56 61.70 C 562.18 62.09 562.81 62.47 563.44 62.86 C 563.43 62.47 563.40 61.70 563.38 61.32 C 565.19 61.27 567.00 61.19 568.82 61.11 C 570.57 61.90 572.39 62.97 572.98 64.95 C 571.75 64.81 570.53 64.70 569.32 64.57 C 568.83 65.42 568.34 66.27 567.86 67.12 C 569.44 69.41 572.46 69.04 574.91 68.79 C 576.39 68.18 576.84 66.36 577.75 65.14 C 577.41 63.79 577.29 62.41 576.99 61.06 C 577.71 60.99 579.16 60.85 579.88 60.78 C 580.38 61.32 580.90 61.87 581.42 62.42 C 582.50 61.69 583.73 61.23 585.02 61.04 C 585.53 61.53 586.05 62.03 586.58 62.53 C 586.95 62.13 587.68 61.34 588.05 60.94 C 599.37 60.68 610.70 61.11 622.02 60.58 C 624.24 60.38 626.49 59.97 628.73 60.38 C 633.49 61.26 638.22 59.22 643.00 60.02 C 645.99 60.45 649.01 60.14 652.01 59.89 C 655.05 59.64 658.07 60.55 661.12 60.20 C 666.72 59.58 672.36 60.05 677.99 59.91 C 713.09 59.78 748.22 60.12 783.32 59.61 C 792.28 60.47 801.28 59.36 810.26 59.72 C 815.86 59.30 821.50 59.82 827.09 59.18 C 833.05 58.47 838.95 60.29 844.95 59.87 C 856.92 59.42 868.96 60.11 880.88 59.21 C 883.62 59.63 886.40 59.94 889.13 59.24 C 892.94 58.15 896.75 60.13 900.59 59.42 C 907.40 59.16 914.23 59.38 921.02 59.11 C 924.65 60.01 928.25 58.42 931.91 59.08 C 937.24 59.83 942.58 58.57 947.93 58.86 C 959.69 59.11 971.50 58.38 983.21 59.38 C 988.78 58.11 994.43 59.74 1000.04 58.91 C 1006.05 58.36 1012.06 59.71 1018.07 58.85 C 1034.71 58.97 1051.37 58.66 1067.99 58.71 C 1074.23 57.14 1080.67 59.27 1087.02 58.11 C 1090.40 58.86 1093.83 58.97 1097.29 58.56 C 1103.08 58.85 1108.85 58.19 1114.64 58.62 C 1119.00 58.94 1123.35 58.03 1127.71 58.42 C 1135.45 58.51 1143.19 57.59 1150.93 58.15 C 1175.68 57.38 1200.49 58.27 1225.25 57.69 C 1230.67 57.82 1236.68 58.78 1241.43 55.45 C 1243.79 54.25 1244.64 51.63 1245.74 49.42 C 1243.92 49.20 1242.11 49.01 1240.32 48.84 C 1240.60 45.85 1239.44 43.02 1238.85 40.14 Z" />
</g>
<g id="#c3c3c4ff">
<path fill="#c3c3c4" opacity="1.00" d=" M 1247.81 42.76 C 1251.29 43.76 1254.53 45.46 1257.33 47.76 C 1254.58 47.55 1251.69 47.82 1249.07 46.89 C 1248.37 45.60 1248.15 44.15 1247.81 42.76 Z" />
</g>
<g id="#bdbdc6ff">
<path fill="#bdbdc6" opacity="1.00" d=" M 37.14 47.28 C 39.76 45.94 42.67 45.32 45.62 45.52 C 42.24 49.19 37.89 51.95 35.26 56.29 C 30.35 62.75 28.36 71.00 28.23 79.01 C 28.29 142.66 28.25 206.31 28.25 269.96 C 28.18 275.92 29.47 281.87 31.90 287.31 C 31.95 287.71 32.05 288.51 32.10 288.91 C 31.53 291.44 30.98 294.12 31.92 296.65 L 32.17 297.29 C 32.81 298.49 33.40 299.73 33.89 301.01 C 32.38 299.23 31.16 297.23 30.17 295.12 C 29.51 291.37 29.27 287.56 28.47 283.83 C 27.40 284.90 27.58 286.43 27.52 287.82 C 26.78 284.95 26.36 282.01 26.46 279.05 C 26.64 273.34 25.76 267.67 25.66 261.97 C 25.68 207.30 25.65 152.64 25.68 97.98 C 25.73 92.31 25.45 86.63 26.02 80.97 C 26.91 74.19 25.65 67.20 27.98 60.63 C 29.69 55.35 33.30 51.13 37.14 47.28 Z" />
</g>
<g id="#6880b9ff">
<path fill="#6880b9" opacity="1.00" d=" M 45.62 45.52 C 45.85 45.53 46.32 45.55 46.56 45.55 C 62.89 50.49 80.04 51.25 96.94 52.53 C 113.29 52.79 129.64 53.38 145.99 53.37 C 215.95 54.94 285.93 53.63 355.90 54.31 C 414.18 53.41 472.46 53.90 530.74 53.87 C 530.60 85.07 530.68 116.26 530.69 147.46 L 530.69 147.82 C 506.72 150.52 482.94 154.65 459.07 158.07 C 464.20 146.31 470.12 134.91 475.22 123.14 C 476.99 119.70 474.94 114.77 470.93 114.36 C 463.29 114.08 455.64 114.34 448.00 114.24 C 445.14 114.14 441.87 114.64 440.12 117.17 C 437.22 121.30 435.69 126.18 433.66 130.76 C 428.43 142.42 423.35 154.15 418.28 165.88 L 418.03 164.99 C 409.52 166.71 400.84 167.55 392.41 169.73 C 382.65 154.14 372.92 138.52 363.16 122.93 C 360.72 118.43 356.43 114.27 350.99 114.31 C 340.66 114.21 330.32 114.20 319.99 114.32 C 313.77 114.39 309.61 119.46 305.79 123.67 C 290.82 140.11 275.55 156.29 260.65 172.80 C 265.61 179.67 270.29 186.74 275.13 193.69 C 270.21 195.00 265.28 196.26 260.26 197.09 C 260.26 153.73 260.26 110.38 260.26 67.02 C 260.49 63.74 258.56 59.86 255.01 59.41 C 249.04 58.90 243.03 59.30 237.05 59.18 C 232.57 59.18 227.22 59.40 224.30 63.35 C 221.01 67.09 221.36 72.38 221.35 77.02 C 221.38 120.25 221.33 163.48 221.38 206.70 C 218.32 207.61 215.24 208.40 212.10 208.97 C 212.95 200.63 211.74 191.86 207.37 184.60 C 202.33 175.78 192.90 170.64 183.56 167.54 C 173.64 165.08 163.69 162.70 153.75 160.32 C 146.81 158.68 139.61 157.76 133.01 154.97 C 130.81 154.14 129.29 151.63 130.38 149.35 C 132.41 146.86 135.99 146.72 138.95 146.60 C 157.32 146.60 175.69 146.60 194.06 146.60 C 198.35 146.76 202.95 145.04 205.54 141.52 C 209.00 135.59 207.32 128.44 207.71 121.94 C 208.06 118.50 205.98 114.29 202.09 114.35 C 180.39 114.12 158.67 114.30 136.96 114.26 C 124.87 114.17 112.02 117.58 103.26 126.31 C 92.74 136.60 90.05 153.36 94.91 166.97 C 99.14 178.82 110.86 186.04 122.44 189.38 C 136.31 192.40 150.09 195.91 164.06 198.51 C 166.90 199.19 169.84 199.96 172.20 201.77 C 174.31 203.17 174.54 206.91 172.25 208.25 C 170.46 209.60 168.16 209.85 165.99 209.89 C 146.98 209.96 127.96 209.82 108.95 209.95 C 104.72 209.89 100.27 211.13 97.42 214.42 C 94.83 217.29 94.89 221.39 94.80 225.01 C 94.93 230.01 94.37 235.09 95.57 240.01 C 82.87 244.90 70.11 250.06 58.84 257.80 C 48.91 264.31 39.75 272.53 33.99 283.04 C 33.26 284.44 32.56 285.86 31.90 287.31 C 29.47 281.87 28.18 275.92 28.25 269.96 C 28.25 206.31 28.29 142.66 28.23 79.01 C 28.36 71.00 30.35 62.75 35.26 56.29 C 37.89 51.95 42.24 49.19 45.62 45.52 M 48.61 51.58 C 45.73 53.50 42.95 55.75 41.64 59.08 C 41.91 59.43 42.47 60.14 42.74 60.49 C 46.37 57.83 50.70 55.36 52.91 51.36 C 51.48 51.41 50.05 51.51 48.61 51.58 Z" />
</g>
<g id="#8f9096ff">
<path fill="#8f9096" opacity="1.00" d=" M 1272.79 47.28 L 1273.43 47.25 C 1283.01 63.77 1282.76 83.48 1282.81 101.98 C 1282.88 133.97 1282.80 165.96 1282.88 197.95 C 1282.74 221.03 1283.21 244.11 1282.48 267.17 C 1281.72 279.16 1279.77 291.78 1273.25 302.04 C 1274.52 299.15 1275.68 296.22 1276.64 293.20 C 1281.24 282.42 1281.23 270.48 1281.79 258.97 C 1281.86 245.28 1281.56 231.60 1281.63 217.91 C 1281.36 206.24 1282.10 194.53 1280.77 182.91 C 1280.55 178.52 1280.45 174.13 1279.99 169.76 C 1279.74 170.02 1279.23 170.56 1278.97 170.82 L 1277.54 171.44 C 1277.66 144.95 1277.34 118.47 1277.44 91.99 C 1277.19 80.96 1276.87 69.69 1273.47 59.10 L 1273.57 57.27 C 1276.37 58.25 1276.29 61.56 1276.52 63.98 C 1276.56 62.38 1276.76 60.80 1277.39 59.31 C 1276.33 57.46 1275.56 55.45 1275.39 53.31 C 1274.12 51.47 1272.68 49.64 1272.79 47.28 Z" />
</g>
<g id="#e7f6faff">
<path fill="#e7f6fa" opacity="1.00" d=" M 48.61 51.58 C 50.05 51.51 51.48 51.41 52.91 51.36 C 50.70 55.36 46.37 57.83 42.74 60.49 C 42.47 60.14 41.91 59.43 41.64 59.08 C 42.95 55.75 45.73 53.50 48.61 51.58 Z" />
</g>
<g id="#cfcfcfff">
<path fill="#cfcfcf" opacity="1.00" d=" M 553.54 53.36 L 553.72 52.92 C 553.79 67.41 553.41 81.92 553.97 96.40 C 553.33 101.57 553.81 106.79 553.64 111.98 C 553.74 122.88 553.40 133.78 553.86 144.67 L 553.44 144.72 C 545.78 145.09 538.36 147.26 530.69 147.46 C 530.68 116.26 530.60 85.07 530.74 53.87 C 538.32 53.24 545.99 54.17 553.54 53.36 Z" />
</g>
<g id="#ffffffff">
<path fill="#ffffff" opacity="1.00" d=" M 1265.34 59.34 C 1265.77 58.89 1266.65 57.98 1267.08 57.52 C 1269.29 60.43 1270.39 63.95 1271.90 67.24 C 1273.10 71.64 1273.85 76.15 1274.47 80.66 C 1274.03 139.43 1274.46 198.23 1274.23 257.01 C 1273.12 265.03 1274.60 273.32 1272.19 281.16 C 1271.15 284.64 1270.15 288.12 1269.39 291.66 C 1269.07 291.29 1268.44 290.54 1268.13 290.17 C 1267.90 290.51 1267.44 291.19 1267.22 291.54 C 1262.60 298.61 1255.59 303.92 1247.72 306.87 C 1247.35 305.61 1247.35 304.24 1248.07 303.11 C 1249.85 299.69 1251.54 296.10 1254.32 293.35 C 1257.99 289.32 1262.24 285.14 1262.74 279.39 C 1264.79 277.10 1265.39 273.98 1265.38 271.00 C 1265.38 265.65 1265.29 260.29 1265.37 254.94 C 1265.57 247.65 1264.55 240.38 1265.00 233.08 C 1265.06 181.73 1265.15 130.36 1265.20 79.01 C 1265.84 72.48 1266.82 65.84 1265.34 59.34 Z" />
<path fill="#ffffff" opacity="1.00" d=" M 224.30 63.35 C 227.22 59.40 232.57 59.18 237.05 59.18 C 243.03 59.30 249.04 58.90 255.01 59.41 C 258.56 59.86 260.49 63.74 260.26 67.02 C 260.26 110.38 260.26 153.73 260.26 197.09 C 260.19 207.40 260.28 217.71 260.22 228.02 C 260.19 232.19 258.70 236.65 255.16 239.13 C 251.79 241.95 247.23 242.24 243.03 242.16 C 237.67 242.03 232.30 242.30 226.94 242.05 C 223.51 241.81 221.22 238.29 221.41 235.04 C 221.35 225.60 221.43 216.15 221.38 206.70 C 221.33 163.48 221.38 120.25 221.35 77.02 C 221.36 72.38 221.01 67.09 224.30 63.35 Z" />
<path fill="#ffffff" opacity="1.00" d=" M 103.26 126.31 C 112.02 117.58 124.87 114.17 136.96 114.26 C 158.67 114.30 180.39 114.12 202.09 114.35 C 205.98 114.29 208.06 118.50 207.71 121.94 C 207.32 128.44 209.00 135.59 205.54 141.52 C 202.95 145.04 198.35 146.76 194.06 146.60 C 175.69 146.60 157.32 146.60 138.95 146.60 C 135.99 146.72 132.41 146.86 130.38 149.35 C 129.29 151.63 130.81 154.14 133.01 154.97 C 139.61 157.76 146.81 158.68 153.75 160.32 C 163.69 162.70 173.64 165.08 183.56 167.54 C 192.90 170.64 202.33 175.78 207.37 184.60 C 211.74 191.86 212.95 200.63 212.10 208.97 C 210.74 220.85 203.06 231.85 191.96 236.55 C 182.31 241.08 171.52 242.08 160.99 242.14 C 142.65 242.13 124.31 242.13 105.98 242.15 C 102.44 242.07 98.31 242.83 95.57 240.01 C 94.37 235.09 94.93 230.01 94.80 225.01 C 94.89 221.39 94.83 217.29 97.42 214.42 C 100.27 211.13 104.72 209.89 108.95 209.95 C 127.96 209.82 146.98 209.96 165.99 209.89 C 168.16 209.85 170.46 209.60 172.25 208.25 C 174.54 206.91 174.31 203.17 172.20 201.77 C 169.84 199.96 166.90 199.19 164.06 198.51 C 150.09 195.91 136.31 192.40 122.44 189.38 C 110.86 186.04 99.14 178.82 94.91 166.97 C 90.05 153.36 92.74 136.60 103.26 126.31 Z" />
<path fill="#ffffff" opacity="1.00" d=" M 305.79 123.67 C 309.61 119.46 313.77 114.39 319.99 114.32 C 330.32 114.20 340.66 114.21 350.99 114.31 C 356.43 114.27 360.72 118.43 363.16 122.93 C 372.92 138.52 382.65 154.14 392.41 169.73 C 396.38 176.37 400.73 182.77 404.62 189.45 C 405.13 190.54 406.31 191.08 406.83 192.16 C 410.48 183.33 414.46 174.64 418.28 165.88 C 423.35 154.15 428.43 142.42 433.66 130.76 C 435.69 126.18 437.22 121.30 440.12 117.17 C 441.87 114.64 445.14 114.14 448.00 114.24 C 455.64 114.34 463.29 114.08 470.93 114.36 C 474.94 114.77 476.99 119.70 475.22 123.14 C 470.12 134.91 464.20 146.31 459.07 158.07 C 440.85 196.30 423.10 234.76 405.01 273.06 C 402.08 278.55 400.41 284.75 396.51 289.69 C 392.72 291.95 388.17 291.22 383.98 291.31 C 378.65 291.23 373.32 291.47 368.00 291.23 C 366.11 291.18 364.60 290.01 363.24 288.85 C 361.16 283.49 364.88 278.62 367.12 274.04 C 372.79 262.10 378.82 250.34 384.46 238.40 C 385.98 235.24 387.96 232.28 388.97 228.90 C 388.53 226.24 386.38 224.25 385.01 222.02 C 375.02 206.90 364.87 191.88 354.95 176.72 C 347.75 166.23 340.78 155.58 333.76 144.97 C 324.42 154.97 315.05 164.95 305.79 175.02 C 308.02 178.47 310.35 181.85 312.55 185.32 C 321.66 198.91 330.73 212.53 339.78 226.16 C 341.88 229.27 344.47 232.24 345.39 235.96 C 345.66 239.40 342.22 242.05 338.98 242.03 C 331.65 242.31 324.31 242.01 316.97 242.16 C 314.34 242.08 311.47 242.43 309.13 240.99 C 306.41 239.31 304.61 236.57 302.86 233.97 C 293.59 220.56 284.40 207.10 275.13 193.69 C 270.29 186.74 265.61 179.67 260.65 172.80 C 275.55 156.29 290.82 140.11 305.79 123.67 Z" />
</g>
<g id="#e0e0e0ff">
<path fill="#e0e0e0" opacity="1.00" d=" M 1255.34 76.00 C 1254.38 70.97 1254.28 65.78 1254.66 60.69 C 1255.11 61.10 1256.02 61.93 1256.47 62.34 C 1257.94 62.07 1259.93 61.56 1260.75 63.30 C 1261.85 69.14 1262.55 75.07 1262.19 81.02 C 1262.19 124.02 1262.15 167.03 1262.17 210.03 C 1261.98 213.79 1263.07 218.03 1260.70 221.32 C 1258.60 213.17 1257.71 204.78 1255.81 196.59 C 1255.35 194.21 1254.76 191.86 1254.35 189.47 C 1254.47 188.85 1254.70 187.60 1254.82 186.97 C 1254.82 157.67 1254.80 128.35 1254.77 99.04 C 1255.01 91.36 1254.27 83.64 1255.34 76.00 Z" />
</g>
<g id="#8e929cff">
<path fill="#8e929c" opacity="1.00" d=" M 1274.47 80.66 C 1276.24 86.24 1275.59 92.19 1275.92 97.95 C 1276.10 131.37 1276.48 164.80 1276.32 198.21 C 1275.72 202.56 1276.09 206.96 1276.43 211.31 C 1276.79 210.14 1277.43 209.08 1278.01 208.00 C 1278.28 222.99 1277.86 237.97 1277.72 252.95 C 1277.54 261.05 1278.07 269.24 1276.26 277.21 C 1275.64 284.28 1274.02 291.45 1269.68 297.23 C 1269.07 295.24 1268.20 293.36 1267.22 291.54 C 1267.44 291.19 1267.90 290.51 1268.13 290.17 C 1268.44 290.54 1269.07 291.29 1269.39 291.66 C 1270.15 288.12 1271.15 284.64 1272.19 281.16 C 1274.60 273.32 1273.12 265.03 1274.23 257.01 C 1274.46 198.23 1274.03 139.43 1274.47 80.66 Z" />
</g>
<g id="#7087b4ff">
<path fill="#7087b4" opacity="1.00" d=" M 656.39 104.24 C 665.01 104.12 673.63 104.31 682.25 104.13 C 682.74 113.05 682.32 122.03 682.47 130.97 C 673.78 131.50 665.13 132.55 656.44 132.99 C 656.40 123.41 656.49 113.83 656.39 104.24 Z" />
</g>
<g id="#6f85b3ff">
<path fill="#6f85b3" opacity="1.00" d=" M 769.17 104.17 C 777.70 104.24 786.24 104.17 794.78 104.20 C 794.85 111.87 794.73 119.53 794.85 127.19 L 794.86 127.64 C 786.22 127.48 777.57 127.54 768.94 127.85 C 769.36 119.96 768.95 112.06 769.17 104.17 Z" />
<path fill="#6f85b3" opacity="1.00" d=" M 816.36 104.27 C 824.95 104.11 833.54 104.25 842.14 104.18 C 842.38 111.53 842.20 118.88 842.22 126.22 L 842.22 126.57 C 833.61 126.64 825.00 126.71 816.40 127.08 C 816.41 119.47 816.46 111.87 816.36 104.27 Z" />
</g>
<g id="#6f85b2ff">
<path fill="#6f85b2" opacity="1.00" d=" M 861.30 104.25 C 908.49 104.12 955.67 104.22 1002.86 104.19 C 1002.98 112.26 1002.68 120.34 1003.03 128.40 C 985.00 127.89 966.96 127.67 948.95 126.73 C 919.76 125.89 890.54 126.64 861.35 126.17 C 861.32 118.86 861.40 111.56 861.30 104.25 Z" />
</g>
<g id="#6f84afff">
<path fill="#6f84af" opacity="1.00" d=" M 1014.87 128.81 C 1019.64 114.58 1033.93 104.07 1049.02 104.23 C 1080.01 104.15 1110.99 104.19 1141.98 104.20 C 1142.23 112.76 1142.14 121.33 1142.05 129.89 C 1114.70 130.42 1087.33 129.88 1059.97 130.09 C 1055.85 130.20 1051.70 129.49 1047.63 130.29 C 1046.92 130.38 1046.22 130.49 1045.54 130.60 C 1035.31 130.03 1025.08 129.53 1014.87 128.81 Z" />
</g>
<g id="#d8d7d7ff">
<path fill="#d8d7d7" opacity="1.00" d=" M 842.22 126.22 C 848.48 127.27 855.03 125.39 861.35 126.81 C 861.36 127.51 861.36 128.90 861.36 129.60 C 880.64 129.54 899.93 129.55 919.21 129.59 C 919.21 168.42 919.25 207.26 919.18 246.09 C 927.82 246.35 936.48 246.20 945.13 246.16 C 945.10 207.32 945.17 168.47 945.05 129.63 C 963.72 129.51 982.39 129.56 1001.06 129.64 C 1002.16 129.89 1002.81 129.48 1003.03 128.40 C 1006.91 128.81 1010.82 128.91 1014.72 129.34 C 1011.98 139.46 1011.87 150.67 1015.74 160.52 C 1020.99 172.01 1032.73 179.30 1044.86 181.59 C 1057.84 183.76 1070.67 186.71 1083.58 189.22 C 1093.46 190.82 1103.24 193.02 1113.05 195.00 C 1116.95 195.89 1121.79 198.37 1121.77 202.98 C 1121.72 207.03 1122.59 211.57 1120.17 215.14 C 1118.17 218.70 1113.90 220.40 1109.96 220.31 C 1079.73 220.33 1049.49 220.22 1019.26 220.37 L 1018.84 220.82 C 1018.69 229.31 1018.79 237.81 1018.80 246.30 C 1018.38 246.39 1017.54 246.57 1017.12 246.66 C 1016.83 242.16 1017.00 237.65 1016.81 233.14 C 1015.64 233.87 1014.47 234.59 1013.32 235.30 C 1013.85 236.21 1014.38 237.11 1014.94 238.03 C 1014.49 238.99 1014.08 239.96 1013.68 240.94 C 1013.15 238.87 1012.35 236.90 1011.68 234.88 C 1011.07 235.87 1010.34 236.78 1009.56 237.63 C 1008.94 236.43 1008.37 235.22 1007.84 234.01 C 1006.89 234.59 1006.38 235.54 1005.81 236.44 C 1006.37 236.47 1007.50 236.52 1008.06 236.55 C 1007.79 238.15 1007.17 239.64 1006.26 240.98 C 1004.77 239.98 1003.19 239.09 1001.51 238.48 C 1000.29 240.85 998.13 242.05 995.49 241.73 C 995.28 241.14 994.87 239.96 994.66 239.37 C 992.80 240.80 990.59 241.22 988.35 240.51 C 988.88 242.53 987.70 244.17 986.54 245.69 C 985.89 244.65 985.72 243.03 984.26 242.81 C 984.58 244.05 984.88 245.30 985.22 246.55 C 985.89 246.77 987.24 247.22 987.91 247.45 C 986.96 249.38 985.01 248.01 983.52 247.72 C 983.13 246.91 982.76 246.11 982.40 245.31 C 980.19 246.91 977.83 248.29 975.22 249.09 C 974.49 248.47 973.76 247.85 973.04 247.25 C 972.27 248.68 972.88 249.98 973.46 251.32 C 970.92 252.99 970.23 248.03 967.36 249.00 C 967.08 250.30 966.80 251.61 966.55 252.92 C 966.33 251.63 966.02 250.36 965.62 249.13 C 964.59 249.06 963.62 249.21 962.71 249.58 C 961.97 252.06 961.22 254.59 959.70 256.73 C 958.74 255.73 957.79 254.74 956.80 253.80 C 958.08 253.88 959.20 253.15 960.50 253.19 C 959.59 252.51 958.67 251.87 957.74 251.25 C 956.19 251.68 955.57 253.34 954.55 254.42 C 951.81 253.67 949.04 254.29 947.28 256.61 C 947.14 255.02 946.01 253.02 944.21 254.31 C 944.39 255.44 944.56 256.58 944.75 257.72 C 943.83 257.64 942.92 257.56 942.03 257.49 C 941.36 258.73 941.72 259.90 942.57 260.93 C 941.73 261.22 940.90 261.52 940.09 261.82 C 938.87 260.41 937.68 258.99 936.60 257.49 C 934.87 258.20 933.10 258.74 931.22 258.66 C 929.59 259.52 927.99 260.44 926.42 261.39 C 926.22 261.95 925.82 263.09 925.62 263.65 C 925.19 263.23 924.79 262.80 924.40 262.38 C 924.03 262.81 923.30 263.68 922.93 264.11 C 921.11 263.46 919.16 263.56 917.34 262.99 C 917.36 263.83 917.38 264.68 917.41 265.53 C 915.37 266.24 916.05 269.06 914.24 269.67 C 913.28 268.52 912.45 267.28 911.65 266.05 C 910.01 267.16 909.09 268.80 908.57 270.68 C 906.81 270.79 905.62 269.57 904.53 268.38 C 902.96 271.80 898.74 270.31 895.80 270.60 C 896.58 271.08 897.15 271.75 897.53 272.61 C 896.22 273.69 894.99 274.87 893.66 275.92 C 893.01 274.72 892.29 273.55 891.54 272.43 C 889.86 272.92 888.18 273.41 886.53 273.94 C 886.53 273.44 886.54 272.44 886.54 271.95 C 884.38 272.50 882.61 273.99 880.41 274.42 C 881.89 276.35 882.32 278.69 881.49 281.00 C 881.19 279.73 880.91 278.45 880.66 277.17 C 879.53 276.82 878.45 276.41 877.40 275.94 C 877.04 278.10 876.52 280.26 875.24 282.08 C 874.14 281.10 873.10 280.05 871.86 279.29 C 870.62 279.80 869.83 281.03 868.85 281.88 C 865.82 283.34 862.25 281.81 859.26 283.35 C 857.42 284.61 855.63 285.95 853.57 286.81 C 853.06 285.83 852.60 284.83 852.20 283.82 C 850.30 285.36 848.65 287.82 845.97 287.85 C 835.65 288.30 825.25 287.15 815.00 288.71 C 798.67 288.71 782.34 288.80 766.01 288.72 C 764.41 288.58 762.97 289.20 761.56 289.83 C 756.71 290.43 751.81 290.08 746.94 290.13 C 717.62 290.17 688.31 290.30 658.99 290.31 C 623.89 290.72 588.80 291.49 553.69 290.92 C 556.35 287.95 553.47 283.13 556.58 280.54 C 557.56 279.70 557.94 278.46 558.44 277.31 C 558.66 277.57 559.11 278.09 559.33 278.34 C 560.97 277.86 562.66 277.51 564.37 277.33 C 566.03 276.47 567.43 275.18 568.90 274.02 C 569.69 274.53 570.49 275.04 571.29 275.56 C 572.66 275.20 574.04 274.89 575.40 274.48 C 578.50 273.73 580.26 270.76 583.01 269.33 C 584.22 270.34 585.57 271.06 587.21 270.95 C 587.70 269.62 588.51 268.47 589.36 267.35 C 590.19 268.28 591.11 269.13 591.89 270.12 C 592.10 269.12 592.38 268.14 592.67 267.16 C 594.62 266.72 596.60 266.40 598.61 266.33 C 598.83 265.85 599.26 264.90 599.48 264.42 C 602.22 263.80 604.89 262.90 607.38 261.59 C 607.90 261.99 608.43 262.39 608.97 262.80 C 610.78 261.62 612.67 260.55 614.61 259.58 C 615.69 261.81 617.14 259.24 618.45 258.68 C 619.15 258.64 619.86 258.60 620.57 258.56 C 620.70 257.37 620.47 256.16 620.43 254.96 C 621.61 255.90 622.78 256.89 623.98 257.84 C 625.28 256.71 626.81 255.95 628.51 255.60 C 628.52 255.30 628.54 254.71 628.56 254.42 C 630.28 254.00 631.76 253.03 633.26 252.12 C 634.24 253.15 633.21 254.68 633.25 255.91 C 634.21 255.10 635.21 254.33 636.23 253.58 C 636.69 253.62 637.61 253.71 638.07 253.75 C 640.04 252.54 641.76 250.26 644.28 250.46 C 646.95 250.83 648.90 248.30 651.60 248.54 C 651.79 247.99 652.17 246.89 652.36 246.34 C 655.42 248.74 659.42 248.07 663.05 248.12 C 669.60 247.98 676.16 248.34 682.71 247.83 C 682.69 247.42 682.64 246.60 682.62 246.19 C 682.42 226.85 682.41 207.48 682.62 188.15 C 711.39 188.35 740.17 188.20 768.94 188.23 C 769.22 207.54 769.07 226.87 769.03 246.19 C 777.63 246.21 786.23 246.24 794.83 246.17 C 794.87 206.66 794.80 167.15 794.86 127.64 L 794.85 127.19 C 802.03 127.46 809.23 127.55 816.40 127.08 C 816.35 166.71 816.48 206.35 816.32 245.98 C 824.95 246.47 833.62 246.12 842.27 246.17 C 842.26 206.30 842.31 166.44 842.22 126.57 L 842.22 126.22 Z" />
</g>
<g id="#1b325eff">
<path fill="#1b325e" opacity="1.00" d=" M 861.35 126.17 C 890.54 126.64 919.76 125.89 948.95 126.73 C 966.96 127.67 985.00 127.89 1003.03 128.40 C 1002.81 129.48 1002.16 129.89 1001.06 129.64 C 982.39 129.56 963.72 129.51 945.05 129.63 C 945.17 168.47 945.10 207.32 945.13 246.16 C 936.48 246.20 927.82 246.35 919.18 246.09 C 919.25 207.26 919.21 168.42 919.21 129.59 C 899.93 129.55 880.64 129.54 861.36 129.60 C 861.36 128.90 861.36 127.51 861.35 126.81 L 861.35 126.17 Z" />
</g>
<g id="#1c335fff">
<path fill="#1c335f" opacity="1.00" d=" M 816.40 127.08 C 825.00 126.71 833.61 126.64 842.22 126.57 C 842.31 166.44 842.26 206.30 842.27 246.17 C 833.62 246.12 824.95 246.47 816.32 245.98 C 816.48 206.35 816.35 166.71 816.40 127.08 Z" />
</g>
<g id="#dcdcddff">
<path fill="#dcdcdd" opacity="1.00" d=" M 697.00 130.33 C 720.98 129.32 744.94 128.14 768.94 127.85 C 769.24 139.26 769.02 150.67 768.99 162.08 C 740.19 162.25 711.39 162.08 682.58 162.17 C 682.38 151.77 682.59 141.37 682.47 130.97 C 687.32 131.27 692.15 130.54 697.00 130.33 Z" />
<path fill="#dcdcdd" opacity="1.00" d=" M 647.00 134.25 C 650.14 134.02 653.29 133.19 656.44 133.81 C 656.43 171.10 656.34 208.40 656.47 245.68 L 656.88 246.14 C 665.45 246.33 674.04 246.18 682.62 246.19 C 682.64 246.60 682.69 247.42 682.71 247.83 C 676.16 248.34 669.60 247.98 663.05 248.12 C 659.42 248.07 655.42 248.74 652.36 246.34 C 652.17 246.89 651.79 247.99 651.60 248.54 C 648.90 248.30 646.95 250.83 644.28 250.46 C 641.76 250.26 640.04 252.54 638.07 253.75 C 637.61 253.71 636.69 253.62 636.23 253.58 C 635.21 254.33 634.21 255.10 633.25 255.91 C 633.21 254.68 634.24 253.15 633.26 252.12 C 631.76 253.03 630.28 254.00 628.56 254.42 C 628.54 254.71 628.52 255.30 628.51 255.60 C 626.81 255.95 625.28 256.71 623.98 257.84 C 622.78 256.89 621.61 255.90 620.43 254.96 C 620.47 256.16 620.70 257.37 620.57 258.56 C 619.86 258.60 619.15 258.64 618.45 258.68 C 617.14 259.24 615.69 261.81 614.61 259.58 C 612.67 260.55 610.78 261.62 608.97 262.80 C 608.43 262.39 607.90 261.99 607.38 261.59 C 604.89 262.90 602.22 263.80 599.48 264.42 C 599.26 264.90 598.83 265.85 598.61 266.33 C 596.60 266.40 594.62 266.72 592.67 267.16 C 592.38 268.14 592.10 269.12 591.89 270.12 C 591.11 269.13 590.19 268.28 589.36 267.35 C 588.51 268.47 587.70 269.62 587.21 270.95 C 585.57 271.06 584.22 270.34 583.01 269.33 C 580.26 270.76 578.50 273.73 575.40 274.48 C 574.04 274.89 572.66 275.20 571.29 275.56 C 570.49 275.04 569.69 274.53 568.90 274.02 C 567.43 275.18 566.03 276.47 564.37 277.33 C 562.66 277.51 560.97 277.86 559.33 278.34 C 559.11 278.09 558.66 277.57 558.44 277.31 C 557.94 278.46 557.56 279.70 556.58 280.54 C 553.47 283.13 556.35 287.95 553.69 290.92 L 553.46 291.37 C 553.47 290.78 553.51 289.58 553.53 288.99 C 553.52 240.90 553.53 192.81 553.44 144.72 L 553.86 144.67 C 566.73 143.29 579.47 141.03 592.32 139.58 C 610.48 137.12 628.77 135.95 647.00 134.25 Z" />
</g>
<g id="#1d3461ff">
<path fill="#1d3461" opacity="1.00" d=" M 768.94 127.85 C 777.57 127.54 786.22 127.48 794.86 127.64 C 794.80 167.15 794.87 206.66 794.83 246.17 C 786.23 246.24 777.63 246.21 769.03 246.19 C 769.07 226.87 769.22 207.54 768.94 188.23 C 740.17 188.20 711.39 188.35 682.62 188.15 C 682.41 207.48 682.42 226.85 682.62 246.19 C 674.04 246.18 665.45 246.33 656.88 246.14 L 656.47 245.68 C 656.34 208.40 656.43 171.10 656.44 133.81 L 656.44 132.99 C 665.13 132.55 673.78 131.50 682.47 130.97 C 682.59 141.37 682.38 151.77 682.58 162.17 C 711.39 162.08 740.19 162.25 768.99 162.08 C 769.02 150.67 769.24 139.26 768.94 127.85 Z" />
</g>
<g id="#1a315cff">
<path fill="#1a315c" opacity="1.00" d=" M 1014.72 129.34 L 1014.87 128.81 C 1025.08 129.53 1035.31 130.03 1045.54 130.60 C 1041.84 132.81 1038.86 136.63 1038.91 141.11 C 1038.90 144.69 1038.11 149.16 1041.19 151.82 C 1043.78 154.45 1047.55 155.23 1051.05 155.94 C 1066.02 158.98 1081.07 161.64 1096.01 164.86 C 1106.72 167.38 1118.11 167.81 1128.07 172.88 C 1138.62 177.73 1146.51 188.22 1147.55 199.87 C 1148.09 209.11 1148.12 219.04 1143.26 227.26 C 1141.55 229.99 1139.68 232.62 1137.60 235.07 C 1130.72 241.65 1121.67 245.87 1112.08 246.12 C 1080.99 246.38 1049.89 245.98 1018.80 246.30 C 1018.79 237.81 1018.69 229.31 1018.84 220.82 L 1019.26 220.37 C 1049.49 220.22 1079.73 220.33 1109.96 220.31 C 1113.90 220.40 1118.17 218.70 1120.17 215.14 C 1122.59 211.57 1121.72 207.03 1121.77 202.98 C 1121.79 198.37 1116.95 195.89 1113.05 195.00 C 1103.24 193.02 1093.46 190.82 1083.58 189.22 C 1070.67 186.71 1057.84 183.76 1044.86 181.59 C 1032.73 179.30 1020.99 172.01 1015.74 160.52 C 1011.87 150.67 1011.98 139.46 1014.72 129.34 Z" />
</g>
<g id="#d4d4d4ff">
<path fill="#d4d4d4" opacity="1.00" d=" M 1045.54 130.60 C 1046.22 130.49 1046.92 130.38 1047.63 130.29 C 1049.71 130.77 1051.77 131.49 1053.94 131.58 C 1085.39 132.79 1116.78 135.26 1148.07 138.61 C 1173.14 141.22 1198.61 143.69 1222.40 152.55 C 1229.97 156.34 1237.64 160.62 1242.93 167.42 C 1241.96 170.14 1242.62 173.15 1243.29 175.87 C 1242.72 180.19 1240.39 184.41 1241.24 188.85 C 1241.73 191.25 1241.00 193.73 1241.73 196.11 C 1241.41 196.45 1240.76 197.13 1240.44 197.47 C 1240.78 198.08 1241.14 198.68 1241.52 199.29 C 1241.10 200.80 1240.75 202.33 1240.35 203.84 C 1239.32 203.71 1238.33 203.59 1237.34 203.46 C 1237.15 204.06 1236.75 205.27 1236.55 205.87 C 1235.41 205.64 1234.27 205.61 1233.16 205.41 C 1232.61 206.12 1232.07 206.83 1231.54 207.54 C 1229.43 207.81 1227.42 208.44 1225.83 209.89 C 1224.56 209.94 1223.31 209.99 1222.07 210.03 C 1221.34 210.69 1220.62 211.35 1219.92 212.01 C 1218.70 211.80 1217.50 211.68 1216.30 211.56 C 1212.48 215.67 1206.68 216.87 1201.35 215.51 C 1201.19 215.98 1200.86 216.91 1200.70 217.38 C 1198.53 217.57 1196.60 218.46 1194.79 219.61 C 1191.39 220.26 1187.93 220.39 1184.49 220.42 C 1184.05 221.31 1183.63 222.19 1183.22 223.08 C 1182.49 222.43 1181.76 221.79 1181.05 221.15 C 1180.34 222.73 1180.09 224.65 1179.04 226.00 C 1177.70 225.86 1178.67 224.05 1178.43 223.18 C 1177.76 222.88 1177.10 222.60 1176.46 222.32 C 1176.06 223.32 1175.66 224.31 1175.25 225.30 C 1173.57 226.03 1171.64 223.55 1169.99 224.95 C 1169.19 226.63 1168.08 228.42 1165.98 227.40 C 1163.75 229.92 1160.36 228.70 1157.52 228.27 C 1156.87 228.91 1156.69 231.77 1155.41 230.68 C 1155.00 229.16 1154.79 227.60 1154.55 226.06 C 1153.79 228.27 1153.05 230.49 1152.58 232.78 C 1148.62 232.37 1145.16 234.22 1141.53 235.38 C 1141.49 235.79 1141.42 236.60 1141.38 237.01 C 1139.86 236.90 1138.59 236.20 1137.60 235.07 C 1139.68 232.62 1141.55 229.99 1143.26 227.26 C 1148.12 219.04 1148.09 209.11 1147.55 199.87 C 1146.51 188.22 1138.62 177.73 1128.07 172.88 C 1118.11 167.81 1106.72 167.38 1096.01 164.86 C 1081.07 161.64 1066.02 158.98 1051.05 155.94 C 1047.55 155.23 1043.78 154.45 1041.19 151.82 C 1038.11 149.16 1038.90 144.69 1038.91 141.11 C 1038.86 136.63 1041.84 132.81 1045.54 130.60 Z" />
</g>
<g id="#687fb7ff">
<path fill="#687fb7" opacity="1.00" d=" M 305.79 175.02 C 315.05 164.95 324.42 154.97 333.76 144.97 C 340.78 155.58 347.75 166.23 354.95 176.72 C 340.74 179.20 326.64 182.22 312.55 185.32 C 310.35 181.85 308.02 178.47 305.79 175.02 Z" />
</g>
<g id="#939494ff">
<path fill="#939494" opacity="1.00" d=" M 530.69 147.46 C 538.36 147.26 545.78 145.09 553.44 144.72 C 553.53 192.81 553.52 240.90 553.53 288.99 C 552.06 289.42 550.58 289.92 549.04 289.89 C 542.95 289.91 536.86 289.97 530.77 290.07 C 530.64 242.65 530.71 195.23 530.69 147.82 L 530.69 147.46 Z" />
</g>
<g id="#1e2e64ff">
<path fill="#1e2e64" opacity="1.00" d=" M 459.07 158.07 C 482.94 154.65 506.72 150.52 530.69 147.82 C 530.71 195.23 530.64 242.65 530.77 290.07 C 530.73 291.40 530.72 292.74 530.73 294.08 C 530.39 293.21 530.05 292.36 529.72 291.50 C 527.49 291.85 525.25 292.08 523.01 292.02 C 480.83 291.85 438.64 292.16 396.47 291.81 C 396.48 291.28 396.50 290.22 396.51 289.69 C 400.41 284.75 402.08 278.55 405.01 273.06 C 423.10 234.76 440.85 196.30 459.07 158.07 Z" />
</g>
<g id="#1e2f67ff">
<path fill="#1e2f67" opacity="1.00" d=" M 392.41 169.73 C 400.84 167.55 409.52 166.71 418.03 164.99 L 418.28 165.88 C 414.46 174.64 410.48 183.33 406.83 192.16 C 406.31 191.08 405.13 190.54 404.62 189.45 C 400.73 182.77 396.38 176.37 392.41 169.73 Z" />
</g>
<g id="#d1d1d1ff">
<path fill="#d1d1d1" opacity="1.00" d=" M 1243.29 175.87 C 1242.62 173.15 1241.96 170.14 1242.93 167.42 C 1244.49 169.43 1245.86 171.58 1247.32 173.67 C 1250.75 178.39 1252.25 184.11 1254.35 189.47 C 1254.76 191.86 1255.35 194.21 1255.81 196.59 C 1254.09 199.46 1255.19 202.92 1255.06 206.06 C 1255.00 227.69 1255.28 249.32 1254.97 270.95 C 1255.07 279.89 1247.25 287.11 1238.99 288.83 C 1184.97 288.75 1130.96 289.09 1076.95 289.14 C 1048.93 289.07 1020.92 289.27 992.92 289.63 C 923.30 290.11 853.67 290.03 784.05 290.29 C 776.55 290.13 769.02 290.88 761.56 289.83 C 762.97 289.20 764.41 288.58 766.01 288.72 C 782.34 288.80 798.67 288.71 815.00 288.71 C 825.25 287.15 835.65 288.30 845.97 287.85 C 848.65 287.82 850.30 285.36 852.20 283.82 C 852.60 284.83 853.06 285.83 853.57 286.81 C 855.63 285.95 857.42 284.61 859.26 283.35 C 862.25 281.81 865.82 283.34 868.85 281.88 C 869.83 281.03 870.62 279.80 871.86 279.29 C 873.10 280.05 874.14 281.10 875.24 282.08 C 876.52 280.26 877.04 278.10 877.40 275.94 C 878.45 276.41 879.53 276.82 880.66 277.17 C 880.91 278.45 881.19 279.73 881.49 281.00 C 882.32 278.69 881.89 276.35 880.41 274.42 C 882.61 273.99 884.38 272.50 886.54 271.95 C 886.54 272.44 886.53 273.44 886.53 273.94 C 888.18 273.41 889.86 272.92 891.54 272.43 C 892.29 273.55 893.01 274.72 893.66 275.92 C 894.99 274.87 896.22 273.69 897.53 272.61 C 897.15 271.75 896.58 271.08 895.80 270.60 C 898.74 270.31 902.96 271.80 904.53 268.38 C 905.62 269.57 906.81 270.79 908.57 270.68 C 909.09 268.80 910.01 267.16 911.65 266.05 C 912.45 267.28 913.28 268.52 914.24 269.67 C 916.05 269.06 915.37 266.24 917.41 265.53 C 917.38 264.68 917.36 263.83 917.34 262.99 C 919.16 263.56 921.11 263.46 922.93 264.11 C 923.30 263.68 924.03 262.81 924.40 262.38 C 924.79 262.80 925.19 263.23 925.62 263.65 C 925.82 263.09 926.22 261.95 926.42 261.39 C 927.99 260.44 929.59 259.52 931.22 258.66 C 933.10 258.74 934.87 258.20 936.60 257.49 C 937.68 258.99 938.87 260.41 940.09 261.82 C 940.90 261.52 941.73 261.22 942.57 260.93 C 941.72 259.90 941.36 258.73 942.03 257.49 C 942.92 257.56 943.83 257.64 944.75 257.72 C 944.56 256.58 944.39 255.44 944.21 254.31 C 946.01 253.02 947.14 255.02 947.28 256.61 C 949.04 254.29 951.81 253.67 954.55 254.42 C 955.57 253.34 956.19 251.68 957.74 251.25 C 958.67 251.87 959.59 252.51 960.50 253.19 C 959.20 253.15 958.08 253.88 956.80 253.80 C 957.79 254.74 958.74 255.73 959.70 256.73 C 961.22 254.59 961.97 252.06 962.71 249.58 C 963.62 249.21 964.59 249.06 965.62 249.13 C 966.02 250.36 966.33 251.63 966.55 252.92 C 966.80 251.61 967.08 250.30 967.36 249.00 C 970.23 248.03 970.92 252.99 973.46 251.32 C 972.88 249.98 972.27 248.68 973.04 247.25 C 973.76 247.85 974.49 248.47 975.22 249.09 C 977.83 248.29 980.19 246.91 982.40 245.31 C 982.76 246.11 983.13 246.91 983.52 247.72 C 985.01 248.01 986.96 249.38 987.91 247.45 C 987.24 247.22 985.89 246.77 985.22 246.55 C 984.88 245.30 984.58 244.05 984.26 242.81 C 985.72 243.03 985.89 244.65 986.54 245.69 C 987.70 244.17 988.88 242.53 988.35 240.51 C 990.59 241.22 992.80 240.80 994.66 239.37 C 994.87 239.96 995.28 241.14 995.49 241.73 C 998.13 242.05 1000.29 240.85 1001.51 238.48 C 1003.19 239.09 1004.77 239.98 1006.26 240.98 C 1007.17 239.64 1007.79 238.15 1008.06 236.55 C 1007.50 236.52 1006.37 236.47 1005.81 236.44 C 1006.38 235.54 1006.89 234.59 1007.84 234.01 C 1008.37 235.22 1008.94 236.43 1009.56 237.63 C 1010.34 236.78 1011.07 235.87 1011.68 234.88 C 1012.35 236.90 1013.15 238.87 1013.68 240.94 C 1014.08 239.96 1014.49 238.99 1014.94 238.03 C 1014.38 237.11 1013.85 236.21 1013.32 235.30 C 1014.47 234.59 1015.64 233.87 1016.81 233.14 C 1017.00 237.65 1016.83 242.16 1017.12 246.66 C 1017.54 246.57 1018.38 246.39 1018.80 246.30 C 1049.89 245.98 1080.99 246.38 1112.08 246.12 C 1121.67 245.87 1130.72 241.65 1137.60 235.07 C 1138.59 236.20 1139.86 236.90 1141.38 237.01 C 1141.42 236.60 1141.49 235.79 1141.53 235.38 C 1145.16 234.22 1148.62 232.37 1152.58 232.78 C 1153.05 230.49 1153.79 228.27 1154.55 226.06 C 1154.79 227.60 1155.00 229.16 1155.41 230.68 C 1156.69 231.77 1156.87 228.91 1157.52 228.27 C 1160.36 228.70 1163.75 229.92 1165.98 227.40 C 1168.08 228.42 1169.19 226.63 1169.99 224.95 C 1171.64 223.55 1173.57 226.03 1175.25 225.30 C 1175.66 224.31 1176.06 223.32 1176.46 222.32 C 1177.10 222.60 1177.76 222.88 1178.43 223.18 C 1178.67 224.05 1177.70 225.86 1179.04 226.00 C 1180.09 224.65 1180.34 222.73 1181.05 221.15 C 1181.76 221.79 1182.49 222.43 1183.22 223.08 C 1183.63 222.19 1184.05 221.31 1184.49 220.42 C 1187.93 220.39 1191.39 220.26 1194.79 219.61 C 1196.60 218.46 1198.53 217.57 1200.70 217.38 C 1200.86 216.91 1201.19 215.98 1201.35 215.51 C 1206.68 216.87 1212.48 215.67 1216.30 211.56 C 1217.50 211.68 1218.70 211.80 1219.92 212.01 C 1220.62 211.35 1221.34 210.69 1222.07 210.03 C 1223.31 209.99 1224.56 209.94 1225.83 209.89 C 1227.42 208.44 1229.43 207.81 1231.54 207.54 C 1232.07 206.83 1232.61 206.12 1233.16 205.41 C 1234.27 205.61 1235.41 205.64 1236.55 205.87 C 1236.75 205.27 1237.15 204.06 1237.34 203.46 C 1238.33 203.59 1239.32 203.71 1240.35 203.84 C 1240.75 202.33 1241.10 200.80 1241.52 199.29 C 1241.14 198.68 1240.78 198.08 1240.44 197.47 C 1240.76 197.13 1241.41 196.45 1241.73 196.11 C 1241.00 193.73 1241.73 191.25 1241.24 188.85 C 1240.39 184.41 1242.72 180.19 1243.29 175.87 Z" />
</g>
<g id="#76787eff">
<path fill="#76787e" opacity="1.00" d=" M 1277.54 171.44 L 1278.97 170.82 C 1279.61 179.89 1278.90 188.97 1278.74 198.04 C 1278.63 201.37 1278.92 204.76 1278.01 208.00 C 1277.43 209.08 1276.79 210.14 1276.43 211.31 C 1276.09 206.96 1275.72 202.56 1276.32 198.21 C 1276.74 196.83 1277.51 195.51 1277.41 194.01 C 1277.44 186.49 1277.36 178.96 1277.54 171.44 Z" />
<path fill="#76787e" opacity="1.00" d=" M 167.80 309.32 C 208.86 309.12 249.90 308.36 290.96 308.45 C 303.03 308.22 315.10 308.67 327.15 309.24 C 322.81 310.03 318.39 309.44 314.02 309.62 C 267.68 309.70 221.34 309.51 175.00 309.68 C 172.59 309.75 170.19 309.60 167.80 309.32 Z" />
</g>
<g id="#1e2e66ff">
<path fill="#1e2e66" opacity="1.00" d=" M 312.55 185.32 C 326.64 182.22 340.74 179.20 354.95 176.72 C 364.87 191.88 375.02 206.90 385.01 222.02 C 386.38 224.25 388.53 226.24 388.97 228.90 C 387.96 232.28 385.98 235.24 384.46 238.40 C 378.82 250.34 372.79 262.10 367.12 274.04 C 364.88 278.62 361.16 283.49 363.24 288.85 C 361.92 289.62 360.56 290.44 358.97 290.24 C 259.68 290.34 160.38 290.14 61.08 290.30 C 55.29 289.73 49.43 289.33 43.90 287.33 C 40.56 286.04 36.27 286.21 33.99 283.04 C 39.75 272.53 48.91 264.31 58.84 257.80 C 70.11 250.06 82.87 244.90 95.57 240.01 C 98.31 242.83 102.44 242.07 105.98 242.15 C 124.31 242.13 142.65 242.13 160.99 242.14 C 171.52 242.08 182.31 241.08 191.96 236.55 C 203.06 231.85 210.74 220.85 212.10 208.97 C 215.24 208.40 218.32 207.61 221.38 206.70 C 221.43 216.15 221.35 225.60 221.41 235.04 C 221.22 238.29 223.51 241.81 226.94 242.05 C 232.30 242.30 237.67 242.03 243.03 242.16 C 247.23 242.24 251.79 241.95 255.16 239.13 C 258.70 236.65 260.19 232.19 260.22 228.02 C 260.28 217.71 260.19 207.40 260.26 197.09 C 265.28 196.26 270.21 195.00 275.13 193.69 C 284.40 207.10 293.59 220.56 302.86 233.97 C 304.61 236.57 306.41 239.31 309.13 240.99 C 311.47 242.43 314.34 242.08 316.97 242.16 C 324.31 242.01 331.65 242.31 338.98 242.03 C 342.22 242.05 345.66 239.40 345.39 235.96 C 344.47 232.24 341.88 229.27 339.78 226.16 C 330.73 212.53 321.66 198.91 312.55 185.32 Z" />
</g>
<g id="#bbbbbbff">
<path fill="#bbbbbb" opacity="1.00" d=" M 1255.06 206.06 C 1255.19 202.92 1254.09 199.46 1255.81 196.59 C 1257.71 204.78 1258.60 213.17 1260.70 221.32 C 1264.36 240.45 1263.14 260.05 1262.74 279.39 C 1262.24 285.14 1257.99 289.32 1254.32 293.35 C 1251.54 296.10 1249.85 299.69 1248.07 303.11 C 1247.35 304.24 1247.35 305.61 1247.72 306.87 C 1247.06 307.18 1246.43 307.49 1245.81 307.81 C 1243.10 308.47 1240.35 308.96 1237.58 309.11 C 1237.27 308.96 1236.64 308.67 1236.33 308.52 C 1239.53 305.30 1241.85 301.31 1245.25 298.26 C 1246.75 296.93 1247.83 295.25 1248.81 293.50 C 1248.19 293.26 1246.95 292.78 1246.33 292.54 C 1246.11 291.92 1245.69 290.70 1245.48 290.08 C 1242.88 291.25 1240.27 293.18 1237.30 292.59 C 1229.55 291.61 1221.77 292.71 1214.02 292.56 C 1159.39 293.37 1104.70 292.96 1050.05 293.20 C 1041.71 293.29 1033.35 292.81 1025.05 293.80 C 985.02 293.86 944.99 293.91 904.97 293.94 C 902.29 294.05 899.65 294.53 896.98 294.63 C 782.52 294.77 668.06 294.62 553.60 295.10 C 553.62 293.70 553.65 292.31 553.69 290.92 C 588.80 291.49 623.89 290.72 658.99 290.31 C 688.31 290.30 717.62 290.17 746.94 290.13 C 751.81 290.08 756.71 290.43 761.56 289.83 C 769.02 290.88 776.55 290.13 784.05 290.29 C 853.67 290.03 923.30 290.11 992.92 289.63 C 1020.92 289.27 1048.93 289.07 1076.95 289.14 C 1130.96 289.09 1184.97 288.75 1238.99 288.83 C 1247.25 287.11 1255.07 279.89 1254.97 270.95 C 1255.28 249.32 1255.00 227.69 1255.06 206.06 Z" />
</g>
<g id="#1a2448ff">
<path fill="#1a2448" opacity="1.00" d=" M 33.99 283.04 C 36.27 286.21 40.56 286.04 43.90 287.33 C 49.43 289.33 55.29 289.73 61.08 290.30 C 160.38 290.14 259.68 290.34 358.97 290.24 C 360.56 290.44 361.92 289.62 363.24 288.85 C 364.60 290.01 366.11 291.18 368.00 291.23 C 373.32 291.47 378.65 291.23 383.98 291.31 C 388.17 291.22 392.72 291.95 396.51 289.69 C 396.50 290.22 396.48 291.28 396.47 291.81 C 438.64 292.16 480.83 291.85 523.01 292.02 C 525.25 292.08 527.49 291.85 529.72 291.50 C 530.05 292.36 530.39 293.21 530.73 294.08 L 530.79 295.32 C 530.84 296.89 530.81 298.46 530.86 300.04 L 530.93 301.08 C 529.00 301.55 527.03 301.99 525.04 301.98 C 485.69 301.90 446.34 302.00 407.00 301.93 C 400.66 301.25 394.31 302.40 387.98 301.73 C 384.67 301.39 381.36 302.30 378.07 301.71 C 374.06 301.10 370.03 302.01 366.01 301.93 C 358.24 301.94 350.47 302.04 342.72 301.69 C 336.36 302.29 330.00 301.41 323.64 301.77 C 315.19 301.35 306.74 301.95 298.28 301.75 C 286.31 301.29 274.31 301.80 262.33 301.37 C 255.61 302.06 248.84 301.07 242.11 301.77 C 239.37 301.24 236.62 301.31 233.88 301.75 C 225.30 300.50 216.54 302.77 207.97 301.16 C 195.10 301.80 182.19 301.04 169.30 301.46 C 163.64 301.81 157.98 300.85 152.33 301.47 C 146.54 300.88 140.77 301.52 134.96 301.40 C 127.34 300.66 119.62 300.71 112.00 301.46 C 100.70 301.13 89.32 300.42 78.02 301.40 C 73.46 301.10 68.91 301.35 64.35 301.25 C 60.84 300.33 57.99 297.95 54.73 296.48 C 51.44 295.55 48.01 295.24 44.73 294.28 C 41.38 293.42 38.16 291.56 34.59 292.13 C 33.78 291.03 32.92 289.99 32.10 288.91 C 32.05 288.51 31.95 287.71 31.90 287.31 C 32.56 285.86 33.26 284.44 33.99 283.04 Z" />
</g>
<g id="#7d7d7eff">
<path fill="#7d7d7e" opacity="1.00" d=" M 549.04 289.89 C 550.58 289.92 552.06 289.42 553.53 288.99 C 553.51 289.58 553.47 290.78 553.46 291.37 C 553.12 292.48 552.80 293.60 552.51 294.73 C 545.26 295.07 538.02 294.67 530.79 295.32 L 530.73 294.08 C 530.72 292.74 530.73 291.40 530.77 290.07 C 536.86 289.97 542.95 289.91 549.04 289.89 Z" />
</g>
<g id="#6b6669ff">
<path fill="#6b6669" opacity="1.00" d=" M 1261.15 309.22 C 1268.10 304.39 1272.51 296.84 1275.59 289.12 C 1275.92 290.48 1276.27 291.84 1276.64 293.20 L 1275.46 293.49 C 1272.89 298.14 1271.35 303.61 1267.18 307.17 C 1264.67 309.40 1262.46 312.28 1259.05 313.12 C 1256.72 314.03 1254.20 313.72 1251.79 313.67 C 1252.98 313.17 1253.98 312.38 1254.94 311.52 C 1248.33 312.87 1241.71 314.45 1235.02 315.17 C 1221.69 314.70 1208.35 315.44 1195.02 315.27 C 1043.35 315.46 891.69 315.27 740.02 315.36 C 576.33 315.34 412.64 315.36 248.95 315.33 C 212.33 315.75 175.68 315.46 139.05 315.61 C 138.30 315.77 136.78 316.08 136.02 316.23 C 127.35 316.49 118.58 317.07 109.98 315.71 C 95.64 315.64 81.30 315.58 66.96 315.40 C 64.31 315.30 61.69 314.82 59.12 314.15 C 55.29 313.08 51.26 313.01 47.47 311.78 L 48.54 310.87 C 62.47 312.15 76.55 312.72 90.48 311.54 C 93.99 310.58 97.52 311.66 101.01 312.09 C 103.33 311.92 105.66 311.58 107.98 312.04 C 110.69 312.50 113.33 311.40 116.04 311.33 C 171.37 311.36 226.70 311.37 282.03 311.31 C 297.37 310.67 312.72 311.63 328.07 311.33 C 331.08 311.19 333.99 312.15 336.97 312.35 C 609.99 312.36 883.01 312.36 1156.03 312.36 C 1182.26 312.14 1208.51 312.84 1234.72 311.93 C 1236.47 311.98 1238.27 312.36 1240.04 312.03 C 1245.39 310.82 1251.01 311.74 1256.21 309.67 C 1257.74 311.18 1259.57 310.19 1261.15 309.22 Z" />
</g>
<g id="#a7a7a7ff">
<path fill="#a7a7a7" opacity="1.00" d=" M 1237.30 292.59 C 1240.27 293.18 1242.88 291.25 1245.48 290.08 C 1245.69 290.70 1246.11 291.92 1246.33 292.54 C 1246.95 292.78 1248.19 293.26 1248.81 293.50 C 1247.83 295.25 1246.75 296.93 1245.25 298.26 C 1241.85 301.31 1239.53 305.30 1236.33 308.52 C 1236.64 308.67 1237.27 308.96 1237.58 309.11 L 1238.12 309.49 C 1088.33 309.49 938.54 309.57 788.74 309.37 C 790.13 309.05 791.51 308.62 792.97 308.66 C 811.99 308.83 831.00 308.56 850.02 308.68 C 861.31 307.82 872.64 308.36 883.95 308.17 C 927.64 308.12 971.33 307.99 1015.02 307.92 C 1019.36 308.24 1023.67 307.54 1027.99 307.21 C 1043.32 307.25 1058.65 307.18 1073.99 307.16 C 1080.57 306.89 1087.21 307.64 1093.76 306.69 C 1104.49 306.32 1115.29 307.15 1126.03 306.24 C 1127.79 306.12 1129.54 306.50 1131.31 306.67 C 1165.13 305.93 1199.09 306.45 1232.98 306.21 C 1236.29 306.60 1238.02 303.30 1239.96 301.22 C 1238.17 299.98 1236.21 298.90 1233.96 299.15 C 1145.99 299.14 1058.02 299.17 970.07 299.22 C 960.71 299.88 951.37 298.90 942.01 299.14 C 928.58 299.70 915.13 298.78 901.73 299.65 C 891.52 299.18 881.27 299.36 871.08 299.97 C 862.46 298.78 853.77 300.40 845.13 299.60 C 840.06 300.57 834.99 299.15 829.93 299.99 C 824.70 300.18 819.47 298.93 814.25 299.59 C 810.17 300.20 806.04 299.42 801.96 300.07 C 795.01 299.08 788.00 300.25 781.02 300.11 C 705.28 299.99 629.54 300.27 553.80 300.07 C 553.76 298.41 553.65 296.75 553.60 295.10 C 668.06 294.62 782.52 294.77 896.98 294.63 C 899.65 294.53 902.29 294.05 904.97 293.94 C 944.99 293.91 985.02 293.86 1025.05 293.80 C 1033.35 292.81 1041.71 293.29 1050.05 293.20 C 1104.70 292.96 1159.39 293.37 1214.02 292.56 C 1221.77 292.71 1229.55 291.61 1237.30 292.59 Z" />
</g>
<g id="#6a6b6aff">
<path fill="#6a6b6a" opacity="1.00" d=" M 553.46 291.37 L 553.69 290.92 C 553.65 292.31 553.62 293.70 553.60 295.10 C 553.65 296.75 553.76 298.41 553.80 300.07 C 553.79 301.47 553.78 302.87 553.77 304.28 C 553.43 302.94 553.00 301.63 552.61 300.32 C 551.70 300.83 550.83 301.38 549.94 301.90 C 544.36 301.09 538.64 302.13 533.03 301.88 C 532.29 301.28 531.57 300.66 530.86 300.04 C 530.81 298.46 530.84 296.89 530.79 295.32 C 538.02 294.67 545.26 295.07 552.51 294.73 C 552.80 293.60 553.12 292.48 553.46 291.37 Z" />
</g>
<g id="#18203bff">
<path fill="#18203b" opacity="1.00" d=" M 34.59 292.13 C 38.16 291.56 41.38 293.42 44.73 294.28 C 48.01 295.24 51.44 295.55 54.73 296.48 C 57.99 297.95 60.84 300.33 64.35 301.25 C 68.91 301.35 73.46 301.10 78.02 301.40 C 89.32 300.42 100.70 301.13 112.00 301.46 C 119.62 300.71 127.34 300.66 134.96 301.40 C 140.77 301.52 146.54 300.88 152.33 301.47 C 157.98 300.85 163.64 301.81 169.30 301.46 C 182.19 301.04 195.10 301.80 207.97 301.16 C 216.54 302.77 225.30 300.50 233.88 301.75 C 236.62 301.31 239.37 301.24 242.11 301.77 C 248.84 301.07 255.61 302.06 262.33 301.37 C 274.31 301.80 286.31 301.29 298.28 301.75 C 306.74 301.95 315.19 301.35 323.64 301.77 C 330.00 301.41 336.36 302.29 342.72 301.69 C 350.47 302.04 358.24 301.94 366.01 301.93 C 370.03 302.01 374.06 301.10 378.07 301.71 C 381.36 302.30 384.67 301.39 387.98 301.73 C 394.31 302.40 400.66 301.25 407.00 301.93 C 446.34 302.00 485.69 301.90 525.04 301.98 C 527.03 301.99 529.00 301.55 530.93 301.08 C 531.02 302.32 531.14 303.57 531.27 304.82 C 531.18 306.45 531.01 308.08 530.89 309.72 C 472.60 309.54 414.31 309.67 356.02 309.64 C 348.01 309.53 339.96 310.08 331.99 308.97 C 330.37 308.73 328.76 309.06 327.15 309.24 C 315.10 308.67 303.03 308.22 290.96 308.45 C 249.90 308.36 208.86 309.12 167.80 309.32 C 160.54 308.42 153.27 309.61 146.00 309.61 C 120.01 309.85 94.02 309.63 68.03 309.69 C 65.97 309.70 63.91 309.64 61.89 309.28 C 62.63 309.11 64.12 308.76 64.87 308.59 C 63.18 305.55 59.31 306.05 56.66 304.36 C 52.99 302.51 50.24 299.31 46.68 297.30 C 43.47 295.85 40.02 294.47 36.43 294.75 C 35.81 293.88 35.20 292.99 34.59 292.13 Z" />
</g>
<g id="#4e4d4eff">
<path fill="#4e4d4e" opacity="1.00" d=" M 26.27 292.12 C 27.74 292.88 29.13 293.82 30.17 295.12 C 31.16 297.23 32.38 299.23 33.89 301.01 C 33.40 299.73 32.81 298.49 32.17 297.29 C 32.52 297.02 33.23 296.49 33.58 296.22 C 36.09 300.23 37.92 305.46 42.70 307.29 C 47.11 308.65 51.90 309.25 56.46 308.28 C 58.28 308.56 60.07 308.95 61.89 309.28 C 63.91 309.64 65.97 309.70 68.03 309.69 C 94.02 309.63 120.01 309.85 146.00 309.61 C 153.27 309.61 160.54 308.42 167.80 309.32 C 170.19 309.60 172.59 309.75 175.00 309.68 C 221.34 309.51 267.68 309.70 314.02 309.62 C 318.39 309.44 322.81 310.03 327.15 309.24 C 328.76 309.06 330.37 308.73 331.99 308.97 C 339.96 310.08 348.01 309.53 356.02 309.64 C 414.31 309.67 472.60 309.54 530.89 309.72 C 531.01 308.08 531.18 306.45 531.27 304.82 C 531.55 306.43 531.89 308.04 532.20 309.65 C 539.71 309.62 547.21 309.75 554.72 309.62 C 610.46 309.35 666.20 309.59 721.94 309.53 C 744.20 309.40 766.48 309.79 788.74 309.37 C 938.54 309.57 1088.33 309.49 1238.12 309.49 C 1238.61 309.77 1239.57 310.34 1240.05 310.62 C 1238.26 311.06 1236.50 311.56 1234.72 311.93 C 1208.51 312.84 1182.26 312.14 1156.03 312.36 C 883.01 312.36 609.99 312.36 336.97 312.35 C 333.99 312.15 331.08 311.19 328.07 311.33 C 312.72 311.63 297.37 310.67 282.03 311.31 C 226.70 311.37 171.37 311.36 116.04 311.33 C 113.33 311.40 110.69 312.50 107.98 312.04 C 105.66 311.58 103.33 311.92 101.01 312.09 C 97.52 311.66 93.99 310.58 90.48 311.54 C 76.55 312.72 62.47 312.15 48.54 310.87 C 45.02 310.29 41.26 311.33 38.18 308.99 C 32.84 304.57 28.17 298.87 26.27 292.12 Z" />
</g>
<g id="#4b494af8">
<path fill="#4b494a" opacity="0.97" d=" M 1275.46 293.49 L 1276.64 293.20 C 1275.68 296.22 1274.52 299.15 1273.25 302.04 C 1272.50 303.91 1271.21 305.51 1269.76 306.88 C 1268.02 308.35 1266.49 310.02 1265.16 311.85 C 1264.34 313.09 1262.86 313.60 1261.73 314.44 C 1261.60 314.52 1261.35 314.67 1261.22 314.75 C 1260.36 315.32 1259.43 315.74 1258.45 316.00 C 1257.55 314.41 1255.67 315.42 1254.32 315.42 C 1252.09 315.88 1249.85 315.84 1247.66 315.31 C 1249.03 314.76 1250.39 314.20 1251.79 313.67 C 1254.20 313.72 1256.72 314.03 1259.05 313.12 C 1262.46 312.28 1264.67 309.40 1267.18 307.17 C 1271.35 303.61 1272.89 298.14 1275.46 293.49 Z" />
</g>
<g id="#161927ff">
<path fill="#161927" opacity="1.00" d=" M 36.43 294.75 C 40.02 294.47 43.47 295.85 46.68 297.30 C 50.24 299.31 52.99 302.51 56.66 304.36 C 59.31 306.05 63.18 305.55 64.87 308.59 C 64.12 308.76 62.63 309.11 61.89 309.28 C 60.07 308.95 58.28 308.56 56.46 308.28 C 48.73 305.69 41.32 301.43 36.43 294.75 Z" />
</g>
<g id="#555354f6">
<path fill="#555354" opacity="0.96" d=" M 24.64 294.06 C 26.46 295.18 27.06 297.34 27.98 299.14 C 29.87 303.40 32.91 307.12 36.65 309.91 C 39.76 312.66 43.80 314.36 48.01 313.75 C 50.73 314.35 53.40 315.11 56.10 315.82 C 52.41 315.67 48.63 315.97 45.05 314.87 C 43.16 314.43 41.10 313.59 39.25 314.68 C 36.87 313.90 34.75 311.78 33.03 309.89 C 32.70 308.95 32.07 308.28 31.16 307.89 C 28.63 304.95 26.36 301.70 24.74 298.16 C 24.71 297.14 24.66 295.09 24.64 294.06 Z" />
</g>
<g id="#969798ff">
<path fill="#969798" opacity="1.00" d=" M 781.02 300.11 C 788.00 300.25 795.01 299.08 801.96 300.07 C 806.04 299.42 810.17 300.20 814.25 299.59 C 819.47 298.93 824.70 300.18 829.93 299.99 C 834.99 299.15 840.06 300.57 845.13 299.60 C 853.77 300.40 862.46 298.78 871.08 299.97 C 881.27 299.36 891.52 299.18 901.73 299.65 C 915.13 298.78 928.58 299.70 942.01 299.14 C 951.37 298.90 960.71 299.88 970.07 299.22 C 1058.02 299.17 1145.99 299.14 1233.96 299.15 C 1236.21 298.90 1238.17 299.98 1239.96 301.22 C 1238.02 303.30 1236.29 306.60 1232.98 306.21 C 1199.09 306.45 1165.13 305.93 1131.31 306.67 C 1129.54 306.50 1127.79 306.12 1126.03 306.24 C 1115.29 307.15 1104.49 306.32 1093.76 306.69 C 1087.21 307.64 1080.57 306.89 1073.99 307.16 C 1058.65 307.18 1043.32 307.25 1027.99 307.21 C 1023.67 307.54 1019.36 308.24 1015.02 307.92 C 971.33 307.99 927.64 308.12 883.95 308.17 C 872.64 308.36 861.31 307.82 850.02 308.68 C 831.00 308.56 811.99 308.83 792.97 308.66 C 791.51 308.62 790.13 309.05 788.74 309.37 C 766.48 309.79 744.20 309.40 721.94 309.53 C 666.20 309.59 610.46 309.35 554.72 309.62 C 554.45 307.83 553.90 306.09 553.77 304.28 C 553.78 302.87 553.79 301.47 553.80 300.07 C 629.54 300.27 705.28 299.99 781.02 300.11 Z" />
</g>
<g id="#606060ff">
<path fill="#606060" opacity="1.00" d=" M 530.86 300.04 C 531.57 300.66 532.29 301.28 533.03 301.88 C 538.64 302.13 544.36 301.09 549.94 301.90 C 550.83 301.38 551.70 300.83 552.61 300.32 C 553.00 301.63 553.43 302.94 553.77 304.28 C 553.90 306.09 554.45 307.83 554.72 309.62 C 547.21 309.75 539.71 309.62 532.20 309.65 C 531.89 308.04 531.55 306.43 531.27 304.82 C 531.14 303.57 531.02 302.32 530.93 301.08 L 530.86 300.04 Z" />
</g>
<g id="#454343ff">
<path fill="#454343" opacity="1.00" d=" M 1265.16 311.85 C 1266.49 310.02 1268.02 308.35 1269.76 306.88 C 1268.81 309.00 1266.97 310.50 1265.16 311.85 Z" />
<path fill="#454343" opacity="1.00" d=" M 39.25 314.68 C 41.10 313.59 43.16 314.43 45.05 314.87 C 48.63 315.97 52.41 315.67 56.10 315.82 C 66.69 317.01 77.44 316.06 88.05 317.27 C 100.94 317.43 113.83 317.37 126.72 317.40 C 128.80 317.58 130.88 317.76 132.97 317.75 C 456.63 317.82 780.29 317.77 1103.95 317.79 C 1143.74 317.71 1183.54 317.91 1223.32 317.50 C 1221.60 317.88 1219.92 318.37 1218.20 318.58 C 1218.76 319.11 1219.34 319.63 1219.94 320.16 C 1165.98 320.45 1112.02 320.18 1058.06 320.28 C 758.71 320.31 459.35 320.25 160.00 320.29 C 129.37 320.10 98.73 320.55 68.10 320.05 L 67.38 319.96 C 63.28 319.16 59.10 319.04 54.95 319.10 L 53.97 318.71 C 52.53 317.78 50.84 317.72 49.20 317.90 L 47.91 317.92 C 46.67 316.20 44.26 316.16 42.34 315.97 C 41.57 315.65 40.03 315.00 39.25 314.68 Z" />
</g>
<g id="#302f303c">
<path fill="#302f30" opacity="0.24" d=" M 31.16 307.89 C 32.07 308.28 32.70 308.95 33.03 309.89 C 31.27 310.32 30.65 309.65 31.16 307.89 Z" />
</g>
<g id="#817d80ff">
<path fill="#817d80" opacity="1.00" d=" M 36.65 309.91 C 37.03 309.68 37.80 309.22 38.18 308.99 C 41.26 311.33 45.02 310.29 48.54 310.87 L 47.47 311.78 L 47.05 312.46 C 47.29 312.78 47.77 313.43 48.01 313.75 C 43.80 314.36 39.76 312.66 36.65 309.91 Z" />
</g>
<g id="#5a595994">
<path fill="#5a5959" opacity="0.58" d=" M 1261.22 314.75 C 1261.35 314.67 1261.60 314.52 1261.73 314.44 C 1261.60 314.52 1261.35 314.67 1261.22 314.75 Z" />
</g>
<g id="#a5a1a4ff">
<path fill="#a5a1a4" opacity="1.00" d=" M 139.05 315.61 C 175.68 315.46 212.33 315.75 248.95 315.33 C 412.64 315.36 576.33 315.34 740.02 315.36 C 891.69 315.27 1043.35 315.46 1195.02 315.27 C 1208.35 315.44 1221.69 314.70 1235.02 315.17 L 1234.63 316.47 C 1230.86 316.85 1227.07 317.07 1223.32 317.50 C 1183.54 317.91 1143.74 317.71 1103.95 317.79 C 780.29 317.77 456.63 317.82 132.97 317.75 C 130.88 317.76 128.80 317.58 126.72 317.40 C 129.78 316.65 132.96 316.96 136.02 316.23 C 136.78 316.08 138.30 315.77 139.05 315.61 Z" />
</g>
<g id="#363535ff">
<path fill="#363535" opacity="1.00" d=" M 1254.32 315.42 C 1255.67 315.42 1257.55 314.41 1258.45 316.00 C 1257.87 316.22 1256.70 316.66 1256.11 316.88 C 1252.75 317.15 1249.51 317.92 1246.31 318.91 C 1246.00 318.97 1245.38 319.09 1245.07 319.15 C 1236.65 318.78 1228.35 320.72 1219.94 320.16 C 1219.34 319.63 1218.76 319.11 1218.20 318.58 C 1219.92 318.37 1221.60 317.88 1223.32 317.50 C 1227.07 317.07 1230.86 316.85 1234.63 316.47 C 1238.99 316.44 1243.37 316.22 1247.66 315.31 C 1249.85 315.84 1252.09 315.88 1254.32 315.42 Z" />
</g>
<g id="#48464893">
<path fill="#484648" opacity="0.58" d=" M 42.34 315.97 C 44.26 316.16 46.67 316.20 47.91 317.92 C 46.21 318.57 42.77 317.85 42.34 315.97 Z" />
</g>
<g id="#47464695">
<path fill="#474646" opacity="0.58" d=" M 1246.31 318.91 C 1249.51 317.92 1252.75 317.15 1256.11 316.88 C 1253.40 318.68 1249.53 318.95 1246.31 318.91 Z" />
</g>
<g id="#4f4e4ea4">
<path fill="#4f4e4e" opacity="0.64" d=" M 49.20 317.90 C 50.84 317.72 52.53 317.78 53.97 318.71 C 52.73 319.57 49.45 319.78 49.20 317.90 Z" />
</g>
<g id="#4b4a4ba4">
<path fill="#4b4a4b" opacity="0.64" d=" M 54.95 319.10 C 59.10 319.04 63.28 319.16 67.38 319.96 C 63.23 320.13 58.96 320.30 54.95 319.10 Z" />
</g>
</svg>
