<?xml version="1.0" encoding="UTF-8" standalone="no"?>
<!-- Created with Inkscape (http://www.inkscape.org/) -->

<svg
   xmlns:dc="http://purl.org/dc/elements/1.1/"
   xmlns:cc="http://creativecommons.org/ns#"
   xmlns:rdf="http://www.w3.org/1999/02/22-rdf-syntax-ns#"
   xmlns:svg="http://www.w3.org/2000/svg"
   xmlns="http://www.w3.org/2000/svg"
   xmlns:sodipodi="http://sodipodi.sourceforge.net/DTD/sodipodi-0.dtd"
   xmlns:inkscape="http://www.inkscape.org/namespaces/inkscape"
   version="1.1"
   width="1223.493"
   height="1156.8558"
   id="svg2"
   inkscape:version="0.48.2 r9819"
   sodipodi:docname="AJAX1.svg"
   inkscape:export-filename="C:\Users\Christopher\Desktop\svgs\S19.2E-1-1078-28673.png"
   inkscape:export-xdpi="5.8800001"
   inkscape:export-ydpi="5.8800001">
  <metadata
     id="metadata10">
    <rdf:RDF>
      <cc:Work
         rdf:about="">
        <dc:format>image/svg+xml</dc:format>
        <dc:type
           rdf:resource="http://purl.org/dc/dcmitype/StillImage" />
        <dc:title></dc:title>
      </cc:Work>
    </rdf:RDF>
  </metadata>
  <sodipodi:namedview
     pagecolor="#ffffff"
     bordercolor="#666666"
     borderopacity="1"
     objecttolerance="10"
     gridtolerance="10"
     guidetolerance="10"
     inkscape:pageopacity="0"
     inkscape:pageshadow="2"
     inkscape:window-width="1280"
     inkscape:window-height="1004"
     id="namedview8"
     showgrid="false"
     fit-margin-top="0"
     fit-margin-left="0"
     fit-margin-right="0"
     fit-margin-bottom="0"
     inkscape:zoom="0.2438498"
     inkscape:cx="1702.432"
     inkscape:cy="162.60636"
     inkscape:window-x="-8"
     inkscape:window-y="-8"
     inkscape:window-maximized="1"
     inkscape:current-layer="layer1" />
  <defs
     id="defs4" />
  <g
     transform="translate(810.24449,61.618986)"
     id="layer1">
    <path
       style="fill:#ed008c;fill-opacity:1;stroke:none"
       d="m -809.73188,1064.2185 c 0,-95.85819 0,-191.71639 0,-287.57459 3.76145,-32.18603 39.164,-31.54461 63.83276,-30.24402 375.14131,0 750.28262,0 1125.42393,0 34.0676,1.00097 35.1089,37.05737 33.2053,62.42307 -0.5963,87.10237 1.3502,174.38615 -0.838,261.37494 -11.2506,34.1907 -50.605,23.2645 -77.8806,25.0335 -371.0383,0 -742.0766,0 -1113.1149,0 -15.73416,-0.4328 -29.30069,-15.8541 -30.62849,-31.0129 z"
       id="path3777"
       inkscape:connector-curvature="0" />
    <path
       d="m -810.24449,316.82196 0,-378.316906 207.94019,-0.002 207.94014,-0.002 72.53073,75.99683 72.53073,75.99683 59.81587,-61.23792 c 32.89876,-33.6808497 65.05269,-67.90643 71.45322,-76.05685 l 11.6373,-14.81893 210.18508,1.40344 210.18509,1.40344 1.42107,159.434506 1.42108,159.43449 -16.26591,26.43551 c -19.65584,31.94481 -67.64499,132.75495 -72.60668,152.52375 -1.96065,7.8118 -7.07126,17.1134 -11.35692,20.6702 -13.97019,11.5943 -21.34125,-5.9225 -28.50411,-67.73789 -10.65351,-91.93967 -25.14487,-115.58477 -66.12663,-107.89656 -35.763226,6.70924 -48.871446,36.11985 -38.522206,86.43177 9.43818,45.88318 85.567876,243.77878 98.915596,257.12648 16.00591,16.0059 56.50171,15.6633 69.66236,-0.5894 5.24315,-6.4751 20.80437,-46.9228 34.58052,-89.8838 13.7761,-42.9611 26.17642,-78.111 27.55623,-78.111 1.37976,0 2.5087,53.1253 2.5087,118.0563 l 0,118.0563 -131.08568,0 -131.085726,0 -2.8575,-28.1725 c -1.57165,-15.4949 -4.27847,-108.2857 -6.01513,-206.2017 l -3.15763,-178.02914 55.56123,-32.47568 c 66.426316,-38.82634 81.837936,-53.34733 77.014796,-72.56426 -4.33669,-17.27865 -31.6676,-32.0238 -50.56605,-27.2806 -7.67318,1.92585 -22.80833,11.50338 -33.633656,21.28339 -10.82529,9.78002 -31.3834,24.63911 -45.68464,33.02019 -21.75789,12.751 -31.01259,14.99004 -56.69731,13.71712 -37.12866,-1.84007 -52.7927,9.67481 -52.7927,38.80875 0,17.58773 -2.23201,19.54961 -63.137814,55.49644 -34.72579,20.49529 -75.59131,41.40057 -90.81232,46.45618 -15.22106,5.05561 -30.57707,12.68929 -34.12456,16.96374 -10.19379,12.28274 -7.54868,33.96349 5.8886,48.26687 18.33629,19.518 46.36201,17.8534 75.79265,-4.5019 93.628714,-71.11966 118.818764,-82.04427 125.725494,-54.52564 1.89089,7.53381 1.6603,84.80704 -0.51247,171.71824 l -3.95011,158.0205 -34.15231,0 -34.152254,0 -1.45499,-104.3595 -1.45499,-104.3595 -63.47105,53.4388 c -34.90905,29.3915 -65.63251,52.1031 -68.27424,50.4704 -2.64178,-1.6327 -32.03475,-25.9498 -65.3177,-54.038 l -60.51447,-51.0695 -1.45499,104.9587 -1.45499,104.9586 -214.53444,0 -214.5345,0 0,-378.31685 0,2.6e-4 z m 456.12681,305.87325 c 0,-39.844 1.47597,-72.4437 3.27993,-72.4437 1.80395,0 15.08529,9.884 29.51408,21.9645 l 26.23416,21.9645 0,50.4792 0,50.4791 -29.51409,0 -29.51408,0 0,-72.4436 z m 697.60562,-82.3572 0,-154.8009 29.90641,-47.77307 c 16.44852,-26.27519 32.14465,-50.06712 34.88028,-52.87095 3.05648,-3.13272 4.97387,74.95719 4.97387,202.57392 l 0,207.6718 -34.88028,0 -34.88028,0 0,-154.8008 z m -523.20421,34.1572 c 14.75704,-13.1072 34.7074,-29.15724 34.6437,-26.94169 -0.35334,12.28941 3.42971,50.98333 -3.42494,50.99411 -10.31109,0.0162 -20.20465,-0.05 -33.63355,-0.11072 l -24.4162,-0.1105 26.83099,-23.8314 0,2e-4 z M 343.48794,81.782524 c 0,-75.8511997 1.49524,-137.91127 3.3227,-137.91127 1.82746,0 17.52358,8.6266 34.88028,19.17022 l 31.55758,19.17022 0,75.48243 0,75.482406 -30.56623,38.16074 c -16.81144,20.98841 -32.50756,40.45479 -34.88028,43.25863 -2.37272,2.80384 -4.31405,-56.96218 -4.31405,-132.813376 z M -300.45571,-5.1498757 c -27.9218,-28.0383803 -49.27102,-50.9788703 -47.44272,-50.9788703 5.76066,0 130.58384,58.0973505 135.4366,62.9077705 4.14947,4.1132795 -27.53117,39.0494295 -34.43789,39.0498295 -1.53398,8e-5 -25.63422,-22.94035 -53.55599,-50.9787297 z"
       id="path2848"
       style="fill:#000000"
       inkscape:connector-curvature="0" />
    <path
       style="fill:#000000;fill-opacity:1;stroke:none"
       d="m -445.90648,1005.7808 c -0.0705,-58.29189 -0.3749,-116.59263 -0.29917,-174.8791 2.36404,-8.18606 13.14774,-9.09162 20.23892,-7.77366 6.03171,0.60588 10.55089,5.98206 9.40721,11.98534 0.0478,21.71116 -0.0956,43.42859 0.0717,65.13583 1.73189,5.51673 8.66369,3.67101 13.18254,3.99795 10.04285,-0.0931 20.10261,0.19009 30.13446,-0.14878 6.48283,-0.15938 5.68142,-7.02242 5.59858,-11.56761 0.008,-20.18026 -0.20892,-40.36906 -0.0601,-60.54398 2.33545,-7.79803 12.6908,-8.43014 19.4227,-7.12079 5.83364,0.6403 10.14221,5.8559 9.02829,11.65706 -0.0453,57.29824 0.12548,114.60435 -0.0548,171.89764 -2.01265,7.9538 -12.28362,9.4968 -19.19208,8.1151 -6.13781,-0.6727 -9.91233,-6.4745 -8.94872,-12.3245 -0.27148,-23.15539 -0.29358,-46.32139 -0.72273,-69.4701 -0.33689,-5.93534 -7.05551,-3.60353 -10.98399,-4.05779 -11.04091,0.0829 -22.09723,-0.16816 -33.12825,0.12973 -6.11823,0.79638 -4.52282,7.78117 -4.71855,12.17717 -0.007,21.379 0.21472,42.7652 0.0632,64.13969 -1.81581,9.0992 -13.71321,10.417 -21.08125,7.8918 -4.07468,-1.2903 -8.06935,-4.606 -7.95787,-9.241 z"
       id="path2994"
       inkscape:connector-curvature="0" />
    <path
       style="fill:#000000;fill-opacity:1;stroke:none"
       d="m -276.5207,1006.3896 c -0.032,-58.36289 -0.0641,-116.72572 -0.0961,-175.08858 1.76804,-7.38842 11.94006,-7.06602 17.99458,-6.64237 4.887,0.2567 11.38485,3.14561 10.16654,9.0144 -0.0105,57.58285 -0.0211,115.16566 -0.0316,172.74855 -0.0523,9.3326 -11.64142,12.6372 -19.16346,10.2568 -4.71777,-1.1512 -9.06762,-5.1224 -8.86999,-10.2888 z"
       id="path3764"
       inkscape:connector-curvature="0" />
    <path
       style="fill:#000000;fill-opacity:1;stroke:none"
       d="m -167.68705,1006.1653 c -0.0409,-50.43949 0.0819,-100.88347 -0.0615,-151.32018 -1.4811,-5.63439 -8.50156,-3.98032 -12.97958,-4.26569 -6.77102,-0.36435 -13.79301,0.89832 -20.32241,-1.18394 -11.01925,-4.77099 -9.2185,-24.59326 3.3244,-25.77019 29.50202,-0.16605 59.01847,-0.22062 88.52041,-0.12733 13.46667,1.3203 14.58783,24.08073 1.45185,26.91167 -8.89624,0.7604 -17.89017,-0.0606 -26.80765,0.46512 -5.58717,0.87128 -3.60646,7.36173 -3.97084,11.34209 -0.0556,48.45445 0.11134,96.91576 -0.0836,145.36595 -1.71104,9.7336 -14.55413,11.8055 -22.30914,8.2937 -3.88356,-1.6095 -6.90718,-5.3763 -6.76196,-9.7112 z"
       id="path3766"
       inkscape:connector-curvature="0" />
    <path
       style="fill:#000000;fill-opacity:1;stroke:none"
       d="m -50.17106,1005.6527 c -8.84252,-5.3556 -7.84522,-18.69589 -0.03311,-24.45699 6.53429,-6.4525 14.21886,-0.2493 19.73343,4.0671 10.23052,7.0452 24.28746,12.9203 36.09012,6.0167 9.71282,-4.2979 16.25822,-14.8261 14.41305,-25.5085 -0.61206,-13.4794 -11.70865,-23.2197 -23.22794,-28.38668 -17.33767,-7.93337 -34.199,-18.09404 -47.0701,-32.36434 -6.35921,-7.07467 -10.56054,-16.48681 -9.29888,-26.13168 -0.93332,-25.21861 15.98406,-50.89709 40.94338,-57.11825 9.3323,-2.24809 18.92562,0.31575 28.28351,1.15694 12.68563,1.97337 25.1493,8.09423 33.24172,18.217 6.25284,9.32847 -3.23828,24.20928 -14.49497,20.62981 -9.24248,-3.41536 -15.20897,-13.57717 -25.83577,-13.96208 -11.37121,-1.72182 -25.19709,1.58495 -30.26675,13.03825 -3.19325,7.27711 -4.28056,16.23885 -1.1431,23.66572 7.38525,10.83701 19.85984,16.50285 30.916,22.86892 15.04141,7.60696 31.61673,15.17979 40.35306,30.46027 8.98039,14.65922 6.57891,33.14822 1.15826,48.59152 -6.70308,18.82599 -25.1019,33.48979 -45.4789,33.22569 -17.0159,0.7054 -34.40848,-4.0213 -48.28301,-14.0094 z"
       id="path3768"
       inkscape:connector-curvature="0" />
  </g>
</svg>
