<?xml version="1.0" encoding="UTF-8" standalone="yes"?>
<svg xmlns="http://www.w3.org/2000/svg" xmlns:xlink="http://www.w3.org/1999/xlink" width="112px" height="106.66666666666666px" viewBox="0 0 84 80" version="1.1">
  <g id="surface1">
    <path style=" stroke:none;fill-rule:nonzero;fill:rgb(92.941176%,0%,54.901961%);fill-opacity:1;" d="M 0.0351562 77.84375 C 0.0351562 71.21875 0.0351562 64.589844 0.0351562 57.960938 C 0.292969 55.734375 2.726562 55.78125 4.417969 55.871094 C 30.183594 55.871094 55.953125 55.871094 81.71875 55.871094 C 84.058594 55.9375 84.128906 58.433594 84 60.1875 C 83.957031 66.207031 84.089844 72.242188 83.941406 78.257812 C 83.167969 80.621094 80.464844 79.867188 78.589844 79.988281 C 53.105469 79.988281 27.625 79.988281 2.140625 79.988281 C 1.058594 79.960938 0.125 78.894531 0.0351562 77.84375 Z M 0.0351562 77.84375 "/>
    <path style=" stroke:none;fill-rule:nonzero;fill:rgb(0%,0%,0%);fill-opacity:1;" d="M 0 26.167969 L 0 0.0078125 L 28.5625 0.0078125 L 33.546875 5.261719 L 38.527344 10.519531 L 42.636719 6.285156 C 44.894531 3.953125 47.105469 1.589844 47.542969 1.023438 L 48.34375 0 L 62.777344 0.0976562 L 77.214844 0.195312 L 77.410156 22.242188 L 76.292969 24.070312 C 74.941406 26.277344 71.648438 33.25 71.304688 34.617188 C 71.171875 35.15625 70.820312 35.800781 70.527344 36.046875 C 69.566406 36.847656 69.0625 35.636719 68.570312 31.363281 C 67.835938 25.003906 66.839844 23.371094 64.027344 23.902344 C 61.570312 24.363281 60.671875 26.398438 61.382812 29.878906 C 62.027344 33.050781 67.257812 46.734375 68.175781 47.65625 C 69.273438 48.761719 72.054688 48.738281 72.960938 47.617188 C 73.320312 47.167969 74.386719 44.371094 75.335938 41.402344 C 76.28125 38.429688 77.132812 36 77.226562 36 C 77.320312 36 77.398438 39.671875 77.398438 44.164062 L 77.398438 52.324219 L 59.394531 52.324219 L 59.195312 50.378906 C 59.089844 49.304688 58.902344 42.890625 58.785156 36.121094 L 58.566406 23.808594 L 62.382812 21.566406 C 66.945312 18.878906 68.003906 17.875 67.671875 16.546875 C 67.375 15.351562 65.496094 14.332031 64.199219 14.660156 C 63.671875 14.792969 62.632812 15.457031 61.890625 16.132812 C 61.144531 16.808594 59.734375 17.835938 58.75 18.414062 C 57.257812 19.296875 56.621094 19.453125 54.855469 19.363281 C 52.308594 19.238281 51.230469 20.03125 51.230469 22.046875 C 51.230469 23.261719 51.078125 23.398438 46.894531 25.886719 C 44.507812 27.300781 41.703125 28.746094 40.65625 29.097656 C 39.613281 29.445312 38.558594 29.972656 38.3125 30.269531 C 37.613281 31.121094 37.796875 32.617188 38.71875 33.605469 C 39.976562 34.957031 41.902344 34.84375 43.921875 33.296875 C 50.355469 28.378906 52.085938 27.625 52.558594 29.527344 C 52.6875 30.046875 52.671875 35.390625 52.523438 41.398438 L 52.253906 52.324219 L 47.5625 52.324219 L 47.359375 37.894531 L 43 41.589844 C 40.605469 43.621094 38.492188 45.191406 38.3125 45.078125 C 38.132812 44.964844 36.113281 43.285156 33.828125 41.34375 L 29.667969 37.8125 L 29.570312 45.066406 L 29.46875 52.324219 L 0 52.324219 Z M 31.328125 47.316406 C 31.328125 44.5625 31.429688 42.308594 31.554688 42.308594 C 31.675781 42.308594 32.589844 42.992188 33.582031 43.824219 L 35.382812 45.34375 L 35.382812 52.324219 L 31.328125 52.324219 Z M 79.242188 41.621094 L 79.242188 30.917969 L 81.296875 27.613281 C 82.425781 25.796875 83.503906 24.152344 83.691406 23.960938 C 83.902344 23.742188 84.035156 29.140625 84.035156 37.964844 L 84.035156 52.324219 L 79.242188 52.324219 Z M 43.308594 43.984375 C 44.320312 43.078125 45.691406 41.96875 45.6875 42.121094 C 45.664062 42.96875 45.921875 45.644531 45.449219 45.648438 C 44.742188 45.648438 44.0625 45.644531 43.140625 45.640625 L 41.464844 45.632812 Z M 79.242188 9.914062 C 79.242188 4.671875 79.34375 0.378906 79.46875 0.378906 C 79.597656 0.378906 80.675781 0.976562 81.867188 1.707031 L 84.035156 3.03125 L 84.035156 13.46875 L 81.933594 16.109375 C 80.78125 17.558594 79.703125 18.90625 79.539062 19.097656 C 79.375 19.292969 79.242188 15.160156 79.242188 9.914062 Z M 35.015625 3.90625 C 33.097656 1.964844 31.628906 0.378906 31.753906 0.378906 C 32.152344 0.378906 40.722656 4.398438 41.058594 4.730469 C 41.34375 5.015625 39.167969 7.429688 38.691406 7.429688 C 38.585938 7.429688 36.933594 5.84375 35.015625 3.90625 Z M 35.015625 3.90625 "/>
    <path style=" stroke:none;fill-rule:nonzero;fill:rgb(0%,0%,0%);fill-opacity:1;" d="M 25.023438 73.804688 C 25.019531 69.773438 25 65.742188 25.003906 61.710938 C 25.164062 61.148438 25.90625 61.085938 26.394531 61.175781 C 26.808594 61.21875 27.117188 61.589844 27.039062 62.003906 C 27.042969 63.503906 27.03125 65.007812 27.042969 66.507812 C 27.164062 66.890625 27.640625 66.761719 27.949219 66.785156 C 28.640625 66.777344 29.332031 66.796875 30.019531 66.773438 C 30.464844 66.761719 30.410156 66.289062 30.40625 65.972656 C 30.40625 64.578125 30.390625 63.183594 30.398438 61.789062 C 30.5625 61.25 31.273438 61.203125 31.734375 61.296875 C 32.136719 61.339844 32.429688 61.699219 32.355469 62.101562 C 32.351562 66.0625 32.363281 70.027344 32.351562 73.988281 C 32.210938 74.539062 31.507812 74.644531 31.03125 74.546875 C 30.609375 74.5 30.351562 74.101562 30.417969 73.695312 C 30.398438 72.09375 30.398438 70.492188 30.367188 68.894531 C 30.34375 68.480469 29.882812 68.644531 29.613281 68.613281 C 28.855469 68.617188 28.097656 68.601562 27.339844 68.621094 C 26.917969 68.675781 27.027344 69.160156 27.015625 69.464844 C 27.015625 70.941406 27.027344 72.421875 27.019531 73.898438 C 26.894531 74.527344 26.078125 74.617188 25.570312 74.445312 C 25.289062 74.355469 25.015625 74.125 25.023438 73.804688 Z M 25.023438 73.804688 "/>
    <path style=" stroke:none;fill-rule:nonzero;fill:rgb(0%,0%,0%);fill-opacity:1;" d="M 36.65625 73.847656 C 36.65625 69.8125 36.652344 65.777344 36.652344 61.742188 C 36.773438 61.230469 37.472656 61.25 37.886719 61.28125 C 38.222656 61.300781 38.667969 61.5 38.585938 61.90625 C 38.585938 65.886719 38.585938 69.867188 38.582031 73.847656 C 38.578125 74.496094 37.785156 74.722656 37.265625 74.558594 C 36.941406 74.480469 36.644531 74.203125 36.65625 73.847656 Z M 36.65625 73.847656 "/>
    <path style=" stroke:none;fill-rule:nonzero;fill:rgb(0%,0%,0%);fill-opacity:1;" d="M 44.132812 73.832031 C 44.128906 70.34375 44.140625 66.855469 44.128906 63.367188 C 44.027344 62.980469 43.546875 63.09375 43.238281 63.074219 C 42.773438 63.046875 42.289062 63.136719 41.839844 62.992188 C 41.085938 62.660156 41.207031 61.289062 42.070312 61.210938 C 44.097656 61.199219 46.125 61.195312 48.148438 61.199219 C 49.074219 61.292969 49.152344 62.867188 48.25 63.0625 C 47.636719 63.113281 47.019531 63.058594 46.410156 63.09375 C 46.023438 63.152344 46.160156 63.601562 46.136719 63.878906 C 46.132812 67.226562 46.144531 70.578125 46.128906 73.929688 C 46.011719 74.601562 45.128906 74.746094 44.597656 74.503906 C 44.332031 74.390625 44.125 74.132812 44.132812 73.832031 Z M 44.132812 73.832031 "/>
    <path style=" stroke:none;fill-rule:nonzero;fill:rgb(0%,0%,0%);fill-opacity:1;" d="M 52.203125 73.796875 C 51.597656 73.425781 51.664062 72.503906 52.203125 72.105469 C 52.652344 71.660156 53.179688 72.085938 53.558594 72.386719 C 54.261719 72.875 55.226562 73.28125 56.035156 72.800781 C 56.703125 72.503906 57.152344 71.777344 57.027344 71.039062 C 56.984375 70.105469 56.222656 69.433594 55.429688 69.074219 C 54.238281 68.527344 53.082031 67.824219 52.199219 66.835938 C 51.761719 66.347656 51.472656 65.699219 51.558594 65.03125 C 51.496094 63.285156 52.65625 61.511719 54.371094 61.082031 C 55.011719 60.925781 55.671875 61.101562 56.3125 61.160156 C 57.183594 61.296875 58.042969 61.722656 58.597656 62.421875 C 59.027344 63.066406 58.375 64.09375 57.601562 63.847656 C 56.96875 63.609375 56.558594 62.910156 55.828125 62.882812 C 55.046875 62.761719 54.097656 62.992188 53.75 63.785156 C 53.527344 64.285156 53.453125 64.90625 53.667969 65.417969 C 54.175781 66.167969 55.035156 66.5625 55.792969 67 C 56.828125 67.527344 57.964844 68.050781 58.566406 69.105469 C 59.183594 70.121094 59.015625 71.398438 58.644531 72.46875 C 58.183594 73.769531 56.921875 74.78125 55.519531 74.765625 C 54.351562 74.8125 53.15625 74.488281 52.203125 73.796875 Z M 52.203125 73.796875 "/>
  </g>
</svg>