<?xml version="1.0" encoding="UTF-8" ?>
<!DOCTYPE svg PUBLIC "-//W3C//DTD SVG 1.1//EN" "http://www.w3.org/Graphics/SVG/1.1/DTD/svg11.dtd">
<svg width="360pt" height="270pt" viewBox="0 0 360 270" version="1.1" xmlns="http://www.w3.org/2000/svg">
<g id="#4a0d4373">
<path fill="#4a0d43" opacity="0.45" d=" M 227.27 67.23 C 237.10 61.61 249.94 62.21 259.34 68.46 C 259.77 68.45 260.63 68.43 261.06 68.42 C 252.23 70.48 243.63 74.22 236.62 80.05 C 235.65 80.73 234.68 81.40 233.69 82.04 C 229.91 82.77 227.01 85.92 226.06 89.57 C 221.77 94.92 218.22 100.78 215.27 106.97 C 212.84 104.76 212.55 101.10 211.93 98.04 C 210.10 85.89 216.57 73.18 227.27 67.23 Z" />
</g>
<g id="#62016cff">
<path fill="#62016c" opacity="1.00" d=" M 261.06 68.42 C 271.33 65.81 282.15 66.31 292.45 68.48 C 299.44 70.64 306.16 73.57 312.39 77.43 C 316.06 79.85 319.49 82.63 322.57 85.78 C 324.18 87.78 325.99 89.60 327.57 91.62 C 325.26 92.50 324.14 89.49 322.47 88.43 C 317.04 84.01 310.47 80.68 303.48 79.69 C 300.69 79.27 297.87 79.10 295.05 79.09 C 295.54 78.68 296.51 77.86 297.00 77.45 C 292.55 74.62 287.15 74.46 282.08 73.79 C 279.01 73.39 275.96 74.07 272.95 74.58 C 276.19 72.58 279.64 70.96 283.04 69.26 C 277.34 69.30 271.56 69.00 265.95 70.13 C 264.91 70.23 264.41 71.24 263.73 71.88 C 262.78 71.25 261.80 70.66 260.83 70.06 C 254.25 71.46 248.36 74.58 242.70 78.06 C 241.82 78.36 240.95 78.65 240.07 78.94 C 238.92 79.31 237.77 79.68 236.62 80.05 C 243.63 74.22 252.23 70.48 261.06 68.42 Z" />
</g>
<g id="#460e3f69">
<path fill="#460e3f" opacity="0.41" d=" M 292.45 68.48 C 303.12 66.39 314.37 69.08 324.02 73.81 C 337.57 80.74 348.20 93.32 352.39 107.99 C 352.21 108.52 351.85 109.59 351.67 110.13 C 350.58 107.65 350.05 104.82 348.38 102.65 C 344.07 100.60 339.35 99.72 334.84 98.25 C 332.30 96.72 331.76 92.46 328.36 92.35 L 327.65 92.18 C 327.63 92.04 327.59 91.76 327.57 91.62 C 325.99 89.60 324.18 87.78 322.57 85.78 C 322.67 83.45 320.45 82.28 318.98 80.90 C 317.01 79.36 315.08 77.34 312.39 77.43 C 306.16 73.57 299.44 70.64 292.45 68.48 Z" />
</g>
<g id="#7b037eff">
<path fill="#7b037e" opacity="1.00" d=" M 265.95 70.13 C 271.56 69.00 277.34 69.30 283.04 69.26 C 279.64 70.96 276.19 72.58 272.95 74.58 C 275.96 74.07 279.01 73.39 282.08 73.79 C 287.15 74.46 292.55 74.62 297.00 77.45 C 296.51 77.86 295.54 78.68 295.05 79.09 C 286.85 80.56 278.80 83.63 272.66 89.43 C 271.57 85.14 270.24 80.84 267.83 77.09 C 267.04 75.98 266.21 74.91 265.38 73.84 C 264.97 73.35 264.14 72.37 263.73 71.88 C 264.41 71.24 264.91 70.23 265.95 70.13 Z" />
</g>
<g id="#8a0f88ff">
<path fill="#8a0f88" opacity="1.00" d=" M 242.70 78.06 C 248.36 74.58 254.25 71.46 260.83 70.06 C 261.80 70.66 262.78 71.25 263.73 71.88 C 264.14 72.37 264.97 73.35 265.38 73.84 C 262.46 75.45 258.27 75.57 256.71 78.92 C 252.46 77.54 247.95 77.46 243.55 77.99 L 242.70 78.06 Z" />
</g>
<g id="#a615a7ff">
<path fill="#a615a7" opacity="1.00" d=" M 256.71 78.92 C 258.27 75.57 262.46 75.45 265.38 73.84 C 266.21 74.91 267.04 75.98 267.83 77.09 C 265.54 78.61 263.22 80.08 260.86 81.51 C 259.52 80.58 258.13 79.71 256.71 78.92 Z" />
</g>
<g id="#9a1f98ff">
<path fill="#9a1f98" opacity="1.00" d=" M 260.86 81.51 C 263.22 80.08 265.54 78.61 267.83 77.09 C 270.24 80.84 271.57 85.14 272.66 89.43 L 272.38 89.70 C 271.51 90.60 270.66 91.51 269.82 92.42 C 267.47 88.32 264.72 84.34 260.86 81.51 Z" />
<path fill="#9a1f98" opacity="1.00" d=" M 310.35 204.75 C 315.14 203.57 317.85 199.14 321.29 196.03 C 319.29 198.97 316.83 201.70 313.80 203.60 C 309.28 206.53 303.63 205.45 298.54 205.89 C 302.47 205.49 306.45 205.45 310.35 204.75 Z" />
</g>
<g id="#2909273a">
<path fill="#290927" opacity="0.23" d=" M 312.39 77.43 C 315.08 77.34 317.01 79.36 318.98 80.90 C 320.45 82.28 322.67 83.45 322.57 85.78 C 319.49 82.63 316.06 79.85 312.39 77.43 Z" />
<path fill="#290927" opacity="0.23" d=" M 296.81 194.61 C 300.67 193.19 304.47 191.62 308.06 189.62 L 309.57 190.10 C 307.29 192.24 303.78 192.87 302.17 195.71 C 299.83 199.40 296.47 203.51 291.57 202.71 C 289.76 201.67 288.49 199.96 287.37 198.25 C 290.17 197.48 294.26 198.18 295.74 195.07 L 296.03 194.95 C 296.29 195.26 296.80 195.87 297.05 196.18 L 297.73 195.86 C 297.50 195.55 297.04 194.92 296.81 194.61 Z" />
</g>
<g id="#b116aeff">
<path fill="#b116ae" opacity="1.00" d=" M 240.07 78.94 C 240.95 78.65 241.82 78.36 242.70 78.06 L 243.55 77.99 C 244.57 78.45 245.59 78.93 246.60 79.42 C 240.88 84.08 235.68 89.39 231.26 95.30 C 230.56 96.15 230.73 97.31 230.54 98.31 C 228.62 99.86 226.73 101.44 224.90 103.09 C 225.07 108.22 227.23 113.57 231.28 116.81 C 235.11 117.71 239.09 117.19 242.98 117.15 L 242.97 118.22 C 235.80 118.29 228.63 118.30 221.46 118.24 C 220.12 117.55 218.81 116.81 217.49 116.08 C 217.38 111.92 219.60 108.28 222.35 105.34 C 225.53 102.24 223.98 97.33 225.89 93.60 C 228.25 93.53 229.46 91.44 230.87 89.87 C 233.92 86.18 238.11 83.73 241.71 80.64 C 241.16 80.08 240.62 79.51 240.07 78.94 Z" />
</g>
<g id="#be24bcff">
<path fill="#be24bc" opacity="1.00" d=" M 243.55 77.99 C 247.95 77.46 252.46 77.54 256.71 78.92 C 258.13 79.71 259.52 80.58 260.86 81.51 C 264.72 84.34 267.47 88.32 269.82 92.42 C 270.66 91.51 271.51 90.60 272.38 89.70 C 272.55 92.56 272.49 95.43 272.05 98.26 C 270.25 97.28 268.37 96.44 266.46 95.72 C 261.52 93.92 256.26 93.03 251.01 93.03 C 244.18 92.88 237.60 95.19 231.60 98.28 L 230.54 98.31 C 230.73 97.31 230.56 96.15 231.26 95.30 C 235.68 89.39 240.88 84.08 246.60 79.42 C 245.59 78.93 244.57 78.45 243.55 77.99 Z" />
</g>
<g id="#a627a4ff">
<path fill="#a627a4" opacity="1.00" d=" M 236.62 80.05 C 237.77 79.68 238.92 79.31 240.07 78.94 C 240.62 79.51 241.16 80.08 241.71 80.64 C 238.11 83.73 233.92 86.18 230.87 89.87 C 229.46 91.44 228.25 93.53 225.89 93.60 C 226.70 91.57 227.47 89.52 228.23 87.46 C 229.96 85.57 231.77 83.74 233.69 82.04 C 234.68 81.40 235.65 80.73 236.62 80.05 Z" />
</g>
<g id="#9a0195ff">
<path fill="#9a0195" opacity="1.00" d=" M 272.66 89.43 C 278.80 83.63 286.85 80.56 295.05 79.09 C 297.87 79.10 300.69 79.27 303.48 79.69 C 305.86 83.59 310.22 85.43 313.44 88.49 C 317.49 92.22 321.67 96.29 323.48 101.63 C 318.88 101.95 314.55 100.22 311.01 97.38 C 312.64 103.30 314.28 109.23 315.03 115.33 C 313.53 115.01 312.02 114.70 310.52 114.37 C 307.04 112.78 303.63 110.98 299.92 109.95 C 294.89 108.89 289.65 107.56 284.55 108.98 C 280.75 105.00 276.79 101.12 272.05 98.26 C 272.49 95.43 272.55 92.56 272.38 89.70 L 272.66 89.43 Z" />
</g>
<g id="#84018bff">
<path fill="#84018b" opacity="1.00" d=" M 303.48 79.69 C 310.47 80.68 317.04 84.01 322.47 88.43 C 324.14 89.49 325.26 92.50 327.57 91.62 C 327.59 91.76 327.63 92.04 327.65 92.18 C 327.74 94.31 329.12 96.01 330.15 97.77 C 333.82 103.71 336.99 110.37 336.71 117.53 C 333.38 116.94 329.78 116.52 326.55 117.72 C 324.84 119.28 323.77 121.39 322.46 123.26 C 320.11 121.34 318.19 118.82 315.38 117.54 C 313.71 116.56 312.12 115.46 310.52 114.37 C 312.02 114.70 313.53 115.01 315.03 115.33 C 314.28 109.23 312.64 103.30 311.01 97.38 C 314.55 100.22 318.88 101.95 323.48 101.63 C 321.67 96.29 317.49 92.22 313.44 88.49 C 310.22 85.43 305.86 83.59 303.48 79.69 Z" />
</g>
<g id="#3b0d3452">
<path fill="#3b0d34" opacity="0.32" d=" M 226.06 89.57 C 227.01 85.92 229.91 82.77 233.69 82.04 C 231.77 83.74 229.96 85.57 228.23 87.46 C 227.69 87.99 226.60 89.04 226.06 89.57 Z" />
</g>
<g id="#800d7aff">
<path fill="#800d7a" opacity="1.00" d=" M 226.06 89.57 C 226.60 89.04 227.69 87.99 228.23 87.46 C 227.47 89.52 226.70 91.57 225.89 93.60 C 223.98 97.33 225.53 102.24 222.35 105.34 C 219.60 108.28 217.38 111.92 217.49 116.08 C 218.81 116.81 220.12 117.55 221.46 118.24 C 219.80 118.23 218.14 118.24 216.49 118.29 L 216.06 118.31 C 215.66 128.64 216.08 138.99 215.44 149.29 C 214.85 139.18 215.56 128.98 214.43 118.88 C 212.89 126.43 211.94 134.07 211.37 141.75 L 211.28 142.68 C 209.31 130.65 211.08 118.33 215.27 106.97 C 218.22 100.78 221.77 94.92 226.06 89.57 Z" />
</g>
<g id="#3f0c395d">
<path fill="#3f0c39" opacity="0.36" d=" M 328.36 92.35 C 331.76 92.46 332.30 96.72 334.84 98.25 C 339.35 99.72 344.07 100.60 348.38 102.65 C 350.05 104.82 350.58 107.65 351.67 110.13 C 351.85 109.59 352.21 108.52 352.39 107.99 C 354.63 115.58 355.31 123.69 354.01 131.51 C 352.65 125.01 353.31 118.24 351.41 111.83 C 347.58 112.28 344.05 110.67 340.65 109.16 C 340.70 109.85 340.76 110.55 340.83 111.24 C 340.08 111.44 339.33 111.65 338.59 111.86 C 338.53 111.64 338.41 111.21 338.35 110.99 C 338.91 109.63 339.12 108.16 338.34 106.84 C 337.26 104.85 336.78 101.90 334.21 101.35 C 332.30 98.32 330.52 95.21 328.36 92.35 Z" />
</g>
<g id="#d01ad0ff">
<path fill="#d01ad0" opacity="1.00" d=" M 231.60 98.28 C 237.60 95.19 244.18 92.88 251.01 93.03 L 250.42 94.12 C 248.77 97.32 247.27 100.60 246.04 103.99 C 242.32 99.93 236.98 98.29 231.60 98.28 Z" />
</g>
<g id="#d137d1ff">
<path fill="#d137d1" opacity="1.00" d=" M 251.01 93.03 C 256.26 93.03 261.52 93.92 266.46 95.72 C 266.01 96.75 265.54 97.79 265.07 98.82 C 264.37 100.21 263.61 101.58 262.91 102.97 C 258.91 99.79 254.51 97.17 250.42 94.12 L 251.01 93.03 Z" />
</g>
<g id="#56015bff">
<path fill="#56015b" opacity="1.00" d=" M 327.65 92.18 L 328.36 92.35 C 330.52 95.21 332.30 98.32 334.21 101.35 C 335.81 104.46 337.18 107.69 338.35 110.99 C 338.41 111.21 338.53 111.64 338.59 111.86 C 339.69 115.66 340.92 119.50 341.00 123.49 C 339.17 128.15 340.26 133.21 339.82 138.07 C 339.12 146.95 336.25 155.62 331.92 163.38 C 331.29 163.36 330.05 163.31 329.42 163.29 C 330.46 158.58 331.25 153.76 330.96 148.93 C 332.29 148.93 333.63 148.92 334.97 148.88 C 334.89 138.74 334.97 128.61 334.94 118.47 C 332.31 118.46 329.69 118.45 327.07 118.41 C 325.59 120.74 324.15 123.09 322.75 125.45 C 322.53 125.19 322.08 124.66 321.86 124.39 C 319.92 121.91 317.69 119.68 315.38 117.54 C 318.19 118.82 320.11 121.34 322.46 123.26 C 323.77 121.39 324.84 119.28 326.55 117.72 C 329.78 116.52 333.38 116.94 336.71 117.53 C 336.99 110.37 333.82 103.71 330.15 97.77 C 329.12 96.01 327.74 94.31 327.65 92.18 Z" />
</g>
<g id="#c71fc5ff">
<path fill="#c71fc5" opacity="1.00" d=" M 246.04 103.99 C 247.27 100.60 248.77 97.32 250.42 94.12 C 254.51 97.17 258.91 99.79 262.91 102.97 C 260.74 107.61 260.09 112.74 259.99 117.81 C 258.56 118.94 257.11 120.05 255.64 121.14 C 255.26 119.83 254.89 118.51 254.53 117.20 C 252.19 116.48 249.59 116.27 247.61 117.98 C 245.27 119.01 246.31 121.87 246.48 123.81 C 245.62 123.77 243.91 123.71 243.05 123.67 C 243.01 121.85 242.97 120.04 242.97 118.22 L 242.98 117.15 C 242.86 112.56 244.44 108.21 246.04 103.99 Z" />
</g>
<g id="#d82dd9ff">
<path fill="#d82dd9" opacity="1.00" d=" M 266.46 95.72 C 268.37 96.44 270.25 97.28 272.05 98.26 C 276.79 101.12 280.75 105.00 284.55 108.98 C 286.38 111.49 287.91 114.22 289.01 117.12 L 289.49 118.29 C 286.45 117.07 283.18 117.18 279.98 117.01 C 277.11 116.97 274.93 114.85 272.37 113.87 C 270.47 113.74 268.59 114.30 266.73 114.66 C 271.32 111.44 276.75 109.99 282.02 108.31 C 279.06 105.37 275.89 102.64 272.44 100.30 C 271.51 102.27 270.69 104.29 270.03 106.37 C 270.30 102.88 267.65 100.63 265.07 98.82 C 265.54 97.79 266.01 96.75 266.46 95.72 Z" />
</g>
<g id="#c914c6ff">
<path fill="#c914c6" opacity="1.00" d=" M 230.54 98.31 L 231.60 98.28 C 236.98 98.29 242.32 99.93 246.04 103.99 C 244.44 108.21 242.86 112.56 242.98 117.15 C 239.09 117.19 235.11 117.71 231.28 116.81 C 227.23 113.57 225.07 108.22 224.90 103.09 C 226.73 101.44 228.62 99.86 230.54 98.31 Z" />
</g>
<g id="#d818d6ff">
<path fill="#d818d6" opacity="1.00" d=" M 265.07 98.82 C 267.65 100.63 270.30 102.88 270.03 106.37 C 269.11 110.24 265.92 112.80 263.16 115.40 C 263.46 115.54 264.05 115.82 264.34 115.96 C 265.39 116.49 266.44 117.02 267.49 117.56 L 266.95 118.33 C 264.88 118.34 262.81 118.30 260.75 118.19 C 260.56 118.09 260.18 117.90 259.99 117.81 C 260.09 112.74 260.74 107.61 262.91 102.97 C 263.61 101.58 264.37 100.21 265.07 98.82 Z" />
</g>
<g id="#c916c6ff">
<path fill="#c916c6" opacity="1.00" d=" M 270.03 106.37 C 270.69 104.29 271.51 102.27 272.44 100.30 C 275.89 102.64 279.06 105.37 282.02 108.31 C 276.75 109.99 271.32 111.44 266.73 114.66 C 265.94 115.10 265.14 115.53 264.34 115.96 C 264.05 115.82 263.46 115.54 263.16 115.40 C 265.92 112.80 269.11 110.24 270.03 106.37 Z" />
</g>
<g id="#2f0a2a3d">
<path fill="#2f0a2a" opacity="0.24" d=" M 334.21 101.35 C 336.78 101.90 337.26 104.85 338.34 106.84 C 339.12 108.16 338.91 109.63 338.35 110.99 C 337.18 107.69 335.81 104.46 334.21 101.35 Z" />
</g>
<g id="#b70fb6ff">
<path fill="#b70fb6" opacity="1.00" d=" M 284.55 108.98 C 289.65 107.56 294.89 108.89 299.92 109.95 C 297.46 111.34 296.45 113.99 295.40 116.45 C 293.27 116.71 291.14 116.93 289.01 117.12 C 287.91 114.22 286.38 111.49 284.55 108.98 Z" />
</g>
<g id="#2f092c45">
<path fill="#2f092c" opacity="0.27" d=" M 340.65 109.16 C 344.05 110.67 347.58 112.28 351.41 111.83 C 353.31 118.24 352.65 125.01 354.01 131.51 C 353.47 138.50 350.80 145.32 347.29 151.36 C 348.19 148.19 349.18 145.04 350.10 141.88 C 348.53 140.64 346.73 139.78 344.80 139.26 C 344.18 139.82 343.56 140.38 342.94 140.94 C 343.66 134.97 343.05 128.94 342.71 122.97 C 342.48 123.24 342.03 123.80 341.80 124.08 L 341.07 124.98 L 341.00 123.49 C 340.92 119.50 339.69 115.66 338.59 111.86 C 339.33 111.65 340.08 111.44 340.83 111.24 C 340.76 110.55 340.70 109.85 340.65 109.16 Z" />
</g>
<g id="#ad02aeff">
<path fill="#ad02ae" opacity="1.00" d=" M 299.92 109.95 C 303.63 110.98 307.04 112.78 310.52 114.37 C 312.12 115.46 313.71 116.56 315.38 117.54 C 317.69 119.68 319.92 121.91 321.86 124.39 C 319.51 124.07 317.87 122.27 316.13 120.86 C 315.30 126.87 317.16 134.14 312.44 138.92 C 311.01 137.58 309.46 136.37 307.85 135.26 C 304.33 129.74 301.21 123.99 297.71 118.46 C 294.97 118.50 292.21 118.64 289.49 118.29 L 289.01 117.12 C 291.14 116.93 293.27 116.71 295.40 116.45 C 296.45 113.99 297.46 111.34 299.92 109.95 Z" />
</g>
<g id="#cd22cdff">
<path fill="#cd22cd" opacity="1.00" d=" M 266.73 114.66 C 268.59 114.30 270.47 113.74 272.37 113.87 C 274.93 114.85 277.11 116.97 279.98 117.01 C 283.18 117.18 286.45 117.07 289.49 118.29 L 289.06 118.83 C 286.85 123.06 281.47 123.14 278.91 126.97 C 275.19 131.09 274.92 136.90 272.77 141.81 C 271.28 141.80 269.79 141.76 268.31 141.71 C 267.63 133.68 268.92 125.53 267.49 117.56 C 266.44 117.02 265.39 116.49 264.34 115.96 C 265.14 115.53 265.94 115.10 266.73 114.66 Z" />
</g>
<g id="#bd0cb9ff">
<path fill="#bd0cb9" opacity="1.00" d=" M 247.61 117.98 C 249.59 116.27 252.19 116.48 254.53 117.20 C 254.89 118.51 255.26 119.83 255.64 121.14 C 257.11 120.05 258.56 118.94 259.99 117.81 C 260.18 117.90 260.56 118.09 260.75 118.19 C 260.83 128.45 260.75 138.71 260.77 148.97 C 268.82 148.84 276.86 149.00 284.91 148.87 C 284.92 147.17 284.93 145.47 284.95 143.78 C 278.89 143.73 272.82 143.58 266.75 143.77 C 266.87 135.29 266.53 126.80 266.95 118.33 L 267.49 117.56 C 268.92 125.53 267.63 133.68 268.31 141.71 C 269.79 141.76 271.28 141.80 272.77 141.81 C 277.36 141.64 281.99 141.53 286.52 142.48 C 286.82 139.65 287.00 136.63 289.04 134.42 C 289.18 139.30 288.82 144.19 289.28 149.05 C 289.47 153.39 285.48 156.19 284.25 160.04 C 285.12 164.24 287.19 168.07 288.58 172.11 C 288.33 172.51 287.81 173.32 287.55 173.72 C 284.34 177.46 284.89 183.74 280.10 186.09 C 278.63 186.81 277.00 187.98 275.30 187.49 C 274.07 186.75 273.14 185.62 272.13 184.63 C 273.17 184.44 274.22 184.24 275.28 184.05 C 275.66 179.16 271.80 175.59 270.54 171.14 C 269.83 168.76 268.48 166.66 267.08 164.65 C 267.56 160.15 268.52 155.73 269.52 151.33 C 266.63 150.90 263.59 151.00 260.81 150.05 C 258.48 148.95 259.10 146.11 258.96 144.02 C 259.14 136.33 258.69 128.64 258.92 120.94 C 257.93 121.52 256.94 122.10 255.99 122.73 C 255.39 122.69 254.21 122.60 253.62 122.55 C 253.66 121.14 253.68 119.73 253.70 118.32 C 251.66 118.28 249.63 118.19 247.61 117.98 Z" />
</g>
<g id="#000000ff">
<path fill="#000000" opacity="1.00" d=" M 5.22 118.00 C 7.45 118.14 9.70 118.19 11.93 118.07 C 16.42 126.17 20.52 134.51 24.47 142.89 C 24.76 142.94 25.35 143.03 25.65 143.08 C 26.44 140.34 28.27 138.09 29.59 135.61 C 33.14 129.80 36.26 123.72 40.07 118.08 C 41.96 118.16 43.85 118.11 45.74 118.00 C 39.87 128.42 33.55 138.57 27.70 149.00 C 25.66 149.03 23.61 149.00 21.57 148.92 C 16.17 138.59 10.61 128.34 5.22 118.00 Z" />
<path fill="#000000" opacity="1.00" d=" M 49.28 118.22 C 51.21 118.15 53.15 118.11 55.08 118.09 C 55.10 128.39 55.08 138.69 55.08 149.00 C 53.15 149.01 51.22 148.99 49.29 148.95 C 49.40 138.71 49.40 128.47 49.28 118.22 Z" />
<path fill="#000000" opacity="1.00" d=" M 79.28 118.05 C 81.43 118.18 83.60 118.17 85.76 118.05 C 91.53 128.22 96.43 138.88 102.16 149.08 C 99.84 149.00 97.53 148.98 95.22 149.00 C 93.66 146.43 92.86 143.31 90.89 141.04 C 84.69 140.90 78.48 141.07 72.28 140.97 C 70.55 143.53 69.15 146.29 67.66 148.99 C 65.29 148.99 62.92 149.01 60.55 149.05 C 66.79 138.72 72.72 128.17 79.28 118.05 M 74.94 135.89 C 79.52 135.82 84.09 135.74 88.66 135.95 C 86.63 131.58 84.36 127.32 82.31 122.95 C 79.80 127.23 77.48 131.62 74.94 135.89 Z" />
<path fill="#000000" opacity="1.00" d=" M 104.69 124.70 C 106.21 120.94 110.24 119.13 113.92 118.20 C 121.58 116.57 129.85 117.80 136.63 121.73 C 135.60 123.17 134.59 124.63 133.65 126.13 C 128.18 123.53 121.98 122.25 115.94 123.15 C 113.53 123.62 110.54 124.91 110.52 127.79 C 111.00 129.21 112.62 129.65 113.92 129.92 C 120.16 131.04 126.83 130.34 132.67 133.18 C 134.54 134.49 136.50 136.46 136.11 138.96 C 136.14 145.19 129.66 149.04 124.10 149.72 C 116.70 150.54 108.17 149.74 102.52 144.35 C 103.82 142.91 105.12 141.47 106.42 140.03 C 111.48 144.31 118.64 145.59 125.01 144.10 C 127.02 143.69 128.96 142.58 129.98 140.76 C 130.63 138.56 128.37 137.02 126.48 136.72 C 120.46 135.41 114.00 136.33 108.23 133.84 C 104.71 132.54 102.97 128.03 104.69 124.70 Z" />
<path fill="#000000" opacity="1.00" d=" M 155.19 118.05 C 157.38 118.18 159.58 118.16 161.77 118.07 C 167.39 128.31 172.40 138.89 178.10 149.09 C 175.81 149.00 173.52 148.98 171.23 149.02 C 169.63 146.42 168.66 143.48 166.92 140.96 C 160.70 141.02 154.48 141.01 148.25 140.97 C 146.45 143.49 145.09 146.27 143.60 148.97 C 141.25 149.02 138.90 149.02 136.55 148.95 C 142.73 138.64 148.67 128.15 155.19 118.05 M 150.83 135.88 C 155.41 135.83 159.99 135.73 164.57 135.96 C 162.55 131.57 160.30 127.30 158.21 122.95 C 155.75 127.26 153.41 131.64 150.83 135.88 Z" />
<path fill="#000000" opacity="1.00" d=" M 175.02 118.33 C 185.31 118.41 195.61 118.30 205.90 118.38 C 205.93 120.12 205.91 121.85 205.88 123.59 C 201.59 123.63 197.30 123.53 193.01 123.66 C 193.25 132.10 193.06 140.55 193.12 149.00 C 191.17 149.01 189.22 149.00 187.27 148.96 C 187.45 140.51 187.21 132.06 187.41 123.61 C 183.28 123.58 179.15 123.59 175.02 123.62 C 175.00 121.86 175.00 120.09 175.02 118.33 Z" />
</g>
<g id="#951190ff">
<path fill="#951190" opacity="1.00" d=" M 216.06 118.31 L 216.49 118.29 C 216.57 128.50 216.45 138.72 216.51 148.94 C 217.32 148.94 218.96 148.95 219.78 148.96 C 217.11 152.63 221.47 155.60 222.40 159.05 C 223.87 164.27 224.04 170.71 228.95 174.10 C 235.78 180.60 243.52 186.58 252.60 189.49 C 257.61 190.33 262.83 190.62 267.23 193.47 C 264.66 194.30 262.06 195.02 259.44 195.68 C 234.61 189.53 214.31 167.26 211.37 141.75 C 211.94 134.07 212.89 126.43 214.43 118.88 C 215.56 128.98 214.85 139.18 215.44 149.29 C 216.08 138.99 215.66 128.64 216.06 118.31 Z" />
</g>
<g id="#ffffffff">
<path fill="#ffffff" opacity="1.00" d=" M 216.49 118.29 C 218.14 118.24 219.80 118.23 221.46 118.24 C 228.63 118.30 235.80 118.29 242.97 118.22 C 242.97 120.04 243.01 121.85 243.05 123.67 C 236.09 123.47 229.14 123.49 222.19 123.56 C 222.33 126.16 222.33 128.77 222.20 131.37 C 228.76 131.44 235.32 131.42 241.88 131.39 L 242.00 131.93 C 242.02 133.51 241.99 135.10 241.97 136.68 C 239.18 136.68 236.38 136.68 233.59 136.69 C 229.80 136.72 226.02 136.71 222.25 136.73 C 222.38 140.62 222.38 144.52 222.45 148.41 C 221.73 149.01 220.84 149.20 219.78 148.96 C 218.96 148.95 217.32 148.94 216.51 148.94 C 216.45 138.72 216.57 128.50 216.49 118.29 Z" />
<path fill="#ffffff" opacity="1.00" d=" M 247.61 117.98 C 249.63 118.19 251.66 118.28 253.70 118.32 C 253.68 119.73 253.66 121.14 253.62 122.55 C 253.61 123.17 253.60 124.42 253.59 125.04 C 253.60 132.98 253.54 140.92 253.65 148.87 C 251.67 148.91 249.69 148.94 247.72 149.00 C 247.71 145.25 247.64 141.49 247.74 137.74 C 247.87 131.15 247.85 124.57 247.61 117.98 Z" />
<path fill="#ffffff" opacity="1.00" d=" M 289.49 118.29 C 292.21 118.64 294.97 118.50 297.71 118.46 C 301.21 123.99 304.33 129.74 307.85 135.26 C 309.29 137.72 310.69 140.22 312.11 142.70 C 315.75 137.01 319.25 131.23 322.75 125.45 C 324.15 123.09 325.59 120.74 327.07 118.41 C 329.69 118.45 332.31 118.46 334.94 118.47 C 334.97 128.61 334.89 138.74 334.97 148.88 C 333.63 148.92 332.29 148.93 330.96 148.93 C 330.47 148.88 329.50 148.78 329.02 148.74 C 329.16 144.96 329.19 141.18 329.14 137.40 C 329.13 133.17 329.07 128.94 329.34 124.71 C 327.64 127.07 326.24 129.62 324.74 132.10 C 321.27 137.67 317.84 143.26 314.41 148.85 C 313.80 148.87 312.57 148.91 311.95 148.92 C 311.28 148.94 309.94 148.96 309.27 148.98 C 304.34 140.96 299.71 132.75 294.69 124.78 C 295.11 132.79 294.73 140.81 294.95 148.83 C 293.06 148.90 291.17 148.96 289.28 149.05 C 288.82 144.19 289.18 139.30 289.04 134.42 C 289.11 129.22 289.02 124.03 289.06 118.83 L 289.49 118.29 Z" />
<path fill="#ffffff" opacity="1.00" d=" M 260.75 118.19 C 262.81 118.30 264.88 118.34 266.95 118.33 C 266.53 126.80 266.87 135.29 266.75 143.77 C 272.82 143.58 278.89 143.73 284.95 143.78 C 284.93 145.47 284.92 147.17 284.91 148.87 C 276.86 149.00 268.82 148.84 260.77 148.97 C 260.75 138.71 260.83 128.45 260.75 118.19 Z" />
</g>
<g id="#a90aa4ff">
<path fill="#a90aa4" opacity="1.00" d=" M 246.48 123.81 C 246.31 121.87 245.27 119.01 247.61 117.98 C 247.85 124.57 247.87 131.15 247.74 137.74 C 247.14 139.64 246.30 141.46 245.42 143.25 C 244.13 139.53 242.92 135.77 242.00 131.93 L 241.88 131.39 L 241.59 130.12 C 235.78 129.20 229.89 130.37 224.05 129.84 C 224.03 128.29 224.02 126.75 224.01 125.20 C 229.93 125.05 235.85 124.98 241.77 125.26 C 242.26 126.81 242.74 128.37 243.22 129.92 C 244.53 129.98 245.86 130.04 247.18 130.10 C 247.68 127.94 247.39 125.81 246.48 123.81 Z" />
</g>
<g id="#c50ec5ff">
<path fill="#c50ec5" opacity="1.00" d=" M 278.91 126.97 C 281.47 123.14 286.85 123.06 289.06 118.83 C 289.02 124.03 289.11 129.22 289.04 134.42 C 287.00 136.63 286.82 139.65 286.52 142.48 C 281.99 141.53 277.36 141.64 272.77 141.81 C 274.92 136.90 275.19 131.09 278.91 126.97 Z" />
</g>
<g id="#c826c6ff">
<path fill="#c826c6" opacity="1.00" d=" M 255.99 122.73 C 256.94 122.10 257.93 121.52 258.92 120.94 C 258.69 128.64 259.14 136.33 258.96 144.02 C 259.10 146.11 258.48 148.95 260.81 150.05 C 263.59 151.00 266.63 150.90 269.52 151.33 C 268.52 155.73 267.56 160.15 267.08 164.65 C 266.11 165.73 265.14 166.82 264.17 167.91 C 261.80 166.38 259.44 164.82 257.37 162.91 C 253.77 158.54 251.08 153.54 247.72 149.00 C 249.69 148.94 251.67 148.91 253.65 148.87 C 253.54 140.92 253.60 132.98 253.59 125.04 C 254.67 124.61 255.47 123.84 255.99 122.73 Z" />
</g>
<g id="#92029aff">
<path fill="#92029a" opacity="1.00" d=" M 316.13 120.86 C 317.87 122.27 319.51 124.07 321.86 124.39 C 322.08 124.66 322.53 125.19 322.75 125.45 C 319.25 131.23 315.75 137.01 312.11 142.70 C 310.69 140.22 309.29 137.72 307.85 135.26 C 309.46 136.37 311.01 137.58 312.44 138.92 C 317.16 134.14 315.30 126.87 316.13 120.86 Z" />
</g>
<g id="#8f0084ff">
<path fill="#8f0084" opacity="1.00" d=" M 253.62 122.55 C 254.21 122.60 255.39 122.69 255.99 122.73 C 255.47 123.84 254.67 124.61 253.59 125.04 C 253.60 124.42 253.61 123.17 253.62 122.55 Z" />
</g>
<g id="#0c030b0d">
<path fill="#0c030b" opacity="0.05" d=" M 342.71 122.97 C 343.05 128.94 343.66 134.97 342.94 140.94 C 342.21 144.43 341.75 148.00 340.41 151.32 L 339.45 149.97 C 339.63 149.29 339.99 147.92 340.17 147.24 C 341.14 146.22 341.39 145.03 340.93 143.68 C 340.98 143.34 341.07 142.66 341.11 142.31 C 342.58 136.35 342.03 130.15 341.80 124.08 C 342.03 123.80 342.48 123.24 342.71 122.97 Z" />
</g>
<g id="#9e0c97ff">
<path fill="#9e0c97" opacity="1.00" d=" M 222.19 123.56 C 229.14 123.49 236.09 123.47 243.05 123.67 C 243.91 123.71 245.62 123.77 246.48 123.81 C 247.39 125.81 247.68 127.94 247.18 130.10 C 245.86 130.04 244.53 129.98 243.22 129.92 C 242.74 128.37 242.26 126.81 241.77 125.26 C 235.85 124.98 229.93 125.05 224.01 125.20 C 224.02 126.75 224.03 128.29 224.05 129.84 C 229.89 130.37 235.78 129.20 241.59 130.12 L 241.88 131.39 C 235.32 131.42 228.76 131.44 222.20 131.37 C 222.33 128.77 222.33 126.16 222.19 123.56 Z" />
</g>
<g id="#38023df6">
<path fill="#38023d" opacity="0.96" d=" M 339.82 138.07 C 340.26 133.21 339.17 128.15 341.00 123.49 L 341.07 124.98 C 341.57 130.76 341.01 136.53 341.11 142.31 C 341.07 142.66 340.98 143.34 340.93 143.68 C 339.78 144.67 339.53 145.86 340.17 147.24 C 339.99 147.92 339.63 149.29 339.45 149.97 C 339.12 151.07 338.76 152.15 338.44 153.25 C 336.86 158.23 334.50 162.94 331.70 167.34 C 331.64 167.43 331.52 167.62 331.45 167.72 C 331.02 168.36 330.14 169.65 329.70 170.29 C 329.63 170.39 329.50 170.58 329.43 170.67 C 328.20 172.36 326.82 173.93 325.45 175.50 C 325.26 175.19 324.87 174.55 324.68 174.23 C 326.32 171.87 328.43 169.53 328.33 166.46 C 328.69 165.40 329.08 164.35 329.42 163.29 C 330.05 163.31 331.29 163.36 331.92 163.38 C 336.25 155.62 339.12 146.95 339.82 138.07 Z" />
</g>
<g id="#520b51ac">
<path fill="#520b51" opacity="0.67" d=" M 341.07 124.98 L 341.80 124.08 C 342.03 130.15 342.58 136.35 341.11 142.31 C 341.01 136.53 341.57 130.76 341.07 124.98 Z" />
</g>
<g id="#a906a3ff">
<path fill="#a906a3" opacity="1.00" d=" M 294.69 124.78 C 299.71 132.75 304.34 140.96 309.27 148.98 C 309.94 148.96 311.28 148.94 311.95 148.92 C 309.99 154.89 306.92 160.37 303.76 165.77 L 303.29 165.82 C 297.87 166.35 292.51 168.21 288.58 172.11 C 287.19 168.07 285.12 164.24 284.25 160.04 C 285.48 156.19 289.47 153.39 289.28 149.05 C 291.17 148.96 293.06 148.90 294.95 148.83 C 294.73 140.81 295.11 132.79 294.69 124.78 Z" />
</g>
<g id="#63076bff">
<path fill="#63076b" opacity="1.00" d=" M 324.74 132.10 C 326.24 129.62 327.64 127.07 329.34 124.71 C 329.07 128.94 329.13 133.17 329.14 137.40 C 328.49 135.62 327.72 133.88 326.96 132.14 C 326.22 132.12 325.48 132.11 324.74 132.10 Z" />
</g>
<g id="#c80ec6ff">
<path fill="#c80ec6" opacity="1.00" d=" M 242.00 131.93 C 242.92 135.77 244.13 139.53 245.42 143.25 C 246.30 141.46 247.14 139.64 247.74 137.74 C 247.64 141.49 247.71 145.25 247.72 149.00 C 246.87 148.45 246.01 147.92 245.15 147.40 C 244.86 157.14 247.04 167.06 252.41 175.28 C 250.12 175.11 247.82 175.09 245.52 175.16 C 245.05 176.37 244.59 177.58 244.12 178.79 C 238.35 175.54 233.91 170.44 228.38 166.82 C 226.29 164.20 223.49 161.66 223.56 158.01 C 222.31 150.64 227.08 144.38 231.28 138.89 C 232.03 138.14 232.80 137.41 233.59 136.69 C 236.38 136.68 239.18 136.68 241.97 136.68 C 241.99 135.10 242.02 133.51 242.00 131.93 Z" />
</g>
<g id="#78027fff">
<path fill="#78027f" opacity="1.00" d=" M 314.41 148.85 C 317.84 143.26 321.27 137.67 324.74 132.10 C 325.48 132.11 326.22 132.12 326.96 132.14 C 327.72 133.88 328.49 135.62 329.14 137.40 C 329.19 141.18 329.16 144.96 329.02 148.74 C 329.50 148.78 330.47 148.88 330.96 148.93 C 331.25 153.76 330.46 158.58 329.42 163.29 C 329.08 164.35 328.69 165.40 328.33 166.46 C 325.45 168.84 322.70 171.38 319.70 173.61 C 315.63 169.06 309.97 165.85 303.76 165.77 C 306.92 160.37 309.99 154.89 311.95 148.92 C 312.57 148.91 313.80 148.87 314.41 148.85 Z" />
</g>
<g id="#a1019bff">
<path fill="#a1019b" opacity="1.00" d=" M 222.25 136.73 C 226.02 136.71 229.80 136.72 233.59 136.69 C 232.80 137.41 232.03 138.14 231.28 138.89 C 228.94 138.51 226.57 138.28 224.21 138.12 C 223.65 141.53 224.47 145.41 222.45 148.41 C 222.38 144.52 222.38 140.62 222.25 136.73 Z" />
</g>
<g id="#b214aeff">
<path fill="#b214ae" opacity="1.00" d=" M 224.21 138.12 C 226.57 138.28 228.94 138.51 231.28 138.89 C 227.08 144.38 222.31 150.64 223.56 158.01 C 223.49 161.66 226.29 164.20 228.38 166.82 C 228.77 168.21 229.08 169.71 230.21 170.73 C 237.97 178.97 247.92 185.24 258.93 188.05 C 260.94 188.63 262.97 187.57 265.00 187.91 C 267.76 188.75 270.32 190.13 272.98 191.26 C 271.09 192.07 269.16 192.79 267.23 193.47 C 262.83 190.62 257.61 190.33 252.60 189.49 C 243.52 186.58 235.78 180.60 228.95 174.10 C 224.04 170.71 223.87 164.27 222.40 159.05 C 221.47 155.60 217.11 152.63 219.78 148.96 C 220.84 149.20 221.73 149.01 222.45 148.41 C 224.47 145.41 223.65 141.53 224.21 138.12 Z" />
</g>
<g id="#1c051a28">
<path fill="#1c051a" opacity="0.16" d=" M 342.94 140.94 C 343.56 140.38 344.18 139.82 344.80 139.26 C 346.73 139.78 348.53 140.64 350.10 141.88 C 349.18 145.04 348.19 148.19 347.29 151.36 C 344.47 157.81 339.18 162.96 333.75 167.31 C 335.37 162.68 339.81 158.42 338.44 153.25 C 338.76 152.15 339.12 151.07 339.45 149.97 L 340.41 151.32 C 341.75 148.00 342.21 144.43 342.94 140.94 Z" />
</g>
<g id="#4a0c4882">
<path fill="#4a0c48" opacity="0.51" d=" M 340.17 147.24 C 339.53 145.86 339.78 144.67 340.93 143.68 C 341.39 145.03 341.14 146.22 340.17 147.24 Z" />
</g>
<g id="#d426d3ff">
<path fill="#d426d3" opacity="1.00" d=" M 245.15 147.40 C 246.01 147.92 246.87 148.45 247.72 149.00 C 251.08 153.54 253.77 158.54 257.37 162.91 C 257.14 166.47 256.65 170.01 256.37 173.57 C 259.31 176.31 260.37 180.22 260.99 184.06 C 257.59 181.72 254.76 178.65 252.41 175.28 C 247.04 167.06 244.86 157.14 245.15 147.40 Z" />
</g>
<g id="#c833dbff">
<path fill="#c833db" opacity="1.00" d=" M 100.00 157.88 C 102.05 157.85 104.10 157.83 106.15 157.83 C 106.19 161.74 106.00 165.66 106.19 169.57 C 111.56 169.39 116.95 169.76 122.32 169.39 C 122.08 165.55 122.32 161.71 122.06 157.88 C 124.10 157.85 126.14 157.83 128.18 157.83 C 128.13 167.25 128.14 176.67 128.18 186.10 C 126.15 186.09 124.13 186.08 122.11 186.07 C 122.23 182.07 122.23 178.07 122.17 174.07 C 116.81 174.25 111.45 174.07 106.08 174.19 C 106.12 178.16 106.13 182.13 106.14 186.09 C 104.10 186.09 102.06 186.08 100.02 186.07 C 100.19 176.68 100.22 167.27 100.00 157.88 Z" />
<path fill="#c833db" opacity="1.00" d=" M 137.01 157.88 C 139.03 157.85 141.05 157.83 143.08 157.83 C 143.06 167.25 143.07 176.67 143.08 186.10 C 141.07 186.09 139.06 186.08 137.05 186.07 C 137.19 176.68 137.27 167.27 137.01 157.88 Z" />
<path fill="#c833db" opacity="1.00" d=" M 149.72 157.84 C 158.84 157.85 167.97 157.86 177.10 157.84 C 177.10 159.38 177.10 160.92 177.11 162.46 C 173.56 162.51 169.99 162.23 166.45 162.54 C 166.32 170.34 166.41 178.25 166.45 186.09 C 164.40 186.09 162.35 186.09 160.31 186.07 C 160.56 178.25 160.16 170.41 160.53 162.59 C 156.94 162.20 153.31 162.53 149.71 162.44 C 149.71 160.90 149.72 159.37 149.72 157.84 Z" />
<path fill="#c833db" opacity="1.00" d=" M 184.84 159.77 C 191.09 155.75 199.51 157.20 205.60 160.89 C 204.45 162.16 203.35 163.47 202.31 164.83 C 198.66 162.45 193.81 160.77 189.59 162.55 C 187.19 163.36 187.00 166.70 189.25 167.86 C 194.25 170.06 200.28 169.68 204.70 173.26 C 208.01 176.63 206.64 182.57 202.55 184.64 C 195.44 188.26 186.60 186.38 180.22 182.06 C 181.53 180.88 182.78 179.64 183.96 178.33 C 187.09 180.80 191.04 182.32 195.07 182.04 C 197.51 182.18 200.67 180.97 200.77 178.12 C 200.00 175.54 197.09 175.20 194.89 174.57 C 190.28 173.51 184.86 172.95 182.03 168.62 C 181.24 165.42 181.83 161.62 184.84 159.77 Z" />
</g>
<g id="#cc16c9ff">
<path fill="#cc16c9" opacity="1.00" d=" M 257.37 162.91 C 259.44 164.82 261.80 166.38 264.17 167.91 C 265.14 166.82 266.11 165.73 267.08 164.65 C 268.48 166.66 269.83 168.76 270.54 171.14 C 271.80 175.59 275.66 179.16 275.28 184.05 C 274.22 184.24 273.17 184.44 272.13 184.63 C 273.14 185.62 274.07 186.75 275.30 187.49 C 277.00 187.98 278.63 186.81 280.10 186.09 C 284.89 183.74 284.34 177.46 287.55 173.72 C 287.04 176.01 286.79 178.35 286.58 180.68 C 288.26 180.25 289.94 179.81 291.60 179.30 C 289.62 180.91 287.69 182.57 285.66 184.10 C 284.85 184.65 284.02 185.17 283.19 185.69 C 280.34 187.46 277.44 189.14 274.43 190.60 C 274.07 190.76 273.34 191.10 272.98 191.26 C 270.32 190.13 267.76 188.75 265.00 187.91 C 262.97 187.57 260.94 188.63 258.93 188.05 C 247.92 185.24 237.97 178.97 230.21 170.73 C 229.08 169.71 228.77 168.21 228.38 166.82 C 233.91 170.44 238.35 175.54 244.12 178.79 C 244.59 177.58 245.05 176.37 245.52 175.16 C 247.82 175.09 250.12 175.11 252.41 175.28 C 254.76 178.65 257.59 181.72 260.99 184.06 C 260.37 180.22 259.31 176.31 256.37 173.57 C 256.65 170.01 257.14 166.47 257.37 162.91 Z" />
</g>
<g id="#b81eb4ff">
<path fill="#b81eb4" opacity="1.00" d=" M 288.58 172.11 C 292.51 168.21 297.87 166.35 303.29 165.82 C 300.09 170.85 296.20 175.49 291.60 179.30 C 289.94 179.81 288.26 180.25 286.58 180.68 C 286.79 178.35 287.04 176.01 287.55 173.72 C 287.81 173.32 288.33 172.51 288.58 172.11 Z" />
</g>
<g id="#891391ff">
<path fill="#891391" opacity="1.00" d=" M 303.29 165.82 L 303.76 165.77 C 309.97 165.85 315.63 169.06 319.70 173.61 C 319.82 173.77 320.06 174.10 320.17 174.27 C 315.55 176.56 311.35 179.65 306.57 181.64 C 303.30 183.06 299.87 184.06 296.54 185.33 C 292.88 185.30 289.22 184.96 285.66 184.10 C 287.69 182.57 289.62 180.91 291.60 179.30 C 296.20 175.49 300.09 170.85 303.29 165.82 Z" />
</g>
<g id="#4c0353f4">
<path fill="#4c0353" opacity="0.96" d=" M 319.70 173.61 C 322.70 171.38 325.45 168.84 328.33 166.46 C 328.43 169.53 326.32 171.87 324.68 174.23 C 324.87 174.55 325.26 175.19 325.45 175.50 L 325.53 175.64 C 323.14 178.17 320.93 180.94 317.99 182.89 C 318.92 180.73 320.34 178.85 321.93 177.13 C 321.35 176.17 320.77 175.21 320.17 174.27 C 320.06 174.10 319.82 173.77 319.70 173.61 Z" />
</g>
<g id="#560e558f">
<path fill="#560e55" opacity="0.56" d=" M 331.45 167.72 C 331.52 167.62 331.64 167.43 331.70 167.34 C 331.64 167.43 331.52 167.62 331.45 167.72 Z" />
</g>
<g id="#510c5078">
<path fill="#510c50" opacity="0.47" d=" M 329.43 170.67 C 329.50 170.58 329.63 170.39 329.70 170.29 C 329.63 170.39 329.50 170.58 329.43 170.67 Z" />
</g>
<g id="#6f167bff">
<path fill="#6f167b" opacity="1.00" d=" M 306.57 181.64 C 311.35 179.65 315.55 176.56 320.17 174.27 C 320.77 175.21 321.35 176.17 321.93 177.13 C 320.34 178.85 318.92 180.73 317.99 182.89 C 315.69 185.10 312.92 186.85 310.18 188.49 C 309.47 188.86 308.76 189.24 308.06 189.62 C 304.47 191.62 300.67 193.19 296.81 194.61 L 296.03 194.95 L 295.74 195.07 C 292.84 196.02 289.81 196.47 286.90 197.37 L 286.56 196.90 C 285.68 195.71 284.84 194.51 284.14 193.22 L 283.90 191.98 C 287.93 189.39 292.81 188.43 296.54 185.33 C 299.87 184.06 303.30 183.06 306.57 181.64 Z" />
</g>
<g id="#340b314c">
<path fill="#340b31" opacity="0.30" d=" M 311.90 188.76 C 315.98 186.31 319.58 183.15 322.98 179.85 C 324.75 184.96 324.44 190.81 321.85 195.60 L 321.29 196.03 C 317.85 199.14 315.14 203.57 310.35 204.75 C 306.45 205.45 302.47 205.49 298.54 205.89 C 295.94 205.71 293.74 204.00 291.57 202.71 C 296.47 203.51 299.83 199.40 302.17 195.71 C 303.78 192.87 307.29 192.24 309.57 190.10 L 308.06 189.62 C 308.76 189.24 309.47 188.86 310.18 188.49 C 310.61 188.56 311.47 188.69 311.90 188.76 Z" />
</g>
<g id="#7e1e94ff">
<path fill="#7e1e94" opacity="1.00" d=" M 283.19 185.69 C 284.02 185.17 284.85 184.65 285.66 184.10 C 289.22 184.96 292.88 185.30 296.54 185.33 C 292.81 188.43 287.93 189.39 283.90 191.98 C 283.59 189.89 283.38 187.79 283.19 185.69 Z" />
</g>
<g id="#61027dff">
<path fill="#61027d" opacity="1.00" d=" M 274.43 190.60 C 277.44 189.14 280.34 187.46 283.19 185.69 C 283.38 187.79 283.59 189.89 283.90 191.98 L 284.14 193.22 C 280.97 193.50 277.78 193.27 274.65 192.68 C 274.60 192.16 274.49 191.12 274.43 190.60 Z" />
</g>
<g id="#48015bff">
<path fill="#48015b" opacity="1.00" d=" M 272.98 191.26 C 273.34 191.10 274.07 190.76 274.43 190.60 C 274.49 191.12 274.60 192.16 274.65 192.68 C 277.78 193.27 280.97 193.50 284.14 193.22 C 284.84 194.51 285.68 195.71 286.56 196.90 C 277.62 198.71 268.21 198.10 259.44 195.68 C 262.06 195.02 264.66 194.30 267.23 193.47 C 269.16 192.79 271.09 192.07 272.98 191.26 Z" />
</g>
</svg>
