<?xml version="1.0" encoding="UTF-8" ?>
<!DOCTYPE svg PUBLIC "-//W3C//DTD SVG 1.1//EN" "http://www.w3.org/Graphics/SVG/1.1/DTD/svg11.dtd">
<svg width="360pt" height="270pt" viewBox="0 0 360 270" version="1.1" xmlns="http://www.w3.org/2000/svg">
<g id="#139ab2ff">
<path fill="#139ab2" opacity="1.00" d=" M 38.61 79.29 C 55.16 72.86 74.72 74.20 89.97 83.40 C 87.64 83.52 85.26 83.53 83.03 84.31 C 76.29 84.60 69.70 86.29 63.17 87.90 C 55.99 82.63 47.19 80.85 38.61 79.29 Z" />
<path fill="#139ab2" opacity="1.00" d=" M 77.63 101.02 C 85.59 99.36 93.76 99.92 101.79 98.88 C 102.32 99.13 103.37 99.62 103.90 99.87 C 105.50 99.94 107.09 99.99 108.69 100.05 C 117.25 112.14 121.37 127.37 119.46 142.11 C 117.35 161.21 105.24 178.86 88.18 187.70 C 90.29 183.00 93.28 178.70 94.70 173.70 C 96.73 166.84 97.98 159.70 98.02 152.53 C 101.90 147.62 103.34 140.48 100.08 134.87 C 95.97 127.83 88.29 123.83 80.86 121.17 C 82.41 119.78 84.62 118.44 84.32 116.02 C 84.08 111.95 84.72 106.79 81.13 103.94 C 80.01 102.91 78.81 101.98 77.63 101.02 Z" />
<path fill="#139ab2" opacity="1.00" d=" M 134.56 151.44 C 176.90 151.54 219.23 151.40 261.56 151.45 C 261.88 153.52 262.17 155.60 262.57 157.66 C 262.21 157.09 261.50 155.96 261.14 155.39 C 258.42 155.42 255.71 155.43 252.99 155.45 C 253.37 155.97 254.14 157.01 254.52 157.52 C 252.63 160.57 252.11 164.12 251.93 167.65 C 251.53 167.53 250.73 167.29 250.34 167.17 C 250.39 165.57 250.45 163.98 250.50 162.39 C 247.26 161.87 242.81 163.92 240.44 161.02 C 244.44 160.72 248.46 160.82 252.48 160.89 C 252.36 159.04 252.18 157.20 252.07 155.35 C 246.15 155.52 240.22 155.46 234.30 155.43 C 234.30 161.67 234.36 167.91 234.26 174.15 C 240.39 174.31 246.53 174.19 252.67 174.28 C 252.71 172.53 252.75 170.79 252.79 169.06 L 253.55 169.09 C 253.40 171.43 254.51 176.04 251.04 176.13 C 244.99 176.48 238.85 176.82 232.86 175.74 C 234.02 176.57 235.17 177.41 236.33 178.25 C 202.40 178.29 168.48 178.23 134.55 178.27 C 134.59 169.33 134.57 160.38 134.56 151.44 M 140.16 155.49 C 140.10 161.70 140.16 167.92 140.13 174.13 C 142.40 174.14 144.67 174.14 146.95 174.15 C 146.95 171.93 146.95 169.72 146.95 167.51 C 149.43 167.50 151.91 167.49 154.39 167.46 C 154.35 169.65 154.31 171.85 154.27 174.04 C 156.59 174.11 158.91 174.17 161.23 174.16 C 161.25 167.96 161.20 161.75 161.26 155.55 C 158.98 155.53 156.71 155.48 154.44 155.40 C 154.36 157.69 154.28 159.98 154.35 162.27 C 151.89 162.25 149.43 162.25 146.97 162.25 C 146.97 159.98 146.92 157.71 146.85 155.45 C 144.62 155.50 142.39 155.51 140.16 155.49 M 171.49 155.63 C 164.70 156.47 161.63 165.20 165.55 170.49 C 169.25 175.23 176.36 175.21 181.61 173.53 C 187.98 171.37 189.22 161.83 184.17 157.71 C 180.63 154.93 175.73 154.90 171.49 155.63 M 192.48 157.54 C 187.57 161.11 187.93 169.74 193.23 172.78 C 197.59 175.33 202.95 174.69 207.57 173.30 C 207.23 171.66 206.91 170.02 206.63 168.38 C 203.88 169.08 200.95 169.75 198.17 168.86 C 195.55 167.37 195.45 162.62 198.01 161.01 C 200.85 159.95 203.92 160.72 206.81 161.18 C 206.96 159.39 207.14 157.61 207.34 155.83 C 202.42 154.94 196.78 154.47 192.48 157.54 M 224.36 155.45 C 222.52 157.68 220.73 159.97 218.92 162.23 C 218.38 162.25 217.32 162.29 216.78 162.31 C 216.80 160.02 216.81 157.74 216.82 155.46 C 214.48 155.48 212.14 155.50 209.81 155.51 C 209.84 161.73 209.82 167.94 209.82 174.16 C 212.15 174.18 214.48 174.19 216.81 174.21 C 216.80 171.86 216.78 169.52 216.74 167.18 C 220.56 167.06 221.75 171.88 224.13 174.17 C 227.06 174.20 229.99 174.22 232.92 174.25 C 230.24 170.95 227.60 167.63 224.76 164.47 C 227.15 161.37 230.04 158.68 232.26 155.44 C 229.63 155.45 226.99 155.47 224.36 155.45 Z" />
<path fill="#139ab2" opacity="1.00" d=" M 172.27 161.31 C 174.18 160.10 176.76 160.22 178.76 161.13 C 180.76 163.19 180.72 167.51 178.01 168.98 C 175.69 169.55 172.37 169.68 171.37 167.00 C 171.08 165.10 170.78 162.80 172.27 161.31 Z" />
</g>
<g id="#05b8cbff">
<path fill="#05b8cb" opacity="1.00" d=" M 18.85 91.78 C 24.60 86.46 31.25 82.04 38.61 79.29 C 47.19 80.85 55.99 82.63 63.17 87.90 C 55.74 89.95 48.62 93.02 41.82 96.63 C 42.92 95.28 44.03 93.94 45.16 92.62 C 36.45 91.21 27.63 91.79 18.85 91.78 Z" />
<path fill="#05b8cb" opacity="1.00" d=" M 16.37 124.10 C 16.77 124.03 17.56 123.89 17.96 123.82 C 19.40 124.01 20.86 124.19 22.31 124.38 C 35.65 126.47 48.93 129.12 62.00 132.55 C 70.23 134.69 78.88 136.61 85.68 142.04 C 82.41 145.27 78.38 147.51 74.33 149.61 C 57.04 156.26 38.58 161.30 19.89 159.94 C 16.06 150.20 13.71 139.57 15.30 129.09 C 15.60 127.42 15.97 125.75 16.37 124.10 Z" />
<path fill="#05b8cb" opacity="1.00" d=" M 90.89 158.58 C 93.57 156.95 95.96 154.89 98.02 152.53 C 97.98 159.70 96.73 166.84 94.70 173.70 C 93.28 178.70 90.29 183.00 88.18 187.70 C 72.79 196.07 53.46 197.08 37.38 190.08 C 39.11 188.55 41.24 187.70 43.51 187.37 C 44.02 185.63 46.16 183.65 45.14 181.89 C 39.75 180.94 34.45 179.54 29.44 177.32 C 32.02 176.90 34.57 176.31 37.18 176.08 C 42.41 175.51 47.65 174.81 52.72 173.34 C 66.04 170.30 79.37 166.13 90.89 158.58 Z" />
<path fill="#05b8cb" opacity="1.00" d=" M 269.67 154.56 C 272.42 153.74 275.30 153.61 278.13 154.06 L 278.16 155.42 C 275.75 155.43 273.33 155.46 270.94 155.18 L 269.67 154.56 Z" />
</g>
<g id="#aeb3b2ff">
<path fill="#aeb3b2" opacity="1.00" d=" M 63.17 87.90 C 69.70 86.29 76.29 84.60 83.03 84.31 C 90.70 87.21 96.78 92.84 102.69 98.32 C 102.46 98.46 102.01 98.74 101.79 98.88 C 93.76 99.92 85.59 99.36 77.63 101.02 C 75.25 101.42 72.88 101.84 70.51 102.25 C 70.58 101.94 70.72 101.31 70.79 101.00 C 72.53 99.83 75.60 99.44 75.81 96.93 C 72.97 93.53 67.87 94.67 63.96 94.38 C 56.51 93.82 49.61 97.12 43.02 100.12 C 35.39 104.40 28.13 109.97 23.64 117.62 C 22.36 119.64 22.46 122.09 22.31 124.38 C 20.86 124.19 19.40 124.01 17.96 123.82 C 17.58 123.61 16.84 123.18 16.47 122.97 C 20.93 111.10 31.51 103.21 41.82 96.63 C 48.62 93.02 55.74 89.95 63.17 87.90 Z" />
<path fill="#aeb3b2" opacity="1.00" d=" M 48.35 112.76 C 59.33 114.91 70.21 117.71 80.86 121.17 C 88.29 123.83 95.97 127.83 100.08 134.87 C 103.34 140.48 101.90 147.62 98.02 152.53 C 95.96 154.89 93.57 156.95 90.89 158.58 C 92.29 154.49 96.02 151.69 97.24 147.55 C 97.71 144.02 97.87 140.34 97.11 136.84 C 93.69 130.73 86.69 128.15 80.54 125.67 C 70.59 121.52 59.73 120.33 49.74 116.32 C 49.27 115.13 48.81 113.94 48.35 112.76 Z" />
<path fill="#aeb3b2" opacity="1.00" d=" M 19.89 159.94 C 38.58 161.30 57.04 156.26 74.33 149.61 C 73.82 150.04 72.79 150.88 72.28 151.31 C 62.68 156.57 51.93 159.06 41.34 161.50 C 38.61 162.12 35.63 162.62 33.60 164.72 C 32.55 167.19 35.15 168.86 36.93 169.97 C 41.68 172.90 47.51 171.96 52.72 173.34 C 47.65 174.81 42.41 175.51 37.18 176.08 C 32.53 176.46 27.86 176.64 23.20 176.59 C 17.71 171.29 12.16 165.29 9.99 157.81 C 13.24 158.74 16.54 159.51 19.89 159.94 Z" />
</g>
<g id="#37bfd0ff">
<path fill="#37bfd0" opacity="1.00" d=" M 18.85 91.78 C 27.63 91.79 36.45 91.21 45.16 92.62 C 44.03 93.94 42.92 95.28 41.82 96.63 C 31.51 103.21 20.93 111.10 16.47 122.97 C 16.84 123.18 17.58 123.61 17.96 123.82 C 17.56 123.89 16.77 124.03 16.37 124.10 C 15.97 125.75 15.60 127.42 15.30 129.09 C 15.12 128.51 14.76 127.36 14.58 126.78 C 14.15 128.13 13.73 129.49 13.32 130.85 C 11.40 130.51 9.48 130.21 7.55 129.90 C 7.52 130.34 7.46 131.22 7.43 131.66 C 6.15 131.61 4.86 131.56 3.58 131.52 C 3.24 130.31 2.90 129.10 2.56 127.89 C 1.95 133.93 2.10 140.01 1.97 146.06 C -2.96 126.68 4.65 105.45 18.85 91.78 Z" />
<path fill="#37bfd0" opacity="1.00" d=" M 70.51 102.25 C 72.88 101.84 75.25 101.42 77.63 101.02 C 78.81 101.98 80.01 102.91 81.13 103.94 C 84.72 106.79 84.08 111.95 84.32 116.02 C 84.62 118.44 82.41 119.78 80.86 121.17 C 70.21 117.71 59.33 114.91 48.35 112.76 C 47.69 112.63 46.38 112.37 45.72 112.24 C 53.19 107.30 61.80 104.17 70.51 102.25 Z" />
<path fill="#37bfd0" opacity="1.00" d=" M 261.56 151.45 C 276.33 151.51 291.10 151.43 305.87 151.46 C 305.75 160.40 305.66 169.33 305.90 178.26 C 282.71 178.27 259.52 178.24 236.33 178.25 C 235.17 177.41 234.02 176.57 232.86 175.74 C 238.85 176.82 244.99 176.48 251.04 176.13 C 254.51 176.04 253.40 171.43 253.55 169.09 L 252.79 169.06 C 248.86 168.97 244.93 169.04 241.01 168.99 C 241.03 168.50 241.08 167.50 241.10 167.00 C 244.18 166.94 247.27 166.84 250.34 167.17 C 250.73 167.29 251.53 167.53 251.93 167.65 C 252.11 164.12 252.63 160.57 254.52 157.52 C 256.76 160.58 259.20 163.49 261.31 166.63 C 262.92 168.74 262.14 171.57 262.33 174.03 C 264.63 174.05 266.93 174.08 269.24 174.11 C 269.42 171.58 268.67 168.67 270.36 166.50 C 272.86 162.74 275.92 159.36 278.16 155.42 L 278.13 154.06 C 275.30 153.61 272.42 153.74 269.67 154.56 L 270.94 155.18 C 269.21 157.64 267.55 160.15 265.88 162.65 C 264.76 160.99 263.62 159.36 262.57 157.66 C 262.17 155.60 261.88 153.52 261.56 151.45 Z" />
<path fill="#37bfd0" opacity="1.00" d=" M 16.80 175.99 C 18.93 176.20 21.06 176.50 23.20 176.59 C 27.86 176.64 32.53 176.46 37.18 176.08 C 34.57 176.31 32.02 176.90 29.44 177.32 C 34.45 179.54 39.75 180.94 45.14 181.89 C 46.16 183.65 44.02 185.63 43.51 187.37 C 41.24 187.70 39.11 188.55 37.38 190.08 L 37.20 190.21 C 29.59 186.83 22.41 182.20 16.80 175.99 Z" />
</g>
<g id="#f8f8f6ff">
<path fill="#f8f8f6" opacity="1.00" d=" M 43.02 100.12 C 49.61 97.12 56.51 93.82 63.96 94.38 C 67.87 94.67 72.97 93.53 75.81 96.93 C 75.60 99.44 72.53 99.83 70.79 101.00 C 70.72 101.31 70.58 101.94 70.51 102.25 C 61.80 104.17 53.19 107.30 45.72 112.24 C 46.38 112.37 47.69 112.63 48.35 112.76 C 48.81 113.94 49.27 115.13 49.74 116.32 C 59.73 120.33 70.59 121.52 80.54 125.67 C 86.69 128.15 93.69 130.73 97.11 136.84 C 97.87 140.34 97.71 144.02 97.24 147.55 C 96.02 151.69 92.29 154.49 90.89 158.58 C 79.37 166.13 66.04 170.30 52.72 173.34 C 47.51 171.96 41.68 172.90 36.93 169.97 C 35.15 168.86 32.55 167.19 33.60 164.72 C 35.63 162.62 38.61 162.12 41.34 161.50 C 51.93 159.06 62.68 156.57 72.28 151.31 C 72.79 150.88 73.82 150.04 74.33 149.61 C 78.38 147.51 82.41 145.27 85.68 142.04 C 78.88 136.61 70.23 134.69 62.00 132.55 C 48.93 129.12 35.65 126.47 22.31 124.38 C 22.46 122.09 22.36 119.64 23.64 117.62 C 28.13 109.97 35.39 104.40 43.02 100.12 Z" />
<path fill="#f8f8f6" opacity="1.00" d=" M 140.16 155.49 C 142.39 155.51 144.62 155.50 146.85 155.45 C 146.92 157.71 146.97 159.98 146.97 162.25 C 149.43 162.25 151.89 162.25 154.35 162.27 C 154.28 159.98 154.36 157.69 154.44 155.40 C 156.71 155.48 158.98 155.53 161.26 155.55 C 161.20 161.75 161.25 167.96 161.23 174.16 C 158.91 174.17 156.59 174.11 154.27 174.04 C 154.31 171.85 154.35 169.65 154.39 167.46 C 151.91 167.49 149.43 167.50 146.95 167.51 C 146.95 169.72 146.95 171.93 146.95 174.15 C 144.67 174.14 142.40 174.14 140.13 174.13 C 140.16 167.92 140.10 161.70 140.16 155.49 Z" />
<path fill="#f8f8f6" opacity="1.00" d=" M 171.49 155.63 C 175.73 154.90 180.63 154.93 184.17 157.71 C 189.22 161.83 187.98 171.37 181.61 173.53 C 176.36 175.21 169.25 175.23 165.55 170.49 C 161.63 165.20 164.70 156.47 171.49 155.63 M 172.27 161.31 C 170.78 162.80 171.08 165.10 171.37 167.00 C 172.37 169.68 175.69 169.55 178.01 168.98 C 180.72 167.51 180.76 163.19 178.76 161.13 C 176.76 160.22 174.18 160.10 172.27 161.31 Z" />
<path fill="#f8f8f6" opacity="1.00" d=" M 192.48 157.54 C 196.78 154.47 202.42 154.94 207.34 155.83 C 207.14 157.61 206.96 159.39 206.81 161.18 C 203.92 160.72 200.85 159.95 198.01 161.01 C 195.45 162.62 195.55 167.37 198.17 168.86 C 200.95 169.75 203.88 169.08 206.63 168.38 C 206.91 170.02 207.23 171.66 207.57 173.30 C 202.95 174.69 197.59 175.33 193.23 172.78 C 187.93 169.74 187.57 161.11 192.48 157.54 Z" />
<path fill="#f8f8f6" opacity="1.00" d=" M 224.36 155.45 C 226.99 155.47 229.63 155.45 232.26 155.44 C 230.04 158.68 227.15 161.37 224.76 164.47 C 227.60 167.63 230.24 170.95 232.92 174.25 C 229.99 174.22 227.06 174.20 224.13 174.17 C 221.75 171.88 220.56 167.06 216.74 167.18 C 216.78 169.52 216.80 171.86 216.81 174.21 C 214.48 174.19 212.15 174.18 209.82 174.16 C 209.82 167.94 209.84 161.73 209.81 155.51 C 212.14 155.50 214.48 155.48 216.82 155.46 C 216.81 157.74 216.80 160.02 216.78 162.31 C 217.32 162.29 218.38 162.25 218.92 162.23 C 220.73 159.97 222.52 157.68 224.36 155.45 Z" />
<path fill="#f8f8f6" opacity="1.00" d=" M 234.30 155.43 C 240.22 155.46 246.15 155.52 252.07 155.35 C 252.18 157.20 252.36 159.04 252.48 160.89 C 248.46 160.82 244.44 160.72 240.44 161.02 C 242.81 163.92 247.26 161.87 250.50 162.39 C 250.45 163.98 250.39 165.57 250.34 167.17 C 247.27 166.84 244.18 166.94 241.10 167.00 C 241.08 167.50 241.03 168.50 241.01 168.99 C 244.93 169.04 248.86 168.97 252.79 169.06 C 252.75 170.79 252.71 172.53 252.67 174.28 C 246.53 174.19 240.39 174.31 234.26 174.15 C 234.36 167.91 234.30 161.67 234.30 155.43 Z" />
<path fill="#f8f8f6" opacity="1.00" d=" M 270.94 155.18 C 273.33 155.46 275.75 155.43 278.16 155.42 C 275.92 159.36 272.86 162.74 270.36 166.50 C 268.67 168.67 269.42 171.58 269.24 174.11 C 266.93 174.08 264.63 174.05 262.33 174.03 C 262.14 171.57 262.92 168.74 261.31 166.63 C 259.20 163.49 256.76 160.58 254.52 157.52 C 254.14 157.01 253.37 155.97 252.99 155.45 C 255.71 155.43 258.42 155.42 261.14 155.39 C 261.50 155.96 262.21 157.09 262.57 157.66 C 263.62 159.36 264.76 160.99 265.88 162.65 C 267.55 160.15 269.21 157.64 270.94 155.18 Z" />
</g>
<g id="#000000ff">
<path fill="#000000" opacity="1.00" d=" M 243.15 109.14 C 246.73 105.46 252.29 105.38 257.07 105.24 C 261.97 105.31 267.24 104.85 271.74 107.18 C 275.05 108.98 276.35 112.75 277.27 116.16 C 273.95 116.56 270.62 116.90 267.28 117.04 C 266.39 115.97 265.63 114.25 263.97 114.41 C 260.50 114.36 257.01 114.24 253.55 114.50 C 250.54 115.21 251.40 118.89 251.93 121.08 C 258.48 122.22 265.25 120.81 271.77 122.32 C 275.08 123.26 277.37 126.58 277.18 130.01 C 277.14 134.00 278.01 138.75 274.98 141.92 C 271.40 145.60 265.85 145.71 261.07 145.80 C 256.11 145.71 250.76 146.28 246.24 143.80 C 242.81 141.87 241.53 137.87 240.84 134.24 C 244.20 134.14 247.57 134.01 250.93 133.90 C 251.78 134.95 252.42 136.70 254.06 136.60 C 257.32 136.72 260.60 136.73 263.88 136.60 C 267.54 136.63 267.97 130.24 264.53 129.55 C 258.70 128.90 252.76 129.98 246.97 128.84 C 243.40 128.12 240.76 124.66 240.92 121.04 C 240.99 117.06 240.03 112.27 243.15 109.14 Z" />
<path fill="#000000" opacity="1.00" d=" M 126.50 105.68 C 130.39 105.72 134.29 105.74 138.18 105.64 C 141.46 114.00 144.65 122.40 147.64 130.87 C 151.35 122.74 154.12 114.17 157.26 105.79 C 161.23 105.66 165.21 105.71 169.19 105.70 C 163.23 119.00 157.65 132.46 151.80 145.79 C 149.17 145.76 146.55 145.78 143.93 145.90 C 137.94 132.58 132.32 119.09 126.50 105.68 Z" />
<path fill="#000000" opacity="1.00" d=" M 176.07 105.73 C 179.88 105.70 183.70 105.70 187.51 105.70 C 187.51 118.98 187.38 132.25 187.59 145.53 C 183.78 145.70 179.96 145.62 176.15 145.67 C 176.04 132.36 176.20 119.04 176.07 105.73 Z" />
<path fill="#000000" opacity="1.00" d=" M 194.32 145.84 C 200.15 132.44 205.75 118.94 211.77 105.63 C 214.31 105.73 216.86 105.71 219.40 105.58 C 225.70 118.79 231.02 132.45 237.03 145.80 C 233.11 145.77 229.19 145.77 225.27 145.79 C 224.70 144.26 224.13 142.72 223.57 141.19 C 218.37 141.15 213.18 141.27 207.99 141.10 C 207.31 142.68 206.67 144.27 206.00 145.86 C 202.11 145.74 198.21 145.76 194.32 145.84 M 215.55 120.58 C 213.97 125.03 212.25 129.42 210.64 133.86 C 214.03 133.81 217.41 133.80 220.80 133.82 C 218.97 129.44 217.69 124.83 215.55 120.58 Z" />
<path fill="#000000" opacity="1.00" d=" M 280.69 145.82 C 286.40 132.45 292.20 119.12 297.93 105.76 C 300.63 105.71 303.33 105.68 306.04 105.71 C 311.84 119.07 317.59 132.45 323.33 145.84 C 319.55 145.69 315.77 145.90 312.00 145.76 C 310.76 144.60 310.56 142.65 309.82 141.15 C 304.62 141.21 299.43 141.18 294.24 141.17 C 293.69 142.65 293.17 144.14 292.50 145.56 C 288.61 146.14 284.62 145.59 280.69 145.82 M 296.96 133.85 C 300.35 133.80 303.74 133.80 307.13 133.83 C 305.50 129.48 303.78 125.16 302.33 120.75 C 299.75 124.71 298.91 129.56 296.96 133.85 Z" />
<path fill="#000000" opacity="1.00" d=" M 320.01 105.72 C 333.34 105.70 346.67 105.71 360.00 105.72 L 360.00 115.38 C 355.25 115.41 350.50 115.43 345.76 115.27 C 345.53 125.39 345.71 135.52 345.66 145.64 C 341.91 145.63 338.15 145.64 334.40 145.65 C 334.46 135.59 334.30 125.52 334.50 115.46 C 329.67 115.34 324.84 115.39 320.01 115.39 C 320.01 112.16 320.01 108.94 320.01 105.72 Z" />
</g>
<g id="#68c7d7ff">
<path fill="#68c7d7" opacity="1.00" d=" M 13.32 130.85 C 13.73 129.49 14.15 128.13 14.58 126.78 C 14.76 127.36 15.12 128.51 15.30 129.09 C 13.71 139.57 16.06 150.20 19.89 159.94 C 16.54 159.51 13.24 158.74 9.99 157.81 C 5.70 155.39 2.96 150.81 1.97 146.06 C 2.10 140.01 1.95 133.93 2.56 127.89 C 2.90 129.10 3.24 130.31 3.58 131.52 C 4.86 131.56 6.15 131.61 7.43 131.66 C 7.46 131.22 7.52 130.34 7.55 129.90 C 9.48 130.21 11.40 130.51 13.32 130.85 Z" />
<path fill="#68c7d7" opacity="1.00" d=" M 305.87 151.46 C 323.91 151.50 341.96 151.40 360.00 151.49 L 360.00 178.24 C 341.97 178.31 323.93 178.23 305.90 178.26 C 305.66 169.33 305.75 160.40 305.87 151.46 Z" />
</g>
</svg>
