<?xml version="1.0" encoding="UTF-8" standalone="yes"?>
<svg xmlns="http://www.w3.org/2000/svg" xmlns:xlink="http://www.w3.org/1999/xlink" width="1078.6666666666665px" height="106.66666666666666px" viewBox="0 0 809 80" version="1.1">
  <defs>
    <clipPath id="clip1">
      <path d="M 0 0 L 76 0 L 76 79.785156 L 0 79.785156 Z M 0 0 "/>
    </clipPath>
    <clipPath id="clip2">
      <path d="M 746 3 L 808.832031 3 L 808.832031 76 L 746 76 Z M 746 3 "/>
    </clipPath>
  </defs>
  <g id="surface1">
    <path style=" stroke:none;fill-rule:nonzero;fill:rgb(4.313725%,2.352941%,1.960784%);fill-opacity:1;" d="M 154.71875 3.511719 C 154.539062 3.5 154.367188 3.460938 154.179688 3.460938 L 152.429688 3.460938 C 149.238281 3.460938 146.976562 4.792969 145.328125 7.472656 L 140.59375 15.175781 L 133.921875 26.023438 L 126.089844 38.75 L 121.800781 31.757812 L 110.261719 12.949219 L 106.960938 7.570312 C 105.523438 5.203125 103.152344 3.460938 99.753906 3.460938 L 98.007812 3.460938 C 93.582031 3.460938 90.085938 6.957031 90.085938 11.378906 L 90.085938 68.808594 C 90.085938 70.785156 90.824219 72.542969 92.003906 73.894531 C 93.40625 75.503906 95.457031 76.523438 97.804688 76.523438 C 102.125 76.523438 105.621094 73.132812 105.621094 68.808594 L 105.621094 32.992188 L 108.8125 37.910156 L 117.140625 50.75 L 119.304688 54.085938 C 120.949219 56.558594 123.003906 58.101562 125.886719 58.101562 C 128.769531 58.101562 130.824219 56.558594 132.472656 54.085938 L 146.363281 32.679688 L 146.363281 68.605469 C 146.363281 72.925781 149.855469 76.523438 154.179688 76.523438 C 158.601562 76.523438 162.097656 73.019531 162.097656 68.605469 L 162.097656 11.378906 C 162.097656 7.140625 158.878906 3.789062 154.71875 3.511719 "/>
    <path style=" stroke:none;fill-rule:nonzero;fill:rgb(4.313725%,2.352941%,1.960784%);fill-opacity:1;" d="M 210.964844 62.523438 C 198.210938 62.523438 189.160156 52.238281 189.160156 39.890625 L 189.160156 39.679688 C 189.160156 38.839844 189.207031 38.015625 189.285156 37.199219 C 189.738281 32.609375 191.4375 28.433594 194.101562 25.097656 C 195.898438 22.847656 198.136719 20.992188 200.726562 19.648438 C 203.660156 18.125 207.035156 17.246094 210.757812 17.246094 C 215.660156 17.246094 220.007812 18.773438 223.511719 21.347656 C 227.515625 24.285156 230.402344 28.585938 231.734375 33.574219 C 232.273438 35.585938 232.570312 37.703125 232.570312 39.890625 L 232.570312 40.09375 C 232.570312 47.539062 229.335938 54.144531 223.984375 58.226562 C 220.464844 60.917969 216.03125 62.523438 210.964844 62.523438 M 249.070312 37.476562 C 248.777344 32.277344 247.441406 27.371094 245.246094 22.96875 C 239.214844 10.898438 226.660156 2.632812 210.964844 2.632812 C 197.570312 2.632812 186.382812 8.738281 179.609375 18.074219 C 178.839844 19.125 178.136719 20.222656 177.484375 21.351562 C 176.246094 23.511719 175.226562 25.804688 174.445312 28.207031 C 173.242188 31.886719 172.59375 35.8125 172.59375 39.890625 L 172.59375 40.09375 C 172.59375 60.574219 188.539062 77.144531 210.757812 77.144531 C 221.636719 77.144531 231.046875 73.121094 237.832031 66.621094 C 244.917969 59.835938 249.136719 50.351562 249.136719 39.890625 L 249.136719 39.679688 C 249.136719 38.941406 249.109375 38.207031 249.070312 37.476562 "/>
    <path style=" stroke:none;fill-rule:nonzero;fill:rgb(4.313725%,2.352941%,1.960784%);fill-opacity:1;" d="M 303.660156 28.464844 L 303.660156 28.671875 C 303.660156 28.730469 303.648438 28.792969 303.648438 28.851562 C 303.558594 34.824219 299.152344 38.863281 291.515625 38.863281 L 275.46875 38.863281 L 275.46875 18.175781 L 291.207031 18.175781 C 295.761719 18.175781 299.269531 19.402344 301.382812 21.796875 C 302.78125 23.382812 303.566406 25.476562 303.640625 28.070312 C 303.644531 28.207031 303.660156 28.328125 303.660156 28.464844 M 313.53125 11.175781 C 311.851562 9.492188 309.863281 8.101562 307.59375 6.976562 C 303.488281 4.953125 298.453125 3.863281 292.542969 3.863281 L 267.546875 3.863281 C 263.125 3.863281 259.625 7.367188 259.625 11.789062 L 259.625 68.605469 C 259.625 73.019531 263.125 76.523438 267.546875 76.523438 C 271.976562 76.523438 275.46875 73.019531 275.46875 68.605469 L 275.46875 52.851562 L 288.125 52.851562 L 303.554688 72.414062 C 305.40625 74.773438 307.769531 76.523438 311.371094 76.523438 C 315.179688 76.523438 318.878906 73.640625 318.878906 69.21875 C 318.878906 66.75 317.855469 65.097656 316.3125 63.148438 L 305.6875 50.230469 L 305.300781 49.765625 C 311.972656 47.019531 316.832031 42.292969 318.769531 35.179688 C 319.054688 34.140625 319.285156 33.058594 319.4375 31.914062 C 319.613281 30.625 319.703125 29.269531 319.703125 27.847656 L 319.703125 27.644531 C 319.703125 20.84375 317.542969 15.1875 313.53125 11.175781 "/>
    <path style=" stroke:none;fill-rule:nonzero;fill:rgb(4.313725%,2.352941%,1.960784%);fill-opacity:1;" d="M 386.488281 68.429688 C 386.238281 64.746094 383.183594 61.804688 379.441406 61.804688 L 346.824219 61.804688 L 346.824219 46.675781 L 374.296875 46.675781 C 375.382812 46.675781 376.402344 46.414062 377.328125 45.988281 C 379.71875 44.875 381.382812 42.5 381.382812 39.679688 C 381.382812 35.773438 378.203125 32.578125 374.296875 32.578125 L 346.824219 32.578125 L 346.824219 17.96875 L 378.921875 17.96875 C 382.828125 17.96875 386.027344 14.882812 386.027344 10.972656 C 386.027344 7.0625 382.828125 3.867188 378.921875 3.867188 L 339.011719 3.867188 C 334.589844 3.867188 331.089844 7.367188 331.089844 11.789062 L 331.089844 67.984375 C 331.089844 72.414062 334.589844 75.910156 339.011719 75.910156 L 379.441406 75.910156 C 383.34375 75.910156 386.539062 72.8125 386.539062 68.90625 C 386.539062 68.746094 386.5 68.59375 386.488281 68.429688 "/>
    <path style=" stroke:none;fill-rule:nonzero;fill:rgb(4.313725%,2.352941%,1.960784%);fill-opacity:1;" d="M 39.871094 29.074219 C 34.605469 29.074219 30.238281 32.902344 29.382812 37.921875 C 29.28125 38.511719 29.21875 39.105469 29.21875 39.71875 C 29.21875 45.605469 33.992188 50.375 39.871094 50.375 C 40.429688 50.375 40.96875 50.320312 41.503906 50.234375 C 46.609375 49.449219 50.523438 45.046875 50.523438 39.71875 C 50.523438 33.84375 45.753906 29.074219 39.871094 29.074219 "/>
    <path style=" stroke:none;fill-rule:nonzero;fill:rgb(4.313725%,2.352941%,1.960784%);fill-opacity:1;" d="M 413.101562 7.832031 C 413.101562 5.597656 414.925781 3.769531 417.058594 3.769531 C 419.296875 3.769531 421.125 5.597656 421.125 7.832031 L 421.125 35.882812 L 462.164062 35.882812 L 462.164062 7.832031 C 462.164062 5.597656 463.992188 3.769531 466.226562 3.769531 C 468.355469 3.769531 470.1875 5.597656 470.1875 7.832031 L 470.1875 71.851562 C 470.1875 74.089844 468.355469 75.917969 466.226562 75.917969 C 463.992188 75.917969 462.164062 74.089844 462.164062 71.851562 L 462.164062 43.398438 L 421.125 43.398438 L 421.125 71.851562 C 421.125 74.089844 419.296875 75.917969 417.058594 75.917969 C 414.925781 75.917969 413.101562 74.089844 413.101562 71.851562 L 413.101562 7.832031 "/>
    <path style=" stroke:none;fill-rule:nonzero;fill:rgb(4.313725%,2.352941%,1.960784%);fill-opacity:1;" d="M 540.839844 40.046875 L 540.839844 39.84375 C 540.839844 23.683594 529.058594 10.476562 512.804688 10.476562 C 496.554688 10.476562 484.976562 23.484375 484.976562 39.640625 L 484.976562 39.84375 C 484.976562 56 496.757812 69.210938 513.007812 69.210938 C 529.261719 69.210938 540.839844 56.203125 540.839844 40.046875 M 476.644531 40.046875 L 476.644531 39.84375 C 476.644531 20.230469 491.375 3.058594 513.007812 3.058594 C 534.644531 3.058594 549.171875 20.03125 549.171875 39.640625 L 549.171875 39.84375 C 549.171875 59.457031 534.441406 76.628906 512.804688 76.628906 C 491.171875 76.628906 476.644531 59.65625 476.644531 40.046875 "/>
    <path style=" stroke:none;fill-rule:nonzero;fill:rgb(4.313725%,2.352941%,1.960784%);fill-opacity:1;" d="M 555.371094 40.046875 L 555.371094 39.84375 C 555.371094 19.722656 570.402344 3.058594 591.328125 3.058594 C 602.804688 3.058594 610.121094 6.816406 616.722656 12.304688 C 617.535156 13.019531 618.351562 14.132812 618.351562 15.558594 C 618.351562 17.691406 616.417969 19.519531 614.285156 19.519531 C 613.167969 19.519531 612.257812 19.011719 611.644531 18.605469 C 606.160156 13.726562 599.964844 10.476562 591.226562 10.476562 C 575.484375 10.476562 563.703125 23.28125 563.703125 39.640625 L 563.703125 39.84375 C 563.703125 56.304688 575.585938 69.210938 591.226562 69.210938 C 600.0625 69.210938 606.261719 66.160156 612.359375 60.570312 C 612.964844 59.960938 613.878906 59.457031 614.898438 59.457031 C 616.925781 59.457031 618.753906 61.289062 618.753906 63.316406 C 618.753906 64.535156 618.148438 65.554688 617.433594 66.160156 C 610.429688 72.5625 602.710938 76.628906 591.023438 76.628906 C 570.507812 76.628906 555.371094 60.472656 555.371094 40.046875 "/>
    <path style=" stroke:none;fill-rule:nonzero;fill:rgb(4.313725%,2.352941%,1.960784%);fill-opacity:1;" d="M 625.867188 7.832031 C 625.867188 5.597656 627.699219 3.769531 629.832031 3.769531 C 632.066406 3.769531 633.890625 5.597656 633.890625 7.832031 L 633.890625 46.75 L 674.425781 5.191406 C 675.339844 4.375 676.253906 3.769531 677.570312 3.769531 C 679.703125 3.769531 681.433594 5.699219 681.433594 7.730469 C 681.433594 8.847656 680.921875 9.761719 680.113281 10.578125 L 654.921875 35.574219 L 681.9375 68.90625 C 682.652344 69.820312 683.058594 70.636719 683.058594 71.851562 C 683.058594 73.984375 681.230469 75.917969 678.996094 75.917969 C 677.472656 75.917969 676.453125 75.109375 675.746094 74.089844 L 649.234375 41.0625 L 633.890625 56.40625 L 633.890625 71.851562 C 633.890625 74.089844 632.066406 75.917969 629.832031 75.917969 C 627.699219 75.917969 625.867188 74.089844 625.867188 71.851562 L 625.867188 7.832031 "/>
    <path style=" stroke:none;fill-rule:nonzero;fill:rgb(4.313725%,2.352941%,1.960784%);fill-opacity:1;" d="M 690.214844 71.34375 L 690.214844 8.339844 C 690.214844 6.105469 692.046875 4.277344 694.183594 4.277344 L 738.367188 4.277344 C 740.398438 4.277344 742.023438 5.902344 742.023438 7.933594 C 742.023438 9.964844 740.398438 11.59375 738.367188 11.59375 L 698.242188 11.59375 L 698.242188 35.882812 L 733.792969 35.882812 C 735.828125 35.882812 737.453125 37.609375 737.453125 39.535156 C 737.453125 41.570312 735.828125 43.195312 733.792969 43.195312 L 698.242188 43.195312 L 698.242188 68.09375 L 738.875 68.09375 C 740.90625 68.09375 742.53125 69.71875 742.53125 71.75 C 742.53125 73.78125 740.90625 75.410156 738.875 75.410156 L 694.183594 75.410156 C 692.046875 75.410156 690.214844 73.578125 690.214844 71.34375 "/>
    <g clip-path="url(#clip1)" clip-rule="nonzero">
      <path style=" stroke:none;fill-rule:nonzero;fill:rgb(4.313725%,2.352941%,1.960784%);fill-opacity:1;" d="M 75.347656 52.964844 C 74.726562 50.984375 73.410156 49.230469 71.519531 48.164062 C 68.152344 46.253906 63.792969 46.953125 61.195312 49.824219 C 59.863281 51.292969 59.027344 53.191406 57.761719 54.726562 C 56.253906 56.582031 54.394531 58.195312 52.378906 59.488281 C 52.015625 59.722656 51.640625 59.9375 51.261719 60.148438 C 44.257812 64.089844 35.484375 64.117188 28.433594 60.160156 C 20.964844 55.769531 16.300781 47.695312 16.664062 38.960938 C 16.824219 35.136719 17.949219 31.453125 19.835938 28.226562 C 22.125 24.304688 25.527344 21.046875 29.730469 19.019531 C 33.628906 17.132812 37.816406 16.464844 42.109375 16.777344 C 45.949219 17.0625 49.378906 19.25 53.191406 17.570312 C 56.429688 16.152344 58.421875 12.742188 58.15625 9.242188 C 58.140625 9.039062 58.148438 8.84375 58.113281 8.644531 C 57.492188 4.632812 54.40625 2.421875 50.726562 1.417969 C 39.558594 -1.636719 27.753906 0.367188 18.339844 6.316406 C 14.3125 8.863281 10.746094 12.140625 7.835938 16.035156 C 6.597656 17.691406 5.46875 19.441406 4.496094 21.316406 C 3.488281 23.230469 2.679688 25.199219 2.011719 27.195312 C -2.746094 41.492188 1.117188 57.441406 11.714844 68.207031 C 12.800781 69.316406 13.933594 70.386719 15.160156 71.375 C 19.4375 74.820312 24.335938 77.15625 29.46875 78.492188 C 40.597656 81.386719 52.828125 79.386719 62.480469 72.8125 C 63.871094 71.867188 65.226562 70.855469 66.5 69.714844 C 69.863281 66.703125 73.449219 62.824219 75.171875 58.570312 C 75.902344 56.738281 75.910156 54.757812 75.347656 52.964844 "/>
    </g>
    <g clip-path="url(#clip2)" clip-rule="nonzero">
      <path style=" stroke:none;fill-rule:nonzero;fill:rgb(4.313725%,2.352941%,1.960784%);fill-opacity:1;" d="M 773.34375 47.464844 L 746.933594 10.476562 C 746.425781 9.660156 746.019531 8.75 746.019531 7.730469 C 746.019531 5.597656 747.953125 3.769531 750.1875 3.769531 C 751.910156 3.769531 753.027344 4.78125 754.046875 6.207031 L 777.511719 40.046875 L 801.175781 6.207031 C 802.191406 4.78125 803.210938 3.769531 804.9375 3.769531 C 807.171875 3.769531 808.898438 5.597656 808.898438 7.730469 C 808.898438 8.75 808.285156 9.863281 807.777344 10.675781 L 781.472656 47.261719 L 781.472656 71.851562 C 781.472656 74.089844 779.640625 75.917969 777.40625 75.917969 C 775.175781 75.917969 773.34375 74.089844 773.34375 71.851562 L 773.34375 47.464844 "/>
    </g>
  </g>
</svg>