<?xml version="1.0" encoding="UTF-8" ?>
<!DOCTYPE svg PUBLIC "-//W3C//DTD SVG 1.1//EN" "http://www.w3.org/Graphics/SVG/1.1/DTD/svg11.dtd">
<svg width="960pt" height="420pt" viewBox="0 0 960 420" version="1.1" xmlns="http://www.w3.org/2000/svg">
<g id="#ffffffff">
</g>
<g id="#ffd042ff">
<path fill="#ffd042" opacity="1.00" d=" M 415.33 0.00 L 426.33 0.00 C 425.61 1.36 424.94 2.75 424.19 4.10 C 408.92 29.53 394.23 55.32 380.32 81.52 C 352.21 135.08 326.83 190.51 310.60 248.94 C 303.91 273.50 298.92 298.60 297.23 324.03 C 296.12 331.63 296.42 339.33 296.37 346.98 C 295.94 367.28 298.95 387.40 300.61 407.58 C 284.92 410.53 268.89 410.03 253.06 411.45 C 231.38 411.68 209.70 411.94 188.02 411.62 C 179.34 411.48 170.62 411.84 161.98 410.75 C 148.09 410.37 134.12 410.01 120.41 407.50 C 123.21 380.12 127.43 352.61 124.92 325.03 C 122.93 288.11 113.83 251.77 100.12 217.50 C 78.74 164.33 46.77 116.03 10.29 72.07 C 13.53 73.22 16.70 74.61 19.74 76.22 C 45.31 88.97 67.91 106.83 88.92 126.01 C 102.30 139.01 115.60 152.12 127.68 166.35 C 154.53 196.62 178.07 229.61 201.57 262.49 C 203.09 264.67 204.80 266.71 206.59 268.68 C 219.15 252.50 230.12 235.19 241.61 218.25 C 263.47 185.77 285.68 153.49 309.35 122.30 C 341.76 79.13 376.87 37.91 415.33 0.00 Z" />
<path fill="#ffd042" opacity="1.00" d=" M 193.88 63.40 C 204.89 61.33 216.58 62.07 227.08 66.13 C 244.85 72.50 259.36 87.36 265.23 105.31 C 273.49 128.51 265.96 156.27 247.16 172.15 C 229.86 188.07 203.06 192.81 181.54 183.22 C 155.91 173.23 139.20 144.64 143.08 117.42 C 145.11 101.38 153.64 86.35 166.14 76.14 C 174.27 69.89 183.78 65.30 193.88 63.40 Z" />
</g>
<g id="#314196ff">
<path fill="#314196" opacity="1.00" d=" M 667.69 57.56 C 669.82 54.70 672.34 51.59 676.05 50.88 C 680.53 50.08 685.70 52.32 687.33 56.76 C 689.59 61.58 687.53 66.91 685.32 71.33 C 677.68 86.06 666.95 98.84 656.89 111.93 C 644.17 128.88 631.41 145.80 618.80 162.84 C 612.73 171.21 606.63 179.62 601.72 188.73 C 600.87 189.76 601.44 191.61 602.95 191.54 C 611.05 191.38 619.45 190.26 627.33 192.75 C 629.44 193.31 631.68 195.66 633.84 193.94 C 643.81 187.87 655.14 182.46 667.13 183.41 C 673.25 183.73 679.76 186.83 682.25 192.73 C 685.45 199.88 684.69 208.06 683.24 215.54 C 681.98 221.47 680.18 227.29 677.90 232.91 C 675.95 238.06 670.65 240.97 668.61 246.06 C 667.52 248.32 669.67 250.98 668.08 253.09 C 659.46 268.05 649.99 282.60 638.75 295.74 C 629.19 306.65 618.44 317.12 605.05 323.14 C 596.28 327.15 585.91 328.61 576.72 325.23 C 568.65 322.14 563.52 313.86 563.01 305.41 C 561.78 291.90 566.08 278.57 571.39 266.31 C 580.26 247.12 592.84 229.73 607.70 214.72 C 608.96 213.85 608.83 212.30 608.99 210.96 C 603.50 210.01 598.00 211.27 592.54 211.77 C 590.61 212.19 588.11 211.97 586.93 213.87 C 575.93 230.31 564.70 246.66 555.07 263.97 C 545.20 281.88 536.23 300.28 528.28 319.12 C 526.06 324.43 524.44 330.17 520.78 334.72 C 518.82 337.30 515.07 336.72 512.64 335.22 C 507.99 332.07 503.91 326.86 504.61 320.93 C 505.25 314.93 507.55 309.27 509.72 303.69 C 522.06 274.59 538.51 247.49 553.79 219.90 C 553.38 219.47 552.58 218.62 552.17 218.20 C 514.41 223.97 477.28 233.56 441.03 245.55 C 439.64 245.86 439.00 247.25 438.31 248.34 C 427.29 268.14 415.11 287.38 406.26 308.30 C 397.74 328.81 388.42 349.22 383.91 371.08 C 383.24 375.00 380.06 378.63 375.90 378.71 C 367.98 378.67 360.76 370.93 361.68 362.98 C 362.29 356.30 364.55 349.93 366.80 343.66 C 373.20 325.18 380.39 306.90 389.63 289.64 C 395.02 279.03 400.81 268.62 405.94 257.88 C 407.02 256.50 405.67 254.53 404.01 255.05 C 396.24 256.72 389.07 261.66 380.88 261.03 C 375.52 260.32 374.62 253.38 376.40 249.25 C 378.17 244.71 383.12 242.95 387.27 241.26 C 398.27 237.09 409.80 234.57 420.91 230.76 C 422.81 230.18 423.63 228.17 424.76 226.72 C 436.55 208.53 446.68 189.23 460.13 172.14 C 476.17 150.50 490.31 127.55 505.05 105.03 C 514.00 91.80 519.71 76.75 528.30 63.33 C 532.05 57.19 540.98 54.77 547.01 58.95 C 550.96 62.23 549.63 68.11 548.64 72.46 C 544.00 87.49 534.89 100.53 526.76 113.83 C 514.46 133.60 501.28 152.80 487.77 171.75 C 477.08 187.13 464.98 201.83 457.46 219.13 C 458.54 219.99 459.70 220.29 460.97 220.03 C 496.66 212.09 532.14 203.18 567.99 195.95 C 569.54 195.84 570.59 194.72 571.33 193.46 C 592.35 160.52 614.91 128.59 638.25 97.27 C 647.94 83.94 658.42 71.19 667.69 57.56 M 637.54 211.69 C 626.21 220.15 616.24 230.33 607.27 241.23 C 597.19 253.82 588.83 268.14 584.90 283.89 C 583.41 290.18 582.94 297.98 588.33 302.63 C 594.20 307.83 603.14 305.95 609.33 302.30 C 622.93 294.28 632.53 280.99 639.52 267.10 C 638.25 263.67 634.25 262.49 632.91 259.11 C 640.86 251.00 649.13 243.12 655.96 234.00 C 660.16 228.28 664.51 222.14 665.53 214.97 C 666.54 208.98 660.98 203.25 655.02 203.75 C 648.45 204.20 642.82 208.09 637.54 211.69 Z" />
<path fill="#314196" opacity="1.00" d=" M 734.59 175.60 C 737.31 172.97 740.89 170.13 744.96 171.28 C 748.50 172.53 750.49 176.49 749.51 180.12 C 747.51 189.21 740.53 195.95 735.48 203.40 C 734.68 204.74 735.98 205.72 736.74 206.65 C 747.54 200.35 759.22 194.34 772.05 194.32 C 779.18 194.09 787.79 195.63 791.41 202.59 C 796.01 211.72 793.93 222.51 791.00 231.84 C 786.44 244.93 779.05 256.85 770.86 267.96 C 758.75 284.25 744.52 299.26 727.39 310.32 C 717.35 316.56 706.03 321.66 694.00 321.72 C 686.82 321.95 679.53 320.33 673.29 316.72 C 671.28 315.61 669.38 314.07 666.97 314.02 C 657.94 327.51 650.57 342.00 643.63 356.65 C 641.57 360.62 639.47 364.95 635.65 367.52 C 632.92 369.39 629.65 367.33 627.74 365.25 C 624.67 362.35 623.95 357.73 625.03 353.78 C 625.98 349.10 628.69 345.09 630.94 340.97 C 658.09 291.97 686.07 243.30 718.33 197.44 C 723.40 189.92 728.16 182.07 734.59 175.60 M 754.47 210.68 C 749.51 211.70 744.99 214.09 740.63 216.59 C 729.26 223.50 719.38 232.70 711.12 243.12 C 698.36 259.18 688.69 277.37 677.32 294.39 C 676.01 295.77 675.87 298.26 677.50 299.46 C 684.08 305.19 693.59 306.65 701.76 303.80 C 716.89 298.99 728.91 287.85 739.53 276.47 C 751.52 262.95 762.20 247.89 768.82 230.98 C 770.65 225.54 772.56 218.39 768.24 213.65 C 764.74 209.94 759.15 209.85 754.47 210.68 Z" />
<path fill="#314196" opacity="1.00" d=" M 875.41 185.65 C 882.21 184.43 889.98 184.75 895.52 189.40 C 900.75 193.48 902.82 200.56 902.04 206.98 C 900.46 220.58 892.31 232.36 883.18 242.12 C 871.35 254.20 856.05 263.75 839.05 265.97 C 830.55 267.04 821.85 266.07 813.82 263.08 C 812.08 262.07 810.94 264.00 810.36 265.31 C 806.39 273.64 801.71 282.48 802.95 292.01 C 804.09 300.68 812.53 306.70 820.82 307.54 C 832.96 308.86 844.58 303.84 855.01 298.18 C 869.88 289.66 883.23 278.38 893.84 264.90 C 896.68 261.16 899.60 257.31 903.58 254.70 C 906.84 252.39 912.71 254.59 912.48 258.97 C 912.18 263.74 908.94 267.64 906.36 271.44 C 893.29 288.01 877.25 302.31 859.14 313.17 C 845.51 321.14 830.07 327.72 813.96 326.66 C 798.07 326.06 782.34 314.15 780.16 297.92 C 779.35 283.73 785.19 270.18 791.60 257.84 C 800.18 242.04 810.82 227.26 823.61 214.60 C 838.31 201.24 855.56 189.38 875.41 185.65 M 869.27 202.22 C 864.76 203.60 860.65 206.05 856.82 208.76 C 843.61 218.16 833.32 230.91 823.74 243.82 C 822.94 244.65 822.98 246.47 824.28 246.79 C 829.77 249.31 835.87 251.47 841.99 250.29 C 850.97 248.64 858.93 243.60 865.85 237.83 C 872.44 232.03 878.62 225.42 882.41 217.41 C 884.12 213.56 885.69 208.68 882.91 204.94 C 879.81 200.77 873.77 201.03 869.27 202.22 Z" />
</g>
<g id="#017abdff">
<path fill="#017abd" opacity="1.00" d=" M 436.74 361.02 C 445.15 359.96 454.39 360.59 461.73 365.21 C 466.49 368.10 468.85 373.66 468.63 379.11 C 463.33 379.24 458.03 378.77 452.73 378.92 C 452.10 372.01 443.03 369.36 437.74 372.75 C 433.68 375.81 432.72 381.28 432.41 386.05 C 432.26 391.69 432.02 397.85 435.24 402.77 C 439.39 409.73 452.52 407.11 452.77 398.58 C 458.07 398.55 463.37 398.56 468.68 398.57 C 468.67 403.54 467.00 408.80 462.84 411.83 C 455.22 417.61 444.90 418.14 435.76 416.89 C 426.83 415.74 419.49 408.50 417.54 399.82 C 415.68 391.73 415.68 382.97 418.50 375.10 C 421.28 367.41 428.68 361.95 436.74 361.02 Z" />
<path fill="#017abd" opacity="1.00" d=" M 900.31 361.59 C 905.34 361.67 910.39 361.66 915.43 361.62 C 915.49 376.27 915.42 390.91 915.47 405.56 C 923.72 405.63 931.98 405.44 940.24 405.66 C 940.19 409.21 940.18 412.77 940.18 416.32 C 926.90 416.43 913.61 416.31 900.33 416.38 C 900.23 398.12 900.26 379.85 900.31 361.59 Z" />
<path fill="#017abd" opacity="1.00" d=" M 497.50 416.37 C 497.49 398.12 497.46 379.87 497.52 361.61 C 502.61 361.66 507.70 361.65 512.79 361.63 C 512.90 368.85 512.82 376.07 512.83 383.29 C 518.83 383.40 524.82 383.29 530.82 383.38 C 531.50 376.15 530.95 368.88 531.17 361.63 C 536.25 361.66 541.32 361.62 546.40 361.65 C 546.44 379.88 546.43 398.11 546.41 416.34 C 541.32 416.37 536.24 416.38 531.16 416.34 C 531.13 408.98 531.14 401.62 531.14 394.27 C 525.00 393.70 518.86 394.29 512.72 394.16 C 512.70 401.58 512.88 408.99 512.62 416.41 C 507.58 416.33 502.54 416.36 497.50 416.37 Z" />
<path fill="#017abd" opacity="1.00" d=" M 571.76 410.79 C 578.51 394.46 584.57 377.84 591.44 361.56 C 597.49 361.69 603.54 361.71 609.59 361.55 C 615.02 374.43 619.95 387.53 625.15 400.51 C 627.01 405.83 629.66 410.86 631.09 416.33 C 625.40 416.38 619.70 416.39 614.01 416.30 C 612.78 412.79 611.69 409.22 610.37 405.75 C 603.14 405.80 595.92 405.80 588.69 405.74 C 587.43 409.25 586.18 412.77 585.06 416.33 C 580.04 416.38 575.03 416.36 570.03 416.35 C 570.45 414.45 571.01 412.58 571.76 410.79 M 592.61 394.73 C 597.28 394.72 601.96 394.83 606.64 394.67 C 604.29 387.31 602.04 379.92 599.85 372.52 C 597.39 379.91 595.01 387.32 592.61 394.73 Z" />
<path fill="#017abd" opacity="1.00" d=" M 661.18 416.29 C 661.26 398.06 661.09 379.83 661.26 361.59 C 668.26 361.69 675.25 361.64 682.25 361.64 C 688.45 374.81 694.00 388.29 700.41 401.35 C 700.77 388.12 700.44 374.87 700.58 361.62 C 705.18 361.65 709.78 361.64 714.38 361.65 C 714.39 379.88 714.40 398.10 714.38 416.33 C 707.28 416.32 700.18 416.46 693.09 416.26 C 687.05 402.45 681.05 388.63 674.71 374.96 C 674.66 388.75 674.72 402.54 674.65 416.34 C 670.16 416.36 665.66 416.40 661.18 416.29 Z" />
<path fill="#017abd" opacity="1.00" d=" M 744.78 369.02 C 744.72 366.51 744.71 363.98 745.23 361.51 C 752.19 361.78 759.16 361.61 766.13 361.63 C 772.33 374.80 777.76 388.34 784.30 401.33 C 784.57 388.11 784.33 374.88 784.43 361.65 C 789.04 361.63 793.66 361.65 798.29 361.66 C 798.27 379.88 798.27 398.10 798.29 416.32 C 791.18 416.37 784.07 416.41 776.96 416.30 C 770.96 402.53 764.93 388.75 758.65 375.10 C 758.52 388.86 758.66 402.61 758.56 416.37 C 753.97 416.36 749.39 416.38 744.81 416.32 C 744.75 400.55 744.82 384.79 744.78 369.02 Z" />
<path fill="#017abd" opacity="1.00" d=" M 828.88 361.64 C 842.78 361.63 856.69 361.70 870.59 361.60 C 870.69 365.21 870.69 368.83 870.62 372.44 C 861.86 372.42 853.10 372.48 844.35 372.42 C 844.31 376.12 844.32 379.81 844.34 383.51 C 852.37 383.49 860.41 383.52 868.44 383.50 C 868.45 387.11 868.46 390.72 868.41 394.33 C 860.37 394.33 852.34 394.31 844.30 394.34 C 844.33 398.07 844.34 401.80 844.30 405.53 C 853.08 405.60 861.86 405.58 870.64 405.54 C 870.67 409.15 870.68 412.76 870.59 416.37 C 856.69 416.33 842.79 416.42 828.89 416.33 C 828.85 398.10 828.88 379.87 828.88 361.64 Z" />
</g>
</svg>
