<?xml version="1.0" encoding="UTF-8" ?>
<!DOCTYPE svg PUBLIC "-//W3C//DTD SVG 1.1//EN" "http://www.w3.org/Graphics/SVG/1.1/DTD/svg11.dtd">
<svg width="640pt" height="360pt" viewBox="0 0 640 360" version="1.1" xmlns="http://www.w3.org/2000/svg">
<g id="#ffffffff">
</g>
<g id="#e89418ff">
<path fill="#e89418" opacity="1.00" d=" M 16.66 0.00 L 105.35 0.00 C 107.15 2.68 109.42 5.43 109.35 8.85 C 109.49 32.92 109.19 56.98 109.49 81.05 C 110.32 81.87 111.16 82.70 112.00 83.53 C 136.34 83.71 160.69 83.62 185.04 83.57 C 188.41 79.04 187.27 73.25 187.40 68.01 C 187.38 48.32 187.38 28.63 187.38 8.95 C 187.04 5.34 189.16 2.27 191.74 0.00 L 292.21 0.00 C 286.81 5.41 279.20 7.52 273.33 12.28 C 257.55 24.88 246.17 43.63 244.49 63.96 C 243.51 77.73 246.51 92.12 254.50 103.54 C 259.28 110.64 264.89 117.12 270.15 123.86 C 294.24 154.10 318.31 184.37 342.72 214.36 C 345.57 218.04 349.10 221.25 351.29 225.40 C 352.52 228.31 349.05 229.94 346.98 231.02 C 334.32 236.66 319.43 238.16 306.26 233.39 C 293.43 228.62 281.74 219.61 275.68 207.13 C 271.28 198.07 270.57 186.63 275.97 177.81 C 277.49 174.83 280.04 172.29 280.79 168.95 C 280.16 166.13 277.93 164.04 276.27 161.78 C 269.72 153.97 263.91 145.54 257.03 138.01 C 251.30 141.01 247.17 146.12 243.23 151.10 C 237.77 158.03 233.65 166.02 231.24 174.51 C 227.43 187.88 228.14 202.28 232.19 215.51 C 236.16 228.19 244.23 239.16 253.50 248.50 C 259.59 254.91 267.72 258.62 275.37 262.76 C 275.37 263.71 275.37 264.66 275.38 265.62 C 270.64 266.69 265.78 266.61 260.96 266.55 C 239.95 266.47 218.94 266.61 197.93 266.49 C 192.74 266.58 187.29 262.53 187.43 257.02 C 187.31 233.99 187.43 210.96 187.40 187.94 C 187.39 185.72 186.91 183.14 184.85 181.90 C 181.64 181.11 178.28 181.45 175.01 181.40 C 154.64 181.54 134.27 181.27 113.91 181.51 C 110.86 181.24 109.08 184.23 109.39 186.96 C 109.34 209.65 109.37 232.34 109.40 255.03 C 109.50 258.32 108.63 261.85 106.04 264.08 C 103.67 266.41 100.20 266.83 97.03 266.77 C 72.35 266.68 47.66 266.79 22.97 266.72 C 15.87 266.93 11.34 259.50 11.74 253.03 C 11.74 175.37 11.76 97.70 11.74 20.04 C 11.80 15.82 11.43 11.57 12.06 7.38 C 12.53 4.40 14.57 2.03 16.66 0.00 Z" />
<path fill="#e89418" opacity="1.00" d=" M 469.39 0.00 L 558.93 0.00 L 556.11 0.16 C 568.91 4.02 581.38 9.12 592.66 16.38 C 598.10 19.86 603.51 23.43 608.72 27.26 C 611.86 29.65 615.18 32.75 615.47 36.95 C 615.71 40.79 613.05 43.95 610.32 46.30 C 592.95 61.23 575.84 76.47 558.50 91.43 C 554.19 95.52 547.54 95.18 542.77 92.09 C 524.20 81.10 499.50 81.57 481.46 93.46 C 470.41 100.54 461.93 112.04 459.71 125.10 C 458.73 133.15 458.96 141.60 462.18 149.15 C 468.78 165.57 484.72 177.19 501.91 180.32 C 515.12 183.22 529.25 180.81 541.08 174.40 C 544.78 172.56 548.63 169.91 552.98 170.73 C 557.74 171.60 561.09 175.41 564.50 178.52 C 578.35 191.34 592.33 204.03 606.21 216.81 C 609.55 219.96 613.64 222.67 615.62 226.95 C 617.10 229.96 616.08 233.54 614.00 235.98 C 611.04 239.48 607.34 242.25 603.63 244.90 C 587.65 256.12 569.09 263.31 550.03 267.25 C 528.18 271.72 505.30 272.06 483.53 266.99 C 461.57 261.84 440.80 251.79 423.00 237.96 C 419.18 234.79 415.10 231.83 411.97 227.94 C 410.47 226.06 412.14 223.67 412.90 221.83 C 419.93 208.84 424.34 194.54 426.79 180.01 C 428.14 172.15 428.85 164.08 427.49 156.17 C 422.06 155.18 416.52 155.52 411.04 155.49 C 402.18 155.70 393.29 155.00 384.47 156.00 C 383.09 166.23 384.74 177.02 380.66 186.78 C 379.01 190.07 374.84 188.09 373.35 185.67 C 347.71 153.89 322.60 121.69 297.25 89.67 C 293.34 84.59 290.46 78.47 290.15 71.99 C 289.89 65.94 289.81 59.46 293.08 54.11 C 297.89 45.93 306.49 40.65 315.27 37.61 C 329.47 32.84 345.43 36.23 357.81 44.21 C 365.68 49.24 371.01 57.34 379.03 62.16 C 384.42 55.83 389.16 48.96 395.05 43.05 C 415.36 22.38 441.40 7.42 469.39 0.00 Z" />
</g>
<g id="#393b3aff">
<path fill="#393b3a" opacity="1.00" d=" M 259.08 319.02 C 255.74 312.15 261.65 303.98 268.83 303.36 C 274.23 302.33 279.41 305.01 283.13 308.74 C 281.43 310.77 279.67 312.76 277.92 314.76 C 276.30 313.52 274.83 312.04 272.96 311.19 C 270.61 310.04 267.25 311.28 266.66 313.97 C 267.03 316.02 268.53 317.56 269.75 319.15 C 273.20 323.38 276.55 327.67 280.06 331.85 C 280.23 330.46 280.41 329.07 280.58 327.68 C 283.08 327.67 285.58 327.68 288.09 327.72 C 287.92 331.54 287.02 335.27 285.42 338.74 C 287.14 340.82 288.79 342.96 290.33 345.18 C 286.53 345.43 282.74 345.18 279.00 344.55 C 273.98 345.78 268.53 346.53 263.61 344.49 C 258.97 342.74 255.34 338.08 255.68 332.99 C 255.72 329.87 257.72 327.33 259.68 325.10 C 261.29 326.94 262.89 328.80 264.47 330.67 C 264.42 332.59 263.63 335.03 265.46 336.41 C 267.73 338.77 271.23 338.21 274.16 338.01 C 269.55 331.36 263.63 325.70 259.08 319.02 Z" />
<path fill="#393b3a" opacity="1.00" d=" M 48.72 304.40 C 52.12 304.34 55.51 304.34 58.91 304.37 C 58.91 317.99 58.96 331.61 58.88 345.23 C 55.50 345.25 52.12 345.25 48.74 345.22 C 48.67 339.60 48.72 333.97 48.70 328.35 C 42.51 328.33 36.32 328.34 30.14 328.35 C 30.14 333.97 30.12 339.60 30.14 345.22 C 26.70 345.25 23.27 345.25 19.83 345.22 C 19.78 331.61 19.79 318.01 19.82 304.40 C 23.26 304.33 26.69 304.33 30.13 304.40 C 30.14 309.53 30.12 314.66 30.14 319.78 C 36.33 319.80 42.52 319.79 48.70 319.79 C 48.72 314.66 48.69 309.53 48.72 304.40 Z" />
<path fill="#393b3a" opacity="1.00" d=" M 80.49 304.61 C 88.45 302.08 97.93 304.23 103.58 310.51 C 111.53 319.24 110.06 334.59 100.68 341.73 C 93.23 347.43 82.24 347.82 74.43 342.59 C 66.34 337.18 63.60 325.79 67.09 316.93 C 69.33 311.05 74.48 306.42 80.49 304.61 M 84.95 312.80 C 76.42 314.01 74.52 324.85 77.69 331.48 C 80.73 337.73 90.19 338.64 94.93 333.90 C 98.49 329.91 98.68 323.84 97.04 318.97 C 95.31 314.19 89.74 311.88 84.95 312.80 Z" />
<path fill="#393b3a" opacity="1.00" d=" M 115.38 304.38 C 123.25 304.36 131.13 304.29 139.00 304.39 C 143.31 304.56 148.24 305.44 150.86 309.24 C 154.58 314.87 153.22 324.02 146.34 326.55 C 148.05 327.80 150.34 328.85 150.81 331.15 C 152.05 335.75 151.88 340.58 152.78 345.24 C 149.37 345.24 145.96 345.24 142.55 345.23 C 142.05 341.49 141.99 337.70 141.34 333.99 C 140.95 331.98 138.84 330.89 136.97 330.66 C 133.20 330.34 129.40 330.59 125.62 330.54 C 125.62 335.43 125.66 340.33 125.57 345.23 C 122.18 345.25 118.79 345.24 115.40 345.24 C 115.32 331.62 115.36 318.00 115.38 304.38 M 125.63 313.16 C 125.62 316.15 125.62 319.14 125.65 322.14 C 130.35 321.99 135.13 322.59 139.78 321.62 C 143.47 320.75 143.82 314.16 139.90 313.40 C 135.17 312.86 130.38 313.28 125.63 313.16 Z" />
<path fill="#393b3a" opacity="1.00" d=" M 167.53 305.56 C 176.88 301.93 188.90 302.89 196.28 310.20 C 194.82 312.72 192.42 314.47 190.40 316.49 C 185.37 311.68 177.90 310.59 171.42 312.76 C 171.19 314.49 169.63 317.17 172.08 317.94 C 178.44 320.62 185.96 319.27 192.04 322.95 C 200.36 327.16 199.30 341.49 190.45 344.48 C 180.10 348.15 167.22 346.55 159.31 338.49 C 161.45 336.37 163.66 334.32 165.89 332.30 C 170.18 336.44 176.17 338.48 182.11 337.70 C 184.64 337.67 188.47 336.28 187.44 333.05 C 187.59 331.50 185.70 331.21 184.66 330.67 C 178.10 328.79 170.56 329.47 164.84 325.20 C 158.30 320.32 159.88 308.52 167.53 305.56 Z" />
<path fill="#393b3a" opacity="1.00" d=" M 203.83 304.44 C 215.33 304.27 226.84 304.34 238.35 304.40 C 238.38 307.05 238.38 309.70 238.35 312.35 C 230.32 312.42 222.29 312.35 214.26 312.39 C 214.25 315.01 214.25 317.64 214.26 320.27 C 220.25 320.31 226.23 320.28 232.22 320.29 C 232.22 322.93 232.22 325.58 232.20 328.23 C 226.22 328.26 220.24 328.24 214.25 328.25 C 214.25 331.13 214.25 334.02 214.26 336.91 C 222.61 337.26 230.97 336.69 239.33 337.18 C 239.34 339.86 239.34 342.54 239.30 345.23 C 227.60 345.27 215.89 345.23 204.18 345.25 C 203.38 331.67 204.03 318.04 203.83 304.44 Z" />
<path fill="#393b3a" opacity="1.00" d=" M 311.48 308.36 C 320.73 300.44 337.98 302.14 343.14 314.03 C 340.61 316.06 337.72 317.56 334.95 319.22 C 333.44 317.04 332.10 314.36 329.39 313.47 C 324.22 311.15 317.27 313.87 315.76 319.53 C 314.63 324.12 314.64 329.55 317.60 333.50 C 320.23 336.86 325.06 337.59 328.97 336.39 C 331.96 335.35 333.68 332.49 335.51 330.11 C 338.34 331.82 341.19 333.52 343.98 335.32 C 341.65 339.11 338.67 342.78 334.42 344.46 C 325.20 348.50 312.62 345.91 307.37 336.85 C 302.39 327.93 303.39 315.17 311.48 308.36 Z" />
<path fill="#393b3a" opacity="1.00" d=" M 364.40 304.52 C 372.35 302.12 381.76 304.36 387.33 310.65 C 394.84 319.20 393.72 333.72 385.05 341.07 C 377.53 347.51 365.71 348.01 357.63 342.31 C 348.30 335.72 346.54 321.23 353.28 312.21 C 355.96 308.47 360.00 305.80 364.40 304.52 M 366.32 313.46 C 359.61 316.07 358.61 325.06 361.07 330.99 C 364.04 338.52 376.23 338.89 380.00 331.87 C 382.19 327.63 382.22 322.23 380.15 317.95 C 377.74 313.00 371.16 311.48 366.32 313.46 Z" />
<path fill="#393b3a" opacity="1.00" d=" M 398.68 304.37 C 402.05 304.34 405.43 304.34 408.80 304.38 C 408.87 312.28 408.76 320.19 408.84 328.09 C 408.86 331.35 409.71 335.56 413.44 336.40 C 417.80 337.29 424.86 337.58 426.04 331.97 C 427.02 322.84 426.15 313.57 426.49 304.39 C 429.89 304.34 433.30 304.33 436.70 304.38 C 436.71 312.90 436.76 321.43 436.70 329.95 C 436.66 335.72 433.70 341.74 428.23 344.13 C 420.91 347.31 411.86 347.20 404.99 342.93 C 400.75 340.11 398.79 334.95 398.69 330.02 C 398.61 321.47 398.68 312.92 398.68 304.37 Z" />
<path fill="#393b3a" opacity="1.00" d=" M 444.75 304.39 C 449.08 304.33 453.41 304.33 457.74 304.38 C 463.14 313.39 468.32 322.53 473.74 331.52 C 473.78 322.48 473.54 313.43 473.52 304.38 C 476.75 304.33 479.98 304.34 483.22 304.42 C 483.13 318.02 483.45 331.63 483.05 345.23 C 479.06 345.25 475.07 345.25 471.08 345.22 C 465.32 335.60 459.79 325.84 453.83 316.35 C 454.25 325.97 454.33 335.60 454.28 345.23 C 451.10 345.24 447.93 345.25 444.76 345.23 C 444.73 331.61 444.75 318.00 444.75 304.39 Z" />
<path fill="#393b3a" opacity="1.00" d=" M 489.65 304.39 C 501.54 304.34 513.42 304.29 525.31 304.41 C 525.34 307.15 525.34 309.89 525.32 312.63 C 521.25 312.70 517.19 312.67 513.12 312.68 C 513.02 323.53 513.21 334.39 512.79 345.23 C 509.43 345.25 506.07 345.25 502.71 345.23 C 502.64 334.38 502.75 323.54 502.65 312.69 C 498.31 312.66 493.97 312.69 489.64 312.66 C 489.61 309.90 489.61 307.14 489.65 304.39 Z" />
<path fill="#393b3a" opacity="1.00" d=" M 531.74 304.39 C 539.18 304.31 546.61 304.35 554.05 304.35 C 558.49 304.40 563.54 304.94 566.68 308.46 C 569.56 311.82 569.91 316.83 568.56 320.91 C 567.66 323.56 565.15 325.08 562.96 326.55 C 564.54 327.81 566.69 328.83 567.22 330.98 C 568.55 335.62 568.20 340.54 569.30 345.23 C 565.87 344.95 562.08 345.97 558.91 344.59 C 557.75 340.43 559.57 335.10 556.27 331.76 C 552.03 329.36 546.81 330.99 542.17 330.54 C 542.15 335.44 542.37 340.36 541.81 345.24 C 538.45 345.24 535.10 345.24 531.75 345.23 C 531.71 331.62 531.73 318.00 531.74 304.39 M 542.17 313.17 C 542.17 316.16 542.17 319.15 542.24 322.14 C 546.74 322.06 551.29 322.45 555.76 321.69 C 559.91 321.40 560.24 313.54 555.89 313.32 C 551.33 312.93 546.74 313.23 542.17 313.17 Z" />
<path fill="#393b3a" opacity="1.00" d=" M 570.61 304.39 C 574.49 304.34 578.37 304.34 582.25 304.36 C 585.55 309.24 588.39 314.44 591.92 319.17 C 595.02 314.31 597.83 309.28 600.83 304.36 C 604.43 304.34 608.03 304.34 611.64 304.38 C 606.62 312.27 601.63 320.18 596.53 328.02 C 596.48 333.76 596.57 339.50 596.46 345.24 C 593.09 345.24 589.71 345.24 586.34 345.24 C 586.11 339.55 586.63 333.82 586.08 328.16 C 581.29 320.02 575.63 312.40 570.61 304.39 Z" />
</g>
</svg>
