<?xml version="1.0" encoding="UTF-8" standalone="yes"?>
<svg xmlns="http://www.w3.org/2000/svg" xmlns:xlink="http://www.w3.org/1999/xlink" width="189.33333333333331px" height="106.66666666666666px" viewBox="0 0 142 80" version="1.1">
  <g id="surface1">
    <path style=" stroke:none;fill-rule:nonzero;fill:rgb(90.980392%,58.039216%,9.411765%);fill-opacity:1;" d="M 3.695312 0 L 23.375 0 C 23.773438 0.59375 24.277344 1.207031 24.261719 1.964844 C 24.292969 7.316406 24.226562 12.664062 24.292969 18.011719 C 24.476562 18.191406 24.664062 18.378906 24.851562 18.5625 C 30.25 18.601562 35.652344 18.582031 41.054688 18.570312 C 41.804688 17.5625 41.550781 16.277344 41.578125 15.113281 C 41.574219 10.738281 41.574219 6.363281 41.574219 1.988281 C 41.5 1.1875 41.96875 0.503906 42.542969 0 L 64.835938 0 C 63.636719 1.203125 61.949219 1.671875 60.644531 2.730469 C 57.144531 5.527344 54.617188 9.695312 54.246094 14.214844 C 54.027344 17.273438 54.695312 20.472656 56.46875 23.007812 C 57.527344 24.585938 58.773438 26.027344 59.941406 27.523438 C 65.285156 34.246094 70.625 40.972656 76.039062 47.636719 C 76.671875 48.453125 77.457031 49.167969 77.941406 50.089844 C 78.214844 50.734375 77.445312 51.097656 76.984375 51.335938 C 74.175781 52.589844 70.875 52.925781 67.953125 51.863281 C 65.105469 50.804688 62.511719 48.800781 61.167969 46.027344 C 60.191406 44.015625 60.03125 41.472656 61.230469 39.511719 C 61.566406 38.851562 62.132812 38.285156 62.300781 37.542969 C 62.160156 36.917969 61.664062 36.453125 61.296875 35.949219 C 59.84375 34.214844 58.554688 32.34375 57.027344 30.667969 C 55.757812 31.335938 54.839844 32.472656 53.964844 33.578125 C 52.753906 35.117188 51.839844 36.894531 51.304688 38.78125 C 50.460938 41.75 50.617188 44.949219 51.515625 47.890625 C 52.398438 50.707031 54.1875 53.148438 56.246094 55.222656 C 57.597656 56.648438 59.398438 57.472656 61.097656 58.390625 C 61.097656 58.601562 61.097656 58.8125 61.101562 59.027344 C 60.046875 59.265625 58.96875 59.246094 57.902344 59.234375 C 53.238281 59.214844 48.578125 59.246094 43.914062 59.21875 C 42.765625 59.238281 41.554688 58.339844 41.585938 57.117188 C 41.558594 51.996094 41.585938 46.878906 41.578125 41.765625 C 41.578125 41.269531 41.46875 40.699219 41.011719 40.421875 C 40.300781 40.246094 39.554688 40.320312 38.832031 40.3125 C 34.3125 40.34375 29.792969 40.28125 25.273438 40.335938 C 24.597656 40.277344 24.203125 40.941406 24.269531 41.546875 C 24.261719 46.589844 24.265625 51.632812 24.273438 56.671875 C 24.296875 57.40625 24.101562 58.1875 23.527344 58.683594 C 23 59.203125 22.230469 59.296875 21.527344 59.28125 C 16.050781 59.261719 10.574219 59.285156 5.097656 59.269531 C 3.519531 59.316406 2.515625 57.667969 2.605469 56.230469 C 2.605469 38.972656 2.609375 21.710938 2.605469 4.453125 C 2.617188 3.515625 2.535156 2.570312 2.675781 1.640625 C 2.78125 0.976562 3.234375 0.449219 3.695312 0 Z M 3.695312 0 "/>
    <path style=" stroke:none;fill-rule:nonzero;fill:rgb(90.980392%,58.039216%,9.411765%);fill-opacity:1;" d="M 104.144531 0 L 124.011719 0 L 123.386719 0.0351562 C 126.226562 0.894531 128.992188 2.027344 131.496094 3.640625 C 132.703125 4.414062 133.902344 5.207031 135.058594 6.058594 C 135.757812 6.589844 136.492188 7.277344 136.558594 8.210938 C 136.609375 9.0625 136.019531 9.765625 135.414062 10.289062 C 131.5625 13.605469 127.765625 16.992188 123.917969 20.316406 C 122.960938 21.226562 121.484375 21.152344 120.425781 20.464844 C 116.308594 18.023438 110.828125 18.125 106.824219 20.769531 C 104.371094 22.34375 102.492188 24.898438 102 27.800781 C 101.78125 29.589844 101.832031 31.464844 102.546875 33.144531 C 104.011719 36.792969 107.546875 39.375 111.359375 40.070312 C 114.292969 40.714844 117.425781 40.179688 120.050781 38.753906 C 120.875 38.347656 121.726562 37.757812 122.691406 37.941406 C 123.75 38.132812 124.492188 38.980469 125.25 39.671875 C 128.320312 42.519531 131.421875 45.339844 134.503906 48.179688 C 135.242188 48.878906 136.152344 49.480469 136.589844 50.433594 C 136.917969 51.101562 136.691406 51.898438 136.230469 52.441406 C 135.574219 53.21875 134.753906 53.832031 133.929688 54.421875 C 130.386719 56.914062 126.265625 58.511719 122.039062 59.390625 C 117.191406 60.382812 112.113281 60.457031 107.285156 59.332031 C 102.410156 58.1875 97.800781 55.953125 93.851562 52.878906 C 93.003906 52.175781 92.101562 51.519531 91.40625 50.652344 C 91.074219 50.234375 91.445312 49.703125 91.613281 49.296875 C 93.171875 46.410156 94.152344 43.230469 94.695312 40.003906 C 94.992188 38.253906 95.152344 36.460938 94.847656 34.703125 C 93.644531 34.484375 92.414062 34.558594 91.199219 34.554688 C 89.234375 34.601562 87.261719 34.445312 85.304688 34.667969 C 85 36.941406 85.363281 39.335938 84.457031 41.507812 C 84.09375 42.238281 83.167969 41.796875 82.835938 41.261719 C 77.148438 34.199219 71.578125 27.042969 65.953125 19.925781 C 65.085938 18.796875 64.445312 17.4375 64.378906 15.996094 C 64.320312 14.652344 64.300781 13.214844 65.027344 12.023438 C 66.09375 10.207031 68.003906 9.035156 69.949219 8.359375 C 73.101562 7.296875 76.640625 8.050781 79.390625 9.824219 C 81.136719 10.941406 82.316406 12.742188 84.097656 13.8125 C 85.292969 12.40625 86.34375 10.878906 87.652344 9.566406 C 92.15625 4.972656 97.9375 1.648438 104.144531 0 Z M 104.144531 0 "/>
    <path style=" stroke:none;fill-rule:nonzero;fill:rgb(22.352941%,23.137255%,22.745098%);fill-opacity:1;" d="M 57.484375 70.894531 C 56.742188 69.367188 58.054688 67.550781 59.648438 67.414062 C 60.84375 67.183594 61.992188 67.78125 62.820312 68.609375 C 62.441406 69.058594 62.050781 69.503906 61.664062 69.945312 C 61.304688 69.671875 60.976562 69.34375 60.5625 69.152344 C 60.042969 68.898438 59.296875 69.171875 59.164062 69.769531 C 59.246094 70.226562 59.582031 70.570312 59.851562 70.921875 C 60.617188 71.863281 61.359375 72.816406 62.136719 73.746094 C 62.175781 73.4375 62.214844 73.125 62.253906 72.816406 C 62.808594 72.816406 63.363281 72.816406 63.921875 72.828125 C 63.882812 73.675781 63.683594 74.503906 63.328125 75.277344 C 63.710938 75.738281 64.074219 76.214844 64.417969 76.707031 C 63.574219 76.761719 62.734375 76.707031 61.902344 76.566406 C 60.789062 76.839844 59.582031 77.007812 58.488281 76.554688 C 57.457031 76.164062 56.652344 75.128906 56.730469 73.996094 C 56.738281 73.304688 57.179688 72.738281 57.617188 72.246094 C 57.972656 72.652344 58.328125 73.066406 58.679688 73.480469 C 58.667969 73.910156 58.492188 74.449219 58.898438 74.757812 C 59.402344 75.28125 60.179688 75.15625 60.828125 75.113281 C 59.804688 73.636719 58.492188 72.378906 57.484375 70.894531 Z M 57.484375 70.894531 "/>
    <path style=" stroke:none;fill-rule:nonzero;fill:rgb(22.352941%,23.137255%,22.745098%);fill-opacity:1;" d="M 10.808594 67.644531 C 11.5625 67.632812 12.316406 67.632812 13.070312 67.636719 C 13.070312 70.664062 13.082031 73.691406 13.0625 76.71875 C 12.3125 76.722656 11.5625 76.722656 10.8125 76.714844 C 10.796875 75.464844 10.808594 74.214844 10.804688 72.964844 C 9.433594 72.960938 8.058594 72.964844 6.6875 72.964844 C 6.6875 74.214844 6.683594 75.464844 6.6875 76.714844 C 5.925781 76.722656 5.164062 76.722656 4.398438 76.714844 C 4.390625 73.691406 4.390625 70.667969 4.398438 67.644531 C 5.160156 67.628906 5.921875 67.628906 6.683594 67.644531 C 6.6875 68.785156 6.683594 69.925781 6.6875 71.0625 C 8.0625 71.066406 9.433594 71.0625 10.804688 71.0625 C 10.808594 69.925781 10.804688 68.785156 10.808594 67.644531 Z M 10.808594 67.644531 "/>
    <path style=" stroke:none;fill-rule:nonzero;fill:rgb(22.352941%,23.137255%,22.745098%);fill-opacity:1;" d="M 17.859375 67.691406 C 19.625 67.128906 21.726562 67.605469 22.980469 69.003906 C 24.746094 70.941406 24.417969 74.351562 22.339844 75.941406 C 20.683594 77.207031 18.246094 77.292969 16.515625 76.132812 C 14.71875 74.929688 14.109375 72.398438 14.886719 70.429688 C 15.382812 69.121094 16.523438 68.09375 17.859375 67.691406 M 18.847656 69.511719 C 16.957031 69.78125 16.535156 72.1875 17.238281 73.664062 C 17.910156 75.050781 20.011719 75.253906 21.0625 74.199219 C 21.851562 73.3125 21.894531 71.964844 21.53125 70.882812 C 21.148438 69.820312 19.910156 69.308594 18.847656 69.511719 Z M 18.847656 69.511719 "/>
    <path style=" stroke:none;fill-rule:nonzero;fill:rgb(22.352941%,23.137255%,22.745098%);fill-opacity:1;" d="M 25.601562 67.640625 C 27.347656 67.636719 29.09375 67.621094 30.839844 67.640625 C 31.796875 67.679688 32.890625 67.875 33.472656 68.71875 C 34.296875 69.972656 33.996094 72.003906 32.46875 72.566406 C 32.847656 72.84375 33.355469 73.078125 33.460938 73.589844 C 33.734375 74.609375 33.699219 75.683594 33.898438 76.71875 C 33.140625 76.71875 32.386719 76.71875 31.628906 76.71875 C 31.515625 75.886719 31.503906 75.042969 31.359375 74.21875 C 31.273438 73.773438 30.804688 73.53125 30.390625 73.480469 C 29.554688 73.410156 28.710938 73.464844 27.871094 73.453125 C 27.871094 74.539062 27.878906 75.628906 27.859375 76.71875 C 27.109375 76.722656 26.355469 76.71875 25.605469 76.71875 C 25.585938 73.691406 25.59375 70.667969 25.601562 67.640625 M 27.875 69.589844 C 27.871094 70.253906 27.871094 70.921875 27.878906 71.585938 C 28.921875 71.554688 29.980469 71.6875 31.015625 71.472656 C 31.832031 71.277344 31.910156 69.8125 31.039062 69.644531 C 29.992188 69.523438 28.929688 69.617188 27.875 69.589844 Z M 27.875 69.589844 "/>
    <path style=" stroke:none;fill-rule:nonzero;fill:rgb(22.352941%,23.137255%,22.745098%);fill-opacity:1;" d="M 37.171875 67.902344 C 39.246094 67.09375 41.914062 67.308594 43.550781 68.933594 C 43.226562 69.492188 42.691406 69.882812 42.246094 70.332031 C 41.128906 69.261719 39.472656 69.019531 38.035156 69.503906 C 37.984375 69.886719 37.636719 70.480469 38.179688 70.652344 C 39.589844 71.25 41.261719 70.949219 42.609375 71.765625 C 44.453125 72.703125 44.21875 75.886719 42.257812 76.550781 C 39.960938 77.367188 37.101562 77.011719 35.347656 75.21875 C 35.820312 74.75 36.3125 74.292969 36.808594 73.84375 C 37.757812 74.765625 39.085938 75.21875 40.40625 75.042969 C 40.96875 75.039062 41.816406 74.730469 41.589844 74.011719 C 41.621094 73.667969 41.203125 73.601562 40.972656 73.480469 C 39.515625 73.0625 37.84375 73.214844 36.574219 72.265625 C 35.121094 71.183594 35.472656 68.558594 37.171875 67.902344 Z M 37.171875 67.902344 "/>
    <path style=" stroke:none;fill-rule:nonzero;fill:rgb(22.352941%,23.137255%,22.745098%);fill-opacity:1;" d="M 45.226562 67.652344 C 47.777344 67.617188 50.332031 67.632812 52.882812 67.644531 C 52.890625 68.234375 52.890625 68.820312 52.882812 69.410156 C 51.101562 69.425781 49.320312 69.410156 47.539062 69.421875 C 47.535156 70.003906 47.535156 70.585938 47.539062 71.171875 C 48.867188 71.179688 50.195312 71.171875 51.523438 71.175781 C 51.523438 71.761719 51.523438 72.351562 51.519531 72.941406 C 50.191406 72.945312 48.867188 72.941406 47.535156 72.945312 C 47.535156 73.585938 47.535156 74.226562 47.539062 74.867188 C 49.390625 74.945312 51.246094 74.820312 53.101562 74.929688 C 53.105469 75.523438 53.105469 76.121094 53.09375 76.71875 C 50.5 76.726562 47.902344 76.71875 45.300781 76.722656 C 45.125 73.703125 45.269531 70.675781 45.226562 67.652344 Z M 45.226562 67.652344 "/>
    <path style=" stroke:none;fill-rule:nonzero;fill:rgb(22.352941%,23.137255%,22.745098%);fill-opacity:1;" d="M 69.109375 68.523438 C 71.160156 66.765625 74.988281 67.140625 76.132812 69.785156 C 75.574219 70.234375 74.929688 70.570312 74.316406 70.9375 C 73.980469 70.453125 73.683594 69.859375 73.082031 69.660156 C 71.9375 69.144531 70.394531 69.75 70.058594 71.007812 C 69.808594 72.027344 69.8125 73.234375 70.46875 74.109375 C 71.050781 74.859375 72.121094 75.019531 72.988281 74.753906 C 73.652344 74.523438 74.035156 73.886719 74.441406 73.359375 C 75.070312 73.738281 75.703125 74.117188 76.320312 74.515625 C 75.804688 75.359375 75.140625 76.171875 74.199219 76.546875 C 72.152344 77.445312 69.363281 76.867188 68.199219 74.855469 C 67.09375 72.875 67.316406 70.039062 69.109375 68.523438 Z M 69.109375 68.523438 "/>
    <path style=" stroke:none;fill-rule:nonzero;fill:rgb(22.352941%,23.137255%,22.745098%);fill-opacity:1;" d="M 80.851562 67.671875 C 82.613281 67.136719 84.703125 67.636719 85.9375 69.035156 C 87.605469 70.933594 87.355469 74.160156 85.433594 75.792969 C 83.765625 77.222656 81.140625 77.335938 79.347656 76.070312 C 77.277344 74.605469 76.886719 71.382812 78.382812 69.378906 C 78.980469 68.550781 79.875 67.957031 80.851562 67.671875 M 81.277344 69.65625 C 79.789062 70.238281 79.566406 72.234375 80.113281 73.554688 C 80.769531 75.226562 83.476562 75.308594 84.3125 73.75 C 84.796875 72.808594 84.804688 71.605469 84.347656 70.65625 C 83.8125 69.554688 82.351562 69.21875 81.277344 69.65625 Z M 81.277344 69.65625 "/>
    <path style=" stroke:none;fill-rule:nonzero;fill:rgb(22.352941%,23.137255%,22.745098%);fill-opacity:1;" d="M 88.457031 67.636719 C 89.203125 67.632812 89.953125 67.632812 90.703125 67.640625 C 90.71875 69.394531 90.695312 71.152344 90.710938 72.910156 C 90.714844 73.632812 90.90625 74.570312 91.730469 74.753906 C 92.699219 74.953125 94.265625 75.019531 94.527344 73.769531 C 94.746094 71.742188 94.550781 69.683594 94.628906 67.640625 C 95.382812 67.632812 96.136719 67.628906 96.894531 67.640625 C 96.894531 69.535156 96.90625 71.429688 96.894531 73.320312 C 96.882812 74.605469 96.226562 75.941406 95.011719 76.472656 C 93.390625 77.179688 91.382812 77.15625 89.855469 76.207031 C 88.917969 75.578125 88.480469 74.433594 88.460938 73.335938 C 88.441406 71.4375 88.457031 69.539062 88.457031 67.636719 Z M 88.457031 67.636719 "/>
    <path style=" stroke:none;fill-rule:nonzero;fill:rgb(22.352941%,23.137255%,22.745098%);fill-opacity:1;" d="M 98.679688 67.640625 C 99.640625 67.628906 100.601562 67.628906 101.5625 67.640625 C 102.757812 69.640625 103.910156 71.671875 105.109375 73.671875 C 105.121094 71.664062 105.066406 69.652344 105.0625 67.640625 C 105.777344 67.628906 106.496094 67.632812 107.214844 67.648438 C 107.195312 70.671875 107.265625 73.695312 107.175781 76.71875 C 106.292969 76.722656 105.40625 76.722656 104.519531 76.714844 C 103.242188 74.578125 102.015625 72.410156 100.695312 70.300781 C 100.785156 72.4375 100.804688 74.578125 100.792969 76.71875 C 100.085938 76.71875 99.382812 76.722656 98.679688 76.71875 C 98.675781 73.691406 98.679688 70.667969 98.679688 67.640625 Z M 98.679688 67.640625 "/>
    <path style=" stroke:none;fill-rule:nonzero;fill:rgb(22.352941%,23.137255%,22.745098%);fill-opacity:1;" d="M 108.640625 67.640625 C 111.277344 67.632812 113.914062 67.621094 116.554688 67.648438 C 116.558594 68.253906 116.558594 68.863281 116.554688 69.472656 C 115.652344 69.488281 114.75 69.480469 113.847656 69.484375 C 113.828125 71.894531 113.867188 74.308594 113.773438 76.71875 C 113.03125 76.722656 112.285156 76.722656 111.539062 76.71875 C 111.523438 74.308594 111.546875 71.898438 111.527344 69.488281 C 110.5625 69.480469 109.597656 69.488281 108.640625 69.480469 C 108.632812 68.867188 108.632812 68.253906 108.640625 67.640625 Z M 108.640625 67.640625 "/>
    <path style=" stroke:none;fill-rule:nonzero;fill:rgb(22.352941%,23.137255%,22.745098%);fill-opacity:1;" d="M 117.980469 67.640625 C 119.628906 67.625 121.277344 67.632812 122.929688 67.632812 C 123.914062 67.644531 125.035156 67.765625 125.730469 68.546875 C 126.371094 69.292969 126.449219 70.40625 126.148438 71.3125 C 125.949219 71.902344 125.394531 72.238281 124.90625 72.566406 C 125.257812 72.847656 125.734375 73.074219 125.851562 73.550781 C 126.148438 74.582031 126.070312 75.675781 126.3125 76.71875 C 125.550781 76.65625 124.710938 76.882812 124.007812 76.574219 C 123.75 75.652344 124.15625 74.464844 123.421875 73.722656 C 122.480469 73.191406 121.324219 73.554688 120.292969 73.453125 C 120.289062 74.542969 120.339844 75.636719 120.214844 76.71875 C 119.46875 76.71875 118.726562 76.71875 117.980469 76.71875 C 117.972656 73.691406 117.976562 70.667969 117.980469 67.640625 M 120.292969 69.59375 C 120.292969 70.257812 120.292969 70.921875 120.308594 71.585938 C 121.308594 71.570312 122.316406 71.65625 123.308594 71.488281 C 124.230469 71.421875 124.304688 69.675781 123.339844 69.625 C 122.328125 69.539062 121.308594 69.605469 120.292969 69.59375 Z M 120.292969 69.59375 "/>
    <path style=" stroke:none;fill-rule:nonzero;fill:rgb(22.352941%,23.137255%,22.745098%);fill-opacity:1;" d="M 126.605469 67.640625 C 127.464844 67.632812 128.324219 67.632812 129.1875 67.636719 C 129.917969 68.71875 130.550781 69.875 131.332031 70.925781 C 132.019531 69.847656 132.644531 68.730469 133.308594 67.636719 C 134.109375 67.632812 134.90625 67.632812 135.707031 67.640625 C 134.59375 69.394531 133.488281 71.152344 132.355469 72.894531 C 132.34375 74.167969 132.363281 75.445312 132.339844 76.71875 C 131.59375 76.71875 130.84375 76.71875 130.09375 76.71875 C 130.042969 75.457031 130.160156 74.183594 130.035156 72.925781 C 128.972656 71.117188 127.71875 69.421875 126.605469 67.640625 Z M 126.605469 67.640625 "/>
  </g>
</svg>