<?xml version="1.0" encoding="UTF-8" standalone="yes"?>
<svg xmlns="http://www.w3.org/2000/svg" xmlns:xlink="http://www.w3.org/1999/xlink" width="129.33333333333331px" height="106.66666666666666px" viewBox="0 0 97 80" version="1.1">
  <g id="surface1">
    <path style=" stroke:none;fill-rule:nonzero;fill:rgb(0%,49.019608%,77.254902%);fill-opacity:1;" d="M 75.429688 0.566406 C 80.648438 -0.96875 86.617188 1.785156 89.011719 6.664062 C 90.507812 9.601562 90.753906 13.160156 89.550781 16.242188 C 88.09375 20.269531 84.316406 23.34375 80.074219 23.859375 C 78.292969 24.011719 76.445312 23.992188 74.746094 23.371094 C 71.492188 22.3125 68.785156 19.738281 67.507812 16.554688 C 66.144531 13.222656 66.40625 9.261719 68.210938 6.148438 C 69.75 3.421875 72.414062 1.371094 75.429688 0.566406 M 75.695312 2.34375 C 73.339844 3.027344 71.246094 4.601562 69.949219 6.695312 C 67.925781 9.859375 67.910156 14.195312 69.902344 17.378906 C 71.277344 19.628906 73.550781 21.320312 76.117188 21.914062 C 78.871094 22.585938 81.894531 22.035156 84.214844 20.386719 C 87.839844 17.90625 89.511719 12.914062 87.972656 8.757812 C 86.386719 3.820312 80.636719 0.757812 75.695312 2.34375 Z M 75.695312 2.34375 "/>
    <path style=" stroke:none;fill-rule:nonzero;fill:rgb(0%,49.019608%,77.254902%);fill-opacity:1;" d="M 71.308594 9.253906 C 75.289062 7.859375 79.246094 6.382812 83.222656 4.976562 C 83.246094 8.953125 83.226562 12.933594 83.234375 16.914062 C 80.546875 17.820312 77.914062 18.875 75.214844 19.742188 C 75.191406 16.773438 75.246094 13.8125 75.183594 10.84375 C 73.898438 11.335938 72.601562 11.796875 71.304688 12.265625 C 71.300781 11.261719 71.300781 10.257812 71.308594 9.253906 Z M 71.308594 9.253906 "/>
    <path style=" stroke:none;fill-rule:nonzero;fill:rgb(0%,49.019608%,77.254902%);fill-opacity:1;" d="M 0.195312 5.65625 C 3.003906 5.566406 5.796875 5.203125 8.609375 5.160156 C 8.832031 11.3125 8.449219 17.472656 8.707031 23.628906 C 11.730469 22.992188 14.8125 22.683594 17.890625 22.460938 C 21.148438 22.34375 24.5625 22.722656 27.433594 24.375 C 30.378906 26.058594 32.355469 29.304688 32.46875 32.714844 C 32.710938 38.019531 32.414062 43.332031 32.578125 48.644531 C 32.476562 52.828125 32.578125 57.011719 32.515625 61.203125 C 29.566406 61.199219 26.617188 61.199219 23.671875 61.203125 C 23.671875 52.613281 23.667969 44.023438 23.671875 35.4375 C 23.621094 34.066406 23.441406 32.539062 22.453125 31.5 C 21.53125 30.480469 20.121094 30.097656 18.804688 29.941406 C 15.519531 29.722656 12.207031 30.0625 8.996094 30.792969 C 8.898438 40.917969 8.996094 51.050781 8.984375 61.1875 C 6.050781 61.214844 3.117188 61.199219 0.183594 61.195312 C 0.195312 42.683594 0.175781 24.167969 0.195312 5.65625 Z M 0.195312 5.65625 "/>
    <path style=" stroke:none;fill-rule:nonzero;fill:rgb(0%,49.019608%,77.254902%);fill-opacity:1;" d="M 56.4375 22.777344 C 58.554688 22.671875 60.664062 22.382812 62.789062 22.40625 C 62.789062 24.796875 62.789062 27.1875 62.789062 29.582031 C 59.574219 29.878906 56.285156 29.773438 53.148438 30.65625 C 51.589844 31.058594 50.175781 32.273438 49.824219 33.894531 C 49.515625 35.289062 49.519531 36.722656 49.566406 38.144531 C 49.535156 44.339844 49.578125 50.539062 49.535156 56.734375 C 49.585938 58.226562 49.628906 59.714844 49.519531 61.203125 C 46.566406 61.195312 43.613281 61.203125 40.660156 61.203125 C 40.65625 53.019531 40.65625 44.832031 40.65625 36.648438 C 40.71875 34.378906 40.65625 32.003906 41.652344 29.90625 C 42.753906 27.347656 45.050781 25.488281 47.589844 24.476562 C 50.40625 23.367188 53.453125 23.074219 56.4375 22.777344 Z M 56.4375 22.777344 "/>
    <path style=" stroke:none;fill-rule:nonzero;fill:rgb(0%,49.019608%,77.254902%);fill-opacity:1;" d="M 0.132812 66.460938 C 8.644531 70.082031 17.710938 72.222656 26.832031 73.597656 C 30.625 74.097656 34.429688 74.582031 38.257812 74.730469 C 45.117188 75.273438 52.003906 74.929688 58.855469 74.496094 C 71.765625 73.402344 84.734375 71.316406 96.898438 66.675781 C 96.902344 68.304688 96.898438 69.933594 96.902344 71.5625 C 83.992188 76.136719 70.398438 78.695312 56.742188 79.464844 C 45.585938 80.34375 34.34375 79.597656 23.300781 77.855469 C 15.390625 76.53125 7.53125 74.644531 0.117188 71.535156 C 0.121094 69.84375 0.0976562 68.152344 0.132812 66.460938 Z M 0.132812 66.460938 "/>
  </g>
</svg>