<?xml version="1.0" encoding="UTF-8" ?>
<!DOCTYPE svg PUBLIC "-//W3C//DTD SVG 1.1//EN" "http://www.w3.org/Graphics/SVG/1.1/DTD/svg11.dtd">
<svg width="132pt" height="99pt" viewBox="0 0 132 99" version="1.1" xmlns="http://www.w3.org/2000/svg">
<g id="#ffffffff">
</g>
<g id="#201e22ff">
<path fill="#201e22" opacity="1.00" d=" M 108.55 29.24 C 114.32 26.87 122.22 27.59 126.06 33.00 C 129.02 37.05 128.27 42.65 125.75 46.72 C 121.26 54.31 114.48 60.12 108.60 66.59 C 115.03 66.69 121.47 66.60 127.90 66.65 C 127.88 67.46 127.83 69.09 127.80 69.90 C 118.84 69.85 109.87 69.86 100.91 69.90 C 107.25 62.53 114.48 55.92 120.20 48.03 C 122.36 44.89 124.72 41.12 123.47 37.15 C 121.45 30.65 111.56 29.33 107.48 34.54 C 105.88 36.40 105.70 38.92 105.34 41.24 C 104.41 41.24 102.55 41.22 101.62 41.22 C 101.56 36.36 103.83 31.19 108.55 29.24 Z" />
<path fill="#201e22" opacity="1.00" d=" M 4.07 28.84 C 4.89 28.84 6.54 28.83 7.37 28.82 C 7.41 42.50 7.33 56.18 7.42 69.86 C 6.57 69.85 4.87 69.81 4.02 69.80 C 4.10 56.15 4.02 42.49 4.07 28.84 Z" />
<path fill="#201e22" opacity="1.00" d=" M 26.42 45.72 C 26.44 40.07 26.43 34.43 26.44 28.78 C 27.24 28.88 28.84 29.06 29.64 29.16 C 29.93 34.66 29.66 40.17 29.76 45.68 C 28.64 45.69 27.53 45.70 26.42 45.72 Z" />
<path fill="#201e22" opacity="1.00" d=" M 48.28 29.17 C 49.41 29.23 50.54 29.27 51.67 29.31 C 51.65 32.69 51.64 36.06 51.69 39.44 C 50.56 39.45 49.43 39.46 48.31 39.48 C 48.37 36.04 48.30 32.61 48.28 29.17 Z" />
</g>
<g id="#a99f9eff">
<path fill="#a99f9e" opacity="1.00" d=" M 7.37 28.82 C 10.78 28.88 14.18 28.92 17.59 29.07 C 17.56 34.58 17.57 40.09 17.57 45.59 C 20.52 45.70 23.47 45.76 26.42 45.72 C 27.53 45.70 28.64 45.69 29.76 45.68 C 29.66 40.17 29.93 34.66 29.64 29.16 C 35.81 28.50 42.10 28.77 48.28 29.17 C 48.30 32.61 48.37 36.04 48.31 39.48 C 49.43 39.46 50.56 39.45 51.69 39.44 C 51.64 36.06 51.65 32.69 51.67 29.31 C 63.33 29.04 75.00 29.25 86.67 29.18 C 86.69 32.62 86.69 36.06 86.66 39.49 C 82.70 39.50 78.75 39.38 74.80 39.66 C 74.82 41.52 74.83 43.37 74.84 45.23 C 70.70 45.23 66.57 45.26 62.43 45.29 C 62.38 43.36 62.33 41.43 62.28 39.49 L 60.79 39.53 C 60.82 45.55 57.00 51.03 51.36 53.13 C 55.06 58.81 59.25 64.16 62.74 69.97 C 58.06 70.06 53.39 69.92 48.71 70.06 C 45.77 65.42 43.18 60.57 40.25 55.93 C 40.13 60.61 40.24 65.30 40.17 69.99 C 36.19 70.01 32.21 70.01 28.22 69.99 C 28.14 65.11 28.41 60.24 28.06 55.37 C 24.56 55.48 21.07 55.43 17.58 55.45 C 17.55 60.30 17.60 65.14 17.54 69.98 C 14.17 70.04 10.79 70.01 7.42 69.86 C 7.33 56.18 7.41 42.50 7.37 28.82 M 40.27 38.01 C 40.21 40.67 40.17 43.33 40.19 45.99 C 42.55 45.78 45.37 46.09 47.17 44.22 C 48.00 42.95 48.13 41.16 47.35 39.85 C 45.37 38.21 42.72 38.12 40.27 38.01 Z" />
</g>
<g id="#ed1b24ff">
<path fill="#ed1b24" opacity="1.00" d=" M 62.43 45.29 C 66.57 45.26 70.70 45.23 74.84 45.23 C 74.87 49.34 74.85 53.46 74.88 57.58 C 79.04 57.61 83.20 57.60 87.36 57.58 C 87.31 61.72 87.34 65.86 87.38 70.00 C 83.20 70.00 79.02 70.02 74.84 69.97 C 74.86 65.90 74.82 61.83 74.74 57.76 C 70.63 57.80 66.51 57.81 62.40 57.75 C 62.32 53.60 62.54 49.45 62.43 45.29 Z" />
</g>
</svg>
