<?xml version="1.0" encoding="UTF-8" ?>
<!DOCTYPE svg PUBLIC "-//W3C//DTD SVG 1.1//EN" "http://www.w3.org/Graphics/SVG/1.1/DTD/svg11.dtd">
<svg width="615pt" height="390pt" viewBox="0 0 615 390" version="1.1" xmlns="http://www.w3.org/2000/svg">
<g id="#ffffffff">
</g>
<g id="#000000ff">
<path fill="#000000" opacity="1.00" d=" M 577.10 115.06 C 577.98 113.88 579.21 112.88 580.50 114.19 C 580.69 149.91 580.53 185.64 580.59 221.36 C 588.66 221.38 596.74 221.38 604.83 221.36 C 604.80 225.53 604.79 229.70 604.83 233.87 C 596.76 233.91 588.68 233.85 580.60 233.90 C 580.56 246.33 580.58 258.76 580.59 271.19 C 576.05 271.33 571.52 271.29 566.98 271.23 C 566.63 258.80 566.91 246.34 566.83 233.90 C 539.52 233.73 512.20 234.15 484.89 233.69 C 485.31 232.28 485.66 230.80 486.66 229.66 C 516.83 191.48 546.97 153.27 577.10 115.06 M 547.86 171.88 C 534.92 188.36 521.81 204.72 508.96 221.28 C 528.26 221.47 547.57 221.36 566.87 221.34 C 566.71 196.96 566.94 172.58 566.76 148.20 C 560.20 155.87 554.20 164.02 547.86 171.88 Z" />
</g>
<g id="#091959ff">
<path fill="#091959" opacity="1.00" d=" M 81.58 115.66 C 84.80 115.70 88.02 115.70 91.24 115.59 C 91.79 122.72 91.43 129.87 91.51 137.00 C 91.61 182.90 91.34 228.80 91.65 274.70 C 88.24 274.71 84.84 274.71 81.44 274.66 C 81.61 221.66 81.33 168.66 81.58 115.66 Z" />
<path fill="#091959" opacity="1.00" d=" M 175.54 116.54 C 178.49 116.48 181.45 116.51 184.40 116.61 C 184.57 138.19 184.66 159.77 184.35 181.35 C 181.42 181.41 178.49 181.42 175.56 181.38 C 175.34 159.77 175.39 138.15 175.54 116.54 Z" />
<path fill="#091959" opacity="1.00" d=" M 266.37 118.24 C 269.53 117.87 272.71 117.81 275.86 118.20 C 276.59 124.44 276.15 130.73 276.25 137.00 C 276.14 143.58 276.59 150.19 275.82 156.75 C 272.67 156.75 269.53 156.73 266.39 156.70 C 266.44 143.88 266.46 131.06 266.37 118.24 Z" />
</g>
<g id="#a8a19eff">
<path fill="#a8a19e" opacity="1.00" d=" M 91.24 115.59 C 105.97 115.48 120.71 115.53 135.45 115.58 C 135.77 137.14 135.50 158.72 135.58 180.29 C 139.88 181.89 144.50 181.32 148.99 181.36 C 157.37 181.26 165.76 181.50 174.15 181.20 C 174.56 163.47 174.21 145.73 174.31 128.00 C 174.43 123.90 173.90 119.75 174.69 115.70 C 179.39 114.65 184.24 115.62 189.00 115.53 C 210.01 115.54 231.03 115.56 252.04 115.52 C 257.40 115.44 262.63 116.92 267.98 117.04 C 273.99 117.20 279.99 117.51 286.00 117.46 C 331.89 117.39 377.78 117.55 423.67 117.38 C 423.66 130.45 423.50 143.53 423.76 156.60 C 407.61 156.48 391.46 156.75 375.32 156.45 C 374.26 165.92 374.68 175.50 375.22 185.00 C 375.32 199.21 375.15 213.42 375.30 227.64 C 390.88 227.46 406.47 227.62 422.06 227.50 C 423.57 227.77 426.48 227.01 426.67 229.27 C 427.27 236.15 426.66 243.09 426.86 250.00 C 426.67 258.80 427.33 267.63 426.43 276.41 C 409.33 276.54 392.23 276.24 375.14 276.56 C 374.71 274.75 374.31 272.92 374.30 271.05 C 374.25 256.96 374.46 242.87 374.24 228.78 C 357.01 228.26 339.76 228.95 322.54 228.46 C 322.34 214.64 322.58 200.82 322.42 187.00 C 322.26 181.63 323.40 176.34 323.31 170.99 C 323.28 166.55 323.21 162.11 323.12 157.68 C 320.32 157.49 317.51 157.47 314.71 157.60 C 314.40 163.65 315.43 170.03 312.77 175.70 C 310.29 181.33 308.44 187.50 304.03 192.00 C 299.26 196.87 294.33 201.84 288.16 204.92 C 284.44 206.70 280.49 207.98 276.80 209.84 C 287.83 225.23 299.34 240.26 310.33 255.67 C 315.39 262.15 320.58 268.56 324.96 275.54 C 305.10 275.49 285.25 275.53 265.40 275.52 C 254.79 259.11 244.12 242.73 233.89 226.08 C 232.84 224.34 231.41 222.88 229.92 221.53 C 229.20 239.28 229.75 257.08 229.66 274.85 C 221.81 275.86 213.88 275.18 206.00 275.37 C 197.31 275.21 188.60 275.78 179.93 274.93 C 179.40 256.10 179.87 237.25 179.65 218.42 C 165.14 218.62 150.63 218.62 136.13 218.41 C 135.21 224.23 135.65 230.13 135.59 236.00 C 135.61 248.91 135.52 261.82 135.65 274.74 C 120.99 274.84 106.31 274.96 91.65 274.70 C 91.34 228.80 91.61 182.90 91.51 137.00 C 91.43 129.87 91.79 122.72 91.24 115.59 M 175.54 116.54 C 175.39 138.15 175.34 159.77 175.56 181.38 C 178.49 181.42 181.42 181.41 184.35 181.35 C 184.66 159.77 184.57 138.19 184.40 116.61 C 181.45 116.51 178.49 116.48 175.54 116.54 M 266.37 118.24 C 266.46 131.06 266.44 143.88 266.39 156.70 C 269.53 156.73 272.67 156.75 275.82 156.75 C 276.59 150.19 276.14 143.58 276.25 137.00 C 276.15 130.73 276.59 124.44 275.86 118.20 C 272.71 117.81 269.53 117.87 266.37 118.24 M 229.59 151.53 C 229.24 161.57 229.62 171.62 229.39 181.67 C 235.51 181.55 241.65 181.94 247.76 181.38 C 253.69 180.46 259.85 177.14 262.11 171.29 C 263.29 166.77 262.83 161.22 258.92 158.11 C 254.91 155.13 250.24 152.23 245.06 152.37 C 239.89 152.35 234.72 152.18 229.59 151.53 M 323.49 185.96 C 323.67 199.77 323.33 213.58 323.68 227.39 C 340.60 227.76 357.54 227.55 374.47 227.49 C 374.47 211.89 374.63 196.29 374.40 180.69 C 358.28 180.51 342.14 180.50 326.02 180.68 C 323.27 180.71 323.50 184.01 323.49 185.96 M 375.49 228.51 C 375.26 243.86 375.31 259.21 375.44 274.56 C 392.14 274.69 408.84 274.76 425.54 274.53 C 425.74 259.21 425.82 243.87 425.46 228.55 C 408.81 228.35 392.15 228.43 375.49 228.51 Z" />
</g>
<g id="#ee1c25ff">
<path fill="#ee1c25" opacity="1.00" d=" M 323.49 185.96 C 323.50 184.01 323.27 180.71 326.02 180.68 C 342.14 180.50 358.28 180.51 374.40 180.69 C 374.63 196.29 374.47 211.89 374.47 227.49 C 357.54 227.55 340.60 227.76 323.68 227.39 C 323.33 213.58 323.67 199.77 323.49 185.96 Z" />
<path fill="#ee1c25" opacity="1.00" d=" M 375.49 228.51 C 392.15 228.43 408.81 228.35 425.46 228.55 C 425.82 243.87 425.74 259.21 425.54 274.53 C 408.84 274.76 392.14 274.69 375.44 274.56 C 375.31 259.21 375.26 243.86 375.49 228.51 Z" />
</g>
</svg>
