<?xml version="1.0" encoding="UTF-8" standalone="yes"?>
<svg xmlns="http://www.w3.org/2000/svg" xmlns:xlink="http://www.w3.org/1999/xlink" width="324px" height="106.66666666666666px" viewBox="0 0 243 80" version="1.1">
  <defs>
    <clipPath id="clip1">
      <path d="M 0 0 L 80 0 L 80 79.917969 L 0 79.917969 Z M 0 0 "/>
    </clipPath>
  </defs>
  <g id="surface1">
    <g clip-path="url(#clip1)" clip-rule="nonzero">
      <path style=" stroke:none;fill-rule:nonzero;fill:rgb(30.196078%,76.470588%,73.333333%);fill-opacity:1;" d="M 0 79.917969 L 79.679688 79.917969 L 79.679688 0 L 0 0 Z M 0 79.917969 "/>
    </g>
    <path style=" stroke:none;fill-rule:nonzero;fill:rgb(100%,100%,100%);fill-opacity:1;" d="M 35.613281 12.371094 C 32.734375 13.261719 30.097656 14.835938 27.769531 17.050781 C 22.179688 22.382812 22.164062 29.695312 22.191406 30.730469 L 34.53125 30.730469 L 29.042969 26.667969 L 29.042969 26.664062 C 29.132812 26.316406 30.019531 23.164062 33.382812 20.488281 C 36.679688 17.867188 40.660156 17.523438 41.246094 17.488281 L 41.246094 11.542969 C 39.34375 11.523438 37.453125 11.800781 35.613281 12.371094 "/>
    <path style=" stroke:none;fill-rule:nonzero;fill:rgb(100%,100%,100%);fill-opacity:1;" d="M 39.273438 57.21875 L 28.046875 63.308594 L 54.179688 63.308594 L 59.167969 69.171875 L 59.167969 57.21875 L 39.273438 57.21875 "/>
    <path style=" stroke:none;fill-rule:nonzero;fill:rgb(100%,100%,100%);fill-opacity:1;" d="M 45.769531 36.132812 L 36.859375 43.050781 C 30.398438 47.980469 26.53125 53.292969 25.9375 54.179688 C 24.882812 55.761719 23.453125 58.175781 22.4375 60.851562 C 21.316406 63.808594 20.660156 66.679688 20.585938 68.964844 L 28.046875 63.308594 C 28.140625 62.929688 29.070312 59.445312 32.480469 55.394531 C 36.0625 51.136719 38.882812 49.035156 41.152344 47.347656 C 41.660156 46.96875 42.140625 46.609375 42.601562 46.253906 C 42.945312 45.980469 43.472656 45.601562 44.078125 45.160156 C 45.640625 44.035156 47.867188 42.425781 49.6875 40.773438 C 52.613281 38.359375 54.472656 34.722656 54.472656 30.648438 C 54.472656 23.378906 48.550781 17.488281 41.246094 17.488281 L 41.246094 23.546875 C 45.1875 23.546875 48.378906 26.726562 48.378906 30.648438 C 48.378906 32.0625 47.957031 33.382812 47.234375 34.492188 C 46.882812 34.980469 46.410156 35.519531 45.769531 36.132812 "/>
    <path style=" stroke:none;fill-rule:nonzero;fill:rgb(30.196078%,76.470588%,73.333333%);fill-opacity:1;" d="M 100.390625 22.4375 L 105.1875 22.4375 L 105.1875 37.277344 L 121.621094 37.277344 L 121.621094 22.4375 L 126.414062 22.4375 L 126.414062 57.351562 L 121.621094 57.351562 L 121.621094 41.488281 L 105.1875 41.488281 L 105.1875 57.351562 L 100.390625 57.351562 L 100.390625 22.4375 "/>
    <path style=" stroke:none;fill-rule:nonzero;fill:rgb(30.196078%,76.470588%,73.333333%);fill-opacity:1;" d="M 133.359375 49.273438 L 133.359375 32.625 L 137.8125 32.625 L 137.8125 47.855469 C 137.8125 52.015625 139.765625 53.976562 142.945312 53.976562 C 146.519531 53.976562 149.257812 51.429688 149.257812 46.921875 L 149.257812 32.625 L 153.660156 32.625 L 153.660156 57.351562 L 149.402344 57.351562 L 149.402344 53.484375 L 149.304688 53.484375 C 147.59375 56.421875 144.660156 57.890625 141.578125 57.890625 C 136.195312 57.890625 133.359375 54.367188 133.359375 49.273438 "/>
    <path style=" stroke:none;fill-rule:nonzero;fill:rgb(30.196078%,76.470588%,73.333333%);fill-opacity:1;" d="M 160.359375 32.625 L 164.617188 32.625 L 164.617188 36.445312 L 164.714844 36.445312 C 166.425781 33.554688 169.261719 32.085938 172.492188 32.085938 C 176.160156 32.085938 178.359375 33.996094 179.484375 36.589844 L 179.535156 36.589844 C 181.296875 33.75 184.230469 32.085938 187.753906 32.085938 C 192.449219 32.085938 195.921875 34.972656 195.921875 40.214844 L 195.921875 57.351562 L 191.519531 57.351562 L 191.519531 42.074219 C 191.519531 38.15625 189.855469 35.953125 186.429688 35.953125 C 182.859375 35.953125 180.414062 38.84375 180.367188 42.613281 L 180.367188 57.351562 L 175.964844 57.351562 L 175.964844 42.027344 C 175.914062 38.355469 174.449219 35.953125 170.875 35.953125 C 168.136719 35.953125 164.761719 38.058594 164.761719 42.5625 L 164.761719 57.351562 L 160.359375 57.351562 L 160.359375 32.625 "/>
    <path style=" stroke:none;fill-rule:nonzero;fill:rgb(30.196078%,76.470588%,73.333333%);fill-opacity:1;" d="M 218.324219 48.148438 L 218.324219 41.730469 C 218.324219 38.253906 216.074219 35.90625 212.109375 35.90625 C 208.589844 35.90625 205.996094 37.914062 205.996094 41.925781 L 205.996094 48.296875 C 205.996094 51.871094 208.34375 54.21875 212.257812 54.21875 C 215.828125 54.21875 218.324219 52.308594 218.324219 48.148438 Z M 201.546875 48.34375 L 201.546875 42.222656 C 201.546875 35.609375 206.582031 32.132812 212.109375 32.132812 C 218.175781 32.132812 222.824219 35.855469 222.824219 42.125 L 222.824219 47.855469 C 222.824219 54.414062 217.832031 57.988281 212.257812 57.988281 C 206.242188 57.988281 201.546875 54.660156 201.546875 48.34375 "/>
    <path style=" stroke:none;fill-rule:nonzero;fill:rgb(30.196078%,76.470588%,73.333333%);fill-opacity:1;" d="M 228.300781 32.625 L 232.605469 32.625 L 232.605469 37.277344 L 232.703125 37.277344 C 234.511719 33.800781 238.179688 32.183594 241.3125 32.183594 C 241.949219 32.183594 242.632812 32.230469 243.171875 32.332031 L 243.171875 36.445312 C 242.386719 36.296875 241.652344 36.296875 240.921875 36.296875 C 236.324219 36.296875 232.800781 39.039062 232.75 44.132812 L 232.75 57.351562 L 228.300781 57.351562 L 228.300781 32.625 "/>
  </g>
</svg>