<?xml version="1.0" encoding="UTF-8" standalone="no"?>
<!-- Created with Inkscape (http://www.inkscape.org/) -->

<svg
   xmlns:dc="http://purl.org/dc/elements/1.1/"
   xmlns:cc="http://creativecommons.org/ns#"
   xmlns:rdf="http://www.w3.org/1999/02/22-rdf-syntax-ns#"
   xmlns:svg="http://www.w3.org/2000/svg"
   xmlns="http://www.w3.org/2000/svg"
   xmlns:inkscape="http://www.inkscape.org/namespaces/inkscape"
   version="1.1"
   width="520.36249"
   height="170.825"
   id="svg2"
   xml:space="preserve"><metadata
     id="metadata8"><rdf:RDF><cc:Work
         rdf:about=""><dc:format>image/svg+xml</dc:format><dc:type
           rdf:resource="http://purl.org/dc/dcmitype/StillImage" /></cc:Work></rdf:RDF></metadata><defs
     id="defs6"><clipPath
       id="clipPath18"><path
         d="M 0,1366.6 0,0 l 4162.92,0 0,1366.6 -4162.92,0 z"
         inkscape:connector-curvature="0"
         id="path20" /></clipPath></defs><g
     transform="matrix(1.25,0,0,-1.25,0,170.825)"
     id="g10"><g
       transform="scale(0.1,0.1)"
       id="g12"><g
         id="g14"><g
           clip-path="url(#clipPath18)"
           id="g16"><path
             d="m 0,0 1364.07,0 0,1366.6 L 0,1366.6 0,0 z"
             inkscape:connector-curvature="0"
             id="path22"
             style="fill:#4dc3bb;fill-opacity:1;fill-rule:nonzero;stroke:none" /><path
             d="m 609.688,1155.05 c -49.317,-15.22 -94.434,-42.16 -134.29,-80.02 -95.726,-91.206 -95.964,-216.221 -95.472,-233.936 l 211.203,0 -93.945,69.504 0,0.019 c 1.574,5.981 16.707,59.879 74.328,105.613 56.429,44.85 124.57,50.73 134.582,51.34 l 0,101.64 c -32.524,0.36 -64.934,-4.41 -96.406,-14.16"
             inkscape:connector-curvature="0"
             id="path24"
             style="fill:#ffffff;fill-opacity:1;fill-rule:nonzero;stroke:none" /><path
             d="M 672.344,388.168 480.137,284 l 447.371,0 85.422,-100.211 0,204.379 -340.586,0"
             inkscape:connector-curvature="0"
             id="path26"
             style="fill:#ffffff;fill-opacity:1;fill-rule:nonzero;stroke:none" /><path
             d="M 783.57,748.703 631.02,630.426 C 520.414,546.133 454.188,455.297 444.047,440.148 425.98,413.047 401.496,371.816 384.109,326.039 364.918,275.441 353.719,226.371 352.441,187.309 L 480.137,284 c 1.593,6.48 17.515,66.09 75.883,135.328 61.355,72.836 109.625,108.754 148.48,137.66 8.672,6.457 16.918,12.571 24.781,18.696 5.91,4.648 14.942,11.117 25.336,18.66 26.731,19.246 64.867,46.808 96.024,75.019 50.05,41.285 81.914,103.5 81.914,173.176 0,124.273 -101.387,225.031 -226.461,225.031 l 0,-103.613 c 67.465,0 122.105,-54.363 122.105,-121.418 0,-24.23 -7.187,-46.781 -19.551,-65.75 -6.023,-8.371 -14.14,-17.547 -25.078,-28.086"
             inkscape:connector-curvature="0"
             id="path28"
             style="fill:#ffffff;fill-opacity:1;fill-rule:nonzero;stroke:none" /><path
             d="m 1718.65,982.906 82.07,0 0,-253.73 281.36,0 0,253.73 82.07,0 0,-597.051 -82.07,0 0,271.297 -281.36,0 0,-271.297 -82.07,0 0,597.051"
             inkscape:connector-curvature="0"
             id="path30"
             style="fill:#4dc3bb;fill-opacity:1;fill-rule:nonzero;stroke:none" /><path
             d="m 2283.03,524.023 0,284.7 76.2,0 0,-260.426 c 0,-71.16 33.49,-104.668 87.92,-104.668 61.14,0 108.03,43.547 108.03,120.594 l 0,244.5 75.36,0 0,-422.868 -72.84,0 0,66.141 -1.68,0 c -29.31,-50.234 -79.55,-75.355 -132.31,-75.355 -92.11,0 -140.68,60.297 -140.68,147.382"
             inkscape:connector-curvature="0"
             id="path32"
             style="fill:#4dc3bb;fill-opacity:1;fill-rule:nonzero;stroke:none" /><path
             d="m 2745.25,808.723 72.86,0 0,-65.313 1.67,0 c 29.31,49.41 77.89,74.528 133.15,74.528 62.81,0 100.48,-32.661 119.75,-77.04 l 0.83,0 c 30.15,48.575 80.4,77.04 140.68,77.04 80.4,0 139.84,-49.399 139.84,-139.008 l 0,-293.075 -75.36,0 0,261.258 c 0,66.996 -28.46,104.672 -87.09,104.672 -61.13,0 -102.99,-49.398 -103.84,-113.883 l 0,-252.047 -75.36,0 0,262.086 c -0.84,62.809 -25.95,103.844 -87.09,103.844 -46.89,0 -104.67,-36.004 -104.67,-113.035 l 0,-252.895 -75.37,0 0,422.868"
             inkscape:connector-curvature="0"
             id="path34"
             style="fill:#4dc3bb;fill-opacity:1;fill-rule:nonzero;stroke:none" /><path
             d="m 3737.54,543.277 0,109.703 c 0,59.446 -38.52,99.641 -106.34,99.641 -60.3,0 -104.68,-34.328 -104.68,-102.984 l 0,-108.883 c 0,-61.121 40.2,-101.316 107.19,-101.316 61.12,0 103.83,32.656 103.83,103.839 z m -287.22,-3.347 0,104.664 c 0,113.058 86.25,172.508 180.88,172.508 103.83,0 183.38,-63.645 183.38,-170.836 l 0,-97.969 c 0,-112.207 -85.41,-173.328 -180.87,-173.328 -103,0 -183.39,56.929 -183.39,164.961"
             inkscape:connector-curvature="0"
             id="path36"
             style="fill:#4dc3bb;fill-opacity:1;fill-rule:nonzero;stroke:none" /><path
             d="m 3908.35,808.723 73.69,0 0,-79.547 1.68,0 c 30.98,59.461 93.79,87.09 147.38,87.09 10.88,0 22.61,-0.84 31.82,-2.512 l 0,-70.344 c -13.4,2.52 -25.97,2.52 -38.52,2.52 -78.71,0 -139.01,-46.903 -139.85,-133.992 l 0,-226.083 -76.2,0 0,422.868"
             inkscape:connector-curvature="0"
             id="path38"
             style="fill:#4dc3bb;fill-opacity:1;fill-rule:nonzero;stroke:none" /></g></g></g></g></svg>