<?xml version="1.0" encoding="UTF-8" standalone="yes"?>
<svg xmlns="http://www.w3.org/2000/svg" xmlns:xlink="http://www.w3.org/1999/xlink" width="494.66666666666663px" height="106.66666666666666px" viewBox="0 0 371 80" version="1.1">
  <defs>
    <linearGradient id="linear0" gradientUnits="userSpaceOnUse" x1="27.0272" y1="0.0001" x2="27.0272" y2="23.6827" gradientTransform="matrix(3.370684,0,0,3.374578,0,0)">
      <stop offset="0" style="stop-color:rgb(82.352941%,82.352941%,82.352941%);stop-opacity:1;"/>
      <stop offset="1" style="stop-color:rgb(45.098039%,45.490196%,46.27451%);stop-opacity:1;"/>
    </linearGradient>
  </defs>
  <g id="surface1">
    <path style=" stroke:none;fill-rule:evenodd;fill:rgb(100%,100%,100%);fill-opacity:1;" d="M 0 0 L 182.199219 0 L 182.199219 79.921875 L 0 79.921875 Z M 0 0 "/>
    <path style=" stroke:none;fill-rule:evenodd;fill:url(#linear0);" d="M 0 0 L 182.199219 0 L 182.199219 79.917969 L 0 79.917969 Z M 4.042969 3.59375 L 59.390625 3.59375 L 59.390625 76.320312 L 4.042969 76.320312 Z M 63.425781 3.59375 L 118.773438 3.59375 L 118.773438 76.320312 L 63.425781 76.320312 Z M 122.8125 3.59375 L 178.164062 3.59375 L 178.164062 76.320312 L 122.8125 76.320312 Z M 122.8125 3.59375 "/>
    <path style=" stroke:none;fill-rule:evenodd;fill:rgb(73.333333%,7.45098%,21.176471%);fill-opacity:1;" d="M 50.898438 25.167969 L 50.898438 15.578125 L 12.53125 15.578125 L 12.53125 25.167969 L 26.390625 25.167969 L 26.390625 65.125 L 37.039062 65.125 L 37.039062 25.167969 Z M 50.898438 25.167969 "/>
    <path style=" stroke:none;fill-rule:evenodd;fill:rgb(73.333333%,7.45098%,21.176471%);fill-opacity:1;" d="M 91.101562 66.625 L 68.183594 14.980469 L 79.308594 14.980469 L 90.703125 41.097656 L 91.101562 42.652344 L 91.503906 41.078125 L 102.890625 14.980469 L 114.019531 14.980469 Z M 91.101562 66.625 "/>
    <path style=" stroke:none;fill-rule:evenodd;fill:rgb(73.333333%,7.45098%,21.176471%);fill-opacity:1;" d="M 134.785156 15.570312 L 134.785156 65.125 L 144.804688 65.125 L 144.804688 49.996094 L 146.96875 50.066406 C 160.46875 50.066406 167.097656 41.300781 167.097656 32.609375 C 167.09375 24.054688 160.675781 15.570312 147.890625 15.570312 Z M 144.792969 25.160156 L 148.402344 25.160156 C 154.128906 25.246094 156.984375 27.1875 157.394531 32.890625 C 157.039062 38.8125 153.691406 40.695312 147.925781 40.792969 L 144.792969 40.792969 Z M 144.792969 25.160156 "/>
    <path style=" stroke:none;fill-rule:evenodd;fill:rgb(73.333333%,7.45098%,21.176471%);fill-opacity:1;" d="M 182.199219 0 L 370.773438 0 L 370.773438 79.933594 L 182.199219 79.933594 Z M 182.199219 0 "/>
    <path style=" stroke:none;fill-rule:nonzero;fill:rgb(100%,100%,100%);fill-opacity:1;" d="M 309.566406 40.214844 C 309.566406 36.535156 310.199219 33.070312 311.472656 29.839844 C 312.734375 26.59375 314.605469 23.738281 317.074219 21.242188 C 319.402344 18.84375 322.105469 16.980469 325.191406 15.679688 C 328.28125 14.378906 331.507812 13.726562 334.890625 13.726562 C 338.222656 13.726562 341.453125 14.378906 344.574219 15.679688 C 347.683594 16.980469 350.445312 18.851562 352.84375 21.289062 C 355.242188 23.726562 357.066406 26.570312 358.328125 29.816406 C 359.582031 33.070312 360.210938 36.535156 360.210938 40.214844 C 360.210938 43.375 359.78125 46.324219 358.914062 49.066406 C 358.039062 51.804688 356.75 54.289062 355.042969 56.515625 C 352.644531 59.734375 349.671875 62.238281 346.140625 64.019531 C 342.621094 65.8125 338.867188 66.703125 334.890625 66.703125 C 331.53125 66.703125 328.316406 66.046875 325.238281 64.746094 C 322.175781 63.445312 319.449219 61.5625 317.074219 59.113281 C 314.628906 56.609375 312.757812 53.726562 311.484375 50.507812 C 310.210938 47.285156 309.566406 43.855469 309.566406 40.214844 Z M 321.765625 40.214844 C 321.765625 44.535156 323.027344 48.152344 325.566406 51.070312 C 328.105469 53.984375 331.214844 55.449219 334.890625 55.449219 C 338.585938 55.449219 341.695312 53.996094 344.222656 51.089844 C 346.75 48.1875 348.011719 44.558594 348.011719 40.214844 C 348.011719 35.820312 346.761719 32.167969 344.246094 29.265625 C 341.730469 26.359375 338.609375 24.90625 334.890625 24.90625 C 331.167969 24.90625 328.046875 26.371094 325.53125 29.289062 C 323.015625 32.203125 321.765625 35.84375 321.765625 40.214844 Z M 321.765625 40.214844 "/>
    <path style=" stroke:none;fill-rule:nonzero;fill:rgb(100%,100%,100%);fill-opacity:1;" d="M 272.734375 65.085938 L 272.734375 15.339844 L 303.617188 15.339844 L 303.617188 25.457031 L 284.527344 25.457031 L 284.527344 37.898438 L 301.277344 37.898438 L 301.277344 47.949219 L 284.527344 47.949219 L 284.527344 65.085938 Z M 272.734375 65.085938 "/>
    <path style=" stroke:none;fill-rule:nonzero;fill:rgb(100%,100%,100%);fill-opacity:1;" d="M 218.988281 65.085938 L 218.988281 13.726562 L 220.125 13.726562 L 251.0625 42.753906 L 251.0625 15.339844 L 261.996094 15.339844 L 261.996094 66.972656 L 260.96875 66.972656 L 229.925781 37.953125 L 229.925781 65.085938 Z M 218.988281 65.085938 "/>
    <path style=" stroke:none;fill-rule:nonzero;fill:rgb(100%,100%,100%);fill-opacity:1;" d="M 196.179688 65.085938 L 196.179688 15.339844 L 208.039062 15.339844 L 208.039062 65.085938 Z M 196.179688 65.085938 "/>
  </g>
</svg>