<?xml version="1.0" encoding="UTF-8"?>
<!DOCTYPE svg PUBLIC "-//W3C//DTD SVG 1.1//EN" "http://www.w3.org/Graphics/SVG/1.1/DTD/svg11.dtd">
<!-- Creator: CorelDRAW -->
<svg xmlns="http://www.w3.org/2000/svg" xml:space="preserve" width="110mm" height="23.687mm" style="shape-rendering:geometricPrecision; text-rendering:geometricPrecision; image-rendering:optimizeQuality; fill-rule:evenodd; clip-rule:evenodd"
viewBox="0 0 110 23.687"
 xmlns:xlink="http://www.w3.org/1999/xlink">
 <defs>
  <style type="text/css">
   <![CDATA[
    .fil2 {fill:#BB1336}
    .fil0 {fill:white}
    .fil3 {fill:white;fill-rule:nonzero}
    .fil1 {fill:url(#id0)}
   ]]>
  </style>
  <linearGradient id="id0" gradientUnits="userSpaceOnUse" x1="27.0272" y1="0.0001" x2="27.0272" y2="23.6827">
   <stop offset="0" style="stop-color:#D2D2D2"/>
   <stop offset="1" style="stop-color:#737476"/>
  </linearGradient>
 </defs>
 <g id="Warstwa_x0020_1">
  <metadata id="CorelCorpID_0Corel-Layer"/>
  <g id="_62917776">
   <rect id="_3996088" class="fil0" y="-4.9852e-005" width="54.0546" height="23.683"/>
   <g>
    <path id="path5" class="fil1" d="M-0 0.0001l54.0546 0 0 23.6826 -54.0546 0.0001 0 -23.6827 0 0zm1.1989 1.0654l16.4205 0 0 21.5513 -16.4205 0 0 -21.5513 0 0zm17.6179 0l16.4205 0 0 21.5513 -16.4205 0 0 -21.5513 0 0zm17.6191 0l16.4205 0 0 21.5513 -16.4205 0 0 -21.5513 0 0z"/>
    <g>
     <polygon id="path5_0" class="fil2" points="15.1,7.458 15.1,4.6167 3.7181,4.6167 3.7181,7.458 7.83,7.458 7.83,19.2991 10.9881,19.2991 10.9881,7.458 15.1,7.458 "/>
     <polygon id="path5_1" class="fil2" points="27.0272,19.7436 20.2279,4.439 23.5294,4.439 26.909,12.179 27.0272,12.6393 27.1465,12.1727 30.5249,4.439 33.8267,4.439 27.0272,19.7436 "/>
     <path id="path5_2" class="fil2" d="M39.987 4.6138l0 14.6853 2.9736 0 0 -4.4834 0.6415 0.0208c4.0047,0 5.9716,-2.5975 5.9716,-5.1737 -0.0005,-2.5345 -1.9048,-5.0489 -5.6982,-5.0489l-3.8885 -0.0001 0 0zm2.969 2.842l1.0709 0c1.6989,0.0259 2.5466,0.601 2.668,2.2913 -0.1052,1.7539 -1.0988,2.312 -2.8095,2.3412l-0.9294 0 0 -4.6325 0 0z"/>
    </g>
   </g>
   <rect id="_62920632" class="fil2" x="54.0546" y="5.06878e-005" width="55.9454" height="23.6869"/>
   <g>
    <path id="_62920344" class="fil3" d="M91.8407 11.9165c0,-1.0896 0.1874,-2.1168 0.5656,-3.0745 0.3749,-0.9612 0.93,-1.808 1.6622,-2.5472 0.6906,-0.7113 1.4922,-1.263 2.4083,-1.6482 0.9161,-0.3852 1.8738,-0.5795 2.8767,-0.5795 0.989,0 1.9468,0.1943 2.8732,0.5795 0.9231,0.3852 1.742,0.9403 2.4534,1.6622 0.7114,0.7218 1.2528,1.5649 1.6275,2.5263 0.3713,0.9646 0.5587,1.9918 0.5587,3.0814 0,0.9369 -0.1284,1.8114 -0.3852,2.6234 -0.2602,0.812 -0.642,1.5477 -1.1485,2.207 -0.7115,0.9543 -1.5929,1.6969 -2.6408,2.2244 -1.0445,0.5309 -2.1585,0.7946 -3.3383,0.7946 -0.9959,0 -1.9502,-0.1943 -2.8628,-0.5796 -0.9092,-0.3851 -1.7178,-0.9438 -2.4222,-1.6691 -0.7252,-0.7425 -1.2804,-1.5962 -1.6587,-2.5505 -0.3782,-0.9543 -0.5691,-1.971 -0.5691,-3.0502zm3.6194 0c0,1.2804 0.3747,2.3527 1.1278,3.2168 0.7529,0.864 1.676,1.2978 2.7656,1.2978 1.0965,0 2.0196,-0.4302 2.7692,-1.2909 0.7495,-0.8605 1.1243,-1.9363 1.1243,-3.2237 0,-1.3013 -0.3714,-2.384 -1.1174,-3.2446 -0.746,-0.8606 -1.6726,-1.2909 -2.7761,-1.2909 -1.1035,0 -2.03,0.4338 -2.7761,1.2979 -0.746,0.8641 -1.1173,1.9432 -1.1173,3.2376z"/>
    <polygon id="_62920464" class="fil3" points="80.9142,19.287 80.9142,4.5459 90.0753,4.5459 90.0753,7.5442 84.4121,7.5442 84.4121,8.6164 84.4121,10.4833 84.4121,11.2311 89.3814,11.2311 89.3814,14.2085 84.4121,14.2085 84.4121,17.0214 84.4121,19.287 "/>
    <polygon id="_62921544" class="fil3" points="64.9686,19.287 64.9686,4.0671 65.3052,4.0671 74.4836,12.6695 74.4836,4.5459 77.7281,4.5459 77.7281,19.8457 77.4228,19.8457 68.2131,11.2467 68.2131,19.287 "/>
    <polygon id="_62921064" class="fil3" points="58.2014,19.287 58.2014,4.5459 61.7201,4.5459 61.7201,19.287 "/>
   </g>
  </g>
 </g>
</svg>
