<?xml version="1.0" encoding="UTF-8" standalone="yes"?>
<svg xmlns="http://www.w3.org/2000/svg" xmlns:xlink="http://www.w3.org/1999/xlink" width="364px" height="106.66666666666666px" viewBox="0 0 273 80" version="1.1">
  <g id="surface1">
    <path style=" stroke:none;fill-rule:nonzero;fill:rgb(100%,49.411765%,3.529412%);fill-opacity:1;" d="M 1.21875 25.367188 L 40.707031 25.367188 L 40.707031 33.902344 L 15.113281 60.976562 L 30.46875 60.976562 L 30.46875 52.195312 L 40.707031 52.195312 L 40.707031 69.757812 L 0 69.757812 L 0 61.464844 L 25.640625 34.339844 L 11.699219 34.339844 L 11.699219 42.4375 L 1.21875 42.4375 "/>
    <path style=" stroke:none;fill-rule:nonzero;fill:rgb(100%,49.411765%,3.529412%);fill-opacity:1;" d="M 96.039062 69.757812 L 119.925781 69.757812 L 119.925781 60.488281 L 113.585938 60.488281 L 113.585938 35.121094 L 121.875 35.121094 L 121.875 25.367188 L 113.585938 25.367188 L 113.585938 23.414062 C 113.585938 19.839844 113.96875 19.511719 117 19.511719 L 122.605469 19.511719 L 122.605469 10.242188 L 111.148438 10.242188 C 105.054688 10.242188 101.886719 13.984375 101.886719 19.511719 L 101.886719 25.367188 L 95.792969 25.367188 L 95.792969 35.121094 L 101.886719 35.121094 L 101.886719 60.488281 L 96.039062 60.488281 "/>
    <path style=" stroke:none;fill-rule:nonzero;fill:rgb(100%,49.411765%,3.529412%);fill-opacity:1;" d="M 85.3125 10.242188 L 85.3125 60.242188 L 91.40625 60.242188 L 91.40625 69.757812 L 73.125 69.757812 L 73.125 64.175781 C 67.21875 69.757812 65.324219 69.757812 59.71875 69.757812 C 52.675781 69.757812 45.335938 70.792969 45.335938 52.414062 L 45.335938 43.796875 C 45.335938 26.03125 51.238281 25.367188 59.71875 25.367188 C 67.253906 25.367188 68.453125 26.253906 73.125 30.242188 L 73.125 19.757812 L 67.273438 19.757812 L 67.273438 10.242188 Z M 61.238281 35.085938 C 57.398438 35.148438 57.308594 38.625 57.296875 42.0625 L 57.261719 54.996094 C 57.253906 58.789062 59.394531 60.179688 60.207031 60.1875 L 66.996094 60.28125 C 69.066406 60.308594 73.125 58.835938 73.125 58.835938 L 73.125 36.828125 C 73.125 36.828125 70.492188 34.941406 66.71875 35 Z M 61.238281 35.085938 "/>
    <path style=" stroke:none;fill-rule:nonzero;fill:rgb(0%,0%,0%);fill-opacity:1;" d="M 145.136719 0 L 262.902344 0 C 268.496094 0 273 4.507812 273 10.105469 L 273 69.894531 C 273 75.492188 268.496094 80 262.902344 80 L 145.136719 80 C 139.542969 80 135.039062 75.492188 135.039062 69.894531 L 135.039062 58.535156 L 120.898438 44.390625 L 135.039062 44.390625 L 135.039062 10.105469 C 135.039062 4.507812 139.542969 0 145.136719 0 Z M 145.136719 0 "/>
    <path style=" stroke:none;fill-rule:nonzero;fill:rgb(100%,100%,100%);fill-opacity:1;" d="M 147.957031 37.316406 L 161.605469 37.316406 L 161.605469 62.683594 L 165.992188 62.683594 L 165.992188 70 L 147.957031 70 L 147.949219 62.621094 L 152.585938 62.683594 L 152.585938 44.632812 L 147.957031 44.632812 "/>
    <path style=" stroke:none;fill-rule:nonzero;fill:rgb(100%,100%,100%);fill-opacity:1;" d="M 152.101562 25.367188 L 161.363281 25.367188 L 161.363281 33.171875 L 152.101562 33.171875 Z M 152.101562 25.367188 "/>
    <path style=" stroke:none;fill-rule:nonzero;fill:rgb(100%,100%,100%);fill-opacity:1;" d="M 169.40625 37.316406 L 182.570312 37.316406 L 182.570312 41.464844 C 187.882812 36.949219 188.894531 37.316406 192.457031 37.316406 C 199.707031 37.320312 201.816406 38.921875 201.824219 45.855469 L 201.824219 62.683594 L 206.210938 62.683594 L 206.210938 70 L 189.394531 70 L 189.394531 62.683594 L 192.804688 62.683594 L 192.804688 47.316406 C 192.804688 44.910156 192.074219 44.429688 188.417969 44.390625 C 186.4375 44.371094 184.765625 44.707031 182.570312 45.855469 L 182.570312 62.683594 L 185.980469 62.683594 L 185.980469 70 L 169.164062 70 L 169.164062 62.683594 L 173.550781 62.683594 L 173.550781 44.390625 L 169.40625 44.390625 "/>
    <path style=" stroke:none;fill-rule:nonzero;fill:rgb(100%,100%,100%);fill-opacity:1;" d="M 238.605469 37.316406 L 253.039062 37.316406 C 257.210938 37.316406 260.570312 42.039062 260.570312 47.902344 L 260.570312 59.417969 C 260.570312 65.28125 257.210938 70 253.039062 70 L 238.605469 70 C 234.433594 70 231.074219 65.28125 231.074219 59.417969 L 231.074219 47.902344 C 231.074219 42.039062 234.433594 37.316406 238.605469 37.316406 Z M 238.605469 37.316406 "/>
    <path style=" stroke:none;fill-rule:nonzero;fill:rgb(0%,0%,0%);fill-opacity:1;" d="M 241.710938 44.390625 L 249.933594 44.390625 C 250.828125 44.390625 251.550781 46.664062 251.550781 49.484375 L 251.550781 57.585938 C 251.550781 60.410156 250.828125 62.683594 249.933594 62.683594 L 241.710938 62.683594 C 240.816406 62.683594 240.09375 60.410156 240.09375 57.585938 L 240.09375 49.484375 C 240.09375 46.664062 240.816406 44.390625 241.710938 44.390625 Z M 241.710938 44.390625 "/>
    <path style=" stroke:none;fill-rule:nonzero;fill:rgb(100%,100%,100%);fill-opacity:1;" d="M 209.316406 70 L 227.175781 70 L 227.175781 62.683594 L 222.542969 62.683594 L 222.542969 44.496094 L 228.636719 44.496094 L 228.636719 37.3125 L 222.542969 37.3125 L 222.542969 35.875 C 222.542969 33.246094 222.765625 33.003906 224.996094 33.003906 L 229.125 33.003906 L 229.125 26.175781 L 220.445312 26.175781 C 215.957031 26.175781 213.625 28.929688 213.625 33.003906 L 213.625 37.3125 L 209.136719 37.3125 L 209.136719 44.496094 L 213.625 44.496094 L 213.625 62.683594 L 209.316406 62.683594 "/>
  </g>
</svg>