<?xml version="1.0" encoding="UTF-8" standalone="yes"?>
<svg xmlns="http://www.w3.org/2000/svg" xmlns:xlink="http://www.w3.org/1999/xlink" width="141.33333333333331px" height="106.66666666666666px" viewBox="0 0 106 80" version="1.1">
  <g id="surface1">
    <path style=" stroke:none;fill-rule:nonzero;fill:rgb(38.823529%,39.215686%,40%);fill-opacity:1;" d="M 82.613281 8.648438 C 83.226562 8.546875 83.886719 8.554688 84.414062 8.933594 C 83.824219 8.769531 83.21875 8.710938 82.613281 8.648438 Z M 82.613281 8.648438 "/>
    <path style=" stroke:none;fill-rule:nonzero;fill:rgb(38.823529%,39.215686%,40%);fill-opacity:1;" d="M 74 9.214844 C 75.144531 9 76.375 8.816406 77.492188 9.265625 C 78.585938 9.6875 79.53125 10.769531 79.414062 12.003906 C 79.25 12.90625 78.980469 13.78125 78.75 14.667969 C 75.648438 26.0625 72.578125 37.464844 69.390625 48.839844 C 69.085938 49.738281 68.992188 50.742188 68.429688 51.53125 C 67.636719 52.382812 66.34375 52.386719 65.292969 52.136719 C 65.144531 51.996094 64.972656 51.941406 64.777344 51.972656 C 64.019531 51.996094 63.28125 51.816406 62.535156 51.71875 C 60.558594 51.371094 58.5625 51.160156 56.585938 50.8125 C 56.429688 50.683594 56.253906 50.628906 56.058594 50.652344 C 55.234375 50.667969 54.429688 50.488281 53.613281 50.394531 C 47.296875 49.417969 40.957031 48.550781 34.648438 47.515625 C 34.777344 47.054688 34.914062 46.59375 35.058594 46.132812 C 39.910156 46.691406 44.730469 47.484375 49.574219 48.089844 C 53.128906 48.625 56.691406 49.074219 60.246094 49.597656 C 61.523438 49.738281 62.816406 50.027344 64.105469 49.796875 C 64.84375 49.617188 65.328125 48.90625 65.453125 48.179688 C 66.578125 42.386719 67.679688 36.59375 68.785156 30.796875 C 69.0625 29.550781 69.15625 28.269531 69.519531 27.042969 C 69.644531 26.886719 69.695312 26.710938 69.671875 26.515625 C 69.664062 26.21875 69.691406 25.917969 69.75 25.625 C 70.210938 23.132812 70.683594 20.640625 71.070312 18.136719 C 71.230469 17.433594 70.910156 16.675781 70.308594 16.285156 C 69.257812 15.5 67.875 15.539062 66.628906 15.585938 C 62.644531 15.851562 58.675781 16.226562 54.699219 16.605469 C 49.875 17.0625 45.050781 17.46875 40.234375 17.992188 C 38.386719 18.136719 36.546875 18.355469 34.695312 18.476562 C 34.695312 17.097656 34.695312 15.722656 34.695312 14.34375 C 45.78125 12.914062 56.863281 11.457031 67.949219 10.007812 C 69.792969 9.824219 71.621094 9.414062 73.476562 9.363281 C 73.671875 9.394531 73.847656 9.34375 74 9.214844 Z M 74 9.214844 "/>
    <path style=" stroke:none;fill-rule:nonzero;fill:rgb(38.823529%,39.215686%,40%);fill-opacity:1;" d="M 80.296875 13.832031 C 80.308594 13.808594 80.324219 13.757812 80.332031 13.730469 C 80.324219 13.757812 80.308594 13.808594 80.296875 13.832031 Z M 80.296875 13.832031 "/>
    <path style=" stroke:none;fill-rule:nonzero;fill:rgb(38.823529%,39.215686%,40%);fill-opacity:1;" d="M 78.40625 21.339844 C 78.207031 21.066406 78.265625 20.890625 78.582031 20.8125 C 78.605469 21.015625 78.546875 21.191406 78.40625 21.339844 Z M 78.40625 21.339844 "/>
    <path style=" stroke:none;fill-rule:nonzero;fill:rgb(38.823529%,39.215686%,40%);fill-opacity:1;" d="M 18.445312 21.402344 C 19.609375 21.257812 20.785156 21.375 21.957031 21.339844 C 27.890625 21.363281 33.824219 21.292969 39.757812 21.378906 C 41.4375 21.542969 43.3125 21.902344 44.46875 23.25 C 45.332031 24.222656 45.273438 25.605469 45.160156 26.816406 C 44.679688 29.597656 43.175781 32.265625 40.75 33.769531 C 39.257812 34.75 37.503906 35.195312 35.769531 35.511719 C 35.3125 35.621094 34.914062 35.28125 34.464844 35.308594 C 30.738281 35.351562 27.011719 35.308594 23.285156 35.335938 C 26.902344 35.332031 30.519531 35.359375 34.136719 35.316406 C 34.386719 35.253906 34.554688 35.480469 34.707031 35.636719 C 30.851562 35.664062 26.996094 35.628906 23.140625 35.652344 C 22.390625 37.808594 21.710938 39.988281 21.011719 42.160156 C 17.882812 42.15625 14.75 42.164062 11.617188 42.164062 C 12.226562 39.972656 13.101562 37.859375 13.660156 35.65625 C 12.308594 35.621094 10.953125 35.671875 9.597656 35.632812 C 9.683594 35.089844 10.046875 34.65625 10.195312 34.136719 C 10.566406 32.957031 10.9375 31.78125 11.339844 30.617188 C 12.742188 30.515625 14.179688 30.734375 15.558594 30.515625 C 16.5625 27.492188 17.496094 24.441406 18.445312 21.402344 M 26.214844 26.160156 C 25.832031 27.660156 25.214844 29.085938 24.820312 30.585938 C 27.019531 30.625 29.21875 30.605469 31.417969 30.597656 C 32.609375 30.578125 33.976562 30.265625 34.671875 29.203125 C 35.074219 28.410156 35.417969 27.316406 34.734375 26.578125 C 34.265625 26.261719 33.648438 26.257812 33.101562 26.175781 C 30.808594 26.152344 28.511719 26.183594 26.214844 26.160156 Z M 26.214844 26.160156 "/>
    <path style=" stroke:none;fill-rule:nonzero;fill:rgb(38.823529%,39.215686%,40%);fill-opacity:1;" d="M 48.191406 21.378906 C 51.339844 21.355469 54.484375 21.398438 57.632812 21.355469 C 55.976562 26.453125 54.238281 31.523438 52.617188 36.628906 C 57.339844 36.691406 62.0625 36.625 66.785156 36.660156 C 66.308594 38.503906 65.847656 40.355469 65.386719 42.203125 C 57.359375 42.203125 49.332031 42.179688 41.304688 42.214844 C 43.0625 37.226562 44.625 32.167969 46.320312 27.15625 C 46.910156 25.21875 47.652344 23.332031 48.191406 21.378906 Z M 48.191406 21.378906 "/>
    <path style=" stroke:none;fill-rule:nonzero;fill:rgb(38.823529%,39.215686%,40%);fill-opacity:1;" d="M 92.425781 22.492188 C 92.949219 22.171875 93.5 21.910156 94.085938 21.726562 C 93.5625 22.039062 93.003906 22.300781 92.425781 22.492188 Z M 92.425781 22.492188 "/>
    <path style=" stroke:none;fill-rule:nonzero;fill:rgb(38.823529%,39.215686%,40%);fill-opacity:1;" d="M 77.167969 27.890625 C 76.902344 27.183594 76.941406 26.410156 77.1875 25.703125 C 77.125 26.429688 77.144531 27.160156 77.167969 27.890625 Z M 77.167969 27.890625 "/>
    <path style=" stroke:none;fill-rule:nonzero;fill:rgb(38.823529%,39.215686%,40%);fill-opacity:1;" d="M 82.523438 26.632812 C 82.613281 26.589844 82.789062 26.503906 82.878906 26.460938 L 82.855469 26.628906 L 82.671875 26.71875 Z M 82.523438 26.632812 "/>
    <path style=" stroke:none;fill-rule:nonzero;fill:rgb(38.823529%,39.215686%,40%);fill-opacity:1;" d="M 19.652344 54.960938 C 21.484375 56.75 23.128906 58.726562 24.980469 60.492188 C 25.035156 60.445312 25.136719 60.347656 25.1875 60.300781 C 25.25 58.582031 25.132812 56.859375 25.246094 55.140625 C 25.390625 55.15625 25.671875 55.1875 25.8125 55.203125 C 25.886719 57.59375 25.863281 59.996094 25.816406 62.390625 C 24.933594 61.566406 24.140625 60.652344 23.28125 59.808594 C 22.296875 58.859375 21.523438 57.695312 20.414062 56.878906 C 20.351562 58.664062 20.386719 60.449219 20.394531 62.234375 C 20.148438 62.238281 19.902344 62.25 19.65625 62.257812 C 19.636719 59.828125 19.636719 57.394531 19.652344 54.960938 Z M 19.652344 54.960938 "/>
    <path style=" stroke:none;fill-rule:nonzero;fill:rgb(38.823529%,39.215686%,40%);fill-opacity:1;" d="M 44.746094 55.097656 C 45.863281 54.746094 47.085938 55.03125 48.050781 55.65625 C 49.171875 56.433594 49.820312 57.867188 49.617188 59.226562 C 49.441406 60.160156 49.023438 61.125 48.207031 61.664062 C 46.351562 63.160156 43.085938 62.523438 42.199219 60.210938 C 41.265625 58.1875 42.546875 55.523438 44.746094 55.097656 M 43.785156 58.859375 C 43.800781 59.957031 44.921875 60.921875 45.992188 60.730469 L 46.140625 60.820312 L 46.324219 60.730469 L 46.351562 60.558594 C 47.003906 60.550781 47.425781 59.902344 47.671875 59.363281 C 48.191406 58.082031 46.96875 56.542969 45.609375 56.738281 C 44.527344 56.695312 43.675781 57.820312 43.785156 58.859375 Z M 43.785156 58.859375 "/>
    <path style=" stroke:none;fill-rule:nonzero;fill:rgb(38.823529%,39.215686%,40%);fill-opacity:1;" d="M 57.152344 55.191406 C 58.191406 54.691406 59.335938 55.171875 60.320312 55.566406 C 60.089844 56.015625 59.859375 56.46875 59.617188 56.917969 C 59.011719 56.574219 58.3125 56.375 57.660156 56.714844 C 57.640625 56.949219 57.621094 57.1875 57.601562 57.421875 C 58.488281 57.96875 59.722656 57.949219 60.351562 58.878906 C 60.867188 59.917969 60.589844 61.390625 59.535156 61.988281 C 58.265625 62.71875 56.660156 62.386719 55.457031 61.664062 C 55.679688 61.164062 55.933594 60.683594 56.191406 60.203125 C 56.761719 60.574219 57.398438 60.96875 58.109375 60.84375 C 58.65625 60.878906 58.925781 60.101562 58.554688 59.742188 C 57.792969 59.238281 56.75 59.253906 56.101562 58.574219 C 55.277344 57.460938 55.839844 55.640625 57.152344 55.191406 Z M 57.152344 55.191406 "/>
    <path style=" stroke:none;fill-rule:nonzero;fill:rgb(38.823529%,39.215686%,40%);fill-opacity:1;" d="M 11.015625 55.199219 C 11.277344 55.191406 11.535156 55.1875 11.796875 55.183594 C 11.832031 56.160156 11.796875 57.144531 11.832031 58.125 C 12.894531 57.238281 13.769531 56.148438 14.804688 55.230469 C 15.121094 55.152344 15.453125 55.191406 15.773438 55.1875 C 14.769531 56.332031 13.597656 57.320312 12.589844 58.46875 C 13.636719 59.785156 14.855469 60.945312 15.933594 62.234375 C 15.570312 62.238281 15.210938 62.230469 14.847656 62.226562 C 14.171875 61.3125 13.34375 60.539062 12.648438 59.644531 C 12.441406 59.355469 12.160156 59.125 11.820312 59.007812 C 11.78125 60.085938 11.875 61.167969 11.773438 62.246094 C 11.523438 62.246094 11.273438 62.246094 11.023438 62.25 C 11.035156 59.902344 11.042969 57.550781 11.015625 55.199219 Z M 11.015625 55.199219 "/>
    <path style=" stroke:none;fill-rule:nonzero;fill:rgb(38.823529%,39.215686%,40%);fill-opacity:1;" d="M 17 55.183594 C 17.253906 55.183594 17.511719 55.1875 17.765625 55.191406 C 17.738281 57.542969 17.753906 59.894531 17.757812 62.242188 C 17.511719 62.238281 17.265625 62.238281 17.019531 62.238281 C 16.980469 59.886719 17.015625 57.535156 17 55.183594 Z M 17 55.183594 "/>
    <path style=" stroke:none;fill-rule:nonzero;fill:rgb(38.823529%,39.215686%,40%);fill-opacity:1;" d="M 27.359375 58.859375 C 27.199219 57.113281 28.605469 55.347656 30.347656 55.191406 C 30.75 55.1875 31.15625 55.183594 31.558594 55.175781 C 33.25 55.316406 34.628906 56.980469 34.605469 58.667969 C 34.667969 60.515625 33.078125 62.234375 31.242188 62.3125 C 29.292969 62.539062 27.335938 60.863281 27.359375 58.859375 M 30.160156 55.847656 C 28.898438 56.222656 27.933594 57.519531 28.101562 58.859375 C 28.027344 59.964844 28.855469 60.847656 29.71875 61.394531 C 31.523438 62.351562 34.054688 60.75 33.832031 58.667969 C 34.019531 56.765625 31.894531 55.277344 30.160156 55.847656 Z M 30.160156 55.847656 "/>
    <path style=" stroke:none;fill-rule:nonzero;fill:rgb(38.823529%,39.215686%,40%);fill-opacity:1;" d="M 35.914062 55.195312 C 37.007812 55.1875 38.097656 55.160156 39.191406 55.199219 C 40.15625 55.246094 41.042969 56.019531 41.167969 56.996094 C 41.371094 58.042969 40.988281 59.359375 39.898438 59.730469 C 39.179688 59.867188 38.445312 59.84375 37.71875 59.859375 C 37.710938 60.652344 37.722656 61.445312 37.695312 62.234375 C 37.109375 62.230469 36.523438 62.230469 35.941406 62.230469 C 35.882812 59.886719 35.917969 57.539062 35.914062 55.195312 M 37.65625 56.625 C 37.625 57.230469 37.617188 57.84375 37.671875 58.453125 C 38.140625 58.453125 38.609375 58.425781 39.074219 58.382812 C 39.21875 58.050781 39.488281 57.734375 39.414062 57.347656 C 39.335938 57.070312 39.121094 56.859375 38.957031 56.628906 C 38.523438 56.636719 38.089844 56.632812 37.65625 56.625 Z M 37.65625 56.625 "/>
    <path style=" stroke:none;fill-rule:nonzero;fill:rgb(38.823529%,39.215686%,40%);fill-opacity:1;" d="M 50.847656 55.183594 C 51.429688 55.179688 52.015625 55.183594 52.601562 55.195312 C 52.640625 57.035156 52.546875 58.878906 52.652344 60.71875 C 53.296875 60.777344 53.9375 60.902344 54.589844 60.894531 C 54.570312 61.335938 54.582031 61.773438 54.628906 62.214844 C 53.367188 62.238281 52.105469 62.230469 50.84375 62.214844 C 50.84375 59.871094 50.839844 57.527344 50.847656 55.183594 Z M 50.847656 55.183594 "/>
    <path style=" stroke:none;fill-rule:nonzero;fill:rgb(38.823529%,39.215686%,40%);fill-opacity:1;" d="M 61.765625 55.21875 C 62.371094 55.175781 62.976562 55.175781 63.585938 55.191406 C 63.570312 56.078125 63.554688 56.96875 63.574219 57.855469 C 63.976562 57.722656 64.195312 57.347656 64.4375 57.027344 C 64.890625 56.398438 65.359375 55.78125 65.863281 55.1875 C 66.578125 55.183594 67.292969 55.171875 68.011719 55.199219 C 67.175781 56.390625 66.007812 57.34375 65.304688 58.621094 C 66.351562 59.792969 67.316406 61.039062 68.332031 62.246094 C 67.535156 62.230469 66.738281 62.226562 65.941406 62.226562 C 65.203125 61.234375 64.546875 60.132812 63.589844 59.335938 C 63.542969 60.304688 63.5625 61.269531 63.574219 62.238281 C 62.972656 62.230469 62.371094 62.230469 61.765625 62.230469 C 61.773438 59.890625 61.777344 57.554688 61.765625 55.21875 Z M 61.765625 55.21875 "/>
    <path style=" stroke:none;fill-rule:nonzero;fill:rgb(38.823529%,39.215686%,40%);fill-opacity:1;" d="M 71.191406 55.195312 C 71.8125 55.1875 72.433594 55.148438 73.054688 55.207031 C 73.285156 55.355469 73.308594 55.667969 73.425781 55.902344 C 74.175781 58.023438 75.027344 60.109375 75.765625 62.234375 C 75.144531 62.230469 74.519531 62.230469 73.898438 62.234375 C 73.734375 61.816406 73.5625 61.398438 73.390625 60.988281 C 72.558594 60.96875 71.710938 60.871094 70.886719 61.03125 C 70.664062 61.402344 70.535156 61.824219 70.371094 62.230469 C 69.75 62.230469 69.128906 62.230469 68.503906 62.230469 C 69.402344 59.886719 70.285156 57.535156 71.191406 55.195312 M 71.40625 59.683594 C 71.90625 59.683594 72.40625 59.683594 72.902344 59.675781 C 72.777344 58.917969 72.566406 58.15625 72.125 57.515625 C 71.757812 58.1875 71.515625 58.921875 71.40625 59.683594 Z M 71.40625 59.683594 "/>
    <path style=" stroke:none;fill-rule:nonzero;fill:rgb(38.823529%,39.215686%,40%);fill-opacity:1;" d="M 13.46875 64.707031 C 14.535156 65.800781 15.605469 66.890625 16.644531 68.011719 C 17.058594 68.433594 17.382812 68.980469 17.949219 69.21875 C 17.953125 67.835938 17.921875 66.457031 17.949219 65.078125 C 18.261719 65.074219 18.574219 65.078125 18.882812 65.089844 C 18.871094 67.273438 18.828125 69.453125 18.894531 71.632812 C 18.003906 70.695312 17.089844 69.785156 16.226562 68.824219 C 15.628906 68.191406 15.085938 67.488281 14.378906 66.96875 C 14.3125 68.378906 14.386719 69.785156 14.339844 71.195312 C 14.050781 71.203125 13.761719 71.210938 13.476562 71.21875 C 13.496094 69.046875 13.464844 66.878906 13.46875 64.707031 Z M 13.46875 64.707031 "/>
    <path style=" stroke:none;fill-rule:nonzero;fill:rgb(38.823529%,39.215686%,40%);fill-opacity:1;" d="M 33.761719 64.695312 C 34.675781 65.492188 35.378906 66.496094 36.253906 67.328125 C 36.929688 67.953125 37.46875 68.738281 38.230469 69.265625 C 38.265625 67.867188 38.242188 66.464844 38.234375 65.066406 C 38.410156 65.0625 38.761719 65.054688 38.9375 65.050781 C 38.769531 67.074219 38.921875 69.109375 38.839844 71.136719 C 37.296875 69.90625 36.179688 68.203125 34.625 66.992188 C 34.582031 68.398438 34.617188 69.804688 34.609375 71.214844 C 34.339844 71.214844 34.070312 71.21875 33.800781 71.226562 C 33.789062 69.046875 33.828125 66.871094 33.761719 64.695312 Z M 33.761719 64.695312 "/>
    <path style=" stroke:none;fill-rule:nonzero;fill:rgb(38.823529%,39.215686%,40%);fill-opacity:1;" d="M 39.953125 71.222656 C 40.996094 69.070312 42.023438 66.90625 42.960938 64.703125 C 43.257812 65.257812 43.519531 65.832031 43.753906 66.414062 C 44.4375 68.023438 45.226562 69.582031 45.847656 71.21875 C 45.535156 71.210938 45.226562 71.207031 44.917969 71.199219 C 44.707031 70.710938 44.488281 70.230469 44.265625 69.75 C 43.410156 69.761719 42.554688 69.703125 41.703125 69.769531 C 41.308594 70.125 41.21875 70.722656 40.980469 71.191406 C 40.636719 71.203125 40.296875 71.214844 39.953125 71.222656 M 42.074219 68.851562 C 42.664062 68.871094 43.257812 68.875 43.847656 68.847656 C 43.632812 68.152344 43.402344 67.449219 42.957031 66.863281 C 42.558594 67.476562 42.304688 68.164062 42.074219 68.851562 Z M 42.074219 68.851562 "/>
    <path style=" stroke:none;fill-rule:nonzero;fill:rgb(38.823529%,39.215686%,40%);fill-opacity:1;" d="M 59.910156 64.707031 C 61.289062 65.964844 62.488281 67.410156 63.785156 68.753906 C 63.964844 68.9375 64.171875 69.089844 64.390625 69.230469 C 64.4375 67.851562 64.398438 66.476562 64.402344 65.101562 C 64.714844 65.082031 65.03125 65.066406 65.347656 65.054688 C 65.34375 67.21875 65.375 69.382812 65.335938 71.542969 C 63.957031 70.21875 62.695312 68.769531 61.34375 67.414062 C 61.195312 67.289062 61.023438 67.210938 60.828125 67.179688 C 60.84375 68.464844 60.867188 69.757812 60.839844 71.042969 C 60.636719 71.328125 60.207031 71.152344 59.910156 71.214844 C 59.933594 69.046875 59.929688 66.875 59.910156 64.707031 Z M 59.910156 64.707031 "/>
    <path style=" stroke:none;fill-rule:nonzero;fill:rgb(38.823529%,39.215686%,40%);fill-opacity:1;" d="M 24.292969 65.039062 C 25.394531 65.078125 26.5 65.066406 27.597656 65.046875 C 27.605469 65.34375 27.613281 65.636719 27.617188 65.933594 C 26.808594 65.949219 26.003906 65.945312 25.195312 65.949219 C 25.167969 66.453125 25.164062 66.953125 25.167969 67.457031 C 25.960938 67.453125 26.753906 67.460938 27.546875 67.433594 C 27.484375 67.707031 27.679688 68.109375 27.414062 68.300781 C 26.671875 68.339844 25.921875 68.292969 25.179688 68.328125 C 25.15625 69.019531 25.152344 69.714844 25.203125 70.40625 C 26.011719 70.386719 26.824219 70.375 27.632812 70.414062 C 27.621094 70.671875 27.605469 70.925781 27.59375 71.1875 C 26.492188 71.230469 25.390625 71.214844 24.289062 71.199219 C 24.304688 69.148438 24.292969 67.09375 24.292969 65.039062 Z M 24.292969 65.039062 "/>
    <path style=" stroke:none;fill-rule:nonzero;fill:rgb(38.823529%,39.215686%,40%);fill-opacity:1;" d="M 28.871094 65.046875 C 29.679688 65.066406 30.515625 65.054688 31.289062 65.308594 C 32.351562 65.734375 32.554688 67.234375 31.863281 68.070312 C 31.605469 68.308594 31.28125 68.457031 30.976562 68.628906 C 31.492188 69.542969 32.207031 70.316406 32.769531 71.199219 C 32.40625 71.207031 32.042969 71.207031 31.679688 71.199219 C 31.214844 70.515625 30.738281 69.839844 30.289062 69.144531 C 30.167969 68.933594 29.96875 68.792969 29.753906 68.6875 C 29.738281 69.535156 29.769531 70.382812 29.738281 71.226562 C 29.445312 71.210938 29.15625 71.191406 28.867188 71.175781 C 28.882812 69.132812 28.878906 67.089844 28.871094 65.046875 M 29.683594 65.917969 C 29.679688 66.597656 29.683594 67.28125 29.644531 67.960938 C 30.066406 67.917969 30.507812 67.976562 30.910156 67.832031 C 31.507812 67.671875 31.570312 66.847656 31.339844 66.367188 C 31.027344 65.753906 30.230469 66.007812 29.683594 65.917969 Z M 29.683594 65.917969 "/>
    <path style=" stroke:none;fill-rule:nonzero;fill:rgb(38.823529%,39.215686%,40%);fill-opacity:1;" d="M 54.777344 65.066406 C 56.703125 64.492188 58.851562 66.164062 58.746094 68.1875 C 58.863281 70.269531 56.507812 71.894531 54.605469 71.183594 C 53.589844 70.914062 52.796875 70.078125 52.492188 69.078125 C 51.9375 67.398438 53.089844 65.464844 54.777344 65.066406 M 54.773438 65.964844 C 53.03125 66.507812 52.757812 69.199219 54.3125 70.117188 C 55.648438 71.105469 57.804688 70.066406 57.835938 68.386719 C 58.097656 66.769531 56.277344 65.273438 54.773438 65.964844 Z M 54.773438 65.964844 "/>
    <path style=" stroke:none;fill-rule:nonzero;fill:rgb(38.823529%,39.215686%,40%);fill-opacity:1;" d="M 66.238281 71.199219 C 67.128906 69.035156 68.195312 66.949219 69.128906 64.800781 C 69.566406 65.453125 69.828125 66.203125 70.152344 66.917969 C 70.769531 68.359375 71.503906 69.753906 72.019531 71.234375 C 71.703125 71.214844 71.382812 71.1875 71.066406 71.160156 C 70.828125 70.707031 70.761719 70.078125 70.359375 69.761719 C 69.511719 69.707031 68.660156 69.761719 67.808594 69.75 C 67.578125 70.226562 67.359375 70.710938 67.136719 71.191406 C 66.835938 71.199219 66.535156 71.199219 66.238281 71.199219 M 68.304688 68.867188 C 68.882812 68.863281 69.464844 68.863281 70.042969 68.867188 C 69.769531 68.195312 69.625 67.417969 69.089844 66.902344 C 68.769531 67.53125 68.464844 68.171875 68.304688 68.867188 Z M 68.304688 68.867188 "/>
    <path style=" stroke:none;fill-rule:nonzero;fill:rgb(38.823529%,39.215686%,40%);fill-opacity:1;" d="M 72.945312 65.039062 C 73.214844 65.039062 73.480469 65.039062 73.746094 65.035156 C 73.765625 66.820312 73.761719 68.601562 73.757812 70.382812 C 74.347656 70.394531 74.9375 70.390625 75.527344 70.375 C 75.546875 70.648438 75.5625 70.921875 75.578125 71.191406 C 74.691406 71.222656 73.804688 71.226562 72.921875 71.1875 C 72.890625 69.140625 72.851562 67.085938 72.945312 65.039062 Z M 72.945312 65.039062 "/>
    <path style=" stroke:none;fill-rule:nonzero;fill:rgb(38.823529%,39.215686%,40%);fill-opacity:1;" d="M 11.066406 65.125 C 11.371094 65.082031 11.675781 65.0625 11.984375 65.050781 C 12.003906 67.109375 12.027344 69.171875 11.972656 71.230469 C 11.667969 71.207031 11.367188 71.183594 11.0625 71.160156 C 11.097656 69.152344 11.097656 67.136719 11.066406 65.125 Z M 11.066406 65.125 "/>
    <path style=" stroke:none;fill-rule:nonzero;fill:rgb(38.823529%,39.215686%,40%);fill-opacity:1;" d="M 19.660156 65.085938 C 20.917969 65.058594 22.179688 65.035156 23.433594 65.097656 C 23.429688 65.375 23.429688 65.648438 23.425781 65.925781 C 22.953125 65.949219 22.484375 65.949219 22.015625 65.949219 C 22.007812 67.710938 22.03125 69.46875 22.003906 71.230469 C 21.75 71.226562 21.492188 71.21875 21.234375 71.214844 C 21.128906 69.464844 21.257812 67.710938 21.1875 65.964844 C 20.679688 65.953125 20.175781 65.949219 19.667969 65.9375 C 19.664062 65.652344 19.660156 65.371094 19.660156 65.085938 Z M 19.660156 65.085938 "/>
    <path style=" stroke:none;fill-rule:nonzero;fill:rgb(38.823529%,39.215686%,40%);fill-opacity:1;" d="M 45.71875 65.078125 C 46.957031 65.058594 48.195312 65.054688 49.433594 65.078125 C 49.433594 65.367188 49.433594 65.65625 49.433594 65.949219 C 48.964844 65.949219 48.496094 65.949219 48.027344 65.945312 C 47.953125 67.691406 48.015625 69.4375 48 71.183594 C 47.71875 71.195312 47.4375 71.207031 47.160156 71.21875 C 47.035156 69.464844 47.144531 67.703125 47.097656 65.949219 C 46.640625 65.945312 46.1875 65.945312 45.730469 65.945312 C 45.722656 65.65625 45.71875 65.367188 45.71875 65.078125 Z M 45.71875 65.078125 "/>
    <path style=" stroke:none;fill-rule:nonzero;fill:rgb(38.823529%,39.215686%,40%);fill-opacity:1;" d="M 50.296875 65.082031 C 50.59375 65.074219 50.890625 65.066406 51.1875 65.058594 C 51.179688 67.113281 51.207031 69.167969 51.160156 71.21875 C 50.878906 71.207031 50.601562 71.195312 50.320312 71.183594 C 50.257812 69.152344 50.296875 67.117188 50.296875 65.082031 Z M 50.296875 65.082031 "/>
    <path style=" stroke:none;fill-rule:nonzero;fill:rgb(28.235294%,27.45098%,27.843137%);fill-opacity:0.309804;" d="M 81.984375 9.148438 C 81.816406 8.859375 82.304688 8.523438 82.519531 8.769531 C 82.40625 8.972656 82.183594 9.058594 81.984375 9.148438 Z M 81.984375 9.148438 "/>
    <path style=" stroke:none;fill-rule:nonzero;fill:rgb(28.235294%,27.45098%,27.843137%);fill-opacity:0.309804;" d="M 73.476562 9.363281 C 73.566406 9.042969 73.738281 8.992188 74 9.214844 C 73.847656 9.34375 73.671875 9.394531 73.476562 9.363281 Z M 73.476562 9.363281 "/>
    <path style=" stroke:none;fill-rule:nonzero;fill:rgb(28.235294%,27.45098%,27.843137%);fill-opacity:0.309804;" d="M 80.484375 13.355469 C 80.273438 13.082031 80.328125 12.902344 80.648438 12.804688 C 80.664062 13.007812 80.609375 13.191406 80.484375 13.355469 Z M 80.484375 13.355469 "/>
    <path style=" stroke:none;fill-rule:nonzero;fill:rgb(28.235294%,27.45098%,27.843137%);fill-opacity:0.309804;" d="M 79.90625 15.105469 L 80.074219 15.074219 C 80.035156 15.164062 79.949219 15.355469 79.910156 15.449219 L 79.820312 15.296875 Z M 79.90625 15.105469 "/>
    <path style=" stroke:none;fill-rule:nonzero;fill:rgb(28.235294%,27.45098%,27.843137%);fill-opacity:0.309804;" d="M 79.746094 16.160156 C 79.527344 15.898438 79.578125 15.71875 79.898438 15.621094 C 79.921875 15.824219 79.867188 16 79.746094 16.160156 Z M 79.746094 16.160156 "/>
    <path style=" stroke:none;fill-rule:nonzero;fill:rgb(28.235294%,27.45098%,27.843137%);fill-opacity:0.309804;" d="M 93.1875 16.257812 C 93.203125 16.273438 93.234375 16.296875 93.246094 16.308594 C 93.234375 16.296875 93.203125 16.273438 93.1875 16.257812 Z M 93.1875 16.257812 "/>
    <path style=" stroke:none;fill-rule:nonzero;fill:rgb(28.235294%,27.45098%,27.843137%);fill-opacity:0.309804;" d="M 94.527344 17.390625 C 94.539062 17.402344 94.570312 17.433594 94.582031 17.445312 C 94.570312 17.433594 94.539062 17.402344 94.527344 17.390625 Z M 94.527344 17.390625 "/>
    <path style=" stroke:none;fill-rule:nonzero;fill:rgb(28.235294%,27.45098%,27.843137%);fill-opacity:0.309804;" d="M 79.144531 17.929688 L 79.316406 17.90625 C 79.269531 17.996094 79.179688 18.179688 79.132812 18.269531 L 79.054688 18.117188 Z M 79.144531 17.929688 "/>
    <path style=" stroke:none;fill-rule:nonzero;fill:rgb(28.235294%,27.45098%,27.843137%);fill-opacity:0.309804;" d="M 78.921875 18.699219 L 79.085938 18.652344 C 79.050781 18.753906 78.980469 18.945312 78.949219 19.042969 C 78.941406 18.957031 78.929688 18.785156 78.921875 18.699219 Z M 78.921875 18.699219 "/>
    <path style=" stroke:none;fill-rule:nonzero;fill:rgb(28.235294%,27.45098%,27.843137%);fill-opacity:0.309804;" d="M 95.792969 19.046875 L 95.960938 19.078125 L 96.050781 19.261719 L 95.964844 19.410156 C 95.921875 19.320312 95.835938 19.140625 95.792969 19.046875 Z M 95.792969 19.046875 "/>
    <path style=" stroke:none;fill-rule:nonzero;fill:rgb(28.235294%,27.45098%,27.843137%);fill-opacity:0.309804;" d="M 78.726562 19.46875 L 78.890625 19.421875 C 78.859375 19.519531 78.792969 19.710938 78.757812 19.808594 L 78.660156 19.667969 Z M 78.726562 19.46875 "/>
    <path style=" stroke:none;fill-rule:nonzero;fill:rgb(28.235294%,27.45098%,27.843137%);fill-opacity:0.309804;" d="M 95.851562 20.492188 C 95.863281 20.476562 95.882812 20.441406 95.890625 20.421875 C 95.882812 20.441406 95.863281 20.476562 95.851562 20.492188 Z M 95.851562 20.492188 "/>
    <path style=" stroke:none;fill-rule:nonzero;fill:rgb(28.235294%,27.45098%,27.843137%);fill-opacity:0.309804;" d="M 95.074219 21.25 C 95.089844 21.238281 95.121094 21.21875 95.136719 21.210938 C 95.121094 21.21875 95.089844 21.238281 95.074219 21.25 Z M 95.074219 21.25 "/>
    <path style=" stroke:none;fill-rule:nonzero;fill:rgb(28.235294%,27.45098%,27.843137%);fill-opacity:0.309804;" d="M 78.15625 21.546875 L 78.316406 21.480469 C 78.292969 21.582031 78.25 21.78125 78.230469 21.882812 L 78.113281 21.753906 Z M 78.15625 21.546875 "/>
    <path style=" stroke:none;fill-rule:nonzero;fill:rgb(28.235294%,27.45098%,27.843137%);fill-opacity:0.309804;" d="M 92.195312 22.609375 C 92.21875 22.597656 92.265625 22.574219 92.289062 22.5625 C 92.265625 22.574219 92.21875 22.597656 92.195312 22.609375 Z M 92.195312 22.609375 "/>
    <path style=" stroke:none;fill-rule:nonzero;fill:rgb(28.235294%,27.45098%,27.843137%);fill-opacity:0.309804;" d="M 91.652344 22.820312 C 91.753906 22.78125 91.945312 22.703125 92.042969 22.667969 L 91.992188 22.835938 L 91.796875 22.914062 Z M 91.652344 22.820312 "/>
    <path style=" stroke:none;fill-rule:nonzero;fill:rgb(28.235294%,27.45098%,27.843137%);fill-opacity:0.309804;" d="M 89.898438 23.550781 C 90.109375 23.386719 90.347656 23.265625 90.609375 23.222656 C 90.738281 23.570312 90.101562 23.828125 89.898438 23.550781 Z M 89.898438 23.550781 "/>
    <path style=" stroke:none;fill-rule:nonzero;fill:rgb(28.235294%,27.45098%,27.843137%);fill-opacity:0.309804;" d="M 88.96875 23.964844 C 89.058594 23.921875 89.238281 23.835938 89.328125 23.792969 L 89.304688 23.964844 L 89.121094 24.054688 Z M 88.96875 23.964844 "/>
    <path style=" stroke:none;fill-rule:nonzero;fill:rgb(28.235294%,27.45098%,27.843137%);fill-opacity:0.309804;" d="M 87.570312 24.484375 C 87.816406 24.359375 88.074219 24.25 88.347656 24.195312 C 88.445312 24.566406 87.777344 24.765625 87.570312 24.484375 Z M 87.570312 24.484375 "/>
    <path style=" stroke:none;fill-rule:nonzero;fill:rgb(28.235294%,27.45098%,27.843137%);fill-opacity:0.309804;" d="M 86.6875 24.890625 C 86.917969 24.734375 87.167969 24.617188 87.4375 24.539062 C 87.535156 24.898438 86.910156 25.167969 86.6875 24.890625 Z M 86.6875 24.890625 "/>
    <path style=" stroke:none;fill-rule:nonzero;fill:rgb(28.235294%,27.45098%,27.843137%);fill-opacity:0.309804;" d="M 85.371094 25.449219 C 85.59375 25.308594 85.835938 25.203125 86.09375 25.144531 C 86.226562 25.507812 85.566406 25.746094 85.371094 25.449219 Z M 85.371094 25.449219 "/>
    <path style=" stroke:none;fill-rule:nonzero;fill:rgb(28.235294%,27.45098%,27.843137%);fill-opacity:0.309804;" d="M 69.519531 27.042969 C 69.300781 26.777344 69.351562 26.605469 69.671875 26.515625 C 69.695312 26.710938 69.644531 26.886719 69.519531 27.042969 Z M 69.519531 27.042969 "/>
    <path style=" stroke:none;fill-rule:nonzero;fill:rgb(28.235294%,27.45098%,27.843137%);fill-opacity:0.309804;" d="M 80.71875 27.386719 C 81.148438 27.222656 81.574219 27.050781 82.003906 26.894531 C 81.644531 27.203125 81.1875 27.347656 80.71875 27.386719 Z M 80.71875 27.386719 "/>
    <path style=" stroke:none;fill-rule:nonzero;fill:rgb(28.235294%,27.45098%,27.843137%);fill-opacity:0.309804;" d="M 79.871094 27.742188 C 80.082031 27.582031 80.328125 27.484375 80.585938 27.429688 C 80.71875 27.78125 80.066406 28.03125 79.871094 27.742188 Z M 79.871094 27.742188 "/>
    <path style=" stroke:none;fill-rule:nonzero;fill:rgb(28.235294%,27.45098%,27.843137%);fill-opacity:0.309804;" d="M 77.496094 28.070312 C 77.515625 28.078125 77.554688 28.097656 77.574219 28.109375 C 77.554688 28.097656 77.515625 28.078125 77.496094 28.070312 Z M 77.496094 28.070312 "/>
    <path style=" stroke:none;fill-rule:nonzero;fill:rgb(28.235294%,27.45098%,27.843137%);fill-opacity:0.309804;" d="M 78.75 28.171875 C 78.84375 28.136719 79.03125 28.066406 79.125 28.03125 L 79.085938 28.199219 L 78.890625 28.269531 Z M 78.75 28.171875 "/>
    <path style=" stroke:none;fill-rule:nonzero;fill:rgb(28.235294%,27.45098%,27.843137%);fill-opacity:0.309804;" d="M 56.058594 50.652344 C 56.253906 50.628906 56.429688 50.683594 56.585938 50.8125 C 56.320312 51.027344 56.144531 50.976562 56.058594 50.652344 Z M 56.058594 50.652344 "/>
    <path style=" stroke:none;fill-rule:nonzero;fill:rgb(28.235294%,27.45098%,27.843137%);fill-opacity:0.309804;" d="M 64.777344 51.972656 C 64.972656 51.941406 65.144531 51.996094 65.292969 52.136719 C 65.023438 52.347656 64.851562 52.292969 64.777344 51.972656 Z M 64.777344 51.972656 "/>
    <path style=" stroke:none;fill-rule:nonzero;fill:rgb(28.235294%,27.45098%,27.843137%);fill-opacity:0.309804;" d="M 30.347656 55.191406 C 30.476562 54.820312 31.417969 54.808594 31.558594 55.175781 C 31.15625 55.183594 30.75 55.1875 30.347656 55.191406 Z M 30.347656 55.191406 "/>
    <path style=" stroke:none;fill-rule:nonzero;fill:rgb(28.235294%,27.45098%,27.843137%);fill-opacity:0.309804;" d="M 25.070312 55.183594 C 25.335938 55.597656 25.15625 56.113281 25.183594 56.570312 C 25.101562 57.789062 25.324219 59.023438 25.078125 60.230469 C 25.035156 58.546875 25.03125 56.863281 25.070312 55.183594 Z M 25.070312 55.183594 "/>
    <path style=" stroke:none;fill-rule:nonzero;fill:rgb(28.235294%,27.45098%,27.843137%);fill-opacity:0.309804;" d="M 45.992188 60.730469 C 46.082031 60.691406 46.261719 60.601562 46.351562 60.558594 L 46.324219 60.730469 L 46.140625 60.820312 Z M 45.992188 60.730469 "/>
    <path style=" stroke:none;fill-rule:nonzero;fill:rgb(28.235294%,27.45098%,27.843137%);fill-opacity:0.309804;" d="M 53.855469 60.617188 C 53.96875 60.398438 54.480469 60.4375 54.417969 60.730469 C 54.269531 60.820312 53.832031 60.878906 53.855469 60.617188 Z M 53.855469 60.617188 "/>
    <path style=" stroke:none;fill-rule:nonzero;fill:rgb(28.235294%,27.45098%,27.843137%);fill-opacity:0.309804;" d="M 54.664062 60.664062 C 55.113281 61.058594 54.828125 61.765625 54.882812 62.296875 L 54.65625 62.285156 C 54.683594 61.742188 54.664062 61.203125 54.664062 60.664062 Z M 54.664062 60.664062 "/>
    <path style=" stroke:none;fill-rule:nonzero;fill:rgb(28.235294%,27.45098%,27.843137%);fill-opacity:0.309804;" d="M 38.964844 65.03125 L 39.121094 65.160156 C 39.277344 66.03125 39.148438 66.925781 39.1875 67.808594 C 39.160156 69.007812 39.242188 70.214844 39.15625 71.410156 C 39.074219 71.4375 38.90625 71.492188 38.824219 71.515625 C 38.894531 71.109375 38.984375 70.703125 38.972656 70.289062 C 38.972656 68.535156 38.96875 66.78125 38.964844 65.03125 Z M 38.964844 65.03125 "/>
    <path style=" stroke:none;fill-rule:nonzero;fill:rgb(85.490196%,12.156863%,14.901961%);fill-opacity:1;" d="M 82.519531 8.769531 L 82.613281 8.648438 C 83.21875 8.710938 83.824219 8.769531 84.414062 8.933594 C 87.316406 11.398438 90.265625 13.8125 93.1875 16.257812 C 93.203125 16.273438 93.234375 16.296875 93.246094 16.308594 C 93.671875 16.675781 94.113281 17.011719 94.527344 17.390625 C 94.539062 17.402344 94.570312 17.433594 94.582031 17.445312 C 95.046875 17.921875 95.570312 18.398438 95.792969 19.046875 C 95.835938 19.140625 95.921875 19.320312 95.964844 19.410156 C 96.121094 19.742188 96.050781 20.109375 95.890625 20.421875 C 95.882812 20.441406 95.863281 20.476562 95.851562 20.492188 C 95.660156 20.773438 95.40625 21.007812 95.136719 21.210938 C 95.121094 21.21875 95.089844 21.238281 95.074219 21.25 C 94.761719 21.441406 94.429688 21.605469 94.085938 21.726562 C 93.5 21.910156 92.949219 22.171875 92.425781 22.492188 L 92.289062 22.5625 C 92.265625 22.574219 92.21875 22.597656 92.195312 22.609375 L 92.042969 22.667969 C 91.945312 22.703125 91.753906 22.78125 91.652344 22.820312 C 91.339844 23.023438 90.972656 23.128906 90.609375 23.222656 C 90.347656 23.265625 90.109375 23.386719 89.898438 23.550781 C 89.730469 23.683594 89.539062 23.765625 89.328125 23.792969 C 89.238281 23.835938 89.058594 23.921875 88.96875 23.964844 C 88.769531 24.074219 88.5625 24.148438 88.347656 24.195312 C 88.074219 24.25 87.816406 24.359375 87.570312 24.484375 L 87.4375 24.539062 C 87.167969 24.617188 86.917969 24.734375 86.6875 24.890625 C 86.5 25.003906 86.304688 25.089844 86.09375 25.144531 C 85.835938 25.203125 85.59375 25.308594 85.371094 25.449219 C 84.554688 25.8125 83.75 26.253906 82.878906 26.460938 C 82.789062 26.503906 82.613281 26.589844 82.523438 26.632812 C 82.359375 26.742188 82.1875 26.828125 82.003906 26.894531 C 81.574219 27.050781 81.148438 27.222656 80.71875 27.386719 L 80.585938 27.429688 C 80.328125 27.484375 80.082031 27.582031 79.871094 27.742188 C 79.640625 27.878906 79.402344 28.035156 79.125 28.03125 C 79.03125 28.066406 78.84375 28.136719 78.75 28.171875 C 78.363281 28.234375 77.9375 28.285156 77.574219 28.109375 C 77.554688 28.097656 77.515625 28.078125 77.496094 28.070312 C 77.414062 28.023438 77.25 27.933594 77.167969 27.890625 C 77.144531 27.160156 77.125 26.429688 77.1875 25.703125 C 77.589844 24.445312 77.820312 23.136719 78.230469 21.882812 C 78.25 21.78125 78.292969 21.582031 78.316406 21.480469 L 78.40625 21.339844 C 78.546875 21.191406 78.605469 21.015625 78.582031 20.8125 C 78.589844 20.472656 78.644531 20.132812 78.757812 19.808594 C 78.792969 19.710938 78.859375 19.519531 78.890625 19.421875 C 78.90625 19.328125 78.933594 19.140625 78.949219 19.042969 C 78.980469 18.945312 79.050781 18.753906 79.085938 18.652344 C 79.097656 18.558594 79.121094 18.367188 79.132812 18.269531 C 79.179688 18.179688 79.269531 17.996094 79.316406 17.90625 C 79.371094 17.308594 79.5 16.710938 79.746094 16.160156 C 79.867188 16 79.921875 15.824219 79.898438 15.621094 L 79.910156 15.449219 C 79.949219 15.355469 80.035156 15.164062 80.074219 15.074219 C 80.105469 14.652344 80.191406 14.238281 80.296875 13.832031 C 80.308594 13.808594 80.324219 13.757812 80.332031 13.730469 C 80.371094 13.636719 80.449219 13.449219 80.484375 13.355469 C 80.609375 13.191406 80.664062 13.007812 80.648438 12.804688 C 80.730469 12.058594 80.996094 11.34375 81.175781 10.617188 C 81.324219 10.082031 81.5 9.480469 81.984375 9.148438 C 82.183594 9.058594 82.40625 8.972656 82.519531 8.769531 Z M 82.519531 8.769531 "/>
  </g>
</svg>