<?xml version="1.0" encoding="UTF-8" ?>
<!DOCTYPE svg PUBLIC "-//W3C//DTD SVG 1.1//EN" "http://www.w3.org/Graphics/SVG/1.1/DTD/svg11.dtd">
<svg width="560pt" height="420pt" viewBox="0 0 560 420" version="1.1" xmlns="http://www.w3.org/2000/svg">
<g id="#636466ff">
<path fill="#636466" opacity="1.00" d=" M 436.45 45.40 C 439.68 44.87 443.18 44.92 445.96 46.90 C 442.85 46.05 439.64 45.73 436.45 45.40 Z" />
<path fill="#636466" opacity="1.00" d=" M 390.94 48.37 C 396.99 47.26 403.50 46.28 409.39 48.65 C 415.18 50.85 420.17 56.53 419.54 63.02 C 418.68 67.75 417.25 72.35 416.03 77.00 C 399.66 136.83 383.43 196.70 366.60 256.41 C 364.99 261.13 364.48 266.39 361.51 270.53 C 357.33 275.00 350.49 275.04 344.94 273.72 C 344.16 272.98 343.25 272.69 342.21 272.85 C 338.22 272.97 334.31 272.04 330.38 271.52 C 319.94 269.70 309.38 268.60 298.94 266.76 C 298.12 266.08 297.20 265.80 296.16 265.93 C 291.81 266.00 287.55 265.06 283.25 264.57 C 249.86 259.45 216.38 254.90 183.04 249.46 C 183.72 247.03 184.46 244.61 185.21 242.20 C 210.84 245.12 236.31 249.30 261.91 252.47 C 280.68 255.28 299.51 257.63 318.28 260.39 C 325.03 261.12 331.87 262.64 338.67 261.44 C 342.58 260.49 345.14 256.75 345.78 252.94 C 351.74 222.54 357.55 192.11 363.40 161.69 C 364.85 155.15 365.36 148.41 367.27 141.98 C 367.94 141.16 368.21 140.24 368.08 139.20 C 368.03 137.64 368.19 136.07 368.49 134.54 C 370.93 121.45 373.42 108.37 375.47 95.22 C 376.31 91.53 374.61 87.55 371.45 85.49 C 365.89 81.37 358.59 81.59 352.01 81.83 C 330.96 83.23 309.98 85.18 288.98 87.18 C 263.50 89.57 238.00 91.71 212.55 94.45 C 202.79 95.22 193.07 96.37 183.30 97.00 C 183.29 89.77 183.30 82.54 183.29 75.31 C 241.86 67.79 300.42 60.14 358.98 52.55 C 368.72 51.57 378.38 49.43 388.18 49.16 C 389.21 49.32 390.13 49.06 390.94 48.37 Z" />
<path fill="#636466" opacity="1.00" d=" M 424.22 72.62 C 424.27 72.49 424.36 72.22 424.40 72.09 C 424.36 72.22 424.27 72.49 424.22 72.62 Z" />
<path fill="#636466" opacity="1.00" d=" M 414.23 112.03 C 413.17 110.60 413.48 109.67 415.15 109.27 C 415.28 110.33 414.97 111.25 414.23 112.03 Z" />
<path fill="#636466" opacity="1.00" d=" M 97.44 112.36 C 103.60 111.60 109.81 112.21 116.00 112.04 C 147.35 112.15 178.70 111.79 210.05 112.24 C 218.91 113.11 228.83 114.98 234.93 122.06 C 239.49 127.16 239.19 134.43 238.58 140.79 C 236.04 155.38 228.09 169.40 215.28 177.29 C 207.41 182.44 198.13 184.78 188.97 186.44 C 186.55 187.02 184.46 185.23 182.07 185.38 C 162.39 185.59 142.70 185.37 123.02 185.51 C 142.13 185.50 161.24 185.64 180.35 185.42 C 181.66 185.09 182.56 186.27 183.36 187.09 C 162.99 187.23 142.63 187.05 122.26 187.17 C 118.30 198.50 114.70 209.94 111.01 221.35 C 94.47 221.33 77.92 221.37 61.38 221.36 C 64.60 209.85 69.21 198.77 72.17 187.19 C 65.02 187.01 57.86 187.28 50.71 187.08 C 51.16 184.23 53.08 181.95 53.87 179.21 C 55.83 173.03 57.78 166.86 59.91 160.74 C 67.31 160.21 74.92 161.35 82.20 160.20 C 87.49 144.33 92.44 128.32 97.44 112.36 M 138.50 137.35 C 136.47 145.22 133.21 152.71 131.12 160.57 C 142.74 160.79 154.36 160.68 165.98 160.63 C 172.28 160.54 179.49 158.90 183.18 153.31 C 185.30 149.16 187.11 143.41 183.51 139.53 C 181.03 137.87 177.77 137.86 174.88 137.42 C 162.76 137.31 150.63 137.47 138.50 137.35 Z" />
<path fill="#636466" opacity="1.00" d=" M 254.59 112.24 C 271.22 112.11 287.85 112.34 304.47 112.12 C 295.73 138.88 286.54 165.50 277.98 192.31 C 302.93 192.63 327.88 192.29 352.83 192.47 C 350.30 202.15 347.88 211.86 345.43 221.57 C 303.03 221.56 260.62 221.44 218.22 221.63 C 227.51 195.44 235.75 168.88 244.72 142.58 C 247.82 132.40 251.75 122.50 254.59 112.24 Z" />
<path fill="#636466" opacity="1.00" d=" M 488.29 118.08 C 491.05 116.41 493.97 115.02 497.05 114.06 C 494.29 115.71 491.35 117.07 488.29 118.08 Z" />
<path fill="#636466" opacity="1.00" d=" M 407.69 146.42 C 406.27 142.71 406.49 138.65 407.79 134.95 C 407.45 138.76 407.56 142.59 407.69 146.42 Z" />
<path fill="#636466" opacity="1.00" d=" M 435.97 139.82 C 436.44 139.59 437.38 139.14 437.85 138.91 L 437.73 139.81 L 436.76 140.28 L 435.97 139.82 Z" />
<path fill="#636466" opacity="1.00" d=" M 103.83 288.55 C 113.51 297.94 122.20 308.32 131.98 317.59 C 132.26 317.34 132.80 316.83 133.07 316.58 C 133.40 307.55 132.78 298.51 133.38 289.49 C 134.13 289.57 135.62 289.73 136.37 289.81 C 136.75 302.37 136.64 314.98 136.38 327.55 C 131.73 323.22 127.54 318.43 122.99 314.00 C 117.80 309.01 113.70 302.90 107.85 298.61 C 107.52 307.98 107.70 317.36 107.74 326.73 C 106.44 326.76 105.14 326.81 103.84 326.86 C 103.74 314.09 103.74 301.32 103.83 288.55 Z" />
<path fill="#636466" opacity="1.00" d=" M 236.39 289.27 C 242.29 287.42 248.75 288.91 253.86 292.19 C 259.77 296.28 263.21 303.80 262.13 310.94 C 261.20 315.85 258.99 320.90 254.68 323.74 C 244.88 331.60 227.62 328.24 222.93 316.10 C 218.00 305.48 224.78 291.50 236.39 289.27 M 231.31 309.01 C 231.40 314.78 237.33 319.85 242.97 318.84 L 243.76 319.30 L 244.74 318.83 L 244.88 317.94 C 248.32 317.90 250.56 314.48 251.85 311.66 C 254.60 304.93 248.14 296.86 240.96 297.88 C 235.23 297.65 230.73 303.56 231.31 309.01 Z" />
<path fill="#636466" opacity="1.00" d=" M 301.94 289.76 C 307.42 287.14 313.47 289.65 318.68 291.73 C 317.45 294.09 316.23 296.46 314.96 298.81 C 311.76 297.01 308.07 295.97 304.61 297.75 C 304.51 298.99 304.41 300.23 304.32 301.47 C 308.99 304.33 315.52 304.24 318.83 309.11 C 321.56 314.56 320.10 322.31 314.53 325.44 C 307.81 329.27 299.34 327.54 292.99 323.73 C 294.16 321.11 295.49 318.58 296.86 316.06 C 299.87 318.02 303.23 320.09 307.00 319.43 C 309.88 319.62 311.30 315.53 309.35 313.65 C 305.32 311.01 299.82 311.08 296.38 307.52 C 292.04 301.66 295.00 292.11 301.94 289.76 Z" />
<path fill="#636466" opacity="1.00" d=" M 58.20 289.80 C 59.57 289.76 60.95 289.73 62.32 289.71 C 62.51 294.85 62.32 300.00 62.50 305.15 C 68.13 300.51 72.74 294.77 78.21 289.97 C 79.89 289.56 81.63 289.75 83.34 289.73 C 78.02 295.75 71.83 300.94 66.52 306.97 C 72.04 313.88 78.49 319.97 84.17 326.74 C 82.26 326.75 80.35 326.70 78.44 326.68 C 74.88 321.90 70.49 317.83 66.83 313.13 C 65.72 311.61 64.25 310.40 62.45 309.80 C 62.24 315.46 62.74 321.14 62.19 326.79 C 60.87 326.79 59.55 326.79 58.23 326.81 C 58.29 314.48 58.35 302.14 58.20 289.80 Z" />
<path fill="#636466" opacity="1.00" d=" M 89.81 289.72 C 91.16 289.72 92.51 289.74 93.86 289.76 C 93.71 302.10 93.80 314.44 93.82 326.78 C 92.51 326.76 91.21 326.76 89.91 326.76 C 89.71 314.41 89.90 302.06 89.81 289.72 Z" />
<path fill="#636466" opacity="1.00" d=" M 144.55 309.02 C 143.70 299.85 151.12 290.58 160.33 289.75 C 162.46 289.74 164.59 289.72 166.72 289.67 C 175.66 290.42 182.94 299.14 182.83 308.01 C 183.16 317.71 174.75 326.73 165.06 327.14 C 154.75 328.34 144.42 319.53 144.55 309.02 M 159.33 293.21 C 152.67 295.16 147.58 301.98 148.46 309.01 C 148.06 314.81 152.44 319.45 157.01 322.32 C 166.53 327.35 179.92 318.94 178.73 308.01 C 179.73 298.01 168.50 290.20 159.33 293.21 Z" />
<path fill="#636466" opacity="1.00" d=" M 189.74 289.78 C 195.51 289.73 201.28 289.59 207.04 289.80 C 212.14 290.04 216.83 294.11 217.49 299.23 C 218.56 304.72 216.55 311.64 210.78 313.59 C 206.99 314.30 203.11 314.17 199.27 314.26 C 199.23 318.42 199.28 322.58 199.14 326.74 C 196.05 326.72 192.96 326.71 189.88 326.70 C 189.57 314.40 189.75 302.09 189.74 289.78 M 198.94 297.28 C 198.77 300.47 198.73 303.68 199.02 306.87 C 201.50 306.88 203.97 306.73 206.43 306.52 C 207.19 304.77 208.61 303.10 208.23 301.08 C 207.81 299.61 206.68 298.51 205.81 297.31 C 203.52 297.34 201.23 297.32 198.94 297.28 Z" />
<path fill="#636466" opacity="1.00" d=" M 268.62 289.72 C 271.71 289.70 274.80 289.71 277.90 289.77 C 278.10 299.44 277.61 309.12 278.16 318.78 C 281.57 319.08 284.96 319.74 288.40 319.70 C 288.30 322.01 288.35 324.32 288.61 326.63 C 281.94 326.75 275.27 326.71 268.60 326.62 C 268.61 314.32 268.58 302.02 268.62 289.72 Z" />
<path fill="#636466" opacity="1.00" d=" M 326.30 289.89 C 329.50 289.68 332.71 289.67 335.92 289.76 C 335.84 294.42 335.76 299.08 335.86 303.75 C 337.99 303.05 339.14 301.07 340.42 299.39 C 342.82 296.10 345.30 292.85 347.95 289.74 C 351.73 289.72 355.52 289.66 359.31 289.79 C 354.89 296.05 348.73 301.05 345.00 307.76 C 350.54 313.92 355.64 320.46 360.99 326.79 C 356.78 326.71 352.58 326.69 348.38 326.69 C 344.46 321.49 341.00 315.69 335.94 311.52 C 335.70 316.59 335.80 321.67 335.87 326.75 C 332.68 326.71 329.50 326.71 326.31 326.70 C 326.36 314.43 326.38 302.16 326.30 289.89 Z" />
<path fill="#636466" opacity="1.00" d=" M 376.10 289.77 C 379.38 289.74 382.67 289.53 385.94 289.84 C 387.17 290.62 387.30 292.25 387.91 293.48 C 391.88 304.62 396.38 315.57 400.28 326.73 C 396.99 326.71 393.69 326.70 390.40 326.73 C 389.54 324.53 388.64 322.35 387.72 320.18 C 383.32 320.09 378.84 319.57 374.49 320.41 C 373.31 322.37 372.63 324.58 371.78 326.70 C 368.49 326.70 365.20 326.72 361.91 326.71 C 366.66 314.40 371.32 302.06 376.10 289.77 M 377.25 313.33 C 379.88 313.33 382.52 313.33 385.15 313.29 C 384.48 309.31 383.38 305.32 381.04 301.96 C 379.10 305.48 377.82 309.35 377.25 313.33 Z" />
<path fill="#636466" opacity="1.00" d=" M 71.16 339.71 C 76.79 345.45 82.45 351.18 87.94 357.07 C 90.12 359.28 91.84 362.15 94.82 363.39 C 94.84 356.14 94.68 348.89 94.83 341.65 C 96.47 341.64 98.12 341.67 99.76 341.73 C 99.69 353.18 99.46 364.63 99.82 376.07 C 95.12 371.16 90.29 366.37 85.73 361.32 C 82.56 358.00 79.70 354.32 75.97 351.59 C 75.62 358.98 76.00 366.38 75.75 373.77 C 74.23 373.81 72.71 373.85 71.19 373.89 C 71.30 362.50 71.14 351.11 71.16 339.71 Z" />
<path fill="#636466" opacity="1.00" d=" M 178.37 339.66 C 183.19 343.84 186.90 349.10 191.54 353.47 C 195.11 356.76 197.94 360.88 201.97 363.65 C 202.15 356.30 202.04 348.95 202.00 341.60 C 202.92 341.58 204.78 341.53 205.71 341.51 C 204.82 352.13 205.63 362.82 205.19 373.46 C 197.03 367.01 191.14 358.06 182.92 351.70 C 182.70 359.09 182.89 366.48 182.84 373.87 C 181.42 373.88 180.00 373.90 178.58 373.93 C 178.51 362.50 178.72 351.08 178.37 339.66 Z" />
<path fill="#636466" opacity="1.00" d=" M 211.08 373.92 C 216.59 362.62 222.01 351.26 226.96 339.70 C 228.54 342.60 229.91 345.62 231.15 348.68 C 234.76 357.12 238.94 365.31 242.21 373.89 C 240.57 373.86 238.93 373.83 237.30 373.79 C 236.18 371.24 235.03 368.71 233.85 366.19 C 229.34 366.25 224.81 365.94 220.31 366.30 C 218.23 368.15 217.76 371.30 216.50 373.75 C 214.69 373.81 212.89 373.88 211.08 373.92 M 222.27 361.48 C 225.40 361.58 228.53 361.59 231.65 361.46 C 230.52 357.81 229.29 354.11 226.95 351.04 C 224.84 354.25 223.50 357.86 222.27 361.48 Z" />
<path fill="#636466" opacity="1.00" d=" M 316.51 339.72 C 323.79 346.32 330.12 353.91 336.98 360.95 C 337.92 361.93 339.02 362.73 340.18 363.45 C 340.42 356.23 340.22 349.00 340.23 341.78 C 341.89 341.68 343.56 341.60 345.23 341.54 C 345.22 352.89 345.38 364.26 345.18 375.61 C 337.89 368.64 331.23 361.03 324.09 353.92 C 323.30 353.26 322.39 352.86 321.36 352.70 C 321.44 359.45 321.56 366.22 321.41 372.97 C 320.35 374.48 318.08 373.54 316.50 373.87 C 316.63 362.49 316.60 351.10 316.51 339.72 Z" />
<path fill="#636466" opacity="1.00" d=" M 128.35 341.46 C 134.17 341.66 139.99 341.59 145.80 341.50 C 145.85 343.05 145.88 344.60 145.91 346.16 C 141.64 346.24 137.37 346.21 133.10 346.24 C 132.97 348.88 132.94 351.51 132.97 354.15 C 137.16 354.13 141.34 354.17 145.53 354.02 C 145.20 355.47 146.24 357.57 144.83 358.58 C 140.90 358.79 136.95 358.53 133.02 358.73 C 132.90 362.36 132.89 366.00 133.14 369.63 C 137.42 369.54 141.71 369.47 145.99 369.68 C 145.92 371.03 145.84 372.37 145.77 373.73 C 139.95 373.97 134.13 373.88 128.31 373.79 C 128.41 363.02 128.34 352.24 128.35 341.46 Z" />
<path fill="#636466" opacity="1.00" d=" M 152.53 341.49 C 156.80 341.59 161.21 341.53 165.31 342.87 C 170.91 345.10 171.98 352.98 168.34 357.37 C 166.97 358.63 165.26 359.39 163.66 360.31 C 166.37 365.10 170.15 369.17 173.12 373.80 C 171.20 373.84 169.28 373.84 167.36 373.80 C 164.91 370.21 162.40 366.65 160.01 363.01 C 159.37 361.90 158.32 361.16 157.20 360.61 C 157.10 365.05 157.27 369.50 157.10 373.94 C 155.57 373.85 154.04 373.76 152.51 373.67 C 152.59 362.94 152.57 352.22 152.53 341.49 M 156.81 346.07 C 156.79 349.64 156.82 353.22 156.62 356.79 C 158.84 356.57 161.17 356.87 163.30 356.11 C 166.46 355.28 166.79 350.94 165.57 348.43 C 163.92 345.20 159.71 346.54 156.81 346.07 Z" />
<path fill="#636466" opacity="1.00" d=" M 289.39 341.60 C 299.56 338.58 310.91 347.37 310.35 357.99 C 310.98 368.91 298.54 377.45 288.49 373.71 C 283.12 372.30 278.92 367.90 277.31 362.65 C 274.38 353.84 280.47 343.70 289.39 341.60 M 289.36 346.31 C 280.17 349.16 278.72 363.29 286.94 368.12 C 294.00 373.30 305.39 367.85 305.55 359.03 C 306.94 350.54 297.32 342.69 289.36 346.31 Z" />
<path fill="#636466" opacity="1.00" d=" M 349.93 373.80 C 354.65 362.44 360.28 351.48 365.20 340.20 C 367.53 343.63 368.91 347.57 370.62 351.32 C 373.87 358.89 377.76 366.20 380.49 373.99 C 378.80 373.87 377.12 373.74 375.44 373.60 C 374.19 371.21 373.84 367.92 371.72 366.24 C 367.24 365.96 362.73 366.24 358.24 366.19 C 357.02 368.69 355.87 371.23 354.69 373.75 C 353.10 373.79 351.51 373.80 349.93 373.80 M 360.85 361.55 C 363.91 361.53 366.98 361.53 370.04 361.56 C 368.59 358.03 367.84 353.95 365.00 351.23 C 363.31 354.53 361.70 357.91 360.85 361.55 Z" />
<path fill="#636466" opacity="1.00" d=" M 385.38 341.46 C 386.79 341.46 388.20 341.46 389.61 341.44 C 389.71 350.80 389.68 360.15 389.67 369.51 C 392.79 369.57 395.90 369.55 399.02 369.47 C 399.12 370.90 399.20 372.33 399.28 373.76 C 394.60 373.92 389.92 373.94 385.25 373.73 C 385.08 362.98 384.87 352.20 385.38 341.46 Z" />
<path fill="#636466" opacity="1.00" d=" M 58.46 341.91 C 60.07 341.68 61.69 341.57 63.32 341.52 C 63.41 352.33 63.55 363.15 63.25 373.95 C 61.65 373.84 60.05 373.72 58.45 373.60 C 58.63 363.04 58.62 352.47 58.46 341.91 Z" />
<path fill="#636466" opacity="1.00" d=" M 103.86 341.71 C 110.51 341.56 117.17 341.43 123.81 341.77 C 123.78 343.22 123.77 344.66 123.75 346.11 C 121.27 346.23 118.78 346.23 116.30 346.23 C 116.26 355.48 116.39 364.72 116.25 373.97 C 114.90 373.93 113.55 373.90 112.19 373.87 C 111.63 364.69 112.31 355.49 111.94 346.31 C 109.26 346.25 106.58 346.23 103.90 346.17 C 103.88 344.68 103.87 343.19 103.86 341.71 Z" />
<path fill="#636466" opacity="1.00" d=" M 241.53 341.66 C 248.07 341.56 254.62 341.54 261.16 341.65 C 261.16 343.17 261.16 344.70 261.16 346.23 C 258.68 346.24 256.20 346.23 253.72 346.22 C 253.33 355.37 253.67 364.54 253.58 373.71 C 252.09 373.77 250.62 373.84 249.14 373.90 C 248.49 364.69 249.06 355.45 248.82 346.23 C 246.41 346.22 244.00 346.22 241.60 346.22 C 241.55 344.70 241.53 343.18 241.53 341.66 Z" />
<path fill="#636466" opacity="1.00" d=" M 265.72 341.68 C 267.28 341.63 268.85 341.59 270.42 341.56 C 270.38 352.34 270.52 363.13 270.27 373.90 C 268.79 373.84 267.32 373.78 265.85 373.72 C 265.51 363.05 265.72 352.36 265.72 341.68 Z" />
</g>
<g id="#4846474e">
<path fill="#484647" opacity="0.31" d=" M 433.12 48.03 C 432.23 46.52 434.82 44.75 435.96 46.04 C 435.35 47.10 434.17 47.56 433.12 48.03 Z" />
<path fill="#484647" opacity="0.31" d=" M 388.18 49.16 C 388.65 47.48 389.57 47.21 390.94 48.37 C 390.13 49.06 389.21 49.32 388.18 49.16 Z" />
<path fill="#484647" opacity="0.31" d=" M 425.21 70.12 C 424.09 68.69 424.37 67.73 426.06 67.22 C 426.14 68.29 425.86 69.26 425.21 70.12 Z" />
<path fill="#484647" opacity="0.31" d=" M 422.14 79.30 L 423.03 79.13 C 422.82 79.62 422.38 80.61 422.17 81.10 L 421.70 80.31 L 422.14 79.30 Z" />
<path fill="#484647" opacity="0.31" d=" M 421.30 84.85 C 420.14 83.47 420.41 82.52 422.10 82.02 C 422.22 83.07 421.95 84.01 421.30 84.85 Z" />
<path fill="#484647" opacity="0.31" d=" M 492.31 85.36 C 492.39 85.43 492.55 85.56 492.63 85.63 C 492.55 85.56 492.39 85.43 492.31 85.36 Z" />
<path fill="#484647" opacity="0.31" d=" M 499.38 91.30 C 499.45 91.37 499.61 91.52 499.68 91.59 C 499.61 91.52 499.45 91.37 499.38 91.30 Z" />
<path fill="#484647" opacity="0.31" d=" M 418.13 94.14 L 419.03 94.00 C 418.79 94.48 418.30 95.44 418.06 95.92 L 417.64 95.12 L 418.13 94.14 Z" />
<path fill="#484647" opacity="0.31" d=" M 416.95 98.18 L 417.81 97.93 C 417.63 98.45 417.26 99.47 417.08 99.98 C 417.05 99.53 416.98 98.63 416.95 98.18 Z" />
<path fill="#484647" opacity="0.31" d=" M 506.08 100.00 L 506.97 100.15 L 507.44 101.13 L 506.99 101.91 C 506.76 101.43 506.30 100.48 506.08 100.00 Z" />
<path fill="#484647" opacity="0.31" d=" M 415.92 102.22 L 416.79 101.97 C 416.61 102.47 416.26 103.49 416.08 104.00 L 415.56 103.25 L 415.92 102.22 Z" />
<path fill="#484647" opacity="0.31" d=" M 506.39 107.59 C 506.44 107.50 506.55 107.31 506.60 107.22 C 506.55 107.31 506.44 107.50 506.39 107.59 Z" />
<path fill="#484647" opacity="0.31" d=" M 502.28 111.56 C 502.36 111.51 502.53 111.40 502.61 111.35 C 502.53 111.40 502.36 111.51 502.28 111.56 Z" />
<path fill="#484647" opacity="0.31" d=" M 412.91 113.12 L 413.75 112.77 C 413.63 113.30 413.40 114.36 413.29 114.89 L 412.68 114.20 L 412.91 113.12 Z" />
<path fill="#484647" opacity="0.31" d=" M 487.07 118.69 C 487.19 118.63 487.44 118.52 487.56 118.46 C 487.44 118.52 487.19 118.63 487.07 118.69 Z" />
<path fill="#484647" opacity="0.31" d=" M 484.21 119.80 C 484.73 119.60 485.75 119.20 486.27 119.00 L 486.00 119.89 L 484.96 120.29 L 484.21 119.80 Z" />
<path fill="#484647" opacity="0.31" d=" M 474.94 123.64 C 476.05 122.79 477.31 122.15 478.70 121.92 C 479.38 123.74 476.01 125.10 474.94 123.64 Z" />
<path fill="#484647" opacity="0.31" d=" M 470.02 125.82 C 470.50 125.59 471.45 125.14 471.93 124.91 L 471.79 125.81 L 470.82 126.28 L 470.02 125.82 Z" />
<path fill="#484647" opacity="0.31" d=" M 462.64 128.55 C 463.93 127.88 465.29 127.32 466.74 127.03 C 467.25 128.97 463.73 130.01 462.64 128.55 Z" />
<path fill="#484647" opacity="0.31" d=" M 457.98 130.67 C 459.18 129.86 460.52 129.25 461.93 128.84 C 462.46 130.71 459.14 132.13 457.98 130.67 Z" />
<path fill="#484647" opacity="0.31" d=" M 451.01 133.60 C 452.19 132.88 453.47 132.31 454.83 132.01 C 455.54 133.92 452.04 135.17 451.01 133.60 Z" />
<path fill="#484647" opacity="0.31" d=" M 367.27 141.98 C 366.11 140.59 366.38 139.67 368.08 139.20 C 368.21 140.24 367.94 141.16 367.27 141.98 Z" />
<path fill="#484647" opacity="0.31" d=" M 426.44 143.78 C 428.71 142.92 430.95 142.01 433.23 141.19 C 431.32 142.82 428.92 143.58 426.44 143.78 Z" />
<path fill="#484647" opacity="0.31" d=" M 421.96 145.64 C 423.08 144.81 424.38 144.29 425.74 144.00 C 426.43 145.85 422.99 147.17 421.96 145.64 Z" />
<path fill="#484647" opacity="0.31" d=" M 409.41 147.37 C 409.52 147.42 409.72 147.52 409.82 147.57 C 409.72 147.52 409.52 147.42 409.41 147.37 Z" />
<path fill="#484647" opacity="0.31" d=" M 416.04 147.90 C 416.53 147.72 417.52 147.35 418.02 147.16 L 417.81 148.04 L 416.79 148.42 L 416.04 147.90 Z" />
<path fill="#484647" opacity="0.31" d=" M 296.16 265.93 C 297.20 265.80 298.12 266.08 298.94 266.76 C 297.54 267.90 296.61 267.62 296.16 265.93 Z" />
<path fill="#484647" opacity="0.31" d=" M 342.21 272.85 C 343.25 272.69 344.16 272.98 344.94 273.72 C 343.53 274.82 342.62 274.53 342.21 272.85 Z" />
<path fill="#484647" opacity="0.31" d=" M 160.33 289.75 C 161.01 287.81 165.99 287.75 166.72 289.67 C 164.59 289.72 162.46 289.74 160.33 289.75 Z" />
<path fill="#484647" opacity="0.31" d=" M 132.45 289.71 C 133.84 291.88 132.91 294.59 133.05 297.00 C 132.61 303.39 133.78 309.87 132.48 316.20 C 132.26 307.37 132.24 298.53 132.45 289.71 Z" />
<path fill="#484647" opacity="0.31" d=" M 242.97 318.84 C 243.45 318.62 244.41 318.16 244.88 317.94 L 244.74 318.83 L 243.76 319.30 L 242.97 318.84 Z" />
<path fill="#484647" opacity="0.31" d=" M 284.51 318.25 C 285.11 317.10 287.82 317.30 287.50 318.84 C 286.71 319.31 284.40 319.62 284.51 318.25 Z" />
<path fill="#484647" opacity="0.31" d=" M 288.79 318.48 C 291.17 320.56 289.66 324.27 289.95 327.05 L 288.76 326.99 C 288.89 324.15 288.79 321.31 288.79 318.48 Z" />
<path fill="#484647" opacity="0.31" d=" M 205.85 341.41 L 206.68 342.10 C 207.51 346.66 206.83 351.37 207.02 356.00 C 206.88 362.30 207.31 368.62 206.87 374.91 C 206.43 375.05 205.55 375.33 205.11 375.46 C 205.48 373.33 205.96 371.19 205.90 369.01 C 205.90 359.81 205.88 350.61 205.85 341.41 Z" />
</g>
<g id="#da1f26ff">
<path fill="#da1f26" opacity="1.00" d=" M 435.96 46.04 L 436.45 45.40 C 439.64 45.73 442.85 46.05 445.96 46.90 C 461.30 59.85 476.87 72.52 492.31 85.36 C 492.39 85.43 492.55 85.56 492.63 85.63 C 494.86 87.54 497.21 89.31 499.38 91.30 C 499.45 91.37 499.61 91.52 499.68 91.59 C 502.13 94.09 504.90 96.60 506.08 100.00 C 506.30 100.48 506.76 101.43 506.99 101.91 C 507.81 103.64 507.43 105.58 506.60 107.22 C 506.55 107.31 506.44 107.50 506.39 107.59 C 505.38 109.07 504.03 110.29 502.61 111.35 C 502.53 111.40 502.36 111.51 502.28 111.56 C 500.62 112.56 498.88 113.43 497.05 114.06 C 493.97 115.02 491.05 116.41 488.29 118.08 L 487.56 118.46 C 487.44 118.52 487.19 118.63 487.07 118.69 L 486.27 119.00 C 485.75 119.20 484.73 119.60 484.21 119.80 C 482.54 120.87 480.61 121.43 478.70 121.92 C 477.31 122.15 476.05 122.79 474.94 123.64 C 474.04 124.34 473.03 124.76 471.93 124.91 C 471.45 125.14 470.50 125.59 470.02 125.82 C 468.98 126.38 467.88 126.78 466.74 127.03 C 465.29 127.32 463.93 127.88 462.64 128.55 L 461.93 128.84 C 460.52 129.25 459.18 129.86 457.98 130.67 C 456.99 131.28 455.94 131.73 454.83 132.01 C 453.47 132.31 452.19 132.88 451.01 133.60 C 446.70 135.51 442.46 137.84 437.85 138.91 C 437.38 139.14 436.44 139.59 435.97 139.82 C 435.11 140.40 434.20 140.85 433.23 141.19 C 430.95 142.01 428.71 142.92 426.44 143.78 L 425.74 144.00 C 424.38 144.29 423.08 144.81 421.96 145.64 C 420.75 146.36 419.48 147.19 418.02 147.16 C 417.52 147.35 416.53 147.72 416.04 147.90 C 414.00 148.24 411.74 148.49 409.82 147.57 C 409.72 147.52 409.52 147.42 409.41 147.37 C 408.98 147.13 408.12 146.66 407.69 146.42 C 407.56 142.59 407.45 138.76 407.79 134.95 C 409.91 128.34 411.12 121.47 413.29 114.89 C 413.40 114.36 413.63 113.30 413.75 112.77 L 414.23 112.03 C 414.97 111.25 415.28 110.33 415.15 109.27 C 415.20 107.48 415.49 105.69 416.08 104.00 C 416.26 103.49 416.61 102.47 416.79 101.97 C 416.86 101.47 417.01 100.48 417.08 99.98 C 417.26 99.47 417.63 98.45 417.81 97.93 C 417.87 97.43 418.00 96.43 418.06 95.92 C 418.30 95.44 418.79 94.48 419.03 94.00 C 419.32 90.87 420.00 87.73 421.30 84.85 C 421.95 84.01 422.22 83.07 422.10 82.02 L 422.17 81.10 C 422.38 80.61 422.82 79.62 423.03 79.13 C 423.19 76.93 423.66 74.75 424.22 72.62 C 424.27 72.49 424.36 72.22 424.40 72.09 C 424.60 71.60 425.01 70.61 425.21 70.12 C 425.86 69.26 426.14 68.29 426.06 67.22 C 426.51 63.30 427.90 59.56 428.85 55.74 C 429.64 52.93 430.57 49.77 433.12 48.03 C 434.17 47.56 435.35 47.10 435.96 46.04 Z" />
</g>
</svg>
