<?xml version="1.0" encoding="UTF-8" standalone="yes"?>
<svg xmlns="http://www.w3.org/2000/svg" xmlns:xlink="http://www.w3.org/1999/xlink" width="250.66666666666666px" height="106.66666666666666px" viewBox="0 0 188 80" version="1.1">
  <g id="surface1">
    <path style=" stroke:none;fill-rule:nonzero;fill:rgb(36.862745%,15.686275%,15.294118%);fill-opacity:0.811765;" d="M 76.769531 5.753906 C 77.023438 5.683594 77.28125 5.644531 77.546875 5.640625 C 110.683594 5.652344 143.816406 5.648438 176.953125 5.644531 C 177.828125 5.632812 178.691406 5.921875 179.421875 6.398438 C 178.59375 6.195312 177.78125 5.921875 176.925781 5.882812 C 144.742188 5.871094 112.558594 5.882812 80.378906 5.878906 C 79.175781 5.867188 77.964844 5.953125 76.769531 5.753906 Z M 76.769531 5.753906 "/>
    <path style=" stroke:none;fill-rule:nonzero;fill:rgb(66.27451%,67.058824%,68.235294%);fill-opacity:1;" d="M 7.15625 7.398438 C 7.878906 6.59375 8.910156 6.222656 9.871094 5.808594 C 32.167969 5.71875 54.46875 5.824219 76.769531 5.753906 C 76.777344 6.074219 76.785156 6.394531 76.789062 6.714844 L 76.75 6.714844 C 70.832031 6.597656 64.90625 6.691406 58.988281 6.664062 C 55.855469 6.46875 52.71875 6.832031 49.585938 6.566406 C 47.242188 6.699219 44.886719 6.679688 42.539062 6.640625 C 39.40625 6.636719 36.269531 6.75 33.140625 6.570312 C 32.429688 6.578125 31.726562 6.660156 31.015625 6.667969 C 24.203125 6.660156 17.390625 6.660156 10.578125 6.664062 C 8.378906 6.5625 6.265625 8.59375 6.421875 10.824219 C 6.429688 21.570312 6.425781 32.316406 6.425781 43.0625 C 6.4375 43.933594 6.367188 44.816406 6.507812 45.683594 C 6.957031 47.753906 8.875 49.519531 11.042969 49.492188 C 32.507812 49.488281 53.972656 49.496094 75.4375 49.488281 C 75.777344 49.492188 76.117188 49.511719 76.460938 49.535156 C 76.5 49.707031 76.578125 50.050781 76.621094 50.222656 C 54.835938 50.203125 33.058594 50.214844 11.277344 50.214844 C 9.347656 50.347656 7.421875 49.296875 6.398438 47.671875 C 6.027344 47.117188 5.851562 46.464844 5.5625 45.867188 C 5.5 34.019531 5.519531 22.171875 5.554688 10.324219 C 5.894531 9.261719 6.316406 8.175781 7.15625 7.398438 Z M 7.15625 7.398438 "/>
    <path style=" stroke:none;fill-rule:nonzero;fill:rgb(66.27451%,67.058824%,68.235294%);fill-opacity:1;" d="M 179.394531 49.585938 C 179.605469 49.292969 179.921875 49.089844 180.28125 49.019531 C 180.28125 49.386719 179.726562 49.664062 179.394531 49.585938 Z M 179.394531 49.585938 "/>
    <path style=" stroke:none;fill-rule:nonzero;fill:rgb(33.72549%,1.568627%,1.568627%);fill-opacity:1;" d="M 76.769531 5.753906 C 77.964844 5.953125 79.175781 5.867188 80.378906 5.878906 C 112.558594 5.882812 144.742188 5.871094 176.925781 5.882812 C 176.984375 6.027344 177.101562 6.3125 177.160156 6.453125 C 176.703125 6.535156 176.246094 6.636719 175.78125 6.667969 C 147.191406 6.675781 118.601562 6.664062 90.007812 6.671875 C 85.601562 6.695312 81.195312 6.617188 76.789062 6.714844 C 76.785156 6.394531 76.777344 6.074219 76.769531 5.753906 Z M 76.769531 5.753906 "/>
    <path style=" stroke:none;fill-rule:nonzero;fill:rgb(40.392157%,0%,0%);fill-opacity:1;" d="M 176.925781 5.882812 C 177.78125 5.921875 178.59375 6.195312 179.421875 6.398438 L 179.4375 6.414062 C 179.597656 6.617188 179.804688 6.746094 180.0625 6.789062 L 180.097656 6.800781 C 180.699219 7.328125 181.21875 7.941406 181.671875 8.601562 L 181.679688 8.628906 C 181.804688 9.179688 181.945312 9.726562 182.15625 10.246094 C 182.1875 16.414062 182.195312 22.585938 182.125 28.753906 C 182.035156 28.261719 181.910156 27.773438 181.800781 27.285156 C 180.1875 27.152344 178.570312 27.257812 176.957031 27.21875 C 176.027344 27.191406 175.09375 27.203125 174.171875 27.324219 C 174.671875 27.832031 175.5 28.246094 175.414062 29.078125 C 173.476562 26.71875 170.359375 26.039062 167.605469 25.109375 C 166.507812 24.722656 165.335938 24.332031 164.515625 23.464844 C 163.714844 22.613281 163.6875 21.128906 164.535156 20.292969 C 165.269531 19.566406 166.339844 19.375 167.324219 19.246094 C 169.765625 18.964844 172.199219 19.660156 174.429688 20.609375 C 174.707031 19.738281 174.984375 18.859375 175.261719 17.988281 C 177.003906 18.078125 178.730469 17.8125 180.453125 17.613281 C 180.476562 17.28125 180.5 16.945312 180.523438 16.609375 C 180.566406 15.167969 180.511719 13.730469 180.542969 12.289062 C 180.617188 11.117188 180.398438 9.910156 179.621094 8.992188 C 179.851562 8.605469 180.328125 8.199219 180.039062 7.710938 C 179.542969 6.640625 178.207031 6.476562 177.160156 6.453125 C 177.101562 6.3125 176.984375 6.027344 176.925781 5.882812 Z M 176.925781 5.882812 "/>
    <path style=" stroke:none;fill-rule:nonzero;fill:rgb(47.45098%,9.411765%,5.882353%);fill-opacity:1;" d="M 177.160156 6.453125 C 178.207031 6.476562 179.542969 6.640625 180.039062 7.710938 C 180.328125 8.199219 179.851562 8.605469 179.621094 8.992188 C 178.765625 8.039062 177.496094 7.628906 176.242188 7.683594 C 143.085938 7.695312 109.933594 7.671875 76.777344 7.695312 C 76.777344 7.367188 76.785156 7.039062 76.789062 6.714844 C 81.195312 6.617188 85.601562 6.695312 90.007812 6.671875 C 118.601562 6.664062 147.191406 6.675781 175.78125 6.667969 C 176.246094 6.636719 176.703125 6.535156 177.160156 6.453125 Z M 177.160156 6.453125 "/>
    <path style=" stroke:none;fill-rule:nonzero;fill:rgb(20.392157%,13.333333%,13.333333%);fill-opacity:0.360784;" d="M 179.4375 6.414062 C 179.832031 6.261719 180.039062 6.386719 180.0625 6.789062 C 179.804688 6.746094 179.597656 6.617188 179.4375 6.414062 Z M 179.4375 6.414062 "/>
    <path style=" stroke:none;fill-rule:nonzero;fill:rgb(80.784314%,81.176471%,81.960784%);fill-opacity:1;" d="M 6.421875 10.824219 C 6.265625 8.59375 8.378906 6.5625 10.578125 6.664062 C 17.390625 6.660156 24.203125 6.660156 31.015625 6.667969 C 31.726562 6.660156 32.429688 6.578125 33.140625 6.570312 C 36.269531 6.75 39.40625 6.636719 42.539062 6.640625 C 44.886719 6.679688 47.242188 6.699219 49.585938 6.566406 C 52.71875 6.832031 55.855469 6.46875 58.988281 6.664062 C 64.90625 6.691406 70.832031 6.597656 76.75 6.714844 L 76.609375 7.117188 C 76.21875 7.179688 75.824219 7.210938 75.433594 7.222656 C 53.886719 7.214844 32.34375 7.230469 10.804688 7.214844 C 9.433594 7.183594 8.253906 8.121094 7.542969 9.21875 C 6.796875 10.484375 6.9375 12.003906 6.933594 13.410156 C 6.9375 23.523438 6.945312 33.636719 6.929688 43.75 C 6.941406 44.179688 6.980469 44.613281 7.027344 45.039062 C 7.085938 46.351562 7.808594 47.542969 8.914062 48.234375 C 9.820312 49.054688 11.101562 48.820312 12.214844 48.847656 C 33.726562 48.851562 55.234375 48.832031 76.742188 48.855469 C 76.753906 48.921875 76.765625 49.054688 76.777344 49.117188 C 76.777344 49.480469 76.75 49.84375 76.695312 50.203125 L 76.652344 50.359375 L 76.621094 50.222656 C 76.578125 50.050781 76.5 49.707031 76.460938 49.535156 C 76.117188 49.511719 75.777344 49.492188 75.4375 49.488281 C 53.972656 49.496094 32.507812 49.488281 11.042969 49.492188 C 8.875 49.519531 6.957031 47.753906 6.507812 45.683594 C 6.367188 44.816406 6.4375 43.933594 6.425781 43.0625 C 6.425781 32.316406 6.429688 21.570312 6.421875 10.824219 Z M 6.421875 10.824219 "/>
    <path style=" stroke:none;fill-rule:nonzero;fill:rgb(100%,100%,100%);fill-opacity:1;" d="M 76.75 6.714844 L 76.789062 6.714844 C 76.785156 7.039062 76.777344 7.367188 76.777344 7.695312 C 76.773438 9.46875 76.777344 11.246094 76.78125 13.023438 C 76.785156 13.90625 76.773438 14.789062 76.792969 15.671875 C 76.773438 17.5625 76.789062 19.453125 76.785156 21.34375 C 76.792969 24.535156 76.765625 27.726562 76.804688 30.914062 C 76.765625 31.800781 76.777344 32.6875 76.796875 33.574219 C 76.777344 35.671875 76.773438 37.773438 76.796875 39.871094 C 76.78125 41.363281 76.75 42.859375 76.789062 44.351562 C 76.777344 45.300781 76.765625 46.246094 76.765625 47.195312 C 76.765625 47.636719 76.769531 48.078125 76.773438 48.523438 C 76.773438 48.671875 76.773438 48.96875 76.777344 49.117188 C 76.765625 49.054688 76.753906 48.921875 76.742188 48.855469 C 76.707031 48.59375 76.667969 48.335938 76.632812 48.078125 C 76.867188 45.582031 76.574219 43.089844 76.304688 40.609375 C 72.175781 40.71875 68.046875 40.636719 63.921875 40.660156 C 63.480469 40.671875 63.042969 40.722656 62.609375 40.773438 C 62.332031 41.167969 62.066406 41.613281 61.578125 41.765625 C 64.578125 34.957031 67.652344 28.175781 70.683594 21.375 C 71.234375 20.175781 71.753906 18.960938 72.3125 17.765625 C 70.546875 17.066406 68.351562 16.980469 66.757812 18.148438 C 65.71875 18.894531 65.351562 20.175781 64.851562 21.292969 C 63.671875 24.089844 62.417969 26.855469 61.273438 29.671875 C 59.410156 26.808594 57.734375 23.828125 55.945312 20.921875 C 55.265625 19.78125 54.566406 18.652344 53.910156 17.503906 C 51.953125 16.914062 49.757812 16.953125 47.894531 17.835938 C 46.722656 18.386719 45.917969 19.433594 45.097656 20.398438 C 42.96875 22.765625 40.832031 25.128906 38.707031 27.5 C 38.457031 27.703125 38.722656 27.96875 38.820312 28.167969 C 40.660156 31.046875 42.46875 33.945312 44.296875 36.835938 C 44.738281 37.554688 45.347656 38.152344 45.996094 38.6875 C 45.039062 38.867188 44.671875 37.570312 43.722656 37.671875 C 42.070312 37.640625 40.414062 37.625 38.761719 37.660156 C 38.105469 37.625 37.773438 38.324219 37.167969 38.464844 C 37.496094 37.960938 37.730469 37.398438 37.8125 36.800781 C 37.914062 36.296875 38.019531 35.792969 38.023438 35.28125 C 38.003906 29.792969 38.039062 24.304688 38.007812 18.8125 C 38.027344 16.777344 37.933594 14.734375 38.085938 12.695312 C 38.152344 12.816406 38.292969 13.054688 38.363281 13.171875 C 38.332031 13.9375 38.339844 14.703125 38.378906 15.46875 C 39.84375 15.570312 41.308594 15.53125 42.773438 15.519531 C 53.964844 15.5 65.15625 15.558594 76.34375 15.492188 C 76.382812 14.71875 76.382812 13.941406 76.367188 13.164062 C 76.480469 11.152344 76.246094 9.109375 76.609375 7.117188 Z M 76.75 6.714844 "/>
    <path style=" stroke:none;fill-rule:nonzero;fill:rgb(100%,100%,100%);fill-opacity:1;" d="M 31.804688 12.160156 C 31.898438 12.164062 32.078125 12.167969 32.171875 12.171875 C 31.871094 14.621094 32.097656 17.105469 32.03125 19.566406 C 32.027344 26.097656 32.042969 32.628906 32.023438 39.164062 C 31.914062 39.117188 31.699219 39.023438 31.589844 38.976562 C 31.507812 38.554688 31.449219 38.132812 31.382812 37.707031 C 30.019531 37.664062 28.523438 37.386719 27.289062 38.132812 C 26.15625 38.761719 24.925781 39.203125 23.644531 39.417969 C 19.828125 40.097656 15.929688 39.714844 12.113281 39.242188 C 12.128906 39.140625 12.167969 38.929688 12.1875 38.824219 C 14.457031 39.140625 16.75 39.257812 19.039062 39.261719 C 21.878906 39.28125 24.933594 39.175781 27.394531 37.585938 C 29.160156 36.453125 29.941406 34.261719 29.8125 32.234375 C 29.875 30.339844 28.894531 28.480469 27.300781 27.46875 C 24.949219 25.949219 22.082031 25.71875 19.402344 25.1875 C 18.667969 25.015625 17.863281 24.890625 17.269531 24.382812 C 16.882812 24.089844 16.867188 23.4375 17.238281 23.132812 C 17.851562 22.582031 18.730469 22.523438 19.511719 22.464844 C 21.679688 22.390625 23.84375 22.617188 26.011719 22.523438 C 26.734375 22.484375 27.476562 22.171875 27.898438 21.566406 C 28.371094 20.898438 28.484375 20.0625 28.546875 19.269531 C 28.484375 18.738281 28.707031 18.042969 28.292969 17.632812 C 24.058594 17.25 19.617188 16.523438 15.503906 17.992188 C 13.683594 18.574219 12.101562 20.003906 11.585938 21.878906 C 11.035156 23.972656 11.21875 26.496094 12.839844 28.089844 C 14.496094 29.671875 16.839844 30.132812 19.019531 30.511719 C 20.5 30.808594 22.09375 30.835938 23.449219 31.574219 C 24.117188 31.902344 24.265625 32.867188 23.722656 33.375 C 23.210938 33.800781 22.523438 33.925781 21.878906 33.960938 C 19.433594 34.089844 17 33.597656 14.554688 33.761719 C 13.664062 33.835938 12.742188 34.269531 12.304688 35.085938 C 11.6875 36.1875 11.828125 37.492188 11.882812 38.703125 C 11.539062 38.410156 11.261719 38.050781 10.992188 37.695312 C 9.929688 37.597656 8.859375 37.609375 7.792969 37.675781 C 7.617188 37.910156 7.441406 38.144531 7.269531 38.378906 C 7.238281 31.078125 7.273438 23.78125 7.253906 16.480469 C 7.25 15.628906 7.292969 14.777344 7.359375 13.925781 C 9.996094 13.71875 12.640625 13.925781 15.28125 13.878906 C 17.3125 13.75 19.347656 13.957031 21.378906 13.859375 C 23.265625 13.777344 25.148438 13.949219 27.03125 13.867188 C 28.492188 13.808594 29.957031 13.996094 31.414062 13.808594 C 31.546875 13.257812 31.679688 12.707031 31.804688 12.160156 Z M 31.804688 12.160156 "/>
    <path style=" stroke:none;fill-rule:nonzero;fill:rgb(100%,100%,100%);fill-opacity:1;" d="M 162.503906 15.742188 C 166.683594 13.6875 171.683594 14.511719 175.769531 16.410156 C 175.71875 16.5625 175.625 16.863281 175.578125 17.015625 C 175.472656 17.339844 175.363281 17.664062 175.261719 17.988281 C 174.984375 18.859375 174.707031 19.738281 174.429688 20.609375 C 172.199219 19.660156 169.765625 18.964844 167.324219 19.246094 C 166.339844 19.375 165.269531 19.566406 164.535156 20.292969 C 163.6875 21.128906 163.714844 22.613281 164.515625 23.464844 C 165.335938 24.332031 166.507812 24.722656 167.605469 25.109375 C 170.359375 26.039062 173.476562 26.71875 175.414062 29.078125 C 175.902344 29.789062 176.289062 30.578125 176.492188 31.417969 C 176.726562 32.621094 176.714844 33.867188 176.507812 35.074219 C 176.1875 36.414062 175.558594 37.679688 174.601562 38.675781 C 172.742188 40.484375 170.109375 41.257812 167.566406 41.292969 C 164.664062 41.332031 161.65625 40.9375 159.09375 39.488281 C 159.117188 39.316406 159.160156 38.96875 159.179688 38.792969 C 159.238281 38.457031 159.300781 38.128906 159.359375 37.796875 C 159.605469 36.773438 159.832031 35.75 160.035156 34.71875 C 162.644531 36.1875 165.707031 36.925781 168.695312 36.570312 C 169.816406 36.40625 170.980469 35.921875 171.574219 34.902344 C 171.804688 34.109375 171.914062 33.128906 171.316406 32.464844 C 170.542969 31.558594 169.382812 31.152344 168.308594 30.730469 C 166.066406 29.886719 163.667969 29.222656 161.792969 27.65625 C 160.929688 26.949219 160.238281 26.03125 159.796875 25.003906 C 159.121094 23.1875 159.132812 21.175781 159.648438 19.320312 C 159.800781 18.863281 160.003906 18.425781 160.207031 17.988281 C 160.761719 17.054688 161.578125 16.304688 162.503906 15.742188 Z M 162.503906 15.742188 "/>
    <path style=" stroke:none;fill-rule:nonzero;fill:rgb(100%,100%,100%);fill-opacity:1;" d="M 82.671875 15.207031 C 84.023438 15.269531 85.378906 15.261719 86.730469 15.210938 C 87.3125 15.878906 87.84375 16.59375 88.386719 17.296875 C 89.484375 18.714844 90.574219 20.136719 91.667969 21.554688 C 92.957031 23.199219 94.214844 24.867188 95.511719 26.503906 C 96.585938 27.9375 97.699219 29.347656 98.792969 30.769531 C 98.933594 30.949219 99.070312 31.128906 99.210938 31.308594 C 99.210938 25.945312 99.207031 20.578125 99.210938 15.214844 C 100.765625 15.265625 102.328125 15.257812 103.886719 15.214844 C 103.949219 17.222656 103.914062 19.234375 103.929688 21.238281 C 103.882812 24.144531 103.9375 27.054688 103.917969 29.960938 C 103.902344 31.875 103.917969 33.789062 103.925781 35.703125 C 103.910156 37.394531 103.914062 39.085938 103.933594 40.777344 C 102.5625 40.777344 101.1875 40.773438 99.8125 40.785156 C 99.558594 40.46875 99.304688 40.15625 99.058594 39.84375 C 98.136719 38.65625 97.222656 37.460938 96.304688 36.273438 C 95.207031 34.859375 94.117188 33.441406 93.023438 32.023438 C 91.128906 29.605469 89.296875 27.144531 87.378906 24.746094 C 87.375 27.890625 87.375 31.039062 87.382812 34.183594 C 87.367188 36.382812 87.382812 38.578125 87.382812 40.777344 C 85.8125 40.761719 84.238281 40.816406 82.667969 40.75 C 82.648438 38.25 82.71875 35.75 82.640625 33.25 C 82.703125 27.238281 82.625 21.222656 82.671875 15.207031 Z M 82.671875 15.207031 "/>
    <path style=" stroke:none;fill-rule:nonzero;fill:rgb(100%,100%,100%);fill-opacity:1;" d="M 107.476562 15.21875 C 113.054688 15.273438 118.636719 15.230469 124.21875 15.238281 C 124.222656 16.222656 124.230469 17.203125 124.222656 18.1875 C 124.214844 18.59375 124.214844 19.003906 124.21875 19.410156 C 120.386719 19.40625 116.554688 19.410156 112.726562 19.410156 C 112.726562 19.945312 112.726562 20.476562 112.726562 21.007812 C 112.726562 22.449219 112.730469 23.886719 112.722656 25.328125 C 115.878906 25.332031 119.035156 25.347656 122.191406 25.320312 C 122.097656 26.902344 122.164062 28.484375 122.152344 30.066406 C 119.011719 30.066406 115.867188 30.066406 112.726562 30.066406 C 112.722656 31.5 112.730469 32.9375 112.726562 34.371094 C 112.726562 35.121094 112.726562 35.867188 112.726562 36.617188 C 116.554688 36.617188 120.386719 36.617188 124.222656 36.617188 C 124.21875 37.695312 124.222656 38.773438 124.226562 39.847656 C 124.21875 40.144531 124.214844 40.441406 124.214844 40.738281 C 118.628906 40.832031 113.039062 40.75 107.449219 40.777344 C 107.457031 39.703125 107.453125 38.628906 107.445312 37.558594 C 107.453125 35.75 107.457031 33.9375 107.441406 32.132812 C 107.464844 30.796875 107.457031 29.464844 107.4375 28.132812 C 107.46875 26.714844 107.457031 25.296875 107.4375 23.878906 C 107.464844 22.957031 107.445312 22.039062 107.453125 21.121094 C 107.445312 19.535156 107.460938 17.957031 107.441406 16.371094 C 107.449219 15.988281 107.457031 15.601562 107.476562 15.21875 Z M 107.476562 15.21875 "/>
    <path style=" stroke:none;fill-rule:nonzero;fill:rgb(100%,100%,100%);fill-opacity:1;" d="M 126.90625 15.242188 C 128.460938 15.234375 130.019531 15.265625 131.578125 15.222656 C 131.726562 16.234375 131.882812 17.246094 132.023438 18.257812 C 132.125 19.039062 132.25 19.8125 132.375 20.585938 C 132.761719 23.105469 133.191406 25.613281 133.671875 28.117188 C 134.113281 30.546875 134.628906 32.964844 135.125 35.386719 C 135.609375 33.203125 136.09375 31.027344 136.5625 28.84375 C 137.175781 26.058594 137.78125 23.273438 138.371094 20.480469 C 138.566406 19.566406 138.75 18.652344 138.929688 17.734375 C 139.03125 17.203125 139.144531 16.671875 139.257812 16.144531 C 141.214844 16.144531 143.171875 16.152344 145.128906 16.140625 C 145.320312 16.988281 145.496094 17.84375 145.652344 18.703125 C 145.738281 19.207031 145.851562 19.707031 145.960938 20.210938 C 146.308594 21.898438 146.691406 23.578125 147.039062 25.269531 C 147.757812 28.648438 148.554688 32.007812 149.238281 35.394531 C 149.933594 32.203125 150.589844 28.996094 151.144531 25.777344 C 151.519531 23.785156 151.828125 21.773438 152.148438 19.769531 C 152.214844 19.3125 152.285156 18.855469 152.351562 18.394531 C 152.492188 17.324219 152.632812 16.25 152.847656 15.1875 C 154.402344 15.316406 155.964844 15.210938 157.523438 15.242188 C 157.507812 15.367188 157.476562 15.613281 157.460938 15.738281 C 157.382812 16.265625 157.3125 16.796875 157.257812 17.328125 C 157.140625 18.058594 157.039062 18.789062 156.929688 19.519531 C 156.621094 21.554688 156.246094 23.578125 155.863281 25.597656 C 155.34375 28.128906 154.777344 30.648438 154.179688 33.164062 C 153.828125 34.433594 153.539062 35.722656 153.1875 36.992188 C 152.894531 38.109375 152.625 39.234375 152.3125 40.351562 C 152.261719 40.496094 152.214844 40.644531 152.167969 40.789062 C 150.222656 40.761719 148.277344 40.78125 146.328125 40.78125 C 146.257812 40.535156 146.1875 40.289062 146.121094 40.042969 C 145.796875 38.882812 145.53125 37.703125 145.269531 36.523438 C 144.921875 35.050781 144.621094 33.566406 144.285156 32.085938 C 143.5625 28.660156 142.90625 25.214844 142.183594 21.785156 C 141.515625 25.371094 140.8125 28.945312 140.066406 32.511719 C 139.753906 33.886719 139.46875 35.269531 139.125 36.636719 C 138.824219 37.871094 138.507812 39.105469 138.199219 40.335938 C 138.148438 40.488281 138.09375 40.636719 138.042969 40.785156 C 136.089844 40.75 134.136719 40.820312 132.183594 40.75 C 131.988281 40.054688 131.808594 39.359375 131.628906 38.664062 C 131.300781 37.417969 130.992188 36.164062 130.65625 34.917969 C 130.246094 33.3125 129.867188 31.695312 129.496094 30.078125 C 129.394531 29.671875 129.300781 29.265625 129.210938 28.855469 C 128.621094 26.175781 128.097656 23.476562 127.660156 20.765625 C 127.457031 19.558594 127.300781 18.339844 127.109375 17.128906 C 127.015625 16.5 126.960938 15.871094 126.90625 15.242188 Z M 126.90625 15.242188 "/>
    <path style=" stroke:none;fill-rule:nonzero;fill:rgb(100%,100%,100%);fill-opacity:1;" d="M 45.402344 28.175781 C 47.003906 26.339844 48.726562 24.617188 50.339844 22.789062 C 52.984375 26.890625 55.566406 31.03125 58.203125 35.140625 C 58.359375 35.382812 58.574219 35.65625 58.382812 35.949219 C 57.824219 37.214844 57.210938 38.460938 56.625 39.714844 C 56.433594 39.003906 56.792969 38.335938 57.03125 37.683594 C 55.445312 37.632812 53.859375 37.652344 52.273438 37.671875 C 52.398438 38.082031 52.527344 38.492188 52.652344 38.90625 C 52.582031 38.882812 52.445312 38.847656 52.375 38.824219 C 50.0625 35.269531 47.753906 31.707031 45.402344 28.175781 Z M 45.402344 28.175781 "/>
    <path style=" stroke:none;fill-rule:nonzero;fill:rgb(18.823529%,11.764706%,11.372549%);fill-opacity:0.329412;" d="M 180.097656 6.800781 C 180.855469 7.09375 181.457031 7.828125 181.671875 8.601562 C 181.21875 7.941406 180.699219 7.328125 180.097656 6.800781 Z M 180.097656 6.800781 "/>
    <path style=" stroke:none;fill-rule:nonzero;fill:rgb(93.72549%,94.117647%,94.117647%);fill-opacity:1;" d="M 75.433594 7.222656 C 75.824219 7.210938 76.21875 7.179688 76.609375 7.117188 C 76.246094 9.109375 76.480469 11.152344 76.367188 13.164062 C 63.699219 13.140625 51.03125 13.164062 38.363281 13.171875 C 38.292969 13.054688 38.152344 12.816406 38.085938 12.695312 C 37.933594 14.734375 38.027344 16.777344 38.007812 18.8125 C 38.039062 24.304688 38.003906 29.792969 38.023438 35.28125 C 38.019531 35.792969 37.914062 36.296875 37.8125 36.800781 C 37.761719 31.1875 37.800781 25.570312 37.789062 19.957031 C 37.796875 16.542969 37.785156 13.128906 37.800781 9.714844 C 36.515625 9.511719 35.152344 9.546875 33.921875 10.003906 C 32.992188 10.355469 32.433594 11.25 32.171875 12.171875 C 32.078125 12.167969 31.898438 12.164062 31.804688 12.160156 C 31.679688 12.707031 31.546875 13.257812 31.414062 13.808594 C 29.957031 13.996094 28.492188 13.808594 27.03125 13.867188 C 25.148438 13.949219 23.265625 13.777344 21.378906 13.859375 C 19.347656 13.957031 17.3125 13.75 15.28125 13.878906 C 12.640625 13.925781 9.996094 13.71875 7.359375 13.925781 C 7.292969 14.777344 7.25 15.628906 7.253906 16.480469 C 7.273438 23.78125 7.238281 31.078125 7.269531 38.378906 C 7.253906 39.523438 7.253906 40.671875 7.359375 41.8125 C 23.003906 41.859375 38.652344 41.808594 54.300781 41.835938 C 54.832031 41.742188 55.035156 42.273438 55.277344 42.632812 C 54.84375 43.546875 54.414062 44.464844 53.964844 45.371094 C 53.878906 44.753906 54.027344 44.152344 54.222656 43.578125 C 39.675781 43.542969 25.125 43.578125 10.578125 43.566406 C 9.59375 43.546875 8.609375 43.542969 7.625 43.605469 C 7.417969 44.082031 7.210938 44.554688 7.027344 45.039062 C 6.980469 44.613281 6.941406 44.179688 6.929688 43.75 C 6.945312 33.636719 6.9375 23.523438 6.933594 13.410156 C 6.9375 12.003906 6.796875 10.484375 7.542969 9.21875 C 8.253906 8.121094 9.433594 7.183594 10.804688 7.214844 C 32.34375 7.230469 53.886719 7.214844 75.433594 7.222656 Z M 75.433594 7.222656 "/>
    <path style=" stroke:none;fill-rule:nonzero;fill:rgb(25.882353%,0.392157%,0%);fill-opacity:1;" d="M 76.777344 7.695312 C 109.933594 7.671875 143.085938 7.695312 176.242188 7.683594 C 177.496094 7.628906 178.765625 8.039062 179.621094 8.992188 C 180.398438 9.910156 180.617188 11.117188 180.542969 12.289062 C 146.1875 12.324219 111.835938 12.261719 77.480469 12.320312 C 77.382812 12.550781 77.285156 12.785156 77.1875 13.015625 C 77.085938 13.015625 76.882812 13.019531 76.78125 13.023438 C 76.777344 11.246094 76.773438 9.46875 76.777344 7.695312 Z M 76.777344 7.695312 "/>
    <path style=" stroke:none;fill-rule:nonzero;fill:rgb(36.078431%,18.039216%,17.647059%);fill-opacity:0.690196;" d="M 181.679688 8.628906 C 182.058594 9.179688 182.300781 9.832031 182.304688 10.503906 L 182.15625 10.246094 C 181.945312 9.726562 181.804688 9.179688 181.679688 8.628906 Z M 181.679688 8.628906 "/>
    <path style=" stroke:none;fill-rule:nonzero;fill:rgb(21.568627%,21.568627%,24.705882%);fill-opacity:1;" d="M 33.921875 10.003906 C 35.152344 9.546875 36.515625 9.511719 37.800781 9.714844 C 37.785156 13.128906 37.796875 16.542969 37.789062 19.957031 C 35.863281 19.894531 33.949219 19.714844 32.03125 19.566406 C 32.097656 17.105469 31.871094 14.621094 32.171875 12.171875 C 32.433594 11.25 32.992188 10.355469 33.921875 10.003906 Z M 33.921875 10.003906 "/>
    <path style=" stroke:none;fill-rule:nonzero;fill:rgb(21.568627%,21.568627%,24.705882%);fill-opacity:1;" d="M 15.503906 17.992188 C 19.617188 16.523438 24.058594 17.25 28.292969 17.632812 C 28.707031 18.042969 28.484375 18.738281 28.546875 19.269531 C 24.96875 19.070312 21.40625 18.636719 17.832031 18.378906 C 17.042969 18.339844 16.265625 18.210938 15.503906 17.992188 Z M 15.503906 17.992188 "/>
    <path style=" stroke:none;fill-rule:nonzero;fill:rgb(21.568627%,21.568627%,24.705882%);fill-opacity:1;" d="M 47.894531 17.835938 C 49.757812 16.953125 51.953125 16.914062 53.910156 17.503906 C 54.566406 18.652344 55.265625 19.78125 55.945312 20.921875 C 52.324219 20.847656 48.707031 20.667969 45.097656 20.398438 C 45.917969 19.433594 46.722656 18.386719 47.894531 17.835938 Z M 47.894531 17.835938 "/>
    <path style=" stroke:none;fill-rule:nonzero;fill:rgb(21.568627%,21.568627%,24.705882%);fill-opacity:1;" d="M 66.757812 18.148438 C 68.351562 16.980469 70.546875 17.066406 72.3125 17.765625 C 71.753906 18.960938 71.234375 20.175781 70.683594 21.375 C 68.738281 21.371094 66.796875 21.292969 64.851562 21.292969 C 65.351562 20.175781 65.71875 18.894531 66.757812 18.148438 Z M 66.757812 18.148438 "/>
    <path style=" stroke:none;fill-rule:nonzero;fill:rgb(47.45098%,16.862745%,17.254902%);fill-opacity:0.8;" d="M 182.15625 10.246094 L 182.304688 10.503906 C 182.417969 13.421875 182.316406 16.363281 182.351562 19.292969 C 182.367188 27.679688 182.351562 36.066406 182.363281 44.453125 C 182.410156 45.339844 182.277344 46.238281 181.835938 47.015625 C 181.957031 46.367188 182.058594 45.714844 182.125 45.058594 C 182.28125 42.796875 182.152344 40.523438 182.15625 38.261719 C 182.128906 37.164062 182.136719 36.066406 182.128906 34.972656 C 182.117188 33.667969 182.128906 32.367188 182.136719 31.0625 C 182.132812 30.292969 182.140625 29.523438 182.125 28.753906 C 182.195312 22.585938 182.1875 16.414062 182.15625 10.246094 Z M 182.15625 10.246094 "/>
    <path style=" stroke:none;fill-rule:nonzero;fill:rgb(35.294118%,5.882353%,0.392157%);fill-opacity:1;" d="M 77.480469 12.320312 C 111.835938 12.261719 146.1875 12.324219 180.542969 12.289062 C 180.511719 13.730469 180.566406 15.167969 180.523438 16.609375 C 178.898438 16.324219 177.019531 16.007812 175.578125 17.015625 C 175.625 16.863281 175.71875 16.5625 175.769531 16.410156 C 171.683594 14.511719 166.683594 13.6875 162.503906 15.742188 C 162.621094 15.417969 162.785156 15.109375 162.96875 14.8125 C 161.257812 14.800781 159.542969 14.738281 157.835938 14.828125 C 157.851562 15.191406 157.867188 15.558594 157.886719 15.921875 C 157.78125 15.875 157.570312 15.785156 157.460938 15.738281 C 157.476562 15.613281 157.507812 15.367188 157.523438 15.242188 C 155.964844 15.210938 154.402344 15.316406 152.847656 15.1875 C 151.828125 14.558594 150.601562 14.824219 149.46875 14.792969 C 143.902344 14.785156 138.335938 14.800781 132.769531 14.785156 C 132.3125 14.738281 131.914062 14.9375 131.578125 15.222656 C 130.019531 15.265625 128.460938 15.234375 126.90625 15.242188 C 126.960938 15.871094 127.015625 16.5 127.109375 17.128906 C 127 17.269531 126.890625 17.414062 126.78125 17.558594 C 126.691406 17.300781 126.597656 17.042969 126.511719 16.789062 C 125.941406 16.695312 125.253906 16.429688 124.769531 16.882812 C 124.519531 17.285156 124.371094 17.742188 124.222656 18.1875 C 124.230469 17.203125 124.222656 16.222656 124.21875 15.238281 C 118.636719 15.230469 113.054688 15.273438 107.476562 15.21875 C 107.09375 14.996094 106.6875 14.773438 106.234375 14.777344 C 105.441406 14.765625 104.503906 14.601562 103.886719 15.214844 C 102.328125 15.257812 100.765625 15.265625 99.210938 15.214844 C 98.550781 14.628906 97.628906 14.800781 96.828125 14.785156 C 93.847656 14.808594 90.863281 14.792969 87.886719 14.785156 C 87.445312 14.738281 87.0625 14.949219 86.730469 15.210938 C 85.378906 15.261719 84.023438 15.269531 82.671875 15.207031 C 82.414062 15.019531 82.140625 14.800781 81.800781 14.816406 C 80.347656 14.753906 78.886719 14.753906 77.433594 14.867188 C 77.324219 15.433594 77.203125 15.996094 77.101562 16.566406 C 76.996094 16.269531 76.894531 15.96875 76.792969 15.671875 C 76.773438 14.789062 76.785156 13.90625 76.78125 13.023438 C 76.882812 13.019531 77.085938 13.015625 77.1875 13.015625 C 77.285156 12.785156 77.382812 12.550781 77.480469 12.320312 Z M 77.480469 12.320312 "/>
    <path style=" stroke:none;fill-rule:nonzero;fill:rgb(97.647059%,98.039216%,98.039216%);fill-opacity:1;" d="M 38.363281 13.171875 C 51.03125 13.164062 63.699219 13.140625 76.367188 13.164062 C 76.382812 13.941406 76.382812 14.71875 76.34375 15.492188 C 65.15625 15.558594 53.964844 15.5 42.773438 15.519531 C 41.308594 15.53125 39.84375 15.570312 38.378906 15.46875 C 38.339844 14.703125 38.332031 13.9375 38.363281 13.171875 Z M 38.363281 13.171875 "/>
    <path style=" stroke:none;fill-rule:nonzero;fill:rgb(40%,9.411765%,3.137255%);fill-opacity:1;" d="M 77.433594 14.867188 C 78.886719 14.753906 80.347656 14.753906 81.800781 14.816406 C 82.140625 14.800781 82.414062 15.019531 82.671875 15.207031 C 82.070312 17.085938 82.875 19.085938 82.304688 20.976562 C 82.351562 19.574219 82.214844 18.175781 82.128906 16.777344 C 80.589844 16.777344 79.050781 16.746094 77.511719 16.800781 C 77.386719 17.089844 77.261719 17.382812 77.132812 17.671875 C 77.121094 17.304688 77.109375 16.933594 77.101562 16.566406 C 77.203125 15.996094 77.324219 15.433594 77.433594 14.867188 Z M 77.433594 14.867188 "/>
    <path style=" stroke:none;fill-rule:nonzero;fill:rgb(40%,9.411765%,3.137255%);fill-opacity:1;" d="M 103.886719 15.214844 C 104.503906 14.601562 105.441406 14.765625 106.234375 14.777344 C 106.6875 14.773438 107.09375 14.996094 107.476562 15.21875 C 107.457031 15.601562 107.449219 15.988281 107.441406 16.371094 C 107.328125 16.839844 107.203125 17.304688 107.09375 17.773438 C 106.589844 16.765625 105.316406 17.195312 104.433594 17.238281 C 104.28125 18.398438 104.273438 19.578125 104.027344 20.726562 C 104 20.855469 103.953125 21.109375 103.929688 21.238281 C 103.914062 19.234375 103.949219 17.222656 103.886719 15.214844 Z M 103.886719 15.214844 "/>
    <path style=" stroke:none;fill-rule:nonzero;fill:rgb(40%,9.411765%,3.137255%);fill-opacity:1;" d="M 157.835938 14.828125 C 159.542969 14.738281 161.257812 14.800781 162.96875 14.8125 C 162.785156 15.109375 162.621094 15.417969 162.503906 15.742188 C 161.578125 16.304688 160.761719 17.054688 160.207031 17.988281 C 160.203125 17.660156 160.1875 17.328125 160.167969 16.996094 C 159.394531 16.894531 158.609375 16.882812 157.835938 16.996094 C 157.71875 17.285156 157.609375 17.578125 157.496094 17.871094 C 157.4375 17.734375 157.316406 17.464844 157.257812 17.328125 C 157.3125 16.796875 157.382812 16.265625 157.460938 15.738281 C 157.570312 15.785156 157.78125 15.875 157.886719 15.921875 C 157.867188 15.558594 157.851562 15.191406 157.835938 14.828125 Z M 157.835938 14.828125 "/>
    <path style=" stroke:none;fill-rule:nonzero;fill:rgb(39.607843%,9.019608%,3.137255%);fill-opacity:1;" d="M 86.730469 15.210938 C 87.0625 14.949219 87.445312 14.738281 87.886719 14.785156 C 90.863281 14.792969 93.847656 14.808594 96.828125 14.785156 C 97.628906 14.800781 98.550781 14.628906 99.210938 15.214844 C 99.039062 15.839844 98.949219 16.480469 98.929688 17.132812 C 98.5 16.347656 97.558594 16.5625 96.824219 16.539062 C 94.070312 16.558594 91.320312 16.554688 88.570312 16.542969 C 88.507812 16.796875 88.445312 17.046875 88.386719 17.296875 C 87.84375 16.59375 87.3125 15.878906 86.730469 15.210938 Z M 86.730469 15.210938 "/>
    <path style=" stroke:none;fill-rule:nonzero;fill:rgb(39.607843%,9.019608%,3.137255%);fill-opacity:1;" d="M 131.578125 15.222656 C 131.914062 14.9375 132.3125 14.738281 132.769531 14.785156 C 138.335938 14.800781 143.902344 14.785156 149.46875 14.792969 C 150.601562 14.824219 151.828125 14.558594 152.847656 15.1875 C 152.632812 16.25 152.492188 17.324219 152.351562 18.394531 C 152.160156 18.054688 151.96875 17.71875 151.78125 17.378906 C 149.882812 17.359375 147.976562 17.273438 146.082031 17.445312 C 145.933594 17.859375 145.78125 18.277344 145.652344 18.703125 C 145.496094 17.84375 145.320312 16.988281 145.128906 16.140625 C 143.171875 16.152344 141.214844 16.144531 139.257812 16.144531 C 139.144531 16.671875 139.03125 17.203125 138.929688 17.734375 C 138.765625 17.417969 138.605469 17.105469 138.449219 16.789062 C 136.457031 16.746094 134.46875 16.75 132.480469 16.796875 C 132.324219 17.28125 132.164062 17.765625 132.023438 18.257812 C 131.882812 17.246094 131.726562 16.234375 131.578125 15.222656 Z M 131.578125 15.222656 "/>
    <path style=" stroke:none;fill-rule:nonzero;fill:rgb(41.176471%,0%,0%);fill-opacity:1;" d="M 82.304688 20.976562 C 82.875 19.085938 82.070312 17.085938 82.671875 15.207031 C 82.625 21.222656 82.703125 27.238281 82.640625 33.25 L 82.613281 33.054688 C 82.402344 31.925781 82.300781 30.785156 82.277344 29.636719 C 82.277344 28.316406 82.308594 26.996094 82.179688 25.683594 C 80.582031 25.601562 78.976562 25.585938 77.378906 25.6875 C 77.320312 27.34375 77.015625 28.976562 76.964844 30.628906 L 76.804688 30.914062 C 76.765625 27.726562 76.792969 24.535156 76.785156 21.34375 C 78.597656 21.28125 80.414062 21.351562 82.226562 21.328125 C 82.246094 21.238281 82.285156 21.0625 82.304688 20.976562 Z M 82.304688 20.976562 "/>
    <path style=" stroke:none;fill-rule:nonzero;fill:rgb(41.176471%,0%,0%);fill-opacity:1;" d="M 132.375 20.585938 C 134.371094 20.75 136.371094 20.519531 138.371094 20.480469 C 137.78125 23.273438 137.175781 26.058594 136.5625 28.84375 C 136.269531 28.128906 136.425781 27.359375 136.496094 26.625 C 135.699219 26.507812 134.894531 26.5 134.101562 26.621094 C 133.957031 27.121094 133.804688 27.613281 133.671875 28.117188 C 133.191406 25.613281 132.761719 23.105469 132.375 20.585938 Z M 132.375 20.585938 "/>
    <path style=" stroke:none;fill-rule:nonzero;fill:rgb(41.176471%,0%,0%);fill-opacity:1;" d="M 104.027344 20.726562 C 104.957031 21.617188 106.3125 21.039062 107.453125 21.121094 C 107.445312 22.039062 107.464844 22.957031 107.4375 23.878906 C 107.003906 25.132812 107.246094 26.464844 107.066406 27.753906 C 106.980469 27.148438 106.90625 26.539062 106.839844 25.929688 C 106.03125 25.8125 105.210938 25.8125 104.402344 25.921875 C 104.308594 27.230469 104.367188 28.554688 104.160156 29.855469 L 103.917969 29.960938 C 103.9375 27.054688 103.882812 24.144531 103.929688 21.238281 C 103.953125 21.109375 104 20.855469 104.027344 20.726562 Z M 104.027344 20.726562 "/>
    <path style=" stroke:none;fill-rule:nonzero;fill:rgb(41.176471%,0%,0%);fill-opacity:1;" d="M 112.726562 21.007812 C 117.703125 21.121094 122.6875 20.925781 127.660156 20.765625 C 128.097656 23.476562 128.621094 26.175781 129.210938 28.855469 C 129.121094 28.914062 128.941406 29.03125 128.851562 29.089844 C 128.6875 28.1875 128.496094 27.289062 128.242188 26.40625 C 126.421875 26.257812 124.582031 26.28125 122.757812 26.394531 C 122.75 27.214844 122.65625 28.03125 122.441406 28.828125 C 122.324219 27.660156 122.496094 26.464844 122.191406 25.320312 C 119.035156 25.347656 115.878906 25.332031 112.722656 25.328125 C 112.730469 23.886719 112.726562 22.449219 112.726562 21.007812 Z M 112.726562 21.007812 "/>
    <path style=" stroke:none;fill-rule:nonzero;fill:rgb(41.176471%,0%,0%);fill-opacity:1;" d="M 93.519531 21.296875 C 95.332031 21.332031 97.148438 21.308594 98.964844 21.28125 C 99.0625 23.316406 99.011719 25.363281 98.929688 27.40625 C 98.753906 26.683594 98.640625 25.953125 98.597656 25.214844 C 97.492188 25.125 96.382812 25.144531 95.277344 25.226562 C 95.355469 25.652344 95.425781 26.078125 95.511719 26.503906 C 94.214844 24.867188 92.957031 23.199219 91.667969 21.554688 C 92.269531 21.371094 92.886719 21.269531 93.519531 21.296875 Z M 93.519531 21.296875 "/>
    <path style=" stroke:none;fill-rule:nonzero;fill:rgb(46.666667%,12.54902%,7.45098%);fill-opacity:1;" d="M 98.929688 17.132812 C 98.949219 16.480469 99.039062 15.839844 99.210938 15.214844 C 99.207031 20.578125 99.210938 25.945312 99.210938 31.308594 C 99.070312 31.128906 98.933594 30.949219 98.792969 30.769531 C 99.097656 29.671875 99.035156 28.523438 98.929688 27.40625 C 99.011719 25.363281 99.0625 23.316406 98.964844 21.28125 C 97.148438 21.308594 95.332031 21.332031 93.519531 21.296875 C 92.886719 21.269531 92.269531 21.371094 91.667969 21.554688 C 90.574219 20.136719 89.484375 18.714844 88.386719 17.296875 C 88.445312 17.046875 88.507812 16.796875 88.570312 16.542969 C 91.320312 16.554688 94.070312 16.558594 96.824219 16.539062 C 97.558594 16.5625 98.5 16.347656 98.929688 17.132812 Z M 98.929688 17.132812 "/>
    <path style=" stroke:none;fill-rule:nonzero;fill:rgb(47.45098%,12.54902%,7.843137%);fill-opacity:1;" d="M 76.792969 15.671875 C 76.894531 15.96875 76.996094 16.269531 77.101562 16.566406 C 77.109375 16.933594 77.121094 17.304688 77.132812 17.671875 C 77.261719 17.382812 77.386719 17.089844 77.511719 16.800781 C 79.050781 16.746094 80.589844 16.777344 82.128906 16.777344 C 82.214844 18.175781 82.351562 19.574219 82.304688 20.976562 C 82.285156 21.0625 82.246094 21.238281 82.226562 21.328125 C 80.414062 21.351562 78.597656 21.28125 76.785156 21.34375 C 76.789062 19.453125 76.773438 17.5625 76.792969 15.671875 Z M 76.792969 15.671875 "/>
    <path style=" stroke:none;fill-rule:nonzero;fill:rgb(47.45098%,12.941176%,7.843137%);fill-opacity:1;" d="M 107.09375 17.773438 C 107.203125 17.304688 107.328125 16.839844 107.441406 16.371094 C 107.460938 17.957031 107.445312 19.535156 107.453125 21.121094 C 106.3125 21.039062 104.957031 21.617188 104.027344 20.726562 C 104.273438 19.578125 104.28125 18.398438 104.433594 17.238281 C 105.316406 17.195312 106.589844 16.765625 107.09375 17.773438 Z M 107.09375 17.773438 "/>
    <path style=" stroke:none;fill-rule:nonzero;fill:rgb(43.529412%,11.764706%,5.882353%);fill-opacity:1;" d="M 175.578125 17.015625 C 177.019531 16.007812 178.898438 16.324219 180.523438 16.609375 C 180.5 16.945312 180.476562 17.28125 180.453125 17.613281 C 178.730469 17.8125 177.003906 18.078125 175.261719 17.988281 C 175.363281 17.664062 175.472656 17.339844 175.578125 17.015625 Z M 175.578125 17.015625 "/>
    <path style=" stroke:none;fill-rule:nonzero;fill:rgb(49.019608%,13.333333%,8.627451%);fill-opacity:1;" d="M 124.769531 16.882812 C 125.253906 16.429688 125.941406 16.695312 126.511719 16.789062 C 126.597656 17.042969 126.691406 17.300781 126.78125 17.558594 C 126.890625 17.414062 127 17.269531 127.109375 17.128906 C 127.300781 18.339844 127.457031 19.558594 127.660156 20.765625 C 122.6875 20.925781 117.703125 21.121094 112.726562 21.007812 C 112.726562 20.476562 112.726562 19.945312 112.726562 19.410156 C 116.554688 19.410156 120.386719 19.40625 124.21875 19.410156 C 124.214844 19.003906 124.214844 18.59375 124.222656 18.1875 C 124.371094 17.742188 124.519531 17.285156 124.769531 16.882812 Z M 124.769531 16.882812 "/>
    <path style=" stroke:none;fill-rule:nonzero;fill:rgb(46.666667%,12.941176%,7.843137%);fill-opacity:1;" d="M 132.480469 16.796875 C 134.46875 16.75 136.457031 16.746094 138.449219 16.789062 C 138.605469 17.105469 138.765625 17.417969 138.929688 17.734375 C 138.75 18.652344 138.566406 19.566406 138.371094 20.480469 C 136.371094 20.519531 134.371094 20.75 132.375 20.585938 C 132.25 19.8125 132.125 19.039062 132.023438 18.257812 C 132.164062 17.765625 132.324219 17.28125 132.480469 16.796875 Z M 132.480469 16.796875 "/>
    <path style=" stroke:none;fill-rule:nonzero;fill:rgb(45.882353%,12.54902%,7.058824%);fill-opacity:1;" d="M 157.835938 16.996094 C 158.609375 16.882812 159.394531 16.894531 160.167969 16.996094 C 160.1875 17.328125 160.203125 17.660156 160.207031 17.988281 C 160.003906 18.425781 159.800781 18.863281 159.648438 19.320312 C 158.742188 19.398438 157.835938 19.464844 156.929688 19.519531 C 157.039062 18.789062 157.140625 18.058594 157.257812 17.328125 C 157.316406 17.464844 157.4375 17.734375 157.496094 17.871094 C 157.609375 17.578125 157.71875 17.285156 157.835938 16.996094 Z M 157.835938 16.996094 "/>
    <path style=" stroke:none;fill-rule:nonzero;fill:rgb(47.058824%,12.941176%,7.843137%);fill-opacity:1;" d="M 146.082031 17.445312 C 147.976562 17.273438 149.882812 17.359375 151.78125 17.378906 C 151.96875 17.71875 152.160156 18.054688 152.351562 18.394531 C 152.285156 18.855469 152.214844 19.3125 152.148438 19.769531 C 150.09375 20.003906 148.015625 19.957031 145.960938 20.210938 C 145.851562 19.707031 145.738281 19.207031 145.652344 18.703125 C 145.78125 18.277344 145.933594 17.859375 146.082031 17.445312 Z M 146.082031 17.445312 "/>
    <path style=" stroke:none;fill-rule:nonzero;fill:rgb(0%,0%,0%);fill-opacity:1;" d="M 11.585938 21.878906 C 12.101562 20.003906 13.683594 18.574219 15.503906 17.992188 C 16.265625 18.210938 17.042969 18.339844 17.832031 18.378906 C 21.40625 18.636719 24.96875 19.070312 28.546875 19.269531 C 28.484375 20.0625 28.371094 20.898438 27.898438 21.566406 C 27.476562 22.171875 26.734375 22.484375 26.011719 22.523438 C 23.84375 22.617188 21.679688 22.390625 19.511719 22.464844 C 18.730469 22.523438 17.851562 22.582031 17.238281 23.132812 C 16.867188 23.4375 16.882812 24.089844 17.269531 24.382812 C 17.863281 24.890625 18.667969 25.015625 19.402344 25.1875 C 22.082031 25.71875 24.949219 25.949219 27.300781 27.46875 C 28.894531 28.480469 29.875 30.339844 29.8125 32.234375 C 29.941406 34.261719 29.160156 36.453125 27.394531 37.585938 C 24.933594 39.175781 21.878906 39.28125 19.039062 39.261719 C 16.75 39.257812 14.457031 39.140625 12.1875 38.824219 C 12.113281 38.796875 11.960938 38.730469 11.882812 38.703125 C 11.828125 37.492188 11.6875 36.1875 12.304688 35.085938 C 12.742188 34.269531 13.664062 33.835938 14.554688 33.761719 C 17 33.597656 19.433594 34.089844 21.878906 33.960938 C 22.523438 33.925781 23.210938 33.800781 23.722656 33.375 C 24.265625 32.867188 24.117188 31.902344 23.449219 31.574219 C 22.09375 30.835938 20.5 30.808594 19.019531 30.511719 C 16.839844 30.132812 14.496094 29.671875 12.839844 28.089844 C 11.21875 26.496094 11.035156 23.972656 11.585938 21.878906 Z M 11.585938 21.878906 "/>
    <path style=" stroke:none;fill-rule:nonzero;fill:rgb(0%,0%,0%);fill-opacity:1;" d="M 32.03125 19.566406 C 33.949219 19.714844 35.863281 19.894531 37.789062 19.957031 C 37.800781 25.570312 37.761719 31.1875 37.8125 36.800781 C 37.730469 37.398438 37.496094 37.960938 37.167969 38.464844 C 35.679688 39.542969 33.742188 39.292969 32.023438 39.164062 C 32.042969 32.628906 32.027344 26.097656 32.03125 19.566406 Z M 32.03125 19.566406 "/>
    <path style=" stroke:none;fill-rule:nonzero;fill:rgb(0%,0%,0%);fill-opacity:1;" d="M 38.707031 27.5 C 40.832031 25.128906 42.96875 22.765625 45.097656 20.398438 C 48.707031 20.667969 52.324219 20.847656 55.945312 20.921875 C 57.734375 23.828125 59.410156 26.808594 61.273438 29.671875 C 62.417969 26.855469 63.671875 24.089844 64.851562 21.292969 C 66.796875 21.292969 68.738281 21.371094 70.683594 21.375 C 67.652344 28.175781 64.578125 34.957031 61.578125 41.765625 C 61.152344 42.613281 60.800781 43.492188 60.40625 44.351562 C 59.933594 45.417969 59.089844 46.375 57.914062 46.640625 C 56.488281 46.917969 54.964844 46.832031 53.601562 46.296875 C 53.71875 45.984375 53.84375 45.675781 53.964844 45.371094 C 54.414062 44.464844 54.84375 43.546875 55.277344 42.632812 C 55.71875 41.65625 56.183594 40.691406 56.625 39.714844 C 57.210938 38.460938 57.824219 37.214844 58.382812 35.949219 C 58.574219 35.65625 58.359375 35.382812 58.203125 35.140625 C 55.566406 31.03125 52.984375 26.890625 50.339844 22.789062 C 48.726562 24.617188 47.003906 26.339844 45.402344 28.175781 C 47.753906 31.707031 50.0625 35.269531 52.375 38.824219 C 50.324219 39.519531 47.964844 39.757812 45.996094 38.6875 C 45.347656 38.152344 44.738281 37.554688 44.296875 36.835938 C 42.46875 33.945312 40.660156 31.046875 38.820312 28.167969 C 38.722656 27.96875 38.457031 27.703125 38.707031 27.5 Z M 38.707031 27.5 "/>
    <path style=" stroke:none;fill-rule:nonzero;fill:rgb(40%,0%,0%);fill-opacity:1;" d="M 156.929688 19.519531 C 157.835938 19.464844 158.742188 19.398438 159.648438 19.320312 C 159.132812 21.175781 159.121094 23.1875 159.796875 25.003906 C 158.847656 24.570312 157.710938 24.28125 156.710938 24.671875 C 156.4375 25.128906 156.292969 25.644531 156.101562 26.136719 C 156.042969 26.003906 155.925781 25.734375 155.863281 25.597656 C 156.246094 23.578125 156.621094 21.554688 156.929688 19.519531 Z M 156.929688 19.519531 "/>
    <path style=" stroke:none;fill-rule:nonzero;fill:rgb(40%,0%,0%);fill-opacity:1;" d="M 145.960938 20.210938 C 148.015625 19.957031 150.09375 20.003906 152.148438 19.769531 C 151.828125 21.773438 151.519531 23.785156 151.144531 25.777344 C 151.003906 25.28125 150.847656 24.796875 150.699219 24.304688 C 149.644531 24.21875 148.582031 24.222656 147.527344 24.335938 C 147.363281 24.648438 147.199219 24.957031 147.039062 25.269531 C 146.691406 23.578125 146.308594 21.898438 145.960938 20.210938 Z M 145.960938 20.210938 "/>
    <path style=" stroke:none;fill-rule:nonzero;fill:rgb(47.058824%,2.745098%,2.745098%);fill-opacity:1;" d="M 140.066406 32.511719 C 140.8125 28.945312 141.515625 25.371094 142.183594 21.785156 C 142.90625 25.214844 143.5625 28.660156 144.285156 32.085938 C 143.9375 32 143.664062 31.753906 143.34375 31.613281 C 142.53125 31.480469 141.703125 31.578125 140.890625 31.625 C 140.660156 31.964844 140.625 32.640625 140.066406 32.511719 Z M 140.066406 32.511719 "/>
    <path style=" stroke:none;fill-rule:nonzero;fill:rgb(46.27451%,2.352941%,2.745098%);fill-opacity:1;" d="M 107.066406 27.753906 C 107.246094 26.464844 107.003906 25.132812 107.4375 23.878906 C 107.457031 25.296875 107.46875 26.714844 107.4375 28.132812 C 107.136719 29.238281 107.167969 30.386719 107.09375 31.523438 C 106.996094 31.148438 106.910156 30.777344 106.820312 30.402344 C 106.019531 30.304688 105.214844 30.296875 104.414062 30.382812 C 104.367188 31.246094 104.308594 32.109375 104.210938 32.972656 C 104.101562 31.9375 104.050781 30.890625 104.160156 29.855469 C 104.367188 28.554688 104.308594 27.230469 104.402344 25.921875 C 105.210938 25.8125 106.03125 25.8125 106.839844 25.929688 C 106.90625 26.539062 106.980469 27.148438 107.066406 27.753906 Z M 107.066406 27.753906 "/>
    <path style=" stroke:none;fill-rule:nonzero;fill:rgb(45.490196%,1.960784%,2.352941%);fill-opacity:1;" d="M 147.527344 24.335938 C 148.582031 24.222656 149.644531 24.21875 150.699219 24.304688 C 150.847656 24.796875 151.003906 25.28125 151.144531 25.777344 C 150.589844 28.996094 149.933594 32.203125 149.238281 35.394531 C 148.554688 32.007812 147.757812 28.648438 147.039062 25.269531 C 147.199219 24.957031 147.363281 24.648438 147.527344 24.335938 Z M 147.527344 24.335938 "/>
    <path style=" stroke:none;fill-rule:nonzero;fill:rgb(47.843137%,3.137255%,3.137255%);fill-opacity:1;" d="M 156.710938 24.671875 C 157.710938 24.28125 158.847656 24.570312 159.796875 25.003906 C 160.238281 26.03125 160.929688 26.949219 161.792969 27.65625 C 163.667969 29.222656 166.066406 29.886719 168.308594 30.730469 C 169.382812 31.152344 170.542969 31.558594 171.316406 32.464844 C 171.914062 33.128906 171.804688 34.109375 171.574219 34.902344 C 171.355469 34.050781 171.476562 32.957031 170.679688 32.382812 C 170.066406 31.878906 169.214844 31.976562 168.480469 31.949219 C 164.035156 32.015625 159.59375 31.882812 155.152344 32.015625 C 154.828125 32.398438 154.496094 32.773438 154.179688 33.164062 C 154.777344 30.648438 155.34375 28.128906 155.863281 25.597656 C 155.925781 25.734375 156.042969 26.003906 156.101562 26.136719 C 156.292969 25.644531 156.4375 25.128906 156.710938 24.671875 Z M 156.710938 24.671875 "/>
    <path style=" stroke:none;fill-rule:nonzero;fill:rgb(48.627451%,3.529412%,3.529412%);fill-opacity:1;" d="M 87.378906 24.746094 C 89.296875 27.144531 91.128906 29.605469 93.023438 32.023438 C 91.382812 32.378906 89.699219 32.070312 88.046875 32.285156 C 87.835938 32.921875 87.597656 33.546875 87.382812 34.183594 C 87.375 31.039062 87.375 27.890625 87.378906 24.746094 Z M 87.378906 24.746094 "/>
    <path style=" stroke:none;fill-rule:nonzero;fill:rgb(45.098039%,1.960784%,2.352941%);fill-opacity:1;" d="M 95.277344 25.226562 C 96.382812 25.144531 97.492188 25.125 98.597656 25.214844 C 98.640625 25.953125 98.753906 26.683594 98.929688 27.40625 C 99.035156 28.523438 99.097656 29.671875 98.792969 30.769531 C 97.699219 29.347656 96.585938 27.9375 95.511719 26.503906 C 95.425781 26.078125 95.355469 25.652344 95.277344 25.226562 Z M 95.277344 25.226562 "/>
    <path style=" stroke:none;fill-rule:nonzero;fill:rgb(52.156863%,5.098039%,5.882353%);fill-opacity:1;" d="M 122.191406 25.320312 C 122.496094 26.464844 122.324219 27.660156 122.441406 28.828125 C 122.429688 29.257812 122.425781 29.683594 122.421875 30.109375 C 124.78125 30.222656 127.136719 30.132812 129.496094 30.078125 C 129.867188 31.695312 130.246094 33.3125 130.65625 34.917969 C 130.230469 34.878906 130.0625 34.46875 129.835938 34.171875 C 128.082031 33.960938 126.308594 34.128906 124.546875 34.078125 C 120.882812 34.132812 117.214844 33.996094 113.550781 34.144531 C 113.40625 34.328125 113.261719 34.511719 113.121094 34.695312 C 112.988281 34.589844 112.855469 34.480469 112.726562 34.371094 C 112.730469 32.9375 112.722656 31.5 112.726562 30.066406 C 115.867188 30.066406 119.011719 30.066406 122.152344 30.066406 C 122.164062 28.484375 122.097656 26.902344 122.191406 25.320312 Z M 122.191406 25.320312 "/>
    <path style=" stroke:none;fill-rule:nonzero;fill:rgb(45.882353%,2.352941%,2.352941%);fill-opacity:1;" d="M 77.378906 25.6875 C 78.976562 25.585938 80.582031 25.601562 82.179688 25.683594 C 82.308594 26.996094 82.277344 28.316406 82.277344 29.636719 C 80.667969 29.652344 79.0625 29.578125 77.457031 29.683594 C 77.367188 30.273438 77.242188 30.859375 77.097656 31.441406 C 77.0625 31.238281 76.996094 30.832031 76.964844 30.628906 C 77.015625 28.976562 77.320312 27.34375 77.378906 25.6875 Z M 77.378906 25.6875 "/>
    <path style=" stroke:none;fill-rule:nonzero;fill:rgb(46.666667%,2.745098%,2.745098%);fill-opacity:1;" d="M 122.757812 26.394531 C 124.582031 26.28125 126.421875 26.257812 128.242188 26.40625 C 128.496094 27.289062 128.6875 28.1875 128.851562 29.089844 C 128.941406 29.03125 129.121094 28.914062 129.210938 28.855469 C 129.300781 29.265625 129.394531 29.671875 129.496094 30.078125 C 127.136719 30.132812 124.78125 30.222656 122.421875 30.109375 C 122.425781 29.683594 122.429688 29.257812 122.441406 28.828125 C 122.65625 28.03125 122.75 27.214844 122.757812 26.394531 Z M 122.757812 26.394531 "/>
    <path style=" stroke:none;fill-rule:nonzero;fill:rgb(47.45098%,2.745098%,3.137255%);fill-opacity:1;" d="M 134.101562 26.621094 C 134.894531 26.5 135.699219 26.507812 136.496094 26.625 C 136.425781 27.359375 136.269531 28.128906 136.5625 28.84375 C 136.09375 31.027344 135.609375 33.203125 135.125 35.386719 C 134.628906 32.964844 134.113281 30.546875 133.671875 28.117188 C 133.804688 27.613281 133.957031 27.121094 134.101562 26.621094 Z M 134.101562 26.621094 "/>
    <path style=" stroke:none;fill-rule:nonzero;fill:rgb(47.058824%,2.745098%,3.137255%);fill-opacity:1;" d="M 174.171875 27.324219 C 175.09375 27.203125 176.027344 27.191406 176.957031 27.21875 C 178.570312 27.257812 180.1875 27.152344 181.800781 27.285156 C 181.910156 27.773438 182.035156 28.261719 182.125 28.753906 C 182.140625 29.523438 182.132812 30.292969 182.136719 31.0625 C 181.960938 30.839844 181.792969 30.617188 181.625 30.394531 C 180.039062 30.382812 178.453125 30.363281 176.871094 30.417969 C 176.742188 30.75 176.613281 31.085938 176.492188 31.417969 C 176.289062 30.578125 175.902344 29.789062 175.414062 29.078125 C 175.5 28.246094 174.671875 27.832031 174.171875 27.324219 Z M 174.171875 27.324219 "/>
    <path style=" stroke:none;fill-rule:nonzero;fill:rgb(51.764706%,4.705882%,5.490196%);fill-opacity:1;" d="M 107.09375 31.523438 C 107.167969 30.386719 107.136719 29.238281 107.4375 28.132812 C 107.457031 29.464844 107.464844 30.796875 107.441406 32.132812 C 107.296875 32.773438 107.167969 33.417969 107.074219 34.070312 C 106.992188 33.925781 106.832031 33.640625 106.753906 33.5 C 105.988281 33.421875 105.214844 33.417969 104.449219 33.484375 C 104.359375 34.234375 104.460938 35.089844 103.925781 35.703125 C 103.917969 33.789062 103.902344 31.875 103.917969 29.960938 L 104.160156 29.855469 C 104.050781 30.890625 104.101562 31.9375 104.210938 32.972656 C 104.308594 32.109375 104.367188 31.246094 104.414062 30.382812 C 105.214844 30.296875 106.019531 30.304688 106.820312 30.402344 C 106.910156 30.777344 106.996094 31.148438 107.09375 31.523438 Z M 107.09375 31.523438 "/>
    <path style=" stroke:none;fill-rule:nonzero;fill:rgb(50.196078%,4.313725%,4.705882%);fill-opacity:1;" d="M 77.457031 29.683594 C 79.0625 29.578125 80.667969 29.652344 82.277344 29.636719 C 82.300781 30.785156 82.402344 31.925781 82.613281 33.054688 C 82.621094 33.921875 82.550781 34.785156 82.371094 35.628906 C 82.335938 35.441406 82.257812 35.066406 82.21875 34.878906 C 82.210938 34.015625 82.226562 33.152344 82.171875 32.285156 C 80.59375 32.191406 79.015625 32.226562 77.441406 32.289062 C 77.332031 32.675781 77.222656 33.058594 77.109375 33.445312 C 77.074219 32.777344 77.066406 32.109375 77.097656 31.441406 C 77.242188 30.859375 77.367188 30.273438 77.457031 29.683594 Z M 77.457031 29.683594 "/>
    <path style=" stroke:none;fill-rule:nonzero;fill:rgb(53.333333%,5.098039%,6.27451%);fill-opacity:1;" d="M 176.871094 30.417969 C 178.453125 30.363281 180.039062 30.382812 181.625 30.394531 C 181.792969 30.617188 181.960938 30.839844 182.136719 31.0625 C 182.128906 32.367188 182.117188 33.667969 182.128906 34.972656 C 180.273438 34.707031 178.339844 34.621094 176.507812 35.074219 C 176.714844 33.867188 176.726562 32.621094 176.492188 31.417969 C 176.613281 31.085938 176.742188 30.75 176.871094 30.417969 Z M 176.871094 30.417969 "/>
    <path style=" stroke:none;fill-rule:nonzero;fill:rgb(55.294118%,5.882353%,7.058824%);fill-opacity:1;" d="M 76.804688 30.914062 L 76.964844 30.628906 C 76.996094 30.832031 77.0625 31.238281 77.097656 31.441406 C 77.066406 32.109375 77.074219 32.777344 77.109375 33.445312 C 77.222656 33.058594 77.332031 32.675781 77.441406 32.289062 C 79.015625 32.226562 80.59375 32.191406 82.171875 32.285156 C 82.226562 33.152344 82.210938 34.015625 82.21875 34.878906 C 80.808594 34.960938 79.398438 34.871094 77.992188 34.914062 C 77.566406 34.847656 77.34375 35.246094 77.066406 35.484375 C 77.003906 34.84375 76.902344 34.210938 76.796875 33.574219 C 76.777344 32.6875 76.765625 31.800781 76.804688 30.914062 Z M 76.804688 30.914062 "/>
    <path style=" stroke:none;fill-rule:nonzero;fill:rgb(56.862745%,5.882353%,7.45098%);fill-opacity:1;" d="M 140.890625 31.625 C 141.703125 31.578125 142.53125 31.480469 143.34375 31.613281 C 143.664062 31.753906 143.9375 32 144.285156 32.085938 C 144.621094 33.566406 144.921875 35.050781 145.269531 36.523438 C 143.792969 36.15625 142.269531 36.273438 140.765625 36.257812 C 140.191406 36.234375 139.644531 36.421875 139.125 36.636719 C 139.46875 35.269531 139.753906 33.886719 140.066406 32.511719 C 140.625 32.640625 140.660156 31.964844 140.890625 31.625 Z M 140.890625 31.625 "/>
    <path style=" stroke:none;fill-rule:nonzero;fill:rgb(57.254902%,6.27451%,7.45098%);fill-opacity:1;" d="M 88.046875 32.285156 C 89.699219 32.070312 91.382812 32.378906 93.023438 32.023438 C 94.117188 33.441406 95.207031 34.859375 96.304688 36.273438 C 93.535156 36.3125 90.769531 36.222656 88.003906 36.296875 C 87.695312 37.664062 87.351562 39.050781 87.539062 40.464844 C 87.5 40.542969 87.421875 40.699219 87.382812 40.777344 C 87.382812 38.578125 87.367188 36.382812 87.382812 34.183594 C 87.597656 33.546875 87.835938 32.921875 88.046875 32.285156 Z M 88.046875 32.285156 "/>
    <path style=" stroke:none;fill-rule:nonzero;fill:rgb(56.078431%,5.882353%,7.45098%);fill-opacity:1;" d="M 154.179688 33.164062 C 154.496094 32.773438 154.828125 32.398438 155.152344 32.015625 C 159.59375 31.882812 164.035156 32.015625 168.480469 31.949219 C 169.214844 31.976562 170.066406 31.878906 170.679688 32.382812 C 171.476562 32.957031 171.355469 34.050781 171.574219 34.902344 C 170.980469 35.921875 169.816406 36.40625 168.695312 36.570312 C 165.707031 36.925781 162.644531 36.1875 160.035156 34.71875 C 159.832031 35.75 159.605469 36.773438 159.359375 37.796875 C 159.253906 37.285156 159.171875 36.777344 159.132812 36.257812 C 157.628906 36.226562 156.121094 36.269531 154.621094 36.210938 C 154.007812 36.140625 153.601562 36.636719 153.1875 36.992188 C 153.539062 35.722656 153.828125 34.433594 154.179688 33.164062 Z M 154.179688 33.164062 "/>
    <path style=" stroke:none;fill-rule:nonzero;fill:rgb(60%,6.666667%,8.235294%);fill-opacity:1;" d="M 107.074219 34.070312 C 107.167969 33.417969 107.296875 32.773438 107.441406 32.132812 C 107.457031 33.9375 107.453125 35.75 107.445312 37.558594 C 107.347656 37.96875 107.230469 38.375 107.121094 38.785156 C 106.984375 38.605469 106.855469 38.421875 106.726562 38.242188 C 105.980469 38.191406 105.234375 38.179688 104.488281 38.203125 C 104.371094 39.074219 104.214844 39.945312 103.933594 40.777344 C 103.914062 39.085938 103.910156 37.394531 103.925781 35.703125 C 104.460938 35.089844 104.359375 34.234375 104.449219 33.484375 C 105.214844 33.417969 105.988281 33.421875 106.753906 33.5 C 106.832031 33.640625 106.992188 33.925781 107.074219 34.070312 Z M 107.074219 34.070312 "/>
    <path style=" stroke:none;fill-rule:nonzero;fill:rgb(64.705882%,7.843137%,9.803922%);fill-opacity:1;" d="M 82.613281 33.054688 L 82.640625 33.25 C 82.71875 35.75 82.648438 38.25 82.667969 40.75 C 81.160156 40.253906 79.558594 40.367188 78 40.417969 C 77.539062 40.347656 77.347656 40.785156 77.144531 41.101562 C 77.03125 40.6875 76.910156 40.28125 76.796875 39.871094 C 76.773438 37.773438 76.777344 35.671875 76.796875 33.574219 C 76.902344 34.210938 77.003906 34.84375 77.066406 35.484375 C 77.34375 35.246094 77.566406 34.847656 77.992188 34.914062 C 79.398438 34.871094 80.808594 34.960938 82.21875 34.878906 C 82.257812 35.066406 82.335938 35.441406 82.371094 35.628906 C 82.550781 34.785156 82.621094 33.921875 82.613281 33.054688 Z M 82.613281 33.054688 "/>
    <path style=" stroke:none;fill-rule:nonzero;fill:rgb(59.607843%,6.666667%,8.235294%);fill-opacity:1;" d="M 113.121094 34.695312 C 113.261719 34.511719 113.40625 34.328125 113.550781 34.144531 C 117.214844 33.996094 120.882812 34.132812 124.546875 34.078125 C 126.308594 34.128906 128.082031 33.960938 129.835938 34.171875 C 130.0625 34.46875 130.230469 34.878906 130.65625 34.917969 C 130.992188 36.164062 131.300781 37.417969 131.628906 38.664062 C 130.855469 38.394531 130.054688 38.203125 129.238281 38.25 C 127.707031 38.316406 126.175781 38.160156 124.652344 38.335938 C 124.503906 38.839844 124.351562 39.339844 124.226562 39.847656 C 124.222656 38.773438 124.21875 37.695312 124.222656 36.617188 C 120.386719 36.617188 116.554688 36.617188 112.726562 36.617188 C 112.726562 35.867188 112.726562 35.121094 112.726562 34.371094 C 112.855469 34.480469 112.988281 34.589844 113.121094 34.695312 Z M 113.121094 34.695312 "/>
    <path style=" stroke:none;fill-rule:nonzero;fill:rgb(61.176471%,7.45098%,9.019608%);fill-opacity:1;" d="M 176.507812 35.074219 C 178.339844 34.621094 180.273438 34.707031 182.128906 34.972656 C 182.136719 36.066406 182.128906 37.164062 182.15625 38.261719 C 181.179688 37.824219 180.09375 38.015625 179.0625 37.992188 C 178.0625 38.019531 177.054688 37.910156 176.058594 38.027344 C 175.558594 38.21875 175.167969 38.667969 174.601562 38.675781 C 175.558594 37.679688 176.1875 36.414062 176.507812 35.074219 Z M 176.507812 35.074219 "/>
    <path style=" stroke:none;fill-rule:nonzero;fill:rgb(65.490196%,8.235294%,10.588235%);fill-opacity:1;" d="M 88.003906 36.296875 C 90.769531 36.222656 93.535156 36.3125 96.304688 36.273438 C 97.222656 37.460938 98.136719 38.65625 99.058594 39.84375 C 98.320312 39.675781 97.570312 39.558594 96.816406 39.570312 C 94.074219 39.628906 91.332031 39.542969 88.589844 39.59375 C 88.027344 39.511719 87.816406 40.101562 87.539062 40.464844 C 87.351562 39.050781 87.695312 37.664062 88.003906 36.296875 Z M 88.003906 36.296875 "/>
    <path style=" stroke:none;fill-rule:nonzero;fill:rgb(65.490196%,8.235294%,10.588235%);fill-opacity:1;" d="M 139.125 36.636719 C 139.644531 36.421875 140.191406 36.234375 140.765625 36.257812 C 142.269531 36.273438 143.792969 36.15625 145.269531 36.523438 C 145.53125 37.703125 145.796875 38.882812 146.121094 40.042969 C 145.292969 39.832031 144.441406 39.710938 143.589844 39.773438 C 142.058594 39.871094 140.523438 39.71875 138.996094 39.855469 C 138.738281 40.03125 138.476562 40.203125 138.199219 40.335938 C 138.507812 39.105469 138.824219 37.871094 139.125 36.636719 Z M 139.125 36.636719 "/>
    <path style=" stroke:none;fill-rule:nonzero;fill:rgb(65.490196%,8.235294%,10.588235%);fill-opacity:1;" d="M 153.1875 36.992188 C 153.601562 36.636719 154.007812 36.140625 154.621094 36.210938 C 156.121094 36.269531 157.628906 36.226562 159.132812 36.257812 C 159.171875 36.777344 159.253906 37.285156 159.359375 37.796875 C 159.300781 38.128906 159.238281 38.457031 159.179688 38.792969 C 158.921875 39.179688 158.714844 39.78125 158.15625 39.765625 C 156.664062 39.917969 155.167969 39.71875 153.675781 39.808594 C 153.175781 39.84375 152.753906 40.140625 152.3125 40.351562 C 152.625 39.234375 152.894531 38.109375 153.1875 36.992188 Z M 153.1875 36.992188 "/>
    <path style=" stroke:none;fill-rule:nonzero;fill:rgb(97.647059%,97.647059%,97.647059%);fill-opacity:1;" d="M 7.269531 38.378906 C 7.441406 38.144531 7.617188 37.910156 7.792969 37.675781 C 8.859375 37.609375 9.929688 37.597656 10.992188 37.695312 C 11.261719 38.050781 11.539062 38.410156 11.882812 38.703125 C 11.960938 38.730469 12.113281 38.796875 12.1875 38.824219 C 12.167969 38.929688 12.128906 39.140625 12.113281 39.242188 C 15.929688 39.714844 19.828125 40.097656 23.644531 39.417969 C 24.925781 39.203125 26.15625 38.761719 27.289062 38.132812 C 28.523438 37.386719 30.019531 37.664062 31.382812 37.707031 C 31.449219 38.132812 31.507812 38.554688 31.589844 38.976562 C 31.699219 39.023438 31.914062 39.117188 32.023438 39.164062 C 33.742188 39.292969 35.679688 39.542969 37.167969 38.464844 C 37.773438 38.324219 38.105469 37.625 38.761719 37.660156 C 40.414062 37.625 42.070312 37.640625 43.722656 37.671875 C 44.671875 37.570312 45.039062 38.867188 45.996094 38.6875 C 47.964844 39.757812 50.324219 39.519531 52.375 38.824219 C 52.445312 38.847656 52.582031 38.882812 52.652344 38.90625 C 52.527344 38.492188 52.398438 38.082031 52.273438 37.671875 C 53.859375 37.652344 55.445312 37.632812 57.03125 37.683594 C 56.792969 38.335938 56.433594 39.003906 56.625 39.714844 C 56.183594 40.691406 55.71875 41.65625 55.277344 42.632812 C 55.035156 42.273438 54.832031 41.742188 54.300781 41.835938 C 38.652344 41.808594 23.003906 41.859375 7.359375 41.8125 C 7.253906 40.671875 7.253906 39.523438 7.269531 38.378906 Z M 7.269531 38.378906 "/>
    <path style=" stroke:none;fill-rule:nonzero;fill:rgb(74.509804%,9.803922%,12.54902%);fill-opacity:1;" d="M 107.121094 38.785156 C 107.230469 38.375 107.347656 37.96875 107.445312 37.558594 C 107.453125 38.628906 107.457031 39.703125 107.449219 40.777344 C 113.039062 40.75 118.628906 40.832031 124.214844 40.738281 C 125.863281 40.304688 127.570312 40.570312 129.253906 40.488281 C 130.238281 40.425781 131.21875 40.554688 132.183594 40.75 C 134.136719 40.820312 136.089844 40.75 138.042969 40.785156 C 138.09375 40.636719 138.148438 40.488281 138.199219 40.335938 C 138.476562 40.203125 138.738281 40.03125 138.996094 39.855469 C 140.523438 39.71875 142.058594 39.871094 143.589844 39.773438 C 144.441406 39.710938 145.292969 39.832031 146.121094 40.042969 C 146.1875 40.289062 146.257812 40.535156 146.328125 40.78125 C 148.277344 40.78125 150.222656 40.761719 152.167969 40.789062 C 152.214844 40.644531 152.261719 40.496094 152.3125 40.351562 C 152.753906 40.140625 153.175781 39.84375 153.675781 39.808594 C 155.167969 39.71875 156.664062 39.917969 158.15625 39.765625 C 158.714844 39.78125 158.921875 39.179688 159.179688 38.792969 C 159.160156 38.96875 159.117188 39.316406 159.09375 39.488281 C 161.65625 40.9375 164.664062 41.332031 167.566406 41.292969 C 170.109375 41.257812 172.742188 40.484375 174.601562 38.675781 C 175.167969 38.667969 175.558594 38.21875 176.058594 38.027344 C 177.054688 37.910156 178.0625 38.019531 179.0625 37.992188 C 180.09375 38.015625 181.179688 37.824219 182.15625 38.261719 C 182.152344 40.523438 182.28125 42.796875 182.125 45.058594 L 181.992188 45.246094 C 181.933594 44.960938 181.871094 44.671875 181.816406 44.386719 C 177.296875 44.558594 172.773438 44.40625 168.25 44.464844 C 140.914062 44.453125 113.582031 44.464844 86.246094 44.457031 C 83.292969 44.496094 80.332031 44.367188 77.378906 44.519531 C 77.316406 45.214844 77.257812 45.914062 77.222656 46.613281 C 77.175781 45.84375 77.035156 45.082031 76.789062 44.351562 C 76.75 42.859375 76.78125 41.363281 76.796875 39.871094 C 76.910156 40.28125 77.03125 40.6875 77.144531 41.101562 C 77.347656 40.785156 77.539062 40.347656 78 40.417969 C 79.558594 40.367188 81.160156 40.253906 82.667969 40.75 C 84.238281 40.816406 85.8125 40.761719 87.382812 40.777344 C 87.421875 40.699219 87.5 40.542969 87.539062 40.464844 C 87.816406 40.101562 88.027344 39.511719 88.589844 39.59375 C 91.332031 39.542969 94.074219 39.628906 96.816406 39.570312 C 97.570312 39.558594 98.320312 39.675781 99.058594 39.84375 C 99.304688 40.15625 99.558594 40.46875 99.8125 40.785156 C 101.1875 40.773438 102.5625 40.777344 103.933594 40.777344 C 104.214844 39.945312 104.371094 39.074219 104.488281 38.203125 C 105.234375 38.179688 105.980469 38.191406 106.726562 38.242188 C 106.855469 38.421875 106.984375 38.605469 107.121094 38.785156 Z M 107.121094 38.785156 "/>
    <path style=" stroke:none;fill-rule:nonzero;fill:rgb(68.627451%,9.019608%,11.372549%);fill-opacity:1;" d="M 124.652344 38.335938 C 126.175781 38.160156 127.707031 38.316406 129.238281 38.25 C 130.054688 38.203125 130.855469 38.394531 131.628906 38.664062 C 131.808594 39.359375 131.988281 40.054688 132.183594 40.75 C 131.21875 40.554688 130.238281 40.425781 129.253906 40.488281 C 127.570312 40.570312 125.863281 40.304688 124.214844 40.738281 C 124.214844 40.441406 124.21875 40.144531 124.226562 39.847656 C 124.351562 39.339844 124.503906 38.839844 124.652344 38.335938 Z M 124.652344 38.335938 "/>
    <path style=" stroke:none;fill-rule:nonzero;fill:rgb(93.72549%,93.72549%,94.117647%);fill-opacity:1;" d="M 63.921875 40.660156 C 68.046875 40.636719 72.175781 40.71875 76.304688 40.609375 C 76.574219 43.089844 76.867188 45.582031 76.632812 48.078125 C 76.332031 46.671875 76.445312 45.226562 76.296875 43.804688 C 71.621094 43.742188 66.945312 43.777344 62.269531 43.730469 C 61.585938 43.683594 61 44.078125 60.40625 44.351562 C 60.800781 43.492188 61.152344 42.613281 61.578125 41.765625 C 62.066406 41.613281 62.332031 41.167969 62.609375 40.773438 C 63.042969 40.722656 63.480469 40.671875 63.921875 40.660156 Z M 63.921875 40.660156 "/>
    <path style=" stroke:none;fill-rule:nonzero;fill:rgb(88.627451%,88.627451%,89.411765%);fill-opacity:1;" d="M 7.625 43.605469 C 8.609375 43.542969 9.59375 43.546875 10.578125 43.566406 C 25.125 43.578125 39.675781 43.542969 54.222656 43.578125 C 54.027344 44.152344 53.878906 44.753906 53.964844 45.371094 C 53.84375 45.675781 53.71875 45.984375 53.601562 46.296875 C 54.964844 46.832031 56.488281 46.917969 57.914062 46.640625 C 59.089844 46.375 59.933594 45.417969 60.40625 44.351562 C 61 44.078125 61.585938 43.683594 62.269531 43.730469 C 66.945312 43.777344 71.621094 43.742188 76.296875 43.804688 C 76.445312 45.226562 76.332031 46.671875 76.632812 48.078125 C 76.667969 48.335938 76.707031 48.59375 76.742188 48.855469 C 55.234375 48.832031 33.726562 48.851562 12.214844 48.847656 C 11.101562 48.820312 9.820312 49.054688 8.914062 48.234375 C 7.808594 47.542969 7.085938 46.351562 7.027344 45.039062 C 7.210938 44.554688 7.417969 44.082031 7.625 43.605469 Z M 7.625 43.605469 "/>
    <path style=" stroke:none;fill-rule:nonzero;fill:rgb(78.039216%,10.980392%,13.333333%);fill-opacity:1;" d="M 168.25 44.464844 C 172.773438 44.40625 177.296875 44.558594 181.816406 44.386719 C 181.871094 44.671875 181.933594 44.960938 181.992188 45.246094 C 181.539062 45.859375 181.066406 46.464844 180.554688 47.03125 C 180.246094 47.144531 179.9375 47.257812 179.632812 47.375 C 146.308594 47.429688 112.984375 47.375 79.664062 47.402344 C 78.691406 47.425781 77.710938 47.445312 76.765625 47.195312 C 76.765625 46.246094 76.777344 45.300781 76.789062 44.351562 C 77.035156 45.082031 77.175781 45.84375 77.222656 46.613281 C 77.257812 45.914062 77.316406 45.214844 77.378906 44.519531 C 80.332031 44.367188 83.292969 44.496094 86.246094 44.457031 C 113.582031 44.464844 140.914062 44.453125 168.25 44.464844 Z M 168.25 44.464844 "/>
    <path style=" stroke:none;fill-rule:nonzero;fill:rgb(59.215686%,7.45098%,7.058824%);fill-opacity:1;" d="M 181.992188 45.246094 L 182.125 45.058594 C 182.058594 45.714844 181.957031 46.367188 181.835938 47.015625 C 181.796875 47.152344 181.746094 47.28125 181.675781 47.40625 C 181.28125 47.9375 180.875 48.457031 180.445312 48.960938 C 180.40625 48.976562 180.324219 49.007812 180.28125 49.019531 C 179.921875 49.089844 179.605469 49.292969 179.394531 49.585938 C 178.683594 50.21875 177.632812 50.25 176.726562 50.28125 C 143.675781 50.277344 110.625 50.277344 77.574219 50.28125 C 77.355469 50.261719 76.914062 50.222656 76.695312 50.203125 C 76.75 49.84375 76.777344 49.480469 76.777344 49.117188 C 91.605469 49.039062 106.4375 49.109375 121.269531 49.085938 C 139.835938 49.085938 158.402344 49.085938 176.96875 49.085938 C 178.441406 49.148438 179.78125 48.238281 180.554688 47.03125 C 181.066406 46.464844 181.539062 45.859375 181.992188 45.246094 Z M 181.992188 45.246094 "/>
    <path style=" stroke:none;fill-rule:nonzero;fill:rgb(91.764706%,23.921569%,17.647059%);fill-opacity:1;" d="M 76.765625 47.195312 C 77.710938 47.445312 78.691406 47.425781 79.664062 47.402344 C 112.984375 47.375 146.308594 47.429688 179.632812 47.375 C 179.160156 47.703125 178.730469 48.148438 178.140625 48.234375 C 176.042969 48.652344 173.894531 48.515625 171.769531 48.53125 C 144.125 48.53125 116.484375 48.523438 88.839844 48.550781 C 84.820312 48.523438 80.796875 48.621094 76.773438 48.523438 C 76.769531 48.078125 76.765625 47.636719 76.765625 47.195312 Z M 76.765625 47.195312 "/>
    <path style=" stroke:none;fill-rule:nonzero;fill:rgb(75.686275%,27.45098%,19.215686%);fill-opacity:1;" d="M 179.632812 47.375 C 179.9375 47.257812 180.246094 47.144531 180.554688 47.03125 C 179.78125 48.238281 178.441406 49.148438 176.96875 49.085938 C 158.402344 49.085938 139.835938 49.085938 121.269531 49.085938 C 106.4375 49.109375 91.605469 49.039062 76.777344 49.117188 C 76.773438 48.96875 76.773438 48.671875 76.773438 48.523438 C 80.796875 48.621094 84.820312 48.523438 88.839844 48.550781 C 116.484375 48.523438 144.125 48.53125 171.769531 48.53125 C 173.894531 48.515625 176.042969 48.652344 178.140625 48.234375 C 178.730469 48.148438 179.160156 47.703125 179.632812 47.375 Z M 179.632812 47.375 "/>
    <path style=" stroke:none;fill-rule:nonzero;fill:rgb(31.372549%,13.333333%,13.333333%);fill-opacity:0.458824;" d="M 180.445312 48.960938 C 180.875 48.457031 181.28125 47.9375 181.675781 47.40625 C 181.449219 48.050781 181.007812 48.585938 180.445312 48.960938 Z M 180.445312 48.960938 "/>
    <path style=" stroke:none;fill-rule:nonzero;fill:rgb(20%,20%,20%);fill-opacity:1;" d="M 124.933594 58.339844 C 127.402344 57.707031 130.242188 57.929688 132.316406 59.519531 C 135.546875 61.972656 136.457031 66.773438 134.679688 70.359375 C 133.972656 71.765625 132.914062 73.039062 131.53125 73.8125 C 129.707031 74.835938 127.5 74.980469 125.476562 74.59375 C 122.683594 74.0625 120.519531 71.703125 119.710938 69.042969 C 118.777344 65.621094 119.785156 61.507812 122.777344 59.398438 C 123.417969 58.910156 124.15625 58.558594 124.933594 58.339844 M 123.789062 64.46875 C 123.023438 66.078125 123.304688 68.121094 124.519531 69.433594 C 125.867188 71.136719 128.707031 71.226562 130.195312 69.660156 C 131.128906 68.824219 131.519531 67.585938 131.613281 66.371094 C 131.542969 64.53125 130.367188 62.675781 128.535156 62.179688 C 126.664062 61.585938 124.546875 62.699219 123.789062 64.46875 Z M 123.789062 64.46875 "/>
    <path style=" stroke:none;fill-rule:nonzero;fill:rgb(20%,20%,20%);fill-opacity:1;" d="M 10.460938 58.515625 C 11.726562 58.519531 12.992188 58.523438 14.253906 58.511719 C 14.296875 63.761719 14.265625 69.015625 14.273438 74.265625 C 13 74.257812 11.730469 74.269531 10.457031 74.257812 C 10.472656 69.007812 10.464844 63.761719 10.460938 58.515625 Z M 10.460938 58.515625 "/>
    <path style=" stroke:none;fill-rule:nonzero;fill:rgb(20%,20%,20%);fill-opacity:1;" d="M 17.441406 74.261719 C 17.457031 69.011719 17.414062 63.757812 17.460938 58.507812 C 18.707031 58.527344 19.949219 58.519531 21.191406 58.511719 C 23.535156 61.664062 25.828125 64.855469 28.132812 68.03125 C 28.167969 64.859375 28.132812 61.6875 28.152344 58.511719 C 29.441406 58.523438 30.738281 58.511719 32.03125 58.523438 C 32.042969 63.765625 32.019531 69.003906 32.042969 74.246094 C 30.742188 74.277344 29.433594 74.257812 28.132812 74.257812 C 25.832031 71.070312 23.515625 67.894531 21.207031 64.714844 C 21.160156 67.902344 21.246094 71.097656 21.164062 74.28125 C 19.921875 74.238281 18.683594 74.269531 17.441406 74.261719 Z M 17.441406 74.261719 "/>
    <path style=" stroke:none;fill-rule:nonzero;fill:rgb(20%,20%,20%);fill-opacity:1;" d="M 33.660156 58.519531 C 36.992188 58.515625 40.320312 58.523438 43.648438 58.515625 C 43.664062 59.667969 43.660156 60.820312 43.652344 61.972656 C 42.621094 61.972656 41.589844 61.96875 40.5625 61.972656 C 40.574219 66.066406 40.550781 70.160156 40.574219 74.253906 C 39.277344 74.269531 37.984375 74.257812 36.6875 74.261719 C 36.679688 70.164062 36.691406 66.0625 36.679688 61.960938 C 35.679688 61.976562 34.675781 61.964844 33.671875 61.980469 C 33.644531 60.824219 33.660156 59.671875 33.660156 58.519531 Z M 33.660156 58.519531 "/>
    <path style=" stroke:none;fill-rule:nonzero;fill:rgb(20%,20%,20%);fill-opacity:1;" d="M 45.40625 74.261719 C 45.425781 69.007812 45.371094 63.753906 45.433594 58.5 C 48.183594 58.542969 50.933594 58.507812 53.679688 58.519531 C 53.675781 59.667969 53.675781 60.820312 53.679688 61.972656 C 52.175781 61.96875 50.675781 61.972656 49.171875 61.96875 C 49.167969 62.835938 49.164062 63.707031 49.171875 64.574219 C 50.597656 64.570312 52.023438 64.570312 53.449219 64.574219 C 53.4375 65.730469 53.445312 66.886719 53.445312 68.042969 C 52.023438 68.046875 50.59375 68.042969 49.171875 68.042969 C 49.167969 68.953125 49.167969 69.863281 49.171875 70.777344 C 50.671875 70.769531 52.171875 70.773438 53.675781 70.773438 C 53.683594 71.933594 53.671875 73.089844 53.6875 74.25 C 50.925781 74.273438 48.167969 74.25 45.40625 74.261719 Z M 45.40625 74.261719 "/>
    <path style=" stroke:none;fill-rule:nonzero;fill:rgb(20%,20%,20%);fill-opacity:1;" d="M 56.015625 74.265625 C 56.023438 69.015625 56.003906 63.761719 56.023438 58.511719 C 58.03125 58.527344 60.039062 58.519531 62.046875 58.511719 C 63.1875 58.507812 64.382812 58.800781 65.230469 59.601562 C 66.929688 61.1875 67.203125 63.972656 66.136719 65.980469 C 65.636719 66.972656 64.621094 67.492188 63.636719 67.882812 C 65.175781 69.992188 66.65625 72.144531 68.203125 74.25 C 66.589844 74.269531 64.976562 74.257812 63.367188 74.257812 C 62.175781 72.324219 61.074219 70.324219 59.828125 68.425781 C 59.78125 70.367188 59.816406 72.3125 59.8125 74.257812 C 58.546875 74.269531 57.28125 74.257812 56.015625 74.265625 M 59.816406 61.644531 C 59.800781 62.957031 59.804688 64.269531 59.816406 65.582031 C 60.546875 65.53125 61.34375 65.566406 61.992188 65.167969 C 62.550781 64.8125 62.644531 64.113281 62.816406 63.53125 C 62.660156 63.0625 62.570312 62.535156 62.171875 62.199219 C 61.554688 61.578125 60.613281 61.6875 59.816406 61.644531 Z M 59.816406 61.644531 "/>
    <path style=" stroke:none;fill-rule:nonzero;fill:rgb(20%,20%,20%);fill-opacity:1;" d="M 69.648438 74.261719 C 69.65625 69.015625 69.644531 63.761719 69.652344 58.511719 C 70.90625 58.519531 72.160156 58.53125 73.414062 58.5 C 75.78125 61.640625 78.042969 64.859375 80.371094 68.027344 C 80.386719 64.859375 80.363281 61.6875 80.382812 58.519531 C 81.671875 58.519531 82.960938 58.519531 84.25 58.519531 C 84.269531 63.765625 84.238281 69.007812 84.265625 74.253906 C 82.976562 74.273438 81.691406 74.25 80.402344 74.269531 C 78.054688 71.132812 75.816406 67.90625 73.460938 64.773438 C 73.421875 67.9375 73.457031 71.101562 73.445312 74.265625 C 72.179688 74.257812 70.914062 74.261719 69.648438 74.261719 Z M 69.648438 74.261719 "/>
    <path style=" stroke:none;fill-rule:nonzero;fill:rgb(20%,20%,20%);fill-opacity:1;" d="M 91.078125 59.503906 C 91.195312 59.15625 91.34375 58.820312 91.515625 58.492188 C 92.894531 58.546875 94.273438 58.503906 95.65625 58.519531 C 97.382812 63.464844 99.136719 68.398438 100.839844 73.351562 C 100.953125 73.648438 101.078125 73.9375 101.207031 74.226562 C 99.820312 74.300781 98.433594 74.238281 97.050781 74.269531 C 96.710938 73.394531 96.484375 72.476562 96.101562 71.617188 C 95.359375 71.347656 94.523438 71.523438 93.746094 71.535156 C 92.78125 71.65625 91.800781 71.347656 90.847656 71.605469 C 90.550781 72.5 90.226562 73.382812 89.894531 74.265625 C 88.546875 74.257812 87.195312 74.261719 85.847656 74.261719 C 87.554688 69.332031 89.351562 64.429688 91.078125 59.503906 M 93.5 63.5 C 93.011719 65.125 92.488281 66.738281 91.964844 68.351562 C 92.992188 68.359375 94.019531 68.359375 95.050781 68.351562 C 94.527344 66.738281 94.042969 65.109375 93.5 63.5 Z M 93.5 63.5 "/>
    <path style=" stroke:none;fill-rule:nonzero;fill:rgb(20%,20%,20%);fill-opacity:1;" d="M 101.613281 61.972656 C 101.605469 60.820312 101.59375 59.664062 101.617188 58.511719 C 104.945312 58.523438 108.273438 58.519531 111.601562 58.511719 C 111.683594 59.664062 111.730469 60.835938 111.574219 61.984375 C 110.554688 61.960938 109.535156 61.96875 108.511719 61.976562 C 108.519531 66.070312 108.5 70.164062 108.519531 74.257812 C 107.230469 74.265625 105.9375 74.257812 104.648438 74.265625 C 104.636719 70.164062 104.652344 66.0625 104.640625 61.960938 C 103.628906 61.976562 102.621094 61.96875 101.613281 61.972656 Z M 101.613281 61.972656 "/>
    <path style=" stroke:none;fill-rule:nonzero;fill:rgb(20%,20%,20%);fill-opacity:1;" d="M 113.113281 74.265625 C 113.121094 69.015625 113.109375 63.761719 113.121094 58.511719 C 114.375 58.523438 115.632812 58.519531 116.890625 58.511719 C 116.902344 63.765625 116.890625 69.015625 116.894531 74.265625 C 115.636719 74.261719 114.375 74.257812 113.113281 74.265625 Z M 113.113281 74.265625 "/>
    <path style=" stroke:none;fill-rule:nonzero;fill:rgb(20%,20%,20%);fill-opacity:1;" d="M 137.828125 58.515625 C 139.117188 58.53125 140.402344 58.492188 141.691406 58.542969 C 143.949219 61.710938 146.253906 64.84375 148.535156 68 C 148.59375 64.839844 148.539062 61.675781 148.5625 58.519531 C 149.851562 58.515625 151.140625 58.519531 152.429688 58.515625 C 152.464844 63.761719 152.421875 69.007812 152.453125 74.253906 C 151.15625 74.269531 149.863281 74.257812 148.574219 74.261719 C 146.257812 71.085938 143.933594 67.921875 141.667969 64.710938 C 141.589844 67.894531 141.664062 71.078125 141.632812 74.265625 C 140.359375 74.257812 139.09375 74.269531 137.824219 74.253906 C 137.839844 69.007812 137.828125 63.761719 137.828125 58.515625 Z M 137.828125 58.515625 "/>
    <path style=" stroke:none;fill-rule:nonzero;fill:rgb(20%,20%,20%);fill-opacity:1;" d="M 159.082031 60.714844 C 159.351562 59.96875 159.5625 59.199219 159.941406 58.496094 C 161.3125 58.542969 162.6875 58.511719 164.0625 58.519531 C 165.929688 63.75 167.714844 69.015625 169.609375 74.234375 C 168.226562 74.289062 166.84375 74.25 165.457031 74.261719 C 165.085938 73.335938 164.90625 72.324219 164.386719 71.460938 C 162.679688 71.601562 160.945312 71.316406 159.257812 71.621094 C 159.023438 72.496094 158.605469 73.308594 158.414062 74.199219 C 157.035156 74.339844 155.640625 74.230469 154.253906 74.257812 C 155.867188 69.742188 157.472656 65.226562 159.082031 60.714844 M 161.898438 63.507812 C 161.40625 65.121094 160.964844 66.765625 160.335938 68.335938 C 161.375 68.371094 162.421875 68.351562 163.464844 68.355469 C 162.941406 66.738281 162.472656 65.105469 161.898438 63.507812 Z M 161.898438 63.507812 "/>
    <path style=" stroke:none;fill-rule:nonzero;fill:rgb(20%,20%,20%);fill-opacity:1;" d="M 171.144531 74.265625 C 171.152344 69.011719 171.125 63.761719 171.15625 58.507812 C 172.40625 58.527344 173.65625 58.519531 174.902344 58.515625 C 174.917969 62.601562 174.902344 66.691406 174.914062 70.777344 C 176.429688 70.765625 177.953125 70.777344 179.46875 70.773438 C 179.484375 71.933594 179.46875 73.097656 179.484375 74.257812 C 176.703125 74.269531 173.921875 74.257812 171.144531 74.265625 Z M 171.144531 74.265625 "/>
  </g>
</svg>