<?xml version="1.0" encoding="UTF-8" ?>
<!DOCTYPE svg PUBLIC "-//W3C//DTD SVG 1.1//EN" "http://www.w3.org/Graphics/SVG/1.1/DTD/svg11.dtd">
<svg width="800pt" height="340pt" viewBox="0 0 800 340" version="1.1" xmlns="http://www.w3.org/2000/svg">
<g id="#5e2827ce">
<path fill="#5e2827" opacity="0.81" d=" M 326.68 24.46 C 327.76 24.15 328.86 23.99 329.99 23.98 C 470.99 24.02 611.99 24.00 753.00 23.99 C 756.71 23.94 760.39 25.17 763.49 27.20 C 759.98 26.33 756.51 25.17 752.88 25.01 C 615.93 24.96 478.98 25.00 342.04 24.98 C 336.91 24.94 331.76 25.30 326.68 24.46 Z" />
</g>
<g id="#a9abaeff">
<path fill="#a9abae" opacity="1.00" d=" M 30.45 31.44 C 33.52 28.03 37.91 26.45 42.01 24.69 C 136.89 24.30 231.79 24.76 326.68 24.46 C 326.71 25.81 326.74 27.17 326.76 28.53 L 326.60 28.53 C 301.41 28.04 276.20 28.44 251.01 28.33 C 237.69 27.49 224.33 29.03 211.01 27.90 C 201.03 28.47 191.01 28.39 181.01 28.22 C 167.68 28.21 154.34 28.68 141.02 27.93 C 138.00 27.95 135.00 28.31 131.98 28.34 C 102.99 28.31 74.00 28.30 45.02 28.32 C 35.65 27.89 26.67 36.53 27.32 46.01 C 27.36 91.68 27.34 137.34 27.34 183.01 C 27.39 186.72 27.10 190.47 27.69 194.15 C 29.60 202.95 37.76 210.45 46.99 210.34 C 138.33 210.33 229.67 210.36 321.01 210.33 C 322.46 210.35 323.91 210.42 325.36 210.52 C 325.53 211.25 325.87 212.71 326.04 213.44 C 233.35 213.37 140.67 213.41 47.99 213.42 C 39.78 213.97 31.59 209.51 27.23 202.60 C 25.65 200.24 24.90 197.47 23.67 194.94 C 23.41 144.59 23.48 94.23 23.63 43.88 C 25.09 39.36 26.88 34.74 30.45 31.44 Z" />
<path fill="#a9abae" opacity="1.00" d=" M 763.38 210.74 C 764.28 209.49 765.62 208.63 767.15 208.34 C 767.15 209.90 764.79 211.07 763.38 210.74 Z" />
</g>
<g id="#560404ff">
<path fill="#560404" opacity="1.00" d=" M 326.68 24.46 C 331.76 25.30 336.91 24.94 342.04 24.98 C 478.98 25.00 615.93 24.96 752.88 25.01 C 753.13 25.61 753.63 26.82 753.88 27.42 C 751.92 27.77 749.98 28.21 748.00 28.34 C 626.34 28.37 504.68 28.33 383.02 28.35 C 364.27 28.46 345.51 28.12 326.76 28.53 C 326.74 27.17 326.71 25.81 326.68 24.46 Z" />
</g>
<g id="#670000ff">
<path fill="#670000" opacity="1.00" d=" M 752.88 25.01 C 756.51 25.17 759.98 26.33 763.49 27.20 L 763.57 27.26 C 764.25 28.13 765.13 28.67 766.23 28.86 L 766.37 28.91 C 768.94 31.14 771.15 33.75 773.07 36.56 L 773.11 36.68 C 773.63 39.01 774.23 41.33 775.14 43.54 C 775.27 69.76 775.30 95.99 775.00 122.21 C 774.61 120.11 774.09 118.04 773.62 115.96 C 766.76 115.39 759.88 115.85 753.01 115.68 C 749.05 115.56 745.08 115.62 741.15 116.13 C 743.28 118.28 746.81 120.04 746.44 123.59 C 738.19 113.55 724.94 110.67 713.21 106.72 C 708.54 105.07 703.56 103.41 700.07 99.73 C 696.66 96.10 696.55 89.79 700.15 86.24 C 703.27 83.16 707.83 82.34 712.02 81.80 C 722.41 80.60 732.77 83.55 742.25 87.59 C 743.43 83.88 744.61 80.16 745.80 76.45 C 753.20 76.83 760.56 75.71 767.89 74.86 C 767.99 73.44 768.09 72.01 768.19 70.59 C 768.37 64.47 768.13 58.35 768.26 52.23 C 768.58 47.24 767.65 42.11 764.35 38.21 C 765.33 36.57 767.35 34.84 766.12 32.77 C 764.01 28.23 758.32 27.52 753.88 27.42 C 753.63 26.82 753.13 25.61 752.88 25.01 Z" />
</g>
<g id="#79180fff">
<path fill="#79180f" opacity="1.00" d=" M 753.88 27.42 C 758.32 27.52 764.01 28.23 766.12 32.77 C 767.35 34.84 765.33 36.57 764.35 38.21 C 760.70 34.16 755.31 32.43 749.96 32.65 C 608.88 32.70 467.80 32.60 326.72 32.71 C 326.72 31.31 326.74 29.92 326.76 28.53 C 345.51 28.12 364.27 28.46 383.02 28.35 C 504.68 28.33 626.34 28.37 748.00 28.34 C 749.98 28.21 751.92 27.77 753.88 27.42 Z" />
</g>
<g id="#3422225b">
<path fill="#342222" opacity="0.36" d=" M 763.57 27.26 C 765.24 26.62 766.13 27.15 766.23 28.86 C 765.13 28.67 764.25 28.13 763.57 27.26 Z" />
</g>
<g id="#cecfd1ff">
<path fill="#cecfd1" opacity="1.00" d=" M 27.32 46.01 C 26.67 36.53 35.65 27.89 45.02 28.32 C 74.00 28.30 102.99 28.31 131.98 28.34 C 135.00 28.31 138.00 27.95 141.02 27.93 C 154.34 28.68 167.68 28.21 181.01 28.22 C 191.01 28.39 201.03 28.47 211.01 27.90 C 224.33 29.03 237.69 27.49 251.01 28.33 C 276.20 28.44 301.41 28.04 326.60 28.53 L 326.00 30.24 C 324.34 30.51 322.66 30.65 320.99 30.70 C 229.31 30.66 137.64 30.73 45.97 30.66 C 40.14 30.53 35.13 34.52 32.09 39.18 C 28.93 44.56 29.52 51.01 29.50 56.99 C 29.52 99.97 29.55 142.96 29.49 185.94 C 29.54 187.77 29.70 189.60 29.91 191.42 C 30.16 197.00 33.23 202.05 37.93 205.00 C 41.79 208.49 47.24 207.48 51.98 207.60 C 143.51 207.62 235.04 207.54 326.57 207.64 C 326.61 207.92 326.67 208.48 326.71 208.75 C 326.71 210.30 326.59 211.84 326.36 213.37 L 326.18 214.02 L 326.04 213.44 C 325.87 212.71 325.53 211.25 325.36 210.52 C 323.91 210.42 322.46 210.35 321.01 210.33 C 229.67 210.36 138.33 210.33 46.99 210.34 C 37.76 210.45 29.60 202.95 27.69 194.15 C 27.10 190.47 27.39 186.72 27.34 183.01 C 27.34 137.34 27.36 91.68 27.32 46.01 Z" />
</g>
<g id="#ffffffff">
<path fill="#ffffff" opacity="1.00" d=" M 326.60 28.53 L 326.76 28.53 C 326.74 29.92 326.72 31.31 326.72 32.71 C 326.70 40.25 326.71 47.80 326.73 55.35 C 326.74 59.10 326.70 62.85 326.78 66.60 C 326.69 74.64 326.77 82.68 326.74 90.71 C 326.78 104.27 326.66 117.83 326.83 131.38 C 326.67 135.15 326.71 138.92 326.79 142.69 C 326.71 151.61 326.69 160.53 326.80 169.45 C 326.73 175.80 326.59 182.15 326.77 188.50 C 326.71 192.53 326.67 196.55 326.66 200.58 C 326.66 202.46 326.68 204.34 326.70 206.22 C 326.70 206.85 326.70 208.12 326.71 208.75 C 326.67 208.48 326.61 207.92 326.57 207.64 C 326.41 206.53 326.25 205.43 326.09 204.33 C 327.10 193.72 325.84 183.13 324.70 172.59 C 307.13 173.05 289.56 172.70 272.00 172.80 C 270.13 172.86 268.27 173.07 266.43 173.29 C 265.24 174.96 264.11 176.86 262.03 177.50 C 274.80 148.56 287.88 119.75 300.78 90.85 C 303.12 85.75 305.34 80.59 307.72 75.50 C 300.20 72.54 290.85 72.16 284.08 77.13 C 279.66 80.31 278.09 85.75 275.97 90.49 C 270.94 102.38 265.61 114.14 260.73 126.10 C 252.81 113.93 245.67 101.27 238.06 88.91 C 235.17 84.07 232.19 79.28 229.40 74.39 C 221.07 71.88 211.74 72.05 203.81 75.80 C 198.82 78.15 195.39 82.59 191.91 86.70 C 182.84 96.75 173.75 106.80 164.71 116.87 C 163.64 117.73 164.78 118.86 165.19 119.71 C 173.02 131.95 180.72 144.27 188.50 156.55 C 190.38 159.61 192.97 162.15 195.73 164.42 C 191.65 165.18 190.09 159.67 186.05 160.10 C 179.02 159.98 171.98 159.91 164.95 160.06 C 162.15 159.90 160.73 162.88 158.16 163.48 C 159.56 161.34 160.55 158.95 160.90 156.40 C 161.34 154.27 161.78 152.12 161.81 149.94 C 161.72 126.62 161.87 103.29 161.73 79.96 C 161.82 71.30 161.42 62.62 162.06 53.96 C 162.35 54.47 162.95 55.48 163.24 55.98 C 163.11 59.24 163.15 62.49 163.32 65.74 C 169.54 66.17 175.78 66.00 182.01 65.95 C 229.63 65.88 277.26 66.13 324.87 65.84 C 325.03 62.55 325.04 59.25 324.97 55.95 C 325.45 47.39 324.45 38.71 326.00 30.24 L 326.60 28.53 Z" />
<path fill="#ffffff" opacity="1.00" d=" M 135.34 51.68 C 135.73 51.69 136.51 51.72 136.90 51.73 C 135.62 62.14 136.59 72.69 136.30 83.15 C 136.28 110.91 136.35 138.68 136.27 166.44 C 135.81 166.24 134.89 165.85 134.43 165.65 C 134.08 163.86 133.82 162.06 133.55 160.26 C 127.75 160.07 121.38 158.89 116.13 162.06 C 111.31 164.74 106.06 166.61 100.62 167.53 C 84.38 170.41 67.78 168.78 51.54 166.78 C 51.62 166.34 51.78 165.45 51.86 165.01 C 61.52 166.35 71.27 166.85 81.01 166.86 C 93.10 166.95 106.10 166.49 116.58 159.74 C 124.09 154.93 127.41 145.62 126.87 136.99 C 127.12 128.95 122.96 121.04 116.17 116.75 C 106.16 110.29 93.97 109.30 82.57 107.05 C 79.43 106.32 76.01 105.78 73.49 103.63 C 71.84 102.39 71.77 99.61 73.36 98.31 C 75.97 95.98 79.70 95.73 83.03 95.47 C 92.25 95.16 101.47 96.12 110.69 95.72 C 113.77 95.56 116.92 94.23 118.72 91.65 C 120.72 88.82 121.21 85.27 121.48 81.90 C 121.21 79.64 122.16 76.69 120.40 74.94 C 102.37 73.31 83.48 70.22 65.97 76.47 C 58.23 78.94 51.50 85.01 49.31 92.98 C 46.95 101.88 47.74 112.61 54.64 119.38 C 61.68 126.10 71.66 128.07 80.93 129.68 C 87.24 130.94 94.01 131.06 99.78 134.19 C 102.62 135.58 103.25 139.68 100.94 141.85 C 98.77 143.65 95.85 144.18 93.11 144.34 C 82.70 144.89 72.34 142.79 61.93 143.48 C 58.14 143.81 54.22 145.64 52.36 149.12 C 49.73 153.79 50.34 159.34 50.57 164.48 C 49.10 163.25 47.93 161.72 46.78 160.21 C 42.25 159.79 37.70 159.84 33.16 160.12 C 32.41 161.11 31.67 162.11 30.93 163.11 C 30.80 132.09 30.95 101.07 30.87 70.05 C 30.85 66.43 31.04 62.80 31.31 59.19 C 42.53 58.31 53.79 59.19 65.02 58.99 C 73.67 58.43 82.33 59.31 90.98 58.90 C 99.00 58.56 107.01 59.29 115.02 58.94 C 121.24 58.69 127.48 59.49 133.68 58.68 C 134.24 56.35 134.80 54.01 135.34 51.68 Z" />
<path fill="#ffffff" opacity="1.00" d=" M 691.50 66.90 C 709.30 58.17 730.57 61.67 747.95 69.74 C 747.74 70.39 747.34 71.67 747.14 72.31 C 746.69 73.69 746.22 75.07 745.80 76.45 C 744.61 80.16 743.43 83.88 742.25 87.59 C 732.77 83.55 722.41 80.60 712.02 81.80 C 707.83 82.34 703.27 83.16 700.15 86.24 C 696.55 89.79 696.66 96.10 700.07 99.73 C 703.56 103.41 708.54 105.07 713.21 106.72 C 724.94 110.67 738.19 113.55 746.44 123.59 C 748.52 126.61 750.16 129.95 751.03 133.53 C 752.03 138.64 751.98 143.94 751.09 149.07 C 749.74 154.76 747.05 160.14 742.98 164.37 C 735.08 172.06 723.87 175.35 713.05 175.49 C 700.70 175.66 687.90 173.98 676.99 167.83 C 677.09 167.09 677.27 165.61 677.36 164.87 C 677.61 163.45 677.88 162.04 678.13 160.63 C 679.17 156.29 680.14 151.94 681.00 147.56 C 692.11 153.79 705.13 156.93 717.85 155.42 C 722.62 154.73 727.57 152.67 730.11 148.34 C 731.08 144.96 731.55 140.79 729.00 137.97 C 725.72 134.13 720.78 132.39 716.21 130.61 C 706.66 127.02 696.46 124.20 688.48 117.54 C 684.80 114.53 681.87 110.64 679.99 106.27 C 677.11 98.55 677.16 90.00 679.36 82.11 C 680.01 80.17 680.87 78.31 681.74 76.45 C 684.10 72.48 687.57 69.30 691.50 66.90 Z" />
<path fill="#ffffff" opacity="1.00" d=" M 351.80 64.63 C 357.55 64.89 363.32 64.87 369.07 64.65 C 371.55 67.49 373.80 70.53 376.11 73.52 C 380.79 79.54 385.43 85.58 390.08 91.61 C 395.57 98.59 400.91 105.69 406.43 112.64 C 411.01 118.74 415.74 124.73 420.40 130.77 C 420.99 131.53 421.58 132.29 422.18 133.06 C 422.17 110.26 422.15 87.46 422.17 64.66 C 428.79 64.88 435.44 64.85 442.07 64.67 C 442.33 73.20 442.18 81.74 442.26 90.27 C 442.06 102.62 442.28 114.98 442.20 127.34 C 442.14 135.47 442.20 143.60 442.24 151.74 C 442.17 158.93 442.19 166.12 442.27 173.31 C 436.43 173.31 430.58 173.29 424.74 173.33 C 423.66 172.00 422.58 170.67 421.52 169.33 C 417.60 164.29 413.72 159.21 409.81 154.16 C 405.13 148.16 400.50 142.12 395.84 136.10 C 387.79 125.83 379.98 115.37 371.83 105.17 C 371.81 118.54 371.81 131.91 371.85 145.28 C 371.78 154.62 371.84 163.96 371.85 173.30 C 365.16 173.23 358.46 173.47 351.78 173.19 C 351.70 162.57 351.99 151.94 351.67 141.32 C 351.92 115.76 351.60 90.20 351.80 64.63 Z" />
<path fill="#ffffff" opacity="1.00" d=" M 457.34 64.68 C 481.09 64.92 504.84 64.73 528.59 64.77 C 528.61 68.95 528.64 73.12 528.61 77.30 C 528.57 79.03 528.58 80.76 528.59 82.50 C 512.28 82.48 495.98 82.49 479.68 82.49 C 479.68 84.76 479.68 87.02 479.69 89.29 C 479.68 95.41 479.71 101.52 479.67 107.64 C 493.10 107.66 506.53 107.72 519.96 107.61 C 519.56 114.33 519.84 121.06 519.80 127.78 C 506.43 127.78 493.06 127.78 479.69 127.78 C 479.67 133.88 479.70 139.98 479.69 146.08 C 479.68 149.26 479.68 152.44 479.68 155.62 C 495.98 155.63 512.29 155.63 528.60 155.62 C 528.59 160.20 528.61 164.78 528.63 169.36 C 528.59 170.61 528.57 171.87 528.57 173.13 C 504.80 173.54 481.01 173.19 457.23 173.30 C 457.26 168.74 457.24 164.18 457.21 159.62 C 457.25 151.93 457.27 144.24 457.19 136.56 C 457.30 130.89 457.26 125.22 457.18 119.56 C 457.31 113.53 457.26 107.51 457.18 101.48 C 457.29 97.57 457.22 93.66 457.24 89.76 C 457.22 83.03 457.28 76.31 457.19 69.58 C 457.23 67.95 457.27 66.31 457.34 64.68 Z" />
<path fill="#ffffff" opacity="1.00" d=" M 540.02 64.78 C 546.65 64.74 553.28 64.88 559.91 64.70 C 560.54 69.00 561.20 73.30 561.81 77.60 C 562.23 80.91 562.76 84.20 563.29 87.49 C 564.95 98.19 566.78 108.86 568.81 119.49 C 570.69 129.82 572.89 140.10 575.00 150.39 C 577.06 141.12 579.12 131.86 581.11 122.59 C 583.73 110.75 586.31 98.91 588.82 87.04 C 589.64 83.16 590.43 79.27 591.19 75.37 C 591.62 73.11 592.10 70.85 592.58 68.61 C 600.91 68.62 609.24 68.64 617.57 68.59 C 618.39 72.20 619.13 75.83 619.80 79.48 C 620.16 81.63 620.65 83.76 621.11 85.90 C 622.59 93.07 624.22 100.21 625.70 107.39 C 628.76 121.75 632.14 136.04 635.06 150.42 C 638.02 136.86 640.81 123.24 643.16 109.56 C 644.77 101.08 646.08 92.54 647.44 84.02 C 647.72 82.07 648.03 80.13 648.31 78.18 C 648.91 73.62 649.50 69.06 650.42 64.55 C 657.03 65.10 663.68 64.64 670.31 64.78 C 670.25 65.31 670.12 66.36 670.05 66.88 C 669.72 69.13 669.41 71.38 669.18 73.64 C 668.69 76.75 668.25 79.86 667.78 82.96 C 666.47 91.60 664.87 100.20 663.25 108.79 C 661.03 119.55 658.63 130.26 656.08 140.94 C 654.59 146.35 653.36 151.82 651.87 157.22 C 650.61 161.97 649.46 166.75 648.14 171.49 C 647.93 172.11 647.73 172.74 647.53 173.36 C 639.24 173.24 630.96 173.32 622.68 173.32 C 622.37 172.27 622.07 171.23 621.79 170.19 C 620.42 165.25 619.29 160.23 618.16 155.23 C 616.69 148.96 615.41 142.65 613.98 136.37 C 610.90 121.80 608.11 107.17 605.03 92.59 C 602.20 107.82 599.21 123.02 596.03 138.18 C 594.70 144.02 593.48 149.89 592.02 155.71 C 590.74 160.96 589.40 166.19 588.08 171.43 C 587.86 172.07 587.64 172.70 587.42 173.34 C 579.11 173.19 570.79 173.49 562.49 173.19 C 561.66 170.24 560.88 167.28 560.12 164.32 C 558.73 159.02 557.41 153.70 555.99 148.40 C 554.24 141.57 552.63 134.71 551.04 127.84 C 550.62 126.11 550.22 124.38 549.83 122.64 C 547.33 111.25 545.10 99.78 543.23 88.26 C 542.37 83.12 541.70 77.94 540.89 72.79 C 540.50 70.13 540.26 67.46 540.02 64.78 Z" />
<path fill="#ffffff" opacity="1.00" d=" M 193.20 119.75 C 200.02 111.95 207.35 104.62 214.21 96.85 C 225.46 114.28 236.45 131.89 247.68 149.34 C 248.34 150.38 249.25 151.54 248.44 152.79 C 246.06 158.17 243.45 163.46 240.96 168.79 C 240.14 165.76 241.68 162.92 242.68 160.16 C 235.94 159.94 229.19 160.02 222.44 160.10 C 222.98 161.85 223.52 163.60 224.06 165.35 C 223.76 165.26 223.17 165.10 222.88 165.01 C 213.03 149.90 203.21 134.76 193.20 119.75 Z" />
</g>
<g id="#301e1d53">
<path fill="#301e1d" opacity="0.33" d=" M 766.37 28.91 C 769.59 30.15 772.16 33.27 773.07 36.56 C 771.15 33.75 768.94 31.14 766.37 28.91 Z" />
</g>
<g id="#eff0f0ff">
<path fill="#eff0f0" opacity="1.00" d=" M 320.99 30.70 C 322.66 30.65 324.34 30.51 326.00 30.24 C 324.45 38.71 325.45 47.39 324.97 55.95 C 271.06 55.85 217.15 55.94 163.24 55.98 C 162.95 55.48 162.35 54.47 162.06 53.96 C 161.42 62.62 161.82 71.30 161.73 79.96 C 161.87 103.29 161.72 126.62 161.81 149.94 C 161.78 152.12 161.34 154.27 160.90 156.40 C 160.68 132.54 160.86 108.67 160.80 84.81 C 160.83 70.30 160.78 55.80 160.86 41.29 C 155.38 40.43 149.59 40.57 144.35 42.52 C 140.40 44.01 138.01 47.82 136.90 51.73 C 136.51 51.72 135.73 51.69 135.34 51.68 C 134.80 54.01 134.24 56.35 133.68 58.68 C 127.48 59.49 121.24 58.69 115.02 58.94 C 107.01 59.29 99.00 58.56 90.98 58.90 C 82.33 59.31 73.67 58.43 65.02 58.99 C 53.79 59.19 42.53 58.31 31.31 59.19 C 31.04 62.80 30.85 66.43 30.87 70.05 C 30.95 101.07 30.80 132.09 30.93 163.11 C 30.87 167.98 30.87 172.85 31.31 177.70 C 97.89 177.91 164.48 177.68 231.06 177.81 C 233.32 177.41 234.19 179.67 235.22 181.19 C 233.38 185.08 231.55 188.97 229.64 192.82 C 229.28 190.21 229.91 187.65 230.74 185.20 C 168.83 185.05 106.92 185.21 45.01 185.15 C 40.82 185.08 36.63 185.06 32.44 185.33 C 31.57 187.35 30.68 189.36 29.91 191.42 C 29.70 189.60 29.54 187.77 29.49 185.94 C 29.55 142.96 29.52 99.97 29.50 56.99 C 29.52 51.01 28.93 44.56 32.09 39.18 C 35.13 34.52 40.14 30.53 45.97 30.66 C 137.64 30.73 229.31 30.66 320.99 30.70 Z" />
</g>
<g id="#420100ff">
<path fill="#420100" opacity="1.00" d=" M 326.72 32.71 C 467.80 32.60 608.88 32.70 749.96 32.65 C 755.31 32.43 760.70 34.16 764.35 38.21 C 767.65 42.11 768.58 47.24 768.26 52.23 C 622.08 52.38 475.89 52.12 329.71 52.36 C 329.29 53.34 328.87 54.33 328.46 55.31 C 328.03 55.32 327.16 55.34 326.73 55.35 C 326.71 47.80 326.70 40.25 326.72 32.71 Z" />
</g>
<g id="#5c2e2db0">
<path fill="#5c2e2d" opacity="0.69" d=" M 773.11 36.68 C 774.71 39.02 775.75 41.78 775.77 44.64 L 775.14 43.54 C 774.23 41.33 773.63 39.01 773.11 36.68 Z" />
</g>
<g id="#37373fff">
<path fill="#37373f" opacity="1.00" d=" M 144.35 42.52 C 149.59 40.57 155.38 40.43 160.86 41.29 C 160.78 55.80 160.83 70.30 160.80 84.81 C 152.61 84.56 144.46 83.79 136.30 83.15 C 136.59 72.69 135.62 62.14 136.90 51.73 C 138.01 47.82 140.40 44.01 144.35 42.52 Z" />
<path fill="#37373f" opacity="1.00" d=" M 65.97 76.47 C 83.48 70.22 102.37 73.31 120.40 74.94 C 122.16 76.69 121.21 79.64 121.48 81.90 C 106.25 81.05 91.09 79.21 75.88 78.11 C 72.53 77.95 69.21 77.39 65.97 76.47 Z" />
<path fill="#37373f" opacity="1.00" d=" M 203.81 75.80 C 211.74 72.05 221.07 71.88 229.40 74.39 C 232.19 79.28 235.17 84.07 238.06 88.91 C 222.66 88.61 207.27 87.84 191.91 86.70 C 195.39 82.59 198.82 78.15 203.81 75.80 Z" />
<path fill="#37373f" opacity="1.00" d=" M 284.08 77.13 C 290.85 72.16 300.20 72.54 307.72 75.50 C 305.34 80.59 303.12 85.75 300.78 90.85 C 292.51 90.83 284.24 90.49 275.97 90.49 C 278.09 85.75 279.66 80.31 284.08 77.13 Z" />
</g>
<g id="#792b2ccd">
<path fill="#792b2c" opacity="0.80" d=" M 775.14 43.54 L 775.77 44.64 C 776.24 57.04 775.82 69.55 775.97 81.99 C 776.03 117.64 775.97 153.28 776.01 188.93 C 776.22 192.69 775.65 196.51 773.77 199.82 C 774.28 197.06 774.71 194.29 775.00 191.50 C 775.66 181.89 775.11 172.23 775.13 162.61 C 775.02 157.95 775.05 153.29 775.02 148.63 C 774.96 143.09 775.02 137.56 775.05 132.02 C 775.04 128.75 775.06 125.48 775.00 122.21 C 775.30 95.99 775.27 69.76 775.14 43.54 Z" />
</g>
<g id="#5a0f01ff">
<path fill="#5a0f01" opacity="1.00" d=" M 329.71 52.36 C 475.89 52.12 622.08 52.38 768.26 52.23 C 768.13 58.35 768.37 64.47 768.19 70.59 C 761.27 69.38 753.28 68.03 747.14 72.31 C 747.34 71.67 747.74 70.39 747.95 69.74 C 730.57 61.67 709.30 58.17 691.50 66.90 C 692.01 65.52 692.71 64.21 693.48 62.95 C 686.20 62.91 678.91 62.63 671.64 63.02 C 671.71 64.57 671.78 66.12 671.86 67.67 C 671.41 67.47 670.51 67.08 670.05 66.88 C 670.12 66.36 670.25 65.31 670.31 64.78 C 663.68 64.64 657.03 65.10 650.42 64.55 C 646.08 61.87 640.85 63.01 636.04 62.87 C 612.35 62.83 588.66 62.90 564.98 62.83 C 563.04 62.64 561.33 63.48 559.91 64.70 C 553.28 64.88 546.65 64.74 540.02 64.78 C 540.26 67.46 540.50 70.13 540.89 72.79 C 540.42 73.40 539.96 74.01 539.50 74.62 C 539.11 73.53 538.72 72.44 538.34 71.35 C 535.92 70.95 532.99 69.82 530.93 71.76 C 529.87 73.47 529.24 75.40 528.61 77.30 C 528.64 73.12 528.61 68.95 528.59 64.77 C 504.84 64.73 481.09 64.92 457.34 64.68 C 455.71 63.73 453.99 62.79 452.06 62.80 C 448.69 62.75 444.69 62.05 442.07 64.67 C 435.44 64.85 428.79 64.88 422.17 64.66 C 419.36 62.18 415.45 62.90 412.03 62.84 C 399.35 62.94 386.66 62.87 373.99 62.83 C 372.11 62.64 370.48 63.54 369.07 64.65 C 363.32 64.87 357.55 64.89 351.80 64.63 C 350.69 63.83 349.54 62.91 348.09 62.97 C 341.90 62.71 335.68 62.70 329.50 63.19 C 329.04 65.60 328.53 67.99 328.09 70.41 C 327.64 69.14 327.21 67.87 326.78 66.60 C 326.70 62.85 326.74 59.10 326.73 55.35 C 327.16 55.34 328.03 55.32 328.46 55.31 C 328.87 54.33 329.29 53.34 329.71 52.36 Z" />
</g>
<g id="#f9fafaff">
<path fill="#f9fafa" opacity="1.00" d=" M 163.24 55.98 C 217.15 55.94 271.06 55.85 324.97 55.95 C 325.04 59.25 325.03 62.55 324.87 65.84 C 277.26 66.13 229.63 65.88 182.01 65.95 C 175.78 66.00 169.54 66.17 163.32 65.74 C 163.15 62.49 163.11 59.24 163.24 55.98 Z" />
</g>
<g id="#661808ff">
<path fill="#661808" opacity="1.00" d=" M 329.50 63.19 C 335.68 62.70 341.90 62.71 348.09 62.97 C 349.54 62.91 350.69 63.83 351.80 64.63 C 349.23 72.61 352.66 81.12 350.24 89.15 C 350.44 83.19 349.85 77.25 349.49 71.31 C 342.94 71.30 336.39 71.17 329.84 71.41 C 329.30 72.64 328.77 73.87 328.23 75.11 C 328.18 73.54 328.13 71.97 328.09 70.41 C 328.53 67.99 329.04 65.60 329.50 63.19 Z" />
<path fill="#661808" opacity="1.00" d=" M 442.07 64.67 C 444.69 62.05 448.69 62.75 452.06 62.80 C 453.99 62.79 455.71 63.73 457.34 64.68 C 457.27 66.31 457.23 67.95 457.19 69.58 C 456.72 71.57 456.18 73.55 455.71 75.53 C 453.57 71.26 448.15 73.08 444.40 73.27 C 443.75 78.20 443.71 83.21 442.67 88.09 C 442.56 88.63 442.36 89.72 442.26 90.27 C 442.18 81.74 442.33 73.20 442.07 64.67 Z" />
<path fill="#661808" opacity="1.00" d=" M 671.64 63.02 C 678.91 62.63 686.20 62.91 693.48 62.95 C 692.71 64.21 692.01 65.52 691.50 66.90 C 687.57 69.30 684.10 72.48 681.74 76.45 C 681.71 75.05 681.65 73.64 681.57 72.24 C 678.27 71.81 674.94 71.76 671.65 72.23 C 671.15 73.47 670.68 74.71 670.19 75.95 C 669.94 75.37 669.43 74.22 669.18 73.64 C 669.41 71.38 669.72 69.13 670.05 66.88 C 670.51 67.08 671.41 67.47 671.86 67.67 C 671.78 66.12 671.71 64.57 671.64 63.02 Z" />
</g>
<g id="#651708ff">
<path fill="#651708" opacity="1.00" d=" M 369.07 64.65 C 370.48 63.54 372.11 62.64 373.99 62.83 C 386.66 62.87 399.35 62.94 412.03 62.84 C 415.45 62.90 419.36 62.18 422.17 64.66 C 421.44 67.32 421.06 70.05 420.98 72.81 C 419.15 69.48 415.15 70.39 412.01 70.29 C 400.30 70.37 388.60 70.35 376.89 70.30 C 376.63 71.38 376.37 72.45 376.11 73.52 C 373.80 70.53 371.55 67.49 369.07 64.65 Z" />
<path fill="#651708" opacity="1.00" d=" M 559.91 64.70 C 561.33 63.48 563.04 62.64 564.98 62.83 C 588.66 62.90 612.35 62.83 636.04 62.87 C 640.85 63.01 646.08 61.87 650.42 64.55 C 649.50 69.06 648.91 73.62 648.31 78.18 C 647.49 76.74 646.68 75.30 645.88 73.86 C 637.80 73.77 629.69 73.42 621.63 74.14 C 620.99 75.91 620.35 77.68 619.80 79.48 C 619.13 75.83 618.39 72.20 617.57 68.59 C 609.24 68.64 600.91 68.62 592.58 68.61 C 592.10 70.85 591.62 73.11 591.19 75.37 C 590.50 74.03 589.81 72.69 589.14 71.36 C 580.67 71.17 572.20 71.18 563.74 71.38 C 563.08 73.45 562.40 75.51 561.81 77.60 C 561.20 73.30 560.54 69.00 559.91 64.70 Z" />
</g>
<g id="#690000ff">
<path fill="#690000" opacity="1.00" d=" M 350.24 89.15 C 352.66 81.12 349.23 72.61 351.80 64.63 C 351.60 90.20 351.92 115.76 351.67 141.32 L 351.55 140.49 C 350.65 135.69 350.22 130.83 350.11 125.95 C 350.11 120.35 350.25 114.74 349.70 109.15 C 342.90 108.80 336.07 108.74 329.27 109.18 C 329.03 116.21 327.73 123.15 327.51 130.18 L 326.83 131.38 C 326.66 117.83 326.78 104.27 326.74 90.71 C 334.46 90.44 342.18 90.74 349.90 90.64 C 349.98 90.27 350.15 89.52 350.24 89.15 Z" />
<path fill="#690000" opacity="1.00" d=" M 563.29 87.49 C 571.79 88.18 580.31 87.20 588.82 87.04 C 586.31 98.91 583.73 110.75 581.11 122.59 C 579.87 119.55 580.53 116.28 580.83 113.15 C 577.45 112.65 574.02 112.63 570.65 113.14 C 570.03 115.26 569.38 117.36 568.81 119.49 C 566.78 108.86 564.95 98.19 563.29 87.49 Z" />
<path fill="#690000" opacity="1.00" d=" M 442.67 88.09 C 446.62 91.88 452.40 89.41 457.24 89.76 C 457.22 93.66 457.29 97.57 457.18 101.48 C 455.33 106.81 456.37 112.48 455.60 117.96 C 455.23 115.38 454.92 112.79 454.64 110.20 C 451.20 109.71 447.71 109.71 444.27 110.16 C 443.87 115.73 444.12 121.35 443.23 126.88 L 442.20 127.34 C 442.28 114.98 442.06 102.62 442.26 90.27 C 442.36 89.72 442.56 88.63 442.67 88.09 Z" />
<path fill="#690000" opacity="1.00" d=" M 479.69 89.29 C 500.87 89.76 522.07 88.93 543.23 88.26 C 545.10 99.78 547.33 111.25 549.83 122.64 C 549.45 122.89 548.69 123.39 548.31 123.64 C 547.60 119.80 546.79 115.98 545.71 112.23 C 537.96 111.60 530.14 111.70 522.38 112.17 C 522.34 115.66 521.94 119.14 521.02 122.52 C 520.53 117.56 521.26 112.47 519.96 107.61 C 506.53 107.72 493.10 107.66 479.67 107.64 C 479.71 101.52 479.68 95.41 479.69 89.29 Z" />
<path fill="#690000" opacity="1.00" d=" M 397.95 90.52 C 405.67 90.66 413.39 90.56 421.12 90.44 C 421.55 99.10 421.32 107.80 420.98 116.47 C 420.23 113.41 419.74 110.30 419.57 107.17 C 414.86 106.78 410.14 106.86 405.44 107.22 C 405.76 109.03 406.07 110.84 406.43 112.64 C 400.91 105.69 395.57 98.59 390.08 91.61 C 392.63 90.83 395.27 90.40 397.95 90.52 Z" />
</g>
<g id="#772013ff">
<path fill="#772013" opacity="1.00" d=" M 420.98 72.81 C 421.06 70.05 421.44 67.32 422.17 64.66 C 422.15 87.46 422.17 110.26 422.18 133.06 C 421.58 132.29 420.99 131.53 420.40 130.77 C 421.70 126.10 421.42 121.23 420.98 116.47 C 421.32 107.80 421.55 99.10 421.12 90.44 C 413.39 90.56 405.67 90.66 397.95 90.52 C 395.27 90.40 392.63 90.83 390.08 91.61 C 385.43 85.58 380.79 79.54 376.11 73.52 C 376.37 72.45 376.63 71.38 376.89 70.30 C 388.60 70.35 400.30 70.37 412.01 70.29 C 415.15 70.39 419.15 69.48 420.98 72.81 Z" />
</g>
<g id="#792014ff">
<path fill="#792014" opacity="1.00" d=" M 326.78 66.60 C 327.21 67.87 327.64 69.14 328.09 70.41 C 328.13 71.97 328.18 73.54 328.23 75.11 C 328.77 73.87 329.30 72.64 329.84 71.41 C 336.39 71.17 342.94 71.30 349.49 71.31 C 349.85 77.25 350.44 83.19 350.24 89.15 C 350.15 89.52 349.98 90.27 349.90 90.64 C 342.18 90.74 334.46 90.44 326.74 90.71 C 326.77 82.68 326.69 74.64 326.78 66.60 Z" />
</g>
<g id="#792114ff">
<path fill="#792114" opacity="1.00" d=" M 455.71 75.53 C 456.18 73.55 456.72 71.57 457.19 69.58 C 457.28 76.31 457.22 83.03 457.24 89.76 C 452.40 89.41 446.62 91.88 442.67 88.09 C 443.71 83.21 443.75 78.20 444.40 73.27 C 448.15 73.08 453.57 71.26 455.71 75.53 Z" />
</g>
<g id="#6f1e0fff">
<path fill="#6f1e0f" opacity="1.00" d=" M 747.14 72.31 C 753.28 68.03 761.27 69.38 768.19 70.59 C 768.09 72.01 767.99 73.44 767.89 74.86 C 760.56 75.71 753.20 76.83 745.80 76.45 C 746.22 75.07 746.69 73.69 747.14 72.31 Z" />
</g>
<g id="#7d2216ff">
<path fill="#7d2216" opacity="1.00" d=" M 530.93 71.76 C 532.99 69.82 535.92 70.95 538.34 71.35 C 538.72 72.44 539.11 73.53 539.50 74.62 C 539.96 74.01 540.42 73.40 540.89 72.79 C 541.70 77.94 542.37 83.12 543.23 88.26 C 522.07 88.93 500.87 89.76 479.69 89.29 C 479.68 87.02 479.68 84.76 479.68 82.49 C 495.98 82.49 512.28 82.48 528.59 82.50 C 528.58 80.76 528.57 79.03 528.61 77.30 C 529.24 75.40 529.87 73.47 530.93 71.76 Z" />
</g>
<g id="#772114ff">
<path fill="#772114" opacity="1.00" d=" M 563.74 71.38 C 572.20 71.18 580.67 71.17 589.14 71.36 C 589.81 72.69 590.50 74.03 591.19 75.37 C 590.43 79.27 589.64 83.16 588.82 87.04 C 580.31 87.20 571.79 88.18 563.29 87.49 C 562.76 84.20 562.23 80.91 561.81 77.60 C 562.40 75.51 563.08 73.45 563.74 71.38 Z" />
</g>
<g id="#752012ff">
<path fill="#752012" opacity="1.00" d=" M 671.65 72.23 C 674.94 71.76 678.27 71.81 681.57 72.24 C 681.65 73.64 681.71 75.05 681.74 76.45 C 680.87 78.31 680.01 80.17 679.36 82.11 C 675.50 82.45 671.64 82.72 667.78 82.96 C 668.25 79.86 668.69 76.75 669.18 73.64 C 669.43 74.22 669.94 75.37 670.19 75.95 C 670.68 74.71 671.15 73.47 671.65 72.23 Z" />
</g>
<g id="#782114ff">
<path fill="#782114" opacity="1.00" d=" M 621.63 74.14 C 629.69 73.42 637.80 73.77 645.88 73.86 C 646.68 75.30 647.49 76.74 648.31 78.18 C 648.03 80.13 647.72 82.07 647.44 84.02 C 638.69 85.02 629.85 84.81 621.11 85.90 C 620.65 83.76 620.16 81.63 619.80 79.48 C 620.35 77.68 620.99 75.91 621.63 74.14 Z" />
</g>
<g id="#000000ff">
<path fill="#000000" opacity="1.00" d=" M 49.31 92.98 C 51.50 85.01 58.23 78.94 65.97 76.47 C 69.21 77.39 72.53 77.95 75.88 78.11 C 91.09 79.21 106.25 81.05 121.48 81.90 C 121.21 85.27 120.72 88.82 118.72 91.65 C 116.92 94.23 113.77 95.56 110.69 95.72 C 101.47 96.12 92.25 95.16 83.03 95.47 C 79.70 95.73 75.97 95.98 73.36 98.31 C 71.77 99.61 71.84 102.39 73.49 103.63 C 76.01 105.78 79.43 106.32 82.57 107.05 C 93.97 109.30 106.16 110.29 116.17 116.75 C 122.96 121.04 127.12 128.95 126.87 136.99 C 127.41 145.62 124.09 154.93 116.58 159.74 C 106.10 166.49 93.10 166.95 81.01 166.86 C 71.27 166.85 61.52 166.35 51.86 165.01 C 51.54 164.88 50.89 164.61 50.57 164.48 C 50.34 159.34 49.73 153.79 52.36 149.12 C 54.22 145.64 58.14 143.81 61.93 143.48 C 72.34 142.79 82.70 144.89 93.11 144.34 C 95.85 144.18 98.77 143.65 100.94 141.85 C 103.25 139.68 102.62 135.58 99.78 134.19 C 94.01 131.06 87.24 130.94 80.93 129.68 C 71.66 128.07 61.68 126.10 54.64 119.38 C 47.74 112.61 46.95 101.88 49.31 92.98 Z" />
<path fill="#000000" opacity="1.00" d=" M 136.30 83.15 C 144.46 83.79 152.61 84.56 160.80 84.81 C 160.86 108.67 160.68 132.54 160.90 156.40 C 160.55 158.95 159.56 161.34 158.16 163.48 C 151.83 168.06 143.58 167.00 136.27 166.44 C 136.35 138.68 136.28 110.91 136.30 83.15 Z" />
<path fill="#000000" opacity="1.00" d=" M 164.71 116.87 C 173.75 106.80 182.84 96.75 191.91 86.70 C 207.27 87.84 222.66 88.61 238.06 88.91 C 245.67 101.27 252.81 113.93 260.73 126.10 C 265.61 114.14 270.94 102.38 275.97 90.49 C 284.24 90.49 292.51 90.83 300.78 90.85 C 287.88 119.75 274.80 148.56 262.03 177.50 C 260.22 181.10 258.72 184.84 257.04 188.49 C 255.04 193.02 251.45 197.10 246.45 198.22 C 240.37 199.40 233.90 199.03 228.10 196.77 C 228.59 195.44 229.12 194.13 229.64 192.82 C 231.55 188.97 233.38 185.08 235.22 181.19 C 237.10 177.04 239.08 172.94 240.96 168.79 C 243.45 163.46 246.06 158.17 248.44 152.79 C 249.25 151.54 248.34 150.38 247.68 149.34 C 236.45 131.89 225.46 114.28 214.21 96.85 C 207.35 104.62 200.02 111.95 193.20 119.75 C 203.21 134.76 213.03 149.90 222.88 165.01 C 214.15 167.95 204.11 168.97 195.73 164.42 C 192.97 162.15 190.38 159.61 188.50 156.55 C 180.72 144.27 173.02 131.95 165.19 119.71 C 164.78 118.86 163.64 117.73 164.71 116.87 Z" />
</g>
<g id="#660000ff">
<path fill="#660000" opacity="1.00" d=" M 667.78 82.96 C 671.64 82.72 675.50 82.45 679.36 82.11 C 677.16 90.00 677.11 98.55 679.99 106.27 C 675.94 104.43 671.11 103.20 666.85 104.85 C 665.69 106.79 665.08 108.99 664.27 111.08 C 664.02 110.51 663.51 109.37 663.25 108.79 C 664.87 100.20 666.47 91.60 667.78 82.96 Z" />
<path fill="#660000" opacity="1.00" d=" M 621.11 85.90 C 629.85 84.81 638.69 85.02 647.44 84.02 C 646.08 92.54 644.77 101.08 643.16 109.56 C 642.57 107.45 641.90 105.38 641.27 103.29 C 636.78 102.93 632.26 102.95 627.78 103.43 C 627.08 104.75 626.38 106.07 625.70 107.39 C 624.22 100.21 622.59 93.07 621.11 85.90 Z" />
</g>
<g id="#780707ff">
<path fill="#780707" opacity="1.00" d=" M 596.03 138.18 C 599.21 123.02 602.20 107.82 605.03 92.59 C 608.11 107.17 610.90 121.80 613.98 136.37 C 612.50 136.00 611.34 134.96 609.98 134.35 C 606.52 133.80 603.00 134.20 599.53 134.41 C 598.56 135.85 598.40 138.73 596.03 138.18 Z" />
</g>
<g id="#760607ff">
<path fill="#760607" opacity="1.00" d=" M 455.60 117.96 C 456.37 112.48 455.33 106.81 457.18 101.48 C 457.26 107.51 457.31 113.53 457.18 119.56 C 455.90 124.26 456.03 129.15 455.71 133.97 C 455.31 132.38 454.93 130.80 454.55 129.21 C 451.15 128.79 447.72 128.76 444.31 129.13 C 444.12 132.80 443.87 136.47 443.45 140.13 C 442.98 135.73 442.77 131.28 443.23 126.88 C 444.12 121.35 443.87 115.73 444.27 110.16 C 447.71 109.71 451.20 109.71 454.64 110.20 C 454.92 112.79 455.23 115.38 455.60 117.96 Z" />
</g>
<g id="#740506ff">
<path fill="#740506" opacity="1.00" d=" M 627.78 103.43 C 632.26 102.95 636.78 102.93 641.27 103.29 C 641.90 105.38 642.57 107.45 643.16 109.56 C 640.81 123.24 638.02 136.86 635.06 150.42 C 632.14 136.04 628.76 121.75 625.70 107.39 C 626.38 106.07 627.08 104.75 627.78 103.43 Z" />
</g>
<g id="#7a0808ff">
<path fill="#7a0808" opacity="1.00" d=" M 666.85 104.85 C 671.11 103.20 675.94 104.43 679.99 106.27 C 681.87 110.64 684.80 114.53 688.48 117.54 C 696.46 124.20 706.66 127.02 716.21 130.61 C 720.78 132.39 725.72 134.13 729.00 137.97 C 731.55 140.79 731.08 144.96 730.11 148.34 C 729.18 144.71 729.68 140.07 726.30 137.63 C 723.69 135.48 720.07 135.90 716.94 135.78 C 698.03 136.07 679.12 135.51 660.23 136.06 C 658.85 137.69 657.43 139.29 656.08 140.94 C 658.63 130.26 661.03 119.55 663.25 108.79 C 663.51 109.37 664.02 110.51 664.27 111.08 C 665.08 108.99 665.69 106.79 666.85 104.85 Z" />
</g>
<g id="#7c0909ff">
<path fill="#7c0909" opacity="1.00" d=" M 371.83 105.17 C 379.98 115.37 387.79 125.83 395.84 136.10 C 388.87 137.61 381.70 136.30 374.67 137.22 C 373.77 139.92 372.76 142.58 371.85 145.28 C 371.81 131.91 371.81 118.54 371.83 105.17 Z" />
</g>
<g id="#730506ff">
<path fill="#730506" opacity="1.00" d=" M 405.44 107.22 C 410.14 106.86 414.86 106.78 419.57 107.17 C 419.74 110.30 420.23 113.41 420.98 116.47 C 421.42 121.23 421.70 126.10 420.40 130.77 C 415.74 124.73 411.01 118.74 406.43 112.64 C 406.07 110.84 405.76 109.03 405.44 107.22 Z" />
</g>
<g id="#850d0fff">
<path fill="#850d0f" opacity="1.00" d=" M 519.96 107.61 C 521.26 112.47 520.53 117.56 521.02 122.52 C 520.97 124.34 520.96 126.15 520.95 127.97 C 530.98 128.45 541.01 128.06 551.04 127.84 C 552.63 134.71 554.24 141.57 555.99 148.40 C 554.17 148.24 553.45 146.49 552.50 145.23 C 545.03 144.34 537.49 145.04 529.99 144.84 C 514.39 145.06 498.78 144.49 483.20 145.12 C 482.58 145.90 481.97 146.68 481.37 147.46 C 480.80 147.00 480.24 146.54 479.69 146.08 C 479.70 139.98 479.67 133.88 479.69 127.78 C 493.06 127.78 506.43 127.78 519.80 127.78 C 519.84 121.06 519.56 114.33 519.96 107.61 Z" />
</g>
<g id="#750606ff">
<path fill="#750606" opacity="1.00" d=" M 329.27 109.18 C 336.07 108.74 342.90 108.80 349.70 109.15 C 350.25 114.74 350.11 120.35 350.11 125.95 C 343.27 126.03 336.43 125.71 329.60 126.15 C 329.22 128.66 328.69 131.16 328.07 133.62 C 327.93 132.76 327.65 131.04 327.51 130.18 C 327.73 123.15 329.03 116.21 329.27 109.18 Z" />
</g>
<g id="#770707ff">
<path fill="#770707" opacity="1.00" d=" M 522.38 112.17 C 530.14 111.70 537.96 111.60 545.71 112.23 C 546.79 115.98 547.60 119.80 548.31 123.64 C 548.69 123.39 549.45 122.89 549.83 122.64 C 550.22 124.38 550.62 126.11 551.04 127.84 C 541.01 128.06 530.98 128.45 520.95 127.97 C 520.96 126.15 520.97 124.34 521.02 122.52 C 521.94 119.14 522.34 115.66 522.38 112.17 Z" />
</g>
<g id="#790708ff">
<path fill="#790708" opacity="1.00" d=" M 570.65 113.14 C 574.02 112.63 577.45 112.65 580.83 113.15 C 580.53 116.28 579.87 119.55 581.11 122.59 C 579.12 131.86 577.06 141.12 575.00 150.39 C 572.89 140.10 570.69 129.82 568.81 119.49 C 569.38 117.36 570.03 115.26 570.65 113.14 Z" />
</g>
<g id="#780708ff">
<path fill="#780708" opacity="1.00" d=" M 741.15 116.13 C 745.08 115.62 749.05 115.56 753.01 115.68 C 759.88 115.85 766.76 115.39 773.62 115.96 C 774.09 118.04 774.61 120.11 775.00 122.21 C 775.06 125.48 775.04 128.75 775.05 132.02 C 774.31 131.07 773.59 130.12 772.87 129.18 C 766.12 129.13 759.38 129.05 752.64 129.27 C 752.09 130.69 751.55 132.11 751.03 133.53 C 750.16 129.95 748.52 126.61 746.44 123.59 C 746.81 120.04 743.28 118.28 741.15 116.13 Z" />
</g>
<g id="#840c0eff">
<path fill="#840c0e" opacity="1.00" d=" M 455.71 133.97 C 456.03 129.15 455.90 124.26 457.18 119.56 C 457.26 125.22 457.30 130.89 457.19 136.56 C 456.59 139.29 456.03 142.03 455.63 144.80 C 455.29 144.19 454.61 142.98 454.28 142.38 C 451.01 142.05 447.73 142.03 444.46 142.31 C 444.09 145.50 444.52 149.14 442.24 151.74 C 442.20 143.60 442.14 135.47 442.20 127.34 L 443.23 126.88 C 442.77 131.28 442.98 135.73 443.45 140.13 C 443.87 136.47 444.12 132.80 444.31 129.13 C 447.72 128.76 451.15 128.79 454.55 129.21 C 454.93 130.80 455.31 132.38 455.71 133.97 Z" />
</g>
<g id="#800b0cff">
<path fill="#800b0c" opacity="1.00" d=" M 329.60 126.15 C 336.43 125.71 343.27 126.03 350.11 125.95 C 350.22 130.83 350.65 135.69 351.55 140.49 C 351.58 144.16 351.28 147.83 350.52 151.43 C 350.36 150.63 350.03 149.03 349.86 148.23 C 349.83 144.56 349.90 140.89 349.66 137.22 C 342.96 136.81 336.24 136.97 329.54 137.23 C 329.07 138.87 328.61 140.50 328.13 142.14 C 327.98 139.30 327.94 136.46 328.07 133.62 C 328.69 131.16 329.22 128.66 329.60 126.15 Z" />
</g>
<g id="#880d10ff">
<path fill="#880d10" opacity="1.00" d=" M 752.64 129.27 C 759.38 129.05 766.12 129.13 772.87 129.18 C 773.59 130.12 774.31 131.07 775.05 132.02 C 775.02 137.56 774.96 143.09 775.02 148.63 C 767.12 147.51 758.90 147.14 751.09 149.07 C 751.98 143.94 752.03 138.64 751.03 133.53 C 751.55 132.11 752.09 130.69 752.64 129.27 Z" />
</g>
<g id="#8d0f12ff">
<path fill="#8d0f12" opacity="1.00" d=" M 326.83 131.38 L 327.51 130.18 C 327.65 131.04 327.93 132.76 328.07 133.62 C 327.94 136.46 327.98 139.30 328.13 142.14 C 328.61 140.50 329.07 138.87 329.54 137.23 C 336.24 136.97 342.96 136.81 349.66 137.22 C 349.90 140.89 349.83 144.56 349.86 148.23 C 343.87 148.58 337.87 148.21 331.88 148.38 C 330.07 148.10 329.12 149.79 327.95 150.81 C 327.68 148.09 327.24 145.39 326.79 142.69 C 326.71 138.92 326.67 135.15 326.83 131.38 Z" />
</g>
<g id="#910f13ff">
<path fill="#910f13" opacity="1.00" d=" M 599.53 134.41 C 603.00 134.20 606.52 133.80 609.98 134.35 C 611.34 134.96 612.50 136.00 613.98 136.37 C 615.41 142.65 616.69 148.96 618.16 155.23 C 611.89 153.67 605.40 154.16 599.01 154.09 C 596.56 154.00 594.24 154.79 592.02 155.71 C 593.48 149.89 594.70 144.02 596.03 138.18 C 598.40 138.73 598.56 135.85 599.53 134.41 Z" />
</g>
<g id="#921013ff">
<path fill="#921013" opacity="1.00" d=" M 374.67 137.22 C 381.70 136.30 388.87 137.61 395.84 136.10 C 400.50 142.12 405.13 148.16 409.81 154.16 C 398.03 154.33 386.25 153.95 374.48 154.27 C 373.17 160.08 371.71 165.96 372.50 171.97 C 372.34 172.30 372.01 172.97 371.85 173.30 C 371.84 163.96 371.78 154.62 371.85 145.28 C 372.76 142.58 373.77 139.92 374.67 137.22 Z" />
</g>
<g id="#8f0f13ff">
<path fill="#8f0f13" opacity="1.00" d=" M 656.08 140.94 C 657.43 139.29 658.85 137.69 660.23 136.06 C 679.12 135.51 698.03 136.07 716.94 135.78 C 720.07 135.90 723.69 135.48 726.30 137.63 C 729.68 140.07 729.18 144.71 730.11 148.34 C 727.57 152.67 722.62 154.73 717.85 155.42 C 705.13 156.93 692.11 153.79 681.00 147.56 C 680.14 151.94 679.17 156.29 678.13 160.63 C 677.67 158.47 677.32 156.30 677.16 154.10 C 670.76 153.96 664.35 154.14 657.96 153.89 C 655.36 153.60 653.62 155.71 651.87 157.22 C 653.36 151.82 654.59 146.35 656.08 140.94 Z" />
</g>
<g id="#991115ff">
<path fill="#991115" opacity="1.00" d=" M 455.63 144.80 C 456.03 142.03 456.59 139.29 457.19 136.56 C 457.27 144.24 457.25 151.93 457.21 159.62 C 456.80 161.37 456.30 163.10 455.83 164.84 C 455.26 164.07 454.71 163.30 454.15 162.53 C 450.98 162.32 447.80 162.26 444.63 162.36 C 444.13 166.06 443.47 169.76 442.27 173.31 C 442.19 166.12 442.17 158.93 442.24 151.74 C 444.52 149.14 444.09 145.50 444.46 142.31 C 447.73 142.03 451.01 142.05 454.28 142.38 C 454.61 142.98 455.29 144.19 455.63 144.80 Z" />
</g>
<g id="#a51419ff">
<path fill="#a51419" opacity="1.00" d=" M 351.55 140.49 L 351.67 141.32 C 351.99 151.94 351.70 162.57 351.78 173.19 C 345.36 171.08 338.55 171.56 331.91 171.78 C 329.96 171.48 329.14 173.34 328.27 174.68 C 327.79 172.93 327.27 171.20 326.80 169.45 C 326.69 160.53 326.71 151.61 326.79 142.69 C 327.24 145.39 327.68 148.09 327.95 150.81 C 329.12 149.79 330.07 148.10 331.88 148.38 C 337.87 148.21 343.87 148.58 349.86 148.23 C 350.03 149.03 350.36 150.63 350.52 151.43 C 351.28 147.83 351.58 144.16 351.55 140.49 Z" />
</g>
<g id="#981115ff">
<path fill="#981115" opacity="1.00" d=" M 481.37 147.46 C 481.97 146.68 482.58 145.90 483.20 145.12 C 498.78 144.49 514.39 145.06 529.99 144.84 C 537.49 145.04 545.03 144.34 552.50 145.23 C 553.45 146.49 554.17 148.24 555.99 148.40 C 557.41 153.70 558.73 159.02 560.12 164.32 C 556.84 163.18 553.43 162.36 549.95 162.57 C 543.44 162.85 536.92 162.18 530.44 162.93 C 529.81 165.07 529.16 167.20 528.63 169.36 C 528.61 164.78 528.59 160.20 528.60 155.62 C 512.29 155.63 495.98 155.63 479.68 155.62 C 479.68 152.44 479.68 149.26 479.69 146.08 C 480.24 146.54 480.80 147.00 481.37 147.46 Z" />
</g>
<g id="#9c1317ff">
<path fill="#9c1317" opacity="1.00" d=" M 751.09 149.07 C 758.90 147.14 767.12 147.51 775.02 148.63 C 775.05 153.29 775.02 157.95 775.13 162.61 C 770.98 160.76 766.35 161.57 761.97 161.47 C 757.71 161.59 753.43 161.12 749.19 161.62 C 747.06 162.43 745.39 164.34 742.98 164.37 C 747.05 160.14 749.74 154.76 751.09 149.07 Z" />
</g>
<g id="#a7151bff">
<path fill="#a7151b" opacity="1.00" d=" M 374.48 154.27 C 386.25 153.95 398.03 154.33 409.81 154.16 C 413.72 159.21 417.60 164.29 421.52 169.33 C 418.39 168.63 415.20 168.12 411.99 168.17 C 400.31 168.42 388.64 168.06 376.97 168.27 C 374.58 167.93 373.68 170.43 372.50 171.97 C 371.71 165.96 373.17 160.08 374.48 154.27 Z" />
<path fill="#a7151b" opacity="1.00" d=" M 592.02 155.71 C 594.24 154.79 596.56 154.00 599.01 154.09 C 605.40 154.16 611.89 153.67 618.16 155.23 C 619.29 160.23 620.42 165.25 621.79 170.19 C 618.27 169.28 614.65 168.77 611.02 169.04 C 604.50 169.45 597.97 168.80 591.47 169.39 C 590.37 170.13 589.27 170.86 588.08 171.43 C 589.40 166.19 590.74 160.96 592.02 155.71 Z" />
<path fill="#a7151b" opacity="1.00" d=" M 651.87 157.22 C 653.62 155.71 655.36 153.60 657.96 153.89 C 664.35 154.14 670.76 153.96 677.16 154.10 C 677.32 156.30 677.67 158.47 678.13 160.63 C 677.88 162.04 677.61 163.45 677.36 164.87 C 676.27 166.52 675.39 169.07 673.00 169.00 C 666.66 169.65 660.29 168.80 653.94 169.19 C 651.81 169.33 650.01 170.59 648.14 171.49 C 649.46 166.75 650.61 161.97 651.87 157.22 Z" />
</g>
<g id="#f9f9f9ff">
<path fill="#f9f9f9" opacity="1.00" d=" M 30.93 163.11 C 31.67 162.11 32.41 161.11 33.16 160.12 C 37.70 159.84 42.25 159.79 46.78 160.21 C 47.93 161.72 49.10 163.25 50.57 164.48 C 50.89 164.61 51.54 164.88 51.86 165.01 C 51.78 165.45 51.62 166.34 51.54 166.78 C 67.78 168.78 84.38 170.41 100.62 167.53 C 106.06 166.61 111.31 164.74 116.13 162.06 C 121.38 158.89 127.75 160.07 133.55 160.26 C 133.82 162.06 134.08 163.86 134.43 165.65 C 134.89 165.85 135.81 166.24 136.27 166.44 C 143.58 167.00 151.83 168.06 158.16 163.48 C 160.73 162.88 162.15 159.90 164.95 160.06 C 171.98 159.91 179.02 159.98 186.05 160.10 C 190.09 159.67 191.65 165.18 195.73 164.42 C 204.11 168.97 214.15 167.95 222.88 165.01 C 223.17 165.10 223.76 165.26 224.06 165.35 C 223.52 163.60 222.98 161.85 222.44 160.10 C 229.19 160.02 235.94 159.94 242.68 160.16 C 241.68 162.92 240.14 165.76 240.96 168.79 C 239.08 172.94 237.10 177.04 235.22 181.19 C 234.19 179.67 233.32 177.41 231.06 177.81 C 164.48 177.68 97.89 177.91 31.31 177.70 C 30.87 172.85 30.87 167.98 30.93 163.11 Z" />
</g>
<g id="#be1920ff">
<path fill="#be1920" opacity="1.00" d=" M 455.83 164.84 C 456.30 163.10 456.80 161.37 457.21 159.62 C 457.24 164.18 457.26 168.74 457.23 173.30 C 481.01 173.19 504.80 173.54 528.57 173.13 C 535.59 171.29 542.86 172.43 550.02 172.07 C 554.21 171.81 558.38 172.36 562.49 173.19 C 570.79 173.49 579.11 173.19 587.42 173.34 C 587.64 172.70 587.86 172.07 588.08 171.43 C 589.27 170.86 590.37 170.13 591.47 169.39 C 597.97 168.80 604.50 169.45 611.02 169.04 C 614.65 168.77 618.27 169.28 621.79 170.19 C 622.07 171.23 622.37 172.27 622.68 173.32 C 630.96 173.32 639.24 173.24 647.53 173.36 C 647.73 172.74 647.93 172.11 648.14 171.49 C 650.01 170.59 651.81 169.33 653.94 169.19 C 660.29 168.80 666.66 169.65 673.00 169.00 C 675.39 169.07 676.27 166.52 677.36 164.87 C 677.27 165.61 677.09 167.09 676.99 167.83 C 687.90 173.98 700.70 175.66 713.05 175.49 C 723.87 175.35 735.08 172.06 742.98 164.37 C 745.39 164.34 747.06 162.43 749.19 161.62 C 753.43 161.12 757.71 161.59 761.97 161.47 C 766.35 161.57 770.98 160.76 775.13 162.61 C 775.11 172.23 775.66 181.89 775.00 191.50 L 774.44 192.30 C 774.18 191.08 773.92 189.86 773.68 188.64 C 754.45 189.37 735.20 188.72 715.96 188.97 C 599.64 188.93 483.32 188.97 367.01 188.95 C 354.43 189.11 341.84 188.56 329.27 189.21 C 329.00 192.17 328.76 195.13 328.60 198.10 C 328.41 194.83 327.81 191.60 326.77 188.50 C 326.59 182.15 326.73 175.80 326.80 169.45 C 327.27 171.20 327.79 172.93 328.27 174.68 C 329.14 173.34 329.96 171.48 331.91 171.78 C 338.55 171.56 345.36 171.08 351.78 173.19 C 358.46 173.47 365.16 173.23 371.85 173.30 C 372.01 172.97 372.34 172.30 372.50 171.97 C 373.68 170.43 374.58 167.93 376.97 168.27 C 388.64 168.06 400.31 168.42 411.99 168.17 C 415.20 168.12 418.39 168.63 421.52 169.33 C 422.58 170.67 423.66 172.00 424.74 173.33 C 430.58 173.29 436.43 173.31 442.27 173.31 C 443.47 169.76 444.13 166.06 444.63 162.36 C 447.80 162.26 450.98 162.32 454.15 162.53 C 454.71 163.30 455.26 164.07 455.83 164.84 Z" />
</g>
<g id="#af171dff">
<path fill="#af171d" opacity="1.00" d=" M 530.44 162.93 C 536.92 162.18 543.44 162.85 549.95 162.57 C 553.43 162.36 556.84 163.18 560.12 164.32 C 560.88 167.28 561.66 170.24 562.49 173.19 C 558.38 172.36 554.21 171.81 550.02 172.07 C 542.86 172.43 535.59 171.29 528.57 173.13 C 528.57 171.87 528.59 170.61 528.63 169.36 C 529.16 167.20 529.81 165.07 530.44 162.93 Z" />
</g>
<g id="#efeff0ff">
<path fill="#efeff0" opacity="1.00" d=" M 272.00 172.80 C 289.56 172.70 307.13 173.05 324.70 172.59 C 325.84 183.13 327.10 193.72 326.09 204.33 C 324.81 198.35 325.30 192.21 324.66 186.17 C 304.77 185.90 284.87 186.05 264.97 185.85 C 262.06 185.66 259.57 187.33 257.04 188.49 C 258.72 184.84 260.22 181.10 262.03 177.50 C 264.11 176.86 265.24 174.96 266.43 173.29 C 268.27 173.07 270.13 172.86 272.00 172.80 Z" />
</g>
<g id="#e2e2e4ff">
<path fill="#e2e2e4" opacity="1.00" d=" M 32.44 185.33 C 36.63 185.06 40.82 185.08 45.01 185.15 C 106.92 185.21 168.83 185.05 230.74 185.20 C 229.91 187.65 229.28 190.21 229.64 192.82 C 229.12 194.13 228.59 195.44 228.10 196.77 C 233.90 199.03 240.37 199.40 246.45 198.22 C 251.45 197.10 255.04 193.02 257.04 188.49 C 259.57 187.33 262.06 185.66 264.97 185.85 C 284.87 186.05 304.77 185.90 324.66 186.17 C 325.30 192.21 324.81 198.35 326.09 204.33 C 326.25 205.43 326.41 206.53 326.57 207.64 C 235.04 207.54 143.51 207.62 51.98 207.60 C 47.24 207.48 41.79 208.49 37.93 205.00 C 33.23 202.05 30.16 197.00 29.91 191.42 C 30.68 189.36 31.57 187.35 32.44 185.33 Z" />
</g>
<g id="#c71c22ff">
<path fill="#c71c22" opacity="1.00" d=" M 715.96 188.97 C 735.20 188.72 754.45 189.37 773.68 188.64 C 773.92 189.86 774.18 191.08 774.44 192.30 C 772.51 194.91 770.50 197.47 768.32 199.88 C 767.00 200.37 765.69 200.85 764.39 201.35 C 622.59 201.58 480.79 201.35 338.99 201.46 C 334.86 201.56 330.69 201.65 326.66 200.58 C 326.67 196.55 326.71 192.53 326.77 188.50 C 327.81 191.60 328.41 194.83 328.60 198.10 C 328.76 195.13 329.00 192.17 329.27 189.21 C 341.84 188.56 354.43 189.11 367.01 188.95 C 483.32 188.97 599.64 188.93 715.96 188.97 Z" />
</g>
<g id="#971312ff">
<path fill="#971312" opacity="1.00" d=" M 774.44 192.30 L 775.00 191.50 C 774.71 194.29 774.28 197.06 773.77 199.82 C 773.61 200.40 773.38 200.95 773.09 201.47 C 771.41 203.73 769.68 205.95 767.85 208.09 C 767.68 208.15 767.33 208.28 767.15 208.34 C 765.62 208.63 764.28 209.49 763.38 210.74 C 760.36 213.43 755.88 213.57 752.02 213.69 C 611.38 213.68 470.74 213.68 330.10 213.69 C 329.17 213.61 327.29 213.45 326.36 213.37 C 326.59 211.84 326.71 210.30 326.71 208.75 C 389.81 208.42 452.93 208.71 516.04 208.61 C 595.05 208.61 674.05 208.61 753.06 208.61 C 759.33 208.88 765.02 205.02 768.32 199.88 C 770.50 197.47 772.51 194.91 774.44 192.30 Z" />
</g>
<g id="#ea3d2dff">
<path fill="#ea3d2d" opacity="1.00" d=" M 326.66 200.58 C 330.69 201.65 334.86 201.56 338.99 201.46 C 480.79 201.35 622.59 201.58 764.39 201.35 C 762.39 202.74 760.56 204.63 758.05 204.99 C 749.12 206.78 739.97 206.19 730.93 206.26 C 613.30 206.26 495.67 206.22 378.04 206.34 C 360.93 206.22 343.81 206.64 326.70 206.22 C 326.68 204.34 326.66 202.46 326.66 200.58 Z" />
</g>
<g id="#c14631ff">
<path fill="#c14631" opacity="1.00" d=" M 764.39 201.35 C 765.69 200.85 767.00 200.37 768.32 199.88 C 765.02 205.02 759.33 208.88 753.06 208.61 C 674.05 208.61 595.05 208.61 516.04 208.61 C 452.93 208.71 389.81 208.42 326.71 208.75 C 326.70 208.12 326.70 206.85 326.70 206.22 C 343.81 206.64 360.93 206.22 378.04 206.34 C 495.67 206.22 613.30 206.26 730.93 206.26 C 739.97 206.19 749.12 206.78 758.05 204.99 C 760.56 204.63 762.39 202.74 764.39 201.35 Z" />
</g>
<g id="#50222276">
<path fill="#502222" opacity="0.46" d=" M 767.85 208.09 C 769.68 205.95 771.41 203.73 773.09 201.47 C 772.12 204.21 770.25 206.49 767.85 208.09 Z" />
</g>
<g id="#333333ff">
<path fill="#333333" opacity="1.00" d=" M 531.64 247.95 C 542.13 245.25 554.23 246.20 563.05 252.95 C 576.79 263.38 580.66 283.79 573.10 299.03 C 570.10 305.01 565.60 310.41 559.70 313.70 C 551.94 318.06 542.56 318.66 533.95 317.03 C 522.06 314.76 512.85 304.74 509.41 293.44 C 505.43 278.89 509.73 261.41 522.45 252.45 C 525.18 250.37 528.33 248.87 531.64 247.95 M 526.77 274.00 C 523.51 280.83 524.70 289.51 529.87 295.09 C 535.61 302.33 547.69 302.72 554.02 296.05 C 557.99 292.51 559.65 287.24 560.06 282.08 C 559.76 274.26 554.76 266.38 546.96 264.27 C 538.99 261.74 529.99 266.47 526.77 274.00 Z" />
<path fill="#333333" opacity="1.00" d=" M 44.52 248.69 C 49.90 248.70 55.28 248.73 60.66 248.67 C 60.84 270.98 60.70 293.31 60.73 315.63 C 55.32 315.59 49.91 315.64 44.50 315.59 C 44.57 293.29 44.53 270.99 44.52 248.69 Z" />
<path fill="#333333" opacity="1.00" d=" M 74.22 315.62 C 74.29 293.30 74.10 270.97 74.31 248.65 C 79.60 248.74 84.89 248.70 90.18 248.68 C 100.15 262.07 109.90 275.63 119.71 289.14 C 119.87 275.66 119.71 262.17 119.79 248.68 C 125.29 248.72 130.80 248.67 136.30 248.72 C 136.36 271.00 136.26 293.27 136.36 315.54 C 130.81 315.68 125.25 315.60 119.71 315.60 C 109.93 302.05 100.07 288.56 90.25 275.04 C 90.04 288.59 90.41 302.16 90.06 315.70 C 84.78 315.52 79.50 315.64 74.22 315.62 Z" />
<path fill="#333333" opacity="1.00" d=" M 143.24 248.70 C 157.41 248.69 171.57 248.72 185.74 248.69 C 185.80 253.59 185.79 258.49 185.75 263.39 C 181.37 263.38 176.98 263.36 172.60 263.39 C 172.65 280.78 172.55 298.18 172.65 315.58 C 167.14 315.64 161.63 315.59 156.12 315.62 C 156.08 298.19 156.13 280.77 156.09 263.34 C 151.83 263.40 147.56 263.35 143.29 263.41 C 143.16 258.51 143.23 253.61 143.24 248.70 Z" />
<path fill="#333333" opacity="1.00" d=" M 193.22 315.62 C 193.30 293.29 193.07 270.96 193.34 248.63 C 205.04 248.80 216.74 248.66 228.43 248.70 C 228.41 253.59 228.41 258.49 228.43 263.38 C 222.03 263.37 215.64 263.39 209.24 263.37 C 209.22 267.06 209.21 270.75 209.25 274.44 C 215.31 274.42 221.38 274.43 227.45 274.44 C 227.40 279.35 227.42 284.27 227.43 289.18 C 221.37 289.20 215.30 289.19 209.24 289.18 C 209.22 293.05 209.22 296.92 209.24 300.80 C 215.63 300.77 222.01 300.78 228.40 300.79 C 228.44 305.71 228.39 310.64 228.45 315.57 C 216.71 315.67 204.97 315.57 193.22 315.62 Z" />
<path fill="#333333" opacity="1.00" d=" M 238.36 315.63 C 238.39 293.31 238.32 270.99 238.39 248.67 C 246.94 248.74 255.49 248.70 264.03 248.68 C 268.88 248.65 273.97 249.91 277.58 253.31 C 284.80 260.05 285.97 271.89 281.43 280.42 C 279.31 284.64 274.98 286.84 270.79 288.51 C 277.35 297.47 283.64 306.62 290.22 315.57 C 283.36 315.65 276.50 315.60 269.65 315.60 C 264.57 307.37 259.89 298.88 254.58 290.81 C 254.39 299.06 254.54 307.33 254.52 315.59 C 249.13 315.65 243.75 315.59 238.36 315.63 M 254.54 261.99 C 254.47 267.57 254.49 273.14 254.53 278.72 C 257.65 278.50 261.03 278.65 263.80 276.96 C 266.18 275.46 266.57 272.48 267.31 270.01 C 266.64 268.01 266.25 265.77 264.56 264.34 C 261.94 261.71 257.93 262.17 254.54 261.99 Z" />
<path fill="#333333" opacity="1.00" d=" M 296.37 315.62 C 296.41 293.31 296.36 270.99 296.39 248.68 C 301.73 248.70 307.06 248.76 312.40 248.63 C 322.47 261.98 332.09 275.66 342.00 289.12 C 342.07 275.65 341.97 262.17 342.05 248.70 C 347.54 248.70 353.02 248.70 358.51 248.71 C 358.60 271.00 358.46 293.29 358.58 315.58 C 353.10 315.66 347.62 315.56 342.14 315.65 C 332.14 302.31 322.63 288.60 312.60 275.28 C 312.44 288.73 312.59 302.18 312.53 315.63 C 307.14 315.60 301.76 315.61 296.37 315.62 Z" />
<path fill="#333333" opacity="1.00" d=" M 387.57 252.89 C 388.06 251.41 388.70 249.98 389.42 248.60 C 395.29 248.82 401.17 248.64 407.05 248.71 C 414.40 269.73 421.86 290.70 429.11 311.75 C 429.58 313.00 430.12 314.23 430.66 315.47 C 424.77 315.78 418.87 315.51 412.98 315.65 C 411.54 311.92 410.58 308.02 408.95 304.38 C 405.79 303.22 402.23 303.98 398.92 304.02 C 394.81 304.54 390.64 303.23 386.58 304.32 C 385.33 308.12 383.95 311.88 382.53 315.63 C 376.79 315.59 371.05 315.62 365.31 315.62 C 372.58 294.66 380.22 273.82 387.57 252.89 M 397.88 269.88 C 395.79 276.78 393.56 283.63 391.34 290.49 C 395.71 290.52 400.09 290.52 404.47 290.49 C 402.24 283.63 400.19 276.71 397.88 269.88 Z" />
<path fill="#333333" opacity="1.00" d=" M 432.39 263.39 C 432.36 258.49 432.32 253.58 432.42 248.67 C 446.58 248.73 460.74 248.71 474.90 248.68 C 475.25 253.58 475.45 258.56 474.78 263.44 C 470.44 263.33 466.10 263.37 461.76 263.40 C 461.78 280.80 461.71 298.20 461.79 315.60 C 456.30 315.63 450.80 315.59 445.31 315.63 C 445.26 298.19 445.33 280.76 445.28 263.33 C 440.98 263.40 436.68 263.37 432.39 263.39 Z" />
<path fill="#333333" opacity="1.00" d=" M 481.34 315.63 C 481.37 293.31 481.31 270.99 481.37 248.67 C 486.71 248.73 492.06 248.71 497.41 248.68 C 497.46 271.00 497.41 293.31 497.43 315.63 C 492.07 315.61 486.70 315.60 481.34 315.63 Z" />
<path fill="#333333" opacity="1.00" d=" M 586.50 248.69 C 591.98 248.75 597.46 248.60 602.94 248.80 C 612.55 262.27 622.36 275.59 632.06 289.00 C 632.31 275.57 632.08 262.13 632.18 248.70 C 637.67 248.69 643.15 248.71 648.64 248.69 C 648.78 270.99 648.60 293.29 648.73 315.58 C 643.22 315.64 637.72 315.60 632.23 315.61 C 622.38 302.12 612.49 288.66 602.85 275.02 C 602.51 288.55 602.82 302.09 602.69 315.63 C 597.28 315.59 591.88 315.64 586.48 315.58 C 586.55 293.29 586.50 270.99 586.50 248.69 Z" />
<path fill="#333333" opacity="1.00" d=" M 676.95 258.03 C 678.09 254.86 678.99 251.59 680.60 248.61 C 686.44 248.80 692.29 248.67 698.14 248.70 C 706.08 270.94 713.68 293.31 721.75 315.50 C 715.86 315.73 709.97 315.56 704.08 315.62 C 702.49 311.67 701.73 307.37 699.51 303.71 C 692.25 304.30 684.87 303.10 677.69 304.39 C 676.69 308.11 674.91 311.56 674.11 315.34 C 668.23 315.94 662.30 315.48 656.40 315.60 C 663.27 296.41 670.09 277.22 676.95 258.03 M 688.93 269.90 C 686.84 276.77 684.95 283.75 682.28 290.42 C 686.71 290.57 691.15 290.50 695.59 290.51 C 693.36 283.64 691.38 276.69 688.93 269.90 Z" />
<path fill="#333333" opacity="1.00" d=" M 728.27 315.63 C 728.31 293.30 728.19 270.98 728.33 248.66 C 733.64 248.74 738.96 248.70 744.27 248.69 C 744.33 266.06 744.26 283.44 744.31 300.81 C 750.77 300.76 757.24 300.80 763.70 300.78 C 763.76 305.72 763.70 310.66 763.76 315.60 C 751.93 315.64 740.10 315.59 728.27 315.63 Z" />
</g>
</svg>
