<?xml version="1.0" encoding="UTF-8" standalone="yes"?>
<svg xmlns="http://www.w3.org/2000/svg" xmlns:xlink="http://www.w3.org/1999/xlink" width="141.33333333333331px" height="106.66666666666666px" viewBox="0 0 106 80" version="1.1">
  <g id="surface1">
    <path style=" stroke:none;fill-rule:nonzero;fill:rgb(100%,87.058824%,0%);fill-opacity:1;" d="M 105.796875 39.714844 C 105.796875 36.707031 105.546875 33.976562 105.046875 31.519531 C 104.546875 29.070312 103.628906 26.949219 102.300781 25.167969 C 100.96875 23.382812 99.175781 22.003906 96.925781 21.027344 C 94.675781 20.050781 91.800781 19.5625 88.300781 19.5625 C 86.359375 19.5625 84.238281 19.925781 81.929688 20.652344 C 79.625 21.375 77.585938 22.378906 75.8125 23.660156 C 74.53125 22.546875 72.90625 21.582031 70.9375 20.773438 C 68.964844 19.96875 66.398438 19.5625 63.230469 19.5625 C 61.617188 19.5625 59.980469 19.632812 58.316406 19.773438 C 56.648438 19.914062 55.027344 20.109375 53.441406 20.359375 C 51.859375 20.609375 50.363281 20.886719 48.945312 21.191406 C 47.527344 21.503906 46.292969 21.792969 45.238281 22.070312 L 45.238281 64.554688 L 57.648438 64.554688 L 57.648438 30.601562 C 58.425781 30.492188 59.230469 30.394531 60.066406 30.308594 C 60.898438 30.226562 61.703125 30.183594 62.480469 30.183594 C 64.980469 30.183594 66.742188 31.019531 67.769531 32.691406 C 68.796875 34.363281 69.3125 37.210938 69.3125 41.222656 L 69.3125 56.207031 C 69.3125 57.453125 69.414062 58.585938 69.621094 59.601562 C 69.828125 60.617188 70.207031 61.496094 70.757812 62.234375 C 71.308594 62.96875 72.050781 63.542969 72.980469 63.949219 C 73.914062 64.351562 75.105469 64.554688 76.550781 64.554688 C 77.359375 64.554688 78.238281 64.402344 79.1875 64.101562 C 80.144531 63.804688 80.988281 63.386719 81.722656 62.855469 C 81.726562 62.65625 81.722656 40.554688 81.722656 40.554688 C 81.722656 38.9375 81.667969 37.417969 81.554688 35.996094 C 81.445312 34.574219 81.195312 33.222656 80.808594 31.9375 C 81.585938 31.4375 82.570312 31.019531 83.765625 30.6875 C 84.957031 30.347656 85.886719 30.183594 86.554688 30.183594 C 89.050781 30.183594 90.816406 31.019531 91.847656 32.691406 C 92.875 34.363281 93.382812 37.210938 93.382812 41.222656 L 93.382812 56.207031 C 93.382812 57.453125 93.484375 58.585938 93.6875 59.601562 C 93.898438 60.617188 94.277344 61.496094 94.828125 62.230469 C 95.378906 62.972656 96.121094 63.542969 97.054688 63.949219 C 97.984375 64.351562 99.175781 64.554688 100.625 64.554688 C 101.425781 64.554688 102.308594 64.402344 103.261719 64.101562 C 104.214844 63.800781 105.0625 63.386719 105.796875 62.855469 Z M 105.796875 39.714844 "/>
    <path style=" stroke:none;fill-rule:nonzero;fill:rgb(100%,87.058824%,0%);fill-opacity:1;" d="M 28.386719 20.371094 C 28.386719 20.574219 28.386719 64.554688 28.386719 64.554688 L 40.800781 64.554688 L 40.800781 27.019531 C 40.800781 25.773438 40.695312 24.644531 40.488281 23.628906 C 40.28125 22.613281 39.902344 21.734375 39.351562 20.996094 C 38.796875 20.257812 38.058594 19.6875 37.125 19.28125 C 36.191406 18.878906 35.003906 18.675781 33.554688 18.675781 C 32.75 18.675781 31.871094 18.828125 30.917969 19.128906 C 29.960938 19.425781 29.121094 19.84375 28.386719 20.371094 "/>
    <path style=" stroke:none;fill-rule:nonzero;fill:rgb(100%,87.058824%,0%);fill-opacity:1;" d="M 42.003906 7.605469 C 42.003906 5.324219 41.273438 3.523438 39.800781 2.214844 C 38.328125 0.90625 36.59375 0.25 34.59375 0.25 C 32.59375 0.25 30.859375 0.90625 29.390625 2.214844 C 27.917969 3.523438 27.183594 5.324219 27.183594 7.605469 C 27.183594 9.894531 27.917969 11.695312 29.390625 13.003906 C 30.859375 14.3125 32.59375 14.96875 34.59375 14.96875 C 36.59375 14.96875 38.328125 14.3125 39.800781 13.003906 C 41.273438 11.695312 42.003906 9.894531 42.003906 7.605469 "/>
    <path style=" stroke:none;fill-rule:nonzero;fill:rgb(100%,87.058824%,0%);fill-opacity:1;" d="M 25.15625 7.605469 C 25.15625 9.890625 24.417969 11.6875 22.949219 13 C 21.476562 14.308594 19.742188 14.960938 17.746094 14.960938 C 15.746094 14.960938 14.011719 14.308594 12.539062 13 C 11.066406 11.6875 10.332031 9.890625 10.332031 7.605469 C 10.332031 5.320312 11.066406 3.523438 12.539062 2.214844 C 14.011719 0.90625 15.746094 0.25 17.746094 0.25 C 19.742188 0.25 21.476562 0.90625 22.949219 2.214844 C 24.417969 3.523438 25.15625 5.320312 25.15625 7.605469 "/>
    <path style=" stroke:none;fill-rule:nonzero;fill:rgb(100%,87.058824%,0%);fill-opacity:1;" d="M 23.949219 20.371094 C 23.214844 19.84375 22.417969 19.425781 21.460938 19.128906 C 20.507812 18.828125 19.628906 18.675781 18.824219 18.675781 C 17.375 18.675781 16.1875 18.878906 15.253906 19.28125 C 14.324219 19.6875 13.582031 20.257812 13.03125 20.996094 C 12.476562 21.734375 12.097656 22.613281 11.890625 23.625 C 11.683594 24.644531 11.542969 25.773438 11.542969 27.019531 L 11.542969 62.363281 C 11.542969 64.589844 11.152344 66.292969 10.378906 67.460938 C 9.597656 68.632812 8.222656 69.472656 6.296875 69.21875 C 5.164062 69.066406 1.339844 68.4375 1.339844 68.4375 L 0.996094 69.402344 C -0.414062 73.125 0.234375 76.242188 2.417969 77.976562 C 4.183594 79.378906 6.890625 79.765625 9.21875 79.75 C 13.492188 79.726562 16.871094 78.355469 19.703125 75.570312 C 22.535156 72.78125 23.949219 68.492188 23.949219 62.695312 C 23.949219 62.695312 23.949219 20.574219 23.949219 20.371094 "/>
  </g>
</svg>