<?xml version="1.0" encoding="UTF-8" standalone="no"?>
<!-- Created with Inkscape (http://www.inkscape.org/) -->

<svg
   xmlns:dc="http://purl.org/dc/elements/1.1/"
   xmlns:cc="http://creativecommons.org/ns#"
   xmlns:rdf="http://www.w3.org/1999/02/22-rdf-syntax-ns#"
   xmlns:svg="http://www.w3.org/2000/svg"
   xmlns="http://www.w3.org/2000/svg"
   version="1.1"
   width="427.18109"
   height="320.9986"
   id="svg3004"
   xml:space="preserve"><metadata
     id="metadata3010"><rdf:RDF><cc:Work
         rdf:about=""><dc:format>image/svg+xml</dc:format><dc:type
           rdf:resource="http://purl.org/dc/dcmitype/StillImage" /><dc:title></dc:title></cc:Work></rdf:RDF></metadata><defs
     id="defs3008"><clipPath
       id="clipPath3018"><path
         d="m 0,595.28 841.89,0 L 841.89,0 0,0 0,595.28 z"
         id="path3020" /></clipPath></defs><g
     transform="matrix(1.25,0,0,-1.25,-312.58227,574.18462)"
     id="g3012"><g
       id="g3014"><g
         clip-path="url(#clipPath3018)"
         id="g3016"><g
           transform="translate(591.0107,331.8579)"
           id="g3022"><path
             d="m 0,0 c 0,9.661 -0.806,18.428 -2.415,26.309 -1.613,7.87 -4.568,14.67 -8.856,20.393 -4.293,5.726 -10.072,10.161 -17.314,13.293 -7.25,3.127 -16.521,4.698 -27.792,4.698 -6.267,0 -13.102,-1.169 -20.534,-3.495 -7.426,-2.325 -14.003,-5.549 -19.721,-9.653 -4.122,3.57 -9.363,6.661 -15.704,9.263 -6.36,2.588 -14.634,3.885 -24.836,3.885 -5.198,0 -10.473,-0.23 -15.84,-0.674 -5.373,-0.45 -10.605,-1.075 -15.71,-1.881 -5.097,-0.799 -9.921,-1.696 -14.489,-2.674 -4.569,-0.998 -8.554,-1.935 -11.95,-2.822 l 0,-136.369 39.998,0 0,108.988 c 2.506,0.348 5.101,0.668 7.791,0.94 2.686,0.26 5.272,0.403 7.785,0.403 8.053,0 13.734,-2.687 17.045,-8.058 3.307,-5.365 4.971,-14.498 4.971,-27.376 l -0.004,-48.107 c 0,-4.003 0.322,-7.631 0.989,-10.894 0.666,-3.258 1.892,-6.076 3.67,-8.447 1.772,-2.367 4.165,-4.207 7.166,-5.507 3.004,-1.294 6.84,-1.942 11.506,-1.942 2.598,0 5.428,0.483 8.498,1.448 3.08,0.962 5.802,2.297 8.169,3.997 0.005,0.642 0,71.591 0,71.591 0,5.188 -0.182,10.073 -0.547,14.638 -0.357,4.556 -1.152,8.9 -2.41,13.019 2.513,1.611 5.68,2.951 9.535,4.02 3.843,1.082 6.838,1.618 8.987,1.618 8.05,0 13.733,-2.687 17.054,-8.058 3.31,-5.365 4.957,-14.498 4.957,-27.376 l 0,-48.107 c 0,-4.001 0.318,-7.633 0.982,-10.898 0.671,-3.254 1.894,-6.072 3.67,-8.44 1.776,-2.373 4.17,-4.208 7.173,-5.506 2.998,-1.296 6.833,-1.946 11.505,-1.946 2.59,0 5.424,0.488 8.501,1.446 3.072,0.966 5.798,2.3 8.17,4 L 0,0 z"
             id="path3024"
             style="fill:#ffde00;fill-opacity:1;fill-rule:nonzero;stroke:none" /></g><g
           transform="translate(341.5469,393.9521)"
           id="g3026"><path
             d="m 0,0 c -0.001,-0.643 0,-141.821 0,-141.821 l 40,0 0.004,120.478 c 0,4.002 -0.343,7.632 -1.007,10.896 -0.671,3.254 -1.892,6.073 -3.667,8.442 C 33.55,0.364 31.162,2.202 28.161,3.5 25.157,4.795 21.321,5.446 16.653,5.446 14.06,5.446 11.227,4.958 8.154,3.998 5.077,3.035 2.371,1.696 0,0"
             id="path3028"
             style="fill:#ffde00;fill-opacity:1;fill-rule:nonzero;stroke:none" /></g><g
           transform="translate(385.4351,434.9307)"
           id="g3030"><path
             d="m 0,0 c 0,7.326 -2.366,13.107 -7.106,17.313 -4.742,4.196 -10.332,6.304 -16.782,6.304 -6.439,0 -12.033,-2.108 -16.769,-6.304 -4.745,-4.206 -7.115,-9.987 -7.115,-17.313 0,-7.342 2.37,-13.121 7.115,-17.322 4.736,-4.207 10.33,-6.308 16.769,-6.308 6.45,0 12.04,2.101 16.782,6.308 C -2.366,-13.121 0,-7.342 0,0"
             id="path3032"
             style="fill:#ffde00;fill-opacity:1;fill-rule:nonzero;stroke:none" /></g><g
           transform="translate(331.1338,434.9336)"
           id="g3034"><path
             d="m 0,0 c 0,-7.339 -2.375,-13.108 -7.114,-17.31 -4.74,-4.207 -10.333,-6.306 -16.77,-6.306 -6.445,0 -12.034,2.099 -16.772,6.306 -4.744,4.202 -7.113,9.971 -7.113,17.31 0,7.336 2.369,13.102 7.113,17.309 4.738,4.197 10.327,6.305 16.772,6.305 6.437,0 12.03,-2.108 16.77,-6.305 C -2.375,13.102 0,7.336 0,0"
             id="path3036"
             style="fill:#ffde00;fill-opacity:1;fill-rule:nonzero;stroke:none" /></g><g
           transform="translate(327.2466,393.9521)"
           id="g3038"><path
             d="m 0,0 c -2.372,1.696 -4.942,3.036 -8.017,3.998 -3.074,0.96 -5.905,1.446 -8.5,1.446 -4.666,0 -8.503,-0.649 -11.507,-1.946 -2.999,-1.294 -5.391,-3.134 -7.168,-5.503 -1.778,-2.369 -2.997,-5.188 -3.667,-8.44 -0.665,-3.266 -1.123,-6.895 -1.123,-10.897 l 10e-4,-113.447 c 0,-7.151 -1.254,-12.613 -3.758,-16.367 -2.509,-3.757 -6.945,-6.458 -13.149,-5.64 -3.654,0.484 -15.971,2.502 -15.971,2.502 l -1.117,-3.094 c -4.545,-11.943 -2.444,-21.958 4.586,-27.521 5.693,-4.502 14.415,-5.74 21.917,-5.693 13.776,0.081 24.666,4.474 33.785,13.415 9.125,8.949 13.685,22.725 13.685,41.33 0,0 0.005,135.213 0.003,135.857"
             id="path3040"
             style="fill:#ffde00;fill-opacity:1;fill-rule:nonzero;stroke:none" /></g></g></g></g></svg>