<?xml version="1.0" encoding="UTF-8" standalone="yes"?>
<svg xmlns="http://www.w3.org/2000/svg" xmlns:xlink="http://www.w3.org/1999/xlink" width="298.66666666666663px" height="106.66666666666666px" viewBox="0 0 224 80" version="1.1">
  <g id="surface1">
    <path style=" stroke:none;fill-rule:nonzero;fill:rgb(90.196078%,20.392157%,20.392157%);fill-opacity:1;" d="M 150.644531 60.929688 C 150.644531 71.660156 158.769531 79.515625 172.097656 79.515625 C 185.425781 79.515625 193.550781 71.660156 193.550781 60.929688 C 193.550781 50.203125 185.710938 42.347656 172.097656 42.347656 C 158.484375 42.347656 150.644531 50.203125 150.644531 60.929688 Z M 172.097656 55.773438 C 174.832031 55.773438 177.046875 58.082031 177.046875 60.929688 C 177.046875 63.78125 174.832031 66.089844 172.097656 66.089844 C 169.363281 66.089844 167.148438 63.78125 167.148438 60.929688 C 167.148438 58.082031 169.363281 55.773438 172.097656 55.773438 Z M 172.097656 55.773438 "/>
    <path style=" stroke:none;fill-rule:nonzero;fill:rgb(90.196078%,20.392157%,20.392157%);fill-opacity:1;" d="M 223.253906 42.496094 C 223.253906 42.496094 219.054688 42.003906 215.796875 43.886719 C 212.886719 45.570312 211.992188 46.773438 211.410156 48.945312 L 211.410156 43.324219 L 194.328125 43.324219 L 194.328125 78.929688 L 211.410156 78.929688 L 211.410156 67.199219 C 211.410156 60 214.621094 57.578125 217.925781 57.578125 C 221.015625 57.578125 223.253906 58.90625 223.253906 58.90625 Z M 223.253906 42.496094 "/>
    <path style=" stroke:none;fill-rule:nonzero;fill:rgb(90.196078%,20.392157%,20.392157%);fill-opacity:1;" d="M 120.359375 42.351562 C 116.136719 42.351562 113.949219 43.324219 113.949219 43.324219 C 111.296875 45.335938 109.34375 47.328125 107.933594 49.246094 L 107.933594 43.324219 L 90.847656 43.324219 L 90.847656 78.929688 L 108.078125 78.929688 C 108.078125 78.929688 108.078125 67.21875 108.078125 63.535156 C 108.078125 59.855469 109.226562 58.867188 111.039062 58.84375 C 112.851562 58.816406 113.949219 59.867188 113.949219 63.410156 C 113.949219 66.957031 113.949219 78.929688 113.949219 78.929688 L 131.035156 78.929688 L 131.035156 54.609375 C 131.425781 47.019531 124.585938 42.351562 120.359375 42.351562 Z M 120.359375 42.351562 "/>
    <path style=" stroke:none;fill-rule:nonzero;fill:rgb(90.196078%,20.392157%,20.392157%);fill-opacity:1;" d="M 132.398438 52.273438 L 132.398438 78.929688 L 149.476562 78.929688 L 149.476562 52.273438 Z M 132.398438 52.273438 "/>
    <path style=" stroke:none;fill-rule:nonzero;fill:rgb(15.686275%,15.686275%,15.686275%);fill-opacity:1;" d="M 132.398438 43.324219 L 132.398438 52.273438 L 149.476562 52.273438 L 149.476562 43.324219 Z M 132.398438 43.324219 "/>
    <path style=" stroke:none;fill-rule:nonzero;fill:rgb(100%,90.196078%,34.509804%);fill-opacity:1;" d="M 139.382812 56.648438 C 139.382812 57.5625 138.601562 58.304688 137.636719 58.304688 C 136.671875 58.304688 135.890625 57.5625 135.890625 56.648438 C 135.890625 55.738281 136.671875 54.996094 137.636719 54.996094 C 138.601562 54.996094 139.382812 55.738281 139.382812 56.648438 Z M 139.382812 56.648438 "/>
    <path style=" stroke:none;fill-rule:nonzero;fill:rgb(100%,90.196078%,34.509804%);fill-opacity:1;" d="M 146.761719 56.648438 C 146.761719 57.5625 145.980469 58.304688 145.015625 58.304688 C 144.050781 58.304688 143.265625 57.5625 143.265625 56.648438 C 143.265625 55.738281 144.050781 54.996094 145.015625 54.996094 C 145.980469 54.996094 146.761719 55.738281 146.761719 56.648438 Z M 146.761719 56.648438 "/>
    <path style=" stroke:none;fill-rule:nonzero;fill:rgb(90.196078%,20.392157%,20.392157%);fill-opacity:1;" d="M 49.050781 43.042969 L 49.050781 63.410156 C 49.050781 73.023438 56.773438 79.625 69.316406 79.625 C 81.859375 79.625 89.582031 73.023438 89.582031 63.410156 L 89.582031 43.042969 L 72.277344 43.042969 L 72.277344 61.515625 C 72.277344 62.976562 71.101562 64.152344 69.316406 64.152344 C 67.53125 64.152344 66.359375 62.976562 66.359375 61.515625 L 66.359375 43.042969 Z M 49.050781 43.042969 "/>
    <path style=" stroke:none;fill-rule:nonzero;fill:rgb(90.196078%,20.392157%,20.392157%);fill-opacity:1;" d="M 11.472656 73.175781 C 12.898438 75.035156 17.46875 79.625 26.90625 79.625 C 40.042969 79.625 47.175781 73.023438 47.175781 63.410156 L 47.175781 28.585938 C 40.863281 34.910156 36.890625 35.625 29.203125 35.625 L 29.203125 55.46875 C 29.203125 61.902344 25.941406 61.679688 24.15625 61.679688 C 22.371094 61.679688 19.488281 59.839844 19.488281 58.378906 Z M 11.472656 73.175781 "/>
    <path style=" stroke:none;fill-rule:nonzero;fill:rgb(15.686275%,15.686275%,15.686275%);fill-opacity:1;" d="M 61.902344 7.785156 C 62.570312 7.785156 62.957031 7.902344 63.054688 8.136719 C 63.15625 8.371094 63.207031 8.667969 63.207031 9.035156 C 63.207031 9.804688 62.929688 10.480469 62.378906 11.066406 C 61.828125 11.648438 61.152344 12.140625 60.351562 12.539062 C 59.550781 12.941406 58.71875 13.25 57.851562 13.46875 C 56.984375 13.683594 56.230469 13.792969 55.597656 13.792969 L 54.496094 13.792969 C 54.429688 13.792969 54.347656 13.742188 54.246094 13.640625 C 54.144531 13.539062 54.097656 13.460938 54.097656 13.394531 C 54.597656 12.695312 55.152344 12.007812 55.769531 11.339844 C 56.386719 10.671875 57.03125 10.070312 57.699219 9.535156 C 58.363281 9.003906 59.054688 8.578125 59.753906 8.261719 C 60.453125 7.945312 61.167969 7.785156 61.902344 7.785156 Z M 55.34375 7.285156 C 55.410156 7.351562 55.449219 7.433594 55.449219 7.535156 L 55.449219 7.585938 C 55.148438 7.851562 54.804688 8.167969 54.417969 8.535156 C 54.035156 8.902344 53.664062 9.277344 53.296875 9.660156 C 52.929688 10.042969 52.589844 10.402344 52.269531 10.738281 C 51.953125 11.070312 51.710938 11.355469 51.542969 11.589844 C 51.476562 11.65625 51.394531 11.691406 51.292969 11.691406 C 51.226562 11.691406 51.160156 11.65625 51.09375 11.589844 C 51.191406 10.621094 51.609375 9.730469 52.34375 8.910156 C 53.078125 8.09375 54.078125 7.554688 55.34375 7.285156 Z M 58.347656 3.878906 C 57.148438 3.878906 55.972656 4.128906 54.820312 4.628906 C 53.671875 5.128906 52.636719 5.757812 51.71875 6.507812 C 50.800781 7.257812 50.058594 8.085938 49.492188 8.988281 C 48.921875 9.890625 48.640625 10.753906 48.640625 11.589844 C 48.640625 12.15625 48.765625 12.671875 49.015625 13.140625 C 49.265625 13.609375 49.574219 14.09375 49.941406 14.59375 C 49.90625 14.726562 49.875 14.871094 49.839844 15.019531 C 49.808594 15.171875 49.792969 15.308594 49.792969 15.445312 C 49.859375 16.011719 50.015625 16.5 50.265625 16.898438 C 50.515625 17.300781 50.777344 17.53125 51.042969 17.597656 C 51.410156 17.53125 51.683594 17.382812 51.867188 17.148438 C 52.050781 16.914062 52.277344 16.632812 52.542969 16.296875 C 53.011719 16.464844 53.53125 16.578125 54.097656 16.644531 C 54.664062 16.710938 55.195312 16.746094 55.699219 16.746094 C 56.53125 16.746094 57.515625 16.496094 58.652344 15.996094 C 59.785156 15.496094 60.867188 14.851562 61.902344 14.070312 C 62.9375 13.285156 63.816406 12.398438 64.53125 11.414062 C 65.25 10.429688 65.605469 9.453125 65.605469 8.484375 C 65.605469 8.015625 65.496094 7.621094 65.28125 7.285156 C 65.0625 6.953125 64.804688 6.664062 64.503906 6.429688 C 64.203125 6.199219 63.894531 6.03125 63.578125 5.929688 C 63.261719 5.832031 63.007812 5.78125 62.808594 5.78125 C 62.738281 5.78125 62.695312 5.789062 62.679688 5.804688 C 62.660156 5.824219 62.640625 5.835938 62.605469 5.835938 C 62.4375 5.265625 61.960938 4.796875 61.175781 4.429688 C 60.394531 4.0625 59.449219 3.878906 58.347656 3.878906 Z M 58.347656 3.878906 "/>
    <path style=" stroke:none;fill-rule:nonzero;fill:rgb(15.686275%,15.686275%,15.686275%);fill-opacity:1;" d="M 87.144531 16.894531 C 86.914062 16.894531 86.773438 17.023438 86.722656 17.273438 C 86.671875 17.523438 86.648438 17.75 86.648438 17.953125 L 86.648438 18.148438 L 86.796875 18.75 C 87.097656 19.917969 87.382812 20.917969 87.648438 21.753906 C 87.914062 22.589844 88.148438 23.382812 88.347656 24.132812 C 88.550781 24.882812 88.707031 25.671875 88.824219 26.488281 C 88.941406 27.304688 89 28.28125 89 29.414062 C 89 29.847656 88.992188 30.175781 88.976562 30.390625 C 88.960938 30.609375 88.867188 30.71875 88.699219 30.71875 C 88.734375 30.71875 88.617188 30.582031 88.347656 30.316406 C 87.683594 29.480469 87.003906 28.511719 86.320312 27.410156 C 85.636719 26.308594 84.980469 25.265625 84.347656 24.28125 C 83.710938 23.296875 83.117188 22.460938 82.566406 21.777344 C 82.015625 21.09375 81.558594 20.753906 81.191406 20.753906 C 80.824219 20.753906 80.492188 20.988281 80.191406 21.457031 C 79.890625 21.921875 79.605469 22.523438 79.335938 23.257812 C 79.070312 23.992188 78.835938 24.800781 78.636719 25.683594 C 78.4375 26.570312 78.273438 27.453125 78.136719 28.339844 C 78.003906 29.222656 77.902344 30.039062 77.835938 30.789062 C 77.769531 31.542969 77.734375 32.132812 77.734375 32.570312 C 77.734375 32.867188 77.761719 33.246094 77.8125 33.699219 C 77.863281 34.148438 77.964844 34.578125 78.113281 34.996094 C 78.265625 35.414062 78.464844 35.773438 78.714844 36.074219 C 78.964844 36.371094 79.292969 36.523438 79.691406 36.523438 C 79.957031 36.523438 80.183594 36.433594 80.367188 36.25 C 80.550781 36.066406 80.691406 35.847656 80.789062 35.597656 C 80.890625 35.347656 80.972656 35.089844 81.039062 34.824219 C 81.105469 34.554688 81.160156 34.335938 81.191406 34.167969 C 81.257812 33.769531 81.316406 33.195312 81.363281 32.445312 C 81.414062 31.691406 81.457031 30.917969 81.488281 30.117188 C 81.523438 29.316406 81.554688 28.597656 81.589844 27.964844 C 81.625 27.328125 81.65625 26.929688 81.691406 26.761719 C 81.789062 26.394531 81.90625 26.210938 82.039062 26.210938 C 82.140625 26.210938 82.316406 26.445312 82.566406 26.910156 C 82.816406 27.378906 83.113281 27.953125 83.445312 28.636719 C 83.777344 29.320312 84.140625 30.066406 84.542969 30.867188 C 84.945312 31.667969 85.371094 32.414062 85.824219 33.097656 C 86.273438 33.78125 86.746094 34.355469 87.246094 34.824219 C 87.746094 35.289062 88.230469 35.523438 88.699219 35.523438 C 89.300781 35.523438 89.839844 35.316406 90.324219 34.898438 C 90.808594 34.480469 91.21875 33.945312 91.550781 33.292969 C 91.886719 32.644531 92.136719 31.925781 92.304688 31.140625 C 92.46875 30.355469 92.554688 29.582031 92.554688 28.816406 C 92.554688 27.078125 92.335938 25.476562 91.902344 24.007812 C 91.46875 22.539062 90.960938 21.277344 90.375 20.226562 C 89.792969 19.175781 89.191406 18.359375 88.574219 17.773438 C 87.957031 17.191406 87.480469 16.894531 87.144531 16.894531 Z M 87.144531 16.894531 "/>
    <path style=" stroke:none;fill-rule:nonzero;fill:rgb(15.686275%,15.686275%,15.686275%);fill-opacity:1;" d="M 69.507812 19.453125 C 69.441406 19.453125 69.148438 19.46875 68.632812 19.5 C 68.113281 19.53125 67.480469 19.609375 66.730469 19.726562 C 65.976562 19.84375 65.1875 20.007812 64.351562 20.226562 C 63.519531 20.441406 62.742188 20.734375 62.027344 21.101562 C 61.308594 21.46875 60.714844 21.9375 60.25 22.503906 C 59.78125 23.070312 59.546875 23.738281 59.546875 24.507812 C 59.546875 25.042969 59.617188 25.484375 59.75 25.835938 C 59.882812 26.1875 60.171875 26.46875 60.621094 26.683594 C 61.074219 26.902344 61.734375 27.0625 62.601562 27.160156 C 63.46875 27.261719 64.617188 27.328125 66.054688 27.363281 C 66.589844 27.363281 67.269531 27.417969 68.105469 27.535156 C 68.9375 27.652344 69.757812 27.8125 70.558594 28.011719 C 71.359375 28.210938 72.042969 28.472656 72.609375 28.789062 C 73.179688 29.105469 73.464844 29.480469 73.464844 29.914062 C 73.464844 30.382812 73.09375 30.785156 72.363281 31.117188 C 71.628906 31.449219 70.800781 31.726562 69.882812 31.945312 C 68.964844 32.160156 68.082031 32.320312 67.230469 32.417969 C 66.382812 32.519531 65.835938 32.570312 65.601562 32.570312 C 65.136719 32.570312 64.671875 32.5625 64.203125 32.542969 C 63.734375 32.527344 63.300781 32.484375 62.898438 32.417969 C 62.5 32.351562 62.175781 32.226562 61.925781 32.042969 C 61.675781 31.859375 61.546875 31.617188 61.546875 31.320312 C 61.546875 30.75 61.714844 30.398438 62.050781 30.265625 C 62.382812 30.132812 62.734375 30.066406 63.101562 30.066406 C 63.601562 30.066406 64.09375 30.132812 64.578125 30.265625 C 65.0625 30.398438 65.539062 30.542969 66.003906 30.695312 C 66.472656 30.84375 66.910156 30.976562 67.328125 31.09375 C 67.746094 31.210938 68.140625 31.265625 68.507812 31.265625 C 69.140625 31.265625 69.722656 31.148438 70.257812 30.914062 C 70.792969 30.679688 71.160156 30.46875 71.359375 30.265625 C 71.425781 30.199219 71.460938 30.101562 71.460938 29.96875 C 71.460938 29.902344 71.425781 29.832031 71.359375 29.765625 C 70.324219 29.230469 69.230469 28.839844 68.082031 28.589844 C 66.929688 28.339844 65.871094 28.214844 64.902344 28.214844 C 64.402344 28.214844 63.882812 28.261719 63.351562 28.363281 C 62.816406 28.464844 62.324219 28.628906 61.875 28.863281 C 61.421875 29.097656 61.058594 29.414062 60.773438 29.816406 C 60.492188 30.214844 60.347656 30.71875 60.347656 31.320312 C 60.347656 31.820312 60.566406 32.351562 61 32.917969 C 61.433594 33.488281 62.015625 34.003906 62.75 34.472656 C 63.484375 34.9375 64.332031 35.324219 65.300781 35.625 C 66.269531 35.925781 67.289062 36.078125 68.359375 36.078125 C 68.757812 36.078125 69.375 36.035156 70.210938 35.953125 C 71.042969 35.867188 71.886719 35.632812 72.734375 35.25 C 73.585938 34.867188 74.335938 34.296875 74.988281 33.542969 C 75.640625 32.792969 75.964844 31.734375 75.964844 30.367188 C 75.964844 29.199219 75.679688 28.289062 75.113281 27.636719 C 74.546875 26.984375 73.847656 26.503906 73.011719 26.183594 C 72.179688 25.867188 71.257812 25.667969 70.257812 25.585938 C 69.257812 25.5 68.339844 25.425781 67.503906 25.359375 C 66.503906 25.292969 65.636719 25.195312 64.902344 25.058594 C 64.167969 24.925781 63.316406 24.675781 62.347656 24.304688 C 62.28125 24.304688 62.25 24.277344 62.25 24.210938 C 62.25 24.140625 62.28125 24.074219 62.347656 24.007812 C 62.617188 23.84375 62.949219 23.710938 63.351562 23.609375 C 63.75 23.507812 64.371094 23.390625 65.203125 23.257812 C 65.605469 23.191406 66.1875 23.125 66.953125 23.054688 C 67.722656 22.988281 68.535156 22.921875 69.382812 22.855469 C 70.234375 22.789062 71.058594 22.730469 71.859375 22.679688 C 72.660156 22.632812 73.28125 22.570312 73.714844 22.503906 C 73.914062 22.472656 74.1875 22.429688 74.539062 22.378906 C 74.890625 22.328125 75.164062 22.273438 75.363281 22.207031 C 75.628906 22.105469 75.875 21.960938 76.089844 21.777344 C 76.308594 21.59375 76.429688 21.351562 76.464844 21.050781 C 76.464844 20.785156 76.417969 20.605469 76.316406 20.503906 C 76.214844 20.402344 76.078125 20.335938 75.914062 20.300781 C 75.078125 20.101562 74.121094 19.910156 73.039062 19.726562 C 71.953125 19.542969 70.777344 19.453125 69.507812 19.453125 Z M 69.507812 19.453125 "/>
    <path style=" stroke:none;fill-rule:nonzero;fill:rgb(15.686275%,15.686275%,15.686275%);fill-opacity:1;" d="M 53.894531 19.601562 C 53.730469 19.601562 53.625 19.71875 53.59375 19.953125 C 53.261719 22.488281 53.042969 24.449219 52.941406 25.835938 C 52.84375 27.21875 52.777344 28.097656 52.746094 28.464844 C 52.710938 29.132812 52.6875 29.65625 52.667969 30.039062 C 52.652344 30.425781 52.636719 30.785156 52.621094 31.117188 C 52.605469 31.449219 52.59375 31.816406 52.59375 32.21875 C 52.59375 32.585938 52.59375 33.089844 52.59375 33.722656 C 52.59375 33.855469 52.617188 34.054688 52.667969 34.324219 C 52.71875 34.589844 52.789062 34.867188 52.871094 35.148438 C 52.953125 35.433594 53.050781 35.699219 53.167969 35.949219 C 53.285156 36.199219 53.425781 36.339844 53.59375 36.375 C 53.792969 36.441406 54.027344 36.511719 54.292969 36.578125 C 54.5625 36.644531 54.796875 36.671875 55 36.671875 C 55.632812 36.671875 56.050781 36.484375 56.25 36.101562 C 56.449219 35.714844 56.546875 35.324219 56.546875 34.921875 C 56.546875 32.921875 56.484375 30.875 56.351562 28.789062 C 56.214844 26.703125 56.117188 24.640625 56.046875 22.605469 C 55.980469 21.636719 55.832031 20.902344 55.597656 20.402344 C 55.363281 19.902344 54.796875 19.632812 53.894531 19.601562 Z M 53.894531 19.601562 "/>
    <path style=" stroke:none;fill-rule:nonzero;fill:rgb(15.686275%,15.686275%,15.686275%);fill-opacity:1;" d="M 104.765625 19.652344 C 103.730469 19.652344 102.800781 19.703125 101.964844 19.800781 C 101.132812 19.902344 100.371094 20.011719 99.6875 20.128906 C 99 20.246094 98.371094 20.351562 97.785156 20.453125 C 97.203125 20.550781 96.644531 20.621094 96.109375 20.652344 C 95.675781 20.6875 95.347656 20.753906 95.132812 20.855469 C 94.914062 20.953125 94.804688 21.136719 94.804688 21.402344 C 94.804688 21.671875 94.898438 21.910156 95.082031 22.128906 C 95.265625 22.347656 95.5 22.546875 95.785156 22.730469 C 96.066406 22.914062 96.375 23.078125 96.707031 23.230469 C 97.042969 23.378906 97.363281 23.523438 97.660156 23.65625 L 96.460938 26.410156 C 96.226562 26.445312 96 26.5 95.785156 26.585938 C 95.566406 26.667969 95.355469 26.746094 95.15625 26.808594 C 95.089844 27.011719 95.03125 27.175781 94.984375 27.308594 C 94.933594 27.445312 94.90625 27.613281 94.90625 27.816406 C 94.90625 28.082031 94.960938 28.296875 95.058594 28.464844 C 95.160156 28.628906 95.242188 28.847656 95.308594 29.113281 C 95.042969 29.878906 94.769531 30.640625 94.484375 31.390625 C 94.199219 32.140625 94.058594 32.804688 94.058594 33.371094 C 94.058594 34.441406 94.371094 35.40625 95.007812 36.273438 C 95.640625 37.140625 96.660156 37.578125 98.058594 37.578125 C 98.894531 37.578125 99.695312 37.453125 100.460938 37.203125 C 101.230469 36.949219 101.953125 36.640625 102.636719 36.273438 C 103.324219 35.90625 103.933594 35.53125 104.46875 35.148438 C 105.003906 34.765625 105.433594 34.4375 105.769531 34.167969 C 105.96875 34.035156 106.070312 33.785156 106.070312 33.417969 C 106.070312 33.085938 105.933594 32.753906 105.667969 32.417969 C 105.402344 32.085938 105.117188 31.917969 104.820312 31.917969 C 104.550781 31.917969 104.273438 31.925781 103.988281 31.945312 C 103.707031 31.960938 103.433594 31.984375 103.164062 32.015625 C 101.5625 32.183594 100.304688 32.359375 99.386719 32.542969 C 98.46875 32.726562 97.945312 32.820312 97.8125 32.820312 C 98.078125 32.25 98.3125 31.683594 98.511719 31.117188 C 98.710938 30.550781 98.875 29.996094 99.011719 29.464844 C 99.078125 29.332031 99.179688 29.265625 99.3125 29.265625 C 100.578125 29.265625 101.722656 29.246094 102.738281 29.214844 C 103.757812 29.179688 104.5 29.148438 104.96875 29.113281 C 105.199219 29.078125 105.351562 28.921875 105.417969 28.636719 C 105.484375 28.351562 105.519531 28.113281 105.519531 27.910156 C 105.519531 27.679688 105.5 27.421875 105.464844 27.136719 C 105.433594 26.851562 105.351562 26.625 105.21875 26.460938 L 104.515625 26.363281 L 100.8125 26.363281 C 100.644531 26.363281 100.527344 26.300781 100.460938 26.183594 C 100.394531 26.066406 100.363281 25.957031 100.363281 25.859375 C 100.363281 25.222656 100.4375 24.742188 100.585938 24.40625 C 100.738281 24.074219 100.863281 23.859375 100.964844 23.757812 C 101.132812 23.722656 101.378906 23.707031 101.714844 23.707031 C 102.046875 23.707031 102.347656 23.699219 102.613281 23.679688 C 102.882812 23.664062 103.148438 23.65625 103.414062 23.65625 C 103.683594 23.65625 104 23.648438 104.367188 23.632812 C 104.734375 23.617188 105.1875 23.589844 105.71875 23.554688 C 105.953125 23.554688 106.226562 23.515625 106.542969 23.429688 C 106.863281 23.347656 107.15625 23.257812 107.421875 23.15625 C 107.6875 23.058594 107.921875 22.949219 108.121094 22.832031 C 108.320312 22.714844 108.421875 22.589844 108.421875 22.457031 C 108.421875 22.023438 108.214844 21.574219 107.796875 21.105469 C 107.378906 20.636719 107.050781 20.265625 106.820312 20 C 106.285156 19.832031 105.867188 19.734375 105.566406 19.703125 C 105.265625 19.667969 105 19.652344 104.765625 19.652344 Z M 104.765625 19.652344 "/>
    <path style=" stroke:none;fill-rule:nonzero;fill:rgb(15.686275%,15.686275%,15.686275%);fill-opacity:1;" d="M 18.863281 23.554688 L 19.414062 23.554688 L 18.964844 33.269531 C 17.796875 33.003906 16.648438 32.601562 15.53125 32.070312 C 14.414062 31.535156 13.457031 30.933594 12.65625 30.265625 C 12.289062 30 11.898438 29.695312 11.480469 29.363281 C 11.066406 29.027344 10.664062 28.6875 10.277344 28.339844 C 9.894531 27.988281 9.578125 27.628906 9.328125 27.261719 C 9.078125 26.894531 8.957031 26.542969 8.957031 26.210938 C 8.957031 25.777344 9.269531 25.417969 9.90625 25.132812 C 10.539062 24.847656 11.339844 24.609375 12.304688 24.40625 C 13.273438 24.207031 14.339844 24.046875 15.507812 23.929688 C 16.675781 23.816406 17.796875 23.691406 18.863281 23.554688 Z M 12.304688 0.375 C 11.738281 0.375 11.054688 0.382812 10.253906 0.398438 C 9.453125 0.417969 8.628906 0.476562 7.777344 0.578125 C 6.925781 0.675781 6.078125 0.832031 5.226562 1.046875 C 4.375 1.265625 3.625 1.554688 2.972656 1.902344 C 2.324219 2.253906 1.789062 2.695312 1.371094 3.230469 C 0.953125 3.765625 0.746094 4.414062 0.746094 5.179688 C 0.746094 5.515625 1.003906 5.730469 1.519531 5.832031 C 2.039062 5.929688 2.578125 5.984375 3.144531 5.984375 C 3.414062 5.984375 3.65625 5.972656 3.875 5.957031 C 4.089844 5.9375 4.25 5.929688 4.347656 5.929688 C 4.480469 5.796875 4.550781 5.664062 4.550781 5.53125 C 4.550781 5.363281 4.464844 5.234375 4.296875 5.132812 C 4.230469 5.097656 4.097656 5.066406 3.898438 5.03125 C 3.699219 5 3.488281 4.957031 3.269531 4.90625 C 3.054688 4.855469 2.855469 4.796875 2.671875 4.730469 C 2.488281 4.664062 2.398438 4.578125 2.398438 4.480469 C 2.398438 4.246094 2.78125 4.046875 3.546875 3.878906 C 4.214844 3.710938 4.898438 3.59375 5.601562 3.527344 C 6.300781 3.460938 6.984375 3.425781 7.652344 3.425781 C 10.957031 3.425781 14.050781 3.714844 16.9375 4.28125 C 19.824219 4.851562 22.75 5.699219 25.71875 6.835938 C 27.121094 7.367188 28.582031 8.003906 30.101562 8.738281 C 31.617188 9.472656 33.101562 10.289062 34.554688 11.191406 C 36.003906 12.089844 37.390625 13.078125 38.710938 14.144531 C 40.027344 15.214844 41.179688 16.355469 42.164062 17.574219 C 43.148438 18.789062 43.929688 20.074219 44.515625 21.425781 C 45.097656 22.777344 45.390625 24.191406 45.390625 25.660156 C 45.390625 27.164062 45.097656 28.441406 44.515625 29.492188 C 43.929688 30.542969 43.164062 31.433594 42.214844 32.167969 C 41.261719 32.902344 40.183594 33.488281 38.984375 33.921875 C 37.78125 34.355469 36.558594 34.699219 35.304688 34.949219 C 34.054688 35.199219 32.824219 35.355469 31.625 35.421875 C 30.421875 35.488281 29.375 35.523438 28.476562 35.523438 C 27.839844 35.523438 27.082031 35.464844 26.199219 35.347656 C 25.3125 35.230469 24.46875 34.925781 23.667969 34.421875 L 23.617188 23.605469 C 23.820312 23.539062 24.003906 23.488281 24.171875 23.457031 C 24.335938 23.421875 24.585938 23.40625 24.917969 23.40625 C 25.917969 23.40625 26.972656 23.488281 28.074219 23.65625 C 29.171875 23.824219 30.21875 24.03125 31.203125 24.28125 C 32.1875 24.53125 33.042969 24.808594 33.777344 25.109375 C 34.511719 25.410156 35.015625 25.707031 35.28125 26.007812 C 35.113281 26.34375 34.808594 26.691406 34.355469 27.058594 C 33.90625 27.425781 33.496094 27.828125 33.128906 28.261719 C 33.394531 28.460938 33.753906 28.621094 34.203125 28.738281 C 34.652344 28.855469 35.03125 28.914062 35.328125 28.914062 C 35.761719 28.914062 36.179688 28.789062 36.582031 28.539062 C 36.980469 28.289062 37.351562 27.988281 37.683594 27.636719 C 38.015625 27.285156 38.285156 26.914062 38.484375 26.511719 C 38.683594 26.113281 38.785156 25.761719 38.785156 25.460938 C 38.785156 24.625 38.519531 23.894531 37.984375 23.257812 C 37.453125 22.625 36.75 22.085938 35.882812 21.652344 C 35.011719 21.21875 34.046875 20.859375 32.980469 20.578125 C 31.914062 20.292969 30.851562 20.078125 29.796875 19.925781 C 28.746094 19.777344 27.753906 19.667969 26.820312 19.601562 C 25.886719 19.535156 25.136719 19.5 24.570312 19.5 L 23.867188 19.5 C 23.800781 18.933594 23.753906 18.390625 23.71875 17.875 C 23.6875 17.359375 23.652344 16.847656 23.617188 16.347656 C 23.585938 15.78125 23.535156 15.246094 23.46875 14.746094 C 23.402344 14.246094 23.292969 13.785156 23.144531 13.367188 C 22.992188 12.949219 22.785156 12.542969 22.515625 12.140625 C 22.25 11.742188 21.882812 11.355469 21.414062 10.988281 C 21.113281 11.253906 20.867188 11.730469 20.667969 12.414062 C 20.464844 13.097656 20.296875 13.824219 20.164062 14.59375 C 20.03125 15.359375 19.925781 16.0625 19.839844 16.699219 C 19.757812 17.332031 19.710938 17.71875 19.710938 17.851562 L 19.613281 19.898438 C 17.144531 20.332031 15.109375 20.820312 13.507812 21.355469 C 11.90625 21.890625 10.519531 22.585938 9.351562 23.457031 C 8.25 24.222656 7.699219 24.992188 7.699219 25.757812 C 7.699219 26.527344 7.964844 27.296875 8.5 28.066406 C 9.035156 28.832031 9.585938 29.515625 10.152344 30.117188 C 10.820312 30.886719 11.886719 31.816406 13.355469 32.917969 C 14.824219 34.019531 16.710938 35.238281 19.011719 36.574219 C 19.179688 37.339844 19.347656 38.070312 19.515625 38.753906 C 19.683594 39.4375 19.949219 40.011719 20.316406 40.480469 L 21.464844 40.582031 C 21.800781 40.582031 22.101562 40.566406 22.367188 40.53125 C 22.636719 40.5 22.917969 40.445312 23.214844 40.378906 C 23.382812 39.8125 23.511719 39.390625 23.59375 39.105469 C 23.679688 38.820312 23.753906 38.546875 23.820312 38.277344 C 24.953125 38.445312 26.164062 38.609375 27.449219 38.777344 C 28.734375 38.945312 29.957031 39.027344 31.125 39.027344 C 33.394531 39.027344 35.65625 38.753906 37.910156 38.203125 C 40.160156 37.652344 42.1875 36.816406 43.992188 35.699219 C 45.792969 34.578125 47.25 33.179688 48.367188 31.492188 C 49.484375 29.804688 50.046875 27.828125 50.046875 25.558594 C 50.046875 23.859375 49.664062 22.1875 48.894531 20.550781 C 48.128906 18.917969 47.109375 17.355469 45.84375 15.871094 C 44.574219 14.386719 43.136719 12.992188 41.539062 11.691406 C 39.9375 10.386719 38.300781 9.214844 36.632812 8.160156 C 34.964844 7.109375 33.328125 6.191406 31.726562 5.40625 C 30.125 4.621094 28.707031 3.996094 27.472656 3.527344 C 25.003906 2.660156 22.425781 1.917969 19.742188 1.300781 C 17.054688 0.683594 14.574219 0.375 12.304688 0.375 Z M 12.304688 0.375 "/>
    <path style=" stroke:none;fill-rule:nonzero;fill:rgb(15.686275%,15.686275%,15.686275%);fill-opacity:1;" d="M 122.96875 24.257812 C 123.304688 24.257812 123.496094 24.425781 123.546875 24.757812 C 123.597656 25.09375 123.621094 25.394531 123.621094 25.660156 C 123.621094 27.699219 122.90625 29.328125 121.46875 30.566406 C 119.933594 31.898438 118.300781 32.671875 116.566406 32.871094 C 116.664062 32.671875 116.839844 32.3125 117.089844 31.792969 C 117.339844 31.277344 117.625 30.726562 117.941406 30.140625 C 118.257812 29.558594 118.558594 29.011719 118.84375 28.511719 C 119.125 28.011719 119.332031 27.660156 119.464844 27.460938 C 119.667969 27.226562 119.917969 26.925781 120.21875 26.558594 C 120.519531 26.191406 120.835938 25.839844 121.167969 25.507812 C 121.5 25.175781 121.835938 24.882812 122.171875 24.632812 C 122.503906 24.382812 122.769531 24.257812 122.96875 24.257812 Z M 115.613281 19.148438 C 115.347656 19.183594 114.886719 19.554688 114.238281 20.253906 C 113.585938 20.953125 112.917969 21.847656 112.234375 22.929688 C 111.550781 24.015625 110.941406 25.226562 110.40625 26.558594 C 109.871094 27.894531 109.605469 29.214844 109.605469 30.515625 C 109.605469 31.117188 109.6875 31.726562 109.855469 32.34375 C 110.023438 32.960938 110.242188 33.570312 110.507812 34.167969 C 109.808594 35.839844 109.226562 37.417969 108.757812 38.902344 C 108.289062 40.386719 107.921875 41.707031 107.65625 42.859375 C 107.386719 44.011719 107.195312 44.96875 107.078125 45.738281 C 106.964844 46.503906 106.90625 47.007812 106.90625 47.242188 C 106.90625 48.308594 107.214844 49.214844 107.832031 49.96875 C 108.449219 50.71875 109.257812 51.144531 110.257812 51.246094 L 110.40625 50.84375 C 110.742188 49.507812 111.027344 48.316406 111.261719 47.265625 C 111.492188 46.214844 111.734375 45.1875 111.984375 44.183594 C 112.234375 43.183594 112.519531 42.140625 112.835938 41.054688 C 113.152344 39.972656 113.558594 38.710938 114.058594 37.273438 C 114.261719 37.242188 114.457031 37.21875 114.640625 37.203125 C 114.824219 37.183594 114.996094 37.171875 115.160156 37.171875 C 115.996094 37.171875 117.035156 36.925781 118.269531 36.421875 C 119.503906 35.921875 120.683594 35.222656 121.820312 34.324219 C 122.953125 33.421875 123.925781 32.351562 124.726562 31.117188 C 125.523438 29.882812 125.921875 28.53125 125.921875 27.058594 C 125.921875 26.558594 125.875 25.957031 125.773438 25.257812 C 125.675781 24.558594 125.503906 23.886719 125.273438 23.234375 C 125.039062 22.582031 124.707031 22.019531 124.273438 21.550781 C 123.839844 21.085938 123.304688 20.855469 122.671875 20.855469 C 122.039062 20.855469 121.277344 21.1875 120.390625 21.855469 C 119.507812 22.523438 118.597656 23.332031 117.664062 24.28125 C 116.730469 25.234375 115.828125 26.234375 114.960938 27.285156 C 114.09375 28.335938 113.359375 29.265625 112.761719 30.066406 C 112.660156 30.199219 112.59375 30.265625 112.558594 30.265625 L 112.457031 30.265625 C 112.390625 30.199219 112.351562 30.109375 112.332031 29.992188 C 112.316406 29.875 112.308594 29.765625 112.308594 29.664062 C 112.308594 28.765625 112.535156 27.847656 112.984375 26.910156 C 113.4375 25.976562 113.859375 25.191406 114.261719 24.554688 C 115.027344 23.386719 115.582031 22.558594 115.914062 22.054688 C 116.25 21.554688 116.414062 21.054688 116.414062 20.550781 C 116.414062 20.085938 116.371094 19.753906 116.289062 19.550781 C 116.203125 19.351562 115.980469 19.214844 115.613281 19.148438 Z M 115.613281 19.148438 "/>
    <path style=" stroke:none;fill-rule:nonzero;fill:rgb(15.686275%,15.686275%,15.686275%);fill-opacity:1;" d="M 134.148438 17.078125 C 131.453125 17.214844 129.3125 19.453125 129.3125 22.191406 C 129.3125 25.011719 131.59375 27.292969 134.410156 27.292969 C 134.804688 27.292969 135.179688 27.25 135.546875 27.164062 C 133.871094 28.558594 132.804688 30.660156 132.804688 33.011719 C 132.804688 37.210938 136.195312 40.609375 140.382812 40.609375 C 144.570312 40.609375 147.960938 37.210938 147.960938 33.011719 C 147.960938 31.871094 147.710938 30.789062 147.261719 29.820312 C 148.019531 30.265625 148.902344 30.519531 149.84375 30.519531 C 152.660156 30.519531 154.945312 28.230469 154.945312 25.40625 C 154.945312 22.585938 152.660156 20.300781 149.84375 20.300781 C 147.027344 20.300781 144.742188 22.585938 144.742188 25.40625 C 144.742188 25.953125 144.828125 26.480469 144.984375 26.972656 C 143.710938 25.992188 142.113281 25.40625 140.382812 25.40625 C 139.5625 25.40625 138.773438 25.542969 138.03125 25.785156 C 138.945312 24.863281 139.511719 23.59375 139.511719 22.191406 C 139.511719 19.367188 137.230469 17.078125 134.410156 17.078125 C 134.324219 17.078125 134.234375 17.070312 134.148438 17.078125 Z M 134.148438 17.078125 "/>
  </g>
</svg>