<?xml version="1.0" encoding="UTF-8" standalone="no"?>
<!-- Created with Inkscape (http://www.inkscape.org/) -->

<svg
   xmlns:dc="http://purl.org/dc/elements/1.1/"
   xmlns:cc="http://creativecommons.org/ns#"
   xmlns:rdf="http://www.w3.org/1999/02/22-rdf-syntax-ns#"
   xmlns:svg="http://www.w3.org/2000/svg"
   xmlns="http://www.w3.org/2000/svg"
   version="1.2"
   width="870"
   height="310"
   id="svg2985">
  <metadata
     id="metadata2991">
    <rdf:RDF>
      <cc:Work
         rdf:about="">
        <dc:format>image/svg+xml</dc:format>
        <dc:type
           rdf:resource="http://purl.org/dc/dcmitype/StillImage" />
        <dc:title></dc:title>
      </cc:Work>
    </rdf:RDF>
  </metadata>
  <defs
     id="defs2989" />
  <path
     d="m 585.09378,236.10937 c 0,41.57119 31.5505,72.01563 83.3203,72.01563 51.7698,0 83.32029,-30.44444 83.32029,-72.01563 0,-41.57119 -30.44475,-72.01562 -83.32029,-72.01562 -52.87555,0 -83.3203,30.44443 -83.3203,72.01562 z M 668.42187,216.125 c 10.61941,0 19.21875,8.9485 19.21875,19.98437 0,11.03587 -8.59934,19.98438 -19.21875,19.98438 -10.6194,0 -19.2344,-8.9485 -19.2344,-19.98438 0,-11.03587 8.615,-19.98437 19.2344,-19.98437 z"
     id="rect2997"
     style="fill:#e63434;fill-opacity:1;stroke:none" />
  <path
     d="m 867.10937,164.67187 c 0,0 -16.31735,-1.90742 -28.96569,5.39511 -11.30115,6.52472 -14.77976,11.17525 -17.03431,19.58927 l 0,-21.78125 -66.3594,0 0,137.98437 66.3594,0 0,-45.46875 c 0,-27.89262 12.46731,-37.26925 25.30355,-37.26925 11.9896,0 20.69645,5.14425 20.69645,5.14425 z"
     id="rect3004"
     style="fill:#e63434;fill-opacity:1;stroke:none" />
  <path
     d="m 467.46875,164.10937 c -16.40729,0 -24.89063,3.76563 -24.89063,3.76563 -10.3133,7.79493 -17.89366,15.52504 -23.375,22.95312 l 0,-22.95312 -66.35937,0 0,137.98437 66.92187,0 c 0,0 0,-45.38643 0,-59.65625 0,-14.26982 4.45988,-18.09239 11.5,-18.1875 7.04012,-0.0951 11.3125,3.96253 11.3125,17.70313 0,13.74059 0,60.14062 0,60.14062 l 66.35935,0 0,-69 0,-25.25 c 1.50815,-29.40777 -25.06144,-47.5 -41.46872,-47.5 z"
     id="rect3006"
     style="fill:#e63434;fill-opacity:1;stroke:none" />
  <path
     d="m 514.21878,202.5625 0,103.29687 66.34369,0 0,-103.29687 -66.3437,0 z"
     id="rect3010"
     style="fill:#e63434;fill-opacity:1;stroke:none" />
  <path
     d="m 514.21878,167.875 0,34.6875 66.34369,0 0,-34.6875 -66.3437,0 z"
     id="rect3014"
     style="fill:#282828;fill-opacity:1;stroke:none" />
  <path
     d="m 1141.6246,443.19418 a 13.572816,12.81877 0 1 1 -27.1457,0 13.572816,12.81877 0 1 1 27.1457,0 z"
     transform="matrix(0.5,0,0,0.5,-29.453125,-2.078125)"
     id="path3020"
     style="fill:#ffe658;fill-opacity:1;stroke:none" />
  <path
     d="m 1141.6246,443.19418 a 13.572816,12.81877 0 1 1 -27.1457,0 13.572816,12.81877 0 1 1 27.1457,0 z"
     transform="matrix(0.5,0,0,0.5,-0.799403,-2.078125)"
     id="path3022"
     style="fill:#ffe658;fill-opacity:1;stroke:none" />
  <path
     d="m 190.51562,166.79687 0,78.92298 c 0,37.25186 29.98252,62.82702 78.70313,62.82702 48.72061,0 78.71875,-25.57517 78.71875,-62.82703 l 0,-78.92297 -67.21875,0 0,71.57813 c 0,5.66028 -4.55847,10.21875 -11.49219,10.21875 -6.93372,0 -11.49219,-4.55847 -11.49219,-10.21875 l 0,-71.57813 z"
     id="rect3800"
     style="fill:#e63434;fill-opacity:1;stroke:none" />
  <path
     d="m 44.564845,283.5575 c 5.52871,7.19923 23.28397,24.98937 59.938005,24.98937 51.02873,0 78.71875,-25.57517 78.71875,-62.82703 l 0,-134.94734 c -24.51066,24.51066 -39.94373,27.27502 -69.79881,27.27502 l 0,76.88644 c 0,24.93054 -12.66726,24.07667 -19.600985,24.07667 -6.93371,0 -18.12665,-7.13854 -18.12665,-12.79882 z"
     id="path3814"
     style="fill:#e63434;fill-opacity:1;stroke:none" />
  <flowRoot
     transform="translate(-61.796875,-312.70312)"
     id="flowRoot3816"
     xml:space="preserve"
     style="font-size:10px;font-style:normal;font-variant:normal;font-weight:900;font-stretch:normal;line-height:125%;letter-spacing:0px;word-spacing:0px;fill:#000000;fill-opacity:1;stroke:none;font-family:A-OTF Maru Folk Pro H;-inkscape-font-specification:A-OTF Maru Folk Pro H Heavy"><flowRegion
       id="flowRegion3818"><rect
         width="540.01788"
         height="289.81656"
         x="786.04919"
         y="-98.093956"
         id="rect3820" /></flowRegion><flowPara
       id="flowPara3822" /></flowRoot>  <path
     d="m 240.42187,30.171875 c 2.59054,1.1e-4 4.09475,0.45555 4.48438,1.35937 0.38953,0.90405 0.57807,2.0595 0.57812,3.48438 -5e-5,2.97244 -1.06545,5.59568 -3.20312,7.85937 -2.13777,2.26389 -4.76437,4.16558 -7.875,5.71875 -3.11072,1.55337 -6.34905,2.75306 -9.71875,3.59375 -3.36977,0.84087 -6.28599,1.26572 -8.75,1.26563 l -4.28125,0 c -0.2571,9e-5 -0.5792,-0.20485 -0.96875,-0.59375 -0.38959,-0.38872 -0.57813,-0.69646 -0.57813,-0.95313 1.94589,-2.71566 4.1032,-5.38118 6.5,-7.96875 2.39676,-2.58737 4.8918,-4.9139 7.48438,-6.98437 2.59254,-2.07027 5.26323,-3.70977 7.98437,-4.9375 2.72107,-1.22751 5.49208,-1.84364 8.34375,-1.84375 z m -25.46875,-1.9375 c 0.26101,0.25669 0.40623,0.57808 0.40625,0.96875 l 0,0.1875 c -1.16677,1.03431 -2.50895,2.2646 -4,3.6875 -1.49109,1.42312 -2.93556,2.87331 -4.35937,4.35937 -1.42385,1.48628 -2.75238,2.87726 -3.98438,4.17188 -1.23202,1.29482 -2.17948,2.39304 -2.82812,3.29687 -0.25709,0.26063 -0.57721,0.39073 -0.96875,0.39063 -0.25709,1e-4 -0.52021,-0.13 -0.78125,-0.39063 0.39154,-3.74985 2.00972,-7.20519 4.85937,-10.375 2.84964,-3.16959 6.73214,-5.26256 11.65625,-6.29687 z M 226.625,15.031245 c -4.66704,1.3e-4 -9.2319,0.96627 -13.70313,2.90625 -4.47125,1.94024 -8.48334,4.3722 -12.04687,7.28125 -3.56354,2.9093 -6.45327,6.11611 -8.65625,9.60938 -2.20298,3.49349 -3.29688,6.84537 -3.29688,10.07812 0,2.19876 0.48215,4.2039 1.45313,6.01563 0.97097,1.81191 2.16596,3.68695 3.59375,5.625 -0.13051,0.51718 -0.2601,1.07411 -0.39063,1.65625 -0.13052,0.58231 -0.1875,1.12361 -0.1875,1.64062 0.26104,2.19874 0.87277,4.08743 1.84375,5.64063 0.97097,1.55335 1.97939,2.44662 3.01563,2.70312 1.42778,-0.2565 2.4912,-0.82839 3.20312,-1.73437 0.71191,-0.90584 1.58876,-2.00208 2.625,-3.29688 1.81538,0.64745 3.82825,1.08528 6.03125,1.34375 2.20298,0.25863 4.27282,0.3907 6.21875,0.39063 3.2392,7e-5 7.06274,-0.96606 11.46875,-2.90625 4.40594,-1.94003 8.60658,-4.42922 12.625,-7.46875 4.01833,-3.03935 7.43234,-6.46607 10.21875,-10.28125 2.78631,-3.81499 4.17181,-7.60536 4.17188,-11.35938 -6e-5,-1.80776 -0.42325,-3.34579 -1.26563,-4.64062 -0.84249,-1.29461 -1.84893,-2.40845 -3.01562,-3.3125 -1.1668,-0.90382 -2.36377,-1.54857 -3.59375,-1.9375 -1.23008,-0.38869 -2.22089,-0.57801 -3,-0.57813 -0.26108,1.2e-4 -0.43676,0.0287 -0.5,0.0937 -0.0633,0.0652 -0.15078,0.1095 -0.28125,0.10938 -0.64869,-2.19854 -2.50149,-4.01437 -5.54688,-5.4375 -3.04546,-1.42288 -6.70894,-2.1405 -10.98437,-2.14063 z"
     id="path3860"
     style="font-size:72px;font-style:normal;font-variant:normal;font-weight:normal;font-stretch:normal;line-height:125%;letter-spacing:0px;word-spacing:0px;fill:#282828;fill-opacity:1;stroke:none;font-family:'Walt Disney Script v4.1';-inkscape-font-specification:'Walt Disney Script v4.1'" />
  <path
     d="m 338.46875,65.468745 c -0.90576,8e-5 -1.44687,0.49779 -1.64063,1.46875 -0.19384,0.97112 -0.29692,1.84745 -0.29687,2.625 l 0,0.76563 0.57812,2.32812 c 1.16672,4.52765 2.27623,8.40783 3.3125,11.64063 1.03619,3.23291 1.94153,6.30765 2.71875,9.21875 0.77713,2.9112 1.38887,5.95731 1.84375,9.125005 0.45479,3.16777 0.68745,6.94646 0.6875,11.34375 -5e-5,1.68157 -0.0285,2.94048 -0.0937,3.78125 -0.0653,0.8408 -0.42953,1.26564 -1.07813,1.26562 0.13047,2e-5 -0.32317,-0.52828 -1.35937,-1.5625 -2.59063,-3.23283 -5.21722,-6.98094 -7.875,-11.25 -2.65786,-4.269 -5.20986,-8.309865 -7.67188,-12.125005 -2.46206,-3.81504 -4.76656,-7.05244 -6.90625,-9.70312 -2.13972,-2.65057 -3.91993,-3.96869 -5.34375,-3.96875 -1.42385,6e-5 -2.72388,0.90896 -3.89062,2.71875 -1.16677,1.80991 -2.2743,4.13841 -3.3125,6.98437 -1.03822,2.84607 -1.94158,5.97805 -2.71875,9.40625 -0.77718,3.428295 -1.41939,6.855015 -1.9375,10.281255 -0.51812,3.42631 -0.91282,6.58888 -1.17188,9.5 -0.25905,2.91116 -0.39062,5.20908 -0.39062,6.89063 0,1.16447 0.10307,2.63028 0.29687,4.37499 0.1938,1.74473 0.5885,3.41286 1.17188,5.03125 0.58337,1.61841 1.35516,3.00939 2.32812,4.17188 0.97296,1.16248 2.24253,1.75 3.79688,1.75 1.03622,0 1.91109,-0.35198 2.625,-1.0625 0.71388,-0.71051 1.25301,-1.56021 1.64062,-2.53125 0.38759,-0.97104 0.70968,-1.96579 0.96875,-3 0.25905,-1.03418 0.46322,-1.88388 0.59375,-2.53125 0.26102,-1.55129 0.47807,-3.77832 0.67188,-6.6875 0.19378,-2.90915 0.35581,-5.91102 0.48437,-9.01562 0.12853,-3.10455 0.26009,-5.88651 0.39063,-8.34375 0.1305,-2.45718 0.26009,-4.00885 0.39062,-4.65625 0.38759,-1.42494 0.84125,-2.14058 1.35938,-2.14063 0.38758,5e-5 1.0739,0.90697 2.04687,2.71875 0.97294,1.81187 2.11093,4.03691 3.40625,6.6875 1.29528,2.65066 2.70927,5.53608 4.26563,8.64063 1.5563,3.10459 3.22057,5.98804 4.96875,8.64062 1.74811,2.65262 3.58728,4.87765 5.53125,6.6875 1.94389,1.80985 3.82519,2.71876 5.64062,2.71875 2.33346,1e-5 4.43379,-0.80544 6.3125,-2.42188 1.87862,-1.61642 3.4683,-3.6964 4.76563,-6.21875 1.29721,-2.52232 2.27515,-5.30428 2.92187,-8.34374 0.6466,-3.03943 0.96869,-6.03933 0.96875,-9.01563 -6e-5,-6.72621 -0.84643,-12.934885 -2.53125,-18.625005 -1.68493,-5.69001 -3.65566,-10.58057 -5.92187,-14.65625 -2.26632,-4.07554 -4.60127,-7.23613 -7,-9.5 -2.39881,-2.26371 -4.24964,-3.40617 -5.54688,-3.40625 z"
     id="path3858"
     style="font-size:72px;font-style:normal;font-variant:normal;font-weight:normal;font-stretch:normal;line-height:125%;letter-spacing:0px;word-spacing:0px;fill:#282828;fill-opacity:1;stroke:none;font-family:'Walt Disney Script v4.1';-inkscape-font-specification:'Walt Disney Script v4.1'" />
  <path
     d="m 269.96875,75.374995 c -0.25712,7e-5 -1.39711,0.0593 -3.40625,0.1875 -2.00923,0.12836 -4.47378,0.4231 -7.39063,0.875 -2.91691,0.45204 -5.99518,1.09679 -9.23437,1.9375 -3.23924,0.84085 -6.24489,1.96768 -9.03125,3.39063 -2.78638,1.42307 -5.09086,3.2389 -6.90625,5.4375 -1.81539,2.19871 -2.71875,4.78939 -2.71875,7.76562 0,2.06845 0.26114,3.78082 0.78125,5.140635 0.52009,1.35989 1.64247,2.45614 3.39062,3.29687 1.74815,0.84081 4.31774,1.45695 7.6875,1.84375 3.36973,0.38688 7.8335,0.65103 13.40625,0.78125 2.07639,3e-5 4.72949,0.21993 7.96875,0.67188 3.23919,0.45199 6.42052,1.06615 9.53125,1.84375 3.11064,0.77764 5.76572,1.78803 7.96875,3.01562 2.20294,1.22764 3.31245,2.67784 3.3125,4.35938 -5e-5,1.81184 -1.42968,3.36351 -4.28125,4.65625 -2.85168,1.29277 -6.06151,2.36235 -9.625,3.20312 -3.56358,0.8408 -6.99243,1.45495 -10.29687,1.84375 -3.30451,0.38882 -5.41848,0.57814 -6.32813,0.57813 -1.81146,1e-5 -3.62214,-0.0286 -5.4375,-0.0937 -1.8154,-0.0651 -3.50817,-0.22581 -5.0625,-0.48438 -1.55437,-0.25853 -2.80831,-0.7426 -3.78125,-1.45312 -0.97297,-0.7105 -1.46876,-1.64802 -1.46875,-2.8125 -1e-5,-2.19864 0.65584,-3.55903 1.95313,-4.07813 1.29725,-0.51905 2.65427,-0.78123 4.07812,-0.78125 1.94194,2e-5 3.8537,0.2622 5.73438,0.78125 1.88062,0.51909 3.73344,1.07602 5.54687,1.65625 1.81338,0.58029 3.52098,1.09296 5.14063,1.54688 1.61957,0.45395 3.1503,0.67189 4.57812,0.67187 2.46398,2e-5 4.72436,-0.45344 6.79688,-1.35937 2.07242,-0.90589 3.50204,-1.73798 4.28125,-2.51563 0.25704,-0.25656 0.39057,-0.63913 0.39062,-1.15625 -5e-5,-0.2605 -0.13359,-0.52465 -0.39062,-0.78125 -4.01842,-2.07231 -8.26318,-3.59339 -12.73438,-4.5625 -4.47127,-0.96904 -8.58644,-1.45308 -12.34375,-1.45312 -1.94593,4e-5 -3.9588,0.18934 -6.03125,0.57812 -2.07248,0.38885 -3.98426,1.0336 -5.73437,1.9375 -1.75014,0.90397 -3.16414,2.13425 -4.26563,3.6875 -1.10149,1.55329 -1.65625,3.49922 -1.65625,5.82813 0,1.93814 0.84638,4.00448 2.53125,6.20312 1.68486,2.19867 3.94722,4.20381 6.79688,6.01562 2.84962,1.81183 6.1469,3.3043 9.90625,4.46875 3.75929,1.16446 7.72606,1.75 11.875,1.75 1.55432,0 3.94823,-0.16069 7.1875,-0.48438 3.23917,-0.32367 6.50797,-1.2306 9.8125,-2.71875 3.30443,-1.48813 6.22264,-3.69821 8.75,-6.60937 2.52724,-2.91113 3.7968,-7.01122 3.79687,-12.3125 -7e-5,-4.52756 -1.10958,-8.05575 -3.3125,-10.57813 -2.20305,-2.5223 -4.91708,-4.39734 -8.15625,-5.625 -3.23928,-1.22757 -6.81531,-2.004395 -10.70312,-2.328115 -3.88791,-0.32364 -7.44831,-0.61444 -10.6875,-0.875 -3.88789,-0.25653 -7.25777,-0.6391 -10.10938,-1.15625 -2.85165,-0.51706 -6.1606,-1.49685 -9.92187,-2.92188 -0.2571,5e-5 -0.37502,-0.11837 -0.375,-0.375 -2e-5,-0.26047 0.1179,-0.52067 0.375,-0.78125 1.04017,-0.64336 2.33626,-1.15801 3.89062,-1.54687 1.55433,-0.38876 3.96388,-0.84222 7.20313,-1.35938 1.55432,-0.26047 3.8147,-0.52265 6.79687,-0.78125 2.98211,-0.25849 6.13298,-0.52264 9.4375,-0.78125 3.30444,-0.25849 6.49865,-0.47839 9.60938,-0.67187 3.11063,-0.19336 5.51819,-0.42692 7.20312,-0.6875 0.77515,-0.12626 1.84053,-0.28893 3.20313,-0.48438 1.36246,-0.19533 2.42786,-0.41524 3.20312,-0.67187 1.03618,-0.38678 1.98564,-0.9437 2.82813,-1.65625 0.84237,-0.71244 1.32254,-1.64798 1.45312,-2.8125 -7e-5,-1.03414 -0.18862,-1.73613 -0.57812,-2.125 -0.38964,-0.38875 -0.91789,-0.65487 -1.5625,-0.78125 -3.24325,-0.77756 -6.95975,-1.52379 -11.17188,-2.23438 -4.21222,-0.71044 -8.77907,-1.06243 -13.70312,-1.0625 z"
     id="path3854"
     style="font-size:72px;font-style:normal;font-variant:normal;font-weight:normal;font-stretch:normal;line-height:125%;letter-spacing:0px;word-spacing:0px;fill:#282828;fill-opacity:1;stroke:none;font-family:'Walt Disney Script v4.1';-inkscape-font-specification:'Walt Disney Script v4.1'" />
  <path
     d="m 209.32812,75.953125 c -0.64865,6e-5 -1.04533,0.45551 -1.17187,1.35937 -1.29729,9.83285 -2.14169,17.43054 -2.53125,22.796885 -0.38958,5.36642 -0.63908,8.76255 -0.76563,10.1875 -0.13053,2.58553 -0.23163,4.62126 -0.29687,6.10937 -0.0653,1.48816 -0.12226,2.87914 -0.1875,4.17188 -0.0653,1.29277 -0.10938,2.71433 -0.10938,4.26562 -1e-5,1.42499 -1e-5,3.37289 0,5.82812 -1e-5,0.52106 0.10109,1.29394 0.29688,2.32813 0.19578,1.03421 0.45889,2.1038 0.78125,3.20312 0.32232,1.09933 0.70141,2.12468 1.15625,3.09375 0.45482,0.96907 1.0076,1.52599 1.65625,1.65625 0.77519,0.26053 1.68053,0.5227 2.71875,0.78125 1.03819,0.25856 1.95915,0.375 2.73437,0.375 2.464,0 4.08217,-0.73061 4.85938,-2.21875 0.77716,-1.48813 1.15622,-3.01119 1.15625,-4.5625 -3e-5,-7.76043 -0.24753,-15.68147 -0.76563,-23.76562 -0.51814,-8.08409 -0.91086,-16.077995 -1.17187,-23.968755 -0.25711,-3.7499 -0.84233,-6.59108 -1.75,-8.53125 -0.90772,-1.94004 -3.10913,-2.97904 -6.60938,-3.10937 z"
     id="path3852"
     style="font-size:72px;font-style:normal;font-variant:normal;font-weight:normal;font-stretch:normal;line-height:125%;letter-spacing:0px;word-spacing:0px;fill:#282828;fill-opacity:1;stroke:none;font-family:'Walt Disney Script v4.1';-inkscape-font-specification:'Walt Disney Script v4.1'" />
  <path
     d="m 406.90625,76.156245 c -4.01842,7e-5 -7.63581,0.19136 -10.875,0.57813 -3.23926,0.38691 -6.20158,0.81174 -8.85938,1.26562 -2.65785,0.45401 -5.10676,0.86323 -7.375,1.25 -2.26826,0.3869 -4.44317,0.65105 -6.51562,0.78125 -1.68489,0.13033 -2.95444,0.39448 -3.79688,0.78125 -0.84244,0.3869 -1.26562,1.08692 -1.26562,2.125 0,1.03426 0.36619,1.97178 1.07812,2.8125 0.71191,0.84084 1.61726,1.61766 2.71875,2.32813 1.10149,0.71057 2.29647,1.35532 3.59375,1.9375 1.29726,0.58228 2.53636,1.1392 3.70313,1.65625 l -4.67188,10.671875 c -0.90573,0.1303 -1.78258,0.34824 -2.625,0.67188 -0.84244,0.32371 -1.65834,0.61846 -2.4375,0.875 -0.25709,0.77765 -0.47807,1.42042 -0.67187,1.9375 -0.19381,0.51712 -0.29688,1.17552 -0.29688,1.95312 0,1.03422 0.20614,1.8683 0.59375,2.51563 0.38759,0.64739 0.7077,1.48144 0.96875,2.51562 -1.03624,2.97235 -2.09965,5.917 -3.20312,8.82813 -1.10348,2.91117 -1.65625,5.47323 -1.65625,7.67187 0,4.14076 1.22347,7.88688 3.6875,11.25 2.46402,3.36312 6.41714,5.04687 11.85937,5.04687 3.23922,0 6.34794,-0.48208 9.32813,-1.45312 2.98014,-0.97104 5.79527,-2.17074 8.45312,-3.59375 2.65778,-1.42301 5.03686,-2.8732 7.10938,-4.35938 2.07242,-1.48616 3.74955,-2.75872 5.04687,-3.79687 0.77911,-0.51709 1.17183,-1.48519 1.17188,-2.90625 -5e-5,-1.29472 -0.52434,-2.58223 -1.5625,-3.875 -1.03826,-1.29273 -2.13412,-1.93748 -3.29688,-1.9375 -1.04023,2e-5 -2.1173,0.0286 -3.21875,0.0937 -1.10154,0.0652 -2.16692,0.15496 -3.20312,0.28125 -6.22141,0.64738 -11.10837,1.33441 -14.67188,2.04688 -3.56356,0.7125 -5.6069,1.06251 -6.125,1.0625 1.03623,-2.19865 1.94155,-4.3931 2.71875,-6.59375 0.77715,-2.20061 1.41936,-4.33783 1.9375,-6.40625 0.26101,-0.51707 0.65373,-0.7656 1.17188,-0.76563 4.92408,3e-5 9.35935,-0.0748 13.3125,-0.20312 3.95307,-0.12826 6.84082,-0.26034 8.65625,-0.39063 0.90566,-0.13023 1.4909,-0.74439 1.75,-1.84375 0.259,-1.09929 0.39057,-2.03484 0.39062,-2.8125 -5e-5,-0.9039 -0.0746,-1.90063 -0.20312,-3 -0.12858,-1.09929 -0.45068,-1.9776 -0.96875,-2.625 l -2.71875,-0.375 -14.39063,0 c -0.64866,5e-5 -1.10035,-0.23352 -1.35937,-0.6875 -0.25908,-0.45389 -0.39065,-0.87874 -0.39063,-1.26562 -2e-5,-2.459145 0.29159,-4.332215 0.875,-5.625005 0.58335,-1.2927 1.08112,-2.12874 1.46875,-2.51563 0.6486,-0.13021 1.60895,-0.20307 2.90625,-0.20312 1.29724,5e-5 2.46373,-0.0285 3.5,-0.0937 1.0362,-0.0651 2.0731,-0.0937 3.10938,-0.0937 1.0362,5e-5 2.27726,-0.0285 3.70312,-0.0937 1.42577,-0.0651 3.17748,-0.17051 5.25,-0.29688 0.90963,5e-5 1.97305,-0.16064 3.20313,-0.48437 1.22998,-0.32363 2.36799,-0.67364 3.40625,-1.0625 1.03816,-0.38876 1.94153,-0.81361 2.71875,-1.26563 0.77712,-0.45191 1.17182,-0.93597 1.17187,-1.45312 -6e-5,-1.68151 -0.81795,-3.4225 -2.4375,-5.23438 -1.61966,-1.81176 -2.88725,-3.24698 -3.79687,-4.28125 -2.07252,-0.64729 -3.69268,-1.02789 -4.85938,-1.15625 -1.1668,-0.12822 -2.20371,-0.18743 -3.10937,-0.1875 z"
     id="path3850"
     style="font-size:72px;font-style:normal;font-variant:normal;font-weight:normal;font-stretch:normal;line-height:125%;letter-spacing:0px;word-spacing:0px;fill:#282828;fill-opacity:1;stroke:none;font-family:'Walt Disney Script v4.1';-inkscape-font-specification:'Walt Disney Script v4.1'" />
  <path
     d="m 73.265625,91.281245 2.14062,0 -1.75,37.640625 c -4.53654,-1.03813 -8.98744,-2.58783 -13.32812,-4.65624 -4.34075,-2.06839 -8.05924,-4.39491 -11.17187,-6.98438 -1.42386,-1.03418 -2.94291,-2.20723 -4.5625,-3.5 -1.61963,-1.29273 -3.18082,-2.61084 -4.67188,-3.96875 -1.49108,-1.35784 -2.716535,-2.74883 -3.6875,-4.17187 -0.970985,-1.42298 -1.453135,-2.78338 -1.453125,-4.07813 -1e-5,-1.681515 1.22544,-3.072505 3.687505,-4.171875 2.46203,-1.09929 5.57076,-2.03681 9.32812,-2.8125 3.75732,-0.7756 7.90098,-1.39173 12.4375,-1.84375 4.53646,-0.45192 8.88231,-0.93597 13.03125,-1.45313 z M 47.796875,1.453125 c -2.20301,1.4e-4 -4.85809,0.0288 -7.96875,0.0937 -3.110695,0.0653 -6.320525,0.3008 -9.625,0.6875 -3.304485,0.38698 -6.601765,0.98748 -9.90625,1.82812 -3.304475,0.84092 -6.222682,1.95476 -8.75,3.3125 -2.52729,1.35802 -4.59912,3.07039 -6.21875,5.14063 -1.619591,2.0705 -2.437478,4.58634 -2.4375,7.5625 2.2e-5,1.2909 1.008435,2.12693 3.015625,2.51562 2.007229,0.38894 4.105571,0.59387 6.3125,0.59375 1.036248,1.2e-4 1.985701,-0.0441 2.828125,-0.10937 0.842445,-0.065 1.456159,-0.0936 1.84375,-0.0937 0.518125,-0.51698 0.781258,-1.02966 0.78125,-1.54688 8e-6,-0.64724 -0.335732,-1.15991 -0.984375,-1.54687 -0.257072,-0.13014 -0.767711,-0.26221 -1.546875,-0.39063 -0.779143,-0.12816 -1.595053,-0.28885 -2.4375,-0.48437 -0.842422,-0.19527 -1.616194,-0.42883 -2.328125,-0.6875 -0.711902,-0.25843 -1.062484,-0.58179 -1.0625,-0.96875 1.6e-5,-0.90381 1.486621,-1.68064 4.46875,-2.32813 2.590597,-0.64723 5.24765,-1.10069 7.96875,-1.35937 2.721105,-0.25842 5.374205,-0.3905 7.96875,-0.39063 12.830315,1.3e-4 24.851745,1.11397 36.062505,3.3125 11.21066,2.19879 22.57625,5.49343 34.10937,9.89063 5.442135,2.06851 11.118485,4.52909 17.015625,7.375 5.89695,2.84613 11.65877,6.00672 17.29687,9.5 5.63787,3.49348 11.02063,7.31444 16.14063,11.45312 5.11974,4.13886 9.59914,8.56033 13.42187,13.28125 3.82246,4.72107 6.85661,9.69947 9.125,14.9375 2.2681,5.23816 3.4061,10.71426 3.40625,16.40625 -1.5e-4,5.818395 -1.13815,10.768165 -3.40625,14.843755 -2.2684,4.07564 -5.24358,7.52899 -8.9375,10.375 -3.6942,2.84604 -7.88197,5.11532 -12.54687,6.79687 -4.66517,1.68157 -9.42055,2.99969 -14.28125,3.96875 -4.86092,0.96907 -9.63193,1.5852 -14.29687,1.84375 -4.66513,0.25856 -8.73421,0.39063 -12.23438,0.39063 -2.46015,1e-5 -5.40883,-0.23553 -8.84375,-0.6875 -3.435075,-0.45197 -6.715535,-1.63604 -9.828125,-3.57813 l -0.1875,-41.921875 c 0.77513,-0.25652 1.49192,-0.44781 2.14062,-0.57812 0.64857,-0.13021 1.60891,-0.18745 2.90625,-0.1875 3.887795,5e-5 7.974465,0.32144 12.250005,0.96875 4.27537,0.64741 8.33158,1.45285 12.15625,2.42187 3.82448,0.96912 7.15024,2.03871 10,3.20313 2.84953,1.16451 4.80344,2.31995 5.84375,3.484375 -0.64875,1.29476 -1.84373,2.65515 -3.59375,4.07813 -1.75023,1.42304 -3.3419,2.97472 -4.76563,4.65625 1.03614,0.7737 2.42362,1.38984 4.17188,1.84375 1.74805,0.45398 3.20814,0.68752 4.375,0.6875 1.68476,2e-5 3.30293,-0.48207 4.85937,-1.45313 1.55621,-0.97101 2.98583,-2.14209 4.28125,-3.5 1.29518,-1.35784 2.33207,-2.80805 3.10938,-4.35937 0.77705,-1.55126 1.17175,-2.913625 1.17187,-4.078135 -1.3e-4,-3.23281 -1.03702,-6.07201 -3.10937,-8.53125 -2.07259,-2.45913 -4.80225,-4.53713 -8.17188,-6.21875 -3.36986,-1.6815 -7.11882,-3.07248 -11.26562,-4.17187 -4.14701,-1.09927 -8.27582,-1.93333 -12.35937,-2.51563 -4.08372,-0.58216 -7.93378,-1.007 -11.5625,-1.26562 -3.62888,-0.25849 -6.547085,-0.39056 -8.750005,-0.39063 l -2.71875,0 c -0.25715,-2.19858 -0.44768,-4.29156 -0.57813,-6.29687 -0.13058,-2.00517 -0.26413,-3.98366 -0.39062,-5.92188 -0.13059,-2.19858 -0.31913,-4.26292 -0.57813,-6.20312 -0.25912,-1.94003 -0.68231,-3.72723 -1.26562,-5.34375 -0.58344,-1.61634 -1.40133,-3.19664 -2.4375,-4.75 -1.0363,-1.55318 -2.46592,-3.04762 -4.28125,-4.46875 -1.16681,1.0343 -2.12913,2.88072 -2.90625,5.53125 -0.77723,2.65072 -1.43506,5.4613 -1.95313,8.4375 -0.51817,2.97636 -0.92573,5.69912 -1.25,8.15625 -0.32437,2.45729 -0.50005,3.95172 -0.5,4.46875 l -0.39062,7.9375 c -9.59115,1.68162 -17.48377,3.57031 -23.70312,5.64062 -6.21941,2.07043 -11.60415,4.77756 -16.14063,8.14063 -4.27942,2.97633 -6.42188,5.94959 -6.421875,8.92187 -5e-6,2.976335 1.03492,5.963225 3.109375,8.937505 2.07444,2.97433 4.218875,5.62422 6.42188,7.95313 2.59057,2.9763 6.73422,6.59036 12.4375,10.85937 5.70321,4.26904 13.02623,8.98527 21.96874,14.15625 0.64859,2.97628 1.30444,5.8025 1.95313,8.45312 0.64858,2.65062 1.68549,4.87568 3.10937,6.6875 l 4.46875,0.39063 c 1.29326,-2e-5 2.46173,-0.0573 3.5,-0.1875 1.03815,-0.13027 2.13007,-0.33718 3.29688,-0.59375 0.64461,-2.19867 1.14436,-3.8362 1.46875,-4.9375 0.32425,-1.10132 0.6139,-2.16893 0.875,-3.20313 4.40591,0.64735 9.104325,1.29013 14.093755,1.9375 4.98927,0.64735 9.74465,0.96874 14.28125,0.96875 8.81184,-1e-5 17.59496,-1.06961 26.34374,-3.20312 8.74854,-2.13354 16.62632,-5.36896 23.625,-9.70313 6.99839,-4.33416 12.65912,-9.76404 17,-16.29687 4.34055,-6.5328 6.51545,-14.18971 6.51563,-22.984375 -1.7e-4,-6.59593 -1.48876,-13.06876 -4.46875,-19.40625 -2.98033,-6.33736 -6.93347,-12.38338 -11.85938,-18.14063 -4.92622,-5.75709 -10.4995,-11.16032 -16.71875,-16.20312 -6.21952,-5.04261 -12.56658,-9.59616 -19.04687,-13.67188 -6.48054,-4.07549 -12.84123,-7.63231 -19.0625,-10.67187 -6.22146,-3.03932 -11.72213,-5.4693 -16.51562,-7.28125 -9.591185,-3.36299 -19.597765,-6.23279 -30.031255,-8.625 -10.43359,-2.39194 -20.06307,-3.59361 -28.875,-3.59375 z"
     id="path3848"
     style="font-size:72px;font-style:normal;font-variant:normal;font-weight:normal;font-stretch:normal;line-height:125%;letter-spacing:0px;word-spacing:0px;fill:#282828;fill-opacity:1;stroke:none;font-family:'Walt Disney Script v4.1';-inkscape-font-specification:'Walt Disney Script v4.1'" />
  <path
     d="m 477.60937,93.999995 c 1.2972,5e-5 2.0405,0.64283 2.2344,1.9375 0.1937,1.29477 0.2968,2.46585 0.29685,3.5 -5e-5,7.890735 -2.7867,14.215865 -8.35935,19.000005 -5.9604,5.17495 -12.30746,8.16384 -19.0469,8.9375 0.38757,-0.77366 1.05827,-2.16661 2.03125,-4.17187 0.97292,-2.00522 2.08243,-4.14243 3.3125,-6.40625 1.23001,-2.26377 2.39847,-4.37236 3.5,-6.3125 1.10145,-1.94007 1.90371,-3.30047 2.42188,-4.07813 0.77911,-0.9039 1.75508,-2.06132 2.92187,-3.48437 1.16672,-1.42297 2.39216,-2.78534 3.6875,-4.078135 1.29525,-1.2927 2.5933,-2.41953 3.8906,-3.39062 1.29726,-0.971 2.33416,-1.45308 3.1094,-1.45313 z m -28.57812,-19.79687 c -1.03627,0.13033 -2.81647,1.56556 -5.34375,4.28125 -2.52732,2.71582 -5.12543,6.17115 -7.78125,10.375 -2.65587,4.20395 -5.01932,8.88958 -7.09375,14.062505 -2.07446,5.173 -3.10938,10.28346 -3.10938,15.32812 0,2.32895 0.32011,4.68408 0.96875,7.07813 0.64864,2.39405 1.49501,4.75315 2.53125,7.07812 -2.72111,6.46967 -4.98149,12.58854 -6.79687,18.34375 -1.81539,5.75518 -3.24501,10.86565 -4.28125,15.32812 -1.03623,4.46242 -1.78152,8.18191 -2.23438,11.15625 -0.45285,2.97427 -0.67187,4.9202 -0.67187,5.82813 0,4.13675 1.19697,7.65129 3.59375,10.5625 2.39679,2.91111 5.53401,4.56623 9.42187,4.95312 l 0.57813,-1.5625 c 1.29727,-5.17499 2.4048,-9.78578 3.3125,-13.85937 0.90769,-4.07367 1.84152,-8.05732 2.8125,-11.9375 0.97097,-3.88024 2.08048,-7.92111 3.3125,-12.125 1.232,-4.20392 2.80802,-9.09448 4.75,-14.65625 0.77913,-0.13026 1.53805,-0.21612 2.25,-0.28125 0.7119,-0.0651 1.38258,-0.10938 2.03125,-0.10938 3.24315,0 7.26889,-0.96614 12.0625,-2.90625 4.79354,-1.94011 9.38887,-4.64921 13.79687,-8.14062 4.4079,-3.49139 8.17251,-7.63572 11.28125,-12.42187 3.10865,-4.78611 4.6562,-10.02668 4.65625,-15.71875 -5e-5,-1.9381 -0.1906,-4.26858 -0.57815,-6.984385 -0.38765,-2.71571 -1.04545,-5.32136 -1.9531,-7.84375 -0.90775,-2.52228 -2.1902,-4.70374 -3.875,-6.51562 -1.68495,-1.81176 -3.75875,-2.70306 -6.21875,-2.70313 -2.46409,7e-5 -5.4244,1.2876 -8.85937,3.875 -3.43505,2.58753 -6.96499,5.7195 -10.59375,9.40625 -3.62883,3.68685 -7.13029,7.567035 -10.5,11.640635 -3.36976,4.07367 -6.21338,7.66305 -8.54688,10.76562 -0.38761,0.51713 -0.65073,0.78128 -0.78125,0.78125 l -0.39062,0 c -0.26106,-0.25655 -0.42111,-0.6105 -0.48438,-1.0625 -0.0633,-0.45194 -0.0938,-0.87481 -0.0937,-1.26562 -2e-5,-3.48941 0.87684,-7.05017 2.625,-10.67188 1.74813,-3.62162 3.39875,-6.665775 4.95312,-9.125005 2.98212,-4.52753 5.12458,-7.74733 6.42188,-9.6875 1.29724,-1.94004 1.93747,-3.88598 1.9375,-5.82812 -3e-5,-1.80781 -0.16008,-3.09929 -0.48438,-3.875 -0.32434,-0.77558 -1.19723,-1.30191 -2.625,-1.5625 z"
     id="flowRoot3824"
     style="font-size:72px;font-style:normal;font-variant:normal;font-weight:normal;font-stretch:normal;line-height:125%;letter-spacing:0px;word-spacing:0px;fill:#282828;fill-opacity:1;stroke:none;font-family:'Walt Disney Script v4.1';-inkscape-font-specification:'Walt Disney Script v4.1'" />
  <path
     d="m 521.01562,66.171875 c -10.46604,0.530797 -18.78125,9.214917 -18.78125,19.8125 0,10.93944 8.87305,19.781255 19.8125,19.781255 1.52319,0 2.98155,-0.17485 4.40625,-0.5 -6.50716,5.40276 -10.65625,13.53855 -10.65625,22.65625 0,16.26521 13.1723,29.43749 29.4375,29.43749 16.26521,0 29.4375,-13.17228 29.4375,-29.43749 0,-4.41672 -0.97802,-8.61454 -2.71875,-12.375 2.93736,1.72696 6.37645,2.71875 10.03125,2.71875 10.9394,0 19.8125,-8.87306 19.8125,-19.812505 0,-10.93944 -8.8731,-19.78125 -19.8125,-19.78125 -10.93944,0 -19.8125,8.84181 -19.8125,19.78125 0,2.110495 0.32681,4.154705 0.9375,6.062505 -4.95369,-3.79029 -11.15391,-6.062505 -17.875,-6.062505 -3.18803,0 -6.24955,0.5316 -9.125,1.46875 3.5491,-3.576756 5.75,-8.499512 5.75,-13.9375 0,-10.93944 -8.8731,-19.8125 -19.8125,-19.8125 -0.34186,0 -0.69363,-0.01712 -1.03125,0 z"
     id="path3834"
     style="fill:#282828;fill-opacity:1;stroke:none" />
</svg>
