<?xml version="1.0" encoding="UTF-8" standalone="yes"?>
<svg xmlns="http://www.w3.org/2000/svg" xmlns:xlink="http://www.w3.org/1999/xlink" width="281.3333333333333px" height="106.66666666666666px" viewBox="0 0 211 80" version="1.1">
  <g id="surface1">
    <path style=" stroke:none;fill-rule:nonzero;fill:rgb(23.529412%,67.843137%,88.627451%);fill-opacity:1;" d="M 161.789062 50.566406 C 157.664062 50.050781 157.148438 45.925781 157.664062 43.863281 C 157.664062 42.316406 158.179688 38.191406 159.210938 37.160156 C 159.726562 36.128906 161.789062 34.0625 162.820312 34.0625 C 162.820312 34.0625 162.304688 37.675781 163.335938 39.738281 C 163.851562 41.800781 166.429688 45.410156 166.429688 45.410156 C 166.429688 45.410156 165.398438 50.566406 161.789062 50.566406 Z M 110.757812 37.160156 C 112.304688 35.09375 113.851562 33.546875 115.914062 34.578125 C 117.460938 35.613281 115.914062 39.222656 114.882812 40.253906 C 113.335938 41.285156 109.214844 43.347656 109.214844 43.347656 C 109.214844 43.347656 109.214844 39.738281 110.757812 37.160156 Z M 21.070312 65.007812 C 19.007812 69.136719 15.917969 75.839844 10.761719 70.683594 C 10.761719 70.683594 6.636719 64.492188 11.792969 60.367188 C 16.429688 55.726562 24.164062 53.148438 24.164062 53.148438 C 24.164062 53.148438 23.132812 61.398438 21.070312 65.007812 Z M 86.019531 13.949219 C 88.078125 14.464844 83.957031 27.875 81.894531 29.9375 C 81.894531 29.9375 83.441406 13.433594 86.019531 13.949219 Z M 133.953125 23.234375 C 134.46875 19.625 136.015625 13.949219 137.5625 14.464844 C 139.625 14.464844 139.109375 18.589844 137.5625 23.75 C 135.5 28.90625 132.410156 33.546875 132.410156 33.546875 C 132.410156 33.546875 132.925781 26.84375 133.953125 23.234375 Z M 209.210938 38.707031 C 208.179688 36.644531 207.664062 37.160156 207.148438 38.191406 C 207.148438 39.738281 201.996094 50.566406 197.871094 51.082031 C 193.746094 51.082031 190.140625 45.410156 189.109375 44.378906 C 190.65625 39.222656 203.539062 28.90625 203.539062 28.90625 C 203.539062 28.90625 201.480469 26.328125 199.417969 25.296875 C 197.355469 24.265625 196.324219 25.296875 195.292969 26.328125 C 194.261719 27.359375 186.53125 40.253906 186.53125 40.253906 C 186.53125 40.253906 183.953125 35.613281 183.953125 34.578125 C 185.5 30.96875 185.5 27.875 182.921875 26.84375 C 180.859375 26.328125 178.800781 27.875 177.253906 29.9375 C 175.707031 31.484375 178.800781 39.222656 178.800781 39.222656 C 178.800781 39.222656 175.191406 43.863281 171.582031 42.832031 C 172.097656 36.644531 170.550781 31.484375 168.488281 30.453125 C 164.367188 28.90625 166.429688 30.453125 163.851562 30.96875 C 156.121094 31.484375 154.574219 37.675781 152.511719 40.769531 C 150.449219 44.378906 146.839844 42.832031 146.839844 42.832031 C 146.839844 42.316406 146.324219 25.8125 139.625 30.96875 C 131.894531 37.160156 141.6875 45.410156 141.6875 45.410156 C 141.6875 45.410156 140.140625 51.082031 137.046875 51.601562 C 133.953125 51.601562 131.894531 43.863281 132.410156 40.253906 C 136.015625 36.644531 149.417969 10.339844 138.078125 6.730469 C 128.285156 5.699219 125.707031 42.316406 125.707031 42.316406 C 125.707031 42.316406 119.523438 51.082031 114.367188 52.117188 C 109.214844 52.632812 109.730469 47.988281 109.730469 46.441406 C 111.273438 46.441406 111.273438 45.925781 113.335938 45.410156 C 120.554688 42.316406 127.253906 29.9375 117.460938 28.90625 C 107.152344 27.875 103.027344 44.378906 103.027344 44.894531 C 102.511719 45.410156 100.449219 50.050781 96.84375 50.566406 C 93.234375 50.566406 91.6875 43.863281 91.6875 43.863281 C 91.6875 43.863281 93.75 42.316406 95.8125 40.253906 C 97.359375 38.191406 101.480469 28.90625 94.265625 28.390625 C 87.5625 27.359375 81.378906 39.222656 81.378906 39.222656 C 81.378906 39.222656 81.378906 37.160156 81.378906 36.644531 C 86.019531 31.484375 96.328125 7.761719 85.503906 6.730469 C 75.707031 6.730469 74.679688 40.769531 74.679688 40.769531 C 74.679688 40.769531 69.007812 51.601562 65.914062 51.601562 C 62.824219 51.601562 62.308594 39.222656 62.824219 38.707031 C 63.335938 38.191406 68.492188 27.875 62.308594 27.875 C 56.636719 27.359375 56.121094 42.316406 56.121094 42.832031 C 56.121094 42.832031 51.996094 51.601562 49.421875 51.601562 C 46.328125 51.601562 46.84375 43.863281 47.875 40.769531 C 48.90625 37.160156 51.996094 29.9375 48.390625 28.90625 C 44.265625 28.390625 41.6875 37.160156 41.6875 39.222656 C 40.65625 40.769531 33.441406 44.378906 33.441406 44.378906 C 35.503906 26.84375 34.472656 10.339844 34.472656 8.277344 C 36.535156 7.246094 39.628906 3.117188 34.472656 2.085938 C 29.832031 1.054688 27.773438 6.214844 27.773438 6.214844 C 27.773438 6.214844 24.164062 7.761719 16.945312 8.792969 C 10.246094 10.339844 5.089844 9.824219 5.089844 9.824219 C 5.089844 13.949219 9.214844 18.074219 10.246094 19.105469 C 11.277344 19.625 12.308594 19.105469 12.824219 19.105469 C 13.339844 19.105469 21.585938 15.496094 26.742188 12.402344 C 27.257812 12.917969 26.742188 44.378906 25.195312 47.988281 C 21.585938 49.535156 4.578125 55.726562 2.515625 62.945312 C 0.96875 68.621094 2 78.417969 13.339844 77.902344 C 28.800781 77.386719 32.410156 49.535156 32.410156 49.535156 L 41.171875 44.378906 C 41.171875 44.378906 39.628906 55.726562 45.296875 56.757812 C 50.96875 58.304688 56.636719 49.019531 56.636719 49.019531 C 56.636719 49.019531 58.699219 58.304688 63.851562 58.820312 C 69.007812 58.820312 74.164062 48.503906 74.164062 48.503906 C 74.164062 48.503906 74.164062 53.148438 74.164062 54.179688 C 74.164062 55.210938 74.164062 56.757812 76.222656 56.757812 C 78.285156 56.242188 81.378906 53.664062 81.378906 53.664062 C 81.378906 53.664062 81.378906 49.019531 81.894531 46.957031 C 81.894531 44.894531 87.5625 33.546875 90.65625 34.0625 C 94.265625 34.578125 89.625 41.800781 88.59375 41.800781 C 87.5625 41.800781 84.988281 42.316406 83.957031 44.378906 C 83.441406 45.925781 86.019531 46.441406 86.019531 46.441406 C 86.019531 46.441406 87.5625 56.242188 92.71875 57.273438 C 97.875 58.820312 103.027344 50.566406 103.027344 50.566406 C 103.027344 50.566406 103.542969 57.789062 111.273438 57.789062 C 119.523438 57.789062 126.222656 46.957031 126.222656 46.957031 C 126.222656 46.957031 126.222656 57.273438 136.015625 57.273438 C 145.292969 57.789062 144.78125 46.957031 145.808594 46.957031 C 151.996094 46.957031 151.480469 44.894531 151.480469 46.441406 C 151.480469 47.988281 150.449219 56.757812 160.242188 56.757812 C 169.519531 56.242188 169.519531 47.472656 170.550781 46.957031 C 177.253906 47.472656 179.832031 42.316406 179.832031 42.316406 L 182.40625 46.441406 C 182.40625 46.441406 178.800781 55.726562 178.285156 57.273438 C 178.285156 59.335938 181.375 60.367188 181.375 60.367188 L 185.5 51.082031 C 185.5 51.082031 189.625 58.304688 195.292969 57.789062 C 204.054688 57.789062 209.726562 40.253906 209.210938 38.707031 "/>
    <path style=" stroke:none;fill-rule:nonzero;fill:rgb(23.529412%,67.843137%,88.627451%);fill-opacity:1;" d="M 31.378906 70.683594 C 33.957031 67.070312 136.53125 54.179688 183.4375 64.492188 C 192.199219 67.070312 188.59375 75.839844 183.953125 74.292969 C 148.386719 61.914062 60.246094 66.039062 35.503906 73.261719 C 34.472656 73.261719 30.863281 71.714844 31.378906 70.683594 "/>
  </g>
</svg>