<?xml version="1.0" encoding="UTF-8" standalone="no"?>
<!-- Created with Inkscape (http://www.inkscape.org/) -->

<svg
   xmlns:dc="http://purl.org/dc/elements/1.1/"
   xmlns:cc="http://creativecommons.org/ns#"
   xmlns:rdf="http://www.w3.org/1999/02/22-rdf-syntax-ns#"
   xmlns:svg="http://www.w3.org/2000/svg"
   xmlns="http://www.w3.org/2000/svg"
   version="1.1"
   width="541.49603"
   height="204.67648"
   id="svg2985"
   xml:space="preserve"><metadata
     id="metadata2991"><rdf:RDF><cc:Work
         rdf:about=""><dc:format>image/svg+xml</dc:format><dc:type
           rdf:resource="http://purl.org/dc/dcmitype/StillImage" /><dc:title></dc:title></cc:Work></rdf:RDF></metadata><defs
     id="defs2989"><clipPath
       id="clipPath3001"><path
         d="m 2214,3642.75 0,-267 534,0 0,267 -534,0 z"
         id="path3003" /></clipPath></defs><g
     transform="matrix(1.25,0,0,-1.25,-403.28733,664.77324)"
     id="g2993"
     style="fill:#3cade2;fill-opacity:1"><g
       transform="matrix(1.0572888,0,0,1.0572888,-2083.8884,-3266.8062)"
       id="g2997"
       style="fill:#3cade2;fill-opacity:1"><g
         clip-path="url(#clipPath3001)"
         id="g2999"
         style="fill:#3cade2;fill-opacity:1"><path
           d="m 2590,3494.75 c -8,1 -9,9 -8,13 0,3 1,11 3,13 1,2 5,6 7,6 0,0 -1,-7 1,-11 1,-4 6,-11 6,-11 0,0 -2,-10 -9,-10 z m -99,26 c 3,4 6,7 10,5 3,-2 0,-9 -2,-11 -3,-2 -11,-6 -11,-6 0,0 0,7 3,12 z m -174,-54 c -4,-8 -10,-21 -20,-11 0,0 -8,12 2,20 9,9 24,14 24,14 0,0 -2,-16 -6,-23 z m 126,99 c 4,-1 -4,-27 -8,-31 0,0 3,32 8,31 z m 93,-18 c 1,7 4,18 7,17 4,0 3,-8 0,-18 -4,-10 -10,-19 -10,-19 0,0 1,13 3,20 z m 146,-30 c -2,4 -3,3 -4,1 0,-3 -10,-24 -18,-25 -8,0 -15,11 -17,13 3,10 28,30 28,30 0,0 -4,5 -8,7 -4,2 -6,0 -8,-2 -2,-2 -17,-27 -17,-27 0,0 -5,9 -5,11 3,7 3,13 -2,15 -4,1 -8,-2 -11,-6 -3,-3 3,-18 3,-18 0,0 -7,-9 -14,-7 1,12 -2,22 -6,24 -8,3 -4,0 -9,-1 -15,-1 -18,-13 -22,-19 -4,-7 -11,-4 -11,-4 0,1 -1,33 -14,23 -15,-12 4,-28 4,-28 0,0 -3,-11 -9,-12 -6,0 -10,15 -9,22 7,7 33,58 11,65 -19,2 -24,-69 -24,-69 0,0 -12,-17 -22,-19 -10,-1 -9,8 -9,11 3,0 3,1 7,2 14,6 27,30 8,32 -20,2 -28,-30 -28,-31 -1,-1 -5,-10 -12,-11 -7,0 -10,13 -10,13 0,0 4,3 8,7 3,4 11,22 -3,23 -13,2 -25,-21 -25,-21 0,0 0,4 0,5 9,10 29,56 8,58 -19,0 -21,-66 -21,-66 0,0 -11,-21 -17,-21 -6,0 -7,24 -6,25 1,1 11,21 -1,21 -11,1 -12,-28 -12,-29 0,0 -8,-17 -13,-17 -6,0 -5,15 -3,21 2,7 8,21 1,23 -8,1 -13,-16 -13,-20 -2,-3 -16,-10 -16,-10 4,34 2,66 2,70 4,2 10,10 0,12 -9,2 -13,-8 -13,-8 0,0 -7,-3 -21,-5 -13,-3 -23,-2 -23,-2 0,-8 8,-16 10,-18 2,-1 4,0 5,0 1,0 17,7 27,13 1,-1 0,-62 -3,-69 -7,-3 -40,-15 -44,-29 -3,-11 -1,-30 21,-29 30,1 37,55 37,55 l 17,10 c 0,0 -3,-22 8,-24 11,-3 22,15 22,15 0,0 4,-18 14,-19 10,0 20,20 20,20 0,0 0,-9 0,-11 0,-2 0,-5 4,-5 4,1 10,6 10,6 0,0 0,9 1,13 0,4 11,26 17,25 7,-1 -2,-15 -4,-15 -2,0 -7,-1 -9,-5 -1,-3 4,-4 4,-4 0,0 3,-19 13,-21 10,-3 20,13 20,13 0,0 1,-14 16,-14 16,0 29,21 29,21 0,0 0,-20 19,-20 18,-1 17,20 19,20 12,0 11,4 11,1 0,-3 -2,-20 17,-20 18,1 18,18 20,19 13,-1 18,9 18,9 l 5,-8 c 0,0 -7,-18 -8,-21 0,-4 6,-6 6,-6 l 8,18 c 0,0 8,-14 19,-13 17,0 28,34 27,37"
           id="path3005"
           style="fill:#3cade2;fill-opacity:1;fill-rule:nonzero;stroke:none" /><path
           d="m 2337,3455.75 c 5,7 204,32 295,12 17,-5 10,-22 1,-19 -69,24 -240,16 -288,2 -2,0 -9,3 -8,5"
           id="path3007"
           style="fill:#3cade2;fill-opacity:1;fill-rule:nonzero;stroke:none" /></g></g></g></svg>