<?xml version="1.0" encoding="UTF-8" standalone="no"?>
<!-- Created with Inkscape (http://www.inkscape.org/) -->

<svg
   xmlns:dc="http://purl.org/dc/elements/1.1/"
   xmlns:cc="http://creativecommons.org/ns#"
   xmlns:rdf="http://www.w3.org/1999/02/22-rdf-syntax-ns#"
   xmlns:svg="http://www.w3.org/2000/svg"
   xmlns="http://www.w3.org/2000/svg"
   xmlns:sodipodi="http://sodipodi.sourceforge.net/DTD/sodipodi-0.dtd"
   xmlns:inkscape="http://www.inkscape.org/namespaces/inkscape"
   width="1000"
   height="243.88496"
   id="svg2"
   version="1.1"
   inkscape:version="0.48.2 r9819"
   sodipodi:docname="A.svg">
  <defs
     id="defs4">
    <clipPath
       clipPathUnits="userSpaceOnUse"
       id="clipPath3098">
      <path
         inkscape:connector-curvature="0"
         d="m 27.25,603.25 1024,0 0,-576 -1024,0 0,576 z"
         id="path3100" />
    </clipPath>
    <clipPath
       clipPathUnits="userSpaceOnUse"
       id="clipPath3497">
      <path
         inkscape:connector-curvature="0"
         d="m 27.25,603.25 1024,0 0,-576 -1024,0 0,576 z"
         id="path3499" />
    </clipPath>
    <clipPath
       clipPathUnits="userSpaceOnUse"
       id="clipPath3920">
      <path
         inkscape:connector-curvature="0"
         d="m 27.25,603.25 1024,0 0,-576 -1024,0 0,576 z"
         id="path3922" />
    </clipPath>
    <clipPath
       clipPathUnits="userSpaceOnUse"
       id="clipPath4335">
      <path
         inkscape:connector-curvature="0"
         d="m 27.25,603.25 1024,0 0,-576 -1024,0 0,576 z"
         id="path4337" />
    </clipPath>
    <clipPath
       clipPathUnits="userSpaceOnUse"
       id="clipPath4764">
      <path
         inkscape:connector-curvature="0"
         d="m 27.25,603.25 1024,0 0,-576 -1024,0 0,576 z"
         id="path4766" />
    </clipPath>
    <clipPath
       clipPathUnits="userSpaceOnUse"
       id="clipPath5207">
      <path
         inkscape:connector-curvature="0"
         d="m 27.25,603.25 1024,0 0,-576 -1024,0 0,576 z"
         id="path5209" />
    </clipPath>
    <clipPath
       clipPathUnits="userSpaceOnUse"
       id="clipPath5630">
      <path
         inkscape:connector-curvature="0"
         d="m 27.25,603.25 1024,0 0,-576 -1024,0 0,576 z"
         id="path5632" />
    </clipPath>
    <clipPath
       clipPathUnits="userSpaceOnUse"
       id="clipPath6059">
      <path
         inkscape:connector-curvature="0"
         d="m 27.25,603.25 1024,0 0,-576 -1024,0 0,576 z"
         id="path6061" />
    </clipPath>
    <clipPath
       clipPathUnits="userSpaceOnUse"
       id="clipPath6522">
      <path
         inkscape:connector-curvature="0"
         d="m 27.25,603.25 1024,0 0,-576 -1024,0 0,576 z"
         id="path6524" />
    </clipPath>
    <clipPath
       clipPathUnits="userSpaceOnUse"
       id="clipPath6995">
      <path
         inkscape:connector-curvature="0"
         d="m 27.25,603.25 1024,0 0,-576 -1024,0 0,576 z"
         id="path6997" />
    </clipPath>
  </defs>
  <sodipodi:namedview
     id="base"
     pagecolor="#ffffff"
     bordercolor="#666666"
     borderopacity="1.0"
     inkscape:pageopacity="0.0"
     inkscape:pageshadow="2"
     inkscape:zoom="0.49497475"
     inkscape:cx="1550.059"
     inkscape:cy="-59.50476"
     inkscape:document-units="px"
     inkscape:current-layer="layer1"
     showgrid="false"
     fit-margin-left="0.5"
     fit-margin-bottom="0.5"
     fit-margin-top="0.5"
     fit-margin-right="0.5"
     inkscape:window-width="1920"
     inkscape:window-height="1028"
     inkscape:window-x="-8"
     inkscape:window-y="-8"
     inkscape:window-maximized="1">
    <inkscape:grid
       type="xygrid"
       id="grid2996"
       empspacing="5"
       visible="true"
       enabled="true"
       snapvisiblegridlinesonly="true" />
  </sodipodi:namedview>
  <metadata
     id="metadata7">
    <rdf:RDF>
      <cc:Work
         rdf:about="">
        <dc:format>image/svg+xml</dc:format>
        <dc:type
           rdf:resource="http://purl.org/dc/dcmitype/StillImage" />
        <dc:title></dc:title>
      </cc:Work>
    </rdf:RDF>
  </metadata>
  <g
     inkscape:label="Layer 1"
     inkscape:groupmode="layer"
     id="layer1"
     transform="translate(709.00564,-304.84697)">
    <g
       transform="matrix(1.2039558,0,0,-1.2039558,-858.23934,806.33658)"
       id="g6991">
      <g
         id="g6993"
         clip-path="url(#clipPath6995)">
        <g
           id="g6999"
           transform="translate(325.6196,215.8105)">
          <path
             inkscape:connector-curvature="0"
             d="M 0,0 0,25.861 C 1.646,25.66 3.487,25.66 5.131,25.66 c 7.589,0 11.497,3.266 11.497,12.918 l 0,104.406 38.975,0 0,-106.078 C 55.603,8.809 41.26,-1.43 15.984,-1.43 9.856,-1.43 4.737,-0.604 0,0"
             style="fill:#8cd024;fill-opacity:1;fill-rule:nonzero;stroke:none"
             id="path7001" />
        </g>
        <g
           id="g7003"
           transform="translate(394.7134,286.1953)">
          <path
             inkscape:connector-curvature="0"
             d="m 0,0 0,72.6 39.001,0 0,-60.104 c 0,-12.094 6.35,-18.683 15.783,-18.683 9.25,0 16.245,6.589 16.245,18.683 l 0,60.104 38.962,0 0,-110.977 -38.962,0 0,15.197 C 63.833,-32.43 53.574,-40.836 37.771,-40.836 14.169,-40.836 0,-25.234 0,0"
             style="fill:#8cd024;fill-opacity:1;fill-rule:nonzero;stroke:none"
             id="path7005" />
        </g>
        <g
           id="g7007"
           transform="translate(519.6382,358.7949)">
          <path
             inkscape:connector-curvature="0"
             d="m 0,0 38.971,0 0,-15.58 c 7.176,9.23 17.424,18.051 33.246,18.051 23.582,0 37.731,-15.592 37.731,-40.817 l 0,-72.631 -38.981,0 0,60.106 c 0,12.111 -6.357,18.674 -15.599,18.674 -9.424,0 -16.397,-6.563 -16.397,-18.674 l 0,-60.106 -38.971,0 L 0,0 z"
             style="fill:#8cd024;fill-opacity:1;fill-rule:nonzero;stroke:none"
             id="path7009" />
        </g>
        <g
           id="g7011"
           transform="translate(664.0137,413.6387)">
          <path
             inkscape:connector-curvature="0"
             d="m 0,0 22.906,-38.961 -45.802,0 L 0,0 z"
             style="fill:#8cd024;fill-opacity:1;fill-rule:nonzero;stroke:none"
             id="path7013" />
        </g>
        <path
           inkscape:connector-curvature="0"
           d="m 644.523,358.795 38.961,0 0,-110.977 -38.961,0 0,110.977 z"
           style="fill:#8cd024;fill-opacity:1;fill-rule:nonzero;stroke:none"
           id="path7015" />
        <g
           id="g7017"
           transform="translate(816.0254,303.207)">
          <path
             inkscape:connector-curvature="0"
             d="m 0,0 0,0.402 c 0,31.604 -25.637,57.657 -61.141,57.657 -35.705,0 -61.545,-26.455 -61.545,-58.059 l 0,-0.402 c 0,-31.606 25.637,-57.647 61.131,-57.647 C -25.838,-58.049 0,-31.584 0,0 m -37.953,-0.402 c 0,-13.346 -9.039,-24.612 -23.188,-24.612 -13.738,0 -23.574,11.469 -23.574,25.014 l 0,0.402 c 0,13.344 9.022,24.631 23.16,24.631 13.746,0 23.602,-11.49 23.602,-25.033 l 0,-0.402 z"
             style="fill:#8cd024;fill-opacity:1;fill-rule:nonzero;stroke:none"
             id="path7019" />
        </g>
        <g
           id="g7021"
           transform="translate(825.9023,358.7949)">
          <path
             inkscape:connector-curvature="0"
             d="m 0,0 38.98,0 0,-22.354 c 6.35,15.19 16.631,25.036 35.092,24.208 l 0,-41.038 -3.267,0 c -20.346,0 -31.825,-11.687 -31.825,-37.326 l 0,-34.467 -38.98,0 L 0,0 z"
             style="fill:#8cd024;fill-opacity:1;fill-rule:nonzero;stroke:none"
             id="path7023" />
        </g>
        <path
           inkscape:connector-curvature="0"
           d="m 913.52,358.795 38.98,0 0,-110.977 -38.98,0 0,110.977 z"
           style="fill:#8cd024;fill-opacity:1;fill-rule:nonzero;stroke:none"
           id="path7025" />
        <g
           id="g7027"
           transform="translate(954.1328,394.9746)">
          <path
             inkscape:connector-curvature="0"
             d="m 0,0 c 0,11.689 -9.484,21.145 -21.123,21.145 -11.672,0 -21.145,-9.456 -21.145,-21.145 0,-11.65 9.473,-21.104 21.145,-21.104 C -9.484,-21.104 0,-11.65 0,0"
             style="fill:#8cd024;fill-opacity:1;fill-rule:nonzero;stroke:none"
             id="path7029" />
        </g>
        <path
           inkscape:connector-curvature="0"
           d="m 341.421,411.16 40.615,0 0,-36.482 -40.615,0 0,36.482 z"
           style="fill:#8cd024;fill-opacity:1;fill-rule:nonzero;stroke:none"
           id="path7031" />
        <g
           id="g7033"
           transform="translate(213.4351,402.0898)">
          <path
             inkscape:connector-curvature="0"
             d="m 0,0 c -49.1,0 -89.067,-39.889 -89.067,-88.947 0,-49.039 39.967,-88.946 89.067,-88.946 49.099,0 89.048,39.907 89.048,88.946 C 89.048,-39.889 49.099,0 0,0 m 0,-168.098 c -43.696,0 -79.252,35.493 -79.252,79.151 0,43.646 35.556,79.15 79.252,79.15 43.676,0 79.252,-35.504 79.252,-79.15 0,-43.658 -35.576,-79.151 -79.252,-79.151"
             style="fill:#858588;fill-opacity:1;fill-rule:nonzero;stroke:none"
             id="path7035" />
        </g>
        <g
           id="g7037"
           transform="translate(270.6362,331.4648)">
          <path
             inkscape:connector-curvature="0"
             d="m 0,0 -10.037,-25.557 -7.983,24.53 -13.019,0 15.066,-37.631 11.024,0 c 0,0 10.572,21.043 10.904,21.828 C 8.566,-11.045 5.564,-3.275 0,0"
             style="fill:#858588;fill-opacity:1;fill-rule:nonzero;stroke:none"
             id="path7039" />
        </g>
        <g
           id="g7041"
           transform="translate(232.9565,300.8281)">
          <path
             inkscape:connector-curvature="0"
             d="m 0,0 c -3.52,0 -4.556,3.125 -4.556,5.703 l 0,14.815 9.019,0 0,9.091 -9.019,0 0,11.397 -0.775,0 c -5.483,0 -10.925,-4.242 -10.925,-11.397 l 0,-23.281 c 0,-2.418 0.24,-4.474 0.725,-6.408 1.652,-6.51 7.881,-9.313 13.746,-9.313 3.83,0 7.378,1.127 10.681,3.366 L 5.48,1.977 C 4.725,1.471 3.021,0 0,0"
             style="fill:#858588;fill-opacity:1;fill-rule:nonzero;stroke:none"
             id="path7043" />
        </g>
        <g
           id="g7045"
           transform="translate(198.1362,331.3125)">
          <path
             inkscape:connector-curvature="0"
             d="M 0,0 C -5.159,0 -9.652,-1.824 -12.758,-5.229 -14.764,-2.449 -17.947,0 -23.703,0 -27.934,0 -33.135,-2.73 -35.01,-5.906 l -0.504,5.886 -0.785,0 c -5.201,-0.152 -10.32,-4.203 -10.32,-9.906 l 0,-28.58 11.689,0 0,20.215 c 0,2.408 0.696,4.383 2.078,5.947 1.39,1.531 3.182,2.319 5.411,2.319 2.005,0 3.498,-0.627 4.484,-1.856 1.028,-1.23 1.512,-2.963 1.512,-5.201 l 0,-21.424 11.317,0 0,20.215 c 0,2.408 0.655,4.383 2.017,5.947 1.359,1.531 3.154,2.319 5.451,2.319 1.994,0 3.498,-0.627 4.496,-1.856 0.987,-1.23 1.51,-2.963 1.51,-5.201 l 0,-21.424 11.691,0 0,23.27 c 0,4.685 -1.291,8.414 -3.861,11.154 C 8.606,-1.35 4.877,0 0,0"
             style="fill:#858588;fill-opacity:1;fill-rule:nonzero;stroke:none"
             id="path7047" />
        </g>
      </g>
    </g>
  </g>
</svg>
