<?xml version="1.0" encoding="UTF-8" standalone="yes"?>
<svg xmlns="http://www.w3.org/2000/svg" xmlns:xlink="http://www.w3.org/1999/xlink" width="436px" height="106.66666666666666px" viewBox="0 0 327 80" version="1.1">
  <g id="surface1">
    <path style=" stroke:none;fill-rule:nonzero;fill:rgb(54.901961%,81.568627%,14.117647%);fill-opacity:1;" d="M 79.394531 79.234375 L 79.394531 69.027344 C 80.042969 69.105469 80.769531 69.105469 81.414062 69.105469 C 84.402344 69.105469 85.941406 67.816406 85.941406 64.003906 L 85.941406 22.792969 L 101.285156 22.792969 L 101.285156 64.664062 C 101.285156 75.757812 95.640625 79.796875 85.6875 79.796875 C 83.273438 79.796875 81.261719 79.472656 79.394531 79.234375 "/>
    <path style=" stroke:none;fill-rule:nonzero;fill:rgb(54.901961%,81.568627%,14.117647%);fill-opacity:1;" d="M 106.597656 51.449219 L 106.597656 22.792969 L 121.949219 22.792969 L 121.949219 46.515625 C 121.949219 51.292969 124.449219 53.890625 128.164062 53.890625 C 131.804688 53.890625 134.558594 51.292969 134.558594 46.515625 L 134.558594 22.792969 L 149.898438 22.792969 L 149.898438 66.597656 L 134.558594 66.597656 L 134.558594 60.601562 C 131.726562 64.25 127.6875 67.570312 121.46875 67.570312 C 112.175781 67.570312 106.597656 61.410156 106.597656 51.449219 "/>
    <path style=" stroke:none;fill-rule:nonzero;fill:rgb(54.901961%,81.568627%,14.117647%);fill-opacity:1;" d="M 155.777344 22.792969 L 171.121094 22.792969 L 171.121094 28.941406 C 173.945312 25.300781 177.980469 21.816406 184.210938 21.816406 C 193.496094 21.816406 199.066406 27.972656 199.066406 37.929688 L 199.066406 66.597656 L 183.71875 66.597656 L 183.71875 42.875 C 183.71875 38.09375 181.214844 35.5 177.578125 35.5 C 173.867188 35.5 171.121094 38.09375 171.121094 42.875 L 171.121094 66.597656 L 155.777344 66.597656 Z M 155.777344 22.792969 "/>
    <path style=" stroke:none;fill-rule:nonzero;fill:rgb(54.901961%,81.568627%,14.117647%);fill-opacity:1;" d="M 212.617188 1.144531 L 221.636719 16.523438 L 203.605469 16.523438 Z M 212.617188 1.144531 "/>
    <path style=" stroke:none;fill-rule:nonzero;fill:rgb(54.901961%,81.568627%,14.117647%);fill-opacity:1;" d="M 204.945312 22.792969 L 220.285156 22.792969 L 220.285156 66.597656 L 204.945312 66.597656 Z M 204.945312 22.792969 "/>
    <path style=" stroke:none;fill-rule:nonzero;fill:rgb(54.901961%,81.568627%,14.117647%);fill-opacity:1;" d="M 272.464844 44.734375 L 272.464844 44.578125 C 272.464844 32.101562 262.371094 21.816406 248.394531 21.816406 C 234.335938 21.816406 224.164062 32.257812 224.164062 44.734375 L 224.164062 44.894531 C 224.164062 57.371094 234.257812 67.648438 248.230469 67.648438 C 262.292969 67.648438 272.464844 57.203125 272.464844 44.734375 M 257.523438 44.894531 C 257.523438 50.160156 253.964844 54.609375 248.394531 54.609375 C 242.984375 54.609375 239.113281 50.082031 239.113281 44.734375 L 239.113281 44.578125 C 239.113281 39.308594 242.664062 34.851562 248.230469 34.851562 C 253.640625 34.851562 257.523438 39.390625 257.523438 44.734375 Z M 257.523438 44.894531 "/>
    <path style=" stroke:none;fill-rule:nonzero;fill:rgb(54.901961%,81.568627%,14.117647%);fill-opacity:1;" d="M 276.351562 22.792969 L 291.699219 22.792969 L 291.699219 31.617188 C 294.199219 25.621094 298.246094 21.734375 305.515625 22.058594 L 305.515625 38.257812 L 304.226562 38.257812 C 296.21875 38.257812 291.699219 42.875 291.699219 52.992188 L 291.699219 66.597656 L 276.351562 66.597656 Z M 276.351562 22.792969 "/>
    <path style=" stroke:none;fill-rule:nonzero;fill:rgb(54.901961%,81.568627%,14.117647%);fill-opacity:1;" d="M 310.847656 22.792969 L 326.195312 22.792969 L 326.195312 66.597656 L 310.847656 66.597656 Z M 310.847656 22.792969 "/>
    <path style=" stroke:none;fill-rule:nonzero;fill:rgb(54.901961%,81.568627%,14.117647%);fill-opacity:1;" d="M 326.835938 8.511719 C 326.835938 3.898438 323.101562 0.164062 318.519531 0.164062 C 313.925781 0.164062 310.195312 3.898438 310.195312 8.511719 C 310.195312 13.109375 313.925781 16.839844 318.519531 16.839844 C 323.101562 16.839844 326.835938 13.109375 326.835938 8.511719 "/>
    <path style=" stroke:none;fill-rule:nonzero;fill:rgb(54.901961%,81.568627%,14.117647%);fill-opacity:1;" d="M 85.617188 2.121094 L 101.605469 2.121094 L 101.605469 16.523438 L 85.617188 16.523438 Z M 85.617188 2.121094 "/>
    <path style=" stroke:none;fill-rule:nonzero;fill:rgb(52.156863%,52.156863%,53.333333%);fill-opacity:1;" d="M 35.230469 5.703125 C 15.898438 5.703125 0.164062 21.449219 0.164062 40.8125 C 0.164062 60.171875 15.898438 75.921875 35.230469 75.921875 C 54.558594 75.921875 70.285156 60.171875 70.285156 40.8125 C 70.285156 21.449219 54.558594 5.703125 35.230469 5.703125 M 35.230469 72.058594 C 18.027344 72.058594 4.027344 58.046875 4.027344 40.8125 C 4.027344 23.585938 18.027344 9.570312 35.230469 9.570312 C 52.421875 9.570312 66.429688 23.585938 66.429688 40.8125 C 66.429688 58.046875 52.421875 72.058594 35.230469 72.058594 "/>
    <path style=" stroke:none;fill-rule:nonzero;fill:rgb(52.156863%,52.156863%,53.333333%);fill-opacity:1;" d="M 57.75 33.582031 L 53.796875 43.667969 L 50.652344 33.984375 L 45.527344 33.984375 L 51.460938 48.839844 L 55.800781 48.839844 C 55.800781 48.839844 59.960938 40.535156 60.09375 40.222656 C 61.121094 37.941406 59.9375 34.875 57.75 33.582031 "/>
    <path style=" stroke:none;fill-rule:nonzero;fill:rgb(52.156863%,52.156863%,53.333333%);fill-opacity:1;" d="M 42.914062 45.675781 C 41.527344 45.675781 41.121094 44.441406 41.121094 43.421875 L 41.121094 37.574219 L 44.671875 37.574219 L 44.671875 33.984375 L 41.121094 33.984375 L 41.121094 29.488281 L 40.816406 29.488281 C 38.65625 29.488281 36.515625 31.160156 36.515625 33.984375 L 36.515625 43.175781 C 36.515625 44.128906 36.609375 44.941406 36.800781 45.707031 C 37.449219 48.277344 39.902344 49.382812 42.210938 49.382812 C 43.71875 49.382812 45.117188 48.9375 46.417969 48.054688 L 45.070312 44.894531 C 44.773438 45.09375 44.101562 45.675781 42.914062 45.675781 "/>
    <path style=" stroke:none;fill-rule:nonzero;fill:rgb(52.156863%,52.156863%,53.333333%);fill-opacity:1;" d="M 29.207031 33.640625 C 27.175781 33.640625 25.40625 34.359375 24.183594 35.703125 C 23.394531 34.605469 22.140625 33.640625 19.875 33.640625 C 18.207031 33.640625 16.160156 34.71875 15.421875 35.972656 L 15.222656 33.648438 L 14.914062 33.648438 C 12.867188 33.707031 10.851562 35.308594 10.851562 37.558594 L 10.851562 48.839844 L 15.453125 48.839844 L 15.453125 40.859375 C 15.453125 39.910156 15.726562 39.128906 16.273438 38.511719 C 16.820312 37.910156 17.523438 37.597656 18.402344 37.597656 C 19.191406 37.597656 19.78125 37.84375 20.167969 38.332031 C 20.570312 38.816406 20.761719 39.5 20.761719 40.382812 L 20.761719 48.839844 L 25.21875 48.839844 L 25.21875 40.859375 C 25.21875 39.910156 25.476562 39.128906 26.011719 38.511719 C 26.546875 37.910156 27.253906 37.597656 28.160156 37.597656 C 28.941406 37.597656 29.535156 37.84375 29.929688 38.332031 C 30.316406 38.816406 30.523438 39.5 30.523438 40.382812 L 30.523438 48.839844 L 35.125 48.839844 L 35.125 39.65625 C 35.125 37.804688 34.617188 36.332031 33.605469 35.253906 C 32.59375 34.171875 31.125 33.640625 29.207031 33.640625 "/>
  </g>
</svg>