<?xml version="1.0" encoding="UTF-8" ?>
<!DOCTYPE svg PUBLIC "-//W3C//DTD SVG 1.1//EN" "http://www.w3.org/Graphics/SVG/1.1/DTD/svg11.dtd">
<svg width="361pt" height="121pt" viewBox="0 0 361 121" version="1.1" xmlns="http://www.w3.org/2000/svg">
<g id="#0bb7d4ff">
<path fill="#0bb7d4" opacity="1.00" d=" M 157.27 3.77 C 162.91 1.30 169.41 0.81 175.26 2.82 C 177.00 5.83 180.53 6.80 183.05 8.96 C 186.54 11.91 189.18 15.86 190.56 20.22 C 191.98 24.34 191.20 28.86 192.79 32.94 L 192.95 33.49 C 201.40 31.28 210.43 30.42 218.92 32.89 C 213.14 32.13 207.25 31.43 201.47 32.54 C 206.88 33.67 212.53 32.82 217.88 34.38 C 223.88 36.02 229.85 38.39 234.66 42.45 C 235.42 43.17 236.17 43.92 236.92 44.67 C 240.64 43.76 244.52 43.64 248.15 42.36 C 251.36 41.30 254.54 39.95 257.96 39.77 C 262.22 39.57 266.43 40.40 270.60 41.13 C 270.55 41.52 270.45 42.29 270.41 42.67 L 269.66 42.63 C 265.00 41.39 260.19 42.39 255.63 43.56 C 250.51 44.89 246.60 48.68 242.42 51.68 C 235.87 49.80 230.92 44.82 224.68 42.24 C 219.11 39.13 212.62 38.54 206.36 39.20 C 200.87 38.38 195.35 39.02 189.87 39.53 C 187.53 39.87 185.87 37.90 184.05 36.80 C 186.28 30.58 186.53 23.24 182.26 17.80 C 179.55 13.10 174.65 10.61 169.43 9.87 C 165.34 7.91 161.19 6.06 157.27 3.77 Z" />
</g>
<g id="#0bbee6ff">
<path fill="#0bbee6" opacity="1.00" d=" M 175.26 2.82 C 187.65 6.44 196.00 20.30 192.79 32.94 C 191.20 28.86 191.98 24.34 190.56 20.22 C 189.18 15.86 186.54 11.91 183.05 8.96 C 180.53 6.80 177.00 5.83 175.26 2.82 Z" />
<path fill="#0bbee6" opacity="1.00" d=" M 32.90 31.48 C 36.96 31.33 41.02 31.07 45.08 30.87 C 49.34 31.29 53.61 32.52 57.27 34.80 C 56.76 35.04 55.75 35.50 55.25 35.74 C 48.44 31.80 40.54 31.60 32.90 31.48 Z" />
<path fill="#0bbee6" opacity="1.00" d=" M 245.10 36.15 C 254.79 31.44 266.62 28.60 276.92 33.09 C 282.68 36.04 285.73 42.71 286.02 48.95 C 285.73 56.20 287.35 64.34 282.59 70.54 C 280.11 73.99 275.91 75.11 272.10 76.39 C 271.10 85.72 272.35 95.44 270.75 104.81 C 269.48 101.02 269.81 97.01 269.45 93.09 C 269.05 90.47 266.39 89.33 264.35 88.19 C 264.19 83.02 263.48 77.71 264.60 72.62 C 266.93 70.22 270.11 68.84 272.35 66.34 C 273.56 64.68 273.73 62.53 274.30 60.61 C 274.49 60.53 274.88 60.38 275.07 60.30 C 275.33 60.20 275.85 59.99 276.11 59.88 C 276.76 54.87 276.90 49.73 276.27 44.71 C 275.67 42.07 272.37 43.04 270.41 42.67 C 270.45 42.29 270.55 41.52 270.60 41.13 C 266.43 40.40 262.22 39.57 257.96 39.77 C 254.54 39.95 251.36 41.30 248.15 42.36 C 244.52 43.64 240.64 43.76 236.92 44.67 C 236.17 43.92 235.42 43.17 234.66 42.45 C 235.09 42.18 235.95 41.63 236.38 41.36 C 239.21 39.50 242.01 37.56 245.10 36.15 Z" />
</g>
<g id="#09a9cfff">
<path fill="#09a9cf" opacity="1.00" d=" M 145.92 13.49 C 148.56 9.20 152.71 5.87 157.27 3.77 C 161.19 6.06 165.34 7.91 169.43 9.87 C 168.75 10.36 168.08 10.84 167.41 11.31 C 168.75 11.90 170.66 12.04 170.80 13.88 C 168.97 13.78 167.16 13.74 165.34 13.73 C 163.10 13.81 160.48 13.02 158.59 14.64 C 155.55 16.92 152.50 19.20 149.46 21.48 C 146.19 23.80 145.03 27.80 143.42 31.26 C 141.79 25.22 143.81 19.13 145.92 13.49 Z" />
</g>
<g id="#0bbfbfff">
<path fill="#0bbfbf" opacity="1.00" d=" M 169.43 9.87 C 174.65 10.61 179.55 13.10 182.26 17.80 C 186.53 23.24 186.28 30.58 184.05 36.80 C 182.53 35.77 180.97 34.81 179.41 33.88 C 179.56 33.06 179.87 31.44 180.02 30.63 C 182.11 24.32 178.99 17.06 172.82 14.47 C 172.15 14.26 171.47 14.07 170.80 13.88 C 170.66 12.04 168.75 11.90 167.41 11.31 C 168.08 10.84 168.75 10.36 169.43 9.87 Z" />
</g>
<g id="#0782a5ff">
<path fill="#0782a5" opacity="1.00" d=" M 158.59 14.64 C 160.48 13.02 163.10 13.81 165.34 13.73 C 164.23 14.19 163.13 14.68 162.05 15.20 C 159.94 16.61 158.22 18.51 156.75 20.56 C 155.14 21.26 152.81 21.75 152.83 23.98 C 150.99 31.93 156.21 38.93 160.89 44.74 L 159.99 45.04 L 159.61 45.18 C 158.83 45.67 158.08 46.19 157.35 46.73 C 154.83 48.70 152.42 50.80 149.92 52.78 C 148.21 50.67 146.26 48.75 144.11 47.08 C 146.55 48.45 149.38 49.48 152.06 48.11 C 148.20 44.05 144.78 39.53 143.56 33.95 C 142.41 33.25 141.25 32.61 140.04 32.04 L 141.53 32.59 C 141.11 26.04 141.71 18.83 145.92 13.49 C 143.81 19.13 141.79 25.22 143.42 31.26 C 145.03 27.80 146.19 23.80 149.46 21.48 C 152.50 19.20 155.55 16.92 158.59 14.64 Z" />
</g>
<g id="#e6f705ff">
<path fill="#e6f705" opacity="1.00" d=" M 165.34 13.73 C 167.16 13.74 168.97 13.78 170.80 13.88 C 171.47 14.07 172.15 14.26 172.82 14.47 C 171.91 20.88 174.95 27.23 179.61 31.51 C 178.19 34.26 175.83 36.32 173.33 38.06 C 170.77 38.63 168.15 38.82 165.54 38.70 C 167.32 37.81 169.12 36.95 170.92 36.10 C 169.37 29.31 165.66 23.29 163.75 16.60 C 162.91 16.78 162.07 16.96 161.24 17.14 C 161.44 16.65 161.85 15.69 162.05 15.20 C 163.13 14.68 164.23 14.19 165.34 13.73 Z" />
</g>
<g id="#c6d501ff">
<path fill="#c6d501" opacity="1.00" d=" M 156.75 20.56 C 158.22 18.51 159.94 16.61 162.05 15.20 C 161.85 15.69 161.44 16.65 161.24 17.14 C 162.07 16.96 162.91 16.78 163.75 16.60 C 165.66 23.29 169.37 29.31 170.92 36.10 C 169.12 36.95 167.32 37.81 165.54 38.70 C 157.53 37.25 153.29 27.74 156.75 20.56 Z" />
</g>
<g id="#f0fe22ff">
<path fill="#f0fe22" opacity="1.00" d=" M 172.82 14.47 C 178.99 17.06 182.11 24.32 180.02 30.63 L 179.61 31.51 C 174.95 27.23 171.91 20.88 172.82 14.47 Z" />
</g>
<g id="#066a84ff">
<path fill="#066a84" opacity="1.00" d=" M 152.83 23.98 C 152.81 21.75 155.14 21.26 156.75 20.56 C 153.29 27.74 157.53 37.25 165.54 38.70 C 168.15 38.82 170.77 38.63 173.33 38.06 C 171.33 39.57 169.31 41.04 167.24 42.43 C 169.69 42.92 172.13 43.50 174.49 44.37 C 169.95 44.54 165.41 44.35 160.89 44.74 C 156.21 38.93 150.99 31.93 152.83 23.98 Z" />
</g>
<g id="#0897c0ff">
<path fill="#0897c0" opacity="1.00" d=" M 24.31 32.96 C 30.83 30.22 38.15 30.12 45.08 30.87 C 41.02 31.07 36.96 31.33 32.90 31.48 C 40.54 31.60 48.44 31.80 55.25 35.74 C 55.75 35.50 56.76 35.04 57.27 34.80 C 58.72 34.09 60.16 33.36 61.63 32.68 C 61.57 33.18 61.45 34.16 61.39 34.65 C 62.10 34.68 62.80 34.71 63.51 34.74 C 66.03 38.76 70.22 42.17 70.66 47.16 L 69.68 46.41 C 68.90 45.83 68.10 45.27 67.32 44.70 C 66.24 43.83 65.47 42.28 63.92 42.18 C 59.06 41.16 54.19 42.90 49.33 42.58 C 44.32 41.38 39.10 39.46 33.93 40.92 C 32.05 41.34 31.30 43.27 30.35 44.70 C 30.15 44.81 29.75 45.02 29.55 45.13 L 29.29 45.31 C 29.18 45.60 28.95 46.19 28.84 46.49 C 25.23 48.31 20.46 49.41 18.56 53.34 C 17.29 59.50 18.18 65.85 17.50 72.08 C 16.83 65.74 17.38 59.36 17.08 53.01 C 17.00 49.03 16.70 44.94 17.94 41.10 C 18.95 37.68 21.79 35.30 24.31 32.96 Z" />
</g>
<g id="#099fc9ff">
<path fill="#099fc9" opacity="1.00" d=" M 61.63 32.68 C 74.80 27.27 91.06 28.05 102.91 36.28 C 102.72 37.92 104.42 39.92 105.86 38.28 C 110.14 35.29 115.05 33.14 120.18 32.14 C 119.37 32.77 118.56 33.41 117.77 34.06 C 126.33 32.79 134.97 33.20 143.56 33.95 C 144.78 39.53 148.20 44.05 152.06 48.11 C 149.38 49.48 146.55 48.45 144.11 47.08 C 140.90 45.10 137.32 43.89 133.78 42.66 C 129.63 39.21 123.94 41.87 119.16 42.21 C 112.77 42.85 109.02 49.60 102.38 49.38 C 102.28 48.77 102.09 47.56 101.99 46.96 C 101.95 46.66 101.86 46.05 101.82 45.75 C 96.42 43.63 90.45 44.68 84.81 44.82 C 84.61 44.98 84.22 45.29 84.02 45.45 C 83.76 45.66 83.23 46.09 82.97 46.30 L 82.30 46.82 C 77.93 47.95 74.41 50.81 70.80 53.37 C 70.81 51.30 70.87 49.22 70.66 47.16 C 70.22 42.17 66.03 38.76 63.51 34.74 C 62.80 34.71 62.10 34.68 61.39 34.65 C 61.45 34.16 61.57 33.18 61.63 32.68 Z" />
</g>
<g id="#07aed9f8">
<path fill="#07aed9" opacity="0.97" d=" M 120.18 32.14 C 126.64 30.52 133.57 30.31 140.04 32.04 C 141.25 32.61 142.41 33.25 143.56 33.95 C 134.97 33.20 126.33 32.79 117.77 34.06 C 118.56 33.41 119.37 32.77 120.18 32.14 Z" />
</g>
<g id="#088ba2ff">
<path fill="#088ba2" opacity="1.00" d=" M 179.61 31.51 L 180.02 30.63 C 179.87 31.44 179.56 33.06 179.41 33.88 C 177.27 37.13 175.34 40.68 175.40 44.69 C 175.17 44.61 174.71 44.45 174.49 44.37 C 172.13 43.50 169.69 42.92 167.24 42.43 C 169.31 41.04 171.33 39.57 173.33 38.06 C 175.83 36.32 178.19 34.26 179.61 31.51 Z" />
</g>
<g id="#08cbeaf4">
<path fill="#08cbea" opacity="0.96" d=" M 201.47 32.54 C 207.25 31.43 213.14 32.13 218.92 32.89 C 225.33 34.18 231.14 37.55 236.38 41.36 C 235.95 41.63 235.09 42.18 234.66 42.45 C 229.85 38.39 223.88 36.02 217.88 34.38 C 212.53 32.82 206.88 33.67 201.47 32.54 Z" />
</g>
<g id="#067297ff">
<path fill="#067297" opacity="1.00" d=" M 15.71 49.97 C 15.50 43.42 17.53 35.54 24.31 32.96 C 21.79 35.30 18.95 37.68 17.94 41.10 C 16.70 44.94 17.00 49.03 17.08 53.01 C 17.38 59.36 16.83 65.74 17.50 72.08 C 18.18 65.85 17.29 59.50 18.56 53.34 C 20.46 49.41 25.23 48.31 28.84 46.49 C 28.78 48.08 28.76 49.67 28.77 51.27 C 28.36 51.98 27.54 53.39 27.13 54.10 C 25.98 63.46 27.94 74.02 22.24 82.24 C 21.02 84.38 18.98 85.84 16.77 86.85 C 16.22 87.08 15.11 87.55 14.56 87.79 L 14.07 88.14 C 11.30 90.29 8.13 92.07 6.00 94.90 C 4.90 97.95 4.55 101.20 3.81 104.35 C 3.08 101.67 2.28 99.02 1.44 96.38 C 0.91 92.13 1.40 87.76 2.53 83.64 C 2.61 86.70 2.78 89.76 2.89 92.83 C 6.57 91.01 10.81 89.62 13.25 86.10 C 16.03 82.21 18.22 77.04 16.03 72.38 C 14.98 64.99 15.96 57.43 15.71 49.97 Z" />
</g>
<g id="#0aa6c3ff">
<path fill="#0aa6c3" opacity="1.00" d=" M 175.40 44.69 C 175.34 40.68 177.27 37.13 179.41 33.88 C 180.97 34.81 182.53 35.77 184.05 36.80 C 185.87 37.90 187.53 39.87 189.87 39.53 C 195.35 39.02 200.87 38.38 206.36 39.20 C 209.26 40.25 212.33 41.00 214.87 42.83 C 213.79 42.82 211.64 42.82 210.56 42.82 C 209.15 42.84 207.75 42.89 206.35 42.94 C 196.62 41.19 187.41 46.05 179.99 51.87 C 179.12 49.82 178.27 47.76 177.28 45.77 L 176.83 45.34 C 176.47 45.18 175.76 44.85 175.40 44.69 Z" />
</g>
<g id="#09bcdeea">
<path fill="#09bcde" opacity="0.92" d=" M 102.91 36.28 C 104.10 36.02 105.56 37.13 105.86 38.28 C 104.42 39.92 102.72 37.92 102.91 36.28 Z" />
</g>
<g id="#0bbcbbff">
<path fill="#0bbcbb" opacity="1.00" d=" M 206.36 39.20 C 212.62 38.54 219.11 39.13 224.68 42.24 C 230.92 44.82 235.87 49.80 242.42 51.68 C 242.85 52.06 243.70 52.81 244.13 53.18 C 244.56 53.21 245.43 53.27 245.86 53.30 C 243.21 55.25 240.24 56.70 237.33 58.19 C 232.62 49.90 223.96 44.90 214.87 42.83 C 212.33 41.00 209.26 40.25 206.36 39.20 Z" />
</g>
<g id="#078db6ff">
<path fill="#078db6" opacity="1.00" d=" M 33.93 40.92 C 39.10 39.46 44.32 41.38 49.33 42.58 C 54.19 42.90 59.06 41.16 63.92 42.18 C 65.47 42.28 66.24 43.83 67.32 44.70 C 62.34 44.69 57.27 44.14 52.36 45.18 C 52.12 45.35 51.64 45.69 51.40 45.86 C 50.74 46.39 50.09 46.95 49.45 47.50 C 48.83 46.94 48.21 46.38 47.58 45.84 C 42.15 43.57 36.07 44.91 30.35 44.70 C 31.30 43.27 32.05 41.34 33.93 40.92 Z" />
</g>
<g id="#088eb3ff">
<path fill="#088eb3" opacity="1.00" d=" M 119.16 42.21 C 123.94 41.87 129.63 39.21 133.78 42.66 C 129.98 42.65 126.13 42.91 122.51 44.16 C 120.41 44.90 118.37 45.80 116.37 46.79 C 111.74 48.82 107.81 52.03 103.59 54.75 C 103.17 52.96 102.68 51.19 102.38 49.38 C 109.02 49.60 112.77 42.85 119.16 42.21 Z" />
</g>
<g id="#0a9dc3ff">
<path fill="#0a9dc3" opacity="1.00" d=" M 255.63 43.56 C 260.19 42.39 265.00 41.39 269.66 42.63 C 265.81 43.33 262.02 44.36 258.38 45.80 C 253.55 47.07 249.65 50.22 245.86 53.30 C 245.43 53.27 244.56 53.21 244.13 53.18 C 243.70 52.81 242.85 52.06 242.42 51.68 C 246.60 48.68 250.51 44.89 255.63 43.56 Z" />
</g>
<g id="#f3f1eaff">
<path fill="#f3f1ea" opacity="1.00" d=" M 122.51 44.16 C 126.13 42.91 129.98 42.65 133.78 42.66 C 137.32 43.89 140.90 45.10 144.11 47.08 C 146.26 48.75 148.21 50.67 149.92 52.78 C 150.93 54.23 151.89 55.72 152.75 57.27 C 156.77 68.05 154.79 79.78 155.25 91.01 C 155.12 95.01 155.72 99.16 154.36 103.02 C 146.77 92.97 148.33 79.77 147.10 67.97 C 146.91 61.35 143.03 55.03 137.22 51.85 C 134.30 50.25 131.69 48.15 129.62 45.54 C 127.24 45.12 124.86 44.69 122.51 44.16 Z" />
</g>
<g id="#0993b0ff">
<path fill="#0993b0" opacity="1.00" d=" M 179.99 51.87 C 187.41 46.05 196.62 41.19 206.35 42.94 C 204.94 43.28 203.54 43.67 202.16 44.09 C 201.05 44.44 199.95 44.80 198.86 45.18 C 196.64 44.87 194.11 45.28 193.53 47.80 L 193.02 48.15 C 192.06 48.63 191.10 49.11 190.15 49.59 C 185.04 50.59 181.50 54.65 176.83 56.62 C 176.82 52.86 176.84 49.10 176.83 45.34 L 177.28 45.77 C 178.27 47.76 179.12 49.82 179.99 51.87 Z" />
</g>
<g id="#eefe0cff">
<path fill="#eefe0c" opacity="1.00" d=" M 206.35 42.94 C 207.75 42.89 209.15 42.84 210.56 42.82 C 213.44 48.89 220.75 50.21 225.25 54.70 C 231.85 60.01 234.75 68.20 236.59 76.18 C 240.22 73.48 239.80 68.72 240.04 64.69 C 242.90 73.78 241.30 84.17 235.72 91.90 C 235.14 92.33 233.96 93.17 233.37 93.59 C 233.73 92.34 234.11 91.09 234.48 89.84 C 233.50 88.38 231.49 87.13 231.95 85.13 C 232.68 79.40 233.72 73.44 232.13 67.77 C 230.09 62.67 226.46 58.26 222.12 54.93 C 218.08 51.91 212.77 51.87 208.36 49.68 C 206.09 48.10 203.92 46.28 201.12 45.72 C 201.38 45.31 201.90 44.50 202.16 44.09 C 203.54 43.67 204.94 43.28 206.35 42.94 Z" />
</g>
<g id="#f2ff2aff">
<path fill="#f2ff2a" opacity="1.00" d=" M 210.56 42.82 C 211.64 42.82 213.79 42.82 214.87 42.83 C 223.96 44.90 232.62 49.90 237.33 58.19 C 238.46 60.25 239.42 62.42 240.04 64.69 C 239.80 68.72 240.22 73.48 236.59 76.18 C 234.75 68.20 231.85 60.01 225.25 54.70 C 220.75 50.21 213.44 48.89 210.56 42.82 Z" />
</g>
<g id="#f9f7f1ff">
<path fill="#f9f7f1" opacity="1.00" d=" M 258.38 45.80 C 262.02 44.36 265.81 43.33 269.66 42.63 L 270.41 42.67 C 272.37 43.04 275.67 42.07 276.27 44.71 C 276.90 49.73 276.76 54.87 276.11 59.88 C 274.48 57.81 273.36 55.09 270.95 53.80 C 268.08 53.67 266.55 56.13 265.72 58.50 C 267.22 59.11 268.73 59.73 270.27 60.29 C 267.31 60.63 264.56 62.09 262.91 64.62 C 262.33 66.35 262.04 68.16 262.05 69.99 C 261.99 81.05 262.32 92.13 261.63 103.18 C 261.18 103.20 260.29 103.24 259.84 103.26 L 258.66 103.20 C 258.15 103.02 257.13 102.67 256.62 102.50 C 255.66 98.66 254.08 94.95 253.83 90.97 C 253.26 82.66 252.23 74.32 252.88 65.99 C 253.29 60.85 256.77 56.64 257.58 51.61 C 257.99 49.98 256.46 48.83 255.80 47.54 C 256.64 46.93 257.50 46.35 258.38 45.80 Z" />
<path fill="#f9f7f1" opacity="1.00" d=" M 29.55 45.13 C 29.75 45.02 30.15 44.81 30.35 44.70 C 36.07 44.91 42.15 43.57 47.58 45.84 C 47.22 56.22 47.51 66.61 47.31 76.99 C 47.20 80.27 46.80 83.55 45.98 86.73 C 45.36 83.85 44.58 80.97 44.61 78.00 C 44.72 67.41 44.67 56.82 44.68 46.23 C 42.55 46.17 40.43 46.11 38.31 46.03 C 35.61 45.91 32.90 45.79 30.22 45.44 L 29.55 45.13 Z" />
</g>
<g id="#fffffbff">
<path fill="#fffffb" opacity="1.00" d=" M 52.36 45.18 C 57.27 44.14 62.34 44.69 67.32 44.70 C 68.10 45.27 68.90 45.83 69.68 46.41 C 69.53 57.26 69.52 68.11 69.57 78.96 C 69.40 81.55 70.72 83.85 72.35 85.74 C 73.10 86.26 73.87 86.76 74.66 87.23 L 75.59 87.78 C 71.62 88.36 67.89 85.61 67.45 81.60 C 66.43 69.80 67.18 57.93 66.89 46.11 C 64.29 45.91 61.67 45.76 59.06 45.68 C 57.72 45.63 56.38 45.55 55.05 45.45 C 54.38 45.38 53.03 45.25 52.36 45.18 Z" />
</g>
<g id="#dad9d2ff">
<path fill="#dad9d2" opacity="1.00" d=" M 116.37 46.79 C 118.37 45.80 120.41 44.90 122.51 44.16 C 124.86 44.69 127.24 45.12 129.62 45.54 C 131.69 48.15 134.30 50.25 137.22 51.85 C 143.03 55.03 146.91 61.35 147.10 67.97 C 148.33 79.77 146.77 92.97 154.36 103.02 C 153.38 103.08 152.39 103.11 151.40 103.12 C 149.54 102.56 147.61 102.04 145.95 100.99 C 144.64 98.93 144.50 96.41 144.31 94.04 C 143.95 87.68 143.14 81.34 143.32 74.96 C 143.24 69.81 143.66 63.98 140.17 59.75 C 137.91 56.96 133.92 56.09 130.65 57.54 C 131.17 58.02 132.22 58.98 132.74 59.45 C 131.05 59.78 129.36 60.09 127.67 60.38 L 127.39 60.43 C 127.00 60.49 126.23 60.63 125.85 60.70 C 122.51 61.98 117.36 62.56 116.94 66.99 C 115.94 79.12 118.24 91.40 122.05 102.88 C 121.94 102.96 121.70 103.12 121.58 103.20 C 120.73 103.18 119.01 103.14 118.15 103.12 C 116.69 102.23 114.83 101.38 114.53 99.48 C 112.22 89.16 112.74 78.49 112.56 67.99 C 112.39 62.39 114.29 57.06 114.99 51.56 C 113.79 51.53 112.59 51.50 111.40 51.47 C 112.97 49.82 114.64 48.27 116.37 46.79 Z" />
</g>
<g id="#fbfaf3ff">
<path fill="#fbfaf3" opacity="1.00" d=" M 160.89 44.74 C 165.41 44.35 169.95 44.54 174.49 44.37 C 174.71 44.45 175.17 44.61 175.40 44.69 C 175.76 44.85 176.47 45.18 176.83 45.34 C 176.84 49.10 176.82 52.86 176.83 56.62 C 176.84 58.20 176.86 59.77 176.91 61.35 C 176.70 70.73 176.81 80.11 176.82 89.49 C 176.69 93.80 176.89 98.12 176.72 102.43 C 176.42 102.64 175.82 103.07 175.52 103.28 L 174.88 102.72 C 174.64 94.07 172.26 85.66 172.02 77.02 C 171.82 70.99 170.99 65.00 171.12 58.96 C 171.07 55.42 171.38 51.82 170.60 48.33 C 169.64 46.31 167.08 46.39 165.22 45.89 C 163.48 45.59 161.74 45.30 159.99 45.04 L 160.89 44.74 Z" />
</g>
<g id="#d9e901ff">
<path fill="#d9e901" opacity="1.00" d=" M 198.86 45.18 C 199.95 44.80 201.05 44.44 202.16 44.09 C 201.90 44.50 201.38 45.31 201.12 45.72 C 203.92 46.28 206.09 48.10 208.36 49.68 C 212.77 51.87 218.08 51.91 222.12 54.93 C 226.46 58.26 230.09 62.67 232.13 67.77 C 233.72 73.44 232.68 79.40 231.95 85.13 C 231.49 87.13 233.50 88.38 234.48 89.84 C 234.11 91.09 233.73 92.34 233.37 93.59 C 233.96 93.17 235.14 92.33 235.72 91.90 C 234.84 93.13 233.89 94.30 232.89 95.42 C 231.64 96.63 230.35 97.79 228.98 98.85 C 227.08 100.05 225.15 101.24 223.13 102.24 C 215.95 98.75 207.57 99.15 200.44 95.52 C 195.18 92.65 190.58 88.27 188.27 82.67 C 185.97 77.80 185.93 72.28 186.36 67.03 C 186.71 62.83 188.59 58.58 186.89 54.43 C 188.83 52.24 190.95 50.22 193.02 48.15 L 193.53 47.80 C 195.58 47.62 197.43 46.66 198.86 45.18 M 208.93 60.82 L 208.32 60.83 C 206.02 59.21 203.67 61.26 201.58 62.21 C 199.40 61.82 196.87 61.19 195.03 62.86 C 185.44 71.52 191.72 90.95 205.00 91.40 C 208.98 92.03 211.83 88.82 215.19 87.35 C 214.79 87.18 214.00 86.84 213.60 86.66 C 216.84 85.50 220.23 83.90 222.07 80.83 C 222.72 81.69 223.37 82.56 224.03 83.43 C 228.61 79.89 230.79 73.33 228.22 67.95 C 226.80 62.47 221.55 58.91 216.21 57.95 C 213.98 59.36 211.48 60.22 208.93 60.82 Z" />
</g>
<g id="#adada8ff">
<path fill="#adada8" opacity="1.00" d=" M 29.29 45.31 L 29.55 45.13 L 30.22 45.44 C 31.88 46.69 34.63 47.61 34.57 50.09 C 35.03 58.03 34.70 66.00 34.86 73.96 C 34.77 78.01 35.32 82.45 33.04 86.05 C 32.28 87.21 31.47 88.74 29.87 88.76 C 28.03 88.88 27.07 86.91 25.79 85.92 C 28.30 83.22 29.01 79.55 28.85 75.96 C 28.87 67.73 28.94 59.50 28.77 51.27 C 28.76 49.67 28.78 48.08 28.84 46.49 C 28.95 46.19 29.18 45.60 29.29 45.31 Z" />
</g>
<g id="#acaca6ff">
<path fill="#acaca6" opacity="1.00" d=" M 51.40 45.86 C 51.64 45.69 52.12 45.35 52.36 45.18 C 53.03 45.25 54.38 45.38 55.05 45.45 C 56.59 54.19 56.74 63.10 56.66 71.96 C 56.65 76.29 56.63 80.75 58.06 84.90 C 60.25 91.39 65.89 96.44 72.38 98.44 C 75.97 99.55 79.66 100.32 83.33 101.16 C 83.14 102.09 82.92 103.02 82.74 103.95 C 70.75 107.52 57.05 100.33 53.03 88.54 C 50.88 82.61 51.35 76.20 51.26 70.01 C 51.34 61.96 51.06 53.90 51.40 45.86 Z" />
</g>
<g id="#b1b1abff">
<path fill="#b1b1ab" opacity="1.00" d=" M 84.02 45.45 C 84.22 45.29 84.61 44.98 84.81 44.82 L 85.25 45.55 C 88.65 52.85 88.06 61.19 88.37 69.04 C 88.12 74.92 90.02 81.90 85.28 86.54 C 84.51 85.69 83.75 84.84 82.98 84.00 L 83.17 83.16 C 83.64 81.13 83.93 79.07 83.93 76.99 C 83.90 66.47 83.74 55.96 84.02 45.45 Z" />
</g>
<g id="#ebeae2ff">
<path fill="#ebeae2" opacity="1.00" d=" M 84.81 44.82 C 90.45 44.68 96.42 43.63 101.82 45.75 C 101.65 55.16 101.61 64.58 101.57 73.99 C 101.84 81.54 100.84 89.54 95.93 95.60 C 94.74 96.85 93.49 98.06 92.14 99.15 L 90.84 99.28 C 92.03 97.65 93.38 96.12 94.36 94.35 C 92.23 85.02 93.89 75.42 93.04 65.97 C 92.35 59.61 93.33 53.15 92.23 46.83 C 89.99 46.01 87.57 45.96 85.25 45.55 L 84.81 44.82 Z" />
</g>
<g id="#005067ff">
<path fill="#005067" opacity="1.00" d=" M 157.35 46.73 C 158.08 46.19 158.83 45.67 159.61 45.18 C 159.60 45.47 159.58 46.06 159.57 46.35 C 159.19 65.10 159.62 83.85 159.47 102.60 C 163.66 103.57 167.96 103.16 172.22 103.21 C 173.04 103.23 174.69 103.26 175.52 103.28 C 173.85 104.29 172.13 105.21 170.44 106.17 C 167.94 106.25 165.36 106.67 162.90 106.05 C 160.89 105.30 159.12 104.06 157.29 102.97 C 153.45 106.74 147.86 105.62 143.01 105.76 C 140.81 105.98 139.13 104.44 137.61 103.10 L 138.50 103.14 C 142.80 103.21 147.10 103.17 151.40 103.12 C 152.39 103.11 153.38 103.08 154.36 103.02 C 155.72 99.16 155.12 95.01 155.25 91.01 C 154.79 79.78 156.77 68.05 152.75 57.27 C 152.91 56.96 153.21 56.35 153.36 56.04 C 154.43 57.73 155.48 59.43 156.53 61.13 C 157.39 56.39 158.55 51.53 157.35 46.73 Z" />
<path fill="#005067" opacity="1.00" d=" M 101.82 45.75 C 101.86 46.05 101.95 46.66 101.99 46.96 C 101.32 53.69 103.56 60.22 103.42 66.93 C 103.24 75.40 104.56 84.46 100.22 92.18 C 99.52 94.07 97.61 94.82 95.93 95.60 C 100.84 89.54 101.84 81.54 101.57 73.99 C 101.61 64.58 101.65 55.16 101.82 45.75 Z" />
</g>
<g id="#d0cfc8ff">
<path fill="#d0cfc8" opacity="1.00" d=" M 159.61 45.18 L 159.99 45.04 C 161.74 45.30 163.48 45.59 165.22 45.89 C 166.19 47.14 167.69 48.23 167.63 49.98 C 168.05 59.66 167.38 69.37 168.20 79.04 C 168.76 85.31 168.48 91.71 170.06 97.85 C 170.62 100.26 173.21 101.20 174.88 102.72 L 175.52 103.28 C 174.69 103.26 173.04 103.23 172.22 103.21 C 169.79 102.12 166.38 101.23 166.00 98.10 C 163.60 86.20 164.72 74.01 163.43 62.01 C 163.05 57.73 163.64 53.40 162.93 49.16 C 162.16 47.89 160.65 47.32 159.57 46.35 C 159.58 46.06 159.60 45.47 159.61 45.18 Z" />
</g>
<g id="#c6c5c0ff">
<path fill="#c6c5c0" opacity="1.00" d=" M 30.22 45.44 C 32.90 45.79 35.61 45.91 38.31 46.03 C 39.19 57.32 38.46 68.66 39.03 79.96 C 39.41 84.80 40.28 89.59 40.43 94.45 C 40.87 94.36 41.73 94.16 42.16 94.06 C 39.66 97.85 35.84 100.54 31.81 102.50 C 31.15 101.71 30.51 100.90 29.86 100.10 C 26.30 98.89 22.48 98.48 19.01 97.02 C 15.94 95.03 15.56 90.99 14.56 87.79 C 15.11 87.55 16.22 87.08 16.77 86.85 C 19.80 86.81 22.90 86.98 25.79 85.92 C 27.07 86.91 28.03 88.88 29.87 88.76 C 31.47 88.74 32.28 87.21 33.04 86.05 C 35.32 82.45 34.77 78.01 34.86 73.96 C 34.70 66.00 35.03 58.03 34.57 50.09 C 34.63 47.61 31.88 46.69 30.22 45.44 Z" />
</g>
<g id="#e2e1daff">
<path fill="#e2e1da" opacity="1.00" d=" M 38.31 46.03 C 40.43 46.11 42.55 46.17 44.68 46.23 C 44.67 56.82 44.72 67.41 44.61 78.00 C 44.58 80.97 45.36 83.85 45.98 86.73 C 45.13 89.37 43.78 91.82 42.16 94.06 C 41.73 94.16 40.87 94.36 40.43 94.45 C 40.28 89.59 39.41 84.80 39.03 79.96 C 38.46 68.66 39.19 57.32 38.31 46.03 Z" />
<path fill="#e2e1da" opacity="1.00" d=" M 59.06 45.68 C 61.67 45.76 64.29 45.91 66.89 46.11 C 67.18 57.93 66.43 69.80 67.45 81.60 C 67.89 85.61 71.62 88.36 75.59 87.78 C 76.67 87.87 77.76 87.95 78.85 88.02 C 78.26 89.71 77.75 91.44 76.94 93.04 C 74.31 93.88 71.35 94.00 68.70 93.21 C 64.14 90.90 60.68 86.17 60.47 80.98 C 59.82 69.22 61.07 57.36 59.06 45.68 Z" />
</g>
<g id="#00516bff">
<path fill="#00516b" opacity="1.00" d=" M 47.58 45.84 C 48.21 46.38 48.83 46.94 49.45 47.50 C 50.09 46.95 50.74 46.39 51.40 45.86 C 51.06 53.90 51.34 61.96 51.26 70.01 C 51.35 76.20 50.88 82.61 53.03 88.54 C 57.05 100.33 70.75 107.52 82.74 103.95 C 83.46 103.76 84.91 103.36 85.63 103.16 C 85.39 103.65 84.91 104.63 84.67 105.13 C 83.67 105.53 82.66 105.90 81.63 106.23 C 76.73 107.09 71.71 109.48 66.72 108.22 C 60.39 104.88 54.95 99.63 51.89 93.10 C 50.84 91.65 49.55 88.64 47.36 90.10 C 45.03 92.57 43.30 95.55 40.91 97.98 C 40.00 98.95 39.07 99.91 38.15 100.87 C 32.82 103.81 27.12 106.45 21.00 107.07 C 18.77 107.32 16.93 105.81 15.19 104.67 C 20.79 104.62 26.56 104.74 31.81 102.50 C 35.84 100.54 39.66 97.85 42.16 94.06 C 43.78 91.82 45.13 89.37 45.98 86.73 C 46.80 83.55 47.20 80.27 47.31 76.99 C 47.51 66.61 47.22 56.22 47.58 45.84 Z" />
<path fill="#00516b" opacity="1.00" d=" M 262.91 64.62 C 264.56 62.09 267.31 60.63 270.27 60.29 C 271.86 60.33 273.46 60.35 275.07 60.30 C 274.88 60.38 274.49 60.53 274.30 60.61 C 270.50 61.94 267.02 64.35 262.91 64.62 Z" />
</g>
<g id="#c8c8c1ff">
<path fill="#c8c8c1" opacity="1.00" d=" M 55.05 45.45 C 56.38 45.55 57.72 45.63 59.06 45.68 C 61.07 57.36 59.82 69.22 60.47 80.98 C 60.68 86.17 64.14 90.90 68.70 93.21 C 71.35 94.00 74.31 93.88 76.94 93.04 C 77.75 91.44 78.26 89.71 78.85 88.02 C 77.76 87.95 76.67 87.87 75.59 87.78 L 74.66 87.23 C 77.87 87.60 80.91 86.47 82.98 84.00 C 83.75 84.84 84.51 85.69 85.28 86.54 C 90.02 81.90 88.12 74.92 88.37 69.04 C 88.06 61.19 88.65 52.85 85.25 45.55 C 87.57 45.96 89.99 46.01 92.23 46.83 C 93.33 53.15 92.35 59.61 93.04 65.97 C 93.89 75.42 92.23 85.02 94.36 94.35 C 93.38 96.12 92.03 97.65 90.84 99.28 L 92.14 99.15 C 90.18 100.80 87.90 102.00 85.63 103.16 C 84.91 103.36 83.46 103.76 82.74 103.95 C 82.92 103.02 83.14 102.09 83.33 101.16 C 79.66 100.32 75.97 99.55 72.38 98.44 C 65.89 96.44 60.25 91.39 58.06 84.90 C 56.63 80.75 56.65 76.29 56.66 71.96 C 56.74 63.10 56.59 54.19 55.05 45.45 Z" />
</g>
<g id="#456e79ff">
<path fill="#456e79" opacity="1.00" d=" M 82.97 46.30 C 83.23 46.09 83.76 45.66 84.02 45.45 C 83.74 55.96 83.90 66.47 83.93 76.99 C 83.93 79.07 83.64 81.13 83.17 83.16 C 83.19 71.64 83.80 60.06 82.82 48.57 C 82.86 48.00 82.93 46.87 82.97 46.30 Z" />
</g>
<g id="#e9e8e0ff">
<path fill="#e9e8e0" opacity="1.00" d=" M 165.22 45.89 C 167.08 46.39 169.64 46.31 170.60 48.33 C 171.38 51.82 171.07 55.42 171.12 58.96 C 170.99 65.00 171.82 70.99 172.02 77.02 C 172.26 85.66 174.64 94.07 174.88 102.72 C 173.21 101.20 170.62 100.26 170.06 97.85 C 168.48 91.71 168.76 85.31 168.20 79.04 C 167.38 69.37 168.05 59.66 167.63 49.98 C 167.69 48.23 166.19 47.14 165.22 45.89 Z" />
</g>
<g id="#05606fff">
<path fill="#05606f" opacity="1.00" d=" M 245.86 53.30 C 249.65 50.22 253.55 47.07 258.38 45.80 C 257.50 46.35 256.64 46.93 255.80 47.54 C 251.21 50.85 247.40 55.48 245.85 61.00 L 245.70 60.16 C 245.61 59.70 245.44 58.78 245.35 58.32 C 240.99 64.10 243.35 71.48 242.76 78.09 C 241.95 86.22 243.61 94.28 243.66 102.41 C 244.03 102.55 244.77 102.84 245.14 102.98 C 249.64 103.39 254.15 103.08 258.66 103.20 L 259.84 103.26 L 259.00 103.75 C 257.55 104.53 256.08 105.26 254.56 105.91 C 251.69 106.24 248.55 107.31 245.74 106.22 C 240.96 103.28 235.89 100.35 232.89 95.42 C 233.89 94.30 234.84 93.13 235.72 91.90 C 241.30 84.17 242.90 73.78 240.04 64.69 C 239.42 62.42 238.46 60.25 237.33 58.19 C 240.24 56.70 243.21 55.25 245.86 53.30 Z" />
</g>
<g id="#066e8eff">
<path fill="#066e8e" opacity="1.00" d=" M 69.68 46.41 L 70.66 47.16 C 70.87 49.22 70.81 51.30 70.80 53.37 C 70.60 59.92 70.89 66.47 70.96 73.01 C 71.06 75.89 70.81 79.03 72.62 81.47 C 74.41 72.21 74.55 62.74 75.63 53.40 C 77.28 50.72 79.99 48.90 82.30 46.82 L 82.97 46.30 C 82.93 46.87 82.86 48.00 82.82 48.57 C 81.19 56.64 81.99 64.89 81.57 73.05 C 81.24 78.58 78.90 85.40 72.35 85.74 C 70.72 83.85 69.40 81.55 69.57 78.96 C 69.52 68.11 69.53 57.26 69.68 46.41 Z" />
</g>
<g id="#0885a7ff">
<path fill="#0885a7" opacity="1.00" d=" M 70.80 53.37 C 74.41 50.81 77.93 47.95 82.30 46.82 C 79.99 48.90 77.28 50.72 75.63 53.40 C 74.55 62.74 74.41 72.21 72.62 81.47 C 70.81 79.03 71.06 75.89 70.96 73.01 C 70.89 66.47 70.60 59.92 70.80 53.37 Z" />
</g>
<g id="#06607aff">
<path fill="#06607a" opacity="1.00" d=" M 101.99 46.96 C 102.09 47.56 102.28 48.77 102.38 49.38 C 102.68 51.19 103.17 52.96 103.59 54.75 C 107.81 52.03 111.74 48.82 116.37 46.79 C 114.64 48.27 112.97 49.82 111.40 51.47 C 108.56 54.56 107.02 58.52 106.06 62.55 C 105.75 63.53 105.45 64.50 105.16 65.48 C 103.31 70.44 104.06 75.78 103.88 80.94 C 103.84 87.63 103.20 94.34 103.86 101.01 C 103.81 102.99 105.72 104.03 107.36 104.54 C 110.95 105.53 114.72 105.35 118.41 105.39 C 115.16 107.99 111.21 109.42 107.05 109.55 C 108.08 110.63 109.09 111.72 110.16 112.76 C 107.52 111.90 105.45 109.91 102.84 109.00 C 100.83 108.17 98.44 107.82 96.98 106.05 C 95.43 104.49 93.88 102.23 91.34 102.65 C 89.03 103.19 86.91 104.35 84.67 105.13 C 84.91 104.63 85.39 103.65 85.63 103.16 C 87.90 102.00 90.18 100.80 92.14 99.15 C 93.49 98.06 94.74 96.85 95.93 95.60 C 97.61 94.82 99.52 94.07 100.22 92.18 C 104.56 84.46 103.24 75.40 103.42 66.93 C 103.56 60.22 101.32 53.69 101.99 46.96 Z" />
</g>
<g id="#066c8aff">
<path fill="#066c8a" opacity="1.00" d=" M 149.92 52.78 C 152.42 50.80 154.83 48.70 157.35 46.73 C 158.55 51.53 157.39 56.39 156.53 61.13 C 155.48 59.43 154.43 57.73 153.36 56.04 C 153.21 56.35 152.91 56.96 152.75 57.27 C 151.89 55.72 150.93 54.23 149.92 52.78 Z" />
</g>
<g id="#bbbbb5ff">
<path fill="#bbbbb5" opacity="1.00" d=" M 159.57 46.35 C 160.65 47.32 162.16 47.89 162.93 49.16 C 163.64 53.40 163.05 57.73 163.43 62.01 C 164.72 74.01 163.60 86.20 166.00 98.10 C 166.38 101.23 169.79 102.12 172.22 103.21 C 167.96 103.16 163.66 103.57 159.47 102.60 C 159.62 83.85 159.19 65.10 159.57 46.35 Z" />
</g>
<g id="#586913ff">
<path fill="#586913" opacity="1.00" d=" M 190.15 49.59 C 191.10 49.11 192.06 48.63 193.02 48.15 C 190.95 50.22 188.83 52.24 186.89 54.43 C 179.78 62.82 178.33 75.33 182.58 85.37 C 184.98 91.96 190.26 96.79 195.67 100.95 C 187.81 97.81 182.54 90.31 179.81 82.55 C 178.85 77.84 178.83 72.99 179.11 68.21 C 180.40 60.87 184.84 54.62 190.15 49.59 Z" />
</g>
<g id="#dddcd4ff">
<path fill="#dddcd4" opacity="1.00" d=" M 245.85 61.00 C 247.40 55.48 251.21 50.85 255.80 47.54 C 256.46 48.83 257.99 49.98 257.58 51.61 C 256.77 56.64 253.29 60.85 252.88 65.99 C 252.23 74.32 253.26 82.66 253.83 90.97 C 254.08 94.95 255.66 98.66 256.62 102.50 C 254.31 102.07 251.97 101.84 249.64 101.62 C 248.82 93.96 248.23 86.30 248.18 78.60 C 247.73 78.49 246.82 78.26 246.37 78.15 C 246.37 72.43 246.57 66.69 245.85 61.00 Z" />
</g>
<g id="#045872ff">
<path fill="#045872" opacity="1.00" d=" M 81.57 73.05 C 81.99 64.89 81.19 56.64 82.82 48.57 C 83.80 60.06 83.19 71.64 83.17 83.16 L 82.98 84.00 C 80.91 86.47 77.87 87.60 74.66 87.23 C 73.87 86.76 73.10 86.26 72.35 85.74 C 78.90 85.40 81.24 78.58 81.57 73.05 Z" />
</g>
<g id="#076e81ff">
<path fill="#076e81" opacity="1.00" d=" M 176.83 56.62 C 181.50 54.65 185.04 50.59 190.15 49.59 C 184.84 54.62 180.40 60.87 179.11 68.21 C 178.79 65.81 177.84 63.57 176.91 61.35 C 176.86 59.77 176.84 58.20 176.83 56.62 Z" />
</g>
<g id="#babab4ff">
<path fill="#babab4" opacity="1.00" d=" M 111.40 51.47 C 112.59 51.50 113.79 51.53 114.99 51.56 C 114.29 57.06 112.39 62.39 112.56 67.99 C 112.74 78.49 112.22 89.16 114.53 99.48 C 114.83 101.38 116.69 102.23 118.15 103.12 C 113.94 102.95 109.73 102.93 105.53 102.82 C 106.00 99.90 106.32 96.95 106.18 93.99 C 105.71 83.52 105.73 73.03 106.06 62.55 C 107.02 58.52 108.56 54.56 111.40 51.47 Z" />
</g>
<g id="#06607eff">
<path fill="#06607e" opacity="1.00" d=" M 27.13 54.10 C 27.54 53.39 28.36 51.98 28.77 51.27 C 28.94 59.50 28.87 67.73 28.85 75.96 C 29.01 79.55 28.30 83.22 25.79 85.92 C 22.90 86.98 19.80 86.81 16.77 86.85 C 18.98 85.84 21.02 84.38 22.24 82.24 C 27.94 74.02 25.98 63.46 27.13 54.10 Z" />
</g>
<g id="#e7e5dbff">
<path fill="#e7e5db" opacity="1.00" d=" M 265.72 58.50 C 266.55 56.13 268.08 53.67 270.95 53.80 C 273.36 55.09 274.48 57.81 276.11 59.88 C 275.85 59.99 275.33 60.20 275.07 60.30 C 273.46 60.35 271.86 60.33 270.27 60.29 C 268.73 59.73 267.22 59.11 265.72 58.50 Z" />
</g>
<g id="#b5c201ff">
<path fill="#b5c201" opacity="1.00" d=" M 182.58 85.37 C 178.33 75.33 179.78 62.82 186.89 54.43 C 188.59 58.58 186.71 62.83 186.36 67.03 C 185.93 72.28 185.97 77.80 188.27 82.67 C 190.58 88.27 195.18 92.65 200.44 95.52 C 207.57 99.15 215.95 98.75 223.13 102.24 C 222.22 102.65 221.30 103.03 220.36 103.37 C 212.18 105.76 203.23 104.89 195.67 100.95 C 190.26 96.79 184.98 91.96 182.58 85.37 Z" />
</g>
<g id="#b7b6b0ff">
<path fill="#b7b6b0" opacity="1.00" d=" M 130.65 57.54 C 133.92 56.09 137.91 56.96 140.17 59.75 C 143.66 63.98 143.24 69.81 143.32 74.96 C 143.14 81.34 143.95 87.68 144.31 94.04 C 144.50 96.41 144.64 98.93 145.95 100.99 C 147.61 102.04 149.54 102.56 151.40 103.12 C 147.10 103.17 142.80 103.21 138.50 103.14 C 137.46 90.35 138.73 77.43 137.33 64.68 C 135.30 61.32 131.47 59.95 127.67 60.38 C 129.36 60.09 131.05 59.78 132.74 59.45 C 132.22 58.98 131.17 58.02 130.65 57.54 Z" />
</g>
<g id="#bdcb01ff">
<path fill="#bdcb01" opacity="1.00" d=" M 208.93 60.82 C 211.48 60.22 213.98 59.36 216.21 57.95 C 221.55 58.91 226.80 62.47 228.22 67.95 C 230.79 73.33 228.61 79.89 224.03 83.43 C 223.37 82.56 222.72 81.69 222.07 80.83 C 225.33 76.03 224.90 69.34 220.86 65.13 C 217.97 61.63 213.25 60.70 208.93 60.82 Z" />
</g>
<g id="#6c7940ff">
<path fill="#6c7940" opacity="1.00" d=" M 242.76 78.09 C 243.35 71.48 240.99 64.10 245.35 58.32 C 245.44 58.78 245.61 59.70 245.70 60.16 C 243.76 74.35 245.25 88.72 245.14 102.98 C 244.77 102.84 244.03 102.55 243.66 102.41 C 243.61 94.28 241.95 86.22 242.76 78.09 Z" />
</g>
<g id="#f1f0e9ff">
<path fill="#f1f0e9" opacity="1.00" d=" M 116.94 66.99 C 117.36 62.56 122.51 61.98 125.85 60.70 C 126.23 60.63 127.00 60.49 127.39 60.43 C 125.92 61.76 124.40 63.14 123.47 64.92 C 123.10 66.59 122.95 68.30 122.86 70.01 C 122.85 78.99 122.84 87.96 122.85 96.94 C 122.83 98.94 122.78 100.98 122.05 102.88 C 118.24 91.40 115.94 79.12 116.94 66.99 Z" />
</g>
<g id="#eefe0dff">
<path fill="#eefe0d" opacity="1.00" d=" M 201.58 62.21 C 203.67 61.26 206.02 59.21 208.32 60.83 C 207.68 61.07 206.41 61.55 205.78 61.79 C 203.06 62.99 200.90 65.17 199.28 67.63 C 199.05 68.08 198.58 68.98 198.35 69.43 C 196.01 75.50 199.18 82.38 204.67 85.46 C 205.26 85.67 206.43 86.08 207.02 86.29 C 209.19 86.61 211.40 86.62 213.60 86.66 C 214.00 86.84 214.79 87.18 215.19 87.35 C 211.83 88.82 208.98 92.03 205.00 91.40 C 191.72 90.95 185.44 71.52 195.03 62.86 C 196.87 61.19 199.40 61.82 201.58 62.21 Z" />
</g>
<g id="#055870ff">
<path fill="#055870" opacity="1.00" d=" M 123.47 64.92 C 124.40 63.14 125.92 61.76 127.39 60.43 L 127.67 60.38 C 131.47 59.95 135.30 61.32 137.33 64.68 C 137.06 77.27 137.38 89.88 136.98 102.47 C 136.22 101.41 135.09 100.42 135.04 99.03 C 134.26 89.51 136.08 79.87 134.53 70.41 C 133.78 66.52 129.92 64.84 126.39 64.31 C 125.58 65.20 124.77 66.08 123.96 66.96 C 123.83 66.45 123.59 65.43 123.47 64.92 Z" />
</g>
<g id="#58670cff">
<path fill="#58670c" opacity="1.00" d=" M 205.78 61.79 C 206.41 61.55 207.68 61.07 208.32 60.83 L 208.93 60.82 C 213.25 60.70 217.97 61.63 220.86 65.13 C 224.90 69.34 225.33 76.03 222.07 80.83 C 220.23 83.90 216.84 85.50 213.60 86.66 C 211.40 86.62 209.19 86.61 207.02 86.29 C 210.91 86.64 215.13 85.83 218.00 83.00 C 223.28 78.28 223.14 68.84 217.58 64.38 C 214.53 61.23 209.82 61.21 205.78 61.79 Z" />
</g>
<g id="#c6c5bdff">
<path fill="#c6c5bd" opacity="1.00" d=" M 245.70 60.16 L 245.85 61.00 C 246.57 66.69 246.37 72.43 246.37 78.15 C 246.82 78.26 247.73 78.49 248.18 78.60 C 248.23 86.30 248.82 93.96 249.64 101.62 C 251.97 101.84 254.31 102.07 256.62 102.50 C 257.13 102.67 258.15 103.02 258.66 103.20 C 254.15 103.08 249.64 103.39 245.14 102.98 C 245.25 88.72 243.76 74.35 245.70 60.16 Z" />
</g>
<g id="#0aa9d1ff">
<path fill="#0aa9d1" opacity="1.00" d=" M 262.91 64.62 C 267.02 64.35 270.50 61.94 274.30 60.61 C 273.73 62.53 273.56 64.68 272.35 66.34 C 270.11 68.84 266.93 70.22 264.60 72.62 C 263.48 77.71 264.19 83.02 264.35 88.19 C 266.39 89.33 269.05 90.47 269.45 93.09 C 269.81 97.01 269.48 101.02 270.75 104.81 C 270.88 107.07 269.65 109.14 268.92 111.21 C 267.72 111.80 266.53 112.40 265.34 113.00 C 265.73 112.22 266.13 111.45 266.53 110.68 C 264.01 108.87 261.74 106.46 261.63 103.18 C 262.32 92.13 261.99 81.05 262.05 69.99 C 262.04 68.16 262.33 66.35 262.91 64.62 Z" />
</g>
<g id="#014e60ff">
<path fill="#014e60" opacity="1.00" d=" M 176.91 61.35 C 177.84 63.57 178.79 65.81 179.11 68.21 C 178.83 72.99 178.85 77.84 179.81 82.55 C 178.76 84.84 177.72 87.14 176.82 89.49 C 176.81 80.11 176.70 70.73 176.91 61.35 Z" />
</g>
<g id="#06666eff">
<path fill="#06666e" opacity="1.00" d=" M 199.28 67.63 C 200.90 65.17 203.06 62.99 205.78 61.79 C 209.82 61.21 214.53 61.23 217.58 64.38 C 223.14 68.84 223.28 78.28 218.00 83.00 C 215.13 85.83 210.91 86.64 207.02 86.29 C 206.43 86.08 205.26 85.67 204.67 85.46 C 205.53 85.30 207.24 84.99 208.10 84.83 C 212.59 84.88 213.93 79.63 213.71 76.01 C 213.86 72.26 211.20 68.61 207.60 67.61 C 204.85 67.18 202.05 67.51 199.28 67.63 Z" />
</g>
<g id="#83817eff">
<path fill="#83817e" opacity="1.00" d=" M 105.16 65.48 C 105.45 64.50 105.75 63.53 106.06 62.55 C 105.73 73.03 105.71 83.52 106.18 93.99 C 106.32 96.95 106.00 99.90 105.53 102.82 C 104.44 90.42 105.16 77.92 105.16 65.48 Z" />
</g>
<g id="#066784ff">
<path fill="#066784" opacity="1.00" d=" M 126.39 64.31 C 129.92 64.84 133.78 66.52 134.53 70.41 C 136.08 79.87 134.26 89.51 135.04 99.03 C 135.09 100.42 136.22 101.41 136.98 102.47 C 137.14 102.63 137.45 102.94 137.61 103.10 C 139.13 104.44 140.81 105.98 143.01 105.76 C 147.86 105.62 153.45 106.74 157.29 102.97 C 159.12 104.06 160.89 105.30 162.90 106.05 C 165.36 106.67 167.94 106.25 170.44 106.17 C 168.48 107.63 166.70 109.85 164.01 109.73 C 157.97 109.73 151.83 111.12 145.88 109.53 C 140.07 109.17 134.21 109.47 128.43 108.45 C 127.71 96.09 130.70 83.67 128.64 71.35 C 128.14 69.98 127.14 68.87 126.32 67.68 C 125.17 68.46 124.01 69.23 122.86 70.01 C 122.95 68.30 123.10 66.59 123.47 64.92 C 123.59 65.43 123.83 66.45 123.96 66.96 C 124.77 66.08 125.58 65.20 126.39 64.31 Z" />
</g>
<g id="#466972ff">
<path fill="#466972" opacity="1.00" d=" M 137.33 64.68 C 138.73 77.43 137.46 90.35 138.50 103.14 L 137.61 103.10 C 137.45 102.94 137.14 102.63 136.98 102.47 C 137.38 89.88 137.06 77.27 137.33 64.68 Z" />
</g>
<g id="#115164ff">
<path fill="#115164" opacity="1.00" d=" M 103.88 80.94 C 104.06 75.78 103.31 70.44 105.16 65.48 C 105.16 77.92 104.44 90.42 105.53 102.82 C 109.73 102.93 113.94 102.95 118.15 103.12 C 119.01 103.14 120.73 103.18 121.58 103.20 C 120.52 103.92 119.46 104.66 118.41 105.39 C 114.72 105.35 110.95 105.53 107.36 104.54 C 105.72 104.03 103.81 102.99 103.86 101.01 C 103.20 94.34 103.84 87.63 103.88 80.94 Z" />
</g>
<g id="#099397ff">
<path fill="#099397" opacity="1.00" d=" M 199.28 67.63 C 202.05 67.51 204.85 67.18 207.60 67.61 C 211.20 68.61 213.86 72.26 213.71 76.01 C 213.93 79.63 212.59 84.88 208.10 84.83 C 208.28 84.54 208.65 83.97 208.84 83.68 C 206.28 81.41 203.17 79.36 202.14 75.90 C 201.17 73.90 201.92 71.74 202.37 69.72 C 201.03 69.62 199.68 69.53 198.35 69.43 C 198.58 68.98 199.05 68.08 199.28 67.63 Z" />
</g>
<g id="#077c9bff">
<path fill="#077c9b" opacity="1.00" d=" M 122.86 70.01 C 124.01 69.23 125.17 68.46 126.32 67.68 C 127.14 68.87 128.14 69.98 128.64 71.35 C 130.70 83.67 127.71 96.09 128.43 108.45 C 134.21 109.47 140.07 109.17 145.88 109.53 C 151.83 111.12 157.97 109.73 164.01 109.73 C 166.70 109.85 168.48 107.63 170.44 106.17 C 172.13 105.21 173.85 104.29 175.52 103.28 C 175.82 103.07 176.42 102.64 176.72 102.43 C 177.58 101.79 178.45 101.16 179.32 100.52 C 183.24 103.32 186.94 106.56 191.39 108.52 C 199.62 111.40 208.94 110.55 216.71 106.69 C 218.22 105.96 219.24 104.57 220.36 103.37 C 221.30 103.03 222.22 102.65 223.13 102.24 C 225.15 101.24 227.08 100.05 228.98 98.85 C 230.10 98.75 231.23 98.63 232.36 98.74 C 234.13 101.30 234.36 104.56 235.76 107.30 C 241.59 108.92 248.19 109.69 253.80 106.87 C 252.67 108.50 251.18 110.08 249.04 110.07 C 244.17 110.43 239.16 110.63 234.35 109.68 C 231.67 107.95 231.97 103.79 229.03 102.09 C 222.66 107.33 214.43 109.32 207.78 114.09 C 209.43 114.17 211.08 114.23 212.74 114.28 C 212.25 114.78 211.76 115.28 211.27 115.79 C 213.90 115.94 216.54 116.15 219.18 116.28 C 209.52 118.77 198.69 117.60 189.85 113.00 C 189.49 111.56 188.89 111.45 188.07 112.66 C 183.93 114.76 179.40 115.90 174.89 116.87 C 167.28 118.57 159.34 117.04 152.05 114.70 C 151.57 114.49 150.62 114.06 150.15 113.84 C 144.72 115.00 139.56 117.37 133.93 117.57 C 125.79 118.29 117.30 116.79 110.16 112.76 C 109.09 111.72 108.08 110.63 107.05 109.55 C 111.21 109.42 115.16 107.99 118.41 105.39 C 119.46 104.66 120.52 103.92 121.58 103.20 C 121.70 103.12 121.94 102.96 122.05 102.88 C 122.78 100.98 122.83 98.94 122.85 96.94 C 122.84 87.96 122.85 78.99 122.86 70.01 Z" />
</g>
<g id="#09a981ff">
<path fill="#09a981" opacity="1.00" d=" M 198.35 69.43 C 199.68 69.53 201.03 69.62 202.37 69.72 C 201.92 71.74 201.17 73.90 202.14 75.90 C 203.17 79.36 206.28 81.41 208.84 83.68 C 208.65 83.97 208.28 84.54 208.10 84.83 C 207.24 84.99 205.53 85.30 204.67 85.46 C 199.18 82.38 196.01 75.50 198.35 69.43 Z" />
</g>
<g id="#088db4ff">
<path fill="#088db4" opacity="1.00" d=" M 2.53 83.64 C 3.60 77.09 10.44 74.21 16.03 72.38 C 18.22 77.04 16.03 82.21 13.25 86.10 C 10.81 89.62 6.57 91.01 2.89 92.83 C 2.78 89.76 2.61 86.70 2.53 83.64 Z" />
</g>
<g id="#066377ff">
<path fill="#066377" opacity="1.00" d=" M 176.82 89.49 C 177.72 87.14 178.76 84.84 179.81 82.55 C 182.54 90.31 187.81 97.81 195.67 100.95 C 203.23 104.89 212.18 105.76 220.36 103.37 C 219.24 104.57 218.22 105.96 216.71 106.69 C 208.94 110.55 199.62 111.40 191.39 108.52 C 186.94 106.56 183.24 103.32 179.32 100.52 C 178.45 101.16 177.58 101.79 176.72 102.43 C 176.89 98.12 176.69 93.80 176.82 89.49 Z" />
</g>
<g id="#066686ff">
<path fill="#066686" opacity="1.00" d=" M 6.00 94.90 C 8.13 92.07 11.30 90.29 14.07 88.14 C 14.85 93.60 13.32 99.45 15.19 104.67 C 16.93 105.81 18.77 107.32 21.00 107.07 C 27.12 106.45 32.82 103.81 38.15 100.87 C 32.98 108.07 23.31 109.89 14.99 110.18 C 11.94 110.08 10.57 113.32 8.75 115.21 C 3.01 110.85 1.08 103.28 1.44 96.38 C 2.28 99.02 3.08 101.67 3.81 104.35 C 4.55 101.20 4.90 97.95 6.00 94.90 Z" />
</g>
<g id="#adaba4ff">
<path fill="#adaba4" opacity="1.00" d=" M 14.07 88.14 L 14.56 87.79 C 15.56 90.99 15.94 95.03 19.01 97.02 C 22.48 98.48 26.30 98.89 29.86 100.10 C 30.51 100.90 31.15 101.71 31.81 102.50 C 26.56 104.74 20.79 104.62 15.19 104.67 C 13.32 99.45 14.85 93.60 14.07 88.14 Z" />
</g>
<g id="#06627dff">
<path fill="#06627d" opacity="1.00" d=" M 40.91 97.98 C 43.30 95.55 45.03 92.57 47.36 90.10 C 49.55 88.64 50.84 91.65 51.89 93.10 C 54.95 99.63 60.39 104.88 66.72 108.22 C 71.71 109.48 76.73 107.09 81.63 106.23 C 78.19 109.97 72.77 110.34 68.03 110.84 C 60.37 111.31 53.73 106.55 48.74 101.22 C 46.80 98.87 43.78 98.27 40.91 97.98 Z" />
</g>
<g id="#066c85ff">
<path fill="#066c85" opacity="1.00" d=" M 228.98 98.85 C 230.35 97.79 231.64 96.63 232.89 95.42 C 235.89 100.35 240.96 103.28 245.74 106.22 C 248.55 107.31 251.69 106.24 254.56 105.91 L 253.80 106.87 C 248.19 109.69 241.59 108.92 235.76 107.30 C 234.36 104.56 234.13 101.30 232.36 98.74 C 231.23 98.63 230.10 98.75 228.98 98.85 Z" />
</g>
<g id="#07718fff">
<path fill="#07718f" opacity="1.00" d=" M 40.91 97.98 C 43.78 98.27 46.80 98.87 48.74 101.22 C 53.73 106.55 60.37 111.31 68.03 110.84 C 72.77 110.34 78.19 109.97 81.63 106.23 C 82.66 105.90 83.67 105.53 84.67 105.13 C 86.91 104.35 89.03 103.19 91.34 102.65 C 93.88 102.23 95.43 104.49 96.98 106.05 C 98.44 107.82 100.83 108.17 102.84 109.00 C 95.21 114.09 86.39 118.02 77.04 117.87 C 67.49 118.26 57.96 115.20 50.30 109.54 C 50.00 109.24 49.42 108.63 49.13 108.32 L 49.47 107.49 C 48.46 108.05 47.42 108.60 46.71 109.55 L 46.28 109.83 C 44.69 110.51 43.23 111.45 42.04 112.72 C 39.52 115.04 35.98 115.63 32.83 116.69 C 25.01 119.13 15.94 119.78 8.75 115.21 C 10.57 113.32 11.94 110.08 14.99 110.18 C 23.31 109.89 32.98 108.07 38.15 100.87 C 39.07 99.91 40.00 98.95 40.91 97.98 Z" />
</g>
<g id="#0887a6ff">
<path fill="#0887a6" opacity="1.00" d=" M 207.78 114.09 C 214.43 109.32 222.66 107.33 229.03 102.09 C 231.97 103.79 231.67 107.95 234.35 109.68 C 239.16 110.63 244.17 110.43 249.04 110.07 C 251.18 110.08 252.67 108.50 253.80 106.87 L 254.56 105.91 C 256.08 105.26 257.55 104.53 259.00 103.75 C 257.17 106.71 255.10 109.52 252.77 112.10 C 254.52 114.59 257.10 116.20 260.14 116.59 C 254.92 118.24 249.39 117.92 243.99 117.82 C 238.91 117.80 233.75 116.01 230.03 112.50 C 226.55 114.10 223.04 115.85 219.18 116.28 C 216.54 116.15 213.90 115.94 211.27 115.79 C 211.76 115.28 212.25 114.78 212.74 114.28 C 211.08 114.23 209.43 114.17 207.78 114.09 Z" />
</g>
<g id="#0992b6ff">
<path fill="#0992b6" opacity="1.00" d=" M 259.84 103.26 C 260.29 103.24 261.18 103.20 261.63 103.18 C 261.74 106.46 264.01 108.87 266.53 110.68 C 266.13 111.45 265.73 112.22 265.34 113.00 C 266.53 112.40 267.72 111.80 268.92 111.21 C 266.46 113.67 263.52 115.67 260.14 116.59 C 257.10 116.20 254.52 114.59 252.77 112.10 C 255.10 109.52 257.17 106.71 259.00 103.75 L 259.84 103.26 Z" />
</g>
<g id="#141e246d">
<path fill="#141e24" opacity="0.43" d=" M 50.30 109.54 C 49.57 111.74 46.64 108.85 49.13 108.32 C 49.42 108.63 50.00 109.24 50.30 109.54 Z" />
</g>
<g id="#09303cd0">
<path fill="#09303c" opacity="0.82" d=" M 42.04 112.72 C 43.23 111.45 44.69 110.51 46.28 109.83 L 46.71 109.55 L 47.14 109.59 C 46.95 111.65 43.94 113.53 42.04 112.72 Z" />
</g>
<g id="#114252dd">
<path fill="#114252" opacity="0.87" d=" M 188.07 112.66 C 188.89 111.45 189.49 111.56 189.85 113.00 C 189.41 112.92 188.52 112.75 188.07 112.66 Z" />
</g>
<g id="#142b35a3">
<path fill="#142b35" opacity="0.64" d=" M 150.15 113.84 C 150.62 114.06 151.57 114.49 152.05 114.70 C 151.62 114.71 150.75 114.72 150.32 114.73 L 150.15 113.84 Z" />
</g>
</svg>
