<?xml version="1.0" encoding="UTF-8" standalone="yes"?>
<svg xmlns="http://www.w3.org/2000/svg" xmlns:xlink="http://www.w3.org/1999/xlink" width="458.66666666666663px" height="106.66666666666666px" viewBox="0 0 344 80" version="1.1">
  <g id="surface1">
    <path style=" stroke:none;fill-rule:nonzero;fill:rgb(32.156863%,18.039216%,56.862745%);fill-opacity:1;" d="M 343.828125 79.675781 L 264.515625 79.675781 L 190.152344 38.050781 L 264.515625 0.171875 L 343.828125 0.171875 Z M 343.828125 79.675781 "/>
    <path style=" stroke:none;fill-rule:nonzero;fill:rgb(0%,0%,0%);fill-opacity:1;" d="M 0.171875 79.675781 L 264.515625 79.675781 L 264.515625 0.171875 L 0.171875 0.171875 Z M 0.171875 79.675781 "/>
    <path style=" stroke:none;fill-rule:nonzero;fill:rgb(100%,100%,100%);fill-opacity:1;" d="M 91.019531 52.015625 L 73.300781 52.015625 C 72.792969 52.015625 72.695312 51.816406 72.695312 51.410156 L 72.695312 27.511719 C 72.695312 27.105469 72.792969 26.90625 73.300781 26.90625 L 91.019531 26.90625 C 101.558594 26.90625 105.777344 29.925781 105.777344 39.4375 C 105.777344 48.945312 101.558594 52.015625 91.019531 52.015625 M 105.667969 19.609375 L 49.097656 19.609375 C 48.59375 19.609375 48.34375 19.914062 48.34375 20.359375 L 48.34375 58.554688 C 48.34375 59.007812 48.59375 59.3125 49.097656 59.3125 L 105.667969 59.3125 C 122.28125 59.3125 130.667969 53.773438 130.667969 39.332031 C 130.667969 24.996094 122.28125 19.609375 105.667969 19.609375 "/>
    <path style=" stroke:none;fill-rule:nonzero;fill:rgb(100%,100%,100%);fill-opacity:1;" d="M 184.386719 41.800781 L 164.605469 41.800781 C 164.15625 41.800781 164.003906 41.648438 164.003906 41.195312 L 164.003906 27.511719 C 164.003906 27.054688 164.15625 26.90625 164.605469 26.90625 L 184.386719 26.90625 C 191.011719 26.90625 193.824219 28.71875 193.824219 34.203125 C 193.824219 39.738281 191.011719 41.800781 184.386719 41.800781 M 219.917969 57.699219 L 203.554688 46.125 C 203.148438 45.824219 202.902344 45.671875 202.902344 45.472656 C 202.902344 45.273438 203.054688 45.171875 203.402344 45.171875 C 211.683594 45.171875 218.113281 41.296875 218.113281 32.742188 C 218.113281 24.242188 212.589844 19.609375 202.402344 19.609375 L 140.40625 19.609375 C 139.902344 19.609375 139.65625 19.910156 139.65625 20.363281 L 139.65625 58.554688 C 139.65625 59.007812 139.902344 59.316406 140.40625 59.316406 L 163.21875 59.316406 C 163.71875 59.316406 163.972656 59.007812 163.972656 58.554688 L 163.972656 49.5 C 163.972656 49.046875 164.125 48.898438 164.578125 48.898438 L 177.703125 48.898438 C 178.355469 48.898438 178.609375 48.945312 179.054688 49.296875 L 190.453125 58.757812 C 191.007812 59.210938 191.40625 59.316406 192.058594 59.316406 L 220.421875 59.316406 C 220.828125 59.316406 221.027344 59.15625 221.027344 58.855469 C 221.027344 58.457031 220.320312 58.003906 219.917969 57.699219 "/>
    <path style=" stroke:none;fill-rule:nonzero;fill:rgb(100%,100%,100%);fill-opacity:1;" d="M 312.554688 61.585938 C 311.75 61.585938 311.503906 61.464844 311.195312 60.96875 L 300.996094 46.164062 L 297.722656 50.496094 L 297.722656 60.96875 C 297.722656 61.464844 297.351562 61.585938 296.855469 61.585938 L 286.046875 61.585938 C 285.550781 61.585938 285.242188 61.398438 285.242188 60.96875 L 285.242188 18.972656 C 285.242188 18.542969 285.550781 18.226562 286.046875 18.226562 L 296.914062 18.226562 C 297.410156 18.226562 297.722656 18.414062 297.722656 18.851562 L 297.722656 34.769531 L 309.402344 18.851562 C 309.582031 18.601562 309.898438 18.226562 310.265625 18.226562 L 323.609375 18.226562 C 324.164062 18.226562 324.230469 18.476562 324.042969 18.851562 L 309.957031 37.550781 L 326.394531 60.96875 C 326.765625 61.464844 326.394531 61.585938 326.023438 61.585938 Z M 312.554688 61.585938 "/>
  </g>
</svg>