<?xml version="1.0" encoding="UTF-8" standalone="no"?>
<!-- Created with Inkscape (http://www.inkscape.org/) -->

<svg
   xmlns:dc="http://purl.org/dc/elements/1.1/"
   xmlns:cc="http://creativecommons.org/ns#"
   xmlns:rdf="http://www.w3.org/1999/02/22-rdf-syntax-ns#"
   xmlns:svg="http://www.w3.org/2000/svg"
   xmlns="http://www.w3.org/2000/svg"
   xmlns:sodipodi="http://sodipodi.sourceforge.net/DTD/sodipodi-0.dtd"
   xmlns:inkscape="http://www.inkscape.org/namespaces/inkscape"
   width="1000.0001"
   height="231.5602"
   id="svg6778"
   version="1.1"
   inkscape:version="0.48.2 r9819"
   sodipodi:docname="A.svg">
  <defs
     id="defs6780">
    <clipPath
       clipPathUnits="userSpaceOnUse"
       id="clipPath3583">
      <path
         inkscape:connector-curvature="0"
         d="m 28.346,356.42 81.569,0 0,9.712 -81.569,0 0,-9.712 z"
         id="path3585" />
    </clipPath>
    <clipPath
       clipPathUnits="userSpaceOnUse"
       id="clipPath7103">
      <path
         inkscape:connector-curvature="0"
         d="m 664.016,628.016 56.939,0 0,13.141 -56.939,0 0,-13.141 z"
         id="path7105" />
    </clipPath>
    <clipPath
       clipPathUnits="userSpaceOnUse"
       id="clipPath7151">
      <path
         inkscape:connector-curvature="0"
         d="m 664.016,528.803 56.81,0 0,13.111 -56.81,0 0,-13.111 z"
         id="path7153" />
    </clipPath>
    <clipPath
       clipPathUnits="userSpaceOnUse"
       id="clipPath7127">
      <path
         inkscape:connector-curvature="0"
         d="m 664.016,430.623 56.939,0 0,13.141 -56.939,0 0,-13.141 z"
         id="path7129" />
    </clipPath>
    <clipPath
       clipPathUnits="userSpaceOnUse"
       id="clipPath7053">
      <path
         inkscape:connector-curvature="0"
         d="m 664.016,341.686 56.939,0 0,13.141 -56.939,0 0,-13.141 z"
         id="path7055" />
    </clipPath>
  </defs>
  <sodipodi:namedview
     id="base"
     pagecolor="#ffffff"
     bordercolor="#666666"
     borderopacity="1.0"
     inkscape:pageopacity="0.0"
     inkscape:pageshadow="2"
     inkscape:zoom="0.49497475"
     inkscape:cx="540.33645"
     inkscape:cy="-345.69085"
     inkscape:document-units="px"
     inkscape:current-layer="layer1"
     showgrid="false"
     fit-margin-top="0.5"
     fit-margin-left="0.5"
     fit-margin-right="0.5"
     fit-margin-bottom="0.5"
     inkscape:window-width="1102"
     inkscape:window-height="1040"
     inkscape:window-x="821"
     inkscape:window-y="-18"
     inkscape:window-maximized="0" />
  <metadata
     id="metadata6783">
    <rdf:RDF>
      <cc:Work
         rdf:about="">
        <dc:format>image/svg+xml</dc:format>
        <dc:type
           rdf:resource="http://purl.org/dc/dcmitype/StillImage" />
        <dc:title></dc:title>
      </cc:Work>
    </rdf:RDF>
  </metadata>
  <g
     inkscape:label="Layer 1"
     inkscape:groupmode="layer"
     id="layer1"
     transform="translate(-991.03369,419.93956)">
    <path
       inkscape:connector-curvature="0"
       d="m 1990.5338,-188.87951 -230.5601,0 -216.1726,-120.71816 216.1726,-109.84189 230.5601,0 z"
       style="fill:#522e91;fill-opacity:1;fill-rule:nonzero;stroke:none"
       id="path7065"
       sodipodi:nodetypes="cccccc" />
    <path
       inkscape:connector-curvature="0"
       d="m 991.53369,-188.87937 768.44011,0 0,-230.56006 -768.44011,0 0,230.56006 z"
       style="fill:#000000;fill-opacity:1;fill-rule:nonzero;stroke:none"
       id="path7047" />
    <g
       id="g7057"
       transform="matrix(17.545092,0,0,-17.545092,1255.6243,-269.09742)">
      <path
         inkscape:connector-curvature="0"
         d="m 0,0 -2.936,0 c -0.084,0 -0.1,0.033 -0.1,0.1 l 0,3.95 c 0,0.067 0.016,0.1 0.1,0.1 L 0,4.15 C 1.746,4.15 2.445,3.651 2.445,2.079 2.445,0.507 1.746,0 0,0 m 2.427,5.356 -9.373,0 c -0.083,0 -0.125,-0.05 -0.125,-0.124 l 0,-6.313 c 0,-0.075 0.042,-0.125 0.125,-0.125 l 9.373,0 c 2.753,0 4.142,0.915 4.142,3.302 0,2.37 -1.389,3.26 -4.142,3.26"
         style="fill:#ffffff;fill-opacity:1;fill-rule:nonzero;stroke:none"
         id="path7059" />
    </g>
    <g
       id="g7061"
       transform="matrix(17.545092,0,0,-17.545092,1527.0381,-298.7188)">
      <path
         inkscape:connector-curvature="0"
         d="m 0,0 -3.277,0 c -0.075,0 -0.1,0.025 -0.1,0.1 l 0,2.262 c 0,0.075 0.025,0.1 0.1,0.1 l 3.277,0 c 1.098,0 1.564,-0.3 1.564,-1.206 C 1.564,0.341 1.098,0 0,0 m 5.887,-2.628 -2.711,1.913 c -0.067,0.05 -0.108,0.075 -0.108,0.108 0,0.033 0.025,0.05 0.083,0.05 1.372,0 2.437,0.64 2.437,2.054 0,1.405 -0.915,2.171 -2.603,2.171 l -10.272,0 c -0.083,0 -0.124,-0.05 -0.124,-0.125 l 0,-6.312 c 0,-0.075 0.041,-0.126 0.124,-0.126 l 3.78,0 c 0.083,0 0.125,0.051 0.125,0.126 l 0,1.496 c 0,0.075 0.025,0.1 0.1,0.1 l 2.175,0 c 0.108,0 0.15,-0.008 0.224,-0.066 l 1.888,-1.564 c 0.092,-0.075 0.158,-0.092 0.266,-0.092 l 4.7,0 c 0.067,0 0.1,0.026 0.1,0.076 0,0.066 -0.117,0.141 -0.184,0.191"
         style="fill:#ffffff;fill-opacity:1;fill-rule:nonzero;stroke:none"
         id="path7063" />
    </g>
    <g
       id="g7067"
       transform="matrix(17.545092,0,0,-17.545092,1899.6186,-241.33582)">
      <path
         inkscape:connector-curvature="0"
         d="m 0,0 c -0.133,0 -0.174,0.02 -0.225,0.102 l -1.69,2.447 -0.542,-0.716 0,-1.731 C -2.457,0.02 -2.519,0 -2.601,0 l -1.791,0 c -0.082,0 -0.133,0.031 -0.133,0.102 l 0,6.942 c 0,0.071 0.051,0.123 0.133,0.123 l 1.801,0 c 0.082,0 0.134,-0.031 0.134,-0.103 l 0,-2.631 1.935,2.631 c 0.03,0.041 0.082,0.103 0.143,0.103 l 2.211,0 c 0.092,0 0.103,-0.041 0.072,-0.103 L -0.43,3.973 2.293,0.102 C 2.355,0.02 2.293,0 2.232,0 L 0,0 z"
         style="fill:#ffffff;fill-opacity:1;fill-rule:nonzero;stroke:none"
         id="path7069" />
    </g>
  </g>
</svg>
