<?xml version="1.0" encoding="UTF-8" standalone="yes"?>
<svg xmlns="http://www.w3.org/2000/svg" xmlns:xlink="http://www.w3.org/1999/xlink" width="698.6666666666666px" height="106.66666666666666px" viewBox="0 0 524 80" version="1.1">
  <g id="surface1">
    <path style=" stroke:none;fill-rule:nonzero;fill:rgb(90.588235%,32.941176%,6.666667%);fill-opacity:1;" d="M 305.796875 58.808594 L 299.976562 58.808594 C 299.167969 58.808594 298.472656 58.113281 298.472656 57.316406 L 298.488281 32.140625 C 298.488281 23.914062 302.953125 21.464844 317.636719 21.464844 L 320.808594 21.464844 C 335.507812 21.464844 339.957031 23.914062 339.957031 32.15625 L 339.941406 57.316406 C 339.941406 58.128906 339.261719 58.824219 338.453125 58.824219 L 332.617188 58.824219 C 331.804688 58.824219 331.109375 58.128906 331.109375 57.316406 L 331.128906 32.140625 C 331.128906 30.5 330.730469 30.070312 329.621094 29.742188 C 328.050781 29.277344 325.390625 29.261719 320.808594 29.261719 L 317.636719 29.261719 C 313.054688 29.261719 310.394531 29.277344 308.804688 29.742188 C 307.714844 30.070312 307.300781 30.5 307.300781 32.15625 L 307.285156 57.316406 C 307.285156 58.113281 306.609375 58.808594 305.796875 58.808594 M 285.707031 58.757812 L 279.457031 58.757812 C 278.648438 58.757812 277.953125 58.0625 277.953125 57.25 L 277.953125 22.988281 C 277.953125 22.175781 278.648438 21.496094 279.457031 21.496094 L 285.707031 21.496094 C 286.519531 21.496094 287.214844 22.175781 287.214844 22.988281 L 287.214844 57.25 C 287.214844 58.0625 286.519531 58.757812 285.707031 58.757812 M 268.746094 33.5625 C 268.746094 41.921875 265.652344 44.242188 249.613281 44.242188 L 243.777344 44.242188 C 239.214844 44.242188 236.550781 44.257812 234.964844 44.71875 C 233.875 45.050781 233.460938 45.464844 233.460938 47.121094 L 233.460938 48.527344 C 233.460938 50.167969 233.875 50.597656 234.964844 50.910156 C 236.550781 51.375 239.214844 51.40625 243.777344 51.40625 L 264.875 51.40625 C 265.6875 51.40625 266.378906 52.085938 266.378906 52.898438 L 266.378906 57.25 C 266.378906 58.0625 265.6875 58.757812 264.875 58.757812 L 243.777344 58.757812 C 229.0625 58.757812 224.648438 56.339844 224.648438 48.246094 L 224.648438 31.925781 C 224.648438 23.878906 229.144531 21.464844 243.777344 21.464844 L 249.613281 21.464844 C 264.460938 21.464844 268.746094 23.914062 268.746094 32.15625 Z M 249.613281 36.757812 C 254.160156 36.757812 256.839844 36.742188 258.410156 36.277344 C 259.519531 35.949219 259.933594 35.535156 259.933594 33.894531 L 259.933594 32.15625 C 259.933594 30.5 259.519531 30.070312 258.425781 29.742188 C 256.839844 29.277344 254.179688 29.261719 249.613281 29.261719 L 243.777344 29.261719 C 239.214844 29.261719 236.550781 29.277344 234.964844 29.742188 C 233.875 30.070312 233.460938 30.5 233.460938 32.15625 L 233.460938 37.238281 C 234.519531 36.972656 235.957031 36.757812 237.859375 36.757812 Z M 388.269531 22.96875 L 388.269531 27.769531 C 388.269531 28.582031 387.589844 29.261719 386.78125 29.261719 L 367.417969 29.261719 C 362.855469 29.261719 360.179688 29.277344 358.605469 29.742188 C 357.515625 30.070312 357.101562 30.5 357.101562 32.15625 L 357.101562 33.332031 C 357.101562 34.972656 357.515625 35.402344 358.605469 35.730469 C 360.195312 36.195312 362.855469 36.210938 367.417969 36.210938 L 371.15625 36.210938 C 385.855469 36.210938 390.285156 38.628906 390.285156 46.890625 L 390.285156 48.246094 C 390.285156 56.324219 385.886719 58.742188 371.273438 58.757812 L 351.167969 58.757812 C 350.355469 58.757812 349.664062 58.0625 349.664062 57.25 L 349.664062 52.449219 C 349.664062 51.640625 350.355469 50.960938 351.167969 50.960938 L 371.15625 50.960938 C 375.785156 50.960938 378.414062 50.929688 379.96875 50.464844 C 381.058594 50.148438 381.472656 49.71875 381.472656 48.082031 L 381.472656 46.890625 C 381.472656 45.234375 381.058594 44.820312 379.96875 44.488281 C 378.382812 44.023438 375.71875 44.007812 371.15625 44.007812 L 367.417969 44.007812 C 351.382812 44.007812 348.289062 41.707031 348.289062 33.347656 L 348.289062 32.15625 C 348.289062 23.914062 352.570312 21.464844 367.417969 21.464844 L 386.78125 21.464844 C 387.589844 21.464844 388.269531 22.160156 388.269531 22.96875 M 6.035156 37.074219 L 36.242188 21.644531 C 36.753906 21.480469 37.53125 21.496094 37.53125 22.621094 L 37.53125 26.230469 C 37.53125 26.59375 37.613281 27.191406 36.722656 27.621094 L 12.417969 40.117188 C 12.234375 40.53125 12.417969 40.597656 12.417969 40.597656 L 38.625 53.03125 C 39.5 53.445312 39.433594 54.054688 39.433594 54.421875 L 39.433594 58.242188 C 39.433594 59.371094 38.65625 59.386719 38.144531 59.21875 L 6.035156 44.175781 L 6.050781 57.730469 C 6.050781 58.226562 5.605469 58.675781 5.109375 58.675781 L 0.957031 58.675781 C 0.460938 58.675781 0.015625 58.226562 0.015625 57.730469 L 0 16.582031 C 0 16.066406 0.445312 15.621094 0.941406 15.621094 L 5.074219 15.621094 C 5.589844 15.621094 6.019531 16.066406 6.019531 16.582031 Z M 134.371094 32.15625 C 134.371094 27.503906 131.28125 27.503906 121.871094 27.503906 L 116.679688 27.503906 C 107.273438 27.503906 104.164062 27.503906 104.164062 32.15625 L 104.082031 49.140625 C 104.082031 53.792969 107.191406 53.792969 116.597656 53.792969 L 121.789062 53.792969 C 131.199219 53.792969 134.289062 53.792969 134.289062 49.140625 Z M 98.046875 16.613281 C 98.046875 16.101562 98.492188 15.671875 98.988281 15.671875 L 103.222656 15.671875 C 103.71875 15.671875 104.164062 16.101562 104.164062 16.613281 L 104.164062 23.53125 C 106.976562 22.773438 110.992188 22.425781 116.679688 22.425781 L 121.871094 22.425781 C 137.613281 22.425781 140.539062 25.007812 140.539062 32.15625 L 140.457031 49.386719 C 140.457031 56.324219 137.347656 58.871094 121.789062 58.871094 L 116.597656 58.871094 C 100.859375 58.871094 97.929688 56.289062 97.929688 49.140625 Z M 82.289062 41.625 C 82.289062 41.625 80.753906 42.898438 76.054688 42.898438 L 63.625 42.898438 C 54.230469 42.898438 51.105469 42.898438 51.105469 47.519531 L 51.105469 49.140625 C 51.105469 53.792969 54.214844 53.792969 63.625 53.792969 L 69.789062 53.792969 C 79.179688 53.792969 82.289062 53.792969 82.289062 49.140625 Z M 63.625 58.871094 C 47.867188 58.871094 44.941406 56.289062 44.941406 49.140625 L 44.941406 47.519531 C 44.941406 40.203125 46.660156 37.816406 63.625 37.816406 L 69.789062 37.816406 C 79.179688 37.816406 82.289062 37.816406 82.289062 33.167969 L 82.289062 31.910156 C 82.289062 27.289062 79.179688 27.289062 69.789062 27.289062 L 47.867188 27.308594 C 47.371094 27.308594 46.921875 26.859375 46.921875 26.363281 L 46.921875 23.152344 C 46.921875 22.640625 47.371094 22.207031 47.867188 22.207031 L 69.789062 22.207031 C 85.429688 22.207031 88.457031 24.757812 88.457031 31.742188 L 88.457031 49.386719 C 88.457031 56.324219 85.347656 58.871094 69.789062 58.871094 Z M 156.015625 39.308594 C 156.015625 39.308594 157.554688 38.03125 162.265625 38.03125 L 174.699219 38.03125 C 184.074219 38.03125 187.199219 38.03125 187.199219 33.414062 L 187.199219 32.15625 C 187.199219 27.503906 184.105469 27.503906 174.699219 27.503906 L 168.53125 27.503906 C 159.125 27.503906 156.015625 27.503906 156.015625 32.15625 Z M 174.699219 22.425781 C 190.4375 22.425781 193.367188 25.007812 193.367188 32.15625 L 193.367188 33.414062 C 193.367188 40.730469 191.644531 43.113281 174.699219 43.113281 L 168.53125 43.113281 C 159.125 43.113281 156.015625 43.113281 156.015625 47.765625 L 156.015625 49.023438 C 156.015625 53.640625 159.125 53.640625 168.53125 53.640625 L 190.308594 53.640625 C 190.984375 53.660156 191.414062 54.089844 191.414062 54.585938 L 191.414062 57.78125 C 191.414062 58.277344 190.984375 58.707031 190.472656 58.707031 L 168.53125 58.722656 C 152.875 58.722656 149.847656 56.175781 149.847656 49.191406 L 149.847656 31.910156 C 149.847656 24.988281 152.957031 22.425781 168.53125 22.425781 Z M 207.402344 49.125 C 207.402344 54.289062 212.296875 53.675781 217.222656 53.660156 C 218.035156 53.660156 218.480469 54.089844 218.480469 54.585938 L 218.480469 57.78125 C 218.480469 58.277344 218.035156 58.707031 217.539062 58.707031 L 217.007812 58.707031 C 207.335938 58.707031 201.351562 58.226562 201.351562 50.035156 L 201.269531 16.714844 C 201.269531 16.214844 201.714844 15.769531 202.210938 15.769531 L 206.425781 15.769531 C 206.941406 15.769531 207.371094 16.214844 207.371094 16.714844 Z M 207.402344 49.125 "/>
    <path style=" stroke:none;fill-rule:nonzero;fill:rgb(90.588235%,32.941176%,6.666667%);fill-opacity:1;" d="M 406.511719 0 L 521.238281 0 C 522.816406 0.558594 523.855469 2.101562 524 3.742188 L 524 66.835938 L 403.761719 66.835938 L 403.761719 3.746094 C 403.914062 2.105469 404.9375 0.570312 406.511719 0 Z M 406.511719 0 "/>
    <path style=" stroke:none;fill-rule:nonzero;fill:rgb(90.588235%,32.941176%,6.666667%);fill-opacity:1;" d="M 403.761719 47.375 L 412.714844 80.640625 L 406.710938 80.640625 C 404.925781 80.367188 403.882812 78.464844 403.761719 76.789062 Z M 403.761719 47.375 "/>
    <path style=" stroke:none;fill-rule:nonzero;fill:rgb(100%,100%,100%);fill-opacity:1;" d="M 479.074219 6.980469 C 485.730469 5.863281 492.367188 4.566406 498.851562 2.679688 C 500.132812 5.851562 501.3125 9.070312 502.199219 12.375 C 503.089844 15.660156 503.734375 19.027344 503.984375 22.425781 C 504.628906 35.15625 500.558594 48.09375 492.621094 58.082031 C 488.855469 62.835938 484.257812 66.929688 479.085938 70.097656 C 471.394531 74.835938 462.488281 77.492188 453.484375 78.003906 C 449.527344 78.296875 445.53125 78.09375 441.648438 77.257812 C 436.363281 76.152344 431.304688 74.144531 426.515625 71.675781 C 424.839844 70.792969 423.144531 69.925781 421.605469 68.808594 C 416.890625 65.550781 412.496094 61.726562 409.125 57.0625 C 407.054688 54.246094 405.421875 51.140625 404.027344 47.945312 C 403.941406 47.753906 403.847656 47.5625 403.761719 47.375 L 403.761719 22.816406 C 403.925781 26.410156 404.167969 30.015625 404.867188 33.554688 C 405.972656 39.378906 408.144531 45.132812 411.960938 49.738281 C 415.496094 54.082031 420.417969 57.164062 425.710938 58.902344 C 431.484375 60.878906 437.765625 61.40625 443.769531 60.273438 C 448.691406 59.3125 453.414062 57.222656 457.316406 54.058594 C 462.511719 49.886719 466.179688 43.917969 467.789062 37.46875 L 453.390625 40.289062 C 453.542969 35.492188 453.699219 30.570312 453.742188 25.773438 C 459.140625 24.570312 464.425781 22.296875 468.527344 18.519531 C 471.636719 15.691406 473.921875 11.863281 474.484375 7.660156 C 476.011719 7.414062 477.550781 7.242188 479.074219 6.980469 Z M 479.074219 6.980469 "/>
    <path style=" stroke:none;fill-rule:nonzero;fill:rgb(70.588235%,4.313725%,12.156863%);fill-opacity:1;" d="M 502.199219 12.375 L 524 66.835938 L 524 76.953125 C 523.820312 78.6875 522.585938 80.589844 520.6875 80.640625 L 412.699219 80.640625 L 403.761719 47.375 C 405.15625 50.570312 407.054688 54.246094 409.125 57.0625 C 412.496094 61.726562 416.890625 65.550781 421.605469 68.808594 C 423.144531 69.925781 424.839844 70.792969 426.515625 71.675781 C 431.304688 74.144531 436.363281 76.152344 441.648438 77.257812 C 445.53125 78.09375 449.527344 78.296875 453.484375 78.003906 C 462.488281 77.492188 471.394531 74.835938 479.085938 70.097656 C 484.257812 66.929688 488.855469 62.835938 492.621094 58.082031 C 500.558594 48.09375 504.628906 35.15625 503.984375 22.425781 C 503.734375 19.027344 503.089844 15.660156 502.199219 12.375 Z M 502.199219 12.375 "/>
    <path style=" stroke:none;fill-rule:nonzero;fill:rgb(70.588235%,4.313725%,12.156863%);fill-opacity:1;" d="M 467.789062 37.46875 C 466.179688 43.917969 462.511719 49.886719 457.316406 54.058594 L 453.390625 40.289062 Z M 467.789062 37.46875 "/>
  </g>
</svg>