<?xml version="1.0" encoding="UTF-8" ?>
<!DOCTYPE svg PUBLIC "-//W3C//DTD SVG 1.1//EN" "http://www.w3.org/Graphics/SVG/1.1/DTD/svg11.dtd">
<svg width="750pt" height="750pt" viewBox="0 0 750 750" version="1.1" xmlns="http://www.w3.org/2000/svg">
<g id="#020303ff">
<path fill="#020303" opacity="1.00" d=" M 355.29 20.53 C 407.79 17.59 460.95 26.38 509.60 46.37 C 576.42 73.62 634.43 121.86 673.47 182.54 C 696.87 218.70 713.59 259.18 722.41 301.35 C 731.80 345.89 732.51 392.25 724.51 437.07 C 710.77 515.86 668.97 589.25 608.63 641.69 C 579.33 667.32 545.79 688.09 509.77 702.86 C 438.34 732.30 357.25 737.29 282.69 717.18 C 215.08 699.21 153.27 660.43 107.37 607.68 C 81.55 578.14 60.66 544.29 45.91 507.93 C 23.06 451.88 15.16 389.90 22.80 329.88 C 27.84 289.68 39.88 250.36 58.29 214.26 C 84.73 162.09 124.35 116.72 172.38 83.37 C 225.95 45.98 290.05 23.95 355.29 20.53 M 293.18 162.17 C 262.53 179.95 237.12 206.63 220.94 238.16 C 206.69 265.77 199.64 297.00 200.33 328.05 C 201.11 361.33 210.85 394.39 228.55 422.61 C 250.16 457.38 283.56 484.60 321.96 498.81 C 299.94 520.53 278.23 542.55 256.23 564.29 C 281.96 590.11 307.80 615.82 333.57 641.60 C 392.08 583.08 450.65 524.63 509.18 466.12 C 519.40 456.00 529.74 445.88 538.12 434.14 C 561.53 402.51 574.10 363.29 574.26 324.01 C 574.23 285.67 562.40 247.32 540.14 216.04 C 515.18 180.50 477.46 154.11 435.40 143.19 C 387.96 130.47 335.60 137.34 293.18 162.17 Z" />
<path fill="#020303" opacity="1.00" d=" M 392.23 246.32 C 409.68 247.26 426.70 254.53 439.58 266.33 C 451.35 276.97 459.69 291.35 463.07 306.86 C 467.28 326.10 464.09 346.97 453.76 363.81 C 445.09 378.29 431.52 389.72 415.81 395.86 C 400.39 401.95 382.99 403.00 366.99 398.58 C 348.23 393.68 331.62 381.29 321.37 364.85 C 311.93 349.86 307.96 331.59 310.18 314.04 C 312.51 294.88 322.31 276.73 337.15 264.37 C 352.26 251.51 372.44 244.91 392.23 246.32 Z" />
</g>
<g id="#ffffffff">
<path fill="#ffffff" opacity="1.00" d=" M 293.18 162.17 C 335.60 137.34 387.96 130.47 435.40 143.19 C 477.46 154.11 515.18 180.50 540.14 216.04 C 562.40 247.32 574.23 285.67 574.26 324.01 C 574.10 363.29 561.53 402.51 538.12 434.14 C 529.74 445.88 519.40 456.00 509.18 466.12 C 450.65 524.63 392.08 583.08 333.57 641.60 C 307.80 615.82 281.96 590.11 256.23 564.29 C 278.23 542.55 299.94 520.53 321.96 498.81 C 283.56 484.60 250.16 457.38 228.55 422.61 C 210.85 394.39 201.11 361.33 200.33 328.05 C 199.64 297.00 206.69 265.77 220.94 238.16 C 237.12 206.63 262.53 179.95 293.18 162.17 M 392.23 246.32 C 372.44 244.91 352.26 251.51 337.15 264.37 C 322.31 276.73 312.51 294.88 310.18 314.04 C 307.96 331.59 311.93 349.86 321.37 364.85 C 331.62 381.29 348.23 393.68 366.99 398.58 C 382.99 403.00 400.39 401.95 415.81 395.86 C 431.52 389.72 445.09 378.29 453.76 363.81 C 464.09 346.97 467.28 326.10 463.07 306.86 C 459.69 291.35 451.35 276.97 439.58 266.33 C 426.70 254.53 409.68 247.26 392.23 246.32 Z" />
</g>
</svg>
