<?xml version="1.0" encoding="UTF-8" ?>
<!DOCTYPE svg PUBLIC "-//W3C//DTD SVG 1.1//EN" "http://www.w3.org/Graphics/SVG/1.1/DTD/svg11.dtd">
<svg width="1400pt" height="500pt" viewBox="0 0 1400 500" version="1.1" xmlns="http://www.w3.org/2000/svg">
<g id="#009de2ff">
<path fill="#009de2" opacity="1.00" d=" M 1094.84 46.68 C 1110.16 42.12 1126.09 40.02 1142.01 38.98 C 1152.26 39.19 1162.58 38.41 1172.75 40.06 C 1194.88 42.75 1216.92 47.78 1237.20 57.21 C 1244.83 60.22 1251.88 64.45 1259.11 68.26 C 1271.12 75.45 1282.54 83.68 1292.86 93.11 C 1306.07 105.13 1317.87 118.61 1327.65 133.57 C 1330.02 137.42 1332.52 141.20 1334.78 145.12 C 1335.58 146.47 1336.35 147.84 1337.16 149.20 C 1340.96 157.01 1345.21 164.64 1348.03 172.90 C 1350.11 177.31 1351.08 182.14 1353.14 186.56 C 1353.64 188.76 1354.28 190.94 1354.89 193.13 C 1361.37 215.67 1363.51 239.33 1362.29 262.71 C 1361.92 265.57 1361.84 268.45 1361.93 271.34 L 1361.54 271.87 C 1361.37 272.13 1361.02 272.64 1360.85 272.90 C 1360.25 284.03 1357.68 295.01 1354.88 305.78 C 1351.68 319.47 1345.65 332.25 1340.03 345.06 C 1334.46 354.90 1328.95 364.81 1322.23 373.93 C 1318.68 379.30 1314.07 383.85 1310.40 389.11 C 1309.35 390.77 1307.91 392.12 1306.55 393.50 C 1303.46 396.43 1301.38 400.36 1297.64 402.59 C 1285.12 414.68 1271.22 425.66 1255.74 433.70 C 1228.70 449.39 1197.94 458.31 1166.83 460.89 C 1166.15 460.89 1164.80 460.90 1164.13 460.90 C 1158.08 460.24 1152.06 461.87 1146.03 461.04 C 1101.69 460.07 1057.95 444.17 1022.83 417.16 C 1022.35 416.85 1021.40 416.21 1020.92 415.89 C 1018.60 414.24 1015.97 412.91 1014.22 410.61 C 991.40 390.97 972.43 366.48 960.17 338.92 C 958.70 336.77 958.12 334.17 956.60 332.07 C 956.52 331.54 956.37 330.47 956.29 329.94 C 953.67 324.36 951.74 318.42 949.91 312.53 C 943.92 292.22 940.97 271.11 940.42 249.97 C 941.00 232.72 942.87 215.45 947.03 198.67 C 948.13 192.95 949.88 187.37 951.74 181.85 C 953.40 177.50 955.11 173.17 956.65 168.78 C 959.23 163.56 961.34 158.09 964.23 153.02 C 966.73 147.50 969.97 142.25 973.34 137.19 C 973.73 136.25 974.13 135.32 974.55 134.38 C 978.75 129.55 982.04 123.97 986.17 119.07 C 989.01 114.79 992.57 110.99 996.17 107.32 C 997.03 106.14 998.06 105.09 999.17 104.11 C 1009.26 93.12 1020.94 83.72 1033.16 75.19 C 1036.32 72.69 1040.13 71.03 1043.48 68.71 C 1048.16 65.84 1053.04 63.35 1057.88 60.76 C 1061.32 59.22 1064.63 57.41 1068.16 56.08 C 1076.77 52.24 1085.82 49.29 1094.84 46.68 M 1007.63 183.74 C 1006.34 185.61 1004.83 187.37 1004.14 189.57 C 1015.56 189.79 1026.99 189.68 1038.42 189.62 C 1038.64 248.33 1038.48 307.03 1038.49 365.73 C 1058.27 365.81 1078.05 365.91 1097.83 365.68 C 1097.82 288.58 1097.69 211.48 1097.89 134.38 C 1078.82 134.57 1059.72 134.78 1040.66 134.28 C 1029.37 150.58 1018.64 167.26 1007.63 183.74 M 1154.72 161.78 C 1146.80 170.87 1140.56 181.42 1136.47 192.76 C 1127.40 216.31 1126.42 242.01 1127.73 266.94 C 1128.52 275.34 1129.49 283.75 1131.58 291.94 C 1135.37 309.77 1143.57 326.67 1155.72 340.31 C 1163.57 347.84 1172.29 354.77 1182.51 358.78 C 1204.01 367.94 1229.10 368.09 1250.89 359.82 C 1266.23 353.61 1279.78 342.71 1288.48 328.57 C 1300.04 310.93 1304.74 289.80 1306.47 269.05 C 1307.22 248.16 1306.81 226.96 1301.63 206.59 C 1296.46 185.97 1286.55 165.76 1269.76 152.17 C 1236.69 125.33 1182.78 129.57 1154.72 161.78 Z" />
<path fill="#009de2" opacity="1.00" d=" M 1212.58 191.75 C 1218.62 189.71 1226.02 190.62 1230.54 195.42 C 1236.53 200.98 1238.84 209.17 1240.52 216.91 C 1243.31 231.06 1243.66 245.53 1243.36 259.93 C 1242.44 270.34 1242.13 280.98 1238.49 290.92 C 1236.12 297.61 1232.84 304.82 1226.18 308.19 C 1219.70 312.09 1211.08 310.39 1205.64 305.45 C 1200.39 300.57 1197.34 293.81 1195.31 287.05 C 1192.82 278.91 1191.45 270.43 1191.33 261.93 C 1190.16 250.98 1190.64 239.95 1192.02 229.06 C 1193.47 217.97 1195.99 206.22 1203.57 197.58 C 1205.88 194.76 1209.15 192.89 1212.58 191.75 Z" />
</g>
<g id="#2832372e">
<path fill="#283237" opacity="0.18" d=" M 1172.75 40.06 C 1178.55 39.47 1184.21 41.11 1189.94 41.79 C 1204.83 44.62 1219.67 48.29 1233.45 54.76 C 1242.28 58.59 1251.74 61.91 1259.11 68.26 C 1251.88 64.45 1244.83 60.22 1237.20 57.21 C 1216.92 47.78 1194.88 42.75 1172.75 40.06 Z" />
<path fill="#283237" opacity="0.18" d=" M 45.71 133.95 C 48.29 132.35 51.40 132.77 54.26 133.05 C 51.44 133.58 48.58 133.86 45.71 133.95 Z" />
<path fill="#283237" opacity="0.18" d=" M 59.39 133.10 C 62.40 132.59 65.56 132.71 68.35 134.04 C 65.35 133.87 62.35 133.68 59.39 133.10 Z" />
<path fill="#283237" opacity="0.18" d=" M 139.64 133.89 C 142.18 132.18 145.39 132.88 148.24 133.05 C 145.40 133.56 142.52 133.81 139.64 133.89 Z" />
<path fill="#283237" opacity="0.18" d=" M 154.24 133.13 C 157.28 132.58 160.46 132.69 163.32 133.95 C 160.28 133.90 157.23 133.73 154.24 133.13 Z" />
<path fill="#283237" opacity="0.18" d=" M 260.76 133.84 C 264.15 132.26 268.00 132.74 271.60 133.11 C 268.02 133.76 264.38 133.82 260.76 133.84 Z" />
<path fill="#283237" opacity="0.18" d=" M 283.41 133.13 C 287.39 132.73 291.62 132.24 295.40 133.85 C 291.40 133.71 287.36 133.90 283.41 133.13 Z" />
<path fill="#283237" opacity="0.18" d=" M 527.70 133.85 C 529.98 132.74 532.57 132.98 535.03 132.91 C 537.78 132.96 540.69 132.58 543.26 133.84 C 538.07 133.93 532.89 133.91 527.70 133.85 Z" />
<path fill="#283237" opacity="0.18" d=" M 654.54 133.85 C 657.90 132.20 661.77 132.80 665.36 133.10 C 661.79 133.76 658.15 133.84 654.54 133.85 Z" />
<path fill="#283237" opacity="0.18" d=" M 676.59 133.08 C 680.82 132.86 685.38 132.09 689.38 133.86 C 685.11 133.79 680.81 133.87 676.59 133.08 Z" />
<path fill="#283237" opacity="0.18" d=" M 802.19 133.86 C 802.71 131.77 806.45 132.08 807.89 133.25 C 806.03 133.79 804.10 133.95 802.19 133.86 Z" />
<path fill="#283237" opacity="0.18" d=" M 814.25 133.14 C 816.01 132.09 819.97 131.65 820.81 133.86 C 818.59 133.98 816.38 133.72 814.25 133.14 Z" />
<path fill="#283237" opacity="0.18" d=" M 38.11 137.26 C 39.73 134.94 42.66 133.90 45.42 133.98 C 42.99 134.82 40.18 135.55 38.65 137.81 C 37.93 139.79 38.00 141.94 37.91 144.03 C 37.91 214.03 37.93 284.03 37.90 354.03 C 37.99 355.99 37.77 358.28 39.32 359.77 C 41.83 362.78 46.03 362.60 49.50 363.63 C 44.59 363.76 36.82 362.46 37.23 356.00 C 37.01 285.98 37.20 215.96 37.13 145.94 C 37.28 143.05 36.90 139.97 38.11 137.26 Z" />
<path fill="#283237" opacity="0.18" d=" M 69.53 134.30 C 69.60 134.31 69.74 134.35 69.81 134.36 C 69.74 134.35 69.60 134.31 69.53 134.30 Z" />
<path fill="#283237" opacity="0.18" d=" M 136.48 134.57 C 136.52 134.56 136.61 134.53 136.65 134.51 C 136.61 134.53 136.52 134.56 136.48 134.57 Z" />
<path fill="#283237" opacity="0.18" d=" M 164.10 134.04 L 164.89 133.57 L 165.86 134.00 L 166.01 134.88 C 165.53 134.67 164.58 134.25 164.10 134.04 Z" />
<path fill="#283237" opacity="0.18" d=" M 252.76 139.80 C 253.68 136.55 256.72 133.84 260.19 133.88 C 257.39 134.95 254.56 136.68 253.74 139.77 C 250.96 148.25 248.76 156.93 246.08 165.45 C 246.09 163.90 246.27 162.35 246.77 160.87 C 248.89 153.88 250.41 146.72 252.76 139.80 Z" />
<path fill="#283237" opacity="0.18" d=" M 408.09 135.04 C 408.46 133.33 409.42 133.04 410.97 134.18 C 410.09 134.76 409.13 135.04 408.09 135.04 Z" />
<path fill="#283237" opacity="0.18" d=" M 434.25 134.21 C 435.69 133.08 439.53 132.75 439.84 135.01 C 437.94 135.03 436.08 134.68 434.25 134.21 Z" />
<path fill="#283237" opacity="0.18" d=" M 523.32 134.12 L 524.30 133.72 L 525.08 134.20 C 524.60 134.40 523.64 134.78 523.16 134.98 L 523.32 134.12 Z" />
<path fill="#283237" opacity="0.18" d=" M 546.45 134.39 C 546.51 134.41 546.62 134.45 546.68 134.47 C 546.62 134.45 546.51 134.41 546.45 134.39 Z" />
<path fill="#283237" opacity="0.18" d=" M 652.09 133.88 L 653.10 133.49 L 653.88 134.00 C 653.38 134.19 652.39 134.58 651.90 134.77 L 652.09 133.88 Z" />
<path fill="#283237" opacity="0.18" d=" M 690.30 133.98 C 693.89 133.91 697.50 136.31 697.56 140.17 C 696.09 137.17 693.49 134.96 690.30 133.98 Z" />
<path fill="#283237" opacity="0.18" d=" M 797.23 134.07 L 798.22 133.62 L 799.02 134.09 C 798.54 134.31 797.58 134.74 797.09 134.96 L 797.23 134.07 Z" />
<path fill="#283237" opacity="0.18" d=" M 823.91 134.18 L 824.69 133.66 L 825.70 134.03 L 825.90 134.89 C 825.40 134.71 824.41 134.36 823.91 134.18 Z" />
<path fill="#283237" opacity="0.18" d=" M 71.78 134.92 C 74.40 135.27 76.11 137.80 75.83 140.36 C 75.00 138.21 73.67 136.27 71.78 134.92 Z" />
<path fill="#283237" opacity="0.18" d=" M 127.72 145.26 C 128.69 141.11 131.20 136.03 135.64 134.91 C 131.87 137.38 129.98 141.55 127.72 145.26 Z" />
<path fill="#283237" opacity="0.18" d=" M 166.82 134.81 C 169.03 135.52 171.09 137.43 171.05 139.91 C 171.70 144.99 168.92 149.51 166.84 153.92 C 165.70 155.94 165.00 158.45 162.84 159.64 C 166.19 152.98 170.87 146.40 170.73 138.63 C 169.42 137.36 168.14 136.06 166.82 134.81 Z" />
<path fill="#283237" opacity="0.18" d=" M 406.33 135.43 C 406.39 135.41 406.51 135.38 406.56 135.36 C 406.51 135.38 406.39 135.41 406.33 135.43 Z" />
<path fill="#283237" opacity="0.18" d=" M 442.42 135.45 C 442.47 135.46 442.59 135.50 442.64 135.52 C 442.59 135.50 442.47 135.46 442.42 135.45 Z" />
<path fill="#283237" opacity="0.18" d=" M 517.82 141.36 C 517.45 138.48 519.44 135.29 522.41 134.86 C 520.17 136.45 518.62 138.74 517.82 141.36 Z" />
<path fill="#283237" opacity="0.18" d=" M 548.19 135.08 C 550.31 134.00 553.28 136.88 551.87 138.99 C 550.65 137.67 549.45 136.34 548.19 135.08 Z" />
<path fill="#283237" opacity="0.18" d=" M 826.78 134.76 C 828.93 135.53 831.09 137.46 831.00 139.93 C 831.08 201.26 830.91 262.61 831.08 323.95 C 850.08 324.05 869.10 323.82 888.09 324.02 C 891.75 323.98 894.52 327.07 893.92 330.75 C 893.03 328.34 892.13 324.79 888.90 324.97 C 869.38 324.69 849.84 325.15 830.33 324.75 C 830.18 263.47 830.36 202.20 830.24 140.93 C 830.39 138.33 828.34 136.52 826.78 134.76 Z" />
<path fill="#283237" opacity="0.18" d=" M 398.98 146.45 C 398.63 142.11 401.28 137.42 405.39 135.85 C 402.36 138.45 400.00 141.83 399.18 145.79 L 398.98 146.45 Z" />
<path fill="#283237" opacity="0.18" d=" M 444.53 136.38 C 444.57 136.41 444.66 136.45 444.71 136.48 C 444.66 136.45 444.57 136.41 444.53 136.38 Z" />
<path fill="#283237" opacity="0.18" d=" M 792.11 140.34 L 792.69 141.09 C 793.08 159.05 792.75 177.03 792.86 195.00 C 792.74 247.12 793.10 299.26 792.68 351.38 C 791.84 350.08 791.97 348.52 791.96 347.05 C 792.11 278.15 791.82 209.24 792.11 140.34 Z" />
<path fill="#283237" opacity="0.18" d=" M 698.21 142.82 L 699.09 143.03 L 699.46 144.06 L 698.93 144.83 C 698.75 144.33 698.39 143.32 698.21 142.82 Z" />
<path fill="#283237" opacity="0.18" d=" M 122.02 155.48 C 123.13 152.02 124.71 148.17 127.45 145.78 C 125.98 149.20 123.95 152.32 122.02 155.48 Z" />
<path fill="#283237" opacity="0.18" d=" M 699.07 146.03 L 699.97 146.19 L 700.39 147.19 L 699.90 147.98 C 699.69 147.50 699.28 146.52 699.07 146.03 Z" />
<path fill="#283237" opacity="0.18" d=" M 454.49 147.28 C 454.52 147.34 454.58 147.45 454.61 147.51 C 454.58 147.45 454.52 147.34 454.49 147.28 Z" />
<path fill="#283237" opacity="0.18" d=" M 644.12 148.14 L 645.02 148.03 C 644.78 148.50 644.31 149.45 644.08 149.92 L 643.64 149.11 L 644.12 148.14 Z" />
<path fill="#283237" opacity="0.18" d=" M 397.92 148.06 C 399.04 149.45 399.14 151.26 399.09 152.98 C 398.93 221.98 399.27 290.99 398.92 359.99 C 398.19 358.39 397.87 356.72 397.95 354.98 C 397.99 286.00 398.04 217.03 397.92 148.06 Z" />
<path fill="#283237" opacity="0.18" d=" M 455.02 148.39 C 457.44 150.80 458.27 154.23 459.66 157.25 C 460.71 160.30 462.66 163.10 462.88 166.40 C 460.08 160.48 457.60 154.41 455.02 148.39 Z" />
<path fill="#283237" opacity="0.18" d=" M 699.94 149.15 C 701.61 149.50 701.90 150.44 700.81 151.97 C 700.15 151.14 699.86 150.20 699.94 149.15 Z" />
<path fill="#283237" opacity="0.18" d=" M 643.20 154.04 C 642.05 152.54 642.33 151.59 644.01 151.18 C 644.08 152.23 643.81 153.18 643.20 154.04 Z" />
<path fill="#283237" opacity="0.18" d=" M 701.58 154.34 C 701.60 154.40 701.63 154.52 701.64 154.57 C 701.63 154.52 701.60 154.40 701.58 154.34 Z" />
<path fill="#283237" opacity="0.18" d=" M 640.00 162.86 C 640.96 160.05 640.86 156.71 643.02 154.45 C 639.77 167.58 635.80 180.52 631.99 193.50 C 632.08 192.71 632.26 191.15 632.36 190.36 C 634.95 181.21 637.33 171.99 640.00 162.86 Z" />
<path fill="#283237" opacity="0.18" d=" M 120.14 158.99 C 118.84 157.92 120.20 155.00 121.86 155.86 C 121.54 157.02 120.95 158.09 120.14 158.99 Z" />
<path fill="#283237" opacity="0.18" d=" M 701.87 155.51 C 702.50 156.40 702.99 157.37 703.34 158.42 C 705.65 166.94 708.19 175.40 710.40 183.96 C 711.21 187.44 712.88 190.76 712.94 194.40 C 709.02 181.50 704.94 168.63 701.87 155.51 Z" />
<path fill="#283237" opacity="0.18" d=" M 160.09 164.02 C 160.66 162.50 161.52 161.13 162.61 159.94 C 163.79 161.46 162.08 164.89 160.09 164.02 Z" />
<path fill="#283237" opacity="0.18" d=" M 118.38 161.65 C 118.42 161.58 118.49 161.45 118.53 161.38 C 118.49 161.45 118.42 161.58 118.38 161.65 Z" />
<path fill="#283237" opacity="0.18" d=" M 117.45 163.51 C 117.47 163.46 117.52 163.36 117.55 163.31 C 117.52 163.36 117.47 163.46 117.45 163.51 Z" />
<path fill="#283237" opacity="0.18" d=" M 112.60 172.28 C 113.37 169.32 114.57 166.17 117.09 164.28 C 115.86 167.08 114.35 169.76 112.60 172.28 Z" />
<path fill="#283237" opacity="0.18" d=" M 245.15 168.90 C 244.07 167.35 244.37 166.37 246.03 165.97 C 246.06 167.04 245.77 168.02 245.15 168.90 Z" />
<path fill="#283237" opacity="0.18" d=" M 462.93 166.50 C 464.73 168.33 465.85 170.82 465.90 173.40 C 464.78 171.16 463.78 168.86 462.93 166.50 Z" />
<path fill="#283237" opacity="0.18" d=" M 149.83 180.68 C 152.35 176.11 155.01 171.60 158.14 167.42 C 157.38 170.29 155.43 172.60 154.05 175.17 C 152.84 177.14 151.93 179.47 149.83 180.68 Z" />
<path fill="#283237" opacity="0.18" d=" M 243.95 170.09 L 244.83 169.91 C 244.63 170.41 244.23 171.40 244.03 171.90 L 243.54 171.11 L 243.95 170.09 Z" />
<path fill="#283237" opacity="0.18" d=" M 311.99 170.07 L 312.91 170.22 L 313.37 171.21 L 312.89 171.99 C 312.66 171.51 312.21 170.55 311.99 170.07 Z" />
<path fill="#283237" opacity="0.18" d=" M 243.07 173.34 L 243.95 173.14 C 243.77 173.65 243.42 174.65 243.24 175.16 L 242.70 174.38 L 243.07 173.34 Z" />
<path fill="#283237" opacity="0.18" d=" M 313.09 173.98 L 313.99 174.09 L 314.47 175.06 L 314.05 175.87 C 313.81 175.39 313.33 174.45 313.09 173.98 Z" />
<path fill="#283237" opacity="0.18" d=" M 466.03 173.70 C 468.12 175.21 468.81 177.97 468.98 180.42 C 467.87 178.23 466.88 175.99 466.03 173.70 Z" />
<path fill="#283237" opacity="0.18" d=" M 240.10 183.96 C 240.91 181.44 241.16 178.62 242.88 176.49 C 239.80 189.34 235.94 202.01 232.11 214.65 C 232.07 211.63 233.32 208.85 234.02 205.97 C 235.96 198.60 238.20 191.33 240.10 183.96 Z" />
<path fill="#283237" opacity="0.18" d=" M 314.06 177.18 L 314.94 177.39 L 315.28 178.43 L 314.72 179.20 C 314.56 178.70 314.23 177.69 314.06 177.18 Z" />
<path fill="#283237" opacity="0.18" d=" M 315.08 180.38 C 316.21 181.24 316.50 182.67 316.88 183.95 C 320.30 197.11 324.13 210.15 327.63 223.28 C 327.70 223.90 327.84 225.13 327.92 225.74 C 323.51 210.66 318.79 195.66 315.08 180.38 Z" />
<path fill="#283237" opacity="0.18" d=" M 469.11 180.73 C 471.26 182.56 471.79 185.51 472.98 187.96 C 474.20 191.46 476.38 194.67 476.85 198.41 C 473.98 192.65 471.38 186.75 469.11 180.73 Z" />
<path fill="#283237" opacity="0.18" d=" M 670.87 180.95 L 671.78 181.09 L 672.25 182.08 L 671.82 182.89 C 671.58 182.40 671.11 181.44 670.87 180.95 Z" />
<path fill="#283237" opacity="0.18" d=" M 103.01 189.38 C 103.41 186.62 104.91 184.12 106.98 182.28 C 105.79 184.72 104.49 187.10 103.01 189.38 Z" />
<path fill="#283237" opacity="0.18" d=" M 273.55 189.09 C 273.13 187.29 273.43 184.05 275.18 183.22 C 275.68 185.35 275.10 187.54 273.55 189.09 Z" />
<path fill="#283237" opacity="0.18" d=" M 147.41 184.58 C 147.45 184.53 147.51 184.43 147.55 184.38 C 147.51 184.43 147.45 184.53 147.41 184.58 Z" />
<path fill="#283237" opacity="0.18" d=" M 671.79 184.35 L 672.68 184.52 L 673.10 185.52 L 672.60 186.30 C 672.40 185.81 672.00 184.84 671.79 184.35 Z" />
<path fill="#283237" opacity="0.18" d=" M 673.08 187.50 C 676.43 197.53 678.78 207.88 681.66 218.07 C 682.61 222.64 684.53 227.03 684.78 231.73 C 681.00 220.48 678.48 208.87 675.37 197.43 C 674.38 194.17 673.40 190.90 673.08 187.50 Z" />
<path fill="#283237" opacity="0.18" d=" M 98.38 196.35 C 99.80 194.01 100.58 191.09 102.95 189.48 C 99.92 195.59 96.41 201.45 92.96 207.32 C 93.93 203.30 96.63 200.03 98.38 196.35 Z" />
<path fill="#283237" opacity="0.18" d=" M 272.22 191.42 L 273.10 191.24 C 272.91 191.72 272.53 192.68 272.34 193.15 L 271.83 192.40 L 272.22 191.42 Z" />
<path fill="#283237" opacity="0.18" d=" M 262.14 229.12 C 265.47 217.31 268.29 205.32 272.15 193.68 C 271.42 198.94 269.59 203.95 268.31 209.09 C 265.89 217.56 264.27 226.26 261.30 234.58 C 261.20 232.71 261.60 230.88 262.14 229.12 Z" />
<path fill="#283237" opacity="0.18" d=" M 631.03 194.20 L 631.91 194.01 C 631.74 194.51 631.38 195.51 631.20 196.01 L 630.66 195.23 L 631.03 194.20 Z" />
<path fill="#283237" opacity="0.18" d=" M 134.96 204.71 C 136.52 201.56 138.37 198.57 140.45 195.73 C 139.54 199.13 137.58 202.36 134.96 204.71 Z" />
<path fill="#283237" opacity="0.18" d=" M 713.17 195.89 L 714.05 196.04 L 714.49 197.05 L 714.02 197.85 C 713.80 197.36 713.38 196.38 713.17 195.89 Z" />
<path fill="#283237" opacity="0.18" d=" M 281.87 197.38 C 283.06 199.44 283.30 201.85 283.94 204.11 C 287.55 217.13 291.05 230.19 294.61 243.23 C 295.24 245.21 295.89 247.23 295.68 249.35 C 291.05 235.28 288.33 220.65 283.78 206.55 C 282.80 203.58 282.21 200.49 281.87 197.38 Z" />
<path fill="#283237" opacity="0.18" d=" M 436.25 197.85 C 436.44 198.35 436.81 199.34 437.00 199.84 L 436.10 199.66 L 435.72 198.63 L 436.25 197.85 Z" />
<path fill="#283237" opacity="0.18" d=" M 476.94 198.64 C 478.68 200.62 479.95 203.06 479.97 205.76 C 478.86 203.43 477.82 201.07 476.94 198.64 Z" />
<path fill="#283237" opacity="0.18" d=" M 714.10 199.08 L 714.99 199.24 L 715.43 200.24 L 714.95 201.03 C 714.74 200.55 714.31 199.57 714.10 199.08 Z" />
<path fill="#283237" opacity="0.18" d=" M 946.09 198.59 L 947.03 198.67 C 942.87 215.45 941.00 232.72 940.42 249.97 C 940.97 271.11 943.92 292.22 949.91 312.53 C 948.01 310.50 947.80 307.63 947.03 305.09 C 944.68 296.49 942.89 287.73 941.74 278.89 C 940.75 274.03 941.24 269.02 940.28 264.16 C 939.58 260.12 940.45 256.04 940.38 251.97 C 940.58 245.78 939.33 239.55 940.64 233.41 C 941.24 221.65 943.38 210.03 946.09 198.59 Z" />
<path fill="#283237" opacity="0.18" d=" M 437.39 201.37 C 437.41 201.44 437.45 201.56 437.46 201.63 C 437.45 201.56 437.41 201.44 437.39 201.37 Z" />
<path fill="#283237" opacity="0.18" d=" M 628.24 203.94 C 628.49 202.65 629.01 201.44 629.95 200.49 C 626.46 214.65 622.23 228.61 618.05 242.57 C 618.15 239.64 619.24 236.90 619.95 234.09 C 622.60 224.01 625.64 214.04 628.24 203.94 Z" />
<path fill="#283237" opacity="0.18" d=" M 715.13 202.98 L 716.01 203.16 L 716.40 204.17 L 715.88 204.95 C 715.69 204.46 715.32 203.47 715.13 202.98 Z" />
<path fill="#283237" opacity="0.18" d=" M 438.40 204.40 C 438.42 204.45 438.46 204.55 438.48 204.60 C 438.46 204.55 438.42 204.45 438.40 204.40 Z" />
<path fill="#283237" opacity="0.18" d=" M 134.47 205.57 C 134.50 205.52 134.55 205.44 134.57 205.40 C 134.55 205.44 134.50 205.52 134.47 205.57 Z" />
<path fill="#283237" opacity="0.18" d=" M 438.89 205.52 C 442.71 214.49 446.35 223.54 449.90 232.62 C 447.10 229.75 446.40 225.58 444.74 222.05 C 442.88 216.51 440.06 211.26 438.89 205.52 Z" />
<path fill="#283237" opacity="0.18" d=" M 480.06 206.08 L 480.97 206.18 L 481.45 207.16 L 480.99 207.99 C 480.76 207.51 480.30 206.56 480.06 206.08 Z" />
<path fill="#283237" opacity="0.18" d=" M 716.07 205.48 C 716.66 206.27 717.13 207.13 717.48 208.05 C 720.19 217.68 722.79 227.34 725.47 236.98 C 725.73 238.13 725.88 239.31 725.92 240.50 C 722.45 228.89 718.89 217.28 716.07 205.48 Z" />
<path fill="#283237" opacity="0.18" d=" M 90.18 212.36 C 89.13 210.73 90.78 207.44 92.75 207.79 C 92.18 209.46 91.34 211.02 90.18 212.36 Z" />
<path fill="#283237" opacity="0.18" d=" M 132.56 208.61 C 132.59 208.57 132.64 208.49 132.67 208.45 C 132.64 208.49 132.59 208.57 132.56 208.61 Z" />
<path fill="#283237" opacity="0.18" d=" M 481.58 209.30 C 481.60 209.36 481.65 209.47 481.67 209.52 C 481.65 209.47 481.60 209.36 481.58 209.30 Z" />
<path fill="#283237" opacity="0.18" d=" M 121.83 225.51 C 125.25 220.12 128.28 214.46 132.07 209.31 C 131.04 212.86 128.47 215.65 126.82 218.90 C 125.31 221.19 124.35 224.09 121.83 225.51 Z" />
<path fill="#283237" opacity="0.18" d=" M 482.51 211.61 C 484.49 213.12 484.98 215.67 485.96 217.82 C 487.03 220.69 488.72 223.39 489.01 226.50 C 486.56 221.67 484.40 216.69 482.51 211.61 Z" />
<path fill="#283237" opacity="0.18" d=" M 89.38 213.57 C 89.41 213.52 89.46 213.43 89.49 213.38 C 89.46 213.43 89.41 213.52 89.38 213.57 Z" />
<path fill="#283237" opacity="0.18" d=" M 85.04 220.19 C 86.23 218.14 86.99 215.69 89.01 214.27 C 86.67 219.25 83.82 223.96 80.95 228.64 C 81.52 225.49 83.69 223.01 85.04 220.19 Z" />
<path fill="#283237" opacity="0.18" d=" M 230.98 216.08 L 231.86 215.88 C 231.69 216.39 231.33 217.39 231.16 217.89 L 230.61 217.12 L 230.98 216.08 Z" />
<path fill="#283237" opacity="0.18" d=" M 659.34 216.41 L 660.20 216.26 C 660.01 216.74 659.63 217.70 659.44 218.18 C 659.41 217.74 659.36 216.85 659.34 216.41 Z" />
<path fill="#283237" opacity="0.18" d=" M 432.64 218.61 C 432.87 219.74 433.00 220.88 433.04 222.04 C 433.00 265.67 432.99 309.30 433.04 352.93 C 432.98 355.94 433.73 359.73 430.79 361.70 C 428.18 362.83 425.38 363.88 422.50 363.66 C 426.28 362.67 431.78 361.95 432.44 357.21 C 432.67 311.01 432.26 264.80 432.64 218.61 Z" />
<path fill="#283237" opacity="0.18" d=" M 230.38 220.59 C 230.40 220.53 230.44 220.39 230.45 220.32 C 230.44 220.39 230.40 220.53 230.38 220.59 Z" />
<path fill="#283237" opacity="0.18" d=" M 658.21 220.39 L 659.09 220.22 C 658.90 220.70 658.52 221.66 658.32 222.14 L 657.82 221.38 L 658.21 220.39 Z" />
<path fill="#283237" opacity="0.18" d=" M 656.81 226.17 C 657.08 225.34 657.40 224.52 657.79 223.73 C 655.69 234.60 652.18 245.12 649.71 255.90 C 649.17 258.27 648.46 260.62 647.18 262.71 C 649.87 250.40 653.67 238.37 656.81 226.17 Z" />
<path fill="#283237" opacity="0.18" d=" M 119.04 230.13 C 119.62 228.50 120.50 227.01 121.67 225.74 C 122.63 227.37 121.08 230.69 119.04 230.13 Z" />
<path fill="#283237" opacity="0.18" d=" M 328.18 227.00 C 330.44 227.10 331.03 231.19 329.90 232.85 C 329.07 230.98 328.43 229.03 328.18 227.00 Z" />
<path fill="#283237" opacity="0.18" d=" M 489.09 226.68 C 490.63 228.69 492.01 231.00 491.95 233.64 C 490.92 231.35 489.96 229.03 489.09 226.68 Z" />
<path fill="#283237" opacity="0.18" d=" M 684.76 232.27 L 685.65 232.44 L 686.05 233.44 L 685.55 234.22 C 685.35 233.73 684.96 232.76 684.76 232.27 Z" />
<path fill="#283237" opacity="0.18" d=" M 450.10 233.07 C 450.32 233.55 450.75 234.52 450.97 235.01 L 450.06 234.86 L 449.61 233.86 L 450.10 233.07 Z" />
<path fill="#283237" opacity="0.18" d=" M 330.17 233.98 L 331.06 234.16 L 331.46 235.17 L 330.96 235.96 C 330.76 235.46 330.37 234.47 330.17 233.98 Z" />
<path fill="#283237" opacity="0.18" d=" M 492.09 234.01 C 494.00 233.34 495.28 236.70 493.87 237.89 C 493.06 236.69 492.47 235.39 492.09 234.01 Z" />
<path fill="#283237" opacity="0.18" d=" M 260.38 238.01 C 259.36 236.43 259.66 235.43 261.28 234.99 C 261.33 236.10 261.03 237.10 260.38 238.01 Z" />
<path fill="#283237" opacity="0.18" d=" M 451.50 236.34 C 451.52 236.39 451.56 236.49 451.59 236.54 C 451.56 236.49 451.52 236.39 451.50 236.34 Z" />
<path fill="#283237" opacity="0.18" d=" M 331.05 236.30 C 333.42 240.74 334.01 245.89 335.57 250.65 C 336.72 256.37 339.25 261.79 339.86 267.61 C 336.88 257.19 333.17 246.93 331.05 236.30 Z" />
<path fill="#283237" opacity="0.18" d=" M 451.96 237.31 C 456.62 247.23 460.98 257.30 465.10 267.46 C 464.28 266.73 463.66 265.88 463.21 264.91 C 459.70 256.97 456.49 248.91 452.95 240.98 C 452.44 239.80 452.11 238.58 451.96 237.31 Z" />
<path fill="#283237" opacity="0.18" d=" M 259.31 239.29 L 260.21 239.14 C 260.00 239.63 259.57 240.60 259.36 241.09 L 258.88 240.29 L 259.31 239.29 Z" />
<path fill="#283237" opacity="0.18" d=" M 494.08 238.28 C 496.85 240.82 497.23 244.85 498.92 248.05 C 500.52 252.58 503.19 256.82 503.91 261.60 C 500.28 253.98 497.18 246.13 494.08 238.28 Z" />
<path fill="#283237" opacity="0.18" d=" M 725.96 240.61 C 727.44 242.04 727.41 244.23 728.04 246.08 C 731.22 256.68 734.37 267.31 737.10 278.04 C 737.87 280.81 739.03 283.52 739.02 286.46 C 734.20 271.31 730.16 255.93 725.96 240.61 Z" />
<path fill="#283237" opacity="0.18" d=" M 258.11 243.36 L 258.98 243.20 C 258.79 243.67 258.40 244.62 258.20 245.09 L 257.71 244.33 L 258.11 243.36 Z" />
<path fill="#283237" opacity="0.18" d=" M 616.29 248.99 C 615.10 247.33 615.88 243.64 617.94 243.19 C 617.80 245.22 617.32 247.22 616.29 248.99 Z" />
<path fill="#283237" opacity="0.18" d=" M 257.37 249.06 C 256.29 247.63 256.58 246.70 258.23 246.27 C 258.38 247.33 258.10 248.26 257.37 249.06 Z" />
<path fill="#283237" opacity="0.18" d=" M 295.73 249.54 C 297.77 252.77 298.22 256.91 298.82 260.68 C 297.38 257.08 296.34 253.36 295.73 249.54 Z" />
<path fill="#283237" opacity="0.18" d=" M 615.18 253.04 C 614.06 251.49 614.36 250.55 616.09 250.21 C 616.08 251.25 615.78 252.19 615.18 253.04 Z" />
<path fill="#283237" opacity="0.18" d=" M 120.03 251.31 C 123.12 254.28 124.97 258.52 126.13 262.61 C 123.85 258.98 121.77 255.23 120.03 251.31 Z" />
<path fill="#283237" opacity="0.18" d=" M 79.45 254.93 C 83.10 261.68 86.95 268.34 90.07 275.36 C 87.99 274.56 87.73 272.00 86.69 270.30 C 84.50 265.07 80.99 260.43 79.45 254.93 Z" />
<path fill="#283237" opacity="0.18" d=" M 518.10 254.39 C 518.53 256.58 518.68 258.80 518.64 261.03 C 518.39 272.07 519.03 283.10 518.94 294.14 C 517.51 288.86 518.07 283.35 517.84 277.96 C 517.84 270.11 517.33 262.21 518.10 254.39 Z" />
<path fill="#283237" opacity="0.18" d=" M 611.89 262.00 C 612.71 259.40 613.02 256.53 614.76 254.33 C 611.97 265.87 608.46 277.22 605.13 288.61 C 605.03 286.42 605.69 284.33 606.33 282.27 C 608.12 275.49 610.09 268.77 611.89 262.00 Z" />
<path fill="#283237" opacity="0.18" d=" M 298.78 261.33 L 299.66 261.49 L 300.06 262.48 L 299.57 263.26 C 299.37 262.78 298.98 261.81 298.78 261.33 Z" />
<path fill="#283237" opacity="0.18" d=" M 503.98 261.95 L 504.88 262.05 L 505.37 263.03 L 504.93 263.85 C 504.69 263.38 504.21 262.42 503.98 261.95 Z" />
<path fill="#283237" opacity="0.18" d=" M 646.28 264.30 L 647.13 264.07 C 646.97 264.56 646.67 265.55 646.52 266.05 C 646.46 265.61 646.34 264.74 646.28 264.30 Z" />
<path fill="#283237" opacity="0.18" d=" M 217.06 265.20 L 217.97 265.05 C 217.75 265.53 217.31 266.50 217.09 266.98 L 216.61 266.19 L 217.06 265.20 Z" />
<path fill="#283237" opacity="0.18" d=" M 506.06 266.98 L 506.96 267.11 L 507.41 268.10 L 506.94 268.91 C 506.72 268.43 506.28 267.47 506.06 266.98 Z" />
<path fill="#283237" opacity="0.18" d=" M 465.50 268.50 C 465.52 268.54 465.56 268.64 465.57 268.69 C 465.56 268.64 465.52 268.54 465.50 268.50 Z" />
<path fill="#283237" opacity="0.18" d=" M 645.19 268.35 L 646.03 268.11 C 645.89 268.61 645.61 269.59 645.47 270.08 L 644.90 269.36 L 645.19 268.35 Z" />
<path fill="#283237" opacity="0.18" d=" M 215.99 269.09 L 216.88 268.92 C 216.69 269.42 216.32 270.41 216.13 270.90 L 215.60 270.11 L 215.99 269.09 Z" />
<path fill="#283237" opacity="0.18" d=" M 340.06 268.96 L 340.96 269.11 L 341.41 270.10 L 340.94 270.90 C 340.72 270.41 340.28 269.45 340.06 268.96 Z" />
<path fill="#283237" opacity="0.18" d=" M 507.56 270.34 C 507.59 270.41 507.64 270.54 507.66 270.60 C 507.64 270.54 507.59 270.41 507.56 270.34 Z" />
<path fill="#283237" opacity="0.18" d=" M 508.10 272.08 L 509.00 272.27 L 509.37 273.29 L 508.82 274.07 C 508.64 273.57 508.28 272.57 508.10 272.08 Z" />
<path fill="#283237" opacity="0.18" d=" M 214.07 275.96 C 214.40 274.63 215.01 273.39 215.77 272.26 C 212.18 287.53 207.29 302.45 203.09 317.56 C 203.08 316.06 203.19 314.56 203.70 313.13 C 207.40 300.81 210.50 288.32 214.07 275.96 Z" />
<path fill="#283237" opacity="0.18" d=" M 341.15 273.01 L 342.05 273.11 L 342.54 274.07 L 342.13 274.89 C 341.88 274.42 341.40 273.48 341.15 273.01 Z" />
<path fill="#283237" opacity="0.18" d=" M 467.10 272.43 C 470.32 279.08 473.49 285.77 475.95 292.75 C 473.43 290.31 472.92 286.60 471.39 283.56 C 470.03 279.83 467.77 276.40 467.10 272.43 Z" />
<path fill="#283237" opacity="0.18" d=" M 90.14 275.50 C 95.59 285.74 101.24 295.91 106.17 306.43 C 103.22 303.53 102.02 299.45 100.08 295.91 C 96.79 289.10 92.68 282.61 90.14 275.50 Z" />
<path fill="#283237" opacity="0.18" d=" M 133.04 275.29 C 135.57 277.86 136.87 281.28 138.58 284.40 C 139.88 286.98 141.64 289.39 142.15 292.31 C 138.70 286.86 135.85 281.08 133.04 275.29 Z" />
<path fill="#283237" opacity="0.18" d=" M 342.11 276.05 L 342.99 276.25 L 343.35 277.29 L 342.81 278.07 C 342.63 277.56 342.29 276.56 342.11 276.05 Z" />
<path fill="#283237" opacity="0.18" d=" M 343.18 279.30 C 345.26 281.88 345.39 285.38 346.42 288.43 C 348.84 298.13 352.21 307.63 353.92 317.49 C 350.28 304.78 346.15 292.19 343.18 279.30 Z" />
<path fill="#283237" opacity="0.18" d=" M 739.12 287.00 C 741.16 287.42 742.01 291.18 740.80 292.84 C 739.83 291.02 739.25 289.05 739.12 287.00 Z" />
<path fill="#283237" opacity="0.18" d=" M 604.20 289.29 L 605.09 289.15 C 604.87 289.63 604.43 290.59 604.21 291.07 L 603.74 290.27 L 604.20 289.29 Z" />
<path fill="#283237" opacity="0.18" d=" M 476.12 292.97 C 476.31 293.47 476.68 294.47 476.87 294.97 L 475.97 294.76 L 475.59 293.73 L 476.12 292.97 Z" />
<path fill="#283237" opacity="0.18" d=" M 603.01 293.09 L 603.91 292.97 C 603.67 293.44 603.20 294.39 602.96 294.87 L 602.53 294.06 L 603.01 293.09 Z" />
<path fill="#283237" opacity="0.18" d=" M 741.09 294.06 L 741.98 294.24 L 742.38 295.25 L 741.89 296.04 C 741.69 295.54 741.29 294.55 741.09 294.06 Z" />
<path fill="#283237" opacity="0.18" d=" M 477.46 296.41 C 477.48 296.46 477.53 296.56 477.55 296.61 C 477.53 296.56 477.48 296.46 477.46 296.41 Z" />
<path fill="#283237" opacity="0.18" d=" M 602.09 296.37 L 602.97 296.18 C 602.79 296.68 602.41 297.67 602.23 298.17 L 601.70 297.39 L 602.09 296.37 Z" />
<path fill="#283237" opacity="0.18" d=" M 478.40 298.40 C 478.43 298.47 478.49 298.60 478.52 298.66 C 478.49 298.60 478.43 298.47 478.40 298.40 Z" />
<path fill="#283237" opacity="0.18" d=" M 742.15 298.04 L 743.04 298.22 L 743.44 299.23 L 742.95 300.02 C 742.75 299.53 742.35 298.54 742.15 298.04 Z" />
<path fill="#283237" opacity="0.18" d=" M 479.31 300.47 C 479.34 300.53 479.39 300.65 479.42 300.71 C 479.39 300.65 479.34 300.53 479.31 300.47 Z" />
<path fill="#283237" opacity="0.18" d=" M 600.20 305.93 C 599.00 304.31 599.53 300.37 601.84 300.27 C 601.64 302.24 601.03 304.13 600.20 305.93 Z" />
<path fill="#283237" opacity="0.18" d=" M 743.07 301.14 L 743.95 301.35 L 744.30 302.39 L 743.75 303.15 C 743.58 302.65 743.24 301.64 743.07 301.14 Z" />
<path fill="#283237" opacity="0.18" d=" M 147.54 302.30 C 147.57 302.35 147.62 302.46 147.64 302.51 C 147.62 302.46 147.57 302.35 147.54 302.30 Z" />
<path fill="#283237" opacity="0.18" d=" M 480.07 302.17 C 483.91 310.57 487.83 318.95 491.07 327.60 C 488.42 325.23 487.97 321.45 486.43 318.40 C 484.42 312.95 481.34 307.84 480.07 302.17 Z" />
<path fill="#283237" opacity="0.18" d=" M 148.22 303.81 C 150.26 303.11 151.88 306.63 150.62 308.15 C 149.64 306.81 148.80 305.37 148.22 303.81 Z" />
<path fill="#283237" opacity="0.18" d=" M 743.91 303.42 C 744.66 304.54 745.24 305.79 745.60 307.11 C 747.50 314.13 749.52 321.11 751.33 328.16 C 751.94 330.56 753.08 332.87 752.93 335.42 C 749.55 324.87 746.42 314.21 743.91 303.42 Z" />
<path fill="#283237" opacity="0.18" d=" M 596.96 314.95 C 597.92 312.10 597.98 308.82 600.01 306.45 C 597.43 317.22 594.19 327.83 590.95 338.42 C 592.12 330.43 595.01 322.78 596.96 314.95 Z" />
<path fill="#283237" opacity="0.18" d=" M 150.76 308.38 C 152.46 309.06 152.92 310.94 153.74 312.39 C 155.18 315.44 157.13 318.28 157.95 321.59 C 155.27 317.35 152.91 312.91 150.76 308.38 Z" />
<path fill="#283237" opacity="0.18" d=" M 241.00 311.44 C 241.28 311.32 241.86 311.08 242.14 310.96 C 239.48 320.82 237.02 330.72 234.48 340.61 C 233.85 342.96 233.41 345.43 232.03 347.50 C 234.34 335.32 238.66 323.62 241.00 311.44 Z" />
<path fill="#283237" opacity="0.18" d=" M 635.39 310.97 L 635.84 310.96 C 636.74 312.44 635.94 315.51 634.13 315.76 C 634.26 314.10 634.54 312.42 635.39 310.97 Z" />
<path fill="#283237" opacity="0.18" d=" M 705.01 310.91 C 705.29 310.99 705.85 311.14 706.13 311.22 C 707.83 319.00 710.44 326.56 711.97 334.39 C 711.01 332.73 710.30 330.95 709.89 329.09 C 708.38 323.00 706.50 317.01 705.01 310.91 Z" />
<path fill="#283237" opacity="0.18" d=" M 312.27 312.91 C 312.44 313.41 312.78 314.42 312.95 314.92 L 312.07 314.73 L 311.71 313.69 L 312.27 312.91 Z" />
<path fill="#283237" opacity="0.18" d=" M 313.00 316.22 C 313.22 316.71 313.67 317.67 313.89 318.16 L 312.99 318.01 L 312.54 317.01 L 313.00 316.22 Z" />
<path fill="#283237" opacity="0.18" d=" M 633.17 318.95 C 633.36 318.46 633.76 317.48 633.96 316.99 L 634.46 317.79 L 634.05 318.79 L 633.17 318.95 Z" />
<path fill="#283237" opacity="0.18" d=" M 202.12 320.98 C 200.99 319.45 201.29 318.50 203.00 318.13 C 203.01 319.17 202.72 320.12 202.12 320.98 Z" />
<path fill="#283237" opacity="0.18" d=" M 354.00 318.07 C 355.70 318.43 356.00 319.37 354.89 320.91 C 354.27 320.06 353.97 319.11 354.00 318.07 Z" />
<path fill="#283237" opacity="0.18" d=" M 112.93 319.16 C 113.87 320.28 114.48 321.63 114.91 323.03 C 113.07 323.78 111.71 320.39 112.93 319.16 Z" />
<path fill="#283237" opacity="0.18" d=" M 314.10 319.58 C 318.04 332.30 321.21 345.26 324.84 358.07 C 325.36 359.75 326.28 361.58 328.12 362.09 C 336.19 365.05 344.89 363.14 353.26 363.81 C 346.88 364.37 340.49 363.70 334.11 363.90 C 330.36 363.89 325.46 363.18 324.25 358.97 C 322.07 351.70 320.27 344.31 318.31 336.98 C 317.04 331.14 314.70 325.55 314.10 319.58 Z" />
<path fill="#283237" opacity="0.18" d=" M 632.12 322.89 C 632.32 322.40 632.71 321.41 632.90 320.91 L 633.40 321.70 L 633.00 322.71 L 632.12 322.89 Z" />
<path fill="#283237" opacity="0.18" d=" M 158.43 322.42 C 158.45 322.47 158.51 322.57 158.53 322.62 C 158.51 322.57 158.45 322.47 158.43 322.42 Z" />
<path fill="#283237" opacity="0.18" d=" M 200.14 327.88 C 198.98 326.22 199.57 322.21 201.83 322.07 C 201.57 324.09 201.00 326.04 200.14 327.88 Z" />
<path fill="#283237" opacity="0.18" d=" M 355.11 321.38 C 357.06 324.25 357.99 327.92 357.91 331.37 C 356.79 328.09 355.89 324.75 355.11 321.38 Z" />
<path fill="#283237" opacity="0.18" d=" M 115.36 323.99 C 116.50 325.52 117.40 327.19 117.94 329.03 C 115.66 329.50 114.36 325.73 115.36 323.99 Z" />
<path fill="#283237" opacity="0.18" d=" M 631.08 326.98 C 631.31 326.50 631.77 325.55 632.00 325.07 L 632.44 325.87 L 631.98 326.85 L 631.08 326.98 Z" />
<path fill="#283237" opacity="0.18" d=" M 491.40 328.42 C 491.42 328.47 491.47 328.57 491.49 328.61 C 491.47 328.57 491.42 328.47 491.40 328.42 Z" />
<path fill="#283237" opacity="0.18" d=" M 196.65 337.71 C 197.83 334.64 197.70 330.96 199.96 328.40 C 198.42 335.34 196.23 342.11 194.37 348.97 C 193.46 352.24 193.01 355.71 193.55 359.09 C 194.51 362.25 198.15 363.23 201.06 363.58 C 207.88 364.17 214.71 363.36 221.53 363.06 C 224.75 362.99 227.22 360.80 229.20 358.48 C 228.27 362.61 223.60 363.64 219.99 363.93 C 212.99 364.11 205.98 363.99 198.99 363.92 C 196.35 363.65 192.93 362.09 192.88 359.02 C 191.86 351.68 194.92 344.69 196.65 337.71 Z" />
<path fill="#283237" opacity="0.18" d=" M 630.07 330.97 C 630.29 330.49 630.71 329.52 630.93 329.03 L 631.41 329.82 L 630.97 330.82 L 630.07 330.97 Z" />
<path fill="#283237" opacity="0.18" d=" M 118.50 330.41 C 118.52 330.46 118.57 330.55 118.59 330.60 C 118.57 330.55 118.52 330.46 118.50 330.41 Z" />
<path fill="#283237" opacity="0.18" d=" M 162.58 330.30 C 162.60 330.36 162.66 330.47 162.69 330.52 C 162.66 330.47 162.60 330.36 162.58 330.30 Z" />
<path fill="#283237" opacity="0.18" d=" M 492.20 329.99 C 492.95 331.20 493.58 332.50 493.93 333.91 C 492.02 334.60 490.79 331.16 492.20 329.99 Z" />
<path fill="#283237" opacity="0.18" d=" M 163.05 331.25 C 165.90 333.89 167.18 337.67 169.01 341.00 C 171.04 345.61 173.69 350.29 173.73 355.44 C 171.70 346.75 166.91 339.17 163.05 331.25 Z" />
<path fill="#283237" opacity="0.18" d=" M 358.03 331.83 C 359.21 332.43 359.33 333.89 359.71 335.02 C 361.53 342.60 364.27 350.04 364.70 357.88 C 364.96 362.14 360.24 364.04 356.68 363.72 C 359.11 363.01 362.16 362.63 363.44 360.12 C 364.90 350.30 359.50 341.32 358.03 331.83 Z" />
<path fill="#283237" opacity="0.18" d=" M 622.52 358.38 C 625.36 349.54 627.23 340.42 629.97 331.55 C 628.96 340.25 625.60 348.52 623.92 357.11 C 623.06 361.97 617.79 364.24 613.30 363.58 C 616.69 362.63 621.23 362.32 622.52 358.38 Z" />
<path fill="#283237" opacity="0.18" d=" M 494.11 334.44 C 497.24 341.61 500.30 348.87 504.67 355.40 C 501.15 352.87 499.76 348.57 497.90 344.85 C 496.58 341.41 494.56 338.16 494.11 334.44 Z" />
<path fill="#283237" opacity="0.18" d=" M 712.14 334.99 C 712.32 335.49 712.68 336.49 712.86 336.99 L 711.98 336.80 L 711.60 335.78 L 712.14 334.99 Z" />
<path fill="#283237" opacity="0.18" d=" M 753.00 335.63 C 754.78 338.66 755.39 342.35 755.85 345.82 C 754.80 342.45 753.75 339.07 753.00 335.63 Z" />
<path fill="#283237" opacity="0.18" d=" M 589.98 339.12 L 590.86 338.94 C 590.67 339.44 590.29 340.44 590.11 340.94 L 589.59 340.15 L 589.98 339.12 Z" />
<path fill="#283237" opacity="0.18" d=" M 589.13 344.88 C 588.05 343.33 588.35 342.37 590.03 341.98 C 590.06 343.04 589.76 344.01 589.13 344.88 Z" />
<path fill="#283237" opacity="0.18" d=" M 587.99 346.23 L 588.86 346.02 C 588.70 346.53 588.37 347.54 588.20 348.05 L 587.64 347.27 L 587.99 346.23 Z" />
<path fill="#283237" opacity="0.18" d=" M 231.16 350.12 C 231.34 349.62 231.70 348.62 231.88 348.12 L 232.41 348.90 L 232.04 349.93 L 231.16 350.12 Z" />
<path fill="#283237" opacity="0.18" d=" M 549.14 357.68 C 550.44 355.00 551.30 352.15 552.06 349.28 C 552.32 352.31 551.77 355.78 549.14 357.68 Z" />
<path fill="#283237" opacity="0.18" d=" M 586.34 356.94 C 586.77 354.43 586.10 351.33 587.88 349.30 C 587.17 353.69 585.40 359.20 589.68 362.39 C 591.28 362.75 592.89 363.16 594.49 363.57 C 590.59 364.40 585.37 361.44 586.34 356.94 Z" />
<path fill="#283237" opacity="0.18" d=" M 230.12 354.02 C 230.32 353.53 230.74 352.55 230.95 352.06 L 231.43 352.86 L 231.00 353.86 L 230.12 354.02 Z" />
<path fill="#283237" opacity="0.18" d=" M 131.44 355.34 C 131.47 355.40 131.53 355.51 131.55 355.57 C 131.53 355.51 131.47 355.40 131.44 355.34 Z" />
<path fill="#283237" opacity="0.18" d=" M 229.13 358.00 C 229.32 357.52 229.70 356.55 229.89 356.06 L 230.38 356.85 L 229.98 357.83 L 229.13 358.00 Z" />
<path fill="#283237" opacity="0.18" d=" M 505.13 355.97 C 506.00 356.46 506.67 357.16 507.13 358.07 C 505.34 358.48 504.67 357.78 505.13 355.97 Z" />
<path fill="#283237" opacity="0.18" d=" M 1166.83 460.89 C 1197.94 458.31 1228.70 449.39 1255.74 433.70 L 1256.83 433.45 C 1255.71 434.96 1254.02 435.77 1252.41 436.57 C 1230.95 448.36 1207.36 456.22 1183.13 459.72 C 1177.67 459.99 1172.32 461.60 1166.83 460.89 Z" />
</g>
<g id="#010101ff">
<path fill="#010101" opacity="1.00" d=" M 54.26 133.05 C 55.96 132.73 57.70 132.79 59.39 133.10 C 62.35 133.68 65.35 133.87 68.35 134.04 L 69.53 134.30 C 69.60 134.31 69.74 134.35 69.81 134.36 C 70.30 134.50 71.29 134.78 71.78 134.92 C 73.67 136.27 75.00 138.21 75.83 140.36 C 75.87 172.55 75.62 204.75 75.96 236.93 C 77.98 234.39 79.24 231.38 80.95 228.64 C 83.82 223.96 86.67 219.25 89.01 214.27 L 89.38 213.57 C 89.41 213.52 89.46 213.43 89.49 213.38 L 90.18 212.36 C 91.34 211.02 92.18 209.46 92.75 207.79 L 92.96 207.32 C 96.41 201.45 99.92 195.59 102.95 189.48 L 103.01 189.38 C 104.49 187.10 105.79 184.72 106.98 182.28 C 108.90 178.97 110.61 175.55 112.60 172.28 C 114.35 169.76 115.86 167.08 117.09 164.28 L 117.45 163.51 C 117.47 163.46 117.52 163.36 117.55 163.31 L 118.38 161.65 C 118.42 161.58 118.49 161.45 118.53 161.38 C 118.93 160.79 119.74 159.59 120.14 158.99 C 120.95 158.09 121.54 157.02 121.86 155.86 L 122.02 155.48 C 123.95 152.32 125.98 149.20 127.45 145.78 C 127.52 145.65 127.65 145.39 127.72 145.26 C 129.98 141.55 131.87 137.38 135.64 134.91 L 136.48 134.57 C 136.52 134.56 136.61 134.53 136.65 134.51 C 137.40 134.36 138.89 134.05 139.64 133.89 C 142.52 133.81 145.40 133.56 148.24 133.05 C 150.22 132.70 152.26 132.76 154.24 133.13 C 157.23 133.73 160.28 133.90 163.32 133.95 L 164.10 134.04 C 164.58 134.25 165.53 134.67 166.01 134.88 L 166.82 134.81 C 168.14 136.06 169.42 137.36 170.73 138.63 C 170.87 146.40 166.19 152.98 162.84 159.64 L 162.61 159.94 C 161.52 161.13 160.66 162.50 160.09 164.02 C 159.57 165.22 158.89 166.35 158.14 167.42 C 155.01 171.60 152.35 176.11 149.83 180.68 C 149.11 181.94 148.31 183.15 147.55 184.38 C 147.51 184.43 147.45 184.53 147.41 184.58 C 145.06 188.28 142.92 192.11 140.45 195.73 C 138.37 198.57 136.52 201.56 134.96 204.71 L 134.57 205.40 C 134.55 205.44 134.50 205.52 134.47 205.57 C 134.02 206.29 133.12 207.73 132.67 208.45 C 132.64 208.49 132.59 208.57 132.56 208.61 L 132.07 209.31 C 128.28 214.46 125.25 220.12 121.83 225.51 L 121.67 225.74 C 120.50 227.01 119.62 228.50 119.04 230.13 C 117.48 233.24 115.46 236.11 113.45 238.94 C 115.57 243.11 117.85 247.18 120.03 251.31 C 121.77 255.23 123.85 258.98 126.13 262.61 C 128.53 266.78 130.61 271.13 133.04 275.29 C 135.85 281.08 138.70 286.86 142.15 292.31 C 144.01 295.60 145.77 298.95 147.54 302.30 C 147.57 302.35 147.62 302.46 147.64 302.51 L 148.22 303.81 C 148.80 305.37 149.64 306.81 150.62 308.15 L 150.76 308.38 C 152.91 312.91 155.27 317.35 157.95 321.59 L 158.43 322.42 C 158.45 322.47 158.51 322.57 158.53 322.62 C 159.83 325.20 161.21 327.75 162.58 330.30 C 162.60 330.36 162.66 330.47 162.69 330.52 L 163.05 331.25 C 166.91 339.17 171.70 346.75 173.73 355.44 C 174.29 358.62 171.60 361.77 168.54 362.39 C 164.78 363.27 160.94 363.96 157.06 363.82 C 151.38 363.62 145.61 364.31 140.04 362.84 C 136.03 362.41 133.04 359.10 131.55 355.57 C 131.53 355.51 131.47 355.40 131.44 355.34 C 127.25 347.05 122.91 338.83 118.59 330.60 C 118.57 330.55 118.52 330.46 118.50 330.41 L 117.94 329.03 C 117.40 327.19 116.50 325.52 115.36 323.99 L 114.91 323.03 C 114.48 321.63 113.87 320.28 112.93 319.16 C 110.29 315.14 108.42 310.67 106.17 306.43 C 101.24 295.91 95.59 285.74 90.14 275.50 L 90.07 275.36 C 86.95 268.34 83.10 261.68 79.45 254.93 C 78.35 252.91 77.52 250.70 75.90 249.02 C 75.66 284.37 75.90 319.74 75.78 355.09 C 76.22 358.46 73.67 361.46 70.55 362.35 C 63.74 364.41 56.50 363.89 49.50 363.63 C 46.03 362.60 41.83 362.78 39.32 359.77 C 37.77 358.28 37.99 355.99 37.90 354.03 C 37.93 284.03 37.91 214.03 37.91 144.03 C 38.00 141.94 37.93 139.79 38.65 137.81 C 40.18 135.55 42.99 134.82 45.42 133.98 L 45.71 133.95 C 48.58 133.86 51.44 133.58 54.26 133.05 Z" />
<path fill="#010101" opacity="1.00" d=" M 271.60 133.11 C 275.51 132.72 279.50 132.66 283.41 133.13 C 287.36 133.90 291.40 133.71 295.40 133.85 C 295.69 133.92 296.27 134.05 296.56 134.12 C 299.24 135.33 302.31 136.83 303.11 139.94 C 305.97 149.74 308.45 159.67 311.77 169.34 L 311.99 170.07 C 312.21 170.55 312.66 171.51 312.89 171.99 C 312.94 172.48 313.04 173.48 313.09 173.98 C 313.33 174.45 313.81 175.39 314.05 175.87 L 314.06 177.18 C 314.23 177.69 314.56 178.70 314.72 179.20 C 314.81 179.50 314.99 180.09 315.08 180.38 C 318.79 195.66 323.51 210.66 327.92 225.74 C 327.98 226.06 328.12 226.69 328.18 227.00 C 328.43 229.03 329.07 230.98 329.90 232.85 L 330.17 233.98 C 330.37 234.47 330.76 235.46 330.96 235.96 L 331.05 236.30 C 333.17 246.93 336.88 257.19 339.86 267.61 C 339.91 267.95 340.01 268.63 340.06 268.96 C 340.28 269.45 340.72 270.41 340.94 270.90 C 340.99 271.42 341.10 272.48 341.15 273.01 C 341.40 273.48 341.88 274.42 342.13 274.89 L 342.11 276.05 C 342.29 276.56 342.63 277.56 342.81 278.07 C 342.90 278.37 343.09 278.99 343.18 279.30 C 346.15 292.19 350.28 304.78 353.92 317.49 L 354.00 318.07 C 353.97 319.11 354.27 320.06 354.89 320.91 L 355.11 321.38 C 355.89 324.75 356.79 328.09 357.91 331.37 L 358.03 331.83 C 359.50 341.32 364.90 350.30 363.44 360.12 C 362.16 362.63 359.11 363.01 356.68 363.72 C 355.53 363.80 354.39 363.83 353.26 363.81 C 344.89 363.14 336.19 365.05 328.12 362.09 C 326.28 361.58 325.36 359.75 324.84 358.07 C 321.21 345.26 318.04 332.30 314.10 319.58 C 314.05 319.22 313.94 318.51 313.89 318.16 C 313.67 317.67 313.22 316.71 313.00 316.22 L 312.95 314.92 C 312.78 314.42 312.44 313.41 312.27 312.91 C 312.11 312.42 311.79 311.44 311.63 310.95 C 288.47 310.92 265.30 310.88 242.14 310.96 C 241.86 311.08 241.28 311.32 241.00 311.44 C 238.66 323.62 234.34 335.32 232.03 347.50 L 231.88 348.12 C 231.70 348.62 231.34 349.62 231.16 350.12 C 231.10 350.61 231.00 351.58 230.95 352.06 C 230.74 352.55 230.32 353.53 230.12 354.02 C 230.06 354.53 229.95 355.55 229.89 356.06 C 229.70 356.55 229.32 357.52 229.13 358.00 L 229.20 358.48 C 227.22 360.80 224.75 362.99 221.53 363.06 C 214.71 363.36 207.88 364.17 201.06 363.58 C 198.15 363.23 194.51 362.25 193.55 359.09 C 193.01 355.71 193.46 352.24 194.37 348.97 C 196.23 342.11 198.42 335.34 199.96 328.40 L 200.14 327.88 C 201.00 326.04 201.57 324.09 201.83 322.07 L 202.12 320.98 C 202.72 320.12 203.01 319.17 203.00 318.13 L 203.09 317.56 C 207.29 302.45 212.18 287.53 215.77 272.26 C 215.86 271.92 216.04 271.24 216.13 270.90 C 216.32 270.41 216.69 269.42 216.88 268.92 C 216.93 268.44 217.04 267.47 217.09 266.98 C 217.31 266.50 217.75 265.53 217.97 265.05 L 218.21 264.30 C 222.62 250.65 226.41 236.79 229.88 222.87 C 230.01 222.30 230.26 221.16 230.38 220.59 C 230.40 220.53 230.44 220.39 230.45 220.32 C 230.63 219.72 230.98 218.50 231.16 217.89 C 231.33 217.39 231.69 216.39 231.86 215.88 C 231.92 215.58 232.05 214.96 232.11 214.65 C 235.94 202.01 239.80 189.34 242.88 176.49 C 242.97 176.16 243.15 175.49 243.24 175.16 C 243.42 174.65 243.77 173.65 243.95 173.14 L 244.03 171.90 C 244.23 171.40 244.63 170.41 244.83 169.91 L 245.15 168.90 C 245.77 168.02 246.06 167.04 246.03 165.97 L 246.08 165.45 C 248.76 156.93 250.96 148.25 253.74 139.77 C 254.56 136.68 257.39 134.95 260.19 133.88 L 260.76 133.84 C 264.38 133.82 268.02 133.76 271.60 133.11 M 275.10 182.33 L 275.18 183.22 C 273.43 184.05 273.13 187.29 273.55 189.09 C 273.43 189.63 273.21 190.70 273.10 191.24 L 272.22 191.42 L 271.83 192.40 L 272.34 193.15 L 272.15 193.68 C 268.29 205.32 265.47 217.31 262.14 229.12 C 261.60 230.88 261.20 232.71 261.30 234.58 L 261.28 234.99 C 259.66 235.43 259.36 236.43 260.38 238.01 L 260.21 239.14 L 259.31 239.29 L 258.88 240.29 L 259.36 241.09 C 259.27 241.61 259.08 242.67 258.98 243.20 L 258.11 243.36 L 257.71 244.33 L 258.20 245.09 L 258.23 246.27 C 256.58 246.70 256.29 247.63 257.37 249.06 C 255.40 253.15 254.79 257.77 253.50 262.11 C 252.57 266.52 250.54 270.71 250.49 275.27 C 267.84 275.23 285.19 275.23 302.54 275.27 C 302.35 271.12 300.96 267.13 299.57 263.26 L 300.06 262.48 L 299.66 261.49 L 298.78 261.33 L 298.82 260.68 C 298.22 256.91 297.77 252.77 295.73 249.54 L 295.68 249.35 C 295.89 247.23 295.24 245.21 294.61 243.23 C 291.05 230.19 287.55 217.13 283.94 204.11 C 283.30 201.85 283.06 199.44 281.87 197.38 L 281.86 197.31 C 281.08 190.93 278.77 184.77 277.33 178.50 C 275.18 177.58 274.84 180.91 275.10 182.33 Z" />
<path fill="#010101" opacity="1.00" d=" M 665.36 133.10 C 669.08 132.70 672.86 132.71 676.59 133.08 C 680.81 133.87 685.11 133.79 689.38 133.86 C 689.61 133.89 690.07 133.95 690.30 133.98 C 693.49 134.96 696.09 137.17 697.56 140.17 C 697.87 141.03 698.08 141.91 698.21 142.82 C 698.39 143.32 698.75 144.33 698.93 144.83 L 699.07 146.03 C 699.28 146.52 699.69 147.50 699.90 147.98 L 699.94 149.15 C 699.86 150.20 700.15 151.14 700.81 151.97 C 701.01 152.56 701.39 153.75 701.58 154.34 C 701.60 154.40 701.63 154.52 701.64 154.57 L 701.87 155.51 C 704.94 168.63 709.02 181.50 712.94 194.40 C 713.00 194.77 713.11 195.52 713.17 195.89 C 713.38 196.38 713.80 197.36 714.02 197.85 L 714.10 199.08 C 714.31 199.57 714.74 200.55 714.95 201.03 C 714.99 201.52 715.08 202.49 715.13 202.98 C 715.32 203.47 715.69 204.46 715.88 204.95 L 716.07 205.48 C 718.89 217.28 722.45 228.89 725.92 240.50 L 725.96 240.61 C 730.16 255.93 734.20 271.31 739.02 286.46 L 739.12 287.00 C 739.25 289.05 739.83 291.02 740.80 292.84 L 741.09 294.06 C 741.29 294.55 741.69 295.54 741.89 296.04 C 741.95 296.54 742.09 297.54 742.15 298.04 C 742.35 298.54 742.75 299.53 742.95 300.02 L 743.07 301.14 C 743.24 301.64 743.58 302.65 743.75 303.15 L 743.91 303.42 C 746.42 314.21 749.55 324.87 752.93 335.42 L 753.00 335.63 C 753.75 339.07 754.80 342.45 755.85 345.82 C 755.90 346.07 756.01 346.57 756.06 346.83 C 756.61 350.87 757.75 354.81 758.31 358.86 C 757.19 360.01 756.08 361.18 754.97 362.35 C 753.64 362.41 752.32 362.49 751.00 362.57 C 751.85 362.58 752.70 362.59 753.56 362.60 L 753.59 363.19 C 748.46 364.11 743.24 363.74 738.07 363.81 C 732.54 363.74 726.75 364.35 721.53 362.15 C 718.97 360.98 718.43 357.90 717.67 355.51 C 716.14 349.31 714.23 343.21 712.86 336.99 C 712.68 336.49 712.32 335.49 712.14 334.99 L 711.97 334.39 C 710.44 326.56 707.83 319.00 706.13 311.22 C 705.85 311.14 705.29 310.99 705.01 310.91 C 681.96 310.95 658.89 310.87 635.84 310.96 L 635.39 310.97 C 634.54 312.42 634.26 314.10 634.13 315.76 L 633.96 316.99 C 633.76 317.48 633.36 318.46 633.17 318.95 C 633.10 319.44 632.97 320.42 632.90 320.91 C 632.71 321.41 632.32 322.40 632.12 322.89 C 632.09 323.44 632.03 324.53 632.00 325.07 C 631.77 325.55 631.31 326.50 631.08 326.98 C 631.04 327.49 630.97 328.52 630.93 329.03 C 630.71 329.52 630.29 330.49 630.07 330.97 L 629.97 331.55 C 627.23 340.42 625.36 349.54 622.52 358.38 C 621.23 362.32 616.69 362.63 613.30 363.58 C 607.05 363.88 600.73 363.99 594.49 363.57 C 592.89 363.16 591.28 362.75 589.68 362.39 C 585.40 359.20 587.17 353.69 587.88 349.30 C 587.96 348.99 588.12 348.36 588.20 348.05 C 588.37 347.54 588.70 346.53 588.86 346.02 L 589.13 344.88 C 589.76 344.01 590.06 343.04 590.03 341.98 L 590.11 340.94 C 590.29 340.44 590.67 339.44 590.86 338.94 L 590.95 338.42 C 594.19 327.83 597.43 317.22 600.01 306.45 L 600.20 305.93 C 601.03 304.13 601.64 302.24 601.84 300.27 C 601.93 299.74 602.13 298.69 602.23 298.17 C 602.41 297.67 602.79 296.68 602.97 296.18 L 602.96 294.87 C 603.20 294.39 603.67 293.44 603.91 292.97 C 603.98 292.49 604.13 291.55 604.21 291.07 C 604.43 290.59 604.87 289.63 605.09 289.15 L 605.13 288.61 C 608.46 277.22 611.97 265.87 614.76 254.33 C 614.86 254.01 615.07 253.36 615.18 253.04 C 615.78 252.19 616.08 251.25 616.09 250.21 L 616.29 248.99 C 617.32 247.22 617.80 245.22 617.94 243.19 L 618.05 242.57 C 622.23 228.61 626.46 214.65 629.95 200.49 C 630.32 198.99 630.70 197.48 631.20 196.01 C 631.38 195.51 631.74 194.51 631.91 194.01 L 631.99 193.50 C 635.80 180.52 639.77 167.58 643.02 154.45 L 643.20 154.04 C 643.81 153.18 644.08 152.23 644.01 151.18 L 644.08 149.92 C 644.31 149.45 644.78 148.50 645.02 148.03 C 645.99 143.27 646.87 136.87 651.90 134.77 C 652.39 134.58 653.38 134.19 653.88 134.00 L 654.54 133.85 C 658.15 133.84 661.79 133.76 665.36 133.10 M 667.49 185.96 C 665.14 195.75 661.83 205.38 660.05 215.26 L 660.20 216.26 L 659.34 216.41 C 659.36 216.85 659.41 217.74 659.44 218.18 C 659.35 218.69 659.18 219.71 659.09 220.22 L 658.21 220.39 L 657.82 221.38 L 658.32 222.14 C 658.19 222.54 657.92 223.34 657.79 223.73 C 657.40 224.52 657.08 225.34 656.81 226.17 C 653.67 238.37 649.87 250.40 647.18 262.71 L 646.88 263.24 L 647.13 264.07 L 646.28 264.30 C 646.34 264.74 646.46 265.61 646.52 266.05 L 645.70 266.89 L 646.03 268.11 L 645.19 268.35 L 644.90 269.36 L 645.47 270.08 C 644.35 271.57 644.21 273.47 644.30 275.27 C 661.70 275.23 679.11 275.23 696.52 275.26 C 696.36 273.83 696.29 272.39 695.82 271.03 C 692.09 258.86 689.51 246.27 685.55 234.22 L 686.05 233.44 L 685.65 232.44 L 684.76 232.27 L 684.78 231.73 C 684.53 227.03 682.61 222.64 681.66 218.07 C 678.78 207.88 676.43 197.53 673.08 187.50 C 672.96 187.20 672.72 186.60 672.60 186.30 L 673.10 185.52 L 672.68 184.52 L 671.79 184.35 L 671.82 182.89 L 672.25 182.08 L 671.78 181.09 L 670.87 180.95 L 670.65 179.03 C 670.73 178.71 670.89 178.07 670.97 177.75 C 668.62 179.81 668.41 183.16 667.49 185.96 Z" />
<path fill="#010101" opacity="1.00" d=" M 807.89 133.25 C 809.96 132.69 812.15 132.68 814.25 133.14 C 816.38 133.72 818.59 133.98 820.81 133.86 C 821.59 133.94 823.14 134.10 823.91 134.18 C 824.41 134.36 825.40 134.71 825.90 134.89 L 826.78 134.76 C 828.34 136.52 830.39 138.33 830.24 140.93 C 830.36 202.20 830.18 263.47 830.33 324.75 C 849.84 325.15 869.38 324.69 888.90 324.97 C 892.13 324.79 893.03 328.34 893.92 330.75 C 894.79 339.04 894.94 347.48 893.91 355.77 C 893.31 358.54 892.49 362.54 888.95 362.67 C 861.30 362.89 833.63 362.66 805.96 362.78 C 803.42 362.79 800.70 362.88 798.49 361.42 C 794.67 359.68 793.10 355.26 792.68 351.38 C 793.10 299.26 792.74 247.12 792.86 195.00 C 792.75 177.03 793.08 159.05 792.69 141.09 C 792.11 138.29 794.37 135.43 797.09 134.96 C 797.58 134.74 798.54 134.31 799.02 134.09 C 799.81 134.04 801.40 133.92 802.19 133.86 C 804.10 133.95 806.03 133.79 807.89 133.25 Z" />
<path fill="#010101" opacity="1.00" d=" M 410.97 134.18 C 418.70 133.79 426.52 133.77 434.25 134.21 C 436.08 134.68 437.94 135.03 439.84 135.01 C 440.48 135.12 441.77 135.34 442.42 135.45 C 442.47 135.46 442.59 135.50 442.64 135.52 L 444.53 136.38 C 444.57 136.41 444.66 136.45 444.71 136.48 C 449.01 138.93 452.21 142.95 454.49 147.28 C 454.52 147.34 454.58 147.45 454.61 147.51 L 455.02 148.39 C 457.60 154.41 460.08 160.48 462.88 166.40 L 462.93 166.50 C 463.78 168.86 464.78 171.16 465.90 173.40 L 466.03 173.70 C 466.88 175.99 467.87 178.23 468.98 180.42 L 469.11 180.73 C 471.38 186.75 473.98 192.65 476.85 198.41 L 476.94 198.64 C 477.82 201.07 478.86 203.43 479.97 205.76 L 480.06 206.08 C 480.30 206.56 480.76 207.51 480.99 207.99 L 481.58 209.30 C 481.60 209.36 481.65 209.47 481.67 209.52 C 481.88 210.04 482.30 211.09 482.51 211.61 C 484.40 216.69 486.56 221.67 489.01 226.50 L 489.09 226.68 C 489.96 229.03 490.92 231.35 491.95 233.64 L 492.09 234.01 C 492.47 235.39 493.06 236.69 493.87 237.89 L 494.08 238.28 C 497.18 246.13 500.28 253.98 503.91 261.60 L 503.98 261.95 C 504.21 262.42 504.69 263.38 504.93 263.85 C 505.46 264.84 505.84 265.88 506.06 266.98 C 506.28 267.47 506.72 268.43 506.94 268.91 L 507.56 270.34 C 507.59 270.41 507.64 270.54 507.66 270.60 L 508.10 272.08 C 508.28 272.57 508.64 273.57 508.82 274.07 L 509.07 274.82 C 511.76 283.39 515.49 291.59 518.48 300.06 C 518.64 299.02 518.78 297.99 518.91 296.96 C 518.92 296.26 518.93 294.85 518.94 294.14 C 519.03 283.10 518.39 272.07 518.64 261.03 C 518.68 258.80 518.53 256.58 518.10 254.39 C 517.40 241.30 518.00 228.13 517.80 215.01 C 517.82 190.46 517.77 165.91 517.82 141.36 C 518.62 138.74 520.17 136.45 522.41 134.86 L 523.16 134.98 C 523.64 134.78 524.60 134.40 525.08 134.20 C 525.74 134.11 527.05 133.94 527.70 133.85 C 532.89 133.91 538.07 133.93 543.26 133.84 C 544.05 133.98 545.65 134.25 546.45 134.39 C 546.51 134.41 546.62 134.45 546.68 134.47 L 548.19 135.08 C 549.45 136.34 550.65 137.67 551.87 138.99 L 552.46 139.65 C 552.08 194.75 552.40 249.87 552.29 304.97 C 552.14 319.74 552.60 334.54 552.06 349.28 C 551.30 352.15 550.44 355.00 549.14 357.68 C 546.96 360.48 543.75 363.04 540.00 362.80 C 532.67 362.83 525.34 362.79 518.02 362.82 C 513.92 363.00 509.89 361.00 507.13 358.07 C 506.67 357.16 506.00 356.46 505.13 355.97 L 504.67 355.40 C 500.30 348.87 497.24 341.61 494.11 334.44 L 493.93 333.91 C 493.58 332.50 492.95 331.20 492.20 329.99 L 491.49 328.61 C 491.47 328.57 491.42 328.47 491.40 328.42 L 491.07 327.60 C 487.83 318.95 483.91 310.57 480.07 302.17 C 479.91 301.81 479.58 301.07 479.42 300.71 C 479.39 300.65 479.34 300.53 479.31 300.47 L 478.52 298.66 C 478.49 298.60 478.43 298.47 478.40 298.40 L 477.55 296.61 C 477.53 296.56 477.48 296.46 477.46 296.41 L 476.87 294.97 C 476.68 294.47 476.31 293.47 476.12 292.97 L 475.95 292.75 C 473.49 285.77 470.32 279.08 467.10 272.43 C 466.54 271.21 466.06 269.93 465.57 268.69 C 465.56 268.64 465.52 268.54 465.50 268.50 L 465.10 267.46 C 460.98 257.30 456.62 247.23 451.96 237.31 L 451.59 236.54 C 451.56 236.49 451.52 236.39 451.50 236.34 L 450.97 235.01 C 450.75 234.52 450.32 233.55 450.10 233.07 L 449.90 232.62 C 446.35 223.54 442.71 214.49 438.89 205.52 L 438.48 204.60 C 438.46 204.55 438.42 204.45 438.40 204.40 C 438.17 203.70 437.70 202.32 437.46 201.63 C 437.45 201.56 437.41 201.44 437.39 201.37 L 437.00 199.84 C 436.81 199.34 436.44 198.35 436.25 197.85 L 435.69 197.03 C 434.59 193.10 433.50 189.17 431.88 185.42 C 431.15 192.57 431.63 199.80 432.23 206.93 C 432.97 210.78 432.56 214.71 432.64 218.61 C 432.26 264.80 432.67 311.01 432.44 357.21 C 431.78 361.95 426.28 362.67 422.50 363.66 C 415.00 363.75 406.91 364.82 400.09 360.94 C 399.68 357.64 399.76 354.31 399.77 351.00 C 399.74 289.99 399.74 229.01 399.77 168.00 C 399.48 160.60 400.38 153.14 399.18 145.79 C 400.00 141.83 402.36 138.45 405.39 135.85 L 406.33 135.43 C 406.39 135.41 406.51 135.38 406.56 135.36 L 408.09 135.04 C 409.13 135.04 410.09 134.76 410.97 134.18 Z" />
</g>
<g id="#707173ff">
<path fill="#707173" opacity="1.00" d=" M 296.56 134.12 C 300.15 134.65 303.09 137.25 303.88 140.82 C 306.27 150.39 309.57 159.72 311.77 169.34 C 308.45 159.67 305.97 149.74 303.11 139.94 C 302.31 136.83 299.24 135.33 296.56 134.12 Z" />
<path fill="#707173" opacity="1.00" d=" M 275.10 182.33 C 274.84 180.91 275.18 177.58 277.33 178.50 C 278.77 184.77 281.08 190.93 281.86 197.31 C 280.44 191.19 278.42 185.22 277.16 179.06 C 275.74 179.59 275.06 180.68 275.10 182.33 Z" />
<path fill="#707173" opacity="1.00" d=" M 667.49 185.96 C 668.41 183.16 668.62 179.81 670.97 177.75 C 670.89 178.07 670.73 178.71 670.65 179.03 C 669.88 180.31 668.94 181.54 668.64 183.03 C 666.01 193.83 662.80 204.49 660.05 215.26 C 661.83 205.38 665.14 195.75 667.49 185.96 Z" />
<path fill="#707173" opacity="1.00" d=" M 221.47 252.08 C 224.51 242.41 226.73 232.50 229.88 222.87 C 226.41 236.79 222.62 250.65 218.21 264.30 C 219.00 260.15 220.43 256.17 221.47 252.08 Z" />
<path fill="#707173" opacity="1.00" d=" M 1360.85 272.90 C 1361.02 272.64 1361.37 272.13 1361.54 271.87 C 1360.54 284.02 1358.24 296.07 1354.82 307.76 C 1354.22 309.98 1353.60 312.18 1353.09 314.42 C 1348.29 327.13 1343.89 340.25 1336.66 351.83 C 1332.24 360.74 1326.43 368.90 1320.71 377.01 C 1317.40 381.14 1314.35 385.57 1310.40 389.11 C 1314.07 383.85 1318.68 379.30 1322.23 373.93 C 1328.95 364.81 1334.46 354.90 1340.03 345.06 C 1345.65 332.25 1351.68 319.47 1354.88 305.78 C 1357.68 295.01 1360.25 284.03 1360.85 272.90 Z" />
<path fill="#707173" opacity="1.00" d=" M 509.07 274.82 C 512.36 281.85 514.52 289.37 517.75 296.40 L 518.91 296.96 C 518.78 297.99 518.64 299.02 518.48 300.06 C 515.49 291.59 511.76 283.39 509.07 274.82 Z" />
<path fill="#707173" opacity="1.00" d=" M 756.06 346.83 C 757.04 349.91 757.39 353.16 758.58 356.19 C 759.32 358.82 757.02 360.80 755.53 362.61 C 755.04 362.61 754.06 362.60 753.56 362.60 C 752.70 362.59 751.85 362.58 751.00 362.57 C 752.32 362.49 753.64 362.41 754.97 362.35 C 756.08 361.18 757.19 360.01 758.31 358.86 C 757.75 354.81 756.61 350.87 756.06 346.83 Z" />
<path fill="#707173" opacity="1.00" d=" M 673.11 396.22 C 678.13 394.74 683.22 396.05 688.22 396.78 C 690.40 397.65 692.58 398.54 694.70 399.58 C 696.45 401.40 698.45 403.03 699.80 405.21 C 700.02 405.71 700.45 406.70 700.66 407.20 C 701.84 409.02 702.83 411.05 702.72 413.29 C 704.39 416.58 703.40 420.43 703.67 423.97 C 703.44 426.87 704.34 430.12 702.64 432.70 C 702.37 434.05 703.05 435.87 701.69 436.78 C 700.00 443.11 694.43 447.42 688.95 450.46 C 688.37 450.51 687.19 450.60 686.60 450.65 C 684.66 452.01 682.20 451.54 679.99 451.66 C 675.56 451.50 670.90 452.23 666.73 450.33 C 665.82 449.35 664.40 449.46 663.37 448.72 C 660.19 446.39 657.38 443.51 655.37 440.10 C 655.40 439.46 655.47 438.18 655.50 437.54 L 654.50 437.46 C 652.36 430.20 653.39 422.43 653.51 414.95 C 654.61 412.80 654.93 410.33 656.28 408.30 C 659.17 401.54 666.08 397.44 673.11 396.22 M 674.62 404.80 C 668.15 405.94 664.75 413.02 664.34 419.00 C 664.26 425.78 663.32 433.42 667.84 439.11 C 670.50 443.03 675.75 443.36 680.05 443.31 C 683.81 443.25 686.80 440.79 689.42 438.37 C 693.13 431.94 693.11 424.26 692.32 417.10 C 691.88 413.95 690.95 410.78 688.67 408.46 C 685.53 404.04 679.43 404.14 674.62 404.80 Z" />
<path fill="#707173" opacity="1.00" d=" M 792.54 401.50 C 799.46 396.30 808.63 394.66 817.08 396.23 C 821.31 396.98 825.81 398.33 828.71 401.72 C 828.60 403.99 828.57 406.26 828.56 408.53 C 826.72 408.77 825.37 407.34 823.59 407.39 L 823.67 406.40 C 821.05 406.40 818.78 404.82 816.21 404.54 C 812.94 404.15 809.62 404.23 806.35 404.45 C 804.36 405.19 802.52 406.34 800.39 406.64 C 796.56 410.44 793.28 415.49 793.33 421.07 C 792.29 429.33 795.33 439.13 803.73 442.32 C 806.95 444.06 810.73 443.20 814.23 443.32 C 815.62 442.66 817.04 442.06 818.48 441.48 C 818.27 437.62 818.33 433.76 818.41 429.91 C 819.10 427.75 816.39 427.50 815.00 427.71 C 812.10 427.93 809.18 428.43 806.34 427.56 C 806.33 425.21 806.37 422.87 806.47 420.54 C 813.40 420.38 820.34 420.56 827.28 420.43 C 828.96 422.61 828.57 425.42 828.61 428.00 C 828.53 433.68 828.67 439.37 828.56 445.06 C 828.93 447.02 826.79 447.84 826.20 449.45 C 825.55 449.47 824.25 449.53 823.60 449.56 C 818.17 452.31 811.84 451.53 805.95 451.64 C 802.65 451.76 799.79 449.84 796.58 449.45 L 796.65 448.49 C 795.23 448.59 793.85 448.19 792.93 447.08 C 790.63 444.77 788.11 442.64 786.19 439.99 C 779.61 427.73 781.49 410.61 792.54 401.50 Z" />
<path fill="#707173" opacity="1.00" d=" M 586.52 400.02 C 586.17 398.45 587.66 397.36 588.88 396.81 C 592.20 396.55 595.62 396.33 598.91 396.98 C 602.61 398.81 604.34 402.87 605.67 406.55 L 606.42 406.75 C 606.83 409.98 609.55 412.20 610.68 415.15 C 612.60 420.00 615.90 424.22 617.69 429.07 C 618.64 430.46 619.67 431.91 619.72 433.68 C 620.37 433.69 621.67 433.71 622.32 433.72 C 621.28 421.82 621.71 409.84 621.84 397.92 C 624.14 395.55 628.44 396.56 631.36 397.39 C 631.34 414.43 631.33 431.47 631.36 448.51 C 629.34 452.07 625.25 451.45 621.77 451.37 C 618.43 450.22 616.15 447.36 614.68 444.28 C 612.19 439.47 609.64 434.70 607.31 429.81 C 605.47 427.31 604.39 424.38 602.83 421.72 C 602.20 420.26 601.50 418.83 600.68 417.47 C 598.97 415.34 599.21 410.87 595.63 411.32 C 595.85 423.88 595.77 436.45 595.72 449.01 C 596.05 451.77 592.85 451.38 591.00 451.45 C 589.34 451.63 587.82 451.03 586.42 450.23 C 586.60 433.49 586.38 416.75 586.52 400.02 Z" />
<path fill="#707173" opacity="1.00" d=" M 725.63 397.90 C 727.28 397.04 729.09 396.50 730.98 396.62 C 736.64 396.68 742.30 396.56 747.96 396.72 C 751.83 397.35 755.65 398.82 758.91 401.04 C 764.67 407.22 763.92 418.14 757.09 423.29 C 754.18 423.13 753.60 426.17 754.32 428.41 C 754.75 428.36 755.61 428.26 756.05 428.21 C 756.46 430.59 758.65 432.03 759.41 434.29 C 761.13 439.77 764.55 444.58 765.63 450.29 C 762.24 451.69 757.93 452.19 754.67 450.26 C 754.51 449.23 754.19 448.27 753.69 447.37 C 750.57 440.96 749.34 433.12 743.28 428.64 C 740.90 428.68 738.53 428.69 736.17 428.75 C 736.42 435.60 736.16 442.45 736.36 449.29 C 735.64 450.01 734.94 450.72 734.24 451.45 C 731.30 451.31 728.17 451.83 725.48 450.36 C 725.68 432.88 725.40 415.38 725.63 397.90 M 736.50 404.49 C 736.41 409.88 736.52 415.27 736.36 420.67 C 740.71 420.43 745.74 421.55 749.43 418.62 C 750.67 416.93 751.40 414.93 752.35 413.08 C 751.85 411.66 751.47 410.22 751.18 408.77 C 750.48 407.83 749.80 406.89 749.12 405.96 C 745.10 404.25 740.75 404.48 736.50 404.49 Z" />
<path fill="#707173" opacity="1.00" d=" M 852.49 401.04 C 852.47 399.48 852.39 397.80 853.52 396.58 C 863.53 396.77 873.53 396.54 883.54 396.68 C 883.65 399.24 883.64 401.80 883.56 404.36 C 876.82 405.49 869.93 404.61 863.14 404.88 C 862.04 409.40 862.39 414.06 862.32 418.66 C 868.42 418.83 874.58 418.16 880.60 419.42 C 880.53 421.83 880.52 424.24 880.54 426.66 C 874.44 426.59 868.35 426.80 862.26 426.59 C 862.49 432.19 861.84 437.87 863.32 443.36 C 870.06 443.22 876.81 443.30 883.56 443.30 C 883.35 444.73 883.66 445.97 884.48 447.03 C 883.95 448.16 883.64 449.36 883.57 450.62 C 876.67 450.61 869.77 450.54 862.88 450.63 C 862.41 450.77 861.46 451.05 860.99 451.19 C 858.25 450.42 855.39 450.57 852.59 450.48 C 852.43 434.00 852.61 417.52 852.49 401.04 Z" />
<path fill="#707173" opacity="1.00" d=" M 1020.92 415.89 C 1021.40 416.21 1022.35 416.85 1022.83 417.16 C 1057.95 444.17 1101.69 460.07 1146.03 461.04 C 1152.06 461.87 1158.08 460.24 1164.13 460.90 C 1153.48 462.33 1142.61 461.21 1131.91 460.65 C 1116.05 459.04 1100.19 456.15 1085.15 450.76 C 1066.69 444.94 1049.35 436.01 1033.21 425.41 C 1030.47 423.38 1027.44 421.73 1025.08 419.25 C 1023.41 418.50 1022.08 417.26 1020.92 415.89 Z" />
</g>
<g id="#ffffffff">
<path fill="#ffffff" opacity="1.00" d=" M 1007.63 183.74 C 1018.64 167.26 1029.37 150.58 1040.66 134.28 C 1059.72 134.78 1078.82 134.57 1097.89 134.38 C 1097.69 211.48 1097.82 288.58 1097.83 365.68 C 1078.05 365.91 1058.27 365.81 1038.49 365.73 C 1038.48 307.03 1038.64 248.33 1038.42 189.62 C 1026.99 189.68 1015.56 189.79 1004.14 189.57 C 1004.83 187.37 1006.34 185.61 1007.63 183.74 Z" />
<path fill="#ffffff" opacity="1.00" d=" M 1154.72 161.78 C 1182.78 129.57 1236.69 125.33 1269.76 152.17 C 1286.55 165.76 1296.46 185.97 1301.63 206.59 C 1306.81 226.96 1307.22 248.16 1306.47 269.05 C 1304.74 289.80 1300.04 310.93 1288.48 328.57 C 1279.78 342.71 1266.23 353.61 1250.89 359.82 C 1229.10 368.09 1204.01 367.94 1182.51 358.78 C 1172.29 354.77 1163.57 347.84 1155.72 340.31 C 1143.57 326.67 1135.37 309.77 1131.58 291.94 C 1129.49 283.75 1128.52 275.34 1127.73 266.94 C 1126.42 242.01 1127.40 216.31 1136.47 192.76 C 1140.56 181.42 1146.80 170.87 1154.72 161.78 M 1212.58 191.75 C 1209.15 192.89 1205.88 194.76 1203.57 197.58 C 1195.99 206.22 1193.47 217.97 1192.02 229.06 C 1190.64 239.95 1190.16 250.98 1191.33 261.93 C 1191.45 270.43 1192.82 278.91 1195.31 287.05 C 1197.34 293.81 1200.39 300.57 1205.64 305.45 C 1211.08 310.39 1219.70 312.09 1226.18 308.19 C 1232.84 304.82 1236.12 297.61 1238.49 290.92 C 1242.13 280.98 1242.44 270.34 1243.36 259.93 C 1243.66 245.53 1243.31 231.06 1240.52 216.91 C 1238.84 209.17 1236.53 200.98 1230.54 195.42 C 1226.02 190.62 1218.62 189.71 1212.58 191.75 Z" />
<path fill="#ffffff" opacity="1.00" d=" M 432.23 206.93 C 431.63 199.80 431.15 192.57 431.88 185.42 C 433.50 189.17 434.59 193.10 435.69 197.03 C 434.43 194.57 433.24 192.04 433.06 189.24 C 430.89 190.50 431.79 193.09 431.70 195.07 C 432.23 199.00 432.15 202.97 432.23 206.93 Z" />
</g>
</svg>
