<?xml version="1.0" encoding="utf-8"?>
<!-- Generator: Adobe Illustrator 14.0.0, SVG Export Plug-In . SVG Version: 6.00 Build 43363)  -->
<!DOCTYPE svg PUBLIC "-//W3C//DTD SVG 1.1//EN" "http://www.w3.org/Graphics/SVG/1.1/DTD/svg11.dtd">
<svg version="1.1" id="Layer_1" xmlns="http://www.w3.org/2000/svg" xmlns:xlink="http://www.w3.org/1999/xlink"
	 width="300px" height="250px" xml:space="preserve">
<path d="M188.466,217.423c-64.665,35.537-134.752,37.611-165.789,1.462
	c-35.412-41.256-6.474-116.063,64.57-167.139c9.702-6.996,19.642-13.066,29.782-18.499c0,0-4.928,20.164-7.021,29.253
	c24.974,1.463,60.386,9.197,52.878,42.938c-7.645,34.468-69.689,77.619-96.957,97.373c-1.147,5.85-3.341,14.505-3.341,14.505
	S141.67,217.423,188.466,217.423 M279.883,33.871C254.189,3.987,201.842-0.078,147.829,19.473
	c67.798,11.17,89.739,41.25,82.642,73.012c-9.506,42.434-55.148,67.281-68.934,76.175l-0.547,2.176h60.6l-6.902,30.514
	c0.215-0.125,0.429-0.214,0.625-0.434C286.351,149.838,315.301,75.043,279.883,33.871"/>
<path fill="#FEBD2A" d="M185.862,214.938c-64.553,35.399-134.657,37.486-165.789,1.349
	c-35.312-41.279-6.485-115.961,64.553-167.156c9.719-6.902,19.735-13.061,29.782-18.387c0,0-4.922,20.158-6.997,29.146
	c24.968,1.558,60.48,9.303,52.955,42.926c-7.729,34.484-69.79,77.625-97.034,97.379c-1.059,5.838-3.364,14.517-3.364,14.517
	S139.168,214.938,185.862,214.938"/>
<path fill="#DA1F27" d="M277.267,31.268c-25.698-29.872-78.028-33.85-131.94-14.309
	c67.697,11.074,89.639,41.268,82.523,72.922c-9.387,42.409-55.148,67.383-68.935,76.15l-0.528,2.199h60.587l-6.89,30.604
	c0.214-0.214,0.416-0.303,0.636-0.41C283.734,147.229,312.696,72.529,277.267,31.268"/>
</svg>
