<?xml version="1.0" encoding="UTF-8" ?>
<!DOCTYPE svg PUBLIC "-//W3C//DTD SVG 1.1//EN" "http://www.w3.org/Graphics/SVG/1.1/DTD/svg11.dtd">
<svg width="934pt" height="935pt" viewBox="0 0 934 935" version="1.1" xmlns="http://www.w3.org/2000/svg">
<g id="#dc0066ff">
<path fill="#dc0066" opacity="1.00" d=" M 285.69 37.78 C 356.42 7.84 434.64 -3.85 511.06 3.40 C 577.98 9.62 643.45 30.66 701.48 64.56 C 766.49 102.41 822.10 156.23 862.09 219.95 C 899.63 279.55 923.30 347.80 930.69 417.85 C 932.37 432.64 932.73 447.53 934.00 462.36 L 934.00 473.60 C 932.90 485.71 932.57 497.88 931.46 509.99 C 923.72 598.89 889.45 685.19 834.30 755.32 C 804.95 792.81 769.86 825.79 730.61 852.73 C 685.16 883.98 634.11 907.07 580.59 920.45 C 543.83 929.75 505.92 934.15 468.02 934.64 C 430.01 934.37 391.96 930.11 355.04 920.96 C 288.57 904.69 225.88 873.37 172.81 830.19 C 116.16 784.23 70.46 724.86 40.71 658.25 C 4.03 576.70 -7.98 484.46 5.72 396.15 C 16.63 324.84 44.60 256.25 86.50 197.53 C 136.44 127.24 206.18 71.18 285.69 37.78 M 350.74 99.78 C 318.61 113.27 289.89 134.81 268.12 162.04 C 245.14 190.59 229.80 224.72 220.81 260.11 C 210.69 299.88 208.09 341.25 210.03 382.15 C 262.38 382.15 314.74 382.10 367.10 382.17 C 366.55 360.71 367.31 339.11 371.39 317.99 C 374.43 302.48 379.30 287.10 387.73 273.63 C 394.88 262.11 405.03 252.32 417.30 246.41 C 433.28 238.67 451.70 237.14 469.11 239.50 C 484.80 241.65 500.03 249.51 509.32 262.57 C 521.48 279.37 524.76 300.77 525.05 321.04 C 525.51 332.79 523.17 344.61 518.26 355.29 C 512.42 368.21 503.31 379.37 493.13 389.13 C 480.58 401.15 466.34 411.16 452.25 421.25 C 418.88 445.44 384.85 468.76 352.48 494.30 C 326.14 515.08 300.86 537.38 278.56 562.50 C 254.49 589.72 233.76 620.26 219.79 653.91 C 202.32 695.82 196.09 741.80 198.27 786.99 C 334.83 787.03 471.40 786.98 607.96 787.02 C 617.51 787.39 626.87 784.97 636.09 782.80 C 669.93 774.14 702.33 757.07 725.77 730.79 C 733.90 721.90 740.40 711.71 746.51 701.38 C 756.73 684.61 766.91 667.82 776.95 650.94 C 783.66 639.46 790.67 628.13 796.71 616.27 C 677.35 616.22 557.99 616.35 438.64 616.20 C 439.04 615.72 439.86 614.77 440.27 614.30 C 492.91 575.70 550.78 544.25 600.03 501.10 C 626.16 478.19 649.47 451.55 665.73 420.69 C 684.52 385.57 693.23 345.68 693.85 306.01 C 694.63 263.95 687.84 220.76 667.61 183.42 C 651.70 153.68 626.98 128.92 597.64 112.36 C 558.36 89.99 512.76 81.20 467.97 79.95 C 428.13 78.64 387.60 84.11 350.74 99.78 Z" />
</g>
<g id="#ffffffff">
<path fill="#ffffff" opacity="1.00" d=" M 350.74 99.78 C 387.60 84.11 428.13 78.64 467.97 79.95 C 512.76 81.20 558.36 89.99 597.64 112.36 C 626.98 128.92 651.70 153.68 667.61 183.42 C 687.84 220.76 694.63 263.95 693.85 306.01 C 693.23 345.68 684.52 385.57 665.73 420.69 C 649.47 451.55 626.16 478.19 600.03 501.10 C 550.78 544.25 492.91 575.70 440.27 614.30 C 439.86 614.77 439.04 615.72 438.64 616.20 C 557.99 616.35 677.35 616.22 796.71 616.27 C 790.67 628.13 783.66 639.46 776.95 650.94 C 766.91 667.82 756.73 684.61 746.51 701.38 C 740.40 711.71 733.90 721.90 725.77 730.79 C 702.33 757.07 669.93 774.14 636.09 782.80 C 626.87 784.97 617.51 787.39 607.96 787.02 C 471.40 786.98 334.83 787.03 198.27 786.99 C 196.09 741.80 202.32 695.82 219.79 653.91 C 233.76 620.26 254.49 589.72 278.56 562.50 C 300.86 537.38 326.14 515.08 352.48 494.30 C 384.85 468.76 418.88 445.44 452.25 421.25 C 466.34 411.16 480.58 401.15 493.13 389.13 C 503.31 379.37 512.42 368.21 518.26 355.29 C 523.17 344.61 525.51 332.79 525.05 321.04 C 524.76 300.77 521.48 279.37 509.32 262.57 C 500.03 249.51 484.80 241.65 469.11 239.50 C 451.70 237.14 433.28 238.67 417.30 246.41 C 405.03 252.32 394.88 262.11 387.73 273.63 C 379.30 287.10 374.43 302.48 371.39 317.99 C 367.31 339.11 366.55 360.71 367.10 382.17 C 314.74 382.10 262.38 382.15 210.03 382.15 C 208.09 341.25 210.69 299.88 220.81 260.11 C 229.80 224.72 245.14 190.59 268.12 162.04 C 289.89 134.81 318.61 113.27 350.74 99.78 Z" />
</g>
</svg>
