<?xml version="1.0" encoding="UTF-8" ?>
<!DOCTYPE svg PUBLIC "-//W3C//DTD SVG 1.1//EN" "http://www.w3.org/Graphics/SVG/1.1/DTD/svg11.dtd">
<svg width="1042pt" height="1042pt" viewBox="0 0 1042 1042" version="1.1" xmlns="http://www.w3.org/2000/svg">
<g id="#e92529ff">
<path fill="#e92529" opacity="1.00" d=" M 0.00 0.00 L 1042.00 0.00 L 1042.00 1042.00 L 0.00 1042.00 L 0.00 0.00 M 330.78 149.75 C 324.52 153.48 320.85 160.82 320.99 168.04 C 321.01 278.70 321.01 389.37 320.99 500.04 C 320.63 509.43 322.75 519.10 328.08 526.95 C 333.41 534.94 342.19 541.10 351.99 541.50 C 409.00 541.52 466.02 541.48 523.03 541.52 C 545.08 542.06 567.53 546.82 586.42 558.63 C 597.14 565.32 606.62 574.06 613.98 584.33 C 629.97 606.14 635.42 634.38 632.27 660.92 C 629.60 682.50 620.13 703.32 604.86 718.89 C 581.38 743.30 545.10 753.77 512.05 747.37 C 489.31 743.07 467.97 733.64 447.24 723.63 C 433.45 716.32 419.69 708.89 406.59 700.39 C 403.09 698.06 399.61 695.42 395.39 694.63 C 389.02 693.00 382.16 695.06 376.99 698.89 C 370.85 704.47 365.43 710.80 359.13 716.22 C 347.93 726.99 337.41 738.48 325.84 748.87 C 320.86 753.89 315.85 758.86 310.86 763.87 C 307.08 767.75 302.78 771.29 300.18 776.14 C 296.73 781.34 297.44 788.42 300.59 793.58 C 304.41 799.88 309.35 805.39 314.22 810.88 C 333.62 831.40 356.98 847.96 381.97 861.00 C 436.75 889.60 500.40 900.21 561.59 892.66 C 614.35 886.15 665.44 864.57 705.84 829.85 C 744.90 796.65 773.76 751.20 785.52 701.18 C 791.54 676.02 793.24 649.90 791.08 624.15 C 788.01 582.23 775.66 540.59 752.77 505.16 C 732.86 474.04 705.08 447.99 672.67 430.22 C 635.68 409.80 593.36 399.98 551.26 399.33 C 549.50 399.15 547.74 399.00 545.98 398.99 C 519.99 399.01 494.00 398.99 468.00 399.00 C 468.01 360.50 467.98 321.99 468.02 283.49 C 542.68 283.52 617.35 283.47 692.02 283.52 C 702.34 283.79 711.70 274.27 711.52 263.99 C 711.45 230.96 711.55 197.93 711.48 164.89 C 710.75 154.67 701.01 146.63 690.98 146.52 C 574.97 146.46 458.95 146.52 342.93 146.49 C 338.73 146.68 334.36 147.40 330.78 149.75 Z" />
</g>
<g id="#ebebebff">
<path fill="#ebebeb" opacity="1.00" d=" M 330.78 149.75 C 334.36 147.40 338.73 146.68 342.93 146.49 C 458.95 146.52 574.97 146.46 690.98 146.52 C 701.01 146.63 710.75 154.67 711.48 164.89 C 711.55 197.93 711.45 230.96 711.52 263.99 C 711.70 274.27 702.34 283.79 692.02 283.52 C 617.35 283.47 542.68 283.52 468.02 283.49 C 467.98 321.99 468.01 360.50 468.00 399.00 C 494.00 398.99 519.99 399.01 545.98 398.99 C 547.74 399.00 549.50 399.15 551.26 399.33 C 593.36 399.98 635.68 409.80 672.67 430.22 C 705.08 447.99 732.86 474.04 752.77 505.16 C 775.66 540.59 788.01 582.23 791.08 624.15 C 793.24 649.90 791.54 676.02 785.52 701.18 C 773.76 751.20 744.90 796.65 705.84 829.85 C 665.44 864.57 614.35 886.15 561.59 892.66 C 500.40 900.21 436.75 889.60 381.97 861.00 C 356.98 847.96 333.62 831.40 314.22 810.88 C 309.35 805.39 304.41 799.88 300.59 793.58 C 297.44 788.42 296.73 781.34 300.18 776.14 C 302.78 771.29 307.08 767.75 310.86 763.87 C 315.85 758.86 320.86 753.89 325.84 748.87 C 337.41 738.48 347.93 726.99 359.13 716.22 C 365.43 710.80 370.85 704.47 376.99 698.89 C 382.16 695.06 389.02 693.00 395.39 694.63 C 399.61 695.42 403.09 698.06 406.59 700.39 C 419.69 708.89 433.45 716.32 447.24 723.63 C 467.97 733.64 489.31 743.07 512.05 747.37 C 545.10 753.77 581.38 743.30 604.86 718.89 C 620.13 703.32 629.60 682.50 632.27 660.92 C 635.42 634.38 629.97 606.14 613.98 584.33 C 606.62 574.06 597.14 565.32 586.42 558.63 C 567.53 546.82 545.08 542.06 523.03 541.52 C 466.02 541.48 409.00 541.52 351.99 541.50 C 342.19 541.10 333.41 534.94 328.08 526.95 C 322.75 519.10 320.63 509.43 320.99 500.04 C 321.01 389.37 321.01 278.70 320.99 168.04 C 320.85 160.82 324.52 153.48 330.78 149.75 Z" />
</g>
</svg>
