<?xml version="1.0" encoding="UTF-8" ?>
<!DOCTYPE svg PUBLIC "-//W3C//DTD SVG 1.1//EN" "http://www.w3.org/Graphics/SVG/1.1/DTD/svg11.dtd">
<svg width="283pt" height="181pt" viewBox="0 0 283 181" version="1.1" xmlns="http://www.w3.org/2000/svg">
<g id="#c65597ff">
<path fill="#c65597" opacity="1.00" d=" M 149.09 3.31 C 164.11 -1.17 180.82 0.13 194.87 7.12 C 211.09 15.00 223.40 30.23 227.95 47.65 C 237.03 46.94 246.29 48.74 254.47 52.73 C 266.34 58.63 275.78 69.31 280.00 81.89 C 284.22 94.37 283.66 108.72 277.16 120.33 C 273.31 127.44 267.26 133.00 261.18 138.18 C 243.68 152.22 221.68 158.42 200.52 164.59 C 200.46 132.40 200.53 100.21 200.49 68.02 C 200.42 64.01 198.38 59.95 194.82 57.96 C 190.67 55.65 185.60 55.01 180.96 55.87 C 175.01 57.06 171.10 62.13 167.66 66.70 C 163.55 72.46 158.89 78.27 152.28 81.26 C 144.75 85.19 135.84 84.61 128.21 88.24 C 125.40 89.54 123.12 92.07 122.51 95.15 C 121.56 99.92 121.62 105.32 124.35 109.53 C 126.88 113.33 131.66 114.80 136.04 114.76 C 143.69 114.75 151.34 114.74 158.99 114.76 C 159.01 134.55 159.00 154.35 159.00 174.15 C 142.21 177.17 125.28 179.54 108.25 180.54 C 108.14 157.03 108.47 133.50 108.09 109.99 C 107.82 100.84 95.75 97.86 88.96 101.93 C 82.23 106.51 79.45 115.06 72.35 119.28 C 65.64 124.00 56.81 122.86 49.76 126.76 C 45.26 129.31 45.27 135.46 46.27 139.90 C 47.15 144.41 51.70 147.14 56.06 147.19 C 62.45 147.35 68.85 147.19 75.24 147.25 C 75.27 158.50 75.24 169.75 75.25 181.00 L 73.67 181.00 C 64.87 180.20 55.96 179.75 47.39 177.40 C 32.42 173.23 18.81 163.96 9.84 151.22 C -0.51 136.36 -2.46 116.22 4.58 99.57 C 10.30 85.63 22.11 74.32 36.33 69.29 C 47.78 65.07 60.59 65.02 72.18 68.74 C 72.24 64.02 72.95 59.25 74.85 54.90 C 80.45 41.10 96.22 32.62 110.83 35.48 C 118.57 20.20 132.57 8.11 149.09 3.31 Z" />
</g>
</svg>
