<?xml version="1.0" encoding="UTF-8" ?>
<!DOCTYPE svg PUBLIC "-//W3C//DTD SVG 1.1//EN" "http://www.w3.org/Graphics/SVG/1.1/DTD/svg11.dtd">
<svg width="359pt" height="181pt" viewBox="0 0 359 181" version="1.1" xmlns="http://www.w3.org/2000/svg">
<g id="#14121399">
<path fill="#141213" opacity="0.60" d=" M 194.57 0.00 L 310.40 0.00 L 311.31 0.75 C 308.21 0.97 305.10 1.09 302.00 1.09 C 273.00 1.05 244.00 1.08 215.00 1.07 C 207.92 1.04 200.84 1.30 193.78 0.70 L 194.57 0.00 Z" />
<path fill="#141213" opacity="0.60" d=" M 358.24 43.70 L 359.00 44.65 L 359.00 142.43 L 358.30 143.22 C 358.07 140.15 357.92 137.07 357.91 134.00 C 357.96 106.33 357.92 78.67 357.92 51.01 C 357.94 48.57 358.08 46.13 358.24 43.70 Z" />
<path fill="#141213" opacity="0.60" d=" M 143.14 55.94 C 143.20 54.23 143.38 52.53 143.67 50.85 C 143.58 91.90 143.74 132.95 143.59 174.00 C 143.62 176.02 143.78 178.04 143.93 180.05 C 149.27 180.57 154.64 180.35 160.00 180.33 C 213.72 180.34 267.45 180.33 321.18 180.34 L 320.41 181.00 L 143.14 181.00 C 143.20 139.31 143.19 97.62 143.14 55.94 Z" />
</g>
<g id="#231f20ff">
<path fill="#231f20" opacity="1.00" d=" M 0.00 0.84 C 12.34 0.54 24.71 0.33 37.04 0.88 C 37.69 14.24 37.11 27.63 37.30 41.00 C 37.05 47.61 37.88 54.28 36.98 60.85 C 35.30 64.60 31.64 66.95 28.92 69.92 C 21.99 77.06 14.62 83.78 7.94 91.15 C 9.06 92.66 10.19 94.16 11.52 95.49 C 19.46 103.20 27.23 111.08 35.08 118.88 C 37.70 121.17 37.33 124.86 37.39 128.00 C 37.14 145.66 37.50 163.33 37.19 181.00 L 0.00 181.00 L 0.00 0.84 Z" />
<path fill="#231f20" opacity="1.00" d=" M 110.65 6.66 C 113.38 4.18 115.74 0.10 119.97 0.58 C 136.13 0.81 152.31 0.26 168.46 0.86 C 166.59 4.10 163.68 6.48 161.08 9.08 C 136.08 34.08 111.08 59.09 86.08 84.08 C 83.79 86.43 81.22 88.54 79.24 91.18 C 79.20 92.37 80.42 93.07 81.05 93.95 C 94.28 107.05 107.39 120.27 120.58 133.41 C 122.78 135.65 125.24 137.66 127.03 140.25 C 127.90 143.76 127.39 147.42 127.48 151.00 C 127.29 160.75 127.79 170.50 127.25 180.24 C 123.26 180.51 119.18 180.94 115.23 180.13 C 112.41 178.21 110.25 175.53 107.83 173.17 C 90.67 156.00 73.50 138.84 56.34 121.67 C 46.40 112.26 36.83 102.48 27.16 92.81 C 25.39 91.64 27.18 90.12 28.12 89.14 C 55.70 61.72 83.15 34.16 110.65 6.66 Z" />
<path fill="#231f20" opacity="1.00" d=" M 154.67 39.67 C 167.73 26.70 180.60 13.54 193.78 0.70 C 200.84 1.30 207.92 1.04 215.00 1.07 C 244.00 1.08 273.00 1.05 302.00 1.09 C 305.10 1.09 308.21 0.97 311.31 0.75 C 324.91 1.24 338.04 7.85 346.78 18.23 C 353.03 25.39 356.55 34.44 358.24 43.70 C 358.08 46.13 357.94 48.57 357.92 51.01 C 357.92 78.67 357.96 106.33 357.91 134.00 C 357.92 137.07 358.07 140.15 358.30 143.22 C 346.04 155.71 333.68 168.10 321.18 180.34 C 267.45 180.33 213.72 180.34 160.00 180.33 C 154.64 180.35 149.27 180.57 143.93 180.05 C 143.78 178.04 143.62 176.02 143.59 174.00 C 143.74 132.95 143.58 91.90 143.67 50.85 C 147.03 46.83 151.06 43.45 154.67 39.67 M 215.84 20.91 C 215.44 30.23 215.44 39.58 215.84 48.90 C 238.90 49.18 261.96 48.87 285.02 49.03 C 289.69 49.24 294.86 49.29 298.76 52.22 C 301.98 54.76 302.40 59.21 302.33 63.01 C 302.28 66.90 301.10 71.44 297.34 73.31 C 291.96 75.89 285.81 75.70 279.99 75.72 C 267.37 75.79 254.52 74.89 242.17 78.08 C 234.32 80.04 226.57 84.09 222.03 91.02 C 216.35 99.49 215.42 110.06 215.59 119.99 C 215.80 133.38 215.28 146.79 215.83 160.17 C 217.55 160.28 219.28 160.39 221.01 160.42 C 247.34 160.37 273.67 160.36 300.00 160.42 C 302.87 160.31 305.93 160.85 308.67 159.82 C 312.98 156.46 316.41 152.12 320.42 148.42 C 325.31 143.16 331.02 138.63 335.33 132.86 C 330.56 132.43 325.78 132.62 321.00 132.62 C 297.72 132.61 274.44 132.60 251.17 132.64 C 250.26 126.90 250.51 121.01 251.41 115.30 C 252.02 111.09 254.96 107.29 259.10 106.07 C 267.15 103.60 275.70 104.57 284.00 104.39 C 292.93 104.16 302.06 105.23 310.81 102.88 C 318.44 100.92 325.84 96.98 330.66 90.59 C 336.33 83.39 338.54 74.10 338.84 65.09 C 339.15 55.06 337.62 44.53 331.96 36.02 C 326.54 28.17 317.74 22.68 308.23 21.61 C 296.54 20.18 284.74 20.84 273.00 20.70 C 253.95 20.85 234.88 20.39 215.84 20.91 M 193.05 33.04 C 184.43 41.76 175.78 50.45 167.04 59.05 C 165.16 60.97 162.55 62.89 162.99 65.94 C 163.09 97.34 162.84 128.76 163.11 160.16 C 174.44 160.56 185.83 160.54 197.16 160.17 C 197.27 158.44 197.39 156.72 197.42 154.99 C 197.34 114.66 197.41 74.34 197.39 34.01 C 197.34 32.56 197.26 31.11 197.15 29.67 C 195.72 30.72 194.30 31.79 193.05 33.04 Z" />
</g>
</svg>
