<?xml version="1.0" encoding="UTF-8" ?>
<!DOCTYPE svg PUBLIC "-//W3C//DTD SVG 1.1//EN" "http://www.w3.org/Graphics/SVG/1.1/DTD/svg11.dtd">
<svg width="1400pt" height="500pt" viewBox="0 0 1400 500" version="1.1" xmlns="http://www.w3.org/2000/svg">
<g id="#009de2ff">
<path fill="#009de2" opacity="1.00" d=" M 1132.49 39.75 C 1173.47 36.05 1215.59 44.45 1251.82 64.06 C 1268.97 73.60 1285.13 85.07 1299.03 98.96 C 1330.48 129.50 1351.92 170.12 1359.52 213.28 C 1363.27 235.18 1363.61 257.67 1360.66 279.69 C 1355.02 321.06 1336.59 360.59 1308.49 391.48 C 1305.98 394.00 1303.69 396.72 1301.35 399.38 C 1294.30 405.70 1287.51 412.30 1279.94 418.02 C 1246.96 443.22 1206.45 458.63 1164.97 461.04 C 1115.74 464.30 1065.47 449.59 1025.97 419.98 C 977.95 384.83 946.20 328.38 941.42 269.01 C 938.50 241.46 942.20 213.48 950.04 187.00 C 957.13 165.49 966.91 144.65 980.55 126.48 C 1015.37 77.30 1072.50 44.89 1132.49 39.75 M 1023.97 159.04 C 1017.33 169.22 1010.43 179.23 1003.99 189.55 C 1015.49 189.91 1027.00 189.48 1038.50 189.77 C 1038.58 248.43 1038.43 307.09 1038.57 365.75 C 1058.32 365.78 1078.07 365.93 1097.82 365.67 C 1097.81 288.58 1097.73 211.49 1097.86 134.40 C 1078.81 134.59 1059.75 134.70 1040.70 134.35 C 1034.71 142.29 1029.68 150.90 1023.97 159.04 M 1204.36 135.47 C 1183.39 138.49 1163.38 149.48 1150.73 166.65 C 1133.53 189.14 1127.58 218.18 1127.34 245.98 C 1126.74 271.56 1129.97 298.05 1142.18 320.91 C 1150.26 336.36 1163.05 349.45 1178.76 357.15 C 1201.55 368.10 1228.97 368.64 1252.36 359.23 C 1267.11 352.91 1280.08 342.24 1288.53 328.54 C 1299.87 311.10 1304.62 290.28 1306.39 269.80 C 1307.56 244.16 1306.46 217.83 1297.59 193.48 C 1291.48 175.87 1280.67 159.49 1265.22 148.78 C 1247.75 136.43 1225.31 132.53 1204.36 135.47 Z" />
<path fill="#009de2" opacity="1.00" d=" M 1213.41 191.50 C 1219.07 189.85 1225.69 190.78 1230.06 194.95 C 1236.69 200.83 1239.08 209.78 1240.75 218.15 C 1243.33 231.93 1243.71 246.02 1243.32 260.01 C 1242.23 275.02 1241.31 291.43 1231.72 303.82 C 1227.16 309.24 1219.26 311.91 1212.50 309.40 C 1205.61 307.21 1201.08 301.02 1198.16 294.73 C 1193.36 283.84 1191.42 271.87 1191.24 260.02 C 1190.02 247.78 1191.08 235.45 1192.81 223.31 C 1194.54 214.38 1197.05 205.12 1203.09 198.07 C 1205.71 194.83 1209.46 192.68 1213.41 191.50 Z" />
</g>
<g id="#010101ff">
<path fill="#010101" opacity="1.00" d=" M 41.78 135.09 C 50.49 132.42 59.86 132.71 68.78 134.20 C 71.32 134.79 74.45 135.76 75.25 138.59 C 76.32 142.97 75.64 147.54 75.81 152.00 C 75.94 180.25 75.53 208.52 76.01 236.77 C 77.65 234.43 79.10 231.96 80.49 229.47 C 96.39 201.10 112.38 172.77 128.16 144.33 C 130.38 140.41 132.55 135.52 137.38 134.37 C 144.48 132.98 151.81 132.66 159.00 133.57 C 163.13 133.92 168.29 134.38 170.50 138.49 C 171.68 145.40 167.25 151.49 164.27 157.34 C 147.47 184.62 130.53 211.80 113.58 238.98 C 121.09 253.87 129.49 268.28 137.14 283.10 C 147.76 302.45 158.06 321.97 168.54 341.40 C 170.74 345.79 172.81 350.33 173.70 355.19 C 174.39 358.25 172.05 361.15 169.27 362.13 C 164.70 363.72 159.79 363.87 155.00 363.82 C 149.19 363.75 143.18 364.21 137.62 362.18 C 135.17 361.17 133.41 359.04 132.20 356.76 C 115.13 323.82 98.13 290.84 80.98 257.95 C 79.50 254.91 77.94 251.91 76.02 249.13 C 75.45 284.73 76.06 320.36 75.72 355.96 C 75.90 359.09 73.29 361.44 70.54 362.36 C 64.24 364.40 57.53 363.81 51.02 363.76 C 47.29 363.35 43.25 363.09 40.08 360.90 C 37.85 359.39 37.83 356.46 37.78 354.06 C 37.78 283.69 37.77 213.32 37.78 142.94 C 37.63 139.82 38.31 136.06 41.78 135.09 Z" />
<path fill="#010101" opacity="1.00" d=" M 260.05 134.10 C 268.67 133.15 277.41 132.48 286.07 133.34 C 291.24 133.79 297.20 132.96 301.50 136.50 C 303.37 138.72 303.96 141.68 304.82 144.38 C 322.91 207.79 340.78 271.26 358.86 334.66 C 361.06 343.46 365.11 352.19 363.49 361.48 C 357.48 364.75 350.53 363.67 344.00 363.81 C 338.56 363.73 332.90 364.24 327.71 362.24 C 325.58 361.28 324.93 358.81 324.25 356.80 C 319.99 341.58 315.99 326.29 311.80 311.05 C 288.44 310.77 265.07 311.14 241.71 310.85 C 237.77 325.83 233.61 340.76 229.81 355.77 C 229.12 358.89 227.15 362.05 223.84 362.79 C 217.36 364.49 210.57 363.62 203.95 363.82 C 200.42 363.64 195.84 363.77 193.75 360.33 C 192.66 356.60 193.27 352.56 194.13 348.84 C 213.49 280.46 232.89 212.09 252.14 143.68 C 253.23 139.60 255.19 134.59 260.05 134.10 M 275.74 179.29 C 267.81 210.08 259.08 240.66 251.00 271.40 C 250.74 272.65 250.52 273.91 250.33 275.18 C 267.79 275.28 285.26 275.30 302.72 275.17 C 302.17 271.99 301.37 268.86 300.48 265.76 C 292.75 237.02 284.82 208.32 277.28 179.53 C 276.89 179.47 276.12 179.35 275.74 179.29 Z" />
<path fill="#010101" opacity="1.00" d=" M 653.23 134.30 C 665.05 132.30 677.11 132.94 689.00 133.93 C 691.72 134.34 694.85 135.17 696.27 137.79 C 698.67 142.23 699.36 147.34 700.87 152.11 C 718.21 213.04 735.45 274.01 752.81 334.94 C 754.78 341.89 756.92 348.83 758.01 355.99 C 758.51 358.56 757.35 361.82 754.67 362.66 C 749.64 364.41 744.22 363.65 739.00 363.82 C 733.25 363.67 727.21 364.48 721.74 362.23 C 718.60 360.74 718.15 356.88 717.21 353.93 C 713.60 339.59 709.45 325.39 705.77 311.07 C 682.31 310.86 658.84 310.88 635.38 311.07 C 631.19 326.54 627.43 342.13 623.11 357.56 C 621.58 363.11 614.85 363.60 610.08 363.78 C 603.28 363.43 596.11 364.90 589.61 362.35 C 584.60 359.02 587.48 352.30 588.38 347.60 C 607.73 278.87 627.26 210.19 646.63 141.47 C 647.60 138.27 649.64 134.87 653.23 134.30 M 670.24 178.76 C 666.72 188.76 664.59 199.21 661.55 209.37 C 655.88 231.25 649.48 252.95 644.01 274.89 C 648.99 275.45 654.00 275.22 659.00 275.25 C 671.54 275.20 684.08 275.33 696.62 275.18 C 695.52 269.40 693.71 263.79 692.21 258.11 C 686.15 235.42 680.00 212.76 673.84 190.09 C 672.83 186.26 671.98 182.35 670.24 178.76 Z" />
<path fill="#010101" opacity="1.00" d=" M 798.45 134.42 C 807.28 132.61 816.51 132.59 825.29 134.66 C 828.17 135.26 830.58 137.92 830.43 140.94 C 830.51 202.18 830.40 263.41 830.48 324.64 C 849.67 324.88 868.86 324.64 888.05 324.75 C 889.82 324.84 892.23 325.18 892.73 327.24 C 894.91 332.54 894.40 338.40 894.59 344.00 C 894.45 349.52 894.81 355.39 892.39 360.51 C 891.38 362.50 889.02 362.78 887.03 362.75 C 859.66 362.78 832.29 362.72 804.92 362.78 C 802.69 362.79 800.38 362.63 798.44 361.45 C 794.32 359.34 792.72 354.39 792.68 350.05 C 792.70 280.34 792.68 210.63 792.69 140.92 C 792.14 137.45 795.36 134.98 798.45 134.42 Z" />
<path fill="#010101" opacity="1.00" d=" M 402.97 137.96 C 406.55 134.21 412.11 133.83 416.98 133.94 C 425.20 134.17 433.58 133.28 441.64 135.30 C 448.93 137.40 453.27 144.30 456.21 150.82 C 461.48 162.53 466.23 174.47 471.55 186.16 C 486.37 220.83 502.09 255.14 515.24 290.49 C 516.09 292.87 517.08 295.24 518.71 297.21 C 519.11 285.80 518.17 274.39 518.42 262.98 C 518.63 257.97 517.82 253.02 517.79 248.02 C 517.81 213.33 517.80 178.64 517.80 143.94 C 517.81 140.83 518.54 137.17 521.53 135.55 C 526.32 133.22 531.83 133.82 537.00 133.71 C 541.29 133.82 546.12 133.37 549.77 136.10 C 551.92 137.64 552.34 140.48 552.31 142.94 C 552.27 207.63 552.30 272.31 552.30 337.00 C 552.26 343.09 552.84 349.46 550.39 355.21 C 548.64 359.32 544.70 362.92 540.02 362.80 C 532.66 362.85 525.31 362.80 517.95 362.82 C 512.79 363.00 508.16 359.82 505.08 355.91 C 499.06 348.22 496.04 338.80 492.12 329.99 C 483.97 311.13 475.81 292.28 467.55 273.47 C 456.61 246.70 443.59 220.74 434.66 193.18 C 434.26 191.58 433.09 190.43 431.88 189.40 C 431.18 196.96 432.68 204.48 432.64 212.04 C 432.68 257.69 432.63 303.34 432.66 349.00 C 432.57 352.18 432.99 355.43 432.32 358.57 C 430.83 362.76 425.61 363.04 421.89 363.67 C 415.52 363.74 408.83 364.59 402.76 362.21 C 400.20 361.28 398.72 358.77 399.10 356.08 C 399.11 287.06 399.07 218.03 399.12 149.01 C 398.97 145.01 399.97 140.79 402.97 137.96 Z" />
</g>
<g id="#ffffffff">
<path fill="#ffffff" opacity="1.00" d=" M 1023.97 159.04 C 1029.68 150.90 1034.71 142.29 1040.70 134.35 C 1059.75 134.70 1078.81 134.59 1097.86 134.40 C 1097.73 211.49 1097.81 288.58 1097.82 365.67 C 1078.07 365.93 1058.32 365.78 1038.57 365.75 C 1038.43 307.09 1038.58 248.43 1038.50 189.77 C 1027.00 189.48 1015.49 189.91 1003.99 189.55 C 1010.43 179.23 1017.33 169.22 1023.97 159.04 Z" />
<path fill="#ffffff" opacity="1.00" d=" M 1204.36 135.47 C 1225.31 132.53 1247.75 136.43 1265.22 148.78 C 1280.67 159.49 1291.48 175.87 1297.59 193.48 C 1306.46 217.83 1307.56 244.16 1306.39 269.80 C 1304.62 290.28 1299.87 311.10 1288.53 328.54 C 1280.08 342.24 1267.11 352.91 1252.36 359.23 C 1228.97 368.64 1201.55 368.10 1178.76 357.15 C 1163.05 349.45 1150.26 336.36 1142.18 320.91 C 1129.97 298.05 1126.74 271.56 1127.34 245.98 C 1127.58 218.18 1133.53 189.14 1150.73 166.65 C 1163.38 149.48 1183.39 138.49 1204.36 135.47 M 1213.41 191.50 C 1209.46 192.68 1205.71 194.83 1203.09 198.07 C 1197.05 205.12 1194.54 214.38 1192.81 223.31 C 1191.08 235.45 1190.02 247.78 1191.24 260.02 C 1191.42 271.87 1193.36 283.84 1198.16 294.73 C 1201.08 301.02 1205.61 307.21 1212.50 309.40 C 1219.26 311.91 1227.16 309.24 1231.72 303.82 C 1241.31 291.43 1242.23 275.02 1243.32 260.01 C 1243.71 246.02 1243.33 231.93 1240.75 218.15 C 1239.08 209.78 1236.69 200.83 1230.06 194.95 C 1225.69 190.78 1219.07 189.85 1213.41 191.50 Z" />
</g>
</svg>
