<?xml version="1.0" encoding="UTF-8" standalone="no"?>
<svg
   xmlns:svg="http://www.w3.org/2000/svg"
   xmlns="http://www.w3.org/2000/svg"
   version="1.1"
   width="566.92352"
   height="318.90149"
   id="svg3078">
  <defs
     id="defs3080" />
  <g
     transform="translate(-66.53825,-372.91143)"
     id="layer1">
    <path
       d="m 66.53825,691.81293 566.9235,0 0,-318.9015 -566.9235,0 0,318.9015 z"
       id="path22"
       style="fill:#19171c;fill-opacity:1;fill-rule:nonzero;stroke:none" />
    <path
       d="m 425.39225,569.32563 17.355,0 0,54.24495 6.3975,0 0,-54.24495 24.828,0 19.401,54.24495 5.6955,0 21.444,-59.9754 -7.3335,0 -16.9575,48.52035 -16.959,-48.52035 -6.147,0 -0.002,-0.005 -47.721,0 0,5.7351 m -14.639,54.2453 7.92012,0 0,-7.92012 -7.92012,0 0,7.92012 z m -24.132,0 0,-54.24495 17.352,0 0,-5.7351 -41.1135,0 0,5.7351 17.358,0 0,54.24495 6.4035,0 m -56.9775,-59.9754 0,59.9754 34.698,0 0,-5.7276 -28.293,0 0,-54.2478 -6.405,0 m -53.724,59.9754 37.2345,0 0,-5.7276 -30.828,0 0,-21.65265 26.277,0 0,-5.7246 -26.277,0 0,-21.1401 30.828,0 0,-5.73045 -37.2345,0 0,59.9754 m -71.6058,0 5.97885,0 13.30995,-48.01755 13.311,48.01755 5.976,0 15.3375,-59.9754 -6.8205,0 -11.7105,48.35265 -13.23,-48.35265 -5.7195,0 -13.23015,48.35265 -11.7087,-48.35265 -6.81915,0 15.3252,59.9754 m 262.7608,-159.90165 c 2.925,-3.3645 7.6185,-5.5725 13.179,-5.5725 5.571,0 10.1325,2.208 13.044,5.5725 3.954,4.3875 5.13,9.2235 5.13,29.301 0,20.0835 -1.176,24.9 -5.13,29.307 -2.9115,3.363 -7.473,5.5575 -13.044,5.5575 -5.5605,0 -10.254,-2.1945 -13.179,-5.5575 -3.9675,-4.407 -4.977,-9.2235 -4.977,-29.307 0,-20.0775 1.0095,-24.9135 4.977,-29.301 z m -15.093,70.917 c 7.317,7.3272 16.4115,11.4381 28.272,11.4381 11.88,0 20.8155,-4.1109 28.125,-11.4381 10.5615,-10.5465 10.4055,-23.592 10.4055,-41.616 0,-18.0165 0.156,-31.059 -10.4055,-41.601 -7.3095,-7.3245 -16.245,-11.4375 -28.125,-11.4375 -11.8605,0 -20.955,4.113 -28.272,11.4375 -10.548,10.542 -10.2555,23.5845 -10.2555,41.601 0,18.024 -0.2925,31.0695 10.2555,41.616 m -30.771,-93.789 -20.376,0 0,63.897 -41.3355,-63.897 -18.1725,0 0,104.33595 20.382,0 0,-64.02945 41.3265,64.02945 18.1755,0 0,-104.33595 m -128.421,104.33595 20.3637,0 0,-104.34255 -20.3637,0 0,104.34255 z m -101.5674,-104.33595 0,104.33595 20.3538,0 0,-31.36095 13.4916,-16.1025 26.814,47.46345 23.736,0 -37.0545,-62.85645 34.563,-41.4795 -24.7545,0 -36.7956,45.4455 0,-45.4455 -20.3538,0 m -78.0198,224.766 473.5935,0 0,-21.89235 -473.5935,0 0,21.89235 z m 0,-244.521 473.5935,0 0,-21.88005 -473.5935,0 0,21.88005 z"
       id="path46"
       style="fill:#ffffff;fill-opacity:1;fill-rule:nonzero;stroke:none" />
  </g>
</svg>
