<?xml version="1.0" encoding="UTF-8" standalone="no"?>
<!DOCTYPE svg PUBLIC "-//W3C//DTD SVG 1.0//EN" "http://www.w3.org/TR/2001/REC-SVG-20010904/DTD/svg10.dtd">
<!-- Created with Inkscape (http://www.inkscape.org/) -->
<svg
   xmlns:svg="http://www.w3.org/2000/svg"
   xmlns="http://www.w3.org/2000/svg"
   version="1.0"
   width="800"
   height="600"
   id="svg2">
  <defs
     id="defs4" />
  <g
     id="layer1">
    <path
       d="M 406.39909,62.705228 C 321.63374,62.705228 247.68829,110.86166 208.16785,182.27607 C 250.66264,123.8362 323.58789,85.267421 406.39909,85.267421 C 489.41953,85.267421 562.446,124.027 604.89372,182.71503 C 565.43518,111.05466 491.34101,62.7052 406.39909,62.705228 z M 604.89372,419.22299 C 562.44597,477.91098 489.41951,516.67059 406.39909,516.67059 C 323.58789,516.67059 250.66264,478.10185 208.16785,419.66194 C 247.68829,491.07635 321.63377,539.23276 406.39909,539.23278 C 491.34098,539.23278 565.43515,490.88332 604.89372,419.22299 z"
       id="path3465"
       style="opacity:1;fill:#03205c;fill-opacity:1;fill-rule:evenodd;stroke:none;stroke-width:20;stroke-linecap:round;stroke-linejoin:round;stroke-miterlimit:4;stroke-dasharray:none;stroke-dashoffset:0;stroke-opacity:1" />
    <path
       d="M 406.04793,215.10977 L 429.22466,383.31662 L 444.06127,383.31662 L 465.56998,274.01728 L 465.83335,274.01728 L 485.23508,381.73639 L 500.15949,381.73639 L 525.70656,219.14814 C 519.73079,218.80434 513.77106,218.48439 507.79727,218.18244 L 494.18973,320.19515 L 493.83856,320.19515 L 474.34904,216.69 C 468.42996,216.46944 462.53237,216.25335 456.61534,216.07547 L 440.02291,319.66841 L 439.67174,319.66841 L 425.01071,215.28535 C 418.70551,215.17823 412.35074,215.16669 406.04793,215.10977 z M 342.92647,215.08839 C 323.10963,214.8112 308.57931,228.30435 308.16137,247.39534 C 307.37941,283.11368 308.16137,319.05494 308.16137,354.82031 C 308.16137,372.67069 321.3945,387.30285 342.92647,387.30285 C 363.95677,387.30285 376.19912,373.90973 376.19912,354.82031 C 376.19912,319.08076 376.19912,283.17377 376.19912,247.39534 C 376.19912,227.19754 362.7433,215.36559 342.92647,215.08839 z M 270.14803,217.91907 C 264.23645,218.22343 258.32357,218.61912 252.41432,218.97256 L 252.41432,323.70678 L 252.06316,323.70678 L 216.68353,221.34291 C 210.18461,221.84254 203.68999,222.36206 197.19402,222.92314 L 197.19402,379.10267 C 203.1347,379.61579 209.07238,380.13343 215.01552,380.59511 L 215.01552,274.28065 L 215.27889,274.28065 L 253.29223,383.22883 C 258.90816,383.56238 264.52999,383.81749 270.14803,384.10673 L 270.14803,217.91907 z M 559.33038,221.25512 L 559.33038,380.85848 C 578.93359,379.47855 598.61437,377.83629 618.23789,376.03 L 618.23789,352.94106 L 580.57571,355.92594 L 580.57571,309.92365 L 609.80999,309.92365 L 609.80999,286.57134 L 580.57571,286.57134 L 580.57571,248.03125 L 618.23789,248.03125 L 618.23789,225.99581 C 598.61437,224.18951 578.93359,222.63504 559.33038,221.25512 z M 157.42486,226.78593 C 151.47395,227.41751 145.55175,228.03227 139.60336,228.71732 L 139.60336,373.39628 C 145.55104,374.08124 151.47462,374.69617 157.42486,375.32767 L 157.42486,226.78593 z M 653.09077,229.50744 L 653.09077,372.60616 C 669.03347,370.94174 684.9815,369.17752 700.93667,367.25093 L 701.02446,346.88351 L 670.91227,349.42943 L 670.91227,231.43882 C 664.97636,230.78251 659.02491,230.12696 653.09077,229.50744 z M 110.01792,232.31673 C 101.8535,233.38106 93.683804,234.57243 85.524331,235.74056 L 53.656331,296.22831 L 53.48075,240.56905 C 47.508374,241.52587 41.541084,242.53975 35.571461,243.55393 L 35.571461,358.55966 C 41.483971,359.56413 47.389991,360.59635 53.305169,361.54454 L 53.305169,321.95097 L 65.420276,308.25563 L 87.806888,366.72419 C 96.347526,367.93666 104.89569,369.04911 113.44175,370.14802 L 80.432475,287.53704 L 110.01792,232.31673 z M 708.66224,235.82836 L 708.66224,256.10799 L 735.78955,258.12718 L 736.05292,362.77361 C 742.07511,361.97681 748.11395,361.23529 754.13779,360.40326 L 754.13779,259.09287 L 772.74941,262.16555 L 772.74941,244.34405 C 751.39544,241.26899 729.99506,238.45929 708.66224,235.82836 z M 342.92647,236.42151 C 353.71606,236.42154 358.20204,244.00881 358.20204,254.68196 L 358.20204,341.47614 C 357.60318,353.47123 354.46901,365.65401 342.92647,365.96972 C 331.38392,366.28546 326.07066,354.37605 326.07066,341.47614 L 326.07066,254.68196 C 326.07066,243.13571 332.16013,236.42151 342.92647,236.42151 z"
       id="text3454"
       style="font-size:58.72247314px;font-style:normal;font-variant:normal;font-weight:normal;font-stretch:normal;text-align:start;line-height:100%;writing-mode:lr-tb;text-anchor:start;opacity:1;fill:#03205c;fill-opacity:1;stroke:none;stroke-width:1px;stroke-linecap:butt;stroke-linejoin:miter;stroke-opacity:1;font-family:DINMittelschrift LT;-inkscape-font-specification:DINMittelschrift LT" />
  </g>
</svg>
