<?xml version="1.0" encoding="UTF-8" standalone="yes"?>
<svg xmlns="http://www.w3.org/2000/svg" xmlns:xlink="http://www.w3.org/1999/xlink" width="170.66666666666666px" height="106.66666666666666px" viewBox="0 0 128 80" version="1.1">
  <g id="surface1">
    <path style=" stroke:none;fill-rule:nonzero;fill:rgb(85.490196%,12.156863%,14.901961%);fill-opacity:1;" d="M 106.242188 2.277344 C 106.988281 0.410156 108.851562 -0.621094 110.617188 0.410156 L 125.152344 12.511719 C 131.175781 17.824219 126.226562 18.765625 123.257812 20.347656 L 104.292969 28.316406 C 100.851562 29.816406 99.570312 29.0625 99.921875 26.253906 "/>
    <path style=" stroke:none;fill-rule:nonzero;fill:rgb(38.823529%,39.215686%,40.392157%);fill-opacity:1;" d="M 37.695312 55.570312 C 39.800781 55.824219 76.316406 60.941406 78.421875 61.195312 C 80.527344 61.453125 82.28125 60.683594 82.636719 58.894531 C 82.992188 57.101562 91.0625 15.414062 91.0625 13.628906 C 91.0625 11.835938 89.660156 10.554688 86.152344 10.300781 C 83.910156 10.140625 43.0625 14.132812 37.082031 14.71875 L 37.082031 8.484375 C 59.113281 5.621094 93.679688 1.09375 97.378906 0.582031 C 101.070312 0.0703125 104.058594 2.757812 103.351562 5.5625 C 102.648438 8.382812 88.691406 59.804688 87.730469 62.601562 C 87.207031 64.140625 85.625 65.160156 82.816406 64.652344 C 80.007812 64.140625 42.261719 58.640625 37 57.742188 Z M 37.695312 55.570312 "/>
    <path style=" stroke:none;fill-rule:nonzero;fill:rgb(38.823529%,39.215686%,40.392157%);fill-opacity:1;" d="M 93.773438 75.628906 L 92.65625 72.292969 L 91.515625 75.628906 Z M 94.503906 77.703125 L 90.769531 77.703125 L 90.0625 79.523438 L 87.195312 79.523438 L 91.195312 69.054688 L 94.144531 69.054688 L 98.0625 79.523438 L 95.175781 79.523438 Z M 79.96875 73.375 L 83.269531 69.054688 L 86.605469 69.054688 L 82.472656 74.011719 L 86.984375 79.523438 L 83.484375 79.523438 L 79.96875 74.984375 L 79.96875 79.523438 L 77.257812 79.523438 L 77.257812 69.054688 L 79.96875 69.054688 Z M 75.132812 69.652344 L 74.046875 71.765625 C 73.472656 71.296875 72.886719 71.066406 72.28125 71.066406 C 71.902344 71.066406 71.605469 71.167969 71.394531 71.382812 C 71.21875 71.554688 71.128906 71.746094 71.128906 71.964844 C 71.128906 72.28125 71.34375 72.539062 71.773438 72.75 C 71.902344 72.808594 72.304688 72.9375 73 73.148438 C 73.902344 73.421875 74.558594 73.785156 74.953125 74.238281 C 75.355469 74.695312 75.558594 75.300781 75.558594 76.054688 C 75.558594 77.410156 75.105469 78.398438 74.210938 79.027344 C 73.480469 79.539062 72.582031 79.796875 71.5 79.796875 C 70.21875 79.796875 69.007812 79.40625 67.878906 78.609375 L 69.042969 76.417969 C 69.847656 77.128906 70.648438 77.484375 71.429688 77.484375 C 71.902344 77.484375 72.242188 77.351562 72.46875 77.109375 C 72.640625 76.910156 72.730469 76.691406 72.730469 76.464844 C 72.730469 76.179688 72.621094 75.953125 72.390625 75.78125 C 72.164062 75.621094 71.734375 75.441406 71.089844 75.253906 C 70.105469 74.957031 69.449219 74.683594 69.117188 74.410156 C 68.566406 73.953125 68.289062 73.257812 68.289062 72.328125 C 68.289062 71.238281 68.652344 70.367188 69.363281 69.710938 C 70.019531 69.101562 70.84375 68.804688 71.839844 68.804688 C 72.972656 68.804688 74.066406 69.085938 75.132812 69.652344 M 63.714844 69.054688 L 63.714844 77.222656 L 66.960938 77.222656 L 66.960938 79.523438 L 61.007812 79.523438 L 61.007812 69.054688 Z M 53.53125 71.378906 C 52.730469 71.378906 52.039062 71.660156 51.476562 72.238281 C 50.90625 72.820312 50.613281 73.503906 50.613281 74.289062 C 50.613281 75.113281 50.90625 75.824219 51.476562 76.402344 C 52.039062 76.980469 52.730469 77.261719 53.539062 77.261719 C 54.355469 77.261719 55.039062 76.980469 55.613281 76.402344 C 56.1875 75.828125 56.46875 75.128906 56.46875 74.316406 C 56.46875 73.496094 56.1875 72.800781 55.613281 72.238281 C 55.039062 71.675781 54.347656 71.386719 53.53125 71.378906 M 53.53125 68.742188 C 55.273438 68.742188 56.691406 69.328125 57.792969 70.5 C 58.792969 71.554688 59.296875 72.832031 59.296875 74.316406 C 59.296875 75.339844 59.046875 76.285156 58.546875 77.148438 C 58.003906 78.082031 57.257812 78.785156 56.3125 79.269531 C 55.488281 79.691406 54.550781 79.902344 53.492188 79.902344 C 51.777344 79.902344 50.375 79.320312 49.28125 78.152344 C 48.28125 77.09375 47.78125 75.78125 47.78125 74.226562 C 47.78125 73.25 48.035156 72.335938 48.539062 71.492188 C 49.609375 69.695312 51.277344 68.773438 53.53125 68.742188 M 41.605469 73.851562 L 42.503906 73.851562 C 43.027344 73.851562 43.394531 73.757812 43.609375 73.554688 C 43.855469 73.324219 43.984375 72.988281 43.984375 72.558594 C 43.984375 71.679688 43.496094 71.238281 42.507812 71.238281 L 41.605469 71.238281 Z M 41.605469 76.042969 L 41.605469 79.523438 L 38.898438 79.523438 L 38.898438 69.054688 L 43.203125 69.054688 C 43.808594 69.054688 44.304688 69.125 44.699219 69.253906 C 45.089844 69.386719 45.453125 69.613281 45.796875 69.929688 C 46.476562 70.574219 46.8125 71.4375 46.8125 72.53125 C 46.8125 73.589844 46.535156 74.433594 45.976562 75.070312 C 45.410156 75.71875 44.515625 76.042969 43.289062 76.042969 Z M 31.609375 69.972656 C 30.324219 69.972656 29.25 70.472656 28.402344 71.46875 C 27.714844 72.28125 27.367188 73.199219 27.367188 74.242188 C 27.367188 75.53125 27.808594 76.59375 28.691406 77.429688 C 29.152344 77.855469 29.667969 78.179688 30.253906 78.390625 C 30.703125 78.542969 31.140625 78.617188 31.574219 78.617188 C 32.359375 78.617188 33.09375 78.414062 33.773438 78 C 34.445312 77.597656 34.960938 77.0625 35.324219 76.394531 C 35.671875 75.75 35.84375 75.050781 35.84375 74.304688 C 35.84375 73.070312 35.417969 72.035156 34.550781 71.175781 C 33.757812 70.402344 32.78125 69.996094 31.609375 69.972656 M 31.621094 68.878906 C 32.578125 68.878906 33.464844 69.125 34.28125 69.601562 C 35.128906 70.097656 35.796875 70.761719 36.292969 71.59375 C 36.773438 72.429688 37.023438 73.335938 37.023438 74.304688 C 37.023438 75.265625 36.773438 76.171875 36.285156 77.015625 C 35.808594 77.828125 35.167969 78.46875 34.363281 78.949219 C 33.5 79.457031 32.570312 79.71875 31.558594 79.71875 C 30.644531 79.71875 29.761719 79.476562 28.914062 78.996094 C 28.019531 78.480469 27.332031 77.789062 26.859375 76.921875 C 26.410156 76.117188 26.195312 75.21875 26.195312 74.230469 C 26.195312 72.742188 26.765625 71.457031 27.910156 70.371094 C 28.933594 69.402344 30.167969 68.90625 31.621094 68.878906 M 14.792969 79.523438 L 14.792969 68.617188 L 22.90625 77.167969 L 22.90625 69.054688 L 24.066406 69.054688 L 24.066406 80 L 15.957031 71.457031 L 15.957031 79.523438 Z M 12.09375 79.523438 L 10.925781 79.523438 L 10.925781 69.054688 L 12.09375 69.054688 Z M 3.210938 73.550781 L 7.648438 69.054688 L 9.203125 69.054688 L 4.328125 73.929688 L 9.359375 79.523438 L 7.769531 79.523438 L 3.511719 74.726562 L 3.210938 75.011719 L 3.210938 79.523438 L 2.046875 79.523438 L 2.046875 69.054688 L 3.210938 69.054688 Z M 3.210938 73.550781 "/>
    <path style=" stroke:none;fill-rule:nonzero;fill:rgb(38.823529%,39.215686%,40.392157%);fill-opacity:1;" d="M 22.5 32.703125 L 31.53125 32.703125 C 35.054688 32.703125 36.726562 31.742188 37.46875 29.488281 C 38.21875 27.152344 37.207031 26.199219 33.6875 26.199219 L 24.652344 26.199219 Z M 5.980469 40.238281 L 0 40.234375 L 2.484375 32.695312 L 8.707031 32.695312 L 13.078125 18.914062 L 41.957031 18.914062 C 51.882812 18.914062 54.273438 22.8125 51.984375 29.703125 C 50.03125 35.644531 44.914062 40.242188 34.992188 40.242188 L 20.007812 40.242188 L 16.839844 49.867188 L 2.847656 49.867188 Z M 5.980469 40.238281 "/>
    <path style=" stroke:none;fill-rule:nonzero;fill:rgb(38.823529%,39.215686%,40.392157%);fill-opacity:1;" d="M 57.175781 18.914062 L 71.167969 18.914062 L 63.691406 41.542969 L 84.734375 41.542969 L 82.617188 49.867188 L 46.945312 49.867188 Z M 57.175781 18.914062 "/>
  </g>
</svg>