<?xml version="1.0" encoding="UTF-8" standalone="yes"?>
<svg xmlns="http://www.w3.org/2000/svg" xmlns:xlink="http://www.w3.org/1999/xlink" width="85.33333333333333px" height="105.33333333333333px" viewBox="0 0 64 79" version="1.1">
  <defs>
    <clipPath id="clip1">
      <path d="M 2 0.933594 L 63.941406 0.933594 L 63.941406 59 L 2 59 Z M 2 0.933594 "/>
    </clipPath>
    <clipPath id="clip2">
      <path d="M 0.234375 59 L 13 59 L 13 74 L 0.234375 74 Z M 0.234375 59 "/>
    </clipPath>
    <clipPath id="clip3">
      <path d="M 48 65 L 60 65 L 60 78.054688 L 48 78.054688 Z M 48 65 "/>
    </clipPath>
    <clipPath id="clip4">
      <path d="M 59 64 L 63.941406 64 L 63.941406 78 L 59 78 Z M 59 64 "/>
    </clipPath>
  </defs>
  <g id="surface1">
    <g clip-path="url(#clip1)" clip-rule="nonzero">
      <path style=" stroke:none;fill-rule:nonzero;fill:rgb(92.941176%,2.352941%,46.666667%);fill-opacity:1;" d="M 55.21875 58.445312 C 40.394531 58.886719 25.566406 57.5625 10.742188 54.464844 C 5.992188 38.238281 3.167969 22.269531 2.269531 6.550781 C 22.746094 2.273438 43.21875 0.441406 63.695312 1.046875 C 63.175781 20.433594 60.355469 39.570312 55.21875 58.445312 "/>
    </g>
    <g clip-path="url(#clip2)" clip-rule="nonzero">
      <path style=" stroke:none;fill-rule:nonzero;fill:rgb(92.941176%,2.352941%,46.666667%);fill-opacity:1;" d="M 2.894531 60.433594 C 3.160156 59.492188 3.859375 59.171875 4.644531 59.390625 C 5.433594 59.609375 5.863281 60.253906 5.597656 61.195312 L 4.667969 64.472656 L 9.515625 61.484375 C 10.226562 61.035156 10.582031 61.042969 10.976562 61.15625 C 11.582031 61.324219 12.167969 62.117188 11.960938 62.828125 C 11.855469 63.226562 11.492188 63.535156 11.125 63.753906 L 7.003906 66.074219 L 9.445312 70.847656 C 9.738281 71.414062 9.972656 71.855469 9.832031 72.351562 C 9.59375 73.210938 8.789062 73.492188 8.042969 73.277344 C 7.328125 73.082031 6.992188 72.292969 6.695312 71.683594 L 4.113281 66.421875 L 3.011719 70.34375 C 2.742188 71.285156 2.042969 71.605469 1.261719 71.390625 C 0.480469 71.171875 0.046875 70.527344 0.308594 69.585938 Z M 2.894531 60.433594 "/>
    </g>
    <g clip-path="url(#clip3)" clip-rule="nonzero">
      <path style=" stroke:none;fill-rule:nonzero;fill:rgb(92.941176%,2.352941%,46.666667%);fill-opacity:1;" d="M 48.488281 67.230469 C 48.46875 66.332031 49.132812 65.816406 49.859375 65.800781 L 53.21875 65.726562 C 56.882812 65.644531 59.027344 68.484375 59.097656 71.640625 C 59.191406 75.648438 56.539062 77.910156 53.492188 77.980469 L 50.136719 78.054688 C 49.414062 78.074219 48.722656 77.585938 48.703125 76.6875 Z M 51.476562 75.441406 L 52.964844 75.410156 C 55.144531 75.359375 56.132812 73.839844 56.089844 71.707031 C 56.035156 69.640625 54.972656 68.265625 52.929688 68.3125 L 51.324219 68.351562 Z M 51.476562 75.441406 "/>
    </g>
    <g clip-path="url(#clip4)" clip-rule="nonzero">
      <path style=" stroke:none;fill-rule:nonzero;fill:rgb(92.941176%,2.352941%,46.666667%);fill-opacity:1;" d="M 63.917969 75.625 C 64.050781 76.589844 63.53125 77.164062 62.726562 77.273438 C 61.914062 77.382812 61.265625 76.964844 61.136719 75.988281 L 59.875 66.574219 C 59.746094 65.597656 60.261719 65.027344 61.070312 64.921875 C 61.875 64.8125 62.523438 65.226562 62.65625 66.203125 Z M 63.917969 75.625 "/>
    </g>
    <path style=" stroke:none;fill-rule:nonzero;fill:rgb(100%,100%,100%);fill-opacity:1;" d="M 49.828125 40.074219 L 46.722656 40.074219 L 46.722656 13.851562 C 46.722656 13.644531 46.59375 13.464844 46.390625 13.402344 C 46.195312 13.335938 45.980469 13.417969 45.863281 13.589844 L 24.425781 45.113281 C 24.324219 45.261719 24.316406 45.453125 24.394531 45.601562 C 24.480469 45.757812 24.636719 45.855469 24.820312 45.855469 L 40.632812 45.855469 L 40.632812 49.402344 C 40.632812 49.664062 40.855469 49.878906 41.113281 49.878906 L 46.25 49.878906 C 46.515625 49.878906 46.722656 49.664062 46.722656 49.402344 L 46.722656 45.855469 L 49.828125 45.855469 C 50.089844 45.855469 50.300781 45.636719 50.300781 45.382812 L 50.300781 40.539062 C 50.300781 40.277344 50.089844 40.074219 49.828125 40.074219 M 40.46875 40.082031 L 34.53125 40.082031 L 40.46875 31.355469 Z M 40.46875 40.082031 "/>
    <path style=" stroke:none;fill-rule:nonzero;fill:rgb(92.941176%,2.352941%,46.666667%);fill-opacity:1;" d="M 23.136719 69.792969 C 22.574219 73.644531 19.828125 75.789062 16.21875 75.261719 C 12.597656 74.738281 10.582031 71.910156 11.140625 68.058594 C 11.707031 64.207031 14.453125 62.066406 18.0625 62.589844 C 21.679688 63.113281 23.695312 65.941406 23.136719 69.792969 M 14.125 68.492188 C 13.84375 70.414062 14.449219 72.394531 16.589844 72.703125 C 18.726562 73.015625 19.871094 71.285156 20.15625 69.363281 C 20.433594 67.4375 19.835938 65.449219 17.691406 65.140625 C 15.550781 64.835938 14.402344 66.566406 14.125 68.492188 "/>
    <path style=" stroke:none;fill-rule:nonzero;fill:rgb(92.941176%,2.352941%,46.666667%);fill-opacity:1;" d="M 25.964844 65.652344 C 26.355469 64.222656 27.265625 64.007812 27.96875 64.074219 C 29.367188 64.207031 29.605469 65.035156 30.105469 67.292969 L 31.074219 71.621094 L 31.109375 71.621094 L 32.859375 67.546875 C 33.777344 65.421875 34.160156 64.640625 35.550781 64.769531 C 36.257812 64.839844 37.113281 65.210938 37.234375 66.6875 L 37.753906 73.0625 C 37.859375 74.351562 37.972656 75.765625 37.933594 76.171875 C 37.878906 76.792969 37.328125 77.449219 36.5 77.378906 C 35.238281 77.257812 35.101562 76.347656 35.050781 75.390625 L 34.730469 69.898438 L 34.695312 69.898438 L 32.253906 75.71875 C 31.902344 76.585938 31.449219 76.90625 30.605469 76.832031 C 29.757812 76.753906 29.382812 76.355469 29.191406 75.441406 L 27.871094 69.265625 L 27.835938 69.265625 L 26.496094 74.605469 C 26.273438 75.53125 25.96875 76.40625 24.710938 76.289062 C 23.882812 76.210938 23.46875 75.464844 23.519531 74.847656 C 23.566406 74.4375 23.933594 73.070312 24.273438 71.824219 Z M 25.964844 65.652344 "/>
    <path style=" stroke:none;fill-rule:nonzero;fill:rgb(92.941176%,2.352941%,46.666667%);fill-opacity:1;" d="M 40 66.753906 C 40.027344 65.863281 40.722656 65.386719 41.449219 65.410156 L 45.738281 65.550781 C 46.625 65.582031 47.125 66.117188 47.097656 66.894531 C 47.066406 67.703125 46.527344 68.164062 45.652344 68.136719 L 42.761719 68.035156 L 42.691406 70.257812 L 45.335938 70.34375 C 46.214844 70.375 46.71875 70.890625 46.691406 71.679688 C 46.664062 72.472656 46.128906 72.953125 45.246094 72.925781 L 42.597656 72.835938 L 42.523438 75.121094 L 45.515625 75.222656 C 46.398438 75.253906 46.898438 75.753906 46.875 76.5625 C 46.84375 77.335938 46.304688 77.835938 45.429688 77.804688 L 41.03125 77.660156 C 40.304688 77.628906 39.644531 77.109375 39.675781 76.210938 Z M 40 66.753906 "/>
  </g>
</svg>