<?xml version="1.0" encoding="UTF-8" standalone="yes"?>
<svg xmlns="http://www.w3.org/2000/svg" xmlns:xlink="http://www.w3.org/1999/xlink" width="426.66666666666663px" height="106.66666666666666px" viewBox="0 0 320 80" version="1.1">
  <g id="surface1">
    <path style=" stroke:none;fill-rule:nonzero;fill:rgb(10.980392%,41.176471%,42.745098%);fill-opacity:1;" d="M 15.78125 11.085938 C 17.144531 10.679688 18.585938 10.847656 19.988281 10.824219 C 112.128906 10.824219 204.265625 10.824219 296.402344 10.824219 C 298.300781 10.828125 300.285156 10.648438 302.074219 11.425781 C 306.039062 12.894531 309.453125 16.480469 309.949219 20.769531 C 310.015625 32.78125 309.953125 44.796875 309.980469 56.8125 C 309.960938 58.070312 310.070312 59.367188 309.714844 60.597656 C 308.457031 64.253906 305.496094 67.320312 301.808594 68.546875 C 300.441406 68.910156 299.007812 68.746094 297.613281 68.777344 C 205.734375 68.777344 113.863281 68.777344 21.988281 68.777344 C 19.738281 68.6875 17.460938 68.96875 15.230469 68.621094 C 12.550781 67.527344 10.332031 64.972656 10.035156 62.046875 C 10 47.636719 10.046875 33.21875 10.011719 18.808594 C 9.8125 15.304688 12.550781 12.125 15.78125 11.085938 M 55.757812 14.984375 C 54.375 14.976562 53.285156 16.21875 53.460938 17.59375 C 53.441406 28.929688 53.472656 40.265625 53.441406 51.601562 C 53.449219 52.246094 53.441406 52.898438 53.542969 53.539062 C 53.796875 54.472656 54.867188 54.207031 55.59375 54.300781 C 56.960938 54.289062 58.359375 54.410156 59.707031 54.128906 C 60.6875 53.675781 61.546875 52.714844 61.507812 51.578125 C 61.546875 39.851562 61.5625 28.121094 61.519531 16.390625 C 61.597656 15.703125 61.101562 14.972656 60.367188 14.972656 C 58.835938 14.875 57.289062 14.882812 55.757812 14.984375 M 120.257812 14.882812 C 120.246094 31.59375 120.257812 48.304688 120.253906 65.011719 C 179.632812 64.996094 239.011719 65.007812 298.390625 65.007812 C 302.375 65.214844 306.230469 61.660156 306.050781 57.621094 C 306.03125 45.726562 306.050781 33.839844 306.042969 21.953125 C 306.128906 19.222656 304.171875 16.960938 301.960938 15.628906 C 300.421875 14.671875 298.519531 14.945312 296.796875 14.878906 C 237.949219 14.890625 179.101562 14.898438 120.257812 14.882812 M 27.660156 29.273438 C 24.265625 32.285156 24.292969 38.421875 28.046875 41.128906 C 32.496094 44.039062 38.121094 43.5 42.898438 45.570312 C 42.902344 46.128906 42.902344 46.683594 42.902344 47.242188 C 40.800781 47.976562 38.554688 47.691406 36.375 47.703125 C 33.714844 47.695312 31.058594 47.726562 28.398438 47.746094 C 27.441406 47.757812 26.242188 48.058594 25.929688 49.09375 C 25.390625 50.757812 25.71875 52.539062 25.859375 54.238281 C 31.113281 54.246094 36.363281 54.261719 41.617188 54.246094 C 44.734375 54.152344 48.195312 53.039062 49.898438 50.238281 C 52.023438 47.003906 51.148438 42.203125 47.988281 39.960938 C 44.257812 37.585938 39.707031 37.484375 35.570312 36.257812 C 34.523438 35.957031 33.019531 35.777344 32.796875 34.472656 C 33.070312 33.613281 34.074219 33.605469 34.820312 33.542969 C 39.0625 33.453125 43.3125 33.609375 47.558594 33.5 C 48.769531 33.503906 49.964844 32.453125 49.898438 31.199219 C 49.953125 29.789062 50.171875 28.289062 49.53125 26.96875 C 44.878906 26.789062 40.226562 26.945312 35.574219 26.871094 C 32.792969 26.820312 29.742188 27.242188 27.660156 29.273438 M 72.59375 28.183594 C 69.066406 31.914062 65.574219 35.679688 62.117188 39.46875 C 65.699219 44.3125 68.964844 49.382812 72.570312 54.210938 C 74.785156 54.144531 77.042969 54.542969 79.222656 54.039062 C 79.6875 53.859375 80.78125 53.707031 80.21875 53.003906 C 77.390625 48.585938 74.4375 44.238281 71.414062 39.949219 C 73.523438 37.589844 75.710938 35.300781 77.867188 32.984375 C 82.105469 39.121094 86.179688 45.367188 90.398438 51.511719 C 88.871094 54.308594 87.519531 57.195312 86.105469 60.046875 C 85.613281 61.34375 84.734375 62.503906 84.449219 63.867188 C 84.808594 64.34375 85.238281 64.980469 85.9375 64.894531 C 87.792969 64.988281 89.671875 65.054688 91.503906 64.644531 C 95.402344 57.003906 98.929688 49.1875 102.613281 41.445312 C 104.652344 36.867188 107.191406 32.503906 108.835938 27.761719 C 108.3125 27.46875 107.886719 26.851562 107.230469 26.886719 C 105.441406 26.894531 103.621094 26.761719 101.839844 27.035156 C 100.925781 27.933594 100.53125 29.207031 99.96875 30.332031 C 98.03125 34.941406 95.90625 39.46875 93.964844 44.070312 C 90.460938 38.976562 87.386719 33.59375 83.953125 28.453125 C 83.472656 27.777344 82.882812 26.964844 81.972656 26.953125 C 79.722656 26.8125 77.46875 26.878906 75.214844 26.902344 C 74.160156 26.800781 73.277344 27.457031 72.59375 28.183594 Z M 72.59375 28.183594 "/>
    <path style=" stroke:none;fill-rule:nonzero;fill:rgb(10.980392%,41.176471%,42.745098%);fill-opacity:1;" d="M 215.542969 25.578125 C 215.488281 25.058594 215.898438 24.523438 216.449219 24.523438 C 217.953125 24.402344 219.46875 24.503906 220.980469 24.453125 C 221.207031 34.625 221.015625 44.796875 221.097656 54.96875 C 219.234375 54.980469 217.375 54.949219 215.519531 54.886719 C 215.550781 45.121094 215.53125 35.347656 215.542969 25.578125 Z M 215.542969 25.578125 "/>
    <path style=" stroke:none;fill-rule:nonzero;fill:rgb(10.980392%,41.176471%,42.745098%);fill-opacity:1;" d="M 270.523438 24.679688 C 272.332031 24.636719 274.144531 24.640625 275.949219 24.46875 C 276.035156 34.628906 275.859375 44.792969 276.046875 54.949219 C 274.191406 54.96875 272.332031 54.96875 270.480469 54.910156 C 270.554688 44.835938 270.488281 34.757812 270.523438 24.679688 Z M 270.523438 24.679688 "/>
    <path style=" stroke:none;fill-rule:nonzero;fill:rgb(10.980392%,41.176471%,42.745098%);fill-opacity:1;" d="M 146.449219 24.644531 C 148.332031 24.644531 150.214844 24.644531 152.101562 24.652344 C 152.109375 28.71875 152.078125 32.789062 152.105469 36.855469 C 156.457031 32.820312 160.832031 28.804688 165.117188 24.691406 C 167.976562 24.632812 170.839844 24.621094 173.703125 24.671875 C 168.394531 29.675781 163.074219 34.667969 157.828125 39.734375 C 162.953125 44.96875 168.445312 49.824219 173.683594 54.9375 C 170.875 54.988281 168.070312 54.949219 165.269531 54.957031 C 160.882812 50.875 156.484375 46.8125 152.117188 42.707031 C 152.066406 46.773438 152.113281 50.835938 152.109375 54.898438 C 150.222656 54.953125 148.335938 54.964844 146.453125 54.96875 C 146.453125 44.859375 146.464844 34.753906 146.449219 24.644531 Z M 146.449219 24.644531 "/>
    <path style=" stroke:none;fill-rule:nonzero;fill:rgb(10.980392%,41.176471%,42.745098%);fill-opacity:1;" d="M 179.378906 26.390625 C 179.507812 25.808594 179.128906 24.699219 179.988281 24.578125 C 187.050781 24.722656 194.125 24.535156 201.191406 24.644531 C 203.09375 24.675781 205.121094 25.273438 206.328125 26.835938 C 207.929688 28.535156 208.207031 30.972656 208.09375 33.203125 C 207.964844 36.078125 208.605469 39.261719 206.949219 41.824219 C 206.121094 43.214844 204.671875 43.996094 203.292969 44.734375 C 205.257812 48.183594 207.34375 51.558594 209.410156 54.949219 C 207.246094 54.964844 205.085938 55.03125 202.925781 54.867188 C 200.746094 51.578125 198.859375 48.117188 196.777344 44.773438 C 192.765625 44.753906 188.746094 44.773438 184.734375 44.765625 C 184.71875 48.160156 184.746094 51.554688 184.734375 54.953125 C 182.945312 54.957031 181.152344 54.964844 179.359375 54.960938 C 179.347656 45.441406 179.292969 35.914062 179.378906 26.390625 M 184.734375 30.28125 C 184.734375 33.265625 184.726562 36.246094 184.734375 39.234375 C 190.429688 39.117188 196.144531 39.511719 201.820312 38.972656 C 203 38.375 202.675781 36.707031 202.734375 35.59375 C 202.589844 33.878906 203.175781 31.921875 202.027344 30.449219 C 196.269531 30.0625 190.5 30.382812 184.734375 30.28125 Z M 184.734375 30.28125 "/>
    <path style=" stroke:none;fill-rule:nonzero;fill:rgb(10.980392%,41.176471%,42.745098%);fill-opacity:1;" d="M 229.035156 27.136719 C 229.085938 24.675781 232.964844 23.617188 234.175781 25.804688 C 238.3125 31.773438 242.332031 37.820312 246.390625 43.839844 C 250.246094 37.675781 254.53125 31.785156 258.527344 25.707031 C 259.984375 23.554688 264.03125 24.867188 263.636719 27.566406 C 263.707031 36.695312 263.605469 45.832031 263.667969 54.960938 C 261.765625 54.980469 259.855469 54.941406 257.953125 54.886719 C 258.113281 48.71875 257.996094 42.554688 258.054688 36.386719 C 255.078125 40.792969 252.125 45.210938 249.144531 49.617188 C 248.503906 50.671875 247.367188 51.238281 246.355469 51.871094 C 245.289062 51.296875 244.199219 50.65625 243.527344 49.613281 C 240.554688 45.199219 237.617188 40.757812 234.59375 36.378906 C 234.542969 42.570312 234.597656 48.769531 234.5625 54.960938 C 232.710938 54.964844 230.867188 54.960938 229.019531 54.96875 C 229.03125 45.6875 229 36.410156 229.035156 27.136719 Z M 229.035156 27.136719 "/>
    <path style=" stroke:none;fill-rule:nonzero;fill:rgb(99.607843%,99.607843%,99.607843%);fill-opacity:1;" d="M 55.757812 14.984375 C 57.289062 14.882812 58.835938 14.875 60.367188 14.972656 C 61.101562 14.972656 61.597656 15.703125 61.519531 16.390625 C 61.5625 28.121094 61.546875 39.851562 61.507812 51.578125 C 61.546875 52.714844 60.6875 53.675781 59.707031 54.128906 C 58.359375 54.410156 56.960938 54.289062 55.59375 54.300781 C 54.867188 54.207031 53.796875 54.472656 53.542969 53.539062 C 53.441406 52.898438 53.449219 52.246094 53.441406 51.601562 C 53.472656 40.265625 53.441406 28.929688 53.460938 17.59375 C 53.285156 16.21875 54.375 14.976562 55.757812 14.984375 Z M 55.757812 14.984375 "/>
    <path style=" stroke:none;fill-rule:nonzero;fill:rgb(99.607843%,99.607843%,99.607843%);fill-opacity:1;" d="M 27.660156 29.273438 C 29.742188 27.242188 32.792969 26.820312 35.574219 26.871094 C 40.226562 26.945312 44.878906 26.789062 49.53125 26.96875 C 50.171875 28.289062 49.953125 29.789062 49.898438 31.199219 C 49.964844 32.453125 48.769531 33.503906 47.558594 33.5 C 43.3125 33.609375 39.0625 33.453125 34.820312 33.542969 C 34.074219 33.605469 33.070312 33.613281 32.796875 34.472656 C 33.019531 35.777344 34.523438 35.957031 35.570312 36.257812 C 39.707031 37.484375 44.257812 37.585938 47.988281 39.960938 C 51.148438 42.203125 52.023438 47.003906 49.898438 50.238281 C 48.195312 53.039062 44.734375 54.152344 41.617188 54.246094 C 36.363281 54.261719 31.113281 54.246094 25.859375 54.238281 C 25.71875 52.539062 25.390625 50.757812 25.929688 49.09375 C 26.242188 48.058594 27.441406 47.757812 28.398438 47.746094 C 31.058594 47.726562 33.714844 47.695312 36.375 47.703125 C 38.554688 47.691406 40.800781 47.976562 42.902344 47.242188 C 42.902344 46.683594 42.902344 46.128906 42.898438 45.570312 C 38.121094 43.5 32.496094 44.039062 28.046875 41.128906 C 24.292969 38.421875 24.265625 32.285156 27.660156 29.273438 Z M 27.660156 29.273438 "/>
    <path style=" stroke:none;fill-rule:nonzero;fill:rgb(99.607843%,99.607843%,99.607843%);fill-opacity:1;" d="M 72.59375 28.183594 C 73.277344 27.457031 74.160156 26.800781 75.214844 26.902344 C 77.46875 26.878906 79.722656 26.8125 81.972656 26.953125 C 82.882812 26.964844 83.472656 27.777344 83.953125 28.453125 C 87.386719 33.59375 90.460938 38.976562 93.964844 44.070312 C 95.90625 39.46875 98.03125 34.941406 99.96875 30.332031 C 100.53125 29.207031 100.925781 27.933594 101.839844 27.035156 C 103.621094 26.761719 105.441406 26.894531 107.230469 26.886719 C 107.886719 26.851562 108.3125 27.46875 108.835938 27.761719 C 107.191406 32.503906 104.652344 36.867188 102.613281 41.445312 C 98.929688 49.1875 95.402344 57.003906 91.503906 64.644531 C 89.671875 65.054688 87.792969 64.988281 85.9375 64.894531 C 85.238281 64.980469 84.808594 64.34375 84.449219 63.867188 C 84.734375 62.503906 85.613281 61.34375 86.105469 60.046875 C 87.519531 57.195312 88.871094 54.308594 90.398438 51.511719 C 86.179688 45.367188 82.105469 39.121094 77.867188 32.984375 C 75.710938 35.300781 73.523438 37.589844 71.414062 39.949219 C 74.4375 44.238281 77.390625 48.585938 80.21875 53.003906 C 80.78125 53.707031 79.6875 53.859375 79.222656 54.039062 C 77.042969 54.542969 74.785156 54.144531 72.570312 54.210938 C 68.964844 49.382812 65.699219 44.3125 62.117188 39.46875 C 65.574219 35.679688 69.066406 31.914062 72.59375 28.183594 Z M 72.59375 28.183594 "/>
  </g>
</svg>