<?xml version="1.0" encoding="UTF-8" ?>
<!DOCTYPE svg PUBLIC "-//W3C//DTD SVG 1.1//EN" "http://www.w3.org/Graphics/SVG/1.1/DTD/svg11.dtd">
<svg width="164pt" height="76pt" viewBox="0 0 164 76" version="1.1" xmlns="http://www.w3.org/2000/svg">
<g id="#e6007eff">
<path fill="#e6007e" opacity="1.00" d=" M 44.75 0.00 L 117.25 0.00 C 117.25 11.67 117.25 23.33 117.25 35.00 C 93.08 35.00 68.92 35.00 44.75 35.00 C 44.75 23.33 44.75 11.67 44.75 0.00 M 54.24 5.57 C 54.24 13.34 54.24 21.11 54.24 28.88 C 72.10 28.89 89.96 28.89 107.82 28.88 C 107.82 21.11 107.82 13.34 107.82 5.57 C 89.96 5.55 72.10 5.55 54.24 5.57 Z" />
<path fill="#e6007e" opacity="1.00" d=" M 55.51 6.70 C 60.91 6.70 66.31 6.66 71.71 6.73 C 71.65 13.74 71.70 20.74 71.68 27.75 C 66.26 27.71 60.84 27.85 55.42 27.65 C 55.60 20.67 55.46 13.68 55.51 6.70 M 57.94 10.06 C 57.94 10.78 57.94 12.22 57.94 12.94 C 59.29 12.94 60.64 12.95 62.00 12.96 C 62.00 16.83 62.00 20.70 62.00 24.57 C 62.80 24.57 64.39 24.56 65.19 24.56 C 65.19 20.70 65.19 16.83 65.19 12.96 C 66.54 12.95 67.90 12.95 69.25 12.94 C 69.25 12.22 69.25 10.78 69.25 10.06 C 65.48 10.05 61.71 10.05 57.94 10.06 Z" />
<path fill="#e6007e" opacity="1.00" d=" M 72.96 6.70 C 78.34 6.69 83.72 6.69 89.11 6.70 C 89.12 13.72 89.12 20.73 89.11 27.75 C 83.72 27.75 78.34 27.75 72.96 27.75 C 72.94 20.73 72.94 13.72 72.96 6.70 M 74.22 9.92 C 76.49 14.95 78.67 20.02 81.03 25.01 C 83.30 19.99 85.54 14.96 87.79 9.92 C 86.64 9.94 85.50 9.96 84.36 9.99 C 83.37 12.31 82.45 14.66 81.31 16.91 C 79.20 15.63 78.95 12.17 77.67 10.01 C 76.52 9.98 75.37 9.94 74.22 9.92 Z" />
<path fill="#e6007e" opacity="1.00" d=" M 90.38 27.74 C 90.39 20.73 90.36 13.71 90.40 6.69 C 95.78 6.70 101.16 6.70 106.54 6.69 C 106.57 13.71 106.55 20.73 106.56 27.74 C 101.16 27.75 95.77 27.75 90.38 27.74 M 93.82 10.00 C 93.81 14.86 93.81 19.71 93.81 24.57 C 94.57 24.57 96.07 24.57 96.82 24.57 C 96.81 23.17 96.80 21.78 96.79 20.39 C 98.69 19.96 100.96 19.92 102.23 18.21 C 104.12 16.07 103.55 12.36 101.05 10.94 C 98.86 9.70 96.22 10.17 93.82 10.00 Z" />
<path fill="#e6007e" opacity="1.00" d=" M 96.83 17.62 C 96.83 15.99 96.83 14.36 96.84 12.72 C 98.25 13.10 100.35 13.02 100.41 14.96 C 100.72 17.12 98.35 17.26 96.83 17.62 Z" />
<path fill="#e6007e" opacity="1.00" d=" M 123.96 43.36 C 128.55 43.86 133.98 42.91 137.53 46.58 C 140.65 50.41 140.24 57.08 135.80 59.79 C 137.70 63.74 139.16 67.87 140.55 72.02 C 141.20 73.48 137.36 74.43 137.35 72.62 C 135.69 68.50 133.74 64.52 131.78 60.54 C 130.62 60.59 129.45 60.63 128.29 60.68 C 128.29 65.10 128.45 69.52 128.51 73.95 C 126.80 73.89 125.11 73.78 123.42 73.71 C 124.38 68.08 123.94 62.33 123.88 56.65 C 126.96 56.44 130.28 57.55 133.15 56.07 C 134.81 55.33 135.32 53.43 136.28 52.04 C 135.48 50.44 134.51 48.83 132.94 47.88 C 129.98 47.56 127.00 47.87 124.04 47.64 C 124.01 46.21 123.98 44.79 123.96 43.36 Z" />
</g>
<g id="#fffdfeff">
<path fill="#fffdfe" opacity="1.00" d=" M 54.24 5.57 C 72.10 5.55 89.96 5.55 107.82 5.57 C 107.82 13.34 107.82 21.11 107.82 28.88 C 89.96 28.89 72.10 28.89 54.24 28.88 C 54.24 21.11 54.24 13.34 54.24 5.57 M 55.51 6.70 C 55.46 13.68 55.60 20.67 55.42 27.65 C 60.84 27.85 66.26 27.71 71.68 27.75 C 71.70 20.74 71.65 13.74 71.71 6.73 C 66.31 6.66 60.91 6.70 55.51 6.70 M 72.96 6.70 C 72.94 13.72 72.94 20.73 72.96 27.75 C 78.34 27.75 83.72 27.75 89.11 27.75 C 89.12 20.73 89.12 13.72 89.11 6.70 C 83.72 6.69 78.34 6.69 72.96 6.70 M 90.38 27.74 C 95.77 27.75 101.16 27.75 106.56 27.74 C 106.55 20.73 106.57 13.71 106.54 6.69 C 101.16 6.70 95.78 6.70 90.40 6.69 C 90.36 13.71 90.39 20.73 90.38 27.74 Z" />
<path fill="#fffdfe" opacity="1.00" d=" M 57.94 10.06 C 61.71 10.05 65.48 10.05 69.25 10.06 C 69.25 10.78 69.25 12.22 69.25 12.94 C 67.90 12.95 66.54 12.95 65.19 12.96 C 65.19 16.83 65.19 20.70 65.19 24.56 C 64.39 24.56 62.80 24.57 62.00 24.57 C 62.00 20.70 62.00 16.83 62.00 12.96 C 60.64 12.95 59.29 12.94 57.94 12.94 C 57.94 12.22 57.94 10.78 57.94 10.06 Z" />
<path fill="#fffdfe" opacity="1.00" d=" M 74.22 9.92 C 75.37 9.94 76.52 9.98 77.67 10.01 C 78.95 12.17 79.20 15.63 81.31 16.91 C 82.45 14.66 83.37 12.31 84.36 9.99 C 85.50 9.96 86.64 9.94 87.79 9.92 C 85.54 14.96 83.30 19.99 81.03 25.01 C 78.67 20.02 76.49 14.95 74.22 9.92 Z" />
<path fill="#fffdfe" opacity="1.00" d=" M 93.82 10.00 C 96.22 10.17 98.86 9.70 101.05 10.94 C 103.55 12.36 104.12 16.07 102.23 18.21 C 100.96 19.92 98.69 19.96 96.79 20.39 C 96.80 21.78 96.81 23.17 96.82 24.57 C 96.07 24.57 94.57 24.57 93.81 24.57 C 93.81 19.71 93.81 14.86 93.82 10.00 M 96.83 17.62 C 98.35 17.26 100.72 17.12 100.41 14.96 C 100.35 13.02 98.25 13.10 96.84 12.72 C 96.83 14.36 96.83 15.99 96.83 17.62 Z" />
</g>
<g id="#1d1d1bff">
<path fill="#1d1d1b" opacity="1.00" d=" M 24.16 44.14 C 25.76 44.11 27.37 44.10 28.97 44.11 C 28.91 48.06 28.73 52.00 28.86 55.95 C 29.07 60.70 28.28 65.59 29.75 70.21 C 31.82 70.46 35.42 70.82 35.76 67.98 C 36.87 60.12 35.81 52.18 36.01 44.28 C 37.61 44.40 40.67 43.25 40.34 45.98 C 40.19 51.97 40.37 57.99 39.79 63.97 C 39.59 66.88 39.83 70.28 37.47 72.46 C 35.03 74.96 31.16 74.91 28.07 73.79 C 25.79 72.39 24.57 69.67 24.63 67.04 C 24.51 59.41 24.33 51.77 24.16 44.14 Z" />
<path fill="#1d1d1b" opacity="1.00" d=" M 0.00 45.09 C 1.62 44.92 3.25 44.76 4.88 44.61 C 4.95 48.76 4.96 52.91 4.89 57.06 C 8.34 52.92 11.58 48.61 14.97 44.41 C 15.67 44.86 17.08 45.77 17.78 46.22 C 14.56 50.91 11.30 55.57 7.89 60.12 C 11.43 64.78 15.21 69.28 18.35 74.23 C 17.55 74.37 15.93 74.66 15.13 74.80 C 11.59 70.67 8.16 66.46 4.61 62.35 C 4.54 66.57 4.53 70.79 4.61 75.01 C 3.59 75.03 1.54 75.08 0.52 75.11 C 0.49 71.46 0.38 67.81 0.00 64.18 L 0.00 45.09 Z" />
<path fill="#1d1d1b" opacity="1.00" d=" M 72.06 44.77 C 77.96 45.13 83.87 44.69 89.76 45.11 C 89.81 45.92 89.91 47.53 89.96 48.33 C 87.60 48.42 85.25 48.50 82.89 48.67 C 82.90 56.80 83.11 64.93 83.40 73.05 C 83.62 75.57 80.49 74.65 78.97 74.95 C 78.24 66.24 78.65 57.47 79.13 48.75 C 76.65 48.89 74.16 48.95 71.68 48.95 C 71.80 47.55 71.92 46.16 72.06 44.77 Z" />
<path fill="#1d1d1b" opacity="1.00" d=" M 109.67 46.91 C 109.80 44.81 112.04 45.28 113.49 45.47 C 114.24 46.84 113.80 48.52 113.92 50.02 C 113.83 57.25 113.80 64.54 112.45 71.67 C 111.91 74.05 109.44 75.08 107.45 76.00 L 104.60 76.00 C 100.92 75.89 98.18 72.60 98.26 69.01 C 98.04 61.29 97.91 53.56 97.78 45.84 C 99.35 45.80 100.93 45.78 102.51 45.76 C 102.75 54.43 101.58 63.28 103.33 71.84 C 105.39 71.75 108.96 72.38 109.32 69.52 C 110.50 62.03 109.31 54.43 109.67 46.91 Z" />
<path fill="#1d1d1b" opacity="1.00" d=" M 152.38 44.88 C 153.83 44.83 155.28 44.79 156.73 44.75 C 159.15 54.37 162.03 63.87 164.00 73.61 L 164.00 74.46 C 162.95 74.58 161.90 74.70 160.85 74.82 C 158.80 67.50 157.31 60.06 154.94 52.83 C 152.30 59.57 151.30 66.75 149.62 73.75 C 149.23 75.98 146.49 74.27 145.06 74.44 C 147.39 64.56 149.71 54.68 152.38 44.88 Z" />
<path fill="#1d1d1b" opacity="1.00" d=" M 51.06 45.70 C 52.66 45.56 54.27 45.50 55.88 45.67 C 55.39 54.34 54.88 63.02 55.68 71.70 C 59.79 71.74 63.88 71.15 68.00 71.34 C 68.06 72.56 68.12 73.78 68.17 75.01 C 62.75 75.07 57.33 76.10 51.92 75.44 C 50.83 73.53 51.50 71.12 51.25 69.01 C 50.81 61.24 51.04 53.47 51.06 45.70 Z" />
</g>
</svg>
