<?xml version="1.0" encoding="UTF-8" standalone="yes"?>
<svg xmlns="http://www.w3.org/2000/svg" xmlns:xlink="http://www.w3.org/1999/xlink" width="373.3333333333333px" height="106.66666666666666px" viewBox="0 0 280 80" version="1.1">
  <g id="surface1">
    <path style=" stroke:none;fill-rule:nonzero;fill:rgb(100%,47.058824%,0%);fill-opacity:1;" d="M 6.25 8.382812 C 6.21875 7.253906 7.28125 6.324219 8.386719 6.40625 C 29.59375 6.40625 50.800781 6.398438 72.007812 6.410156 C 73.632812 6.308594 74.925781 8.152344 74.269531 9.644531 C 69.328125 19.902344 64.320312 30.132812 59.390625 40.398438 C 64.347656 50.242188 69.277344 60.101562 74.238281 69.945312 C 74.523438 70.496094 74.777344 71.136719 74.566406 71.761719 C 74.328125 72.820312 73.257812 73.519531 72.203125 73.511719 C 51.199219 73.511719 30.199219 73.511719 9.195312 73.515625 C 8.527344 73.496094 7.792969 73.621094 7.195312 73.230469 C 6.550781 72.878906 6.207031 72.125 6.246094 71.40625 C 6.25 50.398438 6.242188 29.390625 6.25 8.382812 Z M 6.25 8.382812 "/>
    <path style=" stroke:none;fill-rule:nonzero;fill:rgb(58.431373%,58.431373%,58.431373%);fill-opacity:1;" d="M 134.976562 30.78125 C 134.941406 29.785156 135.792969 28.84375 136.8125 28.894531 C 137.835938 28.867188 138.640625 29.820312 138.648438 30.804688 C 138.6875 33.609375 138.640625 36.414062 138.671875 39.21875 C 140.054688 37.953125 141.351562 36.597656 142.742188 35.335938 C 143.34375 34.777344 144.339844 34.410156 145.0625 34.957031 C 145.964844 35.515625 146.03125 36.957031 145.242188 37.640625 C 144.140625 38.65625 143 39.625 141.878906 40.617188 C 143.25 42.214844 144.625 43.808594 146.003906 45.398438 C 146.347656 45.785156 146.613281 46.273438 146.558594 46.804688 C 146.617188 47.882812 145.414062 48.761719 144.402344 48.421875 C 143.828125 48.253906 143.417969 47.785156 143.046875 47.34375 C 141.582031 45.566406 140.140625 43.773438 138.664062 42.007812 C 138.652344 43.339844 138.664062 44.675781 138.664062 46.007812 C 138.671875 46.570312 138.589844 47.171875 138.242188 47.636719 C 137.605469 48.5 136.15625 48.574219 135.453125 47.757812 C 135.058594 47.347656 134.964844 46.746094 134.96875 46.195312 C 134.976562 41.058594 134.964844 35.921875 134.976562 30.78125 Z M 134.976562 30.78125 "/>
    <path style=" stroke:none;fill-rule:nonzero;fill:rgb(58.431373%,58.431373%,58.431373%);fill-opacity:1;" d="M 187.628906 29.621094 C 188.15625 28.878906 189.269531 28.675781 190.039062 29.15625 C 190.613281 29.5 190.933594 30.171875 190.914062 30.828125 C 190.925781 33.636719 190.914062 36.445312 190.921875 39.253906 C 192.179688 38.066406 193.414062 36.859375 194.671875 35.671875 C 195.292969 35.027344 196.253906 34.386719 197.160156 34.84375 C 198.179688 35.316406 198.40625 36.835938 197.589844 37.597656 C 196.472656 38.621094 195.3125 39.601562 194.183594 40.613281 C 195.519531 42.210938 196.898438 43.773438 198.257812 45.355469 C 198.710938 45.835938 199.035156 46.519531 198.828125 47.1875 C 198.640625 48.0625 197.671875 48.644531 196.804688 48.457031 C 196.15625 48.308594 195.710938 47.78125 195.300781 47.296875 C 193.84375 45.515625 192.382812 43.734375 190.925781 41.953125 C 190.894531 43.523438 190.957031 45.097656 190.898438 46.667969 C 190.855469 47.546875 190.09375 48.328125 189.199219 48.316406 C 188.203125 48.449219 187.257812 47.570312 187.277344 46.574219 C 187.261719 41.382812 187.277344 36.191406 187.269531 31.003906 C 187.261719 30.523438 187.304688 30.007812 187.628906 29.621094 Z M 187.628906 29.621094 "/>
    <path style=" stroke:none;fill-rule:nonzero;fill:rgb(58.431373%,58.431373%,58.431373%);fill-opacity:1;" d="M 243.851562 29.054688 C 245.039062 28.460938 246.5 29.488281 246.441406 30.789062 C 246.445312 35.996094 246.445312 41.207031 246.441406 46.414062 C 246.460938 47.347656 245.761719 48.296875 244.785156 48.316406 C 243.679688 48.484375 242.726562 47.492188 242.769531 46.414062 C 242.753906 41.28125 242.769531 36.140625 242.761719 31.003906 C 242.730469 30.21875 243.09375 29.371094 243.851562 29.054688 Z M 243.851562 29.054688 "/>
    <path style=" stroke:none;fill-rule:nonzero;fill:rgb(58.431373%,58.431373%,58.431373%);fill-opacity:1;" d="M 80.90625 31.828125 C 80.964844 30.53125 82.539062 29.863281 83.636719 30.367188 C 84.28125 30.628906 84.730469 31.300781 84.695312 32 C 84.710938 33.804688 84.660156 35.609375 84.714844 37.414062 C 86.621094 35.359375 88.566406 33.34375 90.488281 31.300781 C 90.953125 30.820312 91.457031 30.230469 92.183594 30.226562 C 93.21875 30.097656 94.25 30.945312 94.253906 32.003906 C 94.234375 32.851562 93.570312 33.464844 93.015625 34.027344 C 91.421875 35.558594 89.871094 37.140625 88.261719 38.65625 C 90.265625 40.746094 92.261719 42.84375 94.292969 44.902344 C 94.816406 45.449219 95.285156 46.1875 95.097656 46.976562 C 94.929688 47.832031 94.042969 48.363281 93.207031 48.320312 C 92.371094 48.390625 91.742188 47.746094 91.214844 47.191406 C 89.054688 44.847656 86.847656 42.546875 84.707031 40.191406 C 84.664062 42.394531 84.722656 44.601562 84.679688 46.804688 C 84.527344 48.265625 82.539062 48.78125 81.496094 47.90625 C 81.03125 47.566406 80.863281 46.964844 80.894531 46.410156 C 80.910156 41.550781 80.882812 36.691406 80.90625 31.828125 Z M 80.90625 31.828125 "/>
    <path style=" stroke:none;fill-rule:nonzero;fill:rgb(58.431373%,58.431373%,58.431373%);fill-opacity:1;" d="M 152.203125 34.617188 C 153.738281 34.335938 155.488281 34.824219 156.453125 36.109375 C 156.742188 34.957031 158.105469 34.332031 159.164062 34.871094 C 159.945312 35.265625 160.035156 36.230469 160.050781 37.003906 C 160.042969 40.066406 160.050781 43.132812 160.046875 46.199219 C 159.992188 46.785156 159.976562 47.464844 159.519531 47.898438 C 159.023438 48.402344 158.230469 48.382812 157.589844 48.242188 C 156.957031 48.054688 156.6875 47.410156 156.453125 46.863281 C 155.757812 47.753906 154.699219 48.339844 153.574219 48.460938 C 151.367188 48.703125 149.109375 47.484375 148.050781 45.542969 C 146.613281 43.003906 146.679688 39.601562 148.324219 37.171875 C 149.207031 35.855469 150.617188 34.851562 152.203125 34.617188 M 152.484375 38.128906 C 150.398438 39.265625 150.171875 42.449219 151.585938 44.207031 C 152.441406 45.328125 154.269531 45.484375 155.257812 44.453125 C 156.652344 42.980469 156.699219 40.492188 155.511719 38.882812 C 154.855469 37.945312 153.503906 37.636719 152.484375 38.128906 Z M 152.484375 38.128906 "/>
    <path style=" stroke:none;fill-rule:nonzero;fill:rgb(58.431373%,58.431373%,58.431373%);fill-opacity:1;" d="M 165.714844 36.042969 C 166.804688 34.785156 168.589844 34.292969 170.195312 34.644531 C 171.613281 34.867188 172.851562 35.777344 173.652344 36.941406 C 175.652344 39.957031 175.527344 44.453125 172.808594 47.003906 C 170.925781 48.832031 167.734375 48.976562 165.710938 47.292969 C 165.71875 48.789062 165.722656 50.285156 165.710938 51.78125 C 165.71875 52.789062 164.828125 53.707031 163.808594 53.65625 C 162.828125 53.636719 162.039062 52.738281 162.050781 51.78125 C 162.027344 46.855469 162.050781 41.929688 162.039062 37.003906 C 162.023438 36.410156 162.09375 35.773438 162.496094 35.308594 C 163.027344 34.640625 164.035156 34.539062 164.777344 34.882812 C 165.257812 35.097656 165.480469 35.605469 165.714844 36.042969 M 167.480469 38.113281 C 166.292969 38.628906 165.777344 39.988281 165.71875 41.203125 C 165.691406 42.386719 165.972656 43.691406 166.894531 44.511719 C 167.753906 45.355469 169.261719 45.359375 170.132812 44.535156 C 171.679688 43.074219 171.710938 40.410156 170.40625 38.785156 C 169.730469 37.929688 168.464844 37.664062 167.480469 38.113281 Z M 167.480469 38.113281 "/>
    <path style=" stroke:none;fill-rule:nonzero;fill:rgb(58.431373%,58.431373%,58.431373%);fill-opacity:1;" d="M 180.339844 34.59375 C 181.441406 34.453125 182.574219 34.632812 183.621094 34.992188 C 184.425781 35.300781 185.269531 35.785156 185.597656 36.625 C 185.964844 37.578125 185.253906 38.796875 184.199219 38.804688 C 182.914062 38.597656 181.785156 37.484375 180.421875 37.820312 C 179.722656 37.933594 179.421875 38.941406 180.074219 39.328125 C 181.375 40.1875 182.996094 40.394531 184.285156 41.285156 C 185.113281 41.800781 185.824219 42.617188 185.960938 43.613281 C 186.300781 45.253906 185.347656 46.960938 183.910156 47.742188 C 182.328125 48.605469 180.402344 48.683594 178.703125 48.152344 C 177.671875 47.839844 176.570312 47.394531 175.945312 46.464844 C 175.25 45.484375 176.242188 43.957031 177.402344 44.078125 C 178.664062 44.074219 179.542969 45.265625 180.804688 45.289062 C 181.40625 45.332031 182.210938 45.296875 182.476562 44.636719 C 182.671875 43.96875 182.019531 43.5625 181.511719 43.328125 C 180.003906 42.683594 178.304688 42.289062 177.101562 41.105469 C 175.828125 39.8125 175.941406 37.601562 177.042969 36.242188 C 177.847656 35.257812 179.09375 34.726562 180.339844 34.59375 Z M 180.339844 34.59375 "/>
    <path style=" stroke:none;fill-rule:nonzero;fill:rgb(58.431373%,58.431373%,58.431373%);fill-opacity:1;" d="M 200.84375 36.84375 C 202.097656 35.179688 204.316406 34.1875 206.386719 34.65625 C 207.328125 34.824219 208.15625 35.382812 208.773438 36.105469 C 209.015625 34.878906 210.574219 34.292969 211.597656 34.960938 C 212.199219 35.355469 212.304688 36.128906 212.300781 36.792969 C 212.292969 40.035156 212.3125 43.277344 212.292969 46.523438 C 212.304688 47.234375 211.964844 48.058594 211.214844 48.253906 C 210.621094 48.367188 209.933594 48.394531 209.433594 48 C 209.0625 47.722656 208.945312 47.257812 208.785156 46.851562 C 208.117188 47.621094 207.230469 48.230469 206.214844 48.40625 C 204.117188 48.796875 201.890625 47.804688 200.675781 46.074219 C 198.796875 43.375 198.855469 39.472656 200.84375 36.84375 M 205.035156 38.027344 C 204.414062 38.214844 203.933594 38.695312 203.601562 39.230469 C 202.707031 40.769531 202.78125 42.875 203.925781 44.269531 C 204.792969 45.320312 206.523438 45.457031 207.507812 44.492188 C 208.9375 43.054688 208.984375 40.570312 207.855469 38.941406 C 207.253906 38.042969 206.042969 37.675781 205.035156 38.027344 Z M 205.035156 38.027344 "/>
    <path style=" stroke:none;fill-rule:nonzero;fill:rgb(58.431373%,58.431373%,58.431373%);fill-opacity:1;" d="M 217.835938 35.925781 C 218.941406 34.632812 220.789062 34.347656 222.386719 34.636719 C 223.804688 34.84375 225.128906 35.722656 225.789062 37.003906 C 226.203125 37.796875 226.339844 38.707031 226.320312 39.59375 C 226.300781 41.953125 226.351562 44.3125 226.296875 46.667969 C 226.273438 47.949219 224.753906 48.714844 223.65625 48.148438 C 223.019531 47.835938 222.628906 47.121094 222.667969 46.414062 C 222.660156 44.339844 222.664062 42.265625 222.671875 40.191406 C 222.679688 39.484375 222.496094 38.730469 221.980469 38.21875 C 221.050781 37.363281 219.398438 37.367188 218.5625 38.355469 C 217.980469 39.023438 217.964844 39.964844 217.960938 40.800781 C 217.953125 42.804688 217.996094 44.808594 217.941406 46.808594 C 217.855469 47.976562 216.449219 48.65625 215.421875 48.191406 C 214.632812 47.886719 214.277344 46.992188 214.316406 46.203125 C 214.320312 43.066406 214.316406 39.929688 214.316406 36.792969 C 214.292969 36.140625 214.53125 35.449219 215.070312 35.050781 C 215.964844 34.328125 217.609375 34.710938 217.835938 35.925781 Z M 217.835938 35.925781 "/>
    <path style=" stroke:none;fill-rule:nonzero;fill:rgb(58.431373%,58.431373%,58.431373%);fill-opacity:1;" d="M 115.804688 34.691406 C 117.554688 34.300781 119.554688 34.640625 120.875 35.914062 C 121.707031 36.785156 122.203125 37.980469 122.164062 39.191406 C 122.15625 41.664062 122.175781 44.136719 122.15625 46.609375 C 122.171875 47.609375 121.191406 48.46875 120.199219 48.316406 C 119.199219 48.320312 118.496094 47.339844 118.523438 46.398438 C 118.492188 44.15625 118.546875 41.910156 118.503906 39.667969 C 118.445312 38.574219 117.503906 37.644531 116.410156 37.605469 C 115.210938 37.429688 113.992188 38.363281 113.921875 39.589844 C 113.871094 41.832031 113.929688 44.074219 113.894531 46.320312 C 113.886719 47.082031 113.519531 47.910156 112.761719 48.195312 C 111.660156 48.695312 110.210938 47.867188 110.242188 46.617188 C 110.222656 43.214844 110.226562 39.808594 110.238281 36.40625 C 110.234375 35.15625 111.660156 34.328125 112.777344 34.808594 C 113.292969 34.972656 113.546875 35.46875 113.757812 35.929688 C 114.269531 35.292969 114.992188 34.835938 115.804688 34.691406 Z M 115.804688 34.691406 "/>
    <path style=" stroke:none;fill-rule:nonzero;fill:rgb(58.431373%,58.431373%,58.431373%);fill-opacity:1;" d="M 128.1875 34.570312 C 129.816406 34.46875 131.625 34.785156 132.863281 35.925781 C 133.824219 36.789062 133.367188 38.707031 131.996094 38.789062 C 130.742188 38.683594 129.699219 37.632812 128.398438 37.757812 C 127.949219 37.8125 127.441406 38.109375 127.425781 38.609375 C 127.335938 39.121094 127.851562 39.402344 128.230469 39.601562 C 129.769531 40.367188 131.597656 40.675781 132.828125 41.96875 C 133.960938 43.105469 133.972656 45.007812 133.132812 46.316406 C 132.386719 47.542969 130.984375 48.207031 129.605469 48.410156 C 128.121094 48.65625 126.601562 48.3125 125.238281 47.726562 C 124.570312 47.40625 123.90625 46.957031 123.554688 46.28125 C 123.101562 45.25 124.066406 43.925781 125.191406 44.078125 C 126.4375 44.144531 127.328125 45.308594 128.601562 45.292969 C 129.175781 45.339844 130.03125 45.277344 130.164062 44.574219 C 130.359375 43.898438 129.640625 43.511719 129.128906 43.289062 C 127.507812 42.613281 125.605469 42.183594 124.488281 40.707031 C 123.308594 39.09375 123.921875 36.636719 125.515625 35.527344 C 126.285156 34.949219 127.238281 34.675781 128.1875 34.570312 Z M 128.1875 34.570312 "/>
    <path style=" stroke:none;fill-rule:nonzero;fill:rgb(58.431373%,58.431373%,58.431373%);fill-opacity:1;" d="M 230.398438 35.777344 C 232.300781 34.148438 235.585938 34.03125 237.238281 36.078125 C 237.578125 34.730469 239.445312 34.199219 240.398438 35.214844 C 240.917969 35.972656 240.730469 36.941406 240.765625 37.800781 C 240.757812 40.738281 240.777344 43.675781 240.757812 46.613281 C 240.761719 47.273438 240.464844 48.027344 239.777344 48.222656 C 239.148438 48.371094 238.367188 48.429688 237.871094 47.941406 C 237.5625 47.664062 237.433594 47.257812 237.261719 46.894531 C 236.515625 47.71875 235.507812 48.335938 234.390625 48.457031 C 232.226562 48.703125 230.011719 47.550781 228.910156 45.6875 C 227.066406 42.59375 227.515625 38.09375 230.398438 35.777344 M 233.289062 38.125 C 232.109375 38.640625 231.589844 40.011719 231.503906 41.21875 C 231.410156 42.617188 231.929688 44.257812 233.265625 44.914062 C 234.367188 45.46875 235.757812 45.023438 236.414062 44.003906 C 237.386719 42.5 237.359375 40.34375 236.300781 38.890625 C 235.640625 37.957031 234.316406 37.632812 233.289062 38.125 Z M 233.289062 38.125 "/>
    <path style=" stroke:none;fill-rule:nonzero;fill:rgb(58.431373%,58.431373%,58.431373%);fill-opacity:1;" d="M 249.746094 36.359375 C 251.113281 35.003906 253.125 34.3125 255.035156 34.605469 C 258.257812 35.023438 260.855469 38.164062 260.695312 41.402344 C 260.722656 42.105469 260.105469 42.746094 259.398438 42.730469 C 256.710938 42.773438 254.023438 42.722656 251.335938 42.753906 C 251.550781 43.382812 251.792969 44.046875 252.324219 44.480469 C 253.429688 45.382812 255.050781 45.539062 256.34375 44.964844 C 257.125 44.664062 257.792969 44.105469 258.605469 43.886719 C 259.570312 43.644531 260.503906 44.601562 260.421875 45.546875 C 260.253906 46.457031 259.402344 47.011719 258.65625 47.4375 C 256.621094 48.46875 254.152344 48.855469 251.96875 48.070312 C 250.300781 47.519531 248.917969 46.207031 248.238281 44.597656 C 247.046875 41.882812 247.609375 38.445312 249.746094 36.359375 M 252.515625 38.132812 C 251.796875 38.632812 251.460938 39.476562 251.265625 40.296875 C 253.183594 40.320312 255.105469 40.304688 257.027344 40.304688 C 256.929688 39.757812 256.792969 39.199219 256.457031 38.742188 C 255.621094 37.488281 253.699219 37.230469 252.515625 38.132812 Z M 252.515625 38.132812 "/>
    <path style=" stroke:none;fill-rule:nonzero;fill:rgb(58.431373%,58.431373%,58.431373%);fill-opacity:1;" d="M 265.480469 35.851562 C 267.578125 33.789062 271.578125 34.175781 273.207031 36.644531 C 273.757812 37.519531 273.96875 38.570312 273.953125 39.597656 C 273.941406 41.871094 273.964844 44.148438 273.945312 46.425781 C 273.972656 47.382812 273.214844 48.34375 272.210938 48.320312 C 271.195312 48.457031 270.320312 47.550781 270.285156 46.578125 C 270.230469 44.257812 270.328125 41.929688 270.242188 39.609375 C 270.175781 38.234375 268.722656 37.335938 267.4375 37.636719 C 266.335938 37.8125 265.601562 38.902344 265.625 39.976562 C 265.609375 42.054688 265.625 44.132812 265.621094 46.214844 C 265.617188 46.753906 265.527344 47.335938 265.140625 47.746094 C 264.449219 48.566406 262.992188 48.515625 262.355469 47.652344 C 261.949219 47.128906 261.914062 46.4375 261.925781 45.800781 C 261.945312 42.734375 261.90625 39.664062 261.941406 36.601562 C 261.945312 35.609375 262.769531 34.625 263.804688 34.691406 C 264.570312 34.632812 265.207031 35.171875 265.480469 35.851562 Z M 265.480469 35.851562 "/>
    <path style=" stroke:none;fill-rule:nonzero;fill:rgb(58.431373%,58.431373%,58.431373%);fill-opacity:1;" d="M 97.097656 34.933594 C 97.839844 34.488281 98.902344 34.65625 99.433594 35.359375 C 99.8125 35.816406 99.886719 36.433594 99.882812 37.007812 C 99.882812 39.132812 99.871094 41.261719 99.882812 43.390625 C 99.894531 44.355469 100.691406 45.183594 101.609375 45.382812 C 102.894531 45.753906 104.421875 44.785156 104.488281 43.410156 C 104.523438 41.152344 104.476562 38.894531 104.507812 36.636719 C 104.5 35.882812 104.902344 35.101562 105.632812 34.824219 C 106.71875 34.320312 108.144531 35.175781 108.140625 36.390625 C 108.15625 38.792969 108.144531 41.199219 108.144531 43.601562 C 108.171875 45.324219 107.132812 47.007812 105.585938 47.765625 C 104.113281 48.472656 102.417969 48.625 100.8125 48.386719 C 99.5625 48.195312 98.292969 47.722656 97.4375 46.753906 C 96.46875 45.769531 96.167969 44.339844 96.164062 43 C 96.175781 40.929688 96.160156 38.859375 96.171875 36.792969 C 96.167969 36.074219 96.433594 35.292969 97.097656 34.933594 Z M 97.097656 34.933594 "/>
  </g>
</svg>