<?xml version="1.0" encoding="UTF-8" ?>
<!DOCTYPE svg PUBLIC "-//W3C//DTD SVG 1.1//EN" "http://www.w3.org/Graphics/SVG/1.1/DTD/svg11.dtd">
<svg width="615pt" height="616pt" viewBox="0 0 615 616" version="1.1" xmlns="http://www.w3.org/2000/svg">
<g id="#000000ff">
<path fill="#000000" opacity="1.00" d=" M 305.09 3.01 C 305.82 2.19 306.71 1.54 307.57 0.85 C 367.06 60.56 426.76 120.07 486.32 179.70 C 528.96 222.50 572.12 264.79 614.49 307.85 L 615.00 307.27 L 615.00 307.61 C 560.11 362.52 505.20 417.42 450.30 472.32 C 403.00 520.11 355.24 567.45 307.82 615.13 C 301.31 609.35 295.44 602.85 289.18 596.80 C 226.68 534.30 164.19 471.81 101.69 409.31 C 67.85 375.87 34.29 342.13 0.64 308.49 L 0.00 308.29 L 0.00 308.29 C 57.32 251.18 114.44 193.88 171.68 136.70 C 215.94 91.92 260.67 47.62 305.09 3.01 M 319.15 108.18 C 285.94 141.61 252.34 174.62 219.11 208.02 C 210.61 216.19 202.23 224.52 194.02 232.99 C 174.87 253.92 160.79 279.82 155.50 307.80 C 150.91 331.81 152.76 356.99 160.69 380.11 C 173.56 418.53 203.71 450.55 241.07 466.11 C 276.71 481.19 318.43 481.08 353.99 465.79 C 387.71 451.47 415.55 423.79 429.83 390.01 C 444.71 355.41 445.09 314.90 430.86 280.02 C 416.08 243.16 385.25 213.14 347.98 199.41 C 364.87 182.54 381.78 165.67 398.63 148.75 C 378.55 128.90 358.46 109.05 338.37 89.22 C 331.95 95.53 325.76 102.07 319.15 108.18 Z" />
<path fill="#000000" opacity="1.00" d=" M 291.90 275.12 C 305.75 273.90 319.93 277.65 331.27 285.72 C 344.19 294.75 353.22 309.19 355.58 324.80 C 358.08 340.58 353.69 357.33 343.72 369.83 C 334.36 381.89 320.13 390.09 304.96 391.99 C 289.29 394.17 272.81 389.60 260.50 379.66 C 249.38 370.91 241.60 358.02 239.13 344.08 C 236.16 328.11 240.31 311.02 250.25 298.17 C 260.10 285.11 275.61 276.56 291.90 275.12 Z" />
</g>
<g id="#00e4f9ff">
<path fill="#00e4f9" opacity="1.00" d=" M 319.15 108.18 C 325.76 102.07 331.95 95.53 338.37 89.22 C 358.46 109.05 378.55 128.90 398.63 148.75 C 381.78 165.67 364.87 182.54 347.98 199.41 C 385.25 213.14 416.08 243.16 430.86 280.02 C 445.09 314.90 444.71 355.41 429.83 390.01 C 415.55 423.79 387.71 451.47 353.99 465.79 C 318.43 481.08 276.71 481.19 241.07 466.11 C 203.71 450.55 173.56 418.53 160.69 380.11 C 152.76 356.99 150.91 331.81 155.50 307.80 C 160.79 279.82 174.87 253.92 194.02 232.99 C 202.23 224.52 210.61 216.19 219.11 208.02 C 252.34 174.62 285.94 141.61 319.15 108.18 M 291.90 275.12 C 275.61 276.56 260.10 285.11 250.25 298.17 C 240.31 311.02 236.16 328.11 239.13 344.08 C 241.60 358.02 249.38 370.91 260.50 379.66 C 272.81 389.60 289.29 394.17 304.96 391.99 C 320.13 390.09 334.36 381.89 343.72 369.83 C 353.69 357.33 358.08 340.58 355.58 324.80 C 353.22 309.19 344.19 294.75 331.27 285.72 C 319.93 277.65 305.75 273.90 291.90 275.12 Z" />
</g>
</svg>
