<?xml version="1.0" encoding="UTF-8" standalone="yes"?>
<svg xmlns="http://www.w3.org/2000/svg" xmlns:xlink="http://www.w3.org/1999/xlink" width="488px" height="106.66666666666666px" viewBox="0 0 366 80" version="1.1">
  <g id="surface1">
    <path style=" stroke:none;fill-rule:nonzero;fill:rgb(52.156863%,52.156863%,53.333333%);fill-opacity:1;" d="M 39.949219 0.183594 C 18.015625 0.183594 0.183594 18.0625 0.183594 40.011719 C 0.183594 61.972656 18.015625 79.828125 39.949219 79.828125 C 61.871094 79.828125 79.710938 61.972656 79.710938 40.011719 C 79.710938 18.0625 61.871094 0.183594 39.949219 0.183594 M 39.949219 75.464844 C 20.429688 75.464844 4.558594 59.554688 4.558594 40.011719 C 4.558594 20.472656 20.429688 4.574219 39.949219 4.574219 C 59.464844 4.574219 75.339844 20.472656 75.339844 40.011719 C 75.339844 59.554688 59.464844 75.464844 39.949219 75.464844 "/>
    <path style=" stroke:none;fill-rule:nonzero;fill:rgb(52.156863%,52.156863%,53.333333%);fill-opacity:1;" d="M 65.496094 31.820312 L 61.007812 43.253906 L 57.441406 32.273438 L 51.636719 32.273438 L 58.355469 49.128906 L 63.285156 49.128906 C 63.285156 49.128906 67.996094 39.707031 68.15625 39.347656 C 69.320312 36.757812 67.972656 33.28125 65.496094 31.820312 "/>
    <path style=" stroke:none;fill-rule:nonzero;fill:rgb(52.156863%,52.156863%,53.333333%);fill-opacity:1;" d="M 48.664062 45.519531 C 47.097656 45.519531 46.632812 44.140625 46.632812 42.972656 L 46.632812 36.34375 L 50.664062 36.34375 L 50.664062 32.273438 L 46.632812 32.273438 L 46.632812 27.171875 L 46.277344 27.171875 C 43.839844 27.171875 41.40625 29.074219 41.40625 32.273438 L 41.40625 42.6875 C 41.40625 43.78125 41.515625 44.695312 41.730469 45.566406 C 42.46875 48.476562 45.242188 49.738281 47.863281 49.738281 C 49.574219 49.738281 51.167969 49.230469 52.644531 48.21875 L 51.113281 44.644531 C 50.78125 44.882812 50.015625 45.519531 48.664062 45.519531 "/>
    <path style=" stroke:none;fill-rule:nonzero;fill:rgb(52.156863%,52.156863%,53.333333%);fill-opacity:1;" d="M 33.117188 31.882812 C 30.820312 31.882812 28.804688 32.703125 27.425781 34.21875 C 26.527344 32.972656 25.101562 31.882812 22.539062 31.882812 C 20.648438 31.882812 18.324219 33.105469 17.488281 34.527344 L 17.253906 31.898438 L 16.910156 31.898438 C 14.585938 31.953125 12.296875 33.765625 12.296875 36.328125 L 12.296875 49.113281 L 17.523438 49.113281 L 17.523438 40.074219 C 17.523438 38.980469 17.828125 38.101562 18.449219 37.417969 C 19.0625 36.714844 19.871094 36.367188 20.863281 36.367188 C 21.753906 36.367188 22.421875 36.652344 22.871094 37.195312 C 23.320312 37.75 23.542969 38.535156 23.542969 39.53125 L 23.542969 49.113281 L 28.585938 49.113281 L 28.585938 40.074219 C 28.585938 38.980469 28.882812 38.101562 29.496094 37.417969 C 30.101562 36.714844 30.90625 36.367188 31.921875 36.367188 C 32.820312 36.367188 33.488281 36.652344 33.9375 37.195312 C 34.386719 37.75 34.609375 38.535156 34.609375 39.53125 L 34.609375 49.113281 L 39.835938 49.113281 L 39.835938 38.699219 C 39.835938 36.601562 39.257812 34.941406 38.109375 33.710938 C 36.960938 32.492188 35.292969 31.882812 33.117188 31.882812 "/>
    <path style=" stroke:none;fill-rule:nonzero;fill:rgb(81.176471%,10.196078%,21.960784%);fill-opacity:1;" d="M 94.453125 8.085938 L 111.972656 8.085938 L 111.972656 56.097656 L 142.59375 56.097656 L 142.59375 71.484375 L 94.453125 71.484375 Z M 94.453125 8.085938 "/>
    <path style=" stroke:none;fill-rule:nonzero;fill:rgb(81.176471%,10.196078%,21.960784%);fill-opacity:1;" d="M 146.035156 8.085938 L 196.886719 8.085938 L 196.886719 23.035156 L 163.371094 23.035156 L 163.371094 32.636719 L 191.980469 32.636719 L 191.980469 46.496094 L 163.371094 46.496094 L 163.371094 56.546875 L 197.335938 56.546875 L 197.335938 71.484375 L 146.035156 71.484375 Z M 146.035156 8.085938 "/>
    <path style=" stroke:none;fill-rule:nonzero;fill:rgb(81.176471%,10.196078%,21.960784%);fill-opacity:1;" d="M 200.882812 8.085938 L 251.46875 8.085938 L 251.46875 23.492188 L 218.410156 23.492188 L 218.410156 34.269531 L 246.5625 34.269531 L 246.5625 48.84375 L 218.410156 48.84375 L 218.410156 71.484375 L 200.882812 71.484375 Z M 200.882812 8.085938 "/>
    <path style=" stroke:none;fill-rule:nonzero;fill:rgb(81.176471%,10.196078%,21.960784%);fill-opacity:1;" d="M 255.4375 8.085938 L 306.027344 8.085938 L 306.027344 23.492188 L 272.964844 23.492188 L 272.964844 34.269531 L 301.117188 34.269531 L 301.117188 48.84375 L 272.964844 48.84375 L 272.964844 71.484375 L 255.4375 71.484375 Z M 255.4375 8.085938 "/>
    <path style=" stroke:none;fill-rule:nonzero;fill:rgb(81.176471%,10.196078%,21.960784%);fill-opacity:1;" d="M 342.777344 61.003906 L 347.027344 71.9375 L 365.816406 71.9375 L 338.898438 8.085938 L 322.011719 8.085938 L 295.09375 71.9375 L 313.519531 71.9375 L 317.828125 61.003906 Z M 336.035156 43.074219 L 339.492188 53.726562 L 330.460938 47.148438 L 321.421875 53.726562 L 324.875 43.074219 L 315.835938 36.507812 L 327.011719 36.507812 L 330.460938 25.84375 L 333.914062 36.507812 L 345.078125 36.507812 Z M 336.035156 43.074219 "/>
  </g>
</svg>