<?xml version="1.0" encoding="UTF-8" standalone="no"?>
<!-- Created with Inkscape (http://www.inkscape.org/) -->

<svg
   xmlns:dc="http://purl.org/dc/elements/1.1/"
   xmlns:cc="http://creativecommons.org/ns#"
   xmlns:rdf="http://www.w3.org/1999/02/22-rdf-syntax-ns#"
   xmlns:svg="http://www.w3.org/2000/svg"
   xmlns="http://www.w3.org/2000/svg"
   xmlns:sodipodi="http://sodipodi.sourceforge.net/DTD/sodipodi-0.dtd"
   xmlns:inkscape="http://www.inkscape.org/namespaces/inkscape"
   width="1000"
   height="218.03566"
   id="svg2"
   version="1.1"
   inkscape:version="0.48.2 r9819"
   sodipodi:docname="A.svg">
  <defs
     id="defs4">
    <clipPath
       clipPathUnits="userSpaceOnUse"
       id="clipPath3098">
      <path
         inkscape:connector-curvature="0"
         d="m 27.25,603.25 1024,0 0,-576 -1024,0 0,576 z"
         id="path3100" />
    </clipPath>
    <clipPath
       clipPathUnits="userSpaceOnUse"
       id="clipPath3497">
      <path
         inkscape:connector-curvature="0"
         d="m 27.25,603.25 1024,0 0,-576 -1024,0 0,576 z"
         id="path3499" />
    </clipPath>
    <clipPath
       clipPathUnits="userSpaceOnUse"
       id="clipPath3920">
      <path
         inkscape:connector-curvature="0"
         d="m 27.25,603.25 1024,0 0,-576 -1024,0 0,576 z"
         id="path3922" />
    </clipPath>
    <clipPath
       clipPathUnits="userSpaceOnUse"
       id="clipPath4335">
      <path
         inkscape:connector-curvature="0"
         d="m 27.25,603.25 1024,0 0,-576 -1024,0 0,576 z"
         id="path4337" />
    </clipPath>
    <clipPath
       clipPathUnits="userSpaceOnUse"
       id="clipPath4764">
      <path
         inkscape:connector-curvature="0"
         d="m 27.25,603.25 1024,0 0,-576 -1024,0 0,576 z"
         id="path4766" />
    </clipPath>
    <clipPath
       clipPathUnits="userSpaceOnUse"
       id="clipPath5207">
      <path
         inkscape:connector-curvature="0"
         d="m 27.25,603.25 1024,0 0,-576 -1024,0 0,576 z"
         id="path5209" />
    </clipPath>
    <clipPath
       clipPathUnits="userSpaceOnUse"
       id="clipPath5630">
      <path
         inkscape:connector-curvature="0"
         d="m 27.25,603.25 1024,0 0,-576 -1024,0 0,576 z"
         id="path5632" />
    </clipPath>
    <clipPath
       clipPathUnits="userSpaceOnUse"
       id="clipPath6059">
      <path
         inkscape:connector-curvature="0"
         d="m 27.25,603.25 1024,0 0,-576 -1024,0 0,576 z"
         id="path6061" />
    </clipPath>
  </defs>
  <sodipodi:namedview
     id="base"
     pagecolor="#ffffff"
     bordercolor="#666666"
     borderopacity="1.0"
     inkscape:pageopacity="0.0"
     inkscape:pageshadow="2"
     inkscape:zoom="0.49497475"
     inkscape:cx="1257.7364"
     inkscape:cy="-182.44052"
     inkscape:document-units="px"
     inkscape:current-layer="layer1"
     showgrid="false"
     fit-margin-left="0.5"
     fit-margin-bottom="0.5"
     fit-margin-top="0.5"
     fit-margin-right="0.5"
     inkscape:window-width="1920"
     inkscape:window-height="1028"
     inkscape:window-x="-8"
     inkscape:window-y="-8"
     inkscape:window-maximized="1">
    <inkscape:grid
       type="xygrid"
       id="grid2996"
       empspacing="5"
       visible="true"
       enabled="true"
       snapvisiblegridlinesonly="true" />
  </sodipodi:namedview>
  <metadata
     id="metadata7">
    <rdf:RDF>
      <cc:Work
         rdf:about="">
        <dc:format>image/svg+xml</dc:format>
        <dc:type
           rdf:resource="http://purl.org/dc/dcmitype/StillImage" />
        <dc:title></dc:title>
      </cc:Work>
    </rdf:RDF>
  </metadata>
  <g
     inkscape:label="Layer 1"
     inkscape:groupmode="layer"
     id="layer1"
     transform="translate(416.68305,-207.76051)">
    <g
       transform="matrix(1.2204396,0,0,-1.2204396,-574.80554,701.52192)"
       id="g6055">
      <g
         id="g6057"
         clip-path="url(#clipPath6059)">
        <g
           id="g6063"
           transform="translate(218.9976,404.167)">
          <path
             inkscape:connector-curvature="0"
             d="m 0,0 c -49.1,0 -89.026,-39.918 -89.026,-88.928 0,-49.037 39.926,-88.906 89.026,-88.906 49.08,0 89.018,39.869 89.018,88.906 C 89.018,-39.918 49.08,0 0,0 m 0,-168.088 c -43.697,0 -79.231,35.526 -79.231,79.16 0,43.629 35.534,79.121 79.231,79.121 43.688,0 79.232,-35.492 79.232,-79.121 0,-43.634 -35.544,-79.16 -79.232,-79.16"
             style="fill:#858588;fill-opacity:1;fill-rule:nonzero;stroke:none"
             id="path6065" />
        </g>
        <g
           id="g6067"
           transform="translate(276.1909,333.5303)">
          <path
             inkscape:connector-curvature="0"
             d="m 0,0 -10.049,-25.535 -7.982,24.517 -13,0 15.045,-37.63 11.037,0 c 0,0 10.541,21.035 10.904,21.841 C 8.564,-11.023 5.543,-3.264 0,0"
             style="fill:#858588;fill-opacity:1;fill-rule:nonzero;stroke:none"
             id="path6069" />
        </g>
        <g
           id="g6071"
           transform="translate(238.5073,302.9365)">
          <path
             inkscape:connector-curvature="0"
             d="m 0,0 c -3.506,0 -4.543,3.082 -4.543,5.691 l 0,14.805 9.02,0 0,9.08 -9.02,0 0,11.399 -0.797,0 c -5.461,0 -10.904,-4.252 -10.904,-11.399 l 0,-23.248 c 0,-2.439 0.24,-4.484 0.726,-6.43 1.653,-6.5 7.86,-9.31 13.726,-9.31 3.828,0 7.396,1.127 10.702,3.385 L 5.484,1.955 C 4.738,1.43 3.023,0 0,0"
             style="fill:#858588;fill-opacity:1;fill-rule:nonzero;stroke:none"
             id="path6073" />
        </g>
        <g
           id="g6075"
           transform="translate(203.7007,333.3896)">
          <path
             inkscape:connector-curvature="0"
             d="M 0,0 C -5.14,0 -9.655,-1.832 -12.739,-5.219 -14.754,-2.438 -17.939,0 -23.684,0 -27.916,0 -33.117,-2.73 -34.99,-5.904 l -0.524,5.865 -0.767,0 c -5.2,-0.121 -10.328,-4.162 -10.328,-9.887 l 0,-28.551 11.699,0 0,20.186 c 0,2.439 0.683,4.404 2.076,5.928 1.371,1.572 3.185,2.347 5.402,2.347 1.995,0 3.487,-0.634 4.496,-1.845 1.004,-1.239 1.5,-2.993 1.5,-5.219 l 0,-21.397 11.297,0 0,20.186 c 0,2.439 0.665,4.404 2.037,5.928 1.35,1.572 3.154,2.347 5.431,2.347 2.005,0 3.507,-0.634 4.505,-1.845 1.006,-1.239 1.512,-2.993 1.512,-5.219 l 0,-21.397 11.7,0 0,23.26 c 0,4.676 -1.3,8.387 -3.872,11.137 C 8.606,-1.359 4.877,0 0,0"
             style="fill:#858588;fill-opacity:1;fill-rule:nonzero;stroke:none"
             id="path6077" />
        </g>
        <g
           id="g6079"
           transform="translate(341.021,386.5205)">
          <path
             inkscape:connector-curvature="0"
             d="m 0,0 39.221,0 0,-107.197 68.55,0 0,-34.356 L 0,-141.553 0,0 z"
             style="fill:#cf1a38;fill-opacity:1;fill-rule:nonzero;stroke:none"
             id="path6081" />
        </g>
        <g
           id="g6083"
           transform="translate(456.4917,386.5205)">
          <path
             inkscape:connector-curvature="0"
             d="m 0,0 113.848,0 0,-33.377 -75.03,0 0,-21.436 64.046,0 0,-30.949 -64.046,0 0,-22.443 76.038,0 0,-33.348 L 0,-141.553 0,0 z"
             style="fill:#cf1a38;fill-opacity:1;fill-rule:nonzero;stroke:none"
             id="path6085" />
        </g>
        <g
           id="g6087"
           transform="translate(579.2891,386.5205)">
          <path
             inkscape:connector-curvature="0"
             d="m 0,0 113.244,0 0,-34.395 -74.01,0 0,-24.068 63.026,0 0,-32.539 -63.026,0 0,-50.551 -39.234,0 L 0,0 z"
             style="fill:#cf1a38;fill-opacity:1;fill-rule:nonzero;stroke:none"
             id="path6089" />
        </g>
        <g
           id="g6091"
           transform="translate(701.4219,386.5205)">
          <path
             inkscape:connector-curvature="0"
             d="m 0,0 113.254,0 0,-34.395 -74.022,0 0,-24.068 63.028,0 0,-32.539 -63.028,0 0,-50.551 -39.232,0 L 0,0 z"
             style="fill:#cf1a38;fill-opacity:1;fill-rule:nonzero;stroke:none"
             id="path6093" />
        </g>
        <g
           id="g6095"
           transform="translate(896.9531,268.3682)">
          <path
             inkscape:connector-curvature="0"
             d="m 0,0 9.51,-24.416 42.066,0 -60.265,142.568 -37.803,0 -60.264,-142.568 41.248,0 L -55.854,0 0,0 z m -15.098,40.029 7.739,-23.783 -20.217,14.693 -20.237,-14.693 7.731,23.783 -20.236,14.662 25.023,0 7.719,23.815 7.73,-23.815 24.992,0 -20.244,-14.662 z"
             style="fill:#cf1a38;fill-opacity:1;fill-rule:nonzero;stroke:none"
             id="path6097" />
        </g>
      </g>
    </g>
  </g>
</svg>
