<?xml version="1.0" encoding="UTF-8" standalone="yes"?>
<svg xmlns="http://www.w3.org/2000/svg" xmlns:xlink="http://www.w3.org/1999/xlink" width="277.3333333333333px" height="106.66666666666666px" viewBox="0 0 208 80" version="1.1">
  <g id="surface1">
    <path style=" stroke:none;fill-rule:nonzero;fill:rgb(0%,47.45098%,74.901961%);fill-opacity:1;" d="M 176.167969 6.734375 C 177.554688 6.339844 178.964844 6.007812 180.347656 5.589844 C 182.046875 7.257812 183.699219 8.96875 185.414062 10.625 C 184.886719 12.921875 184.167969 15.171875 183.660156 17.472656 C 181.171875 18.195312 178.660156 18.824219 176.164062 19.511719 C 175.800781 19.589844 175.488281 19.839844 175.386719 20.203125 C 174.675781 22.738281 174.070312 25.304688 173.3125 27.824219 C 171.570312 28.195312 169.867188 28.742188 168.136719 29.167969 C 167.558594 29.285156 167.003906 29.5625 166.414062 29.597656 C 164.726562 27.964844 163.097656 26.269531 161.414062 24.628906 C 161.976562 22.300781 162.667969 20 163.253906 17.671875 C 165.714844 17.039062 168.167969 16.363281 170.625 15.710938 C 171.042969 15.621094 171.40625 15.300781 171.523438 14.882812 C 172.195312 12.390625 172.871094 9.902344 173.535156 7.410156 C 174.417969 7.210938 175.285156 6.945312 176.167969 6.734375 Z M 176.167969 6.734375 "/>
    <path style=" stroke:none;fill-rule:nonzero;fill:rgb(97.647059%,63.529412%,15.294118%);fill-opacity:1;" d="M 192.582031 9.828125 C 193.203125 9.699219 193.796875 9.414062 194.433594 9.386719 C 196.058594 10.976562 197.65625 12.601562 199.273438 14.207031 C 199.5 14.351562 199.402344 14.621094 199.355469 14.832031 C 198.789062 16.847656 198.253906 18.875 197.71875 20.902344 C 197.621094 21.4375 197.269531 21.992188 197.5 22.539062 C 197.796875 23.105469 198.3125 23.515625 198.753906 23.96875 C 200.238281 25.46875 201.75 26.941406 203.21875 28.453125 C 202.566406 30.707031 201.984375 32.980469 201.390625 35.253906 C 199.203125 35.890625 196.976562 36.402344 194.796875 37.058594 C 194.707031 37.0625 194.535156 37.070312 194.445312 37.074219 C 192.695312 35.308594 190.921875 33.558594 189.167969 31.792969 C 188.964844 31.574219 188.707031 31.410156 188.429688 31.308594 C 188.046875 31.25 187.691406 31.4375 187.335938 31.53125 C 185.039062 32.144531 182.742188 32.769531 180.441406 33.367188 C 178.777344 31.6875 177.097656 30.015625 175.421875 28.347656 C 175.953125 26.238281 176.558594 24.152344 177.097656 22.046875 C 177.171875 21.789062 177.171875 21.410156 177.511719 21.363281 C 179.917969 20.707031 182.335938 20.085938 184.742188 19.425781 C 185.136719 19.335938 185.414062 19.007812 185.542969 18.636719 C 186.167969 16.164062 186.882812 13.707031 187.503906 11.230469 C 189.167969 10.675781 190.894531 10.320312 192.582031 9.828125 Z M 192.582031 9.828125 "/>
    <path style=" stroke:none;fill-rule:nonzero;fill:rgb(35.686275%,70.588235%,32.156863%);fill-opacity:1;" d="M 167.039062 31.65625 C 169.316406 31.042969 171.621094 30.5 173.867188 29.796875 C 175.675781 31.625 177.5 33.433594 179.308594 35.257812 C 179.816406 35.867188 180.679688 35.550781 181.320312 35.355469 C 183.527344 34.792969 185.722656 34.15625 187.929688 33.613281 C 189.617188 35.257812 191.257812 36.960938 192.945312 38.609375 C 192.359375 40.925781 191.722656 43.230469 191.101562 45.535156 C 188.824219 46.125 186.542969 46.71875 184.289062 47.378906 C 182.273438 45.582031 180.464844 43.550781 178.492188 41.703125 C 178.195312 41.460938 177.808594 41.609375 177.476562 41.671875 C 175.269531 42.261719 173.0625 42.859375 170.851562 43.449219 C 170.585938 43.488281 170.230469 43.695312 170.042969 43.40625 C 168.488281 41.855469 166.9375 40.308594 165.382812 38.757812 C 165.097656 38.574219 165.257812 38.226562 165.316406 37.96875 C 165.910156 35.867188 166.425781 33.746094 167.039062 31.65625 Z M 167.039062 31.65625 "/>
    <path style=" stroke:none;fill-rule:nonzero;fill:rgb(13.72549%,12.156863%,12.54902%);fill-opacity:1;" d="M 4.804688 40.628906 C 6.898438 40.628906 8.996094 40.628906 11.089844 40.628906 C 11.09375 49.171875 11.082031 57.710938 11.097656 66.25 C 11.0625 66.4375 11.179688 66.851562 10.871094 66.839844 C 8.847656 66.875 6.824219 66.839844 4.804688 66.851562 C 4.804688 58.113281 4.804688 49.371094 4.804688 40.628906 Z M 4.804688 40.628906 "/>
    <path style=" stroke:none;fill-rule:nonzero;fill:rgb(13.72549%,12.156863%,12.54902%);fill-opacity:1;" d="M 14.558594 40.628906 C 16.65625 40.628906 18.753906 40.628906 20.847656 40.628906 C 20.839844 42.226562 20.875 43.824219 20.828125 45.421875 C 18.742188 45.492188 16.648438 45.433594 14.558594 45.453125 C 14.554688 43.84375 14.554688 42.238281 14.558594 40.628906 Z M 14.558594 40.628906 "/>
    <path style=" stroke:none;fill-rule:nonzero;fill:rgb(13.72549%,12.156863%,12.54902%);fill-opacity:1;" d="M 26.75 42.457031 C 27.992188 40.992188 30.023438 40.703125 31.832031 40.625 C 32.476562 40.628906 33.121094 40.636719 33.761719 40.625 C 34.429688 40.605469 35.078125 40.789062 35.746094 40.734375 C 35.75 42.207031 35.75 43.675781 35.746094 45.148438 C 34.566406 45.109375 33.234375 44.753906 32.175781 45.460938 C 31.558594 46.039062 31.707031 46.996094 31.65625 47.761719 C 32.917969 47.757812 34.175781 47.761719 35.433594 47.757812 C 35.4375 49.121094 35.4375 50.484375 35.433594 51.847656 C 34.175781 51.847656 32.921875 51.855469 31.664062 51.847656 C 31.660156 56.847656 31.664062 61.851562 31.660156 66.855469 C 29.59375 66.851562 27.53125 66.851562 25.464844 66.855469 C 25.460938 61.851562 25.46875 56.847656 25.460938 51.84375 C 24.449219 51.855469 23.4375 51.847656 22.425781 51.847656 C 22.425781 50.488281 22.425781 49.125 22.425781 47.761719 C 23.4375 47.761719 24.453125 47.757812 25.464844 47.761719 C 25.394531 45.933594 25.613281 43.957031 26.75 42.457031 Z M 26.75 42.457031 "/>
    <path style=" stroke:none;fill-rule:nonzero;fill:rgb(13.72549%,12.156863%,12.54902%);fill-opacity:1;" d="M 104.050781 40.632812 C 105.097656 40.628906 106.148438 40.628906 107.199219 40.628906 C 107.203125 49.371094 107.199219 58.113281 107.195312 66.855469 C 106.148438 66.851562 105.097656 66.847656 104.054688 66.855469 C 104.046875 58.113281 104.054688 49.371094 104.050781 40.632812 Z M 104.050781 40.632812 "/>
    <path style=" stroke:none;fill-rule:nonzero;fill:rgb(13.72549%,12.156863%,12.54902%);fill-opacity:1;" d="M 131.023438 41.992188 C 133.46875 41.996094 135.914062 41.992188 138.363281 41.992188 C 138.367188 43.914062 138.359375 45.839844 138.363281 47.761719 C 141.671875 47.75 144.980469 47.773438 148.289062 47.75 C 148.972656 50.335938 149.609375 52.929688 150.292969 55.515625 C 150.585938 56.816406 151 58.097656 151.238281 59.410156 C 151.660156 58.410156 151.78125 57.316406 152.113281 56.285156 C 152.855469 53.441406 153.574219 50.59375 154.332031 47.753906 C 156.816406 47.769531 159.300781 47.753906 161.785156 47.761719 C 159.617188 54.109375 157.582031 60.503906 155.433594 66.859375 C 152.578125 66.851562 149.722656 66.839844 146.867188 66.863281 C 146.132812 64.714844 145.460938 62.539062 144.722656 60.390625 C 143.894531 57.667969 142.910156 54.996094 142.089844 52.269531 C 140.847656 52.273438 139.605469 52.273438 138.363281 52.273438 C 138.367188 54.742188 138.355469 57.21875 138.371094 59.691406 C 138.347656 60.277344 138.652344 60.785156 139.09375 61.144531 C 140.09375 61.550781 141.203125 61.429688 142.242188 61.269531 C 142.230469 63.085938 142.269531 64.902344 142.226562 66.714844 C 142.035156 66.957031 141.695312 66.816406 141.4375 66.851562 C 139.40625 66.945312 137.363281 67.230469 135.335938 66.925781 C 134.257812 66.734375 133.132812 66.371094 132.371094 65.539062 C 131.398438 64.609375 131.125 63.210938 131.023438 61.921875 C 131.015625 58.707031 131.023438 55.488281 131.019531 52.273438 C 129.933594 52.273438 128.847656 52.273438 127.761719 52.273438 C 127.765625 50.769531 127.761719 49.261719 127.765625 47.757812 C 128.847656 47.761719 129.933594 47.757812 131.019531 47.761719 C 131.023438 45.835938 131.015625 43.914062 131.023438 41.992188 Z M 131.023438 41.992188 "/>
    <path style=" stroke:none;fill-rule:nonzero;fill:rgb(13.72549%,12.156863%,12.54902%);fill-opacity:1;" d="M 76.566406 42.207031 C 77.609375 42.207031 78.660156 42.207031 79.707031 42.207031 C 79.707031 44.089844 79.707031 45.976562 79.707031 47.859375 C 80.96875 47.859375 82.230469 47.863281 83.492188 47.859375 C 83.496094 48.769531 83.492188 49.679688 83.492188 50.589844 C 82.230469 50.589844 80.96875 50.59375 79.707031 50.589844 C 79.703125 54.636719 79.710938 58.679688 79.703125 62.730469 C 79.671875 63.273438 80.03125 63.886719 80.617188 63.941406 C 81.566406 64.09375 82.535156 63.980469 83.492188 64.015625 C 83.492188 64.960938 83.496094 65.90625 83.492188 66.855469 C 82.058594 66.808594 80.613281 66.96875 79.195312 66.699219 C 78.328125 66.609375 77.460938 66.160156 77.03125 65.378906 C 76.765625 64.792969 76.574219 64.160156 76.5625 63.511719 C 76.5625 59.203125 76.566406 54.894531 76.5625 50.585938 C 75.476562 50.59375 74.390625 50.589844 73.308594 50.589844 C 73.308594 49.679688 73.304688 48.769531 73.308594 47.859375 C 74.394531 47.859375 75.480469 47.867188 76.566406 47.855469 C 76.5625 45.972656 76.5625 44.089844 76.566406 42.207031 Z M 76.566406 42.207031 "/>
    <path style=" stroke:none;fill-rule:nonzero;fill:rgb(13.72549%,12.156863%,12.54902%);fill-opacity:1;" d="M 42.132812 47.882812 C 44.796875 46.90625 47.839844 46.992188 50.4375 48.132812 C 52.175781 48.949219 53.609375 50.34375 54.511719 52.039062 C 55.582031 54.128906 56.007812 56.527344 55.855469 58.863281 C 51.210938 58.894531 46.570312 58.867188 41.929688 58.875 C 41.894531 60.421875 42.691406 62.085938 44.160156 62.71875 C 44.894531 63.109375 45.75 63.09375 46.558594 63.070312 C 47.855469 63.042969 49.136719 62.285156 49.667969 61.078125 C 51.617188 61.089844 53.566406 61.074219 55.515625 61.089844 C 55.070312 62.925781 53.9375 64.597656 52.335938 65.621094 C 50.15625 67.125 47.394531 67.542969 44.796875 67.332031 C 42.460938 67.132812 40.121094 66.28125 38.40625 64.636719 C 36.75 63.003906 35.835938 60.714844 35.664062 58.414062 C 35.628906 57.070312 35.582031 55.695312 36.011719 54.402344 C 36.835938 51.402344 39.21875 48.933594 42.132812 47.882812 M 43.765625 52.085938 C 42.671875 52.785156 42.078125 54.0625 41.910156 55.3125 C 44.476562 55.320312 47.042969 55.316406 49.609375 55.316406 C 49.484375 54.113281 49 52.886719 47.984375 52.164062 C 46.785156 51.238281 45.007812 51.246094 43.765625 52.085938 Z M 43.765625 52.085938 "/>
    <path style=" stroke:none;fill-rule:nonzero;fill:rgb(13.72549%,12.156863%,12.54902%);fill-opacity:1;" d="M 58.292969 49.820312 C 59.785156 48.0625 62.179688 47.390625 64.410156 47.40625 C 66.246094 47.410156 68.167969 47.636719 69.753906 48.636719 C 71.378906 49.628906 72.121094 51.597656 72.171875 53.425781 C 71.148438 53.433594 70.125 53.417969 69.101562 53.433594 C 68.914062 52.589844 68.632812 51.6875 67.910156 51.148438 C 66.566406 50.109375 64.742188 50.058594 63.132812 50.292969 C 62.570312 50.460938 61.964844 50.566406 61.496094 50.941406 C 60.800781 51.441406 60.394531 52.398438 60.738281 53.222656 C 61.007812 54.070312 61.871094 54.503906 62.640625 54.808594 C 65.335938 55.769531 68.34375 55.824219 70.847656 57.308594 C 72.25 58.074219 73.097656 59.691406 73 61.277344 C 73.078125 62.910156 72.351562 64.597656 71.011719 65.5625 C 69.640625 66.625 67.898438 67.035156 66.210938 67.234375 C 63.964844 67.378906 61.570312 67.1875 59.617188 65.980469 C 57.855469 64.941406 56.90625 62.851562 56.894531 60.867188 L 56.964844 60.785156 C 57.988281 60.742188 59.011719 60.785156 60.039062 60.769531 C 60.046875 61.949219 60.628906 63.171875 61.707031 63.722656 C 63.109375 64.578125 64.808594 64.460938 66.378906 64.425781 C 67.375 64.253906 68.472656 64.039062 69.140625 63.203125 C 69.707031 62.613281 69.726562 61.738281 69.585938 60.980469 C 69.226562 59.859375 68.0625 59.390625 67.050781 59.027344 C 64.382812 58.183594 61.386719 58.117188 59.035156 56.460938 C 56.953125 54.988281 56.722656 51.734375 58.292969 49.820312 Z M 58.292969 49.820312 "/>
    <path style=" stroke:none;fill-rule:nonzero;fill:rgb(13.72549%,12.156863%,12.54902%);fill-opacity:1;" d="M 111.265625 51.105469 C 112.898438 48.636719 115.921875 47.191406 118.867188 47.4375 C 121.234375 47.421875 123.5625 48.644531 124.917969 50.582031 C 126.484375 52.796875 127.019531 55.574219 127.027344 58.246094 C 122.273438 58.246094 117.511719 58.253906 112.757812 58.242188 C 112.753906 59.804688 113.132812 61.429688 114.164062 62.644531 C 114.828125 63.421875 115.753906 63.929688 116.71875 64.238281 C 117.625 64.535156 118.585938 64.425781 119.523438 64.4375 C 120.605469 64.328125 121.664062 63.851562 122.433594 63.070312 C 123.042969 62.429688 123.355469 61.589844 123.609375 60.757812 C 124.613281 60.78125 125.621094 60.765625 126.628906 60.769531 C 126.398438 62.699219 125.335938 64.546875 123.765625 65.703125 C 122.121094 66.984375 119.953125 67.355469 117.917969 67.265625 C 115.753906 67.140625 113.539062 66.371094 112.058594 64.738281 C 110.503906 63.058594 109.765625 60.777344 109.527344 58.539062 C 109.226562 55.972656 109.777344 53.246094 111.265625 51.105469 M 115.304688 50.988281 C 113.753906 51.949219 112.929688 53.757812 112.765625 55.527344 C 116.398438 55.519531 120.035156 55.523438 123.667969 55.527344 C 123.527344 54.40625 123.230469 53.277344 122.539062 52.363281 C 120.980469 50.101562 117.585938 49.511719 115.304688 50.988281 Z M 115.304688 50.988281 "/>
    <path style=" stroke:none;fill-rule:nonzero;fill:rgb(13.72549%,12.156863%,12.54902%);fill-opacity:1;" d="M 14.558594 47.761719 C 16.65625 47.753906 18.753906 47.765625 20.847656 47.757812 C 20.847656 54.027344 20.855469 60.300781 20.847656 66.570312 C 20.898438 66.890625 20.523438 66.847656 20.320312 66.855469 C 18.398438 66.847656 16.476562 66.855469 14.558594 66.851562 C 14.554688 60.488281 14.554688 54.125 14.558594 47.761719 Z M 14.558594 47.761719 "/>
    <path style=" stroke:none;fill-rule:nonzero;fill:rgb(13.72549%,12.156863%,12.54902%);fill-opacity:1;" d="M 84.601562 47.867188 C 85.769531 47.855469 86.941406 47.863281 88.113281 47.863281 C 90.019531 53 91.769531 58.203125 93.695312 63.335938 C 95.53125 58.195312 97.214844 53 99.046875 47.855469 C 100.15625 47.859375 101.261719 47.875 102.367188 47.847656 C 99.929688 54.195312 97.488281 60.542969 95.054688 66.894531 C 94.496094 68.304688 94.003906 69.742188 93.367188 71.117188 C 92.839844 72.171875 92.164062 73.222656 91.125 73.835938 C 89.691406 74.597656 87.933594 74.558594 86.414062 74.085938 C 86.441406 73.125 86.398438 72.160156 86.441406 71.203125 C 87.484375 71.597656 88.773438 71.902344 89.753906 71.195312 C 90.511719 70.667969 90.914062 69.820312 91.195312 68.96875 C 91.496094 68.210938 91.753906 67.441406 92.113281 66.707031 C 89.574219 60.441406 87.082031 54.15625 84.601562 47.867188 Z M 84.601562 47.867188 "/>
  </g>
</svg>