<?xml version="1.0" encoding="UTF-8" standalone="yes"?>
<svg xmlns="http://www.w3.org/2000/svg" xmlns:xlink="http://www.w3.org/1999/xlink" width="88px" height="105.33333333333333px" viewBox="0 0 66 79" version="1.1">
  <g id="surface1">
    <path style=" stroke:none;fill-rule:nonzero;fill:rgb(3.529412%,74.117647%,33.72549%);fill-opacity:1;" d="M 31.402344 0 L 34.222656 0 C 41.082031 0.285156 47.855469 2.667969 53.265625 6.871094 C 59.023438 11.292969 63.238281 17.644531 64.980469 24.652344 C 66.832031 31.902344 66.058594 39.78125 62.804688 46.535156 C 60.90625 50.605469 58.019531 54.144531 54.734375 57.207031 C 47.464844 64.34375 40.242188 71.527344 32.988281 78.679688 C 26.242188 72.007812 19.476562 65.347656 12.730469 58.675781 C 11.367188 57.308594 9.925781 56.023438 8.640625 54.585938 C 3.417969 49.023438 0.378906 41.59375 0 34.027344 L 0 31.082031 C 0.144531 29.441406 0.296875 27.796875 0.636719 26.179688 C 2.066406 18.96875 6.078125 12.308594 11.785156 7.605469 C 17.246094 3.023438 24.265625 0.394531 31.402344 0 M 25.347656 5.453125 C 18.839844 7.195312 13.027344 11.316406 9.25 16.835938 C 5.289062 22.539062 3.605469 29.714844 4.554688 36.5625 C 5.359375 42.648438 8.257812 48.433594 12.652344 52.769531 C 19.433594 59.460938 26.191406 66.167969 32.984375 72.84375 C 39.699219 66.226562 46.394531 59.585938 53.113281 52.972656 C 56.710938 49.464844 59.359375 45.015625 60.667969 40.1875 C 62.386719 33.976562 61.867188 27.191406 59.222656 21.3125 C 56.507812 15.199219 51.523438 10.113281 45.433594 7.234375 C 39.246094 4.269531 31.96875 3.636719 25.347656 5.453125 Z M 25.347656 5.453125 "/>
    <path style=" stroke:none;fill-rule:nonzero;fill:rgb(3.529412%,74.117647%,33.72549%);fill-opacity:1;" d="M 16.226562 15.789062 C 20.394531 11.761719 26.09375 9.34375 31.917969 9.113281 C 37.902344 8.828125 43.96875 10.851562 48.53125 14.699219 C 52.988281 18.390625 56.011719 23.722656 56.832031 29.414062 C 57.964844 36.621094 55.476562 44.261719 50.308594 49.46875 C 45.199219 54.542969 40.058594 59.585938 34.941406 64.652344 C 34.273438 65.285156 33.667969 65.984375 32.933594 66.546875 C 27.984375 61.605469 22.984375 56.710938 18.019531 51.785156 C 16.539062 50.296875 14.964844 48.886719 13.714844 47.199219 C 10.105469 42.503906 8.402344 36.445312 9.003906 30.585938 C 9.523438 25.011719 12.140625 19.664062 16.226562 15.789062 M 18.933594 21.992188 C 18.859375 22.304688 18.78125 22.625 18.707031 22.941406 C 19.390625 23.074219 20.195312 23.015625 20.75 23.496094 C 21.265625 23.992188 21.058594 24.765625 20.933594 25.375 C 19.863281 29.996094 18.792969 34.617188 17.722656 39.238281 C 17.550781 40.050781 17.359375 40.910156 17.574219 41.734375 C 17.824219 42.644531 18.714844 43.246094 19.625 43.382812 C 21.109375 43.625 22.578125 43.109375 23.945312 42.582031 C 24.503906 42.480469 24.359375 41.777344 24.550781 41.402344 C 23.574219 41.605469 22.402344 41.984375 21.511719 41.355469 C 20.976562 40.730469 21.257812 39.84375 21.382812 39.121094 C 22.652344 33.5625 23.957031 28.011719 25.242188 22.457031 C 25.273438 22.257812 25.324219 21.863281 25.351562 21.664062 C 23.210938 21.742188 21.074219 21.878906 18.933594 21.992188 M 31.042969 22.09375 C 29.550781 22.726562 29.292969 24.992188 30.660156 25.890625 C 32.03125 26.984375 34.363281 25.910156 34.300781 24.144531 C 34.441406 22.519531 32.46875 21.347656 31.042969 22.09375 M 26.703125 29.785156 C 26.628906 30.0625 26.550781 30.339844 26.476562 30.617188 C 27.125 30.589844 27.894531 30.460938 28.433594 30.925781 C 28.785156 31.359375 28.726562 31.972656 28.65625 32.492188 C 28.242188 35.101562 27.3125 37.601562 26.804688 40.195312 C 26.582031 41.277344 26.871094 42.589844 27.960938 43.109375 C 29.722656 43.976562 31.675781 43.113281 33.359375 42.472656 C 33.460938 42.113281 33.558594 41.753906 33.65625 41.394531 C 32.734375 41.648438 31.597656 41.964844 30.757812 41.347656 C 30.277344 40.730469 30.484375 39.886719 30.59375 39.183594 C 31.101562 37.066406 31.769531 34.992188 32.265625 32.871094 C 32.507812 31.710938 32.511719 30.199219 31.355469 29.5 C 29.894531 28.714844 28.132812 29.132812 26.703125 29.785156 M 45.589844 31.097656 C 45.5 32.742188 47.300781 33.601562 47.488281 35.160156 C 47.734375 37.648438 46.40625 40.359375 44.054688 41.421875 C 43.035156 41.859375 41.699219 41.957031 40.800781 41.210938 C 40.03125 40.539062 39.988281 39.410156 40.160156 38.480469 C 40.632812 36.175781 41.75 33.972656 41.683594 31.574219 C 41.683594 30.640625 41.097656 29.683594 40.152344 29.429688 C 38.449219 28.925781 36.757812 29.726562 35.1875 30.292969 C 35.105469 30.65625 35.023438 31.019531 34.941406 31.386719 C 35.78125 31.128906 36.742188 30.835938 37.578125 31.238281 C 38.132812 31.636719 38.023438 32.429688 37.960938 33.019531 C 37.621094 34.890625 36.804688 36.640625 36.4375 38.507812 C 36.1875 39.84375 36.421875 41.390625 37.472656 42.351562 C 38.699219 43.492188 40.519531 43.699219 42.125 43.484375 C 44.496094 43.128906 46.484375 41.515625 47.789062 39.589844 C 49.445312 37.117188 50.296875 34.046875 49.867188 31.089844 C 49.757812 30.175781 49.140625 29.230469 48.15625 29.113281 C 46.929688 28.863281 45.523438 29.792969 45.589844 31.097656 Z M 45.589844 31.097656 "/>
    <path style=" stroke:none;fill-rule:nonzero;fill:rgb(61.176471%,98.431373%,26.666667%);fill-opacity:1;" d="M 25.347656 5.453125 C 31.96875 3.636719 39.246094 4.269531 45.433594 7.234375 C 51.523438 10.113281 56.507812 15.199219 59.222656 21.3125 C 61.867188 27.191406 62.386719 33.976562 60.667969 40.1875 C 59.359375 45.015625 56.710938 49.464844 53.113281 52.972656 C 46.394531 59.585938 39.699219 66.226562 32.984375 72.84375 C 26.191406 66.167969 19.433594 59.460938 12.652344 52.769531 C 8.257812 48.433594 5.359375 42.648438 4.554688 36.5625 C 3.605469 29.714844 5.289062 22.539062 9.25 16.835938 C 13.027344 11.316406 18.839844 7.195312 25.347656 5.453125 M 16.226562 15.789062 C 12.140625 19.664062 9.523438 25.011719 9.003906 30.585938 C 8.402344 36.445312 10.105469 42.503906 13.714844 47.199219 C 14.964844 48.886719 16.539062 50.296875 18.019531 51.785156 C 22.984375 56.710938 27.984375 61.605469 32.933594 66.546875 C 33.667969 65.984375 34.273438 65.285156 34.941406 64.652344 C 40.058594 59.585938 45.199219 54.542969 50.308594 49.46875 C 55.476562 44.261719 57.964844 36.621094 56.832031 29.414062 C 56.011719 23.722656 52.988281 18.390625 48.53125 14.699219 C 43.96875 10.851562 37.902344 8.828125 31.917969 9.113281 C 26.09375 9.34375 20.394531 11.761719 16.226562 15.789062 Z M 16.226562 15.789062 "/>
    <path style=" stroke:none;fill-rule:nonzero;fill:rgb(94.509804%,94.509804%,94.509804%);fill-opacity:1;" d="M 18.933594 21.992188 C 21.074219 21.878906 23.210938 21.742188 25.351562 21.664062 C 25.324219 21.863281 25.273438 22.257812 25.242188 22.457031 C 23.957031 28.011719 22.652344 33.5625 21.382812 39.121094 C 21.257812 39.84375 20.976562 40.730469 21.511719 41.355469 C 22.402344 41.984375 23.574219 41.605469 24.550781 41.402344 C 24.359375 41.777344 24.503906 42.480469 23.945312 42.582031 C 22.578125 43.109375 21.109375 43.625 19.625 43.382812 C 18.714844 43.246094 17.824219 42.644531 17.574219 41.734375 C 17.359375 40.910156 17.550781 40.050781 17.722656 39.238281 C 18.792969 34.617188 19.863281 29.996094 20.933594 25.375 C 21.058594 24.765625 21.265625 23.992188 20.75 23.496094 C 20.195312 23.015625 19.390625 23.074219 18.707031 22.941406 C 18.78125 22.625 18.859375 22.304688 18.933594 21.992188 Z M 18.933594 21.992188 "/>
    <path style=" stroke:none;fill-rule:nonzero;fill:rgb(94.509804%,94.509804%,94.509804%);fill-opacity:1;" d="M 31.042969 22.09375 C 32.46875 21.347656 34.441406 22.519531 34.300781 24.144531 C 34.363281 25.910156 32.03125 26.984375 30.660156 25.890625 C 29.292969 24.992188 29.550781 22.726562 31.042969 22.09375 Z M 31.042969 22.09375 "/>
    <path style=" stroke:none;fill-rule:nonzero;fill:rgb(94.509804%,94.509804%,94.509804%);fill-opacity:1;" d="M 26.703125 29.785156 C 28.132812 29.132812 29.894531 28.714844 31.355469 29.5 C 32.511719 30.199219 32.507812 31.710938 32.265625 32.871094 C 31.769531 34.992188 31.101562 37.066406 30.59375 39.183594 C 30.484375 39.886719 30.277344 40.730469 30.757812 41.347656 C 31.597656 41.964844 32.734375 41.648438 33.65625 41.394531 C 33.558594 41.753906 33.460938 42.113281 33.359375 42.472656 C 31.675781 43.113281 29.722656 43.976562 27.960938 43.109375 C 26.871094 42.589844 26.582031 41.277344 26.804688 40.195312 C 27.3125 37.601562 28.242188 35.101562 28.65625 32.492188 C 28.726562 31.972656 28.785156 31.359375 28.433594 30.925781 C 27.894531 30.460938 27.125 30.589844 26.476562 30.617188 C 26.550781 30.339844 26.628906 30.0625 26.703125 29.785156 Z M 26.703125 29.785156 "/>
    <path style=" stroke:none;fill-rule:nonzero;fill:rgb(94.509804%,94.509804%,94.509804%);fill-opacity:1;" d="M 45.589844 31.097656 C 45.523438 29.792969 46.929688 28.863281 48.15625 29.113281 C 49.140625 29.230469 49.757812 30.175781 49.867188 31.089844 C 50.296875 34.046875 49.445312 37.117188 47.789062 39.589844 C 46.484375 41.515625 44.496094 43.128906 42.125 43.484375 C 40.519531 43.699219 38.699219 43.492188 37.472656 42.351562 C 36.421875 41.390625 36.1875 39.84375 36.4375 38.507812 C 36.804688 36.640625 37.621094 34.890625 37.960938 33.019531 C 38.023438 32.429688 38.132812 31.636719 37.578125 31.238281 C 36.742188 30.835938 35.78125 31.128906 34.941406 31.386719 C 35.023438 31.019531 35.105469 30.65625 35.1875 30.292969 C 36.757812 29.726562 38.449219 28.925781 40.152344 29.429688 C 41.097656 29.683594 41.683594 30.640625 41.683594 31.574219 C 41.75 33.972656 40.632812 36.175781 40.160156 38.480469 C 39.988281 39.410156 40.03125 40.539062 40.800781 41.210938 C 41.699219 41.957031 43.035156 41.859375 44.054688 41.421875 C 46.40625 40.359375 47.734375 37.648438 47.488281 35.160156 C 47.300781 33.601562 45.5 32.742188 45.589844 31.097656 Z M 45.589844 31.097656 "/>
  </g>
</svg>