<?xml version="1.0" encoding="UTF-8" ?>
<!DOCTYPE svg PUBLIC "-//W3C//DTD SVG 1.1//EN" "http://www.w3.org/Graphics/SVG/1.1/DTD/svg11.dtd">
<svg width="1550pt" height="188pt" viewBox="0 0 1550 188" version="1.1" xmlns="http://www.w3.org/2000/svg">
<g id="#ffffffff">
</g>
<g id="#370505ff">
<path fill="#370505" opacity="1.00" d=" M 88.83 0.00 L 97.58 0.00 C 117.42 1.09 137.27 7.68 152.76 20.31 C 158.21 24.93 163.51 30.26 165.87 37.16 C 168.21 44.21 167.68 52.35 163.80 58.76 C 156.99 70.04 140.69 74.63 129.25 67.75 C 123.30 64.08 117.97 59.41 111.62 56.37 C 104.08 52.49 95.21 51.54 86.93 53.22 C 74.45 55.61 63.41 64.13 57.72 75.47 C 53.10 84.51 51.98 95.31 54.82 105.08 C 57.96 116.37 66.17 126.08 76.69 131.22 C 87.32 136.47 100.36 137.21 111.21 132.16 C 117.91 129.27 123.53 124.53 129.61 120.60 C 141.47 112.97 158.98 118.14 165.48 130.45 C 169.81 138.91 168.93 149.72 163.45 157.46 C 158.59 164.24 151.93 169.53 144.87 173.87 C 130.62 182.51 114.13 187.11 97.54 188.00 L 88.60 188.00 C 67.91 186.75 47.63 178.71 32.13 164.87 C 13.01 148.19 1.27 123.59 0.00 98.28 L 0.00 89.52 C 1.38 63.30 14.06 37.93 34.39 21.29 C 49.62 8.53 69.04 1.16 88.83 0.00 Z" />
<path fill="#370505" opacity="1.00" d=" M 545.55 8.76 C 564.41 6.62 583.94 10.83 600.15 20.73 C 615.65 30.09 628.11 44.41 635.12 61.12 C 642.41 78.36 643.71 98.05 638.80 116.12 C 634.25 133.11 624.18 148.52 610.61 159.68 C 598.53 169.69 583.69 176.32 568.16 178.59 C 549.93 181.32 530.84 178.16 514.57 169.46 C 496.94 160.17 482.68 144.62 475.14 126.15 C 468.34 109.74 466.99 91.16 471.21 73.92 C 475.35 56.72 485.09 40.96 498.48 29.41 C 511.60 17.98 528.24 10.66 545.55 8.76 M 546.59 40.71 C 532.44 43.07 519.60 51.69 511.72 63.62 C 504.20 74.80 501.10 88.82 503.13 102.13 C 505.29 117.35 514.25 131.50 527.24 139.77 C 538.30 146.97 552.17 149.63 565.11 147.07 C 579.41 144.34 592.23 135.20 599.83 122.82 C 607.17 111.07 609.72 96.48 606.87 82.93 C 603.76 67.51 593.57 53.69 579.73 46.22 C 569.72 40.73 557.84 38.77 546.59 40.71 Z" />
<path fill="#370505" opacity="1.00" d=" M 272.99 12.81 C 278.05 9.61 284.32 10.74 289.99 10.64 C 295.29 10.61 300.14 13.62 302.96 18.02 C 317.88 39.67 332.60 61.46 347.50 83.11 C 362.67 61.07 377.74 38.96 392.98 16.97 C 395.81 12.64 400.97 10.47 406.05 10.60 C 411.44 10.72 417.40 9.73 422.20 12.80 C 425.94 15.15 427.42 19.78 427.35 24.00 C 427.36 69.00 427.35 114.01 427.36 159.01 C 427.36 163.37 427.75 168.18 425.15 171.97 C 422.74 175.66 418.16 177.13 413.95 177.20 C 409.03 177.25 403.61 177.71 399.34 174.78 C 395.53 172.24 394.23 167.42 394.34 163.07 C 394.31 132.42 394.35 101.77 394.32 71.13 C 384.42 85.63 374.64 100.21 364.73 114.71 C 361.98 118.79 358.34 122.98 353.14 123.59 C 348.95 123.99 344.62 124.18 340.49 123.26 C 335.72 122.04 332.65 117.88 330.00 114.04 C 320.27 99.74 310.60 85.39 300.88 71.09 C 300.84 102.06 300.91 133.03 300.84 164.00 C 300.93 168.81 298.53 173.92 293.90 175.82 C 288.73 177.88 282.88 177.42 277.48 176.75 C 271.47 175.80 267.56 169.85 267.85 163.99 C 267.78 117.66 267.84 71.33 267.82 25.00 C 267.67 20.49 268.92 15.36 272.99 12.81 Z" />
<path fill="#370505" opacity="1.00" d=" M 686.50 14.43 C 689.15 11.58 693.19 10.58 696.97 10.58 C 712.65 10.57 728.33 10.58 744.02 10.58 C 749.08 10.60 754.19 10.37 759.20 11.30 C 774.48 13.81 788.35 23.45 796.20 36.78 C 803.48 48.95 805.83 64.33 801.16 77.87 C 797.32 89.23 789.14 98.80 779.15 105.29 C 787.34 112.19 792.98 121.74 795.92 131.98 C 798.84 142.15 801.93 152.27 804.69 162.49 C 805.85 166.44 805.23 171.17 801.89 173.89 C 797.00 178.23 790.01 177.19 784.01 177.15 C 778.89 177.18 773.98 173.86 772.40 168.94 C 769.23 158.88 766.67 148.63 763.63 138.53 C 760.38 128.19 751.85 119.30 741.09 116.94 C 732.89 115.35 724.47 116.43 716.18 116.12 C 716.17 132.06 716.19 148.01 716.17 163.95 C 716.26 168.55 714.21 173.52 709.89 175.60 C 704.94 177.92 699.22 177.31 693.94 176.94 C 687.94 176.38 683.21 170.97 683.25 164.98 C 683.13 118.31 683.25 71.64 683.19 24.96 C 683.09 21.24 683.81 17.20 686.50 14.43 M 716.18 41.62 C 716.18 56.10 716.17 70.57 716.18 85.05 C 727.13 85.04 738.09 85.10 749.04 85.03 C 754.99 84.99 760.88 82.33 764.72 77.75 C 770.73 70.80 771.50 60.00 766.78 52.15 C 763.17 45.91 756.26 41.68 749.01 41.63 C 738.06 41.58 727.12 41.61 716.18 41.62 Z" />
<path fill="#370505" opacity="1.00" d=" M 854.24 14.15 C 857.05 11.38 861.17 10.52 865.00 10.57 C 890.99 10.60 916.97 10.55 942.96 10.59 C 947.90 10.53 953.28 12.96 955.12 17.82 C 956.75 22.37 956.43 27.41 955.82 32.12 C 954.86 37.80 949.30 41.52 943.76 41.54 C 923.73 41.70 903.70 41.55 883.68 41.61 C 883.62 53.94 883.75 66.27 883.62 78.60 C 900.04 78.86 916.47 78.59 932.90 78.73 C 937.12 78.77 941.72 80.25 944.14 83.94 C 946.72 87.73 946.40 92.54 946.33 96.91 C 946.29 100.39 945.20 104.06 942.52 106.44 C 939.69 109.01 935.72 109.78 932.01 109.74 C 915.90 109.74 899.79 109.73 883.68 109.74 C 883.66 121.87 883.67 134.00 883.68 146.12 C 903.45 146.16 923.23 146.11 943.01 146.15 C 947.37 146.11 952.23 147.39 954.83 151.18 C 957.67 155.15 957.22 160.28 957.14 164.91 C 957.05 168.58 955.62 172.41 952.57 174.61 C 949.52 176.85 945.62 177.26 941.96 177.24 C 916.64 177.24 891.31 177.23 865.99 177.24 C 862.37 177.27 858.51 176.82 855.52 174.61 C 852.17 172.22 850.66 167.98 850.70 163.99 C 850.70 117.30 850.71 70.62 850.70 23.93 C 850.67 20.41 851.65 16.67 854.24 14.15 Z" />
<path fill="#370505" opacity="1.00" d=" M 1060.00 19.96 C 1059.69 16.04 1061.79 11.58 1066.00 10.88 C 1069.88 10.35 1073.94 10.22 1077.80 11.04 C 1081.70 12.02 1083.41 16.29 1083.18 19.98 C 1083.18 65.10 1083.17 110.21 1083.18 155.32 C 1107.13 155.36 1131.08 155.28 1155.02 155.36 C 1158.25 155.31 1161.70 157.01 1162.76 160.23 C 1163.75 163.71 1163.52 167.43 1163.17 170.99 C 1162.71 174.97 1158.77 177.63 1154.92 177.43 C 1126.95 177.56 1098.97 177.43 1071.00 177.49 C 1068.12 177.47 1064.87 177.50 1062.61 175.44 C 1060.49 173.62 1060.00 170.68 1060.00 168.04 C 1060.00 118.68 1060.00 69.32 1060.00 19.96 Z" />
<path fill="#370505" opacity="1.00" d=" M 1205.36 11.38 C 1209.03 10.05 1213.07 10.51 1216.91 10.67 C 1221.17 10.81 1224.26 14.86 1224.04 18.96 C 1224.10 68.64 1224.03 118.32 1224.07 167.99 C 1224.10 170.66 1223.59 173.65 1221.44 175.47 C 1219.15 177.51 1215.88 177.46 1213.01 177.51 C 1209.81 177.45 1206.16 177.73 1203.58 175.49 C 1201.13 173.44 1200.85 170.02 1200.88 167.05 C 1200.90 118.05 1200.86 69.04 1200.89 20.04 C 1200.76 16.67 1201.96 12.75 1205.36 11.38 Z" />
<path fill="#370505" opacity="1.00" d=" M 1260.90 18.01 C 1259.67 14.60 1262.48 10.72 1266.05 10.62 C 1270.33 10.49 1274.67 10.29 1278.94 10.81 C 1282.64 11.78 1284.01 15.78 1285.40 18.91 C 1302.20 61.27 1318.92 103.66 1335.69 146.03 C 1352.33 103.89 1368.87 61.70 1385.49 19.55 C 1386.95 16.25 1388.24 12.01 1392.08 10.84 C 1396.01 10.25 1400.01 10.57 1403.99 10.54 C 1407.15 10.30 1410.46 12.69 1410.51 16.02 C 1410.38 19.15 1408.85 22.00 1407.77 24.88 C 1388.47 72.88 1369.25 120.92 1349.94 168.92 C 1348.34 173.19 1344.71 177.04 1339.93 177.32 C 1335.45 177.52 1330.41 178.13 1326.50 175.45 C 1323.26 173.21 1321.82 169.39 1320.43 165.88 C 1302.94 122.61 1285.43 79.36 1267.93 36.10 C 1265.64 30.05 1262.77 24.21 1260.90 18.01 Z" />
<path fill="#370505" opacity="1.00" d=" M 1450.72 12.70 C 1452.90 10.59 1456.12 10.53 1458.98 10.50 C 1485.65 10.54 1512.31 10.51 1538.98 10.52 C 1542.26 10.41 1546.15 11.25 1547.75 14.49 C 1549.34 18.09 1548.96 22.23 1548.60 26.05 C 1548.25 30.27 1544.02 32.94 1540.03 32.65 C 1517.16 32.70 1494.30 32.66 1471.43 32.67 C 1471.40 49.44 1471.43 66.22 1471.42 82.99 C 1490.64 83.04 1509.86 82.95 1529.08 83.03 C 1532.32 82.97 1536.03 84.21 1537.35 87.45 C 1538.66 91.14 1538.38 95.23 1537.90 99.05 C 1537.34 102.76 1533.68 105.22 1530.06 105.13 C 1510.52 105.26 1490.96 105.13 1471.42 105.19 C 1471.43 121.90 1471.40 138.61 1471.43 155.33 C 1494.94 155.37 1518.45 155.25 1541.95 155.38 C 1546.16 155.23 1549.74 158.61 1550.00 162.80 L 1550.00 170.28 C 1549.56 174.76 1545.39 177.85 1541.00 177.45 C 1512.98 177.49 1484.96 177.52 1456.95 177.44 C 1452.16 177.86 1447.96 173.80 1448.31 169.00 C 1448.19 119.66 1448.31 70.32 1448.25 20.98 C 1448.24 18.09 1448.42 14.78 1450.72 12.70 Z" />
</g>
</svg>
