<?xml version="1.0" encoding="UTF-8" ?>
<!DOCTYPE svg PUBLIC "-//W3C//DTD SVG 1.1//EN" "http://www.w3.org/Graphics/SVG/1.1/DTD/svg11.dtd">
<svg width="1550pt" height="167pt" viewBox="0 0 1550 167" version="1.1" xmlns="http://www.w3.org/2000/svg">
<g id="#ffffffff">
</g>
<g id="#370505ff">
<path fill="#370505" opacity="1.00" d=" M 78.34 0.00 L 84.80 0.00 C 102.60 0.55 120.47 6.37 134.47 17.53 C 139.44 21.67 144.32 26.44 146.56 32.66 C 149.08 39.81 148.17 48.35 143.36 54.35 C 136.78 62.66 123.96 65.78 114.62 60.37 C 109.28 57.16 104.57 52.92 98.93 50.19 C 90.31 45.64 79.76 45.53 70.77 49.06 C 55.68 54.74 45.43 71.07 47.30 87.15 C 48.70 102.93 61.39 116.75 76.92 119.68 C 85.57 121.53 94.82 119.91 102.38 115.33 C 107.92 112.35 112.44 107.70 118.29 105.28 C 127.80 101.69 139.39 105.56 145.13 113.87 C 150.24 121.44 149.85 132.10 144.74 139.58 C 140.21 146.07 133.83 151.04 127.09 155.07 C 114.30 162.56 99.56 166.57 84.76 167.00 L 78.63 167.00 C 60.26 165.99 42.26 158.82 28.52 146.55 C 11.52 131.70 1.11 109.80 0.00 87.28 L 0.00 79.60 C 1.15 57.38 11.36 35.78 28.01 20.99 C 41.74 8.48 59.83 1.13 78.34 0.00 Z" />
<path fill="#370505" opacity="1.00" d=" M 482.49 7.77 C 497.12 6.15 512.22 8.76 525.36 15.43 C 541.49 23.51 554.59 37.46 561.57 54.10 C 568.48 70.36 569.38 89.08 564.11 105.95 C 556.08 132.47 532.44 153.37 505.16 158.19 C 488.76 161.26 471.36 158.86 456.48 151.28 C 440.59 143.29 427.63 129.58 420.65 113.21 C 413.17 95.90 412.59 75.78 418.97 58.05 C 428.36 31.05 454.03 10.66 482.49 7.77 M 483.13 36.21 C 465.58 39.17 450.84 53.20 446.22 70.27 C 441.96 85.12 445.26 101.91 454.98 113.94 C 462.54 123.48 473.91 129.95 486.05 131.21 C 499.79 132.85 514.02 127.59 523.65 117.71 C 534.41 107.01 539.53 91.03 537.10 76.06 C 535.04 62.24 526.65 49.52 514.71 42.25 C 505.39 36.47 493.93 34.24 483.13 36.21 Z" />
<path fill="#370505" opacity="1.00" d=" M 1457.06 28.85 C 1464.13 15.90 1478.55 8.29 1492.98 7.27 C 1510.20 5.63 1529.22 12.27 1538.76 27.33 C 1549.48 44.08 1544.71 70.21 1526.60 79.84 C 1540.40 84.99 1549.36 99.16 1550.00 113.63 L 1550.00 118.62 C 1549.38 134.51 1538.67 148.98 1524.04 154.92 C 1506.61 162.05 1485.73 161.94 1468.94 153.06 C 1455.91 146.24 1446.49 131.98 1447.63 117.02 C 1447.68 114.02 1449.88 111.14 1453.00 110.95 C 1456.71 110.71 1460.67 110.28 1464.23 111.62 C 1467.58 113.01 1467.84 117.00 1468.19 120.10 C 1468.71 126.31 1472.47 131.99 1477.70 135.30 C 1484.27 139.50 1492.34 140.53 1499.99 140.16 C 1507.65 139.79 1515.58 137.63 1521.41 132.41 C 1527.13 127.37 1529.80 119.41 1528.93 111.90 C 1528.28 104.64 1523.75 98.09 1517.60 94.33 C 1511.51 90.40 1504.16 89.14 1497.03 89.22 C 1493.35 89.38 1489.61 86.80 1489.24 82.99 C 1488.86 79.43 1488.55 75.06 1491.45 72.41 C 1493.76 70.26 1497.09 70.49 1500.02 70.31 C 1506.14 70.07 1512.44 68.21 1517.04 64.01 C 1525.05 56.71 1525.74 42.75 1518.12 34.91 C 1510.33 26.51 1497.29 24.94 1486.83 28.59 C 1479.70 31.02 1474.12 37.49 1473.03 44.98 C 1472.34 48.12 1472.90 51.96 1470.35 54.38 C 1467.19 56.94 1462.78 56.17 1459.03 56.19 C 1455.91 56.35 1452.74 54.31 1452.38 51.07 C 1451.45 43.43 1453.39 35.56 1457.06 28.85 Z" />
<path fill="#370505" opacity="1.00" d=" M 242.67 10.67 C 247.19 8.69 252.29 9.49 257.07 9.50 C 261.55 9.61 265.49 12.33 267.91 15.99 C 281.10 35.22 294.14 54.57 307.29 73.83 C 320.63 54.36 333.90 34.85 347.27 15.40 C 349.77 11.47 354.33 9.30 358.94 9.43 C 363.79 9.50 369.18 8.61 373.47 11.44 C 376.94 13.69 378.05 18.08 377.95 21.99 C 377.93 63.01 377.94 104.03 377.94 145.04 C 378.03 148.90 376.78 153.17 373.37 155.36 C 369.75 157.80 365.17 157.44 361.01 157.41 C 357.73 157.37 354.22 156.59 351.85 154.17 C 349.41 151.78 348.69 148.23 348.71 144.93 C 348.68 117.69 348.73 90.45 348.69 63.21 C 340.01 75.99 331.42 88.83 322.75 101.61 C 320.38 105.09 317.48 108.78 313.10 109.64 C 306.56 110.66 298.35 110.73 294.22 104.56 C 284.55 90.96 275.52 76.90 266.06 63.15 C 266.06 90.46 266.06 117.77 266.06 145.07 C 266.17 148.94 264.81 153.17 261.42 155.34 C 257.80 157.81 253.20 157.44 249.04 157.41 C 245.76 157.36 242.26 156.55 239.92 154.11 C 237.56 151.74 236.81 148.27 236.87 145.03 C 236.90 103.68 236.87 62.33 236.89 20.98 C 236.80 16.86 238.71 12.39 242.67 10.67 Z" />
<path fill="#370505" opacity="1.00" d=" M 606.93 12.98 C 609.39 10.17 613.31 9.34 616.90 9.39 C 632.60 9.41 648.31 9.38 664.02 9.40 C 677.40 9.40 690.53 15.67 699.19 25.83 C 707.92 35.88 712.25 49.80 710.06 63.00 C 707.91 75.57 699.73 86.68 689.05 93.44 C 695.96 99.58 701.06 107.64 703.64 116.52 C 706.29 125.70 709.05 134.86 711.56 144.09 C 712.61 147.59 712.22 151.80 709.31 154.32 C 704.91 158.39 698.46 157.37 692.99 157.33 C 688.52 157.29 684.38 154.26 683.04 150.00 C 680.17 140.99 677.95 131.79 675.19 122.74 C 672.00 112.73 663.08 104.43 652.43 103.36 C 646.08 102.87 639.71 103.21 633.36 103.13 C 633.33 117.39 633.40 131.65 633.32 145.91 C 633.41 150.33 631.02 154.99 626.67 156.48 C 622.29 157.89 617.52 157.55 613.01 157.07 C 607.74 156.30 604.04 151.26 604.18 146.07 C 604.06 105.03 604.18 63.99 604.12 22.95 C 604.07 19.47 604.46 15.65 606.93 12.98 M 633.35 37.01 C 633.37 49.87 633.35 62.72 633.36 75.58 C 642.92 75.56 652.47 75.61 662.03 75.56 C 667.14 75.55 672.26 73.47 675.73 69.66 C 681.42 63.62 682.38 53.85 678.29 46.68 C 675.11 40.87 668.70 36.87 662.02 37.00 C 652.46 36.99 642.91 37.00 633.35 37.01 Z" />
<path fill="#370505" opacity="1.00" d=" M 755.46 12.53 C 757.95 10.08 761.57 9.36 764.96 9.39 C 787.93 9.41 810.90 9.37 833.88 9.41 C 838.71 9.28 843.88 12.08 845.06 17.03 C 845.88 21.25 845.98 25.77 844.86 29.94 C 843.46 34.50 838.63 36.93 834.10 36.94 C 816.56 37.09 799.01 36.94 781.47 37.02 C 781.49 47.97 781.48 58.92 781.48 69.87 C 795.96 69.92 810.45 69.82 824.94 69.92 C 829.08 69.93 833.65 71.63 835.53 75.58 C 837.46 79.71 836.98 84.50 836.57 88.90 C 835.82 93.97 830.90 97.41 825.95 97.42 C 811.13 97.57 796.31 97.43 781.49 97.49 C 781.47 108.26 781.49 119.04 781.48 129.81 C 799.31 129.86 817.14 129.76 834.97 129.86 C 840.32 129.71 845.71 133.49 846.24 139.05 C 846.56 143.56 847.12 148.57 844.69 152.63 C 842.50 156.25 837.98 157.46 834.00 157.41 C 811.01 157.43 788.03 157.42 765.04 157.42 C 761.71 157.44 758.17 156.72 755.67 154.38 C 753.11 152.03 752.24 148.43 752.27 145.07 C 752.26 104.02 752.26 62.97 752.27 21.92 C 752.23 18.57 752.94 14.94 755.46 12.53 Z" />
<path fill="#370505" opacity="1.00" d=" M 941.92 9.89 C 945.36 9.00 949.04 9.19 952.55 9.65 C 955.93 10.23 957.96 13.66 957.84 16.92 C 957.90 57.26 957.84 97.60 957.87 137.94 C 978.92 137.96 999.98 137.90 1021.03 137.97 C 1024.28 137.82 1027.83 139.69 1028.48 143.09 C 1029.03 146.49 1029.19 150.13 1028.18 153.46 C 1027.01 156.76 1023.22 157.81 1020.06 157.67 C 995.04 157.64 970.01 157.74 945.00 157.62 C 940.71 157.95 937.06 154.24 937.43 149.97 C 937.35 105.96 937.41 61.94 937.40 17.93 C 937.20 14.70 938.49 10.87 941.92 9.89 Z" />
<path fill="#370505" opacity="1.00" d=" M 1067.46 9.64 C 1070.93 9.21 1074.59 9.00 1078.01 9.91 C 1081.45 10.91 1082.68 14.78 1082.48 18.02 C 1082.46 62.01 1082.52 106.00 1082.45 149.99 C 1082.83 154.20 1079.26 157.84 1075.08 157.61 C 1070.05 158.27 1062.33 157.71 1062.10 151.07 C 1061.86 106.73 1062.07 62.37 1061.99 18.01 C 1061.65 14.41 1063.53 10.20 1067.46 9.64 Z" />
<path fill="#370505" opacity="1.00" d=" M 1114.84 14.96 C 1114.44 12.03 1117.08 9.34 1119.98 9.40 C 1123.60 9.31 1127.28 9.12 1130.89 9.60 C 1134.44 10.41 1135.58 14.34 1136.90 17.26 C 1151.71 54.72 1166.37 92.24 1181.21 129.69 C 1195.90 92.23 1210.54 54.75 1225.26 17.31 C 1226.60 14.14 1228.05 9.77 1232.10 9.46 C 1235.89 9.28 1239.73 9.11 1243.51 9.59 C 1247.19 10.36 1248.23 14.86 1246.58 17.87 C 1231.57 55.66 1216.41 93.40 1201.35 131.18 C 1198.34 138.29 1195.90 145.67 1192.50 152.60 C 1189.52 158.17 1182.46 158.12 1177.04 157.43 C 1173.11 156.92 1170.19 153.70 1168.84 150.16 C 1152.09 108.64 1135.38 67.11 1118.65 25.59 C 1117.32 22.07 1115.53 18.68 1114.84 14.96 Z" />
<path fill="#370505" opacity="1.00" d=" M 1288.26 9.38 C 1312.51 9.27 1336.78 9.35 1361.04 9.34 C 1364.28 9.15 1368.14 10.43 1369.14 13.88 C 1369.98 17.11 1369.81 20.58 1369.34 23.86 C 1368.69 27.23 1365.25 29.15 1362.02 29.03 C 1341.76 29.11 1321.49 29.03 1301.23 29.07 C 1301.24 43.96 1301.23 58.86 1301.24 73.76 C 1317.49 73.76 1333.74 73.78 1349.99 73.75 C 1352.57 73.75 1355.45 73.63 1357.64 75.28 C 1359.72 76.82 1360.28 79.59 1360.30 82.04 C 1360.28 84.95 1360.61 88.19 1358.84 90.71 C 1357.31 92.87 1354.48 93.48 1352.00 93.42 C 1335.08 93.42 1318.16 93.42 1301.24 93.42 C 1301.23 108.26 1301.24 123.10 1301.23 137.94 C 1321.83 137.97 1342.43 137.89 1363.03 137.97 C 1366.24 137.85 1369.68 139.72 1370.36 143.06 C 1370.89 146.38 1371.05 149.92 1370.16 153.19 C 1369.13 156.61 1365.30 157.83 1362.08 157.66 C 1338.04 157.69 1314.00 157.66 1289.97 157.67 C 1287.59 157.65 1284.97 157.52 1283.09 155.89 C 1281.10 154.19 1280.68 151.39 1280.75 148.92 C 1280.79 104.94 1280.73 60.95 1280.78 16.97 C 1280.40 12.75 1284.05 9.10 1288.26 9.38 Z" />
</g>
</svg>
