<?xml version="1.0" encoding="UTF-8" ?>
<!DOCTYPE svg PUBLIC "-//W3C//DTD SVG 1.1//EN" "http://www.w3.org/Graphics/SVG/1.1/DTD/svg11.dtd">
<svg width="360pt" height="270pt" viewBox="0 0 360 270" version="1.1" xmlns="http://www.w3.org/2000/svg">
<g id="#2c050cff">
<path fill="#2c050c" opacity="1.00" d=" M 25.40 59.50 C 31.93 57.17 39.11 57.48 45.88 58.40 C 52.87 60.13 60.10 63.76 63.85 70.16 C 66.87 75.55 63.02 82.78 57.02 83.67 C 50.30 85.23 46.40 77.67 40.10 77.08 C 31.34 75.56 22.48 83.07 22.55 91.97 C 21.99 101.52 31.98 109.73 41.24 107.40 C 47.27 106.27 51.33 99.09 58.03 101.17 C 64.84 102.57 67.52 111.74 62.77 116.72 C 53.37 127.15 37.04 129.90 24.24 124.72 C 11.94 119.74 3.23 107.21 2.74 93.96 C 1.87 79.18 11.44 64.52 25.40 59.50 Z" />
<path fill="#2c050c" opacity="1.00" d=" M 102.07 64.89 C 102.62 61.18 107.15 60.97 110.09 61.30 C 112.33 61.25 114.19 62.74 115.34 64.56 C 120.79 72.41 126.14 80.34 131.54 88.23 C 136.99 80.08 142.54 72.00 148.13 63.95 C 150.12 60.72 154.40 61.02 157.65 61.49 C 159.71 61.83 161.21 63.84 161.02 65.91 C 161.08 83.28 161.03 100.66 161.05 118.03 C 161.28 119.95 160.36 121.74 158.73 122.75 C 155.39 123.77 151.46 123.56 148.93 120.91 C 148.65 108.63 148.78 96.35 148.88 84.07 C 144.86 89.38 141.49 95.14 137.61 100.54 C 135.17 104.67 128.06 104.69 125.56 100.63 C 121.63 95.19 118.19 89.41 114.14 84.06 C 114.22 96.35 114.34 108.64 114.09 120.93 C 111.54 123.52 107.68 123.78 104.35 122.77 C 102.24 121.64 101.74 119.23 101.93 117.03 C 102.07 99.65 101.77 82.26 102.07 64.89 Z" />
<path fill="#2c050c" opacity="1.00" d=" M 201.21 61.24 C 210.66 58.99 221.02 61.38 228.58 67.48 C 239.78 76.16 243.91 92.79 237.61 105.59 C 231.55 119.25 215.24 127.07 200.78 123.25 C 190.72 120.87 182.16 113.25 178.42 103.65 C 174.97 94.72 175.82 84.18 180.90 76.03 C 185.24 68.57 192.82 63.16 201.21 61.24 M 205.42 72.54 C 196.18 73.92 188.97 82.70 188.96 91.97 C 188.69 99.70 193.41 107.29 200.40 110.56 C 206.09 113.27 213.15 112.88 218.47 109.48 C 225.56 105.10 229.49 96.10 227.49 87.96 C 225.47 78.22 215.40 70.66 205.42 72.54 Z" />
<path fill="#2c050c" opacity="1.00" d=" M 258.73 61.67 C 262.76 60.87 266.93 61.47 271.02 61.31 C 276.98 61.53 283.31 60.39 288.89 63.07 C 297.74 66.94 303.11 78.10 299.27 87.23 C 297.86 91.12 294.78 93.99 291.70 96.58 C 297.31 101.78 298.40 109.58 300.62 116.51 C 301.04 118.29 301.75 120.65 299.94 121.92 C 298.70 123.34 296.66 123.20 294.96 123.28 C 293.03 123.25 290.62 123.35 289.53 121.41 C 286.37 115.61 287.18 107.73 281.76 103.20 C 278.06 99.75 272.63 100.71 268.02 100.60 C 267.99 106.75 268.18 112.91 267.99 119.06 C 268.15 120.69 266.92 121.90 265.71 122.76 C 262.36 123.77 258.43 123.57 255.93 120.86 C 255.59 103.25 255.90 85.62 255.76 68.01 C 255.70 65.64 255.94 62.40 258.73 61.67 M 268.00 72.96 C 268.07 78.28 268.05 83.61 268.02 88.93 C 273.09 88.66 278.36 89.70 283.29 88.28 C 289.73 85.76 289.22 75.39 282.67 73.35 C 277.85 72.46 272.88 73.15 268.00 72.96 Z" />
<path fill="#2c050c" opacity="1.00" d=" M 317.92 65.95 C 317.66 63.17 320.31 61.12 322.94 61.33 C 332.30 61.26 341.66 61.34 351.02 61.30 C 353.28 61.14 355.87 61.90 356.76 64.21 C 357.60 67.38 357.26 72.45 353.08 72.81 C 345.41 73.19 337.71 72.82 330.02 72.96 C 330.10 77.52 330.08 82.09 330.09 86.66 C 336.39 86.72 342.70 86.46 348.99 86.73 C 355.07 86.68 355.06 98.15 349.01 98.11 C 342.70 98.41 336.38 98.11 330.06 98.23 C 330.09 102.72 330.08 107.21 330.09 111.70 C 337.39 111.73 344.70 111.62 352.01 111.71 C 353.99 111.51 355.59 112.73 357.09 113.83 C 357.10 116.21 357.03 118.59 356.93 120.97 C 356.41 121.49 355.37 122.54 354.84 123.06 C 344.24 123.36 333.62 123.20 323.01 123.19 C 320.09 123.57 317.46 120.97 317.89 118.04 C 317.88 100.68 317.81 83.31 317.92 65.95 Z" />
<path fill="#2c050c" opacity="1.00" d=" M 101.91 151.96 C 104.27 150.55 107.20 150.03 109.74 151.31 C 110.84 152.99 110.64 155.07 110.68 156.98 C 110.56 172.78 110.73 188.57 110.59 204.36 C 118.38 204.35 126.17 204.38 133.96 204.32 C 135.87 204.40 137.98 204.16 139.67 205.26 C 140.62 207.14 140.26 209.27 140.18 211.28 C 127.45 211.29 114.71 211.02 101.98 211.40 C 101.89 191.58 102.02 171.77 101.91 151.96 Z" />
<path fill="#2c050c" opacity="1.00" d=" M 153.92 152.63 C 155.96 149.73 162.85 149.39 162.77 153.89 C 162.83 173.02 162.73 192.16 162.82 211.29 C 159.91 211.16 156.99 211.17 154.08 211.30 C 154.06 191.75 154.37 172.18 153.92 152.63 Z" />
<path fill="#2c050c" opacity="1.00" d=" M 175.69 151.96 C 178.48 150.44 183.58 149.22 185.13 152.94 C 191.77 168.78 197.49 185.03 204.29 200.79 C 209.76 185.97 215.81 171.36 221.44 156.60 C 222.23 154.69 222.81 152.59 224.28 151.07 C 226.95 150.03 229.87 150.67 232.37 151.86 C 225.19 170.68 217.42 189.27 210.08 208.03 C 209.41 209.06 209.37 210.86 207.99 211.20 C 205.30 211.21 202.59 211.05 199.97 211.73 C 191.53 191.95 183.76 171.89 175.69 151.96 Z" />
<path fill="#2c050c" opacity="1.00" d=" M 247.26 151.07 C 249.78 150.36 252.44 150.68 255.03 150.62 C 263.34 150.75 271.66 150.47 279.97 150.72 C 284.31 150.79 283.80 156.85 281.39 159.07 C 272.40 158.85 263.41 158.91 254.43 159.04 C 254.55 165.20 254.52 171.35 254.45 177.51 C 261.61 177.58 268.78 177.34 275.94 177.58 C 280.44 177.34 280.55 186.04 276.10 185.86 C 268.88 186.06 261.66 185.78 254.44 185.97 C 254.52 192.06 254.59 198.16 254.38 204.25 C 263.95 204.76 273.60 203.70 283.13 204.88 C 283.51 207.01 283.61 209.17 283.30 211.32 C 270.84 211.16 258.38 211.32 245.92 211.23 C 245.59 192.83 245.90 174.42 245.76 156.02 C 245.92 154.31 245.39 152.02 247.26 151.07 Z" />
<path fill="#2c050c" opacity="1.00" d=" M 320.65 154.74 C 320.84 152.90 321.76 150.50 324.04 150.85 C 332.01 150.70 339.99 150.77 347.96 150.82 C 352.76 149.82 353.38 158.30 349.04 158.86 C 342.04 159.13 335.02 158.86 328.01 158.95 C 327.04 163.71 326.34 168.53 325.17 173.25 C 333.25 169.61 343.68 170.53 350.18 176.86 C 357.92 184.82 357.52 198.88 349.76 206.68 C 347.34 209.13 344.16 210.62 340.96 211.74 C 336.38 210.95 331.59 210.87 327.02 211.76 C 321.47 210.17 316.22 206.38 314.30 200.75 C 313.64 198.35 312.68 195.49 314.13 193.17 C 316.49 191.60 319.65 192.19 321.84 193.79 C 322.08 196.03 322.02 198.56 323.69 200.31 C 327.58 205.04 334.88 205.38 340.22 203.21 C 348.07 199.97 349.39 188.13 343.34 182.58 C 340.11 179.35 335.24 178.48 330.85 179.05 C 326.74 179.63 323.46 183.30 319.11 182.60 C 317.29 182.53 315.58 180.78 316.38 178.93 C 317.76 170.86 319.26 162.81 320.65 154.74 Z" />
<path fill="#2c050c" opacity="1.00" d=" M 102.73 211.96 C 115.19 211.70 127.66 211.59 140.12 211.93 C 133.57 213.60 126.72 212.39 120.04 212.75 C 114.29 212.37 108.32 213.63 102.73 211.96 Z" />
<path fill="#2c050c" opacity="1.00" d=" M 155.86 212.28 C 157.31 211.38 159.68 211.38 161.14 212.27 C 159.66 213.24 157.33 213.24 155.86 212.28 Z" />
<path fill="#2c050c" opacity="1.00" d=" M 201.31 211.95 C 203.21 211.71 205.40 211.32 207.18 212.19 C 205.78 213.25 201.96 213.62 201.31 211.95 Z" />
<path fill="#2c050c" opacity="1.00" d=" M 245.90 211.93 C 258.31 211.65 270.73 211.63 283.15 211.91 C 281.17 212.58 279.10 212.83 277.02 212.78 C 268.69 212.72 260.36 212.74 252.03 212.78 C 249.95 212.82 247.89 212.51 245.90 211.93 Z" />
<path fill="#2c050c" opacity="1.00" d=" M 327.92 211.92 C 331.97 211.76 336.03 211.64 340.09 211.93 C 336.09 212.88 331.92 212.89 327.92 211.92 Z" />
</g>
</svg>
