<?xml version="1.0" encoding="UTF-8" ?>
<!DOCTYPE svg PUBLIC "-//W3C//DTD SVG 1.1//EN" "http://www.w3.org/Graphics/SVG/1.1/DTD/svg11.dtd">
<svg width="1149pt" height="338pt" viewBox="0 0 1149 338" version="1.1" xmlns="http://www.w3.org/2000/svg">
<g id="#ffffffff">
<path fill="#ffffff" opacity="1.00" d=" M 77.31 76.96 C 77.30 74.88 77.36 72.80 77.49 70.72 C 99.86 70.87 122.24 70.84 144.61 70.74 C 144.74 117.68 144.65 164.61 144.65 211.55 C 194.62 211.49 244.60 211.68 294.56 211.45 C 294.78 230.12 294.67 248.80 294.61 267.47 C 222.21 267.38 149.80 267.37 77.40 267.48 C 77.23 203.98 77.40 140.47 77.31 76.96 Z" />
<path fill="#ffffff" opacity="1.00" d=" M 466.11 70.70 C 488.50 70.91 510.89 70.80 533.28 70.76 C 561.22 107.08 589.19 143.38 617.07 179.75 C 617.06 143.40 617.01 107.05 617.10 70.71 C 639.54 70.92 661.99 70.78 684.44 70.77 C 684.46 136.33 684.46 201.90 684.43 267.46 C 661.92 267.32 639.41 267.53 616.90 267.35 C 589.15 230.94 561.44 194.49 533.47 158.25 C 533.40 194.65 533.44 231.04 533.46 267.44 C 511.00 267.43 488.54 267.36 466.09 267.48 C 466.02 201.88 465.97 136.29 466.11 70.70 Z" />
<path fill="#ffffff" opacity="1.00" d=" M 854.72 70.73 C 927.20 70.90 999.68 70.76 1072.16 70.80 C 1072.18 89.44 1072.29 108.07 1072.11 126.70 C 1047.19 126.57 1022.27 126.79 997.36 126.59 C 997.04 173.53 997.28 220.48 997.24 267.43 C 974.74 267.42 952.25 267.39 929.76 267.44 C 929.74 220.51 930.00 173.56 929.63 126.63 C 904.66 126.68 879.69 126.74 854.72 126.59 C 854.86 107.97 854.86 89.35 854.72 70.73 Z" />
</g>
<g id="#3260aeff">
<path fill="#3260ae" opacity="1.00" d=" M 22.21 0.00 L 1127.45 0.00 C 1137.78 1.76 1146.64 9.85 1149.00 20.12 L 1149.00 319.06 C 1146.11 328.42 1138.40 336.22 1128.61 338.00 L 19.92 338.00 C 9.58 335.28 1.20 326.26 0.00 315.53 L 0.00 21.85 C 1.96 10.80 11.07 1.68 22.21 0.00 M 373.47 20.34 C 373.40 117.53 373.56 214.72 373.39 311.90 C 377.96 312.70 382.62 312.20 387.24 312.23 C 387.41 215.79 387.24 119.34 387.32 22.90 C 387.21 22.24 386.99 20.91 386.88 20.25 C 382.41 20.30 377.94 20.26 373.47 20.34 M 761.46 20.35 C 761.48 117.54 761.52 214.74 761.44 311.93 C 766.00 312.55 770.63 312.35 775.22 312.06 C 775.59 276.70 775.28 241.33 775.38 205.97 C 775.38 146.98 775.39 87.99 775.37 29.00 C 775.40 26.08 775.53 23.14 775.05 20.24 C 770.51 20.29 765.98 20.18 761.46 20.35 M 77.31 76.96 C 77.40 140.47 77.23 203.98 77.40 267.48 C 149.80 267.37 222.21 267.38 294.61 267.47 C 294.67 248.80 294.78 230.12 294.56 211.45 C 244.60 211.68 194.62 211.49 144.65 211.55 C 144.65 164.61 144.74 117.68 144.61 70.74 C 122.24 70.84 99.86 70.87 77.49 70.72 C 77.36 72.80 77.30 74.88 77.31 76.96 M 466.11 70.70 C 465.97 136.29 466.02 201.88 466.09 267.48 C 488.54 267.36 511.00 267.43 533.46 267.44 C 533.44 231.04 533.40 194.65 533.47 158.25 C 561.44 194.49 589.15 230.94 616.90 267.35 C 639.41 267.53 661.92 267.32 684.43 267.46 C 684.46 201.90 684.46 136.33 684.44 70.77 C 661.99 70.78 639.54 70.92 617.10 70.71 C 617.01 107.05 617.06 143.40 617.07 179.75 C 589.19 143.38 561.22 107.08 533.28 70.76 C 510.89 70.80 488.50 70.91 466.11 70.70 M 854.72 70.73 C 854.86 89.35 854.86 107.97 854.72 126.59 C 879.69 126.74 904.66 126.68 929.63 126.63 C 930.00 173.56 929.74 220.51 929.76 267.44 C 952.25 267.39 974.74 267.42 997.24 267.43 C 997.28 220.48 997.04 173.53 997.36 126.59 C 1022.27 126.79 1047.19 126.57 1072.11 126.70 C 1072.29 108.07 1072.18 89.44 1072.16 70.80 C 999.68 70.76 927.20 70.90 854.72 70.73 Z" />
</g>
<g id="#27226cff">
<path fill="#27226c" opacity="1.00" d=" M 373.47 20.34 C 377.94 20.26 382.41 20.30 386.88 20.25 C 386.99 20.91 387.21 22.24 387.32 22.90 C 387.24 119.34 387.41 215.79 387.24 312.23 C 382.62 312.20 377.96 312.70 373.39 311.90 C 373.56 214.72 373.40 117.53 373.47 20.34 Z" />
<path fill="#27226c" opacity="1.00" d=" M 761.46 20.35 C 765.98 20.18 770.51 20.29 775.05 20.24 C 775.53 23.14 775.40 26.08 775.37 29.00 C 775.39 87.99 775.38 146.98 775.38 205.97 C 775.28 241.33 775.59 276.70 775.22 312.06 C 770.63 312.35 766.00 312.55 761.44 311.93 C 761.52 214.74 761.48 117.54 761.46 20.35 Z" />
</g>
</svg>
