<?xml version="1.0" encoding="UTF-8" ?>
<!DOCTYPE svg PUBLIC "-//W3C//DTD SVG 1.1//EN" "http://www.w3.org/Graphics/SVG/1.1/DTD/svg11.dtd">
<svg width="380pt" height="267pt" viewBox="0 0 380 267" version="1.1" xmlns="http://www.w3.org/2000/svg">
<g id="#ffffffff">
</g>
<g id="#000000ff">
<path fill="#000000" opacity="1.00" d=" M 34.73 44.78 C 43.42 40.42 53.32 39.12 62.94 39.16 C 76.96 38.98 91.34 42.13 103.18 49.87 C 115.32 46.75 128.75 46.49 140.26 52.01 C 144.58 54.09 149.03 57.25 150.39 62.09 C 151.26 65.97 148.91 69.61 146.39 72.33 C 141.94 76.89 136.10 79.75 130.29 82.20 C 112.18 89.17 92.45 90.94 73.21 89.81 C 66.67 108.66 61.29 128.22 50.87 145.42 C 60.70 151.84 69.70 159.53 80.24 164.82 C 80.90 155.48 84.72 146.15 91.80 139.84 C 97.53 134.54 105.19 131.70 112.90 130.98 C 114.76 123.33 116.40 115.63 118.20 107.96 C 118.90 106.14 117.85 103.96 115.98 103.42 C 114.23 103.18 112.45 103.28 110.69 103.24 C 111.05 102.03 111.41 100.81 111.77 99.60 C 115.20 98.86 119.18 97.63 122.40 99.69 C 125.32 101.74 125.11 105.77 124.41 108.86 C 122.01 118.85 119.84 128.90 117.46 138.89 C 116.77 141.93 115.98 145.41 117.70 148.26 C 119.35 151.04 123.01 151.60 125.97 151.24 C 134.18 150.19 141.51 145.29 147.22 139.54 C 150.47 126.84 153.00 113.95 156.25 101.24 C 149.60 100.74 142.64 100.48 136.55 97.46 C 133.82 96.07 130.85 93.44 131.52 90.04 C 132.55 86.29 136.03 83.87 139.43 82.40 C 147.82 78.88 157.53 78.70 166.13 81.58 C 175.38 84.57 182.40 91.84 187.93 99.54 C 196.00 97.35 205.18 98.35 211.77 103.81 C 212.16 102.14 212.54 100.47 212.93 98.81 C 214.79 99.17 217.46 98.22 218.66 100.09 C 217.57 107.85 215.23 115.39 213.62 123.07 C 218.53 121.67 222.99 119.12 227.08 116.11 C 227.76 112.79 228.75 109.52 229.07 106.14 C 228.35 102.37 223.90 103.37 221.15 103.24 C 221.36 102.36 221.76 100.59 221.96 99.70 C 225.73 98.84 230.48 97.36 233.73 100.28 C 236.64 103.00 235.46 107.26 234.49 110.58 C 241.18 105.35 248.38 100.05 257.00 98.76 C 261.21 98.14 266.30 98.22 269.36 101.66 C 272.02 104.62 271.98 108.92 271.25 112.61 C 268.72 123.80 266.08 134.96 263.57 146.15 C 262.63 148.56 264.19 151.71 266.97 151.68 C 269.63 151.44 272.12 150.33 274.63 149.47 C 271.97 143.88 272.42 137.02 275.74 131.82 C 278.71 127.39 283.78 124.86 288.91 123.88 C 296.31 122.54 304.03 123.15 311.14 125.61 C 312.21 120.71 313.88 115.90 313.89 110.83 C 306.19 114.42 297.57 116.74 289.04 115.39 C 285.92 114.83 282.12 113.35 281.34 109.89 C 280.75 106.76 283.19 104.13 285.54 102.46 C 291.48 98.45 299.04 97.99 305.97 98.63 C 312.58 99.24 319.52 103.80 320.15 110.88 C 320.43 116.78 318.14 122.42 316.94 128.12 C 327.43 133.86 337.26 143.26 339.13 155.59 C 337.14 155.65 335.16 155.68 333.19 155.70 C 331.77 145.65 324.18 137.74 315.91 132.53 C 315.02 138.10 312.98 143.49 312.46 149.10 C 313.40 152.44 317.26 151.63 319.85 151.55 C 319.61 152.45 319.11 154.27 318.86 155.17 C 315.32 155.87 310.86 156.92 307.99 154.08 C 306.02 152.34 306.32 149.55 306.40 147.21 C 299.66 156.41 284.63 159.80 276.04 151.31 C 271.78 154.42 266.45 156.84 261.07 155.66 C 257.81 154.89 256.20 151.06 256.87 147.99 C 259.20 136.92 261.93 125.94 264.40 114.91 C 265.22 111.62 266.00 107.45 263.11 104.92 C 259.96 102.75 255.82 103.73 252.39 104.60 C 245.50 106.92 239.44 111.17 233.72 115.56 C 230.20 128.81 227.53 142.32 224.32 155.66 C 222.66 155.62 220.99 155.67 219.34 155.46 C 217.81 154.31 218.75 152.49 219.01 150.99 C 221.47 140.97 223.54 130.85 226.03 120.84 C 221.99 123.35 217.65 125.46 212.92 126.29 C 208.32 145.66 204.10 165.57 194.03 182.98 C 186.76 195.83 175.24 206.59 161.11 211.37 C 147.23 215.98 131.98 216.62 117.78 213.07 C 104.95 209.94 93.12 201.93 86.44 190.40 C 83.09 184.61 81.00 178.12 80.32 171.47 C 69.77 167.86 60.83 161.01 51.15 155.68 C 37.90 148.15 23.61 142.45 8.79 138.89 C 10.38 135.31 11.97 131.74 13.55 128.16 C 24.02 131.24 34.13 135.47 43.58 140.95 C 53.47 124.83 58.46 106.36 65.19 88.83 C 53.36 87.15 41.24 83.81 31.72 76.26 C 26.87 72.31 22.62 66.53 23.12 59.96 C 23.31 53.04 28.98 47.79 34.73 44.78 M 55.18 43.12 C 48.17 44.27 40.97 46.74 35.91 51.96 C 32.34 55.53 30.33 61.02 31.94 65.98 C 33.83 72.17 39.32 76.38 44.90 79.13 C 51.58 82.55 59.01 84.01 66.35 85.25 C 71.66 70.69 82.27 57.46 97.11 51.98 C 84.80 44.09 69.61 41.11 55.18 43.12 M 107.18 52.84 C 113.58 58.34 118.64 66.46 117.16 75.23 C 114.49 75.25 111.82 75.25 109.15 75.27 C 110.82 67.48 106.49 60.06 100.93 54.97 C 87.44 60.12 78.78 72.85 74.33 86.07 C 92.73 86.89 111.79 85.32 128.77 77.71 C 134.61 74.82 141.28 70.91 142.71 64.02 C 142.63 59.31 138.38 56.18 134.53 54.30 C 125.95 50.39 116.21 51.34 107.18 52.84 M 144.46 83.72 C 141.31 84.73 137.91 86.68 136.94 90.07 C 136.58 92.74 139.12 94.64 141.19 95.81 C 146.40 98.37 152.32 98.84 158.04 98.88 C 159.51 99.06 161.46 98.56 162.51 99.94 C 162.56 101.71 162.08 103.43 161.72 105.16 C 158.52 119.08 155.30 132.99 152.19 146.93 C 151.39 149.27 153.59 151.91 156.01 151.64 C 159.43 151.49 162.61 150.07 165.77 148.89 C 162.18 141.50 162.98 132.87 165.14 125.20 C 167.96 115.25 174.15 105.79 183.66 101.16 C 179.63 96.29 175.60 91.23 170.19 87.80 C 162.74 82.82 153.08 81.34 144.46 83.72 M 288.60 105.62 C 286.12 107.50 287.24 111.13 290.13 111.78 C 297.87 114.01 306.09 111.33 313.02 107.78 C 307.99 99.61 295.38 99.97 288.60 105.62 M 190.61 103.47 C 195.48 110.35 199.61 118.43 207.39 122.50 C 208.57 117.58 209.63 112.62 210.94 107.73 C 205.24 103.15 197.62 102.41 190.61 103.47 M 171.03 126.91 C 169.76 133.07 168.79 139.81 171.32 145.78 C 172.84 149.60 176.98 151.96 181.03 151.69 C 190.22 151.57 197.60 144.87 203.38 138.40 C 204.96 134.32 205.40 129.88 206.78 125.73 C 197.13 122.30 191.92 112.86 186.23 105.03 C 178.24 109.68 172.96 117.98 171.03 126.91 M 286.13 129.40 C 279.90 132.13 277.39 140.13 279.78 146.25 C 281.28 149.78 285.20 151.79 288.94 151.69 C 296.19 152.00 302.87 147.71 307.18 142.15 C 308.68 138.21 309.12 133.91 310.25 129.84 C 302.58 127.17 293.76 126.01 286.13 129.40 M 98.59 140.62 C 91.00 147.12 87.33 157.25 87.11 167.06 C 98.60 168.24 112.30 166.29 119.63 156.36 C 116.39 155.49 112.91 154.08 111.37 150.85 C 108.81 145.64 110.93 139.75 112.18 134.48 C 107.23 135.39 102.42 137.31 98.59 140.62 M 181.00 155.93 C 175.99 156.34 171.00 154.75 167.37 151.25 C 162.00 154.80 155.12 157.20 148.74 155.26 C 144.73 153.23 145.33 148.06 146.43 144.46 C 140.39 150.40 132.88 154.90 124.48 156.42 C 116.60 168.59 101.46 174.84 87.25 172.88 C 88.71 184.27 94.65 195.14 104.14 201.78 C 117.03 210.94 133.89 212.30 149.10 209.76 C 163.22 207.40 176.12 199.17 184.36 187.48 C 193.80 174.69 198.23 159.18 202.47 144.09 C 196.99 150.31 189.72 156.08 181.00 155.93 Z" />
<path fill="#000000" opacity="1.00" d=" M 219.40 163.76 C 221.89 162.26 224.86 162.92 227.52 163.45 C 226.75 167.26 222.17 163.47 220.17 166.07 C 217.98 169.94 218.03 174.59 216.75 178.78 C 219.29 177.58 221.76 176.20 224.35 175.11 C 222.90 178.31 219.23 179.23 216.35 180.65 C 215.12 186.49 213.84 192.32 212.55 198.15 C 212.08 201.00 209.91 203.00 207.82 204.77 C 207.32 204.38 206.32 203.60 205.82 203.21 C 207.27 201.86 209.06 200.63 209.58 198.60 C 211.07 192.89 212.06 187.05 213.44 181.31 C 210.88 180.73 207.26 180.23 206.77 177.04 C 207.21 172.79 211.94 171.50 215.51 171.09 C 216.20 168.42 216.81 165.27 219.40 163.76 M 208.45 177.09 C 209.98 178.32 211.79 179.08 213.71 179.48 C 214.25 177.29 214.75 175.08 215.23 172.87 C 212.44 173.29 209.73 174.41 208.45 177.09 Z" />
<path fill="#000000" opacity="1.00" d=" M 308.48 166.12 C 309.63 165.48 310.79 163.36 312.20 164.75 C 313.97 165.67 312.82 167.64 311.42 168.22 C 310.01 168.76 309.41 166.76 308.48 166.12 Z" />
<path fill="#000000" opacity="1.00" d=" M 254.16 167.99 C 254.36 165.54 257.07 165.06 259.03 164.79 C 265.25 164.27 271.00 167.43 275.32 171.66 C 278.95 170.98 282.71 171.53 285.74 173.73 C 288.52 172.40 291.79 170.61 294.88 171.78 C 296.92 172.56 296.19 174.86 296.35 176.53 C 298.83 173.41 302.47 171.59 306.45 171.42 C 306.29 175.10 301.92 174.00 299.72 175.73 C 297.84 177.03 295.60 178.50 295.13 180.90 C 293.90 186.21 292.76 191.55 291.44 196.85 C 290.53 196.75 289.62 196.64 288.71 196.54 C 290.20 189.28 292.08 182.11 293.61 174.87 C 292.20 172.02 288.96 174.45 286.73 174.77 C 290.93 182.42 287.04 193.56 278.65 196.40 C 273.93 198.11 267.52 196.59 265.58 191.54 C 262.86 184.26 266.77 175.72 273.52 172.18 C 270.68 169.77 267.67 167.26 263.89 166.55 C 261.41 166.07 258.13 165.40 256.46 167.88 C 259.01 171.04 263.25 171.30 266.95 171.84 C 263.71 180.91 258.88 189.41 252.61 196.74 C 251.93 196.74 250.57 196.74 249.89 196.74 C 248.89 189.46 248.18 182.12 246.94 174.88 C 246.69 172.21 243.84 174.12 242.57 174.86 C 243.14 181.44 240.07 187.60 239.15 194.03 C 240.30 194.82 241.58 195.36 243.01 195.62 C 241.34 197.51 238.94 196.91 236.83 196.26 C 236.78 195.53 236.68 194.05 236.62 193.32 C 233.74 196.21 229.44 198.19 225.40 196.46 C 220.46 194.71 220.60 187.38 224.45 184.54 C 228.54 181.51 234.10 181.96 238.72 183.39 C 239.17 181.28 239.64 179.17 240.11 177.06 C 235.74 178.64 230.31 180.64 226.05 177.75 C 224.17 176.38 225.52 174.09 227.09 173.14 C 231.54 170.43 237.62 170.51 241.82 173.70 C 243.87 172.41 246.40 170.40 248.88 171.90 C 249.78 173.04 249.80 174.55 250.06 175.92 C 250.78 181.91 251.48 187.90 252.19 193.90 C 257.25 187.67 261.13 180.54 263.81 172.99 C 260.30 172.15 255.97 171.58 254.16 167.99 M 226.72 176.04 C 230.77 178.77 235.95 177.39 239.87 175.15 C 236.17 171.87 229.85 172.07 226.72 176.04 M 274.36 174.41 C 268.71 177.38 266.53 184.94 268.22 190.82 C 269.55 195.18 275.23 196.12 278.84 194.12 C 284.33 191.09 286.46 183.92 285.15 178.07 C 283.98 173.49 278.10 172.25 274.36 174.41 M 226.73 185.69 C 223.24 187.73 223.49 194.45 228.01 194.95 C 233.58 195.69 238.29 190.72 238.35 185.30 C 234.61 184.22 230.19 183.41 226.73 185.69 Z" />
<path fill="#000000" opacity="1.00" d=" M 321.20 164.72 C 321.95 164.71 323.46 164.68 324.22 164.67 C 323.62 166.98 323.03 169.30 322.43 171.62 C 324.70 171.63 326.96 171.64 329.23 171.79 C 327.84 174.62 324.49 173.26 322.03 173.58 C 320.82 179.04 319.58 184.49 318.33 189.93 C 317.97 191.50 317.51 193.75 319.31 194.64 C 322.02 195.58 324.77 194.13 327.34 193.37 C 324.43 186.61 326.69 177.94 332.87 173.81 C 336.47 171.35 341.59 170.34 345.48 172.71 C 348.55 174.95 348.09 180.04 345.07 182.14 C 340.37 185.49 334.28 185.32 328.76 185.72 C 328.98 187.85 329.25 189.99 329.63 192.10 C 331.37 191.06 333.10 189.97 334.97 189.17 C 333.88 191.00 332.17 192.30 330.55 193.62 C 332.28 194.35 334.05 195.36 336.01 195.13 C 339.30 195.13 341.73 192.70 344.57 191.44 C 344.42 195.38 340.28 196.53 337.07 196.97 C 333.92 197.54 330.79 196.43 328.28 194.59 C 324.79 196.04 320.79 198.01 316.99 196.59 C 315.62 196.25 315.37 194.66 314.75 193.64 C 312.08 195.78 308.62 197.81 305.08 196.66 C 303.14 196.03 303.39 193.61 303.86 192.06 C 305.51 185.33 306.75 178.48 308.68 171.82 C 309.38 171.72 310.80 171.50 311.51 171.39 C 309.88 178.97 307.80 186.47 306.41 194.09 C 309.76 196.50 314.32 193.47 315.35 190.00 C 316.88 184.57 317.86 179.01 319.31 173.57 C 318.31 173.54 316.31 173.49 315.31 173.46 C 315.95 171.39 318.05 171.63 319.78 171.45 C 320.24 169.20 320.70 166.96 321.20 164.72 M 329.03 183.69 C 333.67 183.46 338.71 183.56 342.80 181.02 C 346.01 179.15 345.13 173.24 341.03 173.37 C 334.89 172.84 330.59 178.37 329.03 183.69 Z" />
<path fill="#000000" opacity="1.00" d=" M 349.04 173.02 C 350.53 171.59 352.84 170.79 354.77 171.84 C 356.68 172.83 355.72 175.01 355.69 176.67 C 358.32 173.72 361.71 171.05 365.92 171.32 C 365.72 171.90 365.32 173.04 365.11 173.61 C 361.19 174.19 357.54 176.17 355.23 179.45 C 353.55 185.16 352.45 191.03 351.07 196.83 C 350.36 196.76 348.93 196.61 348.22 196.54 C 349.94 189.32 351.66 182.10 353.15 174.84 C 352.56 173.24 350.23 173.75 349.04 173.02 Z" />
</g>
</svg>
