<?xml version="1.0" encoding="UTF-8" ?>
<!DOCTYPE svg PUBLIC "-//W3C//DTD SVG 1.1//EN" "http://www.w3.org/Graphics/SVG/1.1/DTD/svg11.dtd">
<svg width="800pt" height="148pt" viewBox="0 0 800 148" version="1.1" xmlns="http://www.w3.org/2000/svg">
<g id="#2c2c2cb5">
<path fill="#2c2c2c" opacity="0.71" d=" M 0.00 0.00 L 800.00 0.00 L 800.00 0.00 L 799.33 1.08 C 688.89 0.89 578.45 1.06 468.00 1.00 C 312.34 1.00 156.67 0.99 1.01 1.01 C 1.00 49.67 0.98 98.34 1.02 147.01 C 267.02 146.98 533.03 147.01 799.03 147.00 L 800.00 146.99 L 800.00 148.00 L 0.00 148.00 L 0.00 0.00 Z" />
</g>
<g id="#000000ff">
<path fill="#000000" opacity="1.00" d=" M 1.01 1.01 C 156.67 0.99 312.34 1.00 468.00 1.00 C 578.45 1.06 688.89 0.89 799.33 1.08 C 798.78 4.71 799.00 8.39 799.00 12.05 C 799.03 57.03 798.96 102.01 799.03 147.00 C 533.03 147.01 267.02 146.98 1.02 147.01 C 0.98 98.34 1.00 49.67 1.01 1.01 M 460.07 45.16 C 458.38 45.37 456.68 45.51 454.98 45.52 C 437.97 45.49 420.96 45.47 403.95 45.53 C 404.24 46.98 404.85 48.40 406.35 48.93 C 406.20 66.96 406.52 85.00 406.19 103.02 C 404.83 103.61 404.01 104.67 404.01 106.20 C 423.01 106.31 442.01 106.05 461.01 106.33 C 461.57 107.49 463.55 109.90 464.01 107.35 C 464.35 102.42 463.96 97.47 464.17 92.54 C 461.65 91.64 461.29 95.53 458.95 95.36 C 445.82 95.62 432.67 95.37 419.53 95.47 C 419.53 90.20 419.53 84.93 419.53 79.65 C 427.72 79.79 435.92 79.40 444.10 79.83 C 446.30 79.96 446.73 82.10 447.06 83.85 C 447.58 83.84 448.62 83.81 449.13 83.80 C 449.12 77.72 449.12 71.64 449.14 65.57 C 446.03 64.86 447.25 69.51 444.38 69.46 C 436.11 69.95 427.80 69.51 419.52 69.67 C 419.54 64.94 419.53 60.22 419.53 55.49 C 433.04 55.74 446.58 55.05 460.07 55.85 C 460.92 56.96 461.59 58.62 463.38 58.36 C 463.42 53.07 463.40 47.78 463.41 42.49 C 461.47 42.05 460.83 43.93 460.07 45.16 M 72.70 45.48 L 72.69 47.46 C 73.89 47.85 75.10 48.22 76.24 48.77 C 76.05 66.20 76.22 83.64 76.16 101.07 C 77.03 104.41 71.79 102.98 72.49 106.21 C 91.32 106.24 110.16 106.17 128.99 106.24 C 131.05 105.96 131.67 108.63 133.72 108.50 C 133.66 103.19 133.83 97.88 133.67 92.57 C 131.04 91.65 130.78 96.11 128.00 95.42 C 115.13 95.54 102.26 95.40 89.39 95.48 C 89.41 79.84 89.32 64.21 89.44 48.57 C 90.59 48.23 91.72 47.84 92.83 47.38 C 92.77 46.91 92.65 45.95 92.58 45.47 C 85.95 45.52 79.33 45.51 72.70 45.48 M 175.88 45.54 C 175.74 47.68 177.88 48.28 179.50 48.74 C 179.43 60.48 179.52 72.22 179.46 83.96 C 179.38 89.23 180.40 94.86 183.90 98.99 C 187.34 103.12 192.69 105.05 197.88 105.73 C 206.22 106.84 214.71 106.83 223.05 105.74 C 228.52 105.05 234.19 102.94 237.61 98.38 C 240.98 94.04 241.61 88.33 241.64 83.01 C 241.65 71.58 241.71 60.15 241.60 48.72 C 243.06 48.22 244.88 47.51 244.51 45.49 C 238.21 45.52 231.92 45.48 225.62 45.52 C 224.73 48.57 229.56 47.29 229.25 49.89 C 229.44 60.58 229.24 71.29 229.34 81.99 C 229.36 85.85 229.17 90.30 226.07 93.07 C 222.79 95.87 218.28 96.51 214.11 96.77 C 208.52 96.94 202.55 97.01 197.49 94.26 C 194.18 92.48 192.66 88.60 192.72 84.99 C 192.65 72.91 192.77 60.84 192.66 48.77 C 194.14 48.23 195.50 47.35 195.42 45.52 C 188.91 45.50 182.39 45.47 175.88 45.54 M 289.49 45.49 L 289.46 47.48 C 291.99 47.83 294.39 48.94 295.94 51.03 C 302.56 59.25 309.01 67.59 315.58 75.85 C 308.62 84.48 301.92 93.32 294.93 101.92 C 293.75 103.74 291.50 103.75 289.58 103.95 C 289.66 104.73 289.59 105.50 289.36 106.25 C 296.61 106.16 303.85 106.26 311.10 106.19 C 311.04 104.63 309.94 103.77 308.81 102.91 C 308.21 101.53 309.73 100.50 310.31 99.41 C 314.23 94.33 318.43 89.47 322.26 84.31 C 326.55 89.89 331.03 95.35 335.07 101.10 C 336.49 102.93 332.92 104.20 333.54 106.24 C 341.37 106.18 349.21 106.25 357.05 106.20 C 357.18 103.04 353.08 103.54 351.83 101.16 C 344.80 92.11 337.73 83.08 330.60 74.10 C 337.33 65.95 343.88 57.66 350.61 49.51 C 352.06 47.58 354.71 47.90 356.84 47.59 C 356.85 47.07 356.86 46.03 356.87 45.51 C 349.06 45.48 341.26 45.53 333.46 45.48 L 333.23 47.33 C 334.45 47.84 335.69 48.34 336.93 48.83 C 332.78 54.58 328.16 59.97 323.87 65.61 C 319.93 59.98 314.42 55.32 311.75 48.90 C 312.85 48.46 313.92 47.94 314.95 47.33 C 314.88 46.84 314.72 45.86 314.65 45.37 C 306.26 45.65 297.87 45.44 289.49 45.49 M 575.61 52.42 C 575.64 57.07 575.60 61.71 575.67 66.35 C 577.12 66.25 578.06 65.18 578.99 64.21 C 584.42 63.83 589.86 64.37 595.29 63.91 C 595.26 76.88 595.40 89.84 595.22 102.81 C 594.04 103.69 593.44 104.83 593.44 106.24 C 598.43 106.20 603.42 106.21 608.42 106.23 C 608.49 105.79 608.65 104.91 608.72 104.47 C 608.17 104.14 607.07 103.48 606.52 103.15 C 606.30 90.14 606.53 77.13 606.40 64.11 C 611.91 64.04 617.43 63.99 622.93 64.27 C 623.61 65.50 624.70 66.11 626.14 66.04 C 626.14 61.50 626.11 56.96 626.16 52.41 C 623.53 51.84 623.67 55.97 621.03 55.37 C 607.32 55.32 593.61 55.51 579.91 55.27 C 577.79 55.34 578.20 51.45 575.61 52.42 M 664.99 55.36 C 665.05 55.88 665.16 56.91 665.22 57.43 C 666.23 58.14 667.37 58.84 667.87 60.06 C 674.49 74.14 680.91 88.33 687.70 102.33 C 687.03 103.59 686.10 104.71 685.95 106.20 C 691.82 106.27 697.70 106.13 703.58 106.29 C 703.61 105.74 703.68 104.63 703.72 104.08 C 703.15 103.85 702.02 103.38 701.45 103.15 C 707.40 90.69 712.88 78.00 718.67 65.46 C 720.09 62.57 720.88 59.09 723.78 57.26 C 723.80 56.78 723.84 55.84 723.85 55.36 C 718.69 55.39 713.53 55.35 708.38 55.39 C 708.53 56.99 709.32 58.11 710.73 58.75 C 705.68 70.16 700.52 81.52 695.31 92.85 C 690.48 82.18 685.42 71.62 680.62 60.94 C 679.47 58.98 681.25 57.21 681.70 55.38 C 676.13 55.36 670.56 55.39 664.99 55.36 M 518.18 91.04 C 512.95 93.33 511.57 101.30 516.38 104.74 C 521.09 108.92 529.91 105.50 529.85 99.00 C 530.47 93.06 523.49 88.35 518.18 91.04 Z" />
</g>
<g id="#191919d5">
<path fill="#191919" opacity="0.84" d=" M 799.33 1.08 L 800.00 0.00 L 800.00 146.99 L 799.03 147.00 C 798.96 102.01 799.03 57.03 799.00 12.05 C 799.00 8.39 798.78 4.71 799.33 1.08 Z" />
</g>
<g id="#ffffffff">
<path fill="#ffffff" opacity="1.00" d=" M 460.07 45.16 C 460.83 43.93 461.47 42.05 463.41 42.49 C 463.40 47.78 463.42 53.07 463.38 58.36 C 461.59 58.62 460.92 56.96 460.07 55.85 C 446.58 55.05 433.04 55.74 419.53 55.49 C 419.53 60.22 419.54 64.94 419.52 69.67 C 427.80 69.51 436.11 69.95 444.38 69.46 C 447.25 69.51 446.03 64.86 449.14 65.57 C 449.12 71.64 449.12 77.72 449.13 83.80 C 448.62 83.81 447.58 83.84 447.06 83.85 C 446.73 82.10 446.30 79.96 444.10 79.83 C 435.92 79.40 427.72 79.79 419.53 79.65 C 419.53 84.93 419.53 90.20 419.53 95.47 C 432.67 95.37 445.82 95.62 458.95 95.36 C 461.29 95.53 461.65 91.64 464.17 92.54 C 463.96 97.47 464.35 102.42 464.01 107.35 C 463.55 109.90 461.57 107.49 461.01 106.33 C 442.01 106.05 423.01 106.31 404.01 106.20 C 404.01 104.67 404.83 103.61 406.19 103.02 C 406.52 85.00 406.20 66.96 406.35 48.93 C 404.85 48.40 404.24 46.98 403.95 45.53 C 420.96 45.47 437.97 45.49 454.98 45.52 C 456.68 45.51 458.38 45.37 460.07 45.16 Z" />
<path fill="#ffffff" opacity="1.00" d=" M 72.70 45.48 C 79.33 45.51 85.95 45.52 92.58 45.47 C 92.65 45.95 92.77 46.91 92.83 47.38 C 91.72 47.84 90.59 48.23 89.44 48.57 C 89.32 64.21 89.41 79.84 89.39 95.48 C 102.26 95.40 115.13 95.54 128.00 95.42 C 130.78 96.11 131.04 91.65 133.67 92.57 C 133.83 97.88 133.66 103.19 133.72 108.50 C 131.67 108.63 131.05 105.96 128.99 106.24 C 110.16 106.17 91.32 106.24 72.49 106.21 C 71.79 102.98 77.03 104.41 76.16 101.07 C 76.22 83.64 76.05 66.20 76.24 48.77 C 75.10 48.22 73.89 47.85 72.69 47.46 L 72.70 45.48 Z" />
<path fill="#ffffff" opacity="1.00" d=" M 175.88 45.54 C 182.39 45.47 188.91 45.50 195.42 45.52 C 195.50 47.35 194.14 48.23 192.66 48.77 C 192.77 60.84 192.65 72.91 192.72 84.99 C 192.66 88.60 194.18 92.48 197.49 94.26 C 202.55 97.01 208.52 96.94 214.11 96.77 C 218.28 96.51 222.79 95.87 226.07 93.07 C 229.17 90.30 229.36 85.85 229.34 81.99 C 229.24 71.29 229.44 60.58 229.25 49.89 C 229.56 47.29 224.73 48.57 225.62 45.52 C 231.92 45.48 238.21 45.52 244.51 45.49 C 244.88 47.51 243.06 48.22 241.60 48.72 C 241.71 60.15 241.65 71.58 241.64 83.01 C 241.61 88.33 240.98 94.04 237.61 98.38 C 234.19 102.94 228.52 105.05 223.05 105.74 C 214.71 106.83 206.22 106.84 197.88 105.73 C 192.69 105.05 187.34 103.12 183.90 98.99 C 180.40 94.86 179.38 89.23 179.46 83.96 C 179.52 72.22 179.43 60.48 179.50 48.74 C 177.88 48.28 175.74 47.68 175.88 45.54 Z" />
<path fill="#ffffff" opacity="1.00" d=" M 289.49 45.49 C 297.87 45.44 306.26 45.65 314.65 45.37 C 314.72 45.86 314.88 46.84 314.95 47.33 C 313.92 47.94 312.85 48.46 311.75 48.90 C 314.42 55.32 319.93 59.98 323.87 65.61 C 328.16 59.97 332.78 54.58 336.93 48.83 C 335.69 48.34 334.45 47.84 333.23 47.33 L 333.46 45.48 C 341.26 45.53 349.06 45.48 356.87 45.51 C 356.86 46.03 356.85 47.07 356.84 47.59 C 354.71 47.90 352.06 47.58 350.61 49.51 C 343.88 57.66 337.33 65.95 330.60 74.10 C 337.73 83.08 344.80 92.11 351.83 101.16 C 353.08 103.54 357.18 103.04 357.05 106.20 C 349.21 106.25 341.37 106.18 333.54 106.24 C 332.92 104.20 336.49 102.93 335.07 101.10 C 331.03 95.35 326.55 89.89 322.26 84.31 C 318.43 89.47 314.23 94.33 310.31 99.41 C 309.73 100.50 308.21 101.53 308.81 102.91 C 309.94 103.77 311.04 104.63 311.10 106.19 C 303.85 106.26 296.61 106.16 289.36 106.25 C 289.59 105.50 289.66 104.73 289.58 103.95 C 291.50 103.75 293.75 103.74 294.93 101.92 C 301.92 93.32 308.62 84.48 315.58 75.85 C 309.01 67.59 302.56 59.25 295.94 51.03 C 294.39 48.94 291.99 47.83 289.46 47.48 L 289.49 45.49 Z" />
<path fill="#ffffff" opacity="1.00" d=" M 575.61 52.42 C 578.20 51.45 577.79 55.34 579.91 55.27 C 593.61 55.51 607.32 55.32 621.03 55.37 C 623.67 55.97 623.53 51.84 626.16 52.41 C 626.11 56.96 626.14 61.50 626.14 66.04 C 624.70 66.11 623.61 65.50 622.93 64.27 C 617.43 63.99 611.91 64.04 606.40 64.11 C 606.53 77.13 606.30 90.14 606.52 103.15 C 607.07 103.48 608.17 104.14 608.72 104.47 C 608.65 104.91 608.49 105.79 608.42 106.23 C 603.42 106.21 598.43 106.20 593.44 106.24 C 593.44 104.83 594.04 103.69 595.22 102.81 C 595.40 89.84 595.26 76.88 595.29 63.91 C 589.86 64.37 584.42 63.83 578.99 64.21 C 578.06 65.18 577.12 66.25 575.67 66.35 C 575.60 61.71 575.64 57.07 575.61 52.42 Z" />
<path fill="#ffffff" opacity="1.00" d=" M 664.99 55.36 C 670.56 55.39 676.13 55.36 681.70 55.38 C 681.25 57.21 679.47 58.98 680.62 60.94 C 685.42 71.62 690.48 82.18 695.31 92.85 C 700.52 81.52 705.68 70.16 710.73 58.75 C 709.32 58.11 708.53 56.99 708.38 55.39 C 713.53 55.35 718.69 55.39 723.85 55.36 C 723.84 55.84 723.80 56.78 723.78 57.26 C 720.88 59.09 720.09 62.57 718.67 65.46 C 712.88 78.00 707.40 90.69 701.45 103.15 C 702.02 103.38 703.15 103.85 703.72 104.08 C 703.68 104.63 703.61 105.74 703.58 106.29 C 697.70 106.13 691.82 106.27 685.95 106.20 C 686.10 104.71 687.03 103.59 687.70 102.33 C 680.91 88.33 674.49 74.14 667.87 60.06 C 667.37 58.84 666.23 58.14 665.22 57.43 C 665.16 56.91 665.05 55.88 664.99 55.36 Z" />
<path fill="#ffffff" opacity="1.00" d=" M 518.18 91.04 C 523.49 88.35 530.47 93.06 529.85 99.00 C 529.91 105.50 521.09 108.92 516.38 104.74 C 511.57 101.30 512.95 93.33 518.18 91.04 Z" />
</g>
</svg>
