<?xml version="1.0" encoding="UTF-8" ?>
<!DOCTYPE svg PUBLIC "-//W3C//DTD SVG 1.1//EN" "http://www.w3.org/Graphics/SVG/1.1/DTD/svg11.dtd">
<svg width="480pt" height="92pt" viewBox="0 0 480 92" version="1.1" xmlns="http://www.w3.org/2000/svg">
<g id="#ffffffff">
</g>
<g id="#4bcbc2ff">
<path fill="#4bcbc2" opacity="1.00" d=" M 15.42 0.00 L 155.68 0.00 C 157.70 1.70 160.06 3.65 160.27 6.48 C 160.54 10.21 160.33 13.95 160.49 17.68 C 157.76 17.79 155.03 17.82 152.30 17.79 C 152.38 14.55 152.34 11.31 152.24 8.07 C 107.71 8.10 63.18 8.12 18.65 8.06 C 18.55 11.29 18.53 14.52 18.63 17.75 C 15.91 17.82 13.18 17.81 10.46 17.71 C 10.63 13.75 10.26 9.76 10.73 5.81 C 11.13 3.17 13.40 1.46 15.42 0.00 Z" />
<path fill="#4bcbc2" opacity="1.00" d=" M 178.19 0.00 L 186.02 0.00 C 186.05 3.18 186.05 6.37 186.00 9.55 C 189.20 9.75 192.42 9.77 195.63 9.59 C 195.69 12.31 195.72 15.04 195.75 17.76 C 192.51 17.77 189.28 17.82 186.05 17.88 C 185.81 21.03 186.69 24.59 185.52 27.49 C 183.10 27.79 180.66 27.65 178.24 27.67 C 178.13 24.40 178.05 21.14 178.07 17.87 C 174.82 17.85 171.57 17.79 168.31 17.71 C 168.33 15.02 168.40 12.34 168.57 9.67 C 171.75 9.79 174.93 9.72 178.11 9.59 C 178.11 6.39 178.13 3.19 178.19 0.00 Z" />
<path fill="#4bcbc2" opacity="1.00" d=" M 0.00 25.24 C 6.96 25.64 13.93 25.17 20.88 25.48 C 24.58 25.54 28.40 28.10 28.71 32.02 C 29.02 37.03 29.04 42.09 28.68 47.11 C 28.50 50.27 25.32 51.76 22.92 53.12 C 25.11 57.69 27.77 62.03 29.97 66.60 C 26.25 66.47 22.44 67.08 18.79 66.26 C 15.79 62.21 14.08 57.36 10.96 53.38 C 10.73 57.80 10.80 62.23 10.73 66.66 C 7.15 66.62 3.58 66.60 0.00 66.52 L 0.00 25.24 M 10.87 34.86 C 10.75 38.10 10.75 41.33 10.82 44.57 C 13.34 44.44 16.55 45.59 18.60 43.81 C 19.15 40.98 18.81 38.08 18.77 35.23 C 16.15 34.84 13.51 34.78 10.87 34.86 Z" />
<path fill="#4bcbc2" opacity="1.00" d=" M 36.39 25.40 C 39.84 25.40 43.29 25.39 46.74 25.34 C 47.14 35.83 46.62 46.34 47.00 56.84 C 49.42 56.83 51.84 56.85 54.26 56.90 C 54.62 46.40 54.33 35.88 54.39 25.37 C 57.83 25.42 61.27 25.41 64.70 25.29 C 65.05 36.53 64.83 47.79 64.84 59.03 C 65.20 63.27 61.06 66.48 57.10 66.52 C 52.56 66.63 47.99 66.78 43.46 66.43 C 39.72 66.15 36.30 62.99 36.44 59.11 C 36.37 47.87 36.47 36.64 36.39 25.40 Z" />
<path fill="#4bcbc2" opacity="1.00" d=" M 73.06 25.34 C 76.49 25.44 79.94 25.20 83.35 25.64 C 83.21 36.02 83.31 46.41 83.27 56.80 C 85.78 56.85 88.28 56.86 90.78 56.84 C 91.05 46.34 90.38 35.80 91.13 25.31 C 94.54 25.44 97.97 25.19 101.36 25.64 C 101.15 36.75 101.41 47.87 101.24 58.98 C 101.45 63.08 97.81 66.26 93.91 66.48 C 89.31 66.69 84.68 66.73 80.08 66.47 C 76.24 66.22 72.61 63.05 72.86 59.00 C 72.89 47.78 72.52 36.54 73.06 25.34 Z" />
<path fill="#4bcbc2" opacity="1.00" d=" M 107.35 25.34 C 116.74 25.65 126.15 25.00 135.52 25.64 C 135.45 29.09 135.58 32.54 135.29 35.99 C 132.45 35.89 129.62 35.91 126.78 35.94 C 126.52 46.18 126.77 56.42 126.66 66.66 C 123.19 66.61 119.71 66.60 116.24 66.64 C 116.10 56.41 116.25 46.18 116.15 35.95 C 113.18 35.97 110.21 35.91 107.24 35.75 C 107.32 32.28 107.32 28.81 107.35 25.34 Z" />
<path fill="#4bcbc2" opacity="1.00" d=" M 142.22 25.33 C 145.69 25.39 149.16 25.39 152.63 25.37 C 152.64 35.87 152.46 46.37 152.72 56.87 C 155.13 56.85 157.55 56.85 159.97 56.88 C 160.41 46.37 159.88 35.84 160.24 25.33 C 163.70 25.40 167.16 25.41 170.63 25.37 C 170.52 36.59 170.65 47.82 170.57 59.03 C 170.71 62.95 167.32 66.12 163.54 66.43 C 159.01 66.79 154.44 66.63 149.89 66.53 C 145.94 66.46 141.84 63.31 142.15 59.07 C 142.09 47.83 142.01 36.57 142.22 25.33 Z" />
<path fill="#4bcbc2" opacity="1.00" d=" M 10.45 74.26 C 13.18 74.20 15.90 74.21 18.63 74.29 C 18.53 77.51 18.55 80.73 18.67 83.95 C 63.20 83.87 107.74 83.89 152.28 83.94 C 152.34 80.70 152.36 77.47 152.33 74.23 C 155.03 74.20 157.74 74.21 160.45 74.27 C 160.32 78.01 160.55 81.76 160.27 85.50 C 160.10 88.42 157.72 90.43 155.52 92.00 L 15.28 92.00 C 13.27 90.43 10.91 88.62 10.67 85.87 C 10.36 82.01 10.59 78.13 10.45 74.26 Z" />
</g>
<g id="#222220ff">
<path fill="#222220" opacity="1.00" d=" M 250.44 25.63 C 258.54 22.99 268.07 25.78 273.35 32.50 C 279.85 40.43 279.47 53.07 272.42 60.54 C 266.36 67.29 255.79 69.28 247.68 65.25 C 239.45 61.43 234.56 51.93 235.97 43.00 C 236.89 35.05 242.78 27.96 250.44 25.63 M 251.45 33.68 C 244.85 36.41 242.09 44.84 244.74 51.24 C 247.17 58.08 255.81 61.27 262.28 58.25 C 268.82 55.58 271.46 47.35 269.08 40.98 C 266.78 33.96 258.02 30.62 251.45 33.68 Z" />
<path fill="#222220" opacity="1.00" d=" M 284.74 25.65 C 287.41 25.44 290.10 25.46 292.78 25.40 C 293.04 31.32 292.71 37.24 292.97 43.16 C 297.88 37.47 302.12 31.23 306.90 25.44 C 309.91 25.51 312.91 25.48 315.92 25.48 C 311.23 32.34 305.88 38.73 301.06 45.51 C 306.25 52.45 311.55 59.32 316.48 66.45 C 313.35 66.51 310.21 66.59 307.09 66.33 C 303.51 61.15 299.50 56.28 295.82 51.17 C 294.94 50.06 294.20 48.72 292.87 48.09 C 292.91 54.19 292.79 60.30 292.96 66.40 C 290.24 66.52 287.53 66.51 284.82 66.46 C 284.77 52.85 284.92 39.25 284.74 25.65 Z" />
<path fill="#222220" opacity="1.00" d=" M 370.52 25.48 C 373.83 25.50 377.15 25.50 380.47 25.45 C 385.28 39.13 390.06 52.82 394.78 66.53 C 391.90 66.48 389.02 66.46 386.14 66.55 C 385.20 64.14 384.39 61.68 383.67 59.20 C 378.22 59.15 372.78 59.11 367.34 59.22 C 366.65 61.72 365.85 64.19 364.82 66.57 C 361.97 66.46 359.11 66.47 356.26 66.49 C 361.06 52.84 365.78 39.15 370.52 25.48 M 375.34 35.33 C 373.75 40.79 371.69 46.11 370.10 51.57 C 373.72 51.50 377.34 51.50 380.97 51.56 C 379.17 46.14 377.81 40.48 375.34 35.33 Z" />
<path fill="#222220" opacity="1.00" d=" M 195.17 66.25 C 195.64 52.62 194.90 38.96 195.55 25.34 C 203.31 26.17 211.48 24.13 218.94 26.95 C 226.79 30.05 231.59 38.67 230.93 46.96 C 231.06 56.76 222.92 66.02 212.98 66.42 C 207.05 66.44 201.09 66.73 195.17 66.25 M 203.34 33.30 C 203.35 41.76 203.37 50.23 203.33 58.69 C 207.97 58.44 213.01 59.57 217.30 57.28 C 225.38 52.77 225.35 39.12 217.22 34.67 C 212.95 32.42 207.95 33.58 203.34 33.30 Z" />
<path fill="#222220" opacity="1.00" d=" M 321.59 66.58 C 321.31 52.87 321.40 39.13 321.54 25.41 C 324.20 25.48 326.86 25.50 329.53 25.52 C 329.48 31.38 329.53 37.25 329.47 43.11 C 334.45 37.74 338.40 31.47 343.14 25.88 C 346.12 24.94 349.43 25.71 352.54 25.53 C 347.89 32.21 342.63 38.45 337.99 45.12 C 338.58 47.47 340.62 49.15 341.91 51.15 C 345.55 56.33 349.71 61.15 353.02 66.54 C 349.95 66.51 346.89 66.49 343.83 66.42 C 339.03 60.25 334.73 53.62 329.46 47.87 C 329.54 54.07 329.49 60.27 329.52 66.47 C 326.87 66.47 324.23 66.48 321.59 66.58 Z" />
<path fill="#222220" opacity="1.00" d=" M 399.55 25.50 C 405.35 25.53 411.16 25.37 416.97 25.56 C 424.53 25.91 430.57 33.59 429.26 41.03 C 428.66 45.45 425.48 48.97 421.73 51.12 C 424.53 56.31 427.67 61.30 430.53 66.45 C 427.66 66.49 424.79 66.49 421.92 66.52 C 419.08 61.83 416.44 57.01 413.66 52.28 C 411.63 52.29 409.61 52.30 407.59 52.32 C 407.67 57.05 407.64 61.77 407.64 66.50 C 404.95 66.48 402.27 66.48 399.59 66.51 C 399.53 52.84 399.60 39.17 399.55 25.50 M 407.53 33.24 C 407.72 37.21 407.59 41.18 407.67 45.15 C 411.04 44.98 414.54 45.65 417.83 44.74 C 422.52 42.81 422.46 35.08 417.61 33.40 C 414.28 32.82 410.88 33.15 407.53 33.24 Z" />
<path fill="#222220" opacity="1.00" d=" M 436.61 25.51 C 439.24 25.51 441.88 25.49 444.51 25.37 C 444.78 39.10 444.90 52.90 444.45 66.63 C 441.84 66.47 439.23 66.46 436.63 66.48 C 436.62 52.82 436.64 39.17 436.61 25.51 Z" />
<path fill="#222220" opacity="1.00" d=" M 449.66 25.49 C 459.46 25.53 469.26 25.41 479.07 25.55 C 479.00 28.13 478.99 30.71 479.00 33.29 C 475.60 33.30 472.20 33.35 468.81 33.20 C 468.32 44.33 469.06 55.50 468.44 66.62 C 465.82 66.47 463.20 66.46 460.58 66.49 C 460.57 55.42 460.54 44.36 460.60 33.30 C 456.95 33.31 453.31 33.30 449.66 33.29 C 449.65 30.69 449.65 28.09 449.66 25.49 Z" />
</g>
</svg>
