<?xml version="1.0" encoding="UTF-8" ?>
<!DOCTYPE svg PUBLIC "-//W3C//DTD SVG 1.1//EN" "http://www.w3.org/Graphics/SVG/1.1/DTD/svg11.dtd">
<svg width="743pt" height="181pt" viewBox="0 0 743 181" version="1.1" xmlns="http://www.w3.org/2000/svg">
<g id="#48693386">
<path fill="#486933" opacity="0.53" d=" M 66.01 1.02 C 101.00 0.97 136.00 1.00 171.00 1.01 L 171.00 1.96 C 136.00 2.06 100.99 1.96 65.99 2.01 L 66.01 1.02 Z" />
</g>
<g id="#3f4b2b57">
<path fill="#3f4b2b" opacity="0.34" d=" M 200.99 2.00 C 225.44 -0.28 253.96 1.56 280.00 1.05 L 280.00 2.00 C 267.00 2.05 254.00 1.95 241.00 2.01 C 227.66 1.99 214.32 2.00 200.99 2.00 Z" />
</g>
<g id="#2428162c">
<path fill="#242816" opacity="0.17" d=" M 280.00 1.05 C 299.98 0.99 319.98 0.90 339.97 1.06 L 340.01 2.00 C 320.00 2.01 300.00 2.00 280.00 2.00 L 280.00 1.05 Z" />
</g>
<g id="#384f276a">
<path fill="#384f27" opacity="0.42" d=" M 57.14 3.09 C 57.49 0.80 61.53 1.23 62.92 2.49 C 61.47 2.64 58.58 2.94 57.14 3.09 Z" />
</g>
<g id="#498032ed">
<path fill="#498032" opacity="0.93" d=" M 62.92 2.49 C 63.69 2.37 65.22 2.13 65.99 2.01 C 100.99 1.96 136.00 2.06 171.00 1.96 C 176.99 1.05 183.78 5.37 183.14 11.95 C 178.54 3.33 182.44 21.52 180.10 24.16 C 180.11 22.77 180.10 21.38 180.07 20.00 C 181.00 14.81 180.00 7.67 174.27 5.74 C 172.66 5.13 170.95 4.88 169.25 4.69 C 134.20 3.64 98.92 3.33 63.89 4.85 C 60.93 3.74 58.64 4.14 57.04 6.06 C 55.49 6.23 52.39 6.56 50.84 6.73 C 29.94 12.34 9.92 28.63 6.83 50.97 L 6.00 51.14 C 5.84 50.80 5.53 50.11 5.38 49.76 C 5.25 49.37 4.98 48.57 4.85 48.18 C 9.74 26.18 29.46 8.85 51.23 4.12 C 52.53 4.19 53.85 4.03 55.02 3.44 C 55.55 3.35 56.61 3.18 57.14 3.09 C 58.58 2.94 61.47 2.64 62.92 2.49 Z" />
</g>
<g id="#508536e9">
<path fill="#508536" opacity="0.91" d=" M 193.98 9.96 C 194.02 6.43 197.48 2.42 200.99 2.00 C 214.32 2.00 227.66 1.99 241.00 2.01 L 241.00 2.98 C 228.31 2.34 215.66 4.40 202.99 3.39 C 200.69 4.31 197.74 5.42 196.83 7.93 C 196.30 9.16 195.90 10.44 195.69 11.76 C 194.74 17.46 195.05 23.25 194.97 29.00 L 194.00 29.00 C 193.97 22.65 194.00 16.31 193.98 9.96 Z" />
</g>
<g id="#6d943ccc">
<path fill="#6d943c" opacity="0.80" d=" M 241.00 2.01 C 254.00 1.95 267.00 2.05 280.00 2.00 C 300.00 2.00 320.00 2.01 340.01 2.00 C 355.00 2.08 370.00 1.85 385.00 2.05 L 385.00 3.00 C 337.00 2.99 289.00 3.03 241.00 2.98 L 241.00 2.01 Z" />
</g>
<g id="#5472319b">
<path fill="#547231" opacity="0.61" d=" M 385.00 2.05 C 413.66 1.97 442.32 1.95 470.99 2.05 L 471.02 2.99 C 442.34 3.00 413.67 3.00 385.00 3.00 L 385.00 2.05 Z" />
</g>
<g id="#4a5c2e73">
<path fill="#4a5c2e" opacity="0.45" d=" M 470.99 2.05 C 489.65 1.99 508.33 1.91 527.00 2.05 L 527.00 3.00 C 521.90 3.03 516.84 2.99 511.77 3.21 C 499.77 2.96 487.77 2.76 475.78 3.21 C 474.19 3.12 472.60 3.05 471.02 2.99 L 470.99 2.05 Z" />
</g>
<g id="#3640224c">
<path fill="#364022" opacity="0.30" d=" M 527.00 2.05 C 548.33 1.97 569.66 1.94 591.00 2.05 L 591.00 3.00 C 569.66 3.00 548.33 3.01 527.00 3.00 L 527.00 2.05 Z" />
</g>
<g id="#1f26152c">
<path fill="#1f2615" opacity="0.17" d=" M 591.00 2.05 C 617.65 1.99 644.31 1.92 670.97 2.06 L 671.01 3.00 C 644.33 3.00 617.67 3.00 591.00 3.00 L 591.00 2.05 Z" />
</g>
<g id="#314a2165">
<path fill="#314a21" opacity="0.40" d=" M 51.23 4.12 C 50.94 2.23 54.17 2.29 55.02 3.44 C 53.85 4.03 52.53 4.19 51.23 4.12 Z" />
</g>
<g id="#6fa148ff">
<path fill="#6fa148" opacity="1.00" d=" M 196.83 7.93 C 197.74 5.42 200.69 4.31 202.99 3.39 C 215.66 4.40 228.31 2.34 241.00 2.98 C 289.00 3.03 337.00 2.99 385.00 3.00 C 413.67 3.00 442.34 3.00 471.02 2.99 C 472.60 3.05 474.19 3.12 475.78 3.21 C 534.32 7.14 593.12 3.85 651.75 5.15 C 652.30 6.04 652.82 6.96 653.29 7.91 C 642.19 8.07 631.09 7.96 620.00 8.01 C 589.66 8.00 559.33 7.99 528.99 8.01 C 516.07 7.86 503.14 8.28 490.23 7.79 C 459.55 5.99 428.73 7.48 398.00 7.01 C 366.67 7.00 335.33 6.99 304.00 7.01 C 268.91 7.50 233.66 6.03 198.66 7.64 C 198.20 7.71 197.29 7.86 196.83 7.93 Z" />
</g>
<g id="#58913afd">
<path fill="#58913a" opacity="1.00" d=" M 475.78 3.21 C 487.77 2.76 499.77 2.96 511.77 3.21 C 576.40 5.08 641.18 3.41 705.87 4.05 C 706.04 4.29 706.38 4.77 706.56 5.02 C 706.34 6.33 706.65 7.63 706.90 8.91 L 706.11 8.82 C 688.58 6.93 670.88 8.60 653.29 7.91 C 652.82 6.96 652.30 6.04 651.75 5.15 C 593.12 3.85 534.32 7.14 475.78 3.21 Z" />
</g>
<g id="#588538c4">
<path fill="#588538" opacity="0.77" d=" M 511.77 3.21 C 516.84 2.99 521.90 3.03 527.00 3.00 C 548.33 3.01 569.66 3.00 591.00 3.00 C 617.67 3.00 644.33 3.00 671.01 3.00 C 682.66 3.13 694.33 2.76 706.00 3.08 L 705.87 4.05 C 641.18 3.41 576.40 5.08 511.77 3.21 Z" />
</g>
<g id="#77a361ff">
<path fill="#77a361" opacity="1.00" d=" M 63.89 4.85 C 98.92 3.33 134.20 3.64 169.25 4.69 C 147.43 5.49 125.59 4.56 103.77 5.21 C 90.48 4.75 77.18 5.21 63.89 4.85 Z" />
</g>
<g id="#98b987ff">
<path fill="#98b987" opacity="1.00" d=" M 57.04 6.06 C 58.64 4.14 60.93 3.74 63.89 4.85 C 62.37 6.89 60.08 7.30 57.04 6.06 Z" />
</g>
<g id="#eaf3e8ff">
<path fill="#eaf3e8" opacity="1.00" d=" M 63.89 4.85 C 77.18 5.21 90.48 4.75 103.77 5.21 C 127.20 6.75 150.79 5.98 174.27 5.74 C 180.00 7.67 181.00 14.81 180.07 20.00 C 179.58 19.99 178.60 19.98 178.11 19.98 C 177.98 18.22 177.88 16.44 177.38 14.74 C 177.26 13.45 176.57 12.95 175.29 13.24 C 156.94 12.55 138.57 13.47 120.23 12.78 C 108.21 11.33 96.07 12.19 84.00 12.01 C 72.28 12.71 60.25 10.62 48.67 12.70 C 33.95 16.61 19.55 26.53 13.12 40.60 C 10.17 45.70 9.38 51.60 7.89 57.22 C 7.62 55.66 7.09 52.53 6.83 50.97 C 9.92 28.63 29.94 12.34 50.84 6.73 C 52.39 6.56 55.49 6.23 57.04 6.06 C 60.08 7.30 62.37 6.89 63.89 4.85 Z" />
</g>
<g id="#c3d6b9ff">
<path fill="#c3d6b9" opacity="1.00" d=" M 103.77 5.21 C 125.59 4.56 147.43 5.49 169.25 4.69 C 170.95 4.88 172.66 5.13 174.27 5.74 C 150.79 5.98 127.20 6.75 103.77 5.21 Z" />
</g>
<g id="#344332ff">
<path fill="#344332" opacity="1.00" d=" M 706.90 8.91 C 706.65 7.63 706.34 6.33 706.56 5.02 C 715.02 6.61 723.67 5.79 732.24 6.17 C 727.06 8.86 717.29 3.23 714.70 9.80 C 708.46 9.93 708.98 16.51 715.11 16.14 C 710.36 23.97 709.24 32.93 709.94 41.96 C 707.55 37.31 709.90 28.01 708.22 21.76 C 707.47 18.31 709.77 14.32 708.14 11.07 C 707.83 10.53 707.21 9.45 706.90 8.91 Z" />
</g>
<g id="#2f5b1da1">
<path fill="#2f5b1d" opacity="0.63" d=" M 706.56 5.02 C 715.07 5.73 725.99 3.47 733.16 6.11 L 732.24 6.17 C 723.67 5.79 715.02 6.61 706.56 5.02 Z" />
</g>
<g id="#abc69dff">
<path fill="#abc69d" opacity="1.00" d=" M 50.84 6.73 C 52.39 6.56 55.49 6.23 57.04 6.06 C 55.49 6.23 52.39 6.56 50.84 6.73 Z" />
</g>
<g id="#455644fd">
<path fill="#455644" opacity="1.00" d=" M 732.24 6.17 L 733.16 6.11 C 737.74 6.49 741.66 11.37 741.04 15.99 C 740.89 50.69 741.12 85.38 740.94 120.08 C 740.83 120.58 740.62 121.58 740.51 122.08 C 740.37 123.51 740.08 126.38 739.94 127.82 C 740.02 129.34 739.19 130.67 738.59 132.01 C 737.82 133.12 737.81 134.49 737.94 135.78 C 734.88 143.13 731.98 151.27 725.63 156.40 C 724.26 153.25 726.56 150.29 727.43 147.32 C 732.61 136.09 731.56 123.27 729.65 111.39 C 725.83 109.75 726.45 106.26 727.13 102.82 C 729.33 108.87 729.00 103.46 728.86 99.25 C 728.93 98.76 729.06 97.77 729.13 97.27 C 731.14 82.68 729.26 67.89 730.21 53.23 C 730.93 41.52 731.89 29.76 731.93 18.03 C 726.60 18.07 717.57 15.64 715.83 22.86 C 714.59 34.03 709.73 44.54 709.93 55.85 C 709.45 56.18 708.51 56.84 708.03 57.16 C 707.96 48.45 708.03 39.74 707.99 31.02 C 707.99 27.93 708.07 24.84 708.22 21.76 C 709.90 28.01 707.55 37.31 709.94 41.96 C 709.24 32.93 710.36 23.97 715.11 16.14 C 720.48 16.05 725.91 16.09 731.30 15.71 C 732.48 16.06 733.54 16.78 734.33 17.74 C 734.13 22.09 733.98 26.43 733.76 30.78 C 732.42 41.21 733.06 51.75 733.22 62.23 C 733.09 64.09 732.99 65.96 732.99 67.84 C 732.91 70.87 732.86 73.93 733.07 76.96 C 737.39 78.20 734.38 71.71 734.98 69.16 C 734.96 65.84 735.02 62.54 735.20 59.23 C 736.10 53.78 735.88 48.25 735.78 42.76 C 735.87 39.25 736.02 35.73 735.82 32.22 C 735.90 31.47 736.07 29.98 736.15 29.24 C 736.91 24.17 737.70 18.79 736.27 13.77 C 734.66 11.59 731.79 10.97 729.25 10.69 C 724.39 10.11 719.55 9.99 714.70 9.80 C 717.29 3.23 727.06 8.86 732.24 6.17 Z" />
</g>
<g id="#c5dbb4ff">
<path fill="#c5dbb4" opacity="1.00" d=" M 198.66 7.64 C 233.66 6.03 268.91 7.50 304.00 7.01 L 304.00 7.99 C 268.89 7.75 233.75 8.51 198.66 7.64 Z" />
</g>
<g id="#acca91ff">
<path fill="#acca91" opacity="1.00" d=" M 304.00 7.01 C 335.33 6.99 366.67 7.00 398.00 7.01 L 398.00 7.99 C 366.66 8.01 335.33 8.01 304.00 7.99 L 304.00 7.01 Z" />
</g>
<g id="#91b571ff">
<path fill="#91b571" opacity="1.00" d=" M 398.00 7.01 C 428.73 7.48 459.55 5.99 490.23 7.79 C 469.74 8.38 449.24 7.58 428.77 8.21 C 418.51 7.86 408.25 8.05 398.00 7.99 L 398.00 7.01 Z" />
</g>
<g id="#f3fbefff">
<path fill="#f3fbef" opacity="1.00" d=" M 196.83 7.93 C 197.29 7.86 198.20 7.71 198.66 7.64 C 233.75 8.51 268.89 7.75 304.00 7.99 C 335.33 8.01 366.66 8.01 398.00 7.99 C 408.25 8.05 418.51 7.86 428.77 8.21 C 462.11 10.00 495.60 8.53 529.01 8.99 C 559.34 9.00 589.67 9.01 620.00 8.99 C 648.70 8.88 677.41 9.26 706.11 8.82 L 706.90 8.91 C 707.21 9.45 707.83 10.53 708.14 11.07 C 708.03 12.50 708.29 14.47 706.21 13.83 C 671.54 11.93 636.72 13.51 601.99 13.01 C 569.40 12.84 536.81 13.31 504.23 12.78 C 468.21 10.99 432.06 12.48 396.00 12.01 C 359.00 12.00 322.00 11.99 285.00 12.01 C 256.29 12.52 227.36 10.94 198.79 12.78 C 196.71 13.77 196.98 16.29 196.69 18.20 C 196.44 16.59 195.94 13.37 195.69 11.76 C 195.90 10.44 196.30 9.16 196.83 7.93 Z" />
</g>
<g id="#d7e8ccff">
<path fill="#d7e8cc" opacity="1.00" d=" M 428.77 8.21 C 449.24 7.58 469.74 8.38 490.23 7.79 C 503.14 8.28 516.07 7.86 528.99 8.01 L 529.01 8.99 C 495.60 8.53 462.11 10.00 428.77 8.21 Z" />
</g>
<g id="#bcd3adff">
<path fill="#bcd3ad" opacity="1.00" d=" M 528.99 8.01 C 559.33 7.99 589.66 8.00 620.00 8.01 L 620.00 8.99 C 589.67 9.01 559.34 9.00 529.01 8.99 L 528.99 8.01 Z" />
</g>
<g id="#9ebc8cff">
<path fill="#9ebc8c" opacity="1.00" d=" M 620.00 8.01 C 631.09 7.96 642.19 8.07 653.29 7.91 C 670.88 8.60 688.58 6.93 706.11 8.82 C 677.41 9.26 648.70 8.88 620.00 8.99 L 620.00 8.01 Z" />
</g>
<g id="#3f5744fc">
<path fill="#3f5744" opacity="1.00" d=" M 180.10 24.16 C 182.44 21.52 178.54 3.33 183.14 11.95 C 183.36 13.46 183.80 16.48 184.01 17.99 C 184.02 26.33 183.95 34.67 184.00 43.01 C 184.00 76.01 184.00 109.01 184.00 142.01 C 183.99 148.67 183.91 155.34 184.02 162.00 C 183.56 163.47 185.08 166.92 183.06 167.02 C 183.00 147.33 178.58 127.86 179.98 108.00 C 179.30 98.31 181.60 88.16 178.80 78.71 C 179.08 61.06 178.85 43.41 179.80 25.77 C 179.87 25.37 180.02 24.56 180.10 24.16 Z" />
</g>
<g id="#214f14b2">
<path fill="#214f14" opacity="0.70" d=" M 193.02 10.03 L 193.98 9.96 C 194.00 16.31 193.97 22.65 194.00 29.00 C 194.11 55.56 193.77 82.13 194.15 108.69 C 193.96 117.70 193.87 126.72 194.24 135.73 C 194.03 143.10 193.91 150.47 194.05 157.84 C 194.04 160.48 194.03 163.12 194.03 165.76 L 193.13 166.11 C 192.84 114.09 193.05 62.06 193.02 10.03 Z" />
</g>
<g id="#8c9387ff">
<path fill="#8c9387" opacity="1.00" d=" M 715.11 16.14 C 708.98 16.51 708.46 9.93 714.70 9.80 C 719.55 9.99 724.39 10.11 729.25 10.69 C 725.15 12.50 713.25 7.17 715.03 14.89 C 720.38 15.45 726.05 14.23 731.30 15.71 C 725.91 16.09 720.48 16.05 715.11 16.14 Z" />
</g>
<g id="#6e9456ff">
<path fill="#6e9456" opacity="1.00" d=" M 708.14 11.07 C 709.77 14.32 707.47 18.31 708.22 21.76 C 708.07 24.84 707.99 27.93 707.99 31.02 L 707.04 30.98 C 707.03 30.22 707.02 28.70 707.02 27.94 C 707.03 27.19 707.05 25.70 707.06 24.95 C 707.06 24.48 707.07 23.52 707.08 23.04 C 707.07 22.55 707.07 21.56 707.06 21.07 C 707.04 20.56 707.00 19.54 706.98 19.03 C 686.73 16.25 662.69 19.50 640.97 17.23 C 585.28 17.33 529.66 15.53 473.99 15.04 C 468.88 14.46 474.93 13.46 477.99 13.96 C 519.33 14.04 560.67 13.99 602.01 13.99 C 636.74 13.89 671.48 14.23 706.21 13.83 C 708.29 14.47 708.03 12.50 708.14 11.07 Z" />
</g>
<g id="#e8e8e7ff">
<path fill="#e8e8e7" opacity="1.00" d=" M 715.03 14.89 C 713.25 7.17 725.15 12.50 729.25 10.69 C 731.79 10.97 734.66 11.59 736.27 13.77 C 736.10 18.92 736.03 24.08 736.15 29.24 C 736.07 29.98 735.90 31.47 735.82 32.22 C 735.01 27.43 735.74 22.41 734.33 17.74 C 733.54 16.78 732.48 16.06 731.30 15.71 C 726.05 14.23 720.38 15.45 715.03 14.89 Z" />
</g>
<g id="#8fac7eff">
<path fill="#8fac7e" opacity="1.00" d=" M 48.67 12.70 C 60.25 10.62 72.28 12.71 84.00 12.01 L 84.00 12.98 C 72.22 12.90 60.43 13.34 48.67 12.70 Z" />
</g>
<g id="#c8d7bfff">
<path fill="#c8d7bf" opacity="1.00" d=" M 84.00 12.01 C 96.07 12.19 108.21 11.33 120.23 12.78 C 114.07 12.88 107.92 13.07 101.78 13.23 C 95.85 13.02 89.92 13.02 84.00 12.98 L 84.00 12.01 Z" />
</g>
<g id="#99ab8cff">
<path fill="#99ab8c" opacity="1.00" d=" M 194.97 29.00 C 195.05 23.25 194.74 17.46 195.69 11.76 C 195.94 13.37 196.44 16.59 196.69 18.20 C 194.93 26.84 201.00 40.86 195.07 47.28 C 195.00 41.18 195.03 35.09 194.97 29.00 Z" />
</g>
<g id="#9fbc87ff">
<path fill="#9fbc87" opacity="1.00" d=" M 198.79 12.78 C 227.36 10.94 256.29 12.52 285.00 12.01 L 285.00 12.99 C 266.41 13.23 247.80 12.61 229.23 13.22 C 219.08 12.92 208.93 13.16 198.79 12.78 Z" />
</g>
<g id="#bcd2a7ff">
<path fill="#bcd2a7" opacity="1.00" d=" M 285.00 12.01 C 322.00 11.99 359.00 12.00 396.00 12.01 L 396.00 12.99 C 359.00 13.00 322.00 13.01 285.00 12.99 L 285.00 12.01 Z" />
</g>
<g id="#d6e6cbff">
<path fill="#d6e6cb" opacity="1.00" d=" M 396.00 12.01 C 432.06 12.48 468.21 10.99 504.23 12.78 C 495.48 13.03 486.74 12.99 478.00 13.00 C 450.67 12.98 423.33 13.03 396.00 12.99 L 396.00 12.01 Z" />
</g>
<g id="#6b9157ff">
<path fill="#6b9157" opacity="1.00" d=" M 13.12 40.60 C 19.55 26.53 33.95 16.61 48.67 12.70 C 60.43 13.34 72.22 12.90 84.00 12.98 C 89.92 13.02 95.85 13.02 101.78 13.23 C 126.19 14.35 150.96 14.71 175.29 13.24 C 176.57 12.95 177.26 13.45 177.38 14.74 C 177.16 18.90 176.84 23.06 176.31 27.19 C 176.25 26.40 176.14 24.81 176.09 24.02 C 176.07 23.26 176.02 21.75 176.00 20.99 C 175.97 20.26 175.90 18.80 175.86 18.07 C 144.38 17.57 112.87 18.69 81.41 17.52 C 65.38 17.42 47.53 15.56 34.06 26.07 C 27.68 31.18 19.74 36.04 16.86 44.06 C 15.98 46.00 15.28 48.02 14.94 50.13 C 14.57 51.77 14.25 53.42 13.98 55.07 C 13.59 57.43 13.29 59.81 13.07 62.20 C 11.55 71.13 11.75 80.27 12.30 89.28 C 12.16 90.50 12.04 91.73 11.93 92.95 L 10.99 93.03 C 11.95 76.39 8.54 59.10 13.71 42.93 C 13.56 42.34 13.27 41.18 13.12 40.60 Z" />
</g>
<g id="#90ac7fff">
<path fill="#90ac7f" opacity="1.00" d=" M 101.78 13.23 C 107.92 13.07 114.07 12.88 120.23 12.78 C 138.57 13.47 156.94 12.55 175.29 13.24 C 150.96 14.71 126.19 14.35 101.78 13.23 Z" />
</g>
<g id="#61854cff">
<path fill="#61854c" opacity="1.00" d=" M 196.69 18.20 C 196.98 16.29 196.71 13.77 198.79 12.78 C 208.93 13.16 219.08 12.92 229.23 13.22 C 219.48 14.56 209.18 13.30 199.75 15.78 C 196.38 22.83 198.39 31.52 198.12 39.24 C 198.02 44.91 198.12 50.57 198.19 56.23 C 198.10 56.64 197.92 57.47 197.83 57.88 C 197.05 61.96 196.95 66.12 196.75 70.26 C 193.17 63.28 195.72 54.79 195.07 47.28 C 201.00 40.86 194.93 26.84 196.69 18.20 Z" />
</g>
<g id="#799d5aff">
<path fill="#799d5a" opacity="1.00" d=" M 229.23 13.22 C 247.80 12.61 266.41 13.23 285.00 12.99 C 322.00 13.01 359.00 13.00 396.00 12.99 C 423.33 13.03 450.67 12.98 478.00 13.00 L 477.99 13.96 C 474.93 13.46 468.88 14.46 473.99 15.04 C 529.66 15.53 585.28 17.33 640.97 17.23 C 662.69 19.50 686.73 16.25 706.98 19.03 C 601.30 19.28 495.72 16.52 390.00 17.03 C 329.71 15.41 269.30 15.40 209.01 17.12 C 205.44 17.68 198.83 16.49 198.97 21.98 C 198.96 22.51 198.95 23.56 198.94 24.09 C 198.95 24.82 198.97 26.29 198.98 27.02 C 198.99 27.79 199.01 29.34 199.02 30.11 C 199.02 31.43 199.04 32.75 199.07 34.08 C 199.07 34.83 199.07 36.32 199.07 37.07 C 198.83 37.62 198.36 38.70 198.12 39.24 C 198.39 31.52 196.38 22.83 199.75 15.78 C 209.18 13.30 219.48 14.56 229.23 13.22 Z" />
</g>
<g id="#97b580ff">
<path fill="#97b580" opacity="1.00" d=" M 478.00 13.00 C 486.74 12.99 495.48 13.03 504.23 12.78 C 536.81 13.31 569.40 12.84 601.99 13.01 L 602.01 13.99 C 560.67 13.99 519.33 14.04 477.99 13.96 L 478.00 13.00 Z" />
</g>
<g id="#bacdadff">
<path fill="#bacdad" opacity="1.00" d=" M 601.99 13.01 C 636.72 13.51 671.54 11.93 706.21 13.83 C 671.48 14.23 636.74 13.89 602.01 13.99 L 601.99 13.01 Z" />
</g>
<g id="#889182ff">
<path fill="#889182" opacity="1.00" d=" M 736.27 13.77 C 737.70 18.79 736.91 24.17 736.15 29.24 C 736.03 24.08 736.10 18.92 736.27 13.77 Z" />
</g>
<g id="#79956eff">
<path fill="#79956e" opacity="1.00" d=" M 177.38 14.74 C 177.88 16.44 177.98 18.22 178.11 19.98 C 178.78 24.87 176.55 30.87 178.75 35.30 C 178.87 32.12 178.86 28.85 179.80 25.77 C 178.85 43.41 179.08 61.06 178.80 78.71 C 175.45 82.97 179.35 89.72 175.21 93.35 C 175.15 91.54 175.02 87.93 174.95 86.13 C 175.18 77.68 174.74 69.24 174.32 60.82 C 174.73 63.25 174.10 69.27 176.79 65.71 C 175.88 54.81 175.91 43.87 175.98 32.94 C 176.04 31.29 176.12 29.64 176.23 28.00 L 176.31 27.19 C 176.84 23.06 177.16 18.90 177.38 14.74 Z" />
</g>
<g id="#82a067ff">
<path fill="#82a067" opacity="1.00" d=" M 209.01 17.12 C 269.30 15.40 329.71 15.41 390.00 17.03 C 495.72 16.52 601.30 19.28 706.98 19.03 C 707.00 19.54 707.04 20.56 707.06 21.07 C 684.10 23.95 661.02 20.16 638.00 21.00 C 579.64 21.67 521.36 19.24 463.00 20.03 C 409.71 17.73 356.31 20.09 303.02 18.04 C 276.66 18.00 250.26 17.34 223.97 19.76 C 215.73 20.93 206.70 18.13 198.97 21.98 C 198.83 16.49 205.44 17.68 209.01 17.12 Z" />
</g>
<g id="#233d1f9c">
<path fill="#233d1f" opacity="0.61" d=" M 741.04 15.99 L 741.99 16.01 C 741.95 50.65 742.11 85.31 741.93 119.95 L 740.94 120.08 C 741.12 85.38 740.89 50.69 741.04 15.99 Z" />
</g>
<g id="#759662ff">
<path fill="#759662" opacity="1.00" d=" M 34.06 26.07 C 47.53 15.56 65.38 17.42 81.41 17.52 C 112.87 18.69 144.38 17.57 175.86 18.07 C 175.90 18.80 175.97 20.26 176.00 20.99 C 137.34 21.08 98.67 20.85 60.01 21.09 C 42.73 21.07 27.88 31.60 16.86 44.06 C 19.74 36.04 27.68 31.18 34.06 26.07 Z" />
</g>
<g id="#192d1989">
<path fill="#192d19" opacity="0.54" d=" M 184.01 17.99 C 186.14 24.55 184.75 34.76 184.95 42.99 L 184.00 43.01 C 183.95 34.67 184.02 26.33 184.01 17.99 Z" />
</g>
<g id="#8ca572ff">
<path fill="#8ca572" opacity="1.00" d=" M 223.97 19.76 C 250.26 17.34 276.66 18.00 303.02 18.04 C 356.31 20.09 409.71 17.73 463.00 20.03 C 521.36 19.24 579.64 21.67 638.00 21.00 C 661.02 20.16 684.10 23.95 707.06 21.07 C 707.07 21.56 707.07 22.55 707.08 23.04 C 695.96 27.64 683.55 23.03 672.00 23.96 C 614.97 24.72 558.01 22.62 500.98 22.86 C 449.69 20.81 398.28 23.28 347.00 20.96 C 297.70 21.97 247.97 18.63 198.94 24.09 C 198.95 23.56 198.96 22.51 198.97 21.98 C 206.70 18.13 215.73 20.93 223.97 19.76 Z" />
</g>
<g id="#636d5eff">
<path fill="#636d5e" opacity="1.00" d=" M 715.83 22.86 C 717.57 15.64 726.60 18.07 731.93 18.03 C 731.89 29.76 730.93 41.52 730.21 53.23 C 729.77 44.39 730.61 35.36 729.39 26.64 C 727.85 21.03 718.97 21.68 718.54 27.61 C 716.30 37.21 714.27 47.12 714.78 57.03 C 714.34 57.03 713.45 57.04 713.00 57.04 C 712.24 57.00 710.72 56.92 709.96 56.88 L 709.93 55.85 C 709.73 44.54 714.59 34.03 715.83 22.86 Z" />
</g>
<g id="#c7c8c3ff">
<path fill="#c7c8c3" opacity="1.00" d=" M 734.33 17.74 C 735.74 22.41 735.01 27.43 735.82 32.22 C 736.02 35.73 735.87 39.25 735.78 42.76 C 734.90 48.21 735.09 53.74 735.20 59.23 C 735.02 62.54 734.96 65.84 734.98 69.16 C 734.48 68.83 733.49 68.17 732.99 67.84 C 732.99 65.96 733.09 64.09 733.22 62.23 C 734.59 51.80 733.92 41.25 733.76 30.78 C 733.98 26.43 734.13 22.09 734.33 17.74 Z" />
</g>
<g id="#bacdb3ff">
<path fill="#bacdb3" opacity="1.00" d=" M 178.11 19.98 C 178.60 19.98 179.58 19.99 180.07 20.00 C 180.10 21.38 180.11 22.77 180.10 24.16 C 180.02 24.56 179.87 25.37 179.80 25.77 C 178.86 28.85 178.87 32.12 178.75 35.30 C 176.55 30.87 178.78 24.87 178.11 19.98 Z" />
</g>
<g id="#829c70ff">
<path fill="#829c70" opacity="1.00" d=" M 16.86 44.06 C 27.88 31.60 42.73 21.07 60.01 21.09 C 98.67 20.85 137.34 21.08 176.00 20.99 C 176.02 21.75 176.07 23.26 176.09 24.02 C 138.10 24.12 100.11 23.74 62.13 24.18 C 43.30 24.64 25.00 33.98 14.94 50.13 C 15.28 48.02 15.98 46.00 16.86 44.06 Z" />
</g>
<g id="#95ab7eff">
<path fill="#95ab7e" opacity="1.00" d=" M 198.94 24.09 C 247.97 18.63 297.70 21.97 347.00 20.96 C 398.28 23.28 449.69 20.81 500.98 22.86 C 558.01 22.62 614.97 24.72 672.00 23.96 C 683.55 23.03 695.96 27.64 707.08 23.04 C 707.07 23.52 707.06 24.48 707.06 24.95 C 703.88 28.11 698.93 26.47 695.02 27.03 C 605.65 27.15 516.36 25.22 427.00 25.00 C 364.75 25.77 302.56 22.71 240.32 24.39 C 226.58 26.23 212.44 22.98 198.98 27.02 C 198.97 26.29 198.95 24.82 198.94 24.09 Z" />
</g>
<g id="#82867aff">
<path fill="#82867a" opacity="1.00" d=" M 718.54 27.61 C 718.97 21.68 727.85 21.03 729.39 26.64 C 730.61 35.36 729.77 44.39 730.21 53.23 C 729.26 67.89 731.14 82.68 729.13 97.27 C 728.89 85.59 729.21 73.90 728.82 62.22 C 727.59 52.06 732.52 37.69 724.00 29.74 C 716.90 36.32 717.34 48.01 716.71 57.03 L 715.76 57.05 L 714.78 57.03 C 714.27 47.12 716.30 37.21 718.54 27.61 Z" />
</g>
<g id="#92a682ff">
<path fill="#92a682" opacity="1.00" d=" M 14.94 50.13 C 25.00 33.98 43.30 24.64 62.13 24.18 C 100.11 23.74 138.10 24.12 176.09 24.02 C 176.14 24.81 176.25 26.40 176.31 27.19 L 176.23 28.00 C 152.72 26.73 128.45 29.33 104.70 27.52 C 82.87 27.04 60.28 25.70 39.09 32.07 C 27.58 35.44 19.98 45.28 13.98 55.07 C 14.25 53.42 14.57 51.77 14.94 50.13 Z" />
</g>
<g id="#9fb18aff">
<path fill="#9fb18a" opacity="1.00" d=" M 240.32 24.39 C 302.56 22.71 364.75 25.77 427.00 25.00 C 516.36 25.22 605.65 27.15 695.02 27.03 C 698.93 26.47 703.88 28.11 707.06 24.95 C 707.05 25.70 707.03 27.19 707.02 27.94 C 700.58 33.77 690.89 30.02 683.14 30.73 C 622.97 29.65 562.78 29.41 502.64 28.54 C 443.48 26.81 384.14 29.47 325.00 26.96 C 283.03 27.84 240.72 24.94 199.02 30.11 C 199.01 29.34 198.99 27.79 198.98 27.02 C 212.44 22.98 226.58 26.23 240.32 24.39 Z" />
</g>
<g id="#a2b194ff">
<path fill="#a2b194" opacity="1.00" d=" M 39.09 32.07 C 60.28 25.70 82.87 27.04 104.70 27.52 C 128.45 29.33 152.72 26.73 176.23 28.00 C 176.12 29.64 176.04 31.29 175.98 32.94 C 140.43 30.90 104.66 32.33 69.04 32.20 C 53.94 34.00 35.23 31.12 24.18 44.16 C 18.56 48.81 16.70 56.16 13.07 62.20 C 13.29 59.81 13.59 57.43 13.98 55.07 C 19.98 45.28 27.58 35.44 39.09 32.07 Z" />
</g>
<g id="#a8b896ff">
<path fill="#a8b896" opacity="1.00" d=" M 199.02 30.11 C 240.72 24.94 283.03 27.84 325.00 26.96 C 384.14 29.47 443.48 26.81 502.64 28.54 C 562.78 29.41 622.97 29.65 683.14 30.73 C 690.89 30.02 700.58 33.77 707.02 27.94 C 707.02 28.70 707.03 30.22 707.04 30.98 L 707.02 31.96 C 703.93 34.66 699.88 35.29 695.99 34.34 C 543.67 33.79 391.47 30.61 239.17 31.33 C 225.83 32.74 212.20 30.70 199.07 34.08 C 199.04 32.75 199.02 31.43 199.02 30.11 Z" />
</g>
<g id="#456833ff">
<path fill="#456833" opacity="1.00" d=" M 194.00 29.00 L 194.97 29.00 C 195.03 35.09 195.00 41.18 195.07 47.28 C 195.72 54.79 193.17 63.28 196.75 70.26 C 197.39 86.59 196.62 102.94 197.23 119.28 C 197.17 120.60 197.15 121.92 197.16 123.25 C 201.87 117.33 196.17 108.11 200.19 102.20 C 208.48 102.68 216.65 104.29 224.82 105.71 C 227.63 104.65 226.54 97.96 229.89 99.97 C 229.91 100.51 229.95 101.58 229.97 102.11 C 228.58 102.90 228.76 104.66 229.27 105.93 C 228.23 107.88 228.49 110.15 229.44 112.08 C 229.24 112.79 228.83 114.22 228.63 114.93 C 227.10 117.45 227.00 119.83 228.34 122.06 C 228.21 122.80 227.97 124.27 227.84 125.00 L 227.04 125.03 C 227.02 123.66 226.98 122.29 226.89 120.92 C 223.33 121.00 224.94 127.30 221.13 127.19 C 213.29 127.63 204.09 121.30 197.93 128.88 C 194.24 122.73 198.27 114.38 194.15 108.69 C 193.77 82.13 194.11 55.56 194.00 29.00 Z" />
</g>
<g id="#9fa098ff">
<path fill="#9fa098" opacity="1.00" d=" M 716.71 57.03 C 717.34 48.01 716.90 36.32 724.00 29.74 C 732.52 37.69 727.59 52.06 728.82 62.22 C 727.08 55.74 729.90 45.20 723.16 41.05 C 719.31 45.23 719.06 51.64 719.82 56.98 C 719.05 56.99 717.49 57.02 716.71 57.03 Z" />
</g>
<g id="#b3c0a3ff">
<path fill="#b3c0a3" opacity="1.00" d=" M 199.07 34.08 C 212.20 30.70 225.83 32.74 239.17 31.33 C 391.47 30.61 543.67 33.79 695.99 34.34 C 699.88 35.29 703.93 34.66 707.02 31.96 C 707.02 33.31 707.01 34.66 707.01 36.02 C 704.56 37.26 701.89 38.66 699.00 37.93 C 644.29 38.73 589.67 36.61 534.98 36.92 C 481.02 34.67 426.93 37.43 373.00 34.96 C 315.03 35.82 256.92 33.08 199.07 37.07 C 199.07 36.32 199.07 34.83 199.07 34.08 Z" />
</g>
<g id="#93a189ff">
<path fill="#93a189" opacity="1.00" d=" M 707.04 30.98 L 707.99 31.02 C 708.03 39.74 707.96 48.45 708.03 57.16 C 707.88 67.40 708.10 77.63 707.97 87.86 C 707.34 88.66 706.70 89.44 706.06 90.22 C 705.97 82.73 705.97 75.23 705.77 67.75 C 705.97 65.90 706.17 64.04 706.34 62.19 C 706.71 58.45 706.93 54.70 707.00 50.94 C 707.02 49.65 707.03 48.35 707.02 47.06 C 707.02 45.70 707.02 44.35 707.01 43.00 C 707.01 42.23 707.00 40.68 707.00 39.91 C 707.00 38.61 707.01 37.31 707.01 36.02 C 707.01 34.66 707.02 33.31 707.02 31.96 L 707.04 30.98 Z" />
</g>
<g id="#868e80ff">
<path fill="#868e80" opacity="1.00" d=" M 733.22 62.23 C 733.06 51.75 732.42 41.21 733.76 30.78 C 733.92 41.25 734.59 51.80 733.22 62.23 Z" />
</g>
<g id="#afbca4ff">
<path fill="#afbca4" opacity="1.00" d=" M 24.18 44.16 C 35.23 31.12 53.94 34.00 69.04 32.20 C 104.66 32.33 140.43 30.90 175.98 32.94 C 175.91 43.87 175.88 54.81 176.79 65.71 C 174.10 69.27 174.73 63.25 174.32 60.82 C 174.33 60.38 174.35 59.51 174.36 59.07 C 174.72 55.72 175.08 52.37 175.02 49.00 C 175.05 47.00 175.05 44.99 175.04 42.99 C 174.79 41.03 175.69 38.41 173.72 37.12 C 134.26 37.02 94.77 36.70 55.32 37.28 C 41.99 36.39 27.59 40.42 20.08 52.02 C 14.86 60.08 11.79 69.61 13.20 79.31 C 13.11 82.64 13.16 86.03 12.30 89.28 C 11.75 80.27 11.55 71.13 13.07 62.20 C 16.70 56.16 18.56 48.81 24.18 44.16 Z" />
</g>
<g id="#bdc9b0ff">
<path fill="#bdc9b0" opacity="1.00" d=" M 199.07 37.07 C 256.92 33.08 315.03 35.82 373.00 34.96 C 426.93 37.43 481.02 34.67 534.98 36.92 C 589.67 36.61 644.29 38.73 699.00 37.93 C 701.89 38.66 704.56 37.26 707.01 36.02 C 707.01 37.31 707.00 38.61 707.00 39.91 C 702.64 41.96 697.73 42.16 693.02 42.08 C 642.06 39.33 590.94 42.70 540.00 39.95 C 530.37 40.76 520.12 38.20 510.85 41.55 C 508.08 42.41 505.15 42.77 502.31 43.11 C 493.39 40.96 483.82 39.71 474.81 41.99 C 471.38 41.52 467.90 41.63 464.46 41.84 C 459.30 38.59 452.71 40.59 447.00 39.96 C 365.83 41.18 284.65 36.92 203.53 40.38 C 197.82 38.12 199.27 42.57 198.98 45.09 C 198.98 45.86 198.97 47.39 198.97 48.16 C 198.86 50.86 199.05 53.63 198.19 56.23 C 198.12 50.57 198.02 44.91 198.12 39.24 C 198.36 38.70 198.83 37.62 199.07 37.07 Z" />
</g>
<g id="#bfc9b7ff">
<path fill="#bfc9b7" opacity="1.00" d=" M 55.32 37.28 C 94.77 36.70 134.26 37.02 173.72 37.12 C 175.69 38.41 174.79 41.03 175.04 42.99 C 151.43 42.91 127.82 43.18 104.22 42.90 C 97.91 43.06 89.16 39.03 83.96 43.75 C 67.81 42.29 51.45 42.69 35.32 44.36 C 26.48 47.35 16.78 55.01 17.08 65.21 C 15.99 69.93 15.98 75.23 13.20 79.31 C 11.79 69.61 14.86 60.08 20.08 52.02 C 27.59 40.42 41.99 36.39 55.32 37.28 Z" />
</g>
<g id="#c9d4bfff">
<path fill="#c9d4bf" opacity="1.00" d=" M 203.53 40.38 C 284.65 36.92 365.83 41.18 447.00 39.96 C 452.71 40.59 459.30 38.59 464.46 41.84 C 463.36 42.96 462.25 44.07 461.10 45.14 C 420.21 42.11 378.99 45.65 338.02 43.04 C 291.69 43.65 245.16 41.26 198.98 45.09 C 199.27 42.57 197.82 38.12 203.53 40.38 Z" />
</g>
<g id="#c6d0bdff">
<path fill="#c6d0bd" opacity="1.00" d=" M 510.85 41.55 C 520.12 38.20 530.37 40.76 540.00 39.95 C 590.94 42.70 642.06 39.33 693.02 42.08 C 697.73 42.16 702.64 41.96 707.00 39.91 C 707.00 40.68 707.01 42.23 707.01 43.00 C 689.44 48.09 670.19 43.42 651.99 44.65 C 619.37 43.08 586.67 44.62 554.03 43.83 C 540.47 42.53 526.77 42.52 513.23 43.99 C 512.84 42.78 512.04 41.96 510.85 41.55 Z" />
</g>
<g id="#476f35fe">
<path fill="#476f35" opacity="1.00" d=" M 13.12 40.60 C 13.27 41.18 13.56 42.34 13.71 42.93 C 8.54 59.10 11.95 76.39 10.99 93.03 C 11.02 103.76 10.86 114.49 11.09 125.22 C 15.64 120.61 12.03 112.24 12.79 106.17 C 12.91 105.65 13.14 104.62 13.25 104.10 C 14.89 101.63 15.02 99.24 13.64 96.95 C 17.15 84.43 14.70 67.94 25.22 58.57 C 22.54 66.80 16.64 75.49 20.19 84.80 C 31.57 87.30 43.43 87.55 54.96 89.49 C 58.57 86.58 64.25 91.66 66.12 86.08 C 70.85 82.73 68.94 73.83 74.30 72.07 C 70.15 86.50 63.85 100.30 60.16 114.86 C 60.26 115.21 60.47 115.91 60.58 116.26 L 60.85 117.19 L 59.78 117.21 C 55.84 116.57 61.29 120.14 61.92 121.77 C 58.78 123.85 55.48 125.68 51.94 126.98 C 48.29 128.23 46.62 133.89 42.15 132.30 C 40.57 140.69 31.05 140.24 25.16 144.25 C 14.72 143.90 14.41 157.56 5.73 160.64 C 1.25 163.10 5.19 152.24 3.22 150.77 C 2.80 121.88 2.96 92.99 3.14 64.10 L 3.22 63.24 C 3.60 60.14 3.96 57.03 4.10 53.91 C 4.18 53.40 4.34 52.40 4.42 51.89 C 4.66 51.36 5.14 50.30 5.38 49.76 C 5.53 50.11 5.84 50.80 6.00 51.14 C 5.99 59.41 4.32 67.63 5.07 75.90 C 5.54 78.33 10.62 81.74 7.00 73.06 C 6.99 67.76 7.94 62.52 7.89 57.22 C 9.38 51.60 10.17 45.70 13.12 40.60 Z" />
</g>
<g id="#fbfcfbff">
<path fill="#fbfcfb" opacity="1.00" d=" M 464.46 41.84 C 467.90 41.63 471.38 41.52 474.81 41.99 C 476.25 43.66 477.73 45.28 479.18 46.94 C 479.85 49.22 480.41 51.52 481.00 53.82 C 480.74 54.10 480.22 54.66 479.96 54.95 C 475.78 64.37 463.05 63.89 458.94 55.00 C 458.68 54.71 458.15 54.13 457.89 53.84 C 457.29 52.14 458.40 50.61 458.98 49.07 C 459.67 47.75 460.36 46.44 461.10 45.14 C 462.25 44.07 463.36 42.96 464.46 41.84 Z" />
</g>
<g id="#cdd7c4ff">
<path fill="#cdd7c4" opacity="1.00" d=" M 474.81 41.99 C 483.82 39.71 493.39 40.96 502.31 43.11 C 499.40 43.81 495.62 43.11 493.88 46.03 C 489.08 47.29 484.08 47.04 479.18 46.94 C 477.73 45.28 476.25 43.66 474.81 41.99 Z" />
</g>
<g id="#bdbcb8ff">
<path fill="#bdbcb8" opacity="1.00" d=" M 723.16 41.05 C 729.90 45.20 727.08 55.74 728.82 62.22 C 729.21 73.90 728.89 85.59 729.13 97.27 C 729.06 97.77 728.93 98.76 728.86 99.25 C 726.86 88.50 729.13 77.43 727.36 66.70 C 726.70 62.35 724.24 58.29 719.82 56.98 C 719.06 51.64 719.31 45.23 723.16 41.05 Z" />
</g>
<g id="#fdfdfdff">
<path fill="#fdfdfd" opacity="1.00" d=" M 83.96 43.75 C 89.16 39.03 97.91 43.06 104.22 42.90 C 103.68 44.21 103.13 45.52 102.61 46.85 C 101.49 49.39 100.45 52.21 101.79 54.89 C 101.32 55.14 100.37 55.64 99.89 55.89 C 98.43 57.27 98.51 59.66 97.87 61.50 C 93.23 73.85 88.76 86.32 84.84 98.91 C 90.55 99.04 96.27 99.23 101.98 98.97 C 104.52 95.24 102.12 87.34 103.09 82.08 C 109.12 81.90 115.15 82.01 121.18 81.78 C 120.80 100.85 121.10 119.91 120.98 138.98 C 114.99 139.10 109.00 139.21 103.02 138.97 C 102.02 131.62 104.79 122.31 102.22 115.74 C 88.36 113.95 74.15 115.62 60.16 114.86 C 63.85 100.30 70.15 86.50 74.30 72.07 C 76.17 66.69 78.51 61.47 79.94 55.95 L 80.18 55.07 C 81.14 52.71 82.12 50.36 82.86 47.92 C 83.29 46.55 83.64 45.15 83.96 43.75 Z" />
<path fill="#fdfdfd" opacity="1.00" d=" M 459.69 70.74 C 465.88 71.01 472.07 70.98 478.27 70.73 C 477.67 93.13 478.17 115.55 477.98 137.96 C 472.46 136.76 461.44 141.58 459.66 135.29 C 460.30 113.79 460.13 92.25 459.69 70.74 Z" />
</g>
<g id="#fefefdff">
<path fill="#fefefd" opacity="1.00" d=" M 502.31 43.11 C 505.15 42.77 508.08 42.41 510.85 41.55 C 512.04 41.96 512.84 42.78 513.23 43.99 C 513.19 44.74 513.12 46.25 513.08 47.00 C 513.07 47.75 513.03 49.25 513.01 50.00 C 512.96 51.31 512.91 52.62 512.87 53.92 L 512.78 54.83 C 510.97 82.48 512.52 110.27 511.98 137.98 C 505.99 138.10 500.00 138.21 494.02 137.97 C 493.41 109.93 495.07 81.67 493.31 53.75 C 493.45 51.17 493.63 48.60 493.88 46.03 C 495.62 43.11 499.40 43.81 502.31 43.11 Z" />
<path fill="#fefefd" opacity="1.00" d=" M 529.17 84.09 C 532.50 76.90 539.22 71.96 546.73 69.76 C 550.58 69.99 554.38 69.84 558.26 69.73 C 563.07 70.33 566.39 74.16 569.96 77.02 C 573.66 74.28 577.35 71.44 581.70 69.76 C 585.56 69.99 589.37 69.85 593.26 69.73 C 598.27 70.82 602.47 74.02 606.75 76.70 C 609.55 81.10 612.51 85.68 613.08 91.00 C 613.29 106.40 612.14 121.87 613.80 137.21 L 613.80 138.05 C 607.86 138.01 601.94 138.01 596.02 137.97 C 595.49 123.57 596.97 109.01 595.36 94.70 C 594.93 89.69 589.74 82.34 584.32 86.32 C 581.71 87.96 580.50 90.94 579.75 93.79 C 578.10 108.44 579.36 123.25 579.00 137.97 C 573.33 138.00 567.67 138.00 562.02 137.97 C 561.32 123.63 563.26 108.93 561.23 94.77 C 561.01 94.22 560.56 93.12 560.33 92.56 C 559.89 82.95 545.91 83.27 545.71 92.77 C 544.17 107.77 545.32 122.90 545.00 137.97 C 539.32 138.00 533.65 138.01 527.99 137.99 C 527.93 121.91 528.23 105.83 527.74 89.76 C 527.99 87.82 528.57 85.95 529.17 84.09 Z" />
</g>
<g id="#cfd6c9ff">
<path fill="#cfd6c9" opacity="1.00" d=" M 35.32 44.36 C 51.45 42.69 67.81 42.29 83.96 43.75 C 83.64 45.15 83.29 46.55 82.86 47.92 C 65.24 48.46 47.27 46.47 30.01 50.98 C 23.98 53.76 20.11 59.55 17.08 65.21 C 16.78 55.01 26.48 47.35 35.32 44.36 Z" />
</g>
<g id="#d0d7caff">
<path fill="#d0d7ca" opacity="1.00" d=" M 104.22 42.90 C 127.82 43.18 151.43 42.91 175.04 42.99 C 175.05 44.99 175.05 47.00 175.02 49.00 C 151.08 48.84 127.12 49.31 103.19 48.81 C 103.04 48.32 102.76 47.34 102.61 46.85 C 103.13 45.52 103.68 44.21 104.22 42.90 Z" />
</g>
<g id="#25322ad2">
<path fill="#25322a" opacity="0.82" d=" M 184.00 43.01 L 184.95 42.99 C 185.03 75.99 185.04 108.99 184.95 141.99 L 184.00 142.01 C 184.00 109.01 184.00 76.01 184.00 43.01 Z" />
</g>
<g id="#d7dfcfff">
<path fill="#d7dfcf" opacity="1.00" d=" M 198.98 45.09 C 245.16 41.26 291.69 43.65 338.02 43.04 C 378.99 45.65 420.21 42.11 461.10 45.14 C 460.36 46.44 459.67 47.75 458.98 49.07 C 404.06 46.63 349.00 48.86 294.03 47.79 C 262.36 45.88 230.53 48.90 198.97 48.16 C 198.97 47.39 198.98 45.86 198.98 45.09 Z" />
</g>
<g id="#d0d8caff">
<path fill="#d0d8ca" opacity="1.00" d=" M 513.23 43.99 C 526.77 42.52 540.47 42.53 554.03 43.83 C 586.67 44.62 619.37 43.08 651.99 44.65 C 670.19 43.42 689.44 48.09 707.01 43.00 C 707.02 44.35 707.02 45.70 707.02 47.06 C 642.46 49.49 577.74 45.61 513.08 47.00 C 513.12 46.25 513.19 44.74 513.23 43.99 Z" />
</g>
<g id="#848e81ff">
<path fill="#848e81" opacity="1.00" d=" M 735.20 59.23 C 735.09 53.74 734.90 48.21 735.78 42.76 C 735.88 48.25 736.10 53.78 735.20 59.23 Z" />
</g>
<g id="#e3e9deff">
<path fill="#e3e9de" opacity="1.00" d=" M 479.18 46.94 C 484.08 47.04 489.08 47.29 493.88 46.03 C 493.63 48.60 493.45 51.17 493.31 53.75 C 489.20 53.82 485.09 53.85 481.00 53.82 C 480.41 51.52 479.85 49.22 479.18 46.94 Z" />
</g>
<g id="#e1e6dfff">
<path fill="#e1e6df" opacity="1.00" d=" M 101.79 54.89 C 100.45 52.21 101.49 49.39 102.61 46.85 C 102.76 47.34 103.04 48.32 103.19 48.81 C 127.12 49.31 151.08 48.84 175.02 49.00 C 175.08 52.37 174.72 55.72 174.36 59.07 C 173.35 58.02 172.27 57.02 170.93 56.42 C 170.50 56.25 169.65 55.91 169.23 55.74 C 146.83 53.95 124.26 55.62 101.79 54.89 Z" />
</g>
<g id="#e4eadfff">
<path fill="#e4eadf" opacity="1.00" d=" M 198.97 48.16 C 230.53 48.90 262.36 45.88 294.03 47.79 C 349.00 48.86 404.06 46.63 458.98 49.07 C 458.40 50.61 457.29 52.14 457.89 53.84 C 435.59 54.16 413.30 53.94 391.00 53.99 L 391.00 53.02 C 411.33 52.98 431.67 52.97 452.01 53.06 C 453.29 52.68 455.80 53.83 456.18 52.03 C 429.03 52.38 401.80 51.11 374.71 52.70 C 355.54 53.22 336.35 53.13 317.18 52.77 C 314.58 48.55 309.10 50.45 305.01 49.90 C 300.70 50.64 294.20 47.78 292.00 52.98 C 281.00 53.02 270.00 53.03 259.00 52.98 C 256.94 48.18 251.03 50.58 247.01 49.91 C 243.41 51.22 235.93 47.10 235.00 52.65 C 224.63 53.53 214.08 52.12 203.80 53.76 C 200.69 55.93 198.72 59.42 198.60 63.23 C 198.27 61.46 197.98 59.68 197.83 57.88 C 197.92 57.47 198.10 56.64 198.19 56.23 C 199.05 53.63 198.86 50.86 198.97 48.16 Z" />
</g>
<g id="#dbe1d6ff">
<path fill="#dbe1d6" opacity="1.00" d=" M 513.08 47.00 C 577.74 45.61 642.46 49.49 707.02 47.06 C 707.03 48.35 707.02 49.65 707.00 50.94 C 689.06 53.64 671.01 50.13 653.00 50.98 C 606.30 51.72 559.68 50.01 513.01 50.00 C 513.03 49.25 513.07 47.75 513.08 47.00 Z" />
</g>
<g id="#264a1a64">
<path fill="#264a1a" opacity="0.39" d=" M 4.42 51.89 C 3.51 51.05 3.22 48.21 4.85 48.18 C 4.98 48.57 5.25 49.37 5.38 49.76 C 5.14 50.30 4.66 51.36 4.42 51.89 Z" />
</g>
<g id="#dee3dbff">
<path fill="#dee3db" opacity="1.00" d=" M 30.01 50.98 C 47.27 46.47 65.24 48.46 82.86 47.92 C 82.12 50.36 81.14 52.71 80.18 55.07 C 64.37 55.41 48.43 54.05 32.71 55.72 C 31.70 55.96 30.70 56.24 29.72 56.56 C 28.15 57.05 26.54 57.57 25.22 58.57 C 14.70 67.94 17.15 84.43 13.64 96.95 C 12.17 99.45 12.04 101.84 13.25 104.10 C 13.14 104.62 12.91 105.65 12.79 106.17 C 12.25 101.78 11.99 97.37 11.93 92.95 C 12.04 91.73 12.16 90.50 12.30 89.28 C 13.16 86.03 13.11 82.64 13.20 79.31 C 15.98 75.23 15.99 69.93 17.08 65.21 C 20.11 59.55 23.98 53.76 30.01 50.98 Z" />
</g>
<g id="#fdfdfcff">
<path fill="#fdfdfc" opacity="1.00" d=" M 235.00 52.65 C 235.93 47.10 243.41 51.22 247.01 49.91 C 251.03 50.58 256.94 48.18 259.00 52.98 L 259.16 53.95 C 264.15 70.11 269.62 86.56 275.71 102.16 C 279.44 85.56 287.29 70.24 291.82 53.93 L 292.00 52.98 C 294.20 47.78 300.70 50.64 305.01 49.90 C 309.10 50.45 314.58 48.55 317.18 52.77 C 313.50 52.52 315.20 56.75 315.77 59.12 L 315.97 59.90 C 316.08 62.97 315.55 66.21 316.83 69.11 L 317.09 69.86 C 317.07 73.32 316.59 76.92 317.76 80.27 L 317.95 81.01 C 316.90 83.83 317.21 86.20 318.86 88.12 C 318.93 88.81 319.06 90.18 319.12 90.87 C 317.84 93.78 318.09 96.20 319.87 98.12 C 319.94 98.81 320.09 100.18 320.17 100.86 C 320.34 102.43 320.68 105.56 320.86 107.13 C 320.91 107.85 321.01 109.29 321.07 110.01 C 319.85 112.83 320.16 115.15 321.97 116.99 L 322.18 117.73 C 322.21 120.58 321.85 123.51 322.78 126.27 L 322.96 127.01 C 321.82 129.93 322.16 132.29 323.99 134.09 C 323.97 134.80 323.95 136.23 323.93 136.94 C 317.89 136.98 311.86 137.07 305.83 137.22 C 304.44 136.10 305.11 133.87 304.66 132.29 C 304.68 129.13 305.40 125.90 304.36 122.85 C 304.22 122.38 303.93 121.44 303.78 120.97 C 305.06 118.23 304.86 115.87 303.20 113.87 C 303.01 112.68 302.83 111.49 302.66 110.29 C 302.62 107.42 303.01 104.52 302.33 101.71 C 302.11 100.57 301.89 99.43 301.66 98.29 C 301.76 95.08 302.18 91.85 301.35 88.71 C 301.13 85.71 301.07 82.73 300.78 79.75 C 295.39 93.71 291.28 108.50 285.23 122.24 C 278.48 122.04 271.74 122.01 265.00 122.02 C 260.64 109.42 255.24 97.07 251.98 84.14 C 251.42 82.24 251.96 78.54 249.04 78.87 C 248.92 83.65 249.00 88.44 249.21 93.22 C 249.16 93.63 249.04 94.44 248.98 94.85 C 248.31 97.93 248.00 101.08 248.17 104.23 C 248.04 105.75 247.89 107.27 247.75 108.79 C 247.23 112.25 246.98 115.74 247.09 119.24 C 247.02 119.87 246.88 121.15 246.81 121.79 C 246.38 124.83 246.04 127.91 246.09 130.99 C 245.81 132.38 245.92 133.74 246.41 135.09 C 246.30 135.55 246.07 136.46 245.95 136.92 C 239.64 137.01 233.34 137.02 227.04 136.98 C 226.99 135.35 227.06 133.72 227.14 132.10 C 228.72 129.66 228.95 127.29 227.84 125.00 C 227.97 124.27 228.21 122.80 228.34 122.06 C 229.88 119.54 229.98 117.16 228.63 114.93 C 228.83 114.22 229.24 112.79 229.44 112.08 C 229.56 110.55 229.80 107.48 229.93 105.94 C 230.03 105.20 230.23 103.70 230.33 102.95 C 230.56 100.25 230.79 97.55 230.86 94.84 L 230.97 94.05 C 231.37 91.29 231.75 88.53 232.04 85.76 C 232.11 85.32 232.25 84.44 232.31 84.00 C 233.52 81.63 233.73 79.29 232.95 76.97 C 233.05 76.51 233.25 75.58 233.36 75.11 C 234.88 72.56 234.97 70.16 233.63 67.92 C 233.77 67.48 234.06 66.61 234.21 66.18 C 234.36 64.60 234.65 61.45 234.80 59.88 C 235.05 58.64 235.29 57.41 235.51 56.17 C 235.83 54.96 235.69 53.72 235.00 52.65 Z" />
<path fill="#fdfdfc" opacity="1.00" d=" M 335.84 74.92 C 342.67 66.76 357.90 69.63 367.80 69.51 C 375.74 72.16 382.32 78.50 384.32 86.71 C 383.97 98.88 383.69 111.08 384.23 123.25 C 383.63 124.81 382.93 126.33 382.27 127.86 C 377.96 133.80 371.20 137.40 364.20 139.16 C 360.71 139.16 357.28 139.14 353.81 139.13 C 344.38 137.26 335.13 131.03 332.65 121.32 C 332.79 117.47 332.96 113.64 332.86 109.80 C 332.93 109.37 333.05 108.49 333.11 108.06 C 336.37 101.04 343.50 97.47 350.70 95.65 C 355.74 95.13 362.60 97.43 366.83 94.93 C 367.77 93.37 367.26 91.38 366.37 89.92 C 365.40 87.94 364.07 86.05 362.18 84.84 C 358.59 83.40 354.40 83.88 350.71 84.69 C 347.10 85.60 343.60 86.85 340.01 87.78 C 338.22 83.63 337.64 79.07 335.84 74.92 M 355.07 108.96 C 348.65 110.99 349.74 122.42 356.19 123.08 C 356.70 124.86 361.30 124.88 361.77 123.06 C 363.57 122.40 365.27 120.71 366.03 118.94 C 368.56 118.85 367.30 108.24 365.99 108.00 C 361.40 107.38 357.76 107.70 355.07 108.96 Z" />
</g>
<g id="#e6ebe3ff">
<path fill="#e6ebe3" opacity="1.00" d=" M 513.01 50.00 C 559.68 50.01 606.30 51.72 653.00 50.98 C 671.01 50.13 689.06 53.64 707.00 50.94 C 706.93 54.70 706.71 58.45 706.34 62.19 C 706.08 60.21 706.16 57.87 704.20 56.73 C 700.24 55.93 696.20 56.02 692.23 55.73 C 678.53 54.30 664.73 55.24 651.00 55.01 C 635.66 55.00 620.33 54.97 605.00 55.01 C 593.40 54.83 581.80 55.33 570.23 54.78 C 551.17 53.03 531.98 54.51 512.87 53.92 C 512.91 52.62 512.96 51.31 513.01 50.00 Z" />
</g>
<g id="#a2b094ff">
<path fill="#a2b094" opacity="1.00" d=" M 6.00 51.14 L 6.83 50.97 C 7.09 52.53 7.62 55.66 7.89 57.22 C 7.94 62.52 6.99 67.76 7.00 73.06 C 10.62 81.74 5.54 78.33 5.07 75.90 C 4.32 67.63 5.99 59.41 6.00 51.14 Z" />
</g>
<g id="#f8fcf7ff">
<path fill="#f8fcf7" opacity="1.00" d=" M 374.71 52.70 C 401.80 51.11 429.03 52.38 456.18 52.03 C 455.80 53.83 453.29 52.68 452.01 53.06 C 431.67 52.97 411.33 52.98 391.00 53.02 C 385.56 52.97 380.13 53.15 374.71 52.70 Z" />
</g>
<g id="#a0ae91ff">
<path fill="#a0ae91" opacity="1.00" d=" M 203.80 53.76 C 214.08 52.12 224.63 53.53 235.00 52.65 C 235.69 53.72 235.83 54.96 235.51 56.17 C 227.78 50.90 213.74 55.65 203.80 53.76 Z" />
</g>
<g id="#aebb9cff">
<path fill="#aebb9c" opacity="1.00" d=" M 259.00 52.98 C 270.00 53.03 281.00 53.02 292.00 52.98 L 291.82 53.93 C 280.93 54.04 270.05 54.04 259.16 53.95 L 259.00 52.98 Z" />
</g>
<g id="#c9d2bdff">
<path fill="#c9d2bd" opacity="1.00" d=" M 315.77 59.12 C 315.20 56.75 313.50 52.52 317.18 52.77 C 336.35 53.13 355.54 53.22 374.71 52.70 C 380.13 53.15 385.56 52.97 391.00 53.02 L 391.00 53.99 C 382.58 54.04 374.17 53.86 365.77 54.21 C 349.23 53.96 332.67 53.78 316.15 54.11 C 315.92 55.77 315.83 57.45 315.77 59.12 Z" />
</g>
<g id="#305f1f98">
<path fill="#305f1f" opacity="0.60" d=" M 3.22 63.24 C 4.01 60.72 1.38 55.03 4.10 53.91 C 3.96 57.03 3.60 60.14 3.22 63.24 Z" />
</g>
<g id="#617f4eff">
<path fill="#617f4e" opacity="1.00" d=" M 198.60 63.23 C 198.72 59.42 200.69 55.93 203.80 53.76 C 213.74 55.65 227.78 50.90 235.51 56.17 C 235.29 57.41 235.05 58.64 234.80 59.88 C 234.65 61.45 234.36 64.60 234.21 66.18 C 234.06 66.61 233.77 67.48 233.63 67.92 C 232.11 70.46 232.02 72.86 233.36 75.11 C 233.25 75.58 233.05 76.51 232.95 76.97 C 232.61 77.42 231.95 78.33 231.61 78.79 C 228.19 76.41 230.42 82.58 229.80 84.78 C 225.59 87.49 220.89 84.41 216.50 83.74 C 212.06 82.44 204.11 82.80 203.38 76.64 C 203.12 74.19 201.02 72.93 199.10 71.80 C 198.94 68.93 198.90 66.08 198.60 63.23 Z" />
</g>
<g id="#6d8850ff">
<path fill="#6d8850" opacity="1.00" d=" M 259.16 53.95 C 270.05 54.04 280.93 54.04 291.82 53.93 C 287.29 70.24 279.44 85.56 275.71 102.16 C 269.62 86.56 264.15 70.11 259.16 53.95 Z" />
</g>
<g id="#6e8a53ff">
<path fill="#6e8a53" opacity="1.00" d=" M 316.15 54.11 C 332.67 53.78 349.23 53.96 365.77 54.21 C 393.37 56.09 421.13 54.36 448.80 55.10 C 455.41 54.48 461.55 59.39 463.20 65.53 C 453.28 64.82 443.42 67.84 433.52 66.61 C 412.20 61.23 390.70 73.29 369.55 66.57 C 352.50 61.25 336.24 71.76 319.15 70.03 C 319.00 67.49 318.66 64.93 317.35 62.70 C 316.90 61.75 316.45 60.82 315.97 59.90 L 315.77 59.12 C 315.83 57.45 315.92 55.77 316.15 54.11 Z" />
</g>
<g id="#91a47bff">
<path fill="#91a47b" opacity="1.00" d=" M 365.77 54.21 C 374.17 53.86 382.58 54.04 391.00 53.99 C 413.30 53.94 435.59 54.16 457.89 53.84 C 458.15 54.13 458.68 54.71 458.94 55.00 C 455.52 54.98 452.19 55.06 448.80 55.10 C 421.13 54.36 393.37 56.09 365.77 54.21 Z" />
</g>
<g id="#93a880ff">
<path fill="#93a880" opacity="1.00" d=" M 479.96 54.95 C 480.22 54.66 480.74 54.10 481.00 53.82 C 485.09 53.85 489.20 53.82 493.31 53.75 C 495.07 81.67 493.41 109.93 494.02 137.97 C 491.50 112.11 493.87 82.41 492.91 55.09 L 491.97 55.02 C 487.96 54.91 483.96 54.89 479.96 54.95 Z" />
</g>
<g id="#c7d1beff">
<path fill="#c7d1be" opacity="1.00" d=" M 512.87 53.92 C 531.98 54.51 551.17 53.03 570.23 54.78 C 562.73 54.90 555.24 55.08 547.77 55.25 C 536.44 54.78 525.12 55.10 513.80 54.97 L 512.78 54.83 L 512.87 53.92 Z" />
</g>
<g id="#bcc6b4ff">
<path fill="#bcc6b4" opacity="1.00" d=" M 32.71 55.72 C 48.43 54.05 64.37 55.41 80.18 55.07 L 79.94 55.95 C 79.45 55.96 78.47 55.98 77.98 55.99 C 62.89 55.82 47.79 56.38 32.71 55.72 Z" />
</g>
<g id="#c9d0c2ff">
<path fill="#c9d0c2" opacity="1.00" d=" M 99.89 55.89 C 100.37 55.64 101.32 55.14 101.79 54.89 C 124.26 55.62 146.83 53.95 169.23 55.74 C 146.12 56.23 123.00 56.00 99.89 55.89 Z" />
</g>
<g id="#67844dff">
<path fill="#67844d" opacity="1.00" d=" M 448.80 55.10 C 452.19 55.06 455.52 54.98 458.94 55.00 C 463.05 63.89 475.78 64.37 479.96 54.95 C 483.96 54.89 487.96 54.91 491.97 55.02 C 491.99 65.98 492.05 76.94 491.98 87.91 C 489.80 89.96 487.19 91.67 484.14 92.00 C 480.59 86.33 481.28 79.06 479.23 72.80 C 478.99 72.28 478.51 71.25 478.27 70.73 C 472.37 70.05 465.50 68.64 459.69 70.74 C 458.42 76.94 459.21 83.40 458.88 89.72 C 456.51 91.74 455.62 94.76 454.09 97.35 C 452.50 95.08 451.21 92.57 449.16 90.66 C 448.24 100.14 450.25 109.93 448.32 119.28 C 447.66 108.78 448.69 98.19 447.28 87.74 C 444.51 73.83 429.23 66.74 416.08 69.12 C 414.35 68.62 412.39 68.51 410.91 69.71 C 407.36 71.84 398.63 70.18 398.86 76.05 C 395.44 68.44 397.42 80.45 395.84 83.58 C 393.15 83.05 390.82 84.72 388.25 84.88 C 383.18 78.69 377.07 68.26 367.80 69.51 C 357.90 69.63 342.67 66.76 335.84 74.92 C 332.60 69.93 334.36 77.62 334.39 80.46 C 337.36 87.08 328.93 89.88 324.19 88.97 C 320.46 83.42 320.00 76.49 319.15 70.03 C 336.24 71.76 352.50 61.25 369.55 66.57 C 390.70 73.29 412.20 61.23 433.52 66.61 C 443.42 67.84 453.28 64.82 463.20 65.53 C 461.55 59.39 455.41 54.48 448.80 55.10 Z" />
</g>
<g id="#416729ff">
<path fill="#416729" opacity="1.00" d=" M 491.97 55.02 L 492.91 55.09 C 493.87 82.41 491.50 112.11 494.02 137.97 C 500.00 138.21 505.99 138.10 511.98 137.98 C 514.44 130.71 512.28 119.48 513.08 110.70 C 517.57 113.11 514.72 119.87 517.21 123.93 C 527.63 128.02 519.79 111.54 525.95 110.95 C 526.21 119.37 525.48 127.86 526.71 136.23 C 526.78 136.68 526.93 137.56 527.01 138.01 C 531.22 139.11 542.02 140.70 545.97 137.98 C 546.14 125.58 545.81 113.18 546.23 100.78 C 548.33 108.67 547.13 117.61 551.17 124.92 C 555.10 124.03 558.82 123.16 558.82 128.40 C 560.33 116.91 556.95 104.77 559.96 93.55 C 560.53 105.09 558.86 116.85 560.70 128.28 C 560.80 131.51 560.87 134.76 561.07 137.99 C 564.97 139.16 576.05 140.68 579.97 137.98 C 580.16 125.56 579.78 113.13 580.24 100.72 C 584.60 107.97 579.41 119.57 587.11 124.99 C 594.12 123.09 591.62 110.22 594.00 105.89 C 594.28 111.66 593.40 117.60 594.71 123.29 C 594.93 128.18 594.82 133.09 595.06 137.99 C 598.88 139.21 609.90 140.59 613.80 138.05 L 613.80 137.21 C 613.84 135.37 613.90 131.69 613.93 129.85 C 618.56 129.08 623.28 128.93 627.99 128.95 C 639.97 145.29 668.71 143.70 677.28 124.85 C 684.90 130.28 694.37 125.75 702.79 128.12 C 704.46 130.35 703.87 134.06 706.79 135.31 C 705.54 142.94 702.44 150.22 698.08 156.59 C 696.39 154.49 699.39 150.21 695.35 150.61 C 673.98 153.61 651.85 149.37 630.60 152.47 C 568.64 152.20 506.64 153.42 445.09 151.58 C 408.03 148.69 370.65 149.80 333.71 146.76 C 315.06 148.28 296.36 143.00 277.58 143.50 C 267.78 142.65 257.63 143.90 248.14 140.76 C 247.52 137.46 250.54 132.89 246.91 130.85 C 246.86 127.81 246.84 124.81 246.81 121.79 C 246.88 121.15 247.02 119.87 247.09 119.24 C 247.40 118.61 248.02 117.35 248.33 116.72 C 249.96 118.93 250.92 121.53 252.26 123.91 C 267.84 124.22 283.45 123.49 298.99 125.00 C 301.52 125.56 301.93 122.48 303.08 120.94 C 302.49 122.27 302.95 123.75 303.70 124.90 C 303.99 127.36 304.32 129.82 304.66 132.29 C 305.11 133.87 304.44 136.10 305.83 137.22 C 310.83 137.52 320.43 140.07 323.93 136.94 C 323.95 136.23 323.97 134.80 323.99 134.09 C 325.27 131.05 324.93 128.69 322.96 127.01 L 322.78 126.27 C 322.73 123.39 323.24 120.46 322.18 117.73 L 321.97 116.99 C 321.94 115.26 321.87 111.79 321.83 110.05 C 321.94 108.62 322.07 107.18 322.23 105.75 C 325.07 109.33 324.84 113.82 324.01 118.02 C 328.69 119.10 328.01 112.79 330.11 110.11 C 330.96 108.67 333.40 103.71 333.11 108.06 C 333.05 108.49 332.93 109.37 332.86 109.80 C 332.13 113.55 331.48 117.57 332.65 121.32 C 335.13 131.03 344.38 137.26 353.81 139.13 C 357.26 140.18 360.72 140.19 364.20 139.16 C 371.20 137.40 377.96 133.80 382.27 127.86 C 385.96 134.35 393.86 133.45 398.94 129.09 C 403.06 134.46 409.31 137.64 415.81 139.13 C 419.50 140.07 423.54 140.48 427.26 139.26 C 433.47 137.52 439.36 134.53 443.99 129.98 C 448.94 130.81 453.96 131.20 458.86 129.91 C 459.03 131.71 459.24 133.52 459.66 135.29 C 461.44 141.58 472.46 136.76 477.98 137.96 C 480.44 129.02 478.23 116.21 479.17 105.79 C 483.19 111.54 477.07 128.13 488.92 124.99 C 490.25 124.91 490.95 123.53 491.81 122.68 C 492.26 111.10 491.93 99.50 491.98 87.91 C 492.05 76.94 491.99 65.98 491.97 55.02 Z" />
</g>
<g id="#9aac88ff">
<path fill="#9aac88" opacity="1.00" d=" M 511.98 137.98 C 512.52 110.27 510.97 82.48 512.78 54.83 C 512.91 60.13 512.80 65.44 513.28 70.73 C 512.89 84.05 512.89 97.38 513.08 110.70 C 512.28 119.48 514.44 130.71 511.98 137.98 Z" />
</g>
<g id="#607d4dff">
<path fill="#607d4d" opacity="1.00" d=" M 512.78 54.83 L 513.80 54.97 C 514.66 60.62 514.77 67.04 518.23 71.77 C 526.05 72.55 534.09 71.82 541.38 68.44 C 550.49 63.88 560.59 66.03 569.19 70.50 C 578.48 68.06 588.82 62.62 598.23 67.78 C 620.08 69.52 642.63 64.47 664.62 65.54 C 676.81 63.18 689.44 64.96 701.78 63.85 C 703.74 61.95 701.68 58.60 704.20 56.73 C 706.16 57.87 706.08 60.21 706.34 62.19 C 706.17 64.04 705.97 65.90 705.77 67.75 C 703.75 70.82 703.78 75.29 700.75 77.57 C 692.80 77.62 684.62 77.66 676.90 78.13 C 674.53 77.59 666.66 67.85 667.74 74.21 C 664.17 72.14 660.29 70.56 656.24 69.77 C 652.73 68.96 649.24 68.96 645.76 69.77 C 640.57 71.95 629.85 70.17 628.89 77.02 C 625.24 69.14 630.19 82.61 625.26 84.26 C 616.06 91.48 613.64 76.14 606.75 76.70 C 602.47 74.02 598.27 70.82 593.26 69.73 C 589.52 69.26 585.30 68.09 581.70 69.76 C 577.35 71.44 573.66 74.28 569.96 77.02 C 566.39 74.16 563.07 70.33 558.26 69.73 C 554.49 69.07 550.40 68.39 546.73 69.76 C 539.22 71.96 532.50 76.90 529.17 84.09 C 526.97 78.31 524.19 97.64 517.71 91.33 C 513.47 85.61 515.89 77.25 513.28 70.73 C 512.80 65.44 512.91 60.13 512.78 54.83 Z" />
</g>
<g id="#678253ff">
<path fill="#678253" opacity="1.00" d=" M 513.80 54.97 C 525.12 55.10 536.44 54.78 547.77 55.25 C 566.79 56.87 585.93 55.62 605.00 55.99 C 620.33 55.99 635.67 56.04 651.00 55.98 C 657.58 56.05 664.19 55.85 670.78 56.19 C 681.85 57.55 693.06 57.13 704.20 56.73 C 701.68 58.60 703.74 61.95 701.78 63.85 C 689.44 64.96 676.81 63.18 664.62 65.54 C 642.63 64.47 620.08 69.52 598.23 67.78 C 588.82 62.62 578.48 68.06 569.19 70.50 C 560.59 66.03 550.49 63.88 541.38 68.44 C 534.09 71.82 526.05 72.55 518.23 71.77 C 514.77 67.04 514.66 60.62 513.80 54.97 Z" />
</g>
<g id="#8b9d79ff">
<path fill="#8b9d79" opacity="1.00" d=" M 547.77 55.25 C 555.24 55.08 562.73 54.90 570.23 54.78 C 581.80 55.33 593.40 54.83 605.00 55.01 L 605.00 55.99 C 585.93 55.62 566.79 56.87 547.77 55.25 Z" />
</g>
<g id="#a8b59cff">
<path fill="#a8b59c" opacity="1.00" d=" M 605.00 55.01 C 620.33 54.97 635.66 55.00 651.00 55.01 L 651.00 55.98 C 635.67 56.04 620.33 55.99 605.00 55.99 L 605.00 55.01 Z" />
</g>
<g id="#c9d0c1ff">
<path fill="#c9d0c1" opacity="1.00" d=" M 651.00 55.01 C 664.73 55.24 678.53 54.30 692.23 55.73 C 685.06 55.94 677.92 55.94 670.78 56.19 C 664.19 55.85 657.58 56.05 651.00 55.98 L 651.00 55.01 Z" />
</g>
<g id="#5c7b4bff">
<path fill="#5c7b4b" opacity="1.00" d=" M 29.72 56.56 C 30.70 56.24 31.70 55.96 32.71 55.72 C 47.79 56.38 62.89 55.82 77.98 55.99 C 76.33 62.46 73.73 68.94 68.87 73.69 C 56.27 70.51 43.30 67.99 32.00 61.19 C 34.45 58.09 34.17 56.14 29.72 56.56 Z" />
</g>
<g id="#527441ff">
<path fill="#527441" opacity="1.00" d=" M 77.98 55.99 C 78.47 55.98 79.45 55.96 79.94 55.95 C 78.51 61.47 76.17 66.69 74.30 72.07 C 68.94 73.83 70.85 82.73 66.12 86.08 C 64.25 91.66 58.57 86.58 54.96 89.49 C 43.43 87.55 31.57 87.30 20.19 84.80 C 16.64 75.49 22.54 66.80 25.22 58.57 C 26.54 57.57 28.15 57.05 29.72 56.56 C 34.17 56.14 34.45 58.09 32.00 61.19 C 43.30 67.99 56.27 70.51 68.87 73.69 C 73.73 68.94 76.33 62.46 77.98 55.99 Z" />
</g>
<g id="#627e52ff">
<path fill="#627e52" opacity="1.00" d=" M 97.87 61.50 C 98.51 59.66 98.43 57.27 99.89 55.89 C 123.00 56.00 146.12 56.23 169.23 55.74 C 169.65 55.91 170.50 56.25 170.93 56.42 C 172.10 60.10 173.86 63.91 170.69 67.83 C 147.19 68.18 123.66 68.43 100.21 66.86 C 99.58 65.92 99.05 64.92 98.63 63.87 C 98.44 63.27 98.06 62.09 97.87 61.50 Z" />
</g>
<g id="#819472ff">
<path fill="#819472" opacity="1.00" d=" M 670.78 56.19 C 677.92 55.94 685.06 55.94 692.23 55.73 C 696.20 56.02 700.24 55.93 704.20 56.73 C 693.06 57.13 681.85 57.55 670.78 56.19 Z" />
</g>
<g id="#22311bfe">
<path fill="#22311b" opacity="1.00" d=" M 708.03 57.16 C 708.51 56.84 709.45 56.18 709.93 55.85 L 709.96 56.88 C 709.56 76.56 710.57 96.21 711.18 115.87 C 711.97 126.18 717.05 136.02 714.53 146.55 C 711.06 156.48 706.05 166.11 696.89 171.79 C 697.39 171.85 698.40 171.96 698.90 172.02 C 696.07 174.39 690.74 174.89 686.81 175.99 C 685.19 175.83 683.54 175.89 682.03 176.53 C 681.54 176.64 680.57 176.86 680.09 176.97 C 674.13 177.79 667.43 175.43 661.81 177.85 C 660.65 178.56 659.42 179.20 658.03 179.03 C 631.76 178.81 605.48 179.32 579.23 178.79 C 519.22 176.96 459.06 178.52 398.99 178.00 C 359.33 178.00 319.66 178.00 279.99 178.00 C 270.73 177.97 261.47 178.14 252.23 177.78 C 235.20 176.10 218.05 177.40 200.98 177.01 C 195.63 176.84 193.47 170.35 194.03 165.76 C 195.00 167.44 195.47 170.12 197.84 170.23 C 249.11 173.38 300.59 173.28 352.00 172.96 C 397.30 174.45 442.65 173.95 488.00 173.97 C 544.61 176.29 601.33 174.14 657.97 175.26 C 664.97 176.64 672.22 174.89 678.27 171.27 C 681.70 169.62 685.33 168.23 688.38 165.87 C 691.80 163.03 695.90 160.61 698.08 156.59 C 702.44 150.22 705.54 142.94 706.79 135.31 C 708.65 124.58 707.93 113.63 707.91 102.80 C 707.96 97.82 707.99 92.84 707.97 87.86 C 708.10 77.63 707.88 67.40 708.03 57.16 Z" />
</g>
<g id="#587748ff">
<path fill="#587748" opacity="1.00" d=" M 170.69 67.83 C 173.86 63.91 172.10 60.10 170.93 56.42 C 172.27 57.02 173.35 58.02 174.36 59.07 C 174.35 59.51 174.33 60.38 174.32 60.82 C 174.74 69.24 175.18 77.68 174.95 86.13 C 173.96 84.75 172.96 83.35 171.68 82.21 C 156.92 81.61 142.11 81.55 127.36 81.51 C 117.26 75.36 105.23 77.55 95.01 81.07 C 95.12 75.14 97.02 69.50 98.63 63.87 C 99.05 64.92 99.58 65.92 100.21 66.86 C 123.66 68.43 147.19 68.18 170.69 67.83 Z" />
</g>
<g id="#2c3e29fe">
<path fill="#2c3e29" opacity="1.00" d=" M 709.96 56.88 C 710.72 56.92 712.24 57.00 713.00 57.04 C 715.36 76.57 714.63 96.68 719.19 115.85 C 728.59 130.28 723.86 148.49 714.74 161.72 C 713.79 163.07 710.25 165.52 714.01 165.15 C 709.67 168.25 704.08 170.40 698.90 172.02 C 698.40 171.96 697.39 171.85 696.89 171.79 C 706.05 166.11 711.06 156.48 714.53 146.55 C 717.05 136.02 711.97 126.18 711.18 115.87 C 710.57 96.21 709.56 76.56 709.96 56.88 Z" />
</g>
<g id="#3a4936fe">
<path fill="#3a4936" opacity="1.00" d=" M 713.00 57.04 C 713.45 57.04 714.34 57.03 714.78 57.03 L 715.76 57.05 C 720.87 68.12 717.85 83.30 724.19 94.88 C 725.13 93.89 726.01 92.84 726.92 91.81 C 726.90 95.47 727.00 99.15 727.13 102.82 C 726.45 106.26 725.83 109.75 729.65 111.39 C 731.56 123.27 732.61 136.09 727.43 147.32 C 726.56 150.29 724.26 153.25 725.63 156.40 C 722.73 159.30 718.26 163.30 714.01 165.15 C 710.25 165.52 713.79 163.07 714.74 161.72 C 723.86 148.49 728.59 130.28 719.19 115.85 C 714.63 96.68 715.36 76.57 713.00 57.04 Z" />
</g>
<g id="#4d5745ff">
<path fill="#4d5745" opacity="1.00" d=" M 715.76 57.05 L 716.71 57.03 C 717.49 57.02 719.05 56.99 719.82 56.98 C 724.24 58.29 726.70 62.35 727.36 66.70 C 726.94 75.06 727.05 83.44 726.92 91.81 C 726.01 92.84 725.13 93.89 724.19 94.88 C 717.85 83.30 720.87 68.12 715.76 57.05 Z" />
</g>
<g id="#8c9e7fff">
<path fill="#8c9e7f" opacity="1.00" d=" M 196.75 70.26 C 196.95 66.12 197.05 61.96 197.83 57.88 C 197.98 59.68 198.27 61.46 198.60 63.23 C 198.90 66.08 198.94 68.93 199.10 71.80 C 198.81 87.60 199.33 103.62 197.23 119.28 C 196.62 102.94 197.39 86.59 196.75 70.26 Z" />
</g>
<g id="#bac5acff">
<path fill="#bac5ac" opacity="1.00" d=" M 234.21 66.18 C 234.36 64.60 234.65 61.45 234.80 59.88 C 234.65 61.45 234.36 64.60 234.21 66.18 Z" />
</g>
<g id="#b5c2a3ff">
<path fill="#b5c2a3" opacity="1.00" d=" M 315.97 59.90 C 316.45 60.82 316.90 61.75 317.35 62.70 C 317.16 64.83 316.95 66.97 316.83 69.11 C 315.55 66.21 316.08 62.97 315.97 59.90 Z" />
</g>
<g id="#4c6e40ff">
<path fill="#4c6e40" opacity="1.00" d=" M 84.84 98.91 C 88.76 86.32 93.23 73.85 97.87 61.50 C 98.06 62.09 98.44 63.27 98.63 63.87 C 97.02 69.50 95.12 75.14 95.01 81.07 C 105.23 77.55 117.26 75.36 127.36 81.51 C 142.11 81.55 156.92 81.61 171.68 82.21 C 172.96 83.35 173.96 84.75 174.95 86.13 C 175.02 87.93 175.15 91.54 175.21 93.35 C 179.35 89.72 175.45 82.97 178.80 78.71 C 181.60 88.16 179.30 98.31 179.98 108.00 C 178.58 127.86 183.00 147.33 183.06 167.02 C 183.43 170.25 181.87 173.46 179.09 175.14 C 179.05 174.39 178.98 172.88 178.94 172.12 C 178.90 171.66 178.83 170.74 178.80 170.28 C 176.47 149.97 175.69 129.53 174.82 109.12 C 173.67 104.15 173.67 97.95 169.72 94.15 C 155.57 93.47 141.37 94.58 127.24 93.81 C 123.58 91.22 125.49 85.66 122.23 82.82 C 121.96 82.56 121.44 82.04 121.18 81.78 C 114.97 80.52 108.42 80.76 102.07 81.12 C 101.90 87.07 101.99 93.02 101.98 98.97 C 96.27 99.23 90.55 99.04 84.84 98.91 Z" />
</g>
<g id="#5e7d41ff">
<path fill="#5e7d41" opacity="1.00" d=" M 317.35 62.70 C 318.66 64.93 319.00 67.49 319.15 70.03 C 320.00 76.49 320.46 83.42 324.19 88.97 C 328.93 89.88 337.36 87.08 334.39 80.46 C 334.36 77.62 332.60 69.93 335.84 74.92 C 337.64 79.07 338.22 83.63 340.01 87.78 C 343.60 86.85 347.10 85.60 350.71 84.69 C 354.51 84.82 358.36 84.98 362.18 84.84 C 364.07 86.05 365.40 87.94 366.37 89.92 C 365.99 91.55 365.71 93.26 366.14 94.91 C 361.01 95.22 355.72 94.25 350.70 95.65 C 343.50 97.47 336.37 101.04 333.11 108.06 C 333.40 103.71 330.96 108.67 330.11 110.11 C 328.01 112.79 328.69 119.10 324.01 118.02 C 324.84 113.82 325.07 109.33 322.23 105.75 C 322.07 107.18 321.94 108.62 321.83 110.05 L 321.07 110.01 C 321.01 109.29 320.91 107.85 320.86 107.13 C 320.68 105.56 320.34 102.43 320.17 100.86 C 320.09 100.18 319.94 98.81 319.87 98.12 C 321.14 95.19 320.89 92.77 319.12 90.87 C 319.06 90.18 318.93 88.81 318.86 88.12 C 320.30 85.02 320.00 82.65 317.95 81.01 L 317.76 80.27 C 317.73 76.80 318.69 73.11 317.09 69.86 L 316.83 69.11 C 316.95 66.97 317.16 64.83 317.35 62.70 Z" />
</g>
<g id="#2f5e227f">
<path fill="#2f5e22" opacity="0.50" d=" M 2.09 63.97 L 3.14 64.10 C 2.96 92.99 2.80 121.88 3.22 150.77 C 3.14 155.51 3.06 160.25 2.96 165.00 L 2.01 165.00 C 2.04 131.32 1.89 97.64 2.09 63.97 Z" />
</g>
<g id="#878a7fff">
<path fill="#878a7f" opacity="1.00" d=" M 727.36 66.70 C 729.13 77.43 726.86 88.50 728.86 99.25 C 729.00 103.46 729.33 108.87 727.13 102.82 C 727.00 99.15 726.90 95.47 726.92 91.81 C 727.05 83.44 726.94 75.06 727.36 66.70 Z" />
</g>
<g id="#b1bea2ff">
<path fill="#b1bea2" opacity="1.00" d=" M 233.36 75.11 C 232.02 72.86 232.11 70.46 233.63 67.92 C 234.97 70.16 234.88 72.56 233.36 75.11 Z" />
</g>
<g id="#567547ff">
<path fill="#567547" opacity="1.00" d=" M 700.75 77.57 C 703.78 75.29 703.75 70.82 705.77 67.75 C 705.97 75.23 705.97 82.73 706.06 90.22 C 706.70 89.44 707.34 88.66 707.97 87.86 C 707.99 92.84 707.96 97.82 707.91 102.80 C 705.00 110.91 706.34 98.71 705.85 95.73 C 701.76 103.98 691.22 97.86 683.97 99.84 C 675.72 99.89 682.67 87.54 677.14 83.89 C 677.05 84.44 676.87 85.54 676.77 86.08 C 675.18 81.20 671.30 77.71 667.74 74.21 C 666.66 67.85 674.53 77.59 676.90 78.13 C 684.62 77.66 692.80 77.62 700.75 77.57 Z" />
</g>
<g id="#848c80ff">
<path fill="#848c80" opacity="1.00" d=" M 732.99 67.84 C 733.49 68.17 734.48 68.83 734.98 69.16 C 734.38 71.71 737.39 78.20 733.07 76.96 C 732.86 73.93 732.91 70.87 732.99 67.84 Z" />
</g>
<g id="#5f7e43ff">
<path fill="#5f7e43" opacity="1.00" d=" M 367.80 69.51 C 377.07 68.26 383.18 78.69 388.25 84.88 C 390.82 84.72 393.15 83.05 395.84 83.58 C 397.42 80.45 395.44 68.44 398.86 76.05 C 400.43 79.88 401.07 84.08 403.03 87.76 C 406.69 87.06 410.21 85.78 413.81 84.87 C 417.23 84.84 420.72 84.88 424.16 84.83 C 426.90 85.80 428.42 88.31 429.39 90.89 C 428.85 92.29 428.80 93.70 429.23 95.12 C 424.40 95.37 419.40 94.23 414.70 95.65 C 409.59 96.90 404.67 98.79 400.24 101.63 C 396.24 101.62 391.71 109.82 387.70 104.28 C 385.44 102.69 388.94 83.55 385.85 89.93 L 385.05 89.93 C 384.83 88.85 384.59 87.78 384.32 86.71 C 382.32 78.50 375.74 72.16 367.80 69.51 Z" />
</g>
<g id="#b5c2a5ff">
<path fill="#b5c2a5" opacity="1.00" d=" M 410.91 69.71 C 412.39 68.51 414.35 68.62 416.08 69.12 C 414.72 70.60 412.61 70.38 410.91 69.71 Z" />
</g>
<g id="#fcfdfcff">
<path fill="#fcfdfc" opacity="1.00" d=" M 416.08 69.12 C 429.23 66.74 444.51 73.83 447.28 87.74 C 446.98 99.26 446.68 110.80 447.33 122.31 C 446.51 124.99 445.14 127.44 443.99 129.98 C 439.36 134.53 433.47 137.52 427.26 139.26 C 423.42 139.15 419.63 139.07 415.81 139.13 C 409.31 137.64 403.06 134.46 398.94 129.09 C 397.79 126.86 396.38 124.73 395.65 122.31 C 395.69 118.12 395.72 113.94 395.76 109.75 C 396.86 106.85 398.63 104.27 400.24 101.63 C 404.67 98.79 409.59 96.90 414.70 95.65 C 419.43 95.21 424.75 97.38 429.23 95.12 C 431.05 94.49 430.27 92.02 429.39 90.89 C 428.42 88.31 426.90 85.80 424.16 84.83 C 420.70 83.76 417.25 83.77 413.81 84.87 C 410.21 85.78 406.69 87.06 403.03 87.76 C 401.07 84.08 400.43 79.88 398.86 76.05 C 398.63 70.18 407.36 71.84 410.91 69.71 C 412.61 70.38 414.72 70.60 416.08 69.12 M 418.07 109.01 C 412.14 111.02 412.19 121.15 418.23 123.04 C 419.00 124.92 423.99 124.92 424.77 123.04 C 426.56 122.41 428.34 120.72 428.99 118.93 C 430.83 115.70 430.84 112.39 429.00 109.01 C 428.84 106.37 417.97 107.74 418.07 109.01 Z" />
<path fill="#fcfdfc" opacity="1.00" d=" M 628.89 77.02 C 629.85 70.17 640.57 71.95 645.76 69.77 C 649.26 69.88 652.70 69.79 656.24 69.77 C 660.29 70.56 664.17 72.14 667.74 74.21 C 671.30 77.71 675.18 81.20 676.77 86.08 C 676.90 86.50 677.16 87.33 677.29 87.75 C 677.03 99.57 676.59 111.43 677.31 123.25 C 677.30 123.65 677.29 124.45 677.28 124.85 C 668.71 143.70 639.97 145.29 627.99 128.95 C 623.83 120.24 623.53 109.02 631.14 101.97 C 634.74 99.69 638.66 97.92 642.80 96.84 C 648.31 96.77 653.93 97.48 659.39 96.11 C 659.40 94.82 659.42 92.25 659.43 90.97 C 657.92 89.10 656.87 86.25 654.24 85.78 C 651.06 84.92 647.80 84.58 644.69 85.70 C 644.29 85.81 643.48 86.02 643.08 86.13 C 641.65 85.62 639.92 85.54 638.88 86.82 C 631.24 91.07 630.48 83.08 628.89 77.02 M 648.07 109.97 C 641.58 111.55 642.38 123.68 649.19 124.07 C 649.32 125.86 653.67 125.86 653.81 124.07 C 656.19 124.19 658.08 121.86 659.03 119.94 C 661.56 119.85 660.29 109.24 658.99 109.00 C 654.38 108.38 650.74 108.70 648.07 109.97 Z" />
</g>
<g id="#b4c1a6ff">
<path fill="#b4c1a6" opacity="1.00" d=" M 546.73 69.76 C 550.40 68.39 554.49 69.07 558.26 69.73 C 554.38 69.84 550.58 69.99 546.73 69.76 Z" />
</g>
<g id="#a7b699ff">
<path fill="#a7b699" opacity="1.00" d=" M 581.70 69.76 C 585.30 68.09 589.52 69.26 593.26 69.73 C 589.37 69.85 585.56 69.99 581.70 69.76 Z" />
</g>
<g id="#93a585ff">
<path fill="#93a585" opacity="1.00" d=" M 645.76 69.77 C 649.24 68.96 652.73 68.96 656.24 69.77 C 652.70 69.79 649.26 69.88 645.76 69.77 Z" />
</g>
<g id="#b4c1a3ff">
<path fill="#b4c1a3" opacity="1.00" d=" M 317.09 69.86 C 318.69 73.11 317.73 76.80 317.76 80.27 C 316.59 76.92 317.07 73.32 317.09 69.86 Z" />
</g>
<g id="#99ab84ff">
<path fill="#99ab84" opacity="1.00" d=" M 459.69 70.74 C 465.50 68.64 472.37 70.05 478.27 70.73 C 472.07 70.98 465.88 71.01 459.69 70.74 Z" />
</g>
<g id="#7c9564ff">
<path fill="#7c9564" opacity="1.00" d=" M 458.88 89.72 C 459.21 83.40 458.42 76.94 459.69 70.74 C 460.13 92.25 460.30 113.79 459.66 135.29 C 459.24 133.52 459.03 131.71 458.86 129.91 C 459.04 116.51 459.12 103.12 458.88 89.72 Z" />
</g>
<g id="#a9b899ff">
<path fill="#a9b899" opacity="1.00" d=" M 478.27 70.73 C 478.51 71.25 478.99 72.28 479.23 72.80 C 478.99 83.80 478.81 94.80 479.17 105.79 C 478.23 116.21 480.44 129.02 477.98 137.96 C 478.17 115.55 477.67 93.13 478.27 70.73 Z" />
</g>
<g id="#54753bff">
<path fill="#54753b" opacity="1.00" d=" M 513.28 70.73 C 515.89 77.25 513.47 85.61 517.71 91.33 C 524.19 97.64 526.97 78.31 529.17 84.09 C 528.57 85.95 527.99 87.82 527.74 89.76 C 526.02 105.18 527.63 120.76 526.71 136.23 C 525.48 127.86 526.21 119.37 525.95 110.95 C 519.79 111.54 527.63 128.02 517.21 123.93 C 514.72 119.87 517.57 113.11 513.08 110.70 C 512.89 97.38 512.89 84.05 513.28 70.73 Z" />
</g>
<g id="#537441ff">
<path fill="#537441" opacity="1.00" d=" M 199.10 71.80 C 201.02 72.93 203.12 74.19 203.38 76.64 C 204.11 82.80 212.06 82.44 216.50 83.74 C 220.89 84.41 225.59 87.49 229.80 84.78 C 230.42 82.58 228.19 76.41 231.61 78.79 C 231.57 80.55 231.86 82.30 232.31 84.00 C 232.25 84.44 232.11 85.32 232.04 85.76 C 231.58 88.50 231.26 91.28 230.97 94.05 L 230.86 94.84 C 230.36 96.51 230.04 98.23 229.89 99.97 C 226.54 97.96 227.63 104.65 224.82 105.71 C 216.65 104.29 208.48 102.68 200.19 102.20 C 196.17 108.11 201.87 117.33 197.16 123.25 C 197.15 121.92 197.17 120.60 197.23 119.28 C 199.33 103.62 198.81 87.60 199.10 71.80 Z" />
</g>
<g id="#53753aff">
<path fill="#53753a" opacity="1.00" d=" M 479.23 72.80 C 481.28 79.06 480.59 86.33 484.14 92.00 C 487.19 91.67 489.80 89.96 491.98 87.91 C 491.93 99.50 492.26 111.10 491.81 122.68 C 490.95 123.53 490.25 124.91 488.92 124.99 C 477.07 128.13 483.19 111.54 479.17 105.79 C 478.81 94.80 478.99 83.80 479.23 72.80 Z" />
</g>
<g id="#557543ff">
<path fill="#557543" opacity="1.00" d=" M 625.26 84.26 C 630.19 82.61 625.24 69.14 628.89 77.02 C 630.48 83.08 631.24 91.07 638.88 86.82 C 640.28 87.38 642.08 87.50 643.08 86.13 C 643.48 86.02 644.29 85.81 644.69 85.70 C 647.82 85.71 651.07 85.77 654.24 85.78 C 656.87 86.25 657.92 89.10 659.43 90.97 C 658.58 92.54 658.23 94.57 659.39 96.11 C 653.84 96.16 648.23 95.55 642.80 96.84 C 638.66 97.92 634.74 99.69 631.14 101.97 C 631.75 97.54 625.30 105.10 623.98 102.02 C 614.03 106.80 618.46 91.00 613.84 90.70 L 613.08 91.00 C 612.51 85.68 609.55 81.10 606.75 76.70 C 613.64 76.14 616.06 91.48 625.26 84.26 Z" />
</g>
<g id="#afbc9fff">
<path fill="#afbc9f" opacity="1.00" d=" M 231.61 78.79 C 231.95 78.33 232.61 77.42 232.95 76.97 C 233.73 79.29 233.52 81.63 232.31 84.00 C 231.86 82.30 231.57 80.55 231.61 78.79 Z" />
</g>
<g id="#adbb9aff">
<path fill="#adbb9a" opacity="1.00" d=" M 249.04 78.87 C 251.96 78.54 251.42 82.24 251.98 84.14 C 248.22 77.66 250.63 90.87 249.21 93.22 C 249.00 88.44 248.92 83.65 249.04 78.87 Z" />
</g>
<g id="#547537ff">
<path fill="#547537" opacity="1.00" d=" M 285.23 122.24 C 291.28 108.50 295.39 93.71 300.78 79.75 C 301.07 82.73 301.13 85.71 301.35 88.71 C 301.20 91.90 300.77 95.17 301.66 98.29 C 301.89 99.43 302.11 100.57 302.33 101.71 C 302.33 104.57 302.07 107.47 302.66 110.29 C 302.83 111.49 303.01 112.68 303.20 113.87 C 303.17 115.64 303.11 119.17 303.08 120.94 C 301.93 122.48 301.52 125.56 298.99 125.00 C 283.45 123.49 267.84 124.22 252.26 123.91 C 250.92 121.53 249.96 118.93 248.33 116.72 C 248.09 114.08 247.90 111.43 247.75 108.79 C 247.89 107.27 248.04 105.75 248.17 104.23 C 248.56 101.11 248.88 97.99 248.98 94.85 C 249.04 94.44 249.16 93.63 249.21 93.22 C 250.63 90.87 248.22 77.66 251.98 84.14 C 255.24 97.07 260.64 109.42 265.00 122.02 C 270.59 124.00 279.01 123.27 285.23 122.24 Z" />
</g>
<g id="#a0b195ff">
<path fill="#a0b195" opacity="1.00" d=" M 102.07 81.12 C 108.42 80.76 114.97 80.52 121.18 81.78 C 115.15 82.01 109.12 81.90 103.09 82.08 C 102.12 87.34 104.52 95.24 101.98 98.97 C 101.99 93.02 101.90 87.07 102.07 81.12 Z" />
</g>
<g id="#b4c0a2ff">
<path fill="#b4c0a2" opacity="1.00" d=" M 317.95 81.01 C 320.00 82.65 320.30 85.02 318.86 88.12 C 317.21 86.20 316.90 83.83 317.95 81.01 Z" />
</g>
<g id="#b8c6afff">
<path fill="#b8c6af" opacity="1.00" d=" M 121.18 81.78 C 121.44 82.04 121.96 82.56 122.23 82.82 C 122.17 86.11 122.02 89.43 122.21 92.73 C 121.09 107.83 123.51 125.38 120.98 138.98 C 121.10 119.91 120.80 100.85 121.18 81.78 Z" />
</g>
<g id="#436a33ff">
<path fill="#436a33" opacity="1.00" d=" M 122.23 82.82 C 125.49 85.66 123.58 91.22 127.24 93.81 C 141.37 94.58 155.57 93.47 169.72 94.15 C 173.67 97.95 173.67 104.15 174.82 109.12 C 175.69 129.53 176.47 149.97 178.80 170.28 C 177.80 168.25 176.87 166.19 175.98 164.12 C 173.11 148.97 174.67 133.14 169.70 118.32 C 165.07 114.16 157.64 118.76 152.98 114.30 C 144.00 115.06 135.23 117.20 126.20 115.62 C 125.87 107.86 125.06 100.02 122.21 92.73 C 122.02 89.43 122.17 86.11 122.23 82.82 Z" />
</g>
<g id="#bcc7adff">
<path fill="#bcc7ad" opacity="1.00" d=" M 350.71 84.69 C 354.40 83.88 358.59 83.40 362.18 84.84 C 358.36 84.98 354.51 84.82 350.71 84.69 Z" />
</g>
<g id="#cbd4bfff">
<path fill="#cbd4bf" opacity="1.00" d=" M 413.81 84.87 C 417.25 83.77 420.70 83.76 424.16 84.83 C 420.72 84.88 417.23 84.84 413.81 84.87 Z" />
</g>
<g id="#466b36ff">
<path fill="#466b36" opacity="1.00" d=" M 677.14 83.89 C 682.67 87.54 675.72 99.89 683.97 99.84 C 691.22 97.86 701.76 103.98 705.85 95.73 C 706.34 98.71 705.00 110.91 707.91 102.80 C 707.93 113.63 708.65 124.58 706.79 135.31 C 703.87 134.06 704.46 130.35 702.79 128.12 C 694.37 125.75 684.90 130.28 677.28 124.85 C 677.29 124.45 677.30 123.65 677.31 123.25 C 677.62 122.25 677.91 121.24 678.16 120.22 C 679.05 110.54 680.21 100.34 678.29 90.73 C 677.97 89.72 677.64 88.73 677.29 87.75 C 677.16 87.33 676.90 86.50 676.77 86.08 C 676.87 85.54 677.05 84.44 677.14 83.89 Z" />
</g>
<g id="#51743bff">
<path fill="#51743b" opacity="1.00" d=" M 545.71 92.77 C 545.91 83.27 559.89 82.95 560.33 92.56 L 559.96 93.55 C 556.95 104.77 560.33 116.91 558.82 128.40 C 558.82 123.16 555.10 124.03 551.17 124.92 C 547.13 117.61 548.33 108.67 546.23 100.78 C 546.02 98.11 545.84 95.44 545.71 92.77 Z" />
</g>
<g id="#50733bff">
<path fill="#50733b" opacity="1.00" d=" M 584.32 86.32 C 589.74 82.34 594.93 89.69 595.36 94.70 C 594.94 104.22 595.06 113.76 594.71 123.29 C 593.40 117.60 594.28 111.66 594.00 105.89 C 591.62 110.22 594.12 123.09 587.11 124.99 C 579.41 119.57 584.60 107.97 580.24 100.72 C 580.12 98.99 579.87 95.52 579.75 93.79 C 580.50 90.94 581.71 87.96 584.32 86.32 Z" />
</g>
<g id="#b0bca4ff">
<path fill="#b0bca4" opacity="1.00" d=" M 644.69 85.70 C 647.80 84.58 651.06 84.92 654.24 85.78 C 651.07 85.77 647.82 85.71 644.69 85.70 Z" />
</g>
<g id="#b2bfa4ff">
<path fill="#b2bfa4" opacity="1.00" d=" M 230.97 94.05 C 231.26 91.28 231.58 88.50 232.04 85.76 C 231.75 88.53 231.37 91.29 230.97 94.05 Z" />
</g>
<g id="#acbaa0ff">
<path fill="#acbaa0" opacity="1.00" d=" M 638.88 86.82 C 639.92 85.54 641.65 85.62 643.08 86.13 C 642.08 87.50 640.28 87.38 638.88 86.82 Z" />
</g>
<g id="#e3e7dcff">
<path fill="#e3e7dc" opacity="1.00" d=" M 384.32 86.71 C 384.59 87.78 384.83 88.85 385.05 89.93 C 385.01 100.03 384.83 110.14 385.21 120.24 C 384.97 121.27 384.64 122.27 384.23 123.25 C 383.69 111.08 383.97 98.88 384.32 86.71 Z" />
</g>
<g id="#4d7031ff">
<path fill="#4d7031" opacity="1.00" d=" M 385.85 89.93 C 388.94 83.55 385.44 102.69 387.70 104.28 C 391.71 109.82 396.24 101.62 400.24 101.63 C 398.63 104.27 396.86 106.85 395.76 109.75 C 395.06 113.83 394.18 118.29 395.65 122.31 C 396.38 124.73 397.79 126.86 398.94 129.09 C 393.86 133.45 385.96 134.35 382.27 127.86 C 382.93 126.33 383.63 124.81 384.23 123.25 C 384.64 122.27 384.97 121.27 385.21 120.24 C 386.63 110.22 386.04 100.03 385.85 89.93 Z" />
<path fill="#4d7031" opacity="1.00" d=" M 356.19 123.08 C 349.74 122.42 348.65 110.99 355.07 108.96 C 357.77 108.99 363.18 109.04 365.88 109.07 C 366.18 112.35 365.99 115.64 366.03 118.94 C 365.27 120.71 363.57 122.40 361.77 123.06 C 359.91 122.96 358.04 122.96 356.19 123.08 Z" />
</g>
<g id="#e2e6daff">
<path fill="#e2e6da" opacity="1.00" d=" M 447.28 87.74 C 448.69 98.19 447.66 108.78 448.32 119.28 C 448.01 120.30 447.68 121.31 447.33 122.31 C 446.68 110.80 446.98 99.26 447.28 87.74 Z" />
</g>
<g id="#ced7c7ff">
<path fill="#ced7c7" opacity="1.00" d=" M 677.29 87.75 C 677.64 88.73 677.97 89.72 678.29 90.73 C 677.88 100.55 677.94 110.39 678.16 120.22 C 677.91 121.24 677.62 122.25 677.31 123.25 C 676.59 111.43 677.03 99.57 677.29 87.75 Z" />
</g>
<g id="#aebb9aff">
<path fill="#aebb9a" opacity="1.00" d=" M 301.35 88.71 C 302.18 91.85 301.76 95.08 301.66 98.29 C 300.77 95.17 301.20 91.90 301.35 88.71 Z" />
</g>
<g id="#a6b793ff">
<path fill="#a6b793" opacity="1.00" d=" M 366.37 89.92 C 367.26 91.38 367.77 93.37 366.83 94.93 L 366.14 94.91 C 365.71 93.26 365.99 91.55 366.37 89.92 Z" />
</g>
<g id="#90a479ff">
<path fill="#90a479" opacity="1.00" d=" M 385.05 89.93 L 385.85 89.93 C 386.04 100.03 386.63 110.22 385.21 120.24 C 384.83 110.14 385.01 100.03 385.05 89.93 Z" />
</g>
<g id="#4e7133ff">
<path fill="#4e7133" opacity="1.00" d=" M 454.09 97.35 C 455.62 94.76 456.51 91.74 458.88 89.72 C 459.12 103.12 459.04 116.51 458.86 129.91 C 453.96 131.20 448.94 130.81 443.99 129.98 C 445.14 127.44 446.51 124.99 447.33 122.31 C 447.68 121.31 448.01 120.30 448.32 119.28 C 450.25 109.93 448.24 100.14 449.16 90.66 C 451.21 92.57 452.50 95.08 454.09 97.35 Z" />
</g>
<g id="#dfe4d8ff">
<path fill="#dfe4d8" opacity="1.00" d=" M 526.71 136.23 C 527.63 120.76 526.02 105.18 527.74 89.76 C 528.23 105.83 527.93 121.91 527.99 137.99 L 527.01 138.01 C 526.93 137.56 526.78 136.68 526.71 136.23 Z" />
</g>
<g id="#496e35ff">
<path fill="#496e35" opacity="1.00" d=" M 613.84 90.70 C 618.46 91.00 614.03 106.80 623.98 102.02 C 625.30 105.10 631.75 97.54 631.14 101.97 C 623.53 109.02 623.83 120.24 627.99 128.95 C 623.28 128.93 618.56 129.08 613.93 129.85 C 613.98 116.80 614.15 103.74 613.84 90.70 Z" />
</g>
<g id="#b0be9eff">
<path fill="#b0be9e" opacity="1.00" d=" M 319.12 90.87 C 320.89 92.77 321.14 95.19 319.87 98.12 C 318.09 96.20 317.84 93.78 319.12 90.87 Z" />
</g>
<g id="#aebd9eff">
<path fill="#aebd9e" opacity="1.00" d=" M 429.39 90.89 C 430.27 92.02 431.05 94.49 429.23 95.12 C 428.80 93.70 428.85 92.29 429.39 90.89 Z" />
</g>
<g id="#bfcab4ff">
<path fill="#bfcab4" opacity="1.00" d=" M 613.08 91.00 L 613.84 90.70 C 614.15 103.74 613.98 116.80 613.93 129.85 C 613.90 131.69 613.84 135.37 613.80 137.21 C 612.14 121.87 613.29 106.40 613.08 91.00 Z" />
</g>
<g id="#acbba1ff">
<path fill="#acbba1" opacity="1.00" d=" M 659.43 90.97 C 659.42 92.25 659.40 94.82 659.39 96.11 C 658.23 94.57 658.58 92.54 659.43 90.97 Z" />
</g>
<g id="#6a8659ff">
<path fill="#6a8659" opacity="1.00" d=" M 678.29 90.73 C 680.21 100.34 679.05 110.54 678.16 120.22 C 677.94 110.39 677.88 100.55 678.29 90.73 Z" />
</g>
<g id="#a5b29aff">
<path fill="#a5b29a" opacity="1.00" d=" M 10.99 93.03 L 11.93 92.95 C 11.99 97.37 12.25 101.78 12.79 106.17 C 12.03 112.24 15.64 120.61 11.09 125.22 C 10.86 114.49 11.02 103.76 10.99 93.03 Z" />
</g>
<g id="#3d692bff">
<path fill="#3d692b" opacity="1.00" d=" M 122.21 92.73 C 125.06 100.02 125.87 107.86 126.20 115.62 C 135.23 117.20 144.00 115.06 152.98 114.30 C 157.64 118.76 165.07 114.16 169.70 118.32 C 174.67 133.14 173.11 148.97 175.98 164.12 C 168.69 159.05 159.29 161.56 151.00 160.97 C 108.75 161.58 66.25 159.22 24.33 165.36 C 17.15 165.82 10.24 170.05 3.01 167.92 C 3.00 167.19 2.97 165.73 2.96 165.00 C 3.06 160.25 3.14 155.51 3.22 150.77 C 5.19 152.24 1.25 163.10 5.73 160.64 C 14.41 157.56 14.72 143.90 25.16 144.25 C 31.05 140.24 40.57 140.69 42.15 132.30 C 46.62 133.89 48.29 128.23 51.94 126.98 C 55.48 125.68 58.78 123.85 61.92 121.77 C 61.29 120.14 55.84 116.57 59.78 117.21 C 73.78 118.83 87.91 117.66 101.97 118.02 C 102.89 124.58 100.45 133.90 103.02 138.97 C 109.00 139.21 114.99 139.10 120.98 138.98 C 123.51 125.38 121.09 107.83 122.21 92.73 Z" />
</g>
<g id="#a7b797ff">
<path fill="#a7b797" opacity="1.00" d=" M 545.00 137.97 C 545.32 122.90 544.17 107.77 545.71 92.77 C 545.84 95.44 546.02 98.11 546.23 100.78 C 545.81 113.18 546.14 125.58 545.97 137.98 L 545.00 137.97 Z" />
</g>
<g id="#668551ff">
<path fill="#668551" opacity="1.00" d=" M 560.33 92.56 C 560.56 93.12 561.01 94.22 561.23 94.77 C 560.91 105.94 561.16 117.12 560.70 128.28 C 558.86 116.85 560.53 105.09 559.96 93.55 L 560.33 92.56 Z" />
</g>
<g id="#b1c0a4ff">
<path fill="#b1c0a4" opacity="1.00" d=" M 579.00 137.97 C 579.36 123.25 578.10 108.44 579.75 93.79 C 579.87 95.52 580.12 98.99 580.24 100.72 C 579.78 113.13 580.16 125.56 579.97 137.98 L 579.00 137.97 Z" />
</g>
<g id="#abb99dff">
<path fill="#abb99d" opacity="1.00" d=" M 229.89 99.97 C 230.04 98.23 230.36 96.51 230.86 94.84 C 230.79 97.55 230.56 100.25 230.33 102.95 L 229.97 102.11 C 229.95 101.58 229.91 100.51 229.89 99.97 Z" />
</g>
<g id="#aebc9cff">
<path fill="#aebc9c" opacity="1.00" d=" M 248.17 104.23 C 248.00 101.08 248.31 97.93 248.98 94.85 C 248.88 97.99 248.56 101.11 248.17 104.23 Z" />
</g>
<g id="#bec8afff">
<path fill="#bec8af" opacity="1.00" d=" M 350.70 95.65 C 355.72 94.25 361.01 95.22 366.14 94.91 L 366.83 94.93 C 362.60 97.43 355.74 95.13 350.70 95.65 Z" />
</g>
<g id="#a4b391ff">
<path fill="#a4b391" opacity="1.00" d=" M 414.70 95.65 C 419.40 94.23 424.40 95.37 429.23 95.12 C 424.75 97.38 419.43 95.21 414.70 95.65 Z" />
</g>
<g id="#ccd6c4ff">
<path fill="#ccd6c4" opacity="1.00" d=" M 561.23 94.77 C 563.26 108.93 561.32 123.63 562.02 137.97 L 561.07 137.99 C 560.87 134.76 560.80 131.51 560.70 128.28 C 561.16 117.12 560.91 105.94 561.23 94.77 Z" />
</g>
<g id="#d1d8c8ff">
<path fill="#d1d8c8" opacity="1.00" d=" M 595.36 94.70 C 596.97 109.01 595.49 123.57 596.02 137.97 L 595.06 137.99 C 594.82 133.09 594.93 128.18 594.71 123.29 C 595.06 113.76 594.94 104.22 595.36 94.70 Z" />
</g>
<g id="#b0bda5ff">
<path fill="#b0bda5" opacity="1.00" d=" M 642.80 96.84 C 648.23 95.55 653.84 96.16 659.39 96.11 C 653.93 97.48 648.31 96.77 642.80 96.84 Z" />
</g>
<g id="#93a788ff">
<path fill="#93a788" opacity="1.00" d=" M 13.25 104.10 C 12.04 101.84 12.17 99.45 13.64 96.95 C 15.02 99.24 14.89 101.63 13.25 104.10 Z" />
</g>
<g id="#afbd9eff">
<path fill="#afbd9e" opacity="1.00" d=" M 320.17 100.86 C 320.34 102.43 320.68 105.56 320.86 107.13 C 320.68 105.56 320.34 102.43 320.17 100.86 Z" />
</g>
<g id="#6a8554ff">
<path fill="#6a8554" opacity="1.00" d=" M 229.27 105.93 C 228.76 104.66 228.58 102.90 229.97 102.11 L 230.33 102.95 C 230.23 103.70 230.03 105.20 229.93 105.94 L 229.27 105.93 Z" />
</g>
<g id="#acba9aff">
<path fill="#acba9a" opacity="1.00" d=" M 302.33 101.71 C 303.01 104.52 302.62 107.42 302.66 110.29 C 302.07 107.47 302.33 104.57 302.33 101.71 Z" />
</g>
<g id="#b5c1a8ff">
<path fill="#b5c1a8" opacity="1.00" d=" M 229.27 105.93 L 229.93 105.94 C 229.80 107.48 229.56 110.55 229.44 112.08 C 228.49 110.15 228.23 107.88 229.27 105.93 Z" />
</g>
<g id="#99ac85ff">
<path fill="#99ac85" opacity="1.00" d=" M 355.07 108.96 C 357.76 107.70 361.40 107.38 365.99 108.00 C 367.30 108.24 368.56 118.85 366.03 118.94 C 365.99 115.64 366.18 112.35 365.88 109.07 C 363.18 109.04 357.77 108.99 355.07 108.96 Z" />
<path fill="#99ac85" opacity="1.00" d=" M 356.19 123.08 C 358.04 122.96 359.91 122.96 361.77 123.06 C 361.30 124.88 356.70 124.86 356.19 123.08 Z" />
</g>
<g id="#afbe9fff">
<path fill="#afbe9f" opacity="1.00" d=" M 418.07 109.01 C 417.97 107.74 428.84 106.37 429.00 109.01 C 425.33 109.00 421.72 108.97 418.07 109.01 Z" />
</g>
<g id="#3b5d25ff">
<path fill="#3b5d25" opacity="1.00" d=" M 194.15 108.69 C 198.27 114.38 194.24 122.73 197.93 128.88 C 204.09 121.30 213.29 127.63 221.13 127.19 C 224.94 127.30 223.33 121.00 226.89 120.92 C 226.98 122.29 227.02 123.66 227.04 125.03 C 227.06 126.80 227.11 130.33 227.14 132.10 C 227.06 133.72 226.99 135.35 227.04 136.98 C 230.96 138.14 241.61 139.78 245.95 136.92 C 246.07 136.46 246.30 135.55 246.41 135.09 C 247.11 133.82 247.64 132.23 246.91 130.85 C 250.54 132.89 247.52 137.46 248.14 140.76 C 257.63 143.90 267.78 142.65 277.58 143.50 C 296.36 143.00 315.06 148.28 333.71 146.76 C 370.65 149.80 408.03 148.69 445.09 151.58 C 506.64 153.42 568.64 152.20 630.60 152.47 C 651.85 149.37 673.98 153.61 695.35 150.61 C 699.39 150.21 696.39 154.49 698.08 156.59 C 695.90 160.61 691.80 163.03 688.38 165.87 C 667.68 162.85 646.79 165.33 626.00 163.94 C 539.28 165.19 452.45 162.36 365.97 161.25 C 329.79 160.35 293.58 158.58 257.54 156.62 C 238.08 157.21 221.61 142.60 202.01 144.99 C 199.52 144.88 198.77 147.76 197.13 149.13 C 196.22 144.64 195.81 140.05 194.24 135.73 C 193.87 126.72 193.96 117.70 194.15 108.69 Z" />
</g>
<g id="#99ab85ff">
<path fill="#99ab85" opacity="1.00" d=" M 247.09 119.24 C 246.98 115.74 247.23 112.25 247.75 108.79 C 247.90 111.43 248.09 114.08 248.33 116.72 C 248.02 117.35 247.40 118.61 247.09 119.24 Z" />
</g>
<g id="#4c7030ff">
<path fill="#4c7030" opacity="1.00" d=" M 418.23 123.04 C 412.19 121.15 412.14 111.02 418.07 109.01 C 421.72 108.97 425.33 109.00 429.00 109.01 C 428.97 112.30 429.03 115.62 428.99 118.93 C 428.34 120.72 426.56 122.41 424.77 123.04 C 423.14 123.04 419.86 123.04 418.23 123.04 Z" />
</g>
<g id="#a7b896ff">
<path fill="#a7b896" opacity="1.00" d=" M 429.00 109.01 C 430.84 112.39 430.83 115.70 428.99 118.93 C 429.03 115.62 428.97 112.30 429.00 109.01 Z" />
</g>
<g id="#97ab89ff">
<path fill="#97ab89" opacity="1.00" d=" M 648.07 109.97 C 650.74 108.70 654.38 108.38 658.99 109.00 C 660.29 109.24 661.56 119.85 659.03 119.94 C 658.97 116.64 659.19 113.35 658.88 110.07 C 656.18 110.04 650.77 110.00 648.07 109.97 Z" />
</g>
<g id="#acbb9bff">
<path fill="#acbb9b" opacity="1.00" d=" M 321.07 110.01 L 321.83 110.05 C 321.87 111.79 321.94 115.26 321.97 116.99 C 320.16 115.15 319.85 112.83 321.07 110.01 Z" />
</g>
<g id="#c8d0bcff">
<path fill="#c8d0bc" opacity="1.00" d=" M 332.65 121.32 C 331.48 117.57 332.13 113.55 332.86 109.80 C 332.96 113.64 332.79 117.47 332.65 121.32 Z" />
</g>
<g id="#ced7c4ff">
<path fill="#ced7c4" opacity="1.00" d=" M 395.65 122.31 C 394.18 118.29 395.06 113.83 395.76 109.75 C 395.72 113.94 395.69 118.12 395.65 122.31 Z" />
</g>
<g id="#446a31ff">
<path fill="#446a31" opacity="1.00" d=" M 649.19 124.07 C 642.38 123.68 641.58 111.55 648.07 109.97 C 650.77 110.00 656.18 110.04 658.88 110.07 C 659.19 113.35 658.97 116.64 659.03 119.94 C 658.08 121.86 656.19 124.19 653.81 124.07 C 652.26 123.98 650.72 123.98 649.19 124.07 Z" />
</g>
<g id="#a0b08dff">
<path fill="#a0b08d" opacity="1.00" d=" M 303.20 113.87 C 304.86 115.87 305.06 118.23 303.78 120.97 L 303.08 120.94 C 303.11 119.17 303.17 115.64 303.20 113.87 Z" />
</g>
<g id="#dce2d7ff">
<path fill="#dce2d7" opacity="1.00" d=" M 60.16 114.86 C 74.15 115.62 88.36 113.95 102.22 115.74 C 88.34 116.39 74.44 115.53 60.58 116.26 C 60.47 115.91 60.26 115.21 60.16 114.86 Z" />
</g>
<g id="#a8b69aff">
<path fill="#a8b69a" opacity="1.00" d=" M 228.34 122.06 C 227.00 119.83 227.10 117.45 228.63 114.93 C 229.98 117.16 229.88 119.54 228.34 122.06 Z" />
<path fill="#a8b69a" opacity="1.00" d=" M 227.04 125.03 L 227.84 125.00 C 228.95 127.29 228.72 129.66 227.14 132.10 C 227.11 130.33 227.06 126.80 227.04 125.03 Z" />
</g>
<g id="#779369ff">
<path fill="#779369" opacity="1.00" d=" M 60.58 116.26 C 74.44 115.53 88.34 116.39 102.22 115.74 C 104.79 122.31 102.02 131.62 103.02 138.97 C 100.45 133.90 102.89 124.58 101.97 118.02 C 90.10 115.58 74.24 117.60 60.85 117.19 L 60.58 116.26 Z" />
</g>
<g id="#224e0fff">
<path fill="#224e0f" opacity="1.00" d=" M 59.78 117.21 L 60.85 117.19 C 74.24 117.60 90.10 115.58 101.97 118.02 C 87.91 117.66 73.78 118.83 59.78 117.21 Z" />
</g>
<g id="#a1b18eff">
<path fill="#a1b18e" opacity="1.00" d=" M 322.18 117.73 C 323.24 120.46 322.73 123.39 322.78 126.27 C 321.85 123.51 322.21 120.58 322.18 117.73 Z" />
</g>
<g id="#648048ff">
<path fill="#648048" opacity="1.00" d=" M 303.08 120.94 L 303.78 120.97 C 303.93 121.44 304.22 122.38 304.36 122.85 C 304.20 123.36 303.87 124.39 303.70 124.90 C 302.95 123.75 302.49 122.27 303.08 120.94 Z" />
</g>
<g id="#95a681ff">
<path fill="#95a681" opacity="1.00" d=" M 246.09 130.99 C 246.04 127.91 246.38 124.83 246.81 121.79 C 246.84 124.81 246.86 127.81 246.91 130.85 L 246.09 130.99 Z" />
</g>
<g id="#cbd3beff">
<path fill="#cbd3be" opacity="1.00" d=" M 265.00 122.02 C 271.74 122.01 278.48 122.04 285.23 122.24 C 279.01 123.27 270.59 124.00 265.00 122.02 Z" />
</g>
<g id="#21341f95">
<path fill="#21341f" opacity="0.58" d=" M 739.94 127.82 C 740.08 126.38 740.37 123.51 740.51 122.08 C 741.76 123.44 742.21 127.51 739.94 127.82 Z" />
</g>
<g id="#a9b898ff">
<path fill="#a9b898" opacity="1.00" d=" M 304.36 122.85 C 305.40 125.90 304.68 129.13 304.66 132.29 C 304.32 129.82 303.99 127.36 303.70 124.90 C 303.87 124.39 304.20 123.36 304.36 122.85 Z" />
</g>
<g id="#879e71ff">
<path fill="#879e71" opacity="1.00" d=" M 418.23 123.04 C 419.86 123.04 423.14 123.04 424.77 123.04 C 423.99 124.92 419.00 124.92 418.23 123.04 Z" />
</g>
<g id="#98ac8aff">
<path fill="#98ac8a" opacity="1.00" d=" M 649.19 124.07 C 650.72 123.98 652.26 123.98 653.81 124.07 C 653.67 125.86 649.32 125.86 649.19 124.07 Z" />
</g>
<g id="#a4b492ff">
<path fill="#a4b492" opacity="1.00" d=" M 322.96 127.01 C 324.93 128.69 325.27 131.05 323.99 134.09 C 322.16 132.29 321.82 129.93 322.96 127.01 Z" />
</g>
<g id="#54723aff">
<path fill="#54723a" opacity="1.00" d=" M 246.09 130.99 L 246.91 130.85 C 247.64 132.23 247.11 133.82 246.41 135.09 C 245.92 133.74 245.81 132.38 246.09 130.99 Z" />
</g>
<g id="#1a2c187c">
<path fill="#1a2c18" opacity="0.49" d=" M 737.94 135.78 C 737.81 134.49 737.82 133.12 738.59 132.01 C 739.64 132.87 739.76 136.00 737.94 135.78 Z" />
</g>
<g id="#345221ff">
<path fill="#345221" opacity="1.00" d=" M 194.24 135.73 C 195.81 140.05 196.22 144.64 197.13 149.13 C 198.77 147.76 199.52 144.88 202.01 144.99 C 221.61 142.60 238.08 157.21 257.54 156.62 C 293.58 158.58 329.79 160.35 365.97 161.25 C 452.45 162.36 539.28 165.19 626.00 163.94 C 646.79 165.33 667.68 162.85 688.38 165.87 C 685.33 168.23 681.70 169.62 678.27 171.27 C 542.65 169.43 407.03 170.28 271.54 166.62 C 247.62 166.32 223.88 163.24 200.01 161.94 C 197.40 161.87 195.94 159.29 194.05 157.84 C 193.91 150.47 194.03 143.10 194.24 135.73 Z" />
</g>
<g id="#738a5eff">
<path fill="#738a5e" opacity="1.00" d=" M 227.04 136.98 C 233.34 137.02 239.64 137.01 245.95 136.92 C 241.61 139.78 230.96 138.14 227.04 136.98 Z" />
</g>
<g id="#9bac88ff">
<path fill="#9bac88" opacity="1.00" d=" M 305.83 137.22 C 311.86 137.07 317.89 136.98 323.93 136.94 C 320.43 140.07 310.83 137.52 305.83 137.22 Z" />
</g>
<g id="#7d9768ff">
<path fill="#7d9768" opacity="1.00" d=" M 527.01 138.01 L 527.99 137.99 C 533.65 138.01 539.32 138.00 545.00 137.97 L 545.97 137.98 C 542.02 140.70 531.22 139.11 527.01 138.01 Z" />
</g>
<g id="#8ba478ff">
<path fill="#8ba478" opacity="1.00" d=" M 561.07 137.99 L 562.02 137.97 C 567.67 138.00 573.33 138.00 579.00 137.97 L 579.97 137.98 C 576.05 140.68 564.97 139.16 561.07 137.99 Z" />
</g>
<g id="#96ad86ff">
<path fill="#96ad86" opacity="1.00" d=" M 595.06 137.99 L 596.02 137.97 C 601.94 138.01 607.86 138.01 613.80 138.05 C 609.90 140.59 598.88 139.21 595.06 137.99 Z" />
</g>
<g id="#738c5cff">
<path fill="#738c5c" opacity="1.00" d=" M 353.81 139.13 C 357.28 139.14 360.71 139.16 364.20 139.16 C 360.72 140.19 357.26 140.18 353.81 139.13 Z" />
</g>
<g id="#8ba077ff">
<path fill="#8ba077" opacity="1.00" d=" M 415.81 139.13 C 419.63 139.07 423.42 139.15 427.26 139.26 C 423.54 140.48 419.50 140.07 415.81 139.13 Z" />
</g>
<g id="#141b1886">
<path fill="#141b18" opacity="0.53" d=" M 184.00 142.01 L 184.95 141.99 C 183.97 147.91 186.98 157.69 184.02 162.00 C 183.91 155.34 183.99 148.67 184.00 142.01 Z" />
</g>
<g id="#2b441cff">
<path fill="#2b441c" opacity="1.00" d=" M 194.05 157.84 C 195.94 159.29 197.40 161.87 200.01 161.94 C 223.88 163.24 247.62 166.32 271.54 166.62 C 407.03 170.28 542.65 169.43 678.27 171.27 C 672.22 174.89 664.97 176.64 657.97 175.26 C 601.33 174.14 544.61 176.29 488.00 173.97 C 442.65 173.95 397.30 174.45 352.00 172.96 C 300.59 173.28 249.11 173.38 197.84 170.23 C 195.47 170.12 195.00 167.44 194.03 165.76 C 194.03 163.12 194.04 160.48 194.05 157.84 Z" />
</g>
<g id="#365f27ff">
<path fill="#365f27" opacity="1.00" d=" M 24.33 165.36 C 66.25 159.22 108.75 161.58 151.00 160.97 C 159.29 161.56 168.69 159.05 175.98 164.12 C 176.87 166.19 177.80 168.25 178.80 170.28 C 178.83 170.74 178.90 171.66 178.94 172.12 C 175.59 168.66 170.89 166.61 165.99 167.07 C 122.04 167.25 77.83 165.42 34.14 171.22 C 24.60 172.23 14.19 176.55 5.01 171.97 C 3.47 171.43 3.21 169.34 3.01 167.92 C 10.24 170.05 17.15 165.82 24.33 165.36 Z" />
</g>
<g id="#2f5422ff">
<path fill="#2f5422" opacity="1.00" d=" M 34.14 171.22 C 77.83 165.42 122.04 167.25 165.99 167.07 C 170.89 166.61 175.59 168.66 178.94 172.12 C 178.98 172.88 179.05 174.39 179.09 175.14 C 178.88 175.33 178.45 175.69 178.24 175.88 C 177.68 175.00 177.10 174.14 176.50 173.30 C 120.95 172.00 65.42 173.15 9.98 176.02 C 7.87 175.76 4.52 174.66 5.01 171.97 C 14.19 176.55 24.60 172.23 34.14 171.22 Z" />
</g>
<g id="#28441efe">
<path fill="#28441e" opacity="1.00" d=" M 9.98 176.02 C 65.42 173.15 120.95 172.00 176.50 173.30 C 177.10 174.14 177.68 175.00 178.24 175.88 C 177.68 176.16 176.57 176.72 176.01 177.00 C 131.67 176.99 87.34 177.01 43.00 176.99 C 33.00 177.01 22.99 176.94 12.99 177.02 C 11.29 177.44 10.28 177.10 9.98 176.02 Z" />
</g>
<g id="#0c0e0d79">
<path fill="#0c0e0d" opacity="0.47" d=" M 682.03 176.53 C 683.54 175.89 685.19 175.83 686.81 175.99 C 686.67 177.99 683.17 177.55 682.03 176.53 Z" />
</g>
<g id="#0d110d86">
<path fill="#0d110d" opacity="0.53" d=" M 12.99 177.02 C 22.99 176.94 33.00 177.01 43.00 176.99 L 43.01 177.95 C 33.82 176.84 20.51 180.14 12.99 177.02 Z" />
</g>
<g id="#141a13ba">
<path fill="#141a13" opacity="0.73" d=" M 43.00 176.99 C 87.34 177.01 131.67 176.99 176.01 177.00 C 176.00 179.09 172.46 177.54 170.99 178.02 C 146.66 177.96 122.33 178.01 98.00 178.00 C 79.67 177.93 61.33 178.13 43.01 177.95 L 43.00 176.99 Z" />
</g>
<g id="#181c17da">
<path fill="#181c17" opacity="0.85" d=" M 200.98 177.01 C 218.05 177.40 235.20 176.10 252.23 177.78 C 235.82 178.21 219.40 177.90 202.99 178.02 C 202.49 177.77 201.48 177.26 200.98 177.01 Z" />
</g>
<g id="#101311aa">
<path fill="#101311" opacity="0.67" d=" M 661.81 177.85 C 667.43 175.43 674.13 177.79 680.09 176.97 C 675.76 179.36 667.70 177.64 661.81 177.85 Z" />
</g>
<g id="#03050333">
<path fill="#030503" opacity="0.20" d=" M 98.00 178.00 C 122.33 178.01 146.66 177.96 170.99 178.02 C 148.60 180.26 122.03 178.45 98.03 178.95 L 98.00 178.00 Z" />
</g>
<g id="#090b096a">
<path fill="#090b09" opacity="0.42" d=" M 202.99 178.02 C 219.40 177.90 235.82 178.21 252.23 177.78 C 261.47 178.14 270.73 177.97 279.99 178.00 L 280.01 178.95 C 254.35 179.05 228.68 179.01 203.02 178.98 L 202.99 178.02 Z" />
</g>
<g id="#0f120fa2">
<path fill="#0f120f" opacity="0.64" d=" M 279.99 178.00 C 319.66 178.00 359.33 178.00 398.99 178.00 L 399.01 178.95 C 359.34 179.04 319.67 179.04 280.01 178.95 L 279.99 178.00 Z" />
</g>
<g id="#171b16d8">
<path fill="#171b16" opacity="0.85" d=" M 398.99 178.00 C 459.06 178.52 519.22 176.96 579.23 178.79 C 573.79 178.87 568.41 178.99 562.99 179.01 C 521.99 178.99 480.99 179.00 440.00 179.00 C 426.33 178.90 412.67 179.17 399.01 178.95 L 398.99 178.00 Z" />
</g>
<g id="#06080651">
<path fill="#060806" opacity="0.32" d=" M 440.00 179.00 C 480.99 179.00 521.99 178.99 562.99 179.01 L 563.01 179.95 C 522.02 180.04 481.02 180.03 440.03 179.96 L 440.00 179.00 Z" />
</g>
<g id="#0d110d8f">
<path fill="#0d110d" opacity="0.56" d=" M 562.99 179.01 C 568.41 178.99 573.79 178.87 579.23 178.79 C 605.48 179.32 631.76 178.81 658.03 179.03 C 628.18 181.24 594.39 179.46 563.01 179.95 L 562.99 179.01 Z" />
</g>
</svg>
