<?xml version="1.0" encoding="UTF-8" standalone="no"?>
<!-- Created with Inkscape (http://www.inkscape.org/) -->
<svg
   xmlns:dc="http://purl.org/dc/elements/1.1/"
   xmlns:cc="http://web.resource.org/cc/"
   xmlns:rdf="http://www.w3.org/1999/02/22-rdf-syntax-ns#"
   xmlns:svg="http://www.w3.org/2000/svg"
   xmlns="http://www.w3.org/2000/svg"
   xmlns:xlink="http://www.w3.org/1999/xlink"
   xmlns:sodipodi="http://sodipodi.sourceforge.net/DTD/sodipodi-0.dtd"
   xmlns:inkscape="http://www.inkscape.org/namespaces/inkscape"
   width="113"
   height="33"
   id="svg2751"
   sodipodi:version="0.32"
   inkscape:version="0.45.1"
   version="1.0"
   inkscape:output_extension="org.inkscape.output.svg.inkscape">
  <defs
     id="defs2753">

  </defs>
  <sodipodi:namedview
     id="base"
     pagecolor="#ffffff"
     bordercolor="#666666"
     borderopacity="1.0"
     gridtolerance="10000"
     guidetolerance="10"
     objecttolerance="10"
     inkscape:pageopacity="0.0"
     inkscape:pageshadow="2"
     inkscape:zoom="8.6193351"
     inkscape:cx="56.86468"
     inkscape:cy="14.320445"
     inkscape:document-units="px"
     inkscape:current-layer="layer1"
     width="113px"
     height="33px"
     showgrid="false"
     inkscape:window-width="1118"
     inkscape:window-height="575"
     inkscape:window-x="24"
     inkscape:window-y="92" />
  <metadata
     id="metadata2756">
    <rdf:RDF>
      <cc:Work
         rdf:about="">
        <dc:format>image/svg+xml</dc:format>
        <dc:type
           rdf:resource="http://purl.org/dc/dcmitype/StillImage" />
      </cc:Work>
    </rdf:RDF>
  </metadata>
  <g
     inkscape:label="Layer 1"
     inkscape:groupmode="layer"
     id="layer1"
     transform="translate(-206.43499,-540.91078)">
    <path
       id="path2853"
       d="M 84.826793,814.83038 L 84.830793,814.83038 C 84.830793,814.83038 84.828793,814.83038 84.826793,814.83038"
       style="fill:#f68932;fill-rule:nonzero;stroke:none" />
    <path
       id="path2855"
       d="M 84.823793,814.83038 C 84.823793,814.83038 84.824793,814.83038 84.826793,814.83038 L 84.821793,814.83038 L 84.823793,814.83038"
       style="fill:#f68932;fill-rule:nonzero;stroke:none" />
    <path
       id="path2857"
       d="M 91.356793,811.31038 C 91.356793,811.31038 91.360793,811.31038 91.362793,811.31038 L 91.364793,811.31038 L 91.356793,811.31038"
       style="fill:#f68932;fill-rule:nonzero;stroke:none" />
    <path
       id="path2899"
       d="M 318.89906,565.86319 C 318.89906,569.97731 315.56434,573.3142 311.45022,573.3142 L 214.61315,573.3142 C 210.49902,573.3142 207.16213,569.97731 207.16213,565.86319 L 207.16213,549.01374 C 207.16213,544.89962 210.49902,541.56273 214.61315,541.56273 L 311.45022,541.56273 C 315.56434,541.56273 318.89906,544.89962 318.89906,549.01374 L 318.89906,565.86319"
       style="fill:#3a3845;fill-rule:nonzero;stroke:none" />
    <path
       id="path2901"
       d="M 226.16742,557.08567 C 225.5465,556.40614 225.00157,556.08699 223.93559,556.56679 C 223.12796,556.92936 221.99251,557.05962 220.96561,556.77955 C 219.22009,556.33015 217.99345,554.6845 218.13457,552.82392 C 218.17799,552.26596 218.33865,551.74491 218.59266,551.28465 C 219.02687,550.3142 218.84233,549.75407 218.09332,549.35894 C 217.79372,549.19828 217.81109,548.91605 218.12806,548.80967 C 226.38018,547.29862 226.93597,554.26115 226.16742,557.08567 z M 222.16836,550.41841 C 220.65949,550.30551 219.34384,551.43445 219.23095,552.94333 C 219.11588,554.4522 220.24482,555.76785 221.7537,555.88291 C 223.26257,555.99581 224.57822,554.8647 224.69328,553.35799 C 224.80618,551.84912 223.67724,550.53347 222.16836,550.41841"
       style="fill:#ffffff;fill-rule:nonzero;stroke:none" />
    <path
       id="path2903"
       d="M 223.77059,553.28635 C 223.69461,554.2872 222.82402,555.03621 221.82534,554.96022 C 220.82449,554.88424 220.07548,554.01365 220.15147,553.0128 C 220.22746,552.01412 221.09804,551.26511 222.09889,551.3411 C 223.09757,551.41491 223.84658,552.28767 223.77059,553.28635"
       style="fill:#ffffff;fill-rule:nonzero;stroke:none" />
    <path
       id="path2905"
       d="M 244.44975,554.53253 L 247.08974,554.53253 C 247.60861,554.53253 247.88434,554.33713 247.88434,553.9724 C 247.88434,553.58378 247.60861,553.38188 247.10927,553.38188 L 244.44975,553.38188 L 244.44975,552.3832 L 247.08974,552.3832 C 247.63901,552.3832 247.88434,552.19866 247.88434,551.80136 C 247.88434,551.42577 247.63032,551.23038 247.13967,551.23038 L 244.44975,551.23038 L 244.44975,550.23387 L 247.03763,550.23387 C 247.63032,550.23387 247.86263,550.2838 248.16874,550.47702 C 248.60729,550.75275 248.8613,551.23038 248.8613,551.78182 C 248.8613,552.22037 248.72887,552.55471 248.44446,552.87168 C 248.70933,553.12569 248.8613,553.51214 248.8613,553.96154 C 248.8613,554.50213 248.61815,554.97976 248.19914,555.26417 C 247.90388,555.45956 247.61947,555.52903 247.05934,555.52903 L 244.44975,555.52903 L 244.44975,554.53253"
       style="fill:#ffffff;fill-rule:nonzero;stroke:none" />
    <path
       id="path2907"
       d="M 228.59681,552.23557 C 228.59681,550.89169 229.49345,550.11663 230.52904,550.11663 C 231.32581,550.11663 231.90331,550.49873 232.11173,551.05669 L 232.13344,551.05669 C 232.34186,550.49873 232.91936,550.11663 233.71613,550.11663 C 234.75171,550.11663 235.64618,550.89169 235.64618,552.23557 L 235.64618,555.54206 L 234.5129,555.54206 L 234.5129,552.24642 C 234.5129,551.61248 234.10909,551.25209 233.64014,551.25209 C 233.09304,551.25209 232.68923,551.57991 232.68923,552.3984 L 232.68923,555.54206 L 231.55594,555.54206 L 231.55594,552.3984 C 231.55594,551.57991 231.14996,551.25209 230.60503,551.25209 C 230.13608,551.25209 229.73227,551.61248 229.73227,552.24642 L 229.73227,555.54206 L 228.59681,555.54206 L 228.59681,552.23557"
       style="fill:#ffffff;fill-rule:nonzero;stroke:none" />
    <path
       id="path2909"
       d="M 237.17242,551.1609 L 235.6071,551.1609 L 235.6071,550.22518 L 239.72774,550.22518 L 239.72774,551.1609 L 238.16025,551.1609 L 238.16025,555.57246 L 237.17242,555.57246 L 237.17242,551.1609"
       style="fill:#ffffff;fill-rule:nonzero;stroke:none" />
    <path
       id="path2911"
       d="M 239.70386,550.22518 L 240.76984,550.22518 L 242.07246,553.49477 L 243.37509,550.22518 L 244.4389,550.22518 L 242.07246,555.68318 L 239.70386,550.22518"
       style="fill:#ffffff;fill-rule:nonzero;stroke:none" />
    <path
       id="path2913"
       d="M 282.02611,559.4521 L 280.43474,553.83345 C 280.22849,553.11267 279.69876,553.08879 279.49251,553.83345 L 277.99232,559.4521 L 282.02611,559.4521 z M 270.86045,562.75643 C 270.88434,562.95182 270.91039,563.13853 270.93861,563.25142 C 271.02328,563.57925 271.35328,563.80721 271.79617,563.80721 C 272.23689,563.80721 272.60597,563.64655 272.72321,563.28616 L 272.78834,563.09945 L 276.93285,550.44663 C 277.05009,550.08624 277.52121,549.84525 277.96193,549.84525 L 281.99572,549.84525 C 282.43644,549.84525 282.90756,550.08624 283.02479,550.44663 L 287.26266,562.42643 C 287.38424,562.7586 287.53838,563.17544 287.58398,563.27531 C 287.74463,563.61399 287.91615,563.79853 288.35687,563.79853 L 288.90397,563.79853 C 289.14278,563.79853 289.36206,563.68563 289.59653,563.46419 C 289.72245,563.34478 289.85923,563.16893 289.95475,563.03215 L 290.08936,562.83024 L 293.64335,557.55462 L 289.13844,550.7115 C 288.81496,550.22953 289.02121,549.84525 289.63995,549.84525 L 292.75974,549.84525 C 293.28947,549.84525 293.76059,550.08624 293.93644,550.39887 L 296.2334,554.76917 L 298.53036,550.39887 C 298.70622,550.06236 299.17733,549.84525 299.70706,549.84525 L 302.32751,549.84525 C 302.94626,549.84525 303.15251,550.20564 302.82685,550.7115 L 298.49997,557.38745 L 303.68007,565.07293 C 304.00572,565.55273 303.79948,565.937 303.18073,565.937 L 300.06094,565.937 C 299.53121,565.937 299.06009,565.69819 298.88207,565.38556 L 295.90992,560.12513 L 292.96599,565.38556 C 292.79447,565.71121 292.34507,565.92615 291.8327,565.937 L 285.01129,565.94569 L 284.88103,565.937 C 284.37952,565.937 283.96702,565.72207 283.84979,565.33779 L 282.90756,562.33525 L 277.16733,562.33525 L 276.28371,565.33779 C 276.16648,565.69819 275.75398,565.937 275.25464,565.937 L 267.986,565.937 C 267.54528,565.937 267.04377,565.62437 267.04377,565.26615 L 266.68989,555.44219 C 266.66166,554.93851 266.27956,554.64976 266.07331,555.44219 L 263.92398,563.60748 C 263.83497,563.96787 263.33346,564.20885 262.89274,564.20885 L 260.12683,564.20885 C 259.68394,564.20885 259.1846,563.96787 259.09559,563.60748 L 257.06349,555.44219 C 256.88764,554.72141 256.47514,554.88858 256.44692,555.44219 L 256.03442,565.26615 C 256.00403,565.62437 255.53291,565.937 255.09219,565.937 L 252.73661,565.937 C 252.29589,565.937 252.00063,565.62437 252.03102,565.26615 L 253.32496,550.51827 C 253.35536,550.15788 253.82647,549.84525 254.26719,549.84525 L 258.12513,549.84525 C 258.56585,549.84525 259.06519,550.08624 259.15421,550.44663 L 261.1863,559.28493 C 261.33176,559.93408 261.80287,559.86026 261.95051,559.28493 L 264.07161,550.44663 C 264.15845,550.08624 264.65996,549.84525 265.10068,549.84525 L 268.86961,549.84525 C 269.31033,549.84525 269.78145,550.15788 269.81184,550.51827 L 270.79532,561.98137 L 270.86045,562.75643"
       style="fill:#ffffff;fill-rule:nonzero;stroke:none" />
  </g>
</svg>
