<?xml version="1.0" encoding="UTF-8" standalone="yes"?>
<svg xmlns="http://www.w3.org/2000/svg" xmlns:xlink="http://www.w3.org/1999/xlink" width="364px" height="106.66666666666666px" viewBox="0 0 273 80" version="1.1">
  <g id="surface1">
    <path style=" stroke:none;fill-rule:nonzero;fill:rgb(22.745098%,21.960784%,27.058824%);fill-opacity:1;" d="M 271.707031 60.492188 C 271.707031 70.464844 263.648438 78.554688 253.710938 78.554688 L 19.757812 78.554688 C 9.820312 78.554688 1.757812 70.464844 1.757812 60.492188 L 1.757812 19.644531 C 1.757812 9.667969 9.820312 1.582031 19.757812 1.582031 L 253.710938 1.582031 C 263.648438 1.582031 271.707031 9.667969 271.707031 19.644531 L 271.707031 60.492188 "/>
    <path style=" stroke:none;fill-rule:nonzero;fill:rgb(100%,100%,100%);fill-opacity:1;" d="M 47.671875 39.210938 C 46.171875 37.566406 44.855469 36.789062 42.28125 37.953125 C 40.328125 38.832031 37.585938 39.148438 35.105469 38.46875 C 30.886719 37.378906 27.925781 33.390625 28.265625 28.878906 C 28.371094 27.527344 28.757812 26.265625 29.371094 25.148438 C 30.421875 22.796875 29.976562 21.4375 28.164062 20.480469 C 27.441406 20.089844 27.484375 19.40625 28.25 19.148438 C 48.1875 15.484375 49.527344 32.363281 47.671875 39.210938 Z M 38.011719 23.046875 C 34.367188 22.773438 31.1875 25.511719 30.914062 29.167969 C 30.636719 32.828125 33.363281 36.015625 37.007812 36.296875 C 40.652344 36.570312 43.832031 33.828125 44.109375 30.175781 C 44.382812 26.515625 41.65625 23.328125 38.011719 23.046875 "/>
    <path style=" stroke:none;fill-rule:nonzero;fill:rgb(100%,100%,100%);fill-opacity:1;" d="M 41.882812 30 C 41.699219 32.425781 39.59375 34.242188 37.183594 34.058594 C 34.765625 33.875 32.953125 31.765625 33.136719 29.339844 C 33.320312 26.917969 35.425781 25.101562 37.84375 25.285156 C 40.253906 25.464844 42.066406 27.582031 41.882812 30 "/>
    <path style=" stroke:none;fill-rule:nonzero;fill:rgb(100%,100%,100%);fill-opacity:1;" d="M 91.839844 33.023438 L 98.21875 33.023438 C 99.472656 33.023438 100.140625 32.546875 100.140625 31.664062 C 100.140625 30.722656 99.472656 30.234375 98.265625 30.234375 L 91.839844 30.234375 L 91.839844 27.8125 L 98.21875 27.8125 C 99.546875 27.8125 100.140625 27.363281 100.140625 26.402344 C 100.140625 25.492188 99.523438 25.015625 98.339844 25.015625 L 91.839844 25.015625 L 91.839844 22.601562 L 98.09375 22.601562 C 99.523438 22.601562 100.085938 22.722656 100.824219 23.191406 C 101.886719 23.859375 102.5 25.015625 102.5 26.355469 C 102.5 27.417969 102.179688 28.226562 101.492188 28.996094 C 102.132812 29.613281 102.5 30.546875 102.5 31.636719 C 102.5 32.949219 101.910156 34.105469 100.898438 34.796875 C 100.1875 35.269531 99.5 35.4375 98.144531 35.4375 L 91.839844 35.4375 L 91.839844 33.023438 "/>
    <path style=" stroke:none;fill-rule:nonzero;fill:rgb(100%,100%,100%);fill-opacity:1;" d="M 53.542969 27.453125 C 53.542969 24.195312 55.707031 22.316406 58.210938 22.316406 C 60.132812 22.316406 61.53125 23.242188 62.03125 24.597656 L 62.085938 24.597656 C 62.589844 23.242188 63.984375 22.316406 65.910156 22.316406 C 68.410156 22.316406 70.570312 24.195312 70.570312 27.453125 L 70.570312 35.46875 L 67.835938 35.46875 L 67.835938 27.480469 C 67.835938 25.945312 66.859375 25.070312 65.726562 25.070312 C 64.402344 25.070312 63.429688 25.863281 63.429688 27.847656 L 63.429688 35.46875 L 60.691406 35.46875 L 60.691406 27.847656 C 60.691406 25.863281 59.710938 25.070312 58.394531 25.070312 C 57.261719 25.070312 56.285156 25.945312 56.285156 27.480469 L 56.285156 35.46875 L 53.542969 35.46875 L 53.542969 27.453125 "/>
    <path style=" stroke:none;fill-rule:nonzero;fill:rgb(100%,100%,100%);fill-opacity:1;" d="M 74.257812 24.847656 L 70.476562 24.847656 L 70.476562 22.582031 L 80.433594 22.582031 L 80.433594 24.847656 L 76.644531 24.847656 L 76.644531 35.542969 L 74.257812 35.542969 L 74.257812 24.847656 "/>
    <path style=" stroke:none;fill-rule:nonzero;fill:rgb(100%,100%,100%);fill-opacity:1;" d="M 80.375 22.582031 L 82.949219 22.582031 L 86.097656 30.507812 L 89.246094 22.582031 L 91.816406 22.582031 L 86.097656 35.8125 L 80.375 22.582031 "/>
    <path style=" stroke:none;fill-rule:nonzero;fill:rgb(100%,100%,100%);fill-opacity:1;" d="M 182.621094 44.949219 L 178.777344 31.328125 C 178.28125 29.582031 177 29.523438 176.5 31.328125 L 172.878906 44.949219 Z M 155.648438 52.960938 C 155.703125 53.433594 155.769531 53.886719 155.835938 54.160156 C 156.039062 54.953125 156.839844 55.507812 157.90625 55.507812 C 158.972656 55.507812 159.863281 55.117188 160.148438 54.242188 L 160.304688 53.789062 L 170.316406 23.117188 C 170.601562 22.242188 171.738281 21.660156 172.804688 21.660156 L 182.550781 21.660156 C 183.613281 21.660156 184.753906 22.242188 185.035156 23.117188 L 195.273438 52.160156 C 195.566406 52.964844 195.941406 53.976562 196.050781 54.21875 C 196.4375 55.039062 196.851562 55.484375 197.917969 55.484375 L 199.238281 55.484375 C 199.816406 55.484375 200.347656 55.210938 200.914062 54.675781 C 201.214844 54.386719 201.546875 53.960938 201.777344 53.628906 L 202.101562 53.136719 L 210.6875 40.347656 L 199.804688 23.757812 C 199.023438 22.589844 199.523438 21.660156 201.015625 21.660156 L 208.554688 21.660156 C 209.835938 21.660156 210.972656 22.242188 211.398438 23 L 216.945312 33.597656 L 222.496094 23 C 222.921875 22.1875 224.058594 21.660156 225.339844 21.660156 L 231.667969 21.660156 C 233.164062 21.660156 233.664062 22.53125 232.875 23.757812 L 222.421875 39.945312 L 234.9375 58.574219 C 235.722656 59.738281 235.226562 60.667969 233.730469 60.667969 L 226.195312 60.667969 C 224.914062 60.667969 223.777344 60.089844 223.34375 59.332031 L 216.164062 46.582031 L 209.054688 59.332031 C 208.636719 60.121094 207.550781 60.644531 206.316406 60.667969 L 189.835938 60.691406 L 189.519531 60.667969 C 188.308594 60.667969 187.3125 60.148438 187.027344 59.21875 L 184.753906 51.9375 L 170.882812 51.9375 L 168.75 59.21875 C 168.464844 60.089844 167.46875 60.667969 166.261719 60.667969 L 148.703125 60.667969 C 147.636719 60.667969 146.425781 59.910156 146.425781 59.042969 L 145.570312 35.226562 C 145.503906 34.007812 144.582031 33.304688 144.082031 35.226562 L 138.890625 55.023438 C 138.675781 55.894531 137.460938 56.480469 136.398438 56.480469 L 129.714844 56.480469 C 128.644531 56.480469 127.4375 55.894531 127.222656 55.023438 L 122.316406 35.226562 C 121.890625 33.480469 120.894531 33.886719 120.824219 35.226562 L 119.828125 59.042969 C 119.753906 59.910156 118.617188 60.667969 117.550781 60.667969 L 111.863281 60.667969 C 110.796875 60.667969 110.082031 59.910156 110.15625 59.042969 L 113.28125 23.289062 C 113.355469 22.417969 114.496094 21.660156 115.558594 21.660156 L 124.878906 21.660156 C 125.945312 21.660156 127.152344 22.242188 127.367188 23.117188 L 132.273438 44.542969 C 132.625 46.117188 133.765625 45.9375 134.121094 44.542969 L 139.246094 23.117188 C 139.457031 22.242188 140.667969 21.660156 141.730469 21.660156 L 150.835938 21.660156 C 151.902344 21.660156 153.039062 22.417969 153.113281 23.289062 L 155.488281 51.082031 L 155.648438 52.960938 "/>
  </g>
</svg>