<?xml version="1.0" encoding="UTF-8" standalone="yes"?>
<svg xmlns="http://www.w3.org/2000/svg" xmlns:xlink="http://www.w3.org/1999/xlink" width="234.66666666666666px" height="106.66666666666666px" viewBox="0 0 176 80" version="1.1">
  <g id="surface1">
    <path style=" stroke:none;fill-rule:nonzero;fill:rgb(0%,61.568627%,19.607843%);fill-opacity:1;" d="M 14.171875 0.00390625 L 161.828125 0.00390625 L 161.828125 80 L 14.171875 80 Z M 14.171875 0.00390625 "/>
    <path style=" stroke:none;fill-rule:nonzero;fill:rgb(87.058824%,13.333333%,7.058824%);fill-opacity:1;" d="M 161.828125 0 L 176 0 L 176 14.210938 L 161.828125 14.210938 Z M 161.828125 0 "/>
    <path style=" stroke:none;fill-rule:nonzero;fill:rgb(100%,100%,100%);fill-opacity:1;" d="M 164.65625 11.367188 L 166.734375 11.367188 L 166.734375 5.882812 L 170.964844 11.367188 L 173.167969 11.367188 L 173.167969 2.839844 L 171.085938 2.839844 L 171.085938 8.332031 L 166.878906 2.839844 L 164.65625 2.839844 Z M 164.65625 11.367188 "/>
    <path style=" stroke:none;fill-rule:nonzero;fill:rgb(100%,100%,100%);fill-opacity:1;" d="M 129.929688 39.46875 L 144.046875 20.007812 L 133.574219 20.007812 L 124.785156 32.371094 L 116.277344 20.007812 L 105.929688 20.007812 L 119.421875 39.367188 L 108.976562 53.707031 C 104.746094 42.46875 100.511719 31.230469 96.28125 19.996094 L 86.585938 19.996094 C 81.570312 33.328125 76.535156 46.664062 71.515625 60 L 80.667969 60 C 81.675781 57.121094 82.6875 54.550781 83.699219 51.671875 L 98.777344 51.671875 C 99.785156 54.550781 100.792969 57.121094 101.796875 60 L 115.058594 60 L 124.640625 46.488281 L 133.851562 60 L 144.328125 60 Z M 86.234375 44.78125 C 88.109375 39.40625 91.558594 29.277344 91.558594 29.277344 C 91.558594 29.277344 95.011719 39.40625 96.894531 44.78125 Z M 86.234375 44.78125 "/>
    <path style=" stroke:none;fill-rule:nonzero;fill:rgb(100%,100%,100%);fill-opacity:1;" d="M 70.261719 19.996094 L 62.34375 19.996094 C 62.34375 19.996094 53.425781 38.351562 52.492188 40.269531 C 51.558594 38.355469 42.597656 19.996094 42.597656 19.996094 L 34.109375 19.996094 L 34.109375 60 L 42.925781 60 L 42.925781 39.15625 C 44.523438 42.257812 49.550781 52.082031 49.550781 52.082031 L 55.445312 52.082031 C 55.445312 52.082031 60.429688 42.296875 62.019531 39.167969 L 62.019531 60 L 70.835938 60 L 70.835938 19.996094 Z M 70.261719 19.996094 "/>
  </g>
</svg>