<?xml version="1.0" encoding="UTF-8" standalone="yes"?>
<svg xmlns="http://www.w3.org/2000/svg" xmlns:xlink="http://www.w3.org/1999/xlink" width="568px" height="106.66666666666666px" viewBox="0 0 426 80" version="1.1">
  <g id="surface1">
    <path style=" stroke:none;fill-rule:nonzero;fill:rgb(0%,0%,0%);fill-opacity:1;" d="M 0 0 L 0 22.480469 L 80.492188 22.480469 L 80.492188 0 Z M 87.75 0 L 87.75 10.042969 L 135.503906 80 L 181.171875 80 L 126.636719 0 Z M 153.730469 0 L 141.359375 18.140625 L 183.648438 80 L 188.039062 80 L 188.039062 0 Z M 195.296875 0 L 250.222656 80 L 295.789062 80 L 241.128906 0 Z M 257.109375 0 L 311.769531 80 L 357.726562 80 L 302.945312 0 Z M 317.707031 0 L 311.210938 9.980469 L 331.972656 40.042969 L 359.109375 0 Z M 369.167969 0 L 346.242188 33.183594 L 378.222656 80 L 423.910156 80 Z M 384.839844 0 L 378.078125 9.875 L 398.796875 39.957031 L 426.261719 0 Z M 195.296875 3.492188 L 195.296875 80 L 222.65625 80 L 235.109375 61.859375 Z M 87.75 13.554688 L 87.75 80 L 133.007812 80 Z M 78.453125 26.941406 C 77.316406 26.953125 75.957031 26.980469 75.050781 27.046875 C 56.695312 28.355469 37.707031 35.597656 23.15625 47.109375 C 12.726562 55.355469 4.292969 67.210938 0.578125 80 L 80.492188 80 L 80.492188 26.941406 C 80.492188 26.941406 79.585938 26.933594 78.453125 26.941406 Z M 286.613281 46.507812 L 280.902344 54.792969 L 297.914062 80 L 309.316406 80 Z M 352.964844 46.570312 L 345.171875 58.386719 L 359.851562 80 L 376.140625 80 Z M 352.964844 46.570312 "/>
  </g>
</svg>