<?xml version="1.0" encoding="UTF-8" standalone="no"?>
<!-- Created with Inkscape (http://www.inkscape.org/) -->

<svg
   xmlns:dc="http://purl.org/dc/elements/1.1/"
   xmlns:cc="http://creativecommons.org/ns#"
   xmlns:rdf="http://www.w3.org/1999/02/22-rdf-syntax-ns#"
   xmlns:svg="http://www.w3.org/2000/svg"
   xmlns="http://www.w3.org/2000/svg"
   version="1.1"
   width="787.03003"
   height="122"
   id="svg2">
  <metadata
     id="metadata8">
    <rdf:RDF>
      <cc:Work
         rdf:about="">
        <dc:format>image/svg+xml</dc:format>
        <dc:type
           rdf:resource="http://purl.org/dc/dcmitype/StillImage" />
        <dc:title></dc:title>
      </cc:Work>
    </rdf:RDF>
  </metadata>
  <defs
     id="defs6" />
  <path
     d="m 0,0 0,34.280994 123.00787,0 L 123.00787,0 0,0 z m 134.09884,0 0,15.313017 L 207.07174,122 276.8623,122 193.52323,0 134.09884,0 z M 234.92489,0 216.02001,27.664256 280.64328,122 l 6.71123,0 0,-122 -52.42962,0 z m 63.5206,0 83.9377,122 69.63306,0 L 368.48812,0 298.44549,0 z m 94.46149,0 83.52813,122 70.2317,0 L 462.94962,0 392.90698,0 z m 92.60244,0 -9.92504,15.218485 31.72874,45.844527 L 548.77794,0 485.50942,0 z M 564.15392,0 529.11681,50.602268 577.98595,122 647.8081,122 564.15392,0 z m 23.94612,0 -10.33459,15.060947 31.6657,45.876038 L 651.4,0 588.10004,0 z m -289.65455,5.3248961 0,116.6751039 41.81123,0 19.03104,-27.664257 -60.84227,-89.0108469 z m -164.34665,15.3445209 0,101.330583 69.16035,0 -69.16035,-101.330583 z m -14.21029,20.417364 c -1.73366,0.0157 -3.81554,0.06089 -5.19876,0.15754 C 86.637812,43.243181 57.622864,54.285862 35.383681,71.838849 19.449283,84.415572 6.5584593,102.49448 0.88222895,122 l 122.12564105,0 0,-80.913219 c 0,0 -1.38556,-0.0157 -3.11932,0 z M 437.99515,70.9251 429.26738,83.559919 455.26162,122 472.68557,122 437.99515,70.9251 z M 539.38838,71.019637 527.4784,89.042366 549.91217,122 l 24.89144,0 -35.41523,-50.980368 z"
     id="path3801"
     style="fill:#000000" />
  <g
     transform="translate(-0.00155,0)"
     id="g3806">
    <path
       d="m 731,0 0,14.0625 25.90625,0 c 7.60447,0 16.0625,5.167446 16.0625,18 0,12.858514 -8.33917,18 -16.0625,18 l -11.84375,0 0,-25.03125 -14.0625,0 0,39.09375 25.90625,0 c 14.97891,0 30.125,-12.421808 30.125,-32.0625 C 787.03125,12.395848 771.82422,0 756.90625,0 z"
       id="path3798"
       style="font-size:medium;font-style:normal;font-variant:normal;font-weight:normal;font-stretch:normal;text-indent:0;text-align:start;text-decoration:none;line-height:normal;letter-spacing:normal;word-spacing:normal;text-transform:none;direction:ltr;block-progression:tb;writing-mode:lr-tb;text-anchor:start;baseline-shift:baseline;color:#000000;fill:#000000;fill-opacity:1;stroke:none;stroke-width:14.07699966;marker:none;visibility:visible;display:inline;overflow:visible;enable-background:accumulate;font-family:Sans;-inkscape-font-specification:Sans" />
    <path
       d="m 663.13055,0 0,64.128204 14.0769,0 0,-25.025644 25.80755,0 0,25.025644 14.0769,0 0,-64.128204 -14.0769,0 0,25.025999 -25.80755,0 0,-25.025999 z"
       id="rect3051"
       style="fill:#000000;fill-opacity:1;stroke:none" />
  </g>
</svg>
