<?xml version="1.0" encoding="UTF-8" standalone="no"?>
<svg
   xmlns:dc="http://purl.org/dc/elements/1.1/"
   xmlns:cc="http://creativecommons.org/ns#"
   xmlns:rdf="http://www.w3.org/1999/02/22-rdf-syntax-ns#"
   xmlns:svg="http://www.w3.org/2000/svg"
   xmlns="http://www.w3.org/2000/svg"
   viewBox="0 0 201.08 160.41333"
   height="160.41333"
   width="201.08"
   xml:space="preserve"
   id="svg2"
   version="1.1"><metadata
     id="metadata8"><rdf:RDF><cc:Work
         rdf:about=""><dc:format>image/svg+xml</dc:format><dc:type
           rdf:resource="http://purl.org/dc/dcmitype/StillImage" /></cc:Work></rdf:RDF></metadata><defs
     id="defs6" /><g
     transform="matrix(1.3333333,0,0,-1.3333333,0,160.41333)"
     id="g10"><g
       transform="scale(0.1)"
       id="g12"><path
         id="path14"
         style="fill:#100f0d;fill-opacity:1;fill-rule:nonzero;stroke:none"
         d="m 868.086,49.6211 h 32.996 c 15.59,0.0195 35.188,10.1797 35.188,37.8203 0,27.6286 -19.598,37.7886 -35.196,37.8086 h -32.988 c 11.687,-2.23 21.074,-9.32 21.074,-37.8086 0,-28.5 -9.387,-35.5703 -21.074,-37.8203 z m -3.293,152.2499 h -32.656 c -15.438,-0.019 -34.844,-10.312 -34.844,-38.32 0,-27.992 19.406,-38.281 34.844,-38.301 h 32.656 c -11.563,2.27 -20.859,9.43 -20.859,38.301 0,28.871 9.289,36.051 20.859,38.32 z M 987.742,125.27 h -55.34 l 63.262,-75.6098 h 59.106 z M 868.32,201.871 930.301,127.77 v 74.101 z M 799.602,49.6602 h 65.191 L 799.602,117.559 Z M 990.547,125.25 h 25.513 c 15.61,0.02 35.2,10.309 35.2,38.301 0,28.008 -24.99,38.301 -40.59,38.32 h -54.373 c 11.68,-2.269 49.353,0 49.353,-38.32 0,-38.301 -15.103,-38.301 -15.103,-38.301 z m 176.683,0.738 h -47.2 c -40.29,0 -45.84,-15.968 -45.84,-33.2575 v -1.6602 c 0,-21.8008 14.43,-32.8515 42.87,-32.8515 l 4.08,0.0195 c 19.05,0 36.09,11.9922 42.39,29.8398 2.47,6.9805 3.68,19.1599 3.68,37.2499 h 0.02 z m 10.93,-76.3278 h -10.92 l -0.01,21.9179 c -10.17,-14.8086 -27.16,-24.1367 -45.78,-24.2578 l -4.39,-0.0195 c -34.69,0 -53.78,15.5508 -53.78,43.7695 v 1.6602 c 0,30.1405 18.04,44.1795 56.75,44.1795 h 47.19 v 23.238 c 0,28.012 -24.36,32.192 -38.86,32.192 h -4.45 c -18.34,0 -39.97,-4.57 -41.99,-25.59 h -10.95 c 1.61,23.219 20.67,36.508 52.94,36.508 h 4.45 c 31.16,0 49.77,-16.098 49.77,-43.086 z m 125.24,38.2812 c 2.47,6.9805 3.66,19.1486 3.66,37.2066 0,26.762 -2.75,34.551 -3.66,37.114 -6.3,17.847 -23.33,29.828 -42.38,29.828 h -3.72 c -19.05,0 -36.06,-11.981 -42.37,-29.828 -1.58,-4.453 -3.66,-13.121 -3.66,-37.114 0,-26.8277 2.75,-34.6285 3.66,-37.2066 6.31,-17.832 23.32,-29.8203 42.37,-29.8203 h 3.72 c 19.05,0 36.08,11.9883 42.38,29.8203 m 3.69,-16.4805 c -10.24,-14.8828 -27.36,-24.2421 -46.07,-24.2421 h -3.72 c -23.65,0 -44.81,14.9023 -52.64,37.1093 -1.85,5.2032 -4.29,15.0821 -4.29,40.8199 0,25.372 2.28,35.102 4.29,40.723 7.83,22.207 28.99,37.109 52.64,37.109 h 3.72 c 18.71,0 35.83,-9.351 46.07,-24.23 v 69.535 h 10.89 V 49.6016 h -10.89 z m 136,120.6291 c 19.04,0 36.06,-12 42.37,-29.852 0.9,-2.558 3.65,-10.328 3.65,-37.09 0,-18.058 -1.19,-30.2261 -3.65,-37.2066 -6.31,-17.832 -23.33,-29.8203 -42.37,-29.8203 h -3.73 c -19.04,0 -36.07,11.9883 -42.37,29.8203 -0.91,2.5781 -3.66,10.3594 -3.66,37.2066 0,23.973 2.09,32.661 3.66,37.09 6.3,17.852 23.33,29.852 42.37,29.852 z m 0,-144.8712 c 23.65,0 44.8,14.9023 52.64,37.0898 1.84,5.2031 4.28,15.1016 4.28,40.8394 0,25.352 -2.29,35.082 -4.28,40.723 -7.84,22.188 -28.99,37.09 -52.64,37.09 h -3.73 c -23.65,0 -44.8,-14.902 -52.64,-37.09 -2,-5.641 -4.29,-15.371 -4.29,-40.723 0,-25.7378 2.45,-35.6363 4.28,-40.8394 7.85,-22.1875 29,-37.0898 52.65,-37.0898 h 3.73 M 458.535,201.25 c -4.512,1.148 -9.172,1.73 -13.972,1.73 h -3.723 c -18.684,0 -35.781,-9.332 -46.016,-24.171 v 21.91 H 383.926 V 49.6211 h 10.898 V 127.75 c 0.149,21.988 2.129,30.23 3.645,34.512 6.304,17.847 23.328,29.828 42.371,29.828 h 3.723 c 4.851,0 9.507,-0.809 13.972,-2.231 z m 899.035,-24.199 v 23.668 h -10.9 V 49.6211 h 10.9 z m 0,71.195 h -10.91 v -29.101 h 10.91 v 10.304 z M 493.203,181.77 v 18.949 H 482.305 V 49.6211 h 10.898 z m 0,66.476 h -10.906 v -29.101 h 10.906 v 18.867 z M 58.0078,136.602 c -27.6484,0 -41.6601,8.976 -41.6601,26.699 0,12.32 4.0117,28.73 38.75,28.73 h 4.4218 c 31.7891,0 37.8516,-13.73 38.6563,-25.531 h 10.9062 c -1.023,17.32 -10.9297,36.422 -49.5625,36.422 h -4.4218 c -41.0352,0 -49.64848,-21.563 -49.64848,-39.621 0,-14.071 6.82418,-37.602 52.55858,-37.602 40.2735,0 45.7032,-17.621 45.7032,-34.8474 0,-21.7305 -14.3868,-32.75 -42.7657,-32.75 h -7.2851 c -28.3672,0 -42.7539,11.0195 -42.7539,32.75 H 0.0117188 C 0.0117188,62.7109 19.0625,47.1797 53.6602,47.1797 h 7.2851 c 34.6133,0 53.6637,15.5312 53.6637,43.6719 0,30.7894 -18.5035,45.7504 -56.6012,45.7504 m 198.2302,25.617 c -1.289,-3.629 -2.91,-10.098 -3.457,-25.449 h 95.434 c -0.649,17.46 -2.735,23.378 -3.457,25.449 -6.313,17.851 -23.34,29.851 -42.403,29.851 h -3.722 c -19.055,0 -36.082,-12 -42.395,-29.851 m 103.664,-75.2502 -1.535,-4.379 C 350.996,61.7305 327.969,47.1406 302.355,47.1406 h -3.722 c -23.66,0 -44.824,14.9297 -52.664,37.1289 -1.836,5.1993 -4.281,15.0821 -4.281,40.8205 0,25.39 2.289,35.121 4.281,40.762 7.84,22.207 29.004,37.109 52.664,37.109 h 3.722 c 23.668,0 44.833,-14.902 52.672,-37.109 1.653,-4.661 3.891,-13.321 4.243,-34.43 l 0.085,-5.551 H 252.59 v -0.781 c 0,-26.8283 2.754,-34.6291 3.648,-37.1994 6.313,-17.832 23.34,-29.832 42.395,-29.832 h 3.722 c 20.743,0 39.958,11.8398 45.731,28.1602 l 0.266,0.75 z m 314.871,75.2502 c -1.289,-3.629 -2.918,-10.098 -3.472,-25.449 h 95.437 c -0.636,17.46 -2.734,23.378 -3.468,25.449 -6.309,17.851 -23.336,29.851 -42.379,29.851 h -3.735 c -19.051,0 -36.082,-12 -42.383,-29.851 m 103.653,-75.2502 -1.543,-4.379 C 769.52,61.7305 746.492,47.1406 720.891,47.1406 h -3.735 c -23.66,0 -44.82,14.9297 -52.664,37.1289 -1.836,5.1993 -4.289,15.0821 -4.289,40.8205 0,25.39 2.285,35.121 4.289,40.762 7.844,22.207 29.004,37.109 52.664,37.109 h 3.735 c 23.652,0 44.82,-14.902 52.652,-37.109 1.66,-4.661 3.887,-13.321 4.238,-34.43 l 0.098,-5.551 H 671.105 v -0.781 c 0,-26.8283 2.75,-34.6291 3.668,-37.1994 6.301,-17.832 23.332,-29.832 42.383,-29.832 h 3.735 c 20.718,0 39.949,11.8398 45.718,28.1602 l 0.266,0.75 z m -155.067,0.9296 c 2.461,6.9805 3.661,19.1526 3.661,37.2106 0,26.782 -2.75,34.571 -3.661,37.129 -6.316,17.852 -23.339,29.852 -42.39,29.852 h -3.735 c -19.043,0 -36.082,-12 -42.379,-29.852 -1.574,-4.449 -3.664,-13.117 -3.664,-37.129 0,-26.8277 2.754,-34.6285 3.664,-37.2106 6.297,-17.8281 23.336,-29.8398 42.379,-29.8398 h 3.735 c 19.051,0 36.074,12.0117 42.39,29.8398 M 637.91,200.68 V 77.9414 c 0,-25.7617 -2.43,-35.6406 -4.277,-40.8516 C 625.793,14.8984 604.629,0 580.969,0 h -3.735 c -23.496,0 -44.785,12.2813 -53.836,30.4414 h 12.676 c 8.438,-11.7226 24.309,-19.5508 41.16,-19.5508 h 3.735 c 19.051,0 36.074,12 42.39,29.8282 2.137,6.0703 3.329,16.1093 3.594,30.5625 C 616.711,56.4805 599.629,47.1602 580.969,47.1602 h -3.735 c -23.648,0 -44.824,14.9296 -52.664,37.1289 -1.828,5.1992 -4.277,15.082 -4.277,40.8199 0,25.391 2.285,35.121 4.277,40.762 7.84,22.188 29.016,37.109 52.664,37.109 h 3.735 c 18.699,0 35.808,-9.332 46.051,-24.199 V 200.68 Z M 236.836,200.621 186.563,49.6016 H 169.504 L 119.23,200.621 h 11.485 l 47.32,-142.1522 47.324,142.1522 h 11.477" /><path
         id="path16"
         style="fill:#3460b6;fill-opacity:1;fill-rule:nonzero;stroke:none"
         d="m 1353.76,583.238 c -47.99,0 -80.78,-36.789 -80.78,-86.379 0,-51.187 33.19,-87.988 80.78,-87.988 47.6,0 81.19,36.801 81.19,87.988 0,49.59 -33.19,86.379 -81.19,86.379 z m 0,-236.758 c -88.38,0 -153.98,60.801 -153.98,150.379 0,90.782 65.6,147.981 153.98,147.981 88.79,0 154.37,-57.199 154.37,-147.981 0,-89.578 -65.58,-150.379 -154.37,-150.379 z m -264.97,7.598 v 283.164 h 68.79 V 354.078 Z M 968.574,578.844 V 354.078 h -68.39 v 224.766 h -79.989 v 58.398 H 1048.55 V 578.844 Z M 688.773,561.645 652.777,464.469 h 71.192 z m 75.981,-207.567 -21.988,55.598 H 633.184 l -20.797,-55.598 h -74.391 l 118.781,283.164 h 66.391 L 840.742,354.078 Z M 389.18,561.645 353.184,464.469 h 71.191 z m 75.988,-207.567 -22,55.598 H 333.59 l -20.797,-55.598 h -74.391 l 118.782,283.164 h 66.39 L 541.152,354.078 Z M 103.184,582.047 H 66.793 v -65.996 h 32.3906 c 22.0004,0 49.5894,5.605 49.5894,34.394 0,26.407 -25.195,31.602 -45.589,31.602 z M 151.578,354.078 90.3867,466.461 H 67.1875 V 354.078 H 0 v 283.164 h 107.984 c 54.387,0 108.379,-20.801 108.379,-85.586 0,-38 -22.394,-65.195 -58.789,-76.386 L 231.563,354.078 Z M 1401.69,731.227 1257.23,965.898 h -1.52 l 2.03,-234.671 h -84.14 v 358.843 h 98.85 l 143.94,-234.16 h 1.51 l -2.03,234.16 H 1500 V 731.227 Z m -400.84,389.253 c -23.819,0 -42.061,18.75 -42.061,41.57 0,21.79 18.242,41.05 42.061,41.05 22.81,0 42.07,-18.25 42.07,-41.05 0,-23.32 -19.26,-41.57 -42.07,-41.57 z M 944.09,994.277 898.477,871.117 h 90.214 z m -53.731,126.203 c -23.308,0 -42.07,18.75 -42.07,41.57 0,21.79 18.762,41.05 42.07,41.05 23.313,0 42.579,-18.25 42.579,-41.05 0,-23.32 -19.266,-41.57 -42.579,-41.57 z m 150.031,-389.253 -27.88,70.449 H 873.641 l -26.356,-70.449 h -94.258 l 150.516,358.843 h 84.133 L 1136.7,731.227 Z m -571.527,0 v 358.843 h 241.258 v -73.49 H 552.488 V 949.172 H 701.504 V 879.73 H 552.488 v -74.5 h 166.754 v -74.003 z m -143.468,0 2.023,253.933 h -1.516 L 232.641,731.227 H 171.816 L 81.0977,985.16 H 79.5781 L 81.6016,731.227 H 0 V 1090.07 H 123.164 L 204.77,859.961 h 2.027 l 78.051,230.109 H 410.027 V 731.227 h -84.632" /></g></g></svg>