<?xml version="1.0" encoding="UTF-8" standalone="yes"?>
<svg xmlns="http://www.w3.org/2000/svg" xmlns:xlink="http://www.w3.org/1999/xlink" width="564px" height="106.66666666666666px" viewBox="0 0 423 80" version="1.1">
  <g id="surface1">
    <path style=" stroke:none;fill-rule:nonzero;fill:rgb(94.117647%,19.215686%,12.54902%);fill-opacity:1;" d="M 191.203125 31.292969 C 191.433594 29.664062 191.554688 28.160156 191.554688 26.777344 L 191.554688 22.429688 C 191.554688 18.484375 191.175781 15.246094 190.421875 12.6875 C 189.675781 10.136719 188.636719 8.117188 187.296875 6.601562 C 185.972656 5.097656 184.347656 4.027344 182.441406 3.390625 C 180.535156 2.753906 178.480469 2.425781 176.289062 2.425781 C 172.355469 2.425781 169.109375 3.214844 166.566406 4.785156 C 164.027344 6.34375 161.996094 8.457031 160.496094 11.128906 C 158.996094 13.796875 157.859375 16.859375 157.117188 20.34375 C 156.359375 23.824219 155.871094 27.46875 155.644531 31.292969 Z M 155.46875 33.730469 C 155.46875 34.882812 155.441406 36.074219 155.386719 37.296875 C 155.316406 38.515625 155.292969 40.046875 155.292969 41.902344 C 155.292969 45.722656 155.519531 49.722656 155.980469 53.894531 C 156.453125 58.070312 157.46875 61.835938 159.023438 65.199219 C 160.578125 68.558594 162.890625 71.335938 165.960938 73.546875 C 169.027344 75.753906 173.097656 76.839844 178.195312 76.839844 C 183.28125 76.839844 187.472656 76.09375 190.773438 74.589844 C 194.070312 73.085938 196.667969 71.253906 198.574219 69.113281 C 200.480469 66.972656 201.898438 64.792969 202.832031 62.582031 C 203.753906 60.386719 204.441406 58.597656 204.914062 57.203125 L 207.511719 57.71875 C 207.160156 59.003906 206.496094 60.820312 205.523438 63.191406 C 204.535156 65.578125 202.980469 67.949219 200.832031 70.332031 C 198.683594 72.707031 195.800781 74.792969 192.152344 76.582031 C 188.515625 78.382812 183.808594 79.277344 178.019531 79.277344 C 172.234375 79.277344 166.894531 78.355469 161.972656 76.5 C 157.050781 74.644531 152.804688 71.972656 149.21875 68.503906 C 145.636719 65.019531 142.863281 60.875 140.890625 56.0625 C 138.929688 51.253906 137.941406 45.898438 137.941406 39.992188 C 137.941406 34.882812 138.957031 29.9375 140.984375 25.125 C 143.011719 20.316406 145.773438 16.058594 149.300781 12.347656 C 152.832031 8.632812 156.96875 5.652344 161.714844 3.390625 C 166.445312 1.125 171.542969 0 176.980469 0 C 180.210938 0 183.6875 0.570312 187.390625 1.734375 C 191.097656 2.886719 194.53125 4.785156 197.707031 7.386719 C 200.886719 10.003906 203.550781 13.445312 205.6875 17.726562 C 207.835938 22.023438 208.90625 27.363281 208.90625 33.730469 Z M 155.46875 33.730469 "/>
    <path style=" stroke:none;fill-rule:nonzero;fill:rgb(94.117647%,19.215686%,12.54902%);fill-opacity:1;" d="M 217.671875 2.253906 L 272.664062 2.253906 L 229.460938 74.414062 L 253.921875 74.414062 C 257.277344 74.414062 260.019531 73.75 262.171875 72.410156 C 264.308594 71.082031 266.039062 69.402344 267.375 67.367188 C 268.703125 65.347656 269.742188 63.167969 270.5 60.851562 C 271.242188 58.53125 271.972656 56.324219 272.664062 54.25 L 274.054688 54.25 L 271.796875 76.839844 L 211.421875 76.839844 L 254.613281 4.691406 L 239.699219 4.691406 C 236.804688 4.691406 234.289062 4.773438 232.152344 4.949219 C 230.015625 5.125 228.082031 5.738281 226.351562 6.78125 C 224.605469 7.824219 222.984375 9.503906 221.484375 11.820312 C 219.984375 14.136719 218.359375 17.445312 216.628906 21.726562 L 215.238281 21.726562 Z M 217.671875 2.253906 "/>
    <path style=" stroke:none;fill-rule:nonzero;fill:rgb(94.117647%,19.215686%,12.54902%);fill-opacity:1;" d="M 283.335938 2.253906 L 338.328125 2.253906 L 295.140625 74.414062 L 319.601562 74.414062 C 322.941406 74.414062 325.699219 73.75 327.835938 72.410156 C 329.972656 71.082031 331.703125 69.402344 333.042969 67.367188 C 334.367188 65.347656 335.40625 63.167969 336.164062 60.851562 C 336.910156 58.53125 337.640625 56.324219 338.328125 54.25 L 339.722656 54.25 L 337.464844 76.839844 L 277.089844 76.839844 L 320.289062 4.691406 L 305.363281 4.691406 C 302.46875 4.691406 299.96875 4.773438 297.816406 4.949219 C 295.679688 5.125 293.746094 5.738281 292.003906 6.78125 C 290.273438 7.824219 288.648438 9.503906 287.148438 11.820312 C 285.648438 14.136719 284.027344 17.445312 282.292969 21.726562 L 280.902344 21.726562 Z M 283.335938 2.253906 "/>
    <path style=" stroke:none;fill-rule:nonzero;fill:rgb(94.117647%,19.215686%,12.54902%);fill-opacity:1;" d="M 359.503906 39.636719 C 359.503906 47.863281 360.136719 54.421875 361.410156 59.289062 C 362.679688 64.152344 364.355469 67.894531 366.4375 70.507812 C 368.519531 73.109375 370.957031 74.816406 373.726562 75.632812 C 376.5 76.445312 379.445312 76.835938 382.570312 76.835938 C 385.695312 76.835938 388.640625 76.445312 391.425781 75.632812 C 394.199219 74.816406 396.632812 73.109375 398.714844 70.507812 C 400.796875 67.894531 402.460938 64.152344 403.746094 59.289062 C 405.003906 54.421875 405.652344 47.863281 405.652344 39.636719 C 405.652344 32.6875 405.191406 26.859375 404.257812 22.171875 C 403.339844 17.46875 401.917969 13.648438 400.011719 10.691406 C 398.105469 7.738281 395.699219 5.625 392.804688 4.351562 C 389.914062 3.0625 386.503906 2.425781 382.570312 2.425781 C 378.636719 2.425781 375.226562 3.0625 372.335938 4.351562 C 369.441406 5.625 367.046875 7.738281 365.140625 10.691406 C 363.234375 13.648438 361.8125 17.46875 360.894531 22.171875 C 359.960938 26.859375 359.503906 32.6875 359.503906 39.636719 M 342.152344 39.636719 C 342.152344 33.960938 343.398438 28.6875 345.886719 23.824219 C 348.375 18.945312 351.550781 14.746094 355.433594 11.207031 C 359.300781 7.683594 363.625 4.933594 368.441406 2.953125 C 373.242188 0.988281 377.945312 0 382.570312 0 C 387.195312 0 391.914062 0.988281 396.714844 2.953125 C 401.515625 4.933594 405.855469 7.683594 409.722656 11.207031 C 413.601562 14.746094 416.78125 18.945312 419.269531 23.824219 C 421.757812 28.6875 423 33.960938 423 39.636719 C 423 45.085938 421.835938 50.222656 419.523438 55.03125 C 417.210938 59.828125 414.171875 64.042969 410.425781 67.636719 C 406.652344 71.226562 402.351562 74.058594 397.5 76.160156 C 392.644531 78.234375 387.667969 79.277344 382.570312 79.277344 C 377.484375 79.277344 372.511719 78.234375 367.65625 76.160156 C 362.800781 74.058594 358.488281 71.226562 354.730469 67.636719 C 350.96875 64.042969 347.941406 59.828125 345.628906 55.03125 C 343.304688 50.222656 342.152344 45.085938 342.152344 39.636719 "/>
    <path style=" stroke:none;fill-rule:nonzero;fill:rgb(94.117647%,19.215686%,12.54902%);fill-opacity:1;" d="M 28.289062 35.8125 C 28.289062 29.785156 29.125 24.6875 30.800781 20.515625 C 32.480469 16.339844 34.5625 12.953125 37.050781 10.351562 C 39.539062 7.734375 42.226562 5.824219 45.121094 4.605469 C 48.003906 3.386719 50.664062 2.789062 53.101562 2.789062 C 56.5625 2.789062 59.332031 3.996094 61.414062 6.433594 C 63.496094 8.859375 64.550781 12.628906 64.550781 17.738281 L 64.550781 75.371094 C 49.570312 79.695312 37.277344 77.5 28.289062 73.757812 Z M 79.46875 30.082031 C 79.46875 25.445312 80.183594 21.382812 81.628906 17.914062 C 83.078125 14.429688 84.957031 11.585938 87.269531 9.386719 C 89.582031 7.179688 92.191406 5.539062 95.085938 4.429688 C 97.964844 3.332031 100.859375 2.789062 103.75 2.789062 C 107.457031 2.789062 110.378906 3.886719 112.515625 6.082031 C 114.648438 8.289062 115.71875 11.355469 115.71875 15.296875 L 115.71875 60.558594 C 104.726562 60.371094 92.40625 62.78125 79.46875 69.246094 Z M 13.371094 64.652344 C 20.484375 71.671875 43.917969 90.316406 78.289062 72.523438 C 97.328125 62.6875 115.988281 63.796875 130.644531 67.902344 L 130.644531 26.246094 C 130.644531 8.980469 122.195312 0.351562 105.308594 0.351562 C 101.722656 0.351562 98.519531 0.8125 95.679688 1.730469 C 92.851562 2.667969 90.390625 3.914062 88.308594 5.472656 C 86.242188 7.042969 84.496094 8.804688 83.105469 10.769531 C 81.726562 12.75 80.617188 14.769531 79.804688 16.867188 L 79.46875 16.867188 C 78.074219 10.945312 75.152344 6.71875 70.703125 4.171875 C 66.257812 1.625 61.132812 0.351562 55.34375 0.351562 C 48.867188 0.351562 43.351562 1.960938 38.78125 5.214844 C 34.210938 8.46875 30.722656 13.5625 28.289062 20.515625 L 27.9375 20.515625 L 27.9375 2.261719 L 0 2.261719 L 0 4.6875 L 13.371094 4.6875 Z M 13.371094 64.652344 "/>
  </g>
</svg>