<?xml version="1.0" encoding="UTF-8" ?>
<!DOCTYPE svg PUBLIC "-//W3C//DTD SVG 1.1//EN" "http://www.w3.org/Graphics/SVG/1.1/DTD/svg11.dtd">
<svg width="600pt" height="330pt" viewBox="0 0 600 330" version="1.1" xmlns="http://www.w3.org/2000/svg">
<g id="#ffffffff">
<path fill="#ffffff" opacity="1.00" d=" M 349.71 93.49 C 354.02 92.78 356.72 96.85 358.58 100.10 C 360.29 102.90 360.82 106.18 360.43 109.41 C 357.06 110.31 354.56 107.58 352.87 105.08 C 350.56 101.71 348.84 97.64 349.71 93.49 Z" />
<path fill="#ffffff" opacity="1.00" d=" M 389.56 108.37 C 390.29 106.80 392.63 107.57 394.00 107.71 C 398.02 108.89 401.71 111.39 404.20 114.77 C 405.42 116.30 405.51 119.31 402.90 119.30 C 397.85 118.80 393.12 115.88 390.15 111.80 C 389.66 110.81 388.69 109.42 389.56 108.37 Z" />
<path fill="#ffffff" opacity="1.00" d=" M 310.40 117.58 C 314.48 116.40 319.44 115.48 323.25 117.84 C 325.27 119.83 322.39 121.93 320.62 122.60 C 316.16 124.32 310.55 125.46 306.28 122.68 C 304.84 119.87 308.30 118.35 310.40 117.58 Z" />
<path fill="#ffffff" opacity="1.00" d=" M 385.27 128.88 C 389.33 132.24 394.04 134.66 399.03 136.29 C 394.52 151.60 382.89 165.71 366.83 169.38 C 370.44 170.80 373.69 172.96 376.60 175.53 C 368.48 179.41 359.65 181.60 350.77 182.86 C 348.92 183.47 347.22 184.48 345.38 185.12 C 338.38 186.33 331.45 188.09 324.34 188.52 C 327.95 178.85 335.90 170.76 345.95 167.94 C 336.56 163.97 328.42 156.90 323.98 147.63 C 329.29 146.94 334.21 144.48 337.81 140.49 C 341.30 146.43 346.41 151.95 353.30 153.72 C 360.10 155.72 367.88 153.95 373.06 149.09 C 379.10 143.80 382.64 136.33 385.27 128.88 Z" />
<path fill="#ffffff" opacity="1.00" d=" M 214.93 130.99 C 222.10 128.78 229.67 130.19 236.97 130.90 C 241.66 131.41 245.29 134.81 248.12 138.33 C 250.94 136.25 253.95 134.23 257.46 133.57 C 262.64 132.61 267.89 133.72 273.07 134.06 C 278.37 134.52 283.75 136.65 287.16 140.87 C 291.28 145.92 292.27 152.77 291.95 159.09 C 291.02 170.01 289.83 180.91 288.97 191.84 C 283.59 191.70 278.22 191.54 272.84 191.58 C 273.85 183.09 274.46 174.55 275.33 166.05 C 275.71 161.82 276.47 157.29 274.67 153.26 C 272.04 147.32 263.04 145.91 258.48 150.39 C 256.07 152.98 254.94 156.49 254.51 159.94 C 253.50 169.23 252.87 178.57 251.79 187.84 C 251.58 188.28 251.14 189.16 250.92 189.59 C 245.88 188.86 240.85 188.10 235.84 187.18 C 236.96 177.82 237.59 168.41 238.60 159.04 C 238.81 156.06 239.24 152.84 237.83 150.07 C 235.10 144.20 226.44 142.65 221.50 146.57 C 218.66 149.20 217.74 153.19 217.36 156.90 C 216.58 165.33 215.74 173.76 215.01 182.21 C 210.00 180.85 205.05 179.25 200.14 177.56 C 200.05 176.93 199.86 175.68 199.77 175.05 C 199.89 170.34 200.66 165.68 200.98 160.99 C 201.75 154.09 201.73 146.91 204.47 140.40 C 206.32 135.92 210.22 132.28 214.93 130.99 Z" />
<path fill="#ffffff" opacity="1.00" d=" M 356.33 136.47 C 361.28 133.80 367.80 138.58 366.69 144.10 C 366.27 149.73 358.52 152.37 354.59 148.46 C 350.78 145.27 351.78 138.45 356.33 136.47 Z" />
<path fill="#ffffff" opacity="1.00" d=" M 304.69 143.52 C 305.62 136.89 315.37 136.35 319.11 140.82 C 321.21 143.43 320.24 146.93 320.08 149.97 C 319.07 161.48 317.64 172.97 317.02 184.52 L 316.68 184.52 C 316.39 184.54 315.83 184.56 315.54 184.58 C 315.77 186.34 315.97 188.10 316.17 189.87 C 311.10 190.45 306.01 191.03 300.90 190.96 C 300.78 190.45 300.55 189.42 300.44 188.91 C 301.75 173.77 303.17 158.63 304.69 143.52 Z" />
</g>
<g id="#d83232ff">
<path fill="#d83232" opacity="1.00" d=" M 286.74 54.26 C 290.77 51.19 294.65 47.91 298.71 44.86 C 302.71 48.38 306.87 51.70 310.93 55.15 C 315.63 52.80 320.04 49.51 324.96 47.84 C 328.30 51.44 331.44 55.25 334.52 59.09 C 339.80 57.56 344.88 55.40 350.11 53.71 C 352.69 57.95 354.89 62.42 357.70 66.51 C 363.04 65.38 368.42 64.47 373.76 63.31 C 375.52 67.77 376.91 72.37 378.44 76.93 C 384.12 76.82 389.79 76.39 395.46 76.06 C 395.97 80.67 396.49 85.28 397.11 89.88 C 402.75 90.92 408.50 90.89 414.15 91.83 C 413.68 96.43 412.94 101.01 412.98 105.65 C 418.21 106.88 423.47 108.03 428.66 109.45 L 429.02 110.04 C 427.97 114.37 426.39 118.56 424.98 122.79 C 430.09 125.12 435.39 126.99 440.55 129.22 C 438.36 133.33 436.01 137.34 433.59 141.31 C 437.88 144.72 442.90 147.02 447.46 150.01 C 444.34 153.79 441.13 157.49 437.85 161.13 C 441.92 164.59 446.01 168.04 450.20 171.38 C 446.16 174.45 442.13 177.56 438.29 180.89 C 441.32 184.99 444.84 188.71 448.06 192.65 C 443.29 194.95 438.79 197.77 434.10 200.22 C 436.56 204.43 438.97 208.67 441.36 212.93 C 436.31 214.98 431.13 216.68 426.00 218.51 C 427.43 223.04 429.10 227.49 430.55 232.02 C 425.06 233.21 419.53 234.24 414.01 235.29 C 414.72 239.88 415.21 244.49 415.63 249.12 C 409.97 249.28 404.35 249.88 398.70 250.07 C 398.14 254.68 398.07 259.34 397.29 263.93 C 391.68 263.03 385.99 262.91 380.36 262.14 C 379.01 266.59 377.61 271.02 376.16 275.44 C 370.60 274.38 365.17 272.70 359.62 271.61 C 357.21 275.71 354.78 279.79 352.62 284.02 C 347.36 282.07 342.34 279.50 336.97 277.92 C 333.60 281.40 330.52 285.17 327.42 288.89 C 322.57 286.35 318.18 282.94 313.15 280.79 C 308.88 283.56 305.29 287.25 301.05 290.04 C 297.10 286.62 293.09 283.26 289.10 279.87 C 284.35 282.14 279.95 285.64 275.00 287.13 C 271.51 283.54 268.53 279.49 265.13 275.81 C 260.10 277.78 254.96 279.49 249.88 281.32 C 247.29 277.10 245.14 272.63 242.31 268.56 C 236.89 269.57 231.49 270.69 226.05 271.62 C 224.58 267.10 222.98 262.62 221.58 258.08 C 215.92 258.22 210.26 258.55 204.62 259.08 C 203.92 254.44 203.53 249.76 202.89 245.11 C 197.25 244.08 191.49 244.15 185.85 243.19 C 186.29 238.58 187.06 234.00 187.02 229.35 C 181.78 228.12 176.51 226.99 171.32 225.54 L 170.97 224.96 C 172.02 220.62 173.61 216.42 175.01 212.19 C 169.85 209.86 164.45 208.08 159.38 205.56 C 161.64 201.51 164.63 197.69 166.09 193.29 C 161.77 190.22 156.97 187.90 152.53 185.01 C 155.57 181.08 159.08 177.56 162.12 173.64 C 157.87 170.45 153.88 166.93 149.81 163.51 C 153.96 160.61 157.90 157.43 161.68 154.07 C 158.53 150.09 155.19 146.25 151.94 142.35 C 156.69 140.03 161.19 137.22 165.88 134.79 C 163.45 130.56 160.99 126.33 158.64 122.05 C 163.69 120.02 168.86 118.32 174.00 116.52 C 172.59 111.96 170.76 107.55 169.50 102.95 C 174.99 101.79 180.50 100.75 186.01 99.70 C 185.24 95.12 184.80 90.50 184.36 85.89 C 190.00 85.73 195.61 85.09 201.24 84.98 C 201.89 80.41 201.99 75.79 202.61 71.22 C 208.28 71.81 213.98 72.15 219.63 72.87 C 220.95 68.41 222.44 63.99 223.87 59.56 C 229.40 60.70 234.84 62.23 240.36 63.45 C 242.79 59.35 245.20 55.23 247.43 51.02 C 252.68 52.93 257.68 55.54 263.06 57.09 C 266.36 53.58 269.49 49.89 272.54 46.15 C 277.45 48.54 281.97 51.61 286.74 54.26 M 341.42 79.62 C 338.75 80.93 338.34 84.37 338.30 87.01 C 338.64 94.90 341.94 102.32 345.95 109.00 C 349.43 114.67 353.67 120.09 359.35 123.69 C 361.76 125.20 365.06 126.28 367.66 124.57 C 371.07 120.93 370.03 115.48 369.00 111.08 C 366.33 101.04 360.91 91.68 353.47 84.42 C 350.23 81.57 346.02 78.07 341.42 79.62 M 377.31 98.41 C 374.73 99.39 373.65 102.32 374.46 104.86 C 375.98 110.19 380.03 114.34 384.03 117.98 C 390.97 123.84 399.06 128.66 407.99 130.66 C 411.51 131.31 416.13 131.84 418.62 128.65 C 420.32 124.97 418.15 120.97 416.01 117.98 C 410.39 110.46 402.44 104.93 393.96 101.08 C 388.78 98.94 382.92 96.70 377.31 98.41 M 312.25 111.39 C 306.12 112.53 299.95 114.29 294.66 117.70 C 292.22 119.41 289.52 121.73 289.59 125.00 C 290.40 129.35 295.28 130.77 299.01 131.61 C 309.69 133.50 320.91 132.09 330.94 128.01 C 334.84 126.33 338.98 124.03 340.85 120.02 C 342.23 116.02 338.15 113.32 334.91 112.25 C 327.62 109.87 319.73 110.30 312.25 111.39 M 385.27 128.88 C 382.64 136.33 379.10 143.80 373.06 149.09 C 367.88 153.95 360.10 155.72 353.30 153.72 C 346.41 151.95 341.30 146.43 337.81 140.49 C 334.21 144.48 329.29 146.94 323.98 147.63 C 328.42 156.90 336.56 163.97 345.95 167.94 C 335.90 170.76 327.95 178.85 324.34 188.52 L 324.13 188.54 C 323.13 192.29 321.54 196.07 321.84 200.01 C 322.61 206.42 331.91 208.36 335.88 203.78 C 337.60 201.32 337.67 198.17 338.67 195.42 C 339.76 191.35 342.44 188.03 345.38 185.12 C 347.22 184.48 348.92 183.47 350.77 182.86 C 354.72 182.27 358.94 182.59 362.48 184.57 C 367.78 187.27 370.44 193.30 371.00 198.98 C 371.44 202.24 370.87 206.04 373.30 208.67 C 375.77 210.89 379.53 211.55 382.67 210.52 C 385.23 209.50 386.87 206.77 386.99 204.06 C 387.33 193.69 383.82 183.16 376.81 175.43 L 376.60 175.53 C 373.69 172.96 370.44 170.80 366.83 169.38 C 382.89 165.71 394.52 151.60 399.03 136.29 C 394.04 134.66 389.33 132.24 385.27 128.88 M 214.93 130.99 C 210.22 132.28 206.32 135.92 204.47 140.40 C 201.73 146.91 201.75 154.09 200.98 160.99 C 200.66 165.68 199.89 170.34 199.77 175.05 C 199.23 179.67 198.33 184.35 198.71 189.00 C 199.91 194.60 207.65 195.80 211.80 192.85 C 215.12 190.39 214.54 185.82 215.01 182.21 C 215.74 173.76 216.58 165.33 217.36 156.90 C 217.74 153.19 218.66 149.20 221.50 146.57 C 226.44 142.65 235.10 144.20 237.83 150.07 C 239.24 152.84 238.81 156.06 238.60 159.04 C 237.59 168.41 236.96 177.82 235.84 187.18 C 235.47 190.23 235.25 193.91 237.92 196.04 C 241.27 198.54 246.72 198.96 249.73 195.68 C 251.71 193.59 251.69 190.53 251.79 187.84 C 252.87 178.57 253.50 169.23 254.51 159.94 C 254.94 156.49 256.07 152.98 258.48 150.39 C 263.04 145.91 272.04 147.32 274.67 153.26 C 276.47 157.29 275.71 161.82 275.33 166.05 C 274.46 174.55 273.85 183.09 272.84 191.58 C 272.83 193.52 272.44 195.64 273.45 197.43 C 275.61 201.52 281.48 202.33 285.30 200.29 C 288.31 198.62 288.81 194.94 288.97 191.84 C 289.83 180.91 291.02 170.01 291.95 159.09 C 292.27 152.77 291.28 145.92 287.16 140.87 C 283.75 136.65 278.37 134.52 273.07 134.06 C 267.89 133.72 262.64 132.61 257.46 133.57 C 253.95 134.23 250.94 136.25 248.12 138.33 C 245.29 134.81 241.66 131.41 236.97 130.90 C 229.67 130.19 222.10 128.78 214.93 130.99 M 356.33 136.47 C 351.78 138.45 350.78 145.27 354.59 148.46 C 358.52 152.37 366.27 149.73 366.69 144.10 C 367.80 138.58 361.28 133.80 356.33 136.47 M 304.69 143.52 C 303.17 158.63 301.75 173.77 300.44 188.91 C 300.01 192.22 299.41 195.61 299.95 198.95 C 301.78 205.58 313.26 206.07 315.21 199.26 C 316.34 194.42 315.92 189.32 317.33 184.51 C 317.16 184.52 316.84 184.52 316.68 184.52 L 317.02 184.52 C 317.64 172.97 319.07 161.48 320.08 149.97 C 320.24 146.93 321.21 143.43 319.11 140.82 C 315.37 136.35 305.62 136.89 304.69 143.52 M 202.87 199.80 C 200.90 200.67 200.75 203.09 200.15 204.88 C 198.43 212.01 196.22 219.02 194.67 226.18 C 193.64 229.70 200.01 231.37 200.83 227.96 C 202.64 222.31 203.55 216.42 205.28 210.74 C 206.39 216.52 207.34 222.34 208.57 228.10 C 208.63 231.40 214.07 232.28 215.29 229.32 C 217.85 223.65 219.71 217.69 222.28 212.02 C 222.29 217.00 222.66 221.97 222.87 226.94 C 223.02 228.64 222.88 230.59 224.16 231.93 C 225.89 232.75 228.27 232.86 229.27 230.90 C 229.90 228.33 229.37 225.67 229.25 223.08 C 228.61 216.73 228.55 210.33 227.72 204.01 C 226.82 200.33 221.02 199.97 219.54 203.39 C 217.11 208.81 215.12 214.42 212.73 219.86 C 211.88 214.21 210.65 208.63 209.54 203.04 C 209.18 200.04 205.44 198.30 202.87 199.80 M 235.12 206.87 C 234.43 214.26 233.68 221.64 233.06 229.03 C 232.74 230.55 233.31 232.51 235.04 232.83 C 239.60 233.58 244.26 234.12 248.88 233.88 C 250.99 232.77 250.98 229.24 248.73 228.28 C 245.88 227.56 242.85 227.92 240.02 227.07 C 240.03 225.11 240.24 223.17 240.40 221.23 C 243.27 221.38 246.15 221.90 249.04 221.61 C 251.30 220.69 251.41 216.81 249.03 216.02 C 246.41 215.32 243.68 215.33 241.01 215.01 C 241.19 213.07 241.40 211.13 241.58 209.19 C 244.60 209.40 247.65 209.95 250.69 209.63 C 253.00 208.55 252.95 204.33 250.20 203.93 C 246.14 203.25 242.00 202.86 237.88 202.79 C 235.85 202.80 235.19 205.23 235.12 206.87 M 258.45 208.42 C 251.44 214.65 251.16 227.41 258.61 233.41 C 264.85 238.59 275.97 237.39 279.75 229.78 C 281.18 226.73 283.00 222.41 280.54 219.45 C 277.21 218.29 273.58 218.32 270.10 218.17 C 268.08 218.23 267.41 220.25 267.60 221.98 C 268.65 224.99 272.34 224.16 274.81 224.72 C 273.88 229.72 267.87 231.98 263.68 229.30 C 258.76 225.81 259.02 218.02 262.61 213.66 C 265.35 210.32 270.66 210.56 273.80 213.18 C 275.43 214.46 278.43 216.32 279.94 213.95 C 281.55 211.90 279.81 209.35 278.05 208.09 C 272.35 204.18 263.83 203.63 258.45 208.42 M 291.58 213.60 C 288.52 220.48 284.85 227.08 281.96 234.03 C 280.93 237.02 285.12 239.19 287.33 237.32 C 288.44 235.76 289.10 233.94 289.89 232.21 C 293.72 232.54 297.56 232.83 301.37 233.40 C 302.14 235.68 301.74 239.80 305.10 239.79 C 307.30 240.27 309.16 238.16 308.41 236.02 C 306.55 227.96 304.31 219.98 302.29 211.96 C 301.81 209.15 298.90 206.83 296.06 207.99 C 293.55 208.76 292.66 211.48 291.58 213.60 M 313.33 213.01 C 312.48 220.28 312.02 227.59 311.20 234.86 C 311.13 236.57 310.58 238.70 312.07 239.98 C 313.52 241.28 315.48 240.47 317.10 240.05 C 317.72 237.02 318.06 233.94 318.25 230.85 C 322.29 231.12 326.87 231.97 330.39 229.37 C 335.52 225.93 335.97 217.65 331.39 213.57 C 327.46 210.08 321.80 210.67 316.94 210.09 C 315.12 209.72 313.28 211.12 313.33 213.01 M 344.50 213.62 C 334.05 217.73 331.84 233.56 340.19 240.79 C 345.91 245.81 355.55 245.27 360.58 239.51 C 365.16 234.09 365.92 225.70 362.29 219.58 C 358.88 213.54 350.84 211.21 344.50 213.62 M 368.77 217.96 C 367.92 226.28 366.99 234.63 366.53 242.98 C 366.70 243.42 367.04 244.30 367.21 244.74 C 371.18 246.49 375.78 246.03 380.03 246.57 C 383.38 247.42 385.11 241.92 381.87 240.82 C 379.09 240.14 376.21 240.13 373.39 239.90 C 373.83 233.24 374.65 226.61 375.20 219.96 C 375.20 218.52 375.65 216.67 374.25 215.70 C 372.32 214.06 368.70 215.17 368.77 217.96 Z" />
<path fill="#d83232" opacity="1.00" d=" M 292.48 226.23 C 293.92 222.39 295.61 218.66 297.32 214.93 C 298.11 218.96 299.03 222.96 300.00 226.95 C 297.49 226.72 294.98 226.49 292.48 226.23 Z" />
<path fill="#d83232" opacity="1.00" d=" M 319.60 216.18 C 321.63 216.44 323.75 216.39 325.68 217.19 C 328.71 218.92 328.04 223.82 324.94 225.11 C 322.92 225.37 320.88 225.08 318.86 224.97 C 319.10 222.04 319.37 219.11 319.60 216.18 Z" />
<path fill="#d83232" opacity="1.00" d=" M 347.28 219.37 C 350.79 217.80 355.26 219.73 356.75 223.23 C 358.63 227.31 357.82 232.51 354.84 235.87 C 351.63 239.52 344.81 238.43 342.98 233.89 C 340.78 229.01 342.10 221.79 347.28 219.37 Z" />
</g>
<g id="#322d2eff">
<path fill="#322d2e" opacity="1.00" d=" M 341.42 79.62 C 346.02 78.07 350.23 81.57 353.47 84.42 C 360.91 91.68 366.33 101.04 369.00 111.08 C 370.03 115.48 371.07 120.93 367.66 124.57 C 365.06 126.28 361.76 125.20 359.35 123.69 C 353.67 120.09 349.43 114.67 345.95 109.00 C 341.94 102.32 338.64 94.90 338.30 87.01 C 338.34 84.37 338.75 80.93 341.42 79.62 M 349.71 93.49 C 348.84 97.64 350.56 101.71 352.87 105.08 C 354.56 107.58 357.06 110.31 360.43 109.41 C 360.82 106.18 360.29 102.90 358.58 100.10 C 356.72 96.85 354.02 92.78 349.71 93.49 Z" />
<path fill="#322d2e" opacity="1.00" d=" M 377.31 98.41 C 382.92 96.70 388.78 98.94 393.96 101.08 C 402.44 104.93 410.39 110.46 416.01 117.98 C 418.15 120.97 420.32 124.97 418.62 128.65 C 416.13 131.84 411.51 131.31 407.99 130.66 C 399.06 128.66 390.97 123.84 384.03 117.98 C 380.03 114.34 375.98 110.19 374.46 104.86 C 373.65 102.32 374.73 99.39 377.31 98.41 M 389.56 108.37 C 388.69 109.42 389.66 110.81 390.15 111.80 C 393.12 115.88 397.85 118.80 402.90 119.30 C 405.51 119.31 405.42 116.30 404.20 114.77 C 401.71 111.39 398.02 108.89 394.00 107.71 C 392.63 107.57 390.29 106.80 389.56 108.37 Z" />
<path fill="#322d2e" opacity="1.00" d=" M 312.25 111.39 C 319.73 110.30 327.62 109.87 334.91 112.25 C 338.15 113.32 342.23 116.02 340.85 120.02 C 338.98 124.03 334.84 126.33 330.94 128.01 C 320.91 132.09 309.69 133.50 299.01 131.61 C 295.28 130.77 290.40 129.35 289.59 125.00 C 289.52 121.73 292.22 119.41 294.66 117.70 C 299.95 114.29 306.12 112.53 312.25 111.39 M 310.40 117.58 C 308.30 118.35 304.84 119.87 306.28 122.68 C 310.55 125.46 316.16 124.32 320.62 122.60 C 322.39 121.93 325.27 119.83 323.25 117.84 C 319.44 115.48 314.48 116.40 310.40 117.58 Z" />
</g>
<g id="#d1d4daff">
<path fill="#d1d4da" opacity="1.00" d=" M 198.71 189.00 C 198.33 184.35 199.23 179.67 199.77 175.05 C 199.86 175.68 200.05 176.93 200.14 177.56 C 205.05 179.25 210.00 180.85 215.01 182.21 C 214.54 185.82 215.12 190.39 211.80 192.85 C 207.65 195.80 199.91 194.60 198.71 189.00 Z" />
<path fill="#d1d4da" opacity="1.00" d=" M 376.60 175.53 L 376.81 175.43 C 383.82 183.16 387.33 193.69 386.99 204.06 C 386.87 206.77 385.23 209.50 382.67 210.52 C 379.53 211.55 375.77 210.89 373.30 208.67 C 370.87 206.04 371.44 202.24 371.00 198.98 C 370.44 193.30 367.78 187.27 362.48 184.57 C 358.94 182.59 354.72 182.27 350.77 182.86 C 359.65 181.60 368.48 179.41 376.60 175.53 Z" />
<path fill="#d1d4da" opacity="1.00" d=" M 315.54 184.58 C 315.83 184.56 316.39 184.54 316.68 184.52 C 316.84 184.52 317.16 184.52 317.33 184.51 C 315.92 189.32 316.34 194.42 315.21 199.26 C 313.26 206.07 301.78 205.58 299.95 198.95 C 299.41 195.61 300.01 192.22 300.44 188.91 C 300.55 189.42 300.78 190.45 300.90 190.96 C 306.01 191.03 311.10 190.45 316.17 189.87 C 315.97 188.10 315.77 186.34 315.54 184.58 Z" />
<path fill="#d1d4da" opacity="1.00" d=" M 324.34 188.52 C 331.45 188.09 338.38 186.33 345.38 185.12 C 342.44 188.03 339.76 191.35 338.67 195.42 C 337.67 198.17 337.60 201.32 335.88 203.78 C 331.91 208.36 322.61 206.42 321.84 200.01 C 321.54 196.07 323.13 192.29 324.13 188.54 L 324.34 188.52 Z" />
<path fill="#d1d4da" opacity="1.00" d=" M 235.84 187.18 C 240.85 188.10 245.88 188.86 250.92 189.59 C 251.14 189.16 251.58 188.28 251.79 187.84 C 251.69 190.53 251.71 193.59 249.73 195.68 C 246.72 198.96 241.27 198.54 237.92 196.04 C 235.25 193.91 235.47 190.23 235.84 187.18 Z" />
<path fill="#d1d4da" opacity="1.00" d=" M 272.84 191.58 C 278.22 191.54 283.59 191.70 288.97 191.84 C 288.81 194.94 288.31 198.62 285.30 200.29 C 281.48 202.33 275.61 201.52 273.45 197.43 C 272.44 195.64 272.83 193.52 272.84 191.58 Z" />
<path fill="#d1d4da" opacity="1.00" d=" M 202.87 199.80 C 205.44 198.30 209.18 200.04 209.54 203.04 C 210.65 208.63 211.88 214.21 212.73 219.86 C 215.12 214.42 217.11 208.81 219.54 203.39 C 221.02 199.97 226.82 200.33 227.72 204.01 C 228.55 210.33 228.61 216.73 229.25 223.08 C 229.37 225.67 229.90 228.33 229.27 230.90 C 228.27 232.86 225.89 232.75 224.16 231.93 C 222.88 230.59 223.02 228.64 222.87 226.94 C 222.66 221.97 222.29 217.00 222.28 212.02 C 219.71 217.69 217.85 223.65 215.29 229.32 C 214.07 232.28 208.63 231.40 208.57 228.10 C 207.34 222.34 206.39 216.52 205.28 210.74 C 203.55 216.42 202.64 222.31 200.83 227.96 C 200.01 231.37 193.64 229.70 194.67 226.18 C 196.22 219.02 198.43 212.01 200.15 204.88 C 200.75 203.09 200.90 200.67 202.87 199.80 Z" />
<path fill="#d1d4da" opacity="1.00" d=" M 235.12 206.87 C 235.19 205.23 235.85 202.80 237.88 202.79 C 242.00 202.86 246.14 203.25 250.20 203.93 C 252.95 204.33 253.00 208.55 250.69 209.63 C 247.65 209.95 244.60 209.40 241.58 209.19 C 241.40 211.13 241.19 213.07 241.01 215.01 C 243.68 215.33 246.41 215.32 249.03 216.02 C 251.41 216.81 251.30 220.69 249.04 221.61 C 246.15 221.90 243.27 221.38 240.40 221.23 C 240.24 223.17 240.03 225.11 240.02 227.07 C 242.85 227.92 245.88 227.56 248.73 228.28 C 250.98 229.24 250.99 232.77 248.88 233.88 C 244.26 234.12 239.60 233.58 235.04 232.83 C 233.31 232.51 232.74 230.55 233.06 229.03 C 233.68 221.64 234.43 214.26 235.12 206.87 Z" />
<path fill="#d1d4da" opacity="1.00" d=" M 258.45 208.42 C 263.83 203.63 272.35 204.18 278.05 208.09 C 279.81 209.35 281.55 211.90 279.94 213.95 C 278.43 216.32 275.43 214.46 273.80 213.18 C 270.66 210.56 265.35 210.32 262.61 213.66 C 259.02 218.02 258.76 225.81 263.68 229.30 C 267.87 231.98 273.88 229.72 274.81 224.72 C 272.34 224.16 268.65 224.99 267.60 221.98 C 267.41 220.25 268.08 218.23 270.10 218.17 C 273.58 218.32 277.21 218.29 280.54 219.45 C 283.00 222.41 281.18 226.73 279.75 229.78 C 275.97 237.39 264.85 238.59 258.61 233.41 C 251.16 227.41 251.44 214.65 258.45 208.42 Z" />
<path fill="#d1d4da" opacity="1.00" d=" M 291.58 213.60 C 292.66 211.48 293.55 208.76 296.06 207.99 C 298.90 206.83 301.81 209.15 302.29 211.96 C 304.31 219.98 306.55 227.96 308.41 236.02 C 309.16 238.16 307.30 240.27 305.10 239.79 C 301.74 239.80 302.14 235.68 301.37 233.40 C 297.56 232.83 293.72 232.54 289.89 232.21 C 289.10 233.94 288.44 235.76 287.33 237.32 C 285.12 239.19 280.93 237.02 281.96 234.03 C 284.85 227.08 288.52 220.48 291.58 213.60 M 292.48 226.23 C 294.98 226.49 297.49 226.72 300.00 226.95 C 299.03 222.96 298.11 218.96 297.32 214.93 C 295.61 218.66 293.92 222.39 292.48 226.23 Z" />
<path fill="#d1d4da" opacity="1.00" d=" M 313.33 213.01 C 313.28 211.12 315.12 209.72 316.94 210.09 C 321.80 210.67 327.46 210.08 331.39 213.57 C 335.97 217.65 335.52 225.93 330.39 229.37 C 326.87 231.97 322.29 231.12 318.25 230.85 C 318.06 233.94 317.72 237.02 317.10 240.05 C 315.48 240.47 313.52 241.28 312.07 239.98 C 310.58 238.70 311.13 236.57 311.20 234.86 C 312.02 227.59 312.48 220.28 313.33 213.01 M 319.60 216.18 C 319.37 219.11 319.10 222.04 318.86 224.97 C 320.88 225.08 322.92 225.37 324.94 225.11 C 328.04 223.82 328.71 218.92 325.68 217.19 C 323.75 216.39 321.63 216.44 319.60 216.18 Z" />
<path fill="#d1d4da" opacity="1.00" d=" M 344.50 213.62 C 350.84 211.21 358.88 213.54 362.29 219.58 C 365.92 225.70 365.16 234.09 360.58 239.51 C 355.55 245.27 345.91 245.81 340.19 240.79 C 331.84 233.56 334.05 217.73 344.50 213.62 M 347.28 219.37 C 342.10 221.79 340.78 229.01 342.98 233.89 C 344.81 238.43 351.63 239.52 354.84 235.87 C 357.82 232.51 358.63 227.31 356.75 223.23 C 355.26 219.73 350.79 217.80 347.28 219.37 Z" />
<path fill="#d1d4da" opacity="1.00" d=" M 368.77 217.96 C 368.70 215.17 372.32 214.06 374.25 215.70 C 375.65 216.67 375.20 218.52 375.20 219.96 C 374.65 226.61 373.83 233.24 373.39 239.90 C 376.21 240.13 379.09 240.14 381.87 240.82 C 385.11 241.92 383.38 247.42 380.03 246.57 C 375.78 246.03 371.18 246.49 367.21 244.74 C 367.04 244.30 366.70 243.42 366.53 242.98 C 366.99 234.63 367.92 226.28 368.77 217.96 Z" />
</g>
</svg>
