<?xml version="1.0" encoding="UTF-8" standalone="no"?>
<!-- Created with Inkscape (http://www.inkscape.org/) -->

<svg
   xmlns:dc="http://purl.org/dc/elements/1.1/"
   xmlns:cc="http://creativecommons.org/ns#"
   xmlns:rdf="http://www.w3.org/1999/02/22-rdf-syntax-ns#"
   xmlns:svg="http://www.w3.org/2000/svg"
   xmlns="http://www.w3.org/2000/svg"
   xmlns:xlink="http://www.w3.org/1999/xlink"
   xmlns:sodipodi="http://sodipodi.sourceforge.net/DTD/sodipodi-0.dtd"
   xmlns:inkscape="http://www.inkscape.org/namespaces/inkscape"
   width="1000.1119"
   height="245.31418"
   id="svg2"
   version="1.1"
   inkscape:version="0.48.1 "
   sodipodi:docname="Neues Dokument 1">
  <defs
     id="defs4">
    <linearGradient
       id="linearGradient4119">
      <stop
         style="stop-color:#ffffff;stop-opacity:0;"
         offset="0"
         id="stop4121" />
      <stop
         style="stop-color:#000000;stop-opacity:0.66666669;"
         offset="1"
         id="stop4123" />
    </linearGradient>
    <linearGradient
       id="linearGradient3803">
      <stop
         style="stop-color:#c79333;stop-opacity:1;"
         offset="0"
         id="stop3805" />
      <stop
         style="stop-color:#fce119;stop-opacity:1;"
         offset="1"
         id="stop3807" />
    </linearGradient>
    <linearGradient
       id="linearGradient3793">
      <stop
         style="stop-color:#000000;stop-opacity:1;"
         offset="0"
         id="stop3795" />
      <stop
         style="stop-color:#000000;stop-opacity:0;"
         offset="1"
         id="stop3797" />
    </linearGradient>
    <linearGradient
       inkscape:collect="always"
       xlink:href="#linearGradient3803"
       id="linearGradient3809"
       x1="-15.884295"
       y1="594.87506"
       x2="233.2403"
       y2="322.01791"
       gradientUnits="userSpaceOnUse" />
    <radialGradient
       inkscape:collect="always"
       xlink:href="#linearGradient4119"
       id="radialGradient4125"
       cx="127.73074"
       cy="447.36218"
       fx="127.73074"
       fy="447.36218"
       r="111.48074"
       gradientTransform="matrix(0.71535379,-0.01248403,0.00760932,0.43602598,32.953947,253.89524)"
       gradientUnits="userSpaceOnUse" />
    <filter
       inkscape:collect="always"
       id="filter4155"
       color-interpolation-filters="sRGB">
      <feGaussianBlur
         inkscape:collect="always"
         stdDeviation="3.2264243"
         id="feGaussianBlur4157" />
    </filter>
    <linearGradient
       inkscape:collect="always"
       xlink:href="#linearGradient3803"
       id="linearGradient4159"
       gradientUnits="userSpaceOnUse"
       x1="-15.884295"
       y1="594.87506"
       x2="233.2403"
       y2="322.01791" />
  </defs>
  <sodipodi:namedview
     id="base"
     pagecolor="#ffffff"
     bordercolor="#666666"
     borderopacity="1.0"
     inkscape:pageopacity="0.0"
     inkscape:pageshadow="2"
     inkscape:zoom="0.5"
     inkscape:cx="366.4686"
     inkscape:cy="172.48419"
     inkscape:document-units="px"
     inkscape:current-layer="layer1"
     showgrid="false"
     fit-margin-top="0"
     fit-margin-left="0"
     fit-margin-right="0"
     fit-margin-bottom="0"
     inkscape:window-width="1680"
     inkscape:window-height="988"
     inkscape:window-x="-8"
     inkscape:window-y="-8"
     inkscape:window-maximized="1" />
  <metadata
     id="metadata7">
    <rdf:RDF>
      <cc:Work
         rdf:about="">
        <dc:format>image/svg+xml</dc:format>
        <dc:type
           rdf:resource="http://purl.org/dc/dcmitype/StillImage" />
        <dc:title></dc:title>
      </cc:Work>
    </rdf:RDF>
  </metadata>
  <g
     inkscape:label="Ebene 1"
     inkscape:groupmode="layer"
     id="layer1"
     transform="translate(-8.0442769,-311.14652)">
    <path
       style="fill:url(#radialGradient4125);fill-opacity:1;stroke:none;filter:url(#filter4155)"
       d="m 231,370.61218 7.5,18.5 c 1.03736,3.32032 -1.93249,6.78796 -4.75,10.25 l -37.75,38.25 c -3.28298,1.73146 -6.64823,3.90166 -9.25,2 -10.31382,-16.4849 -7.33333,-17.83333 -11,-26.75 -0.51975,-2.01397 -0.59752,-4.41467 -4.75,-3.25 -3.55975,1.94705 -6.77454,3.92673 -9,6 l -25.25,24.75 c -4.62454,1.94821 -7.73747,1.04115 -10.25,-1 l -7.25,-32.75 c -3.59249,1.83546 -6.70704,4.49087 -10.11872,7.23483 L 76,442.86218 l 3,27.25 12.75,-16.25 c 5.138641,-14.70808 16.75996,-2.43376 16.5,0.75 l 10.75,42.75 30.5,-48 c 2.42362,-4.90678 16.70502,3.74625 17.25,15.75 l 0.5,34.75 -65,30.75 -60.5,-47 -25,-34 14.75,-50.75 68.75,-33 88.5,-1.75 z"
       id="path4117"
       inkscape:connector-curvature="0"
       sodipodi:nodetypes="ccccccccccccccccccccccccccc" />
    <g
       id="g3991">
      <path
         sodipodi:nodetypes="ccssscccccccccccccccc"
         inkscape:connector-curvature="0"
         id="path3790"
         d="m 209.62095,399.18365 27.67476,-27.42632 C 209.84347,325.91573 155.5659,302.79844 103.51905,314.77747 37.597639,329.94986 -3.5066109,395.53359 11.710146,461.26282 c 15.216756,65.72922 80.992245,106.71364 146.913664,91.54124 65.92142,-15.17238 107.02566,-80.7561 91.58139,-146.64162 l -94.44627,92.18188 c -1.65569,1.12832 -7.66735,2.96092 -8.21877,-3.32972 l -0.68234,-53.76346 -18.41266,18.19077 c -0.83921,0.76186 -2.11166,1.07024 -5.76659,1.13456 l -29.107141,0 c -3.964644,-0.13308 -5.012007,-5.06025 -5,-6.96429 L 88.44516,439.38156 68.571429,458.07647 c -1.736328,1.62051 -3.814537,2.36831 -5.178572,2.5 l -29.821428,-0.28411 c -2.926885,-0.30074 -4.338118,-2.55989 -4.437671,-3.83882 -0.06879,-1.50817 1.44665,-3.07665 2.830528,-4.4485 L 69.564947,413.79377 C 122.73211,337.68173 167.55977,327.55238 209.62095,399.18365 z"
         style="fill:url(#linearGradient4159);fill-opacity:1;stroke:#e6c535;stroke-width:1px;stroke-linecap:butt;stroke-linejoin:round;stroke-opacity:1" />
      <path
         sodipodi:nodetypes="cccccccsscc"
         inkscape:connector-curvature="0"
         d="m 94.699327,332.84322 c 1.67623,-1.81299 5.559923,-0.046 5.592413,3.2583 l 0.3418,34.86776 34.57703,-38.16497 c 1.67471,-1.75429 5.51878,-1.33146 5.91221,2.69282 l 0.49438,40.71847 19.71217,-22.42174 c 11.80956,-17.60816 7.2082,-37.83785 -11.01641,-51.01907 -23.33865,-16.88002 -60.994252,-16.74577 -84.106145,0.29987 -23.111893,17.04563 -23.92503,45.83241 0.434801,61.81804 z"
         style="fill:#fdfba3;fill-opacity:1;stroke:#e6c535;stroke-width:0.71584886;stroke-linejoin:round;stroke-miterlimit:4;stroke-opacity:1;stroke-dasharray:none;marker-start:none"
         transform="matrix(1.4777092,0,0,1.320591,-29.051557,-68.045309)"
         id="path3773" />
    </g>
    <path
       style="fill:#000000;fill-opacity:1;stroke:none"
       d="m 295.9747,467.98894 14.53652,-54.28036 15.13671,-0.31567 7.3236,21.51353 18.94036,-21.33947 16.35185,0 -14.48351,53.91 -14.49524,0 7.57066,-30.56408 -19.69249,20.72198 -7.95496,-20.70813 -8.32607,31.07332 z"
       id="path3997"
       inkscape:connector-curvature="0"
       sodipodi:nodetypes="ccccccccccccc" />
    <path
       style="fill:#000000;fill-opacity:1;stroke:none"
       d="m 402.03125,411.90625 c -1.51906,-0.014 -3.06601,0.13002 -4.625,0.40625 -17.57872,3.11465 -27.10094,13.34945 -28.46875,28.71875 -1.49253,16.77069 9.34984,28.13209 25.53125,27.90625 15.72821,-0.21951 28.48805,-12.31865 31.4375,-27.90625 2.99237,-15.81446 -9.19073,-28.98914 -23.875,-29.125 z m -2.75,14 c 7.2458,-0.0528 12.86339,5.83157 12.15625,15.21875 -0.6275,8.32996 -9.38224,14.5 -16.90625,14.5 -7.52402,0 -11.32589,-7.48572 -10.34375,-14.5 1.15837,-8.27287 6.15013,-14.26636 13.625,-15.125 0.49616,-0.057 0.9857,-0.0902 1.46875,-0.0937 z"
       id="path4002"
       inkscape:connector-curvature="0" />
    <path
       inkscape:connector-curvature="0"
       style="fill:#000000;fill-opacity:1;stroke:none"
       d="m 511.23586,412.05965 c -1.51906,-0.014 -3.06601,0.13002 -4.625,0.40625 -17.57872,3.11465 -27.10094,13.34945 -28.46875,28.71875 -1.49253,16.77069 9.34984,28.13209 25.53125,27.90625 15.72821,-0.21951 28.48805,-12.31865 31.4375,-27.90625 2.99237,-15.81446 -9.19073,-28.98914 -23.875,-29.125 z m -2.75,14 c 7.2458,-0.0528 12.86339,5.83157 12.15625,15.21875 -0.6275,8.32996 -9.38224,14.5 -16.90625,14.5 -7.52402,0 -11.32589,-7.48572 -10.34375,-14.5 1.15837,-8.27287 6.15013,-14.26636 13.625,-15.125 0.49616,-0.057 0.9857,-0.0902 1.46875,-0.0937 z"
       id="path4002-9" />
    <path
       inkscape:connector-curvature="0"
       style="fill:#000000;fill-opacity:1;stroke:none"
       d="m 787.30729,412.05965 c -1.51906,-0.014 -3.06601,0.13002 -4.625,0.40625 -17.57872,3.11465 -27.10094,13.34945 -28.46875,28.71875 -1.49253,16.77069 9.34984,28.13209 25.53125,27.90625 15.72821,-0.21951 28.48805,-12.31865 31.4375,-27.90625 2.99237,-15.81446 -9.19073,-28.98914 -23.875,-29.125 z m -2.75,14 c 7.2458,-0.0528 12.86339,5.83157 12.15625,15.21875 -0.6275,8.32996 -9.38224,14.5 -16.90625,14.5 -7.52402,0 -11.32589,-7.48572 -10.34375,-14.5 1.15837,-8.27287 6.15013,-14.26636 13.625,-15.125 0.49616,-0.057 0.9857,-0.0902 1.46875,-0.0937 z"
       id="path4002-4" />
    <path
       style="fill:#000000;fill-opacity:1;stroke:none"
       d="m 435.71429,467.45147 10.71428,-41.07143 -16.60714,0 3.66799,-12.90945 47.6713,-0.0893 -3.62126,12.82433 -16.37874,0 -10.99811,41.04548 z"
       id="path4035"
       inkscape:connector-curvature="0"
       sodipodi:nodetypes="ccccccccc" />
    <path
       style="fill:#000000;fill-opacity:1;stroke:none"
       d="m 550.40625,413.875 -14.0625,53.9375 14.5,0.0625 4.34375,-16.5 7.28125,-0.0937 7.5,16.625 15.65625,-0.0937 -8.21875,-18.125 c 7.65217,-3.94557 17.43001,-9.81575 16.53125,-18.9375 -1.50856,-8.72125 -3.91456,-15.66678 -18.21875,-16.875 l -25.3125,0 z m 11.71875,12.21875 10.78125,0 c 3.54463,0.62465 5.69917,2.51138 5.625,6.40625 -0.2693,5.70511 -6.28244,7.36727 -7.46875,7.3125 l -12.625,0 3.6875,-13.71875 z"
       id="path4037"
       inkscape:connector-curvature="0" />
    <path
       style="fill:#000000;fill-opacity:1;stroke:none"
       d="m 599.90435,413.40913 6.91481,54.83678 13.69956,0 36.68117,-54.839 -16.76317,0 -21.68987,34.99454 -3.02731,-34.99232 z"
       id="path4042"
       inkscape:connector-curvature="0"
       sodipodi:nodetypes="cccccccc" />
    <path
       style="fill:#000000;fill-opacity:1;stroke:none"
       d="m 648.50531,467.58488 14.1868,-53.98117 14.87151,-0.0625 -14.70294,54.08663 z"
       id="path4044"
       inkscape:connector-curvature="0"
       sodipodi:nodetypes="ccccc" />
    <path
       style="fill:#000000;fill-opacity:1;stroke:none"
       d="m 724.47084,467.61254 14.1868,-53.98117 14.87151,-0.0625 -14.70294,54.08663 z"
       id="path4044-9"
       inkscape:connector-curvature="0"
       sodipodi:nodetypes="ccccc" />
    <path
       style="fill:#000000;fill-opacity:1;stroke:none"
       d="m 908.04419,413.12592 -3.70044,13.43658 16.59375,0 -10.71875,41.09375 14.4375,-0.21875 11,-41.03125 16.48974,0.025 5.63526,41.35003 13.6875,0 36.68745,-54.84375 -16.7812,0 -21.6875,35 -3.03125,-35 c -19.54885,0.4529 -39.05939,0.003 -58.61206,0.18842 z"
       id="path4035-9"
       inkscape:connector-curvature="0"
       sodipodi:nodetypes="cccccccccccccc" />
    <path
       style="fill:#000000;fill-opacity:1;stroke:none"
       d="m 672.75,459.04968 9.53125,-9.53125 c 8.02075,6.13408 8.53606,7.44331 17.27551,6.81786 1.49284,-0.13159 6.1977,-1.87116 5.75574,-3.84911 -0.87891,-3.01516 -4.91457,-4.88075 -11.25,-7.125 -7.31929,-3.29355 -12.5599,-7.53606 -12.25,-14.3125 0.73571,-7.03983 5.152,-17.28287 19.625,-17.875 l 7.75,-0.0625 c 9.14331,0.35092 13.73115,4.31559 17.6875,7.4375 l -9.8125,9.8125 c -6.32121,-5.09242 -9.97473,-5.21219 -11.625,-5.1875 l -4.375,0.125 c -3.57392,0.27081 -3.60077,1.98672 -4.125,3.5 -0.63934,4.01969 6.08579,4.27004 14.5625,8.75 4.60377,2.07257 8.44282,4.93351 8.6875,11.5 l 0.125,2.8125 c -1.25431,13.77016 -16.54146,17.30829 -22.1875,16.75 -14.08165,1.09196 -24.04523,-7.76714 -25.375,-9.5625 z"
       id="path4101"
       inkscape:connector-curvature="0"
       sodipodi:nodetypes="cccccccccccccccccc" />
    <path
       style="fill:#000000;fill-opacity:1;stroke:none"
       d="m 812.625,467.61218 14.60469,-54.50544 13.77031,0 14.125,31.13044 8.20889,-30.80565 14.77549,-0.0156 -14.5667,54.14072 -13.15206,0 L 835.5,435.5497 l -8.07164,32.36927 z"
       id="path4103"
       inkscape:connector-curvature="0"
       sodipodi:nodetypes="ccccccccccc" />
    <path
       style="fill:#000000;fill-opacity:1;stroke:none"
       d="m 877.25,467.73718 3.47302,-12.96147 11.58948,0 -3.4737,12.96403 z"
       id="path4105"
       inkscape:connector-curvature="0" />
  </g>
</svg>
