<?xml version="1.0" encoding="UTF-8" ?>
<!DOCTYPE svg PUBLIC "-//W3C//DTD SVG 1.1//EN" "http://www.w3.org/Graphics/SVG/1.1/DTD/svg11.dtd">
<svg width="800pt" height="300pt" viewBox="0 0 800 300" version="1.1" xmlns="http://www.w3.org/2000/svg">
<g id="#858988ff">
<path fill="#858988" opacity="1.00" d=" M 135.97 24.48 C 139.71 24.02 143.61 25.02 147.22 23.66 C 148.84 23.79 150.36 24.59 152.04 24.38 C 163.30 24.01 174.42 26.56 185.16 29.74 C 187.11 30.52 189.30 30.76 191.07 31.98 C 183.41 29.71 175.80 27.23 167.87 26.08 C 161.03 24.63 154.02 25.15 147.11 24.42 C 143.62 24.92 140.09 24.90 136.57 25.03 C 125.30 25.45 114.45 28.87 103.71 32.02 C 113.96 27.88 124.97 25.55 135.97 24.48 Z" />
<path fill="#858988" opacity="1.00" d=" M 529.06 99.50 C 530.85 94.77 535.55 91.42 540.32 90.18 C 535.77 92.15 531.50 95.05 529.06 99.50 Z" />
<path fill="#858988" opacity="1.00" d=" M 592.57 92.12 C 598.95 95.84 602.10 103.58 602.83 110.65 C 595.75 111.43 588.62 111.70 581.55 112.55 C 581.38 112.24 581.04 111.62 580.87 111.31 C 582.72 112.32 584.88 111.72 586.86 111.56 C 592.01 110.76 597.23 110.97 602.40 110.32 C 601.61 103.28 598.28 96.45 592.57 92.12 Z" />
<path fill="#858988" opacity="1.00" d=" M 526.89 117.04 C 527.24 111.25 525.82 104.73 529.03 99.55 C 526.52 106.09 527.51 113.15 527.32 119.98 C 527.25 125.65 529.69 131.26 534.29 134.68 C 528.06 131.42 526.49 123.50 526.89 117.04 Z" />
<path fill="#858988" opacity="1.00" d=" M 264.00 103.92 C 267.75 111.26 269.20 119.64 271.07 127.65 C 271.64 132.43 272.64 137.15 272.53 141.99 C 274.00 149.44 272.55 156.99 272.18 164.45 C 270.98 174.84 268.50 185.10 264.83 194.90 C 264.63 195.18 264.23 195.74 264.03 196.01 C 275.31 166.64 275.27 133.29 264.00 103.92 Z" />
<path fill="#858988" opacity="1.00" d=" M 548.97 110.95 C 549.62 106.82 554.49 105.75 558.01 106.08 C 564.52 106.50 571.21 105.32 577.60 106.74 C 570.39 106.54 563.19 106.68 555.99 106.63 C 553.22 106.42 549.80 107.88 549.45 110.96 C 548.74 114.60 548.69 119.87 552.92 121.29 C 565.23 122.61 577.93 120.10 590.06 122.96 C 578.77 121.43 567.36 122.30 556.01 122.04 C 554.11 122.03 552.01 121.83 550.65 120.34 C 548.01 118.01 548.76 114.07 548.97 110.95 Z" />
<path fill="#858988" opacity="1.00" d=" M 473.79 119.31 C 473.99 119.32 474.39 119.32 474.60 119.32 C 475.46 121.56 476.82 123.78 476.80 126.23 C 475.77 124.40 476.09 121.10 473.72 120.56 C 472.53 123.87 471.20 127.14 470.11 130.50 C 470.55 126.63 472.71 123.08 473.79 119.31 Z" />
<path fill="#858988" opacity="1.00" d=" M 534.47 134.79 C 548.16 140.45 563.38 137.13 577.73 138.51 C 581.96 140.25 581.59 145.47 581.07 149.21 C 580.52 152.43 576.99 154.04 574.02 153.96 C 568.34 153.98 562.67 153.91 556.99 153.98 C 554.80 153.99 552.23 153.95 550.73 152.10 C 552.03 152.80 553.43 153.46 554.97 153.33 C 561.65 153.34 568.34 153.32 575.03 153.34 C 577.22 153.35 579.70 152.13 580.44 149.94 C 581.61 145.83 581.47 139.20 576.05 138.47 C 566.38 138.23 556.69 138.62 547.01 138.23 C 542.73 137.69 538.03 137.49 534.47 134.79 Z" />
<path fill="#858988" opacity="1.00" d=" M 540.07 148.08 C 543.09 147.80 546.18 147.27 549.21 147.81 C 542.03 148.37 534.82 148.42 527.65 149.03 C 528.01 151.46 528.40 153.88 528.95 156.28 C 527.70 153.85 527.33 151.08 527.24 148.37 C 531.50 147.87 535.79 148.30 540.07 148.08 Z" />
<path fill="#858988" opacity="1.00" d=" M 592.65 168.72 C 598.05 165.94 601.82 160.72 602.72 154.71 C 602.72 160.76 598.25 166.68 592.65 168.72 Z" />
<path fill="#858988" opacity="1.00" d=" M 529.06 156.57 C 530.70 160.53 533.07 164.11 536.13 167.12 C 532.64 164.62 530.04 160.75 529.06 156.57 Z" />
<path fill="#858988" opacity="1.00" d=" M 536.75 167.65 C 540.22 169.40 543.86 170.79 547.62 171.78 C 543.72 171.48 539.87 169.98 536.75 167.65 Z" />
<path fill="#858988" opacity="1.00" d=" M 40.45 196.80 C 47.37 199.81 54.77 201.39 62.17 202.69 C 58.94 204.13 55.96 206.04 52.96 207.88 C 50.68 207.43 48.35 207.26 46.06 207.67 L 45.74 207.71 C 44.08 204.02 41.99 200.54 40.45 196.80 Z" />
<path fill="#858988" opacity="1.00" d=" M 223.65 249.75 C 223.53 248.09 225.38 247.06 226.83 246.98 C 227.05 248.44 225.00 249.90 223.65 249.75 Z" />
<path fill="#858988" opacity="1.00" d=" M 153.02 275.13 C 166.10 275.39 178.83 271.81 191.22 268.02 C 181.01 272.13 170.07 274.32 159.15 275.55 C 155.39 275.92 151.49 275.06 147.84 276.32 C 140.56 275.03 132.83 276.08 125.64 273.90 C 128.97 274.07 132.24 274.96 135.59 274.95 C 141.42 274.78 147.21 276.13 153.02 275.13 Z" />
</g>
<g id="#4d0607ff">
<path fill="#4d0607" opacity="1.00" d=" M 103.71 32.02 C 114.45 28.87 125.30 25.45 136.57 25.03 C 140.69 27.19 145.50 25.86 149.95 26.16 C 156.40 26.39 163.46 26.26 169.04 29.99 C 175.30 33.25 180.54 38.09 186.70 41.48 C 185.85 41.77 184.99 42.06 184.14 42.34 C 184.67 42.71 185.73 43.45 186.25 43.82 C 178.98 45.09 171.66 46.24 164.54 48.21 C 160.83 49.17 157.10 50.07 153.45 51.20 C 150.43 48.10 146.54 46.12 142.72 44.21 C 133.93 39.69 124.29 37.12 114.61 35.35 C 111.07 34.67 107.45 34.45 103.84 34.66 C 102.14 34.78 100.45 34.66 98.79 34.26 C 100.38 34.10 102.42 33.78 103.19 32.17 L 103.71 32.02 Z" />
</g>
<g id="#3d0204ff">
<path fill="#3d0204" opacity="1.00" d=" M 136.57 25.03 C 140.09 24.90 143.62 24.92 147.11 24.42 C 154.02 25.15 161.03 24.63 167.87 26.08 C 175.80 27.23 183.41 29.71 191.07 31.98 L 191.26 32.08 C 196.99 34.88 202.82 37.51 208.63 40.14 L 209.46 40.44 C 204.11 41.98 198.39 41.43 193.00 42.83 C 190.77 43.29 188.50 43.46 186.25 43.82 C 185.73 43.45 184.67 42.71 184.14 42.34 C 184.99 42.06 185.85 41.77 186.70 41.48 C 180.54 38.09 175.30 33.25 169.04 29.99 C 163.46 26.26 156.40 26.39 149.95 26.16 C 145.50 25.86 140.69 27.19 136.57 25.03 Z" />
</g>
<g id="#53383698">
<path fill="#533836" opacity="0.60" d=" M 98.79 34.26 C 98.90 32.58 101.79 31.91 103.19 32.17 C 102.42 33.78 100.38 34.10 98.79 34.26 Z" />
</g>
<g id="#442d2c95">
<path fill="#442d2c" opacity="0.58" d=" M 191.26 32.08 C 197.25 33.19 202.66 36.63 208.08 39.37 L 208.63 40.14 C 202.82 37.51 196.99 34.88 191.26 32.08 Z" />
</g>
<g id="#812a25ff">
<path fill="#812a25" opacity="1.00" d=" M 96.40 34.92 C 97.11 34.38 97.90 34.16 98.79 34.26 C 100.45 34.66 102.14 34.78 103.84 34.66 C 102.58 36.95 104.20 38.48 106.07 39.59 C 107.96 40.69 106.77 42.87 106.52 44.48 C 107.27 45.80 109.08 45.22 110.32 45.48 C 112.50 48.59 115.25 52.09 119.11 52.98 C 120.09 54.27 120.83 55.82 122.12 56.84 C 123.73 57.14 125.38 57.22 127.01 57.39 C 126.42 60.01 120.88 59.77 122.94 62.82 C 112.78 67.69 102.84 73.12 93.75 79.81 C 93.54 77.71 93.39 75.37 91.26 74.28 C 89.59 75.66 87.60 75.56 85.85 74.39 C 85.53 73.53 85.45 72.60 85.11 71.74 C 83.38 71.14 81.52 70.83 79.88 70.00 C 77.68 65.88 71.48 63.88 72.60 58.35 C 71.46 58.49 70.33 58.61 69.19 58.75 C 68.59 57.28 68.55 55.70 68.59 54.14 C 65.87 56.29 63.88 60.27 59.90 59.85 C 62.59 57.66 64.74 54.42 67.94 53.08 C 69.68 53.18 70.92 51.93 71.26 50.30 C 75.19 46.33 80.41 43.52 85.24 40.61 C 85.35 40.56 85.59 40.45 85.71 40.39 L 86.47 40.07 C 89.96 38.73 93.36 37.10 96.40 34.92 Z" />
</g>
<g id="#5d38349e">
<path fill="#5d3834" opacity="0.62" d=" M 86.47 40.07 C 89.13 37.71 92.93 36.13 96.40 34.92 C 93.36 37.10 89.96 38.73 86.47 40.07 Z" />
</g>
<g id="#7e1c1dff">
<path fill="#7e1c1d" opacity="1.00" d=" M 103.84 34.66 C 107.45 34.45 111.07 34.67 114.61 35.35 C 124.29 37.12 133.93 39.69 142.72 44.21 C 146.54 46.12 150.43 48.10 153.45 51.20 C 147.07 53.19 140.66 55.16 134.53 57.83 C 130.61 59.36 126.73 60.99 122.94 62.82 C 120.88 59.77 126.42 60.01 127.01 57.39 C 125.38 57.22 123.73 57.14 122.12 56.84 C 120.83 55.82 120.09 54.27 119.11 52.98 C 115.25 52.09 112.50 48.59 110.32 45.48 C 109.08 45.22 107.27 45.80 106.52 44.48 C 106.77 42.87 107.96 40.69 106.07 39.59 C 104.20 38.48 102.58 36.95 103.84 34.66 Z" />
</g>
<g id="#5b49467e">
<path fill="#5b4946" opacity="0.49" d=" M 85.24 40.61 C 85.35 40.56 85.59 40.45 85.71 40.39 C 85.59 40.45 85.35 40.56 85.24 40.61 Z" />
</g>
<g id="#8d9190ff">
<path fill="#8d9190" opacity="1.00" d=" M 209.46 40.44 L 209.90 40.30 C 209.90 40.65 209.92 41.33 209.93 41.68 C 205.61 41.13 201.49 42.55 197.23 42.40 C 196.96 45.61 201.78 45.11 203.44 47.35 C 199.89 47.96 196.70 50.14 193.02 49.95 C 186.64 50.22 180.28 48.76 173.93 49.69 C 170.79 49.79 166.94 50.87 164.54 48.21 C 171.66 46.24 178.98 45.09 186.25 43.82 C 188.50 43.46 190.77 43.29 193.00 42.83 C 198.39 41.43 204.11 41.98 209.46 40.44 Z" />
</g>
<g id="#a0a3a0ff">
<path fill="#a0a3a0" opacity="1.00" d=" M 203.44 47.35 L 204.09 47.21 C 208.15 50.47 213.10 52.50 217.00 56.00 C 224.47 61.51 231.34 67.82 237.15 75.05 C 241.44 75.63 245.93 75.34 250.02 76.96 L 249.44 76.89 C 242.65 75.69 235.73 75.60 228.88 74.95 C 224.66 73.95 220.26 74.05 216.10 72.78 C 216.22 70.73 216.81 68.40 215.20 66.74 C 208.92 58.86 198.76 55.21 189.03 54.08 C 175.34 52.05 161.40 53.34 147.88 55.89 C 143.48 56.85 139.12 58.85 134.53 57.83 C 140.66 55.16 147.07 53.19 153.45 51.20 C 157.10 50.07 160.83 49.17 164.54 48.21 C 166.94 50.87 170.79 49.79 173.93 49.69 C 180.28 48.76 186.64 50.22 193.02 49.95 C 196.70 50.14 199.89 47.96 203.44 47.35 Z" />
</g>
<g id="#6a3d38bc">
<path fill="#6a3d38" opacity="0.74" d=" M 67.94 53.08 C 67.65 51.74 69.97 50.03 71.26 50.30 C 70.92 51.93 69.68 53.18 67.94 53.08 Z" />
</g>
<g id="#b5b7b4ff">
<path fill="#b5b7b4" opacity="1.00" d=" M 147.88 55.89 C 161.40 53.34 175.34 52.05 189.03 54.08 C 198.76 55.21 208.92 58.86 215.20 66.74 C 216.81 68.40 216.22 70.73 216.10 72.78 C 220.26 74.05 224.66 73.95 228.88 74.95 C 223.15 74.64 217.34 74.43 211.64 75.22 C 202.58 75.27 193.62 76.79 184.65 77.87 L 183.81 77.96 C 189.99 76.06 196.51 75.47 202.89 74.64 C 202.33 74.39 201.22 73.90 200.66 73.65 C 200.47 70.52 199.97 66.76 196.82 65.22 C 183.17 55.98 165.69 57.16 150.13 59.35 C 121.70 65.14 94.23 78.86 74.89 100.85 C 69.07 108.19 61.71 116.15 62.72 126.26 C 61.15 125.96 59.58 125.70 58.01 125.39 C 57.58 125.22 56.70 124.88 56.26 124.72 C 58.96 117.84 62.48 111.28 66.99 105.41 C 74.36 95.43 83.75 87.09 93.75 79.81 C 102.84 73.12 112.78 67.69 122.94 62.82 C 126.73 60.99 130.61 59.36 134.53 57.83 C 139.12 58.85 143.48 56.85 147.88 55.89 Z" />
</g>
<g id="#833730ff">
<path fill="#833730" opacity="1.00" d=" M 59.90 59.85 C 63.88 60.27 65.87 56.29 68.59 54.14 C 68.55 55.70 68.59 57.28 69.19 58.75 C 70.33 58.61 71.46 58.49 72.60 58.35 C 71.48 63.88 77.68 65.88 79.88 70.00 C 81.52 70.83 83.38 71.14 85.11 71.74 C 85.45 72.60 85.53 73.53 85.85 74.39 C 87.60 75.56 89.59 75.66 91.26 74.28 C 93.39 75.37 93.54 77.71 93.75 79.81 C 83.75 87.09 74.36 95.43 66.99 105.41 C 66.45 102.30 64.21 99.95 62.72 97.28 C 61.51 97.32 60.30 97.40 59.10 97.46 C 58.41 96.28 57.70 95.12 57.01 93.95 C 55.97 94.89 54.95 95.85 53.91 96.79 C 53.46 95.43 53.08 94.05 52.73 92.66 C 51.69 93.16 50.58 93.50 49.45 93.69 C 49.01 91.14 47.73 88.91 45.67 87.33 C 44.84 88.05 44.05 88.81 43.23 89.53 C 42.39 89.15 41.56 88.77 40.73 88.39 C 39.95 89.22 39.19 90.06 38.41 90.89 C 38.28 90.37 38.03 89.34 37.91 88.83 C 42.44 80.42 48.02 72.53 54.50 65.51 L 55.22 65.21 C 56.84 64.99 58.14 63.83 58.12 62.12 C 58.35 61.14 58.94 60.39 59.90 59.85 Z" />
</g>
<g id="#cecec9ff">
<path fill="#cecec9" opacity="1.00" d=" M 150.13 59.35 C 165.69 57.16 183.17 55.98 196.82 65.22 C 199.97 66.76 200.47 70.52 200.66 73.65 C 201.22 73.90 202.33 74.39 202.89 74.64 C 196.51 75.47 189.99 76.06 183.81 77.96 L 183.39 78.04 C 181.70 77.44 179.98 76.94 178.24 76.52 C 180.55 75.05 185.13 73.14 183.35 69.70 C 172.35 61.66 157.75 62.50 144.97 64.64 C 121.31 69.88 98.96 81.59 81.94 98.94 C 77.02 105.10 71.11 110.80 68.38 118.38 C 67.39 121.02 68.86 123.61 70.43 125.64 C 70.03 126.06 69.23 126.90 68.83 127.32 C 66.79 127.00 64.76 126.60 62.72 126.26 C 61.71 116.15 69.07 108.19 74.89 100.85 C 94.23 78.86 121.70 65.14 150.13 59.35 Z" />
</g>
<g id="#6c423cbc">
<path fill="#6c423c" opacity="0.74" d=" M 55.22 65.21 C 54.84 63.91 56.82 61.79 58.12 62.12 C 58.14 63.83 56.84 64.99 55.22 65.21 Z" />
</g>
<g id="#dfdfdcff">
<path fill="#dfdfdc" opacity="1.00" d=" M 144.97 64.64 C 157.75 62.50 172.35 61.66 183.35 69.70 C 185.13 73.14 180.55 75.05 178.24 76.52 C 179.98 76.94 181.70 77.44 183.39 78.04 C 160.35 82.34 137.35 89.36 117.45 101.99 C 123.31 103.17 129.09 104.75 134.98 105.81 C 134.30 106.42 133.61 107.03 132.92 107.63 C 135.05 107.42 136.73 108.71 138.53 109.60 C 150.30 113.11 162.45 115.15 174.08 119.18 C 187.91 122.89 201.45 128.49 213.01 137.06 C 218.18 141.86 223.96 146.67 226.22 153.62 C 231.65 166.66 227.36 181.87 218.29 192.17 C 218.42 192.71 218.68 193.78 218.81 194.32 C 209.39 202.13 198.54 208.02 187.39 212.96 C 182.25 215.22 177.03 217.29 171.77 219.25 C 155.47 225.15 138.68 229.69 121.62 232.76 C 121.20 232.25 120.37 231.22 119.95 230.71 C 110.24 230.71 100.04 229.56 91.62 224.33 C 88.70 222.63 87.05 219.57 85.32 216.79 C 86.60 210.80 93.02 208.84 98.18 207.39 C 106.14 205.97 113.94 203.74 122.01 202.94 C 125.81 202.60 129.22 200.76 132.88 199.86 C 149.95 195.48 166.83 189.85 182.28 181.29 C 184.84 179.84 187.41 178.30 189.55 176.27 C 189.38 175.81 189.04 174.88 188.88 174.41 C 191.99 172.58 194.91 170.44 197.68 168.13 C 198.35 169.56 199.73 171.06 198.66 172.68 C 195.97 178.77 189.77 181.94 184.40 185.28 C 167.59 194.15 149.59 200.68 131.15 205.18 C 124.63 207.23 118.06 209.10 111.37 210.52 C 108.04 211.62 103.73 212.12 102.16 215.74 C 109.55 224.92 122.69 226.08 133.58 224.55 C 141.65 222.84 149.82 221.41 157.64 218.68 C 166.87 215.98 175.63 211.99 184.53 208.39 C 191.70 204.43 199.07 200.68 205.38 195.38 C 210.32 191.32 215.53 187.12 218.05 181.04 C 222.69 172.79 224.23 161.65 218.43 153.56 C 212.46 143.41 201.75 137.40 191.41 132.53 C 172.59 125.17 152.84 120.70 133.31 115.71 C 128.04 114.13 121.92 113.34 118.23 108.81 C 115.07 105.97 116.34 101.24 117.81 97.88 C 123.55 91.64 131.74 88.68 139.33 85.37 C 148.38 80.94 158.89 79.73 167.30 73.97 C 163.89 71.82 160.15 69.79 156.02 69.69 C 140.60 68.58 125.48 73.89 112.02 80.99 C 103.01 86.01 94.84 92.42 87.18 99.29 C 82.49 105.25 76.69 110.76 74.57 118.29 C 73.82 120.98 75.43 124.03 78.13 124.85 C 83.61 126.79 89.26 128.31 94.98 129.43 C 93.31 130.03 91.64 130.64 89.93 131.13 C 82.88 129.95 75.89 128.47 68.83 127.32 C 69.23 126.90 70.03 126.06 70.43 125.64 C 68.86 123.61 67.39 121.02 68.38 118.38 C 71.11 110.80 77.02 105.10 81.94 98.94 C 98.96 81.59 121.31 69.88 144.97 64.64 Z" />
</g>
<g id="#fafaf8ff">
<path fill="#fafaf8" opacity="1.00" d=" M 112.02 80.99 C 125.48 73.89 140.60 68.58 156.02 69.69 C 160.15 69.79 163.89 71.82 167.30 73.97 C 158.89 79.73 148.38 80.94 139.33 85.37 C 131.74 88.68 123.55 91.64 117.81 97.88 C 116.34 101.24 115.07 105.97 118.23 108.81 C 121.92 113.34 128.04 114.13 133.31 115.71 C 152.84 120.70 172.59 125.17 191.41 132.53 C 201.75 137.40 212.46 143.41 218.43 153.56 C 224.23 161.65 222.69 172.79 218.05 181.04 C 215.53 187.12 210.32 191.32 205.38 195.38 C 199.07 200.68 191.70 204.43 184.53 208.39 C 175.63 211.99 166.87 215.98 157.64 218.68 C 149.82 221.41 141.65 222.84 133.58 224.55 C 122.69 226.08 109.55 224.92 102.16 215.74 C 103.73 212.12 108.04 211.62 111.37 210.52 C 118.06 209.10 124.63 207.23 131.15 205.18 C 149.59 200.68 167.59 194.15 184.40 185.28 C 189.77 181.94 195.97 178.77 198.66 172.68 C 199.73 171.06 198.35 169.56 197.68 168.13 C 198.77 167.13 199.78 166.04 200.82 164.99 C 195.00 159.38 187.55 155.90 180.09 153.04 C 174.87 151.12 169.56 149.44 164.18 148.04 C 165.20 147.65 166.22 147.26 167.23 146.85 C 163.52 144.38 158.67 142.98 154.43 144.97 C 154.89 144.30 155.35 143.63 155.82 142.96 C 153.23 142.06 150.49 142.20 147.83 142.63 C 147.71 142.24 147.46 141.46 147.33 141.07 C 146.46 141.29 145.57 141.47 144.70 141.71 C 144.61 141.31 144.45 140.53 144.37 140.14 C 138.33 138.34 132.23 136.69 126.01 135.64 C 125.59 136.21 124.74 137.35 124.32 137.91 C 120.67 137.19 117.05 136.29 113.38 135.64 C 105.59 134.01 97.78 132.46 89.93 131.13 C 91.64 130.64 93.31 130.03 94.98 129.43 C 89.26 128.31 83.61 126.79 78.13 124.85 C 75.43 124.03 73.82 120.98 74.57 118.29 C 76.69 110.76 82.49 105.25 87.18 99.29 C 94.84 92.42 103.01 86.01 112.02 80.99 Z" />
</g>
<g id="#3c0603ff">
<path fill="#3c0603" opacity="1.00" d=" M 211.64 75.22 C 217.34 74.43 223.15 74.64 228.88 74.95 C 235.73 75.60 242.65 75.69 249.44 76.89 L 249.73 77.42 C 252.29 81.91 254.83 86.48 257.94 90.61 L 258.28 91.05 L 258.33 91.55 L 258.74 91.84 L 258.95 92.78 C 259.12 94.08 259.44 95.67 260.80 96.22 L 260.87 96.51 C 261.26 99.12 262.55 101.43 263.87 103.68 L 264.00 103.92 C 275.27 133.29 275.31 166.64 264.03 196.01 L 263.91 196.27 C 262.00 199.93 260.43 203.75 258.87 207.57 L 258.63 208.17 C 258.54 208.38 258.38 208.81 258.30 209.02 L 257.67 210.13 C 257.57 210.34 257.37 210.77 257.28 210.98 L 256.68 211.64 C 254.98 212.47 253.89 214.21 253.93 216.12 L 253.87 216.63 C 252.41 216.94 251.73 218.44 251.62 219.79 C 251.42 220.17 251.03 220.93 250.83 221.31 C 250.69 221.47 250.42 221.78 250.29 221.94 L 249.87 222.44 C 247.13 225.26 244.98 228.58 242.41 231.54 C 237.92 237.09 232.27 241.54 227.55 246.87 L 226.83 246.98 C 225.38 247.06 223.53 248.09 223.65 249.75 L 223.63 250.29 L 222.12 249.62 C 222.90 248.64 223.68 247.67 224.47 246.69 C 222.04 244.02 220.01 239.75 215.72 240.41 C 220.90 228.42 224.05 215.62 225.72 202.68 C 226.39 197.30 227.09 191.87 226.67 186.44 C 235.18 176.35 237.56 161.12 230.74 149.50 C 235.17 145.22 233.93 138.52 234.16 132.98 C 233.50 125.48 233.99 117.81 231.50 110.60 C 231.52 103.89 228.14 97.97 226.91 91.49 C 224.26 86.90 223.26 81.48 219.62 77.47 C 216.90 76.95 214.23 76.19 211.64 75.22 Z" />
</g>
<g id="#4e0808ff">
<path fill="#4e0808" opacity="1.00" d=" M 184.65 77.87 C 193.62 76.79 202.58 75.27 211.64 75.22 C 214.23 76.19 216.90 76.95 219.62 77.47 C 223.26 81.48 224.26 86.90 226.91 91.49 C 228.14 97.97 231.52 103.89 231.50 110.60 C 233.99 117.81 233.50 125.48 234.16 132.98 C 233.93 138.52 235.17 145.22 230.74 149.50 C 228.62 145.76 225.87 142.44 222.86 139.40 C 222.71 137.64 222.59 135.86 222.00 134.18 C 216.10 116.97 207.34 100.50 194.80 87.19 C 191.67 83.81 187.98 81.04 184.65 77.87 Z" />
</g>
<g id="#873830ff">
<path fill="#873830" opacity="1.00" d=" M 183.39 78.04 L 183.81 77.96 L 184.65 77.87 C 187.98 81.04 191.67 83.81 194.80 87.19 C 207.34 100.50 216.10 116.97 222.00 134.18 C 222.59 135.86 222.71 137.64 222.86 139.40 C 207.35 125.45 187.00 118.99 167.21 113.85 C 156.49 111.08 145.79 108.21 134.98 105.81 C 129.09 104.75 123.31 103.17 117.45 101.99 C 137.35 89.36 160.35 82.34 183.39 78.04 Z" />
</g>
<g id="#743f3bff">
<path fill="#743f3b" opacity="1.00" d=" M 249.73 77.42 C 253.09 81.32 255.80 85.91 257.94 90.61 C 254.83 86.48 252.29 81.91 249.73 77.42 Z" />
<path fill="#743f3b" opacity="1.00" d=" M 644.00 147.78 C 644.78 145.43 645.25 142.69 646.99 140.86 C 646.13 143.00 645.41 145.18 644.68 147.36 C 651.51 147.51 658.34 147.43 665.18 147.42 L 665.33 146.10 C 665.46 146.48 665.73 147.25 665.87 147.63 C 658.58 147.53 651.28 147.32 644.00 147.78 Z" />
<path fill="#743f3b" opacity="1.00" d=" M 242.41 231.54 C 244.98 228.58 247.13 225.26 249.87 222.44 C 244.04 231.80 236.09 239.92 227.55 246.87 C 232.27 241.54 237.92 237.09 242.41 231.54 Z" />
<path fill="#743f3b" opacity="1.00" d=" M 57.11 236.13 C 60.79 237.16 64.62 236.98 68.37 237.51 C 73.54 237.63 78.79 237.87 83.90 236.92 C 85.35 236.90 86.80 236.95 88.25 237.05 C 86.39 237.47 84.53 237.88 82.67 238.29 C 91.69 243.18 101.66 246.01 111.67 248.01 C 115.95 249.87 120.67 248.89 125.16 249.48 C 119.18 251.34 111.75 248.12 106.86 253.28 C 108.08 253.40 109.48 253.15 110.50 254.03 C 108.26 255.75 105.30 255.01 102.70 255.17 C 103.18 257.99 100.26 259.13 98.30 260.37 C 95.97 261.80 93.12 260.89 90.68 260.24 C 86.51 259.18 83.54 255.10 79.00 255.36 C 72.65 251.60 66.90 246.62 61.42 241.61 L 61.21 240.85 C 61.06 239.66 60.39 238.98 59.21 238.80 C 58.74 238.50 57.80 237.91 57.33 237.61 L 57.11 236.13 Z" />
</g>
<g id="#84433aff">
<path fill="#84433a" opacity="1.00" d=" M 43.23 89.53 C 44.05 88.81 44.84 88.05 45.67 87.33 C 47.73 88.91 49.01 91.14 49.45 93.69 C 50.58 93.50 51.69 93.16 52.73 92.66 C 53.08 94.05 53.46 95.43 53.91 96.79 C 54.95 95.85 55.97 94.89 57.01 93.95 C 57.70 95.12 58.41 96.28 59.10 97.46 C 60.30 97.40 61.51 97.32 62.72 97.28 C 64.21 99.95 66.45 102.30 66.99 105.41 C 62.48 111.28 58.96 117.84 56.26 124.72 C 56.70 124.88 57.58 125.22 58.01 125.39 C 56.97 125.82 55.94 126.28 54.91 126.74 C 54.75 126.31 54.42 125.43 54.25 125.00 C 53.64 126.79 53.14 128.61 52.68 130.45 C 51.00 130.42 49.30 130.57 47.65 130.20 C 45.51 128.73 43.87 126.57 41.38 125.61 C 38.29 124.34 36.51 121.36 34.66 118.76 C 32.19 120.59 31.05 116.49 29.53 115.19 C 28.97 116.62 28.40 118.06 27.70 119.44 C 27.29 119.49 26.48 119.61 26.07 119.66 C 26.29 116.12 27.73 112.83 28.70 109.46 C 31.24 102.37 34.02 95.30 37.91 88.83 C 38.03 89.34 38.28 90.37 38.41 90.89 C 39.19 90.06 39.95 89.22 40.73 88.39 C 41.56 88.77 42.39 89.15 43.23 89.53 Z" />
<path fill="#84433a" opacity="1.00" d=" M 305.00 184.61 C 421.22 184.78 537.45 184.64 653.68 184.66 L 653.35 185.50 C 638.70 185.50 624.04 185.29 609.39 185.64 C 599.39 185.51 589.37 185.31 579.38 185.69 C 559.05 185.44 538.71 185.42 518.39 185.64 C 501.74 185.45 485.07 185.31 468.42 185.62 C 453.77 185.35 439.10 185.36 424.44 185.56 C 408.11 185.38 391.76 185.28 375.43 185.51 C 351.95 185.31 328.47 185.23 304.99 185.42 L 305.00 184.61 Z" />
</g>
<g id="#2a2a2a84">
<path fill="#2a2a2a" opacity="0.52" d=" M 465.34 88.01 C 471.20 87.68 477.11 87.76 482.98 87.99 C 485.35 93.41 487.74 98.85 489.97 104.33 L 489.78 105.68 C 487.34 100.15 484.82 94.64 482.70 88.98 C 477.16 88.38 471.56 88.76 466.00 88.76 C 465.12 90.78 464.12 92.75 463.21 94.75 C 462.67 92.28 464.71 90.28 465.34 88.01 Z" />
</g>
<g id="#3a3a3a91">
<path fill="#3a3a3a" opacity="0.57" d=" M 544.10 88.49 C 552.91 86.39 562.01 87.12 570.99 87.00 C 576.69 86.89 582.51 87.42 587.92 89.34 L 588.59 90.04 C 577.96 86.91 566.86 88.29 555.97 87.99 C 550.69 87.72 545.57 89.16 540.44 90.14 C 541.15 88.82 542.86 88.95 544.10 88.49 Z" />
</g>
<g id="#2a29298a">
<path fill="#2a2929" opacity="0.54" d=" M 646.10 88.00 C 651.99 87.74 657.94 87.72 663.84 88.01 C 664.53 90.91 667.03 93.48 666.70 96.48 C 665.42 93.93 664.32 91.30 663.08 88.74 C 657.59 89.06 651.77 88.02 646.50 89.26 C 643.39 96.34 640.58 103.56 637.27 110.55 L 637.07 109.34 C 639.98 102.19 643.17 95.15 646.10 88.00 Z" />
</g>
<g id="#383737ab">
<path fill="#383737" opacity="0.67" d=" M 287.31 87.91 C 294.89 87.81 302.47 87.91 310.05 87.85 C 311.48 87.53 313.46 88.36 312.95 90.16 C 311.05 88.35 308.37 88.97 306.00 88.89 C 300.06 88.95 294.12 88.87 288.17 88.93 C 289.40 91.29 290.43 93.74 291.22 96.29 C 289.02 94.26 288.28 90.77 287.31 87.91 Z" />
</g>
<g id="#353535a5">
<path fill="#353535" opacity="0.65" d=" M 346.21 103.20 C 348.14 98.11 349.94 92.97 351.98 87.92 C 360.30 87.99 368.69 87.48 376.96 88.18 C 375.84 90.13 375.89 93.58 373.81 94.38 C 374.39 92.53 375.06 90.70 375.84 88.92 C 368.01 88.91 360.17 88.78 352.33 88.98 C 349.97 95.14 348.07 101.49 345.27 107.46 C 344.75 105.95 345.80 104.59 346.21 103.20 Z" />
<path fill="#353535" opacity="0.65" d=" M 342.30 115.56 C 342.08 112.97 343.37 109.70 345.09 107.87 C 344.54 110.56 343.48 113.09 342.30 115.56 Z" />
</g>
<g id="#3f3f3f8f">
<path fill="#3f3f3f" opacity="0.56" d=" M 390.97 87.84 C 399.26 87.78 407.55 87.73 415.84 87.87 C 416.00 116.18 415.99 144.50 415.84 172.82 L 414.88 172.74 C 415.16 144.69 414.92 116.64 415.00 88.59 C 406.97 88.55 398.94 88.41 390.91 88.68 L 390.97 87.84 Z" />
</g>
<g id="#050607ff">
<path fill="#050607" opacity="1.00" d=" M 540.44 90.14 C 545.57 89.16 550.69 87.72 555.97 87.99 C 566.86 88.29 577.96 86.91 588.59 90.04 L 588.86 90.18 C 589.83 91.08 591.00 91.71 592.29 92.02 L 592.57 92.12 C 598.28 96.45 601.61 103.28 602.40 110.32 C 597.23 110.97 592.01 110.76 586.86 111.56 C 584.88 111.72 582.72 112.32 580.87 111.31 L 580.92 110.09 C 581.16 108.34 579.33 107.16 577.85 106.81 L 577.60 106.74 C 571.21 105.32 564.52 106.50 558.01 106.08 C 554.49 105.75 549.62 106.82 548.97 110.95 C 548.76 114.07 548.01 118.01 550.65 120.34 C 552.01 121.83 554.11 122.03 556.01 122.04 C 567.36 122.30 578.77 121.43 590.06 122.96 L 590.24 122.98 C 594.04 124.94 598.42 126.63 600.41 130.74 C 601.83 132.65 601.42 135.33 602.76 137.21 L 603.08 137.93 C 602.75 143.40 603.20 148.90 602.75 154.36 L 602.72 154.71 C 601.82 160.72 598.05 165.94 592.65 168.72 L 592.34 168.83 C 586.76 170.69 581.01 172.28 575.08 172.16 C 566.21 171.93 557.34 172.42 548.49 171.91 C 548.27 171.88 547.83 171.81 547.62 171.78 C 543.86 170.79 540.22 169.40 536.75 167.65 C 536.60 167.52 536.29 167.25 536.13 167.12 C 533.07 164.11 530.70 160.53 529.06 156.57 L 528.95 156.28 C 528.40 153.88 528.01 151.46 527.65 149.03 C 534.82 148.42 542.03 148.37 549.21 147.81 L 548.98 149.10 C 549.17 149.61 549.57 150.62 549.77 151.13 C 550.01 151.37 550.49 151.86 550.73 152.10 C 552.23 153.95 554.80 153.99 556.99 153.98 C 562.67 153.91 568.34 153.98 574.02 153.96 C 576.99 154.04 580.52 152.43 581.07 149.21 C 581.59 145.47 581.96 140.25 577.73 138.51 C 563.38 137.13 548.16 140.45 534.47 134.79 L 534.29 134.68 C 529.69 131.26 527.25 125.65 527.32 119.98 C 527.51 113.15 526.52 106.09 529.03 99.55 L 529.06 99.50 C 531.50 95.05 535.77 92.15 540.32 90.18 L 540.44 90.14 Z" />
<path fill="#050607" opacity="1.00" d=" M 288.17 88.93 C 294.12 88.87 300.06 88.95 306.00 88.89 C 308.37 88.97 311.05 88.35 312.95 90.16 L 313.01 90.65 C 313.24 93.54 314.78 96.06 315.82 98.70 L 315.88 98.87 C 316.67 101.36 317.05 104.12 318.73 106.21 L 319.04 106.94 C 320.29 112.34 322.61 117.49 324.73 122.62 L 324.77 122.76 C 326.52 128.96 329.26 134.81 331.20 140.95 C 331.60 141.20 332.39 141.70 332.78 141.95 C 332.83 141.59 332.91 140.87 332.95 140.51 L 333.16 139.90 C 334.39 137.33 335.54 134.71 336.15 131.92 L 336.20 131.79 C 337.36 129.18 338.43 126.53 339.15 123.76 L 339.19 123.67 C 340.32 121.16 341.38 118.62 342.15 115.97 L 342.30 115.56 C 343.48 113.09 344.54 110.56 345.09 107.87 L 345.27 107.46 C 348.07 101.49 349.97 95.14 352.33 88.98 C 360.17 88.78 368.01 88.91 375.84 88.92 C 375.06 90.70 374.39 92.53 373.81 94.38 L 373.81 94.39 C 372.67 96.60 371.64 98.86 370.82 101.21 L 370.80 101.26 C 369.68 103.43 368.52 105.59 367.92 107.97 L 367.80 108.28 C 365.91 112.28 364.00 116.29 362.77 120.54 L 362.60 121.07 C 362.52 121.27 362.36 121.66 362.28 121.86 L 362.06 122.23 C 360.59 124.27 359.54 126.56 358.93 129.00 L 358.82 129.31 C 357.61 131.61 356.26 133.89 355.85 136.50 L 355.78 136.79 C 354.29 137.51 353.93 139.32 353.92 140.83 L 353.88 141.18 C 352.62 143.53 351.40 145.93 350.80 148.55 L 350.62 149.08 C 350.55 149.27 350.40 149.64 350.33 149.82 L 350.10 150.22 C 347.73 153.90 346.12 158.04 344.89 162.22 L 344.81 162.40 C 343.58 164.63 342.45 166.93 341.84 169.41 L 341.84 169.44 C 341.13 170.43 340.73 172.38 339.13 172.10 C 334.08 172.17 329.03 172.14 323.98 172.07 C 323.03 170.28 322.32 168.37 321.24 166.66 L 321.04 166.21 C 320.57 163.80 319.46 161.62 318.31 159.48 L 318.19 159.19 C 316.39 154.47 314.41 149.81 312.18 145.27 L 312.09 145.05 C 311.17 143.00 311.07 140.26 309.18 138.84 L 308.98 138.07 C 308.80 136.67 308.22 135.37 307.64 134.11 C 304.10 126.25 301.02 118.19 297.30 110.42 L 297.27 110.34 C 295.64 105.52 293.58 100.85 291.24 96.33 L 291.22 96.29 C 290.43 93.74 289.40 91.29 288.17 88.93 Z" />
<path fill="#050607" opacity="1.00" d=" M 390.91 88.68 C 398.94 88.41 406.97 88.55 415.00 88.59 C 414.92 116.64 415.16 144.69 414.88 172.74 C 406.96 172.62 399.04 172.71 391.12 172.69 C 390.66 144.70 391.07 116.68 390.91 88.68 Z" />
<path fill="#050607" opacity="1.00" d=" M 466.00 88.76 C 471.56 88.76 477.16 88.38 482.70 88.98 C 484.82 94.64 487.34 100.15 489.78 105.68 L 489.82 105.79 C 490.69 107.97 491.08 110.46 492.73 112.24 L 493.04 113.03 C 493.51 116.19 495.42 118.91 496.77 121.76 L 496.78 121.78 C 500.67 132.60 505.82 142.93 510.03 153.63 C 510.21 153.78 510.58 154.07 510.76 154.22 L 511.06 155.03 C 511.53 158.21 513.49 160.92 514.84 163.78 L 514.90 164.19 C 515.00 165.63 515.21 167.60 516.78 168.18 L 516.85 168.56 C 517.08 169.43 517.53 171.18 517.76 172.05 C 509.97 171.99 502.19 172.12 494.40 171.99 C 493.87 170.04 493.13 168.16 492.25 166.35 L 492.20 166.24 C 491.78 165.14 491.39 164.03 491.01 162.93 C 480.33 162.95 469.64 162.89 458.96 162.95 C 457.31 162.61 456.96 164.40 456.48 165.51 C 455.63 167.70 454.84 169.91 454.04 172.12 C 446.21 172.44 438.36 172.22 430.53 172.23 C 430.68 171.57 430.99 170.24 431.14 169.57 L 431.14 169.57 C 432.54 167.44 433.56 165.09 434.18 162.61 L 434.19 162.59 C 436.40 158.09 438.55 153.51 440.10 148.74 L 440.27 148.49 C 441.53 146.29 442.70 144.01 443.14 141.48 L 443.21 141.18 C 444.73 140.47 445.00 138.61 445.09 137.12 L 445.15 136.80 C 446.76 133.84 448.24 130.78 449.14 127.52 L 449.24 127.22 C 450.61 126.41 451.23 124.62 450.99 123.08 L 450.97 122.83 C 452.55 120.70 453.48 118.21 454.21 115.68 L 454.25 115.61 C 455.50 113.42 456.65 111.14 457.16 108.64 L 457.18 108.59 C 458.34 106.42 459.40 104.19 460.19 101.86 L 460.29 101.60 C 461.48 99.50 462.47 97.29 463.12 94.96 L 463.21 94.75 C 464.12 92.75 465.12 90.78 466.00 88.76 M 473.79 119.31 C 472.71 123.08 470.55 126.63 470.11 130.50 L 470.03 130.90 C 468.25 130.59 467.41 134.02 468.32 135.27 L 468.12 136.16 L 467.26 136.26 C 467.25 136.73 467.21 137.67 467.20 138.14 L 467.07 139.11 L 466.20 139.23 L 465.74 140.25 L 466.19 141.10 L 466.02 141.85 C 464.30 141.58 463.44 144.94 464.25 146.21 L 463.97 147.11 C 470.48 147.87 477.29 147.20 483.92 147.44 C 486.11 149.23 485.11 142.59 483.08 143.02 L 482.77 142.17 C 482.78 141.69 482.78 140.74 482.78 140.26 L 481.93 140.15 L 481.68 139.22 C 482.61 137.99 481.71 134.46 479.92 134.96 L 479.83 134.70 C 480.19 131.91 478.23 129.50 477.64 126.84 L 476.89 126.57 L 476.80 126.23 C 476.82 123.78 475.46 121.56 474.60 119.32 C 474.39 119.32 473.99 119.32 473.79 119.31 Z" />
<path fill="#050607" opacity="1.00" d=" M 646.50 89.26 C 651.77 88.02 657.59 89.06 663.08 88.74 C 664.32 91.30 665.42 93.93 666.70 96.48 L 666.81 96.74 C 667.48 99.22 668.54 101.56 669.79 103.80 L 669.89 104.04 C 670.51 106.43 671.63 108.64 672.80 110.81 L 672.82 110.84 C 673.49 113.25 674.56 115.52 675.78 117.71 L 675.82 117.82 C 676.53 120.18 677.30 122.57 678.90 124.50 L 678.82 124.89 C 679.46 127.30 680.80 129.44 681.78 131.72 L 681.80 131.75 C 682.56 134.14 683.62 136.41 684.80 138.62 L 684.83 138.68 C 685.43 141.17 686.51 143.48 687.75 145.71 L 687.76 145.73 C 689.12 149.85 690.96 153.78 692.79 157.70 L 692.84 157.80 C 694.69 162.66 696.71 167.46 699.01 172.13 C 691.09 172.13 683.16 172.30 675.24 172.04 C 674.15 169.03 673.07 166.00 671.95 163.00 C 660.71 162.85 649.48 162.86 638.25 162.99 C 637.03 165.99 635.91 169.02 634.79 172.05 C 626.91 172.30 619.03 172.12 611.16 172.14 C 611.89 170.38 612.55 168.59 613.15 166.77 L 613.18 166.71 C 614.40 164.55 615.49 162.32 616.15 159.92 L 616.21 159.77 C 617.44 157.54 618.51 155.22 619.19 152.75 L 619.22 152.70 C 620.44 150.56 621.44 148.30 622.16 145.93 L 622.22 145.79 C 624.49 141.25 626.59 136.60 628.22 131.79 L 628.25 131.71 C 629.43 129.48 630.48 127.19 631.23 124.78 L 631.26 124.71 C 633.44 120.12 635.58 115.49 637.22 110.67 L 637.27 110.55 C 640.58 103.56 643.39 96.34 646.50 89.26 M 654.05 121.10 L 654.10 122.09 L 653.21 122.25 L 652.81 123.27 L 653.31 124.09 L 653.16 124.55 L 652.41 125.06 C 650.70 130.25 647.91 135.22 647.10 140.63 L 646.99 140.86 C 645.25 142.69 644.78 145.43 644.00 147.78 C 651.28 147.32 658.58 147.53 665.87 147.63 C 665.73 147.25 665.46 146.48 665.33 146.10 L 665.01 145.62 C 664.48 142.85 663.83 139.54 661.78 137.55 L 661.65 137.17 C 662.62 135.97 661.75 132.43 659.96 132.92 L 659.94 132.83 C 659.70 130.00 658.85 126.48 656.83 124.53 L 656.68 124.17 L 657.19 123.32 L 656.81 122.27 L 655.94 122.12 L 655.96 121.02 C 657.42 118.54 652.59 118.66 654.05 121.10 Z" />
<path fill="#050607" opacity="1.00" d=" M 693.07 88.94 C 720.71 88.80 748.35 88.88 775.99 88.90 C 776.00 95.26 776.00 101.63 775.99 107.99 C 766.03 108.13 756.06 107.75 746.11 108.19 C 746.11 108.69 746.11 109.69 746.11 110.19 C 746.34 130.83 746.15 151.47 746.21 172.10 C 738.47 172.22 730.74 172.18 723.01 172.13 C 722.96 151.08 723.06 130.04 722.96 109.00 L 722.88 108.09 C 712.94 107.88 702.99 108.07 693.05 107.99 C 693.16 101.64 693.13 95.29 693.07 88.94 Z" />
</g>
<g id="#3f3f3faf">
<path fill="#3f3f3f" opacity="0.69" d=" M 692.36 88.17 C 695.52 87.55 698.78 88.00 701.99 87.87 C 726.93 87.96 751.89 87.70 776.83 88.00 C 777.05 94.94 776.95 101.90 776.88 108.84 C 767.02 109.28 757.13 108.76 747.27 109.10 L 746.71 109.60 L 746.11 110.19 C 746.11 109.69 746.11 108.69 746.11 108.19 C 756.06 107.75 766.03 108.13 775.99 107.99 C 776.00 101.63 776.00 95.26 775.99 88.90 C 748.35 88.88 720.71 88.80 693.07 88.94 C 693.13 95.29 693.16 101.64 693.05 107.99 C 702.99 108.07 712.94 107.88 722.88 108.09 L 722.96 109.00 L 722.26 109.00 C 712.30 108.86 702.32 109.28 692.38 108.79 C 692.32 101.92 692.37 95.04 692.36 88.17 Z" />
</g>
<g id="#30303067">
<path fill="#303030" opacity="0.40" d=" M 588.86 90.18 C 589.99 89.10 592.83 90.42 592.29 92.02 C 591.00 91.71 589.83 91.08 588.86 90.18 Z" />
</g>
<g id="#5b4c4a8f">
<path fill="#5b4c4a" opacity="0.56" d=" M 258.28 91.05 C 258.39 91.25 258.62 91.65 258.74 91.84 L 258.33 91.55 L 258.28 91.05 Z" />
</g>
<g id="#3736378d">
<path fill="#373637" opacity="0.55" d=" M 313.01 90.65 L 313.79 90.59 C 314.04 93.42 316.29 95.83 315.82 98.70 C 314.78 96.06 313.24 93.54 313.01 90.65 Z" />
</g>
<g id="#4c373595">
<path fill="#4c3735" opacity="0.58" d=" M 258.95 92.78 C 260.42 92.36 261.36 95.08 260.80 96.22 C 259.44 95.67 259.12 94.08 258.95 92.78 Z" />
</g>
<g id="#3030308d">
<path fill="#303030" opacity="0.55" d=" M 370.82 101.21 C 371.64 98.86 372.67 96.60 373.81 94.39 C 374.15 96.91 372.08 98.98 371.78 101.46 L 370.82 101.21 Z" />
</g>
<g id="#343434a0">
<path fill="#343434" opacity="0.63" d=" M 462.42 94.72 L 463.12 94.96 C 462.47 97.29 461.48 99.50 460.29 101.60 C 459.91 99.13 461.90 97.06 462.42 94.72 Z" />
</g>
<g id="#4b3331ac">
<path fill="#4b3331" opacity="0.67" d=" M 260.87 96.51 C 262.63 98.31 263.68 101.16 263.87 103.68 C 262.55 101.43 261.26 99.12 260.87 96.51 Z" />
</g>
<g id="#303030af">
<path fill="#303030" opacity="0.69" d=" M 291.24 96.33 C 293.58 100.85 295.64 105.52 297.27 110.34 L 296.42 110.25 C 294.80 105.99 292.93 101.82 291.11 97.64 L 291.24 96.33 Z" />
</g>
<g id="#343434a2">
<path fill="#343434" opacity="0.64" d=" M 666.81 96.74 L 667.60 96.91 C 668.33 99.19 670.05 101.31 669.79 103.80 C 668.54 101.56 667.48 99.22 666.81 96.74 Z" />
</g>
<g id="#363535a7">
<path fill="#363535" opacity="0.65" d=" M 315.88 98.87 C 317.32 99.21 317.13 101.11 317.78 102.16 C 318.15 103.52 319.56 104.72 318.73 106.21 C 317.05 104.12 316.67 101.36 315.88 98.87 Z" />
</g>
<g id="#323131b0">
<path fill="#323131" opacity="0.69" d=" M 367.92 107.97 C 368.52 105.59 369.68 103.43 370.80 101.26 C 371.18 103.88 369.06 106.03 368.57 108.52 L 367.92 107.97 Z" />
</g>
<g id="#3030307e">
<path fill="#303030" opacity="0.49" d=" M 459.33 101.85 L 460.19 101.86 C 459.40 104.19 458.34 106.42 457.18 108.59 C 456.89 106.15 458.77 104.14 459.33 101.85 Z" />
</g>
<g id="#343333a2">
<path fill="#343333" opacity="0.64" d=" M 669.89 104.04 L 670.51 103.59 C 671.00 106.09 673.18 108.18 672.80 110.81 C 671.63 108.64 670.51 106.43 669.89 104.04 Z" />
</g>
<g id="#b5b8b7ff">
<path fill="#b5b8b7" opacity="1.00" d=" M 132.92 107.63 C 133.61 107.03 134.30 106.42 134.98 105.81 C 145.79 108.21 156.49 111.08 167.21 113.85 C 187.00 118.99 207.35 125.45 222.86 139.40 C 225.87 142.44 228.62 145.76 230.74 149.50 C 237.56 161.12 235.18 176.35 226.67 186.44 C 224.27 189.27 221.76 192.04 218.81 194.32 C 218.68 193.78 218.42 192.71 218.29 192.17 C 227.36 181.87 231.65 166.66 226.22 153.62 C 223.96 146.67 218.18 141.86 213.01 137.06 C 201.45 128.49 187.91 122.89 174.08 119.18 C 162.45 115.15 150.30 113.11 138.53 109.60 C 136.73 108.71 135.05 107.42 132.92 107.63 Z" />
</g>
<g id="#313131ac">
<path fill="#313131" opacity="0.67" d=" M 489.82 105.79 L 490.58 105.53 C 491.22 106.84 491.15 108.90 492.78 109.50 C 492.77 110.19 492.74 111.55 492.73 112.24 C 491.08 110.46 490.69 107.97 489.82 105.79 Z" />
</g>
<g id="#3231329d">
<path fill="#323132" opacity="0.62" d=" M 319.04 106.94 C 321.09 108.54 320.85 111.77 322.16 113.95 C 322.95 116.84 325.13 119.56 324.73 122.62 C 322.61 117.49 320.29 112.34 319.04 106.94 Z" />
</g>
<g id="#302f2f74">
<path fill="#302f2f" opacity="0.45" d=" M 577.85 106.81 C 579.33 107.16 581.16 108.34 580.92 110.09 C 579.67 109.99 577.50 108.19 577.85 106.81 Z" />
</g>
<g id="#32313195">
<path fill="#323131" opacity="0.58" d=" M 362.77 120.54 C 364.00 116.29 365.91 112.28 367.80 108.28 C 368.32 110.39 366.70 112.18 366.09 114.09 C 364.92 116.20 364.64 118.92 362.77 120.54 Z" />
</g>
<g id="#3535359f">
<path fill="#353535" opacity="0.62" d=" M 454.25 115.61 C 454.31 113.17 455.36 110.30 457.16 108.64 C 456.65 111.14 455.50 113.42 454.25 115.61 Z" />
</g>
<g id="#2a2a2a68">
<path fill="#2a2a2a" opacity="0.41" d=" M 722.26 109.00 L 722.96 109.00 C 723.06 130.04 722.96 151.08 723.01 172.13 C 730.74 172.18 738.47 172.22 746.21 172.10 C 746.15 151.47 746.34 130.83 746.11 110.19 L 746.71 109.60 C 747.30 123.03 746.78 136.53 746.95 149.99 C 746.84 157.63 747.18 165.29 746.77 172.93 C 738.62 172.93 730.41 173.30 722.28 172.74 C 722.14 151.50 722.02 130.24 722.26 109.00 Z" />
</g>
<g id="#3030309d">
<path fill="#303030" opacity="0.62" d=" M 297.30 110.42 C 301.02 118.19 304.10 126.25 307.64 134.11 C 308.22 135.37 308.80 136.67 308.98 138.07 C 307.75 137.60 307.61 136.04 307.08 135.03 C 303.79 127.21 300.34 119.46 297.11 111.62 L 297.30 110.42 Z" />
</g>
<g id="#313131a7">
<path fill="#313131" opacity="0.65" d=" M 636.37 110.74 L 637.22 110.67 C 635.58 115.49 633.44 120.12 631.26 124.71 L 631.09 123.30 C 632.94 119.15 634.74 114.98 636.37 110.74 Z" />
</g>
<g id="#3333339d">
<path fill="#333333" opacity="0.62" d=" M 672.82 110.84 C 674.69 112.32 675.73 115.31 675.78 117.71 C 674.56 115.52 673.49 113.25 672.82 110.84 Z" />
</g>
<g id="#313131a1">
<path fill="#313131" opacity="0.63" d=" M 493.04 113.03 C 493.29 112.94 493.78 112.74 494.03 112.65 C 494.02 115.97 496.95 118.49 496.77 121.76 C 495.42 118.91 493.51 116.19 493.04 113.03 Z" />
</g>
<g id="#824a42ff">
<path fill="#824a42" opacity="1.00" d=" M 29.53 115.19 C 31.05 116.49 32.19 120.59 34.66 118.76 C 36.51 121.36 38.29 124.34 41.38 125.61 C 43.87 126.57 45.51 128.73 47.65 130.20 C 49.30 130.57 51.00 130.42 52.68 130.45 C 53.14 128.61 53.64 126.79 54.25 125.00 C 54.42 125.43 54.75 126.31 54.91 126.74 C 54.91 127.39 54.89 128.69 54.88 129.34 C 49.56 153.61 53.06 179.50 63.03 202.13 C 64.09 202.40 65.14 202.66 66.20 202.91 C 64.85 202.82 63.51 202.75 62.17 202.69 C 54.77 201.39 47.37 199.81 40.45 196.80 C 32.01 191.62 27.33 182.23 25.10 172.88 C 20.34 155.51 21.96 137.14 25.46 119.74 L 26.07 119.66 C 26.48 119.61 27.29 119.49 27.70 119.44 C 28.40 118.06 28.97 116.62 29.53 115.19 Z" />
</g>
<g id="#34343487">
<path fill="#343434" opacity="0.53" d=" M 341.30 115.59 L 342.15 115.97 C 341.38 118.62 340.32 121.16 339.19 123.67 C 338.69 120.78 341.06 118.42 341.30 115.59 Z" />
</g>
<g id="#3333339f">
<path fill="#333333" opacity="0.62" d=" M 450.97 122.83 C 451.50 120.37 452.23 117.24 454.21 115.68 C 453.48 118.21 452.55 120.70 450.97 122.83 Z" />
</g>
<g id="#353535a1">
<path fill="#353535" opacity="0.63" d=" M 675.82 117.82 L 676.61 117.70 C 677.18 120.03 678.83 122.05 678.90 124.50 C 677.30 122.57 676.53 120.18 675.82 117.82 Z" />
</g>
<g id="#525151da">
<path fill="#525151" opacity="0.85" d=" M 654.05 121.10 C 652.59 118.66 657.42 118.54 655.96 121.02 C 655.48 121.04 654.53 121.08 654.05 121.10 Z" />
</g>
<g id="#4c4b4b87">
<path fill="#4c4b4b" opacity="0.53" d=" M 362.28 121.86 C 362.36 121.66 362.52 121.27 362.60 121.07 C 362.52 121.27 362.36 121.66 362.28 121.86 Z" />
</g>
<g id="#2f2e2ea2">
<path fill="#2f2e2e" opacity="0.64" d=" M 496.78 121.78 C 498.71 123.21 498.95 125.93 500.03 127.97 C 503.76 136.26 506.89 144.87 511.05 152.94 C 510.98 153.26 510.83 153.90 510.76 154.22 C 510.58 154.07 510.21 153.78 510.03 153.63 C 505.82 142.93 500.67 132.60 496.78 121.78 Z" />
</g>
<g id="#3e3d3d95">
<path fill="#3e3d3d" opacity="0.58" d=" M 653.21 122.25 L 654.10 122.09 C 653.91 122.59 653.51 123.59 653.31 124.09 L 652.81 123.27 L 653.21 122.25 Z" />
</g>
<g id="#3b3b3b84">
<path fill="#3b3b3b" opacity="0.52" d=" M 655.94 122.12 L 656.81 122.27 L 657.19 123.32 L 656.68 124.17 C 656.50 123.66 656.13 122.64 655.94 122.12 Z" />
</g>
<g id="#343333ab">
<path fill="#343333" opacity="0.67" d=" M 324.77 122.76 L 325.51 122.94 C 327.40 127.93 329.25 132.94 331.05 137.96 C 331.40 139.00 332.04 139.85 332.95 140.51 C 332.91 140.87 332.83 141.59 332.78 141.95 C 332.39 141.70 331.60 141.20 331.20 140.95 C 329.26 134.81 326.52 128.96 324.77 122.76 Z" />
</g>
<g id="#333333b1">
<path fill="#333333" opacity="0.69" d=" M 358.93 129.00 C 359.54 126.56 360.59 124.27 362.06 122.23 C 361.88 124.81 360.30 126.98 359.58 129.42 L 358.93 129.00 Z" />
</g>
<g id="#363636a1">
<path fill="#363636" opacity="0.63" d=" M 449.24 127.22 C 448.57 126.01 449.50 123.06 450.99 123.08 C 451.23 124.62 450.61 126.41 449.24 127.22 Z" />
</g>
<g id="#2c2c2c9f">
<path fill="#2c2c2c" opacity="0.62" d=" M 590.24 122.98 C 594.16 122.99 597.74 125.86 600.14 128.81 C 601.53 131.37 603.79 134.09 602.76 137.21 C 601.42 135.33 601.83 132.65 600.41 130.74 C 598.42 126.63 594.04 124.94 590.24 122.98 Z" />
</g>
<g id="#36363685">
<path fill="#363636" opacity="0.52" d=" M 338.24 123.68 L 339.15 123.76 C 338.43 126.53 337.36 129.18 336.20 131.79 C 335.74 128.91 337.90 126.48 338.24 123.68 Z" />
</g>
<g id="#333232a5">
<path fill="#333232" opacity="0.65" d=" M 630.39 124.56 L 631.23 124.78 C 630.48 127.19 629.43 129.48 628.25 131.71 C 627.87 129.13 629.97 127.03 630.39 124.56 Z" />
</g>
<g id="#2b2a2a88">
<path fill="#2b2a2a" opacity="0.53" d=" M 652.41 125.06 L 653.16 124.55 C 651.48 130.02 649.59 135.48 647.10 140.63 C 647.91 135.22 650.70 130.25 652.41 125.06 Z" />
</g>
<g id="#2d2d2d78">
<path fill="#2d2d2d" opacity="0.47" d=" M 656.83 124.53 C 658.85 126.48 659.70 130.00 659.94 132.83 C 658.57 130.19 657.59 127.39 656.83 124.53 Z" />
</g>
<g id="#3030317f">
<path fill="#303031" opacity="0.50" d=" M 678.82 124.89 C 680.76 126.02 681.77 129.46 681.78 131.72 C 680.80 129.44 679.46 127.30 678.82 124.89 Z" />
</g>
<g id="#74191aff">
<path fill="#74191a" opacity="1.00" d=" M 54.91 126.74 C 55.94 126.28 56.97 125.82 58.01 125.39 C 59.58 125.70 61.15 125.96 62.72 126.26 C 64.76 126.60 66.79 127.00 68.83 127.32 C 75.89 128.47 82.88 129.95 89.93 131.13 C 97.78 132.46 105.59 134.01 113.38 135.64 C 111.86 137.61 109.42 136.73 107.35 136.54 C 106.53 138.35 105.78 140.19 105.06 142.05 C 105.67 142.31 106.27 142.59 106.88 142.86 C 106.99 145.56 106.35 148.30 106.85 150.97 C 108.07 154.17 110.70 156.69 111.38 160.15 C 111.69 160.32 112.29 160.67 112.59 160.84 C 113.05 163.02 114.24 164.82 116.15 165.99 C 119.13 168.04 120.04 172.49 123.87 173.28 C 126.86 173.88 127.74 177.44 130.54 178.39 C 132.87 179.08 135.32 180.68 137.83 179.88 C 140.12 179.24 142.29 181.10 144.62 180.64 C 148.08 180.20 151.47 179.27 154.97 179.10 C 159.24 179.14 162.63 176.14 166.04 173.97 C 169.01 170.96 171.79 167.75 174.93 164.90 C 176.74 163.53 175.45 160.70 177.21 159.34 C 179.24 157.87 179.35 155.23 180.09 153.04 C 187.55 155.90 195.00 159.38 200.82 164.99 C 199.78 166.04 198.77 167.13 197.68 168.13 C 194.91 170.44 191.99 172.58 188.88 174.41 C 171.58 184.41 152.46 190.81 133.18 195.75 C 123.69 198.16 114.06 200.04 104.37 201.41 C 102.59 199.07 99.49 200.05 96.99 199.89 C 93.16 200.10 88.73 198.73 86.72 195.23 C 85.26 192.97 82.17 192.62 80.60 190.43 C 77.40 186.00 73.26 182.40 69.85 178.15 C 68.94 175.89 67.41 174.00 65.94 172.09 C 64.00 168.13 62.12 164.01 61.69 159.55 C 61.15 159.24 60.06 158.61 59.51 158.30 C 58.76 154.88 57.99 151.46 56.93 148.11 C 56.02 145.50 56.92 142.67 55.98 140.05 C 54.65 136.50 57.69 132.50 54.88 129.34 C 54.89 128.69 54.91 127.39 54.91 126.74 Z" />
</g>
<g id="#2f2f2f7b">
<path fill="#2f2f2f" opacity="0.48" d=" M 476.89 126.57 L 477.64 126.84 C 478.23 129.50 480.19 131.91 479.83 134.70 C 478.61 132.08 477.45 129.42 476.89 126.57 Z" />
<path fill="#2f2f2f" opacity="0.48" d=" M 681.80 131.75 L 682.66 131.82 C 683.29 134.10 685.10 136.17 684.80 138.62 C 683.62 136.41 682.56 134.14 681.80 131.75 Z" />
</g>
<g id="#2f2f2f95">
<path fill="#2f2f2f" opacity="0.58" d=" M 448.28 127.86 L 449.14 127.52 C 448.24 130.78 446.76 133.84 445.15 136.80 C 445.18 133.57 447.36 130.89 448.28 127.86 Z" />
</g>
<g id="#651618ff">
<path fill="#651618" opacity="1.00" d=" M 63.03 202.13 C 53.06 179.50 49.56 153.61 54.88 129.34 C 57.69 132.50 54.65 136.50 55.98 140.05 C 56.92 142.67 56.02 145.50 56.93 148.11 C 57.99 151.46 58.76 154.88 59.51 158.30 C 60.06 158.61 61.15 159.24 61.69 159.55 C 62.12 164.01 64.00 168.13 65.94 172.09 C 67.41 174.00 68.94 175.89 69.85 178.15 C 73.26 182.40 77.40 186.00 80.60 190.43 C 82.17 192.62 85.26 192.97 86.72 195.23 C 88.73 198.73 93.16 200.10 96.99 199.89 C 99.49 200.05 102.59 199.07 104.37 201.41 C 97.54 202.30 90.68 203.23 83.78 203.40 C 79.83 203.42 75.88 203.50 71.94 203.34 C 70.02 203.27 68.10 203.12 66.20 202.91 C 65.14 202.66 64.09 202.40 63.03 202.13 Z" />
</g>
<g id="#323131ad">
<path fill="#323131" opacity="0.68" d=" M 355.85 136.50 C 356.26 133.89 357.61 131.61 358.82 129.31 C 358.64 131.73 357.66 135.04 355.85 136.50 Z" />
</g>
<g id="#2e2e2ea5">
<path fill="#2e2e2e" opacity="0.65" d=" M 468.32 135.27 C 467.41 134.02 468.25 130.59 470.03 130.90 C 469.87 132.49 469.34 134.03 468.32 135.27 Z" />
</g>
<g id="#3434349a">
<path fill="#343434" opacity="0.60" d=" M 335.43 131.77 L 336.15 131.92 C 335.54 134.71 334.39 137.33 333.16 139.90 C 332.80 137.01 334.94 134.56 335.43 131.77 Z" />
</g>
<g id="#2f2f2fb2">
<path fill="#2f2f2f" opacity="0.70" d=" M 627.45 131.62 L 628.22 131.79 C 626.59 136.60 624.49 141.25 622.22 145.79 C 622.72 140.86 626.08 136.45 627.45 131.62 Z" />
</g>
<g id="#2d2d2d96">
<path fill="#2d2d2d" opacity="0.59" d=" M 659.96 132.92 C 661.75 132.43 662.62 135.97 661.65 137.17 C 660.74 135.91 660.04 134.49 659.96 132.92 Z" />
</g>
<g id="#2c2b2ca0">
<path fill="#2c2b2c" opacity="0.63" d=" M 479.92 134.96 C 481.71 134.46 482.61 137.99 481.68 139.22 C 480.68 137.99 480.12 136.51 479.92 134.96 Z" />
</g>
<g id="#841c1dff">
<path fill="#841c1d" opacity="1.00" d=" M 107.35 136.54 C 109.42 136.73 111.86 137.61 113.38 135.64 C 117.05 136.29 120.67 137.19 124.32 137.91 C 137.65 141.12 150.95 144.45 164.18 148.04 C 169.56 149.44 174.87 151.12 180.09 153.04 C 179.35 155.23 179.24 157.87 177.21 159.34 C 175.45 160.70 176.74 163.53 174.93 164.90 C 171.79 167.75 169.01 170.96 166.04 173.97 C 162.63 176.14 159.24 179.14 154.97 179.10 C 151.47 179.27 148.08 180.20 144.62 180.64 C 142.29 181.10 140.12 179.24 137.83 179.88 C 135.32 180.68 132.87 179.08 130.54 178.39 C 127.74 177.44 126.86 173.88 123.87 173.28 C 120.04 172.49 119.13 168.04 116.15 165.99 C 114.24 164.82 113.05 163.02 112.59 160.84 C 112.29 160.67 111.69 160.32 111.38 160.15 C 110.70 156.69 108.07 154.17 106.85 150.97 C 106.35 148.30 106.99 145.56 106.88 142.86 C 106.27 142.59 105.67 142.31 105.06 142.05 C 105.78 140.19 106.53 138.35 107.35 136.54 Z" />
</g>
<g id="#e9f1f3ff">
<path fill="#e9f1f3" opacity="1.00" d=" M 124.32 137.91 C 124.74 137.35 125.59 136.21 126.01 135.64 C 132.23 136.69 138.33 138.34 144.37 140.14 C 144.45 140.53 144.61 141.31 144.70 141.71 C 145.57 141.47 146.46 141.29 147.33 141.07 C 147.46 141.46 147.71 142.24 147.83 142.63 C 150.49 142.20 153.23 142.06 155.82 142.96 C 155.35 143.63 154.89 144.30 154.43 144.97 C 158.67 142.98 163.52 144.38 167.23 146.85 C 166.22 147.26 165.20 147.65 164.18 148.04 C 150.95 144.45 137.65 141.12 124.32 137.91 Z" />
</g>
<g id="#3c3b3c93">
<path fill="#3c3b3c" opacity="0.58" d=" M 467.26 136.26 L 468.12 136.16 C 467.89 136.66 467.43 137.65 467.20 138.14 C 467.21 137.67 467.25 136.73 467.26 136.26 Z" />
</g>
<g id="#343334a3">
<path fill="#343334" opacity="0.64" d=" M 353.92 140.83 C 353.93 139.32 354.29 137.51 355.78 136.79 C 356.41 138.01 355.49 141.04 353.92 140.83 Z" />
</g>
<g id="#353535a4">
<path fill="#353535" opacity="0.64" d=" M 443.21 141.18 C 442.62 139.95 443.49 136.86 445.09 137.12 C 445.00 138.61 444.73 140.47 443.21 141.18 Z" />
</g>
<g id="#4343435c">
<path fill="#434343" opacity="0.36" d=" M 603.08 137.93 C 604.64 138.65 604.14 140.63 604.04 141.99 C 603.80 146.00 604.32 150.04 603.76 154.02 L 602.75 154.36 C 603.20 148.90 602.75 143.40 603.08 137.93 Z" />
</g>
<g id="#2c2c2c8f">
<path fill="#2c2c2c" opacity="0.56" d=" M 661.78 137.55 C 663.83 139.54 664.48 142.85 665.01 145.62 C 663.20 143.27 662.56 140.33 661.78 137.55 Z" />
</g>
<g id="#323132ab">
<path fill="#323132" opacity="0.67" d=" M 309.18 138.84 C 311.07 140.26 311.17 143.00 312.09 145.05 C 310.36 144.71 310.96 142.00 309.23 141.57 C 309.22 140.88 309.19 139.52 309.18 138.84 Z" />
</g>
<g id="#3e3d3d80">
<path fill="#3e3d3d" opacity="0.50" d=" M 466.20 139.23 L 467.07 139.11 C 466.85 139.61 466.41 140.60 466.19 141.10 L 465.74 140.25 L 466.20 139.23 Z" />
</g>
<g id="#3434349e">
<path fill="#343434" opacity="0.62" d=" M 684.83 138.68 C 686.63 140.38 687.76 143.23 687.75 145.71 C 686.51 143.48 685.43 141.17 684.83 138.68 Z" />
</g>
<g id="#3b3a3a8d">
<path fill="#3b3a3a" opacity="0.55" d=" M 481.93 140.15 L 482.78 140.26 C 482.78 140.74 482.78 141.69 482.77 142.17 C 482.56 141.66 482.14 140.65 481.93 140.15 Z" />
</g>
<g id="#31313179">
<path fill="#313131" opacity="0.47" d=" M 350.80 148.55 C 351.40 145.93 352.62 143.53 353.88 141.18 C 353.56 143.68 352.83 147.00 350.80 148.55 Z" />
</g>
<g id="#333232b1">
<path fill="#333232" opacity="0.69" d=" M 440.27 148.49 C 440.24 146.09 441.42 143.01 443.14 141.48 C 442.70 144.01 441.53 146.29 440.27 148.49 Z" />
</g>
<g id="#31313190">
<path fill="#313131" opacity="0.56" d=" M 464.25 146.21 C 463.44 144.94 464.30 141.58 466.02 141.85 C 465.85 143.44 465.41 145.05 464.25 146.21 Z" />
</g>
<g id="#353535a8">
<path fill="#353535" opacity="0.66" d=" M 483.08 143.02 C 485.11 142.59 486.11 149.23 483.92 147.44 C 483.63 145.97 483.36 144.49 483.08 143.02 Z" />
</g>
<g id="#2f2f2f99">
<path fill="#2f2f2f" opacity="0.60" d=" M 312.18 145.27 C 314.41 149.81 316.39 154.47 318.19 159.19 L 317.32 159.29 C 315.99 154.49 312.62 150.22 312.18 145.27 Z" />
</g>
<g id="#343333a4">
<path fill="#343333" opacity="0.64" d=" M 621.40 145.74 L 622.16 145.93 C 621.44 148.30 620.44 150.56 619.22 152.70 C 618.93 150.18 620.80 148.10 621.40 145.74 Z" />
</g>
<g id="#302f2f98">
<path fill="#302f2f" opacity="0.60" d=" M 687.76 145.73 L 688.61 145.89 C 689.67 149.93 692.81 153.54 692.79 157.70 C 690.96 153.78 689.12 149.85 687.76 145.73 Z" />
</g>
<g id="#4846478c">
<path fill="#484647" opacity="0.55" d=" M 350.33 149.82 C 350.40 149.64 350.55 149.27 350.62 149.08 C 350.55 149.27 350.40 149.64 350.33 149.82 Z" />
</g>
<g id="#2f2f2fa1">
<path fill="#2f2f2f" opacity="0.63" d=" M 439.29 148.83 L 440.10 148.74 C 438.55 153.51 436.40 158.09 434.19 162.59 C 434.70 157.76 437.87 153.50 439.29 148.83 Z" />
</g>
<g id="#42414175">
<path fill="#424141" opacity="0.46" d=" M 548.98 149.10 L 549.78 149.25 C 549.78 149.72 549.77 150.66 549.77 151.13 C 549.57 150.62 549.17 149.61 548.98 149.10 Z" />
</g>
<g id="#313131a9">
<path fill="#313131" opacity="0.66" d=" M 344.89 162.22 C 346.12 158.04 347.73 153.90 350.10 150.22 C 349.88 152.86 348.28 155.09 347.45 157.55 C 346.65 159.11 346.43 161.18 344.89 162.22 Z" />
</g>
<g id="#323232a9">
<path fill="#323232" opacity="0.66" d=" M 618.45 152.88 L 619.19 152.75 C 618.51 155.22 617.44 157.54 616.21 159.77 C 615.79 157.27 617.79 155.20 618.45 152.88 Z" />
</g>
<g id="#2f2f2f87">
<path fill="#2f2f2f" opacity="0.53" d=" M 511.06 155.03 C 511.31 154.93 511.80 154.74 512.05 154.64 C 512.16 157.94 514.90 160.47 514.84 163.78 C 513.49 160.92 511.53 158.21 511.06 155.03 Z" />
</g>
<g id="#383838a1">
<path fill="#383838" opacity="0.63" d=" M 692.84 157.80 L 693.64 157.50 C 695.40 162.81 698.21 167.71 699.85 173.07 C 691.55 173.20 683.25 173.13 674.96 173.11 C 673.55 170.24 672.50 167.19 671.66 164.11 C 669.17 163.40 666.57 163.84 664.04 163.75 C 655.58 163.83 647.12 163.57 638.68 163.87 C 637.41 166.90 636.77 170.33 634.95 173.03 C 626.65 173.11 618.30 173.39 610.02 172.89 C 610.92 170.84 611.16 168.04 613.15 166.77 C 612.55 168.59 611.89 170.38 611.16 172.14 C 619.03 172.12 626.91 172.30 634.79 172.05 C 635.91 169.02 637.03 165.99 638.25 162.99 C 649.48 162.86 660.71 162.85 671.95 163.00 C 673.07 166.00 674.15 169.03 675.24 172.04 C 683.16 172.30 691.09 172.13 699.01 172.13 C 696.71 167.46 694.69 162.66 692.84 157.80 Z" />
</g>
<g id="#313131ae">
<path fill="#313131" opacity="0.68" d=" M 318.31 159.48 C 319.46 161.62 320.57 163.80 321.04 166.21 C 319.38 164.59 318.13 161.82 318.31 159.48 Z" />
</g>
<g id="#323231a0">
<path fill="#323231" opacity="0.63" d=" M 615.44 159.43 L 616.15 159.92 C 615.49 162.32 614.40 164.55 613.18 166.71 C 612.94 164.07 615.05 161.98 615.44 159.43 Z" />
</g>
<g id="#3131307c">
<path fill="#313130" opacity="0.49" d=" M 341.84 169.41 C 342.45 166.93 343.58 164.63 344.81 162.40 C 344.51 164.77 343.81 168.00 341.84 169.41 Z" />
</g>
<g id="#323232b0">
<path fill="#323232" opacity="0.69" d=" M 433.33 162.79 L 434.18 162.61 C 433.56 165.09 432.54 167.44 431.14 169.57 C 431.13 167.14 432.62 165.05 433.33 162.79 Z" />
</g>
<g id="#3b3a3a92">
<path fill="#3b3a3a" opacity="0.57" d=" M 456.48 165.51 C 456.96 164.40 457.31 162.61 458.96 162.95 C 469.64 162.89 480.33 162.95 491.01 162.93 C 491.39 164.03 491.78 165.14 492.20 166.24 L 491.18 166.46 C 491.11 165.85 490.96 164.63 490.88 164.02 C 479.92 163.55 468.91 163.86 457.94 163.86 C 456.83 166.90 455.77 169.95 454.59 172.96 C 446.25 173.38 437.89 173.03 429.54 173.14 C 429.32 171.36 429.85 170.17 431.14 169.57 C 430.99 170.24 430.68 171.57 430.53 172.23 C 438.36 172.22 446.21 172.44 454.04 172.12 C 454.84 169.91 455.63 167.70 456.48 165.51 Z" />
</g>
<g id="#37363698">
<path fill="#373636" opacity="0.60" d=" M 514.90 164.19 C 516.45 163.99 517.44 166.96 516.78 168.18 C 515.21 167.60 515.00 165.63 514.90 164.19 Z" />
</g>
<g id="#393838a8">
<path fill="#393838" opacity="0.66" d=" M 321.24 166.66 C 322.32 168.37 323.03 170.28 323.98 172.07 C 329.03 172.14 334.08 172.17 339.13 172.10 C 340.73 172.38 341.13 170.43 341.84 169.44 C 341.74 170.64 341.45 171.79 340.94 172.90 C 335.09 173.28 329.16 173.29 323.32 172.89 C 322.72 170.79 321.01 168.92 321.24 166.66 Z" />
</g>
<g id="#3c3b3bb8">
<path fill="#3c3b3b" opacity="0.72" d=" M 492.25 166.35 C 493.13 168.16 493.87 170.04 494.40 171.99 C 502.19 172.12 509.97 171.99 517.76 172.05 C 517.53 171.18 517.08 169.43 516.85 168.56 C 518.41 169.42 518.42 171.57 519.11 173.05 C 510.76 173.09 502.38 173.31 494.04 172.94 C 493.38 170.77 491.84 168.71 492.25 166.35 Z" />
</g>
<g id="#353434a6">
<path fill="#353434" opacity="0.65" d=" M 575.08 172.16 C 581.01 172.28 586.76 170.69 592.34 168.83 L 592.03 169.61 C 581.28 174.14 569.31 173.00 557.93 173.05 C 554.85 172.54 551.15 173.63 548.49 171.91 C 557.34 172.42 566.21 171.93 575.08 172.16 Z" />
</g>
<g id="#c5c6c4ff">
<path fill="#c5c6c4" opacity="1.00" d=" M 133.18 195.75 C 152.46 190.81 171.58 184.41 188.88 174.41 C 189.04 174.88 189.38 175.81 189.55 176.27 C 187.41 178.30 184.84 179.84 182.28 181.29 C 166.83 189.85 149.95 195.48 132.88 199.86 C 129.22 200.76 125.81 202.60 122.01 202.94 C 113.94 203.74 106.14 205.97 98.18 207.39 C 93.02 208.84 86.60 210.80 85.32 216.79 C 87.05 219.57 88.70 222.63 91.62 224.33 C 100.04 229.56 110.24 230.71 119.95 230.71 C 120.37 231.22 121.20 232.25 121.62 232.76 C 119.16 233.29 116.70 233.77 114.21 234.11 C 109.22 233.69 104.29 234.67 99.32 234.97 C 99.76 234.38 100.19 233.79 100.63 233.21 C 92.50 232.69 84.40 230.04 77.96 224.98 C 75.09 222.07 71.87 218.00 73.67 213.68 C 76.08 208.68 82.38 208.17 86.80 205.72 C 85.79 204.95 84.79 204.17 83.78 203.40 C 90.68 203.23 97.54 202.30 104.37 201.41 C 114.06 200.04 123.69 198.16 133.18 195.75 Z" />
</g>
<g id="#11190dad">
<path fill="#11190d" opacity="0.68" d=" M 664.20 190.67 C 664.60 188.45 664.41 185.66 666.12 183.98 C 669.14 183.73 672.19 183.83 675.23 184.02 C 672.24 184.36 669.16 184.14 666.27 185.07 C 665.68 186.97 664.92 188.81 664.20 190.67 Z" />
</g>
<g id="#000000ff">
<path fill="#000000" opacity="1.00" d=" M 675.23 184.02 C 708.81 183.98 742.41 184.01 775.99 184.00 C 776.00 203.33 776.00 222.67 775.99 242.00 C 734.57 242.00 693.14 242.01 651.71 241.99 C 651.75 241.56 651.82 240.69 651.85 240.25 C 651.97 239.60 652.21 238.31 652.33 237.66 C 653.45 234.38 653.95 230.93 655.08 227.66 L 655.13 227.50 C 655.94 224.88 656.70 222.23 657.06 219.51 C 657.12 219.17 657.25 218.50 657.31 218.17 C 658.32 216.33 659.08 214.30 659.03 212.17 L 659.08 211.86 C 661.23 206.65 661.68 200.96 663.04 195.52 L 663.22 195.06 C 664.00 194.24 664.29 193.29 664.09 192.20 C 664.12 191.82 664.18 191.05 664.20 190.67 C 664.92 188.81 665.68 186.97 666.27 185.07 C 669.16 184.14 672.24 184.36 675.23 184.02 M 677.18 193.20 C 674.60 206.07 671.86 218.92 669.18 231.77 C 673.76 231.72 678.35 231.78 682.94 231.73 C 683.95 226.84 684.86 221.93 685.99 217.06 C 691.59 216.73 697.22 217.01 702.83 216.91 C 702.12 221.90 700.85 226.80 699.86 231.75 C 704.47 231.74 709.08 231.77 713.70 231.73 C 716.38 218.89 718.82 206.01 721.56 193.19 C 717.01 193.26 712.46 193.02 707.92 193.19 C 706.91 197.91 705.96 202.65 704.92 207.38 C 699.32 207.51 693.72 207.40 688.13 207.44 C 688.76 202.64 690.01 197.95 690.97 193.21 C 686.37 193.00 681.77 193.25 677.18 193.20 M 726.64 193.17 C 723.82 205.96 721.40 218.84 718.53 231.63 C 726.34 231.92 734.16 231.65 741.98 231.76 C 746.45 231.83 751.03 231.27 755.07 229.22 C 762.81 225.78 767.40 217.35 767.77 209.11 C 768.11 204.43 766.44 199.33 762.48 196.56 C 758.28 193.62 752.94 193.22 747.98 193.11 C 740.86 193.24 733.75 193.10 726.64 193.17 Z" />
<path fill="#000000" opacity="1.00" d=" M 738.05 202.21 C 742.82 202.44 748.49 201.17 752.43 204.58 C 756.44 209.41 753.80 216.82 749.58 220.64 C 745.04 224.05 738.96 222.97 733.66 223.15 C 735.08 216.16 736.45 209.16 738.05 202.21 Z" />
</g>
<g id="#52414283">
<path fill="#524142" opacity="0.51" d=" M 304.05 184.89 L 305.00 184.61 L 304.99 185.42 C 304.93 203.95 304.95 222.49 304.97 241.03 C 305.37 241.00 306.16 240.95 306.56 240.93 C 358.95 241.06 411.34 241.02 463.73 240.95 C 472.56 241.08 481.40 240.92 490.24 241.04 L 489.65 241.91 C 429.11 242.13 368.55 241.92 308.00 242.00 C 306.61 241.85 303.67 242.42 304.03 240.11 C 304.03 221.70 303.98 203.29 304.05 184.89 Z" />
</g>
<g id="#461115ff">
<path fill="#461115" opacity="1.00" d=" M 304.99 185.42 C 328.47 185.23 351.95 185.31 375.43 185.51 C 372.85 187.78 369.20 186.67 366.10 187.23 C 366.07 188.40 366.06 189.57 366.06 190.74 C 368.27 190.81 370.47 190.91 372.67 191.17 C 372.82 191.52 373.12 192.21 373.26 192.55 C 368.41 192.54 363.55 192.56 358.70 192.53 C 354.27 200.58 349.68 208.55 345.43 216.70 C 345.24 216.70 344.87 216.69 344.68 216.69 C 340.55 208.62 335.89 200.82 331.83 192.71 C 326.75 192.38 321.66 192.63 316.58 192.56 C 316.61 205.49 316.58 218.42 316.60 231.34 C 320.81 231.32 325.01 231.35 329.22 231.31 C 329.28 224.23 329.07 217.15 329.32 210.08 C 332.87 217.15 336.62 224.12 340.08 231.24 C 343.14 231.39 346.20 231.34 349.26 231.38 C 353.20 224.31 356.95 217.14 360.58 209.92 C 360.77 217.05 360.62 224.20 360.65 231.34 C 364.85 231.36 369.05 231.34 373.25 231.35 C 373.09 231.70 372.76 232.39 372.60 232.73 C 369.21 233.23 365.77 232.89 362.36 233.22 C 361.64 235.67 360.82 238.17 359.01 240.06 C 343.36 240.16 327.71 240.06 312.06 239.95 C 310.16 239.85 308.33 240.30 306.56 240.93 C 306.16 240.95 305.37 241.00 304.97 241.03 C 304.95 222.49 304.93 203.95 304.99 185.42 Z" />
</g>
<g id="#541114ff">
<path fill="#541114" opacity="1.00" d=" M 375.43 185.51 C 391.76 185.28 408.11 185.38 424.44 185.56 C 420.35 188.67 414.80 186.12 410.10 187.22 C 408.10 187.16 409.03 190.24 410.63 190.33 C 414.85 191.10 419.02 192.36 422.48 195.00 C 422.36 195.44 422.13 196.31 422.01 196.75 C 415.43 191.83 406.77 191.75 398.93 192.39 C 392.33 192.99 385.51 196.33 382.51 202.50 C 379.49 208.82 379.65 216.72 383.19 222.79 C 386.49 228.27 392.81 231.12 398.99 231.74 C 404.00 232.68 409.11 232.09 414.06 231.08 C 414.21 231.53 414.52 232.42 414.67 232.87 C 411.78 233.80 408.61 233.68 405.79 234.73 C 405.22 235.90 404.84 237.14 404.44 238.37 C 403.18 238.92 401.95 239.50 400.68 240.01 C 386.79 240.33 372.90 239.77 359.01 240.06 C 360.82 238.17 361.64 235.67 362.36 233.22 C 365.77 232.89 369.21 233.23 372.60 232.73 C 372.76 232.39 373.09 231.70 373.25 231.35 C 373.32 218.42 373.30 205.48 373.26 192.55 C 373.12 192.21 372.82 191.52 372.67 191.17 C 370.47 190.91 368.27 190.81 366.06 190.74 C 366.06 189.57 366.07 188.40 366.10 187.23 C 369.20 186.67 372.85 187.78 375.43 185.51 Z" />
</g>
<g id="#611214ff">
<path fill="#611214" opacity="1.00" d=" M 424.44 185.56 C 439.10 185.36 453.77 185.35 468.42 185.62 C 464.79 188.10 460.17 186.45 456.09 187.15 C 456.09 188.35 456.10 189.54 456.12 190.74 C 461.62 191.34 467.16 190.76 472.68 191.20 C 472.80 191.57 473.05 192.31 473.17 192.68 C 459.71 192.70 446.26 192.69 432.80 192.70 C 432.78 196.28 432.68 199.87 432.64 203.45 C 437.07 203.46 441.50 203.50 445.93 203.41 C 446.49 212.70 446.02 222.04 446.16 231.34 C 450.81 231.34 455.46 231.37 460.11 231.31 C 460.01 231.67 459.81 232.39 459.72 232.76 C 457.59 233.00 455.46 233.13 453.34 233.29 C 453.11 235.00 452.84 236.71 452.61 238.43 C 450.91 238.91 449.25 239.47 447.60 240.09 C 431.97 240.49 416.32 239.98 400.68 240.01 C 401.95 239.50 403.18 238.92 404.44 238.37 C 404.84 237.14 405.22 235.90 405.79 234.73 C 408.61 233.68 411.78 233.80 414.67 232.87 C 414.52 232.42 414.21 231.53 414.06 231.08 C 419.93 229.64 425.36 225.61 427.44 219.79 C 430.18 211.97 428.80 202.12 422.01 196.75 C 422.13 196.31 422.36 195.44 422.48 195.00 C 419.02 192.36 414.85 191.10 410.63 190.33 C 409.03 190.24 408.10 187.16 410.10 187.22 C 414.80 186.12 420.35 188.67 424.44 185.56 Z" />
</g>
<g id="#6b1013ff">
<path fill="#6b1013" opacity="1.00" d=" M 468.42 185.62 C 485.07 185.31 501.74 185.45 518.39 185.64 C 514.71 188.13 510.10 186.57 505.98 186.95 C 503.36 186.72 501.22 188.36 499.13 189.66 C 501.82 189.80 504.54 189.89 507.16 190.61 C 503.65 191.29 499.74 190.22 496.58 192.25 C 491.67 192.94 486.55 194.32 482.93 197.91 C 477.21 203.08 476.34 211.77 478.30 218.86 C 480.30 225.81 486.99 230.46 493.93 231.51 C 499.61 232.68 505.48 232.37 511.11 231.12 C 511.24 231.55 511.48 232.40 511.61 232.83 C 507.72 234.28 503.53 234.07 499.46 234.28 C 499.13 235.66 498.80 237.04 498.49 238.44 C 497.61 238.96 496.72 239.47 495.84 239.97 C 485.36 240.38 474.88 240.26 464.40 240.33 C 458.80 240.26 453.19 240.54 447.60 240.09 C 449.25 239.47 450.91 238.91 452.61 238.43 C 452.84 236.71 453.11 235.00 453.34 233.29 C 455.46 233.13 457.59 233.00 459.72 232.76 C 459.81 232.39 460.01 231.67 460.11 231.31 C 459.97 222.06 459.75 212.80 459.85 203.54 C 464.41 203.39 468.98 203.50 473.54 203.44 C 473.30 199.86 473.42 196.26 473.17 192.68 C 473.05 192.31 472.80 191.57 472.68 191.20 C 467.16 190.76 461.62 191.34 456.12 190.74 C 456.10 189.54 456.09 188.35 456.09 187.15 C 460.17 186.45 464.79 188.10 468.42 185.62 Z" />
</g>
<g id="#7b1316ff">
<path fill="#7b1316" opacity="1.00" d=" M 518.39 185.64 C 538.71 185.42 559.05 185.44 579.38 185.69 C 575.38 188.00 570.57 186.17 566.25 187.23 C 565.45 189.70 565.68 192.28 566.20 194.77 C 562.32 193.34 558.19 192.65 554.06 192.66 C 546.95 192.69 539.84 192.67 532.73 192.69 C 532.70 205.60 532.76 218.51 532.69 231.42 C 537.36 231.52 542.03 231.43 546.70 231.50 L 546.55 232.58 C 543.08 234.28 539.13 233.91 535.40 234.24 C 535.12 235.64 534.87 237.05 534.61 238.46 C 533.29 238.91 532.00 239.39 530.69 239.82 C 519.07 240.19 507.45 239.78 495.84 239.97 C 496.72 239.47 497.61 238.96 498.49 238.44 C 498.80 237.04 499.13 235.66 499.46 234.28 C 503.53 234.07 507.72 234.28 511.61 232.83 C 511.48 232.40 511.24 231.55 511.11 231.12 C 517.03 229.59 522.48 225.50 524.48 219.57 C 526.90 212.09 525.89 202.63 519.49 197.36 C 513.22 191.92 504.40 191.98 496.58 192.25 C 499.74 190.22 503.65 191.29 507.16 190.61 C 504.54 189.89 501.82 189.80 499.13 189.66 C 501.22 188.36 503.36 186.72 505.98 186.95 C 510.10 186.57 514.71 188.13 518.39 185.64 Z" />
</g>
<g id="#92181cff">
<path fill="#92181c" opacity="1.00" d=" M 579.38 185.69 C 589.37 185.31 599.39 185.51 609.39 185.64 C 607.57 186.94 605.33 187.14 603.19 187.41 C 603.24 195.33 601.52 203.11 601.02 210.99 C 601.36 220.21 600.10 229.40 598.69 238.49 C 596.97 238.94 595.28 239.46 593.60 240.02 C 587.76 240.69 581.87 240.11 576.01 240.14 C 569.89 239.91 563.76 240.32 557.65 239.83 C 559.30 239.41 560.95 238.93 562.61 238.50 C 562.90 237.13 563.17 235.76 563.47 234.40 C 567.14 233.08 571.05 233.14 574.89 232.89 C 575.30 232.56 576.12 231.89 576.53 231.56 C 576.69 231.44 577.02 231.19 577.18 231.07 C 573.33 226.41 569.35 221.85 565.60 217.11 C 571.92 215.00 575.39 207.46 572.82 201.30 C 571.76 198.19 568.96 196.24 566.20 194.77 C 565.68 192.28 565.45 189.70 566.25 187.23 C 570.57 186.17 575.38 188.00 579.38 185.69 Z" />
</g>
<g id="#a01b1eff">
<path fill="#a01b1e" opacity="1.00" d=" M 609.39 185.64 C 624.04 185.29 638.70 185.50 653.35 185.50 C 648.70 203.79 643.79 222.00 639.02 240.25 C 623.89 240.50 608.72 240.56 593.60 240.02 C 595.28 239.46 596.97 238.94 598.69 238.49 C 600.10 229.40 601.36 220.21 601.02 210.99 C 601.52 203.11 603.24 195.33 603.19 187.41 C 605.33 187.14 607.57 186.94 609.39 185.64 Z" />
</g>
<g id="#6b2022ff">
<path fill="#6b2022" opacity="1.00" d=" M 218.81 194.32 C 221.76 192.04 224.27 189.27 226.67 186.44 C 227.09 191.87 226.39 197.30 225.72 202.68 C 224.05 215.62 220.90 228.42 215.72 240.41 C 212.14 248.14 208.04 255.59 202.98 262.46 C 200.80 263.55 198.66 264.70 196.52 265.86 L 195.88 265.90 C 194.27 265.77 192.60 266.34 191.71 267.76 L 191.22 268.02 C 178.83 271.81 166.10 275.39 153.02 275.13 C 147.21 276.13 141.42 274.78 135.59 274.95 C 143.96 272.11 153.28 275.50 161.68 272.52 C 164.20 270.77 167.36 269.75 169.03 267.01 C 169.80 265.74 171.23 265.22 172.47 264.55 C 172.05 264.02 171.63 263.50 171.21 262.98 C 171.70 261.98 172.19 260.99 172.68 260.01 C 171.85 259.76 171.03 259.52 170.21 259.28 C 170.46 257.96 170.76 256.66 171.02 255.35 C 170.30 255.83 169.58 256.31 168.86 256.80 C 167.48 255.10 164.19 253.38 165.52 250.84 C 169.06 248.24 170.50 243.86 173.73 240.94 C 173.56 240.48 173.24 239.55 173.08 239.08 C 175.33 238.50 177.90 238.31 179.57 236.49 C 181.96 234.46 182.42 230.85 185.32 229.34 C 188.91 227.13 191.98 223.77 193.38 219.80 C 193.07 216.57 195.49 214.21 196.11 211.23 C 194.00 212.03 191.94 212.95 189.90 213.91 C 189.27 213.68 188.02 213.20 187.39 212.96 C 198.54 208.02 209.39 202.13 218.81 194.32 Z" />
</g>
<g id="#ffffffff">
<path fill="#ffffff" opacity="1.00" d=" M 382.51 202.50 C 385.51 196.33 392.33 192.99 398.93 192.39 C 406.77 191.75 415.43 191.83 422.01 196.75 C 428.80 202.12 430.18 211.97 427.44 219.79 C 425.36 225.61 419.93 229.64 414.06 231.08 C 409.11 232.09 404.00 232.68 398.99 231.74 C 392.81 231.12 386.49 228.27 383.19 222.79 C 379.65 216.72 379.49 208.82 382.51 202.50 M 398.46 203.75 C 394.63 206.03 395.00 211.08 395.31 214.92 C 395.41 218.49 398.65 221.38 402.14 221.49 C 405.13 221.62 408.37 221.87 411.01 220.16 C 415.09 216.89 414.74 210.66 413.17 206.17 C 410.10 201.44 403.04 201.83 398.46 203.75 Z" />
<path fill="#ffffff" opacity="1.00" d=" M 482.93 197.91 C 486.55 194.32 491.67 192.94 496.58 192.25 C 504.40 191.98 513.22 191.92 519.49 197.36 C 525.89 202.63 526.90 212.09 524.48 219.57 C 522.48 225.50 517.03 229.59 511.11 231.12 C 505.48 232.37 499.61 232.68 493.93 231.51 C 486.99 230.46 480.30 225.81 478.30 218.86 C 476.34 211.77 477.21 203.08 482.93 197.91 M 497.94 202.85 C 492.23 203.65 491.27 210.43 492.26 215.05 C 492.35 218.61 495.64 221.45 499.12 221.53 C 503.01 221.85 507.91 221.78 510.05 217.87 C 511.28 214.10 511.64 209.74 509.93 206.06 C 507.50 201.98 502.01 202.37 497.94 202.85 Z" />
<path fill="#ffffff" opacity="1.00" d=" M 316.58 192.56 C 321.66 192.63 326.75 192.38 331.83 192.71 C 335.89 200.82 340.55 208.62 344.68 216.69 C 344.87 216.69 345.24 216.70 345.43 216.70 C 349.68 208.55 354.27 200.58 358.70 192.53 C 363.55 192.56 368.41 192.54 373.26 192.55 C 373.30 205.48 373.32 218.42 373.25 231.35 C 369.05 231.34 364.85 231.36 360.65 231.34 C 360.62 224.20 360.77 217.05 360.58 209.92 C 356.95 217.14 353.20 224.31 349.26 231.38 C 346.20 231.34 343.14 231.39 340.08 231.24 C 336.62 224.12 332.87 217.15 329.32 210.08 C 329.07 217.15 329.28 224.23 329.22 231.31 C 325.01 231.35 320.81 231.32 316.60 231.34 C 316.58 218.42 316.61 205.49 316.58 192.56 Z" />
<path fill="#ffffff" opacity="1.00" d=" M 432.80 192.70 C 446.26 192.69 459.71 192.70 473.17 192.68 C 473.42 196.26 473.30 199.86 473.54 203.44 C 468.98 203.50 464.41 203.39 459.85 203.54 C 459.75 212.80 459.97 222.06 460.11 231.31 C 455.46 231.37 450.81 231.34 446.16 231.34 C 446.02 222.04 446.49 212.70 445.93 203.41 C 441.50 203.50 437.07 203.46 432.64 203.45 C 432.68 199.87 432.78 196.28 432.80 192.70 Z" />
<path fill="#ffffff" opacity="1.00" d=" M 532.73 192.69 C 539.84 192.67 546.95 192.69 554.06 192.66 C 558.19 192.65 562.32 193.34 566.20 194.77 C 568.96 196.24 571.76 198.19 572.82 201.30 C 575.39 207.46 571.92 215.00 565.60 217.11 C 569.35 221.85 573.33 226.41 577.18 231.07 C 577.02 231.19 576.69 231.44 576.53 231.56 C 571.29 231.40 566.04 231.50 560.80 231.46 C 558.16 227.57 555.71 223.56 553.07 219.67 C 550.96 219.67 548.85 219.67 546.74 219.69 C 546.68 223.62 546.81 227.56 546.70 231.50 C 542.03 231.43 537.36 231.52 532.69 231.42 C 532.76 218.51 532.70 205.60 532.73 192.69 M 546.72 202.50 C 547.24 205.32 545.73 208.85 547.44 211.24 C 550.99 211.10 554.96 211.92 558.09 209.81 C 559.55 207.48 559.42 203.06 556.00 202.58 C 552.91 202.32 549.81 202.51 546.72 202.50 Z" />
<path fill="#ffffff" opacity="1.00" d=" M 677.18 193.20 C 681.77 193.25 686.37 193.00 690.97 193.21 C 690.01 197.95 688.76 202.64 688.13 207.44 C 693.72 207.40 699.32 207.51 704.92 207.38 C 705.96 202.65 706.91 197.91 707.92 193.19 C 712.46 193.02 717.01 193.26 721.56 193.19 C 718.82 206.01 716.38 218.89 713.70 231.73 C 709.08 231.77 704.47 231.74 699.86 231.75 C 700.85 226.80 702.12 221.90 702.83 216.91 C 697.22 217.01 691.59 216.73 685.99 217.06 C 684.86 221.93 683.95 226.84 682.94 231.73 C 678.35 231.78 673.76 231.72 669.18 231.77 C 671.86 218.92 674.60 206.07 677.18 193.20 Z" />
<path fill="#ffffff" opacity="1.00" d=" M 726.64 193.17 C 733.75 193.10 740.86 193.24 747.98 193.11 C 752.94 193.22 758.28 193.62 762.48 196.56 C 766.44 199.33 768.11 204.43 767.77 209.11 C 767.40 217.35 762.81 225.78 755.07 229.22 C 751.03 231.27 746.45 231.83 741.98 231.76 C 734.16 231.65 726.34 231.92 718.53 231.63 C 721.40 218.84 723.82 205.96 726.64 193.17 M 738.05 202.21 C 736.45 209.16 735.08 216.16 733.66 223.15 C 738.96 222.97 745.04 224.05 749.58 220.64 C 753.80 216.82 756.44 209.41 752.43 204.58 C 748.49 201.17 742.82 202.44 738.05 202.21 Z" />
</g>
<g id="#1b271682">
<path fill="#1b2716" opacity="0.51" d=" M 663.22 195.06 C 662.23 193.58 662.52 192.62 664.09 192.20 C 664.29 193.29 664.00 194.24 663.22 195.06 Z" />
</g>
<g id="#2a2a297d">
<path fill="#2a2a29" opacity="0.49" d=" M 662.15 196.16 L 663.04 195.52 C 661.68 200.96 661.23 206.65 659.08 211.86 C 659.26 206.57 661.25 201.41 662.15 196.16 Z" />
</g>
<g id="#402e2e93">
<path fill="#402e2e" opacity="0.58" d=" M 258.87 207.57 C 260.43 203.75 262.00 199.93 263.91 196.27 C 264.15 199.07 262.16 201.42 261.27 203.95 C 260.53 205.18 260.40 207.07 258.87 207.57 Z" />
</g>
<g id="#9ea09eff">
<path fill="#9ea09e" opacity="1.00" d=" M 52.96 207.88 C 55.96 206.04 58.94 204.13 62.17 202.69 C 63.51 202.75 64.85 202.82 66.20 202.91 C 68.10 203.12 70.02 203.27 71.94 203.34 C 72.49 204.11 73.06 204.88 73.63 205.65 C 70.53 208.02 66.64 209.14 63.71 211.69 C 62.39 214.27 62.63 217.54 63.98 220.06 C 66.19 223.46 69.64 225.74 72.56 228.48 C 76.41 232.50 82.40 232.49 87.04 235.17 C 86.01 235.77 84.97 236.36 83.90 236.92 C 78.79 237.87 73.54 237.63 68.37 237.51 L 68.67 235.89 C 65.73 234.08 63.37 231.51 61.42 228.69 C 55.25 222.54 50.31 215.25 46.06 207.67 C 48.35 207.26 50.68 207.43 52.96 207.88 Z" />
</g>
<g id="#5a1214ff">
<path fill="#5a1214" opacity="1.00" d=" M 398.46 203.75 C 403.04 201.83 410.10 201.44 413.17 206.17 C 414.74 210.66 415.09 216.89 411.01 220.16 C 408.37 221.87 405.13 221.62 402.14 221.49 C 398.65 221.38 395.41 218.49 395.31 214.92 C 395.00 211.08 394.63 206.03 398.46 203.75 Z" />
</g>
<g id="#741114ff">
<path fill="#741114" opacity="1.00" d=" M 497.94 202.85 C 502.01 202.37 507.50 201.98 509.93 206.06 C 511.64 209.74 511.28 214.10 510.05 217.87 C 507.91 221.78 503.01 221.85 499.12 221.53 C 495.64 221.45 492.35 218.61 492.26 215.05 C 491.27 210.43 492.23 203.65 497.94 202.85 Z" />
</g>
<g id="#841619ff">
<path fill="#841619" opacity="1.00" d=" M 546.72 202.50 C 549.81 202.51 552.91 202.32 556.00 202.58 C 559.42 203.06 559.55 207.48 558.09 209.81 C 554.96 211.92 550.99 211.10 547.44 211.24 C 545.73 208.85 547.24 205.32 546.72 202.50 Z" />
<path fill="#841619" opacity="1.00" d=" M 546.74 219.69 C 548.85 219.67 550.96 219.67 553.07 219.67 C 555.71 223.56 558.16 227.57 560.80 231.46 C 566.04 231.50 571.29 231.40 576.53 231.56 C 576.12 231.89 575.30 232.56 574.89 232.89 C 571.05 233.14 567.14 233.08 563.47 234.40 C 563.17 235.76 562.90 237.13 562.61 238.50 C 560.95 238.93 559.30 239.41 557.65 239.83 C 548.67 240.25 539.66 240.07 530.69 239.82 C 532.00 239.39 533.29 238.91 534.61 238.46 C 534.87 237.05 535.12 235.64 535.40 234.24 C 539.13 233.91 543.08 234.28 546.55 232.58 L 546.70 231.50 C 546.81 227.56 546.68 223.62 546.74 219.69 Z" />
</g>
<g id="#afb0aeff">
<path fill="#afb0ae" opacity="1.00" d=" M 71.94 203.34 C 75.88 203.50 79.83 203.42 83.78 203.40 C 84.79 204.17 85.79 204.95 86.80 205.72 C 82.38 208.17 76.08 208.68 73.67 213.68 C 71.87 218.00 75.09 222.07 77.96 224.98 C 84.40 230.04 92.50 232.69 100.63 233.21 C 100.19 233.79 99.76 234.38 99.32 234.97 C 104.29 234.67 109.22 233.69 114.21 234.11 C 105.63 235.62 96.93 236.34 88.25 237.05 C 86.80 236.95 85.35 236.90 83.90 236.92 C 84.97 236.36 86.01 235.77 87.04 235.17 C 82.40 232.49 76.41 232.50 72.56 228.48 C 69.64 225.74 66.19 223.46 63.98 220.06 C 62.63 217.54 62.39 214.27 63.71 211.69 C 66.64 209.14 70.53 208.02 73.63 205.65 C 73.06 204.88 72.49 204.11 71.94 203.34 Z" />
</g>
<g id="#5c4c4a9e">
<path fill="#5c4c4a" opacity="0.62" d=" M 258.30 209.02 C 258.38 208.81 258.54 208.38 258.63 208.17 C 258.54 208.38 258.38 208.81 258.30 209.02 Z" />
</g>
<g id="#56494889">
<path fill="#564948" opacity="0.54" d=" M 257.28 210.98 C 257.37 210.77 257.57 210.34 257.67 210.13 C 257.57 210.34 257.37 210.77 257.28 210.98 Z" />
</g>
<g id="#772a28ff">
<path fill="#772a28" opacity="1.00" d=" M 189.90 213.91 C 191.94 212.95 194.00 212.03 196.11 211.23 C 195.49 214.21 193.07 216.57 193.38 219.80 C 191.98 223.77 188.91 227.13 185.32 229.34 C 182.42 230.85 181.96 234.46 179.57 236.49 C 177.90 238.31 175.33 238.50 173.08 239.08 C 172.51 236.56 172.20 233.87 170.26 231.94 C 170.27 231.42 170.30 230.37 170.31 229.85 C 169.35 228.55 168.48 227.19 167.78 225.73 C 169.33 223.71 170.62 221.52 171.77 219.25 C 177.03 217.29 182.25 215.22 187.39 212.96 C 188.02 213.20 189.27 213.68 189.90 213.91 Z" />
</g>
<g id="#462d2cb1">
<path fill="#462d2c" opacity="0.69" d=" M 253.93 216.12 C 253.89 214.21 254.98 212.47 256.68 211.64 C 257.01 213.30 255.51 215.07 254.46 216.27 L 253.93 216.12 Z" />
</g>
<g id="#3030306d">
<path fill="#303030" opacity="0.43" d=" M 657.31 218.17 C 656.28 216.55 657.22 212.61 659.03 212.17 C 659.08 214.30 658.32 216.33 657.31 218.17 Z" />
</g>
<g id="#422f2f96">
<path fill="#422f2f" opacity="0.59" d=" M 251.62 219.79 C 251.73 218.44 252.41 216.94 253.87 216.63 C 254.27 217.86 253.01 220.04 251.62 219.79 Z" />
</g>
<g id="#5a1618ff">
<path fill="#5a1618" opacity="1.00" d=" M 121.62 232.76 C 138.68 229.69 155.47 225.15 171.77 219.25 C 170.62 221.52 169.33 223.71 167.78 225.73 C 158.21 238.00 143.49 246.19 128.02 247.90 C 122.60 248.77 117.12 248.02 111.67 248.01 C 101.66 246.01 91.69 243.18 82.67 238.29 C 84.53 237.88 86.39 237.47 88.25 237.05 C 96.93 236.34 105.63 235.62 114.21 234.11 C 116.70 233.77 119.16 233.29 121.62 232.76 Z" />
</g>
<g id="#2c2c2c7e">
<path fill="#2c2c2c" opacity="0.49" d=" M 655.13 227.50 C 654.81 224.94 655.36 221.37 657.06 219.51 C 656.70 222.23 655.94 224.88 655.13 227.50 Z" />
</g>
<g id="#5c4543b8">
<path fill="#5c4543" opacity="0.72" d=" M 250.29 221.94 C 250.42 221.78 250.69 221.47 250.83 221.31 C 250.69 221.47 250.42 221.78 250.29 221.94 Z" />
</g>
<g id="#6e312fff">
<path fill="#6e312f" opacity="1.00" d=" M 128.02 247.90 C 143.49 246.19 158.21 238.00 167.78 225.73 C 168.48 227.19 169.35 228.55 170.31 229.85 C 170.30 230.37 170.27 231.42 170.26 231.94 C 172.20 233.87 172.51 236.56 173.08 239.08 C 173.24 239.55 173.56 240.48 173.73 240.94 C 170.50 243.86 169.06 248.24 165.52 250.84 C 164.19 253.38 167.48 255.10 168.86 256.80 C 169.58 256.31 170.30 255.83 171.02 255.35 C 170.76 256.66 170.46 257.96 170.21 259.28 C 171.03 259.52 171.85 259.76 172.68 260.01 C 172.19 260.99 171.70 261.98 171.21 262.98 C 171.63 263.50 172.05 264.02 172.47 264.55 C 171.23 265.22 169.80 265.74 169.03 267.01 C 167.36 269.75 164.20 270.77 161.68 272.52 C 153.28 275.50 143.96 272.11 135.59 274.95 C 132.24 274.96 128.97 274.07 125.64 273.90 C 118.00 272.83 110.25 270.83 103.25 267.67 C 102.22 266.39 100.68 265.65 99.02 265.82 C 97.20 265.82 95.65 264.66 94.01 264.00 C 88.85 261.43 83.62 258.85 79.00 255.36 C 83.54 255.10 86.51 259.18 90.68 260.24 C 93.12 260.89 95.97 261.80 98.30 260.37 C 100.26 259.13 103.18 257.99 102.70 255.17 C 105.30 255.01 108.26 255.75 110.50 254.03 C 109.48 253.15 108.08 253.40 106.86 253.28 C 111.75 248.12 119.18 251.34 125.16 249.48 C 120.67 248.89 115.95 249.87 111.67 248.01 C 117.12 248.02 122.60 248.77 128.02 247.90 Z" />
</g>
<g id="#2c2c2c65">
<path fill="#2c2c2c" opacity="0.40" d=" M 654.13 227.55 L 655.08 227.66 C 653.95 230.93 653.45 234.38 652.33 237.66 C 651.65 234.19 653.50 230.90 654.13 227.55 Z" />
</g>
<g id="#634845af">
<path fill="#634845" opacity="0.69" d=" M 59.21 238.80 C 60.39 238.98 61.06 239.66 61.21 240.85 C 59.63 241.04 58.96 240.36 59.21 238.80 Z" />
</g>
<g id="#461013ff">
<path fill="#461013" opacity="1.00" d=" M 215.72 240.41 C 220.01 239.75 222.04 244.02 224.47 246.69 C 223.68 247.67 222.90 248.64 222.12 249.62 L 223.63 250.29 C 223.33 250.45 222.72 250.78 222.42 250.94 C 218.27 253.32 214.35 256.10 210.48 258.91 L 209.82 259.33 C 209.67 259.41 209.38 259.55 209.23 259.63 L 208.49 259.94 C 206.61 260.68 204.77 261.53 202.98 262.46 C 208.04 255.59 212.14 248.14 215.72 240.41 Z" />
</g>
<g id="#470001ff">
<path fill="#470001" opacity="1.00" d=" M 306.56 240.93 C 308.33 240.30 310.16 239.85 312.06 239.95 C 327.71 240.06 343.36 240.16 359.01 240.06 C 372.90 239.77 386.79 240.33 400.68 240.01 C 416.32 239.98 431.97 240.49 447.60 240.09 C 453.19 240.54 458.80 240.26 464.40 240.33 L 463.73 240.95 C 411.34 241.02 358.95 241.06 306.56 240.93 Z" />
</g>
<g id="#7c0305ff">
<path fill="#7c0305" opacity="1.00" d=" M 464.40 240.33 C 474.88 240.26 485.36 240.38 495.84 239.97 C 507.45 239.78 519.07 240.19 530.69 239.82 C 539.66 240.07 548.67 240.25 557.65 239.83 C 563.76 240.32 569.89 239.91 576.01 240.14 C 581.87 240.11 587.76 240.69 593.60 240.02 C 608.72 240.56 623.89 240.50 639.02 240.25 L 639.07 241.04 C 589.46 240.97 539.85 240.99 490.24 241.04 C 481.40 240.92 472.56 241.08 463.73 240.95 L 464.40 240.33 Z" />
</g>
<g id="#242424b7">
<path fill="#242424" opacity="0.72" d=" M 651.09 240.25 L 651.85 240.25 C 651.82 240.69 651.75 241.56 651.71 241.99 L 651.01 242.00 C 651.03 241.56 651.07 240.69 651.09 240.25 Z" />
</g>
<g id="#61424281">
<path fill="#614242" opacity="0.51" d=" M 490.24 241.04 C 539.85 240.99 589.46 240.97 639.07 241.04 C 638.35 242.60 636.30 241.78 635.01 242.02 C 586.56 241.93 538.10 242.10 489.65 241.91 L 490.24 241.04 Z" />
</g>
<g id="#3b262785">
<path fill="#3b2627" opacity="0.52" d=" M 210.48 258.91 C 214.35 256.10 218.27 253.32 222.42 250.94 C 219.17 254.36 214.83 257.04 210.48 258.91 Z" />
</g>
<g id="#53464681">
<path fill="#534646" opacity="0.51" d=" M 209.23 259.63 C 209.38 259.55 209.67 259.41 209.82 259.33 C 209.67 259.41 209.38 259.55 209.23 259.63 Z" />
</g>
<g id="#4830308c">
<path fill="#483030" opacity="0.55" d=" M 202.98 262.46 C 204.77 261.53 206.61 260.68 208.49 259.94 L 208.27 260.67 C 204.37 262.40 200.77 265.10 196.52 265.86 C 198.66 264.70 200.80 263.55 202.98 262.46 Z" />
</g>
<g id="#5541408e">
<path fill="#554140" opacity="0.56" d=" M 99.02 265.82 C 100.68 265.65 102.22 266.39 103.25 267.67 C 101.98 268.30 98.94 267.41 99.02 265.82 Z" />
</g>
<g id="#533b3a94">
<path fill="#533b3a" opacity="0.58" d=" M 191.71 267.76 C 192.60 266.34 194.27 265.77 195.88 265.90 C 195.92 267.45 192.96 268.35 191.71 267.76 Z" />
</g>
</svg>
