<?xml version="1.0" encoding="UTF-8" standalone="no"?>
<!-- Created with Inkscape (http://www.inkscape.org/) -->
<svg
   xmlns:svg="http://www.w3.org/2000/svg"
   xmlns="http://www.w3.org/2000/svg"
   version="1.0"
   width="708.66144"
   height="231.59351"
   id="svg2235">
  <defs
     id="defs2237"><clipPath
   id="clp2">
<path
   d="M 0,1125.7 L 0,0 L 3444.6,0 L 3444.6,1125.7"
   id="path16" />

</clipPath>




</defs>
  <g
     transform="translate(66.687367,-65.403792)"
     id="layer1">
    <g
       id="g2867">
      <g
         transform="matrix(0.2057316,0,0,-0.2057316,-66.687367,296.99582)"
         id="q3">
<clipPath
   id="clipPath2248">
<path
   d="M 0,1125.7 L 0,0 L 3444.6,0 L 3444.6,1125.7"
   id="path2250" />

</clipPath>

<g
   clip-path="url(#clp2)"
   id="g18">
<path
   d="M 2626.6,884.32 C 2626.7,883.94 2650.4,946.82 2650,946.82 C 2655.8,962.18 2661.2,969.28 2675,974.91 C 2688.7,980.52 2718.3,977.28 2730.5,972.73 C 2768.9,958.26 2774.2,924.59 2759.1,900.66 C 2746.7,880.7 2727.1,867.28 2705.8,858.5 C 2700.4,856.62 2659.5,839.41 2633.7,851.95 C 2624.4,858.1 2621.6,870.49 2626.6,884.32 z M 2422.2,684.57 C 2405.8,642.36 2351.2,618.32 2351.3,618 C 2380,618 2429.1,618 2458,618 C 2490.5,618 2511.3,618.95 2532.8,642.36 C 2539.9,649.99 2544.4,660.26 2548.8,672.7 C 2548.9,673.05 2578.3,753.88 2578.1,754.02 C 2590.9,791.07 2592,784.99 2617.5,784.99 C 2642.7,784.99 2651.8,784.73 2653.1,770.4 C 2654.3,761.46 2671.6,643.69 2671.6,643.69 C 2671.6,643.69 2672.3,636.4 2681.6,628.04 C 2692,618.61 2706.7,618.55 2706.7,618.55 L 2765.6,618.55 C 2765.6,618.55 2777.3,618.52 2781.8,627.7 C 2786.2,636.86 2783.6,643.69 2783.6,643.69 C 2783.6,643.69 2763.1,747.58 2758.6,765.46 C 2754.1,783.34 2761.7,790.9 2776,797.72 C 2796.5,807.49 2821.6,825.31 2835.1,840 C 2860.6,867.66 2898.4,920.61 2882,977.73 C 2871.6,1014.1 2824.6,1029.4 2792,1035 C 2753.2,1041.6 2672.1,1038.9 2672.1,1038.9 L 2500.4,1038.9 C 2500.4,1038.9 2540.3,1016 2527.5,977.73 C 2514.8,939.5 2438.6,726.77 2422.2,684.57"
   id="path20"
   style="fill:#2462ab;fill-opacity:1;fill-rule:nonzero;stroke:none" />

<path
   d="M 2959.4,653.67 C 2924.1,653.67 2888.9,663.43 2871.6,663.45 C 2851.4,663.47 2833.6,642.7 2856.4,626.37 C 2879.6,609.67 2931.9,605.06 2959.2,604.18 C 3073.3,600.56 3176.7,629.81 3218,717 C 3224.2,730.18 3228.7,744.37 3230.5,759.46 C 3231.9,771.46 3231.5,783.69 3227.3,797.89 C 3220.8,819.43 3206,832.52 3187.8,842.02 C 3165.6,853.65 3112.3,867.13 3088.8,876.96 C 3078.8,881.17 3049.9,893.53 3046.7,915.35 C 3044.6,929.55 3048.7,941.91 3055.8,952.05 C 3083.1,991.03 3142.1,1007.7 3190.2,1002.3 C 3232.6,997.51 3247.7,1001.7 3251.2,1021.6 C 3255.9,1048.3 3173.9,1053.1 3133.3,1053.1 C 3092.6,1053.1 3054,1041.6 3045.3,1038.9 C 3002.1,1025.4 2971.8,998.53 2948.7,960.78 C 2937.4,942.21 2929.4,921.08 2927.9,898.09 C 2926.7,880.91 2929.6,858.63 2942.9,841.19 C 2961.7,816.53 3038.8,792.73 3065,780.89 C 3074.9,776.38 3097.8,769.4 3103.6,749.21 C 3115.9,687.22 3018.4,653.67 2959.4,653.67"
   id="path22"
   style="fill:#2462ab;fill-opacity:1;fill-rule:nonzero;stroke:none" />

<path
   d="M 1314.8,671.68 C 1389,694.71 1446.6,790.9 1465.8,866.53 C 1483.2,935.29 1465.3,1017 1376.1,989.41 C 1309.3,968.68 1241.5,877.75 1223.2,798.77 C 1202.5,708.86 1246.4,650.51 1314.8,671.68 z M 1258.7,604.89 C 1127.3,604.89 1055.5,699.63 1100.1,819.77 C 1124.2,884.47 1165.8,941.07 1217.8,980.35 C 1278.8,1026.6 1349.2,1053.1 1429.1,1053.1 C 1556.7,1053.1 1629.3,957.26 1582.1,830.17 C 1532.3,696.16 1394,604.89 1258.7,604.89"
   id="path24"
   style="fill:#2462ab;fill-opacity:1;fill-rule:nonzero;stroke:none" />

<path
   d="M 1059,1039.5 C 1040.2,1039.5 1040.4,1039.5 1018.9,1039.5 C 976.73,1039.5 946.34,1030.2 930.54,1001.3 C 930.52,1001.3 810.66,837.64 810.35,837.2 C 781.37,793.73 741.48,761.09 737.03,822.85 C 737.13,822.82 716.42,961.53 716.31,961.64 C 705.72,1023.3 681.66,1039.5 656.46,1039.5 L 524.14,1039.5 C 524.14,1039.5 558.36,991.86 538.42,935.52 C 528.4,907.13 464.19,738.06 451.78,706.01 C 426.48,640.75 393.11,618.27 393.11,618.27 C 393.11,618.27 456.88,618.27 476.6,618.27 C 496.32,618.27 510.4,637.24 529.1,688.16 C 537.8,711.56 589.73,852.02 591.05,855.62 C 591.7,857.41 593.46,865.44 600.38,865.44 C 606.05,865.44 605.64,857.11 605.8,855.38 C 610.18,814.64 622.07,678.94 622.79,669.25 C 625.27,636.02 642.52,618.55 663.53,618.55 C 663.66,618.42 709.1,618.42 708.94,618.55 C 727.32,618.55 741.11,622.97 755.64,643.69 C 770.19,664.41 906.99,854.65 906.99,854.65 C 911.41,862.54 919.16,867.17 923.75,865.62 C 929.53,863.64 929.99,858.2 927.75,852 C 911.07,806.6 862.89,676.96 859.12,666.8 C 848.11,637.34 853.51,618.56 881.85,618.56 C 901.71,618.56 924,618.51 942.25,618.51 C 974.29,618.51 986.56,652.01 992.6,666.81 C 997.7,679.26 1074,888.4 1105.8,974.48 C 1120.7,1016.4 1102,1039.5 1059,1039.5"
   id="path26"
   style="fill:#2462ab;fill-opacity:1;fill-rule:nonzero;stroke:none" />

<path
   d="M 1629.8,667.89 C 1625.6,655.86 1622.5,619.67 1657.1,619.67 C 1676.9,619.67 1696.7,619.6 1715,619.6 C 1747,619.6 1752.7,638.57 1763.3,667.91 C 1763.3,667.91 1820,820.53 1847.7,893.22 C 1871.7,956.38 1924.6,983.67 1962.3,988.63 C 2018.1,993.29 2020.3,996.4 2029.8,1019.9 C 2043,1052.6 2041.8,1053.3 1976.7,1053.3 C 1976.9,1053.2 1691.9,1053.2 1691.9,1053.3 C 1621.6,1053.5 1618.7,1053.9 1604.1,1020.3 C 1593.9,996.98 1608.1,988.63 1646.6,988.63 C 1719.4,988.63 1724.6,923.98 1713.6,893.63 C 1702.7,863.29 1629.8,667.89 1629.8,667.89"
   id="path28"
   style="fill:#2462ab;fill-opacity:1;fill-rule:nonzero;stroke:none" />

<path
   d="M 2143.2,671.68 C 2217.5,694.71 2275.1,790.9 2294.3,866.53 C 2311.7,935.29 2293.8,1017 2204.6,989.41 C 2137.8,968.68 2070,877.75 2051.7,798.77 C 2031,708.86 2074.9,650.51 2143.2,671.68 z M 2087.2,604.89 C 1955.8,604.89 1884,699.63 1928.6,819.77 C 1952.7,884.47 1994.3,941.07 2046.3,980.35 C 2107.3,1026.6 2177.7,1053.1 2257.6,1053.1 C 2385.2,1053.1 2457.8,957.26 2410.6,830.17 C 2360.8,696.16 2222.5,604.89 2087.2,604.89"
   id="path30"
   style="fill:#2462ab;fill-opacity:1;fill-rule:nonzero;stroke:none" />

<path
   d="M 3412.5,997.7 L 3236.8,498.38 C 3223.9,533.7 3179.5,558.04 3117.2,558.04 C 2954.5,558.04 403.96,558.04 350.94,558.04 C 315.92,558.04 281.16,546.61 257.13,526.75 C 330.31,726.72 406.54,935.19 431.52,1005.3 C 457.09,1076.9 357.68,1100.5 357.68,1100.5 L 3292.3,1100.5 C 3292.3,1100.5 3362.2,1103.5 3397.9,1076.6 C 3433.4,1049.6 3412.5,997.7 3412.5,997.7 z M 3414,1096.9 C 3373.5,1127.6 3292.8,1125.7 3292.8,1125.7 L 359.16,1125.7 C 346.48,1125.7 335.25,1116.2 332.89,1103.7 C 330.53,1091.1 337.81,1079.3 349.88,1076.1 C 384.72,1066.8 420.35,1042.2 407.92,1012.6 C 407.85,1012.6 355.29,870 355.29,870 C 255.54,596.64 88.594,139.14 75.918,102.6 C 66.074,74.199 29.902,53.879 16.789,48.449 C 5.5078,43.758 -1.4453,31.93 0.25391,20.199 C 1.9727,8.4609 11.738,0.019531 23.73,0.019531 C 23.73,0.019531 2970.6,0.14063 2971.5,0.14063 C 2980.1,-0.26172 3031.3,-1.5117 3069.4,23.371 C 3109.2,49.102 3128.8,114.49 3131.7,125.26 C 3132.2,126.51 3432.6,980.07 3436.2,990.37 C 3447.7,1018.1 3453,1067.3 3414,1096.9 z M 3069.5,23.441 C 3069.5,23.398 3069.5,23.398 3069.4,23.371 C 3069.4,23.359 3069.4,23.34 3069.4,23.34 C 3069.4,23.371 3069.5,23.398 3069.5,23.441"
   id="path32"
   style="fill:#2462ab;fill-opacity:1;fill-rule:nonzero;stroke:none" />

<path
   d="M 1819,466.23 C 1817.2,487.41 1816.9,502.05 1849.1,502.05 C 1866.8,502.05 1895.8,502.05 1895.8,502.05 C 1920.1,502.05 1935.2,500.82 1940,454.2 C 1940.1,454.09 1959.7,279.33 1959.6,279.36 C 1963.9,219.61 2002.5,251.19 2030.5,293.23 C 2030.8,293.57 2123.1,423.09 2162.4,478.14 C 2173,493.02 2182.8,502.4 2198.7,502.4 C 2214.5,502.4 2219.9,502.29 2231.8,502.29 C 2243.8,502.29 2247.4,491.41 2234.7,473.38 C 2172.8,384.96 1989.3,122.72 1977.6,106.08 C 1963.6,86.039 1950.2,81.75 1932.5,81.75 C 1932.6,81.641 1888.7,81.641 1888.5,81.75 C 1868.2,81.75 1851.5,98.648 1849.1,130.8 C 1848.4,140.16 1836.9,271.42 1832.7,310.82 C 1832.6,312.03 1823.9,411.21 1819,466.23"
   id="path34"
   style="fill:#ffffff;fill-rule:nonzero;stroke:none" />

<path
   d="M 1397.7,129.5 C 1393.6,117.85 1390.7,82.828 1424.1,82.828 C 1443.3,82.828 1462.4,82.781 1480.1,82.781 C 1511.1,82.781 1516.5,101.13 1526.8,129.52 C 1526.8,129.52 1581.7,277.13 1608.4,347.43 C 1631.7,408.51 1682.8,434.9 1719.3,439.69 C 1773.3,444.21 1775.4,447.21 1784.6,469.98 C 1797.3,501.57 1796.2,502.2 1733.2,502.2 C 1733.4,502.17 1457.8,502.13 1457.8,502.2 C 1389.8,502.44 1386.9,502.8 1372.8,470.3 C 1363,447.78 1376.7,439.69 1414,439.69 C 1484.4,439.69 1489.3,377.17 1478.8,347.82 C 1468.2,318.46 1397.7,129.5 1397.7,129.5"
   id="path36"
   style="fill:#ffffff;fill-rule:nonzero;stroke:none" />

</g>

</g>
    </g>
  </g>
</svg>
