<?xml version="1.0" encoding="UTF-8" standalone="yes"?>
<svg xmlns="http://www.w3.org/2000/svg" xmlns:xlink="http://www.w3.org/1999/xlink" width="325.3333333333333px" height="106.66666666666666px" viewBox="0 0 244 80" version="1.1">
  <defs>
    <clipPath id="clip1">
      <path d="M 0 0 L 243.882812 0 L 243.882812 79.859375 L 0 79.859375 Z M 0 0 "/>
    </clipPath>
  </defs>
  <g id="surface1">
    <path style=" stroke:none;fill-rule:nonzero;fill:rgb(14.117647%,38.431373%,67.058824%);fill-opacity:1;" d="M 185.96875 17.125 C 185.976562 17.152344 187.652344 12.691406 187.625 12.691406 C 188.035156 11.601562 188.417969 11.097656 189.394531 10.699219 C 190.363281 10.300781 192.460938 10.527344 193.324219 10.851562 C 196.042969 11.878906 196.417969 14.265625 195.347656 15.964844 C 194.472656 17.378906 193.082031 18.332031 191.574219 18.957031 C 191.191406 19.089844 188.296875 20.308594 186.472656 19.421875 C 185.8125 18.984375 185.613281 18.105469 185.96875 17.125 Z M 171.496094 31.292969 C 170.335938 34.289062 166.46875 35.996094 166.476562 36.015625 C 168.507812 36.015625 171.984375 36.015625 174.03125 36.015625 C 176.332031 36.015625 177.804688 35.949219 179.328125 34.289062 C 179.828125 33.746094 180.148438 33.019531 180.460938 32.136719 C 180.46875 32.113281 182.546875 26.378906 182.535156 26.367188 C 183.441406 23.738281 183.519531 24.171875 185.324219 24.171875 C 187.109375 24.171875 187.753906 24.1875 187.84375 25.207031 C 187.929688 25.839844 189.152344 34.195312 189.152344 34.195312 C 189.152344 34.195312 189.203125 34.710938 189.863281 35.304688 C 190.597656 35.972656 191.640625 35.976562 191.640625 35.976562 L 195.808594 35.976562 C 195.808594 35.976562 196.636719 35.980469 196.957031 35.328125 C 197.269531 34.679688 197.085938 34.195312 197.085938 34.195312 C 197.085938 34.195312 195.632812 26.824219 195.3125 25.554688 C 194.996094 24.289062 195.535156 23.75 196.546875 23.265625 C 197.996094 22.574219 199.773438 21.308594 200.730469 20.269531 C 202.535156 18.304688 205.210938 14.550781 204.050781 10.496094 C 203.316406 7.917969 199.988281 6.832031 197.679688 6.433594 C 194.933594 5.964844 189.191406 6.15625 189.191406 6.15625 L 177.03125 6.15625 C 177.03125 6.15625 179.859375 7.78125 178.953125 10.496094 C 178.050781 13.210938 172.65625 28.300781 171.496094 31.292969 "/>
    <path style=" stroke:none;fill-rule:nonzero;fill:rgb(14.117647%,38.431373%,67.058824%);fill-opacity:1;" d="M 209.53125 33.488281 C 207.03125 33.488281 204.539062 32.792969 203.316406 32.792969 C 201.882812 32.792969 200.625 34.265625 202.238281 35.421875 C 203.882812 36.609375 207.582031 36.933594 209.515625 36.996094 C 217.59375 37.253906 224.917969 35.179688 227.839844 28.992188 C 228.28125 28.058594 228.597656 27.050781 228.726562 25.980469 C 228.824219 25.128906 228.796875 24.261719 228.5 23.253906 C 228.039062 21.726562 226.992188 20.796875 225.703125 20.125 C 224.128906 19.300781 220.355469 18.34375 218.691406 17.644531 C 217.984375 17.347656 215.9375 16.46875 215.710938 14.921875 C 215.5625 13.914062 215.855469 13.039062 216.355469 12.320312 C 218.289062 9.554688 222.464844 8.371094 225.871094 8.753906 C 228.875 9.09375 229.941406 8.796875 230.191406 7.386719 C 230.523438 5.492188 224.71875 5.148438 221.84375 5.148438 C 218.960938 5.148438 216.230469 5.964844 215.613281 6.15625 C 212.554688 7.117188 210.410156 9.023438 208.773438 11.699219 C 207.972656 13.015625 207.40625 14.515625 207.300781 16.148438 C 207.214844 17.367188 207.421875 18.945312 208.363281 20.183594 C 209.695312 21.933594 215.152344 23.621094 217.007812 24.460938 C 217.707031 24.78125 219.328125 25.277344 219.742188 26.707031 C 220.613281 31.105469 213.707031 33.488281 209.53125 33.488281 "/>
    <path style=" stroke:none;fill-rule:nonzero;fill:rgb(14.117647%,38.431373%,67.058824%);fill-opacity:1;" d="M 93.089844 32.210938 C 98.34375 30.574219 102.421875 23.75 103.78125 18.386719 C 105.011719 13.507812 103.746094 7.710938 97.429688 9.667969 C 92.699219 11.140625 87.902344 17.589844 86.605469 23.191406 C 85.140625 29.570312 88.246094 33.710938 93.089844 32.210938 Z M 89.117188 36.945312 C 79.816406 36.945312 74.730469 30.226562 77.890625 21.703125 C 79.59375 17.113281 82.539062 13.097656 86.222656 10.3125 C 90.542969 7.03125 95.527344 5.148438 101.183594 5.148438 C 110.21875 5.148438 115.359375 11.949219 112.015625 20.964844 C 108.488281 30.472656 98.699219 36.945312 89.117188 36.945312 "/>
    <path style=" stroke:none;fill-rule:nonzero;fill:rgb(14.117647%,38.431373%,67.058824%);fill-opacity:1;" d="M 74.980469 6.113281 C 73.648438 6.113281 73.664062 6.113281 72.140625 6.113281 C 69.152344 6.113281 67.003906 6.773438 65.882812 8.824219 C 65.882812 8.824219 57.394531 20.433594 57.375 20.464844 C 55.324219 23.550781 52.5 25.867188 52.183594 21.484375 C 52.191406 21.488281 50.722656 11.648438 50.714844 11.640625 C 49.964844 7.265625 48.261719 6.113281 46.480469 6.113281 L 37.109375 6.113281 C 37.109375 6.113281 39.53125 9.496094 38.121094 13.492188 C 37.410156 15.503906 32.867188 27.5 31.988281 29.773438 C 30.195312 34.402344 27.832031 36 27.832031 36 C 27.832031 36 32.347656 36 33.746094 36 C 35.140625 36 36.136719 34.652344 37.460938 31.039062 C 38.078125 29.378906 41.753906 19.414062 41.847656 19.160156 C 41.894531 19.03125 42.019531 18.464844 42.507812 18.464844 C 42.910156 18.464844 42.878906 19.054688 42.890625 19.175781 C 43.203125 22.066406 44.042969 31.695312 44.09375 32.382812 C 44.269531 34.738281 45.492188 35.976562 46.980469 35.976562 C 46.988281 35.988281 50.207031 35.988281 50.195312 35.976562 C 51.496094 35.976562 52.472656 35.664062 53.5 34.195312 C 54.53125 32.726562 64.214844 19.230469 64.214844 19.230469 C 64.53125 18.667969 65.078125 18.339844 65.402344 18.449219 C 65.8125 18.589844 65.84375 18.976562 65.6875 19.417969 C 64.503906 22.636719 61.09375 31.835938 60.828125 32.554688 C 60.046875 34.644531 60.429688 35.976562 62.4375 35.976562 C 63.84375 35.976562 65.421875 35.980469 66.714844 35.980469 C 68.980469 35.980469 69.851562 33.605469 70.277344 32.554688 C 70.640625 31.671875 76.042969 16.835938 78.292969 10.726562 C 79.347656 7.753906 78.023438 6.113281 74.980469 6.113281 "/>
    <path style=" stroke:none;fill-rule:nonzero;fill:rgb(14.117647%,38.431373%,67.058824%);fill-opacity:1;" d="M 115.394531 32.476562 C 115.09375 33.332031 114.875 35.898438 117.324219 35.898438 C 118.726562 35.898438 120.128906 35.902344 121.425781 35.902344 C 123.691406 35.902344 124.09375 34.558594 124.84375 32.476562 C 124.84375 32.476562 128.859375 21.648438 130.820312 16.492188 C 132.519531 12.011719 136.265625 10.074219 138.933594 9.722656 C 142.886719 9.394531 143.039062 9.171875 143.714844 7.503906 C 144.648438 5.1875 144.5625 5.136719 139.953125 5.136719 C 139.96875 5.144531 119.789062 5.144531 119.789062 5.136719 C 114.8125 5.121094 114.605469 5.09375 113.574219 7.476562 C 112.851562 9.132812 113.855469 9.722656 116.582031 9.722656 C 121.738281 9.722656 122.105469 14.308594 121.324219 16.464844 C 120.554688 18.617188 115.394531 32.476562 115.394531 32.476562 "/>
    <path style=" stroke:none;fill-rule:nonzero;fill:rgb(14.117647%,38.431373%,67.058824%);fill-opacity:1;" d="M 151.742188 32.210938 C 157.003906 30.574219 161.082031 23.75 162.441406 18.386719 C 163.671875 13.507812 162.40625 7.710938 156.089844 9.667969 C 151.359375 11.140625 146.558594 17.589844 145.265625 23.191406 C 143.796875 29.570312 146.90625 33.710938 151.742188 32.210938 Z M 147.777344 36.945312 C 138.472656 36.945312 133.390625 30.226562 136.546875 21.703125 C 138.253906 17.113281 141.199219 13.097656 144.882812 10.3125 C 149.199219 7.03125 154.183594 5.148438 159.84375 5.148438 C 168.875 5.148438 174.015625 11.949219 170.675781 20.964844 C 167.148438 30.472656 157.355469 36.945312 147.777344 36.945312 "/>
    <path style=" stroke:none;fill-rule:nonzero;fill:rgb(100%,100%,100%);fill-opacity:1;" d="M 128.789062 46.785156 C 128.660156 45.28125 128.640625 44.242188 130.917969 44.242188 C 132.171875 44.242188 134.226562 44.242188 134.226562 44.242188 C 135.945312 44.242188 137.015625 44.332031 137.355469 47.636719 C 137.363281 47.644531 138.75 60.042969 138.742188 60.039062 C 139.046875 64.28125 141.78125 62.039062 143.761719 59.058594 C 143.785156 59.03125 150.320312 49.84375 153.101562 45.9375 C 153.851562 44.882812 154.546875 44.21875 155.671875 44.21875 C 156.789062 44.21875 157.171875 44.226562 158.015625 44.226562 C 158.863281 44.226562 159.121094 44.996094 158.222656 46.277344 C 153.839844 52.550781 140.847656 71.152344 140.019531 72.332031 C 139.027344 73.753906 138.078125 74.058594 136.824219 74.058594 C 136.832031 74.066406 133.722656 74.066406 133.710938 74.058594 C 132.273438 74.058594 131.089844 72.859375 130.917969 70.582031 C 130.871094 69.917969 130.054688 60.605469 129.757812 57.808594 C 129.75 57.722656 129.136719 50.6875 128.789062 46.785156 "/>
    <path style=" stroke:none;fill-rule:nonzero;fill:rgb(100%,100%,100%);fill-opacity:1;" d="M 98.960938 70.671875 C 98.667969 71.5 98.464844 73.984375 100.828125 73.984375 C 102.1875 73.984375 103.539062 73.988281 104.792969 73.988281 C 106.988281 73.988281 107.371094 72.683594 108.101562 70.671875 C 108.101562 70.671875 111.988281 60.199219 113.878906 55.210938 C 115.527344 50.878906 119.144531 49.007812 121.730469 48.667969 C 125.554688 48.347656 125.703125 48.132812 126.351562 46.519531 C 127.253906 44.277344 127.175781 44.230469 122.714844 44.230469 C 122.726562 44.234375 103.214844 44.238281 103.214844 44.230469 C 98.402344 44.214844 98.195312 44.191406 97.195312 46.496094 C 96.503906 48.09375 97.472656 48.667969 100.113281 48.667969 C 105.097656 48.667969 105.445312 53.101562 104.703125 55.183594 C 103.953125 57.265625 98.960938 70.671875 98.960938 70.671875 "/>
    <g clip-path="url(#clip1)" clip-rule="nonzero">
      <path style=" stroke:none;fill-rule:nonzero;fill:rgb(14.117647%,38.431373%,67.058824%);fill-opacity:1;" d="M 241.609375 9.082031 L 229.171875 44.503906 C 228.257812 41.996094 225.113281 40.269531 220.703125 40.269531 C 209.183594 40.269531 28.601562 40.269531 24.847656 40.269531 C 22.367188 40.269531 19.90625 41.082031 18.207031 42.492188 C 23.386719 28.304688 28.785156 13.515625 30.550781 8.542969 C 32.363281 3.460938 25.324219 1.789062 25.324219 1.789062 L 233.101562 1.789062 C 233.101562 1.789062 238.050781 1.574219 240.578125 3.484375 C 243.089844 5.398438 241.609375 9.082031 241.609375 9.082031 Z M 241.71875 2.042969 C 238.851562 -0.136719 233.136719 0 233.136719 0 L 25.429688 0 C 24.53125 0 23.734375 0.675781 23.570312 1.5625 C 23.402344 2.453125 23.917969 3.292969 24.773438 3.519531 C 27.238281 4.179688 29.761719 5.921875 28.882812 8.023438 C 28.875 8.023438 25.15625 18.140625 25.15625 18.140625 C 18.09375 37.53125 6.273438 69.988281 5.375 72.582031 C 4.679688 74.59375 2.117188 76.035156 1.1875 76.421875 C 0.390625 76.753906 -0.101562 77.59375 0.0195312 78.425781 C 0.140625 79.257812 0.832031 79.859375 1.679688 79.859375 C 1.679688 79.859375 210.324219 79.847656 210.386719 79.847656 C 210.996094 79.878906 214.621094 79.964844 217.320312 78.203125 C 220.136719 76.375 221.523438 71.738281 221.730469 70.972656 C 221.765625 70.882812 243.035156 10.332031 243.289062 9.601562 C 244.105469 7.632812 244.480469 4.144531 241.71875 2.042969 Z M 217.328125 78.195312 C 217.328125 78.199219 217.328125 78.199219 217.320312 78.203125 C 217.320312 78.203125 217.328125 78.199219 217.328125 78.195312 "/>
    </g>
  </g>
</svg>