<?xml version="1.0" encoding="UTF-8" ?>
<!DOCTYPE svg PUBLIC "-//W3C//DTD SVG 1.1//EN" "http://www.w3.org/Graphics/SVG/1.1/DTD/svg11.dtd">
<svg width="800pt" height="300pt" viewBox="0 0 800 300" version="1.1" xmlns="http://www.w3.org/2000/svg">
<g id="#858988ff">
<path fill="#858988" opacity="1.00" d=" M 143.02 24.39 C 144.68 24.61 146.22 23.63 147.85 23.75 C 152.49 24.99 157.35 23.93 162.06 24.77 C 171.95 26.09 181.91 28.11 191.12 32.00 C 181.60 29.04 171.98 26.27 162.03 25.25 C 153.52 24.61 145.03 24.42 136.52 25.04 C 125.27 25.45 114.42 28.88 103.70 32.04 C 106.08 30.74 108.74 30.11 111.32 29.32 C 121.61 26.36 132.25 24.02 143.02 24.39 Z" />
<path fill="#858988" opacity="1.00" d=" M 529.00 99.52 C 530.89 94.78 535.52 91.45 540.33 90.15 C 535.75 92.14 531.53 95.11 529.00 99.52 Z" />
<path fill="#858988" opacity="1.00" d=" M 592.55 92.11 C 598.95 95.83 602.07 103.56 602.85 110.63 C 595.77 111.43 588.65 111.70 581.59 112.51 C 581.41 112.25 581.04 111.72 580.86 111.46 C 583.16 112.21 585.57 111.68 587.91 111.42 C 592.72 110.77 597.59 110.90 602.41 110.34 C 601.59 103.30 598.30 96.43 592.55 92.11 Z" />
<path fill="#858988" opacity="1.00" d=" M 526.88 117.98 C 527.27 111.87 525.74 105.09 528.99 99.54 C 526.58 106.11 527.46 113.18 527.33 120.02 C 527.26 125.69 529.73 131.25 534.27 134.71 C 528.40 131.55 526.60 124.19 526.88 117.98 Z" />
<path fill="#858988" opacity="1.00" d=" M 264.00 103.94 C 267.78 111.30 269.21 119.69 271.08 127.72 C 272.28 137.40 273.89 147.23 272.69 156.99 C 272.08 170.38 269.29 183.73 264.23 196.16 L 264.27 195.49 C 267.17 186.84 270.03 178.09 271.04 168.97 C 274.49 147.17 271.79 124.57 264.00 103.94 Z" />
<path fill="#858988" opacity="1.00" d=" M 548.86 111.78 C 548.88 108.58 551.92 106.35 554.91 106.19 C 559.28 105.91 563.66 106.20 568.04 106.10 C 571.21 106.16 574.49 105.73 577.57 106.73 C 570.35 106.55 563.13 106.66 555.91 106.64 C 553.13 106.43 549.79 107.95 549.43 111.02 C 548.75 114.63 548.69 119.81 552.86 121.28 C 565.23 122.67 578.03 119.99 590.21 123.05 C 579.88 121.46 569.41 122.23 559.01 122.08 C 556.22 121.94 552.87 122.55 550.69 120.38 C 548.18 118.29 548.76 114.66 548.86 111.78 Z" />
<path fill="#858988" opacity="1.00" d=" M 473.81 119.51 C 473.99 119.39 474.33 119.16 474.50 119.04 C 475.35 121.40 476.77 123.66 476.83 126.23 C 476.16 124.35 475.50 122.47 474.91 120.57 L 473.75 120.96 C 472.22 123.98 471.27 127.26 470.11 130.44 C 470.63 126.64 472.55 123.11 473.81 119.51 Z" />
<path fill="#858988" opacity="1.00" d=" M 534.45 134.82 C 539.94 137.32 546.05 137.82 551.99 138.23 C 559.66 138.07 567.33 138.31 575.00 138.11 C 578.11 137.67 581.24 140.41 581.23 143.56 C 581.61 147.07 581.54 151.95 577.49 153.29 C 572.50 154.74 567.16 153.61 562.03 153.96 C 558.31 153.64 553.68 155.08 550.74 152.10 C 552.04 152.75 553.40 153.46 554.93 153.33 C 561.63 153.35 568.33 153.33 575.04 153.33 C 577.20 153.35 579.62 152.15 580.41 150.03 C 581.53 146.00 581.56 140.23 576.92 138.46 C 571.94 138.87 566.92 137.90 561.94 138.66 C 557.63 138.49 553.31 138.17 549.01 138.70 C 544.15 137.50 538.66 137.93 534.45 134.82 Z" />
<path fill="#858988" opacity="1.00" d=" M 538.01 148.13 C 541.76 148.10 545.51 147.18 549.26 147.82 C 542.06 148.35 534.84 148.41 527.64 149.02 C 528.01 151.47 528.42 153.91 528.95 156.32 C 527.74 153.84 527.33 151.08 527.23 148.34 C 530.81 148.00 534.41 148.16 538.01 148.13 Z" />
<path fill="#858988" opacity="1.00" d=" M 592.84 168.73 C 597.97 165.75 601.83 160.82 602.69 154.85 C 602.69 160.86 598.26 166.46 592.84 168.73 Z" />
<path fill="#858988" opacity="1.00" d=" M 529.06 156.62 C 530.74 160.54 533.08 164.13 536.11 167.13 C 532.65 164.60 530.08 160.79 529.06 156.62 Z" />
<path fill="#858988" opacity="1.00" d=" M 536.80 167.69 C 540.24 169.41 543.86 170.76 547.57 171.78 C 543.70 171.46 539.91 169.99 536.80 167.69 Z" />
<path fill="#858988" opacity="1.00" d=" M 40.45 196.77 C 47.36 199.84 54.78 201.40 62.20 202.67 C 58.92 204.00 56.15 206.29 52.92 207.67 C 50.63 207.61 48.33 207.34 46.04 207.64 L 45.74 207.67 C 44.02 204.01 41.99 200.51 40.45 196.77 Z" />
<path fill="#858988" opacity="1.00" d=" M 223.66 249.61 C 223.98 247.88 225.66 247.01 227.26 246.80 C 227.26 248.36 225.14 249.79 223.66 249.61 Z" />
<path fill="#858988" opacity="1.00" d=" M 159.98 274.95 C 170.68 274.08 181.04 271.14 191.26 268.02 C 181.66 271.88 171.42 274.02 161.17 275.32 C 156.71 276.07 152.13 275.03 147.74 276.28 C 140.48 275.13 132.94 275.94 125.74 273.99 C 129.03 274.13 132.27 274.90 135.57 274.94 C 139.65 274.88 143.70 275.33 147.77 275.55 C 151.83 275.15 155.90 275.01 159.98 274.95 Z" />
</g>
<g id="#4d0607ff">
<path fill="#4d0607" opacity="1.00" d=" M 103.70 32.04 C 114.42 28.88 125.27 25.45 136.52 25.04 C 141.08 27.05 146.14 25.82 150.94 26.13 C 156.81 26.55 163.25 26.26 168.39 29.60 C 174.81 33.16 180.53 37.83 186.79 41.64 C 186.11 41.78 184.74 42.05 184.06 42.18 C 184.59 42.60 185.65 43.43 186.19 43.84 C 178.91 45.09 171.61 46.26 164.49 48.23 C 160.80 49.17 157.11 50.08 153.47 51.20 C 145.04 43.98 134.26 40.05 123.64 37.28 C 117.10 35.72 110.43 34.17 103.66 34.68 C 102.04 34.71 100.44 34.50 98.84 34.27 C 100.45 34.11 102.36 33.76 103.19 32.18 L 103.70 32.04 Z" />
</g>
<g id="#3d0204ff">
<path fill="#3d0204" opacity="1.00" d=" M 136.52 25.04 C 145.03 24.42 153.52 24.61 162.03 25.25 C 171.98 26.27 181.60 29.04 191.12 32.00 L 191.34 32.09 C 197.05 34.92 202.89 37.50 208.67 40.17 L 209.50 40.52 C 201.76 41.81 193.91 42.39 186.19 43.84 C 185.65 43.43 184.59 42.60 184.06 42.18 C 184.74 42.05 186.11 41.78 186.79 41.64 C 180.53 37.83 174.81 33.16 168.39 29.60 C 163.25 26.26 156.81 26.55 150.94 26.13 C 146.14 25.82 141.08 27.05 136.52 25.04 Z" />
</g>
<g id="#53383698">
<path fill="#533836" opacity="0.60" d=" M 98.84 34.27 C 98.93 32.56 101.76 31.85 103.19 32.18 C 102.36 33.76 100.45 34.11 98.84 34.27 Z" />
</g>
<g id="#442d2c95">
<path fill="#442d2c" opacity="0.58" d=" M 191.34 32.09 C 194.64 32.36 197.52 34.27 200.55 35.47 C 203.26 37.01 206.43 37.94 208.67 40.17 C 202.89 37.50 197.05 34.92 191.34 32.09 Z" />
</g>
<g id="#812a25ff">
<path fill="#812a25" opacity="1.00" d=" M 96.41 34.92 C 97.14 34.37 97.95 34.16 98.84 34.27 C 100.44 34.50 102.04 34.71 103.66 34.68 C 102.62 37.70 105.72 38.96 107.19 41.01 C 107.28 42.29 106.58 43.47 106.26 44.67 C 107.55 45.27 108.96 45.48 110.37 45.62 C 112.61 48.72 115.33 51.97 119.14 53.09 C 120.14 54.28 120.87 55.79 122.19 56.66 C 123.87 57.15 125.59 57.45 127.29 57.83 C 125.64 58.96 123.96 60.04 122.26 61.09 C 122.47 61.50 122.89 62.34 123.10 62.75 C 112.92 67.63 102.94 73.03 93.84 79.75 C 93.57 77.67 93.06 75.57 91.36 74.18 C 89.04 76.47 85.33 74.92 85.04 71.77 C 83.32 71.19 81.46 70.94 79.89 70.01 C 77.52 66.05 71.71 63.88 72.53 58.45 C 71.40 58.52 70.28 58.59 69.16 58.65 C 68.69 57.21 68.57 55.70 68.58 54.19 C 65.90 56.38 63.83 60.19 59.89 59.87 C 62.60 57.68 64.71 54.38 67.97 53.10 C 69.68 53.16 70.84 51.94 71.24 50.38 C 75.13 46.29 80.46 43.52 85.31 40.56 C 85.40 40.52 85.57 40.43 85.66 40.39 L 86.40 40.06 C 89.94 38.77 93.32 37.08 96.41 34.92 Z" />
</g>
<g id="#5d38349e">
<path fill="#5d3834" opacity="0.62" d=" M 86.40 40.06 C 89.26 37.69 92.90 36.14 96.41 34.92 C 93.32 37.08 89.94 38.77 86.40 40.06 Z" />
</g>
<g id="#7e1c1dff">
<path fill="#7e1c1d" opacity="1.00" d=" M 103.66 34.68 C 110.43 34.17 117.10 35.72 123.64 37.28 C 134.26 40.05 145.04 43.98 153.47 51.20 C 147.09 53.19 140.68 55.16 134.54 57.83 C 130.67 59.33 126.84 60.95 123.10 62.75 C 122.89 62.34 122.47 61.50 122.26 61.09 C 123.96 60.04 125.64 58.96 127.29 57.83 C 125.59 57.45 123.87 57.15 122.19 56.66 C 120.87 55.79 120.14 54.28 119.14 53.09 C 115.33 51.97 112.61 48.72 110.37 45.62 C 108.96 45.48 107.55 45.27 106.26 44.67 C 106.58 43.47 107.28 42.29 107.19 41.01 C 105.72 38.96 102.62 37.70 103.66 34.68 Z" />
</g>
<g id="#5b49467e">
<path fill="#5b4946" opacity="0.49" d=" M 85.31 40.56 C 85.40 40.52 85.57 40.43 85.66 40.39 C 85.57 40.43 85.40 40.52 85.31 40.56 Z" />
</g>
<g id="#8d9190ff">
<path fill="#8d9190" opacity="1.00" d=" M 209.50 40.52 L 209.96 40.42 C 210.04 40.72 210.18 41.31 210.26 41.61 C 205.81 41.22 201.52 42.41 197.12 42.47 C 197.32 45.52 201.59 45.27 203.43 47.24 C 199.92 48.07 196.68 50.15 192.98 49.99 C 186.60 50.24 180.23 48.80 173.87 49.68 C 170.68 50.03 167.07 50.64 164.49 48.23 C 171.61 46.26 178.91 45.09 186.19 43.84 C 193.91 42.39 201.76 41.81 209.50 40.52 Z" />
</g>
<g id="#a0a3a0ff">
<path fill="#a0a3a0" opacity="1.00" d=" M 203.43 47.24 C 216.24 54.24 227.84 63.76 237.17 75.00 C 241.31 75.71 245.95 75.17 250.01 76.99 L 249.39 76.90 C 242.65 75.51 235.72 75.79 228.92 74.92 C 224.73 73.97 220.39 74.03 216.25 72.85 C 217.62 66.06 210.77 62.09 205.91 59.04 C 195.20 53.57 182.80 52.96 171.01 53.18 C 164.59 53.05 158.28 54.34 151.94 55.12 C 146.08 55.77 140.57 59.09 134.54 57.83 C 140.68 55.16 147.09 53.19 153.47 51.20 C 157.11 50.08 160.80 49.17 164.49 48.23 C 167.07 50.64 170.68 50.03 173.87 49.68 C 180.23 48.80 186.60 50.24 192.98 49.99 C 196.68 50.15 199.92 48.07 203.43 47.24 Z" />
</g>
<g id="#6a3d38bc">
<path fill="#6a3d38" opacity="0.74" d=" M 67.78 52.63 C 68.45 51.53 69.82 49.92 71.24 50.38 C 70.84 51.94 69.68 53.16 67.97 53.10 L 67.78 52.63 Z" />
</g>
<g id="#b5b7b4ff">
<path fill="#b5b7b4" opacity="1.00" d=" M 151.94 55.12 C 158.28 54.34 164.59 53.05 171.01 53.18 C 182.80 52.96 195.20 53.57 205.91 59.04 C 210.77 62.09 217.62 66.06 216.25 72.85 C 220.39 74.03 224.73 73.97 228.92 74.92 C 223.15 74.64 217.32 74.45 211.58 75.22 C 202.53 75.28 193.59 76.78 184.63 77.88 L 183.84 77.98 C 190.02 76.14 196.50 75.21 202.93 74.76 C 202.18 74.41 201.43 74.04 200.68 73.68 C 200.35 71.22 200.35 68.41 198.53 66.49 C 189.42 59.24 177.34 57.55 166.03 57.83 C 142.88 58.56 120.47 66.82 100.83 78.79 C 89.72 86.05 79.33 94.68 71.32 105.35 C 66.58 111.26 61.77 118.28 62.68 126.25 C 61.13 125.97 59.58 125.68 58.03 125.39 C 57.58 125.21 56.69 124.86 56.25 124.68 C 59.02 117.83 62.47 111.24 67.02 105.39 C 74.40 95.38 83.82 87.04 93.84 79.75 C 102.94 73.03 112.92 67.63 123.10 62.75 C 126.84 60.95 130.67 59.33 134.54 57.83 C 140.57 59.09 146.08 55.77 151.94 55.12 Z" />
</g>
<g id="#833730ff">
<path fill="#833730" opacity="1.00" d=" M 59.89 59.87 C 63.83 60.19 65.90 56.38 68.58 54.19 C 68.57 55.70 68.69 57.21 69.16 58.65 C 70.28 58.59 71.40 58.52 72.53 58.45 C 71.71 63.88 77.52 66.05 79.89 70.01 C 81.46 70.94 83.32 71.19 85.04 71.77 C 85.33 74.92 89.04 76.47 91.36 74.18 C 93.06 75.57 93.57 77.67 93.84 79.75 C 83.82 87.04 74.40 95.38 67.02 105.39 C 66.25 102.36 64.32 99.86 62.73 97.23 C 61.50 97.32 60.27 97.41 59.04 97.50 C 58.36 96.30 57.67 95.11 56.99 93.91 C 55.96 94.90 54.93 95.88 53.90 96.86 C 53.52 95.45 53.14 94.04 52.77 92.63 C 51.68 93.05 50.59 93.43 49.48 93.78 C 49.09 91.03 47.62 88.76 45.29 87.28 C 44.71 88.02 44.12 88.76 43.54 89.50 C 42.59 89.16 41.64 88.81 40.69 88.48 C 39.89 89.30 39.09 90.13 38.29 90.95 C 38.20 90.43 38.02 89.37 37.92 88.84 C 41.91 81.18 47.05 74.17 52.58 67.56 C 53.43 66.74 54.05 65.51 55.28 65.20 C 56.83 64.92 58.14 63.87 58.12 62.18 C 58.35 61.19 58.94 60.42 59.89 59.87 Z" />
</g>
<g id="#cecec9ff">
<path fill="#cecec9" opacity="1.00" d=" M 100.83 78.79 C 120.47 66.82 142.88 58.56 166.03 57.83 C 177.34 57.55 189.42 59.24 198.53 66.49 C 200.35 68.41 200.35 71.22 200.68 73.68 C 201.43 74.04 202.18 74.41 202.93 74.76 C 196.50 75.21 190.02 76.14 183.84 77.98 L 183.35 78.07 C 181.72 77.55 180.08 77.04 178.45 76.54 C 180.58 74.91 185.10 72.98 183.41 69.66 C 174.15 62.96 161.90 62.38 150.95 63.87 C 142.14 64.45 133.80 67.58 125.57 70.52 C 118.87 73.26 112.23 76.19 106.06 80.01 C 97.54 84.84 90.14 91.32 82.92 97.86 C 77.65 104.33 71.33 110.34 68.39 118.33 C 67.36 121.01 68.89 123.63 70.44 125.72 C 70.02 126.12 69.19 126.91 68.78 127.31 C 66.75 126.97 64.71 126.61 62.68 126.25 C 61.77 118.28 66.58 111.26 71.32 105.35 C 79.33 94.68 89.72 86.05 100.83 78.79 Z" />
</g>
<g id="#6c423cbc">
<path fill="#6c423c" opacity="0.74" d=" M 55.28 65.20 C 54.80 63.89 56.80 61.70 58.12 62.18 C 58.14 63.87 56.83 64.92 55.28 65.20 Z" />
</g>
<g id="#dfdfdcff">
<path fill="#dfdfdc" opacity="1.00" d=" M 150.95 63.87 C 161.90 62.38 174.15 62.96 183.41 69.66 C 185.10 72.98 180.58 74.91 178.45 76.54 C 180.08 77.04 181.72 77.55 183.35 78.07 C 160.55 82.18 137.99 89.36 118.10 101.44 C 118.14 101.61 118.22 101.95 118.27 102.13 C 123.82 103.40 129.37 104.73 134.96 105.81 C 134.32 106.46 133.63 107.06 132.90 107.60 C 135.32 107.49 137.15 109.13 139.31 109.90 C 150.63 113.00 162.17 115.27 173.34 118.90 C 187.42 122.73 201.24 128.34 213.05 137.03 C 218.62 142.18 224.76 147.53 226.79 155.16 C 231.31 167.93 227.00 182.25 218.29 192.18 C 218.42 192.71 218.68 193.79 218.81 194.33 C 209.36 202.17 198.46 208.03 187.30 213.03 C 182.19 215.22 177.03 217.30 171.82 219.24 C 155.47 225.17 138.62 229.68 121.51 232.80 C 121.28 232.35 120.81 231.44 120.58 230.99 C 111.38 230.37 101.71 229.99 93.44 225.39 C 89.79 223.70 87.00 220.47 85.56 216.75 C 86.03 211.46 91.64 209.43 95.96 207.99 C 101.31 206.60 106.79 205.76 112.16 204.48 C 117.20 203.24 122.51 203.31 127.45 201.66 C 135.30 198.77 143.60 197.39 151.41 194.39 C 159.38 192.08 166.99 188.75 174.56 185.39 C 179.62 182.57 185.16 180.33 189.45 176.35 C 189.35 175.85 189.13 174.84 189.03 174.33 C 192.08 172.49 194.99 170.41 197.71 168.10 C 200.69 171.81 197.02 175.87 194.40 178.46 C 189.93 182.14 184.95 185.24 179.70 187.68 C 167.72 193.80 154.99 198.24 142.20 202.29 C 135.64 203.98 129.10 205.70 122.64 207.71 C 116.96 209.50 110.95 210.19 105.46 212.55 C 103.94 213.08 103.08 214.49 102.12 215.69 C 108.84 224.25 120.81 225.84 130.97 224.86 C 146.44 222.53 161.58 218.11 175.95 211.93 C 190.17 206.42 203.72 198.39 214.23 187.22 C 219.36 180.32 223.04 171.76 221.96 163.00 C 221.44 156.61 217.23 151.41 213.28 146.70 C 201.76 135.58 186.34 129.83 171.14 125.76 C 156.43 120.98 141.18 118.18 126.37 113.72 C 122.14 112.59 117.96 109.83 116.35 105.62 C 116.29 103.00 116.74 100.28 117.86 97.90 C 120.17 95.43 122.76 93.13 125.83 91.66 C 134.40 87.15 143.35 83.32 152.62 80.51 C 157.61 78.54 162.95 77.23 167.35 74.03 C 159.67 68.28 149.54 69.17 140.63 70.55 C 122.56 74.03 105.86 82.98 92.10 95.09 C 87.55 98.17 84.43 102.74 80.89 106.84 C 78.07 110.37 75.59 114.35 74.48 118.77 C 73.82 121.66 76.08 124.49 78.84 125.15 C 84.16 126.78 89.52 128.32 94.98 129.45 C 93.29 130.03 91.62 130.63 89.91 131.13 C 82.85 129.95 75.84 128.46 68.78 127.31 C 69.19 126.91 70.02 126.12 70.44 125.72 C 68.89 123.63 67.36 121.01 68.39 118.33 C 71.33 110.34 77.65 104.33 82.92 97.86 C 90.14 91.32 97.54 84.84 106.06 80.01 C 112.23 76.19 118.87 73.26 125.57 70.52 C 133.80 67.58 142.14 64.45 150.95 63.87 Z" />
</g>
<g id="#fafaf8ff">
<path fill="#fafaf8" opacity="1.00" d=" M 140.63 70.55 C 149.54 69.17 159.67 68.28 167.35 74.03 C 162.95 77.23 157.61 78.54 152.62 80.51 C 143.35 83.32 134.40 87.15 125.83 91.66 C 122.76 93.13 120.17 95.43 117.86 97.90 C 116.74 100.28 116.29 103.00 116.35 105.62 C 117.96 109.83 122.14 112.59 126.37 113.72 C 141.18 118.18 156.43 120.98 171.14 125.76 C 186.34 129.83 201.76 135.58 213.28 146.70 C 217.23 151.41 221.44 156.61 221.96 163.00 C 223.04 171.76 219.36 180.32 214.23 187.22 C 203.72 198.39 190.17 206.42 175.95 211.93 C 161.58 218.11 146.44 222.53 130.97 224.86 C 120.81 225.84 108.84 224.25 102.12 215.69 C 103.08 214.49 103.94 213.08 105.46 212.55 C 110.95 210.19 116.96 209.50 122.64 207.71 C 129.10 205.70 135.64 203.98 142.20 202.29 C 154.99 198.24 167.72 193.80 179.70 187.68 C 184.95 185.24 189.93 182.14 194.40 178.46 C 197.02 175.87 200.69 171.81 197.71 168.10 C 198.79 167.10 199.80 166.03 200.84 164.98 C 195.01 159.42 187.61 155.91 180.16 153.06 C 174.91 151.13 169.56 149.45 164.15 148.02 C 165.19 147.65 166.23 147.27 167.26 146.86 C 163.52 144.28 158.70 143.24 154.35 144.82 C 154.77 144.35 155.60 143.40 156.02 142.93 C 153.26 142.10 150.38 142.15 147.59 142.69 C 147.56 142.25 147.52 141.37 147.50 140.93 C 146.57 141.17 145.64 141.42 144.72 141.67 C 144.62 141.29 144.43 140.51 144.33 140.12 C 138.29 138.30 132.15 136.77 125.95 135.58 C 125.54 136.17 124.72 137.34 124.31 137.93 C 120.66 137.14 117.01 136.34 113.35 135.62 C 105.56 134.01 97.75 132.46 89.91 131.13 C 91.62 130.63 93.29 130.03 94.98 129.45 C 89.52 128.32 84.16 126.78 78.84 125.15 C 76.08 124.49 73.82 121.66 74.48 118.77 C 75.59 114.35 78.07 110.37 80.89 106.84 C 84.43 102.74 87.55 98.17 92.10 95.09 C 105.86 82.98 122.56 74.03 140.63 70.55 Z" />
</g>
<g id="#3c0603ff">
<path fill="#3c0603" opacity="1.00" d=" M 211.58 75.22 C 217.32 74.45 223.15 74.64 228.92 74.92 C 235.72 75.79 242.65 75.51 249.39 76.90 L 249.79 77.47 C 252.29 81.99 254.89 86.49 257.95 90.66 L 258.33 91.19 C 258.41 91.33 258.57 91.60 258.66 91.74 L 258.95 92.86 C 259.15 94.14 259.47 95.63 260.77 96.25 L 260.84 96.49 C 261.36 99.10 262.55 101.49 263.91 103.76 L 264.00 103.94 C 271.79 124.57 274.49 147.17 271.04 168.97 C 270.03 178.09 267.17 186.84 264.27 195.49 L 263.94 196.23 C 262.08 199.94 260.36 203.72 258.91 207.61 L 258.64 208.26 C 258.57 208.41 258.44 208.71 258.37 208.86 L 257.72 210.22 C 257.63 210.36 257.44 210.64 257.35 210.78 L 256.65 211.64 C 254.99 212.51 253.90 214.13 253.93 216.04 L 253.84 216.67 C 252.40 216.95 251.77 218.39 251.64 219.70 C 251.42 220.14 250.99 221.00 250.77 221.44 C 250.68 221.55 250.48 221.78 250.38 221.90 L 249.91 222.42 C 247.20 225.25 245.00 228.51 242.45 231.49 C 237.99 236.96 232.53 241.50 227.69 246.63 L 227.26 246.80 C 225.66 247.01 223.98 247.88 223.66 249.61 L 223.42 250.33 L 222.16 249.56 C 222.92 248.59 223.69 247.63 224.46 246.66 C 222.12 243.92 219.91 239.93 215.71 240.42 C 220.60 229.15 223.70 217.17 225.38 205.02 C 226.22 198.87 227.12 192.66 226.68 186.44 C 235.20 176.33 237.55 161.09 230.73 149.46 C 232.06 148.00 233.35 146.40 233.57 144.36 C 235.00 136.10 233.58 127.75 233.43 119.45 C 233.13 115.56 231.34 111.94 231.24 108.01 C 231.09 103.15 228.36 98.92 227.64 94.17 C 227.12 90.40 224.40 87.50 223.46 83.88 C 222.74 81.44 221.19 79.31 219.43 77.52 C 216.82 76.73 214.13 76.21 211.58 75.22 Z" />
</g>
<g id="#4e0808ff">
<path fill="#4e0808" opacity="1.00" d=" M 184.63 77.88 C 193.59 76.78 202.53 75.28 211.58 75.22 C 214.13 76.21 216.82 76.73 219.43 77.52 C 221.19 79.31 222.74 81.44 223.46 83.88 C 224.40 87.50 227.12 90.40 227.64 94.17 C 228.36 98.92 231.09 103.15 231.24 108.01 C 231.34 111.94 233.13 115.56 233.43 119.45 C 233.58 127.75 235.00 136.10 233.57 144.36 C 233.35 146.40 232.06 148.00 230.73 149.46 C 228.59 145.75 225.86 142.42 222.85 139.40 C 222.69 137.89 222.61 136.36 222.20 134.89 C 214.95 113.09 202.78 92.35 184.63 77.88 Z" />
</g>
<g id="#873830ff">
<path fill="#873830" opacity="1.00" d=" M 183.35 78.07 L 183.84 77.98 L 184.63 77.88 C 202.78 92.35 214.95 113.09 222.20 134.89 C 222.61 136.36 222.69 137.89 222.85 139.40 C 208.43 126.42 189.70 119.87 171.27 114.94 C 159.20 111.76 147.14 108.53 134.96 105.81 C 129.37 104.73 123.82 103.40 118.27 102.13 C 118.22 101.95 118.14 101.61 118.10 101.44 C 137.99 89.36 160.55 82.18 183.35 78.07 Z" />
</g>
<g id="#743f3bff">
<path fill="#743f3b" opacity="1.00" d=" M 249.79 77.47 C 253.11 81.43 255.84 85.95 257.95 90.66 C 254.89 86.49 252.29 81.99 249.79 77.47 Z" />
<path fill="#743f3b" opacity="1.00" d=" M 643.97 147.78 C 644.83 145.43 645.24 142.76 646.98 140.85 C 646.15 143.01 645.39 145.19 644.69 147.39 C 651.50 147.46 658.31 147.46 665.13 147.41 L 665.34 146.11 C 665.49 146.48 665.80 147.22 665.95 147.59 C 658.63 147.56 651.29 147.30 643.97 147.78 Z" />
<path fill="#743f3b" opacity="1.00" d=" M 242.45 231.49 C 245.00 228.51 247.20 225.25 249.91 222.42 C 246.16 228.87 240.86 234.31 235.69 239.65 C 233.08 242.03 230.75 244.80 227.69 246.63 C 232.53 241.50 237.99 236.96 242.45 231.49 Z" />
<path fill="#743f3b" opacity="1.00" d=" M 57.05 236.16 C 60.78 237.03 64.63 237.04 68.42 237.51 C 73.56 237.65 78.77 237.83 83.86 236.93 C 85.33 236.95 86.80 236.98 88.26 237.02 C 86.41 237.40 84.57 237.85 82.73 238.28 C 91.70 243.28 101.71 245.96 111.69 248.08 C 116.02 249.59 120.65 248.98 125.13 249.48 C 119.07 251.18 111.89 248.36 106.83 253.16 C 108.08 253.41 109.34 253.64 110.59 253.92 C 108.33 255.70 105.33 255.08 102.67 255.24 C 102.64 255.99 102.60 256.74 102.57 257.50 C 100.73 258.76 98.96 260.20 96.85 261.00 C 91.97 261.59 87.53 259.06 83.60 256.50 C 82.25 255.48 80.56 255.41 78.96 255.29 C 72.63 251.60 66.86 246.63 61.46 241.60 L 61.21 240.82 C 61.02 239.65 60.36 238.98 59.21 238.79 C 58.76 238.51 57.85 237.94 57.40 237.65 L 57.05 236.16 Z" />
</g>
<g id="#84433aff">
<path fill="#84433a" opacity="1.00" d=" M 45.29 87.28 C 47.62 88.76 49.09 91.03 49.48 93.78 C 50.59 93.43 51.68 93.05 52.77 92.63 C 53.14 94.04 53.52 95.45 53.90 96.86 C 54.93 95.88 55.96 94.90 56.99 93.91 C 57.67 95.11 58.36 96.30 59.04 97.50 C 60.27 97.41 61.50 97.32 62.73 97.23 C 64.32 99.86 66.25 102.36 67.02 105.39 C 62.47 111.24 59.02 117.83 56.25 124.68 C 56.69 124.86 57.58 125.21 58.03 125.39 C 56.93 125.85 55.85 126.32 54.76 126.80 C 54.72 126.31 54.63 125.33 54.59 124.83 C 53.75 126.62 53.13 128.50 52.63 130.41 C 50.63 130.32 48.15 131.10 46.60 129.45 C 44.84 127.79 42.94 126.28 40.73 125.26 C 37.94 123.93 36.43 121.10 34.58 118.78 C 32.09 120.50 31.08 116.47 29.58 115.18 C 28.69 116.90 28.44 119.64 26.03 119.81 C 28.05 108.92 32.50 98.47 37.92 88.84 C 38.02 89.37 38.20 90.43 38.29 90.95 C 39.09 90.13 39.89 89.30 40.69 88.48 C 41.64 88.81 42.59 89.16 43.54 89.50 C 44.12 88.76 44.71 88.02 45.29 87.28 Z" />
<path fill="#84433a" opacity="1.00" d=" M 305.01 184.67 C 379.01 184.71 453.02 184.66 527.02 184.67 C 563.76 184.78 600.52 184.47 637.25 184.82 L 636.46 185.49 C 627.45 185.58 618.42 185.25 609.42 185.68 C 599.42 185.47 589.40 185.31 579.42 185.73 C 559.11 185.45 538.77 185.38 518.47 185.67 C 501.81 185.45 485.13 185.28 468.48 185.65 C 453.82 185.33 439.13 185.33 424.47 185.60 C 408.16 185.30 391.82 185.32 375.51 185.53 C 352.01 185.29 328.50 185.24 305.00 185.40 L 305.01 184.67 Z" />
</g>
<g id="#2a2a2a84">
<path fill="#2a2a2a" opacity="0.52" d=" M 465.75 87.75 C 471.47 88.03 477.19 87.70 482.91 87.93 C 485.31 93.35 487.78 98.76 489.88 104.29 L 489.66 105.31 C 487.20 99.92 484.80 94.48 482.68 88.94 C 477.16 88.60 471.56 88.43 466.06 88.95 C 464.97 90.77 464.10 92.72 463.19 94.64 C 462.90 92.08 464.63 89.90 465.75 87.75 Z" />
</g>
<g id="#3a3a3a91">
<path fill="#3a3a3a" opacity="0.57" d=" M 546.01 88.12 C 553.90 86.46 561.99 87.13 569.99 87.00 C 576.10 86.85 582.32 87.35 588.12 89.38 L 588.59 90.06 C 577.98 86.88 566.88 88.30 555.99 87.99 C 550.70 87.73 545.57 89.15 540.42 90.12 C 541.79 88.57 544.13 88.61 546.01 88.12 Z" />
</g>
<g id="#2a29298a">
<path fill="#2a2929" opacity="0.54" d=" M 646.11 87.98 C 652.01 87.79 657.93 87.77 663.83 87.97 C 664.61 90.90 666.91 93.49 666.75 96.58 C 665.51 93.99 664.31 91.39 663.14 88.77 C 657.65 89.06 651.78 87.99 646.52 89.27 C 643.35 96.27 640.62 103.47 637.33 110.42 L 637.14 109.35 C 639.90 102.14 643.24 95.15 646.11 87.98 Z" />
</g>
<g id="#383737ab">
<path fill="#383737" opacity="0.67" d=" M 287.26 88.08 C 294.83 87.60 302.44 88.01 310.03 87.85 C 311.61 87.51 313.15 88.36 313.03 90.12 C 311.78 89.37 310.46 88.70 308.95 88.88 C 302.03 88.93 295.12 88.88 288.20 88.94 C 289.29 91.15 290.29 93.40 291.04 95.75 L 290.57 96.59 C 289.56 93.72 288.19 90.99 287.26 88.08 Z" />
</g>
<g id="#353535a5">
<path fill="#353535" opacity="0.65" d=" M 346.22 103.17 C 348.17 98.09 349.96 92.96 351.98 87.91 C 360.31 87.96 368.66 87.59 376.97 88.09 C 375.89 90.09 375.93 93.49 373.80 94.36 C 374.44 92.53 375.10 90.71 375.84 88.92 C 368.00 88.91 360.15 88.76 352.32 89.00 C 349.97 95.26 347.93 101.65 345.19 107.75 C 344.87 106.12 345.70 104.64 346.22 103.17 Z" />
<path fill="#353535" opacity="0.65" d=" M 342.21 115.79 C 342.17 113.06 343.24 109.76 345.15 107.85 C 344.44 110.60 343.41 113.23 342.21 115.79 Z" />
</g>
<g id="#3f3f3f8f">
<path fill="#3f3f3f" opacity="0.56" d=" M 390.96 87.84 C 399.25 87.78 407.55 87.74 415.84 87.86 C 416.01 116.18 415.96 144.51 415.86 172.83 L 414.91 172.73 C 415.11 144.67 414.95 116.60 414.99 88.54 C 406.96 88.58 398.94 88.40 390.91 88.66 L 390.96 87.84 Z" />
</g>
<g id="#050607ff">
<path fill="#050607" opacity="1.00" d=" M 540.42 90.12 C 545.57 89.15 550.70 87.73 555.99 87.99 C 566.88 88.30 577.98 86.88 588.59 90.06 L 588.89 90.22 C 589.86 91.07 590.98 91.73 592.27 92.01 L 592.55 92.11 C 598.30 96.43 601.59 103.30 602.41 110.34 C 597.59 110.90 592.72 110.77 587.91 111.42 C 585.57 111.68 583.16 112.21 580.86 111.46 L 580.89 110.05 C 581.12 108.32 579.38 107.14 577.90 106.82 L 577.57 106.73 C 574.49 105.73 571.21 106.16 568.04 106.10 C 563.66 106.20 559.28 105.91 554.91 106.19 C 551.92 106.35 548.88 108.58 548.86 111.78 C 548.76 114.66 548.18 118.29 550.69 120.38 C 552.87 122.55 556.22 121.94 559.01 122.08 C 569.41 122.23 579.88 121.46 590.21 123.05 L 590.25 123.06 C 593.38 124.59 596.87 125.90 599.07 128.75 C 601.19 131.26 601.85 134.57 602.78 137.63 L 602.85 137.99 C 602.98 143.43 603.10 148.88 602.76 154.31 L 602.69 154.85 C 601.83 160.82 597.97 165.75 592.84 168.73 L 592.33 168.92 C 586.71 170.63 580.98 172.32 575.03 172.15 C 566.16 171.97 557.29 172.37 548.42 171.94 C 548.21 171.90 547.79 171.82 547.57 171.78 C 543.86 170.76 540.24 169.41 536.80 167.69 C 536.63 167.55 536.29 167.27 536.11 167.13 C 533.08 164.13 530.74 160.54 529.06 156.62 L 528.95 156.32 C 528.42 153.91 528.01 151.47 527.64 149.02 C 534.84 148.41 542.06 148.35 549.26 147.82 L 548.99 149.16 C 549.17 149.65 549.54 150.65 549.73 151.14 C 549.98 151.38 550.48 151.86 550.74 152.10 C 553.68 155.08 558.31 153.64 562.03 153.96 C 567.16 153.61 572.50 154.74 577.49 153.29 C 581.54 151.95 581.61 147.07 581.23 143.56 C 581.24 140.41 578.11 137.67 575.00 138.11 C 567.33 138.31 559.66 138.07 551.99 138.23 C 546.05 137.82 539.94 137.32 534.45 134.82 L 534.27 134.71 C 529.73 131.25 527.26 125.69 527.33 120.02 C 527.46 113.18 526.58 106.11 528.99 99.54 L 529.00 99.52 C 531.53 95.11 535.75 92.14 540.33 90.15 L 540.42 90.12 Z" />
<path fill="#050607" opacity="1.00" d=" M 288.20 88.94 C 295.12 88.88 302.03 88.93 308.95 88.88 C 310.46 88.70 311.78 89.37 313.03 90.12 L 313.09 90.74 C 313.26 93.60 314.81 96.09 315.78 98.72 L 315.88 99.02 C 316.73 101.54 317.33 104.20 318.65 106.53 L 319.00 106.95 C 320.35 112.33 322.59 117.45 324.71 122.57 L 324.78 122.76 C 326.67 128.90 329.02 134.90 331.36 140.88 C 332.07 142.34 332.66 141.84 332.98 140.55 L 333.25 139.88 C 334.39 137.22 335.55 134.56 336.16 131.72 L 336.20 131.63 C 337.45 129.05 338.44 126.36 339.19 123.60 L 339.20 123.58 C 340.31 121.13 341.37 118.65 342.11 116.05 L 342.21 115.79 C 343.41 113.23 344.44 110.60 345.15 107.85 L 345.19 107.75 C 347.93 101.65 349.97 95.26 352.32 89.00 C 360.15 88.76 368.00 88.91 375.84 88.92 C 375.10 90.71 374.44 92.53 373.80 94.36 L 373.77 94.44 C 372.68 96.64 371.68 98.87 370.82 101.16 L 370.79 101.24 C 369.60 103.50 368.57 105.82 367.83 108.26 L 367.83 108.27 C 365.92 112.26 364.00 116.28 362.80 120.55 L 362.58 121.19 C 362.52 121.33 362.41 121.61 362.35 121.75 L 362.08 122.23 C 360.65 124.25 359.55 126.48 358.98 128.90 L 358.82 129.33 C 357.56 131.61 356.34 133.94 355.82 136.52 L 355.75 136.77 C 354.28 137.56 353.97 139.31 353.91 140.82 L 353.84 141.28 C 352.59 143.61 351.42 146.00 350.81 148.59 L 350.60 149.25 C 350.55 149.37 350.45 149.61 350.40 149.73 L 350.10 150.25 C 347.68 153.96 346.12 158.16 344.84 162.37 L 344.81 162.43 C 343.58 164.65 342.48 166.96 341.86 169.43 L 341.86 169.44 C 341.12 170.45 340.72 172.35 339.08 172.08 C 334.05 172.23 329.01 172.11 323.99 172.07 C 323.11 170.24 322.17 168.45 321.26 166.64 L 321.11 166.23 C 320.49 163.91 319.51 161.72 318.37 159.62 L 318.13 159.04 C 316.36 154.44 314.44 149.89 312.26 145.47 L 312.23 145.40 C 311.57 143.01 310.53 140.78 309.31 138.64 L 309.09 137.89 C 305.36 128.68 301.46 119.52 297.33 110.48 L 297.23 110.23 C 295.60 105.39 293.46 100.74 291.21 96.15 L 291.04 95.75 C 290.29 93.40 289.29 91.15 288.20 88.94 Z" />
<path fill="#050607" opacity="1.00" d=" M 390.91 88.66 C 398.94 88.40 406.96 88.58 414.99 88.54 C 414.95 116.60 415.11 144.67 414.91 172.73 C 406.98 172.64 399.06 172.68 391.13 172.71 C 390.64 144.71 391.08 116.68 390.91 88.66 Z" />
<path fill="#050607" opacity="1.00" d=" M 466.06 88.95 C 471.56 88.43 477.16 88.60 482.68 88.94 C 484.80 94.48 487.20 99.92 489.66 105.31 L 489.86 105.87 C 490.53 108.29 491.68 110.54 492.79 112.78 L 492.87 112.99 C 493.89 116.05 495.23 118.99 496.80 121.81 L 496.81 121.83 C 501.01 132.99 505.90 143.91 510.79 154.78 L 510.82 154.85 C 511.94 157.91 513.22 160.91 514.82 163.76 L 514.90 164.20 C 515.02 165.68 515.22 167.56 516.80 168.22 L 516.86 168.43 C 517.08 169.33 517.53 171.14 517.76 172.04 C 509.98 172.00 502.20 172.12 494.43 171.98 C 493.83 170.05 493.09 168.17 492.24 166.34 L 492.20 166.23 C 491.79 165.14 491.40 164.05 491.03 162.95 C 481.04 162.88 471.06 162.98 461.07 162.89 C 459.77 163.11 457.53 162.34 457.08 164.13 C 455.90 166.74 455.03 169.49 454.00 172.17 C 446.17 172.40 438.34 172.27 430.51 172.24 C 430.66 171.59 430.97 170.29 431.12 169.64 L 431.17 169.54 C 432.40 167.50 433.48 165.35 434.05 163.02 L 434.19 162.62 C 436.41 158.10 438.45 153.49 440.18 148.76 L 440.21 148.69 C 441.45 146.36 442.66 144.00 443.17 141.38 L 443.23 141.18 C 444.71 140.40 445.00 138.65 445.09 137.14 L 445.16 136.76 C 446.79 133.78 448.24 130.70 449.15 127.41 L 449.22 127.20 C 450.73 126.43 450.97 124.62 451.08 123.10 L 451.14 122.77 C 452.40 120.58 453.46 118.28 454.16 115.85 L 454.19 115.77 C 455.47 113.51 456.56 111.14 457.18 108.61 L 457.18 108.59 C 458.26 106.45 459.56 104.34 459.76 101.89 L 460.50 101.37 C 461.76 99.29 462.38 96.93 463.18 94.66 L 463.19 94.64 C 464.10 92.72 464.97 90.77 466.06 88.95 M 473.81 119.51 C 472.55 123.11 470.63 126.64 470.11 130.44 L 470.03 130.88 C 468.20 130.60 467.39 133.96 468.36 135.23 L 468.10 136.16 L 467.23 136.30 C 467.23 136.76 467.22 137.68 467.22 138.14 L 467.07 139.11 L 466.18 139.25 L 465.73 140.26 L 466.20 141.07 L 466.03 141.87 C 464.26 141.54 463.36 144.95 464.35 146.19 L 463.64 147.24 C 470.39 147.67 477.17 147.32 483.93 147.44 C 486.11 149.17 485.12 142.58 483.08 143.01 L 482.77 142.16 C 482.78 141.69 482.80 140.76 482.80 140.29 L 481.93 140.16 L 481.65 139.19 C 482.73 137.99 481.75 134.46 479.93 135.05 L 479.84 134.76 C 479.85 131.86 478.63 128.76 476.90 126.46 L 476.83 126.23 C 476.77 123.66 475.35 121.40 474.50 119.04 C 474.33 119.16 473.99 119.39 473.81 119.51 Z" />
<path fill="#050607" opacity="1.00" d=" M 646.52 89.27 C 651.78 87.99 657.65 89.06 663.14 88.77 C 664.31 91.39 665.51 93.99 666.75 96.58 L 666.77 96.64 C 667.50 99.12 668.54 101.49 669.75 103.77 L 669.78 103.84 C 670.51 106.13 671.48 108.34 672.63 110.45 L 672.80 110.87 C 673.51 113.22 674.52 115.46 675.78 117.57 L 675.83 117.68 C 676.49 120.17 677.55 122.52 678.76 124.78 L 678.81 124.89 C 679.69 127.22 680.70 129.49 681.77 131.74 L 681.85 131.96 C 682.68 134.26 683.69 136.50 684.80 138.69 L 684.86 138.85 C 685.59 141.15 686.34 143.49 687.74 145.50 L 687.86 145.88 C 689.14 149.88 690.88 153.71 692.76 157.46 L 692.84 157.66 C 694.61 162.60 696.73 167.41 699.01 172.14 C 691.08 172.14 683.15 172.30 675.24 172.05 C 674.16 169.04 673.06 166.03 671.96 163.02 C 660.72 162.82 649.48 162.90 638.24 162.98 C 637.06 165.99 635.91 169.02 634.78 172.06 C 626.93 172.31 619.07 172.11 611.22 172.17 C 611.90 170.34 612.54 168.48 613.20 166.64 L 613.23 166.58 C 614.46 164.47 615.42 162.22 616.18 159.90 L 616.31 159.60 C 617.36 157.55 618.40 155.48 619.02 153.25 L 619.20 152.77 C 620.44 150.54 621.44 148.20 622.17 145.75 L 622.18 145.74 C 624.55 141.29 626.51 136.63 628.20 131.88 L 628.24 131.77 C 629.38 129.52 630.41 127.22 631.23 124.83 L 631.25 124.79 C 633.33 120.27 635.47 115.76 637.09 111.04 L 637.33 110.42 C 640.62 103.47 643.35 96.27 646.52 89.27 M 654.06 121.08 L 654.12 122.08 L 653.23 122.24 L 652.82 123.25 L 653.32 124.06 L 653.16 124.51 C 651.67 125.40 651.65 127.40 650.97 128.84 C 649.76 132.80 647.48 136.47 647.08 140.63 L 646.98 140.85 C 645.24 142.76 644.83 145.43 643.97 147.78 C 651.29 147.30 658.63 147.56 665.95 147.59 C 665.80 147.22 665.49 146.48 665.34 146.11 L 665.03 145.60 C 664.42 142.83 663.85 139.61 661.79 137.55 L 661.62 137.12 C 662.70 135.90 661.74 132.40 659.89 132.93 L 659.84 132.76 C 660.13 129.97 658.36 127.48 657.65 124.85 L 656.79 124.48 L 656.67 124.16 L 657.19 123.35 L 656.82 122.31 L 655.92 122.14 L 655.95 121.04 C 657.49 118.58 652.56 118.64 654.06 121.08 Z" />
<path fill="#050607" opacity="1.00" d=" M 693.06 88.96 C 720.70 88.77 748.35 88.91 775.99 88.88 C 776.00 95.25 776.00 101.62 775.99 108.00 C 766.03 108.12 756.06 107.76 746.11 108.18 C 746.13 108.54 746.16 109.27 746.17 109.64 C 746.26 130.41 746.18 151.18 746.21 171.95 C 738.48 171.90 730.75 172.23 723.01 172.09 C 722.95 151.03 723.08 129.98 722.95 108.93 L 722.89 108.09 C 712.94 107.88 702.99 108.07 693.04 107.99 C 693.17 101.64 693.15 95.30 693.06 88.96 Z" />
</g>
<g id="#3f3f3faf">
<path fill="#3f3f3f" opacity="0.69" d=" M 692.38 88.10 C 708.24 87.58 724.13 88.02 740.01 87.87 C 752.28 87.97 764.57 87.68 776.85 88.02 C 777.05 94.93 776.88 101.85 776.95 108.76 C 767.06 109.38 757.11 108.71 747.20 109.10 L 746.47 110.32 L 746.17 109.64 C 746.16 109.27 746.13 108.54 746.11 108.18 C 756.06 107.76 766.03 108.12 775.99 108.00 C 776.00 101.62 776.00 95.25 775.99 88.88 C 748.35 88.91 720.70 88.77 693.06 88.96 C 693.15 95.30 693.17 101.64 693.04 107.99 C 702.99 108.07 712.94 107.88 722.89 108.09 L 722.95 108.93 L 722.33 108.97 C 712.35 108.96 702.37 109.16 692.40 108.86 C 692.31 101.94 692.35 95.02 692.38 88.10 Z" />
</g>
<g id="#30303067">
<path fill="#303030" opacity="0.40" d=" M 588.89 90.22 C 589.99 89.08 592.90 90.39 592.27 92.01 C 590.98 91.73 589.86 91.07 588.89 90.22 Z" />
</g>
<g id="#5b4c4a8f">
<path fill="#5b4c4a" opacity="0.56" d=" M 258.33 91.19 C 258.41 91.33 258.57 91.60 258.66 91.74 C 258.57 91.60 258.41 91.33 258.33 91.19 Z" />
</g>
<g id="#3736378d">
<path fill="#373637" opacity="0.55" d=" M 313.09 90.74 L 313.74 90.65 C 314.18 93.40 316.22 95.87 315.78 98.72 C 314.81 96.09 313.26 93.60 313.09 90.74 Z" />
</g>
<g id="#4c373595">
<path fill="#4c3735" opacity="0.58" d=" M 258.95 92.86 C 260.45 92.37 261.46 95.12 260.77 96.25 C 259.47 95.63 259.15 94.14 258.95 92.86 Z" />
</g>
<g id="#3030308d">
<path fill="#303030" opacity="0.55" d=" M 370.82 101.16 C 371.68 98.87 372.68 96.64 373.77 94.44 C 373.99 96.95 372.17 99.08 371.75 101.51 L 370.82 101.16 Z" />
</g>
<g id="#343434a0">
<path fill="#343434" opacity="0.63" d=" M 460.50 101.37 C 460.09 99.03 461.56 96.33 463.18 94.66 C 462.38 96.93 461.76 99.29 460.50 101.37 Z" />
</g>
<g id="#4b3331ac">
<path fill="#4b3331" opacity="0.67" d=" M 260.84 96.49 C 262.69 98.29 263.62 101.20 263.91 103.76 C 262.55 101.49 261.36 99.10 260.84 96.49 Z" />
</g>
<g id="#303030af">
<path fill="#303030" opacity="0.69" d=" M 291.21 96.15 C 293.46 100.74 295.60 105.39 297.23 110.23 L 296.45 110.20 C 295.07 106.97 293.83 103.67 292.34 100.49 C 291.81 99.09 290.71 97.75 291.21 96.15 Z" />
</g>
<g id="#343434a2">
<path fill="#343434" opacity="0.64" d=" M 666.77 96.64 C 668.72 98.05 669.64 101.32 669.75 103.77 C 668.54 101.49 667.50 99.12 666.77 96.64 Z" />
</g>
<g id="#363535a7">
<path fill="#363535" opacity="0.65" d=" M 315.88 99.02 L 316.61 98.88 C 317.13 101.46 319.21 103.86 318.65 106.53 C 317.33 104.20 316.73 101.54 315.88 99.02 Z" />
</g>
<g id="#323131b0">
<path fill="#323131" opacity="0.69" d=" M 367.83 108.26 C 368.57 105.82 369.60 103.50 370.79 101.24 C 370.80 103.74 369.73 106.62 367.83 108.26 Z" />
</g>
<g id="#3030307e">
<path fill="#303030" opacity="0.49" d=" M 457.18 108.59 C 457.13 106.15 458.43 103.86 459.76 101.89 C 459.56 104.34 458.26 106.45 457.18 108.59 Z" />
</g>
<g id="#343333a2">
<path fill="#343333" opacity="0.64" d=" M 669.78 103.84 L 670.53 103.71 C 671.03 106.00 673.07 108.05 672.63 110.45 C 671.48 108.34 670.51 106.13 669.78 103.84 Z" />
</g>
<g id="#b5b8b7ff">
<path fill="#b5b8b7" opacity="1.00" d=" M 132.90 107.60 C 133.63 107.06 134.32 106.46 134.96 105.81 C 147.14 108.53 159.20 111.76 171.27 114.94 C 189.70 119.87 208.43 126.42 222.85 139.40 C 225.86 142.42 228.59 145.75 230.73 149.46 C 237.55 161.09 235.20 176.33 226.68 186.44 C 224.28 189.29 221.73 192.02 218.81 194.33 C 218.68 193.79 218.42 192.71 218.29 192.18 C 227.00 182.25 231.31 167.93 226.79 155.16 C 224.76 147.53 218.62 142.18 213.05 137.03 C 201.24 128.34 187.42 122.73 173.34 118.90 C 162.17 115.27 150.63 113.00 139.31 109.90 C 137.15 109.13 135.32 107.49 132.90 107.60 Z" />
</g>
<g id="#313131ac">
<path fill="#313131" opacity="0.67" d=" M 489.86 105.87 L 490.56 105.83 C 491.26 108.15 493.15 110.27 492.79 112.78 C 491.68 110.54 490.53 108.29 489.86 105.87 Z" />
</g>
<g id="#3231329d">
<path fill="#323132" opacity="0.62" d=" M 319.00 106.95 L 319.57 106.63 C 320.79 112.08 324.38 117.04 324.71 122.57 C 322.59 117.45 320.35 112.33 319.00 106.95 Z" />
</g>
<g id="#302f2f74">
<path fill="#302f2f" opacity="0.45" d=" M 577.90 106.82 C 579.38 107.14 581.12 108.32 580.89 110.05 C 579.57 110.00 577.53 108.23 577.90 106.82 Z" />
</g>
<g id="#32313195">
<path fill="#323131" opacity="0.58" d=" M 362.80 120.55 C 364.00 116.28 365.92 112.26 367.83 108.27 C 368.18 110.38 366.77 112.18 366.09 114.07 C 364.99 116.22 364.57 118.81 362.80 120.55 Z" />
</g>
<g id="#3535359f">
<path fill="#353535" opacity="0.62" d=" M 454.19 115.77 C 454.31 113.21 455.33 110.41 457.18 108.61 C 456.56 111.14 455.47 113.51 454.19 115.77 Z" />
</g>
<g id="#2a2a2a68">
<path fill="#2a2a2a" opacity="0.41" d=" M 722.33 108.97 L 722.95 108.93 C 723.08 129.98 722.95 151.03 723.01 172.09 C 730.75 172.23 738.48 171.90 746.21 171.95 C 746.18 151.18 746.26 130.41 746.17 109.64 L 746.47 110.32 C 747.32 111.72 746.87 113.46 746.98 115.01 C 746.83 134.31 747.16 153.61 746.82 172.91 C 738.66 173.02 730.49 173.17 722.35 172.83 C 721.73 154.57 722.44 136.26 722.09 117.98 C 722.04 114.98 721.98 111.96 722.33 108.97 Z" />
</g>
<g id="#3030309d">
<path fill="#303030" opacity="0.62" d=" M 297.33 110.48 C 301.46 119.52 305.36 128.68 309.09 137.89 L 308.32 138.47 C 305.07 129.36 300.63 120.69 297.19 111.64 L 297.33 110.48 Z" />
</g>
<g id="#313131a7">
<path fill="#313131" opacity="0.65" d=" M 636.36 110.54 L 637.09 111.04 C 635.47 115.76 633.33 120.27 631.25 124.79 C 630.62 123.16 631.89 121.80 632.38 120.36 C 633.80 117.12 635.24 113.89 636.36 110.54 Z" />
</g>
<g id="#3333339d">
<path fill="#333333" opacity="0.62" d=" M 672.80 110.87 C 674.70 111.97 675.54 115.29 675.78 117.57 C 674.52 115.46 673.51 113.22 672.80 110.87 Z" />
</g>
<g id="#313131a1">
<path fill="#313131" opacity="0.63" d=" M 492.87 112.99 L 493.62 112.33 C 494.25 115.63 496.69 118.43 496.80 121.81 C 495.23 118.99 493.89 116.05 492.87 112.99 Z" />
</g>
<g id="#824a42ff">
<path fill="#824a42" opacity="1.00" d=" M 29.58 115.18 C 31.08 116.47 32.09 120.50 34.58 118.78 C 36.43 121.10 37.94 123.93 40.73 125.26 C 42.94 126.28 44.84 127.79 46.60 129.45 C 48.15 131.10 50.63 130.32 52.63 130.41 C 53.13 128.50 53.75 126.62 54.59 124.83 C 54.63 125.33 54.72 126.31 54.76 126.80 C 54.81 127.42 54.90 128.66 54.95 129.28 C 52.40 138.61 52.38 148.38 52.56 157.98 C 53.17 172.69 56.75 187.20 62.35 200.78 C 62.85 202.48 64.81 202.48 66.21 202.95 C 64.87 202.85 63.53 202.76 62.20 202.67 C 54.78 201.40 47.36 199.84 40.45 196.77 C 32.18 191.76 27.55 182.63 25.26 173.53 C 20.43 156.05 21.73 137.50 25.54 119.97 L 26.03 119.81 C 28.44 119.64 28.69 116.90 29.58 115.18 Z" />
</g>
<g id="#34343487">
<path fill="#343434" opacity="0.53" d=" M 341.40 115.38 L 342.11 116.05 C 341.37 118.65 340.31 121.13 339.20 123.58 C 338.86 120.65 341.03 118.22 341.40 115.38 Z" />
</g>
<g id="#3333339f">
<path fill="#333333" opacity="0.62" d=" M 451.14 122.77 C 451.35 120.32 452.21 117.45 454.16 115.85 C 453.46 118.28 452.40 120.58 451.14 122.77 Z" />
</g>
<g id="#353535a1">
<path fill="#353535" opacity="0.63" d=" M 675.83 117.68 C 677.65 119.46 678.78 122.24 678.76 124.78 C 677.55 122.52 676.49 120.17 675.83 117.68 Z" />
</g>
<g id="#525151da">
<path fill="#525151" opacity="0.85" d=" M 654.06 121.08 C 652.56 118.64 657.49 118.58 655.95 121.04 C 655.48 121.05 654.53 121.07 654.06 121.08 Z" />
</g>
<g id="#4c4b4b87">
<path fill="#4c4b4b" opacity="0.53" d=" M 362.35 121.75 C 362.41 121.61 362.52 121.33 362.58 121.19 C 362.52 121.33 362.41 121.61 362.35 121.75 Z" />
</g>
<g id="#2f2e2ea2">
<path fill="#2f2e2e" opacity="0.64" d=" M 496.81 121.83 C 497.95 122.53 498.31 123.89 498.84 125.03 C 502.67 134.54 506.99 143.84 510.83 153.34 L 510.79 154.78 C 505.90 143.91 501.01 132.99 496.81 121.83 Z" />
</g>
<g id="#3e3d3d95">
<path fill="#3e3d3d" opacity="0.58" d=" M 653.23 122.24 L 654.12 122.08 C 653.92 122.58 653.52 123.56 653.32 124.06 L 652.82 123.25 L 653.23 122.24 Z" />
</g>
<g id="#3b3b3b84">
<path fill="#3b3b3b" opacity="0.52" d=" M 655.92 122.14 L 656.82 122.31 L 657.19 123.35 L 656.67 124.16 C 656.48 123.66 656.11 122.64 655.92 122.14 Z" />
</g>
<g id="#343333ab">
<path fill="#343333" opacity="0.67" d=" M 324.78 122.76 L 325.49 123.03 C 327.39 127.71 329.05 132.50 330.78 137.25 C 331.10 138.59 331.95 139.66 332.98 140.55 C 332.66 141.84 332.07 142.34 331.36 140.88 C 329.02 134.90 326.67 128.90 324.78 122.76 Z" />
</g>
<g id="#333333b1">
<path fill="#333333" opacity="0.69" d=" M 358.98 128.90 C 359.55 126.48 360.65 124.25 362.08 122.23 C 361.73 124.83 360.38 127.12 359.49 129.55 L 358.98 128.90 Z" />
</g>
<g id="#363636a1">
<path fill="#363636" opacity="0.63" d=" M 450.59 122.97 L 451.08 123.10 C 450.97 124.62 450.73 126.43 449.22 127.20 C 448.55 125.80 449.44 123.88 450.59 122.97 Z" />
</g>
<g id="#2c2c2c9f">
<path fill="#2c2c2c" opacity="0.62" d=" M 590.25 123.06 C 597.10 123.39 603.64 130.73 602.78 137.63 C 601.85 134.57 601.19 131.26 599.07 128.75 C 596.87 125.90 593.38 124.59 590.25 123.06 Z" />
</g>
<g id="#36363685">
<path fill="#363636" opacity="0.52" d=" M 336.20 131.63 C 336.39 128.94 337.16 125.25 339.19 123.60 C 338.44 126.36 337.45 129.05 336.20 131.63 Z" />
</g>
<g id="#333232a5">
<path fill="#333232" opacity="0.65" d=" M 630.40 124.51 L 631.23 124.83 C 630.41 127.22 629.38 129.52 628.24 131.77 C 627.97 129.17 629.88 126.99 630.40 124.51 Z" />
</g>
<g id="#2b2a2a88">
<path fill="#2b2a2a" opacity="0.53" d=" M 650.97 128.84 C 651.65 127.40 651.67 125.40 653.16 124.51 C 651.49 130.00 649.58 135.46 647.08 140.63 C 647.48 136.47 649.76 132.80 650.97 128.84 Z" />
</g>
<g id="#2d2d2d78">
<path fill="#2d2d2d" opacity="0.47" d=" M 656.79 124.48 L 657.65 124.85 C 658.36 127.48 660.13 129.97 659.84 132.76 C 658.63 130.07 657.58 127.32 656.79 124.48 Z" />
</g>
<g id="#3030317f">
<path fill="#303031" opacity="0.50" d=" M 678.81 124.89 L 679.69 124.71 C 680.21 127.11 682.10 129.21 681.77 131.74 C 680.70 129.49 679.69 127.22 678.81 124.89 Z" />
</g>
<g id="#74191aff">
<path fill="#74191a" opacity="1.00" d=" M 54.76 126.80 C 55.85 126.32 56.93 125.85 58.03 125.39 C 59.58 125.68 61.13 125.97 62.68 126.25 C 64.71 126.61 66.75 126.97 68.78 127.31 C 75.84 128.46 82.85 129.95 89.91 131.13 C 97.75 132.46 105.56 134.01 113.35 135.62 C 111.70 137.36 109.34 136.80 107.25 136.63 C 106.49 138.50 105.79 140.38 105.12 142.28 C 105.57 142.42 106.48 142.69 106.93 142.83 C 107.10 146.23 105.76 150.05 107.91 153.07 C 110.83 157.50 112.19 163.12 116.56 166.45 C 118.14 167.86 119.31 169.64 120.67 171.26 C 122.15 173.35 125.25 173.14 126.75 175.23 C 129.05 178.31 132.96 179.62 136.64 180.02 C 139.84 179.48 142.95 181.19 146.14 180.36 C 149.72 179.63 153.37 179.35 157.00 178.90 C 164.70 176.87 169.42 170.11 174.92 164.90 C 176.49 163.43 175.68 160.83 177.23 159.35 C 178.97 157.68 179.48 155.28 180.16 153.06 C 187.61 155.91 195.01 159.42 200.84 164.98 C 199.80 166.03 198.79 167.10 197.71 168.10 C 194.99 170.41 192.08 172.49 189.03 174.33 C 173.88 183.14 157.27 189.08 140.47 193.83 C 128.60 197.11 116.54 199.74 104.34 201.40 C 102.16 199.02 98.83 200.02 96.01 199.86 C 92.71 199.97 89.06 198.65 87.18 195.81 C 85.60 192.96 81.88 192.54 80.11 189.85 C 77.56 186.13 74.05 183.27 71.24 179.79 C 66.83 173.70 62.57 167.16 61.60 159.51 C 61.09 159.21 60.05 158.60 59.53 158.30 C 58.69 153.15 56.37 148.28 56.43 143.01 C 56.21 140.64 55.22 138.32 55.83 135.92 C 56.41 133.64 56.10 131.33 54.95 129.28 C 54.90 128.66 54.81 127.42 54.76 126.80 Z" />
</g>
<g id="#2f2f2f7b">
<path fill="#2f2f2f" opacity="0.48" d=" M 476.90 126.46 C 478.63 128.76 479.85 131.86 479.84 134.76 C 478.61 132.09 477.49 129.35 476.90 126.46 Z" />
<path fill="#2f2f2f" opacity="0.48" d=" M 681.85 131.96 L 682.65 131.72 C 683.31 134.06 685.02 136.17 684.80 138.69 C 683.69 136.50 682.68 134.26 681.85 131.96 Z" />
</g>
<g id="#2f2f2f95">
<path fill="#2f2f2f" opacity="0.58" d=" M 445.16 136.76 C 445.67 133.49 446.97 129.87 449.15 127.41 C 448.24 130.70 446.79 133.78 445.16 136.76 Z" />
</g>
<g id="#651618ff">
<path fill="#651618" opacity="1.00" d=" M 52.56 157.98 C 52.38 148.38 52.40 138.61 54.95 129.28 C 56.10 131.33 56.41 133.64 55.83 135.92 C 55.22 138.32 56.21 140.64 56.43 143.01 C 56.37 148.28 58.69 153.15 59.53 158.30 C 60.05 158.60 61.09 159.21 61.60 159.51 C 62.57 167.16 66.83 173.70 71.24 179.79 C 74.05 183.27 77.56 186.13 80.11 189.85 C 81.88 192.54 85.60 192.96 87.18 195.81 C 89.06 198.65 92.71 199.97 96.01 199.86 C 98.83 200.02 102.16 199.02 104.34 201.40 C 97.51 202.33 90.65 203.22 83.76 203.41 C 79.82 203.42 75.88 203.50 71.94 203.34 C 70.03 203.25 68.12 203.12 66.21 202.95 C 64.81 202.48 62.85 202.48 62.35 200.78 C 56.75 187.20 53.17 172.69 52.56 157.98 Z" />
</g>
<g id="#323131ad">
<path fill="#323131" opacity="0.68" d=" M 355.82 136.52 C 356.34 133.94 357.56 131.61 358.82 129.33 C 358.53 131.78 357.74 135.02 355.82 136.52 Z" />
</g>
<g id="#2e2e2ea5">
<path fill="#2e2e2e" opacity="0.65" d=" M 468.36 135.23 C 467.39 133.96 468.20 130.60 470.03 130.88 C 469.92 132.48 469.29 133.95 468.36 135.23 Z" />
</g>
<g id="#3434349a">
<path fill="#343434" opacity="0.60" d=" M 333.25 139.88 C 333.15 137.06 334.36 133.87 336.16 131.72 C 335.55 134.56 334.39 137.22 333.25 139.88 Z" />
</g>
<g id="#2f2f2fb2">
<path fill="#2f2f2f" opacity="0.70" d=" M 627.48 131.62 L 628.20 131.88 C 626.51 136.63 624.55 141.29 622.18 145.74 C 622.87 140.78 625.99 136.42 627.48 131.62 Z" />
</g>
<g id="#2d2d2d96">
<path fill="#2d2d2d" opacity="0.59" d=" M 659.89 132.93 C 661.74 132.40 662.70 135.90 661.62 137.12 C 660.76 135.85 660.10 134.45 659.89 132.93 Z" />
</g>
<g id="#2c2b2ca0">
<path fill="#2c2b2c" opacity="0.63" d=" M 479.93 135.05 C 481.75 134.46 482.73 137.99 481.65 139.19 C 480.73 137.96 480.13 136.56 479.93 135.05 Z" />
</g>
<g id="#841c1dff">
<path fill="#841c1d" opacity="1.00" d=" M 107.25 136.63 C 109.34 136.80 111.70 137.36 113.35 135.62 C 117.01 136.34 120.66 137.14 124.31 137.93 C 137.64 141.09 150.91 144.47 164.15 148.02 C 169.56 149.45 174.91 151.13 180.16 153.06 C 179.48 155.28 178.97 157.68 177.23 159.35 C 175.68 160.83 176.49 163.43 174.92 164.90 C 169.42 170.11 164.70 176.87 157.00 178.90 C 153.37 179.35 149.72 179.63 146.14 180.36 C 142.95 181.19 139.84 179.48 136.64 180.02 C 132.96 179.62 129.05 178.31 126.75 175.23 C 125.25 173.14 122.15 173.35 120.67 171.26 C 119.31 169.64 118.14 167.86 116.56 166.45 C 112.19 163.12 110.83 157.50 107.91 153.07 C 105.76 150.05 107.10 146.23 106.93 142.83 C 106.48 142.69 105.57 142.42 105.12 142.28 C 105.79 140.38 106.49 138.50 107.25 136.63 Z" />
</g>
<g id="#e9f1f3ff">
<path fill="#e9f1f3" opacity="1.00" d=" M 124.31 137.93 C 124.72 137.34 125.54 136.17 125.95 135.58 C 132.15 136.77 138.29 138.30 144.33 140.12 C 144.43 140.51 144.62 141.29 144.72 141.67 C 145.64 141.42 146.57 141.17 147.50 140.93 C 147.52 141.37 147.56 142.25 147.59 142.69 C 150.38 142.15 153.26 142.10 156.02 142.93 C 155.60 143.40 154.77 144.35 154.35 144.82 C 158.70 143.24 163.52 144.28 167.26 146.86 C 166.23 147.27 165.19 147.65 164.15 148.02 C 150.91 144.47 137.64 141.09 124.31 137.93 Z" />
</g>
<g id="#3c3b3c93">
<path fill="#3c3b3c" opacity="0.58" d=" M 467.23 136.30 L 468.10 136.16 C 467.88 136.66 467.44 137.65 467.22 138.14 C 467.22 137.68 467.23 136.76 467.23 136.30 Z" />
</g>
<g id="#343334a3">
<path fill="#343334" opacity="0.64" d=" M 353.91 140.82 C 353.97 139.31 354.28 137.56 355.75 136.77 C 356.47 138.03 355.54 140.99 353.91 140.82 Z" />
</g>
<g id="#353535a4">
<path fill="#353535" opacity="0.64" d=" M 443.23 141.18 C 442.55 139.92 443.45 136.91 445.09 137.14 C 445.00 138.65 444.71 140.40 443.23 141.18 Z" />
</g>
<g id="#4343435c">
<path fill="#434343" opacity="0.36" d=" M 602.85 137.99 L 603.85 137.36 C 604.02 142.95 604.24 148.57 603.76 154.15 L 602.76 154.31 C 603.10 148.88 602.98 143.43 602.85 137.99 Z" />
</g>
<g id="#2c2c2c8f">
<path fill="#2c2c2c" opacity="0.56" d=" M 661.79 137.55 C 663.85 139.61 664.42 142.83 665.03 145.60 C 663.26 143.24 662.55 140.35 661.79 137.55 Z" />
</g>
<g id="#323132ab">
<path fill="#323132" opacity="0.67" d=" M 309.31 138.64 C 310.53 140.78 311.57 143.01 312.23 145.40 C 310.45 143.95 309.33 140.97 309.31 138.64 Z" />
</g>
<g id="#3e3d3d80">
<path fill="#3e3d3d" opacity="0.50" d=" M 466.18 139.25 L 467.07 139.11 C 466.85 139.60 466.42 140.58 466.20 141.07 L 465.73 140.26 L 466.18 139.25 Z" />
</g>
<g id="#3434349e">
<path fill="#343434" opacity="0.62" d=" M 684.86 138.85 C 686.74 140.34 687.60 143.15 687.74 145.50 C 686.34 143.49 685.59 141.15 684.86 138.85 Z" />
</g>
<g id="#3b3a3a8d">
<path fill="#3b3a3a" opacity="0.55" d=" M 481.93 140.16 L 482.80 140.29 C 482.80 140.76 482.78 141.69 482.77 142.16 C 482.56 141.66 482.14 140.66 481.93 140.16 Z" />
</g>
<g id="#31313179">
<path fill="#313131" opacity="0.47" d=" M 350.81 148.59 C 351.42 146.00 352.59 143.61 353.84 141.28 C 353.53 143.82 352.79 146.86 350.81 148.59 Z" />
</g>
<g id="#333232b1">
<path fill="#333232" opacity="0.69" d=" M 440.21 148.69 C 440.28 146.12 441.34 143.18 443.17 141.38 C 442.66 144.00 441.45 146.36 440.21 148.69 Z" />
</g>
<g id="#31313190">
<path fill="#313131" opacity="0.56" d=" M 464.35 146.19 C 463.36 144.95 464.26 141.54 466.03 141.87 C 465.87 143.44 465.35 144.96 464.35 146.19 Z" />
</g>
<g id="#353535a8">
<path fill="#353535" opacity="0.66" d=" M 483.08 143.01 C 485.12 142.58 486.11 149.17 483.93 147.44 C 483.59 145.97 483.37 144.49 483.08 143.01 Z" />
</g>
<g id="#2f2f2f99">
<path fill="#2f2f2f" opacity="0.60" d=" M 312.26 145.47 C 314.44 149.89 316.36 154.44 318.13 159.04 L 317.30 159.25 C 315.99 154.53 312.70 150.35 312.26 145.47 Z" />
</g>
<g id="#343333a4">
<path fill="#343333" opacity="0.64" d=" M 619.20 152.77 C 619.31 150.27 620.25 147.43 622.17 145.75 C 621.44 148.20 620.44 150.54 619.20 152.77 Z" />
</g>
<g id="#302f2f98">
<path fill="#302f2f" opacity="0.60" d=" M 687.86 145.88 C 689.60 146.90 689.70 149.34 690.67 150.99 C 691.35 153.13 693.20 155.11 692.76 157.46 C 690.88 153.71 689.14 149.88 687.86 145.88 Z" />
</g>
<g id="#4846478c">
<path fill="#484647" opacity="0.55" d=" M 350.40 149.73 C 350.45 149.61 350.55 149.37 350.60 149.25 C 350.55 149.37 350.45 149.61 350.40 149.73 Z" />
</g>
<g id="#2f2f2fa1">
<path fill="#2f2f2f" opacity="0.63" d=" M 439.29 148.60 L 440.18 148.76 C 438.45 153.49 436.41 158.10 434.19 162.62 C 434.70 157.67 438.02 153.42 439.29 148.60 Z" />
</g>
<g id="#42414175">
<path fill="#424141" opacity="0.46" d=" M 548.99 149.16 L 549.82 149.29 C 549.79 149.76 549.75 150.68 549.73 151.14 C 549.54 150.65 549.17 149.65 548.99 149.16 Z" />
</g>
<g id="#313131a9">
<path fill="#313131" opacity="0.66" d=" M 344.84 162.37 C 346.12 158.16 347.68 153.96 350.10 150.25 C 348.89 154.43 347.41 158.84 344.84 162.37 Z" />
</g>
<g id="#323232a9">
<path fill="#323232" opacity="0.66" d=" M 618.57 152.45 L 619.02 153.25 C 618.40 155.48 617.36 157.55 616.31 159.60 C 615.92 157.03 618.00 154.88 618.57 152.45 Z" />
</g>
<g id="#2f2f2f87">
<path fill="#2f2f2f" opacity="0.53" d=" M 510.82 154.85 L 511.71 154.60 C 512.50 157.74 514.63 160.46 514.82 163.76 C 513.22 160.91 511.94 157.91 510.82 154.85 Z" />
</g>
<g id="#383838a1">
<path fill="#383838" opacity="0.63" d=" M 692.84 157.66 L 693.60 157.98 C 695.81 162.95 698.10 167.92 699.86 173.08 C 691.55 173.19 683.24 173.13 674.93 173.11 C 673.57 170.20 672.48 167.17 671.65 164.08 C 660.72 163.32 649.68 163.88 638.72 163.81 C 637.41 166.85 636.77 170.24 634.99 173.03 C 626.67 173.15 618.31 173.31 610.00 172.94 C 610.98 170.85 611.16 167.90 613.20 166.64 C 612.54 168.48 611.90 170.34 611.22 172.17 C 619.07 172.11 626.93 172.31 634.78 172.06 C 635.91 169.02 637.06 165.99 638.24 162.98 C 649.48 162.90 660.72 162.82 671.96 163.02 C 673.06 166.03 674.16 169.04 675.24 172.05 C 683.15 172.30 691.08 172.14 699.01 172.14 C 696.73 167.41 694.61 162.60 692.84 157.66 Z" />
</g>
<g id="#313131ae">
<path fill="#313131" opacity="0.68" d=" M 318.37 159.62 C 319.51 161.72 320.49 163.91 321.11 166.23 C 319.40 164.67 318.18 161.94 318.37 159.62 Z" />
</g>
<g id="#323231a0">
<path fill="#323231" opacity="0.63" d=" M 615.41 159.61 L 616.18 159.90 C 615.42 162.22 614.46 164.47 613.23 166.58 C 613.10 164.07 614.89 161.99 615.41 159.61 Z" />
</g>
<g id="#3131307c">
<path fill="#313130" opacity="0.49" d=" M 341.86 169.43 C 342.48 166.96 343.58 164.65 344.81 162.43 C 344.42 164.81 343.85 167.96 341.86 169.43 Z" />
</g>
<g id="#323232b0">
<path fill="#323232" opacity="0.69" d=" M 433.41 162.41 L 434.05 163.02 C 433.48 165.35 432.40 167.50 431.17 169.54 C 431.22 166.99 432.74 164.80 433.41 162.41 Z" />
</g>
<g id="#3b3a3a92">
<path fill="#3b3a3a" opacity="0.57" d=" M 457.08 164.13 C 457.53 162.34 459.77 163.11 461.07 162.89 C 471.06 162.98 481.04 162.88 491.03 162.95 C 491.40 164.05 491.79 165.14 492.20 166.23 L 491.23 166.45 C 491.91 162.93 488.23 163.91 486.04 163.77 C 476.65 163.90 467.26 163.61 457.87 163.91 C 456.84 166.92 455.74 169.91 454.66 172.90 C 446.28 173.46 437.85 173.00 429.46 173.13 C 429.35 171.34 429.91 170.17 431.12 169.64 C 430.97 170.29 430.66 171.59 430.51 172.24 C 438.34 172.27 446.17 172.40 454.00 172.17 C 455.03 169.49 455.90 166.74 457.08 164.13 Z" />
</g>
<g id="#37363698">
<path fill="#373636" opacity="0.60" d=" M 514.90 164.20 C 516.53 164.01 517.40 166.93 516.80 168.22 C 515.22 167.56 515.02 165.68 514.90 164.20 Z" />
</g>
<g id="#393838a8">
<path fill="#393838" opacity="0.66" d=" M 321.26 166.64 C 322.17 168.45 323.11 170.24 323.99 172.07 C 329.01 172.11 334.05 172.23 339.08 172.08 C 340.72 172.35 341.12 170.45 341.86 169.44 C 341.67 170.55 341.39 171.64 341.03 172.71 L 340.20 173.15 C 334.58 172.99 328.94 173.39 323.33 172.93 C 322.66 170.84 321.11 168.91 321.26 166.64 Z" />
</g>
<g id="#3c3b3bb8">
<path fill="#3c3b3b" opacity="0.72" d=" M 492.24 166.34 C 493.09 168.17 493.83 170.05 494.43 171.98 C 502.20 172.12 509.98 172.00 517.76 172.04 C 517.53 171.14 517.08 169.33 516.86 168.43 C 518.19 169.61 518.54 171.44 519.14 173.05 C 510.81 173.01 502.38 173.46 494.11 172.83 C 493.15 170.80 492.00 168.65 492.24 166.34 Z" />
</g>
<g id="#353434a6">
<path fill="#353434" opacity="0.65" d=" M 575.03 172.15 C 580.98 172.32 586.71 170.63 592.33 168.92 C 591.73 170.22 590.04 170.31 588.88 170.83 C 578.86 173.80 568.29 173.08 557.98 173.05 C 554.82 172.63 551.30 173.51 548.42 171.94 C 557.29 172.37 566.16 171.97 575.03 172.15 Z" />
</g>
<g id="#c5c6c4ff">
<path fill="#c5c6c4" opacity="1.00" d=" M 140.47 193.83 C 157.27 189.08 173.88 183.14 189.03 174.33 C 189.13 174.84 189.35 175.85 189.45 176.35 C 185.16 180.33 179.62 182.57 174.56 185.39 C 166.99 188.75 159.38 192.08 151.41 194.39 C 143.60 197.39 135.30 198.77 127.45 201.66 C 122.51 203.31 117.20 203.24 112.16 204.48 C 106.79 205.76 101.31 206.60 95.96 207.99 C 91.64 209.43 86.03 211.46 85.56 216.75 C 87.00 220.47 89.79 223.70 93.44 225.39 C 101.71 229.99 111.38 230.37 120.58 230.99 C 120.81 231.44 121.28 232.35 121.51 232.80 C 119.09 233.29 116.67 233.76 114.22 234.10 C 109.18 233.76 104.18 234.57 99.17 234.98 C 99.71 234.38 100.24 233.78 100.78 233.18 C 92.63 232.65 84.45 230.18 78.01 225.02 C 75.17 222.09 71.85 218.05 73.66 213.70 C 76.05 208.72 82.39 208.21 86.75 205.65 C 85.75 204.90 84.76 204.15 83.76 203.41 C 90.65 203.22 97.51 202.33 104.34 201.40 C 116.54 199.74 128.60 197.11 140.47 193.83 Z" />
</g>
<g id="#52414283">
<path fill="#524142" opacity="0.51" d=" M 304.00 184.79 L 305.01 184.67 L 305.00 185.40 C 304.92 203.94 304.97 222.48 304.97 241.03 C 305.35 240.99 306.13 240.93 306.52 240.89 C 334.82 241.11 363.13 241.00 391.44 240.94 C 424.42 241.09 457.40 240.88 490.38 241.06 L 489.69 241.88 C 429.81 242.19 369.90 241.88 310.01 242.02 C 308.07 242.04 306.14 241.89 304.22 241.68 C 303.74 222.73 304.16 203.75 304.00 184.79 Z" />
</g>
<g id="#c3292dff">
<path fill="#c3292d" opacity="1.00" d=" M 637.25 184.82 C 683.49 184.52 729.76 184.79 776.02 184.67 L 776.02 185.76 C 761.71 185.76 747.41 185.73 733.10 185.82 C 723.52 185.94 713.94 185.82 704.36 185.99 C 692.72 185.88 681.07 185.58 669.44 186.02 C 659.80 185.59 650.11 185.53 640.47 185.98 C 639.47 185.86 637.46 185.61 636.46 185.49 L 637.25 184.82 Z" />
</g>
<g id="#944042aa">
<path fill="#944042" opacity="0.67" d=" M 776.02 184.67 L 777.00 184.74 C 776.98 203.16 776.97 221.59 777.00 240.02 L 776.16 240.68 C 775.88 222.37 776.13 204.06 776.02 185.76 L 776.02 184.67 Z" />
</g>
<g id="#461115ff">
<path fill="#461115" opacity="1.00" d=" M 305.00 185.40 C 328.50 185.24 352.01 185.29 375.51 185.53 C 372.80 187.55 369.27 186.82 366.13 187.18 C 366.09 188.34 366.06 189.50 366.04 190.67 C 368.26 190.83 370.49 190.98 372.72 191.25 C 372.85 191.58 373.12 192.23 373.26 192.55 C 368.40 192.54 363.55 192.56 358.69 192.54 C 354.65 199.92 350.42 207.19 346.54 214.66 C 345.96 215.33 345.90 216.91 344.72 216.72 C 340.51 208.65 335.92 200.78 331.79 192.67 C 326.72 192.44 321.65 192.60 316.59 192.56 C 316.61 205.49 316.58 218.41 316.60 231.34 C 320.81 231.33 325.01 231.35 329.22 231.31 C 329.27 224.23 329.10 217.15 329.29 210.08 C 333.09 217.17 336.44 224.49 340.46 231.45 C 343.40 231.32 346.34 231.31 349.29 231.38 C 353.19 224.29 356.97 217.13 360.59 209.90 C 360.76 217.04 360.62 224.19 360.65 231.34 C 364.85 231.35 369.04 231.35 373.24 231.35 C 373.10 231.72 372.82 232.46 372.67 232.83 C 369.26 233.05 365.84 233.03 362.43 233.26 C 361.65 235.70 360.71 238.11 359.10 240.14 C 343.05 240.14 327.00 240.03 310.96 239.88 C 309.40 239.80 307.95 240.41 306.52 240.89 C 306.13 240.93 305.35 240.99 304.97 241.03 C 304.97 222.48 304.92 203.94 305.00 185.40 Z" />
</g>
<g id="#541114ff">
<path fill="#541114" opacity="1.00" d=" M 375.51 185.53 C 391.82 185.32 408.16 185.30 424.47 185.60 C 419.87 188.54 414.06 186.20 408.95 187.29 C 409.23 188.37 409.03 190.14 410.59 190.25 C 414.75 191.22 418.98 192.33 422.45 194.97 C 422.34 195.41 422.14 196.30 422.04 196.74 C 415.72 192.06 407.50 191.77 399.97 192.30 C 393.97 192.68 387.75 195.06 384.06 200.00 C 377.65 208.88 379.58 223.69 389.77 228.96 C 397.24 232.74 406.10 232.85 414.15 231.06 C 414.27 231.52 414.50 232.43 414.62 232.88 C 411.75 233.74 408.66 233.77 405.86 234.79 C 405.29 235.93 404.89 237.14 404.47 238.34 C 403.21 238.91 401.95 239.47 400.68 239.99 C 397.35 240.14 394.01 240.19 390.68 240.22 C 380.15 240.13 369.62 240.05 359.10 240.14 C 360.71 238.11 361.65 235.70 362.43 233.26 C 365.84 233.03 369.26 233.05 372.67 232.83 C 372.82 232.46 373.10 231.72 373.24 231.35 C 373.33 218.42 373.30 205.48 373.26 192.55 C 373.12 192.23 372.85 191.58 372.72 191.25 C 370.49 190.98 368.26 190.83 366.04 190.67 C 366.06 189.50 366.09 188.34 366.13 187.18 C 369.27 186.82 372.80 187.55 375.51 185.53 Z" />
</g>
<g id="#611214ff">
<path fill="#611214" opacity="1.00" d=" M 424.47 185.60 C 439.13 185.33 453.82 185.33 468.48 185.65 C 464.79 188.12 460.17 186.50 456.04 187.13 C 456.05 188.36 456.07 189.58 456.09 190.81 C 461.63 191.24 467.19 190.76 472.72 191.27 C 472.83 191.62 473.05 192.33 473.16 192.69 C 459.71 192.70 446.26 192.69 432.80 192.70 C 432.77 196.29 432.69 199.87 432.64 203.45 C 437.09 203.47 441.54 203.48 446.00 203.43 C 446.38 212.71 446.10 222.01 446.14 231.30 C 450.80 231.38 455.46 231.35 460.13 231.31 C 460.01 231.66 459.79 232.35 459.67 232.70 C 457.55 232.97 455.42 233.13 453.30 233.32 C 453.10 235.03 452.91 236.75 452.72 238.47 C 451.02 238.94 449.34 239.42 447.64 239.86 C 431.99 240.14 416.33 239.92 400.68 239.99 C 401.95 239.47 403.21 238.91 404.47 238.34 C 404.89 237.14 405.29 235.93 405.86 234.79 C 408.66 233.77 411.75 233.74 414.62 232.88 C 414.50 232.43 414.27 231.52 414.15 231.06 C 419.99 229.60 425.38 225.57 427.45 219.78 C 430.18 211.94 428.78 202.15 422.04 196.74 C 422.14 196.30 422.34 195.41 422.45 194.97 C 418.98 192.33 414.75 191.22 410.59 190.25 C 409.03 190.14 409.23 188.37 408.95 187.29 C 414.06 186.20 419.87 188.54 424.47 185.60 Z" />
</g>
<g id="#6b1013ff">
<path fill="#6b1013" opacity="1.00" d=" M 468.48 185.65 C 485.13 185.28 501.81 185.45 518.47 185.67 C 512.55 189.16 504.47 184.37 499.18 189.70 C 501.84 189.88 504.52 190.00 507.17 190.37 C 503.75 191.71 499.80 190.18 496.56 192.23 C 491.43 192.98 486.08 194.49 482.42 198.40 C 477.55 203.17 476.63 210.61 477.83 217.04 C 478.91 222.93 483.32 227.92 488.86 230.06 C 495.93 232.74 503.78 232.76 511.10 231.12 C 511.26 231.56 511.59 232.44 511.75 232.89 C 507.75 234.04 503.58 234.18 499.46 234.30 C 499.15 235.68 498.86 237.07 498.57 238.46 C 497.64 239.00 496.70 239.52 495.77 240.04 C 479.73 240.10 463.67 240.15 447.64 239.86 C 449.34 239.42 451.02 238.94 452.72 238.47 C 452.91 236.75 453.10 235.03 453.30 233.32 C 455.42 233.13 457.55 232.97 459.67 232.70 C 459.79 232.35 460.01 231.66 460.13 231.31 C 459.47 222.06 460.63 212.78 459.80 203.53 C 464.37 203.41 468.96 203.49 473.54 203.44 C 473.33 199.86 473.41 196.27 473.16 192.69 C 473.05 192.33 472.83 191.62 472.72 191.27 C 467.19 190.76 461.63 191.24 456.09 190.81 C 456.07 189.58 456.05 188.36 456.04 187.13 C 460.17 186.50 464.79 188.12 468.48 185.65 Z" />
</g>
<g id="#7b1316ff">
<path fill="#7b1316" opacity="1.00" d=" M 518.47 185.67 C 538.77 185.38 559.11 185.45 579.42 185.73 C 575.31 187.85 570.53 186.35 566.13 187.14 C 565.55 189.66 565.63 192.26 566.21 194.77 C 562.30 193.35 558.14 192.64 553.99 192.67 C 546.90 192.68 539.81 192.68 532.73 192.69 C 532.70 205.60 532.75 218.51 532.70 231.42 C 537.36 231.51 542.03 231.44 546.70 231.49 L 546.57 232.56 C 543.17 234.39 539.18 233.83 535.49 234.28 C 535.17 235.65 534.86 237.02 534.56 238.40 C 533.26 238.98 531.97 239.58 530.66 240.13 C 519.04 240.49 507.40 240.11 495.77 240.04 C 496.70 239.52 497.64 239.00 498.57 238.46 C 498.86 237.07 499.15 235.68 499.46 234.30 C 503.58 234.18 507.75 234.04 511.75 232.89 C 511.59 232.44 511.26 231.56 511.10 231.12 C 517.00 229.60 522.43 225.55 524.46 219.65 C 527.00 211.96 525.80 202.17 519.03 196.97 C 512.74 191.89 504.21 192.02 496.56 192.23 C 499.80 190.18 503.75 191.71 507.17 190.37 C 504.52 190.00 501.84 189.88 499.18 189.70 C 504.47 184.37 512.55 189.16 518.47 185.67 Z" />
</g>
<g id="#92181cff">
<path fill="#92181c" opacity="1.00" d=" M 579.42 185.73 C 589.40 185.31 599.42 185.47 609.42 185.68 C 607.53 186.81 605.36 187.15 603.21 187.36 C 603.11 195.28 601.65 203.09 601.02 210.97 C 601.30 220.20 600.11 229.41 598.67 238.51 C 597.01 238.99 595.36 239.49 593.70 239.93 C 581.71 240.56 569.67 240.33 557.66 240.19 C 559.31 239.62 560.96 239.03 562.62 238.48 C 562.91 237.11 563.20 235.74 563.50 234.38 C 567.15 233.13 571.02 233.20 574.82 232.83 C 575.26 232.52 576.13 231.88 576.56 231.56 C 576.73 231.44 577.05 231.22 577.22 231.11 C 573.33 226.46 569.42 221.85 565.59 217.17 C 570.45 215.27 574.23 210.37 573.57 204.97 C 573.64 200.33 570.19 196.64 566.21 194.77 C 565.63 192.26 565.55 189.66 566.13 187.14 C 570.53 186.35 575.31 187.85 579.42 185.73 Z" />
</g>
<g id="#9e1b1eff">
<path fill="#9e1b1e" opacity="1.00" d=" M 609.42 185.68 C 618.42 185.25 627.45 185.58 636.46 185.49 C 637.46 185.61 639.47 185.86 640.47 185.98 C 637.68 187.42 634.50 187.14 631.47 187.14 C 632.01 190.56 632.25 194.05 631.46 197.45 C 630.37 202.52 631.58 207.72 630.72 212.81 C 629.60 220.50 628.69 228.24 629.04 236.03 C 629.48 238.16 627.45 239.14 625.91 239.98 C 615.18 239.99 604.44 239.98 593.70 239.93 C 595.36 239.49 597.01 238.99 598.67 238.51 C 600.11 229.41 601.30 220.20 601.02 210.97 C 601.65 203.09 603.11 195.28 603.21 187.36 C 605.36 187.15 607.53 186.81 609.42 185.68 Z" />
</g>
<g id="#a81c1fff">
<path fill="#a81c1f" opacity="1.00" d=" M 640.47 185.98 C 650.11 185.53 659.80 185.59 669.44 186.02 C 667.70 186.52 665.99 187.06 664.27 187.57 C 662.65 192.56 663.04 197.83 663.04 202.99 C 662.02 214.82 659.84 226.56 659.80 238.45 C 658.44 238.95 657.09 239.47 655.74 239.94 C 645.80 240.22 635.85 239.90 625.91 239.98 C 627.45 239.14 629.48 238.16 629.04 236.03 C 628.69 228.24 629.60 220.50 630.72 212.81 C 631.58 207.72 630.37 202.52 631.46 197.45 C 632.25 194.05 632.01 190.56 631.47 187.14 C 634.50 187.14 637.68 187.42 640.47 185.98 Z" />
</g>
<g id="#b61d20ff">
<path fill="#b61d20" opacity="1.00" d=" M 669.44 186.02 C 681.07 185.58 692.72 185.88 704.36 185.99 C 702.97 186.49 701.61 187.05 700.25 187.59 C 699.88 191.04 700.01 194.50 699.99 197.96 C 699.07 209.97 696.68 221.90 697.03 233.98 C 697.01 236.10 696.62 238.20 696.21 240.28 C 682.72 240.12 669.22 240.30 655.74 239.94 C 657.09 239.47 658.44 238.95 659.80 238.45 C 659.84 226.56 662.02 214.82 663.04 202.99 C 663.04 197.83 662.65 192.56 664.27 187.57 C 665.99 187.06 667.70 186.52 669.44 186.02 Z" />
</g>
<g id="#c51e21ff">
<path fill="#c51e21" opacity="1.00" d=" M 704.36 185.99 C 713.94 185.82 723.52 185.94 733.10 185.82 C 732.18 186.63 730.82 187.08 730.30 188.24 C 728.85 195.43 728.38 202.85 729.70 210.09 C 729.05 220.19 727.18 230.22 726.90 240.35 C 716.66 240.44 706.43 240.36 696.21 240.28 C 696.62 238.20 697.01 236.10 697.03 233.98 C 696.68 221.90 699.07 209.97 699.99 197.96 C 700.01 194.50 699.88 191.04 700.25 187.59 C 701.61 187.05 702.97 186.49 704.36 185.99 Z" />
</g>
<g id="#cf1d22ff">
<path fill="#cf1d22" opacity="1.00" d=" M 733.10 185.82 C 747.41 185.73 761.71 185.76 776.02 185.76 C 776.13 204.06 775.88 222.37 776.16 240.68 C 759.75 240.06 743.31 240.68 726.90 240.35 C 727.18 230.22 729.05 220.19 729.70 210.09 C 728.38 202.85 728.85 195.43 730.30 188.24 C 730.82 187.08 732.18 186.63 733.10 185.82 Z" />
</g>
<g id="#6b2022ff">
<path fill="#6b2022" opacity="1.00" d=" M 218.81 194.33 C 221.73 192.02 224.28 189.29 226.68 186.44 C 227.12 192.66 226.22 198.87 225.38 205.02 C 223.70 217.17 220.60 229.15 215.71 240.42 C 212.16 248.14 207.96 255.54 202.98 262.43 C 200.82 263.52 198.72 264.73 196.58 265.85 L 195.89 265.89 C 194.26 265.70 192.74 266.40 191.75 267.70 L 191.26 268.02 C 181.04 271.14 170.68 274.08 159.98 274.95 C 155.90 275.01 151.83 275.15 147.77 275.55 C 143.70 275.33 139.65 274.88 135.57 274.94 C 145.07 271.65 156.53 276.76 165.21 270.42 C 168.18 269.13 169.33 265.68 172.41 264.56 C 172.03 264.03 171.65 263.50 171.28 262.97 C 171.73 262.01 172.19 261.05 172.65 260.09 C 171.83 259.78 171.02 259.48 170.21 259.18 C 170.46 257.93 170.70 256.69 170.95 255.44 C 170.25 255.87 169.55 256.29 168.86 256.72 C 167.50 255.09 164.71 253.78 165.23 251.31 C 167.18 249.47 168.97 247.47 170.33 245.14 C 171.42 243.16 174.27 241.68 173.21 239.08 C 176.63 238.54 180.14 237.09 181.66 233.74 C 183.28 229.45 188.21 228.31 190.62 224.68 C 191.79 222.81 193.58 221.06 193.54 218.70 C 193.54 215.94 195.35 213.70 196.25 211.20 C 193.31 212.06 190.42 214.79 187.30 213.03 C 198.46 208.03 209.36 202.17 218.81 194.33 Z" />
</g>
<g id="#ffffffff">
<path fill="#ffffff" opacity="1.00" d=" M 384.06 200.00 C 387.75 195.06 393.97 192.68 399.97 192.30 C 407.50 191.77 415.72 192.06 422.04 196.74 C 428.78 202.15 430.18 211.94 427.45 219.78 C 425.38 225.57 419.99 229.60 414.15 231.06 C 406.10 232.85 397.24 232.74 389.77 228.96 C 379.58 223.69 377.65 208.88 384.06 200.00 M 398.43 203.76 C 396.62 204.90 395.36 206.91 395.31 209.08 C 395.07 212.59 394.64 216.89 397.47 219.54 C 399.99 221.93 403.72 221.63 406.93 221.50 C 410.41 221.40 413.64 218.65 413.91 215.11 C 414.53 211.19 414.54 205.87 410.60 203.64 C 406.82 202.03 402.15 202.00 398.43 203.76 Z" />
<path fill="#ffffff" opacity="1.00" d=" M 482.42 198.40 C 486.08 194.49 491.43 192.98 496.56 192.23 C 504.21 192.02 512.74 191.89 519.03 196.97 C 525.80 202.17 527.00 211.96 524.46 219.65 C 522.43 225.55 517.00 229.60 511.10 231.12 C 503.78 232.76 495.93 232.74 488.86 230.06 C 483.32 227.92 478.91 222.93 477.83 217.04 C 476.63 210.61 477.55 203.17 482.42 198.40 M 497.95 202.85 C 491.30 203.95 491.23 212.20 492.73 217.29 C 494.97 222.29 501.44 222.09 505.97 221.13 C 511.83 219.28 511.72 211.55 510.27 206.72 C 508.19 202.04 502.21 202.28 497.95 202.85 Z" />
<path fill="#ffffff" opacity="1.00" d=" M 316.59 192.56 C 321.65 192.60 326.72 192.44 331.79 192.67 C 335.92 200.78 340.51 208.65 344.72 216.72 C 345.90 216.91 345.96 215.33 346.54 214.66 C 350.42 207.19 354.65 199.92 358.69 192.54 C 363.55 192.56 368.40 192.54 373.26 192.55 C 373.30 205.48 373.33 218.42 373.24 231.35 C 369.04 231.35 364.85 231.35 360.65 231.34 C 360.62 224.19 360.76 217.04 360.59 209.90 C 356.97 217.13 353.19 224.29 349.29 231.38 C 346.34 231.31 343.40 231.32 340.46 231.45 C 336.44 224.49 333.09 217.17 329.29 210.08 C 329.10 217.15 329.27 224.23 329.22 231.31 C 325.01 231.35 320.81 231.33 316.60 231.34 C 316.58 218.41 316.61 205.49 316.59 192.56 Z" />
<path fill="#ffffff" opacity="1.00" d=" M 432.80 192.70 C 446.26 192.69 459.71 192.70 473.16 192.69 C 473.41 196.27 473.33 199.86 473.54 203.44 C 468.96 203.49 464.37 203.41 459.80 203.53 C 460.63 212.78 459.47 222.06 460.13 231.31 C 455.46 231.35 450.80 231.38 446.14 231.30 C 446.10 222.01 446.38 212.71 446.00 203.43 C 441.54 203.48 437.09 203.47 432.64 203.45 C 432.69 199.87 432.77 196.29 432.80 192.70 Z" />
<path fill="#ffffff" opacity="1.00" d=" M 532.73 192.69 C 539.81 192.68 546.90 192.68 553.99 192.67 C 558.14 192.64 562.30 193.35 566.21 194.77 C 570.19 196.64 573.64 200.33 573.57 204.97 C 574.23 210.37 570.45 215.27 565.59 217.17 C 569.42 221.85 573.33 226.46 577.22 231.11 C 577.05 231.22 576.73 231.44 576.56 231.56 C 571.30 231.41 566.03 231.50 560.77 231.44 C 558.17 227.54 555.69 223.56 553.07 219.67 C 550.95 219.67 548.84 219.67 546.74 219.68 C 546.68 223.62 546.82 227.56 546.70 231.49 C 542.03 231.44 537.36 231.51 532.70 231.42 C 532.75 218.51 532.70 205.60 532.73 192.69 M 546.73 202.50 C 546.71 205.40 546.72 208.31 546.77 211.22 C 550.55 211.04 554.77 212.03 558.14 209.79 C 559.52 207.41 559.42 203.02 555.97 202.60 C 552.89 202.30 549.80 202.51 546.73 202.50 Z" />
</g>
<g id="#402e2e93">
<path fill="#402e2e" opacity="0.58" d=" M 258.91 207.61 C 260.36 203.72 262.08 199.94 263.94 196.23 C 264.11 199.04 262.21 201.39 261.28 203.92 C 260.55 205.16 260.34 206.95 258.91 207.61 Z" />
</g>
<g id="#9ea09eff">
<path fill="#9ea09e" opacity="1.00" d=" M 52.92 207.67 C 56.15 206.29 58.92 204.00 62.20 202.67 C 63.53 202.76 64.87 202.85 66.21 202.95 C 68.12 203.12 70.03 203.25 71.94 203.34 C 72.38 203.89 73.25 204.99 73.69 205.55 C 70.68 208.13 66.62 209.12 63.68 211.75 C 62.27 214.99 62.75 219.13 65.24 221.73 C 67.79 224.55 70.78 226.95 73.66 229.42 C 77.45 232.77 82.99 232.49 86.99 235.46 C 85.96 235.96 84.91 236.45 83.86 236.93 C 78.77 237.83 73.56 237.65 68.42 237.51 L 68.60 235.91 C 65.72 234.00 63.36 231.46 61.35 228.65 C 55.24 222.46 50.26 215.22 46.04 207.64 C 48.33 207.34 50.63 207.61 52.92 207.67 Z" />
</g>
<g id="#5a1214ff">
<path fill="#5a1214" opacity="1.00" d=" M 398.43 203.76 C 402.15 202.00 406.82 202.03 410.60 203.64 C 414.54 205.87 414.53 211.19 413.91 215.11 C 413.64 218.65 410.41 221.40 406.93 221.50 C 403.72 221.63 399.99 221.93 397.47 219.54 C 394.64 216.89 395.07 212.59 395.31 209.08 C 395.36 206.91 396.62 204.90 398.43 203.76 Z" />
</g>
<g id="#741114ff">
<path fill="#741114" opacity="1.00" d=" M 497.95 202.85 C 502.21 202.28 508.19 202.04 510.27 206.72 C 511.72 211.55 511.83 219.28 505.97 221.13 C 501.44 222.09 494.97 222.29 492.73 217.29 C 491.23 212.20 491.30 203.95 497.95 202.85 Z" />
</g>
<g id="#841619ff">
<path fill="#841619" opacity="1.00" d=" M 546.73 202.50 C 549.80 202.51 552.89 202.30 555.97 202.60 C 559.42 203.02 559.52 207.41 558.14 209.79 C 554.77 212.03 550.55 211.04 546.77 211.22 C 546.72 208.31 546.71 205.40 546.73 202.50 Z" />
<path fill="#841619" opacity="1.00" d=" M 546.74 219.68 C 548.84 219.67 550.95 219.67 553.07 219.67 C 555.69 223.56 558.17 227.54 560.77 231.44 C 566.03 231.50 571.30 231.41 576.56 231.56 C 576.13 231.88 575.26 232.52 574.82 232.83 C 571.02 233.20 567.15 233.13 563.50 234.38 C 563.20 235.74 562.91 237.11 562.62 238.48 C 560.96 239.03 559.31 239.62 557.66 240.19 C 551.65 240.71 545.61 240.23 539.60 240.53 C 536.61 240.39 533.64 240.19 530.66 240.13 C 531.97 239.58 533.26 238.98 534.56 238.40 C 534.86 237.02 535.17 235.65 535.49 234.28 C 539.18 233.83 543.17 234.39 546.57 232.56 L 546.70 231.49 C 546.82 227.56 546.68 223.62 546.74 219.68 Z" />
</g>
<g id="#afb0aeff">
<path fill="#afb0ae" opacity="1.00" d=" M 71.94 203.34 C 75.88 203.50 79.82 203.42 83.76 203.41 C 84.76 204.15 85.75 204.90 86.75 205.65 C 82.39 208.21 76.05 208.72 73.66 213.70 C 71.85 218.05 75.17 222.09 78.01 225.02 C 84.45 230.18 92.63 232.65 100.78 233.18 C 100.24 233.78 99.71 234.38 99.17 234.98 C 104.18 234.57 109.18 233.76 114.22 234.10 C 105.64 235.62 96.95 236.37 88.26 237.02 C 86.80 236.98 85.33 236.95 83.86 236.93 C 84.91 236.45 85.96 235.96 86.99 235.46 C 82.99 232.49 77.45 232.77 73.66 229.42 C 70.78 226.95 67.79 224.55 65.24 221.73 C 62.75 219.13 62.27 214.99 63.68 211.75 C 66.62 209.12 70.68 208.13 73.69 205.55 C 73.25 204.99 72.38 203.89 71.94 203.34 Z" />
</g>
<g id="#5c4c4a9e">
<path fill="#5c4c4a" opacity="0.62" d=" M 258.37 208.86 C 258.44 208.71 258.57 208.41 258.64 208.26 C 258.57 208.41 258.44 208.71 258.37 208.86 Z" />
</g>
<g id="#56494889">
<path fill="#564948" opacity="0.54" d=" M 257.35 210.78 C 257.44 210.64 257.63 210.36 257.72 210.22 C 257.63 210.36 257.44 210.64 257.35 210.78 Z" />
</g>
<g id="#772a28ff">
<path fill="#772a28" opacity="1.00" d=" M 187.30 213.03 C 190.42 214.79 193.31 212.06 196.25 211.20 C 195.35 213.70 193.54 215.94 193.54 218.70 C 193.58 221.06 191.79 222.81 190.62 224.68 C 188.21 228.31 183.28 229.45 181.66 233.74 C 180.14 237.09 176.63 238.54 173.21 239.08 C 172.04 234.42 170.16 229.90 167.76 225.73 C 169.30 223.69 170.60 221.48 171.82 219.24 C 177.03 217.30 182.19 215.22 187.30 213.03 Z" />
</g>
<g id="#462d2cb1">
<path fill="#462d2c" opacity="0.69" d=" M 253.93 216.04 C 253.90 214.13 254.99 212.51 256.65 211.64 C 257.06 213.27 255.60 215.13 254.43 216.18 L 253.93 216.04 Z" />
</g>
<g id="#422f2f96">
<path fill="#422f2f" opacity="0.59" d=" M 251.64 219.70 C 251.77 218.39 252.40 216.95 253.84 216.67 C 254.35 217.87 253.03 220.10 251.64 219.70 Z" />
</g>
<g id="#5a1618ff">
<path fill="#5a1618" opacity="1.00" d=" M 121.51 232.80 C 138.62 229.68 155.47 225.17 171.82 219.24 C 170.60 221.48 169.30 223.69 167.76 225.73 C 157.96 238.28 142.80 246.61 126.93 248.02 C 121.86 248.61 116.77 248.03 111.69 248.08 C 101.71 245.96 91.70 243.28 82.73 238.28 C 84.57 237.85 86.41 237.40 88.26 237.02 C 96.95 236.37 105.64 235.62 114.22 234.10 C 116.67 233.76 119.09 233.29 121.51 232.80 Z" />
</g>
<g id="#5c4543b8">
<path fill="#5c4543" opacity="0.72" d=" M 250.38 221.90 C 250.48 221.78 250.68 221.55 250.77 221.44 C 250.68 221.55 250.48 221.78 250.38 221.90 Z" />
</g>
<g id="#6e312fff">
<path fill="#6e312f" opacity="1.00" d=" M 126.93 248.02 C 142.80 246.61 157.96 238.28 167.76 225.73 C 170.16 229.90 172.04 234.42 173.21 239.08 C 174.27 241.68 171.42 243.16 170.33 245.14 C 168.97 247.47 167.18 249.47 165.23 251.31 C 164.71 253.78 167.50 255.09 168.86 256.72 C 169.55 256.29 170.25 255.87 170.95 255.44 C 170.70 256.69 170.46 257.93 170.21 259.18 C 171.02 259.48 171.83 259.78 172.65 260.09 C 172.19 261.05 171.73 262.01 171.28 262.97 C 171.65 263.50 172.03 264.03 172.41 264.56 C 169.33 265.68 168.18 269.13 165.21 270.42 C 156.53 276.76 145.07 271.65 135.57 274.94 C 132.27 274.90 129.03 274.13 125.74 273.99 C 118.10 272.74 110.28 270.93 103.28 267.66 C 102.24 266.43 100.75 265.71 99.13 265.84 C 96.95 265.73 95.09 264.41 93.14 263.58 C 88.27 261.09 83.28 258.67 78.96 255.29 C 80.56 255.41 82.25 255.48 83.60 256.50 C 87.53 259.06 91.97 261.59 96.85 261.00 C 98.96 260.20 100.73 258.76 102.57 257.50 C 102.60 256.74 102.64 255.99 102.67 255.24 C 105.33 255.08 108.33 255.70 110.59 253.92 C 109.34 253.64 108.08 253.41 106.83 253.16 C 111.89 248.36 119.07 251.18 125.13 249.48 C 120.65 248.98 116.02 249.59 111.69 248.08 C 116.77 248.03 121.86 248.61 126.93 248.02 Z" />
</g>
<g id="#634845af">
<path fill="#634845" opacity="0.69" d=" M 59.21 238.79 C 60.36 238.98 61.02 239.65 61.21 240.82 C 59.60 241.05 58.94 240.37 59.21 238.79 Z" />
</g>
<g id="#461013ff">
<path fill="#461013" opacity="1.00" d=" M 215.71 240.42 C 219.91 239.93 222.12 243.92 224.46 246.66 C 223.69 247.63 222.92 248.59 222.16 249.56 L 223.42 250.33 L 223.61 250.45 L 222.50 250.99 C 218.25 253.21 214.41 256.13 210.52 258.90 L 209.77 259.39 C 209.66 259.45 209.45 259.56 209.35 259.62 L 208.65 259.94 C 206.73 260.70 204.82 261.50 202.98 262.43 C 207.96 255.54 212.16 248.14 215.71 240.42 Z" />
</g>
<g id="#3d0001ff">
<path fill="#3d0001" opacity="1.00" d=" M 306.52 240.89 C 307.95 240.41 309.40 239.80 310.96 239.88 C 327.00 240.03 343.05 240.14 359.10 240.14 C 369.62 240.05 380.15 240.13 390.68 240.22 L 391.44 240.94 C 363.13 241.00 334.82 241.11 306.52 240.89 Z" />
</g>
<g id="#5e0001ff">
<path fill="#5e0001" opacity="1.00" d=" M 390.68 240.22 C 394.01 240.19 397.35 240.14 400.68 239.99 C 416.33 239.92 431.99 240.14 447.64 239.86 C 463.67 240.15 479.73 240.10 495.77 240.04 C 507.40 240.11 519.04 240.49 530.66 240.13 C 533.64 240.19 536.61 240.39 539.60 240.53 L 538.59 240.89 C 522.52 241.22 506.45 240.90 490.38 241.06 C 457.40 240.88 424.42 241.09 391.44 240.94 L 390.68 240.22 Z" />
</g>
<g id="#a7070bff">
<path fill="#a7070b" opacity="1.00" d=" M 539.60 240.53 C 545.61 240.23 551.65 240.71 557.66 240.19 C 569.67 240.33 581.71 240.56 593.70 239.93 C 604.44 239.98 615.18 239.99 625.91 239.98 C 635.85 239.90 645.80 240.22 655.74 239.94 C 669.22 240.30 682.72 240.12 696.21 240.28 C 706.43 240.36 716.66 240.44 726.90 240.35 C 743.31 240.68 759.75 240.06 776.16 240.68 C 773.82 241.25 771.39 241.01 769.02 241.03 C 692.21 240.97 615.40 241.04 538.59 240.89 L 539.60 240.53 Z" />
</g>
<g id="#67424380">
<path fill="#674243" opacity="0.50" d=" M 776.16 240.68 L 777.00 240.02 C 777.39 242.52 774.63 241.95 773.05 242.03 C 678.59 241.91 584.14 242.13 489.69 241.88 L 490.38 241.06 C 506.45 240.90 522.52 241.22 538.59 240.89 C 615.40 241.04 692.21 240.97 769.02 241.03 C 771.39 241.01 773.82 241.25 776.16 240.68 Z" />
</g>
<g id="#3b262785">
<path fill="#3b2627" opacity="0.52" d=" M 210.52 258.90 C 214.41 256.13 218.25 253.21 222.50 250.99 C 219.04 254.28 214.90 257.02 210.52 258.90 Z" />
</g>
<g id="#53464681">
<path fill="#534646" opacity="0.51" d=" M 209.35 259.62 C 209.45 259.56 209.66 259.45 209.77 259.39 C 209.66 259.45 209.45 259.56 209.35 259.62 Z" />
</g>
<g id="#4830308c">
<path fill="#483030" opacity="0.55" d=" M 202.98 262.43 C 204.82 261.50 206.73 260.70 208.65 259.94 C 205.14 262.62 200.90 264.76 196.58 265.85 C 198.72 264.73 200.82 263.52 202.98 262.43 Z" />
</g>
<g id="#5541408e">
<path fill="#554140" opacity="0.56" d=" M 99.13 265.84 C 100.75 265.71 102.24 266.43 103.28 267.66 C 102.02 268.36 98.94 267.50 99.13 265.84 Z" />
</g>
<g id="#533b3a94">
<path fill="#533b3a" opacity="0.58" d=" M 191.75 267.70 C 192.74 266.40 194.26 265.70 195.89 265.89 C 196.00 267.48 193.00 268.40 191.75 267.70 Z" />
</g>
</svg>
