<?xml version="1.0" encoding="UTF-8" standalone="yes"?>
<svg xmlns="http://www.w3.org/2000/svg" xmlns:xlink="http://www.w3.org/1999/xlink" width="174.66666666666666px" height="106.66666666666666px" viewBox="0 0 131 80" version="1.1">
  <g id="surface1">
    <path style=" stroke:none;fill-rule:nonzero;fill:rgb(0%,0%,0%);fill-opacity:1;" d="M 0 0 C 14.796875 -0.00390625 29.589844 -0.0117188 44.386719 0.00390625 C 49.4375 5.382812 54.519531 10.730469 59.597656 16.078125 C 64.632812 10.691406 69.75 5.371094 74.796875 0 C 89.671875 -0.00390625 104.554688 -0.00390625 119.425781 0 C 119.433594 11.039062 119.421875 22.074219 119.433594 33.121094 C 119.398438 33.621094 119.539062 34.183594 119.296875 34.652344 C 115.605469 40.703125 112.402344 47.070312 110 53.742188 C 109.691406 54.460938 109.40625 55.292969 108.714844 55.730469 C 108.121094 55.984375 107.25 55.875 106.929688 55.246094 C 106.507812 54.453125 106.53125 53.527344 106.410156 52.65625 C 106.023438 49.292969 105.671875 45.910156 105.117188 42.558594 C 104.789062 40.851562 104.414062 39.003906 103.140625 37.71875 C 101.953125 36.554688 100.128906 36.441406 98.582031 36.816406 C 97.15625 37.132812 95.816406 37.984375 95.101562 39.28125 C 94.167969 40.886719 94.175781 42.835938 94.511719 44.613281 C 95.101562 47.726562 96.148438 50.726562 97.21875 53.703125 C 99.335938 59.3125 101.484375 64.925781 103.609375 70.53125 C 104.140625 71.964844 104.976562 73.445312 106.441406 74.089844 C 107.699219 74.621094 109.121094 74.617188 110.457031 74.421875 C 111.613281 74.246094 112.609375 73.472656 113.183594 72.472656 C 114.253906 70.644531 114.671875 68.539062 115.304688 66.53125 C 116.566406 62.441406 117.78125 58.3125 119.410156 54.347656 C 119.445312 63.078125 119.410156 71.816406 119.421875 80.546875 C 110.136719 80.554688 100.847656 80.546875 91.558594 80.554688 C 91.183594 77.308594 90.910156 74.035156 91.078125 70.769531 C 91.117188 67.582031 91.25 64.410156 91.214844 61.222656 C 91.3125 56.601562 90.714844 52.015625 90.453125 47.40625 C 90.15625 43.828125 90.542969 40.230469 90.226562 36.652344 C 92.863281 34.996094 95.613281 33.539062 98.265625 31.910156 C 100.050781 30.800781 101.964844 29.847656 103.488281 28.371094 C 104.332031 27.546875 104.988281 26.292969 104.480469 25.113281 C 103.410156 22.929688 100.589844 21.75 98.316406 22.707031 C 96.457031 23.566406 95.351562 25.433594 93.652344 26.519531 C 91.535156 27.835938 89.398438 29.125 87.222656 30.355469 C 85.578125 29.492188 83.601562 29.207031 81.824219 29.765625 C 80.855469 30.078125 79.960938 30.742188 79.574219 31.707031 C 79.117188 32.769531 79.5 33.9375 79.292969 35.027344 C 79.164062 35.703125 78.640625 36.183594 78.070312 36.503906 C 75.667969 37.929688 73.242188 39.324219 70.84375 40.765625 C 68.375 42.210938 65.984375 43.875 63.210938 44.679688 C 61.523438 45.175781 59.546875 45.75 58.734375 47.472656 C 57.953125 49.152344 58.875 51.085938 60.179688 52.207031 C 61.300781 53.28125 63.015625 53.507812 64.453125 53 C 66.324219 52.382812 67.871094 51.078125 69.425781 49.914062 C 71.359375 48.429688 73.34375 47.011719 75.324219 45.589844 C 76.394531 44.851562 77.472656 44.046875 78.730469 43.652344 C 79.585938 43.332031 80.660156 43.703125 81.019531 44.570312 C 81.871094 46.480469 81.601562 48.640625 81.640625 50.675781 C 81.691406 57.460938 81.070312 64.230469 80.839844 71.011719 C 80.820312 74.195312 80.792969 77.371094 80.941406 80.554688 C 78.480469 80.542969 76.027344 80.578125 73.566406 80.53125 C 73.585938 73.023438 73.582031 65.507812 73.570312 58 C 68.898438 61.9375 64.234375 65.890625 59.570312 69.828125 C 54.894531 65.898438 50.234375 61.941406 45.570312 58.011719 C 45.558594 65.519531 45.566406 73.039062 45.570312 80.546875 C 30.375 80.558594 15.171875 80.554688 -0.015625 80.546875 C 0 53.695312 0 26.851562 0 0 Z M 0 0 "/>
    <path style=" stroke:none;fill-rule:nonzero;fill:rgb(0%,0%,0%);fill-opacity:1;" d="M 48.5625 0.0117188 C 53.066406 1.972656 57.542969 3.972656 62.042969 5.9375 C 62.726562 6.222656 63.164062 6.839844 63.675781 7.34375 C 62.339844 8.816406 60.925781 10.222656 59.589844 11.703125 C 55.917969 7.800781 52.199219 3.949219 48.5625 0.0117188 Z M 48.5625 0.0117188 "/>
    <path style=" stroke:none;fill-rule:nonzero;fill:rgb(0%,0%,0%);fill-opacity:1;" d="M 122.429688 -0.0390625 C 124.894531 1.445312 127.367188 2.921875 129.816406 4.421875 C 129.796875 9.890625 129.808594 15.367188 129.808594 20.839844 C 127.183594 23.738281 124.730469 26.792969 122.4375 29.972656 C 122.410156 19.972656 122.433594 9.964844 122.429688 -0.0390625 Z M 122.429688 -0.0390625 "/>
    <path style=" stroke:none;fill-rule:nonzero;fill:rgb(0%,0%,0%);fill-opacity:1;" d="M 122.984375 46.675781 C 125.003906 42.898438 127.257812 39.234375 129.796875 35.789062 C 129.808594 50.707031 129.796875 65.628906 129.804688 80.542969 C 127.34375 80.546875 124.882812 80.546875 122.421875 80.542969 C 122.417969 69.839844 122.429688 59.132812 122.417969 48.421875 C 122.359375 47.789062 122.703125 47.222656 122.984375 46.675781 Z M 122.984375 46.675781 "/>
    <path style=" stroke:none;fill-rule:nonzero;fill:rgb(0%,0%,0%);fill-opacity:1;" d="M 48.582031 64.503906 C 50.621094 66.199219 52.628906 67.953125 54.691406 69.621094 C 54.730469 73.261719 54.699219 76.902344 54.707031 80.546875 C 52.667969 80.546875 50.621094 80.546875 48.582031 80.546875 C 48.582031 75.199219 48.578125 69.847656 48.582031 64.503906 Z M 48.582031 64.503906 "/>
    <path style=" stroke:none;fill-rule:nonzero;fill:rgb(0%,0%,0%);fill-opacity:1;" d="M 64.011719 70.050781 C 66.183594 68.210938 68.359375 66.378906 70.535156 64.542969 C 70.519531 66.023438 70.558594 67.503906 70.507812 68.972656 C 70.050781 69.332031 69.605469 69.691406 69.167969 70.0625 C 67.441406 70.070312 65.734375 70.085938 64.011719 70.050781 Z M 64.011719 70.050781 "/>
  </g>
</svg>