<?xml version="1.0" encoding="UTF-8" standalone="yes"?>
<svg xmlns="http://www.w3.org/2000/svg" xmlns:xlink="http://www.w3.org/1999/xlink" width="117.33333333333333px" height="106.66666666666666px" viewBox="0 0 88 80" version="1.1">
  <g id="surface1">
    <path style=" stroke:none;fill-rule:nonzero;fill:rgb(86.666667%,9.019608%,19.215686%);fill-opacity:1;" d="M 45.390625 43.035156 C 45.390625 44.191406 45.855469 45.589844 47.425781 45.589844 C 48.78125 45.589844 49.542969 44.933594 49.878906 44.699219 L 51.410156 48.285156 C 49.925781 49.289062 48.332031 49.796875 46.625 49.796875 C 43.929688 49.796875 41.195312 48.539062 40.460938 45.625 C 40.242188 44.757812 40.132812 43.863281 40.132812 42.75 L 40.132812 32.320312 C 40.132812 29.121094 42.597656 27.21875 45.042969 27.21875 L 45.390625 27.21875 L 45.390625 32.324219 L 49.425781 32.324219 L 49.425781 36.414062 L 45.390625 36.414062 Z M 45.390625 43.035156 "/>
    <path style=" stroke:none;fill-rule:nonzero;fill:rgb(86.666667%,9.019608%,19.215686%);fill-opacity:1;" d="M 33.273438 49.183594 L 38.53125 49.183594 L 38.53125 38.757812 C 38.53125 36.648438 37.953125 34.984375 36.804688 33.761719 C 35.652344 32.539062 33.960938 31.898438 31.78125 31.898438 C 29.476562 31.898438 27.460938 32.722656 26.078125 34.234375 C 25.183594 32.996094 23.730469 31.898438 21.160156 31.898438 C 19.273438 31.898438 16.941406 33.128906 16.101562 34.550781 L 15.871094 31.9375 L 15.527344 31.9375 C 13.207031 32 10.882812 33.820312 10.882812 36.378906 L 10.882812 49.183594 L 16.140625 49.183594 L 16.140625 40.152344 C 16.140625 39.074219 16.449219 38.1875 17.066406 37.492188 C 17.683594 36.796875 18.488281 36.449219 19.480469 36.449219 C 20.375 36.449219 21.046875 36.726562 21.496094 37.277344 C 21.941406 37.828125 22.167969 38.605469 22.167969 39.613281 L 22.167969 49.183594 L 27.246094 49.183594 L 27.246094 40.152344 C 27.246094 39.074219 27.546875 38.1875 28.152344 37.492188 C 28.757812 36.796875 29.566406 36.449219 30.585938 36.449219 C 31.480469 36.449219 32.152344 36.726562 32.597656 37.277344 C 33.046875 37.828125 33.273438 38.605469 33.273438 39.613281 Z M 33.273438 49.183594 "/>
    <path style=" stroke:none;fill-rule:nonzero;fill:rgb(86.666667%,9.019608%,19.215686%);fill-opacity:1;" d="M 68.941406 61.210938 C 62.4375 69.90625 52.03125 75.539062 40.296875 75.539062 C 20.59375 75.539062 4.625 59.65625 4.625 40.066406 C 4.625 20.476562 20.59375 4.597656 40.296875 4.597656 C 52.296875 4.597656 62.90625 10.488281 69.375 19.515625 C 69.527344 19.730469 69.8125 19.78125 70.027344 19.726562 L 73.71875 18.8125 C 73.984375 18.753906 74.050781 18.496094 73.925781 18.300781 C 66.769531 7.359375 54.402344 0.175781 40.296875 0.175781 C 18.140625 0.175781 0.175781 18.035156 0.175781 40.066406 C 0.175781 62.101562 18.140625 79.960938 40.296875 79.960938 C 54.011719 79.960938 66.121094 73.070312 73.382812 62.628906 C 73.625 62.28125 73.585938 61.992188 73.253906 61.90625 L 69.613281 60.945312 C 69.363281 60.878906 69.109375 60.988281 68.941406 61.210938 "/>
    <path style=" stroke:none;fill-rule:nonzero;fill:rgb(86.666667%,9.019608%,19.215686%);fill-opacity:1;" d="M 65.164062 51.667969 C 66.480469 56.222656 71.003906 59.457031 76.117188 59.457031 C 82.929688 59.457031 87.824219 55.171875 87.824219 47.90625 C 87.824219 43.371094 85.011719 39.601562 82.640625 38.703125 C 84.523438 37.734375 86.570312 35.300781 86.570312 31.601562 C 86.570312 25.675781 82.179688 21.195312 76.078125 21.195312 C 71.46875 21.195312 67.339844 23.910156 65.636719 27.726562 L 70.050781 30.539062 C 71.746094 27.765625 73.773438 26.554688 76.078125 26.554688 C 79.199219 26.554688 81.230469 28.570312 81.230469 31.601562 C 81.230469 34.304688 79.011719 36.496094 75.933594 36.496094 C 75.90625 36.496094 73.085938 36.496094 73.085938 36.496094 L 73.085938 41.597656 C 73.085938 41.597656 75.921875 41.597656 75.945312 41.597656 C 79.40625 41.597656 82.402344 44.164062 82.402344 47.90625 C 82.402344 51.417969 79.972656 53.742188 76.117188 53.742188 C 73.320312 53.742188 71.027344 51.679688 69.789062 48.941406 Z M 65.164062 51.667969 "/>
    <path style=" stroke:none;fill-rule:nonzero;fill:rgb(86.666667%,9.019608%,19.215686%);fill-opacity:1;" d="M 59.832031 43.320312 L 56.265625 32.324219 L 50.425781 32.324219 L 57.15625 49.183594 L 62.148438 49.183594 C 62.148438 49.183594 66.957031 39.378906 67.117188 39.023438 C 68.28125 36.433594 66.898438 32.953125 64.425781 31.492188 Z M 59.832031 43.320312 "/>
  </g>
</svg>