<?xml version="1.0" encoding="utf-8"?>
<!-- Generator: Adobe Illustrator 15.0.0, SVG Export Plug-In . SVG Version: 6.00 Build 0)  -->
<!DOCTYPE svg PUBLIC "-//W3C//DTD SVG 1.1//EN" "http://www.w3.org/Graphics/SVG/1.1/DTD/svg11.dtd">
<svg version="1.1"
	 id="Layer_1" sodipodi:docname="AJAX.svg" inkscape:version="0.48.1 " xmlns:dc="http://purl.org/dc/elements/1.1/" xmlns:cc="http://creativecommons.org/ns#" xmlns:rdf="http://www.w3.org/1999/02/22-rdf-syntax-ns#" xmlns:svg="http://www.w3.org/2000/svg" xmlns:sodipodi="http://sodipodi.sourceforge.net/DTD/sodipodi-0.dtd" xmlns:inkscape="http://www.inkscape.org/namespaces/inkscape"
	 xmlns="http://www.w3.org/2000/svg" xmlns:xlink="http://www.w3.org/1999/xlink" x="0px" y="0px" width="22.792px"
	 height="14.096px" viewBox="496.238 307.076 22.792 14.096" enable-background="new 496.238 307.076 22.792 14.096"
	 xml:space="preserve">
<sodipodi:namedview  id="namedview17" inkscape:current-layer="g3" inkscape:window-y="-8" inkscape:window-x="-8" fit-margin-bottom="0" fit-margin-right="0" inkscape:window-height="1004" inkscape:window-width="1280" inkscape:pageshadow="2" inkscape:pageopacity="0" inkscape:cy="159.5122" inkscape:cx="259.25" inkscape:zoom="2.2187081" fit-margin-left="0" fit-margin-top="0" showgrid="false" guidetolerance="10" gridtolerance="10" objecttolerance="10" borderopacity="1" bordercolor="#666666" pagecolor="#ffffff" inkscape:window-maximized="1">
	</sodipodi:namedview>
<g id="g3" transform="translate(-12.75,-6.84)">
	<path id="path5" inkscape:connector-curvature="0" d="M508.988,313.916c2.598-0.001,5.195-0.002,7.793,0.001
		c0.887,0.941,1.779,1.877,2.671,2.813c0.884-0.943,1.782-1.874,2.668-2.814c2.612-0.001,5.225-0.001,7.836,0
		c0.001,1.932-0.001,3.863,0.001,5.796c-0.006,0.088,0.019,0.186-0.024,0.268c-0.648,1.059-1.21,2.173-1.632,3.341
		c-0.054,0.126-0.104,0.271-0.226,0.348c-0.104,0.044-0.257,0.025-0.313-0.085c-0.074-0.139-0.07-0.301-0.091-0.453
		c-0.068-0.589-0.13-1.181-0.227-1.767c-0.058-0.299-0.124-0.622-0.347-0.847c-0.209-0.204-0.529-0.224-0.801-0.158
		c-0.25,0.055-0.485,0.204-0.611,0.431c-0.164,0.281-0.162,0.622-0.103,0.933c0.103,0.545,0.287,1.07,0.475,1.591
		c0.372,0.982,0.749,1.964,1.122,2.945c0.093,0.251,0.24,0.51,0.497,0.623c0.221,0.093,0.471,0.092,0.705,0.058
		c0.203-0.031,0.378-0.166,0.479-0.341c0.188-0.32,0.261-0.689,0.372-1.04c0.222-0.716,0.435-1.438,0.721-2.132
		c0.006,1.528,0,3.057,0.002,4.585c-1.63,0.001-3.261,0-4.892,0.001c-0.066-0.568-0.114-1.141-0.084-1.712
		c0.007-0.558,0.03-1.113,0.024-1.671c0.017-0.809-0.088-1.611-0.134-2.418c-0.052-0.626,0.016-1.256-0.04-1.882
		c0.463-0.29,0.946-0.545,1.412-0.83c0.313-0.194,0.649-0.361,0.917-0.619c0.148-0.144,0.263-0.364,0.174-0.57
		c-0.188-0.382-0.683-0.589-1.082-0.421c-0.327,0.15-0.521,0.477-0.819,0.667c-0.372,0.23-0.747,0.456-1.129,0.671
		c-0.289-0.151-0.636-0.201-0.948-0.103c-0.17,0.055-0.327,0.171-0.395,0.34c-0.08,0.186-0.013,0.39-0.049,0.581
		c-0.023,0.118-0.115,0.202-0.215,0.258c-0.422,0.25-0.848,0.494-1.269,0.746c-0.433,0.253-0.853,0.544-1.34,0.685
		c-0.296,0.087-0.643,0.187-0.786,0.489c-0.137,0.294,0.025,0.632,0.254,0.828c0.197,0.188,0.498,0.228,0.75,0.139
		c0.329-0.108,0.6-0.336,0.873-0.54c0.34-0.26,0.688-0.508,1.036-0.757c0.188-0.129,0.377-0.27,0.598-0.339
		c0.15-0.056,0.339,0.009,0.402,0.161c0.149,0.334,0.102,0.712,0.109,1.068c0.009,1.188-0.1,2.372-0.141,3.559
		c-0.003,0.557-0.008,1.113,0.018,1.67c-0.432-0.002-0.863,0.004-1.295-0.004c0.004-1.314,0.003-2.629,0.001-3.943
		c-0.82,0.689-1.639,1.381-2.458,2.07c-0.821-0.688-1.639-1.38-2.458-2.068c-0.002,1.314-0.001,2.63,0,3.944
		c-2.668,0.002-5.337,0.001-8.004,0C508.988,323.313,508.988,318.615,508.988,313.916L508.988,313.916z"/>
	<path id="path7" inkscape:connector-curvature="0" d="M517.514,313.918c0.791,0.343,1.577,0.693,2.367,1.037
		c0.12,0.05,0.197,0.158,0.287,0.246c-0.235,0.258-0.483,0.504-0.718,0.763C518.806,315.281,518.153,314.607,517.514,313.918z"/>
	<path id="path9" inkscape:connector-curvature="0" d="M530.483,313.909c0.433,0.26,0.867,0.518,1.297,0.781
		c-0.003,0.957-0.001,1.915-0.001,2.873c-0.461,0.507-0.892,1.042-1.294,1.598C530.48,317.411,530.484,315.66,530.483,313.909z"/>
	<path id="path11" inkscape:connector-curvature="0" d="M530.581,322.084c0.354-0.661,0.75-1.302,1.196-1.905
		c0.002,2.611,0,5.222,0.001,7.832c-0.432,0.001-0.864,0.001-1.296,0c-0.001-1.873,0.001-3.747-0.001-5.621
		C530.471,322.279,530.531,322.18,530.581,322.084L530.581,322.084z"/>
	<path id="path13" inkscape:connector-curvature="0" d="M517.518,325.204c0.358,0.297,0.71,0.604,1.072,0.896
		c0.007,0.637,0.002,1.274,0.003,1.912c-0.358,0-0.717,0-1.075,0C517.518,327.076,517.517,326.139,517.518,325.204z"/>
	<path id="path15" inkscape:connector-curvature="0" d="M520.227,326.175c0.381-0.322,0.763-0.643,1.145-0.964
		c-0.003,0.259,0.004,0.518-0.005,0.775c-0.08,0.063-0.158,0.126-0.235,0.191C520.829,326.178,520.529,326.181,520.227,326.175z"/>
</g>
</svg>
