<?xml version="1.0" encoding="UTF-8" standalone="yes"?>
<svg xmlns="http://www.w3.org/2000/svg" xmlns:xlink="http://www.w3.org/1999/xlink" width="168px" height="106.66666666666666px" viewBox="0 0 126 80" version="1.1">
  <g id="surface1">
    <path style=" stroke:none;fill-rule:nonzero;fill:rgb(100%,100%,100%);fill-opacity:1;" d="M 71.425781 8.226562 C 72.230469 7.921875 73.011719 7.535156 73.855469 7.34375 C 73.875 10.929688 73.808594 14.515625 73.886719 18.097656 C 79.574219 18.078125 85.261719 18.085938 90.945312 18.101562 C 91.292969 18.042969 91.292969 18.5 91.417969 18.710938 C 92.332031 21.402344 93.261719 24.09375 94.199219 26.777344 C 93.015625 27.808594 91.695312 28.667969 90.496094 29.683594 C 89.851562 30.246094 89.046875 30.585938 88.40625 31.160156 C 87.578125 31.898438 86.359375 32.226562 85.886719 33.328125 C 84.839844 30.820312 83.957031 28.246094 82.945312 25.722656 C 79.925781 25.726562 76.910156 25.738281 73.890625 25.714844 C 73.808594 28.863281 73.875 32.011719 73.855469 35.160156 C 73.898438 36.445312 73.675781 37.78125 74.179688 39.003906 C 73.714844 38.945312 73.242188 38.957031 72.78125 39.027344 C 70.917969 39.3125 69.078125 39.777344 67.199219 39.9375 C 66.074219 39.96875 64.9375 39.945312 63.832031 40.195312 C 63.460938 40.21875 63.359375 40.628906 63.179688 40.882812 C 63.003906 39.6875 63.023438 38.472656 63.027344 37.265625 C 63.03125 28.773438 63.019531 20.285156 63.03125 11.792969 C 62.964844 11.472656 63.367188 11.421875 63.566406 11.308594 C 66.195312 10.300781 68.804688 9.25 71.425781 8.226562 Z M 71.425781 8.226562 "/>
    <path style=" stroke:none;fill-rule:nonzero;fill:rgb(100%,100%,100%);fill-opacity:1;" d="M 32.128906 18.507812 C 34.503906 17.523438 37.164062 17.519531 39.675781 17.851562 C 42.378906 18.257812 45.125 19.472656 46.679688 21.820312 C 47.847656 23.5625 48.292969 25.707031 48.261719 27.785156 C 48.238281 31.878906 48.296875 35.96875 48.222656 40.0625 C 47.933594 39.863281 47.652344 39.582031 47.269531 39.625 C 44.253906 39.621094 41.234375 39.621094 38.21875 39.625 C 37.75 39.53125 37.511719 39.960938 37.292969 40.285156 C 37.1875 36.679688 37.285156 33.070312 37.238281 29.464844 C 37.171875 28.257812 36.894531 26.929688 35.929688 26.113281 C 34.867188 25.222656 33.363281 25.128906 32.050781 25.367188 C 30.707031 25.589844 29.496094 26.527344 29.007812 27.816406 C 28.25 29.65625 28.699219 31.679688 28.507812 33.601562 C 28.3125 35.625 28.542969 37.664062 28.382812 39.6875 C 24.648438 39.546875 20.914062 39.667969 17.179688 39.617188 C 17.1875 32.445312 17.140625 25.277344 17.203125 18.105469 C 20.980469 18.09375 24.761719 18.078125 28.535156 18.113281 C 28.546875 18.996094 28.527344 19.878906 28.550781 20.765625 C 29.792969 20.089844 30.796875 19.03125 32.128906 18.507812 Z M 32.128906 18.507812 "/>
    <path style=" stroke:none;fill-rule:nonzero;fill:rgb(100%,100%,100%);fill-opacity:1;" d="M 52.160156 29.550781 C 54.4375 29.535156 56.710938 29.5625 58.988281 29.53125 C 59.085938 31.394531 59.042969 33.265625 59.015625 35.132812 C 56.730469 35.121094 54.441406 35.164062 52.15625 35.113281 C 52.175781 33.257812 52.175781 31.402344 52.160156 29.550781 Z M 52.160156 29.550781 "/>
    <path style=" stroke:none;fill-rule:nonzero;fill:rgb(46.666667%,0%,7.45098%);fill-opacity:1;" d="M 74.34375 4.832031 C 74.527344 4.679688 74.765625 4.730469 74.984375 4.726562 C 75.328125 5.074219 75.886719 5.34375 75.886719 5.90625 C 75.921875 7.855469 75.894531 9.808594 75.894531 11.761719 C 85.316406 11.773438 94.738281 11.761719 104.160156 11.765625 C 105.269531 11.777344 106.382812 11.730469 107.492188 11.804688 L 107.460938 11.832031 C 106.34375 12.957031 105.644531 14.410156 104.628906 15.613281 C 104.203125 16.101562 103.832031 16.644531 103.613281 17.261719 C 103.390625 17.265625 103.167969 17.273438 102.945312 17.285156 C 102.761719 17.851562 102.566406 18.417969 102.371094 18.984375 L 102.285156 18.738281 C 100.144531 20.671875 98.472656 23.078125 96.296875 24.984375 C 95.871094 25.421875 95.425781 25.859375 94.835938 26.074219 C 93.832031 23.140625 92.8125 20.207031 91.796875 17.277344 C 86.101562 17.292969 80.402344 17.28125 74.707031 17.285156 C 74.707031 13.535156 74.710938 9.785156 74.707031 6.035156 C 70.546875 7.6875 66.371094 9.316406 62.207031 10.960938 C 62.1875 18.5 62.234375 26.039062 62.183594 33.582031 C 61.898438 34.355469 61.871094 35.183594 61.875 36.003906 C 61.835938 35.523438 61.808594 35.039062 61.683594 34.574219 C 61.289062 34.296875 60.78125 34.472656 60.339844 34.484375 C 60.257812 35.003906 60.140625 35.515625 59.925781 35.992188 C 59.890625 33.574219 59.871094 31.15625 59.921875 28.738281 C 57.054688 28.671875 54.1875 28.734375 51.320312 28.707031 C 51.324219 30.648438 51.3125 32.589844 51.324219 34.53125 C 50.910156 34.304688 50.492188 33.914062 49.980469 34.039062 C 49.664062 34.046875 49.597656 34.421875 49.425781 34.621094 C 49.304688 34.4375 49.1875 34.25 49.070312 34.066406 C 49.007812 31.238281 49.210938 28.394531 48.9375 25.578125 C 48.628906 22.820312 47.058594 20.21875 44.6875 18.761719 C 41.667969 16.886719 37.9375 16.546875 34.480469 17.003906 C 32.625 17.230469 30.878906 18.035156 29.429688 19.203125 C 29.429688 18.613281 29.445312 18.023438 29.421875 17.4375 L 29.371094 17.316406 C 25.054688 17.296875 20.742188 17.328125 16.425781 17.300781 C 16.449219 22.460938 16.4375 27.625 16.429688 32.78125 C 16.304688 33.089844 16.164062 33.394531 16.027344 33.699219 C 15.96875 33.308594 15.914062 32.917969 15.859375 32.527344 C 14.675781 32.566406 13.492188 32.484375 12.304688 32.5625 C 12.097656 35.082031 12.089844 37.621094 12.238281 40.144531 L 12.042969 40.195312 C 12.042969 31.640625 12.042969 23.085938 12.042969 14.53125 C 12.023438 13.519531 12.632812 12.535156 13.527344 12.082031 C 14.269531 11.675781 15.144531 11.773438 15.957031 11.765625 C 30.171875 11.769531 44.382812 11.765625 58.597656 11.765625 C 59.394531 11.765625 60.191406 11.746094 60.984375 11.800781 C 61.019531 11.277344 60.878906 10.675781 61.246094 10.234375 C 61.578125 9.8125 62.144531 9.707031 62.613281 9.503906 C 65.886719 8.226562 69.152344 6.9375 72.417969 5.644531 C 73.0625 5.386719 73.738281 5.183594 74.34375 4.832031 Z M 74.34375 4.832031 "/>
    <path style=" stroke:none;fill-rule:nonzero;fill:rgb(83.137255%,80%,78.431373%);fill-opacity:1;" d="M 62.207031 10.960938 C 66.371094 9.316406 70.546875 7.6875 74.707031 6.035156 C 74.710938 9.785156 74.707031 13.535156 74.707031 17.285156 C 80.402344 17.28125 86.101562 17.292969 91.796875 17.277344 C 92.8125 20.207031 93.832031 23.140625 94.835938 26.074219 C 95.742188 28.625 96.558594 31.203125 97.503906 33.738281 C 99.113281 28.816406 100.773438 23.910156 102.371094 18.984375 C 102.566406 18.417969 102.761719 17.851562 102.945312 17.285156 C 103.167969 17.273438 103.390625 17.265625 103.613281 17.261719 C 107.558594 17.316406 111.503906 17.265625 115.449219 17.25 C 111.757812 27.484375 108.050781 37.71875 104.339844 47.949219 C 99.738281 47.960938 95.136719 47.933594 90.539062 47.960938 C 88.742188 43.339844 87.007812 38.6875 85.242188 34.050781 C 85.046875 33.554688 84.859375 33.058594 84.679688 32.558594 C 84.164062 31.21875 83.660156 29.875 83.136719 28.539062 C 82.894531 27.886719 82.648438 27.234375 82.417969 26.578125 C 79.851562 26.523438 77.277344 26.582031 74.710938 26.546875 C 74.707031 28.335938 74.695312 30.125 74.71875 31.914062 C 74.691406 33.867188 74.710938 35.816406 74.710938 37.765625 C 74.78125 38.316406 75.09375 38.816406 75.644531 38.984375 C 77.328125 39.09375 79.011719 38.929688 80.691406 38.882812 C 80.683594 41.914062 80.71875 44.945312 80.671875 47.976562 C 77.949219 48.363281 75.191406 48.519531 72.441406 48.375 C 69.765625 48.253906 66.859375 47.832031 64.777344 45.988281 C 63.042969 44.46875 62.355469 42.117188 62.199219 39.882812 C 62.203125 39.785156 62.207031 39.585938 62.207031 39.492188 C 62.195312 37.519531 62.230469 35.550781 62.183594 33.582031 C 62.234375 26.039062 62.1875 18.5 62.207031 10.960938 M 71.425781 8.226562 C 68.804688 9.25 66.195312 10.300781 63.566406 11.308594 C 63.367188 11.421875 62.964844 11.472656 63.03125 11.792969 C 63.019531 20.285156 63.03125 28.773438 63.027344 37.265625 C 63.023438 38.472656 63.003906 39.6875 63.179688 40.882812 C 63.34375 42.832031 64.308594 44.777344 65.960938 45.875 C 67.535156 46.957031 69.460938 47.328125 71.328125 47.476562 C 74.160156 47.695312 77.039062 47.675781 79.84375 47.199219 C 79.847656 44.722656 79.890625 42.242188 79.824219 39.765625 C 78.417969 39.746094 77.003906 39.976562 75.601562 39.792969 C 75.03125 39.734375 74.636719 39.289062 74.179688 39.003906 C 73.675781 37.78125 73.898438 36.445312 73.855469 35.160156 C 73.875 32.011719 73.808594 28.863281 73.890625 25.714844 C 76.910156 25.738281 79.925781 25.726562 82.945312 25.722656 C 83.957031 28.246094 84.839844 30.820312 85.886719 33.328125 C 85.914062 33.433594 85.972656 33.652344 86 33.761719 C 87.613281 37.984375 89.230469 42.210938 90.8125 46.449219 C 90.945312 46.695312 90.976562 47.171875 91.359375 47.128906 C 95.484375 47.152344 99.605469 47.117188 103.730469 47.140625 C 104.121094 46.246094 104.398438 45.304688 104.757812 44.398438 C 107.910156 35.636719 111.121094 26.894531 114.234375 18.117188 C 110.675781 18.0625 107.109375 18.070312 103.550781 18.105469 C 101.535156 24.148438 99.546875 30.195312 97.546875 36.238281 C 97.375 35.929688 97.222656 35.613281 97.113281 35.277344 C 96.167969 32.4375 95.164062 29.613281 94.199219 26.777344 C 93.261719 24.09375 92.332031 21.402344 91.417969 18.710938 C 91.292969 18.5 91.292969 18.042969 90.945312 18.101562 C 85.261719 18.085938 79.574219 18.078125 73.886719 18.097656 C 73.808594 14.515625 73.875 10.929688 73.855469 7.34375 C 73.011719 7.535156 72.230469 7.921875 71.425781 8.226562 Z M 71.425781 8.226562 "/>
    <path style=" stroke:none;fill-rule:nonzero;fill:rgb(35.686275%,0%,5.490196%);fill-opacity:1;" d="M 104.628906 15.613281 C 105.644531 14.410156 106.34375 12.957031 107.460938 11.832031 C 108.320312 12.023438 109.089844 12.632812 109.425781 13.453125 C 109.785156 14.28125 109.628906 15.203125 109.65625 16.074219 C 111.601562 16.078125 113.542969 16.066406 115.488281 16.078125 C 116.269531 16.042969 116.890625 16.957031 116.578125 17.675781 C 114.300781 23.964844 112.03125 30.253906 109.742188 36.539062 C 109.675781 36.769531 109.644531 37.003906 109.65625 37.246094 C 109.664062 41.464844 109.65625 45.683594 109.660156 49.902344 C 109.695312 50.988281 109.050781 52.066406 108.058594 52.523438 C 107.4375 52.847656 106.71875 52.753906 106.042969 52.769531 C 75.597656 52.765625 45.148438 52.769531 14.703125 52.765625 C 13.296875 52.792969 12.046875 51.5 12.046875 50.097656 C 12.042969 46.796875 12.046875 43.496094 12.042969 40.195312 L 12.238281 40.144531 C 13.632812 40.140625 15.089844 39.898438 16.441406 40.335938 C 16.425781 42.867188 16.449219 45.402344 16.425781 47.933594 C 20.75 47.90625 25.070312 47.9375 29.394531 47.921875 C 29.402344 47.851562 29.417969 47.71875 29.421875 47.652344 C 29.453125 45.191406 29.410156 42.730469 29.441406 40.273438 C 29.492188 40.160156 29.589844 39.945312 29.640625 39.835938 C 30.648438 40.246094 31.714844 39.855469 32.757812 39.945312 C 33.988281 40.011719 35.21875 39.96875 36.445312 39.847656 C 36.4375 42.542969 36.453125 45.234375 36.4375 47.929688 C 40.652344 47.925781 44.867188 47.914062 49.082031 47.933594 C 49.054688 45.347656 49.078125 42.757812 49.070312 40.167969 C 49.386719 40.410156 49.6875 40.789062 50.136719 40.734375 C 53.808594 40.699219 57.484375 40.753906 61.160156 40.707031 C 61.410156 40.699219 61.640625 40.8125 61.871094 40.90625 C 61.976562 40.5625 62.089844 40.222656 62.199219 39.882812 C 62.355469 42.117188 63.042969 44.46875 64.777344 45.988281 C 66.859375 47.832031 69.765625 48.253906 72.441406 48.375 C 75.191406 48.519531 77.949219 48.363281 80.671875 47.976562 C 80.71875 44.945312 80.683594 41.914062 80.691406 38.882812 C 79.011719 38.929688 77.328125 39.09375 75.644531 38.984375 C 75.746094 38.875 75.949219 38.652344 76.054688 38.542969 C 77.824219 38.097656 79.4375 37.210938 81.140625 36.582031 C 82.035156 36.335938 82.671875 35.613281 83.519531 35.265625 C 84.113281 34.894531 84.914062 34.742188 85.242188 34.050781 C 87.007812 38.6875 88.742188 43.339844 90.539062 47.960938 C 95.136719 47.933594 99.738281 47.960938 104.339844 47.949219 C 108.050781 37.71875 111.757812 27.484375 115.449219 17.25 C 111.503906 17.265625 107.558594 17.316406 103.613281 17.261719 C 103.832031 16.644531 104.203125 16.101562 104.628906 15.613281 Z M 104.628906 15.613281 "/>
    <path style=" stroke:none;fill-rule:nonzero;fill:rgb(35.686275%,0%,5.490196%);fill-opacity:1;" d="M 96.296875 24.984375 C 98.472656 23.078125 100.144531 20.671875 102.285156 18.738281 L 102.371094 18.984375 C 100.773438 23.910156 99.113281 28.816406 97.503906 33.738281 C 96.558594 31.203125 95.742188 28.625 94.835938 26.074219 C 95.425781 25.859375 95.871094 25.421875 96.296875 24.984375 Z M 96.296875 24.984375 "/>
    <path style=" stroke:none;fill-rule:nonzero;fill:rgb(82.745098%,80%,78.431373%);fill-opacity:1;" d="M 29.429688 19.203125 C 30.878906 18.035156 32.625 17.230469 34.480469 17.003906 C 37.9375 16.546875 41.667969 16.886719 44.6875 18.761719 C 47.058594 20.21875 48.628906 22.820312 48.9375 25.578125 C 48.878906 25.960938 48.808594 26.347656 48.792969 26.742188 C 48.816406 33.707031 48.832031 40.675781 48.777344 47.640625 C 44.746094 47.6875 40.710938 47.707031 36.683594 47.632812 C 36.601562 41.578125 36.660156 35.519531 36.652344 29.464844 C 36.675781 29.1875 36.523438 28.949219 36.398438 28.71875 C 36.132812 27.898438 35.894531 26.949219 35.078125 26.503906 C 33.914062 25.902344 32.457031 25.960938 31.273438 26.492188 C 29.949219 27.132812 29.417969 28.691406 29.433594 30.085938 C 29.441406 33.480469 29.441406 36.875 29.441406 40.273438 C 29.410156 42.730469 29.453125 45.191406 29.421875 47.652344 C 25.195312 47.679688 20.964844 47.707031 16.738281 47.640625 C 16.664062 39.617188 16.730469 31.59375 16.707031 23.570312 C 16.761719 21.542969 16.597656 19.503906 16.789062 17.480469 C 20.996094 17.394531 25.210938 17.472656 29.421875 17.4375 C 29.445312 18.023438 29.429688 18.613281 29.429688 19.203125 M 32.128906 18.507812 C 30.796875 19.03125 29.792969 20.089844 28.550781 20.765625 C 28.527344 19.878906 28.546875 18.996094 28.535156 18.113281 C 24.761719 18.078125 20.980469 18.09375 17.203125 18.105469 C 17.140625 25.277344 17.1875 32.445312 17.179688 39.617188 C 17.164062 42.117188 17.136719 44.621094 17.199219 47.121094 C 20.984375 47.148438 24.765625 47.125 28.550781 47.136719 C 28.625 43.984375 28.558594 40.832031 28.601562 37.679688 C 28.558594 36.320312 28.703125 34.953125 28.507812 33.601562 C 28.699219 31.679688 28.25 29.65625 29.007812 27.816406 C 29.496094 26.527344 30.707031 25.589844 32.050781 25.367188 C 33.363281 25.128906 34.867188 25.222656 35.929688 26.113281 C 36.894531 26.929688 37.171875 28.257812 37.238281 29.464844 C 37.285156 33.070312 37.1875 36.679688 37.292969 40.285156 C 37.238281 42.542969 37.269531 44.804688 37.289062 47.066406 C 40.925781 47.101562 44.5625 47.09375 48.199219 47.0625 C 48.261719 44.730469 48.214844 42.394531 48.222656 40.0625 C 48.296875 35.96875 48.238281 31.878906 48.261719 27.785156 C 48.292969 25.707031 47.847656 23.5625 46.679688 21.820312 C 45.125 19.472656 42.378906 18.257812 39.675781 17.851562 C 37.164062 17.519531 34.503906 17.523438 32.128906 18.507812 Z M 32.128906 18.507812 "/>
    <path style=" stroke:none;fill-rule:nonzero;fill:rgb(93.72549%,93.72549%,92.941176%);fill-opacity:1;" d="M 16.425781 17.300781 C 20.742188 17.328125 25.054688 17.296875 29.371094 17.316406 L 29.421875 17.4375 C 25.210938 17.472656 20.996094 17.394531 16.789062 17.480469 C 16.597656 19.503906 16.761719 21.542969 16.707031 23.570312 C 16.730469 31.59375 16.664062 39.617188 16.738281 47.640625 C 20.964844 47.707031 25.195312 47.679688 29.421875 47.652344 C 29.417969 47.71875 29.402344 47.851562 29.394531 47.921875 C 25.070312 47.9375 20.75 47.90625 16.425781 47.933594 C 16.449219 45.402344 16.425781 42.867188 16.441406 40.335938 C 16.433594 37.816406 16.445312 35.300781 16.429688 32.78125 C 16.4375 27.625 16.449219 22.460938 16.425781 17.300781 Z M 16.425781 17.300781 "/>
    <path style=" stroke:none;fill-rule:nonzero;fill:rgb(93.72549%,93.72549%,92.941176%);fill-opacity:1;" d="M 103.550781 18.105469 C 107.109375 18.070312 110.675781 18.0625 114.234375 18.117188 C 111.121094 26.894531 107.910156 35.636719 104.757812 44.398438 C 104.398438 45.304688 104.121094 46.246094 103.730469 47.140625 C 99.605469 47.117188 95.484375 47.152344 91.359375 47.128906 C 90.976562 47.171875 90.945312 46.695312 90.8125 46.449219 C 89.230469 42.210938 87.613281 37.984375 86 33.761719 C 85.972656 33.652344 85.914062 33.433594 85.886719 33.328125 C 86.359375 32.226562 87.578125 31.898438 88.40625 31.160156 C 89.046875 30.585938 89.851562 30.246094 90.496094 29.683594 C 91.695312 28.667969 93.015625 27.808594 94.199219 26.777344 C 95.164062 29.613281 96.167969 32.4375 97.113281 35.277344 C 97.222656 35.613281 97.375 35.929688 97.546875 36.238281 C 99.546875 30.195312 101.535156 24.148438 103.550781 18.105469 Z M 103.550781 18.105469 "/>
    <path style=" stroke:none;fill-rule:nonzero;fill:rgb(93.72549%,93.72549%,92.941176%);fill-opacity:1;" d="M 48.792969 26.742188 C 48.808594 26.347656 48.878906 25.960938 48.9375 25.578125 C 49.210938 28.394531 49.007812 31.238281 49.070312 34.066406 C 49.0625 35.875 49.070312 37.6875 49.070312 39.496094 C 49.070312 39.664062 49.070312 40 49.070312 40.167969 C 49.078125 42.757812 49.054688 45.347656 49.082031 47.933594 C 44.867188 47.914062 40.652344 47.925781 36.4375 47.929688 C 36.453125 45.234375 36.4375 42.542969 36.445312 39.847656 C 36.433594 37.773438 36.472656 35.703125 36.425781 33.632812 C 36.449219 31.996094 36.46875 30.355469 36.398438 28.71875 C 36.523438 28.949219 36.675781 29.1875 36.652344 29.464844 C 36.660156 35.519531 36.601562 41.578125 36.683594 47.632812 C 40.710938 47.707031 44.746094 47.6875 48.777344 47.640625 C 48.832031 40.675781 48.816406 33.707031 48.792969 26.742188 Z M 48.792969 26.742188 "/>
    <path style=" stroke:none;fill-rule:nonzero;fill:rgb(93.72549%,93.72549%,92.941176%);fill-opacity:1;" d="M 28.382812 39.6875 C 28.542969 37.664062 28.3125 35.625 28.507812 33.601562 C 28.703125 34.953125 28.558594 36.320312 28.601562 37.679688 C 28.558594 40.832031 28.625 43.984375 28.550781 47.136719 C 24.765625 47.125 20.984375 47.148438 17.199219 47.121094 C 17.136719 44.621094 17.164062 42.117188 17.179688 39.617188 C 20.914062 39.667969 24.648438 39.546875 28.382812 39.6875 Z M 28.382812 39.6875 "/>
    <path style=" stroke:none;fill-rule:nonzero;fill:rgb(93.72549%,93.72549%,92.941176%);fill-opacity:1;" d="M 72.78125 39.027344 C 73.242188 38.957031 73.714844 38.945312 74.179688 39.003906 C 74.636719 39.289062 75.03125 39.734375 75.601562 39.792969 C 77.003906 39.976562 78.417969 39.746094 79.824219 39.765625 C 79.890625 42.242188 79.847656 44.722656 79.84375 47.199219 C 77.039062 47.675781 74.160156 47.695312 71.328125 47.476562 C 69.460938 47.328125 67.535156 46.957031 65.960938 45.875 C 64.308594 44.777344 63.34375 42.832031 63.179688 40.882812 C 63.359375 40.628906 63.460938 40.21875 63.832031 40.195312 C 64.9375 39.945312 66.074219 39.96875 67.199219 39.9375 C 69.078125 39.777344 70.917969 39.3125 72.78125 39.027344 Z M 72.78125 39.027344 "/>
    <path style=" stroke:none;fill-rule:nonzero;fill:rgb(93.72549%,93.72549%,92.941176%);fill-opacity:1;" d="M 37.292969 40.285156 C 37.511719 39.960938 37.75 39.53125 38.21875 39.625 C 41.234375 39.621094 44.253906 39.621094 47.269531 39.625 C 47.652344 39.582031 47.933594 39.863281 48.222656 40.0625 C 48.214844 42.394531 48.261719 44.730469 48.199219 47.0625 C 44.5625 47.09375 40.925781 47.101562 37.289062 47.066406 C 37.269531 44.804688 37.238281 42.542969 37.292969 40.285156 Z M 37.292969 40.285156 "/>
    <path style=" stroke:none;fill-rule:nonzero;fill:rgb(47.45098%,0%,7.843137%);fill-opacity:1;" d="M 31.273438 26.492188 C 32.457031 25.960938 33.914062 25.902344 35.078125 26.503906 C 35.894531 26.949219 36.132812 27.898438 36.398438 28.71875 C 36.46875 30.355469 36.449219 31.996094 36.425781 33.632812 C 36.191406 33.304688 36.058594 32.921875 35.992188 32.527344 C 33.960938 32.554688 31.925781 32.542969 29.894531 32.527344 C 29.445312 34.929688 29.476562 37.40625 29.640625 39.835938 C 29.589844 39.945312 29.492188 40.160156 29.441406 40.273438 C 29.441406 36.875 29.441406 33.480469 29.433594 30.085938 C 29.417969 28.691406 29.949219 27.132812 31.273438 26.492188 Z M 31.273438 26.492188 "/>
    <path style=" stroke:none;fill-rule:nonzero;fill:rgb(48.627451%,0.392157%,8.235294%);fill-opacity:1;" d="M 74.710938 26.546875 C 77.277344 26.582031 79.851562 26.523438 82.417969 26.578125 C 82.648438 27.234375 82.894531 27.886719 83.136719 28.539062 C 82.746094 28.597656 82.617188 28.214844 82.449219 27.953125 C 81.894531 28.078125 81.308594 28.121094 80.792969 28.375 C 80.269531 28.652344 79.632812 28.6875 79.21875 29.152344 C 79.1875 29.09375 79.125 28.980469 79.09375 28.921875 C 79.011719 29.078125 78.929688 29.238281 78.851562 29.398438 C 78.800781 29.332031 78.691406 29.195312 78.640625 29.128906 C 78.597656 29.28125 78.558594 29.429688 78.515625 29.582031 C 78.398438 29.53125 78.285156 29.480469 78.171875 29.433594 C 77.453125 29.726562 76.746094 30.085938 75.96875 30.199219 C 75.113281 30.230469 75.117188 31.351562 74.71875 31.914062 C 74.695312 30.125 74.707031 28.335938 74.710938 26.546875 Z M 74.710938 26.546875 "/>
    <path style=" stroke:none;fill-rule:nonzero;fill:rgb(56.862745%,2.352941%,11.764706%);fill-opacity:1;" d="M 80.792969 28.375 C 81.308594 28.121094 81.894531 28.078125 82.449219 27.953125 C 82.617188 28.214844 82.746094 28.597656 83.136719 28.539062 C 83.660156 29.875 84.164062 31.21875 84.679688 32.558594 C 84.496094 32.890625 84.410156 33.316406 84.070312 33.53125 C 81.519531 35.183594 78.742188 36.449219 75.9375 37.601562 C 75.546875 37.769531 75.121094 37.769531 74.710938 37.765625 C 74.710938 35.816406 74.691406 33.867188 74.71875 31.914062 C 75.117188 31.351562 75.113281 30.230469 75.96875 30.199219 C 76.746094 30.085938 77.453125 29.726562 78.171875 29.433594 C 78.285156 29.480469 78.398438 29.53125 78.515625 29.582031 C 78.558594 29.429688 78.597656 29.28125 78.640625 29.128906 C 78.691406 29.195312 78.800781 29.332031 78.851562 29.398438 C 78.929688 29.238281 79.011719 29.078125 79.09375 28.921875 C 79.125 28.980469 79.1875 29.09375 79.21875 29.152344 C 79.632812 28.6875 80.269531 28.652344 80.792969 28.375 Z M 80.792969 28.375 "/>
    <path style=" stroke:none;fill-rule:nonzero;fill:rgb(85.098039%,83.529412%,81.568627%);fill-opacity:1;" d="M 51.320312 28.707031 C 54.1875 28.734375 57.054688 28.671875 59.921875 28.738281 C 59.871094 31.15625 59.890625 33.574219 59.925781 35.992188 C 57.058594 35.933594 54.1875 35.980469 51.316406 35.964844 C 51.320312 35.488281 51.324219 35.007812 51.324219 34.53125 C 51.3125 32.589844 51.324219 30.648438 51.320312 28.707031 M 52.160156 29.550781 C 52.175781 31.402344 52.175781 33.257812 52.15625 35.113281 C 54.441406 35.164062 56.730469 35.121094 59.015625 35.132812 C 59.042969 33.265625 59.085938 31.394531 58.988281 29.53125 C 56.710938 29.5625 54.4375 29.535156 52.160156 29.550781 Z M 52.160156 29.550781 "/>
    <path style=" stroke:none;fill-rule:nonzero;fill:rgb(59.215686%,3.137255%,12.54902%);fill-opacity:1;" d="M 12.304688 32.5625 C 13.492188 32.484375 14.675781 32.566406 15.859375 32.527344 C 15.914062 32.917969 15.96875 33.308594 16.027344 33.699219 C 16.164062 33.394531 16.304688 33.089844 16.429688 32.78125 C 16.445312 35.300781 16.433594 37.816406 16.441406 40.335938 C 15.089844 39.898438 13.632812 40.140625 12.238281 40.144531 C 12.089844 37.621094 12.097656 35.082031 12.304688 32.5625 Z M 12.304688 32.5625 "/>
    <path style=" stroke:none;fill-rule:nonzero;fill:rgb(59.215686%,3.137255%,12.54902%);fill-opacity:1;" d="M 29.894531 32.527344 C 31.925781 32.542969 33.960938 32.554688 35.992188 32.527344 C 36.058594 32.921875 36.191406 33.304688 36.425781 33.632812 C 36.472656 35.703125 36.433594 37.773438 36.445312 39.847656 C 35.21875 39.96875 33.988281 40.011719 32.757812 39.945312 C 31.714844 39.855469 30.648438 40.246094 29.640625 39.835938 C 29.476562 37.40625 29.445312 34.929688 29.894531 32.527344 Z M 29.894531 32.527344 "/>
    <path style=" stroke:none;fill-rule:nonzero;fill:rgb(45.098039%,1.176471%,8.627451%);fill-opacity:1;" d="M 84.070312 33.53125 C 84.410156 33.316406 84.496094 32.890625 84.679688 32.558594 C 84.859375 33.058594 85.046875 33.554688 85.242188 34.050781 C 84.914062 34.742188 84.113281 34.894531 83.519531 35.265625 C 82.671875 35.613281 82.035156 36.335938 81.140625 36.582031 C 79.4375 37.210938 77.824219 38.097656 76.054688 38.542969 C 75.949219 38.652344 75.746094 38.875 75.644531 38.984375 C 75.09375 38.816406 74.78125 38.316406 74.710938 37.765625 C 75.121094 37.769531 75.546875 37.769531 75.9375 37.601562 C 78.742188 36.449219 81.519531 35.183594 84.070312 33.53125 Z M 84.070312 33.53125 "/>
    <path style=" stroke:none;fill-rule:nonzero;fill:rgb(45.098039%,1.176471%,8.627451%);fill-opacity:1;" d="M 49.070312 39.496094 C 51.179688 39.746094 53.3125 39.585938 55.429688 39.632812 C 57.6875 39.582031 59.960938 39.757812 62.207031 39.492188 C 62.207031 39.585938 62.203125 39.785156 62.199219 39.882812 C 62.089844 40.222656 61.976562 40.5625 61.871094 40.90625 C 61.640625 40.8125 61.410156 40.699219 61.160156 40.707031 C 57.484375 40.753906 53.808594 40.699219 50.136719 40.734375 C 49.6875 40.789062 49.386719 40.410156 49.070312 40.167969 C 49.070312 40 49.070312 39.664062 49.070312 39.496094 Z M 49.070312 39.496094 "/>
    <path style=" stroke:none;fill-rule:nonzero;fill:rgb(60.784314%,3.529412%,13.333333%);fill-opacity:1;" d="M 61.875 36.003906 C 61.871094 35.183594 61.898438 34.355469 62.183594 33.582031 C 62.230469 35.550781 62.195312 37.519531 62.207031 39.492188 C 59.960938 39.757812 57.6875 39.582031 55.429688 39.632812 C 53.3125 39.585938 51.179688 39.746094 49.070312 39.496094 C 49.070312 37.6875 49.0625 35.875 49.070312 34.066406 C 49.1875 34.25 49.304688 34.4375 49.425781 34.621094 C 49.597656 34.421875 49.664062 34.046875 49.980469 34.039062 C 50.492188 33.914062 50.910156 34.304688 51.324219 34.53125 C 51.324219 35.007812 51.320312 35.488281 51.316406 35.964844 C 54.1875 35.980469 57.058594 35.933594 59.925781 35.992188 C 60.140625 35.515625 60.257812 35.003906 60.339844 34.484375 C 60.78125 34.472656 61.289062 34.296875 61.683594 34.574219 C 61.808594 35.039062 61.835938 35.523438 61.875 36.003906 Z M 61.875 36.003906 "/>
    <path style=" stroke:none;fill-rule:nonzero;fill:rgb(17.647059%,17.647059%,17.647059%);fill-opacity:1;" d="M 6.355469 65.300781 C 7.984375 65.410156 9.835938 64.953125 11.253906 65.980469 C 12.835938 67.339844 12.773438 70.117188 11.34375 71.5625 C 9.976562 72.789062 8.011719 72.21875 6.359375 72.351562 C 6.363281 70.003906 6.363281 67.652344 6.355469 65.300781 M 7.945312 66.4375 C 7.984375 68.03125 7.90625 69.628906 7.992188 71.222656 C 8.621094 71.203125 9.308594 71.289062 9.878906 70.960938 C 10.539062 70.574219 10.78125 69.761719 10.820312 69.039062 C 10.875 68.277344 10.765625 67.410156 10.167969 66.875 C 9.558594 66.335938 8.695312 66.425781 7.945312 66.4375 Z M 7.945312 66.4375 "/>
    <path style=" stroke:none;fill-rule:nonzero;fill:rgb(17.647059%,17.647059%,17.647059%);fill-opacity:1;" d="M 31.652344 65.285156 C 32.128906 65.285156 32.605469 65.289062 33.082031 65.292969 C 33.078125 67.644531 33.074219 69.996094 33.089844 72.351562 C 32.382812 72.351562 31.679688 72.351562 30.976562 72.347656 C 30.058594 70.414062 29.203125 68.449219 28.25 66.535156 C 28.25 68.46875 28.238281 70.40625 28.265625 72.34375 C 27.773438 72.355469 27.289062 72.355469 26.796875 72.335938 C 26.820312 69.992188 26.820312 67.652344 26.800781 65.308594 C 27.542969 65.203125 28.296875 65.21875 29.039062 65.292969 C 29.890625 67.121094 30.773438 68.929688 31.609375 70.761719 C 31.707031 68.9375 31.621094 67.113281 31.652344 65.285156 Z M 31.652344 65.285156 "/>
    <path style=" stroke:none;fill-rule:nonzero;fill:rgb(17.647059%,17.647059%,17.647059%);fill-opacity:1;" d="M 45.5 65.300781 C 45.984375 65.289062 46.476562 65.289062 46.964844 65.296875 C 46.941406 66.207031 46.960938 67.121094 46.933594 68.035156 C 47.71875 66.9375 49.722656 67.167969 50.058594 68.523438 C 50.234375 69.789062 50.089844 71.078125 50.144531 72.355469 C 49.652344 72.359375 49.160156 72.355469 48.664062 72.324219 C 48.660156 71.164062 48.734375 69.996094 48.632812 68.84375 C 48.398438 68.011719 47.125 68.234375 46.984375 69.011719 C 46.917969 70.125 46.988281 71.238281 46.96875 72.355469 C 46.476562 72.355469 45.980469 72.351562 45.488281 72.335938 C 45.515625 69.988281 45.5 67.644531 45.5 65.300781 Z M 45.5 65.300781 "/>
    <path style=" stroke:none;fill-rule:nonzero;fill:rgb(17.647059%,17.647059%,17.647059%);fill-opacity:1;" d="M 55.722656 65.292969 C 56.238281 65.292969 56.753906 65.292969 57.269531 65.289062 C 57.269531 65.714844 57.265625 66.140625 57.265625 66.566406 C 56.75 66.5625 56.234375 66.5625 55.71875 66.558594 C 55.722656 66.132812 55.722656 65.714844 55.722656 65.292969 Z M 55.722656 65.292969 "/>
    <path style=" stroke:none;fill-rule:nonzero;fill:rgb(17.647059%,17.647059%,17.647059%);fill-opacity:1;" d="M 63.890625 65.292969 C 64.375 65.289062 64.855469 65.292969 65.339844 65.296875 C 65.347656 66.195312 65.355469 67.097656 65.324219 67.996094 C 66.152344 66.921875 68.1875 67.199219 68.441406 68.609375 C 68.605469 69.84375 68.457031 71.097656 68.527344 72.339844 C 68.039062 72.355469 67.554688 72.355469 67.066406 72.347656 C 67.066406 71.242188 67.121094 70.132812 67.042969 69.027344 C 67.019531 68.320312 66.066406 68.0625 65.621094 68.5625 C 65.332031 68.769531 65.371094 69.15625 65.351562 69.46875 C 65.34375 70.421875 65.363281 71.375 65.378906 72.332031 C 64.882812 72.351562 64.386719 72.359375 63.890625 72.359375 C 63.90625 70.003906 63.90625 67.648438 63.890625 65.292969 Z M 63.890625 65.292969 "/>
    <path style=" stroke:none;fill-rule:nonzero;fill:rgb(17.647059%,17.647059%,17.647059%);fill-opacity:1;" d="M 106.457031 65.292969 C 106.9375 65.289062 107.421875 65.292969 107.910156 65.292969 C 107.894531 67.652344 107.894531 70.007812 107.914062 72.363281 C 107.4375 72.355469 106.960938 72.347656 106.488281 72.355469 C 106.492188 72.195312 106.496094 71.882812 106.496094 71.726562 C 105.773438 72.671875 104.261719 72.707031 103.472656 71.839844 C 102.671875 70.832031 102.707031 69.300781 103.367188 68.230469 C 104.007812 67.191406 105.644531 67.003906 106.457031 67.949219 C 106.445312 67.0625 106.441406 66.179688 106.457031 65.292969 M 105.109375 68.320312 C 104.304688 68.730469 104.339844 69.765625 104.425781 70.539062 C 104.460938 71.171875 105.109375 71.742188 105.742188 71.449219 C 106.566406 71.003906 106.632812 69.871094 106.414062 69.0625 C 106.277344 68.496094 105.667969 68.136719 105.109375 68.320312 Z M 105.109375 68.320312 "/>
    <path style=" stroke:none;fill-rule:nonzero;fill:rgb(17.647059%,17.647059%,17.647059%);fill-opacity:1;" d="M 70.464844 66.464844 C 70.945312 66.28125 71.425781 66.101562 71.914062 65.925781 C 71.910156 66.429688 71.910156 66.9375 71.921875 67.445312 C 72.320312 67.445312 72.71875 67.449219 73.117188 67.460938 C 73.117188 67.757812 73.117188 68.054688 73.117188 68.355469 C 72.722656 68.371094 72.324219 68.375 71.929688 68.371094 C 71.914062 69.28125 71.867188 70.195312 71.949219 71.097656 C 72.15625 71.476562 72.691406 71.292969 73.050781 71.339844 C 73.019531 71.652344 73.113281 72 72.992188 72.292969 C 72.191406 72.539062 71.023438 72.636719 70.554688 71.773438 C 70.339844 70.65625 70.535156 69.503906 70.4375 68.375 C 70.113281 68.367188 69.792969 68.355469 69.472656 68.339844 C 69.5 68.046875 69.523438 67.753906 69.476562 67.46875 C 69.804688 67.453125 70.128906 67.445312 70.460938 67.433594 C 70.457031 67.109375 70.460938 66.789062 70.464844 66.464844 Z M 70.464844 66.464844 "/>
    <path style=" stroke:none;fill-rule:nonzero;fill:rgb(17.647059%,17.647059%,17.647059%);fill-opacity:1;" d="M 14.050781 68.210938 C 14.835938 67.03125 16.761719 66.886719 17.691406 67.960938 C 18.238281 68.578125 18.328125 69.445312 18.335938 70.234375 C 17.210938 70.257812 16.082031 70.246094 14.957031 70.238281 C 14.933594 70.824219 15.238281 71.640625 15.960938 71.550781 C 16.4375 71.636719 16.710938 71.210938 16.933594 70.871094 C 17.355469 70.871094 17.78125 70.875 18.207031 70.882812 C 17.945312 73.050781 14.367188 73.128906 13.753906 71.15625 C 13.457031 70.199219 13.492188 69.070312 14.050781 68.210938 M 14.980469 69.339844 C 15.589844 69.347656 16.195312 69.34375 16.800781 69.34375 C 16.8125 68.851562 16.566406 68.171875 15.960938 68.246094 C 15.347656 68.171875 15.0625 68.84375 14.980469 69.339844 Z M 14.980469 69.339844 "/>
    <path style=" stroke:none;fill-rule:nonzero;fill:rgb(17.647059%,17.647059%,17.647059%);fill-opacity:1;" d="M 20.859375 68.222656 C 21.25 67.636719 21.871094 67.339844 22.566406 67.3125 C 22.578125 67.765625 22.582031 68.21875 22.582031 68.671875 C 22.050781 68.65625 21.324219 68.667969 21.101562 69.261719 C 20.957031 70.28125 21.070312 71.320312 21.039062 72.34375 C 20.558594 72.347656 20.082031 72.355469 19.601562 72.375 C 19.511719 70.726562 19.683594 69.070312 19.488281 67.425781 C 19.953125 67.332031 20.429688 67.335938 20.894531 67.417969 C 20.886719 67.617188 20.871094 68.023438 20.859375 68.222656 Z M 20.859375 68.222656 "/>
    <path style=" stroke:none;fill-rule:nonzero;fill:rgb(17.647059%,17.647059%,17.647059%);fill-opacity:1;" d="M 34.625 68.800781 C 34.71875 67.457031 36.265625 67.058594 37.371094 67.308594 C 38.046875 67.414062 38.742188 67.875 38.800781 68.613281 C 38.875 69.859375 38.742188 71.117188 38.972656 72.355469 C 38.519531 72.355469 38.070312 72.347656 37.621094 72.34375 C 37.625 72.203125 37.640625 71.917969 37.648438 71.773438 C 37.023438 72.351562 36.121094 72.738281 35.296875 72.339844 C 34.351562 71.96875 34.199219 70.570312 34.886719 69.886719 C 35.546875 69.179688 36.605469 69.191406 37.496094 69.164062 C 37.527344 68.707031 37.304688 68.058594 36.738281 68.113281 C 36.316406 68.046875 36.164062 68.527344 36.023438 68.824219 C 35.558594 68.820312 35.09375 68.816406 34.625 68.800781 M 36.082031 70.265625 C 35.703125 70.71875 35.886719 71.480469 36.519531 71.542969 C 37.316406 71.5625 37.542969 70.625 37.484375 69.988281 C 37 69.980469 36.523438 70.078125 36.082031 70.265625 Z M 36.082031 70.265625 "/>
    <path style=" stroke:none;fill-rule:nonzero;fill:rgb(17.647059%,17.647059%,17.647059%);fill-opacity:1;" d="M 40.414062 71.234375 C 39.859375 69.945312 40.109375 67.988281 41.589844 67.464844 C 42.8125 66.921875 44.566406 67.699219 44.5 69.171875 C 44.007812 69.171875 43.511719 69.167969 43.019531 69.140625 C 43.007812 69 42.984375 68.722656 42.96875 68.582031 C 42.757812 68.308594 42.300781 68.078125 42.035156 68.414062 C 41.558594 68.992188 41.660156 69.824219 41.710938 70.523438 C 41.761719 70.988281 42.03125 71.667969 42.621094 71.5 C 42.933594 71.300781 42.980469 70.921875 43.109375 70.605469 C 43.574219 70.511719 44.054688 70.574219 44.527344 70.574219 C 44.46875 70.957031 44.433594 71.363281 44.191406 71.683594 C 43.28125 72.945312 40.972656 72.726562 40.414062 71.234375 Z M 40.414062 71.234375 "/>
    <path style=" stroke:none;fill-rule:nonzero;fill:rgb(17.647059%,17.647059%,17.647059%);fill-opacity:1;" d="M 51.714844 67.394531 C 52.171875 67.394531 52.625 67.398438 53.078125 67.402344 C 53.070312 67.628906 53.046875 68.074219 53.039062 68.296875 C 53.394531 67.660156 54.046875 67.308594 54.769531 67.371094 C 54.765625 67.804688 54.757812 68.242188 54.757812 68.679688 C 54.226562 68.652344 53.519531 68.679688 53.296875 69.273438 C 53.144531 70.289062 53.265625 71.328125 53.234375 72.355469 C 52.746094 72.351562 52.261719 72.351562 51.773438 72.359375 C 51.75 70.703125 51.824219 69.046875 51.714844 67.394531 Z M 51.714844 67.394531 "/>
    <path style=" stroke:none;fill-rule:nonzero;fill:rgb(17.647059%,17.647059%,17.647059%);fill-opacity:1;" d="M 55.777344 67.410156 C 56.253906 67.40625 56.734375 67.402344 57.214844 67.394531 C 57.226562 69.054688 57.242188 70.71875 57.207031 72.378906 C 56.722656 72.355469 56.242188 72.347656 55.757812 72.335938 C 55.796875 70.695312 55.769531 69.050781 55.777344 67.410156 Z M 55.777344 67.410156 "/>
    <path style=" stroke:none;fill-rule:nonzero;fill:rgb(17.647059%,17.647059%,17.647059%);fill-opacity:1;" d="M 59.925781 67.472656 C 61.164062 66.914062 62.902344 67.6875 62.890625 69.167969 C 62.417969 69.164062 61.945312 69.164062 61.472656 69.167969 C 61.359375 68.839844 61.296875 68.335938 60.886719 68.25 C 60.203125 68.195312 60.101562 69.039062 60.039062 69.546875 C 60.054688 70.191406 59.988281 71.050781 60.574219 71.472656 C 61.148438 71.714844 61.417969 71.015625 61.472656 70.574219 C 61.953125 70.558594 62.4375 70.558594 62.921875 70.570312 C 62.839844 71.019531 62.753906 71.507812 62.425781 71.855469 C 61.457031 72.886719 59.445312 72.671875 58.832031 71.355469 C 58.199219 70.054688 58.433594 68.050781 59.925781 67.472656 Z M 59.925781 67.472656 "/>
    <path style=" stroke:none;fill-rule:nonzero;fill:rgb(17.647059%,17.647059%,17.647059%);fill-opacity:1;" d="M 74.511719 67.972656 C 75.382812 67.003906 77.097656 66.972656 77.964844 67.960938 C 78.507812 68.578125 78.605469 69.4375 78.613281 70.230469 C 77.488281 70.257812 76.367188 70.25 75.242188 70.234375 C 75.207031 70.824219 75.507812 71.648438 76.230469 71.550781 C 76.714844 71.636719 76.996094 71.21875 77.207031 70.867188 C 77.628906 70.871094 78.046875 70.875 78.472656 70.882812 C 78.222656 73.046875 74.660156 73.128906 74.027344 71.171875 C 73.6875 70.125 73.761719 68.828125 74.511719 67.972656 M 75.265625 69.347656 C 75.867188 69.34375 76.46875 69.34375 77.074219 69.339844 C 77.105469 68.839844 76.832031 68.175781 76.230469 68.246094 C 75.625 68.175781 75.320312 68.84375 75.265625 69.347656 Z M 75.265625 69.347656 "/>
    <path style=" stroke:none;fill-rule:nonzero;fill:rgb(17.647059%,17.647059%,17.647059%);fill-opacity:1;" d="M 79.851562 67.394531 C 80.308594 67.394531 80.769531 67.398438 81.226562 67.398438 C 81.226562 67.554688 81.222656 67.863281 81.222656 68.019531 C 82.015625 67.046875 83.890625 66.917969 84.398438 68.230469 C 84.667969 69.574219 84.433594 70.972656 84.539062 72.335938 C 84.03125 72.351562 83.527344 72.359375 83.019531 72.351562 C 83.015625 71.179688 83.066406 70.003906 83.003906 68.832031 C 82.726562 68.007812 81.4375 68.246094 81.363281 69.0625 C 81.289062 70.160156 81.371094 71.265625 81.328125 72.367188 C 80.835938 72.351562 80.347656 72.347656 79.855469 72.351562 C 79.859375 70.699219 79.871094 69.046875 79.851562 67.394531 Z M 79.851562 67.394531 "/>
    <path style=" stroke:none;fill-rule:nonzero;fill:rgb(17.647059%,17.647059%,17.647059%);fill-opacity:1;" d="M 86.589844 67.648438 C 87.738281 66.957031 89.777344 67.15625 90.015625 68.742188 C 89.554688 68.75 89.101562 68.75 88.644531 68.734375 C 88.5625 67.867188 86.964844 68.023438 87.285156 68.886719 C 88.097656 69.421875 89.285156 69.253906 89.917969 70.085938 C 90.476562 70.871094 89.910156 71.960938 89.078125 72.269531 C 87.894531 72.84375 85.847656 72.5 85.769531 70.910156 C 86.203125 70.90625 86.644531 70.90625 87.082031 70.910156 C 87.25 71.664062 88.359375 71.898438 88.734375 71.179688 C 88.71875 71.070312 88.691406 70.851562 88.675781 70.738281 C 88.007812 70.308594 87.164062 70.328125 86.480469 69.9375 C 85.652344 69.453125 85.742188 68.066406 86.589844 67.648438 Z M 86.589844 67.648438 "/>
    <path style=" stroke:none;fill-rule:nonzero;fill:rgb(17.647059%,17.647059%,17.647059%);fill-opacity:1;" d="M 91.308594 68.800781 C 91.746094 67.300781 93.804688 66.75 94.992188 67.710938 C 95.742188 68.308594 95.898438 69.332031 95.875 70.234375 C 94.753906 70.253906 93.628906 70.242188 92.503906 70.238281 C 92.453125 70.890625 92.898438 71.71875 93.65625 71.546875 C 94.078125 71.582031 94.261719 71.160156 94.460938 70.878906 C 94.886719 70.875 95.3125 70.875 95.742188 70.878906 C 95.601562 72.550781 93.414062 72.957031 92.179688 72.226562 C 90.996094 71.558594 91.027344 69.953125 91.308594 68.800781 M 92.621094 69.355469 C 93.210938 69.34375 93.804688 69.34375 94.398438 69.34375 C 94.367188 68.824219 94.09375 68.121094 93.449219 68.246094 C 92.863281 68.222656 92.59375 68.851562 92.621094 69.355469 Z M 92.621094 69.355469 "/>
    <path style=" stroke:none;fill-rule:nonzero;fill:rgb(17.647059%,17.647059%,17.647059%);fill-opacity:1;" d="M 97.128906 67.390625 C 97.59375 67.394531 98.058594 67.398438 98.527344 67.40625 C 98.527344 67.558594 98.519531 67.859375 98.515625 68.011719 C 98.941406 67.671875 99.382812 67.261719 99.96875 67.273438 C 100.773438 67.152344 101.6875 67.695312 101.753906 68.558594 C 101.828125 69.820312 101.75 71.085938 101.796875 72.351562 C 101.292969 72.355469 100.789062 72.351562 100.289062 72.335938 C 100.273438 71.132812 100.386719 69.917969 100.234375 68.730469 C 99.890625 68 98.761719 68.300781 98.636719 69.039062 C 98.570312 70.140625 98.625 71.25 98.617188 72.355469 C 98.121094 72.355469 97.628906 72.355469 97.136719 72.335938 C 97.164062 70.6875 97.167969 69.039062 97.128906 67.390625 Z M 97.128906 67.390625 "/>
    <path style=" stroke:none;fill-rule:nonzero;fill:rgb(17.647059%,17.647059%,17.647059%);fill-opacity:1;" d="M 109.183594 68.816406 C 109.605469 67.300781 111.660156 66.753906 112.859375 67.703125 C 113.613281 68.300781 113.757812 69.332031 113.75 70.234375 C 112.628906 70.253906 111.511719 70.246094 110.394531 70.238281 C 110.34375 70.871094 110.742188 71.714844 111.5 71.546875 C 111.9375 71.597656 112.132812 71.175781 112.332031 70.878906 C 112.761719 70.875 113.1875 70.878906 113.617188 70.882812 C 113.441406 72.605469 111.144531 72.988281 109.917969 72.144531 C 108.878906 71.402344 108.910156 69.925781 109.183594 68.816406 M 110.464844 69.347656 C 111.066406 69.34375 111.667969 69.34375 112.273438 69.34375 C 112.21875 68.90625 112.074219 68.265625 111.527344 68.25 C 110.875 68.089844 110.457031 68.777344 110.464844 69.347656 Z M 110.464844 69.347656 "/>
    <path style=" stroke:none;fill-rule:nonzero;fill:rgb(17.647059%,17.647059%,17.647059%);fill-opacity:1;" d="M 114.941406 67.394531 C 115.394531 67.398438 115.851562 67.398438 116.304688 67.398438 C 116.304688 67.601562 116.304688 68.003906 116.300781 68.207031 C 116.6875 67.632812 117.300781 67.328125 117.992188 67.359375 C 117.992188 67.792969 117.996094 68.230469 117.996094 68.667969 C 117.445312 68.660156 116.761719 68.679688 116.515625 69.28125 C 116.390625 70.300781 116.488281 71.332031 116.464844 72.355469 C 115.976562 72.351562 115.488281 72.351562 115 72.355469 C 114.988281 70.699219 115.050781 69.046875 114.941406 67.394531 Z M 114.941406 67.394531 "/>
    <path style=" stroke:none;fill-rule:nonzero;fill:rgb(17.647059%,17.647059%,17.647059%);fill-opacity:1;" d="M 118.261719 71.042969 C 118.710938 71.046875 119.160156 71.050781 119.609375 71.058594 C 119.601562 71.484375 119.601562 71.910156 119.609375 72.339844 C 119.160156 72.347656 118.710938 72.355469 118.261719 72.359375 C 118.261719 71.921875 118.261719 71.480469 118.261719 71.042969 Z M 118.261719 71.042969 "/>
  </g>
</svg>