<?xml version="1.0" encoding="UTF-8" ?>
<!DOCTYPE svg PUBLIC "-//W3C//DTD SVG 1.1//EN" "http://www.w3.org/Graphics/SVG/1.1/DTD/svg11.dtd">
<svg width="2397pt" height="511pt" viewBox="0 0 2397 511" version="1.1" xmlns="http://www.w3.org/2000/svg">
<g id="#ffffffff">
</g>
<g id="#002f4eff">
<path fill="#002f4e" opacity="1.00" d=" M 1332.04 4.82 C 1341.79 4.57 1351.57 3.36 1361.33 4.37 C 1405.65 5.07 1449.96 16.43 1488.54 38.44 C 1521.08 56.82 1549.27 82.94 1569.68 114.27 C 1594.10 151.55 1607.84 195.50 1610.00 239.95 C 1612.79 286.15 1604.87 333.46 1584.01 375.00 C 1567.86 407.81 1544.03 436.81 1514.73 458.72 C 1478.25 486.13 1434.21 502.99 1388.94 508.13 C 1344.09 513.03 1297.78 509.40 1255.24 493.72 C 1221.05 481.12 1189.14 461.53 1163.86 435.14 C 1148.40 419.79 1135.69 401.81 1125.23 382.73 C 1124.34 381.12 1122.84 379.24 1124.23 377.44 C 1137.87 347.75 1145.42 315.46 1147.92 282.94 C 1151.76 232.74 1144.84 180.98 1123.40 135.10 C 1141.74 99.52 1169.33 68.79 1202.87 46.91 C 1241.18 21.70 1286.31 7.40 1332.04 4.82 M 1333.47 132.69 C 1298.44 137.20 1265.76 158.70 1249.02 189.99 C 1237.69 210.67 1232.30 234.47 1233.00 258.00 C 1232.34 290.14 1243.19 323.01 1265.18 346.80 C 1278.59 361.12 1295.83 371.75 1314.56 377.53 C 1334.88 383.54 1356.63 384.61 1377.45 380.68 C 1397.39 377.00 1416.43 368.08 1431.75 354.75 C 1447.00 341.46 1458.40 323.99 1464.88 304.86 C 1471.70 285.05 1473.69 263.71 1471.88 242.90 C 1469.98 220.56 1462.85 198.46 1450.00 179.99 C 1437.63 161.88 1419.54 147.90 1399.18 139.87 C 1378.42 131.65 1355.49 129.80 1333.47 132.69 Z" />
<path fill="#002f4e" opacity="1.00" d=" M 2254.50 12.51 C 2298.83 12.50 2343.15 12.48 2387.48 12.52 C 2387.53 101.68 2387.49 190.84 2387.50 280.00 C 2387.65 294.70 2387.48 309.39 2386.01 324.02 C 2382.81 357.38 2373.29 390.63 2354.92 418.89 C 2338.92 443.58 2316.11 463.79 2289.67 476.68 C 2260.08 491.78 2226.88 498.33 2193.94 500.44 C 2152.11 502.62 2109.11 499.47 2069.75 484.17 C 2035.75 471.27 2005.53 447.77 1986.39 416.66 C 1963.21 379.68 1954.75 335.18 1955.50 292.00 C 1955.52 198.84 1955.45 105.69 1955.54 12.54 C 1999.84 12.47 2044.15 12.47 2088.46 12.54 C 2088.55 106.70 2088.48 200.86 2088.50 295.03 C 2089.23 314.87 2094.63 335.64 2108.63 350.37 C 2122.16 364.76 2141.75 372.03 2161.17 373.44 C 2180.26 374.97 2200.28 372.56 2217.33 363.33 C 2225.70 358.77 2232.91 352.23 2238.83 344.80 C 2250.53 329.11 2254.06 309.13 2254.48 289.98 C 2254.52 197.49 2254.47 105.00 2254.50 12.51 Z" />
<path fill="#002f4e" opacity="1.00" d=" M 656.01 13.01 C 713.34 12.99 770.67 13.00 828.00 13.00 C 854.67 13.13 881.40 12.31 907.96 15.09 C 943.66 18.86 978.91 29.05 1010.26 46.72 C 1035.61 60.86 1058.25 80.00 1075.89 103.10 C 1105.99 142.09 1121.68 191.00 1123.97 239.93 C 1126.34 283.90 1120.09 329.06 1101.26 369.17 C 1092.20 388.97 1080.18 407.40 1065.64 423.60 C 1032.78 460.35 986.97 483.97 939.12 494.30 C 920.35 498.33 901.19 500.40 882.02 501.02 C 806.68 500.98 731.35 501.01 656.01 500.99 C 656.00 460.33 656.00 419.67 656.01 379.01 C 727.34 379.00 798.67 378.99 870.00 379.01 C 899.86 379.20 931.06 370.06 952.65 348.65 C 965.69 336.33 974.71 320.15 979.89 303.06 C 984.57 288.18 986.19 272.53 986.53 257.00 C 986.22 241.14 984.42 225.20 979.67 210.01 C 974.92 194.02 966.38 179.22 954.86 167.15 C 941.52 153.80 924.37 144.44 906.13 139.77 C 892.41 136.00 878.14 135.37 864.01 134.98 C 794.67 135.02 725.34 135.00 656.01 134.99 C 656.00 94.33 656.00 53.67 656.01 13.01 Z" />
<path fill="#002f4e" opacity="1.00" d=" M 1772.08 23.13 C 1774.50 19.85 1776.27 16.01 1779.14 13.08 C 1832.87 12.92 1886.61 12.99 1940.35 13.05 C 1929.90 27.95 1918.69 42.29 1908.00 57.00 C 1859.90 121.70 1811.93 186.50 1763.80 251.18 C 1827.80 334.52 1892.00 417.70 1956.06 501.00 C 1902.35 501.01 1848.65 500.99 1794.94 501.01 C 1793.58 501.03 1792.08 500.95 1791.49 499.55 C 1746.17 437.83 1700.59 376.29 1655.26 314.58 C 1645.34 314.36 1635.41 314.63 1625.49 314.44 C 1628.88 297.18 1630.29 279.59 1630.92 262.04 C 1631.13 240.07 1628.96 218.11 1624.90 196.51 C 1635.23 196.45 1645.56 196.57 1655.90 196.46 C 1694.47 138.58 1733.43 80.96 1772.08 23.13 Z" />
<path fill="#002f4e" opacity="1.00" d=" M 472.08 154.91 C 490.63 149.19 510.99 148.81 529.57 154.60 C 544.80 159.44 558.41 169.95 565.68 184.34 C 573.75 200.26 574.98 219.24 570.53 236.40 C 566.20 252.34 555.09 265.22 543.71 276.70 C 532.08 289.11 519.67 300.76 507.83 312.97 C 528.55 313.04 549.27 312.97 569.99 313.01 C 569.96 328.52 570.09 344.03 569.93 359.54 C 525.78 359.36 481.62 359.70 437.48 359.37 C 437.60 346.59 437.34 333.81 437.60 321.04 C 439.64 317.98 442.83 315.96 445.37 313.35 C 451.22 307.54 457.03 301.69 462.86 295.86 C 473.65 286.35 483.16 275.47 493.87 265.87 C 501.40 257.73 510.40 250.80 516.57 241.50 C 521.51 233.77 523.84 224.24 521.97 215.18 C 520.32 207.07 513.72 200.28 505.75 198.18 C 498.38 196.03 490.41 196.87 483.16 199.10 C 472.19 202.80 462.96 210.48 455.56 219.22 C 449.32 212.53 443.53 205.41 437.39 198.62 C 434.00 194.48 430.10 190.76 427.06 186.35 C 438.86 172.08 454.24 160.37 472.08 154.91 Z" />
<path fill="#002f4e" opacity="1.00" d=" M 217.00 155.02 C 233.59 154.98 250.19 154.99 266.79 155.02 C 297.45 194.35 328.11 233.69 358.96 272.87 C 359.06 233.58 358.96 194.29 359.01 155.01 C 376.52 155.04 394.03 154.91 411.53 155.07 C 411.45 223.21 411.53 291.35 411.49 359.49 C 394.79 359.54 378.08 359.45 361.37 359.54 C 330.23 320.13 299.59 280.32 268.45 240.92 C 268.54 280.43 268.51 319.95 268.47 359.46 C 251.31 359.53 234.15 359.52 216.99 359.46 C 217.00 291.32 217.00 223.17 217.00 155.02 Z" />
<path fill="#002f4e" opacity="1.00" d=" M 656.04 155.01 C 673.49 155.01 690.94 154.96 708.39 155.03 C 698.92 175.41 688.43 195.30 678.51 215.46 C 668.21 237.12 657.13 258.41 646.58 279.96 C 657.54 280.06 668.50 279.98 679.46 280.00 C 679.66 272.84 679.24 265.66 679.65 258.52 C 684.76 247.80 689.91 237.08 695.18 226.43 C 705.76 226.56 716.35 226.49 726.93 226.47 C 727.09 244.31 726.94 262.15 727.01 279.99 C 735.49 280.02 743.97 279.98 752.46 280.00 C 752.53 295.49 752.52 310.98 752.47 326.46 C 744.00 326.53 735.53 326.51 727.07 326.46 C 726.90 337.46 727.05 348.47 727.00 359.47 C 711.18 359.52 695.35 359.53 679.53 359.46 C 679.44 348.48 679.55 337.50 679.48 326.52 C 649.50 326.44 619.52 326.56 589.54 326.46 C 589.63 314.37 589.16 302.21 589.76 290.16 C 611.87 245.12 633.79 199.98 656.04 155.01 Z" />
</g>
<g id="#f38724ff">
<path fill="#f38724" opacity="1.00" d=" M 12.62 155.03 C 80.74 154.98 148.87 154.99 217.00 155.02 C 217.00 223.17 217.00 291.32 216.99 359.46 C 148.86 359.46 80.73 359.61 12.61 359.39 C 12.38 310.60 12.58 261.80 12.51 213.00 C 12.59 193.68 12.36 174.35 12.62 155.03 Z" />
</g>
</svg>
