<?xml version="1.0" encoding="utf-8"?>
<!-- Generator: Adobe Illustrator 12.0.1, SVG Export Plug-In . SVG Version: 6.00 Build 51448)  -->
<!DOCTYPE svg PUBLIC "-//W3C//DTD SVG 1.1//EN" "http://www.w3.org/Graphics/SVG/1.1/DTD/svg11.dtd" [
	<!ENTITY ns_svg "http://www.w3.org/2000/svg">
	<!ENTITY ns_xlink "http://www.w3.org/1999/xlink">
]>
<svg  version="1.1" id="Layer_1" xmlns="&ns_svg;" xmlns:xlink="&ns_xlink;" width="299.981" height="105.747"
	 viewBox="0 0 299.981 105.747" overflow="visible" enable-background="new 0 0 299.981 105.747" xml:space="preserve">
<path fill="#FDD700" d="M0,0.315h73.216v104.912H0V0.315z M62.625,10.884H10.543v83.782h52.083V10.884z"/>
<path fill="#010101" d="M112.067,29.663h-3.622c-4.757-6.709-9.466-13.374-14.176-20.911h-0.036v20.911h-3.999V0.498h3.622
	c4.757,6.665,9.459,13.301,14.132,20.786h0.08V0.498h3.999V29.663z"/>
<path fill="#010101" d="M121.567,18.127c1.168-3.838,2.333-7.375,3.373-11.887h0.091c1.168,4.512,2.205,8.049,3.292,11.887H121.567z
	 M123.486,0.498l-10.078,29.165h4.325l2.542-7.954h8.8l2.285,7.954h5.589l-9.291-29.165H123.486z"/>
<polygon fill="#010101" points="141.657,29.663 141.657,4.417 133.993,4.417 133.993,0.498 154.325,0.498 154.325,4.417 
	146.66,4.417 146.66,29.663 "/>
<line fill="none" stroke="#010101" stroke-width="5" stroke-miterlimit="10" x1="158.427" y1="29.67" x2="158.427" y2="0.498"/>
<path fill="#010101" d="M176.327,26.001c-5.208,0-7.039-5.757-7.039-11.338c0-5.376,2.08-10.503,7.039-10.503
	c4.965,0,7.038,5.127,7.038,10.503C183.365,20.244,181.534,26.001,176.327,26.001 M176.327,30.168c7.624,0,12.37-6.797,12.37-15.505
	c0-8.174-5.244-14.663-12.37-14.663c-7.127,0-12.371,6.489-12.371,14.663C163.956,23.372,168.702,30.168,176.327,30.168"/>
<path fill="#010101" d="M213.585,29.663h-3.633c-4.746-6.709-9.463-13.374-14.165-20.911h-0.029v20.911h-4.014V0.498h3.633
	c4.746,6.665,9.463,13.301,14.121,20.786h0.095V0.498h3.992V29.663z"/>
<path fill="#010101" d="M223.092,18.127c1.165-3.838,2.329-7.375,3.369-11.887h0.088c1.165,4.512,2.212,8.049,3.296,11.887H223.092z
	 M225.011,0.498l-10.1,29.165h4.336l2.549-7.954h8.796l2.285,7.954h5.581l-9.287-29.165H225.011z"/>
<polygon fill="#010101" points="239.923,0.498 244.889,0.498 244.889,25.752 254.755,25.752 254.755,29.663 239.923,29.663 "/>
<path fill="#010101" d="M108.995,54.067v12.048c-2.67,1.048-5.46,1.795-8.295,1.795c-8.58,0-14.004-6.665-14.004-15.249
	c0-7.969,5.424-14.927,14.169-14.927c2.706,0,5.416,1.003,7.079,2.249l-1.619,3.464c-1.336-0.835-3.42-1.545-5.332-1.545
	c-5.339,0-8.961,4.211-8.961,10.833c0,6.922,4.167,11.008,8.467,11.008c1.326,0,2.45-0.168,3.494-0.71v-8.965H108.995z"/>
<polygon fill="#010101" points="126.87,42.158 118.531,42.158 118.531,50.156 126.698,50.156 126.698,54.067 118.531,54.067 
	118.531,63.486 128.371,63.486 128.371,67.412 113.536,67.412 113.536,38.232 126.87,38.232 "/>
<path fill="#010101" d="M142.287,63.742c-5.204,0-7.042-5.749-7.042-11.337c0-5.369,2.084-10.503,7.042-10.503
	c4.966,0,7.042,5.134,7.042,10.503C149.33,57.993,147.491,63.742,142.287,63.742 M142.287,67.91c7.628,0,12.374-6.797,12.374-15.505
	c0-8.167-5.247-14.67-12.374-14.67c-7.126,0-12.374,6.504-12.374,14.67C129.913,61.113,134.659,67.91,142.287,67.91"/>
<path fill="#010101" d="M178.671,54.067v12.048c-2.659,1.048-5.457,1.795-8.284,1.795c-8.591,0-14.019-6.665-14.019-15.249
	c0-7.969,5.428-14.927,14.18-14.927c2.71,0,5.42,1.003,7.075,2.249l-1.611,3.464c-1.348-0.835-3.428-1.545-5.347-1.545
	c-5.332,0-8.965,4.211-8.965,10.833c0,6.922,4.175,11.008,8.467,11.008c1.333,0,2.461-0.168,3.501-0.71v-8.965H178.671z"/>
<path fill="#010101" d="M188.258,42.158h2.212c2.951,0,4.614,1.699,4.614,4.709c0,3.904-2.366,5.662-4.746,5.786
	c-0.498,0.051-1.663,0.081-2.08,0.132V42.158z M200.921,67.412l-5.866-12.085c3.208-1.714,5.039-5.171,5.039-8.672
	c0-5.669-3.457-8.423-9.053-8.423h-7.778v29.18h4.995V56.404h2.168h0.073l4.717,11.008H200.921z"/>
<path fill="#010101" d="M209.176,55.869c1.157-3.838,2.337-7.383,3.376-11.88h0.081c1.165,4.497,2.212,8.042,3.296,11.88H209.176z
	 M211.095,38.232l-10.093,29.18h4.336l2.542-7.961h8.796l2.285,7.961h5.596l-9.294-29.18H211.095z"/>
<path fill="#010101" d="M231.134,67.412h-5.002v-29.18h7.8c5.581,0,9.046,2.754,9.046,8.423c0,4.907-3.626,9.749-9.596,9.749h-2.336
	v-3.619c0.249-0.051,1.633-0.081,2.168-0.132c2.388-0.125,4.754-1.882,4.754-5.786c0-3.01-1.663-4.709-4.586-4.709h-2.248V67.412z"
	/>
<polygon fill="#010101" points="266.144,67.412 261.142,67.412 261.142,53.364 250.763,53.364 250.763,67.412 245.812,67.412 
	245.812,38.232 250.763,38.232 250.763,49.453 261.142,49.453 261.142,38.32 266.144,38.32 "/>
<line fill="none" stroke="#010101" stroke-width="5" stroke-miterlimit="10" x1="273.417" y1="67.412" x2="273.417" y2="38.232"/>
<path fill="#010101" d="M298.399,43.535c-1.216-0.754-3.208-1.633-5.127-1.633c-5.083,0-8.797,4.211-8.797,10.833
	c0,6.922,4.088,11.008,8.914,11.008c1.919,0,3.721-0.622,5.01-1.457l1.377,3.625c-1.509,1.041-4.16,2-6.584,2
	c-8.592,0-14.004-6.665-14.004-15.256c0-7.961,5.368-14.919,14.084-14.919c2.593,0,4.995,1.084,6.709,2.249L298.399,43.535z"/>
<path fill="#818285" d="M105.754,81.431c-1.201-0.747-3.193-1.626-5.108-1.626c-5.068,0-8.767,4.204-8.767,10.811
	c0,6.899,4.065,10.972,8.888,10.972c1.911,0,3.706-0.63,4.987-1.458l1.374,3.619c-1.494,1.032-4.157,1.999-6.563,1.999
	c-8.566,0-13.975-6.665-13.975-15.22c0-7.932,5.373-14.883,14.055-14.883c2.582,0,4.988,1.084,6.684,2.256L105.754,81.431z"/>
<polygon fill="#818285" points="129.159,105.242 124.171,105.242 124.171,91.245 113.822,91.245 113.822,105.242 108.878,105.242 
	108.878,76.143 113.822,76.143 113.822,87.326 124.171,87.326 124.171,76.23 129.159,76.23 "/>
<path fill="#818285" d="M139.098,93.735c1.161-3.823,2.325-7.354,3.351-11.851h0.092c1.161,4.497,2.212,8.027,3.292,11.851H139.098z
	 M141.002,76.143l-10.049,29.1h4.317l2.538-7.933h8.767l2.285,7.933h5.574l-9.276-29.1H141.002z"/>
<path fill="#818285" d="M177.989,105.242h-3.611c-4.738-6.695-9.434-13.338-14.128-20.867h-0.044v20.867h-3.984v-29.1h3.618
	c4.731,6.65,9.419,13.271,14.092,20.75h0.073v-20.75h3.984V105.242z"/>
<path fill="#818285" d="M204.466,105.242h-3.61c-4.739-6.695-9.44-13.338-14.136-20.867h-0.037v20.867h-3.991v-29.1h3.618
	c4.731,6.65,9.426,13.271,14.084,20.75h0.081v-20.75h3.991V105.242z"/>
<polygon fill="#818285" points="221.679,80.061 213.365,80.061 213.365,88.037 221.51,88.037 221.51,91.948 213.365,91.948 
	213.365,101.338 223.18,101.338 223.18,105.242 208.385,105.242 208.385,76.143 221.679,76.143 "/>
<polygon fill="#818285" points="225.963,76.143 230.899,76.143 230.899,101.338 240.758,101.338 240.758,105.242 225.963,105.242 
	"/>
</svg>
