<?xml version="1.0" encoding="UTF-8" ?>
<!DOCTYPE svg PUBLIC "-//W3C//DTD SVG 1.1//EN" "http://www.w3.org/Graphics/SVG/1.1/DTD/svg11.dtd">
<svg width="500pt" height="303pt" viewBox="0 0 500 303" version="1.1" xmlns="http://www.w3.org/2000/svg">
<g id="#7f8e23ff">
<path fill="#7f8e23" opacity="1.00" d=" M 1.99 2.20 C 23.78 2.25 45.58 2.06 67.37 2.25 C 97.46 39.86 127.69 77.35 158.06 114.72 C 152.48 100.37 146.96 86.00 141.31 71.67 C 164.61 90.54 187.16 110.32 210.38 129.29 C 210.39 142.28 210.36 155.27 210.38 168.26 C 195.59 156.56 181.41 144.12 166.90 132.09 C 118.58 91.40 70.14 50.84 21.81 10.16 C 19.14 7.94 16.70 5.27 13.45 3.88 C 9.73 2.85 5.81 3.19 2.00 3.09 L 1.99 2.20 Z" />
</g>
<g id="#b6c510ff">
<path fill="#b6c510" opacity="1.00" d=" M 141.25 2.15 C 164.25 2.30 187.25 2.15 210.25 2.17 C 210.54 9.35 210.30 16.53 210.37 23.72 C 202.62 18.17 195.71 11.58 188.30 5.61 C 186.03 3.60 182.93 3.21 180.01 3.19 C 171.21 3.11 162.41 2.53 153.61 3.01 C 149.49 2.71 145.38 2.25 141.25 2.15 Z" />
</g>
<g id="#3b3e6dff">
<path fill="#3b3e6d" opacity="1.00" d=" M 370.84 3.40 C 379.49 2.39 388.19 1.83 396.89 2.01 C 396.73 18.49 396.52 35.00 397.27 51.47 C 387.85 50.55 378.39 53.56 370.81 59.12 C 370.66 40.55 370.56 21.97 370.84 3.40 Z" />
</g>
<g id="#373562ff">
<path fill="#373562" opacity="1.00" d=" M 396.89 2.01 C 405.04 2.22 413.16 3.05 421.17 4.51 C 421.50 17.66 421.19 30.82 421.36 43.98 C 421.44 49.22 421.10 54.45 420.67 59.67 C 414.21 54.01 405.68 51.85 397.27 51.47 C 396.52 35.00 396.73 18.49 396.89 2.01 Z" />
</g>
<g id="#738224ff">
<path fill="#738224" opacity="1.00" d=" M 2.00 3.09 C 5.81 3.19 9.73 2.85 13.45 3.88 C 16.70 5.27 19.14 7.94 21.81 10.16 C 70.14 50.84 118.58 91.40 166.90 132.09 C 181.41 144.12 195.59 156.56 210.38 168.26 C 210.28 182.48 210.59 196.72 210.20 210.94 C 207.38 209.85 204.49 208.77 202.11 206.87 C 177.46 185.83 152.52 165.13 127.74 144.25 C 85.78 109.16 44.15 73.66 2.00 38.78 C 2.02 26.88 1.99 14.98 2.00 3.09 Z" />
</g>
<g id="#9dac1dff">
<path fill="#9dac1d" opacity="1.00" d=" M 141.25 2.15 C 145.38 2.25 149.49 2.71 153.61 3.01 C 165.53 14.29 178.59 24.29 191.02 34.99 C 197.39 40.32 203.49 46.00 210.37 50.69 C 210.40 64.24 210.35 77.79 210.37 91.33 C 203.08 86.14 196.57 79.99 189.66 74.34 C 178.34 65.00 167.24 55.42 155.93 46.08 C 151.21 42.00 146.48 37.91 141.26 34.46 C 141.28 23.69 141.23 12.92 141.25 2.15 Z" />
</g>
<g id="#abbb15ff">
<path fill="#abbb15" opacity="1.00" d=" M 153.61 3.01 C 162.41 2.53 171.21 3.11 180.01 3.19 C 182.93 3.21 186.03 3.60 188.30 5.61 C 195.71 11.58 202.62 18.17 210.37 23.72 C 210.39 32.71 210.36 41.70 210.37 50.69 C 203.49 46.00 197.39 40.32 191.02 34.99 C 178.59 24.29 165.53 14.29 153.61 3.01 Z" />
</g>
<g id="#404a78ff">
<path fill="#404a78" opacity="1.00" d=" M 346.04 9.52 C 354.07 6.62 362.40 4.66 370.84 3.40 C 370.56 21.97 370.66 40.55 370.81 59.12 C 359.37 67.95 356.28 83.21 355.51 96.86 C 354.85 112.57 354.98 129.21 362.36 143.53 C 361.69 164.79 362.26 186.07 362.12 207.34 C 356.67 206.04 351.24 204.64 345.99 202.67 C 346.01 138.28 345.92 73.90 346.04 9.52 Z" />
</g>
<g id="#322b56ff">
<path fill="#322b56" opacity="1.00" d=" M 421.17 4.51 C 436.04 7.37 450.54 12.86 462.91 21.71 C 462.61 43.18 462.76 64.65 462.82 86.12 C 452.99 86.12 443.16 86.13 433.33 86.12 C 432.69 76.11 428.28 66.31 420.67 59.67 C 421.10 54.45 421.44 49.22 421.36 43.98 C 421.19 30.82 421.50 17.66 421.17 4.51 Z" />
</g>
<g id="#435180ff">
<path fill="#435180" opacity="1.00" d=" M 330.96 16.68 C 334.16 14.76 337.53 13.15 340.99 11.77 C 340.98 74.64 341.03 137.52 340.96 200.39 C 337.49 199.11 334.17 197.47 330.99 195.60 C 330.94 135.96 330.99 76.32 330.96 16.68 Z" />
</g>
<g id="#445687ff">
<path fill="#445687" opacity="1.00" d=" M 315.94 27.07 C 319.09 24.38 322.48 21.99 325.99 19.79 C 325.99 77.30 326.02 134.82 325.97 192.33 C 322.39 190.29 319.09 187.81 315.93 185.18 C 315.96 132.47 315.95 79.77 315.94 27.07 Z" />
</g>
<g id="#2d224cff">
<path fill="#2d224c" opacity="1.00" d=" M 462.91 21.71 C 475.07 30.44 484.77 42.59 490.33 56.51 C 494.25 65.97 495.73 76.18 497.97 86.12 C 486.25 86.13 474.54 86.12 462.82 86.12 C 462.76 64.65 462.61 43.18 462.91 21.71 Z" />
</g>
<g id="#465c8eff">
<path fill="#465c8e" opacity="1.00" d=" M 301.01 44.97 C 303.23 39.94 307.18 35.85 310.82 31.78 C 310.82 81.31 310.86 130.83 310.81 180.35 C 307.45 176.94 304.41 173.20 301.85 169.16 C 300.68 167.68 300.94 165.72 300.89 163.96 C 301.02 124.30 300.76 84.63 301.01 44.97 Z" />
</g>
<g id="#8d9c21ff">
<path fill="#8d9c21" opacity="1.00" d=" M 141.26 34.46 C 146.48 37.91 151.21 42.00 155.93 46.08 C 167.24 55.42 178.34 65.00 189.66 74.34 C 196.57 79.99 203.08 86.14 210.37 91.33 C 210.39 103.98 210.36 116.64 210.38 129.29 C 187.16 110.32 164.61 90.54 141.31 71.67 C 141.21 59.27 141.24 46.87 141.26 34.46 Z" />
</g>
<g id="#697824ff">
<path fill="#697824" opacity="1.00" d=" M 2.00 38.78 C 44.15 73.66 85.78 109.16 127.74 144.25 C 152.52 165.13 177.46 185.83 202.11 206.87 C 204.49 208.77 207.38 209.85 210.20 210.94 C 189.60 210.81 169.01 210.91 148.41 210.86 C 122.65 178.77 96.85 146.71 71.07 114.65 C 71.06 119.15 71.06 123.65 71.06 128.16 C 47.89 109.12 25.25 89.45 2.00 70.50 C 2.01 59.93 1.99 49.36 2.00 38.78 Z" />
</g>
<g id="#486294ff">
<path fill="#486294" opacity="1.00" d=" M 290.00 108.03 C 289.91 90.39 289.78 72.29 295.67 55.43 C 295.69 89.27 295.66 123.11 295.68 156.95 C 290.27 141.25 289.86 124.46 290.00 108.03 Z" />
</g>
<g id="#606e24ff">
<path fill="#606e24" opacity="1.00" d=" M 2.00 70.50 C 25.25 89.45 47.89 109.12 71.06 128.16 C 71.06 146.17 71.06 164.18 71.06 182.19 C 47.84 163.24 25.24 143.53 2.00 124.59 C 2.01 106.56 1.99 88.53 2.00 70.50 Z" />
</g>
<g id="#576623ff">
<path fill="#576623" opacity="1.00" d=" M 2.00 124.59 C 25.24 143.53 47.84 163.24 71.06 182.19 C 71.06 191.75 71.07 201.31 71.06 210.87 C 48.04 210.88 25.03 210.86 2.01 210.87 C 2.01 182.11 1.99 153.35 2.00 124.59 Z" />
</g>
<g id="#2c2049ff">
<path fill="#2c2049" opacity="1.00" d=" M 437.88 126.16 C 457.92 126.04 477.96 126.14 498.00 126.14 C 496.07 143.46 490.11 160.59 479.17 174.32 C 478.19 158.71 479.23 143.06 478.53 127.44 C 466.43 126.83 454.30 126.84 442.18 126.56 C 440.74 126.44 439.31 126.31 437.88 126.16 Z" />
</g>
<g id="#342f5aff">
<path fill="#342f5a" opacity="1.00" d=" M 415.78 156.48 C 427.87 151.02 435.29 138.80 437.88 126.16 C 439.31 126.31 440.74 126.44 442.18 126.56 C 442.13 151.53 442.08 176.50 442.25 201.47 C 433.74 204.85 424.83 207.19 415.78 208.60 C 415.76 191.23 415.74 173.85 415.78 156.48 Z" />
</g>
<g id="#302751ff">
<path fill="#302751" opacity="1.00" d=" M 442.18 126.56 C 454.30 126.84 466.43 126.83 478.53 127.44 C 479.23 143.06 478.19 158.71 479.17 174.32 C 469.57 186.46 456.56 195.68 442.25 201.47 C 442.08 176.50 442.13 151.53 442.18 126.56 Z" />
</g>
<g id="#3d4271ff">
<path fill="#3d4271" opacity="1.00" d=" M 362.36 143.53 C 367.31 151.87 375.85 157.52 385.13 159.96 C 385.32 176.65 385.25 193.34 385.15 210.03 C 377.41 209.72 369.72 208.81 362.12 207.34 C 362.26 186.07 361.69 164.79 362.36 143.53 Z" />
</g>
<g id="#383866ff">
<path fill="#383866" opacity="1.00" d=" M 385.13 159.96 C 395.36 161.88 406.22 160.58 415.78 156.48 C 415.74 173.85 415.76 191.23 415.78 208.60 C 405.66 210.35 395.38 210.01 385.15 210.03 C 385.25 193.34 385.32 176.65 385.13 159.96 Z" />
</g>
<g id="#9d9d9cff">
<path fill="#9d9d9c" opacity="1.00" d=" M 287.88 218.50 C 357.65 218.50 427.42 218.50 497.18 218.51 C 497.19 232.13 497.19 245.75 497.18 259.37 C 427.42 259.38 357.65 259.38 287.88 259.37 C 287.87 245.75 287.87 232.13 287.88 218.50 M 320.79 226.70 C 324.27 234.93 327.83 243.14 331.35 251.36 C 332.99 251.37 334.64 251.37 336.29 251.38 C 339.86 243.17 343.39 234.93 346.91 226.69 C 344.52 226.68 342.14 226.68 339.76 226.68 C 337.76 231.88 335.87 237.12 333.86 242.31 C 331.85 237.12 329.96 231.88 327.96 226.68 C 325.57 226.68 323.18 226.68 320.79 226.70 M 351.30 251.23 C 353.61 251.23 355.93 251.25 358.24 251.25 C 358.26 243.07 358.26 234.88 358.24 226.69 C 355.94 226.69 353.63 226.68 351.33 226.68 C 351.28 234.86 351.32 243.05 351.30 251.23 M 373.08 226.69 C 369.52 234.90 365.98 243.13 362.47 251.37 C 364.85 251.37 367.23 251.37 369.61 251.38 C 369.90 250.69 370.50 249.32 370.80 248.63 C 373.97 248.62 377.15 248.62 380.33 248.62 C 380.63 249.31 381.22 250.68 381.51 251.37 C 383.87 251.37 386.23 251.38 388.60 251.37 C 385.09 243.13 381.56 234.90 377.99 226.69 C 376.35 226.68 374.71 226.68 373.08 226.69 M 391.15 231.86 C 390.87 234.94 390.51 239.53 394.20 240.74 C 398.24 241.68 402.46 241.17 406.58 241.42 C 406.51 242.71 407.49 244.41 406.26 245.42 C 403.77 246.06 401.16 245.68 398.62 245.73 C 398.24 245.31 397.46 244.46 397.08 244.04 C 395.02 244.14 392.97 244.25 390.93 244.37 C 391.67 246.81 392.53 249.74 395.28 250.60 C 399.07 251.73 403.13 251.49 407.03 251.14 C 409.87 250.92 413.15 249.19 413.28 245.99 C 413.47 243.02 414.01 238.76 410.74 237.24 C 406.53 235.85 401.98 236.74 397.63 236.25 C 397.71 234.90 397.76 233.54 397.79 232.19 C 400.52 232.06 403.24 232.05 405.97 232.08 C 406.36 232.49 407.13 233.31 407.51 233.71 C 409.49 233.51 411.48 233.32 413.47 233.12 C 412.66 230.72 411.60 227.93 408.90 227.15 C 405.02 226.13 400.91 226.36 396.95 226.77 C 394.22 227.02 391.27 228.85 391.15 231.86 M 426.13 226.69 C 422.59 234.91 419.05 243.13 415.54 251.37 C 417.89 251.37 420.26 251.37 422.63 251.38 C 422.94 250.69 423.55 249.32 423.86 248.63 C 427.03 248.62 430.20 248.62 433.37 248.62 C 433.78 249.54 434.20 250.46 434.62 251.38 C 436.96 251.38 439.31 251.37 441.67 251.37 C 438.15 243.13 434.61 234.90 431.06 226.69 C 429.41 226.68 427.77 226.68 426.13 226.69 M 439.69 226.69 C 439.68 228.66 439.68 230.63 439.69 232.61 C 442.62 232.62 445.55 232.63 448.49 232.64 C 448.52 238.84 448.47 245.05 448.52 251.25 C 450.81 251.25 453.12 251.25 455.43 251.25 C 455.46 245.04 455.41 238.84 455.45 232.63 C 458.38 232.63 461.32 232.62 464.25 232.61 C 464.24 230.63 464.24 228.66 464.24 226.69 C 456.06 226.68 447.87 226.67 439.69 226.69 Z" />
<path fill="#9d9d9c" opacity="1.00" d=" M 2.00 218.88 C 71.46 218.88 140.92 218.87 210.37 218.88 C 210.38 232.46 210.37 246.04 210.37 259.62 C 140.92 259.63 71.46 259.62 2.01 259.63 C 2.00 246.04 2.00 232.46 2.00 218.88 M 34.75 227.07 C 38.24 235.27 41.76 243.45 45.29 251.63 C 46.94 251.62 48.59 251.61 50.24 251.60 C 53.75 243.42 57.29 235.25 60.78 227.05 C 58.38 227.05 55.97 227.08 53.56 227.13 C 51.70 232.34 49.72 237.50 47.77 242.68 C 45.81 237.47 43.90 232.25 41.90 227.06 C 39.52 227.06 37.14 227.06 34.75 227.07 M 65.12 227.06 C 65.12 235.21 65.12 243.35 65.13 251.50 C 67.42 251.50 69.70 251.50 71.99 251.50 C 72.00 243.35 72.01 235.21 71.99 227.06 C 69.70 227.06 67.41 227.06 65.12 227.06 M 86.83 227.06 C 83.29 235.24 79.76 243.42 76.26 251.62 C 78.64 251.62 81.02 251.62 83.40 251.62 C 83.67 250.95 84.20 249.60 84.47 248.92 C 87.66 248.87 90.85 248.86 94.04 248.89 C 94.44 249.80 94.85 250.72 95.25 251.64 C 97.59 251.63 99.93 251.62 102.27 251.61 C 98.77 243.42 95.24 235.24 91.73 227.06 C 90.09 227.06 88.46 227.06 86.83 227.06 M 104.84 231.95 C 104.48 235.11 104.11 239.91 107.93 241.07 C 111.99 242.04 116.23 241.41 120.36 241.80 C 120.28 243.16 120.25 244.52 120.28 245.88 C 117.55 246.05 114.82 246.07 112.09 246.01 C 111.71 245.59 110.93 244.74 110.54 244.32 C 108.57 244.42 106.59 244.53 104.62 244.64 C 105.34 246.89 105.93 249.62 108.37 250.63 C 112.02 252.10 116.12 251.65 119.96 251.49 C 122.77 251.30 126.23 250.05 126.73 246.89 C 127.13 243.65 127.69 238.70 123.79 237.36 C 119.74 236.37 115.50 237.07 111.38 236.58 C 111.37 235.35 110.77 233.71 111.76 232.75 C 114.20 232.05 116.80 232.45 119.31 232.40 C 119.72 232.81 120.56 233.61 120.98 234.01 C 123.00 233.84 125.02 233.67 127.03 233.49 C 126.20 231.09 125.18 228.30 122.47 227.52 C 118.73 226.52 114.76 226.78 110.93 227.09 C 108.21 227.32 105.09 228.91 104.84 231.95 M 129.08 251.63 C 131.45 251.63 133.82 251.62 136.20 251.61 C 136.49 250.93 137.06 249.57 137.35 248.89 C 140.49 248.87 143.64 248.87 146.79 248.88 C 147.23 249.80 147.66 250.71 148.09 251.63 C 150.42 251.62 152.74 251.62 155.07 251.62 C 151.60 243.43 148.04 235.28 144.57 227.09 C 142.93 227.08 141.29 227.05 139.65 227.04 C 136.10 235.22 132.58 243.42 129.08 251.63 M 153.12 227.06 C 153.12 229.04 153.12 231.01 153.12 232.99 C 156.04 233.00 158.96 233.00 161.88 233.01 C 161.89 239.17 161.86 245.33 161.89 251.50 C 164.19 251.50 166.50 251.50 168.81 251.50 C 168.83 245.33 168.80 239.17 168.82 233.01 C 171.74 233.00 174.65 233.00 177.57 232.98 C 177.56 231.01 177.56 229.04 177.57 227.08 C 169.42 227.04 161.27 227.06 153.12 227.06 Z" />
<path fill="#9d9d9c" opacity="1.00" d=" M 139.04 244.24 C 140.04 241.50 141.06 238.76 142.11 236.04 C 143.14 238.76 144.15 241.49 145.16 244.23 C 143.12 244.24 141.08 244.24 139.04 244.24 Z" />
<path fill="#9d9d9c" opacity="1.00" d=" M 375.55 235.73 C 376.61 238.48 377.65 241.23 378.68 244.00 C 376.61 244.00 374.53 243.99 372.47 243.99 C 373.48 241.23 374.51 238.48 375.55 235.73 Z" />
<path fill="#9d9d9c" opacity="1.00" d=" M 428.61 235.71 C 429.67 238.46 430.70 241.22 431.74 243.99 C 429.66 243.99 427.58 243.99 425.51 243.99 C 426.53 241.23 427.56 238.46 428.61 235.71 Z" />
<path fill="#9d9d9c" opacity="1.00" d=" M 89.30 236.07 C 90.33 238.78 91.35 241.50 92.35 244.23 C 90.31 244.24 88.27 244.24 86.24 244.24 C 87.23 241.51 88.25 238.78 89.30 236.07 Z" />
</g>
<g id="#ffffffff">
<path fill="#ffffff" opacity="1.00" d=" M 34.75 227.07 C 37.14 227.06 39.52 227.06 41.90 227.06 C 43.90 232.25 45.81 237.47 47.77 242.68 C 49.72 237.50 51.70 232.34 53.56 227.13 C 55.97 227.08 58.38 227.05 60.78 227.05 C 57.29 235.25 53.75 243.42 50.24 251.60 C 48.59 251.61 46.94 251.62 45.29 251.63 C 41.76 243.45 38.24 235.27 34.75 227.07 Z" />
<path fill="#ffffff" opacity="1.00" d=" M 65.12 227.06 C 67.41 227.06 69.70 227.06 71.99 227.06 C 72.01 235.21 72.00 243.35 71.99 251.50 C 69.70 251.50 67.42 251.50 65.13 251.50 C 65.12 243.35 65.12 235.21 65.12 227.06 Z" />
<path fill="#ffffff" opacity="1.00" d=" M 86.83 227.06 C 88.46 227.06 90.09 227.06 91.73 227.06 C 95.24 235.24 98.77 243.42 102.27 251.61 C 99.93 251.62 97.59 251.63 95.25 251.64 C 94.85 250.72 94.44 249.80 94.04 248.89 C 90.85 248.86 87.66 248.87 84.47 248.92 C 84.20 249.60 83.67 250.95 83.40 251.62 C 81.02 251.62 78.64 251.62 76.26 251.62 C 79.76 243.42 83.29 235.24 86.83 227.06 M 89.30 236.07 C 88.25 238.78 87.23 241.51 86.24 244.24 C 88.27 244.24 90.31 244.24 92.35 244.23 C 91.35 241.50 90.33 238.78 89.30 236.07 Z" />
<path fill="#ffffff" opacity="1.00" d=" M 104.84 231.95 C 105.09 228.91 108.21 227.32 110.93 227.09 C 114.76 226.78 118.73 226.52 122.47 227.52 C 125.18 228.30 126.20 231.09 127.03 233.49 C 125.02 233.67 123.00 233.84 120.98 234.01 C 120.56 233.61 119.72 232.81 119.31 232.40 C 116.80 232.45 114.20 232.05 111.76 232.75 C 110.77 233.71 111.37 235.35 111.38 236.58 C 115.50 237.07 119.74 236.37 123.79 237.36 C 127.69 238.70 127.13 243.65 126.73 246.89 C 126.23 250.05 122.77 251.30 119.96 251.49 C 116.12 251.65 112.02 252.10 108.37 250.63 C 105.93 249.62 105.34 246.89 104.62 244.64 C 106.59 244.53 108.57 244.42 110.54 244.32 C 110.93 244.74 111.71 245.59 112.09 246.01 C 114.82 246.07 117.55 246.05 120.28 245.88 C 120.25 244.52 120.28 243.16 120.36 241.80 C 116.23 241.41 111.99 242.04 107.93 241.07 C 104.11 239.91 104.48 235.11 104.84 231.95 Z" />
<path fill="#ffffff" opacity="1.00" d=" M 129.08 251.63 C 132.58 243.42 136.10 235.22 139.65 227.04 C 141.29 227.05 142.93 227.08 144.57 227.09 C 148.04 235.28 151.60 243.43 155.07 251.62 C 152.74 251.62 150.42 251.62 148.09 251.63 C 147.66 250.71 147.23 249.80 146.79 248.88 C 143.64 248.87 140.49 248.87 137.35 248.89 C 137.06 249.57 136.49 250.93 136.20 251.61 C 133.82 251.62 131.45 251.63 129.08 251.63 M 139.04 244.24 C 141.08 244.24 143.12 244.24 145.16 244.23 C 144.15 241.49 143.14 238.76 142.11 236.04 C 141.06 238.76 140.04 241.50 139.04 244.24 Z" />
<path fill="#ffffff" opacity="1.00" d=" M 153.12 227.06 C 161.27 227.06 169.42 227.04 177.57 227.08 C 177.56 229.04 177.56 231.01 177.57 232.98 C 174.65 233.00 171.74 233.00 168.82 233.01 C 168.80 239.17 168.83 245.33 168.81 251.50 C 166.50 251.50 164.19 251.50 161.89 251.50 C 161.86 245.33 161.89 239.17 161.88 233.01 C 158.96 233.00 156.04 233.00 153.12 232.99 C 153.12 231.01 153.12 229.04 153.12 227.06 Z" />
<path fill="#ffffff" opacity="1.00" d=" M 320.79 226.70 C 323.18 226.68 325.57 226.68 327.96 226.68 C 329.96 231.88 331.85 237.12 333.86 242.31 C 335.87 237.12 337.76 231.88 339.76 226.68 C 342.14 226.68 344.52 226.68 346.91 226.69 C 343.39 234.93 339.86 243.17 336.29 251.38 C 334.64 251.37 332.99 251.37 331.35 251.36 C 327.83 243.14 324.27 234.93 320.79 226.70 Z" />
<path fill="#ffffff" opacity="1.00" d=" M 351.30 251.23 C 351.32 243.05 351.28 234.86 351.33 226.68 C 353.63 226.68 355.94 226.69 358.24 226.69 C 358.26 234.88 358.26 243.07 358.24 251.25 C 355.93 251.25 353.61 251.23 351.30 251.23 Z" />
<path fill="#ffffff" opacity="1.00" d=" M 373.08 226.69 C 374.71 226.68 376.35 226.68 377.99 226.69 C 381.56 234.90 385.09 243.13 388.60 251.37 C 386.23 251.38 383.87 251.37 381.51 251.37 C 381.22 250.68 380.63 249.31 380.33 248.62 C 377.15 248.62 373.97 248.62 370.80 248.63 C 370.50 249.32 369.90 250.69 369.61 251.38 C 367.23 251.37 364.85 251.37 362.47 251.37 C 365.98 243.13 369.52 234.90 373.08 226.69 M 375.55 235.73 C 374.51 238.48 373.48 241.23 372.47 243.99 C 374.53 243.99 376.61 244.00 378.68 244.00 C 377.65 241.23 376.61 238.48 375.55 235.73 Z" />
<path fill="#ffffff" opacity="1.00" d=" M 391.15 231.86 C 391.27 228.85 394.22 227.02 396.95 226.77 C 400.91 226.36 405.02 226.13 408.90 227.15 C 411.60 227.93 412.66 230.72 413.47 233.12 C 411.48 233.32 409.49 233.51 407.51 233.71 C 407.13 233.31 406.36 232.49 405.97 232.08 C 403.24 232.05 400.52 232.06 397.79 232.19 C 397.76 233.54 397.71 234.90 397.63 236.25 C 401.98 236.74 406.53 235.85 410.74 237.24 C 414.01 238.76 413.47 243.02 413.28 245.99 C 413.15 249.19 409.87 250.92 407.03 251.14 C 403.13 251.49 399.07 251.73 395.28 250.60 C 392.53 249.74 391.67 246.81 390.93 244.37 C 392.97 244.25 395.02 244.14 397.08 244.04 C 397.46 244.46 398.24 245.31 398.62 245.73 C 401.16 245.68 403.77 246.06 406.26 245.42 C 407.49 244.41 406.51 242.71 406.58 241.42 C 402.46 241.17 398.24 241.68 394.20 240.74 C 390.51 239.53 390.87 234.94 391.15 231.86 Z" />
<path fill="#ffffff" opacity="1.00" d=" M 426.13 226.69 C 427.77 226.68 429.41 226.68 431.06 226.69 C 434.61 234.90 438.15 243.13 441.67 251.37 C 439.31 251.37 436.96 251.38 434.62 251.38 C 434.20 250.46 433.78 249.54 433.37 248.62 C 430.20 248.62 427.03 248.62 423.86 248.63 C 423.55 249.32 422.94 250.69 422.63 251.38 C 420.26 251.37 417.89 251.37 415.54 251.37 C 419.05 243.13 422.59 234.91 426.13 226.69 M 428.61 235.71 C 427.56 238.46 426.53 241.23 425.51 243.99 C 427.58 243.99 429.66 243.99 431.74 243.99 C 430.70 241.22 429.67 238.46 428.61 235.71 Z" />
<path fill="#ffffff" opacity="1.00" d=" M 439.69 226.69 C 447.87 226.67 456.06 226.68 464.24 226.69 C 464.24 228.66 464.24 230.63 464.25 232.61 C 461.32 232.62 458.38 232.63 455.45 232.63 C 455.41 238.84 455.46 245.04 455.43 251.25 C 453.12 251.25 450.81 251.25 448.52 251.25 C 448.47 245.05 448.52 238.84 448.49 232.64 C 445.55 232.63 442.62 232.62 439.69 232.61 C 439.68 230.63 439.68 228.66 439.69 226.69 Z" />
</g>
<g id="#536123ff">
<path fill="#536123" opacity="1.00" d=" M 53.17 267.43 C 55.43 267.43 57.70 267.44 59.97 267.43 C 64.74 278.59 69.47 289.76 74.21 300.94 C 71.63 300.94 69.05 300.94 66.48 300.93 C 65.48 298.44 64.48 295.97 63.46 293.50 C 58.81 293.50 54.15 293.50 49.50 293.50 C 48.48 295.97 47.47 298.44 46.48 300.92 C 43.97 300.93 41.45 300.94 38.94 300.94 C 43.67 289.76 48.41 278.59 53.17 267.43 M 56.48 276.40 C 55.03 279.93 53.58 283.46 52.14 287.00 C 55.03 287.00 57.92 287.00 60.82 287.00 C 59.37 283.46 57.93 279.93 56.48 276.40 Z" />
<path fill="#536123" opacity="1.00" d=" M 2.00 267.62 C 4.25 267.62 6.50 267.63 8.75 267.63 C 13.92 274.41 19.06 281.22 24.24 288.00 C 24.26 281.20 24.23 274.41 24.26 267.62 C 26.67 267.62 29.08 267.62 31.50 267.63 C 31.51 278.73 31.50 289.83 31.50 300.94 C 29.42 300.93 27.34 300.94 25.26 300.94 C 19.91 293.95 14.61 286.93 9.26 279.95 C 9.24 286.94 9.26 293.94 9.25 300.94 C 6.83 300.94 4.42 300.94 2.00 300.94 C 2.00 289.84 2.00 278.73 2.00 267.62 Z" />
<path fill="#536123" opacity="1.00" d=" M 75.00 267.63 C 84.19 267.62 93.37 267.62 102.56 267.63 C 102.56 269.89 102.56 272.16 102.56 274.43 C 99.19 274.44 95.81 274.44 92.44 274.44 C 92.43 283.27 92.44 292.11 92.44 300.94 C 89.98 300.94 87.52 300.94 85.06 300.94 C 85.05 292.11 85.07 283.27 85.05 274.44 C 81.70 274.44 78.35 274.44 75.00 274.44 C 75.00 272.16 75.00 269.89 75.00 267.63 Z" />
<path fill="#536123" opacity="1.00" d=" M 109.94 267.63 C 112.40 267.62 114.85 267.62 117.31 267.63 C 117.45 274.64 117.05 281.68 117.49 288.69 C 117.73 293.42 123.20 295.84 127.28 294.18 C 130.29 293.26 131.54 289.96 131.52 287.07 C 131.65 280.59 131.51 274.11 131.57 267.63 C 134.02 267.62 136.48 267.62 138.94 267.62 C 138.86 274.69 139.12 281.77 138.80 288.83 C 138.50 293.85 135.49 298.89 130.54 300.49 C 125.11 302.19 118.43 301.93 114.02 297.97 C 110.98 295.24 109.97 291.00 109.95 287.06 C 109.90 280.58 109.96 274.10 109.94 267.63 Z" />
<path fill="#536123" opacity="1.00" d=" M 148.69 267.63 C 155.12 267.83 161.62 267.14 168.00 268.08 C 173.51 268.95 177.28 274.57 176.36 280.01 C 176.29 284.29 173.02 287.43 169.43 289.22 C 172.12 293.11 174.78 297.02 177.44 300.93 C 174.57 300.94 171.69 300.94 168.82 300.94 C 166.45 297.39 164.07 293.85 161.70 290.31 C 159.80 290.31 157.90 290.31 156.01 290.31 C 156.00 293.85 156.00 297.40 156.00 300.94 C 153.56 300.94 151.12 300.94 148.69 300.94 C 148.69 289.83 148.68 278.73 148.69 267.63 M 156.01 274.32 C 156.00 277.48 156.00 280.64 156.00 283.81 C 159.24 283.74 162.52 284.10 165.72 283.51 C 169.73 282.63 170.14 276.18 166.25 274.83 C 162.94 273.87 159.41 274.44 156.01 274.32 Z" />
<path fill="#536123" opacity="1.00" d=" M 185.06 267.63 C 193.42 267.62 201.77 267.62 210.12 267.63 C 210.12 269.81 210.12 272.00 210.12 274.18 C 204.21 274.19 198.29 274.18 192.37 274.19 C 192.37 276.41 192.37 278.64 192.37 280.87 C 197.58 280.88 202.79 280.87 208.00 280.88 C 208.00 283.06 208.00 285.25 208.00 287.44 C 202.79 287.44 197.58 287.43 192.38 287.44 C 192.37 289.75 192.38 292.06 192.38 294.37 C 198.38 294.38 204.38 294.36 210.38 294.38 C 210.37 296.56 210.37 298.75 210.37 300.94 C 201.94 300.94 193.50 300.94 185.06 300.94 C 185.06 289.83 185.06 278.73 185.06 267.63 Z" />
</g>
<g id="#212b55ff">
<path fill="#212b55" opacity="1.00" d=" M 292.21 272.20 C 299.01 265.56 310.98 265.95 317.71 272.52 C 316.15 274.35 314.58 276.18 312.99 277.99 C 309.58 275.00 304.60 272.95 300.26 275.22 C 292.82 278.75 293.03 291.10 300.57 294.40 C 305.00 296.48 309.86 294.35 313.24 291.32 C 314.80 292.90 316.37 294.49 317.92 296.10 C 311.52 303.57 298.83 304.13 291.94 297.09 C 285.28 290.54 285.43 278.60 292.21 272.20 Z" />
<path fill="#212b55" opacity="1.00" d=" M 338.06 268.00 C 344.34 268.16 350.67 267.63 356.93 268.32 C 362.12 268.97 366.34 273.73 365.96 279.03 C 366.34 283.76 363.11 287.81 358.94 289.65 C 361.61 293.58 364.31 297.49 366.98 301.43 C 364.09 301.44 361.20 301.44 358.31 301.43 C 355.92 297.88 353.54 294.31 351.16 290.75 C 349.27 290.75 347.38 290.75 345.51 290.76 C 345.50 294.31 345.50 297.88 345.49 301.44 C 343.01 301.44 340.54 301.44 338.06 301.44 C 338.05 290.29 338.06 279.15 338.06 268.00 M 345.51 274.70 C 345.50 277.88 345.50 281.05 345.51 284.24 C 348.93 284.11 352.48 284.70 355.82 283.73 C 359.33 282.39 359.39 276.52 355.80 275.24 C 352.47 274.26 348.93 274.81 345.51 274.70 Z" />
<path fill="#212b55" opacity="1.00" d=" M 384.62 268.00 C 387.08 268.00 389.54 268.00 392.00 268.00 C 392.00 279.15 392.00 290.29 392.00 301.44 C 389.54 301.44 387.08 301.43 384.63 301.43 C 384.62 290.29 384.62 279.15 384.62 268.00 Z" />
<path fill="#212b55" opacity="1.00" d=" M 416.81 268.01 C 419.47 268.00 422.13 268.00 424.80 268.00 C 427.72 272.68 430.63 277.37 433.53 282.06 C 436.47 277.39 439.36 272.68 442.29 268.00 C 444.94 268.00 447.59 268.00 450.25 268.01 C 450.25 279.15 450.25 290.29 450.24 301.44 C 447.81 301.43 445.37 301.44 442.94 301.44 C 442.92 294.22 442.95 287.01 442.93 279.80 C 439.77 284.55 436.66 289.34 433.50 294.10 C 430.35 289.37 427.25 284.62 424.13 279.88 C 424.12 287.07 424.13 294.25 424.12 301.44 C 421.68 301.43 419.25 301.43 416.82 301.44 C 416.81 290.29 416.81 279.15 416.81 268.01 Z" />
<path fill="#212b55" opacity="1.00" d=" M 472.63 268.00 C 481.02 268.00 489.42 268.00 497.82 268.00 C 497.81 270.21 497.81 272.42 497.81 274.63 C 491.85 274.63 485.90 274.62 479.94 274.63 C 479.94 276.85 479.94 279.08 479.94 281.31 C 485.17 281.32 490.40 281.30 495.62 281.32 C 495.62 283.52 495.62 285.72 495.63 287.93 C 490.40 287.95 485.17 287.93 479.94 287.95 C 479.94 290.25 479.94 292.56 479.94 294.87 C 485.96 294.88 491.98 294.87 498.00 294.88 C 497.99 297.06 497.99 299.25 498.00 301.44 C 489.54 301.44 481.08 301.44 472.63 301.43 C 472.62 290.29 472.62 279.15 472.63 268.00 Z" />
</g>
</svg>
