<?xml version="1.0" encoding="UTF-8" ?>
<!DOCTYPE svg PUBLIC "-//W3C//DTD SVG 1.1//EN" "http://www.w3.org/Graphics/SVG/1.1/DTD/svg11.dtd">
<svg width="886pt" height="1271pt" viewBox="0 0 886 1271" version="1.1" xmlns="http://www.w3.org/2000/svg">
<g id="#798737ff">
<path fill="#798737" opacity="1.00" d=" M 0.00 0.00 L 14.54 0.00 C 18.64 2.59 21.43 7.44 26.44 8.27 C 26.23 8.63 25.83 9.33 25.62 9.68 C 31.86 14.86 38.07 20.07 44.43 25.10 C 44.72 25.03 45.29 24.89 45.57 24.82 C 46.59 26.62 47.44 28.63 49.21 29.83 C 53.20 32.84 56.99 36.09 61.05 39.01 C 67.34 43.61 71.82 50.48 79.05 53.77 C 81.73 57.28 85.51 59.54 89.02 62.11 C 88.99 62.59 88.97 63.07 88.94 63.55 C 91.24 65.05 93.32 66.85 95.61 68.37 C 96.69 68.45 97.68 67.81 98.70 67.53 C 98.60 68.57 98.50 69.62 98.41 70.68 C 104.55 75.14 109.23 81.35 115.94 85.10 C 124.03 91.60 131.43 98.96 139.80 105.16 C 142.97 107.23 145.21 111.10 149.22 111.57 C 149.32 112.14 149.43 112.70 149.53 113.26 C 150.76 113.67 151.99 114.20 152.68 115.37 C 156.34 120.41 162.27 122.97 166.40 127.56 C 172.26 131.20 176.58 136.69 181.88 141.04 C 187.27 144.96 192.05 149.64 197.49 153.50 C 201.01 155.82 203.16 160.49 207.75 160.83 C 207.72 161.73 207.69 162.63 207.67 163.54 C 209.70 164.25 211.71 165.16 213.09 166.90 C 216.69 171.09 221.88 173.39 225.77 177.26 C 227.71 179.17 229.69 181.24 232.46 181.87 C 232.63 183.07 232.75 184.42 234.08 184.91 C 243.34 191.00 250.63 199.63 260.00 205.54 C 262.72 209.77 267.97 211.09 270.92 215.11 C 275.24 219.14 279.55 223.28 284.59 226.41 C 287.85 228.50 289.81 232.03 292.97 234.23 C 299.55 238.00 304.00 244.58 310.80 248.05 C 312.09 248.11 313.55 247.29 314.67 248.29 C 316.30 249.40 315.47 251.67 315.77 253.34 C 322.73 257.14 327.24 263.97 333.88 268.22 C 337.14 270.86 340.54 273.34 343.60 276.22 C 344.50 276.22 345.40 276.22 346.31 276.22 C 346.06 276.81 345.83 277.41 345.60 278.00 C 348.60 281.84 353.01 284.17 356.40 287.63 C 359.09 290.62 363.16 291.33 366.82 292.46 C 366.20 292.68 364.97 293.13 364.35 293.36 C 366.46 295.04 368.52 296.79 370.58 298.53 C 371.71 297.76 372.85 296.99 373.98 296.21 C 373.76 297.83 373.56 299.46 373.38 301.09 C 378.12 306.61 384.58 310.14 389.71 315.23 C 397.92 320.61 403.81 329.09 412.89 333.19 C 413.93 333.57 414.27 334.70 414.84 335.55 C 415.43 335.28 416.04 335.03 416.65 334.78 C 417.35 335.35 418.06 335.93 418.77 336.52 C 418.17 336.73 416.95 337.14 416.34 337.35 C 419.82 340.33 423.50 343.05 426.81 346.23 C 428.62 347.79 430.98 350.61 433.36 348.28 C 433.60 349.65 433.14 351.49 434.55 352.35 C 440.14 356.32 444.52 361.71 450.04 365.79 C 450.39 365.18 450.76 364.57 451.12 363.97 C 452.72 368.91 457.25 371.82 461.05 374.97 C 462.41 376.32 464.34 376.33 466.13 376.45 C 466.50 382.30 473.48 382.80 476.22 386.98 C 479.58 391.20 484.04 394.38 488.09 397.91 C 492.30 400.24 495.10 404.25 498.99 406.99 C 505.47 412.91 512.98 417.60 519.21 423.82 C 526.61 429.71 533.38 436.32 540.82 442.15 C 543.00 444.07 546.07 444.75 547.82 447.20 C 551.85 452.18 557.74 455.07 562.11 459.72 C 563.04 458.31 564.01 456.92 565.06 455.59 C 566.48 457.50 565.35 459.85 565.18 461.96 C 571.17 468.20 578.63 472.82 584.68 479.01 C 585.93 480.01 587.62 480.27 588.89 481.25 C 595.60 488.24 603.01 494.56 610.74 500.41 C 611.96 501.82 613.70 500.87 615.19 500.60 C 615.43 503.23 616.51 505.69 618.68 507.30 C 623.68 511.36 628.70 515.48 634.38 518.57 C 635.43 519.10 634.89 520.25 634.89 521.13 C 636.35 521.23 637.80 521.34 639.27 521.45 C 639.57 525.11 642.52 527.95 646.01 528.73 C 648.37 532.40 651.67 535.28 655.31 537.67 C 659.72 540.49 663.20 544.45 667.17 547.82 C 668.52 549.14 670.41 549.51 672.18 549.97 C 672.58 550.80 672.98 551.65 673.40 552.49 C 674.25 551.68 675.11 550.88 675.98 550.08 C 676.20 551.85 676.20 553.65 676.62 555.39 C 679.05 558.02 682.34 559.65 684.88 562.17 C 686.79 563.87 688.30 566.10 690.59 567.33 C 692.35 566.96 693.99 566.06 695.83 565.95 C 695.01 567.13 694.16 568.30 693.32 569.46 C 695.40 571.87 698.02 573.72 700.52 575.69 C 700.95 574.49 700.91 572.97 701.95 572.10 C 702.61 574.88 702.09 578.46 704.84 580.23 C 709.83 583.43 714.60 586.98 718.62 591.37 C 731.80 601.75 744.67 612.54 757.24 623.66 C 758.86 625.12 761.26 624.10 763.24 624.51 C 764.05 626.90 764.53 629.67 766.72 631.27 C 768.69 633.50 771.79 633.26 774.45 633.86 C 773.26 634.24 772.09 634.62 770.92 635.01 C 783.67 644.48 795.09 655.55 807.35 665.63 C 812.34 669.49 817.14 673.58 822.02 677.55 C 823.20 676.95 824.42 676.41 825.67 675.94 C 825.89 678.21 824.66 681.39 827.26 682.70 C 834.10 686.83 839.01 693.71 846.47 696.82 C 847.56 697.88 847.05 699.82 847.97 701.03 C 850.17 702.77 853.13 702.63 855.80 702.68 C 855.44 703.29 855.10 703.91 854.77 704.54 C 855.82 705.83 857.03 708.07 859.03 707.13 C 860.39 706.64 861.46 707.85 862.57 708.47 C 861.77 708.93 860.98 709.41 860.20 709.90 C 861.92 711.58 864.03 712.81 866.53 712.24 C 866.28 712.57 865.76 713.25 865.50 713.59 C 867.55 716.82 870.54 719.22 873.60 721.45 C 877.45 725.05 881.84 727.99 886.00 731.23 L 886.00 846.22 C 881.14 842.73 877.04 838.36 872.33 834.70 C 868.53 831.44 864.25 828.78 860.65 825.28 C 857.27 822.30 854.08 819.09 850.54 816.32 C 849.96 815.65 849.07 816.08 848.38 816.12 C 847.43 814.00 846.11 812.06 844.07 810.88 C 835.49 804.95 828.45 797.11 819.90 791.15 C 813.26 785.11 806.28 779.49 799.53 773.58 C 796.54 771.20 794.01 768.26 790.65 766.39 C 787.24 764.50 785.57 760.58 781.96 758.96 C 779.72 757.98 778.56 755.81 777.02 754.08 C 772.67 751.15 768.10 748.40 764.45 744.58 C 761.21 741.10 756.94 738.81 753.73 735.30 C 751.85 733.12 748.39 732.20 747.98 728.99 C 747.20 728.65 746.43 728.31 745.68 727.99 C 745.30 726.76 744.92 725.54 744.57 724.33 C 744.22 725.07 743.88 725.82 743.55 726.57 C 737.92 722.95 733.38 717.93 727.96 714.03 C 721.28 708.44 714.74 702.68 707.97 697.20 C 705.65 695.39 704.51 692.43 701.83 691.05 C 700.45 690.29 699.69 688.88 698.59 687.85 C 695.00 687.19 692.93 683.98 690.16 681.95 C 688.62 680.92 687.75 679.31 686.69 677.86 C 685.29 677.01 683.67 676.55 682.35 675.58 C 676.44 670.46 670.41 665.50 664.30 660.65 C 661.05 657.03 656.44 654.75 653.95 650.48 C 652.20 648.91 649.20 649.23 647.80 647.12 C 644.70 643.18 640.02 640.99 636.67 637.30 C 632.90 634.41 629.88 630.37 625.27 628.79 C 622.57 623.82 616.73 622.00 613.36 617.63 C 612.45 616.24 611.01 615.44 609.58 614.72 C 609.47 613.91 609.38 613.10 609.30 612.30 C 607.87 612.09 606.46 611.89 605.05 611.68 C 603.47 608.45 599.99 606.99 597.53 604.57 C 592.58 599.81 586.85 595.99 582.01 591.12 C 575.50 585.94 569.26 580.41 562.57 575.46 C 559.97 573.39 557.69 570.96 555.35 568.61 C 553.02 566.18 549.77 564.95 547.38 562.60 C 543.87 559.12 539.80 556.27 536.36 552.73 C 534.40 550.59 531.49 549.67 529.59 547.49 C 528.08 545.98 526.79 543.50 524.29 543.98 C 523.23 541.81 521.72 539.91 519.47 538.93 C 515.47 536.99 513.04 533.13 509.68 530.39 C 503.62 525.45 497.37 520.74 491.72 515.32 C 485.93 511.32 481.10 506.17 475.48 501.96 C 469.94 495.88 462.29 492.31 456.70 486.29 C 449.80 480.20 442.58 474.47 435.76 468.30 C 431.26 465.81 428.75 460.95 424.02 458.80 C 416.70 451.79 407.77 446.59 400.68 439.28 C 397.87 436.37 394.09 434.61 391.50 431.49 C 388.91 428.33 385.12 426.56 382.42 423.52 C 380.18 420.88 376.15 420.63 374.48 417.41 C 370.05 413.86 366.25 409.57 361.47 406.45 C 355.02 400.70 348.41 395.13 341.54 389.89 C 341.85 389.03 342.18 388.18 342.50 387.34 C 337.13 386.28 332.73 382.79 329.07 378.85 C 320.74 372.71 312.98 365.79 305.46 358.67 C 303.88 357.68 301.94 357.37 300.50 356.17 C 295.24 350.53 289.12 345.80 283.06 341.09 C 279.45 338.33 277.01 334.23 272.92 332.09 C 267.70 329.19 264.40 323.96 259.61 320.50 C 252.92 315.95 247.20 310.15 240.92 305.09 C 237.99 303.26 235.49 300.86 233.59 297.96 C 233.17 298.01 232.76 298.06 232.35 298.12 C 227.81 292.57 220.88 289.58 216.15 284.22 C 214.44 281.44 211.14 280.41 208.85 278.23 C 205.17 274.81 200.62 272.49 197.34 268.62 C 193.70 266.32 190.68 263.31 187.78 260.16 C 183.58 257.58 180.37 253.58 175.75 251.68 C 175.96 250.78 176.96 249.84 176.31 248.95 C 175.11 248.92 173.80 249.14 172.87 248.15 C 166.28 243.14 160.46 237.19 154.13 231.88 C 153.50 231.98 152.86 232.07 152.24 232.18 C 151.54 230.51 150.99 228.61 149.23 227.74 C 144.94 225.32 141.94 220.85 136.95 219.73 C 136.91 218.99 137.47 217.98 136.57 217.53 C 134.92 216.05 133.18 214.66 131.61 213.08 C 131.81 212.49 132.01 211.91 132.22 211.33 C 125.94 210.14 121.24 205.40 116.80 201.15 C 115.44 199.96 115.34 198.06 114.88 196.44 C 114.29 196.88 113.70 197.32 113.12 197.77 C 112.11 196.13 110.56 195.04 108.77 194.40 C 106.79 193.79 106.47 191.30 104.67 190.46 C 99.33 188.45 96.44 183.22 91.99 179.95 C 88.97 176.65 84.64 175.11 81.45 172.04 C 82.03 170.89 82.62 169.75 83.23 168.61 C 81.90 169.23 80.34 169.93 79.05 168.82 C 73.95 165.43 69.18 161.50 64.82 157.20 C 62.77 155.10 58.87 154.90 58.10 151.68 C 55.59 150.76 54.15 148.35 52.01 146.88 C 46.62 143.04 42.18 138.05 36.96 134.00 C 28.09 126.55 19.00 119.41 10.53 111.52 C 8.64 110.21 6.72 108.88 5.50 106.87 C 4.96 107.15 4.41 107.43 3.87 107.71 C 3.01 105.71 1.58 104.07 0.00 102.60 L 0.00 0.00 Z" />
</g>
<g id="#809039ff">
<path fill="#809039" opacity="1.00" d=" M 14.54 0.00 L 153.67 0.00 C 155.13 3.70 159.28 5.40 160.36 9.24 C 161.74 8.66 163.17 8.20 164.64 7.87 C 164.24 9.11 163.84 10.35 163.43 11.58 C 164.49 11.58 165.56 11.58 166.63 11.58 C 167.73 12.76 168.78 14.00 169.99 15.07 C 171.08 15.52 172.26 14.88 173.38 14.76 C 173.14 15.67 172.90 16.58 172.66 17.49 C 176.31 19.57 178.79 22.90 180.59 26.62 C 180.80 26.08 181.23 25.00 181.44 24.46 C 183.66 26.80 186.27 28.73 189.12 30.25 C 189.05 30.70 188.98 31.15 188.91 31.61 C 192.45 33.45 195.13 36.51 198.67 38.33 C 201.20 42.13 205.06 44.56 208.48 47.47 C 215.38 54.12 223.56 59.23 230.82 65.45 C 232.61 66.89 234.89 67.84 235.97 69.99 C 237.62 73.08 241.36 73.94 243.66 76.41 C 246.69 79.71 250.12 82.62 253.51 85.55 C 255.05 87.00 257.15 87.48 259.13 88.01 C 260.85 93.87 267.24 95.78 271.12 99.89 C 275.88 104.86 282.35 107.82 286.66 113.25 C 288.14 115.28 290.76 115.79 292.48 117.54 C 296.41 121.58 300.83 125.12 304.99 128.93 C 311.39 133.48 317.65 138.24 323.40 143.58 C 328.75 150.39 336.82 154.19 342.99 160.13 C 345.50 162.11 347.89 164.69 351.27 164.96 C 349.11 168.42 354.25 168.63 355.90 170.52 C 359.83 175.23 365.21 178.33 369.71 182.42 C 371.09 183.71 373.05 183.86 374.79 184.39 C 373.77 184.95 372.76 185.52 371.76 186.09 C 375.81 187.84 379.31 190.57 383.08 192.83 C 386.13 197.47 390.97 200.39 395.28 203.72 C 397.86 206.12 400.44 208.55 403.50 210.34 C 403.74 211.75 403.98 213.16 404.23 214.57 C 405.28 213.79 406.33 213.01 407.39 212.23 C 407.25 215.87 410.84 217.69 413.32 219.64 C 419.70 223.40 424.21 229.50 430.30 233.66 C 434.21 236.22 436.85 240.46 441.33 242.17 C 444.48 245.15 447.74 248.05 450.76 251.18 C 453.21 253.88 456.97 254.91 459.22 257.83 C 461.19 260.22 464.42 260.99 466.47 263.31 C 468.17 265.32 470.93 265.72 473.21 266.79 C 473.93 268.38 474.54 270.03 475.46 271.53 C 478.93 274.18 482.92 276.82 484.30 281.23 C 485.14 281.04 486.10 280.35 486.90 281.08 C 490.35 283.22 492.67 286.70 496.01 288.99 C 497.88 290.45 500.23 291.29 501.88 293.06 C 505.88 297.78 511.23 301.05 515.74 305.24 C 518.16 307.25 520.45 309.67 523.61 310.46 C 524.15 309.49 524.70 308.52 525.25 307.56 C 546.98 334.56 568.77 361.51 590.49 388.52 C 591.49 389.87 593.27 390.36 594.25 391.76 C 617.42 420.57 640.67 449.32 663.85 478.12 C 657.42 461.44 650.90 444.80 644.45 428.13 C 649.55 430.26 653.84 433.85 657.43 437.99 C 662.25 440.53 665.40 445.19 670.17 447.81 C 672.77 449.31 674.43 451.86 676.34 454.10 C 676.85 454.00 677.37 453.92 677.90 453.84 C 679.92 456.24 682.54 458.03 684.50 460.54 C 690.31 464.63 694.69 470.46 700.96 473.93 C 706.24 478.46 711.35 483.44 717.68 486.53 C 720.35 487.58 720.30 491.00 722.05 492.93 C 723.33 493.78 725.31 493.15 726.25 494.60 C 728.93 497.73 732.94 499.78 734.00 504.07 C 738.12 504.42 740.71 507.91 743.73 510.30 C 746.75 513.36 750.76 515.14 753.83 518.14 C 758.03 522.32 762.93 525.75 766.77 530.29 C 767.55 531.50 769.28 530.65 770.20 531.64 C 771.38 532.82 772.22 534.32 773.49 535.43 C 778.87 538.12 782.86 542.79 787.34 546.68 C 792.69 550.23 797.06 554.95 802.11 558.88 C 804.46 561.69 807.98 562.93 810.62 565.40 C 811.93 566.72 813.88 566.83 815.60 567.28 C 814.81 567.78 814.04 568.29 813.28 568.80 C 815.19 570.05 817.34 571.09 818.75 572.98 C 820.84 576.09 824.89 576.88 827.20 579.79 C 829.69 583.02 833.55 584.65 836.39 587.51 C 839.83 590.04 842.41 593.53 846.03 595.83 C 851.96 599.85 856.42 605.68 862.57 609.40 C 864.82 610.73 866.25 612.97 868.11 614.76 C 870.12 616.44 873.11 616.83 874.60 619.17 C 877.43 623.31 881.83 625.94 886.00 628.55 L 886.00 731.23 C 881.84 727.99 877.45 725.05 873.60 721.45 C 870.54 719.22 867.55 716.82 865.50 713.59 C 865.76 713.25 866.28 712.57 866.53 712.24 C 864.03 712.81 861.92 711.58 860.20 709.90 C 860.98 709.41 861.77 708.93 862.57 708.47 C 861.46 707.85 860.39 706.64 859.03 707.13 C 857.03 708.07 855.82 705.83 854.77 704.54 C 855.10 703.91 855.44 703.29 855.80 702.68 C 853.13 702.63 850.17 702.77 847.97 701.03 C 847.05 699.82 847.56 697.88 846.47 696.82 C 839.01 693.71 834.10 686.83 827.26 682.70 C 824.66 681.39 825.89 678.21 825.67 675.94 C 824.42 676.41 823.20 676.95 822.02 677.55 C 817.14 673.58 812.34 669.49 807.35 665.63 C 795.09 655.55 783.67 644.48 770.92 635.01 C 772.09 634.62 773.26 634.24 774.45 633.86 C 771.79 633.26 768.69 633.50 766.72 631.27 C 764.53 629.67 764.05 626.90 763.24 624.51 C 761.26 624.10 758.86 625.12 757.24 623.66 C 744.67 612.54 731.80 601.75 718.62 591.37 C 714.60 586.98 709.83 583.43 704.84 580.23 C 702.09 578.46 702.61 574.88 701.95 572.10 C 700.91 572.97 700.95 574.49 700.52 575.69 C 698.02 573.72 695.40 571.87 693.32 569.46 C 694.16 568.30 695.01 567.13 695.83 565.95 C 693.99 566.06 692.35 566.96 690.59 567.33 C 688.30 566.10 686.79 563.87 684.88 562.17 C 682.34 559.65 679.05 558.02 676.62 555.39 C 676.20 553.65 676.20 551.85 675.98 550.08 C 675.11 550.88 674.25 551.68 673.40 552.49 C 672.98 551.65 672.58 550.80 672.18 549.97 C 670.41 549.51 668.52 549.14 667.17 547.82 C 663.20 544.45 659.72 540.49 655.31 537.67 C 651.67 535.28 648.37 532.40 646.01 528.73 C 642.52 527.95 639.57 525.11 639.27 521.45 C 637.80 521.34 636.35 521.23 634.89 521.13 C 634.89 520.25 635.43 519.10 634.38 518.57 C 628.70 515.48 623.68 511.36 618.68 507.30 C 616.51 505.69 615.43 503.23 615.19 500.60 C 613.70 500.87 611.96 501.82 610.74 500.41 C 603.01 494.56 595.60 488.24 588.89 481.25 C 587.62 480.27 585.93 480.01 584.68 479.01 C 578.63 472.82 571.17 468.20 565.18 461.96 C 565.35 459.85 566.48 457.50 565.06 455.59 C 564.01 456.92 563.04 458.31 562.11 459.72 C 557.74 455.07 551.85 452.18 547.82 447.20 C 546.07 444.75 543.00 444.07 540.82 442.15 C 533.38 436.32 526.61 429.71 519.21 423.82 C 512.98 417.60 505.47 412.91 498.99 406.99 C 495.10 404.25 492.30 400.24 488.09 397.91 C 484.04 394.38 479.58 391.20 476.22 386.98 C 473.48 382.80 466.50 382.30 466.13 376.45 C 464.34 376.33 462.41 376.32 461.05 374.97 C 457.25 371.82 452.72 368.91 451.12 363.97 C 450.76 364.57 450.39 365.18 450.04 365.79 C 444.52 361.71 440.14 356.32 434.55 352.35 C 433.14 351.49 433.60 349.65 433.36 348.28 C 430.98 350.61 428.62 347.79 426.81 346.23 C 423.50 343.05 419.82 340.33 416.34 337.35 C 416.95 337.14 418.17 336.73 418.77 336.52 C 418.06 335.93 417.35 335.35 416.65 334.78 C 416.04 335.03 415.43 335.28 414.84 335.55 C 414.27 334.70 413.93 333.57 412.89 333.19 C 403.81 329.09 397.92 320.61 389.71 315.23 C 384.58 310.14 378.12 306.61 373.38 301.09 C 373.56 299.46 373.76 297.83 373.98 296.21 C 372.85 296.99 371.71 297.76 370.58 298.53 C 368.52 296.79 366.46 295.04 364.35 293.36 C 364.97 293.13 366.20 292.68 366.82 292.46 C 363.16 291.33 359.09 290.62 356.40 287.63 C 353.01 284.17 348.60 281.84 345.60 278.00 C 345.83 277.41 346.06 276.81 346.31 276.22 C 345.40 276.22 344.50 276.22 343.60 276.22 C 340.54 273.34 337.14 270.86 333.88 268.22 C 327.24 263.97 322.73 257.14 315.77 253.34 C 315.47 251.67 316.30 249.40 314.67 248.29 C 313.55 247.29 312.09 248.11 310.80 248.05 C 304.00 244.58 299.55 238.00 292.97 234.23 C 289.81 232.03 287.85 228.50 284.59 226.41 C 279.55 223.28 275.24 219.14 270.92 215.11 C 267.97 211.09 262.72 209.77 260.00 205.54 C 250.63 199.63 243.34 191.00 234.08 184.91 C 232.75 184.42 232.63 183.07 232.46 181.87 C 229.69 181.24 227.71 179.17 225.77 177.26 C 221.88 173.39 216.69 171.09 213.09 166.90 C 211.71 165.16 209.70 164.25 207.67 163.54 C 207.69 162.63 207.72 161.73 207.75 160.83 C 203.16 160.49 201.01 155.82 197.49 153.50 C 192.05 149.64 187.27 144.96 181.88 141.04 C 176.58 136.69 172.26 131.20 166.40 127.56 C 162.27 122.97 156.34 120.41 152.68 115.37 C 151.99 114.20 150.76 113.67 149.53 113.26 C 149.43 112.70 149.32 112.14 149.22 111.57 C 145.21 111.10 142.97 107.23 139.80 105.16 C 131.43 98.96 124.03 91.60 115.94 85.10 C 109.23 81.35 104.55 75.14 98.41 70.68 C 98.50 69.62 98.60 68.57 98.70 67.53 C 97.68 67.81 96.69 68.45 95.61 68.37 C 93.32 66.85 91.24 65.05 88.94 63.55 C 88.97 63.07 88.99 62.59 89.02 62.11 C 85.51 59.54 81.73 57.28 79.05 53.77 C 71.82 50.48 67.34 43.61 61.05 39.01 C 56.99 36.09 53.20 32.84 49.21 29.83 C 47.44 28.63 46.59 26.62 45.57 24.82 C 45.29 24.89 44.72 25.03 44.43 25.10 C 38.07 20.07 31.86 14.86 25.62 9.68 C 25.83 9.33 26.23 8.63 26.44 8.27 C 21.43 7.44 18.64 2.59 14.54 0.00 Z" />
</g>
<g id="#87973aff">
<path fill="#87973a" opacity="1.00" d=" M 153.67 0.00 L 277.42 0.00 C 359.88 102.64 442.68 205.01 525.25 307.56 C 524.70 308.52 524.15 309.49 523.61 310.46 C 520.45 309.67 518.16 307.25 515.74 305.24 C 511.23 301.05 505.88 297.78 501.88 293.06 C 500.23 291.29 497.88 290.45 496.01 288.99 C 492.67 286.70 490.35 283.22 486.90 281.08 C 486.10 280.35 485.14 281.04 484.30 281.23 C 482.92 276.82 478.93 274.18 475.46 271.53 C 474.54 270.03 473.93 268.38 473.21 266.79 C 470.93 265.72 468.17 265.32 466.47 263.31 C 464.42 260.99 461.19 260.22 459.22 257.83 C 456.97 254.91 453.21 253.88 450.76 251.18 C 447.74 248.05 444.48 245.15 441.33 242.17 C 436.85 240.46 434.21 236.22 430.30 233.66 C 424.21 229.50 419.70 223.40 413.32 219.64 C 410.84 217.69 407.25 215.87 407.39 212.23 C 406.33 213.01 405.28 213.79 404.23 214.57 C 403.98 213.16 403.74 211.75 403.50 210.34 C 400.44 208.55 397.86 206.12 395.28 203.72 C 390.97 200.39 386.13 197.47 383.08 192.83 C 379.31 190.57 375.81 187.84 371.76 186.09 C 372.76 185.52 373.77 184.95 374.79 184.39 C 373.05 183.86 371.09 183.71 369.71 182.42 C 365.21 178.33 359.83 175.23 355.90 170.52 C 354.25 168.63 349.11 168.42 351.27 164.96 C 347.89 164.69 345.50 162.11 342.99 160.13 C 336.82 154.19 328.75 150.39 323.40 143.58 C 317.65 138.24 311.39 133.48 304.99 128.93 C 300.83 125.12 296.41 121.58 292.48 117.54 C 290.76 115.79 288.14 115.28 286.66 113.25 C 282.35 107.82 275.88 104.86 271.12 99.89 C 267.24 95.78 260.85 93.87 259.13 88.01 C 257.15 87.48 255.05 87.00 253.51 85.55 C 250.12 82.62 246.69 79.71 243.66 76.41 C 241.36 73.94 237.62 73.08 235.97 69.99 C 234.89 67.84 232.61 66.89 230.82 65.45 C 223.56 59.23 215.38 54.12 208.48 47.47 C 205.06 44.56 201.20 42.13 198.67 38.33 C 195.13 36.51 192.45 33.45 188.91 31.61 C 188.98 31.15 189.05 30.70 189.12 30.25 C 186.27 28.73 183.66 26.80 181.44 24.46 C 181.23 25.00 180.80 26.08 180.59 26.62 C 178.79 22.90 176.31 19.57 172.66 17.49 C 172.90 16.58 173.14 15.67 173.38 14.76 C 172.26 14.88 171.08 15.52 169.99 15.07 C 168.78 14.00 167.73 12.76 166.63 11.58 C 165.56 11.58 164.49 11.58 163.43 11.58 C 163.84 10.35 164.24 9.11 164.64 7.87 C 163.17 8.20 161.74 8.66 160.36 9.24 C 159.28 5.40 155.13 3.70 153.67 0.00 Z" />
</g>
<g id="#ffffffff">
<path fill="#ffffff" opacity="1.00" d=" M 448.41 959.41 C 460.19 953.05 474.04 954.08 486.97 954.00 C 497.55 953.96 509.04 953.80 518.29 959.75 C 525.86 964.65 529.22 973.64 530.93 982.11 C 522.09 982.90 513.23 983.61 504.37 984.23 C 504.10 980.98 501.95 977.88 498.52 977.55 C 491.38 976.87 484.18 977.42 477.01 977.23 C 473.39 977.33 469.21 976.77 466.23 979.29 C 463.43 982.15 463.87 986.56 464.18 990.22 C 464.51 993.62 467.73 995.99 471.02 996.05 C 483.97 996.44 496.97 995.57 509.88 996.78 C 516.97 997.38 524.57 1000.32 528.17 1006.85 C 532.53 1014.47 530.95 1023.57 531.22 1031.94 C 531.44 1039.77 528.22 1047.97 521.46 1052.32 C 511.02 1059.09 498.01 1058.97 486.02 1058.87 C 474.08 1058.74 461.14 1059.96 450.41 1053.65 C 441.88 1048.66 438.31 1038.62 437.01 1029.33 C 445.90 1028.93 454.79 1028.61 463.67 1028.18 C 464.04 1030.87 465.15 1033.90 468.04 1034.76 C 472.58 1036.08 477.41 1035.27 482.07 1035.50 C 487.71 1035.27 493.44 1036.03 499.00 1034.95 C 504.71 1033.42 504.68 1026.22 503.69 1021.56 C 503.03 1018.42 499.93 1016.62 496.91 1016.54 C 483.94 1016.26 470.92 1016.97 457.98 1015.82 C 451.02 1015.18 443.60 1012.30 439.98 1005.97 C 435.30 998.11 437.32 988.66 436.87 980.00 C 436.57 971.68 440.94 963.29 448.41 959.41 Z" />
<path fill="#ffffff" opacity="1.00" d=" M 139.41 954.89 C 149.54 954.98 159.69 954.68 169.81 955.04 C 177.98 977.14 186.45 999.12 194.51 1021.25 C 203.43 999.32 210.98 976.76 219.91 954.86 C 229.85 954.93 239.79 954.83 249.74 954.91 C 234.92 989.64 219.90 1024.29 204.96 1058.98 C 198.03 1059.01 191.10 1059.01 184.16 1058.98 C 169.20 1024.30 154.29 989.60 139.41 954.89 Z" />
<path fill="#ffffff" opacity="1.00" d=" M 268.54 954.90 C 278.27 954.88 288.00 954.84 297.73 954.93 C 297.74 989.49 297.76 1024.05 297.71 1058.61 C 287.97 1058.53 278.21 1058.80 268.47 1058.47 C 268.58 1023.95 268.43 989.43 268.54 954.90 Z" />
<path fill="#ffffff" opacity="1.00" d=" M 315.88 1058.98 C 330.91 1024.30 345.62 989.45 360.87 954.88 C 367.80 955.08 374.79 954.51 381.69 955.16 C 396.43 989.82 411.45 1024.35 426.28 1058.98 C 416.25 1059.01 406.21 1059.02 396.19 1058.97 C 394.67 1055.08 393.29 1051.14 391.76 1047.26 C 378.03 1047.27 364.30 1047.15 350.57 1047.32 C 349.11 1051.21 347.76 1055.16 346.14 1059.00 C 336.05 1058.98 325.97 1059.02 315.88 1058.98 M 370.25 995.02 C 366.20 1005.99 362.03 1016.91 357.97 1027.88 C 366.80 1027.89 375.63 1027.88 384.46 1027.87 C 380.17 1016.21 375.66 1004.62 371.41 992.94 C 370.89 993.55 370.50 994.24 370.25 995.02 Z" />
<path fill="#ffffff" opacity="1.00" d=" M 585.20 955.04 C 592.13 954.70 599.08 954.95 606.02 954.91 C 621.04 989.56 635.89 1024.30 650.85 1058.98 C 640.85 1059.02 630.86 1058.98 620.87 1059.00 C 619.24 1055.18 617.88 1051.25 616.43 1047.36 C 602.69 1047.10 588.93 1047.29 575.18 1047.27 C 573.70 1051.15 572.26 1055.06 570.81 1058.96 C 560.71 1059.04 550.60 1058.99 540.50 1058.99 C 555.34 1024.31 570.37 989.72 585.20 955.04 M 595.53 992.84 C 591.40 1004.58 586.69 1016.12 582.63 1027.88 C 591.43 1027.87 600.23 1027.89 609.03 1027.88 C 604.45 1016.24 600.70 1004.18 595.53 992.84 Z" />
<path fill="#ffffff" opacity="1.00" d=" M 642.67 954.90 C 677.32 954.97 712.00 954.67 746.64 955.05 C 746.58 963.27 746.64 971.50 746.61 979.72 C 734.11 979.77 721.62 979.69 709.13 979.76 C 708.96 1006.05 709.39 1032.37 708.92 1058.64 C 699.30 1058.59 689.68 1058.61 680.05 1058.64 C 679.91 1032.34 680.06 1006.05 679.98 979.76 C 667.64 979.73 655.29 979.70 642.94 979.78 C 642.26 971.57 642.79 963.18 642.67 954.90 Z" />
</g>
<g id="#a4b439ff">
<path fill="#a4b439" opacity="1.00" d=" M 592.22 0.00 L 631.81 0.00 C 632.08 1.05 632.34 2.10 632.60 3.15 C 638.07 6.52 642.68 11.15 646.96 15.89 C 644.65 16.09 642.48 15.23 640.21 15.08 C 639.97 14.13 639.74 13.18 639.53 12.24 C 637.95 12.34 636.39 12.46 634.84 12.59 C 634.53 11.58 634.22 10.57 633.92 9.57 C 633.25 10.77 632.43 12.25 633.28 13.60 C 635.68 15.50 638.24 17.28 641.01 18.63 C 643.73 18.76 646.05 16.19 648.85 17.09 C 650.59 17.35 651.98 18.47 652.96 19.88 C 651.47 20.60 650.09 21.67 650.44 23.52 C 652.28 23.82 654.16 23.76 656.02 23.64 C 655.94 24.90 655.86 26.16 655.78 27.42 C 654.62 27.75 653.47 28.08 652.32 28.41 C 653.25 29.84 654.11 31.50 655.80 32.15 C 658.57 33.12 659.12 36.55 661.67 37.88 C 662.31 37.44 662.96 37.00 663.62 36.57 C 663.92 37.47 664.23 38.37 664.56 39.27 C 665.39 39.67 666.21 40.13 667.00 40.64 C 670.28 46.10 676.02 49.43 681.13 53.03 C 683.79 51.79 683.92 48.77 684.48 46.26 C 686.12 47.31 687.83 48.36 689.03 49.95 C 688.34 52.19 685.42 51.86 683.64 52.73 C 683.38 53.62 683.13 54.50 682.89 55.39 C 684.43 55.23 685.98 55.11 687.54 55.27 C 687.61 56.64 687.71 58.01 687.82 59.38 C 689.05 59.86 690.29 60.36 691.54 60.85 C 691.79 61.66 692.05 62.46 692.32 63.27 C 692.72 63.11 693.13 62.95 693.55 62.80 C 693.83 63.15 694.39 63.85 694.66 64.20 C 696.00 64.21 697.35 64.23 698.71 64.25 C 700.12 65.64 701.72 66.82 703.48 67.76 C 703.70 68.21 704.13 69.11 704.35 69.56 C 702.35 68.57 700.08 67.13 697.94 68.60 C 699.95 70.48 702.49 71.53 705.12 72.24 C 704.22 74.47 706.75 75.62 708.28 76.59 C 711.11 78.11 713.30 80.48 715.61 82.66 C 715.85 81.56 716.10 80.46 716.36 79.36 C 717.51 79.65 718.66 79.95 719.83 80.25 C 720.05 82.40 719.21 84.79 719.96 86.81 C 722.69 87.74 724.81 92.14 727.96 90.38 C 727.45 89.58 726.96 88.78 726.48 87.98 C 728.21 87.62 729.97 87.43 731.75 87.45 C 731.72 88.81 731.71 90.18 731.71 91.54 C 732.25 91.88 733.31 92.56 733.85 92.91 C 731.55 92.73 729.27 92.46 726.99 92.16 C 729.06 94.61 731.45 96.80 734.28 98.34 C 735.63 97.44 736.96 96.50 738.27 95.53 C 737.88 94.87 737.50 94.22 737.13 93.57 C 738.00 93.08 738.88 92.60 739.77 92.11 C 739.90 94.52 740.06 96.93 740.34 99.33 C 741.61 99.90 742.90 100.48 744.20 101.05 C 744.24 102.79 743.83 104.42 742.07 105.11 C 743.04 107.21 745.12 108.65 747.48 107.86 C 747.86 106.58 748.27 105.31 748.71 104.04 C 749.15 106.84 747.48 110.74 750.94 112.07 C 751.70 110.76 750.89 109.39 750.54 108.10 C 753.61 107.26 756.84 107.29 759.84 108.42 C 759.85 109.46 759.88 110.50 759.91 111.55 C 757.53 112.16 753.21 111.85 754.07 115.51 C 757.47 116.50 761.52 114.02 764.28 116.95 C 762.93 117.51 761.58 118.06 760.25 118.61 C 760.22 119.11 760.15 120.11 760.12 120.61 C 762.52 120.33 764.92 120.05 767.35 120.19 C 767.76 121.24 768.17 122.29 768.60 123.34 C 769.64 123.79 770.70 124.23 771.77 124.66 C 771.85 126.18 771.19 127.58 770.98 129.06 C 771.41 130.82 773.22 131.55 774.63 132.41 C 778.50 134.43 781.24 137.95 784.49 140.77 C 784.94 139.01 785.42 137.26 785.95 135.51 C 787.50 137.95 787.39 140.86 787.90 143.58 C 789.67 146.11 792.86 146.92 795.21 148.75 C 796.26 150.51 797.06 152.53 799.15 153.31 C 799.68 151.58 800.11 149.83 800.50 148.07 C 801.61 148.09 802.74 148.11 803.88 148.16 C 804.40 150.07 803.18 151.67 802.27 153.22 C 802.85 153.45 803.45 153.69 804.06 153.94 C 805.24 157.06 807.24 160.10 810.26 161.69 C 812.45 162.94 813.56 165.38 815.13 167.27 C 815.35 166.17 815.57 165.07 815.81 163.98 C 818.31 163.86 820.54 165.03 822.59 166.36 C 820.95 167.17 819.34 168.02 817.77 168.93 C 820.27 171.82 824.31 172.71 826.64 175.81 C 825.82 172.65 827.50 168.22 831.11 168.03 C 831.92 170.18 831.93 172.72 833.43 174.57 C 834.57 176.55 836.92 174.00 838.36 175.43 C 839.19 176.54 839.74 177.83 840.39 179.07 C 841.43 178.76 842.69 178.47 843.32 179.71 C 844.06 181.86 844.01 184.21 844.37 186.45 C 845.58 186.92 846.80 187.39 848.03 187.84 C 845.74 188.02 843.46 188.23 841.18 188.53 C 845.34 192.51 850.02 196.19 855.28 198.58 C 855.54 201.66 858.68 202.60 860.78 204.23 C 864.16 206.50 866.00 210.66 870.01 212.05 C 871.44 212.44 871.71 214.04 872.40 215.15 C 875.49 216.18 878.12 218.12 880.81 219.91 C 881.55 219.02 882.32 218.13 883.09 217.24 C 884.06 217.93 885.03 218.62 886.00 219.35 L 886.00 297.15 C 880.14 293.02 875.15 287.84 869.31 283.69 C 863.01 277.27 855.62 272.08 848.99 266.02 C 843.48 261.16 837.23 257.17 832.18 251.77 C 827.09 248.33 822.91 243.80 817.97 240.16 C 811.63 235.18 805.63 229.78 799.57 224.47 C 782.85 211.27 767.08 196.95 750.56 183.52 C 747.00 181.16 743.86 178.28 740.86 175.26 C 727.65 164.09 714.07 153.34 701.17 141.80 C 695.48 137.16 689.40 132.99 684.16 127.83 C 663.71 110.65 643.14 93.57 622.78 76.30 C 612.51 68.20 603.43 58.42 592.24 51.57 C 592.19 34.38 592.24 17.19 592.22 0.00 Z" />
</g>
<g id="#aabb38ff">
<path fill="#aabb38" opacity="1.00" d=" M 631.81 0.00 L 731.52 0.00 C 732.13 0.89 732.73 1.78 733.33 2.69 C 736.30 2.44 739.69 1.49 741.75 4.37 C 741.01 5.55 740.27 6.72 739.53 7.88 C 742.04 7.89 744.07 8.84 744.77 11.41 C 747.80 12.40 748.34 16.09 751.43 16.92 C 751.82 17.89 752.22 18.86 752.61 19.83 C 753.81 19.92 755.02 19.97 756.24 20.01 C 756.35 19.02 756.46 18.02 756.59 17.03 C 758.34 17.13 759.28 18.73 760.28 19.96 C 761.70 21.91 763.85 23.09 765.81 24.42 C 765.26 24.65 764.14 25.13 763.59 25.36 C 764.12 25.93 764.65 26.50 765.21 27.07 C 765.07 27.73 764.95 28.38 764.84 29.03 C 766.86 31.24 770.58 31.13 771.96 33.98 C 773.25 36.18 776.39 36.56 776.91 39.38 C 780.00 40.30 781.54 43.29 784.16 44.92 C 786.93 46.75 789.36 48.99 791.55 51.48 C 793.72 52.17 796.06 52.66 796.76 55.19 C 798.99 56.16 800.30 58.08 801.16 60.29 C 802.92 59.49 803.22 57.41 804.06 55.85 C 804.94 56.56 805.83 57.31 806.50 58.26 C 805.59 59.52 804.71 60.79 803.84 62.07 C 805.36 64.03 808.01 64.52 809.76 66.24 C 813.74 70.17 817.77 74.31 822.82 76.88 C 823.31 75.76 823.81 74.65 824.32 73.54 C 825.51 75.36 827.42 76.41 829.33 77.35 C 828.51 79.40 827.60 81.52 828.15 83.77 C 829.25 83.69 830.38 83.59 831.50 83.47 C 831.80 82.49 832.12 81.52 832.44 80.54 C 835.46 81.96 838.88 83.08 841.10 85.71 C 842.02 87.96 839.95 89.42 838.83 91.01 C 841.94 91.05 842.72 94.48 845.26 95.57 C 847.79 96.48 848.22 99.56 850.72 100.55 C 853.91 103.92 857.04 107.81 861.62 109.34 C 864.47 110.25 866.19 112.75 867.87 115.06 C 867.65 113.45 867.46 111.84 867.29 110.23 C 868.66 110.48 870.44 110.30 871.24 111.73 C 872.51 114.11 872.20 116.92 872.45 119.52 C 873.72 120.15 875.33 120.51 875.97 121.95 C 876.81 123.78 879.03 124.26 880.00 126.00 C 881.31 128.22 883.95 128.92 886.00 130.26 L 886.00 219.35 C 885.03 218.62 884.06 217.93 883.09 217.24 C 882.32 218.13 881.55 219.02 880.81 219.91 C 878.12 218.12 875.49 216.18 872.40 215.15 C 871.71 214.04 871.44 212.44 870.01 212.05 C 866.00 210.66 864.16 206.50 860.78 204.23 C 858.68 202.60 855.54 201.66 855.28 198.58 C 850.02 196.19 845.34 192.51 841.18 188.53 C 843.46 188.23 845.74 188.02 848.03 187.84 C 846.80 187.39 845.58 186.92 844.37 186.45 C 844.01 184.21 844.06 181.86 843.32 179.71 C 842.69 178.47 841.43 178.76 840.39 179.07 C 839.74 177.83 839.19 176.54 838.36 175.43 C 836.92 174.00 834.57 176.55 833.43 174.57 C 831.93 172.72 831.92 170.18 831.11 168.03 C 827.50 168.22 825.82 172.65 826.64 175.81 C 824.31 172.71 820.27 171.82 817.77 168.93 C 819.34 168.02 820.95 167.17 822.59 166.36 C 820.54 165.03 818.31 163.86 815.81 163.98 C 815.57 165.07 815.35 166.17 815.13 167.27 C 813.56 165.38 812.45 162.94 810.26 161.69 C 807.24 160.10 805.24 157.06 804.06 153.94 C 803.45 153.69 802.85 153.45 802.27 153.22 C 803.18 151.67 804.40 150.07 803.88 148.16 C 802.74 148.11 801.61 148.09 800.50 148.07 C 800.11 149.83 799.68 151.58 799.15 153.31 C 797.06 152.53 796.26 150.51 795.21 148.75 C 792.86 146.92 789.67 146.11 787.90 143.58 C 787.39 140.86 787.50 137.95 785.95 135.51 C 785.42 137.26 784.94 139.01 784.49 140.77 C 781.24 137.95 778.50 134.43 774.63 132.41 C 773.22 131.55 771.41 130.82 770.98 129.06 C 771.19 127.58 771.85 126.18 771.77 124.66 C 770.70 124.23 769.64 123.79 768.60 123.34 C 768.17 122.29 767.76 121.24 767.35 120.19 C 764.92 120.05 762.52 120.33 760.12 120.61 C 760.15 120.11 760.22 119.11 760.25 118.61 C 761.58 118.06 762.93 117.51 764.28 116.95 C 761.52 114.02 757.47 116.50 754.07 115.51 C 753.21 111.85 757.53 112.16 759.91 111.55 C 759.88 110.50 759.85 109.46 759.84 108.42 C 756.84 107.29 753.61 107.26 750.54 108.10 C 750.89 109.39 751.70 110.76 750.94 112.07 C 747.48 110.74 749.15 106.84 748.71 104.04 C 748.27 105.31 747.86 106.58 747.48 107.86 C 745.12 108.65 743.04 107.21 742.07 105.11 C 743.83 104.42 744.24 102.79 744.20 101.05 C 742.90 100.48 741.61 99.90 740.34 99.33 C 740.06 96.93 739.90 94.52 739.77 92.11 C 738.88 92.60 738.00 93.08 737.13 93.57 C 737.50 94.22 737.88 94.87 738.27 95.53 C 736.96 96.50 735.63 97.44 734.28 98.34 C 731.45 96.80 729.06 94.61 726.99 92.16 C 729.27 92.46 731.55 92.73 733.85 92.91 C 733.31 92.56 732.25 91.88 731.71 91.54 C 731.71 90.18 731.72 88.81 731.75 87.45 C 729.97 87.43 728.21 87.62 726.48 87.98 C 726.96 88.78 727.45 89.58 727.96 90.38 C 724.81 92.14 722.69 87.74 719.96 86.81 C 719.21 84.79 720.05 82.40 719.83 80.25 C 718.66 79.95 717.51 79.65 716.36 79.36 C 716.10 80.46 715.85 81.56 715.61 82.66 C 713.30 80.48 711.11 78.11 708.28 76.59 C 706.75 75.62 704.22 74.47 705.12 72.24 C 702.49 71.53 699.95 70.48 697.94 68.60 C 700.08 67.13 702.35 68.57 704.35 69.56 C 704.13 69.11 703.70 68.21 703.48 67.76 C 701.72 66.82 700.12 65.64 698.71 64.25 C 697.35 64.23 696.00 64.21 694.66 64.20 C 694.39 63.85 693.83 63.15 693.55 62.80 C 693.13 62.95 692.72 63.11 692.32 63.27 C 692.05 62.46 691.79 61.66 691.54 60.85 C 690.29 60.36 689.05 59.86 687.82 59.38 C 687.71 58.01 687.61 56.64 687.54 55.27 C 685.98 55.11 684.43 55.23 682.89 55.39 C 683.13 54.50 683.38 53.62 683.64 52.73 C 685.42 51.86 688.34 52.19 689.03 49.95 C 687.83 48.36 686.12 47.31 684.48 46.26 C 683.92 48.77 683.79 51.79 681.13 53.03 C 676.02 49.43 670.28 46.10 667.00 40.64 C 666.21 40.13 665.39 39.67 664.56 39.27 C 664.23 38.37 663.92 37.47 663.62 36.57 C 662.96 37.00 662.31 37.44 661.67 37.88 C 659.12 36.55 658.57 33.12 655.80 32.15 C 654.11 31.50 653.25 29.84 652.32 28.41 C 653.47 28.08 654.62 27.75 655.78 27.42 C 655.86 26.16 655.94 24.90 656.02 23.64 C 654.16 23.76 652.28 23.82 650.44 23.52 C 650.09 21.67 651.47 20.60 652.96 19.88 C 651.98 18.47 650.59 17.35 648.85 17.09 C 646.05 16.19 643.73 18.76 641.01 18.63 C 638.24 17.28 635.68 15.50 633.28 13.60 C 632.43 12.25 633.25 10.77 633.92 9.57 C 634.22 10.57 634.53 11.58 634.84 12.59 C 636.39 12.46 637.95 12.34 639.53 12.24 C 639.74 13.18 639.97 14.13 640.21 15.08 C 642.48 15.23 644.65 16.09 646.96 15.89 C 642.68 11.15 638.07 6.52 632.60 3.15 C 632.34 2.10 632.08 1.05 631.81 0.00 Z" />
</g>
<g id="#b1c236ff">
<path fill="#b1c236" opacity="1.00" d=" M 731.52 0.00 L 826.48 0.00 C 829.38 2.28 832.90 3.78 835.35 6.62 C 837.60 9.25 840.98 10.37 843.70 12.38 C 846.35 15.18 848.94 18.06 851.24 21.15 C 851.64 21.08 852.05 21.00 852.47 20.92 C 855.55 23.98 859.19 26.37 862.84 28.69 C 860.99 28.48 859.15 28.32 857.30 28.24 C 858.10 29.68 859.03 31.34 860.77 31.75 C 862.18 31.85 863.26 30.42 864.65 30.46 C 867.07 31.97 869.00 34.15 871.29 35.86 C 876.22 39.71 879.86 45.41 886.00 47.53 L 886.00 130.26 C 883.95 128.92 881.31 128.22 880.00 126.00 C 879.03 124.26 876.81 123.78 875.97 121.95 C 875.33 120.51 873.72 120.15 872.45 119.52 C 872.20 116.92 872.51 114.11 871.24 111.73 C 870.44 110.30 868.66 110.48 867.29 110.23 C 867.46 111.84 867.65 113.45 867.87 115.06 C 866.19 112.75 864.47 110.25 861.62 109.34 C 857.04 107.81 853.91 103.92 850.72 100.55 C 848.22 99.56 847.79 96.48 845.26 95.57 C 842.72 94.48 841.94 91.05 838.83 91.01 C 839.95 89.42 842.02 87.96 841.10 85.71 C 838.88 83.08 835.46 81.96 832.44 80.54 C 832.12 81.52 831.80 82.49 831.50 83.47 C 830.38 83.59 829.25 83.69 828.15 83.77 C 827.60 81.52 828.51 79.40 829.33 77.35 C 827.42 76.41 825.51 75.36 824.32 73.54 C 823.81 74.65 823.31 75.76 822.82 76.88 C 817.77 74.31 813.74 70.17 809.76 66.24 C 808.01 64.52 805.36 64.03 803.84 62.07 C 804.71 60.79 805.59 59.52 806.50 58.26 C 805.83 57.31 804.94 56.56 804.06 55.85 C 803.22 57.41 802.92 59.49 801.16 60.29 C 800.30 58.08 798.99 56.16 796.76 55.19 C 796.06 52.66 793.72 52.17 791.55 51.48 C 789.36 48.99 786.93 46.75 784.16 44.92 C 781.54 43.29 780.00 40.30 776.91 39.38 C 776.39 36.56 773.25 36.18 771.96 33.98 C 770.58 31.13 766.86 31.24 764.84 29.03 C 764.95 28.38 765.07 27.73 765.21 27.07 C 764.65 26.50 764.12 25.93 763.59 25.36 C 764.14 25.13 765.26 24.65 765.81 24.42 C 763.85 23.09 761.70 21.91 760.28 19.96 C 759.28 18.73 758.34 17.13 756.59 17.03 C 756.46 18.02 756.35 19.02 756.24 20.01 C 755.02 19.97 753.81 19.92 752.61 19.83 C 752.22 18.86 751.82 17.89 751.43 16.92 C 748.34 16.09 747.80 12.40 744.77 11.41 C 744.07 8.84 742.04 7.89 739.53 7.88 C 740.27 6.72 741.01 5.55 741.75 4.37 C 739.69 1.49 736.30 2.44 733.33 2.69 C 732.73 1.78 732.13 0.89 731.52 0.00 Z" />
</g>
<g id="#b8c834ff">
<path fill="#b8c834" opacity="1.00" d=" M 826.48 0.00 L 886.00 0.00 L 886.00 47.53 C 879.86 45.41 876.22 39.71 871.29 35.86 C 869.00 34.15 867.07 31.97 864.65 30.46 C 863.26 30.42 862.18 31.85 860.77 31.75 C 859.03 31.34 858.10 29.68 857.30 28.24 C 859.15 28.32 860.99 28.48 862.84 28.69 C 859.19 26.37 855.55 23.98 852.47 20.92 C 852.05 21.00 851.64 21.08 851.24 21.15 C 848.94 18.06 846.35 15.18 843.70 12.38 C 840.98 10.37 837.60 9.25 835.35 6.62 C 832.90 3.78 829.38 2.28 826.48 0.00 Z" />
</g>
<g id="#99aa3aff">
<path fill="#99aa3a" opacity="1.00" d=" M 592.24 51.57 C 603.43 58.42 612.51 68.20 622.78 76.30 C 643.14 93.57 663.71 110.65 684.16 127.83 C 689.40 132.99 695.48 137.16 701.17 141.80 C 714.07 153.34 727.65 164.09 740.86 175.26 C 743.86 178.28 747.00 181.16 750.56 183.52 C 767.08 196.95 782.85 211.27 799.57 224.47 C 805.63 229.78 811.63 235.18 817.97 240.16 C 822.91 243.80 827.09 248.33 832.18 251.77 C 837.23 257.17 843.48 261.16 848.99 266.02 C 855.62 272.08 863.01 277.27 869.31 283.69 C 875.15 287.84 880.14 293.02 886.00 297.15 L 886.00 423.67 C 882.73 423.53 880.61 420.60 880.15 417.59 C 878.43 417.27 876.48 417.21 875.21 415.84 C 870.54 411.45 866.12 406.59 860.44 403.48 C 861.19 403.10 861.94 402.72 862.70 402.36 C 861.11 401.96 859.50 401.66 857.99 401.07 C 856.86 399.70 856.96 397.73 856.51 396.09 C 856.28 396.73 855.82 398.01 855.59 398.65 C 853.93 397.52 852.33 396.29 850.94 394.85 C 852.14 392.08 848.68 390.99 846.61 390.62 C 843.43 390.24 841.38 387.27 841.13 384.25 C 839.56 384.20 837.56 385.08 836.43 383.57 C 835.25 382.57 835.66 380.90 835.47 379.56 C 830.59 380.53 828.36 375.40 824.85 373.13 C 822.29 371.58 821.51 368.17 818.61 367.12 C 818.20 366.37 817.82 365.62 817.45 364.87 C 816.87 364.68 816.30 364.50 815.75 364.32 C 815.41 363.44 815.08 362.57 814.76 361.69 C 813.57 361.83 812.21 362.81 811.12 361.98 C 809.54 361.13 809.64 359.14 809.13 357.66 C 808.20 357.93 807.28 358.53 806.33 358.51 C 803.19 357.10 803.20 353.11 801.07 350.78 C 796.05 352.56 792.30 347.09 791.28 342.83 C 788.35 341.20 785.30 339.79 782.40 338.10 C 782.71 337.51 783.03 336.93 783.37 336.35 C 779.64 335.25 776.09 333.37 773.37 330.58 C 772.19 328.00 771.78 325.03 769.89 322.82 C 769.18 321.98 768.00 322.53 767.08 322.52 C 767.59 323.42 768.10 324.31 768.62 325.21 C 767.22 324.70 765.15 324.82 764.96 322.92 C 765.05 320.88 767.65 321.02 769.03 320.17 C 767.74 320.09 766.46 320.01 765.18 319.95 C 764.50 320.88 763.81 321.82 763.14 322.75 C 762.83 321.29 762.59 319.81 762.41 318.32 C 761.58 318.69 760.75 319.06 759.93 319.44 C 757.14 317.14 756.84 313.31 755.03 310.38 C 753.70 310.92 752.37 311.47 751.06 312.03 C 749.82 310.52 748.84 308.85 748.17 307.02 C 749.02 306.30 749.88 305.57 750.74 304.83 C 748.85 305.03 747.19 306.25 745.37 306.47 C 740.69 304.54 737.92 299.93 733.78 297.20 C 728.63 293.57 724.41 288.86 719.48 284.99 C 717.73 283.66 716.92 281.56 715.88 279.72 C 715.48 279.85 714.69 280.12 714.29 280.25 C 709.82 276.90 705.83 272.83 700.72 270.44 C 700.59 269.52 700.46 268.60 700.34 267.69 C 697.18 266.25 694.55 263.85 691.28 262.58 C 692.01 261.85 692.74 261.12 693.49 260.40 C 693.32 259.78 693.15 259.17 693.00 258.55 C 692.11 258.83 691.23 259.10 690.36 259.38 C 690.16 258.86 689.75 257.82 689.54 257.30 C 689.24 258.05 688.94 258.80 688.65 259.55 C 685.44 255.34 680.78 252.81 676.69 249.62 C 676.56 248.62 676.44 247.64 676.33 246.65 C 673.47 245.75 673.22 241.99 670.67 241.07 C 670.52 242.08 670.39 243.08 670.26 244.10 C 669.92 243.90 669.25 243.51 668.92 243.32 C 668.62 242.36 668.34 241.41 668.06 240.46 C 662.17 237.92 658.21 232.67 653.27 228.81 C 651.76 227.85 651.72 225.91 651.16 224.39 C 649.68 224.09 648.22 223.79 646.77 223.46 C 645.59 220.64 642.44 220.05 640.53 217.95 C 640.25 217.99 639.67 218.08 639.38 218.12 C 636.44 214.87 633.47 211.39 629.40 209.54 C 627.58 208.99 627.59 206.92 627.12 205.41 C 621.81 203.54 617.24 199.90 614.58 194.91 C 612.29 196.12 611.10 193.52 609.65 192.27 C 608.08 190.73 605.98 189.92 604.12 188.82 C 604.31 188.49 604.69 187.84 604.88 187.51 C 605.67 187.84 606.47 188.17 607.28 188.50 C 607.48 187.11 607.52 185.70 607.41 184.30 C 605.90 183.58 604.33 182.97 602.67 182.68 C 601.77 183.21 600.91 183.83 599.93 184.20 C 596.68 183.06 594.71 179.91 592.22 177.72 C 592.19 135.67 592.24 93.62 592.24 51.57 Z" />
</g>
<g id="#6f7f35ff">
<path fill="#6f7f35" opacity="1.00" d=" M 0.00 102.60 C 1.58 104.07 3.01 105.71 3.87 107.71 C 4.41 107.43 4.96 107.15 5.50 106.87 C 6.72 108.88 8.64 110.21 10.53 111.52 C 19.00 119.41 28.09 126.55 36.96 134.00 C 42.18 138.05 46.62 143.04 52.01 146.88 C 54.15 148.35 55.59 150.76 58.10 151.68 C 58.87 154.90 62.77 155.10 64.82 157.20 C 69.18 161.50 73.95 165.43 79.05 168.82 C 80.34 169.93 81.90 169.23 83.23 168.61 C 82.62 169.75 82.03 170.89 81.45 172.04 C 84.64 175.11 88.97 176.65 91.99 179.95 C 96.44 183.22 99.33 188.45 104.67 190.46 C 106.47 191.30 106.79 193.79 108.77 194.40 C 110.56 195.04 112.11 196.13 113.12 197.77 C 113.70 197.32 114.29 196.88 114.88 196.44 C 115.34 198.06 115.44 199.96 116.80 201.15 C 121.24 205.40 125.94 210.14 132.22 211.33 C 132.01 211.91 131.81 212.49 131.61 213.08 C 133.18 214.66 134.92 216.05 136.57 217.53 C 137.47 217.98 136.91 218.99 136.95 219.73 C 141.94 220.85 144.94 225.32 149.23 227.74 C 150.99 228.61 151.54 230.51 152.24 232.18 C 152.86 232.07 153.50 231.98 154.13 231.88 C 160.46 237.19 166.28 243.14 172.87 248.15 C 173.80 249.14 175.11 248.92 176.31 248.95 C 176.96 249.84 175.96 250.78 175.75 251.68 C 180.37 253.58 183.58 257.58 187.78 260.16 C 190.68 263.31 193.70 266.32 197.34 268.62 C 200.62 272.49 205.17 274.81 208.85 278.23 C 211.14 280.41 214.44 281.44 216.15 284.22 C 220.88 289.58 227.81 292.57 232.35 298.12 C 232.76 298.06 233.17 298.01 233.59 297.96 C 235.49 300.86 237.99 303.26 240.92 305.09 C 247.20 310.15 252.92 315.95 259.61 320.50 C 264.40 323.96 267.70 329.19 272.92 332.09 C 277.01 334.23 279.45 338.33 283.06 341.09 C 289.12 345.80 295.24 350.53 300.50 356.17 C 301.94 357.37 303.88 357.68 305.46 358.67 C 312.98 365.79 320.74 372.71 329.07 378.85 C 332.73 382.79 337.13 386.28 342.50 387.34 C 342.18 388.18 341.85 389.03 341.54 389.89 C 348.41 395.13 355.02 400.70 361.47 406.45 C 366.25 409.57 370.05 413.86 374.48 417.41 C 376.15 420.63 380.18 420.88 382.42 423.52 C 385.12 426.56 388.91 428.33 391.50 431.49 C 394.09 434.61 397.87 436.37 400.68 439.28 C 407.77 446.59 416.70 451.79 424.02 458.80 C 428.75 460.95 431.26 465.81 435.76 468.30 C 442.58 474.47 449.80 480.20 456.70 486.29 C 462.29 492.31 469.94 495.88 475.48 501.96 C 481.10 506.17 485.93 511.32 491.72 515.32 C 497.37 520.74 503.62 525.45 509.68 530.39 C 513.04 533.13 515.47 536.99 519.47 538.93 C 521.72 539.91 523.23 541.81 524.29 543.98 C 526.79 543.50 528.08 545.98 529.59 547.49 C 531.49 549.67 534.40 550.59 536.36 552.73 C 539.80 556.27 543.87 559.12 547.38 562.60 C 549.77 564.95 553.02 566.18 555.35 568.61 C 557.69 570.96 559.97 573.39 562.57 575.46 C 569.26 580.41 575.50 585.94 582.01 591.12 C 586.85 595.99 592.58 599.81 597.53 604.57 C 599.99 606.99 603.47 608.45 605.05 611.68 C 606.46 611.89 607.87 612.09 609.30 612.30 C 609.38 613.10 609.47 613.91 609.58 614.72 C 611.01 615.44 612.45 616.24 613.36 617.63 C 616.73 622.00 622.57 623.82 625.27 628.79 C 629.88 630.37 632.90 634.41 636.67 637.30 C 640.02 640.99 644.70 643.18 647.80 647.12 C 649.20 649.23 652.20 648.91 653.95 650.48 C 656.44 654.75 661.05 657.03 664.30 660.65 C 670.41 665.50 676.44 670.46 682.35 675.58 C 683.67 676.55 685.29 677.01 686.69 677.86 C 687.75 679.31 688.62 680.92 690.16 681.95 C 692.93 683.98 695.00 687.19 698.59 687.85 C 699.69 688.88 700.45 690.29 701.83 691.05 C 704.51 692.43 705.65 695.39 707.97 697.20 C 714.74 702.68 721.28 708.44 727.96 714.03 C 733.38 717.93 737.92 722.95 743.55 726.57 C 743.88 725.82 744.22 725.07 744.57 724.33 C 744.92 725.54 745.30 726.76 745.68 727.99 C 746.43 728.31 747.20 728.65 747.98 728.99 C 748.39 732.20 751.85 733.12 753.73 735.30 C 756.94 738.81 761.21 741.10 764.45 744.58 C 768.10 748.40 772.67 751.15 777.02 754.08 C 778.56 755.81 779.72 757.98 781.96 758.96 C 785.57 760.58 787.24 764.50 790.65 766.39 C 794.01 768.26 796.54 771.20 799.53 773.58 C 806.28 779.49 813.26 785.11 819.90 791.15 C 828.45 797.11 835.49 804.95 844.07 810.88 C 846.11 812.06 847.43 814.00 848.38 816.12 C 849.07 816.08 849.96 815.65 850.54 816.32 C 854.08 819.09 857.27 822.30 860.65 825.28 C 864.25 828.78 868.53 831.44 872.33 834.70 C 877.04 838.36 881.14 842.73 886.00 846.22 L 886.00 885.04 C 844.65 884.98 803.30 884.88 761.95 884.94 C 759.15 884.89 756.72 882.95 753.85 883.44 C 752.65 881.33 751.66 878.91 749.50 877.60 C 746.64 875.76 743.42 874.45 740.92 872.09 C 738.96 870.36 737.93 867.89 736.55 865.74 C 734.61 865.18 732.35 864.91 731.16 863.08 C 729.91 860.92 726.69 860.98 726.03 858.42 C 725.67 856.67 724.03 856.16 722.58 855.61 C 722.50 854.76 722.42 853.93 722.36 853.10 C 721.77 853.47 721.19 853.86 720.63 854.26 C 719.46 852.63 717.31 852.42 715.97 851.04 C 711.44 846.52 706.23 842.73 702.11 837.80 C 701.30 836.45 699.56 837.42 698.56 836.49 C 693.95 832.43 689.85 827.70 684.51 824.55 C 682.44 823.81 682.47 821.17 680.43 820.42 C 681.13 820.17 681.84 819.93 682.55 819.70 C 681.61 818.54 680.57 817.49 679.44 816.55 C 679.20 817.01 678.73 817.95 678.50 818.42 C 676.21 816.99 673.71 815.92 671.56 814.30 C 670.20 813.15 671.11 811.75 671.83 810.58 C 668.00 811.57 665.59 808.10 662.78 806.20 C 661.25 805.13 659.96 803.76 659.11 802.10 C 660.62 801.34 662.25 800.87 663.90 800.46 C 661.37 799.37 658.73 799.26 656.18 800.31 C 654.02 799.34 652.66 796.90 650.82 795.38 C 651.01 794.50 651.23 793.64 651.45 792.78 C 648.65 792.72 645.47 792.40 643.92 789.72 C 642.96 787.82 640.26 788.69 639.20 786.91 C 637.47 784.55 635.41 782.46 633.21 780.54 C 633.80 780.35 634.98 779.96 635.57 779.76 C 634.53 778.80 633.58 777.73 632.42 776.93 C 631.18 776.76 629.93 777.38 628.69 777.14 C 626.05 775.18 624.60 772.05 624.03 768.88 C 623.48 769.81 622.95 770.74 622.41 771.68 C 617.47 768.36 612.76 764.63 608.58 760.39 C 605.78 757.67 602.30 755.77 599.70 752.84 C 600.18 751.73 600.66 750.62 601.17 749.53 C 599.67 750.05 598.12 751.40 596.49 750.58 C 595.87 749.48 595.51 748.30 595.12 747.13 C 594.46 747.57 593.81 748.02 593.17 748.48 C 588.66 741.87 581.09 738.45 575.59 732.79 C 575.90 731.82 576.21 730.86 576.54 729.92 C 575.41 730.32 574.29 730.74 573.18 731.18 C 570.78 729.88 569.32 727.55 569.13 724.85 C 567.75 724.60 566.37 724.33 565.00 724.06 C 564.44 722.84 563.87 721.63 563.31 720.44 C 560.04 719.88 557.83 717.36 555.09 715.77 C 552.83 714.46 551.59 712.04 549.69 710.33 C 543.72 706.31 538.01 701.75 533.18 696.41 C 531.27 692.91 526.95 692.44 524.32 689.72 C 521.51 687.16 518.37 685.00 515.47 682.56 C 514.16 681.75 514.95 680.32 515.19 679.20 C 514.12 678.97 513.06 678.74 512.01 678.52 C 512.41 676.74 514.73 677.06 516.04 676.38 C 514.33 674.97 512.23 675.27 510.64 676.71 C 508.92 678.38 507.34 676.01 506.28 674.81 C 504.42 672.31 501.32 671.13 499.58 668.54 C 498.02 666.14 495.09 665.34 492.90 663.69 C 492.95 659.27 488.32 657.99 485.02 656.53 C 481.56 655.39 480.10 651.73 477.40 649.59 C 472.25 645.99 466.81 642.58 462.49 637.97 C 463.27 636.63 464.04 635.28 464.82 633.94 C 463.28 634.76 461.77 635.62 460.28 636.49 C 458.31 633.96 455.99 631.61 452.67 631.16 C 451.69 627.42 446.66 626.96 445.72 623.01 C 444.95 622.99 444.00 623.50 443.45 622.71 C 440.17 619.62 437.55 615.82 433.80 613.24 C 432.20 612.02 430.32 611.13 428.93 609.66 C 428.69 608.54 428.65 607.39 428.54 606.28 C 426.87 606.33 425.21 606.50 423.58 606.81 C 423.71 606.48 423.98 605.82 424.11 605.50 C 420.59 602.46 416.19 600.27 413.60 596.28 C 412.13 593.66 409.02 592.94 406.78 591.22 C 405.44 589.73 404.78 587.79 403.63 586.19 C 401.92 585.20 399.72 585.18 398.26 583.72 C 394.58 580.44 390.23 577.88 387.22 573.90 C 386.04 572.08 383.56 572.28 382.01 570.93 C 379.15 568.69 375.47 566.56 375.25 562.53 C 372.53 561.59 369.44 560.90 367.82 558.26 C 365.46 554.32 359.51 553.72 358.79 548.63 C 358.19 548.93 357.59 549.23 356.99 549.54 C 356.16 546.96 355.14 544.44 353.71 542.14 C 353.40 543.44 353.10 544.75 352.75 546.05 C 351.45 544.57 351.77 542.00 349.76 541.20 C 348.17 540.19 346.22 540.40 344.44 540.33 C 327.47 519.50 310.92 498.30 293.73 477.66 C 293.58 477.54 293.30 477.31 293.16 477.20 C 292.43 483.32 292.98 489.48 292.84 495.63 C 291.33 493.70 289.44 492.12 287.47 490.69 C 287.53 489.11 287.61 487.53 287.72 485.95 C 286.96 487.51 286.20 489.06 285.45 490.63 C 282.02 486.26 277.41 483.12 273.48 479.25 C 274.17 478.12 274.88 477.00 275.61 475.90 C 273.31 476.86 270.27 478.01 268.27 475.81 C 265.21 472.41 261.31 469.78 258.81 465.91 C 257.42 463.52 254.90 462.27 252.51 461.12 C 252.40 459.87 252.29 458.62 252.19 457.37 C 250.30 457.56 248.28 458.80 246.48 457.66 C 244.43 456.95 244.14 454.58 243.01 453.02 C 238.37 449.33 233.39 446.11 228.82 442.31 C 229.48 439.94 227.97 437.96 226.40 436.37 C 225.79 437.45 225.19 438.54 224.59 439.63 C 219.36 435.13 215.24 429.27 209.12 425.88 C 205.33 423.39 202.41 419.88 199.42 416.53 C 196.76 415.09 193.82 413.83 192.02 411.27 C 190.80 408.60 187.49 407.82 186.59 404.89 C 185.70 405.07 184.75 405.50 183.90 404.90 C 185.08 403.78 186.44 402.90 187.86 402.11 C 185.52 402.10 183.18 401.98 180.87 402.41 C 178.34 400.11 175.94 397.67 174.43 394.57 C 172.17 393.26 169.21 393.06 167.66 390.71 C 167.87 390.27 168.30 389.38 168.51 388.94 C 162.55 388.04 158.17 383.47 155.06 378.62 C 151.55 378.76 150.31 375.04 147.59 373.61 C 144.46 371.85 141.32 370.02 138.81 367.41 C 138.92 366.74 139.03 366.08 139.14 365.43 C 136.99 364.14 135.95 361.91 134.71 359.85 C 134.67 361.19 134.66 362.53 134.65 363.88 C 132.72 361.73 131.36 359.18 129.80 356.77 C 128.39 356.64 126.98 356.50 125.58 356.37 C 122.07 350.86 115.49 348.57 111.33 343.65 C 112.15 343.15 112.97 342.65 113.79 342.16 C 112.20 341.30 110.51 340.68 108.74 340.32 C 106.11 339.87 104.28 337.74 102.58 335.87 C 102.89 334.55 103.19 333.23 103.50 331.91 C 102.00 332.49 100.50 333.05 99.00 333.61 C 97.28 331.83 97.54 329.28 97.40 327.01 C 96.18 327.89 94.97 328.78 93.77 329.67 C 91.32 327.72 89.43 325.17 86.83 323.41 C 87.02 322.63 87.20 321.86 87.40 321.09 C 86.30 319.57 84.78 318.47 82.87 319.14 C 81.06 318.12 79.49 316.56 77.67 315.49 C 77.95 315.06 78.23 314.62 78.51 314.19 C 76.34 313.70 74.01 313.59 72.01 312.58 C 70.84 308.83 67.17 307.10 64.77 304.27 C 62.53 301.85 59.65 300.19 57.09 298.16 C 57.58 297.20 58.07 296.24 58.56 295.29 C 56.84 295.07 55.12 294.94 53.44 294.53 C 50.63 293.70 50.19 289.92 47.33 289.17 C 44.00 288.05 40.28 285.55 40.52 281.59 C 39.79 281.84 39.06 282.09 38.33 282.34 C 32.64 277.84 28.14 271.78 21.53 268.50 C 14.39 261.81 6.35 256.06 0.00 248.55 L 0.00 102.60 Z" />
</g>
<g id="#8ea03aff">
<path fill="#8ea03a" opacity="1.00" d=" M 592.22 177.72 C 594.71 179.91 596.68 183.06 599.93 184.20 C 600.91 183.83 601.77 183.21 602.67 182.68 C 604.33 182.97 605.90 183.58 607.41 184.30 C 607.52 185.70 607.48 187.11 607.28 188.50 C 606.47 188.17 605.67 187.84 604.88 187.51 C 604.69 187.84 604.31 188.49 604.12 188.82 C 605.98 189.92 608.08 190.73 609.65 192.27 C 611.10 193.52 612.29 196.12 614.58 194.91 C 617.24 199.90 621.81 203.54 627.12 205.41 C 627.59 206.92 627.58 208.99 629.40 209.54 C 633.47 211.39 636.44 214.87 639.38 218.12 C 639.67 218.08 640.25 217.99 640.53 217.95 C 642.44 220.05 645.59 220.64 646.77 223.46 C 648.22 223.79 649.68 224.09 651.16 224.39 C 651.72 225.91 651.76 227.85 653.27 228.81 C 658.21 232.67 662.17 237.92 668.06 240.46 C 668.34 241.41 668.62 242.36 668.92 243.32 C 669.25 243.51 669.92 243.90 670.26 244.10 C 670.39 243.08 670.52 242.08 670.67 241.07 C 673.22 241.99 673.47 245.75 676.33 246.65 C 676.44 247.64 676.56 248.62 676.69 249.62 C 680.78 252.81 685.44 255.34 688.65 259.55 C 688.94 258.80 689.24 258.05 689.54 257.30 C 689.75 257.82 690.16 258.86 690.36 259.38 C 691.23 259.10 692.11 258.83 693.00 258.55 C 693.15 259.17 693.32 259.78 693.49 260.40 C 692.74 261.12 692.01 261.85 691.28 262.58 C 694.55 263.85 697.18 266.25 700.34 267.69 C 700.46 268.60 700.59 269.52 700.72 270.44 C 705.83 272.83 709.82 276.90 714.29 280.25 C 714.69 280.12 715.48 279.85 715.88 279.72 C 716.92 281.56 717.73 283.66 719.48 284.99 C 724.41 288.86 728.63 293.57 733.78 297.20 C 737.92 299.93 740.69 304.54 745.37 306.47 C 747.19 306.25 748.85 305.03 750.74 304.83 C 749.88 305.57 749.02 306.30 748.17 307.02 C 748.84 308.85 749.82 310.52 751.06 312.03 C 752.37 311.47 753.70 310.92 755.03 310.38 C 756.84 313.31 757.14 317.14 759.93 319.44 C 760.75 319.06 761.58 318.69 762.41 318.32 C 762.59 319.81 762.83 321.29 763.14 322.75 C 763.81 321.82 764.50 320.88 765.18 319.95 C 766.46 320.01 767.74 320.09 769.03 320.17 C 767.65 321.02 765.05 320.88 764.96 322.92 C 765.15 324.82 767.22 324.70 768.62 325.21 C 768.10 324.31 767.59 323.42 767.08 322.52 C 768.00 322.53 769.18 321.98 769.89 322.82 C 771.78 325.03 772.19 328.00 773.37 330.58 C 776.09 333.37 779.64 335.25 783.37 336.35 C 783.03 336.93 782.71 337.51 782.40 338.10 C 785.30 339.79 788.35 341.20 791.28 342.83 C 792.30 347.09 796.05 352.56 801.07 350.78 C 803.20 353.11 803.19 357.10 806.33 358.51 C 807.28 358.53 808.20 357.93 809.13 357.66 C 809.64 359.14 809.54 361.13 811.12 361.98 C 812.21 362.81 813.57 361.83 814.76 361.69 C 815.08 362.57 815.41 363.44 815.75 364.32 C 816.30 364.50 816.87 364.68 817.45 364.87 C 817.82 365.62 818.20 366.37 818.61 367.12 C 821.51 368.17 822.29 371.58 824.85 373.13 C 828.36 375.40 830.59 380.53 835.47 379.56 C 835.66 380.90 835.25 382.57 836.43 383.57 C 837.56 385.08 839.56 384.20 841.13 384.25 C 841.38 387.27 843.43 390.24 846.61 390.62 C 848.68 390.99 852.14 392.08 850.94 394.85 C 852.33 396.29 853.93 397.52 855.59 398.65 C 855.82 398.01 856.28 396.73 856.51 396.09 C 856.96 397.73 856.86 399.70 857.99 401.07 C 859.50 401.66 861.11 401.96 862.70 402.36 C 861.94 402.72 861.19 403.10 860.44 403.48 C 866.12 406.59 870.54 411.45 875.21 415.84 C 876.48 417.21 878.43 417.27 880.15 417.59 C 880.61 420.60 882.73 423.53 886.00 423.67 L 886.00 533.22 C 877.47 527.09 870.85 518.66 861.81 513.20 C 855.56 508.49 850.73 501.93 843.93 498.01 C 837.23 490.94 828.90 485.70 821.88 478.99 C 818.87 476.01 814.89 474.24 812.08 471.03 C 807.94 466.70 802.07 464.31 798.64 459.30 C 797.68 457.98 796.11 457.39 794.77 456.60 C 794.90 456.17 795.04 455.74 795.19 455.32 C 789.40 454.01 786.20 448.72 781.92 445.19 C 775.75 441.82 771.67 435.80 765.73 432.14 C 762.46 429.84 759.75 426.86 756.58 424.44 C 753.79 422.40 751.96 419.14 748.73 417.73 C 745.63 416.57 744.08 413.35 741.43 411.54 C 734.81 406.78 728.51 401.52 722.93 395.58 C 717.33 391.74 712.45 386.98 707.15 382.77 C 704.76 380.82 701.44 379.88 699.96 377.00 C 697.70 373.61 694.22 371.37 690.87 369.20 C 687.39 366.32 683.83 363.52 680.51 360.46 C 676.54 356.24 670.98 353.77 667.83 348.73 C 667.20 348.91 666.57 349.09 665.95 349.28 C 661.99 344.77 657.48 340.74 652.49 337.38 C 652.11 338.17 651.73 338.97 651.37 339.78 C 650.84 337.76 650.66 335.43 649.04 333.92 C 647.23 332.32 645.02 331.30 643.04 329.96 C 635.59 325.16 630.97 316.94 622.89 313.00 C 619.46 309.79 616.36 306.20 612.29 303.74 C 607.36 300.65 604.62 294.38 598.66 293.04 C 598.79 292.51 598.93 291.98 599.08 291.46 C 596.99 289.72 595.37 287.23 592.21 287.67 C 592.19 251.02 592.24 214.37 592.22 177.72 Z" />
</g>
<g id="#667533ff">
<path fill="#667533" opacity="1.00" d=" M 0.00 248.55 C 6.35 256.06 14.39 261.81 21.53 268.50 C 28.14 271.78 32.64 277.84 38.33 282.34 C 39.06 282.09 39.79 281.84 40.52 281.59 C 40.28 285.55 44.00 288.05 47.33 289.17 C 50.19 289.92 50.63 293.70 53.44 294.53 C 55.12 294.94 56.84 295.07 58.56 295.29 C 58.07 296.24 57.58 297.20 57.09 298.16 C 59.65 300.19 62.53 301.85 64.77 304.27 C 67.17 307.10 70.84 308.83 72.01 312.58 C 74.01 313.59 76.34 313.70 78.51 314.19 C 78.23 314.62 77.95 315.06 77.67 315.49 C 79.49 316.56 81.06 318.12 82.87 319.14 C 84.78 318.47 86.30 319.57 87.40 321.09 C 87.20 321.86 87.02 322.63 86.83 323.41 C 89.43 325.17 91.32 327.72 93.77 329.67 C 94.97 328.78 96.18 327.89 97.40 327.01 C 97.54 329.28 97.28 331.83 99.00 333.61 C 100.50 333.05 102.00 332.49 103.50 331.91 C 103.19 333.23 102.89 334.55 102.58 335.87 C 104.28 337.74 106.11 339.87 108.74 340.32 C 110.51 340.68 112.20 341.30 113.79 342.16 C 112.97 342.65 112.15 343.15 111.33 343.65 C 115.49 348.57 122.07 350.86 125.58 356.37 C 126.98 356.50 128.39 356.64 129.80 356.77 C 131.36 359.18 132.72 361.73 134.65 363.88 C 134.66 362.53 134.67 361.19 134.71 359.85 C 135.95 361.91 136.99 364.14 139.14 365.43 C 139.03 366.08 138.92 366.74 138.81 367.41 C 141.32 370.02 144.46 371.85 147.59 373.61 C 150.31 375.04 151.55 378.76 155.06 378.62 C 158.17 383.47 162.55 388.04 168.51 388.94 C 168.30 389.38 167.87 390.27 167.66 390.71 C 169.21 393.06 172.17 393.26 174.43 394.57 C 175.94 397.67 178.34 400.11 180.87 402.41 C 183.18 401.98 185.52 402.10 187.86 402.11 C 186.44 402.90 185.08 403.78 183.90 404.90 C 184.75 405.50 185.70 405.07 186.59 404.89 C 187.49 407.82 190.80 408.60 192.02 411.27 C 193.82 413.83 196.76 415.09 199.42 416.53 C 202.41 419.88 205.33 423.39 209.12 425.88 C 215.24 429.27 219.36 435.13 224.59 439.63 C 225.19 438.54 225.79 437.45 226.40 436.37 C 227.97 437.96 229.48 439.94 228.82 442.31 C 233.39 446.11 238.37 449.33 243.01 453.02 C 244.14 454.58 244.43 456.95 246.48 457.66 C 248.28 458.80 250.30 457.56 252.19 457.37 C 252.29 458.62 252.40 459.87 252.51 461.12 C 254.90 462.27 257.42 463.52 258.81 465.91 C 261.31 469.78 265.21 472.41 268.27 475.81 C 270.27 478.01 273.31 476.86 275.61 475.90 C 274.88 477.00 274.17 478.12 273.48 479.25 C 277.41 483.12 282.02 486.26 285.45 490.63 C 286.20 489.06 286.96 487.51 287.72 485.95 C 287.61 487.53 287.53 489.11 287.47 490.69 C 289.44 492.12 291.33 493.70 292.84 495.63 C 292.98 489.48 292.43 483.32 293.16 477.20 C 293.30 477.31 293.58 477.54 293.73 477.66 C 293.83 540.23 293.85 602.80 293.76 665.37 C 292.36 661.33 293.00 657.04 292.81 652.86 C 289.03 652.97 286.84 649.93 284.44 647.55 C 279.81 644.79 277.12 638.99 271.26 638.38 C 271.62 637.66 271.99 636.95 272.36 636.24 C 269.62 634.79 266.76 633.53 264.18 631.82 C 261.27 629.05 259.00 625.65 255.93 623.06 C 251.19 620.62 247.03 616.96 244.15 612.48 C 243.51 612.67 242.88 612.87 242.26 613.09 C 238.14 610.07 235.31 605.54 230.82 603.03 C 227.84 600.33 224.65 597.89 221.60 595.27 C 221.05 594.59 220.13 595.02 219.41 594.97 C 216.68 591.37 213.36 588.30 210.56 584.81 C 210.19 584.91 209.82 585.03 209.45 585.16 C 207.09 582.57 204.32 580.25 200.91 579.25 C 199.32 577.14 198.05 574.76 196.04 572.99 C 192.78 569.43 188.18 567.61 184.59 564.45 C 181.25 561.54 178.07 558.44 174.48 555.84 C 174.83 555.30 175.19 554.77 175.55 554.26 C 172.12 555.12 170.35 551.71 167.89 550.09 C 162.93 546.51 157.44 542.64 155.09 536.77 C 152.10 536.22 147.47 535.64 148.15 531.47 C 143.46 530.74 140.29 527.20 137.24 523.94 C 134.38 522.89 132.85 520.30 131.51 517.73 C 130.30 517.73 129.09 517.73 127.88 517.75 C 126.63 513.14 122.02 511.14 119.36 507.50 C 118.58 506.11 117.11 507.34 116.01 507.53 C 112.58 503.81 108.89 500.27 104.81 497.26 C 104.68 495.65 104.64 494.01 104.10 492.49 C 102.82 492.92 101.55 493.41 100.23 493.70 C 98.89 493.12 98.26 491.60 97.22 490.63 C 95.71 488.78 92.85 488.72 91.48 486.71 C 90.27 485.05 88.52 483.95 86.84 482.84 C 86.97 482.31 87.11 481.79 87.24 481.27 C 85.31 480.50 83.18 479.85 82.11 477.91 C 80.60 475.30 76.86 475.32 75.52 472.57 C 74.90 470.71 73.00 470.48 71.36 470.08 C 71.72 469.49 72.08 468.90 72.44 468.33 C 67.77 467.97 65.11 463.91 61.84 461.13 C 58.44 458.17 54.61 455.72 51.50 452.43 C 47.63 448.17 41.89 446.18 38.41 441.51 C 36.55 439.01 33.12 438.25 31.67 435.39 C 30.43 432.88 27.29 432.54 25.69 430.36 C 23.75 427.86 21.20 425.97 18.32 424.67 C 14.97 423.19 13.18 419.82 10.57 417.44 C 7.50 414.35 3.49 412.49 0.00 409.95 L 0.00 248.55 Z" />
</g>
<g id="#87983aff">
<path fill="#87983a" opacity="1.00" d=" M 592.21 287.67 C 595.37 287.23 596.99 289.72 599.08 291.46 C 598.93 291.98 598.79 292.51 598.66 293.04 C 604.62 294.38 607.36 300.65 612.29 303.74 C 616.36 306.20 619.46 309.79 622.89 313.00 C 630.97 316.94 635.59 325.16 643.04 329.96 C 645.02 331.30 647.23 332.32 649.04 333.92 C 650.66 335.43 650.84 337.76 651.37 339.78 C 651.73 338.97 652.11 338.17 652.49 337.38 C 657.48 340.74 661.99 344.77 665.95 349.28 C 666.57 349.09 667.20 348.91 667.83 348.73 C 670.98 353.77 676.54 356.24 680.51 360.46 C 683.83 363.52 687.39 366.32 690.87 369.20 C 694.22 371.37 697.70 373.61 699.96 377.00 C 701.44 379.88 704.76 380.82 707.15 382.77 C 712.45 386.98 717.33 391.74 722.93 395.58 C 728.51 401.52 734.81 406.78 741.43 411.54 C 744.08 413.35 745.63 416.57 748.73 417.73 C 751.96 419.14 753.79 422.40 756.58 424.44 C 759.75 426.86 762.46 429.84 765.73 432.14 C 771.67 435.80 775.75 441.82 781.92 445.19 C 786.20 448.72 789.40 454.01 795.19 455.32 C 795.04 455.74 794.90 456.17 794.77 456.60 C 796.11 457.39 797.68 457.98 798.64 459.30 C 802.07 464.31 807.94 466.70 812.08 471.03 C 814.89 474.24 818.87 476.01 821.88 478.99 C 828.90 485.70 837.23 490.94 843.93 498.01 C 850.73 501.93 855.56 508.49 861.81 513.20 C 870.85 518.66 877.47 527.09 886.00 533.22 L 886.00 628.55 C 881.83 625.94 877.43 623.31 874.60 619.17 C 873.11 616.83 870.12 616.44 868.11 614.76 C 866.25 612.97 864.82 610.73 862.57 609.40 C 856.42 605.68 851.96 599.85 846.03 595.83 C 842.41 593.53 839.83 590.04 836.39 587.51 C 833.55 584.65 829.69 583.02 827.20 579.79 C 824.89 576.88 820.84 576.09 818.75 572.98 C 817.34 571.09 815.19 570.05 813.28 568.80 C 814.04 568.29 814.81 567.78 815.60 567.28 C 813.88 566.83 811.93 566.72 810.62 565.40 C 807.98 562.93 804.46 561.69 802.11 558.88 C 797.06 554.95 792.69 550.23 787.34 546.68 C 782.86 542.79 778.87 538.12 773.49 535.43 C 772.22 534.32 771.38 532.82 770.20 531.64 C 769.28 530.65 767.55 531.50 766.77 530.29 C 762.93 525.75 758.03 522.32 753.83 518.14 C 750.76 515.14 746.75 513.36 743.73 510.30 C 740.71 507.91 738.12 504.42 734.00 504.07 C 732.94 499.78 728.93 497.73 726.25 494.60 C 725.31 493.15 723.33 493.78 722.05 492.93 C 720.30 491.00 720.35 487.58 717.68 486.53 C 711.35 483.44 706.24 478.46 700.96 473.93 C 694.69 470.46 690.31 464.63 684.50 460.54 C 682.54 458.03 679.92 456.24 677.90 453.84 C 677.37 453.92 676.85 454.00 676.34 454.10 C 674.43 451.86 672.77 449.31 670.17 447.81 C 665.40 445.19 662.25 440.53 657.43 437.99 C 653.84 433.85 649.55 430.26 644.45 428.13 C 627.25 384.05 610.19 339.92 592.98 295.85 C 591.74 293.29 592.34 290.39 592.21 287.67 Z" />
</g>
<g id="#5e6c2fff">
<path fill="#5e6c2f" opacity="1.00" d=" M 0.00 409.95 C 3.49 412.49 7.50 414.35 10.57 417.44 C 13.18 419.82 14.97 423.19 18.32 424.67 C 21.20 425.97 23.75 427.86 25.69 430.36 C 27.29 432.54 30.43 432.88 31.67 435.39 C 33.12 438.25 36.55 439.01 38.41 441.51 C 41.89 446.18 47.63 448.17 51.50 452.43 C 54.61 455.72 58.44 458.17 61.84 461.13 C 65.11 463.91 67.77 467.97 72.44 468.33 C 72.08 468.90 71.72 469.49 71.36 470.08 C 73.00 470.48 74.90 470.71 75.52 472.57 C 76.86 475.32 80.60 475.30 82.11 477.91 C 83.18 479.85 85.31 480.50 87.24 481.27 C 87.11 481.79 86.97 482.31 86.84 482.84 C 88.52 483.95 90.27 485.05 91.48 486.71 C 92.85 488.72 95.71 488.78 97.22 490.63 C 98.26 491.60 98.89 493.12 100.23 493.70 C 101.55 493.41 102.82 492.92 104.10 492.49 C 104.64 494.01 104.68 495.65 104.81 497.26 C 108.89 500.27 112.58 503.81 116.01 507.53 C 117.11 507.34 118.58 506.11 119.36 507.50 C 122.02 511.14 126.63 513.14 127.88 517.75 C 129.09 517.73 130.30 517.73 131.51 517.73 C 132.85 520.30 134.38 522.89 137.24 523.94 C 140.29 527.20 143.46 530.74 148.15 531.47 C 147.47 535.64 152.10 536.22 155.09 536.77 C 157.44 542.64 162.93 546.51 167.89 550.09 C 170.35 551.71 172.12 555.12 175.55 554.26 C 175.19 554.77 174.83 555.30 174.48 555.84 C 178.07 558.44 181.25 561.54 184.59 564.45 C 188.18 567.61 192.78 569.43 196.04 572.99 C 198.05 574.76 199.32 577.14 200.91 579.25 C 204.32 580.25 207.09 582.57 209.45 585.16 C 209.82 585.03 210.19 584.91 210.56 584.81 C 213.36 588.30 216.68 591.37 219.41 594.97 C 220.13 595.02 221.05 594.59 221.60 595.27 C 224.65 597.89 227.84 600.33 230.82 603.03 C 235.31 605.54 238.14 610.07 242.26 613.09 C 242.88 612.87 243.51 612.67 244.15 612.48 C 247.03 616.96 251.19 620.62 255.93 623.06 C 259.00 625.65 261.27 629.05 264.18 631.82 C 266.76 633.53 269.62 634.79 272.36 636.24 C 271.99 636.95 271.62 637.66 271.26 638.38 C 277.12 638.99 279.81 644.79 284.44 647.55 C 286.84 649.93 289.03 652.97 292.81 652.86 C 293.00 657.04 292.36 661.33 293.76 665.37 C 293.84 738.88 293.80 812.39 293.82 885.89 L 292.97 885.90 C 292.83 872.58 292.95 859.27 292.83 845.96 C 292.74 842.08 293.22 838.17 292.58 834.34 C 290.15 831.41 286.30 830.10 283.76 827.26 C 280.14 823.15 275.34 820.39 271.55 816.48 C 259.48 807.63 248.76 797.10 237.14 787.69 C 231.77 784.23 227.41 779.50 222.45 775.52 C 217.45 771.96 213.22 767.47 208.33 763.77 C 203.68 758.61 197.53 755.23 192.49 750.50 C 185.87 744.05 177.98 739.06 171.60 732.36 C 166.95 728.67 161.92 725.46 157.75 721.20 C 154.78 718.09 150.68 716.36 147.92 713.04 C 143.64 708.20 137.33 705.77 133.32 700.66 C 128.26 696.75 123.68 692.26 118.61 688.35 C 111.77 681.78 103.83 676.50 96.89 670.03 C 95.10 668.02 92.02 667.73 90.71 665.22 C 80.87 656.35 70.53 648.05 60.16 639.80 C 56.33 635.94 51.60 633.08 48.13 628.85 C 38.95 622.16 30.60 614.37 21.76 607.22 C 18.65 604.32 14.97 602.10 12.01 599.05 C 8.45 595.12 3.43 592.91 0.00 588.84 L 0.00 409.95 Z" />
</g>
<g id="#697833ff">
<path fill="#697833" opacity="1.00" d=" M 344.44 540.33 C 346.22 540.40 348.17 540.19 349.76 541.20 C 351.77 542.00 351.45 544.57 352.75 546.05 C 353.10 544.75 353.40 543.44 353.71 542.14 C 355.14 544.44 356.16 546.96 356.99 549.54 C 357.59 549.23 358.19 548.93 358.79 548.63 C 359.51 553.72 365.46 554.32 367.82 558.26 C 369.44 560.90 372.53 561.59 375.25 562.53 C 375.47 566.56 379.15 568.69 382.01 570.93 C 383.56 572.28 386.04 572.08 387.22 573.90 C 390.23 577.88 394.58 580.44 398.26 583.72 C 399.72 585.18 401.92 585.20 403.63 586.19 C 404.78 587.79 405.44 589.73 406.78 591.22 C 409.02 592.94 412.13 593.66 413.60 596.28 C 416.19 600.27 420.59 602.46 424.11 605.50 C 423.98 605.82 423.71 606.48 423.58 606.81 C 425.21 606.50 426.87 606.33 428.54 606.28 C 428.65 607.39 428.69 608.54 428.93 609.66 C 430.32 611.13 432.20 612.02 433.80 613.24 C 437.55 615.82 440.17 619.62 443.45 622.71 C 444.00 623.50 444.95 622.99 445.72 623.01 C 446.66 626.96 451.69 627.42 452.67 631.16 C 455.99 631.61 458.31 633.96 460.28 636.49 C 461.77 635.62 463.28 634.76 464.82 633.94 C 464.04 635.28 463.27 636.63 462.49 637.97 C 466.81 642.58 472.25 645.99 477.40 649.59 C 480.10 651.73 481.56 655.39 485.02 656.53 C 488.32 657.99 492.95 659.27 492.90 663.69 C 495.09 665.34 498.02 666.14 499.58 668.54 C 501.32 671.13 504.42 672.31 506.28 674.81 C 507.34 676.01 508.92 678.38 510.64 676.71 C 512.23 675.27 514.33 674.97 516.04 676.38 C 514.73 677.06 512.41 676.74 512.01 678.52 C 513.06 678.74 514.12 678.97 515.19 679.20 C 514.95 680.32 514.16 681.75 515.47 682.56 C 518.37 685.00 521.51 687.16 524.32 689.72 C 526.95 692.44 531.27 692.91 533.18 696.41 C 538.01 701.75 543.72 706.31 549.69 710.33 C 551.59 712.04 552.83 714.46 555.09 715.77 C 557.83 717.36 560.04 719.88 563.31 720.44 C 563.87 721.63 564.44 722.84 565.00 724.06 C 566.37 724.33 567.75 724.60 569.13 724.85 C 569.32 727.55 570.78 729.88 573.18 731.18 C 574.29 730.74 575.41 730.32 576.54 729.92 C 576.21 730.86 575.90 731.82 575.59 732.79 C 581.09 738.45 588.66 741.87 593.17 748.48 C 593.81 748.02 594.46 747.57 595.12 747.13 C 595.51 748.30 595.87 749.48 596.49 750.58 C 598.12 751.40 599.67 750.05 601.17 749.53 C 600.66 750.62 600.18 751.73 599.70 752.84 C 602.30 755.77 605.78 757.67 608.58 760.39 C 612.76 764.63 617.47 768.36 622.41 771.68 C 622.95 770.74 623.48 769.81 624.03 768.88 C 624.60 772.05 626.05 775.18 628.69 777.14 C 629.93 777.38 631.18 776.76 632.42 776.93 C 633.58 777.73 634.53 778.80 635.57 779.76 C 634.98 779.96 633.80 780.35 633.21 780.54 C 635.41 782.46 637.47 784.55 639.20 786.91 C 640.26 788.69 642.96 787.82 643.92 789.72 C 645.47 792.40 648.65 792.72 651.45 792.78 C 651.23 793.64 651.01 794.50 650.82 795.38 C 652.66 796.90 654.02 799.34 656.18 800.31 C 658.73 799.26 661.37 799.37 663.90 800.46 C 662.25 800.87 660.62 801.34 659.11 802.10 C 659.96 803.76 661.25 805.13 662.78 806.20 C 665.59 808.10 668.00 811.57 671.83 810.58 C 671.11 811.75 670.20 813.15 671.56 814.30 C 673.71 815.92 676.21 816.99 678.50 818.42 C 678.73 817.95 679.20 817.01 679.44 816.55 C 680.57 817.49 681.61 818.54 682.55 819.70 C 681.84 819.93 681.13 820.17 680.43 820.42 C 682.47 821.17 682.44 823.81 684.51 824.55 C 689.85 827.70 693.95 832.43 698.56 836.49 C 699.56 837.42 701.30 836.45 702.11 837.80 C 706.23 842.73 711.44 846.52 715.97 851.04 C 717.31 852.42 719.46 852.63 720.63 854.26 C 721.19 853.86 721.77 853.47 722.36 853.10 C 722.42 853.93 722.50 854.76 722.58 855.61 C 724.03 856.16 725.67 856.67 726.03 858.42 C 726.69 860.98 729.91 860.92 731.16 863.08 C 732.35 864.91 734.61 865.18 736.55 865.74 C 737.93 867.89 738.96 870.36 740.92 872.09 C 743.42 874.45 746.64 875.76 749.50 877.60 C 751.66 878.91 752.65 881.33 753.85 883.44 C 756.72 882.95 759.15 884.89 761.95 884.94 C 803.30 884.88 844.65 884.98 886.00 885.04 L 886.00 885.89 C 798.32 885.83 710.64 885.99 622.97 885.87 C 618.84 881.78 615.53 876.76 611.71 872.31 C 522.62 761.65 433.53 650.99 344.44 540.33 Z" />
</g>
<g id="#56652dff">
<path fill="#56652d" opacity="1.00" d=" M 0.00 588.84 C 3.43 592.91 8.45 595.12 12.01 599.05 C 14.97 602.10 18.65 604.32 21.76 607.22 C 30.60 614.37 38.95 622.16 48.13 628.85 C 51.60 633.08 56.33 635.94 60.16 639.80 C 70.53 648.05 80.87 656.35 90.71 665.22 C 92.02 667.73 95.10 668.02 96.89 670.03 C 103.83 676.50 111.77 681.78 118.61 688.35 C 123.68 692.26 128.26 696.75 133.32 700.66 C 137.33 705.77 143.64 708.20 147.92 713.04 C 150.68 716.36 154.78 718.09 157.75 721.20 C 161.92 725.46 166.95 728.67 171.60 732.36 C 177.98 739.06 185.87 744.05 192.49 750.50 C 197.53 755.23 203.68 758.61 208.33 763.77 C 213.22 767.47 217.45 771.96 222.45 775.52 C 227.41 779.50 231.77 784.23 237.14 787.69 C 248.76 797.10 259.48 807.63 271.55 816.48 C 275.34 820.39 280.14 823.15 283.76 827.26 C 286.30 830.10 290.15 831.41 292.58 834.34 C 293.22 838.17 292.74 842.08 292.83 845.96 C 292.95 859.27 292.83 872.58 292.97 885.90 C 195.31 885.93 97.66 885.92 0.00 885.93 L 0.00 588.84 Z" />
</g>
<g id="#949599ff">
<path fill="#949599" opacity="1.00" d=" M 0.00 920.04 C 295.33 920.21 590.67 920.07 886.00 920.11 L 886.00 1092.95 C 590.67 1092.79 295.33 1092.93 0.00 1092.88 L 0.00 920.04 M 448.41 959.41 C 440.94 963.29 436.57 971.68 436.87 980.00 C 437.32 988.66 435.30 998.11 439.98 1005.97 C 443.60 1012.30 451.02 1015.18 457.98 1015.82 C 470.92 1016.97 483.94 1016.26 496.91 1016.54 C 499.93 1016.62 503.03 1018.42 503.69 1021.56 C 504.68 1026.22 504.71 1033.42 499.00 1034.95 C 493.44 1036.03 487.71 1035.27 482.07 1035.50 C 477.41 1035.27 472.58 1036.08 468.04 1034.76 C 465.15 1033.90 464.04 1030.87 463.67 1028.18 C 454.79 1028.61 445.90 1028.93 437.01 1029.33 C 438.31 1038.62 441.88 1048.66 450.41 1053.65 C 461.14 1059.96 474.08 1058.74 486.02 1058.87 C 498.01 1058.97 511.02 1059.09 521.46 1052.32 C 528.22 1047.97 531.44 1039.77 531.22 1031.94 C 530.95 1023.57 532.53 1014.47 528.17 1006.85 C 524.57 1000.32 516.97 997.38 509.88 996.78 C 496.97 995.57 483.97 996.44 471.02 996.05 C 467.73 995.99 464.51 993.62 464.18 990.22 C 463.87 986.56 463.43 982.15 466.23 979.29 C 469.21 976.77 473.39 977.33 477.01 977.23 C 484.18 977.42 491.38 976.87 498.52 977.55 C 501.95 977.88 504.10 980.98 504.37 984.23 C 513.23 983.61 522.09 982.90 530.93 982.11 C 529.22 973.64 525.86 964.65 518.29 959.75 C 509.04 953.80 497.55 953.96 486.97 954.00 C 474.04 954.08 460.19 953.05 448.41 959.41 M 139.41 954.89 C 154.29 989.60 169.20 1024.30 184.16 1058.98 C 191.10 1059.01 198.03 1059.01 204.96 1058.98 C 219.90 1024.29 234.92 989.64 249.74 954.91 C 239.79 954.83 229.85 954.93 219.91 954.86 C 210.98 976.76 203.43 999.32 194.51 1021.25 C 186.45 999.12 177.98 977.14 169.81 955.04 C 159.69 954.68 149.54 954.98 139.41 954.89 M 268.54 954.90 C 268.43 989.43 268.58 1023.95 268.47 1058.47 C 278.21 1058.80 287.97 1058.53 297.71 1058.61 C 297.76 1024.05 297.74 989.49 297.73 954.93 C 288.00 954.84 278.27 954.88 268.54 954.90 M 315.88 1058.98 C 325.97 1059.02 336.05 1058.98 346.14 1059.00 C 347.76 1055.16 349.11 1051.21 350.57 1047.32 C 364.30 1047.15 378.03 1047.27 391.76 1047.26 C 393.29 1051.14 394.67 1055.08 396.19 1058.97 C 406.21 1059.02 416.25 1059.01 426.28 1058.98 C 411.45 1024.35 396.43 989.82 381.69 955.16 C 374.79 954.51 367.80 955.08 360.87 954.88 C 345.62 989.45 330.91 1024.30 315.88 1058.98 M 585.20 955.04 C 570.37 989.72 555.34 1024.31 540.50 1058.99 C 550.60 1058.99 560.71 1059.04 570.81 1058.96 C 572.26 1055.06 573.70 1051.15 575.18 1047.27 C 588.93 1047.29 602.69 1047.10 616.43 1047.36 C 617.88 1051.25 619.24 1055.18 620.87 1059.00 C 630.86 1058.98 640.85 1059.02 650.85 1058.98 C 635.89 1024.30 621.04 989.56 606.02 954.91 C 599.08 954.95 592.13 954.70 585.20 955.04 M 642.67 954.90 C 642.79 963.18 642.26 971.57 642.94 979.78 C 655.29 979.70 667.64 979.73 679.98 979.76 C 680.06 1006.05 679.91 1032.34 680.05 1058.64 C 689.68 1058.61 699.30 1058.59 708.92 1058.64 C 709.39 1032.37 708.96 1006.05 709.13 979.76 C 721.62 979.69 734.11 979.77 746.61 979.72 C 746.64 971.50 746.58 963.27 746.64 955.05 C 712.00 954.67 677.32 954.97 642.67 954.90 Z" />
<path fill="#949599" opacity="1.00" d=" M 370.25 995.02 C 370.50 994.24 370.89 993.55 371.41 992.94 C 375.66 1004.62 380.17 1016.21 384.46 1027.87 C 375.63 1027.88 366.80 1027.89 357.97 1027.88 C 362.03 1016.91 366.20 1005.99 370.25 995.02 Z" />
<path fill="#949599" opacity="1.00" d=" M 595.53 992.84 C 600.70 1004.18 604.45 1016.24 609.03 1027.88 C 600.23 1027.89 591.43 1027.87 582.63 1027.88 C 586.69 1016.12 591.40 1004.58 595.53 992.84 Z" />
</g>
<g id="#52602bff">
<path fill="#52602b" opacity="1.00" d=" M 217.49 1126.22 C 227.19 1126.01 236.93 1125.98 246.64 1126.23 C 266.59 1173.69 286.98 1220.97 307.00 1268.40 C 296.08 1268.38 285.16 1268.48 274.24 1268.35 C 269.96 1257.81 265.84 1247.19 261.30 1236.77 C 241.50 1236.86 221.71 1236.76 201.91 1236.82 C 197.56 1247.33 193.34 1257.89 188.99 1268.41 C 178.37 1268.42 167.76 1268.41 157.14 1268.41 C 177.17 1220.98 197.50 1173.67 217.49 1126.22 M 213.13 1209.34 C 225.49 1209.29 237.84 1209.36 250.20 1209.30 C 244.05 1194.08 237.69 1178.95 231.62 1163.71 C 225.81 1179.04 219.17 1194.08 213.13 1209.34 Z" />
<path fill="#52602b" opacity="1.00" d=" M 0.00 1127.09 C 9.58 1127.10 19.17 1127.07 28.75 1127.11 C 50.71 1156.01 72.72 1184.87 94.70 1213.76 C 94.70 1184.87 94.69 1155.98 94.70 1127.09 C 104.97 1127.11 115.24 1127.06 125.51 1127.11 C 125.47 1174.21 125.55 1221.32 125.47 1268.42 C 116.63 1268.40 107.79 1268.43 98.95 1268.40 C 76.20 1238.66 53.57 1208.83 30.81 1179.09 C 30.80 1208.85 30.80 1238.62 30.81 1268.38 C 20.54 1268.45 10.27 1268.39 0.00 1268.41 L 0.00 1127.09 Z" />
<path fill="#52602b" opacity="1.00" d=" M 310.32 1127.11 C 349.38 1127.08 388.43 1127.10 427.49 1127.09 C 427.51 1136.70 427.51 1146.31 427.49 1155.92 C 413.17 1155.90 398.85 1155.90 384.53 1155.92 C 384.45 1193.42 384.57 1230.92 384.47 1268.42 C 374.10 1268.41 363.73 1268.40 353.36 1268.42 C 353.26 1230.92 353.37 1193.42 353.31 1155.92 C 338.98 1155.88 324.65 1155.94 310.32 1155.89 C 310.33 1146.29 310.31 1136.70 310.32 1127.11 Z" />
<path fill="#52602b" opacity="1.00" d=" M 459.01 1127.09 C 469.44 1127.09 479.86 1127.09 490.29 1127.09 C 490.35 1154.69 490.27 1182.29 490.33 1209.89 C 490.62 1218.72 492.93 1228.19 499.65 1234.40 C 505.56 1240.07 514.07 1242.10 522.07 1241.71 C 530.74 1241.69 539.76 1238.13 544.89 1230.91 C 549.88 1224.03 550.88 1215.25 550.98 1207.00 C 551.03 1180.36 550.98 1153.73 551.01 1127.09 C 561.39 1127.09 571.78 1127.08 582.17 1127.10 C 582.19 1148.74 582.17 1170.38 582.18 1192.03 C 582.08 1204.27 582.91 1216.73 579.75 1228.69 C 576.49 1241.99 568.64 1254.52 556.71 1261.63 C 547.37 1267.59 536.25 1269.41 525.49 1271.00 L 515.40 1271.00 C 502.05 1269.42 488.17 1266.22 477.84 1257.06 C 464.37 1245.97 459.28 1227.88 459.04 1211.02 C 458.96 1183.04 459.01 1155.07 459.01 1127.09 Z" />
<path fill="#52602b" opacity="1.00" d=" M 623.71 1127.09 C 640.48 1127.09 657.25 1127.09 674.02 1127.09 C 683.33 1127.24 692.72 1126.55 701.95 1128.13 C 712.17 1129.75 722.27 1133.96 729.60 1141.45 C 736.92 1148.64 740.84 1158.78 741.49 1168.92 C 742.25 1179.32 740.96 1190.34 735.30 1199.33 C 729.78 1208.01 721.08 1214.31 711.57 1218.00 C 723.04 1234.80 734.54 1251.59 746.02 1268.39 C 733.78 1268.38 721.52 1268.52 709.28 1268.31 C 699.41 1253.26 689.24 1238.41 679.31 1223.40 C 671.20 1223.18 663.07 1223.36 654.95 1223.31 C 654.85 1238.33 654.94 1253.36 654.91 1268.39 C 644.50 1268.42 634.10 1268.43 623.70 1268.39 C 623.69 1221.29 623.68 1174.19 623.71 1127.09 M 654.95 1155.31 C 654.86 1168.80 654.93 1182.30 654.91 1195.81 C 664.93 1195.85 674.95 1195.80 684.97 1195.83 C 691.45 1195.96 698.44 1194.99 703.54 1190.64 C 710.86 1184.68 711.75 1173.42 707.74 1165.33 C 703.76 1157.97 694.76 1155.43 686.93 1155.33 C 676.27 1155.27 665.61 1155.32 654.95 1155.31 Z" />
<path fill="#52602b" opacity="1.00" d=" M 778.61 1127.08 C 814.07 1127.10 849.53 1127.08 884.99 1127.09 C 885.00 1136.36 885.01 1145.63 884.99 1154.91 C 859.83 1154.90 834.66 1154.93 809.50 1154.89 C 809.32 1164.37 809.39 1173.85 809.47 1183.34 C 831.61 1183.30 853.75 1183.33 875.89 1183.32 C 875.92 1192.60 875.91 1201.88 875.90 1211.17 C 853.73 1211.21 831.57 1211.13 809.40 1211.21 C 809.43 1220.99 809.39 1230.78 809.42 1240.57 C 834.95 1240.61 860.47 1240.58 886.00 1240.59 L 886.00 1268.41 C 850.20 1268.40 814.40 1268.43 778.59 1268.40 C 778.59 1221.29 778.57 1174.19 778.61 1127.08 Z" />
</g>
</svg>
