<?xml version="1.0" encoding="utf-8"?>
<!-- Generator: Adobe Illustrator 17.1.0, SVG Export Plug-In . SVG Version: 6.00 Build 0)  -->
<!DOCTYPE svg PUBLIC "-//W3C//DTD SVG 1.1//EN" "http://www.w3.org/Graphics/SVG/1.1/DTD/svg11.dtd">
<svg version="1.1" id="Layer_1" xmlns="http://www.w3.org/2000/svg" xmlns:xlink="http://www.w3.org/1999/xlink" x="0px" y="0px"
	 viewBox="0 0 841.89 595.28" enable-background="new 0 0 841.89 595.28" xml:space="preserve">
<linearGradient id="SVGID_1_" gradientUnits="userSpaceOnUse" x1="300.8363" y1="328.684" x2="399.2267" y2="211.4268">
	<stop  offset="0" style="stop-color:#536123"/>
	<stop  offset="0.1686" style="stop-color:#586724"/>
	<stop  offset="0.4016" style="stop-color:#697724"/>
	<stop  offset="0.6721" style="stop-color:#879623"/>
	<stop  offset="0.9689" style="stop-color:#B8C713"/>
	<stop  offset="1" style="stop-color:#BECD0F"/>
</linearGradient>
<polygon fill="url(#SVGID_1_)" points="368.347,215.731 368.347,251.778 377.164,274.456 368.347,263.52 368.347,263.688 
	329.695,215.731 295.707,215.731 295.707,324.38 331.715,324.38 331.715,274.24 372.075,324.38 404.356,324.38 404.356,215.731 "/>
<rect x="295.707" y="328.601" fill="#808080" width="108.644" height="21.163"/>
<g>
	<path fill="#FFFFFF" d="M328.64,345.561h3.569V332.86h-3.569V345.561z M319.579,341.038l-3.065-8.178h-3.703l5.483,12.755h2.542
		l5.492-12.755h-3.68L319.579,341.038z M370.021,332.86h-2.533l-5.492,12.755h3.699l0.537-1.434h5.065l0.542,1.434h3.668
		L370.021,332.86z M367.129,341.811l1.637-4.38l1.64,4.38H367.129z M342.484,332.86h-2.538l-5.493,12.755h3.704l0.538-1.434h5.064
		l0.538,1.434h3.674L342.484,332.86z M339.591,341.811l1.636-4.365l1.641,4.365H339.591z M387.251,332.86h-12.729v3.036h4.575v9.665
		h3.569v-9.665h4.585V332.86z M359.526,338.352c-0.642-0.331-1.382-0.432-3.3-0.432h-2.508c-0.802,0-1.123-0.316-1.123-1.079v-0.163
		c0-0.039,0-0.072,0.006-0.106l0,0c0.032-0.686,0.373-0.979,1.117-0.979h2.734c0.364,0,0.642,0.067,0.82,0.216c0.005,0-0.005,0,0,0
		c0.019,0.014,0.034,0.029,0.043,0.038c0.139,0.144,0.216,0.345,0.231,0.6c0.321-0.019,2.916-0.23,3.262-0.259
		c-0.069-0.322-0.148-0.614-0.235-0.878c0,0,0.005,0,0,0c-0.624-1.866-1.919-2.562-4.524-2.562h-1.986
		c-3.214,0-4.782,1.07-4.782,3.271v1.501c0,1.161,0.465,2.029,1.314,2.442c0.642,0.336,1.382,0.432,3.301,0.432h2.508
		c0.796,0,1.127,0.312,1.127,1.069v0.178c0,0.767-0.341,1.098-1.127,1.098h-2.734c-0.408,0-0.691-0.086-0.868-0.274
		c-0.135-0.148-0.207-0.35-0.226-0.618c-0.306,0.019-2.926,0.124-3.266,0.139c0.393,2.634,1.703,3.617,4.753,3.617h1.986
		c3.229,0,4.792-1.075,4.792-3.295v-1.511C360.841,339.633,360.376,338.765,359.526,338.352z"/>
</g>
<g>
	<path fill="#536123" d="M295.707,353.986h3.512l8.111,10.658v-10.658h3.755v17.306h-3.237l-8.385-11v11h-3.756V353.986z"/>
	<path fill="#536123" d="M322.405,353.861h3.516l7.415,17.431h-3.981l-1.578-3.882h-7.319l-1.583,3.882h-3.88L322.405,353.861z
		 M326.415,364.078l-2.298-5.612l-2.302,5.612H326.415z"/>
	<path fill="#536123" d="M339.049,357.501h-5.267v-3.514h14.337v3.514h-5.266v13.792h-3.804V357.501z"/>
	<path fill="#536123" d="M359.497,371.564c-2.326,0-4.154-0.643-5.492-1.941c-1.329-1.292-2.001-3.205-2.001-5.747v-9.89h3.81v9.794
		c0,1.414,0.325,2.485,0.987,3.195c0.658,0.72,1.574,1.078,2.744,1.078c1.171,0,2.087-0.345,2.744-1.036
		c0.661-0.694,0.987-1.73,0.987-3.118v-9.913h3.814v9.766c0,1.305-0.178,2.446-0.532,3.428c-0.356,0.979-0.863,1.794-1.521,2.443
		c-0.662,0.652-1.458,1.142-2.389,1.458C361.719,371.407,360.668,371.564,359.497,371.564z"/>
	<path fill="#536123" d="M372.203,353.986h7.914c2.193,0,3.876,0.585,5.047,1.755c0.983,0.991,1.482,2.312,1.482,3.956v0.048
		c0,1.407-0.346,2.542-1.027,3.431c-0.685,0.876-1.578,1.519-2.681,1.938l4.226,6.178h-4.451l-3.708-5.536h-0.053h-2.94v5.536h-3.81
		V353.986z M379.868,362.419c0.946,0,1.661-0.227,2.163-0.672c0.509-0.448,0.758-1.046,0.758-1.791v-0.048
		c0-0.825-0.264-1.449-0.796-1.861c-0.523-0.416-1.257-0.624-2.196-0.624h-3.785v4.995H379.868z"/>
	<path fill="#536123" d="M391.198,353.986h13.029v3.386h-9.271v3.514h8.159v3.387h-8.159v3.632h9.396v3.387h-13.153V353.986z"/>
</g>
<g>
	<g>
		<g>
			<rect x="444.783" y="328.383" fill="#808080" width="109.144" height="21.264"/>
			<g>
				<path fill="#FFFFFF" d="M477.864,345.423h3.586v-12.76h-3.586V345.423z M468.762,340.878l-3.079-8.214h-3.716l5.505,12.813
					h2.554l5.517-12.813h-3.694L468.762,340.878z M519.441,332.663h-2.548l-5.517,12.813h3.72l0.535-1.44h5.09l0.544,1.44h3.692
					L519.441,332.663z M516.53,341.656l1.645-4.401l1.654,4.401H516.53z M491.77,332.663h-2.551l-5.514,12.813h3.727l0.533-1.44
					h5.09l0.536,1.44h3.695L491.77,332.663z M488.866,341.656l1.643-4.388l1.654,4.388H488.866z M536.746,332.663h-12.783v3.051
					h4.593v9.709h3.583v-9.709h4.607V332.663z M508.9,338.18c-0.653-0.331-1.395-0.433-3.321-0.433h-2.52
					c-0.804,0-1.128-0.317-1.128-1.086v-0.163c0-0.038,0-0.073,0.004-0.105l0,0c0.034-0.689,0.379-0.982,1.124-0.982h2.746
					c0.366,0,0.647,0.065,0.822,0.216c0.005,0-0.003,0-0.003,0c0.027,0.016,0.039,0.03,0.052,0.039
					c0.136,0.147,0.213,0.347,0.228,0.602c0.32-0.019,2.929-0.232,3.275-0.26c-0.059-0.321-0.146-0.617-0.232-0.881c0,0,0.004,0,0,0
					c-0.629-1.874-1.932-2.576-4.547-2.576h-1.994c-3.227,0-4.804,1.076-4.804,3.29v1.508c0,1.165,0.466,2.037,1.319,2.45
					c0.65,0.337,1.386,0.434,3.316,0.434h2.519c0.804,0,1.133,0.313,1.133,1.075v0.179c0,0.772-0.342,1.105-1.133,1.105h-2.741
					c-0.415,0-0.696-0.088-0.878-0.276c-0.134-0.148-0.206-0.35-0.226-0.621c-0.309,0.02-2.938,0.125-3.283,0.14
					c0.395,2.644,1.718,3.633,4.777,3.633h1.994c3.241,0,4.814-1.08,4.814-3.309v-1.52
					C510.213,339.466,509.747,338.595,508.9,338.18z"/>
			</g>
		</g>
		<path fill="#212B54" d="M453.274,371.86c-1.276,0-2.461-0.232-3.552-0.693c-1.097-0.466-2.038-1.097-2.834-1.902
			c-0.796-0.8-1.417-1.751-1.863-2.843c-0.446-1.092-0.669-2.261-0.669-3.503v-0.049c0-1.242,0.223-2.406,0.669-3.493
			c0.446-1.082,1.067-2.033,1.863-2.853c0.796-0.82,1.747-1.465,2.858-1.941c1.105-0.471,2.334-0.708,3.678-0.708
			c0.824,0,1.572,0.068,2.232,0.199c0.665,0.136,1.267,0.315,1.814,0.548c0.549,0.233,1.054,0.514,1.515,0.844
			c0.465,0.33,0.897,0.694,1.295,1.091l-2.436,2.81c-0.68-0.611-1.373-1.092-2.076-1.441c-0.704-0.35-1.495-0.524-2.373-0.524
			c-0.728,0-1.402,0.141-2.023,0.422c-0.621,0.281-1.154,0.674-1.602,1.169c-0.446,0.495-0.795,1.072-1.043,1.727
			c-0.247,0.655-0.373,1.354-0.373,2.101v0.048c0,0.743,0.126,1.446,0.373,2.111c0.248,0.664,0.592,1.242,1.029,1.737
			c0.441,0.5,0.97,0.893,1.591,1.184c0.621,0.286,1.306,0.432,2.048,0.432c0.994,0,1.834-0.184,2.523-0.558
			c0.688-0.374,1.367-0.864,2.047-1.48l2.436,2.46c-0.446,0.48-0.912,0.912-1.388,1.29c-0.485,0.383-1.009,0.708-1.581,0.985
			c-0.568,0.272-1.193,0.48-1.873,0.621C454.88,371.792,454.118,371.86,453.274,371.86z"/>
		<path fill="#212B54" d="M470.979,354.175h7.947c2.203,0,3.892,0.587,5.07,1.762c0.994,0.995,1.489,2.319,1.489,3.974v0.053
			c0,1.407-0.345,2.552-1.028,3.44c-0.689,0.883-1.587,1.533-2.697,1.951l4.25,6.21h-4.474l-3.727-5.565h-0.048h-2.96v5.565h-3.823
			V354.175z M478.679,362.646c0.947,0,1.67-0.228,2.174-0.674c0.505-0.451,0.758-1.048,0.758-1.8v-0.048
			c0-0.835-0.263-1.456-0.796-1.873c-0.529-0.417-1.267-0.625-2.208-0.625h-3.804v5.021H478.679z"/>
		<path fill="#212B54" d="M495.254,354.175h3.823v17.39h-3.823V354.175z"/>
		<path fill="#212B54" d="M512.049,354.175h4.124l4.571,7.351l4.57-7.351h4.124v17.39h-3.774v-11.353l-4.896,7.428h-0.098
			l-4.847-7.355v11.281h-3.775V354.175z"/>
		<path fill="#212B54" d="M541.14,354.175h13.091v3.401h-9.316v3.527h8.2v3.406h-8.2v3.649h9.442v3.406H541.14V354.175z"/>
	</g>
	<g>
		<linearGradient id="SVGID_2_" gradientUnits="userSpaceOnUse" x1="445.877" y1="269.8521" x2="554.3317" y2="269.8521">
			<stop  offset="0" style="stop-color:#496396"/>
			<stop  offset="1" style="stop-color:#2A1C45"/>
		</linearGradient>
		<path fill="url(#SVGID_2_)" d="M469.945,221.855l-0.301,0.137c-0.204,0.091-0.409,0.183-0.606,0.286
			c-0.432,0.224-0.849,0.476-1.266,0.727l-0.603,0.356c-0.012,0.007-0.022,0.015-0.034,0.021v92.938
			c0.013,0.006,0.02,0.013,0.032,0.02l0.605,0.357c0.417,0.251,0.834,0.502,1.266,0.726c0.197,0.104,0.402,0.197,0.606,0.288
			l0.296,0.135c0.847,0.421,1.708,0.808,2.569,1.192v-98.372C471.646,221.052,470.785,221.438,469.945,221.855z"/>
		<linearGradient id="SVGID_3_" gradientUnits="userSpaceOnUse" x1="445.877" y1="269.8514" x2="554.3387" y2="269.8514">
			<stop  offset="0" style="stop-color:#496396"/>
			<stop  offset="1" style="stop-color:#2A1C45"/>
		</linearGradient>
		<path fill="url(#SVGID_3_)" d="M460.761,227.606c-0.526,0.409-0.992,0.83-1.48,1.247v81.997c0.488,0.417,0.954,0.838,1.48,1.247
			c1.184,0.919,2.501,1.811,3.892,2.696V224.91C463.262,225.795,461.942,226.687,460.761,227.606z"/>
		<linearGradient id="SVGID_4_" gradientUnits="userSpaceOnUse" x1="445.8791" y1="269.8517" x2="554.3318" y2="269.8517">
			<stop  offset="0" style="stop-color:#496396"/>
			<stop  offset="1" style="stop-color:#2A1C45"/>
		</linearGradient>
		<path fill="url(#SVGID_4_)" d="M451.423,238.132v63.44c1.402,2.421,3.168,4.752,5.374,6.981v-77.402
			C454.591,233.379,452.825,235.71,451.423,238.132z"/>
		<linearGradient id="SVGID_5_" gradientUnits="userSpaceOnUse" x1="445.8793" y1="269.8514" x2="554.325" y2="269.8514">
			<stop  offset="0" style="stop-color:#496396"/>
			<stop  offset="1" style="stop-color:#2A1C45"/>
		</linearGradient>
		<path fill="url(#SVGID_5_)" d="M516.079,293.09c-4.139,3.551-9.357,5.288-16.585,5.288c-5.075,0-10.868-2.692-14.085-6.545
			c-3.772-4.522-5.531-11.508-5.531-21.982c0-10.474,1.759-17.46,5.531-21.981c3.217-3.855,9.01-6.546,14.085-6.546
			c3.732,0,6.919,0.457,9.573,1.332c11.548,4.881,11.538,16.762,11.538,16.762h33.72l-1.68-7.853
			c-4.791-22.503-24.66-35.936-53.151-35.936c-2.632,0-5.381,0.144-8.405,0.438l-0.861,0.078c-0.655,0.056-1.309,0.113-1.936,0.198
			c-0.393,0.055-0.773,0.125-1.155,0.197l-1.271,0.217c-0.932,0.149-1.863,0.3-2.756,0.494c-1.232,0.267-2.417,0.601-3.649,0.951
			l-0.471,0.12c-0.272,0.065-0.543,0.133-0.81,0.216c-1.038,0.319-2.099,0.698-3.186,1.109v100.411
			c1.089,0.413,2.15,0.792,3.19,1.112c0.262,0.08,0.533,0.148,0.805,0.214l0.522,0.134c1.181,0.336,2.365,0.67,3.593,0.936
			c0.897,0.195,1.829,0.346,2.761,0.495l1.271,0.217c0.382,0.072,0.763,0.142,1.152,0.195c0.631,0.086,1.284,0.143,1.939,0.199
			l0.861,0.078c3.024,0.295,5.773,0.438,8.405,0.438c25.389,0,43.358-10.9,51.058-28.913c3.135-7.33,3.773-14.876,3.773-14.876
			h-31.322C523.003,280.285,521.634,288.321,516.079,293.09z"/>
		<linearGradient id="SVGID_6_" gradientUnits="userSpaceOnUse" x1="445.8799" y1="269.8514" x2="554.3028" y2="269.8514">
			<stop  offset="0" style="stop-color:#496396"/>
			<stop  offset="1" style="stop-color:#2A1C45"/>
		</linearGradient>
		<path fill="url(#SVGID_6_)" d="M445.88,269.851c0,9.287,0.023,18.264,3.059,26.442v-52.885
			C445.903,251.587,445.88,260.565,445.88,269.851z"/>
	</g>
</g>
</svg>
