<?xml version="1.0" encoding="UTF-8" ?>
<!DOCTYPE svg PUBLIC "-//W3C//DTD SVG 1.1//EN" "http://www.w3.org/Graphics/SVG/1.1/DTD/svg11.dtd">
<svg width="181pt" height="263pt" viewBox="0 0 181 263" version="1.1" xmlns="http://www.w3.org/2000/svg">
<g id="#ffffffff">
<path fill="#ffffff" opacity="1.00" d=" M 63.29 159.69 C 64.74 159.69 66.20 159.69 67.66 159.73 C 67.71 165.06 67.69 170.41 67.67 175.74 C 66.16 175.80 64.65 175.79 63.14 175.76 C 63.20 170.41 62.90 164.99 63.29 159.69 Z" />
<path fill="#ffffff" opacity="1.00" d=" M 43.19 159.71 C 44.77 159.67 46.35 159.69 47.93 159.75 C 49.16 162.94 50.43 166.13 51.48 169.39 C 53.73 166.75 53.83 162.61 55.80 159.70 C 57.30 159.68 58.80 159.69 60.31 159.74 C 58.07 165.03 55.71 170.27 53.54 175.59 C 52.44 175.94 51.30 176.02 50.10 175.81 C 47.76 170.46 45.46 165.09 43.19 159.71 Z" />
<path fill="#ffffff" opacity="1.00" d=" M 77.19 159.91 C 78.47 159.64 80.83 159.02 81.13 160.93 C 83.11 165.93 85.66 170.81 87.33 175.87 C 85.85 175.88 84.38 175.87 82.91 175.85 C 82.67 175.38 82.19 174.44 81.95 173.97 C 79.96 173.91 77.96 173.92 75.97 173.97 C 75.73 174.44 75.26 175.38 75.03 175.84 C 73.49 175.87 71.96 175.88 70.42 175.87 C 72.55 170.50 75.02 165.26 77.19 159.91 M 78.71 166.21 C 78.14 167.79 77.56 169.36 77.02 170.95 C 78.32 170.97 79.61 170.97 80.90 170.94 C 80.10 169.47 80.22 167.03 78.71 166.21 Z" />
<path fill="#ffffff" opacity="1.00" d=" M 90.51 160.59 C 93.04 159.08 96.11 159.74 98.90 159.65 C 101.28 159.52 103.74 161.59 103.48 164.07 C 101.80 164.01 99.85 164.85 98.61 163.31 C 97.12 163.10 95.60 163.21 94.10 163.27 C 93.00 163.67 93.06 165.27 93.80 166.00 C 96.86 166.55 101.08 164.90 103.27 167.78 C 104.00 170.23 104.33 174.16 101.35 175.25 C 98.48 176.15 95.31 176.02 92.37 175.54 C 90.32 175.17 89.31 173.14 89.00 171.27 C 92.26 170.17 94.84 172.93 98.09 172.12 C 100.03 172.84 99.93 168.60 98.00 169.32 C 95.11 168.94 90.71 170.38 89.20 167.03 C 88.92 164.90 88.47 162.03 90.51 160.59 Z" />
<path fill="#ffffff" opacity="1.00" d=" M 111.98 159.73 C 112.78 159.73 114.37 159.73 115.16 159.72 C 117.58 165.04 119.78 170.45 122.14 175.80 C 120.58 175.86 119.02 175.91 117.47 175.83 C 117.11 172.91 113.88 174.21 111.89 173.94 C 110.64 173.84 109.90 174.47 109.66 175.84 C 108.12 175.90 106.57 175.87 105.03 175.84 C 107.30 170.45 109.59 165.06 111.98 159.73 M 113.45 165.77 C 112.85 167.53 112.06 169.22 111.65 171.03 C 112.63 171.03 114.59 171.04 115.57 171.05 C 115.08 169.21 114.42 167.41 113.45 165.77 Z" />
<path fill="#ffffff" opacity="1.00" d=" M 120.83 159.73 C 126.17 159.71 131.52 159.66 136.86 159.75 C 136.88 161.03 136.87 162.31 136.81 163.59 C 134.90 163.63 132.99 163.54 131.09 163.62 C 131.05 167.66 131.13 171.71 131.06 175.76 C 129.55 175.79 128.03 175.81 126.53 175.73 C 126.48 171.69 126.56 167.64 126.50 163.60 C 124.71 163.55 122.92 163.62 121.13 163.60 C 120.70 162.40 120.60 161.11 120.83 159.73 Z" />
<path fill="#ffffff" opacity="1.00" d=" M 37.56 224.94 C 41.74 224.94 45.91 224.91 50.09 224.95 C 55.02 224.89 55.65 233.27 51.03 234.30 C 48.27 234.54 45.49 234.37 42.72 234.40 C 42.73 233.73 42.73 232.38 42.73 231.70 C 45.11 231.65 47.49 231.73 49.87 231.68 C 51.92 231.88 51.22 229.05 51.08 227.87 C 47.51 227.35 43.84 227.73 40.23 227.66 C 40.23 231.55 40.26 235.45 40.23 239.34 C 39.55 239.34 38.20 239.35 37.52 239.35 C 37.52 234.55 37.45 229.74 37.56 224.94 Z" />
<path fill="#ffffff" opacity="1.00" d=" M 60.17 225.24 C 63.42 224.60 66.77 225.08 70.06 224.94 C 72.60 225.01 74.53 227.46 74.09 229.96 C 73.78 232.94 75.23 237.18 71.89 238.89 C 68.70 239.82 65.29 239.16 62.01 239.34 C 59.64 239.55 57.23 237.50 57.63 235.02 C 58.01 231.75 56.24 226.87 60.17 225.24 M 60.63 236.34 C 63.81 237.13 67.36 236.66 70.66 236.58 C 71.75 234.14 71.17 230.76 70.94 228.06 C 67.81 227.05 64.19 227.53 60.94 227.79 C 59.83 230.39 60.30 233.59 60.63 236.34 Z" />
<path fill="#ffffff" opacity="1.00" d=" M 78.11 225.03 C 78.79 225.04 80.15 225.06 80.83 225.07 C 80.90 228.72 80.73 232.38 80.91 236.03 C 83.56 237.62 87.22 236.26 90.25 236.73 C 90.25 237.38 90.25 238.69 90.25 239.34 C 86.38 238.75 80.61 241.09 78.29 236.86 C 77.81 232.96 78.15 228.96 78.11 225.03 Z" />
<path fill="#ffffff" opacity="1.00" d=" M 96.15 233.12 C 92.29 232.01 92.93 225.43 96.95 225.08 C 101.22 224.90 105.59 224.71 109.85 225.20 C 109.82 225.79 109.74 226.96 109.71 227.55 C 105.42 227.70 101.06 227.19 96.83 227.81 C 96.72 228.39 96.52 229.53 96.42 230.10 C 100.04 232.25 105.41 229.16 108.98 231.99 C 111.45 234.49 109.70 239.39 106.04 239.33 C 101.99 239.38 97.95 239.35 93.91 239.35 C 93.90 238.69 93.90 237.38 93.90 236.73 C 98.13 236.57 102.42 236.98 106.62 236.53 C 107.47 235.50 107.48 234.48 106.63 233.50 C 103.15 233.19 99.57 233.87 96.15 233.12 Z" />
<path fill="#ffffff" opacity="1.00" d=" M 115.79 227.80 C 116.89 224.26 121.15 224.82 124.03 225.04 C 125.76 225.13 127.00 226.74 127.42 228.30 C 128.39 231.97 129.35 235.65 130.29 239.34 C 129.54 239.32 128.04 239.29 127.29 239.28 C 126.76 237.67 126.59 235.94 125.88 234.40 C 123.74 234.40 121.59 234.43 119.45 234.42 C 119.60 233.74 119.89 232.40 120.03 231.73 C 121.72 231.37 123.79 232.24 125.26 231.34 C 125.01 230.08 124.60 228.89 124.05 227.75 C 122.37 227.56 120.65 227.55 118.98 227.76 C 117.46 231.46 116.93 235.51 115.74 239.33 C 115.01 239.33 113.53 239.34 112.80 239.34 C 113.76 235.49 114.71 231.62 115.79 227.80 Z" />
<path fill="#ffffff" opacity="1.00" d=" M 130.62 224.95 C 135.44 224.93 140.27 224.93 145.10 224.95 C 145.10 225.59 145.11 226.89 145.11 227.53 C 143.15 227.57 141.19 227.50 139.24 227.54 C 139.16 231.46 139.24 235.39 139.20 239.31 C 138.27 239.38 137.34 239.39 136.41 239.34 C 136.35 235.42 136.41 231.49 136.39 227.57 C 134.45 227.47 132.51 227.59 130.57 227.52 C 130.58 226.88 130.60 225.59 130.62 224.95 Z" />
</g>
<g id="#707f1bff">
<path fill="#707f1b" opacity="1.00" d=" M 21.74 12.48 L 22.67 12.48 C 22.98 14.55 22.45 17.17 24.17 18.75 C 37.07 29.52 49.98 40.27 62.86 51.07 C 82.32 68.02 102.36 84.28 122.07 100.95 C 130.13 108.27 138.95 114.69 147.14 121.87 C 150.16 124.41 153.01 127.18 156.21 129.51 C 156.94 129.06 157.65 128.58 158.35 128.07 C 158.35 135.08 158.37 142.08 158.35 149.08 C 144.83 149.13 131.32 149.09 117.81 149.10 C 100.73 128.35 84.07 107.19 67.10 86.33 C 67.08 90.63 67.13 94.93 67.08 99.23 C 66.19 96.09 64.48 93.20 61.79 91.28 C 49.75 82.04 38.48 71.85 26.72 62.26 C 23.85 60.17 22.97 56.62 21.75 53.49 C 21.69 39.82 21.73 26.15 21.74 12.48 Z" />
</g>
<g id="#808f17ff">
<path fill="#808f17" opacity="1.00" d=" M 22.67 12.48 C 36.69 12.63 50.86 12.14 64.78 12.75 C 84.35 37.21 104.09 61.53 123.80 85.87 C 122.10 80.73 119.83 75.79 118.06 70.67 C 119.20 70.78 120.49 70.68 121.34 71.62 C 132.43 80.51 143.04 89.99 154.00 99.05 C 155.15 100.24 156.75 100.53 158.34 100.42 C 158.36 109.64 158.37 118.85 158.35 128.07 C 157.65 128.58 156.94 129.06 156.21 129.51 C 153.01 127.18 150.16 124.41 147.14 121.87 C 138.95 114.69 130.13 108.27 122.07 100.95 C 102.36 84.28 82.32 68.02 62.86 51.07 C 49.98 40.27 37.07 29.52 24.17 18.75 C 22.45 17.17 22.98 14.55 22.67 12.48 Z" />
</g>
<g id="#a8b70dff">
<path fill="#a8b70d" opacity="1.00" d=" M 113.01 12.48 C 121.84 12.48 130.67 12.44 139.51 12.50 C 141.93 15.76 145.35 18.01 148.41 20.60 C 151.69 23.22 154.51 26.47 158.33 28.37 C 158.37 37.99 158.38 47.62 158.34 57.24 C 148.06 48.65 137.72 40.13 127.47 31.51 C 122.60 27.67 118.13 23.34 113.02 19.83 C 112.97 17.38 113.01 14.93 113.01 12.48 Z" />
</g>
<g id="#b6c509ff">
<path fill="#b6c509" opacity="1.00" d=" M 139.51 12.50 C 145.78 12.44 152.06 12.47 158.34 12.49 C 158.36 17.78 158.39 23.07 158.33 28.37 C 154.51 26.47 151.69 23.22 148.41 20.60 C 145.35 18.01 141.93 15.76 139.51 12.50 Z" />
</g>
<g id="#9aa910ff">
<path fill="#9aa910" opacity="1.00" d=" M 113.02 19.83 C 118.13 23.34 122.60 27.67 127.47 31.51 C 137.72 40.13 148.06 48.65 158.34 57.24 C 158.36 64.29 158.39 71.33 158.33 78.38 C 156.01 77.73 153.76 76.74 151.99 75.07 C 142.94 67.05 133.57 59.40 124.44 51.48 C 120.50 48.09 115.96 45.26 113.01 40.89 C 113.00 33.87 112.99 26.85 113.02 19.83 Z" />
</g>
<g id="#8d9c13ff">
<path fill="#8d9c13" opacity="1.00" d=" M 113.01 40.89 C 115.96 45.26 120.50 48.09 124.44 51.48 C 133.57 59.40 142.94 67.05 151.99 75.07 C 153.76 76.74 156.01 77.73 158.33 78.38 C 158.36 85.72 158.38 93.07 158.34 100.42 C 156.75 100.53 155.15 100.24 154.00 99.05 C 143.04 89.99 132.43 80.51 121.34 71.62 C 120.49 70.68 119.20 70.78 118.06 70.67 L 118.03 70.67 C 116.31 66.46 114.71 62.21 113.05 57.98 C 112.94 52.28 113.03 46.58 113.01 40.89 Z" />
</g>
<g id="#63721eff">
<path fill="#63721e" opacity="1.00" d=" M 21.75 53.49 C 22.97 56.62 23.85 60.17 26.72 62.26 C 38.48 71.85 49.75 82.04 61.79 91.28 C 64.48 93.20 66.19 96.09 67.08 99.23 C 67.09 111.28 67.14 123.34 67.06 135.39 C 65.06 130.61 66.82 125.32 65.59 120.42 C 51.71 108.99 38.11 97.18 24.22 85.75 C 22.34 83.53 23.13 80.14 21.76 77.60 C 21.69 69.56 21.73 61.53 21.75 53.49 Z" />
</g>
<g id="#586721ff">
<path fill="#586721" opacity="1.00" d=" M 21.76 77.60 C 23.13 80.14 22.34 83.53 24.22 85.75 C 38.11 97.18 51.71 108.99 65.59 120.42 C 66.82 125.32 65.06 130.61 67.06 135.39 C 67.14 139.95 67.08 144.52 67.09 149.08 C 51.97 149.11 36.85 149.11 21.73 149.08 C 21.74 125.26 21.69 101.42 21.76 77.60 Z" />
</g>
<g id="#808080ff">
<path fill="#808080" opacity="1.00" d=" M 22.22 154.30 C 67.44 154.32 112.66 154.30 157.88 154.31 L 158.40 154.62 C 158.27 163.44 158.44 172.26 158.31 181.07 C 112.80 181.09 67.28 181.10 21.76 181.07 C 21.66 172.27 21.79 163.46 21.69 154.66 L 22.22 154.30 M 63.29 159.69 C 62.90 164.99 63.20 170.41 63.14 175.76 C 64.65 175.79 66.16 175.80 67.67 175.74 C 67.69 170.41 67.71 165.06 67.66 159.73 C 66.20 159.69 64.74 159.69 63.29 159.69 M 43.19 159.71 C 45.46 165.09 47.76 170.46 50.10 175.81 C 51.30 176.02 52.44 175.94 53.54 175.59 C 55.71 170.27 58.07 165.03 60.31 159.74 C 58.80 159.69 57.30 159.68 55.80 159.70 C 53.83 162.61 53.73 166.75 51.48 169.39 C 50.43 166.13 49.16 162.94 47.93 159.75 C 46.35 159.69 44.77 159.67 43.19 159.71 M 77.19 159.91 C 75.02 165.26 72.55 170.50 70.42 175.87 C 71.96 175.88 73.49 175.87 75.03 175.84 C 75.26 175.38 75.73 174.44 75.97 173.97 C 77.96 173.92 79.96 173.91 81.95 173.97 C 82.19 174.44 82.67 175.38 82.91 175.85 C 84.38 175.87 85.85 175.88 87.33 175.87 C 85.66 170.81 83.11 165.93 81.13 160.93 C 80.83 159.02 78.47 159.64 77.19 159.91 M 90.51 160.59 C 88.47 162.03 88.92 164.90 89.20 167.03 C 90.71 170.38 95.11 168.94 98.00 169.32 C 99.93 168.60 100.03 172.84 98.09 172.12 C 94.84 172.93 92.26 170.17 89.00 171.27 C 89.31 173.14 90.32 175.17 92.37 175.54 C 95.31 176.02 98.48 176.15 101.35 175.25 C 104.33 174.16 104.00 170.23 103.27 167.78 C 101.08 164.90 96.86 166.55 93.80 166.00 C 93.06 165.27 93.00 163.67 94.10 163.27 C 95.60 163.21 97.12 163.10 98.61 163.31 C 99.85 164.85 101.80 164.01 103.48 164.07 C 103.74 161.59 101.28 159.52 98.90 159.65 C 96.11 159.74 93.04 159.08 90.51 160.59 M 111.98 159.73 C 109.59 165.06 107.30 170.45 105.03 175.84 C 106.57 175.87 108.12 175.90 109.66 175.84 C 109.90 174.47 110.64 173.84 111.89 173.94 C 113.88 174.21 117.11 172.91 117.47 175.83 C 119.02 175.91 120.58 175.86 122.14 175.80 C 119.78 170.45 117.58 165.04 115.16 159.72 C 114.37 159.73 112.78 159.73 111.98 159.73 M 120.83 159.73 C 120.60 161.11 120.70 162.40 121.13 163.60 C 122.92 163.62 124.71 163.55 126.50 163.60 C 126.56 167.64 126.48 171.69 126.53 175.73 C 128.03 175.81 129.55 175.79 131.06 175.76 C 131.13 171.71 131.05 167.66 131.09 163.62 C 132.99 163.54 134.90 163.63 136.81 163.59 C 136.87 162.31 136.88 161.03 136.86 159.75 C 131.52 159.66 126.17 159.71 120.83 159.73 Z" />
<path fill="#808080" opacity="1.00" d=" M 78.71 166.21 C 80.22 167.03 80.10 169.47 80.90 170.94 C 79.61 170.97 78.32 170.97 77.02 170.95 C 77.56 169.36 78.14 167.79 78.71 166.21 Z" />
</g>
<g id="#929292ff">
<path fill="#929292" opacity="1.00" d=" M 113.45 165.77 C 114.42 167.41 115.08 169.21 115.57 171.05 C 114.59 171.04 112.63 171.03 111.65 171.03 C 112.06 169.22 112.85 167.53 113.45 165.77 Z" />
</g>
<g id="#516023ff">
<path fill="#516023" opacity="1.00" d=" M 21.75 186.24 C 23.19 186.22 24.63 186.22 26.07 186.25 C 29.60 190.47 32.71 195.10 36.25 199.33 C 36.30 194.97 36.23 190.61 36.28 186.26 C 37.88 186.21 39.48 186.23 41.08 186.23 C 41.13 193.53 41.11 200.83 41.09 208.12 C 39.71 208.17 38.34 208.16 36.96 208.10 C 33.42 203.63 30.14 198.92 26.48 194.55 C 26.46 199.07 26.52 203.60 26.46 208.13 C 24.89 208.15 23.32 208.15 21.74 208.12 C 21.72 200.83 21.71 193.53 21.75 186.24 Z" />
<path fill="#516023" opacity="1.00" d=" M 55.25 186.12 C 56.76 186.01 58.28 185.99 59.79 186.14 C 62.87 193.47 66.06 200.77 69.09 208.13 C 67.40 208.14 65.71 208.16 64.03 208.12 C 63.25 206.54 62.80 204.82 61.95 203.29 C 58.99 203.25 56.03 203.27 53.07 203.27 C 52.00 204.67 51.74 206.56 50.91 208.12 C 49.25 208.16 47.59 208.14 45.93 208.13 C 48.99 200.77 52.16 193.46 55.25 186.12 M 54.66 198.86 C 56.52 198.93 58.38 198.93 60.24 198.87 C 59.30 196.62 58.37 194.37 57.46 192.12 C 56.50 194.35 55.64 196.64 54.66 198.86 Z" />
<path fill="#516023" opacity="1.00" d=" M 117.91 186.24 C 122.59 186.55 127.49 185.51 132.02 187.00 C 137.80 189.09 137.39 198.57 131.55 200.36 C 133.23 203.00 135.13 205.48 136.79 208.14 C 134.89 208.13 132.99 208.16 131.09 208.13 C 129.56 205.90 128.07 203.64 126.60 201.36 C 125.36 201.13 124.09 201.07 122.81 201.17 C 122.60 203.48 122.83 205.81 122.71 208.13 C 121.11 208.15 119.51 208.15 117.91 208.12 C 117.89 200.83 117.88 193.53 117.91 186.24 M 122.74 196.81 C 125.33 196.57 128.50 197.71 130.59 195.71 C 131.59 194.30 131.36 192.01 129.77 191.13 C 127.52 190.32 125.09 190.77 122.76 190.68 C 122.71 192.72 122.73 194.77 122.74 196.81 Z" />
<path fill="#516023" opacity="1.00" d=" M 141.81 186.24 C 147.26 186.25 152.72 186.21 158.17 186.25 C 158.18 187.69 158.20 189.13 158.16 190.57 C 154.29 190.62 150.42 190.54 146.56 190.60 C 146.50 192.09 146.52 193.58 146.61 195.07 C 149.97 194.82 153.35 194.98 156.72 194.94 C 156.81 196.39 156.83 197.84 156.78 199.29 C 153.37 199.34 149.96 199.27 146.55 199.32 C 146.52 200.80 146.52 202.29 146.55 203.78 C 150.48 203.84 154.41 203.76 158.34 203.81 C 158.38 205.24 158.38 206.68 158.33 208.13 C 152.83 208.15 147.32 208.14 141.81 208.13 C 141.79 200.83 141.78 193.53 141.81 186.24 Z" />
<path fill="#516023" opacity="1.00" d=" M 92.47 186.25 C 94.08 186.22 95.69 186.22 97.31 186.25 C 97.48 191.02 97.00 195.83 97.56 200.57 C 98.23 205.05 105.74 205.09 106.45 200.63 C 106.97 195.87 106.53 191.04 106.68 186.25 C 108.30 186.22 109.91 186.22 111.52 186.25 C 111.33 191.51 111.94 196.83 111.15 202.04 C 109.39 210.72 94.43 210.72 92.79 201.97 C 92.10 196.77 92.64 191.49 92.47 186.25 Z" />
<path fill="#516023" opacity="1.00" d=" M 21.73 210.77 C 24.27 213.72 28.05 215.61 31.97 215.54 C 74.10 215.54 116.22 215.53 158.35 215.55 C 158.37 223.35 158.35 231.15 158.36 238.95 C 158.56 244.42 153.45 249.28 148.02 248.93 C 109.33 248.93 70.64 248.94 31.95 248.93 C 26.91 249.18 22.14 245.02 21.75 239.98 C 21.70 230.24 21.74 220.50 21.73 210.77 M 37.56 224.94 C 37.45 229.74 37.52 234.55 37.52 239.35 C 38.20 239.35 39.55 239.34 40.23 239.34 C 40.26 235.45 40.23 231.55 40.23 227.66 C 43.84 227.73 47.51 227.35 51.08 227.87 C 51.22 229.05 51.92 231.88 49.87 231.68 C 47.49 231.73 45.11 231.65 42.73 231.70 C 42.73 232.38 42.73 233.73 42.72 234.40 C 45.49 234.37 48.27 234.54 51.03 234.30 C 55.65 233.27 55.02 224.89 50.09 224.95 C 45.91 224.91 41.74 224.94 37.56 224.94 M 60.17 225.24 C 56.24 226.87 58.01 231.75 57.63 235.02 C 57.23 237.50 59.64 239.55 62.01 239.34 C 65.29 239.16 68.70 239.82 71.89 238.89 C 75.23 237.18 73.78 232.94 74.09 229.96 C 74.53 227.46 72.60 225.01 70.06 224.94 C 66.77 225.08 63.42 224.60 60.17 225.24 M 78.11 225.03 C 78.15 228.96 77.81 232.96 78.29 236.86 C 80.61 241.09 86.38 238.75 90.25 239.34 C 90.25 238.69 90.25 237.38 90.25 236.73 C 87.22 236.26 83.56 237.62 80.91 236.03 C 80.73 232.38 80.90 228.72 80.83 225.07 C 80.15 225.06 78.79 225.04 78.11 225.03 M 96.15 233.12 C 99.57 233.87 103.15 233.19 106.63 233.50 C 107.48 234.48 107.47 235.50 106.62 236.53 C 102.42 236.98 98.13 236.57 93.90 236.73 C 93.90 237.38 93.90 238.69 93.91 239.35 C 97.95 239.35 101.99 239.38 106.04 239.33 C 109.70 239.39 111.45 234.49 108.98 231.99 C 105.41 229.16 100.04 232.25 96.42 230.10 C 96.52 229.53 96.72 228.39 96.83 227.81 C 101.06 227.19 105.42 227.70 109.71 227.55 C 109.74 226.96 109.82 225.79 109.85 225.20 C 105.59 224.71 101.22 224.90 96.95 225.08 C 92.93 225.43 92.29 232.01 96.15 233.12 M 115.79 227.80 C 114.71 231.62 113.76 235.49 112.80 239.34 C 113.53 239.34 115.01 239.33 115.74 239.33 C 116.93 235.51 117.46 231.46 118.98 227.76 C 120.65 227.55 122.37 227.56 124.05 227.75 C 124.60 228.89 125.01 230.08 125.26 231.34 C 123.79 232.24 121.72 231.37 120.03 231.73 C 119.89 232.40 119.60 233.74 119.45 234.42 C 121.59 234.43 123.74 234.40 125.88 234.40 C 126.59 235.94 126.76 237.67 127.29 239.28 C 128.04 239.29 129.54 239.32 130.29 239.34 C 129.35 235.65 128.39 231.97 127.42 228.30 C 127.00 226.74 125.76 225.13 124.03 225.04 C 121.15 224.82 116.89 224.26 115.79 227.80 M 130.62 224.95 C 130.60 225.59 130.58 226.88 130.57 227.52 C 132.51 227.59 134.45 227.47 136.39 227.57 C 136.41 231.49 136.35 235.42 136.41 239.34 C 137.34 239.39 138.27 239.38 139.20 239.31 C 139.24 235.39 139.16 231.46 139.24 227.54 C 141.19 227.50 143.15 227.57 145.11 227.53 C 145.11 226.89 145.10 225.59 145.10 224.95 C 140.27 224.93 135.44 224.93 130.62 224.95 Z" />
<path fill="#516023" opacity="1.00" d=" M 60.63 236.34 C 60.30 233.59 59.83 230.39 60.94 227.79 C 64.19 227.53 67.81 227.05 70.94 228.06 C 71.17 230.76 71.75 234.14 70.66 236.58 C 67.36 236.66 63.81 237.13 60.63 236.34 Z" />
</g>
<g id="#516022ff">
<path fill="#516022" opacity="1.00" d=" M 69.54 186.25 C 75.59 186.23 81.64 186.23 87.70 186.26 C 87.74 187.75 87.74 189.25 87.69 190.75 C 85.50 190.81 83.31 190.72 81.12 190.77 C 81.09 196.55 81.15 202.34 81.10 208.12 C 79.45 208.15 77.81 208.15 76.17 208.13 C 76.11 202.34 76.18 196.56 76.13 190.78 C 73.93 190.72 71.74 190.81 69.54 190.74 C 69.51 189.25 69.51 187.75 69.54 186.25 Z" />
</g>
</svg>
