<?xml version="1.0" encoding="UTF-8" standalone="yes"?>
<svg xmlns="http://www.w3.org/2000/svg" xmlns:xlink="http://www.w3.org/1999/xlink" width="136px" height="106.66666666666666px" viewBox="0 0 102 80" version="1.1">
  <g id="surface1">
    <path style=" stroke:none;fill-rule:nonzero;fill:rgb(9.019608%,24.313725%,49.019608%);fill-opacity:1;" d="M 25.875 0 L 29.847656 0 L 29.847656 31.753906 L 25.875 31.753906 Z M 25.875 0 "/>
    <path style=" stroke:none;fill-rule:nonzero;fill:rgb(9.019608%,24.313725%,49.019608%);fill-opacity:1;" d="M 25.875 65.511719 L 29.847656 65.511719 L 29.847656 79.933594 L 25.875 79.933594 Z M 25.875 65.511719 "/>
    <path style=" stroke:none;fill-rule:nonzero;fill:rgb(9.019608%,24.313725%,49.019608%);fill-opacity:1;" d="M 18.757812 31.753906 L 25.875 31.753906 L 25.875 65.511719 L 17.972656 65.511719 L 7.117188 45.832031 L 7.117188 65.511719 L 0 65.511719 L 0 31.753906 L 7.421875 31.753906 L 18.757812 52.78125 Z M 18.757812 31.753906 "/>
    <path style=" stroke:none;fill-rule:evenodd;fill:rgb(9.019608%,24.313725%,49.019608%);fill-opacity:1;" d="M 41.714844 31.75 C 49.777344 31.75 53.710938 35.496094 54.246094 43.515625 L 54.246094 53.675781 C 53.636719 62.261719 49.777344 65.511719 41.714844 65.511719 L 29.84375 65.511719 L 29.84375 31.753906 Z M 41.015625 38.140625 L 37.457031 38.140625 L 37.457031 59.148438 L 41.015625 59.148438 C 44.542969 59.148438 47.019531 57.664062 47.019531 52.949219 L 47.019531 44.265625 C 47.019531 39.789062 44.769531 38.140625 41.015625 38.140625 "/>
    <path style=" stroke:none;fill-rule:evenodd;fill:rgb(9.019608%,24.313725%,49.019608%);fill-opacity:1;" d="M 69.691406 37.734375 L 64.96875 37.730469 L 64.96875 46.457031 L 69.691406 46.457031 C 72.574219 46.457031 74.449219 44.8125 74.449219 41.882812 C 74.449219 38.949219 73.121094 37.734375 69.691406 37.734375 M 69.152344 52.542969 L 75.136719 65.511719 L 83.148438 65.511719 L 76.039062 51.199219 C 80.054688 49.601562 81.644531 46.347656 81.5625 41.972656 C 81.4375 35.316406 78.136719 31.753906 69.386719 31.753906 L 57.699219 31.753906 L 57.699219 65.511719 L 65.113281 65.511719 L 65.113281 52.566406 Z M 69.152344 52.542969 "/>
    <path style=" stroke:none;fill-rule:evenodd;fill:rgb(9.019608%,24.313725%,49.019608%);fill-opacity:1;" d="M 93.546875 28.371094 C 98.179688 28.371094 101.9375 32.148438 101.9375 36.8125 C 101.9375 41.472656 98.179688 45.253906 93.546875 45.253906 C 88.914062 45.253906 85.160156 41.472656 85.160156 36.8125 C 85.160156 32.148438 88.914062 28.371094 93.546875 28.371094 M 96.917969 40.230469 L 96.917969 31.777344 L 88.472656 34.828125 L 88.472656 36.929688 L 91.269531 35.910156 L 91.269531 42.261719 Z M 93.546875 29.609375 C 89.597656 29.609375 86.390625 32.832031 86.390625 36.8125 C 86.390625 40.789062 89.597656 44.015625 93.546875 44.015625 C 97.503906 44.015625 100.707031 40.789062 100.707031 36.8125 C 100.707031 32.832031 97.503906 29.609375 93.546875 29.609375 "/>
  </g>
</svg>