<?xml version="1.0" encoding="UTF-8" standalone="no"?>
<svg xmlns:rdf="http://www.w3.org/1999/02/22-rdf-syntax-ns#" xmlns="http://www.w3.org/2000/svg" height="483.595" width="620.61603" version="1.1" xmlns:cc="http://creativecommons.org/ns#" xmlns:dc="http://purl.org/dc/elements/1.1/">
  <g transform="matrix(5,0,0,-5,-289.4385,3982.51)" fill="#173e7d">
    <path d="m89.393 796.502h4.837v-38.424h-4.837v38.424z"/>
    <path d="m89.393 717.233h4.837v-17.45h-4.837v17.45z"/>
    <path d="m80.7287 758.0781h8.664v-40.846h-9.619l-13.222 23.815v-23.815h-8.664v40.848l9.039-0.001 13.802-25.442v25.441z"/>
    <path d="m108.682 758.0833c9.819 0 14.608-4.53 15.257-14.235v-12.292c-0.743-10.392-5.438-14.322-15.257-14.322h-14.453v40.844l14.453 0.005zm-0.851-7.733-4.334 0.003v-25.423h4.334c4.295 0 7.312 1.796 7.312 7.503v10.505c0 5.419-2.742 7.412-7.312 7.412" fill-rule="evenodd"/>
    <path d="m142.7492 750.8438-5.751 0.002v-10.555h5.751c3.507 0 5.791 1.987 5.791 5.535 0 3.549-1.618 5.018-5.791 5.018m-0.66-17.918 7.287-15.693h9.759l-8.657 17.316c4.888 1.937 6.825 5.874 6.725 11.167-0.151 8.051-4.171 12.362-14.825 12.362h-14.235v-40.845h9.031v15.663l4.915 0.03z" fill-rule="evenodd"/>
    <path d="m171.7969 762.1746c5.641 0 10.214-4.573 10.214-10.214s-4.573-10.214-10.214-10.214-10.214 4.573-10.214 10.214 4.573 10.214 10.214 10.214m4.102-14.35v10.225l-10.281-3.691v-2.54l3.404 1.23v-7.685l6.877 2.461zm-4.102 12.851c-4.813 0-8.716-3.902-8.716-8.715 0-4.814 3.903-8.716 8.716-8.716 4.814 0 8.716 3.902 8.716 8.716 0 4.813-3.902 8.715-8.716 8.715" fill-rule="evenodd"/>
  </g>
</svg>
