<?xml version="1.0" encoding="UTF-8" ?>
<!DOCTYPE svg PUBLIC "-//W3C//DTD SVG 1.1//EN" "http://www.w3.org/Graphics/SVG/1.1/DTD/svg11.dtd">
<svg width="800pt" height="250pt" viewBox="0 0 800 250" version="1.1" xmlns="http://www.w3.org/2000/svg">
<g id="#8b7e6fbb">
<path fill="#8b7e6f" opacity="0.73" d=" M 218.97 37.03 C 226.45 36.87 233.84 35.13 241.31 35.10 C 233.97 36.64 226.49 37.54 219.01 37.90 L 218.97 37.03 Z" />
<path fill="#8b7e6f" opacity="0.73" d=" M 243.25 34.73 C 243.45 35.81 243.58 36.89 243.64 37.99 C 243.66 92.99 243.51 148.00 243.71 203.01 C 233.83 203.32 223.92 203.16 214.03 203.12 C 211.72 203.15 211.93 200.02 211.08 198.51 C 212.58 200.37 214.22 202.64 216.93 202.34 C 225.62 202.42 234.33 202.55 243.01 202.16 C 243.42 146.36 242.95 90.54 243.25 34.73 Z" />
<path fill="#8b7e6f" opacity="0.73" d=" M 296.77 36.91 C 301.59 34.73 307.10 34.85 312.28 35.11 C 307.09 35.53 301.94 36.31 296.77 36.91 Z" />
<path fill="#8b7e6f" opacity="0.73" d=" M 282.88 43.86 C 285.25 41.24 288.36 39.13 291.93 38.66 C 289.01 40.56 285.99 42.29 282.88 43.86 Z" />
<path fill="#8b7e6f" opacity="0.73" d=" M 342.06 54.89 C 342.54 49.75 343.61 44.70 344.88 39.71 C 345.21 44.92 343.41 49.99 342.89 55.16 L 342.06 54.89 Z" />
<path fill="#8b7e6f" opacity="0.73" d=" M 274.14 57.34 C 274.34 54.14 275.92 51.20 278.28 49.08 C 277.10 51.93 275.72 54.69 274.14 57.34 Z" />
<path fill="#8b7e6f" opacity="0.73" d=" M 339.91 64.79 C 340.61 61.77 341.34 58.76 341.94 55.71 C 342.28 59.16 341.52 62.58 340.73 65.92 C 337.08 65.81 333.53 64.90 329.93 64.43 C 325.21 63.93 320.47 64.37 315.78 64.92 C 323.43 61.54 331.94 64.47 339.91 64.79 Z" />
<path fill="#8b7e6f" opacity="0.73" d=" M 310.78 69.59 C 310.94 67.82 312.53 66.82 313.82 65.87 C 309.16 72.51 311.62 80.94 311.00 88.47 C 321.21 88.76 331.42 88.56 341.63 88.56 C 341.39 95.29 339.79 101.88 339.92 108.63 L 339.08 107.84 C 339.19 101.66 340.07 95.52 340.77 89.38 C 330.63 89.05 320.46 89.80 310.34 89.03 C 310.48 82.56 309.85 76.02 310.78 69.59 Z" />
<path fill="#8b7e6f" opacity="0.73" d=" M 271.46 70.23 C 271.66 69.86 272.06 69.11 272.27 68.73 C 272.41 75.55 272.47 82.37 272.24 89.19 C 265.88 89.51 259.51 89.26 253.15 89.30 C 252.77 98.57 252.90 107.85 253.05 117.12 C 259.40 117.49 265.75 117.20 272.09 117.29 C 272.32 120.52 272.44 123.76 272.40 127.00 C 272.21 152.19 272.55 177.39 272.22 202.57 C 272.01 202.14 271.59 201.26 271.37 200.82 C 271.22 173.23 271.48 145.62 271.25 118.03 C 264.84 117.97 258.43 118.04 252.02 117.99 C 252.05 108.17 251.83 98.34 252.13 88.52 C 258.55 88.62 264.98 88.67 271.40 88.54 C 271.42 82.44 271.11 76.32 271.46 70.23 Z" />
<path fill="#8b7e6f" opacity="0.73" d=" M 162.91 84.93 C 164.52 83.31 166.97 84.19 168.99 83.97 C 174.21 84.21 179.50 83.60 184.68 84.24 L 185.26 84.97 C 177.81 84.83 170.36 84.57 162.91 84.93 Z" />
<path fill="#8b7e6f" opacity="0.73" d=" M 487.52 85.20 C 491.72 85.11 495.79 83.71 500.02 84.08 C 503.71 84.22 507.41 84.08 511.11 83.97 L 510.88 85.11 C 503.33 84.31 495.79 85.25 488.29 86.00 L 487.52 85.20 Z" />
<path fill="#8b7e6f" opacity="0.73" d=" M 581.97 85.16 C 590.91 83.41 600.01 84.40 609.06 84.00 L 608.91 85.18 C 600.01 84.50 591.04 84.74 582.21 86.08 L 581.97 85.16 Z" />
<path fill="#8b7e6f" opacity="0.73" d=" M 677.88 92.84 C 687.23 87.13 698.22 85.05 708.98 84.03 C 715.48 84.30 721.98 83.95 728.49 84.10 L 727.80 85.09 C 714.28 84.34 700.41 84.86 687.50 89.32 C 681.73 91.27 676.69 94.74 671.63 98.02 C 672.90 95.47 675.62 94.34 677.88 92.84 Z" />
<path fill="#8b7e6f" opacity="0.73" d=" M 152.83 87.05 C 155.68 85.57 158.97 84.81 162.18 85.07 C 159.09 85.88 155.97 86.52 152.83 87.05 Z" />
<path fill="#8b7e6f" opacity="0.73" d=" M 511.62 85.19 C 516.28 85.23 520.94 87.67 524.07 91.06 C 520.05 88.84 515.89 86.88 511.62 85.19 Z" />
<path fill="#8b7e6f" opacity="0.73" d=" M 609.73 85.27 C 614.47 84.31 619.07 86.32 623.60 87.42 C 628.84 89.36 634.25 91.96 637.95 96.25 C 634.39 94.03 630.93 91.60 627.10 89.86 C 621.63 87.28 615.57 86.57 609.73 85.27 Z" />
<path fill="#8b7e6f" opacity="0.73" d=" M 728.69 85.19 C 732.69 84.46 736.61 85.72 740.50 86.55 C 742.55 87.04 744.75 87.47 746.35 88.98 C 740.53 87.40 734.60 86.34 728.69 85.19 Z" />
<path fill="#8b7e6f" opacity="0.73" d=" M 23.84 86.95 C 25.71 85.87 27.94 86.38 29.99 86.28 C 60.66 86.34 91.32 86.30 121.99 86.30 C 122.03 94.87 122.00 103.44 122.02 112.01 C 122.16 113.64 120.63 114.69 119.80 115.90 C 121.88 110.85 121.32 105.32 121.36 100.00 C 121.38 95.71 121.37 91.42 121.12 87.14 C 88.69 86.93 56.26 87.32 23.84 86.95 Z" />
<path fill="#8b7e6f" opacity="0.73" d=" M 419.94 86.32 C 429.85 86.50 439.76 86.38 449.68 86.39 C 450.25 87.98 450.95 89.58 450.85 91.32 C 450.07 89.98 449.26 88.67 448.47 87.35 C 439.37 87.11 430.25 87.32 421.15 87.22 C 420.85 125.46 421.03 163.70 421.06 201.94 C 433.39 202.02 445.73 202.04 458.07 201.93 C 458.49 176.51 457.77 151.06 458.42 125.65 C 463.54 123.45 468.71 121.34 474.13 119.97 C 473.09 121.19 471.49 121.53 470.05 122.03 C 466.34 123.17 462.83 124.83 459.33 126.48 C 459.17 152.02 459.41 177.56 459.22 203.10 C 446.09 203.21 432.97 203.19 419.85 203.11 C 419.66 166.74 419.85 130.37 419.75 94.00 C 419.74 91.44 419.79 88.88 419.94 86.32 Z" />
<path fill="#8b7e6f" opacity="0.73" d=" M 478.85 86.89 C 481.65 86.38 484.50 85.59 487.36 86.13 C 481.90 87.27 476.41 88.34 471.03 89.82 C 464.68 91.35 458.71 94.05 452.48 95.95 C 452.02 94.62 451.57 93.28 451.10 91.95 C 452.26 92.95 453.28 95.34 455.13 94.14 C 462.76 90.89 470.80 88.80 478.85 86.89 Z" />
<path fill="#8b7e6f" opacity="0.73" d=" M 572.86 88.01 C 575.00 85.86 578.55 85.44 581.38 86.22 C 578.55 86.88 575.71 87.49 572.86 88.01 Z" />
<path fill="#8b7e6f" opacity="0.73" d=" M 149.03 88.02 L 150.06 87.65 L 150.81 88.15 C 150.31 88.33 149.30 88.71 148.80 88.89 L 149.03 88.02 Z" />
<path fill="#8b7e6f" opacity="0.73" d=" M 561.38 93.12 C 564.38 90.47 568.20 88.35 572.29 88.22 C 568.72 90.00 565.08 91.63 561.38 93.12 Z" />
<path fill="#8b7e6f" opacity="0.73" d=" M 145.00 91.04 C 144.45 89.49 147.17 88.36 148.23 89.37 C 147.37 90.25 146.33 91.20 145.00 91.04 Z" />
<path fill="#8b7e6f" opacity="0.73" d=" M 746.93 89.34 C 747.96 87.89 751.33 89.20 750.83 90.98 C 749.40 90.76 748.05 90.24 746.93 89.34 Z" />
<path fill="#8b7e6f" opacity="0.73" d=" M 142.15 92.28 C 142.57 92.19 143.41 92.00 143.83 91.91 C 143.42 92.22 142.60 92.85 142.19 93.16 L 142.15 92.28 Z" />
<path fill="#8b7e6f" opacity="0.73" d=" M 524.96 91.94 C 532.12 98.46 533.66 108.81 534.16 118.01 C 534.10 146.37 534.22 174.74 534.10 203.10 C 521.00 203.15 507.90 203.31 494.82 203.01 C 494.26 179.02 494.72 155.00 494.59 131.00 C 494.38 127.76 495.29 124.25 493.78 121.22 C 492.28 118.80 488.91 119.47 486.84 117.82 C 490.15 117.75 494.31 118.80 495.30 122.43 C 496.57 127.85 495.84 133.49 495.98 139.00 C 496.08 159.98 495.90 180.96 496.02 201.94 C 508.34 202.03 520.65 202.03 532.97 201.94 C 533.12 175.96 532.89 149.98 533.04 124.00 C 533.09 117.86 533.07 111.63 531.43 105.66 C 530.18 100.71 527.60 96.26 524.96 91.94 Z" />
<path fill="#8b7e6f" opacity="0.73" d=" M 753.00 91.78 C 756.19 92.66 759.32 94.35 761.19 97.17 C 758.31 95.60 755.62 93.74 753.00 91.78 Z" />
<path fill="#8b7e6f" opacity="0.73" d=" M 560.37 93.64 C 560.46 93.59 560.64 93.48 560.73 93.43 C 560.64 93.48 560.46 93.59 560.37 93.64 Z" />
<path fill="#8b7e6f" opacity="0.73" d=" M 552.83 99.82 C 554.77 97.87 556.56 95.56 559.22 94.55 C 555.83 98.10 552.20 101.52 549.72 105.81 C 545.50 113.10 543.84 121.63 543.90 130.00 C 543.93 140.69 543.76 151.39 544.01 162.08 C 544.14 169.13 546.30 175.92 548.98 182.37 C 546.83 181.11 546.54 178.44 545.63 176.34 C 543.63 171.48 543.30 166.18 542.89 161.00 C 542.92 150.34 543.01 139.67 542.87 129.01 C 542.81 118.56 545.85 107.77 552.83 99.82 Z" />
<path fill="#8b7e6f" opacity="0.73" d=" M 638.82 97.08 C 643.20 99.92 645.55 104.82 647.48 109.49 C 653.01 124.62 651.08 141.03 651.20 156.81 C 628.31 156.72 605.42 156.74 582.54 156.79 C 582.12 162.39 581.70 169.43 587.21 172.81 C 594.38 176.99 603.10 175.79 611.05 176.07 C 617.40 175.22 623.79 174.82 630.15 173.98 C 630.69 174.05 631.77 174.20 632.31 174.27 C 627.42 175.49 622.38 175.82 617.39 176.32 C 608.94 176.97 600.34 177.55 591.97 175.85 C 588.39 175.20 584.86 173.27 583.13 169.96 C 580.92 165.81 581.03 160.96 581.05 156.40 C 604.02 156.32 627.00 156.58 649.97 156.29 C 650.18 149.53 649.99 142.77 650.06 136.01 C 650.07 127.66 649.97 119.08 647.03 111.15 C 645.31 105.93 642.06 101.44 638.82 97.08 Z" />
<path fill="#8b7e6f" opacity="0.73" d=" M 762.04 98.07 C 763.77 97.64 764.40 98.29 763.94 100.02 C 762.97 99.68 762.34 99.03 762.04 98.07 Z" />
<path fill="#8b7e6f" opacity="0.73" d=" M 663.87 106.99 C 665.50 104.28 667.08 101.29 669.97 99.72 C 666.44 104.59 663.52 109.85 660.97 115.29 C 661.10 112.30 662.41 109.53 663.87 106.99 Z" />
<path fill="#8b7e6f" opacity="0.73" d=" M 764.88 100.83 C 768.15 102.94 769.86 106.63 771.00 110.22 C 768.80 107.20 766.82 104.02 764.88 100.83 Z" />
<path fill="#8b7e6f" opacity="0.73" d=" M 129.40 115.49 C 130.69 111.21 130.99 106.41 133.94 102.83 C 131.82 109.23 130.04 115.76 129.22 122.46 C 129.13 120.15 128.65 117.75 129.40 115.49 Z" />
<path fill="#8b7e6f" opacity="0.73" d=" M 337.87 117.08 C 338.26 114.31 338.66 111.53 339.00 108.75 C 339.29 111.82 339.20 114.91 338.62 117.93 C 329.42 118.14 320.22 117.91 311.02 118.03 C 310.98 146.39 311.00 174.75 311.01 203.11 C 297.83 203.02 284.60 203.60 271.45 202.80 L 272.22 202.57 C 284.85 201.93 297.54 202.79 310.18 202.19 C 310.58 173.91 310.24 145.61 310.34 117.33 C 319.51 117.08 328.70 117.64 337.87 117.08 Z" />
<path fill="#8b7e6f" opacity="0.73" d=" M 593.92 111.88 C 598.97 110.14 604.84 111.13 609.54 113.48 C 615.46 117.14 614.99 124.98 615.05 131.04 C 604.28 130.48 593.46 131.43 582.72 130.51 C 593.13 130.11 603.57 130.56 614.00 130.30 C 613.97 125.31 614.52 119.23 610.44 115.55 C 605.93 111.57 599.53 111.99 593.92 111.88 Z" />
<path fill="#8b7e6f" opacity="0.73" d=" M 581.66 130.58 C 579.04 122.77 583.99 111.80 593.19 112.11 C 589.84 113.45 586.11 114.89 584.22 118.19 C 581.54 121.82 583.02 126.53 581.66 130.58 Z" />
<path fill="#8b7e6f" opacity="0.73" d=" M 23.86 113.07 C 41.25 112.71 58.67 112.90 76.07 112.96 C 75.90 113.50 75.57 114.57 75.40 115.11 C 74.10 113.39 71.90 113.66 70.00 113.62 C 55.66 113.71 41.32 113.60 26.99 113.69 C 25.90 113.72 24.85 113.51 23.86 113.07 Z" />
<path fill="#8b7e6f" opacity="0.73" d=" M 707.21 114.37 C 710.14 113.44 713.34 112.45 716.37 113.56 C 711.28 114.24 706.11 115.20 701.77 118.13 C 702.68 115.87 705.13 115.14 707.21 114.37 Z" />
<path fill="#8b7e6f" opacity="0.73" d=" M 717.46 113.66 C 721.03 112.30 724.82 113.83 728.22 115.02 C 733.61 116.85 736.97 122.42 737.05 127.99 C 737.48 138.31 737.17 148.66 737.23 159.00 C 736.96 161.77 737.37 165.20 735.03 167.21 C 737.19 157.62 735.87 147.74 736.23 138.01 C 736.09 131.70 737.40 124.35 732.79 119.22 C 728.95 114.83 722.82 114.49 717.46 113.66 Z" />
<path fill="#8b7e6f" opacity="0.73" d=" M 176.86 114.96 C 180.79 113.78 185.13 113.91 189.07 115.01 C 185.00 114.98 180.93 115.05 176.86 114.96 Z" />
<path fill="#8b7e6f" opacity="0.73" d=" M 72.99 117.78 C 72.04 116.48 74.01 114.35 75.40 115.11 C 75.19 116.40 74.02 117.16 72.99 117.78 Z" />
<path fill="#8b7e6f" opacity="0.73" d=" M 167.24 125.90 C 167.10 120.84 170.54 115.12 176.10 115.12 C 171.91 116.76 168.36 120.37 168.12 125.05 C 167.84 136.37 168.08 147.70 168.00 159.02 C 167.92 162.41 168.17 165.82 168.96 169.12 C 166.82 166.57 167.27 163.10 167.18 160.01 C 167.27 148.64 167.12 137.27 167.24 125.90 Z" />
<path fill="#8b7e6f" opacity="0.73" d=" M 190.62 115.31 C 195.41 114.84 200.12 116.01 204.83 116.64 L 204.83 117.37 C 200.08 116.81 195.30 116.32 190.62 115.31 Z" />
<path fill="#8b7e6f" opacity="0.73" d=" M 474.76 119.77 C 478.11 118.51 481.67 117.89 485.25 117.81 L 484.69 118.63 C 481.43 119.28 478.09 119.71 474.76 119.77 Z" />
<path fill="#8b7e6f" opacity="0.73" d=" M 696.70 128.45 C 697.08 125.38 697.45 121.81 700.12 119.80 C 698.19 125.32 696.62 131.08 696.95 136.99 C 697.33 146.70 695.89 156.69 698.90 166.11 C 700.23 170.33 704.42 172.51 707.95 174.67 C 702.97 174.28 699.03 170.13 697.62 165.53 C 696.08 160.51 696.59 155.18 696.50 150.00 C 696.65 142.82 696.23 135.62 696.70 128.45 Z" />
<path fill="#8b7e6f" opacity="0.73" d=" M 128.51 121.73 L 129.22 122.46 C 129.29 136.86 129.45 151.26 129.13 165.66 L 128.42 166.55 C 127.87 157.38 128.33 148.18 128.18 138.99 C 128.33 133.24 127.82 127.46 128.51 121.73 Z" />
<path fill="#8b7e6f" opacity="0.73" d=" M 658.45 124.20 C 658.67 123.82 659.11 123.04 659.33 122.65 C 659.04 139.49 657.62 156.55 660.90 173.21 C 658.89 170.98 659.10 167.56 658.56 164.74 C 658.38 151.23 658.61 137.71 658.45 124.20 Z" />
<path fill="#8b7e6f" opacity="0.73" d=" M 111.30 125.68 C 111.37 125.59 111.51 125.42 111.58 125.33 C 111.51 125.42 111.37 125.59 111.30 125.68 Z" />
<path fill="#8b7e6f" opacity="0.73" d=" M 64.31 128.17 C 63.79 126.53 64.36 125.78 66.03 125.93 C 65.90 127.02 65.32 127.77 64.31 128.17 Z" />
<path fill="#8b7e6f" opacity="0.73" d=" M 61.08 131.92 C 59.93 130.71 61.89 128.34 63.29 129.26 C 62.92 130.40 62.15 131.36 61.08 131.92 Z" />
<path fill="#8b7e6f" opacity="0.73" d=" M 102.56 135.77 C 104.00 133.20 105.93 130.94 108.18 129.04 C 107.19 131.90 104.67 133.76 102.56 135.77 Z" />
<path fill="#8b7e6f" opacity="0.73" d=" M 57.03 136.88 C 55.87 135.73 57.76 133.32 59.14 134.18 C 58.87 135.36 58.14 136.36 57.03 136.88 Z" />
<path fill="#8b7e6f" opacity="0.73" d=" M 53.24 140.58 C 53.31 140.49 53.46 140.30 53.54 140.21 C 53.46 140.30 53.31 140.49 53.24 140.58 Z" />
<path fill="#8b7e6f" opacity="0.73" d=" M 94.44 145.75 C 94.52 145.66 94.67 145.48 94.74 145.39 C 94.67 145.48 94.52 145.66 94.44 145.75 Z" />
<path fill="#8b7e6f" opacity="0.73" d=" M 88.83 151.70 C 89.37 150.17 90.40 148.89 91.84 148.12 C 92.91 149.61 90.45 152.51 88.83 151.70 Z" />
<path fill="#8b7e6f" opacity="0.73" d=" M 41.06 155.89 C 39.90 154.69 41.87 152.28 43.26 153.24 C 42.89 154.38 42.13 155.33 41.06 155.89 Z" />
<path fill="#8b7e6f" opacity="0.73" d=" M 37.32 159.64 C 37.40 159.55 37.54 159.37 37.61 159.28 C 37.54 159.37 37.40 159.55 37.32 159.64 Z" />
<path fill="#8b7e6f" opacity="0.73" d=" M 81.62 160.71 C 81.91 160.27 82.51 159.41 82.81 158.97 L 83.14 159.82 L 82.53 160.71 L 81.62 160.71 Z" />
<path fill="#8b7e6f" opacity="0.73" d=" M 33.21 164.55 C 33.28 164.46 33.43 164.28 33.51 164.19 C 33.43 164.28 33.28 164.46 33.21 164.55 Z" />
<path fill="#8b7e6f" opacity="0.73" d=" M 78.49 164.82 C 78.56 164.73 78.70 164.55 78.77 164.46 C 78.70 164.55 78.56 164.73 78.49 164.82 Z" />
<path fill="#8b7e6f" opacity="0.73" d=" M 129.13 165.66 C 130.00 171.89 131.28 178.05 132.90 184.13 C 130.40 181.15 130.39 177.08 129.41 173.49 C 128.71 170.93 129.08 168.26 129.13 165.66 Z" />
<path fill="#8b7e6f" opacity="0.73" d=" M 708.50 174.75 C 717.54 175.64 728.99 176.21 734.87 167.83 C 733.92 172.28 729.20 174.05 725.35 175.28 C 719.85 176.42 713.78 177.06 708.50 174.75 Z" />
<path fill="#8b7e6f" opacity="0.73" d=" M 72.85 170.86 C 73.02 169.83 73.58 169.09 74.53 168.65 C 75.14 170.30 74.58 171.04 72.85 170.86 Z" />
<path fill="#8b7e6f" opacity="0.73" d=" M 197.97 169.88 C 198.44 169.64 199.38 169.17 199.84 168.93 L 199.74 169.83 L 198.78 170.32 L 197.97 169.88 Z" />
<path fill="#8b7e6f" opacity="0.73" d=" M 24.67 174.96 C 25.47 172.81 27.27 171.37 28.96 169.95 C 27.82 171.84 26.37 173.53 24.67 174.96 Z" />
<path fill="#8b7e6f" opacity="0.73" d=" M 188.72 173.49 C 190.86 172.63 193.05 171.89 195.25 171.20 C 193.52 172.98 191.16 173.66 188.72 173.49 Z" />
<path fill="#8b7e6f" opacity="0.73" d=" M 633.01 174.14 C 635.68 172.24 639.49 171.72 642.72 172.07 C 639.53 172.96 636.29 173.68 633.01 174.14 Z" />
<path fill="#8b7e6f" opacity="0.73" d=" M 171.12 171.79 C 176.26 174.75 182.32 175.03 188.00 173.74 C 185.65 175.34 182.65 174.91 179.96 174.98 C 176.81 174.82 172.96 174.86 171.12 171.79 Z" />
<path fill="#8b7e6f" opacity="0.73" d=" M 643.38 171.90 C 645.48 171.50 646.45 176.62 644.60 177.16 C 644.04 175.44 643.54 173.70 643.38 171.90 Z" />
<path fill="#8b7e6f" opacity="0.73" d=" M 69.27 176.03 C 69.77 175.14 70.30 174.25 70.86 173.39 C 70.96 175.64 73.45 174.80 74.96 175.01 C 89.64 174.97 104.32 175.04 119.00 174.97 C 120.45 175.26 122.85 174.30 123.52 176.15 C 112.35 176.48 101.17 176.23 90.00 176.30 C 83.09 176.22 76.17 176.57 69.27 176.03 Z" />
<path fill="#8b7e6f" opacity="0.73" d=" M 661.12 173.84 C 663.10 178.48 665.44 182.96 668.06 187.28 C 664.24 183.98 661.52 178.89 661.12 173.84 Z" />
<path fill="#8b7e6f" opacity="0.73" d=" M 764.36 188.33 C 767.54 184.89 769.50 180.58 772.00 176.67 C 771.81 179.62 770.07 182.12 768.52 184.54 C 765.39 189.39 761.19 193.87 755.70 195.98 C 758.67 193.54 761.75 191.18 764.36 188.33 Z" />
<path fill="#8b7e6f" opacity="0.73" d=" M 644.78 177.82 L 645.62 178.28 C 646.75 182.52 648.23 186.84 647.91 191.29 C 646.50 186.89 645.66 182.35 644.78 177.82 Z" />
<path fill="#8b7e6f" opacity="0.73" d=" M 549.41 182.83 C 550.32 183.58 550.94 184.60 551.23 185.75 C 549.69 186.64 548.05 183.85 549.41 182.83 Z" />
<path fill="#8b7e6f" opacity="0.73" d=" M 133.91 185.88 C 135.22 187.80 136.37 189.82 137.43 191.89 C 135.42 190.46 134.46 188.20 133.91 185.88 Z" />
<path fill="#8b7e6f" opacity="0.73" d=" M 551.75 186.86 C 557.49 193.01 564.61 197.51 572.32 200.76 C 567.67 200.32 563.58 197.74 559.83 195.15 C 556.81 192.79 553.27 190.55 551.75 186.86 Z" />
<path fill="#8b7e6f" opacity="0.73" d=" M 669.12 188.14 C 670.61 189.12 671.86 190.39 672.85 191.88 C 671.08 192.98 668.00 189.90 669.12 188.14 Z" />
<path fill="#8b7e6f" opacity="0.73" d=" M 648.08 192.00 C 649.34 193.65 649.63 195.77 650.15 197.73 C 647.03 198.59 643.91 200.18 640.60 199.76 C 643.31 198.89 646.01 198.00 648.71 197.07 C 648.49 195.38 648.29 193.68 648.08 192.00 Z" />
<path fill="#8b7e6f" opacity="0.73" d=" M 208.36 193.89 C 210.29 191.98 211.12 195.28 210.87 196.79 C 209.62 197.19 208.44 195.01 208.36 193.89 Z" />
<path fill="#8b7e6f" opacity="0.73" d=" M 673.69 192.92 C 677.85 195.28 682.05 197.57 686.25 199.85 C 681.63 198.83 676.74 196.65 673.69 192.92 Z" />
<path fill="#8b7e6f" opacity="0.73" d=" M 141.42 196.24 C 141.51 196.31 141.68 196.45 141.77 196.52 C 141.68 196.45 141.51 196.31 141.42 196.24 Z" />
<path fill="#8b7e6f" opacity="0.73" d=" M 202.99 196.68 C 203.45 196.43 204.37 195.94 204.83 195.70 L 204.73 196.60 L 203.78 197.10 L 202.99 196.68 Z" />
<path fill="#8b7e6f" opacity="0.73" d=" M 195.62 199.66 C 197.77 198.62 200.00 197.76 202.28 197.04 C 200.39 198.59 197.99 199.26 195.62 199.66 Z" />
<path fill="#8b7e6f" opacity="0.73" d=" M 749.77 198.70 C 751.03 197.93 752.38 197.30 753.81 196.88 C 754.72 198.70 750.16 200.81 749.77 198.70 Z" />
<path fill="#8b7e6f" opacity="0.73" d=" M 144.17 197.77 C 145.37 198.04 146.41 198.73 147.12 199.74 C 146.01 200.94 143.41 199.26 144.17 197.77 Z" />
<path fill="#8b7e6f" opacity="0.73" d=" M 736.67 202.87 C 740.86 201.63 745.11 200.53 749.22 199.00 C 748.09 200.89 745.80 201.22 743.88 201.81 C 741.51 202.40 739.13 203.34 736.67 202.87 Z" />
<path fill="#8b7e6f" opacity="0.73" d=" M 183.89 203.14 C 187.23 201.84 190.70 200.90 194.21 200.18 C 191.23 202.30 187.47 202.97 183.89 203.14 Z" />
<path fill="#8b7e6f" opacity="0.73" d=" M 624.66 202.76 C 629.68 201.59 634.75 200.71 639.84 199.91 L 640.10 200.83 C 634.94 201.34 629.89 203.60 624.66 202.76 Z" />
<path fill="#8b7e6f" opacity="0.73" d=" M 686.81 200.09 C 691.56 201.17 696.26 202.55 701.09 203.29 C 712.60 204.78 724.25 204.30 735.76 203.05 L 736.60 203.72 C 720.91 206.36 704.62 206.16 689.27 201.72 C 688.29 201.43 687.47 200.88 686.81 200.09 Z" />
<path fill="#8b7e6f" opacity="0.73" d=" M 149.34 200.84 C 151.31 201.03 153.21 201.67 154.86 202.78 C 153.27 203.96 149.43 202.85 149.34 200.84 Z" />
<path fill="#8b7e6f" opacity="0.73" d=" M 572.95 200.99 C 575.42 201.48 577.88 202.03 580.32 202.69 C 577.78 203.04 574.96 202.72 572.95 200.99 Z" />
<path fill="#8b7e6f" opacity="0.73" d=" M 155.55 203.16 C 164.69 204.96 173.99 204.67 183.17 203.38 C 178.83 205.54 173.73 205.21 169.00 205.51 C 164.48 205.29 159.65 205.32 155.55 203.16 Z" />
<path fill="#8b7e6f" opacity="0.73" d=" M 581.10 202.83 C 595.25 205.01 609.65 204.41 623.84 202.88 L 623.99 203.84 C 614.66 204.40 605.38 205.95 596.03 205.37 C 590.98 204.63 585.88 204.71 580.85 203.92 L 581.10 202.83 Z" />
</g>
<g id="#fb8503ff">
<path fill="#fb8503" opacity="1.00" d=" M 241.31 35.10 C 241.79 35.01 242.76 34.82 243.25 34.73 C 242.95 90.54 243.42 146.36 243.01 202.16 C 234.33 202.55 225.62 202.42 216.93 202.34 C 214.22 202.64 212.58 200.37 211.08 198.51 C 211.03 198.08 210.92 197.22 210.87 196.79 C 211.12 195.28 210.29 191.98 208.36 193.89 C 207.24 194.56 206.23 195.72 204.83 195.70 C 204.37 195.94 203.45 196.43 202.99 196.68 L 202.28 197.04 C 200.00 197.76 197.77 198.62 195.62 199.66 C 195.27 199.79 194.56 200.05 194.21 200.18 C 190.70 200.90 187.23 201.84 183.89 203.14 L 183.17 203.38 C 173.99 204.67 164.69 204.96 155.55 203.16 L 154.86 202.78 C 153.21 201.67 151.31 201.03 149.34 200.84 C 148.78 200.56 147.68 200.01 147.12 199.74 C 146.41 198.73 145.37 198.04 144.17 197.77 C 143.57 197.46 142.37 196.83 141.77 196.52 C 141.68 196.45 141.51 196.31 141.42 196.24 C 139.97 194.91 138.44 193.60 137.43 191.89 C 136.37 189.82 135.22 187.80 133.91 185.88 C 133.65 185.44 133.15 184.57 132.90 184.13 C 131.28 178.05 130.00 171.89 129.13 165.66 C 129.45 151.26 129.29 136.86 129.22 122.46 C 130.04 115.76 131.82 109.23 133.94 102.83 C 135.95 99.15 138.50 95.18 142.19 93.16 C 142.60 92.85 143.42 92.22 143.83 91.91 L 144.09 91.09 L 145.00 91.04 C 146.33 91.20 147.37 90.25 148.23 89.37 L 148.80 88.89 C 149.30 88.71 150.31 88.33 150.81 88.15 C 151.31 87.87 152.32 87.32 152.83 87.05 C 155.97 86.52 159.09 85.88 162.18 85.07 L 162.91 84.93 C 170.36 84.57 177.81 84.83 185.26 84.97 C 191.88 84.71 198.34 86.32 204.87 87.13 C 205.06 71.20 204.47 55.25 205.17 39.35 C 209.75 38.65 214.36 38.02 219.01 37.90 C 226.49 37.54 233.97 36.64 241.31 35.10 M 176.86 114.96 L 176.10 115.12 C 170.54 115.12 167.10 120.84 167.24 125.90 C 167.12 137.27 167.27 148.64 167.18 160.01 C 167.27 163.10 166.82 166.57 168.96 169.12 C 169.59 170.08 170.32 170.97 171.12 171.79 C 172.96 174.86 176.81 174.82 179.96 174.98 C 182.65 174.91 185.65 175.34 188.00 173.74 L 188.72 173.49 C 191.16 173.66 193.52 172.98 195.25 171.20 C 196.21 170.87 197.11 170.43 197.97 169.88 L 198.78 170.32 L 199.74 169.83 L 199.84 168.93 C 201.59 168.02 203.15 166.80 204.77 165.70 C 204.97 149.59 204.85 133.48 204.83 117.37 L 204.83 116.64 C 200.12 116.01 195.41 114.84 190.62 115.31 C 190.23 115.23 189.46 115.09 189.07 115.01 C 185.13 113.91 180.79 113.78 176.86 114.96 Z" />
<path fill="#fb8503" opacity="1.00" d=" M 312.28 35.11 C 323.33 34.52 334.46 35.46 345.19 38.21 C 345.11 38.58 344.96 39.34 344.88 39.71 C 343.61 44.70 342.54 49.75 342.06 54.89 L 341.94 55.71 C 341.34 58.76 340.61 61.77 339.91 64.79 C 331.94 64.47 323.43 61.54 315.78 64.92 C 315.29 65.16 314.31 65.63 313.82 65.87 C 312.53 66.82 310.94 67.82 310.78 69.59 C 309.85 76.02 310.48 82.56 310.34 89.03 C 320.46 89.80 330.63 89.05 340.77 89.38 C 340.07 95.52 339.19 101.66 339.08 107.84 L 339.00 108.75 C 338.66 111.53 338.26 114.31 337.87 117.08 C 328.70 117.64 319.51 117.08 310.34 117.33 C 310.24 145.61 310.58 173.91 310.18 202.19 C 297.54 202.79 284.85 201.93 272.22 202.57 C 272.55 177.39 272.21 152.19 272.40 127.00 C 272.44 123.76 272.32 120.52 272.09 117.29 C 265.75 117.20 259.40 117.49 253.05 117.12 C 252.90 107.85 252.77 98.57 253.15 89.30 C 259.51 89.26 265.88 89.51 272.24 89.19 C 272.47 82.37 272.41 75.55 272.27 68.73 C 272.24 64.89 272.41 60.85 274.14 57.34 C 275.72 54.69 277.10 51.93 278.28 49.08 C 279.18 46.90 280.76 44.96 282.88 43.86 C 285.99 42.29 289.01 40.56 291.93 38.66 C 293.45 37.85 295.10 37.31 296.77 36.91 C 301.94 36.31 307.09 35.53 312.28 35.11 Z" />
<path fill="#fb8503" opacity="1.00" d=" M 23.84 86.95 C 56.26 87.32 88.69 86.93 121.12 87.14 C 121.37 91.42 121.38 95.71 121.36 100.00 C 121.32 105.32 121.88 110.85 119.80 115.90 C 116.90 118.90 114.31 122.18 111.58 125.33 C 111.51 125.42 111.37 125.59 111.30 125.68 C 110.33 126.86 109.30 128.00 108.18 129.04 C 105.93 130.94 104.00 133.20 102.56 135.77 C 100.28 139.24 97.33 142.17 94.74 145.39 C 94.67 145.48 94.52 145.66 94.44 145.75 C 93.69 146.67 92.83 147.46 91.84 148.12 C 90.40 148.89 89.37 150.17 88.83 151.70 C 87.38 154.51 85.35 157.07 82.81 158.97 C 82.51 159.41 81.91 160.27 81.62 160.71 C 80.77 162.03 79.72 163.21 78.77 164.46 C 78.70 164.55 78.56 164.73 78.49 164.82 C 77.32 166.23 76.09 167.65 74.53 168.65 C 73.58 169.09 73.02 169.83 72.85 170.86 C 72.32 171.79 71.66 172.63 70.86 173.39 C 70.30 174.25 69.77 175.14 69.27 176.03 C 76.17 176.57 83.09 176.22 90.00 176.30 C 101.17 176.23 112.35 176.48 123.52 176.15 C 123.13 185.12 123.52 194.10 123.31 203.07 C 90.21 203.13 57.11 203.12 24.01 203.08 C 24.10 193.87 23.89 184.66 24.11 175.46 L 24.67 174.96 C 26.37 173.53 27.82 171.84 28.96 169.95 C 30.17 167.99 31.77 166.33 33.21 164.55 C 33.28 164.46 33.43 164.28 33.51 164.19 C 34.78 162.67 36.10 161.19 37.32 159.64 C 37.40 159.55 37.54 159.37 37.61 159.28 C 38.64 158.03 39.71 156.79 41.06 155.89 C 42.13 155.33 42.89 154.38 43.26 153.24 C 46.02 148.62 49.99 144.86 53.24 140.58 C 53.31 140.49 53.46 140.30 53.54 140.21 C 54.56 138.97 55.65 137.74 57.03 136.88 C 58.14 136.36 58.87 135.36 59.14 134.18 C 59.49 133.19 60.14 132.44 61.08 131.92 C 62.15 131.36 62.92 130.40 63.29 129.26 C 63.54 128.98 64.05 128.44 64.31 128.17 C 65.32 127.77 65.90 127.02 66.03 125.93 C 67.81 122.89 70.14 119.93 72.99 117.78 C 74.02 117.16 75.19 116.40 75.40 115.11 C 75.57 114.57 75.90 113.50 76.07 112.96 C 58.67 112.90 41.25 112.71 23.86 113.07 C 24.09 104.37 24.13 95.65 23.84 86.95 Z" />
<path fill="#fb8503" opacity="1.00" d=" M 321.24 203.12 C 351.42 203.04 381.61 203.05 411.79 203.11 C 411.79 207.05 411.78 210.98 411.80 214.92 C 381.61 214.96 351.42 214.98 321.23 214.91 C 321.26 210.98 321.25 207.05 321.24 203.12 Z" />
</g>
<g id="#000000ff">
<path fill="#000000" opacity="1.00" d=" M 488.29 86.00 C 495.79 85.25 503.33 84.31 510.88 85.11 L 511.62 85.19 C 515.89 86.88 520.05 88.84 524.07 91.06 C 524.30 91.28 524.74 91.72 524.96 91.94 C 527.60 96.26 530.18 100.71 531.43 105.66 C 533.07 111.63 533.09 117.86 533.04 124.00 C 532.89 149.98 533.12 175.96 532.97 201.94 C 520.65 202.03 508.34 202.03 496.02 201.94 C 495.90 180.96 496.08 159.98 495.98 139.00 C 495.84 133.49 496.57 127.85 495.30 122.43 C 494.31 118.80 490.15 117.75 486.84 117.82 C 486.44 117.82 485.65 117.82 485.25 117.81 C 481.67 117.89 478.11 118.51 474.76 119.77 L 474.13 119.97 C 468.71 121.34 463.54 123.45 458.42 125.65 C 457.77 151.06 458.49 176.51 458.07 201.93 C 445.73 202.04 433.39 202.02 421.06 201.94 C 421.03 163.70 420.85 125.46 421.15 87.22 C 430.25 87.32 439.37 87.11 448.47 87.35 C 449.26 88.67 450.07 89.98 450.85 91.32 L 451.10 91.95 C 451.57 93.28 452.02 94.62 452.48 95.95 C 458.71 94.05 464.68 91.35 471.03 89.82 C 476.41 88.34 481.90 87.27 487.36 86.13 L 488.29 86.00 Z" />
<path fill="#000000" opacity="1.00" d=" M 582.21 86.08 C 591.04 84.74 600.01 84.50 608.91 85.18 L 609.73 85.27 C 615.57 86.57 621.63 87.28 627.10 89.86 C 630.93 91.60 634.39 94.03 637.95 96.25 C 638.17 96.46 638.60 96.87 638.82 97.08 C 642.06 101.44 645.31 105.93 647.03 111.15 C 649.97 119.08 650.07 127.66 650.06 136.01 C 649.99 142.77 650.18 149.53 649.97 156.29 C 627.00 156.58 604.02 156.32 581.05 156.40 C 581.03 160.96 580.92 165.81 583.13 169.96 C 584.86 173.27 588.39 175.20 591.97 175.85 C 600.34 177.55 608.94 176.97 617.39 176.32 C 622.38 175.82 627.42 175.49 632.31 174.27 L 633.01 174.14 C 636.29 173.68 639.53 172.96 642.72 172.07 L 643.38 171.90 C 643.54 173.70 644.04 175.44 644.60 177.16 L 644.78 177.82 C 645.66 182.35 646.50 186.89 647.91 191.29 L 648.08 192.00 C 648.29 193.68 648.49 195.38 648.71 197.07 C 646.01 198.00 643.31 198.89 640.60 199.76 L 639.84 199.91 C 634.75 200.71 629.68 201.59 624.66 202.76 L 623.84 202.88 C 609.65 204.41 595.25 205.01 581.10 202.83 L 580.32 202.69 C 577.88 202.03 575.42 201.48 572.95 200.99 L 572.32 200.76 C 564.61 197.51 557.49 193.01 551.75 186.86 C 551.62 186.58 551.36 186.03 551.23 185.75 C 550.94 184.60 550.32 183.58 549.41 182.83 L 548.98 182.37 C 546.30 175.92 544.14 169.13 544.01 162.08 C 543.76 151.39 543.93 140.69 543.90 130.00 C 543.84 121.63 545.50 113.10 549.72 105.81 C 552.20 101.52 555.83 98.10 559.22 94.55 C 559.51 94.33 560.09 93.87 560.37 93.64 C 560.46 93.59 560.64 93.48 560.73 93.43 L 561.38 93.12 C 565.08 91.63 568.72 90.00 572.29 88.22 L 572.86 88.01 C 575.71 87.49 578.55 86.88 581.38 86.22 L 582.21 86.08 M 593.92 111.88 L 593.19 112.11 C 583.99 111.80 579.04 122.77 581.66 130.58 C 581.61 130.78 581.51 131.18 581.46 131.38 C 592.64 130.72 603.86 131.40 615.05 131.04 C 614.99 124.98 615.46 117.14 609.54 113.48 C 604.84 111.13 598.97 110.14 593.92 111.88 Z" />
<path fill="#000000" opacity="1.00" d=" M 687.50 89.32 C 700.41 84.86 714.28 84.34 727.80 85.09 L 728.69 85.19 C 734.60 86.34 740.53 87.40 746.35 88.98 L 746.93 89.34 C 748.05 90.24 749.40 90.76 750.83 90.98 C 751.37 91.18 752.46 91.58 753.00 91.78 C 755.62 93.74 758.31 95.60 761.19 97.17 C 761.40 97.40 761.83 97.84 762.04 98.07 C 762.34 99.03 762.97 99.68 763.94 100.02 C 764.17 100.22 764.65 100.63 764.88 100.83 C 766.82 104.02 768.80 107.20 771.00 110.22 C 773.90 114.52 774.58 119.90 774.94 124.96 C 774.99 137.30 774.90 149.65 774.98 161.99 C 774.99 166.99 774.61 172.27 772.00 176.67 C 769.50 180.58 767.54 184.89 764.36 188.33 C 761.75 191.18 758.67 193.54 755.70 195.98 C 755.23 196.20 754.28 196.65 753.81 196.88 C 752.38 197.30 751.03 197.93 749.77 198.70 L 749.22 199.00 C 745.11 200.53 740.86 201.63 736.67 202.87 L 735.76 203.05 C 724.25 204.30 712.60 204.78 701.09 203.29 C 696.26 202.55 691.56 201.17 686.81 200.09 L 686.25 199.85 C 682.05 197.57 677.85 195.28 673.69 192.92 C 673.48 192.66 673.06 192.14 672.85 191.88 C 671.86 190.39 670.61 189.12 669.12 188.14 C 668.86 187.93 668.32 187.50 668.06 187.28 C 665.44 182.96 663.10 178.48 661.12 173.84 L 660.90 173.21 C 657.62 156.55 659.04 139.49 659.33 122.65 C 659.30 120.11 659.87 117.58 660.97 115.29 C 663.52 109.85 666.44 104.59 669.97 99.72 C 670.42 99.05 670.97 98.49 671.63 98.02 C 676.69 94.74 681.73 91.27 687.50 89.32 M 707.21 114.37 C 705.13 115.14 702.68 115.87 701.77 118.13 C 701.10 118.58 700.55 119.13 700.12 119.80 C 697.45 121.81 697.08 125.38 696.70 128.45 C 696.23 135.62 696.65 142.82 696.50 150.00 C 696.59 155.18 696.08 160.51 697.62 165.53 C 699.03 170.13 702.97 174.28 707.95 174.67 L 708.50 174.75 C 713.78 177.06 719.85 176.42 725.35 175.28 C 729.20 174.05 733.92 172.28 734.87 167.83 L 735.03 167.21 C 737.37 165.20 736.96 161.77 737.23 159.00 C 737.17 148.66 737.48 138.31 737.05 127.99 C 736.97 122.42 733.61 116.85 728.22 115.02 C 724.82 113.83 721.03 112.30 717.46 113.66 C 717.19 113.63 716.64 113.59 716.37 113.56 C 713.34 112.45 710.14 113.44 707.21 114.37 Z" />
</g>
</svg>
