<svg xmlns="http://www.w3.org/2000/svg" width="1132" height="830" viewBox="0 0 1132 830.00001"><path d="M95 125.7v685l432-92v92L1037 702V141l-432 92V17z"/><path d="M482 121.3c15-3.2 35-2.5 35-2.5v34l-24 5v-11s-5-.8-10 .2-10 7.2-10 12.2v25l31-6.6v28l-29 6v73l18-3.7v28l-67 14v-28l12-2.7v-73l-13 2.8v-28l13-2.7v-21c0-34 17-43.6 44-49.3zm-133 31.3l48-10.2v151c0 5 3 7.3 8 6.3l5-1v28l-25 5.2c-14 3-19-4-19-14 0 0-7 20.3-32 25.6-39 8.3-51-19-51-53 0-41 12-70.7 46-78 25-5.3 32 9.2 32 9.2v-45l-12 2.5zm-183 97l97-20.7v28l-55 83.5 33-7v-16l26-5.6v45l-101 21.5v-29l55-83.7-31 6.4v14l-24 5zm175-11.3c-14 3-19.6 20-20 40v4.5c.4 20 6 34.5 20 31.5s19.6-20 20-40v-4.5c-.4-19.8-6-34.5-20-31.5zm26.4 157.3c1 0 1.7-.3 2.6-.5 40-7.2 60 18.5 60 63.5v170L320 652V517c0-24-4-24.3-25-19.8v160l-110 23.6v-160l-20 4.2v-81l85-18c35-7.6 33 24 33 24s31-43 84.4-54.2zm200-42.6C646 336.3 691 377.7 691 451.7c0 7.6-.5 15-1.4 22.3L553 503c2 32.4 34 37.7 64 2.5l63-13.5v54.2c-30 25.2-48.4 43.2-112.5 56.8C489 619.7 444 578.4 444 504.4S489 369.7 567.5 353zM830 297c80-17 126 24.2 126 98.2s-46 134.8-126 152c-80 17-126-24.3-126-98.3s46-135 126-152zm.7 74.2c-12.6 2.7-19.8 26.2-19.8 58 0 32 7 52.3 19.5 49.7 12.6-3 19.8-26.5 19.8-58.4 0-32-7.2-52.3-19.8-49.6zm-259.7 56c-10.3 2.3-18.7 17.4-19 34l38-8c-.3-16.6-8.7-28-19-26zm146 200l230-49v43l-230 49z" fill="#fff"/></svg>