<?xml version="1.0" encoding="UTF-8" standalone="no"?>
<!-- Created with Inkscape (http://www.inkscape.org/) -->

<svg
   xmlns:dc="http://purl.org/dc/elements/1.1/"
   xmlns:cc="http://creativecommons.org/ns#"
   xmlns:rdf="http://www.w3.org/1999/02/22-rdf-syntax-ns#"
   xmlns:svg="http://www.w3.org/2000/svg"
   xmlns="http://www.w3.org/2000/svg"
   version="1.1"
   width="542.6236"
   height="107.674"
   id="svg2">
  <metadata
     id="metadata8">
    <rdf:RDF>
      <cc:Work
         rdf:about="">
        <dc:format>image/svg+xml</dc:format>
        <dc:type
           rdf:resource="http://purl.org/dc/dcmitype/StillImage" />
        <dc:title></dc:title>
      </cc:Work>
    </rdf:RDF>
  </metadata>
  <defs
     id="defs6" />
  <g
     transform="matrix(0.72796013,0,0,0.72796013,-5.2209301e-7,-4.0809445e-6)"
     id="g3192">
    <path
       d="m 219.85845,138.2982 66.2386,0 0,9.61376 -66.2386,0 0,-9.61376 z"
       id="path2492"
       style="fill:#fa7d19;fill-opacity:1;fill-rule:nonzero;stroke:none" />
    <g
       transform="matrix(3.0481156,0,0,-3.0481156,0.192032,42.6657)"
       id="g2494"
       style="fill:#fa7d19;fill-opacity:1">
      <path
         d="m 0,0 23.52,0 0,-7.032 -12.908,-17.065 13.292,0 0,-7.032 -23.967,0 0,7.032 L 12.782,-7.032 0,-7.032 0,0 z"
         id="path2496"
         style="fill:#fa7d19;fill-opacity:1;fill-rule:nonzero;stroke:none" />
    </g>
    <g
       transform="matrix(3.0481156,0,0,-3.0481156,77.718716,75.7914)"
       id="g2506"
       style="fill:#fa7d19;fill-opacity:1">
      <path
         d="m 0,0 c 0,7.352 3.195,11.507 10.482,11.507 2.561,0 5.818,-0.385 7.926,-0.895 l 0,12.975 9.207,1.278 0,-45.126 -7.224,0 -0.958,2.493 C 17.258,-19.173 13.23,-20.902 9.847,-20.902 3.518,-20.902 0,-17 0,-9.394 L 0,0 z m 18.408,2.748 c -1.597,0.385 -3.96,0.768 -5.881,0.768 -2.425,0 -3.32,-1.47 -3.32,-3.516 l 0,-9.394 c 0,-2.176 0.895,-3.516 3.32,-3.516 2.114,0 4.539,1.278 5.881,2.428 l 0,13.23 z"
         id="path2508"
         style="fill:#fa7d19;fill-opacity:1;fill-rule:nonzero;stroke:none" />
    </g>
    <g
       transform="matrix(3.0481156,0,0,-3.0481156,233.57346,24.74217)"
       id="g2510"
       style="fill:#fa7d19;fill-opacity:1">
      <path
         d="m 0,0 c -1.28,0.256 -3.003,0.448 -4.09,0.448 -2.941,0 -3.133,-1.28 -3.133,-3.326 l 0,-3.643 7.348,0 -0.639,-7.541 -6.709,0 0,-22.947 -9.207,0 0,22.947 -4.726,0 0,7.541 4.726,0 0,4.666 c 0,6.394 3.008,9.972 10.549,9.972 2.618,0 4.538,-0.382 7.032,-0.895 L 0,0 z"
         id="path2512"
         style="fill:#fa7d19;fill-opacity:1;fill-rule:nonzero;stroke:none" />
    </g>
    <g
       transform="matrix(3.0481156,0,0,-3.0481156,348.34413,137.5468)"
       id="g2514"
       style="fill:#000000;fill-opacity:1">
      <path
         d="m 0,0 0,20.581 c 0,1.408 -0.64,2.238 -2.238,2.238 -1.659,0 -4.731,-1.151 -6.709,-2.238 l 0,-20.581 -9.207,0 0,31.128 6.839,0 0.963,-2.366 c 3.831,1.853 8.817,3.006 12.397,3.006 5.309,0 7.162,-3.963 7.162,-9.972 L 9.207,0 0,0 z"
         id="path2516"
         style="fill:#000000;fill-opacity:1;fill-rule:nonzero;stroke:none" />
    </g>
    <g
       transform="matrix(3.0481156,0,0,-3.0481156,411.8407,99.94223)"
       id="g2518"
       style="fill:#000000;fill-opacity:1">
      <path
         d="m 0,0 0,-0.895 c 0,-3.581 1.405,-4.539 5.621,-4.539 2.878,0 6.714,0.51 9.462,1.343 l 1.343,-6.904 c -2.81,-1.022 -7.349,-1.983 -11.694,-1.983 -10.102,0 -13.938,4.987 -13.938,12.658 l 0,7.286 c 0,6.711 3.002,12.465 13.36,12.465 10.356,0 12.59,-6.136 12.59,-12.912 L 16.744,0 0,0 z m 8.052,8.244 c 0,2.173 -0.641,3.963 -3.836,3.963 C 1.021,12.207 0,10.417 0,8.244 L 0,6.9 l 8.052,0 0,1.344 z"
         id="path2520"
         style="fill:#000000;fill-opacity:1;fill-rule:nonzero;stroke:none" />
    </g>
    <g
       transform="matrix(3.0481156,0,0,-3.0481156,469.0837,101.11729)"
       id="g2522"
       style="fill:#000000;fill-opacity:1">
      <path
         d="m 0,0 0,7.224 c 0,6.391 3.003,12.593 14.063,12.593 11.059,0 14.062,-6.202 14.062,-12.593 l 0,-7.224 c 0,-6.391 -3.003,-12.593 -14.062,-12.593 C 3.003,-12.593 0,-6.391 0,0 m 18.918,-0.254 0,7.733 c 0,2.941 -1.53,4.603 -4.855,4.603 -3.326,0 -4.856,-1.662 -4.856,-4.603 l 0,-7.733 c 0,-2.942 1.53,-4.604 4.856,-4.604 3.325,0 4.855,1.662 4.855,4.604"
         id="path2524"
         style="fill:#000000;fill-opacity:1;fill-rule:nonzero;stroke:none" />
    </g>
  </g>
  <path
     d="m 431.09485,65.59481 0,-35.87751 8.08507,0 8.08507,0 0,14.40154 0,14.40153 11.62229,0 11.62229,0 0,-14.40153 0,-14.40154 8.08508,0 8.08507,0 0,35.87751 0,35.87751 -8.08507,0 -8.08508,0 0,-14.40154 0,-14.40153 -11.62229,0 -11.62229,0 0,14.40153 0,14.40154 -8.08507,0 -8.08507,0 z m 59.73374,0 0,-35.9575 17.55977,0.1938 c 16.13834,0.178112 17.81395,0.27886 20.6999,1.24467 6.1335,2.05262 10.24392,5.4194 12.4553,10.20196 1.05081,2.27259 1.08002,2.93044 1.08002,24.31707 0,21.52788 -0.0227,22.02995 -1.1016,24.34094 -2.24379,4.80624 -6.29749,8.124547 -12.43372,10.17807 -2.88595,0.96582 -4.56156,1.0666 -20.6999,1.2447 l -17.55977,0.19379 z m 31.93171,20.51208 c 3.73829,-1.78721 3.69314,-1.53644 3.69314,-20.51208 0,-15.49776 -0.0772,-17.04186 -0.9139,-18.27421 -1.65739,-2.44119 -3.95742,-3.107205 -11.59269,-3.35682 l -6.94811,-0.22715 0,21.85818 0,21.85818 6.94811,-0.22716 c 5.23671,-0.171208 7.40756,-0.44682 8.81345,-1.11894 z"
     id="path2987"
     style="fill:#333333" />
</svg>
