<?xml version="1.0" encoding="UTF-8" ?>
<!DOCTYPE svg PUBLIC "-//W3C//DTD SVG 1.1//EN" "http://www.w3.org/Graphics/SVG/1.1/DTD/svg11.dtd">
<svg width="1563pt" height="295pt" viewBox="0 0 1563 295" version="1.1" xmlns="http://www.w3.org/2000/svg">
<g id="#ed1414ff">
<path fill="#ed1414" opacity="1.00" d=" M 0.00 0.00 L 294.94 0.00 C 294.94 98.33 294.94 196.67 294.94 295.00 L 0.00 295.00 L 0.00 0.00 M 96.61 70.54 C 86.97 82.92 82.13 98.70 82.08 114.31 C 97.32 114.31 112.57 114.34 127.81 114.29 C 121.10 109.18 114.24 104.26 107.49 99.21 C 109.29 93.85 112.00 88.80 115.59 84.44 C 124.52 73.06 138.54 66.79 152.71 65.29 C 152.58 57.95 152.89 50.61 152.54 43.28 C 131.01 43.31 109.98 53.74 96.61 70.54 M 152.63 65.32 C 152.62 72.79 152.63 80.26 152.63 87.73 C 159.82 87.89 166.97 90.78 171.89 96.10 C 178.34 102.80 180.73 113.10 177.77 121.93 C 176.07 127.53 172.07 132.10 167.54 135.65 C 157.38 143.47 147.26 151.34 137.12 159.18 C 122.12 170.62 108.50 183.96 97.20 199.09 C 85.64 215.70 77.48 235.16 76.14 255.49 C 85.35 248.64 94.42 241.60 103.66 234.78 C 108.58 218.56 119.49 205.09 131.33 193.33 C 147.83 176.81 168.55 165.41 185.80 149.76 C 195.81 140.78 201.74 127.45 201.66 113.99 C 201.76 100.98 196.22 88.08 186.82 79.11 C 177.78 70.28 165.23 65.35 152.63 65.32 M 143.77 212.84 C 131.94 219.30 120.07 225.70 108.20 232.10 C 106.75 232.88 105.54 234.00 104.32 235.10 C 107.14 234.26 110.09 234.59 112.99 234.57 C 141.00 234.54 169.01 234.61 197.02 234.54 C 198.47 234.70 200.43 234.02 201.36 235.57 C 207.26 242.44 213.08 249.38 219.03 256.22 C 219.10 241.48 219.05 226.74 219.06 212.00 C 196.03 211.98 173.00 212.03 149.97 211.98 C 147.89 212.04 145.62 211.65 143.77 212.84 Z" />
<path fill="#ed1414" opacity="1.00" d=" M 370.91 65.31 C 380.56 65.44 390.20 65.36 399.85 65.35 C 416.95 94.95 433.57 124.84 450.84 154.33 C 450.87 124.73 450.97 95.12 450.79 65.51 C 459.61 65.22 468.45 65.39 477.28 65.43 C 477.20 114.33 477.28 163.22 477.24 212.12 C 469.06 212.18 460.87 212.02 452.69 212.20 C 433.90 180.18 415.81 147.74 397.06 115.70 C 396.92 147.84 397.04 179.98 397.00 212.12 C 388.27 212.12 379.54 212.13 370.82 212.12 C 370.87 163.18 370.68 114.25 370.91 65.31 Z" />
<path fill="#ed1414" opacity="1.00" d=" M 600.31 65.38 C 609.38 65.38 618.44 65.36 627.51 65.39 C 627.51 83.59 627.47 101.79 627.52 120.00 C 631.14 113.99 636.04 108.59 642.41 105.47 C 652.62 100.36 665.82 99.83 675.45 106.54 C 683.37 111.90 687.56 121.56 687.54 130.96 C 687.63 157.97 687.46 184.98 687.63 211.99 C 678.53 212.24 669.43 212.15 660.34 212.04 C 660.43 188.37 660.34 164.70 660.38 141.03 C 660.32 136.42 660.35 131.37 657.54 127.47 C 654.72 123.59 649.50 122.56 644.98 122.91 C 637.82 123.56 631.85 129.07 629.25 135.57 C 626.89 141.09 627.60 147.20 627.50 153.04 C 627.42 172.76 627.65 192.48 627.39 212.19 C 618.35 211.99 609.31 212.26 600.27 212.04 C 600.36 163.16 600.28 114.26 600.31 65.38 Z" />
<path fill="#ed1414" opacity="1.00" d=" M 982.25 65.37 C 987.08 65.37 991.91 65.37 996.75 65.37 C 996.77 96.59 996.73 127.81 996.77 159.03 C 1009.97 141.82 1023.04 124.51 1036.23 107.30 C 1041.73 107.32 1047.24 107.31 1052.74 107.31 C 1043.36 119.28 1033.94 131.21 1024.54 143.17 C 1034.31 166.16 1044.18 189.12 1053.93 212.12 C 1048.87 212.15 1043.82 212.06 1038.77 212.18 C 1030.37 192.94 1022.26 173.58 1014.06 154.26 C 1008.11 161.33 1002.53 168.71 996.75 175.93 C 996.75 187.99 996.75 200.05 996.75 212.12 C 991.91 212.13 987.08 212.13 982.25 212.12 C 982.25 163.20 982.24 114.29 982.25 65.37 Z" />
<path fill="#ed1414" opacity="1.00" d=" M 1348.25 65.37 C 1353.08 65.37 1357.91 65.37 1362.75 65.37 C 1362.76 106.58 1362.74 147.79 1362.76 189.00 C 1362.62 192.91 1364.00 197.34 1367.73 199.21 C 1372.68 201.75 1378.42 200.48 1383.70 199.97 C 1383.67 203.78 1383.72 207.60 1383.64 211.41 C 1375.23 213.71 1365.60 214.70 1357.63 210.48 C 1351.03 206.95 1348.22 199.16 1348.28 192.03 C 1348.20 149.81 1348.27 107.59 1348.25 65.37 Z" />
<path fill="#ed1414" opacity="1.00" d=" M 819.18 76.69 C 828.39 76.68 837.60 76.68 846.81 76.69 C 846.82 86.21 846.81 95.73 846.82 105.24 C 854.97 105.24 863.12 105.28 871.27 105.22 C 871.35 112.52 871.30 119.82 871.31 127.12 C 863.14 127.13 854.98 127.12 846.82 127.13 C 846.80 144.07 846.84 161.02 846.80 177.96 C 846.67 181.93 846.89 187.07 851.04 189.03 C 856.63 191.38 862.89 189.83 868.63 188.85 C 868.62 196.13 868.62 203.41 868.63 210.69 C 859.15 213.75 848.95 215.15 839.08 213.43 C 832.39 212.21 825.71 208.69 822.36 202.55 C 819.85 198.14 819.15 192.96 819.18 187.96 C 819.18 167.68 819.19 147.40 819.18 127.13 C 814.18 127.12 809.18 127.13 804.19 127.12 C 804.18 119.83 804.18 112.54 804.19 105.25 C 809.18 105.24 814.18 105.25 819.18 105.24 C 819.19 95.73 819.18 86.21 819.18 76.69 Z" />
<path fill="#ed1414" opacity="1.00" d=" M 737.85 102.76 C 750.64 100.22 764.87 101.61 775.77 109.22 C 785.42 115.84 790.61 127.51 790.94 139.01 C 791.09 147.81 790.95 156.62 791.00 165.43 C 771.46 165.44 751.92 165.43 732.38 165.44 C 732.58 171.78 731.44 178.64 734.71 184.43 C 737.50 189.53 743.35 191.96 748.89 192.60 C 760.33 193.97 771.66 190.58 782.15 186.33 C 784.26 192.34 786.17 198.41 788.39 204.38 C 777.13 211.87 763.30 214.45 749.97 214.57 C 738.10 214.63 725.48 211.82 716.52 203.57 C 709.10 196.86 705.47 186.83 705.06 177.00 C 704.80 169.02 705.00 161.04 704.94 153.06 C 704.76 143.61 704.89 133.78 709.03 125.07 C 714.15 113.40 725.48 105.18 737.85 102.76 M 734.80 128.98 C 731.40 134.74 732.59 141.65 732.36 148.00 C 743.17 148.13 753.99 148.03 764.81 148.06 C 764.63 141.56 765.74 134.52 762.33 128.62 C 756.83 118.71 740.10 119.01 734.80 128.98 Z" />
<path fill="#ed1414" opacity="1.00" d=" M 891.44 119.38 C 896.71 109.65 907.15 103.56 917.94 102.13 C 933.38 100.10 950.09 103.57 962.07 113.92 C 957.54 119.84 953.19 125.90 948.51 131.70 C 942.10 126.58 934.37 122.50 926.01 122.25 C 922.18 122.19 918.01 122.64 914.93 125.13 C 910.62 128.62 911.25 136.17 915.77 139.22 C 919.29 141.71 923.47 143.03 927.52 144.40 C 937.91 147.80 949.08 150.93 956.85 159.13 C 967.92 170.23 967.73 189.87 957.24 201.28 C 948.46 211.05 934.77 214.88 921.98 214.57 C 907.06 214.53 891.65 209.65 881.09 198.75 C 885.70 192.82 890.29 186.87 894.95 180.98 C 902.36 186.65 910.47 192.13 919.85 193.67 C 925.36 194.34 931.71 193.90 936.06 190.05 C 940.57 185.91 939.60 177.69 934.24 174.71 C 922.37 167.94 907.27 167.64 896.90 158.08 C 886.15 148.61 884.58 131.56 891.44 119.38 Z" />
<path fill="#ed1414" opacity="1.00" d=" M 491.64 104.06 C 501.19 104.05 510.75 104.06 520.30 104.06 C 527.45 127.46 534.59 150.87 541.72 174.28 C 548.59 150.93 555.06 127.45 561.79 104.06 C 570.04 104.06 578.29 104.06 586.55 104.06 C 576.02 137.72 565.47 171.36 554.93 205.02 C 552.38 212.74 550.39 220.67 547.21 228.16 C 543.53 236.70 537.45 244.82 528.56 248.34 C 518.98 252.08 508.29 251.04 498.44 248.98 C 498.91 241.55 499.38 234.13 499.88 226.70 C 506.07 227.74 512.80 229.54 518.86 227.12 C 525.14 223.66 525.96 215.62 527.69 209.38 C 515.80 174.24 503.63 139.18 491.64 104.06 Z" />
<path fill="#ed1414" opacity="1.00" d=" M 1089.71 106.71 C 1098.56 104.43 1108.02 104.19 1116.91 106.38 C 1124.41 108.25 1131.68 112.77 1135.12 119.92 C 1138.62 126.73 1137.77 134.60 1137.88 142.00 C 1138.01 165.37 1137.36 188.77 1138.90 212.11 C 1134.42 212.13 1129.94 212.12 1125.47 212.12 C 1125.15 206.45 1124.94 200.76 1124.59 195.09 C 1121.89 200.53 1118.13 205.58 1112.92 208.84 C 1102.79 215.29 1089.01 216.47 1078.39 210.54 C 1071.87 206.98 1067.37 200.37 1065.76 193.19 C 1063.64 183.65 1064.82 172.88 1070.95 164.99 C 1077.54 156.45 1088.38 152.31 1098.86 151.37 C 1106.96 150.96 1115.07 151.29 1123.18 151.18 C 1123.14 144.80 1123.26 138.41 1123.14 132.03 C 1123.02 127.10 1120.92 122.02 1116.76 119.17 C 1111.66 115.63 1105.10 115.07 1099.08 115.63 C 1092.74 116.28 1085.94 119.04 1082.81 124.93 C 1080.56 128.94 1081.18 133.66 1081.13 138.06 C 1076.77 138.06 1072.41 138.06 1068.06 138.06 C 1068.03 132.43 1067.68 126.51 1070.25 121.31 C 1073.80 113.54 1081.73 108.83 1089.71 106.71 M 1097.84 161.72 C 1090.78 162.75 1083.47 166.77 1081.10 173.88 C 1078.61 181.38 1079.14 190.48 1084.18 196.85 C 1088.38 202.08 1095.62 203.99 1102.07 202.92 C 1111.27 201.69 1119.18 194.63 1121.88 185.81 C 1124.21 177.80 1122.79 169.34 1123.18 161.13 C 1114.74 161.36 1106.23 160.56 1097.84 161.72 Z" />
<path fill="#ed1414" opacity="1.00" d=" M 1187.41 110.38 C 1194.97 105.62 1204.37 103.89 1213.15 105.45 C 1221.86 107.04 1229.35 113.62 1232.11 122.02 C 1234.15 127.45 1233.64 133.32 1233.69 139.00 C 1233.72 163.35 1233.63 187.69 1233.73 212.03 C 1228.90 212.22 1224.07 212.09 1219.25 212.12 C 1219.25 187.39 1219.23 162.66 1219.26 137.94 C 1219.31 132.38 1219.02 126.24 1215.33 121.75 C 1211.19 116.85 1204.10 115.93 1198.09 116.73 C 1185.03 119.02 1175.08 131.85 1175.32 144.98 C 1175.30 167.36 1175.32 189.74 1175.31 212.12 C 1170.47 212.12 1165.64 212.13 1160.82 212.12 C 1160.81 177.18 1160.81 142.25 1160.81 107.32 C 1165.37 107.31 1169.93 107.31 1174.50 107.31 C 1174.49 113.26 1174.51 119.21 1174.49 125.16 C 1177.49 119.27 1181.73 113.89 1187.41 110.38 Z" />
<path fill="#ed1414" opacity="1.00" d=" M 1259.19 119.30 C 1264.32 110.75 1274.38 106.73 1283.88 105.43 C 1294.62 104.09 1306.45 104.89 1315.58 111.28 C 1322.05 115.71 1325.56 123.52 1325.68 131.24 C 1326.07 158.20 1325.03 185.19 1326.76 212.12 C 1322.28 212.12 1317.80 212.14 1313.32 212.11 C 1313.02 206.44 1312.81 200.76 1312.45 195.10 C 1309.75 200.53 1306.01 205.57 1300.81 208.83 C 1290.73 215.25 1277.03 216.45 1266.42 210.63 C 1259.73 207.04 1255.13 200.26 1253.56 192.91 C 1251.68 184.06 1252.56 174.23 1257.69 166.57 C 1262.01 159.97 1269.09 155.63 1276.52 153.35 C 1287.70 149.83 1299.55 151.63 1311.05 151.18 C 1311.01 144.77 1311.15 138.36 1311.00 131.95 C 1310.88 127.07 1308.79 122.07 1304.71 119.22 C 1299.64 115.66 1293.11 115.08 1287.11 115.61 C 1281.00 116.23 1274.51 118.72 1271.13 124.14 C 1268.45 128.27 1268.96 133.38 1268.94 138.06 C 1264.60 138.06 1260.27 138.06 1255.95 138.06 C 1255.81 131.70 1255.63 124.88 1259.19 119.30 M 1282.95 162.31 C 1276.40 163.79 1270.29 168.41 1268.55 175.11 C 1266.06 184.03 1267.86 195.59 1276.45 200.62 C 1287.26 206.79 1301.99 201.33 1307.65 190.62 C 1312.84 181.66 1310.55 170.95 1311.05 161.13 C 1301.69 161.49 1292.15 160.16 1282.95 162.31 Z" />
<path fill="#ed1414" opacity="1.00" d=" M 1408.50 114.61 C 1418.74 104.91 1434.40 102.91 1447.62 106.61 C 1457.33 109.31 1465.24 117.18 1468.18 126.79 C 1471.90 138.34 1470.03 150.64 1470.50 162.55 C 1450.88 162.58 1431.25 162.55 1411.63 162.57 C 1412.06 172.77 1409.87 184.11 1415.79 193.17 C 1420.99 200.97 1431.24 202.74 1439.96 202.33 C 1448.41 202.16 1456.27 198.76 1463.62 194.87 C 1465.27 198.14 1467.10 201.30 1468.87 204.51 C 1459.87 211.56 1448.30 214.48 1437.03 214.56 C 1427.31 214.71 1416.99 212.90 1409.19 206.73 C 1399.95 199.58 1396.70 187.28 1396.99 176.06 C 1397.03 165.02 1396.96 153.99 1397.02 142.96 C 1397.22 132.57 1400.76 121.84 1408.50 114.61 M 1415.26 126.32 C 1410.61 134.06 1411.74 143.39 1411.63 152.00 C 1426.63 151.98 1441.64 152.03 1456.64 151.97 C 1456.40 143.48 1457.71 134.38 1453.50 126.58 C 1446.30 112.49 1422.74 112.45 1415.26 126.32 Z" />
<path fill="#ed1414" opacity="1.00" d=" M 1509.13 117.01 C 1517.79 106.63 1532.96 102.38 1545.81 106.35 C 1555.46 109.39 1561.95 118.79 1563.00 128.64 L 1563.00 212.12 C 1558.18 212.12 1553.37 212.12 1548.57 212.12 C 1548.56 188.07 1548.55 164.02 1548.57 139.97 C 1548.60 133.92 1548.80 127.21 1544.95 122.14 C 1541.06 117.06 1534.02 116.00 1528.04 116.64 C 1514.66 118.57 1504.38 131.68 1504.63 145.03 C 1504.62 167.38 1504.62 189.74 1504.63 212.09 C 1499.79 212.15 1494.95 212.12 1490.12 212.12 C 1490.12 177.18 1490.12 142.25 1490.13 107.31 C 1494.68 107.31 1499.24 107.31 1503.81 107.31 C 1503.81 113.22 1503.81 119.13 1503.81 125.04 C 1505.41 122.26 1507.02 119.46 1509.13 117.01 Z" />
</g>
<g id="#ffffffff">
<path fill="#ffffff" opacity="1.00" d=" M 96.61 70.54 C 109.98 53.74 131.01 43.31 152.54 43.28 C 152.89 50.61 152.58 57.95 152.71 65.29 C 138.54 66.79 124.52 73.06 115.59 84.44 C 112.00 88.80 109.29 93.85 107.49 99.21 C 114.24 104.26 121.10 109.18 127.81 114.29 C 112.57 114.34 97.32 114.31 82.08 114.31 C 82.13 98.70 86.97 82.92 96.61 70.54 Z" />
<path fill="#ffffff" opacity="1.00" d=" M 152.63 65.32 C 165.23 65.35 177.78 70.28 186.82 79.11 C 196.22 88.08 201.76 100.98 201.66 113.99 C 201.74 127.45 195.81 140.78 185.80 149.76 C 168.55 165.41 147.83 176.81 131.33 193.33 C 119.49 205.09 108.58 218.56 103.66 234.78 C 94.42 241.60 85.35 248.64 76.14 255.49 C 77.48 235.16 85.64 215.70 97.20 199.09 C 108.50 183.96 122.12 170.62 137.12 159.18 C 147.26 151.34 157.38 143.47 167.54 135.65 C 172.07 132.10 176.07 127.53 177.77 121.93 C 180.73 113.10 178.34 102.80 171.89 96.10 C 166.97 90.78 159.82 87.89 152.63 87.73 C 152.63 80.26 152.62 72.79 152.63 65.32 Z" />
<path fill="#ffffff" opacity="1.00" d=" M 143.77 212.84 C 145.62 211.65 147.89 212.04 149.97 211.98 C 173.00 212.03 196.03 211.98 219.06 212.00 C 219.05 226.74 219.10 241.48 219.03 256.22 C 213.08 249.38 207.26 242.44 201.36 235.57 C 200.43 234.02 198.47 234.70 197.02 234.54 C 169.01 234.61 141.00 234.54 112.99 234.57 C 110.09 234.59 107.14 234.26 104.32 235.10 C 105.54 234.00 106.75 232.88 108.20 232.10 C 120.07 225.70 131.94 219.30 143.77 212.84 Z" />
</g>
</svg>
