<?xml version="1.0" encoding="UTF-8" standalone="no"?>
<!-- Created with Inkscape (http://www.inkscape.org/) -->

<svg
   xmlns:dc="http://purl.org/dc/elements/1.1/"
   xmlns:cc="http://creativecommons.org/ns#"
   xmlns:rdf="http://www.w3.org/1999/02/22-rdf-syntax-ns#"
   xmlns:svg="http://www.w3.org/2000/svg"
   xmlns="http://www.w3.org/2000/svg"
   xmlns:sodipodi="http://sodipodi.sourceforge.net/DTD/sodipodi-0.dtd"
   xmlns:inkscape="http://www.inkscape.org/namespaces/inkscape"
   width="1000"
   height="201.12776"
   id="svg6778"
   version="1.1"
   inkscape:version="0.48.2 r9819"
   sodipodi:docname="A.svg">
  <defs
     id="defs6780">
    <clipPath
       clipPathUnits="userSpaceOnUse"
       id="clipPath3583">
      <path
         inkscape:connector-curvature="0"
         d="m 28.346,356.42 81.569,0 0,9.712 -81.569,0 0,-9.712 z"
         id="path3585" />
    </clipPath>
    <clipPath
       clipPathUnits="userSpaceOnUse"
       id="clipPath7103">
      <path
         inkscape:connector-curvature="0"
         d="m 664.016,628.016 56.939,0 0,13.141 -56.939,0 0,-13.141 z"
         id="path7105" />
    </clipPath>
    <clipPath
       clipPathUnits="userSpaceOnUse"
       id="clipPath7151">
      <path
         inkscape:connector-curvature="0"
         d="m 664.016,528.803 56.81,0 0,13.111 -56.81,0 0,-13.111 z"
         id="path7153" />
    </clipPath>
    <clipPath
       clipPathUnits="userSpaceOnUse"
       id="clipPath7127">
      <path
         inkscape:connector-curvature="0"
         d="m 664.016,430.623 56.939,0 0,13.141 -56.939,0 0,-13.141 z"
         id="path7129" />
    </clipPath>
    <clipPath
       clipPathUnits="userSpaceOnUse"
       id="clipPath7053">
      <path
         inkscape:connector-curvature="0"
         d="m 664.016,341.686 56.939,0 0,13.141 -56.939,0 0,-13.141 z"
         id="path7055" />
    </clipPath>
    <clipPath
       clipPathUnits="userSpaceOnUse"
       id="clipPath7039">
      <path
         inkscape:connector-curvature="0"
         d="m 664.016,237.397 71.556,0 0,23.694 -71.556,0 0,-23.694 z"
         id="path7041" />
    </clipPath>
    <clipPath
       clipPathUnits="userSpaceOnUse"
       id="clipPath7023">
      <path
         inkscape:connector-curvature="0"
         d="m 664.016,237.397 71.555,0 0,23.694 -71.555,0 0,-23.694 z"
         id="path7025" />
    </clipPath>
    <clipPath
       clipPathUnits="userSpaceOnUse"
       id="clipPath7011">
      <path
         inkscape:connector-curvature="0"
         d="m 664.016,237.397 71.556,0 0,23.694 -71.556,0 0,-23.694 z"
         id="path7013" />
    </clipPath>
    <clipPath
       clipPathUnits="userSpaceOnUse"
       id="clipPath13240">
      <path
         inkscape:connector-curvature="0"
         d="m 126.559,582.52 39.686,0 0,21.26 -39.686,0 0,-21.26 z"
         id="path13242" />
    </clipPath>
  </defs>
  <sodipodi:namedview
     id="base"
     pagecolor="#ffffff"
     bordercolor="#666666"
     borderopacity="1.0"
     inkscape:pageopacity="0.0"
     inkscape:pageshadow="2"
     inkscape:zoom="0.49497475"
     inkscape:cx="180.72495"
     inkscape:cy="-269.7561"
     inkscape:document-units="px"
     inkscape:current-layer="layer1"
     showgrid="false"
     fit-margin-top="0.5"
     fit-margin-left="0.5"
     fit-margin-right="0.5"
     fit-margin-bottom="0.5"
     inkscape:window-width="1102"
     inkscape:window-height="1040"
     inkscape:window-x="821"
     inkscape:window-y="-18"
     inkscape:window-maximized="0" />
  <metadata
     id="metadata6783">
    <rdf:RDF>
      <cc:Work
         rdf:about="">
        <dc:format>image/svg+xml</dc:format>
        <dc:type
           rdf:resource="http://purl.org/dc/dcmitype/StillImage" />
        <dc:title></dc:title>
      </cc:Work>
    </rdf:RDF>
  </metadata>
  <g
     inkscape:label="Layer 1"
     inkscape:groupmode="layer"
     id="layer1"
     transform="translate(-1668.0217,819.258)">
    <g
       id="g13236"
       transform="matrix(25.173303,0,0,-25.173303,-1517.3864,14212.843)">
      <g
         id="g13238"
         clip-path="url(#clipPath13240)">
        <g
           id="g13244"
           transform="translate(166.2439,590.2017)">
          <path
             d="m 0,0 c 0,-0.565 -0.462,-1.027 -1.027,-1.027 l -37.631,0 c -0.565,0 -1.027,0.462 -1.027,1.027 l 0,5.896 c 0,0.565 0.462,1.027 1.027,1.027 l 37.631,0 C -0.462,6.923 0,6.461 0,5.896 L 0,0 z"
             style="fill:#b2b3b2;fill-opacity:1;fill-rule:nonzero;stroke:none"
             id="path13246"
             inkscape:connector-curvature="0" />
        </g>
        <g
           id="g13248"
           transform="translate(165.4688,590.3956)">
          <path
             d="m 0,0 c 0,-0.279 -0.228,-0.506 -0.506,-0.506 l -21.03,0 c -0.278,0 -0.506,0.227 -0.506,0.506 l 0,5.508 c 0,0.279 0.228,0.507 0.506,0.507 l 21.03,0 C -0.228,6.015 0,5.787 0,5.508 L 0,0 z"
             style="fill:#ffffff;fill-opacity:1;fill-rule:nonzero;stroke:none"
             id="path13250"
             inkscape:connector-curvature="0" />
        </g>
        <g
           id="g13252"
           transform="translate(142.7036,590.3956)">
          <path
             d="m 0,0 c 0,-0.279 -0.228,-0.506 -0.506,-0.506 l -14.357,0 c -0.279,0 -0.506,0.227 -0.506,0.506 l 0,5.508 c 0,0.279 0.227,0.507 0.506,0.507 l 14.357,0 C -0.228,6.015 0,5.787 0,5.508 L 0,0 z"
             style="fill:#d9272e;fill-opacity:1;fill-rule:nonzero;stroke:none"
             id="path13254"
             inkscape:connector-curvature="0" />
        </g>
        <g
           id="g13256"
           transform="translate(135.5612,593.7537)">
          <path
             d="m 0,0 -1.111,-0.002 c -0.126,0 -0.232,-0.06 -0.293,-0.154 l -1.538,-2.266 0.28,2.448 -1.175,0 -0.268,-2.35 c -0.002,-0.038 0,-0.074 0.005,-0.108 10e-4,-0.005 0.003,-0.011 0.004,-0.016 0.013,-0.082 0.065,-0.171 0.13,-0.228 0.024,-0.018 0.052,-0.032 0.081,-0.043 0.026,-0.008 0.052,-0.013 0.079,-0.015 l 0.83,0 0.915,0 c 0.127,0 0.232,0.062 0.294,0.156 L 0,0 z M 2.361,-1.051 C 3.116,-1.044 3.945,-0.434 4.103,0.321 4.26,1.069 3.631,1.677 2.888,1.695 L 0.032,1.693 c -0.112,0 -0.221,-0.055 -0.29,-0.161 L -0.849,0.636 c 0.043,0.001 3.545,0 3.545,0 0.177,0 0.255,-0.14 0.218,-0.316 C 2.879,0.149 2.706,0.011 2.536,0.002 L 0.992,0.003 c -0.113,0 -0.221,-0.059 -0.29,-0.165 L 0.094,-1.049 2.361,-1.051 z M -0.95,1.687 -4.865,1.688 c -0.112,0 -0.22,-0.055 -0.29,-0.161 l -0.606,-0.894 3.923,0 c 0.104,0.008 0.202,0.062 0.266,0.16 l 0.622,0.894 z m 0.492,-3.528 c 0.069,0.106 0.178,0.161 0.291,0.161 l 3.715,0 -0.612,-0.894 C 2.872,-2.673 2.774,-2.726 2.671,-2.734 l -3.744,0 0.615,0.893 z"
             style="fill:#ffffff;fill-opacity:1;fill-rule:nonzero;stroke:none"
             id="path13258"
             inkscape:connector-curvature="0" />
        </g>
        <g
           id="g13260"
           transform="translate(149.0837,591.2627)">
          <path
             d="m 0,0 -1.806,2.468 0,-2.468 -0.83,0 0,3.736 0.819,0 1.806,-2.474 0,2.474 0.83,0 L 0.819,0 0,0 z"
             style="fill:#2e2a25;fill-opacity:1;fill-rule:nonzero;stroke:none"
             id="path13262"
             inkscape:connector-curvature="0" />
        </g>
        <g
           id="g13264"
           transform="translate(151.0534,591.2627)">
          <path
             d="m 0,0 0,3.736 2.743,0 0,-0.724 -1.901,0 0,-0.723 1.795,0 0,-0.724 -1.795,0 0,-0.841 1.901,0 L 2.743,0 0,0 z"
             style="fill:#2e2a25;fill-opacity:1;fill-rule:nonzero;stroke:none"
             id="path13266"
             inkscape:connector-curvature="0" />
        </g>
        <g
           id="g13268"
           transform="translate(158.2624,591.2627)">
          <path
             d="M 0,0 -0.668,0 -1.431,2.334 -2.188,0 l -0.667,0 -0.909,3.736 0.83,0 0.511,-2.182 0.706,2.182 0.578,0 0.707,-2.182 0.511,2.182 0.83,0 L 0,0 z"
             style="fill:#2e2a25;fill-opacity:1;fill-rule:nonzero;stroke:none"
             id="path13270"
             inkscape:connector-curvature="0" />
        </g>
        <g
           id="g13272"
           transform="translate(161.1856,591.201)">
          <path
             d="m 0,0 c -0.493,0 -1.038,0.107 -1.565,0.314 l 0.174,0.645 c 0.471,-0.151 0.948,-0.247 1.38,-0.247 0.477,0 0.757,0.107 0.757,0.387 0,0.23 -0.213,0.275 -0.897,0.533 -0.842,0.315 -1.262,0.528 -1.262,1.184 0,0.69 0.482,1.038 1.542,1.038 0.421,0 0.976,-0.079 1.358,-0.191 L 1.358,2.979 C 1.021,3.074 0.527,3.13 0.14,3.13 -0.387,3.13 -0.572,3.057 -0.572,2.838 -0.572,2.603 -0.336,2.536 0.415,2.244 1.206,1.935 1.588,1.812 1.588,1.122 1.588,0.421 0.92,0 0,0"
             style="fill:#2e2a25;fill-opacity:1;fill-rule:nonzero;stroke:none"
             id="path13274"
             inkscape:connector-curvature="0" />
        </g>
      </g>
    </g>
  </g>
</svg>
