<?xml version="1.0" encoding="UTF-8" standalone="yes"?>
<svg xmlns="http://www.w3.org/2000/svg" xmlns:xlink="http://www.w3.org/1999/xlink" width="564px" height="106.66666666666666px" viewBox="0 0 423 80" version="1.1">
  <g id="surface1">
    <path style=" stroke:none;fill-rule:nonzero;fill:rgb(92.941176%,7.843137%,7.843137%);fill-opacity:1;" d="M 0 0 L 79.808594 0 C 79.808594 26.648438 79.808594 53.296875 79.808594 79.945312 L 0 79.945312 L 0 0 M 26.140625 19.117188 C 23.535156 22.472656 22.222656 26.746094 22.210938 30.976562 C 26.335938 30.976562 30.460938 30.988281 34.585938 30.972656 C 32.769531 29.589844 30.914062 28.253906 29.085938 26.886719 C 29.574219 25.433594 30.308594 24.066406 31.277344 22.882812 C 33.695312 19.800781 37.488281 18.101562 41.324219 17.695312 C 41.289062 15.703125 41.371094 13.714844 41.277344 11.730469 C 35.449219 11.738281 29.761719 14.5625 26.140625 19.117188 M 41.300781 17.703125 C 41.296875 19.726562 41.300781 21.75 41.300781 23.773438 C 43.246094 23.820312 45.183594 24.601562 46.511719 26.042969 C 48.257812 27.859375 48.90625 30.652344 48.105469 33.042969 C 47.644531 34.5625 46.5625 35.800781 45.335938 36.761719 C 42.585938 38.878906 39.847656 41.011719 37.105469 43.136719 C 33.046875 46.238281 29.359375 49.855469 26.300781 53.953125 C 23.175781 58.457031 20.964844 63.730469 20.601562 69.238281 C 23.09375 67.382812 25.550781 65.472656 28.050781 63.625 C 29.382812 59.230469 32.332031 55.578125 35.539062 52.394531 C 40.003906 47.914062 45.609375 44.828125 50.277344 40.585938 C 52.984375 38.152344 54.589844 34.539062 54.570312 30.890625 C 54.597656 27.367188 53.097656 23.871094 50.554688 21.4375 C 48.105469 19.046875 44.710938 17.710938 41.300781 17.703125 M 38.902344 57.679688 C 35.703125 59.429688 32.492188 61.164062 29.277344 62.898438 C 28.886719 63.109375 28.558594 63.414062 28.230469 63.710938 C 28.992188 63.484375 29.789062 63.574219 30.574219 63.570312 C 38.15625 63.5625 45.734375 63.578125 53.3125 63.5625 C 53.707031 63.605469 54.234375 63.421875 54.488281 63.839844 C 56.085938 65.703125 57.660156 67.582031 59.269531 69.4375 C 59.289062 65.441406 59.273438 61.445312 59.277344 57.453125 C 53.046875 57.445312 46.8125 57.460938 40.582031 57.445312 C 40.019531 57.464844 39.40625 57.359375 38.902344 57.679688 Z M 38.902344 57.679688 "/>
    <path style=" stroke:none;fill-rule:nonzero;fill:rgb(92.941176%,7.843137%,7.843137%);fill-opacity:1;" d="M 100.367188 17.699219 C 102.980469 17.734375 105.585938 17.710938 108.199219 17.710938 C 112.824219 25.730469 117.324219 33.832031 121.996094 41.824219 C 122.003906 33.800781 122.03125 25.777344 121.984375 17.753906 C 124.371094 17.675781 126.761719 17.722656 129.152344 17.730469 C 129.128906 30.984375 129.152344 44.234375 129.140625 57.484375 C 126.925781 57.5 124.710938 57.457031 122.496094 57.507812 C 117.414062 48.828125 112.519531 40.039062 107.445312 31.355469 C 107.40625 40.066406 107.4375 48.773438 107.425781 57.484375 C 105.066406 57.484375 102.703125 57.488281 100.34375 57.484375 C 100.355469 44.222656 100.304688 30.960938 100.367188 17.699219 Z M 100.367188 17.699219 "/>
    <path style=" stroke:none;fill-rule:nonzero;fill:rgb(92.941176%,7.843137%,7.843137%);fill-opacity:1;" d="M 162.441406 17.71875 C 164.898438 17.71875 167.347656 17.710938 169.804688 17.722656 C 169.804688 22.652344 169.792969 27.585938 169.804688 32.519531 C 170.785156 30.890625 172.113281 29.429688 173.835938 28.582031 C 176.597656 27.199219 180.171875 27.054688 182.777344 28.871094 C 184.917969 30.324219 186.054688 32.941406 186.046875 35.492188 C 186.070312 42.808594 186.027344 50.128906 186.070312 57.449219 C 183.609375 57.519531 181.148438 57.492188 178.6875 57.464844 C 178.710938 51.046875 178.6875 44.632812 178.699219 38.21875 C 178.683594 36.96875 178.691406 35.601562 177.929688 34.542969 C 177.167969 33.492188 175.753906 33.214844 174.53125 33.308594 C 172.59375 33.484375 170.976562 34.976562 170.273438 36.738281 C 169.636719 38.234375 169.828125 39.890625 169.800781 41.472656 C 169.777344 46.820312 169.839844 52.164062 169.769531 57.503906 C 167.324219 57.449219 164.878906 57.523438 162.433594 57.464844 C 162.457031 44.21875 162.433594 30.964844 162.441406 17.71875 Z M 162.441406 17.71875 "/>
    <path style=" stroke:none;fill-rule:nonzero;fill:rgb(92.941176%,7.843137%,7.843137%);fill-opacity:1;" d="M 265.796875 17.714844 C 267.101562 17.714844 268.410156 17.714844 269.71875 17.714844 C 269.726562 26.175781 269.714844 34.636719 269.726562 43.097656 C 273.296875 38.433594 276.832031 33.742188 280.402344 29.078125 C 281.890625 29.085938 283.382812 29.082031 284.871094 29.082031 C 282.332031 32.324219 279.78125 35.558594 277.238281 38.800781 C 279.882812 45.03125 282.554688 51.253906 285.191406 57.484375 C 283.824219 57.492188 282.457031 57.46875 281.089844 57.5 C 278.816406 52.289062 276.621094 47.039062 274.402344 41.804688 C 272.792969 43.722656 271.285156 45.722656 269.71875 47.675781 C 269.71875 50.945312 269.71875 54.214844 269.71875 57.484375 C 268.410156 57.488281 267.101562 57.488281 265.796875 57.484375 C 265.796875 44.226562 265.792969 30.972656 265.796875 17.714844 Z M 265.796875 17.714844 "/>
    <path style=" stroke:none;fill-rule:nonzero;fill:rgb(92.941176%,7.843137%,7.843137%);fill-opacity:1;" d="M 364.835938 17.714844 C 366.140625 17.714844 367.449219 17.714844 368.757812 17.714844 C 368.761719 28.882812 368.753906 40.050781 368.761719 51.21875 C 368.722656 52.277344 369.097656 53.480469 370.105469 53.988281 C 371.445312 54.675781 373 54.332031 374.425781 54.191406 C 374.417969 55.226562 374.433594 56.261719 374.410156 57.292969 C 372.136719 57.914062 369.53125 58.183594 367.371094 57.039062 C 365.585938 56.085938 364.828125 53.972656 364.84375 52.039062 C 364.820312 40.597656 364.839844 29.15625 364.835938 17.714844 Z M 364.835938 17.714844 "/>
    <path style=" stroke:none;fill-rule:nonzero;fill:rgb(92.941176%,7.843137%,7.843137%);fill-opacity:1;" d="M 221.667969 20.78125 C 224.160156 20.78125 226.652344 20.78125 229.144531 20.78125 C 229.148438 23.363281 229.144531 25.941406 229.148438 28.519531 C 231.355469 28.519531 233.558594 28.53125 235.765625 28.515625 C 235.785156 30.492188 235.773438 32.472656 235.777344 34.449219 C 233.566406 34.453125 231.355469 34.449219 229.148438 34.453125 C 229.144531 39.042969 229.152344 43.636719 229.144531 48.226562 C 229.109375 49.304688 229.167969 50.695312 230.289062 51.226562 C 231.804688 51.863281 233.496094 51.445312 235.050781 51.179688 C 235.046875 53.152344 235.046875 55.125 235.050781 57.097656 C 232.484375 57.925781 229.726562 58.304688 227.054688 57.839844 C 225.242188 57.507812 223.4375 56.554688 222.53125 54.890625 C 221.851562 53.695312 221.660156 52.292969 221.667969 50.9375 C 221.667969 45.441406 221.671875 39.945312 221.667969 34.453125 C 220.316406 34.449219 218.964844 34.453125 217.613281 34.449219 C 217.609375 32.472656 217.609375 30.5 217.613281 28.523438 C 218.964844 28.519531 220.316406 28.523438 221.667969 28.519531 C 221.671875 25.941406 221.667969 23.363281 221.667969 20.78125 Z M 221.667969 20.78125 "/>
    <path style=" stroke:none;fill-rule:nonzero;fill:rgb(92.941176%,7.843137%,7.843137%);fill-opacity:1;" d="M 199.660156 27.847656 C 203.121094 27.160156 206.972656 27.535156 209.921875 29.597656 C 212.535156 31.394531 213.9375 34.554688 214.027344 37.671875 C 214.066406 40.058594 214.03125 42.445312 214.042969 44.832031 C 208.757812 44.835938 203.46875 44.832031 198.179688 44.835938 C 198.234375 46.554688 197.925781 48.410156 198.8125 49.980469 C 199.566406 51.363281 201.148438 52.023438 202.648438 52.195312 C 205.746094 52.566406 208.808594 51.648438 211.648438 50.496094 C 212.21875 52.125 212.738281 53.769531 213.335938 55.386719 C 210.289062 57.417969 206.546875 58.117188 202.941406 58.148438 C 199.730469 58.164062 196.3125 57.402344 193.890625 55.167969 C 191.882812 53.347656 190.898438 50.632812 190.789062 47.96875 C 190.71875 45.804688 190.773438 43.640625 190.757812 41.480469 C 190.707031 38.917969 190.742188 36.253906 191.863281 33.894531 C 193.25 30.730469 196.3125 28.503906 199.660156 27.847656 M 198.835938 34.953125 C 197.914062 36.515625 198.238281 38.386719 198.175781 40.109375 C 201.101562 40.144531 204.027344 40.117188 206.957031 40.125 C 206.90625 38.363281 207.207031 36.457031 206.285156 34.855469 C 204.796875 32.171875 200.269531 32.253906 198.835938 34.953125 Z M 198.835938 34.953125 "/>
    <path style=" stroke:none;fill-rule:nonzero;fill:rgb(92.941176%,7.843137%,7.843137%);fill-opacity:1;" d="M 241.222656 32.351562 C 242.648438 29.714844 245.472656 28.066406 248.394531 27.675781 C 252.570312 27.128906 257.09375 28.066406 260.335938 30.871094 C 259.109375 32.476562 257.933594 34.121094 256.664062 35.691406 C 254.929688 34.304688 252.839844 33.199219 250.578125 33.128906 C 249.539062 33.113281 248.414062 33.234375 247.578125 33.910156 C 246.414062 34.855469 246.582031 36.902344 247.804688 37.730469 C 248.757812 38.402344 249.890625 38.761719 250.984375 39.132812 C 253.796875 40.054688 256.820312 40.902344 258.921875 43.125 C 261.917969 46.132812 261.867188 51.457031 259.027344 54.546875 C 256.652344 57.195312 252.949219 58.234375 249.488281 58.148438 C 245.449219 58.136719 241.28125 56.816406 238.421875 53.863281 C 239.667969 52.253906 240.910156 50.640625 242.171875 49.046875 C 244.175781 50.582031 246.371094 52.066406 248.910156 52.484375 C 250.402344 52.667969 252.121094 52.546875 253.296875 51.503906 C 254.515625 50.382812 254.253906 48.15625 252.804688 47.347656 C 249.59375 45.511719 245.507812 45.429688 242.699219 42.839844 C 239.792969 40.273438 239.367188 35.652344 241.222656 32.351562 Z M 241.222656 32.351562 "/>
    <path style=" stroke:none;fill-rule:nonzero;fill:rgb(92.941176%,7.843137%,7.843137%);fill-opacity:1;" d="M 133.039062 28.199219 C 135.621094 28.199219 138.207031 28.199219 140.792969 28.199219 C 142.726562 34.542969 144.660156 40.886719 146.589844 47.230469 C 148.449219 40.902344 150.199219 34.539062 152.019531 28.199219 C 154.253906 28.199219 156.484375 28.199219 158.71875 28.199219 C 155.871094 37.324219 153.015625 46.4375 150.164062 55.5625 C 149.472656 57.652344 148.933594 59.800781 148.074219 61.832031 C 147.078125 64.144531 145.433594 66.347656 143.027344 67.300781 C 140.433594 68.3125 137.542969 68.03125 134.878906 67.472656 C 135.003906 65.460938 135.132812 63.449219 135.265625 61.4375 C 136.941406 61.71875 138.761719 62.207031 140.402344 61.550781 C 142.101562 60.613281 142.324219 58.433594 142.792969 56.742188 C 139.574219 47.21875 136.28125 37.71875 133.039062 28.199219 Z M 133.039062 28.199219 "/>
    <path style=" stroke:none;fill-rule:nonzero;fill:rgb(92.941176%,7.843137%,7.843137%);fill-opacity:1;" d="M 294.875 28.917969 C 297.269531 28.300781 299.828125 28.234375 302.234375 28.828125 C 304.265625 29.335938 306.230469 30.5625 307.160156 32.5 C 308.109375 34.34375 307.878906 36.476562 307.910156 38.480469 C 307.945312 44.816406 307.769531 51.15625 308.183594 57.480469 C 306.972656 57.488281 305.761719 57.484375 304.550781 57.484375 C 304.464844 55.949219 304.40625 54.40625 304.3125 52.871094 C 303.582031 54.34375 302.566406 55.710938 301.15625 56.597656 C 298.414062 58.34375 294.683594 58.664062 291.8125 57.058594 C 290.046875 56.09375 288.828125 54.300781 288.394531 52.355469 C 287.820312 49.769531 288.140625 46.851562 289.796875 44.710938 C 291.582031 42.398438 294.515625 41.277344 297.351562 41.023438 C 299.542969 40.910156 301.738281 41 303.929688 40.96875 C 303.921875 39.242188 303.953125 37.507812 303.921875 35.78125 C 303.886719 34.445312 303.320312 33.066406 302.195312 32.296875 C 300.8125 31.335938 299.039062 31.183594 297.410156 31.335938 C 295.695312 31.511719 293.855469 32.261719 293.007812 33.855469 C 292.398438 34.941406 292.566406 36.222656 292.550781 37.414062 C 291.371094 37.414062 290.191406 37.414062 289.015625 37.414062 C 289.007812 35.890625 288.914062 34.285156 289.609375 32.875 C 290.570312 30.769531 292.714844 29.492188 294.875 28.917969 M 297.074219 43.828125 C 295.164062 44.105469 293.1875 45.195312 292.542969 47.121094 C 291.871094 49.15625 292.015625 51.621094 293.378906 53.347656 C 294.515625 54.765625 296.472656 55.28125 298.21875 54.992188 C 300.707031 54.660156 302.847656 52.746094 303.578125 50.355469 C 304.210938 48.183594 303.824219 45.890625 303.929688 43.667969 C 301.648438 43.730469 299.34375 43.511719 297.074219 43.828125 Z M 297.074219 43.828125 "/>
    <path style=" stroke:none;fill-rule:nonzero;fill:rgb(92.941176%,7.843137%,7.843137%);fill-opacity:1;" d="M 321.3125 29.914062 C 323.355469 28.625 325.902344 28.15625 328.277344 28.578125 C 330.632812 29.007812 332.660156 30.792969 333.40625 33.066406 C 333.960938 34.539062 333.820312 36.128906 333.835938 37.667969 C 333.84375 44.269531 333.820312 50.863281 333.847656 57.460938 C 332.539062 57.511719 331.230469 57.476562 329.925781 57.484375 C 329.925781 50.78125 329.921875 44.082031 329.929688 37.382812 C 329.945312 35.875 329.867188 34.210938 328.867188 32.996094 C 327.746094 31.667969 325.828125 31.417969 324.203125 31.632812 C 320.667969 32.253906 317.976562 35.730469 318.039062 39.289062 C 318.035156 45.355469 318.039062 51.421875 318.039062 57.484375 C 316.726562 57.484375 315.421875 57.488281 314.117188 57.484375 C 314.113281 48.015625 314.113281 38.550781 314.113281 29.085938 C 315.347656 29.082031 316.582031 29.082031 317.816406 29.082031 C 317.816406 30.695312 317.820312 32.304688 317.816406 33.917969 C 318.628906 32.324219 319.773438 30.863281 321.3125 29.914062 Z M 321.3125 29.914062 "/>
    <path style=" stroke:none;fill-rule:nonzero;fill:rgb(92.941176%,7.843137%,7.843137%);fill-opacity:1;" d="M 340.734375 32.332031 C 342.125 30.011719 344.84375 28.925781 347.417969 28.570312 C 350.324219 28.207031 353.523438 28.425781 355.996094 30.15625 C 357.746094 31.359375 358.695312 33.472656 358.726562 35.566406 C 358.832031 42.871094 358.550781 50.1875 359.019531 57.484375 C 357.808594 57.484375 356.59375 57.492188 355.382812 57.480469 C 355.300781 55.945312 355.246094 54.40625 355.148438 52.871094 C 354.417969 54.34375 353.40625 55.710938 351.996094 56.59375 C 349.269531 58.332031 345.5625 58.660156 342.691406 57.082031 C 340.882812 56.109375 339.636719 54.269531 339.210938 52.277344 C 338.703125 49.878906 338.941406 47.21875 340.328125 45.140625 C 341.5 43.351562 343.414062 42.175781 345.425781 41.558594 C 348.449219 40.605469 351.65625 41.09375 354.769531 40.96875 C 354.757812 39.234375 354.796875 37.496094 354.753906 35.757812 C 354.722656 34.4375 354.15625 33.082031 353.054688 32.308594 C 351.679688 31.34375 349.914062 31.1875 348.289062 31.332031 C 346.636719 31.5 344.878906 32.171875 343.964844 33.640625 C 343.242188 34.761719 343.378906 36.144531 343.375 37.414062 C 342.199219 37.414062 341.027344 37.414062 339.859375 37.414062 C 339.820312 35.691406 339.773438 33.84375 340.734375 32.332031 M 347.164062 43.988281 C 345.390625 44.386719 343.738281 45.640625 343.269531 47.457031 C 342.59375 49.871094 343.082031 53.003906 345.40625 54.367188 C 348.332031 56.039062 352.316406 54.5625 353.847656 51.660156 C 355.253906 49.230469 354.632812 46.328125 354.769531 43.667969 C 352.234375 43.765625 349.652344 43.402344 347.164062 43.988281 Z M 347.164062 43.988281 "/>
    <path style=" stroke:none;fill-rule:nonzero;fill:rgb(92.941176%,7.843137%,7.843137%);fill-opacity:1;" d="M 381.136719 31.058594 C 383.910156 28.429688 388.148438 27.890625 391.722656 28.890625 C 394.351562 29.625 396.492188 31.757812 397.289062 34.359375 C 398.292969 37.492188 397.789062 40.824219 397.914062 44.050781 C 392.605469 44.058594 387.292969 44.050781 381.984375 44.058594 C 382.101562 46.820312 381.507812 49.894531 383.109375 52.347656 C 384.519531 54.464844 387.292969 54.941406 389.652344 54.832031 C 391.9375 54.785156 394.066406 53.863281 396.054688 52.808594 C 396.5 53.695312 396.996094 54.554688 397.472656 55.421875 C 395.039062 57.332031 391.90625 58.125 388.859375 58.144531 C 386.226562 58.1875 383.4375 57.695312 381.324219 56.023438 C 378.824219 54.085938 377.945312 50.753906 378.023438 47.710938 C 378.035156 44.722656 378.015625 41.730469 378.03125 38.742188 C 378.085938 35.925781 379.042969 33.019531 381.136719 31.058594 M 382.96875 34.234375 C 381.710938 36.332031 382.015625 38.859375 381.984375 41.191406 C 386.042969 41.1875 390.105469 41.199219 394.164062 41.183594 C 394.101562 38.882812 394.453125 36.417969 393.316406 34.304688 C 391.367188 30.484375 384.992188 30.472656 382.96875 34.234375 Z M 382.96875 34.234375 "/>
    <path style=" stroke:none;fill-rule:nonzero;fill:rgb(92.941176%,7.843137%,7.843137%);fill-opacity:1;" d="M 408.367188 31.710938 C 410.710938 28.898438 414.816406 27.746094 418.292969 28.820312 C 420.90625 29.644531 422.660156 32.191406 422.945312 34.863281 L 422.945312 57.484375 C 421.640625 57.484375 420.339844 57.484375 419.042969 57.484375 C 419.039062 50.96875 419.035156 44.449219 419.042969 37.933594 C 419.050781 36.292969 419.101562 34.472656 418.0625 33.101562 C 417.007812 31.722656 415.105469 31.4375 413.484375 31.609375 C 409.863281 32.132812 407.082031 35.6875 407.152344 39.304688 C 407.148438 45.359375 407.148438 51.421875 407.152344 57.476562 C 405.839844 57.492188 404.53125 57.484375 403.226562 57.484375 C 403.226562 48.015625 403.226562 38.550781 403.226562 29.082031 C 404.457031 29.082031 405.691406 29.082031 406.929688 29.082031 C 406.929688 30.683594 406.929688 32.285156 406.929688 33.886719 C 407.363281 33.132812 407.796875 32.375 408.367188 31.710938 Z M 408.367188 31.710938 "/>
    <path style=" stroke:none;fill-rule:nonzero;fill:rgb(100%,100%,100%);fill-opacity:1;" d="M 26.140625 19.117188 C 29.761719 14.5625 35.449219 11.738281 41.277344 11.730469 C 41.371094 13.714844 41.289062 15.703125 41.324219 17.695312 C 37.488281 18.101562 33.695312 19.800781 31.277344 22.882812 C 30.308594 24.066406 29.574219 25.433594 29.085938 26.886719 C 30.914062 28.253906 32.769531 29.589844 34.585938 30.972656 C 30.460938 30.988281 26.335938 30.976562 22.210938 30.976562 C 22.222656 26.746094 23.535156 22.472656 26.140625 19.117188 Z M 26.140625 19.117188 "/>
    <path style=" stroke:none;fill-rule:nonzero;fill:rgb(100%,100%,100%);fill-opacity:1;" d="M 41.300781 17.703125 C 44.710938 17.710938 48.105469 19.046875 50.554688 21.4375 C 53.097656 23.871094 54.597656 27.367188 54.570312 30.890625 C 54.589844 34.539062 52.984375 38.152344 50.277344 40.585938 C 45.609375 44.828125 40.003906 47.914062 35.539062 52.394531 C 32.332031 55.578125 29.382812 59.230469 28.050781 63.625 C 25.550781 65.472656 23.09375 67.382812 20.601562 69.238281 C 20.964844 63.730469 23.175781 58.457031 26.300781 53.953125 C 29.359375 49.855469 33.046875 46.238281 37.105469 43.136719 C 39.847656 41.011719 42.585938 38.878906 45.335938 36.761719 C 46.5625 35.800781 47.644531 34.5625 48.105469 33.042969 C 48.90625 30.652344 48.257812 27.859375 46.511719 26.042969 C 45.183594 24.601562 43.246094 23.820312 41.300781 23.773438 C 41.300781 21.75 41.296875 19.726562 41.300781 17.703125 Z M 41.300781 17.703125 "/>
    <path style=" stroke:none;fill-rule:nonzero;fill:rgb(100%,100%,100%);fill-opacity:1;" d="M 38.902344 57.679688 C 39.40625 57.359375 40.019531 57.464844 40.582031 57.445312 C 46.8125 57.460938 53.046875 57.445312 59.277344 57.453125 C 59.273438 61.445312 59.289062 65.441406 59.269531 69.4375 C 57.660156 67.582031 56.085938 65.703125 54.488281 63.839844 C 54.234375 63.421875 53.707031 63.605469 53.3125 63.5625 C 45.734375 63.578125 38.15625 63.5625 30.574219 63.570312 C 29.789062 63.574219 28.992188 63.484375 28.230469 63.710938 C 28.558594 63.414062 28.886719 63.109375 29.277344 62.898438 C 32.492188 61.164062 35.703125 59.429688 38.902344 57.679688 Z M 38.902344 57.679688 "/>
  </g>
</svg>