<?xml version="1.0" encoding="UTF-8" standalone="yes"?>
<svg xmlns="http://www.w3.org/2000/svg" xmlns:xlink="http://www.w3.org/1999/xlink" width="734.6666666666666px" height="106.66666666666666px" viewBox="0 0 551 80" version="1.1">
  <g id="surface1">
    <path style=" stroke:none;fill-rule:nonzero;fill:rgb(96.078431%,48.627451%,7.843137%);fill-opacity:1;" d="M 26.773438 25.992188 C 19.410156 25.984375 12.65625 29.007812 7.835938 33.84375 C 3.011719 38.65625 -0.0078125 45.417969 0 52.796875 L 0 77.277344 L 20.324219 77.277344 L 20.324219 53.207031 C 20.332031 50.273438 21.027344 47.769531 22.21875 45.828125 C 23.414062 43.914062 24.960938 42.78125 26.773438 42.769531 C 28.589844 42.78125 30.136719 43.914062 31.332031 45.828125 C 32.523438 47.769531 33.21875 50.273438 33.226562 53.207031 L 33.226562 77.277344 L 53.558594 77.277344 L 53.558594 52.796875 C 53.558594 45.417969 50.539062 38.65625 45.710938 33.84375 C 40.894531 29.007812 34.140625 25.984375 26.773438 25.992188 "/>
    <path style=" stroke:none;fill-rule:nonzero;fill:rgb(96.078431%,48.627451%,7.843137%);fill-opacity:1;" d="M 513.425781 25.992188 C 506.0625 25.984375 499.304688 29.007812 494.488281 33.84375 C 489.660156 38.65625 486.640625 45.417969 486.648438 52.796875 L 486.648438 77.277344 L 506.972656 77.277344 L 506.972656 53.207031 C 506.980469 50.273438 507.679688 47.769531 508.867188 45.828125 C 510.066406 43.914062 511.609375 42.78125 513.425781 42.769531 C 515.238281 42.78125 516.785156 43.914062 517.984375 45.828125 C 519.171875 47.769531 519.867188 50.273438 519.878906 53.207031 L 519.878906 77.277344 L 540.210938 77.277344 L 540.210938 52.796875 C 540.210938 45.417969 537.1875 38.65625 532.363281 33.84375 C 527.546875 29.007812 520.789062 25.984375 513.425781 25.992188 "/>
    <path style=" stroke:none;fill-rule:nonzero;fill:rgb(96.078431%,48.627451%,7.843137%);fill-opacity:1;" d="M 75.433594 19.402344 C 77.480469 17.355469 78.742188 14.53125 78.742188 11.40625 C 78.742188 8.277344 77.480469 5.453125 75.433594 3.410156 C 73.386719 1.363281 70.5625 0.09375 67.445312 0.09375 C 64.324219 0.09375 61.5 1.363281 59.453125 3.410156 C 57.410156 5.453125 56.140625 8.277344 56.140625 11.40625 C 56.140625 14.53125 57.410156 17.355469 59.453125 19.402344 L 61.949219 21.898438 C 66.113281 26.074219 66.40625 27.175781 62.449219 31.136719 C 62.449219 31.136719 60.179688 33.410156 60.179688 33.410156 C 58.320312 35.277344 57.167969 37.847656 57.167969 40.691406 L 57.167969 77.269531 L 77.714844 77.269531 L 77.714844 40.691406 C 77.714844 37.847656 76.570312 35.277344 74.710938 33.410156 L 72.441406 31.148438 C 68.480469 27.183594 68.777344 26.074219 72.941406 21.898438 Z M 75.433594 19.402344 "/>
    <path style=" stroke:none;fill-rule:nonzero;fill:rgb(96.078431%,48.627451%,7.843137%);fill-opacity:1;" d="M 111.851562 61.34375 C 110.65625 63.554688 109.101562 64.867188 107.296875 64.878906 C 105.480469 64.867188 103.925781 63.554688 102.726562 61.34375 C 101.546875 59.109375 100.84375 56.210938 100.84375 52.820312 C 100.84375 49.429688 101.546875 46.542969 102.726562 44.296875 C 103.925781 42.089844 105.480469 40.773438 107.296875 40.765625 C 109.101562 40.773438 110.65625 42.089844 111.851562 44.296875 C 112.730469 45.960938 113.335938 47.980469 113.597656 50.296875 L 133.953125 50.296875 C 133.355469 43.921875 130.503906 38.136719 126.234375 33.867188 C 121.414062 29.03125 114.648438 26.015625 107.296875 26.015625 C 99.929688 26.015625 93.164062 29.03125 88.359375 33.867188 C 83.523438 38.691406 80.503906 45.449219 80.511719 52.820312 C 80.503906 60.191406 83.523438 66.953125 88.359375 71.773438 C 92.066406 75.484375 98.519531 79.625 107.296875 79.625 C 113.882812 79.625 119.984375 77.203125 124.652344 73.230469 C 128.046875 70.34375 133.085938 64.546875 133.953125 55.34375 L 113.597656 55.34375 C 113.335938 57.660156 112.730469 59.679688 111.851562 61.34375 "/>
    <path style=" stroke:none;fill-rule:nonzero;fill:rgb(96.078431%,48.627451%,7.843137%);fill-opacity:1;" d="M 206.054688 47.992188 C 206.417969 46.429688 206.910156 45.050781 207.394531 44.023438 C 208.296875 42.082031 210.136719 40.5 211.953125 40.488281 C 213.785156 40.5 215.277344 41.796875 216.546875 44.09375 C 217.097656 45.085938 217.589844 46.8125 217.832031 47.957031 Z M 211.953125 25.972656 C 204.585938 25.964844 197.832031 28.988281 193.015625 33.816406 C 188.1875 38.636719 185.167969 45.410156 185.167969 52.777344 C 185.167969 60.148438 188.1875 66.910156 193.015625 71.730469 C 197.707031 76.425781 204.347656 79.574219 212.066406 79.574219 C 220.019531 79.574219 226.609375 76.023438 231.050781 71.5625 C 236.644531 65.140625 236.914062 58.269531 236.914062 58.269531 L 218.789062 58.269531 C 218.789062 58.269531 216.277344 64.601562 211.953125 64.601562 C 210.136719 64.59375 208.589844 63.289062 207.394531 61.070312 C 206.582031 59.539062 206 57.6875 205.714844 55.597656 L 237.269531 55.597656 C 237.269531 55.597656 239.433594 42.707031 230.800781 33.988281 C 225.785156 28.90625 219.394531 25.964844 211.953125 25.972656 "/>
    <path style=" stroke:none;fill-rule:nonzero;fill:rgb(96.078431%,48.627451%,7.843137%);fill-opacity:1;" d="M 396.355469 47.992188 C 396.722656 46.429688 397.210938 45.050781 397.695312 44.023438 C 398.597656 42.082031 400.4375 40.5 402.253906 40.488281 C 404.085938 40.5 405.578125 41.796875 406.847656 44.09375 C 407.402344 45.085938 407.890625 46.8125 408.132812 47.957031 Z M 402.253906 25.972656 C 394.890625 25.964844 388.132812 28.988281 383.316406 33.816406 C 378.488281 38.636719 375.46875 45.410156 375.46875 52.777344 C 375.46875 60.148438 378.488281 66.910156 383.316406 71.730469 C 388.007812 76.425781 394.648438 79.574219 402.371094 79.574219 C 410.324219 79.574219 416.902344 76.023438 421.351562 71.5625 C 426.945312 65.140625 427.214844 58.269531 427.214844 58.269531 L 409.089844 58.269531 C 409.089844 58.269531 406.578125 64.601562 402.253906 64.601562 C 400.4375 64.59375 398.894531 63.289062 397.695312 61.070312 C 396.882812 59.539062 396.300781 57.6875 396.015625 55.597656 L 427.570312 55.597656 C 427.570312 55.597656 429.734375 42.707031 421.101562 33.988281 C 416.085938 28.90625 409.699219 25.964844 402.253906 25.972656 "/>
    <path style=" stroke:none;fill-rule:nonzero;fill:rgb(96.078431%,48.627451%,7.843137%);fill-opacity:1;" d="M 250.324219 0 C 244.714844 0 240.164062 4.5625 240.164062 10.179688 L 240.191406 77.265625 L 260.523438 77.265625 L 260.496094 10.167969 C 260.496094 4.550781 255.9375 0 250.324219 0 "/>
    <path style=" stroke:none;fill-rule:nonzero;fill:rgb(96.078431%,48.627451%,7.843137%);fill-opacity:1;" d="M 290.109375 64.863281 C 286.550781 64.863281 283.65625 59.460938 283.65625 52.789062 C 283.65625 46.125 286.550781 40.722656 290.109375 40.722656 C 293.675781 40.722656 296.5625 46.125 296.5625 52.789062 C 296.5625 59.460938 293.675781 64.863281 290.109375 64.863281 M 290.109375 25.992188 C 275.316406 25.992188 263.324219 37.988281 263.324219 52.789062 C 263.324219 67.589844 275.316406 79.59375 290.109375 79.59375 C 304.898438 79.59375 316.894531 67.589844 316.894531 52.789062 C 316.894531 37.988281 304.898438 25.992188 290.109375 25.992188 "/>
    <path style=" stroke:none;fill-rule:nonzero;fill:rgb(96.078431%,48.627451%,7.843137%);fill-opacity:1;" d="M 457.351562 64.863281 C 453.792969 64.863281 450.898438 59.460938 450.898438 52.789062 C 450.898438 46.125 453.792969 40.722656 457.351562 40.722656 C 460.90625 40.722656 463.800781 46.125 463.800781 52.789062 C 463.800781 59.460938 460.90625 64.863281 457.351562 64.863281 M 457.351562 25.992188 C 442.558594 25.992188 430.566406 37.988281 430.566406 52.789062 C 430.566406 67.589844 442.558594 79.59375 457.351562 79.59375 C 472.140625 79.59375 484.132812 67.589844 484.132812 52.789062 C 484.132812 37.988281 472.140625 25.992188 457.351562 25.992188 "/>
    <path style=" stroke:none;fill-rule:nonzero;fill:rgb(96.078431%,48.627451%,7.843137%);fill-opacity:1;" d="M 346.109375 64.863281 C 342.554688 64.863281 339.65625 59.460938 339.65625 52.789062 C 339.65625 46.125 342.554688 40.722656 346.109375 40.722656 C 349.675781 40.722656 352.5625 46.125 352.5625 52.789062 C 352.5625 59.460938 349.675781 64.863281 346.109375 64.863281 M 372.886719 52.796875 L 372.929688 52.816406 L 372.902344 10.164062 C 372.894531 4.546875 368.34375 -0.0078125 362.734375 0.00390625 C 357.121094 0.00390625 352.570312 4.5625 352.570312 10.179688 L 352.582031 26.816406 C 350.496094 26.296875 348.335938 26.019531 346.109375 26.019531 C 338.746094 26.011719 331.988281 29.035156 327.171875 33.875 C 322.347656 38.683594 319.324219 45.457031 319.335938 52.816406 C 319.324219 60.1875 322.347656 66.957031 327.171875 71.769531 C 330.253906 74.871094 336.878906 79.628906 346.109375 79.621094 C 355.351562 79.628906 361.964844 74.871094 365.046875 71.769531 C 369.875 66.957031 372.894531 60.1875 372.894531 52.816406 C 372.894531 52.808594 372.886719 52.796875 372.886719 52.796875 "/>
    <path style=" stroke:none;fill-rule:nonzero;fill:rgb(96.078431%,48.627451%,7.843137%);fill-opacity:1;" d="M 188.121094 73.71875 C 188.121094 73.039062 187.914062 72.402344 187.582031 71.867188 L 176.449219 55.015625 L 184.160156 41.007812 C 187.011719 36.171875 185.402344 29.929688 180.566406 27.074219 C 175.734375 24.222656 169.496094 25.832031 166.644531 30.679688 L 157.4375 47.144531 L 157.4375 36.160156 C 157.4375 30.546875 152.890625 25.992188 147.277344 25.992188 C 141.664062 25.992188 137.105469 30.546875 137.105469 36.160156 L 137.105469 77.277344 L 157.4375 77.277344 L 157.4375 61.179688 L 168.164062 77.269531 L 184.582031 77.257812 C 186.539062 77.257812 188.121094 75.675781 188.121094 73.71875 "/>
    <path style=" stroke:none;fill-rule:nonzero;fill:rgb(96.078431%,50.588235%,7.45098%);fill-opacity:1;" d="M 546.554688 25.992188 L 546.671875 25.992188 L 548.578125 28.125 L 550.476562 25.992188 L 550.59375 25.992188 L 550.59375 29.992188 L 549.882812 29.992188 L 549.882812 27.515625 L 548.644531 28.988281 L 548.511719 28.988281 L 547.273438 27.515625 L 547.273438 29.992188 L 546.554688 29.992188 Z M 543.792969 26.667969 L 542.605469 26.667969 L 542.605469 26.058594 L 545.699219 26.058594 L 545.699219 26.667969 L 544.511719 26.667969 L 544.511719 29.992188 L 543.792969 29.992188 Z M 543.792969 26.667969 "/>
  </g>
</svg>