<?xml version="1.0" encoding="UTF-8" standalone="yes"?>
<svg xmlns="http://www.w3.org/2000/svg" xmlns:xlink="http://www.w3.org/1999/xlink" width="404px" height="106.66666666666666px" viewBox="0 0 303 80" version="1.1">
  <g id="surface1">
    <path style=" stroke:none;fill-rule:nonzero;fill:rgb(96.078431%,48.627451%,7.843137%);fill-opacity:1;" d="M 26.871094 25.96875 C 19.480469 25.960938 12.703125 28.996094 7.871094 33.839844 C 3.027344 38.671875 0 45.457031 0 52.851562 L 0 77.40625 L 20.398438 77.40625 L 20.398438 53.269531 C 20.40625 50.324219 21.105469 47.816406 22.292969 45.867188 C 23.492188 43.941406 25.050781 42.808594 26.871094 42.800781 C 28.6875 42.808594 30.246094 43.941406 31.445312 45.867188 C 32.632812 47.816406 33.332031 50.324219 33.339844 53.269531 L 33.339844 77.40625 L 53.738281 77.40625 L 53.738281 52.851562 C 53.738281 45.457031 50.710938 38.671875 45.871094 33.839844 C 41.035156 28.996094 34.257812 25.960938 26.871094 25.96875 "/>
    <path style=" stroke:none;fill-rule:nonzero;fill:rgb(96.078431%,48.627451%,7.843137%);fill-opacity:1;" d="M 75.683594 19.359375 C 77.738281 17.304688 79.007812 14.46875 79.007812 11.335938 C 79.007812 8.199219 77.738281 5.371094 75.683594 3.316406 C 73.632812 1.261719 70.796875 0 67.664062 0 C 64.539062 0 61.703125 1.261719 59.652344 3.316406 C 57.597656 5.371094 56.328125 8.199219 56.328125 11.335938 C 56.328125 14.46875 57.597656 17.304688 59.652344 19.359375 L 62.152344 21.871094 C 66.332031 26.046875 66.628906 27.15625 62.652344 31.136719 L 60.378906 33.410156 C 58.511719 35.28125 57.363281 37.859375 57.363281 40.707031 L 57.363281 77.402344 L 77.972656 77.402344 L 77.972656 40.707031 C 77.972656 37.859375 76.816406 35.28125 74.957031 33.410156 L 72.683594 31.136719 C 68.707031 27.15625 69.003906 26.046875 73.183594 21.863281 Z M 75.683594 19.359375 "/>
    <path style=" stroke:none;fill-rule:nonzero;fill:rgb(96.078431%,48.627451%,7.843137%);fill-opacity:1;" d="M 112.222656 61.425781 C 111.015625 63.648438 109.464844 64.964844 107.644531 64.964844 C 105.828125 64.964844 104.277344 63.648438 103.070312 61.425781 C 101.882812 59.183594 101.183594 56.277344 101.175781 52.875 C 101.183594 49.484375 101.882812 46.578125 103.070312 44.324219 C 104.277344 42.113281 105.828125 40.796875 107.644531 40.789062 C 109.464844 40.796875 111.015625 42.113281 112.222656 44.324219 C 113.105469 46 113.714844 48.023438 113.972656 50.351562 L 134.394531 50.351562 C 133.792969 43.953125 130.933594 38.148438 126.644531 33.867188 C 121.8125 29.019531 115.027344 25.992188 107.644531 25.992188 C 100.261719 25.992188 93.480469 29.019531 88.644531 33.867188 C 83.804688 38.703125 80.769531 45.488281 80.777344 52.875 C 80.769531 60.269531 83.804688 67.054688 88.644531 71.886719 C 92.371094 75.605469 98.847656 79.765625 107.644531 79.757812 C 114.261719 79.765625 120.382812 77.332031 125.058594 73.347656 C 128.472656 70.449219 133.527344 64.636719 134.394531 55.402344 L 113.972656 55.402344 C 113.714844 57.730469 113.105469 59.761719 112.222656 61.425781 "/>
    <path style=" stroke:none;fill-rule:nonzero;fill:rgb(96.078431%,48.627451%,7.843137%);fill-opacity:1;" d="M 188.351562 73.835938 C 188.351562 73.152344 188.144531 72.519531 187.8125 71.980469 L 176.640625 55.078125 L 184.375 41.027344 C 187.234375 36.171875 185.621094 29.921875 180.769531 27.058594 C 175.921875 24.199219 169.671875 25.8125 166.804688 30.667969 L 157.574219 47.179688 L 157.574219 36.171875 C 157.574219 30.535156 153.003906 25.964844 147.371094 25.964844 C 141.746094 25.964844 137.175781 30.535156 137.175781 36.171875 L 137.175781 77.402344 L 157.574219 77.402344 L 157.574219 61.261719 L 168.332031 77.394531 L 184.800781 77.386719 C 186.761719 77.386719 188.351562 75.796875 188.351562 73.835938 "/>
    <path style=" stroke:none;fill-rule:nonzero;fill:rgb(29.019608%,76.470588%,79.607843%);fill-opacity:1;" d="M 231.195312 58.863281 C 231.195312 71.300781 225.140625 79.332031 210.605469 79.332031 L 210.042969 79.332031 C 204.964844 79.332031 199.640625 77.984375 196.316406 75.847656 C 190.546875 72.128906 186.785156 66.019531 190.585938 59.570312 C 194.105469 53.582031 206.4375 52.480469 208.261719 62.894531 C 208.902344 66.535156 210.832031 66.066406 210.832031 62.703125 L 210.839844 37.925781 C 210.839844 30.527344 215.410156 25.96875 221.035156 25.96875 C 226.660156 25.976562 231.222656 30.53125 231.222656 36.164062 L 231.191406 58.863281 Z M 221.035156 22.765625 C 226.609375 22.765625 231.117188 18.246094 231.117188 12.671875 C 231.117188 7.097656 226.609375 2.585938 221.035156 2.585938 C 215.460938 2.585938 210.945312 7.097656 210.945312 12.671875 C 210.945312 18.246094 215.460938 22.765625 221.035156 22.765625 "/>
    <path style=" stroke:none;fill-rule:nonzero;fill:rgb(29.019608%,76.470588%,79.607843%);fill-opacity:1;" d="M 256.601562 77.417969 L 256.601562 49.96875 C 256.601562 47.984375 257.839844 44.644531 260.136719 43.753906 C 262.480469 42.851562 264.617188 43.890625 267.183594 44.851562 C 275.640625 48.078125 282.222656 43.808594 283.242188 38.277344 C 284.269531 32.75 280.613281 27.429688 275.085938 26.402344 C 268.296875 25.132812 263.503906 27.269531 257.957031 31.554688 C 257.949219 31.554688 257.949219 31.5625 257.941406 31.5625 C 257.542969 31.867188 256.496094 32.777344 256.128906 33.082031 C 254.824219 28.960938 250.96875 25.96875 246.421875 25.96875 C 240.796875 25.96875 236.234375 30.535156 236.234375 36.15625 L 236.234375 77.417969 Z M 256.601562 77.417969 "/>
    <path style=" stroke:none;fill-rule:nonzero;fill:rgb(29.019608%,76.470588%,79.607843%);fill-opacity:1;" d="M 273.992188 77.972656 C 279.566406 77.972656 284.074219 73.453125 284.074219 67.878906 C 284.074219 62.304688 279.566406 57.792969 273.992188 57.792969 C 268.429688 57.792969 263.902344 62.304688 263.902344 67.878906 C 263.902344 73.453125 268.429688 77.972656 273.992188 77.972656 "/>
    <path style=" stroke:none;fill-rule:nonzero;fill:rgb(29.019608%,76.470588%,79.607843%);fill-opacity:1;" d="M 295.480469 29.136719 L 295.6875 29.136719 L 299.007812 32.851562 L 302.300781 29.136719 L 302.515625 29.136719 L 302.515625 36.105469 L 301.265625 36.105469 L 301.265625 31.792969 L 299.121094 34.347656 L 298.894531 34.347656 L 296.726562 31.792969 L 296.726562 36.105469 L 295.480469 36.105469 Z M 290.683594 30.316406 L 288.617188 30.316406 L 288.617188 29.253906 L 294.007812 29.253906 L 294.007812 30.316406 L 291.929688 30.316406 L 291.929688 36.105469 L 290.683594 36.105469 Z M 290.683594 30.316406 "/>
  </g>
</svg>