<?xml version="1.0" encoding="UTF-8" standalone="yes"?>
<svg xmlns="http://www.w3.org/2000/svg" xmlns:xlink="http://www.w3.org/1999/xlink" width="142.66666666666666px" height="106.66666666666666px" viewBox="0 0 107 80" version="1.1">
  <g id="surface1">
    <path style=" stroke:none;fill-rule:evenodd;fill:rgb(5.098039%,14.117647%,34.509804%);fill-opacity:1;" d="M 0.0546875 0.0546875 L 106.945312 0.0546875 L 106.945312 79.953125 L 0.0546875 79.953125 Z M 0.0546875 0.0546875 "/>
    <path style=" stroke:none;fill-rule:nonzero;fill:rgb(100%,100%,100%);fill-opacity:1;" d="M 21.476562 41.054688 L 21.476562 61.882812 L 32.601562 61.882812 C 36.1875 61.882812 38.691406 59.285156 38.691406 55.894531 C 38.691406 51.605469 34.882812 51.039062 34.882812 51.039062 C 34.882812 51.039062 38.234375 50.332031 38.234375 46.390625 C 38.234375 43.074219 35.828125 41.054688 32.226562 41.054688 Z M 26.625 45.144531 L 30.675781 45.144531 C 32.019531 45.144531 33.035156 45.839844 33.019531 47.105469 C 33.019531 48.460938 32.164062 49.378906 30.535156 49.378906 L 26.625 49.378906 Z M 26.625 53.332031 L 30.898438 53.332031 C 32.765625 53.332031 33.328125 54.359375 33.328125 55.453125 C 33.328125 56.816406 32.3125 57.714844 30.898438 57.714844 L 26.625 57.714844 Z M 26.625 53.332031 "/>
    <path style=" stroke:none;fill-rule:nonzero;fill:rgb(100%,100%,100%);fill-opacity:1;" d="M 40.867188 41.054688 L 40.867188 61.882812 L 46.125 61.882812 L 46.125 54.535156 L 48.734375 54.535156 L 52.910156 61.882812 L 58.605469 61.882812 L 53.832031 53.773438 C 56.117188 52.984375 57.761719 50.765625 57.761719 47.652344 C 57.761719 44.082031 55.5 41.054688 50.09375 41.054688 Z M 46.125 45.222656 L 49.957031 45.222656 C 51.816406 45.222656 52.632812 46.445312 52.632812 47.933594 C 52.632812 49.667969 51.265625 50.695312 49.742188 50.695312 L 46.125 50.695312 Z M 46.125 45.222656 "/>
    <path style=" stroke:none;fill-rule:nonzero;fill:rgb(100%,100%,100%);fill-opacity:1;" d="M 61.023438 61.882812 L 61.023438 41.050781 L 66.28125 41.050781 L 66.28125 61.882812 Z M 61.023438 61.882812 "/>
    <path style=" stroke:none;fill-rule:nonzero;fill:rgb(100%,100%,100%);fill-opacity:1;" d="M 74.605469 61.882812 L 74.605469 45.328125 L 68.691406 45.328125 L 68.691406 41.050781 L 85.777344 41.050781 L 85.777344 45.328125 L 79.863281 45.328125 L 79.863281 61.882812 Z M 74.605469 61.882812 "/>
    <path style=" stroke:none;fill-rule:nonzero;fill:rgb(100%,100%,100%);fill-opacity:1;" d="M 56.257812 29.945312 C 56.257812 31.9375 53.78125 31.820312 53.78125 31.820312 L 51.308594 31.820312 L 51.308594 28.222656 L 53.78125 28.222656 C 56.328125 28.207031 56.257812 29.945312 56.257812 29.945312 M 51.308594 22.738281 L 53.191406 22.738281 C 55.152344 22.839844 55.078125 24.300781 55.078125 24.300781 C 55.078125 26.113281 52.914062 26.144531 52.914062 26.144531 L 51.308594 26.144531 Z M 55.800781 26.851562 C 55.800781 26.851562 57.492188 26.128906 57.476562 24.210938 C 57.476562 24.210938 57.734375 21.074219 53.578125 20.691406 L 48.964844 20.691406 L 48.964844 33.851562 L 54.253906 33.851562 C 54.253906 33.851562 58.671875 33.867188 58.671875 30.136719 C 58.671875 30.136719 58.773438 27.601562 55.800781 26.851562 M 43.863281 18.109375 L 63.28125 18.109375 L 63.28125 36.425781 L 43.863281 36.425781 Z M 43.863281 18.109375 "/>
    <path style=" stroke:none;fill-rule:nonzero;fill:rgb(100%,100%,100%);fill-opacity:1;" d="M 33.863281 29.945312 C 33.863281 31.9375 31.390625 31.820312 31.390625 31.820312 L 28.914062 31.820312 L 28.914062 28.222656 L 31.390625 28.222656 C 33.9375 28.207031 33.863281 29.945312 33.863281 29.945312 M 28.914062 22.738281 L 30.800781 22.738281 C 32.757812 22.839844 32.683594 24.300781 32.683594 24.300781 C 32.683594 26.113281 30.519531 26.144531 30.519531 26.144531 L 28.914062 26.144531 Z M 33.40625 26.851562 C 33.40625 26.851562 35.101562 26.128906 35.085938 24.210938 C 35.085938 24.210938 35.34375 21.074219 31.1875 20.691406 L 26.574219 20.691406 L 26.574219 33.851562 L 31.859375 33.851562 C 31.859375 33.851562 36.277344 33.867188 36.277344 30.136719 C 36.277344 30.136719 36.382812 27.601562 33.40625 26.851562 M 21.46875 18.109375 L 40.886719 18.109375 L 40.886719 36.425781 L 21.46875 36.425781 Z M 21.46875 18.109375 "/>
    <path style=" stroke:none;fill-rule:nonzero;fill:rgb(100%,100%,100%);fill-opacity:1;" d="M 81.710938 21.632812 L 81.710938 24.066406 C 81.710938 24.066406 79.339844 22.605469 76.71875 22.578125 C 76.71875 22.578125 71.832031 22.480469 71.609375 27.269531 C 71.609375 27.269531 71.433594 31.671875 76.660156 31.921875 C 76.660156 31.921875 78.855469 32.1875 81.828125 30.285156 L 81.828125 32.804688 C 81.828125 32.804688 77.839844 35.179688 73.214844 33.351562 C 73.214844 33.351562 69.328125 31.929688 69.179688 27.269531 C 69.179688 27.269531 69.015625 22.472656 74.203125 20.882812 C 74.203125 20.882812 75.585938 20.351562 78.074219 20.585938 C 78.074219 20.585938 79.5625 20.734375 81.710938 21.632812 M 66.253906 36.425781 L 85.675781 36.425781 L 85.675781 18.109375 L 66.253906 18.109375 Z M 66.253906 36.425781 "/>
  </g>
</svg>