<?xml version="1.0" encoding="UTF-8" standalone="yes"?>
<svg xmlns="http://www.w3.org/2000/svg" xmlns:xlink="http://www.w3.org/1999/xlink" width="369.3333333333333px" height="106.66666666666666px" viewBox="0 0 277 80" version="1.1">
  <g id="surface1">
    <path style=" stroke:none;fill-rule:nonzero;fill:rgb(0%,0%,0%);fill-opacity:1;" d="M 192.300781 12.152344 L 192.300781 66.664062 L 134.519531 66.664062 L 134.519531 12.152344 Z M 170.921875 19.75 L 170.144531 19.605469 L 169.828125 19.539062 L 168.488281 19.386719 L 167.570312 19.320312 L 165.957031 19.253906 L 165.359375 19.253906 L 164.070312 19.320312 L 163.367188 19.386719 L 162.355469 19.5 L 162.074219 19.566406 L 161.765625 19.628906 L 161.378906 19.695312 L 160.878906 19.789062 L 160.207031 19.914062 C 158.832031 20.195312 157.566406 20.597656 156.394531 21.046875 C 155.789062 21.277344 155.21875 21.535156 154.667969 21.804688 L 153.332031 22.515625 L 152.148438 23.246094 L 151.503906 23.695312 L 150.980469 24.085938 L 149.925781 24.945312 L 149.035156 25.796875 L 148.324219 26.527344 L 147.632812 27.324219 L 146.9375 28.242188 L 146.449219 28.945312 L 146.140625 29.445312 C 145.535156 30.441406 145.011719 31.496094 144.570312 32.617188 C 144.03125 34.03125 143.636719 35.535156 143.425781 37.140625 L 143.269531 38.703125 L 143.234375 39.921875 L 143.253906 40.839844 L 143.339844 41.785156 L 143.367188 42.011719 L 143.53125 43.089844 L 143.625 43.511719 L 143.828125 44.390625 L 144.164062 45.496094 L 144.644531 46.78125 C 144.917969 47.453125 145.226562 48.089844 145.5625 48.699219 L 146.15625 49.726562 L 146.652344 50.503906 L 147.351562 51.4375 L 148.101562 52.328125 L 149.007812 53.304688 L 149.179688 53.472656 L 150.007812 54.230469 L 150.664062 54.785156 L 151.367188 55.3125 L 152.285156 55.945312 L 153.378906 56.609375 C 154.148438 57.039062 154.980469 57.445312 155.910156 57.824219 L 156.988281 58.21875 L 158.117188 58.582031 C 158.792969 58.769531 159.492188 58.941406 160.21875 59.082031 C 160.804688 59.199219 161.429688 59.292969 162.066406 59.363281 C 162.691406 59.441406 163.355469 59.507812 164.027344 59.535156 L 165.023438 59.601562 L 165.5 59.601562 C 166.722656 59.601562 167.84375 59.535156 168.875 59.457031 L 169.082031 59.457031 L 170.296875 59.332031 L 171.984375 59.066406 L 172.984375 58.863281 L 174.410156 58.527344 L 175.371094 58.246094 L 176.4375 57.902344 L 176.769531 57.78125 L 177.421875 57.539062 L 178.671875 57.039062 L 179.578125 56.636719 L 180.445312 56.214844 L 180.828125 56.035156 L 180.828125 48.597656 L 180.570312 48.761719 L 180.058594 49.058594 L 178.566406 49.9375 L 176.988281 50.746094 C 176.066406 51.167969 175.195312 51.542969 174.332031 51.839844 C 172.730469 52.421875 171.238281 52.800781 169.929688 53.027344 L 169.476562 53.097656 L 168.429688 53.230469 L 167.003906 53.34375 L 166.207031 53.34375 L 164.589844 53.277344 C 163.945312 53.210938 163.289062 53.164062 162.632812 53.058594 C 161.554688 52.867188 160.476562 52.597656 159.425781 52.222656 L 158.964844 52.03125 L 158.65625 51.914062 L 158.144531 51.683594 L 157.066406 51.128906 L 156.554688 50.820312 L 156.027344 50.464844 L 155.382812 49.996094 L 154.804688 49.519531 L 154.5625 49.289062 L 154.429688 49.183594 L 154.355469 49.113281 L 154.277344 49.035156 L 153.351562 48.03125 L 152.917969 47.453125 L 152.53125 46.914062 L 152.214844 46.386719 L 151.789062 45.59375 L 151.484375 44.929688 L 151.070312 43.824219 L 150.847656 43 C 150.644531 42.226562 150.550781 41.515625 150.492188 40.917969 L 150.453125 40.269531 L 150.425781 39.5 L 150.441406 39.03125 C 150.453125 38.609375 150.492188 38.070312 150.578125 37.453125 L 150.800781 36.265625 L 151.03125 35.421875 L 151.3125 34.613281 L 151.542969 34.058594 L 151.90625 33.292969 L 152.226562 32.726562 L 153.054688 31.46875 L 153.40625 31.023438 L 153.898438 30.441406 L 154.167969 30.160156 C 155.527344 28.792969 157.050781 27.785156 158.644531 27.054688 L 159.378906 26.746094 L 160.140625 26.476562 L 160.96875 26.21875 L 161.75 26.015625 L 162.535156 25.855469 L 163.394531 25.730469 L 164.242188 25.625 L 165.832031 25.558594 L 166.347656 25.558594 L 167.464844 25.625 L 168.214844 25.691406 L 169.558594 25.855469 L 170.65625 26.054688 L 172.109375 26.390625 L 172.894531 26.609375 L 173.804688 26.902344 L 174.4375 27.121094 L 175.507812 27.542969 L 176.871094 28.136719 L 177.886719 28.625 L 178.632812 29 L 179.65625 29.550781 L 180.417969 29.96875 L 180.417969 22.667969 C 180.417969 22.667969 179.957031 22.476562 179.183594 22.179688 L 177.960938 21.730469 L 177.140625 21.449219 L 176.414062 21.199219 L 175.554688 20.929688 L 174.898438 20.722656 L 174.699219 20.660156 L 174.035156 20.480469 L 173.242188 20.261719 L 172.714844 20.144531 L 171.839844 19.953125 L 170.921875 19.789062 "/>
    <path style=" stroke:none;fill-rule:nonzero;fill:rgb(0%,0%,0%);fill-opacity:1;" d="M 90.113281 42.21875 L 90.113281 52.921875 L 97.421875 52.921875 L 98.382812 52.855469 C 99.136719 52.777344 100.128906 52.652344 101.089844 52.328125 C 101.964844 52.035156 102.8125 51.585938 103.464844 50.941406 L 104.082031 50.167969 C 104.621094 49.304688 104.765625 48.429688 104.796875 47.941406 L 104.808594 47.59375 L 104.808594 47.335938 L 104.660156 46.296875 L 103.851562 44.660156 L 103.582031 44.363281 L 102.964844 43.8125 L 101.683594 43.09375 C 101.050781 42.824219 100.359375 42.613281 99.589844 42.472656 L 98.355469 42.289062 L 97.558594 42.222656 L 90.113281 42.222656 "/>
    <path style=" stroke:none;fill-rule:nonzero;fill:rgb(0%,0%,0%);fill-opacity:1;" d="M 90.113281 25.921875 L 90.113281 36.074219 L 93.992188 36.074219 L 94.746094 36.011719 C 95.445312 35.945312 96.402344 35.859375 97.355469 35.589844 L 97.914062 35.417969 C 98.664062 35.148438 99.382812 34.75 99.945312 34.210938 L 100.875 32.808594 L 101.234375 31.273438 L 101.261719 30.714844 L 101.253906 30.273438 C 101.226562 29.824219 101.128906 29.113281 100.792969 28.421875 L 100.085938 27.453125 L 98.75 26.582031 C 97.804688 26.152344 96.726562 25.988281 95.8125 25.9375 L 94.746094 25.871094 L 90.113281 25.871094 Z M 90.113281 25.921875 "/>
    <path style=" stroke:none;fill-rule:nonzero;fill:rgb(0%,0%,0%);fill-opacity:1;" d="M 125.726562 12.152344 L 125.726562 66.664062 L 67.945312 66.664062 L 67.945312 12.152344 Z M 83.105469 19.796875 L 83.105469 59.042969 L 97.84375 59.042969 C 97.84375 59.042969 105.042969 59.253906 108.996094 55.273438 C 112.238281 52.03125 112 48.289062 112 48.289062 C 112 48.289062 112.238281 44.375 109.242188 41.378906 C 106.699219 38.816406 103.445312 38.136719 103.445312 38.136719 C 103.445312 38.136719 104.917969 37.453125 106.046875 36.320312 C 106.574219 35.792969 108.445312 34.078125 108.445312 29.949219 C 108.445312 25.785156 105.679688 23.386719 105.679688 23.386719 C 105.679688 23.386719 102.65625 19.796875 95.8125 19.796875 Z M 83.105469 19.796875 "/>
    <path style=" stroke:none;fill-rule:nonzero;fill:rgb(0%,0%,0%);fill-opacity:1;" d="M 23.535156 42.21875 L 23.535156 52.921875 L 30.847656 52.921875 L 31.804688 52.855469 C 32.5625 52.777344 33.554688 52.652344 34.511719 52.328125 C 35.382812 52.035156 36.234375 51.585938 36.878906 50.941406 L 37.496094 50.167969 C 38.042969 49.304688 38.1875 48.429688 38.214844 47.941406 L 38.226562 47.59375 L 38.226562 47.335938 L 38.082031 46.296875 L 37.273438 44.660156 L 37.003906 44.363281 L 36.386719 43.8125 L 35.097656 43.09375 C 34.472656 42.824219 33.785156 42.613281 33.015625 42.472656 L 31.777344 42.289062 L 30.976562 42.222656 L 23.535156 42.222656 "/>
    <path style=" stroke:none;fill-rule:nonzero;fill:rgb(0%,0%,0%);fill-opacity:1;" d="M 23.535156 25.921875 L 23.535156 36.074219 L 27.414062 36.074219 L 28.171875 36.011719 C 28.867188 35.945312 29.820312 35.859375 30.78125 35.589844 L 31.332031 35.417969 C 32.082031 35.148438 32.8125 34.75 33.371094 34.210938 L 34.289062 32.808594 L 34.65625 31.273438 L 34.683594 30.714844 L 34.671875 30.273438 C 34.65625 29.824219 34.558594 29.113281 34.210938 28.421875 L 33.5 27.453125 L 32.167969 26.582031 C 31.21875 26.152344 30.140625 25.988281 29.234375 25.9375 L 28.171875 25.871094 L 23.535156 25.871094 "/>
    <path style=" stroke:none;fill-rule:nonzero;fill:rgb(0%,0%,0%);fill-opacity:1;" d="M 59.148438 12.152344 L 59.148438 66.664062 L 1.367188 66.664062 L 1.367188 12.152344 Z M 16.53125 19.796875 L 16.53125 59.042969 L 31.265625 59.042969 C 31.265625 59.042969 38.457031 59.253906 42.421875 55.273438 C 45.660156 52.03125 45.425781 48.289062 45.425781 48.289062 C 45.425781 48.289062 45.660156 44.375 42.671875 41.378906 C 40.113281 38.816406 36.867188 38.136719 36.867188 38.136719 C 36.867188 38.136719 38.332031 37.453125 39.464844 36.320312 C 39.988281 35.792969 41.867188 34.078125 41.867188 29.949219 C 41.867188 25.785156 39.109375 23.386719 39.109375 23.386719 C 39.109375 23.386719 36.078125 19.796875 29.242188 19.796875 Z M 16.53125 19.796875 "/>
    <path style=" stroke:none;fill-rule:nonzero;fill:rgb(0%,0%,0%);fill-opacity:1;" d="M 237.222656 1.476562 L 275.632812 40.015625 L 237.222656 78.523438 L 198.816406 39.976562 Z M 237.222656 1.476562 "/>
    <path style=" stroke:none;fill-rule:nonzero;fill:rgb(100%,100%,100%);fill-opacity:1;" d="M 233.410156 29.140625 L 237.609375 25.253906 L 237.582031 54.609375 L 233.410156 50.183594 L 233.410156 41.855469 L 216.9375 41.855469 L 216.9375 54.640625 L 212.742188 50.222656 L 212.742188 29.152344 L 216.9375 25.253906 L 216.9375 37.953125 L 233.410156 37.953125 Z M 233.410156 29.140625 "/>
    <path style=" stroke:none;fill-rule:nonzero;fill:rgb(100%,100%,100%);fill-opacity:1;" d="M 237.582031 54.597656 L 241.78125 50.847656 L 247.121094 50.847656 C 249.214844 50.847656 250.847656 50.710938 252.011719 50.4375 C 253.179688 50.144531 254.140625 49.78125 254.914062 49.34375 C 255.699219 48.890625 256.402344 48.335938 257.050781 47.699219 C 259.121094 45.597656 260.152344 42.933594 260.152344 39.71875 C 260.152344 36.5625 259.089844 33.996094 256.964844 32.011719 C 256.183594 31.265625 255.285156 30.648438 254.257812 30.171875 C 253.253906 29.691406 252.292969 29.382812 251.378906 29.230469 C 250.480469 29.078125 249.019531 29 246.996094 29 L 241.757812 29 L 237.597656 25.253906 L 247.441406 25.253906 C 251.425781 25.253906 254.585938 25.859375 256.898438 27.058594 C 259.226562 28.257812 261.074219 30.015625 262.449219 32.347656 C 263.808594 34.671875 264.503906 37.210938 264.503906 39.964844 C 264.503906 41.921875 264.117188 43.796875 263.367188 45.597656 C 262.605469 47.390625 261.527344 48.96875 260.132812 50.332031 C 258.714844 51.738281 257.050781 52.792969 255.164062 53.503906 C 254.0625 53.9375 253.035156 54.234375 252.121094 54.386719 C 251.203125 54.53125 249.433594 54.597656 246.824219 54.597656 L 237.582031 54.597656 L 246.824219 54.597656 C 249.433594 54.597656 251.203125 54.53125 252.121094 54.386719 C 253.035156 54.234375 254.0625 53.9375 255.164062 53.503906 C 257.050781 52.792969 258.714844 51.738281 260.132812 50.332031 C 261.527344 48.96875 262.605469 47.390625 263.367188 45.597656 C 264.117188 43.796875 264.503906 41.921875 264.503906 39.964844 C 264.503906 37.210938 263.808594 34.671875 262.449219 32.347656 C 261.074219 30.015625 259.226562 28.257812 256.898438 27.058594 C 254.585938 25.859375 251.425781 25.253906 247.441406 25.253906 L 237.597656 25.253906 L 241.757812 29 L 246.996094 29 C 249.019531 29 250.480469 29.078125 251.378906 29.230469 C 252.292969 29.382812 253.253906 29.691406 254.257812 30.171875 C 255.285156 30.648438 256.183594 31.265625 256.964844 32.011719 C 259.089844 33.996094 260.152344 36.5625 260.152344 39.71875 C 260.152344 42.933594 259.121094 45.597656 257.050781 47.699219 C 256.402344 48.335938 255.699219 48.890625 254.914062 49.34375 C 254.140625 49.78125 253.179688 50.144531 252.011719 50.4375 C 250.847656 50.710938 249.214844 50.847656 247.121094 50.847656 L 241.78125 50.847656 Z M 237.582031 54.597656 "/>
    <path style=" stroke:none;fill-rule:nonzero;fill:rgb(100%,100%,100%);fill-opacity:1;" d="M 237.582031 54.597656 L 241.78125 50.847656 L 247.121094 50.847656 C 249.214844 50.847656 250.847656 50.710938 252.011719 50.4375 C 253.179688 50.144531 254.140625 49.78125 254.914062 49.34375 C 255.699219 48.890625 256.402344 48.335938 257.050781 47.699219 C 259.121094 45.597656 260.152344 42.933594 260.152344 39.71875 C 260.152344 36.5625 259.089844 33.996094 256.964844 32.011719 C 256.183594 31.265625 255.285156 30.648438 254.257812 30.171875 C 253.253906 29.691406 252.292969 29.382812 251.378906 29.230469 C 250.480469 29.078125 249.019531 29 246.996094 29 L 241.757812 29 L 237.597656 25.253906 L 247.441406 25.253906 C 251.425781 25.253906 254.585938 25.859375 256.898438 27.058594 C 259.226562 28.257812 261.074219 30.015625 262.449219 32.347656 C 263.808594 34.671875 264.503906 37.210938 264.503906 39.964844 C 264.503906 41.921875 264.117188 43.796875 263.367188 45.597656 C 262.605469 47.390625 261.527344 48.96875 260.132812 50.332031 C 258.714844 51.738281 257.050781 52.792969 255.164062 53.503906 C 254.0625 53.9375 253.035156 54.234375 252.121094 54.386719 C 251.203125 54.53125 249.433594 54.597656 246.824219 54.597656 Z M 237.582031 54.597656 "/>
    <path style=" stroke:none;fill-rule:nonzero;fill:rgb(51.372549%,50.588235%,50.588235%);fill-opacity:1;" d="M 241.78125 29.027344 L 237.589844 25.253906 L 237.589844 54.597656 L 241.78125 50.847656 Z M 241.78125 29.027344 "/>
    <path style=" stroke:none;fill-rule:nonzero;fill:rgb(51.372549%,50.588235%,50.588235%);fill-opacity:1;" d="M 216.929688 41.855469 L 216.917969 54.621094 L 221.117188 50.835938 L 221.105469 41.855469 Z M 216.929688 41.855469 "/>
    <path style=" stroke:none;fill-rule:nonzero;fill:rgb(51.372549%,50.588235%,50.588235%);fill-opacity:1;" d="M 221.214844 37.953125 L 221.136719 29.152344 L 216.9375 25.253906 L 216.9375 37.953125 Z M 221.214844 37.953125 "/>
  </g>
</svg>