<?xml version="1.0" encoding="UTF-8" standalone="yes"?>
<svg xmlns="http://www.w3.org/2000/svg" xmlns:xlink="http://www.w3.org/1999/xlink" width="577.3333333333333px" height="106.66666666666666px" viewBox="0 0 433 80" version="1.1">
  <g id="surface1">
    <path style=" stroke:none;fill-rule:nonzero;fill:rgb(34.509804%,32.941176%,33.72549%);fill-opacity:1;" d="M 14.5 10.363281 C 17.984375 10.019531 21.488281 10.109375 24.988281 10.066406 C 153.542969 10.046875 282.097656 10.058594 410.652344 10.058594 C 414.011719 10.136719 417.402344 10.058594 420.710938 10.726562 C 421.484375 10.859375 422.179688 11.285156 422.765625 11.804688 C 422.203125 11.886719 421.644531 11.964844 421.097656 12.050781 C 419.394531 10.585938 417.054688 10.789062 414.96875 10.6875 C 406.4375 10.410156 397.898438 10.558594 389.359375 10.519531 C 272.339844 10.488281 155.320312 10.503906 38.300781 10.515625 C 30.457031 10.53125 22.605469 10.464844 14.765625 10.789062 C 14.71875 10.714844 14.628906 10.570312 14.582031 10.496094 Z M 14.5 10.363281 "/>
    <path style=" stroke:none;fill-rule:nonzero;fill:rgb(34.509804%,32.941176%,33.72549%);fill-opacity:1;" d="M 9.054688 63.921875 C 10.203125 64.464844 10.3125 65.96875 11.359375 66.628906 C 12.085938 67.082031 12.980469 66.957031 13.78125 66.804688 C 14.171875 66.945312 14.570312 67.074219 14.972656 67.199219 C 16.832031 67.632812 18.757812 67.351562 20.652344 67.382812 C 24.316406 67.40625 27.976562 67.375 31.640625 67.359375 C 35.078125 67.179688 38.527344 67.171875 41.972656 67.191406 C 52.410156 67.042969 62.851562 67.078125 73.292969 67.011719 C 77.507812 66.820312 81.71875 67.210938 85.933594 67.207031 C 87.605469 67.191406 89.269531 67.460938 90.941406 67.441406 C 97.527344 67.445312 104.117188 67.464844 110.703125 67.421875 C 110.65625 66.75 110.609375 66.078125 110.546875 65.40625 C 112.011719 66.097656 113.632812 65.664062 115.167969 65.539062 C 115.339844 66.070312 115.058594 67.300781 115.910156 67.261719 C 189.519531 67.273438 263.128906 67.355469 336.738281 67.332031 C 346.761719 67.296875 356.792969 67.40625 366.8125 67.277344 C 376.113281 67.320312 385.410156 67.296875 394.710938 67.316406 C 401.707031 67.289062 408.707031 67.429688 415.699219 67.328125 C 416.832031 67.277344 418.015625 67.492188 419.109375 67.101562 C 419.304688 67.027344 419.695312 66.886719 419.890625 66.8125 C 421.074219 67.113281 422.046875 66.378906 423.164062 66.191406 C 422.703125 67.382812 421.460938 67.601562 420.34375 67.621094 C 419.328125 67.796875 418.375 68.234375 417.363281 68.40625 C 413.929688 68.105469 410.472656 68.320312 407.03125 68.257812 C 288.890625 68.238281 170.75 68.253906 52.609375 68.25 C 46.628906 68.597656 40.625 68.363281 34.636719 68.4375 C 28.257812 68.074219 21.863281 68.351562 15.476562 68.242188 C 14.449219 68.148438 13.441406 67.917969 12.449219 67.625 C 11.246094 67.421875 10.105469 66.914062 9.460938 65.820312 C 9.203125 65.335938 8.242188 64.578125 8.996094 64.128906 C 9.054688 64.261719 9.175781 64.53125 9.234375 64.664062 C 9.191406 64.476562 9.097656 64.109375 9.054688 63.921875 Z M 9.054688 63.921875 "/>
    <path style=" stroke:none;fill-rule:nonzero;fill:rgb(34.509804%,32.941176%,33.72549%);fill-opacity:1;" d="M 418.230469 69.175781 C 418.691406 68.722656 419.371094 68.800781 419.957031 68.929688 C 419.695312 69.414062 418.710938 69.328125 418.230469 69.175781 Z M 418.230469 69.175781 "/>
    <path style=" stroke:none;fill-rule:nonzero;fill:rgb(87.45098%,87.843137%,90.980392%);fill-opacity:1;" d="M 13.046875 10.566406 C 13.546875 10.535156 14.117188 10.300781 14.582031 10.496094 C 14.628906 10.570312 14.71875 10.714844 14.765625 10.789062 C 22.605469 10.464844 30.457031 10.53125 38.300781 10.515625 C 155.320312 10.503906 272.339844 10.488281 389.359375 10.519531 C 397.898438 10.558594 406.4375 10.410156 414.96875 10.6875 C 417.054688 10.789062 419.394531 10.585938 421.097656 12.050781 L 421.351562 12.234375 C 417.5 11.539062 413.574219 11.597656 409.679688 11.589844 C 280.667969 11.589844 151.65625 11.589844 22.644531 11.589844 C 18.972656 11.582031 15.277344 11.578125 11.65625 12.253906 L 11.8125 12.128906 C 12.628906 11.480469 13.605469 11.019531 14.660156 10.921875 C 14.140625 10.734375 13.597656 10.621094 13.046875 10.566406 Z M 13.046875 10.566406 "/>
    <path style=" stroke:none;fill-rule:nonzero;fill:rgb(34.509804%,34.117647%,34.901961%);fill-opacity:0.921569;" d="M 10.496094 11.515625 C 11.257812 10.992188 12.125 10.65625 13.046875 10.566406 C 13.597656 10.621094 14.140625 10.734375 14.660156 10.921875 C 13.605469 11.019531 12.628906 11.480469 11.8125 12.128906 C 11.371094 11.925781 10.933594 11.71875 10.496094 11.515625 Z M 10.496094 11.515625 "/>
    <path style=" stroke:none;fill-rule:nonzero;fill:rgb(45.098039%,44.313725%,45.490196%);fill-opacity:1;" d="M 8.015625 14.535156 C 8.667969 13.398438 9.449219 12.316406 10.496094 11.515625 C 10.933594 11.71875 11.371094 11.925781 11.8125 12.128906 L 11.65625 12.253906 C 10.417969 13.136719 9.320312 14.210938 8.699219 15.625 C 8.472656 15.261719 8.242188 14.898438 8.015625 14.535156 Z M 8.015625 14.535156 "/>
    <path style=" stroke:none;fill-rule:nonzero;fill:rgb(40.784314%,38.823529%,39.607843%);fill-opacity:1;" d="M 11.65625 12.253906 C 15.277344 11.578125 18.972656 11.582031 22.644531 11.589844 C 151.65625 11.589844 280.667969 11.589844 409.679688 11.589844 C 413.574219 11.597656 417.5 11.539062 421.351562 12.234375 C 423.625 13.429688 424.820312 15.933594 425.148438 18.390625 C 425.699219 22.570312 425.519531 26.792969 425.542969 31 C 425.523438 35.328125 425.601562 39.660156 425.503906 43.988281 C 425.300781 42.828125 425.761719 41.429688 424.894531 40.488281 C 424.890625 34.988281 424.90625 29.488281 424.898438 23.988281 C 424.859375 21.609375 424.894531 18.976562 423.464844 16.953125 C 423.039062 16.414062 422.613281 15.878906 422.230469 15.3125 L 422.023438 15.011719 C 421.476562 14.097656 420.738281 13.253906 419.71875 12.875 C 419.371094 12.734375 419.023438 12.605469 418.675781 12.488281 L 418.464844 12.476562 C 399.4375 12.335938 380.402344 12.445312 361.371094 12.402344 C 279.390625 12.390625 197.414062 12.371094 115.4375 12.355469 C 113.898438 12.339844 112.359375 12.40625 110.824219 12.3125 C 109.296875 12.191406 107.765625 12.238281 106.230469 12.238281 C 76.375 12.226562 46.515625 12.234375 16.660156 12.234375 C 14.933594 12.238281 13.347656 13.019531 11.875 13.851562 L 11.695312 13.941406 C 9.738281 14.46875 8.660156 16.515625 8.414062 18.398438 C 8.234375 18.433594 7.878906 18.507812 7.699219 18.542969 C 7.9375 17.539062 8.21875 16.539062 8.699219 15.625 C 9.320312 14.210938 10.417969 13.136719 11.65625 12.253906 Z M 11.65625 12.253906 "/>
    <path style=" stroke:none;fill-rule:nonzero;fill:rgb(49.411765%,48.627451%,48.627451%);fill-opacity:1;" d="M 421.097656 12.050781 C 421.644531 11.964844 422.203125 11.886719 422.765625 11.804688 L 422.882812 11.785156 C 425.332031 14.046875 426.234375 17.40625 426.414062 20.632812 C 426.355469 30.933594 426.484375 41.238281 426.386719 51.535156 C 426.085938 51.195312 425.9375 50.804688 425.941406 50.359375 C 425.871094 48.679688 425.957031 46.996094 425.835938 45.320312 C 425.65625 47.648438 425.933594 49.996094 425.660156 52.316406 C 425.308594 54.421875 425.640625 56.5625 425.417969 58.679688 C 425.429688 59.234375 425.136719 59.699219 424.875 60.160156 C 424.816406 53.601562 424.828125 47.042969 424.894531 40.488281 C 425.761719 41.429688 425.300781 42.828125 425.503906 43.988281 C 425.601562 39.660156 425.523438 35.328125 425.542969 31 C 425.519531 26.792969 425.699219 22.570312 425.148438 18.390625 C 424.820312 15.933594 423.625 13.429688 421.351562 12.234375 Z M 421.097656 12.050781 "/>
    <path style=" stroke:none;fill-rule:nonzero;fill:rgb(11.764706%,23.529412%,56.470588%);fill-opacity:1;" d="M 11.875 13.851562 C 13.347656 13.019531 14.933594 12.238281 16.660156 12.234375 C 46.515625 12.234375 76.375 12.226562 106.230469 12.238281 C 107.765625 12.238281 109.296875 12.191406 110.824219 12.3125 C 110.726562 12.878906 110.632812 13.445312 110.5625 14.015625 C 110.523438 14.351562 110.5 14.683594 110.476562 15.019531 C 108.757812 15.34375 107.011719 15.1875 105.277344 15.203125 C 94.71875 15.195312 84.160156 15.238281 73.597656 15.261719 C 73.039062 15.214844 72.535156 15.449219 72.09375 15.769531 C 61.726562 15.839844 51.355469 15.871094 40.984375 15.828125 C 34.210938 15.710938 27.429688 15.8125 20.664062 15.390625 C 17.699219 15.125 14.746094 14.65625 11.875 13.851562 Z M 11.875 13.851562 "/>
    <path style=" stroke:none;fill-rule:nonzero;fill:rgb(77.647059%,77.647059%,77.647059%);fill-opacity:1;" d="M 110.824219 12.3125 C 112.359375 12.40625 113.898438 12.339844 115.4375 12.355469 C 115.207031 13.457031 115.167969 14.582031 115.175781 15.707031 L 115.03125 15.710938 C 114.976562 15.304688 114.929688 14.898438 114.882812 14.492188 C 113.597656 14.601562 112.308594 14.652344 111.019531 14.566406 C 110.90625 14.429688 110.675781 14.152344 110.5625 14.015625 C 110.632812 13.445312 110.726562 12.878906 110.824219 12.3125 Z M 110.824219 12.3125 "/>
    <path style=" stroke:none;fill-rule:nonzero;fill:rgb(98.431373%,98.431373%,98.039216%);fill-opacity:1;" d="M 115.4375 12.355469 C 197.414062 12.371094 279.390625 12.390625 361.371094 12.402344 C 380.402344 12.445312 399.4375 12.335938 418.464844 12.476562 C 416.664062 12.855469 414.828125 12.605469 413.007812 12.675781 C 403.800781 12.699219 394.589844 12.710938 385.382812 12.707031 C 381.289062 13.136719 377.167969 12.855469 373.058594 12.941406 C 362.390625 12.945312 351.722656 12.976562 341.058594 12.984375 C 340 13.011719 338.894531 12.898438 337.917969 13.371094 C 337.195312 13.214844 336.425781 13.007812 335.722656 13.332031 C 334.761719 13.765625 333.746094 13.171875 332.761719 13.285156 C 328.90625 13.800781 325.003906 13.464844 321.136719 13.789062 C 316.460938 13.886719 311.78125 13.984375 307.101562 13.957031 C 305.097656 14.199219 303.09375 13.875 301.089844 13.960938 C 296.433594 14.351562 291.753906 14.234375 287.085938 14.28125 C 281.429688 14.285156 275.773438 14.3125 270.121094 14.296875 C 268.886719 14.296875 267.675781 14.578125 266.441406 14.601562 C 260.78125 14.625 255.125 14.597656 249.46875 14.628906 C 247.800781 14.917969 246.125 14.761719 244.457031 14.875 C 233.035156 14.898438 221.605469 14.933594 210.179688 14.953125 C 208.730469 15.101562 207.28125 15.015625 205.832031 14.960938 C 204.175781 15.175781 202.511719 15.164062 200.84375 15.222656 C 187.300781 15.265625 173.757812 15.273438 160.214844 15.292969 C 159.71875 15.269531 159.257812 15.410156 158.804688 15.578125 C 160.042969 15.761719 161.296875 15.691406 162.542969 15.695312 C 181.632812 15.722656 200.71875 15.757812 219.808594 15.773438 C 221.800781 15.800781 223.804688 15.667969 225.800781 15.851562 C 223.820312 16.113281 221.824219 15.890625 219.839844 15.957031 C 215.398438 16.035156 210.949219 15.859375 206.511719 16.023438 C 203.195312 16.484375 199.847656 15.976562 196.523438 16.238281 C 181.644531 16.320312 166.761719 16.257812 151.878906 16.3125 C 147.859375 16.1875 143.847656 16.542969 139.832031 16.480469 C 132.082031 16.613281 124.332031 16.5625 116.582031 16.621094 C 116.085938 16.660156 115.617188 16.808594 115.148438 16.933594 C 115.15625 16.523438 115.164062 16.113281 115.175781 15.707031 C 115.167969 14.582031 115.207031 13.457031 115.4375 12.355469 Z M 115.4375 12.355469 "/>
    <path style=" stroke:none;fill-rule:nonzero;fill:rgb(93.333333%,93.333333%,93.333333%);fill-opacity:1;" d="M 373.058594 12.941406 C 377.167969 12.855469 381.289062 13.136719 385.382812 12.707031 C 394.589844 12.710938 403.800781 12.699219 413.007812 12.675781 C 414.828125 12.605469 416.664062 12.855469 418.464844 12.476562 L 418.675781 12.488281 C 418.707031 12.96875 418.738281 13.449219 418.816406 13.925781 C 418.832031 14.574219 419.605469 14.6875 420.027344 15.011719 C 419.703125 15.546875 419.492188 16.21875 418.921875 16.542969 C 417.859375 16.777344 416.757812 16.636719 415.6875 16.652344 C 385.035156 16.6875 354.382812 16.660156 323.734375 16.679688 C 320.890625 16.894531 318.035156 16.464844 315.195312 16.777344 C 312.75 17.132812 310.269531 16.875 307.816406 17.148438 C 306.78125 17.296875 305.699219 16.964844 304.710938 17.390625 C 304.523438 18.257812 303.921875 18.9375 303.429688 19.644531 C 302.378906 19.476562 301.3125 19.601562 300.320312 19.957031 C 299.503906 20.28125 298.589844 19.976562 297.785156 20.316406 C 296.976562 20.664062 296.285156 21.222656 295.542969 21.679688 C 295.382812 21.546875 295.0625 21.277344 294.902344 21.140625 C 294.332031 21.546875 294.253906 22.191406 294.367188 22.835938 C 293.675781 22.234375 292.75 22.3125 291.902344 22.328125 C 292.101562 22.644531 292.328125 22.949219 292.46875 23.304688 C 292.25 23.65625 291.820312 23.769531 291.492188 23.980469 C 291.027344 23.78125 290.5625 23.558594 290.070312 23.4375 C 289.277344 23.71875 288.484375 24.003906 287.679688 24.246094 C 287.164062 24.820312 286.957031 25.621094 286.394531 26.164062 C 286.226562 25.695312 286.226562 25.203125 286.246094 24.714844 C 285.730469 24.992188 285.195312 25.238281 284.65625 25.457031 C 284.949219 25.886719 285.511719 26.695312 284.757812 26.988281 C 284.292969 26.839844 283.851562 26.648438 283.402344 26.472656 C 283.566406 26.863281 283.75 27.25 283.957031 27.625 C 283.1875 27.632812 282.417969 27.671875 281.65625 27.714844 C 280.773438 26.453125 279.351562 25.464844 277.765625 25.492188 C 276.242188 25.519531 274.578125 25.230469 273.210938 26.066406 C 272.460938 26.464844 271.894531 27.121094 271.390625 27.785156 L 271.296875 27.929688 C 268.960938 27.660156 266.601562 27.84375 264.257812 27.792969 C 264.234375 28.78125 264.28125 29.789062 263.964844 30.738281 C 263.921875 29.761719 263.9375 28.785156 263.921875 27.8125 C 263.90625 27.054688 263.902344 26.292969 263.914062 25.535156 C 254.34375 25.414062 244.773438 25.546875 235.203125 25.46875 C 235.148438 26.351562 235.125 27.238281 235.125 28.125 C 233.894531 28.195312 232.652344 28.160156 231.425781 28.261719 C 231.390625 27.335938 231.367188 26.414062 231.378906 25.488281 C 225.191406 25.484375 219.007812 25.492188 212.824219 25.488281 C 210.371094 25.472656 207.917969 26.703125 206.546875 28.757812 C 206.480469 28.851562 206.347656 29.03125 206.28125 29.125 C 204.121094 28.847656 201.949219 29.121094 199.789062 29.261719 C 197.996094 27.109375 195.371094 25.589844 192.53125 25.507812 C 188.863281 25.46875 185.199219 25.511719 181.535156 25.488281 C 177.980469 25.347656 174.394531 27.320312 172.699219 30.46875 C 172.664062 30.535156 172.585938 30.671875 172.550781 30.734375 C 170.707031 30.671875 168.882812 31.042969 167.042969 30.941406 C 167.03125 29.125 167.042969 27.308594 167.042969 25.492188 C 165.28125 25.527344 163.523438 25.417969 161.773438 25.558594 C 161.808594 27.5 161.792969 29.441406 161.785156 31.386719 C 157.6875 31.796875 153.539062 31.730469 149.476562 32.464844 L 149.253906 32.242188 C 147.246094 30.160156 145.273438 28.039062 143.207031 26.011719 C 141.757812 24.570312 138.851562 25.964844 139.03125 27.988281 C 138.992188 29.742188 139.050781 31.496094 139.007812 33.25 C 133.539062 33.828125 128.050781 34.15625 122.578125 34.714844 C 120.078125 34.738281 117.621094 35.234375 115.132812 35.441406 C 115.152344 29.269531 115.078125 23.101562 115.148438 16.933594 C 115.617188 16.808594 116.085938 16.660156 116.582031 16.621094 C 124.332031 16.5625 132.082031 16.613281 139.832031 16.480469 C 143.847656 16.542969 147.859375 16.1875 151.878906 16.3125 C 166.761719 16.257812 181.644531 16.320312 196.523438 16.238281 C 199.847656 15.976562 203.195312 16.484375 206.511719 16.023438 C 210.949219 15.859375 215.398438 16.035156 219.839844 15.957031 C 221.824219 15.890625 223.820312 16.113281 225.800781 15.851562 C 223.804688 15.667969 221.800781 15.800781 219.808594 15.773438 C 200.71875 15.757812 181.632812 15.722656 162.542969 15.695312 C 161.296875 15.691406 160.042969 15.761719 158.804688 15.578125 C 159.257812 15.410156 159.71875 15.269531 160.214844 15.292969 C 173.757812 15.273438 187.300781 15.265625 200.84375 15.222656 C 202.511719 15.164062 204.175781 15.175781 205.832031 14.960938 C 207.28125 15.015625 208.730469 15.101562 210.179688 14.953125 C 221.605469 14.933594 233.035156 14.898438 244.457031 14.875 C 246.125 14.761719 247.800781 14.917969 249.46875 14.628906 C 255.125 14.597656 260.78125 14.625 266.441406 14.601562 C 267.675781 14.578125 268.886719 14.296875 270.121094 14.296875 C 275.773438 14.3125 281.429688 14.285156 287.085938 14.28125 C 291.753906 14.234375 296.433594 14.351562 301.089844 13.960938 C 303.09375 13.875 305.097656 14.199219 307.101562 13.957031 C 311.78125 13.984375 316.460938 13.886719 321.136719 13.789062 C 325.003906 13.464844 328.90625 13.800781 332.761719 13.285156 C 333.746094 13.171875 334.761719 13.765625 335.722656 13.332031 C 336.425781 13.007812 337.195312 13.214844 337.917969 13.371094 C 338.894531 12.898438 340 13.011719 341.058594 12.984375 C 351.722656 12.976562 362.390625 12.945312 373.058594 12.941406 Z M 373.058594 12.941406 "/>
    <path style=" stroke:none;fill-rule:nonzero;fill:rgb(93.333333%,93.333333%,93.333333%);fill-opacity:1;" d="M 12.585938 68.234375 C 12.546875 68.027344 12.503906 67.824219 12.449219 67.625 C 13.441406 67.917969 14.449219 68.148438 15.476562 68.242188 C 15.363281 68.355469 15.125 68.585938 15.007812 68.703125 C 14.179688 68.671875 13.390625 68.414062 12.585938 68.234375 Z M 12.585938 68.234375 "/>
    <path style=" stroke:none;fill-rule:nonzero;fill:rgb(90.980392%,91.372549%,91.372549%);fill-opacity:1;" d="M 418.675781 12.488281 C 419.023438 12.605469 419.371094 12.734375 419.71875 12.875 C 419.792969 13.320312 419.402344 14.148438 420.054688 14.308594 C 420.695312 14.574219 421.367188 14.761719 422.023438 15.011719 L 422.230469 15.3125 C 421.550781 15.46875 420.496094 15.453125 420.394531 16.351562 C 420.542969 17.730469 420.28125 19.171875 420.847656 20.484375 C 421.113281 21.140625 420.421875 21.675781 420.386719 22.320312 C 420.285156 23.539062 420.34375 24.769531 420.171875 25.988281 C 419.863281 28.191406 420.070312 30.421875 420.035156 32.644531 C 420.160156 35.519531 419.46875 38.355469 419.566406 41.230469 C 419.28125 42.757812 419.40625 44.28125 419.488281 45.816406 C 418.621094 44.210938 417.683594 42.582031 416.234375 41.425781 C 413.5625 39.148438 410.144531 38.070312 406.808594 37.207031 C 402.699219 36.316406 398.519531 35.816406 394.351562 35.332031 C 386.28125 34.191406 378.140625 33.714844 370.039062 32.902344 C 370.105469 31.851562 370.949219 30.796875 372.070312 30.855469 C 378.246094 30.824219 384.425781 30.847656 390.601562 30.851562 C 390.628906 29.078125 390.585938 27.304688 390.640625 25.535156 C 385.222656 25.429688 379.804688 25.519531 374.386719 25.488281 C 372.832031 25.511719 371.210938 25.328125 369.738281 25.941406 C 367.035156 26.871094 365.019531 29.527344 364.882812 32.390625 L 364.878906 32.5 C 363.296875 32.300781 361.710938 32.1875 360.128906 32.027344 C 360.125 29.863281 360.117188 27.699219 360.136719 25.539062 C 358.386719 25.441406 356.636719 25.511719 354.886719 25.496094 C 354.878906 27.570312 354.894531 29.644531 354.875 31.71875 C 352.03125 31.429688 349.160156 31.519531 346.328125 31.167969 C 347.753906 30.792969 349.234375 30.988281 350.6875 30.820312 C 350.648438 29.058594 350.648438 27.292969 350.691406 25.535156 C 344.492188 25.433594 338.292969 25.527344 332.09375 25.488281 C 328.832031 25.371094 325.605469 27.011719 323.722656 29.667969 L 323.617188 29.8125 C 321.363281 29.351562 319.054688 29.464844 316.78125 29.214844 C 311.433594 28.710938 306.0625 28.625 300.710938 28.3125 C 300.710938 27.375 300.707031 26.433594 300.707031 25.492188 C 298.964844 25.496094 297.230469 25.503906 295.5 25.484375 C 295.480469 26.347656 295.46875 27.214844 295.441406 28.078125 C 294.226562 28.277344 293 28.128906 291.78125 28.09375 C 288.496094 28.085938 285.214844 27.941406 281.933594 28.121094 L 281.800781 27.921875 L 281.65625 27.714844 C 282.417969 27.671875 283.1875 27.632812 283.957031 27.625 C 283.75 27.25 283.566406 26.863281 283.402344 26.472656 C 283.851562 26.648438 284.292969 26.839844 284.757812 26.988281 C 285.511719 26.695312 284.949219 25.886719 284.65625 25.457031 C 285.195312 25.238281 285.730469 24.992188 286.246094 24.714844 C 286.226562 25.203125 286.226562 25.695312 286.394531 26.164062 C 286.957031 25.621094 287.164062 24.820312 287.679688 24.246094 C 288.484375 24.003906 289.277344 23.71875 290.070312 23.4375 C 290.5625 23.558594 291.027344 23.78125 291.492188 23.980469 C 291.820312 23.769531 292.25 23.65625 292.46875 23.304688 C 292.328125 22.949219 292.101562 22.644531 291.902344 22.328125 C 292.75 22.3125 293.675781 22.234375 294.367188 22.835938 C 294.253906 22.191406 294.332031 21.546875 294.902344 21.140625 C 295.0625 21.277344 295.382812 21.546875 295.542969 21.679688 C 296.285156 21.222656 296.976562 20.664062 297.785156 20.316406 C 298.589844 19.976562 299.503906 20.28125 300.320312 19.957031 C 301.3125 19.601562 302.378906 19.476562 303.429688 19.644531 C 303.921875 18.9375 304.523438 18.257812 304.710938 17.390625 C 305.699219 16.964844 306.78125 17.296875 307.816406 17.148438 C 310.269531 16.875 312.75 17.132812 315.195312 16.777344 C 318.035156 16.464844 320.890625 16.894531 323.734375 16.679688 C 354.382812 16.660156 385.035156 16.6875 415.6875 16.652344 C 416.757812 16.636719 417.859375 16.777344 418.921875 16.542969 C 419.492188 16.21875 419.703125 15.546875 420.027344 15.011719 C 419.605469 14.6875 418.832031 14.574219 418.816406 13.925781 C 418.738281 13.449219 418.707031 12.96875 418.675781 12.488281 Z M 418.675781 12.488281 "/>
    <path style=" stroke:none;fill-rule:nonzero;fill:rgb(78.823529%,78.823529%,79.215686%);fill-opacity:1;" d="M 419.71875 12.875 C 420.738281 13.253906 421.476562 14.097656 422.023438 15.011719 C 421.367188 14.761719 420.695312 14.574219 420.054688 14.308594 C 419.402344 14.148438 419.792969 13.320312 419.71875 12.875 Z M 419.71875 12.875 "/>
    <path style=" stroke:none;fill-rule:nonzero;fill:rgb(78.431373%,78.823529%,82.745098%);fill-opacity:1;" d="M 8.414062 18.398438 C 8.660156 16.515625 9.738281 14.46875 11.695312 13.941406 C 10.0625 15.453125 8.847656 17.441406 8.554688 19.671875 C 8.644531 29.441406 8.574219 39.214844 8.597656 48.988281 C 8.578125 52.324219 8.640625 55.660156 8.535156 58.996094 C 8.484375 59.964844 8.738281 60.90625 8.957031 61.839844 C 8.859375 62.535156 8.824219 63.246094 9.054688 63.921875 C 9.097656 64.109375 9.191406 64.476562 9.234375 64.664062 C 9.175781 64.53125 9.054688 64.261719 8.996094 64.128906 C 8.8125 63.683594 8.652344 63.230469 8.492188 62.777344 C 8.6875 61.28125 8.101562 59.832031 8.1875 58.335938 C 8.167969 47.007812 8.203125 35.675781 8.175781 24.347656 C 8.195312 22.363281 8.113281 20.367188 8.414062 18.398438 Z M 8.414062 18.398438 "/>
    <path style=" stroke:none;fill-rule:nonzero;fill:rgb(78.431373%,78.823529%,82.745098%);fill-opacity:1;" d="M 423.464844 16.953125 C 424.894531 18.976562 424.859375 21.609375 424.898438 23.988281 C 424.90625 29.488281 424.890625 34.988281 424.894531 40.488281 C 424.828125 47.042969 424.816406 53.601562 424.875 60.160156 C 424.691406 62.261719 424.214844 64.671875 422.476562 66.042969 C 423.070312 64.773438 424.332031 63.824219 424.375 62.324219 C 424.421875 60.867188 423.9375 59.445312 423.835938 57.992188 C 423.726562 58.804688 423.628906 59.613281 423.527344 60.425781 C 423.277344 58.621094 423.671875 56.820312 423.597656 55.011719 C 423.570312 45.339844 423.59375 35.667969 423.582031 25.996094 C 423.46875 23.289062 423.839844 20.542969 423.28125 17.875 C 423.328125 17.644531 423.421875 17.183594 423.464844 16.953125 Z M 423.464844 16.953125 "/>
    <path style=" stroke:none;fill-rule:nonzero;fill:rgb(40.784314%,50.196078%,72.54902%);fill-opacity:1;" d="M 11.695312 13.941406 L 11.875 13.851562 C 14.746094 14.65625 17.699219 15.125 20.664062 15.390625 C 27.429688 15.8125 34.210938 15.710938 40.984375 15.828125 C 51.355469 15.871094 61.726562 15.839844 72.09375 15.769531 C 84.871094 15.90625 97.652344 15.824219 110.429688 15.769531 L 110.476562 15.765625 C 110.410156 22.4375 110.460938 29.105469 110.457031 35.777344 L 110.457031 35.828125 C 105.46875 36.242188 100.503906 36.890625 95.515625 37.328125 C 96.660156 34.8125 97.863281 32.324219 99.015625 29.816406 C 99.171875 29.347656 99.511719 28.808594 99.230469 28.328125 C 99.054688 27.621094 98.195312 27.601562 97.609375 27.59375 C 96.046875 27.636719 94.476562 27.507812 92.925781 27.671875 C 92.097656 27.742188 91.789062 28.59375 91.488281 29.238281 C 90.144531 32.351562 88.75 35.445312 87.425781 38.570312 C 85.875 38.757812 84.308594 38.875 82.777344 39.214844 L 82.84375 39.554688 C 80.617188 35.964844 78.410156 32.363281 76.125 28.816406 C 75.027344 27.023438 72.664062 27.742188 70.933594 27.601562 C 69.234375 27.742188 67.109375 27.097656 65.796875 28.503906 C 62.386719 32.097656 59.140625 35.839844 55.683594 39.375 C 55.648438 32.246094 55.691406 25.117188 55.667969 17.988281 C 55.765625 17.179688 55.085938 16.398438 54.261719 16.449219 C 52.730469 16.441406 51.179688 16.351562 49.65625 16.519531 C 48.484375 16.691406 47.691406 17.824219 47.765625 18.964844 C 47.753906 27.578125 47.761719 36.1875 47.761719 44.796875 C 47.132812 44.855469 46.5 44.921875 45.871094 44.984375 C 45.71875 43.386719 45.164062 41.769531 43.984375 40.640625 C 42.199219 38.839844 39.640625 38.214844 37.246094 37.710938 C 35.042969 37.140625 32.8125 36.695312 30.605469 36.144531 C 29.941406 36.011719 29.414062 35.589844 29.078125 35.011719 C 29.457031 34.53125 29.957031 34.097656 30.617188 34.160156 C 34.617188 34.089844 38.621094 34.183594 42.621094 34.121094 C 43.773438 34.136719 44.871094 33.15625 44.941406 31.996094 C 45.035156 30.777344 45.125 29.523438 44.875 28.320312 C 44.707031 27.644531 43.859375 27.617188 43.296875 27.597656 C 38.964844 27.605469 34.628906 27.574219 30.296875 27.613281 C 28.226562 27.625 26.101562 28.171875 24.453125 29.472656 C 21.679688 31.621094 20.847656 35.808594 22.40625 38.917969 C 23.453125 40.988281 25.609375 42.230469 27.777344 42.828125 C 30.820312 43.609375 33.925781 44.117188 36.953125 44.925781 C 37.699219 45.070312 38.503906 45.816406 37.992188 46.601562 C 36.941406 46.121094 35.800781 46.703125 34.796875 47.042969 C 31.640625 47.054688 28.484375 47.042969 25.332031 47.039062 C 24.453125 47.0625 23.40625 47.03125 22.78125 47.777344 C 22.144531 48.3125 22.132812 49.191406 22.117188 49.949219 C 19.039062 51.144531 16.148438 52.839844 13.601562 54.941406 C 11.472656 56.8125 9.503906 59.199219 9.066406 62.085938 L 8.957031 61.839844 C 8.738281 60.90625 8.484375 59.964844 8.535156 58.996094 C 8.640625 55.660156 8.578125 52.324219 8.597656 48.988281 C 8.574219 39.214844 8.644531 29.441406 8.554688 19.671875 C 8.847656 17.441406 10.0625 15.453125 11.695312 13.941406 M 11.035156 16.9375 C 12.28125 16.691406 13.167969 15.566406 14.023438 14.695312 C 12.710938 14.128906 11.277344 15.6875 11.035156 16.9375 Z M 11.035156 16.9375 "/>
    <path style=" stroke:none;fill-rule:nonzero;fill:rgb(70.588235%,70.588235%,70.588235%);fill-opacity:1;" d="M 110.476562 15.019531 C 110.5 14.683594 110.523438 14.351562 110.5625 14.015625 C 110.675781 14.152344 110.90625 14.429688 111.019531 14.566406 C 112.308594 14.652344 113.597656 14.601562 114.882812 14.492188 C 114.929688 14.898438 114.976562 15.304688 115.03125 15.710938 C 113.511719 15.78125 111.996094 15.746094 110.476562 15.765625 L 110.429688 15.769531 C 110.441406 15.578125 110.464844 15.207031 110.476562 15.019531 Z M 110.476562 15.019531 "/>
    <path style=" stroke:none;fill-rule:nonzero;fill:rgb(70.588235%,70.588235%,70.588235%);fill-opacity:1;" d="M 333.355469 66.914062 C 333.699219 66.835938 334.050781 66.785156 334.40625 66.761719 C 359.269531 66.734375 384.132812 66.492188 408.996094 66.539062 C 412.234375 66.625 415.484375 66.367188 418.707031 66.675781 C 418.8125 66.785156 419.011719 66.992188 419.109375 67.101562 C 418.015625 67.492188 416.832031 67.277344 415.699219 67.328125 C 408.707031 67.429688 401.707031 67.289062 394.710938 67.316406 C 385.410156 67.296875 376.113281 67.320312 366.8125 67.277344 C 364.347656 66.988281 361.859375 67.1875 359.378906 67.125 C 352.167969 67.085938 344.957031 67.109375 337.746094 67.074219 C 336.28125 67.058594 334.804688 67.171875 333.355469 66.914062 Z M 333.355469 66.914062 "/>
    <path style=" stroke:none;fill-rule:nonzero;fill:rgb(54.901961%,54.901961%,57.647059%);fill-opacity:1;" d="M 6.378906 24.351562 C 6.554688 21.042969 6.542969 17.582031 8.015625 14.535156 C 8.242188 14.898438 8.472656 15.261719 8.699219 15.625 C 8.21875 16.539062 7.9375 17.539062 7.699219 18.542969 C 7.878906 18.507812 8.234375 18.433594 8.414062 18.398438 C 8.113281 20.367188 8.195312 22.363281 8.175781 24.347656 C 8.203125 35.675781 8.167969 47.007812 8.1875 58.335938 C 8.101562 59.832031 8.6875 61.28125 8.492188 62.777344 C 8.105469 62.199219 7.730469 61.617188 7.367188 61.027344 C 7.292969 61.785156 7.242188 62.550781 7.292969 63.3125 C 6.566406 60.71875 6.503906 58.015625 6.375 55.347656 C 6.375 45.011719 6.371094 34.683594 6.378906 24.351562 Z M 6.378906 24.351562 "/>
    <path style=" stroke:none;fill-rule:nonzero;fill:rgb(67.843137%,80.784314%,92.941176%);fill-opacity:1;" d="M 11.035156 16.9375 C 11.277344 15.6875 12.710938 14.128906 14.023438 14.695312 C 13.167969 15.566406 12.28125 16.691406 11.035156 16.9375 Z M 11.035156 16.9375 "/>
    <path style=" stroke:none;fill-rule:nonzero;fill:rgb(11.372549%,19.215686%,46.666667%);fill-opacity:1;" d="M 105.277344 15.203125 C 107.011719 15.1875 108.757812 15.34375 110.476562 15.019531 C 110.464844 15.207031 110.441406 15.578125 110.429688 15.769531 C 97.652344 15.824219 84.871094 15.90625 72.09375 15.769531 C 72.535156 15.449219 73.039062 15.214844 73.597656 15.261719 C 84.160156 15.238281 94.71875 15.195312 105.277344 15.203125 Z M 105.277344 15.203125 "/>
    <path style=" stroke:none;fill-rule:nonzero;fill:rgb(89.019608%,89.019608%,89.411765%);fill-opacity:1;" d="M 420.394531 16.351562 C 420.496094 15.453125 421.550781 15.46875 422.230469 15.3125 C 422.613281 15.878906 423.039062 16.414062 423.464844 16.953125 C 423.421875 17.183594 423.328125 17.644531 423.28125 17.875 C 422.957031 19.34375 423.113281 20.855469 423.078125 22.347656 C 423.085938 32.007812 423.039062 41.667969 423.039062 51.328125 C 423.050781 52.585938 422.957031 53.84375 422.882812 55.101562 C 422.242188 53.710938 421.796875 52.242188 421.261719 50.8125 C 420.859375 49.082031 420.011719 47.507812 419.488281 45.816406 C 419.40625 44.28125 419.28125 42.757812 419.566406 41.230469 C 419.46875 38.355469 420.160156 35.519531 420.035156 32.644531 C 420.070312 30.421875 419.863281 28.191406 420.171875 25.988281 C 420.34375 24.769531 420.285156 23.539062 420.386719 22.320312 C 420.421875 21.675781 421.113281 21.140625 420.847656 20.484375 C 420.28125 19.171875 420.542969 17.730469 420.394531 16.351562 Z M 420.394531 16.351562 "/>
    <path style=" stroke:none;fill-rule:nonzero;fill:rgb(81.176471%,81.176471%,81.176471%);fill-opacity:1;" d="M 110.476562 15.765625 C 111.996094 15.746094 113.511719 15.78125 115.03125 15.710938 L 115.175781 15.707031 C 115.164062 16.113281 115.15625 16.523438 115.148438 16.933594 C 115.078125 23.101562 115.152344 29.269531 115.132812 35.441406 C 113.574219 35.488281 112.015625 35.671875 110.457031 35.777344 C 110.460938 29.105469 110.410156 22.4375 110.476562 15.765625 Z M 110.476562 15.765625 "/>
    <path style=" stroke:none;fill-rule:nonzero;fill:rgb(100%,100%,100%);fill-opacity:1;" d="M 47.765625 18.964844 C 47.691406 17.824219 48.484375 16.691406 49.65625 16.519531 C 51.179688 16.351562 52.730469 16.441406 54.261719 16.449219 C 55.085938 16.398438 55.765625 17.179688 55.667969 17.988281 C 55.691406 25.117188 55.648438 32.246094 55.683594 39.375 C 59.140625 35.839844 62.386719 32.097656 65.796875 28.503906 C 67.109375 27.097656 69.234375 27.742188 70.933594 27.601562 C 72.664062 27.742188 75.027344 27.023438 76.125 28.816406 C 78.410156 32.363281 80.617188 35.964844 82.84375 39.554688 C 83.714844 40.800781 84.351562 42.214844 85.34375 43.375 C 86.015625 41.761719 86.707031 40.160156 87.425781 38.570312 C 88.75 35.445312 90.144531 32.351562 91.488281 29.238281 C 91.789062 28.59375 92.097656 27.742188 92.925781 27.671875 C 94.476562 27.507812 96.046875 27.636719 97.609375 27.59375 C 98.195312 27.601562 99.054688 27.621094 99.230469 28.328125 C 99.511719 28.808594 99.171875 29.347656 99.015625 29.816406 C 97.863281 32.324219 96.660156 34.8125 95.515625 37.328125 C 91.550781 45.695312 87.65625 54.097656 83.71875 62.476562 C 83.523438 62.878906 83.171875 63.175781 82.847656 63.46875 C 81.101562 63.488281 79.351562 63.503906 77.605469 63.480469 C 77.179688 63.519531 76.828125 63.308594 76.519531 63.054688 C 76.351562 62.480469 76.339844 61.859375 76.632812 61.328125 C 78.351562 57.785156 80.097656 54.261719 81.816406 50.722656 C 79.390625 47.28125 77.148438 43.707031 74.769531 40.222656 C 73.363281 38.097656 71.933594 35.984375 70.546875 33.847656 C 68.851562 35.511719 67.324219 37.339844 65.648438 39.027344 C 65.417969 39.339844 64.996094 39.578125 64.96875 40 C 65.28125 40.628906 65.695312 41.199219 66.074219 41.785156 C 68.148438 44.851562 70.164062 47.953125 72.238281 51.011719 C 72.5 51.425781 72.789062 51.839844 72.917969 52.320312 C 72.890625 52.96875 72.269531 53.542969 71.613281 53.464844 C 69.625 53.441406 67.617188 53.589844 65.644531 53.382812 C 64.632812 52.679688 64.0625 51.550781 63.371094 50.574219 C 61.601562 48.023438 59.867188 45.453125 58.09375 42.910156 C 57.296875 41.796875 56.625 40.585938 55.683594 39.578125 C 55.652344 40.820312 55.679688 42.0625 55.671875 43.308594 C 55.648438 45.765625 55.683594 48.226562 55.65625 50.6875 C 55.707031 52.027344 54.65625 53.378906 53.277344 53.453125 C 51.835938 53.503906 50.386719 53.488281 48.945312 53.46875 C 48.15625 53.570312 47.6875 52.707031 47.761719 52.019531 C 47.761719 49.613281 47.773438 47.203125 47.761719 44.796875 C 47.761719 36.1875 47.753906 27.578125 47.765625 18.964844 Z M 47.765625 18.964844 "/>
    <path style=" stroke:none;fill-rule:nonzero;fill:rgb(100%,100%,100%);fill-opacity:1;" d="M 423.078125 22.347656 C 423.113281 20.855469 422.957031 19.34375 423.28125 17.875 C 423.839844 20.542969 423.46875 23.289062 423.582031 25.996094 C 423.59375 35.667969 423.570312 45.339844 423.597656 55.011719 C 423.671875 56.820312 423.277344 58.621094 423.527344 60.425781 C 423.289062 62.921875 422.167969 65.546875 419.890625 66.8125 C 419.695312 66.886719 419.304688 67.027344 419.109375 67.101562 C 419.011719 66.992188 418.8125 66.785156 418.707031 66.675781 C 419.203125 66.519531 419.597656 66.175781 419.960938 65.8125 C 420.363281 65.386719 420.757812 64.945312 421.101562 64.464844 C 421.988281 63.242188 422.585938 61.808594 422.84375 60.324219 C 422.972656 58.585938 422.898438 56.839844 422.882812 55.101562 C 422.957031 53.84375 423.050781 52.585938 423.039062 51.328125 C 423.039062 41.667969 423.085938 32.007812 423.078125 22.347656 Z M 423.078125 22.347656 "/>
    <path style=" stroke:none;fill-rule:nonzero;fill:rgb(100%,100%,100%);fill-opacity:1;" d="M 24.453125 29.472656 C 26.101562 28.171875 28.226562 27.625 30.296875 27.613281 C 34.628906 27.574219 38.964844 27.605469 43.296875 27.597656 C 43.859375 27.617188 44.707031 27.644531 44.875 28.320312 C 45.125 29.523438 45.035156 30.777344 44.941406 31.996094 C 44.871094 33.15625 43.773438 34.136719 42.621094 34.121094 C 38.621094 34.183594 34.617188 34.089844 30.617188 34.160156 C 29.957031 34.097656 29.457031 34.53125 29.078125 35.011719 C 29.414062 35.589844 29.941406 36.011719 30.605469 36.144531 C 32.8125 36.695312 35.042969 37.140625 37.246094 37.710938 C 39.640625 38.214844 42.199219 38.839844 43.984375 40.640625 C 45.164062 41.769531 45.71875 43.386719 45.871094 44.984375 C 45.953125 46.796875 45.699219 48.746094 44.542969 50.210938 C 42.800781 52.535156 39.738281 53.394531 36.957031 53.464844 C 32.515625 53.496094 28.074219 53.464844 23.632812 53.484375 C 23.144531 53.453125 22.535156 53.558594 22.269531 53.035156 C 22.007812 52.035156 22.152344 50.976562 22.117188 49.949219 C 22.132812 49.191406 22.144531 48.3125 22.78125 47.777344 C 23.40625 47.03125 24.453125 47.0625 25.332031 47.039062 C 28.484375 47.042969 31.640625 47.054688 34.796875 47.042969 C 35.863281 47.019531 37.066406 47.292969 37.992188 46.601562 C 38.503906 45.816406 37.699219 45.070312 36.953125 44.925781 C 33.925781 44.117188 30.820312 43.609375 27.777344 42.828125 C 25.609375 42.230469 23.453125 40.988281 22.40625 38.917969 C 20.847656 35.808594 21.679688 31.621094 24.453125 29.472656 Z M 24.453125 29.472656 "/>
    <path style=" stroke:none;fill-rule:nonzero;fill:rgb(41.568627%,41.568627%,42.352941%);fill-opacity:0.588235;" d="M 426.414062 20.632812 C 426.726562 24.179688 426.625 27.753906 426.671875 31.308594 C 426.671875 38.097656 426.671875 44.882812 426.671875 51.667969 C 426.566406 54.324219 426.757812 57 426.359375 59.636719 C 426.390625 56.9375 426.308594 54.238281 426.386719 51.535156 C 426.484375 41.238281 426.355469 30.933594 426.414062 20.632812 Z M 426.414062 20.632812 "/>
    <path style=" stroke:none;fill-rule:nonzero;fill:rgb(43.921569%,52.54902%,70.588235%);fill-opacity:1;" d="M 139.03125 27.988281 C 138.851562 25.964844 141.757812 24.570312 143.207031 26.011719 C 145.273438 28.039062 147.246094 30.160156 149.253906 32.242188 C 145.835938 32.535156 142.421875 32.898438 139.007812 33.25 C 139.050781 31.496094 138.992188 29.742188 139.03125 27.988281 Z M 139.03125 27.988281 "/>
    <path style=" stroke:none;fill-rule:nonzero;fill:rgb(43.529412%,52.156863%,70.196078%);fill-opacity:1;" d="M 161.773438 25.558594 C 163.523438 25.417969 165.28125 25.527344 167.042969 25.492188 C 167.042969 27.308594 167.03125 29.125 167.042969 30.941406 C 165.285156 31.035156 163.527344 31.148438 161.785156 31.386719 C 161.792969 29.441406 161.808594 27.5 161.773438 25.558594 Z M 161.773438 25.558594 "/>
    <path style=" stroke:none;fill-rule:nonzero;fill:rgb(43.137255%,52.156863%,69.803922%);fill-opacity:1;" d="M 172.699219 30.46875 C 174.394531 27.320312 177.980469 25.347656 181.535156 25.488281 C 185.199219 25.511719 188.863281 25.46875 192.53125 25.507812 C 195.371094 25.589844 197.996094 27.109375 199.789062 29.261719 C 198.144531 29.089844 196.5 29.308594 194.851562 29.359375 C 187.460938 29.597656 180.089844 30.261719 172.699219 30.46875 Z M 172.699219 30.46875 "/>
    <path style=" stroke:none;fill-rule:nonzero;fill:rgb(43.137255%,51.372549%,68.235294%);fill-opacity:1;" d="M 235.203125 25.46875 C 244.773438 25.546875 254.34375 25.414062 263.914062 25.535156 C 263.902344 26.292969 263.90625 27.054688 263.921875 27.8125 C 254.324219 27.832031 244.722656 27.785156 235.125 28.125 C 235.125 27.238281 235.148438 26.351562 235.203125 25.46875 Z M 235.203125 25.46875 "/>
    <path style=" stroke:none;fill-rule:nonzero;fill:rgb(42.745098%,50.980392%,67.843137%);fill-opacity:1;" d="M 295.5 25.484375 C 297.230469 25.503906 298.964844 25.496094 300.707031 25.492188 C 300.707031 26.433594 300.710938 27.375 300.710938 28.3125 C 298.953125 28.25 297.195312 28.183594 295.4375 28.195312 L 295.441406 28.078125 C 295.46875 27.214844 295.480469 26.347656 295.5 25.484375 Z M 295.5 25.484375 "/>
    <path style=" stroke:none;fill-rule:nonzero;fill:rgb(42.745098%,50.980392%,67.843137%);fill-opacity:1;" d="M 273.210938 26.066406 C 274.578125 25.230469 276.242188 25.519531 277.765625 25.492188 C 279.351562 25.464844 280.773438 26.453125 281.65625 27.714844 L 281.800781 27.921875 C 278.328125 27.855469 274.859375 27.851562 271.390625 27.785156 C 271.894531 27.121094 272.460938 26.464844 273.210938 26.066406 Z M 273.210938 26.066406 "/>
    <path style=" stroke:none;fill-rule:nonzero;fill:rgb(42.745098%,50.588235%,67.058824%);fill-opacity:1;" d="M 354.886719 25.496094 C 356.636719 25.511719 358.386719 25.441406 360.136719 25.539062 C 360.117188 27.699219 360.125 29.863281 360.128906 32.027344 C 358.382812 31.832031 356.628906 31.761719 354.875 31.71875 C 354.894531 29.644531 354.878906 27.570312 354.886719 25.496094 Z M 354.886719 25.496094 "/>
    <path style=" stroke:none;fill-rule:nonzero;fill:rgb(42.745098%,50.588235%,67.058824%);fill-opacity:1;" d="M 369.738281 25.941406 C 371.210938 25.328125 372.832031 25.511719 374.386719 25.488281 C 379.804688 25.519531 385.222656 25.429688 390.640625 25.535156 C 390.585938 27.304688 390.628906 29.078125 390.601562 30.851562 C 384.425781 30.847656 378.246094 30.824219 372.070312 30.855469 C 370.949219 30.796875 370.105469 31.851562 370.039062 32.902344 C 368.324219 32.679688 366.605469 32.5 364.882812 32.390625 C 365.019531 29.527344 367.035156 26.871094 369.738281 25.941406 Z M 369.738281 25.941406 "/>
    <path style=" stroke:none;fill-rule:nonzero;fill:rgb(43.529412%,51.764706%,69.019608%);fill-opacity:1;" d="M 206.546875 28.757812 C 207.917969 26.703125 210.371094 25.472656 212.824219 25.488281 C 219.007812 25.492188 225.191406 25.484375 231.378906 25.488281 C 231.367188 26.414062 231.390625 27.335938 231.425781 28.261719 C 231.445312 29.066406 231.410156 29.875 231.386719 30.683594 C 231.371094 29.84375 231.332031 29.003906 231.296875 28.164062 C 225.128906 28.238281 218.964844 28.476562 212.796875 28.605469 C 210.714844 28.65625 208.632812 28.898438 206.546875 28.757812 Z M 206.546875 28.757812 "/>
    <path style=" stroke:none;fill-rule:nonzero;fill:rgb(42.745098%,50.980392%,67.45098%);fill-opacity:1;" d="M 323.722656 29.667969 C 325.605469 27.011719 328.832031 25.371094 332.09375 25.488281 C 338.292969 25.527344 344.492188 25.433594 350.691406 25.535156 C 350.648438 27.292969 350.648438 29.058594 350.6875 30.820312 C 346.964844 30.65625 343.242188 30.804688 339.523438 30.847656 C 338.085938 30.425781 336.582031 30.527344 335.105469 30.414062 C 331.3125 30.167969 327.503906 30.078125 323.722656 29.667969 Z M 323.722656 29.667969 "/>
    <path style=" stroke:none;fill-rule:nonzero;fill:rgb(81.960784%,81.960784%,81.960784%);fill-opacity:1;" d="M 264.257812 27.792969 C 266.601562 27.84375 268.960938 27.660156 271.296875 27.929688 C 270.238281 29.84375 269.597656 31.945312 268.742188 33.953125 C 266.09375 40.738281 263.386719 47.503906 260.78125 54.308594 C 262.675781 54.390625 264.570312 54.265625 266.464844 54.292969 C 267.289062 52.136719 268.105469 49.972656 269.003906 47.847656 C 274.050781 47.890625 279.09375 47.847656 284.140625 47.871094 C 284.941406 50.050781 285.804688 52.203125 286.675781 54.351562 C 286.105469 54.800781 285.335938 55.535156 284.699219 54.75 C 284.394531 55.273438 284.15625 55.859375 283.679688 56.257812 C 282.988281 56.304688 282.433594 55.835938 281.871094 55.515625 C 281.679688 55.9375 281.488281 56.351562 281.296875 56.773438 C 280.914062 56.898438 280.53125 57.027344 280.15625 57.15625 C 280.132812 57 280.082031 56.679688 280.054688 56.523438 C 279.421875 56.75 278.820312 57.054688 278.308594 57.488281 C 278.007812 57.355469 277.726562 57.199219 277.433594 57.066406 C 276.738281 57.464844 276.023438 57.835938 275.277344 58.132812 C 274.996094 58.003906 274.722656 57.871094 274.449219 57.742188 C 274.09375 58.070312 273.742188 58.394531 273.394531 58.71875 C 273.371094 57.808594 272.742188 57.117188 272.273438 56.398438 C 272.054688 57.117188 271.847656 57.835938 271.652344 58.558594 C 271.144531 58.613281 270.640625 58.671875 270.140625 58.730469 C 269.835938 59.019531 269.535156 59.3125 269.234375 59.605469 C 269.144531 59.179688 269.054688 58.757812 268.964844 58.335938 C 268.871094 58.839844 268.78125 59.347656 268.691406 59.851562 C 268.316406 59.683594 267.945312 59.515625 267.578125 59.351562 C 267.585938 59.644531 267.59375 59.933594 267.609375 60.226562 C 266.703125 60.136719 265.777344 60.132812 264.90625 60.40625 C 264.796875 60.332031 264.578125 60.183594 264.464844 60.105469 C 264.058594 60.40625 263.664062 60.785156 263.132812 60.828125 C 262.269531 60.878906 261.691406 61.660156 260.847656 61.75 C 259.980469 61.859375 259.105469 61.785156 258.238281 61.828125 C 258.246094 62.105469 258.257812 62.378906 258.273438 62.660156 C 257.703125 62.289062 257.160156 61.777344 256.453125 61.738281 C 255.664062 62.007812 254.996094 62.578125 254.160156 62.71875 C 252.945312 62.960938 251.695312 62.917969 250.464844 62.921875 C 245.472656 62.933594 240.488281 62.949219 235.5 62.933594 C 234.425781 62.949219 233.28125 62.738281 232.300781 63.292969 C 230.820312 63.488281 229.320312 63.417969 227.828125 63.425781 C 208.957031 63.441406 190.082031 63.488281 171.214844 63.480469 C 163.492188 63.445312 155.777344 63.570312 148.058594 63.425781 C 148.488281 63.082031 149.007812 62.914062 149.5625 62.964844 C 158.320312 62.976562 167.082031 62.964844 175.84375 62.941406 C 180.402344 62.84375 184.980469 63.195312 189.515625 62.65625 C 192.519531 62.644531 195.519531 62.644531 198.523438 62.664062 C 199.371094 62.773438 200.015625 62.078125 200.835938 62.015625 C 202 61.722656 203.421875 61.691406 204.21875 60.664062 C 205.011719 60.75 205.851562 61.035156 206.628906 60.707031 C 207.507812 60.355469 208.433594 60.054688 209.390625 60.269531 C 209.175781 60.03125 208.964844 59.789062 208.757812 59.550781 C 209.332031 59.140625 209.914062 59.484375 210.449219 59.773438 C 210.839844 59.527344 211.203125 59.109375 211.714844 59.167969 C 212.78125 59.222656 213.664062 58.527344 214.628906 58.171875 C 214.773438 58.289062 215.066406 58.527344 215.214844 58.644531 C 215.269531 58.460938 215.328125 58.277344 215.390625 58.09375 C 216.808594 58.351562 217.890625 57.144531 219.269531 57.128906 C 219.472656 56.847656 219.664062 56.558594 219.871094 56.277344 C 220.238281 56.453125 220.601562 56.628906 220.96875 56.808594 C 221.652344 56.488281 222.378906 55.964844 223.128906 56.429688 C 223.855469 55.984375 224.597656 55.511719 225.503906 55.613281 C 226.300781 55.699219 226.988281 55.3125 227.546875 54.773438 C 229.816406 55.027344 231.824219 53.421875 234.105469 53.558594 C 234.277344 53.207031 234.453125 52.851562 234.625 52.5 C 234.828125 52.601562 235.039062 52.707031 235.25 52.808594 C 236.136719 52.210938 237.308594 52.699219 238.132812 51.976562 C 238.53125 51.648438 239.050781 51.921875 239.507812 51.941406 C 239.710938 51.628906 239.917969 51.320312 240.132812 51.011719 C 240.363281 51.214844 240.59375 51.421875 240.832031 51.625 C 240.90625 51.453125 240.992188 51.285156 241.078125 51.121094 C 241.363281 51.132812 241.652344 51.148438 241.945312 51.171875 C 242.035156 51 242.207031 50.667969 242.292969 50.5 C 242.671875 50.625 243.054688 50.757812 243.4375 50.886719 C 243.644531 50.480469 243.855469 50.078125 244.070312 49.671875 C 244.253906 49.808594 244.445312 49.945312 244.636719 50.082031 C 245.09375 49.785156 245.617188 49.964844 246.109375 50.074219 C 246.234375 51.421875 245.996094 52.789062 246.320312 54.117188 C 246.464844 54.160156 246.75 54.242188 246.894531 54.285156 C 248.648438 54.410156 250.414062 54.285156 252.175781 54.304688 C 252.191406 46.441406 252.164062 38.582031 252.179688 30.726562 C 256.105469 30.726562 260.03125 30.714844 263.964844 30.738281 C 264.28125 29.789062 264.234375 28.78125 264.257812 27.792969 Z M 264.257812 27.792969 "/>
    <path style=" stroke:none;fill-rule:nonzero;fill:rgb(81.960784%,81.960784%,81.960784%);fill-opacity:1;" d="M 300.710938 28.3125 C 306.0625 28.625 311.433594 28.710938 316.78125 29.214844 C 319.054688 29.464844 321.363281 29.351562 323.617188 29.8125 C 322.082031 32.003906 321.886719 34.738281 322 37.328125 C 322.117188 40.660156 321.707031 44.027344 322.3125 47.320312 C 322.183594 47.375 321.933594 47.488281 321.800781 47.546875 C 321.589844 46.773438 321.429688 45.988281 321.3125 45.191406 C 321.097656 45.203125 320.882812 45.210938 320.675781 45.214844 C 320.632812 45.085938 320.554688 44.828125 320.511719 44.699219 C 319.640625 44.464844 319.023438 45.078125 318.34375 45.480469 C 318.21875 45.414062 317.972656 45.285156 317.847656 45.222656 C 317.28125 45.617188 316.667969 45.921875 316.023438 46.148438 C 315.949219 46.953125 315.195312 47.082031 314.519531 47.023438 C 314.667969 46.660156 314.816406 46.300781 314.964844 45.933594 C 314.550781 46.15625 314.214844 46.480469 313.917969 46.832031 C 313.761719 46.5625 313.617188 46.296875 313.464844 46.03125 C 313.070312 46.441406 312.824219 46.941406 312.839844 47.515625 C 312.324219 47.679688 311.804688 47.855469 311.40625 48.238281 C 313.863281 48.515625 316.375 48.039062 318.804688 48.53125 C 316.652344 49.035156 314.304688 48.160156 312.265625 49.058594 C 308.761719 49.117188 305.253906 49.078125 301.75 49.078125 C 301.144531 49.164062 300.644531 48.613281 300.726562 48.027344 C 300.707031 41.457031 300.730469 34.882812 300.710938 28.3125 Z M 300.710938 28.3125 "/>
    <path style=" stroke:none;fill-rule:nonzero;fill:rgb(84.313725%,83.921569%,83.921569%);fill-opacity:1;" d="M 231.425781 28.261719 C 232.652344 28.160156 233.894531 28.195312 235.125 28.125 C 235.136719 28.992188 235.164062 29.863281 235.199219 30.730469 C 239.097656 30.734375 243.003906 30.734375 246.902344 30.730469 C 246.90625 38.578125 246.917969 46.433594 246.894531 54.285156 C 246.75 54.242188 246.464844 54.160156 246.320312 54.117188 C 245.996094 52.789062 246.234375 51.421875 246.109375 50.074219 C 245.617188 49.964844 245.09375 49.785156 244.636719 50.082031 C 244.445312 49.945312 244.253906 49.808594 244.070312 49.671875 C 243.855469 50.078125 243.644531 50.480469 243.4375 50.886719 C 243.054688 50.757812 242.671875 50.625 242.292969 50.5 C 242.207031 50.667969 242.035156 51 241.945312 51.171875 C 241.652344 51.148438 241.363281 51.132812 241.078125 51.121094 C 240.992188 51.285156 240.90625 51.453125 240.832031 51.625 C 240.59375 51.421875 240.363281 51.214844 240.132812 51.011719 C 239.917969 51.320312 239.710938 51.628906 239.507812 51.941406 C 239.050781 51.921875 238.53125 51.648438 238.132812 51.976562 C 237.308594 52.699219 236.136719 52.210938 235.25 52.808594 C 235.039062 52.707031 234.828125 52.601562 234.625 52.5 C 234.453125 52.851562 234.277344 53.207031 234.105469 53.558594 C 231.824219 53.421875 229.816406 55.027344 227.546875 54.773438 C 226.988281 55.3125 226.300781 55.699219 225.503906 55.613281 C 224.597656 55.511719 223.855469 55.984375 223.128906 56.429688 C 222.378906 55.964844 221.652344 56.488281 220.96875 56.808594 C 220.601562 56.628906 220.238281 56.453125 219.871094 56.277344 C 219.664062 56.558594 219.472656 56.847656 219.269531 57.128906 C 217.890625 57.144531 216.808594 58.351562 215.390625 58.09375 C 215.328125 58.277344 215.269531 58.460938 215.214844 58.644531 C 215.066406 58.527344 214.773438 58.289062 214.628906 58.171875 C 213.664062 58.527344 212.78125 59.222656 211.714844 59.167969 C 211.203125 59.109375 210.839844 59.527344 210.449219 59.773438 C 209.914062 59.484375 209.332031 59.140625 208.757812 59.550781 C 208.964844 59.789062 209.175781 60.03125 209.390625 60.269531 C 208.433594 60.054688 207.507812 60.355469 206.628906 60.707031 C 205.851562 61.035156 205.011719 60.75 204.21875 60.664062 C 203.421875 61.691406 202 61.722656 200.835938 62.015625 C 200.015625 62.078125 199.371094 62.773438 198.523438 62.664062 C 195.519531 62.644531 192.519531 62.644531 189.515625 62.65625 C 184.980469 63.195312 180.402344 62.84375 175.84375 62.941406 C 167.082031 62.964844 158.320312 62.976562 149.5625 62.964844 C 149.007812 62.914062 148.488281 63.082031 148.058594 63.425781 C 137.078125 63.554688 126.089844 63.503906 115.105469 63.46875 L 115.113281 62.996094 C 117.160156 62.90625 119.207031 63 121.253906 62.953125 C 121.777344 63.019531 122.042969 62.523438 122.363281 62.214844 C 122.988281 62.691406 124.109375 63.035156 124.570312 62.175781 C 125.105469 61.941406 125.617188 61.660156 126.046875 61.261719 C 126.585938 61.566406 127.183594 61.625 127.714844 61.261719 C 127.972656 61.386719 128.253906 61.578125 128.496094 61.300781 C 129.820312 60.308594 131.546875 60.265625 132.964844 59.449219 C 134.566406 59.847656 135.835938 57.890625 137.472656 58.40625 C 138.335938 57.582031 139.519531 57.28125 140.660156 57.09375 C 140.96875 57.046875 141.132812 56.734375 141.367188 56.558594 C 141.535156 56.65625 141.703125 56.753906 141.878906 56.855469 C 142.140625 56.527344 142.410156 56.199219 142.675781 55.875 C 142.855469 55.988281 143.039062 56.101562 143.226562 56.21875 C 143.804688 55.601562 144.621094 55.71875 145.390625 55.714844 C 146.214844 55.421875 147.003906 54.902344 147.921875 55.191406 C 148.171875 54.957031 148.414062 54.714844 148.664062 54.476562 C 149.140625 54.597656 149.617188 54.71875 150.09375 54.84375 C 150.320312 54.425781 150.550781 54.015625 150.789062 53.605469 C 151.390625 53.351562 151.988281 53.082031 152.574219 52.785156 C 152.84375 52.957031 153.105469 53.148438 153.378906 53.320312 C 153.367188 53.019531 153.355469 52.71875 153.34375 52.417969 C 154.066406 52.46875 154.78125 52.625 155.503906 52.582031 C 156.304688 52.355469 156.492188 51.480469 156.679688 50.78125 C 157.003906 51.019531 157.335938 51.253906 157.667969 51.488281 C 158.257812 50.972656 158.996094 50.730469 159.765625 50.613281 C 160.734375 51.589844 161.660156 52.621094 162.65625 53.574219 C 163.585938 54.65625 165.457031 54.546875 166.378906 53.507812 C 166.96875 52.964844 167.0625 52.105469 167.054688 51.351562 C 167.042969 44.550781 167.054688 37.746094 167.042969 30.941406 C 168.882812 31.042969 170.707031 30.671875 172.550781 30.734375 C 171.589844 32.421875 171.304688 34.410156 171.351562 36.328125 C 171.382812 39.214844 171.3125 42.101562 171.382812 44.992188 C 171.621094 49.414062 175.0625 53.550781 179.496094 54.226562 C 182.613281 54.421875 185.742188 54.273438 188.863281 54.335938 C 191.167969 54.246094 193.621094 54.660156 195.785156 53.640625 C 199.324219 52.210938 201.808594 48.511719 201.777344 44.691406 C 201.792969 41.351562 201.835938 38.003906 201.753906 34.660156 C 201.714844 32.691406 200.855469 30.875 199.789062 29.261719 C 201.949219 29.121094 204.121094 28.847656 206.28125 29.125 C 205.054688 30.964844 205.148438 33.257812 205.3125 35.367188 C 205.757812 38.296875 208.371094 40.542969 211.203125 41.097656 C 215.941406 42.140625 220.734375 42.941406 225.476562 43.972656 C 226.335938 44.085938 227.296875 44.707031 227.296875 45.664062 C 227.320312 46.550781 227.414062 47.570312 226.796875 48.296875 C 226.234375 48.953125 225.3125 49.105469 224.492188 49.089844 C 218.46875 49.074219 212.441406 49.097656 206.417969 49.078125 C 206.398438 50.820312 206.402344 52.5625 206.410156 54.304688 C 210.664062 54.371094 214.914062 54.296875 219.167969 54.359375 C 221.71875 54.261719 224.289062 54.566406 226.820312 54.171875 C 229.328125 53.535156 231.519531 51.589844 232.222656 49.070312 C 232.78125 46.980469 232.765625 44.660156 231.839844 42.675781 C 230.777344 40.488281 228.503906 39.097656 226.160156 38.675781 C 221.847656 37.785156 217.523438 36.933594 213.191406 36.101562 C 212.289062 35.878906 211.179688 35.75 210.667969 34.855469 C 209.996094 33.394531 210.570312 30.882812 212.496094 30.835938 C 218.792969 30.796875 225.089844 30.828125 231.386719 30.824219 L 231.386719 30.683594 C 231.410156 29.875 231.445312 29.066406 231.425781 28.261719 Z M 231.425781 28.261719 "/>
    <path style=" stroke:none;fill-rule:nonzero;fill:rgb(9.803922%,18.823529%,35.686275%);fill-opacity:1;" d="M 235.125 28.125 C 244.722656 27.785156 254.324219 27.832031 263.921875 27.8125 C 263.9375 28.785156 263.921875 29.761719 263.964844 30.738281 C 260.03125 30.714844 256.105469 30.726562 252.179688 30.726562 C 252.164062 38.582031 252.191406 46.441406 252.175781 54.304688 C 250.414062 54.285156 248.648438 54.410156 246.894531 54.285156 C 246.917969 46.433594 246.90625 38.578125 246.902344 30.730469 C 243.003906 30.734375 239.097656 30.734375 235.199219 30.730469 C 235.164062 29.863281 235.136719 28.992188 235.125 28.125 Z M 235.125 28.125 "/>
    <path style=" stroke:none;fill-rule:nonzero;fill:rgb(9.803922%,18.823529%,35.294118%);fill-opacity:1;" d="M 271.296875 27.929688 L 271.390625 27.785156 C 274.859375 27.851562 278.328125 27.855469 281.800781 27.921875 L 281.933594 28.121094 C 285.285156 35.960938 288.195312 43.984375 291.40625 51.882812 C 291.699219 52.699219 292.015625 53.507812 292.324219 54.320312 C 290.441406 54.316406 288.554688 54.257812 286.675781 54.351562 C 285.804688 52.203125 284.941406 50.050781 284.140625 47.871094 C 279.09375 47.847656 274.050781 47.890625 269.003906 47.847656 C 268.105469 49.972656 267.289062 52.136719 266.464844 54.292969 C 264.570312 54.265625 262.675781 54.390625 260.78125 54.308594 C 263.386719 47.503906 266.09375 40.738281 268.742188 33.953125 C 269.597656 31.945312 270.238281 29.84375 271.296875 27.929688 M 270.980469 42.707031 C 274.6875 42.648438 278.398438 42.792969 282.097656 42.632812 C 280.535156 38.738281 278.988281 34.828125 277.433594 30.929688 C 276.871094 30.878906 276.308594 30.867188 275.746094 30.875 C 274.03125 34.761719 272.5625 38.761719 270.980469 42.707031 Z M 270.980469 42.707031 "/>
    <path style=" stroke:none;fill-rule:nonzero;fill:rgb(82.745098%,82.745098%,82.745098%);fill-opacity:1;" d="M 281.933594 28.121094 C 285.214844 27.941406 288.496094 28.085938 291.78125 28.09375 C 293 28.128906 294.226562 28.277344 295.441406 28.078125 L 295.4375 28.195312 C 295.417969 34.566406 295.429688 40.9375 295.394531 47.308594 C 295.351562 48.550781 295.554688 49.796875 296.058594 50.941406 C 295.929688 51.003906 295.664062 51.128906 295.53125 51.191406 C 294.898438 49.921875 294.667969 48.523438 294.667969 47.113281 C 293.75 47.101562 292.832031 47.171875 291.957031 47.460938 C 291.84375 47.375 291.625 47.207031 291.515625 47.125 C 291.460938 47.328125 291.351562 47.746094 291.296875 47.953125 C 291.148438 47.527344 291.007812 47.101562 290.863281 46.679688 C 289.601562 48.441406 292.300781 50.171875 291.40625 51.882812 C 288.195312 43.984375 285.285156 35.960938 281.933594 28.121094 Z M 281.933594 28.121094 "/>
    <path style=" stroke:none;fill-rule:nonzero;fill:rgb(82.745098%,82.745098%,82.745098%);fill-opacity:1;" d="M 270.980469 42.707031 C 272.5625 38.761719 274.03125 34.761719 275.746094 30.875 C 276.308594 30.867188 276.871094 30.878906 277.433594 30.929688 C 278.988281 34.828125 280.535156 38.738281 282.097656 42.632812 C 278.398438 42.792969 274.6875 42.648438 270.980469 42.707031 Z M 270.980469 42.707031 "/>
    <path style=" stroke:none;fill-rule:nonzero;fill:rgb(10.196078%,19.215686%,36.078431%);fill-opacity:1;" d="M 212.796875 28.605469 C 218.964844 28.476562 225.128906 28.238281 231.296875 28.164062 C 231.332031 29.003906 231.371094 29.84375 231.386719 30.683594 L 231.386719 30.824219 C 225.089844 30.828125 218.792969 30.796875 212.496094 30.835938 C 210.570312 30.882812 209.996094 33.394531 210.667969 34.855469 C 211.179688 35.75 212.289062 35.878906 213.191406 36.101562 C 217.523438 36.933594 221.847656 37.785156 226.160156 38.675781 C 228.503906 39.097656 230.777344 40.488281 231.839844 42.675781 C 232.765625 44.660156 232.78125 46.980469 232.222656 49.070312 C 231.519531 51.589844 229.328125 53.535156 226.820312 54.171875 C 224.289062 54.566406 221.71875 54.261719 219.167969 54.359375 C 214.914062 54.296875 210.664062 54.371094 206.410156 54.304688 C 206.402344 52.5625 206.398438 50.820312 206.417969 49.078125 C 212.441406 49.097656 218.46875 49.074219 224.492188 49.089844 C 225.3125 49.105469 226.234375 48.953125 226.796875 48.296875 C 227.414062 47.570312 227.320312 46.550781 227.296875 45.664062 C 227.296875 44.707031 226.335938 44.085938 225.476562 43.972656 C 220.734375 42.941406 215.941406 42.140625 211.203125 41.097656 C 208.371094 40.542969 205.757812 38.296875 205.3125 35.367188 C 205.148438 33.257812 205.054688 30.964844 206.28125 29.125 C 206.347656 29.03125 206.480469 28.851562 206.546875 28.757812 C 208.632812 28.898438 210.714844 28.65625 212.796875 28.605469 Z M 212.796875 28.605469 "/>
    <path style=" stroke:none;fill-rule:nonzero;fill:rgb(9.411765%,18.431373%,34.509804%);fill-opacity:1;" d="M 295.4375 28.195312 C 297.195312 28.183594 298.953125 28.25 300.710938 28.3125 C 300.730469 34.882812 300.707031 41.457031 300.726562 48.027344 C 300.644531 48.613281 301.144531 49.164062 301.75 49.078125 C 305.253906 49.078125 308.761719 49.117188 312.265625 49.058594 C 314.460938 49.113281 316.65625 49.082031 318.855469 49.078125 C 318.882812 50.824219 318.871094 52.566406 318.863281 54.308594 C 313.058594 54.292969 307.253906 54.308594 301.453125 54.304688 C 299.167969 54.4375 297.109375 52.875 296.058594 50.941406 C 295.554688 49.796875 295.351562 48.550781 295.394531 47.308594 C 295.429688 40.9375 295.417969 34.566406 295.4375 28.195312 Z M 295.4375 28.195312 "/>
    <path style=" stroke:none;fill-rule:nonzero;fill:rgb(10.588235%,19.607843%,36.862745%);fill-opacity:1;" d="M 172.699219 30.46875 C 180.089844 30.261719 187.460938 29.597656 194.851562 29.359375 C 196.5 29.308594 198.144531 29.089844 199.789062 29.261719 C 200.855469 30.875 201.714844 32.691406 201.753906 34.660156 C 201.835938 38.003906 201.792969 41.351562 201.777344 44.691406 C 201.808594 48.511719 199.324219 52.210938 195.785156 53.640625 C 193.621094 54.660156 191.167969 54.246094 188.863281 54.335938 C 185.742188 54.273438 182.613281 54.421875 179.496094 54.226562 C 175.0625 53.550781 171.621094 49.414062 171.382812 44.992188 C 171.3125 42.101562 171.382812 39.214844 171.351562 36.328125 C 171.304688 34.410156 171.589844 32.421875 172.550781 30.734375 C 172.585938 30.671875 172.664062 30.535156 172.699219 30.46875 M 179.324219 31.132812 C 177.734375 31.878906 176.582031 33.53125 176.621094 35.316406 C 176.621094 38.433594 176.605469 41.546875 176.628906 44.664062 C 176.652344 47.046875 178.800781 49.144531 181.195312 49.082031 C 184.859375 49.082031 188.53125 49.097656 192.203125 49.074219 C 194.546875 49.097656 196.625 47 196.601562 44.667969 C 196.609375 41.550781 196.601562 38.429688 196.605469 35.3125 C 196.648438 32.972656 194.570312 30.730469 192.1875 30.824219 C 188.628906 30.8125 185.066406 30.828125 181.507812 30.816406 C 180.773438 30.835938 179.996094 30.785156 179.324219 31.132812 Z M 179.324219 31.132812 "/>
    <path style=" stroke:none;fill-rule:nonzero;fill:rgb(9.803922%,18.431373%,34.117647%);fill-opacity:1;" d="M 323.617188 29.8125 L 323.722656 29.667969 C 327.503906 30.078125 331.3125 30.167969 335.105469 30.414062 C 336.582031 30.527344 338.085938 30.425781 339.523438 30.847656 C 336.9375 30.789062 334.347656 30.839844 331.761719 30.816406 C 329.351562 30.675781 327.054688 32.90625 327.183594 35.328125 C 327.1875 38.449219 327.183594 41.566406 327.1875 44.6875 C 327.113281 47.089844 329.375 49.15625 331.746094 49.078125 C 336.320312 49.097656 340.902344 49.085938 345.480469 49.078125 C 345.488281 46.910156 345.488281 44.738281 345.480469 42.570312 C 342.339844 42.558594 339.199219 42.5625 336.058594 42.566406 C 335.992188 40.800781 336.035156 39.03125 336.03125 37.261719 C 340.910156 37.246094 345.789062 37.253906 350.671875 37.257812 C 350.683594 42.941406 350.667969 48.625 350.679688 54.308594 C 344.253906 54.351562 337.828125 54.292969 331.402344 54.304688 C 327.242188 54.398438 323.449219 51.253906 322.3125 47.320312 C 321.707031 44.027344 322.117188 40.660156 322 37.328125 C 321.886719 34.738281 322.082031 32.003906 323.617188 29.8125 Z M 323.617188 29.8125 "/>
    <path style=" stroke:none;fill-rule:nonzero;fill:rgb(80%,80%,80.392157%);fill-opacity:1;" d="M 339.523438 30.847656 C 343.242188 30.804688 346.964844 30.65625 350.6875 30.820312 C 349.234375 30.988281 347.753906 30.792969 346.328125 31.167969 C 349.160156 31.519531 352.03125 31.429688 354.875 31.71875 C 354.875 39.246094 354.890625 46.777344 354.863281 54.308594 C 356.617188 54.351562 358.378906 54.308594 360.136719 54.328125 C 360.136719 46.898438 360.136719 39.460938 360.128906 32.027344 C 361.710938 32.1875 363.296875 32.300781 364.878906 32.5 C 364.871094 37.441406 364.859375 42.378906 364.882812 47.320312 C 364.914062 51.039062 368.292969 54.457031 372.054688 54.308594 C 378.238281 54.375 384.429688 54.289062 390.621094 54.328125 C 390.621094 52.582031 390.621094 50.832031 390.621094 49.082031 C 384.550781 49.078125 378.480469 49.09375 372.402344 49.082031 C 371.238281 49.167969 370.101562 48.195312 370.066406 47.019531 C 370.003906 45.539062 370.121094 44.058594 370.015625 42.578125 C 376.503906 42.570312 382.988281 42.535156 389.472656 42.597656 C 389.554688 40.816406 389.5 39.035156 389.507812 37.253906 C 383.023438 37.246094 376.539062 37.257812 370.054688 37.246094 C 369.984375 35.800781 370.136719 34.351562 370.039062 32.902344 C 378.140625 33.714844 386.28125 34.191406 394.351562 35.332031 C 398.519531 35.816406 402.699219 36.316406 406.808594 37.207031 C 410.144531 38.070312 413.5625 39.148438 416.234375 41.425781 C 417.683594 42.582031 418.621094 44.210938 419.488281 45.816406 C 420.011719 47.507812 420.859375 49.082031 421.261719 50.8125 C 420.78125 52.050781 421.117188 53.382812 421.046875 54.667969 C 420.933594 57.019531 421.15625 59.386719 420.726562 61.71875 C 420.367188 62.238281 419.949219 62.707031 419.539062 63.183594 C 390.28125 63.191406 361.023438 63.203125 331.761719 63.246094 C 302.335938 63.25 272.921875 63.445312 243.5 63.445312 C 239.769531 63.355469 236.023438 63.636719 232.300781 63.292969 C 233.28125 62.738281 234.425781 62.949219 235.5 62.933594 C 240.488281 62.949219 245.472656 62.933594 250.464844 62.921875 C 251.695312 62.917969 252.945312 62.960938 254.160156 62.71875 C 254.996094 62.578125 255.664062 62.007812 256.453125 61.738281 C 257.160156 61.777344 257.703125 62.289062 258.273438 62.660156 C 258.257812 62.378906 258.246094 62.105469 258.238281 61.828125 C 259.105469 61.785156 259.980469 61.859375 260.847656 61.75 C 261.691406 61.660156 262.269531 60.878906 263.132812 60.828125 C 263.664062 60.785156 264.058594 60.40625 264.464844 60.105469 C 264.578125 60.183594 264.796875 60.332031 264.90625 60.40625 C 265.777344 60.132812 266.703125 60.136719 267.609375 60.226562 C 267.59375 59.933594 267.585938 59.644531 267.578125 59.351562 C 267.945312 59.515625 268.316406 59.683594 268.691406 59.851562 C 268.78125 59.347656 268.871094 58.839844 268.964844 58.335938 C 269.054688 58.757812 269.144531 59.179688 269.234375 59.605469 C 269.535156 59.3125 269.835938 59.019531 270.140625 58.730469 C 270.640625 58.671875 271.144531 58.613281 271.652344 58.558594 C 271.847656 57.835938 272.054688 57.117188 272.273438 56.398438 C 272.742188 57.117188 273.371094 57.808594 273.394531 58.71875 C 273.742188 58.394531 274.09375 58.070312 274.449219 57.742188 C 274.722656 57.871094 274.996094 58.003906 275.277344 58.132812 C 276.023438 57.835938 276.738281 57.464844 277.433594 57.066406 C 277.726562 57.199219 278.007812 57.355469 278.308594 57.488281 C 278.820312 57.054688 279.421875 56.75 280.054688 56.523438 C 280.082031 56.679688 280.132812 57 280.15625 57.15625 C 280.53125 57.027344 280.914062 56.898438 281.296875 56.773438 C 281.488281 56.351562 281.679688 55.9375 281.871094 55.515625 C 282.433594 55.835938 282.988281 56.304688 283.679688 56.257812 C 284.15625 55.859375 284.394531 55.273438 284.699219 54.75 C 285.335938 55.535156 286.105469 54.800781 286.675781 54.351562 C 288.554688 54.257812 290.441406 54.316406 292.324219 54.320312 C 292.015625 53.507812 291.699219 52.699219 291.40625 51.882812 C 292.300781 50.171875 289.601562 48.441406 290.863281 46.679688 C 291.007812 47.101562 291.148438 47.527344 291.296875 47.953125 C 291.351562 47.746094 291.460938 47.328125 291.515625 47.125 C 291.625 47.207031 291.84375 47.375 291.957031 47.460938 C 292.832031 47.171875 293.75 47.101562 294.667969 47.113281 C 294.667969 48.523438 294.898438 49.921875 295.53125 51.191406 C 295.664062 51.128906 295.929688 51.003906 296.058594 50.941406 C 297.109375 52.875 299.167969 54.4375 301.453125 54.304688 C 307.253906 54.308594 313.058594 54.292969 318.863281 54.308594 C 318.871094 52.566406 318.882812 50.824219 318.855469 49.078125 C 316.65625 49.082031 314.460938 49.113281 312.265625 49.058594 C 314.304688 48.160156 316.652344 49.035156 318.804688 48.53125 C 316.375 48.039062 313.863281 48.515625 311.40625 48.238281 C 311.804688 47.855469 312.324219 47.679688 312.839844 47.515625 C 312.824219 46.941406 313.070312 46.441406 313.464844 46.03125 C 313.617188 46.296875 313.761719 46.5625 313.917969 46.832031 C 314.214844 46.480469 314.550781 46.15625 314.964844 45.933594 C 314.816406 46.300781 314.667969 46.660156 314.519531 47.023438 C 315.195312 47.082031 315.949219 46.953125 316.023438 46.148438 C 316.667969 45.921875 317.28125 45.617188 317.847656 45.222656 C 317.972656 45.285156 318.21875 45.414062 318.34375 45.480469 C 319.023438 45.078125 319.640625 44.464844 320.511719 44.699219 C 320.554688 44.828125 320.632812 45.085938 320.675781 45.214844 C 320.882812 45.210938 321.097656 45.203125 321.3125 45.191406 C 321.429688 45.988281 321.589844 46.773438 321.800781 47.546875 C 321.933594 47.488281 322.183594 47.375 322.3125 47.320312 C 323.449219 51.253906 327.242188 54.398438 331.402344 54.304688 C 337.828125 54.292969 344.253906 54.351562 350.679688 54.308594 C 350.667969 48.625 350.683594 42.941406 350.671875 37.257812 C 345.789062 37.253906 340.910156 37.246094 336.03125 37.261719 C 336.035156 39.03125 335.992188 40.800781 336.058594 42.566406 C 339.199219 42.5625 342.339844 42.558594 345.480469 42.570312 C 345.488281 44.738281 345.488281 46.910156 345.480469 49.078125 C 340.902344 49.085938 336.320312 49.097656 331.746094 49.078125 C 329.375 49.15625 327.113281 47.089844 327.1875 44.6875 C 327.183594 41.566406 327.1875 38.449219 327.183594 35.328125 C 327.054688 32.90625 329.351562 30.675781 331.761719 30.816406 C 334.347656 30.839844 336.9375 30.789062 339.523438 30.847656 Z M 339.523438 30.847656 "/>
    <path style=" stroke:none;fill-rule:nonzero;fill:rgb(10.980392%,20%,37.647059%);fill-opacity:1;" d="M 161.785156 31.386719 C 163.527344 31.148438 165.285156 31.035156 167.042969 30.941406 C 167.054688 37.746094 167.042969 44.550781 167.054688 51.351562 C 167.0625 52.105469 166.96875 52.964844 166.378906 53.507812 C 165.457031 54.546875 163.585938 54.65625 162.65625 53.574219 C 161.660156 52.621094 160.734375 51.589844 159.765625 50.613281 C 154.578125 45.328125 149.464844 39.972656 144.289062 34.679688 C 144.296875 41.21875 144.289062 47.761719 144.300781 54.304688 C 142.535156 54.445312 140.769531 54.308594 139.003906 54.292969 C 139.011719 47.277344 139.007812 40.261719 139.007812 33.25 C 142.421875 32.898438 145.835938 32.535156 149.253906 32.242188 L 149.476562 32.464844 C 153.582031 36.6875 157.679688 40.921875 161.769531 45.160156 C 161.796875 40.566406 161.773438 35.976562 161.785156 31.386719 Z M 161.785156 31.386719 "/>
    <path style=" stroke:none;fill-rule:nonzero;fill:rgb(85.098039%,85.098039%,85.098039%);fill-opacity:1;" d="M 179.324219 31.132812 C 179.996094 30.785156 180.773438 30.835938 181.507812 30.816406 C 185.066406 30.828125 188.628906 30.8125 192.1875 30.824219 C 194.570312 30.730469 196.648438 32.972656 196.605469 35.3125 C 196.601562 38.429688 196.609375 41.550781 196.601562 44.667969 C 196.625 47 194.546875 49.097656 192.203125 49.074219 C 188.53125 49.097656 184.859375 49.082031 181.195312 49.082031 C 178.800781 49.144531 176.652344 47.046875 176.628906 44.664062 C 176.605469 41.546875 176.621094 38.433594 176.621094 35.316406 C 176.582031 33.53125 177.734375 31.878906 179.324219 31.132812 Z M 179.324219 31.132812 "/>
    <path style=" stroke:none;fill-rule:nonzero;fill:rgb(86.27451%,86.27451%,86.27451%);fill-opacity:1;" d="M 149.476562 32.464844 C 153.539062 31.730469 157.6875 31.796875 161.785156 31.386719 C 161.773438 35.976562 161.796875 40.566406 161.769531 45.160156 C 157.679688 40.921875 153.582031 36.6875 149.476562 32.464844 Z M 149.476562 32.464844 "/>
    <path style=" stroke:none;fill-rule:nonzero;fill:rgb(9.803922%,18.039216%,34.117647%);fill-opacity:1;" d="M 354.875 31.71875 C 356.628906 31.761719 358.382812 31.832031 360.128906 32.027344 C 360.136719 39.460938 360.136719 46.898438 360.136719 54.328125 C 358.378906 54.308594 356.617188 54.351562 354.863281 54.308594 C 354.890625 46.777344 354.875 39.246094 354.875 31.71875 Z M 354.875 31.71875 "/>
    <path style=" stroke:none;fill-rule:nonzero;fill:rgb(9.803922%,18.039216%,33.72549%);fill-opacity:1;" d="M 364.878906 32.5 L 364.882812 32.390625 C 366.605469 32.5 368.324219 32.679688 370.039062 32.902344 C 370.136719 34.351562 369.984375 35.800781 370.054688 37.246094 C 376.539062 37.257812 383.023438 37.246094 389.507812 37.253906 C 389.5 39.035156 389.554688 40.816406 389.472656 42.597656 C 382.988281 42.535156 376.503906 42.570312 370.015625 42.578125 C 370.121094 44.058594 370.003906 45.539062 370.066406 47.019531 C 370.101562 48.195312 371.238281 49.167969 372.402344 49.082031 C 378.480469 49.09375 384.550781 49.078125 390.621094 49.082031 C 390.621094 50.832031 390.621094 52.582031 390.621094 54.328125 C 384.429688 54.289062 378.238281 54.375 372.054688 54.308594 C 368.292969 54.457031 364.914062 51.039062 364.882812 47.320312 C 364.859375 42.378906 364.871094 37.441406 364.878906 32.5 Z M 364.878906 32.5 "/>
    <path style=" stroke:none;fill-rule:nonzero;fill:rgb(86.27451%,85.882353%,86.27451%);fill-opacity:1;" d="M 122.578125 34.714844 C 128.050781 34.15625 133.539062 33.828125 139.007812 33.25 C 139.007812 40.261719 139.011719 47.277344 139.003906 54.292969 C 140.769531 54.308594 142.535156 54.445312 144.300781 54.304688 C 144.289062 47.761719 144.296875 41.21875 144.289062 34.679688 C 149.464844 39.972656 154.578125 45.328125 159.765625 50.613281 C 158.996094 50.730469 158.257812 50.972656 157.667969 51.488281 C 157.335938 51.253906 157.003906 51.019531 156.679688 50.78125 C 156.492188 51.480469 156.304688 52.355469 155.503906 52.582031 C 154.78125 52.625 154.066406 52.46875 153.34375 52.417969 C 153.355469 52.71875 153.367188 53.019531 153.378906 53.320312 C 153.105469 53.148438 152.84375 52.957031 152.574219 52.785156 C 151.988281 53.082031 151.390625 53.351562 150.789062 53.605469 C 150.550781 54.015625 150.320312 54.425781 150.09375 54.84375 C 149.617188 54.71875 149.140625 54.597656 148.664062 54.476562 C 148.414062 54.714844 148.171875 54.957031 147.921875 55.191406 C 147.003906 54.902344 146.214844 55.421875 145.390625 55.714844 C 144.621094 55.71875 143.804688 55.601562 143.226562 56.21875 C 143.039062 56.101562 142.855469 55.988281 142.675781 55.875 C 142.410156 56.199219 142.140625 56.527344 141.878906 56.855469 C 141.703125 56.753906 141.535156 56.65625 141.367188 56.558594 C 141.132812 56.734375 140.96875 57.046875 140.660156 57.09375 C 139.519531 57.28125 138.335938 57.582031 137.472656 58.40625 C 135.835938 57.890625 134.566406 59.847656 132.964844 59.449219 C 131.546875 60.265625 129.820312 60.308594 128.496094 61.300781 C 128.253906 61.578125 127.972656 61.386719 127.714844 61.261719 C 127.183594 61.625 126.585938 61.566406 126.046875 61.261719 C 125.617188 61.660156 125.105469 61.941406 124.570312 62.175781 C 124.109375 63.035156 122.988281 62.691406 122.363281 62.214844 C 122.042969 62.523438 121.777344 63.019531 121.253906 62.953125 C 119.207031 63 117.160156 62.90625 115.113281 62.996094 C 115.136719 53.8125 115.070312 44.625 115.132812 35.441406 C 117.621094 35.234375 120.078125 34.738281 122.578125 34.714844 Z M 122.578125 34.714844 "/>
    <path style=" stroke:none;fill-rule:nonzero;fill:rgb(40.784314%,49.803922%,71.764706%);fill-opacity:1;" d="M 65.648438 39.027344 C 67.324219 37.339844 68.851562 35.511719 70.546875 33.847656 C 71.933594 35.984375 73.363281 38.097656 74.769531 40.222656 C 71.902344 40.910156 68.910156 40.949219 66.074219 41.785156 C 65.695312 41.199219 65.28125 40.628906 64.96875 40 C 64.996094 39.578125 65.417969 39.339844 65.648438 39.027344 Z M 65.648438 39.027344 "/>
    <path style=" stroke:none;fill-rule:nonzero;fill:rgb(57.647059%,57.647059%,57.647059%);fill-opacity:1;" d="M 110.457031 35.777344 C 112.015625 35.671875 113.574219 35.488281 115.132812 35.441406 C 115.070312 44.625 115.136719 53.8125 115.113281 62.996094 L 115.105469 63.46875 L 115.105469 63.777344 C 115.03125 63.632812 114.882812 63.351562 114.808594 63.207031 C 113.394531 63.636719 111.910156 63.496094 110.457031 63.445312 C 110.476562 54.238281 110.4375 45.035156 110.457031 35.828125 Z M 110.457031 35.777344 "/>
    <path style=" stroke:none;fill-rule:nonzero;fill:rgb(57.647059%,57.647059%,57.647059%);fill-opacity:1;" d="M 417.363281 68.40625 C 418.375 68.234375 419.328125 67.796875 420.34375 67.621094 L 420.765625 67.660156 C 420.667969 67.851562 420.480469 68.238281 420.382812 68.425781 C 415.863281 69.167969 411.261719 69.125 406.695312 69.085938 C 278.570312 69.09375 150.445312 69.078125 22.320312 69.09375 C 19.929688 69.261719 17.558594 68.746094 15.175781 68.875 L 15.421875 69.210938 C 20.828125 69.511719 26.246094 69.210938 31.664062 69.277344 C 145.339844 69.28125 259.015625 69.273438 372.691406 69.28125 C 386.234375 69.328125 399.78125 69.171875 413.320312 69.378906 C 414.777344 69.28125 416.246094 69.164062 417.707031 69.339844 C 414.605469 69.628906 411.480469 69.515625 408.367188 69.53125 C 279.019531 69.535156 149.664062 69.53125 20.3125 69.535156 C 17.851562 69.550781 15.402344 69.402344 12.96875 69.070312 C 13.554688 69.09375 14.140625 69.101562 14.730469 69.078125 L 15.007812 68.703125 C 15.125 68.585938 15.363281 68.355469 15.476562 68.242188 C 21.863281 68.351562 28.257812 68.074219 34.636719 68.4375 C 40.625 68.363281 46.628906 68.597656 52.609375 68.25 C 170.75 68.253906 288.890625 68.238281 407.03125 68.257812 C 410.472656 68.320312 413.929688 68.105469 417.363281 68.40625 Z M 417.363281 68.40625 "/>
    <path style=" stroke:none;fill-rule:nonzero;fill:rgb(11.764706%,18.039216%,39.215686%);fill-opacity:1;" d="M 95.515625 37.328125 C 100.503906 36.890625 105.46875 36.242188 110.457031 35.828125 C 110.4375 45.035156 110.476562 54.238281 110.457031 63.445312 C 110.457031 63.671875 110.457031 64.121094 110.457031 64.347656 C 110.382812 64.21875 110.234375 63.964844 110.160156 63.835938 C 109.414062 63.890625 108.664062 63.933594 107.917969 63.941406 C 100.03125 63.941406 92.140625 63.921875 84.25 63.941406 C 83.726562 63.988281 83.257812 63.773438 82.847656 63.46875 C 83.171875 63.175781 83.523438 62.878906 83.71875 62.476562 C 87.65625 54.097656 91.550781 45.695312 95.515625 37.328125 Z M 95.515625 37.328125 "/>
    <path style=" stroke:none;fill-rule:nonzero;fill:rgb(11.764706%,18.431373%,40.392157%);fill-opacity:1;" d="M 82.777344 39.214844 C 84.308594 38.875 85.875 38.757812 87.425781 38.570312 C 86.707031 40.160156 86.015625 41.761719 85.34375 43.375 C 84.351562 42.214844 83.714844 40.800781 82.84375 39.554688 Z M 82.777344 39.214844 "/>
    <path style=" stroke:none;fill-rule:nonzero;fill:rgb(40.784314%,49.803922%,72.156863%);fill-opacity:1;" d="M 55.683594 39.578125 C 56.625 40.585938 57.296875 41.796875 58.09375 42.910156 C 57.292969 43.097656 56.484375 43.214844 55.671875 43.308594 C 55.679688 42.0625 55.652344 40.820312 55.683594 39.578125 Z M 55.683594 39.578125 "/>
    <path style=" stroke:none;fill-rule:nonzero;fill:rgb(11.764706%,18.039216%,40%);fill-opacity:1;" d="M 66.074219 41.785156 C 68.910156 40.949219 71.902344 40.910156 74.769531 40.222656 C 77.148438 43.707031 79.390625 47.28125 81.816406 50.722656 C 80.097656 54.261719 78.351562 57.785156 76.632812 61.328125 C 76.339844 61.859375 76.351562 62.480469 76.519531 63.054688 C 75.421875 63.664062 74.144531 63.421875 72.953125 63.460938 C 54.078125 63.457031 35.207031 63.433594 16.335938 63.464844 C 13.828125 63.660156 11.378906 62.980469 9.066406 62.085938 C 9.503906 59.199219 11.472656 56.8125 13.601562 54.941406 C 16.148438 52.839844 19.039062 51.144531 22.117188 49.949219 C 22.152344 50.976562 22.007812 52.035156 22.269531 53.035156 C 22.535156 53.558594 23.144531 53.453125 23.632812 53.484375 C 28.074219 53.464844 32.515625 53.496094 36.957031 53.464844 C 39.738281 53.394531 42.800781 52.535156 44.542969 50.210938 C 45.699219 48.746094 45.953125 46.796875 45.871094 44.984375 C 46.5 44.921875 47.132812 44.855469 47.761719 44.796875 C 47.773438 47.203125 47.761719 49.613281 47.761719 52.019531 C 47.6875 52.707031 48.15625 53.570312 48.945312 53.46875 C 50.386719 53.488281 51.835938 53.503906 53.277344 53.453125 C 54.65625 53.378906 55.707031 52.027344 55.65625 50.6875 C 55.683594 48.226562 55.648438 45.765625 55.671875 43.308594 C 56.484375 43.214844 57.292969 43.097656 58.09375 42.910156 C 59.867188 45.453125 61.601562 48.023438 63.371094 50.574219 C 64.0625 51.550781 64.632812 52.679688 65.644531 53.382812 C 67.617188 53.589844 69.625 53.441406 71.613281 53.464844 C 72.269531 53.542969 72.890625 52.96875 72.917969 52.320312 C 72.789062 51.839844 72.5 51.425781 72.238281 51.011719 C 70.164062 47.953125 68.148438 44.851562 66.074219 41.785156 Z M 66.074219 41.785156 "/>
    <path style=" stroke:none;fill-rule:nonzero;fill:rgb(44.313725%,43.137255%,43.137255%);fill-opacity:1;" d="M 425.835938 45.320312 C 425.957031 46.996094 425.871094 48.679688 425.941406 50.359375 C 425.9375 50.804688 426.085938 51.195312 426.386719 51.535156 C 426.308594 54.238281 426.390625 56.9375 426.359375 59.636719 C 426.140625 62.648438 425.203125 65.785156 422.882812 67.851562 L 422.761719 67.863281 C 421.933594 67.898438 421.179688 68.261719 420.382812 68.425781 C 420.480469 68.238281 420.667969 67.851562 420.765625 67.660156 L 420.34375 67.621094 C 421.460938 67.601562 422.703125 67.382812 423.164062 66.191406 C 422.046875 66.378906 421.074219 67.113281 419.890625 66.8125 C 422.167969 65.546875 423.289062 62.921875 423.527344 60.425781 C 423.628906 59.613281 423.726562 58.804688 423.835938 57.992188 C 423.9375 59.445312 424.421875 60.867188 424.375 62.324219 C 424.332031 63.824219 423.070312 64.773438 422.476562 66.042969 C 424.214844 64.671875 424.691406 62.261719 424.875 60.160156 C 425.136719 59.699219 425.429688 59.234375 425.417969 58.679688 C 425.640625 56.5625 425.308594 54.421875 425.660156 52.316406 C 425.933594 49.996094 425.65625 47.648438 425.835938 45.320312 Z M 425.835938 45.320312 "/>
    <path style=" stroke:none;fill-rule:nonzero;fill:rgb(24.705882%,31.372549%,51.372549%);fill-opacity:1;" d="M 34.796875 47.042969 C 35.800781 46.703125 36.941406 46.121094 37.992188 46.601562 C 37.066406 47.292969 35.863281 47.019531 34.796875 47.042969 Z M 34.796875 47.042969 "/>
    <path style=" stroke:none;fill-rule:nonzero;fill:rgb(73.72549%,73.72549%,73.72549%);fill-opacity:1;" d="M 421.046875 54.667969 C 421.117188 53.382812 420.78125 52.050781 421.261719 50.8125 C 421.796875 52.242188 422.242188 53.710938 422.882812 55.101562 C 422.898438 56.839844 422.972656 58.585938 422.84375 60.324219 C 422.585938 61.808594 421.988281 63.242188 421.101562 64.464844 C 421.21875 63.089844 421.359375 61.714844 421.632812 60.367188 C 421.332031 60.820312 421.035156 61.273438 420.726562 61.71875 C 421.15625 59.386719 420.933594 57.019531 421.046875 54.667969 Z M 421.046875 54.667969 "/>
    <path style=" stroke:none;fill-rule:nonzero;fill:rgb(69.411765%,69.411765%,69.411765%);fill-opacity:1;" d="M 420.726562 61.71875 C 421.035156 61.273438 421.332031 60.820312 421.632812 60.367188 C 421.359375 61.714844 421.21875 63.089844 421.101562 64.464844 C 420.757812 64.945312 420.363281 65.386719 419.960938 65.8125 C 419.542969 65.253906 419.230469 64.277344 418.351562 64.429688 C 412.914062 64.449219 407.472656 64.40625 402.039062 64.441406 C 398.382812 64.933594 394.695312 64.46875 391.03125 64.714844 C 384.476562 64.632812 377.925781 64.660156 371.375 64.71875 C 286.660156 64.714844 201.945312 64.734375 117.230469 64.753906 C 116.53125 64.761719 115.835938 64.851562 115.144531 64.953125 C 115.132812 64.558594 115.117188 64.167969 115.105469 63.777344 L 115.105469 63.46875 C 126.089844 63.503906 137.078125 63.554688 148.058594 63.425781 C 155.777344 63.570312 163.492188 63.445312 171.214844 63.480469 C 190.082031 63.488281 208.957031 63.441406 227.828125 63.425781 C 229.320312 63.417969 230.820312 63.488281 232.300781 63.292969 C 236.023438 63.636719 239.769531 63.355469 243.5 63.445312 C 272.921875 63.445312 302.335938 63.25 331.761719 63.246094 C 361.023438 63.203125 390.28125 63.191406 419.539062 63.183594 C 419.949219 62.707031 420.367188 62.238281 420.726562 61.71875 Z M 420.726562 61.71875 "/>
    <path style=" stroke:none;fill-rule:nonzero;fill:rgb(41.568627%,40.392157%,40.392157%);fill-opacity:1;" d="M 7.367188 61.027344 C 7.730469 61.617188 8.105469 62.199219 8.492188 62.777344 C 8.652344 63.230469 8.8125 63.683594 8.996094 64.128906 C 8.242188 64.578125 9.203125 65.335938 9.460938 65.820312 C 10.105469 66.914062 11.246094 67.421875 12.449219 67.625 C 12.503906 67.824219 12.546875 68.027344 12.585938 68.234375 C 11.683594 68.171875 10.8125 67.941406 9.953125 67.675781 L 9.765625 67.621094 L 9.734375 67.289062 C 9.722656 66.890625 9.515625 66.652344 9.117188 66.582031 L 8.863281 66.519531 C 8.21875 65.511719 7.617188 64.46875 7.292969 63.3125 C 7.242188 62.550781 7.292969 61.785156 7.367188 61.027344 Z M 7.367188 61.027344 "/>
    <path style=" stroke:none;fill-rule:nonzero;fill:rgb(41.960784%,40%,41.176471%);fill-opacity:1;" d="M 8.957031 61.839844 L 9.066406 62.085938 C 9.429688 62.863281 9.785156 63.65625 10.34375 64.320312 C 11.242188 65.441406 12.449219 66.277344 13.78125 66.804688 C 12.980469 66.957031 12.085938 67.082031 11.359375 66.628906 C 10.3125 65.96875 10.203125 64.464844 9.054688 63.921875 C 8.824219 63.246094 8.859375 62.535156 8.957031 61.839844 Z M 8.957031 61.839844 "/>
    <path style=" stroke:none;fill-rule:nonzero;fill:rgb(9.803922%,13.333333%,25.882353%);fill-opacity:1;" d="M 9.066406 62.085938 C 11.378906 62.980469 13.828125 63.660156 16.335938 63.464844 C 35.207031 63.433594 54.078125 63.457031 72.953125 63.460938 C 74.144531 63.421875 75.421875 63.664062 76.519531 63.054688 C 76.828125 63.308594 77.179688 63.519531 77.605469 63.480469 C 79.351562 63.503906 81.101562 63.488281 82.847656 63.46875 C 83.257812 63.773438 83.726562 63.988281 84.25 63.941406 C 92.140625 63.921875 100.03125 63.941406 107.917969 63.941406 C 108.664062 63.933594 109.414062 63.890625 110.160156 63.835938 C 110.234375 63.964844 110.382812 64.21875 110.457031 64.347656 C 110.476562 64.609375 110.523438 65.144531 110.546875 65.40625 C 110.609375 66.078125 110.65625 66.75 110.703125 67.421875 C 104.117188 67.464844 97.527344 67.445312 90.941406 67.441406 C 89.269531 67.460938 87.605469 67.191406 85.933594 67.207031 C 81.71875 67.210938 77.507812 66.820312 73.292969 67.011719 C 62.851562 67.078125 52.410156 67.042969 41.972656 67.191406 C 38.527344 67.171875 35.078125 67.179688 31.640625 67.359375 C 27.976562 67.375 24.316406 67.40625 20.652344 67.382812 C 18.757812 67.351562 16.832031 67.632812 14.972656 67.199219 C 15.21875 67.125 15.714844 66.972656 15.964844 66.898438 C 14.953125 66.285156 13.886719 65.753906 12.921875 65.058594 C 12.175781 64.554688 11.28125 63.976562 10.34375 64.320312 C 9.785156 63.65625 9.429688 62.863281 9.066406 62.085938 Z M 9.066406 62.085938 "/>
    <path style=" stroke:none;fill-rule:nonzero;fill:rgb(43.137255%,43.137255%,43.137255%);fill-opacity:1;" d="M 110.457031 63.445312 C 111.910156 63.496094 113.394531 63.636719 114.808594 63.207031 C 114.882812 63.351562 115.03125 63.632812 115.105469 63.777344 C 115.117188 64.167969 115.132812 64.558594 115.144531 64.953125 C 115.152344 65.101562 115.160156 65.394531 115.167969 65.539062 C 113.632812 65.664062 112.011719 66.097656 110.546875 65.40625 C 110.523438 65.144531 110.476562 64.609375 110.457031 64.347656 C 110.457031 64.121094 110.457031 63.671875 110.457031 63.445312 Z M 110.457031 63.445312 "/>
    <path style=" stroke:none;fill-rule:nonzero;fill:rgb(8.627451%,9.411765%,15.294118%);fill-opacity:1;" d="M 10.34375 64.320312 C 11.28125 63.976562 12.175781 64.554688 12.921875 65.058594 C 13.886719 65.753906 14.953125 66.285156 15.964844 66.898438 C 15.714844 66.972656 15.21875 67.125 14.972656 67.199219 C 14.570312 67.074219 14.171875 66.945312 13.78125 66.804688 C 12.449219 66.277344 11.242188 65.441406 10.34375 64.320312 Z M 10.34375 64.320312 "/>
    <path style=" stroke:none;fill-rule:nonzero;fill:rgb(8.627451%,9.411765%,15.294118%);fill-opacity:1;" d="M 420.382812 68.425781 C 421.179688 68.261719 421.933594 67.898438 422.761719 67.863281 C 421.996094 68.515625 421 69.132812 419.957031 68.929688 C 419.371094 68.800781 418.691406 68.722656 418.230469 69.175781 C 418.101562 69.214844 417.839844 69.300781 417.707031 69.339844 C 416.246094 69.164062 414.777344 69.28125 413.320312 69.378906 C 399.78125 69.171875 386.234375 69.328125 372.691406 69.28125 C 259.015625 69.273438 145.339844 69.28125 31.664062 69.277344 C 26.246094 69.210938 20.828125 69.511719 15.421875 69.210938 L 15.175781 68.875 C 17.558594 68.746094 19.929688 69.261719 22.320312 69.09375 C 150.445312 69.078125 278.570312 69.09375 406.695312 69.085938 C 411.261719 69.125 415.863281 69.167969 420.382812 68.425781 Z M 420.382812 68.425781 "/>
    <path style=" stroke:none;fill-rule:nonzero;fill:rgb(60%,60.392157%,60.784314%);fill-opacity:1;" d="M 391.03125 64.714844 C 394.695312 64.46875 398.382812 64.933594 402.039062 64.441406 C 407.472656 64.40625 412.914062 64.449219 418.351562 64.429688 C 419.230469 64.277344 419.542969 65.253906 419.960938 65.8125 C 419.597656 66.175781 419.203125 66.519531 418.707031 66.675781 C 415.484375 66.367188 412.234375 66.625 408.996094 66.539062 C 384.132812 66.492188 359.269531 66.734375 334.40625 66.761719 C 334.050781 66.785156 333.699219 66.835938 333.355469 66.914062 C 334.804688 67.171875 336.28125 67.058594 337.746094 67.074219 C 344.957031 67.109375 352.167969 67.085938 359.378906 67.125 C 361.859375 67.1875 364.347656 66.988281 366.8125 67.277344 C 356.792969 67.40625 346.761719 67.296875 336.738281 67.332031 C 263.128906 67.355469 189.519531 67.273438 115.910156 67.261719 C 115.058594 67.300781 115.339844 66.070312 115.167969 65.539062 C 115.160156 65.394531 115.152344 65.101562 115.144531 64.953125 C 115.835938 64.851562 116.53125 64.761719 117.230469 64.753906 C 201.945312 64.734375 286.660156 64.714844 371.375 64.71875 C 377.925781 64.660156 384.476562 64.632812 391.03125 64.714844 Z M 391.03125 64.714844 "/>
    <path style=" stroke:none;fill-rule:nonzero;fill:rgb(29.803922%,29.019608%,29.411765%);fill-opacity:0.678431;" d="M 9.117188 66.582031 C 9.515625 66.652344 9.722656 66.890625 9.734375 67.289062 C 9.21875 67.339844 9.011719 67.101562 9.117188 66.582031 Z M 9.117188 66.582031 "/>
    <path style=" stroke:none;fill-rule:nonzero;fill:rgb(25.882353%,25.098039%,25.490196%);fill-opacity:0.858824;" d="M 9.953125 67.675781 C 10.8125 67.941406 11.683594 68.171875 12.585938 68.234375 C 13.390625 68.414062 14.179688 68.671875 15.007812 68.703125 L 14.730469 69.078125 C 14.140625 69.101562 13.554688 69.09375 12.96875 69.070312 C 11.832031 69.027344 10.75 68.480469 9.953125 67.675781 Z M 9.953125 67.675781 "/>
  </g>
</svg>