<?xml version="1.0" encoding="UTF-8" ?>
<!DOCTYPE svg PUBLIC "-//W3C//DTD SVG 1.1//EN" "http://www.w3.org/Graphics/SVG/1.1/DTD/svg11.dtd">
<svg width="308pt" height="323pt" viewBox="0 0 308 323" version="1.1" xmlns="http://www.w3.org/2000/svg">
<g id="#ffffffff">
</g>
<g id="#ef4a4eff">
<path fill="#ef4a4e" opacity="1.00" d=" M 121.00 8.82 C 150.98 0.25 183.92 2.09 212.58 14.44 C 238.91 25.68 261.65 45.88 274.51 71.60 C 285.77 93.76 289.08 119.82 283.64 144.08 C 281.52 154.16 277.24 164.53 268.54 170.66 C 257.76 178.41 243.89 179.31 231.05 179.55 C 213.35 179.67 195.65 179.42 177.94 179.50 C 174.49 179.54 170.38 178.62 168.77 175.20 C 167.64 172.19 168.06 168.84 168.74 165.77 C 174.94 142.94 180.98 120.06 187.16 97.22 C 187.74 95.04 188.19 92.30 186.40 90.55 C 183.90 88.23 180.18 88.57 177.03 88.49 C 170.03 88.66 163.02 88.23 156.04 88.71 C 152.02 88.97 149.21 92.44 148.37 96.14 C 141.54 121.17 134.95 146.26 128.16 171.30 C 112.54 171.33 96.92 171.32 81.30 171.31 C 89.67 140.56 97.87 109.78 106.02 78.97 C 107.73 74.37 103.94 70.19 100.05 68.32 C 136.40 68.41 172.74 68.32 209.09 68.37 C 216.71 68.52 225.23 70.50 229.93 77.03 C 235.01 84.24 234.17 93.72 232.53 101.92 C 227.76 120.81 222.40 139.56 217.63 158.45 C 216.87 161.39 216.79 165.56 220.14 166.91 C 228.69 169.18 237.84 168.41 246.43 166.64 C 252.38 165.52 257.25 161.03 259.65 155.59 C 267.06 138.22 268.63 118.49 264.34 100.12 C 259.39 78.13 245.98 58.48 228.22 44.78 C 208.62 29.57 183.80 21.42 159.02 21.50 C 133.05 21.38 106.98 30.29 86.95 46.92 C 69.04 61.60 56.09 82.64 52.41 105.61 C 48.75 126.86 53.15 149.29 64.22 167.76 C 77.57 190.41 100.07 207.09 125.14 214.63 C 150.27 222.42 177.95 220.98 202.33 211.20 C 205.30 210.07 208.13 208.57 211.16 207.60 C 213.15 207.03 215.88 206.77 217.23 208.71 C 219.31 211.69 221.16 214.85 222.72 218.13 C 223.72 221.16 220.51 223.01 218.26 224.16 C 195.22 234.97 169.23 239.62 143.90 236.78 C 114.09 233.60 85.23 220.29 64.27 198.72 C 46.34 180.57 34.39 156.31 32.16 130.80 C 29.83 107.53 35.47 83.63 47.68 63.71 C 63.91 36.90 90.99 17.36 121.00 8.82 Z" />
<path fill="#ef4a4e" opacity="1.00" d=" M 3.19 317.52 C 7.83 300.99 12.00 284.34 16.63 267.81 C 34.10 267.86 51.57 267.78 69.04 267.84 C 72.95 267.94 77.55 268.72 79.73 272.39 C 82.05 276.61 80.92 281.62 79.82 286.03 C 76.92 296.52 74.29 307.07 71.35 317.54 C 63.41 317.50 55.48 317.56 47.54 317.51 C 50.92 305.72 53.90 293.81 57.17 281.98 C 57.99 279.75 57.89 276.41 54.98 275.91 C 50.67 275.47 46.31 275.60 41.99 275.80 C 39.22 275.95 37.34 278.43 36.83 280.97 C 33.47 293.15 30.43 305.42 26.91 317.55 C 19.00 317.50 11.10 317.56 3.19 317.52 Z" />
<path fill="#ef4a4e" opacity="1.00" d=" M 107.18 268.16 C 119.41 267.40 131.71 268.03 143.96 267.83 C 149.25 267.99 154.76 267.19 159.84 269.02 C 162.82 270.38 163.68 274.00 163.09 276.98 C 161.99 283.80 159.68 290.34 158.06 297.05 C 156.52 302.23 155.71 307.89 152.35 312.30 C 149.55 316.10 144.63 317.58 140.08 317.54 C 125.03 317.51 109.98 317.55 94.93 317.52 C 91.77 317.48 87.77 316.41 86.91 312.90 C 86.00 308.67 87.59 304.44 88.58 300.36 C 90.75 292.96 92.32 285.38 94.83 278.09 C 96.64 272.76 101.45 268.52 107.18 268.16 M 120.38 276.47 C 118.29 277.66 117.79 280.18 117.18 282.31 C 115.30 289.54 113.29 296.74 111.43 303.98 C 110.93 305.93 110.65 309.19 113.34 309.58 C 118.17 309.91 123.06 309.85 127.90 309.61 C 130.98 309.28 132.00 305.97 132.61 303.43 C 134.56 295.62 136.96 287.92 138.69 280.07 C 139.61 277.17 136.53 275.22 133.97 275.68 C 129.47 275.97 124.65 274.86 120.38 276.47 Z" />
<path fill="#ef4a4e" opacity="1.00" d=" M 170.97 267.83 C 179.71 267.82 188.45 267.82 197.19 267.83 C 199.32 281.08 201.29 294.34 203.35 307.60 C 212.90 294.68 221.30 280.87 230.65 267.78 C 233.57 267.82 236.50 267.83 239.42 267.82 C 228.22 284.42 216.98 300.99 205.70 317.53 C 196.86 317.56 188.01 317.48 179.17 317.56 C 176.43 300.99 173.34 284.46 170.97 267.83 Z" />
<path fill="#ef4a4e" opacity="1.00" d=" M 249.58 275.59 C 250.35 273.01 251.09 270.42 251.79 267.82 C 265.19 267.85 278.58 267.78 291.98 267.85 C 296.07 267.99 301.31 268.49 303.20 272.78 C 304.47 276.71 303.67 281.00 302.66 284.92 C 299.73 295.79 296.99 306.72 293.89 317.55 C 275.24 317.50 256.58 317.56 237.93 317.52 C 234.73 317.53 230.76 316.47 229.70 313.05 C 228.95 309.08 230.09 305.10 231.17 301.31 C 232.42 297.19 233.51 292.79 236.52 289.55 C 239.42 286.40 243.81 285.16 247.98 285.20 C 258.32 285.11 268.66 285.22 279.00 285.15 C 279.40 282.20 282.22 277.22 277.94 275.96 C 268.52 275.25 259.03 275.96 249.58 275.59 M 254.73 302.04 C 254.11 304.38 252.80 307.98 255.77 309.27 C 259.08 310.15 262.59 309.64 265.99 309.78 C 268.26 309.74 271.28 310.05 272.45 307.56 C 274.52 302.90 275.30 297.77 276.82 292.92 C 271.25 292.93 265.59 292.39 260.07 293.29 C 256.10 294.18 255.70 298.81 254.73 302.04 Z" />
</g>
</svg>
