<?xml version="1.0" encoding="UTF-8" standalone="no"?>
<!-- Created with Inkscape (http://www.inkscape.org/) -->

<svg
   xmlns:dc="http://purl.org/dc/elements/1.1/"
   xmlns:cc="http://creativecommons.org/ns#"
   xmlns:rdf="http://www.w3.org/1999/02/22-rdf-syntax-ns#"
   xmlns:svg="http://www.w3.org/2000/svg"
   xmlns="http://www.w3.org/2000/svg"
   version="1.0"
   width="178.46875"
   height="54.096233"
   id="svg6493">
  <defs
     id="defs6495" />
  <metadata
     id="metadata6498">
    <rdf:RDF>
      <cc:Work
         rdf:about="">
        <dc:format>image/svg+xml</dc:format>
        <dc:type
           rdf:resource="http://purl.org/dc/dcmitype/StillImage" />
        <dc:title></dc:title>
      </cc:Work>
    </rdf:RDF>
  </metadata>
  <g
     transform="translate(-359.01851,-238.18785)"
     id="layer1">
    <path
       d="m 160,99.967232 a 18.5,18.5 0 1 1 -37,0 18.5,18.5 0 1 1 37,0 z"
       transform="matrix(1.353946,0,0,1.353946,269.17914,129.88586)"
       id="path3020-2"
       style="fill:#dc1351;fill-opacity:1;fill-rule:nonzero;stroke:none" />
    <g
       transform="matrix(1.3218765,0,0,1.3218765,54.285008,130.71561)"
       id="layer1-0"
       style="fill:#ffffff">
      <path
         d="m 308.68348,106.15796 0.14666,-0.14661 0.26399,-0.23468 0.35199,-0.2933 0.38132,-0.35199 0.41064,-0.35199 0.41066,-0.38129 0.41065,-0.38137 0.38131,-0.3226 0.32265,-0.29338 0.29333,-0.23461 0.14666,-0.14668 0.0587,-0.0587 0.32266,-0.2933 0.32265,-0.29329 0.26399,-0.26399 0.23465,-0.29338 0.23466,-0.2933 0.20533,-0.29329 0.17599,-0.29329 0.14666,-0.26399 0.14666,-0.32269 0.11733,-0.32268 0.088,-0.293297 0.088,-0.322683 0.0587,-0.322598 0.0293,-0.351988 0.0293,-0.351992 0.0293,-0.351992 -0.0293,-0.35198 -0.0293,-0.351988 -0.0293,-0.322682 -0.0587,-0.322607 -0.088,-0.322682 -0.088,-0.293298 -0.11733,-0.293376 -0.11733,-0.293294 -0.14666,-0.263992 -0.14666,-0.263991 -0.17599,-0.263992 -0.176,-0.234683 -0.20532,-0.234602 -0.20532,-0.205386 -0.23466,-0.205301 -0.20533,-0.205297 -0.26399,-0.175992 -0.23465,-0.175992 -0.26399,-0.146691 -0.29333,-0.14661 -0.29332,-0.117382 -0.29331,-0.117301 -0.29332,-0.117305 -0.32266,-0.088 -0.32265,-0.05869 -0.32265,-0.05869 -0.35199,-0.02928 -0.32265,-0.02932 -0.35199,0 -0.0587,0 -0.14666,0 -0.26399,0 -0.32264,0 -0.41066,0 -0.43998,0 -0.49864,0 -0.52798,0 -0.52798,0 -0.55731,0 -0.52798,0 -0.52798,0 -0.49865,0 -0.43998,0 -0.41064,0 -0.32266,0 -0.26399,0 -0.14666,0 -0.0587,0 0,4.92775 0.0587,0 0.17599,0 0.26399,0 0.32266,0 0.41065,0 0.46931,0 0.52798,0 0.52798,0 0.55731,0 0.55731,0 0.52797,0 0.49865,0 0.46931,0 0.41066,0 0.35197,0 0.264,0 0.17599,0 0.0587,0 0.46932,0.05869 0.35197,0.205298 0.26399,0.263987 0.14667,0.351992 0.0587,0.381289 -0.0587,0.381374 -0.176,0.351992 -0.35198,0.381289 -0.0587,0.02932 -0.14666,0.146695 -0.26399,0.205298 -0.32265,0.29337 -0.35199,0.32261 -0.43998,0.35198 -0.41065,0.35199 -0.43998,0.35199 -0.38131,0.35199 -0.38132,0.32268 -0.32266,0.26399 -0.26399,0.2346 -0.17598,0.1467 -0.0587,0.0293 0,0.0294 -0.23467,0.2053 -0.26397,0.23468 -0.20533,0.2346 -0.23466,0.23469 -0.23466,0.264 -0.20532,0.26399 -0.17599,0.26399 -0.20533,0.29329 -0.17599,0.264 -0.176,0.29329 -0.14666,0.29338 -0.17599,0.2933 -0.11733,0.32268 -0.14666,0.29329 -0.088,0.32268 -0.11733,0.3226 -0.088,0.35199 -0.088,0.32269 -0.088,0.35198 -0.0294,0.32261 -0.0587,0.35199 -0.0293,0.35198 -0.0294,0.352 0,0.35198 0,0 0,0.96797 12.99413,0 0,-4.98644 -6.18907,0 0.0587,-0.0587 z"
         id="path2584"
         style="fill:#ffffff;fill-opacity:1;fill-rule:nonzero;stroke:none" />
    </g>
    <path
       d="m 39.1875,12.0625 -0.46875,0.03125 -0.40625,0.03125 -0.40625,0.09375 -0.40625,0.125 -0.34375,0.125 -0.375,0.1875 -0.34375,0.21875 -0.3125,0.25 -0.3125,0.25 -0.28125,0.3125 L 35.25,14 35.03125,14.3125 34.84375,14.65625 34.65625,15 l -0.125,0.375 -0.125,0.40625 -0.125,0.40625 -0.03125,0.40625 -0.03125,0.46875 0.03125,0.40625 0.03125,0.40625 0.125,0.40625 0.125,0.40625 0.125,0.375 0.1875,0.34375 0.1875,0.34375 0.21875,0.375 0.28125,0.3125 0.28125,0.25 0.3125,0.25 0.3125,0.21875 0.34375,0.25 0.375,0.1875 0.34375,0.09375 0.40625,0.15625 0.40625,0.09375 0.40625,0.03125 L 39.1875,22 39.5625,21.96875 40,21.9375 l 0.40625,-0.09375 0.40625,-0.15625 0.375,-0.09375 0.34375,-0.1875 0.375,-0.25 0.28125,-0.21875 0.3125,-0.25 0.28125,-0.25 0.28125,-0.3125 0.21875,-0.375 0.1875,-0.34375 0.21875,-0.34375 0.15625,-0.375 0.09375,-0.40625 0.09375,-0.40625 0.0625,-0.40625 0,-0.40625 0,-0.46875 L 44.03125,16.1875 43.9375,15.78125 43.84375,15.375 43.6875,15 43.46875,14.65625 43.28125,14.3125 43.0625,14 42.78125,13.6875 42.5,13.375 l -0.3125,-0.25 -0.28125,-0.25 -0.375,-0.21875 -0.34375,-0.1875 -0.375,-0.125 -0.40625,-0.125 L 40,12.125 39.5625,12.09375 39.1875,12.0625 z M 0,12.59375 l 0,24.9375 8.71875,0 0,-24.9375 -8.71875,0 z m 9.21875,0 5.65625,24.9375 9.5,0 -0.03125,-0.0625 0,-0.0625 -0.0625,-0.125 L 24.25,37.125 24.21875,36.90625 24.1875,36.625 24.09375,36.34375 24.03125,36 23.9375,35.65625 23.875,35.21875 23.75,34.8125 23.625,34.34375 23.5625,33.875 23.4375,33.375 23.3125,32.8125 23.15625,32.28125 23.0625,31.6875 22.9375,31.125 22.78125,30.5 22.65625,29.875 22.5,29.25 22.40625,28.625 22.25,28.03125 22.09375,27.375 21.9375,26.6875 l -0.125,-0.59375 -0.15625,-0.65625 -0.125,-0.625 -0.15625,-0.59375 -0.15625,-0.625 -0.09375,-0.625 -0.15625,-0.5625 -0.125,-0.59375 -0.125,-0.53125 -0.125,-0.5625 L 20.5,20.21875 20.375,19.75 20.25,19.3125 20.1875,18.84375 20.09375,18.4375 20.03125,18.09375 19.9375,17.75 19.875,17.4375 19.78125,17.21875 19.75,16.96875 19.71875,16.8125 l 0,-0.125 -0.03125,-0.0625 0,-0.03125 -0.125,-0.4375 -0.125,-0.375 L 19.28125,15.375 19.0625,15 l -0.25,-0.34375 -0.21875,-0.34375 -0.3125,-0.28125 -0.3125,-0.3125 -0.3125,-0.25 L 17.3125,13.25 16.9375,13.0625 16.53125,12.90625 16.15625,12.75 15.71875,12.65625 15.25,12.59375 l -0.40625,0 -0.125,0 -0.3125,0 -0.46875,0 -0.5625,0 -0.625,0 -0.75,0 -0.65625,0 -0.65625,0 -0.59375,0 -0.46875,0 -0.28125,0 -0.125,0 z m 15.6875,0 0,24.9375 8.71875,0 0,-24.9375 -8.71875,0 z m 19.75,0 0,24.9375 8.71875,0 0,-24.9375 -8.71875,0 z m 16.9375,0 -0.0625,0.03125 -0.03125,0.09375 -0.125,0.1875 -0.125,0.1875 -0.15625,0.3125 -0.21875,0.3125 -0.21875,0.34375 -0.25,0.4375 -0.25,0.40625 -0.3125,0.46875 -0.3125,0.5 -0.3125,0.5 -0.3125,0.5625 -0.3125,0.53125 -0.34375,0.5625 -0.3125,0.53125 -0.34375,0.53125 -0.3125,0.5 -0.3125,0.5625 -0.3125,0.46875 -0.3125,0.5 -0.25,0.40625 -0.25,0.4375 -0.21875,0.34375 -0.21875,0.34375 -0.1875,0.28125 -0.09375,0.25 -0.125,0.15625 -0.25,0.4375 -0.1875,0.46875 -0.125,0.40625 0,0.375 0,0.4375 0.15625,0.375 0.15625,0.46875 0.28125,0.5 0.125,0.15625 0.09375,0.25 0.21875,0.25 0.1875,0.34375 0.21875,0.375 0.25,0.40625 0.25,0.4375 0.28125,0.46875 0.3125,0.5 0.3125,0.53125 0.3125,0.5 0.34375,0.5625 0.34375,0.53125 0.3125,0.5625 0.3125,0.53125 0.34375,0.5 0.3125,0.5 0.28125,0.5 0.3125,0.46875 0.25,0.4375 0.25,0.40625 0.21875,0.375 0.21875,0.3125 L 61.25,37 l 0.125,0.21875 0.125,0.1875 0.03125,0.0625 0.0625,0.0625 9.59375,0 -6.875,-11.34375 -0.28125,-0.46875 -0.125,-0.4375 0,-0.4375 0.125,-0.4375 0.21875,-0.46875 0,-0.03125 0.09375,-0.125 0.09375,-0.1875 L 64.59375,23.375 64.75,23.09375 65,22.75 l 0.21875,-0.375 0.25,-0.4375 0.25,-0.46875 0.3125,-0.46875 0.3125,-0.53125 0.34375,-0.5 L 67.0625,19.375 67.375,18.84375 67.71875,18.25 68.0625,17.71875 68.40625,17.125 68.75,16.59375 l 0.3125,-0.5625 0.3125,-0.5 0.3125,-0.5 0.28125,-0.46875 0.25,-0.40625 0.25,-0.40625 0.1875,-0.3125 0.1875,-0.3125 L 71,12.90625 l 0.09375,-0.1875 0.0625,-0.09375 0.03125,-0.03125 -9.59375,0 z m 70.46875,0 c -0.59357,0 -1.0625,0.468929 -1.0625,1.0625 l 0,22.875 c 0,0.593571 0.46893,1.0625 1.0625,1.0625 l 41.34375,0 c 0.59357,0 1.0625,-0.468929 1.0625,-1.0625 l 0,-22.875 c 0,-0.593571 -0.46893,-1.0625 -1.0625,-1.0625 l -41.34375,0 z m 2.21875,2.75 36.9375,0 c 0.28874,0 0.5,0.242509 0.5,0.53125 l 0,18.4375 c 0,0.288741 -0.21126,0.53125 -0.5,0.53125 l -36.9375,0 c -0.28874,0 -0.53125,-0.242509 -0.53125,-0.53125 l 0,-18.4375 c 0,-0.288741 0.24251,-0.53125 0.53125,-0.53125 z m 19.78125,2.75 0,14 5.84375,0 c 0.95666,0 1.85124,-0.16959 2.65625,-0.53125 0.81666,-0.37333 1.51041,-0.87 2.09375,-1.5 0.58332,-0.64167 1.04832,-1.41 1.375,-2.25 0.32665,-0.85166 0.46874,-1.75041 0.46875,-2.71875 -1e-5,-0.95666 -0.1421,-1.86708 -0.46875,-2.71875 -0.32668,-0.85166 -0.79168,-1.58874 -1.375,-2.21875 -0.58334,-0.62999 -1.27709,-1.12666 -2.09375,-1.5 -0.80501,-0.37332 -1.69959,-0.56249 -2.65625,-0.5625 l -5.84375,0 z M 140.5,18.125 l 0,13.96875 2.71875,0 0,-6.1875 5.5,0 0,6.1875 2.71875,0 0,-13.96875 -2.71875,0 0,5.53125 -5.5,0 0,-5.53125 -2.71875,0 z m 16.28125,2.09375 2.375,0 c 0.65333,10e-6 1.25249,0.15751 1.8125,0.4375 0.55999,0.26834 1.02916,0.63876 1.4375,1.09375 0.41999,0.44334 0.76666,0.94792 1,1.53125 0.24499,0.57167 0.37499,1.15501 0.375,1.75 -1e-5,0.63 -0.13001,1.22917 -0.375,1.8125 -0.23334,0.57167 -0.58001,1.08792 -1,1.53125 -0.40834,0.43167 -0.89709,0.77458 -1.46875,1.03125 -0.56001,0.25667 -1.13959,0.375 -1.78125,0.375 l -2.375,0 0,-9.5625 z"
       transform="translate(361.01851,240.18785)"
       id="path2570"
       style="fill:#909193;fill-opacity:1;fill-rule:nonzero;stroke:none" />
  </g>
</svg>
