<?xml version="1.0" encoding="UTF-8" standalone="no"?>
<!-- Created with Inkscape (http://www.inkscape.org/) -->

<svg
   xmlns:dc="http://purl.org/dc/elements/1.1/"
   xmlns:cc="http://creativecommons.org/ns#"
   xmlns:rdf="http://www.w3.org/1999/02/22-rdf-syntax-ns#"
   xmlns:svg="http://www.w3.org/2000/svg"
   xmlns="http://www.w3.org/2000/svg"
   xmlns:sodipodi="http://sodipodi.sourceforge.net/DTD/sodipodi-0.dtd"
   xmlns:inkscape="http://www.inkscape.org/namespaces/inkscape"
   width="100"
   height="40.742172"
   id="svg6493"
   sodipodi:version="0.32"
   inkscape:version="0.48.1 "
   version="1.0"
   sodipodi:docname="NRK1_logo.svg"
   inkscape:output_extension="org.inkscape.output.svg.inkscape">
  <defs
     id="defs6495">
    <inkscape:perspective
       sodipodi:type="inkscape:persp3d"
       inkscape:vp_x="0 : 526.18109 : 1"
       inkscape:vp_y="0 : 1000 : 0"
       inkscape:vp_z="744.09448 : 526.18109 : 1"
       inkscape:persp3d-origin="372.04724 : 350.78739 : 1"
       id="perspective6501" />
    <inkscape:perspective
       id="perspective6501-0"
       inkscape:persp3d-origin="372.04724 : 350.78739 : 1"
       inkscape:vp_z="744.09448 : 526.18109 : 1"
       inkscape:vp_y="0 : 1000 : 0"
       inkscape:vp_x="0 : 526.18109 : 1"
       sodipodi:type="inkscape:persp3d" />
  </defs>
  <sodipodi:namedview
     id="base"
     pagecolor="#ffffff"
     bordercolor="#666666"
     borderopacity="1.0"
     gridtolerance="10000"
     guidetolerance="10"
     objecttolerance="10"
     inkscape:pageopacity="0.0"
     inkscape:pageshadow="2"
     inkscape:zoom="8"
     inkscape:cx="77.036243"
     inkscape:cy="3.1162754"
     inkscape:document-units="px"
     inkscape:current-layer="g3022"
     showgrid="false"
     inkscape:window-width="1920"
     inkscape:window-height="1000"
     inkscape:window-x="-8"
     inkscape:window-y="-8"
     fit-margin-top="0.5"
     fit-margin-left="0.5"
     fit-margin-right="0.5"
     fit-margin-bottom="0.5"
     inkscape:window-maximized="1">
    <inkscape:grid
       type="xygrid"
       id="grid3001"
       empspacing="5"
       visible="true"
       enabled="true"
       snapvisiblegridlinesonly="true" />
  </sodipodi:namedview>
  <metadata
     id="metadata6498">
    <rdf:RDF>
      <cc:Work
         rdf:about="">
        <dc:format>image/svg+xml</dc:format>
        <dc:type
           rdf:resource="http://purl.org/dc/dcmitype/StillImage" />
        <dc:title></dc:title>
      </cc:Work>
    </rdf:RDF>
  </metadata>
  <g
     inkscape:label="Layer 1"
     inkscape:groupmode="layer"
     id="layer1"
     transform="translate(-364.83101,-255.85029)">
    <g
       id="g3022"
       transform="matrix(1.0421053,0,0,1.0421053,-15.382359,-12.467051)">
      <path
         transform="matrix(1.0307142,0,0,1.0307142,295.41673,173.98659)"
         d="m 160,99.967232 a 18.5,18.5 0 1 1 -37,0 18.5,18.5 0 1 1 37,0 z"
         sodipodi:ry="18.5"
         sodipodi:rx="18.5"
         sodipodi:cy="99.967232"
         sodipodi:cx="141.5"
         id="path3020"
         style="fill:#dc1351;fill-opacity:1;fill-rule:nonzero;stroke:none"
         sodipodi:type="arc" />
      <g
         transform="matrix(0.39903068,0,0,0.39903068,242.0693,195.50858)"
         id="g3011">
        <path
           inkscape:connector-curvature="0"
           style="fill:#909193;fill-opacity:1;fill-rule:nonzero;stroke:none"
           d="m 325.54305,228.08547 0,-47.55396 -16.64023,0 0,47.55396 16.64023,0 z"
           id="path2570" />
        <path
           inkscape:connector-curvature="0"
           style="fill:#909193;fill-opacity:1;fill-rule:nonzero;stroke:none"
           d="m 356.45692,228.08547 16.64023,0 0,-47.55396 -16.64023,0 0,47.55396 z"
           id="path2572" />
        <path
           inkscape:connector-curvature="0"
           style="fill:#909193;fill-opacity:1;fill-rule:nonzero;stroke:none"
           d="m 410.74105,228.08547 0,-47.55396 -16.64023,0 0,47.55396 16.64023,0 z"
           id="path2574" />
        <path
           inkscape:connector-curvature="0"
           style="fill:#909193;fill-opacity:1;fill-rule:nonzero;stroke:none"
           d="m 382.78546,179.56992 -0.73956,0.0741 -0.81352,0.14778 -0.73956,0.29596 -0.66561,0.22188 -0.73956,0.36964 -0.66562,0.36986 -0.59164,0.51762 -0.59166,0.44375 -0.5177,0.59173 -0.51769,0.59172 -0.44376,0.59152 -0.36976,0.66561 -0.36979,0.66562 -0.22188,0.7395 -0.22186,0.73972 -0.22188,0.81338 -0.0739,0.73972 -0.074,0.88749 0.074,0.81339 0.0739,0.73971 0.22188,0.81339 0.22186,0.7397 0.22188,0.73951 0.36979,0.66562 0.36976,0.66561 0.44376,0.66562 0.51769,0.59151 0.5177,0.51784 0.59166,0.44375 0.59164,0.44374 0.66562,0.44374 0.73956,0.36964 0.66561,0.22188 0.73956,0.29597 0.81352,0.14777 0.73956,0.0741 0.8875,0.0739 0.73956,-0.0739 0.81351,-0.0741 0.81354,-0.14777 0.73956,-0.29597 0.73957,-0.22188 0.66562,-0.36964 0.6656,-0.44374 0.59165,-0.44374 0.59164,-0.44375 0.51771,-0.51784 0.51769,-0.59151 0.44375,-0.66562 0.36977,-0.66561 0.36979,-0.66562 0.29583,-0.73951 0.22187,-0.7397 0.1479,-0.81339 0.14792,-0.73971 0,-0.81339 0,-0.88749 -0.14792,-0.73972 -0.1479,-0.81338 -0.22187,-0.73972 -0.29583,-0.7395 -0.36979,-0.66562 -0.36977,-0.66561 -0.44375,-0.59152 -0.51769,-0.59172 -0.51771,-0.59173 -0.59164,-0.44375 -0.59165,-0.51762 -0.6656,-0.36986 -0.66562,-0.36964 -0.73957,-0.22188 -0.73956,-0.29596 -0.81354,-0.14778 -0.81351,-0.0741 -0.73956,-0.0739 -0.8875,0.0739 z"
           id="path2576" />
        <path
           inkscape:connector-curvature="0"
           style="fill:#909193;fill-opacity:1;fill-rule:nonzero;stroke:none"
           d="m 431.07914,205.60277 -0.22189,-0.88747 0,-0.81361 0.22189,-0.81359 0.44373,-0.88728 0,-0.0741 0.1479,-0.22188 0.22188,-0.36964 0.29584,-0.44374 0.29582,-0.51785 0.44374,-0.66561 0.44372,-0.7395 0.44374,-0.8136 0.51769,-0.88748 0.59167,-0.88749 0.59165,-1.03526 0.66561,-0.96158 0.66562,-1.10936 0.59163,-1.03527 0.66561,-1.10935 0.66562,-1.03547 0.66562,-1.10935 0.6656,-1.03527 0.59166,-1.03548 0.59165,-0.96137 0.59165,-0.96158 0.51769,-0.88749 0.5177,-0.81339 0.44374,-0.7395 0.3698,-0.59173 0.36977,-0.59173 0.29582,-0.44374 0.14792,-0.36964 0.14793,-0.14799 0.0739,-0.0739 -18.34122,0 -0.074,0.0739 -0.0739,0.14799 -0.22187,0.36964 -0.29583,0.36986 -0.29582,0.59173 -0.3698,0.59152 -0.44373,0.66561 -0.44374,0.8136 -0.51769,0.81339 -0.59165,0.88748 -0.59166,0.96158 -0.59165,0.96139 -0.59166,1.03546 -0.59164,1.03527 -0.66561,1.03547 -0.59165,1.03547 -0.66562,1.03526 -0.59165,0.96137 -0.59166,1.03547 -0.59163,0.88749 -0.59167,0.96137 -0.51769,0.8136 -0.44374,0.8136 -0.44375,0.66561 -0.36976,0.66562 -0.3698,0.51762 -0.22188,0.44375 -0.22186,0.29576 -0.44372,0.88748 -0.3698,0.88749 -0.22187,0.7395 0,0.73971 0,0.81339 0.29581,0.73971 0.29586,0.88749 0.51769,0.96137 0.22187,0.29576 0.22187,0.44374 0.36977,0.51784 0.36979,0.66562 0.44372,0.66561 0.44375,0.81339 0.51769,0.8136 0.51772,0.88748 0.59163,0.96137 0.59166,1.03547 0.59165,0.96137 0.66562,1.03547 0.66559,1.03527 0.59167,1.03547 0.59164,1.03547 0.66562,0.96137 0.59165,0.96138 0.5177,0.96137 0.59165,0.88748 0.51769,0.8136 0.44374,0.8136 0.44373,0.66561 0.3698,0.59152 0.29582,0.59173 0.29583,0.36985 0.22187,0.36965 0.0739,0.14799 0.074,0.0739 18.34122,0 -13.16427,-21.59521 -0.51769,-0.88749 z"
           id="path2578" />
        <path
           inkscape:connector-curvature="0"
           style="fill:#909193;fill-opacity:1;fill-rule:nonzero;stroke:none"
           d="m 355.34757,228.01159 0,-0.14799 -0.074,-0.22187 -0.0739,-0.29576 -0.074,-0.44375 -0.074,-0.51762 -0.14792,-0.51784 -0.1479,-0.66562 -0.14792,-0.66561 -0.14789,-0.81339 -0.22189,-0.8136 -0.22186,-0.88749 -0.14793,-0.88748 -0.22186,-0.96137 -0.22188,-1.03547 -0.29582,-1.03527 -0.22187,-1.10935 -0.22187,-1.10935 -0.29582,-1.18346 -0.22187,-1.18324 -0.29583,-1.18325 -0.22187,-1.18325 -0.29583,-1.18345 -0.29583,-1.25713 -0.29582,-1.25734 -0.22188,-1.18325 -0.29582,-1.25733 -0.22186,-1.18325 -0.29583,-1.10936 -0.29582,-1.18324 -0.22187,-1.18346 -0.29582,-1.10936 -0.22187,-1.10935 -0.22188,-1.03526 -0.22186,-1.03548 -0.22187,-0.96137 -0.22189,-0.88748 -0.22186,-0.88749 -0.14792,-0.88749 -0.14791,-0.73949 -0.14791,-0.66562 -0.14789,-0.66561 -0.14792,-0.59173 -0.14793,-0.44374 -0.074,-0.44374 -0.074,-0.29576 0,-0.22187 -0.074,-0.14799 0,-0.0739 -0.22185,-0.81361 -0.22186,-0.73949 -0.29585,-0.73972 -0.44372,-0.7395 -0.44375,-0.66562 -0.44374,-0.66561 -0.59165,-0.51762 -0.59165,-0.59173 -0.59167,-0.44375 -0.6656,-0.44374 -0.73956,-0.36965 -0.73957,-0.29597 -0.73958,-0.29576 -0.81351,-0.14798 -0.88748,-0.14777 -0.81352,0 -0.22187,0 -0.59165,0 -0.88749,0 -1.10936,0 -1.18329,0 -1.40516,0 -1.25729,0 -1.25726,0 -1.10933,0 -0.88749,0 -0.59165,0 -0.22188,0 10.79766,47.55396 18.11939,0 0,0 -0.074,-0.0739 z"
           id="path2580" />
      </g>
      <g
         transform="matrix(1.0063008,0,0,1.0063008,131.82495,174.61825)"
         id="layer1-0"
         inkscape:label="Layer 1"
         style="fill:#ffffff">
        <path
           id="path2584"
           d="m 308.68348,106.15796 0.14666,-0.14661 0.26399,-0.23468 0.35199,-0.2933 0.38132,-0.35199 0.41064,-0.35199 0.41066,-0.38129 0.41065,-0.38137 0.38131,-0.3226 0.32265,-0.29338 0.29333,-0.23461 0.14666,-0.14668 0.0587,-0.0587 0.32266,-0.2933 0.32265,-0.29329 0.26399,-0.26399 0.23465,-0.29338 0.23466,-0.2933 0.20533,-0.29329 0.17599,-0.29329 0.14666,-0.26399 0.14666,-0.32269 0.11733,-0.32268 0.088,-0.293297 0.088,-0.322683 0.0587,-0.322598 0.0293,-0.351988 0.0293,-0.351992 0.0293,-0.351992 -0.0293,-0.35198 -0.0293,-0.351988 -0.0293,-0.322682 -0.0587,-0.322607 -0.088,-0.322682 -0.088,-0.293298 -0.11733,-0.293376 -0.11733,-0.293294 -0.14666,-0.263992 -0.14666,-0.263991 -0.17599,-0.263992 -0.176,-0.234683 -0.20532,-0.234602 -0.20532,-0.205386 -0.23466,-0.205301 -0.20533,-0.205297 -0.26399,-0.175992 -0.23465,-0.175992 -0.26399,-0.146691 -0.29333,-0.14661 -0.29332,-0.117382 -0.29331,-0.117301 -0.29332,-0.117305 -0.32266,-0.088 -0.32265,-0.05869 -0.32265,-0.05869 -0.35199,-0.02928 -0.32265,-0.02932 -0.35199,0 -0.0587,0 -0.14666,0 -0.26399,0 -0.32264,0 -0.41066,0 -0.43998,0 -0.49864,0 -0.52798,0 -0.52798,0 -0.55731,0 -0.52798,0 -0.52798,0 -0.49865,0 -0.43998,0 -0.41064,0 -0.32266,0 -0.26399,0 -0.14666,0 -0.0587,0 0,4.92775 0.0587,0 0.17599,0 0.26399,0 0.32266,0 0.41065,0 0.46931,0 0.52798,0 0.52798,0 0.55731,0 0.55731,0 0.52797,0 0.49865,0 0.46931,0 0.41066,0 0.35197,0 0.264,0 0.17599,0 0.0587,0 0.46932,0.05869 0.35197,0.205298 0.26399,0.263987 0.14667,0.351992 0.0587,0.381289 -0.0587,0.381374 -0.176,0.351992 -0.35198,0.381289 -0.0587,0.02932 -0.14666,0.146695 -0.26399,0.205298 -0.32265,0.29337 -0.35199,0.32261 -0.43998,0.35198 -0.41065,0.35199 -0.43998,0.35199 -0.38131,0.35199 -0.38132,0.32268 -0.32266,0.26399 -0.26399,0.2346 -0.17598,0.1467 -0.0587,0.0293 0,0.0294 -0.23467,0.2053 -0.26397,0.23468 -0.20533,0.2346 -0.23466,0.23469 -0.23466,0.264 -0.20532,0.26399 -0.17599,0.26399 -0.20533,0.29329 -0.17599,0.264 -0.176,0.29329 -0.14666,0.29338 -0.17599,0.2933 -0.11733,0.32268 -0.14666,0.29329 -0.088,0.32268 -0.11733,0.3226 -0.088,0.35199 -0.088,0.32269 -0.088,0.35198 -0.0294,0.32261 -0.0587,0.35199 -0.0293,0.35198 -0.0294,0.352 0,0.35198 0,0 0,0.96797 12.99413,0 0,-4.98644 -6.18907,0 0.0587,-0.0587 z"
           style="fill:#ffffff;fill-opacity:1;fill-rule:nonzero;stroke:none"
           inkscape:connector-curvature="0" />
      </g>
    </g>
  </g>
</svg>
