<?xml version="1.0" encoding="UTF-8" ?>
<!DOCTYPE svg PUBLIC "-//W3C//DTD SVG 1.1//EN" "http://www.w3.org/Graphics/SVG/1.1/DTD/svg11.dtd">
<svg width="1000pt" height="635pt" viewBox="0 0 1000 635" version="1.1" xmlns="http://www.w3.org/2000/svg">
<g id="#000000ff">
<path fill="#000000" opacity="1.00" d=" M 0.00 0.00 L 1000.00 0.00 L 1000.00 635.00 L 0.00 635.00 L 0.00 0.00 M 160.43 90.65 C 133.84 94.81 110.71 115.16 103.13 140.98 C 98.07 157.51 99.19 175.87 106.31 191.64 C 112.94 206.57 124.82 219.06 139.35 226.50 C 163.79 239.37 195.47 236.39 217.02 219.10 C 229.77 209.16 239.05 194.84 242.79 179.10 C 246.49 163.87 245.09 147.44 238.78 133.08 C 232.07 117.65 219.78 104.73 204.70 97.25 C 191.14 90.43 175.39 88.15 160.43 90.65 M 423.57 100.81 C 398.08 103.43 373.31 112.63 352.28 127.26 C 326.29 145.23 306.07 171.40 295.35 201.13 C 284.92 229.81 283.40 261.61 290.88 291.18 C 298.35 321.03 315.18 348.40 338.29 368.68 C 364.27 391.71 398.29 405.43 432.99 406.78 C 468.97 408.48 505.37 396.91 533.73 374.71 C 559.85 354.49 579.18 325.64 587.76 293.73 C 597.52 257.96 593.82 218.67 577.26 185.47 C 562.64 155.77 538.12 131.10 508.53 116.27 C 482.47 103.09 452.59 97.75 423.57 100.81 M 634.47 103.47 C 634.45 202.30 634.51 301.14 634.44 399.97 C 668.94 400.12 703.44 400.00 737.94 400.03 C 737.95 360.97 737.92 321.91 737.96 282.85 C 760.97 321.90 783.93 360.98 806.93 400.04 C 848.30 400.01 889.67 399.98 931.05 399.96 C 898.87 349.40 866.66 298.86 834.48 248.30 C 862.08 200.03 889.66 151.75 917.24 103.47 C 880.45 103.48 843.66 103.44 806.87 103.49 C 783.91 142.55 760.92 181.58 737.92 220.62 C 737.91 181.57 737.93 142.51 737.97 103.46 C 703.47 103.47 668.97 103.46 634.47 103.47 M 161.48 276.69 C 133.44 280.62 109.11 302.61 102.32 330.07 C 98.23 345.82 99.60 362.95 106.28 377.79 C 113.11 393.19 125.51 406.01 140.66 413.37 C 154.02 419.94 169.45 422.16 184.14 419.74 C 198.95 417.37 212.91 410.17 223.52 399.57 C 234.19 388.97 241.46 374.97 243.85 360.10 C 246.37 344.91 243.93 328.93 236.85 315.24 C 229.40 300.67 216.86 288.77 201.89 282.14 C 189.32 276.48 175.10 274.64 161.48 276.69 M 671.04 457.12 C 655.44 472.78 639.76 488.37 624.15 504.02 C 624.15 490.04 624.15 476.05 624.15 462.07 C 619.54 462.07 614.94 462.06 610.35 462.08 C 610.36 494.26 610.35 526.45 610.35 558.63 C 614.97 558.59 619.59 558.73 624.22 558.54 C 624.10 546.83 624.12 535.11 624.20 523.40 C 627.60 520.09 630.93 516.71 634.30 513.35 C 646.44 527.62 658.47 541.99 670.67 556.21 C 674.14 556.15 677.61 556.16 681.08 556.17 C 680.95 553.15 681.42 550.04 680.85 547.08 C 668.74 532.47 656.32 518.10 644.10 503.58 C 656.26 491.45 668.35 479.25 680.58 467.19 C 680.64 463.84 680.61 460.49 680.62 457.14 C 677.42 457.13 674.23 457.13 671.04 457.12 M 269.46 465.51 C 264.63 471.24 265.22 479.20 265.43 486.20 C 256.24 486.21 247.05 486.20 237.86 486.20 C 237.94 482.29 237.06 478.15 238.54 474.42 C 241.26 472.28 245.00 472.65 248.27 472.40 C 248.26 467.80 248.27 463.20 248.26 458.61 C 241.19 458.73 233.16 459.63 228.23 465.33 C 223.25 471.05 223.83 479.13 224.05 486.20 C 220.62 486.20 217.19 486.20 213.76 486.20 C 213.76 490.80 213.76 495.40 213.77 500.00 C 217.22 500.00 220.69 500.00 224.15 500.00 C 224.15 519.55 224.14 539.09 224.15 558.64 C 228.75 558.63 233.34 558.62 237.93 558.64 C 237.95 539.09 237.93 519.55 237.94 500.00 C 247.14 500.01 256.34 499.97 265.54 500.01 C 265.52 519.55 265.54 539.08 265.52 558.62 C 270.12 558.64 274.73 558.64 279.33 558.62 C 279.32 539.08 279.34 519.54 279.32 500.01 C 282.77 500.00 286.23 500.00 289.68 499.99 C 289.67 495.39 289.67 490.80 289.68 486.21 C 286.20 486.20 282.73 486.19 279.25 486.21 C 279.27 482.42 278.57 478.47 279.74 474.79 C 282.12 472.08 286.36 472.74 289.64 472.40 C 289.65 467.80 289.65 463.20 289.64 458.61 C 282.49 458.74 274.36 459.66 269.46 465.51 M 152.56 459.76 C 139.76 462.18 128.65 470.85 122.17 482.01 C 109.70 502.75 112.68 531.86 130.13 548.91 C 139.11 557.93 152.18 562.96 164.91 561.41 C 178.29 560.03 190.33 551.66 197.46 540.42 C 204.74 529.21 207.48 515.28 205.55 502.10 C 203.54 487.66 195.58 473.82 183.20 465.88 C 174.28 459.98 163.06 457.72 152.56 459.76 M 920.68 458.60 C 920.67 491.93 920.68 525.26 920.67 558.59 C 925.26 558.61 929.86 558.59 934.47 558.60 C 934.47 525.27 934.47 491.93 934.47 458.60 C 929.87 458.60 925.27 458.60 920.68 458.60 M 313.93 483.89 C 307.12 487.53 301.88 493.67 298.59 500.60 C 292.31 513.92 292.71 530.26 299.82 543.18 C 303.89 550.58 310.43 556.86 318.55 559.52 C 326.47 562.31 335.54 561.11 342.64 556.70 C 349.93 552.33 355.12 545.09 358.11 537.24 C 353.81 535.64 349.51 534.04 345.21 532.46 C 343.10 537.76 339.67 542.85 334.46 545.51 C 329.99 547.97 324.27 547.78 319.94 545.10 C 313.67 541.44 310.10 534.51 308.60 527.61 C 326.08 527.58 343.55 527.61 361.02 527.60 C 361.43 517.61 360.48 507.20 355.43 498.36 C 351.43 491.05 345.04 484.82 337.09 482.04 C 329.57 479.26 320.92 480.03 313.93 483.89 M 459.93 487.82 C 446.08 499.91 442.52 521.05 449.05 537.83 C 452.68 547.37 460.00 555.95 469.82 559.36 C 477.88 562.36 487.22 561.18 494.47 556.64 C 501.72 552.27 506.81 545.04 509.86 537.26 C 505.56 535.62 501.24 534.06 496.93 532.46 C 494.77 537.92 491.17 543.17 485.71 545.74 C 481.36 547.95 475.95 547.68 471.79 545.17 C 465.45 541.54 461.83 534.56 460.34 527.63 C 477.80 527.57 495.26 527.61 512.73 527.60 C 513.17 517.48 512.16 506.91 506.95 498.00 C 502.18 489.37 493.82 482.36 483.92 480.76 C 475.37 479.24 466.42 482.18 459.93 487.82 M 537.92 489.03 C 537.91 488.33 537.91 486.93 537.90 486.23 C 533.31 486.24 528.71 486.23 524.12 486.23 C 524.10 510.38 524.12 534.52 524.13 558.67 C 528.72 558.66 533.31 558.66 537.91 558.67 C 537.92 543.12 537.92 527.56 537.90 512.01 C 537.80 510.27 538.21 508.54 539.18 507.09 C 543.22 500.45 550.94 496.61 558.62 496.52 C 558.60 491.92 558.62 487.34 558.61 482.75 C 551.29 482.86 544.03 484.99 537.92 489.03 M 708.33 486.34 C 700.29 491.50 695.40 500.86 695.31 510.36 C 699.88 510.37 704.46 510.37 709.04 510.36 C 709.30 506.66 710.48 502.91 713.13 500.20 C 717.73 495.01 726.30 493.67 731.99 497.84 C 735.20 500.07 736.92 503.77 737.80 507.48 C 735.40 509.55 732.84 511.55 729.84 512.66 C 725.39 514.38 720.53 513.51 715.91 514.13 C 709.17 514.76 702.37 517.58 698.09 522.99 C 692.12 530.52 691.64 541.59 695.98 550.02 C 699.25 556.38 705.82 560.73 712.86 561.69 C 722.56 563.05 732.71 560.29 740.46 554.30 C 743.52 559.37 749.32 562.08 755.14 562.15 C 755.18 557.60 755.17 553.05 755.19 548.50 C 753.38 548.22 751.47 547.24 751.76 545.08 C 751.58 533.05 751.83 521.00 751.64 508.97 C 751.34 499.66 746.45 490.44 738.40 485.58 C 729.36 479.92 717.12 480.44 708.33 486.34 M 867.80 482.75 C 855.76 486.07 846.98 497.90 847.04 510.36 C 851.61 510.37 856.18 510.36 860.76 510.38 C 860.78 501.97 868.48 494.53 876.96 495.42 C 883.50 495.65 888.44 501.34 889.52 507.49 C 886.61 510.02 883.37 512.41 879.54 513.28 C 875.38 514.15 871.09 513.59 866.90 514.22 C 859.50 515.02 852.06 518.72 848.21 525.30 C 843.66 532.98 843.75 543.13 848.16 550.84 C 851.58 556.84 857.99 560.84 864.79 561.73 C 874.44 563.01 884.48 560.23 892.20 554.31 C 895.25 559.38 901.06 562.09 906.88 562.14 C 906.87 557.59 906.92 553.03 906.92 548.48 C 905.32 548.18 903.43 547.56 903.53 545.60 C 903.26 533.42 903.61 521.23 903.37 509.04 C 903.09 500.23 898.75 491.50 891.44 486.44 C 884.68 481.64 875.70 480.42 867.80 482.75 M 386.18 489.02 C 386.19 488.32 386.21 486.94 386.22 486.24 C 381.61 486.23 377.01 486.23 372.41 486.24 C 372.41 510.37 372.41 534.50 372.41 558.63 C 377.01 558.62 381.61 558.65 386.22 558.61 C 386.26 542.46 386.08 526.31 386.30 510.17 C 387.75 504.43 393.05 500.39 398.29 498.18 C 402.86 496.57 408.35 495.58 412.81 497.99 C 416.66 501.04 416.86 506.52 417.21 511.03 C 417.36 526.89 417.21 542.77 417.24 558.64 C 421.83 558.62 426.43 558.63 431.03 558.63 C 431.03 543.41 431.09 528.19 431.05 512.97 C 430.91 505.76 430.07 498.13 425.92 492.00 C 422.82 487.29 417.62 484.17 412.10 483.27 C 403.13 481.76 393.76 484.10 386.18 489.02 M 784.48 489.00 C 784.49 488.31 784.50 486.93 784.51 486.24 C 779.91 486.23 775.31 486.24 770.71 486.23 C 770.67 510.36 770.72 534.49 770.70 558.62 C 775.30 558.64 779.90 558.63 784.50 558.63 C 784.51 542.78 784.49 526.94 784.51 511.10 C 784.42 509.35 785.27 507.78 786.21 506.38 C 790.90 499.44 799.74 495.55 808.03 496.84 C 810.37 497.14 812.48 498.67 813.44 500.85 C 815.61 505.56 815.49 510.91 815.53 515.99 C 815.46 530.20 815.52 544.41 815.49 558.62 C 820.09 558.63 824.69 558.64 829.30 558.62 C 829.29 543.75 829.28 528.88 829.32 514.01 C 829.23 506.68 828.57 498.94 824.57 492.58 C 821.62 487.79 816.57 484.46 811.07 483.40 C 801.91 481.62 792.25 483.98 784.48 489.00 Z" />
<path fill="#000000" opacity="1.00" d=" M 430.62 200.76 C 443.63 198.51 457.45 201.27 468.53 208.47 C 480.61 216.18 489.35 228.93 492.07 243.02 C 494.95 257.22 491.72 272.54 483.28 284.33 C 474.73 296.51 460.88 304.82 446.08 306.52 C 432.59 308.20 418.52 304.47 407.67 296.28 C 395.87 287.53 387.96 273.74 386.51 259.11 C 385.10 246.18 388.60 232.79 396.24 222.26 C 404.31 210.97 416.92 203.04 430.62 200.76 Z" />
<path fill="#000000" opacity="1.00" d=" M 154.50 473.74 C 163.09 471.86 172.35 474.38 179.05 479.98 C 192.61 491.05 196.27 511.51 189.20 527.21 C 185.21 536.39 177.29 544.16 167.43 546.66 C 158.66 549.01 148.95 546.68 141.96 540.96 C 128.16 529.97 124.39 509.33 131.48 493.53 C 135.62 483.94 144.10 475.88 154.50 473.74 Z" />
<path fill="#000000" opacity="1.00" d=" M 320.93 495.77 C 325.48 493.35 331.26 493.71 335.57 496.51 C 341.65 500.21 344.97 506.98 346.66 513.68 C 333.98 513.95 321.30 513.74 308.63 513.79 C 310.16 506.53 314.09 499.22 320.93 495.77 Z" />
<path fill="#000000" opacity="1.00" d=" M 471.38 496.47 C 475.72 493.68 481.54 493.35 486.10 495.84 C 492.83 499.33 496.80 506.56 498.25 513.79 C 485.61 513.79 472.96 513.85 460.32 513.76 C 461.84 506.98 465.28 500.18 471.38 496.47 Z" />
<path fill="#000000" opacity="1.00" d=" M 724.04 527.54 C 728.86 527.49 733.58 526.25 737.93 524.19 C 737.74 528.37 738.23 532.60 737.68 536.75 C 734.11 543.15 727.27 547.57 719.95 548.15 C 715.91 548.63 711.04 548.04 708.62 544.36 C 706.13 540.29 706.10 534.24 709.63 530.75 C 713.57 527.31 719.15 527.73 724.04 527.54 Z" />
<path fill="#000000" opacity="1.00" d=" M 875.01 527.57 C 880.09 527.58 885.09 526.36 889.68 524.19 C 889.51 528.30 889.89 532.44 889.49 536.55 C 885.90 543.30 878.59 547.83 870.97 548.20 C 866.98 548.62 862.24 547.72 860.09 543.97 C 857.95 540.02 857.91 534.45 861.07 531.03 C 864.75 527.47 870.25 527.69 875.01 527.57 Z" />
</g>
<g id="#f30014ff">
<path fill="#f30014" opacity="1.00" d=" M 160.43 90.65 C 175.39 88.15 191.14 90.43 204.70 97.25 C 219.78 104.73 232.07 117.65 238.78 133.08 C 245.09 147.44 246.49 163.87 242.79 179.10 C 239.05 194.84 229.77 209.16 217.02 219.10 C 195.47 236.39 163.79 239.37 139.35 226.50 C 124.82 219.06 112.94 206.57 106.31 191.64 C 99.19 175.87 98.07 157.51 103.13 140.98 C 110.71 115.16 133.84 94.81 160.43 90.65 Z" />
<path fill="#f30014" opacity="1.00" d=" M 161.48 276.69 C 175.10 274.64 189.32 276.48 201.89 282.14 C 216.86 288.77 229.40 300.67 236.85 315.24 C 243.93 328.93 246.37 344.91 243.85 360.10 C 241.46 374.97 234.19 388.97 223.52 399.57 C 212.91 410.17 198.95 417.37 184.14 419.74 C 169.45 422.16 154.02 419.94 140.66 413.37 C 125.51 406.01 113.11 393.19 106.28 377.79 C 99.60 362.95 98.23 345.82 102.32 330.07 C 109.11 302.61 133.44 280.62 161.48 276.69 Z" />
</g>
<g id="#ffffffff">
<path fill="#ffffff" opacity="1.00" d=" M 423.57 100.81 C 452.59 97.75 482.47 103.09 508.53 116.27 C 538.12 131.10 562.64 155.77 577.26 185.47 C 593.82 218.67 597.52 257.96 587.76 293.73 C 579.18 325.64 559.85 354.49 533.73 374.71 C 505.37 396.91 468.97 408.48 432.99 406.78 C 398.29 405.43 364.27 391.71 338.29 368.68 C 315.18 348.40 298.35 321.03 290.88 291.18 C 283.40 261.61 284.92 229.81 295.35 201.13 C 306.07 171.40 326.29 145.23 352.28 127.26 C 373.31 112.63 398.08 103.43 423.57 100.81 M 430.62 200.76 C 416.92 203.04 404.31 210.97 396.24 222.26 C 388.60 232.79 385.10 246.18 386.51 259.11 C 387.96 273.74 395.87 287.53 407.67 296.28 C 418.52 304.47 432.59 308.20 446.08 306.52 C 460.88 304.82 474.73 296.51 483.28 284.33 C 491.72 272.54 494.95 257.22 492.07 243.02 C 489.35 228.93 480.61 216.18 468.53 208.47 C 457.45 201.27 443.63 198.51 430.62 200.76 Z" />
<path fill="#ffffff" opacity="1.00" d=" M 634.47 103.47 C 668.97 103.46 703.47 103.47 737.97 103.46 C 737.93 142.51 737.91 181.57 737.92 220.62 C 760.92 181.58 783.91 142.55 806.87 103.49 C 843.66 103.44 880.45 103.48 917.24 103.47 C 889.66 151.75 862.08 200.03 834.48 248.30 C 866.66 298.86 898.87 349.40 931.05 399.96 C 889.67 399.98 848.30 400.01 806.93 400.04 C 783.93 360.98 760.97 321.90 737.96 282.85 C 737.92 321.91 737.95 360.97 737.94 400.03 C 703.44 400.00 668.94 400.12 634.44 399.97 C 634.51 301.14 634.45 202.30 634.47 103.47 Z" />
<path fill="#ffffff" opacity="1.00" d=" M 671.04 457.12 C 674.23 457.13 677.42 457.13 680.62 457.14 C 680.61 460.49 680.64 463.84 680.58 467.19 C 668.35 479.25 656.26 491.45 644.10 503.58 C 656.32 518.10 668.74 532.47 680.85 547.08 C 681.42 550.04 680.95 553.15 681.08 556.17 C 677.61 556.16 674.14 556.15 670.67 556.21 C 658.47 541.99 646.44 527.62 634.30 513.35 C 630.93 516.71 627.60 520.09 624.20 523.40 C 624.12 535.11 624.10 546.83 624.22 558.54 C 619.59 558.73 614.97 558.59 610.35 558.63 C 610.35 526.45 610.36 494.26 610.35 462.08 C 614.94 462.06 619.54 462.07 624.15 462.07 C 624.15 476.05 624.15 490.04 624.15 504.02 C 639.76 488.37 655.44 472.78 671.04 457.12 Z" />
<path fill="#ffffff" opacity="1.00" d=" M 269.46 465.51 C 274.36 459.66 282.49 458.74 289.64 458.61 C 289.65 463.20 289.65 467.80 289.64 472.40 C 286.36 472.74 282.12 472.08 279.74 474.79 C 278.57 478.47 279.27 482.42 279.25 486.21 C 282.73 486.19 286.20 486.20 289.68 486.21 C 289.67 490.80 289.67 495.39 289.68 499.99 C 286.23 500.00 282.77 500.00 279.32 500.01 C 279.34 519.54 279.32 539.08 279.33 558.62 C 274.73 558.64 270.12 558.64 265.52 558.62 C 265.54 539.08 265.52 519.55 265.54 500.01 C 256.34 499.97 247.14 500.01 237.94 500.00 C 237.93 519.55 237.95 539.09 237.93 558.64 C 233.34 558.62 228.75 558.63 224.15 558.64 C 224.14 539.09 224.15 519.55 224.15 500.00 C 220.69 500.00 217.22 500.00 213.77 500.00 C 213.76 495.40 213.76 490.80 213.76 486.20 C 217.19 486.20 220.62 486.20 224.05 486.20 C 223.83 479.13 223.25 471.05 228.23 465.33 C 233.16 459.63 241.19 458.73 248.26 458.61 C 248.27 463.20 248.26 467.80 248.27 472.40 C 245.00 472.65 241.26 472.28 238.54 474.42 C 237.06 478.15 237.94 482.29 237.86 486.20 C 247.05 486.20 256.24 486.21 265.43 486.20 C 265.22 479.20 264.63 471.24 269.46 465.51 Z" />
<path fill="#ffffff" opacity="1.00" d=" M 152.56 459.76 C 163.06 457.72 174.28 459.98 183.20 465.88 C 195.58 473.82 203.54 487.66 205.55 502.10 C 207.48 515.28 204.74 529.21 197.46 540.42 C 190.33 551.66 178.29 560.03 164.91 561.41 C 152.18 562.96 139.11 557.93 130.13 548.91 C 112.68 531.86 109.70 502.75 122.17 482.01 C 128.65 470.85 139.76 462.18 152.56 459.76 M 154.50 473.74 C 144.10 475.88 135.62 483.94 131.48 493.53 C 124.39 509.33 128.16 529.97 141.96 540.96 C 148.95 546.68 158.66 549.01 167.43 546.66 C 177.29 544.16 185.21 536.39 189.20 527.21 C 196.27 511.51 192.61 491.05 179.05 479.98 C 172.35 474.38 163.09 471.86 154.50 473.74 Z" />
<path fill="#ffffff" opacity="1.00" d=" M 920.68 458.60 C 925.27 458.60 929.87 458.60 934.47 458.60 C 934.47 491.93 934.47 525.27 934.47 558.60 C 929.86 558.59 925.26 558.61 920.67 558.59 C 920.68 525.26 920.67 491.93 920.68 458.60 Z" />
<path fill="#ffffff" opacity="1.00" d=" M 313.93 483.89 C 320.92 480.03 329.57 479.26 337.09 482.04 C 345.04 484.82 351.43 491.05 355.43 498.36 C 360.48 507.20 361.43 517.61 361.02 527.60 C 343.55 527.61 326.08 527.58 308.60 527.61 C 310.10 534.51 313.67 541.44 319.94 545.10 C 324.27 547.78 329.99 547.97 334.46 545.51 C 339.67 542.85 343.10 537.76 345.21 532.46 C 349.51 534.04 353.81 535.64 358.11 537.24 C 355.12 545.09 349.93 552.33 342.64 556.70 C 335.54 561.11 326.47 562.31 318.55 559.52 C 310.43 556.86 303.89 550.58 299.82 543.18 C 292.71 530.26 292.31 513.92 298.59 500.60 C 301.88 493.67 307.12 487.53 313.93 483.89 M 320.93 495.77 C 314.09 499.22 310.16 506.53 308.63 513.79 C 321.30 513.74 333.98 513.95 346.66 513.68 C 344.97 506.98 341.65 500.21 335.57 496.51 C 331.26 493.71 325.48 493.35 320.93 495.77 Z" />
<path fill="#ffffff" opacity="1.00" d=" M 459.93 487.82 C 466.42 482.18 475.37 479.24 483.92 480.76 C 493.82 482.36 502.18 489.37 506.95 498.00 C 512.16 506.91 513.17 517.48 512.73 527.60 C 495.26 527.61 477.80 527.57 460.34 527.63 C 461.83 534.56 465.45 541.54 471.79 545.17 C 475.95 547.68 481.36 547.95 485.71 545.74 C 491.17 543.17 494.77 537.92 496.93 532.46 C 501.24 534.06 505.56 535.62 509.86 537.26 C 506.81 545.04 501.72 552.27 494.47 556.64 C 487.22 561.18 477.88 562.36 469.82 559.36 C 460.00 555.95 452.68 547.37 449.05 537.83 C 442.52 521.05 446.08 499.91 459.93 487.82 M 471.38 496.47 C 465.28 500.18 461.84 506.98 460.32 513.76 C 472.96 513.85 485.61 513.79 498.25 513.79 C 496.80 506.56 492.83 499.33 486.10 495.84 C 481.54 493.35 475.72 493.68 471.38 496.47 Z" />
<path fill="#ffffff" opacity="1.00" d=" M 537.92 489.03 C 544.03 484.99 551.29 482.86 558.61 482.75 C 558.62 487.34 558.60 491.92 558.62 496.52 C 550.94 496.61 543.22 500.45 539.18 507.09 C 538.21 508.54 537.80 510.27 537.90 512.01 C 537.92 527.56 537.92 543.12 537.91 558.67 C 533.31 558.66 528.72 558.66 524.13 558.67 C 524.12 534.52 524.10 510.38 524.12 486.23 C 528.71 486.23 533.31 486.24 537.90 486.23 C 537.91 486.93 537.91 488.33 537.92 489.03 Z" />
<path fill="#ffffff" opacity="1.00" d=" M 708.33 486.34 C 717.12 480.44 729.36 479.92 738.40 485.58 C 746.45 490.44 751.34 499.66 751.64 508.97 C 751.83 521.00 751.58 533.05 751.76 545.08 C 751.47 547.24 753.38 548.22 755.19 548.50 C 755.17 553.05 755.18 557.60 755.14 562.15 C 749.32 562.08 743.52 559.37 740.46 554.30 C 732.71 560.29 722.56 563.05 712.86 561.69 C 705.82 560.73 699.25 556.38 695.98 550.02 C 691.64 541.59 692.12 530.52 698.09 522.99 C 702.37 517.58 709.17 514.76 715.91 514.13 C 720.53 513.51 725.39 514.38 729.84 512.66 C 732.84 511.55 735.40 509.55 737.80 507.48 C 736.92 503.77 735.20 500.07 731.99 497.84 C 726.30 493.67 717.73 495.01 713.13 500.20 C 710.48 502.91 709.30 506.66 709.04 510.36 C 704.46 510.37 699.88 510.37 695.31 510.36 C 695.40 500.86 700.29 491.50 708.33 486.34 M 724.04 527.54 C 719.15 527.73 713.57 527.31 709.63 530.75 C 706.10 534.24 706.13 540.29 708.62 544.36 C 711.04 548.04 715.91 548.63 719.95 548.15 C 727.27 547.57 734.11 543.15 737.68 536.75 C 738.23 532.60 737.74 528.37 737.93 524.19 C 733.58 526.25 728.86 527.49 724.04 527.54 Z" />
<path fill="#ffffff" opacity="1.00" d=" M 867.80 482.75 C 875.70 480.42 884.68 481.64 891.44 486.44 C 898.75 491.50 903.09 500.23 903.37 509.04 C 903.61 521.23 903.26 533.42 903.53 545.60 C 903.43 547.56 905.32 548.18 906.92 548.48 C 906.92 553.03 906.87 557.59 906.88 562.14 C 901.06 562.09 895.25 559.38 892.20 554.31 C 884.48 560.23 874.44 563.01 864.79 561.73 C 857.99 560.84 851.58 556.84 848.16 550.84 C 843.75 543.13 843.66 532.98 848.21 525.30 C 852.06 518.72 859.50 515.02 866.90 514.22 C 871.09 513.59 875.38 514.15 879.54 513.28 C 883.37 512.41 886.61 510.02 889.52 507.49 C 888.44 501.34 883.50 495.65 876.96 495.42 C 868.48 494.53 860.78 501.97 860.76 510.38 C 856.18 510.36 851.61 510.37 847.04 510.36 C 846.98 497.90 855.76 486.07 867.80 482.75 M 875.01 527.57 C 870.25 527.69 864.75 527.47 861.07 531.03 C 857.91 534.45 857.95 540.02 860.09 543.97 C 862.24 547.72 866.98 548.62 870.97 548.20 C 878.59 547.83 885.90 543.30 889.49 536.55 C 889.89 532.44 889.51 528.30 889.68 524.19 C 885.09 526.36 880.09 527.58 875.01 527.57 Z" />
<path fill="#ffffff" opacity="1.00" d=" M 386.18 489.02 C 393.76 484.10 403.13 481.76 412.10 483.27 C 417.62 484.17 422.82 487.29 425.92 492.00 C 430.07 498.13 430.91 505.76 431.05 512.97 C 431.09 528.19 431.03 543.41 431.03 558.63 C 426.43 558.63 421.83 558.62 417.24 558.64 C 417.21 542.77 417.36 526.89 417.21 511.03 C 416.86 506.52 416.66 501.04 412.81 497.99 C 408.35 495.58 402.86 496.57 398.29 498.18 C 393.05 500.39 387.75 504.43 386.30 510.17 C 386.08 526.31 386.26 542.46 386.22 558.61 C 381.61 558.65 377.01 558.62 372.41 558.63 C 372.41 534.50 372.41 510.37 372.41 486.24 C 377.01 486.23 381.61 486.23 386.22 486.24 C 386.21 486.94 386.19 488.32 386.18 489.02 Z" />
<path fill="#ffffff" opacity="1.00" d=" M 784.48 489.00 C 792.25 483.98 801.91 481.62 811.07 483.40 C 816.57 484.46 821.62 487.79 824.57 492.58 C 828.57 498.94 829.23 506.68 829.32 514.01 C 829.28 528.88 829.29 543.75 829.30 558.62 C 824.69 558.64 820.09 558.63 815.49 558.62 C 815.52 544.41 815.46 530.20 815.53 515.99 C 815.49 510.91 815.61 505.56 813.44 500.85 C 812.48 498.67 810.37 497.14 808.03 496.84 C 799.74 495.55 790.90 499.44 786.21 506.38 C 785.27 507.78 784.42 509.35 784.51 511.10 C 784.49 526.94 784.51 542.78 784.50 558.63 C 779.90 558.63 775.30 558.64 770.70 558.62 C 770.72 534.49 770.67 510.36 770.71 486.23 C 775.31 486.24 779.91 486.23 784.51 486.24 C 784.50 486.93 784.49 488.31 784.48 489.00 Z" />
</g>
</svg>
