<?xml version="1.0" encoding="UTF-8" ?>
<!DOCTYPE svg PUBLIC "-//W3C//DTD SVG 1.1//EN" "http://www.w3.org/Graphics/SVG/1.1/DTD/svg11.dtd">
<svg width="1020pt" height="653pt" viewBox="0 0 1020 653" version="1.1" xmlns="http://www.w3.org/2000/svg">
<g id="#172983ff">
<path fill="#172983" opacity="1.00" d=" M 212.44 0.00 L 215.22 0.00 C 219.31 2.68 220.53 7.79 223.33 11.57 C 229.16 20.78 237.99 27.82 247.75 32.49 C 247.77 32.70 247.81 33.12 247.82 33.33 C 234.76 34.54 223.43 42.32 214.84 51.82 C 206.66 60.62 199.56 70.34 192.79 80.23 C 177.51 76.50 161.02 76.61 146.13 81.94 C 146.90 80.71 147.59 79.45 148.20 78.14 C 160.27 53.37 176.14 30.19 196.70 11.71 C 201.62 7.42 206.39 2.68 212.44 0.00 Z" />
<path fill="#172983" opacity="1.00" d=" M 263.60 84.77 C 278.17 81.48 293.99 84.42 306.55 92.47 C 312.97 96.53 318.17 102.19 323.00 107.98 C 330.68 117.36 336.63 128.76 337.12 141.07 C 337.69 153.69 332.30 165.93 324.33 175.49 C 313.32 188.26 296.61 195.28 279.95 196.27 C 265.32 197.18 249.84 193.08 238.97 182.88 C 229.47 173.96 224.77 160.90 224.22 148.07 C 223.46 131.95 228.20 115.65 237.25 102.32 C 243.34 93.35 253.07 87.14 263.60 84.77 Z" />
<path fill="#172983" opacity="1.00" d=" M 12.78 100.77 C 22.05 91.04 35.92 87.16 49.05 87.24 C 64.06 87.10 79.74 91.67 90.67 102.34 C 99.81 110.96 104.63 123.59 104.63 136.05 C 105.04 153.10 99.13 170.73 86.80 182.80 C 77.65 191.97 64.84 197.12 51.95 197.53 C 39.76 198.35 27.26 194.10 18.42 185.59 C 6.52 174.30 0.98 157.79 0.00 141.73 L 0.00 131.44 C 1.15 120.31 4.67 108.86 12.78 100.77 Z" />
<path fill="#172983" opacity="1.00" d=" M 494.62 87.83 C 518.03 85.56 541.89 86.19 564.93 91.19 C 585.17 95.71 604.48 104.46 621.17 116.79 C 634.79 126.82 646.97 139.43 654.18 154.89 C 659.48 166.59 662.88 179.14 664.42 191.89 C 666.94 215.85 666.10 239.97 666.25 264.02 C 665.70 280.39 665.67 296.99 661.62 312.98 C 658.70 324.52 654.56 335.95 647.77 345.83 C 639.20 358.40 627.58 368.61 614.98 377.00 C 596.44 389.29 575.12 397.27 553.12 400.46 C 531.56 403.61 509.56 403.67 487.96 400.84 C 464.68 397.80 442.05 389.51 422.58 376.35 C 407.68 366.28 394.07 353.51 385.73 337.38 C 376.81 319.65 373.32 299.72 372.81 280.03 C 371.96 255.70 371.90 231.32 372.94 207.01 C 373.82 181.06 380.31 153.80 398.16 134.11 C 422.80 107.02 458.39 91.11 494.62 87.83 M 513.06 155.15 C 502.02 156.31 490.80 160.91 483.71 169.73 C 477.94 176.82 475.68 185.96 474.51 194.84 C 472.60 208.14 472.39 221.60 472.12 235.00 C 472.14 254.00 471.90 273.07 474.16 291.98 C 475.19 299.52 476.42 307.26 480.20 313.99 C 485.35 323.84 495.43 330.28 505.99 333.00 C 520.34 336.52 536.48 334.52 548.56 325.67 C 555.94 320.31 560.81 312.01 562.77 303.18 C 565.74 290.01 566.18 276.43 566.61 262.98 C 566.81 241.36 567.22 219.66 564.84 198.13 C 563.56 187.07 561.12 175.20 552.84 167.11 C 542.55 156.91 527.10 153.65 513.06 155.15 Z" />
<path fill="#172983" opacity="1.00" d=" M 830.11 155.21 C 853.14 132.42 875.95 109.40 899.01 86.63 C 937.84 86.60 976.68 86.65 1015.51 86.61 C 995.38 106.72 974.58 126.24 954.19 146.12 C 930.63 169.00 906.81 191.66 883.41 214.68 C 929.03 277.22 974.31 340.02 1020.00 402.51 L 1020.00 402.77 C 983.04 403.00 946.06 402.83 909.10 402.86 L 908.52 402.52 C 882.39 364.30 855.74 326.37 829.87 288.01 C 829.87 254.67 829.87 221.34 829.87 188.00 C 830.03 177.08 829.55 166.06 830.11 155.21 Z" />
<path fill="#172983" opacity="1.00" d=" M 101.59 189.76 C 111.34 188.06 121.36 190.63 129.97 195.22 C 143.53 202.25 154.55 214.39 159.39 228.96 C 163.96 242.28 163.00 257.33 156.98 270.05 C 152.94 278.34 145.19 284.11 137.14 288.19 C 124.66 294.30 110.81 297.31 96.99 298.09 C 91.69 298.14 86.25 298.40 81.10 296.86 C 71.42 293.10 63.42 285.51 58.66 276.33 C 51.19 262.17 50.67 244.69 56.76 229.94 C 59.90 222.27 65.13 215.72 70.43 209.46 C 78.60 200.14 89.03 191.80 101.59 189.76 Z" />
<path fill="#172983" opacity="1.00" d=" M 225.05 197.20 C 235.87 195.49 247.62 196.09 257.23 201.83 C 267.68 207.99 274.24 218.92 278.21 230.08 C 283.68 246.75 280.89 265.38 272.81 280.74 C 266.46 292.80 256.45 303.41 243.64 308.56 C 235.85 310.90 227.60 308.57 220.29 305.66 C 207.47 300.23 195.86 291.77 187.00 281.01 C 180.02 272.66 176.22 261.82 176.24 250.96 C 175.98 232.52 186.16 214.40 201.89 204.84 C 208.88 200.48 217.01 198.53 225.05 197.20 Z" />
<path fill="#172983" opacity="1.00" d=" M 899.60 441.58 C 904.91 436.27 912.64 434.28 919.96 434.19 C 928.78 433.95 938.63 436.56 944.06 444.01 C 950.14 453.21 949.62 468.10 939.46 474.24 C 939.74 475.52 941.61 475.53 942.35 476.57 C 946.59 479.60 947.92 485.05 947.98 490.00 C 948.00 499.00 948.04 508.01 947.96 517.02 C 947.84 522.92 945.55 529.12 940.48 532.51 C 934.61 536.83 926.96 535.93 920.12 535.97 C 920.12 533.02 920.11 530.08 920.13 527.14 C 924.43 526.95 929.26 527.86 932.99 525.15 C 936.10 523.27 937.51 519.57 937.63 516.07 C 937.62 507.35 937.62 498.64 937.63 489.92 C 937.73 486.16 935.87 482.27 932.42 480.57 C 928.70 478.59 924.38 479.46 920.37 479.23 C 919.89 476.49 920.04 473.41 920.31 470.61 C 924.66 470.64 929.50 471.11 933.13 468.18 C 940.75 462.08 938.32 448.15 929.26 444.70 C 923.71 442.69 917.34 442.64 911.80 444.70 C 905.68 447.05 902.87 453.93 902.63 460.07 C 902.64 485.32 902.56 510.58 902.67 535.83 C 899.19 536.20 895.62 535.92 892.12 535.97 C 892.13 511.32 892.12 486.67 892.13 462.01 C 892.15 454.65 894.07 446.78 899.60 441.58 Z" />
<path fill="#172983" opacity="1.00" d=" M 372.35 435.31 C 376.17 434.88 380.09 435.23 383.94 435.13 C 389.60 458.14 395.11 481.18 400.71 504.21 C 401.54 508.09 402.80 511.90 403.31 515.85 C 404.22 514.69 404.28 513.19 404.75 511.85 C 411.71 486.35 418.68 460.86 425.67 435.37 C 428.80 434.93 432.36 434.99 435.52 435.35 C 442.70 461.85 450.04 488.31 457.21 514.82 L 457.86 515.02 C 464.26 488.38 470.77 461.78 477.17 435.14 C 481.05 435.14 484.93 435.04 488.81 435.20 C 480.15 468.79 471.63 502.41 463.00 536.00 C 459.62 536.00 456.25 536.00 452.87 536.00 C 445.44 509.27 438.10 482.52 430.61 455.81 C 423.76 479.81 417.24 503.93 410.52 527.97 C 409.60 530.58 409.34 533.54 408.08 535.97 C 404.76 536.01 401.45 536.03 398.14 535.97 C 389.54 502.41 381.06 468.83 372.35 435.31 Z" />
<path fill="#172983" opacity="1.00" d=" M 562.78 435.12 C 566.57 435.35 570.59 434.68 574.25 435.44 C 574.23 439.15 574.32 442.87 574.21 446.59 C 570.44 446.95 566.53 446.68 562.72 446.69 C 562.80 442.83 562.69 438.97 562.78 435.12 Z" />
<path fill="#172983" opacity="1.00" d=" M 732.61 444.87 C 736.06 444.87 739.52 444.88 742.99 444.86 C 743.08 452.17 742.85 459.49 743.10 466.79 C 747.98 466.70 752.86 466.79 757.74 466.73 C 757.69 469.36 757.84 472.00 757.69 474.63 C 752.79 474.61 747.90 474.63 743.01 474.62 C 742.99 489.10 743.00 503.59 743.00 518.07 C 743.11 521.05 744.32 524.35 747.08 525.86 C 750.34 527.65 754.19 526.96 757.75 527.15 C 757.75 530.07 757.72 533.00 757.78 535.92 C 751.79 536.05 745.20 536.57 739.98 533.07 C 735.11 529.74 732.75 523.73 732.67 517.99 C 732.52 503.55 732.75 489.10 732.56 474.67 C 729.66 474.55 726.76 474.64 723.87 474.63 C 723.87 472.00 723.87 469.37 723.87 466.74 C 726.78 466.74 729.70 466.77 732.62 466.73 C 732.62 459.44 732.64 452.15 732.61 444.87 Z" />
<path fill="#172983" opacity="1.00" d=" M 496.72 475.79 C 506.88 461.45 531.70 462.01 541.23 476.78 C 546.54 484.70 547.37 494.59 546.97 503.88 C 531.36 503.95 515.71 503.73 500.11 503.99 C 500.14 511.04 501.80 518.82 507.45 523.57 C 513.56 528.46 522.32 528.75 529.51 526.34 C 533.21 525.15 536.01 522.07 539.00 520.02 C 541.30 521.99 543.55 524.01 545.86 525.98 C 541.09 530.98 535.00 535.06 528.07 536.17 C 518.46 537.72 507.52 536.80 499.98 530.01 C 492.81 523.84 490.46 514.03 489.95 504.96 C 489.49 494.94 490.64 484.12 496.72 475.79 M 506.56 478.58 C 501.56 482.90 500.24 489.84 500.09 496.14 C 512.31 495.97 524.63 496.41 536.78 495.92 C 536.59 489.91 535.38 483.41 530.87 479.08 C 524.48 472.73 513.21 472.52 506.56 478.58 Z" />
<path fill="#172983" opacity="1.00" d=" M 563.27 466.26 C 566.71 466.25 570.16 466.21 573.62 466.28 C 573.67 489.46 573.55 512.64 573.68 535.81 C 570.24 536.22 566.69 535.95 563.23 535.94 C 563.30 512.71 563.21 489.48 563.27 466.26 Z" />
<path fill="#172983" opacity="1.00" d=" M 593.51 466.31 C 596.91 466.18 600.32 466.27 603.73 466.26 C 603.79 468.66 603.70 471.06 603.77 473.47 C 613.09 463.66 630.29 462.47 640.57 471.38 C 645.79 476.06 648.23 483.18 648.26 490.06 C 648.24 505.37 648.25 520.68 648.25 535.99 C 644.84 536.00 641.42 536.01 638.01 535.99 C 637.98 521.32 638.01 506.65 638.00 491.98 C 637.92 485.89 635.42 479.20 629.59 476.44 C 622.44 473.13 612.56 473.98 607.44 480.47 C 604.47 484.27 603.74 489.27 603.74 493.97 C 603.78 507.95 603.69 521.93 603.79 535.92 C 600.36 535.90 596.73 536.34 593.43 535.71 C 593.59 512.58 593.44 489.44 593.51 466.31 Z" />
<path fill="#172983" opacity="1.00" d=" M 665.32 478.19 C 668.36 470.70 676.45 466.70 684.11 465.78 C 693.36 464.78 703.21 465.91 711.36 470.66 C 712.31 471.42 713.78 471.77 714.23 473.04 C 712.44 475.50 709.92 477.41 707.88 479.70 C 701.44 474.84 692.92 473.48 685.07 474.48 C 680.97 474.98 676.62 476.96 674.83 480.90 C 672.81 485.23 673.73 491.44 678.33 493.74 C 683.14 496.14 688.70 495.70 693.91 496.38 C 700.70 496.76 708.10 497.83 713.26 502.70 C 718.00 507.76 718.51 515.59 716.69 521.99 C 714.11 530.44 705.31 535.00 697.09 536.21 C 684.61 537.93 670.42 536.27 661.04 527.05 C 662.46 524.47 665.42 521.77 667.85 520.06 C 673.46 526.05 682.03 528.18 690.01 527.88 C 695.68 527.81 702.27 526.74 705.89 521.88 C 708.34 517.98 708.50 512.18 705.08 508.80 C 701.57 505.58 696.50 505.65 692.05 505.21 C 684.57 504.50 676.31 504.60 670.03 499.84 C 663.46 494.97 662.50 485.39 665.32 478.19 Z" />
<path fill="#172983" opacity="1.00" d=" M 772.51 466.32 C 775.90 466.16 779.32 466.28 782.73 466.26 C 782.73 468.84 782.83 471.44 782.65 474.03 C 791.34 463.94 809.43 461.82 818.92 472.03 C 816.36 474.58 813.95 477.30 811.24 479.70 C 805.17 472.29 792.22 473.06 786.65 480.68 C 783.94 484.18 782.74 488.69 782.74 493.07 C 782.76 507.37 782.73 521.67 782.76 535.96 C 779.33 535.89 775.79 536.28 772.45 535.78 C 772.57 512.63 772.45 489.47 772.51 466.32 Z" />
<path fill="#172983" opacity="1.00" d=" M 822.63 475.94 C 826.92 469.16 835.15 465.76 843.00 465.54 C 851.51 465.14 860.96 465.61 867.95 471.08 C 873.09 475.08 875.23 481.80 875.18 488.13 C 875.35 504.08 875.19 520.04 875.26 536.00 C 871.79 535.99 868.33 536.02 864.88 535.98 C 864.86 533.89 864.85 531.80 864.94 529.72 C 860.78 533.40 855.74 536.24 850.09 536.57 C 842.64 536.98 834.42 537.21 827.96 532.85 C 819.95 527.47 818.06 516.01 821.69 507.51 C 824.62 500.77 831.88 497.12 838.91 496.43 C 847.53 495.72 856.22 496.38 864.86 496.06 C 864.79 490.18 865.80 483.32 861.35 478.66 C 856.49 474.01 849.13 474.07 842.87 474.50 C 837.61 474.83 832.75 477.64 829.79 481.99 C 827.09 480.65 825.14 477.76 822.63 475.94 M 832.82 507.86 C 829.33 511.77 829.09 517.98 831.49 522.50 C 834.53 527.31 840.85 527.90 846.02 527.92 C 852.03 528.14 858.97 526.97 862.68 521.70 C 865.79 516.33 864.66 509.87 864.86 503.96 C 858.28 503.76 851.67 503.94 845.08 503.87 C 840.76 503.89 835.99 504.67 832.82 507.86 Z" />
<path fill="#172983" opacity="1.00" d=" M 966.73 475.87 C 976.84 461.48 1001.70 461.96 1011.25 476.73 C 1016.62 484.65 1017.41 494.57 1017.11 503.86 C 1001.69 503.86 986.27 503.94 970.86 503.82 L 970.23 504.17 C 970.19 510.92 971.79 518.28 976.93 523.05 C 982.56 528.17 991.01 528.64 998.08 526.84 C 1002.40 525.82 1005.68 522.48 1009.07 520.05 C 1011.38 522.01 1013.71 523.98 1015.89 526.10 C 1009.73 532.65 1001.12 536.97 992.01 536.75 C 983.28 537.30 973.95 534.72 967.99 528.02 C 961.66 520.97 960.16 511.08 959.88 501.94 C 959.89 492.91 961.27 483.35 966.73 475.87 M 975.59 479.58 C 971.47 483.92 970.28 490.12 970.22 495.91 C 982.30 496.27 994.70 496.27 1006.78 495.91 C 1006.75 489.68 1005.27 482.90 1000.41 478.60 C 993.59 472.36 981.85 472.76 975.59 479.58 Z" />
</g>
<g id="#d10019ff">
<path fill="#d10019" opacity="1.00" d=" M 700.74 86.61 C 732.20 86.63 763.66 86.63 795.12 86.62 C 795.14 192.03 795.11 297.44 795.13 402.86 C 763.67 402.89 732.20 402.87 700.73 402.87 C 700.77 297.45 700.75 192.03 700.74 86.61 Z" />
<path fill="#d10019" opacity="1.00" d=" M 159.51 92.66 C 173.00 90.89 188.01 91.40 199.58 99.39 C 209.35 106.26 214.21 117.88 216.74 129.17 C 221.50 148.23 216.77 169.23 204.77 184.71 C 197.22 194.58 186.37 202.17 174.09 204.65 C 169.76 205.58 165.31 204.36 161.31 202.70 C 153.34 199.24 146.39 193.83 139.98 188.05 C 131.29 179.99 123.25 171.01 117.40 160.65 C 113.54 154.11 113.56 146.16 114.40 138.85 C 117.84 116.09 137.04 96.94 159.51 92.66 Z" />
<path fill="#d10019" opacity="1.00" d=" M 147.55 297.68 C 157.98 295.88 168.70 296.08 179.15 297.65 C 187.85 299.19 197.63 301.28 203.23 308.80 C 215.91 323.84 220.82 344.87 216.92 364.06 C 214.18 377.83 206.14 390.85 193.99 398.18 C 184.51 403.99 172.78 405.37 162.00 403.13 C 147.62 400.17 134.71 391.84 124.95 381.01 C 116.49 371.20 113.03 357.79 113.92 345.03 C 114.94 329.22 121.92 313.50 134.12 303.18 C 137.82 299.87 142.80 298.62 147.55 297.68 Z" />
<path fill="#d10019" opacity="1.00" d=" M 700.85 566.14 C 732.32 566.11 763.79 566.11 795.26 566.15 C 795.25 595.10 795.23 624.05 795.27 653.00 L 700.87 653.00 C 700.86 624.05 700.91 595.10 700.85 566.14 Z" />
</g>
</svg>
