<?xml version="1.0" encoding="UTF-8" ?>
<!DOCTYPE svg PUBLIC "-//W3C//DTD SVG 1.1//EN" "http://www.w3.org/Graphics/SVG/1.1/DTD/svg11.dtd">
<svg width="234pt" height="146pt" viewBox="0 0 234 146" version="1.1" xmlns="http://www.w3.org/2000/svg">
<g id="#dc2b19ff">
<path fill="#dc2b19" opacity="1.00" d=" M 15.14 0.00 L 18.65 0.00 C 20.41 0.69 22.29 1.00 24.16 1.21 C 26.97 3.14 29.96 5.06 31.83 7.99 C 33.64 11.05 34.61 14.57 35.00 18.08 C 34.77 20.99 33.41 23.67 32.55 26.44 C 31.44 27.77 30.40 29.16 29.44 30.60 C 26.96 32.07 24.38 33.35 21.94 34.87 C 17.24 35.05 12.19 35.41 8.00 32.85 C 3.93 30.40 2.03 25.87 0.00 21.82 L 0.00 13.31 C 1.13 10.99 2.15 8.60 3.56 6.44 C 6.76 3.28 10.72 0.97 15.14 0.00 Z" />
<path fill="#dc2b19" opacity="1.00" d=" M 7.44 48.54 C 12.60 44.74 19.66 45.62 25.46 47.29 C 31.69 50.79 35.29 57.95 34.99 65.00 C 34.14 69.16 31.92 72.97 29.13 76.12 C 26.21 79.28 21.76 80.05 17.72 80.70 C 9.81 80.80 2.94 75.00 0.00 67.91 L 0.00 59.27 C 0.48 58.03 0.96 56.79 1.44 55.55 C 3.20 53.02 4.92 50.38 7.44 48.54 Z" />
</g>
<g id="#585858ff">
<path fill="#585858" opacity="1.00" d=" M 91.21 0.00 L 100.79 0.00 C 104.52 1.19 108.41 1.74 112.14 2.92 C 119.16 5.61 125.31 10.19 130.13 15.94 C 138.47 28.89 141.12 46.53 133.25 60.32 C 130.46 66.44 125.67 71.46 119.94 74.92 C 108.56 82.74 93.35 84.15 80.45 79.54 C 75.70 77.13 70.33 75.41 66.84 71.15 C 61.18 66.04 57.47 59.06 55.27 51.84 C 52.77 43.49 54.22 34.66 56.51 26.46 C 58.84 21.68 60.61 16.34 64.85 12.84 C 68.33 8.79 73.04 6.19 77.72 3.79 C 82.01 1.86 86.77 1.46 91.21 0.00 M 91.31 26.09 C 89.08 27.95 86.41 29.35 84.61 31.69 C 80.08 38.52 81.46 48.89 88.12 53.85 C 91.67 56.64 96.48 55.97 100.70 55.92 C 103.18 54.05 105.76 52.29 107.85 49.97 C 109.05 46.72 108.56 43.12 109.99 39.96 C 109.10 38.19 108.92 36.23 108.85 34.28 C 106.88 30.84 104.02 28.24 100.74 26.10 C 97.60 25.99 94.45 25.99 91.31 26.09 Z" />
<path fill="#585858" opacity="1.00" d=" M 150.98 1.99 C 159.99 2.06 169.01 2.07 178.02 1.98 C 178.07 12.32 177.90 22.66 178.00 33.00 C 178.42 33.00 179.25 32.99 179.67 32.98 C 180.03 30.59 182.83 29.80 183.37 27.49 C 184.94 22.72 188.38 18.92 190.49 14.41 C 192.45 10.28 194.62 6.25 196.48 2.07 C 207.12 2.00 217.76 2.05 228.40 2.03 C 226.93 4.62 224.81 6.76 223.14 9.22 C 223.06 9.79 222.90 10.92 222.82 11.49 C 220.00 13.41 219.26 16.84 217.48 19.54 C 213.98 23.28 212.72 28.49 209.16 32.22 C 209.08 32.79 208.94 33.95 208.86 34.53 C 206.60 36.23 204.81 38.69 204.95 41.65 C 209.00 47.13 212.91 52.74 216.72 58.40 C 218.42 62.39 221.71 65.37 223.89 69.06 C 226.19 72.84 228.85 76.36 231.42 79.95 C 220.10 80.04 208.78 79.94 197.47 80.00 C 195.16 73.90 190.79 68.89 188.13 62.97 C 185.74 58.06 182.36 53.71 179.66 49.03 C 179.24 49.02 178.41 49.00 178.00 48.99 C 177.92 59.34 178.08 69.68 178.02 80.02 C 169.01 80.07 159.99 79.92 150.98 80.03 C 150.97 54.02 150.97 28.00 150.98 1.99 Z" />
<path fill="#585858" opacity="1.00" d=" M 95.01 97.98 L 95.50 97.98 C 95.46 104.04 95.78 110.11 95.30 116.16 C 94.58 110.13 95.12 104.04 95.01 97.98 Z" />
<path fill="#585858" opacity="1.00" d=" M 162.38 98.49 C 162.41 98.43 162.46 98.31 162.48 98.25 C 162.46 98.31 162.41 98.43 162.38 98.49 Z" />
<path fill="#585858" opacity="1.00" d=" M 115.97 107.18 C 116.32 105.17 115.08 102.39 117.01 100.98 C 119.99 100.42 121.60 103.53 121.16 106.10 C 119.50 106.73 117.74 107.05 115.97 107.18 M 117.05 101.70 C 117.02 103.13 117.00 104.56 117.00 105.99 C 117.75 106.00 119.24 106.00 119.99 106.00 C 119.99 105.29 120.00 103.87 120.00 103.16 C 119.02 102.66 118.03 102.17 117.05 101.70 Z" />
<path fill="#585858" opacity="1.00" d=" M 209.20 100.81 C 210.69 102.17 211.57 104.10 211.06 106.15 L 210.02 105.98 C 210.00 105.23 209.97 103.74 209.95 102.99 L 209.35 103.01 C 208.99 104.24 208.63 105.47 208.25 106.70 C 208.18 107.28 208.03 108.43 207.96 109.00 C 208.71 109.00 210.20 109.00 210.95 109.00 C 210.97 108.41 211.02 107.23 211.04 106.64 L 212.03 106.54 C 212.07 107.41 212.15 109.14 212.19 110.00 C 210.28 110.00 208.36 110.00 206.45 110.00 C 207.05 106.85 207.95 103.77 209.20 100.81 Z" />
<path fill="#585858" opacity="1.00" d=" M 14.34 102.41 C 14.42 102.46 14.58 102.57 14.66 102.63 L 14.49 102.54 L 14.34 102.41 Z" />
<path fill="#585858" opacity="1.00" d=" M 80.40 102.45 C 80.43 102.49 80.49 102.58 80.52 102.62 C 80.49 102.58 80.43 102.49 80.40 102.45 Z" />
<path fill="#585858" opacity="1.00" d=" M 163.87 106.77 C 163.74 104.55 164.50 102.47 165.86 100.75 C 167.26 103.67 168.06 106.81 168.49 110.01 C 166.60 110.00 164.72 110.00 162.84 110.00 C 162.93 109.01 163.12 107.02 163.22 106.03 L 163.90 107.01 C 163.97 107.51 164.10 108.50 164.17 109.00 C 164.89 109.00 166.33 109.00 167.05 109.00 C 166.97 108.42 166.81 107.28 166.73 106.70 C 166.35 105.48 166.00 104.24 165.67 103.00 L 165.32 103.00 C 165.07 104.35 164.59 105.61 163.87 106.77 Z" />
<path fill="#585858" opacity="1.00" d=" M 76.52 103.75 C 77.48 104.78 78.38 105.87 78.96 107.16 C 78.47 106.83 77.48 106.18 76.99 105.85 C 76.98 109.29 77.19 112.74 76.75 116.16 C 76.36 112.04 76.31 107.89 76.52 103.75 Z" />
<path fill="#585858" opacity="1.00" d=" M 142.87 104.37 L 143.59 104.12 C 143.89 104.42 144.47 105.02 144.76 105.32 C 144.29 107.10 142.19 105.75 142.87 104.37 Z" />
<path fill="#585858" opacity="1.00" d=" M 182.76 116.16 C 182.31 111.97 182.28 107.73 182.72 103.54 C 183.45 104.60 184.18 105.67 184.87 106.76 C 184.41 107.16 183.47 107.95 183.00 108.35 C 183.08 110.96 183.09 113.57 182.76 116.16 Z" />
<path fill="#585858" opacity="1.00" d=" M 85.37 107.17 L 86.10 107.41 C 86.74 108.78 84.72 110.12 84.17 108.41 C 84.47 108.10 85.07 107.48 85.37 107.17 Z" />
<path fill="#585858" opacity="1.00" d=" M 190.02 108.30 C 190.55 108.07 191.60 107.60 192.13 107.37 C 193.00 109.42 190.70 110.66 190.02 108.30 Z" />
<path fill="#585858" opacity="1.00" d=" M 79.45 108.43 C 79.49 108.48 79.57 108.57 79.61 108.62 C 79.57 108.57 79.49 108.48 79.45 108.43 Z" />
<path fill="#585858" opacity="1.00" d=" M 100.21 109.19 L 100.69 109.17 C 100.56 109.29 100.28 109.54 100.14 109.66 L 100.21 109.19 Z" />
<path fill="#585858" opacity="1.00" d=" M 99.90 111.31 C 101.37 111.05 101.94 111.64 101.59 113.08 C 100.26 113.18 99.69 112.59 99.90 111.31 Z" />
<path fill="#585858" opacity="1.00" d=" M 160.91 114.73 C 160.80 113.45 161.39 112.84 162.67 112.92 C 162.98 114.38 162.40 114.99 160.91 114.73 Z" />
<path fill="#585858" opacity="1.00" d=" M 4.53 114.37 C 4.56 114.41 4.63 114.48 4.66 114.51 C 4.63 114.48 4.56 114.41 4.53 114.37 Z" />
<path fill="#585858" opacity="1.00" d=" M 154.33 114.48 C 154.46 114.55 154.72 114.69 154.85 114.76 C 154.72 114.69 154.46 114.55 154.33 114.48 Z" />
<path fill="#585858" opacity="1.00" d=" M 199.58 115.95 C 199.65 115.82 199.78 115.57 199.85 115.44 L 199.58 115.95 Z" />
<path fill="#585858" opacity="1.00" d=" M 219.15 115.45 C 219.22 115.57 219.35 115.83 219.42 115.96 L 219.15 115.45 Z" />
<path fill="#585858" opacity="1.00" d=" M 45.31 127.36 L 45.51 127.34 C 45.45 127.39 45.35 127.50 45.29 127.56 L 45.31 127.36 Z" />
<path fill="#585858" opacity="1.00" d=" M 134.33 127.31 L 134.45 127.32 L 134.51 127.44 C 134.46 127.40 134.37 127.34 134.33 127.31 Z" />
<path fill="#585858" opacity="1.00" d=" M 187.45 127.36 L 187.62 127.38 L 187.64 127.57 C 187.60 127.52 187.50 127.41 187.45 127.36 Z" />
<path fill="#585858" opacity="1.00" d=" M 140.42 128.41 L 140.69 128.16 C 140.57 128.31 140.35 128.60 140.24 128.74 L 140.42 128.41 Z" />
<path fill="#585858" opacity="1.00" d=" M 49.23 133.98 C 48.05 132.88 49.42 130.05 51.02 130.95 C 50.86 132.15 50.06 133.14 49.23 133.98 Z" />
<path fill="#585858" opacity="1.00" d=" M 136.94 132.31 C 137.48 131.98 138.57 131.31 139.12 130.98 C 139.56 132.34 137.51 134.38 136.94 132.31 Z" />
<path fill="#585858" opacity="1.00" d=" M 181.28 131.34 L 181.64 131.28 C 181.54 131.40 181.33 131.64 181.23 131.76 L 181.28 131.34 Z" />
<path fill="#585858" opacity="1.00" d=" M 223.40 131.55 C 223.44 131.52 223.52 131.46 223.56 131.43 C 223.52 131.46 223.44 131.52 223.40 131.55 Z" />
<path fill="#585858" opacity="1.00" d=" M 95.43 134.50 C 95.47 134.52 95.55 134.57 95.59 134.59 L 95.51 134.55 L 95.43 134.50 Z" />
<path fill="#585858" opacity="1.00" d=" M 223.44 135.48 C 223.48 135.52 223.55 135.58 223.59 135.61 C 223.55 135.58 223.48 135.52 223.44 135.48 Z" />
<path fill="#585858" opacity="1.00" d=" M 232.52 135.43 L 232.61 135.19 L 232.56 135.47 L 232.35 135.64 L 232.52 135.43 Z" />
<path fill="#585858" opacity="1.00" d=" M 57.35 138.62 C 57.43 138.57 57.59 138.46 57.67 138.41 C 57.59 138.46 57.43 138.57 57.35 138.62 Z" />
<path fill="#585858" opacity="1.00" d=" M 223.41 139.64 C 223.49 139.67 223.64 139.73 223.72 139.76 L 223.38 139.79 L 223.41 139.64 Z" />
<path fill="#585858" opacity="1.00" d=" M 229.39 139.19 C 229.42 139.35 229.49 139.67 229.53 139.83 L 229.35 139.53 L 229.39 139.19 Z" />
<path fill="#585858" opacity="1.00" d=" M 181.29 141.45 C 181.34 141.50 181.45 141.60 181.50 141.65 L 181.31 141.62 L 181.29 141.45 Z" />
<path fill="#585858" opacity="1.00" d=" M 232.00 144.12 C 232.28 144.59 232.84 145.53 233.12 146.00 L 232.31 146.00 C 232.23 145.53 232.08 144.59 232.00 144.12 Z" />
<path fill="#585858" opacity="1.00" d=" M 222.35 146.00 C 222.44 145.96 222.62 145.88 222.70 145.84 L 222.69 146.00 L 222.35 146.00 Z" />
</g>
<g id="#1a1715ff">
<path fill="#1a1715" opacity="1.00" d=" M 0.97 108.02 C 0.94 103.84 3.65 100.40 6.85 97.99 C 9.52 98.02 12.21 97.84 14.87 98.17 C 19.14 99.38 21.97 103.65 22.05 107.99 C 21.55 111.47 18.59 113.77 16.16 116.00 C 12.37 115.59 7.85 117.18 4.66 114.51 C 4.63 114.48 4.56 114.41 4.53 114.37 C 3.12 112.42 1.33 110.48 0.97 108.02 M 5.95 104.06 C 6.00 105.98 6.02 107.90 6.03 109.83 C 7.08 110.88 8.12 111.93 9.17 112.99 C 10.71 112.98 12.26 112.98 13.81 112.98 C 14.85 111.95 15.90 110.92 16.95 109.90 C 16.98 107.90 17.01 105.90 17.05 103.90 C 16.45 103.58 15.26 102.95 14.66 102.63 C 14.58 102.57 14.42 102.46 14.34 102.41 C 11.90 99.24 8.12 102.09 5.95 104.06 Z" />
<path fill="#1a1715" opacity="1.00" d=" M 25.98 97.98 C 29.66 97.97 33.34 97.97 37.02 97.98 C 37.02 98.73 37.02 100.23 37.02 100.98 C 35.11 100.98 33.21 100.99 31.30 101.00 C 30.80 102.02 30.30 103.04 29.79 104.06 C 31.97 105.31 34.52 104.99 36.93 105.13 C 36.92 106.39 36.90 107.65 36.88 108.90 C 34.59 108.98 32.29 109.01 30.00 109.03 C 29.99 111.35 29.99 113.68 29.98 116.01 C 28.64 116.00 27.31 115.99 25.98 115.98 C 25.98 109.98 25.98 103.98 25.98 97.98 Z" />
<path fill="#1a1715" opacity="1.00" d=" M 40.98 98.01 C 44.59 97.97 48.21 97.97 51.82 97.98 C 51.97 98.74 52.28 100.26 52.43 101.02 C 50.29 101.00 48.15 100.99 46.01 100.98 C 46.00 102.30 46.00 103.63 46.00 104.95 C 47.97 104.99 49.94 105.04 51.91 105.13 C 51.90 106.38 51.89 107.63 51.87 108.89 C 49.91 108.96 47.96 109.00 46.00 109.04 C 46.01 111.36 46.02 113.68 46.02 116.01 C 44.34 116.00 42.66 115.99 40.98 115.98 C 40.97 109.99 40.97 104.00 40.98 98.01 Z" />
<path fill="#1a1715" opacity="1.00" d=" M 55.98 97.98 C 59.99 97.98 64.01 97.98 68.02 97.98 C 68.02 98.74 68.02 100.27 68.02 101.03 C 65.99 101.01 63.96 100.98 61.93 100.92 C 61.52 101.96 60.17 103.46 61.61 104.35 C 63.02 105.62 65.27 104.73 67.02 105.02 C 67.02 106.35 67.02 107.67 67.02 108.99 C 64.96 109.00 62.91 109.00 60.86 109.01 C 60.93 109.71 61.08 111.12 61.15 111.82 C 62.62 113.91 65.65 112.71 67.82 113.16 C 67.89 113.87 68.02 115.29 68.08 116.00 C 64.05 115.99 60.01 115.99 55.98 115.99 C 55.97 109.99 55.97 103.99 55.98 97.98 Z" />
<path fill="#1a1715" opacity="1.00" d=" M 72.00 97.97 C 73.52 97.98 75.04 98.00 76.57 98.01 C 77.84 99.50 79.18 100.92 80.40 102.45 C 80.43 102.49 80.49 102.58 80.52 102.62 C 81.68 104.58 82.80 106.58 84.17 108.41 C 84.72 110.12 86.74 108.78 86.10 107.41 C 85.94 104.28 85.96 101.15 85.98 98.02 C 87.66 98.00 89.34 97.98 91.02 97.97 C 91.03 103.98 91.03 109.98 91.02 115.99 C 89.11 115.99 87.20 116.00 85.30 116.00 C 83.54 113.43 81.77 110.86 79.61 108.62 C 79.57 108.57 79.49 108.48 79.45 108.43 L 78.96 107.16 C 78.38 105.87 77.48 104.78 76.52 103.75 C 76.31 107.89 76.36 112.04 76.75 116.16 C 75.16 116.08 73.57 116.00 71.98 115.92 C 71.99 109.94 71.82 103.96 72.00 97.97 Z" />
<path fill="#1a1715" opacity="1.00" d=" M 95.50 97.98 C 99.34 97.98 103.18 97.98 107.02 97.98 C 107.02 98.74 107.02 100.24 107.02 100.99 C 104.64 101.24 99.44 99.77 100.01 103.75 C 101.31 105.75 103.92 104.75 105.89 105.02 C 106.04 106.34 106.20 107.66 106.36 108.99 C 104.47 109.03 102.58 109.09 100.69 109.17 L 100.21 109.19 L 100.14 109.66 L 99.90 111.31 C 99.69 112.59 100.26 113.18 101.59 113.08 C 103.40 113.04 105.21 113.00 107.02 112.97 C 107.02 113.73 107.02 115.24 107.02 116.00 C 103.11 115.97 99.20 115.92 95.30 116.16 C 95.78 110.11 95.46 104.04 95.50 97.98 Z" />
<path fill="#1a1715" opacity="1.00" d=" M 111.99 98.01 C 115.37 97.98 118.75 97.98 122.14 97.95 C 123.11 98.93 124.08 99.91 125.05 100.90 C 125.02 102.78 124.99 104.66 124.95 106.55 C 123.94 107.66 121.99 108.39 121.95 110.11 C 123.11 112.06 124.40 113.94 125.31 116.04 C 122.36 116.47 118.36 115.90 118.78 111.99 C 117.85 111.23 116.92 110.47 116.00 109.72 C 116.00 111.80 116.01 113.89 116.02 115.97 C 114.69 115.98 113.35 115.99 112.02 116.00 C 112.00 110.01 111.96 104.01 111.99 98.01 M 115.97 107.18 C 117.74 107.05 119.50 106.73 121.16 106.10 C 121.60 103.53 119.99 100.42 117.01 100.98 C 115.08 102.39 116.32 105.17 115.97 107.18 Z" />
<path fill="#1a1715" opacity="1.00" d=" M 138.14 98.12 C 139.77 98.05 141.40 97.99 143.03 97.94 C 143.02 100.08 142.99 102.23 142.87 104.37 C 142.19 105.75 144.29 107.10 144.76 105.32 C 146.22 102.81 148.20 100.65 149.63 98.11 C 151.44 98.03 153.25 97.97 155.06 97.91 C 153.22 100.47 151.40 103.08 149.02 105.19 C 149.03 105.81 149.07 107.06 149.08 107.68 C 150.80 109.97 152.43 112.33 154.33 114.48 C 154.46 114.55 154.72 114.69 154.85 114.76 C 156.69 115.32 157.18 112.82 157.75 111.61 C 159.12 107.17 160.74 102.83 162.38 98.49 C 162.41 98.43 162.46 98.31 162.48 98.25 C 164.55 97.83 166.67 97.98 168.76 97.97 C 170.50 104.13 173.24 109.93 175.13 116.04 C 173.58 115.99 172.03 115.94 170.48 115.89 C 170.01 114.93 169.53 113.97 169.06 113.01 C 166.93 113.00 164.80 112.96 162.67 112.92 C 161.39 112.84 160.80 113.45 160.91 114.73 L 160.97 116.00 C 157.30 115.93 153.62 116.18 149.96 115.88 C 147.04 114.16 146.66 109.49 143.03 108.69 C 142.99 111.12 143.00 113.55 143.02 115.98 C 141.33 115.99 139.66 116.00 137.98 116.01 C 138.04 110.05 137.81 104.08 138.14 98.12 M 163.87 106.77 L 163.90 107.01 L 163.22 106.03 C 163.12 107.02 162.93 109.01 162.84 110.00 C 164.72 110.00 166.60 110.00 168.49 110.01 C 168.06 106.81 167.26 103.67 165.86 100.75 C 164.50 102.47 163.74 104.55 163.87 106.77 Z" />
<path fill="#1a1715" opacity="1.00" d=" M 177.98 97.97 C 179.52 97.98 181.06 97.99 182.61 98.00 C 185.42 101.17 187.69 104.77 190.02 108.30 C 190.70 110.66 193.00 109.42 192.13 107.37 C 191.88 104.25 191.97 101.12 191.99 97.99 C 193.66 97.99 195.34 97.98 197.02 97.97 C 197.03 103.98 197.02 109.98 197.00 115.98 C 195.26 116.01 193.51 116.04 191.77 116.08 C 189.62 112.85 186.69 110.21 184.87 106.76 C 184.18 105.67 183.45 104.60 182.72 103.54 C 182.28 107.73 182.31 111.97 182.76 116.16 C 181.17 116.08 179.59 116.01 178.01 115.94 C 177.96 109.95 177.98 103.96 177.98 97.97 Z" />
<path fill="#1a1715" opacity="1.00" d=" M 206.20 97.99 C 208.40 97.98 210.60 97.98 212.80 97.99 C 214.82 103.84 216.19 109.97 219.15 115.45 L 219.42 115.96 C 217.78 115.95 216.14 115.93 214.50 115.91 C 214.01 114.93 213.52 113.94 213.03 112.97 C 210.68 112.99 208.33 112.99 205.99 112.97 C 205.47 113.96 204.95 114.95 204.45 115.95 C 202.82 115.95 201.20 115.95 199.58 115.95 L 199.85 115.44 C 202.80 109.97 204.19 103.84 206.20 97.99 M 209.20 100.81 C 207.95 103.77 207.05 106.85 206.45 110.00 C 208.36 110.00 210.28 110.00 212.19 110.00 C 212.15 109.14 212.07 107.41 212.03 106.54 L 211.04 106.64 L 211.06 106.15 C 211.57 104.10 210.69 102.17 209.20 100.81 Z" />
<path fill="#1a1715" opacity="1.00" d=" M 222.01 97.98 C 223.67 97.98 225.34 97.98 227.02 97.98 C 227.12 102.57 226.84 107.17 227.11 111.76 C 228.30 113.84 231.03 112.71 232.97 113.04 C 232.98 113.78 233.00 115.26 233.01 115.99 C 229.34 115.99 225.67 115.99 222.01 115.99 C 221.96 109.99 221.96 103.98 222.01 97.98 Z" />
<path fill="#1a1715" opacity="1.00" d=" M 4.37 127.32 C 7.40 126.47 10.59 126.97 13.61 127.64 C 13.39 128.42 12.94 129.98 12.72 130.77 C 10.32 130.09 5.38 128.77 5.95 132.89 C 8.92 134.68 12.77 134.87 15.10 137.73 C 15.08 139.24 15.07 140.76 15.08 142.28 C 13.55 143.70 11.90 145.00 10.06 146.00 L 5.06 146.00 C 3.77 145.29 2.41 144.64 1.31 143.64 C 0.67 142.21 2.17 141.57 3.13 140.91 C 4.64 141.41 6.05 142.18 7.48 142.89 C 8.84 142.19 10.19 141.47 11.54 140.75 C 8.97 137.70 4.94 136.87 1.69 134.81 C 2.09 132.21 2.18 129.15 4.37 127.32 Z" />
<path fill="#1a1715" opacity="1.00" d=" M 45.51 127.34 C 49.06 126.97 52.89 126.35 56.31 127.67 C 60.48 129.40 61.36 135.67 57.67 138.41 C 57.59 138.46 57.43 138.57 57.35 138.62 C 55.07 139.72 52.53 139.98 50.05 140.19 C 49.99 142.12 49.93 144.06 49.86 146.00 L 44.98 146.00 C 45.12 139.85 44.63 133.68 45.29 127.56 C 45.35 127.50 45.45 127.39 45.51 127.34 M 49.23 133.98 L 48.52 134.75 C 49.80 135.66 51.32 135.99 52.86 136.20 C 54.26 134.72 55.87 132.88 54.15 130.95 C 53.37 130.95 51.80 130.95 51.02 130.95 C 49.42 130.05 48.05 132.88 49.23 133.98 Z" />
<path fill="#1a1715" opacity="1.00" d=" M 90.02 126.98 C 93.68 126.97 97.35 126.97 101.02 126.98 C 101.02 128.29 101.02 129.61 101.02 130.92 C 98.50 130.94 95.94 131.02 93.55 131.90 C 94.02 132.55 94.96 133.85 95.43 134.50 L 95.51 134.55 L 95.59 134.59 C 97.39 134.85 99.21 135.01 101.02 135.17 C 101.02 135.87 101.02 137.25 101.02 137.94 C 98.68 138.23 93.37 136.86 94.02 140.77 C 95.64 142.89 98.72 141.68 101.00 142.05 C 101.01 143.37 101.02 144.68 101.03 146.00 L 90.01 146.00 C 90.00 139.66 90.00 133.32 90.02 126.98 Z" />
<path fill="#1a1715" opacity="1.00" d=" M 128.54 126.92 C 130.47 127.00 132.41 127.07 134.33 127.31 C 134.37 127.34 134.46 127.40 134.51 127.44 C 135.38 129.03 136.16 130.67 136.94 132.31 C 137.51 134.38 139.56 132.34 139.12 130.98 C 139.40 130.42 139.96 129.30 140.24 128.74 C 140.35 128.60 140.57 128.31 140.69 128.16 C 141.00 127.89 141.62 127.34 141.93 127.07 C 143.49 126.98 145.06 126.95 146.63 126.92 C 145.19 129.65 143.60 132.32 141.69 134.76 C 138.99 137.88 140.23 142.26 140.03 146.00 L 136.02 146.00 C 136.01 143.11 135.99 140.21 135.96 137.32 C 133.40 133.92 130.71 130.59 128.54 126.92 Z" />
<path fill="#1a1715" opacity="1.00" d=" M 175.98 126.99 C 179.80 126.96 183.65 126.77 187.45 127.36 C 187.50 127.41 187.60 127.52 187.64 127.57 C 187.76 128.37 187.99 129.97 188.10 130.77 C 185.95 130.94 183.79 131.05 181.64 131.28 L 181.28 131.34 L 181.23 131.76 C 180.00 135.61 184.66 135.05 187.02 135.10 C 187.02 135.79 187.02 137.18 187.02 137.87 C 184.59 137.87 179.76 137.55 181.29 141.45 L 181.31 141.62 L 181.50 141.65 C 183.60 141.93 185.72 142.05 187.84 142.19 C 187.93 143.46 188.02 144.73 188.12 146.00 L 176.24 146.00 C 175.71 139.68 176.07 133.33 175.98 126.99 Z" />
<path fill="#1a1715" opacity="1.00" d=" M 219.01 126.99 C 221.70 126.98 224.39 126.86 227.07 127.07 C 229.63 127.20 231.38 129.31 233.25 130.80 C 233.08 132.27 232.87 133.73 232.61 135.19 L 232.52 135.43 L 232.35 135.64 C 231.32 136.77 229.21 137.34 229.39 139.19 L 229.35 139.53 L 229.53 139.83 C 230.36 141.25 231.19 142.68 232.00 144.12 C 232.08 144.59 232.23 145.53 232.31 146.00 L 228.17 146.00 C 227.12 144.12 226.33 142.12 225.63 140.09 C 225.15 140.01 224.20 139.84 223.72 139.76 C 223.64 139.73 223.49 139.67 223.41 139.64 L 223.38 139.79 C 223.06 141.80 222.88 143.82 222.70 145.84 C 222.62 145.88 222.44 145.96 222.35 146.00 L 219.02 146.00 C 219.00 139.66 219.01 133.33 219.01 126.99 M 223.40 131.55 C 223.41 132.53 223.43 134.50 223.44 135.48 C 223.48 135.52 223.55 135.58 223.59 135.61 C 225.11 136.46 228.18 136.28 228.02 133.96 C 228.79 131.25 225.52 130.14 223.56 131.43 C 223.52 131.46 223.44 131.52 223.40 131.55 Z" />
</g>
</svg>
