<?xml version="1.0" encoding="UTF-8" ?>
<!DOCTYPE svg PUBLIC "-//W3C//DTD SVG 1.1//EN" "http://www.w3.org/Graphics/SVG/1.1/DTD/svg11.dtd">
<svg width="900pt" height="900pt" viewBox="0 0 900 900" version="1.1" xmlns="http://www.w3.org/2000/svg">
<g id="#00517bff">
<path fill="#00517b" opacity="1.00" d=" M 168.12 89.45 C 176.87 86.95 185.99 86.22 195.05 85.71 C 364.68 85.70 534.31 85.72 703.94 85.70 C 724.05 85.37 744.38 89.93 761.80 100.17 C 792.50 117.72 813.72 150.05 819.04 184.86 C 821.53 197.74 820.35 210.91 820.62 223.94 C 820.62 323.29 820.62 422.65 820.62 522.01 C 820.11 537.75 823.72 553.21 826.72 568.56 C 833.35 598.87 841.09 628.93 849.56 658.77 C 840.98 658.49 832.52 656.91 823.97 656.42 C 793.05 653.32 762.08 650.67 731.08 648.62 C 718.06 648.01 705.06 647.51 692.03 647.76 C 525.71 647.74 359.39 647.78 193.07 647.74 C 157.69 647.44 123.99 627.53 104.48 598.37 C 89.19 576.14 82.19 548.82 83.35 521.97 C 83.34 415.65 83.35 309.33 83.34 203.00 C 83.64 177.42 92.01 151.92 107.33 131.38 C 122.19 111.20 143.80 95.85 168.12 89.45 M 259.22 187.28 C 245.21 187.61 231.35 191.98 219.56 199.53 C 203.97 209.57 191.99 225.23 186.82 243.08 C 183.99 252.10 183.38 261.63 183.60 271.03 C 183.61 340.03 183.61 409.04 183.61 478.04 C 183.55 506.57 200.74 534.13 226.24 546.82 C 238.14 552.94 251.64 555.73 264.98 555.39 C 381.97 555.39 498.97 555.38 615.96 555.40 C 632.89 555.73 649.97 550.71 663.73 540.75 C 679.11 529.88 690.27 513.19 694.41 494.82 C 697.25 483.77 696.26 472.28 696.44 461.00 C 696.44 400.34 696.44 339.68 696.44 279.02 C 696.36 268.87 697.01 258.57 694.63 248.60 C 691.34 233.24 683.18 219.01 671.68 208.32 C 657.38 194.74 637.70 187.01 617.98 187.24 C 498.39 187.27 378.80 187.19 259.22 187.28 Z" />
<path fill="#00517b" opacity="1.00" d=" M 122.64 663.61 C 125.39 662.96 128.71 663.03 130.68 665.37 C 137.73 672.70 130.11 687.57 119.93 685.71 C 116.50 685.00 113.96 681.51 113.92 678.06 C 113.15 671.98 116.97 665.80 122.64 663.61 Z" />
<path fill="#00517b" opacity="1.00" d=" M 143.62 663.72 C 146.82 662.64 150.72 663.32 152.76 666.21 C 158.96 674.37 149.94 688.86 139.74 685.31 C 131.42 680.24 135.40 666.77 143.62 663.72 Z" />
<path fill="#00517b" opacity="1.00" d=" M 124.22 692.09 C 131.01 690.45 139.06 690.56 144.65 695.31 C 150.56 700.16 153.29 707.80 154.42 715.16 C 156.61 730.72 153.98 746.91 147.13 761.04 C 143.26 768.92 137.58 776.42 129.47 780.24 C 121.78 783.70 111.79 783.55 105.25 777.77 C 99.59 772.88 97.26 765.41 95.91 758.30 C 93.77 741.97 96.75 725.03 104.38 710.44 C 108.70 702.40 115.23 694.82 124.22 692.09 M 125.57 709.67 C 120.86 711.64 118.80 716.81 117.21 721.30 C 114.60 729.92 113.61 738.93 112.80 747.87 C 112.61 752.30 112.78 757.07 114.89 761.07 C 116.95 764.82 122.13 765.57 125.65 763.54 C 129.17 761.69 131.04 757.93 132.48 754.41 C 135.61 745.92 136.46 736.86 137.44 727.93 C 137.84 722.97 137.89 717.73 135.88 713.09 C 134.19 709.29 129.20 707.77 125.57 709.67 Z" />
<path fill="#00517b" opacity="1.00" d=" M 170.06 693.28 C 177.72 693.24 185.38 693.23 193.04 693.28 C 199.83 693.33 207.03 695.26 211.99 700.12 C 217.02 705.28 217.99 713.02 217.20 719.90 C 216.34 731.49 209.60 742.54 199.66 748.59 C 193.85 752.17 186.42 753.77 179.94 751.05 C 178.57 760.88 177.42 770.75 175.73 780.54 C 169.84 780.48 163.95 780.52 158.06 780.51 C 161.65 751.39 166.23 722.38 170.06 693.28 M 182.44 734.08 C 184.88 734.92 187.51 736.06 190.09 735.00 C 194.68 733.80 197.42 729.30 198.40 724.93 C 199.30 721.20 200.05 716.80 197.58 713.51 C 194.67 710.08 189.75 710.66 185.73 710.52 C 184.46 718.35 183.56 726.23 182.44 734.08 Z" />
<path fill="#00517b" opacity="1.00" d=" M 228.50 693.23 C 237.02 693.36 245.54 693.07 254.05 693.39 C 261.44 693.97 269.42 697.10 273.10 703.96 C 276.10 709.13 275.96 715.31 275.51 721.09 C 273.95 733.45 266.12 745.23 254.58 750.35 C 249.50 752.54 243.42 753.51 238.34 750.81 C 237.09 760.71 235.45 770.56 234.28 780.48 C 228.25 780.53 222.23 780.50 216.20 780.50 C 220.28 751.41 224.30 722.31 228.50 693.23 M 240.69 734.06 C 245.44 736.72 251.66 735.12 254.45 730.43 C 256.97 725.89 258.49 720.23 256.95 715.14 C 254.58 710.25 248.60 710.46 243.98 710.53 C 243.09 718.40 241.73 726.21 240.69 734.06 Z" />
<path fill="#00517b" opacity="1.00" d=" M 322.44 693.24 C 328.48 693.27 334.53 693.21 340.58 693.29 C 336.11 722.32 332.49 751.47 328.09 780.51 C 322.63 780.51 317.16 780.49 311.70 780.53 C 307.31 763.56 303.40 746.48 298.92 729.54 C 299.16 738.38 297.37 747.09 296.23 755.83 C 294.97 764.05 294.09 772.33 292.67 780.53 C 286.64 780.46 280.60 780.58 274.57 780.45 C 279.12 751.44 282.73 722.29 287.06 693.25 C 293.52 693.24 299.98 693.28 306.44 693.23 C 309.26 704.91 312.05 716.60 314.82 728.29 C 315.65 731.59 315.80 735.01 315.98 738.40 C 318.40 723.39 320.22 708.29 322.44 693.24 Z" />
<path fill="#00517b" opacity="1.00" d=" M 368.22 693.31 C 374.25 693.22 380.28 693.22 386.31 693.31 C 388.78 722.41 392.39 751.42 394.84 780.52 C 388.66 780.51 382.48 780.50 376.30 780.52 C 375.80 774.53 375.27 768.53 375.18 762.52 C 370.15 762.46 365.12 762.46 360.09 762.51 C 358.22 768.54 355.74 774.36 353.99 780.43 C 347.69 780.58 341.39 780.50 335.09 780.48 C 346.06 751.40 357.35 722.43 368.22 693.31 M 364.42 746.16 C 368.08 746.17 371.74 746.17 375.41 746.16 C 374.38 737.48 374.56 728.69 373.39 720.03 C 370.69 728.84 367.37 737.43 364.42 746.16 Z" />
<path fill="#00517b" opacity="1.00" d=" M 449.75 693.25 C 455.75 693.26 461.75 693.24 467.75 693.26 C 466.25 702.98 465.06 712.75 463.61 722.48 C 469.26 712.68 475.35 703.13 481.00 693.33 C 487.79 693.19 494.58 693.25 501.37 693.29 C 491.68 707.81 482.22 722.48 472.55 737.01 C 477.83 747.48 483.11 757.96 488.50 768.38 C 490.92 772.08 488.78 776.51 488.44 780.52 C 483.25 780.49 478.07 780.53 472.88 780.49 C 468.60 770.59 463.88 760.89 459.67 750.96 C 458.02 760.78 457.01 770.69 455.42 780.52 C 449.40 780.49 443.37 780.53 437.35 780.49 C 441.69 751.44 445.48 722.31 449.75 693.25 Z" />
<path fill="#00517b" opacity="1.00" d=" M 522.78 693.24 C 528.72 693.26 534.66 693.26 540.60 693.24 C 543.60 722.32 546.43 751.43 549.56 780.50 C 543.29 780.52 537.02 780.51 530.76 780.51 C 530.42 774.48 529.66 768.49 529.45 762.47 C 524.53 762.48 519.61 762.50 514.70 762.45 C 512.48 768.44 510.41 774.49 508.28 780.51 C 502.05 780.50 495.83 780.53 489.60 780.49 C 500.54 751.36 511.77 722.34 522.78 693.24 M 528.08 719.93 C 525.06 728.68 521.82 737.35 518.98 746.15 C 522.55 746.17 526.11 746.16 529.68 746.17 C 529.47 737.41 528.45 728.69 528.08 719.93 Z" />
<path fill="#00517b" opacity="1.00" d=" M 568.37 693.23 C 574.84 693.27 581.31 693.25 587.78 693.25 C 591.33 708.28 595.50 723.20 597.97 738.47 C 598.99 723.31 602.00 708.36 603.76 693.27 C 609.78 693.24 615.80 693.26 621.83 693.26 C 617.71 722.34 613.70 751.44 609.53 780.52 C 604.00 780.49 598.48 780.54 592.95 780.48 C 589.17 763.44 584.10 746.68 580.81 729.54 C 579.33 746.61 576.33 763.50 574.18 780.49 C 568.18 780.53 562.19 780.50 556.19 780.51 C 560.13 751.40 564.36 722.33 568.37 693.23 Z" />
<path fill="#00517b" opacity="1.00" d=" M 649.67 693.25 C 655.60 693.26 661.54 693.26 667.48 693.24 C 670.63 722.31 673.21 751.44 676.53 780.49 C 670.20 780.53 663.88 780.51 657.55 780.50 C 657.47 774.47 656.52 768.49 656.43 762.46 C 651.49 762.48 646.56 762.50 641.62 762.45 C 639.41 768.43 637.27 774.45 635.25 780.50 C 628.95 780.50 622.64 780.55 616.35 780.46 C 627.64 751.46 638.60 722.33 649.67 693.25 M 645.76 746.16 C 649.39 746.16 653.03 746.16 656.67 746.17 C 656.31 737.47 655.45 728.80 655.01 720.10 C 651.81 728.74 648.87 737.48 645.76 746.16 Z" />
<path fill="#00517b" opacity="1.00" d=" M 740.62 693.23 C 755.24 693.29 769.86 693.22 784.48 693.27 C 783.49 699.08 782.63 704.91 782.13 710.78 C 773.50 710.99 764.87 710.91 756.24 710.82 C 755.39 715.96 754.70 721.12 754.14 726.30 C 760.63 725.18 767.19 726.54 773.71 725.67 C 773.18 731.88 771.98 738.01 771.33 744.20 C 764.69 744.19 758.05 744.23 751.42 744.17 C 750.56 750.22 749.93 756.30 748.91 762.33 C 757.93 762.35 766.96 762.32 776.00 762.35 C 775.01 768.38 774.45 774.47 773.48 780.51 C 758.43 780.51 743.39 780.51 728.35 780.51 C 732.46 751.42 736.55 722.33 740.62 693.23 Z" />
<path fill="#00517b" opacity="1.00" d=" M 794.87 693.34 C 801.40 693.15 807.94 693.32 814.49 693.22 C 816.34 701.06 818.17 708.91 820.11 716.74 C 821.67 723.94 824.05 731.03 823.99 738.49 C 826.38 723.44 828.21 708.30 830.49 693.23 C 836.47 693.27 842.45 693.26 848.43 693.24 C 844.48 722.33 840.12 751.37 836.31 780.48 C 830.76 780.54 825.21 780.49 819.67 780.52 C 815.38 763.53 811.36 746.48 806.92 729.53 C 806.86 735.09 806.70 740.67 805.56 746.14 C 804.01 757.63 802.41 769.11 800.68 780.57 C 794.72 780.45 788.77 780.54 782.82 780.49 C 786.67 751.42 791.13 722.43 794.87 693.34 Z" />
<path fill="#00517b" opacity="1.00" d=" M 694.78 693.31 C 700.70 693.20 706.62 693.27 712.55 693.25 C 709.11 716.32 706.11 739.44 702.68 762.51 C 709.77 762.52 716.85 762.50 723.94 762.52 C 723.13 768.52 722.41 774.55 721.40 780.53 C 708.53 780.49 695.67 780.51 682.81 780.51 C 686.49 751.41 691.14 722.42 694.78 693.31 Z" />
<path fill="#00517b" opacity="1.00" d=" M 162.42 796.53 C 164.18 794.78 167.51 795.25 168.55 797.56 C 170.74 802.00 163.91 806.89 160.49 803.18 C 159.45 800.82 160.22 797.90 162.42 796.53 Z" />
<path fill="#00517b" opacity="1.00" d=" M 173.43 801.10 C 174.30 799.16 175.15 797.03 177.12 795.95 C 179.43 794.54 182.88 796.26 182.85 799.03 C 183.20 802.42 179.34 805.13 176.20 804.38 C 174.80 803.75 174.20 802.28 173.43 801.10 Z" />
<path fill="#00517b" opacity="1.00" d=" M 274.41 801.11 C 275.34 799.25 276.11 797.12 278.05 796.07 C 280.24 794.44 283.97 796.20 283.87 799.01 C 284.29 802.51 280.27 805.26 277.06 804.32 C 275.88 803.51 275.24 802.21 274.41 801.11 Z" />
<path fill="#00517b" opacity="1.00" d=" M 288.43 801.06 C 289.33 799.21 290.06 797.02 292.05 796.04 C 294.29 794.46 297.84 796.22 297.90 798.98 C 298.21 802.51 294.23 805.25 290.96 804.35 C 289.79 803.53 289.20 802.20 288.43 801.06 Z" />
<path fill="#00517b" opacity="1.00" d=" M 281.61 810.83 C 286.87 809.87 292.64 811.99 295.67 816.47 C 300.40 823.28 300.18 832.00 299.45 839.89 C 298.05 848.13 295.33 856.41 289.96 862.95 C 286.12 867.66 280.22 871.19 273.96 870.68 C 268.39 870.84 263.47 866.82 261.41 861.83 C 256.94 851.04 258.88 838.77 263.10 828.23 C 266.36 820.22 272.48 812.13 281.61 810.83 M 279.41 817.53 C 271.39 821.53 268.83 831.16 267.21 839.26 C 265.98 846.45 264.82 854.58 268.77 861.16 C 272.04 866.08 279.59 865.23 283.35 861.34 C 288.15 856.51 290.22 849.69 291.48 843.16 C 292.80 836.02 293.82 828.20 290.60 821.40 C 288.78 817.26 283.40 815.60 279.41 817.53 Z" />
<path fill="#00517b" opacity="1.00" d=" M 103.30 812.23 C 105.98 812.22 108.67 812.22 111.36 812.21 C 113.90 828.22 116.02 844.29 118.57 860.30 C 122.78 851.74 127.49 843.43 131.92 834.98 C 135.54 827.97 134.41 819.83 134.59 812.24 C 137.22 812.22 139.84 812.22 142.47 812.24 C 142.51 820.32 143.08 828.84 139.25 836.26 C 133.30 847.28 127.33 858.30 121.27 869.27 C 118.42 869.26 115.58 869.25 112.74 869.25 C 109.72 850.22 106.41 831.24 103.30 812.23 Z" />
<path fill="#00517b" opacity="1.00" d=" M 165.85 812.22 C 168.58 812.22 171.31 812.22 174.04 812.26 C 176.91 831.27 180.26 850.21 182.90 869.26 C 180.41 869.25 177.91 869.26 175.42 869.27 C 174.30 863.13 173.82 856.89 172.61 850.76 C 166.96 850.81 161.30 850.81 155.65 850.77 C 152.50 856.89 149.64 863.17 146.48 869.30 C 143.97 869.27 141.46 869.25 138.95 869.23 C 147.71 850.13 156.92 831.24 165.85 812.22 M 169.04 819.83 C 165.38 828.07 161.96 836.41 158.29 844.65 C 162.78 844.66 167.27 844.64 171.76 844.69 C 171.19 836.36 169.45 828.17 169.04 819.83 Z" />
<path fill="#00517b" opacity="1.00" d=" M 195.71 812.27 C 198.48 812.22 201.24 812.22 204.01 812.27 C 206.86 819.22 210.11 826.01 213.00 832.96 C 218.00 825.98 223.16 819.13 228.26 812.23 C 230.49 812.22 232.71 812.21 234.95 812.27 C 234.42 815.16 232.29 817.29 230.66 819.61 C 226.00 826.00 221.28 832.34 216.65 838.76 C 215.75 839.69 216.71 840.94 217.00 841.93 C 221.05 851.01 225.06 860.11 229.01 869.24 C 226.20 869.25 223.40 869.26 220.60 869.29 C 217.18 861.85 213.96 854.31 210.84 846.74 C 205.26 854.22 199.90 861.87 194.22 869.29 C 191.93 869.26 189.64 869.25 187.36 869.22 C 187.80 866.49 189.70 864.43 191.28 862.30 C 196.79 854.89 202.21 847.43 207.73 840.04 C 203.88 830.72 199.80 821.49 195.71 812.27 Z" />
<path fill="#00517b" opacity="1.00" d=" M 236.33 867.85 C 238.97 849.32 242.45 830.90 244.84 812.33 C 247.31 812.25 249.78 812.20 252.25 812.18 C 249.43 832.03 245.93 851.79 243.03 871.63 C 242.41 876.06 239.09 879.36 235.39 881.51 C 232.67 881.45 229.95 881.45 227.23 881.43 C 226.55 877.77 231.17 878.13 232.98 876.01 C 235.49 874.06 236.04 870.81 236.33 867.85 Z" />
</g>
<g id="#ffffffff">
<path fill="#ffffff" opacity="1.00" d=" M 259.22 187.28 C 378.80 187.19 498.39 187.27 617.98 187.24 C 637.70 187.01 657.38 194.74 671.68 208.32 C 683.18 219.01 691.34 233.24 694.63 248.60 C 697.01 258.57 696.36 268.87 696.44 279.02 C 696.44 339.68 696.44 400.34 696.44 461.00 C 696.26 472.28 697.25 483.77 694.41 494.82 C 690.27 513.19 679.11 529.88 663.73 540.75 C 649.97 550.71 632.89 555.73 615.96 555.40 C 498.97 555.38 381.97 555.39 264.98 555.39 C 251.64 555.73 238.14 552.94 226.24 546.82 C 200.74 534.13 183.55 506.57 183.61 478.04 C 183.61 409.04 183.61 340.03 183.60 271.03 C 183.38 261.63 183.99 252.10 186.82 243.08 C 191.99 225.23 203.97 209.57 219.56 199.53 C 231.35 191.98 245.21 187.61 259.22 187.28 M 299.32 258.52 C 285.44 261.04 272.08 268.13 263.40 279.41 C 257.21 287.21 253.84 297.09 253.77 307.04 C 253.76 351.02 253.76 395.00 253.77 438.99 C 253.79 450.83 258.81 462.39 267.09 470.80 C 278.26 482.13 294.19 488.23 310.00 488.36 C 395.00 488.34 479.99 488.36 564.98 488.35 C 570.31 488.33 575.67 488.57 580.97 487.84 C 593.79 486.18 606.28 480.68 615.51 471.53 C 623.95 463.34 629.51 451.88 629.46 440.00 C 629.46 395.35 629.45 350.70 629.46 306.04 C 629.56 293.18 623.07 280.91 613.53 272.53 C 602.54 262.70 587.71 257.62 573.06 257.53 C 485.38 257.55 397.70 257.54 310.03 257.53 C 306.43 257.55 302.85 257.88 299.32 258.52 Z" />
</g>
<g id="#aedee4ff">
<path fill="#aedee4" opacity="1.00" d=" M 299.32 258.52 C 302.85 257.88 306.43 257.55 310.03 257.53 C 397.70 257.54 485.38 257.55 573.06 257.53 C 587.71 257.62 602.54 262.70 613.53 272.53 C 623.07 280.91 629.56 293.18 629.46 306.04 C 629.45 350.70 629.46 395.35 629.46 440.00 C 629.51 451.88 623.95 463.34 615.51 471.53 C 606.28 480.68 593.79 486.18 580.97 487.84 C 575.67 488.57 570.31 488.33 564.98 488.35 C 479.99 488.36 395.00 488.34 310.00 488.36 C 294.19 488.23 278.26 482.13 267.09 470.80 C 258.81 462.39 253.79 450.83 253.77 438.99 C 253.76 395.00 253.76 351.02 253.77 307.04 C 253.84 297.09 257.21 287.21 263.40 279.41 C 272.08 268.13 285.44 261.04 299.32 258.52 Z" />
</g>
</svg>
