<?xml version="1.0" encoding="utf-8"?>
<!-- Generator: Adobe Illustrator 16.2.1, SVG Export Plug-In . SVG Version: 6.00 Build 0)  -->
<!DOCTYPE svg PUBLIC "-//W3C//DTD SVG 1.1//EN" "http://www.w3.org/Graphics/SVG/1.1/DTD/svg11.dtd">
<svg version="1.1" id="Layer_1" xmlns="http://www.w3.org/2000/svg" xmlns:xlink="http://www.w3.org/1999/xlink" x="0px" y="0px"
	 width="841.89px" height="595.28px" viewBox="0 0 841.89 595.28" enable-background="new 0 0 841.89 595.28" xml:space="preserve">
<g>
	<linearGradient id="SVGID_1_" gradientUnits="userSpaceOnUse" x1="238.0728" y1="439.0508" x2="238.0728" y2="517.2315">
		<stop  offset="0" style="stop-color:#E41F13"/>
		<stop  offset="0.2027" style="stop-color:#E11F13"/>
		<stop  offset="0.3869" style="stop-color:#D51F14"/>
		<stop  offset="0.5638" style="stop-color:#C21E15"/>
		<stop  offset="0.7362" style="stop-color:#A91C16"/>
		<stop  offset="0.9039" style="stop-color:#8A1914"/>
		<stop  offset="1" style="stop-color:#771612"/>
	</linearGradient>
	<path fill="url(#SVGID_1_)" d="M202.139,501.439l12.73-13.147c6.936,6.42,14.183,9.682,22.027,9.682
		c4.689,0,8.053-2.043,8.053-5.297c0-2.754-1.935-4.177-11.924-8.06c-11.328-4.278-18.556-9.164-18.556-19.673
		c0-14.165,12.838-24.262,30.271-24.262c12.546,0,22.438,4.073,29.267,10.599l-12.235,13.663c-5.395-4.689-11.62-7.855-18.867-7.855
		c-4.79,0-7.742,2.252-7.742,5.101c0,2.855,2.139,3.877,11.924,7.754c11.011,4.177,18.562,9.177,18.562,19.878
		c0,14.684-12.642,24.679-30.385,24.679C221.291,514.5,209.785,509.701,202.139,501.439z"/>
	<linearGradient id="SVGID_2_" gradientUnits="userSpaceOnUse" x1="238.1089" y1="439.7627" x2="238.1089" y2="516.4874">
		<stop  offset="0" style="stop-color:#771612"/>
		<stop  offset="0.3749" style="stop-color:#A03532"/>
		<stop  offset="0.7961" style="stop-color:#CF6162"/>
		<stop  offset="1" style="stop-color:#E27578"/>
	</linearGradient>
	<path fill="url(#SVGID_2_)" d="M202.162,501.439l0.544,0.538l12.754-13.156l-0.561-0.529l-0.514,0.554
		c7.026,6.513,14.469,9.894,22.541,9.894c2.455,0,4.6-0.526,6.202-1.547c0.8-0.513,1.45-1.159,1.917-1.918
		c0.46-0.765,0.699-1.654,0.699-2.598c0-0.772-0.144-1.549-0.561-2.266c-0.628-1.069-1.751-1.947-3.608-2.938
		c-1.859-0.997-4.486-2.103-8.245-3.567h-0.011c-5.617-2.121-10.169-4.396-13.257-7.342c-3.094-2.964-4.785-6.542-4.803-11.619
		c0.012-6.852,3.088-12.677,8.315-16.849c5.227-4.162,12.63-6.648,21.208-6.648c12.378,0,22.044,4.009,28.724,10.396l0.537-0.562
		l-0.573-0.502l-12.241,13.656l0.567,0.509l0.501-0.58c-5.478-4.768-11.888-8.027-19.356-8.027c-2.521,0-4.594,0.572-6.111,1.606
		c-1.494,1.021-2.408,2.543-2.402,4.246c-0.005,0.808,0.162,1.577,0.604,2.282c0.674,1.045,1.822,1.829,3.679,2.749
		c1.853,0.919,4.451,1.978,8.125,3.428l0.013,0.007c5.466,2.072,10.018,4.343,13.149,7.33c3.124,3,4.905,6.668,4.917,11.836
		c-0.006,7.115-3.046,13.04-8.256,17.246s-12.637,6.656-21.364,6.656c-13.794,0-25.086-4.721-32.578-12.804L202.162,501.439
		l0.544,0.538L202.162,501.439l-0.561,0.521c7.808,8.434,19.553,13.304,33.694,13.299c9.016,0,16.775-2.532,22.319-6.996
		c5.55-4.469,8.835-10.886,8.83-18.441c0.012-5.539-1.988-9.723-5.388-12.94c-3.399-3.232-8.119-5.551-13.664-7.654l-0.263,0.717
		l0.263-0.717c-4.874-1.934-7.85-3.16-9.505-4.193c-0.812-0.514-1.302-0.967-1.565-1.379c-0.256-0.425-0.358-0.844-0.365-1.465
		c0.006-1.146,0.562-2.175,1.745-2.987c1.17-0.812,2.956-1.351,5.239-1.351c7.002,0,13.042,3.061,18.359,7.665l0.568,0.495
		l13.238-14.779l-0.542-0.502c-6.979-6.672-17.081-10.818-29.782-10.818c-8.866,0-16.608,2.568-22.164,6.99
		c-5.544,4.414-8.89,10.725-8.89,18.042c-0.012,5.423,1.911,9.541,5.281,12.725c3.353,3.195,8.084,5.507,13.771,7.665h-0.006
		c4.976,1.923,7.946,3.254,9.558,4.366c0.807,0.557,1.273,1.034,1.53,1.487c0.257,0.447,0.358,0.885,0.358,1.489
		c0,0.687-0.174,1.271-0.495,1.809c-0.472,0.802-1.315,1.487-2.485,1.966c-1.159,0.485-2.635,0.76-4.314,0.76
		c-7.629,0-14.655-3.149-21.502-9.476l-0.555-0.514l-13.758,14.212l0.49,0.526L202.162,501.439z"/>
</g>
<g>
	<linearGradient id="SVGID_3_" gradientUnits="userSpaceOnUse" x1="305.3022" y1="440.3232" x2="305.3022" y2="515.9079">
		<stop  offset="0" style="stop-color:#E41F13"/>
		<stop  offset="0.2027" style="stop-color:#E11F13"/>
		<stop  offset="0.3869" style="stop-color:#D51F14"/>
		<stop  offset="0.5638" style="stop-color:#C21E15"/>
		<stop  offset="0.7362" style="stop-color:#A91C16"/>
		<stop  offset="0.9039" style="stop-color:#8A1914"/>
		<stop  offset="1" style="stop-color:#771612"/>
	</linearGradient>
	<path fill="url(#SVGID_3_)" d="M288.172,441.901h23.347c11.62,0,19.272,2.348,24.471,7.539c3.775,3.776,5.608,8.675,5.608,14.576
		c0,17.757-14.373,28.76-35.479,28.76h-11.727l-5.503,20.491h-19.883L288.172,441.901z M305.916,477.388
		c9.791,0,15.395-4.392,15.395-11.118c0-1.94-0.717-3.674-2.043-5.001c-1.936-1.928-4.792-2.747-8.46-2.747h-7.342l-4.995,18.866
		H305.916z"/>
	<linearGradient id="SVGID_4_" gradientUnits="userSpaceOnUse" x1="305.2163" y1="440.9912" x2="305.2163" y2="515.222">
		<stop  offset="0" style="stop-color:#771612"/>
		<stop  offset="0.3749" style="stop-color:#A03532"/>
		<stop  offset="0.7961" style="stop-color:#CF6162"/>
		<stop  offset="1" style="stop-color:#E27578"/>
	</linearGradient>
	<path fill="url(#SVGID_4_)" d="M288.208,441.901v0.765h23.34c5.766,0,10.504,0.587,14.422,1.792
		c3.913,1.207,7.002,3.023,9.511,5.533c3.621,3.619,5.371,8.273,5.39,14.025c-0.019,8.676-3.489,15.593-9.548,20.439
		c-6.058,4.833-14.757,7.556-25.175,7.556h-12.307l-5.508,20.493h-18.305l18.916-70.399L288.208,441.901v0.765V441.901l-0.752-0.197
		l-19.416,72.329h21.459l5.508-20.49h11.143c10.682,0,19.727-2.791,26.125-7.887c6.41-5.096,10.126-12.559,10.12-21.64
		c0-6.058-1.906-11.196-5.831-15.114c-2.689-2.694-6.028-4.647-10.149-5.913c-4.106-1.261-8.998-1.854-14.866-1.854h-23.925
		l-0.167,0.568L288.208,441.901z M305.945,477.388v0.753c5.007,0,9.015-1.11,11.823-3.178c2.808-2.067,4.343-5.12,4.332-8.693
		c0-2.12-0.789-4.073-2.259-5.537c-1.07-1.064-2.376-1.817-3.889-2.288c-1.512-0.485-3.22-0.688-5.12-0.688h-7.928l-5.395,20.384
		h8.435V477.388v-0.771h-6.457l4.601-17.331h6.744c1.779,0,3.346,0.203,4.66,0.616c1.314,0.411,2.395,1.046,3.262,1.904
		c1.183,1.197,1.816,2.714,1.816,4.464c-0.007,3.148-1.279,5.651-3.716,7.463c-2.438,1.809-6.13,2.884-10.91,2.884V477.388z"/>
</g>
<g>
	<linearGradient id="SVGID_5_" gradientUnits="userSpaceOnUse" x1="381.4194" y1="438.9395" x2="381.4194" y2="517.3343">
		<stop  offset="0" style="stop-color:#E41F13"/>
		<stop  offset="0.2027" style="stop-color:#E11F13"/>
		<stop  offset="0.3869" style="stop-color:#D51F14"/>
		<stop  offset="0.5638" style="stop-color:#C21E15"/>
		<stop  offset="0.7362" style="stop-color:#A91C16"/>
		<stop  offset="0.9039" style="stop-color:#8A1914"/>
		<stop  offset="1" style="stop-color:#771612"/>
	</linearGradient>
	<path fill="url(#SVGID_5_)" d="M343.14,482.587c0-21.723,17.737-42.011,42.505-42.011c20.301,0,34.053,13.871,34.053,32.021
		c0,21.707-17.73,41.998-42.505,41.998C356.899,514.596,343.14,500.736,343.14,482.587z M399.525,474.12
		c0-9.075-5.508-15.803-15.604-15.803c-12.439,0-20.6,12.134-20.6,22.726c0,9.081,5.502,15.809,15.598,15.809
		C391.459,496.852,399.525,484.725,399.525,474.12z"/>
	<linearGradient id="SVGID_6_" gradientUnits="userSpaceOnUse" x1="381.4468" y1="439.8096" x2="381.4468" y2="515.3604">
		<stop  offset="0" style="stop-color:#771612"/>
		<stop  offset="0.3749" style="stop-color:#A03532"/>
		<stop  offset="0.7961" style="stop-color:#CF6162"/>
		<stop  offset="1" style="stop-color:#E27578"/>
	</linearGradient>
	<path fill="url(#SVGID_6_)" d="M343.164,482.578h0.771c0-10.645,4.349-20.963,11.746-28.608
		c7.414-7.647,17.826-12.623,30.002-12.631c9.97,0.008,18.274,3.406,24.106,8.991c5.824,5.588,9.182,13.376,9.182,22.268
		c0,10.645-4.355,20.956-11.751,28.609c-7.401,7.641-17.827,12.619-29.997,12.619c-9.976,0-18.287-3.396-24.105-8.98
		c-5.831-5.593-9.182-13.383-9.182-22.268H343.164h-0.765c0,9.268,3.525,17.488,9.661,23.365c6.123,5.88,14.838,9.417,25.162,9.417
		c12.6,0,23.437-5.168,31.096-13.096c7.666-7.922,12.176-18.603,12.176-29.667c0.005-9.273-3.514-17.494-9.642-23.371
		c-6.13-5.88-14.853-9.417-25.169-9.417c-12.593,0-23.431,5.167-31.096,13.095c-7.671,7.93-12.188,18.611-12.188,29.674H343.164z
		 M399.553,474.113h0.76c0-4.683-1.428-8.835-4.225-11.822c-2.789-2.981-6.928-4.743-12.145-4.743c-6.47,0-11.84,3.179-15.55,7.677
		c-3.698,4.496-5.802,10.336-5.802,15.818c-0.011,4.695,1.429,8.849,4.224,11.836c2.791,2.993,6.924,4.749,12.14,4.737
		c6.53,0,11.896-3.166,15.593-7.672c3.698-4.497,5.766-10.335,5.766-15.831H399.553h-0.769c0,5.114-1.961,10.647-5.425,14.864
		c-3.466,4.218-8.4,7.108-14.404,7.108c-4.881-0.006-8.542-1.606-11.028-4.252c-2.479-2.652-3.805-6.4-3.805-10.791
		c-0.012-5.101,1.972-10.635,5.453-14.85c3.484-4.218,8.413-7.109,14.369-7.117c4.887,0.008,8.549,1.614,11.034,4.261
		c2.48,2.651,3.807,6.393,3.807,10.776H399.553z"/>
</g>
<g>
	<linearGradient id="SVGID_7_" gradientUnits="userSpaceOnUse" x1="455.5869" y1="440.3232" x2="455.5869" y2="515.9079">
		<stop  offset="0" style="stop-color:#E41F13"/>
		<stop  offset="0.2027" style="stop-color:#E11F13"/>
		<stop  offset="0.3869" style="stop-color:#D51F14"/>
		<stop  offset="0.5638" style="stop-color:#C21E15"/>
		<stop  offset="0.7362" style="stop-color:#A91C16"/>
		<stop  offset="0.9039" style="stop-color:#8A1914"/>
		<stop  offset="1" style="stop-color:#771612"/>
	</linearGradient>
	<path fill="url(#SVGID_7_)" d="M436.672,441.901h26.913c11.931,0,19.78,2.652,24.571,7.443c3.771,3.775,5.511,8.865,5.511,14.577
		c0,11.932-6.83,21.311-21.407,25.289l11.01,24.057h-21.822l-9.48-21.613h-8.759l-5.819,21.613h-19.882L436.672,441.901z
		 M458.597,476.163c8.867,0,14.672-3.779,14.672-9.894c0-1.94-0.608-3.465-1.828-4.798c-1.635-1.63-4.587-2.449-8.773-2.449h-10.7
		l-4.686,17.141H458.597z"/>
	<linearGradient id="SVGID_8_" gradientUnits="userSpaceOnUse" x1="455.4941" y1="440.9912" x2="455.4941" y2="515.222">
		<stop  offset="0" style="stop-color:#771612"/>
		<stop  offset="0.3749" style="stop-color:#A03532"/>
		<stop  offset="0.7961" style="stop-color:#CF6162"/>
		<stop  offset="1" style="stop-color:#E27578"/>
	</linearGradient>
	<path fill="url(#SVGID_8_)" d="M436.701,441.901v0.765h26.914c5.908,0,10.783,0.658,14.738,1.888
		c3.956,1.243,6.996,3.034,9.29,5.33c3.607,3.613,5.281,8.482,5.281,14.038c0,5.825-1.655,10.956-5.056,15.139
		c-3.416,4.194-8.614,7.457-15.783,9.416l-0.871,0.226l10.897,23.803h-20.146l-9.464-21.615h-9.863l-5.807,21.615h-18.299
		l18.909-70.399L436.701,441.901v0.765V441.901l-0.733-0.197l-19.435,72.329h21.466l5.812-21.608h7.683l9.486,21.608h23.508
		l-11.512-25.146l-0.688,0.323l0.192,0.733c7.414-2.019,12.922-5.436,16.566-9.917c3.649-4.467,5.411-9.999,5.406-16.105
		c0.005-5.855-1.787-11.183-5.729-15.12c-2.491-2.492-5.776-4.414-9.924-5.705c-4.14-1.297-9.164-1.961-15.186-1.961h-27.504
		l-0.144,0.568L436.701,441.901z M458.621,476.163v0.76c4.54,0,8.357-0.958,11.087-2.773c1.375-0.92,2.468-2.055,3.215-3.381
		c0.753-1.326,1.146-2.845,1.146-4.499c0-2.096-0.692-3.864-2.042-5.312l-0.013-0.011l-0.005-0.013
		c-0.938-0.932-2.211-1.589-3.771-2.031c-1.553-0.43-3.393-0.639-5.543-0.639h-11.292l-5.102,18.658h12.319V476.163v-0.771h-10.317
		l4.272-15.598h10.119c2.043,0,3.764,0.197,5.138,0.58c1.373,0.383,2.402,0.949,3.082,1.643l0.556-0.545l-0.567,0.526
		c1.106,1.207,1.632,2.491,1.643,4.271c-0.006,1.405-0.34,2.652-0.956,3.752c-0.925,1.642-2.514,2.98-4.725,3.912
		c-2.198,0.94-5.001,1.458-8.244,1.458V476.163z"/>
</g>
<g>
	<linearGradient id="SVGID_9_" gradientUnits="userSpaceOnUse" x1="532.3203" y1="440.3232" x2="532.3203" y2="515.9079">
		<stop  offset="0" style="stop-color:#E41F13"/>
		<stop  offset="0.2027" style="stop-color:#E11F13"/>
		<stop  offset="0.3869" style="stop-color:#D51F14"/>
		<stop  offset="0.5638" style="stop-color:#C21E15"/>
		<stop  offset="0.7362" style="stop-color:#A91C16"/>
		<stop  offset="0.9039" style="stop-color:#8A1914"/>
		<stop  offset="1" style="stop-color:#771612"/>
	</linearGradient>
	<polygon fill="url(#SVGID_9_)" points="520.143,459.238 498.713,459.238 503.403,441.901 565.929,441.901 561.329,459.238 
		539.924,459.238 525.447,513.268 505.56,513.268 	"/>
	<linearGradient id="SVGID_10_" gradientUnits="userSpaceOnUse" x1="532.3516" y1="441.1357" x2="532.3516" y2="514.0332">
		<stop  offset="0" style="stop-color:#771612"/>
		<stop  offset="0.3749" style="stop-color:#A03532"/>
		<stop  offset="0.7961" style="stop-color:#CF6162"/>
		<stop  offset="1" style="stop-color:#E27578"/>
	</linearGradient>
	<polygon fill="url(#SVGID_10_)" points="520.18,459.238 520.18,458.468 499.747,458.468 504.019,442.666 564.96,442.666 
		560.766,458.468 539.363,458.468 524.887,512.505 506.581,512.505 521.17,458.468 520.18,458.468 520.18,459.238 519.437,459.036 
		504.574,514.033 526.062,514.033 540.543,459.991 561.949,459.991 566.95,441.136 502.854,441.136 497.752,459.991 520.18,459.991 
		520.18,459.238 519.437,459.036 	"/>
</g>
<linearGradient id="SVGID_11_" gradientUnits="userSpaceOnUse" x1="-540.4692" y1="-242.1074" x2="-539.7328" y2="-242.1074" gradientTransform="matrix(0 164.4803 164.4803 0 40422.375 89314)">
	<stop  offset="0" style="stop-color:#E41F13"/>
	<stop  offset="0.2033" style="stop-color:#E11F13"/>
	<stop  offset="0.3874" style="stop-color:#D51F14"/>
	<stop  offset="0.564" style="stop-color:#C21E15"/>
	<stop  offset="0.7359" style="stop-color:#A91C16"/>
	<stop  offset="0.9031" style="stop-color:#8B1914"/>
	<stop  offset="1" style="stop-color:#771612"/>
</linearGradient>
<polygon fill="url(#SVGID_11_)" points="605.544,439.625 584.64,515.789 565.731,515.777 560.936,533.623 629.285,533.623 
	634.308,515.682 613.739,515.706 640.043,417.406 594.121,421.555 589.275,439.625 "/>
<linearGradient id="SVGID_12_" gradientUnits="userSpaceOnUse" x1="600.4971" y1="416.2021" x2="600.4971" y2="533.1056">
	<stop  offset="0.0103" style="stop-color:#771612"/>
	<stop  offset="0.1351" style="stop-color:#9D3531"/>
	<stop  offset="0.3151" style="stop-color:#D7706F"/>
	<stop  offset="0.3988" style="stop-color:#F08C8E"/>
	<stop  offset="0.5153" style="stop-color:#F08C8E"/>
	<stop  offset="0.6503" style="stop-color:#F08C8E"/>
	<stop  offset="0.7967" style="stop-color:#EA6561"/>
	<stop  offset="1" style="stop-color:#E22D2D"/>
</linearGradient>
<polygon fill="url(#SVGID_12_)" points="605.544,439.625 604.797,439.406 584.06,515.013 565.141,515.008 559.918,534.393 
	629.888,534.393 635.312,514.904 614.743,514.929 641.076,416.541 593.518,420.829 588.255,440.396 605.544,440.396 
	605.544,439.625 604.797,439.406 605.544,439.625 605.544,438.854 590.273,438.854 594.725,422.275 639.01,418.279 612.731,516.477 
	633.305,516.459 628.693,532.853 561.949,532.853 566.324,516.554 585.213,516.56 606.576,438.854 605.544,438.854 "/>
<path fill="#E41F13" d="M585.791,223.15c0,86.88-70.43,157.327-157.312,157.327c-13.856,0-29.131-1.012-41.926-4.369
	c-4.214-1.106-15.459-5.812-17.65-6.699C311.363,346,271.157,289.118,271.157,223.15c0-86.882,70.437-157.319,157.322-157.319
	C515.361,65.831,585.791,136.268,585.791,223.15z"/>
<g>
	
		<radialGradient id="SVGID_13_" cx="421.8223" cy="86.1445" r="211.6577" gradientTransform="matrix(1.0097 0 0 0.6386 5.2617 45.0136)" gradientUnits="userSpaceOnUse">
		<stop  offset="0" style="stop-color:#454858"/>
		<stop  offset="0.891" style="stop-color:#0A0501"/>
		<stop  offset="1" style="stop-color:#000000"/>
	</radialGradient>
	<path fill="url(#SVGID_13_)" d="M515.045,101.211c15.593-0.089,25.891,5.232,27.418,6.066
		C513.158,78.46,472.965,60.662,428.6,60.662c-42.24,0-80.713,16.123-109.599,42.562c3.304,0.74,6.409,1.147,6.409,1.147
		s24.273,4.534,56.964,5.114c35.901,1.16,66.165,1.295,88.128,0.145c0,0,8.22-2.813,12.967-4
		C491.828,103.538,502.868,101.304,515.045,101.211z"/>
	
		<linearGradient id="SVGID_14_" gradientUnits="userSpaceOnUse" x1="312.708" y1="92.6333" x2="486.0759" y2="67.9304" gradientTransform="matrix(1.0097 0 0 1.0097 5.2617 13.0493)">
		<stop  offset="0" style="stop-color:#791613"/>
		<stop  offset="0.9916" style="stop-color:#454858;stop-opacity:0"/>
	</linearGradient>
	<path opacity="0.54" fill="url(#SVGID_14_)" d="M515.045,101.211c15.593-0.089,25.891,5.232,27.418,6.066
		C513.158,78.46,472.965,60.662,428.6,60.662c-42.24,0-80.713,16.123-109.599,42.562c3.304,0.74,6.409,1.147,6.409,1.147
		s24.273,4.534,56.964,5.114c35.901,1.16,66.165,1.295,88.128,0.145c0,0,8.22-2.813,12.967-4
		C491.828,103.538,502.868,101.304,515.045,101.211z"/>
</g>
<radialGradient id="SVGID_15_" cx="347.7065" cy="289.6924" r="190.2905" gradientTransform="matrix(0.9371 0.376 -0.137 0.3415 70.2023 75.8915)" gradientUnits="userSpaceOnUse">
	<stop  offset="0.0127" style="stop-color:#771612"/>
	<stop  offset="0.1302" style="stop-color:#5C1811"/>
	<stop  offset="0.3146" style="stop-color:#3A150D"/>
	<stop  offset="0.4963" style="stop-color:#210D05"/>
	<stop  offset="0.6718" style="stop-color:#0E0400"/>
	<stop  offset="0.8386" style="stop-color:#020100"/>
	<stop  offset="0.9873" style="stop-color:#000000"/>
</radialGradient>
<path fill="url(#SVGID_15_)" d="M426.922,301.045c7.547-26.582-7.358-57.7-20.401-68.822c-22.506-19.813-39.62-23.038-62.002-24.197
	l-3.131-0.144c-0.103,0.144-9.94,14.192-18.752,31.246c-5.02,9.729-10.146,20.953-12.809,30.519
	c-4.633,16.68-5.582,25.279-5.883,33.431c-0.542,14.268,2.865,25.581,2.865,25.581s0.12,0.226,0.158,0.291
	c0.046,0.088,0.22,0.297,0.907,0.868c0.219,0.182,0.508,0.36,0.857,0.605c0.239,0.162,0.486,0.335,0.712,0.5
	c0.691,0.468,1.35,0.903,1.972,1.31c0.088,0.074,0.19,0.128,0.28,0.184c1.572,0.913,3.342,2.033,4.871,3.012
	c0.486,0.281,0.757,0.425,0.757,0.425s24.322,17.914,49.906,14.907C396.993,346.743,419.303,331.549,426.922,301.045z"/>
<linearGradient id="SVGID_16_" gradientUnits="userSpaceOnUse" x1="210.9907" y1="186.0259" x2="382.2873" y2="258.3157">
	<stop  offset="0" style="stop-color:#454858"/>
	<stop  offset="0.3291" style="stop-color:#000000"/>
	<stop  offset="0.4188" style="stop-color:#070200"/>
	<stop  offset="0.5726" style="stop-color:#1E0C04"/>
	<stop  offset="0.7717" style="stop-color:#42160E"/>
	<stop  offset="1" style="stop-color:#771612"/>
</linearGradient>
<path fill="url(#SVGID_16_)" d="M385.753,155.258c-9.004,7.793-15.488,15.279-22.902,23.951
	c-7.857,9.206-14.266,15.963-22.053,28.354c-0.109,0.154-0.198,0.319-0.198,0.319s-6.317,8.237-14.511,22.817
	c-4.928,8.745-11.363,21.252-15.755,32.702c-3.33,8.681-6.109,18.955-7.396,26.557c-3.713,21.89,0.463,35.404,0.582,35.86
	c0,0,0.121,0.434,0.242,0.826c0.256,0.947,0.748,1.651,1.661,3.753c-1.533-1.755-2.542-2.731-4.001-4.543
	c-21.014-26.124-34.335-58.7-35.771-95.109c0-5.019,0-4.848,0-6.905c0-29.879,8.55-58.672,22.618-82.722
	c0.118-0.198,0.325-0.507,0.428-0.705c-0.104,0.795,2.051,2.307,4.206,3.329c10.115,4.861,37.039,9.327,68.814,10.925
	c4.816,0.256,9.565,0.416,14.164,0.508C379.251,155.248,382.55,155.267,385.753,155.258z"/>
<path d="M549.406,114.545c-0.791-0.571-8.259-5.893-14.102-7.828c-4.322-1.44-10.76-3.087-18.569-3.349
	c-7.618-0.247-17.054,0.75-21.07,1.502c-13.55,2.541-28.211,7.223-28.211,7.223s-4.509,3.774-8.66,7.601
	c-8.667,8.002-18.189,17.794-26.976,27.343c-10.146,11.061-19.305,21.818-25.013,29.193c11.519,6.533,22.678,13.151,33.375,23.314
	c4.282,4.064,8.498,8.698,12.619,14.12c1.455,1.911,7.667,10.302,11.993,18.791c4.397,8.592,8.589,23.326,9.1,25.355
	c1.103,4.341,1.922,8.045,2.197,9.729c1.439,8.716,1.667,16.363,1.175,23.295c-0.391,5.583-1.25,10.686-2.318,15.521
	c-0.806,3.658-1.729,7.136-2.662,10.527c-0.513,1.872-1.311,3.836-2.158,5.874c-0.86,2.064-1.77,4.191-2.904,6.371
	c-2.102,4.046-4.601,8.229-7.631,12.384c-4.565,6.28-10.121,12.482-16.4,18.002c-0.054,0.046-0.104,0.103-0.159,0.147
	c-0.065,0.054-0.14,0.108-0.2,0.178c-4.751,4.211-9.954,8.022-15.524,11.133c-3.313,1.841-6.762,3.439-10.322,4.736
	c-0.317,0.099-0.638,0.208-0.961,0.307c-0.465,0.154-0.971,0.318-1.517,0.472c-2.396,0.73-5.069,1.448-7.744,1.816
	c-3.509,0.489-6.902,0.964-10.527,1.078c-5.302,0.281-9.757-0.305-13.362-1.29c1.704,1.12,4.139,1.891,5.456,2.281
	c10.81,2.888,25.852,5.336,40.265,5.054c89.664-1.735,162.381-72.709,162.381-162.392
	C590.975,181.326,575.247,143.312,549.406,114.545z"/>
<path fill="#771612" d="M385.75,155.267c-9.005,7.784-15.485,15.271-22.899,23.942c-4.102,4.806-7.8,8.934-11.511,13.548
	c-3.11,3.864-6.224,8.075-9.587,13.297c-0.316,0.498-0.551,0.833-0.873,1.357c-0.123,0.192-0.336,0.48-0.336,0.48l0.976,0.019
	c0,0-0.006,0.009-0.006,0.016l3.146,0.107c0,0,0.032-0.123,0.149-0.242c0.234-0.371,0.464-0.715,0.695-1.067
	c0.212-0.336,0.43-0.688,0.644-1.017c0.325-0.497,0.649-0.977,0.966-1.453c0.144-0.209,0.282-0.428,0.426-0.645
	c0.381-0.561,0.751-1.111,1.136-1.647c0.075-0.118,0.16-0.234,0.236-0.354c0.427-0.615,0.848-1.205,1.262-1.784
	c0.035-0.045,0.071-0.089,0.096-0.135c4.547-6.3,8.839-11.187,13.549-16.638c0.157-0.179,0.308-0.352,0.462-0.522
	c0.316-0.382,0.634-0.752,0.961-1.132c0.477-0.554,0.961-1.114,1.447-1.694c7.429-8.677,13.907-16.172,22.922-23.957
	c0.201-0.173,0.394-0.355,0.599-0.526c-0.611,0.009-1.616,0.017-2.518,0.026C386.716,155.248,385.847,155.267,385.75,155.267z"/>
<linearGradient id="SVGID_17_" gradientUnits="userSpaceOnUse" x1="283.1992" y1="154.209" x2="380.798" y2="176.7414">
	<stop  offset="0" style="stop-color:#778BC6;stop-opacity:0.33"/>
	<stop  offset="0.5751" style="stop-color:#353340;stop-opacity:0.1378"/>
	<stop  offset="0.9873" style="stop-color:#000000;stop-opacity:0"/>
</linearGradient>
<path fill="url(#SVGID_17_)" d="M372.402,155.084c-2.356-0.042-4.694-0.134-7.083-0.233c-1.197-0.064-2.397-0.119-3.602-0.173
	c-11.271-0.571-21.931-1.493-31.448-2.679c-17.312-2.135-30.842-5.115-37.375-8.255c-0.038-0.009-0.098-0.034-0.146-0.07
	c-0.517-0.246-0.998-0.517-1.439-0.78c-0.192-0.118-0.374-0.227-0.543-0.336c-0.165-0.108-0.312-0.217-0.452-0.323
	c-0.123-0.074-0.23-0.164-0.339-0.256c-0.105-0.061-0.203-0.16-0.294-0.245c-0.045-0.042-0.073-0.069-0.11-0.108
	c-0.109-0.089-0.206-0.198-0.304-0.296c-0.01-0.01-0.017-0.01-0.017-0.02c-0.109-0.125-0.204-0.243-0.285-0.352
	c-0.105-0.136-0.198-0.427-0.269-0.561c-0.104,0.188-0.999,1.675-1.35,2.281c-0.38,0.66-0.825,1.529-1.285,2.49
	c0,0.009-0.011,0.009-0.011,0.016c-1.889,3.894-3.864,9.831-1.388,14.286c0.324,0.595,1.531,2.07,2.022,2.595
	c5.514,5.903,21.372,15.145,31.407,19.154c10.03,4.009,33.005,11.295,33.005,11.295l0.382,0.064
	c3.665-4.545,7.331-8.626,11.372-13.368c7.414-8.672,13.896-16.167,22.902-23.951c0.131,0-2.157,0-3.443-0.01
	c-2.116-0.009-4.263-0.035-6.429-0.081C374.736,155.149,373.886,155.11,372.402,155.084z"/>
<linearGradient id="SVGID_18_" gradientUnits="userSpaceOnUse" x1="522.7266" y1="115.8174" x2="448.6679" y2="272.2169">
	<stop  offset="0" style="stop-color:#788CC6;stop-opacity:0.29"/>
	<stop  offset="0.5751" style="stop-color:#353440;stop-opacity:0.1211"/>
	<stop  offset="0.9873" style="stop-color:#000000;stop-opacity:0"/>
</linearGradient>
<path fill="url(#SVGID_18_)" d="M534.023,106.346c-0.297-0.081-0.6-0.189-0.916-0.264c-0.465-0.144-0.945-0.279-1.451-0.426
	c-0.07-0.026-0.128-0.035-0.197-0.055c-0.598-0.159-1.239-0.314-1.889-0.468h-0.021c-1.315-0.317-2.718-0.608-4.223-0.861
	c-0.372-0.064-0.757-0.135-1.145-0.18c-0.761-0.118-1.556-0.217-2.366-0.317c-0.414-0.044-0.809-0.083-1.235-0.127
	c-0.305-0.017-0.616-0.054-0.925-0.071c-0.12-0.019-0.246-0.019-0.381-0.029c-0.061-0.01-0.108-0.01-0.17-0.01
	c-0.351-0.035-0.715-0.051-1.062-0.07c-0.434-0.036-0.878-0.044-1.325-0.055c-2.134-0.084-4.428-0.044-6.695,0.045
	c-0.4,0.02-0.793,0.045-1.181,0.063c-0.315,0.017-0.626,0.026-0.923,0.055c-0.693,0.035-1.39,0.081-2.072,0.125
	c0,0-5.868,0.516-8.822,0.986c-2.021,0.344-7.892,1.584-7.892,1.584l-3.883,0.916h-0.027c-0.312,0.07-0.614,0.135-0.929,0.225
	c-0.399,0.1-0.8,0.202-1.192,0.291c-0.191,0.064-0.37,0.101-0.554,0.155c-0.594,0.134-1.163,0.289-1.728,0.432
	c-1.741,0.461-3.39,0.906-4.901,1.333c-0.314,0.081-0.622,0.161-0.924,0.261c-1.096,0.308-2.096,0.599-3.001,0.861
	c-0.259,0.09-0.498,0.153-0.741,0.218c-1.196,0.343-2.141,0.641-2.8,0.84c-0.09,0.028-0.172,0.054-0.241,0.082
	c-0.067,0.026-0.137,0.046-0.203,0.062c-0.022,0.019-0.038,0.019-0.071,0.028c-0.074,0.02-0.157,0.044-0.215,0.064
	c-0.01,0-0.01,0.01-0.01,0.01c-0.043,0.006-0.077,0.016-0.098,0.035c-0.077,0.01-0.129,0.017-0.161,0.036l-0.015,0.009
	c-0.118,0.099-0.238,0.199-0.361,0.298c-1.21,1.006-2.445,2.064-3.712,3.169c-2.51,2.208-5.126,4.614-7.806,7.159
	c-7.577,7.178-15.635,15.506-23.179,23.687c-10.375,11.278-19.775,22.313-25.583,29.824c11.737,6.653,23.104,13.414,33.982,23.905
	c10.681,0.895,35.779,2.59,52.619,0.143c21.881-3.177,53.599-12.365,53.599-12.365l0.021-3.864l32.786-4.435
	c-2.468-14.327-4.85-19.849-7.855-27.369c-3.231-8.076-10.663-20.82-13.298-24.584c-2.788-4-2.597-3.882-9.17-13.098
	C549.481,114.599,542.318,109.114,534.023,106.346z"/>
<linearGradient id="SVGID_19_" gradientUnits="userSpaceOnUse" x1="451.9209" y1="392.5479" x2="503.9225" y2="221.8982">
	<stop  offset="0" style="stop-color:#A01918"/>
	<stop  offset="0.1814" style="stop-color:#771612"/>
	<stop  offset="0.4119" style="stop-color:#4B1810"/>
	<stop  offset="0.6753" style="stop-color:#220E06"/>
	<stop  offset="0.8756" style="stop-color:#080300"/>
	<stop  offset="0.9873" style="stop-color:#000000"/>
</linearGradient>
<path fill="url(#SVGID_19_)" d="M560.976,229.749c0,0-0.706,33.344-1.876,45.771c-1.179,12.456-7.919,42.883-19.989,59.293
	c-5.29,7.197-10.873,13.813-21.964,22.894c-0.268,0.232-0.938,0.648-1.202,0.877c0,0-1.06,0.731-1.488,0.995
	c-21.323,13.321-46.048,21.975-72.488,24.595h-0.011c-4.485,0.449-8.818,0.712-13.401,0.803c-12.12,0.236-25.129-1.187-35.385-3.349
	c-0.018,0-0.028,0-0.04-0.012c-1.923-0.405-9.077-2.187-10.893-3.861c0.244,0.071,0.513,0.152,0.772,0.196
	c0.261,0.063,0.53,0.139,0.812,0.198c0.481,0.119,0.973,0.218,1.498,0.31c0.374,0.074,0.759,0.146,1.161,0.218
	c0.311,0.054,0.622,0.099,0.947,0.133c0.311,0.049,0.639,0.093,0.974,0.148c0.325,0.025,0.658,0.064,1.002,0.099
	c0.327,0.027,0.663,0.064,1,0.091c0.64,0.055,1.295,0.09,1.962,0.108c0.233,0.012,0.481,0.025,0.711,0.025
	c1.019,0.01,2.062,0,3.121-0.044c0.548-0.026,1.1-0.045,1.638-0.09c0.446-0.026,0.888-0.055,1.33-0.091
	c0.533-0.034,1.059-0.089,1.595-0.154c0.418-0.044,0.815-0.073,1.219-0.127c0.058,0,0.125-0.011,0.186-0.011h0.011
	c0.24-0.034,0.471-0.069,0.7-0.108c0.521-0.051,1.044-0.123,1.566-0.197c0.749-0.092,1.52-0.19,2.279-0.31
	c2.678-0.37,5.351-1.083,7.749-1.81c0.551-0.145,1.052-0.315,1.513-0.468c0.317-0.109,0.653-0.219,0.962-0.311
	c4.554-1.653,8.926-3.821,13.074-6.352c4.537-2.78,8.813-6.012,12.778-9.534c0.058-0.052,0.128-0.115,0.197-0.168
	c0.049-0.057,0.098-0.095,0.159-0.146c7.43-6.517,13.839-14.021,18.819-21.469c4.982-7.432,8.543-14.836,10.276-21.161
	c1.792-6.555,3.567-13.442,4.521-21.208c0.795-6.58,1-13.782,0.125-21.957c-0.396-3.672-1.928-10.651-3.271-16.266
	c-0.506-2.108-1.278-4.703-1.999-7.02c-0.311-0.988-0.469-1.812-0.855-2.854c-0.497-1.323-0.761-2.389-1.049-3.185
	c-0.302-0.843-0.787-2.327-1.395-3.839c-0.682-1.711-2.393-5.838-2.672-6.345L560.976,229.749z"/>
<radialGradient id="SVGID_20_" cx="365.978" cy="323.627" r="161.5418" gradientTransform="matrix(0.9482 0.3471 -0.1655 0.4521 81.3511 66.4628)" gradientUnits="userSpaceOnUse">
	<stop  offset="0.0127" style="stop-color:#771612;stop-opacity:0.85"/>
	<stop  offset="0.4293" style="stop-color:#3C150D;stop-opacity:0.9141"/>
	<stop  offset="0.8053" style="stop-color:#110500;stop-opacity:0.972"/>
	<stop  offset="0.9873" style="stop-color:#000000"/>
</radialGradient>
<path fill="url(#SVGID_20_)" d="M428.466,293.586c-0.327,2.519-0.71,5.024-1.418,7.494c-1.537,6.128-3.652,11.632-6.312,16.554
	c-5.056,9.37-12.042,16.63-20.545,21.987c-9.307,5.883-20.426,9.514-32.84,11.175c-1.709,0.203-3.416,0.31-5.102,0.34
	c-6.21,0.088-12.254-0.915-17.774-2.452c-9.908-2.752-18.177-7.191-22.865-10.058c-4.552-3.958-8.891-9.104-10.354-15.189
	c-3.548-14.62-3.107-23.019-1.34-28.566c1.778-5.536,3.775-10.308,5.562-13.482c4.753-8.462,13.073-17.244,18.284-21.915
	c10.919-9.775,20.891-13.991,20.891-13.991l47.626,28.798L428.466,293.586z"/>
<linearGradient id="SVGID_21_" gradientUnits="userSpaceOnUse" x1="301.2881" y1="230.3418" x2="357.6684" y2="328.7874">
	<stop  offset="0.0127" style="stop-color:#771612"/>
	<stop  offset="0.3834" style="stop-color:#751612"/>
	<stop  offset="0.5355" style="stop-color:#6E1712"/>
	<stop  offset="0.6475" style="stop-color:#631812"/>
	<stop  offset="0.7399" style="stop-color:#541811"/>
	<stop  offset="0.8202" style="stop-color:#40160E"/>
	<stop  offset="0.892" style="stop-color:#291108"/>
	<stop  offset="0.9561" style="stop-color:#0F0400"/>
	<stop  offset="0.9873" style="stop-color:#000000"/>
</linearGradient>
<path fill="url(#SVGID_21_)" d="M320.404,337.909c0,0-0.089-0.071-1.648-1.356c-0.68-0.556-1.965-1.767-2.699-2.464
	c-0.606-0.596-2.093-1.946-2.988-2.951c-0.458-0.521-2.068-2.45-2.926-3.581c-0.673-0.889-1.557-2.208-2.457-3.831
	c-0.757-1.364-1.498-2.858-2.153-5.04c-0.515-1.702-0.984-3.91-1.14-5.403c-0.379-3.639-0.498-5.694-0.33-10.159
	c0.31-8.159,1.256-16.749,5.897-33.431c2.656-9.574,7.78-20.791,12.809-30.528c8.804-17.045,18.715-31.155,18.816-31.291
	l-0.984-0.046c0,0-6.317,8.284-14.52,22.874c-4.917,8.745-11.356,21.252-15.75,32.711c-3.338,8.682-6.207,18.945-7.496,26.547
	c-2.332,13.766-2.17,24.501-0.936,30.591c0.621,3.105,1.394,5.269,1.981,6.624c0.399,0.934,1.294,2.952,1.8,3.621
	c0.603,0.798,1.268,1.72,2.003,2.535c1.214,1.329,2.519,2.623,3.516,3.63c0.97,0.987,1.511,1.331,2.399,2.02
	c1.233,0.993,2.08,1.494,2.964,1.979c0.776,0.438,1.899,0.998,2.284,1.198c2.638,1.368,6.265,2.632,7.366,2.858
	c1.406,0.291,2.455,0.38,2.455,0.38s-1.635-1.274-4.072-3.473C322.737,340.264,320.404,337.909,320.404,337.909z"/>
<path fill="#FFFFFF" d="M564.837,280.029l3.213-7.803l-23.33-9.613l-3.213,7.803L564.837,280.029z M544.857,299.996
	c0,0-17.11-2.808-17.603-2.888l-4.825,7.329c1.043,0.109,27.062,2.968,28.345,3.107c0,0,0-0.012,0.006-0.012h0.007l3.3-5.033
	c-0.031-0.072-0.498-0.885-1.23-2.17l0.004-0.038c-3.371-5.943-12.381-21.846-12.806-22.608l-4.791,7.277
	C535.522,285.387,544.857,299.996,544.857,299.996z M545.01,174.809c-1.094,1.204-1.798,1.974-1.852,2.037l2.137,5.685
	c0.103,0.006,1.525,0.16,3.683,0.407l0.006,0.016c7.56,0.862,24.044,2.729,24.868,2.818l-3.113-8.274
	c-0.431-0.026-3.142-0.191-3.142-0.191l-4.267-11.304c0,0,1.927-1.919,2.243-2.218l-3.101-8.22
	c-0.585,0.645-12.713,13.985-17.469,19.22C545.004,174.784,545.006,174.798,545.01,174.809z M562.394,177l-9.6-0.571l6.83-6.761
	L562.394,177z M561.094,237.833c-5.749,1.766-10.876,3.348-11.069,3.413l-1.037,5.91c0.198,0.154,6.467,4.886,12.379,9.369
	l0.001,0.007c5.098,3.858,9.914,7.495,10.314,7.792l1.513-8.617c-0.354-0.243-2.579-1.735-2.579-1.735l2.07-11.802
	c0,0,2.616-0.644,3.024-0.753l1.515-8.562c-0.572,0.163-8.852,2.717-16.131,4.961V237.833z M566.343,251.075l-5.149-3.468
	c0,0,0-0.015,0-0.026l-2.71-1.83l2.68-0.678v-0.007l6.526-1.641L566.343,251.075z M522.62,141.427
	c0.15,0.198,0.301,0.408,0.454,0.615l15.107,22.646l5.068-3.374c-0.435-0.659-6.073-9.107-6.073-9.107l8.25-5.501
	c-0.003,0.009,0.029-0.009,0.029-0.009l0.036-0.035c0,0,7.28-4.842,7.832-5.224l-4.742-7.088
	c-0.57,0.381-16.133,10.763-16.133,10.763s-5.644-8.454-6.08-9.117l-5.095,3.413L522.62,141.427z M560.691,198.551
	c-0.506,1.575-0.519,3.338-0.067,7.847l0.59,5.902c0.197,1.88-0.343,2.705-1.858,2.87l-0.34,0.024c-0.077,0-0.132,0-0.198,0.019l0,0
	c-1.37,0.045-2.026-0.694-2.2-2.451l-0.648-6.429c-0.087-0.857-0.01-1.483,0.248-1.945c-0.008,0-0.008-0.025-0.015-0.036
	c0.027-0.037,0.048-0.074,0.074-0.109c0.243-0.353,0.626-0.56,1.137-0.653c-0.123-0.741-1.157-6.823-1.3-7.619
	c-0.615,0.217-1.172,0.444-1.683,0.703c0,0.02,0,0.02,0,0.02c-3.536,1.829-4.604,5.025-3.99,11.142l0.468,4.679
	c0.77,7.566,3.246,11.041,7.601,10.61l2.957-0.299c2.306-0.237,3.911-1.503,4.526-3.576c0.51-1.583,0.516-3.338,0.068-7.847
	l-0.593-5.904c-0.189-1.87,0.349-2.723,1.859-2.857l0.34-0.036c1.525-0.154,2.253,0.569,2.443,2.423l0.64,6.428
	c0.101,0.958-0.008,1.637-0.339,2.099c-0.252,0.346-0.635,0.56-1.146,0.661c0.092,0.724,0.923,6.853,1.03,7.659
	c5.105-1.459,6.753-4.724,6.031-11.921l-0.473-4.679c-0.759-7.575-3.256-11.052-7.642-10.599l-2.994,0.297
	C562.913,195.203,561.304,196.467,560.691,198.551z"/>
<linearGradient id="SVGID_22_" gradientUnits="userSpaceOnUse" x1="546.8379" y1="107.8696" x2="464.4023" y2="107.8696">
	<stop  offset="0.0127" style="stop-color:#771612"/>
	<stop  offset="0.1396" style="stop-color:#701712"/>
	<stop  offset="0.3305" style="stop-color:#5D1811"/>
	<stop  offset="0.5616" style="stop-color:#40160E"/>
	<stop  offset="0.8218" style="stop-color:#1B0A03"/>
	<stop  offset="0.9873" style="stop-color:#000000"/>
</linearGradient>
<path fill="url(#SVGID_22_)" d="M495.557,105.086c2.094-0.399,6.896-1.032,10.938-1.356c3.664-0.283,6.64-0.373,10.26-0.253
	c2.997,0.099,5.775,0.377,8.325,0.804c4.103,0.679,7.567,1.701,10.227,2.58c2.793,1.041,5.421,2.327,7.648,3.592
	c3.515,1.983,5.956,3.749,6.451,4.092c-0.13-0.144-0.237-0.289-0.363-0.434l-4.869-5.152c-0.564-0.571-1.136-1.14-1.711-1.702
	c-1.059-0.577-6.352-3.319-14.704-4.905c-3.673-0.695-7.953-1.197-12.714-1.156c-6.128,0.052-11.854,0.642-17.162,1.466
	c-5.347,0.834-10.081,1.854-14.414,2.968c-5.455,1.401-12.967,4-12.967,4l-3.531,2.861c0,0,6.437-2.262,14.296-4.301
	C485.719,107.05,490.646,105.992,495.557,105.086z"/>
<path fill="#FFFFFF" d="M386.558,155.248c1.23,0,2.455-0.017,3.659-0.026h-0.006h0.006c0.283-0.243,0.493-0.425,0.703-0.605
	c0.092-0.083,0.183-0.163,0.279-0.247h0.007c0.101-0.089,0.214-0.189,0.348-0.299c-4.226,0.145-15.243-0.516-18.64-0.624
	c-8.922-0.298-17.413-0.75-25.277-1.355c-5.959-0.471-11.56-1.006-16.712-1.63c-4.173-0.498-8.062-1.052-11.6-1.639
	c-5.11-0.853-9.5-1.792-13.035-2.808c-2.929-0.839-5.265-1.726-6.944-2.659c-1.885-1.041-2.701-2.48-2.897-3.541
	c-0.314-1.792,0.68-3.043,1.535-4.562c-0.638-0.045-2.005-0.087-3.151,0.221c-1.186,0.333-2.148,0.838-2.93,1.32
	c-0.962,0.605-1.629,1.338-2.015,1.854c-0.328,0.452-0.623,0.788-0.863,1.151c-0.157,0.224-0.328,0.423-0.344,0.724
	c-0.012,0.224,0.141,0.422,0.283,0.615c0.749,1.003,2.137,1.747,3.931,2.605c10.119,4.861,37.047,9.332,68.822,10.935
	c4.823,0.247,9.569,0.391,14.164,0.489C379.771,155.25,383.108,155.267,386.558,155.248z"/>
<path fill="#FFFFFF" d="M477.353,288.961c0-0.081,0-0.172,0-0.242c0.023-0.328,0.039-0.652,0.045-0.972
	c0.116-2.822,0.094-5.79-0.076-8.877c-0.159-2.834-0.435-5.775-0.88-8.832c-0.278-1.964-0.58-3.984-0.983-6.058
	c-0.301-1.492-0.628-3.021-1.019-4.598c-0.343-1.384-0.777-2.808-1.168-4.252c-0.115-0.436-0.641-2.172-1.014-3.233
	c-0.454-1.275-0.755-2.145-0.943-2.705c1.065,3.622,2.046,7.104,2.827,10.417c0.319,1.319,0.642,2.624,0.875,3.891
	c0.222,1.278,0.42,2.534,0.604,3.758c0.01,0.051,0.016,0.1,0.032,0.171c0.126,0.896,0.245,1.791,0.352,2.669
	c0.376,3.249,0.587,6.338,0.655,9.296c0.021,0.807,0.033,1.602,0.021,2.381v0.064c0.012,0.633,0.023,1.286,0.023,1.934
	c0,11.865-2.124,23.243-6.004,33.76c-4.37,11.855-10.98,22.636-19.321,31.808c-4.447,4.905-9.439,9.476-14.836,13.482
	c-3.285,2.445-6.711,4.745-10.271,6.728c-2.224,1.22-4.466,2.372-6.76,3.359c-2.15,0.914-4.247,1.535-6.5,2.37
	c-1.085,0.327-2.234,0.615-3.453,0.888c-1.042,0.226-2.128,0.442-3.268,0.586c-1.443,0.193-3.064,0.457-4.839,0.555
	c-1.396,0.089-2.812,0.27-5.396,0.225c-2.16-0.035-4.336-0.322-6.312-0.759c-2.051-0.462-3.882-1.022-5.228-1.415
	c-2.24-0.648-6.139-2.143-8.992-3.273c-1.118,1.265,0.9,3.666,3.702,4.806c0.822,0.345,1.851,0.687,3.022,1.014
	c1.695,0.46,3.695,0.886,5.898,1.165c2.498,0.317,5.25,0.456,8.056,0.31c1.216-0.046,2.398-0.114,3.574-0.214
	c0.482-0.057,0.955-0.084,1.426-0.14c1.851-0.199,3.67-0.407,5.528-0.661c2.683-0.377,5.346-1.129,7.745-1.855
	c0.547-0.154,1.057-0.342,1.511-0.496c0.34-0.099,0.66-0.208,0.96-0.307c5.521-2.011,10.756-4.736,15.662-7.992
	c2.352-1.559,4.625-3.213,6.8-5.005c1.822-1.488,3.766-3.081,5.614-4.808c2.835-2.634,5.463-5.405,7.148-7.278
	c1.528-1.7,3.014-3.312,4.412-5.038c1.656-2.084,3.188-4.302,4.633-6.41c1.21-1.764,2.326-3.359,3.33-5.006
	c1.431-2.326,2.701-4.771,3.854-7.268c0.958-2.073,1.835-4.182,2.642-6.319c0.007-0.009,0.007-0.024,0.007-0.024
	c0.224-0.6,0.421-1.171,0.613-1.705c0.112-0.299,0.21-0.596,0.315-0.904c0.036-0.09,0.069-0.21,0.095-0.307
	c0.034-0.075,0.053-0.152,0.071-0.219c0.165-0.48,0.312-0.957,0.468-1.438c-0.087,0.291-0.163,0.6-0.249,0.896
	c-0.032,0.146-0.09,0.325-0.152,0.542c1.317-3.844,2.406-7.792,3.242-11.836c0.89-4.283,1.485-8.666,1.791-13.135
	C477.315,291.29,477.321,289.831,477.353,288.961z"/>
<linearGradient id="SVGID_23_" gradientUnits="userSpaceOnUse" x1="522.7266" y1="115.8174" x2="448.6679" y2="272.2169">
	<stop  offset="0" style="stop-color:#778BC6;stop-opacity:0.03"/>
	<stop  offset="0.5751" style="stop-color:#353340;stop-opacity:0.0125"/>
	<stop  offset="0.9873" style="stop-color:#000000;stop-opacity:0"/>
</linearGradient>
<path fill="url(#SVGID_23_)" d="M534.023,106.346c-0.297-0.081-0.6-0.189-0.916-0.264c-0.465-0.144-0.945-0.279-1.451-0.426
	c-0.07-0.026-0.128-0.035-0.197-0.055c-0.598-0.159-1.239-0.314-1.889-0.468h-0.021c-1.315-0.317-2.718-0.608-4.223-0.861
	c-0.372-0.064-0.757-0.135-1.145-0.18c-0.761-0.118-1.556-0.217-2.366-0.317c-0.414-0.044-0.809-0.083-1.235-0.127
	c-0.305-0.017-0.616-0.054-0.925-0.071c-0.12-0.019-0.246-0.019-0.381-0.029c-0.061-0.01-0.108-0.01-0.17-0.01
	c-0.351-0.035-0.715-0.051-1.062-0.07c-0.434-0.036-0.878-0.044-1.325-0.055c-2.134-0.084-4.428-0.044-6.695,0.045
	c-0.4,0.02-0.793,0.045-1.181,0.063c-0.315,0.017-0.626,0.026-0.923,0.055c-0.693,0.035-1.39,0.081-2.072,0.125
	c0,0-5.868,0.516-8.822,0.986c-2.021,0.344-7.892,1.584-7.892,1.584l-3.883,0.916h-0.027c-0.312,0.07-0.614,0.135-0.929,0.225
	c-0.399,0.1-0.8,0.202-1.192,0.291c-0.191,0.064-0.37,0.101-0.554,0.155c-0.594,0.134-1.163,0.289-1.728,0.432
	c-1.741,0.461-3.39,0.906-4.901,1.333c-0.314,0.081-0.622,0.161-0.924,0.261c-1.096,0.308-2.096,0.599-3.001,0.861
	c-0.259,0.09-0.498,0.153-0.741,0.218c-1.196,0.343-2.141,0.641-2.8,0.84c-0.09,0.028-0.172,0.054-0.241,0.082
	c-0.067,0.026-0.137,0.046-0.203,0.062c-0.022,0.019-0.038,0.019-0.071,0.028c-0.074,0.02-0.157,0.044-0.215,0.064
	c-0.01,0-0.01,0.01-0.01,0.01c-0.043,0.006-0.077,0.016-0.098,0.035c-0.077,0.01-0.129,0.017-0.161,0.036l-0.015,0.009
	c-0.118,0.099-0.238,0.199-0.361,0.298c-1.21,1.006-2.445,2.064-3.712,3.169c-2.51,2.208-5.126,4.614-7.806,7.159
	c-7.577,7.178-15.635,15.506-23.179,23.687c-10.375,11.278-19.775,22.313-25.583,29.824c11.737,6.653,23.104,13.414,33.982,23.905
	c10.681,0.895,35.779,2.59,52.619,0.143c21.881-3.177,53.599-12.365,53.599-12.365l0.021-3.864l32.786-4.435
	c-2.468-14.327-4.85-19.849-7.855-27.369c-3.231-8.076-10.663-20.82-13.298-24.584c-2.788-4-2.597-3.882-9.17-13.098
	C549.481,114.599,542.318,109.114,534.023,106.346z"/>
</svg>
