<?xml version="1.0" encoding="UTF-8" standalone="yes"?>
<svg xmlns="http://www.w3.org/2000/svg" xmlns:xlink="http://www.w3.org/1999/xlink" width="498.66666666666663px" height="106.66666666666666px" viewBox="0 0 374 80" version="1.1">
  <g id="surface1">
    <path style=" stroke:none;fill-rule:nonzero;fill:rgb(88.627451%,0%,10.196078%);fill-opacity:1;" d="M 0 0 L 187.121094 0 L 187.121094 79.925781 L 0 79.925781 Z M 0 0 "/>
    <path style=" stroke:none;fill-rule:nonzero;fill:rgb(100%,100%,100%);fill-opacity:1;" d="M 135.933594 62.203125 L 146.878906 62.203125 L 146.878906 47.207031 L 167.578125 47.207031 L 167.578125 36.726562 L 146.878906 36.726562 L 146.878906 28.179688 L 172.257812 28.179688 L 172.257812 17.6875 L 135.933594 17.6875 Z M 51.214844 39.964844 C 51.214844 46.976562 45.164062 52.585938 38.699219 52.585938 C 32.15625 52.585938 26.175781 46.976562 26.175781 39.964844 C 26.175781 32.9375 32.15625 27.339844 38.699219 27.339844 C 45.164062 27.339844 51.214844 32.9375 51.214844 39.964844 M 62.519531 39.964844 C 62.519531 26.914062 51.933594 16.84375 38.699219 16.84375 C 25.460938 16.84375 14.867188 26.914062 14.867188 39.964844 C 14.867188 53.015625 25.464844 63.078125 38.699219 63.078125 C 51.933594 63.078125 62.519531 53.011719 62.519531 39.964844 M 78.300781 62.230469 L 89.257812 62.230469 L 89.257812 49.253906 L 97.441406 49.253906 L 106.046875 62.230469 L 119.707031 62.230469 L 108.683594 46.628906 C 113.878906 44.355469 117.507812 39.46875 117.507812 33.433594 C 117.507812 24.574219 110.964844 17.6875 101.003906 17.6875 L 78.296875 17.6875 L 78.296875 62.230469 Z M 100.359375 38.753906 L 89.257812 38.753906 L 89.257812 28.191406 L 100.359375 28.191406 C 105.121094 28.191406 106.546875 30.527344 106.546875 33.433594 C 106.546875 36.417969 105.121094 38.753906 100.359375 38.753906 "/>
    <path style=" stroke:none;fill-rule:nonzero;fill:rgb(0%,46.666667%,52.941176%);fill-opacity:1;" d="M 187.121094 0 L 374.242188 0 L 374.242188 79.925781 L 187.121094 79.925781 Z M 187.121094 0 "/>
    <path style=" stroke:none;fill-rule:nonzero;fill:rgb(100%,100%,100%);fill-opacity:1;" d="M 344.59375 62.976562 C 353.429688 62.976562 360.382812 58.085938 360.382812 49.664062 L 360.382812 49.496094 C 360.382812 41.511719 353 38.84375 346.132812 36.78125 C 340.222656 34.980469 334.726562 33.34375 334.726562 29.136719 L 334.726562 28.972656 C 334.726562 25.269531 338.074219 22.527344 343.316406 22.527344 C 347.605469 22.527344 352.3125 24.160156 356.429688 26.828125 L 359.441406 21.839844 C 354.894531 18.832031 348.882812 16.945312 343.484375 16.945312 C 334.722656 16.945312 328.378906 22.015625 328.378906 29.65625 L 328.378906 29.828125 C 328.378906 37.984375 336.105469 40.390625 343.046875 42.363281 C 348.882812 43.992188 354.121094 45.707031 354.121094 50.175781 L 354.121094 50.347656 C 354.121094 54.644531 350.253906 57.390625 344.941406 57.390625 C 339.703125 57.390625 334.390625 55.335938 329.585938 51.726562 L 326.234375 56.445312 C 331.210938 60.484375 338.242188 62.976562 344.59375 62.976562 M 277.070312 62.117188 L 283.679688 62.117188 L 283.679688 36.699219 C 283.679688 28.367188 289.34375 22.785156 296.976562 22.785156 C 304.777344 22.785156 309.253906 27.9375 309.253906 36.183594 L 309.253906 62.117188 L 315.851562 62.117188 L 315.851562 34.550781 C 315.851562 23.992188 309.589844 16.773438 298.871094 16.773438 C 291.238281 16.773438 286.59375 20.644531 283.679688 25.449219 L 283.679688 17.722656 L 277.070312 17.722656 Z M 255.113281 62.117188 L 261.726562 62.117188 L 261.726562 17.722656 L 255.113281 17.722656 Z M 207.664062 37.304688 C 208.613281 28.710938 214.449219 22.359375 222.082031 22.359375 C 230.824219 22.359375 235.464844 29.226562 236.238281 37.304688 Z M 207.664062 42.621094 L 242.847656 42.621094 C 242.929688 41.59375 242.929688 40.910156 242.929688 40.308594 C 242.929688 27.25 235.382812 16.773438 222.25 16.773438 C 209.992188 16.773438 200.980469 27.074219 200.980469 39.964844 C 200.980469 53.789062 210.929688 63.144531 223.117188 63.144531 C 231.527344 63.144531 236.917969 59.796875 241.394531 54.8125 L 237.273438 51.125 C 233.671875 54.898438 229.378906 57.394531 223.289062 57.394531 C 215.46875 57.394531 208.613281 51.988281 207.664062 42.621094 "/>
  </g>
</svg>