<?xml version="1.0" encoding="UTF-8" standalone="yes"?>
<svg xmlns="http://www.w3.org/2000/svg" xmlns:xlink="http://www.w3.org/1999/xlink" width="356px" height="106.66666666666666px" viewBox="0 0 267 80" version="1.1">
  <defs>
    <linearGradient id="linear0" gradientUnits="userSpaceOnUse" x1="626.5192" y1="20.0408" x2="451.7093" y2="20.0408" gradientTransform="matrix(0.39207,0,0,0.392157,-33.285449,32.157222)">
      <stop offset="0" style="stop-color:rgb(100%,100%,100%);stop-opacity:1;"/>
      <stop offset="1" style="stop-color:rgb(0%,0%,0%);stop-opacity:1;"/>
    </linearGradient>
  </defs>
  <g id="surface1">
    <path style=" stroke:none;fill-rule:nonzero;fill:rgb(100%,100%,100%);fill-opacity:1;" d="M 187.046875 0 L 267.0625 0 L 267.0625 80.03125 L 187.046875 80.03125 Z M 187.046875 0 "/>
    <path style=" stroke:none;fill-rule:nonzero;fill:rgb(92.54902%,10.588235%,14.117647%);fill-opacity:1;" d="M 0 0 L 186.894531 0 L 186.894531 80.03125 L 0 80.03125 Z M 0 0 "/>
    <path style=" stroke:none;fill-rule:nonzero;fill:rgb(100%,100%,100%);fill-opacity:1;" d="M 62.453125 40.019531 C 62.453125 26.949219 51.863281 16.863281 38.648438 16.863281 C 25.433594 16.863281 14.84375 26.949219 14.84375 40.019531 C 14.84375 53.082031 25.433594 63.164062 38.648438 63.164062 C 51.863281 63.164062 62.453125 53.082031 62.453125 40.019531 M 51.15625 40.019531 C 51.15625 47.046875 45.117188 52.65625 38.648438 52.65625 C 32.109375 52.65625 26.140625 47.046875 26.140625 40.019531 C 26.140625 32.984375 32.109375 27.378906 38.648438 27.378906 C 45.117188 27.378906 51.15625 32.984375 51.15625 40.019531 "/>
    <path style=" stroke:none;fill-rule:nonzero;fill:rgb(100%,100%,100%);fill-opacity:1;" d="M 78.210938 62.3125 L 89.15625 62.3125 L 89.15625 49.320312 L 97.324219 49.320312 L 105.921875 62.3125 L 119.5625 62.3125 L 108.550781 46.691406 C 113.738281 44.421875 117.363281 39.519531 117.363281 33.484375 C 117.363281 24.605469 110.824219 17.71875 100.875 17.71875 L 78.210938 17.71875 Z M 100.238281 38.8125 L 89.15625 38.8125 L 89.15625 28.226562 L 100.238281 28.226562 C 105 28.226562 106.421875 30.570312 106.421875 33.484375 C 106.421875 36.46875 105 38.8125 100.238281 38.8125 "/>
    <path style=" stroke:none;fill-rule:nonzero;fill:rgb(100%,100%,100%);fill-opacity:1;" d="M 135.765625 62.289062 L 146.695312 62.289062 L 146.695312 47.273438 L 167.359375 47.273438 L 167.359375 36.769531 L 146.695312 36.769531 L 146.695312 28.21875 L 172.046875 28.21875 L 172.046875 17.71875 L 135.765625 17.71875 Z M 135.765625 62.289062 "/>
    <path style=" stroke:none;fill-rule:nonzero;fill:rgb(100%,100%,100%);fill-opacity:1;" d="M 243.515625 30.875 C 243.515625 22.808594 236.90625 15.902344 226.433594 15.902344 C 218.523438 15.902344 212.394531 18.953125 207.53125 26.878906 L 217.261719 31.53125 C 219.378906 27.75 222.347656 25.859375 225.988281 25.859375 C 229.628906 25.859375 232.339844 28.261719 232.339844 30.730469 C 232.339844 32.402344 231.597656 34.003906 229.332031 35.746094 L 208.570312 52.179688 L 208.570312 62.429688 L 243.367188 62.429688 L 243.367188 52.03125 L 224.910156 52.03125 L 235.753906 43.820312 C 240.398438 40.332031 243.515625 36.039062 243.515625 30.875 "/>
    <path style=" stroke:none;fill-rule:nonzero;fill:url(#linear0);" d="M 186.902344 0 L 215.03125 0 L 215.03125 80.03125 L 186.902344 80.03125 Z M 186.902344 0 "/>
    <path style=" stroke:none;fill-rule:nonzero;fill:rgb(88.627451%,0%,10.196078%);fill-opacity:1;" d="M 0 0 L 186.894531 0 L 186.894531 80.03125 L 0 80.03125 Z M 0 0 "/>
    <path style=" stroke:none;fill-rule:nonzero;fill:rgb(100%,100%,100%);fill-opacity:1;" d="M 62.453125 40.019531 C 62.453125 26.949219 51.863281 16.863281 38.648438 16.863281 C 25.433594 16.863281 14.84375 26.949219 14.84375 40.019531 C 14.84375 53.082031 25.433594 63.164062 38.648438 63.164062 C 51.863281 63.164062 62.453125 53.082031 62.453125 40.019531 M 51.15625 40.019531 C 51.15625 47.046875 45.117188 52.65625 38.648438 52.65625 C 32.109375 52.65625 26.140625 47.046875 26.140625 40.019531 C 26.140625 32.984375 32.109375 27.378906 38.648438 27.378906 C 45.117188 27.378906 51.15625 32.984375 51.15625 40.019531 "/>
    <path style=" stroke:none;fill-rule:nonzero;fill:rgb(100%,100%,100%);fill-opacity:1;" d="M 78.210938 62.3125 L 89.15625 62.3125 L 89.15625 49.320312 L 97.324219 49.320312 L 105.921875 62.3125 L 119.5625 62.3125 L 108.550781 46.691406 C 113.738281 44.421875 117.363281 39.519531 117.363281 33.484375 C 117.363281 24.605469 110.824219 17.71875 100.875 17.71875 L 78.210938 17.71875 Z M 100.238281 38.8125 L 89.15625 38.8125 L 89.15625 28.226562 L 100.238281 28.226562 C 105 28.226562 106.421875 30.570312 106.421875 33.484375 C 106.421875 36.46875 105 38.8125 100.238281 38.8125 "/>
    <path style=" stroke:none;fill-rule:nonzero;fill:rgb(100%,100%,100%);fill-opacity:1;" d="M 135.765625 62.289062 L 146.695312 62.289062 L 146.695312 47.273438 L 167.359375 47.273438 L 167.359375 36.769531 L 146.695312 36.769531 L 146.695312 28.21875 L 172.046875 28.21875 L 172.046875 17.71875 L 135.765625 17.71875 Z M 135.765625 62.289062 "/>
    <path style=" stroke:none;fill-rule:nonzero;fill:rgb(88.627451%,0%,10.196078%);fill-opacity:1;" d="M 243.515625 30.875 C 243.515625 22.808594 236.90625 15.902344 226.433594 15.902344 C 218.523438 15.902344 212.394531 18.953125 207.53125 26.878906 L 217.261719 31.53125 C 219.378906 27.75 222.347656 25.859375 225.988281 25.859375 C 229.628906 25.859375 232.339844 28.261719 232.339844 30.730469 C 232.339844 32.402344 231.597656 34.003906 229.332031 35.746094 L 208.570312 52.179688 L 208.570312 62.429688 L 243.367188 62.429688 L 243.367188 52.03125 L 224.910156 52.03125 L 235.753906 43.820312 C 240.398438 40.332031 243.515625 36.039062 243.515625 30.875 "/>
  </g>
</svg>