<?xml version="1.0" encoding="utf-8"?>
<!-- Generator: Adobe Illustrator 15.0.0, SVG Export Plug-In . SVG Version: 6.00 Build 0)  -->
<!DOCTYPE svg PUBLIC "-//W3C//DTD SVG 1.1//EN" "http://www.w3.org/Graphics/SVG/1.1/DTD/svg11.dtd">
<svg version="1.1" id="svg11358" xmlns:svg="http://www.w3.org/2000/svg"
	 xmlns="http://www.w3.org/2000/svg" xmlns:xlink="http://www.w3.org/1999/xlink" x="0px" y="0px" width="681.143px"
	 height="204.084px" viewBox="0 0 681.143 204.084" enable-background="new 0 0 681.143 204.084" xml:space="preserve">
<g id="layer1" transform="translate(-84.896595,82.000916)">
	<g id="g13505">
		<path id="path3589" fill="#FFFFFF" d="M561.975-82.001h204.082v204.084H561.975V-82.001z"/>
		<path id="path3591" fill="#EC1B24" d="M84.897-82.001h476.682v204.084H84.897V-82.001z"/>
		<path id="path3593" fill="#FFFFFF" d="M244.185,20.046c0-33.324-27.006-59.042-60.709-59.042
			c-33.712,0-60.718,25.718-60.718,59.042c0,33.314,27.006,59.022,60.718,59.022C217.179,79.068,244.185,53.36,244.185,20.046
			 M215.37,20.046c0,17.922-15.402,32.226-31.894,32.226c-16.681,0-31.903-14.304-31.903-32.226
			c0-17.932,15.223-32.234,31.903-32.234C199.968-12.189,215.37,2.114,215.37,20.046"/>
		<path id="path3595" fill="#FFFFFF" d="M284.377,76.899h27.916V43.764h20.839l21.929,33.135h34.792l-28.086-39.832
			c13.223-5.797,22.469-18.291,22.469-33.684c0-22.639-16.672-40.201-42.049-40.201h-57.81V76.899z M340.558,16.967h-28.266V-10.02
			h28.266c12.144,0,15.771,5.977,15.771,13.403C356.329,10.99,352.701,16.967,340.558,16.967"/>
		<path id="path3597" fill="#FFFFFF" d="M431.171,76.833h27.886V38.546h52.705V11.766h-52.705v-21.806h64.66v-26.778h-92.546V76.833
			z"/>
		<path id="path3599" fill="#FFFFFF" d="M706.003-3.266c0-20.574-16.861-38.184-43.572-38.184c-20.178,0-35.807,7.777-48.215,27.991
			l24.816,11.859c5.4-9.634,12.979-14.455,22.262-14.455s16.197,6.119,16.197,12.418c0,4.263-1.895,8.346-7.672,12.788
			l-52.951,41.906v26.135h88.756V50.68h-47.078l27.66-20.943C698.046,20.842,706.003,9.9,706.003-3.266"/>
		<linearGradient id="path3601_1_" gradientUnits="userSpaceOnUse" x1="626.5192" y1="20.0408" x2="451.7093" y2="20.0408">
			<stop  offset="0" style="stop-color:#FFFFFF"/>
			<stop  offset="1" style="stop-color:#000000"/>
		</linearGradient>
		<path id="path3601" fill="url(#path3601_1_)" d="M561.6-82.001h71.749v204.084H561.6V-82.001z"/>
		<path id="path3603" fill="#E2001A" d="M84.897-82.001h476.682v204.084H84.897V-82.001z"/>
		<path id="path3605" fill="#FFFFFF" d="M244.185,20.046c0-33.324-27.006-59.042-60.709-59.042
			c-33.712,0-60.718,25.718-60.718,59.042c0,33.314,27.006,59.022,60.718,59.022C217.179,79.068,244.185,53.36,244.185,20.046
			 M215.37,20.046c0,17.922-15.402,32.226-31.894,32.226c-16.681,0-31.903-14.304-31.903-32.226
			c0-17.932,15.223-32.234,31.903-32.234C199.968-12.189,215.37,2.114,215.37,20.046"/>
		<path id="path3607" fill="#FFFFFF" d="M284.377,76.899h27.916V43.764h20.839l21.929,33.135h34.792l-28.086-39.832
			c13.223-5.797,22.469-18.291,22.469-33.684c0-22.639-16.672-40.201-42.049-40.201h-57.81V76.899z M340.558,16.967h-28.266V-10.02
			h28.266c12.144,0,15.771,5.977,15.771,13.403C356.329,10.99,352.701,16.967,340.558,16.967"/>
		<path id="path3609" fill="#FFFFFF" d="M431.171,76.833h27.886V38.546h52.705V11.766h-52.705v-21.806h64.66v-26.778h-92.546V76.833
			z"/>
		<path id="path3611" fill="#E2001A" d="M706.003-3.266c0-20.574-16.861-38.184-43.572-38.184c-20.178,0-35.807,7.777-48.215,27.991
			l24.816,11.859c5.4-9.634,12.979-14.455,22.262-14.455s16.197,6.119,16.197,12.418c0,4.263-1.895,8.346-7.672,12.788
			l-52.951,41.906v26.135h88.756V50.68h-47.078l27.66-20.943C698.046,20.842,706.003,9.9,706.003-3.266"/>
	</g>
</g>
</svg>
