<?xml version="1.0" encoding="UTF-8" standalone="yes"?>
<svg xmlns="http://www.w3.org/2000/svg" xmlns:xlink="http://www.w3.org/1999/xlink" width="273.3333333333333px" height="106.66666666666666px" viewBox="0 0 205 80" version="1.1">
  <g id="surface1">
    <path style=" stroke:none;fill-rule:nonzero;fill:rgb(92.54902%,10.588235%,14.117647%);fill-opacity:1;" d="M 0 0.121094 L 141.457031 0.121094 L 141.457031 60.800781 L 0 60.800781 Z M 0 0.121094 "/>
    <path style=" stroke:none;fill-rule:nonzero;fill:rgb(100%,100%,100%);fill-opacity:1;" d="M 47.269531 30.460938 C 47.269531 20.554688 39.253906 12.90625 29.253906 12.90625 C 19.25 12.90625 11.234375 20.554688 11.234375 30.460938 C 11.234375 40.367188 19.25 48.011719 29.253906 48.011719 C 39.253906 48.011719 47.269531 40.367188 47.269531 30.460938 M 38.71875 30.460938 C 38.71875 35.789062 34.148438 40.042969 29.253906 40.042969 C 24.304688 40.042969 19.785156 35.789062 19.785156 30.460938 C 19.785156 25.128906 24.304688 20.875 29.253906 20.875 C 34.148438 20.875 38.71875 25.128906 38.71875 30.460938 "/>
    <path style=" stroke:none;fill-rule:nonzero;fill:rgb(100%,100%,100%);fill-opacity:1;" d="M 59.195312 47.367188 L 67.480469 47.367188 L 67.480469 37.511719 L 73.664062 37.511719 L 80.171875 47.367188 L 90.496094 47.367188 L 82.160156 35.523438 C 86.085938 33.796875 88.828125 30.082031 88.828125 25.507812 C 88.828125 18.777344 83.882812 13.554688 76.351562 13.554688 L 59.195312 13.554688 Z M 75.867188 29.546875 L 67.480469 29.546875 L 67.480469 21.523438 L 75.867188 21.523438 C 79.472656 21.523438 80.546875 23.300781 80.546875 25.507812 C 80.546875 27.769531 79.472656 29.546875 75.867188 29.546875 "/>
    <path style=" stroke:none;fill-rule:nonzero;fill:rgb(100%,100%,100%);fill-opacity:1;" d="M 102.757812 47.347656 L 111.03125 47.347656 L 111.03125 35.960938 L 126.671875 35.960938 L 126.671875 28 L 111.03125 28 L 111.03125 21.515625 L 130.222656 21.515625 L 130.222656 13.554688 L 102.757812 13.554688 Z M 102.757812 47.347656 "/>
    <path style=" stroke:none;fill-rule:nonzero;fill:rgb(88.627451%,0%,10.196078%);fill-opacity:1;" d="M 0 0.121094 L 141.457031 0.121094 L 141.457031 60.800781 L 0 60.800781 Z M 0 0.121094 "/>
    <path style=" stroke:none;fill-rule:nonzero;fill:rgb(100%,100%,100%);fill-opacity:1;" d="M 47.269531 30.460938 C 47.269531 20.554688 39.253906 12.90625 29.253906 12.90625 C 19.25 12.90625 11.234375 20.554688 11.234375 30.460938 C 11.234375 40.367188 19.25 48.011719 29.253906 48.011719 C 39.253906 48.011719 47.269531 40.367188 47.269531 30.460938 M 38.71875 30.460938 C 38.71875 35.789062 34.148438 40.042969 29.253906 40.042969 C 24.304688 40.042969 19.785156 35.789062 19.785156 30.460938 C 19.785156 25.128906 24.304688 20.875 29.253906 20.875 C 34.148438 20.875 38.71875 25.128906 38.71875 30.460938 "/>
    <path style=" stroke:none;fill-rule:nonzero;fill:rgb(100%,100%,100%);fill-opacity:1;" d="M 59.195312 47.367188 L 67.480469 47.367188 L 67.480469 37.511719 L 73.664062 37.511719 L 80.171875 47.367188 L 90.496094 47.367188 L 82.160156 35.523438 C 86.085938 33.796875 88.828125 30.082031 88.828125 25.507812 C 88.828125 18.777344 83.882812 13.554688 76.351562 13.554688 L 59.195312 13.554688 Z M 75.867188 29.546875 L 67.480469 29.546875 L 67.480469 21.523438 L 75.867188 21.523438 C 79.472656 21.523438 80.546875 23.300781 80.546875 25.507812 C 80.546875 27.769531 79.472656 29.546875 75.867188 29.546875 "/>
    <path style=" stroke:none;fill-rule:nonzero;fill:rgb(100%,100%,100%);fill-opacity:1;" d="M 102.757812 47.347656 L 111.03125 47.347656 L 111.03125 35.960938 L 126.671875 35.960938 L 126.671875 28 L 111.03125 28 L 111.03125 21.515625 L 130.222656 21.515625 L 130.222656 13.554688 L 102.757812 13.554688 Z M 102.757812 47.347656 "/>
    <path style=" stroke:none;fill-rule:nonzero;fill:rgb(33.72549%,33.72549%,33.72549%);fill-opacity:1;" d="M 163.035156 60.777344 C 162.925781 60.71875 161.125 59.921875 159.039062 59.011719 C 156.953125 58.097656 155.101562 57.28125 154.925781 57.203125 C 154.75 57.121094 154.59375 57.054688 154.574219 57.054688 C 154.558594 57.054688 154.386719 56.980469 154.191406 56.890625 C 153.996094 56.800781 153.640625 56.636719 153.398438 56.523438 C 153.160156 56.414062 152.945312 56.320312 152.929688 56.320312 C 152.851562 56.320312 151.238281 55.566406 151.152344 55.488281 C 151.058594 55.40625 151.050781 54.144531 151.050781 30.488281 C 151.050781 9.066406 151.0625 5.5625 151.132812 5.496094 C 151.175781 5.449219 151.636719 5.230469 152.160156 5.003906 C 152.679688 4.777344 153.132812 4.574219 153.164062 4.550781 C 153.195312 4.527344 153.28125 4.488281 153.359375 4.464844 C 153.4375 4.441406 153.652344 4.351562 153.839844 4.269531 C 154.023438 4.183594 154.375 4.019531 154.617188 3.910156 C 154.859375 3.796875 155.070312 3.707031 155.085938 3.707031 C 155.113281 3.707031 155.472656 3.546875 155.863281 3.363281 C 156.859375 2.902344 163.207031 0.140625 163.292969 0.132812 C 163.40625 0.125 163.40625 0.164062 163.421875 30.507812 C 163.433594 59.417969 163.429688 60.890625 163.335938 60.886719 C 163.28125 60.886719 163.148438 60.835938 163.035156 60.777344 Z M 183.820312 60.84375 C 183.789062 60.8125 183.375 60.621094 182.894531 60.410156 C 182.414062 60.199219 181.890625 59.96875 181.730469 59.894531 C 181.570312 59.820312 181.425781 59.761719 181.40625 59.761719 C 181.390625 59.761719 181.21875 59.6875 181.023438 59.597656 C 180.234375 59.230469 179.785156 59.027344 179.761719 59.027344 C 179.746094 59.027344 179.601562 58.964844 179.441406 58.890625 C 179.28125 58.816406 177.46875 58.019531 175.414062 57.117188 C 173.359375 56.21875 171.65625 55.460938 171.628906 55.433594 C 171.550781 55.355469 171.566406 5.625 171.644531 5.53125 C 171.679688 5.488281 171.730469 5.453125 171.757812 5.453125 C 171.789062 5.453125 172 5.363281 172.230469 5.257812 C 172.460938 5.148438 172.664062 5.058594 172.683594 5.058594 C 172.699219 5.058594 172.84375 4.996094 173.003906 4.921875 C 173.164062 4.847656 174.917969 4.074219 176.898438 3.207031 C 180.457031 1.652344 180.851562 1.476562 181.515625 1.167969 C 181.699219 1.082031 181.914062 0.992188 181.992188 0.96875 C 182.066406 0.945312 182.382812 0.808594 182.695312 0.664062 C 183.789062 0.152344 184.023438 0.0664062 184.078125 0.15625 C 184.109375 0.203125 184.363281 12.476562 184.117188 30.550781 L 184.105469 60.863281 L 183.992188 60.878906 C 183.929688 60.886719 183.851562 60.871094 183.820312 60.84375 Z M 204.382812 60.84375 C 204.351562 60.8125 203.957031 60.628906 203.507812 60.4375 C 203.0625 60.242188 202.539062 60.011719 202.347656 59.921875 C 202.15625 59.835938 201.984375 59.761719 201.96875 59.761719 C 201.953125 59.761719 201.777344 59.6875 201.585938 59.597656 C 201.390625 59.507812 200.988281 59.328125 200.695312 59.199219 C 199.925781 58.859375 199.3125 58.585938 198.90625 58.402344 C 198.714844 58.3125 198.539062 58.238281 198.519531 58.238281 C 198.5 58.238281 198.378906 58.1875 198.253906 58.125 C 198.125 58.0625 196.71875 57.445312 195.128906 56.746094 C 193.539062 56.050781 192.214844 55.460938 192.1875 55.433594 C 192.160156 55.40625 192.140625 44.253906 192.140625 30.492188 C 192.140625 10.613281 192.152344 5.585938 192.210938 5.535156 C 192.25 5.5 193.945312 4.742188 195.984375 3.851562 C 198.019531 2.960938 199.855469 2.15625 200.0625 2.0625 C 200.273438 1.96875 200.550781 1.84375 200.679688 1.785156 C 200.8125 1.722656 200.929688 1.675781 200.945312 1.675781 C 200.957031 1.675781 201.191406 1.570312 201.464844 1.445312 C 201.738281 1.316406 202.113281 1.148438 202.300781 1.070312 C 202.484375 0.992188 202.75 0.878906 202.890625 0.816406 C 203.90625 0.355469 204.550781 0.09375 204.617188 0.121094 C 204.679688 0.144531 204.6875 5.03125 204.675781 30.503906 L 204.664062 60.863281 L 204.550781 60.878906 C 204.488281 60.886719 204.410156 60.871094 204.382812 60.84375 Z M 204.382812 60.84375 "/>
    <path style=" stroke:none;fill-rule:nonzero;fill:rgb(0%,0%,0%);fill-opacity:1;" d="M 14.019531 79.105469 L 8.800781 71.484375 L 13.789062 65.871094 L 10.53125 65.871094 L 5.558594 71.65625 L 5.558594 65.871094 L 2.863281 65.871094 L 2.863281 79.105469 L 5.558594 79.105469 L 5.558594 75.058594 L 6.976562 73.472656 L 10.777344 79.105469 Z M 14.019531 79.105469 "/>
    <path style=" stroke:none;fill-rule:nonzero;fill:rgb(0%,0%,0%);fill-opacity:1;" d="M 23.902344 79.105469 L 23.902344 68.96875 L 21.242188 68.96875 L 21.242188 74.625 C 21.234375 75.304688 21.085938 75.820312 20.789062 76.164062 C 20.496094 76.511719 20.089844 76.683594 19.578125 76.6875 C 19.066406 76.683594 18.671875 76.511719 18.390625 76.164062 C 18.113281 75.820312 17.96875 75.304688 17.964844 74.625 L 17.964844 68.96875 L 15.304688 68.96875 L 15.304688 75.53125 C 15.3125 76.707031 15.589844 77.625 16.144531 78.285156 C 16.695312 78.949219 17.476562 79.285156 18.492188 79.296875 C 19.15625 79.28125 19.707031 79.117188 20.140625 78.800781 C 20.578125 78.488281 20.941406 78.109375 21.242188 77.667969 L 21.242188 79.105469 Z M 23.902344 79.105469 "/>
    <path style=" stroke:none;fill-rule:nonzero;fill:rgb(0%,0%,0%);fill-opacity:1;" d="M 29.070312 79.105469 L 29.070312 65.300781 L 26.40625 65.300781 L 26.40625 79.105469 Z M 29.070312 79.105469 "/>
    <path style=" stroke:none;fill-rule:nonzero;fill:rgb(0%,0%,0%);fill-opacity:1;" d="M 36.859375 78.691406 L 36.859375 76.382812 C 36.664062 76.496094 36.460938 76.585938 36.242188 76.648438 C 36.023438 76.710938 35.789062 76.742188 35.542969 76.742188 C 35.25 76.742188 35.03125 76.660156 34.890625 76.5 C 34.753906 76.335938 34.683594 76.089844 34.6875 75.757812 L 34.6875 71.429688 L 36.894531 71.429688 L 36.894531 68.96875 L 34.6875 68.96875 L 34.6875 66.378906 L 32.023438 66.378906 L 32.023438 68.96875 L 30.902344 68.96875 L 30.902344 71.429688 L 32.023438 71.429688 L 32.023438 76.230469 C 32.035156 77.386719 32.289062 78.183594 32.78125 78.632812 C 33.269531 79.082031 33.929688 79.296875 34.757812 79.277344 C 35.199219 79.273438 35.589844 79.222656 35.933594 79.117188 C 36.273438 79.015625 36.582031 78.871094 36.859375 78.691406 Z M 36.859375 78.691406 "/>
    <path style=" stroke:none;fill-rule:nonzero;fill:rgb(0%,0%,0%);fill-opacity:1;" d="M 47.367188 79.105469 L 47.367188 68.96875 L 44.703125 68.96875 L 44.703125 74.625 C 44.699219 75.304688 44.546875 75.820312 44.253906 76.164062 C 43.957031 76.511719 43.554688 76.683594 43.042969 76.6875 C 42.53125 76.683594 42.132812 76.511719 41.855469 76.164062 C 41.574219 75.820312 41.433594 75.304688 41.429688 74.625 L 41.429688 68.96875 L 38.769531 68.96875 L 38.769531 75.53125 C 38.773438 76.707031 39.054688 77.625 39.605469 78.285156 C 40.160156 78.949219 40.941406 79.285156 41.957031 79.296875 C 42.621094 79.28125 43.171875 79.117188 43.605469 78.800781 C 44.039062 78.488281 44.40625 78.109375 44.703125 77.667969 L 44.703125 79.105469 Z M 47.367188 79.105469 "/>
    <path style=" stroke:none;fill-rule:nonzero;fill:rgb(0%,0%,0%);fill-opacity:1;" d="M 55.40625 71.789062 L 55.40625 68.78125 C 54.625 68.753906 53.996094 68.941406 53.519531 69.34375 C 53.042969 69.746094 52.675781 70.304688 52.410156 71.011719 L 52.410156 68.96875 L 49.75 68.96875 L 49.75 79.105469 L 52.410156 79.105469 L 52.410156 75.363281 C 52.417969 74.15625 52.675781 73.257812 53.175781 72.667969 C 53.675781 72.078125 54.371094 71.785156 55.265625 71.789062 Z M 55.40625 71.789062 "/>
    <path style=" stroke:none;fill-rule:nonzero;fill:rgb(0%,0%,0%);fill-opacity:1;" d="M 70.25 79.105469 L 70.25 69.460938 L 69.394531 69.460938 L 69.394531 75.039062 C 69.375 76.0625 69.074219 76.886719 68.5 77.511719 C 67.925781 78.140625 67.1875 78.464844 66.292969 78.484375 C 65.386719 78.46875 64.6875 78.167969 64.199219 77.582031 C 63.710938 76.996094 63.460938 76.199219 63.457031 75.191406 L 63.457031 69.460938 L 62.597656 69.460938 L 62.597656 75.363281 C 62.605469 76.535156 62.917969 77.488281 63.539062 78.214844 C 64.15625 78.9375 65.035156 79.3125 66.171875 79.332031 C 66.980469 79.320312 67.648438 79.125 68.167969 78.746094 C 68.691406 78.371094 69.101562 77.890625 69.394531 77.308594 L 69.394531 79.105469 Z M 70.25 79.105469 "/>
    <path style=" stroke:none;fill-rule:nonzero;fill:rgb(0%,0%,0%);fill-opacity:1;" d="M 81.167969 79.105469 L 81.167969 73.207031 C 81.160156 72.03125 80.847656 71.082031 80.226562 70.355469 C 79.609375 69.628906 78.730469 69.257812 77.59375 69.234375 C 76.785156 69.25 76.117188 69.445312 75.59375 69.820312 C 75.074219 70.199219 74.664062 70.679688 74.371094 71.257812 L 74.371094 69.460938 L 73.515625 69.460938 L 73.515625 79.105469 L 74.371094 79.105469 L 74.371094 73.527344 C 74.390625 72.507812 74.6875 71.683594 75.265625 71.054688 C 75.839844 70.425781 76.578125 70.105469 77.472656 70.085938 C 78.378906 70.097656 79.078125 70.398438 79.566406 70.988281 C 80.054688 71.574219 80.304688 72.371094 80.308594 73.375 L 80.308594 79.105469 Z M 81.167969 79.105469 "/>
    <path style=" stroke:none;fill-rule:nonzero;fill:rgb(0%,0%,0%);fill-opacity:1;" d="M 92.554688 79.105469 L 92.554688 65.300781 L 91.695312 65.300781 L 91.695312 71.542969 C 91.332031 70.917969 90.851562 70.382812 90.25 69.933594 C 89.652344 69.488281 88.90625 69.257812 88.019531 69.234375 C 86.894531 69.25 85.902344 69.699219 85.039062 70.582031 C 84.175781 71.46875 83.722656 72.699219 83.675781 74.285156 L 83.675781 74.320312 C 83.722656 75.90625 84.175781 77.132812 85.039062 78.003906 C 85.902344 78.878906 86.894531 79.320312 88.019531 79.332031 C 88.898438 79.3125 89.636719 79.074219 90.230469 78.617188 C 90.828125 78.160156 91.316406 77.605469 91.695312 76.949219 L 91.695312 79.105469 Z M 91.75 74.304688 C 91.714844 75.550781 91.339844 76.550781 90.625 77.296875 C 89.910156 78.042969 89.070312 78.425781 88.105469 78.445312 C 87.140625 78.429688 86.324219 78.054688 85.652344 77.316406 C 84.980469 76.578125 84.632812 75.566406 84.605469 74.285156 L 84.605469 74.246094 C 84.628906 72.941406 84.96875 71.929688 85.625 71.214844 C 86.285156 70.496094 87.109375 70.132812 88.105469 70.125 C 89.070312 70.140625 89.910156 70.523438 90.625 71.265625 C 91.339844 72.007812 91.714844 73.007812 91.75 74.265625 Z M 91.75 74.304688 "/>
    <path style=" stroke:none;fill-rule:nonzero;fill:rgb(0%,0%,0%);fill-opacity:1;" d="M 103.742188 79.105469 L 103.742188 65.871094 L 101.046875 65.871094 L 101.046875 79.105469 Z M 103.742188 79.105469 "/>
    <path style=" stroke:none;fill-rule:nonzero;fill:rgb(0%,0%,0%);fill-opacity:1;" d="M 115.125 79.105469 L 115.125 72.542969 C 115.117188 71.371094 114.839844 70.453125 114.289062 69.789062 C 113.734375 69.128906 112.953125 68.792969 111.9375 68.78125 C 111.273438 68.796875 110.722656 68.960938 110.289062 69.277344 C 109.855469 69.589844 109.488281 69.96875 109.1875 70.40625 L 109.1875 68.96875 L 106.527344 68.96875 L 106.527344 79.105469 L 109.1875 79.105469 L 109.1875 73.453125 C 109.195312 72.769531 109.34375 72.257812 109.640625 71.910156 C 109.933594 71.566406 110.339844 71.390625 110.851562 71.390625 C 111.363281 71.390625 111.757812 71.566406 112.039062 71.910156 C 112.320312 72.257812 112.460938 72.769531 112.464844 73.453125 L 112.464844 79.105469 Z M 115.125 79.105469 "/>
    <path style=" stroke:none;fill-rule:nonzero;fill:rgb(0%,0%,0%);fill-opacity:1;" d="M 122.691406 67.835938 L 122.691406 65.453125 C 122.449219 65.367188 122.179688 65.296875 121.878906 65.246094 C 121.574219 65.195312 121.214844 65.171875 120.800781 65.167969 C 119.859375 65.164062 119.140625 65.429688 118.644531 65.960938 C 118.148438 66.488281 117.898438 67.3125 117.894531 68.421875 L 117.894531 69.066406 L 116.789062 69.066406 L 116.789062 71.429688 L 117.894531 71.429688 L 117.894531 79.105469 L 120.554688 79.105469 L 120.554688 71.429688 L 122.675781 71.429688 L 122.675781 69.085938 L 120.519531 69.085938 L 120.519531 68.6875 C 120.523438 68.308594 120.605469 68.03125 120.773438 67.855469 C 120.9375 67.675781 121.175781 67.589844 121.484375 67.589844 C 121.707031 67.589844 121.917969 67.613281 122.113281 67.65625 C 122.308594 67.699219 122.5 67.757812 122.691406 67.835938 Z M 122.691406 67.835938 "/>
    <path style=" stroke:none;fill-rule:nonzero;fill:rgb(0%,0%,0%);fill-opacity:1;" d="M 133.84375 74.058594 L 133.84375 74.019531 C 133.816406 72.527344 133.335938 71.289062 132.402344 70.308594 C 131.472656 69.328125 130.265625 68.816406 128.78125 68.78125 C 127.292969 68.820312 126.074219 69.335938 125.136719 70.328125 C 124.199219 71.320312 123.714844 72.5625 123.6875 74.058594 L 123.6875 74.09375 C 123.714844 75.585938 124.195312 76.824219 125.128906 77.804688 C 126.058594 78.789062 127.265625 79.296875 128.746094 79.332031 C 130.238281 79.296875 131.453125 78.78125 132.390625 77.789062 C 133.332031 76.792969 133.8125 75.550781 133.84375 74.058594 Z M 131.21875 74.09375 C 131.210938 74.863281 130.996094 75.511719 130.570312 76.035156 C 130.148438 76.5625 129.550781 76.835938 128.78125 76.855469 C 128.035156 76.832031 127.441406 76.554688 126.996094 76.015625 C 126.550781 75.480469 126.324219 74.828125 126.3125 74.058594 L 126.3125 74.019531 C 126.320312 73.25 126.535156 72.605469 126.960938 72.078125 C 127.382812 71.554688 127.980469 71.28125 128.746094 71.257812 C 129.496094 71.28125 130.089844 71.5625 130.535156 72.097656 C 130.976562 72.632812 131.207031 73.289062 131.21875 74.058594 Z M 131.21875 74.09375 "/>
    <path style=" stroke:none;fill-rule:nonzero;fill:rgb(0%,0%,0%);fill-opacity:1;" d="M 141.429688 71.789062 L 141.429688 68.78125 C 140.648438 68.753906 140.019531 68.941406 139.542969 69.34375 C 139.066406 69.746094 138.695312 70.304688 138.433594 71.011719 L 138.433594 68.96875 L 135.769531 68.96875 L 135.769531 79.105469 L 138.433594 79.105469 L 138.433594 75.363281 C 138.441406 74.15625 138.695312 73.257812 139.195312 72.667969 C 139.699219 72.078125 140.394531 71.785156 141.289062 71.789062 Z M 141.429688 71.789062 "/>
    <path style=" stroke:none;fill-rule:nonzero;fill:rgb(0%,0%,0%);fill-opacity:1;" d="M 157.414062 79.105469 L 157.414062 72.507812 C 157.40625 71.285156 157.125 70.359375 156.574219 69.730469 C 156.019531 69.101562 155.242188 68.785156 154.246094 68.78125 C 153.609375 68.785156 153.039062 68.921875 152.535156 69.195312 C 152.03125 69.46875 151.574219 69.867188 151.164062 70.390625 C 150.914062 69.875 150.566406 69.480469 150.117188 69.203125 C 149.667969 68.925781 149.136719 68.785156 148.519531 68.78125 C 147.851562 68.796875 147.300781 68.960938 146.859375 69.277344 C 146.421875 69.589844 146.050781 69.96875 145.753906 70.40625 L 145.753906 68.96875 L 143.089844 68.96875 L 143.089844 79.105469 L 145.753906 79.105469 L 145.753906 73.453125 C 145.757812 72.769531 145.902344 72.257812 146.183594 71.910156 C 146.46875 71.566406 146.859375 71.390625 147.363281 71.390625 C 147.867188 71.390625 148.25 71.566406 148.515625 71.910156 C 148.785156 72.257812 148.921875 72.769531 148.921875 73.453125 L 148.921875 79.105469 L 151.585938 79.105469 L 151.585938 73.453125 C 151.589844 72.769531 151.734375 72.257812 152.015625 71.910156 C 152.296875 71.566406 152.691406 71.390625 153.195312 71.390625 C 153.695312 71.390625 154.082031 71.566406 154.347656 71.910156 C 154.617188 72.257812 154.75 72.769531 154.753906 73.453125 L 154.753906 79.105469 Z M 157.414062 79.105469 "/>
    <path style=" stroke:none;fill-rule:nonzero;fill:rgb(0%,0%,0%);fill-opacity:1;" d="M 167.785156 79.105469 L 167.785156 73.226562 C 167.792969 71.84375 167.460938 70.773438 166.785156 70.011719 C 166.109375 69.253906 165.046875 68.867188 163.601562 68.855469 C 162.816406 68.859375 162.140625 68.933594 161.570312 69.078125 C 161 69.222656 160.464844 69.421875 159.960938 69.671875 L 160.625 71.863281 C 161.042969 71.691406 161.457031 71.558594 161.863281 71.460938 C 162.265625 71.367188 162.71875 71.316406 163.214844 71.316406 C 163.882812 71.316406 164.382812 71.476562 164.722656 71.796875 C 165.058594 72.113281 165.230469 72.570312 165.230469 73.167969 L 165.230469 73.339844 C 164.902344 73.214844 164.554688 73.113281 164.1875 73.039062 C 163.820312 72.964844 163.402344 72.925781 162.9375 72.921875 C 161.804688 72.917969 160.898438 73.183594 160.210938 73.710938 C 159.523438 74.238281 159.171875 75.054688 159.152344 76.15625 L 159.152344 76.195312 C 159.175781 77.199219 159.492188 77.96875 160.101562 78.496094 C 160.710938 79.023438 161.46875 79.292969 162.375 79.296875 C 163.019531 79.289062 163.574219 79.171875 164.039062 78.945312 C 164.5 78.714844 164.890625 78.402344 165.210938 78.007812 L 165.210938 79.105469 Z M 165.265625 75.53125 C 165.257812 76.0625 165.0625 76.488281 164.691406 76.8125 C 164.316406 77.132812 163.8125 77.300781 163.179688 77.308594 C 162.746094 77.308594 162.394531 77.199219 162.132812 76.984375 C 161.871094 76.773438 161.734375 76.472656 161.726562 76.082031 L 161.726562 76.042969 C 161.734375 75.585938 161.898438 75.242188 162.21875 75.003906 C 162.542969 74.765625 162.992188 74.644531 163.566406 74.644531 C 163.890625 74.644531 164.199219 74.679688 164.488281 74.746094 C 164.777344 74.816406 165.035156 74.90625 165.265625 75.023438 Z M 165.265625 75.53125 "/>
    <path style=" stroke:none;fill-rule:nonzero;fill:rgb(0%,0%,0%);fill-opacity:1;" d="M 175.347656 78.691406 L 175.347656 76.382812 C 175.15625 76.496094 174.949219 76.585938 174.730469 76.648438 C 174.511719 76.710938 174.28125 76.742188 174.035156 76.742188 C 173.738281 76.742188 173.523438 76.660156 173.382812 76.5 C 173.246094 76.335938 173.175781 76.089844 173.175781 75.757812 L 173.175781 71.429688 L 175.382812 71.429688 L 175.382812 68.96875 L 173.175781 68.96875 L 173.175781 66.378906 L 170.515625 66.378906 L 170.515625 68.96875 L 169.394531 68.96875 L 169.394531 71.429688 L 170.515625 71.429688 L 170.515625 76.230469 C 170.527344 77.386719 170.777344 78.183594 171.269531 78.632812 C 171.761719 79.082031 172.421875 79.296875 173.246094 79.277344 C 173.691406 79.273438 174.082031 79.222656 174.421875 79.117188 C 174.761719 79.015625 175.070312 78.871094 175.347656 78.691406 Z M 175.347656 78.691406 "/>
    <path style=" stroke:none;fill-rule:nonzero;fill:rgb(0%,0%,0%);fill-opacity:1;" d="M 180.183594 67.855469 L 180.183594 65.300781 L 177.382812 65.300781 L 177.382812 67.855469 Z M 180.113281 79.105469 L 180.113281 68.96875 L 177.453125 68.96875 L 177.453125 79.105469 Z M 180.113281 79.105469 "/>
    <path style=" stroke:none;fill-rule:nonzero;fill:rgb(0%,0%,0%);fill-opacity:1;" d="M 192.332031 74.058594 L 192.332031 74.019531 C 192.304688 72.527344 191.824219 71.289062 190.890625 70.308594 C 189.960938 69.328125 188.753906 68.816406 187.269531 68.78125 C 185.78125 68.820312 184.5625 69.335938 183.625 70.328125 C 182.6875 71.320312 182.203125 72.5625 182.175781 74.058594 L 182.175781 74.09375 C 182.203125 75.585938 182.683594 76.824219 183.617188 77.804688 C 184.546875 78.789062 185.753906 79.296875 187.234375 79.332031 C 188.726562 79.296875 189.941406 78.78125 190.878906 77.789062 C 191.820312 76.792969 192.300781 75.550781 192.332031 74.058594 Z M 189.707031 74.09375 C 189.699219 74.863281 189.484375 75.511719 189.058594 76.035156 C 188.636719 76.5625 188.039062 76.835938 187.269531 76.855469 C 186.523438 76.832031 185.929688 76.554688 185.484375 76.015625 C 185.039062 75.480469 184.8125 74.828125 184.800781 74.058594 L 184.800781 74.019531 C 184.808594 73.25 185.023438 72.605469 185.449219 72.078125 C 185.871094 71.554688 186.46875 71.28125 187.234375 71.257812 C 187.984375 71.28125 188.578125 71.5625 189.023438 72.097656 C 189.464844 72.632812 189.695312 73.289062 189.707031 74.058594 Z M 189.707031 74.09375 "/>
    <path style=" stroke:none;fill-rule:nonzero;fill:rgb(0%,0%,0%);fill-opacity:1;" d="M 202.859375 79.105469 L 202.859375 72.542969 C 202.851562 71.371094 202.570312 70.453125 202.019531 69.789062 C 201.46875 69.128906 200.683594 68.792969 199.671875 68.78125 C 199.003906 68.796875 198.453125 68.960938 198.019531 69.277344 C 197.585938 69.589844 197.21875 69.96875 196.921875 70.40625 L 196.921875 68.96875 L 194.257812 68.96875 L 194.257812 79.105469 L 196.921875 79.105469 L 196.921875 73.453125 C 196.925781 72.769531 197.078125 72.257812 197.371094 71.910156 C 197.667969 71.566406 198.070312 71.390625 198.585938 71.390625 C 199.097656 71.390625 199.492188 71.566406 199.773438 71.910156 C 200.050781 72.257812 200.191406 72.769531 200.195312 73.453125 L 200.195312 79.105469 Z M 202.859375 79.105469 "/>
  </g>
</svg>