<?xml version="1.0" encoding="UTF-8" standalone="no"?>
<!-- Created with Inkscape (http://www.inkscape.org/) -->
<svg
   xmlns:dc="http://purl.org/dc/elements/1.1/"
   xmlns:cc="http://web.resource.org/cc/"
   xmlns:rdf="http://www.w3.org/1999/02/22-rdf-syntax-ns#"
   xmlns:svg="http://www.w3.org/2000/svg"
   xmlns="http://www.w3.org/2000/svg"
   xmlns:xlink="http://www.w3.org/1999/xlink"
   xmlns:sodipodi="http://sodipodi.sourceforge.net/DTD/sodipodi-0.dtd"
   xmlns:inkscape="http://www.inkscape.org/namespaces/inkscape"
   width="24"
   height="18"
   id="svg2"
   sodipodi:version="0.32"
   inkscape:version="0.45.1"
   version="1.0"
   sodipodi:docbase="C:\Users\Simon\Pictures"
   sodipodi:docname="Outdoor Channel.svg"
   inkscape:output_extension="org.inkscape.output.svg.inkscape">
  <defs
     id="defs4">

  </defs>
  <sodipodi:namedview
     id="base"
     pagecolor="#ffffff"
     bordercolor="#666666"
     borderopacity="1.0"
     gridtolerance="10000"
     guidetolerance="10"
     objecttolerance="10"
     inkscape:pageopacity="0.0"
     inkscape:pageshadow="2"
     inkscape:zoom="18.03297"
     inkscape:cx="11.636443"
     inkscape:cy="9.1119266"
     inkscape:document-units="px"
     inkscape:current-layer="layer1"
     width="24px"
     height="18px"
     inkscape:window-width="784"
     inkscape:window-height="575"
     inkscape:window-x="6"
     inkscape:window-y="14" />
  <metadata
     id="metadata7">
    <rdf:RDF>
      <cc:Work
         rdf:about="">
        <dc:format>image/svg+xml</dc:format>
        <dc:type
           rdf:resource="http://purl.org/dc/dcmitype/StillImage" />
      </cc:Work>
    </rdf:RDF>
  </metadata>
  <g
     inkscape:label="Layer 1"
     inkscape:groupmode="layer"
     id="layer1"
     transform="translate(-6.79055,-1030.0089)">
    <path
       id="path12513"
       d="M 9.73417,1044.9131 C 9.56617,1045.0171 9.13917,1045.2621 8.38117,1045.2621 C 8.23817,1045.2621 8.09617,1045.2531 7.96317,1045.2311 C 7.83017,1045.2111 7.70317,1045.1841 7.58217,1045.1331 C 7.08017,1044.9201 7.07917,1044.5211 7.16617,1044.1651 C 7.22317,1043.9121 7.51417,1043.1061 8.32117,1042.6831 C 8.66817,1042.4981 9.09117,1042.4081 9.58217,1042.4081 C 9.94317,1042.4081 10.38117,1042.4781 10.59917,1042.6991 C 10.84417,1042.9511 10.82717,1043.2651 10.76817,1043.5051 C 10.72117,1043.6961 10.63417,1043.8891 10.52317,1044.0791 C 10.35717,1044.3551 10.11317,1044.6801 9.73417,1044.9131 M 9.69517,1043.4201 C 9.72617,1043.2921 9.77317,1042.9791 9.35217,1042.9791 C 9.23917,1042.9791 9.00517,1043.0251 8.78317,1043.2461 C 8.55217,1043.4741 8.29117,1043.9591 8.22717,1044.2191 C 8.21917,1044.2501 8.19617,1044.3471 8.21217,1044.4241 C 8.24917,1044.6731 8.54117,1044.6731 8.57617,1044.6731 C 9.09517,1044.6731 9.41617,1044.0711 9.57217,1043.7381 C 9.62317,1043.6331 9.66817,1043.5251 9.69517,1043.4201"
       style="fill:#000000;fill-rule:nonzero;stroke:none" />
    <path
       id="path12519"
       d="M 14.57117,1042.4741 L 14.30517,1042.9701 L 13.92117,1043.6921 C 13.49817,1044.4861 13.29617,1044.8091 12.89117,1045.0251 C 12.53717,1045.2191 12.12217,1045.2581 11.77017,1045.2581 C 11.38017,1045.2581 11.08117,1045.2031 10.90817,1045.1031 C 10.52417,1044.8901 10.61017,1044.5411 10.63517,1044.4361 C 10.69117,1044.2071 10.83017,1043.9471 10.94917,1043.7231 L 11.35217,1042.9661 L 11.59317,1042.4891 L 11.63317,1042.4671 L 12.68117,1042.4511 L 12.70017,1042.4741 L 12.33817,1043.1291 L 12.00817,1043.7421 C 11.82217,1044.0991 11.74517,1044.2501 11.71417,1044.3821 C 11.65717,1044.6101 11.84217,1044.6801 12.01617,1044.6801 C 12.26917,1044.6801 12.40317,1044.5561 12.45317,1044.5141 C 12.59917,1044.3821 12.66917,1044.2501 13.01917,1043.6141 L 13.34717,1043.0051 L 13.61717,1042.4891 L 13.65217,1042.4671 C 14.05817,1042.4671 14.15817,1042.4621 14.55717,1042.4511 L 14.57117,1042.4741"
       style="fill:#000000;fill-rule:nonzero;stroke:none" />
    <path
       id="path12523"
       d="M 15.17857,1045.1802 L 15.13857,1045.2032 L 14.10057,1045.2152 L 14.08157,1045.1922 L 14.37757,1044.6682 L 14.82957,1043.8582 L 15.27057,1043.0522 L 14.96157,1043.0562 L 14.44457,1043.0672 L 14.43257,1043.0372 L 14.75957,1042.4892 L 14.80457,1042.4672 L 16.51257,1042.4672 L 17.38157,1042.4552 L 17.40657,1042.4782 L 17.08157,1043.0292 L 17.03557,1043.0562 L 16.57857,1043.0442 L 16.32157,1043.0442 L 15.97457,1043.6722 L 15.57357,1044.4202 L 15.17857,1045.1802 z "
       style="fill:#000000;fill-rule:nonzero;stroke:none" />
    <path
       id="path12527"
       d="M 16.13267,1045.1924 L 16.67867,1044.1954 L 17.02967,1043.5294 C 17.28967,1043.0334 17.35067,1042.9094 17.53867,1042.4864 L 17.58267,1042.4624 L 18.44567,1042.4624 C 19.20567,1042.4514 20.30367,1042.4364 20.04267,1043.4934 C 19.93467,1043.9394 19.64067,1044.3704 19.32167,1044.6414 C 18.74567,1045.1334 18.09367,1045.2084 17.30167,1045.2084 C 17.16667,1045.2084 17.03567,1045.2034 16.90267,1045.2034 L 16.53967,1045.2034 L 16.14667,1045.2154 L 16.13267,1045.1924 z M 17.52067,1044.5994 L 17.57067,1044.5994 C 17.81767,1044.5994 18.11067,1044.5954 18.40367,1044.3664 C 18.67367,1044.1534 18.89967,1043.7614 18.95967,1043.5094 C 19.06867,1043.0714 18.74867,1043.0564 18.40367,1043.0604 L 18.33267,1043.0604 L 18.03267,1043.6224 L 17.52067,1044.5994"
       style="fill:#000000;fill-rule:nonzero;stroke:none" />
    <path
       id="path12531"
       d="M 22.59457,1044.9131 C 22.42557,1045.0171 21.99857,1045.2621 21.24157,1045.2621 C 21.09957,1045.2621 20.95657,1045.2531 20.82457,1045.2311 C 20.69157,1045.2111 20.56557,1045.1841 20.44357,1045.1331 C 19.94157,1044.9201 19.94057,1044.5211 20.02757,1044.1651 C 20.08257,1043.9121 20.37457,1043.1061 21.18257,1042.6831 C 21.53057,1042.4981 21.95157,1042.4081 22.44257,1042.4081 C 22.80357,1042.4081 23.24157,1042.4781 23.45857,1042.6991 C 23.70457,1042.9511 23.68857,1043.2651 23.62757,1043.5051 C 23.58057,1043.6961 23.49457,1043.8891 23.38357,1044.0791 C 23.21657,1044.3551 22.97457,1044.6801 22.59457,1044.9131 M 22.55557,1043.4201 C 22.58657,1043.2921 22.63357,1042.9791 22.21357,1042.9791 C 22.09957,1042.9791 21.86557,1043.0251 21.64357,1043.2461 C 21.41357,1043.4741 21.15157,1043.9591 21.08857,1044.2191 C 21.07957,1044.2501 21.05757,1044.3471 21.07257,1044.4241 C 21.11157,1044.6731 21.40157,1044.6731 21.43657,1044.6731 C 21.95557,1044.6731 22.27757,1044.0711 22.43257,1043.7381 C 22.48357,1043.6331 22.52957,1043.5251 22.55557,1043.4201"
       style="fill:#000000;fill-rule:nonzero;stroke:none" />
    <path
       id="path12537"
       d="M 26.18347,1044.9131 C 26.01447,1045.0171 25.58847,1045.2621 24.83047,1045.2621 C 24.68747,1045.2621 24.54547,1045.2531 24.41247,1045.2311 C 24.27847,1045.2111 24.15247,1045.1841 24.03147,1045.1331 C 23.52947,1044.9201 23.52747,1044.5211 23.61547,1044.1651 C 23.67247,1043.9121 23.96347,1043.1061 24.77047,1042.6831 C 25.11847,1042.4981 25.53947,1042.4081 26.03147,1042.4081 C 26.39247,1042.4081 26.83047,1042.4781 27.04847,1042.6991 C 27.29247,1042.9511 27.27647,1043.2651 27.21647,1043.5051 C 27.16847,1043.6961 27.08247,1043.8891 26.97247,1044.0791 C 26.80547,1044.3551 26.56247,1044.6801 26.18347,1044.9131 M 26.14447,1043.4201 C 26.17547,1043.2921 26.22347,1042.9791 25.80247,1042.9791 C 25.68847,1042.9791 25.45447,1043.0251 25.23147,1043.2461 C 25.00047,1043.4741 24.74047,1043.9591 24.67647,1044.2191 C 24.66747,1044.2501 24.64447,1044.3471 24.66047,1044.4241 C 24.69847,1044.6731 24.99047,1044.6731 25.02547,1044.6731 C 25.54347,1044.6731 25.86647,1044.0711 26.02147,1043.7381 C 26.07247,1043.6331 26.11847,1043.5251 26.14447,1043.4201"
       style="fill:#000000;fill-rule:nonzero;stroke:none" />
    <path
       id="path12541"
       d="M 29.09947,1042.459 C 29.60747,1042.462 29.92747,1042.467 30.13747,1042.575 C 30.31847,1042.668 30.45347,1042.846 30.37547,1043.157 C 30.32947,1043.351 30.22347,1043.54 30.04547,1043.699 C 29.79247,1043.92 29.54347,1043.99 29.32247,1044.049 L 29.44247,1044.668 L 29.55047,1045.153 L 29.52347,1045.184 L 28.47147,1045.215 L 28.44747,1045.192 L 28.40647,1044.819 L 28.34147,1044.191 L 28.15847,1044.195 C 27.94647,1044.575 27.89547,1044.68 27.65847,1045.18 L 27.62047,1045.199 C 27.15947,1045.199 27.03447,1045.203 26.60547,1045.215 L 26.58047,1045.192 L 27.02147,1044.409 L 27.28247,1043.932 C 27.65447,1043.257 27.73147,1043.11 28.01747,1042.489 L 28.04647,1042.467 L 29.09947,1042.459 z M 28.44647,1043.664 L 28.52547,1043.664 C 28.70747,1043.664 28.95147,1043.664 29.14647,1043.493 C 29.25247,1043.401 29.30047,1043.27 29.30747,1043.242 C 29.32547,1043.168 29.29847,1043.094 29.22947,1043.056 C 29.16847,1043.017 29.08147,1043.009 28.90947,1043.009 L 28.81047,1043.009 L 28.70247,1043.207 L 28.44647,1043.664"
       style="fill:#000000;fill-rule:nonzero;stroke:none" />
    <path
       id="path12547"
       d="M 17.547669,1046.062 C 17.452669,1045.898 17.252669,1045.797 16.986669,1045.797 C 16.472669,1045.797 15.843669,1046.185 15.603669,1046.625 C 15.361669,1047.065 15.569669,1047.454 16.087669,1047.454 C 16.348669,1047.454 16.660669,1047.347 16.931669,1047.188 L 16.780669,1047.464 C 16.512669,1047.589 16.228669,1047.661 15.984669,1047.661 C 15.330669,1047.661 15.030669,1047.202 15.341669,1046.633 C 15.654669,1046.061 16.453669,1045.591 17.114669,1045.591 C 17.372669,1045.591 17.565669,1045.654 17.697669,1045.787 L 17.547669,1046.062"
       style="fill:#000000;fill-rule:nonzero;stroke:none" />
    <path
       id="path12551"
       d="M 19.229369,1046.437 L 19.672369,1045.625 L 19.930369,1045.625 L 18.836369,1047.626 L 18.579369,1047.626 L 19.116369,1046.644 L 17.933369,1046.644 L 17.396369,1047.626 L 17.139369,1047.626 L 18.233369,1045.625 L 18.490369,1045.625 L 18.046369,1046.437 L 19.229369,1046.437 z "
       style="fill:#000000;fill-rule:nonzero;stroke:none" />
    <path
       id="path12555"
       d="M 19.970569,1047.0581 L 19.381569,1047.6261 L 19.099569,1047.6261 L 21.311569,1045.5291 L 21.202569,1047.6261 L 20.918569,1047.6261 L 20.956569,1047.0581 L 19.970569,1047.0581 z M 21.021569,1046.0501 L 20.188569,1046.8511 L 20.969569,1046.8511 L 21.021569,1046.0501 z "
       style="fill:#000000;fill-rule:nonzero;stroke:none" />
    <path
       id="path12559"
       d="M 22.611169,1045.5401 L 23.517169,1047.1751 L 24.364169,1045.6251 L 24.622169,1045.6251 L 23.479169,1047.7171 L 22.570169,1046.0841 L 21.727169,1047.6261 L 21.470169,1047.6261 L 22.611169,1045.5401 z "
       style="fill:#000000;fill-rule:nonzero;stroke:none" />
    <path
       id="path12563"
       d="M 25.163869,1045.5401 L 26.072869,1047.1751 L 26.920869,1045.6251 L 27.177869,1045.6251 L 26.033869,1047.7171 L 25.124869,1046.0841 L 24.281869,1047.6261 L 24.023869,1047.6261 L 25.163869,1045.5401 z "
       style="fill:#000000;fill-rule:nonzero;stroke:none" />
    <path
       id="path12567"
       d="M 27.658069,1045.625 L 28.855069,1045.625 L 28.743069,1045.832 L 27.803069,1045.832 L 27.477069,1046.427 L 28.390069,1046.427 L 28.277069,1046.633 L 27.364069,1046.633 L 26.935069,1047.419 L 27.875069,1047.419 L 27.762069,1047.626 L 26.564069,1047.626 L 27.658069,1045.625 z "
       style="fill:#000000;fill-rule:nonzero;stroke:none" />
    <path
       id="path12571"
       d="M 28.570169,1047.419 L 29.207169,1047.419 L 29.094169,1047.626 L 28.200169,1047.626 L 29.293169,1045.625 L 29.551169,1045.625 L 28.570169,1047.419 z "
       style="fill:#000000;fill-rule:nonzero;stroke:none" />
    <path
       id="path12575"
       d="M 15.348469,1038.7993 L 21.277469,1032.8973 L 24.761469,1036.3803 L 21.260469,1035.1523 L 15.348469,1038.7993 z "
       style="fill:#afbd22;fill-rule:nonzero;stroke:none" />
    <path
       id="path12579"
       d="M 13.238169,1039.6831 C 13.446169,1039.4751 21.221169,1031.6991 21.319169,1031.6021 C 21.417169,1031.7001 25.973169,1036.2541 25.973169,1036.2541 L 27.236169,1036.2531 L 21.354169,1030.3971 L 16.222169,1035.4811 L 14.565169,1033.7821 L 7.333169,1041.3591 L 30.285169,1041.3551 L 30.291169,1041.2141 C 30.291169,1041.2141 13.536169,1039.7101 13.238169,1039.6831"
       style="fill:#000000;fill-rule:nonzero;stroke:none" />
    <path
       id="path12583"
       d="M 29.824069,1047.2451 L 29.824069,1047.2901 L 29.697069,1047.2901 L 29.697069,1047.6261 L 29.644069,1047.6261 L 29.644069,1047.2901 L 29.515069,1047.2901 L 29.515069,1047.2451 L 29.824069,1047.2451 z "
       style="fill:#000000;fill-rule:nonzero;stroke:none" />
    <path
       id="path12587"
       d="M 29.869969,1047.2451 L 29.944969,1047.2451 L 30.053969,1047.5671 L 30.161969,1047.2451 L 30.235969,1047.2451 L 30.235969,1047.6261 L 30.186969,1047.6261 L 30.186969,1047.4011 L 30.186969,1047.3631 C 30.187969,1047.3441 30.187969,1047.3261 30.187969,1047.3041 L 30.077969,1047.6261 L 30.027969,1047.6261 L 29.917969,1047.3041 L 29.917969,1047.3161 L 29.917969,1047.3591 C 29.918969,1047.3781 29.918969,1047.3921 29.918969,1047.4011 L 29.918969,1047.6261 L 29.869969,1047.6261 L 29.869969,1047.2451"
       style="fill:#000000;fill-rule:nonzero;stroke:none" />
  </g>
</svg>
