<?xml version="1.0" encoding="UTF-8" standalone="yes"?>
<svg xmlns="http://www.w3.org/2000/svg" xmlns:xlink="http://www.w3.org/1999/xlink" width="141.33333333333331px" height="106.66666666666666px" viewBox="0 0 106 80" version="1.1">
  <g id="surface1">
    <path style=" stroke:none;fill-rule:nonzero;fill:rgb(0%,0%,0%);fill-opacity:1;" d="M 13 66.242188 C 12.257812 66.703125 10.375 67.792969 7.023438 67.792969 C 6.394531 67.792969 5.765625 67.753906 5.179688 67.652344 C 4.589844 67.566406 4.03125 67.445312 3.496094 67.21875 C 1.277344 66.273438 1.273438 64.5 1.660156 62.917969 C 1.910156 61.792969 3.195312 58.210938 6.761719 56.328125 C 8.292969 55.507812 10.160156 55.109375 12.328125 55.109375 C 13.925781 55.109375 15.859375 55.417969 16.820312 56.402344 C 17.902344 57.519531 17.828125 58.917969 17.566406 59.984375 C 17.359375 60.832031 16.976562 61.691406 16.484375 62.535156 C 15.753906 63.761719 14.675781 65.207031 13 66.242188 M 12.828125 59.605469 C 12.964844 59.035156 13.171875 57.644531 11.3125 57.644531 C 10.816406 57.644531 9.78125 57.851562 8.800781 58.832031 C 7.78125 59.84375 6.628906 62 6.34375 63.15625 C 6.308594 63.292969 6.207031 63.726562 6.277344 64.066406 C 6.441406 65.175781 7.730469 65.175781 7.886719 65.175781 C 10.179688 65.175781 11.597656 62.5 12.285156 61.019531 C 12.511719 60.550781 12.710938 60.070312 12.828125 59.605469 "/>
    <path style=" stroke:none;fill-rule:nonzero;fill:rgb(0%,0%,0%);fill-opacity:1;" d="M 34.363281 55.402344 L 33.191406 57.605469 L 31.492188 60.8125 C 29.625 64.34375 28.734375 65.777344 26.945312 66.738281 C 25.382812 67.601562 23.546875 67.773438 21.992188 67.773438 C 20.269531 67.773438 18.949219 67.53125 18.1875 67.085938 C 16.488281 66.136719 16.871094 64.585938 16.980469 64.121094 C 17.226562 63.101562 17.839844 61.949219 18.367188 60.953125 L 20.148438 57.585938 L 21.210938 55.46875 L 21.386719 55.371094 L 26.015625 55.296875 L 26.101562 55.402344 L 24.503906 58.3125 L 23.042969 61.035156 C 22.222656 62.625 21.882812 63.292969 21.746094 63.882812 C 21.496094 64.894531 22.3125 65.207031 23.078125 65.207031 C 24.195312 65.207031 24.789062 64.652344 25.011719 64.46875 C 25.65625 63.882812 25.964844 63.292969 27.507812 60.46875 L 28.957031 57.761719 L 30.152344 55.46875 L 30.304688 55.371094 C 32.097656 55.371094 32.539062 55.347656 34.300781 55.296875 L 34.363281 55.402344 "/>
    <path style=" stroke:none;fill-rule:nonzero;fill:rgb(0%,0%,0%);fill-opacity:1;" d="M 37.046875 67.429688 L 36.871094 67.53125 L 32.285156 67.582031 L 32.203125 67.480469 L 33.507812 65.152344 L 35.503906 61.550781 L 37.453125 57.96875 L 36.089844 57.988281 L 33.804688 58.035156 L 33.753906 57.902344 L 35.195312 55.46875 L 35.394531 55.371094 L 42.9375 55.371094 L 46.777344 55.316406 L 46.886719 55.417969 L 45.453125 57.867188 L 45.25 57.988281 L 43.230469 57.933594 L 42.09375 57.933594 L 40.5625 60.726562 L 38.792969 64.050781 Z M 37.046875 67.429688 "/>
    <path style=" stroke:none;fill-rule:nonzero;fill:rgb(0%,0%,0%);fill-opacity:1;" d="M 41.261719 67.480469 L 43.671875 63.050781 L 45.222656 60.089844 C 46.371094 57.886719 46.640625 57.335938 47.472656 55.457031 L 47.664062 55.347656 L 51.476562 55.347656 C 54.832031 55.300781 59.683594 55.234375 58.53125 59.929688 C 58.054688 61.914062 56.753906 63.828125 55.347656 65.035156 C 52.800781 67.21875 49.921875 67.554688 46.425781 67.554688 C 45.828125 67.554688 45.25 67.53125 44.660156 67.53125 L 43.058594 67.53125 L 41.324219 67.585938 Z M 47.390625 64.847656 L 47.613281 64.847656 C 48.703125 64.847656 49.996094 64.828125 51.292969 63.8125 C 52.484375 62.863281 53.480469 61.121094 53.746094 60.003906 C 54.226562 58.054688 52.816406 57.988281 51.292969 58.007812 L 50.976562 58.007812 L 49.652344 60.503906 L 47.390625 64.847656 "/>
    <path style=" stroke:none;fill-rule:nonzero;fill:rgb(0%,0%,0%);fill-opacity:1;" d="M 69.800781 66.242188 C 69.054688 66.703125 67.167969 67.792969 63.824219 67.792969 C 63.199219 67.792969 62.566406 67.753906 61.984375 67.652344 C 61.394531 67.566406 60.839844 67.445312 60.300781 67.21875 C 58.082031 66.273438 58.078125 64.5 58.464844 62.917969 C 58.707031 61.792969 59.996094 58.210938 63.566406 56.328125 C 65.101562 55.507812 66.960938 55.109375 69.128906 55.109375 C 70.722656 55.109375 72.660156 55.417969 73.617188 56.402344 C 74.703125 57.519531 74.632812 58.917969 74.363281 59.984375 C 74.15625 60.832031 73.777344 61.691406 73.285156 62.535156 C 72.546875 63.761719 71.480469 65.207031 69.800781 66.242188 M 69.628906 59.605469 C 69.765625 59.035156 69.972656 57.644531 68.117188 57.644531 C 67.613281 57.644531 66.582031 57.851562 65.601562 58.832031 C 64.585938 59.84375 63.429688 62 63.148438 63.15625 C 63.109375 63.292969 63.011719 63.726562 63.078125 64.066406 C 63.25 65.175781 64.53125 65.175781 64.6875 65.175781 C 66.980469 65.175781 68.402344 62.5 69.085938 61.019531 C 69.3125 60.550781 69.515625 60.070312 69.628906 59.605469 "/>
    <path style=" stroke:none;fill-rule:nonzero;fill:rgb(0%,0%,0%);fill-opacity:1;" d="M 85.652344 66.242188 C 84.90625 66.703125 83.023438 67.792969 79.675781 67.792969 C 79.042969 67.792969 78.417969 67.753906 77.832031 67.652344 C 77.238281 67.566406 76.683594 67.445312 76.148438 67.21875 C 73.929688 66.273438 73.921875 64.5 74.308594 62.917969 C 74.5625 61.792969 75.847656 58.210938 79.410156 56.328125 C 80.949219 55.507812 82.808594 55.109375 84.980469 55.109375 C 86.574219 55.109375 88.507812 55.417969 89.472656 56.402344 C 90.550781 57.519531 90.480469 58.917969 90.214844 59.984375 C 90.003906 60.832031 89.621094 61.691406 89.136719 62.535156 C 88.398438 63.761719 87.324219 65.207031 85.652344 66.242188 M 85.480469 59.605469 C 85.617188 59.035156 85.828125 57.644531 83.96875 57.644531 C 83.464844 57.644531 82.433594 57.851562 81.449219 58.832031 C 80.425781 59.84375 79.277344 62 78.996094 63.15625 C 78.957031 63.292969 78.855469 63.726562 78.925781 64.066406 C 79.09375 65.175781 80.382812 65.175781 80.539062 65.175781 C 82.824219 65.175781 84.253906 62.5 84.9375 61.019531 C 85.160156 60.550781 85.363281 60.070312 85.480469 59.605469 "/>
    <path style=" stroke:none;fill-rule:nonzero;fill:rgb(0%,0%,0%);fill-opacity:1;" d="M 98.53125 55.332031 C 100.773438 55.347656 102.1875 55.371094 103.117188 55.847656 C 103.914062 56.261719 104.511719 57.054688 104.167969 58.4375 C 103.964844 59.296875 103.496094 60.136719 102.710938 60.84375 C 101.59375 61.828125 100.492188 62.136719 99.515625 62.402344 L 100.046875 65.152344 L 100.523438 67.308594 L 100.402344 67.445312 L 95.757812 67.582031 L 95.652344 67.480469 L 95.46875 65.824219 L 95.183594 63.03125 L 94.375 63.050781 C 93.4375 64.738281 93.214844 65.203125 92.167969 67.425781 L 92 67.511719 C 89.960938 67.511719 89.410156 67.53125 87.515625 67.582031 L 87.40625 67.480469 L 89.351562 64 L 90.507812 61.878906 C 92.148438 58.878906 92.488281 58.226562 93.753906 55.46875 L 93.878906 55.371094 Z M 95.648438 60.6875 L 95.996094 60.6875 C 96.800781 60.6875 97.878906 60.6875 98.738281 59.929688 C 99.207031 59.519531 99.417969 58.9375 99.449219 58.8125 C 99.527344 58.484375 99.410156 58.15625 99.105469 57.988281 C 98.835938 57.8125 98.453125 57.777344 97.691406 57.777344 L 97.253906 57.777344 L 96.777344 58.660156 L 95.648438 60.6875 "/>
    <path style=" stroke:none;fill-rule:nonzero;fill:rgb(0%,0%,0%);fill-opacity:1;" d="M 47.511719 71.347656 C 47.089844 70.617188 46.207031 70.167969 45.03125 70.167969 C 42.761719 70.167969 39.984375 71.894531 38.925781 73.847656 C 37.855469 75.804688 38.773438 77.535156 41.0625 77.535156 C 42.214844 77.535156 43.59375 77.058594 44.789062 76.351562 L 44.121094 77.578125 C 42.9375 78.132812 41.683594 78.453125 40.605469 78.453125 C 37.71875 78.453125 36.394531 76.414062 37.765625 73.886719 C 39.148438 71.34375 42.679688 69.253906 45.597656 69.253906 C 46.738281 69.253906 47.589844 69.535156 48.171875 70.125 L 47.511719 71.347656 "/>
    <path style=" stroke:none;fill-rule:nonzero;fill:rgb(0%,0%,0%);fill-opacity:1;" d="M 54.9375 73.015625 L 56.894531 69.40625 L 58.035156 69.40625 L 53.203125 78.296875 L 52.066406 78.296875 L 54.4375 73.933594 L 49.214844 73.933594 L 46.84375 78.296875 L 45.707031 78.296875 L 50.539062 69.40625 L 51.675781 69.40625 L 49.714844 73.015625 Z M 54.9375 73.015625 "/>
    <path style=" stroke:none;fill-rule:nonzero;fill:rgb(0%,0%,0%);fill-opacity:1;" d="M 58.210938 75.773438 L 55.609375 78.296875 L 54.363281 78.296875 L 64.132812 68.980469 L 63.652344 78.296875 L 62.398438 78.296875 L 62.566406 75.773438 Z M 62.855469 71.292969 L 59.175781 74.855469 L 62.625 74.855469 Z M 62.855469 71.292969 "/>
    <path style=" stroke:none;fill-rule:nonzero;fill:rgb(0%,0%,0%);fill-opacity:1;" d="M 69.875 69.027344 L 73.875 76.292969 L 77.617188 69.40625 L 78.757812 69.40625 L 73.707031 78.703125 L 69.691406 71.445312 L 65.96875 78.296875 L 64.835938 78.296875 Z M 69.875 69.027344 "/>
    <path style=" stroke:none;fill-rule:nonzero;fill:rgb(0%,0%,0%);fill-opacity:1;" d="M 81.148438 69.027344 L 85.164062 76.292969 L 88.910156 69.40625 L 90.042969 69.40625 L 84.992188 78.703125 L 80.976562 71.445312 L 77.253906 78.296875 L 76.113281 78.296875 Z M 81.148438 69.027344 "/>
    <path style=" stroke:none;fill-rule:nonzero;fill:rgb(0%,0%,0%);fill-opacity:1;" d="M 92.164062 69.40625 L 97.453125 69.40625 L 96.957031 70.324219 L 92.804688 70.324219 L 91.367188 72.96875 L 95.398438 72.96875 L 94.898438 73.886719 L 90.867188 73.886719 L 88.972656 77.378906 L 93.125 77.378906 L 92.625 78.296875 L 87.332031 78.296875 Z M 92.164062 69.40625 "/>
    <path style=" stroke:none;fill-rule:nonzero;fill:rgb(0%,0%,0%);fill-opacity:1;" d="M 96.191406 77.378906 L 99.007812 77.378906 L 98.507812 78.296875 L 94.558594 78.296875 L 99.386719 69.40625 L 100.527344 69.40625 Z M 96.191406 77.378906 "/>
    <path style=" stroke:none;fill-rule:nonzero;fill:rgb(68.627451%,74.117647%,13.333333%);fill-opacity:1;" d="M 37.796875 39.070312 L 63.984375 12.835938 L 79.371094 28.316406 L 63.910156 22.859375 Z M 37.796875 39.070312 "/>
    <path style=" stroke:none;fill-rule:nonzero;fill:rgb(0%,0%,0%);fill-opacity:1;" d="M 28.476562 42.996094 C 29.394531 42.070312 63.734375 7.511719 64.167969 7.082031 C 64.601562 7.515625 84.722656 27.757812 84.722656 27.757812 L 90.300781 27.753906 L 64.324219 1.726562 L 41.65625 24.320312 L 34.339844 16.769531 L 2.398438 50.445312 L 103.769531 50.425781 L 103.792969 49.800781 C 103.792969 49.800781 29.792969 43.117188 28.476562 42.996094 "/>
    <path style=" stroke:none;fill-rule:nonzero;fill:rgb(0%,0%,0%);fill-opacity:1;" d="M 101.730469 76.605469 L 101.730469 76.804688 L 101.171875 76.804688 L 101.171875 78.296875 L 100.9375 78.296875 L 100.9375 76.804688 L 100.367188 76.804688 L 100.367188 76.605469 Z M 101.730469 76.605469 "/>
    <path style=" stroke:none;fill-rule:nonzero;fill:rgb(0%,0%,0%);fill-opacity:1;" d="M 101.933594 76.605469 L 102.265625 76.605469 L 102.746094 78.035156 L 103.222656 76.605469 L 103.550781 76.605469 L 103.550781 78.296875 L 103.335938 78.296875 L 103.335938 77.128906 C 103.339844 77.046875 103.339844 76.964844 103.339844 76.867188 L 102.851562 78.296875 L 102.632812 78.296875 L 102.144531 76.867188 L 102.144531 77.113281 C 102.152344 77.195312 102.152344 77.257812 102.152344 77.296875 L 102.152344 78.296875 L 101.933594 78.296875 L 101.933594 76.605469 "/>
  </g>
</svg>