<?xml version="1.0" encoding="UTF-8" standalone="no"?>
<svg
   xmlns:dc="http://purl.org/dc/elements/1.1/"
   xmlns:cc="http://creativecommons.org/ns#"
   xmlns:rdf="http://www.w3.org/1999/02/22-rdf-syntax-ns#"
   xmlns:svg="http://www.w3.org/2000/svg"
   xmlns="http://www.w3.org/2000/svg"
   viewBox="0 0 371.25333 349.18668"
   height="349.18668"
   width="371.25333"
   xml:space="preserve"
   id="svg2"
   version="1.1"><metadata
     id="metadata8"><rdf:RDF><cc:Work
         rdf:about=""><dc:format>image/svg+xml</dc:format><dc:type
           rdf:resource="http://purl.org/dc/dcmitype/StillImage" /></cc:Work></rdf:RDF></metadata><defs
     id="defs6" /><g
     transform="matrix(1.3333333,0,0,-1.3333333,0,349.18667)"
     id="g10"><g
       transform="scale(0.1)"
       id="g12"><path
         id="path14"
         style="fill:#100f0d;fill-opacity:1;fill-rule:nonzero;stroke:none"
         d="M 418.32,372.441 330.469,108.57 242.617,372.441 H 221.309 L 314.641,92.1289 h 31.66 L 439.617,372.441 H 418.32" /><path
         id="path16"
         style="fill:#100f0d;fill-opacity:1;fill-rule:nonzero;stroke:none"
         d="m 1157.1,163.219 c -11.71,-33.117 -43.32,-55.387 -78.68,-55.387 h -6.93 c -35.36,0 -66.98,22.27 -78.677,55.387 -1.692,4.773 -6.797,19.242 -6.797,69.082 0,44.539 3.879,60.648 6.797,68.89 11.697,33.149 43.317,55.411 78.677,55.411 h 6.93 c 35.36,0 66.97,-22.262 78.68,-55.411 1.69,-4.75 6.79,-19.199 6.79,-68.89 0,-33.551 -2.22,-56.153 -6.79,-69.082 m 6.79,209.32 V 331.91 c -19,27.582 -50.76,44.93 -85.47,44.93 h -6.93 c -43.91,0 -83.209,-27.699 -97.76,-68.891 -3.699,-10.488 -7.949,-28.539 -7.949,-75.648 0,-47.809 4.539,-66.172 7.949,-75.821 14.551,-41.191 53.85,-68.8784 97.76,-68.8784 h 6.93 c 34.64,0 66.35,17.2774 85.35,44.7574 -0.5,-26.808 -2.69,-45.4488 -6.67,-56.7184 C 1145.39,42.5 1113.78,20.25 1078.42,20.25 h -6.93 c -31.29,0 -60.75,14.5508 -76.412,36.2891 H 971.555 C 988.352,22.8516 1027.87,0 1071.49,0 h 6.93 c 43.91,0 83.2,27.6914 97.75,68.9102 3.42,9.6406 7.95,28 7.95,75.8008 v 227.828 h -20.23" /><path
         id="path18"
         style="fill:#100f0d;fill-opacity:1;fill-rule:nonzero;stroke:none"
         d="m 1252.54,301.172 c 11.7,33.129 43.32,55.387 78.68,55.387 h 6.91 c 35.37,0 66.99,-22.258 78.69,-55.387 1.37,-3.852 5.24,-14.84 6.45,-47.242 H 1246.1 c 1.02,28.492 4.05,40.48 6.44,47.242 m 170.96,-139.711 -0.49,-1.359 c -10.7,-30.301 -46.39,-52.293 -84.88,-52.293 h -6.91 c -35.36,0 -66.98,22.25 -78.68,55.39 -1.69,4.75 -6.8,19.223 -6.8,69.071 v 1.421 h 198.19 l -0.17,10.289 c -0.65,39.18 -4.79,55.262 -7.86,63.93 -14.55,41.211 -53.85,68.891 -97.77,68.891 h -6.91 c -43.92,0 -83.21,-27.68 -97.76,-68.891 -3.7,-10.469 -7.95,-28.539 -7.95,-75.64 0,-47.801 4.54,-66.161 7.95,-75.809 14.55,-41.211 53.84,-68.879 97.76,-68.879 h 6.91 c 47.53,0 90.29,27.047 103.96,65.777 l 2.86,8.102 h -21.45" /><path
         id="path20"
         style="fill:#100f0d;fill-opacity:1;fill-rule:nonzero;stroke:none"
         d="m 475.645,301.172 c 11.71,33.129 43.32,55.387 78.679,55.387 h 6.926 c 35.363,0 66.973,-22.258 78.684,-55.387 1.355,-3.852 5.242,-14.84 6.445,-47.242 H 469.211 c 1.016,28.492 4.043,40.48 6.434,47.242 m 170.976,-139.711 -0.488,-1.359 C 635.422,129.801 599.727,107.809 561.25,107.809 h -6.926 c -35.359,0 -66.969,22.25 -78.679,55.39 -1.692,4.75 -6.797,19.223 -6.797,69.071 v 1.421 h 198.183 l -0.168,10.289 c -0.633,39.18 -4.793,55.262 -7.859,63.93 -14.539,41.211 -53.836,68.891 -97.754,68.891 h -6.926 c -43.914,0 -83.203,-27.68 -97.761,-68.891 -3.7,-10.469 -7.95,-28.539 -7.95,-75.64 0,-47.801 4.539,-66.161 7.95,-75.809 14.558,-41.211 53.847,-68.879 97.761,-68.879 h 6.926 c 47.527,0 90.273,27.047 103.953,65.777 l 2.863,8.102 h -21.445" /><path
         id="path22"
         style="fill:#100f0d;fill-opacity:1;fill-rule:nonzero;stroke:none"
         d="m 107.656,253.59 c -51.3083,0 -77.324,16.68 -77.324,49.551 0,22.89 7.4532,53.339 71.926,53.339 h 8.211 c 59.015,0 70.265,-25.48 71.75,-47.359 h 20.254 c -1.914,32.168 -20.305,67.598 -92.004,67.598 h -8.211 c -76.1721,0 -92.1603,-40.02 -92.1603,-73.578 0,-26.071 12.6757,-69.762 97.5583,-69.762 74.766,0 84.844,-32.719 84.844,-64.707 0,-40.332 -26.699,-60.801 -79.375,-60.801 H 99.6016 c -52.668,0 -79.3672,20.469 -79.3672,60.801 L 0,168.672 C 0,116.43 35.3711,87.6406 99.6016,87.6406 h 13.5234 c 64.238,0 99.609,28.7894 99.609,81.0314 0,57.148 -34.367,84.918 -105.078,84.918" /><path
         id="path24"
         style="fill:#100f0d;fill-opacity:1;fill-rule:nonzero;stroke:none"
         d="m 915.496,440.18 v -33.36 h -20.242 v 54.02 h 20.242 v -20.66" /><path
         id="path26"
         style="fill:#100f0d;fill-opacity:1;fill-rule:nonzero;stroke:none"
         d="M 915.496,246.852 V 372.621 H 895.273 V 92.1484 h 20.223 V 246.852" /><path
         id="path28"
         style="fill:#100f0d;fill-opacity:1;fill-rule:nonzero;stroke:none"
         d="M 2519.98,433.512 V 406.82 h -20.24 v 54.02 h 20.24 v -27.328" /><path
         id="path30"
         style="fill:#100f0d;fill-opacity:1;fill-rule:nonzero;stroke:none"
         d="m 2519.98,246.852 v 125.769 h -20.22 V 92.1484 h 20.22 V 246.852" /><path
         id="path32"
         style="fill:#100f0d;fill-opacity:1;fill-rule:nonzero;stroke:none"
         d="m 851.152,373.609 c -8.379,2.133 -17.031,3.231 -25.937,3.231 h -6.914 c -34.688,0 -66.426,-17.328 -85.418,-44.891 v 40.672 H 712.656 V 92.1484 h 20.227 V 237.191 c 0.281,40.821 3.953,56.11 6.765,64.059 11.7,33.102 43.301,55.352 78.653,55.352 h 6.914 c 8.996,0 17.648,-1.481 25.937,-4.161 v 21.168" /><path
         id="path34"
         style="fill:#100f0d;fill-opacity:1;fill-rule:nonzero;stroke:none"
         d="m 2671.8,356.582 c -35.35,0 -66.94,-22.242 -78.64,-55.371 -2.91,-8.242 -6.78,-24.359 -6.78,-68.871 0,-49.84 5.1,-64.289 6.78,-69.039 11.7,-33.121 43.29,-55.391 78.64,-55.391 h 6.92 c 35.35,0 66.95,22.27 78.67,55.391 4.55,12.91 6.76,35.508 6.76,69.039 0,49.672 -5.1,64.121 -6.76,68.871 -11.72,33.129 -43.32,55.371 -78.67,55.371 z m 6.92,-268.8906 h -6.92 c -43.9,0 -83.15,27.6796 -97.72,68.8676 -3.4,9.652 -7.93,27.992 -7.93,75.781 0,47.09 4.24,65.14 7.95,75.609 14.55,41.192 53.8,68.871 97.7,68.871 h 6.92 c 43.9,0 83.16,-27.679 97.73,-68.871 3.69,-10.469 7.93,-28.519 7.93,-75.609 0,-47.789 -4.53,-66.129 -7.93,-75.781 -14.57,-41.188 -53.83,-68.8676 -97.73,-68.8676" /><path
         id="path36"
         style="fill:#100f0d;fill-opacity:1;fill-rule:nonzero;stroke:none"
         d="m 2419.43,163.301 c -11.7,-33.121 -43.3,-55.371 -78.63,-55.371 h -6.94 c -35.35,0 -66.95,22.25 -78.65,55.371 -1.68,4.769 -6.8,19.219 -6.8,69.058 0,44.512 3.87,60.633 6.8,68.871 11.7,33.122 43.3,55.372 78.65,55.372 h 6.94 c 35.33,0 66.93,-22.25 78.63,-55.372 1.68,-4.75 6.8,-19.199 6.8,-68.871 0,-33.55 -2.23,-56.129 -6.8,-69.058 m 6.85,-71.1721 h 20.22 V 460.922 h -20.22 v -129.07 c -19,27.617 -50.76,44.988 -85.48,44.988 h -6.94 c -43.88,0 -83.18,-27.68 -97.71,-68.871 -3.71,-10.469 -7.97,-28.52 -7.97,-75.61 0,-47.789 4.53,-66.129 7.97,-75.8 14.53,-41.188 53.83,-68.8481 97.71,-68.8481 h 6.94 c 34.72,0 66.48,17.3481 85.48,44.9801 V 92.1289" /><path
         id="path38"
         style="fill:#100f0d;fill-opacity:1;fill-rule:nonzero;stroke:none"
         d="m 2166.66,232.68 h -0.04 c 0,-33.578 -2.23,-56.18 -6.8,-69.129 -11.7,-33.121 -43.32,-55.41 -78.7,-55.41 l -7.56,-0.039 c -52.79,0 -79.59,20.507 -79.59,60.98 v 3.09 c 0,32.07 10.31,61.758 85.08,61.758 h 87.61 z m 20.23,64.699 c 0,50.062 -34.53,79.961 -92.38,79.961 h -8.25 c -59.91,0 -95.28,-24.649 -98.27,-67.77 h 20.35 c 3.74,39 43.91,47.5 77.92,47.5 h 8.25 c 26.95,0 72.13,-7.75 72.13,-59.75 l 0.02,-43.14 h -87.61 c -71.88,0 -105.33,-26.059 -105.33,-82.008 v -3.09 c 0,-52.383 35.45,-81.25 99.84,-81.25 l 8.14,0.0586 c 34.55,0.1992 66.09,17.5394 84.97,45.0194 l 0.02,-40.6991 h 20.28 l -0.08,205.1681" /><path
         id="path40"
         style="fill:#100f0d;fill-opacity:1;fill-rule:nonzero;stroke:none"
         d="m 1866.74,303.648 c 0,71.102 -69.92,66.903 -91.62,71.102 h 100.94 c 28.96,-0.02 75.35,-19.148 75.35,-71.121 0,-51.949 -36.39,-71.07 -65.33,-71.109 h -47.38 c 0,0 28.04,0.019 28.04,71.128" /><path
         id="path42"
         style="fill:#100f0d;fill-opacity:1;fill-rule:nonzero;stroke:none"
         d="M 1484.24,92.2109 H 1605.3 L 1484.24,218.262 Z" /><path
         id="path44"
         style="fill:#100f0d;fill-opacity:1;fill-rule:nonzero;stroke:none"
         d="M 1611.82,374.77 1726.9,237.211 V 374.77 Z" /><path
         id="path46"
         style="fill:#100f0d;fill-opacity:1;fill-rule:nonzero;stroke:none"
         d="M 1833.5,232.582 H 1730.77 L 1848.21,92.2109 h 109.74 L 1833.5,232.582" /><path
         id="path48"
         style="fill:#100f0d;fill-opacity:1;fill-rule:nonzero;stroke:none"
         d="m 1566.57,303.648 c 0,-53.589 17.24,-66.906 38.73,-71.109 h -60.63 c -28.67,0.043 -64.7,19.141 -64.7,71.109 0,51.954 36.03,71.082 64.7,71.122 h 60.63 c -21.51,-4.2 -38.73,-17.54 -38.73,-71.122" /><path
         id="path50"
         style="fill:#100f0d;fill-opacity:1;fill-rule:nonzero;stroke:none"
         d="m 1650.49,162.359 c 0,52.891 -17.4,66.039 -39.1,70.18 h 61.23 c 28.97,-0.039 65.33,-18.91 65.33,-70.199 0,-51.289 -36.36,-70.1486 -65.33,-70.1681 h -61.23 c 21.7,4.1367 39.1,17.2971 39.1,70.1871" /><path
         id="path52"
         style="fill:#49a3bf;fill-opacity:1;fill-rule:nonzero;stroke:none"
         d="m 1121.01,1996.56 c 0,-436.33 -266.83,-488.61 -266.83,-488.61 h 356.39 c 34.35,0 633.38,-24.01 633.38,555.41 0,579.45 -599.03,555.43 -633.38,555.43 H 854.18 c 0,0 266.83,-52.29 266.83,-488.63 v -133.6" /><path
         id="path54"
         style="fill:#49a3bf;fill-opacity:1;fill-rule:nonzero;stroke:none"
         d="M 2744.67,710.082 V 2618.79 h -317.13 l -381.71,-659.3 V 710.082 h 698.84" /><path
         id="path56"
         style="fill:#49a3bf;fill-opacity:1;fill-rule:nonzero;stroke:none"
         d="M 12.1992,2618.79 V 710.082 H 674.082 c -0.004,0 -0.004,585.098 -0.004,585.098 0,0 0,1323.61 0.004,1323.61 H 12.1992" /></g></g></svg>