<?xml version="1.0" encoding="UTF-8" ?>
<!DOCTYPE svg PUBLIC "-//W3C//DTD SVG 1.1//EN" "http://www.w3.org/Graphics/SVG/1.1/DTD/svg11.dtd">
<svg width="1500pt" height="250pt" viewBox="0 0 1500 250" version="1.1" xmlns="http://www.w3.org/2000/svg">
<g id="#333333ff">
<path fill="#333333" opacity="1.00" d=" M 67.30 35.40 C 69.18 35.21 71.07 35.15 72.96 35.13 C 497.61 35.13 922.26 35.13 1346.92 35.13 C 1374.55 35.18 1402.18 35.03 1429.81 35.20 C 1445.12 35.32 1459.96 48.25 1459.93 63.98 C 1459.91 104.99 1459.98 145.99 1459.89 187.00 C 1459.33 203.03 1443.61 215.46 1428.04 214.82 C 977.38 214.83 526.71 214.81 76.04 214.83 C 69.68 215.03 63.09 214.67 57.30 211.75 C 47.33 207.36 39.91 197.12 40.06 186.07 C 40.02 145.36 40.03 104.66 40.06 63.96 C 39.81 49.15 52.98 36.68 67.30 35.40 M 52.96 48.55 C 48.15 52.04 45.51 58.05 45.59 63.94 C 45.56 104.28 45.60 144.62 45.57 184.96 C 45.53 188.61 46.04 192.37 48.01 195.53 C 48.74 198.06 50.42 200.59 52.72 201.92 C 57.27 207.63 64.92 209.83 71.98 209.84 C 169.97 209.87 267.97 209.79 365.96 209.87 C 367.34 209.57 369.38 210.40 370.33 209.09 C 370.39 208.22 370.52 206.48 370.58 205.61 L 370.72 206.26 C 370.81 207.04 370.98 208.60 371.07 209.39 C 374.50 209.64 377.96 209.62 381.39 209.32 L 381.47 209.70 C 645.96 209.58 910.46 209.76 1174.95 209.61 C 1179.59 209.36 1184.30 210.11 1188.90 209.19 L 1188.91 209.77 C 1265.93 209.67 1342.94 209.75 1419.95 209.73 C 1425.73 209.62 1431.72 210.27 1437.29 208.28 C 1443.70 206.11 1449.57 201.40 1452.09 195.01 C 1452.66 191.33 1452.21 187.56 1452.26 183.85 C 1452.45 186.44 1452.88 189.00 1453.39 191.55 C 1453.83 189.71 1454.21 187.84 1454.22 185.94 C 1454.22 145.61 1454.19 105.28 1454.23 64.95 C 1454.28 62.33 1453.33 59.84 1452.32 57.47 L 1452.99 58.19 C 1452.59 53.86 1449.71 50.30 1446.75 47.35 C 1441.55 42.28 1434.15 40.05 1427.00 40.24 C 1356.99 40.23 1286.98 40.24 1216.96 40.24 C 1207.55 40.03 1198.10 40.66 1188.72 39.88 L 1188.62 40.42 C 1184.19 39.94 1179.74 40.19 1175.32 40.23 C 939.21 40.26 703.11 40.23 467.00 40.24 C 434.89 40.35 402.77 39.98 370.66 40.50 L 370.67 40.13 C 271.44 40.14 172.21 40.13 72.98 40.14 C 65.72 40.16 57.05 41.95 52.96 48.55 Z" />
</g>
<g id="#2e4492ff">
<path fill="#2e4492" opacity="1.00" d=" M 52.96 48.55 C 57.05 41.95 65.72 40.16 72.98 40.14 C 172.21 40.13 271.44 40.14 370.67 40.13 C 370.36 41.66 370.07 43.18 369.77 44.71 C 355.18 44.54 340.59 45.69 326.01 44.93 C 312.32 44.99 298.64 44.69 284.97 45.11 C 270.96 44.35 256.94 45.48 242.93 44.79 C 236.27 44.90 229.61 45.23 222.95 44.79 C 181.62 44.84 140.27 44.75 98.94 44.95 C 91.78 45.80 84.35 43.32 77.42 45.94 C 72.54 45.61 67.69 44.52 62.77 44.90 C 60.10 45.20 57.68 46.38 55.28 47.51 C 54.70 47.77 53.54 48.29 52.96 48.55 Z" />
</g>
<g id="#243573ff">
<path fill="#243573" opacity="1.00" d=" M 370.67 40.13 L 370.66 40.50 L 370.66 41.30 C 370.64 43.07 370.63 44.85 370.64 46.63 C 370.65 47.56 370.66 49.42 370.67 50.35 L 370.67 50.57 C 319.43 50.34 268.19 50.54 216.95 50.47 C 183.66 50.37 150.35 50.88 117.08 49.37 C 103.82 48.77 90.56 47.93 77.42 45.94 C 84.35 43.32 91.78 45.80 98.94 44.95 C 140.27 44.75 181.62 44.84 222.95 44.79 C 229.61 45.23 236.27 44.90 242.93 44.79 C 256.94 45.48 270.96 44.35 284.97 45.11 C 298.64 44.69 312.32 44.99 326.01 44.93 C 340.59 45.69 355.18 44.54 369.77 44.71 C 370.07 43.18 370.36 41.66 370.67 40.13 Z" />
</g>
<g id="#eeeeeeff">
<path fill="#eeeeee" opacity="1.00" d=" M 370.66 40.50 C 402.77 39.98 434.89 40.35 467.00 40.24 C 703.11 40.23 939.21 40.26 1175.32 40.23 C 1175.37 40.75 1175.48 41.80 1175.54 42.33 C 1174.06 42.86 1172.56 43.38 1170.99 43.41 C 930.99 43.40 690.98 43.41 450.97 43.40 C 427.51 43.50 404.04 43.20 380.57 43.56 C 380.64 42.89 380.79 41.54 380.86 40.87 C 377.45 40.83 374.05 40.96 370.66 41.30 L 370.66 40.50 Z" />
</g>
<g id="#a6a6a6ff">
<path fill="#a6a6a6" opacity="1.00" d=" M 1175.32 40.23 C 1179.74 40.19 1184.19 39.94 1188.62 40.42 C 1188.23 42.40 1188.10 44.41 1188.02 46.41 C 1184.50 45.97 1180.64 44.64 1177.26 46.15 C 1176.87 47.48 1176.54 48.82 1176.29 50.18 L 1176.24 50.17 C 1176.04 47.55 1175.83 44.94 1175.54 42.33 C 1175.48 41.80 1175.37 40.75 1175.32 40.23 Z" />
</g>
<g id="#858585ff">
<path fill="#858585" opacity="1.00" d=" M 1188.62 40.42 L 1188.72 39.88 C 1188.97 43.39 1188.78 46.90 1188.76 50.41 L 1188.76 50.60 C 1184.60 50.50 1180.43 50.58 1176.29 50.18 C 1176.54 48.82 1176.87 47.48 1177.26 46.15 C 1180.64 44.64 1184.50 45.97 1188.02 46.41 C 1188.10 44.41 1188.23 42.40 1188.62 40.42 Z" />
<path fill="#858585" opacity="1.00" d=" M 370.64 46.63 C 373.86 46.52 377.08 46.48 380.31 46.52 C 380.25 47.48 380.12 49.40 380.06 50.36 C 376.93 50.47 373.79 50.47 370.67 50.35 C 370.66 49.42 370.65 47.56 370.64 46.63 Z" />
</g>
<g id="#000000ff">
<path fill="#000000" opacity="1.00" d=" M 1188.72 39.88 C 1198.10 40.66 1207.55 40.03 1216.96 40.24 C 1286.98 40.24 1356.99 40.23 1427.00 40.24 C 1434.15 40.05 1441.55 42.28 1446.75 47.35 C 1449.71 50.30 1452.59 53.86 1452.99 58.19 L 1452.32 57.47 C 1448.55 51.40 1442.49 46.05 1435.00 45.87 C 1426.88 45.91 1418.89 47.71 1410.81 48.23 C 1379.59 50.22 1348.30 50.47 1317.04 50.43 C 1274.28 50.42 1231.52 50.45 1188.76 50.41 C 1188.78 46.90 1188.97 43.39 1188.72 39.88 Z" />
<path fill="#000000" opacity="1.00" d=" M 1188.78 99.89 C 1204.55 101.22 1220.35 102.11 1236.12 103.42 C 1236.19 125.45 1236.14 147.48 1236.15 169.50 C 1241.54 169.49 1246.94 169.50 1252.35 169.49 C 1252.33 157.40 1252.34 145.30 1252.34 133.20 C 1270.49 133.23 1288.65 133.23 1306.80 133.20 C 1306.82 145.29 1306.81 157.38 1306.80 169.46 C 1312.28 169.52 1317.76 169.50 1323.24 169.49 C 1323.24 150.33 1323.24 131.16 1323.24 112.00 C 1329.30 112.70 1335.34 113.65 1341.40 114.38 C 1341.42 132.75 1341.39 151.13 1341.42 169.50 C 1358.62 169.45 1375.82 169.49 1393.03 169.48 C 1398.01 169.45 1403.13 169.83 1407.97 168.33 C 1418.24 165.59 1426.58 156.96 1429.14 146.67 C 1429.38 146.51 1429.86 146.18 1430.11 146.02 C 1430.13 144.01 1430.21 142.01 1430.35 140.01 C 1435.23 142.75 1440.07 145.92 1443.30 150.62 C 1450.20 160.21 1451.60 172.38 1452.26 183.85 C 1452.21 187.56 1452.66 191.33 1452.09 195.01 C 1449.57 201.40 1443.70 206.11 1437.29 208.28 C 1431.72 210.27 1425.73 209.62 1419.95 209.73 C 1342.94 209.75 1265.93 209.67 1188.91 209.77 L 1188.90 209.19 C 1188.77 204.98 1188.83 200.76 1188.70 196.56 C 1188.85 164.33 1188.69 132.11 1188.78 99.89 Z" />
<path fill="#000000" opacity="1.00" d=" M 1252.35 104.72 C 1270.50 106.45 1288.65 108.22 1306.80 109.94 C 1306.79 112.23 1306.80 114.52 1306.81 116.82 C 1288.65 116.78 1270.49 116.79 1252.34 116.81 C 1252.33 112.78 1252.33 108.75 1252.35 104.72 Z" />
<path fill="#000000" opacity="1.00" d=" M 1357.70 117.05 C 1376.72 120.53 1395.65 124.91 1413.68 132.01 C 1413.56 135.96 1414.22 140.08 1412.87 143.88 C 1411.02 149.13 1405.62 153.04 1400.00 152.74 C 1385.90 152.75 1371.81 152.69 1357.71 152.76 C 1357.68 140.86 1357.70 128.96 1357.70 117.05 Z" />
</g>
<g id="#a1a1a1ff">
<path fill="#a1a1a1" opacity="1.00" d=" M 370.66 41.30 C 374.05 40.96 377.45 40.83 380.86 40.87 C 380.79 41.54 380.64 42.89 380.57 43.56 C 380.47 44.55 380.38 45.53 380.31 46.52 C 377.08 46.48 373.86 46.52 370.64 46.63 C 370.63 44.85 370.64 43.07 370.66 41.30 Z" />
</g>
<g id="#d3d3d3ff">
<path fill="#d3d3d3" opacity="1.00" d=" M 1175.54 42.33 C 1175.83 44.94 1176.04 47.55 1176.24 50.17 L 1176.28 50.93 C 1001.52 50.85 826.77 50.93 652.01 50.90 C 561.35 50.99 470.69 50.75 380.03 50.99 L 380.06 50.36 C 380.12 49.40 380.25 47.48 380.31 46.52 C 380.38 45.53 380.47 44.55 380.57 43.56 C 404.04 43.20 427.51 43.50 450.97 43.40 C 690.98 43.41 930.99 43.40 1170.99 43.41 C 1172.56 43.38 1174.06 42.86 1175.54 42.33 Z" />
</g>
<g id="#c4c9d9ff">
<path fill="#c4c9d9" opacity="1.00" d=" M 55.28 47.51 C 57.68 46.38 60.10 45.20 62.77 44.90 C 60.34 49.01 56.97 52.98 52.02 53.90 C 53.03 51.74 54.16 49.62 55.28 47.51 Z" />
</g>
<g id="#7982a3ff">
<path fill="#7982a3" opacity="1.00" d=" M 62.77 44.90 C 67.69 44.52 72.54 45.61 77.42 45.94 C 90.56 47.93 103.82 48.77 117.08 49.37 C 150.35 50.88 183.66 50.37 216.95 50.47 C 268.19 50.54 319.43 50.34 370.67 50.57 C 370.67 73.76 370.64 96.95 370.68 120.13 C 350.68 122.95 330.77 126.30 310.77 129.09 C 316.21 117.46 321.68 105.84 327.19 94.23 C 327.90 92.45 329.35 90.10 327.65 88.42 C 326.17 86.22 323.33 86.77 321.07 86.66 C 316.71 86.80 312.33 86.39 308.00 86.94 C 305.65 87.42 304.67 89.82 303.75 91.75 C 297.26 106.50 290.62 121.20 284.14 135.96 C 276.02 122.19 267.06 108.94 258.63 95.37 C 256.91 92.79 255.51 89.85 253.01 87.90 C 250.33 86.29 247.03 86.78 244.04 86.67 C 238.99 86.84 233.92 86.40 228.89 86.88 C 225.12 87.42 222.57 90.53 220.11 93.12 C 211.82 102.14 203.44 111.08 195.05 120.00 C 194.10 121.03 193.41 122.22 192.97 123.56 C 192.48 122.91 191.99 122.27 191.51 121.62 C 191.69 100.09 191.55 78.55 191.59 57.02 C 191.79 55.21 190.97 53.18 188.94 52.94 C 184.30 52.49 179.60 52.68 174.95 52.80 C 171.57 52.81 167.98 54.70 166.95 58.09 C 166.25 61.33 166.58 64.67 166.53 67.95 C 166.55 96.14 166.53 124.32 166.54 152.51 C 164.09 152.88 161.63 153.25 159.18 153.60 C 162.26 146.65 162.25 138.22 158.26 131.64 C 154.39 125.13 147.22 121.42 140.09 119.64 C 130.89 117.39 121.59 115.54 112.38 113.33 C 110.65 112.99 108.83 112.00 109.27 109.91 C 109.07 107.42 112.19 107.37 113.94 107.28 C 125.96 107.15 137.98 107.38 149.99 107.21 C 154.46 107.32 158.49 103.49 158.43 98.99 C 158.60 96.00 158.69 92.98 158.28 90.02 C 157.36 86.86 153.65 86.79 150.97 86.82 C 138.98 86.93 126.99 86.75 115.00 86.91 C 107.89 87.01 100.39 88.15 94.62 92.66 C 83.94 100.60 82.31 118.56 92.38 127.64 C 99.58 134.37 109.83 135.25 118.97 137.46 C 124.47 138.85 130.18 139.53 135.51 141.54 C 137.31 142.21 137.07 144.81 136.18 146.15 C 134.66 147.13 132.77 147.13 131.03 147.21 C 118.99 147.24 106.96 147.10 94.93 147.25 C 91.12 146.96 87.37 149.96 87.33 153.87 C 87.35 158.38 86.10 163.52 88.86 167.49 C 90.64 167.50 92.42 167.56 94.20 167.57 C 80.92 171.68 67.77 176.53 55.79 183.69 C 52.38 185.84 48.91 188.71 48.19 192.92 C 48.14 193.57 48.05 194.88 48.01 195.53 C 46.04 192.37 45.53 188.61 45.57 184.96 C 45.60 144.62 45.56 104.28 45.59 63.94 C 45.51 58.05 48.15 52.04 52.96 48.55 C 53.54 48.29 54.70 47.77 55.28 47.51 C 54.16 49.62 53.03 51.74 52.02 53.90 C 56.97 52.98 60.34 49.01 62.77 44.90 Z" />
<path fill="#7982a3" opacity="1.00" d=" M 470.07 82.90 C 477.61 79.63 485.99 80.62 493.99 80.48 C 506.09 80.58 518.19 80.27 530.29 80.64 C 530.20 86.01 530.30 91.38 530.17 96.74 C 514.11 96.77 498.05 96.71 481.99 96.76 C 475.07 96.52 468.45 101.92 467.63 108.85 C 467.59 119.64 467.71 130.42 467.60 141.20 C 466.93 130.37 467.48 119.49 467.36 108.64 C 461.96 109.30 456.53 109.64 451.13 110.29 C 451.49 98.49 459.09 87.32 470.07 82.90 Z" />
<path fill="#7982a3" opacity="1.00" d=" M 647.40 80.48 C 652.80 80.48 658.20 80.47 663.61 80.48 C 663.63 85.69 663.62 90.90 663.62 96.10 C 658.22 96.44 652.80 96.60 647.40 96.84 C 647.39 91.38 647.37 85.93 647.40 80.48 Z" />
<path fill="#7982a3" opacity="1.00" d=" M 680.05 87.09 C 683.68 82.72 689.39 80.36 695.03 80.48 C 714.19 80.48 733.36 80.48 752.52 80.49 C 752.50 84.53 752.51 88.57 752.57 92.60 L 752.44 92.61 C 733.08 93.34 713.73 94.11 694.36 94.69 C 688.18 94.85 682.00 95.25 675.83 95.61 C 676.90 92.63 677.94 89.53 680.05 87.09 Z" />
<path fill="#7982a3" opacity="1.00" d=" M 545.13 80.55 C 550.49 80.50 555.85 80.51 561.21 80.54 C 561.25 87.57 561.21 94.61 561.22 101.64 C 555.87 101.99 550.52 102.43 545.16 102.68 C 545.14 95.30 545.16 87.93 545.13 80.55 Z" />
<path fill="#7982a3" opacity="1.00" d=" M 576.06 86.99 C 576.77 81.11 585.34 78.27 589.41 82.56 C 594.86 87.95 600.17 93.49 605.51 98.99 C 595.63 99.75 585.73 100.19 575.85 100.86 C 575.95 96.24 575.54 91.59 576.06 86.99 Z" />
<path fill="#7982a3" opacity="1.00" d=" M 773.90 83.91 C 777.33 79.97 783.63 79.61 788.12 81.82 C 791.63 84.07 793.27 88.15 795.63 91.44 L 795.81 91.72 C 787.70 91.59 779.59 91.93 771.49 92.25 C 771.80 89.38 771.85 86.18 773.90 83.91 Z" />
<path fill="#7982a3" opacity="1.00" d=" M 853.57 84.43 C 856.89 79.74 864.04 79.47 868.68 82.21 C 871.78 83.97 872.65 87.66 872.96 90.94 C 865.00 90.88 857.05 91.08 849.09 91.12 C 850.55 88.87 851.93 86.56 853.57 84.43 Z" />
<path fill="#7982a3" opacity="1.00" d=" M 917.75 90.99 C 920.08 85.62 925.11 81.23 931.07 80.64 C 934.70 80.31 938.40 80.27 942.03 80.80 C 947.73 81.70 952.16 86.23 954.31 91.39 C 942.12 91.43 929.93 91.34 917.75 90.99 Z" />
<path fill="#7982a3" opacity="1.00" d=" M 220.54 125.28 C 226.36 118.84 232.38 112.58 238.16 106.09 C 245.19 116.54 252.14 127.04 259.15 137.50 C 249.95 138.83 240.80 140.48 231.60 141.78 C 227.93 136.27 224.18 130.81 220.54 125.28 Z" />
<path fill="#7982a3" opacity="1.00" d=" M 191.45 124.59 C 191.95 124.80 192.96 125.20 193.46 125.41 C 197.59 132.47 202.65 138.94 207.13 145.77 C 201.95 146.62 196.77 147.43 191.59 148.22 C 191.53 140.35 191.75 132.47 191.45 124.59 Z" />
</g>
<g id="#666666ff">
<path fill="#666666" opacity="1.00" d=" M 1410.81 48.23 C 1418.89 47.71 1426.88 45.91 1435.00 45.87 C 1442.49 46.05 1448.55 51.40 1452.32 57.47 C 1453.33 59.84 1454.28 62.33 1454.23 64.95 C 1454.19 105.28 1454.22 145.61 1454.22 185.94 C 1454.21 187.84 1453.83 189.71 1453.39 191.55 C 1452.88 189.00 1452.45 186.44 1452.26 183.85 C 1451.60 172.38 1450.20 160.21 1443.30 150.62 C 1440.07 145.92 1435.23 142.75 1430.35 140.01 C 1430.21 142.01 1430.13 144.01 1430.11 146.02 C 1429.86 146.18 1429.38 146.51 1429.14 146.67 C 1430.85 135.17 1429.92 123.53 1430.12 111.95 C 1430.26 103.02 1426.66 94.02 1419.89 88.11 C 1414.20 83.04 1406.55 80.41 1398.97 80.49 C 1379.79 80.45 1360.61 80.52 1341.43 80.46 C 1341.39 91.77 1341.43 103.07 1341.40 114.38 C 1335.34 113.65 1329.30 112.70 1323.24 112.00 C 1323.23 101.51 1323.24 91.02 1323.23 80.53 C 1317.75 80.51 1312.28 80.49 1306.81 80.55 C 1306.80 90.35 1306.82 100.15 1306.80 109.94 C 1288.65 108.22 1270.50 106.45 1252.35 104.72 C 1252.33 96.65 1252.34 88.59 1252.34 80.52 C 1246.94 80.51 1241.54 80.51 1236.15 80.52 C 1236.15 88.15 1236.15 95.79 1236.12 103.42 C 1220.35 102.11 1204.55 101.22 1188.78 99.89 C 1188.73 83.46 1188.76 67.03 1188.76 50.60 L 1188.76 50.41 C 1231.52 50.45 1274.28 50.42 1317.04 50.43 C 1348.30 50.47 1379.59 50.22 1410.81 48.23 Z" />
<path fill="#666666" opacity="1.00" d=" M 1357.73 97.20 C 1371.81 97.31 1385.88 97.19 1399.96 97.25 C 1406.99 96.91 1413.53 102.99 1413.65 110.04 C 1413.77 117.36 1413.67 124.69 1413.68 132.01 C 1395.65 124.91 1376.72 120.53 1357.70 117.05 C 1357.71 110.43 1357.66 103.82 1357.73 97.20 Z" />
</g>
<g id="#b3b3b3ff">
<path fill="#b3b3b3" opacity="1.00" d=" M 370.67 50.35 C 373.79 50.47 376.93 50.47 380.06 50.36 L 380.03 50.99 C 379.65 73.61 379.97 96.23 379.86 118.85 C 376.80 119.29 373.74 119.71 370.68 120.13 C 370.64 96.95 370.67 73.76 370.67 50.57 L 370.67 50.35 Z" />
<path fill="#b3b3b3" opacity="1.00" d=" M 1176.24 50.17 L 1176.29 50.18 C 1180.43 50.58 1184.60 50.50 1188.76 50.60 C 1188.76 67.03 1188.73 83.46 1188.78 99.89 C 1184.65 99.63 1180.52 99.43 1176.41 99.21 C 1176.34 83.11 1176.60 67.02 1176.28 50.93 L 1176.24 50.17 Z" />
</g>
<g id="#dededeff">
<path fill="#dedede" opacity="1.00" d=" M 380.03 50.99 C 470.69 50.75 561.35 50.99 652.01 50.90 C 826.77 50.93 1001.52 50.85 1176.28 50.93 C 1176.60 67.02 1176.34 83.11 1176.41 99.21 C 1159.10 98.01 1141.78 97.26 1124.47 96.27 C 1124.17 91.66 1125.77 85.72 1121.57 82.42 C 1118.77 80.07 1114.80 80.10 1111.66 81.69 C 1100.93 86.01 1090.13 90.15 1079.40 94.46 C 1042.29 93.06 1005.16 92.11 968.02 91.66 C 963.52 91.56 959.01 91.38 954.52 91.86 C 954.47 91.74 954.37 91.51 954.31 91.39 C 952.16 86.23 947.73 81.70 942.03 80.80 C 938.40 80.27 934.70 80.31 931.07 80.64 C 925.11 81.23 920.08 85.62 917.75 90.99 L 917.57 91.38 C 902.71 90.66 887.83 91.23 872.96 90.94 C 872.65 87.66 871.78 83.97 868.68 82.21 C 864.04 79.47 856.89 79.74 853.57 84.43 C 851.93 86.56 850.55 88.87 849.09 91.12 C 831.27 90.95 813.45 91.49 795.63 91.44 C 793.27 88.15 791.63 84.07 788.12 81.82 C 783.63 79.61 777.33 79.97 773.90 83.91 C 771.85 86.18 771.80 89.38 771.49 92.25 C 765.18 92.20 758.87 92.38 752.57 92.60 C 752.51 88.57 752.50 84.53 752.52 80.49 C 733.36 80.48 714.19 80.48 695.03 80.48 C 689.39 80.36 683.68 82.72 680.05 87.09 C 677.94 89.53 676.90 92.63 675.83 95.61 C 671.75 95.76 667.68 95.88 663.62 96.10 C 663.62 90.90 663.63 85.69 663.61 80.48 C 658.20 80.47 652.80 80.48 647.40 80.48 C 647.37 85.93 647.39 91.38 647.40 96.84 C 633.55 97.72 619.66 98.05 605.84 99.33 L 605.51 98.99 C 600.17 93.49 594.86 87.95 589.41 82.56 C 585.34 78.27 576.77 81.11 576.06 86.99 C 575.54 91.59 575.95 96.24 575.85 100.86 C 570.97 101.15 566.10 101.51 561.22 101.64 C 561.21 94.61 561.25 87.57 561.21 80.54 C 555.85 80.51 550.49 80.50 545.13 80.55 C 545.16 87.93 545.14 95.30 545.16 102.68 C 519.30 104.56 493.40 106.04 467.63 108.85 C 468.45 101.92 475.07 96.52 481.99 96.76 C 498.05 96.71 514.11 96.77 530.17 96.74 C 530.30 91.38 530.20 86.01 530.29 80.64 C 518.19 80.27 506.09 80.58 493.99 80.48 C 485.99 80.62 477.61 79.63 470.07 82.90 C 459.09 87.32 451.49 98.49 451.13 110.29 C 427.33 112.75 403.55 115.50 379.86 118.85 C 379.97 96.23 379.65 73.61 380.03 50.99 Z" />
</g>
<g id="#ffffffff">
<path fill="#ffffff" opacity="1.00" d=" M 166.95 58.09 C 167.98 54.70 171.57 52.81 174.95 52.80 C 179.60 52.68 184.30 52.49 188.94 52.94 C 190.97 53.18 191.79 55.21 191.59 57.02 C 191.55 78.55 191.69 100.09 191.51 121.62 C 191.99 122.27 192.48 122.91 192.97 123.56 C 193.41 122.22 194.10 121.03 195.05 120.00 C 203.44 111.08 211.82 102.14 220.11 93.12 C 222.57 90.53 225.12 87.42 228.89 86.88 C 233.92 86.40 238.99 86.84 244.04 86.67 C 247.03 86.78 250.33 86.29 253.01 87.90 C 255.51 89.85 256.91 92.79 258.63 95.37 C 267.06 108.94 276.02 122.19 284.14 135.96 C 290.62 121.20 297.26 106.50 303.75 91.75 C 304.67 89.82 305.65 87.42 308.00 86.94 C 312.33 86.39 316.71 86.80 321.07 86.66 C 323.33 86.77 326.17 86.22 327.65 88.42 C 329.35 90.10 327.90 92.45 327.19 94.23 C 321.68 105.84 316.21 117.46 310.77 129.09 C 301.02 149.73 291.28 170.37 281.60 191.04 C 280.21 193.61 279.35 197.37 276.06 198.03 C 271.04 198.41 266.00 198.19 260.97 198.18 C 259.01 198.39 257.51 197.06 256.08 195.95 C 256.34 194.11 256.67 192.26 257.59 190.61 C 262.91 180.03 268.07 169.36 273.36 158.75 C 268.60 151.68 263.88 144.58 259.15 137.50 C 252.14 127.04 245.19 116.54 238.16 106.09 C 232.38 112.58 226.36 118.84 220.54 125.28 C 224.18 130.81 227.93 136.27 231.60 141.78 C 235.91 148.31 240.47 154.69 244.67 161.29 C 246.68 163.55 244.70 167.26 241.86 167.40 C 236.22 167.59 230.57 167.51 224.93 167.44 C 222.19 167.47 220.52 164.87 218.98 162.98 C 215.00 157.26 211.10 151.49 207.13 145.77 C 202.65 138.94 197.59 132.47 193.46 125.41 C 192.96 125.20 191.95 124.80 191.45 124.59 C 191.75 132.47 191.53 140.35 191.59 148.22 C 191.17 153.42 192.79 159.24 189.98 163.95 C 186.86 168.61 180.74 167.36 175.98 167.51 C 172.88 167.40 168.70 168.33 166.97 164.91 C 166.00 160.88 166.75 156.63 166.54 152.51 C 166.53 124.32 166.55 96.14 166.53 67.95 C 166.58 64.67 166.25 61.33 166.95 58.09 Z" />
<path fill="#ffffff" opacity="1.00" d=" M 1341.43 80.46 C 1360.61 80.52 1379.79 80.45 1398.97 80.49 C 1406.55 80.41 1414.20 83.04 1419.89 88.11 C 1426.66 94.02 1430.26 103.02 1430.12 111.95 C 1429.92 123.53 1430.85 135.17 1429.14 146.67 C 1426.58 156.96 1418.24 165.59 1407.97 168.33 C 1403.13 169.83 1398.01 169.45 1393.03 169.48 C 1375.82 169.49 1358.62 169.45 1341.42 169.50 C 1341.39 151.13 1341.42 132.75 1341.40 114.38 C 1341.43 103.07 1341.39 91.77 1341.43 80.46 M 1357.73 97.20 C 1357.66 103.82 1357.71 110.43 1357.70 117.05 C 1357.70 128.96 1357.68 140.86 1357.71 152.76 C 1371.81 152.69 1385.90 152.75 1400.00 152.74 C 1405.62 153.04 1411.02 149.13 1412.87 143.88 C 1414.22 140.08 1413.56 135.96 1413.68 132.01 C 1413.67 124.69 1413.77 117.36 1413.65 110.04 C 1413.53 102.99 1406.99 96.91 1399.96 97.25 C 1385.88 97.19 1371.81 97.31 1357.73 97.20 Z" />
<path fill="#ffffff" opacity="1.00" d=" M 1236.15 80.52 C 1241.54 80.51 1246.94 80.51 1252.34 80.52 C 1252.34 88.59 1252.33 96.65 1252.35 104.72 C 1252.33 108.75 1252.33 112.78 1252.34 116.81 C 1270.49 116.79 1288.65 116.78 1306.81 116.82 C 1306.80 114.52 1306.79 112.23 1306.80 109.94 C 1306.82 100.15 1306.80 90.35 1306.81 80.55 C 1312.28 80.49 1317.75 80.51 1323.23 80.53 C 1323.24 91.02 1323.23 101.51 1323.24 112.00 C 1323.24 131.16 1323.24 150.33 1323.24 169.49 C 1317.76 169.50 1312.28 169.52 1306.80 169.46 C 1306.81 157.38 1306.82 145.29 1306.80 133.20 C 1288.65 133.23 1270.49 133.23 1252.34 133.20 C 1252.34 145.30 1252.33 157.40 1252.35 169.49 C 1246.94 169.50 1241.54 169.49 1236.15 169.50 C 1236.14 147.48 1236.19 125.45 1236.12 103.42 C 1236.15 95.79 1236.15 88.15 1236.15 80.52 Z" />
<path fill="#ffffff" opacity="1.00" d=" M 94.62 92.66 C 100.39 88.15 107.89 87.01 115.00 86.91 C 126.99 86.75 138.98 86.93 150.97 86.82 C 153.65 86.79 157.36 86.86 158.28 90.02 C 158.69 92.98 158.60 96.00 158.43 98.99 C 158.49 103.49 154.46 107.32 149.99 107.21 C 137.98 107.38 125.96 107.15 113.94 107.28 C 112.19 107.37 109.07 107.42 109.27 109.91 C 108.83 112.00 110.65 112.99 112.38 113.33 C 121.59 115.54 130.89 117.39 140.09 119.64 C 147.22 121.42 154.39 125.13 158.26 131.64 C 162.25 138.22 162.26 146.65 159.18 153.60 C 154.09 162.93 143.21 167.15 133.05 167.43 C 120.10 167.62 107.15 167.33 94.20 167.57 C 92.42 167.56 90.64 167.50 88.86 167.49 C 86.10 163.52 87.35 158.38 87.33 153.87 C 87.37 149.96 91.12 146.96 94.93 147.25 C 106.96 147.10 118.99 147.24 131.03 147.21 C 132.77 147.13 134.66 147.13 136.18 146.15 C 137.07 144.81 137.31 142.21 135.51 141.54 C 130.18 139.53 124.47 138.85 118.97 137.46 C 109.83 135.25 99.58 134.37 92.38 127.64 C 82.31 118.56 83.94 100.60 94.62 92.66 Z" />
</g>
<g id="#202f66ff">
<path fill="#202f66" opacity="1.00" d=" M 1111.66 81.69 C 1114.80 80.10 1118.77 80.07 1121.57 82.42 C 1125.77 85.72 1124.17 91.66 1124.47 96.27 C 1124.47 120.67 1124.47 145.08 1124.47 169.48 C 1119.06 169.48 1113.67 169.49 1108.27 169.48 C 1108.30 146.54 1108.28 123.60 1108.28 100.66 C 1098.66 104.59 1089.02 108.45 1079.47 112.56 C 1079.42 106.52 1079.51 100.49 1079.40 94.46 C 1090.13 90.15 1100.93 86.01 1111.66 81.69 Z" />
<path fill="#202f66" opacity="1.00" d=" M 849.09 91.12 C 857.05 91.08 865.00 90.88 872.96 90.94 C 872.72 117.11 872.91 143.30 872.87 169.47 C 867.47 169.49 862.07 169.49 856.68 169.47 C 856.64 150.18 856.76 130.88 856.62 111.59 C 848.63 123.92 840.67 136.26 832.66 148.58 C 830.24 152.54 825.66 155.45 820.90 154.76 C 816.94 154.35 813.75 151.52 811.67 148.29 C 803.68 136.06 795.87 123.70 787.77 111.53 C 787.71 130.84 787.73 150.15 787.77 169.46 C 782.37 169.50 776.98 169.48 771.60 169.48 C 771.52 143.73 771.73 117.99 771.49 92.25 C 779.59 91.93 787.70 91.59 795.81 91.72 C 804.60 105.35 813.46 118.94 822.23 132.59 C 831.23 118.80 840.15 104.95 849.09 91.12 Z" />
<path fill="#202f66" opacity="1.00" d=" M 917.57 91.38 L 917.75 90.99 C 929.93 91.34 942.12 91.43 954.31 91.39 C 954.37 91.51 954.47 91.74 954.52 91.86 C 964.71 117.73 974.92 143.59 985.08 169.47 C 979.09 169.46 973.10 169.58 967.12 169.38 C 964.71 162.76 962.08 156.21 959.41 149.68 C 943.71 149.82 928.00 149.56 912.31 149.82 C 909.80 156.42 907.24 163.01 904.53 169.54 C 898.63 169.43 892.72 169.51 886.82 169.47 C 897.06 143.43 907.31 117.40 917.57 91.38 M 929.63 106.01 C 925.97 115.23 922.41 124.49 918.68 133.68 C 930.18 133.68 941.67 133.71 953.17 133.67 C 948.12 121.41 943.79 108.83 938.31 96.78 C 936.75 96.79 935.21 96.78 933.68 96.76 C 931.87 99.63 930.90 102.90 929.63 106.01 Z" />
<path fill="#202f66" opacity="1.00" d=" M 675.83 95.61 C 682.00 95.25 688.18 94.85 694.36 94.69 C 694.09 95.15 693.56 96.07 693.29 96.53 C 691.41 103.09 692.91 110.11 692.44 116.85 C 712.42 116.75 732.39 116.93 752.37 116.76 C 752.65 122.17 752.48 127.59 752.53 133.00 C 732.51 133.29 712.47 133.08 692.45 133.11 C 692.57 139.49 692.15 145.90 692.61 152.27 C 692.92 152.50 693.53 152.95 693.83 153.18 C 713.39 153.51 732.97 153.21 752.54 153.31 C 752.51 158.70 752.52 164.09 752.52 169.48 C 735.02 169.49 717.53 169.47 700.03 169.49 C 695.91 169.45 691.63 169.87 687.73 168.29 C 679.03 165.33 674.62 155.71 675.68 146.96 C 675.81 129.85 675.54 112.73 675.83 95.61 Z" />
<path fill="#202f66" opacity="1.00" d=" M 647.40 96.84 C 652.80 96.60 658.22 96.44 663.62 96.10 C 663.59 118.05 663.69 139.99 663.58 161.94 C 663.74 168.19 654.73 172.10 650.37 167.60 C 630.90 147.93 611.67 128.03 592.26 108.30 C 592.23 128.69 592.27 149.08 592.25 169.46 C 586.78 169.49 581.31 169.50 575.85 169.46 C 575.84 146.59 575.84 123.73 575.85 100.86 C 585.73 100.19 595.63 99.75 605.51 98.99 L 605.84 99.33 C 619.64 113.53 633.59 127.58 647.39 141.77 C 647.39 126.79 647.37 111.82 647.40 96.84 Z" />
<path fill="#202f66" opacity="1.00" d=" M 545.16 102.68 C 550.52 102.43 555.87 101.99 561.22 101.64 C 561.22 124.26 561.23 146.88 561.22 169.50 C 555.85 169.50 550.49 169.51 545.13 169.49 C 545.18 147.22 545.13 124.95 545.16 102.68 Z" />
<path fill="#202f66" opacity="1.00" d=" M 1032.51 112.09 C 1032.48 109.69 1034.67 107.61 1037.04 107.52 C 1039.64 107.24 1042.25 107.61 1044.85 107.83 C 1045.07 114.05 1044.46 120.56 1045.23 126.60 C 1051.25 126.86 1057.29 126.62 1063.33 126.69 C 1063.78 130.61 1065.25 136.56 1060.71 138.63 C 1055.59 139.75 1050.24 138.86 1045.03 139.13 C 1044.24 144.87 1045.84 150.74 1044.41 156.40 C 1041.88 160.42 1036.36 158.85 1032.45 158.64 C 1032.43 152.12 1032.48 145.61 1032.42 139.10 C 1026.33 139.13 1020.25 139.21 1014.17 139.06 C 1013.79 136.09 1013.13 132.97 1014.15 130.06 C 1014.82 128.04 1016.95 126.77 1019.03 126.75 C 1023.51 126.56 1028.01 126.82 1032.50 126.63 C 1032.48 121.79 1032.33 116.94 1032.51 112.09 Z" />
<path fill="#202f66" opacity="1.00" d=" M 451.13 110.29 C 456.53 109.64 461.96 109.30 467.36 108.64 C 467.48 119.49 466.93 130.37 467.60 141.20 C 468.52 148.05 475.06 153.50 481.97 153.24 C 498.06 153.25 514.15 153.20 530.24 153.25 C 530.25 158.65 530.24 164.05 530.25 169.45 C 513.80 169.50 497.34 169.51 480.89 169.45 C 466.04 169.25 452.55 156.83 451.36 141.99 C 450.88 131.43 451.34 120.86 451.13 110.29 Z" />
<path fill="#202f66" opacity="1.00" d=" M 310.77 129.09 C 330.77 126.30 350.68 122.95 370.68 120.13 C 370.65 145.46 370.67 170.78 370.67 196.10 C 370.35 194.97 369.99 193.85 369.64 192.74 C 366.79 193.02 363.93 193.27 361.06 193.31 C 336.36 193.31 311.67 193.26 286.97 193.32 C 284.84 193.55 283.12 192.34 281.60 191.04 C 291.28 170.37 301.02 149.73 310.77 129.09 Z" />
<path fill="#202f66" opacity="1.00" d=" M 231.60 141.78 C 240.80 140.48 249.95 138.83 259.15 137.50 C 263.88 144.58 268.60 151.68 273.36 158.75 C 268.07 169.36 262.91 180.03 257.59 190.61 C 256.67 192.26 256.34 194.11 256.08 195.95 C 253.45 193.14 249.35 194.33 245.95 194.12 C 185.97 194.17 125.98 194.12 66.00 194.15 C 60.05 194.05 53.94 194.85 48.19 192.92 C 48.91 188.71 52.38 185.84 55.79 183.69 C 67.77 176.53 80.92 171.68 94.20 167.57 C 107.15 167.33 120.10 167.62 133.05 167.43 C 143.21 167.15 154.09 162.93 159.18 153.60 C 161.63 153.25 164.09 152.88 166.54 152.51 C 166.75 156.63 166.00 160.88 166.97 164.91 C 168.70 168.33 172.88 167.40 175.98 167.51 C 180.74 167.36 186.86 168.61 189.98 163.95 C 192.79 159.24 191.17 153.42 191.59 148.22 C 196.77 147.43 201.95 146.62 207.13 145.77 C 211.10 151.49 215.00 157.26 218.98 162.98 C 220.52 164.87 222.19 167.47 224.93 167.44 C 230.57 167.51 236.22 167.59 241.86 167.40 C 244.70 167.26 246.68 163.55 244.67 161.29 C 240.47 154.69 235.91 148.31 231.60 141.78 Z" />
</g>
<g id="#c8c8c8ff">
<path fill="#c8c8c8" opacity="1.00" d=" M 795.63 91.44 C 813.45 91.49 831.27 90.95 849.09 91.12 C 840.15 104.95 831.23 118.80 822.23 132.59 C 813.46 118.94 804.60 105.35 795.81 91.72 L 795.63 91.44 Z" />
<path fill="#c8c8c8" opacity="1.00" d=" M 872.96 90.94 C 887.83 91.23 902.71 90.66 917.57 91.38 C 907.31 117.40 897.06 143.43 886.82 169.47 C 892.72 169.51 898.63 169.43 904.53 169.54 C 907.24 163.01 909.80 156.42 912.31 149.82 C 928.00 149.56 943.71 149.82 959.41 149.68 C 962.08 156.21 964.71 162.76 967.12 169.38 C 973.10 169.58 979.09 169.46 985.08 169.47 C 974.92 143.59 964.71 117.73 954.52 91.86 C 959.01 91.38 963.52 91.56 968.02 91.66 C 1005.16 92.11 1042.29 93.06 1079.40 94.46 C 1079.51 100.49 1079.42 106.52 1079.47 112.56 C 1089.02 108.45 1098.66 104.59 1108.28 100.66 C 1108.28 123.60 1108.30 146.54 1108.27 169.48 C 1113.67 169.49 1119.06 169.48 1124.47 169.48 C 1124.47 145.08 1124.47 120.67 1124.47 96.27 C 1141.78 97.26 1159.10 98.01 1176.41 99.21 C 1176.49 130.84 1176.36 162.48 1176.47 194.12 C 1015.33 194.11 854.18 194.13 693.04 194.14 C 670.35 193.73 647.67 194.30 624.98 194.10 C 547.33 194.15 469.68 194.10 392.02 194.13 C 387.97 194.27 383.91 194.16 379.93 193.34 C 379.77 168.51 379.90 143.68 379.86 118.85 C 403.55 115.50 427.33 112.75 451.13 110.29 C 451.34 120.86 450.88 131.43 451.36 141.99 C 452.55 156.83 466.04 169.25 480.89 169.45 C 497.34 169.51 513.80 169.50 530.25 169.45 C 530.24 164.05 530.25 158.65 530.24 153.25 C 514.15 153.20 498.06 153.25 481.97 153.24 C 475.06 153.50 468.52 148.05 467.60 141.20 C 467.71 130.42 467.59 119.64 467.63 108.85 C 493.40 106.04 519.30 104.56 545.16 102.68 C 545.13 124.95 545.18 147.22 545.13 169.49 C 550.49 169.51 555.85 169.50 561.22 169.50 C 561.23 146.88 561.22 124.26 561.22 101.64 C 566.10 101.51 570.97 101.15 575.85 100.86 C 575.84 123.73 575.84 146.59 575.85 169.46 C 581.31 169.50 586.78 169.49 592.25 169.46 C 592.27 149.08 592.23 128.69 592.26 108.30 C 611.67 128.03 630.90 147.93 650.37 167.60 C 654.73 172.10 663.74 168.19 663.58 161.94 C 663.69 139.99 663.59 118.05 663.62 96.10 C 667.68 95.88 671.75 95.76 675.83 95.61 C 675.54 112.73 675.81 129.85 675.68 146.96 C 674.62 155.71 679.03 165.33 687.73 168.29 C 691.63 169.87 695.91 169.45 700.03 169.49 C 717.53 169.47 735.02 169.49 752.52 169.48 C 752.52 164.09 752.51 158.70 752.54 153.31 C 732.97 153.21 713.39 153.51 693.83 153.18 C 693.53 152.95 692.92 152.50 692.61 152.27 C 692.15 145.90 692.57 139.49 692.45 133.11 C 712.47 133.08 732.51 133.29 752.53 133.00 C 752.48 127.59 752.65 122.17 752.37 116.76 C 732.39 116.93 712.42 116.75 692.44 116.85 C 692.91 110.11 691.41 103.09 693.29 96.53 C 713.04 96.73 732.80 96.57 752.56 96.61 C 752.53 95.61 752.47 93.61 752.44 92.61 L 752.57 92.60 C 758.87 92.38 765.18 92.20 771.49 92.25 C 771.73 117.99 771.52 143.73 771.60 169.48 C 776.98 169.48 782.37 169.50 787.77 169.46 C 787.73 150.15 787.71 130.84 787.77 111.53 C 795.87 123.70 803.68 136.06 811.67 148.29 C 813.75 151.52 816.94 154.35 820.90 154.76 C 825.66 155.45 830.24 152.54 832.66 148.58 C 840.67 136.26 848.63 123.92 856.62 111.59 C 856.76 130.88 856.64 150.18 856.68 169.47 C 862.07 169.49 867.47 169.49 872.87 169.47 C 872.91 143.30 872.72 117.11 872.96 90.94 M 1032.51 112.09 C 1032.33 116.94 1032.48 121.79 1032.50 126.63 C 1028.01 126.82 1023.51 126.56 1019.03 126.75 C 1016.95 126.77 1014.82 128.04 1014.15 130.06 C 1013.13 132.97 1013.79 136.09 1014.17 139.06 C 1020.25 139.21 1026.33 139.13 1032.42 139.10 C 1032.48 145.61 1032.43 152.12 1032.45 158.64 C 1036.36 158.85 1041.88 160.42 1044.41 156.40 C 1045.84 150.74 1044.24 144.87 1045.03 139.13 C 1050.24 138.86 1055.59 139.75 1060.71 138.63 C 1065.25 136.56 1063.78 130.61 1063.33 126.69 C 1057.29 126.62 1051.25 126.86 1045.23 126.60 C 1044.46 120.56 1045.07 114.05 1044.85 107.83 C 1042.25 107.61 1039.64 107.24 1037.04 107.52 C 1034.67 107.61 1032.48 109.69 1032.51 112.09 Z" />
<path fill="#c8c8c8" opacity="1.00" d=" M 605.84 99.33 C 619.66 98.05 633.55 97.72 647.40 96.84 C 647.37 111.82 647.39 126.79 647.39 141.77 C 633.59 127.58 619.64 113.53 605.84 99.33 Z" />
<path fill="#c8c8c8" opacity="1.00" d=" M 929.63 106.01 C 930.90 102.90 931.87 99.63 933.68 96.76 C 935.21 96.78 936.75 96.79 938.31 96.78 C 943.79 108.83 948.12 121.41 953.17 133.67 C 941.67 133.71 930.18 133.68 918.68 133.68 C 922.41 124.49 925.97 115.23 929.63 106.01 Z" />
</g>
<g id="#152560ff">
<path fill="#152560" opacity="1.00" d=" M 694.36 94.69 C 713.73 94.11 733.08 93.34 752.44 92.61 C 752.47 93.61 752.53 95.61 752.56 96.61 C 732.80 96.57 713.04 96.73 693.29 96.53 C 693.56 96.07 694.09 95.15 694.36 94.69 Z" />
</g>
<g id="#808080ff">
<path fill="#808080" opacity="1.00" d=" M 1176.41 99.21 C 1180.52 99.43 1184.65 99.63 1188.78 99.89 C 1188.69 132.11 1188.85 164.33 1188.70 196.56 L 1188.62 197.34 C 1187.88 196.41 1187.15 195.48 1186.44 194.55 C 1183.42 194.19 1180.40 193.88 1177.38 193.61 C 1177.06 194.50 1176.76 195.40 1176.49 196.31 C 1176.48 195.76 1176.47 194.66 1176.47 194.12 C 1176.36 162.48 1176.49 130.84 1176.41 99.21 Z" />
<path fill="#808080" opacity="1.00" d=" M 370.68 120.13 C 373.74 119.71 376.80 119.29 379.86 118.85 C 379.90 143.68 379.77 168.51 379.93 193.34 C 379.99 195.59 380.05 197.85 380.14 200.12 C 379.54 198.89 379.07 197.49 377.98 196.60 C 375.50 196.00 373.06 196.95 370.71 197.59 C 370.70 197.22 370.68 196.47 370.67 196.10 C 370.67 170.78 370.65 145.46 370.68 120.13 Z" />
</g>
<g id="#192551ff">
<path fill="#192551" opacity="1.00" d=" M 281.60 191.04 C 283.12 192.34 284.84 193.55 286.97 193.32 C 311.67 193.26 336.36 193.31 361.06 193.31 C 363.93 193.27 366.79 193.02 369.64 192.74 C 369.99 193.85 370.35 194.97 370.67 196.10 C 370.68 196.47 370.70 197.22 370.71 197.59 C 370.72 199.28 370.70 200.97 370.69 202.67 C 370.70 203.57 370.72 205.36 370.72 206.26 L 370.58 205.61 C 370.30 204.26 369.98 202.92 369.68 201.58 C 334.45 202.04 299.21 201.66 263.97 201.77 C 193.56 201.92 123.13 201.57 52.72 201.92 C 50.42 200.59 48.74 198.06 48.01 195.53 C 48.05 194.88 48.14 193.57 48.19 192.92 C 53.94 194.85 60.05 194.05 66.00 194.15 C 125.98 194.12 185.97 194.17 245.95 194.12 C 249.35 194.33 253.45 193.14 256.08 195.95 C 257.51 197.06 259.01 198.39 260.97 198.18 C 266.00 198.19 271.04 198.41 276.06 198.03 C 279.35 197.37 280.21 193.61 281.60 191.04 Z" />
</g>
<g id="#bbbbbbff">
<path fill="#bbbbbb" opacity="1.00" d=" M 379.93 193.34 C 383.91 194.16 387.97 194.27 392.02 194.13 C 469.68 194.10 547.33 194.15 624.98 194.10 C 647.67 194.30 670.35 193.73 693.04 194.14 C 854.18 194.13 1015.33 194.11 1176.47 194.12 C 1176.47 194.66 1176.48 195.76 1176.49 196.31 C 1176.37 198.32 1176.27 200.33 1176.12 202.35 C 1165.42 201.34 1154.68 201.86 1143.97 201.76 C 894.99 201.74 646.01 201.77 397.03 201.74 C 391.45 201.87 385.62 200.89 380.32 203.15 C 380.30 202.86 380.26 202.27 380.24 201.98 C 380.22 201.51 380.17 200.58 380.14 200.12 C 380.05 197.85 379.99 195.59 379.93 193.34 Z" />
</g>
<g id="#6d6d6dff">
<path fill="#6d6d6d" opacity="1.00" d=" M 1177.38 193.61 C 1180.40 193.88 1183.42 194.19 1186.44 194.55 C 1187.15 195.48 1187.88 196.41 1188.62 197.34 C 1188.34 199.67 1188.05 201.99 1187.83 204.32 C 1184.21 201.96 1179.88 202.51 1175.96 203.68 C 1176.00 203.34 1176.08 202.68 1176.12 202.35 C 1176.27 200.33 1176.37 198.32 1176.49 196.31 C 1176.76 195.40 1177.06 194.50 1177.38 193.61 Z" />
</g>
<g id="#6b6b6bff">
<path fill="#6b6b6b" opacity="1.00" d=" M 370.71 197.59 C 373.06 196.95 375.50 196.00 377.98 196.60 C 379.07 197.49 379.54 198.89 380.14 200.12 C 380.17 200.58 380.22 201.51 380.24 201.98 C 377.05 202.13 373.87 202.35 370.69 202.67 C 370.70 200.97 370.72 199.28 370.71 197.59 Z" />
</g>
<g id="#595959ff">
<path fill="#595959" opacity="1.00" d=" M 1188.62 197.34 L 1188.70 196.56 C 1188.83 200.76 1188.77 204.98 1188.90 209.19 C 1184.30 210.11 1179.59 209.36 1174.95 209.61 C 1175.30 207.64 1175.67 205.66 1175.96 203.68 C 1179.88 202.51 1184.21 201.96 1187.83 204.32 C 1188.05 201.99 1188.34 199.67 1188.62 197.34 Z" />
</g>
<g id="#121a38ff">
<path fill="#121a38" opacity="1.00" d=" M 263.97 201.77 C 299.21 201.66 334.45 202.04 369.68 201.58 C 369.98 202.92 370.30 204.26 370.58 205.61 C 370.52 206.48 370.39 208.22 370.33 209.09 C 369.38 210.40 367.34 209.57 365.96 209.87 C 267.97 209.79 169.97 209.87 71.98 209.84 C 64.92 209.83 57.27 207.63 52.72 201.92 C 123.13 201.57 193.56 201.92 263.97 201.77 Z" />
</g>
<g id="#5c5c5cff">
<path fill="#5c5c5c" opacity="1.00" d=" M 370.69 202.67 C 373.87 202.35 377.05 202.13 380.24 201.98 C 380.26 202.27 380.30 202.86 380.32 203.15 C 380.57 205.22 380.99 207.27 381.39 209.32 C 377.96 209.62 374.50 209.64 371.07 209.39 C 370.98 208.60 370.81 207.04 370.72 206.26 C 370.72 205.36 370.70 203.57 370.69 202.67 Z" />
</g>
<g id="#aaaaaaff">
<path fill="#aaaaaa" opacity="1.00" d=" M 380.32 203.15 C 385.62 200.89 391.45 201.87 397.03 201.74 C 646.01 201.77 894.99 201.74 1143.97 201.76 C 1154.68 201.86 1165.42 201.34 1176.12 202.35 C 1176.08 202.68 1176.00 203.34 1175.96 203.68 C 1175.67 205.66 1175.30 207.64 1174.95 209.61 C 910.46 209.76 645.96 209.58 381.47 209.70 L 381.39 209.32 C 380.99 207.27 380.57 205.22 380.32 203.15 Z" />
</g>
</svg>
