<?xml version="1.0" encoding="UTF-8" standalone="no"?>
<svg
   xmlns:dc="http://purl.org/dc/elements/1.1/"
   xmlns:cc="http://creativecommons.org/ns#"
   xmlns:rdf="http://www.w3.org/1999/02/22-rdf-syntax-ns#"
   xmlns:svg="http://www.w3.org/2000/svg"
   xmlns="http://www.w3.org/2000/svg"
   viewBox="0 0 396.32001 414.20001"
   height="414.20001"
   width="396.32001"
   xml:space="preserve"
   id="svg2"
   version="1.1"><metadata
     id="metadata8"><rdf:RDF><cc:Work
         rdf:about=""><dc:format>image/svg+xml</dc:format><dc:type
           rdf:resource="http://purl.org/dc/dcmitype/StillImage" /></cc:Work></rdf:RDF></metadata><defs
     id="defs6" /><g
     transform="matrix(1.3333333,0,0,-1.3333333,0,414.2)"
     id="g10"><g
       transform="scale(0.1)"
       id="g12"><path
         id="path14"
         style="fill:#050301;fill-opacity:1;fill-rule:nonzero;stroke:none"
         d="M 418.32,372.422 330.461,108.57 242.605,372.422 h -21.296 l 93.32,-280.3126 h 31.66 l 93.32,280.3126 H 418.32" /><path
         id="path16"
         style="fill:#050301;fill-opacity:1;fill-rule:nonzero;stroke:none"
         d="m 1157.09,163.211 c -11.71,-33.129 -43.32,-55.402 -78.69,-55.402 h -6.92 c -35.36,0 -66.98,22.273 -78.675,55.402 -1.692,4.758 -6.797,19.219 -6.797,69.07 0,44.539 3.875,60.649 6.797,68.891 11.695,33.148 43.315,55.41 78.675,55.41 h 6.92 c 35.37,0 66.98,-22.262 78.69,-55.41 1.68,-4.731 6.8,-19.203 6.8,-68.891 0,-33.551 -2.23,-56.152 -6.8,-69.07 m 6.8,209.309 v -40.622 c -19.01,27.582 -50.77,44.922 -85.49,44.922 h -6.92 c -43.92,0 -83.21,-27.691 -97.757,-68.898 -3.703,-10.473 -7.953,-28.524 -7.953,-75.641 0,-47.789 4.543,-66.152 7.953,-75.801 14.547,-41.21 53.837,-68.8902 97.757,-68.8902 h 6.92 c 34.65,0 66.35,17.2692 85.36,44.7502 -0.5,-26.809 -2.69,-45.4416 -6.67,-56.7111 C 1145.38,42.5 1113.77,20.2383 1078.4,20.2383 h -6.92 c -31.29,0 -60.75,14.5508 -76.402,36.2812 H 971.543 C 988.34,22.832 1027.86,0 1071.48,0 h 6.92 c 43.92,0 83.21,27.6797 97.76,68.8906 3.42,9.6485 7.94,28.0078 7.94,75.8084 V 372.52 h -20.21" /><path
         id="path18"
         style="fill:#050301;fill-opacity:1;fill-rule:nonzero;stroke:none"
         d="m 1252.53,301.148 c 11.7,33.141 43.31,55.391 78.68,55.391 h 6.92 c 35.37,0 66.97,-22.25 78.69,-55.391 1.34,-3.839 5.23,-14.839 6.42,-47.238 h -177.15 c 1.02,28.488 4.05,40.5 6.44,47.238 m 170.97,-139.699 -0.49,-1.367 c -10.71,-30.293 -46.4,-52.293 -84.88,-52.293 h -6.92 c -35.37,0 -66.98,22.262 -78.68,55.383 -1.69,4.758 -6.81,19.226 -6.81,69.078 v 1.422 h 198.2 l -0.17,10.289 c -0.64,39.187 -4.79,55.258 -7.87,63.93 -14.54,41.211 -53.84,68.89 -97.75,68.89 h -6.92 c -43.92,0 -83.21,-27.679 -97.76,-68.89 -3.7,-10.469 -7.96,-28.532 -7.96,-75.641 0,-47.789 4.55,-66.16 7.96,-75.801 14.55,-41.211 53.84,-68.8982 97.76,-68.8982 h 6.92 c 47.52,0 90.28,27.0582 103.95,65.8012 l 2.86,8.097 h -21.44" /><path
         id="path20"
         style="fill:#050301;fill-opacity:1;fill-rule:nonzero;stroke:none"
         d="m 475.645,301.148 c 11.699,33.141 43.308,55.391 78.671,55.391 h 6.922 c 35.364,0 66.985,-22.25 78.684,-55.391 1.355,-3.839 5.246,-14.839 6.445,-47.238 H 469.199 c 1.028,28.488 4.043,40.5 6.446,47.238 m 170.964,-139.699 -0.496,-1.367 C 635.41,129.789 599.727,107.789 561.238,107.789 h -6.922 c -35.363,0 -66.972,22.262 -78.671,55.383 -1.692,4.758 -6.805,19.226 -6.805,69.078 v 1.422 h 198.191 l -0.176,10.289 c -0.632,39.187 -4.785,55.258 -7.851,63.93 -14.551,41.211 -53.848,68.89 -97.766,68.89 h -6.922 c -43.918,0 -83.203,-27.679 -97.753,-68.89 -3.704,-10.469 -7.95,-28.532 -7.95,-75.641 0,-47.789 4.539,-66.16 7.95,-75.801 14.55,-41.211 53.835,-68.8982 97.753,-68.8982 h 6.922 c 47.532,0 90.278,27.0582 103.957,65.8012 l 2.864,8.097 h -21.45" /><path
         id="path22"
         style="fill:#050301;fill-opacity:1;fill-rule:nonzero;stroke:none"
         d="m 107.656,253.582 c -51.3083,0 -77.324,16.668 -77.324,49.547 0,22.891 7.4414,53.351 71.926,53.351 h 8.211 c 59.004,0 70.254,-25.492 71.75,-47.378 h 20.242 c -1.914,32.16 -20.293,67.609 -91.992,67.609 h -8.211 c -76.1721,0 -92.1603,-40.02 -92.1603,-73.582 0,-26.078 12.6679,-69.77 97.5583,-69.77 74.766,0 84.844,-32.711 84.844,-64.687 0,-40.352 -26.699,-60.813 -79.375,-60.813 H 99.5898 c -52.6562,0 -79.3554,20.461 -79.3554,60.813 L 0,168.672 C 0,116.41 35.3711,87.6211 99.5898,87.6211 h 13.5352 c 64.23,0 99.602,28.7889 99.602,81.0509 0,57.129 -34.368,84.91 -105.071,84.91" /><path
         id="path24"
         style="fill:#050301;fill-opacity:1;fill-rule:nonzero;stroke:none"
         d="m 915.488,406.801 h -20.246 v 54.019 h 20.246 v -54.019" /><path
         id="path26"
         style="fill:#050301;fill-opacity:1;fill-rule:nonzero;stroke:none"
         d="M 915.488,372.602 H 895.266 V 92.1406 h 20.222 V 372.602" /><path
         id="path28"
         style="fill:#050301;fill-opacity:1;fill-rule:nonzero;stroke:none"
         d="m 2519.97,406.801 h -20.24 v 54.019 h 20.24 v -54.019" /><path
         id="path30"
         style="fill:#050301;fill-opacity:1;fill-rule:nonzero;stroke:none"
         d="m 2519.97,372.602 h -20.22 V 92.1406 h 20.22 V 372.602" /><path
         id="path32"
         style="fill:#050301;fill-opacity:1;fill-rule:nonzero;stroke:none"
         d="m 851.145,373.582 c -8.379,2.137 -17.036,3.238 -25.942,3.238 h -6.91 c -34.68,0 -66.418,-17.328 -85.422,-44.879 v 40.661 H 712.645 V 92.1289 h 20.226 V 237.172 c 0.281,40.816 3.965,56.109 6.77,64.047 11.699,33.133 43.308,55.371 78.652,55.371 h 6.91 c 8.996,0 17.649,-1.481 25.942,-4.16 v 21.152" /><path
         id="path34"
         style="fill:#050301;fill-opacity:1;fill-rule:nonzero;stroke:none"
         d="m 2671.8,356.57 c -35.35,0 -66.95,-22.25 -78.65,-55.379 -2.91,-8.242 -6.8,-24.339 -6.8,-68.859 0,-49.844 5.12,-64.293 6.8,-69.051 11.7,-33.121 43.3,-55.371 78.65,-55.371 h 6.92 c 35.35,0 66.95,22.25 78.67,55.371 4.55,12.918 6.76,35.508 6.76,69.051 0,49.66 -5.1,64.117 -6.76,68.859 -11.72,33.129 -43.32,55.379 -78.67,55.379 z m 6.92,-268.8708 h -6.92 c -43.9,0 -83.16,27.6598 -97.73,68.8398 -3.4,9.641 -7.93,28.012 -7.93,75.793 0,47.09 4.24,65.137 7.95,75.609 14.55,41.188 53.81,68.86 97.71,68.86 h 6.92 c 43.9,0 83.18,-27.672 97.73,-68.86 3.69,-10.472 7.93,-28.519 7.93,-75.609 0,-47.781 -4.53,-66.152 -7.93,-75.793 -14.55,-41.18 -53.83,-68.8398 -97.73,-68.8398" /><path
         id="path36"
         style="fill:#050301;fill-opacity:1;fill-rule:nonzero;stroke:none"
         d="m 2419.42,163.289 c -11.7,-33.109 -43.3,-55.379 -78.65,-55.379 h -6.92 c -35.35,0 -66.95,22.27 -78.65,55.379 -1.68,4.762 -6.8,19.211 -6.8,69.051 0,44.519 3.87,60.629 6.8,68.871 11.7,33.141 43.3,55.379 78.65,55.379 h 6.92 c 35.35,0 66.95,-22.238 78.65,-55.379 1.7,-4.742 6.8,-19.199 6.8,-68.871 0,-33.531 -2.23,-56.129 -6.8,-69.051 m 6.85,-71.1796 h 20.22 V 460.891 h -20.22 V 331.84 c -19,27.609 -50.78,44.98 -85.5,44.98 h -6.92 c -43.9,0 -83.18,-27.679 -97.71,-68.871 -3.71,-10.469 -7.95,-28.519 -7.95,-75.609 0,-47.789 4.51,-66.141 7.95,-75.789 14.53,-41.192 53.81,-68.8518 97.71,-68.8518 h 6.92 c 34.72,0 66.5,17.3598 85.5,44.9728 V 92.1094" /><path
         id="path38"
         style="fill:#050301;fill-opacity:1;fill-rule:nonzero;stroke:none"
         d="m 2166.65,232.672 h -0.04 c 0,-33.57 -2.23,-56.184 -6.8,-69.121 -11.7,-33.141 -43.34,-55.41 -78.71,-55.41 l -7.56,-0.051 c -52.81,0 -79.59,20.512 -79.59,60.98 v 3.078 c 0,32.09 10.31,61.762 85.1,61.762 h 87.6 z m 20.25,64.687 c 0,50.071 -34.55,79.973 -92.4,79.973 h -8.25 c -59.9,0 -95.29,-24.641 -98.28,-67.781 h 20.36 c 3.73,39.008 43.9,47.508 77.92,47.508 h 8.25 c 26.93,0 72.13,-7.758 72.13,-59.75 l 0.02,-43.149 h -87.6 c -71.88,0 -105.35,-26.051 -105.35,-82.012 v -3.078 c 0,-52.39 35.45,-81.2497 99.84,-81.2497 l 8.16,0.0508 c 34.54,0.1992 66.08,17.5389 84.97,45.0199 l 0.01,-40.6918 h 20.26 l -0.04,205.1598" /><path
         id="path40"
         style="fill:#050301;fill-opacity:1;fill-rule:nonzero;stroke:none"
         d="m 1866.72,303.629 c 0,71.109 -69.92,66.922 -91.62,71.109 h 100.94 c 28.96,-0.027 75.35,-19.148 75.35,-71.117 0,-51.961 -36.37,-71.082 -65.33,-71.101 h -47.36 c 0,0 28.02,0.011 28.02,71.109" /><path
         id="path42"
         style="fill:#050301;fill-opacity:1;fill-rule:nonzero;stroke:none"
         d="m 1484.24,92.1992 h 121.04 L 1484.24,218.242 Z" /><path
         id="path44"
         style="fill:#050301;fill-opacity:1;fill-rule:nonzero;stroke:none"
         d="M 1611.8,374.75 1726.88,237.199 V 374.75 Z" /><path
         id="path46"
         style="fill:#050301;fill-opacity:1;fill-rule:nonzero;stroke:none"
         d="M 1833.5,232.559 H 1730.75 L 1848.19,92.1992 h 109.73 L 1833.5,232.559" /><path
         id="path48"
         style="fill:#050301;fill-opacity:1;fill-rule:nonzero;stroke:none"
         d="m 1566.55,303.621 c 0,-53.582 17.24,-66.902 38.73,-71.101 h -60.63 c -28.67,0.031 -64.69,19.152 -64.69,71.109 0,51.973 36.02,71.09 64.69,71.121 h 60.63 c -21.51,-4.199 -38.73,-17.539 -38.73,-71.129" /><path
         id="path50"
         style="fill:#050301;fill-opacity:1;fill-rule:nonzero;stroke:none"
         d="m 1650.49,162.34 c 0,52.898 -17.42,66.039 -39.12,70.18 h 61.23 c 28.97,-0.032 65.33,-18.899 65.33,-70.188 0,-51.281 -36.36,-70.1406 -65.33,-70.1836 h -61.23 c 21.7,4.1407 39.12,17.3006 39.12,70.1916" /><path
         id="path52"
         style="fill:#a52d9c;fill-opacity:1;fill-rule:nonzero;stroke:none"
         d="m 1012.04,2478.47 c 0,-436.33 -240.993,-482.95 -240.993,-482.95 h 259.563 c 31.75,0 655.18,-24.01 655.18,555.43 0,579.41 -486.37,555.41 -518.12,555.41 H 771.047 c 0,0 240.993,-49.53 240.993,-485.88 v -142.01" /><path
         id="path54"
         style="fill:#a52d9c;fill-opacity:1;fill-rule:nonzero;stroke:none"
         d="M 12.1992,3106.36 V 1197.65 H 606.484 V 3106.36 H 12.1992" /><path
         id="path56"
         style="fill:#a52d9c;fill-opacity:1;fill-rule:nonzero;stroke:none"
         d="M 2278.52,3106.36 1390.79,1642.88 h 673.2 l 908.38,1463.48 h -693.85" /><path
         id="path58"
         style="fill:#a52d9c;fill-opacity:1;fill-rule:nonzero;stroke:none"
         d="m 2522.04,2154.74 -315.86,-511.76 v -445.33 h 582.54 v 957.09 h -266.68" /><path
         id="path60"
         style="fill:#a52d9c;fill-opacity:1;fill-rule:nonzero;stroke:none"
         d="m 372.02,844.641 c -35.309,0 -66.891,-22.219 -78.575,-55.301 -2.898,-8.25 -6.773,-24.34 -6.773,-68.801 0,-49.777 5.113,-64.219 6.773,-68.957 11.684,-33.082 43.266,-55.312 78.575,-55.312 h 6.918 c 35.3,0 66.863,22.23 78.542,55.312 4.571,12.898 6.797,35.457 6.797,68.957 0,49.621 -5.097,64.051 -6.797,68.801 -11.679,33.082 -43.242,55.301 -78.542,55.301 z m 6.918,-268.571 h -6.918 c -43.856,0 -83.075,27.641 -97.625,68.782 -3.379,9.628 -7.93,27.957 -7.93,75.687 0,47.043 4.226,65.07 7.949,75.531 14.531,41.141 53.75,68.77 97.606,68.77 h 6.918 c 43.855,0 83.066,-27.629 97.605,-68.77 3.691,-10.461 7.93,-28.488 7.93,-75.531 0,-47.73 -4.539,-66.059 -7.93,-75.687 -14.539,-41.141 -53.75,-68.782 -97.605,-68.782" /><path
         id="path62"
         style="fill:#a52d9c;fill-opacity:1;fill-rule:nonzero;stroke:none"
         d="M 354.617,922.809 V 894.82 h -20.183 v 53.918 h 20.183 c 0,-0.008 0,-25.929 0,-25.929" /><path
         id="path64"
         style="fill:#a52d9c;fill-opacity:1;fill-rule:nonzero;stroke:none"
         d="M 415.625,925.051 V 894.82 h -20.187 v 53.918 h 20.187 v -23.687" /><path
         id="path66"
         style="fill:#a52d9c;fill-opacity:1;fill-rule:nonzero;stroke:none"
         d="m 648.516,840.43 v 20.199 H 565.32 v 54.32 h -20.203 v -54.32 H 498.73 V 840.43 h 46.387 V 665.281 c 0,-56.691 31.699,-89.211 86.973,-89.211 h 16.426 v 20.2 H 632.09 c -44.297,0 -66.77,23.218 -66.77,69.011 V 840.43 h 83.196" /><path
         id="path68"
         style="fill:#a52d9c;fill-opacity:1;fill-rule:nonzero;stroke:none"
         d="M 194.707,652.07 C 183.008,619 151.445,596.77 116.133,596.77 h -6.903 c -35.3042,0 -66.8784,22.23 -78.5581,55.3 -1.6875,4.762 -6.7852,19.2 -6.7852,68.969 0,44.473 3.8555,60.563 6.7852,68.801 11.6797,33.082 43.2539,55.301 78.5581,55.301 h 6.903 c 35.312,0 66.875,-22.219 78.574,-55.301 1.672,-4.75 6.77,-19.18 6.77,-68.801 0,-33.488 -2.219,-56.059 -6.77,-68.969 m 6.77,208.989 V 820.5 c -18.965,27.551 -50.676,44.84 -85.344,44.84 h -6.903 c -43.8589,0 -83.0777,-27.629 -97.6089,-68.781 -3.70313,-10.457 -7.94141,-28.477 -7.94141,-75.52 0,-47.719 4.53125,-66.051 7.94141,-75.687 14.5312,-41.141 53.75,-68.793 97.6089,-68.793 h 6.903 c 34.59,0 66.25,17.25 85.234,44.703 -0.5,-26.782 -2.695,-45.371 -6.66,-56.633 -11.699,-33.078 -43.262,-55.289 -78.574,-55.289 h -6.903 c -31.2534,0 -60.6558,14.512 -76.3003,36.219 H 9.43359 C 26.2109,511.922 65.6719,489.109 109.23,489.109 h 6.903 c 43.855,0 83.086,27.653 97.617,68.782 3.398,9.648 7.93,27.98 7.93,75.699 v 227.469 h -20.203" /><path
         id="path70"
         style="fill:#a52d9c;fill-opacity:1;fill-rule:nonzero;stroke:none"
         d="m 699.688,789.281 c 11.691,33.078 43.25,55.309 78.554,55.309 h 6.914 c 35.313,0 66.875,-22.231 78.555,-55.309 1.355,-3.832 5.242,-14.832 6.434,-47.172 H 693.262 c 1.015,28.461 4.043,40.43 6.426,47.172 m 170.703,-139.492 -0.489,-1.359 c -10.683,-30.258 -46.328,-52.2 -84.746,-52.2 h -6.914 c -35.304,0 -66.863,22.211 -78.554,55.29 -1.692,4.75 -6.79,19.191 -6.79,68.968 v 1.434 H 890.77 l -0.165,10.25 c -0.644,39.137 -4.777,55.168 -7.839,63.848 -14.524,41.128 -53.762,68.769 -97.61,68.769 h -6.914 c -43.847,0 -83.074,-27.641 -97.605,-68.769 -3.696,-10.469 -7.942,-28.5 -7.942,-75.532 0,-47.718 4.532,-66.066 7.942,-75.687 14.531,-41.153 53.758,-68.781 97.605,-68.781 h 6.914 c 47.461,0 90.137,27.011 103.789,65.679 l 2.852,8.09 h -21.406" /><path
         id="path72"
         style="fill:#a52d9c;fill-opacity:1;fill-rule:nonzero;stroke:none"
         d="m 1129.8,651.871 c -11.67,-33.082 -43.24,-55.312 -78.55,-55.312 h -6.9 c -35.32,0 -66.87,22.23 -78.569,55.312 -4.57,12.91 -6.777,35.457 -6.777,68.969 0,49.601 5.098,64.039 6.777,68.789 11.699,33.09 43.249,55.301 78.569,55.301 h 6.9 c 35.31,0 66.88,-22.211 78.55,-55.301 2.93,-8.238 6.8,-24.34 6.8,-68.789 0,-49.77 -5.1,-64.219 -6.8,-68.969 m 19.06,144.488 c -14.52,41.129 -53.75,68.782 -97.61,68.782 h -6.9 c -34.7,0 -66.44,-17.352 -85.397,-44.942 V 949.102 H 938.75 V 580.77 h 20.203 v 40.519 c 18.957,-27.598 50.697,-44.93 85.397,-44.93 h 6.9 c 43.86,0 83.09,27.641 97.61,68.782 3.41,9.64 7.94,27.968 7.94,75.699 0,47.019 -4.24,65.058 -7.94,75.519" /><path
         id="path74"
         style="fill:#a52d9c;fill-opacity:1;fill-rule:nonzero;stroke:none"
         d="m 1300.34,844.648 c -35.3,0 -66.87,-22.226 -78.56,-55.308 -2.91,-8.25 -6.79,-24.32 -6.79,-68.789 0,-49.781 5.11,-64.219 6.79,-68.969 11.69,-33.082 43.26,-55.301 78.56,-55.301 h 6.91 c 35.29,0 66.87,22.219 78.56,55.301 4.55,12.906 6.78,35.469 6.78,68.969 0,49.609 -5.1,64.051 -6.78,68.789 -11.69,33.082 -43.27,55.308 -78.56,55.308 z m 6.91,-268.57 h -6.91 c -43.86,0 -83.09,27.633 -97.63,68.774 -3.37,9.636 -7.92,27.968 -7.92,75.699 0,47.031 4.24,65.07 7.94,75.527 14.52,41.133 53.75,68.774 97.61,68.774 h 6.91 c 43.84,0 83.07,-27.641 97.6,-68.774 3.69,-10.457 7.93,-28.496 7.93,-75.527 0,-47.731 -4.52,-66.063 -7.93,-75.699 -14.53,-41.141 -53.76,-68.774 -97.6,-68.774" /><path
         id="path76"
         style="fill:#a52d9c;fill-opacity:1;fill-rule:nonzero;stroke:none"
         d="m 1597.06,861.84 c -8.38,2.129 -17.02,3.23 -25.92,3.23 h -6.9 c -34.65,0 -66.36,-17.3 -85.33,-44.82 v 40.602 h -20.2 V 580.699 h 20.2 v 144.883 c 0.27,40.777 3.95,56.047 6.76,63.977 11.68,33.082 43.26,55.3 78.57,55.3 h 6.9 c 8.98,0 17.63,-1.48 25.92,-4.16 v 21.141" /><path
         id="path78"
         style="fill:#a52d9c;fill-opacity:1;fill-rule:nonzero;stroke:none"
         d="m 1793.33,651.922 c -11.7,-33.082 -43.27,-55.313 -78.58,-55.313 h -6.89 c -35.32,0 -66.9,22.231 -78.58,55.313 -1.68,4.75 -6.78,19.199 -6.78,68.969 0,44.461 3.87,60.558 6.78,68.8 11.68,33.079 43.26,55.289 78.58,55.289 h 6.89 c 35.31,0 66.88,-22.21 78.58,-55.289 1.67,-4.761 6.77,-19.191 6.77,-68.8 0,-33.5 -2.22,-56.063 -6.77,-68.969 m 6.77,208.988 v -40.57 c -18.98,27.551 -50.68,44.859 -85.35,44.859 h -6.89 c -43.87,0 -83.09,-27.66 -97.62,-68.789 -3.71,-10.461 -7.93,-28.488 -7.93,-75.519 0,-47.731 4.53,-66.063 7.93,-75.692 14.53,-41.16 53.75,-68.789 97.62,-68.789 h 6.89 c 34.59,0 66.25,17.238 85.24,44.692 -0.51,-26.782 -2.7,-45.372 -6.66,-56.633 -11.7,-33.071 -43.27,-55.289 -78.58,-55.289 h -6.89 c -31.27,0 -60.67,14.511 -76.31,36.23 h -23.5 c 16.78,-33.648 56.25,-56.441 99.81,-56.441 h 6.89 c 43.85,0 83.09,27.64 97.62,68.769 3.4,9.641 7.93,27.973 7.93,75.703 V 860.91 h -20.2" /></g></g></svg>