<?xml version="1.0" encoding="UTF-8" standalone="no"?>
<svg
   xmlns:dc="http://purl.org/dc/elements/1.1/"
   xmlns:cc="http://creativecommons.org/ns#"
   xmlns:rdf="http://www.w3.org/1999/02/22-rdf-syntax-ns#"
   xmlns:svg="http://www.w3.org/2000/svg"
   xmlns="http://www.w3.org/2000/svg"
   viewBox="0 0 396.34668 414.20001"
   height="414.20001"
   width="396.34668"
   xml:space="preserve"
   id="svg2"
   version="1.1"><metadata
     id="metadata8"><rdf:RDF><cc:Work
         rdf:about=""><dc:format>image/svg+xml</dc:format><dc:type
           rdf:resource="http://purl.org/dc/dcmitype/StillImage" /></cc:Work></rdf:RDF></metadata><defs
     id="defs6" /><g
     transform="matrix(1.3333333,0,0,-1.3333333,0,414.2)"
     id="g10"><g
       transform="scale(0.1)"
       id="g12"><path
         id="path14"
         style="fill:#050301;fill-opacity:1;fill-rule:nonzero;stroke:none"
         d="M 418.555,372.422 330.691,108.57 242.844,372.422 h -21.301 l 93.32,-280.3126 h 31.66 l 93.321,280.3126 h -21.289" /><path
         id="path16"
         style="fill:#050301;fill-opacity:1;fill-rule:nonzero;stroke:none"
         d="m 1157.32,163.211 c -11.7,-33.129 -43.32,-55.402 -78.69,-55.402 h -6.91 c -35.36,0 -66.98,22.273 -78.685,55.402 -1.687,4.758 -6.797,19.219 -6.797,69.07 0,44.539 3.879,60.649 6.797,68.891 11.705,33.148 43.325,55.41 78.685,55.41 h 6.91 c 35.37,0 66.99,-22.262 78.69,-55.41 1.68,-4.731 6.8,-19.203 6.8,-68.891 0,-33.551 -2.23,-56.152 -6.8,-69.07 m 6.8,209.309 v -40.622 c -19,27.582 -50.77,44.922 -85.49,44.922 h -6.91 c -43.93,0 -83.212,-27.691 -97.767,-68.898 -3.699,-10.473 -7.945,-28.524 -7.945,-75.641 0,-47.789 4.539,-66.152 7.945,-75.801 14.555,-41.21 53.837,-68.8902 97.767,-68.8902 h 6.91 c 34.65,0 66.35,17.2692 85.36,44.7502 -0.49,-26.809 -2.68,-45.4416 -6.67,-56.7111 C 1145.62,42.5 1114,20.2383 1078.63,20.2383 h -6.91 c -31.3,0 -60.75,14.5508 -76.407,36.2812 H 971.777 C 988.574,22.832 1028.1,0 1071.72,0 h 6.91 c 43.93,0 83.22,27.6797 97.77,68.8906 3.41,9.6485 7.94,28.0078 7.94,75.8084 V 372.52 h -20.22" /><path
         id="path18"
         style="fill:#050301;fill-opacity:1;fill-rule:nonzero;stroke:none"
         d="m 1252.76,301.148 c 11.7,33.141 43.31,55.391 78.69,55.391 h 6.91 c 35.37,0 66.97,-22.25 78.69,-55.391 1.35,-3.839 5.24,-14.839 6.43,-47.238 h -177.15 c 1.01,28.488 4.04,40.5 6.43,47.238 m 170.97,-139.699 -0.49,-1.367 c -10.7,-30.293 -46.39,-52.293 -84.88,-52.293 h -6.91 c -35.38,0 -66.99,22.262 -78.69,55.383 -1.69,4.758 -6.8,19.226 -6.8,69.078 v 1.422 h 198.19 l -0.17,10.289 c -0.64,39.187 -4.79,55.258 -7.87,63.93 -14.54,41.211 -53.83,68.89 -97.75,68.89 h -6.91 c -43.93,0 -83.22,-27.679 -97.77,-68.89 -3.7,-10.469 -7.96,-28.532 -7.96,-75.641 0,-47.789 4.55,-66.16 7.96,-75.801 14.55,-41.211 53.84,-68.8982 97.77,-68.8982 h 6.91 c 47.53,0 90.28,27.0582 103.95,65.8012 l 2.87,8.097 h -21.45" /><path
         id="path20"
         style="fill:#050301;fill-opacity:1;fill-rule:nonzero;stroke:none"
         d="m 475.879,301.148 c 11.699,33.141 43.309,55.391 78.672,55.391 h 6.926 c 35.359,0 66.98,-22.25 78.679,-55.391 1.36,-3.839 5.242,-14.839 6.446,-47.238 H 469.434 c 1.027,28.488 4.043,40.5 6.445,47.238 m 170.969,-139.699 -0.5,-1.367 c -10.703,-30.293 -46.387,-52.293 -84.871,-52.293 h -6.926 c -35.363,0 -66.973,22.262 -78.672,55.383 -1.691,4.758 -6.809,19.226 -6.809,69.078 v 1.422 h 198.196 l -0.176,10.289 c -0.637,39.187 -4.785,55.258 -7.852,63.93 -14.55,41.211 -53.847,68.89 -97.761,68.89 h -6.926 c -43.914,0 -83.203,-27.679 -97.754,-68.89 -3.699,-10.469 -7.949,-28.532 -7.949,-75.641 0,-47.789 4.543,-66.16 7.949,-75.801 14.551,-41.211 53.84,-68.8982 97.754,-68.8982 h 6.926 c 47.527,0 90.269,27.0582 103.953,65.8012 l 2.863,8.097 h -21.445" /><path
         id="path22"
         style="fill:#050301;fill-opacity:1;fill-rule:nonzero;stroke:none"
         d="m 107.891,253.582 c -51.309,0 -77.3246,16.668 -77.3246,49.547 0,22.891 7.4414,53.351 71.9216,53.351 h 8.215 c 59.004,0 70.254,-25.492 71.746,-47.378 h 20.246 c -1.914,32.16 -20.293,67.609 -91.992,67.609 h -8.215 c -76.1677,0 -92.156,-40.02 -92.156,-73.582 0,-26.078 12.6641,-69.77 97.559,-69.77 74.765,0 84.843,-32.711 84.843,-64.687 0,-40.352 -26.699,-60.813 -79.375,-60.813 H 99.8242 c -52.6562,0 -79.3554,20.461 -79.3554,60.813 H 0.234375 c 0,-52.262 35.371125,-81.0509 99.589825,-81.0509 h 13.5348 c 64.231,0 99.602,28.7889 99.602,81.0509 0,57.129 -34.367,84.91 -105.07,84.91" /><path
         id="path24"
         style="fill:#050301;fill-opacity:1;fill-rule:nonzero;stroke:none"
         d="M 915.723,406.801 H 895.48 v 54.019 h 20.243 v -54.019" /><path
         id="path26"
         style="fill:#050301;fill-opacity:1;fill-rule:nonzero;stroke:none"
         d="M 915.723,372.602 H 895.496 V 92.1406 h 20.227 V 372.602" /><path
         id="path28"
         style="fill:#050301;fill-opacity:1;fill-rule:nonzero;stroke:none"
         d="m 2520.2,406.801 h -20.23 v 54.019 h 20.23 v -54.019" /><path
         id="path30"
         style="fill:#050301;fill-opacity:1;fill-rule:nonzero;stroke:none"
         d="m 2520.2,372.602 h -20.21 V 92.1406 h 20.21 V 372.602" /><path
         id="path32"
         style="fill:#050301;fill-opacity:1;fill-rule:nonzero;stroke:none"
         d="m 851.379,373.582 c -8.383,2.137 -17.031,3.238 -25.941,3.238 h -6.915 c -34.675,0 -66.414,-17.328 -85.418,-44.879 v 40.661 H 712.883 V 92.1289 h 20.222 V 237.172 c 0.286,40.816 3.965,56.109 6.766,64.047 11.699,33.133 43.313,55.371 78.652,55.371 h 6.915 c 8.996,0 17.648,-1.481 25.941,-4.16 v 21.152" /><path
         id="path34"
         style="fill:#050301;fill-opacity:1;fill-rule:nonzero;stroke:none"
         d="m 2672.04,356.57 c -35.36,0 -66.96,-22.25 -78.66,-55.379 -2.91,-8.242 -6.79,-24.339 -6.79,-68.859 0,-49.844 5.11,-64.293 6.79,-69.051 11.7,-33.121 43.3,-55.371 78.66,-55.371 h 6.91 c 35.35,0 66.95,22.25 78.67,55.371 4.55,12.918 6.76,35.508 6.76,69.051 0,49.66 -5.1,64.117 -6.76,68.859 -11.72,33.129 -43.32,55.379 -78.67,55.379 z m 6.91,-268.8708 h -6.91 c -43.91,0 -83.17,27.6598 -97.74,68.8398 -3.4,9.641 -7.93,28.012 -7.93,75.793 0,47.09 4.24,65.137 7.95,75.609 14.55,41.188 53.81,68.86 97.72,68.86 h 6.91 c 43.91,0 83.18,-27.672 97.73,-68.86 3.7,-10.472 7.93,-28.519 7.93,-75.609 0,-47.781 -4.53,-66.152 -7.93,-75.793 -14.55,-41.18 -53.82,-68.8398 -97.73,-68.8398" /><path
         id="path36"
         style="fill:#050301;fill-opacity:1;fill-rule:nonzero;stroke:none"
         d="M 2419.65,163.289 C 2407.95,130.18 2376.35,107.91 2341,107.91 h -6.91 c -35.35,0 -66.96,22.27 -78.66,55.379 -1.68,4.762 -6.79,19.211 -6.79,69.051 0,44.519 3.86,60.629 6.79,68.871 11.7,33.141 43.31,55.379 78.66,55.379 h 6.91 c 35.35,0 66.95,-22.238 78.65,-55.379 1.7,-4.742 6.8,-19.199 6.8,-68.871 0,-33.531 -2.23,-56.129 -6.8,-69.051 m 6.86,-71.1796 h 20.21 V 460.891 h -20.21 V 331.84 c -19.01,27.609 -50.78,44.98 -85.51,44.98 h -6.91 c -43.91,0 -83.19,-27.679 -97.72,-68.871 -3.71,-10.469 -7.95,-28.519 -7.95,-75.609 0,-47.789 4.51,-66.141 7.95,-75.789 14.53,-41.192 53.81,-68.8518 97.72,-68.8518 h 6.91 c 34.73,0 66.5,17.3598 85.51,44.9728 V 92.1094" /><path
         id="path38"
         style="fill:#050301;fill-opacity:1;fill-rule:nonzero;stroke:none"
         d="m 2166.88,232.672 h -0.04 c 0,-33.57 -2.23,-56.184 -6.8,-69.121 -11.7,-33.141 -43.34,-55.41 -78.71,-55.41 l -7.56,-0.051 c -52.81,0 -79.59,20.512 -79.59,60.98 v 3.078 c 0,32.09 10.32,61.762 85.1,61.762 h 87.6 z m 20.25,64.687 c 0,50.071 -34.55,79.973 -92.4,79.973 h -8.24 c -59.9,0 -95.29,-24.641 -98.28,-67.781 h 20.35 c 3.73,39.008 43.91,47.508 77.93,47.508 h 8.24 c 26.94,0 72.13,-7.758 72.13,-59.75 l 0.02,-43.149 h -87.6 c -71.87,0 -105.35,-26.051 -105.35,-82.012 v -3.078 c 0,-52.39 35.45,-81.2497 99.84,-81.2497 l 8.17,0.0508 c 34.53,0.1992 66.07,17.5389 84.96,45.0199 l 0.02,-40.6918 h 20.25 l -0.04,205.1598" /><path
         id="path40"
         style="fill:#050301;fill-opacity:1;fill-rule:nonzero;stroke:none"
         d="m 1866.96,303.629 c 0,71.109 -69.92,66.922 -91.62,71.109 h 100.93 c 28.97,-0.027 75.36,-19.148 75.36,-71.117 0,-51.961 -36.37,-71.082 -65.34,-71.101 h -47.36 c 0,0 28.03,0.011 28.03,71.109" /><path
         id="path42"
         style="fill:#050301;fill-opacity:1;fill-rule:nonzero;stroke:none"
         d="m 1484.48,92.1992 h 121.03 L 1484.48,218.242 Z" /><path
         id="path44"
         style="fill:#050301;fill-opacity:1;fill-rule:nonzero;stroke:none"
         d="M 1612.04,374.75 1727.11,237.199 V 374.75 Z" /><path
         id="path46"
         style="fill:#050301;fill-opacity:1;fill-rule:nonzero;stroke:none"
         d="M 1833.74,232.559 H 1730.98 L 1848.42,92.1992 h 109.73 L 1833.74,232.559" /><path
         id="path48"
         style="fill:#050301;fill-opacity:1;fill-rule:nonzero;stroke:none"
         d="m 1566.78,303.621 c 0,-53.582 17.25,-66.902 38.73,-71.101 h -60.62 c -28.67,0.031 -64.69,19.152 -64.69,71.109 0,51.973 36.02,71.09 64.69,71.121 h 60.62 c -21.5,-4.199 -38.73,-17.539 -38.73,-71.129" /><path
         id="path50"
         style="fill:#050301;fill-opacity:1;fill-rule:nonzero;stroke:none"
         d="m 1650.73,162.34 c 0,52.898 -17.42,66.039 -39.12,70.18 h 61.23 c 28.96,-0.032 65.33,-18.899 65.33,-70.188 0,-51.281 -36.37,-70.1406 -65.33,-70.1836 h -61.23 c 21.7,4.1407 39.12,17.3006 39.12,70.1916" /><path
         id="path52"
         style="fill:#a52d9c;fill-opacity:1;fill-rule:nonzero;stroke:none"
         d="m 1012.28,2478.47 c 0,-436.33 -241.003,-482.95 -241.003,-482.95 h 259.563 c 31.76,0 655.18,-24.01 655.18,555.43 0,579.41 -486.36,555.41 -518.12,555.41 H 771.277 c 0,0 241.003,-49.53 241.003,-485.88 v -142.01" /><path
         id="path54"
         style="fill:#a52d9c;fill-opacity:1;fill-rule:nonzero;stroke:none"
         d="M 12.4297,3106.36 V 1197.65 H 606.719 V 3106.36 H 12.4297" /><path
         id="path56"
         style="fill:#a52d9c;fill-opacity:1;fill-rule:nonzero;stroke:none"
         d="M 2278.75,3106.36 1391.03,1642.88 h 673.19 l 908.38,1463.48 h -693.85" /><path
         id="path58"
         style="fill:#a52d9c;fill-opacity:1;fill-rule:nonzero;stroke:none"
         d="m 2522.27,2154.74 -315.86,-511.76 v -445.33 h 582.54 v 957.09 h -266.68" /><path
         id="path60"
         style="fill:#a52d9c;fill-opacity:1;fill-rule:nonzero;stroke:none"
         d="M 16.1719,489.02 H 0 v 20.218 h 16.1719 c 42.4414,0 66.7969,26.563 66.7969,72.891 V 861.09 H 103.164 V 582.129 c 0,-57.418 -33.3281,-93.109 -86.9921,-93.109" /><path
         id="path62"
         style="fill:#a52d9c;fill-opacity:1;fill-rule:nonzero;stroke:none"
         d="M 103.164,925.051 V 895.27 H 82.9688 v 53.929 h 20.1952 v -24.148" /><path
         id="path64"
         style="fill:#a52d9c;fill-opacity:1;fill-rule:nonzero;stroke:none"
         d="m 238.594,925.051 v -30.153 h -20.196 v 53.934 h 20.196 v -23.781" /><path
         id="path66"
         style="fill:#a52d9c;fill-opacity:1;fill-rule:nonzero;stroke:none"
         d="m 302.148,925.051 v -30.153 h -20.195 v 53.934 h 20.195 v -23.781" /><path
         id="path68"
         style="fill:#a52d9c;fill-opacity:1;fill-rule:nonzero;stroke:none"
         d="m 339.133,720.719 h -0.039 c 0,-33.469 -2.219,-56.008 -6.789,-68.918 -11.668,-33.051 -43.203,-55.25 -78.457,-55.25 l -7.559,-0.051 c -52.644,0 -79.348,20.449 -79.348,60.828 v 3.051 c 0,31.973 10.286,61.57 84.829,61.57 h 87.363 z m 20.176,64.5 c 0,49.922 -34.426,79.722 -92.121,79.722 h -8.204 c -59.738,0 -95.019,-24.55 -98,-67.582 h 20.293 c 3.743,38.891 43.774,47.379 77.707,47.379 h 8.204 c 26.843,0 71.933,-7.726 71.933,-59.578 l 0.012,-43.012 H 251.77 c -71.653,0 -105.032,-25.976 -105.032,-81.769 v -3.051 c 0,-52.258 35.352,-81.039 99.551,-81.039 l 8.145,0.082 c 34.433,0.168 65.879,17.461 84.726,44.859 l 0.012,-40.57 h 20.203 l -0.066,204.559" /><path
         id="path70"
         style="fill:#a52d9c;fill-opacity:1;fill-rule:nonzero;stroke:none"
         d="m 744.246,580.672 h 20.195 v 146.09 c 0,47.347 -3.796,65.519 -6.668,75.07 -12.05,40.066 -41.921,63.047 -81.98,63.047 h -5.883 c -34.14,0 -64.91,-22.32 -79.93,-56.668 -13.21,36.098 -41.96,56.668 -79.835,56.668 h -5.875 c -28.372,0 -54.415,-15.399 -71.047,-40.297 V 860.82 H 413.02 V 580.672 h 20.203 v 149.519 c 0.449,37.391 3.457,51.918 5.769,59.637 9.875,32.801 36.098,54.844 65.278,54.844 h 5.875 c 30.96,0 53.214,-17.281 62.628,-48.652 1.446,-4.809 5.84,-19.399 5.84,-69.258 v -146.09 h 20.196 v 140.469 c 0.031,44.199 3.339,60.379 5.839,68.687 9.844,32.801 36.082,54.844 65.262,54.844 h 5.883 c 30.965,0 53.211,-17.281 62.637,-48.652 1.433,-4.809 5.816,-19.399 5.816,-69.258 v -146.09" /><path
         id="path72"
         style="fill:#a52d9c;fill-opacity:1;fill-rule:nonzero;stroke:none"
         d="M 932.676,840.469 V 860.68 H 849.473 V 915 H 829.27 V 860.68 H 782.871 V 840.469 H 829.27 V 665.332 c 0,-56.703 31.699,-89.223 86.98,-89.223 h 16.426 v 20.2 H 916.25 c -44.316,0 -66.777,23.222 -66.777,69.023 v 175.137 h 83.203" /><path
         id="path74"
         style="fill:#a52d9c;fill-opacity:1;fill-rule:nonzero;stroke:none"
         d="m 1006.88,891.379 v 57.609 h -20.2 V 580.781 h 20.2 v 310.598" /><path
         id="path76"
         style="fill:#a52d9c;fill-opacity:1;fill-rule:nonzero;stroke:none"
         d="m 1248.7,720.77 h -0.03 c 0,-33.469 -2.21,-56.008 -6.79,-68.911 -11.66,-33.039 -43.2,-55.257 -78.46,-55.257 l -7.55,-0.043 c -52.65,0 -79.35,20.453 -79.35,60.812 v 3.07 c 0,31.969 10.28,61.571 84.83,61.571 h 87.35 z m 20.18,64.511 c 0,49.93 -34.43,79.719 -92.11,79.719 h -8.22 c -59.74,0 -95.01,-24.559 -98,-67.578 h 20.3 c 3.72,38.898 43.77,47.379 77.7,47.379 h 8.22 c 26.86,0 71.92,-7.742 71.92,-59.582 v -43.008 h -87.34 c -71.65,0 -105.03,-25.981 -105.03,-81.77 v -3.07 c 0,-52.242 35.36,-81.012 99.55,-81.012 l 8.13,0.063 c 34.44,0.187 65.88,17.469 84.72,44.879 l 0.01,-40.59 h 20.22 l -0.07,204.57" /><path
         id="path78"
         style="fill:#a52d9c;fill-opacity:1;fill-rule:nonzero;stroke:none"
         d="m 1516.12,580.699 h 20.17 v 146.25 c 0,47.039 -4.21,65.071 -7.91,75.531 -14.06,39.782 -48.51,62.59 -94.52,62.59 h -6.92 c -34.65,0 -66.35,-17.3 -85.32,-44.851 v 40.633 h -20.2 V 580.699 h 20.2 v 141.512 c 0.08,43.328 3.89,59.211 6.78,67.348 11.68,33.089 43.25,55.3 78.54,55.3 h 6.92 c 37.47,0 64.29,-17.437 75.46,-49.121 1.68,-4.726 6.8,-19.179 6.8,-68.789 v -146.25" /><path
         id="path80"
         style="fill:#a52d9c;fill-opacity:1;fill-rule:nonzero;stroke:none"
         d="m 1769.63,651.922 c -11.68,-33.082 -43.24,-55.301 -78.55,-55.301 h -6.91 c -35.32,0 -66.88,22.219 -78.56,55.301 -1.68,4.75 -6.8,19.199 -6.8,68.969 0,44.461 3.89,60.558 6.8,68.8 11.68,33.079 43.24,55.289 78.56,55.289 h 6.91 c 35.31,0 66.87,-22.21 78.55,-55.289 1.68,-4.761 6.78,-19.191 6.78,-68.8 0,-33.5 -2.21,-56.063 -6.78,-68.969 m 6.84,-71.09 h 20.2 v 368.34 h -20.2 V 820.25 c -18.97,27.602 -50.7,44.949 -85.39,44.949 h -6.91 c -43.85,0 -83.09,-27.64 -97.62,-68.777 -3.67,-10.461 -7.93,-28.492 -7.93,-75.531 0,-47.719 4.53,-66.063 7.93,-75.692 14.53,-41.148 53.77,-68.777 97.62,-68.777 h 6.91 c 34.69,0 66.42,17.328 85.39,44.918 v -40.508" /></g></g></svg>