<?xml version="1.0" encoding="UTF-8" standalone="no"?>
<svg
   xmlns:dc="http://purl.org/dc/elements/1.1/"
   xmlns:cc="http://creativecommons.org/ns#"
   xmlns:rdf="http://www.w3.org/1999/02/22-rdf-syntax-ns#"
   xmlns:svg="http://www.w3.org/2000/svg"
   xmlns="http://www.w3.org/2000/svg"
   viewBox="0 0 396.39999 414.20001"
   height="414.20001"
   width="396.39999"
   xml:space="preserve"
   id="svg2"
   version="1.1"><metadata
     id="metadata8"><rdf:RDF><cc:Work
         rdf:about=""><dc:format>image/svg+xml</dc:format><dc:type
           rdf:resource="http://purl.org/dc/dcmitype/StillImage" /></cc:Work></rdf:RDF></metadata><defs
     id="defs6" /><g
     transform="matrix(1.3333333,0,0,-1.3333333,0,414.2)"
     id="g10"><g
       transform="scale(0.1)"
       id="g12"><path
         id="path14"
         style="fill:#050301;fill-opacity:1;fill-rule:nonzero;stroke:none"
         d="M 418.906,372.422 331.047,108.57 243.191,372.422 h -21.296 l 93.32,-280.3126 h 31.66 l 93.32,280.3126 h -21.289" /><path
         id="path16"
         style="fill:#050301;fill-opacity:1;fill-rule:nonzero;stroke:none"
         d="m 1157.68,163.211 c -11.71,-33.129 -43.32,-55.402 -78.7,-55.402 h -6.91 c -35.36,0 -66.98,22.273 -78.679,55.402 -1.692,4.758 -6.797,19.219 -6.797,69.07 0,44.539 3.875,60.649 6.797,68.891 11.699,33.148 43.319,55.41 78.679,55.41 h 6.91 c 35.38,0 66.99,-22.262 78.7,-55.41 1.68,-4.731 6.79,-19.203 6.79,-68.891 0,-33.551 -2.22,-56.152 -6.79,-69.07 m 6.79,209.309 v -40.622 c -19,27.582 -50.77,44.922 -85.49,44.922 h -6.91 c -43.93,0 -83.215,-27.691 -97.761,-68.898 -3.704,-10.473 -7.954,-28.524 -7.954,-75.641 0,-47.789 4.543,-66.152 7.954,-75.801 14.546,-41.21 53.831,-68.8902 97.761,-68.8902 h 6.91 c 34.65,0 66.35,17.2692 85.37,44.7502 -0.5,-26.809 -2.69,-45.4416 -6.67,-56.7111 -11.71,-33.1289 -43.32,-55.3906 -78.7,-55.3906 h -6.91 c -31.3,0 -60.75,14.5508 -76.406,36.2812 H 972.129 C 988.926,22.832 1028.45,0 1072.07,0 h 6.91 c 43.93,0 83.22,27.6797 97.77,68.8906 3.42,9.6485 7.94,28.0078 7.94,75.8084 V 372.52 h -20.22" /><path
         id="path18"
         style="fill:#050301;fill-opacity:1;fill-rule:nonzero;stroke:none"
         d="m 1253.12,301.148 c 11.69,33.141 43.31,55.391 78.68,55.391 h 6.91 c 35.37,0 66.97,-22.25 78.69,-55.391 1.35,-3.839 5.24,-14.839 6.43,-47.238 h -177.15 c 1.02,28.488 4.04,40.5 6.44,47.238 m 170.96,-139.699 -0.49,-1.367 c -10.7,-30.293 -46.39,-52.293 -84.88,-52.293 h -6.91 c -35.37,0 -66.99,22.262 -78.68,55.383 -1.69,4.758 -6.81,19.226 -6.81,69.078 v 1.422 h 198.19 l -0.16,10.289 c -0.65,39.187 -4.8,55.258 -7.88,63.93 -14.54,41.211 -53.83,68.89 -97.75,68.89 h -6.91 c -43.93,0 -83.22,-27.679 -97.77,-68.89 -3.7,-10.469 -7.96,-28.532 -7.96,-75.641 0,-47.789 4.56,-66.16 7.96,-75.801 14.55,-41.211 53.84,-68.8982 97.77,-68.8982 h 6.91 c 47.53,0 90.28,27.0582 103.96,65.8012 l 2.86,8.097 h -21.45" /><path
         id="path20"
         style="fill:#050301;fill-opacity:1;fill-rule:nonzero;stroke:none"
         d="m 476.23,301.148 c 11.7,33.141 43.313,55.391 78.672,55.391 h 6.922 c 35.364,0 66.985,-22.25 78.684,-55.391 1.355,-3.839 5.246,-14.839 6.445,-47.238 H 469.785 c 1.028,28.488 4.043,40.5 6.445,47.238 m 170.965,-139.699 -0.496,-1.367 c -10.703,-30.293 -46.386,-52.293 -84.875,-52.293 h -6.922 c -35.359,0 -66.972,22.262 -78.672,55.383 -1.687,4.758 -6.804,19.226 -6.804,69.078 v 1.422 h 198.191 l -0.176,10.289 c -0.632,39.187 -4.785,55.258 -7.851,63.93 -14.551,41.211 -53.848,68.89 -97.766,68.89 h -6.922 c -43.918,0 -83.203,-27.679 -97.754,-68.89 -3.703,-10.469 -7.949,-28.532 -7.949,-75.641 0,-47.789 4.539,-66.16 7.949,-75.801 14.551,-41.211 53.836,-68.8982 97.754,-68.8982 h 6.922 c 47.531,0 90.278,27.0582 103.957,65.8012 l 2.864,8.097 h -21.45" /><path
         id="path22"
         style="fill:#050301;fill-opacity:1;fill-rule:nonzero;stroke:none"
         d="m 108.242,253.582 c -51.3084,0 -77.324,16.668 -77.324,49.547 0,22.891 7.4414,53.351 71.926,53.351 h 8.211 c 59.004,0 70.254,-25.492 71.75,-47.378 h 20.242 c -1.914,32.16 -20.293,67.609 -91.992,67.609 h -8.211 c -76.176,0 -92.1604,-40.02 -92.1604,-73.582 0,-26.078 12.6641,-69.77 97.5584,-69.77 74.766,0 84.844,-32.711 84.844,-64.687 0,-40.352 -26.699,-60.813 -79.375,-60.813 h -13.535 c -52.6565,0 -79.3557,20.461 -79.3557,60.813 H 0.585938 C 0.585938,116.41 35.957,87.6211 100.176,87.6211 h 13.535 c 64.227,0 99.602,28.7889 99.602,81.0509 0,57.129 -34.368,84.91 -105.071,84.91" /><path
         id="path24"
         style="fill:#050301;fill-opacity:1;fill-rule:nonzero;stroke:none"
         d="m 916.074,406.801 h -20.246 v 54.019 h 20.246 v -54.019" /><path
         id="path26"
         style="fill:#050301;fill-opacity:1;fill-rule:nonzero;stroke:none"
         d="M 916.074,372.602 H 895.852 V 92.1406 h 20.222 V 372.602" /><path
         id="path28"
         style="fill:#050301;fill-opacity:1;fill-rule:nonzero;stroke:none"
         d="m 2520.55,406.801 h -20.23 v 54.019 h 20.23 v -54.019" /><path
         id="path30"
         style="fill:#050301;fill-opacity:1;fill-rule:nonzero;stroke:none"
         d="m 2520.55,372.602 h -20.21 V 92.1406 h 20.21 V 372.602" /><path
         id="path32"
         style="fill:#050301;fill-opacity:1;fill-rule:nonzero;stroke:none"
         d="m 851.73,373.582 c -8.378,2.137 -17.035,3.238 -25.937,3.238 h -6.914 c -34.68,0 -66.418,-17.328 -85.422,-44.879 v 40.661 H 713.23 V 92.1289 h 20.227 V 237.172 c 0.281,40.816 3.965,56.109 6.77,64.047 11.699,33.133 43.308,55.371 78.652,55.371 h 6.914 c 8.992,0 17.645,-1.481 25.937,-4.16 v 21.152" /><path
         id="path34"
         style="fill:#050301;fill-opacity:1;fill-rule:nonzero;stroke:none"
         d="m 2672.39,356.57 c -35.35,0 -66.96,-22.25 -78.65,-55.379 -2.91,-8.242 -6.8,-24.339 -6.8,-68.859 0,-49.844 5.12,-64.293 6.8,-69.051 11.69,-33.121 43.3,-55.371 78.65,-55.371 h 6.91 c 35.35,0 66.95,22.25 78.67,55.371 4.55,12.918 6.76,35.508 6.76,69.051 0,49.66 -5.1,64.117 -6.76,68.859 -11.72,33.129 -43.32,55.379 -78.67,55.379 z m 6.91,-268.8708 h -6.91 c -43.91,0 -83.17,27.6598 -97.74,68.8398 -3.4,9.641 -7.93,28.012 -7.93,75.793 0,47.09 4.24,65.137 7.95,75.609 14.55,41.188 53.81,68.86 97.72,68.86 h 6.91 c 43.91,0 83.19,-27.672 97.74,-68.86 3.69,-10.472 7.93,-28.519 7.93,-75.609 0,-47.781 -4.54,-66.152 -7.93,-75.793 -14.55,-41.18 -53.83,-68.8398 -97.74,-68.8398" /><path
         id="path36"
         style="fill:#050301;fill-opacity:1;fill-rule:nonzero;stroke:none"
         d="m 2420,163.289 c -11.69,-33.109 -43.3,-55.379 -78.65,-55.379 h -6.91 c -35.35,0 -66.95,22.27 -78.65,55.379 -1.68,4.762 -6.8,19.211 -6.8,69.051 0,44.519 3.87,60.629 6.8,68.871 11.7,33.141 43.3,55.379 78.65,55.379 h 6.91 c 35.35,0 66.96,-22.238 78.65,-55.379 1.7,-4.742 6.8,-19.199 6.8,-68.871 0,-33.531 -2.22,-56.129 -6.8,-69.051 m 6.86,-71.1796 h 20.22 V 460.891 h -20.22 V 331.84 c -19,27.609 -50.78,44.98 -85.51,44.98 h -6.91 c -43.91,0 -83.19,-27.679 -97.72,-68.871 -3.71,-10.469 -7.95,-28.519 -7.95,-75.609 0,-47.789 4.52,-66.141 7.95,-75.789 14.53,-41.192 53.81,-68.8518 97.72,-68.8518 h 6.91 c 34.73,0 66.51,17.3598 85.51,44.9728 V 92.1094" /><path
         id="path38"
         style="fill:#050301;fill-opacity:1;fill-rule:nonzero;stroke:none"
         d="m 2167.23,232.672 h -0.04 c 0,-33.57 -2.22,-56.184 -6.79,-69.121 -11.7,-33.141 -43.34,-55.41 -78.72,-55.41 l -7.55,-0.051 c -52.82,0 -79.59,20.512 -79.59,60.98 v 3.078 c 0,32.09 10.31,61.762 85.09,61.762 h 87.6 z m 20.26,64.687 c 0,50.071 -34.56,79.973 -92.41,79.973 h -8.24 c -59.9,0 -95.29,-24.641 -98.28,-67.781 h 20.35 c 3.73,39.008 43.91,47.508 77.93,47.508 h 8.24 c 26.94,0 72.13,-7.758 72.13,-59.75 l 0.02,-43.149 h -87.6 c -71.87,0 -105.35,-26.051 -105.35,-82.012 v -3.078 c 0,-52.39 35.45,-81.2497 99.85,-81.2497 l 8.16,0.0508 c 34.53,0.1992 66.07,17.5389 84.96,45.0199 l 0.02,-40.6918 h 20.25 l -0.03,205.1598" /><path
         id="path40"
         style="fill:#050301;fill-opacity:1;fill-rule:nonzero;stroke:none"
         d="m 1867.31,303.629 c 0,71.109 -69.92,66.922 -91.62,71.109 h 100.94 c 28.96,-0.027 75.35,-19.148 75.35,-71.117 0,-51.961 -36.37,-71.082 -65.33,-71.101 h -47.37 c 0,0 28.03,0.011 28.03,71.109" /><path
         id="path42"
         style="fill:#050301;fill-opacity:1;fill-rule:nonzero;stroke:none"
         d="m 1484.83,92.1992 h 121.03 L 1484.83,218.242 Z" /><path
         id="path44"
         style="fill:#050301;fill-opacity:1;fill-rule:nonzero;stroke:none"
         d="M 1612.39,374.75 1727.47,237.199 V 374.75 Z" /><path
         id="path46"
         style="fill:#050301;fill-opacity:1;fill-rule:nonzero;stroke:none"
         d="M 1834.09,232.559 H 1731.33 L 1848.77,92.1992 H 1958.5 L 1834.09,232.559" /><path
         id="path48"
         style="fill:#050301;fill-opacity:1;fill-rule:nonzero;stroke:none"
         d="m 1567.13,303.621 c 0,-53.582 17.25,-66.902 38.73,-71.101 h -60.62 c -28.67,0.031 -64.69,19.152 -64.69,71.109 0,51.973 36.02,71.09 64.69,71.121 h 60.62 c -21.5,-4.199 -38.73,-17.539 -38.73,-71.129" /><path
         id="path50"
         style="fill:#050301;fill-opacity:1;fill-rule:nonzero;stroke:none"
         d="m 1651.08,162.34 c 0,52.898 -17.42,66.039 -39.12,70.18 h 61.23 c 28.96,-0.032 65.33,-18.899 65.33,-70.188 0,-51.281 -36.37,-70.1406 -65.33,-70.1836 h -61.23 c 21.7,4.1407 39.12,17.3006 39.12,70.1916" /><path
         id="path52"
         style="fill:#a52d9c;fill-opacity:1;fill-rule:nonzero;stroke:none"
         d="m 1012.63,2478.47 c 0,-436.33 -240.997,-482.95 -240.997,-482.95 h 259.557 c 31.76,0 655.18,-24.01 655.18,555.43 0,579.41 -486.36,555.41 -518.12,555.41 H 771.633 c 0,0 240.997,-49.53 240.997,-485.88 v -142.01" /><path
         id="path54"
         style="fill:#a52d9c;fill-opacity:1;fill-rule:nonzero;stroke:none"
         d="M 12.7813,3106.36 V 1197.65 H 607.07 V 3106.36 H 12.7813" /><path
         id="path56"
         style="fill:#a52d9c;fill-opacity:1;fill-rule:nonzero;stroke:none"
         d="M 2279.11,3106.36 1391.38,1642.88 h 673.2 l 908.37,1463.48 h -693.84" /><path
         id="path58"
         style="fill:#a52d9c;fill-opacity:1;fill-rule:nonzero;stroke:none"
         d="m 2522.62,2154.74 -315.86,-511.76 v -445.33 h 582.54 v 957.09 h -266.68" /><path
         id="path60"
         style="fill:#a52d9c;fill-opacity:1;fill-rule:nonzero;stroke:none"
         d="M 16.1797,489 H 0 v 20.211 h 16.1797 c 42.4414,0 66.7891,26.559 66.7891,72.891 V 861.07 H 103.164 V 582.102 C 103.164,524.68 69.8438,489 16.1797,489" /><path
         id="path62"
         style="fill:#a52d9c;fill-opacity:1;fill-rule:nonzero;stroke:none"
         d="M 103.164,895.25 H 82.9766 v 53.922 H 103.164 V 895.25" /><path
         id="path64"
         style="fill:#a52d9c;fill-opacity:1;fill-rule:nonzero;stroke:none"
         d="m 256.094,844.77 c -35.313,0 -66.895,-22.219 -78.574,-55.309 -2.903,-8.231 -6.778,-24.32 -6.778,-68.789 0,-49.774 5.117,-64.211 6.778,-68.961 11.679,-33.09 43.261,-55.301 78.574,-55.301 h 6.914 c 35.293,0 66.863,22.211 78.555,55.301 4.558,12.91 6.777,35.461 6.777,68.961 0,49.609 -5.086,64.047 -6.777,68.789 -11.692,33.09 -43.262,55.309 -78.555,55.309 z m 6.914,-268.579 h -6.914 c -43.86,0 -83.086,27.649 -97.617,68.789 -3.399,9.629 -7.942,27.969 -7.942,75.692 0,47.039 4.231,65.066 7.942,75.527 14.531,41.129 53.757,68.781 97.617,68.781 h 6.914 c 43.855,0 83.066,-27.652 97.605,-68.781 3.696,-10.461 7.942,-28.488 7.942,-75.527 0,-47.723 -4.551,-66.063 -7.942,-75.692 -14.539,-41.14 -53.75,-68.789 -97.605,-68.789" /><path
         id="path66"
         style="fill:#a52d9c;fill-opacity:1;fill-rule:nonzero;stroke:none"
         d="m 238.691,894.941 h -20.175 v 53.93 h 20.175 v -53.93" /><path
         id="path68"
         style="fill:#a52d9c;fill-opacity:1;fill-rule:nonzero;stroke:none"
         d="m 299.695,894.941 h -20.183 v 53.93 h 20.183 v -53.93" /><path
         id="path70"
         style="fill:#a52d9c;fill-opacity:1;fill-rule:nonzero;stroke:none"
         d="m 1007.07,844.871 c -35.312,0 -66.894,-22.211 -78.574,-55.301 -2.898,-8.238 -6.777,-24.32 -6.777,-68.8 0,-49.77 5.117,-64.211 6.777,-68.95 11.68,-33.09 43.262,-55.32 78.574,-55.32 h 6.91 c 35.3,0 66.87,22.23 78.56,55.32 4.56,12.91 6.78,35.469 6.78,68.95 0,49.621 -5.09,64.058 -6.78,68.8 -11.69,33.09 -43.26,55.301 -78.56,55.301 z m 6.91,-268.57 h -6.91 c -43.855,0 -83.086,27.648 -97.629,68.789 -3.386,9.629 -7.925,27.961 -7.925,75.68 0,47.039 4.226,65.07 7.937,75.539 14.531,41.132 53.762,68.773 97.617,68.773 h 6.91 c 43.85,0 83.07,-27.641 97.61,-68.773 3.69,-10.469 7.93,-28.5 7.93,-75.539 0,-47.719 -4.54,-66.051 -7.93,-75.68 -14.54,-41.141 -53.76,-68.789 -97.61,-68.789" /><path
         id="path72"
         style="fill:#a52d9c;fill-opacity:1;fill-rule:nonzero;stroke:none"
         d="M 989.668,895.059 H 969.48 v 53.921 h 20.188 v -53.921" /><path
         id="path74"
         style="fill:#a52d9c;fill-opacity:1;fill-rule:nonzero;stroke:none"
         d="m 1050.67,895.059 h -20.18 v 53.921 h 20.18 v -53.921" /><path
         id="path76"
         style="fill:#a52d9c;fill-opacity:1;fill-rule:nonzero;stroke:none"
         d="m 610.645,575.969 h 20.195 v 146.242 c 0,47.039 -4.231,65.078 -7.918,75.539 -14.067,39.77 -48.508,62.582 -94.524,62.582 h -6.914 c -34.648,0 -66.355,-17.293 -85.332,-44.852 v 40.629 h -20.195 v -280.14 h 20.195 v 141.5 c 0.086,43.332 3.887,59.203 6.778,67.359 11.679,33.07 43.254,55.313 78.554,55.313 h 6.914 c 37.469,0 64.278,-17.442 75.469,-49.129 1.68,-4.75 6.778,-19.18 6.778,-68.801 V 575.969" /><path
         id="path78"
         style="fill:#a52d9c;fill-opacity:1;fill-rule:nonzero;stroke:none"
         d="m 770.391,749.672 114.187,111.09 h -28.98 L 703.02,712.328 V 948.77 h -20.2 v -368.2 h 20.2 v 103.571 l 52.761,51.328 115.606,-154.899 h 25.215 L 770.391,749.672" /><path
         id="path80"
         style="fill:#a52d9c;fill-opacity:1;fill-rule:nonzero;stroke:none"
         d="m 1357.65,651.609 c -11.69,-33.078 -43.26,-55.3 -78.57,-55.3 h -6.91 c -35.31,0 -66.88,22.222 -78.57,55.3 -1.59,4.532 -6.33,18.051 -6.73,62.782 v 13.398 c 0.39,39.02 4,53.801 6.73,61.582 11.69,33.078 43.26,55.301 78.57,55.301 h 6.91 c 35.31,0 66.88,-22.223 78.57,-55.301 1.67,-4.75 6.77,-19.18 6.77,-68.801 0,-33.5 -2.21,-56.05 -6.77,-68.961 m 19.03,144.493 c -14.52,41.136 -53.75,68.777 -97.6,68.777 h -6.91 c -34.64,0 -66.33,-17.289 -85.3,-44.809 v 40.602 h -20.2 V 492.5 h 20.2 v 128.398 c 18.97,-27.519 50.66,-44.796 85.3,-44.796 h 6.91 c 43.85,0 83.08,27.636 97.6,68.777 3.42,9.633 7.95,27.973 7.95,75.691 0,47.039 -4.24,65.078 -7.95,75.532" /><path
         id="path82"
         style="fill:#a52d9c;fill-opacity:1;fill-rule:nonzero;stroke:none"
         d="m 1454.46,894.82 h -20.21 v 53.918 h 20.21 V 894.82" /><path
         id="path84"
         style="fill:#a52d9c;fill-opacity:1;fill-rule:nonzero;stroke:none"
         d="m 1454.46,860.629 h -20.21 V 580.48 h 20.21 v 280.149" /><path
         id="path86"
         style="fill:#a52d9c;fill-opacity:1;fill-rule:nonzero;stroke:none"
         d="m 1707.92,580.57 h 20.19 v 146.239 c 0,47.043 -4.24,65.082 -7.93,75.519 -14.06,39.781 -48.5,62.594 -94.51,62.594 h -6.92 c -34.64,0 -66.36,-17.293 -85.33,-44.84 v 40.629 h -20.19 V 580.57 h 20.19 v 141.489 c 0.08,43.339 3.89,59.211 6.78,67.363 11.68,33.078 43.26,55.308 78.55,55.308 h 6.92 c 37.48,0 64.28,-17.441 75.47,-49.121 1.68,-4.75 6.78,-19.179 6.78,-68.8 V 580.57" /><path
         id="path88"
         style="fill:#a52d9c;fill-opacity:1;fill-rule:nonzero;stroke:none"
         d="m 1965.12,651.969 c -11.7,-33.078 -43.26,-55.309 -78.57,-55.309 h -6.92 c -35.31,0 -66.85,22.231 -78.55,55.309 -1.68,4.75 -6.78,19.203 -6.78,68.972 0,44.45 3.87,60.547 6.78,68.789 11.7,33.079 43.24,55.29 78.55,55.29 h 6.92 c 35.31,0 66.87,-22.211 78.57,-55.29 1.66,-4.761 6.78,-19.191 6.78,-68.789 0,-33.511 -2.23,-56.062 -6.78,-68.972 m 6.78,208.98 v -40.57 c -18.98,27.562 -50.68,44.859 -85.35,44.859 h -6.92 c -43.84,0 -83.06,-27.636 -97.59,-68.769 -3.7,-10.469 -7.93,-28.5 -7.93,-75.528 0,-47.73 4.51,-66.07 7.93,-75.703 14.53,-41.136 53.75,-68.769 97.59,-68.769 h 6.92 c 34.59,0 66.25,17.23 85.23,44.679 -0.51,-26.769 -2.69,-45.367 -6.66,-56.636 -11.7,-33.071 -43.26,-55.293 -78.57,-55.293 h -6.92 c -31.25,0 -60.64,14.511 -76.29,36.23 h -23.49 C 1796.63,511.809 1836.08,489 1879.63,489 h 6.92 c 43.85,0 83.08,27.648 97.62,68.789 3.39,9.633 7.92,27.961 7.92,75.699 v 227.461 h -20.19" /></g></g></svg>