<?xml version="1.0" encoding="UTF-8" standalone="no"?>
<svg
   xmlns:dc="http://purl.org/dc/elements/1.1/"
   xmlns:cc="http://creativecommons.org/ns#"
   xmlns:rdf="http://www.w3.org/1999/02/22-rdf-syntax-ns#"
   xmlns:svg="http://www.w3.org/2000/svg"
   xmlns="http://www.w3.org/2000/svg"
   viewBox="0 0 396.32001 414.20001"
   height="414.20001"
   width="396.32001"
   xml:space="preserve"
   id="svg2"
   version="1.1"><metadata
     id="metadata8"><rdf:RDF><cc:Work
         rdf:about=""><dc:format>image/svg+xml</dc:format><dc:type
           rdf:resource="http://purl.org/dc/dcmitype/StillImage" /></cc:Work></rdf:RDF></metadata><defs
     id="defs6" /><g
     transform="matrix(1.3333333,0,0,-1.3333333,0,414.2)"
     id="g10"><g
       transform="scale(0.1)"
       id="g12"><path
         id="path14"
         style="fill:#050301;fill-opacity:1;fill-rule:nonzero;stroke:none"
         d="M 418.32,372.422 330.461,108.57 242.605,372.422 h -21.296 l 93.32,-280.3126 h 31.66 l 93.32,280.3126 H 418.32" /><path
         id="path16"
         style="fill:#050301;fill-opacity:1;fill-rule:nonzero;stroke:none"
         d="m 1157.09,163.211 c -11.71,-33.129 -43.32,-55.402 -78.69,-55.402 h -6.92 c -35.36,0 -66.98,22.273 -78.675,55.402 -1.692,4.758 -6.797,19.219 -6.797,69.07 0,44.539 3.875,60.649 6.797,68.891 11.695,33.148 43.315,55.41 78.675,55.41 h 6.92 c 35.37,0 66.98,-22.262 78.69,-55.41 1.68,-4.731 6.8,-19.203 6.8,-68.891 0,-33.551 -2.23,-56.152 -6.8,-69.07 m 6.8,209.309 v -40.622 c -19.01,27.582 -50.77,44.922 -85.49,44.922 h -6.92 c -43.92,0 -83.21,-27.691 -97.757,-68.898 -3.703,-10.473 -7.953,-28.524 -7.953,-75.641 0,-47.789 4.543,-66.152 7.953,-75.801 14.547,-41.21 53.837,-68.8902 97.757,-68.8902 h 6.92 c 34.65,0 66.35,17.2692 85.36,44.7502 -0.5,-26.809 -2.69,-45.4416 -6.67,-56.7111 C 1145.38,42.5 1113.77,20.2383 1078.4,20.2383 h -6.92 c -31.29,0 -60.75,14.5508 -76.402,36.2812 H 971.543 C 988.34,22.832 1027.86,0 1071.48,0 h 6.92 c 43.92,0 83.21,27.6797 97.76,68.8906 3.42,9.6485 7.94,28.0078 7.94,75.8084 V 372.52 h -20.21" /><path
         id="path18"
         style="fill:#050301;fill-opacity:1;fill-rule:nonzero;stroke:none"
         d="m 1252.53,301.148 c 11.7,33.141 43.31,55.391 78.68,55.391 h 6.92 c 35.37,0 66.97,-22.25 78.69,-55.391 1.34,-3.839 5.23,-14.839 6.42,-47.238 h -177.15 c 1.02,28.488 4.05,40.5 6.44,47.238 m 170.97,-139.699 -0.49,-1.367 c -10.71,-30.293 -46.4,-52.293 -84.88,-52.293 h -6.92 c -35.37,0 -66.98,22.262 -78.68,55.383 -1.69,4.758 -6.81,19.226 -6.81,69.078 v 1.422 h 198.2 l -0.17,10.289 c -0.64,39.187 -4.79,55.258 -7.87,63.93 -14.54,41.211 -53.84,68.89 -97.75,68.89 h -6.92 c -43.92,0 -83.21,-27.679 -97.76,-68.89 -3.7,-10.469 -7.96,-28.532 -7.96,-75.641 0,-47.789 4.55,-66.16 7.96,-75.801 14.55,-41.211 53.84,-68.8982 97.76,-68.8982 h 6.92 c 47.52,0 90.28,27.0582 103.95,65.8012 l 2.86,8.097 h -21.44" /><path
         id="path20"
         style="fill:#050301;fill-opacity:1;fill-rule:nonzero;stroke:none"
         d="m 475.645,301.148 c 11.699,33.141 43.308,55.391 78.671,55.391 h 6.922 c 35.364,0 66.985,-22.25 78.684,-55.391 1.355,-3.839 5.246,-14.839 6.445,-47.238 H 469.199 c 1.028,28.488 4.043,40.5 6.446,47.238 m 170.964,-139.699 -0.496,-1.367 C 635.41,129.789 599.727,107.789 561.238,107.789 h -6.922 c -35.363,0 -66.972,22.262 -78.671,55.383 -1.692,4.758 -6.805,19.226 -6.805,69.078 v 1.422 h 198.191 l -0.176,10.289 c -0.632,39.187 -4.785,55.258 -7.851,63.93 -14.551,41.211 -53.848,68.89 -97.766,68.89 h -6.922 c -43.918,0 -83.203,-27.679 -97.753,-68.89 -3.704,-10.469 -7.95,-28.532 -7.95,-75.641 0,-47.789 4.539,-66.16 7.95,-75.801 14.55,-41.211 53.835,-68.8982 97.753,-68.8982 h 6.922 c 47.532,0 90.278,27.0582 103.957,65.8012 l 2.864,8.097 h -21.45" /><path
         id="path22"
         style="fill:#050301;fill-opacity:1;fill-rule:nonzero;stroke:none"
         d="m 107.656,253.582 c -51.3083,0 -77.324,16.668 -77.324,49.547 0,22.891 7.4414,53.351 71.926,53.351 h 8.211 c 59.004,0 70.254,-25.492 71.75,-47.378 h 20.242 c -1.914,32.16 -20.293,67.609 -91.992,67.609 h -8.211 c -76.1721,0 -92.1603,-40.02 -92.1603,-73.582 0,-26.078 12.6679,-69.77 97.5583,-69.77 74.766,0 84.844,-32.711 84.844,-64.687 0,-40.352 -26.699,-60.813 -79.375,-60.813 H 99.5898 c -52.6562,0 -79.3554,20.461 -79.3554,60.813 L 0,168.672 C 0,116.41 35.3711,87.6211 99.5898,87.6211 h 13.5352 c 64.23,0 99.602,28.7889 99.602,81.0509 0,57.129 -34.368,84.91 -105.071,84.91" /><path
         id="path24"
         style="fill:#050301;fill-opacity:1;fill-rule:nonzero;stroke:none"
         d="m 915.488,406.801 h -20.246 v 54.019 h 20.246 v -54.019" /><path
         id="path26"
         style="fill:#050301;fill-opacity:1;fill-rule:nonzero;stroke:none"
         d="M 915.488,372.602 H 895.266 V 92.1406 h 20.222 V 372.602" /><path
         id="path28"
         style="fill:#050301;fill-opacity:1;fill-rule:nonzero;stroke:none"
         d="m 2519.97,406.801 h -20.24 v 54.019 h 20.24 v -54.019" /><path
         id="path30"
         style="fill:#050301;fill-opacity:1;fill-rule:nonzero;stroke:none"
         d="m 2519.97,372.602 h -20.22 V 92.1406 h 20.22 V 372.602" /><path
         id="path32"
         style="fill:#050301;fill-opacity:1;fill-rule:nonzero;stroke:none"
         d="m 851.145,373.582 c -8.379,2.137 -17.036,3.238 -25.942,3.238 h -6.91 c -34.68,0 -66.418,-17.328 -85.422,-44.879 v 40.661 H 712.645 V 92.1289 h 20.226 V 237.172 c 0.281,40.816 3.965,56.109 6.77,64.047 11.699,33.133 43.308,55.371 78.652,55.371 h 6.91 c 8.996,0 17.649,-1.481 25.942,-4.16 v 21.152" /><path
         id="path34"
         style="fill:#050301;fill-opacity:1;fill-rule:nonzero;stroke:none"
         d="m 2671.8,356.57 c -35.35,0 -66.95,-22.25 -78.65,-55.379 -2.91,-8.242 -6.8,-24.339 -6.8,-68.859 0,-49.844 5.12,-64.293 6.8,-69.051 11.7,-33.121 43.3,-55.371 78.65,-55.371 h 6.92 c 35.35,0 66.95,22.25 78.67,55.371 4.55,12.918 6.76,35.508 6.76,69.051 0,49.66 -5.1,64.117 -6.76,68.859 -11.72,33.129 -43.32,55.379 -78.67,55.379 z m 6.92,-268.8708 h -6.92 c -43.9,0 -83.16,27.6598 -97.73,68.8398 -3.4,9.641 -7.93,28.012 -7.93,75.793 0,47.09 4.24,65.137 7.95,75.609 14.55,41.188 53.81,68.86 97.71,68.86 h 6.92 c 43.9,0 83.18,-27.672 97.73,-68.86 3.69,-10.472 7.93,-28.519 7.93,-75.609 0,-47.781 -4.53,-66.152 -7.93,-75.793 -14.55,-41.18 -53.83,-68.8398 -97.73,-68.8398" /><path
         id="path36"
         style="fill:#050301;fill-opacity:1;fill-rule:nonzero;stroke:none"
         d="m 2419.42,163.289 c -11.7,-33.109 -43.3,-55.379 -78.65,-55.379 h -6.92 c -35.35,0 -66.95,22.27 -78.65,55.379 -1.68,4.762 -6.8,19.211 -6.8,69.051 0,44.519 3.87,60.629 6.8,68.871 11.7,33.141 43.3,55.379 78.65,55.379 h 6.92 c 35.35,0 66.95,-22.238 78.65,-55.379 1.7,-4.742 6.8,-19.199 6.8,-68.871 0,-33.531 -2.23,-56.129 -6.8,-69.051 m 6.85,-71.1796 h 20.22 V 460.891 h -20.22 V 331.84 c -19,27.609 -50.78,44.98 -85.5,44.98 h -6.92 c -43.9,0 -83.18,-27.679 -97.71,-68.871 -3.71,-10.469 -7.95,-28.519 -7.95,-75.609 0,-47.789 4.51,-66.141 7.95,-75.789 14.53,-41.192 53.81,-68.8518 97.71,-68.8518 h 6.92 c 34.72,0 66.5,17.3598 85.5,44.9728 V 92.1094" /><path
         id="path38"
         style="fill:#050301;fill-opacity:1;fill-rule:nonzero;stroke:none"
         d="m 2166.65,232.672 h -0.04 c 0,-33.57 -2.23,-56.184 -6.8,-69.121 -11.7,-33.141 -43.34,-55.41 -78.71,-55.41 l -7.56,-0.051 c -52.81,0 -79.59,20.512 -79.59,60.98 v 3.078 c 0,32.09 10.31,61.762 85.1,61.762 h 87.6 z m 20.25,64.687 c 0,50.071 -34.55,79.973 -92.4,79.973 h -8.25 c -59.9,0 -95.29,-24.641 -98.28,-67.781 h 20.36 c 3.73,39.008 43.9,47.508 77.92,47.508 h 8.25 c 26.93,0 72.13,-7.758 72.13,-59.75 l 0.02,-43.149 h -87.6 c -71.88,0 -105.35,-26.051 -105.35,-82.012 v -3.078 c 0,-52.39 35.45,-81.2497 99.84,-81.2497 l 8.16,0.0508 c 34.54,0.1992 66.08,17.5389 84.97,45.0199 l 0.01,-40.6918 h 20.26 l -0.04,205.1598" /><path
         id="path40"
         style="fill:#050301;fill-opacity:1;fill-rule:nonzero;stroke:none"
         d="m 1866.72,303.629 c 0,71.109 -69.92,66.922 -91.62,71.109 h 100.94 c 28.96,-0.027 75.35,-19.148 75.35,-71.117 0,-51.961 -36.37,-71.082 -65.33,-71.101 h -47.36 c 0,0 28.02,0.011 28.02,71.109" /><path
         id="path42"
         style="fill:#050301;fill-opacity:1;fill-rule:nonzero;stroke:none"
         d="m 1484.24,92.1992 h 121.04 L 1484.24,218.242 Z" /><path
         id="path44"
         style="fill:#050301;fill-opacity:1;fill-rule:nonzero;stroke:none"
         d="M 1611.8,374.75 1726.88,237.199 V 374.75 Z" /><path
         id="path46"
         style="fill:#050301;fill-opacity:1;fill-rule:nonzero;stroke:none"
         d="M 1833.5,232.559 H 1730.75 L 1848.19,92.1992 h 109.73 L 1833.5,232.559" /><path
         id="path48"
         style="fill:#050301;fill-opacity:1;fill-rule:nonzero;stroke:none"
         d="m 1566.55,303.621 c 0,-53.582 17.24,-66.902 38.73,-71.101 h -60.63 c -28.67,0.031 -64.69,19.152 -64.69,71.109 0,51.973 36.02,71.09 64.69,71.121 h 60.63 c -21.51,-4.199 -38.73,-17.539 -38.73,-71.129" /><path
         id="path50"
         style="fill:#050301;fill-opacity:1;fill-rule:nonzero;stroke:none"
         d="m 1650.49,162.34 c 0,52.898 -17.42,66.039 -39.12,70.18 h 61.23 c 28.97,-0.032 65.33,-18.899 65.33,-70.188 0,-51.281 -36.36,-70.1406 -65.33,-70.1836 h -61.23 c 21.7,4.1407 39.12,17.3006 39.12,70.1916" /><path
         id="path52"
         style="fill:#a52d9c;fill-opacity:1;fill-rule:nonzero;stroke:none"
         d="m 1012.04,2478.47 c 0,-436.33 -240.993,-482.95 -240.993,-482.95 h 259.563 c 31.75,0 655.18,-24.01 655.18,555.43 0,579.41 -486.37,555.41 -518.12,555.41 H 771.047 c 0,0 240.993,-49.53 240.993,-485.88 v -142.01" /><path
         id="path54"
         style="fill:#a52d9c;fill-opacity:1;fill-rule:nonzero;stroke:none"
         d="M 12.1992,3106.36 V 1197.65 H 606.484 V 3106.36 H 12.1992" /><path
         id="path56"
         style="fill:#a52d9c;fill-opacity:1;fill-rule:nonzero;stroke:none"
         d="M 2278.52,3106.36 1390.79,1642.88 h 673.2 l 908.38,1463.48 h -693.85" /><path
         id="path58"
         style="fill:#a52d9c;fill-opacity:1;fill-rule:nonzero;stroke:none"
         d="m 2522.04,2154.74 -315.86,-511.76 v -445.33 h 582.54 v 957.09 h -266.68" /><path
         id="path60"
         style="fill:#a52d9c;fill-opacity:1;fill-rule:nonzero;stroke:none"
         d="M 96.7461,749.82 210.938,860.91 H 181.953 L 29.3867,712.48 V 948.922 H 9.17969 V 580.711 H 29.3867 v 103.578 l 52.7617,51.32 115.6056,-154.898 h 25.215 L 96.7461,749.82" /><path
         id="path62"
         style="fill:#a52d9c;fill-opacity:1;fill-rule:nonzero;stroke:none"
         d="m 384.871,861.879 c -8.367,2.121 -17.019,3.23 -25.918,3.23 h -6.902 c -34.641,0 -66.348,-17.308 -85.313,-44.828 v 40.61 H 246.543 V 580.738 h 20.195 v 144.883 c 0.274,40.77 3.953,56.051 6.758,63.969 11.68,33.09 43.25,55.308 78.555,55.308 h 6.902 c 8.985,0 17.641,-1.476 25.918,-4.16 v 21.141" /><path
         id="path64"
         style="fill:#a52d9c;fill-opacity:1;fill-rule:nonzero;stroke:none"
         d="m 497.793,844.629 c -35.313,0 -66.887,-22.231 -78.563,-55.297 -2.914,-8.254 -6.789,-24.332 -6.789,-68.801 0,-49.793 5.098,-64.222 6.789,-68.972 11.676,-33.079 43.25,-55.297 78.563,-55.297 h 6.902 c 35.293,0 66.875,22.218 78.567,55.297 4.551,12.91 6.765,35.472 6.765,68.972 0,49.61 -5.093,64.051 -6.765,68.801 -11.692,33.066 -43.274,55.297 -78.567,55.297 z m 6.902,-268.57 h -6.902 c -43.855,0 -83.086,27.632 -97.617,68.769 -3.399,9.641 -7.942,27.981 -7.942,75.703 0,47.028 4.243,65.071 7.942,75.528 14.531,41.14 53.762,68.769 97.617,68.769 h 6.902 c 43.852,0 83.078,-27.629 97.61,-68.769 3.691,-10.457 7.929,-28.489 7.929,-75.528 0,-47.722 -4.519,-66.062 -7.929,-75.703 -14.532,-41.137 -53.758,-68.769 -97.61,-68.769" /><path
         id="path66"
         style="fill:#a52d9c;fill-opacity:1;fill-rule:nonzero;stroke:none"
         d="m 848.711,580.738 h 20.195 V 726.98 c 0,47.04 -4.238,65.079 -7.929,75.532 -14.051,39.777 -48.504,62.597 -94.524,62.597 h -6.91 c -34.648,0 -66.359,-17.308 -85.324,-44.859 v 40.641 H 654.016 V 580.738 h 20.203 v 141.5 c 0.078,43.344 3.886,59.211 6.777,67.352 11.68,33.09 43.25,55.308 78.547,55.308 h 6.91 c 37.485,0 64.289,-17.437 75.481,-49.117 1.679,-4.73 6.777,-19.179 6.777,-68.801 V 580.738" /><path
         id="path68"
         style="fill:#a52d9c;fill-opacity:1;fill-rule:nonzero;stroke:none"
         d="m 1019.16,844.582 c -35.312,0 -66.887,-22.23 -78.574,-55.312 -2.91,-8.231 -6.777,-24.329 -6.777,-68.79 0,-49.781 5.097,-64.218 6.777,-68.968 11.687,-33.082 43.262,-55.301 78.574,-55.301 h 6.9 c 35.3,0 66.88,22.219 78.56,55.301 4.56,12.91 6.78,35.476 6.78,68.968 0,49.622 -5.1,64.051 -6.78,68.79 -11.68,33.082 -43.26,55.312 -78.56,55.312 z m 6.9,-268.57 h -6.9 c -43.855,0 -83.086,27.629 -97.617,68.777 -3.398,9.633 -7.938,27.961 -7.938,75.691 0,47.04 4.239,65.071 7.938,75.54 14.531,41.121 53.762,68.769 97.617,68.769 h 6.9 c 43.85,0 83.08,-27.648 97.61,-68.769 3.69,-10.469 7.93,-28.5 7.93,-75.54 0,-47.73 -4.52,-66.058 -7.93,-75.691 -14.53,-41.148 -53.76,-68.777 -97.61,-68.777" /><path
         id="path70"
         style="fill:#a52d9c;fill-opacity:1;fill-rule:nonzero;stroke:none"
         d="m 1462.07,790.07 c 11.68,33.09 43.25,55.301 78.56,55.301 h 6.89 c 35.34,0 66.9,-22.211 78.58,-55.301 1.37,-3.84 5.23,-14.82 6.44,-47.179 h -176.9 c 1.03,28.461 4.05,40.441 6.43,47.179 m 170.71,-139.488 -0.49,-1.363 c -10.68,-30.25 -46.33,-52.207 -84.77,-52.207 h -6.89 c -35.31,0 -66.88,22.218 -78.56,55.308 -1.69,4.739 -6.79,19.18 -6.79,68.95 v 1.429 h 197.89 l -0.18,10.27 c -0.64,39.133 -4.78,55.179 -7.83,63.832 -14.55,41.14 -53.77,68.781 -97.64,68.781 h -6.89 c -43.85,0 -83.08,-27.641 -97.61,-68.781 -3.7,-10.461 -7.94,-28.5 -7.94,-75.531 0,-47.7 4.53,-66.051 7.94,-75.688 14.53,-41.141 53.76,-68.781 97.61,-68.781 h 6.89 c 47.47,0 90.16,27.008 103.81,65.687 l 2.85,8.094 h -21.4" /><path
         id="path72"
         style="fill:#a52d9c;fill-opacity:1;fill-rule:nonzero;stroke:none"
         d="m 1369.94,651.871 c -11.68,-33.082 -43.24,-55.312 -78.55,-55.312 h -6.9 c -35.31,0 -66.87,22.23 -78.56,55.312 -4.57,12.91 -6.78,35.457 -6.78,68.969 0,49.601 5.09,64.039 6.78,68.789 11.69,33.09 43.25,55.301 78.56,55.301 h 6.9 c 35.31,0 66.87,-22.211 78.55,-55.301 2.93,-8.238 6.8,-24.34 6.8,-68.789 0,-49.77 -5.1,-64.219 -6.8,-68.969 m 19.05,144.488 c -14.52,41.129 -53.76,68.782 -97.6,68.782 h -6.9 c -34.7,0 -66.43,-17.352 -85.39,-44.942 v 128.903 h -20.2 V 580.77 h 20.2 v 40.519 c 18.96,-27.598 50.69,-44.93 85.39,-44.93 h 6.9 c 43.84,0 83.08,27.641 97.6,68.782 3.41,9.64 7.95,27.968 7.95,75.699 0,47.019 -4.24,65.058 -7.95,75.519" /><path
         id="path74"
         style="fill:#a52d9c;fill-opacity:1;fill-rule:nonzero;stroke:none"
         d="m 1836.18,861.84 c -8.38,2.129 -17.01,3.23 -25.92,3.23 h -6.9 c -34.64,0 -66.34,-17.3 -85.33,-44.82 v 40.602 h -20.19 V 580.699 h 20.19 v 144.883 c 0.28,40.777 3.97,56.047 6.78,63.977 11.68,33.082 43.24,55.3 78.55,55.3 h 6.9 c 8.98,0 17.64,-1.48 25.92,-4.16 v 21.141" /><path
         id="path76"
         style="fill:#a52d9c;fill-opacity:1;fill-rule:nonzero;stroke:none"
         d="m 2031.43,651.922 c -11.68,-33.082 -43.24,-55.313 -78.55,-55.313 h -6.9 c -35.31,0 -66.89,22.231 -78.57,55.313 -1.68,4.75 -6.78,19.199 -6.78,68.969 0,44.461 3.87,60.558 6.78,68.8 11.68,33.079 43.26,55.289 78.57,55.289 h 6.9 c 35.31,0 66.87,-22.21 78.55,-55.289 1.68,-4.761 6.78,-19.191 6.78,-68.8 0,-33.5 -2.21,-56.063 -6.78,-68.969 m 6.78,208.988 v -40.57 c -18.97,27.551 -50.67,44.859 -85.33,44.859 h -6.9 c -43.87,0 -83.08,-27.66 -97.62,-68.789 -3.71,-10.461 -7.93,-28.488 -7.93,-75.519 0,-47.731 4.54,-66.063 7.93,-75.692 14.54,-41.16 53.75,-68.789 97.62,-68.789 h 6.9 c 34.59,0 66.25,17.238 85.23,44.692 -0.51,-26.782 -2.69,-45.372 -6.68,-56.633 -11.68,-33.071 -43.24,-55.289 -78.55,-55.289 h -6.9 c -31.27,0 -60.66,14.511 -76.29,36.23 h -23.51 c 16.77,-33.648 56.25,-56.441 99.8,-56.441 h 6.9 c 43.84,0 83.08,27.64 97.59,68.769 3.42,9.641 7.93,27.973 7.93,75.703 V 860.91 h -20.19" /></g></g></svg>