<?xml version="1.0" encoding="UTF-8" standalone="no"?>
<svg
   xmlns:dc="http://purl.org/dc/elements/1.1/"
   xmlns:cc="http://creativecommons.org/ns#"
   xmlns:rdf="http://www.w3.org/1999/02/22-rdf-syntax-ns#"
   xmlns:svg="http://www.w3.org/2000/svg"
   xmlns="http://www.w3.org/2000/svg"
   viewBox="0 0 396.37332 414.20001"
   height="414.20001"
   width="396.37332"
   xml:space="preserve"
   id="svg2"
   version="1.1"><metadata
     id="metadata8"><rdf:RDF><cc:Work
         rdf:about=""><dc:format>image/svg+xml</dc:format><dc:type
           rdf:resource="http://purl.org/dc/dcmitype/StillImage" /></cc:Work></rdf:RDF></metadata><defs
     id="defs6" /><g
     transform="matrix(1.3333333,0,0,-1.3333333,0,414.2)"
     id="g10"><g
       transform="scale(0.1)"
       id="g12"><path
         id="path14"
         style="fill:#050301;fill-opacity:1;fill-rule:nonzero;stroke:none"
         d="M 418.777,372.422 330.918,108.57 243.066,372.422 H 221.77 L 315.09,92.1094 h 31.656 l 93.32,280.3126 h -21.289" /><path
         id="path16"
         style="fill:#050301;fill-opacity:1;fill-rule:nonzero;stroke:none"
         d="m 1157.55,163.211 c -11.71,-33.129 -43.32,-55.402 -78.69,-55.402 h -6.92 c -35.36,0 -66.98,22.273 -78.678,55.402 -1.692,4.758 -6.797,19.219 -6.797,69.07 0,44.539 3.879,60.649 6.797,68.891 11.698,33.148 43.318,55.41 78.678,55.41 h 6.92 c 35.37,0 66.98,-22.262 78.69,-55.41 1.68,-4.731 6.8,-19.203 6.8,-68.891 0,-33.551 -2.23,-56.152 -6.8,-69.07 m 6.8,209.309 v -40.622 c -19.01,27.582 -50.78,44.922 -85.49,44.922 h -6.92 c -43.92,0 -83.21,-27.691 -97.76,-68.898 -3.7,-10.473 -7.95,-28.524 -7.95,-75.641 0,-47.789 4.54,-66.152 7.95,-75.801 14.55,-41.21 53.84,-68.8902 97.76,-68.8902 h 6.92 c 34.65,0 66.35,17.2692 85.36,44.7502 -0.5,-26.809 -2.69,-45.4416 -6.67,-56.7111 C 1145.84,42.5 1114.23,20.2383 1078.86,20.2383 h -6.92 c -31.3,0 -60.75,14.5508 -76.405,36.2812 H 972.004 C 988.801,22.832 1028.32,0 1071.94,0 h 6.92 c 43.92,0 83.21,27.6797 97.76,68.8906 3.42,9.6485 7.94,28.0078 7.94,75.8084 V 372.52 h -20.21" /><path
         id="path18"
         style="fill:#050301;fill-opacity:1;fill-rule:nonzero;stroke:none"
         d="m 1252.99,301.148 c 11.7,33.141 43.31,55.391 78.68,55.391 h 6.91 c 35.38,0 66.98,-22.25 78.7,-55.391 1.34,-3.839 5.23,-14.839 6.42,-47.238 h -177.15 c 1.02,28.488 4.05,40.5 6.44,47.238 m 170.97,-139.699 -0.49,-1.367 c -10.71,-30.293 -46.4,-52.293 -84.89,-52.293 h -6.91 c -35.37,0 -66.98,22.262 -78.68,55.383 -1.69,4.758 -6.81,19.226 -6.81,69.078 v 1.422 h 198.2 l -0.17,10.289 c -0.65,39.187 -4.8,55.258 -7.87,63.93 -14.54,41.211 -53.84,68.89 -97.76,68.89 h -6.91 c -43.93,0 -83.21,-27.679 -97.76,-68.89 -3.7,-10.469 -7.96,-28.532 -7.96,-75.641 0,-47.789 4.55,-66.16 7.96,-75.801 14.55,-41.211 53.83,-68.8982 97.76,-68.8982 h 6.91 c 47.53,0 90.29,27.0582 103.96,65.8012 l 2.86,8.097 h -21.44" /><path
         id="path20"
         style="fill:#050301;fill-opacity:1;fill-rule:nonzero;stroke:none"
         d="m 476.105,301.148 c 11.7,33.141 43.309,55.391 78.668,55.391 h 6.926 c 35.364,0 66.985,-22.25 78.684,-55.391 1.355,-3.839 5.242,-14.839 6.441,-47.238 H 469.656 c 1.028,28.488 4.043,40.5 6.449,47.238 m 170.965,-139.699 -0.5,-1.367 c -10.703,-30.293 -46.382,-52.293 -84.871,-52.293 h -6.926 c -35.359,0 -66.968,22.262 -78.668,55.383 -1.691,4.758 -6.808,19.226 -6.808,69.078 v 1.422 h 198.191 l -0.175,10.289 c -0.633,39.187 -4.786,55.258 -7.848,63.93 -14.555,41.211 -53.852,68.89 -97.766,68.89 h -6.926 c -43.914,0 -83.203,-27.679 -97.753,-68.89 -3.7,-10.469 -7.95,-28.532 -7.95,-75.641 0,-47.789 4.543,-66.16 7.95,-75.801 14.55,-41.211 53.839,-68.8982 97.753,-68.8982 h 6.926 c 47.531,0 90.274,27.0582 103.953,65.8012 l 2.864,8.097 H 647.07" /><path
         id="path22"
         style="fill:#050301;fill-opacity:1;fill-rule:nonzero;stroke:none"
         d="m 108.113,253.582 c -51.3083,0 -77.3239,16.668 -77.3239,49.547 0,22.891 7.4414,53.351 71.9259,53.351 h 8.215 c 59.004,0 70.254,-25.492 71.746,-47.378 h 20.246 c -1.914,32.16 -20.293,67.609 -91.992,67.609 h -8.215 c -76.172,0 -92.1603,-40.02 -92.1603,-73.582 0,-26.078 12.668,-69.77 97.5583,-69.77 74.77,0 84.848,-32.711 84.848,-64.687 0,-40.352 -26.699,-60.813 -79.375,-60.813 h -13.535 c -52.6565,0 -79.3557,20.461 -79.3557,60.813 H 0.457031 C 0.457031,116.41 35.832,87.6211 100.051,87.6211 h 13.535 c 64.227,0 99.598,28.7889 99.598,81.0509 0,57.129 -34.368,84.91 -105.071,84.91" /><path
         id="path24"
         style="fill:#050301;fill-opacity:1;fill-rule:nonzero;stroke:none"
         d="m 915.945,406.801 h -20.242 v 54.019 h 20.242 v -54.019" /><path
         id="path26"
         style="fill:#050301;fill-opacity:1;fill-rule:nonzero;stroke:none"
         d="M 915.945,372.602 H 895.723 V 92.1406 h 20.222 V 372.602" /><path
         id="path28"
         style="fill:#050301;fill-opacity:1;fill-rule:nonzero;stroke:none"
         d="m 2520.42,406.801 h -20.23 v 54.019 h 20.23 v -54.019" /><path
         id="path30"
         style="fill:#050301;fill-opacity:1;fill-rule:nonzero;stroke:none"
         d="m 2520.42,372.602 h -20.21 V 92.1406 h 20.21 V 372.602" /><path
         id="path32"
         style="fill:#050301;fill-opacity:1;fill-rule:nonzero;stroke:none"
         d="m 851.602,373.582 c -8.379,2.137 -17.032,3.238 -25.938,3.238 h -6.914 c -34.68,0 -66.414,-17.328 -85.422,-44.879 v 40.661 H 713.105 V 92.1289 h 20.223 V 237.172 c 0.285,40.816 3.969,56.109 6.77,64.047 11.699,33.133 43.308,55.371 78.652,55.371 h 6.914 c 8.992,0 17.649,-1.481 25.938,-4.16 v 21.152" /><path
         id="path34"
         style="fill:#050301;fill-opacity:1;fill-rule:nonzero;stroke:none"
         d="m 2672.26,356.57 c -35.35,0 -66.95,-22.25 -78.65,-55.379 -2.91,-8.242 -6.8,-24.339 -6.8,-68.859 0,-49.844 5.12,-64.293 6.8,-69.051 11.7,-33.121 43.3,-55.371 78.65,-55.371 h 6.91 c 35.36,0 66.96,22.25 78.68,55.371 4.55,12.918 6.75,35.508 6.75,69.051 0,49.66 -5.09,64.117 -6.75,68.859 -11.72,33.129 -43.32,55.379 -78.68,55.379 z m 6.91,-268.8708 h -6.91 c -43.91,0 -83.16,27.6598 -97.73,68.8398 -3.4,9.641 -7.93,28.012 -7.93,75.793 0,47.09 4.23,65.137 7.95,75.609 14.55,41.188 53.8,68.86 97.71,68.86 h 6.91 c 43.91,0 83.19,-27.672 97.74,-68.86 3.69,-10.472 7.93,-28.519 7.93,-75.609 0,-47.781 -4.53,-66.152 -7.93,-75.793 -14.55,-41.18 -53.83,-68.8398 -97.74,-68.8398" /><path
         id="path36"
         style="fill:#050301;fill-opacity:1;fill-rule:nonzero;stroke:none"
         d="m 2419.88,163.289 c -11.7,-33.109 -43.3,-55.379 -78.65,-55.379 h -6.92 c -35.35,0 -66.95,22.27 -78.65,55.379 -1.68,4.762 -6.8,19.211 -6.8,69.051 0,44.519 3.87,60.629 6.8,68.871 11.7,33.141 43.3,55.379 78.65,55.379 h 6.92 c 35.35,0 66.95,-22.238 78.65,-55.379 1.7,-4.742 6.79,-19.199 6.79,-68.871 0,-33.531 -2.22,-56.129 -6.79,-69.051 m 6.85,-71.1796 h 20.22 V 460.891 h -20.22 V 331.84 c -19,27.609 -50.78,44.98 -85.5,44.98 h -6.92 c -43.9,0 -83.18,-27.679 -97.71,-68.871 -3.71,-10.469 -7.95,-28.519 -7.95,-75.609 0,-47.789 4.51,-66.141 7.95,-75.789 14.53,-41.192 53.81,-68.8518 97.71,-68.8518 h 6.92 c 34.72,0 66.5,17.3598 85.5,44.9728 V 92.1094" /><path
         id="path38"
         style="fill:#050301;fill-opacity:1;fill-rule:nonzero;stroke:none"
         d="m 2167.1,232.672 h -0.03 c 0,-33.57 -2.23,-56.184 -6.8,-69.121 -11.7,-33.141 -43.34,-55.41 -78.71,-55.41 L 2074,108.09 c -52.81,0 -79.59,20.512 -79.59,60.98 v 3.078 c 0,32.09 10.31,61.762 85.1,61.762 h 87.59 z m 20.26,64.687 c 0,50.071 -34.55,79.973 -92.4,79.973 h -8.25 c -59.9,0 -95.29,-24.641 -98.28,-67.781 h 20.35 c 3.73,39.008 43.91,47.508 77.93,47.508 h 8.25 c 26.93,0 72.12,-7.758 72.12,-59.75 l 0.02,-43.149 h -87.59 c -71.88,0 -105.35,-26.051 -105.35,-82.012 v -3.078 c 0,-52.39 35.44,-81.2497 99.84,-81.2497 l 8.16,0.0508 c 34.53,0.1992 66.08,17.5389 84.96,45.0199 l 0.02,-40.6918 h 20.26 l -0.04,205.1598" /><path
         id="path40"
         style="fill:#050301;fill-opacity:1;fill-rule:nonzero;stroke:none"
         d="m 1867.18,303.629 c 0,71.109 -69.92,66.922 -91.62,71.109 h 100.94 c 28.96,-0.027 75.35,-19.148 75.35,-71.117 0,-51.961 -36.37,-71.082 -65.33,-71.101 h -47.36 c 0,0 28.02,0.011 28.02,71.109" /><path
         id="path42"
         style="fill:#050301;fill-opacity:1;fill-rule:nonzero;stroke:none"
         d="m 1484.7,92.1992 h 121.04 L 1484.7,218.242 Z" /><path
         id="path44"
         style="fill:#050301;fill-opacity:1;fill-rule:nonzero;stroke:none"
         d="M 1612.26,374.75 1727.34,237.199 V 374.75 Z" /><path
         id="path46"
         style="fill:#050301;fill-opacity:1;fill-rule:nonzero;stroke:none"
         d="M 1833.96,232.559 H 1731.21 L 1848.65,92.1992 h 109.72 L 1833.96,232.559" /><path
         id="path48"
         style="fill:#050301;fill-opacity:1;fill-rule:nonzero;stroke:none"
         d="m 1567.01,303.621 c 0,-53.582 17.24,-66.902 38.73,-71.101 h -60.63 c -28.67,0.031 -64.69,19.152 -64.69,71.109 0,51.973 36.02,71.09 64.69,71.121 h 60.63 c -21.51,-4.199 -38.73,-17.539 -38.73,-71.129" /><path
         id="path50"
         style="fill:#050301;fill-opacity:1;fill-rule:nonzero;stroke:none"
         d="m 1650.95,162.34 c 0,52.898 -17.42,66.039 -39.12,70.18 h 61.23 c 28.97,-0.032 65.33,-18.899 65.33,-70.188 0,-51.281 -36.36,-70.1406 -65.33,-70.1836 h -61.23 c 21.7,4.1407 39.12,17.3006 39.12,70.1916" /><path
         id="path52"
         style="fill:#a52d9c;fill-opacity:1;fill-rule:nonzero;stroke:none"
         d="m 1012.5,2478.47 c 0,-436.33 -240.996,-482.95 -240.996,-482.95 h 259.556 c 31.76,0 655.19,-24.01 655.19,555.43 0,579.41 -486.37,555.41 -518.12,555.41 H 771.504 c 0,0 240.996,-49.53 240.996,-485.88 v -142.01" /><path
         id="path54"
         style="fill:#a52d9c;fill-opacity:1;fill-rule:nonzero;stroke:none"
         d="M 12.6563,3106.36 V 1197.65 H 606.941 V 3106.36 H 12.6563" /><path
         id="path56"
         style="fill:#a52d9c;fill-opacity:1;fill-rule:nonzero;stroke:none"
         d="M 2278.98,3106.36 1391.25,1642.88 h 673.2 l 908.38,1463.48 h -693.85" /><path
         id="path58"
         style="fill:#a52d9c;fill-opacity:1;fill-rule:nonzero;stroke:none"
         d="m 2522.5,2154.74 -315.86,-511.76 v -445.33 h 582.53 v 957.09 H 2522.5" /><path
         id="path60"
         style="fill:#a52d9c;fill-opacity:1;fill-rule:nonzero;stroke:none"
         d="m 107.488,741.82 c -51.2185,0 -77.195,16.649 -77.195,49.461 0,22.867 7.4297,53.258 71.809,53.258 h 8.203 c 58.914,0 70.156,-25.449 71.629,-47.289 h 20.222 c -1.914,32.121 -20.261,67.512 -91.851,67.512 h -8.203 c -76.059,0 -92.0122,-39.961 -92.0122,-73.481 0,-26.031 12.6524,-69.66 97.3982,-69.66 74.653,0 84.719,-32.652 84.719,-64.59 0,-40.293 -26.66,-60.722 -79.246,-60.722 H 99.4453 c -52.582,0 -79.2383,20.429 -79.2383,60.722 L 0,657.031 C 0,604.84 35.3242,576.109 99.4453,576.109 h 13.5157 c 64.129,0 99.441,28.731 99.441,80.922 0,57.051 -34.304,84.789 -104.914,84.789" /><path
         id="path62"
         style="fill:#a52d9c;fill-opacity:1;fill-rule:nonzero;stroke:none"
         d="m 209.465,488.988 h -16.184 v 20.211 h 16.184 c 42.437,0 66.797,26.563 66.797,72.891 v 278.969 h 20.191 V 582.09 c 0,-57.418 -33.328,-93.102 -86.988,-93.102" /><path
         id="path64"
         style="fill:#a52d9c;fill-opacity:1;fill-rule:nonzero;stroke:none"
         d="m 296.453,924.27 v -29.032 h -20.191 v 53.922 h 20.191 v -24.89" /><path
         id="path66"
         style="fill:#a52d9c;fill-opacity:1;fill-rule:nonzero;stroke:none"
         d="m 551.746,580.512 h 20.188 v 280.16 H 551.746 V 715.648 c -0.215,-30.726 -2.422,-51.777 -6.734,-64.039 -11.692,-33.078 -43.266,-55.3 -78.574,-55.3 h -6.918 c -35.301,0 -66.875,22.222 -78.551,55.3 -1.684,4.75 -6.789,19.172 -6.789,68.961 V 860.59 H 353.984 V 720.57 c 0,-47.738 4.532,-66.07 7.942,-75.691 14.527,-41.141 53.75,-68.777 97.594,-68.777 h 6.918 c 34.625,0 66.328,17.277 85.308,44.796 v -40.386" /><path
         id="path68"
         style="fill:#a52d9c;fill-opacity:1;fill-rule:nonzero;stroke:none"
         d="m 819.855,723.949 v -143.16 h 20.204 v 143.16 c 0,47.039 -4.246,65.051 -7.93,75.52 -14.531,41.14 -49.863,65.691 -94.524,65.691 h -6.902 c -34.64,0 -66.34,-17.289 -85.312,-44.808 v 128.777 h -20.196 v -368.34 h 20.196 v 147.293 c 0.402,38.988 4.004,53.797 6.75,61.566 11.675,33.082 43.257,55.301 78.562,55.301 h 6.902 c 35.715,0 63.918,-19.519 75.469,-52.199 1.672,-4.762 6.781,-19.191 6.781,-68.801" /><path
         id="path70"
         style="fill:#a52d9c;fill-opacity:1;fill-rule:nonzero;stroke:none"
         d="m 974.949,894.719 h -20.191 v 53.929 h 20.191 v -53.929" /><path
         id="path72"
         style="fill:#a52d9c;fill-opacity:1;fill-rule:nonzero;stroke:none"
         d="m 1035.97,894.719 c 0,0.011 -10.44,0.011 -10.44,0.011 0,0 -9.77,0 -9.77,-0.011 v 53.929 h 20.21 v -53.929" /><path
         id="path74"
         style="fill:#a52d9c;fill-opacity:1;fill-rule:nonzero;stroke:none"
         d="m 1072.95,720.539 h -0.04 c 0,-33.488 -2.23,-56.019 -6.79,-68.918 -11.68,-33.043 -43.2,-55.25 -78.464,-55.25 l -7.551,-0.051 c -52.656,0 -79.343,20.461 -79.343,60.821 v 3.058 c 0,31.981 10.273,61.571 84.824,61.571 h 87.364 z m 20.17,64.5 c 0,49.922 -34.43,79.731 -92.12,79.731 h -8.195 c -59.746,0 -95.032,-24.559 -98,-67.59 h 20.285 c 3.738,38.898 43.765,47.379 77.715,47.379 H 1001 c 26.84,0 71.94,-7.727 71.94,-59.59 l 0.01,-43 h -87.364 c -71.648,0 -105.039,-25.969 -105.039,-81.77 v -3.058 c 0,-52.262 35.359,-81.032 99.558,-81.032 l 8.149,0.071 c 34.426,0.191 65.866,17.468 84.716,44.879 l 0.01,-40.579 h 20.2 l -0.06,204.559" /><path
         id="path76"
         style="fill:#a52d9c;fill-opacity:1;fill-rule:nonzero;stroke:none"
         d="m 1285.3,861.859 c -8.37,2.129 -17.01,3.223 -25.92,3.223 h -6.89 c -34.65,0 -66.36,-17.301 -85.33,-44.82 v 40.609 h -20.2 V 580.719 h 20.2 v 144.883 c 0.28,40.769 3.96,56.039 6.77,63.98 11.69,33.078 43.25,55.297 78.56,55.297 h 6.89 c 8.99,0 17.64,-1.481 25.92,-4.16 v 21.14" /><path
         id="path78"
         style="fill:#a52d9c;fill-opacity:1;fill-rule:nonzero;stroke:none"
         d="m 1485.33,720.48 h -0.04 c 0,-33.492 -2.22,-56.031 -6.79,-68.921 -11.65,-33.039 -43.2,-55.25 -78.47,-55.25 l -7.54,-0.047 c -52.66,0 -79.36,20.457 -79.36,60.808 v 3.078 c 0,31.973 10.28,61.563 84.84,61.563 h 87.36 z m 20.15,64.5 c 0,49.918 -34.42,79.731 -92.09,79.731 h -8.21 c -59.76,0 -95.03,-24.57 -98,-67.582 h 20.28 c 3.73,38.891 43.77,47.371 77.72,47.371 h 8.21 c 26.85,0 71.92,-7.719 71.92,-59.578 V 741.91 h -87.34 c -71.65,0 -105.03,-25.969 -105.03,-81.762 v -3.078 c 0,-52.242 35.35,-81.011 99.55,-81.011 l 8.13,0.05 c 34.43,0.2 65.87,17.481 84.73,44.891 v -40.59 h 20.21 l -0.08,204.57" /><path
         id="path80"
         style="fill:#a52d9c;fill-opacity:1;fill-rule:nonzero;stroke:none"
         d="m 1745.21,651.809 c -11.68,-33.09 -43.26,-55.309 -78.55,-55.309 h -6.92 c -35.31,0 -66.87,22.219 -78.55,55.309 -1.68,4.73 -6.8,19.191 -6.8,68.953 0,44.468 3.89,60.558 6.8,68.797 11.68,33.089 43.24,55.3 78.55,55.3 h 6.92 c 35.29,0 66.87,-22.211 78.55,-55.3 1.68,-4.75 6.78,-19.18 6.78,-68.797 0,-33.492 -2.21,-56.051 -6.78,-68.953 m 6.84,-71.11 h 20.21 v 368.34 h -20.21 v -128.91 c -18.97,27.601 -50.71,44.941 -85.39,44.941 h -6.92 c -43.85,0 -83.07,-27.64 -97.6,-68.781 -3.71,-10.457 -7.95,-28.488 -7.95,-75.527 0,-47.711 4.54,-66.051 7.95,-75.692 14.53,-41.129 53.75,-68.781 97.6,-68.781 h 6.92 c 34.68,0 66.42,17.34 85.39,44.93 v -40.52" /></g></g></svg>