<?xml version="1.0" encoding="UTF-8" standalone="no"?>
<svg
   xmlns:dc="http://purl.org/dc/elements/1.1/"
   xmlns:cc="http://creativecommons.org/ns#"
   xmlns:rdf="http://www.w3.org/1999/02/22-rdf-syntax-ns#"
   xmlns:svg="http://www.w3.org/2000/svg"
   xmlns="http://www.w3.org/2000/svg"
   viewBox="0 0 396.37332 414.20001"
   height="414.20001"
   width="396.37332"
   xml:space="preserve"
   id="svg2"
   version="1.1"><metadata
     id="metadata8"><rdf:RDF><cc:Work
         rdf:about=""><dc:format>image/svg+xml</dc:format><dc:type
           rdf:resource="http://purl.org/dc/dcmitype/StillImage" /></cc:Work></rdf:RDF></metadata><defs
     id="defs6" /><g
     transform="matrix(1.3333333,0,0,-1.3333333,0,414.2)"
     id="g10"><g
       transform="scale(0.1)"
       id="g12"><path
         id="path14"
         style="fill:#050301;fill-opacity:1;fill-rule:nonzero;stroke:none"
         d="M 418.789,372.422 330.93,108.57 243.074,372.422 H 221.777 L 315.098,92.1094 h 31.66 l 93.32,280.3126 h -21.289" /><path
         id="path16"
         style="fill:#050301;fill-opacity:1;fill-rule:nonzero;stroke:none"
         d="m 1157.56,163.211 c -11.71,-33.129 -43.32,-55.402 -78.69,-55.402 h -6.92 c -35.36,0 -66.98,22.273 -78.68,55.402 -1.688,4.758 -6.793,19.219 -6.793,69.07 0,44.539 3.875,60.649 6.793,68.891 11.7,33.148 43.32,55.41 78.68,55.41 h 6.92 c 35.37,0 66.98,-22.262 78.69,-55.41 1.68,-4.731 6.8,-19.203 6.8,-68.891 0,-33.551 -2.23,-56.152 -6.8,-69.07 m 6.8,209.309 v -40.622 c -19.01,27.582 -50.78,44.922 -85.49,44.922 h -6.92 c -43.92,0 -83.212,-27.691 -97.762,-68.898 -3.7,-10.473 -7.95,-28.524 -7.95,-75.641 0,-47.789 4.543,-66.152 7.95,-75.801 14.55,-41.21 53.842,-68.8902 97.762,-68.8902 h 6.92 c 34.65,0 66.34,17.2692 85.36,44.7502 -0.5,-26.809 -2.69,-45.4416 -6.67,-56.7111 C 1145.85,42.5 1114.24,20.2383 1078.87,20.2383 h -6.92 c -31.3,0 -60.75,14.5508 -76.403,36.2812 H 972.012 C 988.809,22.832 1028.33,0 1071.95,0 h 6.92 c 43.92,0 83.21,27.6797 97.76,68.8906 3.42,9.6485 7.94,28.0078 7.94,75.8084 V 372.52 h -20.21" /><path
         id="path18"
         style="fill:#050301;fill-opacity:1;fill-rule:nonzero;stroke:none"
         d="m 1253,301.148 c 11.7,33.141 43.31,55.391 78.68,55.391 h 6.91 c 35.37,0 66.98,-22.25 78.7,-55.391 1.34,-3.839 5.23,-14.839 6.42,-47.238 h -177.15 c 1.02,28.488 4.05,40.5 6.44,47.238 m 170.96,-139.699 -0.48,-1.367 c -10.71,-30.293 -46.4,-52.293 -84.89,-52.293 h -6.91 c -35.37,0 -66.98,22.262 -78.68,55.383 -1.69,4.758 -6.81,19.226 -6.81,69.078 v 1.422 h 198.19 l -0.16,10.289 c -0.65,39.187 -4.8,55.258 -7.87,63.93 -14.54,41.211 -53.84,68.89 -97.76,68.89 h -6.91 c -43.93,0 -83.21,-27.679 -97.76,-68.89 -3.71,-10.469 -7.96,-28.532 -7.96,-75.641 0,-47.789 4.55,-66.16 7.96,-75.801 14.55,-41.211 53.83,-68.8982 97.76,-68.8982 h 6.91 c 47.53,0 90.29,27.0582 103.96,65.8012 l 2.86,8.097 h -21.45" /><path
         id="path20"
         style="fill:#050301;fill-opacity:1;fill-rule:nonzero;stroke:none"
         d="m 476.113,301.148 c 11.7,33.141 43.313,55.391 78.672,55.391 h 6.926 c 35.359,0 66.98,-22.25 78.68,-55.391 1.355,-3.839 5.246,-14.839 6.445,-47.238 H 469.668 c 1.023,28.488 4.043,40.5 6.445,47.238 m 170.965,-139.699 -0.496,-1.367 c -10.703,-30.293 -46.387,-52.293 -84.871,-52.293 h -6.926 c -35.359,0 -66.972,22.262 -78.672,55.383 -1.687,4.758 -6.804,19.226 -6.804,69.078 v 1.422 H 667.5 l -0.176,10.289 c -0.636,39.187 -4.785,55.258 -7.851,63.93 -14.551,41.211 -53.848,68.89 -97.762,68.89 h -6.926 c -43.918,0 -83.203,-27.679 -97.754,-68.89 -3.703,-10.469 -7.949,-28.532 -7.949,-75.641 0,-47.789 4.539,-66.16 7.949,-75.801 14.551,-41.211 53.836,-68.8982 97.754,-68.8982 h 6.926 c 47.527,0 90.269,27.0582 103.953,65.8012 l 2.859,8.097 h -21.445" /><path
         id="path22"
         style="fill:#050301;fill-opacity:1;fill-rule:nonzero;stroke:none"
         d="m 108.125,253.582 c -51.3086,0 -77.3242,16.668 -77.3242,49.547 0,22.891 7.4414,53.351 71.9262,53.351 h 8.211 c 59.003,0 70.253,-25.492 71.75,-47.378 h 20.242 c -1.914,32.16 -20.293,67.609 -91.992,67.609 h -8.211 c -76.1762,0 -92.1606,-40.02 -92.1606,-73.582 0,-26.078 12.6641,-69.77 97.5586,-69.77 74.766,0 84.844,-32.711 84.844,-64.687 0,-40.352 -26.699,-60.813 -79.375,-60.813 h -13.535 c -52.6567,0 -79.3559,20.461 -79.3559,60.813 H 0.46875 c 0,-52.262 35.37105,-81.0509 99.59025,-81.0509 h 13.535 c 64.226,0 99.597,28.7889 99.597,81.0509 0,57.129 -34.363,84.91 -105.066,84.91" /><path
         id="path24"
         style="fill:#050301;fill-opacity:1;fill-rule:nonzero;stroke:none"
         d="m 915.957,406.801 h -20.242 v 54.019 h 20.242 v -54.019" /><path
         id="path26"
         style="fill:#050301;fill-opacity:1;fill-rule:nonzero;stroke:none"
         d="M 915.957,372.602 H 895.73 V 92.1406 h 20.227 V 372.602" /><path
         id="path28"
         style="fill:#050301;fill-opacity:1;fill-rule:nonzero;stroke:none"
         d="m 2520.43,406.801 h -20.23 v 54.019 h 20.23 v -54.019" /><path
         id="path30"
         style="fill:#050301;fill-opacity:1;fill-rule:nonzero;stroke:none"
         d="m 2520.43,372.602 h -20.21 V 92.1406 h 20.21 V 372.602" /><path
         id="path32"
         style="fill:#050301;fill-opacity:1;fill-rule:nonzero;stroke:none"
         d="m 851.609,373.582 c -8.379,2.137 -17.031,3.238 -25.933,3.238 h -6.914 c -34.68,0 -66.418,-17.328 -85.422,-44.879 v 40.661 H 713.113 V 92.1289 H 733.34 V 237.172 c 0.281,40.816 3.965,56.109 6.765,64.047 11.704,33.133 43.313,55.371 78.657,55.371 h 6.914 c 8.992,0 17.644,-1.481 25.933,-4.16 v 21.152" /><path
         id="path34"
         style="fill:#050301;fill-opacity:1;fill-rule:nonzero;stroke:none"
         d="m 2672.27,356.57 c -35.35,0 -66.95,-22.25 -78.65,-55.379 -2.91,-8.242 -6.8,-24.339 -6.8,-68.859 0,-49.844 5.12,-64.293 6.8,-69.051 11.7,-33.121 43.3,-55.371 78.65,-55.371 h 6.91 c 35.36,0 66.96,22.25 78.68,55.371 4.55,12.918 6.75,35.508 6.75,69.051 0,49.66 -5.09,64.117 -6.75,68.859 -11.72,33.129 -43.32,55.379 -78.68,55.379 z m 6.91,-268.8708 h -6.91 c -43.91,0 -83.16,27.6598 -97.73,68.8398 -3.4,9.641 -7.93,28.012 -7.93,75.793 0,47.09 4.23,65.137 7.95,75.609 14.55,41.188 53.8,68.86 97.71,68.86 h 6.91 c 43.91,0 83.19,-27.672 97.74,-68.86 3.69,-10.472 7.93,-28.519 7.93,-75.609 0,-47.781 -4.53,-66.152 -7.93,-75.793 -14.55,-41.18 -53.83,-68.8398 -97.74,-68.8398" /><path
         id="path36"
         style="fill:#050301;fill-opacity:1;fill-rule:nonzero;stroke:none"
         d="m 2419.89,163.289 c -11.7,-33.109 -43.3,-55.379 -78.65,-55.379 h -6.92 c -35.35,0 -66.95,22.27 -78.65,55.379 -1.68,4.762 -6.8,19.211 -6.8,69.051 0,44.519 3.87,60.629 6.8,68.871 11.7,33.141 43.3,55.379 78.65,55.379 h 6.92 c 35.35,0 66.95,-22.238 78.65,-55.379 1.7,-4.742 6.79,-19.199 6.79,-68.871 0,-33.531 -2.22,-56.129 -6.79,-69.051 m 6.85,-71.1796 h 20.22 V 460.891 h -20.22 V 331.84 c -19,27.609 -50.78,44.98 -85.5,44.98 h -6.92 c -43.9,0 -83.18,-27.679 -97.71,-68.871 -3.71,-10.469 -7.95,-28.519 -7.95,-75.609 0,-47.789 4.51,-66.141 7.95,-75.789 14.53,-41.192 53.81,-68.8518 97.71,-68.8518 h 6.92 c 34.72,0 66.5,17.3598 85.5,44.9728 V 92.1094" /><path
         id="path38"
         style="fill:#050301;fill-opacity:1;fill-rule:nonzero;stroke:none"
         d="m 2167.11,232.672 h -0.03 c 0,-33.57 -2.23,-56.184 -6.8,-69.121 -11.7,-33.141 -43.34,-55.41 -78.71,-55.41 l -7.56,-0.051 c -52.81,0 -79.59,20.512 -79.59,60.98 v 3.078 c 0,32.09 10.31,61.762 85.1,61.762 h 87.59 z m 20.26,64.687 c 0,50.071 -34.55,79.973 -92.4,79.973 h -8.25 c -59.9,0 -95.29,-24.641 -98.28,-67.781 h 20.35 c 3.73,39.008 43.91,47.508 77.93,47.508 h 8.25 c 26.93,0 72.12,-7.758 72.12,-59.75 l 0.02,-43.149 h -87.59 c -71.88,0 -105.35,-26.051 -105.35,-82.012 v -3.078 c 0,-52.39 35.44,-81.2497 99.84,-81.2497 l 8.16,0.0508 c 34.53,0.1992 66.08,17.5389 84.96,45.0199 l 0.02,-40.6918 h 20.26 l -0.04,205.1598" /><path
         id="path40"
         style="fill:#050301;fill-opacity:1;fill-rule:nonzero;stroke:none"
         d="m 1867.19,303.629 c 0,71.109 -69.92,66.922 -91.62,71.109 h 100.94 c 28.96,-0.027 75.35,-19.148 75.35,-71.117 0,-51.961 -36.37,-71.082 -65.33,-71.101 h -47.36 c 0,0 28.02,0.011 28.02,71.109" /><path
         id="path42"
         style="fill:#050301;fill-opacity:1;fill-rule:nonzero;stroke:none"
         d="m 1484.71,92.1992 h 121.04 L 1484.71,218.242 Z" /><path
         id="path44"
         style="fill:#050301;fill-opacity:1;fill-rule:nonzero;stroke:none"
         d="M 1612.27,374.75 1727.35,237.199 V 374.75 Z" /><path
         id="path46"
         style="fill:#050301;fill-opacity:1;fill-rule:nonzero;stroke:none"
         d="M 1833.97,232.559 H 1731.22 L 1848.66,92.1992 h 109.72 L 1833.97,232.559" /><path
         id="path48"
         style="fill:#050301;fill-opacity:1;fill-rule:nonzero;stroke:none"
         d="m 1567.02,303.621 c 0,-53.582 17.24,-66.902 38.73,-71.101 h -60.63 c -28.67,0.031 -64.69,19.152 -64.69,71.109 0,51.973 36.02,71.09 64.69,71.121 h 60.63 c -21.51,-4.199 -38.73,-17.539 -38.73,-71.129" /><path
         id="path50"
         style="fill:#050301;fill-opacity:1;fill-rule:nonzero;stroke:none"
         d="m 1650.96,162.34 c 0,52.898 -17.42,66.039 -39.12,70.18 h 61.23 c 28.97,-0.032 65.33,-18.899 65.33,-70.188 0,-51.281 -36.36,-70.1406 -65.33,-70.1836 h -61.23 c 21.7,4.1407 39.12,17.3006 39.12,70.1916" /><path
         id="path52"
         style="fill:#a52d9c;fill-opacity:1;fill-rule:nonzero;stroke:none"
         d="m 1012.51,2478.47 c 0,-436.33 -240.994,-482.95 -240.994,-482.95 h 259.554 c 31.76,0 655.18,-24.01 655.18,555.43 0,579.41 -486.36,555.41 -518.12,555.41 H 771.516 c 0,0 240.994,-49.53 240.994,-485.88 v -142.01" /><path
         id="path54"
         style="fill:#a52d9c;fill-opacity:1;fill-rule:nonzero;stroke:none"
         d="M 12.6641,3106.36 V 1197.65 H 606.953 V 3106.36 H 12.6641" /><path
         id="path56"
         style="fill:#a52d9c;fill-opacity:1;fill-rule:nonzero;stroke:none"
         d="M 2278.99,3106.36 1391.26,1642.88 h 673.2 l 908.38,1463.48 h -693.85" /><path
         id="path58"
         style="fill:#a52d9c;fill-opacity:1;fill-rule:nonzero;stroke:none"
         d="m 2522.5,2154.74 -315.85,-511.76 v -445.33 h 582.53 v 957.09 H 2522.5" /><path
         id="path60"
         style="fill:#a52d9c;fill-opacity:1;fill-rule:nonzero;stroke:none"
         d="m 107.488,741.641 c -51.2263,0 -77.2067,16.64 -77.2067,49.449 0,22.879 7.4335,53.269 71.8087,53.269 h 8.215 c 58.914,0 70.144,-25.449 71.621,-47.289 h 20.222 c -1.914,32.11 -20.253,67.5 -91.843,67.5 h -8.215 c -76.047,0 -92.0119,-39.961 -92.0119,-73.48 0,-26.008 12.6563,-69.66 97.4099,-69.66 74.653,0 84.719,-32.641 84.719,-64.578 0,-40.293 -26.672,-60.723 -79.258,-60.723 H 99.4336 c -52.5781,0 -79.2383,20.43 -79.2383,60.723 H 0 C 0,604.66 35.3125,575.941 99.4336,575.941 h 13.5154 c 64.141,0 99.453,28.719 99.453,80.911 0,57.046 -34.316,84.789 -104.914,84.789" /><path
         id="path62"
         style="fill:#a52d9c;fill-opacity:1;fill-rule:nonzero;stroke:none"
         d="m 336.016,749.879 114.199,111.09 H 421.23 L 268.652,712.539 V 948.988 H 248.445 V 580.77 h 20.207 V 684.359 L 321.418,735.68 437.02,580.77 h 25.214 L 336.016,749.879" /><path
         id="path64"
         style="fill:#a52d9c;fill-opacity:1;fill-rule:nonzero;stroke:none"
         d="m 657.512,720.602 h -0.032 c 0,-33.481 -2.214,-56.02 -6.796,-68.93 -11.653,-33.043 -43.196,-55.242 -78.465,-55.242 l -7.539,-0.039 c -52.649,0 -79.348,20.449 -79.348,60.808 v 3.051 c 0,31.98 10.273,61.582 84.836,61.582 h 87.344 z m 20.176,64.5 c 0,49.918 -34.426,79.718 -92.114,79.718 h -8.211 c -59.746,0 -95.019,-24.558 -98,-67.57 h 20.293 c 3.723,38.879 43.762,47.371 77.707,47.371 h 8.211 c 26.86,0 71.926,-7.73 71.926,-59.582 v -43.008 h -87.332 c -71.66,0 -105.039,-25.98 -105.039,-81.781 v -3.051 c 0,-52.258 35.359,-81.027 99.551,-81.027 l 8.133,0.066 c 34.421,0.192 65.878,17.473 84.714,44.871 l 0.012,-40.578 h 20.215 l -0.066,204.571" /><path
         id="path66"
         style="fill:#a52d9c;fill-opacity:1;fill-rule:nonzero;stroke:none"
         d="m 871.73,861.699 c -8.371,2.133 -17.011,3.223 -25.91,3.223 h -6.902 c -34.648,0 -66.359,-17.293 -85.324,-44.82 v 40.609 H 733.398 V 580.57 h 20.196 v 144.871 c 0.273,40.77 3.957,56.059 6.758,63.981 11.679,33.078 43.253,55.308 78.566,55.308 h 6.902 c 8.985,0 17.625,-1.492 25.91,-4.16 v 21.129" /><path
         id="path68"
         style="fill:#a52d9c;fill-opacity:1;fill-rule:nonzero;stroke:none"
         d="m 1068.79,720.59 h -0.03 c 0,-33.481 -2.22,-56.02 -6.8,-68.918 -11.65,-33.043 -43.19,-55.25 -78.464,-55.25 l -7.539,-0.043 c -52.656,0 -79.348,20.461 -79.348,60.812 v 3.059 c 0,31.98 10.266,61.582 84.829,61.582 h 87.352 z m 20.17,64.512 c 0,49.918 -34.42,79.718 -92.105,79.718 h -8.21 c -59.758,0 -95.032,-24.57 -98,-67.57 h 20.293 c 3.718,38.879 43.757,47.359 77.707,47.359 h 8.21 c 26.855,0 71.915,-7.73 71.915,-59.57 l 0.01,-43.019 h -87.342 c -71.653,0 -105.032,-25.969 -105.032,-81.77 v -3.059 c 0,-52.25 35.352,-81.019 99.551,-81.019 l 8.125,0.058 c 34.438,0.2 65.888,17.481 84.728,44.879 l 0.01,-40.578 h 20.2 l -0.06,204.571" /><path
         id="path70"
         style="fill:#a52d9c;fill-opacity:1;fill-rule:nonzero;stroke:none"
         d="m 1335.16,651.871 c -11.69,-33.082 -43.27,-55.312 -78.57,-55.312 h -6.9 c -35.31,0 -66.88,22.23 -78.57,55.312 -4.57,12.91 -6.78,35.457 -6.78,68.969 0,49.601 5.09,64.039 6.78,68.789 11.69,33.09 43.26,55.301 78.57,55.301 h 6.9 c 35.3,0 66.88,-22.211 78.57,-55.301 2.91,-8.238 6.77,-24.34 6.77,-68.789 0,-49.77 -5.08,-64.219 -6.77,-68.969 m 19.04,144.488 c -14.52,41.129 -53.76,68.782 -97.61,68.782 h -6.9 c -34.7,0 -66.44,-17.352 -85.39,-44.942 v 128.903 h -20.21 V 580.77 h 20.21 v 40.519 c 18.95,-27.598 50.69,-44.93 85.39,-44.93 h 6.9 c 43.85,0 83.09,27.641 97.61,68.782 3.41,9.64 7.94,27.968 7.94,75.699 0,47.019 -4.24,65.058 -7.94,75.519" /><path
         id="path72"
         style="fill:#a52d9c;fill-opacity:1;fill-rule:nonzero;stroke:none"
         d="m 1504.67,844.648 c -35.31,0 -66.89,-22.226 -78.57,-55.308 -2.91,-8.25 -6.78,-24.32 -6.78,-68.789 0,-49.781 5.1,-64.219 6.78,-68.969 11.68,-33.082 43.26,-55.301 78.57,-55.301 h 6.9 c 35.29,0 66.89,22.219 78.57,55.301 4.55,12.906 6.76,35.469 6.76,68.969 0,49.609 -5.08,64.051 -6.76,68.789 -11.68,33.082 -43.28,55.308 -78.57,55.308 z m 6.9,-268.57 h -6.9 c -43.86,0 -83.09,27.633 -97.62,68.774 -3.4,9.636 -7.94,27.968 -7.94,75.699 0,47.031 4.25,65.07 7.95,75.527 14.52,41.133 53.75,68.774 97.61,68.774 h 6.9 c 43.86,0 83.08,-27.641 97.61,-68.774 3.7,-10.457 7.93,-28.496 7.93,-75.527 0,-47.731 -4.53,-66.063 -7.93,-75.699 -14.53,-41.141 -53.75,-68.774 -97.61,-68.774" /><path
         id="path74"
         style="fill:#a52d9c;fill-opacity:1;fill-rule:nonzero;stroke:none"
         d="m 1799.85,861.84 c -8.38,2.129 -17.01,3.23 -25.92,3.23 h -6.89 c -34.65,0 -66.35,-17.3 -85.34,-44.82 v 40.602 h -20.19 V 580.699 h 20.19 v 144.883 c 0.28,40.777 3.97,56.047 6.76,63.977 11.7,33.082 43.26,55.3 78.58,55.3 h 6.89 c 8.99,0 17.64,-1.48 25.92,-4.16 v 21.141" /><path
         id="path76"
         style="fill:#a52d9c;fill-opacity:1;fill-rule:nonzero;stroke:none"
         d="m 1997.15,651.922 c -11.7,-33.082 -43.26,-55.313 -78.57,-55.313 h -6.9 c -35.31,0 -66.87,22.231 -78.57,55.313 -1.68,4.75 -6.78,19.199 -6.78,68.969 0,44.461 3.87,60.558 6.78,68.8 11.7,33.079 43.26,55.289 78.57,55.289 h 6.9 c 35.31,0 66.87,-22.21 78.57,-55.289 1.66,-4.761 6.78,-19.191 6.78,-68.8 0,-33.5 -2.23,-56.063 -6.78,-68.969 m 6.78,208.988 v -40.57 c -18.96,27.551 -50.66,44.859 -85.35,44.859 h -6.9 c -43.84,0 -83.08,-27.66 -97.61,-68.789 -3.69,-10.461 -7.93,-28.488 -7.93,-75.519 0,-47.731 4.53,-66.063 7.93,-75.692 14.53,-41.16 53.77,-68.789 97.61,-68.789 h 6.9 c 34.61,0 66.25,17.238 85.23,44.692 -0.48,-26.782 -2.69,-45.372 -6.66,-56.633 -11.7,-33.071 -43.26,-55.289 -78.57,-55.289 h -6.9 c -31.25,0 -60.66,14.511 -76.28,36.23 h -23.52 c 16.78,-33.648 56.25,-56.441 99.8,-56.441 h 6.9 c 43.87,0 83.09,27.64 97.62,68.769 3.41,9.641 7.93,27.973 7.93,75.703 V 860.91 h -20.2" /></g></g></svg>