<?xml version="1.0" encoding="UTF-8" standalone="no"?>
<svg
   xmlns:dc="http://purl.org/dc/elements/1.1/"
   xmlns:cc="http://creativecommons.org/ns#"
   xmlns:rdf="http://www.w3.org/1999/02/22-rdf-syntax-ns#"
   xmlns:svg="http://www.w3.org/2000/svg"
   xmlns="http://www.w3.org/2000/svg"
   viewBox="0 0 396.39999 414.20001"
   height="414.20001"
   width="396.39999"
   xml:space="preserve"
   id="svg2"
   version="1.1"><metadata
     id="metadata8"><rdf:RDF><cc:Work
         rdf:about=""><dc:format>image/svg+xml</dc:format><dc:type
           rdf:resource="http://purl.org/dc/dcmitype/StillImage" /></cc:Work></rdf:RDF></metadata><defs
     id="defs6" /><g
     transform="matrix(1.3333333,0,0,-1.3333333,0,414.2)"
     id="g10"><g
       transform="scale(0.1)"
       id="g12"><path
         id="path14"
         style="fill:#050301;fill-opacity:1;fill-rule:nonzero;stroke:none"
         d="M 418.918,372.422 331.055,108.57 243.203,372.422 H 221.902 L 315.227,92.1094 h 31.66 l 93.316,280.3126 h -21.285" /><path
         id="path16"
         style="fill:#050301;fill-opacity:1;fill-rule:nonzero;stroke:none"
         d="m 1157.69,163.211 c -11.71,-33.129 -43.32,-55.402 -78.7,-55.402 h -6.91 c -35.36,0 -66.98,22.273 -78.682,55.402 -1.687,4.758 -6.796,19.219 -6.796,69.07 0,44.539 3.878,60.649 6.796,68.891 11.702,33.148 43.322,55.41 78.682,55.41 h 6.91 c 35.38,0 66.99,-22.262 78.7,-55.41 1.68,-4.731 6.79,-19.203 6.79,-68.891 0,-33.551 -2.22,-56.152 -6.79,-69.07 m 6.79,209.309 v -40.622 c -19,27.582 -50.77,44.922 -85.49,44.922 h -6.91 c -43.93,0 -83.213,-27.691 -97.764,-68.898 -3.703,-10.473 -7.949,-28.524 -7.949,-75.641 0,-47.789 4.539,-66.152 7.949,-75.801 14.551,-41.21 53.834,-68.8902 97.764,-68.8902 h 6.91 c 34.65,0 66.35,17.2692 85.37,44.7502 -0.5,-26.809 -2.69,-45.4416 -6.67,-56.7111 -11.71,-33.1289 -43.32,-55.3906 -78.7,-55.3906 h -6.91 c -31.3,0 -60.75,14.5508 -76.404,36.2812 H 972.141 C 988.938,22.832 1028.46,0 1072.08,0 h 6.91 c 43.93,0 83.22,27.6797 97.77,68.8906 3.42,9.6485 7.94,28.0078 7.94,75.8084 V 372.52 h -20.22" /><path
         id="path18"
         style="fill:#050301;fill-opacity:1;fill-rule:nonzero;stroke:none"
         d="m 1253.13,301.148 c 11.69,33.141 43.31,55.391 78.68,55.391 h 6.91 c 35.37,0 66.97,-22.25 78.69,-55.391 1.35,-3.839 5.24,-14.839 6.43,-47.238 h -177.15 c 1.02,28.488 4.04,40.5 6.44,47.238 m 170.96,-139.699 -0.49,-1.367 c -10.7,-30.293 -46.39,-52.293 -84.88,-52.293 h -6.91 c -35.37,0 -66.99,22.262 -78.68,55.383 -1.69,4.758 -6.81,19.226 -6.81,69.078 v 1.422 h 198.19 l -0.16,10.289 c -0.65,39.187 -4.8,55.258 -7.88,63.93 -14.54,41.211 -53.83,68.89 -97.75,68.89 h -6.91 c -43.93,0 -83.22,-27.679 -97.77,-68.89 -3.7,-10.469 -7.96,-28.532 -7.96,-75.641 0,-47.789 4.55,-66.16 7.96,-75.801 14.55,-41.211 53.84,-68.8982 97.77,-68.8982 h 6.91 c 47.53,0 90.28,27.0582 103.96,65.8012 l 2.86,8.097 h -21.45" /><path
         id="path20"
         style="fill:#050301;fill-opacity:1;fill-rule:nonzero;stroke:none"
         d="m 476.238,301.148 c 11.7,33.141 43.313,55.391 78.672,55.391 h 6.926 c 35.359,0 66.98,-22.25 78.684,-55.391 1.355,-3.839 5.242,-14.839 6.445,-47.238 H 469.797 c 1.023,28.488 4.043,40.5 6.441,47.238 m 170.969,-139.699 -0.496,-1.367 C 636.008,129.789 600.32,107.789 561.836,107.789 h -6.926 c -35.359,0 -66.972,22.262 -78.672,55.383 -1.687,4.758 -6.804,19.226 -6.804,69.078 v 1.422 h 198.195 l -0.18,10.289 c -0.633,39.187 -4.781,55.258 -7.847,63.93 -14.551,41.211 -53.848,68.89 -97.766,68.89 h -6.926 c -43.914,0 -83.199,-27.679 -97.754,-68.89 -3.699,-10.469 -7.945,-28.532 -7.945,-75.641 0,-47.789 4.539,-66.16 7.945,-75.801 14.555,-41.211 53.84,-68.8982 97.754,-68.8982 h 6.926 c 47.527,0 90.273,27.0582 103.957,65.8012 l 2.859,8.097 h -21.445" /><path
         id="path22"
         style="fill:#050301;fill-opacity:1;fill-rule:nonzero;stroke:none"
         d="m 108.254,253.582 c -51.3087,0 -77.3282,16.668 -77.3282,49.547 0,22.891 7.4414,53.351 71.9262,53.351 h 8.211 c 59.003,0 70.253,-25.492 71.75,-47.378 h 20.246 c -1.914,32.16 -20.293,67.609 -91.996,67.609 h -8.211 c -76.1723,0 -92.1567,-40.02 -92.1567,-73.582 0,-26.078 12.6641,-69.77 97.5587,-69.77 74.766,0 84.844,-32.711 84.844,-64.687 0,-40.352 -26.703,-60.813 -79.375,-60.813 h -13.535 c -52.6567,0 -79.356,20.461 -79.356,60.813 H 0.59375 c 0,-52.262 35.37505,-81.0509 99.59425,-81.0509 h 13.535 c 64.226,0 99.597,28.7889 99.597,81.0509 0,57.129 -34.367,84.91 -105.066,84.91" /><path
         id="path24"
         style="fill:#050301;fill-opacity:1;fill-rule:nonzero;stroke:none"
         d="M 916.086,406.801 H 895.84 v 54.019 h 20.246 v -54.019" /><path
         id="path26"
         style="fill:#050301;fill-opacity:1;fill-rule:nonzero;stroke:none"
         d="M 916.086,372.602 H 895.859 V 92.1406 h 20.227 V 372.602" /><path
         id="path28"
         style="fill:#050301;fill-opacity:1;fill-rule:nonzero;stroke:none"
         d="m 2520.56,406.801 h -20.23 v 54.019 h 20.23 v -54.019" /><path
         id="path30"
         style="fill:#050301;fill-opacity:1;fill-rule:nonzero;stroke:none"
         d="m 2520.56,372.602 h -20.21 V 92.1406 h 20.21 V 372.602" /><path
         id="path32"
         style="fill:#050301;fill-opacity:1;fill-rule:nonzero;stroke:none"
         d="m 851.738,373.582 c -8.379,2.137 -17.031,3.238 -25.937,3.238 h -6.914 c -34.676,0 -66.414,-17.328 -85.418,-44.879 v 40.661 H 713.242 V 92.1289 h 20.227 V 237.172 c 0.281,40.816 3.965,56.109 6.765,64.047 11.7,33.133 43.313,55.371 78.653,55.371 h 6.914 c 8.996,0 17.644,-1.481 25.937,-4.16 v 21.152" /><path
         id="path34"
         style="fill:#050301;fill-opacity:1;fill-rule:nonzero;stroke:none"
         d="m 2672.4,356.57 c -35.35,0 -66.96,-22.25 -78.65,-55.379 -2.92,-8.242 -6.8,-24.339 -6.8,-68.859 0,-49.844 5.12,-64.293 6.8,-69.051 11.69,-33.121 43.3,-55.371 78.65,-55.371 h 6.91 c 35.35,0 66.95,22.25 78.67,55.371 4.55,12.918 6.76,35.508 6.76,69.051 0,49.66 -5.1,64.117 -6.76,68.859 -11.72,33.129 -43.32,55.379 -78.67,55.379 z m 6.91,-268.8708 h -6.91 c -43.91,0 -83.17,27.6598 -97.74,68.8398 -3.4,9.641 -7.93,28.012 -7.93,75.793 0,47.09 4.24,65.137 7.95,75.609 14.55,41.188 53.81,68.86 97.72,68.86 h 6.91 c 43.91,0 83.19,-27.672 97.74,-68.86 3.69,-10.472 7.93,-28.519 7.93,-75.609 0,-47.781 -4.54,-66.152 -7.93,-75.793 -14.55,-41.18 -53.83,-68.8398 -97.74,-68.8398" /><path
         id="path36"
         style="fill:#050301;fill-opacity:1;fill-rule:nonzero;stroke:none"
         d="m 2420.01,163.289 c -11.69,-33.109 -43.3,-55.379 -78.65,-55.379 h -6.91 c -35.35,0 -66.95,22.27 -78.65,55.379 -1.68,4.762 -6.8,19.211 -6.8,69.051 0,44.519 3.87,60.629 6.8,68.871 11.7,33.141 43.3,55.379 78.65,55.379 h 6.91 c 35.35,0 66.96,-22.238 78.65,-55.379 1.7,-4.742 6.8,-19.199 6.8,-68.871 0,-33.531 -2.23,-56.129 -6.8,-69.051 m 6.86,-71.1796 h 20.21 V 460.891 h -20.21 V 331.84 c -19,27.609 -50.78,44.98 -85.51,44.98 h -6.91 c -43.91,0 -83.19,-27.679 -97.72,-68.871 -3.71,-10.469 -7.95,-28.519 -7.95,-75.609 0,-47.789 4.52,-66.141 7.95,-75.789 14.53,-41.192 53.81,-68.8518 97.72,-68.8518 h 6.91 c 34.73,0 66.51,17.3598 85.51,44.9728 V 92.1094" /><path
         id="path38"
         style="fill:#050301;fill-opacity:1;fill-rule:nonzero;stroke:none"
         d="m 2167.24,232.672 h -0.04 c 0,-33.57 -2.22,-56.184 -6.79,-69.121 -11.7,-33.141 -43.34,-55.41 -78.72,-55.41 l -7.55,-0.051 c -52.82,0 -79.59,20.512 -79.59,60.98 v 3.078 c 0,32.09 10.31,61.762 85.09,61.762 h 87.6 z m 20.26,64.687 c 0,50.071 -34.56,79.973 -92.41,79.973 h -8.24 c -59.9,0 -95.29,-24.641 -98.28,-67.781 h 20.35 c 3.73,39.008 43.91,47.508 77.93,47.508 h 8.24 c 26.94,0 72.13,-7.758 72.13,-59.75 l 0.02,-43.149 h -87.6 c -71.87,0 -105.35,-26.051 -105.35,-82.012 v -3.078 c 0,-52.39 35.45,-81.2497 99.85,-81.2497 l 8.16,0.0508 c 34.53,0.1992 66.07,17.5389 84.96,45.0199 l 0.02,-40.6918 h 20.25 l -0.03,205.1598" /><path
         id="path40"
         style="fill:#050301;fill-opacity:1;fill-rule:nonzero;stroke:none"
         d="m 1867.32,303.629 c 0,71.109 -69.92,66.922 -91.62,71.109 h 100.94 c 28.96,-0.027 75.35,-19.148 75.35,-71.117 0,-51.961 -36.37,-71.082 -65.33,-71.101 h -47.37 c 0,0 28.03,0.011 28.03,71.109" /><path
         id="path42"
         style="fill:#050301;fill-opacity:1;fill-rule:nonzero;stroke:none"
         d="m 1484.84,92.1992 h 121.03 L 1484.84,218.242 Z" /><path
         id="path44"
         style="fill:#050301;fill-opacity:1;fill-rule:nonzero;stroke:none"
         d="M 1612.4,374.75 1727.48,237.199 V 374.75 Z" /><path
         id="path46"
         style="fill:#050301;fill-opacity:1;fill-rule:nonzero;stroke:none"
         d="M 1834.1,232.559 H 1731.34 L 1848.78,92.1992 h 109.73 L 1834.1,232.559" /><path
         id="path48"
         style="fill:#050301;fill-opacity:1;fill-rule:nonzero;stroke:none"
         d="m 1567.14,303.621 c 0,-53.582 17.25,-66.902 38.73,-71.101 h -60.62 c -28.67,0.031 -64.69,19.152 -64.69,71.109 0,51.973 36.02,71.09 64.69,71.121 h 60.62 c -21.5,-4.199 -38.73,-17.539 -38.73,-71.129" /><path
         id="path50"
         style="fill:#050301;fill-opacity:1;fill-rule:nonzero;stroke:none"
         d="m 1651.09,162.34 c 0,52.898 -17.42,66.039 -39.12,70.18 h 61.23 c 28.96,-0.032 65.33,-18.899 65.33,-70.188 0,-51.281 -36.37,-70.1406 -65.33,-70.1836 h -61.23 c 21.7,4.1407 39.12,17.3006 39.12,70.1916" /><path
         id="path52"
         style="fill:#a52d9c;fill-opacity:1;fill-rule:nonzero;stroke:none"
         d="m 1012.64,2478.47 c 0,-436.33 -240.999,-482.95 -240.999,-482.95 H 1031.2 c 31.76,0 655.18,-24.01 655.18,555.43 0,579.41 -486.36,555.41 -518.12,555.41 H 771.641 c 0,0 240.999,-49.53 240.999,-485.88 v -142.01" /><path
         id="path54"
         style="fill:#a52d9c;fill-opacity:1;fill-rule:nonzero;stroke:none"
         d="M 12.793,3106.36 V 1197.65 H 607.078 V 3106.36 H 12.793" /><path
         id="path56"
         style="fill:#a52d9c;fill-opacity:1;fill-rule:nonzero;stroke:none"
         d="M 2279.12,3106.36 1391.39,1642.88 h 673.19 l 908.38,1463.48 h -693.84" /><path
         id="path58"
         style="fill:#a52d9c;fill-opacity:1;fill-rule:nonzero;stroke:none"
         d="m 2522.63,2154.74 -315.86,-511.76 v -445.33 h 582.54 v 957.09 h -266.68" /><path
         id="path60"
         style="fill:#a52d9c;fill-opacity:1;fill-rule:nonzero;stroke:none"
         d="m 107.488,741.75 c -51.2263,0 -77.2067,16.648 -77.2067,49.461 0,22.871 7.4335,53.258 71.8087,53.258 h 8.215 c 58.906,0 70.144,-25.449 71.621,-47.289 h 20.222 c -1.906,32.121 -20.261,67.511 -91.843,67.511 h -8.215 c -76.047,0 -92.0119,-39.961 -92.0119,-73.48 0,-26.031 12.6563,-69.672 97.4099,-69.672 74.641,0 84.707,-32.641 84.707,-64.578 0,-40.289 -26.66,-60.723 -79.246,-60.723 H 99.4336 c -52.5781,0 -79.2383,20.434 -79.2383,60.723 H 0 c 0,-52.18 35.3125,-80.922 99.4336,-80.922 h 13.5154 c 64.129,0 99.446,28.742 99.446,80.922 0,57.051 -34.309,84.789 -104.907,84.789" /><path
         id="path62"
         style="fill:#a52d9c;fill-opacity:1;fill-rule:nonzero;stroke:none"
         d="m 347.168,844.52 c -35.313,0 -66.895,-22.211 -78.574,-55.301 -2.903,-8.231 -6.778,-24.328 -6.778,-68.797 0,-49.774 5.118,-64.211 6.778,-68.953 11.679,-33.09 43.261,-55.321 78.574,-55.321 h 6.914 c 35.293,0 66.863,22.231 78.547,55.321 4.566,12.91 6.797,35.461 6.797,68.953 0,49.617 -5.102,64.047 -6.797,68.797 -11.684,33.09 -43.254,55.301 -78.547,55.301 z m 6.914,-268.559 h -6.914 c -43.855,0 -83.074,27.629 -97.629,68.777 -3.387,9.633 -7.93,27.973 -7.93,75.684 0,47.039 4.243,65.066 7.954,75.539 14.531,41.129 53.75,68.769 97.605,68.769 h 6.914 c 43.856,0 83.066,-27.64 97.606,-68.769 3.695,-10.473 7.929,-28.5 7.929,-75.539 0,-47.711 -4.539,-66.051 -7.929,-75.684 -14.54,-41.148 -53.75,-68.777 -97.606,-68.777" /><path
         id="path64"
         style="fill:#a52d9c;fill-opacity:1;fill-rule:nonzero;stroke:none"
         d="m 329.766,894.711 -11.25,-0.012 -8.926,0.012 v 53.91 h 20.176 v -53.91" /><path
         id="path66"
         style="fill:#a52d9c;fill-opacity:1;fill-rule:nonzero;stroke:none"
         d="m 390.77,894.711 -9.391,-0.012 -10.805,0.012 v 53.91 h 20.196 v -53.91" /><path
         id="path68"
         style="fill:#a52d9c;fill-opacity:1;fill-rule:nonzero;stroke:none"
         d="m 637.402,861.898 c -8.359,2.122 -17.011,3.231 -25.91,3.231 h -6.89 c -34.653,0 -66.36,-17.297 -85.332,-44.828 v 40.621 h -20.2 v -280.16 h 20.2 v 144.886 c 0.273,40.762 3.953,56.032 6.765,63.973 11.68,33.078 43.25,55.309 78.567,55.309 h 6.89 c 8.988,0 17.629,-1.481 25.91,-4.168 v 21.136" /><path
         id="path70"
         style="fill:#a52d9c;fill-opacity:1;fill-rule:nonzero;stroke:none"
         d="m 1002.49,580.762 h 20.21 v 146.097 c 0,47.34 -3.81,65.512 -6.68,75.063 -12.05,40.066 -41.926,63.058 -81.989,63.058 h -5.879 c -34.136,0 -64.898,-22.32 -79.929,-56.671 -13.211,36.101 -41.961,56.671 -79.832,56.671 h -5.879 c -28.364,0 -54.414,-15.41 -71.035,-40.308 v 36.25 h -20.215 v -280.16 h 20.215 v 149.519 c 0.449,37.399 3.457,51.93 5.757,59.641 9.868,32.808 36.094,54.848 65.278,54.848 h 5.879 c 30.957,0 53.203,-17.29 62.632,-48.661 1.45,-4.8 5.832,-19.39 5.832,-69.25 V 580.762 h 20.196 v 140.476 c 0.027,44.192 3.347,60.371 5.847,68.684 9.844,32.808 36.086,54.848 65.254,54.848 h 5.879 c 30.957,0 53.215,-17.29 62.641,-48.661 1.441,-4.8 5.818,-19.39 5.818,-69.25 V 580.762" /><path
         id="path72"
         style="fill:#a52d9c;fill-opacity:1;fill-rule:nonzero;stroke:none"
         d="m 1102.08,754.43 v 194.441 h -20.2 V 580.672 h 20.2 V 754.43" /><path
         id="path74"
         style="fill:#a52d9c;fill-opacity:1;fill-rule:nonzero;stroke:none"
         d="m 1342.54,720.309 h -0.02 c 0,-33.469 -2.23,-56.008 -6.81,-68.899 -11.66,-33.051 -43.19,-55.262 -78.45,-55.262 l -7.55,-0.046 c -52.66,0 -79.36,20.457 -79.36,60.82 v 3.058 c 0,31.969 10.28,61.571 84.84,61.571 h 87.35 z m 20.17,64.511 c 0,49.918 -34.43,79.731 -92.11,79.731 h -8.21 c -59.75,0 -95.03,-24.571 -98.01,-67.582 h 20.31 c 3.72,38.89 43.76,47.371 77.7,47.371 h 8.21 c 26.87,0 71.93,-7.738 71.93,-59.57 v -43.02 h -87.34 c -71.66,0 -105.03,-25.969 -105.03,-81.77 v -3.058 c 0,-52.25 35.35,-81.024 99.55,-81.024 l 8.13,0.063 c 34.44,0.187 65.88,17.469 84.71,44.879 l 0.02,-40.59 h 20.21 l -0.07,204.57" /><path
         id="path76"
         style="fill:#a52d9c;fill-opacity:1;fill-rule:nonzero;stroke:none"
         d="m 1609.68,580.629 h 20.18 v 146.25 c 0,47.031 -4.22,65.062 -7.91,75.519 -14.06,39.782 -48.52,62.59 -94.53,62.59 h -6.92 c -34.65,0 -66.35,-17.289 -85.31,-44.84 v 40.622 h -20.21 V 580.629 h 20.21 v 141.5 c 0.07,43.332 3.88,59.203 6.77,67.351 11.68,33.09 43.25,55.309 78.54,55.309 h 6.92 c 37.48,0 64.29,-17.449 75.47,-49.117 1.68,-4.742 6.79,-19.184 6.79,-68.793 v -146.25" /><path
         id="path78"
         style="fill:#a52d9c;fill-opacity:1;fill-rule:nonzero;stroke:none"
         d="m 1864.12,651.422 c -11.68,-33.09 -43.27,-55.313 -78.58,-55.313 h -6.89 c -35.32,0 -66.88,22.223 -78.58,55.313 -1.68,4.75 -6.77,19.199 -6.77,68.957 0,44.461 3.86,60.562 6.77,68.801 11.7,33.09 43.26,55.3 78.58,55.3 h 6.89 c 35.31,0 66.9,-22.21 78.58,-55.3 1.68,-4.75 6.77,-19.18 6.77,-68.801 0,-33.481 -2.2,-56.047 -6.77,-68.957 m 6.83,-71.113 h 20.2 V 948.66 h -20.2 V 819.75 c -18.98,27.59 -50.7,44.941 -85.41,44.941 h -6.89 c -43.85,0 -83.09,-27.652 -97.62,-68.781 -3.69,-10.461 -7.95,-28.488 -7.95,-75.531 0,-47.719 4.55,-66.039 7.95,-75.688 14.53,-41.14 53.77,-68.781 97.62,-68.781 h 6.89 c 34.71,0 66.43,17.328 85.41,44.93 v -40.531" /></g></g></svg>