<?xml version="1.0" encoding="UTF-8" standalone="no"?>
<svg
   xmlns:dc="http://purl.org/dc/elements/1.1/"
   xmlns:cc="http://creativecommons.org/ns#"
   xmlns:rdf="http://www.w3.org/1999/02/22-rdf-syntax-ns#"
   xmlns:svg="http://www.w3.org/2000/svg"
   xmlns="http://www.w3.org/2000/svg"
   viewBox="0 0 396.39999 414.20001"
   height="414.20001"
   width="396.39999"
   xml:space="preserve"
   id="svg2"
   version="1.1"><metadata
     id="metadata8"><rdf:RDF><cc:Work
         rdf:about=""><dc:format>image/svg+xml</dc:format><dc:type
           rdf:resource="http://purl.org/dc/dcmitype/StillImage" /></cc:Work></rdf:RDF></metadata><defs
     id="defs6" /><g
     transform="matrix(1.3333333,0,0,-1.3333333,0,414.2)"
     id="g10"><g
       transform="scale(0.1)"
       id="g12"><path
         id="path14"
         style="fill:#050301;fill-opacity:1;fill-rule:nonzero;stroke:none"
         d="M 418.918,372.422 331.055,108.57 243.203,372.422 H 221.902 L 315.227,92.1094 h 31.66 l 93.316,280.3126 h -21.285" /><path
         id="path16"
         style="fill:#050301;fill-opacity:1;fill-rule:nonzero;stroke:none"
         d="m 1157.69,163.211 c -11.71,-33.129 -43.32,-55.402 -78.7,-55.402 h -6.91 c -35.36,0 -66.98,22.273 -78.682,55.402 -1.687,4.758 -6.796,19.219 -6.796,69.07 0,44.539 3.878,60.649 6.796,68.891 11.702,33.148 43.322,55.41 78.682,55.41 h 6.91 c 35.38,0 66.99,-22.262 78.7,-55.41 1.68,-4.731 6.79,-19.203 6.79,-68.891 0,-33.551 -2.22,-56.152 -6.79,-69.07 m 6.79,209.309 v -40.622 c -19,27.582 -50.77,44.922 -85.49,44.922 h -6.91 c -43.93,0 -83.213,-27.691 -97.764,-68.898 -3.703,-10.473 -7.949,-28.524 -7.949,-75.641 0,-47.789 4.539,-66.152 7.949,-75.801 14.551,-41.21 53.834,-68.8902 97.764,-68.8902 h 6.91 c 34.65,0 66.35,17.2692 85.37,44.7502 -0.5,-26.809 -2.69,-45.4416 -6.67,-56.7111 -11.71,-33.1289 -43.32,-55.3906 -78.7,-55.3906 h -6.91 c -31.3,0 -60.75,14.5508 -76.404,36.2812 H 972.141 C 988.938,22.832 1028.46,0 1072.08,0 h 6.91 c 43.93,0 83.22,27.6797 97.77,68.8906 3.42,9.6485 7.94,28.0078 7.94,75.8084 V 372.52 h -20.22" /><path
         id="path18"
         style="fill:#050301;fill-opacity:1;fill-rule:nonzero;stroke:none"
         d="m 1253.13,301.148 c 11.69,33.141 43.31,55.391 78.68,55.391 h 6.91 c 35.37,0 66.97,-22.25 78.69,-55.391 1.35,-3.839 5.24,-14.839 6.43,-47.238 h -177.15 c 1.02,28.488 4.04,40.5 6.44,47.238 m 170.96,-139.699 -0.49,-1.367 c -10.7,-30.293 -46.39,-52.293 -84.88,-52.293 h -6.91 c -35.37,0 -66.99,22.262 -78.68,55.383 -1.69,4.758 -6.81,19.226 -6.81,69.078 v 1.422 h 198.19 l -0.16,10.289 c -0.65,39.187 -4.8,55.258 -7.88,63.93 -14.54,41.211 -53.83,68.89 -97.75,68.89 h -6.91 c -43.93,0 -83.22,-27.679 -97.77,-68.89 -3.7,-10.469 -7.96,-28.532 -7.96,-75.641 0,-47.789 4.55,-66.16 7.96,-75.801 14.55,-41.211 53.84,-68.8982 97.77,-68.8982 h 6.91 c 47.53,0 90.28,27.0582 103.96,65.8012 l 2.86,8.097 h -21.45" /><path
         id="path20"
         style="fill:#050301;fill-opacity:1;fill-rule:nonzero;stroke:none"
         d="m 476.238,301.148 c 11.7,33.141 43.313,55.391 78.672,55.391 h 6.926 c 35.359,0 66.98,-22.25 78.684,-55.391 1.355,-3.839 5.242,-14.839 6.445,-47.238 H 469.797 c 1.023,28.488 4.043,40.5 6.441,47.238 m 170.969,-139.699 -0.496,-1.367 C 636.008,129.789 600.32,107.789 561.836,107.789 h -6.926 c -35.359,0 -66.972,22.262 -78.672,55.383 -1.687,4.758 -6.804,19.226 -6.804,69.078 v 1.422 h 198.195 l -0.18,10.289 c -0.633,39.187 -4.781,55.258 -7.847,63.93 -14.551,41.211 -53.848,68.89 -97.766,68.89 h -6.926 c -43.914,0 -83.199,-27.679 -97.754,-68.89 -3.699,-10.469 -7.945,-28.532 -7.945,-75.641 0,-47.789 4.539,-66.16 7.945,-75.801 14.555,-41.211 53.84,-68.8982 97.754,-68.8982 h 6.926 c 47.527,0 90.273,27.0582 103.957,65.8012 l 2.859,8.097 h -21.445" /><path
         id="path22"
         style="fill:#050301;fill-opacity:1;fill-rule:nonzero;stroke:none"
         d="m 108.254,253.582 c -51.3087,0 -77.3282,16.668 -77.3282,49.547 0,22.891 7.4414,53.351 71.9262,53.351 h 8.211 c 59.003,0 70.253,-25.492 71.75,-47.378 h 20.246 c -1.914,32.16 -20.293,67.609 -91.996,67.609 h -8.211 c -76.1723,0 -92.1567,-40.02 -92.1567,-73.582 0,-26.078 12.6641,-69.77 97.5587,-69.77 74.766,0 84.844,-32.711 84.844,-64.687 0,-40.352 -26.703,-60.813 -79.375,-60.813 h -13.535 c -52.6567,0 -79.356,20.461 -79.356,60.813 H 0.59375 c 0,-52.262 35.37505,-81.0509 99.59425,-81.0509 h 13.535 c 64.226,0 99.597,28.7889 99.597,81.0509 0,57.129 -34.367,84.91 -105.066,84.91" /><path
         id="path24"
         style="fill:#050301;fill-opacity:1;fill-rule:nonzero;stroke:none"
         d="M 916.086,406.801 H 895.84 v 54.019 h 20.246 v -54.019" /><path
         id="path26"
         style="fill:#050301;fill-opacity:1;fill-rule:nonzero;stroke:none"
         d="M 916.086,372.602 H 895.859 V 92.1406 h 20.227 V 372.602" /><path
         id="path28"
         style="fill:#050301;fill-opacity:1;fill-rule:nonzero;stroke:none"
         d="m 2520.56,406.801 h -20.23 v 54.019 h 20.23 v -54.019" /><path
         id="path30"
         style="fill:#050301;fill-opacity:1;fill-rule:nonzero;stroke:none"
         d="m 2520.56,372.602 h -20.21 V 92.1406 h 20.21 V 372.602" /><path
         id="path32"
         style="fill:#050301;fill-opacity:1;fill-rule:nonzero;stroke:none"
         d="m 851.738,373.582 c -8.379,2.137 -17.031,3.238 -25.937,3.238 h -6.914 c -34.676,0 -66.414,-17.328 -85.418,-44.879 v 40.661 H 713.242 V 92.1289 h 20.227 V 237.172 c 0.281,40.816 3.965,56.109 6.765,64.047 11.7,33.133 43.313,55.371 78.653,55.371 h 6.914 c 8.996,0 17.644,-1.481 25.937,-4.16 v 21.152" /><path
         id="path34"
         style="fill:#050301;fill-opacity:1;fill-rule:nonzero;stroke:none"
         d="m 2672.4,356.57 c -35.35,0 -66.96,-22.25 -78.65,-55.379 -2.92,-8.242 -6.8,-24.339 -6.8,-68.859 0,-49.844 5.12,-64.293 6.8,-69.051 11.69,-33.121 43.3,-55.371 78.65,-55.371 h 6.91 c 35.35,0 66.95,22.25 78.67,55.371 4.55,12.918 6.76,35.508 6.76,69.051 0,49.66 -5.1,64.117 -6.76,68.859 -11.72,33.129 -43.32,55.379 -78.67,55.379 z m 6.91,-268.8708 h -6.91 c -43.91,0 -83.17,27.6598 -97.74,68.8398 -3.4,9.641 -7.93,28.012 -7.93,75.793 0,47.09 4.24,65.137 7.95,75.609 14.55,41.188 53.81,68.86 97.72,68.86 h 6.91 c 43.91,0 83.19,-27.672 97.74,-68.86 3.69,-10.472 7.93,-28.519 7.93,-75.609 0,-47.781 -4.54,-66.152 -7.93,-75.793 -14.55,-41.18 -53.83,-68.8398 -97.74,-68.8398" /><path
         id="path36"
         style="fill:#050301;fill-opacity:1;fill-rule:nonzero;stroke:none"
         d="m 2420.01,163.289 c -11.69,-33.109 -43.3,-55.379 -78.65,-55.379 h -6.91 c -35.35,0 -66.95,22.27 -78.65,55.379 -1.68,4.762 -6.8,19.211 -6.8,69.051 0,44.519 3.87,60.629 6.8,68.871 11.7,33.141 43.3,55.379 78.65,55.379 h 6.91 c 35.35,0 66.96,-22.238 78.65,-55.379 1.7,-4.742 6.8,-19.199 6.8,-68.871 0,-33.531 -2.23,-56.129 -6.8,-69.051 m 6.86,-71.1796 h 20.21 V 460.891 h -20.21 V 331.84 c -19,27.609 -50.78,44.98 -85.51,44.98 h -6.91 c -43.91,0 -83.19,-27.679 -97.72,-68.871 -3.71,-10.469 -7.95,-28.519 -7.95,-75.609 0,-47.789 4.52,-66.141 7.95,-75.789 14.53,-41.192 53.81,-68.8518 97.72,-68.8518 h 6.91 c 34.73,0 66.51,17.3598 85.51,44.9728 V 92.1094" /><path
         id="path38"
         style="fill:#050301;fill-opacity:1;fill-rule:nonzero;stroke:none"
         d="m 2167.24,232.672 h -0.04 c 0,-33.57 -2.22,-56.184 -6.79,-69.121 -11.7,-33.141 -43.34,-55.41 -78.72,-55.41 l -7.55,-0.051 c -52.82,0 -79.59,20.512 -79.59,60.98 v 3.078 c 0,32.09 10.31,61.762 85.09,61.762 h 87.6 z m 20.26,64.687 c 0,50.071 -34.56,79.973 -92.41,79.973 h -8.24 c -59.9,0 -95.29,-24.641 -98.28,-67.781 h 20.35 c 3.73,39.008 43.91,47.508 77.93,47.508 h 8.24 c 26.94,0 72.13,-7.758 72.13,-59.75 l 0.02,-43.149 h -87.6 c -71.87,0 -105.35,-26.051 -105.35,-82.012 v -3.078 c 0,-52.39 35.45,-81.2497 99.85,-81.2497 l 8.16,0.0508 c 34.53,0.1992 66.07,17.5389 84.96,45.0199 l 0.02,-40.6918 h 20.25 l -0.03,205.1598" /><path
         id="path40"
         style="fill:#050301;fill-opacity:1;fill-rule:nonzero;stroke:none"
         d="m 1867.32,303.629 c 0,71.109 -69.92,66.922 -91.62,71.109 h 100.94 c 28.96,-0.027 75.35,-19.148 75.35,-71.117 0,-51.961 -36.37,-71.082 -65.33,-71.101 h -47.37 c 0,0 28.03,0.011 28.03,71.109" /><path
         id="path42"
         style="fill:#050301;fill-opacity:1;fill-rule:nonzero;stroke:none"
         d="m 1484.84,92.1992 h 121.03 L 1484.84,218.242 Z" /><path
         id="path44"
         style="fill:#050301;fill-opacity:1;fill-rule:nonzero;stroke:none"
         d="M 1612.4,374.75 1727.48,237.199 V 374.75 Z" /><path
         id="path46"
         style="fill:#050301;fill-opacity:1;fill-rule:nonzero;stroke:none"
         d="M 1834.1,232.559 H 1731.34 L 1848.78,92.1992 h 109.73 L 1834.1,232.559" /><path
         id="path48"
         style="fill:#050301;fill-opacity:1;fill-rule:nonzero;stroke:none"
         d="m 1567.14,303.621 c 0,-53.582 17.25,-66.902 38.73,-71.101 h -60.62 c -28.67,0.031 -64.69,19.152 -64.69,71.109 0,51.973 36.02,71.09 64.69,71.121 h 60.62 c -21.5,-4.199 -38.73,-17.539 -38.73,-71.129" /><path
         id="path50"
         style="fill:#050301;fill-opacity:1;fill-rule:nonzero;stroke:none"
         d="m 1651.09,162.34 c 0,52.898 -17.42,66.039 -39.12,70.18 h 61.23 c 28.96,-0.032 65.33,-18.899 65.33,-70.188 0,-51.281 -36.37,-70.1406 -65.33,-70.1836 h -61.23 c 21.7,4.1407 39.12,17.3006 39.12,70.1916" /><path
         id="path52"
         style="fill:#a52d9c;fill-opacity:1;fill-rule:nonzero;stroke:none"
         d="m 1012.64,2478.47 c 0,-436.33 -240.999,-482.95 -240.999,-482.95 H 1031.2 c 31.76,0 655.18,-24.01 655.18,555.43 0,579.41 -486.36,555.41 -518.12,555.41 H 771.641 c 0,0 240.999,-49.53 240.999,-485.88 v -142.01" /><path
         id="path54"
         style="fill:#a52d9c;fill-opacity:1;fill-rule:nonzero;stroke:none"
         d="M 12.793,3106.36 V 1197.65 H 607.078 V 3106.36 H 12.793" /><path
         id="path56"
         style="fill:#a52d9c;fill-opacity:1;fill-rule:nonzero;stroke:none"
         d="M 2279.12,3106.36 1391.39,1642.88 h 673.19 l 908.38,1463.48 h -693.84" /><path
         id="path58"
         style="fill:#a52d9c;fill-opacity:1;fill-rule:nonzero;stroke:none"
         d="m 2522.63,2154.74 -315.86,-511.76 v -445.33 h 582.54 v 957.09 h -266.68" /><path
         id="path60"
         style="fill:#a52d9c;fill-opacity:1;fill-rule:nonzero;stroke:none"
         d="m 107.488,741.48 c -51.2263,0 -77.2067,16.649 -77.2067,49.461 0,22.868 7.4335,53.258 71.8087,53.258 h 8.215 c 58.906,0 70.144,-25.449 71.621,-47.277 h 20.222 c -1.906,32.098 -20.261,67.5 -91.843,67.5 h -8.215 c -76.047,0 -92.0119,-39.973 -92.0119,-73.481 0,-26.019 12.6563,-69.671 97.4099,-69.671 74.641,0 84.707,-32.649 84.707,-64.579 0,-40.281 -26.66,-60.711 -79.246,-60.711 H 99.4336 c -52.5781,0 -79.2383,20.43 -79.2383,60.711 H 0 c 0,-52.179 35.3125,-80.91 99.4336,-80.91 h 13.5154 c 64.129,0 99.446,28.731 99.446,80.91 0,57.047 -34.309,84.789 -104.907,84.789" /><path
         id="path62"
         style="fill:#a52d9c;fill-opacity:1;fill-rule:nonzero;stroke:none"
         d="m 371.301,840.441 v 20.2 h -83.215 v 54.32 h -20.195 v -54.32 h -46.399 v -20.2 h 46.399 V 665.289 c 0,-56.699 31.699,-89.211 86.98,-89.211 h 16.43 v 20.203 h -16.43 c -44.305,0 -66.785,23.219 -66.785,69.008 v 175.152 h 83.215" /><path
         id="path64"
         style="fill:#a52d9c;fill-opacity:1;fill-rule:nonzero;stroke:none"
         d="m 489.746,845.02 c -35.312,0 -66.887,-22.219 -78.562,-55.301 -2.914,-8.231 -6.789,-24.328 -6.789,-68.797 0,-49.774 5.109,-64.211 6.789,-68.961 11.675,-33.082 43.25,-55.301 78.562,-55.301 h 6.902 c 35.305,0 66.875,22.219 78.555,55.301 4.563,12.91 6.777,35.461 6.777,68.961 0,49.617 -5.093,64.047 -6.777,68.797 -11.68,33.082 -43.25,55.301 -78.555,55.301 z m 6.902,-268.571 h -6.902 c -43.855,0 -83.086,27.641 -97.617,68.789 -3.391,9.621 -7.941,27.961 -7.941,75.684 0,47.039 4.25,65.078 7.953,75.539 14.519,41.129 53.75,68.777 97.605,68.777 h 6.902 c 43.86,0 83.079,-27.648 97.61,-68.777 3.68,-10.461 7.93,-28.5 7.93,-75.539 0,-47.723 -4.52,-66.063 -7.93,-75.684 -14.531,-41.148 -53.75,-68.789 -97.61,-68.789" /><path
         id="path66"
         style="fill:#a52d9c;fill-opacity:1;fill-rule:nonzero;stroke:none"
         d="m 832.805,649.469 c -12.344,-31.75 -43.188,-52.93 -77.617,-52.93 h -6.907 c -35.312,0 -66.886,22.211 -78.562,55.301 -1.684,4.742 -6.789,19.199 -6.789,68.969 0,44.461 3.879,60.55 6.789,68.8 11.676,33.071 43.25,55.289 78.562,55.289 h 6.907 c 30.847,0 58.855,-16.968 73.218,-43.328 h 22.297 c -15.906,38.219 -53.574,63.539 -95.515,63.539 h -6.907 c -43.855,0 -83.086,-27.64 -97.617,-68.769 -3.699,-10.461 -7.937,-28.5 -7.937,-75.531 0,-47.719 4.531,-66.059 7.925,-75.688 14.543,-41.152 53.774,-68.789 97.629,-68.789 h 6.907 c 43.843,0 83.074,27.637 97.605,68.789 0.449,1.277 0.93,2.719 1.406,4.348 h -21.394" /><path
         id="path68"
         style="fill:#a52d9c;fill-opacity:1;fill-rule:nonzero;stroke:none"
         d="m 979.773,749.809 114.187,111.082 h -28.97 L 912.41,712.461 V 948.91 H 892.195 V 580.691 h 20.215 v 103.59 l 52.758,51.328 115.602,-154.918 h 25.22 L 979.773,749.809" /><path
         id="path70"
         style="fill:#a52d9c;fill-opacity:1;fill-rule:nonzero;stroke:none"
         d="M 1327.3,723.82 V 580.672 h 20.21 V 723.82 c 0,47.039 -4.24,65.071 -7.92,75.532 -14.54,41.128 -49.87,65.687 -94.52,65.687 h -6.92 c -34.62,0 -66.32,-17.289 -85.32,-44.809 V 949 h -20.18 V 580.672 h 20.18 v 147.289 c 0.42,38.988 4.01,53.789 6.76,61.559 11.68,33.082 43.25,55.308 78.56,55.308 h 6.92 c 35.71,0 63.91,-19.519 75.46,-52.207 1.68,-4.75 6.77,-19.18 6.77,-68.801" /><path
         id="path72"
         style="fill:#a52d9c;fill-opacity:1;fill-rule:nonzero;stroke:none"
         d="m 1496.25,844.539 c -35.31,0 -66.87,-22.219 -78.56,-55.301 -2.91,-8.238 -6.79,-24.328 -6.79,-68.797 0,-49.769 5.11,-64.23 6.79,-68.961 11.69,-33.082 43.25,-55.308 78.56,-55.308 h 6.91 c 35.29,0 66.87,22.226 78.55,55.308 4.55,12.911 6.78,35.461 6.78,68.961 0,49.61 -5.1,64.047 -6.78,68.797 -11.68,33.082 -43.26,55.301 -78.55,55.301 z m 6.91,-268.57 h -6.91 c -43.86,0 -83.1,27.64 -97.63,68.781 -3.39,9.641 -7.93,27.969 -7.93,75.691 0,47.028 4.25,65.071 7.95,75.528 14.51,41.14 53.75,68.769 97.61,68.769 h 6.91 c 43.85,0 83.07,-27.629 97.6,-68.769 3.69,-10.457 7.93,-28.489 7.93,-75.528 0,-47.722 -4.53,-66.05 -7.93,-75.691 -14.53,-41.141 -53.75,-68.781 -97.6,-68.781" /><path
         id="path74"
         style="fill:#a52d9c;fill-opacity:1;fill-rule:nonzero;stroke:none"
         d="M 1678.57,736.488 V 949 h -20.2 V 580.801 h 20.2 v 155.687" /><path
         id="path76"
         style="fill:#a52d9c;fill-opacity:1;fill-rule:nonzero;stroke:none"
         d="m 2068.57,580.852 h 20.21 V 726.93 c 0,47.371 -3.82,65.531 -6.68,75.07 -12.05,40.082 -41.91,63.059 -81.99,63.059 h -5.88 c -34.14,0 -64.9,-22.309 -79.94,-56.661 -13.2,36.09 -41.93,56.661 -79.82,56.661 h -5.88 c -28.36,0 -54.42,-15.387 -71.04,-40.297 V 861 h -20.21 V 580.852 h 20.21 v 149.519 c 0.45,37.399 3.46,51.918 5.77,59.649 9.86,32.789 36.09,54.82 65.27,54.82 h 5.88 c 30.97,0 53.22,-17.258 62.63,-48.641 1.45,-4.789 5.82,-19.398 5.82,-69.269 V 580.852 h 20.22 v 140.48 c 0.04,44.188 3.34,60.367 5.82,68.688 9.86,32.789 36.09,54.82 65.27,54.82 h 5.88 c 30.96,0 53.21,-17.258 62.64,-48.641 1.44,-4.789 5.82,-19.398 5.82,-69.269 V 580.852" /></g></g></svg>