<?xml version="1.0" encoding="UTF-8" standalone="no"?>
<svg
   xmlns:dc="http://purl.org/dc/elements/1.1/"
   xmlns:cc="http://creativecommons.org/ns#"
   xmlns:rdf="http://www.w3.org/1999/02/22-rdf-syntax-ns#"
   xmlns:svg="http://www.w3.org/2000/svg"
   xmlns="http://www.w3.org/2000/svg"
   viewBox="0 0 396.32001 414.34668"
   height="414.34668"
   width="396.32001"
   xml:space="preserve"
   id="svg2"
   version="1.1"><metadata
     id="metadata8"><rdf:RDF><cc:Work
         rdf:about=""><dc:format>image/svg+xml</dc:format><dc:type
           rdf:resource="http://purl.org/dc/dcmitype/StillImage" /></cc:Work></rdf:RDF></metadata><defs
     id="defs6" /><g
     transform="matrix(1.3333333,0,0,-1.3333333,0,414.34667)"
     id="g10"><g
       transform="scale(0.1)"
       id="g12"><path
         id="path14"
         style="fill:#050301;fill-opacity:1;fill-rule:nonzero;stroke:none"
         d="M 416.582,371.539 330.266,108.832 243.945,371.539 H 221.426 L 315.254,90.0703 h 30.019 l 93.829,281.4687 h -22.52 v 0" /><path
         id="path16"
         style="fill:#050301;fill-opacity:1;fill-rule:nonzero;stroke:none"
         d="m 1155.92,161.359 c -11.26,-33.769 -41.28,-56.277 -78.81,-56.277 -3.76,0 -3.76,0 -3.76,0 -37.52,0 -67.55,22.508 -78.807,56.277 -3.75,3.762 -7.508,18.77 -7.508,71.313 0,41.289 3.758,60.047 7.508,67.558 11.257,33.77 41.287,56.29 78.807,56.29 3.76,0 3.76,0 3.76,0 37.53,0 67.55,-22.52 78.81,-56.29 3.75,-3.75 7.51,-18.769 7.51,-67.558 0,-33.774 0,-56.293 -7.51,-71.313 m 7.51,210.18 c 0,-41.289 0,-41.289 0,-41.289 -18.77,26.27 -48.79,45.039 -86.32,45.039 -3.76,0 -3.76,0 -3.76,0 -45.03,0 -86.315,-26.269 -97.573,-67.559 -3.75,-11.25 -11.257,-30.019 -11.257,-75.058 0,-48.793 7.507,-67.551 11.257,-78.813 11.258,-41.277 52.543,-67.5504 97.573,-67.5504 3.76,0 3.76,0 3.76,0 37.53,0 67.55,18.7734 86.32,45.0314 0,-26.258 -3.76,-45.0314 -7.51,-56.2814 -11.26,-33.7773 -41.28,-56.2969 -78.81,-56.2969 -3.76,0 -3.76,0 -3.76,0 -33.77,0 -63.79,15.0078 -78.807,37.5274 -22.516,0 -22.516,0 -22.516,0 C 987.035,22.5117 1028.32,0 1073.35,0 c 3.76,0 3.76,0 3.76,0 45.03,0 86.32,26.2695 97.58,67.5508 3.75,11.2578 11.26,26.2695 11.26,75.0512 0,228.937 0,228.937 0,228.937 h -22.52" /><path
         id="path18"
         style="fill:#050301;fill-opacity:1;fill-rule:nonzero;stroke:none"
         d="m 1253.5,300.23 c 11.26,33.77 41.28,56.29 78.81,56.29 7.51,0 7.51,0 7.51,0 33.77,0 67.55,-22.52 78.81,-56.29 0,-3.75 3.75,-15.019 3.75,-48.789 -176.39,0 -176.39,0 -176.39,0 0,30.02 3.76,41.278 7.51,48.789 m 168.88,-138.871 c 0,-3.75 0,-3.75 0,-3.75 -11.26,-30.019 -45.03,-52.527 -82.56,-52.527 -7.51,0 -7.51,0 -7.51,0 -37.53,0 -67.55,22.508 -78.81,56.277 -3.75,3.762 -7.51,18.77 -7.51,71.313 v 0 c 198.91,0 198.91,0 198.91,0 0,11.258 0,11.258 0,11.258 0,37.531 -3.75,52.55 -7.51,63.8 -15.01,41.29 -56.29,67.559 -97.57,67.559 -7.51,0 -7.51,0 -7.51,0 -45.03,0 -82.56,-26.269 -97.57,-67.559 -3.76,-11.25 -7.51,-30.019 -7.51,-75.058 0,-48.793 3.75,-67.551 7.51,-78.813 15.01,-41.277 52.54,-67.5504 97.57,-67.5504 7.51,0 7.51,0 7.51,0 45.03,0 90.07,26.2734 101.33,63.8004 3.75,11.25 3.75,11.25 3.75,11.25 h -22.52" /><path
         id="path20"
         style="fill:#050301;fill-opacity:1;fill-rule:nonzero;stroke:none"
         d="m 476.633,300.23 c 11.258,33.77 41.281,56.29 78.812,56.29 7.504,0 7.504,0 7.504,0 33.781,0 63.797,-22.52 75.059,-56.29 3.754,-3.75 7.512,-15.019 7.512,-48.789 -176.395,0 -176.395,0 -176.395,0 0,30.02 3.75,41.278 7.508,48.789 M 645.52,161.359 c 0,-3.75 0,-3.75 0,-3.75 -11.262,-30.019 -45.04,-52.527 -82.571,-52.527 -7.504,0 -7.504,0 -7.504,0 -37.531,0 -67.554,22.508 -78.812,56.277 -3.758,3.762 -7.508,18.77 -7.508,71.313 v 0 c 198.906,0 198.906,0 198.906,0 0,11.258 0,11.258 0,11.258 0,37.531 -7.504,52.55 -7.504,63.8 -15.007,41.29 -56.293,67.559 -97.578,67.559 -7.504,0 -7.504,0 -7.504,0 -45.035,0 -86.32,-26.269 -97.578,-67.559 -3.758,-11.25 -11.262,-30.019 -11.262,-75.058 0,-48.793 7.504,-67.551 11.262,-78.813 11.258,-41.277 52.543,-67.5504 97.578,-67.5504 7.504,0 7.504,0 7.504,0 45.035,0 90.074,26.2734 101.328,63.8004 3.754,11.25 3.754,11.25 3.754,11.25 H 645.52" /><path
         id="path22"
         style="fill:#050301;fill-opacity:1;fill-rule:nonzero;stroke:none"
         d="m 108.84,251.441 c -52.5431,0 -78.8166,18.77 -78.8166,48.789 0,26.27 7.5079,56.29 71.3086,56.29 7.508,0 7.508,0 7.508,0 60.047,0 71.305,-26.27 71.305,-48.79 22.515,0 22.515,0 22.515,0 -3.75,33.782 -22.515,67.559 -93.82,67.559 -7.508,0 -7.508,0 -7.508,0 -75.0586,0 -90.0703,-41.289 -90.0703,-75.059 0,-26.269 11.2578,-67.558 97.5783,-67.558 71.305,0 82.566,-33.774 82.566,-63.801 0,-41.281 -26.273,-63.789 -78.812,-63.789 -15.0159,0 -15.0159,0 -15.0159,0 -52.539,0 -78.8125,22.508 -78.8125,63.789 C 0,168.871 0,168.871 0,168.871 0,116.332 33.7813,86.3086 97.5781,86.3086 c 15.0159,0 15.0159,0 15.0159,0 63.797,0 101.328,30.0234 101.328,82.5624 0,56.301 -37.531,82.57 -105.082,82.57" /><path
         id="path24"
         style="fill:#050301;fill-opacity:1;fill-rule:nonzero;stroke:none"
         d="m 915.73,405.309 h -18.765 v 52.55 h 18.765 v -52.55 0" /><path
         id="path26"
         style="fill:#050301;fill-opacity:1;fill-rule:nonzero;stroke:none"
         d="M 915.73,371.539 H 896.965 V 90.0703 h 18.765 v 281.4687 0" /><path
         id="path28"
         style="fill:#050301;fill-opacity:1;fill-rule:nonzero;stroke:none"
         d="m 2522.01,405.309 h -22.52 v 52.55 h 22.52 v -52.55 0" /><path
         id="path30"
         style="fill:#050301;fill-opacity:1;fill-rule:nonzero;stroke:none"
         d="m 2522.01,371.539 h -22.52 V 90.0703 h 22.52 v 281.4687 0" /><path
         id="path32"
         style="fill:#050301;fill-opacity:1;fill-rule:nonzero;stroke:none"
         d="m 851.93,371.539 c -7.504,3.75 -18.766,3.75 -26.27,3.75 -7.508,0 -7.508,0 -7.508,0 -33.777,0 -67.55,-18.769 -86.316,-45.039 0,41.289 0,41.289 0,41.289 -18.77,0 -18.77,0 -18.77,0 0,-281.4687 0,-281.4687 0,-281.4687 18.77,0 18.77,0 18.77,0 0,146.3597 0,146.3597 0,146.3597 0,41.281 3.75,56.289 7.504,63.8 11.262,33.77 45.035,56.29 78.812,56.29 7.508,0 7.508,0 7.508,0 7.504,0 18.766,-3.75 26.27,-3.75 v 18.769" /><path
         id="path34"
         style="fill:#050301;fill-opacity:1;fill-rule:nonzero;stroke:none"
         d="m 2672.13,356.52 c -33.77,0 -67.55,-22.52 -78.81,-56.29 0,-7.511 -3.75,-26.269 -3.75,-67.558 0,-52.543 3.75,-67.551 3.75,-71.313 11.26,-33.769 45.04,-56.277 78.81,-56.277 7.51,0 7.51,0 7.51,0 37.53,0 67.55,22.508 78.82,56.277 3.75,15.02 7.5,37.539 7.5,71.313 0,48.789 -3.75,63.808 -7.5,67.558 -11.27,33.77 -41.29,56.29 -78.82,56.29 z m 7.51,-270.2114 c -7.51,0 -7.51,0 -7.51,0 -41.28,0 -82.56,26.2734 -97.58,67.5504 -3.75,11.262 -7.5,30.02 -7.5,78.813 0,45.039 3.75,63.808 7.5,75.058 15.02,41.29 56.3,67.559 97.58,67.559 7.51,0 7.51,0 7.51,0 45.04,0 82.57,-26.269 97.58,-67.559 3.75,-11.25 7.51,-30.019 7.51,-75.058 0,-48.793 -3.76,-67.551 -7.51,-78.813 -15.01,-41.277 -52.54,-67.5504 -97.58,-67.5504" /><path
         id="path36"
         style="fill:#050301;fill-opacity:1;fill-rule:nonzero;stroke:none"
         d="m 2420.68,161.359 c -11.26,-33.769 -45.04,-56.277 -78.8,-56.277 -7.51,0 -7.51,0 -7.51,0 -33.78,0 -67.56,22.508 -78.82,56.277 0,3.762 -7.5,18.77 -7.5,71.313 0,41.289 3.75,60.047 7.5,67.558 11.26,33.77 45.04,56.29 78.82,56.29 7.51,0 7.51,0 7.51,0 33.76,0 67.54,-22.52 78.8,-56.29 0,-3.75 7.5,-18.769 7.5,-67.558 0,-33.774 -3.75,-56.293 -7.5,-71.313 m 7.5,-71.2887 c 18.77,0 18.77,0 18.77,0 0,367.7887 0,367.7887 0,367.7887 -18.77,0 -18.77,0 -18.77,0 0,-127.609 0,-127.609 0,-127.609 -18.76,26.27 -52.54,45.039 -86.3,45.039 -7.51,0 -7.51,0 -7.51,0 -41.28,0 -82.57,-26.269 -97.58,-67.559 -3.75,-11.25 -7.51,-30.019 -7.51,-75.058 0,-48.793 3.76,-67.551 7.51,-78.813 15.01,-41.277 56.3,-67.5504 97.58,-67.5504 7.51,0 7.51,0 7.51,0 33.76,0 67.54,18.7734 86.3,45.0314 V 90.0703" /><path
         id="path38"
         style="fill:#050301;fill-opacity:1;fill-rule:nonzero;stroke:none"
         d="m 2169.24,232.672 v 0 c 0,-33.774 -3.76,-56.293 -7.51,-71.313 -11.26,-33.769 -45.04,-56.277 -78.82,-56.277 -7.5,0 -7.5,0 -7.5,0 -52.54,0 -78.82,22.508 -78.82,63.789 v 0 c 0,33.777 7.51,63.801 82.57,63.801 90.08,0 90.08,0 90.08,0 z M 2188,296.48 c 0,48.79 -33.78,78.809 -93.83,78.809 -7.5,0 -7.5,0 -7.5,0 -60.05,0 -93.83,-22.519 -97.58,-67.559 18.76,0 18.76,0 18.76,0 3.76,41.29 45.04,48.79 78.82,48.79 7.5,0 7.5,0 7.5,0 30.03,0 75.07,-7.5 75.07,-60.04 0,-45.039 0,-45.039 0,-45.039 -90.08,0 -90.08,0 -90.08,0 -71.31,0 -105.08,-26.269 -105.08,-82.57 v 0 c 0,-52.539 37.53,-82.5624 101.33,-82.5624 7.5,0 7.5,0 7.5,0 33.78,0 67.56,18.7734 86.33,45.0314 0,-41.2697 0,-41.2697 0,-41.2697 18.76,0 18.76,0 18.76,0 V 296.48" /><path
         id="path40"
         style="fill:#050301;fill-opacity:1;fill-rule:nonzero;stroke:none"
         d="m 1868.99,303.98 c 0,71.309 -71.3,63.809 -93.82,71.309 101.33,0 101.33,0 101.33,0 30.02,0 75.06,-22.519 75.06,-71.309 0,-52.539 -33.78,-71.308 -63.81,-71.308 -48.79,0 -48.79,0 -48.79,0 0,0 30.03,0 30.03,71.308 v 0" /><path
         id="path42"
         style="fill:#050301;fill-opacity:1;fill-rule:nonzero;stroke:none"
         d="m 1486.18,90.0703 h 120.11 L 1486.18,217.66 Z" /><path
         id="path44"
         style="fill:#050301;fill-opacity:1;fill-rule:nonzero;stroke:none"
         d="M 1613.79,375.289 1726.38,236.43 v 138.859 h -112.59 v 0" /><path
         id="path46"
         style="fill:#050301;fill-opacity:1;fill-rule:nonzero;stroke:none"
         d="M 1835.21,232.672 H 1730.14 L 1850.22,90.0703 h 108.84 L 1835.21,232.672 v 0" /><path
         id="path48"
         style="fill:#050301;fill-opacity:1;fill-rule:nonzero;stroke:none"
         d="m 1568.75,303.98 c 0,-56.289 15.02,-67.55 37.54,-71.308 -60.05,0 -60.05,0 -60.05,0 -30.03,0 -63.81,18.769 -63.81,71.308 0,48.79 33.78,71.309 63.81,71.309 60.05,0 60.05,0 60.05,0 -22.52,-7.5 -37.54,-18.769 -37.54,-71.309 v 0" /><path
         id="path50"
         style="fill:#050301;fill-opacity:1;fill-rule:nonzero;stroke:none"
         d="m 1651.32,161.359 c 0,52.551 -18.76,63.813 -37.53,71.313 60.05,0 60.05,0 60.05,0 30.03,0 63.8,-18.762 63.8,-71.313 0,-52.527 -33.77,-71.2887 -63.8,-71.2887 -60.05,0 -60.05,0 -60.05,0 18.77,3.75 37.53,18.7617 37.53,71.2887 v 0" /><path
         id="path52"
         style="fill:#a52d9c;fill-opacity:1;fill-rule:nonzero;stroke:none"
         d="m 1013.31,2480.71 c 0,-439.09 -243.947,-484.13 -243.947,-484.13 262.707,0 262.707,0 262.707,0 30.02,0 653.03,-26.27 653.03,555.44 0,577.96 -484.14,555.44 -517.92,555.44 -397.817,0 -397.817,0 -397.817,0 0,0 243.947,-48.78 243.947,-487.88 v -138.87" /><path
         id="path54"
         style="fill:#a52d9c;fill-opacity:1;fill-rule:nonzero;stroke:none"
         d="M 11.2617,3107.46 V 1197.19 H 607.984 V 3107.46 H 11.2617 v 0" /><path
         id="path56"
         style="fill:#a52d9c;fill-opacity:1;fill-rule:nonzero;stroke:none"
         d="M 2278.07,3107.46 1392.36,1643.8 h 671.79 l 908.22,1463.66 h -694.3 v 0" /><path
         id="path58"
         style="fill:#a52d9c;fill-opacity:1;fill-rule:nonzero;stroke:none"
         d="M 2522.01,2154.21 2206.76,1643.8 v -446.61 h 585.47 v 957.02 h -270.22 v 0" /><path
         id="path60"
         style="fill:#a52d9c;fill-opacity:1;fill-rule:nonzero;stroke:none"
         d="m 206.414,577.949 c 18.766,0 18.766,0 18.766,0 0,281.481 0,281.481 0,281.481 -18.766,0 -18.766,0 -18.766,0 0,-146.371 0,-146.371 0,-146.371 0,-30.028 -3.754,-48.789 -7.504,-63.809 -11.258,-30.012 -41.281,-52.531 -78.812,-52.531 -7.504,0 -7.504,0 -7.504,0 -33.7815,0 -63.8049,22.519 -78.8127,52.531 0,7.512 -3.7579,18.77 -3.7579,71.309 0,138.871 0,138.871 0,138.871 -22.51168,0 -22.51168,0 -22.51168,0 0,-138.871 0,-138.871 0,-138.871 0,-48.789 3.74998,-67.559 7.50388,-75.059 15.0078,-41.281 56.293,-71.301 97.5784,-71.301 7.504,0 7.504,0 7.504,0 37.531,0 67.554,18.77 86.316,45.039 v -41.289" /><path
         id="path62"
         style="fill:#a52d9c;fill-opacity:1;fill-rule:nonzero;stroke:none"
         d="m 472.875,649.25 c -11.254,-30.012 -41.277,-52.531 -78.812,-52.531 -7.504,0 -7.504,0 -7.504,0 -33.778,0 -67.555,22.519 -78.817,52.531 0,7.512 -3.75,18.77 -7.504,63.809 0,15.011 0,15.011 0,15.011 3.754,37.532 7.504,52.539 7.504,60.051 11.262,33.77 45.039,56.289 78.817,56.289 7.504,0 7.504,0 7.504,0 37.535,0 67.558,-22.519 78.812,-56.289 0,-3.75 7.512,-18.769 7.512,-67.562 0,-33.77 -3.754,-56.289 -7.512,-71.309 m 18.766,146.371 c -15.008,41.289 -52.539,67.559 -97.578,67.559 -7.504,0 -7.504,0 -7.504,0 -33.778,0 -63.801,-15.02 -86.321,-45.039 0,41.289 0,41.289 0,41.289 -18.761,0 -18.761,0 -18.761,0 0,-367.789 0,-367.789 0,-367.789 18.761,0 18.761,0 18.761,0 0,127.597 0,127.597 0,127.597 22.52,-26.269 52.543,-45.039 86.321,-45.039 7.504,0 7.504,0 7.504,0 45.039,0 82.57,30.02 97.578,71.301 3.754,7.5 7.507,26.27 7.507,75.059 0,45.043 -3.753,63.812 -7.507,75.062" /><path
         id="path64"
         style="fill:#a52d9c;fill-opacity:1;fill-rule:nonzero;stroke:none"
         d="m 739.34,649.25 c -11.258,-30.012 -41.281,-52.531 -78.813,-52.531 -3.754,0 -3.754,0 -3.754,0 -37.531,0 -67.554,22.519 -78.812,52.531 -3.75,7.512 -7.508,18.77 -7.508,63.809 0,15.011 0,15.011 0,15.011 0,37.532 3.758,52.539 7.508,60.051 11.258,33.77 41.281,56.289 78.812,56.289 3.754,0 3.754,0 3.754,0 37.532,0 67.555,-22.519 78.813,-56.289 3.758,-3.75 7.508,-18.769 7.508,-67.562 0,-33.77 0,-56.289 -7.508,-71.309 m 18.765,146.371 c -11.257,41.289 -52.542,67.559 -97.578,67.559 -3.754,0 -3.754,0 -3.754,0 -37.531,0 -67.554,-15.02 -86.32,-45.039 0,41.289 0,41.289 0,41.289 -22.515,0 -22.515,0 -22.515,0 0,-367.789 0,-367.789 0,-367.789 22.515,0 22.515,0 22.515,0 0,127.597 0,127.597 0,127.597 18.766,-26.269 48.789,-45.039 86.32,-45.039 3.754,0 3.754,0 3.754,0 45.036,0 86.321,30.02 97.578,71.301 3.75,7.5 11.258,26.27 11.258,75.059 0,45.043 -7.508,63.812 -11.258,75.062" /><path
         id="path66"
         style="fill:#a52d9c;fill-opacity:1;fill-rule:nonzero;stroke:none"
         d="M 836.918,776.859 V 949.5 H 818.152 V 577.949 h 18.766 v 198.91 0" /><path
         id="path68"
         style="fill:#a52d9c;fill-opacity:1;fill-rule:nonzero;stroke:none"
         d="m 1077.11,720.559 v 0 c 0,-33.77 -3.76,-56.289 -7.51,-71.309 -11.26,-33.762 -41.28,-52.531 -78.807,-52.531 -7.512,0 -7.512,0 -7.512,0 -52.539,0 -78.808,18.769 -78.808,60.043 0,3.75 0,3.75 0,3.75 0,30.027 11.257,60.047 86.32,60.047 86.317,0 86.317,0 86.317,0 z m 18.76,63.812 c 0,48.777 -33.78,78.809 -90.07,78.809 -7.503,0 -7.503,0 -7.503,0 -60.051,0 -97.578,-22.52 -101.332,-67.559 22.515,0 22.515,0 22.515,0 3.758,37.527 41.286,48.789 78.817,48.789 7.503,0 7.503,0 7.503,0 26.27,0 71.31,-7.5 71.31,-60.039 0,-45.039 0,-45.039 0,-45.039 -86.317,0 -86.317,0 -86.317,0 -75.063,0 -105.086,-26.273 -105.086,-78.82 0,-3.75 0,-3.75 0,-3.75 0,-52.543 33.773,-82.563 97.574,-82.563 7.512,0 7.512,0 7.512,0 33.777,0 67.547,18.77 86.317,45.039 0,-41.289 0,-41.289 0,-41.289 18.76,0 18.76,0 18.76,0 v 206.422" /><path
         id="path70"
         style="fill:#a52d9c;fill-opacity:1;fill-rule:nonzero;stroke:none"
         d="m 1343.57,577.949 c 22.52,0 22.52,0 22.52,0 0,146.36 0,146.36 0,146.36 0,48.793 -7.51,67.562 -11.26,78.82 -11.26,37.531 -48.79,60.051 -93.82,60.051 -7.51,0 -7.51,0 -7.51,0 -33.78,0 -63.8,-15.02 -82.57,-45.039 0,41.289 0,41.289 0,41.289 -22.51,0 -22.51,0 -22.51,0 0,-281.481 0,-281.481 0,-281.481 22.51,0 22.51,0 22.51,0 0,142.61 0,142.61 0,142.61 0,45.043 3.76,60.05 3.76,67.562 15.01,33.77 45.03,56.289 78.81,56.289 7.51,0 7.51,0 7.51,0 37.53,0 63.79,-18.762 75.05,-48.789 3.76,-3.75 7.51,-18.762 7.51,-71.312 v -146.36" /><path
         id="path72"
         style="fill:#a52d9c;fill-opacity:1;fill-rule:nonzero;stroke:none"
         d="m 1598.78,649.25 c -11.26,-33.762 -45.04,-52.531 -78.82,-52.531 -7.5,0 -7.5,0 -7.5,0 -33.78,0 -67.56,18.769 -78.82,52.531 0,7.512 -7.5,18.77 -7.5,71.309 0,45.043 3.75,60.05 7.5,67.562 11.26,33.77 45.04,56.289 78.82,56.289 7.5,0 7.5,0 7.5,0 33.78,0 67.56,-22.519 78.82,-56.289 0,-3.75 7.51,-18.769 7.51,-67.562 0,-33.77 -3.76,-56.289 -7.51,-71.309 m 7.51,-71.301 c 18.76,0 18.76,0 18.76,0 0,371.551 0,371.551 0,371.551 -18.76,0 -18.76,0 -18.76,0 0,-131.359 0,-131.359 0,-131.359 -18.77,30.019 -52.55,45.039 -86.33,45.039 -7.5,0 -7.5,0 -7.5,0 -45.04,0 -82.57,-26.27 -97.58,-67.559 -3.76,-11.25 -7.51,-30.019 -7.51,-75.062 0,-48.789 3.75,-67.559 7.51,-75.059 15.01,-41.281 52.54,-71.301 97.58,-71.301 7.5,0 7.5,0 7.5,0 33.78,0 67.56,18.77 86.33,45.039 v -41.289" /></g></g></svg>