<?xml version="1.0" encoding="UTF-8" standalone="no"?>
<svg
   xmlns:dc="http://purl.org/dc/elements/1.1/"
   xmlns:cc="http://creativecommons.org/ns#"
   xmlns:rdf="http://www.w3.org/1999/02/22-rdf-syntax-ns#"
   xmlns:svg="http://www.w3.org/2000/svg"
   xmlns="http://www.w3.org/2000/svg"
   viewBox="0 0 396.32001 413.82666"
   height="413.82666"
   width="396.32001"
   xml:space="preserve"
   id="svg2"
   version="1.1"><metadata
     id="metadata8"><rdf:RDF><cc:Work
         rdf:about=""><dc:format>image/svg+xml</dc:format><dc:type
           rdf:resource="http://purl.org/dc/dcmitype/StillImage" /></cc:Work></rdf:RDF></metadata><defs
     id="defs6" /><g
     transform="matrix(1.3333333,0,0,-1.3333333,0,413.82667)"
     id="g10"><g
       transform="scale(0.1)"
       id="g12"><path
         id="path14"
         style="fill:#050301;fill-opacity:1;fill-rule:nonzero;stroke:none"
         d="M 416.059,371.082 329.848,108.691 243.637,371.082 H 221.148 L 314.855,89.9492 h 29.989 l 93.707,281.1328 h -22.492 v 0" /><path
         id="path16"
         style="fill:#050301;fill-opacity:1;fill-rule:nonzero;stroke:none"
         d="m 1154.47,161.18 c -11.25,-33.739 -41.23,-56.239 -78.72,-56.239 -3.74,0 -3.74,0 -3.74,0 -37.49,0 -67.47,22.5 -78.717,56.239 -3.75,3.75 -7.496,18.742 -7.496,71.211 0,41.23 3.746,59.98 7.496,67.48 11.247,33.731 41.227,56.211 78.717,56.211 3.74,0 3.74,0 3.74,0 37.49,0 67.47,-22.48 78.72,-56.211 3.74,-3.75 7.49,-18.75 7.49,-67.48 0,-33.731 0,-56.219 -7.49,-71.211 m 7.49,209.902 c 0,-41.23 0,-41.23 0,-41.23 -18.74,26.23 -48.72,44.98 -86.21,44.98 -3.74,0 -3.74,0 -3.74,0 -44.98,0 -86.213,-26.242 -97.459,-67.473 -3.75,-11.238 -11.246,-29.988 -11.246,-74.968 0,-48.719 7.496,-67.461 11.246,-78.711 11.246,-41.239 52.479,-67.4691 97.459,-67.4691 3.74,0 3.74,0 3.74,0 37.49,0 67.47,18.7301 86.21,44.9801 0,-26.25 0,-44.9801 -7.49,-56.2301 -11.25,-33.7304 -41.23,-56.2304 -78.72,-56.2304 -3.74,0 -3.74,0 -3.74,0 -33.74,0 -63.72,15 -78.717,37.4883 -22.492,0 -22.492,0 -22.492,0 C 985.797,22.4805 1027.03,0 1072.01,0 c 3.74,0 3.74,0 3.74,0 44.98,0 86.21,26.2305 101.21,67.4609 0,11.25 7.49,26.2383 7.49,74.9691 0,228.652 0,228.652 0,228.652 h -22.49" /><path
         id="path18"
         style="fill:#050301;fill-opacity:1;fill-rule:nonzero;stroke:none"
         d="m 1251.92,299.871 c 11.25,33.731 41.23,56.211 78.71,56.211 7.5,0 7.5,0 7.5,0 33.74,0 67.47,-22.48 78.72,-56.211 0,-3.75 3.75,-15 3.75,-48.73 -176.18,0 -176.18,0 -176.18,0 0,29.98 3.75,41.23 7.5,48.73 M 1420.6,161.18 c 0,-3.75 0,-3.75 0,-3.75 -7.5,-29.989 -44.98,-52.489 -82.47,-52.489 -7.5,0 -7.5,0 -7.5,0 -37.48,0 -67.46,22.5 -78.71,56.239 -3.75,3.75 -7.5,18.742 -7.5,71.211 v 0 c 198.67,0 198.67,0 198.67,0 0,11.25 0,11.25 0,11.25 0,37.48 -3.75,52.48 -7.5,63.718 -14.99,41.231 -56.22,67.473 -97.46,67.473 -7.5,0 -7.5,0 -7.5,0 -44.98,0 -82.46,-26.242 -97.45,-67.473 -3.75,-11.238 -7.5,-29.988 -7.5,-74.968 0,-48.719 3.75,-67.461 7.5,-78.711 14.99,-41.239 52.47,-67.4691 97.45,-67.4691 7.5,0 7.5,0 7.5,0 44.98,0 89.96,26.2301 101.21,63.7191 3.75,11.25 3.75,11.25 3.75,11.25 h -22.49" /><path
         id="path20"
         style="fill:#050301;fill-opacity:1;fill-rule:nonzero;stroke:none"
         d="m 476.031,299.871 c 11.242,33.731 41.231,56.211 78.715,56.211 7.496,0 7.496,0 7.496,0 33.735,0 63.719,-22.48 78.715,-56.211 0,-3.75 3.746,-15 3.746,-48.73 -176.168,0 -176.168,0 -176.168,0 0,29.98 3.75,41.23 7.496,48.73 M 644.703,161.18 c 0,-3.75 0,-3.75 0,-3.75 -11.246,-29.989 -44.976,-52.489 -82.461,-52.489 -7.496,0 -7.496,0 -7.496,0 -37.484,0 -67.473,22.5 -78.715,56.239 -3.746,3.75 -7.496,18.742 -7.496,71.211 v 0 c 198.656,0 198.656,0 198.656,0 0,11.25 0,11.25 0,11.25 0,37.48 -7.496,52.48 -7.496,63.718 -14.992,41.231 -56.222,67.473 -97.453,67.473 -7.496,0 -7.496,0 -7.496,0 -44.98,0 -82.461,-26.242 -97.457,-67.473 -3.75,-11.238 -7.492,-29.988 -7.492,-74.968 0,-48.719 3.742,-67.461 7.492,-78.711 14.996,-41.239 52.477,-67.4691 97.457,-67.4691 7.496,0 7.496,0 7.496,0 44.981,0 89.953,26.2301 101.203,63.7191 3.746,11.25 3.746,11.25 3.746,11.25 h -22.488" /><path
         id="path22"
         style="fill:#050301;fill-opacity:1;fill-rule:nonzero;stroke:none"
         d="m 108.699,251.141 c -52.4724,0 -78.7107,18.738 -78.7107,48.73 0,26.231 7.4961,56.211 71.2187,56.211 7.492,0 7.492,0 7.492,0 59.973,0 71.219,-26.23 71.219,-48.723 22.488,0 22.488,0 22.488,0 -3.746,33.743 -22.488,67.473 -93.707,67.473 -7.492,0 -7.492,0 -7.492,0 -74.9687,0 -89.9609,-41.23 -89.9609,-74.961 0,-26.25 11.2422,-67.48 97.4529,-67.48 74.969,0 82.461,-33.731 82.461,-63.711 0,-41.239 -26.234,-63.739 -78.711,-63.739 -14.992,0 -14.992,0 -14.992,0 -52.4765,0 -78.7187,22.5 -78.7187,63.739 C 0,168.68 0,168.68 0,168.68 0,116.191 33.7344,86.2109 97.457,86.2109 c 14.992,0 14.992,0 14.992,0 63.723,0 101.203,29.9801 101.203,82.4691 0,56.222 -37.48,82.461 -104.953,82.461" /><path
         id="path24"
         style="fill:#050301;fill-opacity:1;fill-rule:nonzero;stroke:none"
         d="M 914.578,404.809 H 895.84 v 52.48 h 18.738 v -52.48 0" /><path
         id="path26"
         style="fill:#050301;fill-opacity:1;fill-rule:nonzero;stroke:none"
         d="M 914.578,371.082 H 895.84 V 89.9492 h 18.738 v 281.1328 0" /><path
         id="path28"
         style="fill:#050301;fill-opacity:1;fill-rule:nonzero;stroke:none"
         d="m 2518.83,404.809 h -22.49 v 52.48 h 22.49 v -52.48 0" /><path
         id="path30"
         style="fill:#050301;fill-opacity:1;fill-rule:nonzero;stroke:none"
         d="m 2518.83,371.082 h -22.49 V 89.9492 h 22.49 v 281.1328 0" /><path
         id="path32"
         style="fill:#050301;fill-opacity:1;fill-rule:nonzero;stroke:none"
         d="m 850.859,371.082 c -7.5,3.75 -18.742,3.75 -26.242,3.75 -7.492,0 -7.492,0 -7.492,0 -33.734,0 -67.473,-18.75 -86.211,-44.98 0,41.23 0,41.23 0,41.23 -18.742,0 -18.742,0 -18.742,0 0,-281.1328 0,-281.1328 0,-281.1328 18.742,0 18.742,0 18.742,0 0,146.1918 0,146.1918 0,146.1918 0,41.23 3.75,56.23 7.492,63.73 11.246,33.731 44.985,56.211 78.719,56.211 7.492,0 7.492,0 7.492,0 7.5,0 18.742,-3.742 26.242,-3.742 v 18.742" /><path
         id="path34"
         style="fill:#050301;fill-opacity:1;fill-rule:nonzero;stroke:none"
         d="m 2668.76,356.082 c -33.73,0 -63.72,-22.48 -78.71,-56.211 0,-7.5 -3.75,-26.25 -3.75,-67.48 0,-52.469 3.75,-67.461 3.75,-71.211 14.99,-33.739 44.98,-56.239 78.71,-56.239 7.5,0 7.5,0 7.5,0 37.48,0 67.47,22.5 78.71,56.239 3.75,14.992 7.5,37.48 7.5,71.211 0,48.73 -3.75,63.73 -7.5,67.48 -11.24,33.731 -41.23,56.211 -78.71,56.211 z m 7.5,-269.8711 c -7.5,0 -7.5,0 -7.5,0 -41.23,0 -82.46,26.2301 -97.45,67.4691 -3.75,11.25 -7.5,29.992 -7.5,78.711 0,44.98 3.75,63.73 7.5,74.968 14.99,41.231 56.22,67.473 97.45,67.473 7.5,0 7.5,0 7.5,0 44.98,0 82.46,-26.242 97.45,-67.473 3.75,-11.238 7.5,-29.988 7.5,-74.968 0,-48.719 -3.75,-67.461 -7.5,-78.711 -14.99,-41.239 -52.47,-67.4691 -97.45,-67.4691" /><path
         id="path36"
         style="fill:#050301;fill-opacity:1;fill-rule:nonzero;stroke:none"
         d="m 2417.63,161.18 c -11.24,-33.739 -41.23,-56.239 -78.71,-56.239 -7.5,0 -7.5,0 -7.5,0 -33.73,0 -67.47,22.5 -78.71,56.239 0,3.75 -7.5,18.742 -7.5,71.211 0,41.23 3.75,59.98 7.5,67.48 11.24,33.731 44.98,56.211 78.71,56.211 7.5,0 7.5,0 7.5,0 37.48,0 67.47,-22.48 78.71,-56.211 3.75,-3.75 7.5,-18.75 7.5,-67.48 0,-33.731 -3.75,-56.219 -7.5,-71.211 m 7.5,-71.2308 c 18.74,0 18.74,0 18.74,0 0,367.3398 0,367.3398 0,367.3398 -18.74,0 -18.74,0 -18.74,0 0,-127.437 0,-127.437 0,-127.437 -18.74,26.23 -52.48,44.98 -86.21,44.98 -7.5,0 -7.5,0 -7.5,0 -41.23,0 -82.46,-26.242 -97.46,-67.473 -3.75,-11.238 -7.5,-29.988 -7.5,-74.968 0,-48.719 3.75,-67.461 7.5,-78.711 15,-41.239 56.23,-67.4691 97.46,-67.4691 7.5,0 7.5,0 7.5,0 33.73,0 67.47,18.7301 86.21,44.9801 V 89.9492" /><path
         id="path38"
         style="fill:#050301;fill-opacity:1;fill-rule:nonzero;stroke:none"
         d="m 2166.49,232.391 v 0 c 0,-33.731 -3.75,-56.219 -7.5,-71.211 -11.24,-33.739 -44.98,-56.239 -78.71,-56.239 -7.5,0 -7.5,0 -7.5,0 -52.47,0 -78.71,22.5 -78.71,63.739 v 0 c 0,33.73 7.5,63.711 82.46,63.711 89.96,0 89.96,0 89.96,0 z m 18.74,63.73 c 0,48.719 -33.73,78.711 -93.7,78.711 -7.5,0 -7.5,0 -7.5,0 -59.97,0 -93.71,-22.492 -97.46,-67.473 18.75,0 18.75,0 18.75,0 3.75,41.231 44.98,48.723 78.71,48.723 7.5,0 7.5,0 7.5,0 29.98,0 74.96,-7.492 74.96,-59.961 0,-44.98 0,-44.98 0,-44.98 -89.96,0 -89.96,0 -89.96,0 -71.21,0 -104.95,-26.239 -104.95,-82.461 v 0 c 0,-52.489 37.49,-82.4691 101.2,-82.4691 7.5,0 7.5,0 7.5,0 33.73,0 67.47,18.7301 86.21,44.9801 0,-41.2418 0,-41.2418 0,-41.2418 18.74,0 18.74,0 18.74,0 V 296.121" /><path
         id="path40"
         style="fill:#050301;fill-opacity:1;fill-rule:nonzero;stroke:none"
         d="m 1866.63,303.609 c 0,71.223 -71.21,63.723 -93.7,71.223 101.2,0 101.2,0 101.2,0 29.98,0 74.96,-22.492 74.96,-71.223 0,-52.468 -33.73,-71.218 -63.72,-71.218 -48.72,0 -48.72,0 -48.72,0 0,0 29.98,0 29.98,71.218 v 0" /><path
         id="path42"
         style="fill:#050301;fill-opacity:1;fill-rule:nonzero;stroke:none"
         d="m 1484.32,89.9492 h 119.94 L 1484.32,217.402 Z" /><path
         id="path44"
         style="fill:#050301;fill-opacity:1;fill-rule:nonzero;stroke:none"
         d="M 1611.75,374.832 1724.2,236.141 v 138.691 h -112.45 v 0" /><path
         id="path46"
         style="fill:#050301;fill-opacity:1;fill-rule:nonzero;stroke:none"
         d="M 1832.9,232.391 H 1727.95 L 1847.89,89.9492 h 108.7 L 1832.9,232.391 v 0" /><path
         id="path48"
         style="fill:#050301;fill-opacity:1;fill-rule:nonzero;stroke:none"
         d="m 1566.77,303.609 c 0,-56.218 15,-67.468 37.49,-71.218 -59.97,0 -59.97,0 -59.97,0 -29.99,0 -63.72,18.75 -63.72,71.218 0,48.731 33.73,71.223 63.72,71.223 59.97,0 59.97,0 59.97,0 -22.49,-7.5 -37.49,-18.75 -37.49,-71.223 v 0" /><path
         id="path50"
         style="fill:#050301;fill-opacity:1;fill-rule:nonzero;stroke:none"
         d="m 1649.23,161.18 c 0,52.48 -18.74,63.722 -37.48,71.211 59.98,0 59.98,0 59.98,0 29.98,0 63.71,-18.731 63.71,-71.211 0,-52.489 -33.73,-71.2308 -63.71,-71.2308 -59.98,0 -59.98,0 -59.98,0 18.74,3.75 37.48,18.7418 37.48,71.2308 v 0" /><path
         id="path52"
         style="fill:#a52d9c;fill-opacity:1;fill-rule:nonzero;stroke:none"
         d="m 1012.03,2477.6 c 0,-438.54 -243.632,-483.52 -243.632,-483.52 262.382,0 262.382,0 262.382,0 29.98,0 652.19,-26.24 652.19,554.74 0,577.23 -483.52,554.74 -517.26,554.74 -397.312,0 -397.312,0 -397.312,0 0,0 243.632,-48.72 243.632,-487.27 V 2477.6" /><path
         id="path54"
         style="fill:#a52d9c;fill-opacity:1;fill-rule:nonzero;stroke:none"
         d="M 11.2461,3103.56 V 1195.7 H 607.223 V 3103.56 H 11.2461 v 0" /><path
         id="path56"
         style="fill:#a52d9c;fill-opacity:1;fill-rule:nonzero;stroke:none"
         d="M 2275.2,3103.56 1390.61,1641.74 h 670.93 l 910.83,1461.82 H 2275.2 v 0" /><path
         id="path58"
         style="fill:#a52d9c;fill-opacity:1;fill-rule:nonzero;stroke:none"
         d="M 2518.83,2151.5 2203.97,1641.74 V 1195.7 h 584.73 v 955.8 h -269.87 v 0" /><path
         id="path60"
         style="fill:#a52d9c;fill-opacity:1;fill-rule:nonzero;stroke:none"
         d="M 194.91,858.352 108.699,595.98 18.7383,858.352 H 0 L 93.7109,577.23 h 29.9841 l 93.707,281.122 H 194.91 v 0" /><path
         id="path62"
         style="fill:#a52d9c;fill-opacity:1;fill-rule:nonzero;stroke:none"
         d="m 318.605,892.082 h -18.742 v 56.219 h 18.742 v -56.219 0" /><path
         id="path64"
         style="fill:#a52d9c;fill-opacity:1;fill-rule:nonzero;stroke:none"
         d="m 378.574,892.082 h -18.738 v 56.219 h 18.738 v -56.219 0" /><path
         id="path66"
         style="fill:#a52d9c;fill-opacity:1;fill-rule:nonzero;stroke:none"
         d="m 416.059,719.672 v 0 c 0,-33.742 -3.75,-56.231 -7.496,-71.223 -11.243,-29.988 -41.227,-52.469 -78.715,-52.469 -7.493,0 -7.493,0 -7.493,0 -52.476,0 -78.718,18.731 -78.718,59.961 0,3.75 0,3.75 0,3.75 0,29.989 11.246,59.981 86.211,59.981 86.211,0 86.211,0 86.211,0 z m 18.742,63.707 c 0,48.73 -33.738,78.723 -89.957,78.723 -7.5,0 -7.5,0 -7.5,0 -59.973,0 -97.449,-22.493 -97.449,-67.473 18.738,0 18.738,0 18.738,0 3.75,41.23 44.98,48.73 78.711,48.73 7.5,0 7.5,0 7.5,0 26.234,0 71.215,-7.5 71.215,-59.98 0,-41.231 0,-41.231 0,-41.231 -86.211,0 -86.211,0 -86.211,0 -71.215,0 -104.95,-26.226 -104.95,-82.457 0,-3.75 0,-3.75 0,-3.75 0,-52.472 33.735,-82.461 97.457,-82.461 11.243,0 11.243,0 11.243,0 33.738,0 63.722,18.75 82.461,44.981 0,-41.231 0,-41.231 0,-41.231 18.742,0 18.742,0 18.742,0 v 206.149" /><path
         id="path68"
         style="fill:#a52d9c;fill-opacity:1;fill-rule:nonzero;stroke:none"
         d="m 577.234,738.398 c -48.726,0 -74.964,18.75 -74.964,52.481 0,22.492 7.496,52.48 71.214,52.48 7.496,0 7.496,0 7.496,0 59.977,0 71.215,-26.238 71.215,-48.73 22.493,0 22.493,0 22.493,0 -3.747,33.73 -22.493,67.473 -93.708,67.473 -7.496,0 -7.496,0 -7.496,0 -74.964,0 -93.703,-37.493 -93.703,-71.223 0,-26.231 14.992,-71.207 97.453,-71.207 74.961,0 86.211,-33.742 86.211,-63.731 0,-41.23 -26.238,-59.961 -78.715,-59.961 -14.996,0 -14.996,0 -14.996,0 -52.472,0 -78.711,18.731 -78.711,59.961 -18.738,0 -18.738,0 -18.738,0 0,-52.472 33.731,-82.461 97.449,-82.461 14.996,0 14.996,0 14.996,0 63.723,0 97.458,29.989 97.458,82.461 0,56.231 -33.735,82.457 -104.954,82.457" /><path
         id="path70"
         style="fill:#a52d9c;fill-opacity:1;fill-rule:nonzero;stroke:none"
         d="m 843.359,839.609 c 0,18.743 0,18.743 0,18.743 -82.461,0 -82.461,0 -82.461,0 0,56.218 0,56.218 0,56.218 -18.742,0 -18.742,0 -18.742,0 0,-56.218 0,-56.218 0,-56.218 -48.722,0 -48.722,0 -48.722,0 0,-18.743 0,-18.743 0,-18.743 48.722,0 48.722,0 48.722,0 0,-176.168 0,-176.168 0,-176.168 0,-56.222 29.989,-89.961 86.211,-89.961 14.992,0 14.992,0 14.992,0 0,22.5 0,22.5 0,22.5 -14.992,0 -14.992,0 -14.992,0 -44.976,0 -67.469,22.481 -67.469,67.461 0,176.168 0,176.168 0,176.168 h 82.461" /><path
         id="path72"
         style="fill:#a52d9c;fill-opacity:1;fill-rule:nonzero;stroke:none"
         d="m 1266.91,858.352 c -7.49,3.75 -14.99,3.75 -26.23,3.75 -7.5,0 -7.5,0 -7.5,0 -33.73,0 -63.72,-14.993 -82.46,-44.981 0,41.231 0,41.231 0,41.231 -22.49,0 -22.49,0 -22.49,0 0,-281.122 0,-281.122 0,-281.122 22.49,0 22.49,0 22.49,0 0,146.18 0,146.18 0,146.18 0,41.238 3.75,56.219 3.75,63.719 14.99,33.73 44.98,56.23 78.71,56.23 7.5,0 7.5,0 7.5,0 11.24,0 18.74,-3.75 26.23,-3.75 v 18.743" /><path
         id="path74"
         style="fill:#a52d9c;fill-opacity:1;fill-rule:nonzero;stroke:none"
         d="m 1495.56,648.449 c -11.24,-29.988 -41.23,-52.469 -78.71,-52.469 -7.5,0 -7.5,0 -7.5,0 -33.73,0 -63.72,22.481 -78.72,52.469 -3.74,14.992 -3.74,37.481 -3.74,71.223 0,48.719 3.74,63.707 3.74,67.457 15,33.73 44.99,56.23 78.72,56.23 7.5,0 7.5,0 7.5,0 37.48,0 67.47,-22.5 78.71,-56.23 3.75,-7.5 7.5,-22.481 7.5,-67.457 0,-52.481 -3.75,-63.731 -7.5,-71.223 m 18.74,146.18 c -14.99,41.23 -52.47,67.473 -97.45,67.473 -7.5,0 -7.5,0 -7.5,0 -33.73,0 -63.72,-14.993 -82.46,-44.981 0,131.18 0,131.18 0,131.18 -22.49,0 -22.49,0 -22.49,0 0,-371.071 0,-371.071 0,-371.071 22.49,0 22.49,0 22.49,0 0,41.231 0,41.231 0,41.231 18.74,-26.231 48.73,-44.981 82.46,-44.981 7.5,0 7.5,0 7.5,0 44.98,0 82.46,29.989 97.45,71.219 3.75,7.492 7.5,26.242 7.5,74.973 0,44.976 -3.75,63.707 -7.5,74.957" /><path
         id="path76"
         style="fill:#a52d9c;fill-opacity:1;fill-rule:nonzero;stroke:none"
         d="m 1667.98,843.359 c -33.74,0 -67.47,-22.5 -78.72,-56.23 0,-7.5 -3.74,-22.481 -3.74,-67.457 0,-52.481 3.74,-63.731 3.74,-71.223 11.25,-29.988 44.98,-52.469 78.72,-52.469 7.49,0 7.49,0 7.49,0 37.49,0 67.47,22.481 78.72,52.469 3.74,14.992 7.49,37.481 7.49,71.223 0,48.719 -3.75,63.707 -7.49,67.457 -11.25,33.73 -41.23,56.23 -78.72,56.23 z m 7.49,-269.879 c -7.49,0 -7.49,0 -7.49,0 -41.23,0 -82.46,29.989 -97.46,71.219 -3.75,7.492 -7.49,26.242 -7.49,74.973 0,44.976 3.74,63.707 7.49,74.957 15,41.23 56.23,67.473 97.46,67.473 7.49,0 7.49,0 7.49,0 44.98,0 82.46,-26.243 97.46,-67.473 3.74,-11.25 7.49,-29.981 7.49,-74.957 0,-48.731 -3.75,-67.481 -7.49,-74.973 -15,-41.23 -52.48,-71.219 -97.46,-71.219" /><path
         id="path78"
         style="fill:#a52d9c;fill-opacity:1;fill-rule:nonzero;stroke:none"
         d="m 1945.34,839.609 c 0,18.743 0,18.743 0,18.743 -86.2,0 -86.2,0 -86.2,0 0,56.218 0,56.218 0,56.218 -18.74,0 -18.74,0 -18.74,0 0,-56.218 0,-56.218 0,-56.218 -44.98,0 -44.98,0 -44.98,0 0,-18.743 0,-18.743 0,-18.743 44.98,0 44.98,0 44.98,0 0,-176.168 0,-176.168 0,-176.168 0,-56.222 29.98,-89.961 86.2,-89.961 18.74,0 18.74,0 18.74,0 0,22.5 0,22.5 0,22.5 -18.74,0 -18.74,0 -18.74,0 -44.97,0 -67.46,22.481 -67.46,67.461 0,176.168 0,176.168 0,176.168 h 86.2" /><path
         id="path80"
         style="fill:#a52d9c;fill-opacity:1;fill-rule:nonzero;stroke:none"
         d="m 2110.27,839.609 c 0,18.743 0,18.743 0,18.743 -82.46,0 -82.46,0 -82.46,0 0,56.218 0,56.218 0,56.218 -18.74,0 -18.74,0 -18.74,0 0,-56.218 0,-56.218 0,-56.218 -48.73,0 -48.73,0 -48.73,0 0,-18.743 0,-18.743 0,-18.743 48.73,0 48.73,0 48.73,0 0,-176.168 0,-176.168 0,-176.168 0,-56.222 29.98,-89.961 86.2,-89.961 15,0 15,0 15,0 0,22.5 0,22.5 0,22.5 -15,0 -15,0 -15,0 -44.97,0 -67.46,22.481 -67.46,67.461 0,176.168 0,176.168 0,176.168 h 82.46" /><path
         id="path82"
         style="fill:#a52d9c;fill-opacity:1;fill-rule:nonzero;stroke:none"
         d="m 2162.74,787.129 c 11.25,33.73 44.98,56.23 78.72,56.23 7.5,0 7.5,0 7.5,0 33.73,0 67.47,-22.5 78.71,-56.23 0,-3.75 3.75,-14.988 7.5,-48.731 -179.92,0 -179.92,0 -179.92,0 3.74,29.993 7.49,41.231 7.49,48.731 m 172.43,-138.68 c 0,-3.75 0,-3.75 0,-3.75 -11.24,-29.988 -48.73,-48.719 -86.21,-48.719 -7.5,0 -7.5,0 -7.5,0 -33.74,0 -67.47,18.731 -78.72,52.469 0,7.492 -7.49,18.742 -7.49,71.223 v 0 c 198.66,0 198.66,0 198.66,0 0,11.238 0,11.238 0,11.238 0,37.481 -3.75,56.219 -7.49,63.719 -15,41.23 -52.48,67.473 -97.46,67.473 -7.5,0 -7.5,0 -7.5,0 -44.98,0 -82.47,-26.243 -97.46,-67.473 -3.75,-11.25 -7.49,-29.981 -7.49,-74.957 0,-48.731 3.74,-67.481 7.49,-74.973 14.99,-41.23 52.48,-71.219 97.46,-71.219 7.5,0 7.5,0 7.5,0 48.73,0 89.96,26.239 104.95,67.469 0,7.5 0,7.5 0,7.5 h -18.74" /><path
         id="path84"
         style="fill:#a52d9c;fill-opacity:1;fill-rule:nonzero;stroke:none"
         d="m 2593.8,577.23 c 22.49,0 22.49,0 22.49,0 0,146.18 0,146.18 0,146.18 0,48.731 -7.5,67.469 -11.25,78.719 -11.24,37.48 -44.98,59.973 -93.7,59.973 -7.5,0 -7.5,0 -7.5,0 -33.73,0 -63.72,-14.993 -82.46,-44.981 0,41.231 0,41.231 0,41.231 -22.49,0 -22.49,0 -22.49,0 0,-281.122 0,-281.122 0,-281.122 22.49,0 22.49,0 22.49,0 0,142.442 0,142.442 0,142.442 0,44.976 3.75,59.957 3.75,67.457 14.99,33.73 44.98,56.23 78.71,56.23 7.5,0 7.5,0 7.5,0 37.48,0 63.72,-18.75 74.96,-48.73 3.75,-3.75 7.5,-18.738 7.5,-71.219 V 577.23" /><path
         id="path86"
         style="fill:#a52d9c;fill-opacity:1;fill-rule:nonzero;stroke:none"
         d="m 892.09,787.129 c 14.988,33.73 44.98,56.23 78.711,56.23 7.5,0 7.5,0 7.5,0 37.479,0 67.469,-22.5 78.709,-56.23 3.75,-3.75 7.5,-14.988 7.5,-44.981 -176.17,0 -176.17,0 -176.17,0 0,26.243 3.75,37.481 3.75,44.981 m 172.42,-138.68 v 0 c -11.25,-33.738 -44.98,-52.469 -86.209,-52.469 -7.5,0 -7.5,0 -7.5,0 -33.731,0 -63.723,22.481 -78.711,52.469 0,7.492 -3.75,22.492 -3.75,71.223 v 0 c 194.91,0 194.91,0 194.91,0 0,11.238 0,11.238 0,11.238 0,37.481 -3.75,56.219 -7.5,63.719 -14.99,41.23 -52.47,67.473 -97.449,67.473 -7.5,0 -7.5,0 -7.5,0 -41.231,0 -82.461,-26.243 -97.449,-67.473 -3.75,-11.25 -7.5,-29.981 -7.5,-74.957 0,-48.731 3.75,-67.481 7.5,-74.973 14.988,-41.23 56.218,-71.219 97.449,-71.219 7.5,0 7.5,0 7.5,0 48.729,0 89.959,26.239 104.949,67.469 3.75,7.5 3.75,7.5 3.75,7.5 h -22.49" /></g></g></svg>