<?xml version="1.0" encoding="UTF-8" standalone="yes"?>
<svg xmlns="http://www.w3.org/2000/svg" xmlns:xlink="http://www.w3.org/1999/xlink" width="337.3333333333333px" height="106.66666666666666px" viewBox="0 0 253 80" version="1.1">
  <defs>
    <linearGradient id="linear0" gradientUnits="userSpaceOnUse" x1="466.3144" y1="-18.8674" x2="483.9781" y2="318.1769" gradientTransform="matrix(0.266316,0,0,0.266667,0,0)">
      <stop offset="0" style="stop-color:rgb(100%,48.627451%,62.745098%);stop-opacity:1;"/>
      <stop offset="0.096" style="stop-color:rgb(100%,42.352941%,60.784314%);stop-opacity:1;"/>
      <stop offset="0.3937" style="stop-color:rgb(89.411765%,27.45098%,45.490196%);stop-opacity:1;"/>
      <stop offset="0.579" style="stop-color:rgb(100%,68.627451%,78.039216%);stop-opacity:1;"/>
    </linearGradient>
  </defs>
  <g id="surface1">
    <path style=" stroke:none;fill-rule:nonzero;fill:url(#linear0);" d="M 7.121094 1.113281 L 245.957031 1.113281 L 245.957031 78.703125 L 7.121094 78.703125 Z M 7.121094 1.113281 "/>
    <path style=" stroke:none;fill-rule:nonzero;fill:rgb(100%,100%,100%);fill-opacity:1;" d="M 165.484375 9.816406 C 167.742188 9.066406 170.441406 9.066406 172.464844 10.449219 C 174.148438 11.628906 174.640625 14.070312 173.652344 15.847656 C 171.566406 19.652344 166.03125 21.40625 162.347656 18.910156 C 160.523438 17.757812 160.160156 15.191406 161.128906 13.367188 C 162.03125 11.65625 163.695312 10.453125 165.484375 9.816406 Z M 165.484375 9.816406 "/>
    <path style=" stroke:none;fill-rule:nonzero;fill:rgb(100%,100%,100%);fill-opacity:1;" d="M 30.824219 21.191406 C 33.058594 20.371094 35.5 20.160156 37.851562 20.488281 C 42.203125 21.132812 45.929688 24.863281 46.464844 29.257812 C 46.984375 33.691406 45.355469 37.972656 44.574219 42.285156 C 43.285156 47.699219 42.910156 53.527344 39.925781 58.375 C 37.636719 62.1875 33.164062 64.875 28.648438 64.125 C 25.851562 63.855469 23.617188 62.039062 21.554688 60.285156 C 20.488281 65.527344 19.691406 70.847656 18.171875 75.992188 C 14.496094 76.375 10.804688 76.148438 7.121094 76.117188 L 7.121094 68.484375 C 8.589844 63.589844 9.453125 58.550781 10.636719 53.585938 C 12.523438 44.71875 14.726562 35.921875 16.359375 27.003906 C 18.503906 26.5625 20.675781 26.152344 22.699219 25.289062 C 25.5 24.109375 27.953125 22.214844 30.824219 21.191406 M 31.152344 30.007812 C 28.800781 30.308594 27.496094 32.707031 26.976562 34.800781 C 25.992188 38.855469 25.222656 42.964844 24.332031 47.039062 C 23.980469 48.804688 23.53125 50.625 23.871094 52.433594 C 24.171875 53.976562 25.945312 55.089844 27.4375 54.417969 C 29.464844 53.566406 30.402344 51.367188 30.859375 49.355469 C 31.820312 45.136719 32.75 40.90625 33.6875 36.679688 C 34.003906 35.09375 34.40625 33.386719 33.816406 31.8125 C 33.417969 30.742188 32.335938 29.859375 31.152344 30.007812 Z M 31.152344 30.007812 "/>
    <path style=" stroke:none;fill-rule:nonzero;fill:rgb(100%,100%,100%);fill-opacity:1;" d="M 56.941406 26.5625 C 62.222656 19.671875 73.363281 18.15625 80.15625 23.660156 C 82.28125 25.484375 84.933594 26.414062 87.667969 26.855469 C 84.523438 38.824219 82.4375 51.042969 79.652344 63.09375 C 76.765625 63.21875 73.871094 63.203125 70.980469 63.09375 C 70.496094 62.101562 70.023438 61.101562 69.558594 60.101562 C 67.257812 61.898438 64.753906 63.644531 61.765625 63.945312 C 57.433594 64.722656 52.476562 62.480469 50.992188 58.160156 C 48.820312 52.210938 51.234375 46.003906 52.453125 40.132812 C 53.671875 35.542969 53.992188 30.46875 56.941406 26.5625 M 68.851562 29.859375 C 66.992188 30.875 66.355469 33.078125 65.863281 34.988281 C 64.847656 39.503906 63.988281 44.054688 62.953125 48.558594 C 62.636719 50.222656 62.132812 52.265625 63.433594 53.652344 C 64.488281 54.953125 66.5 54.792969 67.738281 53.847656 C 69.71875 52.519531 70.261719 50.027344 70.75 47.847656 C 71.546875 43.910156 72.503906 40.003906 73.375 36.082031 C 73.6875 34.316406 74.167969 32.3125 73.203125 30.660156 C 72.300781 29.226562 70.242188 29.203125 68.851562 29.859375 Z M 68.851562 29.859375 "/>
    <path style=" stroke:none;fill-rule:nonzero;fill:rgb(100%,100%,100%);fill-opacity:1;" d="M 189.386719 20.585938 C 194.023438 20.035156 199.269531 19.71875 203.238281 22.644531 C 206.535156 24.894531 208 29.078125 207.621094 32.957031 C 207.230469 36.851562 206.140625 40.640625 205.429688 44.484375 C 204.382812 49.339844 203.859375 54.707031 200.371094 58.554688 C 196.285156 63.367188 189.429688 64.8125 183.414062 63.839844 C 178.695312 63.050781 174.375 59.683594 173.011719 55.011719 C 171.546875 50.519531 173.425781 45.949219 174.273438 41.542969 C 175.496094 36.601562 175.941406 31.246094 178.886719 26.941406 C 181.257812 23.417969 185.222656 21.191406 189.386719 20.585938 M 190.472656 30.007812 C 188.785156 31.039062 188.386719 33.152344 187.957031 34.933594 C 187.003906 39.789062 185.871094 44.617188 184.851562 49.464844 C 184.453125 51.101562 184.597656 53.167969 186.199219 54.125 C 188.339844 55.257812 191.214844 53.917969 191.726562 51.535156 C 193.058594 46.835938 193.785156 41.984375 195 37.257812 C 195.371094 35.230469 196.257812 33.066406 195.484375 31.042969 C 194.640625 29.144531 192.066406 29.195312 190.472656 30.007812 Z M 190.472656 30.007812 "/>
    <path style=" stroke:none;fill-rule:nonzero;fill:rgb(100%,100%,100%);fill-opacity:1;" d="M 230.019531 20.785156 C 233.820312 19.863281 238.117188 19.980469 241.542969 22.039062 C 243.734375 23.335938 244.960938 25.6875 245.957031 27.941406 L 245.957031 35.804688 C 243.546875 44.800781 242.167969 54.039062 239.917969 63.074219 C 235.792969 63.261719 231.660156 63.179688 227.535156 63.128906 C 228.9375 55.441406 230.886719 47.863281 232.464844 40.210938 C 233.035156 37.339844 234.105469 34.464844 233.792969 31.507812 C 233.167969 28.726562 228.941406 29.109375 227.773438 31.292969 C 226.117188 34.226562 225.960938 37.703125 225.164062 40.921875 C 223.5 48.292969 222.1875 55.757812 220.324219 63.078125 C 216.320312 63.25 212.3125 63.195312 208.3125 63.121094 C 208.953125 57.960938 210.398438 52.957031 211.40625 47.863281 C 212.777344 40.902344 214.722656 34.046875 215.566406 26.988281 C 216.957031 26.632812 218.355469 26.296875 219.710938 25.835938 C 223.386719 24.632812 226.234375 21.707031 230.019531 20.785156 Z M 230.019531 20.785156 "/>
    <path style=" stroke:none;fill-rule:nonzero;fill:rgb(100%,100%,100%);fill-opacity:1;" d="M 96.433594 24.628906 C 99.4375 22.035156 103.574219 21.359375 107.425781 21.425781 C 111.464844 21.488281 115.511719 21.34375 119.550781 21.488281 C 118.972656 24.347656 118.308594 27.183594 117.597656 30.007812 C 114.597656 30.335938 111.554688 29.832031 108.574219 30.304688 C 107.050781 30.574219 106.28125 32.554688 107.09375 33.832031 C 108.324219 35.910156 110.191406 37.507812 111.582031 39.472656 C 113.582031 42.214844 115.511719 45.386719 115.292969 48.921875 C 115.027344 54.550781 111.730469 60.0625 106.628906 62.578125 C 100.714844 65.460938 92.171875 64.8125 88.292969 58.941406 C 88.382812 55.839844 89.316406 52.828125 89.949219 49.804688 C 92.179688 51.488281 93.933594 54.257812 96.929688 54.570312 C 99.378906 54.917969 101.691406 52.550781 101.382812 50.117188 C 101.085938 47.871094 99.535156 46.082031 98.230469 44.335938 C 95.988281 41.417969 93.289062 38.453125 92.949219 34.609375 C 92.683594 31.03125 93.5625 27.019531 96.433594 24.628906 Z M 96.433594 24.628906 "/>
    <path style=" stroke:none;fill-rule:nonzero;fill:rgb(100%,100%,100%);fill-opacity:1;" d="M 127.738281 24.613281 C 130.621094 22.171875 134.515625 21.402344 138.199219 21.429688 C 142.402344 21.464844 146.605469 21.386719 150.816406 21.457031 C 150.242188 24.316406 149.605469 27.164062 148.9375 30.007812 C 146.082031 30.300781 143.203125 29.925781 140.355469 30.21875 C 138.628906 30.230469 137.457031 32.382812 138.394531 33.832031 C 139.644531 35.90625 141.515625 37.5 142.90625 39.472656 C 144.78125 42.09375 146.648438 45.046875 146.601562 48.390625 C 146.539062 54.203125 143.203125 59.980469 137.949219 62.585938 C 131.925781 65.550781 123.621094 64.683594 119.480469 58.980469 C 119.820312 55.792969 120.574219 52.679688 121.269531 49.558594 C 123.339844 51.476562 125.191406 54.175781 128.207031 54.550781 C 131.109375 54.941406 133.652344 51.636719 132.414062 48.9375 C 130.398438 44.117188 125.464844 40.914062 124.394531 35.621094 C 123.804688 31.753906 124.585938 27.222656 127.738281 24.613281 Z M 127.738281 24.613281 "/>
    <path style=" stroke:none;fill-rule:nonzero;fill:rgb(100%,100%,100%);fill-opacity:1;" d="M 160.050781 21.960938 C 163.9375 21.886719 167.828125 21.863281 171.714844 21.964844 C 171.304688 25.253906 170.425781 28.464844 169.746094 31.707031 C 167.453125 42.160156 165.378906 52.667969 162.996094 63.101562 C 158.996094 63.226562 154.988281 63.160156 150.984375 63.136719 C 153.203125 51.632812 156.027344 40.238281 158.441406 28.765625 C 158.925781 26.484375 159.371094 24.191406 160.050781 21.960938 Z M 160.050781 21.960938 "/>
  </g>
</svg>