<?xml version="1.0" encoding="utf-8"?>
<!-- Generator: Adobe Illustrator 17.0.0, SVG Export Plug-In . SVG Version: 6.00 Build 0)  -->
<!DOCTYPE svg PUBLIC "-//W3C//DTD SVG 1.0//EN" "http://www.w3.org/TR/2001/REC-SVG-20010904/DTD/svg10.dtd">
<svg version="1.0" id="Ebene_1" xmlns="http://www.w3.org/2000/svg" xmlns:xlink="http://www.w3.org/1999/xlink" x="0px" y="0px"
	 width="950px" height="300px" viewBox="0 0 950 300" enable-background="new 0 0 950 300" xml:space="preserve">
<linearGradient id="SVGID_1_" gradientUnits="userSpaceOnUse" x1="466.3144" y1="-18.8674" x2="483.9781" y2="318.1769">
	<stop  offset="0" style="stop-color:#FF7CA0"/>
	<stop  offset="0.096" style="stop-color:#FF6C9B"/>
	<stop  offset="0.3937" style="stop-color:#E44674"/>
	<stop  offset="0.579" style="stop-color:#FFAFC7"/>
</linearGradient>
<linearGradient id="SVGID_2_" gradientUnits="userSpaceOnUse" x1="26.2343" y1="149.6548" x2="924.0582" y2="149.6548">
	<stop  offset="0" style="stop-color:#000000;stop-opacity:0"/>
	<stop  offset="1" style="stop-color:#1D1D1B;stop-opacity:0"/>
</linearGradient>
<rect x="26.734" y="4.17" fill="url(#SVGID_1_)" stroke="url(#SVGID_2_)" stroke-miterlimit="10" width="896.824" height="290.97"/>
<g id="_x23_ffffffff">
	<path fill="#FFFFFF" d="M621.388,36.814c8.47-2.81,18.614-2.81,26.207,2.372c6.318,4.424,8.171,13.572,4.464,20.248
		c-7.832,14.269-28.619,20.846-42.45,11.479c-6.856-4.325-8.211-13.951-4.584-20.786C608.414,43.71,614.672,39.206,621.388,36.814z"
		/>
	<path fill="#FFFFFF" d="M115.739,79.463c8.39-3.069,17.558-3.866,26.387-2.631c16.342,2.411,30.333,16.402,32.345,32.884
		c1.953,16.621-4.165,32.684-7.095,48.847c-4.843,20.308-6.258,42.171-17.458,60.346c-8.59,14.289-25.39,24.374-42.35,21.564
		c-10.503-1.016-18.893-7.832-26.626-14.409c-4.006,19.67-6.995,39.62-12.715,58.911c-13.791,1.435-27.662,0.578-41.493,0.458
		v-28.619c5.52-18.355,8.769-37.248,13.213-55.862c7.075-33.262,15.346-66.245,21.484-99.687c8.051-1.654,16.203-3.189,23.796-6.437
		C95.75,90.405,104.957,83.31,115.739,79.463 M116.975,112.526c-8.829,1.136-13.731,10.124-15.684,17.976
		c-3.687,15.206-6.577,30.612-9.925,45.897c-1.315,6.617-3.009,13.452-1.734,20.228c1.136,5.78,7.792,9.965,13.393,7.434
		c7.613-3.189,11.141-11.439,12.854-18.973c3.607-15.824,7.095-31.688,10.622-47.532c1.176-5.959,2.69-12.356,0.478-18.255
		C125.485,115.277,121.419,111.968,116.975,112.526z"/>
	<path fill="#FFFFFF" d="M213.812,99.612c19.83-25.848,61.662-31.528,87.171-10.881c7.972,6.836,17.936,10.323,28.2,11.978
		c-11.798,44.881-19.63,90.699-30.093,135.899c-10.842,0.458-21.703,0.399-32.565,0c-1.814-3.727-3.587-7.474-5.341-11.22
		c-8.629,6.736-18.036,13.273-29.256,14.409c-16.262,2.91-34.876-5.501-40.457-21.703c-8.151-22.301,0.917-45.579,5.481-67.601
		C201.535,133.293,202.731,114.26,213.812,99.612 M258.533,111.968c-6.975,3.807-9.367,12.077-11.22,19.232
		c-3.807,16.94-7.035,34-10.921,50.9c-1.196,6.238-3.089,13.891,1.794,19.092c3.966,4.883,11.519,4.285,16.163,0.737
		c7.434-4.982,9.486-14.329,11.32-22.5c2.989-14.768,6.577-29.416,9.845-44.124c1.176-6.617,2.989-14.13-0.638-20.328
		C271.487,109.597,263.755,109.517,258.533,111.968z"/>
	<path fill="#FFFFFF" d="M711.13,77.191c17.418-2.053,37.109-3.248,52.016,7.733c12.376,8.43,17.877,24.115,16.462,38.663
		c-1.475,14.608-5.56,28.818-8.231,43.227c-3.926,18.215-5.899,38.344-18.993,52.773c-15.346,18.036-41.094,23.457-63.674,19.81
		c-17.717-2.95-33.94-15.585-39.062-33.103c-5.501-16.84,1.555-33.98,4.743-50.501c4.584-18.534,6.258-38.623,17.319-54.766
		C680.619,87.814,695.506,79.463,711.13,77.191 M715.216,112.526c-6.338,3.866-7.832,11.798-9.447,18.475
		c-3.587,18.215-7.832,36.311-11.659,54.487c-1.495,6.138-0.957,13.891,5.062,17.478c8.032,4.245,18.833-0.777,20.747-9.706
		c5.002-17.618,7.733-35.813,12.296-53.55c1.395-7.593,4.723-15.704,1.814-23.298C730.861,109.298,721.195,109.477,715.216,112.526z
		"/>
	<path fill="#FFFFFF" d="M863.71,77.949c14.269-3.468,30.412-3.029,43.267,4.703c8.231,4.863,12.835,13.672,16.581,22.122v29.496
		c-9.048,33.74-14.23,68.378-22.68,102.258c-15.485,0.698-31.01,0.399-46.495,0.199c5.261-28.818,12.576-57.237,18.514-85.936
		c2.132-10.762,6.158-21.544,4.982-32.644c-2.352-10.423-18.215-8.988-22.6-0.797c-6.218,11.001-6.816,24.035-9.805,36.112
		c-6.238,27.642-11.18,55.623-18.176,83.086c-15.027,0.638-30.074,0.438-45.1,0.159c2.411-19.351,7.832-38.125,11.619-57.217
		c5.142-26.108,12.456-51.816,15.625-78.283c5.221-1.335,10.463-2.591,15.565-4.325C838.798,92.378,849.5,81.397,863.71,77.949z"/>
	<path fill="#FFFFFF" d="M362.107,92.358c11.28-9.726,26.805-12.257,41.274-12.017c15.166,0.239,30.353-0.299,45.519,0.239
		c-2.172,10.722-4.663,21.364-7.334,31.947c-11.26,1.236-22.68-0.658-33.88,1.116c-5.72,1.016-8.609,8.43-5.56,13.233
		c4.624,7.792,11.639,13.771,16.86,21.145c7.513,10.284,14.748,22.181,13.931,35.435c-0.996,21.105-13.373,41.772-32.525,51.219
		c-22.221,10.802-54.288,8.37-68.856-13.652c0.339-11.619,3.846-22.919,6.218-34.259c8.37,6.318,14.967,16.701,26.207,17.877
		c9.207,1.295,17.877-7.573,16.721-16.701c-1.116-8.43-6.935-15.126-11.838-21.683c-8.41-10.941-18.554-22.062-19.83-36.471
		C348.016,116.373,351.325,101.326,362.107,92.358z"/>
	<path fill="#FFFFFF" d="M479.65,92.298c10.822-9.148,25.45-12.037,39.281-11.938c15.784,0.14,31.568-0.159,47.372,0.1
		c-2.152,10.722-4.544,21.404-7.055,32.066c-10.722,1.096-21.524-0.299-32.226,0.797c-6.477,0.04-10.881,8.111-7.354,13.552
		c4.683,7.772,11.719,13.751,16.94,21.145c7.035,9.825,14.05,20.906,13.871,33.442c-0.239,21.803-12.755,43.466-32.485,53.231
		c-22.62,11.121-53.809,7.872-69.354-13.512c1.275-11.958,4.105-23.636,6.716-35.335c7.772,7.195,14.728,17.319,26.048,18.714
		c10.901,1.475,20.448-10.921,15.804-21.045c-7.573-18.076-26.088-30.093-30.113-49.943
		C464.883,119.083,467.812,102.083,479.65,92.298z"/>
	<path fill="#FFFFFF" d="M600.981,82.353c14.588-0.279,29.197-0.359,43.805,0.02c-1.554,12.336-4.843,24.374-7.394,36.531
		c-8.609,39.201-16.402,78.602-25.35,117.723c-15.027,0.478-30.073,0.219-45.1,0.14c8.331-43.147,18.933-85.876,28.001-128.903
		C596.755,99.313,598.43,90.723,600.981,82.353z"/>
</g>
<g>
</g>
<g>
</g>
<g>
</g>
<g>
</g>
<g>
</g>
</svg>
