<?xml version="1.0" encoding="UTF-8" standalone="yes"?>
<svg xmlns="http://www.w3.org/2000/svg" xmlns:xlink="http://www.w3.org/1999/xlink" width="230.66666666666666px" height="106.66666666666666px" viewBox="0 0 173 80" version="1.1">
  <g id="surface1">
    <path style=" stroke:none;fill-rule:nonzero;fill:rgb(98.431373%,85.490196%,8.627451%);fill-opacity:1;" d="M 9.128906 16.742188 C 10.210938 16.410156 11.347656 16.488281 12.464844 16.496094 C 21.023438 16.5 29.582031 16.488281 38.144531 16.5 C 38.175781 30.203125 38.09375 43.90625 38.179688 57.609375 C 30.1875 57.738281 22.1875 57.625 14.195312 57.664062 C 12.507812 57.65625 10.820312 57.703125 9.136719 57.597656 C 9.183594 43.980469 9.199219 30.355469 9.128906 16.742188 M 13.671875 20.78125 C 13.65625 31.671875 13.691406 42.5625 13.648438 53.453125 C 20.414062 53.46875 27.179688 53.457031 33.941406 53.457031 C 33.9375 42.5625 33.9375 31.667969 33.941406 20.773438 C 27.183594 20.753906 20.429688 20.734375 13.671875 20.78125 Z M 13.671875 20.78125 "/>
    <path style=" stroke:none;fill-rule:nonzero;fill:rgb(9.803922%,11.372549%,10.980392%);fill-opacity:1;" d="M 45.621094 16.5 C 46.203125 16.5 46.789062 16.5 47.378906 16.5 C 49.707031 19.828125 51.980469 23.195312 54.109375 26.65625 C 54.152344 23.265625 54.109375 19.878906 54.128906 16.488281 C 54.785156 16.492188 55.441406 16.5 56.105469 16.507812 C 56.105469 21.296875 56.101562 26.085938 56.105469 30.875 C 55.5 30.878906 54.894531 30.882812 54.285156 30.882812 C 51.996094 27.550781 49.695312 24.222656 47.617188 20.75 C 47.566406 24.128906 47.59375 27.503906 47.605469 30.878906 C 46.941406 30.878906 46.277344 30.878906 45.613281 30.878906 C 45.625 26.085938 45.609375 21.292969 45.621094 16.5 Z M 45.621094 16.5 "/>
    <path style=" stroke:none;fill-rule:nonzero;fill:rgb(9.803922%,11.372549%,10.980392%);fill-opacity:1;" d="M 56.992188 30.886719 C 58.660156 26.105469 60.226562 21.289062 61.863281 16.5 C 62.523438 16.5 63.179688 16.492188 63.835938 16.480469 C 65.402344 21.261719 66.796875 26.101562 68.367188 30.878906 C 67.4375 30.882812 66.515625 30.882812 65.585938 30.882812 C 65.222656 29.601562 64.863281 28.316406 64.503906 27.035156 C 63.121094 26.992188 61.738281 27 60.351562 27.027344 C 59.984375 28.316406 59.554688 29.589844 59.175781 30.875 C 58.445312 30.878906 57.71875 30.882812 56.992188 30.886719 M 62.566406 19.625 C 62.121094 21.492188 61.589844 23.332031 61.011719 25.15625 C 62.054688 25.179688 63.105469 25.175781 64.15625 25.164062 C 63.523438 23.347656 63.214844 21.4375 62.566406 19.625 Z M 62.566406 19.625 "/>
    <path style=" stroke:none;fill-rule:nonzero;fill:rgb(9.803922%,11.372549%,10.980392%);fill-opacity:1;" d="M 67.070312 16.5 C 70.339844 16.5 73.609375 16.496094 76.875 16.5 C 76.878906 17.179688 76.878906 17.863281 76.882812 18.539062 C 75.640625 18.546875 74.402344 18.542969 73.160156 18.542969 C 73.179688 22.652344 73.152344 26.769531 73.179688 30.878906 C 72.367188 30.882812 71.554688 30.882812 70.746094 30.878906 C 70.773438 26.765625 70.753906 22.652344 70.757812 18.535156 C 69.527344 18.546875 68.296875 18.546875 67.070312 18.546875 C 67.070312 17.863281 67.070312 17.179688 67.070312 16.5 Z M 67.070312 16.5 "/>
    <path style=" stroke:none;fill-rule:nonzero;fill:rgb(9.803922%,11.372549%,10.980392%);fill-opacity:1;" d="M 84.6875 17.910156 C 86.703125 16.5625 89.464844 16.621094 91.480469 17.953125 C 91.214844 18.515625 90.960938 19.074219 90.710938 19.644531 C 89.148438 18.800781 87.058594 18.609375 85.679688 19.902344 C 83.777344 21.835938 83.703125 25.132812 85.078125 27.382812 C 85.972656 28.882812 87.9375 29.589844 89.550781 28.84375 C 89.519531 27.441406 89.539062 26.042969 89.511719 24.644531 C 90.300781 24.621094 91.09375 24.621094 91.890625 24.625 C 91.875 26.515625 91.855469 28.410156 91.90625 30.296875 C 89.5 31.34375 86.417969 31.617188 84.242188 29.894531 C 80.675781 26.984375 80.773438 20.492188 84.6875 17.910156 Z M 84.6875 17.910156 "/>
    <path style=" stroke:none;fill-rule:nonzero;fill:rgb(9.803922%,11.372549%,10.980392%);fill-opacity:1;" d="M 106.019531 17.191406 C 107.742188 16.5625 109.773438 17.019531 111.097656 18.28125 C 112.652344 19.683594 113.347656 21.832031 113.320312 23.886719 C 113.332031 26.023438 112.722656 28.316406 111.101562 29.804688 C 109.199219 31.691406 105.746094 31.566406 103.949219 29.589844 C 102.296875 27.804688 101.792969 25.203125 102.023438 22.84375 C 102.261719 20.457031 103.652344 17.992188 106.019531 17.191406 M 106.359375 19.285156 C 105.089844 20.0625 104.578125 21.636719 104.535156 23.058594 C 104.484375 24.753906 104.476562 26.625 105.554688 28.046875 C 106.292969 29.128906 107.914062 29.515625 109.007812 28.738281 C 110.261719 27.894531 110.640625 26.300781 110.800781 24.894531 C 110.929688 23.296875 110.8125 21.558594 109.898438 20.191406 C 109.183594 19.039062 107.535156 18.546875 106.359375 19.285156 Z M 106.359375 19.285156 "/>
    <path style=" stroke:none;fill-rule:nonzero;fill:rgb(9.803922%,11.372549%,10.980392%);fill-opacity:1;" d="M 94.203125 30.875 C 94.257812 26.304688 94.183594 21.730469 94.238281 17.15625 C 96.296875 17.207031 98.355469 17.164062 100.410156 17.191406 C 100.414062 17.84375 100.386719 18.5 100.222656 19.140625 C 99.011719 19.082031 97.804688 19.09375 96.59375 19.105469 C 96.601562 20.324219 96.601562 21.542969 96.601562 22.765625 C 97.820312 22.757812 99.046875 22.753906 100.265625 22.757812 C 100.265625 23.390625 100.269531 24.027344 100.273438 24.660156 C 99.039062 24.652344 97.804688 24.640625 96.570312 24.683594 C 96.617188 26.117188 96.601562 27.554688 96.601562 28.992188 C 98.09375 28.984375 99.589844 28.984375 101.085938 28.988281 C 101.085938 29.621094 101.089844 30.246094 101.09375 30.875 C 98.796875 30.886719 96.5 30.886719 94.203125 30.875 Z M 94.203125 30.875 "/>
    <path style=" stroke:none;fill-rule:nonzero;fill:rgb(9.803922%,11.372549%,10.980392%);fill-opacity:1;" d="M 137.957031 27.769531 C 139.957031 27.773438 141.957031 27.761719 143.960938 27.777344 C 143.84375 32.484375 143.945312 37.191406 143.949219 41.894531 C 143.855469 44.3125 143.882812 46.726562 143.96875 49.136719 C 143.90625 51.953125 143.851562 54.765625 144 57.578125 C 141.984375 57.648438 139.96875 57.605469 137.953125 57.605469 C 137.972656 47.660156 137.964844 37.710938 137.957031 27.769531 Z M 137.957031 27.769531 "/>
    <path style=" stroke:none;fill-rule:nonzero;fill:rgb(9.803922%,11.372549%,10.980392%);fill-opacity:1;" d="M 51.273438 38.742188 C 52.257812 37.316406 53.625 36.109375 55.351562 35.726562 C 58.320312 34.980469 61.746094 35.53125 64.03125 37.675781 C 66.480469 39.832031 67.429688 43.195312 67.550781 46.359375 C 67.6875 49.710938 66.824219 53.316406 64.359375 55.726562 C 60.960938 59.160156 54.507812 59.011719 51.582031 55.03125 C 51.664062 58.46875 51.59375 61.902344 51.625 65.339844 C 49.621094 65.351562 47.617188 65.355469 45.613281 65.335938 C 45.625 55.574219 45.621094 45.8125 45.613281 36.050781 C 47.507812 36.097656 49.40625 35.882812 51.292969 36.058594 C 51.28125 36.953125 51.261719 37.84375 51.273438 38.742188 M 54.453125 40.324219 C 52.417969 41.269531 51.542969 43.589844 51.417969 45.703125 C 51.292969 47.925781 51.460938 50.414062 52.988281 52.167969 C 54.765625 54.203125 58.347656 54.21875 60.074219 52.109375 C 61.660156 50.238281 61.652344 47.59375 61.46875 45.285156 C 61.296875 43.082031 60.023438 40.742188 57.796875 40.09375 C 56.695312 39.863281 55.492188 39.863281 54.453125 40.324219 Z M 54.453125 40.324219 "/>
    <path style=" stroke:none;fill-rule:nonzero;fill:rgb(9.803922%,11.372549%,10.980392%);fill-opacity:1;" d="M 70.351562 39.914062 C 72.574219 36.648438 76.707031 35.015625 80.582031 35.46875 C 83.507812 35.679688 86.277344 37.351562 87.839844 39.832031 C 89.46875 42.300781 89.984375 45.347656 89.84375 48.257812 C 84.652344 48.289062 79.457031 48.257812 74.269531 48.277344 C 74.417969 49.863281 74.722656 51.648438 76.085938 52.667969 C 78.613281 54.503906 82.84375 53.859375 84.234375 50.890625 C 85.984375 50.894531 87.738281 50.816406 89.488281 50.921875 C 88.699219 53.09375 87.554688 55.292969 85.519531 56.535156 C 82.75 58.28125 79.246094 58.472656 76.117188 57.785156 C 73.214844 57.117188 70.675781 55.074219 69.464844 52.34375 C 67.707031 48.414062 67.898438 43.511719 70.351562 39.914062 M 75.429688 41.507812 C 74.683594 42.304688 74.472656 43.40625 74.257812 44.433594 C 77.46875 44.4375 80.679688 44.441406 83.886719 44.429688 C 83.457031 42.910156 82.933594 41.160156 81.414062 40.386719 C 79.457031 39.554688 76.859375 39.804688 75.429688 41.507812 Z M 75.429688 41.507812 "/>
    <path style=" stroke:none;fill-rule:nonzero;fill:rgb(9.803922%,11.372549%,10.980392%);fill-opacity:1;" d="M 98.441406 35.882812 C 101.851562 35.003906 105.722656 35.289062 108.710938 37.285156 C 111.074219 38.84375 112.570312 41.5 113.007812 44.265625 C 113.574219 47.5 113.136719 51.046875 111.257812 53.796875 C 109.664062 56.144531 106.984375 57.640625 104.191406 57.992188 C 100.84375 58.480469 97.160156 57.902344 94.535156 55.644531 C 90.863281 52.476562 90.152344 46.953125 91.550781 42.515625 C 92.527344 39.3125 95.21875 36.761719 98.441406 35.882812 M 100.410156 40.164062 C 98.507812 40.78125 97.332031 42.683594 97.078125 44.59375 C 96.730469 46.980469 96.734375 49.652344 98.125 51.730469 C 99.808594 54.308594 104.097656 54.347656 105.898438 51.890625 C 107.003906 50.425781 107.214844 48.515625 107.28125 46.738281 C 107.195312 44.742188 106.875 42.488281 105.289062 41.089844 C 104 39.878906 102.050781 39.714844 100.410156 40.164062 Z M 100.410156 40.164062 "/>
    <path style=" stroke:none;fill-rule:nonzero;fill:rgb(9.803922%,11.372549%,10.980392%);fill-opacity:1;" d="M 120.171875 38.707031 C 121.167969 37.320312 122.496094 36.113281 124.203125 35.734375 C 127.097656 34.996094 130.417969 35.488281 132.707031 37.5 C 135.292969 39.648438 136.308594 43.117188 136.433594 46.367188 C 136.5625 49.710938 135.703125 53.324219 133.234375 55.722656 C 129.839844 59.160156 123.40625 59.003906 120.46875 55.046875 C 120.542969 58.476562 120.476562 61.914062 120.503906 65.347656 C 118.492188 65.347656 116.476562 65.347656 114.464844 65.347656 C 114.460938 55.585938 114.480469 45.820312 114.453125 36.058594 C 116.355469 35.863281 118.261719 36.105469 120.167969 36.042969 C 120.164062 36.925781 120.152344 37.816406 120.171875 38.707031 M 123.617188 40.210938 C 121.65625 40.933594 120.605469 43.003906 120.382812 44.980469 C 120.054688 47.347656 120.226562 50.011719 121.707031 51.984375 C 123.535156 54.339844 127.621094 54.246094 129.257812 51.714844 C 130.582031 49.667969 130.660156 47.027344 130.257812 44.6875 C 129.976562 42.679688 128.675781 40.652344 126.640625 40.082031 C 125.644531 39.894531 124.574219 39.859375 123.617188 40.210938 Z M 123.617188 40.210938 "/>
    <path style=" stroke:none;fill-rule:nonzero;fill:rgb(9.803922%,11.372549%,10.980392%);fill-opacity:1;" d="M 150.777344 37.015625 C 153.242188 35.4375 156.34375 35.117188 159.175781 35.660156 C 161.996094 36.21875 164.4375 38.199219 165.722656 40.753906 C 166.503906 42.148438 166.78125 43.730469 167.199219 45.253906 C 167.292969 46.253906 167.300781 47.257812 167.316406 48.257812 C 162.070312 48.308594 156.820312 48.222656 151.574219 48.300781 C 151.777344 49.824219 152.023438 51.53125 153.292969 52.5625 C 155.792969 54.53125 160.171875 53.921875 161.5625 50.882812 C 163.3125 50.910156 165.066406 50.789062 166.816406 50.910156 C 166.050781 53.109375 164.875 55.332031 162.8125 56.570312 C 159.902344 58.347656 156.210938 58.503906 152.96875 57.652344 C 149.75 56.765625 147.179688 54.101562 146.246094 50.914062 C 145.613281 49.019531 145.632812 46.984375 145.78125 45.015625 C 146.148438 41.792969 147.964844 38.695312 150.777344 37.015625 M 151.582031 44.425781 C 154.789062 44.441406 158 44.441406 161.207031 44.429688 C 160.871094 43.15625 160.472656 41.796875 159.476562 40.867188 C 158.257812 39.804688 156.480469 39.8125 154.984375 40.105469 C 153.027344 40.601562 151.785156 42.492188 151.582031 44.425781 Z M 151.582031 44.425781 "/>
  </g>
</svg>