<?xml version="1.0" encoding="UTF-8" standalone="no"?>
<!-- Created with Inkscape (http://www.inkscape.org/) -->

<svg
   xmlns:dc="http://purl.org/dc/elements/1.1/"
   xmlns:cc="http://creativecommons.org/ns#"
   xmlns:rdf="http://www.w3.org/1999/02/22-rdf-syntax-ns#"
   xmlns:svg="http://www.w3.org/2000/svg"
   xmlns="http://www.w3.org/2000/svg"
   xmlns:sodipodi="http://sodipodi.sourceforge.net/DTD/sodipodi-0.dtd"
   xmlns:inkscape="http://www.inkscape.org/namespaces/inkscape"
   width="734.6261"
   height="350"
   id="svg4539"
   version="1.1"
   inkscape:version="0.48.1 "
   sodipodi:docname="Neues Dokument 7">
  <defs
     id="defs4541" />
  <sodipodi:namedview
     id="base"
     pagecolor="#ffffff"
     bordercolor="#666666"
     borderopacity="1.0"
     inkscape:pageopacity="0.0"
     inkscape:pageshadow="2"
     inkscape:zoom="0.98994949"
     inkscape:cx="533.48435"
     inkscape:cy="293.72265"
     inkscape:document-units="px"
     inkscape:current-layer="layer1"
     showgrid="false"
     fit-margin-top="25"
     fit-margin-left="25"
     fit-margin-right="25"
     fit-margin-bottom="25"
     inkscape:window-width="1618"
     inkscape:window-height="1028"
     inkscape:window-x="-8"
     inkscape:window-y="-8"
     inkscape:window-maximized="1" />
  <metadata
     id="metadata4544">
    <rdf:RDF>
      <cc:Work
         rdf:about="">
        <dc:format>image/svg+xml</dc:format>
        <dc:type
           rdf:resource="http://purl.org/dc/dcmitype/StillImage" />
        <dc:title></dc:title>
      </cc:Work>
    </rdf:RDF>
  </metadata>
  <g
     inkscape:label="Ebene 1"
     inkscape:groupmode="layer"
     id="layer1"
     transform="translate(-61.972109,-555.25354)">
    <g
       transform="matrix(6.0978584,0,0,-6.0978584,494.806,816.66507)"
       id="g3083">
      <path
         inkscape:connector-curvature="0"
         id="path3085"
         style="fill:#8f1543;fill-opacity:1;fill-rule:nonzero;stroke:none"
         d="m 0,0 c 0,-5.759 -4.669,-10.428 -10.428,-10.428 -5.76,0 -10.429,4.669 -10.429,10.428 0,5.76 4.669,10.428 10.429,10.428 C -4.669,10.428 0,5.76 0,0" />
    </g>
    <g
       transform="matrix(6.0978584,0,0,-6.0978584,321.38964,760.72332)"
       id="g3087"
       style="fill:#000000;fill-opacity:1">
      <path
         inkscape:connector-curvature="0"
         id="path3089"
         style="fill:#000000;fill-opacity:1;fill-rule:nonzero;stroke:none"
         d="m 0,0 -38.442,0 0,-3.699 36.995,0 C -1.085,-2.409 -0.598,-1.172 0,0" />
    </g>
    <g
       transform="matrix(6.0978584,0,0,-6.0978584,541.04119,760.72332)"
       id="g3091"
       style="fill:#000000;fill-opacity:1">
      <path
         inkscape:connector-curvature="0"
         id="path3093"
         style="fill:#000000;fill-opacity:1;fill-rule:nonzero;stroke:none"
         d="m 0,0 c 0.598,-1.172 1.085,-2.409 1.447,-3.699 l 36.362,0 0,3.699 L 0,0 z" />
    </g>
    <g
       transform="matrix(6.0978584,0,0,-6.0978584,553.97782,805.8682)"
       id="g3095"
       style="fill:#000000;fill-opacity:1">
      <path
         inkscape:connector-curvature="0"
         id="path3097"
         style="fill:#000000;fill-opacity:1;fill-rule:nonzero;stroke:none"
         d="m 0,0 c 0.051,-0.584 0.082,-1.174 0.082,-1.771 0,-0.651 -0.034,-1.293 -0.094,-1.928 l 35.7,0 0,3.699 L 0,0 z" />
    </g>
    <g
       transform="matrix(6.0978584,0,0,-6.0978584,307.9524,816.66507)"
       id="g3099"
       style="fill:#000000;fill-opacity:1">
      <path
         inkscape:connector-curvature="0"
         id="path3101"
         style="fill:#000000;fill-opacity:1;fill-rule:nonzero;stroke:none"
         d="m 0,0 c 0,0.597 0.031,1.186 0.082,1.771 l -36.321,0 0,-3.7 36.333,0 C 0.034,-1.294 0,-0.651 0,0" />
    </g>
    <g
       transform="matrix(6.0978584,0,0,-6.0978584,312.83981,851.01738)"
       id="g3103"
       style="fill:#000000;fill-opacity:1">
      <path
         inkscape:connector-curvature="0"
         id="path3105"
         style="fill:#000000;fill-opacity:1;fill-rule:nonzero;stroke:none"
         d="m 0,0 -37.04,0 0,-3.699 38.524,0 C 0.873,-2.528 0.374,-1.291 0,0" />
    </g>
    <g
       transform="matrix(6.0978584,0,0,-6.0978584,549.58858,851.01738)"
       id="g3107"
       style="fill:#000000;fill-opacity:1">
      <path
         inkscape:connector-curvature="0"
         id="path3109"
         style="fill:#000000;fill-opacity:1;fill-rule:nonzero;stroke:none"
         d="m 0,0 c -0.374,-1.291 -0.873,-2.528 -1.483,-3.699 l 37.89,0 0,3.699 L 0,0 z" />
    </g>
    <g
       transform="matrix(6.0978584,0,0,-6.0978584,121.99514,628.33515)"
       id="g3111"
       style="fill:#000000;fill-opacity:1">
      <path
         inkscape:connector-curvature="0"
         id="path3113"
         style="fill:#000000;fill-opacity:1;fill-rule:nonzero;stroke:none"
         d="M 0,0 1.4,0 C 2.502,0 3.276,0.191 3.721,0.574 4.167,0.957 4.39,1.446 4.39,2.044 4.39,2.624 4.197,3.116 3.81,3.52 3.423,3.924 2.695,4.125 1.627,4.125 L 0,4.125 0,0 z m -5.74,7.885 9.499,0 C 5.828,7.885 7.378,7.393 8.408,6.409 9.438,5.425 9.954,4.024 9.954,2.208 9.954,0.341 9.392,-1.119 8.269,-2.17 7.147,-3.221 5.433,-3.747 3.129,-3.747 l -3.129,0 0,-6.862 -5.74,0 0,18.494 z" />
    </g>
    <g
       transform="matrix(6.0978584,0,0,-6.0978584,200.92216,580.25598)"
       id="g3115"
       style="fill:#000000;fill-opacity:1">
      <path
         inkscape:connector-curvature="0"
         id="path3117"
         style="fill:#000000;fill-opacity:1;fill-rule:nonzero;stroke:none"
         d="m 0,0 5.715,0 0,-13.94 8.919,0 0,-4.554 L 0,-18.494 0,0 z" />
    </g>
    <g
       transform="matrix(6.0978584,0,0,-6.0978584,368.10592,650.02768)"
       id="g3119"
       style="fill:#000000;fill-opacity:1">
      <path
         inkscape:connector-curvature="0"
         id="path3121"
         style="fill:#000000;fill-opacity:1;fill-rule:nonzero;stroke:none"
         d="M 0,0 -2.041,6.648 -4.061,0 0,0 z m 1.186,-3.999 -6.489,0 -0.901,-3.053 -5.835,0 6.951,18.494 6.234,0 6.949,-18.494 -5.984,0 -0.925,3.053 z" />
    </g>
    <g
       transform="matrix(6.0978584,0,0,-6.0978584,428.77717,580.25598)"
       id="g3123"
       style="fill:#000000;fill-opacity:1">
      <path
         inkscape:connector-curvature="0"
         id="path3125"
         style="fill:#000000;fill-opacity:1;fill-rule:nonzero;stroke:none"
         d="M 0,0 5.337,0 12.3,-10.232 12.3,0 l 5.387,0 0,-18.494 -5.387,0 -6.926,10.155 0,-10.155 -5.374,0 L 0,0 z" />
    </g>
    <g
       transform="matrix(6.0978584,0,0,-6.0978584,559.70493,580.25598)"
       id="g3127"
       style="fill:#000000;fill-opacity:1">
      <path
         inkscape:connector-curvature="0"
         id="path3129"
         style="fill:#000000;fill-opacity:1;fill-rule:nonzero;stroke:none"
         d="m 0,0 15.315,0 0,-3.949 -9.587,0 0,-2.939 8.893,0 0,-3.772 -8.893,0 0,-3.646 9.865,0 0,-4.188 L 0,-18.494 0,0 z" />
    </g>
    <g
       transform="matrix(6.0978584,0,0,-6.0978584,665.63385,580.25598)"
       id="g3131"
       style="fill:#000000;fill-opacity:1">
      <path
         inkscape:connector-curvature="0"
         id="path3133"
         style="fill:#000000;fill-opacity:1;fill-rule:nonzero;stroke:none"
         d="m 0,0 17.371,0 0,-4.567 -5.828,0 0,-13.927 -5.715,0 0,13.927 L 0,-4.567 0,0 z" />
    </g>
  </g>
</svg>
