<?xml version="1.0" encoding="UTF-8" standalone="yes"?>
<svg xmlns="http://www.w3.org/2000/svg" xmlns:xlink="http://www.w3.org/1999/xlink" width="445.3333333333333px" height="106.66666666666666px" viewBox="0 0 334 80" version="1.1">
  <g id="surface1">
    <path style=" stroke:none;fill-rule:nonzero;fill:rgb(30.196078%,64.705882%,56.470588%);fill-opacity:1;" d="M 39.558594 0 L 73.5625 0 C 75.816406 0.253906 78.375 -0.121094 80.292969 1.335938 C 80.332031 1.9375 80.367188 2.5625 79.894531 3.015625 C 78.714844 1.683594 76.804688 1.628906 75.15625 1.59375 C 60.679688 1.609375 46.207031 1.574219 31.734375 1.566406 C 27.199219 1.664062 22.570312 2.035156 18.277344 3.597656 C 14.070312 5.273438 9.972656 7.535156 6.859375 10.882812 C 3.117188 15.121094 1.675781 20.859375 1.273438 26.382812 C 1.082031 28.203125 1 30.03125 1.046875 31.863281 C 0.886719 31.820312 0.582031 31.738281 0.425781 31.699219 C 0.457031 30.628906 0.417969 29.546875 0.0703125 28.523438 C 0.246094 25.117188 0.726562 21.71875 1.585938 18.417969 C 2.214844 15.933594 3.285156 13.539062 4.890625 11.53125 C 7.339844 8.386719 10.601562 5.988281 14.042969 4.035156 C 18.605469 1.746094 23.675781 0.644531 28.738281 0.199219 C 32.339844 0.0078125 35.953125 0.113281 39.558594 0 Z M 39.558594 0 "/>
    <path style=" stroke:none;fill-rule:nonzero;fill:rgb(30.196078%,64.705882%,56.470588%);fill-opacity:1;" d="M 86.890625 2.746094 C 87.957031 0.9375 90.222656 0.339844 92.199219 0.386719 C 166.355469 0.398438 240.511719 0.382812 314.671875 0.394531 C 315.566406 0.351562 316.3125 0.902344 317.117188 1.203125 C 317.765625 1.933594 318.296875 2.796875 318.214844 3.8125 C 317.355469 2.960938 316.089844 2.894531 314.957031 2.917969 C 240.925781 2.816406 166.894531 2.929688 92.867188 2.902344 C 91.332031 2.871094 89.597656 2.792969 88.363281 3.871094 C 87.820312 4.308594 87.707031 5.027344 87.730469 5.6875 C 87.722656 11.148438 87.832031 16.609375 88.027344 22.0625 C 87.980469 30.820312 88.222656 39.570312 88.195312 48.324219 C 87.175781 50.300781 88.160156 52.621094 87.359375 54.667969 C 86.941406 54.753906 86.523438 54.84375 86.105469 54.929688 C 86.171875 40.078125 86.0625 25.222656 86.074219 10.367188 C 86.097656 7.824219 85.722656 5.109375 86.890625 2.746094 Z M 86.890625 2.746094 "/>
    <path style=" stroke:none;fill-rule:nonzero;fill:rgb(30.196078%,64.705882%,56.470588%);fill-opacity:1;" d="M 184.898438 24.398438 C 195.535156 24.511719 206.171875 24.449219 216.804688 24.429688 C 218.292969 25.003906 219.898438 24.976562 221.386719 24.417969 C 226.519531 24.5 231.648438 24.433594 236.777344 24.453125 C 238.714844 24.429688 240.660156 24.542969 242.589844 24.351562 C 267.335938 24.335938 292.082031 24.371094 316.824219 24.332031 C 317.4375 24.800781 317.984375 25.40625 318.011719 26.230469 C 317.921875 29.183594 318.101562 32.140625 318.253906 35.089844 C 318.390625 37.632812 318.160156 40.183594 318.457031 42.714844 L 318.964844 43.03125 C 319.109375 46.234375 318.734375 49.429688 318.855469 52.628906 C 318.804688 54.449219 318.910156 56.273438 318.652344 58.082031 C 317.984375 55.175781 318.527344 52.175781 318.207031 49.230469 C 314.339844 49.015625 310.464844 49.210938 306.601562 49.15625 C 306.132812 49.210938 305.789062 48.902344 305.476562 48.617188 C 306.230469 48.347656 305.984375 47.4375 306.054688 46.835938 C 305.949219 44.210938 306.097656 41.582031 305.902344 38.964844 C 305.761719 38.976562 305.46875 39.011719 305.324219 39.023438 C 304.851562 36.476562 303.652344 34.050781 301.777344 32.246094 C 296.722656 27.3125 287.8125 27.035156 282.546875 31.78125 C 280.066406 34.007812 278.816406 37.277344 278.429688 40.53125 C 278.332031 40.335938 278.136719 39.953125 278.039062 39.757812 C 277.71875 41.773438 277.882812 43.8125 277.832031 45.839844 C 277.839844 47.710938 277.675781 49.589844 277.921875 51.453125 C 278.011719 52.210938 278.078125 52.972656 278.140625 53.738281 C 276.613281 53.808594 275.082031 53.785156 273.554688 53.800781 C 273.464844 50.472656 273.394531 47.140625 273.421875 43.808594 C 273.402344 42.746094 273.582031 41.582031 272.90625 40.671875 C 272.609375 37.839844 271.832031 34.945312 269.957031 32.734375 C 267.316406 29.484375 262.90625 28.082031 258.828125 28.445312 C 255.925781 28.667969 253.207031 30.257812 251.523438 32.625 C 249.90625 30.335938 247.3125 28.753906 244.519531 28.472656 C 240.582031 28.050781 236.332031 29.296875 233.601562 32.261719 C 231.757812 34.191406 230.816406 36.785156 230.355469 39.378906 C 230.253906 39.359375 230.046875 39.335938 229.9375 39.316406 C 230.074219 43.214844 230.019531 47.113281 229.964844 51.011719 C 229.675781 51.679688 229.429688 52.363281 229.234375 53.066406 C 227.722656 53.175781 226.210938 53.179688 224.707031 53.042969 C 224.445312 52.617188 224.179688 52.1875 223.9375 51.753906 C 223.910156 45.3125 223.898438 38.871094 223.898438 32.433594 C 223.878906 31.398438 224.019531 30.335938 223.710938 29.332031 L 223.679688 29.199219 L 223.554688 29.011719 C 220.480469 28.945312 217.402344 28.945312 214.332031 29.015625 C 214.257812 36.988281 214.304688 44.957031 214.261719 52.925781 C 212.105469 53.253906 209.925781 53.089844 207.757812 53.109375 C 205.796875 53.101562 203.832031 53.195312 201.875 53.082031 C 201.855469 48.386719 201.433594 43.671875 201.929688 39 C 201.894531 38.792969 201.828125 38.382812 201.792969 38.175781 C 202.414062 37.105469 203.507812 36.304688 204.753906 36.160156 C 206.53125 35.949219 208.308594 36.394531 210.039062 36.785156 C 210.628906 34.332031 211.171875 31.863281 211.769531 29.410156 C 207.371094 27.996094 202.300781 27.871094 198.207031 30.25 C 194.53125 32.265625 192.160156 36.300781 192.03125 40.476562 C 191.933594 47.800781 192.125 55.128906 191.972656 62.453125 C 191.453125 61.578125 191.691406 60.519531 191.617188 59.554688 C 191.503906 57.105469 191.761719 54.640625 191.398438 52.210938 C 183.867188 51.972656 176.320312 52.246094 168.789062 52.074219 C 168.6875 50.472656 168.667969 48.867188 168.75 47.265625 C 171.644531 47.007812 174.609375 47.640625 177.449219 46.976562 C 177.242188 46.878906 176.828125 46.6875 176.621094 46.589844 C 179.542969 46.046875 182.371094 44.71875 184.40625 42.511719 C 189.046875 37.710938 189.128906 29.488281 184.898438 24.398438 Z M 184.898438 24.398438 "/>
    <path style=" stroke:none;fill-rule:nonzero;fill:rgb(30.196078%,64.705882%,56.470588%);fill-opacity:1;" d="M 167.949219 27.464844 C 170.089844 27.511719 172.242188 27.390625 174.378906 27.535156 C 176.789062 27.796875 178.363281 30.191406 178.488281 32.476562 C 178.800781 35.023438 177.65625 38.121094 174.964844 38.832031 C 172.726562 38.03125 170.277344 38.667969 167.949219 38.429688 C 167.941406 34.773438 167.945312 31.117188 167.949219 27.464844 Z M 167.949219 27.464844 "/>
    <path style=" stroke:none;fill-rule:nonzero;fill:rgb(16.078431%,47.843137%,41.960784%);fill-opacity:1;" d="M 80.292969 1.335938 C 80.699219 1.753906 81.082031 2.210938 81.371094 2.722656 C 81.347656 2.886719 81.300781 3.210938 81.273438 3.375 C 81.277344 21.644531 81.273438 39.921875 81.273438 58.199219 C 81.375 59.878906 80.976562 61.535156 81.046875 63.21875 C 81.039062 68.125 81.0625 73.035156 80.976562 77.941406 C 80.226562 78.558594 79.339844 78.984375 78.40625 79.246094 C 78.851562 78.871094 79.273438 78.476562 79.691406 78.078125 C 79.746094 77.707031 79.800781 77.335938 79.886719 76.96875 C 80.519531 75.320312 80.148438 73.53125 80.234375 71.816406 C 80.339844 69.359375 80.566406 66.898438 80.3125 64.449219 C 80.296875 63.269531 80.285156 62.097656 80.285156 60.917969 C 80.269531 58.402344 80.40625 55.875 80.265625 53.359375 C 80.253906 50.320312 80.558594 47.246094 80.148438 44.226562 C 79.992188 43.429688 79.957031 42.617188 79.984375 41.804688 C 80.042969 37.199219 80.007812 32.597656 79.945312 27.996094 C 80.253906 27.402344 80.402344 26.746094 80.363281 26.074219 C 80.332031 21.546875 80.632812 17.011719 80.476562 12.480469 C 80.082031 9.34375 80.902344 6.0625 79.894531 3.015625 C 80.367188 2.5625 80.332031 1.9375 80.292969 1.335938 Z M 80.292969 1.335938 "/>
    <path style=" stroke:none;fill-rule:nonzero;fill:rgb(8.235294%,54.901961%,49.411765%);fill-opacity:1;" d="M 317.117188 1.203125 C 319.957031 1.164062 322.800781 1.246094 325.648438 1.222656 C 327.054688 1.242188 328.507812 1.078125 329.871094 1.542969 C 331.800781 2.207031 333.6875 3.8125 333.679688 6.015625 C 334.039062 12.1875 333.757812 18.378906 333.929688 24.550781 C 333.1875 24.644531 332.457031 24.742188 331.722656 24.839844 C 331.546875 26.105469 331.933594 27.535156 331.101562 28.625 C 331.121094 24.203125 331.292969 19.792969 331.453125 15.378906 C 331.464844 12.835938 331.566406 10.289062 331.449219 7.75 C 331.347656 6.292969 331.035156 4.402344 329.410156 3.917969 C 327.144531 3.476562 324.8125 3.710938 322.515625 3.640625 C 321.9375 3.640625 321.359375 3.636719 320.785156 3.636719 C 319.925781 3.636719 319.066406 3.710938 318.214844 3.8125 C 318.296875 2.796875 317.765625 1.933594 317.117188 1.203125 Z M 317.117188 1.203125 "/>
    <path style=" stroke:none;fill-rule:nonzero;fill:rgb(8.235294%,54.901961%,49.411765%);fill-opacity:1;" d="M 88.871094 6.117188 C 89.292969 5.644531 89.800781 5.078125 90.507812 5.15625 C 92.460938 5.128906 94.417969 5.214844 96.375 5.140625 C 112.128906 5.28125 127.882812 5.175781 143.636719 5.195312 C 164.785156 5.195312 185.9375 5.195312 207.085938 5.195312 C 243.820312 5.230469 280.558594 5.105469 317.292969 5.222656 C 317.582031 5.445312 317.859375 5.683594 318.132812 5.9375 C 316.695312 5.355469 315.125 5.546875 313.621094 5.527344 C 239.359375 5.5 165.097656 5.542969 90.839844 5.503906 C 90.148438 5.550781 89.507812 5.867188 88.871094 6.117188 Z M 88.871094 6.117188 "/>
    <path style=" stroke:none;fill-rule:nonzero;fill:rgb(86.27451%,92.54902%,94.509804%);fill-opacity:1;" d="M 18.277344 3.597656 C 22.570312 2.035156 27.199219 1.664062 31.734375 1.566406 C 46.207031 1.574219 60.679688 1.609375 75.15625 1.59375 C 76.804688 1.628906 78.714844 1.683594 79.894531 3.015625 C 80.902344 6.0625 80.082031 9.34375 80.476562 12.480469 C 80.25 11.367188 80.070312 10.242188 80.058594 9.101562 C 80.027344 8.300781 80.023438 7.5 80.003906 6.707031 C 79.984375 6.050781 79.777344 5.351562 79.132812 5.058594 C 78.148438 4.898438 77.144531 4.984375 76.152344 4.96875 C 59.234375 4.984375 42.316406 4.875 25.398438 4.847656 C 22.816406 5.035156 20.207031 5.292969 17.734375 6.113281 C 17.394531 6.222656 17.0625 6.339844 16.726562 6.46875 C 12.394531 8.152344 8.691406 11.289062 6.0625 15.097656 C 3.339844 18.957031 2.855469 23.816406 2.335938 28.375 C 2.234375 29.148438 2.089844 29.914062 1.945312 30.675781 C 1.785156 30.527344 1.46875 30.238281 1.308594 30.089844 C 1.089844 28.867188 1.226562 27.617188 1.273438 26.382812 C 1.675781 20.859375 3.117188 15.121094 6.859375 10.882812 C 9.972656 7.535156 14.070312 5.273438 18.277344 3.597656 Z M 18.277344 3.597656 "/>
    <path style=" stroke:none;fill-rule:nonzero;fill:rgb(86.27451%,92.54902%,94.509804%);fill-opacity:1;" d="M 88.363281 3.871094 C 89.597656 2.792969 91.332031 2.871094 92.867188 2.902344 C 166.894531 2.929688 240.925781 2.816406 314.957031 2.917969 C 316.089844 2.894531 317.355469 2.960938 318.214844 3.8125 C 318.503906 4.734375 318.667969 5.6875 318.726562 6.648438 L 318.394531 6.363281 C 318.328125 6.257812 318.199219 6.042969 318.132812 5.9375 C 317.859375 5.683594 317.582031 5.445312 317.292969 5.222656 C 317.019531 4.933594 316.6875 4.800781 316.300781 4.816406 C 243.714844 4.8125 171.132812 4.777344 98.546875 4.808594 C 97.804688 4.777344 97.074219 4.90625 96.375 5.140625 C 94.417969 5.214844 92.460938 5.128906 90.507812 5.15625 C 89.800781 5.078125 89.292969 5.644531 88.871094 6.117188 C 88.832031 6.175781 88.765625 6.28125 88.730469 6.335938 C 88.507812 9.496094 88.4375 12.664062 88.414062 15.835938 C 88.378906 16.511719 88.375 17.195312 88.363281 17.871094 C 88.335938 18.464844 88.324219 19.058594 88.324219 19.65625 C 88.324219 20.675781 88.394531 21.699219 88.472656 22.714844 C 88.949219 26.425781 88.132812 30.238281 89.082031 33.886719 C 88.992188 37.589844 88.800781 41.292969 88.789062 45 C 88.726562 48.613281 88.65625 52.226562 88.65625 55.839844 C 88.570312 55.832031 88.394531 55.820312 88.304688 55.8125 C 88.308594 53.316406 88.261719 50.820312 88.195312 48.324219 C 88.222656 39.570312 87.980469 30.820312 88.027344 22.0625 C 87.832031 16.609375 87.722656 11.148438 87.730469 5.6875 C 87.707031 5.027344 87.820312 4.308594 88.363281 3.871094 Z M 88.363281 3.871094 "/>
    <path style=" stroke:none;fill-rule:nonzero;fill:rgb(86.27451%,92.54902%,94.509804%);fill-opacity:1;" d="M 328.042969 25.964844 C 328.070312 25.054688 328.171875 24.140625 328.410156 23.257812 C 328.574219 29.335938 328.597656 35.410156 328.460938 41.492188 C 328.394531 41.8125 328.460938 42.183594 328.273438 42.472656 C 328.140625 38.125 328.289062 33.773438 328.054688 29.429688 C 327.933594 28.25 327.996094 26.949219 327.207031 25.980469 C 327.480469 25.972656 327.757812 25.96875 328.042969 25.964844 Z M 328.042969 25.964844 "/>
    <path style=" stroke:none;fill-rule:nonzero;fill:rgb(86.27451%,92.54902%,94.509804%);fill-opacity:1;" d="M 222.671875 23.933594 C 224.367188 23.757812 226.070312 23.847656 227.773438 23.84375 C 229.671875 23.894531 231.566406 23.554688 233.460938 23.792969 C 236.910156 23.878906 240.363281 23.902344 243.804688 23.664062 C 263.070312 23.660156 282.335938 23.664062 301.601562 23.660156 C 306.667969 23.71875 311.742188 23.546875 316.804688 23.734375 C 316.8125 23.886719 316.824219 24.179688 316.824219 24.332031 C 292.082031 24.371094 267.335938 24.335938 242.589844 24.351562 C 237.777344 24.011719 232.9375 24.289062 228.117188 24.199219 C 226.300781 24.101562 224.4375 24.460938 222.671875 23.933594 Z M 222.671875 23.933594 "/>
    <path style=" stroke:none;fill-rule:nonzero;fill:rgb(0%,10.980392%,7.45098%);fill-opacity:1;" d="M 81.273438 3.375 C 81.300781 3.210938 81.347656 2.886719 81.371094 2.722656 C 82.449219 4.75 82.570312 7.105469 82.65625 9.351562 C 82.636719 30.648438 82.546875 51.949219 82.550781 73.246094 C 82.480469 74.894531 82.351562 76.808594 80.976562 77.941406 C 81.0625 73.035156 81.039062 68.125 81.046875 63.21875 C 80.976562 61.535156 81.375 59.878906 81.273438 58.199219 C 81.273438 39.921875 81.277344 21.644531 81.273438 3.375 Z M 81.273438 3.375 "/>
    <path style=" stroke:none;fill-rule:nonzero;fill:rgb(38.039216%,57.647059%,55.686275%);fill-opacity:1;" d="M 318.214844 3.8125 C 319.066406 3.710938 319.925781 3.636719 320.785156 3.636719 C 320.835938 4.316406 320.914062 5 321.019531 5.675781 C 321.40625 5.738281 321.796875 5.800781 322.191406 5.851562 L 322.371094 5.859375 C 321.679688 5.875 320.992188 5.914062 320.304688 5.910156 C 319.839844 5.863281 319.386719 5.8125 318.929688 5.761719 C 318.824219 7.582031 318.753906 9.40625 318.949219 11.222656 C 318.890625 11.75 318.835938 12.277344 318.8125 12.804688 L 318.804688 12.535156 C 318.730469 10.574219 318.773438 8.609375 318.726562 6.648438 C 318.667969 5.6875 318.503906 4.734375 318.214844 3.8125 Z M 318.214844 3.8125 "/>
    <path style=" stroke:none;fill-rule:nonzero;fill:rgb(57.254902%,72.156863%,71.372549%);fill-opacity:1;" d="M 320.785156 3.636719 C 321.359375 3.636719 321.9375 3.640625 322.515625 3.640625 C 322.515625 4.390625 322.484375 5.152344 322.191406 5.851562 C 321.796875 5.800781 321.40625 5.738281 321.019531 5.675781 C 320.914062 5 320.835938 4.316406 320.785156 3.636719 Z M 320.785156 3.636719 "/>
    <path style=" stroke:none;fill-rule:nonzero;fill:rgb(80.784314%,89.803922%,91.764706%);fill-opacity:1;" d="M 322.515625 3.640625 C 324.8125 3.710938 327.144531 3.476562 329.410156 3.917969 C 331.035156 4.402344 331.347656 6.292969 331.449219 7.75 C 331.199219 7.761719 330.707031 7.789062 330.460938 7.800781 C 330.03125 7.226562 329.53125 6.703125 328.878906 6.386719 C 326.792969 5.65625 324.539062 5.921875 322.371094 5.859375 L 322.191406 5.851562 C 322.484375 5.152344 322.515625 4.390625 322.515625 3.640625 Z M 322.515625 3.640625 "/>
    <path style=" stroke:none;fill-rule:nonzero;fill:rgb(100%,100%,100%);fill-opacity:1;" d="M 96.375 5.140625 C 97.074219 4.90625 97.804688 4.777344 98.546875 4.808594 C 171.132812 4.777344 243.714844 4.8125 316.300781 4.816406 C 316.6875 4.800781 317.019531 4.933594 317.292969 5.222656 C 280.558594 5.105469 243.820312 5.230469 207.085938 5.195312 C 185.9375 5.195312 164.785156 5.195312 143.636719 5.195312 C 127.882812 5.175781 112.128906 5.28125 96.375 5.140625 Z M 96.375 5.140625 "/>
    <path style=" stroke:none;fill-rule:nonzero;fill:rgb(100%,100%,100%);fill-opacity:1;" d="M 214.953125 16.796875 C 216.941406 14.292969 221.0625 14.234375 223.125 16.679688 C 223.546875 17.304688 223.933594 17.964844 224.160156 18.691406 C 224.574219 20.960938 223.460938 23.378906 221.386719 24.417969 C 219.898438 24.976562 218.292969 25.003906 216.804688 24.429688 C 214.730469 23.382812 213.597656 20.972656 214.019531 18.699219 C 214.222656 18.015625 214.597656 17.40625 214.953125 16.796875 Z M 214.953125 16.796875 "/>
    <path style=" stroke:none;fill-rule:nonzero;fill:rgb(100%,100%,100%);fill-opacity:1;" d="M 37.683594 16.902344 C 40.695312 16.828125 43.707031 16.894531 46.71875 16.890625 C 46.558594 17.320312 46.398438 17.75 46.238281 18.175781 C 45.511719 20.167969 44.855469 22.1875 44.261719 24.222656 C 53.980469 24.269531 63.703125 24.308594 73.421875 24.234375 C 73.082031 24.371094 72.738281 24.503906 72.394531 24.632812 C 62.953125 24.546875 53.511719 24.625 44.066406 24.601562 C 41.886719 30.847656 39.804688 37.128906 37.636719 43.378906 C 40.425781 43.363281 43.214844 43.371094 46.007812 43.378906 C 45.992188 40.640625 45.996094 37.910156 45.996094 35.175781 C 48.984375 35.1875 51.96875 35.167969 54.960938 35.183594 C 54.945312 44.214844 54.933594 53.242188 54.945312 62.269531 C 51.960938 62.316406 48.972656 62.277344 45.988281 62.289062 C 45.980469 58.683594 45.980469 55.082031 45.972656 51.476562 C 45.835938 51.476562 45.5625 51.472656 45.425781 51.472656 C 38.882812 51.46875 32.335938 51.464844 25.789062 51.476562 C 26.019531 50.800781 26.253906 50.125 26.488281 49.453125 C 29.304688 41.289062 32.082031 33.117188 34.898438 24.957031 C 34.9375 24.863281 35.007812 24.675781 35.042969 24.582031 C 35.726562 22.136719 36.738281 19.800781 37.476562 17.375 C 37.523438 17.257812 37.632812 17.019531 37.683594 16.902344 Z M 37.683594 16.902344 "/>
    <path style=" stroke:none;fill-rule:nonzero;fill:rgb(100%,100%,100%);fill-opacity:1;" d="M 158.5625 19.570312 C 163.59375 19.417969 168.632812 19.558594 173.671875 19.503906 C 176.148438 19.429688 178.652344 19.953125 180.859375 21.101562 C 182.339844 22.019531 183.792969 23.035156 184.898438 24.398438 C 189.128906 29.488281 189.046875 37.710938 184.40625 42.511719 C 182.371094 44.71875 179.542969 46.046875 176.621094 46.589844 C 173.742188 46.929688 170.835938 46.695312 167.949219 46.769531 C 167.949219 50.734375 167.933594 54.691406 167.953125 58.652344 C 167.933594 59.914062 167.949219 61.175781 167.96875 62.4375 C 164.832031 62.457031 161.695312 62.453125 158.5625 62.441406 C 158.554688 49.785156 158.507812 37.128906 158.558594 24.472656 C 158.628906 22.839844 158.714844 21.203125 158.5625 19.570312 M 167.949219 27.464844 C 167.945312 31.117188 167.941406 34.773438 167.949219 38.429688 L 167.9375 38.96875 C 170.28125 38.910156 172.632812 39.121094 174.964844 38.832031 C 177.65625 38.121094 178.800781 35.023438 178.488281 32.476562 C 178.363281 30.191406 176.789062 27.796875 174.378906 27.535156 C 172.242188 27.390625 170.089844 27.511719 167.949219 27.464844 Z M 167.949219 27.464844 "/>
    <path style=" stroke:none;fill-rule:nonzero;fill:rgb(100%,100%,100%);fill-opacity:1;" d="M 198.207031 30.25 C 202.300781 27.871094 207.371094 27.996094 211.769531 29.410156 C 211.171875 31.863281 210.628906 34.332031 210.039062 36.785156 C 208.308594 36.394531 206.53125 35.949219 204.753906 36.160156 C 203.507812 36.304688 202.414062 37.105469 201.792969 38.175781 C 201.109375 39.382812 201.011719 40.796875 201.023438 42.152344 C 201.058594 47.992188 200.988281 53.835938 201.058594 59.675781 C 201.019531 60.59375 201.03125 61.519531 201.050781 62.4375 C 198.023438 62.464844 195 62.4375 191.972656 62.453125 C 192.125 55.128906 191.933594 47.800781 192.03125 40.476562 C 192.160156 36.300781 194.53125 32.265625 198.207031 30.25 Z M 198.207031 30.25 "/>
    <path style=" stroke:none;fill-rule:nonzero;fill:rgb(100%,100%,100%);fill-opacity:1;" d="M 233.601562 32.261719 C 236.332031 29.296875 240.582031 28.050781 244.519531 28.472656 C 247.3125 28.753906 249.90625 30.335938 251.523438 32.625 C 253.207031 30.257812 255.925781 28.667969 258.828125 28.445312 C 262.90625 28.082031 267.316406 29.484375 269.957031 32.734375 C 271.832031 34.945312 272.609375 37.839844 272.90625 40.671875 C 273.03125 47.929688 272.917969 55.191406 272.929688 62.449219 C 269.894531 62.433594 266.859375 62.480469 263.824219 62.429688 C 263.84375 56.667969 263.800781 50.910156 263.808594 45.152344 C 263.738281 42.550781 264.128906 39.664062 262.621094 37.382812 C 261.511719 35.75 258.769531 35.628906 257.570312 37.222656 C 256.363281 38.859375 256.199219 40.996094 256.125 42.964844 C 256.085938 46.214844 256.085938 49.460938 256.117188 52.710938 C 256.101562 55.953125 256.085938 59.199219 256.117188 62.441406 C 253.074219 62.449219 250.027344 62.472656 246.984375 62.429688 C 247.011719 57.121094 246.980469 51.808594 246.984375 46.5 C 246.96875 44.761719 247.042969 43.023438 246.875 41.289062 C 246.742188 39.824219 246.421875 38.277344 245.464844 37.117188 C 244.410156 35.859375 242.359375 35.78125 241.101562 36.753906 C 239.964844 37.710938 239.5625 39.25 239.441406 40.671875 C 239.269531 47.929688 239.398438 55.199219 239.363281 62.460938 C 236.300781 62.460938 233.242188 62.46875 230.183594 62.457031 C 230.214844 56.691406 230.183594 50.925781 230.191406 45.160156 C 230.222656 43.234375 230.097656 41.292969 230.355469 39.378906 C 230.816406 36.785156 231.757812 34.191406 233.601562 32.261719 Z M 233.601562 32.261719 "/>
    <path style=" stroke:none;fill-rule:nonzero;fill:rgb(100%,100%,100%);fill-opacity:1;" d="M 282.546875 31.78125 C 287.8125 27.035156 296.722656 27.3125 301.777344 32.246094 C 303.652344 34.050781 304.851562 36.476562 305.324219 39.023438 C 305.660156 42.203125 305.40625 45.417969 305.476562 48.617188 C 305.070312 48.542969 304.664062 48.5 304.257812 48.480469 C 298.644531 48.546875 293.027344 48.523438 287.414062 48.472656 C 287.359375 50.503906 287.640625 52.792969 289.195312 54.265625 C 290.535156 55.519531 292.496094 55.671875 294.242188 55.570312 C 296.984375 55.425781 299.699219 54.851562 302.304688 53.988281 C 302.558594 55.0625 302.816406 56.140625 303.097656 57.210938 C 303.425781 58.574219 303.746094 59.941406 304.121094 61.300781 C 299.640625 63.0625 294.707031 63.730469 289.933594 63.046875 C 287.226562 62.628906 284.589844 61.53125 282.535156 59.691406 C 280.234375 57.585938 278.953125 54.597656 278.507812 51.550781 C 278.25 47.890625 278.367188 44.199219 278.429688 40.53125 C 278.816406 37.277344 280.066406 34.007812 282.546875 31.78125 M 288.832031 37.398438 C 287.628906 38.644531 287.273438 40.460938 287.429688 42.144531 C 290.414062 42.082031 293.394531 42.082031 296.378906 42.144531 C 296.488281 40.546875 296.226562 38.824219 295.160156 37.570312 C 293.644531 35.667969 290.445312 35.605469 288.832031 37.398438 Z M 288.832031 37.398438 "/>
    <path style=" stroke:none;fill-rule:nonzero;fill:rgb(100%,100%,100%);fill-opacity:1;" d="M 214.519531 29.199219 C 217.570312 29.203125 220.625 29.195312 223.679688 29.199219 L 223.710938 29.332031 C 223.660156 40.375 223.683594 51.417969 223.6875 62.457031 C 220.636719 62.464844 217.585938 62.460938 214.535156 62.460938 C 214.542969 51.375 214.542969 40.285156 214.519531 29.199219 Z M 214.519531 29.199219 "/>
    <path style=" stroke:none;fill-rule:nonzero;fill:rgb(100%,100%,100%);fill-opacity:1;" d="M 4.125 41.777344 C 4.335938 39.882812 4.746094 38.011719 4.894531 36.109375 C 4.964844 36.382812 5.121094 36.925781 5.195312 37.199219 C 4.683594 40.667969 4.378906 44.164062 3.882812 47.636719 C 3.789062 48.203125 3.8125 48.859375 3.304688 49.246094 C 3.257812 47.511719 3.269531 45.777344 3.273438 44.042969 C 3.84375 43.417969 4.046875 42.597656 4.125 41.777344 Z M 4.125 41.777344 "/>
    <path style=" stroke:none;fill-rule:nonzero;fill:rgb(24.705882%,60%,55.294118%);fill-opacity:1;" d="M 17.734375 6.113281 C 20.207031 5.292969 22.816406 5.035156 25.398438 4.847656 C 42.316406 4.875 59.234375 4.984375 76.152344 4.96875 C 77.144531 4.984375 78.148438 4.898438 79.132812 5.058594 C 79.777344 5.351562 79.984375 6.050781 80.003906 6.707031 C 79.1875 6.4375 78.355469 6.167969 77.488281 6.179688 C 71.359375 6.164062 65.230469 6.140625 59.105469 6.097656 C 54.78125 5.609375 50.425781 5.941406 46.089844 5.742188 C 44.867188 5.613281 43.644531 5.476562 42.410156 5.496094 C 36.839844 5.480469 31.265625 5.429688 25.695312 5.453125 C 23.234375 5.503906 20.824219 6.078125 18.410156 6.445312 C 18.242188 6.359375 17.90625 6.195312 17.734375 6.113281 Z M 17.734375 6.113281 "/>
    <path style=" stroke:none;fill-rule:nonzero;fill:rgb(37.254902%,69.019608%,64.705882%);fill-opacity:1;" d="M 18.410156 6.445312 C 20.824219 6.078125 23.234375 5.503906 25.695312 5.453125 C 31.265625 5.429688 36.839844 5.480469 42.410156 5.496094 C 43.644531 5.476562 44.867188 5.613281 46.089844 5.742188 C 50.425781 5.941406 54.78125 5.609375 59.105469 6.097656 C 65.230469 6.140625 71.359375 6.164062 77.488281 6.179688 C 78.355469 6.167969 79.1875 6.4375 80.003906 6.707031 C 80.023438 7.5 80.027344 8.300781 80.058594 9.101562 C 79.632812 8.636719 79.230469 7.988281 78.503906 8.105469 C 71.152344 8.085938 63.800781 8.125 56.453125 8.082031 C 54.449219 7.914062 52.445312 7.734375 50.429688 7.769531 C 45.316406 7.359375 40.238281 6.378906 35.089844 6.445312 C 31.539062 6.460938 27.984375 6.359375 24.433594 6.570312 C 18.578125 7.160156 12.800781 9.761719 8.828125 14.175781 C 8.429688 14.652344 7.90625 14.984375 7.265625 14.890625 C 8.761719 12.382812 11.042969 10.46875 13.394531 8.800781 C 14.585938 7.890625 16.085938 7.546875 17.304688 6.6875 L 16.726562 6.46875 C 17.0625 6.339844 17.394531 6.222656 17.734375 6.113281 C 17.90625 6.195312 18.242188 6.359375 18.410156 6.445312 Z M 18.410156 6.445312 "/>
    <path style=" stroke:none;fill-rule:nonzero;fill:rgb(36.078431%,68.235294%,63.921569%);fill-opacity:1;" d="M 88.871094 6.117188 C 89.507812 5.867188 90.148438 5.550781 90.839844 5.503906 C 165.097656 5.542969 239.359375 5.5 313.621094 5.527344 C 315.125 5.546875 316.695312 5.355469 318.132812 5.9375 C 318.199219 6.042969 318.328125 6.257812 318.394531 6.363281 C 318.414062 7.382812 318.472656 8.394531 318.457031 9.410156 C 315.730469 9.453125 313.007812 9.277344 310.28125 9.421875 C 305.164062 9.230469 300.042969 9.46875 294.917969 9.335938 C 289.355469 9.527344 283.792969 9.191406 278.230469 9.367188 C 275.671875 9.546875 273.117188 9.21875 270.5625 9.375 C 261.875 9.132812 253.191406 9.617188 244.507812 9.296875 C 241.273438 9.347656 238.042969 9.222656 234.8125 9.425781 C 232.246094 9.390625 229.683594 9.203125 227.125 9.417969 C 224.226562 9.308594 221.335938 9.457031 218.441406 9.367188 C 214.320312 9.542969 210.203125 9.261719 206.082031 9.332031 C 199.285156 9.519531 192.496094 9.242188 185.699219 9.386719 C 183.03125 9.25 180.367188 9.523438 177.703125 9.3125 C 174.804688 9.558594 171.910156 9.222656 169.015625 9.410156 C 165.445312 9.511719 161.878906 9.308594 158.316406 9.386719 C 152.863281 9.183594 147.410156 9.621094 141.964844 9.3125 C 133.832031 9.585938 125.695312 9.195312 117.5625 9.417969 C 109.660156 9.265625 101.746094 9.589844 93.84375 9.300781 C 92.160156 9.425781 90.261719 8.851562 88.792969 9.9375 C 88.738281 8.734375 88.671875 7.535156 88.730469 6.335938 C 88.765625 6.28125 88.832031 6.175781 88.871094 6.117188 Z M 88.871094 6.117188 "/>
    <path style=" stroke:none;fill-rule:nonzero;fill:rgb(6.666667%,43.921569%,40%);fill-opacity:1;" d="M 318.929688 5.761719 C 319.386719 5.8125 319.839844 5.863281 320.304688 5.910156 L 320.546875 6.164062 C 319.113281 7.539062 319.695312 9.574219 318.949219 11.222656 C 318.753906 9.40625 318.824219 7.582031 318.929688 5.761719 Z M 318.929688 5.761719 "/>
    <path style=" stroke:none;fill-rule:nonzero;fill:rgb(11.372549%,59.607843%,54.117647%);fill-opacity:1;" d="M 320.304688 5.910156 C 320.992188 5.914062 321.679688 5.875 322.371094 5.859375 C 324.539062 5.921875 326.792969 5.65625 328.878906 6.386719 C 328.476562 7.679688 328.429688 9.039062 328.359375 10.382812 C 328.101562 10.582031 327.84375 10.78125 327.59375 10.988281 C 325.777344 10.722656 324.175781 9.777344 322.492188 9.125 C 322.125 9.851562 321.800781 10.609375 321.660156 11.414062 C 321.488281 11.289062 321.144531 11.035156 320.972656 10.910156 C 321.09375 9.722656 321.15625 8.523438 321.121094 7.328125 C 321.183594 6.847656 320.808594 6.503906 320.546875 6.164062 Z M 320.304688 5.910156 "/>
    <path style=" stroke:none;fill-rule:nonzero;fill:rgb(46.666667%,73.333333%,70.196078%);fill-opacity:1;" d="M 8.828125 14.175781 C 12.800781 9.761719 18.578125 7.160156 24.433594 6.570312 C 27.984375 6.359375 31.539062 6.460938 35.089844 6.445312 C 40.238281 6.378906 45.316406 7.359375 50.429688 7.769531 C 52.445312 7.734375 54.449219 7.914062 56.453125 8.082031 C 63.800781 8.125 71.152344 8.085938 78.503906 8.105469 C 79.230469 7.988281 79.632812 8.636719 80.058594 9.101562 C 80.070312 10.242188 80.25 11.367188 80.476562 12.480469 C 80.632812 17.011719 80.332031 21.546875 80.363281 26.074219 C 80.402344 26.746094 80.253906 27.402344 79.945312 27.996094 C 79.679688 25.265625 79.898438 22.507812 79.734375 19.765625 C 79.71875 16.917969 80.128906 14.011719 79.476562 11.214844 C 76.148438 11.492188 72.8125 11.109375 69.480469 11.335938 C 67.46875 11.527344 65.457031 11.1875 63.441406 11.269531 C 60.332031 11.207031 57.191406 11.492188 54.101562 10.976562 C 52.773438 10.792969 51.417969 10.871094 50.09375 10.648438 C 45.082031 9.714844 39.988281 9.378906 34.925781 8.839844 C 32.308594 8.824219 29.695312 8.410156 27.078125 8.617188 C 24.214844 8.9375 21.285156 9.144531 18.601562 10.285156 C 13.320312 12.027344 8.730469 15.648438 5.652344 20.265625 C 5.449219 20.222656 5.042969 20.136719 4.84375 20.09375 C 5.230469 18.191406 6.246094 16.511719 7.265625 14.890625 C 7.90625 14.984375 8.429688 14.652344 8.828125 14.175781 Z M 8.828125 14.175781 "/>
    <path style=" stroke:none;fill-rule:nonzero;fill:rgb(45.098039%,72.54902%,69.803922%);fill-opacity:1;" d="M 88.414062 15.835938 C 88.4375 12.664062 88.507812 9.496094 88.730469 6.335938 C 88.671875 7.535156 88.738281 8.734375 88.792969 9.9375 C 90.261719 8.851562 92.160156 9.425781 93.84375 9.300781 C 101.746094 9.589844 109.660156 9.265625 117.5625 9.417969 C 125.695312 9.195312 133.832031 9.585938 141.964844 9.3125 C 147.410156 9.621094 152.863281 9.183594 158.316406 9.386719 C 161.878906 9.308594 165.445312 9.511719 169.015625 9.410156 C 171.910156 9.222656 174.804688 9.558594 177.703125 9.3125 C 180.367188 9.523438 183.03125 9.25 185.699219 9.386719 C 192.496094 9.242188 199.285156 9.519531 206.082031 9.332031 C 210.203125 9.261719 214.320312 9.542969 218.441406 9.367188 C 221.335938 9.457031 224.226562 9.308594 227.125 9.417969 C 229.683594 9.203125 232.246094 9.390625 234.8125 9.425781 C 238.042969 9.222656 241.273438 9.347656 244.507812 9.296875 C 253.191406 9.617188 261.875 9.132812 270.5625 9.375 C 273.117188 9.21875 275.671875 9.546875 278.230469 9.367188 C 283.792969 9.191406 289.355469 9.527344 294.917969 9.335938 C 300.042969 9.46875 305.164062 9.230469 310.28125 9.421875 C 313.007812 9.277344 315.730469 9.453125 318.457031 9.410156 C 318.4375 10.492188 318.335938 11.570312 318.195312 12.640625 C 316.566406 12.859375 314.921875 12.753906 313.289062 12.765625 C 307.054688 12.757812 300.824219 12.742188 294.589844 12.765625 C 291.800781 12.816406 289.011719 12.582031 286.226562 12.757812 C 277.320312 12.734375 268.414062 12.792969 259.511719 12.71875 C 252.71875 12.816406 245.921875 12.765625 239.128906 12.65625 C 233.003906 12.800781 226.882812 12.699219 220.761719 12.71875 C 194.949219 12.78125 169.121094 12.734375 143.304688 12.746094 C 131.488281 12.792969 119.683594 12.664062 107.867188 12.769531 C 104.421875 12.5625 100.972656 12.882812 97.523438 12.699219 C 95.742188 12.636719 93.953125 12.847656 92.171875 12.726562 C 91.121094 12.652344 90.0625 12.648438 89.03125 12.875 C 88.871094 13.871094 88.652344 14.855469 88.414062 15.835938 Z M 88.414062 15.835938 "/>
    <path style=" stroke:none;fill-rule:nonzero;fill:rgb(53.333333%,76.470588%,74.509804%);fill-opacity:1;" d="M 318.394531 6.363281 L 318.726562 6.648438 C 318.773438 8.609375 318.730469 10.574219 318.804688 12.535156 C 318.507812 13.664062 318.289062 14.8125 318.117188 15.964844 C 300.589844 16.046875 283.054688 15.949219 265.527344 16.011719 C 252.054688 15.953125 238.585938 16.035156 225.121094 15.96875 C 224.367188 15.90625 223.667969 16.171875 223.125 16.679688 C 221.0625 14.234375 216.941406 14.292969 214.953125 16.796875 C 214.75 16.109375 214.070312 15.960938 213.441406 16.007812 C 207.976562 16.265625 202.515625 15.894531 197.050781 16.109375 C 195.050781 15.960938 193.050781 16.003906 191.050781 16.097656 C 184.820312 15.78125 178.578125 16.273438 172.34375 16.035156 C 169.226562 16.164062 166.113281 15.835938 162.996094 16.0625 C 161.105469 16.210938 159.21875 16.027344 157.328125 16 C 151.761719 15.984375 146.199219 16.171875 140.632812 16.066406 C 138.394531 16.101562 136.15625 15.882812 133.921875 16.0625 C 128.359375 16.128906 122.796875 15.867188 117.234375 16.105469 C 109.546875 16.191406 101.859375 15.941406 94.175781 16.125 C 92.476562 16.152344 90.769531 15.800781 89.085938 16.140625 C 88.839844 16.714844 88.589844 17.289062 88.363281 17.871094 C 88.375 17.195312 88.378906 16.511719 88.414062 15.835938 C 88.652344 14.855469 88.871094 13.871094 89.03125 12.875 C 90.0625 12.648438 91.121094 12.652344 92.171875 12.726562 C 93.953125 12.847656 95.742188 12.636719 97.523438 12.699219 C 100.972656 12.882812 104.421875 12.5625 107.867188 12.769531 C 119.683594 12.664062 131.488281 12.792969 143.304688 12.746094 C 169.121094 12.734375 194.949219 12.78125 220.761719 12.71875 C 226.882812 12.699219 233.003906 12.800781 239.128906 12.65625 C 245.921875 12.765625 252.71875 12.816406 259.511719 12.71875 C 268.414062 12.792969 277.320312 12.734375 286.226562 12.757812 C 289.011719 12.582031 291.800781 12.816406 294.589844 12.765625 C 300.824219 12.742188 307.054688 12.757812 313.289062 12.765625 C 314.921875 12.753906 316.566406 12.859375 318.195312 12.640625 C 318.335938 11.570312 318.4375 10.492188 318.457031 9.410156 C 318.472656 8.394531 318.414062 7.382812 318.394531 6.363281 Z M 318.394531 6.363281 "/>
    <path style=" stroke:none;fill-rule:nonzero;fill:rgb(19.215686%,49.803922%,46.666667%);fill-opacity:1;" d="M 318.949219 11.222656 C 319.695312 9.574219 319.113281 7.539062 320.546875 6.164062 C 320.808594 6.503906 321.183594 6.847656 321.121094 7.328125 C 321.15625 8.523438 321.09375 9.722656 320.972656 10.910156 C 320.257812 15.332031 319.75 19.785156 319.46875 24.253906 C 319.585938 24.382812 319.820312 24.636719 319.9375 24.761719 C 319.699219 24.753906 319.21875 24.746094 318.976562 24.738281 C 318.945312 20.761719 318.886719 16.78125 318.8125 12.804688 C 318.835938 12.277344 318.890625 11.75 318.949219 11.222656 Z M 318.949219 11.222656 "/>
    <path style=" stroke:none;fill-rule:nonzero;fill:rgb(24.705882%,62.745098%,54.509804%);fill-opacity:1;" d="M 6.0625 15.097656 C 8.691406 11.289062 12.394531 8.152344 16.726562 6.46875 L 17.304688 6.6875 C 16.085938 7.546875 14.585938 7.890625 13.394531 8.800781 C 11.042969 10.46875 8.761719 12.382812 7.265625 14.890625 C 6.246094 16.511719 5.230469 18.191406 4.84375 20.09375 C 4.34375 22.175781 3.757812 24.25 3.566406 26.386719 C 3.484375 29.4375 3.414062 32.488281 3.375 35.535156 C 3.175781 38.363281 3.261719 41.207031 3.273438 44.042969 C 3.269531 45.777344 3.257812 47.511719 3.304688 49.246094 C 2.742188 49.175781 2.558594 48.675781 2.59375 48.167969 C 2.523438 44.5 2.800781 40.824219 2.570312 37.160156 C 2.335938 37.984375 2.035156 38.789062 1.605469 39.53125 C 1.039062 39.054688 0.640625 38.417969 0.355469 37.734375 C 0.378906 35.722656 0.335938 33.710938 0.425781 31.699219 C 0.582031 31.738281 0.886719 31.820312 1.046875 31.863281 C 0.917969 33.429688 1.03125 35.027344 1.507812 36.53125 C 2.042969 35.105469 1.917969 33.550781 2.0625 32.058594 C 2.160156 30.832031 2.246094 29.601562 2.335938 28.375 C 2.855469 23.816406 3.339844 18.957031 6.0625 15.097656 Z M 6.0625 15.097656 "/>
    <path style=" stroke:none;fill-rule:nonzero;fill:rgb(10.196078%,52.54902%,48.627451%);fill-opacity:1;" d="M 328.359375 10.382812 C 328.429688 9.039062 328.476562 7.679688 328.878906 6.386719 C 329.53125 6.703125 330.03125 7.226562 330.460938 7.800781 C 330.949219 10.171875 330.746094 12.601562 330.867188 15 C 330.902344 20.304688 330.828125 25.613281 330.910156 30.917969 L 330.535156 31.269531 C 330.722656 31.265625 330.914062 31.25 331.109375 31.222656 C 331.03125 30.359375 331.015625 29.488281 331.101562 28.625 C 331.933594 27.535156 331.546875 26.105469 331.722656 24.839844 C 332.457031 24.742188 333.1875 24.644531 333.929688 24.550781 L 334 24.941406 L 334 49.789062 C 333.828125 53.457031 333.222656 57.101562 331.984375 60.570312 C 330.050781 59.019531 327.921875 57.753906 325.992188 56.203125 C 324.480469 55.023438 322.917969 53.914062 321.386719 52.765625 C 320.75 52.339844 320.910156 51.484375 320.855469 50.832031 C 320.949219 42.136719 320.800781 33.4375 320.921875 24.742188 L 321.140625 24.738281 C 321.875 24.710938 322.613281 24.6875 323.355469 24.6875 C 324.71875 24.792969 326.226562 24.882812 327.207031 25.980469 C 327.996094 26.949219 327.933594 28.25 328.054688 29.429688 C 328.289062 33.773438 328.140625 38.125 328.273438 42.472656 C 328.460938 42.183594 328.394531 41.8125 328.460938 41.492188 C 328.597656 35.410156 328.574219 29.335938 328.410156 23.257812 C 328.429688 22.488281 328.410156 21.71875 328.410156 20.953125 C 328.414062 20.398438 328.40625 19.84375 328.414062 19.289062 C 328.425781 18.304688 328.402344 17.320312 328.410156 16.335938 C 328.40625 15.621094 328.410156 14.90625 328.414062 14.191406 C 328.417969 12.921875 328.347656 11.652344 328.359375 10.382812 Z M 328.359375 10.382812 "/>
    <path style=" stroke:none;fill-rule:nonzero;fill:rgb(10.196078%,52.54902%,48.627451%);fill-opacity:1;" d="M 158.089844 24.464844 C 158.207031 24.464844 158.441406 24.46875 158.558594 24.472656 C 158.507812 37.128906 158.554688 49.785156 158.5625 62.441406 C 158.425781 62.445312 158.15625 62.453125 158.023438 62.457031 C 158.117188 61.144531 158.132812 59.824219 158.113281 58.507812 C 158.117188 56.273438 158.167969 54.039062 158.140625 51.808594 C 158.125 42.695312 158.304688 33.574219 158.089844 24.464844 Z M 158.089844 24.464844 "/>
    <path style=" stroke:none;fill-rule:nonzero;fill:rgb(95.294118%,97.254902%,98.823529%);fill-opacity:1;" d="M 330.460938 7.800781 C 330.707031 7.789062 331.199219 7.761719 331.449219 7.75 C 331.566406 10.289062 331.464844 12.835938 331.453125 15.378906 C 331.351562 15.464844 331.15625 15.632812 331.054688 15.71875 C 331.007812 15.539062 330.914062 15.175781 330.867188 15 C 330.746094 12.601562 330.949219 10.171875 330.460938 7.800781 Z M 330.460938 7.800781 "/>
    <path style=" stroke:none;fill-rule:nonzero;fill:rgb(58.431373%,78.823529%,76.862745%);fill-opacity:1;" d="M 27.078125 8.617188 C 29.695312 8.410156 32.308594 8.824219 34.925781 8.839844 C 39.988281 9.378906 45.082031 9.714844 50.09375 10.648438 C 51.417969 10.871094 52.773438 10.792969 54.101562 10.976562 C 57.191406 11.492188 60.332031 11.207031 63.441406 11.269531 C 65.457031 11.1875 67.46875 11.527344 69.480469 11.335938 C 72.8125 11.109375 76.148438 11.492188 79.476562 11.214844 C 80.128906 14.011719 79.71875 16.917969 79.734375 19.765625 C 79.707031 19.082031 79.671875 18.398438 79.664062 17.710938 C 79.671875 16.652344 79.636719 15.59375 79.496094 14.546875 C 76.503906 14.972656 73.480469 14.730469 70.46875 14.796875 C 67.015625 14.761719 63.558594 14.792969 60.105469 14.792969 C 57.304688 14.777344 54.558594 14.078125 51.761719 14.089844 C 50.414062 14.070312 49.078125 13.894531 47.746094 13.738281 C 41.96875 13.097656 36.191406 12.496094 30.402344 11.992188 C 24.84375 11.652344 18.945312 12.128906 14.089844 15.105469 C 11.453125 16.847656 8.996094 18.964844 7.246094 21.621094 C 5.839844 23.605469 5.195312 25.980469 4.078125 28.113281 C 3.886719 27.546875 3.707031 26.972656 3.566406 26.386719 C 3.757812 24.25 4.34375 22.175781 4.84375 20.09375 C 5.042969 20.136719 5.449219 20.222656 5.652344 20.265625 C 8.730469 15.648438 13.320312 12.027344 18.601562 10.285156 C 21.285156 9.144531 24.214844 8.9375 27.078125 8.617188 Z M 27.078125 8.617188 "/>
    <path style=" stroke:none;fill-rule:nonzero;fill:rgb(26.666667%,67.058824%,63.921569%);fill-opacity:1;" d="M 321.660156 11.414062 C 321.800781 10.609375 322.125 9.851562 322.492188 9.125 C 324.175781 9.777344 325.777344 10.722656 327.59375 10.988281 C 327.84375 10.78125 328.101562 10.582031 328.359375 10.382812 C 328.347656 11.652344 328.417969 12.921875 328.414062 14.191406 C 326.300781 14.28125 324.121094 13.386719 322.097656 14.382812 C 321.960938 13.390625 321.753906 12.410156 321.660156 11.414062 Z M 321.660156 11.414062 "/>
    <path style=" stroke:none;fill-rule:nonzero;fill:rgb(33.72549%,58.431373%,56.470588%);fill-opacity:1;" d="M 320.972656 10.910156 C 321.144531 11.035156 321.488281 11.289062 321.660156 11.414062 C 321.753906 12.410156 321.960938 13.390625 322.097656 14.382812 C 322.160156 14.894531 322.214844 15.410156 322.269531 15.921875 C 321.730469 18.839844 321.472656 21.796875 321.140625 24.738281 L 320.921875 24.742188 C 320.675781 24.75 320.1875 24.757812 319.9375 24.761719 C 319.820312 24.636719 319.585938 24.382812 319.46875 24.253906 C 319.75 19.785156 320.257812 15.332031 320.972656 10.910156 Z M 320.972656 10.910156 "/>
    <path style=" stroke:none;fill-rule:nonzero;fill:rgb(68.627451%,83.921569%,83.529412%);fill-opacity:1;" d="M 14.089844 15.105469 C 18.945312 12.128906 24.84375 11.652344 30.402344 11.992188 C 36.191406 12.496094 41.96875 13.097656 47.746094 13.738281 C 49.078125 13.894531 50.414062 14.070312 51.761719 14.089844 C 54.558594 14.078125 57.304688 14.777344 60.105469 14.792969 C 63.558594 14.792969 67.015625 14.761719 70.46875 14.796875 C 73.480469 14.730469 76.503906 14.972656 79.496094 14.546875 C 79.636719 15.59375 79.671875 16.652344 79.664062 17.710938 C 79.191406 18.015625 78.757812 18.5 78.148438 18.484375 C 74.925781 18.605469 71.679688 18.273438 68.476562 18.730469 C 64.234375 19.140625 60.011719 18.394531 55.78125 18.175781 C 54.019531 18.128906 52.242188 18.222656 50.488281 17.964844 C 49.074219 17.761719 47.609375 17.699219 46.238281 18.175781 C 46.398438 17.75 46.558594 17.320312 46.71875 16.890625 C 43.707031 16.894531 40.695312 16.828125 37.683594 16.902344 C 37.632812 17.019531 37.523438 17.257812 37.476562 17.375 C 35.800781 16.027344 33.550781 16.546875 31.652344 15.816406 C 30.398438 15.382812 29.0625 15.660156 27.765625 15.5625 C 23.800781 15.300781 19.722656 15.832031 16.078125 17.46875 C 13.609375 18.734375 11.402344 20.511719 9.683594 22.691406 C 7.210938 26.128906 5.464844 30.039062 4.203125 34.066406 C 4.113281 33.824219 3.941406 33.339844 3.851562 33.097656 C 3.707031 33.914062 3.539062 34.726562 3.375 35.535156 C 3.414062 32.488281 3.484375 29.4375 3.566406 26.386719 C 3.707031 26.972656 3.886719 27.546875 4.078125 28.113281 C 5.195312 25.980469 5.839844 23.605469 7.246094 21.621094 C 8.996094 18.964844 11.453125 16.847656 14.089844 15.105469 Z M 14.089844 15.105469 "/>
    <path style=" stroke:none;fill-rule:nonzero;fill:rgb(61.568627%,80.784314%,79.607843%);fill-opacity:1;" d="M 318.804688 12.535156 L 318.8125 12.804688 C 318.886719 16.78125 318.945312 20.761719 318.976562 24.738281 C 318.957031 30.835938 318.980469 36.933594 318.964844 43.03125 L 318.457031 42.714844 C 318.160156 40.183594 318.390625 37.632812 318.253906 35.089844 C 318.101562 32.140625 317.921875 29.183594 318.011719 26.230469 L 318.621094 25.980469 C 318.941406 23.617188 318.710938 21.210938 318.695312 18.832031 C 317.179688 19.847656 315.304688 19.402344 313.601562 19.476562 C 284.0625 19.515625 254.519531 19.414062 224.980469 19.523438 C 224.855469 19.929688 224.730469 20.335938 224.613281 20.742188 C 224.472656 20.058594 224.34375 19.367188 224.160156 18.691406 C 223.933594 17.964844 223.546875 17.304688 223.125 16.679688 C 223.667969 16.171875 224.367188 15.90625 225.121094 15.96875 C 238.585938 16.035156 252.054688 15.953125 265.527344 16.011719 C 283.054688 15.949219 300.589844 16.046875 318.117188 15.964844 C 318.289062 14.8125 318.507812 13.664062 318.804688 12.535156 Z M 318.804688 12.535156 "/>
    <path style=" stroke:none;fill-rule:nonzero;fill:rgb(38.823529%,72.156863%,70.980392%);fill-opacity:1;" d="M 322.097656 14.382812 C 324.121094 13.386719 326.300781 14.28125 328.414062 14.191406 C 328.410156 14.90625 328.40625 15.621094 328.410156 16.335938 C 328.199219 16.632812 327.988281 16.925781 327.785156 17.21875 C 326.109375 17.171875 324.417969 17.042969 322.753906 17.324219 C 322.597656 16.855469 322.421875 16.390625 322.269531 15.921875 C 322.214844 15.410156 322.160156 14.894531 322.097656 14.382812 Z M 322.097656 14.382812 "/>
    <path style=" stroke:none;fill-rule:nonzero;fill:rgb(65.098039%,81.960784%,81.960784%);fill-opacity:1;" d="M 330.910156 30.917969 C 330.828125 25.613281 330.902344 20.304688 330.867188 15 C 330.914062 15.175781 331.007812 15.539062 331.054688 15.71875 C 331.15625 15.632812 331.351562 15.464844 331.453125 15.378906 C 331.292969 19.792969 331.121094 24.203125 331.101562 28.625 C 331.015625 29.488281 331.03125 30.359375 331.109375 31.222656 C 330.914062 31.25 330.722656 31.265625 330.535156 31.269531 Z M 330.910156 30.917969 "/>
    <path style=" stroke:none;fill-rule:nonzero;fill:rgb(79.215686%,89.019608%,89.411765%);fill-opacity:1;" d="M 16.078125 17.46875 C 19.722656 15.832031 23.800781 15.300781 27.765625 15.5625 C 29.0625 15.660156 30.398438 15.382812 31.652344 15.816406 C 33.550781 16.546875 35.800781 16.027344 37.476562 17.375 C 36.738281 19.800781 35.726562 22.136719 35.042969 24.582031 C 34.960938 23.890625 34.898438 23.195312 34.894531 22.496094 C 33.90625 21.945312 32.835938 21.566406 31.722656 21.378906 C 30.109375 21.128906 28.660156 20.296875 27.050781 20.027344 C 25.484375 19.75 23.984375 19.121094 22.390625 19.003906 C 19.613281 19.132812 16.960938 20.21875 14.589844 21.621094 C 13.40625 22.304688 12.699219 23.507812 11.730469 24.429688 C 11.378906 24.820312 10.847656 25.136719 10.855469 25.730469 C 9.15625 26.554688 7.679688 27.90625 6.9375 29.671875 C 5.75 32.011719 5.679688 34.675781 5.195312 37.199219 C 5.121094 36.925781 4.964844 36.382812 4.894531 36.109375 C 4.746094 38.011719 4.335938 39.882812 4.125 41.777344 C 4.046875 42.597656 3.84375 43.417969 3.273438 44.042969 C 3.261719 41.207031 3.175781 38.363281 3.375 35.535156 C 3.539062 34.726562 3.707031 33.914062 3.851562 33.097656 C 3.941406 33.339844 4.113281 33.824219 4.203125 34.066406 C 5.464844 30.039062 7.210938 26.128906 9.683594 22.691406 C 11.402344 20.511719 13.609375 18.734375 16.078125 17.46875 Z M 16.078125 17.46875 "/>
    <path style=" stroke:none;fill-rule:nonzero;fill:rgb(62.745098%,80.784314%,80%);fill-opacity:1;" d="M 89.085938 16.140625 C 90.769531 15.800781 92.476562 16.152344 94.175781 16.125 C 101.859375 15.941406 109.546875 16.191406 117.234375 16.105469 C 122.796875 15.867188 128.359375 16.128906 133.921875 16.0625 C 136.15625 15.882812 138.394531 16.101562 140.632812 16.066406 C 146.199219 16.171875 151.761719 15.984375 157.328125 16 C 159.21875 16.027344 161.105469 16.210938 162.996094 16.0625 C 166.113281 15.835938 169.226562 16.164062 172.34375 16.035156 C 178.578125 16.273438 184.820312 15.78125 191.050781 16.097656 C 193.050781 16.003906 195.050781 15.960938 197.050781 16.109375 C 202.515625 15.894531 207.976562 16.265625 213.441406 16.007812 C 214.070312 15.960938 214.75 16.109375 214.953125 16.796875 C 214.597656 17.40625 214.222656 18.015625 214.019531 18.699219 C 213.871094 19.425781 213.773438 20.15625 213.667969 20.890625 C 212.921875 20.753906 212.171875 20.609375 211.414062 20.589844 C 201.953125 20.609375 192.488281 20.609375 183.023438 20.589844 C 182.265625 20.5625 181.550781 20.828125 180.859375 21.101562 C 178.652344 19.953125 176.148438 19.429688 173.671875 19.503906 C 168.632812 19.558594 163.59375 19.417969 158.5625 19.570312 C 158.46875 20.113281 158.375 20.65625 158.304688 21.199219 C 158.144531 20.625 157.957031 20.058594 157.773438 19.496094 C 135.691406 19.414062 113.605469 19.5 91.527344 19.453125 C 90.453125 19.4375 89.386719 19.519531 88.324219 19.65625 C 88.324219 19.058594 88.335938 18.464844 88.363281 17.871094 C 88.589844 17.289062 88.839844 16.714844 89.085938 16.140625 Z M 89.085938 16.140625 "/>
    <path style=" stroke:none;fill-rule:nonzero;fill:rgb(51.764706%,70.588235%,70.980392%);fill-opacity:1;" d="M 322.269531 15.921875 C 322.421875 16.390625 322.597656 16.855469 322.753906 17.324219 C 322.855469 18.535156 322.882812 19.753906 322.871094 20.96875 C 322.753906 22.035156 322.558594 23.082031 322.46875 24.152344 C 322.460938 24.222656 322.4375 24.375 322.421875 24.449219 C 322.726562 24.53125 323.039062 24.613281 323.355469 24.6875 C 322.613281 24.6875 321.875 24.710938 321.140625 24.738281 C 321.472656 21.796875 321.730469 18.839844 322.269531 15.921875 Z M 322.269531 15.921875 "/>
    <path style=" stroke:none;fill-rule:nonzero;fill:rgb(50.980392%,76.862745%,76.862745%);fill-opacity:1;" d="M 327.785156 17.21875 C 327.988281 16.925781 328.199219 16.632812 328.410156 16.335938 C 328.402344 17.320312 328.425781 18.304688 328.414062 19.289062 C 328.191406 19.726562 327.957031 20.15625 327.726562 20.589844 C 326.105469 20.648438 324.449219 20.5 322.871094 20.96875 C 322.882812 19.753906 322.855469 18.535156 322.753906 17.324219 C 324.417969 17.042969 326.109375 17.171875 327.785156 17.21875 Z M 327.785156 17.21875 "/>
    <path style=" stroke:none;fill-rule:nonzero;fill:rgb(79.215686%,89.019608%,90.196078%);fill-opacity:1;" d="M 46.238281 18.175781 C 47.609375 17.699219 49.074219 17.761719 50.488281 17.964844 C 52.242188 18.222656 54.019531 18.128906 55.78125 18.175781 C 60.011719 18.394531 64.234375 19.140625 68.476562 18.730469 C 71.679688 18.273438 74.925781 18.605469 78.148438 18.484375 C 78.757812 18.5 79.191406 18.015625 79.664062 17.710938 C 79.671875 18.398438 79.707031 19.082031 79.734375 19.765625 C 79.898438 22.507812 79.679688 25.265625 79.945312 27.996094 C 80.007812 32.597656 80.042969 37.199219 79.984375 41.804688 C 79.957031 42.617188 79.992188 43.429688 80.148438 44.226562 C 79.550781 42.824219 79.808594 41.273438 79.738281 39.792969 C 79.640625 36.222656 79.738281 32.617188 79.082031 29.09375 C 78.761719 27.617188 78.164062 25.9375 76.691406 25.25 C 75.316406 24.761719 73.824219 24.847656 72.394531 24.632812 C 72.738281 24.503906 73.082031 24.371094 73.421875 24.234375 C 63.703125 24.308594 53.980469 24.269531 44.261719 24.222656 C 44.855469 22.1875 45.511719 20.167969 46.238281 18.175781 Z M 46.238281 18.175781 "/>
    <path style=" stroke:none;fill-rule:nonzero;fill:rgb(74.901961%,86.666667%,87.45098%);fill-opacity:1;" d="M 213.667969 20.890625 C 213.773438 20.15625 213.871094 19.425781 214.019531 18.699219 C 213.597656 20.972656 214.730469 23.382812 216.804688 24.429688 C 206.171875 24.449219 195.535156 24.511719 184.898438 24.398438 C 183.792969 23.035156 182.339844 22.019531 180.859375 21.101562 C 181.550781 20.828125 182.265625 20.5625 183.023438 20.589844 C 192.488281 20.609375 201.953125 20.609375 211.414062 20.589844 C 212.171875 20.609375 212.921875 20.753906 213.667969 20.890625 Z M 213.667969 20.890625 "/>
    <path style=" stroke:none;fill-rule:nonzero;fill:rgb(72.156863%,85.490196%,85.882353%);fill-opacity:1;" d="M 224.160156 18.691406 C 224.34375 19.367188 224.472656 20.058594 224.613281 20.742188 C 224.730469 20.335938 224.855469 19.929688 224.980469 19.523438 C 254.519531 19.414062 284.0625 19.515625 313.601562 19.476562 C 315.304688 19.402344 317.179688 19.847656 318.695312 18.832031 C 318.710938 21.210938 318.941406 23.617188 318.621094 25.980469 L 318.011719 26.230469 C 317.984375 25.40625 317.4375 24.800781 316.824219 24.332031 C 316.824219 24.179688 316.8125 23.886719 316.804688 23.734375 C 311.742188 23.546875 306.667969 23.71875 301.601562 23.660156 C 282.335938 23.664062 263.070312 23.660156 243.804688 23.664062 C 240.363281 23.902344 236.910156 23.878906 233.460938 23.792969 C 231.566406 23.554688 229.671875 23.894531 227.773438 23.84375 C 226.070312 23.847656 224.367188 23.757812 222.671875 23.933594 C 224.4375 24.460938 226.300781 24.101562 228.117188 24.199219 C 232.9375 24.289062 237.777344 24.011719 242.589844 24.351562 C 240.660156 24.542969 238.714844 24.429688 236.777344 24.453125 C 231.648438 24.433594 226.519531 24.5 221.386719 24.417969 C 223.460938 23.378906 224.574219 20.960938 224.160156 18.691406 Z M 224.160156 18.691406 "/>
    <path style=" stroke:none;fill-rule:nonzero;fill:rgb(86.27451%,92.54902%,93.333333%);fill-opacity:1;" d="M 14.589844 21.621094 C 16.960938 20.21875 19.613281 19.132812 22.390625 19.003906 C 23.984375 19.121094 25.484375 19.75 27.050781 20.027344 C 28.660156 20.296875 30.109375 21.128906 31.722656 21.378906 C 32.835938 21.566406 33.90625 21.945312 34.894531 22.496094 C 34.898438 23.195312 34.960938 23.890625 35.042969 24.582031 C 35.007812 24.675781 34.9375 24.863281 34.898438 24.957031 C 34.246094 24.535156 33.445312 24.65625 32.707031 24.636719 C 28.035156 24.6875 23.363281 24.597656 18.695312 24.804688 C 16.066406 24.824219 13.328125 24.640625 10.855469 25.730469 C 10.847656 25.136719 11.378906 24.820312 11.730469 24.429688 C 12.699219 23.507812 13.40625 22.304688 14.589844 21.621094 Z M 14.589844 21.621094 "/>
    <path style=" stroke:none;fill-rule:nonzero;fill:rgb(71.372549%,85.098039%,85.490196%);fill-opacity:1;" d="M 88.324219 19.65625 C 89.386719 19.519531 90.453125 19.4375 91.527344 19.453125 C 113.605469 19.5 135.691406 19.414062 157.773438 19.496094 C 157.957031 20.058594 158.144531 20.625 158.304688 21.199219 C 158.304688 22.019531 158.304688 22.839844 158.300781 23.664062 C 158.066406 23.355469 157.824219 23.050781 157.59375 22.742188 C 149.261719 22.597656 140.917969 22.726562 132.582031 22.683594 C 117.878906 22.71875 103.175781 22.628906 88.472656 22.714844 C 88.394531 21.699219 88.324219 20.675781 88.324219 19.65625 Z M 88.324219 19.65625 "/>
    <path style=" stroke:none;fill-rule:nonzero;fill:rgb(61.960784%,80.392157%,81.568627%);fill-opacity:1;" d="M 327.726562 20.589844 C 327.957031 20.15625 328.191406 19.726562 328.414062 19.289062 C 328.40625 19.84375 328.414062 20.398438 328.410156 20.953125 C 328.210938 21.53125 327.992188 22.097656 327.78125 22.667969 C 326.53125 22.863281 325.261719 22.625 324.019531 22.800781 C 323.472656 23.210938 323.039062 23.761719 322.46875 24.152344 C 322.558594 23.082031 322.753906 22.035156 322.871094 20.96875 C 324.449219 20.5 326.105469 20.648438 327.726562 20.589844 Z M 327.726562 20.589844 "/>
    <path style=" stroke:none;fill-rule:nonzero;fill:rgb(77.254902%,87.843137%,89.019608%);fill-opacity:1;" d="M 158.304688 21.199219 C 158.375 20.65625 158.46875 20.113281 158.5625 19.570312 C 158.714844 21.203125 158.628906 22.839844 158.558594 24.472656 C 158.441406 24.46875 158.207031 24.464844 158.089844 24.464844 C 136 24.433594 113.914062 24.46875 91.828125 24.449219 C 90.960938 24.335938 90.042969 24.875 89.875 25.761719 C 89.339844 28.4375 89.355469 31.179688 89.082031 33.886719 C 88.132812 30.238281 88.949219 26.425781 88.472656 22.714844 C 103.175781 22.628906 117.878906 22.71875 132.582031 22.683594 C 140.917969 22.726562 149.261719 22.597656 157.59375 22.742188 C 157.824219 23.050781 158.066406 23.355469 158.300781 23.664062 C 158.304688 22.839844 158.304688 22.019531 158.304688 21.199219 Z M 158.304688 21.199219 "/>
    <path style=" stroke:none;fill-rule:nonzero;fill:rgb(69.019608%,83.529412%,85.882353%);fill-opacity:1;" d="M 327.78125 22.667969 C 327.992188 22.097656 328.210938 21.53125 328.410156 20.953125 C 328.410156 21.71875 328.429688 22.488281 328.410156 23.257812 C 328.171875 24.140625 328.070312 25.054688 328.042969 25.964844 C 327.757812 25.96875 327.480469 25.972656 327.207031 25.980469 C 326.226562 24.882812 324.71875 24.792969 323.355469 24.6875 C 323.039062 24.613281 322.726562 24.53125 322.421875 24.449219 C 322.4375 24.375 322.460938 24.222656 322.46875 24.152344 C 323.039062 23.761719 323.472656 23.210938 324.019531 22.800781 C 325.261719 22.625 326.53125 22.863281 327.78125 22.667969 Z M 327.78125 22.667969 "/>
    <path style=" stroke:none;fill-rule:nonzero;fill:rgb(30.196078%,64.313725%,56.078431%);fill-opacity:1;" d="M 89.875 25.761719 C 90.042969 24.875 90.960938 24.335938 91.828125 24.449219 C 113.914062 24.46875 136 24.433594 158.089844 24.464844 C 158.304688 33.574219 158.125 42.695312 158.140625 51.808594 C 135.167969 51.8125 112.195312 51.777344 89.222656 51.824219 C 89.15625 49.550781 89.523438 47.199219 88.789062 45 C 88.800781 41.292969 88.992188 37.589844 89.082031 33.886719 C 89.355469 31.179688 89.339844 28.4375 89.875 25.761719 Z M 89.875 25.761719 "/>
    <path style=" stroke:none;fill-rule:nonzero;fill:rgb(29.803922%,63.921569%,55.686275%);fill-opacity:1;" d="M 10.855469 25.730469 C 13.328125 24.640625 16.066406 24.824219 18.695312 24.804688 C 23.363281 24.597656 28.035156 24.6875 32.707031 24.636719 C 33.445312 24.65625 34.246094 24.535156 34.898438 24.957031 C 32.082031 33.117188 29.304688 41.289062 26.488281 49.453125 C 19.554688 49.628906 12.617188 49.511719 5.679688 49.523438 C 3.882812 49.667969 2.085938 49.640625 0.289062 49.460938 C 0.347656 45.550781 0.101562 41.640625 0.355469 37.734375 C 0.640625 38.417969 1.039062 39.054688 1.605469 39.53125 C 2.035156 38.789062 2.335938 37.984375 2.570312 37.160156 C 2.800781 40.824219 2.523438 44.5 2.59375 48.167969 C 2.558594 48.675781 2.742188 49.175781 3.304688 49.246094 C 3.8125 48.859375 3.789062 48.203125 3.882812 47.636719 C 4.378906 44.164062 4.683594 40.667969 5.195312 37.199219 C 5.679688 34.675781 5.75 32.011719 6.9375 29.671875 C 7.679688 27.90625 9.15625 26.554688 10.855469 25.730469 Z M 10.855469 25.730469 "/>
    <path style=" stroke:none;fill-rule:nonzero;fill:rgb(29.803922%,63.921569%,55.686275%);fill-opacity:1;" d="M 241.101562 36.753906 C 242.359375 35.78125 244.410156 35.859375 245.464844 37.117188 C 246.421875 38.277344 246.742188 39.824219 246.875 41.289062 C 246.632812 42.113281 246.515625 42.964844 246.546875 43.824219 C 246.589844 46.277344 246.46875 48.726562 246.480469 51.175781 C 244.429688 51.175781 242.375 51.292969 240.328125 51.109375 C 240.148438 50.398438 239.925781 49.703125 239.664062 49.019531 C 239.488281 46.242188 239.820312 43.4375 239.441406 40.671875 C 239.5625 39.25 239.964844 37.710938 241.101562 36.753906 Z M 241.101562 36.753906 "/>
    <path style=" stroke:none;fill-rule:nonzero;fill:rgb(29.803922%,63.921569%,55.686275%);fill-opacity:1;" d="M 257.570312 37.222656 C 258.769531 35.628906 261.511719 35.75 262.621094 37.382812 C 264.128906 39.664062 263.738281 42.550781 263.808594 45.152344 C 263.800781 50.910156 263.84375 56.667969 263.824219 62.429688 L 263.519531 62.332031 C 263.464844 61.960938 263.425781 61.585938 263.402344 61.210938 C 263.402344 59.640625 263.429688 58.070312 263.355469 56.5 C 263.25 54.386719 263.425781 52.265625 263.253906 50.160156 C 263.148438 50.085938 262.945312 49.941406 262.839844 49.871094 C 260.867188 49.679688 258.878906 49.988281 256.90625 49.757812 C 256.746094 47.492188 257.019531 45.113281 256.125 42.964844 C 256.199219 40.996094 256.363281 38.859375 257.570312 37.222656 Z M 257.570312 37.222656 "/>
    <path style=" stroke:none;fill-rule:nonzero;fill:rgb(29.803922%,64.313725%,56.078431%);fill-opacity:1;" d="M 37.636719 43.378906 C 39.804688 37.128906 41.886719 30.847656 44.066406 24.601562 C 53.511719 24.625 62.953125 24.546875 72.394531 24.632812 C 73.824219 24.847656 75.316406 24.761719 76.691406 25.25 C 78.164062 25.9375 78.761719 27.617188 79.082031 29.09375 C 79.738281 32.617188 79.640625 36.222656 79.738281 39.792969 C 79.808594 41.273438 79.550781 42.824219 80.148438 44.226562 C 80.558594 47.246094 80.253906 50.320312 80.265625 53.359375 C 79.433594 51.898438 79.917969 50.175781 79.738281 48.585938 C 71.648438 48.320312 63.546875 48.621094 55.453125 48.476562 C 55.441406 44.050781 55.410156 39.621094 55.320312 35.203125 L 54.960938 35.183594 C 51.96875 35.167969 48.984375 35.1875 45.996094 35.175781 C 45.996094 37.910156 45.992188 40.640625 46.007812 43.378906 C 43.214844 43.371094 40.425781 43.363281 37.636719 43.378906 Z M 37.636719 43.378906 "/>
    <path style=" stroke:none;fill-rule:nonzero;fill:rgb(29.803922%,64.313725%,56.078431%);fill-opacity:1;" d="M 288.832031 37.398438 C 290.445312 35.605469 293.644531 35.667969 295.160156 37.570312 C 296.226562 38.824219 296.488281 40.546875 296.378906 42.144531 C 293.394531 42.082031 290.414062 42.082031 287.429688 42.144531 C 287.273438 40.460938 287.628906 38.644531 288.832031 37.398438 Z M 288.832031 37.398438 "/>
    <path style=" stroke:none;fill-rule:nonzero;fill:rgb(9.411765%,45.490196%,41.960784%);fill-opacity:1;" d="M 318.976562 24.738281 C 319.21875 24.746094 319.699219 24.753906 319.9375 24.761719 C 320.1875 24.757812 320.675781 24.75 320.921875 24.742188 C 320.800781 33.4375 320.949219 42.136719 320.855469 50.832031 C 320.910156 51.484375 320.75 52.339844 321.386719 52.765625 C 322.917969 53.914062 324.480469 55.023438 325.992188 56.203125 C 327.921875 57.753906 330.050781 59.019531 331.984375 60.570312 C 331.492188 62.03125 330.871094 63.449219 330.140625 64.800781 C 326.457031 62.367188 323.113281 59.476562 319.476562 56.980469 C 319.246094 55.53125 319.773438 53.898438 318.855469 52.628906 C 318.734375 49.429688 319.109375 46.234375 318.964844 43.03125 C 318.980469 36.933594 318.957031 30.835938 318.976562 24.738281 Z M 318.976562 24.738281 "/>
    <path style=" stroke:none;fill-rule:nonzero;fill:rgb(9.411765%,45.490196%,41.960784%);fill-opacity:1;" d="M 214.332031 29.015625 C 217.402344 28.945312 220.480469 28.945312 223.554688 29.011719 L 223.679688 29.199219 C 220.625 29.195312 217.570312 29.203125 214.519531 29.199219 C 214.542969 40.285156 214.542969 51.375 214.535156 62.460938 C 217.585938 62.460938 220.636719 62.464844 223.6875 62.457031 C 223.683594 51.417969 223.660156 40.375 223.710938 29.332031 C 224.019531 30.335938 223.878906 31.398438 223.898438 32.433594 C 223.898438 38.871094 223.910156 45.3125 223.9375 51.753906 C 223.890625 54.699219 223.964844 57.640625 223.984375 60.589844 C 223.988281 61.285156 223.964844 61.980469 223.933594 62.679688 C 220.71875 62.71875 217.492188 62.742188 214.277344 62.664062 C 214.238281 62.195312 214.199219 61.71875 214.1875 61.246094 C 214.226562 58.476562 214.289062 55.703125 214.261719 52.925781 C 214.304688 44.957031 214.257812 36.988281 214.332031 29.015625 Z M 214.332031 29.015625 "/>
    <path style=" stroke:none;fill-rule:nonzero;fill:rgb(9.411765%,45.490196%,41.960784%);fill-opacity:1;" d="M 229.9375 39.316406 C 230.046875 39.335938 230.253906 39.359375 230.355469 39.378906 C 230.097656 41.292969 230.222656 43.234375 230.191406 45.160156 C 230.183594 50.925781 230.214844 56.691406 230.183594 62.457031 C 233.242188 62.46875 236.300781 62.460938 239.363281 62.460938 C 239.398438 55.199219 239.269531 47.929688 239.441406 40.671875 C 239.820312 43.4375 239.488281 46.242188 239.664062 49.019531 C 239.550781 52.871094 239.695312 56.730469 239.699219 60.585938 C 239.699219 61.28125 239.671875 61.980469 239.632812 62.675781 C 236.417969 62.71875 233.203125 62.746094 229.988281 62.664062 C 229.957031 61.832031 229.941406 61.003906 229.957031 60.175781 C 229.957031 57.121094 230.097656 54.0625 229.964844 51.011719 C 230.019531 47.113281 230.074219 43.214844 229.9375 39.316406 Z M 229.9375 39.316406 "/>
    <path style=" stroke:none;fill-rule:nonzero;fill:rgb(68.235294%,85.098039%,85.882353%);fill-opacity:1;" d="M 1.046875 31.863281 C 1 30.03125 1.082031 28.203125 1.273438 26.382812 C 1.226562 27.617188 1.089844 28.867188 1.308594 30.089844 C 1.46875 30.238281 1.785156 30.527344 1.945312 30.675781 C 2.089844 29.914062 2.234375 29.148438 2.335938 28.375 C 2.246094 29.601562 2.160156 30.832031 2.0625 32.058594 C 1.722656 31.988281 1.382812 31.925781 1.046875 31.863281 Z M 1.046875 31.863281 "/>
    <path style=" stroke:none;fill-rule:nonzero;fill:rgb(26.27451%,56.862745%,49.411765%);fill-opacity:0.921569;" d="M 0 28.980469 L 0.0703125 28.523438 C 0.417969 29.546875 0.457031 30.628906 0.425781 31.699219 C 0.335938 33.710938 0.378906 35.722656 0.355469 37.734375 C 0.101562 41.640625 0.347656 45.550781 0.289062 49.460938 C 0.207031 53.339844 0.378906 57.21875 0.292969 61.097656 L 0 61.425781 Z M 0 28.980469 "/>
    <path style=" stroke:none;fill-rule:nonzero;fill:rgb(37.254902%,71.764706%,69.019608%);fill-opacity:1;" d="M 1.046875 31.863281 C 1.382812 31.925781 1.722656 31.988281 2.0625 32.058594 C 1.917969 33.550781 2.042969 35.105469 1.507812 36.53125 C 1.03125 35.027344 0.917969 33.429688 1.046875 31.863281 Z M 1.046875 31.863281 "/>
    <path style=" stroke:none;fill-rule:nonzero;fill:rgb(16.078431%,54.509804%,45.098039%);fill-opacity:1;" d="M 54.960938 35.183594 L 55.320312 35.203125 C 55.410156 39.621094 55.441406 44.050781 55.453125 48.476562 C 55.359375 52.28125 55.535156 56.085938 55.515625 59.894531 C 55.5 60.671875 55.457031 61.453125 55.378906 62.230469 L 54.945312 62.269531 C 54.933594 53.242188 54.945312 44.214844 54.960938 35.183594 Z M 54.960938 35.183594 "/>
    <path style=" stroke:none;fill-rule:nonzero;fill:rgb(18.431373%,58.431373%,48.627451%);fill-opacity:1;" d="M 167.949219 38.429688 C 170.277344 38.667969 172.726562 38.03125 174.964844 38.832031 C 172.632812 39.121094 170.28125 38.910156 167.9375 38.96875 Z M 167.949219 38.429688 "/>
    <path style=" stroke:none;fill-rule:nonzero;fill:rgb(27.45098%,59.215686%,51.764706%);fill-opacity:1;" d="M 201.792969 38.175781 C 201.828125 38.382812 201.894531 38.792969 201.929688 39 C 201.433594 43.671875 201.855469 48.386719 201.875 53.082031 C 203.832031 53.195312 205.796875 53.101562 207.757812 53.109375 C 209.925781 53.089844 212.105469 53.253906 214.261719 52.925781 C 214.289062 55.703125 214.226562 58.476562 214.1875 61.246094 C 210.074219 61.183594 205.949219 61.429688 201.84375 61.140625 C 201.582031 58.707031 201.730469 56.25 201.542969 53.8125 C 201.308594 55.761719 201.734375 57.789062 201.058594 59.675781 C 200.988281 53.835938 201.058594 47.992188 201.023438 42.152344 C 201.011719 40.796875 201.109375 39.382812 201.792969 38.175781 Z M 201.792969 38.175781 "/>
    <path style=" stroke:none;fill-rule:nonzero;fill:rgb(27.45098%,59.215686%,51.764706%);fill-opacity:1;" d="M 229.234375 53.066406 C 229.429688 52.363281 229.675781 51.679688 229.964844 51.011719 C 230.097656 54.0625 229.957031 57.121094 229.957031 60.175781 C 229.660156 60.523438 229.375 60.871094 229.085938 61.222656 C 227.398438 61.175781 225.425781 61.734375 223.984375 60.589844 C 223.964844 57.640625 223.890625 54.699219 223.9375 51.753906 C 224.179688 52.1875 224.445312 52.617188 224.707031 53.042969 C 226.210938 53.179688 227.722656 53.175781 229.234375 53.066406 Z M 229.234375 53.066406 "/>
    <path style=" stroke:none;fill-rule:nonzero;fill:rgb(21.176471%,59.215686%,50.196078%);fill-opacity:1;" d="M 305.324219 39.023438 C 305.46875 39.011719 305.761719 38.976562 305.902344 38.964844 C 306.097656 41.582031 305.949219 44.210938 306.054688 46.835938 C 305.984375 47.4375 306.230469 48.347656 305.476562 48.617188 C 305.40625 45.417969 305.660156 42.203125 305.324219 39.023438 Z M 305.324219 39.023438 "/>
    <path style=" stroke:none;fill-rule:nonzero;fill:rgb(20%,58.039216%,49.019608%);fill-opacity:1;" d="M 277.832031 45.839844 C 277.882812 43.8125 277.71875 41.773438 278.039062 39.757812 C 278.136719 39.953125 278.332031 40.335938 278.429688 40.53125 C 278.367188 44.199219 278.25 47.890625 278.507812 51.550781 C 278.363281 51.527344 278.070312 51.476562 277.921875 51.453125 C 277.675781 49.589844 277.839844 47.710938 277.832031 45.839844 Z M 277.832031 45.839844 "/>
    <path style=" stroke:none;fill-rule:nonzero;fill:rgb(24.313725%,52.941176%,45.882353%);fill-opacity:1;" d="M 272.90625 40.671875 C 273.582031 41.582031 273.402344 42.746094 273.421875 43.808594 C 273.394531 47.140625 273.464844 50.472656 273.554688 53.800781 C 273.414062 56.359375 273.550781 58.925781 273.648438 61.484375 C 277.039062 61.75 280.449219 61.507812 283.847656 61.570312 C 283.246094 61.066406 282.679688 60.523438 282.164062 59.941406 L 282.535156 59.691406 C 284.589844 61.53125 287.226562 62.628906 289.933594 63.046875 C 294.707031 63.730469 299.640625 63.0625 304.121094 61.300781 C 303.746094 59.941406 303.425781 58.574219 303.097656 57.210938 C 303.175781 57.015625 303.332031 56.628906 303.410156 56.433594 C 303.671875 57.222656 303.914062 58.023438 304.144531 58.828125 C 308.644531 59.175781 313.175781 58.847656 317.683594 58.992188 C 317.886719 59.59375 318.101562 60.195312 318.332031 60.789062 C 318.078125 62.3125 317.554688 63.765625 316.960938 65.183594 C 316.402344 66.515625 315.601562 67.722656 314.710938 68.851562 C 312.59375 68.5 310.4375 68.6875 308.304688 68.5 C 303.960938 68.761719 299.601562 68.574219 295.253906 68.601562 C 290.578125 68.4375 285.90625 68.765625 281.234375 68.59375 C 279.335938 68.402344 277.441406 68.6875 275.542969 68.640625 C 271.539062 68.605469 267.53125 68.6875 263.527344 68.605469 C 259.519531 68.285156 255.503906 68.667969 251.5 68.527344 C 248.9375 68.789062 246.375 68.40625 243.808594 68.597656 C 241.023438 68.277344 238.242188 68.839844 235.457031 68.554688 C 234.007812 68.433594 232.5625 68.679688 231.113281 68.5625 C 228.667969 68.316406 226.222656 68.808594 223.773438 68.519531 C 218.324219 68.722656 212.863281 68.664062 207.414062 68.546875 C 200.398438 68.578125 193.386719 68.660156 186.378906 68.527344 C 183.375 68.628906 180.367188 68.621094 177.363281 68.5 C 173.140625 68.71875 168.902344 68.6875 164.671875 68.523438 C 157.664062 68.664062 150.644531 68.683594 143.636719 68.535156 C 141.730469 68.75 139.824219 68.40625 137.914062 68.488281 C 133.921875 68.75 129.914062 68.625 125.914062 68.613281 C 123.027344 68.265625 120.132812 68.859375 117.242188 68.558594 C 115.566406 68.367188 113.898438 68.679688 112.226562 68.589844 C 110.113281 68.390625 108 68.714844 105.882812 68.527344 C 100.648438 68.515625 95.410156 68.78125 90.175781 68.511719 C 88.808594 68.429688 87.441406 68.578125 86.074219 68.648438 C 86.085938 66.617188 86.070312 64.585938 86.074219 62.550781 C 107.925781 62.597656 129.777344 62.53125 151.628906 62.570312 C 153.761719 62.550781 155.894531 62.648438 158.023438 62.457031 C 158.15625 62.453125 158.425781 62.445312 158.5625 62.441406 C 161.695312 62.453125 164.832031 62.457031 167.96875 62.4375 C 167.949219 61.175781 167.933594 59.914062 167.953125 58.652344 C 168.132812 58.175781 168.332031 57.710938 168.53125 57.246094 C 168.585938 57.972656 168.554688 58.726562 168.800781 59.429688 C 169.210938 59.789062 169.832031 59.59375 170.335938 59.664062 C 177.425781 59.570312 184.523438 59.75 191.617188 59.554688 C 191.691406 60.519531 191.453125 61.578125 191.972656 62.453125 C 195 62.4375 198.023438 62.464844 201.050781 62.4375 C 201.03125 61.519531 201.019531 60.59375 201.058594 59.675781 C 201.734375 57.789062 201.308594 55.761719 201.542969 53.8125 C 201.730469 56.25 201.582031 58.707031 201.84375 61.140625 C 205.949219 61.429688 210.074219 61.183594 214.1875 61.246094 C 214.199219 61.71875 214.238281 62.195312 214.277344 62.664062 C 217.492188 62.742188 220.71875 62.71875 223.933594 62.679688 C 223.964844 61.980469 223.988281 61.285156 223.984375 60.589844 C 225.425781 61.734375 227.398438 61.175781 229.085938 61.222656 C 229.375 60.871094 229.660156 60.523438 229.957031 60.175781 C 229.941406 61.003906 229.957031 61.832031 229.988281 62.664062 C 233.203125 62.746094 236.417969 62.71875 239.632812 62.675781 C 239.671875 61.980469 239.699219 61.28125 239.699219 60.585938 C 241.644531 61.941406 244.167969 60.902344 246.363281 61.207031 C 246.441406 61.609375 246.539062 62.007812 246.648438 62.402344 L 246.984375 62.429688 C 250.027344 62.472656 253.074219 62.449219 256.117188 62.441406 C 256.085938 59.199219 256.101562 55.953125 256.117188 52.710938 C 256.257812 53.046875 256.390625 53.386719 256.523438 53.734375 C 256.28125 56.210938 256.417969 58.734375 256.949219 61.164062 C 259.09375 61.390625 261.25 61.253906 263.402344 61.210938 C 263.425781 61.585938 263.464844 61.960938 263.519531 62.332031 L 263.824219 62.429688 C 266.859375 62.480469 269.894531 62.433594 272.929688 62.449219 C 272.917969 55.191406 273.03125 47.929688 272.90625 40.671875 Z M 272.90625 40.671875 "/>
    <path style=" stroke:none;fill-rule:nonzero;fill:rgb(17.647059%,55.294118%,46.27451%);fill-opacity:1;" d="M 246.546875 43.824219 C 246.515625 42.964844 246.632812 42.113281 246.875 41.289062 C 247.042969 43.023438 246.96875 44.761719 246.984375 46.5 C 246.980469 51.808594 247.011719 57.121094 246.984375 62.429688 L 246.648438 62.402344 C 246.539062 62.007812 246.441406 61.609375 246.363281 61.207031 C 246.425781 57.867188 246.558594 54.523438 246.480469 51.175781 C 246.46875 48.726562 246.589844 46.277344 246.546875 43.824219 Z M 246.546875 43.824219 "/>
    <path style=" stroke:none;fill-rule:nonzero;fill:rgb(28.627451%,61.568627%,53.333333%);fill-opacity:1;" d="M 256.125 42.964844 C 257.019531 45.113281 256.746094 47.492188 256.90625 49.757812 C 258.878906 49.988281 260.867188 49.679688 262.839844 49.871094 C 262.945312 49.941406 263.148438 50.085938 263.253906 50.160156 C 263.425781 52.265625 263.25 54.386719 263.355469 56.5 C 261.230469 56.453125 259.105469 56.628906 256.984375 56.449219 C 256.886719 55.535156 256.855469 54.597656 256.523438 53.734375 C 256.390625 53.386719 256.257812 53.046875 256.117188 52.710938 C 256.085938 49.460938 256.085938 46.214844 256.125 42.964844 Z M 256.125 42.964844 "/>
    <path style=" stroke:none;fill-rule:nonzero;fill:rgb(28.627451%,61.568627%,53.333333%);fill-opacity:1;" d="M 287.414062 48.472656 C 293.027344 48.523438 298.644531 48.546875 304.257812 48.480469 C 304.664062 48.5 305.070312 48.542969 305.476562 48.617188 C 305.789062 48.902344 306.132812 49.210938 306.601562 49.15625 C 310.464844 49.210938 314.339844 49.015625 318.207031 49.230469 C 318.527344 52.175781 317.984375 55.175781 318.652344 58.082031 C 318.613281 58.523438 318.574219 58.964844 318.539062 59.40625 C 318.476562 59.871094 318.40625 60.332031 318.332031 60.789062 C 318.101562 60.195312 317.886719 59.59375 317.683594 58.992188 C 313.175781 58.847656 308.644531 59.175781 304.144531 58.828125 C 303.914062 58.023438 303.671875 57.222656 303.410156 56.433594 C 303.332031 56.628906 303.175781 57.015625 303.097656 57.210938 C 302.816406 56.140625 302.558594 55.0625 302.304688 53.988281 C 299.699219 54.851562 296.984375 55.425781 294.242188 55.570312 C 292.496094 55.671875 290.535156 55.519531 289.195312 54.265625 C 287.640625 52.792969 287.359375 50.503906 287.414062 48.472656 Z M 287.414062 48.472656 "/>
    <path style=" stroke:none;fill-rule:nonzero;fill:rgb(21.568627%,58.431373%,49.019608%);fill-opacity:1;" d="M 88.789062 45 C 89.523438 47.199219 89.15625 49.550781 89.222656 51.824219 C 89.203125 53.175781 89.222656 54.523438 89.117188 55.871094 L 88.65625 55.839844 C 88.65625 52.226562 88.726562 48.613281 88.789062 45 Z M 88.789062 45 "/>
    <path style=" stroke:none;fill-rule:nonzero;fill:rgb(27.843137%,60%,52.156863%);fill-opacity:1;" d="M 167.949219 46.769531 C 170.835938 46.695312 173.742188 46.929688 176.621094 46.589844 C 176.828125 46.6875 177.242188 46.878906 177.449219 46.976562 C 174.609375 47.640625 171.644531 47.007812 168.75 47.265625 C 168.667969 48.867188 168.6875 50.472656 168.789062 52.074219 C 176.320312 52.246094 183.867188 51.972656 191.398438 52.210938 C 191.761719 54.640625 191.503906 57.105469 191.617188 59.554688 C 184.523438 59.75 177.425781 59.570312 170.335938 59.664062 C 169.832031 59.59375 169.210938 59.789062 168.800781 59.429688 C 168.554688 58.726562 168.585938 57.972656 168.53125 57.246094 C 168.332031 57.710938 168.132812 58.175781 167.953125 58.652344 C 167.933594 54.691406 167.949219 50.734375 167.949219 46.769531 Z M 167.949219 46.769531 "/>
    <path style=" stroke:none;fill-rule:nonzero;fill:rgb(27.843137%,60%,52.156863%);fill-opacity:1;" d="M 239.664062 49.019531 C 239.925781 49.703125 240.148438 50.398438 240.328125 51.109375 C 242.375 51.292969 244.429688 51.175781 246.480469 51.175781 C 246.558594 54.523438 246.425781 57.867188 246.363281 61.207031 C 244.167969 60.902344 241.644531 61.941406 239.699219 60.585938 C 239.695312 56.730469 239.550781 52.871094 239.664062 49.019531 Z M 239.664062 49.019531 "/>
    <path style=" stroke:none;fill-rule:nonzero;fill:rgb(27.843137%,60%,52.54902%);fill-opacity:1;" d="M 55.453125 48.476562 C 63.546875 48.621094 71.648438 48.320312 79.738281 48.585938 C 79.917969 50.175781 79.433594 51.898438 80.265625 53.359375 C 80.40625 55.875 80.269531 58.402344 80.285156 60.917969 C 80.007812 60.589844 79.730469 60.261719 79.449219 59.929688 C 71.472656 59.847656 63.492188 59.960938 55.515625 59.894531 C 55.535156 56.085938 55.359375 52.28125 55.453125 48.476562 Z M 55.453125 48.476562 "/>
    <path style=" stroke:none;fill-rule:nonzero;fill:rgb(28.235294%,60.392157%,52.54902%);fill-opacity:1;" d="M 87.359375 54.667969 C 88.160156 52.621094 87.175781 50.300781 88.195312 48.324219 C 88.261719 50.820312 88.308594 53.316406 88.304688 55.8125 C 88.394531 55.820312 88.570312 55.832031 88.65625 55.839844 L 89.117188 55.871094 C 89.222656 54.523438 89.203125 53.175781 89.222656 51.824219 C 112.195312 51.777344 135.167969 51.8125 158.140625 51.808594 C 158.167969 54.039062 158.117188 56.273438 158.113281 58.507812 C 134.109375 58.503906 110.105469 58.515625 86.105469 58.5 C 86.105469 57.3125 86.101562 56.121094 86.105469 54.929688 C 86.523438 54.84375 86.941406 54.753906 87.359375 54.667969 Z M 87.359375 54.667969 "/>
    <path style=" stroke:none;fill-rule:nonzero;fill:rgb(27.45098%,59.215686%,51.372549%);fill-opacity:1;" d="M 0.289062 49.460938 C 2.085938 49.640625 3.882812 49.667969 5.679688 49.523438 C 12.617188 49.511719 19.554688 49.628906 26.488281 49.453125 C 26.253906 50.125 26.019531 50.800781 25.789062 51.476562 C 32.335938 51.464844 38.882812 51.46875 45.425781 51.472656 C 45.433594 54.910156 45.3125 58.347656 45.292969 61.785156 C 30.292969 61.902344 15.289062 61.710938 0.289062 61.878906 C 0.289062 61.683594 0.292969 61.289062 0.292969 61.097656 C 0.378906 57.21875 0.207031 53.339844 0.289062 49.460938 Z M 0.289062 49.460938 "/>
    <path style=" stroke:none;fill-rule:nonzero;fill:rgb(25.098039%,54.117647%,47.058824%);fill-opacity:1;" d="M 45.425781 51.472656 C 45.5625 51.472656 45.835938 51.476562 45.972656 51.476562 C 45.980469 55.082031 45.980469 58.683594 45.988281 62.289062 C 48.972656 62.277344 51.960938 62.316406 54.945312 62.269531 L 55.378906 62.230469 C 55.457031 61.453125 55.5 60.671875 55.515625 59.894531 C 63.492188 59.960938 71.472656 59.847656 79.449219 59.929688 C 79.730469 60.261719 80.007812 60.589844 80.285156 60.917969 C 80.285156 62.097656 80.296875 63.269531 80.3125 64.449219 C 80.179688 65.519531 80.070312 66.59375 80.035156 67.667969 C 78.632812 66.90625 77.003906 67.226562 75.484375 67.183594 C 52.328125 67.199219 29.175781 67.199219 6.019531 67.1875 C 4.160156 67.171875 2.304688 67.253906 0.449219 67.140625 C 0.253906 65.390625 0.257812 63.632812 0.289062 61.878906 C 15.289062 61.710938 30.292969 61.902344 45.292969 61.785156 C 45.3125 58.347656 45.433594 54.910156 45.425781 51.472656 Z M 45.425781 51.472656 "/>
    <path style=" stroke:none;fill-rule:nonzero;fill:rgb(27.058824%,58.823529%,50.980392%);fill-opacity:1;" d="M 277.921875 51.453125 C 278.070312 51.476562 278.363281 51.527344 278.507812 51.550781 C 278.953125 54.597656 280.234375 57.585938 282.535156 59.691406 L 282.164062 59.941406 C 282.679688 60.523438 283.246094 61.066406 283.847656 61.570312 C 280.449219 61.507812 277.039062 61.75 273.648438 61.484375 C 273.550781 58.925781 273.414062 56.359375 273.554688 53.800781 C 275.082031 53.785156 276.613281 53.808594 278.140625 53.738281 C 278.078125 52.972656 278.011719 52.210938 277.921875 51.453125 Z M 277.921875 51.453125 "/>
    <path style=" stroke:none;fill-rule:nonzero;fill:rgb(8.235294%,37.647059%,34.509804%);fill-opacity:1;" d="M 318.855469 52.628906 C 319.773438 53.898438 319.246094 55.53125 319.476562 56.980469 C 323.113281 59.476562 326.457031 62.367188 330.140625 64.800781 C 329.546875 65.871094 328.859375 66.894531 328.078125 67.832031 C 325.4375 65.902344 322.8125 63.945312 320.125 62.082031 C 319.171875 61.511719 318.890625 60.382812 318.539062 59.40625 C 318.574219 58.964844 318.613281 58.523438 318.652344 58.082031 C 318.910156 56.273438 318.804688 54.449219 318.855469 52.628906 Z M 318.855469 52.628906 "/>
    <path style=" stroke:none;fill-rule:nonzero;fill:rgb(27.058824%,58.431373%,50.588235%);fill-opacity:1;" d="M 256.523438 53.734375 C 256.855469 54.597656 256.886719 55.535156 256.984375 56.449219 C 259.105469 56.628906 261.230469 56.453125 263.355469 56.5 C 263.429688 58.070312 263.402344 59.640625 263.402344 61.210938 C 261.25 61.253906 259.09375 61.390625 256.949219 61.164062 C 256.417969 58.734375 256.28125 56.210938 256.523438 53.734375 Z M 256.523438 53.734375 "/>
    <path style=" stroke:none;fill-rule:nonzero;fill:rgb(26.666667%,57.254902%,49.803922%);fill-opacity:1;" d="M 86.105469 58.5 C 110.105469 58.515625 134.109375 58.503906 158.113281 58.507812 C 158.132812 59.824219 158.117188 61.144531 158.023438 62.457031 C 155.894531 62.648438 153.761719 62.550781 151.628906 62.570312 C 129.777344 62.53125 107.925781 62.597656 86.074219 62.550781 C 86.066406 61.199219 86.089844 59.847656 86.105469 58.5 Z M 86.105469 58.5 "/>
    <path style=" stroke:none;fill-rule:nonzero;fill:rgb(7.45098%,30.588235%,27.843137%);fill-opacity:1;" d="M 318.539062 59.40625 C 318.890625 60.382812 319.171875 61.511719 320.125 62.082031 C 322.8125 63.945312 325.4375 65.902344 328.078125 67.832031 C 327.019531 69.105469 325.710938 70.125 324.339844 71.035156 C 322.296875 69.855469 320.496094 68.324219 318.582031 66.960938 C 317.910156 66.5 317.40625 65.851562 316.960938 65.183594 C 317.554688 63.765625 318.078125 62.3125 318.332031 60.789062 C 318.40625 60.332031 318.476562 59.871094 318.539062 59.40625 Z M 318.539062 59.40625 "/>
    <path style=" stroke:none;fill-rule:nonzero;fill:rgb(22.745098%,49.411765%,42.745098%);fill-opacity:1;" d="M 0 61.425781 L 0.292969 61.097656 C 0.292969 61.289062 0.289062 61.683594 0.289062 61.878906 C 0.257812 63.632812 0.253906 65.390625 0.449219 67.140625 C 2.304688 67.253906 4.160156 67.171875 6.019531 67.1875 C 29.175781 67.199219 52.328125 67.199219 75.484375 67.183594 C 77.003906 67.226562 78.632812 66.90625 80.035156 67.667969 C 80.070312 66.59375 80.179688 65.519531 80.3125 64.449219 C 80.566406 66.898438 80.339844 69.359375 80.234375 71.816406 C 78.558594 71.539062 76.859375 71.59375 75.171875 71.621094 C 50.785156 71.605469 26.394531 71.625 2.011719 71.621094 C 1.484375 71.605469 0.964844 71.566406 0.441406 71.523438 C 0.316406 70.160156 0.214844 68.792969 0 67.441406 Z M 0 61.425781 "/>
    <path style=" stroke:none;fill-rule:nonzero;fill:rgb(6.666667%,22.745098%,20.392157%);fill-opacity:1;" d="M 316.960938 65.183594 C 317.40625 65.851562 317.910156 66.5 318.582031 66.960938 C 320.496094 68.324219 322.296875 69.855469 324.339844 71.035156 C 321.738281 72.820312 318.953125 74.347656 316.019531 75.523438 C 314.488281 74.757812 313.066406 73.800781 311.742188 72.722656 C 312.285156 72.101562 313.105469 71.574219 313.136719 70.664062 C 313.664062 70.058594 314.210938 69.476562 314.710938 68.851562 C 315.601562 67.722656 316.402344 66.515625 316.960938 65.183594 Z M 316.960938 65.183594 "/>
    <path style=" stroke:none;fill-rule:nonzero;fill:rgb(19.607843%,43.529412%,37.254902%);fill-opacity:1;" d="M 0 67.441406 C 0.214844 68.792969 0.316406 70.160156 0.441406 71.523438 C 0.964844 71.566406 1.484375 71.605469 2.011719 71.621094 C 26.394531 71.625 50.785156 71.605469 75.171875 71.621094 C 76.859375 71.59375 78.558594 71.539062 80.234375 71.816406 C 80.148438 73.53125 80.519531 75.320312 79.886719 76.96875 C 78.386719 76.273438 76.734375 76.566406 75.148438 76.59375 C 69.910156 76.433594 64.675781 76.65625 59.4375 76.652344 C 49.203125 76.410156 38.960938 76.644531 28.730469 76.558594 C 24.941406 76.683594 21.140625 76.347656 17.351562 76.640625 C 14.132812 76.578125 10.910156 76.636719 7.691406 76.519531 C 5.34375 76.695312 2.992188 76.511719 0.644531 76.636719 C 0.265625 75.035156 0.125 73.398438 0 71.765625 Z M 0 67.441406 "/>
    <path style=" stroke:none;fill-rule:nonzero;fill:rgb(19.607843%,43.529412%,37.254902%);fill-opacity:1;" d="M 86.074219 68.648438 C 87.441406 68.578125 88.808594 68.429688 90.175781 68.511719 C 95.410156 68.78125 100.648438 68.515625 105.882812 68.527344 C 108 68.714844 110.113281 68.390625 112.226562 68.589844 C 113.898438 68.679688 115.566406 68.367188 117.242188 68.558594 C 120.132812 68.859375 123.027344 68.265625 125.914062 68.613281 C 129.914062 68.625 133.921875 68.75 137.914062 68.488281 C 139.824219 68.40625 141.730469 68.75 143.636719 68.535156 C 150.644531 68.683594 157.664062 68.664062 164.671875 68.523438 C 168.902344 68.6875 173.140625 68.71875 177.363281 68.5 C 180.367188 68.621094 183.375 68.628906 186.378906 68.527344 C 193.386719 68.660156 200.398438 68.578125 207.414062 68.546875 C 212.863281 68.664062 218.324219 68.722656 223.773438 68.519531 C 226.222656 68.808594 228.667969 68.316406 231.113281 68.5625 C 232.5625 68.679688 234.007812 68.433594 235.457031 68.554688 C 238.242188 68.839844 241.023438 68.277344 243.808594 68.597656 C 246.375 68.40625 248.9375 68.789062 251.5 68.527344 C 255.503906 68.667969 259.519531 68.285156 263.527344 68.605469 C 267.53125 68.6875 271.539062 68.605469 275.542969 68.640625 C 277.441406 68.6875 279.335938 68.402344 281.234375 68.59375 C 285.90625 68.765625 290.578125 68.4375 295.253906 68.601562 C 299.601562 68.574219 303.960938 68.761719 308.304688 68.5 C 310.4375 68.6875 312.59375 68.5 314.710938 68.851562 C 314.210938 69.476562 313.664062 70.058594 313.136719 70.664062 C 311.464844 72.140625 309.625 73.398438 307.769531 74.625 C 307.058594 74.402344 306.34375 74.160156 305.601562 74.148438 C 234.898438 74.148438 164.199219 74.148438 93.496094 74.148438 C 91.082031 74.183594 88.65625 74.011719 86.253906 74.335938 C 85.957031 72.453125 86.046875 70.546875 86.074219 68.648438 Z M 86.074219 68.648438 "/>
    <path style=" stroke:none;fill-rule:nonzero;fill:rgb(5.882353%,17.254902%,15.294118%);fill-opacity:1;" d="M 307.769531 74.625 C 309.625 73.398438 311.464844 72.140625 313.136719 70.664062 C 313.105469 71.574219 312.285156 72.101562 311.742188 72.722656 C 313.066406 73.800781 314.488281 74.757812 316.019531 75.523438 C 311.246094 77.4375 306.132812 78.460938 300.984375 78.5 C 301.792969 77.691406 302.910156 77.382812 303.917969 76.90625 C 305.273438 76.28125 306.554688 75.5 307.769531 74.625 Z M 307.769531 74.625 "/>
    <path style=" stroke:none;fill-rule:nonzero;fill:rgb(14.901961%,33.333333%,28.235294%);fill-opacity:1;" d="M 86.253906 74.335938 C 88.65625 74.011719 91.082031 74.183594 93.496094 74.148438 C 164.199219 74.148438 234.898438 74.148438 305.601562 74.148438 C 306.34375 74.160156 307.058594 74.402344 307.769531 74.625 C 306.554688 75.5 305.273438 76.28125 303.917969 76.90625 C 302.910156 77.382812 301.792969 77.691406 300.984375 78.5 C 300.878906 78.507812 300.667969 78.519531 300.558594 78.523438 C 298.90625 78.316406 297.246094 78.421875 295.589844 78.410156 C 228.347656 78.40625 161.105469 78.417969 93.859375 78.40625 C 92.726562 78.496094 91.429688 78.035156 90.433594 78.75 C 90.003906 78.917969 89.515625 78.800781 89.070312 78.816406 C 87.308594 78.035156 86.460938 76.15625 86.253906 74.335938 Z M 86.253906 74.335938 "/>
    <path style=" stroke:none;fill-rule:nonzero;fill:rgb(14.901961%,33.72549%,28.627451%);fill-opacity:1;" d="M 0.644531 76.636719 C 2.992188 76.511719 5.34375 76.695312 7.691406 76.519531 C 10.910156 76.636719 14.132812 76.578125 17.351562 76.640625 C 21.140625 76.347656 24.941406 76.683594 28.730469 76.558594 C 38.960938 76.644531 49.203125 76.410156 59.4375 76.652344 C 64.675781 76.65625 69.910156 76.433594 75.148438 76.59375 C 76.734375 76.566406 78.386719 76.273438 79.886719 76.96875 C 79.800781 77.335938 79.746094 77.707031 79.691406 78.078125 C 55.804688 77.972656 31.914062 78.058594 8.027344 78.035156 C 6.070312 78.097656 4.117188 77.964844 2.167969 77.839844 C 2.210938 78.265625 2.25 78.695312 2.292969 79.128906 C 1.558594 78.4375 0.890625 77.632812 0.644531 76.636719 Z M 0.644531 76.636719 "/>
    <path style=" stroke:none;fill-rule:nonzero;fill:rgb(8.235294%,21.176471%,17.647059%);fill-opacity:1;" d="M 2.167969 77.839844 C 4.117188 77.964844 6.070312 78.097656 8.027344 78.035156 C 31.914062 78.058594 55.804688 77.972656 79.691406 78.078125 C 79.273438 78.476562 78.851562 78.871094 78.40625 79.246094 C 77.105469 79.59375 75.765625 79.847656 74.414062 79.804688 C 73.894531 79.597656 73.363281 79.382812 72.796875 79.417969 C 51.199219 79.453125 29.601562 79.390625 8.007812 79.398438 C 6.589844 79.382812 5.152344 79.316406 3.761719 79.636719 C 3.261719 79.5 2.753906 79.371094 2.292969 79.128906 C 2.25 78.695312 2.210938 78.265625 2.167969 77.839844 Z M 2.167969 77.839844 "/>
    <path style=" stroke:none;fill-rule:nonzero;fill:rgb(7.058824%,15.294118%,11.764706%);fill-opacity:1;" d="M 90.433594 78.75 C 91.429688 78.035156 92.726562 78.496094 93.859375 78.40625 C 161.105469 78.417969 228.347656 78.40625 295.589844 78.410156 C 297.246094 78.421875 298.90625 78.316406 300.558594 78.523438 C 297.71875 79.292969 294.777344 79.691406 291.832031 79.546875 C 293.433594 79.222656 295.074219 79.332031 296.679688 79.035156 C 294.894531 78.707031 293.078125 78.886719 291.277344 78.855469 C 226.019531 78.871094 160.757812 78.859375 95.5 78.847656 C 95.011719 78.867188 94.539062 78.964844 94.066406 79.070312 C 96.761719 79.453125 99.488281 79.289062 102.199219 79.339844 C 106.3125 79.414062 110.425781 79.328125 114.542969 79.402344 C 116.574219 79.433594 118.617188 79.289062 120.640625 79.558594 C 111.710938 79.546875 102.777344 79.523438 93.847656 79.578125 C 92.234375 79.570312 90.539062 79.570312 89.070312 78.816406 C 89.515625 78.800781 90.003906 78.917969 90.433594 78.75 Z M 90.433594 78.75 "/>
    <path style=" stroke:none;fill-rule:nonzero;fill:rgb(2.352941%,3.137255%,1.176471%);fill-opacity:0.960784;" d="M 94.066406 79.070312 C 94.539062 78.964844 95.011719 78.867188 95.5 78.847656 C 160.757812 78.859375 226.019531 78.871094 291.277344 78.855469 C 293.078125 78.886719 294.894531 78.707031 296.679688 79.035156 C 295.074219 79.332031 293.433594 79.222656 291.832031 79.546875 C 273.488281 79.617188 255.144531 79.5625 236.800781 79.582031 C 198.078125 79.566406 159.363281 79.613281 120.640625 79.558594 C 118.617188 79.289062 116.574219 79.433594 114.542969 79.402344 C 110.425781 79.328125 106.3125 79.414062 102.199219 79.339844 C 99.488281 79.289062 96.761719 79.453125 94.066406 79.070312 Z M 94.066406 79.070312 "/>
    <path style=" stroke:none;fill-rule:nonzero;fill:rgb(5.882353%,12.941176%,10.588235%);fill-opacity:0.878431;" d="M 3.761719 79.636719 C 5.152344 79.316406 6.589844 79.382812 8.007812 79.398438 C 29.601562 79.390625 51.199219 79.453125 72.796875 79.417969 C 73.363281 79.382812 73.894531 79.597656 74.414062 79.804688 L 74.734375 79.933594 L 4.25 79.933594 Z M 3.761719 79.636719 "/>
  </g>
</svg>