<?xml version="1.0" encoding="UTF-8" standalone="no"?>
<svg
   xmlns:dc="http://purl.org/dc/elements/1.1/"
   xmlns:cc="http://creativecommons.org/ns#"
   xmlns:rdf="http://www.w3.org/1999/02/22-rdf-syntax-ns#"
   xmlns:svg="http://www.w3.org/2000/svg"
   xmlns="http://www.w3.org/2000/svg"
   xmlns:sodipodi="http://sodipodi.sourceforge.net/DTD/sodipodi-0.dtd"
   xmlns:inkscape="http://www.inkscape.org/namespaces/inkscape"
   version="1.1"
   id="Layer_1"
   x="0px"
   y="0px"
   width="823"
   height="199"
   viewBox="0 0 823 199"
   enable-background="new 0 0 595 842"
   xml:space="preserve">
<path
   style="fill:#ec008d"
   inkscape:connector-curvature="0"
   d="M 823,169.02452 C 823,185.50358 810.19952,199 794.55726,199 H 630.14782 c -15.65055,0 -28.44274,-13.49642 -28.44274,-29.97548 V 29.975756 c 0,-16.479056 12.79219,-29.975476838 28.44274,-29.975476838 H 794.55726 C 810.19952,2.79162e-4 823,13.4967 823,29.975756"
   id="path3"
   clip-path="none" /><path
   style="fill:#ffffff"
   inkscape:connector-curvature="0"
   d="m 771.34242,86.736948 h -95.03833 c -4.31654,0 -6.55351,-2.352967 -6.55351,-6.8932 V 48.211252 c 0,-4.548517 -3.52945,-8.285096 -7.84599,-8.285096 h -8.53365 c -4.32482,0 -7.85427,3.736579 -7.85427,8.285096 v 55.750408 c 0,4.55681 3.52945,8.32652 7.85427,8.32652 h 95.03834 c 4.31653,0 6.55351,2.32812 6.55351,6.88492 v 31.63249 c 0,4.55681 3.52945,8.27682 7.84598,8.27682 h 8.53365 c 4.33311,0 7.85427,-3.72001 7.85427,-8.27682 V 95.046899 c 0,-4.548517 -3.52116,-8.309951 -7.85427,-8.309951"
   id="path5"
   clip-path="none" /><path
   style="fill:#ffffff"
   inkscape:connector-curvature="0"
   d="m 771.34242,86.736948 h -95.03833 c -4.31654,0 -6.55351,-2.352967 -6.55351,-6.8932 V 48.211252 c 0,-4.548517 -3.52945,-8.285096 -7.84599,-8.285096 h -8.53365 c -4.32482,0 -7.85427,3.736579 -7.85427,8.285096 v 55.750408 c 0,4.55681 3.52945,8.32652 7.85427,8.32652 h 95.03834 c 4.31653,0 6.55351,2.32812 6.55351,6.88492 v 31.63249 c 0,4.55681 3.52945,8.27682 7.84598,8.27682 h 8.53365 c 4.33311,0 7.85427,-3.72001 7.85427,-8.27682 V 95.046899 c 0,-4.548517 -3.52116,-8.309951 -7.85427,-8.309951"
   id="path7"
   clip-path="none" /><path
   style="fill:#231f20"
   inkscape:connector-curvature="0"
   d="m 126.41399,81.078228 c 0,11.367151 -9.28759,12.651341 -21.77323,12.651341 H 24.21733 c 0,-9.121891 0,-19.561111 -0.0083,-28.475875 h 80.431716 c 12.62648,0 21.77323,1.209624 21.77323,12.659627 m 24.2339,8.077969 V 72.991974 c 0,-19.809664 -15.29428,-33.090673 -45.93257,-33.090673 l -96.8693399,0.0083 c -4.3248201,0 -7.8459858285999,3.720008 -7.8459858285999,8.268526 V 150.78902 c 0,4.55681 3.5211657285999,8.27682 7.8459858285999,8.27682 h 8.5253639 c 4.316535,0 7.854271,-3.72001 7.854271,-8.27682 v -31.70706 h 80.489705 c 30.63829,-0.008 45.93257,-13.05731 45.93257,-33.09067 m 147.47471,39.9673 V 48.161542 c 0,-4.556803 -3.53774,-8.276811 -7.85427,-8.276811 h -8.53365 c -4.31653,0 -7.8377,3.720008 -7.8377,8.276811 V 120.8384 c 0,10.52207 -10.47236,12.66791 -21.78152,12.66791 h -43.33105 c -11.30915,0 -21.78152,-2.15412 -21.78152,-12.66791 V 48.161542 c 0,-4.556803 -3.51288,-8.276811 -7.8377,-8.276811 h -8.53365 c -4.31653,0 -7.84598,3.720008 -7.84598,8.276811 v 77.797048 c 0,20.36477 15.30257,33.09068 45.92429,33.09068 h 43.48018 c 30.62171,0 45.93257,-12.75077 45.93257,-33.09068 M 453.08703,76.098885 c 0,-7.564293 5.52616,-10.629778 18.31007,-10.629778 h 81.44249 c 4.3331,0 7.85427,-3.720008 7.85427,-8.268526 v -8.997614 c 0,-4.548518 -3.52117,-8.276811 -7.85427,-8.276811 h -78.06218 c -30.62171,0 -45.92428,13.156733 -45.92428,32.999537 v 6.354669 c 0,19.842805 15.30257,32.991248 45.92428,32.991248 h 47.56474 c 12.7839,0 18.31006,3.04892 18.31006,10.6215 0,7.556 -5.52616,10.62977 -18.31006,10.62977 l -158.22048,-0.008 c -11.32572,0 -21.78151,-2.13756 -21.78151,-12.65963 V 48.169827 c 0,-4.548518 -3.53774,-8.268526 -7.85427,-8.268526 h -8.52537 c -4.3331,0 -7.85427,3.720008 -7.85427,8.268526 v 77.805333 c 0,20.32334 15.29429,33.08239 45.93257,33.08239 h 154.88159 v 0.008 c 30.63828,0 45.94085,-13.14017 45.94085,-32.98297 v -6.37124 c 0,-19.842805 -15.30257,-32.974682 -45.94085,-32.974682 H 471.3971 c -12.78391,-0.0083 -18.31007,-3.07377 -18.31007,-10.638063"
   id="path9"
   clip-path="none" />
</svg>