<?xml version="1.0" encoding="UTF-8" ?>
<!DOCTYPE svg PUBLIC "-//W3C//DTD SVG 1.1//EN" "http://www.w3.org/Graphics/SVG/1.1/DTD/svg11.dtd">
<svg width="554pt" height="206pt" viewBox="0 0 554 206" version="1.1" xmlns="http://www.w3.org/2000/svg">
<g id="#ffffffff">
</g>
<g id="#cf423bff">
<path fill="#cf423b" opacity="1.00" d=" M 413.74 28.59 C 417.89 28.70 422.08 28.25 426.21 28.82 C 431.31 29.81 432.95 36.99 429.51 40.55 C 427.01 43.39 422.80 42.93 419.39 43.22 C 419.40 44.87 419.40 46.53 419.41 48.18 C 417.53 48.19 415.66 48.20 413.79 48.21 C 413.76 41.67 413.83 35.13 413.74 28.59 M 419.47 33.46 C 419.43 34.92 419.40 36.39 419.38 37.86 C 421.19 37.80 423.10 38.24 424.85 37.59 C 426.24 36.47 425.40 34.60 424.53 33.43 C 422.84 33.44 421.15 33.44 419.47 33.46 Z" />
<path fill="#cf423b" opacity="1.00" d=" M 446.17 28.50 C 447.97 28.55 449.78 28.57 451.60 28.58 C 452.08 33.47 450.63 38.70 452.83 43.29 C 454.77 43.78 457.92 44.27 458.60 41.73 C 459.33 37.37 458.52 32.91 459.21 28.54 C 461.01 28.58 462.81 28.60 464.62 28.60 C 464.52 33.17 464.90 37.77 464.36 42.32 C 462.85 50.79 447.88 50.90 446.37 42.36 C 445.60 37.80 445.85 33.10 446.17 28.50 Z" />
<path fill="#cf423b" opacity="1.00" d=" M 517.32 29.20 C 521.34 27.33 526.37 27.73 530.07 30.20 C 529.26 31.49 528.37 32.72 527.45 33.92 C 525.19 32.91 522.69 32.16 520.27 33.07 C 520.32 33.64 520.41 34.76 520.46 35.33 C 523.86 35.84 527.85 35.94 530.27 38.79 C 532.28 41.76 531.29 46.44 527.74 47.71 C 523.32 49.39 517.71 49.19 514.07 45.89 C 514.49 44.27 515.83 41.15 517.94 42.52 C 520.23 43.86 524.68 45.08 525.86 41.80 C 522.81 39.69 518.53 40.96 515.78 38.29 C 513.53 35.62 513.86 30.72 517.32 29.20 Z" />
<path fill="#cf423b" opacity="1.00" d=" M 483.19 28.55 C 485.06 28.57 486.92 28.56 488.80 28.53 C 489.40 33.46 488.90 38.45 489.17 43.40 C 492.20 43.36 495.23 43.37 498.26 43.40 C 498.25 44.87 498.26 46.35 498.29 47.82 C 493.30 48.69 488.17 48.01 483.12 48.20 C 482.80 41.67 482.72 35.08 483.19 28.55 Z" />
<path fill="#cf423b" opacity="1.00" d=" M 255.23 78.22 C 266.52 63.92 284.92 55.66 303.11 56.63 C 316.30 57.10 328.95 62.59 338.96 71.06 C 338.71 73.61 336.38 75.03 334.89 76.87 C 329.29 82.65 324.14 88.85 318.55 94.63 C 317.44 95.53 316.34 94.08 315.39 93.64 C 309.10 88.98 300.56 87.37 293.08 89.81 C 281.18 93.11 272.85 105.98 275.04 118.18 C 277.40 130.95 290.25 139.95 302.89 139.95 C 312.39 140.42 322.00 137.34 329.45 131.42 C 337.09 125.43 343.01 117.21 346.28 108.08 C 346.48 91.52 346.27 74.95 346.38 58.39 C 356.28 58.32 366.18 58.37 376.09 58.35 C 376.38 72.48 376.11 86.63 376.22 100.77 C 388.73 100.74 401.24 100.81 413.76 100.73 C 413.78 86.65 413.85 72.57 413.72 58.49 C 452.90 58.20 492.09 58.37 531.28 58.41 C 531.22 67.10 531.16 75.79 531.31 84.48 C 521.60 84.77 511.87 84.64 502.16 84.55 C 501.79 113.18 502.43 141.83 501.84 170.45 C 492.08 170.33 482.31 170.46 472.55 170.38 C 472.57 141.79 472.61 113.20 472.53 84.61 C 462.84 84.64 453.15 84.65 443.47 84.61 C 443.35 113.20 443.45 141.79 443.42 170.38 C 433.53 170.42 423.65 170.39 413.77 170.41 C 413.80 156.30 413.78 142.19 413.78 128.08 C 401.26 128.07 388.73 128.02 376.21 128.10 C 376.18 142.20 376.23 156.30 376.20 170.40 C 366.27 170.46 356.34 170.32 346.42 170.44 C 346.27 164.63 346.44 158.82 346.32 153.01 C 337.59 161.31 326.99 167.90 315.11 170.47 C 297.22 175.11 277.54 170.55 263.24 158.90 C 263.25 162.67 263.21 166.44 263.26 170.22 C 253.42 170.23 243.59 170.18 233.75 170.22 C 233.78 167.97 233.78 165.71 233.77 163.45 C 223.95 170.08 211.78 173.07 200.01 171.97 C 173.06 168.92 151.29 143.83 150.40 117.01 C 149.58 101.42 155.44 85.55 166.38 74.38 C 177.27 62.85 193.11 56.27 208.95 56.57 C 225.57 56.75 242.09 64.45 252.51 77.45 C 253.06 78.30 254.45 79.65 255.23 78.22 M 204.13 89.04 C 193.49 90.56 184.64 99.47 182.80 109.99 C 179.73 124.88 192.69 140.63 208.01 139.95 C 222.28 140.64 234.92 127.13 233.77 112.99 C 233.36 98.37 218.54 86.25 204.13 89.04 Z" />
<path fill="#cf423b" opacity="1.00" d=" M 72.60 88.98 C 85.15 86.36 98.78 94.53 102.14 106.93 C 105.18 116.26 102.12 127.27 94.60 133.61 C 88.80 139.21 80.19 141.18 72.37 139.82 C 64.38 138.11 57.16 132.59 53.88 125.03 C 50.34 117.26 51.01 107.73 55.61 100.55 C 59.15 94.37 65.78 90.47 72.60 88.98 Z" />
</g>
<g id="#d3d3d3ff">
<path fill="#d3d3d3" opacity="1.00" d=" M 67.23 57.39 C 78.70 55.40 90.73 56.83 101.35 61.64 C 117.21 68.81 129.51 83.42 133.60 100.37 C 136.61 112.69 135.49 125.93 130.58 137.60 C 124.01 152.20 111.41 164.20 96.09 169.17 C 83.89 173.33 70.28 173.19 58.13 168.92 C 42.44 163.54 29.62 150.90 23.52 135.54 C 18.40 122.16 18.29 106.88 23.48 93.50 C 30.44 74.91 47.70 60.79 67.23 57.39 M 72.60 88.98 C 65.78 90.47 59.15 94.37 55.61 100.55 C 51.01 107.73 50.34 117.26 53.88 125.03 C 57.16 132.59 64.38 138.11 72.37 139.82 C 80.19 141.18 88.80 139.21 94.60 133.61 C 102.12 127.27 105.18 116.26 102.14 106.93 C 98.78 94.53 85.15 86.36 72.60 88.98 Z" />
</g>
</svg>
