<?xml version="1.0" encoding="UTF-8" standalone="yes"?>
<svg xmlns="http://www.w3.org/2000/svg" xmlns:xlink="http://www.w3.org/1999/xlink" width="440px" height="106.66666666666666px" viewBox="0 0 330 80" version="1.1">
  <g id="surface1">
    <path style=" stroke:none;fill-rule:nonzero;fill:rgb(92.54902%,0%,55.294118%);fill-opacity:1;" d="M 330 67.949219 C 330 74.574219 324.867188 80 318.59375 80 L 252.671875 80 C 246.394531 80 241.265625 74.574219 241.265625 67.949219 L 241.265625 12.050781 C 241.265625 5.425781 246.394531 0 252.671875 0 L 318.59375 0 C 324.867188 0 330 5.425781 330 12.050781 "/>
    <path style=" stroke:none;fill-rule:nonzero;fill:rgb(100%,100%,100%);fill-opacity:1;" d="M 309.285156 34.867188 L 271.179688 34.867188 C 269.449219 34.867188 268.550781 33.921875 268.550781 32.097656 L 268.550781 19.382812 C 268.550781 17.554688 267.136719 16.050781 265.40625 16.050781 L 261.984375 16.050781 C 260.25 16.050781 258.835938 17.554688 258.835938 19.382812 L 258.835938 41.792969 C 258.835938 43.625 260.25 45.140625 261.984375 45.140625 L 300.089844 45.140625 C 301.820312 45.140625 302.71875 46.078125 302.71875 47.910156 L 302.71875 60.625 C 302.71875 62.457031 304.132812 63.953125 305.863281 63.953125 L 309.285156 63.953125 C 311.023438 63.953125 312.4375 62.457031 312.4375 60.625 L 312.4375 38.210938 C 312.4375 36.382812 311.023438 34.867188 309.285156 34.867188 "/>
    <path style=" stroke:none;fill-rule:nonzero;fill:rgb(100%,100%,100%);fill-opacity:1;" d="M 309.285156 34.867188 L 271.179688 34.867188 C 269.449219 34.867188 268.550781 33.921875 268.550781 32.097656 L 268.550781 19.382812 C 268.550781 17.554688 267.136719 16.050781 265.40625 16.050781 L 261.984375 16.050781 C 260.25 16.050781 258.835938 17.554688 258.835938 19.382812 L 258.835938 41.792969 C 258.835938 43.625 260.25 45.140625 261.984375 45.140625 L 300.089844 45.140625 C 301.820312 45.140625 302.71875 46.078125 302.71875 47.910156 L 302.71875 60.625 C 302.71875 62.457031 304.132812 63.953125 305.863281 63.953125 L 309.285156 63.953125 C 311.023438 63.953125 312.4375 62.457031 312.4375 60.625 L 312.4375 38.210938 C 312.4375 36.382812 311.023438 34.867188 309.285156 34.867188 "/>
    <path style=" stroke:none;fill-rule:nonzero;fill:rgb(13.72549%,12.156863%,12.54902%);fill-opacity:1;" d="M 50.6875 32.59375 C 50.6875 37.164062 46.964844 37.679688 41.957031 37.679688 L 9.710938 37.679688 C 9.710938 34.011719 9.710938 29.816406 9.707031 26.234375 L 41.957031 26.234375 C 47.019531 26.234375 50.6875 26.71875 50.6875 31.320312 M 60.40625 34.570312 L 60.40625 29.34375 C 60.40625 21.378906 54.273438 16.039062 41.988281 16.039062 L 3.144531 16.042969 C 1.410156 16.042969 0 17.539062 0 19.367188 L 0 60.617188 C 0 62.449219 1.410156 63.945312 3.144531 63.945312 L 6.5625 63.945312 C 8.296875 63.945312 9.714844 62.449219 9.714844 60.617188 L 9.714844 47.871094 L 41.988281 47.871094 C 54.273438 47.867188 60.40625 42.621094 60.40625 34.570312 M 119.539062 50.636719 L 119.539062 19.363281 C 119.539062 17.53125 118.121094 16.035156 116.390625 16.035156 L 112.96875 16.035156 C 111.238281 16.035156 109.824219 17.53125 109.824219 19.363281 L 109.824219 48.578125 C 109.824219 52.808594 105.625 53.671875 101.089844 53.671875 L 83.714844 53.671875 C 79.183594 53.671875 74.984375 52.804688 74.984375 48.578125 L 74.984375 19.363281 C 74.984375 17.53125 73.574219 16.035156 71.839844 16.035156 L 68.417969 16.035156 C 66.6875 16.035156 65.273438 17.53125 65.273438 19.363281 L 65.273438 50.636719 C 65.273438 58.824219 71.410156 63.9375 83.6875 63.9375 L 101.121094 63.9375 C 113.398438 63.9375 119.539062 58.8125 119.539062 50.636719 M 181.675781 30.59375 C 181.675781 27.550781 183.890625 26.320312 189.015625 26.320312 L 221.671875 26.320312 C 223.410156 26.320312 224.824219 24.824219 224.824219 22.996094 L 224.824219 19.378906 C 224.824219 17.550781 223.410156 16.050781 221.671875 16.050781 L 190.371094 16.050781 C 178.09375 16.050781 171.957031 21.339844 171.957031 29.316406 L 171.957031 31.871094 C 171.957031 39.847656 178.09375 45.132812 190.371094 45.132812 L 209.445312 45.132812 C 214.570312 45.132812 216.785156 46.359375 216.785156 49.402344 C 216.785156 52.441406 214.570312 53.675781 209.445312 53.675781 L 146.003906 53.675781 C 141.460938 53.675781 137.269531 52.816406 137.269531 48.585938 L 137.269531 19.363281 C 137.269531 17.535156 135.851562 16.039062 134.121094 16.039062 L 130.699219 16.039062 C 128.964844 16.039062 127.550781 17.535156 127.550781 19.363281 L 127.550781 50.644531 C 127.550781 58.8125 133.683594 63.941406 145.96875 63.941406 L 208.074219 63.941406 L 208.074219 63.945312 C 220.359375 63.945312 226.492188 58.664062 226.492188 50.6875 L 226.492188 48.125 C 226.492188 40.148438 220.359375 34.867188 208.074219 34.867188 L 189.015625 34.867188 C 183.890625 34.867188 181.675781 33.632812 181.675781 30.59375 "/>
  </g>
</svg>