<?xml version="1.0" encoding="UTF-8" standalone="no"?>
<svg
   xmlns:dc="http://purl.org/dc/elements/1.1/"
   xmlns:cc="http://creativecommons.org/ns#"
   xmlns:rdf="http://www.w3.org/1999/02/22-rdf-syntax-ns#"
   xmlns:svg="http://www.w3.org/2000/svg"
   xmlns="http://www.w3.org/2000/svg"
   viewBox="0 0 415.74667 281.13333"
   height="281.13333"
   width="415.74667"
   xml:space="preserve"
   id="svg2"
   version="1.1"><metadata
     id="metadata8"><rdf:RDF><cc:Work
         rdf:about=""><dc:format>image/svg+xml</dc:format><dc:type
           rdf:resource="http://purl.org/dc/dcmitype/StillImage" /></cc:Work></rdf:RDF></metadata><defs
     id="defs6" /><g
     transform="matrix(1.3333333,0,0,-1.3333333,0,281.13333)"
     id="g10"><g
       transform="scale(0.1)"
       id="g12"><path
         id="path14"
         style="fill:#100f0d;fill-opacity:1;fill-rule:nonzero;stroke:none"
         d="M 482.746,434.16 385.648,142.539 288.555,434.16 h -23.543 l 103.14,-309.801 h 34.985 l 103.14,309.801 h -23.531" /><path
         id="path16"
         style="fill:#100f0d;fill-opacity:1;fill-rule:nonzero;stroke:none"
         d="m 1299.22,202.93 c -12.94,-36.598 -47.88,-61.211 -86.96,-61.211 h -7.65 c -39.08,0 -74.03,24.613 -86.96,61.211 -1.86,5.269 -7.51,21.25 -7.51,76.34 0,49.218 4.29,67.031 7.51,76.152 12.93,36.617 47.88,61.219 86.96,61.219 h 7.65 c 39.08,0 74.02,-24.602 86.96,-61.219 1.86,-5.25 7.5,-21.231 7.5,-76.152 0,-37.079 -2.44,-62.051 -7.5,-76.34 m 7.5,231.34 v -44.911 c -21,30.493 -56.1,49.653 -94.46,49.653 h -7.65 c -48.54,0 -91.96,-30.614 -108.05,-76.141 -4.08,-11.582 -8.78,-31.531 -8.78,-83.601 0,-52.821 5.02,-73.11 8.78,-83.782 16.09,-45.539 59.51,-76.136 108.05,-76.136 h 7.65 c 38.28,0 73.32,19.097 94.33,49.468 -0.54,-29.64 -2.97,-50.23 -7.37,-62.679 -12.94,-36.6215 -47.88,-61.2113 -86.96,-61.2113 h -7.65 c -34.59,0 -67.14,16.082 -84.45,40.1016 h -26 c 18.56,-37.25 62.24,-62.4727 110.45,-62.4727 h 7.65 c 48.54,0 91.96,30.5898 108.04,76.1211 3.78,10.6723 8.78,30.9683 8.78,83.8003 v 251.79 h -22.36" /><path
         id="path18"
         style="fill:#100f0d;fill-opacity:1;fill-rule:nonzero;stroke:none"
         d="m 1404.7,355.379 c 12.93,36.633 47.87,61.23 86.95,61.23 h 7.64 c 39.09,0 74.03,-24.597 86.97,-61.23 1.49,-4.238 5.79,-16.391 7.11,-52.199 h -195.79 c 1.13,31.492 4.47,44.75 7.12,52.199 m 188.95,-154.399 -0.54,-1.5 c -11.84,-33.492 -51.28,-57.789 -93.82,-57.789 h -7.64 c -39.08,0 -74.02,24.598 -86.95,61.207 -1.86,5.25 -7.52,21.243 -7.52,76.332 v 1.579 h 219.04 l -0.2,11.371 c -0.71,43.308 -5.29,61.058 -8.68,70.64 -16.08,45.559 -59.51,76.141 -108.05,76.141 h -7.64 c -48.54,0 -91.96,-30.582 -108.04,-76.121 -4.09,-11.578 -8.79,-31.539 -8.79,-83.61 0,-52.808 5.02,-73.109 8.79,-83.781 16.08,-45.539 59.5,-76.129 108.04,-76.129 h 7.64 c 52.53,0 99.78,29.899 114.9,72.711 l 3.16,8.949 h -23.7" /><path
         id="path20"
         style="fill:#100f0d;fill-opacity:1;fill-rule:nonzero;stroke:none"
         d="m 546.094,355.379 c 12.933,36.633 47.875,61.23 86.957,61.23 h 7.644 c 39.09,0 74.028,-24.597 86.961,-61.23 1.5,-4.238 5.797,-16.391 7.117,-52.199 H 538.98 c 1.125,31.492 4.469,44.75 7.114,52.199 m 188.953,-154.399 -0.543,-1.5 C 722.676,165.988 683.23,141.691 640.695,141.691 h -7.644 c -39.082,0 -74.024,24.598 -86.957,61.207 -1.86,5.25 -7.516,21.243 -7.516,76.332 v 1.579 h 219.039 l -0.187,11.371 c -0.711,43.308 -5.297,61.058 -8.692,70.64 -16.074,45.559 -59.504,76.141 -108.043,76.141 h -7.644 c -48.535,0 -91.957,-30.582 -108.043,-76.121 -4.086,-11.578 -8.789,-31.539 -8.789,-83.61 0,-52.808 5.019,-73.109 8.789,-83.781 16.086,-45.539 59.508,-76.129 108.043,-76.129 h 7.644 c 52.535,0 99.774,29.899 114.899,72.711 l 3.152,8.949 h -23.699" /><path
         id="path22"
         style="fill:#100f0d;fill-opacity:1;fill-rule:nonzero;stroke:none"
         d="m 139.406,302.82 c -56.7068,0 -85.4646,18.43 -85.4646,54.75 0,25.301 8.2344,58.961 79.4926,58.961 h 9.082 c 65.214,0 77.644,-28.172 79.293,-52.359 h 22.379 c -2.114,35.539 -22.43,74.707 -101.672,74.707 h -9.082 c -84.1801,0 -101.852,-44.219 -101.852,-81.309 0,-28.82 14.0039,-77.109 107.824,-77.109 82.625,0 93.762,-36.152 93.762,-71.5 0,-44.59 -29.508,-67.191 -87.719,-67.191 h -14.953 c -58.1991,0 -87.7108,22.601 -87.7108,67.191 H 20.4297 c 0,-57.75 39.0859,-89.57 110.0663,-89.57 h 14.953 c 70.985,0 110.074,31.82 110.074,89.57 0,63.16 -37.976,93.859 -116.117,93.859" /><path
         id="path24"
         style="fill:#100f0d;fill-opacity:1;fill-rule:nonzero;stroke:none"
         d="m 1032.2,510.871 v -38.723 h -22.36 v 59.704 h 11.98 10.38 v -20.981" /><path
         id="path26"
         style="fill:#100f0d;fill-opacity:1;fill-rule:nonzero;stroke:none"
         d="m 1032.2,395.5 v 38.852 h -22.35 V 124.379 h 22.35 V 395.5" /><path
         id="path28"
         style="fill:#100f0d;fill-opacity:1;fill-rule:nonzero;stroke:none"
         d="m 2805.45,493.289 v -21.141 h -22.37 v 59.704 h 22.37 v -38.563" /><path
         id="path30"
         style="fill:#100f0d;fill-opacity:1;fill-rule:nonzero;stroke:none"
         d="m 2805.45,385.781 v 48.571 H 2783.1 V 124.379 h 22.35 v 261.402" /><path
         id="path32"
         style="fill:#100f0d;fill-opacity:1;fill-rule:nonzero;stroke:none"
         d="m 961.09,435.441 c -9.254,2.36 -18.813,3.559 -28.664,3.559 h -7.637 c -38.328,0 -73.41,-19.129 -94.406,-49.59 v 44.93 H 808.031 V 124.379 h 22.352 V 284.68 c 0.308,45.109 4.375,62.011 7.48,70.781 12.93,36.609 47.86,61.187 86.926,61.187 h 7.637 c 9.945,0 19.508,-1.628 28.664,-4.589 v 23.382" /><path
         id="path34"
         style="fill:#100f0d;fill-opacity:1;fill-rule:nonzero;stroke:none"
         d="m 2973.25,416.641 c -39.06,0 -74,-24.602 -86.92,-61.211 -3.23,-9.11 -7.51,-26.91 -7.51,-76.11 0,-55.082 5.65,-71.05 7.51,-76.308 12.92,-36.602 47.86,-61.203 86.92,-61.203 h 7.64 c 39.07,0 74,24.601 86.94,61.203 5.03,14.277 7.49,39.25 7.49,76.308 0,54.891 -5.65,70.86 -7.49,76.11 -12.94,36.609 -47.87,61.211 -86.94,61.211 z m 7.64,-297.172 h -7.64 c -48.53,0 -91.92,30.582 -108,76.09 -3.76,10.66 -8.78,30.953 -8.78,83.761 0,52.039 4.68,71.989 8.79,83.571 16.07,45.507 59.46,76.089 107.99,76.089 h 7.64 c 48.53,0 91.92,-30.582 108.01,-76.089 4.08,-11.582 8.77,-31.532 8.77,-83.571 0,-52.808 -5.01,-73.101 -8.77,-83.761 -16.09,-45.508 -59.48,-76.09 -108.01,-76.09" /><path
         id="path36"
         style="fill:#100f0d;fill-opacity:1;fill-rule:nonzero;stroke:none"
         d="m 2694.33,203.02 c -12.94,-36.598 -47.86,-61.2 -86.93,-61.2 h -7.65 c -39.07,0 -73.99,24.602 -86.92,61.2 -1.86,5.261 -7.51,21.242 -7.51,76.312 0,49.199 4.28,67.008 7.51,76.129 12.93,36.609 47.85,61.187 86.92,61.187 h 7.65 c 39.07,0 73.99,-24.578 86.93,-61.187 1.86,-5.262 7.49,-21.231 7.49,-76.129 0,-37.062 -2.44,-62.031 -7.49,-76.312 m 7.56,-78.661 h 22.35 V 531.93 h -22.35 V 389.289 c -20.99,30.52 -56.11,49.723 -94.49,49.723 h -7.65 c -48.52,0 -91.93,-30.582 -107.99,-76.121 -4.11,-11.559 -8.79,-31.512 -8.79,-83.559 0,-52.801 5,-73.094 8.79,-83.75 16.06,-45.531 59.47,-76.113 107.99,-76.113 h 7.65 c 38.38,0 73.5,19.191 94.49,49.711 v -44.821" /><path
         id="path38"
         style="fill:#100f0d;fill-opacity:1;fill-rule:nonzero;stroke:none"
         d="m 2414.96,279.691 h -0.04 c 0,-37.101 -2.46,-62.082 -7.52,-76.39 -12.92,-36.621 -47.89,-61.242 -86.98,-61.242 l -8.35,-0.047 c -58.37,0 -87.97,22.668 -87.97,67.398 v 3.399 c 0,35.461 11.4,68.261 94.05,68.261 h 96.81 z m 22.37,71.508 c 0,55.34 -38.17,88.371 -102.1,88.371 h -9.11 c -66.22,0 -105.33,-27.23 -108.63,-74.898 h 22.49 c 4.14,43.109 48.52,52.508 86.14,52.508 h 9.11 c 29.77,0 79.71,-8.578 79.71,-66.051 l 0.02,-47.668 h -96.81 c -79.44,0 -116.43,-28.801 -116.43,-90.652 v -3.399 c 0,-57.898 39.18,-89.789 110.35,-89.789 l 9.01,0.059 c 38.16,0.211 73.02,19.379 93.91,49.742 l 0.01,-44.961 h 22.4 l -0.07,226.738" /><path
         id="path40"
         style="fill:#100f0d;fill-opacity:1;fill-rule:nonzero;stroke:none"
         d="m 2083.5,358.129 c 0,78.57 -77.28,73.941 -101.26,78.57 h 111.54 c 32.01,-0.019 83.29,-21.148 83.29,-78.578 0,-57.43 -40.2,-78.562 -72.21,-78.59 h -52.35 c 0,0 30.99,0.02 30.99,78.598" /><path
         id="path42"
         style="fill:#100f0d;fill-opacity:1;fill-rule:nonzero;stroke:none"
         d="m 1660.77,124.461 h 133.77 L 1660.77,263.75 Z" /><path
         id="path44"
         style="fill:#100f0d;fill-opacity:1;fill-rule:nonzero;stroke:none"
         d="m 1801.76,436.719 127.17,-152.02 v 152.02 z" /><path
         id="path46"
         style="fill:#100f0d;fill-opacity:1;fill-rule:nonzero;stroke:none"
         d="m 2046.76,279.578 h -113.54 l 129.79,-155.117 h 121.27 l -137.52,155.117" /><path
         id="path48"
         style="fill:#100f0d;fill-opacity:1;fill-rule:nonzero;stroke:none"
         d="m 1751.74,358.121 c 0,-59.223 19.06,-73.941 42.8,-78.582 h -66.99 c -31.7,0.031 -71.49,21.152 -71.49,78.59 0,57.43 39.79,78.562 71.48,78.59 h 67 c -23.75,-4.649 -42.8,-19.367 -42.8,-78.598" /><path
         id="path50"
         style="fill:#100f0d;fill-opacity:1;fill-rule:nonzero;stroke:none"
         d="m 1844.51,201.98 c 0,58.45 -19.24,72.981 -43.23,77.551 h 67.68 c 32,-0.031 72.2,-20.883 72.2,-77.562 0,-56.688 -40.2,-77.528 -72.2,-77.571 h -67.68 c 23.99,4.582 43.23,19.122 43.23,77.582" /><path
         id="path52"
         style="fill:#32b540;fill-opacity:1;fill-rule:nonzero;stroke:none"
         d="m 2910.4,921.148 h -1.98 L 2779.6,1227.02 H 2647.85 L 2565.2,758.281 h 109.9 l 54.05,306.529 h 1.98 L 2860.5,758.281 h 131.08 l 82.65,468.739 h -73.22 c -20.26,0 -39.58,-16.42 -43.16,-36.68 z m -322.78,305.872 h -323.81 l -82.65,-468.739 h 323.8 l 17.05,96.66 h -214.57 l 17.17,97.321 h 203.3 l 16,90.708 H 2340.6 l 15.92,90.3 h 177.88 c 20.26,0 39.58,16.43 43.15,36.69 z m -755.76,-36.68 -10.06,-57.07 h 132.41 l -66.12,-374.989 h 113.21 l 66.13,374.989 h 132.41 l 16.53,93.75 h -341.36 c -20.26,0 -39.58,-16.42 -43.15,-36.68 z m -152.65,-115.65 c -5.7,-32.31 -36.61,-58.6 -68.92,-58.6 H 1508.6 l 20.66,117.19 h 101.7 c 32.3,0 53.95,-26.29 48.25,-58.59 z m 103.12,0 c 14.84,84.13 -41.34,152.34 -125.47,152.34 h -221.14 l -82.65,-468.749 h 73.28 c 20.23,0 39.52,16.399 43.09,36.629 l 22.51,127.43 h 47.08 l 83.02,-164.059 h 113.87 l -86.47,170.86 c 65.49,19.23 120.82,77.119 132.88,145.549 z m -1045.689,-0.01 c -5.7,-32.31 -36.614,-58.6 -68.922,-58.6 h -90.328 l 20.66,117.19 h 90.332 c 32.305,0 53.953,-26.28 48.258,-58.59 z m -22.356,152.34 H 504.512 L 421.855,758.27 h 73.383 c 20.266,0 39.586,16.429 43.16,36.691 l 22.457,127.367 h 99.708 c 84.132,0 164.367,68.211 179.199,152.352 14.84,84.13 -41.344,152.34 -125.477,152.34 z m 1148.295,489.42 c -7.07,-40.62 -19.61,-74.7 -37.65,-102.23 -18.04,-27.54 -39.53,-49.55 -64.46,-66.09 -24.95,-16.53 -52.48,-28.4 -82.59,-35.62 -30.13,-7.23 -60.81,-10.85 -92.03,-10.85 h -83.37 l 75.38,427.51 h 86.43 c 29.86,0 58.29,-3.45 85.28,-10.32 26.98,-6.89 50.1,-18.42 69.37,-34.59 19.24,-16.18 33.12,-37.87 41.63,-65.05 8.52,-27.21 9.19,-61.46 2.01,-102.76 z m -976.213,-107.91 148.253,272.93 52.61,-272.93 z M 411.414,1751.04 H 256.836 l 31.41,178.12 H 442.82 c 49.11,0 82.016,-39.95 73.356,-89.06 -8.66,-49.11 -55.656,-89.06 -104.762,-89.06 z M 2033.13,1886.5 c -15.44,45.61 -39.88,82.01 -73.34,109.18 -33.44,27.18 -73.62,46.63 -120.53,58.37 -46.91,11.74 -95.52,17.61 -145.84,17.61 H 1435.79 L 1316.43,1394.79 1154.7,2071.66 H 987.641 L 584.34,1394.77 470.938,1618.87 c 99.554,29.23 183.648,117.22 201.988,221.23 22.551,127.89 -62.844,231.56 -190.731,231.56 H 146.066 L 20.4297,1359.15 H 130.043 c 31.859,0 62.246,25.83 67.867,57.69 l 33.801,191.69 h 71.379 l 126.203,-249.38 h 321.324 l 58.18,106.88 h 305.473 l 20.28,-106.88 h 441.29 c 48.96,0 98.49,6.87 148.55,20.62 50.06,13.77 96.62,35.24 139.67,64.42 43.05,29.19 80.16,66.41 111.29,111.71 31.12,45.28 52.21,99.12 63.2,161.52 11.83,67.08 10.01,123.44 -5.42,169.08 z m 128.94,127.47 -115.49,-654.82 h 173.12 l 125.63,712.51 h -115.4 c -31.86,0 -62.24,-25.83 -67.86,-57.69 z M 355.238,1127 c -21.148,0 -36.789,7.75 -36.789,7.75 -13.164,6.15 -26.398,9.23 -39.711,9.23 -7.433,0 -15.082,-0.67 -22.949,-1.97 -7.875,-1.31 -15.199,-3.83 -21.953,-7.54 -6.781,-3.72 -12.758,-8.51 -17.941,-14.4 -5.196,-5.89 -8.59,-13.44 -10.207,-22.61 -1.391,-7.86 -0.907,-14.4 1.449,-19.65 2.347,-5.23 6.34,-9.82 11.984,-13.75 5.633,-3.94 12.524,-7.53 20.688,-10.81 8.16,-3.28 17.386,-6.67 27.691,-10.15 14.793,-5.25 30.152,-11.04 46.066,-17.36 15.914,-6.34 29.926,-14.74 42.067,-25.22 12.121,-10.481 21.402,-23.481 27.844,-38.981 6.433,-15.5 7.609,-34.828 3.531,-57.969 -4.699,-26.648 -13.676,-49.679 -26.926,-69.109 -13.254,-19.43 -29.293,-35.481 -48.117,-48.152 -18.836,-12.661 -39.485,-22.047 -61.961,-28.161 -22.473,-6.109 -45.07,-9.168 -67.774,-9.168 -33.191,0 -64.265,5.801 -93.2339,17.352 -28.9688,11.566 -51.8203,28.066 -68.5664,49.457 l 43.2617,37.34 c 8.6445,7.473 21.0547,12.312 39.8476,12.312 23.012,0 46.438,-12.312 46.438,-12.312 15.574,-7.867 31.757,-11.789 48.539,-11.789 8.293,0 16.531,0.871 24.703,2.629 8.164,1.73 15.543,4.582 22.133,8.511 6.593,3.93 12.199,9.168 16.855,15.711 4.645,6.559 7.781,14.418 9.398,23.59 1.54,8.731 0.665,16.149 -2.621,22.27 -3.296,6.109 -8.535,11.679 -15.726,16.699 -7.199,5.02 -16.434,9.609 -27.703,13.762 -11.285,4.148 -24.145,8.609 -38.575,13.437 -14.003,4.789 -27.527,10.461 -40.558,17.02 -13.035,6.551 -24.219,14.941 -33.547,25.221 -9.324,10.26 -16.0898,22.69 -20.2734,37.34 -4.1914,14.63 -4.4336,32.42 -0.7383,53.38 4.543,25.77 13.6717,47.81 27.3827,66.16 13.719,18.35 30.133,33.41 49.242,45.2 19.11,11.79 39.84,20.41 62.211,25.88 22.352,5.44 44.449,8.18 66.293,8.18 26.199,0 52.094,-4.81 77.696,-14.42 25.593,-9.61 47,-23.8 64.222,-42.57 l -42.34,-37.66 c -8.324,-7.4 -23.543,-14.68 -41.332,-14.68 z m 766.542,109.33 c -134.577,0 -253.221,-109.1 -264.995,-243.682 C 845.012,858.07 944.566,748.98 1079.15,748.98 c 134.57,0 253.22,109.09 264.99,243.668 11.78,134.582 -87.78,243.682 -222.36,243.682 z m -9.96,-113.83 c 71.6,0 124.75,-58.25 118.49,-129.852 -6.26,-71.597 -69.61,-129.839 -141.21,-129.839 -71.59,0 -124.748,58.242 -118.483,129.839 6.266,71.602 69.603,129.852 141.203,129.852 m 1646.32,963.42 c -204.62,0 -385.02,-165.89 -402.92,-370.51 -17.9,-204.63 133.47,-370.51 338.09,-370.51 204.63,0 385.02,165.88 402.92,370.51 17.91,204.62 -133.46,370.51 -338.09,370.51 z M 2743,1912.84 c 108.86,0 189.68,-88.57 180.15,-197.43 -9.52,-108.87 -105.83,-197.43 -214.69,-197.43 -108.87,0 -189.68,88.56 -180.16,197.43 9.52,108.86 105.84,197.43 214.7,197.43" /></g></g></svg>