<?xml version="1.0" encoding="UTF-8" ?>
<!DOCTYPE svg PUBLIC "-//W3C//DTD SVG 1.1//EN" "http://www.w3.org/Graphics/SVG/1.1/DTD/svg11.dtd">
<svg width="492pt" height="236pt" viewBox="0 0 492 236" version="1.1" xmlns="http://www.w3.org/2000/svg">
<g id="#fffffeff">
<path fill="#fffffe" opacity="1.00" d=" M 135.86 21.75 C 204.25 21.74 272.64 21.74 341.03 21.75 C 341.04 51.68 341.05 81.61 341.02 111.55 C 272.64 111.55 204.26 111.55 135.87 111.55 C 135.84 81.61 135.86 51.68 135.86 21.75 M 140.47 25.92 C 140.46 53.07 140.46 80.22 140.47 107.37 C 161.20 107.36 181.93 107.36 202.66 107.37 C 202.68 80.22 202.67 53.08 202.66 25.93 C 181.93 25.92 161.20 25.94 140.47 25.92 M 207.24 25.93 C 207.27 53.09 207.16 80.25 207.30 107.41 C 228.04 107.32 248.79 107.39 269.54 107.37 C 269.57 80.25 269.51 53.12 269.57 26.00 C 248.79 25.84 228.01 25.97 207.24 25.93 M 274.15 25.93 C 274.15 53.08 274.15 80.22 274.15 107.37 C 294.85 107.36 315.54 107.37 336.23 107.36 C 336.24 80.22 336.24 53.08 336.23 25.93 C 315.54 25.93 294.85 25.92 274.15 25.93 Z" />
<path fill="#fffffe" opacity="1.00" d=" M 149.93 39.13 C 164.34 39.11 178.75 39.12 193.16 39.12 C 193.17 42.76 193.17 46.41 193.16 50.05 C 188.01 50.06 182.86 50.05 177.71 50.06 C 177.71 65.03 177.70 80.00 177.71 94.97 C 173.60 94.99 169.50 94.99 165.39 94.97 C 165.40 80.00 165.40 65.03 165.39 50.05 C 160.24 50.05 155.09 50.06 149.94 50.05 C 149.92 46.41 149.93 42.77 149.93 39.13 Z" />
<path fill="#fffffe" opacity="1.00" d=" M 212.66 38.66 C 216.87 39.00 221.52 37.94 225.48 39.16 C 229.89 49.28 234.31 59.40 238.76 69.51 C 238.92 68.17 239.25 66.88 239.76 65.64 C 243.60 56.70 247.78 47.88 251.34 38.82 C 255.65 38.48 259.97 38.70 264.29 38.67 C 256.47 56.11 248.76 73.59 240.94 91.03 C 240.03 92.97 239.23 94.97 238.56 97.01 C 229.95 77.55 221.13 58.18 212.66 38.66 Z" />
<path fill="#fffffe" opacity="1.00" d=" M 287.68 39.12 C 297.13 39.58 307.66 37.29 316.00 43.01 C 324.61 48.49 326.66 61.38 320.53 69.46 C 315.77 76.22 306.87 78.56 298.98 77.98 C 298.97 83.64 298.98 89.31 298.98 94.98 C 295.21 94.98 291.44 94.98 287.67 94.98 C 287.67 76.36 287.66 57.74 287.68 39.12 M 298.98 50.06 C 298.97 55.87 298.98 61.69 298.98 67.50 C 302.77 67.41 307.10 67.84 310.26 65.31 C 314.09 61.91 313.88 55.23 310.11 51.89 C 306.82 49.69 302.74 50.02 298.98 50.06 Z" />
</g>
<g id="#009d59ff">
<path fill="#009d59" opacity="1.00" d=" M 99.36 0.00 L 377.36 0.00 C 377.36 45.01 377.37 90.02 377.36 135.03 C 284.69 135.05 192.03 135.05 99.37 135.03 C 99.36 90.02 99.37 45.01 99.36 0.00 M 135.86 21.75 C 135.86 51.68 135.84 81.61 135.87 111.55 C 204.26 111.55 272.64 111.55 341.02 111.55 C 341.05 81.61 341.04 51.68 341.03 21.75 C 272.64 21.74 204.25 21.74 135.86 21.75 Z" />
<path fill="#009d59" opacity="1.00" d=" M 140.47 25.92 C 161.20 25.94 181.93 25.92 202.66 25.93 C 202.67 53.08 202.68 80.22 202.66 107.37 C 181.93 107.36 161.20 107.36 140.47 107.37 C 140.46 80.22 140.46 53.07 140.47 25.92 M 149.93 39.13 C 149.93 42.77 149.92 46.41 149.94 50.05 C 155.09 50.06 160.24 50.05 165.39 50.05 C 165.40 65.03 165.40 80.00 165.39 94.97 C 169.50 94.99 173.60 94.99 177.71 94.97 C 177.70 80.00 177.71 65.03 177.71 50.06 C 182.86 50.05 188.01 50.06 193.16 50.05 C 193.17 46.41 193.17 42.76 193.16 39.12 C 178.75 39.12 164.34 39.11 149.93 39.13 Z" />
<path fill="#009d59" opacity="1.00" d=" M 207.24 25.93 C 228.01 25.97 248.79 25.84 269.57 26.00 C 269.51 53.12 269.57 80.25 269.54 107.37 C 248.79 107.39 228.04 107.32 207.30 107.41 C 207.16 80.25 207.27 53.09 207.24 25.93 M 212.66 38.66 C 221.13 58.18 229.95 77.55 238.56 97.01 C 239.23 94.97 240.03 92.97 240.94 91.03 C 248.76 73.59 256.47 56.11 264.29 38.67 C 259.97 38.70 255.65 38.48 251.34 38.82 C 247.78 47.88 243.60 56.70 239.76 65.64 C 239.25 66.88 238.92 68.17 238.76 69.51 C 234.31 59.40 229.89 49.28 225.48 39.16 C 221.52 37.94 216.87 39.00 212.66 38.66 Z" />
<path fill="#009d59" opacity="1.00" d=" M 274.15 25.93 C 294.85 25.92 315.54 25.93 336.23 25.93 C 336.24 53.08 336.24 80.22 336.23 107.36 C 315.54 107.37 294.85 107.36 274.15 107.37 C 274.15 80.22 274.15 53.08 274.15 25.93 M 287.68 39.12 C 287.66 57.74 287.67 76.36 287.67 94.98 C 291.44 94.98 295.21 94.98 298.98 94.98 C 298.98 89.31 298.97 83.64 298.98 77.98 C 306.87 78.56 315.77 76.22 320.53 69.46 C 326.66 61.38 324.61 48.49 316.00 43.01 C 307.66 37.29 297.13 39.58 287.68 39.12 Z" />
<path fill="#009d59" opacity="1.00" d=" M 298.98 50.06 C 302.74 50.02 306.82 49.69 310.11 51.89 C 313.88 55.23 314.09 61.91 310.26 65.31 C 307.10 67.84 302.77 67.41 298.98 67.50 C 298.98 61.69 298.97 55.87 298.98 50.06 Z" />
<path fill="#009d59" opacity="1.00" d=" M 112.03 178.78 C 119.94 177.19 128.25 179.13 135.07 183.29 C 135.12 187.97 134.16 192.57 133.91 197.23 C 130.76 194.16 127.11 191.41 122.77 190.33 C 117.58 189.15 111.64 189.98 107.61 193.66 C 99.12 200.60 99.97 215.92 109.35 221.72 C 113.98 224.73 119.98 224.63 125.07 222.95 C 125.06 220.34 125.06 217.74 125.05 215.14 C 121.69 215.13 118.32 215.13 114.96 215.13 C 114.95 211.45 114.95 207.77 114.96 204.09 C 122.64 204.07 130.32 204.09 138.00 204.08 C 137.96 212.90 138.11 221.73 137.91 230.56 C 132.15 233.22 126.10 235.27 119.76 236.00 L 115.39 236.00 C 104.90 235.44 94.93 228.82 90.90 219.05 C 88.43 213.72 88.49 207.68 89.02 201.95 C 90.54 190.31 100.42 180.42 112.03 178.78 Z" />
<path fill="#009d59" opacity="1.00" d=" M 189.63 179.64 C 196.49 177.53 204.20 177.99 210.63 181.24 C 217.81 185.02 223.39 191.99 225.00 200.00 C 227.74 210.57 224.10 222.69 215.59 229.65 C 211.09 233.38 205.42 235.45 199.64 236.00 L 196.36 236.00 C 185.37 235.24 175.55 227.26 172.09 216.90 C 170.63 212.78 170.53 208.32 170.78 204.01 C 171.42 193.10 179.28 183.05 189.63 179.64 M 193.35 191.43 C 182.37 196.11 180.74 212.85 189.59 220.37 C 194.72 225.33 203.67 224.47 208.19 219.11 C 214.40 211.80 213.80 199.10 205.99 193.15 C 202.50 190.34 197.48 190.03 193.35 191.43 Z" />
<path fill="#009d59" opacity="1.00" d=" M 234.61 177.82 C 236.53 179.07 238.26 180.57 239.88 182.18 C 249.71 191.31 259.52 200.48 269.31 209.66 C 269.29 199.78 269.31 189.90 269.30 180.01 C 273.31 180.00 277.33 180.00 281.35 180.01 C 281.36 198.67 281.34 217.34 281.36 236.00 L 280.09 236.00 C 268.80 225.74 257.81 215.14 246.53 204.87 C 246.55 214.59 246.54 224.32 246.54 234.05 C 242.51 234.06 238.47 234.06 234.44 234.05 C 234.54 215.31 234.21 196.56 234.61 177.82 Z" />
<path fill="#009d59" opacity="1.00" d=" M 385.92 177.87 C 393.24 183.54 399.57 190.37 406.45 196.55 C 411.30 200.87 415.94 205.43 420.66 209.89 C 420.68 199.93 420.66 189.97 420.67 180.01 C 424.65 180.00 428.64 180.00 432.63 180.01 C 432.62 198.68 432.62 217.34 432.63 236.00 L 431.25 236.00 C 420.01 225.71 408.98 215.19 397.76 204.87 C 397.73 214.60 397.76 224.32 397.75 234.05 C 393.78 234.06 389.81 234.06 385.85 234.05 C 385.88 215.32 385.73 196.59 385.92 177.87 Z" />
<path fill="#009d59" opacity="1.00" d=" M 285.82 234.06 C 295.39 215.49 304.15 196.50 313.91 178.04 C 323.38 196.51 332.16 215.37 341.26 234.04 C 336.72 234.07 332.19 234.05 327.65 234.05 C 326.32 231.53 325.82 228.28 323.83 226.26 C 316.72 226.09 309.61 226.25 302.50 226.20 C 301.34 228.84 300.17 231.48 298.90 234.07 C 294.54 234.04 290.18 234.06 285.82 234.06 M 313.58 199.79 C 310.97 205.48 308.71 211.32 306.13 217.02 C 310.84 216.97 315.56 217.03 320.28 216.98 C 318.15 211.21 315.21 205.73 313.58 199.79 Z" />
<path fill="#009d59" opacity="1.00" d=" M 437.07 234.05 C 446.47 215.37 455.51 196.51 465.09 177.93 C 474.39 196.08 482.90 214.64 492.00 232.90 L 492.00 234.05 C 487.66 234.06 483.32 234.03 478.98 234.09 C 477.73 231.50 476.57 228.87 475.50 226.21 C 468.20 226.22 460.91 226.12 453.62 226.26 C 452.52 228.90 451.34 231.51 450.10 234.09 C 445.76 234.04 441.41 234.06 437.07 234.05 M 457.47 216.99 C 462.12 217.01 466.77 217.02 471.43 216.98 C 469.33 211.18 466.55 205.66 464.56 199.83 C 462.41 205.63 459.67 211.20 457.47 216.99 Z" />
<path fill="#009d59" opacity="1.00" d=" M 0.00 180.00 C 9.02 180.25 18.35 179.10 27.08 181.92 C 33.35 183.95 38.08 190.30 37.26 197.01 C 37.52 203.31 32.94 208.54 27.49 211.07 C 32.82 218.79 38.38 226.35 43.75 234.04 C 38.84 234.07 33.93 234.04 29.02 234.07 C 24.41 227.61 20.05 220.98 15.57 214.43 C 14.99 213.48 14.15 212.91 13.04 212.69 C 12.95 219.81 13.03 226.93 13.00 234.05 C 8.66 234.06 4.33 234.05 0.00 234.06 L 0.00 180.00 M 13.01 190.03 C 12.99 195.02 13.00 200.02 13.00 205.01 C 16.65 205.18 20.67 204.97 23.58 202.48 C 26.10 199.80 26.07 195.02 23.73 192.24 C 20.63 190.02 16.67 189.92 13.01 190.03 Z" />
<path fill="#009d59" opacity="1.00" d=" M 49.00 180.00 C 60.06 180.01 71.12 180.00 82.18 180.01 C 82.19 183.78 82.19 187.55 82.18 191.32 C 75.31 191.34 68.44 191.31 61.57 191.34 C 61.57 194.56 61.57 197.78 61.58 201.00 C 67.45 201.01 73.31 200.99 79.18 201.01 C 79.18 204.68 79.18 208.36 79.18 212.04 C 73.31 212.06 67.45 212.04 61.59 212.05 C 61.57 215.64 61.52 219.23 61.66 222.83 C 68.64 222.73 75.63 222.81 82.61 222.78 C 82.62 226.53 82.62 230.29 82.62 234.05 C 71.41 234.06 60.21 234.06 49.01 234.05 C 49.00 216.04 49.00 198.02 49.00 180.00 Z" />
<path fill="#009d59" opacity="1.00" d=" M 148.80 180.01 C 153.15 180.00 157.49 180.00 161.83 180.01 C 161.83 198.02 161.83 216.04 161.83 234.05 C 157.49 234.06 153.15 234.06 148.81 234.05 C 148.80 216.04 148.80 198.02 148.80 180.01 Z" />
<path fill="#009d59" opacity="1.00" d=" M 346.00 180.00 C 350.33 180.00 354.67 180.00 359.00 180.00 C 359.02 194.18 358.99 208.35 359.01 222.53 C 366.00 222.52 372.98 222.52 379.97 222.53 C 379.96 226.37 379.96 230.21 379.96 234.05 C 368.64 234.06 357.32 234.06 346.00 234.05 C 346.00 216.04 346.00 198.02 346.00 180.00 Z" />
</g>
</svg>
