<?xml version="1.0" encoding="UTF-8" ?>
<!DOCTYPE svg PUBLIC "-//W3C//DTD SVG 1.1//EN" "http://www.w3.org/Graphics/SVG/1.1/DTD/svg11.dtd">
<svg width="800pt" height="305pt" viewBox="0 0 800 305" version="1.1" xmlns="http://www.w3.org/2000/svg">
<g id="#0089cfff">
<path fill="#0089cf" opacity="1.00" d=" M 666.43 0.00 L 673.77 0.00 C 686.91 0.22 700.23 0.95 712.88 4.81 C 720.01 7.10 727.68 10.86 730.85 18.10 C 733.75 24.95 731.17 32.59 727.71 38.72 C 720.55 50.81 710.17 60.55 699.60 69.63 C 669.54 94.74 635.55 114.56 601.44 133.59 C 598.93 134.89 596.39 136.16 593.93 137.57 C 589.02 140.12 584.14 142.73 579.23 145.28 C 534.20 168.49 487.91 189.18 440.93 208.11 C 436.75 209.81 432.53 211.39 428.36 213.12 C 426.20 213.96 424.03 214.77 421.89 215.67 C 414.94 218.26 408.03 220.98 401.13 223.70 C 400.16 224.01 399.20 224.33 398.24 224.66 C 389.80 227.98 381.19 230.86 372.67 233.96 C 370.15 234.77 367.70 235.77 365.25 236.76 C 354.01 240.86 342.60 244.46 331.29 248.38 C 326.57 250.14 321.45 249.21 316.54 249.30 C 328.90 244.86 341.62 241.43 353.97 236.94 C 357.25 236.14 360.42 234.96 363.59 233.80 C 369.07 232.04 374.46 230.02 379.87 228.07 C 384.08 226.66 388.22 225.06 392.39 223.53 C 394.33 222.81 396.29 222.12 398.22 221.37 C 399.17 220.98 400.13 220.59 401.09 220.19 C 409.72 216.99 418.35 213.79 426.86 210.27 C 428.82 209.50 430.81 208.80 432.76 207.97 C 436.88 206.31 441.02 204.68 445.12 202.97 C 495.15 182.38 544.44 159.60 590.92 131.81 C 597.27 127.94 603.63 124.07 609.78 119.89 C 613.46 117.51 617.10 115.08 620.65 112.51 C 635.33 102.20 649.56 90.99 661.51 77.53 C 667.70 70.29 673.52 62.29 676.00 52.96 C 677.94 45.82 676.83 37.63 671.88 31.93 C 665.63 24.66 656.11 21.50 647.06 19.40 C 626.68 15.15 605.66 16.04 585.04 17.71 C 536.88 22.23 489.58 33.22 443.02 46.01 C 420.00 52.46 397.12 59.43 374.47 67.06 C 371.88 67.20 369.29 67.11 366.71 66.87 C 418.89 48.75 472.03 33.36 525.83 20.83 C 572.07 10.42 618.94 1.55 666.43 0.00 Z" />
<path fill="#0089cf" opacity="1.00" d=" M 279.11 99.24 C 288.14 95.70 297.14 92.09 306.22 88.67 L 307.30 88.25 C 307.30 88.96 307.30 90.37 307.30 91.08 C 298.26 94.50 289.30 98.10 280.33 101.68 C 279.94 100.85 279.53 100.04 279.11 99.24 Z" />
<path fill="#0089cf" opacity="1.00" d=" M 41.70 224.76 C 55.07 214.11 69.30 204.61 83.65 195.36 C 83.65 199.82 83.65 204.28 83.65 208.74 C 73.54 217.56 63.65 226.90 56.19 238.14 C 51.94 244.66 48.30 251.99 48.09 259.93 C 47.86 266.03 50.23 272.17 54.59 276.46 C 60.75 282.54 69.26 285.41 77.54 287.24 C 91.15 290.06 105.16 290.17 118.99 289.68 C 146.11 288.47 172.96 284.10 199.58 278.98 C 199.63 281.14 199.68 283.30 199.73 285.46 C 155.03 295.46 109.68 304.09 63.75 305.00 L 55.55 305.00 C 41.70 304.29 27.42 303.42 14.56 297.76 C 7.40 294.71 0.79 288.69 0.00 280.54 L 0.00 276.88 C 1.21 267.82 6.39 259.99 11.96 253.02 C 20.64 242.39 31.00 233.28 41.70 224.76 Z" />
</g>
<g id="#000000ff">
<path fill="#000000" opacity="1.00" d=" M 307.29 67.15 C 327.10 66.95 346.92 67.48 366.71 66.87 C 369.29 67.11 371.88 67.20 374.47 67.06 C 383.35 67.21 392.23 67.09 401.11 67.14 C 401.11 118.16 401.15 169.18 401.09 220.19 C 400.13 220.59 399.17 220.98 398.22 221.37 C 398.25 170.93 398.23 120.50 398.23 70.07 C 368.90 70.06 339.57 70.06 310.23 70.07 C 310.24 124.65 310.23 179.22 310.24 233.80 C 328.02 233.80 345.81 233.80 363.59 233.80 C 360.42 234.96 357.25 236.14 353.97 236.94 C 338.42 236.47 322.85 236.87 307.30 236.73 C 307.29 188.18 307.29 139.63 307.30 91.08 C 307.30 90.37 307.30 88.96 307.30 88.25 L 306.22 88.67 C 306.48 88.52 307.00 88.22 307.26 88.08 C 307.36 81.10 307.25 74.12 307.29 67.15 Z" />
<path fill="#000000" opacity="1.00" d=" M 83.66 67.14 C 121.75 67.18 159.84 67.01 197.93 67.29 C 209.63 67.57 221.41 67.34 233.01 69.09 C 241.74 70.71 250.30 73.62 258.13 77.84 C 266.95 82.81 274.28 90.34 279.11 99.24 C 279.53 100.04 279.94 100.85 280.33 101.68 C 284.74 111.02 285.23 121.85 282.78 131.80 C 280.44 141.63 274.19 150.14 266.25 156.24 C 286.51 178.06 297.14 207.35 299.76 236.71 C 267.50 236.77 235.23 236.70 202.97 236.74 C 200.41 221.38 200.68 205.02 193.10 190.94 C 190.03 184.79 184.36 179.90 177.49 178.69 C 177.47 198.01 177.44 217.34 177.50 236.67 C 146.23 236.83 114.96 236.67 83.68 236.74 C 83.60 227.41 83.67 218.08 83.65 208.74 C 83.65 204.28 83.65 199.82 83.65 195.36 C 83.64 152.62 83.64 109.88 83.66 67.14 M 86.59 70.07 C 86.52 124.60 86.71 179.13 86.50 233.66 C 115.86 233.98 145.23 233.72 174.59 233.79 C 174.59 214.35 174.58 194.91 174.60 175.46 C 182.76 175.79 190.38 180.49 194.49 187.53 C 202.85 201.45 203.37 218.14 205.36 233.80 C 235.71 233.83 266.06 233.75 296.41 233.84 C 293.89 207.98 284.52 182.39 267.74 162.35 C 265.89 159.99 263.62 157.99 261.91 155.53 C 270.03 150.30 276.55 142.36 279.37 133.06 C 282.25 123.58 282.13 113.03 278.12 103.90 C 272.96 92.15 263.07 82.63 251.26 77.69 C 243.85 74.64 236.12 72.10 228.11 71.37 C 217.09 70.37 206.03 70.35 194.98 70.14 C 158.85 70.00 122.72 70.09 86.59 70.07 Z" />
<path fill="#000000" opacity="1.00" d=" M 402.92 67.14 C 438.18 67.14 473.44 67.11 508.70 67.15 C 516.80 75.91 524.88 84.70 533.02 93.42 C 541.02 84.68 548.95 75.87 556.96 67.13 C 591.84 67.15 626.72 67.11 661.61 67.15 C 648.00 82.31 634.20 97.30 620.65 112.51 C 617.10 115.08 613.46 117.51 609.78 119.89 C 625.07 103.47 639.93 86.65 655.06 70.08 C 622.77 70.05 590.48 70.07 558.19 70.07 C 549.80 79.28 541.44 88.52 533.04 97.73 C 525.07 89.13 517.07 80.54 509.15 71.88 C 508.31 71.07 507.53 69.82 506.16 70.08 C 473.98 70.04 441.80 70.09 409.62 70.06 C 434.60 97.07 459.65 124.02 484.65 151.03 C 467.32 169.99 450.22 189.15 432.76 207.97 C 430.81 208.80 428.82 209.50 426.86 210.27 C 444.84 190.56 462.75 170.79 480.69 151.05 C 454.78 123.06 428.83 95.12 402.92 67.14 Z" />
<path fill="#000000" opacity="1.00" d=" M 174.59 108.33 C 180.00 108.70 186.21 108.66 190.48 112.51 C 193.92 116.52 194.09 122.99 191.54 127.48 C 187.65 132.59 180.41 132.46 174.60 132.89 C 174.57 124.70 174.59 116.51 174.59 108.33 M 177.48 111.38 C 177.46 117.53 177.47 123.68 177.47 129.83 C 181.57 129.28 186.80 129.30 189.36 125.48 C 190.85 121.90 190.93 116.88 187.87 114.07 C 184.83 112.02 181.01 111.81 177.48 111.38 Z" />
<path fill="#000000" opacity="1.00" d=" M 636.60 118.67 C 658.23 118.66 679.87 118.68 701.51 118.66 C 701.56 126.37 701.51 134.07 701.53 141.78 C 690.20 141.83 678.87 141.78 667.54 141.80 C 667.54 142.39 667.54 143.55 667.54 144.13 C 678.87 144.16 690.20 144.10 701.54 144.16 C 701.45 151.85 701.67 159.55 701.42 167.24 C 690.17 167.11 678.91 167.31 667.66 167.14 C 667.36 175.68 667.61 184.23 667.53 192.78 C 657.22 192.82 646.91 192.79 636.60 192.80 C 636.58 168.09 636.58 143.38 636.60 118.67 M 640.18 122.27 C 640.17 144.60 640.18 166.93 640.18 189.26 C 648.09 189.28 656.02 189.27 663.94 189.26 C 663.95 180.73 663.93 172.20 663.95 163.67 C 675.27 163.66 686.60 163.66 697.93 163.67 C 697.95 158.36 697.94 153.05 697.94 147.74 C 686.61 147.73 675.29 147.73 663.96 147.73 C 663.93 144.55 663.93 141.38 663.95 138.20 C 675.28 138.19 686.61 138.20 697.94 138.20 C 697.94 132.88 697.95 127.57 697.93 122.26 C 678.68 122.28 659.43 122.26 640.18 122.27 Z" />
<path fill="#000000" opacity="1.00" d=" M 705.07 118.67 C 713.36 118.66 721.66 118.66 729.96 118.67 C 737.53 125.66 744.99 132.77 752.60 139.72 C 760.06 132.67 767.60 125.70 775.09 118.68 C 783.39 118.64 791.70 118.68 800.00 118.67 L 800.00 192.80 C 789.69 192.80 779.38 192.80 769.07 192.80 C 769.03 182.36 769.09 171.92 769.04 161.48 C 764.72 165.43 760.55 169.54 756.19 173.44 C 753.72 173.40 751.27 173.40 748.82 173.41 C 744.50 169.47 740.30 165.41 736.01 161.43 C 735.97 171.89 736.03 182.35 735.99 192.80 C 725.68 192.80 715.37 192.80 705.07 192.80 C 705.05 168.09 705.06 143.38 705.07 118.67 M 708.56 122.40 C 708.77 144.69 708.58 166.98 708.65 189.26 C 716.57 189.27 724.49 189.27 732.41 189.26 C 732.42 177.22 732.41 165.18 732.41 153.14 C 738.35 158.69 744.24 164.29 750.20 169.81 C 751.77 169.80 753.34 169.80 754.94 169.79 C 760.85 164.29 766.67 158.69 772.63 153.23 C 772.68 165.24 772.63 177.25 772.65 189.26 C 780.57 189.27 788.49 189.27 796.41 189.26 C 796.43 166.95 796.38 144.63 796.44 122.31 C 789.76 122.24 783.08 122.24 776.41 122.31 C 768.53 129.79 760.48 137.11 752.62 144.61 C 744.54 137.25 736.62 129.73 728.62 122.28 C 721.93 122.33 715.24 122.10 708.56 122.40 Z" />
<path fill="#000000" opacity="1.00" d=" M 593.93 137.57 C 596.39 136.16 598.93 134.89 601.44 133.59 C 596.38 139.26 591.26 144.88 586.14 150.50 C 612.77 179.31 639.73 207.82 666.23 236.74 C 631.46 236.71 596.70 236.76 561.94 236.71 C 560.66 236.92 559.89 235.77 559.10 235.03 C 550.73 226.04 542.28 217.14 533.87 208.20 C 525.15 217.68 516.63 227.34 507.85 236.77 C 472.86 236.68 437.86 236.77 402.87 236.73 C 409.19 229.69 415.66 222.78 421.89 215.67 C 424.03 214.77 426.20 213.96 428.36 213.12 C 421.94 219.89 415.77 226.91 409.47 233.80 C 441.89 233.80 474.30 233.80 506.72 233.80 C 515.75 223.83 524.77 213.85 533.83 203.92 C 543.26 213.86 552.59 223.89 562.05 233.82 C 594.59 233.77 627.13 233.82 659.67 233.79 C 633.86 206.04 608.04 178.30 582.19 150.58 C 586.09 146.23 590.04 141.92 593.93 137.57 Z" />
<path fill="#000000" opacity="1.00" d=" M 398.24 224.66 C 399.20 224.33 400.16 224.01 401.13 223.70 C 401.11 228.04 401.13 232.38 401.10 236.73 C 389.15 236.76 377.20 236.70 365.25 236.76 C 367.70 235.77 370.15 234.77 372.67 233.96 C 381.18 233.61 389.71 233.89 398.23 233.80 C 398.23 230.75 398.23 227.71 398.24 224.66 Z" />
<path fill="#000000" opacity="1.00" d=" M 259.15 251.20 C 261.19 249.96 264.08 251.54 264.07 253.95 C 264.22 256.40 261.19 258.26 259.12 256.85 C 256.98 255.71 257.02 252.33 259.15 251.20 Z" />
<path fill="#000000" opacity="1.00" d=" M 270.32 251.38 C 272.28 249.85 275.64 251.41 275.44 253.97 C 275.72 256.19 273.01 258.10 271.01 257.05 C 268.65 256.28 268.24 252.70 270.32 251.38 Z" />
<path fill="#000000" opacity="1.00" d=" M 295.72 261.76 C 300.99 259.18 307.67 260.16 312.22 263.80 C 312.16 266.55 312.16 269.29 312.19 272.04 C 309.47 269.87 306.06 266.95 302.33 268.36 C 300.83 268.91 300.70 271.00 302.00 271.86 C 305.30 274.29 309.68 275.42 312.09 278.97 C 315.03 283.33 312.86 289.93 307.97 291.81 C 302.47 293.99 296.20 292.94 290.83 290.86 C 290.82 287.99 290.82 285.12 290.81 282.25 C 293.86 283.98 297.33 285.96 300.97 285.13 C 302.54 284.99 303.45 282.72 302.02 281.81 C 298.83 279.36 294.51 278.26 292.22 274.72 C 289.39 270.45 291.12 264.02 295.72 261.76 Z" />
<path fill="#000000" opacity="1.00" d=" M 440.15 260.73 C 443.86 260.74 447.57 260.72 451.28 260.75 C 451.25 266.81 451.41 272.88 451.21 278.94 C 451.15 283.37 449.13 287.93 445.26 290.30 C 441.01 292.92 435.76 293.25 430.91 292.77 C 426.96 292.28 422.80 290.96 420.14 287.84 C 418.01 285.42 417.14 282.15 417.19 278.99 C 417.15 272.91 417.19 266.82 417.18 260.74 C 420.90 260.72 424.62 260.73 428.35 260.74 C 428.47 267.05 428.12 273.38 428.52 279.68 C 428.91 283.88 434.30 285.69 437.54 283.40 C 439.61 281.99 440.10 279.31 440.10 276.98 C 440.18 271.56 440.05 266.14 440.15 260.73 Z" />
<path fill="#000000" opacity="1.00" d=" M 462.02 261.78 C 467.30 259.15 473.92 260.21 478.55 263.73 C 478.51 266.50 478.52 269.28 478.56 272.06 C 475.90 269.95 472.70 267.18 469.04 268.21 C 467.49 268.50 466.72 270.73 468.18 271.70 C 471.56 274.37 476.34 275.43 478.66 279.36 C 481.34 283.86 478.88 290.29 473.94 291.97 C 468.51 293.91 462.44 292.90 457.18 290.87 C 457.17 287.99 457.17 285.11 457.16 282.23 C 460.10 283.99 463.41 285.74 466.96 285.24 C 468.33 285.11 469.77 283.58 468.81 282.21 C 465.59 279.38 460.84 278.43 458.49 274.61 C 455.76 270.35 457.48 264.05 462.02 261.78 Z" />
<path fill="#000000" opacity="1.00" d=" M 604.21 260.72 C 607.91 260.74 611.62 260.73 615.32 260.74 C 615.32 266.80 615.46 272.87 615.26 278.94 C 615.16 282.64 613.85 286.44 611.05 288.96 C 607.82 291.96 603.25 292.84 598.99 292.96 C 594.38 293.02 589.46 292.23 585.73 289.33 C 582.60 286.91 581.14 282.86 581.24 278.99 C 581.21 272.91 581.25 266.83 581.24 260.75 C 584.96 260.72 588.68 260.73 592.40 260.74 C 592.53 267.02 592.20 273.32 592.56 279.60 C 592.89 283.83 598.30 285.71 601.58 283.41 C 603.64 282.02 604.15 279.35 604.16 277.03 C 604.24 271.59 604.11 266.16 604.21 260.72 Z" />
<path fill="#000000" opacity="1.00" d=" M 626.04 261.80 C 631.30 259.15 637.86 260.22 642.53 263.64 C 642.52 266.43 642.53 269.23 642.55 272.03 C 639.90 269.91 636.75 267.20 633.11 268.21 C 631.56 268.51 630.74 270.71 632.23 271.70 C 635.61 274.35 640.34 275.42 642.68 279.30 C 645.24 283.56 643.23 289.70 638.67 291.67 C 633.12 294.05 626.69 292.98 621.23 290.85 C 621.24 287.98 621.23 285.11 621.21 282.24 C 624.16 284.00 627.47 285.73 631.02 285.25 C 632.37 285.15 633.87 283.47 632.81 282.20 C 629.77 279.48 625.34 278.56 622.89 275.13 C 619.70 270.91 621.32 264.16 626.04 261.80 Z" />
<path fill="#000000" opacity="1.00" d=" M 785.76 267.03 C 785.95 264.04 787.87 260.56 791.17 260.33 C 794.65 260.23 796.78 263.89 797.00 266.98 C 797.35 272.18 795.12 277.06 792.94 281.64 C 797.22 283.00 798.57 289.18 794.78 291.85 C 791.23 294.85 785.19 291.60 785.74 286.99 C 785.68 284.41 787.74 282.68 789.84 281.62 C 787.61 277.08 785.43 272.21 785.76 267.03 Z" />
<path fill="#000000" opacity="1.00" d=" M 211.23 260.75 C 217.15 260.72 223.06 260.73 228.98 260.73 C 232.08 260.75 235.47 261.00 237.94 263.11 C 240.90 265.51 241.32 270.81 238.17 273.22 C 237.53 273.94 236.24 274.24 236.13 275.32 C 237.66 276.26 239.45 276.94 240.57 278.43 C 243.46 282.09 242.47 288.10 238.62 290.71 C 236.43 292.35 233.61 292.63 230.96 292.61 C 224.39 292.60 217.82 292.60 211.25 292.60 C 211.22 281.98 211.25 271.37 211.23 260.75 M 222.42 265.58 C 222.40 268.40 222.40 271.22 222.42 274.04 C 224.42 273.90 226.56 274.25 228.46 273.44 C 231.28 272.25 231.46 267.62 228.76 266.22 C 226.79 265.27 224.52 265.69 222.42 265.58 M 222.43 278.77 C 222.40 281.76 222.40 284.75 222.42 287.75 C 224.57 287.67 226.82 287.96 228.90 287.23 C 232.02 286.15 232.40 281.08 229.48 279.56 C 227.30 278.48 224.77 278.91 222.43 278.77 Z" />
<path fill="#000000" opacity="1.00" d=" M 246.08 292.61 C 250.95 281.97 255.66 271.25 260.70 260.68 C 264.55 260.77 268.39 260.72 272.23 260.73 C 277.10 271.34 281.93 281.97 286.76 292.59 C 283.07 292.60 279.39 292.61 275.70 292.58 C 275.00 290.85 274.30 289.13 273.60 287.41 C 268.82 287.39 264.03 287.41 259.25 287.39 C 258.54 289.08 257.86 290.78 257.22 292.50 C 253.51 292.70 249.79 292.57 246.08 292.61 M 261.51 281.63 C 264.76 281.68 268.01 281.68 271.25 281.66 C 269.72 277.52 268.06 273.43 266.56 269.28 C 264.49 273.22 263.26 277.54 261.51 281.63 Z" />
<path fill="#000000" opacity="1.00" d=" M 317.70 268.71 C 317.70 266.05 317.70 263.40 317.72 260.74 C 328.06 260.73 338.41 260.72 348.76 260.75 C 348.77 263.41 348.76 266.07 348.76 268.73 C 345.45 268.73 342.14 268.73 338.83 268.74 C 338.80 276.69 338.84 284.65 338.81 292.60 C 335.08 292.59 331.36 292.63 327.63 292.56 C 327.55 284.59 327.87 276.61 327.47 268.65 C 324.22 268.77 320.96 268.75 317.70 268.71 Z" />
<path fill="#000000" opacity="1.00" d=" M 371.32 292.61 C 371.34 281.97 371.15 271.32 371.42 260.67 C 374.68 260.75 377.95 260.74 381.22 260.72 C 384.49 264.95 387.49 269.38 390.83 273.55 C 393.96 269.29 397.13 265.05 400.24 260.77 C 403.59 260.71 406.94 260.72 410.29 260.74 C 410.31 271.35 410.27 281.95 410.31 292.55 C 406.59 292.64 402.87 292.58 399.15 292.62 C 399.18 286.96 399.38 281.30 399.36 275.65 C 396.24 279.24 393.70 283.28 390.78 287.03 C 387.85 283.19 385.14 279.19 382.16 275.40 C 382.22 281.13 382.35 286.86 382.43 292.59 C 378.72 292.61 375.02 292.59 371.32 292.61 Z" />
<path fill="#000000" opacity="1.00" d=" M 486.24 260.74 C 489.94 260.72 493.64 260.73 497.35 260.74 C 497.37 271.35 497.33 281.96 497.37 292.56 C 493.66 292.63 489.95 292.59 486.25 292.60 C 486.22 281.98 486.24 271.36 486.24 260.74 Z" />
<path fill="#000000" opacity="1.00" d=" M 505.36 292.60 C 505.41 281.96 505.23 271.32 505.45 260.69 C 509.14 260.76 512.83 260.73 516.52 260.74 C 516.54 265.52 516.52 270.31 516.52 275.10 C 520.98 270.37 524.98 265.23 529.56 260.63 C 533.35 260.81 537.14 260.70 540.93 260.74 C 536.71 265.76 532.24 270.56 528.03 275.59 C 532.47 281.25 537.04 286.81 541.35 292.58 C 536.98 292.62 532.60 292.58 528.23 292.62 C 524.27 287.68 520.49 282.59 516.54 277.65 C 516.51 282.63 516.54 287.61 516.52 292.59 C 512.80 292.60 509.08 292.60 505.36 292.60 Z" />
<path fill="#000000" opacity="1.00" d=" M 562.95 260.74 C 566.65 260.73 570.35 260.73 574.05 260.74 C 574.06 271.14 574.07 281.54 574.05 291.94 C 574.01 295.32 573.23 299.14 570.36 301.28 C 567.53 303.46 563.71 303.47 560.35 302.89 C 559.02 299.79 557.60 296.74 556.18 293.69 C 558.03 293.65 560.13 293.83 561.69 292.59 C 563.04 291.51 562.81 289.60 562.93 288.07 C 562.97 278.96 562.91 269.85 562.95 260.74 Z" />
<path fill="#000000" opacity="1.00" d=" M 648.12 260.75 C 658.47 260.72 668.82 260.73 679.17 260.74 C 679.17 263.40 679.18 266.06 679.17 268.72 C 675.86 268.74 672.56 268.73 669.25 268.73 C 669.26 276.62 669.14 284.52 669.32 292.41 C 665.59 292.81 661.84 292.50 658.10 292.63 C 658.00 284.66 658.09 276.70 658.05 268.74 C 654.74 268.73 651.43 268.73 648.13 268.74 C 648.11 266.07 648.11 263.41 648.12 260.75 Z" />
<path fill="#000000" opacity="1.00" d=" M 701.83 260.74 C 704.96 260.73 708.09 260.74 711.22 260.70 C 716.72 266.05 721.98 271.64 727.44 277.03 C 727.26 271.60 727.02 266.17 726.85 260.74 C 730.60 260.73 734.35 260.72 738.11 260.74 C 738.15 271.32 738.05 281.91 738.16 292.49 C 734.95 292.70 731.73 292.61 728.52 292.54 C 723.23 287.08 717.86 281.68 712.52 276.27 C 712.62 281.73 713.10 287.19 712.97 292.65 C 709.23 292.48 705.47 292.80 701.75 292.43 C 701.92 281.86 701.77 271.30 701.83 260.74 Z" />
<path fill="#000000" opacity="1.00" d=" M 745.12 260.74 C 748.84 260.72 752.56 260.73 756.29 260.74 C 756.42 267.02 756.05 273.32 756.47 279.59 C 756.77 283.14 760.71 285.23 763.94 284.12 C 766.62 283.47 768.01 280.59 768.01 278.02 C 768.16 272.26 768.00 266.50 768.06 260.74 C 771.78 260.73 775.50 260.73 779.23 260.74 C 779.19 266.82 779.33 272.91 779.16 278.99 C 779.09 283.14 777.34 287.41 773.88 289.85 C 769.88 292.71 764.70 293.18 759.94 292.87 C 755.67 292.52 751.12 291.27 748.19 287.94 C 746.01 285.54 745.12 282.24 745.14 279.05 C 745.07 272.95 745.14 266.84 745.12 260.74 Z" />
</g>
<g id="#fff200ff">
<path fill="#fff200" opacity="1.00" d=" M 86.59 70.07 C 122.72 70.09 158.85 70.00 194.98 70.14 C 206.03 70.35 217.09 70.37 228.11 71.37 C 236.12 72.10 243.85 74.64 251.26 77.69 C 263.07 82.63 272.96 92.15 278.12 103.90 C 282.13 113.03 282.25 123.58 279.37 133.06 C 276.55 142.36 270.03 150.30 261.91 155.53 C 263.62 157.99 265.89 159.99 267.74 162.35 C 284.52 182.39 293.89 207.98 296.41 233.84 C 266.06 233.75 235.71 233.83 205.36 233.80 C 203.37 218.14 202.85 201.45 194.49 187.53 C 190.38 180.49 182.76 175.79 174.60 175.46 C 174.58 194.91 174.59 214.35 174.59 233.79 C 145.23 233.72 115.86 233.98 86.50 233.66 C 86.71 179.13 86.52 124.60 86.59 70.07 M 92.38 75.99 C 92.44 126.64 92.42 177.30 92.39 227.96 C 117.85 228.04 143.31 227.99 168.77 227.98 C 168.77 208.48 168.76 188.97 168.77 169.47 C 174.82 169.32 181.08 169.72 186.57 172.49 C 194.27 176.15 199.62 183.39 202.85 191.09 C 207.71 202.76 209.40 215.45 210.35 227.97 C 236.83 228.03 263.31 228.01 289.79 227.98 C 285.90 200.37 273.45 173.51 252.55 154.71 C 257.43 151.66 262.50 148.73 266.36 144.37 C 273.90 136.40 276.73 124.76 275.08 114.06 C 273.68 105.37 268.67 97.62 262.34 91.67 C 254.08 83.91 242.98 80.12 232.11 77.79 C 219.15 75.93 206.01 76.25 192.95 75.97 C 159.43 75.87 125.90 75.74 92.38 75.99 Z" />
<path fill="#fff200" opacity="1.00" d=" M 310.23 70.07 C 339.57 70.06 368.90 70.06 398.23 70.07 C 398.23 120.50 398.25 170.93 398.22 221.37 C 396.29 222.12 394.33 222.81 392.39 223.53 C 392.43 174.31 392.42 125.10 392.40 75.88 C 366.95 75.86 341.51 75.86 316.07 75.88 C 316.04 126.58 316.06 177.29 316.06 227.99 C 337.33 228.05 358.60 227.91 379.87 228.07 C 374.46 230.02 369.07 232.04 363.59 233.80 C 345.81 233.80 328.02 233.80 310.24 233.80 C 310.23 179.22 310.24 124.65 310.23 70.07 Z" />
<path fill="#fff200" opacity="1.00" d=" M 409.62 70.06 C 441.80 70.09 473.98 70.04 506.16 70.08 C 507.53 69.82 508.31 71.07 509.15 71.88 C 517.07 80.54 525.07 89.13 533.04 97.73 C 541.44 88.52 549.80 79.28 558.19 70.07 C 590.48 70.07 622.77 70.05 655.06 70.08 C 639.93 86.65 625.07 103.47 609.78 119.89 C 603.63 124.07 597.27 127.94 590.92 131.81 C 599.46 123.37 607.13 114.07 615.32 105.29 C 624.19 95.49 633.08 85.71 641.92 75.89 C 614.91 75.83 587.90 75.91 560.89 75.85 C 551.52 85.92 542.39 96.21 533.07 106.33 C 523.65 96.21 514.29 86.05 504.90 75.90 C 477.59 75.84 450.27 75.86 422.96 75.89 C 446.12 100.95 469.36 125.93 492.52 150.98 C 476.72 168.30 461.13 185.84 445.12 202.97 C 441.02 204.68 436.88 206.31 432.76 207.97 C 450.22 189.15 467.32 169.99 484.65 151.03 C 459.65 124.02 434.60 97.07 409.62 70.06 Z" />
<path fill="#fff200" opacity="1.00" d=" M 168.77 102.47 C 175.86 102.50 183.29 102.25 189.92 105.20 C 201.83 110.18 202.38 130.15 190.65 135.67 C 183.91 139.02 176.18 138.62 168.87 138.77 C 168.64 126.67 168.82 114.57 168.77 102.47 M 174.59 108.33 C 174.59 116.51 174.57 124.70 174.60 132.89 C 180.41 132.46 187.65 132.59 191.54 127.48 C 194.09 122.99 193.92 116.52 190.48 112.51 C 186.21 108.66 180.00 108.70 174.59 108.33 Z" />
<path fill="#fff200" opacity="1.00" d=" M 640.18 122.27 C 659.43 122.26 678.68 122.28 697.93 122.26 C 697.95 127.57 697.94 132.88 697.94 138.20 C 686.61 138.20 675.28 138.19 663.95 138.20 C 663.93 141.38 663.93 144.55 663.96 147.73 C 675.29 147.73 686.61 147.73 697.94 147.74 C 697.94 153.05 697.95 158.36 697.93 163.67 C 686.60 163.66 675.27 163.66 663.95 163.67 C 663.93 172.20 663.95 180.73 663.94 189.26 C 656.02 189.27 648.09 189.28 640.18 189.26 C 640.18 166.93 640.17 144.60 640.18 122.27 M 644.66 126.74 C 644.69 146.08 644.54 165.43 644.73 184.77 C 649.64 184.65 654.55 184.84 659.46 184.64 C 659.35 176.14 659.44 167.65 659.41 159.15 C 670.76 159.10 682.11 159.16 693.46 159.12 C 693.50 156.80 693.47 154.48 693.38 152.16 C 682.11 152.28 670.83 152.10 659.56 152.25 C 659.32 146.06 659.27 139.84 659.59 133.65 C 670.91 133.70 682.26 133.94 693.57 133.53 C 693.48 131.27 693.45 129.00 693.45 126.74 C 677.19 126.72 660.92 126.72 644.66 126.74 Z" />
<path fill="#fff200" opacity="1.00" d=" M 708.56 122.40 C 715.24 122.10 721.93 122.33 728.62 122.28 C 736.62 129.73 744.54 137.25 752.62 144.61 C 760.48 137.11 768.53 129.79 776.41 122.31 C 783.08 122.24 789.76 122.24 796.44 122.31 C 796.38 144.63 796.43 166.95 796.41 189.26 C 788.49 189.27 780.57 189.27 772.65 189.26 C 772.63 177.25 772.68 165.24 772.63 153.23 C 766.67 158.69 760.85 164.29 754.94 169.79 C 753.34 169.80 751.77 169.80 750.20 169.81 C 744.24 164.29 738.35 158.69 732.41 153.14 C 732.41 165.18 732.42 177.22 732.41 189.26 C 724.49 189.27 716.57 189.27 708.65 189.26 C 708.58 166.98 708.77 144.69 708.56 122.40 M 713.18 126.75 C 713.18 146.08 713.16 165.40 713.19 184.73 C 718.10 184.73 723.01 184.72 727.93 184.74 C 727.98 170.76 727.90 156.79 727.96 142.82 C 735.80 150.09 743.53 157.50 751.39 164.76 C 752.52 166.30 753.90 164.63 754.80 163.80 C 762.23 156.79 769.65 149.77 777.14 142.83 C 777.23 156.80 777.14 170.77 777.19 184.73 C 782.10 184.73 787.01 184.72 791.92 184.74 C 791.97 165.41 791.94 146.07 791.94 126.74 C 787.92 126.74 783.90 126.70 779.88 126.72 C 778.40 126.39 777.40 127.56 776.44 128.43 C 768.56 135.91 760.51 143.20 752.67 150.73 C 743.93 142.91 735.47 134.76 726.88 126.78 C 722.31 126.68 717.74 126.73 713.18 126.75 Z" />
<path fill="#fff200" opacity="1.00" d=" M 579.23 145.28 C 584.14 142.73 589.02 140.12 593.93 137.57 C 590.04 141.92 586.09 146.23 582.19 150.58 C 608.04 178.30 633.86 206.04 659.67 233.79 C 627.13 233.82 594.59 233.77 562.05 233.82 C 552.59 223.89 543.26 213.86 533.83 203.92 C 524.77 213.85 515.75 223.83 506.72 233.80 C 474.30 233.80 441.89 233.80 409.47 233.80 C 415.77 226.91 421.94 219.89 428.36 213.12 C 432.53 211.39 436.75 209.81 440.93 208.11 C 434.54 214.45 428.74 221.38 422.62 227.98 C 449.78 228.02 476.94 228.00 504.11 227.99 C 514.00 217.12 523.84 206.19 533.75 195.34 C 543.78 205.95 553.77 216.61 563.80 227.22 C 565.46 228.68 568.01 227.76 570.04 228.02 C 595.46 227.96 620.88 228.03 646.31 227.99 C 622.32 202.20 598.35 176.41 574.30 150.68 C 575.90 148.84 577.48 146.98 579.23 145.28 Z" />
<path fill="#fff200" opacity="1.00" d=" M 372.67 233.96 C 381.19 230.86 389.80 227.98 398.24 224.66 C 398.23 227.71 398.23 230.75 398.23 233.80 C 389.71 233.89 381.18 233.61 372.67 233.96 Z" />
</g>
<g id="#ed1c24ff">
<path fill="#ed1c24" opacity="1.00" d=" M 92.38 75.99 C 125.90 75.74 159.43 75.87 192.95 75.97 C 206.01 76.25 219.15 75.93 232.11 77.79 C 242.98 80.12 254.08 83.91 262.34 91.67 C 268.67 97.62 273.68 105.37 275.08 114.06 C 276.73 124.76 273.90 136.40 266.36 144.37 C 262.50 148.73 257.43 151.66 252.55 154.71 C 273.45 173.51 285.90 200.37 289.79 227.98 C 263.31 228.01 236.83 228.03 210.35 227.97 C 209.40 215.45 207.71 202.76 202.85 191.09 C 199.62 183.39 194.27 176.15 186.57 172.49 C 181.08 169.72 174.82 169.32 168.77 169.47 C 168.76 188.97 168.77 208.48 168.77 227.98 C 143.31 227.99 117.85 228.04 92.39 227.96 C 92.42 177.30 92.44 126.64 92.38 75.99 M 168.77 102.47 C 168.82 114.57 168.64 126.67 168.87 138.77 C 176.18 138.62 183.91 139.02 190.65 135.67 C 202.38 130.15 201.83 110.18 189.92 105.20 C 183.29 102.25 175.86 102.50 168.77 102.47 Z" />
<path fill="#ed1c24" opacity="1.00" d=" M 316.07 75.88 C 341.51 75.86 366.95 75.86 392.40 75.88 C 392.42 125.10 392.43 174.31 392.39 223.53 C 388.22 225.06 384.08 226.66 379.87 228.07 C 358.60 227.91 337.33 228.05 316.06 227.99 C 316.06 177.29 316.04 126.58 316.07 75.88 Z" />
<path fill="#ed1c24" opacity="1.00" d=" M 422.96 75.89 C 450.27 75.86 477.59 75.84 504.90 75.90 C 514.29 86.05 523.65 96.21 533.07 106.33 C 542.39 96.21 551.52 85.92 560.89 75.85 C 587.90 75.91 614.91 75.83 641.92 75.89 C 633.08 85.71 624.19 95.49 615.32 105.29 C 607.13 114.07 599.46 123.37 590.92 131.81 C 544.44 159.60 495.15 182.38 445.12 202.97 C 461.13 185.84 476.72 168.30 492.52 150.98 C 469.36 125.93 446.12 100.95 422.96 75.89 Z" />
<path fill="#ed1c24" opacity="1.00" d=" M 644.66 126.74 C 660.92 126.72 677.19 126.72 693.45 126.74 C 693.45 129.00 693.48 131.27 693.57 133.53 C 682.26 133.94 670.91 133.70 659.59 133.65 C 659.27 139.84 659.32 146.06 659.56 152.25 C 670.83 152.10 682.11 152.28 693.38 152.16 C 693.47 154.48 693.50 156.80 693.46 159.12 C 682.11 159.16 670.76 159.10 659.41 159.15 C 659.44 167.65 659.35 176.14 659.46 184.64 C 654.55 184.84 649.64 184.65 644.73 184.77 C 644.54 165.43 644.69 146.08 644.66 126.74 Z" />
<path fill="#ed1c24" opacity="1.00" d=" M 713.18 126.75 C 717.74 126.73 722.31 126.68 726.88 126.78 C 735.47 134.76 743.93 142.91 752.67 150.73 C 760.51 143.20 768.56 135.91 776.44 128.43 C 777.40 127.56 778.40 126.39 779.88 126.72 C 783.90 126.70 787.92 126.74 791.94 126.74 C 791.94 146.07 791.97 165.41 791.92 184.74 C 787.01 184.72 782.10 184.73 777.19 184.73 C 777.14 170.77 777.23 156.80 777.14 142.83 C 769.65 149.77 762.23 156.79 754.80 163.80 C 753.90 164.63 752.52 166.30 751.39 164.76 C 743.53 157.50 735.80 150.09 727.96 142.82 C 727.90 156.79 727.98 170.76 727.93 184.74 C 723.01 184.72 718.10 184.73 713.19 184.73 C 713.16 165.40 713.18 146.08 713.18 126.75 Z" />
<path fill="#ed1c24" opacity="1.00" d=" M 440.93 208.11 C 487.91 189.18 534.20 168.49 579.23 145.28 C 577.48 146.98 575.90 148.84 574.30 150.68 C 598.35 176.41 622.32 202.20 646.31 227.99 C 620.88 228.03 595.46 227.96 570.04 228.02 C 568.01 227.76 565.46 228.68 563.80 227.22 C 553.77 216.61 543.78 205.95 533.75 195.34 C 523.84 206.19 514.00 217.12 504.11 227.99 C 476.94 228.00 449.78 228.02 422.62 227.98 C 428.74 221.38 434.54 214.45 440.93 208.11 Z" />
</g>
</svg>
