<?xml version="1.0" encoding="UTF-8" standalone="no"?>
<!-- Created with Inkscape (http://www.inkscape.org/) -->

<svg
   xmlns:dc="http://purl.org/dc/elements/1.1/"
   xmlns:cc="http://creativecommons.org/ns#"
   xmlns:rdf="http://www.w3.org/1999/02/22-rdf-syntax-ns#"
   xmlns:svg="http://www.w3.org/2000/svg"
   xmlns="http://www.w3.org/2000/svg"
   xmlns:sodipodi="http://sodipodi.sourceforge.net/DTD/sodipodi-0.dtd"
   xmlns:inkscape="http://www.inkscape.org/namespaces/inkscape"
   version="1.1"
   width="1228.0239"
   height="1159.9261"
   id="svg2"
   inkscape:version="0.48.1 "
   sodipodi:docname="MTV.svg"
   inkscape:export-filename="C:\Users\Christopher\Desktop\svgs\S19.2E-1-1078-28673.png"
   inkscape:export-xdpi="5.8800001"
   inkscape:export-ydpi="5.8800001">
  <metadata
     id="metadata10">
    <rdf:RDF>
      <cc:Work
         rdf:about="">
        <dc:format>image/svg+xml</dc:format>
        <dc:type
           rdf:resource="http://purl.org/dc/dcmitype/StillImage" />
        <dc:title></dc:title>
      </cc:Work>
    </rdf:RDF>
  </metadata>
  <sodipodi:namedview
     pagecolor="#ffffff"
     bordercolor="#666666"
     borderopacity="1"
     objecttolerance="10"
     gridtolerance="10"
     guidetolerance="10"
     inkscape:pageopacity="0"
     inkscape:pageshadow="2"
     inkscape:window-width="1680"
     inkscape:window-height="988"
     id="namedview8"
     showgrid="false"
     fit-margin-top="0"
     fit-margin-left="0"
     fit-margin-right="0"
     fit-margin-bottom="0"
     inkscape:zoom="0.34485569"
     inkscape:cx="1083.0382"
     inkscape:cy="303.54022"
     inkscape:window-x="-8"
     inkscape:window-y="-8"
     inkscape:window-maximized="1"
     inkscape:current-layer="layer1" />
  <defs
     id="defs4" />
  <g
     transform="translate(814.77537,61.618986)"
     id="layer1">
    <path
       style="fill:#61bc47;fill-opacity:1;stroke:none"
       d="m -4.5308807,1126.6589 0,-287.11447 c 0,-20.87422 18.8625767,-29.21881 29.9051077,-29.21881 l 1168.239673,0 c 13.6699,0 27.4246,11.45231 27.4246,27.16837 l 0,291.41911 c 0,15.472 -13.5938,31.013 -30.244,31.013 l -1168.752243,0 c -11.790228,0 -26.5731377,-16.7853 -26.5731377,-33.2672 z"
       id="path3790"
       inkscape:connector-curvature="0"
       transform="translate(-810.24449,-61.618986)"
       sodipodi:nodetypes="ccccccccc" />
    <path
       d="m -810.24449,316.82196 0,-378.316906 207.94019,-0.002 207.94014,-0.002 72.53073,75.99683 72.53073,75.99683 59.81587,-61.23792 c 32.89876,-33.6808497 65.05269,-67.90643 71.45322,-76.05685 l 11.6373,-14.81893 210.18508,1.40344 210.18509,1.40344 1.42107,159.434506 1.42108,159.43449 -16.26591,26.43551 c -19.65584,31.94481 -67.64499,132.75495 -72.60668,152.52375 -1.96065,7.8118 -7.07126,17.1134 -11.35692,20.6702 -13.97019,11.5943 -21.34125,-5.9225 -28.50411,-67.73789 -10.65351,-91.93967 -25.14487,-115.58477 -66.12663,-107.89656 -35.763226,6.70924 -48.871446,36.11985 -38.522206,86.43177 9.43818,45.88318 85.567876,243.77878 98.915596,257.12648 16.00591,16.0059 56.50171,15.6633 69.66236,-0.5894 5.24315,-6.4751 20.80437,-46.9228 34.58052,-89.8838 13.7761,-42.9611 26.17642,-78.111 27.55623,-78.111 1.37976,0 2.5087,53.1253 2.5087,118.0563 l 0,118.0563 -131.08568,0 -131.085726,0 -2.8575,-28.1725 c -1.57165,-15.4949 -4.27847,-108.2857 -6.01513,-206.2017 l -3.15763,-178.02914 55.56123,-32.47568 c 66.426316,-38.82634 81.837936,-53.34733 77.014796,-72.56426 -4.33669,-17.27865 -31.6676,-32.0238 -50.56605,-27.2806 -7.67318,1.92585 -22.80833,11.50338 -33.633656,21.28339 -10.82529,9.78002 -31.3834,24.63911 -45.68464,33.02019 -21.75789,12.751 -31.01259,14.99004 -56.69731,13.71712 -37.12866,-1.84007 -52.7927,9.67481 -52.7927,38.80875 0,17.58773 -2.23201,19.54961 -63.137814,55.49644 -34.72579,20.49529 -75.59131,41.40057 -90.81232,46.45618 -15.22106,5.05561 -30.57707,12.68929 -34.12456,16.96374 -10.19379,12.28274 -7.54868,33.96349 5.8886,48.26687 18.33629,19.518 46.36201,17.8534 75.79265,-4.5019 93.628714,-71.11966 118.818764,-82.04427 125.725494,-54.52564 1.89089,7.53381 1.6603,84.80704 -0.51247,171.71824 l -3.95011,158.0205 -34.15231,0 -34.152254,0 -1.45499,-104.3595 -1.45499,-104.3595 -63.47105,53.4388 c -34.90905,29.3915 -65.63251,52.1031 -68.27424,50.4704 -2.64178,-1.6327 -32.03475,-25.9498 -65.3177,-54.038 l -60.51447,-51.0695 -1.45499,104.9587 -1.45499,104.9586 -214.53444,0 -214.5345,0 0,-378.31685 0,2.6e-4 z m 456.12681,305.87325 c 0,-39.844 1.47597,-72.4437 3.27993,-72.4437 1.80395,0 15.08529,9.884 29.51408,21.9645 l 26.23416,21.9645 0,50.4792 0,50.4791 -29.51409,0 -29.51408,0 0,-72.4436 z m 697.60562,-82.3572 0,-154.8009 29.90641,-47.77307 c 16.44852,-26.27519 32.14465,-50.06712 34.88028,-52.87095 3.05648,-3.13272 4.97387,74.95719 4.97387,202.57392 l 0,207.6718 -34.88028,0 -34.88028,0 0,-154.8008 z m -523.20421,34.1572 c 14.75704,-13.1072 34.7074,-29.15724 34.6437,-26.94169 -0.35334,12.28941 3.42971,50.98333 -3.42494,50.99411 -10.31109,0.0162 -20.20465,-0.05 -33.63355,-0.11072 l -24.4162,-0.1105 26.83099,-23.8314 0,2e-4 z M 343.48794,81.782524 c 0,-75.8511997 1.49524,-137.91127 3.3227,-137.91127 1.82746,0 17.52358,8.6266 34.88028,19.17022 l 31.55758,19.17022 0,75.48243 0,75.482406 -30.56623,38.16074 c -16.81144,20.98841 -32.50756,40.45479 -34.88028,43.25863 -2.37272,2.80384 -4.31405,-56.96218 -4.31405,-132.813376 z M -300.45571,-5.1498757 c -27.9218,-28.0383803 -49.27102,-50.9788703 -47.44272,-50.9788703 5.76066,0 130.58384,58.0973505 135.4366,62.9077705 4.14947,4.1132795 -27.53117,39.0494295 -34.43789,39.0498295 -1.53398,8e-5 -25.63422,-22.94035 -53.55599,-50.9787297 z"
       id="path2848"
       style="fill:#000000"
       inkscape:connector-curvature="0" />
    <path
       style="fill:#000000;fill-opacity:1;stroke:none"
       d="m 75.745559,1008.2036 c -8.84252,-5.3556 -7.84522,-18.69587 -0.0331,-24.45697 6.53429,-6.4525 14.21886,-0.2493 19.73343,4.0671 10.230521,7.0452 24.287461,12.92027 36.090121,6.0167 9.71282,-4.2979 16.25822,-14.8261 14.41305,-25.5085 -0.61206,-13.4794 -11.70865,-23.2197 -23.22794,-28.38668 -17.33767,-7.93337 -34.199001,-18.09404 -47.070101,-32.36434 -6.35921,-7.07467 -10.56054,-16.48681 -9.29888,-26.13168 -0.93332,-25.21861 15.98406,-50.89709 40.943381,-57.11825 9.3323,-2.24809 18.92562,0.31575 28.28351,1.15694 12.68563,1.97337 25.1493,8.09423 33.24172,18.217 6.25284,9.32847 -3.23828,24.20928 -14.49497,20.62981 -9.24248,-3.41536 -15.20897,-13.57717 -25.83577,-13.96208 -11.37121,-1.72182 -25.19709,1.58495 -30.266751,13.03825 -3.19325,7.27711 -4.28056,16.23885 -1.1431,23.66572 7.385251,10.83701 19.859841,16.50285 30.916001,22.86892 15.04141,7.60696 31.61673,15.17979 40.35306,30.46027 8.98039,14.65922 6.57891,33.14822 1.15826,48.59152 -6.70308,18.82597 -25.1019,33.48977 -45.4789,33.22567 -17.0159,0.7054 -34.408481,-4.0213 -48.283011,-14.0094 z"
       id="path3768"
       inkscape:connector-curvature="0" />
    <path
       style="fill:#000000;fill-opacity:1;stroke:none"
       d="m -244.41875,970.45997 0,-101.24063 c 6.52447,-34.22023 37.61601,-47.41649 47.41649,-47.41649 5.72602,-0.41409 11.46563,-0.73306 17.42876,0.51261 25.4019,3.89656 35.05572,12.57435 43.66252,22.73344 4.34304,5.11487 -7.00353,24.76332 -20.99928,17.3226 -13.32048,-8.20499 -17.83067,-13.86176 -31.69879,-13.47536 -14.81033,-2.04314 -25.55898,14.80318 -25.82198,22.62994 l 0,99.44649 c 1.51416,11.1085 3.70562,21.96159 25.63054,25.37423 19.77503,1.5479 26.21758,-14.49873 37.67688,-15.12203 10.23738,0.074 15.14996,10.83229 15.37832,16.14723 0,15.7032 -37.24974,26.1432 -49.46693,26.1432 -5.24831,0.037 -10.75438,0.3313 -14.86571,-0.7689 -39.26448,-6.6769 -44.34082,-50.21823 -44.34082,-52.28633 z"
       id="path3773"
       inkscape:connector-curvature="0"
       sodipodi:nodetypes="ccccccccccccccc" />
    <path
       style="fill:#000000;fill-opacity:1;stroke:none"
       d="m 242.34375,888.125 c -8.65089,0 -11.65625,5.64883 -11.65625,11.65625 l 0,169.15625 c 0,16.5442 28.9375,16.4136 28.9375,-0.25 l 0,-44.3437 c 0,-3.1163 0.6304,-6.1563 6.9375,-6.1563 l 12.3125,0 c 4.86028,0 5.39706,1.7297 6.90625,4.3437 l 29.46875,55.625 c 6.57661,11.391 31.00337,-1.858 23.34375,-15.125 l -25.375,-46.125 c -1.3588,-2.3534 -2.6489,-5.125 0,-5.125 7.58356,0 32.28125,-25.29741 32.28125,-43.81245 l 0,-30.53125 c 0,-15.93813 -20.53388,-49.3125 -55.625,-49.3125 l -47.53125,0 z m 24.71875,26.25 23.96875,0 c 15.70871,0 24.34375,18.90435 24.34375,31.15625 l 0,15.5 c 0,19.64742 -14.38977,30.25 -27.03125,30.25 l -15.90625,0 c -9.18876,0 -13.4375,-2.24895 -13.4375,-9.625 l 0,-61 c 0,-6.15765 6.6789,-6.28125 8.0625,-6.28125 z"
       transform="translate(-810.24449,-61.618986)"
       id="path3778"
       inkscape:connector-curvature="0" />
    <path
       style="fill:#000000;fill-opacity:1;stroke:none"
       d="m 449.65625,883.8125 c -30.77879,0 -51.46875,33.80057 -51.46875,54.375 l -0.1875,91.5 c 0,21.8708 21.97367,54.75 48.75,54.75 l 15.59375,0 c 27.85711,0 50.5625,-29.2822 50.5625,-54.1875 l 0,-95.875 c -1.79189,-27.27176 -30.52498,-50.5625 -52.21875,-50.5625 l -11.03125,0 z m 5.78125,27.53125 c 13.34685,10e-4 28.09375,7.08377 28.09375,28.09375 l 0,91.5313 c 0.0304,14.3978 -12.30063,27.7187 -28.625,27.7187 -14.3001,0 -27.79735,-10.4122 -28.09375,-31.3437 l 0,-84.4688 c 0.3225,-25.31453 14.58552,-31.53125 28.625,-31.53125 z"
       transform="translate(-810.24449,-61.618986)"
       id="path3782"
       inkscape:connector-curvature="0" />
    <path
       style="fill:#000000;fill-opacity:1;stroke:none"
       d="m 728.56562,1069.2073 0,-170.5423 c 0,-13.06379 29.90382,-13.31141 29.90382,0 l 0,63.7948 c 0,3.3732 2.32919,6.38854 6.56977,6.38854 l 5.21052,-0.0453 c 2.83368,0 4.95828,-3.33565 6.16199,-5.79953 l 34.79717,-74.30644 c 5.46252,-9.46136 28.55679,0.9778 22.1107,12.14276 l -34.61593,78.11238 c -1.13268,2.61894 -1.73746,4.99271 -0.54371,7.97435 l 36.97198,78.47484 c 5.78894,12.2213 -17.83679,24.1937 -22.83296,14.4302 l -37.88083,-79.1312 c -1.56582,-2.94298 -4.20469,-3.62466 -7.61188,-3.62466 -8.54868,0 -8.33682,2.53839 -8.33682,5.25576 l 0,69.2319 c 0,12.961 -29.90382,15.2781 -29.90382,-2.3561 z"
       id="path3786"
       inkscape:connector-curvature="0"
       transform="translate(-810.24449,-61.618986)"
       sodipodi:nodetypes="cccccccccccccccccc" />
  </g>
</svg>
