<?xml version="1.0" encoding="UTF-8" standalone="no"?>
<!-- Created with Inkscape (http://www.inkscape.org/) -->

<svg
   xmlns:dc="http://purl.org/dc/elements/1.1/"
   xmlns:cc="http://creativecommons.org/ns#"
   xmlns:rdf="http://www.w3.org/1999/02/22-rdf-syntax-ns#"
   xmlns:svg="http://www.w3.org/2000/svg"
   xmlns="http://www.w3.org/2000/svg"
   xmlns:sodipodi="http://sodipodi.sourceforge.net/DTD/sodipodi-0.dtd"
   xmlns:inkscape="http://www.inkscape.org/namespaces/inkscape"
   width="637.48914"
   height="130.86116"
   id="svg3007"
   version="1.1"
   inkscape:version="0.48.2 r9819"
   sodipodi:docname="SWRRPkurz_Logo.svg">
  <defs
     id="defs3009">
    <inkscape:perspective
       sodipodi:type="inkscape:persp3d"
       inkscape:vp_x="0 : 526.18109 : 1"
       inkscape:vp_y="0 : 1000 : 0"
       inkscape:vp_z="744.09448 : 526.18109 : 1"
       inkscape:persp3d-origin="372.04724 : 350.78739 : 1"
       id="perspective3015" />
    <inkscape:perspective
       id="perspective2995"
       inkscape:persp3d-origin="0.5 : 0.33333333 : 1"
       inkscape:vp_z="1 : 0.5 : 1"
       inkscape:vp_y="0 : 1000 : 0"
       inkscape:vp_x="0 : 0.5 : 1"
       sodipodi:type="inkscape:persp3d" />
  </defs>
  <sodipodi:namedview
     id="base"
     pagecolor="#ffffff"
     bordercolor="#666666"
     borderopacity="1.0"
     inkscape:pageopacity="0.0"
     inkscape:pageshadow="2"
     inkscape:zoom="1.3088631"
     inkscape:cx="318.74457"
     inkscape:cy="65.43058"
     inkscape:document-units="px"
     inkscape:current-layer="layer1"
     showgrid="false"
     inkscape:window-width="1280"
     inkscape:window-height="753"
     inkscape:window-x="-4"
     inkscape:window-y="-4"
     inkscape:window-maximized="1" />
  <metadata
     id="metadata3012">
    <rdf:RDF>
      <cc:Work
         rdf:about="">
        <dc:format>image/svg+xml</dc:format>
        <dc:type
           rdf:resource="http://purl.org/dc/dcmitype/StillImage" />
        <dc:title />
      </cc:Work>
    </rdf:RDF>
  </metadata>
  <g
     inkscape:label="Ebene 1"
     inkscape:groupmode="layer"
     id="layer1"
     transform="translate(-44.112564,-449.78874)">
    <g
       transform="translate(-100.18632,15.016553)"
       id="g2978"
       style="fill:#000000;stroke:#000000">
      <path
         id="_47386248"
         style="fill:#000000;fill-rule:evenodd;stroke:#000000"
         d="m 408.81308,477.64298 c 0,-9.23759 -5.43657,-14.8164 -18.23829,-14.8164 -2.80547,0 -5.96191,0.17538 -7.54033,0.34976 l 2e-4,30.15399 c 1.40264,0.17399 4.20872,0.34838 6.83881,0.34838 11.57427,-2e-4 18.93961,-6.1004 18.93961,-16.03553 l 0,-2e-4 z m 36.41508,81.40649 -33.09794,0 -28.04348,-46.02365 -1.05208,0 0,46.02365 -27.2253,0 0,-117.75372 c 9.94744,-0.69993 22.68706,-0.87531 36.86999,-0.87531 27.8302,0 44.05956,9.97779 44.05956,34.95689 2e-4,15.86114 -9.77027,28.75968 -25.48162,32.59422 3.14195,4.5315 6.10952,8.8894 9.07728,13.24672 l 24.89359,37.8312 0,0 z" />
      <path
         id="_47674960"
         style="fill:#000000;fill-rule:evenodd;stroke:#000000"
         d="m 172.18711,560.82886 c -8.18809,0 -16.76284,-0.87472 -24.25437,-2.62415 l 1.20584,-25.80064 c 6.62038,2.44302 16.60234,4.97987 25.14376,4.97987 9.98771,0 17.17232,-4.18808 17.17232,-12.56424 0,-20.06768 -46.253,-10.12639 -47.14537,-49.20886 -0.50531,-22.13414 17.42468,-36.75532 46.9694,-36.75532 6.27359,0 14.11349,0.69616 21.43083,2.08809 l -0.0565,24.03256 c -6.62038,-1.91946 -15.44928,-3.67583 -22.42538,-3.67583 -11.38936,0 -16.82255,4.88742 -16.82255,11.51871 0,18.32181 47.14497,11.34254 47.14497,48.16174 0,22.87712 -18.29384,39.84807 -48.36291,39.84807 l 0,0 0,0 z" />
      <polygon
         transform="matrix(1.9839322,0,0,1.9839322,134.38963,418.48232)"
         id="_159878992"
         style="fill:#000000;fill-rule:evenodd;stroke:#000000"
         points="108.261,11.5056 94.4367,11.5056 94.4367,11.5056 88.4544,48.2621 82.4724,11.5056 79.3353,11.5056 71.7915,11.5056 68.6546,11.5056 62.6724,48.2621 56.6902,11.5056 42.8657,11.5056 53.3575,70.8816 58.1628,70.8816 67.182,70.8816 68.8436,70.8816 75.5633,32.7718 82.2833,70.8816 83.9448,70.8816 92.964,70.8816 97.7694,70.8816 " />
      <polygon
         transform="matrix(1.9839322,0,0,1.9839322,134.38963,418.48232)"
         id="_47267192"
         style="fill:#000000;fill-rule:evenodd;stroke:#000000"
         points="166.761,52.7142 166.761,74.1714 199.471,41.1911 166.761,8.2109 166.761,8.2109 166.761,29.6681 178.284,41.1911 " />
      <polygon
         transform="matrix(1.9839322,0,0,1.9839322,134.38963,418.48232)"
         id="_46559656"
         style="fill:#000000;fill-rule:evenodd;stroke:#000000"
         points="196.151,52.7142 196.151,74.1714 228.861,41.1911 196.151,8.2109 196.151,8.2109 196.151,29.6681 207.674,41.1911 " />
      <path
         sodipodi:nodetypes="cccccsssccccsssccc"
         style="font-size:183.06677246000001000px;font-style:normal;font-variant:normal;font-weight:bold;font-stretch:normal;text-align:start;line-height:100%;writing-mode:lr-tb;text-anchor:start;fill:#000000;fill-opacity:1;stroke:#000000;stroke-width:7.85136365999999870;stroke-linecap:butt;stroke-linejoin:miter;stroke-miterlimit:4;stroke-opacity:1;font-family:Segoe Media Center Semibold;-inkscape-font-specification:Segoe Media Center Semibold Bold"
         d="m 702.42922,445.01112 0,110.38253 18.78333,0 0,-39.72027 13.43996,0 c 13.00911,4e-5 23.47789,-3.3968 31.37828,-10.19587 7.90022,-6.79894 11.83139,-15.5525 11.83157,-26.22573 -9e-5,-10.92964 -3.46185,-19.37368 -10.41396,-25.3261 -6.95239,-5.95224 -16.98067,-8.91446 -30.04241,-8.91456 l -34.97677,0 z m 18.78333,15.45736 12.97656,0 c 7.74223,10e-5 13.66635,1.68249 17.77465,5.04342 4.1081,3.3611 6.16106,8.15807 6.16114,14.3669 -8e-5,6.67079 -2.19864,11.71955 -6.5701,15.1575 -4.37159,3.43804 -10.44322,5.15249 -18.23806,5.15245 l -12.10419,0 0,-39.72027 z"
         id="path3575" />
      <path
         d="m 652.81308,477.64298 c 0,-9.23759 -5.43657,-14.8164 -18.23829,-14.8164 -2.80547,0 -5.96191,0.17538 -7.54033,0.34976 l 2e-4,30.15399 c 1.40264,0.17399 4.20872,0.34838 6.83881,0.34838 11.57427,-2e-4 18.93961,-6.1004 18.93961,-16.03553 l 0,-2e-4 z m 36.41508,81.40649 -33.09794,0 -28.04348,-46.02365 -1.05208,0 0,46.02365 -27.2253,0 0,-117.75372 c 9.94744,-0.69993 22.68706,-0.87531 36.86999,-0.87531 27.8302,0 44.05956,9.97779 44.05956,34.95689 2e-4,15.86114 -9.77027,28.75968 -25.48162,32.59422 3.14195,4.5315 6.10952,8.8894 9.07728,13.24672 l 24.89359,37.8312 0,0 z"
         style="fill:#000000;fill-rule:evenodd;stroke:#000000"
         id="path2976" />
    </g>
  </g>
</svg>
