<?xml version="1.0" encoding="UTF-8" standalone="yes"?>
<svg xmlns="http://www.w3.org/2000/svg" xmlns:xlink="http://www.w3.org/1999/xlink" width="518.6666666666666px" height="106.66666666666666px" viewBox="0 0 389 80" version="1.1">
  <g id="surface1">
    <path style="fill-rule:evenodd;fill:rgb(0%,0%,0%);fill-opacity:1;stroke-width:1;stroke-linecap:butt;stroke-linejoin:miter;stroke:rgb(0%,0%,0%);stroke-opacity:1;stroke-miterlimit:4;" d="M 408.811496 477.641425 C 408.811496 468.404902 403.374378 462.827167 390.574762 462.827167 C 387.76665 462.827167 384.613121 462.999873 383.033159 463.178974 L 383.033159 493.332001 C 384.440413 493.504707 387.242128 493.677412 389.871135 493.677412 C 401.448998 493.677412 408.811496 487.575166 408.811496 477.641425 Z M 445.227397 559.049482 L 412.131337 559.049482 L 384.088599 513.026777 L 383.033159 513.026777 L 383.033159 559.049482 L 355.809187 559.049482 L 355.809187 441.296601 C 365.755915 440.592988 378.497962 440.420283 392.679246 440.420283 C 420.510896 440.420283 436.739095 450.398798 436.739095 475.37707 C 436.739095 491.240351 426.971472 504.135664 411.255001 507.973554 C 414.402134 512.502265 417.363764 516.858271 420.331791 521.220673 Z M 445.227397 559.049482 " transform="matrix(0.610675,0,0,0.610687,-88.119727,-265.509733)"/>
    <path style="fill-rule:evenodd;fill:rgb(0%,0%,0%);fill-opacity:1;stroke-width:1;stroke-linecap:butt;stroke-linejoin:miter;stroke:rgb(0%,0%,0%);stroke-opacity:1;stroke-miterlimit:4;" d="M 172.188103 560.827705 C 164.000442 560.827705 155.422589 559.951386 147.932158 558.205146 L 149.141118 532.401728 C 155.761609 534.845185 165.74032 537.384589 174.279795 537.384589 C 184.271299 537.384589 191.454692 533.194892 191.454692 524.821894 C 191.454692 504.749726 145.200806 514.696259 144.311677 475.61374 C 143.806345 453.475507 161.736043 438.853144 191.275587 438.853144 C 197.550661 438.853144 205.392905 439.550361 212.710627 440.944794 L 212.653057 464.976386 C 206.032566 463.057441 197.205244 461.298408 190.226543 461.298408 C 178.840577 461.298408 173.403459 466.185322 173.403459 472.818476 C 173.403459 491.138007 220.552871 484.159443 220.552871 520.977607 C 220.552871 543.857832 202.258566 560.827705 172.188103 560.827705 Z M 172.188103 560.827705 " transform="matrix(0.610675,0,0,0.610687,-88.119727,-265.509733)"/>
    <path style="fill-rule:evenodd;fill:rgb(0%,0%,0%);fill-opacity:1;stroke-width:1;stroke-linecap:butt;stroke-linejoin:miter;stroke:rgb(0%,0%,0%);stroke-opacity:1;stroke-miterlimit:4;" d="M 108.259685 11.505975 L 94.437506 11.505975 L 88.453376 48.261224 L 82.47247 11.505975 L 68.653515 11.505975 L 62.67261 48.261224 L 56.691704 11.505975 L 42.8663 11.505975 L 53.357873 70.881823 L 68.843744 70.881823 L 75.562993 32.772433 L 82.282242 70.881823 L 97.768113 70.881823 Z M 108.259685 11.505975 " transform="matrix(1.211538,0,0,1.211562,-6.051334,-9.94801)"/>
    <path style="fill-rule:evenodd;fill:rgb(0%,0%,0%);fill-opacity:1;stroke-width:1;stroke-linecap:butt;stroke-linejoin:miter;stroke:rgb(0%,0%,0%);stroke-opacity:1;stroke-miterlimit:4;" d="M 166.759714 52.713768 L 166.759714 74.17045 L 199.472527 41.190675 L 166.759714 8.210899 L 166.759714 29.667582 L 178.283033 41.190675 Z M 166.759714 52.713768 " transform="matrix(1.211538,0,0,1.211562,-6.051334,-9.94801)"/>
    <path style="fill-rule:evenodd;fill:rgb(0%,0%,0%);fill-opacity:1;stroke-width:1;stroke-linecap:butt;stroke-linejoin:miter;stroke:rgb(0%,0%,0%);stroke-opacity:1;stroke-miterlimit:4;" d="M 196.151593 52.713768 L 196.151593 74.17045 L 228.861182 41.190675 L 196.151593 8.210899 L 196.151593 29.667582 L 207.674912 41.190675 Z M 196.151593 52.713768 " transform="matrix(1.211538,0,0,1.211562,-6.051334,-9.94801)"/>
    <path style="fill-rule:nonzero;fill:rgb(0%,0%,0%);fill-opacity:1;stroke-width:7.851364;stroke-linecap:butt;stroke-linejoin:miter;stroke:rgb(0%,0%,0%);stroke-opacity:1;stroke-miterlimit:4;" d="M 702.428684 445.012958 L 702.428684 555.390693 L 721.215527 555.390693 L 721.215527 515.674921 L 734.654805 515.674921 C 747.659113 515.674921 758.130363 512.278388 766.030176 505.478925 C 773.929989 498.679462 777.863904 489.922675 777.863904 479.253339 C 777.863904 468.321748 774.403339 459.878388 767.450224 453.923261 C 760.497109 447.974531 750.467224 445.012958 737.405347 445.012958 Z M 721.215527 460.466865 L 734.187852 460.466865 C 741.934147 460.466865 747.857407 462.14914 751.964031 465.513691 C 756.070655 468.871845 758.123966 473.669208 758.123966 479.880195 C 758.123966 486.551728 755.923533 491.598554 751.554648 495.033466 C 747.185763 498.474775 741.108984 500.189033 733.317913 500.189033 L 721.215527 500.189033 Z M 721.215527 460.466865 " transform="matrix(0.610675,0,0,0.610687,-88.119727,-265.509733)"/>
    <path style="fill-rule:evenodd;fill:rgb(0%,0%,0%);fill-opacity:1;stroke-width:1;stroke-linecap:butt;stroke-linejoin:miter;stroke:rgb(0%,0%,0%);stroke-opacity:1;stroke-miterlimit:4;" d="M 652.810181 477.641425 C 652.810181 468.404902 647.379459 462.827167 634.573446 462.827167 C 631.771731 462.827167 628.611806 462.999873 627.031843 463.178974 L 627.031843 493.332001 C 628.439097 493.504707 631.240812 493.677412 633.876216 493.677412 C 645.447683 493.677412 652.810181 487.575166 652.810181 477.641425 Z M 689.226081 559.049482 L 656.130022 559.049482 L 628.087284 513.026777 L 627.031843 513.026777 L 627.031843 559.049482 L 599.807871 559.049482 L 599.807871 441.296601 C 609.7546 440.592988 622.496647 440.420283 636.677931 440.420283 C 664.50958 440.420283 680.73778 450.398798 680.73778 475.37707 C 680.73778 491.240351 670.970156 504.135664 655.260083 507.973554 C 658.400818 512.502265 661.368845 516.858271 664.336872 521.220673 Z M 689.226081 559.049482 " transform="matrix(0.610675,0,0,0.610687,-88.119727,-265.509733)"/>
  </g>
</svg>