<?xml version="1.0" encoding="UTF-8" standalone="no"?>
<!-- Created with Inkscape (http://www.inkscape.org/) -->
<svg
   xmlns:svg="http://www.w3.org/2000/svg"
   xmlns="http://www.w3.org/2000/svg"
   version="1.0"
   width="744.09448"
   height="833.74011"
   id="svg26043">
  <defs
     id="defs26045">
    <linearGradient
       id="linearGradient5905">
      <stop
         style="stop-color:#eb008b;stop-opacity:1"
         offset="0"
         id="stop5907" />
      <stop
         style="stop-color:white;stop-opacity:1"
         offset="0.49565217"
         id="stop5913" />
      <stop
         style="stop-color:#eb008b;stop-opacity:1"
         offset="1"
         id="stop5909" />
    </linearGradient>
  </defs>
  <g
     transform="translate(-469.4817,560.0896)"
     id="g13912">
    <path
       d="M 524.03726,-226.59791 C 524.03726,-400.98398 665.50788,-542.45461 839.89414,-542.45461 C 1014.4981,-542.45461 1155.7508,-400.98398 1155.7508,-226.59791 C 1155.7508,-51.993738 1014.4981,89.476889 839.89414,89.476889 C 665.50788,89.476889 524.03726,-51.993738 524.03726,-226.59791 z M 558.69653,-226.59791 C 558.69653,-381.8015 684.47244,-507.79543 839.89414,-507.79543 C 995.31564,-507.79543 1121.3096,-381.8015 1121.3096,-226.59791 C 1121.3096,-71.176218 995.31564,54.817615 839.89414,54.817615 C 684.47244,54.817615 558.69653,-71.176218 558.69653,-226.59791"
       style="fill:#211d1e;fill-rule:evenodd;stroke:none"
       id="path12717" />
    <path
       d="M 690.57592,-386.59707 L 800.87513,-386.59707 L 800.87513,-62.021009 L 690.57592,-62.021009 L 690.57592,-386.59707 z "
       style="fill:#211d1e;fill-rule:nonzero;stroke:none"
       id="path12719" />
    <path
       d="M 878.91295,-386.59707 L 989.21207,-386.59707 L 989.21207,-62.021009 L 878.91295,-62.021009 L 878.91295,-386.59707 z "
       style="fill:#211d1e;fill-rule:nonzero;stroke:none"
       id="path12721" />
    <path
       d="M 917.93177,159.66731 L 917.93177,179.06771 L 870.19368,179.06771 L 870.19368,256.01555 L 800.00326,256.01555 L 800.00326,179.06771 L 747.90544,179.06771 L 747.90544,159.66731 L 917.93177,159.66731"
       style="fill:#211d1e;fill-rule:nonzero;stroke:none"
       id="path12723" />
    <path
       d="M 1033.4626,159.66731 L 1103.8709,159.66731 L 1103.8709,238.79492 L 1195.8596,238.79492 L 1195.8596,256.01555 L 1033.4626,256.01555 L 1033.4626,159.66731"
       style="fill:#211d1e;fill-rule:nonzero;stroke:none"
       id="path12725" />
    <path
       d="M 487.19821,159.66731 L 620.16758,159.66731 C 640.44004,159.66731 657.00662,173.83611 657.00662,191.05673 C 657.00662,207.84133 641.74784,221.35637 622.56536,222.44626 L 660.05845,256.01555 L 607.08867,256.01555 L 569.59567,222.44626 L 549.97725,222.44626 L 549.97725,256.01555 L 487.19821,256.01555 L 487.19821,159.66731 z M 549.97725,178.19574 L 582.02063,178.19574 C 588.77815,178.19574 594.44569,183.20943 594.44569,189.53091 C 594.44569,195.8524 588.77815,200.86599 582.02063,200.86599 L 549.97725,200.86599 L 549.97725,178.19574"
       style="fill:#211d1e;fill-rule:evenodd;stroke:none"
       id="path12727" />
  </g>
</svg>
