<?xml version="1.0" encoding="UTF-8" ?>
<!DOCTYPE svg PUBLIC "-//W3C//DTD SVG 1.1//EN" "http://www.w3.org/Graphics/SVG/1.1/DTD/svg11.dtd">
<svg width="728pt" height="725pt" viewBox="0 0 728 725" version="1.1" xmlns="http://www.w3.org/2000/svg">
<g id="#ffffffff">
<path fill="#ffffff" opacity="1.00" d=" M 275.25 186.79 C 297.22 186.20 318.95 194.37 336.07 207.94 C 344.87 215.89 353.43 224.60 358.51 235.48 C 361.66 242.99 362.45 251.64 359.23 259.27 C 356.80 266.13 351.59 271.54 345.97 275.94 C 339.64 279.14 332.24 280.77 325.17 279.63 C 320.51 278.52 316.08 276.51 312.03 273.96 C 304.82 269.00 302.49 259.63 295.08 254.91 C 283.88 245.94 266.29 247.18 256.09 257.15 C 244.41 266.89 242.88 286.00 252.16 297.82 C 255.34 300.69 257.54 304.42 260.70 307.30 C 268.70 314.97 276.05 323.30 284.22 330.78 C 292.13 340.46 301.50 348.82 310.09 357.89 C 316.35 363.02 320.74 369.87 326.72 375.28 C 335.82 384.25 344.94 393.33 351.73 404.25 C 359.89 418.48 366.07 434.39 366.00 451.01 C 365.79 464.30 363.63 477.79 357.84 489.86 C 354.15 497.50 350.11 505.07 344.56 511.53 C 339.81 518.68 332.88 523.91 326.50 529.51 C 321.11 532.83 316.22 537.12 310.10 539.11 C 293.83 546.61 275.46 548.47 257.73 547.07 C 252.22 546.25 246.65 545.61 241.45 543.47 C 225.83 538.98 211.93 529.90 200.27 518.72 C 191.61 510.47 183.97 500.77 179.56 489.58 C 178.86 484.30 177.33 478.69 179.57 473.57 C 181.96 464.55 188.48 456.88 196.90 452.94 C 204.13 450.06 212.66 448.92 219.99 452.14 C 224.43 453.53 227.97 456.64 231.59 459.42 C 236.05 464.03 238.77 470.08 243.55 474.42 C 249.40 479.80 256.41 484.38 264.47 485.38 C 274.86 486.54 285.83 482.69 292.86 474.86 C 299.76 468.20 301.70 458.29 302.01 449.06 C 301.60 444.23 299.92 439.58 297.75 435.28 C 295.44 430.75 291.13 427.87 287.79 424.19 C 280.51 414.88 271.30 407.33 263.36 398.60 C 256.69 391.29 248.70 385.21 242.77 377.24 C 234.46 368.88 226.11 360.55 217.91 352.08 C 205.51 340.68 194.55 327.01 189.25 310.81 C 179.48 284.48 183.56 253.92 198.14 230.18 C 201.49 224.08 206.58 219.27 210.92 213.92 C 213.89 211.60 216.62 209.00 219.49 206.55 C 235.34 194.23 255.21 187.34 275.25 186.79 Z" />
<path fill="#ffffff" opacity="1.00" d=" M 488.94 192.71 C 495.62 194.01 503.01 190.99 509.13 194.80 C 514.82 198.07 519.43 203.61 520.95 210.06 C 522.63 215.87 523.18 221.97 522.97 228.01 C 522.95 323.36 522.97 418.71 522.96 514.06 C 523.08 521.13 520.75 528.08 517.12 534.08 C 512.95 538.93 508.24 543.87 501.98 545.87 C 493.16 549.46 482.93 547.80 474.82 543.16 C 465.36 537.16 458.87 526.38 459.03 515.06 C 459.08 428.34 458.97 341.63 459.09 254.91 C 446.07 254.94 433.02 255.37 420.06 253.88 C 410.40 251.81 402.47 244.56 398.48 235.65 C 391.31 220.59 399.72 201.14 414.87 194.89 C 420.22 192.45 426.24 192.59 431.99 192.55 C 450.97 192.69 469.97 192.35 488.94 192.71 Z" />
</g>
<g id="#ef222bff">
<path fill="#ef222b" opacity="1.00" d=" M 344.51 6.71 C 353.97 5.40 363.51 6.47 373.01 6.00 C 382.73 6.90 392.53 6.83 402.19 8.31 C 409.90 9.16 417.69 9.67 425.22 11.63 C 431.69 12.02 437.91 13.89 444.20 15.33 C 454.53 17.06 464.35 20.79 474.44 23.48 C 497.38 31.41 519.94 40.73 540.90 53.05 C 550.28 58.13 558.94 64.40 567.97 70.07 C 601.19 93.21 630.54 121.95 654.07 154.94 C 664.02 167.82 671.91 182.09 679.89 196.23 C 682.47 202.10 685.43 207.80 688.51 213.43 C 693.80 225.46 698.56 237.70 703.06 250.05 C 707.60 264.34 711.36 278.87 714.57 293.52 C 715.40 299.63 717.18 305.59 717.40 311.78 C 719.34 319.88 719.47 328.24 720.38 336.48 C 721.46 344.97 720.51 353.56 721.56 362.06 C 721.58 368.06 720.66 374.02 721.03 380.04 C 719.35 413.19 713.70 446.25 702.72 477.63 C 698.60 490.88 693.26 503.73 687.25 516.22 C 684.68 523.84 679.51 530.13 676.42 537.50 C 673.46 541.68 671.78 546.61 668.70 550.72 C 666.07 554.21 664.21 558.19 661.73 561.79 C 659.68 565.00 657.10 567.83 655.08 571.07 C 650.40 578.55 644.54 585.16 639.04 592.04 C 634.56 597.84 629.66 603.30 624.35 608.35 C 619.70 614.31 614.30 619.71 608.35 624.35 C 600.38 632.79 591.00 639.69 582.14 647.13 C 576.01 652.09 569.20 656.09 562.99 660.92 C 555.57 665.59 548.21 670.38 540.50 674.54 C 536.52 677.48 531.66 678.86 527.62 681.69 C 524.04 684.03 520.03 685.57 516.08 687.14 C 506.48 692.39 496.12 695.92 486.01 700.00 C 471.94 704.65 457.87 709.43 443.32 712.36 C 438.95 713.56 434.39 713.94 430.03 715.17 C 422.68 717.13 415.03 717.12 407.62 718.73 C 396.43 719.67 385.27 721.35 374.00 721.02 C 361.30 720.70 348.54 721.72 335.89 720.22 C 327.90 719.93 320.06 718.19 312.09 717.78 C 304.38 715.89 296.44 715.22 288.72 713.34 C 277.31 710.81 265.88 708.22 254.87 704.26 C 242.09 700.11 229.28 695.86 217.26 689.82 C 207.98 686.21 199.09 681.56 190.57 676.44 C 184.34 673.62 178.61 669.86 172.90 666.14 C 166.33 662.55 160.53 657.79 154.31 653.68 C 147.07 647.92 139.18 642.95 132.63 636.38 C 122.60 628.49 113.56 619.46 104.70 610.30 C 82.18 586.44 62.52 559.69 47.48 530.52 C 44.01 522.20 39.03 514.61 35.72 506.22 C 30.40 494.35 26.27 482.00 22.24 469.64 C 19.28 461.50 17.82 452.94 15.32 444.67 C 12.59 431.38 9.63 418.08 8.50 404.54 C 6.53 383.77 4.76 362.82 6.92 342.00 C 7.29 326.71 10.30 311.67 12.40 296.57 C 16.77 275.69 22.08 254.91 30.05 235.08 C 34.33 224.82 38.18 214.34 43.53 204.56 C 47.04 196.41 52.05 189.07 56.25 181.28 C 68.94 159.66 84.13 139.52 101.12 121.08 C 106.46 116.74 109.67 110.31 115.58 106.59 C 131.78 90.20 150.30 76.23 169.45 63.46 C 187.53 52.25 206.03 41.51 225.95 33.84 C 250.47 23.05 276.50 16.10 302.83 11.36 C 316.67 9.41 330.51 7.08 344.51 6.71 M 275.25 186.79 C 255.21 187.34 235.34 194.23 219.49 206.55 C 216.62 209.00 213.89 211.60 210.92 213.92 C 206.58 219.27 201.49 224.08 198.14 230.18 C 183.56 253.92 179.48 284.48 189.25 310.81 C 194.55 327.01 205.51 340.68 217.91 352.08 C 226.11 360.55 234.46 368.88 242.77 377.24 C 248.70 385.21 256.69 391.29 263.36 398.60 C 271.30 407.33 280.51 414.88 287.79 424.19 C 291.13 427.87 295.44 430.75 297.75 435.28 C 299.92 439.58 301.60 444.23 302.01 449.06 C 301.70 458.29 299.76 468.20 292.86 474.86 C 285.83 482.69 274.86 486.54 264.47 485.38 C 256.41 484.38 249.40 479.80 243.55 474.42 C 238.77 470.08 236.05 464.03 231.59 459.42 C 227.97 456.64 224.43 453.53 219.99 452.14 C 212.66 448.92 204.13 450.06 196.90 452.94 C 188.48 456.88 181.96 464.55 179.57 473.57 C 177.33 478.69 178.86 484.30 179.56 489.58 C 183.97 500.77 191.61 510.47 200.27 518.72 C 211.93 529.90 225.83 538.98 241.45 543.47 C 246.65 545.61 252.22 546.25 257.73 547.07 C 275.46 548.47 293.83 546.61 310.10 539.11 C 316.22 537.12 321.11 532.83 326.50 529.51 C 332.88 523.91 339.81 518.68 344.56 511.53 C 350.11 505.07 354.15 497.50 357.84 489.86 C 363.63 477.79 365.79 464.30 366.00 451.01 C 366.07 434.39 359.89 418.48 351.73 404.25 C 344.94 393.33 335.82 384.25 326.72 375.28 C 320.74 369.87 316.35 363.02 310.09 357.89 C 301.50 348.82 292.13 340.46 284.22 330.78 C 276.05 323.30 268.70 314.97 260.70 307.30 C 257.54 304.42 255.34 300.69 252.16 297.82 C 242.88 286.00 244.41 266.89 256.09 257.15 C 266.29 247.18 283.88 245.94 295.08 254.91 C 302.49 259.63 304.82 269.00 312.03 273.96 C 316.08 276.51 320.51 278.52 325.17 279.63 C 332.24 280.77 339.64 279.14 345.97 275.94 C 351.59 271.54 356.80 266.13 359.23 259.27 C 362.45 251.64 361.66 242.99 358.51 235.48 C 353.43 224.60 344.87 215.89 336.07 207.94 C 318.95 194.37 297.22 186.20 275.25 186.79 M 488.94 192.71 C 469.97 192.35 450.97 192.69 431.99 192.55 C 426.24 192.59 420.22 192.45 414.87 194.89 C 399.72 201.14 391.31 220.59 398.48 235.65 C 402.47 244.56 410.40 251.81 420.06 253.88 C 433.02 255.37 446.07 254.94 459.09 254.91 C 458.97 341.63 459.08 428.34 459.03 515.06 C 458.87 526.38 465.36 537.16 474.82 543.16 C 482.93 547.80 493.16 549.46 501.98 545.87 C 508.24 543.87 512.95 538.93 517.12 534.08 C 520.75 528.08 523.08 521.13 522.96 514.06 C 522.97 418.71 522.95 323.36 522.97 228.01 C 523.18 221.97 522.63 215.87 520.95 210.06 C 519.43 203.61 514.82 198.07 509.13 194.80 C 503.01 190.99 495.62 194.01 488.94 192.71 Z" />
</g>
</svg>
