<?xml version="1.0" encoding="UTF-8" ?>
<!DOCTYPE svg PUBLIC "-//W3C//DTD SVG 1.1//EN" "http://www.w3.org/Graphics/SVG/1.1/DTD/svg11.dtd">
<svg width="196pt" height="69pt" viewBox="0 0 196 69" version="1.1" xmlns="http://www.w3.org/2000/svg">
<g id="#4d4e50ff">
<path fill="#4d4e50" opacity="1.00" d=" M 1.23 1.30 C 7.04 1.27 13.77 -0.33 18.88 3.20 C 22.48 5.56 21.74 10.29 21.85 13.98 C 21.78 17.71 22.40 22.53 18.62 24.77 C 13.37 28.04 6.79 26.59 0.94 26.53 C 1.11 18.12 0.54 9.68 1.23 1.30 M 5.51 5.74 C 5.61 11.14 5.55 16.55 5.56 21.96 C 9.40 21.86 13.57 22.52 16.95 20.22 C 16.87 16.03 16.86 11.84 16.97 7.65 C 13.65 5.16 9.39 5.77 5.51 5.74 Z" />
<path fill="#4d4e50" opacity="1.00" d=" M 26.39 1.53 C 27.77 0.16 30.77 0.84 30.52 3.15 C 30.59 10.39 30.64 17.64 30.50 24.88 C 30.77 27.67 25.73 27.51 25.78 25.04 C 25.70 17.40 25.53 9.72 25.86 2.08 L 26.39 1.53 Z" />
<path fill="#4d4e50" opacity="1.00" d=" M 37.48 2.53 C 42.66 -0.63 50.60 -0.05 53.97 5.50 C 52.99 6.45 52.01 7.40 51.02 8.34 C 48.69 6.78 46.11 4.63 43.09 5.48 C 40.99 5.74 37.81 7.21 39.02 9.84 C 42.89 12.50 48.36 10.91 52.08 14.00 C 55.78 17.32 54.34 24.12 49.72 25.86 C 44.13 28.27 35.53 27.35 33.45 20.67 C 34.55 19.93 35.65 19.19 36.76 18.45 C 39.52 22.75 47.20 24.26 49.77 19.10 C 47.12 15.01 41.23 17.09 37.46 14.73 C 32.79 12.42 33.14 5.02 37.48 2.53 Z" />
<path fill="#4d4e50" opacity="1.00" d=" M 59.34 3.20 C 63.48 0.02 69.76 0.01 74.11 2.80 C 76.31 4.12 76.81 6.77 77.41 9.05 C 76.11 9.24 74.82 9.42 73.52 9.60 C 71.69 5.84 67.18 4.43 63.45 6.22 C 60.48 7.54 61.81 11.42 61.46 13.98 C 61.79 16.51 60.52 20.25 63.38 21.63 C 67.25 23.45 71.82 22.00 73.66 18.09 C 74.92 18.35 76.18 18.62 77.44 18.91 C 76.84 21.69 75.67 24.65 72.83 25.82 C 68.42 27.71 62.53 27.63 58.85 24.21 C 56.11 21.55 57.02 17.45 56.83 14.04 C 57.01 10.38 56.01 5.79 59.34 3.20 Z" />
<path fill="#4d4e50" opacity="1.00" d=" M 85.46 1.63 C 90.54 -0.26 98.44 0.54 100.36 6.46 C 100.88 10.89 100.59 15.38 100.57 19.82 C 100.40 24.96 94.45 27.41 89.98 26.97 C 85.44 27.13 80.18 24.00 80.46 18.95 C 80.79 13.08 78.28 4.31 85.46 1.63 M 84.96 7.57 C 85.11 11.76 85.11 15.95 84.97 20.14 C 87.86 22.73 93.46 23.52 95.83 19.96 C 96.22 15.76 95.87 11.53 96.05 7.32 C 92.70 4.90 88.16 4.85 84.96 7.57 Z" />
<path fill="#4d4e50" opacity="1.00" d=" M 104.52 2.37 C 104.90 0.06 109.29 0.40 108.99 2.90 C 109.23 7.35 109.03 11.81 109.01 16.26 C 110.73 17.98 112.47 19.67 114.23 21.34 C 116.01 19.66 117.78 17.97 119.56 16.29 C 119.82 11.29 118.81 6.09 120.08 1.22 C 121.47 1.06 123.34 0.24 124.02 2.01 C 124.36 6.65 124.18 11.32 124.14 15.97 C 124.19 19.73 120.45 21.75 118.25 24.26 C 116.82 25.26 115.58 27.63 113.57 26.90 C 111.34 25.34 109.46 23.36 107.49 21.51 C 106.00 20.02 104.26 18.31 104.41 16.02 C 104.40 11.47 104.19 6.91 104.52 2.37 Z" />
<path fill="#4d4e50" opacity="1.00" d=" M 127.51 7.97 C 127.51 4.41 130.79 1.84 134.02 1.16 C 137.87 0.33 142.55 0.56 145.32 3.74 C 148.62 7.12 148.05 13.38 144.06 15.98 C 140.37 18.50 135.69 17.80 131.49 18.28 C 132.59 19.94 133.62 22.10 135.93 22.16 C 138.99 22.89 141.61 20.90 144.31 19.86 C 145.36 20.52 147.55 20.96 146.95 22.62 C 142.68 28.67 131.53 28.65 127.97 21.92 C 126.96 17.36 127.49 12.60 127.51 7.97 M 134.13 6.10 C 131.18 7.35 132.60 11.10 132.16 13.59 C 135.54 13.24 139.80 14.01 142.29 11.18 C 143.94 9.55 142.41 7.08 140.81 6.06 C 138.69 5.28 136.25 5.32 134.13 6.10 Z" />
<path fill="#4d4e50" opacity="1.00" d=" M 151.32 1.22 C 152.84 0.94 154.36 1.32 155.84 1.66 C 159.17 0.76 162.85 0.03 166.02 1.85 C 165.54 3.07 165.07 4.28 164.58 5.50 C 161.68 5.33 158.30 5.11 156.12 7.44 C 155.04 13.43 156.21 19.60 155.60 25.64 C 154.93 27.81 152.51 26.36 150.95 26.34 C 151.37 17.97 150.48 9.55 151.32 1.22 Z" />
<path fill="#4d4e50" opacity="1.00" d=" M 168.14 2.02 C 168.57 0.39 170.57 1.02 171.77 0.98 C 173.05 2.99 172.29 5.54 173.04 7.72 C 174.65 10.12 176.84 12.06 178.80 14.17 C 180.87 11.91 182.97 9.69 185.07 7.46 C 185.05 5.44 185.01 3.41 184.97 1.38 C 186.53 1.38 188.85 0.17 189.63 2.15 C 189.77 5.11 190.35 8.60 188.27 11.05 C 186.06 13.65 183.54 15.96 181.22 18.45 C 181.25 20.98 181.37 23.51 181.12 26.02 C 179.77 26.65 178.28 26.84 176.86 27.19 C 176.55 24.36 176.80 21.49 176.36 18.69 C 174.04 15.36 170.53 13.02 168.42 9.53 C 167.60 7.14 167.85 4.49 168.14 2.02 Z" />
</g>
<g id="#fbac23ff">
<path fill="#fbac23" opacity="1.00" d=" M 3.65 37.65 C 6.82 34.37 11.70 33.64 16.05 33.89 C 19.66 34.19 23.82 35.35 25.70 38.74 C 25.37 40.94 22.85 42.71 20.90 41.17 C 16.18 38.25 8.66 38.45 5.92 43.95 C 6.60 44.92 7.20 45.96 8.02 46.83 C 13.12 49.02 19.32 47.83 24.01 51.15 C 27.12 53.45 27.58 57.82 26.56 61.30 C 24.86 65.45 20.32 67.60 16.07 68.01 C 10.29 68.86 3.98 67.00 0.50 62.09 C 1.57 60.90 2.64 59.67 3.99 58.79 C 6.06 59.64 7.70 61.27 9.77 62.11 C 14.20 63.54 19.97 62.50 22.16 57.96 C 18.89 52.49 11.55 54.63 6.46 52.40 C 0.30 50.68 -0.92 41.65 3.65 37.65 Z" />
<path fill="#fbac23" opacity="1.00" d=" M 30.42 41.33 C 32.58 35.12 40.26 33.24 46.13 34.20 C 51.10 34.72 56.57 38.10 56.43 43.67 C 54.92 43.81 53.42 43.92 51.91 44.02 C 50.33 42.05 48.55 39.91 45.83 39.70 C 42.34 39.19 37.41 39.36 35.78 43.07 C 35.44 48.32 35.50 53.64 35.74 58.90 C 37.24 62.71 42.26 63.01 45.76 62.49 C 48.49 62.28 50.35 60.19 51.93 58.18 C 53.43 58.25 54.93 58.34 56.43 58.45 C 56.57 63.60 51.72 67.05 47.08 67.79 C 41.70 68.76 35.14 67.93 31.68 63.23 C 29.71 60.94 30.31 57.75 30.21 54.99 C 30.37 50.44 29.95 45.86 30.42 41.33 Z" />
<path fill="#fbac23" opacity="1.00" d=" M 61.31 36.97 C 60.50 33.72 65.30 33.20 66.91 35.04 C 67.24 45.37 67.06 55.74 67.00 66.09 C 67.02 68.80 63.37 67.43 61.72 67.86 C 60.83 57.61 61.59 47.26 61.31 36.97 Z" />
<path fill="#fbac23" opacity="1.00" d=" M 72.17 43.05 C 72.46 38.39 76.83 35.17 81.13 34.39 C 85.96 33.39 91.81 33.75 95.36 37.61 C 99.49 41.61 99.25 49.14 94.76 52.79 C 90.07 56.83 83.41 55.95 77.68 55.94 C 77.94 57.64 77.56 59.79 79.32 60.82 C 83.26 63.77 88.56 62.60 92.61 60.52 C 94.73 59.38 96.01 61.91 97.41 63.06 C 93.14 68.07 85.73 69.08 79.70 67.22 C 75.99 66.07 72.55 63.07 72.24 59.00 C 72.01 53.69 72.10 48.36 72.17 43.05 M 80.51 40.39 C 76.44 42.03 77.79 47.15 78.04 50.57 C 81.86 50.89 85.86 50.96 89.51 49.62 C 92.21 48.70 94.03 45.22 92.30 42.67 C 90.04 38.61 84.26 38.90 80.51 40.39 Z" />
<path fill="#fbac23" opacity="1.00" d=" M 102.38 34.46 C 104.10 34.18 105.85 34.14 107.53 34.63 C 109.68 35.25 111.79 34.08 113.92 33.95 C 118.75 33.45 124.36 34.64 127.29 38.86 C 129.06 41.19 128.65 44.26 128.70 47.00 C 128.58 53.63 128.81 60.27 128.62 66.90 C 127.43 68.77 124.90 67.49 123.11 67.45 C 122.95 59.15 123.38 50.82 122.93 42.53 C 119.46 37.91 111.41 38.22 107.97 42.77 C 107.99 51.00 107.91 59.22 108.02 67.44 C 106.43 67.69 104.81 67.93 103.20 67.84 C 102.02 66.88 102.43 65.31 102.34 63.99 C 102.41 54.15 102.33 44.30 102.38 34.46 Z" />
<path fill="#fbac23" opacity="1.00" d=" M 135.70 37.69 C 141.02 32.92 149.63 32.83 155.58 36.51 C 158.13 38.01 159.45 40.89 159.44 43.79 C 157.95 43.88 156.45 43.96 154.96 44.02 C 153.02 41.00 149.68 39.16 146.05 39.52 C 143.21 39.52 138.72 40.54 138.78 44.09 C 138.88 49.30 138.40 54.57 139.04 59.75 C 143.22 64.43 151.84 63.49 155.05 58.09 C 156.52 58.51 159.16 57.44 159.45 59.59 C 158.87 64.66 153.64 67.43 149.05 67.99 C 143.68 68.72 137.24 67.48 134.19 62.55 C 132.34 59.00 133.45 54.83 133.17 51.01 C 133.46 46.55 131.91 41.10 135.70 37.69 Z" />
<path fill="#fbac23" opacity="1.00" d=" M 168.08 36.10 C 172.24 33.73 177.39 33.36 181.97 34.59 C 186.50 35.84 189.94 40.29 189.78 45.02 C 189.90 49.71 186.28 53.99 181.83 55.18 C 177.97 56.38 173.90 55.84 169.94 56.12 C 167.85 57.11 169.58 59.92 170.90 60.91 C 175.44 64.18 181.06 61.97 185.58 59.88 C 186.64 61.02 188.53 61.90 188.05 63.78 C 184.35 67.98 178.13 68.61 172.91 67.72 C 168.56 66.84 163.86 63.73 163.70 58.86 C 163.51 53.89 163.64 48.91 163.63 43.94 C 163.46 40.74 165.28 37.62 168.08 36.10 M 171.62 40.56 C 167.71 42.25 169.59 47.21 169.16 50.47 C 173.42 50.85 178.04 51.11 181.96 49.11 C 185.10 47.44 185.06 42.52 182.06 40.73 C 178.96 38.90 174.83 39.09 171.62 40.56 Z" />
<path fill="#fbac23" opacity="1.00" d=" M 192.85 34.37 C 193.50 33.63 194.25 33.52 195.10 34.03 C 195.33 35.38 194.26 36.78 193.96 38.12 C 192.89 37.62 192.80 35.51 192.85 34.37 Z" />
</g>
</svg>
