<?xml version="1.0" encoding="UTF-8" standalone="no"?>
<!-- Created with Inkscape (http://www.inkscape.org/) -->
<svg
   xmlns:svg="http://www.w3.org/2000/svg"
   xmlns="http://www.w3.org/2000/svg"
   version="1.0"
   width="630.20825"
   height="170.0318"
   id="svg2">
  <defs
     id="defs4" />
  <g
     transform="translate(179.90074,-176.54262)"
     id="layer1">
    <g
       id="g3328">
      <path
         d="M 172.09281,176.54262 C 150.87715,176.54262 130.20586,177.43802 109.9125,179.22384 C -20.518588,190.56728 -128.98303,236.99333 -179.90074,299.69817 C -102.4171,228.53801 42.215461,180.73014 207.88264,180.73014 C 227.25372,180.73018 246.45552,181.36765 265.27289,182.62811 C 254.94192,181.26278 244.60777,180.11641 234.09234,179.22384 C 213.799,177.4906 193.12435,176.54262 172.09281,176.54262 z"
         id="path2452"
         style="fill:#f5b02f;fill-opacity:1" />
      <path
         d="M 450.30748,223.41884 L 449.73509,223.90086 C 372.06697,294.74576 227.82236,342.44716 62.524115,342.44716 C 43.153044,342.44716 23.951233,341.7494 5.1338644,340.48894 C 25.980607,343.27223 47.378795,345.16172 69.33262,346.00202 C 78.741319,346.36957 88.535999,346.57442 98.313941,346.57442 C 108.09155,346.57439 117.84871,346.36957 127.62665,346.00202 C 272.07851,340.17253 394.38971,291.70065 449.73509,224.11175 L 450.30748,223.41884 z"
         id="path2450"
         style="fill:#f5b02f;fill-opacity:1" />
      <path
         d="M 223.39758,240.92213 C 205.50249,240.92213 194.24677,247.53472 195.1694,257.25049 C 195.53831,261.39907 199.02678,265.30102 206.40643,269.02979 C 211.94083,271.97052 215.25983,273.41704 215.44429,276.41068 C 215.81351,279.77159 211.01838,280.06279 204.93026,279.90532 C 200.31815,279.90536 195.89579,279.16343 192.75933,278.21826 L 189.08392,289.09379 C 191.29778,289.77631 196.81295,290.81098 206.40643,290.81098 C 223.00998,290.81098 235.37985,285.04519 234.27311,274.33198 C 233.90419,270.70845 230.75786,266.37948 222.82518,262.70332 C 214.89215,259.02715 213.97181,257.61237 213.78735,255.77432 C 213.4184,252.4657 217.67469,251.46628 223.57834,251.46628 C 227.45259,251.46625 230.39496,252.05672 232.97767,252.79182 L 237.04471,242.48868 C 235.01534,241.75328 230.59243,240.92213 223.39758,240.92213 z"
         id="path2448"
         style="fill:#f5b02f;fill-opacity:1" />
      <path
         d="M 5.3146222,241.55478 L -0.95161241,290.29884 L 16.58179,290.29884 L 19.172635,264.93265 L 31.343586,290.29884 L 48.666102,290.29884 L 54.751579,241.55478 L 37.429062,241.55478 L 34.657459,266.71007 C 31.336549,257.88721 27.460132,249.48508 22.848021,241.55478 L 5.3146222,241.55478 z"
         id="path2444"
         style="fill:#f5b02f;fill-opacity:1" />
      <path
         d="M 60.47554,241.55478 L 54.209309,290.29884 L 72.284978,290.29884 L 78.189697,241.55478 L 60.47554,241.55478 z"
         id="path2442"
         style="fill:#f5b02f;fill-opacity:1" />
      <path
         d="M 79.846632,241.55478 L 92.770738,264.0891 L 73.218888,290.29884 L 93.313008,290.29884 L 101.44706,278.21826 L 108.25556,290.29884 L 126.54211,290.29884 L 112.32259,264.96278 L 130.2175,241.55478 L 110.12338,241.55478 L 104.03791,251.01436 L 99.036969,241.55478 L 79.846632,241.55478 z"
         id="path2440"
         style="fill:#f5b02f;fill-opacity:1" />
      <path
         d="M 133.92301,241.55478 L 127.83754,290.29884 L 159.92184,290.29884 L 161.75955,277.04333 L 146.81697,277.04333 L 147.57014,271.65076 L 160.67501,271.65076 L 162.15118,259.57021 L 149.04631,259.57021 L 149.76935,254.14751 L 164.16962,254.14751 L 165.82656,241.55478 L 133.92301,241.55478 z"
         id="path2438"
         style="fill:#f5b02f;fill-opacity:1" />
      <path
         d="M -32.493654,241.55478 L -54.997865,290.29884 L -36.199168,290.29884 L -33.608323,283.82173 L -21.618127,283.82173 L -21.045732,290.29884 L -3.7232157,290.29884 L -10.531717,241.55478 L -32.493654,241.55478 z M -23.636578,255.74419 L -22.341155,272.79555 L -29.360539,272.79555 C -28.991286,271.3254 -27.868857,267.75003 -25.655028,262.13092 C -24.732735,259.66261 -24.189953,257.52967 -23.636578,255.74419 z"
         id="path2446"
         style="fill:#f5b02f;fill-opacity:1" />
      <path
         d="M 243.4917,241.55478 L 237.40621,290.29884 L 260.09118,290.29884 C 267.83978,290.29884 274.30016,288.04457 279.28153,283.5807 C 284.44701,278.85419 286.84318,272.64488 286.84318,264.8724 C 286.84318,256.83758 284.44701,250.79582 279.28153,246.85697 C 274.85387,243.33865 268.39312,241.55478 260.09118,241.55478 L 243.4917,241.55478 z M 259.1874,255.95505 L 261.02511,255.95505 C 263.42336,255.95509 265.45045,256.82067 267.11056,258.60615 C 268.58656,260.39162 269.30977,262.55507 269.30977,265.02304 C 269.30977,268.64694 268.03268,271.43265 265.63439,273.42821 C 263.2361,275.21403 260.28605,276.10943 256.59657,276.10943 L 259.1874,255.95505 z"
         id="path2436"
         style="fill:#f5b02f;fill-opacity:1" />
    </g>
  </g>
</svg>
