<?xml version="1.0" encoding="UTF-8" standalone="yes"?>
<svg xmlns="http://www.w3.org/2000/svg" xmlns:xlink="http://www.w3.org/1999/xlink" width="394.66666666666663px" height="106.66666666666666px" viewBox="0 0 296 80" version="1.1">
  <g id="surface1">
    <path style=" stroke:none;fill-rule:nonzero;fill:rgb(96.078431%,69.019608%,18.431373%);fill-opacity:1;" d="M 165.382812 0 C 155.414062 0 145.699219 0.421875 136.167969 1.261719 C 74.882812 6.601562 23.921875 28.449219 0 57.957031 C 36.40625 24.46875 104.359375 1.96875 182.195312 1.96875 C 191.296875 1.96875 200.320312 2.269531 209.160156 2.863281 C 204.308594 2.222656 199.453125 1.683594 194.511719 1.261719 C 184.976562 0.445312 175.261719 0 165.382812 0 Z M 165.382812 0 "/>
    <path style=" stroke:none;fill-rule:nonzero;fill:rgb(96.078431%,69.019608%,18.431373%);fill-opacity:1;" d="M 296.097656 22.058594 L 295.828125 22.285156 C 259.335938 55.625 191.566406 78.074219 113.902344 78.074219 C 104.800781 78.074219 95.777344 77.746094 86.9375 77.152344 C 96.730469 78.460938 106.785156 79.351562 117.101562 79.746094 C 121.519531 79.917969 126.121094 80.015625 130.714844 80.015625 C 135.3125 80.015625 139.894531 79.917969 144.488281 79.746094 C 212.359375 77.003906 269.824219 54.191406 295.828125 22.386719 Z M 296.097656 22.058594 "/>
    <path style=" stroke:none;fill-rule:nonzero;fill:rgb(96.078431%,69.019608%,18.431373%);fill-opacity:1;" d="M 189.484375 30.296875 C 181.078125 30.296875 175.789062 33.40625 176.222656 37.980469 C 176.398438 39.933594 178.035156 41.769531 181.503906 43.523438 C 184.101562 44.90625 185.664062 45.589844 185.75 46.996094 C 185.921875 48.578125 183.671875 48.714844 180.808594 48.640625 C 178.640625 48.640625 176.566406 48.292969 175.089844 47.847656 L 173.363281 52.964844 C 174.40625 53.285156 176.996094 53.773438 181.503906 53.773438 C 189.304688 53.773438 195.117188 51.058594 194.597656 46.019531 C 194.421875 44.3125 192.945312 42.277344 189.21875 40.546875 C 185.488281 38.816406 185.058594 38.152344 184.972656 37.285156 C 184.796875 35.726562 186.796875 35.257812 189.570312 35.257812 C 191.390625 35.257812 192.773438 35.535156 193.988281 35.882812 L 195.898438 31.035156 C 194.945312 30.6875 192.867188 30.296875 189.484375 30.296875 Z M 189.484375 30.296875 "/>
    <path style=" stroke:none;fill-rule:nonzero;fill:rgb(96.078431%,69.019608%,18.431373%);fill-opacity:1;" d="M 87.023438 30.59375 L 84.078125 53.53125 L 92.316406 53.53125 L 93.53125 41.59375 L 99.25 53.53125 L 107.390625 53.53125 L 110.25 30.59375 L 102.109375 30.59375 L 100.808594 42.433594 C 99.246094 38.28125 97.425781 34.324219 95.257812 30.59375 Z M 87.023438 30.59375 "/>
    <path style=" stroke:none;fill-rule:nonzero;fill:rgb(96.078431%,69.019608%,18.431373%);fill-opacity:1;" d="M 112.9375 30.59375 L 109.996094 53.53125 L 118.488281 53.53125 L 121.261719 30.59375 Z M 112.9375 30.59375 "/>
    <path style=" stroke:none;fill-rule:nonzero;fill:rgb(96.078431%,69.019608%,18.431373%);fill-opacity:1;" d="M 122.039062 30.59375 L 128.113281 41.199219 L 118.925781 53.53125 L 128.367188 53.53125 L 132.1875 47.847656 L 135.386719 53.53125 L 143.980469 53.53125 L 137.296875 41.609375 L 145.707031 30.59375 L 136.265625 30.59375 L 133.40625 35.046875 L 131.054688 30.59375 Z M 122.039062 30.59375 "/>
    <path style=" stroke:none;fill-rule:nonzero;fill:rgb(96.078431%,69.019608%,18.431373%);fill-opacity:1;" d="M 147.449219 30.59375 L 144.589844 53.53125 L 159.664062 53.53125 L 160.527344 47.292969 L 153.503906 47.292969 L 153.859375 44.757812 L 160.015625 44.757812 L 160.710938 39.070312 L 154.554688 39.070312 L 154.894531 36.519531 L 161.660156 36.519531 L 162.4375 30.59375 Z M 147.449219 30.59375 "/>
    <path style=" stroke:none;fill-rule:nonzero;fill:rgb(96.078431%,69.019608%,18.431373%);fill-opacity:1;" d="M 69.257812 30.59375 L 58.683594 53.53125 L 67.515625 53.53125 L 68.734375 50.484375 L 74.367188 50.484375 L 74.636719 53.53125 L 82.777344 53.53125 L 79.578125 30.59375 Z M 73.417969 37.269531 L 74.027344 45.296875 L 70.730469 45.296875 C 70.902344 44.605469 71.429688 42.921875 72.472656 40.277344 C 72.90625 39.117188 73.160156 38.113281 73.417969 37.269531 Z M 73.417969 37.269531 "/>
    <path style=" stroke:none;fill-rule:nonzero;fill:rgb(96.078431%,69.019608%,18.431373%);fill-opacity:1;" d="M 198.925781 30.59375 L 196.066406 53.53125 L 206.726562 53.53125 C 210.367188 53.53125 213.402344 52.472656 215.742188 50.371094 C 218.167969 48.148438 219.296875 45.222656 219.296875 41.566406 C 219.296875 37.785156 218.167969 34.941406 215.742188 33.089844 C 213.664062 31.433594 210.628906 30.59375 206.726562 30.59375 Z M 206.300781 37.371094 L 207.164062 37.371094 C 208.292969 37.371094 209.246094 37.777344 210.023438 38.617188 C 210.71875 39.457031 211.058594 40.476562 211.058594 41.636719 C 211.058594 43.34375 210.457031 44.652344 209.332031 45.59375 C 208.203125 46.433594 206.816406 46.855469 205.085938 46.855469 Z M 206.300781 37.371094 "/>
  </g>
</svg>