<?xml version="1.0" encoding="UTF-8" standalone="yes"?>
<svg xmlns="http://www.w3.org/2000/svg" xmlns:xlink="http://www.w3.org/1999/xlink" width="256px" height="106.66666666666666px" viewBox="0 0 192 80" version="1.1">
  <g id="surface1">
    <path style=" stroke:none;fill-rule:nonzero;fill:rgb(100%,100%,100%);fill-opacity:1;" d="M 64.378906 6.738281 C 73.019531 6.683594 81.660156 6.730469 90.296875 6.714844 C 99.855469 6.714844 109.410156 6.714844 118.964844 6.714844 C 121.796875 6.734375 124.632812 6.679688 127.464844 6.742188 C 127.414062 16.085938 127.480469 25.433594 127.429688 34.78125 C 106.417969 34.804688 85.40625 34.769531 64.394531 34.796875 C 64.414062 28.664062 64.394531 22.53125 64.402344 16.398438 C 64.386719 13.179688 64.433594 9.957031 64.378906 6.738281 M 65.785156 8.160156 C 65.804688 16.566406 65.777344 24.972656 65.800781 33.375 C 72.164062 33.449219 78.53125 33.371094 84.898438 33.414062 C 84.957031 30.023438 84.90625 26.632812 84.921875 23.242188 C 84.914062 18.203125 84.9375 13.164062 84.910156 8.128906 C 78.535156 8.152344 72.160156 8.085938 65.785156 8.160156 M 86.335938 8.136719 C 86.320312 8.445312 86.3125 8.753906 86.316406 9.0625 C 86.335938 17.175781 86.277344 25.292969 86.34375 33.402344 C 92.722656 33.40625 99.101562 33.398438 105.480469 33.40625 C 105.503906 24.980469 105.488281 16.558594 105.488281 8.132812 C 99.105469 8.128906 92.722656 8.121094 86.335938 8.136719 M 106.894531 8.125 C 106.84375 16.347656 106.894531 24.574219 106.871094 32.800781 C 106.859375 33.003906 106.878906 33.207031 106.929688 33.40625 C 113.304688 33.394531 119.679688 33.414062 126.054688 33.398438 C 126.054688 24.984375 126.039062 16.570312 126.0625 8.15625 C 119.675781 8.09375 113.28125 8.152344 106.894531 8.125 Z M 106.894531 8.125 "/>
    <path style=" stroke:none;fill-rule:nonzero;fill:rgb(100%,100%,100%);fill-opacity:1;" d="M 69.023438 12.265625 C 73.402344 12.277344 77.785156 12.222656 82.164062 12.292969 C 82.125 13.378906 82.136719 14.464844 82.15625 15.550781 C 80.574219 15.59375 78.992188 15.542969 77.410156 15.570312 C 77.382812 20.132812 77.386719 24.699219 77.410156 29.265625 C 76.203125 29.296875 74.996094 29.257812 73.792969 29.285156 C 73.714844 24.734375 73.773438 20.171875 73.765625 15.617188 C 72.21875 15.484375 70.652344 15.613281 69.097656 15.554688 L 69.015625 15.464844 C 69.015625 14.398438 69 13.332031 69.023438 12.265625 Z M 69.023438 12.265625 "/>
    <path style=" stroke:none;fill-rule:nonzero;fill:rgb(100%,100%,100%);fill-opacity:1;" d="M 88.378906 12.265625 C 89.644531 12.257812 90.914062 12.25 92.179688 12.277344 C 93.425781 15.367188 94.691406 18.449219 95.945312 21.535156 C 96.003906 21.722656 96.058594 21.914062 96.109375 22.101562 C 97.445312 18.855469 98.777344 15.535156 100.128906 12.265625 C 101.390625 12.257812 102.660156 12.253906 103.921875 12.269531 C 101.421875 18.023438 98.839844 23.742188 96.328125 29.492188 C 96.304688 29.65625 96.078125 29.925781 96.015625 29.613281 C 93.496094 23.816406 90.875 18.066406 88.378906 12.265625 Z M 88.378906 12.265625 "/>
    <path style=" stroke:none;fill-rule:nonzero;fill:rgb(100%,100%,100%);fill-opacity:1;" d="M 111.242188 12.28125 C 112.335938 12.222656 113.433594 12.28125 114.527344 12.257812 C 115.769531 12.292969 117.035156 12.15625 118.246094 12.484375 C 119.652344 12.816406 120.976562 13.609375 121.804688 14.816406 C 122.875 16.316406 123.117188 18.347656 122.488281 20.074219 C 121.878906 21.878906 120.289062 23.25 118.480469 23.75 C 117.316406 24.140625 116.078125 24.105469 114.871094 24.085938 L 114.785156 24.175781 C 114.796875 25.871094 114.773438 27.570312 114.800781 29.265625 C 113.617188 29.296875 112.429688 29.285156 111.246094 29.273438 C 111.261719 23.609375 111.261719 17.945312 111.242188 12.28125 M 114.800781 15.546875 C 114.78125 17.332031 114.777344 19.121094 114.804688 20.90625 C 116.050781 20.921875 117.539062 21.035156 118.472656 20.035156 C 119.363281 18.917969 119.304688 17.019531 118.167969 16.089844 C 117.183594 15.417969 115.929688 15.550781 114.800781 15.546875 Z M 114.800781 15.546875 "/>
    <path style=" stroke:none;fill-rule:nonzero;fill:rgb(29.803922%,12.54902%,32.54902%);fill-opacity:1;" d="M 52.761719 0.148438 C 53.175781 0.0507812 53.597656 0.0859375 54.019531 0.0859375 C 81.746094 0.0898438 109.46875 0.0898438 137.191406 0.09375 C 137.828125 0.0703125 138.46875 0.078125 139.101562 0.152344 C 139.085938 13.761719 139.097656 27.371094 139.09375 40.980469 C 110.316406 41 81.53125 40.988281 52.75 40.984375 C 52.757812 27.371094 52.730469 13.757812 52.761719 0.148438 M 64.378906 6.738281 C 64.433594 9.957031 64.386719 13.179688 64.402344 16.398438 C 64.394531 22.53125 64.414062 28.664062 64.394531 34.796875 C 85.40625 34.769531 106.417969 34.804688 127.429688 34.78125 C 127.480469 25.433594 127.414062 16.085938 127.464844 6.742188 C 124.632812 6.679688 121.796875 6.734375 118.964844 6.714844 C 109.410156 6.714844 99.855469 6.714844 90.296875 6.714844 C 81.660156 6.730469 73.019531 6.683594 64.378906 6.738281 Z M 64.378906 6.738281 "/>
    <path style=" stroke:none;fill-rule:nonzero;fill:rgb(29.803922%,12.54902%,32.54902%);fill-opacity:1;" d="M 65.785156 8.160156 C 72.160156 8.085938 78.535156 8.152344 84.910156 8.128906 C 84.9375 13.164062 84.914062 18.203125 84.921875 23.242188 C 84.90625 26.632812 84.957031 30.023438 84.898438 33.414062 C 78.53125 33.371094 72.164062 33.449219 65.800781 33.375 C 65.777344 24.972656 65.804688 16.566406 65.785156 8.160156 M 69.023438 12.265625 C 69 13.332031 69.015625 14.398438 69.015625 15.464844 L 69.097656 15.554688 C 70.652344 15.613281 72.21875 15.484375 73.765625 15.617188 C 73.773438 20.171875 73.714844 24.734375 73.792969 29.285156 C 74.996094 29.257812 76.203125 29.296875 77.410156 29.265625 C 77.386719 24.699219 77.382812 20.132812 77.410156 15.570312 C 78.992188 15.542969 80.574219 15.59375 82.15625 15.550781 C 82.136719 14.464844 82.125 13.378906 82.164062 12.292969 C 77.785156 12.222656 73.402344 12.277344 69.023438 12.265625 Z M 69.023438 12.265625 "/>
    <path style=" stroke:none;fill-rule:nonzero;fill:rgb(29.803922%,12.54902%,32.54902%);fill-opacity:1;" d="M 86.335938 8.136719 C 92.722656 8.121094 99.105469 8.128906 105.488281 8.132812 C 105.488281 16.558594 105.503906 24.980469 105.480469 33.40625 C 99.101562 33.398438 92.722656 33.40625 86.34375 33.402344 C 86.277344 25.292969 86.335938 17.175781 86.316406 9.0625 C 86.3125 8.753906 86.320312 8.445312 86.335938 8.136719 M 88.378906 12.265625 C 90.875 18.066406 93.496094 23.816406 96.015625 29.613281 C 96.078125 29.925781 96.304688 29.65625 96.328125 29.492188 C 98.839844 23.742188 101.421875 18.023438 103.921875 12.269531 C 102.660156 12.253906 101.390625 12.257812 100.128906 12.265625 C 98.777344 15.535156 97.445312 18.855469 96.109375 22.101562 C 96.058594 21.914062 96.003906 21.722656 95.945312 21.535156 C 94.691406 18.449219 93.425781 15.367188 92.179688 12.277344 C 90.914062 12.25 89.644531 12.257812 88.378906 12.265625 Z M 88.378906 12.265625 "/>
    <path style=" stroke:none;fill-rule:nonzero;fill:rgb(29.803922%,12.54902%,32.54902%);fill-opacity:1;" d="M 106.894531 8.125 C 113.28125 8.152344 119.675781 8.09375 126.0625 8.15625 C 126.039062 16.570312 126.054688 24.984375 126.054688 33.398438 C 119.679688 33.414062 113.304688 33.394531 106.929688 33.40625 C 106.878906 33.207031 106.859375 33.003906 106.871094 32.800781 C 106.894531 24.574219 106.84375 16.347656 106.894531 8.125 M 111.242188 12.28125 C 111.261719 17.945312 111.261719 23.609375 111.246094 29.273438 C 112.429688 29.285156 113.617188 29.296875 114.800781 29.265625 C 114.773438 27.570312 114.796875 25.871094 114.785156 24.175781 L 114.871094 24.085938 C 116.078125 24.105469 117.316406 24.140625 118.480469 23.75 C 120.289062 23.25 121.878906 21.878906 122.488281 20.074219 C 123.117188 18.347656 122.875 16.316406 121.804688 14.816406 C 120.976562 13.609375 119.652344 12.816406 118.246094 12.484375 C 117.035156 12.15625 115.769531 12.292969 114.527344 12.257812 C 113.433594 12.28125 112.335938 12.222656 111.242188 12.28125 Z M 111.242188 12.28125 "/>
    <path style=" stroke:none;fill-rule:nonzero;fill:rgb(29.803922%,12.54902%,32.54902%);fill-opacity:1;" d="M 114.800781 15.546875 C 115.929688 15.550781 117.183594 15.417969 118.167969 16.089844 C 119.304688 17.019531 119.363281 18.917969 118.472656 20.035156 C 117.539062 21.035156 116.050781 20.921875 114.804688 20.90625 C 114.777344 19.121094 114.78125 17.332031 114.800781 15.546875 Z M 114.800781 15.546875 "/>
    <path style=" stroke:none;fill-rule:nonzero;fill:rgb(29.803922%,12.54902%,32.54902%);fill-opacity:1;" d="M 92.90625 50.574219 C 94.203125 50.296875 95.613281 51.042969 96.125 52.269531 C 96.628906 53.398438 96.320312 54.847656 95.367188 55.636719 C 94.640625 56.265625 93.59375 56.519531 92.667969 56.234375 C 91.425781 55.898438 90.503906 54.644531 90.578125 53.351562 C 90.585938 52.027344 91.613281 50.808594 92.90625 50.574219 Z M 92.90625 50.574219 "/>
    <path style=" stroke:none;fill-rule:nonzero;fill:rgb(29.803922%,12.54902%,32.54902%);fill-opacity:1;" d="M 17.179688 52.003906 C 19.542969 51.4375 21.960938 51.058594 24.394531 51.023438 C 25.488281 50.972656 26.554688 51.75 26.820312 52.820312 C 27.269531 54.210938 26.15625 55.804688 24.714844 55.886719 C 22.773438 55.929688 20.835938 56.179688 18.9375 56.601562 C 16.488281 57.179688 14.027344 57.90625 11.84375 59.199219 C 11.714844 59.265625 11.410156 59.460938 11.683594 59.578125 C 13.558594 60.707031 15.640625 61.421875 17.699219 62.128906 C 19.472656 62.734375 21.328125 63.125 23.027344 63.933594 C 24.328125 64.550781 25.613281 65.40625 26.28125 66.726562 C 27.015625 68 26.917969 69.640625 26.191406 70.898438 C 25.351562 72.363281 23.960938 73.398438 22.535156 74.242188 C 20.34375 75.515625 17.949219 76.386719 15.527344 77.089844 C 12.074219 78.066406 8.457031 78.664062 4.863281 78.308594 C 3.726562 78.183594 2.546875 78.128906 1.488281 77.644531 C 0.6875 77.261719 0.128906 76.472656 0 75.59375 L 0 75.042969 C 0.109375 74.523438 0.277344 73.988281 0.65625 73.601562 C 1.382812 72.824219 2.464844 72.5 3.496094 72.40625 C 4.347656 72.332031 5.085938 72.851562 5.617188 73.464844 C 7.84375 73.699219 10.089844 73.363281 12.269531 72.882812 C 14.375 72.40625 16.449219 71.769531 18.421875 70.886719 C 19.574219 70.351562 20.730469 69.757812 21.667969 68.882812 C 21.660156 68.84375 21.644531 68.757812 21.640625 68.71875 C 20.167969 67.816406 18.433594 67.523438 16.820312 66.964844 C 14.472656 66.222656 12.140625 65.367188 9.953125 64.214844 C 8.726562 63.539062 7.503906 62.738281 6.699219 61.5625 C 6.050781 60.644531 5.808594 59.398438 6.234375 58.332031 C 6.753906 56.964844 7.90625 55.957031 9.097656 55.175781 C 11.570312 53.625 14.371094 52.707031 17.179688 52.003906 Z M 17.179688 52.003906 "/>
    <path style=" stroke:none;fill-rule:nonzero;fill:rgb(29.803922%,12.54902%,32.54902%);fill-opacity:1;" d="M 171.976562 53.929688 C 173.367188 52.722656 175.144531 52.039062 176.945312 51.769531 C 178.4375 51.589844 180.09375 51.652344 181.347656 52.585938 C 182.617188 53.457031 183.195312 55.039062 183.300781 56.53125 C 183.40625 58.777344 182.933594 61.117188 181.597656 62.957031 C 179.671875 65.644531 176.855469 67.566406 173.871094 68.890625 C 172.015625 69.734375 170.03125 70.277344 168.011719 70.515625 C 167.964844 71.121094 167.96875 71.75 168.183594 72.328125 C 168.480469 73.09375 169.164062 73.671875 169.9375 73.921875 C 171.839844 74.496094 173.875 74.484375 175.816406 74.117188 C 179.421875 73.523438 182.890625 72.320312 186.289062 71.007812 C 187.289062 70.652344 188.277344 70.253906 189.308594 70.015625 C 191.058594 69.628906 192.480469 71.957031 191.5625 73.425781 C 191.070312 74.273438 190.007812 74.378906 189.183594 74.726562 C 185.996094 75.949219 182.808594 77.234375 179.472656 78 C 176.988281 78.570312 174.441406 78.992188 171.882812 78.835938 C 170.320312 78.742188 168.738281 78.519531 167.285156 77.898438 C 165.640625 77.21875 164.3125 75.84375 163.613281 74.210938 C 159.546875 75.261719 155.722656 77.128906 151.609375 78.015625 C 149.699219 78.40625 147.628906 78.621094 145.785156 77.847656 C 144.441406 77.273438 143.578125 76 142.992188 74.707031 C 140.535156 75.773438 137.96875 76.664062 135.300781 76.960938 C 133.546875 77.101562 131.628906 77.1875 130.0625 76.246094 C 128.546875 75.25 127.53125 73.585938 127.191406 71.8125 C 127.015625 71.253906 127.136719 70.636719 126.90625 70.09375 C 126.609375 69.65625 125.996094 69.816406 125.644531 70.089844 C 123.414062 71.621094 121.433594 73.480469 119.386719 75.238281 C 117.800781 76.65625 116.183594 78.167969 114.128906 78.855469 C 112.429688 79.429688 110.355469 79.28125 108.988281 78.023438 C 108.140625 77.292969 107.664062 76.230469 107.425781 75.152344 C 103.90625 75.929688 100.570312 77.363281 97.09375 78.304688 C 94.839844 78.902344 92.457031 79.433594 90.128906 78.949219 C 89.019531 78.730469 87.992188 78.128906 87.289062 77.230469 C 86.347656 76.117188 85.96875 74.675781 85.492188 73.328125 C 85.347656 72.574219 85.390625 71.796875 85.507812 71.039062 C 85.675781 69.128906 86.085938 67.238281 86.730469 65.429688 C 86.324219 65.027344 86.34375 64.429688 86.582031 63.941406 C 86.953125 63.179688 87.410156 62.449219 87.933594 61.785156 C 89.066406 60.28125 91.503906 60.441406 92.753906 61.703125 C 93.160156 62.070312 93.320312 62.679688 93.105469 63.191406 C 91.828125 65.792969 90.777344 68.585938 90.660156 71.511719 C 90.660156 72.230469 90.796875 73 91.210938 73.597656 C 92.441406 74.5 94.058594 74.175781 95.429688 73.828125 C 98.882812 72.84375 102.164062 71.308594 105.664062 70.457031 C 106.390625 70.296875 107.128906 70.210938 107.871094 70.199219 C 108.703125 67.511719 110.285156 65.125 112.039062 62.957031 C 114.878906 59.421875 118.332031 56.378906 122.214844 54.042969 C 124.253906 52.722656 126.636719 51.75 129.105469 51.90625 C 131.003906 51.921875 132.8125 52.835938 134.15625 54.148438 C 134.796875 54.78125 134.894531 55.78125 134.585938 56.597656 C 134.179688 57.851562 132.703125 58.5 131.46875 58.222656 C 130.617188 58.050781 130.03125 57.316406 129.195312 57.09375 C 127.882812 56.628906 126.476562 57.046875 125.261719 57.601562 C 122.96875 58.714844 120.976562 60.359375 119.140625 62.117188 C 117.285156 63.929688 115.585938 65.917969 114.128906 68.070312 C 113.25 69.429688 112.386719 70.949219 112.503906 72.625 C 112.527344 73.140625 112.921875 73.5625 113.421875 73.644531 C 114.046875 73.558594 114.566406 73.195312 115.03125 72.792969 C 117.730469 70.449219 120.472656 68.15625 123.292969 65.964844 C 124.398438 65.09375 125.535156 64.246094 126.773438 63.570312 C 127.773438 63.0625 128.9375 62.710938 130.0625 62.957031 C 130.773438 63.101562 131.378906 63.65625 131.609375 64.351562 C 131.925781 65.210938 131.742188 66.140625 131.785156 67.03125 C 131.816406 68.398438 131.976562 69.851562 132.742188 71.019531 C 133.328125 71.878906 134.492188 72 135.433594 71.859375 C 137.714844 71.410156 139.921875 70.632812 142.058594 69.726562 C 141.894531 66.925781 142.726562 64.183594 143.878906 61.664062 C 144.601562 60.042969 145.425781 58.464844 146.121094 56.828125 C 145.953125 56.59375 145.683594 56.378906 145.75 56.054688 C 145.808594 55.316406 146.261719 54.695312 146.59375 54.054688 C 147.0625 53.28125 147.574219 52.414062 148.464844 52.089844 C 149.703125 51.675781 151.207031 52.03125 152.050781 53.054688 C 152.378906 53.441406 152.460938 54.007812 152.25 54.472656 C 151.722656 55.582031 151.253906 56.722656 150.878906 57.894531 C 150.371094 59.597656 149.414062 61.113281 148.699219 62.734375 C 147.742188 64.710938 146.847656 66.863281 147.085938 69.113281 C 147.199219 70.335938 147.214844 71.703125 148.046875 72.6875 C 148.792969 73.492188 149.996094 73.335938 150.972656 73.1875 C 153.605469 72.648438 156.042969 71.457031 158.5625 70.558594 C 160.09375 69.960938 161.660156 69.464844 163.25 69.050781 C 163.65625 65.585938 165.199219 62.355469 167.074219 59.457031 C 168.433594 57.390625 170.070312 55.5 171.976562 53.929688 M 175.386719 56.878906 C 173.90625 57.914062 172.671875 59.273438 171.625 60.742188 C 170.589844 62.179688 169.726562 63.753906 169.179688 65.445312 C 170.171875 65.355469 171.121094 64.980469 172.050781 64.628906 C 174.058594 63.800781 175.984375 62.636719 177.414062 60.972656 C 178.246094 59.96875 178.71875 58.652344 178.578125 57.34375 C 178.542969 57.007812 178.390625 56.6875 178.140625 56.464844 C 177.234375 56.074219 176.191406 56.394531 175.386719 56.878906 Z M 175.386719 56.878906 "/>
    <path style=" stroke:none;fill-rule:nonzero;fill:rgb(29.803922%,12.54902%,32.54902%);fill-opacity:1;" d="M 41.488281 52.992188 C 43.160156 52.320312 45.015625 52.023438 46.800781 52.332031 C 48.078125 52.613281 49.316406 53.378906 49.910156 54.585938 C 50.769531 56.210938 50.679688 58.140625 50.347656 59.898438 C 50.03125 61.648438 49.085938 63.230469 47.886719 64.519531 C 45.53125 67.078125 42.40625 68.804688 39.152344 69.929688 C 37.832031 70.351562 36.46875 70.691406 35.082031 70.777344 C 34.960938 71.707031 35.085938 72.753906 35.785156 73.433594 C 36.480469 74.179688 37.535156 74.359375 38.492188 74.503906 C 40.765625 74.886719 43.0625 74.40625 45.285156 73.929688 C 48.496094 73.21875 51.574219 72.042969 54.660156 70.929688 C 55.441406 70.691406 56.210938 70.351562 57.03125 70.285156 C 57.71875 70.238281 58.285156 70.695312 58.730469 71.164062 C 58.722656 68.25 58.683594 65.328125 58.894531 62.421875 C 58.917969 61.597656 59.046875 60.78125 59.050781 59.957031 C 58.445312 59.914062 58.308594 59.199219 58.609375 58.757812 C 59.277344 57.628906 59.574219 56.335938 60.09375 55.144531 C 60.382812 54.496094 61.128906 54.335938 61.769531 54.351562 C 62.992188 54.378906 64.1875 55.601562 63.925781 56.871094 C 63.4375 59.703125 63.152344 62.578125 63.242188 65.457031 C 63.710938 64.921875 64.074219 64.292969 64.601562 63.804688 C 66.578125 61.898438 68.957031 60.476562 71.335938 59.136719 C 74.046875 57.675781 76.917969 56.347656 79.996094 55.949219 C 81.59375 55.699219 83.203125 56.308594 84.4375 57.300781 C 85.503906 58.351562 85.308594 60.117188 84.605469 61.3125 C 84.226562 62.027344 83.347656 62.601562 82.546875 62.191406 C 81.707031 61.765625 80.839844 61.222656 79.859375 61.335938 C 77.480469 61.707031 75.289062 62.777344 73.15625 63.847656 C 71.464844 64.734375 69.882812 65.808594 68.328125 66.914062 C 67 67.835938 65.734375 68.894531 64.773438 70.207031 C 63.890625 71.472656 63.488281 73 63.289062 74.511719 C 63.128906 75.503906 63.152344 76.625 62.449219 77.425781 C 61.710938 78.179688 60.386719 78.261719 59.644531 77.472656 C 58.722656 76.578125 58.796875 75.191406 58.75 74.011719 C 58.484375 74.160156 58.246094 74.351562 57.964844 74.476562 C 54.539062 75.671875 51.191406 77.109375 47.660156 77.984375 C 44.46875 78.769531 41.152344 79.355469 37.859375 78.953125 C 36.226562 78.765625 34.558594 78.414062 33.15625 77.503906 C 31.742188 76.550781 30.648438 75.082031 30.257812 73.402344 C 29.703125 71.113281 30.242188 68.746094 30.847656 66.527344 C 32.101562 62.636719 34.324219 59.085938 37.152344 56.15625 C 38.453125 54.929688 39.785156 53.632812 41.488281 52.992188 M 44.015625 56.800781 C 42.929688 56.933594 42.046875 57.636719 41.257812 58.347656 C 39.03125 60.371094 37.242188 62.929688 36.265625 65.789062 C 37.140625 65.769531 37.980469 65.40625 38.808594 65.136719 C 40.957031 64.304688 43.054688 63.15625 44.585938 61.390625 C 45.480469 60.363281 46.003906 58.929688 45.730469 57.566406 C 45.589844 56.78125 44.660156 56.652344 44.015625 56.800781 Z M 44.015625 56.800781 "/>
  </g>
</svg>