<?xml version="1.0" encoding="UTF-8" standalone="yes"?>
<svg xmlns="http://www.w3.org/2000/svg" xmlns:xlink="http://www.w3.org/1999/xlink" width="236px" height="106.66666666666666px" viewBox="0 0 177 80" version="1.1">
  <g id="surface1">
    <path style=" stroke:none;fill-rule:nonzero;fill:rgb(74.117647%,7.843137%,11.372549%);fill-opacity:1;" d="M 65.695312 3.285156 C 67.671875 3.050781 69.679688 2.699219 71.667969 3.011719 C 72.914062 3.230469 74.234375 3.355469 75.316406 4.085938 C 76.136719 4.496094 77.015625 5.195312 76.914062 6.226562 C 77.214844 8.46875 75.847656 10.496094 74.285156 11.953125 C 72.46875 13.394531 70.347656 14.449219 68.117188 15.078125 C 66.964844 15.472656 65.839844 16.03125 64.601562 16.09375 C 63.472656 16.152344 62.347656 16.078125 61.21875 16.070312 C 61.199219 15.808594 61.183594 15.550781 61.167969 15.285156 C 60.625 14.980469 60.089844 14.65625 59.582031 14.292969 C 59.769531 13.996094 59.949219 13.691406 60.121094 13.382812 C 63.789062 13.425781 67.464844 12.222656 70.4375 10.0625 C 71.015625 9.636719 71.652344 9.296875 72.277344 8.941406 C 72.230469 8.402344 72.28125 7.796875 71.914062 7.351562 C 71.503906 6.808594 70.765625 6.722656 70.144531 6.621094 C 68.089844 6.5 65.984375 6.519531 64.023438 7.222656 C 62.476562 7.785156 60.925781 8.351562 59.445312 9.074219 C 58.640625 9.558594 57.847656 10.074219 56.953125 10.382812 C 56.488281 10.863281 56.027344 11.34375 55.433594 11.664062 C 55.148438 12.132812 55.019531 12.6875 54.683594 13.128906 C 54.351562 13.648438 53.878906 14.082031 53.65625 14.664062 C 53.515625 15.566406 53.800781 16.457031 53.941406 17.339844 C 54.085938 18.050781 54.152344 18.792969 54.527344 19.425781 C 54.535156 19.4375 54.542969 19.457031 54.550781 19.46875 C 55.121094 20.597656 56.050781 21.472656 56.871094 22.414062 C 57.289062 22.910156 57.878906 23.191406 58.390625 23.5625 C 59.832031 24.640625 61.207031 25.792969 62.628906 26.890625 C 63.785156 27.800781 65.195312 28.414062 66.144531 29.585938 C 67.019531 30.558594 67.761719 31.644531 68.683594 32.574219 C 69.679688 33.59375 70.179688 34.949219 70.78125 36.210938 C 71.28125 37.867188 71.511719 39.613281 71.53125 41.34375 C 71.574219 43.746094 70.605469 46.054688 69.222656 47.976562 C 67.097656 50.851562 64.15625 53.058594 60.957031 54.59375 C 57.839844 55.84375 54.632812 56.949219 51.308594 57.457031 C 47.757812 58.207031 44.0625 58.386719 40.476562 57.808594 C 37.894531 57.175781 35.242188 56.703125 32.816406 55.574219 C 31.164062 54.894531 29.53125 54.027344 28.304688 52.699219 C 26.984375 51.050781 25.75 49.296875 24.9375 47.332031 C 24.378906 45.914062 24.535156 44.359375 24.261719 42.882812 C 24.027344 41.292969 24.453125 39.71875 24.867188 38.191406 C 26.171875 33.976562 29.363281 30.605469 33.050781 28.335938 C 34.199219 27.703125 35.15625 26.6875 36.480469 26.410156 C 38.699219 25.957031 40.757812 24.65625 43.105469 24.9375 C 43.078125 25.496094 43.058594 26.054688 43.058594 26.613281 C 42.226562 26.878906 41.363281 27.058594 40.554688 27.390625 C 38.945312 28.035156 37.539062 29.074219 36.179688 30.132812 C 34.597656 31.507812 33.066406 32.984375 32 34.8125 C 31.242188 36.132812 30.269531 37.386719 29.984375 38.921875 C 29.789062 39.875 29.628906 40.835938 29.53125 41.800781 C 29.488281 42.816406 29.765625 43.816406 30.027344 44.789062 C 31.296875 48.289062 33.761719 51.46875 37.195312 53.035156 C 38.738281 53.683594 40.347656 54.292969 42.035156 54.394531 C 42.707031 54.457031 43.363281 54.621094 44.027344 54.738281 C 42.875 53.839844 41.347656 53.484375 40.394531 52.320312 C 37.964844 49.582031 36.441406 45.910156 36.648438 42.207031 C 36.734375 36.648438 40.292969 31.171875 45.574219 29.292969 C 45.839844 29.28125 46.109375 29.277344 46.378906 29.269531 C 46.296875 29.90625 46.519531 30.503906 46.609375 31.121094 C 46.460938 31.820312 46.039062 32.429688 45.820312 33.113281 C 45.570312 33.835938 44.625 34.019531 44.390625 34.757812 C 44.15625 35.867188 43.171875 36.558594 42.664062 37.535156 C 41.847656 38.761719 41.488281 40.199219 40.871094 41.519531 C 41.148438 42.328125 40.84375 43.167969 40.875 43.996094 C 41.234375 46.601562 42.472656 49.195312 44.726562 50.65625 C 48.042969 52.84375 52.300781 52.652344 56.011719 51.765625 C 58.007812 51.332031 59.910156 50.496094 61.644531 49.421875 C 63.671875 48.03125 65.511719 46.355469 66.988281 44.382812 C 67.835938 43.199219 68.492188 41.714844 68.167969 40.230469 C 67.664062 37.554688 65.804688 35.425781 64.039062 33.472656 C 60.90625 30.375 56.917969 28.371094 53.566406 25.546875 C 51.804688 24.042969 50.226562 22.171875 49.640625 19.882812 C 49.226562 18.410156 49.136719 16.851562 49.292969 15.335938 C 49.988281 12.226562 51.914062 9.421875 54.53125 7.632812 C 56.105469 6.574219 57.789062 5.699219 59.539062 4.976562 C 61.472656 4.050781 63.589844 3.617188 65.695312 3.285156 Z M 65.695312 3.285156 "/>
    <path style=" stroke:none;fill-rule:nonzero;fill:rgb(40.392157%,27.058824%,27.058824%);fill-opacity:0.458824;" d="M 54.527344 19.425781 C 54.535156 19.4375 54.542969 19.457031 54.550781 19.46875 C 54.542969 19.457031 54.535156 19.4375 54.527344 19.425781 Z M 54.527344 19.425781 "/>
    <path style=" stroke:none;fill-rule:nonzero;fill:rgb(0%,0%,0%);fill-opacity:1;" d="M 97.445312 23.648438 C 99.800781 22.230469 102.699219 21.710938 105.375 22.382812 C 106.199219 23.183594 107.855469 23.542969 107.789062 24.941406 C 106.679688 25.058594 105.753906 23.847656 104.632812 24.285156 C 103.125 24.960938 101.34375 24.929688 100 25.964844 C 99.375 26.464844 98.554688 26.707031 98.046875 27.351562 C 96.988281 28.601562 95.714844 29.746094 95.152344 31.332031 C 94.253906 33.722656 93.8125 36.253906 93.246094 38.738281 C 93.121094 38.746094 92.867188 38.757812 92.738281 38.765625 C 92.179688 41.605469 92.070312 44.507812 91.6875 47.367188 C 91.648438 48.074219 90.953125 48.511719 90.917969 49.230469 C 90.101562 48.828125 89.265625 48.464844 88.425781 48.121094 C 88.089844 46.558594 87.835938 44.945312 88.042969 43.347656 C 88.113281 42.816406 88.15625 42.28125 88.160156 41.746094 C 87.609375 42.386719 87.222656 43.144531 86.746094 43.835938 C 85.90625 45.101562 84.828125 46.179688 83.757812 47.238281 C 82.363281 48.476562 80.679688 49.554688 78.773438 49.664062 C 77.683594 49.691406 76.515625 49.792969 75.527344 49.253906 C 74.246094 48.453125 73.367188 47.089844 73.203125 45.578125 C 72.84375 42.667969 73.300781 39.6875 74.234375 36.921875 C 73.371094 36.96875 72.671875 36.167969 72.980469 35.316406 C 73.800781 34.898438 74.710938 34.691406 75.550781 34.3125 C 76.917969 31.578125 78.246094 28.746094 80.382812 26.519531 C 81.121094 25.699219 81.933594 24.894531 82.980469 24.5 C 84.730469 23.742188 86.757812 23.328125 88.613281 23.957031 C 89.773438 24.445312 90.324219 25.945312 89.800781 27.085938 C 88.71875 29.328125 87.113281 31.34375 85.046875 32.742188 C 83.757812 33.6875 82.300781 34.359375 80.855469 35.019531 C 80.164062 35.351562 79.382812 35.507812 78.753906 35.957031 C 77.5 38.507812 76.398438 41.320312 76.679688 44.222656 C 76.832031 45.167969 77.226562 46.222656 78.09375 46.722656 C 79.433594 46.660156 80.792969 46.199219 81.761719 45.238281 C 84.191406 42.914062 85.929688 39.996094 87.636719 37.125 C 89.230469 34.328125 90.796875 31.511719 92.273438 28.648438 C 93.675781 26.6875 95.410156 24.945312 97.445312 23.648438 M 84.171875 27.230469 C 82.59375 28.535156 81.421875 30.289062 80.589844 32.152344 C 83.183594 30.835938 85.445312 28.84375 86.929688 26.324219 C 85.925781 26.136719 84.945312 26.628906 84.171875 27.230469 Z M 84.171875 27.230469 "/>
    <path style=" stroke:none;fill-rule:nonzero;fill:rgb(0%,0%,0%);fill-opacity:1;" d="M 114.519531 22.601562 C 114.882812 22.597656 115.25 22.59375 115.617188 22.589844 C 115.554688 22.828125 115.492188 23.066406 115.433594 23.304688 C 115.597656 23.632812 116.027344 23.941406 115.851562 24.351562 C 115.386719 25.449219 114.683594 26.425781 113.992188 27.394531 C 113.21875 28.460938 112.855469 29.75 112.179688 30.871094 C 111.695312 31.875 110.972656 32.828125 110.90625 33.980469 C 110.851562 34.589844 110.226562 34.945312 110.171875 35.5625 C 109.945312 36.613281 109.226562 37.453125 108.863281 38.449219 C 107.753906 41.191406 107.28125 44.238281 105.484375 46.664062 C 105.183594 47.203125 104.480469 47.277344 104.164062 47.800781 C 103 47.859375 101.8125 48.101562 100.65625 47.828125 C 99.867188 47.148438 99.527344 46.109375 99.34375 45.117188 C 99.007812 42.683594 98.972656 40.21875 98.839844 37.769531 C 99.003906 33.921875 99.191406 29.96875 100.625 26.347656 C 101.152344 26.359375 101.699219 26.421875 102.140625 26.738281 C 102.203125 27.464844 101.769531 28.15625 101.890625 28.894531 C 101.9375 29.28125 102.292969 29.5 102.550781 29.75 C 102.617188 30.574219 102.570312 31.445312 102.917969 32.21875 C 103.070312 33.332031 102.90625 34.453125 102.953125 35.570312 C 102.992188 36.335938 103.457031 37.011719 103.472656 37.785156 C 103.5 39.078125 103.265625 40.367188 103.386719 41.664062 C 103.503906 41.539062 103.609375 41.402344 103.703125 41.257812 C 104.265625 39.988281 104.375 38.550781 105.101562 37.347656 C 106.703125 33.96875 108.058594 30.445312 110.105469 27.296875 C 111.328125 25.523438 112.726562 23.824219 114.519531 22.601562 Z M 114.519531 22.601562 "/>
    <path style=" stroke:none;fill-rule:nonzero;fill:rgb(0%,0%,0%);fill-opacity:1;" d="M 137.800781 23.277344 C 138.742188 23.191406 139.820312 22.796875 140.6875 23.355469 C 140.972656 24.644531 139.972656 25.8125 140.207031 27.101562 C 140.335938 27.960938 140.003906 28.785156 139.765625 29.59375 C 140.171875 30.898438 141.0625 31.957031 141.890625 33.015625 C 142.726562 34.179688 144.082031 34.851562 144.835938 36.085938 C 145.121094 36.617188 145.765625 36.875 145.9375 37.472656 C 146.21875 38.40625 146.457031 39.355469 146.625 40.316406 C 146.667969 40.328125 146.75 40.34375 146.789062 40.351562 C 146.871094 41.753906 146.75 43.203125 146.03125 44.445312 C 145.164062 46.058594 143.625 47.21875 141.957031 47.890625 C 141.066406 48.234375 140.316406 48.90625 139.371094 49.105469 C 138.253906 49.367188 137.210938 49.867188 136.113281 50.179688 C 134.855469 50.695312 133.574219 49.867188 132.304688 50.242188 C 131.777344 50.382812 131.25 50.273438 130.757812 50.074219 C 131.792969 49.199219 133.105469 48.796875 134.328125 48.261719 C 136.886719 47.128906 139.253906 45.578125 141.375 43.753906 C 141.808594 43.121094 142.253906 42.476562 142.574219 41.777344 C 142.855469 40.226562 142.199219 38.683594 141.222656 37.511719 C 139.6875 35.664062 137.960938 33.902344 137.054688 31.628906 C 137.011719 31.632812 136.929688 31.636719 136.890625 31.636719 C 135.128906 35.320312 133.703125 39.214844 131.253906 42.511719 C 130.789062 43.140625 130.359375 43.832031 129.679688 44.253906 C 128.503906 44.996094 127.648438 46.285156 126.226562 46.589844 C 125.390625 46.738281 124.542969 46.835938 123.699219 46.835938 C 123.15625 46.625 122.648438 46.332031 122.117188 46.09375 C 120.464844 47.269531 118.3125 47.5 116.375 47.074219 C 114.453125 46.589844 113.234375 44.742188 112.808594 42.898438 C 112.046875 39.722656 112.496094 36.328125 113.804688 33.351562 C 114.734375 31.296875 115.566406 29.171875 116.769531 27.253906 C 117.039062 26.140625 117.882812 25.324219 118.695312 24.574219 C 119.230469 24.058594 120.132812 24.007812 120.734375 24.4375 C 120.878906 24.804688 120.941406 25.191406 121.027344 25.574219 C 119.921875 26.769531 119.003906 28.238281 118.917969 29.910156 C 118.582031 30.292969 118.144531 30.640625 117.996094 31.148438 C 117.96875 31.570312 118.113281 32.027344 117.871094 32.410156 C 117.078125 33.941406 116.664062 35.640625 116.359375 37.328125 C 116.097656 39.007812 115.917969 40.777344 116.4375 42.429688 C 116.746094 43.398438 117.429688 44.234375 118.355469 44.664062 C 119.117188 43.582031 119.996094 42.570312 120.566406 41.367188 C 121.441406 39.644531 121.917969 37.761719 122.675781 35.992188 C 123.054688 35.257812 122.746094 34.390625 123.078125 33.644531 C 123.59375 32.410156 124.046875 31.132812 124.769531 29.996094 C 125.246094 29.277344 125.210938 28.378906 125.492188 27.585938 C 125.914062 26.722656 126.5 25.941406 127.210938 25.296875 C 127.800781 24.609375 128.488281 23.589844 129.539062 23.921875 C 129.648438 25.542969 128.910156 27.085938 129.070312 28.71875 C 128.992188 30.152344 128.386719 31.476562 128.144531 32.878906 C 127.785156 34.980469 127.03125 36.984375 126.414062 39.019531 C 125.730469 40.667969 125.222656 42.414062 124.179688 43.882812 C 125.320312 43.742188 126.480469 43.367188 127.265625 42.476562 C 128.996094 40.304688 130.503906 37.949219 131.699219 35.4375 C 133.832031 31.4375 135.261719 27.054688 137.800781 23.277344 Z M 137.800781 23.277344 "/>
    <path style=" stroke:none;fill-rule:nonzero;fill:rgb(0%,0%,0%);fill-opacity:1;" d="M 149.003906 33.164062 C 152.824219 33.144531 156.648438 33.203125 160.464844 33.132812 C 161.5625 36.191406 162.351562 39.367188 163.316406 42.464844 C 163.78125 39.28125 165.125 36.320312 165.882812 33.207031 C 167.109375 33.113281 168.339844 33.191406 169.566406 33.152344 C 168.789062 35.742188 167.792969 38.261719 166.992188 40.84375 C 166.308594 43.050781 165.386719 45.191406 164.859375 47.445312 C 163.824219 47.464844 162.785156 47.496094 161.753906 47.410156 C 161.484375 46.082031 160.867188 44.867188 160.457031 43.585938 C 159.59375 41.023438 158.632812 38.492188 157.765625 35.929688 C 157.738281 35.867188 157.683594 35.75 157.65625 35.6875 C 156.835938 35.660156 156.015625 35.683594 155.195312 35.683594 C 155.09375 39.609375 155.183594 43.546875 155.148438 47.476562 C 153.984375 47.5 152.820312 47.449219 151.664062 47.53125 C 151.734375 43.613281 151.65625 39.695312 151.703125 35.777344 C 150.804688 35.675781 149.902344 35.722656 149.003906 35.722656 C 149.011719 34.867188 149.007812 34.015625 149.003906 33.164062 Z M 149.003906 33.164062 "/>
    <path style=" stroke:none;fill-rule:nonzero;fill:rgb(0%,0%,0%);fill-opacity:1;" d="M 100.738281 54.785156 C 110.542969 53.890625 120.449219 53.757812 130.253906 54.753906 C 132.769531 55.160156 135.320312 55.320312 137.839844 55.714844 C 140.1875 56.160156 142.585938 56.101562 144.953125 56.421875 C 149.441406 57.011719 153.820312 58.265625 158.09375 59.730469 C 161.566406 60.980469 164.976562 62.390625 168.40625 63.75 C 168.847656 63.910156 169.277344 64.117188 169.6875 64.347656 C 167.847656 63.824219 165.972656 63.429688 164.128906 62.914062 C 163.347656 62.664062 162.558594 62.421875 161.734375 62.367188 C 162.238281 62.527344 162.730469 62.71875 163.195312 62.976562 C 164.027344 63.425781 164.976562 63.597656 165.773438 64.117188 C 165.335938 64.191406 164.894531 64.253906 164.460938 64.3125 C 164.945312 64.691406 165.433594 65.074219 165.894531 65.488281 C 164.867188 65.207031 163.835938 64.957031 162.824219 64.628906 C 160.40625 63.957031 157.945312 63.449219 155.539062 62.722656 C 154.136719 62.308594 152.667969 62.148438 151.300781 61.605469 C 150.519531 61.347656 149.683594 61.324219 148.882812 61.121094 C 147.953125 60.847656 146.980469 61.046875 146.035156 60.910156 C 144.121094 60.578125 142.21875 60.09375 140.269531 60.0625 C 138.503906 60.140625 136.757812 59.765625 134.992188 59.761719 C 130.558594 59.480469 126.109375 59.101562 121.660156 59.386719 C 120.527344 59.394531 119.390625 59.570312 118.351562 60.039062 C 117.851562 60.265625 117.320312 59.964844 116.816406 59.910156 C 116.121094 59.753906 115.511719 60.289062 114.828125 60.277344 C 114.074219 60.207031 113.355469 59.941406 112.605469 59.847656 C 111.847656 59.71875 111.167969 60.273438 110.402344 60.132812 C 109.683594 60.03125 108.980469 60.171875 108.289062 60.347656 C 106.832031 60.382812 105.371094 60.3125 103.914062 60.363281 C 102.679688 60.40625 101.457031 60.222656 100.234375 60.148438 C 99.3125 60.066406 98.453125 60.449219 97.5625 60.585938 C 96.976562 60.488281 96.417969 60.210938 95.8125 60.285156 C 95.121094 60.3125 94.476562 60.601562 93.800781 60.71875 C 93.261719 60.742188 92.722656 60.472656 92.195312 60.648438 C 91.359375 60.953125 90.460938 60.785156 89.59375 60.792969 C 87.085938 60.691406 84.578125 60.878906 82.074219 61.019531 C 81.183594 61.160156 80.347656 61.550781 79.433594 61.554688 C 76.527344 61.746094 73.613281 61.972656 70.734375 62.445312 C 68.949219 62.675781 67.265625 63.390625 65.46875 63.542969 C 62.464844 64.058594 59.386719 64.132812 56.425781 64.910156 C 54.582031 65.265625 52.726562 65.585938 50.871094 65.894531 C 50.105469 65.988281 49.414062 66.375 48.660156 66.515625 C 48.074219 66.578125 47.46875 66.125 46.914062 66.460938 C 46.546875 66.621094 46.199219 66.832031 45.8125 66.945312 C 42.921875 66.890625 40.1875 68.015625 37.367188 68.496094 C 35.109375 68.867188 32.949219 69.664062 30.753906 70.300781 C 29.539062 70.359375 28.3125 70.375 27.171875 70.871094 C 27.117188 70.785156 27.003906 70.617188 26.949219 70.53125 C 24.011719 70.960938 21.195312 71.980469 18.398438 72.957031 C 14.28125 74.503906 10.117188 76.011719 5.785156 76.839844 C 5.105469 76.976562 4.410156 76.960938 3.71875 76.929688 C 3.828125 76.179688 4.601562 75.894531 5.203125 75.625 C 6.804688 75.0625 8.148438 73.988281 9.699219 73.316406 C 13.441406 71.792969 17.472656 71.265625 21.363281 70.28125 C 23.601562 69.617188 25.863281 69.042969 28.085938 68.351562 C 34.371094 66.167969 40.847656 64.628906 47.320312 63.144531 C 50.539062 62.226562 53.835938 61.621094 57.089844 60.847656 C 63.035156 59.667969 69.011719 58.648438 75.015625 57.847656 C 78.367188 57.234375 81.761719 56.871094 85.136719 56.425781 C 86.726562 56.296875 88.296875 56.039062 89.875 55.820312 C 92.300781 55.53125 94.734375 55.328125 97.167969 55.128906 C 98.351562 54.929688 99.566406 55.070312 100.738281 54.785156 Z M 100.738281 54.785156 "/>
    <path style=" stroke:none;fill-rule:nonzero;fill:rgb(0%,0%,0%);fill-opacity:0.45098;" d="M 129.539062 23.921875 C 130.132812 24.785156 129.488281 25.746094 129.398438 26.664062 C 129.226562 27.335938 129.457031 28.105469 129.070312 28.71875 C 128.910156 27.085938 129.648438 25.542969 129.539062 23.921875 Z M 129.539062 23.921875 "/>
    <path style=" stroke:none;fill-rule:nonzero;fill:rgb(92.54902%,92.941176%,92.941176%);fill-opacity:1;" d="M 43.058594 26.613281 C 43.792969 26.605469 44.65625 26.65625 45.171875 27.257812 C 45.628906 27.785156 45.988281 28.398438 46.230469 29.058594 C 46.011719 29.132812 45.792969 29.207031 45.574219 29.292969 C 40.292969 31.171875 36.734375 36.648438 36.648438 42.207031 C 36.441406 45.910156 37.964844 49.582031 40.394531 52.320312 C 41.347656 53.484375 42.875 53.839844 44.027344 54.738281 C 43.363281 54.621094 42.707031 54.457031 42.035156 54.394531 C 40.347656 54.292969 38.738281 53.683594 37.195312 53.035156 C 33.761719 51.46875 31.296875 48.289062 30.027344 44.789062 C 29.765625 43.816406 29.488281 42.816406 29.53125 41.800781 C 29.628906 40.835938 29.789062 39.875 29.984375 38.921875 C 30.269531 37.386719 31.242188 36.132812 32 34.8125 C 33.066406 32.984375 34.597656 31.507812 36.179688 30.132812 C 37.539062 29.074219 38.945312 28.035156 40.554688 27.390625 C 41.363281 27.058594 42.226562 26.878906 43.058594 26.613281 Z M 43.058594 26.613281 "/>
    <path style=" stroke:none;fill-rule:nonzero;fill:rgb(92.54902%,92.941176%,92.941176%);fill-opacity:1;" d="M 56.011719 51.765625 C 57.988281 51.179688 59.9375 50.4375 61.691406 49.339844 C 61.683594 49.359375 61.65625 49.402344 61.644531 49.421875 C 59.910156 50.496094 58.007812 51.332031 56.011719 51.765625 Z M 56.011719 51.765625 "/>
    <path style=" stroke:none;fill-rule:nonzero;fill:rgb(0%,0%,0%);fill-opacity:0.478431;" d="M 102.917969 32.21875 C 103.074219 32.402344 103.238281 32.605469 103.199219 32.871094 C 103.289062 34.21875 102.890625 35.648438 103.511719 36.914062 C 104.121094 38.324219 102.992188 39.863281 103.703125 41.257812 C 103.609375 41.402344 103.503906 41.539062 103.386719 41.664062 C 103.265625 40.367188 103.5 39.078125 103.472656 37.785156 C 103.457031 37.011719 102.992188 36.335938 102.953125 35.570312 C 102.90625 34.453125 103.070312 33.332031 102.917969 32.21875 Z M 102.917969 32.21875 "/>
    <path style=" stroke:none;fill-rule:nonzero;fill:rgb(0%,0%,0%);fill-opacity:0.478431;" d="M 161.753906 47.410156 C 162.785156 47.496094 163.824219 47.464844 164.859375 47.445312 C 164.738281 47.601562 164.582031 47.671875 164.390625 47.652344 C 163.605469 47.671875 162.820312 47.636719 162.035156 47.65625 C 161.964844 47.59375 161.824219 47.472656 161.753906 47.410156 Z M 161.753906 47.410156 "/>
    <path style=" stroke:none;fill-rule:nonzero;fill:rgb(0%,0%,0%);fill-opacity:0.34902;" d="M 155.195312 35.683594 C 156.015625 35.683594 156.835938 35.660156 157.65625 35.6875 C 157.683594 35.75 157.738281 35.867188 157.765625 35.929688 C 156.988281 35.898438 156.210938 35.90625 155.4375 35.929688 C 155.355469 38.84375 155.417969 41.761719 155.402344 44.671875 C 155.375 45.679688 155.484375 46.691406 155.320312 47.691406 C 154.105469 47.589844 152.839844 47.875 151.664062 47.53125 C 152.820312 47.449219 153.984375 47.5 155.148438 47.476562 C 155.183594 43.546875 155.09375 39.609375 155.195312 35.683594 Z M 155.195312 35.683594 "/>
    <path style=" stroke:none;fill-rule:nonzero;fill:rgb(0%,0%,0%);fill-opacity:0.490196;" d="M 100.65625 47.828125 C 101.8125 48.101562 103 47.859375 104.164062 47.800781 C 103.382812 48.292969 102.417969 48.085938 101.546875 48.152344 C 101.199219 48.214844 100.917969 48.023438 100.65625 47.828125 Z M 100.65625 47.828125 "/>
    <path style=" stroke:none;fill-rule:nonzero;fill:rgb(0%,0%,0%);fill-opacity:0.509804;" d="M 130.671875 50.046875 L 130.757812 50.074219 C 131.25 50.273438 131.777344 50.382812 132.304688 50.242188 C 133.574219 49.867188 134.855469 50.695312 136.113281 50.179688 C 135.558594 50.703125 134.75 50.636719 134.074219 50.445312 C 133.007812 50.109375 131.90625 50.554688 130.828125 50.398438 C 130.789062 50.3125 130.710938 50.136719 130.671875 50.046875 Z M 130.671875 50.046875 "/>
    <path style=" stroke:none;fill-rule:nonzero;fill:rgb(0%,0%,0%);fill-opacity:0.501961;" d="M 97.136719 54.957031 C 98.339844 54.945312 99.535156 54.648438 100.738281 54.785156 C 99.566406 55.070312 98.351562 54.929688 97.167969 55.128906 C 94.734375 55.328125 92.300781 55.53125 89.875 55.820312 C 88.296875 56.039062 86.726562 56.296875 85.136719 56.425781 C 86.132812 56.035156 87.222656 56.085938 88.261719 55.894531 C 91.203125 55.417969 94.171875 55.222656 97.136719 54.957031 Z M 97.136719 54.957031 "/>
    <path style=" stroke:none;fill-rule:nonzero;fill:rgb(0%,0%,0%);fill-opacity:0.490196;" d="M 130.253906 54.753906 C 130.707031 54.726562 131.164062 54.734375 131.613281 54.792969 C 134.035156 55.074219 136.460938 55.289062 138.859375 55.714844 C 140.042969 56.027344 141.285156 55.785156 142.480469 56.015625 C 143.300781 56.171875 144.171875 56.0625 144.953125 56.421875 C 142.585938 56.101562 140.1875 56.160156 137.839844 55.714844 C 135.320312 55.320312 132.769531 55.160156 130.253906 54.753906 Z M 130.253906 54.753906 "/>
    <path style=" stroke:none;fill-rule:nonzero;fill:rgb(0%,0%,0%);fill-opacity:0.458824;" d="M 133.660156 59.914062 C 134.101562 59.859375 134.542969 59.792969 134.992188 59.761719 C 136.757812 59.765625 138.503906 60.140625 140.269531 60.0625 C 142.21875 60.09375 144.121094 60.578125 146.035156 60.910156 C 146.980469 61.046875 147.953125 60.847656 148.882812 61.121094 C 147.765625 60.914062 146.625 61.230469 145.515625 60.984375 C 143.847656 60.6875 142.183594 60.265625 140.480469 60.292969 C 138.195312 60.351562 135.945312 59.726562 133.660156 59.914062 Z M 133.660156 59.914062 "/>
    <path style=" stroke:none;fill-rule:nonzero;fill:rgb(0%,0%,0%);fill-opacity:0.541176;" d="M 103.914062 60.363281 C 105.371094 60.3125 106.832031 60.382812 108.289062 60.347656 C 107.417969 60.714844 106.449219 60.554688 105.535156 60.574219 C 104.996094 60.523438 104.398438 60.65625 103.914062 60.363281 Z M 103.914062 60.363281 "/>
  </g>
</svg>