<?xml version="1.0" encoding="UTF-8" ?>
<!DOCTYPE svg PUBLIC "-//W3C//DTD SVG 1.1//EN" "http://www.w3.org/Graphics/SVG/1.1/DTD/svg11.dtd">
<svg width="800pt" height="360pt" viewBox="0 0 800 360" version="1.1" xmlns="http://www.w3.org/2000/svg">
<g id="#bd141dff">
<path fill="#bd141d" opacity="1.00" d=" M 296.93 14.79 C 305.87 13.72 314.93 12.15 323.93 13.56 C 329.56 14.54 335.53 15.10 340.41 18.39 C 344.12 20.23 348.09 23.38 347.64 28.02 C 348.99 38.11 342.82 47.24 335.75 53.79 C 327.54 60.28 317.95 65.02 307.88 67.85 C 302.67 69.62 297.58 72.14 291.99 72.42 C 286.89 72.69 281.79 72.35 276.69 72.31 C 276.61 71.14 276.54 69.97 276.47 68.79 C 274.01 67.42 271.60 65.95 269.30 64.31 C 270.15 62.98 270.96 61.62 271.73 60.23 C 288.32 60.42 304.93 55.00 318.37 45.29 C 320.98 43.37 323.85 41.84 326.67 40.23 C 326.46 37.81 326.70 35.09 325.04 33.09 C 323.18 30.64 319.85 30.25 317.03 29.79 C 307.75 29.25 298.23 29.34 289.37 32.51 C 282.38 35.04 275.37 37.59 268.68 40.83 C 265.04 43.02 261.45 45.34 257.41 46.73 C 255.32 48.88 253.23 51.05 250.55 52.49 C 249.26 54.60 248.67 57.09 247.15 59.08 C 245.65 61.41 243.52 63.37 242.52 65.99 C 241.88 70.05 243.16 74.05 243.81 78.03 C 244.45 81.22 244.76 84.56 246.45 87.42 C 246.48 87.47 246.53 87.56 246.55 87.61 C 249.14 92.69 253.34 96.63 257.05 100.87 C 258.93 103.09 261.60 104.36 263.92 106.04 C 270.42 110.88 276.64 116.06 283.06 121.01 C 288.30 125.11 294.67 127.87 298.95 133.14 C 302.91 137.51 306.26 142.40 310.44 146.58 C 314.93 151.18 317.20 157.27 319.92 162.95 C 322.17 170.41 323.21 178.26 323.31 186.04 C 323.50 196.86 319.12 207.24 312.87 215.89 C 303.26 228.83 289.97 238.77 275.51 245.68 C 261.43 251.29 246.93 256.28 231.90 258.55 C 215.86 261.94 199.16 262.74 182.95 260.14 C 171.28 257.29 159.29 255.17 148.32 250.08 C 140.85 247.02 133.48 243.13 127.93 237.14 C 121.96 229.72 116.38 221.84 112.71 213.00 C 110.18 206.62 110.89 199.61 109.65 192.98 C 108.60 185.81 110.53 178.73 112.39 171.87 C 118.29 152.90 132.71 137.73 149.38 127.51 C 154.57 124.66 158.90 120.10 164.89 118.85 C 174.92 116.81 184.22 110.95 194.82 112.22 C 194.71 114.73 194.62 117.24 194.62 119.76 C 190.86 120.96 186.96 121.76 183.30 123.26 C 176.02 126.15 169.67 130.84 163.52 135.59 C 156.38 141.78 149.46 148.43 144.64 156.65 C 141.20 162.59 136.82 168.24 135.53 175.14 C 134.64 179.43 133.92 183.76 133.48 188.11 C 133.28 192.68 134.53 197.17 135.71 201.55 C 141.46 217.30 152.60 231.61 168.12 238.65 C 175.09 241.58 182.36 244.31 189.99 244.78 C 193.02 245.05 195.99 245.80 198.99 246.33 C 193.78 242.28 186.88 240.68 182.57 235.45 C 171.59 223.12 164.70 206.59 165.64 189.93 C 166.03 164.92 182.11 140.28 205.98 131.81 C 207.19 131.77 208.41 131.74 209.63 131.72 C 209.25 134.57 210.25 137.27 210.67 140.04 C 210.00 143.20 208.08 145.94 207.09 149.01 C 205.96 152.26 201.69 153.09 200.64 156.41 C 199.57 161.41 195.13 164.52 192.84 168.90 C 189.14 174.42 187.52 180.89 184.72 186.83 C 185.99 190.47 184.61 194.26 184.74 197.98 C 186.37 209.71 191.97 221.38 202.16 227.95 C 217.14 237.79 236.38 236.93 253.16 232.94 C 262.19 230.99 270.78 227.23 278.62 222.40 C 287.78 216.14 296.09 208.60 302.78 199.72 C 306.60 194.39 309.57 187.72 308.10 181.04 C 305.82 169.00 297.42 159.42 289.44 150.62 C 275.28 136.69 257.26 127.67 242.10 114.96 C 234.15 108.20 227.02 99.78 224.37 89.47 C 222.49 82.84 222.09 75.84 222.80 69.01 C 225.93 55.02 234.64 42.40 246.47 34.34 C 253.59 29.59 261.20 25.65 269.11 22.39 C 277.85 18.22 287.42 16.28 296.93 14.79 Z" />
</g>
<g id="#67454576">
<path fill="#674545" opacity="0.46" d=" M 246.45 87.42 C 246.48 87.47 246.53 87.56 246.55 87.61 C 246.53 87.56 246.48 87.47 246.45 87.42 Z" />
</g>
<g id="#000000ff">
<path fill="#000000" opacity="1.00" d=" M 440.43 106.42 C 451.07 100.04 464.17 97.70 476.28 100.72 C 479.99 104.33 487.49 105.94 487.18 112.24 C 482.16 112.77 477.98 107.32 472.92 109.28 C 466.11 112.32 458.05 112.18 451.98 116.85 C 449.15 119.09 445.45 120.19 443.15 123.08 C 438.37 128.71 432.61 133.86 430.06 140.99 C 426.00 151.76 424.02 163.15 421.46 174.32 C 420.88 174.35 419.73 174.41 419.15 174.44 C 416.63 187.22 416.14 200.28 414.41 213.16 C 414.23 216.34 411.08 218.31 410.93 221.53 C 407.23 219.73 403.46 218.10 399.66 216.55 C 398.15 209.52 396.99 202.25 397.94 195.06 C 398.25 192.67 398.44 190.26 398.47 187.85 C 395.97 190.74 394.23 194.15 392.07 197.27 C 388.27 202.95 383.40 207.80 378.56 212.57 C 372.26 218.15 364.65 223.00 356.03 223.49 C 351.11 223.62 345.84 224.06 341.36 221.64 C 335.58 218.04 331.61 211.90 330.86 205.11 C 329.23 192.01 331.31 178.59 335.52 166.15 C 331.62 166.36 328.46 162.76 329.85 158.92 C 333.57 157.04 337.68 156.12 341.48 154.41 C 347.66 142.11 353.65 129.35 363.31 119.33 C 366.65 115.65 370.32 112.03 375.05 110.25 C 382.97 106.84 392.12 104.98 400.52 107.80 C 405.76 110.00 408.25 116.76 405.88 121.89 C 400.99 131.98 393.73 141.05 384.39 147.34 C 378.57 151.60 371.98 154.62 365.45 157.59 C 362.33 159.08 358.80 159.79 355.95 161.80 C 350.29 173.29 345.30 185.95 346.57 199.01 C 347.27 203.26 349.04 208.00 352.97 210.25 C 359.02 209.97 365.17 207.90 369.54 203.57 C 380.53 193.11 388.39 179.99 396.09 167.06 C 403.31 154.48 410.38 141.80 417.05 128.91 C 423.39 120.10 431.24 112.26 440.43 106.42 M 380.43 122.53 C 373.30 128.40 368.00 136.30 364.25 144.69 C 375.97 138.76 386.19 129.80 392.91 118.46 C 388.37 117.61 383.93 119.83 380.43 122.53 Z" />
<path fill="#000000" opacity="1.00" d=" M 517.60 101.71 C 519.25 101.69 520.90 101.68 522.57 101.66 C 522.28 102.73 522.00 103.80 521.73 104.87 C 522.48 106.34 524.41 107.74 523.62 109.58 C 521.52 114.53 518.34 118.92 515.22 123.27 C 511.73 128.07 510.09 133.87 507.02 138.92 C 504.83 143.44 501.57 147.73 501.27 152.91 C 501.03 155.65 498.20 157.25 497.95 160.03 C 496.92 164.76 493.68 168.54 492.04 173.02 C 487.02 185.36 484.88 199.08 476.77 209.98 C 475.41 212.42 472.23 212.75 470.80 215.11 C 465.53 215.36 460.17 216.45 454.94 215.22 C 451.38 212.16 449.84 207.49 449.01 203.02 C 447.49 192.07 447.34 180.99 446.74 169.97 C 447.48 152.65 448.32 134.86 454.80 118.56 C 457.18 118.62 459.66 118.90 461.66 120.33 C 461.93 123.59 459.97 126.71 460.53 130.02 C 460.73 131.77 462.34 132.75 463.51 133.87 C 463.80 137.59 463.60 141.50 465.16 144.98 C 465.86 149.99 465.12 155.04 465.33 160.07 C 465.50 163.52 467.61 166.55 467.67 170.03 C 467.80 175.85 466.73 181.66 467.28 187.49 C 467.81 186.92 468.29 186.31 468.71 185.66 C 471.25 179.94 471.76 173.48 475.03 168.07 C 482.28 152.86 488.40 137.00 497.66 122.83 C 503.18 114.85 509.50 107.21 517.60 101.71 Z" />
<path fill="#000000" opacity="1.00" d=" M 622.82 104.75 C 627.08 104.37 631.96 102.59 635.87 105.10 C 637.16 110.90 632.64 116.16 633.70 121.96 C 634.29 125.83 632.78 129.53 631.71 133.17 C 633.54 139.04 637.57 143.81 641.31 148.57 C 645.10 153.80 651.22 156.83 654.63 162.39 C 655.92 164.78 658.82 165.93 659.60 168.62 C 660.88 172.82 661.95 177.10 662.72 181.43 C 662.90 181.47 663.27 181.54 663.45 181.58 C 663.82 187.90 663.27 194.41 660.02 200.00 C 656.10 207.26 649.16 212.48 641.61 215.51 C 637.58 217.06 634.20 220.07 629.92 220.97 C 624.88 222.16 620.17 224.40 615.20 225.80 C 609.51 228.13 603.73 224.41 597.99 226.09 C 595.61 226.72 593.22 226.23 590.99 225.34 C 595.67 221.40 601.60 219.58 607.13 217.18 C 618.69 212.08 629.40 205.10 638.99 196.89 C 640.95 194.04 642.96 191.14 644.41 187.99 C 645.68 181.02 642.70 174.08 638.30 168.80 C 631.36 160.49 623.56 152.56 619.46 142.33 C 619.27 142.34 618.90 142.36 618.71 142.37 C 610.76 158.94 604.30 176.46 593.24 191.31 C 591.13 194.14 589.20 197.24 586.13 199.14 C 580.81 202.48 576.94 208.28 570.51 209.66 C 566.74 210.32 562.91 210.77 559.09 210.77 C 556.63 209.82 554.34 208.50 551.94 207.43 C 544.48 212.72 534.74 213.75 525.98 211.83 C 517.30 209.66 511.79 201.34 509.87 193.05 C 506.43 178.75 508.46 163.47 514.38 150.09 C 518.58 140.83 522.34 131.27 527.78 122.65 C 528.99 117.63 532.81 113.96 536.47 110.58 C 538.89 108.26 542.98 108.04 545.70 109.97 C 546.34 111.62 546.63 113.37 547.02 115.09 C 542.02 120.46 537.87 127.07 537.48 134.59 C 535.96 136.32 533.99 137.89 533.31 140.17 C 533.20 142.07 533.84 144.12 532.75 145.85 C 529.16 152.73 527.30 160.38 525.92 167.97 C 524.74 175.54 523.93 183.49 526.28 190.93 C 527.66 195.29 530.76 199.06 534.94 200.99 C 538.39 196.12 542.36 191.57 544.93 186.15 C 548.88 178.40 551.05 169.93 554.47 161.96 C 556.18 158.66 554.78 154.75 556.28 151.40 C 558.61 145.84 560.67 140.09 563.93 134.98 C 566.08 131.75 565.93 127.70 567.19 124.14 C 569.10 120.26 571.75 116.74 574.97 113.84 C 577.63 110.75 580.74 106.15 585.48 107.65 C 585.99 114.94 582.65 121.88 583.36 129.23 C 583.01 135.68 580.28 141.65 579.19 147.96 C 577.56 157.42 574.16 166.43 571.37 175.59 C 568.27 183.01 565.97 190.86 561.26 197.48 C 566.42 196.84 571.66 195.15 575.21 191.14 C 583.03 181.37 589.85 170.77 595.25 159.47 C 604.89 141.46 611.35 121.75 622.82 104.75 Z" />
<path fill="#000000" opacity="1.00" d=" M 673.46 149.23 C 690.73 149.15 708.01 149.42 725.27 149.10 C 730.23 162.87 733.79 177.16 738.16 191.10 C 740.26 176.76 746.32 163.44 749.75 149.43 C 755.29 149.01 760.86 149.36 766.41 149.18 C 762.89 160.84 758.38 172.17 754.77 183.80 C 751.67 193.73 747.51 203.37 745.12 213.50 C 740.44 213.59 735.76 213.74 731.09 213.34 C 729.87 207.37 727.09 201.91 725.23 196.14 C 721.33 184.60 716.98 173.22 713.06 161.68 C 712.94 161.41 712.69 160.87 712.57 160.60 C 708.86 160.47 705.15 160.58 701.44 160.57 C 700.98 178.25 701.40 195.96 701.23 213.65 C 695.98 213.75 690.72 213.53 685.48 213.89 C 685.81 196.26 685.46 178.63 685.67 161.00 C 681.61 160.54 677.53 160.75 673.46 160.76 C 673.50 156.91 673.49 153.07 673.46 149.23 Z" />
<path fill="#000000" opacity="1.00" d=" M 455.32 246.53 C 499.63 242.51 544.41 241.91 588.71 246.40 C 600.08 248.22 611.62 248.94 623.00 250.72 C 633.62 252.72 644.46 252.46 655.15 253.89 C 675.44 256.56 695.23 262.19 714.55 268.79 C 730.24 274.42 745.66 280.76 761.16 286.88 C 763.16 287.59 765.09 288.52 766.95 289.57 C 758.63 287.21 750.16 285.43 741.83 283.11 C 738.30 281.99 734.72 280.89 731.00 280.66 C 733.28 281.37 735.51 282.23 737.61 283.39 C 741.36 285.41 745.66 286.19 749.25 288.53 C 747.28 288.87 745.29 289.14 743.32 289.41 C 745.52 291.12 747.72 292.83 749.80 294.70 C 745.17 293.43 740.50 292.31 735.93 290.83 C 725.00 287.80 713.87 285.52 703.01 282.25 C 696.66 280.39 690.02 279.66 683.85 277.23 C 680.31 276.06 676.53 275.96 672.92 275.04 C 668.71 273.82 664.31 274.71 660.04 274.09 C 651.40 272.61 642.80 270.42 633.99 270.29 C 626.00 270.64 618.12 268.95 610.14 268.93 C 590.09 267.67 569.98 265.95 549.88 267.24 C 544.76 267.27 539.62 268.07 534.93 270.17 C 532.66 271.20 530.27 269.85 527.99 269.60 C 524.84 268.90 522.09 271.30 519.00 271.24 C 515.59 270.93 512.34 269.74 508.96 269.32 C 505.52 268.73 502.45 271.23 498.99 270.59 C 495.74 270.14 492.57 270.78 489.45 271.56 C 482.85 271.73 476.25 271.41 469.66 271.64 C 464.09 271.82 458.57 271.01 453.03 270.67 C 448.87 270.30 444.99 272.03 440.96 272.63 C 438.32 272.19 435.78 270.95 433.05 271.28 C 429.92 271.40 427.02 272.70 423.96 273.23 C 421.53 273.34 419.09 272.13 416.71 272.92 C 412.93 274.29 408.87 273.54 404.95 273.57 C 393.60 273.12 382.27 273.96 370.95 274.59 C 366.94 275.22 363.15 276.98 359.03 277.00 C 345.88 277.86 332.72 278.87 319.70 281.00 C 311.64 282.04 304.03 285.26 295.91 285.94 C 282.33 288.26 268.41 288.59 255.04 292.10 C 246.69 293.69 238.31 295.13 229.92 296.52 C 226.46 296.94 223.34 298.69 219.93 299.32 C 217.28 299.60 214.55 297.56 212.04 299.08 C 210.38 299.80 208.81 300.75 207.06 301.25 C 194.00 301.00 181.64 306.07 168.90 308.23 C 158.68 309.91 148.92 313.49 139.00 316.35 C 133.51 316.62 127.97 316.69 122.81 318.92 C 122.56 318.54 122.06 317.77 121.81 317.39 C 108.53 319.33 95.80 323.92 83.16 328.31 C 64.54 335.27 45.73 342.05 26.15 345.78 C 23.08 346.40 19.93 346.32 16.81 346.19 C 17.30 342.81 20.80 341.53 23.51 340.32 C 30.75 337.79 36.83 332.95 43.84 329.93 C 60.75 323.06 78.97 320.70 96.56 316.26 C 106.67 313.27 116.89 310.69 126.95 307.58 C 155.35 297.75 184.62 290.83 213.88 284.15 C 228.43 280.02 243.33 277.30 258.04 273.81 C 284.90 268.51 311.91 263.92 339.06 260.31 C 354.20 257.56 369.54 255.92 384.80 253.91 C 391.98 253.33 399.09 252.17 406.22 251.20 C 417.17 249.89 428.17 248.97 439.17 248.08 C 444.52 247.18 450.02 247.82 455.32 246.53 Z" />
</g>
<g id="#00000074">
<path fill="#000000" opacity="0.45" d=" M 585.48 107.65 C 588.17 111.54 585.26 115.86 584.85 119.98 C 584.08 123.02 585.11 126.47 583.36 129.23 C 582.65 121.88 585.99 114.94 585.48 107.65 Z" />
</g>
<g id="#ecededff">
<path fill="#eceded" opacity="1.00" d=" M 194.62 119.76 C 197.93 119.73 201.84 119.96 204.16 122.66 C 206.24 125.03 207.86 127.80 208.96 130.76 C 207.96 131.09 206.97 131.44 205.98 131.81 C 182.11 140.28 166.03 164.92 165.64 189.93 C 164.70 206.59 171.59 223.12 182.57 235.45 C 186.88 240.68 193.78 242.28 198.99 246.33 C 195.99 245.80 193.02 245.05 189.99 244.78 C 182.36 244.31 175.09 241.58 168.12 238.65 C 152.60 231.61 141.46 217.30 135.71 201.55 C 134.53 197.17 133.28 192.68 133.48 188.11 C 133.92 183.76 134.64 179.43 135.53 175.14 C 136.82 168.24 141.20 162.59 144.64 156.65 C 149.46 148.43 156.38 141.78 163.52 135.59 C 169.67 130.84 176.02 126.15 183.30 123.26 C 186.96 121.76 190.86 120.96 194.62 119.76 Z" />
<path fill="#eceded" opacity="1.00" d=" M 253.16 232.94 C 262.09 230.30 270.90 226.96 278.84 222.03 C 278.79 222.12 278.68 222.31 278.62 222.40 C 270.78 227.23 262.19 230.99 253.16 232.94 Z" />
</g>
<g id="#0000007b">
<path fill="#000000" opacity="0.48" d=" M 465.16 144.98 C 465.88 145.81 466.61 146.73 466.44 147.92 C 466.85 153.98 465.05 160.42 467.85 166.12 C 470.60 172.46 465.50 179.39 468.71 185.66 C 468.29 186.31 467.81 186.92 467.28 187.49 C 466.73 181.66 467.80 175.85 467.67 170.03 C 467.61 166.55 465.50 163.52 465.33 160.07 C 465.12 155.04 465.86 149.99 465.16 144.98 Z" />
<path fill="#000000" opacity="0.48" d=" M 731.09 213.34 C 735.76 213.74 740.44 213.59 745.12 213.50 C 744.58 214.21 743.88 214.52 743.01 214.44 C 739.46 214.52 735.91 214.36 732.37 214.46 C 732.05 214.18 731.41 213.62 731.09 213.34 Z" />
</g>
<g id="#0000005a">
<path fill="#000000" opacity="0.35" d=" M 701.44 160.57 C 705.15 160.58 708.86 160.47 712.57 160.60 C 712.69 160.87 712.94 161.41 713.06 161.68 C 709.55 161.55 706.04 161.57 702.54 161.69 C 702.17 174.80 702.46 187.92 702.38 201.03 C 702.26 205.55 702.75 210.11 702.01 214.61 C 696.53 214.16 690.81 215.44 685.48 213.89 C 690.72 213.53 695.98 213.75 701.23 213.65 C 701.40 195.96 700.98 178.25 701.44 160.57 Z" />
</g>
<g id="#0000007c">
<path fill="#000000" opacity="0.49" d=" M 454.94 215.22 C 460.17 216.45 465.53 215.36 470.80 215.11 C 467.27 217.31 462.90 216.38 458.97 216.69 C 457.39 216.97 456.12 216.10 454.94 215.22 Z" />
</g>
<g id="#00000081">
<path fill="#000000" opacity="0.51" d=" M 590.60 225.21 L 590.99 225.34 C 593.22 226.23 595.61 226.72 597.99 226.09 C 603.73 224.41 609.51 228.13 615.20 225.80 C 612.69 228.17 609.04 227.86 605.98 227.01 C 601.17 225.49 596.19 227.50 591.32 226.79 C 591.14 226.40 590.78 225.61 590.60 225.21 Z" />
</g>
<g id="#0000007f">
<path fill="#000000" opacity="0.50" d=" M 439.03 247.30 C 444.47 247.25 449.87 245.91 455.32 246.53 C 450.02 247.82 444.52 247.18 439.17 248.08 C 428.17 248.97 417.17 249.89 406.22 251.20 C 399.09 252.17 391.98 253.33 384.80 253.91 C 389.30 252.15 394.23 252.39 398.93 251.53 C 412.21 249.38 425.64 248.50 439.03 247.30 Z" />
</g>
<g id="#0000007e">
<path fill="#000000" opacity="0.49" d=" M 588.71 246.40 C 590.76 246.27 592.83 246.30 594.87 246.57 C 605.80 247.83 616.77 248.80 627.61 250.72 C 632.97 252.13 638.57 251.03 643.98 252.07 C 647.69 252.78 651.62 252.28 655.15 253.89 C 644.46 252.46 633.62 252.72 623.00 250.72 C 611.62 248.94 600.08 248.22 588.71 246.40 Z" />
</g>
<g id="#00000075">
<path fill="#000000" opacity="0.46" d=" M 604.11 269.62 C 606.11 269.36 608.11 269.07 610.14 268.93 C 618.12 268.95 626.00 270.64 633.99 270.29 C 642.80 270.42 651.40 272.61 660.04 274.09 C 664.31 274.71 668.71 273.82 672.92 275.04 C 667.86 274.12 662.71 275.54 657.70 274.43 C 650.16 273.09 642.64 271.19 634.94 271.31 C 624.61 271.59 614.45 268.77 604.11 269.62 Z" />
</g>
<g id="#0000008a">
<path fill="#000000" opacity="0.54" d=" M 469.66 271.64 C 476.25 271.41 482.85 271.73 489.45 271.56 C 485.50 273.21 481.13 272.49 476.99 272.58 C 474.55 272.35 471.86 272.95 469.66 271.64 Z" />
</g>
</svg>
