<?xml version="1.0" encoding="UTF-8" standalone="yes"?>
<svg xmlns="http://www.w3.org/2000/svg" xmlns:xlink="http://www.w3.org/1999/xlink" width="877.3333333333333px" height="106.66666666666666px" viewBox="0 0 658 80" version="1.1">
  <defs>
    <clipPath id="clip1">
      <path d="M 0 0.0742188 L 58 0.0742188 L 58 80 L 0 80 Z M 0 0.0742188 "/>
    </clipPath>
    <clipPath id="clip2">
      <path d="M 159 0.0742188 L 223 0.0742188 L 223 80 L 159 80 Z M 159 0.0742188 "/>
    </clipPath>
    <clipPath id="clip3">
      <path d="M 229 0.0742188 L 306 0.0742188 L 306 80 L 229 80 Z M 229 0.0742188 "/>
    </clipPath>
    <clipPath id="clip4">
      <path d="M 312 0.0742188 L 379 0.0742188 L 379 80 L 312 80 Z M 312 0.0742188 "/>
    </clipPath>
    <clipPath id="clip5">
      <path d="M 385 0.0742188 L 462 0.0742188 L 462 80 L 385 80 Z M 385 0.0742188 "/>
    </clipPath>
    <clipPath id="clip6">
      <path d="M 468 0.0742188 L 522 0.0742188 L 522 80 L 468 80 Z M 468 0.0742188 "/>
    </clipPath>
    <clipPath id="clip7">
      <path d="M 592 0.0742188 L 658 0.0742188 L 658 80 L 592 80 Z M 592 0.0742188 "/>
    </clipPath>
  </defs>
  <g id="surface1">
    <g clip-path="url(#clip1)" clip-rule="nonzero">
      <path style=" stroke:none;fill-rule:nonzero;fill:rgb(4.313725%,2.352941%,1.960784%);fill-opacity:1;" d="M 1.671875 69.773438 C 0.667969 69.105469 0 67.878906 0 66.429688 C 0 63.976562 1.894531 62.085938 4.230469 62.085938 C 5.34375 62.085938 6.347656 62.53125 6.902344 63.089844 C 14.25 69.328125 21.597656 72.339844 31.503906 72.339844 C 41.96875 72.339844 48.867188 66.765625 48.867188 59.074219 L 48.867188 58.855469 C 48.867188 51.605469 44.972656 47.480469 28.609375 44.027344 C 10.6875 40.125 2.449219 34.328125 2.449219 21.507812 L 2.449219 21.285156 C 2.449219 9.023438 13.246094 -0.00390625 28.050781 -0.00390625 C 38.292969 -0.00390625 45.75 2.558594 52.875 7.6875 C 53.765625 8.355469 54.769531 9.582031 54.769531 11.253906 C 54.769531 13.59375 52.875 15.488281 50.539062 15.488281 C 49.535156 15.488281 48.757812 15.265625 47.976562 14.710938 C 41.410156 9.917969 35.066406 7.90625 27.832031 7.90625 C 17.699219 7.90625 11.242188 13.484375 11.242188 20.503906 L 11.242188 20.726562 C 11.242188 28.085938 15.25 32.210938 32.394531 35.886719 C 49.761719 39.679688 57.773438 46.03125 57.773438 57.960938 L 57.773438 58.183594 C 57.773438 71.558594 46.644531 80.253906 31.171875 80.253906 C 19.816406 80.253906 10.355469 76.6875 1.671875 69.773438 "/>
    </g>
    <g clip-path="url(#clip2)" clip-rule="nonzero">
      <path style=" stroke:none;fill-rule:nonzero;fill:rgb(4.313725%,2.352941%,1.960784%);fill-opacity:1;" d="M 159.792969 5.011719 C 159.792969 2.558594 161.796875 0.554688 164.136719 0.554688 C 166.582031 0.554688 168.585938 2.558594 168.585938 5.011719 L 168.585938 47.703125 L 213.003906 2.113281 C 214.003906 1.21875 215.007812 0.554688 216.453125 0.554688 C 218.789062 0.554688 220.683594 2.671875 220.683594 4.898438 C 220.683594 6.125 220.125 7.128906 219.238281 8.019531 L 191.628906 35.441406 L 221.238281 72.007812 C 222.019531 73.007812 222.464844 73.902344 222.464844 75.238281 C 222.464844 77.578125 220.460938 79.695312 218.007812 79.695312 C 216.34375 79.695312 215.226562 78.804688 214.449219 77.691406 L 185.394531 41.460938 L 168.585938 58.292969 L 168.585938 75.238281 C 168.585938 77.691406 166.582031 79.695312 164.136719 79.695312 C 161.796875 79.695312 159.792969 77.691406 159.792969 75.238281 L 159.792969 5.011719 "/>
    </g>
    <g clip-path="url(#clip3)" clip-rule="nonzero">
      <path style=" stroke:none;fill-rule:nonzero;fill:rgb(4.313725%,2.352941%,1.960784%);fill-opacity:1;" d="M 285.21875 50.492188 L 267.292969 10.585938 L 249.371094 50.492188 Z M 230.113281 73.34375 L 261.730469 4.121094 C 262.84375 1.667969 264.511719 0.21875 267.292969 0.21875 L 267.742188 0.21875 C 270.410156 0.21875 272.191406 1.667969 273.195312 4.121094 L 304.808594 73.234375 C 305.144531 74.015625 305.367188 74.792969 305.367188 75.460938 C 305.367188 77.804688 303.476562 79.699219 301.136719 79.699219 C 299.019531 79.699219 297.574219 78.25 296.792969 76.464844 L 288.667969 58.519531 L 245.921875 58.519531 L 237.796875 76.6875 C 237.019531 78.582031 235.570312 79.699219 233.566406 79.699219 C 231.339844 79.699219 229.5625 77.914062 229.5625 75.683594 C 229.5625 75.015625 229.671875 74.234375 230.113281 73.34375 "/>
    </g>
    <g clip-path="url(#clip4)" clip-rule="nonzero">
      <path style=" stroke:none;fill-rule:nonzero;fill:rgb(4.313725%,2.352941%,1.960784%);fill-opacity:1;" d="M 312.464844 5.121094 C 312.464844 2.78125 314.472656 0.773438 316.808594 0.773438 L 318.03125 0.773438 C 320.039062 0.773438 321.261719 1.78125 322.488281 3.339844 L 369.792969 63.757812 L 369.792969 4.898438 C 369.792969 2.558594 371.6875 0.554688 374.136719 0.554688 C 376.476562 0.554688 378.367188 2.558594 378.367188 4.898438 L 378.367188 75.351562 C 378.367188 77.691406 376.699219 79.472656 374.359375 79.472656 L 373.914062 79.472656 C 372.019531 79.472656 370.683594 78.359375 369.351562 76.800781 L 321.039062 14.933594 L 321.039062 75.351562 C 321.039062 77.691406 319.148438 79.695312 316.695312 79.695312 C 314.359375 79.695312 312.464844 77.691406 312.464844 75.351562 L 312.464844 5.121094 "/>
    </g>
    <g clip-path="url(#clip5)" clip-rule="nonzero">
      <path style=" stroke:none;fill-rule:nonzero;fill:rgb(4.313725%,2.352941%,1.960784%);fill-opacity:1;" d="M 441.015625 50.492188 L 423.09375 10.585938 L 405.167969 50.492188 Z M 385.914062 73.34375 L 417.53125 4.121094 C 418.640625 1.667969 420.308594 0.21875 423.09375 0.21875 L 423.539062 0.21875 C 426.210938 0.21875 427.992188 1.667969 428.992188 4.121094 L 460.613281 73.234375 C 460.941406 74.015625 461.167969 74.792969 461.167969 75.460938 C 461.167969 77.804688 459.273438 79.699219 456.933594 79.699219 C 454.820312 79.699219 453.375 78.25 452.589844 76.464844 L 444.464844 58.519531 L 401.722656 58.519531 L 393.59375 76.6875 C 392.820312 78.582031 391.367188 79.699219 389.363281 79.699219 C 387.140625 79.699219 385.359375 77.914062 385.359375 75.683594 C 385.359375 75.015625 385.46875 74.234375 385.914062 73.34375 "/>
    </g>
    <g clip-path="url(#clip6)" clip-rule="nonzero">
      <path style=" stroke:none;fill-rule:nonzero;fill:rgb(4.313725%,2.352941%,1.960784%);fill-opacity:1;" d="M 468.265625 5.011719 C 468.265625 2.558594 470.273438 0.554688 472.605469 0.554688 C 475.058594 0.554688 477.066406 2.558594 477.066406 5.011719 L 477.066406 71.003906 L 517.46875 71.003906 C 519.699219 71.003906 521.476562 72.898438 521.476562 75.125 C 521.476562 77.355469 519.699219 79.140625 517.46875 79.140625 L 472.605469 79.140625 C 470.273438 79.140625 468.265625 77.132812 468.265625 74.683594 L 468.265625 5.011719 "/>
    </g>
    <g clip-path="url(#clip7)" clip-rule="nonzero">
      <path style=" stroke:none;fill-rule:nonzero;fill:rgb(4.313725%,2.352941%,1.960784%);fill-opacity:1;" d="M 592.566406 5.121094 C 592.566406 2.78125 594.570312 0.773438 596.90625 0.773438 L 598.128906 0.773438 C 600.136719 0.773438 601.359375 1.78125 602.582031 3.339844 L 649.894531 63.757812 L 649.894531 4.898438 C 649.894531 2.558594 651.789062 0.554688 654.234375 0.554688 C 656.574219 0.554688 658.46875 2.558594 658.46875 4.898438 L 658.46875 75.351562 C 658.46875 77.691406 656.792969 79.472656 654.460938 79.472656 L 654.015625 79.472656 C 652.121094 79.472656 650.78125 78.359375 649.445312 76.800781 L 601.136719 14.933594 L 601.136719 75.351562 C 601.136719 77.691406 599.246094 79.695312 596.796875 79.695312 C 594.457031 79.695312 592.566406 77.691406 592.566406 75.351562 L 592.566406 5.121094 "/>
    </g>
    <path style=" stroke:none;fill-rule:nonzero;fill:rgb(4.313725%,2.352941%,1.960784%);fill-opacity:1;" d="M 65.234375 5.566406 C 65.234375 3.117188 67.238281 1.109375 69.574219 1.109375 L 117.773438 1.109375 C 120 1.109375 121.78125 2.894531 121.78125 5.121094 C 121.78125 7.351562 120 9.246094 117.773438 9.246094 L 74.027344 9.246094 L 74.027344 37.113281 L 112.765625 37.113281 C 114.988281 37.113281 116.773438 38.898438 116.773438 41.128906 C 116.773438 43.359375 114.988281 45.140625 112.765625 45.140625 L 74.027344 45.140625 L 74.027344 75.238281 C 74.027344 77.691406 72.023438 79.695312 69.574219 79.695312 C 67.238281 79.695312 65.234375 77.691406 65.234375 75.238281 L 65.234375 5.566406 "/>
    <path style=" stroke:none;fill-rule:nonzero;fill:rgb(4.313725%,2.352941%,1.960784%);fill-opacity:1;" d="M 123.828125 41.070312 C 123.828125 38.992188 125.605469 37.117188 127.773438 37.117188 L 148.308594 37.117188 C 150.480469 37.117188 152.257812 38.992188 152.257812 41.070312 C 152.257812 43.246094 150.480469 45.125 148.308594 45.125 L 127.773438 45.125 C 125.605469 45.125 123.828125 43.246094 123.828125 41.070312 "/>
    <path style=" stroke:none;fill-rule:nonzero;fill:rgb(4.313725%,2.352941%,1.960784%);fill-opacity:1;" d="M 528.375 74.683594 L 528.375 5.566406 C 528.375 3.117188 530.375 1.109375 532.714844 1.109375 L 581.140625 1.109375 C 583.363281 1.109375 585.140625 2.894531 585.140625 5.121094 C 585.140625 7.351562 583.363281 9.136719 581.140625 9.136719 L 537.167969 9.136719 L 537.167969 35.78125 L 576.128906 35.78125 C 578.355469 35.78125 580.136719 37.671875 580.136719 39.789062 C 580.136719 42.023438 578.355469 43.804688 576.128906 43.804688 L 537.167969 43.804688 L 537.167969 71.113281 L 581.691406 71.113281 C 583.921875 71.113281 585.699219 72.898438 585.699219 75.128906 C 585.699219 77.355469 583.921875 79.140625 581.691406 79.140625 L 532.714844 79.140625 C 530.375 79.140625 528.375 77.132812 528.375 74.683594 "/>
  </g>
</svg>