<?xml version="1.0" encoding="UTF-8" ?>
<!DOCTYPE svg PUBLIC "-//W3C//DTD SVG 1.1//EN" "http://www.w3.org/Graphics/SVG/1.1/DTD/svg11.dtd">
<svg width="1550pt" height="177pt" viewBox="0 0 1550 177" version="1.1" xmlns="http://www.w3.org/2000/svg">
<g id="#ffffffff">
</g>
<g id="#331010ff">
<path fill="#331010" opacity="1.00" d=" M 56.63 0.00 L 63.46 0.00 C 77.48 0.74 91.66 6.20 101.04 16.94 C 105.17 21.80 108.99 27.50 109.72 33.97 C 109.78 38.66 104.66 40.22 101.02 41.34 C 97.62 42.19 93.82 44.44 90.42 42.51 C 87.82 40.70 86.75 37.53 84.86 35.10 C 80.71 29.18 74.16 25.06 67.03 23.87 C 56.97 22.09 45.81 24.18 38.00 31.05 C 31.82 36.38 28.51 44.96 29.99 53.05 C 31.06 59.69 35.44 65.45 41.04 69.01 C 47.77 73.47 55.96 74.43 63.56 76.62 C 73.60 79.01 83.63 82.10 92.39 87.70 C 101.32 93.30 108.82 101.64 112.14 111.76 C 117.20 127.11 113.30 144.73 103.12 157.13 C 92.89 169.88 76.53 176.34 60.48 177.00 L 52.76 177.00 C 46.94 176.45 41.10 175.58 35.56 173.64 C 20.71 168.72 8.49 156.76 3.11 142.09 C 2.03 138.71 0.48 135.01 1.66 131.46 C 3.27 128.10 7.40 127.52 10.55 126.37 C 14.23 125.25 19.17 123.32 22.09 126.95 C 25.49 131.96 27.19 138.02 31.31 142.60 C 37.39 150.29 47.40 153.80 56.98 153.71 C 66.20 153.86 75.94 151.30 82.62 144.66 C 89.72 137.75 92.26 126.20 87.84 117.20 C 84.35 110.35 77.22 106.40 70.25 103.90 C 56.30 99.19 41.12 97.52 28.40 89.62 C 18.80 83.97 10.77 75.16 7.41 64.41 C 2.18 47.79 7.00 28.61 19.17 16.20 C 28.86 6.04 42.77 0.72 56.63 0.00 Z" />
<path fill="#331010" opacity="1.00" d=" M 162.70 4.68 C 164.95 2.68 168.13 2.63 170.98 2.63 C 198.30 2.68 225.62 2.61 252.95 2.66 C 256.57 2.47 260.63 4.32 261.62 8.07 C 262.48 11.65 262.34 15.44 261.87 19.07 C 261.31 22.87 257.60 25.46 253.87 25.36 C 230.52 25.51 207.16 25.37 183.80 25.43 C 183.80 43.50 183.80 61.56 183.80 79.63 C 203.53 79.67 223.26 79.62 242.98 79.66 C 246.47 79.49 250.44 80.96 251.72 84.48 C 252.87 88.19 252.61 92.21 252.17 96.02 C 251.63 99.93 247.75 102.51 243.96 102.38 C 223.91 102.49 203.85 102.37 183.80 102.43 C 183.79 123.30 183.83 144.16 183.78 165.02 C 183.95 168.78 182.04 172.96 178.09 173.87 C 174.14 174.63 169.99 174.56 166.01 173.97 C 161.88 173.21 159.72 168.87 159.96 164.97 C 159.91 114.33 159.96 63.68 159.93 13.04 C 159.93 10.09 160.27 6.71 162.70 4.68 Z" />
<path fill="#331010" opacity="1.00" d=" M 399.59 12.04 C 399.23 7.98 401.68 3.55 405.97 2.94 C 409.92 2.51 414.03 2.31 417.94 3.19 C 421.72 4.20 423.58 8.29 423.35 11.96 C 423.37 35.55 423.35 59.15 423.36 82.74 C 446.46 58.37 469.51 33.95 492.60 9.56 C 495.31 6.83 498.12 3.73 502.04 2.87 C 505.67 2.43 509.34 2.69 512.99 2.65 C 515.46 2.55 518.16 3.30 519.65 5.42 C 521.56 8.24 521.45 12.49 518.90 14.91 C 498.25 36.49 477.58 58.07 456.92 79.65 C 478.71 107.33 500.66 134.89 522.44 162.59 C 525.71 166.31 523.92 173.01 518.93 174.09 C 514.98 174.59 510.97 174.36 507.01 174.29 C 502.95 174.20 500.24 170.81 497.86 167.98 C 478.68 144.30 459.53 120.60 440.36 96.91 C 434.68 102.82 429.11 108.84 423.39 114.72 C 423.27 131.80 423.45 148.89 423.31 165.97 C 423.43 169.75 420.79 173.51 416.94 174.05 C 412.99 174.50 408.89 174.67 405.00 173.80 C 401.17 172.78 399.34 168.62 399.59 164.93 C 399.57 113.97 399.57 63.01 399.59 12.04 Z" />
<path fill="#331010" opacity="1.00" d=" M 612.05 12.19 C 613.57 8.13 616.45 4.07 620.93 3.09 C 624.58 2.40 628.37 2.50 632.05 2.92 C 636.65 3.56 639.94 7.44 641.50 11.58 C 661.19 60.57 680.83 109.57 700.51 158.56 C 701.72 161.67 703.23 164.73 703.73 168.06 C 704.04 171.29 701.18 174.23 697.99 174.27 C 693.68 174.37 689.33 174.58 685.04 174.09 C 681.72 173.35 680.14 169.99 678.89 167.17 C 673.64 154.43 668.63 141.60 663.40 128.85 C 638.90 128.90 614.39 128.84 589.89 128.88 C 585.35 140.24 580.76 151.58 576.20 162.93 C 574.28 167.03 573.12 172.98 568.01 174.15 C 563.38 174.47 558.69 174.55 554.08 174.10 C 549.76 173.14 548.57 167.91 550.54 164.37 C 570.96 113.61 591.57 62.93 612.05 12.19 M 626.78 37.39 C 617.41 60.51 608.03 83.63 598.68 106.76 C 617.34 106.77 636.00 106.75 654.66 106.77 C 645.39 83.63 636.10 60.50 626.78 37.39 Z" />
<path fill="#331010" opacity="1.00" d=" M 741.82 5.85 C 743.43 3.55 746.34 2.70 749.04 2.68 C 752.69 2.64 756.39 2.42 760.02 3.01 C 763.69 3.72 766.17 6.80 768.27 9.65 C 798.14 51.04 828.00 92.43 857.87 133.81 C 857.90 93.21 857.87 52.61 857.89 12.01 C 857.68 8.39 859.43 4.33 863.15 3.24 C 867.00 2.29 871.07 2.54 875.00 2.89 C 878.99 3.33 881.76 7.18 881.63 11.06 C 881.72 62.39 881.65 113.73 881.66 165.06 C 881.90 168.85 879.86 173.05 875.88 173.91 C 871.64 174.67 867.27 174.40 862.99 174.17 C 858.57 173.87 855.59 170.20 853.22 166.86 C 823.53 125.63 793.70 84.49 764.07 43.22 C 763.89 83.81 764.08 124.41 763.98 165.01 C 764.22 168.89 762.05 173.18 757.97 173.96 C 754.01 174.57 749.89 174.61 745.95 173.90 C 742.00 173.05 739.97 168.88 740.17 165.11 C 740.08 114.75 740.17 64.39 740.12 14.04 C 740.16 11.26 740.09 8.20 741.82 5.85 Z" />
<path fill="#331010" opacity="1.00" d=" M 980.71 11.86 C 982.32 7.40 985.95 3.20 990.97 2.82 C 995.69 2.59 1001.05 1.91 1005.14 4.82 C 1008.63 7.34 1010.02 11.60 1011.57 15.42 C 1030.65 62.99 1049.74 110.55 1068.84 158.11 C 1070.09 161.38 1071.71 164.56 1072.24 168.06 C 1072.58 171.49 1069.36 174.47 1066.01 174.31 C 1061.98 174.37 1057.94 174.53 1053.94 174.16 C 1050.20 173.60 1048.52 169.76 1047.18 166.69 C 1042.06 154.10 1037.04 141.47 1031.94 128.87 C 1007.39 128.93 982.84 128.73 958.30 128.97 C 954.41 139.07 950.24 149.06 946.24 159.11 C 944.29 163.49 943.08 168.33 940.07 172.14 C 937.56 175.06 933.35 174.21 929.96 174.37 C 926.32 174.19 921.60 175.25 919.16 171.76 C 917.12 169.06 918.56 165.64 919.61 162.85 C 939.98 112.52 960.33 62.19 980.71 11.86 M 995.30 37.37 C 985.91 60.49 976.56 83.63 967.18 106.75 C 985.84 106.77 1004.50 106.77 1023.17 106.75 C 1013.90 83.62 1004.59 60.50 995.30 37.37 Z" />
<path fill="#331010" opacity="1.00" d=" M 1111.09 12.00 C 1110.87 8.20 1112.89 3.95 1116.89 3.09 C 1120.89 2.40 1125.09 2.39 1129.10 3.09 C 1133.10 3.94 1135.12 8.20 1134.91 12.00 C 1134.97 58.53 1134.90 105.05 1134.94 151.58 C 1159.29 151.58 1183.65 151.57 1208.00 151.58 C 1211.49 151.40 1215.46 152.92 1216.70 156.47 C 1217.81 160.16 1217.53 164.15 1217.14 167.94 C 1216.54 172.25 1212.06 174.66 1208.01 174.34 C 1180.32 174.38 1152.63 174.34 1124.95 174.36 C 1121.20 174.26 1116.84 174.94 1113.78 172.27 C 1111.40 170.26 1111.05 166.93 1111.06 164.03 C 1111.09 113.35 1111.03 62.67 1111.09 12.00 Z" />
<path fill="#331010" opacity="1.00" d=" M 1257.31 10.99 C 1257.06 6.25 1261.30 2.30 1266.00 2.68 C 1294.35 2.60 1322.70 2.66 1351.05 2.65 C 1354.76 2.41 1359.01 4.13 1360.09 8.00 C 1360.99 11.64 1360.83 15.52 1360.32 19.21 C 1359.68 23.12 1355.74 25.57 1351.96 25.39 C 1328.33 25.46 1304.70 25.41 1281.07 25.41 C 1281.05 42.68 1281.06 59.94 1281.06 77.20 C 1300.72 77.22 1320.38 77.18 1340.04 77.22 C 1343.56 77.08 1347.70 78.41 1348.97 82.05 C 1350.14 85.67 1349.83 89.61 1349.49 93.34 C 1349.05 97.46 1344.99 100.15 1341.05 99.97 C 1321.05 100.05 1301.05 99.97 1281.06 100.00 C 1281.07 117.20 1281.04 134.39 1281.08 151.59 C 1305.04 151.58 1329.02 151.55 1352.99 151.60 C 1356.94 151.35 1361.09 153.96 1361.60 158.09 C 1361.94 161.98 1362.35 166.12 1360.98 169.86 C 1359.52 173.31 1355.52 174.51 1352.07 174.35 C 1323.73 174.36 1295.39 174.36 1267.05 174.35 C 1264.25 174.36 1261.14 173.87 1259.26 171.60 C 1257.17 169.26 1257.23 165.93 1257.25 162.99 C 1257.32 112.32 1257.19 61.65 1257.31 10.99 Z" />
<path fill="#331010" opacity="1.00" d=" M 1408.47 12.15 C 1408.28 8.36 1410.11 4.06 1414.13 3.13 C 1418.35 2.31 1422.71 2.57 1426.99 2.81 C 1431.17 3.00 1434.18 6.29 1436.45 9.46 C 1466.37 50.90 1496.26 92.36 1526.19 133.79 C 1526.23 93.17 1526.16 52.54 1526.22 11.92 C 1526.00 8.14 1528.03 3.93 1532.01 3.09 C 1535.92 2.38 1540.00 2.42 1543.94 3.03 C 1547.56 3.65 1549.71 7.13 1550.00 10.58 L 1550.00 166.58 C 1549.63 169.96 1547.51 173.34 1543.97 173.97 C 1539.69 174.63 1535.31 174.47 1531.03 174.12 C 1526.58 173.71 1523.72 169.90 1521.32 166.56 C 1491.64 125.39 1461.92 84.25 1432.23 43.08 C 1432.41 83.04 1432.22 123.01 1432.32 162.98 C 1432.28 166.07 1432.31 169.63 1429.93 171.96 C 1427.37 174.57 1423.43 174.34 1420.08 174.40 C 1416.92 174.34 1413.28 174.44 1410.89 172.01 C 1408.71 169.97 1408.48 166.79 1408.45 163.98 C 1408.48 113.37 1408.43 62.76 1408.47 12.15 Z" />
<path fill="#331010" opacity="1.00" d=" M 298.04 95.21 C 312.99 94.46 328.02 95.10 343.01 94.88 C 347.02 95.01 351.62 94.21 355.01 96.88 C 358.32 99.72 357.71 104.61 357.39 108.50 C 356.97 112.51 352.85 114.79 349.13 114.73 C 333.75 114.90 318.37 114.74 303.00 114.81 C 299.81 114.81 296.10 114.75 293.76 112.24 C 291.24 109.51 291.71 105.43 291.87 102.02 C 291.94 98.59 294.71 95.72 298.04 95.21 Z" />
</g>
</svg>
