<?xml version="1.0" encoding="UTF-8" standalone="yes"?>
<svg xmlns="http://www.w3.org/2000/svg" xmlns:xlink="http://www.w3.org/1999/xlink" width="177.33333333333331px" height="106.66666666666666px" viewBox="0 0 133 80" version="1.1">
  <g id="surface1">
    <path style=" stroke:none;fill-rule:nonzero;fill:rgb(66.666667%,0%,0%);fill-opacity:1;" d="M 3.800781 3.335938 C 20.003906 3.335938 36.207031 3.335938 52.410156 3.335938 C 52.410156 27.734375 52.40625 52.132812 52.410156 76.53125 C 36.210938 76.535156 20.007812 76.527344 3.808594 76.539062 C 3.796875 52.136719 3.804688 27.734375 3.800781 3.335938 M 16.851562 10.980469 C 16.636719 11.15625 16.609375 11.460938 16.601562 11.71875 C 16.601562 16.289062 16.601562 20.855469 16.601562 25.425781 C 16.605469 25.683594 16.632812 25.984375 16.847656 26.164062 C 17.046875 26.320312 17.320312 26.332031 17.566406 26.339844 C 24.597656 26.34375 31.632812 26.339844 38.667969 26.339844 C 38.914062 26.332031 39.1875 26.328125 39.394531 26.171875 C 39.605469 25.992188 39.636719 25.691406 39.644531 25.429688 C 39.648438 24.351562 39.644531 23.269531 39.644531 22.191406 C 39.640625 21.921875 39.640625 21.617188 39.460938 21.394531 C 39.234375 21.152344 38.875 21.183594 38.574219 21.167969 C 35.835938 21.167969 33.097656 21.167969 30.363281 21.167969 C 30.359375 18.332031 30.363281 15.5 30.359375 12.664062 C 30.351562 12.410156 30.351562 12.128906 30.191406 11.917969 C 29.984375 11.683594 29.644531 11.6875 29.355469 11.671875 C 28.535156 11.671875 27.710938 11.667969 26.886719 11.675781 C 26.601562 11.691406 26.257812 11.691406 26.070312 11.949219 C 25.925781 12.15625 25.9375 12.425781 25.921875 12.667969 C 25.921875 15.5 25.921875 18.335938 25.921875 21.167969 C 24.300781 21.167969 22.675781 21.167969 21.050781 21.167969 C 21.050781 18.046875 21.050781 14.925781 21.050781 11.804688 C 21.046875 11.554688 21.050781 11.273438 20.886719 11.066406 C 20.707031 10.839844 20.394531 10.820312 20.128906 10.8125 C 19.3125 10.804688 18.492188 10.8125 17.675781 10.808594 C 17.398438 10.820312 17.082031 10.796875 16.851562 10.980469 M 37.863281 29.960938 C 35.160156 31.601562 32.457031 33.242188 29.75 34.878906 C 29.035156 33.71875 28.144531 32.617188 26.9375 31.945312 C 25.492188 31.117188 23.753906 31.019531 22.136719 31.238281 C 20.667969 31.433594 19.210938 32.085938 18.269531 33.265625 C 17.015625 34.792969 16.667969 36.839844 16.605469 38.761719 C 16.597656 41.554688 16.605469 44.347656 16.601562 47.144531 C 16.605469 47.410156 16.609375 47.714844 16.804688 47.917969 C 17.007812 48.113281 17.308594 48.128906 17.574219 48.128906 C 24.542969 48.128906 31.507812 48.128906 38.480469 48.128906 C 38.78125 48.125 39.125 48.160156 39.382812 47.96875 C 39.605469 47.800781 39.636719 47.496094 39.644531 47.242188 C 39.648438 46.128906 39.644531 45.015625 39.644531 43.902344 C 39.640625 43.640625 39.617188 43.339844 39.421875 43.144531 C 39.207031 42.972656 38.921875 42.964844 38.660156 42.960938 C 32.730469 42.964844 26.800781 42.960938 20.871094 42.964844 C 20.867188 41.695312 20.859375 40.429688 20.875 39.160156 C 20.917969 38.335938 21.105469 37.417969 21.789062 36.878906 C 22.503906 36.324219 23.46875 36.308594 24.328125 36.398438 C 25.109375 36.46875 25.871094 36.898438 26.230469 37.613281 C 26.496094 38.046875 26.589844 38.546875 26.703125 39.035156 C 26.820312 39.5 27.347656 39.621094 27.75 39.726562 C 28.445312 39.882812 29.136719 40.0625 29.835938 40.210938 C 30.246094 40.300781 30.648438 40.128906 30.996094 39.933594 C 33.621094 38.464844 36.25 37.011719 38.867188 35.535156 C 39.328125 35.289062 39.648438 34.820312 39.640625 34.285156 C 39.652344 32.921875 39.640625 31.558594 39.644531 30.191406 C 39.664062 29.835938 39.460938 29.371094 39.042969 29.386719 C 38.597656 29.4375 38.246094 29.757812 37.863281 29.960938 M 31.824219 51.242188 C 30.351562 51.351562 28.898438 52.007812 27.957031 53.167969 C 26.804688 54.539062 26.265625 56.289062 25.851562 58 C 25.601562 58.925781 25.40625 59.867188 25.105469 60.777344 C 24.890625 61.410156 24.5625 62.074219 23.941406 62.390625 C 23.304688 62.683594 22.519531 62.675781 21.902344 62.328125 C 21.351562 62.015625 21.066406 61.394531 20.921875 60.800781 C 20.707031 59.855469 20.773438 58.875 20.789062 57.914062 C 20.832031 56.574219 20.898438 55.234375 21.019531 53.898438 C 21.027344 53.554688 21.105469 53.167969 20.914062 52.855469 C 20.742188 52.589844 20.402344 52.550781 20.121094 52.488281 C 19.273438 52.347656 18.421875 52.214844 17.570312 52.074219 C 17.347656 52.035156 17.085938 52.039062 16.910156 52.199219 C 16.738281 52.367188 16.699219 52.617188 16.667969 52.847656 C 16.527344 53.988281 16.464844 55.140625 16.410156 56.289062 C 16.367188 58.382812 16.234375 60.523438 16.757812 62.574219 C 17.113281 64.023438 17.804688 65.445312 18.960938 66.417969 C 20.09375 67.378906 21.613281 67.796875 23.085938 67.765625 C 24.601562 67.769531 26.171875 67.371094 27.367188 66.398438 C 28.515625 65.484375 29.242188 64.144531 29.660156 62.757812 C 30.03125 61.464844 30.304688 60.148438 30.6875 58.859375 C 30.921875 58.152344 31.199219 57.402344 31.78125 56.902344 C 32.441406 56.371094 33.410156 56.390625 34.160156 56.699219 C 34.964844 57.078125 35.199219 58.035156 35.304688 58.84375 C 35.554688 61.0625 35.328125 63.296875 35.179688 65.511719 C 35.152344 66.019531 35.03125 66.542969 35.167969 67.042969 C 35.265625 67.359375 35.617188 67.457031 35.90625 67.515625 C 36.792969 67.660156 37.6875 67.78125 38.578125 67.933594 C 38.828125 67.964844 39.128906 68.003906 39.324219 67.800781 C 39.566406 67.523438 39.53125 67.121094 39.589844 66.777344 C 39.75 65.03125 39.839844 63.277344 39.851562 61.523438 C 39.875 59.5625 39.726562 57.570312 39.078125 55.707031 C 38.605469 54.355469 37.800781 53.074219 36.59375 52.269531 C 35.207031 51.328125 33.460938 51.101562 31.824219 51.242188 Z M 31.824219 51.242188 "/>
    <path style=" stroke:none;fill-rule:nonzero;fill:rgb(66.666667%,0%,0%);fill-opacity:1;" d="M 57.640625 3.636719 C 74.910156 3.644531 92.175781 3.636719 109.445312 3.640625 C 116.007812 3.636719 122.570312 3.648438 129.132812 3.632812 C 129.15625 27.902344 129.132812 52.167969 129.144531 76.4375 C 105.308594 76.441406 81.46875 76.441406 57.632812 76.4375 C 57.640625 52.167969 57.625 27.902344 57.640625 3.636719 M 100.78125 11.597656 C 98.738281 13 96.738281 14.472656 94.71875 15.910156 C 92.214844 17.648438 89.691406 19.359375 87.246094 21.175781 C 86.984375 21.390625 86.691406 21.574219 86.472656 21.832031 C 86.453125 37.136719 86.472656 52.445312 86.460938 67.753906 C 91.667969 67.757812 96.875 67.753906 102.082031 67.757812 C 102.078125 48.765625 102.089844 29.769531 102.074219 10.777344 C 101.621094 11.015625 101.203125 11.3125 100.78125 11.597656 Z M 100.78125 11.597656 "/>
    <path style=" stroke:none;fill-rule:nonzero;fill:rgb(100%,100%,100%);fill-opacity:1;" d="M 16.851562 10.980469 C 17.082031 10.796875 17.398438 10.820312 17.675781 10.808594 C 18.492188 10.8125 19.3125 10.804688 20.128906 10.8125 C 20.394531 10.820312 20.707031 10.839844 20.886719 11.066406 C 21.050781 11.273438 21.046875 11.554688 21.050781 11.804688 C 21.050781 14.925781 21.050781 18.046875 21.050781 21.167969 C 22.675781 21.167969 24.300781 21.167969 25.921875 21.167969 C 25.921875 18.335938 25.921875 15.5 25.921875 12.667969 C 25.9375 12.425781 25.925781 12.15625 26.070312 11.949219 C 26.257812 11.691406 26.601562 11.691406 26.886719 11.675781 C 27.710938 11.667969 28.535156 11.671875 29.355469 11.671875 C 29.644531 11.6875 29.984375 11.683594 30.191406 11.917969 C 30.351562 12.128906 30.351562 12.410156 30.359375 12.664062 C 30.363281 15.5 30.359375 18.332031 30.363281 21.167969 C 33.097656 21.167969 35.835938 21.167969 38.574219 21.167969 C 38.875 21.183594 39.234375 21.152344 39.460938 21.394531 C 39.640625 21.617188 39.640625 21.921875 39.644531 22.191406 C 39.644531 23.269531 39.648438 24.351562 39.644531 25.429688 C 39.636719 25.691406 39.605469 25.992188 39.394531 26.171875 C 39.1875 26.328125 38.914062 26.332031 38.667969 26.339844 C 31.632812 26.339844 24.597656 26.34375 17.566406 26.339844 C 17.320312 26.332031 17.046875 26.320312 16.847656 26.164062 C 16.632812 25.984375 16.605469 25.683594 16.601562 25.425781 C 16.601562 20.855469 16.601562 16.289062 16.601562 11.71875 C 16.609375 11.460938 16.636719 11.15625 16.851562 10.980469 Z M 16.851562 10.980469 "/>
    <path style=" stroke:none;fill-rule:nonzero;fill:rgb(100%,100%,100%);fill-opacity:1;" d="M 100.78125 11.597656 C 101.203125 11.3125 101.621094 11.015625 102.074219 10.777344 C 102.089844 29.769531 102.078125 48.765625 102.082031 67.757812 C 96.875 67.753906 91.667969 67.757812 86.460938 67.753906 C 86.472656 52.445312 86.453125 37.136719 86.472656 21.832031 C 86.691406 21.574219 86.984375 21.390625 87.246094 21.175781 C 89.691406 19.359375 92.214844 17.648438 94.71875 15.910156 C 96.738281 14.472656 98.738281 13 100.78125 11.597656 Z M 100.78125 11.597656 "/>
    <path style=" stroke:none;fill-rule:nonzero;fill:rgb(100%,100%,100%);fill-opacity:1;" d="M 37.863281 29.960938 C 38.246094 29.757812 38.597656 29.4375 39.042969 29.386719 C 39.460938 29.371094 39.664062 29.835938 39.644531 30.191406 C 39.640625 31.558594 39.652344 32.921875 39.640625 34.285156 C 39.648438 34.820312 39.328125 35.289062 38.867188 35.535156 C 36.25 37.011719 33.621094 38.464844 30.996094 39.933594 C 30.648438 40.128906 30.246094 40.300781 29.835938 40.210938 C 29.136719 40.0625 28.445312 39.882812 27.75 39.726562 C 27.347656 39.621094 26.820312 39.5 26.703125 39.035156 C 26.589844 38.546875 26.496094 38.046875 26.230469 37.613281 C 25.871094 36.898438 25.109375 36.46875 24.328125 36.398438 C 23.46875 36.308594 22.503906 36.324219 21.789062 36.878906 C 21.105469 37.417969 20.917969 38.335938 20.875 39.160156 C 20.859375 40.429688 20.867188 41.695312 20.871094 42.964844 C 26.800781 42.960938 32.730469 42.964844 38.660156 42.960938 C 38.921875 42.964844 39.207031 42.972656 39.421875 43.144531 C 39.617188 43.339844 39.640625 43.640625 39.644531 43.902344 C 39.644531 45.015625 39.648438 46.128906 39.644531 47.242188 C 39.636719 47.496094 39.605469 47.800781 39.382812 47.96875 C 39.125 48.160156 38.78125 48.125 38.480469 48.128906 C 31.507812 48.128906 24.542969 48.128906 17.574219 48.128906 C 17.308594 48.128906 17.007812 48.113281 16.804688 47.917969 C 16.609375 47.714844 16.605469 47.410156 16.601562 47.144531 C 16.605469 44.347656 16.597656 41.554688 16.605469 38.761719 C 16.667969 36.839844 17.015625 34.792969 18.269531 33.265625 C 19.210938 32.085938 20.667969 31.433594 22.136719 31.238281 C 23.753906 31.019531 25.492188 31.117188 26.9375 31.945312 C 28.144531 32.617188 29.035156 33.71875 29.75 34.878906 C 32.457031 33.242188 35.160156 31.601562 37.863281 29.960938 Z M 37.863281 29.960938 "/>
    <path style=" stroke:none;fill-rule:nonzero;fill:rgb(100%,100%,100%);fill-opacity:1;" d="M 31.824219 51.242188 C 33.460938 51.101562 35.207031 51.328125 36.59375 52.269531 C 37.800781 53.074219 38.605469 54.355469 39.078125 55.707031 C 39.726562 57.570312 39.875 59.5625 39.851562 61.523438 C 39.839844 63.277344 39.75 65.03125 39.589844 66.777344 C 39.53125 67.121094 39.566406 67.523438 39.324219 67.800781 C 39.128906 68.003906 38.828125 67.964844 38.578125 67.933594 C 37.6875 67.78125 36.792969 67.660156 35.90625 67.515625 C 35.617188 67.457031 35.265625 67.359375 35.167969 67.042969 C 35.03125 66.542969 35.152344 66.019531 35.179688 65.511719 C 35.328125 63.296875 35.554688 61.0625 35.304688 58.84375 C 35.199219 58.035156 34.964844 57.078125 34.160156 56.699219 C 33.410156 56.390625 32.441406 56.371094 31.78125 56.902344 C 31.199219 57.402344 30.921875 58.152344 30.6875 58.859375 C 30.304688 60.148438 30.03125 61.464844 29.660156 62.757812 C 29.242188 64.144531 28.515625 65.484375 27.367188 66.398438 C 26.171875 67.371094 24.601562 67.769531 23.085938 67.765625 C 21.613281 67.796875 20.09375 67.378906 18.960938 66.417969 C 17.804688 65.445312 17.113281 64.023438 16.757812 62.574219 C 16.234375 60.523438 16.367188 58.382812 16.410156 56.289062 C 16.464844 55.140625 16.527344 53.988281 16.667969 52.847656 C 16.699219 52.617188 16.738281 52.367188 16.910156 52.199219 C 17.085938 52.039062 17.347656 52.035156 17.570312 52.074219 C 18.421875 52.214844 19.273438 52.347656 20.121094 52.488281 C 20.402344 52.550781 20.742188 52.589844 20.914062 52.855469 C 21.105469 53.167969 21.027344 53.554688 21.019531 53.898438 C 20.898438 55.234375 20.832031 56.574219 20.789062 57.914062 C 20.773438 58.875 20.707031 59.855469 20.921875 60.800781 C 21.066406 61.394531 21.351562 62.015625 21.902344 62.328125 C 22.519531 62.675781 23.304688 62.683594 23.941406 62.390625 C 24.5625 62.074219 24.890625 61.410156 25.105469 60.777344 C 25.40625 59.867188 25.601562 58.925781 25.851562 58 C 26.265625 56.289062 26.804688 54.539062 27.957031 53.167969 C 28.898438 52.007812 30.351562 51.351562 31.824219 51.242188 Z M 31.824219 51.242188 "/>
  </g>
</svg>