<?xml version="1.0" encoding="UTF-8" ?>
<!DOCTYPE svg PUBLIC "-//W3C//DTD SVG 1.1//EN" "http://www.w3.org/Graphics/SVG/1.1/DTD/svg11.dtd">
<svg width="1400pt" height="580pt" viewBox="0 0 1400 580" version="1.1" xmlns="http://www.w3.org/2000/svg">
<g id="#ffcc00ff">
<path fill="#ffcc00" opacity="1.00" d=" M 40.02 40.02 C 150.10 40.03 260.17 40.02 370.25 40.03 C 370.25 205.51 370.24 370.99 370.25 536.47 C 260.17 536.47 150.09 536.48 40.00 536.46 C 40.05 370.98 40.01 205.50 40.02 40.02 M 127.48 93.59 C 126.67 96.29 126.96 99.17 126.90 101.95 C 126.90 129.31 127.00 156.65 126.92 184.00 C 127.09 187.14 126.65 190.42 127.61 193.45 C 128.90 196.25 132.41 195.97 134.98 196.09 C 182.33 196.03 229.68 196.12 277.02 196.04 C 279.67 196.18 283.06 195.19 283.29 192.04 C 283.76 184.37 283.34 176.66 283.51 168.98 C 283.44 166.48 283.78 163.20 281.25 161.74 C 279.00 160.68 276.42 160.99 274.01 160.90 C 256.14 160.93 238.27 160.93 220.40 160.90 C 220.43 141.58 220.43 122.27 220.41 102.96 C 220.36 100.87 220.15 98.05 217.84 97.24 C 214.04 96.01 209.95 96.74 206.03 96.56 C 201.71 96.75 197.28 96.04 193.06 97.13 C 190.64 97.95 190.26 100.77 190.33 102.97 C 190.32 122.29 190.33 141.60 190.32 160.92 C 179.29 160.92 168.27 160.92 157.24 160.92 C 157.25 139.96 157.23 118.99 157.26 98.03 C 157.17 95.85 157.30 93.12 155.28 91.71 C 153.40 90.61 151.13 90.77 149.04 90.69 C 143.70 90.75 138.37 90.62 133.04 90.74 C 130.91 90.77 128.23 91.26 127.48 93.59 M 275.29 218.23 C 255.55 230.04 236.02 242.22 216.19 253.88 C 210.56 244.46 202.75 235.75 192.29 231.72 C 181.53 227.63 169.50 227.76 158.43 230.51 C 148.47 232.96 139.46 239.41 134.51 248.47 C 127.18 261.33 126.74 276.61 126.97 291.02 C 127.02 304.34 127.00 317.67 126.90 330.99 C 126.95 334.23 126.66 337.53 127.40 340.71 C 128.01 343.17 130.77 343.84 132.98 343.73 C 181.01 343.75 229.04 343.71 277.06 343.74 C 278.86 343.71 280.96 343.69 282.24 342.21 C 283.87 340.21 283.36 337.44 283.51 335.06 C 283.35 327.71 283.72 320.35 283.33 313.02 C 283.25 309.79 279.78 308.44 277.01 308.70 C 236.66 308.69 196.32 308.71 155.97 308.69 C 155.82 300.49 155.82 292.27 155.95 284.06 C 156.14 277.61 157.57 270.11 163.58 266.53 C 169.71 263.16 177.30 263.27 183.87 265.25 C 189.56 267.00 193.23 272.44 194.58 278.01 C 195.35 280.66 195.48 284.30 198.54 285.43 C 204.01 287.47 209.85 288.32 215.48 289.83 C 218.77 290.91 222.17 289.73 225.02 288.05 C 242.56 278.25 260.14 268.52 277.67 258.70 C 280.60 257.15 283.24 254.44 283.35 250.94 C 283.69 242.28 283.36 233.61 283.51 224.95 C 283.42 222.39 283.89 219.25 281.63 217.44 C 279.75 215.69 277.14 217.23 275.29 218.23 M 224.55 365.82 C 214.39 367.80 205.52 374.50 200.23 383.32 C 191.36 397.39 189.73 414.33 184.62 429.84 C 183.04 434.55 180.28 439.56 175.27 441.21 C 170.38 442.51 164.44 442.11 160.69 438.36 C 156.75 434.27 155.70 428.36 155.41 422.91 C 155.05 409.25 155.93 395.60 157.06 382.00 C 157.17 379.58 157.51 376.43 155.25 374.86 C 152.17 373.12 148.50 373.17 145.11 372.46 C 140.41 371.88 135.77 370.49 131.02 370.53 C 128.35 370.73 127.63 373.75 127.41 375.94 C 125.97 388.22 125.56 400.61 125.36 412.97 C 125.10 428.64 126.54 445.26 135.13 458.83 C 140.96 468.31 151.13 474.74 162.10 476.36 C 172.51 477.60 183.55 476.97 193.05 472.19 C 202.52 467.61 209.43 458.95 213.37 449.35 C 218.30 437.13 219.64 423.79 224.51 411.54 C 226.42 406.84 229.74 401.99 235.02 400.87 C 239.79 399.98 245.39 400.42 249.06 403.92 C 253.00 407.91 253.72 413.82 254.33 419.14 C 255.35 434.10 254.22 449.09 252.90 463.99 C 252.75 466.62 252.34 469.33 252.99 471.93 C 254.12 475.11 258.04 475.14 260.82 475.75 C 266.92 476.46 272.93 477.91 279.05 478.34 C 282.51 477.84 282.76 473.79 283.07 471.06 C 284.33 456.06 285.18 440.99 284.79 425.92 C 284.31 414.57 282.93 403.07 278.61 392.48 C 275.14 383.73 269.30 375.70 261.12 370.84 C 250.24 364.34 236.78 363.52 224.55 365.82 Z" />
<path fill="#ffcc00" opacity="1.00" d=" M 402.19 42.07 C 721.46 42.10 1040.72 42.07 1359.98 42.09 C 1359.98 207.85 1359.95 373.60 1360.00 539.35 C 1040.71 539.36 721.42 539.38 402.14 539.34 C 402.26 373.59 402.15 207.83 402.19 42.07 M 1053.03 183.97 C 1039.53 188.83 1026.98 196.65 1017.31 207.33 C 1006.07 219.36 998.84 234.64 994.60 250.43 C 989.63 269.10 988.44 288.59 989.19 307.84 C 989.92 324.60 992.50 341.48 998.80 357.12 C 1004.03 370.10 1012.13 382.03 1022.90 391.04 C 1042.85 407.94 1069.52 414.07 1095.05 415.55 C 1117.76 416.33 1140.56 415.72 1163.09 412.61 C 1173.26 411.03 1183.55 409.24 1193.04 405.09 C 1194.35 387.75 1195.70 370.40 1197.10 353.07 C 1177.68 357.21 1157.84 359.08 1138.02 359.64 C 1125.30 359.98 1112.37 360.53 1099.90 357.55 C 1090.38 355.37 1080.92 351.09 1074.49 343.52 C 1068.27 336.37 1065.73 326.51 1066.77 317.19 C 1112.24 317.18 1157.70 317.20 1203.17 317.18 C 1202.99 296.47 1202.21 275.68 1198.87 255.21 C 1196.14 239.10 1191.90 222.87 1183.18 208.88 C 1176.85 198.69 1167.62 190.31 1156.71 185.28 C 1142.45 178.62 1126.50 176.92 1110.94 176.32 C 1091.43 175.73 1071.50 177.21 1053.03 183.97 M 446.90 179.68 C 446.92 204.36 446.97 229.05 447.01 253.73 C 475.18 253.72 503.35 253.73 531.52 253.72 C 502.37 289.86 473.29 326.06 444.16 362.21 C 443.19 363.21 443.50 364.68 443.42 365.94 C 443.50 381.42 443.43 396.90 443.45 412.39 C 511.50 412.40 579.55 412.34 647.59 412.42 C 647.69 387.72 647.60 363.03 647.64 338.34 C 617.12 338.33 586.60 338.36 556.07 338.32 C 585.53 301.94 614.83 265.43 644.17 228.95 C 642.84 212.54 641.79 196.11 640.62 179.68 C 576.04 179.63 511.47 179.64 446.90 179.68 M 661.67 179.65 C 680.54 257.20 699.21 334.81 718.04 412.37 C 741.48 412.43 764.92 412.33 788.37 412.41 C 800.26 372.57 811.74 332.60 823.63 292.75 C 835.49 332.59 847.09 372.50 858.82 412.38 C 883.48 412.37 908.15 412.42 932.82 412.35 C 950.32 334.76 967.98 257.21 985.58 179.64 C 958.60 179.65 931.63 179.68 904.66 179.63 C 898.04 217.10 891.90 254.65 885.22 292.11 C 876.29 254.66 867.62 217.15 858.86 179.67 C 836.56 179.63 814.27 179.64 791.98 179.67 C 783.18 217.22 774.36 254.77 765.62 292.34 C 760.37 256.27 755.44 220.16 750.36 184.08 C 749.99 182.64 750.17 180.92 749.33 179.68 C 720.11 179.60 690.89 179.67 661.67 179.65 M 1231.96 179.66 C 1231.94 257.23 1231.95 334.80 1231.95 412.38 C 1258.93 412.38 1285.92 412.41 1312.90 412.36 C 1312.81 334.79 1312.86 257.23 1312.87 179.66 C 1285.90 179.64 1258.93 179.65 1231.96 179.66 Z" />
<path fill="#ffcc00" opacity="1.00" d=" M 1070.57 242.56 C 1074.70 233.44 1083.60 225.76 1094.01 225.82 C 1101.48 225.99 1109.63 224.63 1116.42 228.55 C 1124.21 232.71 1129.41 240.67 1131.59 249.08 C 1133.43 255.85 1132.85 262.93 1132.96 269.86 C 1110.92 269.88 1088.88 269.86 1066.84 269.87 C 1066.76 260.68 1066.30 251.00 1070.57 242.56 Z" />
</g>
<g id="#ffffffff">
<path fill="#ffffff" opacity="1.00" d=" M 127.48 93.59 C 128.23 91.26 130.91 90.77 133.04 90.74 C 138.37 90.62 143.70 90.75 149.04 90.69 C 151.13 90.77 153.40 90.61 155.28 91.71 C 157.30 93.12 157.17 95.85 157.26 98.03 C 157.23 118.99 157.25 139.96 157.24 160.92 C 168.27 160.92 179.29 160.92 190.32 160.92 C 190.33 141.60 190.32 122.29 190.33 102.97 C 190.26 100.77 190.64 97.95 193.06 97.13 C 197.28 96.04 201.71 96.75 206.03 96.56 C 209.95 96.74 214.04 96.01 217.84 97.24 C 220.15 98.05 220.36 100.87 220.41 102.96 C 220.43 122.27 220.43 141.58 220.40 160.90 C 238.27 160.93 256.14 160.93 274.01 160.90 C 276.42 160.99 279.00 160.68 281.25 161.74 C 283.78 163.20 283.44 166.48 283.51 168.98 C 283.34 176.66 283.76 184.37 283.29 192.04 C 283.06 195.19 279.67 196.18 277.02 196.04 C 229.68 196.12 182.33 196.03 134.98 196.09 C 132.41 195.97 128.90 196.25 127.61 193.45 C 126.65 190.42 127.09 187.14 126.92 184.00 C 127.00 156.65 126.90 129.31 126.90 101.95 C 126.96 99.17 126.67 96.29 127.48 93.59 Z" />
<path fill="#ffffff" opacity="1.00" d=" M 1053.03 183.97 C 1071.50 177.21 1091.43 175.73 1110.94 176.32 C 1126.50 176.92 1142.45 178.62 1156.71 185.28 C 1167.62 190.31 1176.85 198.69 1183.18 208.88 C 1191.90 222.87 1196.14 239.10 1198.87 255.21 C 1202.21 275.68 1202.99 296.47 1203.17 317.18 C 1157.70 317.20 1112.24 317.18 1066.77 317.19 C 1065.73 326.51 1068.27 336.37 1074.49 343.52 C 1080.92 351.09 1090.38 355.37 1099.90 357.55 C 1112.37 360.53 1125.30 359.98 1138.02 359.64 C 1157.84 359.08 1177.68 357.21 1197.10 353.07 C 1195.70 370.40 1194.35 387.75 1193.04 405.09 C 1183.55 409.24 1173.26 411.03 1163.09 412.61 C 1140.56 415.72 1117.76 416.33 1095.05 415.55 C 1069.52 414.07 1042.85 407.94 1022.90 391.04 C 1012.13 382.03 1004.03 370.10 998.80 357.12 C 992.50 341.48 989.92 324.60 989.19 307.84 C 988.44 288.59 989.63 269.10 994.60 250.43 C 998.84 234.64 1006.07 219.36 1017.31 207.33 C 1026.98 196.65 1039.53 188.83 1053.03 183.97 M 1070.57 242.56 C 1066.30 251.00 1066.76 260.68 1066.84 269.87 C 1088.88 269.86 1110.92 269.88 1132.96 269.86 C 1132.85 262.93 1133.43 255.85 1131.59 249.08 C 1129.41 240.67 1124.21 232.71 1116.42 228.55 C 1109.63 224.63 1101.48 225.99 1094.01 225.82 C 1083.60 225.76 1074.70 233.44 1070.57 242.56 Z" />
<path fill="#ffffff" opacity="1.00" d=" M 446.90 179.68 C 511.47 179.64 576.04 179.63 640.62 179.68 C 641.79 196.11 642.84 212.54 644.17 228.95 C 614.83 265.43 585.53 301.94 556.07 338.32 C 586.60 338.36 617.12 338.33 647.64 338.34 C 647.60 363.03 647.69 387.72 647.59 412.42 C 579.55 412.34 511.50 412.40 443.45 412.39 C 443.43 396.90 443.50 381.42 443.42 365.94 C 443.50 364.68 443.19 363.21 444.16 362.21 C 473.29 326.06 502.37 289.86 531.52 253.72 C 503.35 253.73 475.18 253.72 447.01 253.73 C 446.97 229.05 446.92 204.36 446.90 179.68 Z" />
<path fill="#ffffff" opacity="1.00" d=" M 661.67 179.65 C 690.89 179.67 720.11 179.60 749.33 179.68 C 750.17 180.92 749.99 182.64 750.36 184.08 C 755.44 220.16 760.37 256.27 765.62 292.34 C 774.36 254.77 783.18 217.22 791.98 179.67 C 814.27 179.64 836.56 179.63 858.86 179.67 C 867.62 217.15 876.29 254.66 885.22 292.11 C 891.90 254.65 898.04 217.10 904.66 179.63 C 931.63 179.68 958.60 179.65 985.58 179.64 C 967.98 257.21 950.32 334.76 932.82 412.35 C 908.15 412.42 883.48 412.37 858.82 412.38 C 847.09 372.50 835.49 332.59 823.63 292.75 C 811.74 332.60 800.26 372.57 788.37 412.41 C 764.92 412.33 741.48 412.43 718.04 412.37 C 699.21 334.81 680.54 257.20 661.67 179.65 Z" />
<path fill="#ffffff" opacity="1.00" d=" M 1231.96 179.66 C 1258.93 179.65 1285.90 179.64 1312.87 179.66 C 1312.86 257.23 1312.81 334.79 1312.90 412.36 C 1285.92 412.41 1258.93 412.38 1231.95 412.38 C 1231.95 334.80 1231.94 257.23 1231.96 179.66 Z" />
<path fill="#ffffff" opacity="1.00" d=" M 275.29 218.23 C 277.14 217.23 279.75 215.69 281.63 217.44 C 283.89 219.25 283.42 222.39 283.51 224.95 C 283.36 233.61 283.69 242.28 283.35 250.94 C 283.24 254.44 280.60 257.15 277.67 258.70 C 260.14 268.52 242.56 278.25 225.02 288.05 C 222.17 289.73 218.77 290.91 215.48 289.83 C 209.85 288.32 204.01 287.47 198.54 285.43 C 195.48 284.30 195.35 280.66 194.58 278.01 C 193.23 272.44 189.56 267.00 183.87 265.25 C 177.30 263.27 169.71 263.16 163.58 266.53 C 157.57 270.11 156.14 277.61 155.95 284.06 C 155.82 292.27 155.82 300.49 155.97 308.69 C 196.32 308.71 236.66 308.69 277.01 308.70 C 279.78 308.44 283.25 309.79 283.33 313.02 C 283.72 320.35 283.35 327.71 283.51 335.06 C 283.36 337.44 283.87 340.21 282.24 342.21 C 280.96 343.69 278.86 343.71 277.06 343.74 C 229.04 343.71 181.01 343.75 132.98 343.73 C 130.77 343.84 128.01 343.17 127.40 340.71 C 126.66 337.53 126.95 334.23 126.90 330.99 C 127.00 317.67 127.02 304.34 126.97 291.02 C 126.74 276.61 127.18 261.33 134.51 248.47 C 139.46 239.41 148.47 232.96 158.43 230.51 C 169.50 227.76 181.53 227.63 192.29 231.72 C 202.75 235.75 210.56 244.46 216.19 253.88 C 236.02 242.22 255.55 230.04 275.29 218.23 Z" />
<path fill="#ffffff" opacity="1.00" d=" M 224.55 365.82 C 236.78 363.52 250.24 364.34 261.12 370.84 C 269.30 375.70 275.14 383.73 278.61 392.48 C 282.93 403.07 284.31 414.57 284.79 425.92 C 285.18 440.99 284.33 456.06 283.07 471.06 C 282.76 473.79 282.51 477.84 279.05 478.34 C 272.93 477.91 266.92 476.46 260.82 475.75 C 258.04 475.14 254.12 475.11 252.99 471.93 C 252.34 469.33 252.75 466.62 252.90 463.99 C 254.22 449.09 255.35 434.10 254.33 419.14 C 253.72 413.82 253.00 407.91 249.06 403.92 C 245.39 400.42 239.79 399.98 235.02 400.87 C 229.74 401.99 226.42 406.84 224.51 411.54 C 219.64 423.79 218.30 437.13 213.37 449.35 C 209.43 458.95 202.52 467.61 193.05 472.19 C 183.55 476.97 172.51 477.60 162.10 476.36 C 151.13 474.74 140.96 468.31 135.13 458.83 C 126.54 445.26 125.10 428.64 125.36 412.97 C 125.56 400.61 125.97 388.22 127.41 375.94 C 127.63 373.75 128.35 370.73 131.02 370.53 C 135.77 370.49 140.41 371.88 145.11 372.46 C 148.50 373.17 152.17 373.12 155.25 374.86 C 157.51 376.43 157.17 379.58 157.06 382.00 C 155.93 395.60 155.05 409.25 155.41 422.91 C 155.70 428.36 156.75 434.27 160.69 438.36 C 164.44 442.11 170.38 442.51 175.27 441.21 C 180.28 439.56 183.04 434.55 184.62 429.84 C 189.73 414.33 191.36 397.39 200.23 383.32 C 205.52 374.50 214.39 367.80 224.55 365.82 Z" />
</g>
</svg>
