<?xml version="1.0" encoding="UTF-8" ?>
<!DOCTYPE svg PUBLIC "-//W3C//DTD SVG 1.1//EN" "http://www.w3.org/Graphics/SVG/1.1/DTD/svg11.dtd">
<svg width="1400pt" height="540pt" viewBox="0 0 1400 540" version="1.1" xmlns="http://www.w3.org/2000/svg">
<g id="#b10120ff">
<path fill="#b10120" opacity="1.00" d=" M 40.02 35.02 C 142.20 35.05 244.38 34.98 346.56 35.06 C 346.52 191.21 346.53 347.37 346.55 503.53 C 244.39 503.56 142.23 503.49 40.07 503.57 C 39.97 347.39 40.06 191.21 40.02 35.02 M 121.83 88.94 C 120.81 90.42 120.75 92.26 120.74 93.98 C 120.77 122.65 120.76 151.33 120.75 180.00 C 120.74 182.05 121.06 184.79 123.29 185.62 C 126.09 186.57 129.11 186.06 132.01 186.17 C 175.00 186.18 218.00 186.15 260.99 186.19 C 262.71 186.13 264.65 186.19 266.08 185.05 C 267.71 183.50 267.50 181.10 267.58 179.05 C 267.56 172.70 267.57 166.35 267.57 160.00 C 267.51 158.18 267.61 156.15 266.38 154.66 C 264.98 153.21 262.83 153.42 260.99 153.31 C 243.49 153.32 225.98 153.27 208.47 153.33 C 208.37 134.89 208.52 116.45 208.40 98.01 C 208.69 95.40 206.80 92.94 204.12 92.85 C 197.70 92.67 191.26 92.69 184.83 92.84 C 182.08 92.80 179.99 95.20 180.24 97.90 C 180.12 116.37 180.24 134.84 180.19 153.31 C 169.84 153.30 159.50 153.31 149.15 153.30 C 149.14 133.20 149.19 113.10 149.13 93.00 C 149.28 90.67 148.23 87.92 145.62 87.57 C 140.44 86.96 135.19 87.45 129.98 87.28 C 127.25 87.43 123.96 86.78 121.83 88.94 M 258.76 207.72 C 240.77 218.74 222.62 229.48 204.68 240.58 C 200.24 233.81 195.22 227.11 188.21 222.81 C 177.16 215.97 163.26 215.43 150.89 218.43 C 142.12 220.42 134.11 225.71 129.18 233.27 C 122.67 243.21 120.97 255.43 120.77 267.08 C 120.79 284.74 120.68 302.41 120.82 320.07 C 120.65 322.90 123.11 325.17 125.90 324.81 C 170.62 324.92 215.35 324.81 260.07 324.87 C 261.98 324.77 264.08 325.05 265.81 324.06 C 267.63 322.62 267.51 320.13 267.57 318.05 C 267.57 311.69 267.56 305.34 267.57 298.98 C 267.53 296.87 267.63 294.40 265.85 292.89 C 262.77 291.54 259.29 292.05 256.02 291.94 C 219.97 291.89 183.91 292.08 147.85 291.84 C 148.00 282.77 147.52 273.68 148.35 264.63 C 148.81 260.32 150.46 255.82 154.01 253.11 C 157.44 250.62 161.80 249.93 165.95 249.89 C 170.75 250.00 175.97 250.91 179.50 254.45 C 182.88 257.77 184.14 262.48 185.19 266.95 C 185.64 269.64 188.57 270.56 190.85 271.16 C 195.59 272.27 200.31 273.51 205.09 274.48 C 208.02 275.14 210.81 273.67 213.30 272.31 C 228.49 263.80 243.71 255.36 258.90 246.86 C 261.18 245.54 263.65 244.42 265.50 242.50 C 267.39 240.50 267.55 237.61 267.57 235.01 C 267.56 227.00 267.58 218.99 267.56 210.99 C 267.61 208.98 266.99 206.60 264.96 205.75 C 262.68 205.20 260.64 206.64 258.76 207.72 M 211.47 345.78 C 201.60 347.88 193.36 354.90 188.52 363.62 C 180.99 376.59 179.47 391.81 174.80 405.85 C 173.29 410.26 170.67 415.00 165.89 416.42 C 161.34 417.42 155.81 417.26 152.40 413.63 C 148.42 409.53 147.63 403.49 147.42 398.03 C 147.22 385.34 148.08 372.68 149.01 360.03 C 149.17 357.73 149.09 354.67 146.57 353.64 C 142.17 352.10 137.44 351.95 132.90 351.01 C 129.68 350.62 126.28 349.43 123.08 350.51 C 121.23 352.14 121.27 354.75 120.95 356.98 C 119.83 369.29 119.18 381.64 119.25 394.00 C 119.31 405.17 120.59 416.59 125.20 426.88 C 128.65 434.71 134.46 441.70 142.18 445.61 C 151.06 450.27 161.50 450.59 171.23 449.19 C 181.79 447.49 191.61 441.43 197.39 432.37 C 203.91 422.79 205.62 411.13 208.62 400.19 C 210.36 393.93 211.80 387.20 216.10 382.12 C 220.11 377.47 227.25 377.27 232.58 379.49 C 237.40 381.69 239.12 387.32 239.78 392.16 C 241.68 406.74 240.04 421.45 239.11 436.04 C 238.99 439.45 237.91 443.20 239.59 446.40 C 241.19 448.14 243.71 448.31 245.89 448.71 C 251.62 449.53 257.33 450.60 263.10 451.20 C 265.33 451.21 266.69 449.12 266.80 447.09 C 268.45 433.80 268.81 420.38 268.82 407.00 C 268.86 394.27 267.52 381.26 262.53 369.44 C 258.82 360.57 252.23 352.65 243.39 348.59 C 233.49 344.04 222.02 343.50 211.47 345.78 Z" />
<path fill="#b10120" opacity="1.00" d=" M 382.79 35.03 C 708.52 35.02 1034.25 35.03 1359.98 35.03 C 1359.99 189.69 1359.95 344.36 1360.00 499.03 C 1359.53 500.33 1361.07 503.65 1358.85 503.54 C 1033.49 503.50 708.13 503.60 382.77 503.49 C 382.82 347.34 382.77 191.18 382.79 35.03 M 1145.00 139.90 C 1127.93 140.89 1110.72 143.86 1095.12 151.09 C 1080.91 157.47 1068.49 167.83 1059.83 180.80 C 1045.97 201.42 1041.40 226.62 1039.81 250.99 C 1039.04 268.94 1039.03 287.01 1041.44 304.85 C 1043.52 320.78 1047.48 336.67 1054.97 350.98 C 1061.44 363.46 1070.90 374.46 1082.65 382.24 C 1095.59 391.02 1110.80 395.82 1126.12 398.34 C 1146.76 401.37 1167.91 401.30 1188.49 397.75 C 1207.88 394.33 1227.07 386.34 1240.94 372.00 C 1255.38 357.28 1263.26 337.41 1267.19 317.46 C 1271.58 294.25 1272.11 270.42 1270.32 246.91 C 1268.54 224.99 1264.00 202.63 1252.38 183.65 C 1243.43 168.82 1229.74 156.97 1213.84 150.11 C 1192.31 140.57 1168.25 138.85 1145.00 139.90 M 495.43 142.53 C 492.08 143.69 489.18 146.17 487.73 149.43 C 485.94 153.00 486.68 157.11 486.53 160.95 C 486.55 235.30 486.50 309.66 486.56 384.01 C 486.53 391.00 493.04 397.01 499.96 396.76 C 516.31 396.75 532.65 396.78 549.00 396.74 C 556.16 396.77 562.37 390.18 561.92 383.03 C 561.93 308.70 561.91 234.37 561.93 160.04 C 561.87 156.45 562.33 152.64 560.66 149.32 C 558.45 144.56 553.22 141.61 548.03 141.72 C 533.37 141.70 518.70 141.73 504.03 141.71 C 501.15 141.74 498.17 141.47 495.43 142.53 M 595.56 154.92 C 595.53 229.61 595.57 304.29 595.55 378.98 C 595.61 382.19 595.18 385.57 596.52 388.61 C 598.52 393.50 603.65 396.90 608.95 396.76 C 625.34 396.74 641.72 396.78 658.10 396.74 C 665.23 396.72 671.38 390.13 670.94 383.01 C 670.94 326.06 670.93 269.11 670.94 212.15 C 686.65 212.18 702.36 212.12 718.07 212.18 C 722.82 212.19 727.98 212.97 731.53 216.41 C 735.43 220.16 736.38 225.88 736.38 231.06 C 736.43 282.05 736.33 333.04 736.42 384.03 C 736.46 390.72 742.40 396.60 749.06 396.73 C 765.73 396.77 782.40 396.77 799.07 396.73 C 805.73 396.65 811.79 390.77 811.75 384.05 C 811.79 328.04 811.76 272.04 811.76 216.03 C 811.92 198.49 805.91 180.87 794.72 167.32 C 780.76 149.89 758.10 140.98 736.04 141.71 C 693.70 141.73 651.36 141.70 609.02 141.73 C 601.95 141.56 595.26 147.72 595.56 154.92 M 844.76 154.99 C 844.77 231.32 844.73 307.66 844.78 383.99 C 844.83 390.89 851.11 396.90 857.98 396.75 C 874.36 396.76 890.73 396.77 907.10 396.75 C 913.92 396.82 920.12 390.86 920.17 384.01 C 920.26 359.79 920.20 335.57 920.20 311.35 C 944.47 311.35 968.74 311.33 993.02 311.36 C 995.97 311.32 999.16 311.67 1001.84 310.11 C 1005.53 308.26 1007.80 304.15 1007.74 300.07 C 1007.73 284.74 1007.80 269.41 1007.70 254.09 C 1007.59 248.46 1002.57 243.49 996.92 243.59 C 971.35 243.49 945.77 243.59 920.19 243.55 C 920.21 232.22 920.23 220.90 920.18 209.58 C 950.13 209.53 980.08 209.59 1010.02 209.55 C 1015.67 209.65 1020.77 204.63 1020.73 198.97 C 1020.79 183.62 1020.76 168.27 1020.75 152.92 C 1020.92 148.61 1018.22 144.43 1014.27 142.74 C 1011.38 141.38 1008.13 141.76 1005.05 141.71 C 956.03 141.74 907.02 141.68 858.00 141.74 C 850.97 141.71 844.56 147.87 844.76 154.99 Z" />
<path fill="#b10120" opacity="1.00" d=" M 1141.49 203.62 C 1148.86 202.07 1156.49 202.20 1163.97 202.78 C 1173.09 203.64 1182.65 207.34 1187.66 215.45 C 1194.60 226.58 1195.22 240.17 1196.00 252.90 C 1196.52 267.58 1196.53 282.32 1195.11 296.95 C 1193.78 307.35 1191.84 318.56 1184.46 326.54 C 1177.23 334.22 1166.04 335.95 1155.98 335.89 C 1146.20 336.19 1135.55 334.64 1127.98 327.90 C 1120.18 320.84 1117.41 310.12 1115.92 300.08 C 1113.92 283.81 1113.92 267.36 1114.56 251.01 C 1115.39 239.21 1116.16 226.78 1122.36 216.37 C 1126.42 209.48 1133.74 205.12 1141.49 203.62 Z" />
</g>
<g id="#ffffffff">
<path fill="#ffffff" opacity="1.00" d=" M 121.83 88.94 C 123.96 86.78 127.25 87.43 129.98 87.28 C 135.19 87.45 140.44 86.96 145.62 87.57 C 148.23 87.92 149.28 90.67 149.13 93.00 C 149.19 113.10 149.14 133.20 149.15 153.30 C 159.50 153.31 169.84 153.30 180.19 153.31 C 180.24 134.84 180.12 116.37 180.24 97.90 C 179.99 95.20 182.08 92.80 184.83 92.84 C 191.26 92.69 197.70 92.67 204.12 92.85 C 206.80 92.94 208.69 95.40 208.40 98.01 C 208.52 116.45 208.37 134.89 208.47 153.33 C 225.98 153.27 243.49 153.32 260.99 153.31 C 262.83 153.42 264.98 153.21 266.38 154.66 C 267.61 156.15 267.51 158.18 267.57 160.00 C 267.57 166.35 267.56 172.70 267.58 179.05 C 267.50 181.10 267.71 183.50 266.08 185.05 C 264.65 186.19 262.71 186.13 260.99 186.19 C 218.00 186.15 175.00 186.18 132.01 186.17 C 129.11 186.06 126.09 186.57 123.29 185.62 C 121.06 184.79 120.74 182.05 120.75 180.00 C 120.76 151.33 120.77 122.65 120.74 93.98 C 120.75 92.26 120.81 90.42 121.83 88.94 Z" />
<path fill="#ffffff" opacity="1.00" d=" M 1145.00 139.90 C 1168.25 138.85 1192.31 140.57 1213.84 150.11 C 1229.74 156.97 1243.43 168.82 1252.38 183.65 C 1264.00 202.63 1268.54 224.99 1270.32 246.91 C 1272.11 270.42 1271.58 294.25 1267.19 317.46 C 1263.26 337.41 1255.38 357.28 1240.94 372.00 C 1227.07 386.34 1207.88 394.33 1188.49 397.75 C 1167.91 401.30 1146.76 401.37 1126.12 398.34 C 1110.80 395.82 1095.59 391.02 1082.65 382.24 C 1070.90 374.46 1061.44 363.46 1054.97 350.98 C 1047.48 336.67 1043.52 320.78 1041.44 304.85 C 1039.03 287.01 1039.04 268.94 1039.81 250.99 C 1041.40 226.62 1045.97 201.42 1059.83 180.80 C 1068.49 167.83 1080.91 157.47 1095.12 151.09 C 1110.72 143.86 1127.93 140.89 1145.00 139.90 M 1141.49 203.62 C 1133.74 205.12 1126.42 209.48 1122.36 216.37 C 1116.16 226.78 1115.39 239.21 1114.56 251.01 C 1113.92 267.36 1113.92 283.81 1115.92 300.08 C 1117.41 310.12 1120.18 320.84 1127.98 327.90 C 1135.55 334.64 1146.20 336.19 1155.98 335.89 C 1166.04 335.95 1177.23 334.22 1184.46 326.54 C 1191.84 318.56 1193.78 307.35 1195.11 296.95 C 1196.53 282.32 1196.52 267.58 1196.00 252.90 C 1195.22 240.17 1194.60 226.58 1187.66 215.45 C 1182.65 207.34 1173.09 203.64 1163.97 202.78 C 1156.49 202.20 1148.86 202.07 1141.49 203.62 Z" />
<path fill="#ffffff" opacity="1.00" d=" M 495.43 142.53 C 498.17 141.47 501.15 141.74 504.03 141.71 C 518.70 141.73 533.37 141.70 548.03 141.72 C 553.22 141.61 558.45 144.56 560.66 149.32 C 562.33 152.64 561.87 156.45 561.93 160.04 C 561.91 234.37 561.93 308.70 561.92 383.03 C 562.37 390.18 556.16 396.77 549.00 396.74 C 532.65 396.78 516.31 396.75 499.96 396.76 C 493.04 397.01 486.53 391.00 486.56 384.01 C 486.50 309.66 486.55 235.30 486.53 160.95 C 486.68 157.11 485.94 153.00 487.73 149.43 C 489.18 146.17 492.08 143.69 495.43 142.53 Z" />
<path fill="#ffffff" opacity="1.00" d=" M 595.56 154.92 C 595.26 147.72 601.95 141.56 609.02 141.73 C 651.36 141.70 693.70 141.73 736.04 141.71 C 758.10 140.98 780.76 149.89 794.72 167.32 C 805.91 180.87 811.92 198.49 811.76 216.03 C 811.76 272.04 811.79 328.04 811.75 384.05 C 811.79 390.77 805.73 396.65 799.07 396.73 C 782.40 396.77 765.73 396.77 749.06 396.73 C 742.40 396.60 736.46 390.72 736.42 384.03 C 736.33 333.04 736.43 282.05 736.38 231.06 C 736.38 225.88 735.43 220.16 731.53 216.41 C 727.98 212.97 722.82 212.19 718.07 212.18 C 702.36 212.12 686.65 212.18 670.94 212.15 C 670.93 269.11 670.94 326.06 670.94 383.01 C 671.38 390.13 665.23 396.72 658.10 396.74 C 641.72 396.78 625.34 396.74 608.95 396.76 C 603.65 396.90 598.52 393.50 596.52 388.61 C 595.18 385.57 595.61 382.19 595.55 378.98 C 595.57 304.29 595.53 229.61 595.56 154.92 Z" />
<path fill="#ffffff" opacity="1.00" d=" M 844.76 154.99 C 844.56 147.87 850.97 141.71 858.00 141.74 C 907.02 141.68 956.03 141.74 1005.05 141.71 C 1008.13 141.76 1011.38 141.38 1014.27 142.74 C 1018.22 144.43 1020.92 148.61 1020.75 152.92 C 1020.76 168.27 1020.79 183.62 1020.73 198.97 C 1020.77 204.63 1015.67 209.65 1010.02 209.55 C 980.08 209.59 950.13 209.53 920.18 209.58 C 920.23 220.90 920.21 232.22 920.19 243.55 C 945.77 243.59 971.35 243.49 996.92 243.59 C 1002.57 243.49 1007.59 248.46 1007.70 254.09 C 1007.80 269.41 1007.73 284.74 1007.74 300.07 C 1007.80 304.15 1005.53 308.26 1001.84 310.11 C 999.16 311.67 995.97 311.32 993.02 311.36 C 968.74 311.33 944.47 311.35 920.20 311.35 C 920.20 335.57 920.26 359.79 920.17 384.01 C 920.12 390.86 913.92 396.82 907.10 396.75 C 890.73 396.77 874.36 396.76 857.98 396.75 C 851.11 396.90 844.83 390.89 844.78 383.99 C 844.73 307.66 844.77 231.32 844.76 154.99 Z" />
<path fill="#ffffff" opacity="1.00" d=" M 258.76 207.72 C 260.64 206.64 262.68 205.20 264.96 205.75 C 266.99 206.60 267.61 208.98 267.56 210.99 C 267.58 218.99 267.56 227.00 267.57 235.01 C 267.55 237.61 267.39 240.50 265.50 242.50 C 263.65 244.42 261.18 245.54 258.90 246.86 C 243.71 255.36 228.49 263.80 213.30 272.31 C 210.81 273.67 208.02 275.14 205.09 274.48 C 200.31 273.51 195.59 272.27 190.85 271.16 C 188.57 270.56 185.64 269.64 185.19 266.95 C 184.14 262.48 182.88 257.77 179.50 254.45 C 175.97 250.91 170.75 250.00 165.95 249.89 C 161.80 249.93 157.44 250.62 154.01 253.11 C 150.46 255.82 148.81 260.32 148.35 264.63 C 147.52 273.68 148.00 282.77 147.85 291.84 C 183.91 292.08 219.97 291.89 256.02 291.94 C 259.29 292.05 262.77 291.54 265.85 292.89 C 267.63 294.40 267.53 296.87 267.57 298.98 C 267.56 305.34 267.57 311.69 267.57 318.05 C 267.51 320.13 267.63 322.62 265.81 324.06 C 264.08 325.05 261.98 324.77 260.07 324.87 C 215.35 324.81 170.62 324.92 125.90 324.81 C 123.11 325.17 120.65 322.90 120.82 320.07 C 120.68 302.41 120.79 284.74 120.77 267.08 C 120.97 255.43 122.67 243.21 129.18 233.27 C 134.11 225.71 142.12 220.42 150.89 218.43 C 163.26 215.43 177.16 215.97 188.21 222.81 C 195.22 227.11 200.24 233.81 204.68 240.58 C 222.62 229.48 240.77 218.74 258.76 207.72 Z" />
<path fill="#ffffff" opacity="1.00" d=" M 211.47 345.78 C 222.02 343.50 233.49 344.04 243.39 348.59 C 252.23 352.65 258.82 360.57 262.53 369.44 C 267.52 381.26 268.86 394.27 268.82 407.00 C 268.81 420.38 268.45 433.80 266.80 447.09 C 266.69 449.12 265.33 451.21 263.10 451.20 C 257.33 450.60 251.62 449.53 245.89 448.71 C 243.71 448.31 241.19 448.14 239.59 446.40 C 237.91 443.20 238.99 439.45 239.11 436.04 C 240.04 421.45 241.68 406.74 239.78 392.16 C 239.12 387.32 237.40 381.69 232.58 379.49 C 227.25 377.27 220.11 377.47 216.10 382.12 C 211.80 387.20 210.36 393.93 208.62 400.19 C 205.62 411.13 203.91 422.79 197.39 432.37 C 191.61 441.43 181.79 447.49 171.23 449.19 C 161.50 450.59 151.06 450.27 142.18 445.61 C 134.46 441.70 128.65 434.71 125.20 426.88 C 120.59 416.59 119.31 405.17 119.25 394.00 C 119.18 381.64 119.83 369.29 120.95 356.98 C 121.27 354.75 121.23 352.14 123.08 350.51 C 126.28 349.43 129.68 350.62 132.90 351.01 C 137.44 351.95 142.17 352.10 146.57 353.64 C 149.09 354.67 149.17 357.73 149.01 360.03 C 148.08 372.68 147.22 385.34 147.42 398.03 C 147.63 403.49 148.42 409.53 152.40 413.63 C 155.81 417.26 161.34 417.42 165.89 416.42 C 170.67 415.00 173.29 410.26 174.80 405.85 C 179.47 391.81 180.99 376.59 188.52 363.62 C 193.36 354.90 201.60 347.88 211.47 345.78 Z" />
</g>
</svg>
