<?xml version="1.0" encoding="UTF-8" standalone="no"?>
<svg
   xmlns:dc="http://purl.org/dc/elements/1.1/"
   xmlns:cc="http://creativecommons.org/ns#"
   xmlns:rdf="http://www.w3.org/1999/02/22-rdf-syntax-ns#"
   xmlns:svg="http://www.w3.org/2000/svg"
   xmlns="http://www.w3.org/2000/svg"
   viewBox="0 0 203.17332 169.75999"
   height="169.75999"
   width="203.17332"
   xml:space="preserve"
   id="svg2"
   version="1.1"><metadata
     id="metadata8"><rdf:RDF><cc:Work
         rdf:about=""><dc:format>image/svg+xml</dc:format><dc:type
           rdf:resource="http://purl.org/dc/dcmitype/StillImage" /></cc:Work></rdf:RDF></metadata><defs
     id="defs6" /><g
     transform="matrix(1.3333333,0,0,-1.3333333,0,169.76)"
     id="g10"><g
       transform="scale(0.1)"
       id="g12"><path
         id="path14"
         style="fill:#100f0d;fill-opacity:1;fill-rule:nonzero;stroke:none"
         d="m 891.824,49.6289 h 33 c 15.586,0.0195 35.188,10.1719 35.188,37.8125 0,27.6366 -19.602,37.7886 -35.199,37.8086 h -32.989 c 11.692,-2.23 21.074,-9.309 21.074,-37.8086 0,-28.5 -9.382,-35.5703 -21.074,-37.8125 z m -3.289,152.2421 h -32.656 c -15.441,-0.019 -34.844,-10.312 -34.844,-38.32 0,-27.992 19.403,-38.281 34.844,-38.301 h 32.656 c -11.562,2.27 -20.859,9.441 -20.859,38.301 0,28.871 9.285,36.058 20.859,38.32 z M 1011.48,125.27 H 956.141 L 1019.4,49.6719 h 59.11 z m -119.421,76.601 61.984,-74.101 v 74.101 z M 823.34,49.6719 h 65.195 L 823.34,117.559 Z m 190.95,75.5781 h 25.51 c 15.61,0.02 35.2,10.309 35.2,38.301 0,28.008 -24.99,38.301 -40.59,38.32 h -54.371 c 11.68,-2.262 49.351,0 49.351,-38.32 0,-38.301 -15.1,-38.301 -15.1,-38.301 z m 176.68,0.738 h -47.2 c -40.29,0 -45.84,-15.968 -45.84,-33.2575 v -1.6602 c 0,-21.8008 14.43,-32.8515 42.87,-32.8515 l 4.08,0.0195 c 19.05,0 36.09,11.9922 42.39,29.8398 2.47,6.9805 3.68,19.1599 3.68,37.2499 h 0.02 z m 10.93,-76.3161 h -10.92 l -0.01,21.9062 C 1180.8,56.7695 1163.81,47.4414 1145.19,47.3203 l -4.39,-0.0195 c -34.69,0 -53.78,15.5508 -53.78,43.7695 v 1.6602 c 0,30.1405 18.04,44.1795 56.75,44.1795 h 47.19 v 23.238 c 0,28.012 -24.36,32.192 -38.86,32.192 h -4.45 c -18.34,0 -39.97,-4.57 -41.99,-25.578 h -10.95 c 1.61,23.218 20.67,36.5 52.94,36.5 h 4.45 c 31.16,0 49.77,-16.09 49.77,-43.09 z m 125.24,38.2773 c 2.47,6.9727 3.66,19.1408 3.66,37.1988 0,26.762 -2.75,34.551 -3.66,37.114 -6.3,17.847 -23.33,29.828 -42.38,29.828 h -3.72 c -19.05,0 -36.06,-11.981 -42.37,-29.828 -1.58,-4.453 -3.66,-13.121 -3.66,-37.114 0,-26.8277 2.75,-34.6285 3.66,-37.1988 6.31,-17.8398 23.32,-29.8281 42.37,-29.8281 h 3.72 c 19.05,0 36.08,11.9883 42.38,29.8281 m 3.69,-16.4883 c -10.24,-14.8828 -27.35,-24.2421 -46.07,-24.2421 h -3.72 c -23.65,0 -44.81,14.9101 -52.64,37.1093 -1.85,5.2032 -4.29,15.0821 -4.29,40.8199 0,25.372 2.28,35.102 4.29,40.731 7.83,22.199 28.99,37.109 52.64,37.109 h 3.72 c 18.72,0 35.83,-9.359 46.07,-24.238 v 69.539 h 10.89 V 49.6094 h -10.89 z M 1466.82,192.09 c 19.05,0 36.07,-11.988 42.38,-29.852 0.9,-2.547 3.65,-10.328 3.65,-37.09 0,-18.058 -1.19,-30.2261 -3.65,-37.1988 -6.31,-17.8398 -23.33,-29.8281 -42.38,-29.8281 h -3.72 c -19.04,0 -36.07,11.9883 -42.37,29.8281 -0.91,2.5703 -3.66,10.3516 -3.66,37.1988 0,23.973 2.09,32.661 3.66,37.09 6.3,17.864 23.33,29.852 42.37,29.852 z m 0,-144.8712 c 23.66,0 44.81,14.9101 52.65,37.0898 1.84,5.2031 4.28,15.1016 4.28,40.8394 0,25.364 -2.29,35.082 -4.28,40.731 -7.84,22.18 -28.99,37.09 -52.65,37.09 h -3.72 c -23.65,0 -44.8,-14.91 -52.64,-37.09 -2,-5.649 -4.29,-15.367 -4.29,-40.731 0,-25.7378 2.45,-35.6363 4.28,-40.8394 7.85,-22.1797 29,-37.0898 52.65,-37.0898 h 3.72 M 482.273,201.25 c -4.511,1.148 -9.168,1.738 -13.972,1.738 h -3.723 c -18.68,0 -35.777,-9.34 -46.015,-24.179 v 21.91 H 407.668 V 49.6289 h 10.895 V 127.75 c 0.148,21.988 2.128,30.238 3.644,34.512 6.309,17.847 23.328,29.828 42.371,29.828 h 3.723 c 4.851,0 9.512,-0.801 13.972,-2.231 z m 899.037,-24.199 v 23.668 h -10.9 V 49.6289 h 10.9 z m 0,71.199 h -10.91 v -29.102 h 10.91 v 10.301 z M 516.941,181.77 v 18.949 H 506.047 V 49.6289 h 10.894 z m 0,66.48 h -10.906 v -29.102 h 10.906 V 238.02 Z M 81.7461,136.602 c -27.6445,0 -41.6563,8.976 -41.6563,26.699 0,12.32 4.0118,28.73 38.75,28.73 h 4.4219 c 31.7893,0 37.8513,-13.73 38.6523,-25.531 h 10.906 c -1.023,17.328 -10.925,36.43 -49.5583,36.43 h -4.4219 c -41.0351,0 -49.6523,-21.571 -49.6523,-39.629 0,-14.063 6.8281,-37.602 52.5586,-37.602 40.2739,0 45.7029,-17.621 45.7029,-34.8396 0,-21.7383 -14.383,-32.7578 -42.7615,-32.7578 h -7.2852 c -28.371,0 -42.7539,11.0195 -42.7539,32.7578 H 23.75 c 0,-28.1485 19.0547,-43.668 53.6523,-43.668 h 7.2852 c 34.6095,0 53.6605,15.5195 53.6605,43.668 0,30.7816 -18.504,45.7426 -56.6019,45.7426 M 279.98,162.219 c -1.289,-3.629 -2.91,-10.09 -3.457,-25.449 h 95.43 c -0.644,17.468 -2.734,23.378 -3.457,25.449 -6.308,17.859 -23.34,29.851 -42.402,29.851 h -3.723 c -19.051,0 -36.082,-11.992 -42.391,-29.851 M 383.641,86.9688 382.109,82.6016 C 374.734,61.7383 351.711,47.1484 326.094,47.1484 h -3.723 c -23.66,0 -44.82,14.9219 -52.664,37.1211 -1.836,5.1993 -4.277,15.0821 -4.277,40.8325 0,25.386 2.285,35.109 4.277,40.757 7.844,22.2 29.004,37.11 52.664,37.11 h 3.723 c 23.672,0 44.836,-14.91 52.676,-37.11 1.652,-4.668 3.886,-13.32 4.238,-34.437 l 0.086,-5.543 H 276.328 v -0.777 c 0,-26.8403 2.754,-34.6332 3.652,-37.2114 6.309,-17.832 23.34,-29.832 42.391,-29.832 h 3.723 c 20.742,0 39.961,11.8398 45.73,28.1719 l 0.266,0.7383 z m 314.875,75.2502 c -1.289,-3.629 -2.922,-10.09 -3.477,-25.449 h 95.438 c -0.633,17.468 -2.735,23.378 -3.465,25.449 -6.309,17.859 -23.34,29.851 -42.383,29.851 h -3.731 c -19.054,0 -36.085,-11.992 -42.382,-29.851 M 802.168,86.9688 800.625,82.6016 C 793.262,61.7383 770.234,47.1484 744.629,47.1484 h -3.731 c -23.664,0 -44.824,14.9219 -52.668,37.1211 -1.835,5.1993 -4.285,15.0821 -4.285,40.8325 0,25.386 2.285,35.109 4.285,40.757 7.844,22.2 29.004,37.11 52.668,37.11 h 3.731 c 23.652,0 44.824,-14.91 52.656,-37.11 1.66,-4.668 3.887,-13.32 4.238,-34.437 l 0.098,-5.543 H 694.844 v -0.777 c 0,-26.8403 2.754,-34.6332 3.672,-37.2114 6.297,-17.832 23.328,-29.832 42.382,-29.832 h 3.731 c 20.723,0 39.949,11.8398 45.723,28.1719 l 0.261,0.7383 z m -155.07,0.9414 c 2.461,6.9687 3.664,19.1408 3.664,37.1988 0,26.782 -2.754,34.582 -3.664,37.129 -6.317,17.864 -23.336,29.852 -42.391,29.852 h -3.73 c -19.043,0 -36.086,-11.988 -42.383,-29.852 -1.574,-4.449 -3.664,-13.117 -3.664,-37.129 0,-26.8277 2.754,-34.6207 3.664,-37.1988 6.297,-17.8321 23.34,-29.8516 42.383,-29.8516 h 3.73 c 19.055,0 36.074,12.0195 42.391,29.8516 M 661.648,200.68 V 77.9492 c 0,-25.7578 -2.429,-35.6484 -4.277,-40.8594 C 649.531,14.8984 628.367,0 604.707,0 h -3.73 c -23.497,0 -44.786,12.2813 -53.84,30.4492 h 12.676 c 8.441,-11.7187 24.308,-19.5508 41.164,-19.5508 h 3.73 c 19.055,0 36.074,11.9922 42.391,29.8204 2.14,6.0703 3.332,16.1093 3.593,30.5703 C 640.449,56.4805 623.367,47.1719 604.707,47.1719 h -3.73 c -23.653,0 -44.825,14.9179 -52.668,37.1172 -1.825,5.1992 -4.278,15.082 -4.278,40.8199 0,25.403 2.285,35.121 4.278,40.77 7.843,22.18 29.015,37.109 52.668,37.109 h 3.73 c 18.699,0 35.809,-9.34 46.055,-24.199 V 200.68 Z M 260.574,200.621 210.305,49.6094 H 193.242 L 142.969,200.621 h 11.484 L 201.777,58.4688 249.102,200.621 h 11.472" /><path
         id="path16"
         style="fill:#3460b6;fill-opacity:1;fill-rule:nonzero;stroke:none"
         d="m 1344.07,621.023 c -55.84,0 -94.05,-42.863 -94.05,-100.585 0,-59.59 38.67,-102.43 94.05,-102.43 55.4,0 94.55,42.84 94.55,102.43 0,57.722 -38.66,100.585 -94.55,100.585 z m 0,-275.632 c -102.89,0 -179.23,70.757 -179.23,175.047 0,105.695 76.34,172.277 179.23,172.277 103.36,0 179.73,-66.582 179.73,-172.277 0,-104.29 -76.37,-175.047 -179.73,-175.047 z m -311.9,8.836 v 329.636 h 80.05 V 354.227 Z M 789.129,615.887 H 749.57 V 423.133 h 37.696 c 56.816,0 109.433,23.269 109.433,96.844 0,74.043 -52.617,95.91 -107.57,95.91 z m 5.586,-261.66 H 671.816 v 329.636 h 119.2 c 93.574,0 188.535,-39.097 188.535,-163.886 0,-115.918 -94.035,-165.75 -184.836,-165.75 z M 467.43,595.879 425.547,482.742 h 82.871 z m 88.468,-241.652 -25.605,64.726 H 402.734 l -24.238,-64.726 h -86.582 l 138.27,329.636 h 77.304 L 644.355,354.227 Z m -412.019,265.39 h -42.375 v -76.816 h 37.723 c 25.609,0 57.707,6.523 57.707,40.039 0,30.73 -29.305,36.777 -53.055,36.777 z m 56.324,-265.39 -71.219,130.832 H 101.973 V 354.227 H 23.75 v 329.636 h 125.703 c 63.328,0 126.172,-24.187 126.172,-99.629 0,-44.226 -26.055,-75.886 -68.43,-88.925 L 293.32,354.227 Z M 1315.66,764.859 c -126.91,0 -206.06,79.184 -206.06,195.176 v 300.915 h 115.99 V 969.59 c 0,-51.867 25.25,-99.629 90.76,-99.629 66.2,0 90.75,47.762 90.75,99.629 v 291.36 h 116.67 V 960.035 c 0,-115.992 -81.88,-195.176 -208.11,-195.176 z M 946.406,1135.4 c -19.785,25.22 -55.949,41.61 -85.968,41.61 -30.04,0 -67.559,-10.24 -67.559,-48.45 0,-32.06 28.652,-42.31 74.375,-56.63 65.5,-21.15 150.126,-49.12 150.126,-145.321 0,-111.25 -89.392,-161.054 -184.911,-161.054 -68.946,0 -138.524,25.261 -180.836,69.621 l 76.414,77.769 c 23.215,-29.351 66.199,-51.187 104.422,-51.187 35.48,0 66.836,13.648 66.836,52.547 0,36.855 -36.817,48.449 -100.293,68.918 -61.407,19.787 -123.496,51.177 -123.496,138.507 0,107.15 96.886,151.5 186.972,151.5 54.582,0 115.996,-20.48 158.302,-59.37 z M 457.195,777.852 V 1260.95 H 574.551 V 777.852 Z M 294.785,1135.4 c -19.785,25.22 -55.969,41.61 -85.996,41.61 -30.019,0 -67.539,-10.24 -67.539,-48.45 0,-32.06 28.641,-42.31 74.395,-56.63 65.496,-21.15 150.117,-49.12 150.117,-145.321 0,-111.25 -89.395,-161.054 -184.942,-161.054 -68.918,0 -138.5231,25.261 -180.82,69.621 l 76.4258,77.769 c 23.2031,-29.351 66.2032,-51.187 104.3942,-51.187 35.489,0 66.875,13.648 66.875,52.547 0,36.855 -36.836,48.449 -100.312,68.918 -61.3986,19.787 -123.4963,51.177 -123.4963,138.507 0,107.15 96.8833,151.5 186.9723,151.5 54.571,0 115.996,-20.48 158.301,-59.37 l -74.375,-78.46" /></g></g></svg>