<?xml version="1.0" encoding="UTF-8" ?>
<!DOCTYPE svg PUBLIC "-//W3C//DTD SVG 1.1//EN" "http://www.w3.org/Graphics/SVG/1.1/DTD/svg11.dtd">
<svg width="300pt" height="133pt" viewBox="0 0 300 133" version="1.1" xmlns="http://www.w3.org/2000/svg">
<g id="#fffffeff">
</g>
<g id="#514090ff">
<path fill="#514090" opacity="1.00" d=" M 61.08 0.00 L 72.46 0.00 C 87.18 1.51 101.50 7.52 112.30 17.73 C 125.93 30.18 133.88 48.59 133.60 67.04 C 133.60 82.55 127.79 97.95 117.70 109.71 C 106.57 122.88 90.15 131.24 73.03 133.00 L 61.50 133.00 C 59.41 132.80 57.33 132.52 55.26 132.27 C 59.01 116.11 66.58 101.14 74.81 86.84 C 84.71 70.03 95.92 53.96 108.45 39.02 C 108.57 32.76 108.47 26.50 108.52 20.24 C 78.59 20.11 48.66 20.25 18.73 20.17 C 29.74 8.48 45.23 1.70 61.08 0.00 Z" />
<path fill="#514090" opacity="1.00" d=" M 157.95 22.21 C 161.55 17.54 168.24 16.91 173.59 18.22 C 178.88 19.76 181.34 25.43 182.00 30.46 C 179.15 30.64 176.31 30.93 173.51 31.48 C 172.72 29.39 172.32 26.69 169.93 25.82 C 168.20 24.86 166.43 26.41 164.79 26.89 C 164.46 29.35 163.63 32.26 165.40 34.38 C 169.54 39.93 176.06 43.27 179.84 49.15 C 183.08 54.05 183.29 60.88 180.06 65.83 C 175.09 72.48 163.65 73.27 158.27 66.70 C 155.75 63.95 154.94 60.22 154.42 56.65 C 157.33 56.09 160.27 55.67 163.22 55.35 C 163.60 57.82 164.10 60.47 166.01 62.28 C 167.92 63.36 170.15 62.65 172.19 62.44 C 173.56 60.31 174.24 57.50 172.87 55.19 C 169.55 48.99 162.59 46.08 158.61 40.40 C 154.81 35.24 154.03 27.51 157.95 22.21 Z" />
<path fill="#514090" opacity="1.00" d=" M 225.77 18.51 C 228.83 18.41 231.90 18.40 234.96 18.44 C 235.19 30.95 235.05 43.46 235.04 55.97 C 235.14 60.69 234.13 66.21 229.76 68.87 C 223.88 72.52 214.97 72.11 210.31 66.63 C 207.81 63.72 207.33 59.70 207.35 56.00 C 207.37 43.48 207.39 30.96 207.35 18.45 C 210.43 18.47 213.52 18.47 216.60 18.43 C 216.67 31.63 216.61 44.84 216.63 58.04 C 216.57 59.58 217.44 60.92 217.93 62.33 C 219.38 62.67 220.83 63.04 222.28 63.42 C 224.32 62.40 226.07 60.51 225.80 58.06 C 225.80 44.88 225.88 31.69 225.77 18.51 Z" />
<path fill="#514090" opacity="1.00" d=" M 248.09 18.45 C 251.88 18.47 255.66 18.48 259.45 18.42 C 262.58 35.80 266.29 53.09 268.88 70.55 C 266.01 70.53 263.15 70.55 260.28 70.64 C 259.55 66.66 259.11 62.64 258.44 58.66 C 255.37 58.76 252.31 58.77 249.24 58.66 C 248.45 62.59 247.94 66.57 247.40 70.54 C 244.42 70.52 241.45 70.55 238.47 70.60 C 241.63 53.21 244.90 35.84 248.09 18.45 M 250.44 50.82 C 252.62 50.84 254.80 50.84 256.99 50.83 C 256.32 43.79 254.85 36.85 254.09 29.82 C 252.21 36.68 251.61 43.82 250.44 50.82 Z" />
<path fill="#514090" opacity="1.00" d=" M 272.53 18.51 C 275.42 18.46 278.32 18.45 281.22 18.45 C 284.13 27.87 288.52 36.82 290.84 46.41 C 291.31 46.44 291.79 46.46 292.27 46.48 C 291.28 37.20 292.00 27.84 291.77 18.52 C 294.51 18.47 297.25 18.46 300.00 18.45 L 300.00 70.39 C 297.40 70.59 294.79 70.57 292.19 70.54 C 288.42 59.74 284.60 48.96 280.79 38.17 C 280.51 48.97 280.80 59.78 280.66 70.58 C 277.95 70.56 275.25 70.54 272.55 70.52 C 272.56 53.19 272.72 35.85 272.53 18.51 Z" />
<path fill="#514090" opacity="1.00" d=" M 191.38 58.03 C 191.38 44.82 191.34 31.62 191.38 18.42 C 194.42 18.46 197.46 18.47 200.50 18.48 C 200.43 32.64 200.49 46.80 200.48 60.96 C 200.48 63.92 199.47 67.15 196.92 68.90 C 193.48 71.44 188.92 71.10 184.87 71.40 C 184.84 68.73 184.82 66.06 184.77 63.39 C 186.65 63.18 188.52 62.88 190.36 62.40 C 190.99 61.02 191.48 59.57 191.38 58.03 Z" />
<path fill="#514090" opacity="1.00" d=" M 3.30 45.61 C 30.62 45.89 57.94 45.74 85.26 45.68 C 80.85 50.48 75.62 54.43 71.00 59.02 C 53.18 76.83 37.55 96.92 25.54 119.11 C 11.11 107.88 1.84 90.68 0.00 72.51 L 0.00 60.64 C 0.72 55.56 1.63 50.47 3.30 45.61 Z" />
<path fill="#514090" opacity="1.00" d=" M 156.03 82.04 C 153.96 81.81 153.89 77.95 156.15 77.99 C 159.41 77.63 162.70 77.89 165.97 77.84 C 210.65 77.81 255.32 77.91 300.00 77.80 L 300.00 82.20 C 255.00 82.22 210.00 82.19 165.01 82.21 C 162.02 82.17 159.01 82.38 156.03 82.04 Z" />
<path fill="#514090" opacity="1.00" d=" M 175.85 89.60 C 177.21 89.54 178.57 89.48 179.94 89.43 C 178.58 96.86 176.83 104.21 175.37 111.61 C 174.39 111.65 172.43 111.72 171.45 111.75 C 169.95 104.32 167.75 96.99 167.11 89.42 C 168.00 89.44 169.78 89.48 170.67 89.50 C 171.55 94.33 172.62 99.14 173.00 104.04 C 174.71 99.40 175.01 94.43 175.85 89.60 Z" />
<path fill="#514090" opacity="1.00" d=" M 203.64 93.03 C 204.71 88.78 210.91 87.95 213.60 91.13 C 215.11 92.64 214.64 94.90 214.78 96.82 C 213.70 96.87 212.62 96.92 211.54 96.97 C 211.50 94.97 209.58 90.66 207.61 93.78 C 207.38 98.63 206.68 103.75 208.12 108.46 C 208.70 108.46 209.86 108.46 210.43 108.46 C 210.91 106.89 211.19 105.28 211.30 103.65 C 210.64 103.57 209.33 103.40 208.67 103.31 C 208.70 102.57 208.76 101.08 208.79 100.33 C 210.93 100.34 213.08 100.37 215.22 100.47 C 215.19 104.14 215.20 107.82 215.29 111.50 C 214.50 111.31 212.92 110.92 212.13 110.73 C 209.40 112.75 204.47 112.20 203.69 108.38 C 203.22 103.30 203.33 98.13 203.64 93.03 Z" />
<path fill="#514090" opacity="1.00" d=" M 218.21 89.50 C 221.92 89.75 226.85 88.30 229.25 92.09 C 230.17 95.37 230.45 99.61 227.52 101.99 C 228.52 105.22 229.57 108.43 230.61 111.66 C 229.25 111.66 227.90 111.67 226.54 111.69 C 225.53 108.79 224.70 105.83 224.03 102.84 C 223.61 102.69 222.76 102.39 222.33 102.25 C 222.02 105.38 222.02 108.53 222.03 111.68 C 220.73 111.66 219.43 111.63 218.14 111.61 C 218.28 104.24 218.19 96.87 218.21 89.50 M 222.19 99.65 C 222.88 99.47 224.28 99.11 224.98 98.94 C 226.65 97.70 225.50 95.33 225.66 93.60 C 224.86 93.28 223.27 92.65 222.47 92.34 C 221.88 94.73 221.96 97.21 222.19 99.65 Z" />
<path fill="#514090" opacity="1.00" d=" M 247.17 89.48 C 250.71 89.71 254.82 88.66 257.87 90.97 C 259.95 93.36 259.65 97.05 258.86 99.90 C 257.56 102.94 253.90 102.62 251.20 102.75 C 251.16 105.71 251.16 108.68 251.09 111.64 C 249.76 111.65 248.42 111.66 247.09 111.66 C 247.17 104.27 247.04 96.87 247.17 89.48 M 251.16 99.39 C 251.88 99.39 253.32 99.39 254.04 99.39 C 254.41 98.88 255.15 97.85 255.52 97.34 C 255.48 96.48 255.40 94.74 255.36 93.88 C 254.10 93.35 252.83 92.83 251.56 92.32 C 251.05 94.64 251.09 97.03 251.16 99.39 Z" />
<path fill="#514090" opacity="1.00" d=" M 275.49 89.42 C 278.91 89.50 282.33 89.49 285.75 89.45 C 285.71 90.71 285.67 91.97 285.62 93.23 C 283.54 93.13 281.48 93.08 279.41 93.08 C 279.42 94.88 279.43 96.69 279.45 98.50 C 281.04 98.45 282.63 98.39 284.22 98.34 C 284.23 99.20 284.24 100.91 284.25 101.77 C 282.66 101.74 281.07 101.71 279.49 101.69 C 279.42 103.85 279.41 106.03 279.45 108.20 C 281.66 108.20 283.87 108.20 286.09 108.21 C 286.09 109.38 286.09 110.54 286.10 111.71 C 282.53 111.61 278.97 111.63 275.40 111.63 C 275.39 104.23 275.44 96.83 275.49 89.42 Z" />
<path fill="#514090" opacity="1.00" d=" M 288.44 89.57 C 289.57 89.50 290.71 89.43 291.85 89.37 C 293.61 93.28 294.86 97.38 296.23 101.44 C 296.65 97.49 296.58 93.51 296.46 89.55 C 297.35 89.53 299.12 89.49 300.00 89.47 L 300.00 111.90 C 298.85 111.77 297.70 111.65 296.56 111.55 C 295.05 107.16 293.63 102.73 291.80 98.45 C 291.71 102.87 291.81 107.29 291.81 111.71 C 290.68 111.68 289.55 111.65 288.43 111.62 C 288.45 104.27 288.45 96.92 288.44 89.57 Z" />
<path fill="#514090" opacity="1.00" d=" M 154.82 89.51 C 158.72 89.50 162.62 89.44 166.53 89.52 C 166.43 90.33 166.23 91.94 166.14 92.75 C 165.24 92.87 163.44 93.11 162.54 93.23 C 162.61 99.39 162.58 105.54 162.61 111.70 C 161.21 111.69 159.81 111.68 158.42 111.68 C 158.44 105.54 158.41 99.40 158.42 93.27 C 157.50 93.16 155.66 92.94 154.74 92.83 C 154.76 92.00 154.80 90.34 154.82 89.51 Z" />
<path fill="#514090" opacity="1.00" d=" M 179.63 106.32 C 179.80 100.17 184.19 95.22 186.01 89.51 C 187.27 89.51 188.54 89.53 189.81 89.54 C 189.82 93.86 190.06 98.18 189.69 102.50 C 190.58 102.94 191.47 103.41 192.34 103.91 C 192.31 105.57 191.42 106.55 189.80 106.69 C 189.80 108.35 189.79 110.00 189.79 111.66 C 188.92 111.66 187.17 111.66 186.30 111.66 C 186.30 109.89 186.32 108.13 186.33 106.37 C 184.09 106.34 181.86 106.33 179.63 106.32 M 185.81 96.90 C 184.77 98.99 183.83 101.13 183.00 103.31 C 184.11 103.28 185.22 103.25 186.34 103.22 C 186.68 100.78 185.27 97.37 187.86 95.91 C 187.35 96.16 186.32 96.65 185.81 96.90 Z" />
<path fill="#514090" opacity="1.00" d=" M 232.45 89.49 C 233.44 89.48 235.43 89.45 236.42 89.43 C 236.55 95.75 236.19 102.08 236.69 108.39 C 238.21 108.55 240.06 108.51 240.21 106.58 C 240.34 100.88 240.22 95.17 240.28 89.47 C 241.28 89.46 243.30 89.45 244.30 89.44 C 244.31 94.98 244.37 100.52 244.30 106.06 C 244.31 108.13 243.32 110.29 241.54 111.41 C 238.24 112.35 233.60 112.20 232.41 108.26 C 232.47 102.01 232.44 95.75 232.45 89.49 Z" />
<path fill="#514090" opacity="1.00" d=" M 261.20 89.56 C 264.76 89.55 268.75 88.78 271.90 90.89 C 273.96 93.33 274.02 97.05 272.95 99.92 C 271.61 102.86 268.03 102.59 265.35 102.76 C 265.30 105.71 265.30 108.66 265.29 111.61 C 263.93 111.63 262.57 111.65 261.22 111.67 C 261.28 104.30 261.35 96.93 261.20 89.56 M 265.34 92.48 C 265.28 94.85 265.29 97.22 265.36 99.58 C 266.94 99.46 268.45 99.01 269.66 97.93 C 269.55 96.51 269.46 95.10 269.38 93.69 C 268.05 93.22 266.70 92.81 265.34 92.48 Z" />
<path fill="#514090" opacity="1.00" d=" M 193.25 104.71 C 193.36 103.71 193.48 102.72 193.59 101.73 C 195.90 101.73 198.21 101.71 200.51 101.60 C 200.74 102.26 201.20 103.58 201.43 104.25 C 198.96 105.47 195.93 104.64 193.25 104.71 Z" />
</g>
</svg>
