<?xml version="1.0" encoding="UTF-8" standalone="yes"?>
<svg xmlns="http://www.w3.org/2000/svg" xmlns:xlink="http://www.w3.org/1999/xlink" width="96px" height="105.33333333333333px" viewBox="0 0 72 79" version="1.1">
  <g id="surface1">
    <path style=" stroke:none;fill-rule:evenodd;fill:rgb(6.27451%,7.45098%,44.705882%);fill-opacity:1;" d="M 0 0 L 71.949219 0 L 71.949219 64.394531 L 0 64.394531 Z M 0 0 "/>
    <path style=" stroke:none;fill-rule:evenodd;fill:rgb(100%,100%,100%);fill-opacity:1;" d="M 46.191406 7.007812 C 49.441406 7.414062 55.152344 11.359375 55.171875 15.8125 L 70.265625 15.8125 C 70.265625 15.8125 70.265625 21.59375 70.265625 27.210938 C 65.59375 22.882812 33.78125 22.015625 35.183594 11.703125 C 35.648438 8.257812 40.300781 6.285156 46.191406 7.007812 Z M 13.449219 1.429688 L 1.421875 1.429688 L 1.421875 51.503906 L 11.375 51.503906 L 11.375 44.03125 L 37.296875 44.03125 L 37.296875 51.503906 L 57.304688 51.503906 C 57.546875 50.171875 57.367188 48.984375 56.816406 47.9375 C 56.429688 47.191406 55.699219 46.464844 54.949219 46.023438 C 48.304688 42.195312 33.902344 39.09375 26.367188 36.457031 C 22.058594 34.945312 17.734375 32.667969 14.566406 29.425781 C 11.316406 26.125 9.769531 21.148438 9.566406 16.65625 C 9.40625 6.707031 13.425781 1.410156 13.425781 1.410156 Z M 13.449219 1.429688 "/>
    <path style=" stroke:none;fill-rule:evenodd;fill:rgb(6.27451%,7.45098%,44.705882%);fill-opacity:1;" d="M 11.394531 44.03125 L 37.316406 44.03125 L 37.316406 51.503906 L 11.394531 51.503906 Z M 11.394531 44.03125 "/>
    <path style=" stroke:none;fill-rule:evenodd;fill:rgb(6.27451%,7.45098%,44.705882%);fill-opacity:1;" d="M 13.449219 1.410156 L 70.265625 1.410156 L 70.265625 15.792969 L 55.171875 15.792969 C 55.171875 11.339844 49.464844 7.390625 46.191406 6.988281 C 40.300781 6.265625 35.648438 8.238281 35.183594 11.683594 C 33.78125 22.015625 65.59375 22.882812 70.265625 27.191406 L 70.265625 51.480469 L 57.324219 51.480469 C 57.570312 50.152344 57.386719 48.964844 56.835938 47.917969 C 56.449219 47.171875 55.71875 46.445312 54.96875 46.003906 C 48.324219 42.175781 33.921875 39.074219 26.386719 36.4375 C 22.082031 34.925781 17.753906 32.648438 14.585938 29.40625 C 11.335938 26.105469 9.792969 21.128906 9.589844 16.636719 C 9.425781 6.6875 13.449219 1.390625 13.449219 1.390625 Z M 13.449219 1.410156 "/>
    <path style=" stroke:none;fill-rule:nonzero;fill:rgb(6.27451%,7.45098%,44.705882%);fill-opacity:1;" d="M 1.746094 70.738281 L 1.746094 70.09375 L 2.011719 70.09375 C 2.195312 70.09375 2.316406 70.074219 2.355469 70.011719 C 2.417969 69.972656 2.4375 69.851562 2.4375 69.648438 L 2.4375 66.828125 C 2.4375 66.628906 2.417969 66.507812 2.355469 66.46875 C 2.296875 66.425781 2.195312 66.386719 2.011719 66.386719 L 1.746094 66.386719 L 1.746094 65.742188 L 6.4375 65.742188 L 6.4375 67.636719 L 5.808594 67.636719 C 5.769531 67.355469 5.726562 67.132812 5.667969 66.972656 C 5.605469 66.828125 5.546875 66.710938 5.464844 66.628906 C 5.382812 66.546875 5.261719 66.488281 5.117188 66.449219 C 4.976562 66.40625 4.734375 66.386719 4.367188 66.386719 L 3.757812 66.386719 L 3.757812 67.796875 L 3.878906 67.796875 C 4.144531 67.796875 4.328125 67.738281 4.40625 67.636719 C 4.488281 67.535156 4.550781 67.3125 4.550781 67.011719 L 5.140625 67.011719 L 5.140625 69.289062 L 4.550781 69.289062 C 4.550781 68.945312 4.488281 68.722656 4.429688 68.621094 C 4.347656 68.523438 4.164062 68.460938 3.898438 68.460938 L 3.777344 68.460938 L 3.777344 70.074219 L 4.40625 70.074219 C 4.9375 70.074219 5.28125 69.972656 5.464844 69.789062 C 5.648438 69.609375 5.769531 69.226562 5.808594 68.664062 L 6.4375 68.664062 L 6.4375 70.71875 L 1.746094 70.71875 Z M 7.738281 66.828125 C 7.738281 66.648438 7.71875 66.527344 7.65625 66.46875 C 7.597656 66.425781 7.476562 66.386719 7.292969 66.386719 L 7.046875 66.386719 L 7.046875 65.742188 L 9.324219 65.742188 L 11.152344 69.207031 L 11.152344 66.808594 C 11.152344 66.628906 11.132812 66.507812 11.070312 66.449219 C 11.011719 66.40625 10.886719 66.367188 10.707031 66.367188 L 10.441406 66.367188 L 10.441406 65.722656 L 12.613281 65.722656 L 12.613281 66.367188 L 12.390625 66.367188 C 12.207031 66.367188 12.085938 66.386719 12.027344 66.449219 C 11.964844 66.488281 11.945312 66.609375 11.945312 66.808594 L 11.945312 70.71875 L 10.480469 70.71875 L 8.53125 67.011719 L 8.53125 69.628906 C 8.53125 69.8125 8.550781 69.933594 8.613281 69.992188 C 8.675781 70.03125 8.796875 70.074219 8.980469 70.074219 L 9.242188 70.074219 L 9.242188 70.71875 L 7.046875 70.71875 L 7.046875 70.074219 L 7.292969 70.074219 C 7.476562 70.074219 7.597656 70.050781 7.65625 69.992188 C 7.71875 69.953125 7.738281 69.832031 7.738281 69.628906 L 7.738281 66.808594 Z M 17.488281 65.742188 L 17.488281 67.65625 L 16.839844 67.65625 C 16.839844 67.234375 16.757812 66.910156 16.617188 66.710938 C 16.453125 66.507812 16.230469 66.40625 15.90625 66.40625 L 15.824219 66.40625 L 15.824219 69.570312 C 15.824219 69.75 15.824219 69.851562 15.84375 69.910156 C 15.863281 69.972656 15.886719 69.992188 15.925781 70.011719 C 15.964844 70.03125 16.046875 70.050781 16.128906 70.050781 C 16.210938 70.050781 16.351562 70.074219 16.574219 70.074219 L 16.574219 70.71875 L 13.753906 70.71875 L 13.753906 70.074219 C 13.894531 70.074219 14.035156 70.074219 14.136719 70.050781 C 14.238281 70.03125 14.339844 70.03125 14.402344 69.992188 C 14.441406 69.972656 14.464844 69.953125 14.484375 69.890625 C 14.503906 69.832031 14.503906 69.730469 14.503906 69.570312 L 14.503906 66.386719 L 14.441406 66.386719 C 14.117188 66.386719 13.875 66.488281 13.730469 66.6875 C 13.570312 66.890625 13.488281 67.210938 13.488281 67.636719 L 12.859375 67.636719 L 12.859375 65.722656 L 17.488281 65.722656 Z M 17.773438 70.71875 L 17.773438 70.074219 L 18.039062 70.074219 C 18.222656 70.074219 18.34375 70.050781 18.382812 69.992188 C 18.445312 69.953125 18.464844 69.832031 18.464844 69.628906 L 18.464844 66.808594 C 18.464844 66.609375 18.445312 66.488281 18.382812 66.449219 C 18.324219 66.40625 18.222656 66.367188 18.039062 66.367188 L 17.773438 66.367188 L 17.773438 65.722656 L 22.464844 65.722656 L 22.464844 67.617188 L 21.835938 67.617188 C 21.796875 67.332031 21.753906 67.113281 21.695312 66.949219 C 21.632812 66.808594 21.574219 66.6875 21.492188 66.609375 C 21.410156 66.527344 21.289062 66.46875 21.144531 66.425781 C 21.003906 66.386719 20.761719 66.367188 20.394531 66.367188 L 19.785156 66.367188 L 19.785156 67.777344 L 19.90625 67.777344 C 20.171875 67.777344 20.355469 67.714844 20.433594 67.617188 C 20.515625 67.515625 20.578125 67.292969 20.578125 66.992188 L 21.167969 66.992188 L 21.167969 69.265625 L 20.578125 69.265625 C 20.578125 68.925781 20.515625 68.703125 20.457031 68.601562 C 20.375 68.5 20.191406 68.441406 19.925781 68.441406 L 19.804688 68.441406 L 19.804688 70.050781 L 20.433594 70.050781 C 20.964844 70.050781 21.308594 69.953125 21.492188 69.769531 C 21.675781 69.589844 21.796875 69.207031 21.835938 68.644531 L 22.464844 68.644531 L 22.464844 70.695312 L 17.773438 70.695312 Z M 25.109375 67.796875 L 25.617188 67.796875 C 25.980469 67.796875 26.226562 67.757812 26.347656 67.65625 C 26.46875 67.554688 26.550781 67.375 26.550781 67.132812 C 26.550781 66.871094 26.488281 66.667969 26.347656 66.566406 C 26.226562 66.46875 25.980469 66.40625 25.675781 66.40625 L 25.128906 66.40625 L 25.128906 67.816406 Z M 25.109375 69.628906 C 25.109375 69.8125 25.128906 69.933594 25.1875 69.992188 C 25.25 70.03125 25.351562 70.074219 25.554688 70.074219 L 25.796875 70.074219 L 25.796875 70.71875 L 23.074219 70.71875 L 23.074219 70.074219 L 23.339844 70.074219 C 23.523438 70.074219 23.644531 70.050781 23.683594 69.992188 C 23.746094 69.953125 23.765625 69.832031 23.765625 69.628906 L 23.765625 66.808594 C 23.765625 66.609375 23.746094 66.488281 23.683594 66.449219 C 23.625 66.40625 23.523438 66.367188 23.339844 66.367188 L 23.074219 66.367188 L 23.074219 65.722656 L 26.203125 65.722656 C 26.792969 65.722656 27.21875 65.824219 27.503906 66.023438 C 27.789062 66.226562 27.929688 66.546875 27.929688 66.949219 C 27.929688 67.253906 27.828125 67.496094 27.648438 67.675781 C 27.464844 67.878906 27.179688 68 26.835938 68.078125 C 27.140625 68.140625 27.363281 68.238281 27.484375 68.402344 C 27.605469 68.5625 27.6875 68.785156 27.6875 69.085938 L 27.6875 69.570312 C 27.6875 69.769531 27.707031 69.910156 27.726562 69.992188 C 27.75 70.074219 27.808594 70.09375 27.890625 70.09375 C 27.972656 70.09375 28.054688 70.03125 28.074219 69.933594 C 28.113281 69.832031 28.132812 69.609375 28.132812 69.308594 L 28.601562 69.308594 C 28.601562 69.328125 28.601562 69.367188 28.601562 69.40625 C 28.601562 69.449219 28.601562 69.488281 28.601562 69.507812 C 28.601562 69.972656 28.519531 70.292969 28.335938 70.515625 C 28.15625 70.738281 27.871094 70.839844 27.503906 70.839844 C 27.097656 70.839844 26.8125 70.738281 26.632812 70.535156 C 26.449219 70.335938 26.347656 70.011719 26.347656 69.570312 L 26.347656 69.085938 C 26.347656 68.804688 26.304688 68.621094 26.226562 68.542969 C 26.144531 68.460938 25.960938 68.421875 25.695312 68.421875 L 25.109375 68.421875 Z M 33.414062 65.722656 L 33.414062 67.636719 L 32.765625 67.636719 C 32.765625 67.210938 32.683594 66.890625 32.542969 66.6875 C 32.378906 66.488281 32.15625 66.386719 31.832031 66.386719 L 31.75 66.386719 L 31.75 69.550781 C 31.75 69.730469 31.75 69.832031 31.769531 69.890625 C 31.789062 69.953125 31.8125 69.972656 31.851562 69.992188 C 31.890625 70.011719 31.972656 70.03125 32.054688 70.03125 C 32.136719 70.03125 32.277344 70.050781 32.5 70.050781 L 32.5 70.695312 L 29.679688 70.695312 L 29.679688 70.050781 C 29.820312 70.050781 29.960938 70.050781 30.0625 70.03125 C 30.164062 70.011719 30.265625 70.011719 30.328125 69.972656 C 30.367188 69.953125 30.390625 69.933594 30.410156 69.871094 C 30.429688 69.8125 30.429688 69.710938 30.429688 69.550781 L 30.429688 66.367188 L 30.367188 66.367188 C 30.042969 66.367188 29.800781 66.46875 29.65625 66.667969 C 29.496094 66.871094 29.414062 67.191406 29.414062 67.617188 L 28.785156 67.617188 L 28.785156 65.703125 L 33.414062 65.703125 Z M 36.320312 68.460938 L 35.832031 66.890625 L 35.34375 68.460938 Z M 33.476562 70.71875 L 33.476562 70.074219 L 33.640625 70.074219 C 33.800781 70.074219 33.902344 70.050781 33.984375 69.992188 C 34.066406 69.933594 34.125 69.8125 34.1875 69.589844 L 35.40625 65.742188 L 36.828125 65.742188 L 38.007812 69.609375 C 38.066406 69.789062 38.128906 69.910156 38.1875 69.972656 C 38.25 70.03125 38.351562 70.050781 38.492188 70.050781 L 38.738281 70.050781 L 38.738281 70.695312 L 36.117188 70.695312 L 36.117188 70.050781 L 36.320312 70.050781 C 36.484375 70.050781 36.605469 70.03125 36.664062 70.011719 C 36.726562 69.992188 36.746094 69.933594 36.746094 69.871094 C 36.746094 69.851562 36.746094 69.8125 36.726562 69.769531 C 36.726562 69.75 36.707031 69.730469 36.707031 69.710938 L 36.523438 69.105469 L 35.164062 69.105469 L 34.980469 69.671875 C 34.980469 69.710938 34.960938 69.730469 34.960938 69.769531 C 34.960938 69.8125 34.9375 69.832031 34.9375 69.871094 C 34.9375 69.933594 34.960938 69.992188 35.019531 70.011719 C 35.0625 70.03125 35.183594 70.050781 35.324219 70.050781 L 35.546875 70.050781 L 35.546875 70.695312 L 33.457031 70.695312 Z M 38.796875 70.71875 L 38.796875 70.074219 L 39.082031 70.074219 C 39.265625 70.074219 39.386719 70.050781 39.429688 69.992188 C 39.488281 69.953125 39.507812 69.832031 39.507812 69.628906 L 39.507812 66.808594 C 39.507812 66.609375 39.488281 66.488281 39.429688 66.449219 C 39.367188 66.40625 39.265625 66.367188 39.082031 66.367188 L 38.796875 66.367188 L 38.796875 65.722656 L 41.601562 65.722656 L 41.601562 66.367188 L 41.316406 66.367188 C 41.136719 66.367188 41.011719 66.386719 40.953125 66.449219 C 40.890625 66.488281 40.871094 66.609375 40.871094 66.808594 L 40.871094 69.628906 C 40.871094 69.8125 40.890625 69.933594 40.953125 69.992188 C 41.011719 70.03125 41.136719 70.074219 41.316406 70.074219 L 41.601562 70.074219 L 41.601562 70.71875 Z M 42.578125 66.808594 C 42.578125 66.628906 42.558594 66.507812 42.496094 66.449219 C 42.433594 66.40625 42.3125 66.367188 42.128906 66.367188 L 41.886719 66.367188 L 41.886719 65.722656 L 44.160156 65.722656 L 45.988281 69.1875 L 45.988281 66.789062 C 45.988281 66.609375 45.96875 66.488281 45.910156 66.425781 C 45.847656 66.386719 45.726562 66.347656 45.542969 66.347656 L 45.277344 66.347656 L 45.277344 65.703125 L 47.453125 65.703125 L 47.453125 66.347656 L 47.230469 66.347656 C 47.046875 66.347656 46.925781 66.367188 46.863281 66.425781 C 46.800781 66.46875 46.78125 66.589844 46.78125 66.789062 L 46.78125 70.695312 L 45.320312 70.695312 L 43.371094 66.992188 L 43.371094 69.609375 C 43.371094 69.789062 43.390625 69.910156 43.449219 69.972656 C 43.511719 70.011719 43.632812 70.050781 43.816406 70.050781 L 44.082031 70.050781 L 44.082031 70.695312 L 41.886719 70.695312 L 41.886719 70.050781 L 42.128906 70.050781 C 42.3125 70.050781 42.433594 70.03125 42.496094 69.972656 C 42.558594 69.933594 42.578125 69.8125 42.578125 69.609375 L 42.578125 66.789062 Z M 49.136719 69.628906 C 49.136719 69.8125 49.160156 69.933594 49.21875 69.992188 C 49.28125 70.03125 49.382812 70.074219 49.585938 70.074219 L 49.726562 70.074219 L 49.726562 70.71875 L 47.695312 70.71875 L 47.695312 70.074219 L 47.917969 70.074219 C 48.101562 70.074219 48.222656 70.050781 48.285156 69.992188 C 48.347656 69.953125 48.367188 69.832031 48.367188 69.628906 L 48.367188 66.808594 C 48.367188 66.628906 48.347656 66.507812 48.285156 66.449219 C 48.222656 66.40625 48.121094 66.367188 47.917969 66.367188 L 47.695312 66.367188 L 47.695312 65.722656 L 50.195312 65.722656 L 51.027344 68.785156 L 51.902344 65.722656 L 54.378906 65.722656 L 54.378906 66.367188 L 54.136719 66.367188 C 53.953125 66.367188 53.832031 66.386719 53.769531 66.449219 C 53.707031 66.488281 53.6875 66.609375 53.6875 66.808594 L 53.6875 69.628906 C 53.6875 69.8125 53.707031 69.933594 53.769531 69.992188 C 53.832031 70.03125 53.953125 70.074219 54.136719 70.074219 L 54.378906 70.074219 L 54.378906 70.71875 L 51.878906 70.71875 L 51.878906 70.074219 L 52.023438 70.074219 C 52.207031 70.074219 52.328125 70.050781 52.367188 69.992188 C 52.429688 69.953125 52.449219 69.832031 52.449219 69.628906 L 52.449219 66.527344 L 51.269531 70.71875 L 50.316406 70.71875 L 49.160156 66.507812 L 49.160156 69.628906 Z M 54.621094 70.71875 L 54.621094 70.074219 L 54.886719 70.074219 C 55.070312 70.074219 55.191406 70.050781 55.230469 69.992188 C 55.292969 69.953125 55.3125 69.832031 55.3125 69.628906 L 55.3125 66.808594 C 55.3125 66.609375 55.292969 66.488281 55.230469 66.449219 C 55.171875 66.40625 55.070312 66.367188 54.886719 66.367188 L 54.621094 66.367188 L 54.621094 65.722656 L 59.316406 65.722656 L 59.316406 67.617188 L 58.6875 67.617188 C 58.644531 67.332031 58.605469 67.113281 58.542969 66.949219 C 58.484375 66.808594 58.421875 66.6875 58.339844 66.609375 C 58.257812 66.527344 58.136719 66.46875 57.996094 66.425781 C 57.851562 66.386719 57.609375 66.367188 57.242188 66.367188 L 56.632812 66.367188 L 56.632812 67.777344 L 56.757812 67.777344 C 57.019531 67.777344 57.203125 67.714844 57.285156 67.617188 C 57.367188 67.515625 57.425781 67.292969 57.425781 66.992188 L 58.015625 66.992188 L 58.015625 69.265625 L 57.425781 69.265625 C 57.425781 68.925781 57.367188 68.703125 57.304688 68.601562 C 57.222656 68.5 57.039062 68.441406 56.777344 68.441406 L 56.652344 68.441406 L 56.652344 70.050781 L 57.285156 70.050781 C 57.8125 70.050781 58.15625 69.953125 58.339844 69.769531 C 58.523438 69.589844 58.644531 69.207031 58.6875 68.644531 L 59.316406 68.644531 L 59.316406 70.695312 L 54.621094 70.695312 Z M 60.617188 66.808594 C 60.617188 66.628906 60.59375 66.507812 60.535156 66.449219 C 60.472656 66.40625 60.351562 66.367188 60.167969 66.367188 L 59.925781 66.367188 L 59.925781 65.722656 L 62.199219 65.722656 L 64.027344 69.1875 L 64.027344 66.789062 C 64.027344 66.609375 64.007812 66.488281 63.945312 66.425781 C 63.886719 66.386719 63.765625 66.347656 63.582031 66.347656 L 63.316406 66.347656 L 63.316406 65.703125 L 65.492188 65.703125 L 65.492188 66.347656 L 65.265625 66.347656 C 65.085938 66.347656 64.960938 66.367188 64.902344 66.425781 C 64.839844 66.46875 64.820312 66.589844 64.820312 66.789062 L 64.820312 70.695312 L 63.359375 70.695312 L 61.40625 66.992188 L 61.40625 69.609375 C 61.40625 69.789062 61.429688 69.910156 61.488281 69.972656 C 61.550781 70.011719 61.671875 70.050781 61.855469 70.050781 L 62.117188 70.050781 L 62.117188 70.695312 L 59.925781 70.695312 L 59.925781 70.050781 L 60.167969 70.050781 C 60.351562 70.050781 60.472656 70.03125 60.535156 69.972656 C 60.59375 69.933594 60.617188 69.8125 60.617188 69.609375 L 60.617188 66.789062 Z M 70.367188 65.722656 L 70.367188 67.636719 L 69.714844 67.636719 C 69.714844 67.210938 69.632812 66.890625 69.492188 66.6875 C 69.328125 66.488281 69.105469 66.386719 68.78125 66.386719 L 68.699219 66.386719 L 68.699219 69.550781 C 68.699219 69.730469 68.699219 69.832031 68.71875 69.890625 C 68.742188 69.953125 68.761719 69.972656 68.800781 69.992188 C 68.84375 70.011719 68.921875 70.03125 69.003906 70.03125 C 69.085938 70.03125 69.226562 70.050781 69.453125 70.050781 L 69.453125 70.695312 L 66.628906 70.695312 L 66.628906 70.050781 C 66.769531 70.050781 66.914062 70.050781 67.015625 70.03125 C 67.117188 70.011719 67.21875 70.011719 67.277344 69.972656 C 67.320312 69.953125 67.339844 69.933594 67.359375 69.871094 C 67.378906 69.8125 67.378906 69.710938 67.378906 69.550781 L 67.378906 66.367188 L 67.320312 66.367188 C 66.992188 66.367188 66.75 66.46875 66.609375 66.667969 C 66.445312 66.871094 66.363281 67.191406 66.363281 67.617188 L 65.734375 67.617188 L 65.734375 65.703125 L 70.367188 65.703125 Z M 70.367188 65.722656 "/>
    <path style=" stroke:none;fill-rule:nonzero;fill:rgb(6.27451%,7.45098%,44.705882%);fill-opacity:1;" d="M 8.125 72.207031 L 8.125 74.726562 L 7.191406 74.726562 C 7.191406 74.160156 7.089844 73.757812 6.867188 73.476562 C 6.640625 73.214844 6.296875 73.074219 5.828125 73.074219 L 5.726562 73.074219 L 5.726562 77.222656 C 5.726562 77.445312 5.75 77.605469 5.769531 77.667969 C 5.789062 77.746094 5.828125 77.785156 5.890625 77.808594 C 5.953125 77.828125 6.054688 77.867188 6.175781 77.867188 C 6.296875 77.886719 6.5 77.886719 6.804688 77.886719 L 6.804688 78.734375 L 2.722656 78.734375 L 2.722656 77.886719 C 2.945312 77.886719 3.128906 77.886719 3.269531 77.867188 C 3.433594 77.847656 3.554688 77.828125 3.65625 77.808594 C 3.71875 77.785156 3.757812 77.746094 3.777344 77.667969 C 3.796875 77.585938 3.820312 77.445312 3.820312 77.222656 L 3.820312 73.074219 L 3.71875 73.074219 C 3.25 73.074219 2.90625 73.214844 2.679688 73.476562 C 2.457031 73.738281 2.335938 74.160156 2.335938 74.726562 L 1.421875 74.726562 L 1.421875 72.207031 Z M 8.167969 78.734375 L 8.167969 77.886719 L 8.550781 77.886719 C 8.816406 77.886719 9 77.847656 9.058594 77.785156 C 9.140625 77.726562 9.183594 77.566406 9.183594 77.324219 L 9.183594 73.636719 C 9.183594 73.375 9.140625 73.234375 9.058594 73.15625 C 8.980469 73.09375 8.816406 73.054688 8.550781 73.054688 L 8.167969 73.054688 L 8.167969 72.207031 L 14.972656 72.207031 L 14.972656 74.707031 L 14.078125 74.707031 C 14.015625 74.324219 13.957031 74.039062 13.875 73.839844 C 13.792969 73.636719 13.691406 73.496094 13.570312 73.375 C 13.449219 73.253906 13.285156 73.175781 13.082031 73.132812 C 12.878906 73.09375 12.511719 73.054688 12.003906 73.054688 L 11.113281 73.054688 L 11.113281 74.90625 L 11.273438 74.90625 C 11.660156 74.90625 11.902344 74.847656 12.046875 74.707031 C 12.167969 74.5625 12.25 74.300781 12.25 73.878906 L 13.101562 73.878906 L 13.101562 76.859375 L 12.25 76.859375 C 12.230469 76.417969 12.167969 76.117188 12.066406 75.972656 C 11.945312 75.832031 11.699219 75.773438 11.292969 75.773438 L 11.132812 75.773438 L 11.132812 77.886719 L 12.046875 77.886719 C 12.796875 77.886719 13.304688 77.765625 13.589844 77.523438 C 13.855469 77.285156 14.015625 76.78125 14.097656 76.054688 L 14.992188 76.054688 L 14.992188 78.753906 L 8.1875 78.753906 Z M 15.84375 72.207031 L 19.847656 72.207031 L 19.847656 73.054688 L 19.417969 73.054688 C 19.15625 73.054688 18.972656 73.09375 18.890625 73.15625 C 18.808594 73.214844 18.769531 73.375 18.769531 73.617188 L 18.769531 77.867188 L 19.316406 77.867188 C 19.847656 77.867188 20.191406 77.847656 20.394531 77.785156 C 20.597656 77.746094 20.761719 77.667969 20.882812 77.546875 C 21.023438 77.425781 21.144531 77.242188 21.207031 77 C 21.289062 76.78125 21.347656 76.457031 21.371094 76.035156 L 22.261719 76.035156 L 22.261719 78.714844 L 15.804688 78.714844 L 15.804688 77.867188 L 16.191406 77.867188 C 16.453125 77.867188 16.636719 77.828125 16.699219 77.765625 C 16.777344 77.707031 16.820312 77.546875 16.820312 77.304688 L 16.820312 73.617188 C 16.820312 73.355469 16.777344 73.214844 16.699219 73.132812 C 16.617188 73.074219 16.453125 73.035156 16.191406 73.035156 L 15.804688 73.035156 L 15.804688 72.1875 Z M 22.953125 78.734375 L 22.953125 77.886719 L 23.339844 77.886719 C 23.605469 77.886719 23.785156 77.847656 23.847656 77.785156 C 23.929688 77.726562 23.96875 77.566406 23.96875 77.324219 L 23.96875 73.636719 C 23.96875 73.375 23.929688 73.234375 23.847656 73.15625 C 23.765625 73.09375 23.605469 73.054688 23.339844 73.054688 L 22.953125 73.054688 L 22.953125 72.207031 L 29.757812 72.207031 L 29.757812 74.707031 L 28.867188 74.707031 C 28.804688 74.324219 28.742188 74.039062 28.664062 73.839844 C 28.582031 73.636719 28.480469 73.496094 28.359375 73.375 C 28.234375 73.253906 28.074219 73.175781 27.871094 73.132812 C 27.667969 73.09375 27.300781 73.054688 26.792969 73.054688 L 25.898438 73.054688 L 25.898438 74.90625 L 26.0625 74.90625 C 26.449219 74.90625 26.691406 74.847656 26.835938 74.707031 C 26.957031 74.5625 27.039062 74.300781 27.039062 73.878906 L 27.890625 73.878906 L 27.890625 76.859375 L 27.039062 76.859375 C 27.015625 76.417969 26.957031 76.117188 26.855469 75.972656 C 26.734375 75.832031 26.488281 75.773438 26.082031 75.773438 L 25.921875 75.773438 L 25.921875 77.886719 L 26.835938 77.886719 C 27.585938 77.886719 28.09375 77.765625 28.378906 77.523438 C 28.640625 77.285156 28.804688 76.78125 28.886719 76.054688 L 29.78125 76.054688 L 29.78125 78.753906 L 22.972656 78.753906 Z M 35.082031 78.734375 L 33.152344 78.734375 L 31.40625 73.800781 C 31.28125 73.476562 31.160156 73.253906 31.019531 73.175781 C 30.875 73.074219 30.652344 73.035156 30.347656 73.011719 L 30.347656 72.1875 L 34.207031 72.1875 L 34.207031 73.011719 C 34.167969 73.011719 34.105469 73.011719 34.046875 73.011719 C 33.984375 73.011719 33.902344 73.011719 33.820312 73.011719 C 33.597656 73.011719 33.457031 73.035156 33.375 73.074219 C 33.292969 73.113281 33.253906 73.195312 33.253906 73.316406 C 33.253906 73.355469 33.273438 73.417969 33.273438 73.496094 C 33.292969 73.578125 33.335938 73.699219 33.394531 73.878906 L 34.492188 77.0625 L 35.671875 73.71875 C 35.730469 73.578125 35.75 73.457031 35.773438 73.417969 C 35.792969 73.355469 35.792969 73.316406 35.792969 73.296875 C 35.792969 73.195312 35.75 73.132812 35.648438 73.09375 C 35.546875 73.054688 35.40625 73.035156 35.203125 73.035156 C 35.121094 73.035156 35.0625 73.035156 35.019531 73.035156 C 34.980469 73.035156 34.9375 73.035156 34.898438 73.035156 L 34.898438 72.207031 L 37.882812 72.207031 L 37.882812 73.035156 C 37.558594 73.035156 37.335938 73.09375 37.171875 73.234375 C 37.011719 73.355469 36.890625 73.617188 36.765625 74 L 35.101562 78.734375 Z M 38.046875 78.734375 L 38.046875 77.886719 L 38.472656 77.886719 C 38.738281 77.886719 38.921875 77.847656 38.980469 77.785156 C 39.0625 77.726562 39.101562 77.566406 39.101562 77.324219 L 39.101562 73.636719 C 39.101562 73.375 39.0625 73.234375 38.980469 73.15625 C 38.898438 73.09375 38.738281 73.054688 38.472656 73.054688 L 38.046875 73.054688 L 38.046875 72.207031 L 42.109375 72.207031 L 42.109375 73.054688 L 41.683594 73.054688 C 41.417969 73.054688 41.238281 73.09375 41.15625 73.15625 C 41.074219 73.214844 41.035156 73.375 41.035156 73.617188 L 41.035156 77.304688 C 41.035156 77.546875 41.074219 77.707031 41.15625 77.765625 C 41.238281 77.828125 41.398438 77.867188 41.683594 77.867188 L 42.109375 77.867188 L 42.109375 78.714844 L 38.046875 78.714844 Z M 43.59375 78.8125 L 42.761719 78.8125 L 42.761719 76.234375 L 43.675781 76.234375 C 43.753906 76.761719 44 77.183594 44.386719 77.484375 C 44.769531 77.785156 45.257812 77.949219 45.808594 77.949219 C 46.191406 77.949219 46.496094 77.886719 46.722656 77.746094 C 46.945312 77.605469 47.046875 77.425781 47.046875 77.183594 C 47.046875 76.800781 46.640625 76.519531 45.808594 76.335938 C 45.664062 76.316406 45.5625 76.296875 45.503906 76.277344 C 44.792969 76.117188 44.285156 75.972656 44.019531 75.875 C 43.734375 75.773438 43.511719 75.652344 43.328125 75.511719 C 43.105469 75.328125 42.921875 75.128906 42.800781 74.90625 C 42.679688 74.664062 42.617188 74.402344 42.617188 74.121094 C 42.617188 73.457031 42.863281 72.953125 43.347656 72.589844 C 43.835938 72.226562 44.527344 72.046875 45.421875 72.046875 C 45.867188 72.046875 46.253906 72.085938 46.597656 72.1875 C 46.945312 72.289062 47.230469 72.410156 47.492188 72.589844 L 47.695312 72.128906 L 48.550781 72.128906 L 48.550781 74.523438 L 47.613281 74.523438 C 47.554688 74.039062 47.351562 73.65625 46.984375 73.394531 C 46.621094 73.113281 46.152344 72.992188 45.582031 72.992188 C 45.238281 72.992188 44.972656 73.054688 44.769531 73.195312 C 44.566406 73.335938 44.464844 73.515625 44.464844 73.738281 C 44.464844 74.082031 44.914062 74.324219 45.828125 74.503906 C 46.171875 74.5625 46.4375 74.625 46.640625 74.683594 C 47.433594 74.867188 48 75.128906 48.367188 75.472656 C 48.730469 75.8125 48.914062 76.257812 48.914062 76.820312 C 48.914062 77.464844 48.652344 77.988281 48.144531 78.371094 C 47.636719 78.753906 46.945312 78.957031 46.050781 78.957031 C 45.625 78.957031 45.21875 78.894531 44.8125 78.792969 C 44.40625 78.695312 44.082031 78.550781 43.816406 78.371094 L 43.53125 78.855469 Z M 49.421875 78.734375 L 49.421875 77.886719 L 49.847656 77.886719 C 50.113281 77.886719 50.296875 77.847656 50.355469 77.785156 C 50.4375 77.726562 50.480469 77.566406 50.480469 77.324219 L 50.480469 73.636719 C 50.480469 73.375 50.4375 73.234375 50.355469 73.15625 C 50.277344 73.09375 50.113281 73.054688 49.847656 73.054688 L 49.421875 73.054688 L 49.421875 72.207031 L 53.484375 72.207031 L 53.484375 73.054688 L 53.058594 73.054688 C 52.792969 73.054688 52.613281 73.09375 52.53125 73.15625 C 52.449219 73.214844 52.410156 73.375 52.410156 73.617188 L 52.410156 77.304688 C 52.410156 77.546875 52.449219 77.707031 52.53125 77.765625 C 52.613281 77.828125 52.773438 77.867188 53.058594 77.867188 L 53.484375 77.867188 L 53.484375 78.714844 L 49.421875 78.714844 Z M 56.289062 75.472656 C 56.289062 76.355469 56.410156 77.023438 56.675781 77.425781 C 56.9375 77.828125 57.34375 78.027344 57.914062 78.027344 C 58.484375 78.027344 58.890625 77.828125 59.152344 77.425781 C 59.417969 77.023438 59.539062 76.355469 59.539062 75.472656 C 59.539062 74.585938 59.417969 73.917969 59.152344 73.515625 C 58.890625 73.113281 58.484375 72.914062 57.914062 72.914062 C 57.34375 72.914062 56.9375 73.113281 56.675781 73.515625 C 56.410156 73.917969 56.289062 74.585938 56.289062 75.472656 Z M 54.054688 75.472656 C 54.054688 74.382812 54.398438 73.539062 55.089844 72.933594 C 55.78125 72.308594 56.714844 72.007812 57.933594 72.007812 C 59.132812 72.007812 60.085938 72.308594 60.757812 72.933594 C 61.449219 73.558594 61.792969 74.402344 61.792969 75.472656 C 61.792969 76.558594 61.449219 77.40625 60.757812 78.007812 C 60.066406 78.613281 59.132812 78.933594 57.933594 78.933594 C 56.734375 78.933594 55.78125 78.632812 55.089844 78.007812 C 54.398438 77.382812 54.054688 76.539062 54.054688 75.472656 Z M 63.316406 73.617188 C 63.316406 73.375 63.277344 73.214844 63.195312 73.15625 C 63.113281 73.09375 62.953125 73.054688 62.667969 73.054688 L 62.300781 73.054688 L 62.300781 72.207031 L 65.59375 72.207031 L 68.234375 76.761719 L 68.234375 73.617188 C 68.234375 73.375 68.191406 73.214844 68.109375 73.15625 C 68.03125 73.09375 67.867188 73.054688 67.582031 73.054688 L 67.195312 73.054688 L 67.195312 72.207031 L 70.34375 72.207031 L 70.34375 73.054688 L 70.019531 73.054688 C 69.757812 73.054688 69.574219 73.09375 69.492188 73.15625 C 69.410156 73.214844 69.371094 73.375 69.371094 73.617188 L 69.371094 78.734375 L 67.257812 78.734375 L 64.433594 73.878906 L 64.433594 77.324219 C 64.433594 77.566406 64.476562 77.726562 64.554688 77.785156 C 64.636719 77.847656 64.800781 77.886719 65.085938 77.886719 L 65.46875 77.886719 L 65.46875 78.734375 L 62.28125 78.734375 L 62.28125 77.886719 L 62.648438 77.886719 C 62.910156 77.886719 63.09375 77.847656 63.175781 77.785156 C 63.257812 77.726562 63.296875 77.566406 63.296875 77.324219 L 63.296875 73.636719 Z M 63.316406 73.617188 "/>
    <path style=" stroke:none;fill-rule:evenodd;fill:rgb(100%,100%,100%);fill-opacity:1;" d="M 34.675781 61.128906 L 34.675781 62.238281 L 41.054688 62.238281 L 41.054688 61.007812 L 38.980469 61.007812 L 38.980469 56.234375 L 47.148438 62.277344 L 49.484375 62.277344 L 49.484375 55.066406 C 49.484375 55.066406 49.464844 54.746094 49.808594 54.746094 C 50.152344 54.746094 51.597656 54.746094 51.597656 54.746094 L 51.597656 53.4375 L 45.175781 53.4375 L 45.175781 54.726562 L 46.964844 54.726562 C 46.964844 54.726562 47.371094 54.726562 47.371094 55.066406 C 47.371094 55.410156 47.371094 58.914062 47.371094 58.914062 L 40.21875 53.476562 L 34.714844 53.476562 L 34.714844 54.683594 L 36.664062 54.683594 L 36.664062 61.128906 L 34.695312 61.171875 Z M 34.675781 61.128906 "/>
    <path style=" stroke:none;fill-rule:evenodd;fill:rgb(100%,100%,100%);fill-opacity:1;" d="M 53.039062 53.4375 L 53.039062 54.746094 L 55.027344 54.746094 L 59.679688 58.996094 L 59.679688 61.050781 L 57.75 61.050781 L 57.75 62.238281 L 65.144531 62.238281 L 65.144531 61.007812 L 63.011719 61.007812 L 63.011719 59.09375 L 67.949219 54.765625 L 69.714844 54.765625 L 69.714844 53.375 L 63.539062 53.375 L 63.539062 54.765625 L 64.757812 54.765625 L 62.117188 57.363281 L 59.519531 55.109375 L 59.539062 54.746094 L 60.636719 54.765625 L 60.65625 53.394531 Z M 53.039062 53.4375 "/>
    <path style=" stroke:none;fill-rule:evenodd;fill:rgb(100%,100%,100%);fill-opacity:1;" d="M 25.921875 52.890625 C 30.410156 52.890625 34.046875 55.148438 34.046875 57.925781 C 34.046875 60.707031 30.410156 62.960938 25.921875 62.960938 C 21.429688 62.960938 17.792969 60.707031 17.792969 57.925781 C 17.792969 55.148438 21.429688 52.890625 25.921875 52.890625 Z M 25.980469 54.503906 C 28.601562 54.503906 30.714844 56.035156 30.714844 57.925781 C 30.714844 59.820312 28.601562 61.351562 25.980469 61.351562 C 23.359375 61.351562 21.246094 59.820312 21.246094 57.925781 C 21.246094 56.035156 23.359375 54.503906 25.980469 54.503906 Z M 25.980469 54.503906 "/>
    <path style=" stroke:none;fill-rule:evenodd;fill:rgb(100%,100%,100%);fill-opacity:1;" d="M 15.5 53.4375 L 13.996094 53.4375 L 13.996094 54.101562 C 13.996094 54.101562 13.550781 53.675781 11.925781 53.335938 C 9.242188 52.769531 6.234375 52.75 3.796875 53.980469 C 2.253906 54.746094 1.765625 56.09375 2.761719 57.382812 C 3.554688 58.410156 6.519531 58.792969 7.78125 58.894531 C 10.542969 59.136719 15.621094 59.660156 12.046875 61.128906 C 11.050781 61.472656 10.074219 61.753906 6.988281 61.171875 C 5.667969 60.746094 4.773438 60.6875 4.0625 59.015625 C 3.414062 59.054688 2.375 59.015625 2.375 59.015625 L 2.375 62.460938 L 4.265625 62.5 L 4.265625 61.957031 L 4.589844 61.957031 C 4.589844 61.957031 7.230469 63.042969 11.292969 62.882812 C 12.695312 62.660156 14.28125 62.519531 15.519531 61.25 C 16.777344 59.941406 16.25 58.53125 14.847656 57.644531 C 13.589844 56.859375 10.949219 56.679688 9.628906 56.515625 C 7.453125 56.375 5.890625 56.09375 5.890625 56.09375 C 5.890625 56.09375 4.773438 55.609375 5.707031 54.90625 C 6.398438 54.402344 8.023438 54.382812 8.835938 54.421875 C 9.710938 54.484375 11.4375 54.421875 12.980469 55.148438 C 13.550781 55.53125 13.933594 55.914062 14.015625 56.496094 L 15.5 56.496094 L 15.480469 53.476562 Z M 15.5 53.4375 "/>
    <path style=" stroke:none;fill-rule:evenodd;fill:rgb(6.27451%,7.45098%,44.705882%);fill-opacity:1;" d="M 25.980469 54.484375 C 28.601562 54.484375 30.714844 56.015625 30.714844 57.90625 C 30.714844 59.800781 28.601562 61.332031 25.980469 61.332031 C 23.359375 61.332031 21.246094 59.800781 21.246094 57.90625 C 21.246094 56.015625 23.359375 54.484375 25.980469 54.484375 Z M 25.980469 54.484375 "/>
  </g>
</svg>