<?xml version="1.0" encoding="UTF-8" ?>
<!DOCTYPE svg PUBLIC "-//W3C//DTD SVG 1.1//EN" "http://www.w3.org/Graphics/SVG/1.1/DTD/svg11.dtd">
<svg width="800pt" height="300pt" viewBox="0 0 800 300" version="1.1" xmlns="http://www.w3.org/2000/svg">
<g id="#e84100ff">
<path fill="#e84100" opacity="1.00" d=" M 32.43 40.12 C 158.77 40.04 285.12 40.18 411.46 40.05 C 411.47 77.72 411.46 115.40 411.46 153.08 C 285.12 152.91 158.76 153.21 32.43 152.93 C 32.51 115.33 32.51 77.72 32.43 40.12 M 178.37 60.44 C 178.37 61.23 178.36 62.82 178.35 63.62 C 172.64 63.61 166.92 63.63 161.21 63.59 C 156.93 60.21 151.34 61.47 146.32 61.28 C 146.31 61.85 146.30 63.00 146.29 63.58 C 134.21 63.65 122.12 63.60 110.04 63.63 C 108.94 63.67 108.06 63.25 107.38 62.36 L 107.37 62.43 C 103.39 60.30 98.58 61.57 94.24 61.38 C 94.46 62.12 94.72 62.84 95.02 63.55 C 86.34 63.70 77.66 63.55 68.98 63.64 C 64.96 63.40 60.90 66.74 61.15 70.92 C 61.08 81.18 61.16 91.44 61.12 101.70 C 70.22 101.67 79.32 101.75 88.41 101.65 C 88.59 107.66 88.46 113.68 88.50 119.69 C 87.31 119.69 86.12 119.68 84.93 119.68 C 84.90 114.49 84.92 109.30 84.91 104.12 C 80.20 104.13 75.48 104.15 70.77 104.08 C 70.77 104.86 70.78 106.41 70.79 107.19 C 67.57 107.20 64.35 107.19 61.13 107.19 C 61.17 112.81 61.05 118.44 61.16 124.06 C 61.00 128.18 65.06 131.53 69.04 131.27 C 77.71 131.33 86.39 131.17 95.06 131.37 C 93.61 132.59 95.66 134.17 96.96 133.62 C 101.07 133.46 105.83 134.46 109.13 131.32 C 115.32 131.22 121.51 131.31 127.70 131.26 C 127.69 132.04 127.69 133.59 127.69 134.36 C 132.44 134.34 137.18 134.37 141.93 134.32 C 141.80 128.38 141.95 122.44 141.82 116.50 C 140.06 116.52 138.30 116.55 136.54 116.58 C 136.57 111.61 136.56 106.65 136.56 101.69 C 139.94 101.65 143.33 101.74 146.71 101.79 C 146.59 102.46 146.35 103.80 146.23 104.47 C 149.49 104.41 152.76 104.59 156.00 104.20 C 159.00 103.87 161.17 101.59 163.24 99.64 C 163.27 106.27 163.16 112.91 163.32 119.55 C 161.59 119.62 159.86 119.68 158.14 119.76 C 158.12 123.58 158.12 127.41 158.15 131.24 C 164.86 131.31 171.56 131.26 178.27 131.27 C 178.32 132.30 178.37 133.33 178.43 134.36 C 181.98 134.37 185.54 134.35 189.10 134.32 C 189.09 133.56 189.08 132.03 189.08 131.27 C 202.30 131.31 215.53 131.20 228.76 131.34 C 228.87 131.91 229.08 133.05 229.18 133.62 C 233.65 133.40 238.15 133.90 242.60 133.35 C 242.53 132.79 242.39 131.66 242.32 131.10 C 252.97 131.53 263.66 131.14 274.32 131.28 C 274.40 132.30 274.47 133.33 274.55 134.36 C 278.70 134.36 282.86 134.36 287.01 134.31 C 286.99 133.55 286.95 132.04 286.93 131.28 C 299.98 131.27 313.03 131.27 326.09 131.28 C 326.07 132.03 326.02 133.55 326.00 134.30 C 329.87 134.36 333.75 134.37 337.63 134.36 C 337.67 133.33 337.72 132.30 337.78 131.27 C 351.10 131.28 364.43 131.25 377.75 131.29 C 377.73 132.05 377.70 133.58 377.68 134.35 C 382.44 134.35 387.21 134.38 391.98 134.30 C 391.84 124.24 391.95 114.18 391.92 104.12 C 387.19 104.12 382.47 104.15 377.75 104.07 C 377.75 104.85 377.76 106.42 377.76 107.20 C 374.38 107.20 371.01 107.20 367.63 107.15 C 367.48 111.32 367.53 115.51 367.57 119.69 C 366.22 119.68 364.87 119.68 363.52 119.68 C 363.31 105.94 363.69 92.20 363.33 78.47 C 365.47 78.30 367.62 78.21 369.78 78.12 C 369.64 72.23 369.73 66.34 369.71 60.45 C 364.94 60.48 360.18 60.48 355.41 60.45 C 355.41 61.24 355.42 62.83 355.42 63.62 C 349.52 63.62 343.61 63.61 337.71 63.62 C 337.70 62.82 337.67 61.22 337.66 60.43 C 333.83 60.49 330.00 60.49 326.18 60.41 C 326.15 61.21 326.10 62.82 326.07 63.62 C 312.41 63.59 298.75 63.67 285.09 63.58 C 281.20 60.01 275.65 61.61 270.91 61.25 C 270.88 61.84 270.82 63.01 270.79 63.60 C 261.35 63.76 251.87 63.31 242.44 63.85 C 242.46 63.21 242.50 61.94 242.52 61.31 C 238.10 61.34 233.68 61.11 229.28 61.35 C 229.14 61.91 228.86 63.05 228.72 63.62 C 215.50 63.62 202.28 63.61 189.07 63.62 C 189.03 62.82 188.95 61.21 188.91 60.41 C 185.40 60.48 181.88 60.49 178.37 60.44 Z" />
<path fill="#e84100" opacity="1.00" d=" M 84.96 75.38 C 86.14 75.38 87.33 75.37 88.51 75.37 C 88.50 78.41 88.49 81.45 88.47 84.49 C 91.91 84.50 95.36 84.51 98.80 84.51 C 98.97 85.14 99.32 86.40 99.50 87.03 C 103.73 87.62 108.02 87.24 112.27 87.21 L 112.27 87.77 C 107.86 87.86 103.45 87.87 99.05 87.65 C 99.06 88.19 99.07 89.26 99.08 89.80 C 94.20 90.09 89.14 90.77 84.38 89.36 C 85.21 84.74 84.89 80.05 84.96 75.38 Z" />
<path fill="#e84100" opacity="1.00" d=" M 214.89 75.38 C 216.15 75.38 217.41 75.37 218.67 75.37 C 218.64 78.40 218.63 81.43 218.61 84.46 C 222.01 84.50 225.42 84.52 228.83 84.50 C 228.85 85.17 228.90 86.51 228.92 87.18 C 226.32 87.18 223.72 87.19 221.12 87.19 C 221.12 87.96 221.11 89.50 221.11 90.26 C 219.01 90.22 216.92 90.22 214.83 90.23 C 214.85 85.28 214.84 80.33 214.89 75.38 Z" />
<path fill="#e84100" opacity="1.00" d=" M 261.16 75.34 C 261.82 75.39 263.13 75.48 263.79 75.53 C 264.72 78.35 264.06 81.53 264.17 84.49 C 267.88 84.51 271.59 84.52 275.30 84.48 C 274.97 86.40 274.64 88.32 274.33 90.24 C 269.93 90.23 265.53 90.24 261.14 90.24 C 261.15 85.27 261.14 80.31 261.16 75.34 Z" />
<path fill="#e84100" opacity="1.00" d=" M 136.60 75.38 C 137.52 75.39 139.36 75.40 140.28 75.41 C 140.24 80.35 140.27 85.30 140.24 90.25 C 139.32 90.25 137.47 90.25 136.55 90.24 C 136.55 85.29 136.55 80.33 136.60 75.38 Z" />
<path fill="#e84100" opacity="1.00" d=" M 312.83 75.38 C 313.70 75.38 315.44 75.38 316.30 75.38 C 316.30 78.42 316.29 81.46 316.26 84.50 C 319.49 84.50 322.72 84.50 325.95 84.51 C 325.99 85.18 326.07 86.52 326.11 87.19 C 323.45 87.19 320.80 87.18 318.14 87.18 C 318.13 87.94 318.10 89.47 318.08 90.23 C 316.30 90.25 314.52 90.25 312.75 90.25 C 312.74 85.29 312.73 80.34 312.83 75.38 Z" />
<path fill="#e84100" opacity="1.00" d=" M 332.28 87.20 C 334.20 87.19 336.13 87.18 338.06 87.17 L 339.52 87.17 C 339.56 92.82 339.53 98.47 339.54 104.12 C 337.11 104.08 334.68 104.06 332.25 104.03 C 332.31 98.42 332.30 92.81 332.28 87.20 Z" />
<path fill="#e84100" opacity="1.00" d=" M 214.34 101.73 C 216.59 101.89 218.84 102.01 221.08 102.26 C 221.05 102.86 221.00 104.07 220.97 104.67 C 223.78 105.29 227.68 103.91 229.56 106.69 C 225.86 106.59 222.17 106.70 218.48 106.66 C 218.34 110.82 218.26 115.00 218.34 119.17 C 217.46 119.31 215.72 119.59 214.85 119.73 C 214.66 113.73 215.35 107.68 214.34 101.73 Z" />
<path fill="#e84100" opacity="1.00" d=" M 312.74 101.69 C 314.53 101.68 316.32 101.69 318.11 101.70 C 318.12 102.53 318.12 104.18 318.13 105.01 C 320.96 105.51 325.61 103.51 326.70 107.18 C 323.22 107.19 319.75 107.19 316.28 107.19 C 316.30 111.36 316.29 115.53 316.28 119.70 C 315.40 119.70 313.66 119.69 312.79 119.68 C 312.73 113.68 312.76 107.68 312.74 101.69 Z" />
</g>
<g id="#201313ff">
<path fill="#201313" opacity="1.00" d=" M 178.37 60.44 C 181.88 60.49 185.40 60.48 188.91 60.41 C 188.95 61.21 189.03 62.82 189.07 63.62 C 187.95 63.63 186.82 63.64 185.71 63.65 C 185.70 67.54 185.70 71.42 185.71 75.31 C 187.02 75.35 188.33 75.40 189.64 75.46 C 189.14 76.81 188.38 77.98 187.38 78.99 C 187.20 89.98 187.42 100.98 187.26 111.97 C 187.34 113.87 186.77 116.31 188.99 117.25 C 189.06 117.85 189.19 119.07 189.26 119.68 C 188.37 119.69 186.60 119.69 185.71 119.70 C 185.70 123.55 185.70 127.40 185.72 131.26 C 186.56 131.26 188.24 131.27 189.08 131.27 C 189.08 132.03 189.09 133.56 189.10 134.32 C 185.54 134.35 181.98 134.37 178.43 134.36 C 178.37 133.33 178.32 132.30 178.27 131.27 C 179.10 131.27 180.76 131.27 181.59 131.27 C 181.65 127.38 181.65 123.50 181.60 119.61 C 179.97 119.67 178.35 119.74 176.73 119.85 C 177.55 118.37 178.22 116.77 178.09 115.04 C 178.02 103.37 177.96 91.69 178.02 80.01 C 177.58 77.67 180.04 76.74 181.39 75.37 C 181.85 71.47 181.59 67.53 181.61 63.62 C 180.52 63.62 179.44 63.62 178.35 63.62 C 178.36 62.82 178.37 61.23 178.37 60.44 Z" />
<path fill="#201313" opacity="1.00" d=" M 326.18 60.41 C 330.00 60.49 333.83 60.49 337.66 60.43 C 337.67 61.22 337.70 62.82 337.71 63.62 C 336.61 63.62 335.52 63.62 334.43 63.63 C 334.44 67.54 334.20 71.47 334.63 75.36 C 335.66 76.29 336.93 76.99 337.77 78.12 C 338.24 81.11 338.04 84.16 338.06 87.17 C 336.13 87.18 334.20 87.19 332.28 87.20 C 332.30 92.81 332.31 98.42 332.25 104.03 C 334.68 104.06 337.11 104.08 339.54 104.12 C 339.54 109.32 339.54 114.51 339.55 119.71 C 337.84 119.70 336.13 119.68 334.43 119.67 C 334.40 123.53 334.40 127.40 334.45 131.27 C 335.28 131.27 336.95 131.27 337.78 131.27 C 337.72 132.30 337.67 133.33 337.63 134.36 C 333.75 134.37 329.87 134.36 326.00 134.30 C 326.02 133.55 326.07 132.03 326.09 131.28 C 326.94 131.28 328.64 131.28 329.49 131.29 C 329.60 123.26 329.50 115.23 329.55 107.20 C 328.59 107.19 327.64 107.18 326.70 107.18 C 325.61 103.51 320.96 105.51 318.13 105.01 C 318.12 104.18 318.12 102.53 318.11 101.70 C 318.98 101.71 320.72 101.74 321.59 101.75 C 321.68 97.89 321.67 94.03 321.58 90.18 C 320.71 90.19 318.96 90.22 318.08 90.23 C 318.10 89.47 318.13 87.94 318.14 87.18 C 320.80 87.18 323.45 87.19 326.11 87.19 C 326.07 86.52 325.99 85.18 325.95 84.51 C 327.14 84.51 328.34 84.51 329.54 84.51 C 329.53 77.54 329.55 70.58 329.52 63.61 C 328.37 63.61 327.22 63.62 326.07 63.62 C 326.10 62.82 326.15 61.21 326.18 60.41 Z" />
<path fill="#201313" opacity="1.00" d=" M 355.41 60.45 C 360.18 60.48 364.94 60.48 369.71 60.45 C 369.73 66.34 369.64 72.23 369.78 78.12 C 367.62 78.21 365.47 78.30 363.33 78.47 C 363.69 92.20 363.31 105.94 363.52 119.68 C 360.09 119.67 356.66 119.68 353.24 119.70 C 353.23 104.94 353.33 90.18 353.19 75.43 C 355.00 75.40 356.82 75.38 358.65 75.37 C 358.68 71.45 358.68 67.54 358.65 63.62 C 357.57 63.62 356.49 63.62 355.42 63.62 C 355.42 62.83 355.41 61.24 355.41 60.45 Z" />
<path fill="#201313" opacity="1.00" d=" M 94.24 61.38 C 98.58 61.57 103.39 60.30 107.37 62.43 C 106.41 66.67 106.74 71.03 106.75 75.34 C 108.60 75.37 110.44 75.39 112.29 75.43 C 112.26 79.36 112.27 83.28 112.27 87.21 C 108.02 87.24 103.73 87.62 99.50 87.03 C 99.32 86.40 98.97 85.14 98.80 84.51 C 99.98 84.50 101.15 84.48 102.33 84.47 C 102.15 79.59 102.62 74.68 102.10 69.83 C 101.62 66.28 98.35 64.06 95.02 63.55 C 94.72 62.84 94.46 62.12 94.24 61.38 Z" />
<path fill="#201313" opacity="1.00" d=" M 229.28 61.35 C 233.68 61.11 238.10 61.34 242.52 61.31 C 242.50 61.94 242.46 63.21 242.44 63.85 C 239.89 64.92 237.25 66.97 237.20 70.00 C 236.95 75.52 237.23 81.05 237.09 86.57 C 233.76 88.37 235.94 92.91 235.35 95.95 C 235.95 98.95 233.77 103.50 237.09 105.28 C 237.24 111.87 236.95 118.46 237.20 125.03 C 237.26 128.03 240.06 129.71 242.32 131.10 C 242.39 131.66 242.53 132.79 242.60 133.35 C 238.15 133.90 233.65 133.40 229.18 133.62 C 229.08 133.05 228.87 131.91 228.76 131.34 C 230.22 131.43 232.81 131.36 232.25 129.09 C 232.32 121.83 232.17 114.56 232.30 107.30 C 231.39 107.08 230.47 106.87 229.56 106.69 C 227.68 103.91 223.78 105.29 220.97 104.67 C 221.00 104.07 221.05 102.86 221.08 102.26 C 221.98 102.00 222.88 101.70 223.76 101.38 C 224.63 97.77 224.15 94.05 224.26 90.39 C 223.21 90.34 222.16 90.30 221.11 90.26 C 221.11 89.50 221.12 87.96 221.12 87.19 C 223.72 87.19 226.32 87.18 228.92 87.18 C 228.90 86.51 228.85 85.17 228.83 84.50 C 229.97 84.49 231.12 84.48 232.27 84.46 C 232.24 77.53 232.26 70.60 232.25 63.67 C 231.07 63.65 229.89 63.63 228.72 63.62 C 228.86 63.05 229.14 61.91 229.28 61.35 Z" />
<path fill="#201313" opacity="1.00" d=" M 74.26 75.37 C 77.82 75.38 81.39 75.39 84.96 75.38 C 84.89 80.05 85.21 84.74 84.38 89.36 C 89.14 90.77 94.20 90.09 99.08 89.80 C 99.98 90.02 100.88 90.26 101.79 90.50 C 92.62 90.99 83.47 90.32 74.32 90.25 C 74.24 85.29 74.27 80.33 74.26 75.37 Z" />
<path fill="#201313" opacity="1.00" d=" M 250.24 75.37 C 253.88 75.40 257.52 75.36 261.16 75.34 C 261.14 80.31 261.15 85.27 261.14 90.24 C 258.77 90.24 256.41 90.24 254.05 90.24 C 254.06 94.06 254.06 97.87 254.04 101.69 C 256.41 101.69 258.79 101.69 261.17 101.69 C 261.19 107.68 261.16 113.68 261.20 119.68 C 257.55 119.67 253.90 119.68 250.25 119.71 C 250.25 104.93 250.27 90.15 250.24 75.37 Z" />
<path fill="#201313" opacity="1.00" d=" M 301.48 75.38 C 305.26 75.38 309.04 75.38 312.83 75.38 C 312.73 80.34 312.74 85.29 312.75 90.25 C 309.02 90.24 305.29 90.24 301.56 90.27 C 301.49 85.31 301.52 80.35 301.48 75.38 Z" />
<path fill="#201313" opacity="1.00" d=" M 125.73 75.38 C 129.35 75.39 132.97 75.38 136.60 75.38 C 136.55 80.33 136.55 85.29 136.55 90.24 C 132.95 90.25 129.35 90.24 125.76 90.25 C 125.73 85.29 125.76 80.34 125.73 75.38 Z" />
<path fill="#201313" opacity="1.00" d=" M 125.75 101.69 C 129.35 101.69 132.96 101.69 136.56 101.69 C 136.56 106.65 136.57 111.61 136.54 116.58 C 138.30 116.55 140.06 116.52 141.82 116.50 C 141.95 122.44 141.80 128.38 141.93 134.32 C 137.18 134.37 132.44 134.34 127.69 134.36 C 127.69 133.59 127.69 132.04 127.70 131.26 C 128.47 131.26 130.01 131.25 130.78 131.25 C 130.81 127.41 130.81 123.57 130.79 119.73 C 129.09 119.69 127.40 119.64 125.70 119.58 C 125.78 113.62 125.73 107.65 125.75 101.69 Z" />
<path fill="#201313" opacity="1.00" d=" M 301.49 119.68 C 301.54 113.68 301.50 107.68 301.52 101.68 C 305.26 101.70 309.00 101.69 312.74 101.69 C 312.76 107.68 312.73 113.68 312.79 119.68 C 309.02 119.67 305.25 119.67 301.49 119.68 Z" />
<path fill="#201313" opacity="1.00" d=" M 70.77 104.08 C 75.48 104.15 80.20 104.13 84.91 104.12 C 84.92 109.30 84.90 114.49 84.93 119.68 C 81.38 119.67 77.82 119.68 74.27 119.70 C 74.27 115.53 74.27 111.35 74.26 107.17 C 73.39 107.18 71.66 107.19 70.79 107.19 C 70.78 106.41 70.77 104.86 70.77 104.08 Z" />
<path fill="#201313" opacity="1.00" d=" M 377.75 104.07 C 382.47 104.15 387.19 104.12 391.92 104.12 C 391.95 114.18 391.84 124.24 391.98 134.30 C 387.21 134.38 382.44 134.35 377.68 134.35 C 377.70 133.58 377.73 132.05 377.75 131.29 C 378.44 131.28 379.83 131.26 380.52 131.25 C 380.84 123.24 380.55 115.22 380.67 107.21 C 379.94 107.21 378.49 107.20 377.76 107.20 C 377.76 106.42 377.75 104.85 377.75 104.07 Z" />
</g>
<g id="#1f1313ff">
<path fill="#1f1313" opacity="1.00" d=" M 146.32 61.28 C 151.34 61.47 156.93 60.21 161.21 63.59 C 160.44 63.60 158.92 63.61 158.15 63.61 C 158.11 67.55 158.11 71.48 158.16 75.42 C 159.85 75.39 161.53 75.36 163.22 75.33 C 163.26 83.43 163.23 91.54 163.24 99.64 C 161.17 101.59 159.00 103.87 156.00 104.20 C 152.76 104.59 149.49 104.41 146.23 104.47 C 146.35 103.80 146.59 102.46 146.71 101.79 C 150.37 101.71 153.76 98.68 153.69 94.91 C 153.85 87.95 153.64 80.98 153.76 74.02 C 153.70 71.50 154.00 68.69 152.38 66.55 C 151.05 64.51 148.50 64.03 146.29 63.58 C 146.30 63.00 146.31 61.85 146.32 61.28 Z" />
<path fill="#1f1313" opacity="1.00" d=" M 270.91 61.25 C 275.65 61.61 281.20 60.01 285.09 63.58 L 283.40 63.57 C 283.37 67.50 283.38 71.43 283.39 75.36 C 285.00 75.39 286.62 75.43 288.24 75.48 C 288.19 90.19 288.22 104.89 288.26 119.60 C 286.64 119.64 285.01 119.66 283.40 119.69 C 283.37 123.56 283.37 127.43 283.42 131.29 C 284.29 131.29 286.05 131.28 286.93 131.28 C 286.95 132.04 286.99 133.55 287.01 134.31 C 282.86 134.36 278.70 134.36 274.55 134.36 C 274.47 133.33 274.40 132.30 274.32 131.28 C 275.52 131.28 276.72 131.28 277.92 131.28 C 278.24 117.61 277.99 103.93 278.06 90.26 C 277.13 90.25 275.26 90.25 274.33 90.24 C 274.64 88.32 274.97 86.40 275.30 84.48 C 276.22 84.47 277.15 84.45 278.08 84.44 C 277.93 79.43 278.37 74.40 277.81 69.42 C 277.35 65.99 274.01 63.90 270.79 63.60 C 270.82 63.01 270.88 61.84 270.91 61.25 Z" />
<path fill="#1f1313" opacity="1.00" d=" M 204.14 75.37 C 207.72 75.38 211.31 75.39 214.89 75.38 C 214.84 80.33 214.85 85.28 214.83 90.23 C 211.28 90.26 207.73 90.24 204.19 90.25 C 204.13 85.29 204.16 80.33 204.14 75.37 Z" />
<path fill="#1f1313" opacity="1.00" d=" M 204.21 101.67 C 210.73 101.90 217.24 101.13 223.76 101.38 C 222.88 101.70 221.98 102.00 221.08 102.26 C 218.84 102.01 216.59 101.89 214.34 101.73 C 215.35 107.68 214.66 113.73 214.85 119.73 C 211.27 119.64 207.70 119.68 204.13 119.67 C 204.19 113.67 204.10 107.67 204.21 101.67 Z" />
</g>
<g id="#ffffffff">
<path fill="#ffffff" opacity="1.00" d=" M 107.37 62.43 L 107.38 62.36 C 108.06 63.25 108.94 63.67 110.04 63.63 C 122.12 63.60 134.21 63.65 146.29 63.58 C 148.50 64.03 151.05 64.51 152.38 66.55 C 154.00 68.69 153.70 71.50 153.76 74.02 C 153.64 80.98 153.85 87.95 153.69 94.91 C 153.76 98.68 150.37 101.71 146.71 101.79 C 143.33 101.74 139.94 101.65 136.56 101.69 C 132.96 101.69 129.35 101.69 125.75 101.69 C 125.73 107.65 125.78 113.62 125.70 119.58 C 127.40 119.64 129.09 119.69 130.79 119.73 C 130.81 123.57 130.81 127.41 130.78 131.25 C 130.01 131.25 128.47 131.26 127.70 131.26 C 121.51 131.31 115.32 131.22 109.13 131.32 L 107.25 131.33 C 107.17 127.45 107.18 123.57 107.22 119.69 C 108.91 119.66 110.61 119.64 112.30 119.61 C 112.23 108.99 112.29 98.38 112.27 87.77 L 112.27 87.21 C 112.27 83.28 112.26 79.36 112.29 75.43 C 110.44 75.39 108.60 75.37 106.75 75.34 C 106.74 71.03 106.41 66.67 107.37 62.43 M 125.73 75.38 C 125.76 80.34 125.73 85.29 125.76 90.25 C 129.35 90.24 132.95 90.25 136.55 90.24 C 137.47 90.25 139.32 90.25 140.24 90.25 C 140.27 85.30 140.24 80.35 140.28 75.41 C 139.36 75.40 137.52 75.39 136.60 75.38 C 132.97 75.38 129.35 75.39 125.73 75.38 Z" />
<path fill="#ffffff" opacity="1.00" d=" M 178.35 63.62 C 179.44 63.62 180.52 63.62 181.61 63.62 C 181.59 67.53 181.85 71.47 181.39 75.37 C 179.77 75.39 178.15 75.40 176.53 75.41 C 176.69 90.22 176.29 105.04 176.73 119.85 C 178.35 119.74 179.97 119.67 181.60 119.61 C 181.65 123.50 181.65 127.38 181.59 131.27 C 180.76 131.27 179.10 131.27 178.27 131.27 C 171.56 131.26 164.86 131.31 158.15 131.24 C 158.12 127.41 158.12 123.58 158.14 119.76 C 159.86 119.68 161.59 119.62 163.32 119.55 C 163.16 112.91 163.27 106.27 163.24 99.64 C 163.23 91.54 163.26 83.43 163.22 75.33 C 161.53 75.36 159.85 75.39 158.16 75.42 C 158.11 71.48 158.11 67.55 158.15 63.61 C 158.92 63.61 160.44 63.60 161.21 63.59 C 166.92 63.63 172.64 63.61 178.35 63.62 Z" />
<path fill="#ffffff" opacity="1.00" d=" M 185.71 63.65 C 186.82 63.64 187.95 63.63 189.07 63.62 C 202.28 63.61 215.50 63.62 228.72 63.62 C 229.89 63.63 231.07 63.65 232.25 63.67 C 232.26 70.60 232.24 77.53 232.27 84.46 C 231.12 84.48 229.97 84.49 228.83 84.50 C 225.42 84.52 222.01 84.50 218.61 84.46 C 218.63 81.43 218.64 78.40 218.67 75.37 C 217.41 75.37 216.15 75.38 214.89 75.38 C 211.31 75.39 207.72 75.38 204.14 75.37 C 204.16 80.33 204.13 85.29 204.19 90.25 C 207.73 90.24 211.28 90.26 214.83 90.23 C 216.92 90.22 219.01 90.22 221.11 90.26 C 222.16 90.30 223.21 90.34 224.26 90.39 C 224.15 94.05 224.63 97.77 223.76 101.38 C 217.24 101.13 210.73 101.90 204.21 101.67 C 204.10 107.67 204.19 113.67 204.13 119.67 C 207.70 119.68 211.27 119.64 214.85 119.73 C 216.18 119.78 217.52 119.84 218.86 119.91 C 218.85 115.75 218.85 111.59 218.85 107.43 C 223.33 107.32 227.82 107.33 232.30 107.30 C 232.17 114.56 232.32 121.83 232.25 129.09 C 232.81 131.36 230.22 131.43 228.76 131.34 C 215.53 131.20 202.30 131.31 189.08 131.27 C 188.24 131.27 186.56 131.26 185.72 131.26 C 185.70 127.40 185.70 123.55 185.71 119.70 C 186.60 119.69 188.37 119.69 189.26 119.68 C 189.65 119.68 190.44 119.68 190.83 119.68 C 190.85 104.97 190.83 90.26 190.85 75.55 C 190.55 75.53 189.94 75.49 189.64 75.46 C 188.33 75.40 187.02 75.35 185.71 75.31 C 185.70 71.42 185.70 67.54 185.71 63.65 Z" />
<path fill="#ffffff" opacity="1.00" d=" M 326.07 63.62 C 327.22 63.62 328.37 63.61 329.52 63.61 C 329.55 70.58 329.53 77.54 329.54 84.51 C 328.34 84.51 327.14 84.51 325.95 84.51 C 322.72 84.50 319.49 84.50 316.26 84.50 C 316.29 81.46 316.30 78.42 316.30 75.38 C 315.44 75.38 313.70 75.38 312.83 75.38 C 309.04 75.38 305.26 75.38 301.48 75.38 C 301.52 80.35 301.49 85.31 301.56 90.27 C 305.29 90.24 309.02 90.24 312.75 90.25 C 314.52 90.25 316.30 90.25 318.08 90.23 C 318.96 90.22 320.71 90.19 321.58 90.18 C 321.67 94.03 321.68 97.89 321.59 101.75 C 320.72 101.74 318.98 101.71 318.11 101.70 C 316.32 101.69 314.53 101.68 312.74 101.69 C 309.00 101.69 305.26 101.70 301.52 101.68 C 301.50 107.68 301.54 113.68 301.49 119.68 C 305.25 119.67 309.02 119.67 312.79 119.68 C 313.66 119.69 315.40 119.70 316.28 119.70 C 316.29 115.53 316.30 111.36 316.28 107.19 C 319.75 107.19 323.22 107.19 326.70 107.18 C 327.64 107.18 328.59 107.19 329.55 107.20 C 329.50 115.23 329.60 123.26 329.49 131.29 C 328.64 131.28 326.94 131.28 326.09 131.28 C 313.03 131.27 299.98 131.27 286.93 131.28 C 286.05 131.28 284.29 131.29 283.42 131.29 C 283.37 127.43 283.37 123.56 283.40 119.69 C 285.01 119.66 286.64 119.64 288.26 119.60 C 288.22 104.89 288.19 90.19 288.24 75.48 C 286.62 75.43 285.00 75.39 283.39 75.36 C 283.38 71.43 283.37 67.50 283.40 63.57 L 285.09 63.58 C 298.75 63.67 312.41 63.59 326.07 63.62 Z" />
<path fill="#ffffff" opacity="1.00" d=" M 334.43 63.63 C 335.52 63.62 336.61 63.62 337.71 63.62 C 343.61 63.61 349.52 63.62 355.42 63.62 C 356.49 63.62 357.57 63.62 358.65 63.62 C 358.68 67.54 358.68 71.45 358.65 75.37 C 356.82 75.38 355.00 75.40 353.19 75.43 C 353.33 90.18 353.23 104.94 353.24 119.70 C 356.66 119.68 360.09 119.67 363.52 119.68 C 364.87 119.68 366.22 119.68 367.57 119.69 C 367.53 115.51 367.48 111.32 367.63 107.15 C 371.01 107.20 374.38 107.20 377.76 107.20 C 378.49 107.20 379.94 107.21 380.67 107.21 C 380.55 115.22 380.84 123.24 380.52 131.25 C 379.83 131.26 378.44 131.28 377.75 131.29 C 364.43 131.25 351.10 131.28 337.78 131.27 C 336.95 131.27 335.28 131.27 334.45 131.27 C 334.40 127.40 334.40 123.53 334.43 119.67 C 336.13 119.68 337.84 119.70 339.55 119.71 C 339.54 114.51 339.54 109.32 339.54 104.12 C 339.53 98.47 339.56 92.82 339.52 87.17 C 339.49 83.25 339.50 79.33 339.52 75.41 C 337.89 75.41 336.25 75.39 334.63 75.36 C 334.20 71.47 334.44 67.54 334.43 63.63 Z" />
<path fill="#ffffff" opacity="1.00" d=" M 61.15 70.92 C 60.90 66.74 64.96 63.40 68.98 63.64 C 77.66 63.55 86.34 63.70 95.02 63.55 C 98.35 64.06 101.62 66.28 102.10 69.83 C 102.62 74.68 102.15 79.59 102.33 84.47 C 101.15 84.48 99.98 84.50 98.80 84.51 C 95.36 84.51 91.91 84.50 88.47 84.49 C 88.49 81.45 88.50 78.41 88.51 75.37 C 87.33 75.37 86.14 75.38 84.96 75.38 C 81.39 75.39 77.82 75.38 74.26 75.37 C 74.27 80.33 74.24 85.29 74.32 90.25 C 83.47 90.32 92.62 90.99 101.79 90.50 L 102.25 90.54 C 102.32 101.68 102.38 112.82 102.25 123.96 C 102.25 127.96 98.84 130.91 95.06 131.37 C 86.39 131.17 77.71 131.33 69.04 131.27 C 65.06 131.53 61.00 128.18 61.16 124.06 C 61.05 118.44 61.17 112.81 61.13 107.19 C 64.35 107.19 67.57 107.20 70.79 107.19 C 71.66 107.19 73.39 107.18 74.26 107.17 C 74.27 111.35 74.27 115.53 74.27 119.70 C 77.82 119.68 81.38 119.67 84.93 119.68 C 86.12 119.68 87.31 119.69 88.50 119.69 C 88.46 113.68 88.59 107.66 88.41 101.65 C 79.32 101.75 70.22 101.67 61.12 101.70 C 61.16 91.44 61.08 81.18 61.15 70.92 Z" />
<path fill="#ffffff" opacity="1.00" d=" M 237.20 70.00 C 237.25 66.97 239.89 64.92 242.44 63.85 C 251.87 63.31 261.35 63.76 270.79 63.60 C 274.01 63.90 277.35 65.99 277.81 69.42 C 278.37 74.40 277.93 79.43 278.08 84.44 C 277.15 84.45 276.22 84.47 275.30 84.48 C 271.59 84.52 267.88 84.51 264.17 84.49 C 264.06 81.53 264.72 78.35 263.79 75.53 C 263.13 75.48 261.82 75.39 261.16 75.34 C 257.52 75.36 253.88 75.40 250.24 75.37 C 250.27 90.15 250.25 104.93 250.25 119.71 C 253.90 119.68 257.55 119.67 261.20 119.68 C 262.07 119.68 263.82 119.69 264.70 119.69 C 264.71 113.69 264.75 107.68 264.66 101.67 C 263.79 101.67 262.04 101.68 261.17 101.69 C 258.79 101.69 256.41 101.69 254.04 101.69 C 254.06 97.87 254.06 94.06 254.05 90.24 C 256.41 90.24 258.77 90.24 261.14 90.24 C 265.53 90.24 269.93 90.23 274.33 90.24 C 275.26 90.25 277.13 90.25 278.06 90.26 C 277.99 103.93 278.24 117.61 277.92 131.28 C 276.72 131.28 275.52 131.28 274.32 131.28 C 263.66 131.14 252.97 131.53 242.32 131.10 C 240.06 129.71 237.26 128.03 237.20 125.03 C 236.95 118.46 237.24 111.87 237.09 105.28 C 237.14 99.04 237.14 92.81 237.09 86.57 C 237.23 81.05 236.95 75.52 237.20 70.00 Z" />
</g>
<g id="#0f0101ff">
<path fill="#0f0101" opacity="1.00" d=" M 176.53 75.41 C 178.15 75.40 179.77 75.39 181.39 75.37 C 180.04 76.74 177.58 77.67 178.02 80.01 C 177.96 91.69 178.02 103.37 178.09 115.04 C 178.22 116.77 177.55 118.37 176.73 119.85 C 176.29 105.04 176.69 90.22 176.53 75.41 Z" />
</g>
<g id="#f54400ff">
<path fill="#f54400" opacity="1.00" d=" M 189.64 75.46 C 189.94 75.49 190.55 75.53 190.85 75.55 C 190.83 90.26 190.85 104.97 190.83 119.68 C 190.44 119.68 189.65 119.68 189.26 119.68 C 189.19 119.07 189.06 117.85 188.99 117.25 C 186.77 116.31 187.34 113.87 187.26 111.97 C 187.42 100.98 187.20 89.98 187.38 78.99 C 188.38 77.98 189.14 76.81 189.64 75.46 Z" />
<path fill="#f54400" opacity="1.00" d=" M 235.35 95.95 C 235.94 92.91 233.76 88.37 237.09 86.57 C 237.14 92.81 237.14 99.04 237.09 105.28 C 233.77 103.50 235.95 98.95 235.35 95.95 Z" />
</g>
<g id="#0d0101ff">
<path fill="#0d0101" opacity="1.00" d=" M 334.63 75.36 C 336.25 75.39 337.89 75.41 339.52 75.41 C 339.50 79.33 339.49 83.25 339.52 87.17 L 338.06 87.17 C 338.04 84.16 338.24 81.11 337.77 78.12 C 336.93 76.99 335.66 76.29 334.63 75.36 Z" />
</g>
<g id="#1e1313ff">
<path fill="#1e1313" opacity="1.00" d=" M 99.08 89.80 C 99.07 89.26 99.06 88.19 99.05 87.65 C 103.45 87.87 107.86 87.86 112.27 87.77 C 112.29 98.38 112.23 108.99 112.30 119.61 C 110.61 119.64 108.91 119.66 107.22 119.69 C 107.18 123.57 107.17 127.45 107.25 131.33 L 109.13 131.32 C 105.83 134.46 101.07 133.46 96.96 133.62 C 95.66 134.17 93.61 132.59 95.06 131.37 C 98.84 130.91 102.25 127.96 102.25 123.96 C 102.38 112.82 102.32 101.68 102.25 90.54 L 101.79 90.50 C 100.88 90.26 99.98 90.02 99.08 89.80 Z" />
</g>
<g id="#f04300ff">
<path fill="#f04300" opacity="1.00" d=" M 261.17 101.69 C 262.04 101.68 263.79 101.67 264.66 101.67 C 264.75 107.68 264.71 113.69 264.70 119.69 C 263.82 119.69 262.07 119.68 261.20 119.68 C 261.16 113.68 261.19 107.68 261.17 101.69 Z" />
</g>
<g id="#e08970ff">
<path fill="#e08970" opacity="1.00" d=" M 218.48 106.66 C 222.17 106.70 225.86 106.59 229.56 106.69 C 230.47 106.87 231.39 107.08 232.30 107.30 C 227.82 107.33 223.33 107.32 218.85 107.43 C 218.85 111.59 218.85 115.75 218.86 119.91 C 217.52 119.84 216.18 119.78 214.85 119.73 C 215.72 119.59 217.46 119.31 218.34 119.17 C 218.26 115.00 218.34 110.82 218.48 106.66 Z" />
</g>
<g id="#2425255f">
<path fill="#242525" opacity="0.37" d=" M 61.65 170.03 C 70.10 166.96 79.86 167.35 88.33 170.06 C 79.52 168.66 70.46 168.51 61.65 170.03 Z" />
</g>
<g id="#25252791">
<path fill="#252527" opacity="0.57" d=" M 212.30 169.98 C 219.29 167.70 227.18 168.13 234.21 170.08 C 226.94 169.12 219.57 168.91 212.30 169.98 Z" />
</g>
<g id="#2a2a2a53">
<path fill="#2a2a2a" opacity="0.33" d=" M 298.39 168.99 C 302.84 167.36 308.25 167.44 312.70 169.01 C 307.93 168.91 303.16 168.89 298.39 168.99 Z" />
</g>
<g id="#29292950">
<path fill="#292929" opacity="0.31" d=" M 499.59 169.08 C 502.14 167.56 505.22 168.04 508.05 167.93 C 510.24 168.02 512.64 167.76 514.57 169.05 C 509.58 168.87 504.58 168.85 499.59 169.08 Z" />
</g>
<g id="#1b1c20ff">
<path fill="#1b1c20" opacity="1.00" d=" M 61.65 170.03 C 70.46 168.51 79.52 168.66 88.33 170.06 L 88.91 170.31 C 89.41 170.49 90.40 170.85 90.90 171.03 L 91.84 171.48 C 93.01 172.32 94.28 173.29 95.82 173.09 L 97.15 173.10 C 97.54 173.41 98.31 174.02 98.69 174.32 L 99.60 174.27 L 99.97 175.07 C 100.37 176.31 101.63 177.01 102.87 177.15 C 103.26 177.23 104.06 177.40 104.46 177.48 L 104.85 178.29 C 105.36 179.66 106.48 180.77 107.93 181.07 L 109.18 181.48 C 107.88 183.02 106.80 184.73 105.90 186.53 C 105.78 186.75 105.55 187.19 105.43 187.42 L 104.66 187.82 C 103.26 188.32 102.45 189.59 101.95 190.91 C 101.00 193.13 99.11 194.72 97.66 196.59 C 97.63 196.61 97.59 196.67 97.57 196.70 C 97.13 197.30 96.25 198.50 95.81 199.10 C 94.71 198.24 93.44 197.61 92.15 197.10 C 91.75 196.93 90.95 196.60 90.55 196.43 L 90.15 195.73 C 89.49 194.02 87.64 193.48 86.05 193.01 C 85.16 192.71 84.27 192.38 83.40 192.02 C 78.69 189.72 73.21 189.39 68.20 190.85 L 67.79 190.92 C 67.31 191.13 66.33 191.55 65.84 191.76 L 64.58 192.65 C 64.56 192.66 64.53 192.68 64.51 192.69 C 63.84 192.97 62.50 193.53 61.83 193.80 C 60.68 193.96 59.98 194.57 59.72 195.63 L 59.47 196.54 L 58.61 196.88 C 57.13 197.21 56.41 198.64 56.03 199.98 C 55.72 200.85 55.34 201.70 54.89 202.51 C 50.94 208.74 51.46 216.76 53.83 223.47 C 54.59 225.88 56.12 227.94 58.02 229.59 C 60.36 231.88 63.14 233.61 65.93 235.29 C 66.43 235.47 67.43 235.83 67.93 236.01 C 68.27 236.07 68.96 236.19 69.31 236.25 C 73.06 237.30 77.00 237.30 80.76 236.25 C 81.09 236.19 81.74 236.08 82.06 236.02 C 82.57 235.88 83.60 235.60 84.11 235.47 L 85.01 235.11 C 86.39 234.50 88.02 234.18 89.09 233.03 C 89.69 230.47 89.65 227.73 89.02 225.17 C 83.28 224.80 77.50 224.93 71.75 225.13 C 71.83 219.39 71.66 213.64 71.71 207.90 C 71.40 205.96 73.47 205.49 74.93 205.66 C 85.63 205.87 96.33 205.54 107.02 205.80 C 108.44 205.82 109.90 205.78 111.21 205.16 L 112.04 204.92 C 111.61 206.57 111.46 208.28 111.49 209.99 C 111.59 221.25 111.46 232.52 111.57 243.78 L 110.88 243.90 C 109.29 243.93 108.37 245.32 107.67 246.56 C 105.28 249.43 101.69 251.09 98.36 252.67 C 96.00 253.56 93.73 254.67 91.47 255.81 L 90.85 255.98 C 90.35 256.17 89.37 256.55 88.87 256.74 C 88.41 256.82 87.48 256.99 87.01 257.08 C 86.51 257.23 85.52 257.54 85.02 257.69 C 84.59 257.77 83.72 257.92 83.28 258.00 C 78.00 258.23 72.72 257.97 67.44 258.19 C 66.78 258.10 65.47 257.93 64.82 257.85 C 60.95 256.73 57.09 255.49 53.41 253.84 L 53.15 253.62 C 52.32 252.68 51.22 252.02 49.98 251.86 C 48.47 251.55 46.99 250.81 46.12 249.50 C 45.19 248.01 44.20 245.97 42.11 246.18 L 41.17 246.12 C 40.45 245.04 39.62 244.01 39.17 242.79 C 38.96 241.65 38.32 240.97 37.27 240.75 L 36.63 240.60 C 36.51 240.32 36.26 239.77 36.14 239.49 C 33.32 233.63 30.58 227.72 29.11 221.35 L 29.08 221.21 C 28.77 216.05 28.80 210.88 29.06 205.73 L 29.37 204.85 C 30.22 203.03 30.68 201.07 30.92 199.09 L 31.46 198.18 C 32.36 197.03 33.08 195.73 33.10 194.24 C 33.10 193.26 33.37 192.39 33.92 191.62 C 35.43 189.74 36.81 187.77 37.99 185.67 C 38.23 185.33 38.70 184.64 38.94 184.29 C 40.71 182.52 42.50 180.76 44.27 178.98 C 44.73 178.77 45.63 178.34 46.08 178.12 C 47.24 177.99 47.97 177.40 48.27 176.34 L 48.44 175.72 C 48.74 175.61 49.33 175.38 49.62 175.26 C 52.08 174.37 54.39 173.16 56.64 171.84 L 57.46 171.41 C 57.48 171.40 57.52 171.39 57.55 171.38 L 59.02 171.03 C 59.51 170.85 60.51 170.49 61.01 170.31 L 61.65 170.03 Z" />
<path fill="#1b1c20" opacity="1.00" d=" M 117.13 169.19 C 139.88 169.25 162.64 169.31 185.39 169.16 C 185.43 176.53 185.37 183.91 185.43 191.28 C 170.58 191.21 155.73 191.29 140.87 191.24 C 140.81 194.90 140.79 198.55 140.81 202.21 C 153.91 202.18 167.02 202.23 180.12 202.19 C 180.13 209.53 180.13 216.88 180.13 224.22 C 167.03 224.20 153.94 224.22 140.84 224.21 C 140.82 227.86 140.80 231.52 140.81 235.17 C 155.67 235.11 170.52 235.27 185.38 235.09 C 185.45 242.15 185.37 249.22 185.42 256.28 C 162.65 256.22 139.88 256.26 117.12 256.26 C 117.21 227.24 117.18 198.22 117.13 169.19 Z" />
<path fill="#1b1c20" opacity="1.00" d=" M 292.56 170.20 C 294.44 169.56 296.41 169.17 298.39 168.99 C 303.16 168.89 307.93 168.91 312.70 169.01 C 314.83 169.21 317.00 169.48 318.99 170.30 C 319.49 170.47 320.50 170.81 321.00 170.98 L 321.97 171.15 C 322.44 171.38 323.39 171.83 323.87 172.06 C 326.28 172.63 328.88 173.56 330.58 175.43 C 331.03 176.50 331.79 177.01 332.88 176.97 L 333.70 176.95 C 333.93 177.20 334.38 177.72 334.61 177.97 C 336.35 180.04 338.16 182.06 340.03 184.02 C 338.50 185.73 337.04 187.50 335.72 189.37 C 335.15 190.13 334.57 190.87 333.93 191.56 C 332.11 193.37 330.41 195.29 328.88 197.35 C 328.62 197.66 328.09 198.27 327.83 198.58 C 327.39 198.99 326.53 199.80 326.09 200.21 C 324.98 199.44 323.86 198.68 322.77 197.88 C 322.40 197.53 321.67 196.83 321.30 196.47 C 320.47 195.38 319.49 194.33 318.10 194.01 C 316.91 193.57 315.74 193.09 314.59 192.58 C 314.56 192.56 314.50 192.53 314.48 192.52 L 313.14 191.74 C 312.66 191.52 311.69 191.08 311.20 190.86 L 310.57 190.76 C 306.91 189.72 303.11 189.78 299.45 190.74 L 298.92 190.83 C 297.37 190.91 295.89 191.50 294.88 192.69 C 294.33 193.02 293.24 193.66 292.69 193.99 C 290.67 194.22 289.29 195.69 288.87 197.63 C 288.54 198.13 287.88 199.14 287.55 199.64 C 286.49 200.30 285.83 201.39 285.74 202.64 L 285.57 203.37 C 282.97 209.80 282.64 217.33 285.87 223.60 C 287.88 228.23 291.48 231.80 295.60 234.59 C 296.66 235.66 298.09 236.25 299.61 236.25 L 300.48 236.37 C 303.50 237.06 306.59 237.08 309.61 236.35 L 310.25 236.26 C 311.26 236.25 312.17 235.95 313.00 235.36 L 314.37 235.13 C 316.34 235.03 318.50 234.39 319.23 232.33 C 319.43 231.97 319.84 231.25 320.04 230.88 L 321.13 230.85 C 323.28 231.20 324.59 229.33 325.12 227.52 L 325.58 226.53 C 325.94 226.46 326.64 226.31 327.00 226.23 C 331.76 231.25 336.62 236.18 341.60 240.99 C 339.89 242.81 338.23 244.68 336.43 246.41 C 336.41 246.43 336.37 246.46 336.35 246.48 C 335.71 246.83 334.42 247.52 333.78 247.86 C 332.61 248.02 331.94 248.64 331.76 249.73 L 331.63 250.45 C 331.34 250.58 330.77 250.84 330.48 250.97 C 326.43 252.75 322.31 254.35 318.30 256.23 L 317.75 256.05 C 316.73 255.70 315.81 255.91 314.98 256.69 C 314.57 256.75 313.74 256.88 313.33 256.95 C 307.78 257.36 302.22 256.86 296.68 257.25 L 295.75 257.30 L 294.99 256.68 C 294.19 255.84 293.26 255.63 292.20 256.05 L 291.75 256.19 C 288.77 254.81 285.66 253.78 282.53 252.82 C 281.32 252.33 280.06 251.68 279.31 250.58 C 278.85 249.61 278.10 249.03 277.07 248.83 C 275.39 248.43 274.12 247.13 273.13 245.81 C 272.73 244.90 272.07 244.25 271.16 243.86 C 270.88 243.38 270.33 242.41 270.05 241.92 C 269.74 240.51 268.99 239.02 267.45 238.71 L 266.83 238.47 C 266.71 238.20 266.46 237.67 266.34 237.40 C 265.30 235.05 264.15 232.75 262.98 230.46 C 262.63 229.75 262.34 229.01 262.12 228.25 C 259.81 218.74 259.77 208.82 262.01 199.30 L 262.26 198.89 C 262.45 198.40 262.83 197.42 263.02 196.92 L 263.05 196.43 C 264.99 192.75 267.05 189.15 269.17 185.58 C 271.82 181.93 275.20 178.78 278.99 176.34 C 283.46 174.19 287.95 172.05 292.56 170.20 Z" />
<path fill="#1b1c20" opacity="1.00" d=" M 344.08 169.20 C 352.29 169.26 360.51 169.26 368.72 169.20 C 368.61 180.21 368.71 191.22 368.66 202.22 C 377.60 202.22 386.53 202.12 395.47 202.28 C 395.81 191.24 395.43 180.19 395.65 169.15 C 403.55 169.30 411.46 169.31 419.36 169.14 C 419.53 198.18 419.34 227.23 419.45 256.28 C 411.49 256.24 403.54 256.23 395.58 256.28 C 395.64 245.60 395.54 234.91 395.64 224.23 C 386.66 224.17 377.68 224.25 368.71 224.18 C 368.68 234.84 368.59 245.50 368.76 256.15 C 360.54 256.39 352.31 256.18 344.09 256.26 C 344.11 227.24 344.14 198.22 344.08 169.20 Z" />
<path fill="#1b1c20" opacity="1.00" d=" M 432.12 169.20 C 440.03 169.27 447.95 169.26 455.86 169.20 C 455.79 198.22 455.77 227.23 455.87 256.25 C 447.95 256.27 440.03 256.24 432.12 256.26 C 432.20 227.24 432.19 198.22 432.12 169.20 Z" />
<path fill="#1b1c20" opacity="1.00" d=" M 494.06 170.26 C 495.82 169.58 497.71 169.27 499.59 169.08 C 504.58 168.85 509.58 168.87 514.57 169.05 C 516.73 169.24 518.89 169.57 520.96 170.28 C 521.45 170.47 522.44 170.84 522.94 171.02 L 523.98 171.39 C 525.26 172.11 526.56 172.91 528.07 173.12 C 528.62 173.24 529.73 173.48 530.29 173.60 L 530.77 174.30 C 531.57 175.83 533.23 176.48 534.77 177.04 C 535.27 177.34 536.27 177.93 536.77 178.22 C 537.22 179.10 537.90 179.73 538.83 180.11 C 539.72 180.68 540.54 181.35 541.28 182.13 C 541.33 183.15 541.38 184.18 541.45 185.21 C 541.07 185.57 540.32 186.30 539.95 186.66 C 537.93 188.23 536.15 190.08 534.88 192.31 C 534.55 192.69 533.89 193.43 533.56 193.80 C 532.39 194.57 531.39 195.57 530.81 196.86 C 530.20 197.93 529.50 198.95 528.81 199.97 C 527.78 199.00 526.49 198.38 525.16 197.99 C 524.75 197.86 523.93 197.59 523.52 197.45 L 523.34 196.69 C 523.09 195.63 522.39 195.01 521.24 194.85 C 519.57 194.27 518.01 193.45 516.48 192.60 C 516.46 192.59 516.41 192.56 516.38 192.54 L 515.14 191.74 C 514.65 191.53 513.66 191.12 513.17 190.92 L 512.60 190.82 C 508.94 189.75 505.10 189.70 501.43 190.75 L 500.90 190.86 C 499.44 191.03 498.18 191.81 497.04 192.66 C 496.49 193.01 495.38 193.72 494.82 194.08 C 493.67 194.67 492.67 195.51 491.98 196.61 C 490.40 198.57 489.10 200.73 487.70 202.81 C 487.48 203.30 487.05 204.27 486.84 204.76 L 486.74 205.24 C 484.64 210.57 484.88 216.34 486.70 221.71 L 486.79 222.40 C 486.86 223.80 487.00 225.67 488.59 226.20 L 489.61 226.69 C 489.67 227.07 489.79 227.81 489.85 228.18 C 489.96 229.24 490.56 229.95 491.63 230.32 C 494.30 232.11 496.86 234.07 499.81 235.40 C 500.31 235.59 501.30 235.96 501.80 236.15 L 502.48 236.27 C 505.46 237.18 508.57 237.03 511.58 236.33 L 512.30 236.24 C 513.30 236.23 514.21 235.92 515.03 235.32 L 516.27 235.15 C 517.55 235.18 518.67 234.46 519.38 233.42 C 520.46 232.06 521.94 231.11 523.45 230.26 C 525.42 229.21 527.31 227.98 528.98 226.48 C 530.32 227.78 531.80 229.02 532.73 230.68 C 535.01 235.14 539.22 238.10 542.44 241.83 C 540.97 243.25 539.76 245.12 537.85 245.98 C 535.96 246.40 534.72 247.83 533.89 249.49 C 533.53 249.85 532.79 250.57 532.43 250.92 C 528.47 252.90 524.31 254.42 520.30 256.26 L 519.73 256.07 C 518.71 255.70 517.79 255.91 516.95 256.68 C 516.55 256.74 515.75 256.88 515.36 256.95 C 509.76 257.35 504.14 256.88 498.55 257.23 L 497.74 257.27 L 496.97 256.72 C 496.11 256.03 495.14 255.76 494.04 255.91 L 492.85 255.64 C 491.11 254.55 489.14 253.98 487.09 253.96 C 486.16 253.89 485.36 253.56 484.67 252.95 C 482.82 251.33 480.76 249.96 478.54 248.92 C 478.19 248.64 477.51 248.09 477.16 247.81 C 476.72 246.91 476.04 246.28 475.12 245.92 C 472.73 243.96 470.42 241.57 469.34 238.63 C 469.08 237.42 468.41 236.37 467.46 235.60 C 466.19 234.48 465.62 232.85 465.11 231.30 C 463.11 224.34 461.33 217.08 462.13 209.78 C 462.62 206.00 463.21 202.22 464.13 198.51 L 464.42 198.11 C 465.44 197.01 466.11 195.62 466.21 194.11 C 466.40 192.59 466.94 190.99 468.18 189.99 C 469.52 189.07 470.45 187.72 470.81 186.13 C 471.10 185.67 471.66 184.76 471.94 184.31 C 474.24 182.33 476.42 180.23 478.50 178.02 C 479.32 177.31 480.09 176.36 481.25 176.22 C 481.68 175.92 482.54 175.31 482.97 175.00 C 484.01 173.86 485.55 173.40 487.02 173.08 C 488.48 172.85 489.79 172.12 491.05 171.36 L 492.11 171.07 C 492.60 170.87 493.58 170.46 494.06 170.26 Z" />
<path fill="#1b1c20" opacity="1.00" d=" M 547.74 169.19 C 555.97 169.25 564.20 169.32 572.43 169.14 C 572.56 180.18 572.40 191.21 572.52 202.24 C 581.48 202.16 590.44 202.19 599.40 202.23 C 599.36 191.22 599.46 180.21 599.34 169.20 C 607.29 169.26 615.25 169.27 623.20 169.20 C 623.23 198.22 623.19 227.24 623.22 256.27 C 615.30 256.27 607.37 256.18 599.45 256.32 C 599.30 245.61 599.49 234.89 599.35 224.17 C 590.38 224.27 581.40 224.15 572.43 224.24 C 572.55 234.92 572.42 245.60 572.51 256.28 C 564.24 256.23 555.98 256.25 547.73 256.27 C 547.77 227.25 547.74 198.22 547.74 169.19 Z" />
<path fill="#1b1c20" opacity="1.00" d=" M 627.80 169.21 C 652.35 169.22 676.91 169.33 701.46 169.15 C 701.51 176.83 701.45 184.51 701.50 192.19 C 693.20 192.13 684.90 192.22 676.60 192.13 C 676.44 213.53 676.70 234.94 676.47 256.34 C 668.56 256.17 660.64 256.28 652.73 256.27 C 652.79 234.91 652.70 213.54 652.77 192.18 C 644.45 192.16 636.13 192.16 627.81 192.18 C 627.81 184.52 627.82 176.87 627.80 169.21 Z" />
<path fill="#1b1c20" opacity="1.00" d=" M 705.26 169.20 C 727.12 169.27 748.99 169.27 770.85 169.20 C 770.79 176.55 770.78 183.91 770.86 191.26 C 757.19 191.21 743.52 191.32 729.85 191.22 C 729.50 191.01 728.79 190.58 728.44 190.37 C 728.69 194.34 730.22 199.05 727.82 202.51 C 740.97 201.76 754.17 202.48 767.34 202.13 C 767.38 209.50 767.32 216.86 767.37 224.23 C 754.62 224.18 741.87 224.23 729.12 224.20 C 729.12 227.85 729.12 231.49 729.14 235.14 C 743.05 235.18 756.95 235.19 770.86 235.13 C 770.79 242.17 770.78 249.22 770.86 256.27 C 748.99 256.23 727.12 256.28 705.25 256.24 C 705.35 227.23 705.32 198.21 705.26 169.20 Z" />
<path fill="#1b1c20" opacity="1.00" d=" M 211.04 170.46 C 211.35 170.34 211.98 170.10 212.30 169.98 C 219.57 168.91 226.94 169.12 234.21 170.08 L 235.03 170.28 C 235.52 170.48 236.50 170.87 236.99 171.06 L 238.00 171.11 C 238.47 171.35 239.41 171.81 239.88 172.05 L 240.50 172.06 C 243.80 173.78 247.05 175.61 250.46 177.11 C 250.76 177.24 251.34 177.51 251.63 177.65 L 251.81 178.36 C 252.04 179.49 252.75 180.08 253.94 180.13 L 255.10 180.31 C 255.03 180.91 254.91 182.12 254.85 182.72 C 254.49 183.25 253.77 184.30 253.41 184.83 C 252.10 185.73 251.16 187.02 250.77 188.57 C 250.36 189.80 249.71 191.03 248.53 191.68 C 247.57 192.16 247.03 192.92 246.91 193.98 C 246.60 194.61 245.99 195.88 245.68 196.52 C 245.66 196.54 245.63 196.59 245.61 196.62 L 244.64 198.04 C 244.07 198.00 242.93 197.92 242.36 197.88 C 242.03 197.61 241.38 197.08 241.06 196.81 C 240.40 195.76 239.38 195.00 238.14 194.84 C 236.66 194.46 235.20 193.89 234.01 192.92 C 233.55 192.66 232.63 192.14 232.17 191.88 L 231.73 191.76 C 226.98 189.79 221.44 188.45 216.54 190.74 L 216.06 190.95 C 215.67 191.16 214.90 191.58 214.51 191.78 C 213.82 194.04 213.27 197.03 215.88 198.26 C 216.31 198.51 217.17 199.00 217.60 199.25 C 220.35 200.84 223.43 201.65 226.56 202.08 C 226.90 202.15 227.59 202.31 227.94 202.39 C 228.44 202.54 229.45 202.86 229.96 203.01 L 231.05 203.28 C 231.55 203.44 232.55 203.78 233.05 203.95 L 233.96 204.08 C 234.43 204.32 235.37 204.79 235.85 205.03 L 236.93 205.17 C 237.41 205.35 238.37 205.69 238.85 205.86 L 239.24 205.73 C 241.79 207.62 244.65 209.03 247.59 210.20 C 250.13 211.68 252.48 213.81 253.79 216.47 C 254.67 219.28 255.68 222.07 257.21 224.60 L 257.35 224.85 C 257.16 230.02 257.00 235.23 255.89 240.30 C 255.51 241.38 255.05 242.43 254.52 243.46 C 254.51 243.49 254.47 243.55 254.45 243.58 C 254.09 244.06 253.37 245.03 253.01 245.51 C 250.25 247.71 247.72 250.17 245.44 252.86 C 245.00 253.11 244.13 253.60 243.69 253.85 C 242.07 254.26 240.52 254.90 239.07 255.71 L 237.79 255.90 C 236.74 255.82 235.80 256.08 234.95 256.69 C 234.63 256.82 233.98 257.07 233.65 257.20 C 227.96 257.13 222.27 257.00 216.58 257.17 L 216.07 257.19 L 215.55 257.01 C 211.00 255.38 206.27 254.32 201.64 252.95 C 200.71 252.68 199.94 252.18 199.31 251.45 C 198.26 250.12 196.88 248.96 195.12 248.87 C 194.69 248.79 193.85 248.63 193.43 248.55 L 193.21 247.68 C 192.95 246.60 192.24 246.00 191.07 245.85 C 189.29 245.39 188.08 243.88 186.66 242.82 C 187.49 241.89 187.90 240.34 189.34 240.18 C 190.56 239.95 191.09 239.27 190.94 238.14 L 190.83 237.11 C 191.21 236.88 191.97 236.42 192.35 236.18 C 193.60 235.50 194.77 234.49 195.11 233.04 C 195.24 232.66 195.51 231.90 195.64 231.52 L 196.33 231.17 C 197.61 230.63 198.92 229.61 198.90 228.09 L 199.09 226.53 L 200.02 226.94 C 201.29 227.62 202.55 228.36 203.90 228.91 C 204.28 229.07 205.05 229.39 205.43 229.54 L 205.75 230.32 C 206.06 231.62 207.44 232.05 208.58 232.33 C 211.09 233.13 213.47 234.28 215.84 235.43 C 216.35 235.59 217.36 235.90 217.87 236.05 L 218.99 236.44 C 220.17 236.98 221.47 237.29 222.77 237.01 C 224.53 236.77 226.33 236.73 228.09 237.02 C 229.13 237.24 230.07 237.00 230.90 236.31 C 231.42 236.03 232.46 235.46 232.98 235.18 C 233.36 234.97 234.12 234.55 234.50 234.34 C 236.17 230.82 233.57 227.35 229.98 226.83 C 228.98 226.51 227.99 226.14 227.03 225.74 C 226.54 225.54 225.56 225.14 225.08 224.95 L 224.60 224.89 C 220.72 223.51 216.77 222.34 212.70 221.71 C 212.37 221.64 211.72 221.51 211.39 221.45 L 210.89 220.88 C 209.82 219.29 207.82 219.08 206.08 218.88 C 204.82 218.69 203.64 218.25 202.55 217.58 C 202.51 217.56 202.44 217.52 202.41 217.50 C 200.54 216.30 198.65 215.06 197.12 213.44 C 193.96 209.31 192.02 204.42 191.11 199.33 C 190.79 197.23 190.53 194.98 191.36 192.96 C 191.89 191.73 192.16 190.40 192.15 189.06 L 192.41 188.05 C 193.14 186.76 193.78 185.40 194.10 183.95 C 194.46 182.30 195.48 180.93 196.45 179.61 C 196.48 179.58 196.52 179.52 196.55 179.49 C 197.26 178.48 198.16 177.72 199.26 177.23 C 200.43 177.00 201.06 176.33 201.15 175.23 L 202.05 175.08 C 203.81 174.99 205.50 174.09 206.12 172.37 L 207.10 172.10 C 208.50 171.80 209.77 171.12 211.04 170.46 Z" />
</g>
<g id="#3535366c">
<path fill="#353536" opacity="0.42" d=" M 59.24 170.14 L 60.26 169.77 L 61.01 170.31 C 60.51 170.49 59.51 170.85 59.02 171.03 L 59.24 170.14 Z" />
</g>
<g id="#34333463">
<path fill="#343334" opacity="0.39" d=" M 88.91 170.31 L 89.66 169.78 L 90.68 170.15 L 90.90 171.03 C 90.40 170.85 89.41 170.49 88.91 170.31 Z" />
</g>
<g id="#29292a5f">
<path fill="#29292a" opacity="0.37" d=" M 207.10 172.10 C 206.39 170.11 209.88 169.04 211.04 170.46 C 209.77 171.12 208.50 171.80 207.10 172.10 Z" />
</g>
<g id="#3535366f">
<path fill="#353536" opacity="0.44" d=" M 235.03 170.28 L 235.79 169.77 L 236.79 170.17 L 236.99 171.06 C 236.50 170.87 235.52 170.48 235.03 170.28 Z" />
</g>
<g id="#28282a93">
<path fill="#28282a" opacity="0.58" d=" M 278.99 176.34 C 282.70 172.99 287.63 170.92 292.56 170.20 C 287.95 172.05 283.46 174.19 278.99 176.34 Z" />
</g>
<g id="#37373781">
<path fill="#373737" opacity="0.51" d=" M 318.99 170.30 L 319.72 169.74 L 320.75 170.09 L 321.00 170.98 C 320.50 170.81 319.49 170.47 318.99 170.30 Z" />
</g>
<g id="#36363772">
<path fill="#363637" opacity="0.45" d=" M 492.29 170.18 L 493.29 169.76 L 494.06 170.26 C 493.58 170.46 492.60 170.87 492.11 171.07 L 492.29 170.18 Z" />
</g>
<g id="#37373874">
<path fill="#373738" opacity="0.45" d=" M 520.96 170.28 L 521.72 169.75 L 522.73 170.13 L 522.94 171.02 C 522.44 170.84 521.45 170.47 520.96 170.28 Z" />
</g>
<g id="#42424289">
<path fill="#424242" opacity="0.54" d=" M 57.46 171.41 C 57.48 171.40 57.52 171.39 57.55 171.38 C 57.52 171.39 57.48 171.40 57.46 171.41 Z" />
</g>
<g id="#2f303196">
<path fill="#2f3031" opacity="0.59" d=" M 91.84 171.48 C 93.01 170.40 96.26 171.30 95.82 173.09 C 94.28 173.29 93.01 172.32 91.84 171.48 Z" />
</g>
<g id="#3a3a3a80">
<path fill="#3a3a3a" opacity="0.50" d=" M 238.00 171.11 L 238.80 170.67 L 239.76 171.15 L 239.88 172.05 C 239.41 171.81 238.47 171.35 238.00 171.11 Z" />
</g>
<g id="#38383982">
<path fill="#383839" opacity="0.51" d=" M 321.97 171.15 L 322.76 170.69 L 323.74 171.16 L 323.87 172.06 C 323.39 171.83 322.44 171.38 321.97 171.15 Z" />
</g>
<g id="#2b2b2c6f">
<path fill="#2b2b2c" opacity="0.44" d=" M 487.02 173.08 C 486.46 171.16 489.82 170.08 491.05 171.36 C 489.79 172.12 488.48 172.85 487.02 173.08 Z" />
</g>
<g id="#2e2e2f71">
<path fill="#2e2e2f" opacity="0.44" d=" M 523.98 171.39 C 525.20 170.11 528.52 171.20 528.07 173.12 C 526.56 172.91 525.26 172.11 523.98 171.39 Z" />
</g>
<g id="#2d2d2f92">
<path fill="#2d2d2f" opacity="0.57" d=" M 49.62 175.26 C 51.48 173.30 54.01 172.26 56.64 171.84 C 54.39 173.16 52.08 174.37 49.62 175.26 Z" />
</g>
<g id="#29292bb4">
<path fill="#29292b" opacity="0.71" d=" M 202.05 175.08 C 201.79 173.35 204.61 171.97 206.12 172.37 C 205.50 174.09 203.81 174.99 202.05 175.08 Z" />
</g>
<g id="#2626287d">
<path fill="#262628" opacity="0.49" d=" M 240.50 172.06 C 244.19 172.75 247.83 174.39 250.46 177.11 C 247.05 175.61 243.80 173.78 240.50 172.06 Z" />
</g>
<g id="#2f2f3059">
<path fill="#2f2f30" opacity="0.35" d=" M 97.15 173.10 L 97.95 172.84 C 98.14 173.21 98.51 173.95 98.69 174.32 C 98.31 174.02 97.54 173.41 97.15 173.10 Z" />
</g>
<g id="#2424257a">
<path fill="#242425" opacity="0.48" d=" M 530.77 174.30 C 532.38 173.53 535.34 175.10 534.77 177.04 C 533.23 176.48 531.57 175.83 530.77 174.30 Z" />
</g>
<g id="#2c2c2ea0">
<path fill="#2c2c2e" opacity="0.63" d=" M 99.97 175.07 C 101.15 174.18 103.42 175.73 102.87 177.15 C 101.63 177.01 100.37 176.31 99.97 175.07 Z" />
</g>
<g id="#2a2a2b91">
<path fill="#2a2a2b" opacity="0.57" d=" M 199.26 177.23 C 198.92 175.62 199.54 174.95 201.15 175.23 C 201.06 176.33 200.43 177.00 199.26 177.23 Z" />
</g>
<g id="#28292a99">
<path fill="#28292a" opacity="0.60" d=" M 330.58 175.43 C 332.17 174.82 332.94 175.34 332.88 176.97 C 331.79 177.01 331.03 176.50 330.58 175.43 Z" />
<path fill="#28292a" opacity="0.60" d=" M 195.12 248.87 C 196.88 248.96 198.26 250.12 199.31 251.45 C 197.75 252.17 194.73 250.73 195.12 248.87 Z" />
</g>
<g id="#2e2f3084">
<path fill="#2e2f30" opacity="0.52" d=" M 481.23 175.31 L 482.11 174.68 L 482.97 175.00 C 482.54 175.31 481.68 175.92 481.25 176.22 L 481.23 175.31 Z" />
</g>
<g id="#2a2a2ba2">
<path fill="#2a2a2b" opacity="0.64" d=" M 46.08 178.12 C 45.89 176.51 46.62 175.92 48.27 176.34 C 47.97 177.40 47.24 177.99 46.08 178.12 Z" />
</g>
<g id="#25262780">
<path fill="#252627" opacity="0.50" d=" M 104.85 178.29 C 106.31 177.51 108.61 179.53 107.93 181.07 C 106.48 180.77 105.36 179.66 104.85 178.29 Z" />
</g>
<g id="#2b2b2dad">
<path fill="#2b2b2d" opacity="0.68" d=" M 251.81 178.36 C 253.42 177.97 254.13 178.56 253.94 180.13 C 252.75 180.08 252.04 179.49 251.81 178.36 Z" />
<path fill="#2b2b2d" opacity="0.68" d=" M 331.76 249.73 C 331.94 248.64 332.61 248.02 333.78 247.86 C 334.07 249.46 333.39 250.08 331.76 249.73 Z" />
</g>
<g id="#2122239a">
<path fill="#212223" opacity="0.60" d=" M 334.61 177.97 C 337.10 179.36 339.15 181.37 341.19 183.34 C 339.88 185.77 338.02 187.85 335.72 189.37 C 337.04 187.50 338.50 185.73 340.03 184.02 C 338.16 182.06 336.35 180.04 334.61 177.97 Z" />
</g>
<g id="#2323247d">
<path fill="#232324" opacity="0.49" d=" M 471.94 184.31 C 473.32 181.52 475.69 179.32 478.50 178.02 C 476.42 180.23 474.24 182.33 471.94 184.31 Z" />
<path fill="#232324" opacity="0.49" d=" M 192.35 236.18 C 191.47 234.70 193.52 232.31 195.11 233.04 C 194.77 234.49 193.60 235.50 192.35 236.18 Z" />
</g>
<g id="#1d1d1d33">
<path fill="#1d1d1d" opacity="0.20" d=" M 536.77 178.22 C 538.54 177.69 539.22 178.32 538.83 180.11 C 537.90 179.73 537.22 179.10 536.77 178.22 Z" />
</g>
<g id="#1d1d1d39">
<path fill="#1d1d1d" opacity="0.22" d=" M 38.94 184.29 C 39.77 181.79 41.67 179.68 44.27 178.98 C 42.50 180.76 40.71 182.52 38.94 184.29 Z" />
</g>
<g id="#32323360">
<path fill="#323233" opacity="0.38" d=" M 196.45 179.61 C 196.48 179.58 196.52 179.52 196.55 179.49 C 196.52 179.52 196.48 179.58 196.45 179.61 Z" />
</g>
<g id="#2f2f3076">
<path fill="#2f2f30" opacity="0.46" d=" M 255.10 180.31 C 256.91 179.78 256.56 183.46 254.85 182.72 C 254.91 182.12 255.03 180.91 255.10 180.31 Z" />
</g>
<g id="#242527a5">
<path fill="#242527" opacity="0.65" d=" M 109.18 181.48 L 109.71 180.85 C 109.88 183.44 107.57 184.98 105.90 186.53 C 106.80 184.73 107.88 183.02 109.18 181.48 Z" />
</g>
<g id="#22222358">
<path fill="#222223" opacity="0.35" d=" M 541.28 182.13 C 543.65 181.20 543.88 186.03 541.45 185.21 C 541.38 184.18 541.33 183.15 541.28 182.13 Z" />
</g>
<g id="#30303179">
<path fill="#303031" opacity="0.47" d=" M 192.41 188.05 C 191.08 186.85 192.17 183.40 194.10 183.95 C 193.78 185.40 193.14 186.76 192.41 188.05 Z" />
</g>
<g id="#2222236c">
<path fill="#222223" opacity="0.42" d=" M 250.77 188.57 C 251.16 187.02 252.10 185.73 253.41 184.83 C 254.53 186.39 252.65 189.28 250.77 188.57 Z" />
</g>
<g id="#2324258d">
<path fill="#232425" opacity="0.55" d=" M 33.92 191.62 C 34.61 189.24 36.02 187.17 37.99 185.67 C 36.81 187.77 35.43 189.74 33.92 191.62 Z" />
</g>
<g id="#26262772">
<path fill="#262627" opacity="0.45" d=" M 263.05 196.43 C 263.84 192.30 265.99 188.34 269.17 185.58 C 267.05 189.15 264.99 192.75 263.05 196.43 Z" />
</g>
<g id="#23232485">
<path fill="#232324" opacity="0.52" d=" M 468.18 189.99 C 467.06 188.47 469.00 185.54 470.81 186.13 C 470.45 187.72 469.52 189.07 468.18 189.99 Z" />
</g>
<g id="#2323259c">
<path fill="#232325" opacity="0.61" d=" M 534.88 192.31 C 536.15 190.08 537.93 188.23 539.95 186.66 C 538.80 188.97 537.01 190.88 534.88 192.31 Z" />
</g>
<g id="#23232478">
<path fill="#232324" opacity="0.47" d=" M 101.95 190.91 C 102.45 189.59 103.26 188.32 104.66 187.82 C 105.62 189.27 103.51 191.66 101.95 190.91 Z" />
</g>
<g id="#39393a7e">
<path fill="#39393a" opacity="0.49" d=" M 191.36 192.96 C 190.17 192.05 190.28 188.87 192.15 189.06 C 192.16 190.40 191.89 191.73 191.36 192.96 Z" />
</g>
<g id="#27272875">
<path fill="#272728" opacity="0.46" d=" M 216.54 190.74 C 221.44 188.45 226.98 189.79 231.73 191.76 C 226.69 190.95 221.67 189.81 216.54 190.74 Z" />
</g>
<g id="#37373878">
<path fill="#373738" opacity="0.47" d=" M 68.20 190.85 C 73.21 189.39 78.69 189.72 83.40 192.02 C 78.42 190.78 73.28 191.10 68.20 190.85 Z" />
</g>
<g id="#41414291">
<path fill="#414142" opacity="0.57" d=" M 299.45 190.74 C 303.11 189.78 306.91 189.72 310.57 190.76 C 306.86 191.02 303.14 191.10 299.45 190.74 Z" />
</g>
<g id="#41414290">
<path fill="#414142" opacity="0.56" d=" M 501.43 190.75 C 505.10 189.70 508.94 189.75 512.60 190.82 C 508.88 191.11 505.14 191.12 501.43 190.75 Z" />
</g>
<g id="#38383876">
<path fill="#383838" opacity="0.46" d=" M 65.84 191.76 C 66.33 191.55 67.31 191.13 67.79 190.92 L 67.63 191.85 L 66.62 192.27 L 65.84 191.76 Z" />
</g>
<g id="#26262766">
<path fill="#262627" opacity="0.40" d=" M 214.51 191.78 C 214.90 191.58 215.67 191.16 216.06 190.95 C 214.37 193.21 214.61 195.87 215.88 198.26 C 213.27 197.03 213.82 194.04 214.51 191.78 Z" />
</g>
<g id="#2f2f3093">
<path fill="#2f2f30" opacity="0.58" d=" M 294.88 192.69 C 295.89 191.50 297.37 190.91 298.92 190.83 C 299.25 192.61 296.17 193.51 294.88 192.69 Z" />
</g>
<g id="#38393973">
<path fill="#383939" opacity="0.45" d=" M 311.20 190.86 C 311.69 191.08 312.66 191.52 313.14 191.74 L 312.36 192.24 L 311.35 191.79 L 311.20 190.86 Z" />
</g>
<g id="#2b2b2c59">
<path fill="#2b2b2c" opacity="0.35" d=" M 497.04 192.66 C 498.18 191.81 499.44 191.03 500.90 190.86 C 501.64 192.75 498.26 193.81 497.04 192.66 Z" />
</g>
<g id="#3a3a3a82">
<path fill="#3a3a3a" opacity="0.51" d=" M 513.17 190.92 C 513.66 191.12 514.65 191.53 515.14 191.74 L 514.36 192.26 L 513.35 191.85 L 513.17 190.92 Z" />
</g>
<g id="#40404187">
<path fill="#404041" opacity="0.53" d=" M 64.51 192.69 C 64.53 192.68 64.56 192.66 64.58 192.65 C 64.56 192.66 64.53 192.68 64.51 192.69 Z" />
</g>
<g id="#3233347c">
<path fill="#323334" opacity="0.49" d=" M 232.17 191.88 C 232.63 192.14 233.55 192.66 234.01 192.92 L 233.18 193.34 L 232.24 192.81 L 232.17 191.88 Z" />
</g>
<g id="#2b2b2da5">
<path fill="#2b2b2d" opacity="0.65" d=" M 246.91 193.98 C 247.03 192.92 247.57 192.16 248.53 191.68 C 249.14 193.35 248.60 194.12 246.91 193.98 Z" />
</g>
<g id="#3c3c3d67">
<path fill="#3c3c3d" opacity="0.40" d=" M 314.48 192.52 C 314.50 192.53 314.56 192.56 314.59 192.58 C 314.56 192.56 314.50 192.53 314.48 192.52 Z" />
</g>
<g id="#2020215a">
<path fill="#202021" opacity="0.35" d=" M 328.88 197.35 C 330.41 195.29 332.11 193.37 333.93 191.56 C 333.18 194.17 331.07 195.93 328.88 197.35 Z" />
</g>
<g id="#4040417f">
<path fill="#404041" opacity="0.50" d=" M 516.38 192.54 C 516.41 192.56 516.46 192.59 516.48 192.60 C 516.46 192.59 516.41 192.56 516.38 192.54 Z" />
</g>
<g id="#24242579">
<path fill="#242425" opacity="0.47" d=" M 86.05 193.01 C 87.64 193.48 89.49 194.02 90.15 195.73 C 88.60 196.33 85.63 194.83 86.05 193.01 Z" />
</g>
<g id="#2e2e30ad">
<path fill="#2e2e30" opacity="0.68" d=" M 31.46 198.18 C 30.24 197.01 31.29 193.79 33.10 194.24 C 33.08 195.73 32.36 197.03 31.46 198.18 Z" />
</g>
<g id="#27272891">
<path fill="#272728" opacity="0.57" d=" M 59.72 195.63 C 59.98 194.57 60.68 193.96 61.83 193.80 C 62.08 195.42 61.38 196.03 59.72 195.63 Z" />
</g>
<g id="#28282aac">
<path fill="#28282a" opacity="0.67" d=" M 288.87 197.63 C 289.29 195.69 290.67 194.22 292.69 193.99 C 292.87 195.73 290.61 197.91 288.87 197.63 Z" />
</g>
<g id="#1f1f2067">
<path fill="#1f1f20" opacity="0.40" d=" M 318.10 194.01 C 319.49 194.33 320.47 195.38 321.30 196.47 C 319.91 197.65 317.21 195.63 318.10 194.01 Z" />
</g>
<g id="#2b2b2c96">
<path fill="#2b2b2c" opacity="0.59" d=" M 464.42 198.11 C 463.40 196.86 464.38 193.69 466.21 194.11 C 466.11 195.62 465.44 197.01 464.42 198.11 Z" />
</g>
<g id="#1f1f1f39">
<path fill="#1f1f1f" opacity="0.22" d=" M 491.98 196.61 C 492.67 195.51 493.67 194.67 494.82 194.08 C 496.10 195.66 493.42 197.99 491.98 196.61 Z" />
</g>
<g id="#2323246d">
<path fill="#232324" opacity="0.43" d=" M 530.81 196.86 C 531.39 195.57 532.39 194.57 533.56 193.80 C 534.70 195.29 532.40 197.83 530.81 196.86 Z" />
</g>
<g id="#2a2b2c8f">
<path fill="#2a2b2c" opacity="0.56" d=" M 238.14 194.84 C 239.38 195.00 240.40 195.76 241.06 196.81 C 239.92 197.91 237.41 196.33 238.14 194.84 Z" />
</g>
<g id="#28282a88">
<path fill="#28282a" opacity="0.53" d=" M 521.24 194.85 C 522.39 195.01 523.09 195.63 523.34 196.69 C 521.69 197.09 521.00 196.48 521.24 194.85 Z" />
<path fill="#28282a" opacity="0.53" d=" M 200.02 226.94 C 200.57 224.36 204.50 227.05 203.90 228.91 C 202.55 228.36 201.29 227.62 200.02 226.94 Z" />
</g>
<g id="#3c3c3da4">
<path fill="#3c3c3d" opacity="0.64" d=" M 97.57 196.70 C 97.59 196.67 97.63 196.61 97.66 196.59 C 97.63 196.61 97.59 196.67 97.57 196.70 Z" />
</g>
<g id="#37373891">
<path fill="#373738" opacity="0.57" d=" M 245.61 196.62 C 245.63 196.59 245.66 196.54 245.68 196.52 C 245.66 196.54 245.63 196.59 245.61 196.62 Z" />
</g>
<g id="#2121227a">
<path fill="#212122" opacity="0.48" d=" M 56.03 199.98 C 56.41 198.64 57.13 197.21 58.61 196.88 C 59.41 198.26 57.57 200.75 56.03 199.98 Z" />
</g>
<g id="#2727287a">
<path fill="#272728" opacity="0.48" d=" M 92.15 197.10 C 93.44 197.61 94.71 198.24 95.81 199.10 C 95.33 201.57 91.35 198.94 92.15 197.10 Z" />
</g>
<g id="#32323389">
<path fill="#323233" opacity="0.54" d=" M 262.13 197.13 L 263.02 196.92 C 262.83 197.42 262.45 198.40 262.26 198.89 L 261.73 198.14 L 262.13 197.13 Z" />
</g>
<g id="#2c2c2d67">
<path fill="#2c2c2d" opacity="0.40" d=" M 242.36 197.88 C 242.93 197.92 244.07 198.00 244.64 198.04 C 245.27 199.91 241.60 199.68 242.36 197.88 Z" />
</g>
<g id="#21212256">
<path fill="#212122" opacity="0.34" d=" M 322.77 197.88 C 323.86 198.68 324.98 199.44 326.09 200.21 C 326.53 199.80 327.39 198.99 327.83 198.58 C 327.96 200.07 326.68 201.66 325.09 200.90 C 324.17 200.01 323.49 198.91 322.77 197.88 Z" />
</g>
<g id="#2728299a">
<path fill="#272829" opacity="0.60" d=" M 525.16 197.99 C 526.49 198.38 527.78 199.00 528.81 199.97 C 528.11 202.41 524.52 199.73 525.16 197.99 Z" />
</g>
<g id="#2d2d2d5c">
<path fill="#2d2d2d" opacity="0.36" d=" M 29.37 204.85 C 28.25 203.24 28.60 199.10 30.92 199.09 C 30.68 201.07 30.22 203.03 29.37 204.85 Z" />
</g>
<g id="#26262891">
<path fill="#262628" opacity="0.57" d=" M 217.60 199.25 C 220.69 199.80 223.76 200.62 226.56 202.08 C 223.43 201.65 220.35 200.84 217.60 199.25 Z" />
</g>
<g id="#26262889">
<path fill="#262628" opacity="0.54" d=" M 461.25 213.95 C 461.54 208.77 461.44 203.13 464.13 198.51 C 463.21 202.22 462.62 206.00 462.13 209.78 C 461.33 217.08 463.11 224.34 465.11 231.30 C 461.89 226.22 461.61 219.81 461.25 213.95 Z" />
</g>
<g id="#27272866">
<path fill="#272728" opacity="0.40" d=" M 191.11 199.33 C 192.02 204.42 193.96 209.31 197.12 213.44 C 192.85 210.28 190.64 204.54 191.11 199.33 Z" />
</g>
<g id="#28282a8a">
<path fill="#28282a" opacity="0.54" d=" M 259.70 209.14 C 260.11 205.79 260.32 202.30 262.01 199.30 C 259.77 208.82 259.81 218.74 262.12 228.25 C 259.40 222.33 259.31 215.53 259.70 209.14 Z" />
</g>
<g id="#28282a89">
<path fill="#28282a" opacity="0.54" d=" M 285.74 202.64 C 285.83 201.39 286.49 200.30 287.55 199.64 C 288.63 200.71 287.26 203.34 285.74 202.64 Z" />
</g>
<g id="#3131325e">
<path fill="#313132" opacity="0.37" d=" M 227.94 202.39 L 228.67 201.81 L 229.71 202.13 L 229.96 203.01 C 229.45 202.86 228.44 202.54 227.94 202.39 Z" />
</g>
<g id="#28282a9d">
<path fill="#28282a" opacity="0.62" d=" M 53.83 223.47 C 51.46 216.76 50.94 208.74 54.89 202.51 C 53.16 207.69 52.10 213.21 53.25 218.64 C 53.96 222.62 56.14 226.08 58.02 229.59 C 56.12 227.94 54.59 225.88 53.83 223.47 Z" />
</g>
<g id="#39393a80">
<path fill="#39393a" opacity="0.50" d=" M 231.05 203.28 L 231.78 202.72 L 232.81 203.07 L 233.05 203.95 C 232.55 203.78 231.55 203.44 231.05 203.28 Z" />
</g>
<g id="#2e2e2f5c">
<path fill="#2e2e2f" opacity="0.36" d=" M 486.84 204.76 C 487.05 204.27 487.48 203.30 487.70 202.81 L 488.20 203.63 L 487.75 204.63 L 486.84 204.76 Z" />
<path fill="#2e2e2f" opacity="0.36" d=" M 310.25 236.26 C 310.57 234.49 311.49 234.19 313.00 235.36 C 312.17 235.95 311.26 236.25 310.25 236.26 Z" />
</g>
<g id="#3939395b">
<path fill="#393939" opacity="0.36" d=" M 78.00 205.12 C 75.68 205.09 73.10 205.46 71.10 204.01 C 83.08 203.96 95.05 204.05 107.03 203.96 C 108.72 204.00 110.61 203.80 112.04 204.92 L 111.21 205.16 C 100.14 205.15 89.07 205.07 78.00 205.12 Z" />
</g>
<g id="#37383996">
<path fill="#373839" opacity="0.59" d=" M 233.96 204.08 L 234.75 203.64 L 235.72 204.12 L 235.85 205.03 C 235.37 204.79 234.43 204.32 233.96 204.08 Z" />
</g>
<g id="#29292a67">
<path fill="#29292a" opacity="0.40" d=" M 285.87 223.60 C 282.64 217.33 282.97 209.80 285.57 203.37 C 285.54 207.40 283.69 211.27 284.38 215.32 C 284.81 218.09 285.44 220.83 285.87 223.60 Z" />
</g>
<g id="#37373855">
<path fill="#373738" opacity="0.33" d=" M 69.97 204.13 C 71.50 206.09 71.06 208.69 71.12 211.00 C 70.93 215.59 71.36 220.21 70.90 224.79 L 70.13 225.72 C 69.83 218.53 70.09 211.33 69.97 204.13 Z" />
</g>
<g id="#37373991">
<path fill="#373739" opacity="0.57" d=" M 236.93 205.17 C 237.36 205.13 238.20 205.05 238.62 205.01 L 238.85 205.86 C 238.37 205.69 237.41 205.35 236.93 205.17 Z" />
</g>
<g id="#30303057">
<path fill="#303030" opacity="0.34" d=" M 27.93 213.94 C 28.03 211.19 27.66 208.23 29.06 205.73 C 28.80 210.88 28.77 216.05 29.08 221.21 C 27.65 219.06 28.05 216.38 27.93 213.94 Z" />
</g>
<g id="#2d2d2fa4">
<path fill="#2d2d2f" opacity="0.64" d=" M 239.24 205.73 C 242.24 206.73 245.38 207.80 247.59 210.20 C 244.65 209.03 241.79 207.62 239.24 205.73 Z" />
</g>
<g id="#31313270">
<path fill="#313132" opacity="0.44" d=" M 486.70 221.71 C 484.88 216.34 484.64 210.57 486.74 205.24 C 485.87 210.74 486.17 216.21 486.70 221.71 Z" />
</g>
<g id="#3c3d3d79">
<path fill="#3c3d3d" opacity="0.47" d=" M 202.41 217.50 C 202.44 217.52 202.51 217.56 202.55 217.58 C 202.51 217.56 202.44 217.52 202.41 217.50 Z" />
</g>
<g id="#29292bba">
<path fill="#29292b" opacity="0.73" d=" M 253.79 216.47 C 255.96 218.63 256.82 221.64 257.21 224.60 C 255.68 222.07 254.67 219.28 253.79 216.47 Z" />
</g>
<g id="#28292bac">
<path fill="#28292b" opacity="0.67" d=" M 206.08 218.88 C 207.82 219.08 209.82 219.29 210.89 220.88 C 209.36 221.62 206.24 220.70 206.08 218.88 Z" />
</g>
<g id="#28282973">
<path fill="#282829" opacity="0.45" d=" M 29.11 221.35 C 30.58 227.72 33.32 233.63 36.14 239.49 C 32.06 234.42 29.30 227.90 29.11 221.35 Z" />
</g>
<g id="#2c2c2d7a">
<path fill="#2c2c2d" opacity="0.48" d=" M 212.70 221.71 C 216.77 222.34 220.72 223.51 224.60 224.89 C 220.48 224.66 216.34 223.65 212.70 221.71 Z" />
</g>
<g id="#27282aa9">
<path fill="#27282a" opacity="0.66" d=" M 486.79 222.40 C 488.40 222.21 489.40 224.97 488.59 226.20 C 487.00 225.67 486.86 223.80 486.79 222.40 Z" />
</g>
<g id="#2e2e2f74">
<path fill="#2e2e2f" opacity="0.45" d=" M 71.75 225.13 C 77.50 224.93 83.28 224.80 89.02 225.17 C 89.65 227.73 89.69 230.47 89.09 233.03 C 88.02 234.18 86.39 234.50 85.01 235.11 L 84.92 234.46 C 86.14 233.94 87.35 233.41 88.57 232.89 C 88.55 230.58 88.53 228.27 88.48 225.96 C 82.61 225.94 76.73 226.16 70.86 225.86 L 71.75 225.13 Z" />
</g>
<g id="#3636377a">
<path fill="#363637" opacity="0.48" d=" M 225.08 224.95 C 225.56 225.14 226.54 225.54 227.03 225.74 L 226.26 226.26 L 225.26 225.85 L 225.08 224.95 Z" />
</g>
<g id="#30313284">
<path fill="#303132" opacity="0.52" d=" M 257.35 224.85 C 258.59 229.92 258.29 235.60 255.89 240.30 C 257.00 235.23 257.16 230.02 257.35 224.85 Z" />
</g>
<g id="#262629c1">
<path fill="#262629" opacity="0.76" d=" M 523.45 230.26 C 525.07 228.28 526.87 226.07 529.65 225.89 L 528.98 226.48 C 527.31 227.98 525.42 229.21 523.45 230.26 Z" />
</g>
<g id="#2b2b2d8d">
<path fill="#2b2b2d" opacity="0.55" d=" M 229.98 226.83 C 233.57 227.35 236.17 230.82 234.50 234.34 C 234.12 234.55 233.36 234.97 232.98 235.18 C 233.72 233.54 234.00 231.77 234.10 229.99 C 232.69 228.98 231.31 227.93 229.98 226.83 Z" />
</g>
<g id="#242427b8">
<path fill="#242427" opacity="0.72" d=" M 321.13 230.85 C 321.06 229.17 323.47 227.36 325.12 227.52 C 324.59 229.33 323.28 231.20 321.13 230.85 Z" />
</g>
<g id="#2323246e">
<path fill="#232324" opacity="0.43" d=" M 196.33 231.17 C 195.53 229.77 197.37 227.43 198.90 228.09 C 198.92 229.61 197.61 230.63 196.33 231.17 Z" />
</g>
<g id="#2626289b">
<path fill="#262628" opacity="0.61" d=" M 489.85 228.18 C 491.53 227.97 492.12 228.68 491.63 230.32 C 490.56 229.95 489.96 229.24 489.85 228.18 Z" />
</g>
<g id="#25252799">
<path fill="#252527" opacity="0.60" d=" M 205.75 230.32 C 206.89 229.32 209.24 230.90 208.58 232.33 C 207.44 232.05 206.06 231.62 205.75 230.32 Z" />
</g>
<g id="#2828295d">
<path fill="#282829" opacity="0.36" d=" M 262.98 230.46 C 264.15 232.75 265.30 235.05 266.34 237.40 C 264.15 235.74 263.29 233.08 262.98 230.46 Z" />
</g>
<g id="#242427d0">
<path fill="#242427" opacity="0.82" d=" M 532.73 230.68 C 535.68 232.90 538.10 235.72 540.78 238.25 C 541.92 239.46 543.51 240.65 543.18 242.58 L 542.44 241.83 C 539.22 238.10 535.01 235.14 532.73 230.68 Z" />
</g>
<g id="#29292bac">
<path fill="#29292b" opacity="0.67" d=" M 314.37 235.13 C 314.63 233.34 317.52 232.03 319.23 232.33 C 318.50 234.39 316.34 235.03 314.37 235.13 Z" />
<path fill="#29292b" opacity="0.67" d=" M 516.27 235.15 C 515.62 233.62 518.30 232.46 519.38 233.42 C 518.67 234.46 517.55 235.18 516.27 235.15 Z" />
</g>
<g id="#2b2b2d92">
<path fill="#2b2b2d" opacity="0.57" d=" M 295.60 234.59 C 296.82 233.61 299.95 234.42 299.61 236.25 C 298.09 236.25 296.66 235.66 295.60 234.59 Z" />
</g>
<g id="#3334357d">
<path fill="#333435" opacity="0.49" d=" M 65.93 235.29 L 66.70 234.74 L 67.72 235.11 L 67.93 236.01 C 67.43 235.83 66.43 235.47 65.93 235.29 Z" />
</g>
<g id="#35353568">
<path fill="#353535" opacity="0.41" d=" M 82.31 235.13 L 83.37 234.84 L 84.11 235.47 C 83.60 235.60 82.57 235.88 82.06 236.02 L 82.31 235.13 Z" />
</g>
<g id="#3030304c">
<path fill="#303030" opacity="0.30" d=" M 215.84 235.43 L 216.59 234.84 L 217.63 235.16 L 217.87 236.05 C 217.36 235.90 216.35 235.59 215.84 235.43 Z" />
</g>
<g id="#30303051">
<path fill="#303030" opacity="0.32" d=" M 499.81 235.40 L 500.58 234.84 L 501.60 235.23 L 501.80 236.15 C 501.30 235.96 500.31 235.59 499.81 235.40 Z" />
</g>
<g id="#2d2d2e67">
<path fill="#2d2d2e" opacity="0.40" d=" M 512.30 236.24 C 512.58 234.48 513.49 234.17 515.03 235.32 C 514.21 235.92 513.30 236.23 512.30 236.24 Z" />
</g>
<g id="#39393a68">
<path fill="#39393a" opacity="0.41" d=" M 69.31 236.25 C 73.12 235.99 76.95 235.98 80.76 236.25 C 77.00 237.30 73.06 237.30 69.31 236.25 Z" />
</g>
<g id="#36363664">
<path fill="#363636" opacity="0.39" d=" M 218.99 236.44 C 219.78 235.20 222.82 235.23 222.77 237.01 C 221.47 237.29 220.17 236.98 218.99 236.44 Z" />
</g>
<g id="#3939397c">
<path fill="#393939" opacity="0.49" d=" M 228.09 237.02 C 228.50 235.41 229.44 235.18 230.90 236.31 C 230.07 237.00 229.13 237.24 228.09 237.02 Z" />
</g>
<g id="#3b3b3c8b">
<path fill="#3b3b3c" opacity="0.55" d=" M 300.48 236.37 C 303.50 235.84 306.58 235.86 309.61 236.35 C 306.59 237.08 303.50 237.06 300.48 236.37 Z" />
<path fill="#3b3b3c" opacity="0.55" d=" M 502.48 236.27 C 505.50 235.92 508.56 235.86 511.58 236.33 C 508.57 237.03 505.46 237.18 502.48 236.27 Z" />
</g>
<g id="#28292a95">
<path fill="#28292a" opacity="0.58" d=" M 467.46 235.60 C 468.41 236.37 469.08 237.42 469.34 238.63 C 467.76 239.41 466.30 236.72 467.46 235.60 Z" />
</g>
<g id="#27282bc1">
<path fill="#27282b" opacity="0.76" d=" M 189.34 240.18 C 188.83 238.66 189.36 237.98 190.94 238.14 C 191.09 239.27 190.56 239.95 189.34 240.18 Z" />
</g>
<g id="#27272aaf">
<path fill="#27272a" opacity="0.69" d=" M 267.45 238.71 C 268.99 239.02 269.74 240.51 270.05 241.92 C 268.52 242.56 266.80 240.08 267.45 238.71 Z" />
</g>
<g id="#2a2a2ca7">
<path fill="#2a2a2c" opacity="0.65" d=" M 37.27 240.75 C 38.32 240.97 38.96 241.65 39.17 242.79 C 37.54 243.08 36.90 242.40 37.27 240.75 Z" />
</g>
<g id="#3737386a">
<path fill="#373738" opacity="0.42" d=" M 254.45 243.58 C 254.47 243.55 254.51 243.49 254.52 243.46 C 254.51 243.49 254.47 243.55 254.45 243.58 Z" />
</g>
<g id="#28282ab5">
<path fill="#28282a" opacity="0.71" d=" M 107.67 246.56 C 108.37 245.32 109.29 243.93 110.88 243.90 C 111.61 245.44 109.07 247.22 107.67 246.56 Z" />
</g>
<g id="#1e1e1e38">
<path fill="#1e1e1e" opacity="0.22" d=" M 271.16 243.86 C 272.07 244.25 272.73 244.90 273.13 245.81 C 271.34 246.27 270.68 245.62 271.16 243.86 Z" />
</g>
<g id="#22222495">
<path fill="#222224" opacity="0.58" d=" M 42.11 246.18 C 44.20 245.97 45.19 248.01 46.12 249.50 C 44.38 250.10 41.85 247.92 42.11 246.18 Z" />
</g>
<g id="#2c2c2eb2">
<path fill="#2c2c2e" opacity="0.70" d=" M 191.07 245.85 C 192.24 246.00 192.95 246.60 193.21 247.68 C 191.55 248.06 190.84 247.45 191.07 245.85 Z" />
</g>
<g id="#212224be">
<path fill="#212224" opacity="0.75" d=" M 245.44 252.86 C 247.72 250.17 250.25 247.71 253.01 245.51 C 251.45 248.76 248.64 251.28 245.44 252.86 Z" />
</g>
<g id="#2d2d2e46">
<path fill="#2d2d2e" opacity="0.27" d=" M 336.35 246.48 C 336.37 246.46 336.41 246.43 336.43 246.41 C 336.41 246.43 336.37 246.46 336.35 246.48 Z" />
</g>
<g id="#1d1d1d48">
<path fill="#1d1d1d" opacity="0.28" d=" M 475.12 245.92 C 476.04 246.28 476.72 246.91 477.16 247.81 C 475.38 248.32 474.69 247.69 475.12 245.92 Z" />
</g>
<g id="#24242696">
<path fill="#242426" opacity="0.59" d=" M 533.89 249.49 C 534.72 247.83 535.96 246.40 537.85 245.98 C 538.40 247.84 535.67 250.09 533.89 249.49 Z" />
</g>
<g id="#2a2b2c9b">
<path fill="#2a2b2c" opacity="0.61" d=" M 277.07 248.83 C 278.10 249.03 278.85 249.61 279.31 250.58 C 277.58 251.10 276.83 250.51 277.07 248.83 Z" />
</g>
<g id="#27282aac">
<path fill="#27282a" opacity="0.67" d=" M 478.54 248.92 C 480.76 249.96 482.82 251.33 484.67 252.95 C 482.30 252.16 480.10 250.90 478.54 248.92 Z" />
</g>
<g id="#2a2b2c92">
<path fill="#2a2b2c" opacity="0.57" d=" M 318.30 256.23 C 322.31 254.35 326.43 252.75 330.48 250.97 C 327.20 254.10 322.66 255.44 318.30 256.23 Z" />
</g>
<g id="#292a2b7a">
<path fill="#292a2b" opacity="0.48" d=" M 520.30 256.26 C 524.31 254.42 528.47 252.90 532.43 250.92 C 529.22 254.07 524.65 255.56 520.30 256.26 Z" />
</g>
<g id="#2e2f3093">
<path fill="#2e2f30" opacity="0.58" d=" M 49.98 251.86 C 51.22 252.02 52.32 252.68 53.15 253.62 C 52.05 254.70 49.27 253.46 49.98 251.86 Z" />
</g>
<g id="#22222361">
<path fill="#222223" opacity="0.38" d=" M 91.47 255.81 C 93.73 254.67 96.00 253.56 98.36 252.67 C 96.57 254.60 94.07 255.61 91.47 255.81 Z" />
</g>
<g id="#2c2c2d83">
<path fill="#2c2c2d" opacity="0.51" d=" M 201.64 252.95 C 206.27 254.32 211.00 255.38 215.55 257.01 C 210.75 256.65 205.76 255.54 201.64 252.95 Z" />
</g>
<g id="#2d2d2f97">
<path fill="#2d2d2f" opacity="0.59" d=" M 282.53 252.82 C 285.66 253.78 288.77 254.81 291.75 256.19 C 288.49 255.73 285.05 255.12 282.53 252.82 Z" />
</g>
<g id="#27282870">
<path fill="#272828" opacity="0.44" d=" M 53.41 253.84 C 57.09 255.49 60.95 256.73 64.82 257.85 C 60.78 257.77 56.33 256.81 53.41 253.84 Z" />
</g>
<g id="#2d2d2e73">
<path fill="#2d2d2e" opacity="0.45" d=" M 239.07 255.71 C 240.52 254.90 242.07 254.26 243.69 253.85 C 244.24 256.02 240.45 257.04 239.07 255.71 Z" />
</g>
<g id="#2f2f318b">
<path fill="#2f2f31" opacity="0.55" d=" M 487.09 253.96 C 489.14 253.98 491.11 254.55 492.85 255.64 C 491.16 256.61 487.49 256.08 487.09 253.96 Z" />
</g>
<g id="#3a3a3a6c">
<path fill="#3a3a3a" opacity="0.42" d=" M 88.87 256.74 C 89.37 256.55 90.35 256.17 90.85 255.98 L 90.65 256.87 L 89.64 257.26 L 88.87 256.74 Z" />
</g>
<g id="#38383986">
<path fill="#383839" opacity="0.53" d=" M 234.95 256.69 C 235.80 256.08 236.74 255.82 237.79 255.90 C 237.36 257.59 236.41 257.85 234.95 256.69 Z" />
</g>
<g id="#3e3e3f88">
<path fill="#3e3e3f" opacity="0.53" d=" M 292.20 256.05 C 293.26 255.63 294.19 255.84 294.99 256.68 C 293.60 257.75 292.67 257.54 292.20 256.05 Z" />
<path fill="#3e3e3f" opacity="0.53" d=" M 494.04 255.91 C 495.14 255.76 496.11 256.03 496.97 256.72 C 495.42 257.77 494.45 257.50 494.04 255.91 Z" />
</g>
<g id="#38383a8a">
<path fill="#38383a" opacity="0.54" d=" M 314.98 256.69 C 315.81 255.91 316.73 255.70 317.75 256.05 C 317.28 257.61 316.35 257.82 314.98 256.69 Z" />
</g>
<g id="#39393a89">
<path fill="#39393a" opacity="0.54" d=" M 516.95 256.68 C 517.79 255.91 518.71 255.70 519.73 256.07 C 519.23 257.61 518.31 257.82 516.95 256.68 Z" />
</g>
<g id="#3c3c3d78">
<path fill="#3c3c3d" opacity="0.47" d=" M 85.02 257.69 C 85.52 257.54 86.51 257.23 87.01 257.08 L 86.77 257.94 L 85.75 258.26 L 85.02 257.69 Z" />
</g>
<g id="#3a3a3b7f">
<path fill="#3a3a3b" opacity="0.50" d=" M 216.58 257.17 C 222.27 257.00 227.96 257.13 233.65 257.20 C 228.16 258.55 222.08 258.55 216.58 257.17 Z" />
<path fill="#3a3a3b" opacity="0.50" d=" M 296.68 257.25 C 302.22 256.86 307.78 257.36 313.33 256.95 L 313.39 257.84 C 307.83 257.88 302.11 258.76 296.68 257.25 Z" />
<path fill="#3a3a3b" opacity="0.50" d=" M 498.55 257.23 C 504.14 256.88 509.76 257.35 515.36 256.95 L 515.36 257.83 C 509.77 257.91 504.02 258.73 498.55 257.23 Z" />
</g>
<g id="#3434356b">
<path fill="#343435" opacity="0.42" d=" M 67.44 258.19 C 72.72 257.97 78.00 258.23 83.28 258.00 C 78.00 259.96 71.91 258.97 66.39 258.44 L 67.44 258.19 Z" />
</g>
</svg>
