<?xml version="1.0" encoding="utf-8"?>
<!-- Generator: Adobe Illustrator 16.0.0, SVG Export Plug-In . SVG Version: 6.00 Build 0)  -->
<!DOCTYPE svg PUBLIC "-//W3C//DTD SVG 1.1 Tiny//EN" "http://www.w3.org/Graphics/SVG/1.1/DTD/svg11-tiny.dtd">
<svg version="1.1" baseProfile="tiny" id="Layer_1" xmlns="http://www.w3.org/2000/svg" xmlns:xlink="http://www.w3.org/1999/xlink"
	 x="0px" y="0px" width="530.528px" height="102.099px" viewBox="0 0 530.528 102.099" xml:space="preserve">
<g>
	<g>
		<rect fill="#0052BA" width="102.099" height="102.099"/>
	</g>
</g>
<g>
	<path fill="#FFFFFF" d="M42.918,26.311c4.228-3.359,9.34-3.792,10.085-3.844v-7.605c-2.434-0.028-4.861,0.328-7.227,1.063
		c-3.695,1.136-7.08,3.154-10.065,5.988c-7.184,6.823-7.197,16.182-7.16,17.511h15.833l-7.041-5.205l0,0
		C37.459,33.77,38.598,29.736,42.918,26.311z"/>
	<polyline fill="#FFFFFF" points="75.911,73.314 50.374,73.314 36.068,81.107 69.511,81.107 75.907,88.61 75.907,73.477 
		75.907,73.317 	"/>
	<path fill="#FFFFFF" d="M69.993,39.309c0-9.302-7.606-16.842-16.989-16.842v7.756c5.062,0,9.165,4.072,9.165,9.086
		c0,1.816-0.546,3.501-1.465,4.925c-0.458,0.628-1.064,1.314-1.885,2.105l-11.444,8.848c-8.748,6.572-13.625,13.697-14.01,14.242
		c-1.486,2.093-3.197,5.109-4.5,8.542c-1.438,3.784-2.277,7.459-2.375,10.379l9.576-7.234c0.119-0.485,1.313-4.947,5.691-10.126
		c4.6-5.454,8.222-8.143,11.133-10.308c0.649-0.481,1.27-0.941,1.856-1.397c0.448-0.346,1.125-0.832,1.901-1.391
		c2.007-1.443,4.864-3.509,7.204-5.623C67.6,49.184,69.993,44.526,69.993,39.309z"/>
</g>
<g>
	<g>
		<g>
			<path fill="#0052BA" d="M127.799,67.709l5.168-7.082c3.33,2.55,7.011,4.885,12.889,4.885c4.249,0,7.502-2.191,7.502-5.662
				c0-3.753-2.76-5.382-6.513-7.012l-6.796-2.832c-6.588-2.69-9.983-7.08-9.983-13.523c0-8.075,6.371-14.87,16.71-14.87
				c5.736,0,10.903,1.556,15.224,5.168l-5.242,7.01c-3.325-2.479-6.582-4.318-10.408-4.318c-4.105,0-6.654,1.839-6.654,5.523
				c0,3.257,2.621,4.885,6.654,6.583l5.807,2.55c7.225,3.114,11.329,7.787,11.329,14.02c0,10.055-8.498,15.646-18.057,15.646
				C138.702,73.796,132.543,72.17,127.799,67.709z"/>
			<path fill="#0052BA" d="M169.307,35.548h8.994v5.737h0.141c2.335-4.462,6.796-6.655,10.409-6.655
				c7.292,0,10.62,5.38,10.62,11.824V60.97c0,6.938-4.462,12.604-11.614,12.604c-3.256,0-7.435-1.841-9.061-5.382h-0.143v17.137
				h-9.347V35.548z M190.124,61.11V47.445c0-3.397-1.487-5.45-5.17-5.45c-3.328,0-6.3,2.974-6.3,8.212v8.851
				c0,4.815,3.47,7.719,6.584,7.719C188.14,66.776,190.124,65.147,190.124,61.11z"/>
			<path fill="#0052BA" d="M205.919,59.91V48.866c0-9.417,6.939-14.091,15.011-14.091c8.072,0,15.224,4.108,15.224,13.878V59.77
				c0,9.771-7.222,13.877-15.082,13.877C212.93,73.646,205.919,69.753,205.919,59.91z M226.737,60.193V48.157
				c0-3.539-1.911-6.229-5.735-6.229c-4.039,0-5.665,2.902-5.665,6.511v11.827c0,3.752,1.771,6.231,5.805,6.231
				C225.252,66.497,226.737,63.737,226.737,60.193z"/>
			<path fill="#0052BA" d="M242.774,35.775h9.063v5.948h0.07c2.124-4.249,4.674-6.374,8.992-6.374c0.78,0,2.197,0.07,3.188,0.283
				v8.427c-1.697-0.213-2.833-0.213-3.54-0.213c-3.257,0-8.355,1.346-8.429,7.151v21.952h-9.344V35.775z"/>
		</g>
	</g>
	<g>
		<path fill="#0052BA" d="M274.294,64.468v-21.24h-5.168v-7.505h5.168v-9.841h9.488v9.841h8.428v7.505h-8.428v18.335
			c0,2.125,0.916,3.399,3.607,3.399c1.418,0,2.621-0.213,3.898-0.495v7.506c-2.551,0.849-4.955,1.2-7.295,1.2
			C279.323,73.174,274.294,71.335,274.294,64.468z"/>
		<path fill="#0052BA" d="M295.839,67.865l4.746-6.088c2.686,2.125,6.371,4.459,9.771,4.459c3.322,0,5.377-1.345,5.377-3.751
			c0-2.69-2.479-3.541-5.594-4.533l-3.396-1.131c-5.873-1.772-8.781-5.665-8.781-10.762c0-5.735,4.389-11.61,13.168-11.61
			c4.959,0,9.135,1.344,12.537,4.249l-4.605,6.087c-2.832-2.195-5.453-3.256-8.072-3.256c-2.758,0-4.531,1.132-4.531,3.184
			c0,2.266,1.416,3.043,4.039,4.036l4.672,1.556c6.512,2.199,9.559,6.091,9.559,11.186c0,7.294-6.443,11.827-14.303,11.827
			C304.618,73.318,299.589,71.688,295.839,67.865z"/>
		<path fill="#0052BA" d="M330.657,21.986h4.957v32.287l13.594-17.841h5.66l-9.697,12.318l10.127,23.717h-5.242l-8.496-19.963
			l-5.945,7.502v12.461h-4.957V21.986z"/>
		<path fill="#0052BA" d="M359.054,62.979c0-8.426,7.361-11.468,13.236-11.468h6.871v-6.159c0-4.248-2.834-6.161-7.078-6.161
			c-3.826,0-7.438,1.839-7.438,5.735v2.053h-4.461v-2.194c0-6.087,5.594-9.205,12.463-9.205c6.369,0,11.539,2.902,11.539,9.558
			v18.194c0,2.764,0.287,7.366,0.355,9.134h-4.604l-0.285-5.735h-0.139c-2.334,5.17-7.295,6.516-10.553,6.516
			C363.726,73.247,359.054,69.849,359.054,62.979z M379.161,60.504v-5.596h-6.09c-4.178,0-8.92,1.346-8.92,7.365
			c0,4.886,3.043,7.149,6.512,7.149C375.265,69.423,379.161,65.671,379.161,60.504z"/>
		<path fill="#0052BA" d="M392.114,36.431h4.672v6.088h0.072c2.336-4.814,6.652-6.939,11.254-6.939c5.453,0,9.064,4.106,9.064,9.205
			v27.681h-4.957V46.129c0-4.811-2.338-6.583-6.229-6.583c-4.322,0-8.92,4.32-8.92,9.701v23.22h-4.957V36.431z"/>
		<path fill="#0052BA" d="M423.716,62.979c0-8.426,7.365-11.468,13.242-11.468h6.867v-6.159c0-4.248-2.834-6.161-7.08-6.161
			c-3.826,0-7.434,1.839-7.434,5.735v2.053h-4.463v-2.194c0-6.087,5.594-9.205,12.461-9.205c6.373,0,11.539,2.902,11.539,9.558
			v18.194c0,2.764,0.285,7.366,0.355,9.134h-4.602l-0.283-5.735h-0.141c-2.338,5.17-7.293,6.516-10.549,6.516
			C428.388,73.247,423.716,69.849,423.716,62.979z M443.825,60.504v-5.596h-6.09c-4.178,0-8.922,1.346-8.922,7.365
			c0,4.886,3.045,7.149,6.514,7.149C439.931,69.423,443.825,65.671,443.825,60.504z"/>
		<path fill="#0052BA" d="M456.63,65.388V21.986h4.955v42.551c0,2.338,1.061,4.038,4.178,4.038c0.92,0,2.193-0.144,3.045-0.285
			v3.893c-1.629,0.568-3.188,0.709-4.674,0.709C459.392,72.892,456.63,70.273,456.63,65.388z"/>
		<path fill="#0052BA" d="M473.392,60.29V49.315c0-8.851,5.666-13.735,13.1-13.735c7.645,0,12.18,4.816,12.18,12.744v7.08h-20.252
			v4.957c0,6.089,3.189,8.777,9.063,8.777c4.039,0,6.797-1.482,8.779-2.619l1.844,3.329c-3.26,2.55-7.223,3.47-11.33,3.47
			C478.915,73.318,473.392,69.423,473.392,60.29z M493.923,51.794V47.9c0-4.248-1.908-8.497-7.783-8.497
			c-5.453,0-7.721,4.319-7.721,8.497v3.894H493.923z"/>
		<path fill="#0052BA" d="M505.462,36.431h4.674v6.088h0.07c2.34-4.814,6.654-6.939,11.258-6.939c5.451,0,9.064,4.106,9.064,9.205
			v27.681h-4.957V46.129c0-4.811-2.338-6.583-6.23-6.583c-4.318,0-8.922,4.32-8.922,9.701v23.22h-4.957V36.431z"/>
	</g>
</g>
</svg>
