<?xml version="1.0" encoding="UTF-8" ?>
<!DOCTYPE svg PUBLIC "-//W3C//DTD SVG 1.1//EN" "http://www.w3.org/Graphics/SVG/1.1/DTD/svg11.dtd">
<svg width="219pt" height="450pt" viewBox="0 0 219 450" version="1.1" xmlns="http://www.w3.org/2000/svg">
<g id="#37373777">
<path fill="#373737" opacity="0.47" d=" M 101.88 0.00 L 122.22 0.00 L 123.37 0.50 C 115.82 1.10 108.21 1.06 100.67 0.49 L 101.88 0.00 Z" />
</g>
<g id="#3535358b">
<path fill="#353535" opacity="0.55" d=" M 90.87 1.89 C 92.69 0.56 95.00 0.40 97.07 1.20 C 95.18 2.32 92.96 2.54 90.87 1.89 Z" />
</g>
<g id="#231f20ff">
<path fill="#231f20" opacity="1.00" d=" M 97.07 1.20 C 98.27 0.97 99.47 0.73 100.67 0.49 C 108.21 1.06 115.82 1.10 123.37 0.50 C 123.78 0.66 124.60 0.99 125.01 1.15 C 126.86 2.44 129.16 2.58 131.20 1.67 C 132.42 1.79 133.64 1.91 134.86 2.03 C 135.98 3.22 137.66 3.53 139.17 2.93 C 139.59 2.96 140.42 3.02 140.84 3.05 C 141.71 4.18 142.81 4.46 144.12 3.87 C 146.03 4.27 147.94 4.67 149.85 5.07 C 150.42 5.27 151.56 5.66 152.13 5.86 C 160.70 8.36 169.10 11.65 176.76 16.27 C 188.72 23.31 198.76 33.92 204.16 46.79 C 204.38 47.34 204.83 48.45 205.05 49.01 C 205.77 51.30 206.45 53.61 207.11 55.92 C 206.46 57.41 206.77 59.10 207.95 60.24 C 208.01 60.63 208.13 61.41 208.19 61.80 C 207.44 63.91 207.65 66.19 208.87 68.08 C 208.87 70.70 208.87 73.32 208.87 75.94 C 207.69 77.83 207.44 80.07 208.06 82.20 C 208.10 82.90 208.20 84.29 208.24 84.99 C 206.86 85.54 206.47 86.56 207.08 88.05 C 203.73 102.91 193.70 116.79 179.07 122.13 C 177.77 121.52 176.67 121.77 175.78 122.90 L 174.92 122.91 C 174.39 123.19 173.33 123.76 172.80 124.04 C 173.13 124.26 173.77 124.68 174.09 124.90 C 181.63 126.89 188.51 130.55 195.17 134.52 C 194.72 136.29 196.66 137.20 198.13 137.17 C 200.08 139.01 201.98 140.91 203.81 142.87 C 203.78 144.34 204.73 146.27 206.50 145.80 C 207.87 148.57 209.52 151.20 211.05 153.88 C 211.30 154.42 211.79 155.51 212.04 156.06 C 212.72 158.01 213.40 159.96 214.07 161.92 C 213.52 163.27 213.86 164.33 215.08 165.11 L 214.96 165.94 C 215.22 166.49 215.72 167.59 215.97 168.14 C 216.05 169.37 216.12 170.61 216.21 171.84 C 215.38 173.92 215.62 176.21 216.99 178.00 C 217.04 178.39 217.15 179.17 217.20 179.56 C 217.21 183.17 217.21 186.79 217.20 190.40 C 217.12 191.03 216.96 192.28 216.87 192.91 C 215.67 194.43 215.46 196.43 216.18 198.22 C 216.13 198.62 216.02 199.41 215.96 199.81 C 214.77 200.95 214.46 202.63 215.03 204.16 L 214.94 204.77 C 213.21 206.42 212.46 208.76 213.04 211.10 L 213.07 211.77 C 212.83 212.32 212.34 213.42 212.10 213.97 C 204.86 232.89 189.16 247.42 171.11 256.00 C 170.57 256.25 169.48 256.75 168.93 257.00 C 166.34 258.06 163.74 259.11 161.12 260.11 C 160.57 260.35 159.47 260.81 158.91 261.05 C 157.64 261.36 156.37 261.68 155.09 262.00 C 154.54 262.24 153.45 262.72 152.90 262.96 C 149.65 263.73 146.41 264.51 143.14 265.17 C 141.82 264.55 140.73 264.82 139.86 265.99 C 139.43 265.99 138.57 265.98 138.14 265.98 C 136.80 265.48 135.71 265.79 134.86 266.91 C 133.62 266.98 132.39 267.06 131.16 267.14 C 129.38 266.47 127.40 266.68 125.89 267.86 C 124.02 267.97 122.15 268.09 120.28 268.23 C 114.10 268.13 107.91 268.13 101.73 268.22 C 99.86 268.08 98.00 267.95 96.13 267.83 C 94.59 266.69 92.62 266.49 90.84 267.15 C 89.61 267.06 88.38 266.98 87.15 266.90 C 86.29 265.79 85.20 265.47 83.87 265.97 C 83.44 265.97 82.58 265.97 82.16 265.97 C 81.28 264.81 80.19 264.54 78.87 265.15 C 75.61 264.49 72.37 263.70 69.14 262.92 C 68.59 262.67 67.51 262.17 66.96 261.91 L 66.11 262.04 C 65.57 261.79 64.48 261.29 63.93 261.04 C 61.98 260.36 60.04 259.67 58.09 258.98 C 57.54 258.75 56.43 258.28 55.88 258.05 C 36.84 249.94 20.33 235.25 11.93 216.13 C 11.69 215.59 11.21 214.49 10.97 213.94 C 10.29 212.00 9.61 210.05 8.94 208.11 C 8.71 207.55 8.26 206.44 8.03 205.88 C 7.21 202.33 6.42 198.77 5.77 195.19 C 6.55 193.74 6.30 192.02 5.10 190.90 C 4.96 189.73 4.83 188.56 4.71 187.40 C 4.77 181.90 4.97 176.41 4.98 170.91 C 24.62 170.80 44.27 170.71 63.92 170.97 C 64.06 173.27 64.12 175.58 64.20 177.89 C 63.46 179.99 63.68 182.25 64.89 184.13 C 64.95 184.52 65.08 185.30 65.14 185.69 C 64.54 186.99 64.80 188.09 65.92 189.00 C 67.44 193.25 69.03 197.56 71.74 201.23 C 74.64 205.31 78.69 208.36 82.86 211.05 C 83.41 211.29 84.50 211.78 85.04 212.02 C 85.98 212.36 86.92 212.69 87.86 213.03 C 88.40 213.29 89.47 213.82 90.00 214.08 C 93.54 214.86 97.05 215.77 100.64 216.22 C 107.19 217.36 113.87 217.22 120.43 216.22 C 121.10 216.22 122.44 216.21 123.11 216.20 C 124.38 216.47 125.36 216.06 126.07 214.98 C 127.68 214.66 129.28 214.33 130.89 214.01 C 131.44 213.78 132.55 213.32 133.10 213.09 C 140.66 209.96 147.50 204.77 151.13 197.28 C 152.81 195.99 153.58 193.94 153.07 191.87 C 153.10 191.49 153.17 190.74 153.21 190.36 C 154.08 185.85 154.07 181.24 153.14 176.74 C 153.09 176.34 153.00 175.53 152.96 175.13 C 153.48 173.82 153.16 172.76 151.99 171.97 C 151.34 170.34 150.69 168.70 150.04 167.08 C 149.80 166.52 149.34 165.42 149.10 164.87 C 145.33 159.54 140.18 155.31 134.11 152.85 C 133.55 152.64 132.42 152.23 131.85 152.02 C 130.56 151.69 129.26 151.36 127.97 151.02 C 127.15 149.84 126.06 149.52 124.72 150.05 C 124.33 150.02 123.53 149.94 123.14 149.91 C 121.28 148.66 119.01 148.47 116.91 149.18 C 116.29 149.12 115.03 148.98 114.40 148.91 C 109.54 147.99 104.57 147.99 99.70 148.87 C 98.55 148.96 97.40 149.06 96.26 149.16 C 94.44 149.15 92.62 149.07 90.80 149.01 C 90.57 134.71 90.59 120.41 90.80 106.11 C 94.64 106.04 98.49 105.87 102.34 105.75 C 103.78 105.78 105.23 105.78 106.67 105.77 C 110.26 105.89 113.85 105.73 117.40 105.20 C 118.55 105.09 119.70 104.97 120.84 104.85 C 121.43 104.72 122.61 104.46 123.20 104.33 C 126.13 103.67 129.02 102.88 131.91 102.07 C 132.46 101.83 133.57 101.37 134.13 101.13 C 140.45 98.17 146.05 93.17 148.36 86.42 C 150.18 82.45 150.42 77.94 149.15 73.77 C 147.36 65.42 140.61 59.27 133.06 55.92 C 132.51 55.68 131.42 55.18 130.87 54.93 L 130.02 55.03 C 129.49 54.75 128.43 54.20 127.90 53.92 C 127.44 53.95 126.52 54.01 126.06 54.04 C 125.52 53.76 124.43 53.21 123.89 52.93 L 123.13 52.97 C 121.29 51.71 119.03 51.46 116.91 52.10 C 113.63 52.02 110.36 52.01 107.08 52.06 C 105.30 51.50 103.40 51.70 101.82 52.71 C 93.35 54.10 85.13 57.67 79.19 64.02 C 78.80 64.48 78.03 65.39 77.65 65.85 C 75.78 69.04 74.17 72.38 72.83 75.82 C 71.75 76.68 71.46 77.76 71.95 79.05 C 71.90 79.70 71.80 81.02 71.74 81.68 C 71.47 84.12 71.12 86.56 70.81 89.00 C 51.14 89.14 31.47 89.02 11.80 89.06 C 11.78 87.26 11.74 85.47 11.78 83.67 C 11.90 82.49 12.02 81.30 12.15 80.12 C 13.29 78.95 13.53 77.26 12.80 75.80 C 12.86 75.14 12.96 73.81 13.01 73.15 C 14.17 72.29 14.46 71.19 13.88 69.87 C 14.25 67.94 14.64 66.01 15.03 64.09 C 15.23 63.52 15.64 62.40 15.85 61.83 C 16.54 59.59 17.27 57.36 18.02 55.13 C 18.24 54.58 18.69 53.46 18.91 52.90 C 26.93 33.65 42.83 18.25 61.89 9.98 C 62.43 9.73 63.51 9.22 64.06 8.97 C 65.02 8.65 65.99 8.34 66.95 8.02 C 67.49 7.76 68.56 7.23 69.10 6.97 L 69.96 7.06 C 70.49 6.79 71.55 6.24 72.08 5.97 L 72.94 6.07 C 73.48 5.82 74.58 5.32 75.12 5.07 C 78.40 4.33 81.66 3.56 84.95 2.88 C 86.24 3.48 87.35 3.23 88.26 2.14 C 88.91 2.07 90.22 1.95 90.87 1.89 C 92.96 2.54 95.18 2.32 97.07 1.20 Z" />
<path fill="#231f20" opacity="1.00" d=" M 2.93 301.13 L 3.68 301.24 C 6.76 301.69 9.87 301.99 12.99 302.02 C 42.33 301.90 71.66 302.01 101.00 301.96 C 108.46 301.89 115.97 302.47 123.36 301.22 C 124.54 301.07 125.72 300.93 126.91 300.80 C 127.38 314.90 127.09 329.02 127.05 343.13 C 85.60 343.01 44.15 342.95 2.70 343.15 C 3.20 329.15 2.80 315.14 2.93 301.13 Z" />
</g>
<g id="#343434af">
<path fill="#343434" opacity="0.69" d=" M 125.01 1.15 C 127.08 0.51 129.30 0.57 131.20 1.67 C 129.16 2.58 126.86 2.44 125.01 1.15 Z" />
</g>
<g id="#36343469">
<path fill="#363434" opacity="0.41" d=" M 84.95 2.88 C 85.86 1.77 86.96 1.52 88.26 2.14 C 87.35 3.23 86.24 3.48 84.95 2.88 Z" />
</g>
<g id="#39373885">
<path fill="#393738" opacity="0.52" d=" M 134.86 2.03 C 136.36 1.42 138.06 1.72 139.17 2.93 C 137.66 3.53 135.98 3.22 134.86 2.03 Z" />
</g>
<g id="#3937387f">
<path fill="#393738" opacity="0.50" d=" M 140.84 3.05 C 142.14 2.48 143.24 2.75 144.12 3.87 C 142.81 4.46 141.71 4.18 140.84 3.05 Z" />
</g>
<g id="#34343463">
<path fill="#343434" opacity="0.39" d=" M 72.94 6.07 C 73.48 5.82 74.58 5.32 75.12 5.07 C 74.58 5.32 73.48 5.82 72.94 6.07 Z" />
</g>
<g id="#37363670">
<path fill="#373636" opacity="0.44" d=" M 149.85 5.07 C 150.42 5.27 151.56 5.66 152.13 5.86 C 151.56 5.66 150.42 5.27 149.85 5.07 Z" />
</g>
<g id="#34343473">
<path fill="#343434" opacity="0.45" d=" M 69.96 7.06 C 70.49 6.79 71.55 6.24 72.08 5.97 C 71.55 6.24 70.49 6.79 69.96 7.06 Z" />
</g>
<g id="#37373773">
<path fill="#373737" opacity="0.45" d=" M 66.95 8.02 C 67.49 7.76 68.56 7.23 69.10 6.97 C 68.56 7.23 67.49 7.76 66.95 8.02 Z" />
</g>
<g id="#34343475">
<path fill="#343434" opacity="0.46" d=" M 61.89 9.98 C 62.43 9.73 63.51 9.22 64.06 8.97 C 63.51 9.22 62.43 9.73 61.89 9.98 Z" />
</g>
<g id="#36363680">
<path fill="#363636" opacity="0.50" d=" M 204.16 46.79 C 204.38 47.34 204.83 48.45 205.05 49.01 C 204.83 48.45 204.38 47.34 204.16 46.79 Z" />
</g>
<g id="#33333363">
<path fill="#333333" opacity="0.39" d=" M 101.82 52.71 C 103.40 51.70 105.30 51.50 107.08 52.06 C 105.64 53.42 103.56 53.59 101.82 52.71 Z" />
</g>
<g id="#3434347c">
<path fill="#343434" opacity="0.49" d=" M 116.91 52.10 C 119.03 51.46 121.29 51.71 123.13 52.97 C 121.01 53.61 118.73 53.43 116.91 52.10 Z" />
</g>
<g id="#33323270">
<path fill="#333232" opacity="0.44" d=" M 18.02 55.13 C 18.24 54.58 18.69 53.46 18.91 52.90 C 18.69 53.46 18.24 54.58 18.02 55.13 Z" />
</g>
<g id="#36343461">
<path fill="#363434" opacity="0.38" d=" M 123.89 52.93 C 124.43 53.21 125.52 53.76 126.06 54.04 C 125.52 53.76 124.43 53.21 123.89 52.93 Z" />
</g>
<g id="#39373777">
<path fill="#393737" opacity="0.47" d=" M 127.90 53.92 C 128.43 54.20 129.49 54.75 130.02 55.03 C 129.49 54.75 128.43 54.20 127.90 53.92 Z" />
</g>
<g id="#38363682">
<path fill="#383636" opacity="0.51" d=" M 130.87 54.93 C 131.42 55.18 132.51 55.68 133.06 55.92 C 132.51 55.68 131.42 55.18 130.87 54.93 Z" />
</g>
<g id="#3433337e">
<path fill="#343333" opacity="0.49" d=" M 207.11 55.92 C 208.28 57.06 208.58 58.74 207.95 60.24 C 206.77 59.10 206.46 57.41 207.11 55.92 Z" />
</g>
<g id="#3838387f">
<path fill="#383838" opacity="0.50" d=" M 15.03 64.09 C 15.23 63.52 15.64 62.40 15.85 61.83 C 15.64 62.40 15.23 63.52 15.03 64.09 Z" />
</g>
<g id="#3635358f">
<path fill="#363535" opacity="0.56" d=" M 208.19 61.80 C 209.40 63.69 209.56 65.97 208.87 68.08 C 207.65 66.19 207.44 63.91 208.19 61.80 Z" />
</g>
<g id="#3232327e">
<path fill="#323232" opacity="0.49" d=" M 77.65 65.85 C 78.03 65.39 78.80 64.48 79.19 64.02 C 78.80 64.48 78.03 65.39 77.65 65.85 Z" />
</g>
<g id="#38363681">
<path fill="#383636" opacity="0.51" d=" M 13.01 73.15 C 12.48 71.84 12.76 70.74 13.88 69.87 C 14.46 71.19 14.17 72.29 13.01 73.15 Z" />
</g>
<g id="#383536a9">
<path fill="#383536" opacity="0.66" d=" M 149.15 73.77 C 150.42 77.94 150.18 82.45 148.36 86.42 C 149.03 82.24 149.22 78.00 149.15 73.77 Z" />
</g>
<g id="#3a383883">
<path fill="#3a3838" opacity="0.51" d=" M 12.15 80.12 C 11.46 78.66 11.68 76.98 12.80 75.80 C 13.53 77.26 13.29 78.95 12.15 80.12 Z" />
</g>
<g id="#3432336c">
<path fill="#343233" opacity="0.42" d=" M 71.95 79.05 C 71.46 77.76 71.75 76.68 72.83 75.82 C 73.46 77.15 73.17 78.23 71.95 79.05 Z" />
</g>
<g id="#3937389d">
<path fill="#393738" opacity="0.62" d=" M 208.06 82.20 C 207.44 80.07 207.69 77.83 208.87 75.94 C 209.53 78.05 209.46 80.39 208.06 82.20 Z" />
</g>
<g id="#1d1c1c28">
<path fill="#1d1c1c" opacity="0.16" d=" M 70.81 89.00 C 71.12 86.56 71.47 84.12 71.74 81.68 C 71.76 84.41 71.89 87.14 71.98 89.87 C 51.59 89.81 31.20 89.94 10.81 89.79 C 11.13 87.75 11.48 85.71 11.78 83.67 C 11.74 85.47 11.78 87.26 11.80 89.06 C 31.47 89.02 51.14 89.14 70.81 89.00 Z" />
</g>
<g id="#32323274">
<path fill="#323232" opacity="0.45" d=" M 207.08 88.05 C 206.47 86.56 206.86 85.54 208.24 84.99 C 208.52 86.25 208.14 87.27 207.08 88.05 Z" />
</g>
<g id="#3535357c">
<path fill="#353535" opacity="0.49" d=" M 131.91 102.07 C 132.46 101.83 133.57 101.37 134.13 101.13 C 133.57 101.37 132.46 101.83 131.91 102.07 Z" />
</g>
<g id="#39383969">
<path fill="#393839" opacity="0.41" d=" M 120.84 104.85 C 121.43 104.72 122.61 104.46 123.20 104.33 C 122.61 104.46 121.43 104.72 120.84 104.85 Z" />
</g>
<g id="#303030ae">
<path fill="#303030" opacity="0.68" d=" M 90.04 104.93 C 94.16 104.95 98.26 105.29 102.34 105.75 C 98.49 105.87 94.64 106.04 90.80 106.11 C 90.59 120.41 90.57 134.71 90.80 149.01 C 92.62 149.07 94.44 149.15 96.26 149.16 C 94.19 149.41 92.14 149.73 90.09 150.04 C 89.90 135.01 89.99 119.97 90.04 104.93 Z" />
</g>
<g id="#3130315c">
<path fill="#313031" opacity="0.36" d=" M 106.67 105.77 C 110.23 105.35 113.82 105.18 117.40 105.20 C 113.85 105.73 110.26 105.89 106.67 105.77 Z" />
</g>
<g id="#32313273">
<path fill="#323132" opacity="0.45" d=" M 175.78 122.90 C 176.67 121.77 177.77 121.52 179.07 122.13 C 178.17 123.23 177.07 123.49 175.78 122.90 Z" />
</g>
<g id="#31303054">
<path fill="#313030" opacity="0.33" d=" M 172.80 124.04 C 173.33 123.76 174.39 123.19 174.92 122.91 C 174.71 123.41 174.29 124.40 174.09 124.90 C 173.77 124.68 173.13 124.26 172.80 124.04 Z" />
</g>
<g id="#3332337d">
<path fill="#333233" opacity="0.49" d=" M 195.17 134.52 C 196.57 134.82 197.64 135.83 198.13 137.17 C 196.66 137.20 194.72 136.29 195.17 134.52 Z" />
</g>
<g id="#33333380">
<path fill="#333333" opacity="0.50" d=" M 203.81 142.87 C 205.14 143.35 206.16 144.41 206.50 145.80 C 204.73 146.27 203.78 144.34 203.81 142.87 Z" />
</g>
<g id="#313131c3">
<path fill="#313131" opacity="0.76" d=" M 99.70 148.87 C 104.57 147.99 109.54 147.99 114.40 148.91 C 109.50 148.90 104.60 148.90 99.70 148.87 Z" />
</g>
<g id="#3333337a">
<path fill="#333333" opacity="0.48" d=" M 116.91 149.18 C 119.01 148.47 121.28 148.66 123.14 149.91 C 121.03 150.59 118.77 150.42 116.91 149.18 Z" />
</g>
<g id="#3a383993">
<path fill="#3a3839" opacity="0.58" d=" M 124.72 150.05 C 126.06 149.52 127.15 149.84 127.97 151.02 C 126.64 151.52 125.55 151.20 124.72 150.05 Z" />
</g>
<g id="#36353677">
<path fill="#363536" opacity="0.47" d=" M 131.85 152.02 C 132.42 152.23 133.55 152.64 134.11 152.85 C 133.55 152.64 132.42 152.23 131.85 152.02 Z" />
</g>
<g id="#3231326c">
<path fill="#323132" opacity="0.42" d=" M 211.05 153.88 C 211.30 154.42 211.79 155.51 212.04 156.06 C 211.79 155.51 211.30 154.42 211.05 153.88 Z" />
<path fill="#323132" opacity="0.42" d=" M 168.93 257.00 C 169.48 256.75 170.57 256.25 171.11 256.00 C 170.57 256.25 169.48 256.75 168.93 257.00 Z" />
</g>
<g id="#35343581">
<path fill="#353435" opacity="0.51" d=" M 214.07 161.92 C 215.21 162.72 215.55 163.79 215.08 165.11 C 213.86 164.33 213.52 163.27 214.07 161.92 Z" />
</g>
<g id="#3332337b">
<path fill="#333233" opacity="0.48" d=" M 149.10 164.87 C 149.34 165.42 149.80 166.52 150.04 167.08 C 149.80 166.52 149.34 165.42 149.10 164.87 Z" />
</g>
<g id="#36353568">
<path fill="#363535" opacity="0.41" d=" M 214.96 165.94 C 215.22 166.49 215.72 167.59 215.97 168.14 C 215.72 167.59 215.22 166.49 214.96 165.94 Z" />
</g>
<g id="#3a3839a4">
<path fill="#3a3839" opacity="0.64" d=" M 4.10 170.06 C 24.01 169.95 43.93 169.96 63.84 170.04 L 63.92 170.97 C 44.27 170.71 24.62 170.80 4.98 170.91 C 4.97 176.41 4.77 181.90 4.71 187.40 C 3.84 181.66 3.86 175.85 4.10 170.06 Z" />
</g>
<g id="#3736369c">
<path fill="#373636" opacity="0.61" d=" M 151.99 171.97 C 153.16 172.76 153.48 173.82 152.96 175.13 C 151.77 174.35 151.45 173.29 151.99 171.97 Z" />
</g>
<g id="#353434ab">
<path fill="#353434" opacity="0.67" d=" M 216.21 171.84 C 217.40 173.69 217.51 175.91 216.99 178.00 C 215.62 176.21 215.38 173.92 216.21 171.84 Z" />
</g>
<g id="#3938388f">
<path fill="#393838" opacity="0.56" d=" M 153.14 176.74 C 154.07 181.24 154.08 185.85 153.21 190.36 C 153.17 185.82 153.14 181.28 153.14 176.74 Z" />
</g>
<g id="#37353586">
<path fill="#373535" opacity="0.53" d=" M 64.20 177.89 C 65.44 179.76 65.59 182.03 64.89 184.13 C 63.68 182.25 63.46 179.99 64.20 177.89 Z" />
</g>
<g id="#22212230">
<path fill="#222122" opacity="0.19" d=" M 217.20 179.56 C 218.00 183.14 217.99 186.82 217.20 190.40 C 217.21 186.79 217.21 183.17 217.20 179.56 Z" />
</g>
<g id="#38373899">
<path fill="#383738" opacity="0.60" d=" M 65.14 185.69 C 66.25 186.59 66.51 187.69 65.92 189.00 C 64.80 188.09 64.54 186.99 65.14 185.69 Z" />
</g>
<g id="#3836378c">
<path fill="#383637" opacity="0.55" d=" M 5.10 190.90 C 6.30 192.02 6.55 193.74 5.77 195.19 C 4.69 194.00 4.46 192.36 5.10 190.90 Z" />
</g>
<g id="#3331319e">
<path fill="#333131" opacity="0.62" d=" M 151.13 197.28 C 150.92 195.26 151.47 193.21 153.07 191.87 C 153.58 193.94 152.81 195.99 151.13 197.28 Z" />
</g>
<g id="#37363694">
<path fill="#373636" opacity="0.58" d=" M 216.18 198.22 C 215.46 196.43 215.67 194.43 216.87 192.91 C 217.54 194.69 217.37 196.69 216.18 198.22 Z" />
</g>
<g id="#3333337e">
<path fill="#333333" opacity="0.49" d=" M 215.03 204.16 C 214.46 202.63 214.77 200.95 215.96 199.81 C 216.58 201.33 216.23 203.03 215.03 204.16 Z" />
</g>
<g id="#2f2f2f8d">
<path fill="#2f2f2f" opacity="0.55" d=" M 213.04 211.10 C 212.46 208.76 213.21 206.42 214.94 204.77 C 215.19 207.06 214.62 209.37 213.04 211.10 Z" />
</g>
<g id="#36363670">
<path fill="#363636" opacity="0.44" d=" M 8.03 205.88 C 8.26 206.44 8.71 207.55 8.94 208.11 C 8.71 207.55 8.26 206.44 8.03 205.88 Z" />
</g>
<g id="#3635357d">
<path fill="#363535" opacity="0.49" d=" M 82.86 211.05 C 83.41 211.29 84.50 211.78 85.04 212.02 C 84.50 211.78 83.41 211.29 82.86 211.05 Z" />
</g>
<g id="#33323261">
<path fill="#333232" opacity="0.38" d=" M 212.10 213.97 C 212.34 213.42 212.83 212.32 213.07 211.77 C 212.83 212.32 212.34 213.42 212.10 213.97 Z" />
</g>
<g id="#3533346e">
<path fill="#353334" opacity="0.43" d=" M 87.86 213.03 C 88.40 213.29 89.47 213.82 90.00 214.08 C 89.47 213.82 88.40 213.29 87.86 213.03 Z" />
</g>
<g id="#35353581">
<path fill="#353535" opacity="0.51" d=" M 130.89 214.01 C 131.44 213.78 132.55 213.32 133.10 213.09 C 132.55 213.32 131.44 213.78 130.89 214.01 Z" />
<path fill="#353535" opacity="0.51" d=" M 19.26 403.92 C 20.32 403.76 21.26 404.03 22.07 404.74 C 20.69 405.85 19.76 405.58 19.26 403.92 Z" />
</g>
<g id="#3634347c">
<path fill="#363434" opacity="0.49" d=" M 10.97 213.94 C 11.21 214.49 11.69 215.59 11.93 216.13 C 11.69 215.59 11.21 214.49 10.97 213.94 Z" />
</g>
<g id="#36363674">
<path fill="#363636" opacity="0.45" d=" M 123.11 216.20 C 123.59 214.80 124.58 214.39 126.07 214.98 C 125.36 216.06 124.38 216.47 123.11 216.20 Z" />
</g>
<g id="#2f2e2f5a">
<path fill="#2f2e2f" opacity="0.35" d=" M 100.64 216.22 C 107.24 216.23 113.83 216.19 120.43 216.22 C 113.87 217.22 107.19 217.36 100.64 216.22 Z" />
</g>
<g id="#3131316c">
<path fill="#313131" opacity="0.42" d=" M 55.88 258.05 C 56.43 258.28 57.54 258.75 58.09 258.98 C 57.54 258.75 56.43 258.28 55.88 258.05 Z" />
</g>
<g id="#3737377c">
<path fill="#373737" opacity="0.49" d=" M 158.91 261.05 C 159.47 260.81 160.57 260.35 161.12 260.11 C 160.57 260.35 159.47 260.81 158.91 261.05 Z" />
</g>
<g id="#3433336f">
<path fill="#343333" opacity="0.44" d=" M 63.93 261.04 C 64.48 261.29 65.57 261.79 66.11 262.04 C 65.57 261.79 64.48 261.29 63.93 261.04 Z" />
</g>
<g id="#33323363">
<path fill="#333233" opacity="0.39" d=" M 66.96 261.91 C 67.51 262.17 68.59 262.67 69.14 262.92 C 68.59 262.67 67.51 262.17 66.96 261.91 Z" />
</g>
<g id="#38363773">
<path fill="#383637" opacity="0.45" d=" M 152.90 262.96 C 153.45 262.72 154.54 262.24 155.09 262.00 C 154.54 262.24 153.45 262.72 152.90 262.96 Z" />
</g>
<g id="#3735368a">
<path fill="#373536" opacity="0.54" d=" M 78.87 265.15 C 80.19 264.54 81.28 264.81 82.16 265.97 C 80.85 266.52 79.76 266.24 78.87 265.15 Z" />
</g>
<g id="#36343589">
<path fill="#363435" opacity="0.54" d=" M 139.86 265.99 C 140.73 264.82 141.82 264.55 143.14 265.17 C 142.25 266.25 141.16 266.53 139.86 265.99 Z" />
</g>
<g id="#3433346c">
<path fill="#343334" opacity="0.42" d=" M 83.87 265.97 C 85.20 265.47 86.29 265.79 87.15 266.90 C 85.81 267.46 84.71 267.15 83.87 265.97 Z" />
</g>
<g id="#3433346e">
<path fill="#343334" opacity="0.43" d=" M 134.86 266.91 C 135.71 265.79 136.80 265.48 138.14 265.98 C 137.29 267.16 136.20 267.47 134.86 266.91 Z" />
</g>
<g id="#3837387c">
<path fill="#383738" opacity="0.49" d=" M 90.84 267.15 C 92.62 266.49 94.59 266.69 96.13 267.83 C 94.36 268.56 92.33 268.41 90.84 267.15 Z" />
</g>
<g id="#38373881">
<path fill="#383738" opacity="0.51" d=" M 125.89 267.86 C 127.40 266.68 129.38 266.47 131.16 267.14 C 129.67 268.39 127.66 268.56 125.89 267.86 Z" />
</g>
<g id="#32323256">
<path fill="#323232" opacity="0.34" d=" M 101.73 268.22 C 107.91 268.13 114.10 268.13 120.28 268.23 C 114.15 269.37 107.87 269.35 101.73 268.22 Z" />
</g>
<g id="#2c2b2b62">
<path fill="#2c2b2b" opacity="0.38" d=" M 135.22 300.02 C 138.48 299.97 141.75 299.96 145.01 299.96 C 145.05 305.63 145.02 311.30 145.09 316.98 L 144.19 316.97 C 144.27 311.57 144.25 306.18 144.17 300.78 C 141.44 300.75 138.71 300.75 135.99 300.77 C 136.17 314.77 135.56 328.80 136.23 342.77 C 138.86 343.12 141.52 343.08 144.16 343.16 C 144.28 337.14 144.26 331.12 144.22 325.11 C 150.12 324.98 156.03 325.02 161.94 325.07 C 161.95 331.05 161.91 337.03 162.01 343.01 C 164.75 343.01 167.49 343.02 170.23 343.05 C 170.37 328.95 170.39 314.85 170.22 300.76 C 167.47 300.74 164.72 300.75 161.97 300.78 C 161.93 306.17 161.95 311.57 162.03 316.96 L 161.07 316.96 C 161.67 311.34 161.51 305.69 161.29 300.06 C 164.53 299.97 167.77 299.96 171.02 299.95 C 170.99 314.53 171.15 329.11 170.94 343.69 C 167.73 343.67 164.53 343.67 161.33 343.71 C 161.53 337.72 161.61 331.71 161.27 325.72 C 155.86 325.37 150.44 325.34 145.04 325.76 C 145.02 331.74 145.10 337.73 144.94 343.72 C 141.72 343.64 138.50 343.62 135.28 343.65 C 135.21 329.10 135.30 314.56 135.22 300.02 Z" />
</g>
<g id="#33323264">
<path fill="#333232" opacity="0.39" d=" M 178.99 299.99 C 186.04 299.95 193.09 299.97 200.14 299.97 L 200.18 300.85 C 193.44 300.59 186.69 300.71 179.96 300.79 C 179.91 314.87 179.90 328.95 179.96 343.03 C 185.37 343.00 190.78 343.12 196.19 343.15 C 190.55 344.03 184.83 343.45 179.15 343.64 C 178.76 329.09 179.06 314.54 178.99 299.99 Z" />
</g>
<g id="#25242534">
<path fill="#252425" opacity="0.20" d=" M 2.08 301.15 L 2.93 301.13 C 2.80 315.14 3.20 329.15 2.70 343.15 C 1.50 338.87 1.92 334.39 1.91 330.00 C 2.02 320.38 1.75 310.76 2.08 301.15 Z" />
</g>
<g id="#353132ff">
<path fill="#353132" opacity="1.00" d=" M 3.68 301.24 C 5.78 301.05 7.90 300.95 10.01 300.94 C 40.01 300.95 70.00 300.94 100.00 300.95 C 107.79 301.06 115.59 300.66 123.36 301.22 C 115.97 302.47 108.46 301.89 101.00 301.96 C 71.66 302.01 42.33 301.90 12.99 302.02 C 9.87 301.99 6.76 301.69 3.68 301.24 Z" />
</g>
<g id="#221f20ff">
<path fill="#221f20" opacity="1.00" d=" M 135.99 300.77 C 138.71 300.75 141.44 300.75 144.17 300.78 C 144.25 306.18 144.27 311.57 144.19 316.97 L 145.09 316.98 C 150.42 317.01 155.74 316.95 161.07 316.96 L 162.03 316.96 C 161.95 311.57 161.93 306.17 161.97 300.78 C 164.72 300.75 167.47 300.74 170.22 300.76 C 170.39 314.85 170.37 328.95 170.23 343.05 C 167.49 343.02 164.75 343.01 162.01 343.01 C 161.91 337.03 161.95 331.05 161.94 325.07 C 156.03 325.02 150.12 324.98 144.22 325.11 C 144.26 331.12 144.28 337.14 144.16 343.16 C 141.52 343.08 138.86 343.12 136.23 342.77 C 135.56 328.80 136.17 314.77 135.99 300.77 Z" />
<path fill="#221f20" opacity="1.00" d=" M 179.96 300.79 C 186.69 300.71 193.44 300.59 200.18 300.85 C 200.87 300.94 202.25 301.11 202.95 301.19 C 203.43 301.41 204.39 301.84 204.87 302.05 C 211.31 303.79 215.48 310.28 216.15 316.68 C 216.23 319.92 216.24 323.16 216.18 326.41 L 215.72 327.16 C 215.00 327.92 214.73 328.82 214.90 329.87 C 214.03 336.08 207.99 341.10 201.94 341.98 C 201.45 342.17 200.46 342.54 199.96 342.73 C 198.72 342.99 197.46 343.13 196.19 343.15 C 190.78 343.12 185.37 343.00 179.96 343.03 C 179.90 328.95 179.91 314.87 179.96 300.79 M 188.17 335.88 C 191.53 336.06 194.93 336.04 198.22 335.24 C 201.70 334.66 204.52 332.13 206.19 329.13 C 208.67 323.74 208.81 316.64 205.09 311.78 C 200.97 307.13 194.33 307.77 188.72 307.70 C 187.36 317.00 188.41 326.49 188.17 335.88 Z" />
</g>
<g id="#34343478">
<path fill="#343434" opacity="0.47" d=" M 202.95 301.19 L 203.72 300.71 L 204.71 301.15 L 204.87 302.05 C 204.39 301.84 203.43 301.41 202.95 301.19 Z" />
<path fill="#343434" opacity="0.47" d=" M 194.07 422.85 C 194.21 423.44 194.48 424.62 194.61 425.21 C 194.48 424.62 194.21 423.44 194.07 422.85 Z" />
</g>
<g id="#3838386f">
<path fill="#383838" opacity="0.44" d=" M 188.17 335.88 C 188.41 326.49 187.36 317.00 188.72 307.70 C 189.33 316.77 188.88 325.86 189.02 334.94 C 192.08 335.08 195.15 335.24 198.22 335.24 C 194.93 336.04 191.53 336.06 188.17 335.88 Z" />
</g>
<g id="#302f2fa5">
<path fill="#302f2f" opacity="0.65" d=" M 205.09 311.78 C 208.81 316.64 208.67 323.74 206.19 329.13 C 207.49 323.38 207.36 317.27 205.09 311.78 Z" />
</g>
<g id="#3534355e">
<path fill="#353435" opacity="0.37" d=" M 216.15 316.68 C 217.41 319.82 217.36 323.25 216.18 326.41 C 216.24 323.16 216.23 319.92 216.15 316.68 Z" />
</g>
<g id="#38373895">
<path fill="#383738" opacity="0.58" d=" M 214.90 329.87 C 214.73 328.82 215.00 327.92 215.72 327.16 C 216.86 328.51 216.59 329.41 214.90 329.87 Z" />
</g>
<g id="#39373875">
<path fill="#393738" opacity="0.46" d=" M 199.96 342.73 C 200.46 342.54 201.45 342.17 201.94 341.98 L 201.72 342.86 L 200.71 343.25 L 199.96 342.73 Z" />
</g>
<g id="#23232333">
<path fill="#232323" opacity="0.20" d=" M 21.57 367.00 C 24.99 365.40 28.89 365.47 32.35 366.88 C 28.76 366.86 25.16 366.87 21.57 367.00 Z" />
</g>
<g id="#2f2f2fa1">
<path fill="#2f2f2f" opacity="0.63" d=" M 17.31 368.14 C 17.03 366.38 20.12 365.85 20.79 367.33 C 19.73 367.95 18.53 368.25 17.31 368.14 Z" />
</g>
<g id="#020203ff">
<path fill="#020203" opacity="1.00" d=" M 20.79 367.33 L 21.57 367.00 C 25.16 366.87 28.76 366.86 32.35 366.88 C 33.01 366.98 34.33 367.18 34.99 367.28 C 35.49 367.46 36.49 367.84 36.99 368.03 L 37.86 368.09 C 38.33 368.32 39.29 368.80 39.77 369.04 C 44.26 370.19 48.41 373.85 49.95 378.24 C 50.19 378.73 50.65 379.69 50.89 380.18 L 50.91 381.07 C 50.70 382.12 50.89 383.09 51.51 383.97 C 51.74 384.44 52.21 385.38 52.44 385.85 C 51.51 385.86 49.63 385.89 48.69 385.90 C 47.41 385.72 46.15 386.06 45.01 386.63 C 44.43 386.70 43.27 386.84 42.69 386.91 C 41.55 386.80 40.41 386.84 39.28 387.03 C 39.26 386.48 39.22 385.40 39.21 384.86 C 39.00 384.37 38.58 383.39 38.37 382.90 C 36.90 381.56 35.51 380.13 34.19 378.64 C 33.71 378.43 32.75 378.00 32.27 377.79 L 31.47 377.71 C 28.55 377.21 25.52 376.88 22.65 377.84 C 21.35 378.17 20.07 378.56 18.77 378.88 C 17.66 379.00 16.92 379.59 16.56 380.65 C 16.35 381.05 15.92 381.86 15.71 382.27 C 14.74 383.60 14.29 385.53 15.51 386.88 C 16.84 390.01 20.00 391.22 22.86 392.53 C 23.39 392.63 24.46 392.82 24.99 392.92 C 25.49 393.02 26.48 393.22 26.98 393.31 C 27.83 393.98 28.80 394.23 29.87 394.04 C 30.40 394.10 31.44 394.21 31.97 394.27 C 32.78 394.97 33.72 395.23 34.79 395.07 C 38.03 395.26 41.34 396.29 44.00 398.16 C 44.45 398.43 45.35 398.97 45.80 399.24 C 48.81 400.77 51.57 403.72 51.89 407.19 C 51.74 408.26 52.02 409.20 52.74 410.00 C 52.83 410.56 52.99 411.67 53.07 412.23 C 53.02 413.70 53.00 415.18 53.03 416.66 C 52.98 417.22 52.89 418.32 52.85 418.87 C 52.63 419.36 52.20 420.35 51.98 420.84 C 51.03 425.46 46.99 429.14 42.77 430.93 C 42.30 431.17 41.35 431.66 40.87 431.91 L 40.01 431.94 C 39.51 432.15 38.52 432.55 38.03 432.75 C 37.56 432.80 36.63 432.91 36.16 432.96 C 31.06 433.22 25.95 433.17 20.84 433.02 C 20.14 432.96 18.73 432.85 18.03 432.79 C 17.54 432.59 16.57 432.17 16.09 431.97 C 10.36 430.85 4.64 426.55 3.04 420.77 C 2.81 420.29 2.34 419.32 2.11 418.83 L 2.07 417.93 C 2.27 416.89 2.08 415.93 1.49 415.06 C 1.21 414.24 0.66 412.59 0.39 411.77 C 4.84 412.01 9.31 412.01 13.77 412.03 C 14.01 412.61 14.48 413.79 14.72 414.38 C 15.82 418.16 18.67 421.40 22.63 422.22 C 26.12 423.31 29.90 423.33 33.38 422.20 C 36.46 421.40 38.25 418.68 39.55 416.00 C 40.58 415.21 40.58 413.77 39.53 413.01 C 38.18 409.69 35.41 407.72 32.16 406.49 C 31.63 406.38 30.58 406.16 30.06 406.06 C 29.29 405.96 27.77 405.76 27.00 405.66 C 26.15 404.99 25.19 404.76 24.14 404.96 C 23.62 404.91 22.58 404.79 22.07 404.74 C 21.26 404.03 20.32 403.76 19.26 403.92 C 12.23 403.19 3.71 398.63 3.09 390.85 C 3.28 389.80 3.02 388.88 2.33 388.08 C 1.84 386.42 1.78 384.58 2.31 382.94 C 3.01 382.14 3.26 381.22 3.08 380.18 C 4.02 373.58 10.98 368.79 17.31 368.14 C 18.53 368.25 19.73 367.95 20.79 367.33 Z" />
</g>
<g id="#33333362">
<path fill="#333333" opacity="0.38" d=" M 34.99 367.28 L 35.75 366.76 L 36.76 367.15 L 36.99 368.03 C 36.49 367.84 35.49 367.46 34.99 367.28 Z" />
</g>
<g id="#3333337b">
<path fill="#333333" opacity="0.48" d=" M 37.86 368.09 L 38.66 367.66 L 39.64 368.15 L 39.77 369.04 C 39.29 368.80 38.33 368.32 37.86 368.09 Z" />
</g>
<g id="#2c2c2d69">
<path fill="#2c2c2d" opacity="0.41" d=" M 193.16 373.01 C 197.72 372.97 202.29 372.97 206.85 373.02 C 206.84 376.98 206.86 380.95 206.92 384.93 C 210.25 384.94 213.59 384.90 216.92 385.09 L 216.98 386.06 C 213.33 386.02 209.67 385.98 206.02 385.93 C 205.97 381.79 205.98 377.66 206.00 373.54 C 202.00 373.37 198.00 373.38 194.01 373.60 C 194.02 377.69 194.02 381.79 193.99 385.89 C 191.62 385.95 189.25 386.00 186.89 386.06 C 186.87 389.02 186.88 391.99 186.92 394.96 C 189.27 394.97 191.63 394.99 193.99 395.02 C 194.02 403.44 194.10 411.87 193.85 420.29 C 192.66 412.22 193.34 404.06 193.12 395.94 C 190.75 395.86 188.39 395.79 186.02 395.73 C 185.98 392.16 185.98 388.60 185.98 385.04 C 188.35 384.99 190.72 384.95 193.09 384.92 C 193.15 380.95 193.18 376.98 193.16 373.01 Z" />
</g>
<g id="#000002ff">
<path fill="#000002" opacity="1.00" d=" M 194.01 373.60 C 198.00 373.38 202.00 373.37 206.00 373.54 C 205.98 377.66 205.97 381.79 206.02 385.93 C 209.67 385.98 213.33 386.02 216.98 386.06 C 217.09 389.01 217.09 391.97 216.97 394.92 C 213.33 394.98 209.70 395.01 206.06 395.08 C 206.34 403.47 205.10 412.03 206.79 420.31 C 207.06 420.80 207.59 421.79 207.86 422.28 L 208.26 422.98 C 208.70 422.94 209.58 422.87 210.03 422.83 C 212.44 422.98 214.93 422.97 217.21 423.88 C 216.30 425.24 217.15 426.83 217.93 428.02 C 217.99 428.51 218.11 429.48 218.17 429.96 C 218.17 430.43 218.16 431.37 218.16 431.84 L 217.19 431.83 C 215.69 431.36 214.67 431.81 214.15 433.16 C 211.14 432.99 208.12 432.99 205.11 432.93 C 204.17 431.76 203.07 431.56 201.79 432.34 C 198.67 430.80 196.09 428.39 194.61 425.21 C 194.48 424.62 194.21 423.44 194.07 422.85 C 194.01 422.21 193.90 420.93 193.85 420.29 C 194.10 411.87 194.02 403.44 193.99 395.02 C 191.63 394.99 189.27 394.97 186.92 394.96 C 186.88 391.99 186.87 389.02 186.89 386.06 C 189.25 386.00 191.62 385.95 193.99 385.89 C 194.02 381.79 194.02 377.69 194.01 373.60 Z" />
<path fill="#000002" opacity="1.00" d=" M 68.68 390.15 C 71.08 388.00 73.59 385.77 76.75 384.84 C 80.62 384.71 84.49 384.69 88.36 384.80 C 94.35 386.12 98.24 391.41 100.28 396.87 C 100.45 397.45 100.79 398.62 100.96 399.21 C 101.00 399.88 101.07 401.22 101.10 401.89 C 100.58 403.25 100.41 405.39 102.16 405.94 C 102.02 407.58 101.95 409.24 101.88 410.89 C 100.67 412.38 100.43 414.36 101.07 416.16 C 101.05 416.57 101.01 417.38 100.99 417.78 C 100.81 418.36 100.44 419.52 100.26 420.10 C 97.91 426.28 93.09 431.86 86.36 433.22 C 83.13 433.29 79.89 433.27 76.65 433.19 C 73.67 432.43 71.18 430.54 68.62 428.94 C 68.55 428.89 68.42 428.79 68.35 428.74 L 68.35 428.80 C 67.79 435.55 68.09 442.33 68.05 449.10 C 64.05 449.24 60.04 449.26 56.04 449.24 C 55.97 428.16 56.03 407.08 56.01 386.00 C 59.68 386.00 63.35 386.01 67.02 385.99 C 67.13 387.77 67.24 389.55 67.35 391.33 C 67.68 391.04 68.35 390.45 68.68 390.15 M 75.32 395.02 C 71.88 395.27 69.46 398.44 68.67 401.58 C 67.64 405.63 67.54 409.95 68.34 414.06 C 67.16 415.39 67.41 416.31 69.10 416.81 C 69.14 420.02 72.17 422.93 75.34 423.01 C 75.99 424.97 80.96 424.95 81.62 422.99 C 85.26 422.34 87.99 418.33 87.88 414.70 C 89.79 414.51 89.81 411.08 88.62 409.97 L 88.98 409.00 L 88.62 408.03 C 89.81 406.91 89.79 403.50 87.90 403.30 C 88.05 399.72 85.55 395.27 81.68 395.00 C 80.99 393.06 76.01 393.08 75.32 395.02 Z" />
<path fill="#000002" opacity="1.00" d=" M 167.61 390.38 C 171.14 385.52 177.53 383.85 183.23 385.19 C 182.90 386.99 182.84 388.83 182.93 390.66 C 182.96 392.23 182.98 393.81 182.98 395.39 C 182.00 395.41 181.04 395.56 180.09 395.82 C 178.32 396.14 176.51 396.08 174.73 395.90 C 173.66 395.59 172.75 395.83 172.01 396.62 C 170.02 398.36 167.73 400.04 166.84 402.65 C 164.86 412.29 166.43 422.23 165.95 432.00 C 162.28 431.99 158.61 431.99 154.94 431.99 C 154.74 416.68 154.75 401.36 154.91 386.04 C 158.47 386.03 162.04 386.03 165.61 386.06 C 165.85 387.92 166.11 389.78 166.47 391.63 C 166.75 391.31 167.32 390.69 167.61 390.38 Z" />
</g>
<g id="#343435b5">
<path fill="#343435" opacity="0.71" d=" M 22.65 377.84 C 25.52 376.88 28.55 377.21 31.47 377.71 C 28.54 377.95 25.59 377.96 22.65 377.84 Z" />
</g>
<g id="#31313275">
<path fill="#313132" opacity="0.46" d=" M 32.27 377.79 C 32.75 378.00 33.71 378.43 34.19 378.64 L 33.41 379.13 L 32.42 378.70 L 32.27 377.79 Z" />
</g>
<g id="#31313167">
<path fill="#313131" opacity="0.40" d=" M 49.95 378.24 L 50.84 378.39 L 51.32 379.37 L 50.89 380.18 C 50.65 379.69 50.19 378.73 49.95 378.24 Z" />
</g>
<g id="#31313180">
<path fill="#313131" opacity="0.50" d=" M 16.56 380.65 C 16.92 379.59 17.66 379.00 18.77 378.88 C 18.91 380.55 18.17 381.14 16.56 380.65 Z" />
</g>
<g id="#34343498">
<path fill="#343434" opacity="0.60" d=" M 2.31 382.94 C 1.15 381.59 1.41 380.67 3.08 380.18 C 3.26 381.22 3.01 382.14 2.31 382.94 Z" />
</g>
<g id="#35353585">
<path fill="#353535" opacity="0.52" d=" M 50.91 381.07 C 52.54 381.72 52.74 382.68 51.51 383.97 C 50.89 383.09 50.70 382.12 50.91 381.07 Z" />
</g>
<g id="#313132bb">
<path fill="#313132" opacity="0.73" d=" M 15.51 386.88 C 14.29 385.53 14.74 383.60 15.71 382.27 C 16.70 383.49 16.65 385.75 15.51 386.88 Z" />
</g>
<g id="#33333483">
<path fill="#333334" opacity="0.51" d=" M 38.37 382.90 C 38.58 383.39 39.00 384.37 39.21 384.86 L 38.31 384.67 L 37.88 383.67 L 38.37 382.90 Z" />
</g>
<g id="#2e2e2eb4">
<path fill="#2e2e2e" opacity="0.71" d=" M 76.75 384.84 C 80.50 383.58 84.59 383.67 88.36 384.80 C 84.49 384.69 80.62 384.71 76.75 384.84 Z" />
</g>
<g id="#2f2f2fba">
<path fill="#2f2f2f" opacity="0.73" d=" M 120.82 384.18 C 124.96 383.93 129.11 383.95 133.25 384.08 L 133.21 385.01 C 129.12 384.78 125.01 384.79 120.91 385.03 L 120.82 384.18 Z" />
</g>
<g id="#3a3a3a88">
<path fill="#3a3a3a" opacity="0.53" d=" M 55.14 385.12 C 59.30 384.99 63.46 384.98 67.62 385.10 C 67.97 386.78 68.31 388.47 68.68 390.15 C 68.35 390.45 67.68 391.04 67.35 391.33 C 67.24 389.55 67.13 387.77 67.02 385.99 C 63.35 386.01 59.68 386.00 56.01 386.00 C 56.03 407.08 55.97 428.16 56.04 449.24 C 60.04 449.26 64.05 449.24 68.05 449.10 L 68.05 450.00 L 55.07 450.00 C 54.99 428.37 54.87 406.74 55.14 385.12 Z" />
</g>
<g id="#010103ff">
<path fill="#010103" opacity="1.00" d=" M 117.01 386.20 C 117.99 385.14 119.59 385.20 120.91 385.03 C 125.01 384.79 129.12 384.78 133.21 385.01 C 133.67 385.06 134.57 385.16 135.02 385.21 C 135.50 385.42 136.46 385.86 136.94 386.07 C 142.56 387.40 147.59 392.53 148.86 398.18 C 148.72 399.21 149.00 400.12 149.70 400.91 L 149.87 401.78 C 150.26 406.21 150.21 410.68 150.00 415.13 C 149.97 416.81 149.75 418.58 148.61 419.92 C 147.73 421.01 147.08 422.25 146.73 423.62 C 145.49 427.07 142.22 429.57 138.92 430.93 C 138.44 431.15 137.49 431.58 137.01 431.79 C 135.62 432.83 133.80 432.91 132.14 433.01 C 128.72 433.12 125.29 433.12 121.87 433.00 C 112.16 432.60 104.61 423.63 103.91 414.27 C 103.84 410.74 103.84 407.20 103.89 403.66 C 103.96 403.24 104.09 402.40 104.16 401.97 C 104.38 401.50 104.83 400.55 105.05 400.08 C 105.80 394.48 109.97 389.33 115.09 387.04 C 115.57 386.83 116.53 386.41 117.01 386.20 M 123.24 394.18 L 123.09 395.07 C 119.20 395.68 117.51 400.27 116.84 403.70 C 115.53 407.09 115.62 410.85 116.89 414.24 C 117.40 417.89 119.43 421.44 122.74 423.23 C 125.39 424.05 128.17 424.09 130.92 424.00 L 130.90 422.93 C 134.43 422.26 137.04 418.48 136.95 414.96 L 137.83 414.75 L 138.23 413.75 L 137.72 412.99 C 138.04 410.31 138.19 407.52 137.56 404.88 C 139.13 404.22 138.58 401.01 136.76 401.35 C 136.13 395.86 129.97 393.14 125.00 394.19 L 124.22 393.73 L 123.24 394.18 Z" />
</g>
<g id="#3535359a">
<path fill="#353535" opacity="0.60" d=" M 135.02 385.21 L 135.80 384.74 L 136.78 385.18 L 136.94 386.07 C 136.46 385.86 135.50 385.42 135.02 385.21 Z" />
</g>
<g id="#2d2d2dab">
<path fill="#2d2d2d" opacity="0.67" d=" M 154.04 385.13 C 158.19 385.00 162.34 385.00 166.48 385.24 C 166.86 386.95 167.30 388.65 167.61 390.38 C 167.32 390.69 166.75 391.31 166.47 391.63 C 166.11 389.78 165.85 387.92 165.61 386.06 C 162.04 386.03 158.47 386.03 154.91 386.04 C 154.75 401.36 154.74 416.68 154.94 431.99 C 158.61 431.99 162.28 431.99 165.95 432.00 C 166.43 422.23 164.86 412.29 166.84 402.65 C 167.16 412.62 167.06 422.61 166.90 432.59 C 162.61 432.49 158.33 432.48 154.05 432.65 C 153.95 416.81 153.97 400.97 154.04 385.13 Z" />
</g>
<g id="#303030a3">
<path fill="#303030" opacity="0.64" d=" M 183.23 385.19 C 184.92 385.78 184.75 390.27 182.93 390.66 C 182.84 388.83 182.90 386.99 183.23 385.19 Z" />
</g>
<g id="#3636369c">
<path fill="#363636" opacity="0.61" d=" M 45.01 386.63 C 46.15 386.06 47.41 385.72 48.69 385.90 C 48.84 387.65 45.76 387.97 45.01 386.63 Z" />
</g>
<g id="#35353697">
<path fill="#353536" opacity="0.59" d=" M 115.25 386.14 L 116.24 385.71 L 117.01 386.20 C 116.53 386.41 115.57 386.83 115.09 387.04 L 115.25 386.14 Z" />
<path fill="#353536" opacity="0.59" d=" M 101.07 416.16 C 100.43 414.36 100.67 412.38 101.88 410.89 C 102.54 412.67 102.34 414.68 101.07 416.16 Z" />
</g>
<g id="#2d2d2d48">
<path fill="#2d2d2d" opacity="0.28" d=" M 39.28 387.03 C 40.41 386.84 41.55 386.80 42.69 386.91 C 43.01 388.73 39.08 388.86 39.28 387.03 Z" />
</g>
<g id="#333333a6">
<path fill="#333333" opacity="0.65" d=" M 2.33 388.08 C 3.02 388.88 3.28 389.80 3.09 390.85 C 1.42 390.35 1.17 389.42 2.33 388.08 Z" />
</g>
<g id="#3535356b">
<path fill="#353535" opacity="0.42" d=" M 22.86 392.53 L 23.53 391.89 L 24.62 392.10 L 24.99 392.92 C 24.46 392.82 23.39 392.63 22.86 392.53 Z" />
</g>
<g id="#36363688">
<path fill="#363636" opacity="0.53" d=" M 26.98 393.31 C 28.32 392.16 29.29 392.41 29.87 394.04 C 28.80 394.23 27.83 393.98 26.98 393.31 Z" />
</g>
<g id="#36363689">
<path fill="#363636" opacity="0.54" d=" M 31.97 394.27 C 33.34 393.14 34.28 393.41 34.79 395.07 C 33.72 395.23 32.78 394.97 31.97 394.27 Z" />
</g>
<g id="#2f2f3067">
<path fill="#2f2f30" opacity="0.40" d=" M 75.32 395.02 C 76.01 393.08 80.99 393.06 81.68 395.00 C 79.56 395.02 77.44 395.03 75.32 395.02 Z" />
</g>
<g id="#30303070">
<path fill="#303030" opacity="0.44" d=" M 123.24 394.18 L 124.22 393.73 L 125.00 394.19 C 124.52 394.41 123.57 394.85 123.09 395.07 L 123.24 394.18 Z" />
<path fill="#303030" opacity="0.44" d=" M 172.01 396.62 C 172.75 395.83 173.66 395.59 174.73 395.90 C 174.22 397.50 173.31 397.74 172.01 396.62 Z" />
</g>
<g id="#2c2c2c57">
<path fill="#2c2c2c" opacity="0.34" d=" M 180.09 395.82 C 181.04 395.56 182.00 395.41 182.98 395.39 C 183.95 397.29 179.80 397.92 180.09 395.82 Z" />
</g>
<g id="#2b2b2b43">
<path fill="#2b2b2b" opacity="0.26" d=" M 206.06 395.08 C 209.70 395.01 213.33 394.98 216.97 394.92 L 216.90 395.84 C 213.61 396.03 210.31 396.03 207.02 396.06 C 206.90 404.14 207.18 412.23 206.79 420.31 C 205.10 412.03 206.34 403.47 206.06 395.08 Z" />
</g>
<g id="#35353586">
<path fill="#353535" opacity="0.53" d=" M 100.28 396.87 C 100.45 397.45 100.79 398.62 100.96 399.21 C 100.79 398.62 100.45 397.45 100.28 396.87 Z" />
</g>
<g id="#3232327b">
<path fill="#323232" opacity="0.48" d=" M 44.00 398.16 L 44.83 397.78 L 45.75 398.33 L 45.80 399.24 C 45.35 398.97 44.45 398.43 44.00 398.16 Z" />
</g>
<g id="#31313190">
<path fill="#313131" opacity="0.56" d=" M 148.86 398.18 C 150.56 398.63 150.84 399.54 149.70 400.91 C 149.00 400.12 148.72 399.21 148.86 398.18 Z" />
</g>
<g id="#3838388c">
<path fill="#383838" opacity="0.55" d=" M 104.16 400.22 L 105.05 400.08 C 104.83 400.55 104.38 401.50 104.16 401.97 L 103.70 401.19 L 104.16 400.22 Z" />
</g>
<g id="#28282892">
<path fill="#282828" opacity="0.57" d=" M 136.76 401.35 C 138.58 401.01 139.13 404.22 137.56 404.88 C 137.06 403.76 136.78 402.56 136.76 401.35 Z" />
</g>
<g id="#353537aa">
<path fill="#353537" opacity="0.67" d=" M 101.10 401.89 C 102.11 402.98 102.53 404.48 102.16 405.94 C 100.41 405.39 100.58 403.25 101.10 401.89 Z" />
</g>
<g id="#2f2f30b8">
<path fill="#2f2f30" opacity="0.72" d=" M 149.87 401.78 L 150.81 401.91 C 151.08 406.36 151.06 410.83 150.89 415.28 L 150.00 415.13 C 150.21 410.68 150.26 406.21 149.87 401.78 Z" />
<path fill="#2f2f30" opacity="0.72" d=" M 20.84 433.02 C 25.95 433.17 31.06 433.22 36.16 432.96 L 36.09 433.79 C 30.98 434.10 25.85 434.05 20.73 433.89 L 20.84 433.02 Z" />
</g>
<g id="#29292956">
<path fill="#292929" opacity="0.34" d=" M 87.90 403.30 C 89.79 403.50 89.81 406.91 88.62 408.03 C 87.94 406.54 87.81 404.90 87.90 403.30 Z" />
</g>
<g id="#3333335b">
<path fill="#333333" opacity="0.36" d=" M 103.91 414.27 C 102.50 410.87 102.60 407.08 103.89 403.66 C 103.84 407.20 103.84 410.74 103.91 414.27 Z" />
</g>
<g id="#2c2c2d8f">
<path fill="#2c2c2d" opacity="0.56" d=" M 116.89 414.24 C 115.62 410.85 115.53 407.09 116.84 403.70 C 116.82 407.21 116.82 410.73 116.89 414.24 Z" />
</g>
<g id="#34343469">
<path fill="#343434" opacity="0.41" d=" M 24.14 404.96 C 25.19 404.76 26.15 404.99 27.00 405.66 C 25.68 406.83 24.72 406.59 24.14 404.96 Z" />
</g>
<g id="#3434346c">
<path fill="#343434" opacity="0.42" d=" M 30.06 406.06 C 30.58 406.16 31.63 406.38 32.16 406.49 L 31.48 407.12 L 30.40 406.89 L 30.06 406.06 Z" />
</g>
<g id="#3232339c">
<path fill="#323233" opacity="0.61" d=" M 51.89 407.19 C 53.56 407.68 53.84 408.62 52.74 410.00 C 52.02 409.20 51.74 408.26 51.89 407.19 Z" />
</g>
<g id="#2e2e2e63">
<path fill="#2e2e2e" opacity="0.39" d=" M 87.88 414.70 C 87.83 413.09 87.94 411.45 88.62 409.97 C 89.81 411.08 89.79 414.51 87.88 414.70 Z" />
</g>
<g id="#3a3a3a90">
<path fill="#3a3a3a" opacity="0.56" d=" M 0.39 411.77 C 5.09 410.35 10.06 411.06 14.88 411.15 C 14.84 411.96 14.76 413.57 14.72 414.38 C 14.48 413.79 14.01 412.61 13.77 412.03 C 9.31 412.01 4.84 412.01 0.39 411.77 Z" />
</g>
<g id="#27272739">
<path fill="#272727" opacity="0.22" d=" M 53.07 412.23 C 54.97 412.31 54.94 416.63 53.03 416.66 C 53.00 415.18 53.02 413.70 53.07 412.23 Z" />
</g>
<g id="#3939399b">
<path fill="#393939" opacity="0.61" d=" M 39.53 413.01 C 40.58 413.77 40.58 415.21 39.55 416.00 L 38.93 415.18 C 39.08 414.64 39.38 413.55 39.53 413.01 Z" />
</g>
<g id="#3030307a">
<path fill="#303030" opacity="0.48" d=" M 136.95 414.96 C 137.14 414.46 137.53 413.48 137.72 412.99 L 138.23 413.75 L 137.83 414.75 L 136.95 414.96 Z" />
</g>
<g id="#2f2f2f71">
<path fill="#2f2f2f" opacity="0.44" d=" M 68.34 414.06 C 69.02 414.86 69.27 415.77 69.10 416.81 C 67.41 416.31 67.16 415.39 68.34 414.06 Z" />
</g>
<g id="#36363685">
<path fill="#363636" opacity="0.52" d=" M 1.49 415.06 C 2.08 415.93 2.27 416.89 2.07 417.93 C 0.42 417.29 0.23 416.33 1.49 415.06 Z" />
</g>
<g id="#2f2f2f87">
<path fill="#2f2f2f" opacity="0.53" d=" M 100.26 420.10 C 100.44 419.52 100.81 418.36 100.99 417.78 C 100.81 418.36 100.44 419.52 100.26 420.10 Z" />
</g>
<g id="#33333381">
<path fill="#333333" opacity="0.51" d=" M 2.11 418.83 C 2.34 419.32 2.81 420.29 3.04 420.77 L 2.15 420.62 L 1.67 419.64 L 2.11 418.83 Z" />
</g>
<g id="#37373783">
<path fill="#373737" opacity="0.51" d=" M 51.98 420.84 C 52.20 420.35 52.63 419.36 52.85 418.87 L 53.30 419.66 L 52.86 420.66 L 51.98 420.84 Z" />
</g>
<g id="#26262698">
<path fill="#262626" opacity="0.60" d=" M 146.73 423.62 C 147.08 422.25 147.73 421.01 148.61 419.92 C 150.09 421.04 148.54 424.33 146.73 423.62 Z" />
</g>
<g id="#33333475">
<path fill="#333334" opacity="0.46" d=" M 22.63 422.22 C 26.21 422.07 29.80 422.05 33.38 422.20 C 29.90 423.33 26.12 423.31 22.63 422.22 Z" />
</g>
<g id="#32323365">
<path fill="#323233" opacity="0.40" d=" M 207.86 422.28 C 208.40 422.42 209.48 422.69 210.03 422.83 C 209.58 422.87 208.70 422.94 208.26 422.98 L 207.86 422.28 Z" />
</g>
<g id="#30303272">
<path fill="#303032" opacity="0.45" d=" M 75.34 423.01 C 77.43 422.98 79.53 422.97 81.62 422.99 C 80.96 424.95 75.99 424.97 75.34 423.01 Z" />
</g>
<g id="#2b2b2c6e">
<path fill="#2b2b2c" opacity="0.43" d=" M 122.74 423.23 C 125.46 423.23 128.18 423.17 130.90 422.93 L 130.92 424.00 C 128.17 424.09 125.39 424.05 122.74 423.23 Z" />
</g>
<g id="#31313286">
<path fill="#313132" opacity="0.53" d=" M 217.21 423.88 C 218.96 424.41 218.18 426.73 217.93 428.02 C 217.15 426.83 216.30 425.24 217.21 423.88 Z" />
</g>
<g id="#8c8c8eff">
<path fill="#8c8c8e" opacity="1.00" d=" M 68.35 428.74 C 68.42 428.79 68.55 428.89 68.62 428.94 L 68.35 428.80 L 68.35 428.74 Z" />
</g>
<g id="#3a3a3b78">
<path fill="#3a3a3b" opacity="0.47" d=" M 218.17 429.96 L 219.00 430.21 L 219.00 431.85 L 218.16 431.84 C 218.16 431.37 218.17 430.43 218.17 429.96 Z" />
</g>
<g id="#2f2f3066">
<path fill="#2f2f30" opacity="0.40" d=" M 40.87 431.91 C 41.35 431.66 42.30 431.17 42.77 430.93 L 42.65 431.82 L 41.68 432.32 L 40.87 431.91 Z" />
</g>
<g id="#3535369a">
<path fill="#353536" opacity="0.60" d=" M 137.01 431.79 C 137.49 431.58 138.44 431.15 138.92 430.93 L 138.77 431.83 L 137.78 432.27 L 137.01 431.79 Z" />
</g>
<g id="#35353688">
<path fill="#353536" opacity="0.53" d=" M 16.09 431.97 C 16.57 432.17 17.54 432.59 18.03 432.79 L 17.26 433.28 L 16.27 432.86 L 16.09 431.97 Z" />
</g>
<g id="#34343578">
<path fill="#343435" opacity="0.47" d=" M 38.03 432.75 C 38.52 432.55 39.51 432.15 40.01 431.94 L 39.79 432.83 L 38.79 433.24 L 38.03 432.75 Z" />
</g>
<g id="#3434359a">
<path fill="#343435" opacity="0.60" d=" M 201.79 432.34 C 203.07 431.56 204.17 431.76 205.11 432.93 C 203.86 433.50 202.76 433.30 201.79 432.34 Z" />
</g>
<g id="#35353689">
<path fill="#353536" opacity="0.54" d=" M 214.15 433.16 C 214.67 431.81 215.69 431.36 217.19 431.83 C 216.48 432.97 215.47 433.42 214.15 433.16 Z" />
</g>
<g id="#3737388d">
<path fill="#373738" opacity="0.55" d=" M 76.65 433.19 C 79.89 433.27 83.13 433.29 86.36 433.22 C 83.20 434.22 79.80 434.24 76.65 433.19 Z" />
</g>
<g id="#38383a9b">
<path fill="#38383a" opacity="0.61" d=" M 121.87 433.00 C 125.29 433.12 128.72 433.12 132.14 433.01 L 132.19 433.95 C 128.74 434.01 125.30 434.02 121.85 433.94 L 121.87 433.00 Z" />
</g>
</svg>
