<?xml version="1.0" encoding="UTF-8" standalone="no"?>
<!-- Created with Inkscape (http://www.inkscape.org/) -->

<svg
   xmlns:dc="http://purl.org/dc/elements/1.1/"
   xmlns:cc="http://creativecommons.org/ns#"
   xmlns:rdf="http://www.w3.org/1999/02/22-rdf-syntax-ns#"
   xmlns:svg="http://www.w3.org/2000/svg"
   xmlns="http://www.w3.org/2000/svg"
   xmlns:inkscape="http://www.inkscape.org/namespaces/inkscape"
   version="1.1"
   width="659.47498"
   height="59.837502"
   id="svg2"
   xml:space="preserve"><metadata
     id="metadata8"><rdf:RDF><cc:Work
         rdf:about=""><dc:format>image/svg+xml</dc:format><dc:type
           rdf:resource="http://purl.org/dc/dcmitype/StillImage" /></cc:Work></rdf:RDF></metadata><defs
     id="defs6"><clipPath
       id="clipPath18"><path
         d="M 0,478.691 0,0 l 5275.83,0 0,478.691 -5275.83,0 z"
         inkscape:connector-curvature="0"
         id="path20" /></clipPath></defs><g
     transform="matrix(1.25,0,0,-1.25,0,59.8375)"
     id="g10"><g
       transform="scale(0.1,0.1)"
       id="g12"><g
         id="g14"><g
           clip-path="url(#clipPath18)"
           id="g16"><path
             d="m 928.699,457.637 c -1.086,0.058 -2.117,0.308 -3.238,0.308 l -10.5,0 c -19.168,0 -32.731,-8 -42.633,-24.09 l -28.426,-46.21 -40.05,-65.079 -46.993,-76.375 -25.754,41.954 -69.265,112.871 -19.809,32.265 c -8.636,14.196 -22.851,24.664 -43.254,24.664 l -10.496,0 c -26.547,0 -47.539,-20.988 -47.539,-47.515 l 0,-344.5706 c 0,-11.875 4.418,-22.4219 11.5,-30.5196 8.438,-9.6562 20.742,-15.789 34.828,-15.789 25.942,0 46.918,20.3515 46.918,46.3086 l 0,214.8946 19.16,-29.504 49.981,-77.051 12.992,-20.019 c 9.871,-14.825 22.207,-24.094 39.52,-24.094 17.289,0 29.632,9.269 39.519,24.094 l 83.371,128.437 0,-215.5389 c 0,-25.9258 20.973,-47.5273 46.93,-47.5273 26.551,0 47.531,21.0234 47.531,47.5273 l 0,343.3519 c 0,25.429 -19.332,45.527 -44.293,47.207"
             inkscape:connector-curvature="0"
             id="path22"
             style="fill:#0b0605;fill-opacity:1;fill-rule:nonzero;stroke:none" /><path
             d="m 1266.32,103.562 c -76.56,0 -130.9,61.7 -130.9,135.801 l 0,1.262 c 0,5.027 0.29,9.98 0.77,14.871 2.7,27.551 12.91,52.609 28.9,72.629 10.79,13.484 24.22,24.617 39.77,32.695 17.6,9.141 37.87,14.414 60.21,14.414 29.43,0 55.52,-9.172 76.56,-24.621 24.03,-17.617 41.36,-43.437 49.35,-73.367 3.24,-12.062 5.02,-24.766 5.02,-37.883 l 0,-1.218 c 0,-44.688 -19.41,-84.309 -51.54,-108.809 -21.13,-16.133 -47.75,-25.774 -78.14,-25.774 m 228.72,150.274 c -1.77,31.203 -9.77,60.637 -22.96,87.043 -36.19,72.441 -111.56,122.035 -205.76,122.035 -80.42,0 -147.56,-36.644 -188.23,-92.652 -4.6,-6.317 -8.84,-12.899 -12.74,-19.676 -7.43,-12.957 -13.56,-26.719 -18.25,-41.125 -7.22,-22.078 -11.11,-45.633 -11.11,-70.098 l 0,-1.218 c 0,-122.883 95.71,-222.3052 229.08,-222.3052 65.29,0 121.78,24.129 162.51,63.1446 42.53,40.7106 67.85,97.6176 67.85,160.3786 l 0,1.262 c 0,4.434 -0.16,8.828 -0.39,13.211"
             inkscape:connector-curvature="0"
             id="path24"
             style="fill:#0b0605;fill-opacity:1;fill-rule:nonzero;stroke:none" /><path
             d="m 1822.7,307.91 0,-1.23 c 0,-0.371 -0.05,-0.735 -0.05,-1.094 -0.55,-35.84 -26.99,-60.059 -72.83,-60.059 l -96.32,0 0,124.129 94.46,0 c 27.34,0 48.39,-7.359 61.09,-21.746 8.39,-9.512 13.11,-22.07 13.54,-37.637 0.02,-0.812 0.11,-1.543 0.11,-2.363 m 59.26,103.738 c -10.09,10.09 -22.02,18.45 -35.64,25.192 -24.65,12.148 -54.87,18.672 -90.33,18.672 l -150.05,0 c -26.54,0 -47.55,-21.012 -47.55,-47.543 l 0,-340.8909 c 0,-26.5039 21.01,-47.5273 47.55,-47.5273 26.59,0 47.56,21.0234 47.56,47.5273 l 0,94.5239 75.96,0 92.62,-117.3832 c 11.12,-14.1602 25.29,-24.668 46.92,-24.668 22.86,0 45.06,17.3047 45.06,43.8476 0,14.8047 -6.15,24.7266 -15.41,36.4063 l -63.78,77.5073 -2.3,2.793 c 40.03,16.477 69.21,44.836 80.84,87.512 1.7,6.231 3.08,12.742 4.01,19.61 1.04,7.734 1.58,15.859 1.58,24.394 l 0,1.211 c 0,40.801 -12.96,74.746 -37.04,98.816"
             inkscape:connector-curvature="0"
             id="path26"
             style="fill:#0b0605;fill-opacity:1;fill-rule:nonzero;stroke:none" /><path
             d="m 2319.88,68.125 c -1.5,22.0977 -19.84,39.746 -42.3,39.746 l -195.77,0 0,90.781 164.89,0 c 6.52,0 12.65,1.563 18.2,4.121 14.35,6.688 24.35,20.918 24.35,37.852 0,23.437 -19.09,42.598 -42.55,42.598 l -164.89,0 0,87.675 192.66,0 c 23.45,0 42.65,18.504 42.65,41.973 0,23.453 -19.2,42.637 -42.65,42.637 l -239.57,0 c -26.54,0 -47.54,-21.008 -47.54,-47.539 l 0,-337.1682 c 0,-26.582 21,-47.5586 47.54,-47.5586 l 242.68,0 c 23.43,0 42.6,18.5742 42.6,42.0117 0,0.9766 -0.22,1.8945 -0.3,2.8711"
             inkscape:connector-curvature="0"
             id="path28"
             style="fill:#0b0605;fill-opacity:1;fill-rule:nonzero;stroke:none" /><path
             d="m 452.266,160.918 c -3.719,11.883 -11.614,22.402 -22.969,28.809 -20.219,11.445 -46.383,7.246 -61.985,-9.961 -7.988,-8.828 -12.996,-20.207 -20.609,-29.434 -9.047,-11.113 -20.211,-20.812 -32.301,-28.555 -2.183,-1.406 -4.437,-2.695 -6.707,-3.965 -42.043,-23.6518 -94.703,-23.8198 -137.019,-0.078 -44.84,26.356 -72.8283,74.786 -70.66,127.207 0.968,22.95 7.718,45.039 19.043,64.395 13.734,23.543 34.179,43.086 59.398,55.254 23.391,11.308 48.531,15.312 74.309,13.457 23.039,-1.731 43.629,-14.836 66.519,-4.777 19.442,8.527 31.391,28.976 29.793,49.972 -0.094,1.219 -0.055,2.391 -0.246,3.602 -3.738,24.062 -22.266,37.336 -44.355,43.355 C 237.457,488.531 166.586,476.5 110.074,440.801 85.9219,425.527 64.4961,405.867 47.0273,382.48 39.6133,372.559 32.8281,362.059 26.9883,350.801 20.9492,339.316 16.0859,327.5 12.0859,315.527 -16.4922,229.746 6.69531,134.062 70.3086,69.4531 76.8281,62.8125 83.6328,56.3867 90.9961,50.4492 116.684,29.7852 146.086,15.7617 176.887,7.75391 243.688,-9.60938 317.105,2.37109 375.035,41.8242 c 8.348,5.6758 16.496,11.7383 24.141,18.586 20.187,18.0664 41.707,41.3478 52.039,66.8628 4.39,10.997 4.43,22.883 1.051,33.645"
             inkscape:connector-curvature="0"
             id="path30"
             style="fill:#0b0605;fill-opacity:1;fill-rule:nonzero;stroke:none" /><path
             d="m 239.332,304.258 c -31.613,0 -57.832,-22.969 -62.961,-53.098 -0.601,-3.523 -0.988,-7.098 -0.988,-10.769 0,-35.313 28.66,-63.946 63.949,-63.946 3.34,0 6.59,0.332 9.801,0.84 30.629,4.719 54.121,31.133 54.121,63.106 0,35.254 -28.609,63.867 -63.922,63.867"
             inkscape:connector-curvature="0"
             id="path32"
             style="fill:#0b0605;fill-opacity:1;fill-rule:nonzero;stroke:none" /><path
             d="m 4508.25,434.07 c 0,13.582 11.15,24.703 24.12,24.703 13.62,0 24.73,-11.121 24.73,-24.703 l 0,-170.761 249.91,0 0,170.761 c 0,13.582 11.15,24.703 24.74,24.703 12.97,0 24.14,-11.121 24.14,-24.703 l 0,-389.7262 c 0,-13.6211 -11.17,-24.7266 -24.14,-24.7266 -13.59,0 -24.74,11.1055 -24.74,24.7266 l 0,173.2152 -249.91,0 0,-173.2152 c 0,-13.6211 -11.11,-24.7266 -24.73,-24.7266 -12.97,0 -24.12,11.1055 -24.12,24.7266 l 0,389.7262"
             inkscape:connector-curvature="0"
             id="path34"
             style="fill:#0b0605;fill-opacity:1;fill-rule:nonzero;stroke:none" /><path
             d="m 5045.72,67.8594 c 109.49,0 179.38,74.2386 179.38,170.1096 l 0,1.23 c 0,95.899 -69.89,171.336 -179.38,171.336 l -101.45,0 0,-342.6756 101.45,0 z m -150.3,363.0976 c 0,13.602 11.13,24.727 24.12,24.727 l 126.18,0 c 136.07,0 230.11,-93.387 230.11,-215.262 l 0,-1.223 c 0,-121.894 -94.04,-216.4842 -230.11,-216.4842 l -126.18,0 c -12.99,0 -24.12,11.1211 -24.12,24.7344 l 0,383.5078"
             inkscape:connector-curvature="0"
             id="path36"
             style="fill:#0b0605;fill-opacity:1;fill-rule:nonzero;stroke:none" /><path
             d="m 2489.37,77.5781 c -5.54,3.6914 -9.22,10.4492 -9.22,18.4258 0,13.5271 10.45,23.9651 23.34,23.9651 6.14,0 11.66,-2.469 14.74,-5.535 40.53,-34.3871 81.07,-50.9692 135.72,-50.9692 57.72,0 95.82,30.7149 95.82,73.0782 l 0,1.23 c 0,39.922 -21.49,62.657 -111.79,81.7 -98.87,21.484 -144.33,53.406 -144.33,124.023 l 0,1.25 c 0,67.566 59.58,117.305 141.27,117.305 56.5,0 97.63,-14.133 136.95,-42.395 4.9,-3.679 10.43,-10.437 10.43,-19.648 0,-12.899 -10.43,-23.328 -23.34,-23.328 -5.51,0 -9.8,1.211 -14.11,4.304 -36.24,26.407 -71.24,37.454 -111.16,37.454 -55.89,0 -91.51,-30.723 -91.51,-69.395 l 0,-1.223 c 0,-40.547 22.11,-63.281 116.69,-83.535 95.81,-20.887 140.02,-55.887 140.02,-121.59 l 0,-1.23 c 0,-73.7228 -61.41,-121.6017 -146.79,-121.6017 -62.63,0 -114.83,19.6484 -162.73,57.7148"
             inkscape:connector-curvature="0"
             id="path38"
             style="fill:#050301;fill-opacity:1;fill-rule:nonzero;stroke:none" /><path
             d="m 2991.49,221.922 c 71.24,0 117.92,38.078 117.92,94.57 l 0,1.223 c 0,61.433 -46.06,93.347 -115.47,93.347 l -108.7,0 0,-189.14 106.25,0 z m -154.78,209.414 c 0,13.508 11.07,24.559 23.96,24.559 l 136.96,0 c 97.03,0 160.92,-51.579 160.92,-136.325 l 0,-1.23 c 0,-92.746 -77.39,-140.645 -168.91,-140.645 l -104.4,0 0,-130.195 c 0,-13.5273 -11.05,-24.5703 -24.57,-24.5703 -12.89,0 -23.96,11.043 -23.96,24.5703 l 0,383.836"
             inkscape:connector-curvature="0"
             id="path40"
             style="fill:#050301;fill-opacity:1;fill-rule:nonzero;stroke:none" /><path
             d="m 3575.03,239.727 0,1.23 c 0,97.656 -71.23,177.481 -169.51,177.481 -98.25,0 -168.25,-78.614 -168.25,-176.27 l 0,-1.211 c 0,-97.637 71.23,-177.4922 169.48,-177.4922 98.28,0 168.28,78.6132 168.28,176.2622 m -388.12,0 0,1.23 c 0,118.535 89.04,222.309 219.84,222.309 130.82,0 218.66,-102.563 218.66,-221.098 l 0,-1.211 c 0,-118.547 -89.07,-222.3242 -219.89,-222.3242 -130.8,0 -218.61,102.5662 -218.61,221.0942"
             inkscape:connector-curvature="0"
             id="path42"
             style="fill:#050301;fill-opacity:1;fill-rule:nonzero;stroke:none" /><path
             d="m 3848.73,236.641 c 64.47,0 110.54,33.164 110.54,88.437 l 0,1.25 c 0,52.82 -40.54,84.734 -109.93,84.734 l -132.67,0 0,-174.421 132.06,0 z m -180.57,194.695 c 0,13.512 11.05,24.562 23.96,24.562 l 160.91,0 c 52.8,0 95.19,-15.968 122.2,-42.988 20.9,-20.879 33.17,-50.976 33.17,-84.746 l 0,-1.242 c 0,-70.613 -47.9,-111.777 -114.84,-124.668 L 4000.42,64.7148 c 4.91,-5.5429 7.98,-11.082 7.98,-17.8398 0,-12.9023 -12.27,-23.9453 -24.57,-23.9453 -9.83,0 -17.19,5.5351 -22.72,12.8906 l -120.98,157.2267 -123.46,0 0,-145.547 c 0,-13.5273 -11.05,-24.5703 -24.55,-24.5703 -12.91,0 -23.96,11.043 -23.96,24.5703 l 0,383.836"
             inkscape:connector-curvature="0"
             id="path44"
             style="fill:#050301;fill-opacity:1;fill-rule:nonzero;stroke:none" /><path
             d="m 4149.22,411.062 -124.67,0 c -12.28,0 -22.72,9.825 -22.72,22.102 0,12.289 10.44,22.731 22.72,22.731 l 298.47,0 c 12.29,0 22.74,-10.442 22.74,-22.731 0,-12.277 -10.45,-22.102 -22.74,-22.102 l -124.67,0 0,-363.562 c 0,-13.5273 -11.03,-24.5703 -24.56,-24.5703 -13.52,0 -24.57,11.043 -24.57,24.5703 l 0,363.562"
             inkscape:connector-curvature="0"
             id="path46"
             style="fill:#050301;fill-opacity:1;fill-rule:nonzero;stroke:none" /></g></g></g></g></svg>