<?xml version="1.0" encoding="UTF-8" standalone="no"?>
<!-- Created with Inkscape (http://www.inkscape.org/) -->

<svg
   xmlns:dc="http://purl.org/dc/elements/1.1/"
   xmlns:cc="http://creativecommons.org/ns#"
   xmlns:rdf="http://www.w3.org/1999/02/22-rdf-syntax-ns#"
   xmlns:svg="http://www.w3.org/2000/svg"
   xmlns="http://www.w3.org/2000/svg"
   xmlns:sodipodi="http://sodipodi.sourceforge.net/DTD/sodipodi-0.dtd"
   xmlns:inkscape="http://www.inkscape.org/namespaces/inkscape"
   width="465.19769"
   height="75"
   id="svg10715"
   version="1.1"
   inkscape:version="0.48.0 r9654"
   sodipodi:docname="Neues Dokument 50">
  <defs
     id="defs10717" />
  <sodipodi:namedview
     id="base"
     pagecolor="#ffffff"
     bordercolor="#666666"
     borderopacity="1.0"
     inkscape:pageopacity="0.0"
     inkscape:pageshadow="2"
     inkscape:zoom="0.35"
     inkscape:cx="216.89241"
     inkscape:cy="223.41438"
     inkscape:document-units="px"
     inkscape:current-layer="layer1"
     showgrid="false"
     fit-margin-top="0"
     fit-margin-left="0"
     fit-margin-right="0"
     fit-margin-bottom="0"
     inkscape:window-width="1618"
     inkscape:window-height="1028"
     inkscape:window-x="-8"
     inkscape:window-y="-8"
     inkscape:window-maximized="1" />
  <metadata
     id="metadata10720">
    <rdf:RDF>
      <cc:Work
         rdf:about="">
        <dc:format>image/svg+xml</dc:format>
        <dc:type
           rdf:resource="http://purl.org/dc/dcmitype/StillImage" />
        <dc:title></dc:title>
      </cc:Work>
    </rdf:RDF>
  </metadata>
  <g
     inkscape:label="Ebene 1"
     inkscape:groupmode="layer"
     id="layer1"
     transform="translate(-133.10759,-680.77656)">
    <path
       inkscape:connector-curvature="0"
       d="m 231.04828,752.85234 c -0.31631,0.63152 -0.79626,1.57881 -2.37507,1.57881 l -7.27622,0 c -0.71389,0 -1.5788,-0.63153 -1.5788,-1.57881 0,-0.71389 0.15156,-1.11202 0.39758,-1.5788 l 8.22351,-16.69412 -18.12192,-27.05931 -9.33553,9.96705 11.94399,17.80615 c 0.7139,0.94673 0.87864,1.41406 0.87864,1.89456 0,0.79627 -0.87864,1.51016 -1.90829,1.51016 l -8.22351,0 c -1.18067,0 -1.89456,-0.79626 -2.69083,-1.90829 l -13.83855,-20.01647 15.34871,-16.52938 c 1.0983,-1.27678 2.12796,-1.9083 4.03625,-1.9083 l 8.85502,0 c 1.89457,0 2.92422,0.7139 3.8715,2.22406 l 14.4838,23.02306 10.28281,-23.33882 c 0.47996,-1.1944 1.1944,-1.9083 2.69083,-1.9083 l 7.3586,0 c 0.86436,0 1.66117,0.7139 1.66117,1.59254 0,0.46677 -0.15156,1.01592 -0.48105,1.5788 l -24.20374,51.34541 z m -44.61834,-18.27292 c 0,2.60845 -1.97694,4.11861 -4.11862,4.11861 l -6.24656,0 c -0.7139,0 -1.57881,-0.71389 -1.57881,-1.90829 l 0,-51.82592 c 0,-3.15761 1.57881,-4.18726 4.35201,-4.18726 l 5.61504,0 c 1.18067,0 1.97694,0.79627 1.97694,1.89456 l 0,51.9083 z m -26.51016,-19.78309 c 7.52334,1.74355 11.07908,5.61505 11.07908,12.02636 0,6.56233 -4.50302,11.87534 -15.26634,11.87534 l -20.41461,0 c -1.0291,0 -1.49643,-0.71389 -1.49643,-1.90829 l 0,-3.8715 c 0,-2.22405 1.18067,-4.03624 4.10489,-4.03624 l 18.43767,0 c 2.05931,0 2.84185,-0.94674 2.84185,-1.66118 0,-1.11202 -0.78199,-1.82592 -3.23998,-2.37507 l -11.7106,-2.52608 c -7.27622,-1.59253 -11.14772,-5.5464 -11.14772,-11.64196 0,-6.96046 4.81878,-12.34212 14.07194,-12.34212 l 20.49698,0 c 1.11202,0 1.89456,0.7139 1.89456,1.9083 l 0,3.87149 c 0,2.21033 -1.18067,4.11862 -4.18726,4.11862 l -17.72378,0 c -2.37506,0 -3.08896,0.78199 -3.08896,1.49643 0,1.18067 0.7139,1.66118 3.40472,2.2927 l 11.94399,2.7732"
       style="fill:#231f20;fill-opacity:1;fill-rule:nonzero;stroke:none"
       id="path7027" />
    <path
       inkscape:connector-curvature="0"
       d="m 281.51506,739.43938 c -5.71115,0 -10.54366,-2.49862 -13.83855,-5.62877 -0.53597,-0.53597 -0.81055,-0.97529 -0.81055,-1.68864 0,-1.34541 0.98847,-2.14168 2.14168,-2.14168 0.53597,0 1.16695,0.16475 1.70237,0.70072 2.75947,2.51235 6.34267,4.47556 10.98297,4.47556 6.1642,0 9.28062,-2.85557 9.28062,-7.05656 0,-4.20099 -2.75948,-5.72488 -7.57826,-7.31741 l -4.83251,-1.61999 c -5.88962,-1.96321 -9.73366,-4.5442 -9.73366,-10.44755 0,-6.96047 5.5464,-10.17299 12.50687,-10.17299 3.92641,0 7.23503,0.97529 10.09061,2.95168 0.89181,0.61724 1.24931,1.24931 1.24931,2.04558 0,1.16694 -0.71389,2.23778 -2.14168,2.23778 -0.4525,0 -0.89182,-0.17902 -1.34542,-0.4525 -2.49862,-1.42779 -4.36573,-2.49863 -7.67435,-2.49863 -4.37946,0 -7.50961,1.70236 -7.50961,5.71115 0,2.95168 1.52389,4.65404 5.80725,6.08182 l 4.83251,1.60626 c 6.32894,2.14168 11.42229,4.73641 11.42229,11.69687 0,6.87809 -6.24656,11.5184 -14.55244,11.5184"
       style="fill:#231f20;fill-opacity:1;fill-rule:nonzero;stroke:none"
       id="path7031" />
    <path
       inkscape:connector-curvature="0"
       d="m 335.53757,718.98359 c 0,-8.7452 -4.10488,-15.98023 -12.23229,-15.98023 -7.59198,0 -13.12465,7.13893 -13.12465,15.98023 0,8.8413 5.53267,15.98023 13.12465,15.98023 8.12741,0 12.23229,-7.22131 12.23229,-15.98023 z m -30.5464,-17.50412 c 0,-1.42779 1.16694,-2.581 2.59473,-2.581 1.42779,0 2.59473,1.15321 2.59473,2.581 l 0,5.17573 c 2.75947,-4.90116 7.49588,-8.1274 13.74245,-8.1274 10.00823,0 16.79022,8.75892 16.79022,20.45579 0,11.69687 -6.78199,20.45579 -16.79022,20.45579 -6.24657,0 -10.98298,-3.22625 -13.74245,-8.1274 l 0,21.86985 c 0,1.42779 -1.16694,2.59473 -2.59473,2.59473 -1.42779,0 -2.59473,-1.16694 -2.59473,-2.59473 l 0,-51.70236"
       style="fill:#231f20;fill-opacity:1;fill-rule:nonzero;stroke:none"
       id="path7035" />
    <path
       inkscape:connector-curvature="0"
       d="m 379.46948,718.98359 c 0,-8.56672 -4.91488,-15.98023 -12.76771,-15.98023 -7.86656,0 -12.76771,7.41351 -12.76771,15.98023 0,8.56672 4.90115,15.98023 12.76771,15.98023 7.85283,0 12.76771,-7.41351 12.76771,-15.98023 z m -30.71115,0 c 0,-10.62603 6.68589,-20.45579 17.94344,-20.45579 11.24382,0 17.94344,9.82976 17.94344,20.45579 0,10.62603 -6.69962,20.45579 -17.94344,20.45579 -11.25755,0 -17.94344,-9.82976 -17.94344,-20.45579"
       style="fill:#231f20;fill-opacity:1;fill-rule:nonzero;stroke:none"
       id="path7039" />
    <path
       inkscape:connector-curvature="0"
       d="m 411.62214,703.71725 -0.0988,0 c -7.13894,0 -10.98298,7.31741 -10.98298,17.22955 l 0,15.54091 c 0,1.34541 -1.07084,2.59473 -2.581,2.59473 -1.52389,0 -2.59473,-1.24932 -2.59473,-2.59473 l 0,-35.00824 c 0,-1.51016 1.07084,-2.581 2.59473,-2.581 1.51016,0 2.581,1.07084 2.581,2.581 l 0,6.52114 c 1.16639,-5.09335 5.62823,-9.10214 10.98243,-9.10214 l 0.1922,0 c 1.51016,0 2.49863,0.79627 2.49863,2.32015 0,1.42779 -0.89182,2.49863 -2.59473,2.49863"
       style="fill:#231f20;fill-opacity:1;fill-rule:nonzero;stroke:none"
       id="path7043" />
    <path
       inkscape:connector-curvature="0"
       d="m 430.2932,728.89573 c 0,2.93794 0.98847,4.99725 4.20099,4.99725 l 2.14168,0 c 1.33169,0 2.22405,0.98847 2.22405,2.23778 0,1.33169 -1.07084,2.22405 -2.22405,2.22405 l -2.32015,0 c -7.33114,0 -9.19825,-4.00878 -9.19825,-9.63756 l 0,-24.82152 -5.36793,0 c -1.15321,0 -2.14168,-0.98847 -2.14168,-2.14169 0,-1.16694 0.98847,-2.14168 2.14168,-2.14168 l 5.36793,0 0,-13.49533 c 0,-1.51016 1.07084,-2.581 2.581,-2.581 1.52389,0 2.59473,1.07084 2.59473,2.581 l 0,13.49533 7.31741,0 c 1.16694,0 2.14168,0.97529 2.14168,2.14168 0,1.15322 -0.97529,2.14169 -2.14168,2.14169 l -7.31741,0 0,25"
       style="fill:#231f20;fill-opacity:1;fill-rule:nonzero;stroke:none"
       id="path7047" />
    <path
       inkscape:connector-curvature="0"
       d="m 460.20808,739.01379 c -1.30422,0 -2.36134,-1.05766 -2.36134,-2.36134 l 0,-50.82372 c 0,-1.30423 1.05657,-2.36134 2.36134,-2.36134 1.30423,0 2.36134,1.05656 2.36134,2.36134 l 0,22.47391 27.60846,0 0,-22.47391 c 0,-1.30423 1.05656,-2.36134 2.36134,-2.36134 1.30423,0 2.36134,1.05656 2.36134,2.36134 l 0,50.82372 c 0,1.30423 -1.05766,2.36134 -2.36134,2.36134 -1.30423,0 -2.36134,-1.05766 -2.36134,-2.36134 l 0,-24.10763 -27.60846,0 0,24.10763 c 0,1.30423 -1.05656,2.36134 -2.36134,2.36134"
       style="fill:#231f20;fill-opacity:1;fill-rule:nonzero;stroke:none"
       id="path7051" />
    <path
       inkscape:connector-curvature="0"
       d="m 522.09716,688.35481 -9.44536,0 0,45.77156 9.44536,0 c 13.68753,0 19.46732,-10.74959 19.46732,-22.88578 0,-12.13619 -5.77979,-22.88578 -19.46732,-22.88578 z m 0.32949,50 -12.05382,0 c -1.3866,0 -2.44371,-1.05656 -2.44371,-2.36134 l 0,-49.51949 c 0,-1.2905 1.05656,-2.34761 2.36134,-2.34761 l 12.05381,0 c 15.80176,0 23.94289,11.72433 23.94289,27.11422 0,15.3899 -8.14113,27.11422 -23.86051,27.11422"
       style="fill:#231f20;fill-opacity:1;fill-rule:nonzero;stroke:none"
       id="path7055" />
    <path
       inkscape:connector-curvature="0"
       d="m 596.19106,738.36854 -27.93795,0 c -2.03185,0 -3.50082,-1.13948 -3.50082,-3.08896 0,-2.04558 1.55135,-3.18506 2.85557,-4.55793 l 14.49753,-15.40363 c 5.69742,-6.02691 9.9396,-11.07908 9.9396,-17.83361 0,-5.77979 -3.43218,-10.17298 -10.18671,-10.17298 -4.39319,0 -7.24877,1.86711 -10.18671,4.39319 -0.47996,0.39759 -0.97529,0.6458 -1.61999,0.6458 -1.13949,0 -2.12795,-0.89292 -2.12795,-2.03185 0,-0.6458 0.16474,-1.05656 0.65897,-1.63372 2.92422,-3.17133 7.33114,-5.53267 13.27568,-5.53267 9.36298,0 14.90939,5.94453 14.90939,14.33278 0,8.22351 -6.27403,15.55464 -11.07908,20.44207 l -15.88413,16.29599 26.3866,0 c 1.22186,0 2.11422,0.80944 2.11422,2.03185 0,1.22185 -0.97528,2.11422 -2.11422,2.11422"
       style="fill:#231f20;fill-opacity:1;fill-rule:nonzero;stroke:none"
       id="path7059" />
  </g>
</svg>
