<?xml version="1.0" encoding="UTF-8" ?>
<!DOCTYPE svg PUBLIC "-//W3C//DTD SVG 1.1//EN" "http://www.w3.org/Graphics/SVG/1.1/DTD/svg11.dtd">
<svg width="650pt" height="264pt" viewBox="0 0 650 264" version="1.1" xmlns="http://www.w3.org/2000/svg">
<g id="#fd3200fe">
<path fill="#fd3200" opacity="1.00" d=" M 191.73 0.00 L 458.20 0.00 C 458.48 43.43 458.20 86.87 458.35 130.31 C 369.47 130.20 280.58 130.29 191.70 130.26 C 191.60 86.84 191.59 43.42 191.73 0.00 M 225.68 24.96 C 225.79 52.58 225.66 80.20 225.75 107.82 C 257.83 107.76 289.91 107.82 322.00 107.79 C 329.68 107.49 337.33 108.64 345.00 107.81 C 370.89 107.80 396.78 107.75 422.68 107.84 C 423.54 102.27 423.20 96.62 423.26 91.00 C 423.28 69.99 423.21 48.97 423.30 27.96 C 423.32 25.78 422.80 23.65 422.45 21.52 C 357.23 21.65 292.02 21.56 226.81 21.58 C 225.93 22.53 225.55 23.66 225.68 24.96 Z" />
<path fill="#fd3200" opacity="1.00" d=" M 230.50 25.69 C 246.00 25.56 261.50 25.69 277.00 25.63 C 281.48 25.68 286.04 25.21 290.43 26.36 C 290.08 52.16 290.24 77.97 290.35 103.77 C 270.33 103.88 250.31 103.76 230.29 103.82 C 230.56 77.78 230.11 51.73 230.50 25.69 M 239.57 38.56 C 239.37 41.92 239.35 45.28 239.47 48.64 C 244.41 48.70 249.34 48.64 254.28 48.62 C 254.54 63.13 254.28 77.65 254.45 92.17 C 258.23 92.22 262.01 92.23 265.79 92.18 C 266.76 77.67 265.81 63.09 266.32 48.55 C 271.11 48.71 275.90 48.64 280.69 48.67 C 281.58 45.30 281.46 41.80 280.60 38.45 C 266.92 38.46 253.24 38.21 239.57 38.56 Z" />
<path fill="#fd3200" opacity="1.00" d=" M 294.47 26.27 C 298.58 25.31 302.82 25.66 307.00 25.63 C 320.33 25.63 333.67 25.66 347.01 25.61 C 349.55 25.58 352.08 25.76 354.59 26.19 C 354.20 52.05 354.43 77.92 354.51 103.79 C 334.47 103.79 314.44 103.89 294.41 103.75 C 294.54 77.92 294.44 52.10 294.47 26.27 M 299.80 37.75 C 302.55 46.31 307.03 54.17 310.47 62.45 C 315.21 72.68 319.26 83.25 324.66 93.15 C 332.63 74.85 341.01 56.73 348.89 38.39 C 345.13 37.68 340.87 36.96 337.26 38.25 C 332.24 47.15 329.30 57.15 324.35 66.12 C 319.68 56.77 316.15 46.89 311.30 37.63 C 307.47 37.71 303.63 37.65 299.80 37.75 Z" />
<path fill="#fd3200" opacity="1.00" d=" M 358.58 26.43 C 361.01 25.92 363.48 25.49 365.98 25.58 C 383.52 25.81 401.07 25.41 418.61 25.78 C 418.42 51.77 418.42 77.78 418.58 103.77 C 398.58 103.81 378.58 103.90 358.58 103.72 C 358.70 77.96 358.73 52.19 358.58 26.43 M 371.69 38.44 C 371.64 56.35 371.64 74.26 371.71 92.17 C 375.27 92.23 378.84 92.22 382.41 92.19 C 382.48 86.71 382.42 81.22 382.48 75.74 C 388.84 76.19 395.66 74.96 400.48 70.51 C 405.74 66.15 407.48 58.64 406.03 52.14 C 404.35 45.47 398.38 40.50 391.84 38.91 C 385.19 37.85 378.39 38.62 371.69 38.44 Z" />
<path fill="#fd3200" opacity="1.00" d=" M 382.60 48.53 C 387.09 48.70 393.13 48.65 395.34 53.42 C 396.16 56.94 396.22 61.54 392.87 63.81 C 390.00 66.36 385.99 65.44 382.51 65.53 C 382.47 59.86 382.38 54.20 382.60 48.53 Z" />
<path fill="#fd3200" opacity="1.00" d=" M 42.03 181.26 C 50.97 180.09 60.00 180.49 69.00 180.42 C 77.66 180.47 86.33 180.29 94.98 180.74 C 102.40 181.58 110.43 181.86 116.79 186.27 C 119.58 188.04 121.46 190.82 123.14 193.60 C 117.34 196.95 111.39 200.04 105.34 202.91 C 103.18 201.18 101.16 198.87 98.25 198.53 C 87.59 196.88 76.75 197.61 66.00 197.43 C 56.69 197.61 47.26 196.88 38.08 198.75 C 32.77 199.86 28.95 206.05 30.79 211.21 C 33.64 212.63 36.89 212.65 40.00 212.77 C 51.34 212.99 62.68 212.71 74.01 212.89 C 81.80 213.64 89.65 213.05 97.44 213.76 C 103.95 214.68 110.88 216.53 115.59 221.40 C 120.53 227.18 118.85 235.51 117.05 242.21 C 115.36 249.10 110.62 255.03 104.30 258.25 C 97.71 262.10 89.87 262.05 82.68 264.00 L 31.50 264.00 C 25.69 262.41 19.51 262.36 13.90 259.98 C 8.11 257.95 2.49 254.07 0.82 247.84 C 6.74 245.11 12.67 242.38 18.74 239.98 C 21.91 243.47 26.03 246.30 30.92 246.33 C 45.26 247.02 59.64 246.49 74.00 246.64 C 80.61 246.44 87.81 247.31 93.76 243.81 C 97.50 241.14 97.76 236.11 97.81 231.92 C 94.25 231.25 90.67 230.56 87.03 230.58 C 71.36 230.47 55.69 230.72 40.02 230.36 C 33.72 230.04 27.38 229.32 21.34 227.47 C 16.00 225.69 10.82 221.57 9.84 215.74 C 8.60 207.66 10.87 199.16 15.60 192.54 C 21.76 184.53 32.42 181.93 42.03 181.26 Z" />
<path fill="#fd3200" opacity="1.00" d=" M 268.67 193.60 C 276.04 184.01 288.79 180.95 300.30 180.54 C 320.21 180.37 340.13 180.34 360.04 180.54 C 369.23 180.95 379.95 182.09 385.99 189.96 C 391.97 198.04 389.52 208.71 387.44 217.72 C 385.09 226.32 384.33 235.45 380.41 243.56 C 377.57 250.18 372.40 255.72 365.85 258.78 C 359.89 262.02 353.00 262.30 346.57 264.00 L 282.16 264.00 C 272.92 262.37 261.59 260.60 257.04 251.15 C 253.66 242.64 255.93 233.21 257.88 224.62 C 260.58 214.04 261.63 202.44 268.67 193.60 M 297.41 197.60 C 291.49 198.04 284.96 201.42 283.34 207.52 C 281.30 214.77 280.09 222.22 278.29 229.53 C 277.42 233.98 275.60 238.45 276.59 243.04 C 279.71 246.46 284.72 246.54 289.01 246.62 C 305.67 246.70 322.34 246.63 339.00 246.66 C 344.44 246.61 350.16 246.80 355.18 244.36 C 358.77 242.41 361.35 238.83 362.19 234.84 C 363.66 228.33 365.21 221.83 366.53 215.28 C 367.46 210.90 368.99 206.51 368.48 201.96 C 366.45 197.82 361.11 197.47 357.04 197.47 C 337.17 197.49 317.28 197.23 297.41 197.60 Z" />
<path fill="#fd3200" opacity="1.00" d=" M 145.81 181.53 C 173.89 181.40 201.98 181.50 230.06 181.47 C 237.18 181.61 245.44 182.81 249.94 188.99 C 253.41 194.51 252.85 201.49 251.35 207.56 C 249.54 214.04 247.87 221.07 243.07 226.06 C 237.01 231.24 228.93 233.71 221.03 233.78 C 213.38 234.62 205.68 234.14 198.00 234.26 C 183.71 234.36 169.42 234.06 155.14 234.40 C 153.41 243.83 150.99 253.12 149.15 262.53 C 142.16 262.72 135.17 262.62 128.18 262.62 C 128.34 260.37 128.46 258.11 129.00 255.91 C 134.72 231.14 140.14 206.31 145.81 181.53 M 163.53 198.31 C 162.08 204.65 160.34 210.93 159.28 217.35 C 178.20 217.60 197.12 217.43 216.04 217.44 C 220.14 217.52 224.66 216.57 227.70 213.69 C 230.13 209.49 230.61 204.43 230.78 199.66 C 227.09 197.93 222.95 198.31 219.00 198.26 C 200.51 198.30 182.02 198.16 163.53 198.31 Z" />
<path fill="#fd3200" opacity="1.00" d=" M 412.81 181.48 C 439.89 181.45 466.97 181.47 494.05 181.47 C 500.86 181.37 507.83 182.27 514.06 185.15 C 518.03 187.05 520.88 190.84 521.61 195.19 C 522.41 202.73 520.63 210.24 518.20 217.34 C 516.80 221.46 513.80 224.79 510.49 227.50 C 507.46 229.77 503.69 230.60 500.35 232.25 C 500.18 232.64 499.84 233.42 499.67 233.82 C 503.54 243.46 507.69 253.00 511.87 262.52 C 504.21 262.78 496.55 262.64 488.90 262.54 C 485.34 253.04 481.30 243.73 477.35 234.38 C 459.13 234.15 440.88 234.07 422.66 234.42 C 420.61 243.81 418.39 253.16 416.33 262.54 C 409.29 262.67 402.24 262.66 395.20 262.58 C 395.45 257.59 397.22 252.88 398.14 248.01 C 402.85 225.79 408.27 203.73 412.81 181.48 M 430.78 198.34 C 429.31 204.50 427.75 210.65 426.70 216.90 C 429.43 217.38 432.21 217.44 434.99 217.41 C 451.67 217.33 468.36 217.46 485.05 217.35 C 489.28 216.86 494.21 216.48 497.34 213.25 C 499.64 209.20 500.23 204.40 500.44 199.82 C 493.79 197.89 486.83 198.40 480.00 198.25 C 463.59 198.31 447.19 198.15 430.78 198.34 Z" />
<path fill="#fd3200" opacity="1.00" d=" M 535.04 181.50 C 573.36 181.45 611.68 181.43 650.00 181.51 L 650.00 182.78 C 648.17 187.60 647.19 192.67 646.04 197.68 C 630.38 199.00 614.61 197.79 598.91 198.41 C 598.45 203.44 596.97 208.28 595.96 213.21 C 592.39 229.68 588.37 246.04 585.09 262.57 C 578.07 262.67 571.04 262.65 564.02 262.59 C 564.26 259.44 564.71 256.32 565.46 253.25 C 569.72 234.96 573.64 216.60 577.82 198.29 C 562.34 198.16 546.87 198.34 531.39 198.23 C 532.18 192.56 533.59 187.02 535.04 181.50 Z" />
</g>
</svg>
