<?xml version="1.0" encoding="UTF-8" standalone="yes"?>
<svg xmlns="http://www.w3.org/2000/svg" xmlns:xlink="http://www.w3.org/1999/xlink" width="426.66666666666663px" height="106.66666666666666px" viewBox="0 0 320 80" version="1.1">
  <g id="surface1">
    <path style=" stroke:none;fill-rule:nonzero;fill:rgb(100%,100%,100%);fill-opacity:1;" d="M 11.011719 13.6875 C 18.480469 13.5625 25.953125 13.636719 33.425781 13.652344 C 33.382812 16.121094 33.371094 18.589844 33.433594 21.054688 C 29.679688 21.242188 25.933594 22.71875 23.050781 25.125 C 18.671875 28.398438 15.820312 33.851562 15.933594 39.34375 C 15.84375 39.503906 15.660156 39.820312 15.570312 39.980469 C 15.640625 40.191406 15.785156 40.621094 15.855469 40.832031 C 15.84375 47.667969 20.125 54.105469 26.144531 57.207031 C 28.425781 58.261719 30.878906 59.167969 33.425781 59.113281 C 33.378906 61.386719 33.382812 63.667969 33.425781 65.945312 C 26.414062 66.007812 19.40625 65.953125 12.402344 65.976562 C 10.65625 66.214844 8.660156 64.644531 8.820312 62.804688 C 8.828125 47.597656 8.816406 32.382812 8.824219 17.175781 C 8.769531 16.398438 8.976562 15.625 9.539062 15.058594 C 9.191406 16 8.835938 16.964844 8.878906 17.984375 C 8.910156 32.789062 8.867188 47.59375 8.898438 62.394531 C 8.855469 64.277344 10.527344 65.96875 12.425781 65.890625 C 19.332031 65.914062 26.242188 65.90625 33.15625 65.890625 C 33.167969 63.730469 33.152344 61.574219 33.171875 59.414062 C 27.339844 58.859375 21.777344 55.621094 18.65625 50.625 C 14.425781 44.269531 14.546875 35.390625 18.941406 29.152344 C 19.78125 27.796875 21.019531 26.765625 21.953125 25.480469 C 22.285156 25.3125 22.621094 25.144531 22.953125 24.980469 C 25.769531 22.542969 29.445312 21.183594 33.132812 20.882812 C 33.1875 18.492188 33.152344 16.101562 33.15625 13.707031 C 26.363281 13.679688 19.570312 13.703125 12.78125 13.691406 C 11.722656 13.632812 10.800781 14.191406 9.910156 14.6875 C 10.304688 14.382812 10.699219 14.078125 11.011719 13.6875 Z M 11.011719 13.6875 "/>
    <path style=" stroke:none;fill-rule:nonzero;fill:rgb(100%,100%,100%);fill-opacity:1;" d="M 35.800781 13.652344 C 126.128906 13.59375 216.460938 13.648438 306.792969 13.628906 C 308.574219 13.324219 310.085938 14.808594 310.742188 16.316406 C 310.824219 31.671875 310.757812 47.03125 310.78125 62.386719 C 310.988281 64.089844 309.449219 65.269531 308.125 65.992188 C 217.359375 65.953125 126.59375 65.976562 35.824219 65.980469 C 35.808594 63.824219 35.835938 61.671875 35.804688 59.515625 C 35.910156 59.421875 36.132812 59.226562 36.242188 59.132812 C 37.871094 59.207031 39.433594 58.640625 40.96875 58.179688 C 45.53125 56.710938 48.976562 53.085938 51.527344 49.183594 C 48.648438 54.992188 42.539062 58.855469 36.132812 59.410156 C 36.15625 61.574219 36.148438 63.742188 36.140625 65.90625 C 126.351562 65.898438 216.5625 65.902344 306.78125 65.902344 C 308.199219 65.964844 309.664062 65.152344 310.246094 63.828125 C 310.859375 62.644531 310.632812 61.269531 310.667969 59.984375 C 310.644531 45.855469 310.675781 31.722656 310.652344 17.597656 C 310.710938 15.800781 309.277344 14.242188 307.605469 13.792969 C 306.410156 13.609375 305.199219 13.703125 304.003906 13.691406 C 214.71875 13.707031 125.4375 13.679688 36.15625 13.703125 C 36.144531 16.09375 36.140625 18.476562 36.15625 20.863281 C 41.097656 21.210938 45.824219 23.621094 49.050781 27.371094 C 54.253906 33.167969 55.375 42.285156 51.566406 49.105469 C 51.691406 48.160156 52.214844 47.34375 52.539062 46.460938 C 53.925781 42.648438 53.996094 38.433594 52.835938 34.550781 C 51.914062 32.136719 50.90625 29.648438 49.105469 27.742188 C 47.605469 26.246094 46.183594 24.570312 44.238281 23.644531 C 41.757812 22.019531 38.757812 21.207031 35.800781 21.042969 C 35.828125 18.578125 35.832031 16.117188 35.800781 13.652344 Z M 35.800781 13.652344 "/>
    <path style=" stroke:none;fill-rule:nonzero;fill:rgb(100%,100%,100%);fill-opacity:1;" d="M 60.46875 17.78125 C 142.484375 17.839844 224.503906 17.746094 306.519531 17.824219 C 306.503906 32.492188 306.472656 47.15625 306.535156 61.820312 C 285.96875 61.949219 265.394531 61.839844 244.828125 61.875 C 183.371094 61.878906 121.910156 61.867188 60.457031 61.878906 C 60.46875 47.179688 60.445312 32.480469 60.46875 17.78125 M 191.59375 22.5 C 191.445312 24.949219 191.5625 27.398438 191.527344 29.851562 C 188.382812 29.933594 185.023438 29.40625 182.117188 30.902344 C 179.667969 32.054688 178.125 34.558594 177.664062 37.164062 C 177.070312 40.351562 177.394531 43.929688 179.394531 46.589844 C 181.019531 48.746094 183.738281 49.871094 186.402344 49.886719 C 189.96875 49.921875 193.527344 49.894531 197.09375 49.894531 C 197.058594 40.769531 197.058594 31.640625 197.074219 22.515625 C 195.246094 22.503906 193.421875 22.523438 191.59375 22.5 M 202.058594 22.503906 C 202.054688 24.234375 202.0625 25.96875 202.050781 27.699219 C 203.929688 27.714844 205.804688 27.722656 207.683594 27.691406 C 207.667969 25.960938 207.730469 24.226562 207.632812 22.5 C 205.773438 22.519531 203.914062 22.511719 202.058594 22.503906 M 236.597656 22.578125 C 236.671875 24.289062 236.636719 26 236.652344 27.710938 C 238.53125 27.6875 240.414062 27.765625 242.296875 27.660156 C 242.257812 25.945312 242.273438 24.226562 242.285156 22.511719 C 240.386719 22.535156 238.488281 22.441406 236.597656 22.578125 M 287.726562 22.507812 C 287.734375 31.640625 287.742188 40.773438 287.722656 49.898438 C 289.59375 49.90625 291.464844 49.871094 293.335938 49.9375 C 293.480469 40.820312 293.28125 31.699219 293.4375 22.585938 C 291.535156 22.433594 289.628906 22.542969 287.726562 22.507812 M 163.121094 22.539062 C 163.152344 24.980469 163.183594 27.421875 163.125 29.859375 C 161.9375 29.839844 160.753906 29.839844 159.5625 29.847656 C 159.535156 31.273438 159.539062 32.695312 159.554688 34.121094 C 160.753906 34.128906 161.945312 34.128906 163.140625 34.121094 C 163.132812 37.144531 163.128906 40.164062 163.132812 43.1875 C 163.199219 44.578125 163.289062 46.027344 163.894531 47.304688 C 164.566406 48.714844 166 49.789062 167.585938 49.855469 C 169.699219 49.949219 171.816406 49.863281 173.933594 49.894531 C 173.941406 48.480469 174.128906 47.0625 173.980469 45.648438 C 172.636719 45.632812 171.273438 45.800781 169.949219 45.503906 C 169.210938 45.40625 168.546875 44.753906 168.574219 43.992188 C 168.507812 40.703125 168.59375 37.414062 168.539062 34.128906 C 170.320312 34.128906 172.101562 34.101562 173.882812 34.160156 C 174.054688 32.730469 174.078125 31.296875 174.050781 29.859375 C 172.222656 29.832031 170.394531 29.851562 168.566406 29.851562 C 168.574219 27.40625 168.535156 24.964844 168.566406 22.519531 C 166.753906 22.519531 164.9375 22.5 163.121094 22.539062 M 250.234375 22.507812 C 250.265625 24.949219 250.261719 27.386719 250.253906 29.828125 C 249.054688 29.824219 247.855469 29.824219 246.660156 29.828125 C 246.664062 31.265625 246.664062 32.699219 246.660156 34.140625 C 247.855469 34.140625 249.050781 34.140625 250.246094 34.136719 C 250.253906 37.554688 250.214844 40.972656 250.261719 44.390625 C 250.269531 46.785156 251.667969 49.484375 254.246094 49.832031 C 256.515625 50 258.800781 49.859375 261.070312 49.902344 C 261.054688 48.472656 261.054688 47.039062 261.070312 45.609375 C 259.355469 45.453125 256.945312 46.273438 255.796875 44.585938 C 255.46875 41.125 255.753906 37.613281 255.65625 34.132812 C 257.441406 34.148438 259.222656 34.117188 261.011719 34.175781 C 261.105469 32.722656 261.070312 31.269531 261.054688 29.8125 C 259.246094 29.835938 257.445312 29.855469 255.636719 29.808594 C 255.695312 27.382812 255.632812 24.957031 255.667969 22.53125 C 253.855469 22.484375 252.042969 22.507812 250.234375 22.507812 M 127.355469 29.835938 C 122.941406 31.03125 119.546875 35.375 119.757812 40 C 119.761719 44.6875 123.445312 48.949219 128.003906 49.863281 C 132.132812 50.855469 136.757812 48.996094 139.09375 45.457031 C 141.121094 42.523438 141.421875 38.519531 139.816406 35.328125 C 137.683594 30.824219 132.121094 28.378906 127.355469 29.835938 M 75.773438 32.175781 C 74.601562 33.390625 74.066406 35.238281 74.558594 36.867188 C 75.039062 38.710938 76.617188 40.109375 78.355469 40.761719 C 80.90625 41.746094 83.699219 41.320312 86.367188 41.433594 C 87.597656 41.507812 88.605469 42.804688 88.265625 44.023438 C 88.039062 45.226562 86.6875 45.792969 85.570312 45.691406 C 81.921875 45.675781 78.273438 45.71875 74.621094 45.664062 C 74.585938 47.050781 74.609375 48.445312 74.539062 49.832031 C 78.5 49.976562 82.46875 49.867188 86.4375 49.890625 C 89.488281 49.9375 92.773438 47.996094 93.382812 44.84375 C 94 42.132812 92.316406 39.3125 89.816406 38.253906 C 87.214844 36.996094 84.277344 37.667969 81.511719 37.394531 C 80.457031 37.3125 79.488281 36.238281 79.816406 35.15625 C 80.226562 34.136719 81.410156 33.851562 82.40625 33.898438 C 85.789062 33.914062 89.167969 33.878906 92.546875 33.925781 C 92.570312 32.554688 92.566406 31.1875 92.566406 29.824219 C 89.046875 29.832031 85.523438 29.824219 82.003906 29.824219 C 79.746094 29.8125 77.328125 30.449219 75.773438 32.175781 M 97.113281 29.855469 C 97.125 39.003906 97.121094 48.152344 97.125 57.300781 C 98.964844 57.3125 100.8125 57.300781 102.65625 57.3125 C 102.675781 54.839844 102.644531 52.367188 102.671875 49.894531 C 105.738281 49.777344 108.992188 50.351562 111.871094 49.007812 C 114.230469 47.980469 115.878906 45.714844 116.449219 43.234375 C 117.203125 39.871094 116.972656 36.019531 114.84375 33.179688 C 113.164062 30.941406 110.324219 29.890625 107.59375 29.847656 C 104.101562 29.835938 100.605469 29.835938 97.113281 29.855469 M 145.234375 32.0625 C 143.800781 33.828125 143.347656 36.179688 143.339844 38.402344 C 143.320312 42.234375 143.359375 46.066406 143.320312 49.902344 C 145.183594 49.898438 147.046875 49.921875 148.910156 49.882812 C 148.902344 45.78125 148.867188 41.675781 148.929688 37.570312 C 148.90625 36.105469 149.738281 34.421875 151.328125 34.199219 C 153.097656 34.054688 154.878906 34.175781 156.65625 34.148438 C 156.652344 32.703125 156.652344 31.265625 156.664062 29.824219 C 154.433594 29.832031 152.199219 29.824219 149.972656 29.820312 C 148.144531 29.730469 146.398438 30.707031 145.234375 32.0625 M 202.039062 29.847656 C 201.984375 36.527344 202.078125 43.21875 202.058594 49.90625 C 203.925781 49.898438 205.789062 49.898438 207.65625 49.898438 C 207.71875 43.21875 207.664062 36.535156 207.683594 29.851562 C 205.800781 29.835938 203.921875 29.835938 202.039062 29.847656 M 213.667969 33.257812 C 211.648438 36.023438 211.453125 39.710938 212.152344 42.964844 C 212.679688 45.484375 214.261719 47.851562 216.628906 48.976562 C 219.632812 50.453125 223.070312 49.738281 226.285156 49.894531 C 226.292969 50.476562 226.214844 51.042969 226.058594 51.601562 C 225.382812 52.179688 224.464844 52.140625 223.632812 52.148438 C 220.449219 52.128906 217.261719 52.152344 214.074219 52.128906 C 214.074219 53.511719 214.074219 54.894531 214.074219 56.28125 C 217.78125 56.253906 221.488281 56.304688 225.191406 56.261719 C 227.199219 56.207031 229.421875 55.554688 230.574219 53.785156 C 231.929688 51.570312 231.78125 48.878906 231.726562 46.390625 C 231.6875 40.871094 231.738281 35.351562 231.734375 29.828125 C 228.226562 29.824219 224.714844 29.824219 221.203125 29.824219 C 218.367188 29.800781 215.371094 30.894531 213.667969 33.257812 M 236.644531 29.84375 C 236.671875 36.539062 236.585938 43.234375 236.6875 49.933594 C 238.550781 49.875 240.414062 49.910156 242.285156 49.898438 C 242.222656 43.199219 242.355469 36.5 242.214844 29.804688 C 240.359375 29.871094 238.5 29.835938 236.644531 29.84375 M 264.996094 34.179688 C 268.65625 34.113281 272.316406 34.128906 275.972656 34.160156 C 277.667969 34.214844 278.351562 36.042969 278.742188 37.410156 C 275.425781 37.546875 272.097656 37.382812 268.78125 37.488281 C 265.886719 37.652344 263.890625 40.484375 263.8125 43.214844 C 263.523438 46.132812 265.351562 49.554688 268.496094 49.867188 C 273.667969 49.960938 278.84375 49.859375 284.015625 49.914062 C 284.027344 45.3125 284.234375 40.683594 283.882812 36.089844 C 283.648438 32.820312 280.820312 30.195312 277.609375 29.925781 C 273.402344 29.675781 269.183594 29.957031 264.976562 29.785156 C 264.867188 31.246094 264.910156 32.714844 264.996094 34.179688 Z M 264.996094 34.179688 "/>
    <path style=" stroke:none;fill-rule:nonzero;fill:rgb(100%,100%,100%);fill-opacity:1;" d="M 29.628906 24.144531 C 30.882812 23.792969 32.097656 23.277344 33.4375 23.472656 C 33.445312 27.511719 33.46875 31.550781 33.433594 35.589844 C 33.476562 36.335938 32.503906 36.429688 32.042969 36.789062 C 32.671875 36.292969 33.445312 35.738281 33.273438 34.820312 C 33.246094 31.113281 33.324219 27.398438 33.214844 23.695312 C 31.984375 23.859375 30.742188 23.988281 29.542969 24.328125 Z M 29.628906 24.144531 "/>
    <path style=" stroke:none;fill-rule:nonzero;fill:rgb(100%,100%,100%);fill-opacity:1;" d="M 35.8125 23.453125 C 36.230469 23.523438 37.066406 23.664062 37.488281 23.734375 C 37.144531 23.734375 36.457031 23.734375 36.113281 23.734375 C 36.191406 27.824219 36.035156 31.914062 36.195312 36.003906 C 38.949219 36.992188 40.050781 40.769531 38.113281 43 C 38.324219 42.421875 38.578125 41.859375 38.828125 41.296875 C 38.792969 40.507812 38.773438 39.71875 38.769531 38.933594 C 38.246094 37.554688 37.195312 36.53125 35.816406 36.027344 C 35.820312 31.835938 35.828125 27.644531 35.8125 23.453125 Z M 35.8125 23.453125 "/>
    <path style=" stroke:none;fill-rule:nonzero;fill:rgb(100%,100%,100%);fill-opacity:1;" d="M 38.929688 23.992188 C 40.953125 24.515625 43.007812 25.351562 44.5625 26.789062 C 42.820312 25.59375 40.84375 24.847656 38.929688 23.992188 Z M 38.929688 23.992188 "/>
    <path style=" stroke:none;fill-rule:nonzero;fill:rgb(100%,100%,100%);fill-opacity:1;" d="M 18.007812 39.597656 C 18.191406 32.878906 22.832031 26.195312 29.402344 24.371094 C 27.375 25.226562 25.367188 26.226562 23.765625 27.769531 C 19.511719 31.472656 17.425781 37.46875 18.4375 43.011719 C 18.753906 45.785156 20.210938 48.199219 21.550781 50.578125 C 19.105469 47.503906 17.835938 43.527344 18.007812 39.597656 Z M 18.007812 39.597656 "/>
    <path style=" stroke:none;fill-rule:nonzero;fill:rgb(100%,100%,100%);fill-opacity:1;" d="M 44.6875 26.890625 C 48.28125 29.304688 50.34375 33.394531 51.230469 37.53125 C 51.269531 39.15625 51.261719 40.78125 51.253906 42.402344 C 50.832031 45.027344 49.902344 47.554688 48.449219 49.78125 C 45.816406 53.539062 41.660156 56.21875 37.09375 56.839844 L 37.367188 56.761719 C 41.152344 55.863281 44.800781 54.011719 47.273438 50.941406 C 50.839844 46.804688 51.972656 40.863281 50.53125 35.640625 C 49.613281 32.15625 47.351562 29.238281 44.6875 26.890625 Z M 44.6875 26.890625 "/>
    <path style=" stroke:none;fill-rule:nonzero;fill:rgb(100%,100%,100%);fill-opacity:1;" d="M 102.640625 34.210938 C 104.488281 34.226562 106.355469 34.042969 108.1875 34.320312 C 110.488281 35.113281 111.324219 37.804688 111.320312 40.015625 C 111.285156 42.210938 110.390625 44.929688 108.039062 45.574219 C 106.261719 45.871094 104.445312 45.636719 102.648438 45.710938 C 102.636719 41.875 102.6875 38.042969 102.640625 34.210938 Z M 102.640625 34.210938 "/>
    <path style=" stroke:none;fill-rule:nonzero;fill:rgb(100%,100%,100%);fill-opacity:1;" d="M 128.585938 34.238281 C 131.785156 32.726562 135.144531 36.027344 135.113281 39.199219 C 135.484375 41.996094 133.746094 45.191406 130.824219 45.683594 C 128.476562 46.011719 126.378906 44.148438 125.71875 42.003906 C 124.761719 39.199219 125.765625 35.546875 128.585938 34.238281 Z M 128.585938 34.238281 "/>
    <path style=" stroke:none;fill-rule:nonzero;fill:rgb(100%,100%,100%);fill-opacity:1;" d="M 182.960938 40.015625 C 182.882812 37.785156 183.734375 35.050781 186.035156 34.238281 C 187.855469 33.984375 189.707031 34.175781 191.539062 34.117188 C 191.535156 37.929688 191.523438 41.742188 191.53125 45.554688 C 189.6875 45.5 187.828125 45.707031 186 45.425781 C 183.8125 44.683594 182.96875 42.121094 182.960938 40.015625 Z M 182.960938 40.015625 "/>
    <path style=" stroke:none;fill-rule:nonzero;fill:rgb(100%,100%,100%);fill-opacity:1;" d="M 219.695312 34.507812 C 221.789062 33.746094 224.097656 34.3125 226.28125 34.136719 C 226.273438 37.9375 226.246094 41.734375 226.292969 45.53125 C 224.332031 45.515625 222.363281 45.664062 220.414062 45.4375 C 218.355469 44.957031 217.1875 42.785156 216.988281 40.816406 C 216.699219 38.472656 217.441406 35.648438 219.695312 34.507812 Z M 219.695312 34.507812 "/>
    <path style=" stroke:none;fill-rule:nonzero;fill:rgb(100%,100%,100%);fill-opacity:1;" d="M 30.777344 42.289062 C 29.816406 40.699219 30.09375 38.457031 31.507812 37.222656 C 30.425781 38.691406 30.171875 40.5625 30.777344 42.289062 Z M 30.777344 42.289062 "/>
    <path style=" stroke:none;fill-rule:nonzero;fill:rgb(100%,100%,100%);fill-opacity:1;" d="M 269.394531 43.195312 C 269.546875 42.140625 270.632812 41.460938 271.644531 41.425781 C 273.96875 41.339844 276.296875 41.414062 278.625 41.390625 C 278.609375 42.773438 278.609375 44.148438 278.636719 45.527344 C 276.296875 45.539062 273.957031 45.605469 271.621094 45.503906 C 270.433594 45.527344 269.160156 44.460938 269.394531 43.195312 Z M 269.394531 43.195312 "/>
    <path style=" stroke:none;fill-rule:nonzero;fill:rgb(100%,100%,100%);fill-opacity:1;" d="M 30.804688 42.339844 C 31.722656 42.921875 32.238281 44.21875 33.449219 44.21875 C 33.445312 48.5 33.449219 52.78125 33.445312 57.058594 C 32.976562 57.023438 32.519531 56.929688 32.074219 56.773438 C 32.363281 56.746094 32.941406 56.695312 33.226562 56.671875 C 33.277344 52.714844 33.328125 48.757812 33.210938 44.804688 C 32.492188 43.90625 31.277344 43.460938 30.804688 42.339844 Z M 30.804688 42.339844 "/>
    <path style=" stroke:none;fill-rule:nonzero;fill:rgb(100%,100%,100%);fill-opacity:1;" d="M 22.203125 51.0625 C 22.910156 51.390625 23.449219 51.960938 23.765625 52.671875 C 23.027344 52.851562 21.988281 51.800781 22.203125 51.0625 Z M 22.203125 51.0625 "/>
    <path style=" stroke:none;fill-rule:nonzero;fill:rgb(0%,21.960784%,41.960784%);fill-opacity:1;" d="M 9.910156 14.6875 C 10.800781 14.191406 11.722656 13.632812 12.78125 13.691406 C 19.570312 13.703125 26.363281 13.679688 33.15625 13.707031 C 33.152344 16.101562 33.1875 18.492188 33.132812 20.882812 C 29.445312 21.183594 25.769531 22.542969 22.953125 24.980469 C 22.621094 25.144531 22.285156 25.3125 21.953125 25.480469 C 21.019531 26.765625 19.78125 27.796875 18.941406 29.152344 C 14.546875 35.390625 14.425781 44.269531 18.65625 50.625 C 21.777344 55.621094 27.339844 58.859375 33.171875 59.414062 C 33.152344 61.574219 33.167969 63.730469 33.15625 65.890625 C 26.242188 65.90625 19.332031 65.914062 12.425781 65.890625 C 10.527344 65.96875 8.855469 64.277344 8.898438 62.394531 C 8.867188 47.59375 8.910156 32.789062 8.878906 17.984375 C 8.835938 16.964844 9.191406 16 9.539062 15.058594 L 9.617188 14.851562 Z M 9.910156 14.6875 "/>
    <path style=" stroke:none;fill-rule:nonzero;fill:rgb(0%,21.960784%,41.960784%);fill-opacity:1;" d="M 36.15625 13.703125 C 125.4375 13.679688 214.71875 13.707031 304.003906 13.691406 C 305.199219 13.703125 306.410156 13.609375 307.605469 13.792969 C 309.277344 14.242188 310.710938 15.800781 310.652344 17.597656 C 310.675781 31.722656 310.644531 45.855469 310.667969 59.984375 C 310.632812 61.269531 310.859375 62.644531 310.246094 63.828125 C 309.664062 65.152344 308.199219 65.964844 306.78125 65.902344 C 216.5625 65.902344 126.351562 65.898438 36.140625 65.90625 C 36.148438 63.742188 36.15625 61.574219 36.132812 59.410156 C 42.539062 58.855469 48.648438 54.992188 51.527344 49.183594 L 51.566406 49.105469 C 55.375 42.285156 54.253906 33.167969 49.050781 27.371094 C 45.824219 23.621094 41.097656 21.210938 36.15625 20.863281 C 36.140625 18.476562 36.144531 16.09375 36.15625 13.703125 M 60.46875 17.78125 C 60.445312 32.480469 60.46875 47.179688 60.457031 61.878906 C 121.910156 61.867188 183.371094 61.878906 244.828125 61.875 C 265.394531 61.839844 285.96875 61.949219 306.535156 61.820312 C 306.472656 47.15625 306.503906 32.492188 306.519531 17.824219 C 224.503906 17.746094 142.484375 17.839844 60.46875 17.78125 Z M 60.46875 17.78125 "/>
    <path style=" stroke:none;fill-rule:nonzero;fill:rgb(0%,21.960784%,41.960784%);fill-opacity:1;" d="M 163.121094 22.539062 C 164.9375 22.5 166.753906 22.519531 168.566406 22.519531 C 168.535156 24.964844 168.574219 27.40625 168.566406 29.851562 C 170.394531 29.851562 172.222656 29.832031 174.050781 29.859375 C 174.078125 31.296875 174.054688 32.730469 173.882812 34.160156 C 172.101562 34.101562 170.320312 34.128906 168.539062 34.128906 C 168.59375 37.414062 168.507812 40.703125 168.574219 43.992188 C 168.546875 44.753906 169.210938 45.40625 169.949219 45.503906 C 171.273438 45.800781 172.636719 45.632812 173.980469 45.648438 C 174.128906 47.0625 173.941406 48.480469 173.933594 49.894531 C 171.816406 49.863281 169.699219 49.949219 167.585938 49.855469 C 166 49.789062 164.566406 48.714844 163.894531 47.304688 C 163.289062 46.027344 163.199219 44.578125 163.132812 43.1875 C 163.128906 40.164062 163.132812 37.144531 163.140625 34.121094 C 161.945312 34.128906 160.753906 34.128906 159.554688 34.121094 C 159.539062 32.695312 159.535156 31.273438 159.5625 29.847656 C 160.753906 29.839844 161.9375 29.839844 163.125 29.859375 C 163.183594 27.421875 163.152344 24.980469 163.121094 22.539062 Z M 163.121094 22.539062 "/>
    <path style=" stroke:none;fill-rule:nonzero;fill:rgb(0%,21.960784%,41.960784%);fill-opacity:1;" d="M 127.355469 29.835938 C 132.121094 28.378906 137.683594 30.824219 139.816406 35.328125 C 141.421875 38.519531 141.121094 42.523438 139.09375 45.457031 C 136.757812 48.996094 132.132812 50.855469 128.003906 49.863281 C 123.445312 48.949219 119.761719 44.6875 119.757812 40 C 119.546875 35.375 122.941406 31.03125 127.355469 29.835938 M 128.585938 34.238281 C 125.765625 35.546875 124.761719 39.199219 125.71875 42.003906 C 126.378906 44.148438 128.476562 46.011719 130.824219 45.683594 C 133.746094 45.191406 135.484375 41.996094 135.113281 39.199219 C 135.144531 36.027344 131.785156 32.726562 128.585938 34.238281 Z M 128.585938 34.238281 "/>
    <path style=" stroke:none;fill-rule:nonzero;fill:rgb(0%,21.960784%,41.960784%);fill-opacity:1;" d="M 75.773438 32.175781 C 77.328125 30.449219 79.746094 29.8125 82.003906 29.824219 C 85.523438 29.824219 89.046875 29.832031 92.566406 29.824219 C 92.566406 31.1875 92.570312 32.554688 92.546875 33.925781 C 89.167969 33.878906 85.789062 33.914062 82.40625 33.898438 C 81.410156 33.851562 80.226562 34.136719 79.816406 35.15625 C 79.488281 36.238281 80.457031 37.3125 81.511719 37.394531 C 84.277344 37.667969 87.214844 36.996094 89.816406 38.253906 C 92.316406 39.3125 94 42.132812 93.382812 44.84375 C 92.773438 47.996094 89.488281 49.9375 86.4375 49.890625 C 82.46875 49.867188 78.5 49.976562 74.539062 49.832031 C 74.609375 48.445312 74.585938 47.050781 74.621094 45.664062 C 78.273438 45.71875 81.921875 45.675781 85.570312 45.691406 C 86.6875 45.792969 88.039062 45.226562 88.265625 44.023438 C 88.605469 42.804688 87.597656 41.507812 86.367188 41.433594 C 83.699219 41.320312 80.90625 41.746094 78.355469 40.761719 C 76.617188 40.109375 75.039062 38.710938 74.558594 36.867188 C 74.066406 35.238281 74.601562 33.390625 75.773438 32.175781 Z M 75.773438 32.175781 "/>
    <path style=" stroke:none;fill-rule:nonzero;fill:rgb(0%,21.960784%,41.960784%);fill-opacity:1;" d="M 97.113281 29.855469 C 100.605469 29.835938 104.101562 29.835938 107.59375 29.847656 C 110.324219 29.890625 113.164062 30.941406 114.84375 33.179688 C 116.972656 36.019531 117.203125 39.871094 116.449219 43.234375 C 115.878906 45.714844 114.230469 47.980469 111.871094 49.007812 C 108.992188 50.351562 105.738281 49.777344 102.671875 49.894531 C 102.644531 52.367188 102.675781 54.839844 102.65625 57.3125 C 100.8125 57.300781 98.964844 57.3125 97.125 57.300781 C 97.121094 48.152344 97.125 39.003906 97.113281 29.855469 M 102.640625 34.210938 C 102.6875 38.042969 102.636719 41.875 102.648438 45.710938 C 104.445312 45.636719 106.261719 45.871094 108.039062 45.574219 C 110.390625 44.929688 111.285156 42.210938 111.320312 40.015625 C 111.324219 37.804688 110.488281 35.113281 108.1875 34.320312 C 106.355469 34.042969 104.488281 34.226562 102.640625 34.210938 Z M 102.640625 34.210938 "/>
    <path style=" stroke:none;fill-rule:nonzero;fill:rgb(0%,21.960784%,41.960784%);fill-opacity:1;" d="M 145.234375 32.0625 C 146.398438 30.707031 148.144531 29.730469 149.972656 29.820312 C 152.199219 29.824219 154.433594 29.832031 156.664062 29.824219 C 156.652344 31.265625 156.652344 32.703125 156.65625 34.148438 C 154.878906 34.175781 153.097656 34.054688 151.328125 34.199219 C 149.738281 34.421875 148.90625 36.105469 148.929688 37.570312 C 148.867188 41.675781 148.902344 45.78125 148.910156 49.882812 C 147.046875 49.921875 145.183594 49.898438 143.320312 49.902344 C 143.359375 46.066406 143.320312 42.234375 143.339844 38.402344 C 143.347656 36.179688 143.800781 33.828125 145.234375 32.0625 Z M 145.234375 32.0625 "/>
    <path style=" stroke:none;fill-rule:nonzero;fill:rgb(0.392157%,70.196078%,75.686275%);fill-opacity:1;" d="M 191.59375 22.5 C 193.421875 22.523438 195.246094 22.503906 197.074219 22.515625 C 197.058594 31.640625 197.058594 40.769531 197.09375 49.894531 C 193.527344 49.894531 189.96875 49.921875 186.402344 49.886719 C 183.738281 49.871094 181.019531 48.746094 179.394531 46.589844 C 177.394531 43.929688 177.070312 40.351562 177.664062 37.164062 C 178.125 34.558594 179.667969 32.054688 182.117188 30.902344 C 185.023438 29.40625 188.382812 29.933594 191.527344 29.851562 C 191.5625 27.398438 191.445312 24.949219 191.59375 22.5 M 182.960938 40.015625 C 182.96875 42.121094 183.8125 44.683594 186 45.425781 C 187.828125 45.707031 189.6875 45.5 191.53125 45.554688 C 191.523438 41.742188 191.535156 37.929688 191.539062 34.117188 C 189.707031 34.175781 187.855469 33.984375 186.035156 34.238281 C 183.734375 35.050781 182.882812 37.785156 182.960938 40.015625 Z M 182.960938 40.015625 "/>
    <path style=" stroke:none;fill-rule:nonzero;fill:rgb(0.392157%,70.196078%,75.686275%);fill-opacity:1;" d="M 202.058594 22.503906 C 203.914062 22.511719 205.773438 22.519531 207.632812 22.5 C 207.730469 24.226562 207.667969 25.960938 207.683594 27.691406 C 205.804688 27.722656 203.929688 27.714844 202.050781 27.699219 C 202.0625 25.96875 202.054688 24.234375 202.058594 22.503906 Z M 202.058594 22.503906 "/>
    <path style=" stroke:none;fill-rule:nonzero;fill:rgb(0.392157%,70.196078%,75.686275%);fill-opacity:1;" d="M 236.597656 22.578125 C 238.488281 22.441406 240.386719 22.535156 242.285156 22.511719 C 242.273438 24.226562 242.257812 25.945312 242.296875 27.660156 C 240.414062 27.765625 238.53125 27.6875 236.652344 27.710938 C 236.636719 26 236.671875 24.289062 236.597656 22.578125 Z M 236.597656 22.578125 "/>
    <path style=" stroke:none;fill-rule:nonzero;fill:rgb(0.392157%,70.196078%,75.686275%);fill-opacity:1;" d="M 287.726562 22.507812 C 289.628906 22.542969 291.535156 22.433594 293.4375 22.585938 C 293.28125 31.699219 293.480469 40.820312 293.335938 49.9375 C 291.464844 49.871094 289.59375 49.90625 287.722656 49.898438 C 287.742188 40.773438 287.734375 31.640625 287.726562 22.507812 Z M 287.726562 22.507812 "/>
    <path style=" stroke:none;fill-rule:nonzero;fill:rgb(0.392157%,70.196078%,75.686275%);fill-opacity:1;" d="M 250.234375 22.507812 C 252.042969 22.507812 253.855469 22.484375 255.667969 22.53125 C 255.632812 24.957031 255.695312 27.382812 255.636719 29.808594 C 257.445312 29.855469 259.246094 29.835938 261.054688 29.8125 C 261.070312 31.269531 261.105469 32.722656 261.011719 34.175781 C 259.222656 34.117188 257.441406 34.148438 255.65625 34.132812 C 255.753906 37.613281 255.46875 41.125 255.796875 44.585938 C 256.945312 46.273438 259.355469 45.453125 261.070312 45.609375 C 261.054688 47.039062 261.054688 48.472656 261.070312 49.902344 C 258.800781 49.859375 256.515625 50 254.246094 49.832031 C 251.667969 49.484375 250.269531 46.785156 250.261719 44.390625 C 250.214844 40.972656 250.253906 37.554688 250.246094 34.136719 C 249.050781 34.140625 247.855469 34.140625 246.660156 34.140625 C 246.664062 32.699219 246.664062 31.265625 246.660156 29.828125 C 247.855469 29.824219 249.054688 29.824219 250.253906 29.828125 C 250.261719 27.386719 250.265625 24.949219 250.234375 22.507812 Z M 250.234375 22.507812 "/>
    <path style=" stroke:none;fill-rule:nonzero;fill:rgb(0.392157%,70.196078%,75.686275%);fill-opacity:1;" d="M 29.542969 24.328125 C 30.742188 23.988281 31.984375 23.859375 33.214844 23.695312 C 33.324219 27.398438 33.246094 31.113281 33.273438 34.820312 C 33.445312 35.738281 32.671875 36.292969 32.042969 36.789062 C 31.90625 36.894531 31.644531 37.117188 31.507812 37.222656 C 30.09375 38.457031 29.816406 40.699219 30.777344 42.289062 L 30.804688 42.339844 C 31.277344 43.460938 32.492188 43.90625 33.210938 44.804688 C 33.328125 48.757812 33.277344 52.714844 33.226562 56.671875 C 32.941406 56.695312 32.363281 56.746094 32.074219 56.773438 C 31.71875 56.765625 31.363281 56.746094 31.007812 56.722656 C 28.953125 56.171875 27 55.277344 25.207031 54.128906 C 24.632812 53.753906 24.089844 53.289062 23.765625 52.671875 C 23.449219 51.960938 22.910156 51.390625 22.203125 51.0625 C 22.039062 50.945312 21.714844 50.699219 21.550781 50.578125 C 20.210938 48.199219 18.753906 45.785156 18.4375 43.011719 C 17.425781 37.46875 19.511719 31.472656 23.765625 27.769531 C 25.367188 26.226562 27.375 25.226562 29.402344 24.371094 Z M 29.542969 24.328125 "/>
    <path style=" stroke:none;fill-rule:nonzero;fill:rgb(0.392157%,70.196078%,75.686275%);fill-opacity:1;" d="M 37.488281 23.734375 C 37.847656 23.742188 38.203125 23.765625 38.5625 23.789062 L 38.929688 23.992188 C 40.84375 24.847656 42.820312 25.59375 44.5625 26.789062 L 44.6875 26.890625 C 47.351562 29.238281 49.613281 32.15625 50.53125 35.640625 C 51.972656 40.863281 50.839844 46.804688 47.273438 50.941406 C 44.800781 54.011719 41.152344 55.863281 37.367188 56.761719 C 37.097656 56.707031 36.550781 56.609375 36.277344 56.558594 C 36.171875 52.636719 36.292969 48.710938 36.21875 44.789062 C 36.859375 44.269531 37.503906 43.742188 38.03125 43.105469 L 38.113281 43 C 40.050781 40.769531 38.949219 36.992188 36.195312 36.003906 C 36.035156 31.914062 36.191406 27.824219 36.113281 23.734375 C 36.457031 23.734375 37.144531 23.734375 37.488281 23.734375 Z M 37.488281 23.734375 "/>
    <path style=" stroke:none;fill-rule:nonzero;fill:rgb(0.392157%,70.196078%,75.686275%);fill-opacity:1;" d="M 202.039062 29.847656 C 203.921875 29.835938 205.800781 29.835938 207.683594 29.851562 C 207.664062 36.535156 207.71875 43.21875 207.65625 49.898438 C 205.789062 49.898438 203.925781 49.898438 202.058594 49.90625 C 202.078125 43.21875 201.984375 36.527344 202.039062 29.847656 Z M 202.039062 29.847656 "/>
    <path style=" stroke:none;fill-rule:nonzero;fill:rgb(0.392157%,70.196078%,75.686275%);fill-opacity:1;" d="M 213.667969 33.257812 C 215.371094 30.894531 218.367188 29.800781 221.203125 29.824219 C 224.714844 29.824219 228.226562 29.824219 231.734375 29.828125 C 231.738281 35.351562 231.6875 40.871094 231.726562 46.390625 C 231.78125 48.878906 231.929688 51.570312 230.574219 53.785156 C 229.421875 55.554688 227.199219 56.207031 225.191406 56.261719 C 221.488281 56.304688 217.78125 56.253906 214.074219 56.28125 C 214.074219 54.894531 214.074219 53.511719 214.074219 52.128906 C 217.261719 52.152344 220.449219 52.128906 223.632812 52.148438 C 224.464844 52.140625 225.382812 52.179688 226.058594 51.601562 C 226.214844 51.042969 226.292969 50.476562 226.285156 49.894531 C 223.070312 49.738281 219.632812 50.453125 216.628906 48.976562 C 214.261719 47.851562 212.679688 45.484375 212.152344 42.964844 C 211.453125 39.710938 211.648438 36.023438 213.667969 33.257812 M 219.695312 34.507812 C 217.441406 35.648438 216.699219 38.472656 216.988281 40.816406 C 217.1875 42.785156 218.355469 44.957031 220.414062 45.4375 C 222.363281 45.664062 224.332031 45.515625 226.292969 45.53125 C 226.246094 41.734375 226.273438 37.9375 226.28125 34.136719 C 224.097656 34.3125 221.789062 33.746094 219.695312 34.507812 Z M 219.695312 34.507812 "/>
    <path style=" stroke:none;fill-rule:nonzero;fill:rgb(0.392157%,70.196078%,75.686275%);fill-opacity:1;" d="M 236.644531 29.84375 C 238.5 29.835938 240.359375 29.871094 242.214844 29.804688 C 242.355469 36.5 242.222656 43.199219 242.285156 49.898438 C 240.414062 49.910156 238.550781 49.875 236.6875 49.933594 C 236.585938 43.234375 236.671875 36.539062 236.644531 29.84375 Z M 236.644531 29.84375 "/>
    <path style=" stroke:none;fill-rule:nonzero;fill:rgb(0.392157%,70.196078%,75.686275%);fill-opacity:1;" d="M 264.996094 34.179688 C 264.910156 32.714844 264.867188 31.246094 264.976562 29.785156 C 269.183594 29.957031 273.402344 29.675781 277.609375 29.925781 C 280.820312 30.195312 283.648438 32.820312 283.882812 36.089844 C 284.234375 40.683594 284.027344 45.3125 284.015625 49.914062 C 278.84375 49.859375 273.667969 49.960938 268.496094 49.867188 C 265.351562 49.554688 263.523438 46.132812 263.8125 43.214844 C 263.890625 40.484375 265.886719 37.652344 268.78125 37.488281 C 272.097656 37.382812 275.425781 37.546875 278.742188 37.410156 C 278.351562 36.042969 277.667969 34.214844 275.972656 34.160156 C 272.316406 34.128906 268.65625 34.113281 264.996094 34.179688 M 269.394531 43.195312 C 269.160156 44.460938 270.433594 45.527344 271.621094 45.503906 C 273.957031 45.605469 276.296875 45.539062 278.636719 45.527344 C 278.609375 44.148438 278.609375 42.773438 278.625 41.390625 C 276.296875 41.414062 273.96875 41.339844 271.644531 41.425781 C 270.632812 41.460938 269.546875 42.140625 269.394531 43.195312 Z M 269.394531 43.195312 "/>
    <path style=" stroke:none;fill-rule:nonzero;fill:rgb(56.078431%,75.294118%,81.176471%);fill-opacity:1;" d="M 35.828125 44.355469 C 36.605469 44.019531 37.3125 43.542969 38.03125 43.105469 C 37.503906 43.742188 36.859375 44.269531 36.21875 44.789062 C 36.292969 48.710938 36.171875 52.636719 36.277344 56.558594 C 36.550781 56.609375 37.097656 56.707031 37.367188 56.761719 L 37.09375 56.839844 C 36.671875 56.796875 36.261719 56.738281 35.84375 56.671875 C 36.132812 54.191406 35.941406 51.6875 35.988281 49.199219 C 35.953125 47.65625 36.121094 46.101562 35.863281 44.570312 Z M 35.828125 44.355469 "/>
    <path style=" stroke:none;fill-rule:nonzero;fill:rgb(23.529412%,38.431373%,51.372549%);fill-opacity:0.901961;" d="M 35.773438 44.480469 L 35.863281 44.570312 C 36.121094 46.101562 35.953125 47.65625 35.988281 49.199219 C 35.941406 51.6875 36.132812 54.191406 35.84375 56.671875 C 36.261719 56.738281 36.671875 56.796875 37.09375 56.839844 C 36.703125 57.140625 36.210938 57.164062 35.746094 57.230469 C 35.53125 54.429688 35.667969 51.613281 35.640625 48.800781 C 35.691406 47.363281 35.5 45.902344 35.773438 44.480469 Z M 35.773438 44.480469 "/>
  </g>
</svg>