<?xml version="1.0" encoding="UTF-8" standalone="no"?>
<!-- Created with Inkscape (http://www.inkscape.org/) -->

<svg
   xmlns:dc="http://purl.org/dc/elements/1.1/"
   xmlns:cc="http://creativecommons.org/ns#"
   xmlns:rdf="http://www.w3.org/1999/02/22-rdf-syntax-ns#"
   xmlns:svg="http://www.w3.org/2000/svg"
   xmlns="http://www.w3.org/2000/svg"
   xmlns:inkscape="http://www.inkscape.org/namespaces/inkscape"
   version="1.1"
   width="1488.1875"
   height="1052.3625"
   id="svg2"
   xml:space="preserve"><metadata
     id="metadata8"><rdf:RDF><cc:Work
         rdf:about=""><dc:format>image/svg+xml</dc:format><dc:type
           rdf:resource="http://purl.org/dc/dcmitype/StillImage" /></cc:Work></rdf:RDF></metadata><defs
     id="defs6"><clipPath
       id="clipPath18"><path
         d="m 0,841.89 1190.55,0 L 1190.55,0 0,0 0,841.89 z"
         inkscape:connector-curvature="0"
         id="path20" /></clipPath></defs><g
     transform="matrix(1.25,0,0,-1.25,0,1052.3625)"
     id="g10"><path
       d="m 456.818,369.566 -102.099,0 0,102.099 102.099,0 0,-102.099 z"
       inkscape:connector-curvature="0"
       id="path12"
       style="fill:#00e7ff;fill-opacity:1;fill-rule:nonzero;stroke:none" /><g
       id="g14"><g
         clip-path="url(#clipPath18)"
         id="g16"><g
           transform="translate(397.6382,445.3545)"
           id="g22"><path
             d="m 0,0 c 4.228,3.359 9.34,3.792 10.085,3.844 l 0,7.605 C 7.651,11.477 5.224,11.121 2.859,10.387 -0.836,9.25 -4.221,7.233 -7.206,4.399 c -7.184,-6.823 -7.197,-16.182 -7.16,-17.511 l 15.832,0 -7.041,5.205 C -5.459,-7.459 -4.321,-3.426 0,0"
             inkscape:connector-curvature="0"
             id="path24"
             style="fill:#ffffff;fill-opacity:1;fill-rule:nonzero;stroke:none" /></g><g
           transform="translate(430.6309,398.3506)"
           id="g26"><path
             d="m 0,0 -25.537,0 -14.306,-7.793 33.443,0 6.396,-7.503 0,15.134 0,0.159"
             inkscape:connector-curvature="0"
             id="path28"
             style="fill:#ffffff;fill-opacity:1;fill-rule:nonzero;stroke:none" /></g><g
           transform="translate(424.7129,432.3564)"
           id="g30"><path
             d="m 0,0 c 0,9.302 -7.606,16.842 -16.989,16.842 l 0,-7.756 c 5.061,0 9.165,-4.071 9.165,-9.086 0,-1.816 -0.546,-3.501 -1.466,-4.925 -0.458,-0.628 -1.064,-1.314 -1.884,-2.105 l -11.444,-8.848 c -8.748,-6.572 -13.625,-13.697 -14.01,-14.242 -1.486,-2.093 -3.197,-5.109 -4.5,-8.542 -1.438,-3.784 -2.278,-7.459 -2.376,-10.379 l 9.576,7.234 c 0.119,0.486 1.314,4.948 5.691,10.126 4.6,5.454 8.222,8.143 11.133,10.308 0.65,0.481 1.271,0.941 1.857,1.397 0.448,0.346 1.125,0.832 1.901,1.391 2.007,1.443 4.864,3.509 7.204,5.623 C -2.393,-9.875 0,-5.218 0,0"
             inkscape:connector-curvature="0"
             id="path32"
             style="fill:#ffffff;fill-opacity:1;fill-rule:nonzero;stroke:none" /></g><g
           transform="translate(482.519,403.9561)"
           id="g34"><path
             d="m 0,0 5.168,7.082 c 3.33,-2.55 7.011,-4.885 12.889,-4.885 4.249,0 7.503,2.192 7.503,5.662 0,3.753 -2.76,5.382 -6.514,7.012 l -6.796,2.832 c -6.588,2.691 -9.983,7.08 -9.983,13.523 0,8.075 6.371,14.87 16.71,14.87 5.736,0 10.903,-1.556 15.224,-5.168 l -5.242,-7.01 c -3.325,2.479 -6.581,4.318 -10.408,4.318 -4.105,0 -6.654,-1.839 -6.654,-5.523 0,-3.257 2.621,-4.885 6.654,-6.584 l 5.807,-2.55 C 31.583,20.465 35.687,15.792 35.687,9.56 35.687,-0.495 27.189,-6.087 17.63,-6.087 10.902,-6.087 4.744,-4.461 0,0"
             inkscape:connector-curvature="0"
             id="path36"
             style="fill:#00e7ff;fill-opacity:1;fill-rule:nonzero;stroke:none" /></g><g
           transform="translate(544.8433,410.5547)"
           id="g38"><path
             d="m 0,0 0,13.666 c 0,3.397 -1.487,5.45 -5.17,5.45 -3.328,0 -6.3,-2.974 -6.3,-8.213 l 0,-8.85 c 0,-4.816 3.47,-7.719 6.584,-7.719 C -1.983,-5.666 0,-4.037 0,0 m -20.817,25.562 8.994,0 0,-5.737 0.141,0 c 2.335,4.462 6.796,6.655 10.409,6.655 7.292,0 10.62,-5.38 10.62,-11.824 l 0,-14.515 c 0,-6.938 -4.462,-12.604 -11.614,-12.604 -3.255,0 -7.434,1.841 -9.06,5.382 l -0.143,0 0,-17.137 -9.347,0 0,49.78 z"
             inkscape:connector-curvature="0"
             id="path40"
             style="fill:#00e7ff;fill-opacity:1;fill-rule:nonzero;stroke:none" /></g><g
           transform="translate(581.4565,411.4717)"
           id="g42"><path
             d="m 0,0 0,12.037 c 0,3.538 -1.911,6.229 -5.735,6.229 -4.039,0 -5.665,-2.903 -5.665,-6.511 l 0,-11.827 c 0,-3.752 1.771,-6.232 5.805,-6.232 C -1.484,-6.304 0,-3.544 0,0 m -20.817,0.283 0,11.045 c 0,9.417 6.939,14.091 15.011,14.091 8.072,0 15.224,-4.108 15.224,-13.878 l 0,-11.117 c 0,-9.772 -7.222,-13.877 -15.082,-13.877 -8.143,0 -15.153,3.893 -15.153,13.736"
             inkscape:connector-curvature="0"
             id="path44"
             style="fill:#00e7ff;fill-opacity:1;fill-rule:nonzero;stroke:none" /></g><g
           transform="translate(597.4941,435.8896)"
           id="g46"><path
             d="m 0,0 9.063,0 0,-5.948 0.07,0 c 2.124,4.249 4.674,6.374 8.992,6.374 0.78,0 2.197,-0.07 3.187,-0.283 l 0,-8.427 c -1.697,0.213 -2.833,0.213 -3.54,0.213 -3.256,0 -8.355,-1.346 -8.428,-7.151 l 0,-21.952 -9.344,0 L 0,0 z"
             inkscape:connector-curvature="0"
             id="path48"
             style="fill:#00e7ff;fill-opacity:1;fill-rule:nonzero;stroke:none" /></g><g
           transform="translate(629.0137,407.1973)"
           id="g50"><path
             d="m 0,0 0,21.24 -5.168,0 0,7.505 5.168,0 0,9.841 9.488,0 0,-9.841 8.428,0 0,-7.505 -8.428,0 0,-18.336 c 0,-2.125 0.916,-3.399 3.608,-3.399 1.418,0 2.621,0.213 3.898,0.495 l 0,-7.506 c -2.551,-0.848 -4.955,-1.2 -7.295,-1.2 C 5.029,-8.706 0,-6.867 0,0"
             inkscape:connector-curvature="0"
             id="path52"
             style="fill:#00e7ff;fill-opacity:1;fill-rule:nonzero;stroke:none" /></g><g
           transform="translate(650.5586,403.7998)"
           id="g54"><path
             d="m 0,0 4.746,6.088 c 2.686,-2.125 6.371,-4.459 9.772,-4.459 3.322,0 5.377,1.345 5.377,3.751 0,2.69 -2.479,3.541 -5.594,4.533 l -3.397,1.131 c -5.873,1.772 -8.781,5.664 -8.781,10.762 0,5.735 4.389,11.61 13.168,11.61 4.959,0 9.135,-1.344 12.537,-4.249 L 23.223,23.08 c -2.832,2.194 -5.453,3.255 -8.073,3.255 -2.757,0 -4.531,-1.132 -4.531,-3.184 0,-2.265 1.416,-3.043 4.039,-4.035 L 19.33,17.56 C 25.842,15.361 28.889,11.469 28.889,6.374 28.889,-0.92 22.445,-5.453 14.586,-5.453 8.779,-5.453 3.75,-3.823 0,0"
             inkscape:connector-curvature="0"
             id="path56"
             style="fill:#00e7ff;fill-opacity:1;fill-rule:nonzero;stroke:none" /></g><g
           transform="translate(685.377,449.6792)"
           id="g58"><path
             d="m 0,0 4.957,0 0,-32.287 13.594,17.842 5.66,0 -9.697,-12.319 10.127,-23.717 -5.243,0 -8.496,19.963 -5.945,-7.502 0,-12.461 -4.957,0 L 0,0 z"
             inkscape:connector-curvature="0"
             id="path60"
             style="fill:#00e7ff;fill-opacity:1;fill-rule:nonzero;stroke:none" /></g><g
           transform="translate(733.8809,411.1611)"
           id="g62"><path
             d="m 0,0 0,5.596 -6.09,0 c -4.178,0 -8.92,-1.346 -8.92,-7.366 0,-4.885 3.043,-7.149 6.512,-7.149 C -3.896,-8.919 0,-5.167 0,0 m -20.107,-2.476 c 0,8.426 7.361,11.468 13.236,11.468 l 6.871,0 0,6.159 c 0,4.248 -2.834,6.161 -7.078,6.161 -3.826,0 -7.438,-1.839 -7.438,-5.735 l 0,-2.053 -4.461,0 0,2.194 c 0,6.088 5.594,9.205 12.463,9.205 6.369,0 11.539,-2.902 11.539,-9.558 l 0,-18.194 c 0,-2.764 0.287,-7.366 0.356,-9.134 l -4.604,0 -0.285,5.735 -0.138,0 c -2.334,-5.169 -7.295,-6.515 -10.553,-6.515 -5.237,0 -9.908,3.398 -9.908,10.267"
             inkscape:connector-curvature="0"
             id="path64"
             style="fill:#00e7ff;fill-opacity:1;fill-rule:nonzero;stroke:none" /></g><g
           transform="translate(746.834,435.2339)"
           id="g66"><path
             d="m 0,0 4.672,0 0,-6.088 0.072,0 c 2.336,4.814 6.652,6.939 11.254,6.939 5.453,0 9.064,-4.107 9.064,-9.205 l 0,-27.682 -4.957,0 0,26.338 c 0,4.811 -2.337,6.584 -6.228,6.584 -4.322,0 -8.92,-4.321 -8.92,-9.701 l 0,-23.221 -4.957,0 L 0,0 z"
             inkscape:connector-curvature="0"
             id="path68"
             style="fill:#00e7ff;fill-opacity:1;fill-rule:nonzero;stroke:none" /></g><g
           transform="translate(798.5449,411.1611)"
           id="g70"><path
             d="m 0,0 0,5.596 -6.09,0 c -4.178,0 -8.922,-1.346 -8.922,-7.366 0,-4.885 3.045,-7.149 6.514,-7.149 C -3.895,-8.919 0,-5.167 0,0 m -20.109,-2.476 c 0,8.426 7.365,11.468 13.242,11.468 l 6.867,0 0,6.159 c 0,4.248 -2.834,6.161 -7.08,6.161 -3.826,0 -7.434,-1.839 -7.434,-5.735 l 0,-2.053 -4.463,0 0,2.194 c 0,6.088 5.594,9.205 12.461,9.205 6.373,0 11.539,-2.902 11.539,-9.558 l 0,-18.194 c 0,-2.764 0.286,-7.366 0.356,-9.134 l -4.602,0 -0.283,5.735 -0.14,0 c -2.338,-5.169 -7.293,-6.515 -10.549,-6.515 -5.243,0 -9.914,3.398 -9.914,10.267"
             inkscape:connector-curvature="0"
             id="path72"
             style="fill:#00e7ff;fill-opacity:1;fill-rule:nonzero;stroke:none" /></g><g
           transform="translate(811.3496,406.2773)"
           id="g74"><path
             d="m 0,0 0,43.402 4.955,0 0,-42.551 c 0,-2.338 1.061,-4.039 4.178,-4.039 0.92,0 2.193,0.144 3.045,0.286 l 0,-3.893 C 10.549,-7.363 8.99,-7.504 7.504,-7.504 2.762,-7.504 0,-4.886 0,0"
             inkscape:connector-curvature="0"
             id="path76"
             style="fill:#00e7ff;fill-opacity:1;fill-rule:nonzero;stroke:none" /></g><g
           transform="translate(848.6426,419.8711)"
           id="g78"><path
             d="m 0,0 0,3.894 c 0,4.247 -1.908,8.496 -7.783,8.496 -5.453,0 -7.721,-4.319 -7.721,-8.496 L -15.504,0 0,0 z m -20.531,-8.496 0,10.975 c 0,8.85 5.666,13.734 13.099,13.734 7.645,0 12.18,-4.816 12.18,-12.744 l 0,-7.079 -20.252,0 0,-4.957 c 0,-6.089 3.19,-8.778 9.063,-8.778 4.039,0 6.796,1.483 8.779,2.619 l 1.844,-3.329 c -3.26,-2.549 -7.223,-3.469 -11.33,-3.469 -7.86,0 -13.383,3.895 -13.383,13.028"
             inkscape:connector-curvature="0"
             id="path80"
             style="fill:#00e7ff;fill-opacity:1;fill-rule:nonzero;stroke:none" /></g><g
           transform="translate(860.1816,435.2339)"
           id="g82"><path
             d="m 0,0 4.674,0 0,-6.088 0.07,0 c 2.34,4.814 6.654,6.939 11.258,6.939 5.451,0 9.064,-4.107 9.064,-9.205 l 0,-27.682 -4.957,0 0,26.338 c 0,4.811 -2.338,6.584 -6.23,6.584 -4.318,0 -8.922,-4.321 -8.922,-9.701 l 0,-23.221 -4.957,0 L 0,0 z"
             inkscape:connector-curvature="0"
             id="path84"
             style="fill:#00e7ff;fill-opacity:1;fill-rule:nonzero;stroke:none" /></g></g></g></g></svg>