<?xml version="1.0" encoding="UTF-8" standalone="no"?>
<!-- Created with Inkscape (http://www.inkscape.org/) -->

<svg
   xmlns:dc="http://purl.org/dc/elements/1.1/"
   xmlns:cc="http://creativecommons.org/ns#"
   xmlns:rdf="http://www.w3.org/1999/02/22-rdf-syntax-ns#"
   xmlns:svg="http://www.w3.org/2000/svg"
   xmlns="http://www.w3.org/2000/svg"
   xmlns:sodipodi="http://sodipodi.sourceforge.net/DTD/sodipodi-0.dtd"
   xmlns:inkscape="http://www.inkscape.org/namespaces/inkscape"
   width="1000"
   height="187.97273"
   id="svg2"
   version="1.1"
   inkscape:version="0.48.2 r9819"
   sodipodi:docname="A.svg">
  <defs
     id="defs4">
    <clipPath
       clipPathUnits="userSpaceOnUse"
       id="clipPath3098">
      <path
         inkscape:connector-curvature="0"
         d="m 27.25,603.25 1024,0 0,-576 -1024,0 0,576 z"
         id="path3100" />
    </clipPath>
    <clipPath
       clipPathUnits="userSpaceOnUse"
       id="clipPath3497">
      <path
         inkscape:connector-curvature="0"
         d="m 27.25,603.25 1024,0 0,-576 -1024,0 0,576 z"
         id="path3499" />
    </clipPath>
    <clipPath
       clipPathUnits="userSpaceOnUse"
       id="clipPath3920">
      <path
         inkscape:connector-curvature="0"
         d="m 27.25,603.25 1024,0 0,-576 -1024,0 0,576 z"
         id="path3922" />
    </clipPath>
    <clipPath
       clipPathUnits="userSpaceOnUse"
       id="clipPath4335">
      <path
         inkscape:connector-curvature="0"
         d="m 27.25,603.25 1024,0 0,-576 -1024,0 0,576 z"
         id="path4337" />
    </clipPath>
    <clipPath
       clipPathUnits="userSpaceOnUse"
       id="clipPath4764">
      <path
         inkscape:connector-curvature="0"
         d="m 27.25,603.25 1024,0 0,-576 -1024,0 0,576 z"
         id="path4766" />
    </clipPath>
    <clipPath
       clipPathUnits="userSpaceOnUse"
       id="clipPath5207">
      <path
         inkscape:connector-curvature="0"
         d="m 27.25,603.25 1024,0 0,-576 -1024,0 0,576 z"
         id="path5209" />
    </clipPath>
    <clipPath
       clipPathUnits="userSpaceOnUse"
       id="clipPath5630">
      <path
         inkscape:connector-curvature="0"
         d="m 27.25,603.25 1024,0 0,-576 -1024,0 0,576 z"
         id="path5632" />
    </clipPath>
    <clipPath
       clipPathUnits="userSpaceOnUse"
       id="clipPath6059">
      <path
         inkscape:connector-curvature="0"
         d="m 27.25,603.25 1024,0 0,-576 -1024,0 0,576 z"
         id="path6061" />
    </clipPath>
    <clipPath
       clipPathUnits="userSpaceOnUse"
       id="clipPath6522">
      <path
         inkscape:connector-curvature="0"
         d="m 27.25,603.25 1024,0 0,-576 -1024,0 0,576 z"
         id="path6524" />
    </clipPath>
    <clipPath
       clipPathUnits="userSpaceOnUse"
       id="clipPath6995">
      <path
         inkscape:connector-curvature="0"
         d="m 27.25,603.25 1024,0 0,-576 -1024,0 0,576 z"
         id="path6997" />
    </clipPath>
    <clipPath
       clipPathUnits="userSpaceOnUse"
       id="clipPath7493">
      <path
         inkscape:connector-curvature="0"
         d="m 27.25,603.25 1024,0 0,-576 -1024,0 0,576 z"
         id="path7495" />
    </clipPath>
    <clipPath
       clipPathUnits="userSpaceOnUse"
       id="clipPath7971">
      <path
         inkscape:connector-curvature="0"
         d="m 27.25,603.25 1024,0 0,-576 -1024,0 0,576 z"
         id="path7973" />
    </clipPath>
    <clipPath
       clipPathUnits="userSpaceOnUse"
       id="clipPath8390">
      <path
         inkscape:connector-curvature="0"
         d="m 27.25,603.25 1024,0 0,-576 -1024,0 0,576 z"
         id="path8392" />
    </clipPath>
    <clipPath
       clipPathUnits="userSpaceOnUse"
       id="clipPath8799">
      <path
         inkscape:connector-curvature="0"
         d="m 27.25,603.25 1024,0 0,-576 -1024,0 0,576 z"
         id="path8801" />
    </clipPath>
    <clipPath
       clipPathUnits="userSpaceOnUse"
       id="clipPath8827">
      <path
         inkscape:connector-curvature="0"
         d="m 721.748,377.32 1.094,0 0,-79.834 -1.094,0 0,79.834 z"
         id="path8829" />
    </clipPath>
    <clipPath
       clipPathUnits="userSpaceOnUse"
       id="clipPath8831">
      <path
         inkscape:connector-curvature="0"
         d="m 721.748,297.486 1.094,1.509 0,78.325 -1.094,0 0,-79.834 z"
         id="path8833" />
    </clipPath>
    <mask
       maskUnits="userSpaceOnUse"
       x="0"
       y="0"
       width="1"
       height="1"
       id="mask8845">
      <g
         id="g8847">
        <g
           id="g8849">
          <g
             id="g8851">
            <g
               id="g8853">
              <path
                 inkscape:connector-curvature="0"
                 d="m -32768,32767 65535,0 0,-65535 -65535,0 0,65535 z"
                 style="fill:url(#linearGradient8839);stroke:none"
                 id="path8855" />
            </g>
          </g>
        </g>
      </g>
    </mask>
    <linearGradient
       x1="0"
       y1="0"
       x2="1"
       y2="0"
       gradientUnits="userSpaceOnUse"
       gradientTransform="matrix(-1.2e-6,-28.02725,-28.02725,1.2e-6,722.29492,335.1123)"
       spreadMethod="pad"
       id="linearGradient8839">
      <stop
         style="stop-opacity:0;stop-color:#ffffff"
         offset="0"
         id="stop8841" />
      <stop
         style="stop-opacity:1;stop-color:#ffffff"
         offset="1"
         id="stop8843" />
    </linearGradient>
    <linearGradient
       x1="0"
       y1="0"
       x2="1"
       y2="0"
       gradientUnits="userSpaceOnUse"
       gradientTransform="matrix(-1.2e-6,-28.02725,-28.02725,1.2e-6,722.29492,335.1123)"
       spreadMethod="pad"
       id="linearGradient8857">
      <stop
         style="stop-opacity:1;stop-color:#172b54"
         offset="0"
         id="stop8859" />
      <stop
         style="stop-opacity:1;stop-color:#172b54"
         offset="1"
         id="stop8861" />
    </linearGradient>
    <clipPath
       clipPathUnits="userSpaceOnUse"
       id="clipPath8893">
      <path
         inkscape:connector-curvature="0"
         d="m 722.828,385.433 312.072,0 0,-67.067 -312.072,0 0,67.067 z"
         id="path8895" />
    </clipPath>
    <clipPath
       clipPathUnits="userSpaceOnUse"
       id="clipPath8897">
      <path
         inkscape:connector-curvature="0"
         d="m 724.824,381.283 c -1.056,-0.067 -1.894,-0.873 -1.996,-1.898 l 0,-33.406 c 33.608,-17.016 80.912,-27.613 133.317,-27.613 85.935,0 158.16,28.489 178.753,67.067 l -310.074,-4.15 z"
         id="path8899" />
    </clipPath>
    <mask
       maskUnits="userSpaceOnUse"
       x="0"
       y="0"
       width="1"
       height="1"
       id="mask8913">
      <g
         id="g8915">
        <g
           id="g8917">
          <g
             id="g8919">
            <g
               id="g8921">
              <path
                 inkscape:connector-curvature="0"
                 d="m -32768,32767 65535,0 0,-65535 -65535,0 0,65535 z"
                 style="fill:url(#linearGradient8905);stroke:none"
                 id="path8923" />
            </g>
          </g>
        </g>
      </g>
    </mask>
    <linearGradient
       x1="0"
       y1="0"
       x2="1"
       y2="0"
       gradientUnits="userSpaceOnUse"
       gradientTransform="matrix(1.4319131,-32.003979,-32.003979,-1.4319131,877.94434,386.25439)"
       spreadMethod="pad"
       id="linearGradient8905">
      <stop
         style="stop-opacity:1;stop-color:#ffffff"
         offset="0"
         id="stop8907" />
      <stop
         style="stop-opacity:0;stop-color:#ffffff"
         offset="0.380368"
         id="stop8909" />
      <stop
         style="stop-opacity:0;stop-color:#ffffff"
         offset="1"
         id="stop8911" />
    </linearGradient>
    <linearGradient
       x1="0"
       y1="0"
       x2="1"
       y2="0"
       gradientUnits="userSpaceOnUse"
       gradientTransform="matrix(1.4319131,-32.003979,-32.003979,-1.4319131,877.94434,386.25439)"
       spreadMethod="pad"
       id="linearGradient8925">
      <stop
         style="stop-opacity:1;stop-color:#ffffff"
         offset="0"
         id="stop8927" />
      <stop
         style="stop-opacity:1;stop-color:#ffffff"
         offset="1"
         id="stop8929" />
    </linearGradient>
    <clipPath
       clipPathUnits="userSpaceOnUse"
       id="clipPath8953">
      <path
         inkscape:connector-curvature="0"
         d="m 721.748,386.178 313.982,0 0,-88.699 -313.982,0 0,88.699 z"
         id="path8955" />
    </clipPath>
    <clipPath
       clipPathUnits="userSpaceOnUse"
       id="clipPath8957">
      <path
         inkscape:connector-curvature="0"
         d="m 1034.891,385.42 0.839,0.01 0,0.748 -313.982,0 0,-88.699 1.08,1.488 0,80.418 c 0.102,1.025 0.94,1.831 1.996,1.898 l 310.074,4.15 c 0,-0.005 0,-0.009 -0.01,-0.013"
         id="path8959" />
    </clipPath>
    <mask
       maskUnits="userSpaceOnUse"
       x="0"
       y="0"
       width="1"
       height="1"
       id="mask8971">
      <g
         id="g8973">
        <g
           id="g8975">
          <g
             id="g8977">
            <g
               id="g8979">
              <path
                 inkscape:connector-curvature="0"
                 d="m -32768,32767 65535,0 0,-65535 -65535,0 0,65535 z"
                 style="fill:url(#linearGradient8965);stroke:none"
                 id="path8981" />
            </g>
          </g>
        </g>
      </g>
    </mask>
    <linearGradient
       x1="0"
       y1="0"
       x2="1"
       y2="0"
       gradientUnits="userSpaceOnUse"
       gradientTransform="matrix(24.89373,-78.264504,-78.264504,-24.89373,851.12109,428.65723)"
       spreadMethod="pad"
       id="linearGradient8965">
      <stop
         style="stop-opacity:1;stop-color:#ffffff"
         offset="0"
         id="stop8967" />
      <stop
         style="stop-opacity:0;stop-color:#ffffff"
         offset="1"
         id="stop8969" />
    </linearGradient>
    <linearGradient
       x1="0"
       y1="0"
       x2="1"
       y2="0"
       gradientUnits="userSpaceOnUse"
       gradientTransform="matrix(24.89373,-78.264504,-78.264504,-24.89373,851.12109,428.65723)"
       spreadMethod="pad"
       id="linearGradient8983">
      <stop
         style="stop-opacity:1;stop-color:#172b54"
         offset="0"
         id="stop8985" />
      <stop
         style="stop-opacity:1;stop-color:#172b54"
         offset="1"
         id="stop8987" />
    </linearGradient>
    <clipPath
       clipPathUnits="userSpaceOnUse"
       id="clipPath9011">
      <path
         inkscape:connector-curvature="0"
         d="m 721.748,386.178 313.982,0 0,-88.699 -313.982,0 0,88.699 z"
         id="path9013" />
    </clipPath>
    <clipPath
       clipPathUnits="userSpaceOnUse"
       id="clipPath9015">
      <path
         inkscape:connector-curvature="0"
         d="m 1034.891,385.42 0.839,0.01 0,0.748 -313.982,0 0,-88.699 1.08,1.488 0,80.418 c 0.102,1.025 0.94,1.831 1.996,1.898 l 310.074,4.15 c 0,-0.005 0,-0.009 -0.01,-0.013"
         id="path9017" />
    </clipPath>
    <mask
       maskUnits="userSpaceOnUse"
       x="0"
       y="0"
       width="1"
       height="1"
       id="mask9029">
      <g
         id="g9031">
        <g
           id="g9033">
          <g
             id="g9035">
            <g
               id="g9037">
              <path
                 inkscape:connector-curvature="0"
                 d="m -32768,32767 65535,0 0,-65535 -65535,0 0,65535 z"
                 style="fill:url(#linearGradient9023);stroke:none"
                 id="path9039" />
            </g>
          </g>
        </g>
      </g>
    </mask>
    <linearGradient
       x1="0"
       y1="0"
       x2="1"
       y2="0"
       gradientUnits="userSpaceOnUse"
       gradientTransform="matrix(-0.0247404,1.3854908,1.3854908,0.0247404,877.99219,383.67432)"
       spreadMethod="pad"
       id="linearGradient9023">
      <stop
         style="stop-opacity:1;stop-color:#ffffff"
         offset="0"
         id="stop9025" />
      <stop
         style="stop-opacity:0;stop-color:#ffffff"
         offset="1"
         id="stop9027" />
    </linearGradient>
    <linearGradient
       x1="0"
       y1="0"
       x2="1"
       y2="0"
       gradientUnits="userSpaceOnUse"
       gradientTransform="matrix(-0.0247404,1.3854908,1.3854908,0.0247404,877.99219,383.67432)"
       spreadMethod="pad"
       id="linearGradient9041">
      <stop
         style="stop-opacity:1;stop-color:#172b54"
         offset="0"
         id="stop9043" />
      <stop
         style="stop-opacity:1;stop-color:#172b54"
         offset="1"
         id="stop9045" />
    </linearGradient>
    <clipPath
       clipPathUnits="userSpaceOnUse"
       id="clipPath9069">
      <path
         inkscape:connector-curvature="0"
         d="m 721.74,326.781 305.61,0 0,-29.297 -305.61,0 0,29.297 z"
         id="path9071" />
    </clipPath>
    <clipPath
       clipPathUnits="userSpaceOnUse"
       id="clipPath9073">
      <path
         inkscape:connector-curvature="0"
         d="m 977.594,299.021 -144.657,0 -1.509,-0.024 -108.586,-0.002 -1.102,-1.511 109.377,0.004 0,0.025 144.656,0 c 21.926,0 41.086,11.738 51.573,29.268 -10.356,-16.64 -28.811,-27.76 -49.752,-27.76"
         id="path9075" />
    </clipPath>
    <mask
       maskUnits="userSpaceOnUse"
       x="0"
       y="0"
       width="1"
       height="1"
       id="mask9087">
      <g
         id="g9089">
        <g
           id="g9091">
          <g
             id="g9093">
            <g
               id="g9095">
              <path
                 inkscape:connector-curvature="0"
                 d="m -32768,32767 65535,0 0,-65535 -65535,0 0,65535 z"
                 style="fill:url(#linearGradient9081);stroke:none"
                 id="path9097" />
            </g>
          </g>
        </g>
      </g>
    </mask>
    <linearGradient
       x1="0"
       y1="0"
       x2="1"
       y2="0"
       gradientUnits="userSpaceOnUse"
       gradientTransform="matrix(77.32827,0,0,-77.32827,933.5332,312.13281)"
       spreadMethod="pad"
       id="linearGradient9081">
      <stop
         style="stop-opacity:1;stop-color:#ffffff"
         offset="0"
         id="stop9083" />
      <stop
         style="stop-opacity:0;stop-color:#ffffff"
         offset="1"
         id="stop9085" />
    </linearGradient>
    <linearGradient
       x1="0"
       y1="0"
       x2="1"
       y2="0"
       gradientUnits="userSpaceOnUse"
       gradientTransform="matrix(77.32827,0,0,-77.32827,933.5332,312.13281)"
       spreadMethod="pad"
       id="linearGradient9099">
      <stop
         style="stop-opacity:1;stop-color:#172b54"
         offset="0"
         id="stop9101" />
      <stop
         style="stop-opacity:1;stop-color:#172b54"
         offset="1"
         id="stop9103" />
    </linearGradient>
    <clipPath
       clipPathUnits="userSpaceOnUse"
       id="clipPath9147">
      <path
         inkscape:connector-curvature="0"
         d="m 722.842,380.12 308.818,0 0,-61.754 -308.818,0 0,61.754 z"
         id="path9149" />
    </clipPath>
    <clipPath
       clipPathUnits="userSpaceOnUse"
       id="clipPath9151">
      <path
         inkscape:connector-curvature="0"
         d="m 1031.627,380.12 c -23.615,-34.885 -91.248,-60.081 -171.035,-60.081 -50.203,0 -95.574,9.99 -128.225,26.074 0,0 -4.121,2.143 -9.525,5.676 l 0,-5.846 c 0.752,-0.355 9.006,-4.258 9.525,-4.422 32.75,-14.378 76.137,-23.155 123.778,-23.155 81.931,0 151.367,25.907 175.511,61.754 l -0.029,0 z"
         id="path9153" />
    </clipPath>
    <mask
       maskUnits="userSpaceOnUse"
       x="0"
       y="0"
       width="1"
       height="1"
       id="mask9169">
      <g
         id="g9171">
        <g
           id="g9173">
          <g
             id="g9175">
            <g
               id="g9177">
              <path
                 inkscape:connector-curvature="0"
                 d="m -32768,32767 65535,0 0,-65535 -65535,0 0,65535 z"
                 style="fill:url(#linearGradient9159);stroke:none"
                 id="path9179" />
            </g>
          </g>
        </g>
      </g>
    </mask>
    <linearGradient
       x1="0"
       y1="0"
       x2="1"
       y2="0"
       gradientUnits="userSpaceOnUse"
       gradientTransform="matrix(-233.25847,-20.797647,-20.797647,233.25847,1001.6484,353.63623)"
       spreadMethod="pad"
       id="linearGradient9159">
      <stop
         style="stop-opacity:0;stop-color:#ffffff"
         offset="0"
         id="stop9161" />
      <stop
         style="stop-opacity:0.50000763;stop-color:#ffffff"
         offset="0.208589"
         id="stop9163" />
      <stop
         style="stop-opacity:0;stop-color:#ffffff"
         offset="0.98773"
         id="stop9165" />
      <stop
         style="stop-opacity:0;stop-color:#ffffff"
         offset="1"
         id="stop9167" />
    </linearGradient>
    <linearGradient
       x1="0"
       y1="0"
       x2="1"
       y2="0"
       gradientUnits="userSpaceOnUse"
       gradientTransform="matrix(-233.25847,-20.797647,-20.797647,233.25847,1001.6484,353.63623)"
       spreadMethod="pad"
       id="linearGradient9181">
      <stop
         style="stop-opacity:1;stop-color:#ffffff"
         offset="0"
         id="stop9183" />
      <stop
         style="stop-opacity:1;stop-color:#ffffff"
         offset="0.98773"
         id="stop9185" />
      <stop
         style="stop-opacity:1;stop-color:#ffffff"
         offset="1"
         id="stop9187" />
    </linearGradient>
    <clipPath
       clipPathUnits="userSpaceOnUse"
       id="clipPath10146">
      <path
         inkscape:connector-curvature="0"
         d="m 27.25,603.25 1024,0 0,-576 -1024,0 0,576 z"
         id="path10148" />
    </clipPath>
    <clipPath
       clipPathUnits="userSpaceOnUse"
       id="clipPath10615">
      <path
         inkscape:connector-curvature="0"
         d="m 27.25,603.25 1024,0 0,-576 -1024,0 0,576 z"
         id="path10617" />
    </clipPath>
    <clipPath
       clipPathUnits="userSpaceOnUse"
       id="clipPath10615-2">
      <path
         inkscape:connector-curvature="0"
         d="m 27.25,603.25 1024,0 0,-576 -1024,0 0,576 z"
         id="path10617-4" />
    </clipPath>
    <clipPath
       clipPathUnits="userSpaceOnUse"
       id="clipPath11177">
      <path
         inkscape:connector-curvature="0"
         d="m 27.25,603.25 1024,0 0,-576 -1024,0 0,576 z"
         id="path11179" />
    </clipPath>
  </defs>
  <sodipodi:namedview
     id="base"
     pagecolor="#ffffff"
     bordercolor="#666666"
     borderopacity="1.0"
     inkscape:pageopacity="0.0"
     inkscape:pageshadow="2"
     inkscape:zoom="0.49497475"
     inkscape:cx="1273.7308"
     inkscape:cy="52.978828"
     inkscape:document-units="px"
     inkscape:current-layer="layer1"
     showgrid="false"
     fit-margin-left="0.5"
     fit-margin-bottom="0.5"
     fit-margin-top="0.5"
     fit-margin-right="0.5"
     inkscape:window-width="1920"
     inkscape:window-height="1028"
     inkscape:window-x="-8"
     inkscape:window-y="-8"
     inkscape:window-maximized="1">
    <inkscape:grid
       type="xygrid"
       id="grid2996"
       empspacing="5"
       visible="true"
       enabled="true"
       snapvisiblegridlinesonly="true" />
  </sodipodi:namedview>
  <metadata
     id="metadata7">
    <rdf:RDF>
      <cc:Work
         rdf:about="">
        <dc:format>image/svg+xml</dc:format>
        <dc:type
           rdf:resource="http://purl.org/dc/dcmitype/StillImage" />
        <dc:title></dc:title>
      </cc:Work>
    </rdf:RDF>
  </metadata>
  <g
     inkscape:label="Layer 1"
     inkscape:groupmode="layer"
     id="layer1"
     transform="translate(1959.7224,-238.54012)">
    <g
       id="g11173"
       transform="matrix(1.0512295,0,0,-1.0512295,-2026.5985,663.9268)">
      <g
         id="g11175"
         clip-path="url(#clipPath11177)">
        <g
           id="g11181"
           transform="translate(153.1597,404.1807)">
          <path
             d="m 0,0 c -49.109,0 -89.067,-39.896 -89.067,-88.934 0,-49.039 39.958,-88.927 89.067,-88.927 49.099,0 89.027,39.888 89.027,88.927 C 89.027,-39.896 49.099,0 0,0 m 0,-168.086 c -43.696,0 -79.252,35.494 -79.252,79.152 0,43.635 35.556,79.151 79.252,79.151 43.676,0 79.232,-35.516 79.232,-79.151 0,-43.658 -35.556,-79.152 -79.232,-79.152"
             style="fill:#858588;fill-opacity:1;fill-rule:nonzero;stroke:none"
             id="path11183"
             inkscape:connector-curvature="0" />
        </g>
        <g
           id="g11185"
           transform="translate(210.3608,333.5479)">
          <path
             d="m 0,0 -10.047,-25.549 -7.982,24.529 -13.01,0 15.055,-37.628 11.027,0 c 0,0 10.57,21.05 10.912,21.837 C 8.566,-11.035 5.543,-3.268 0,0"
             style="fill:#858588;fill-opacity:1;fill-rule:nonzero;stroke:none"
             id="path11187"
             inkscape:connector-curvature="0" />
        </g>
        <g
           id="g11189"
           transform="translate(172.6694,302.9307)">
          <path
             d="m 0,0 c -3.508,0 -4.555,3.104 -4.555,5.693 l 0,14.846 9.03,0 0,9.049 -9.03,0 0,11.408 -0.785,0 c -5.463,0 -10.904,-4.252 -10.904,-11.387 l 0,-23.279 c 0,-2.43 0.24,-4.486 0.724,-6.41 1.653,-6.512 7.862,-9.322 13.737,-9.322 3.818,0 7.387,1.117 10.691,3.375 L 5.484,1.953 C 4.729,1.451 3.033,0 0,0"
             style="fill:#858588;fill-opacity:1;fill-rule:nonzero;stroke:none"
             id="path11191"
             inkscape:connector-curvature="0" />
        </g>
        <g
           id="g11193"
           transform="translate(137.8608,333.4072)">
          <path
             d="M 0,0 C -5.159,0 -9.652,-1.826 -12.758,-5.211 -14.773,-2.439 -17.947,0 -23.703,0 -27.934,0 -33.135,-2.732 -35.01,-5.908 l -0.504,5.877 -0.785,0 c -5.201,-0.131 -10.32,-4.172 -10.32,-9.907 l 0,-28.56 11.689,0 0,20.217 c 0,2.408 0.696,4.383 2.078,5.924 1.39,1.552 3.182,2.347 5.411,2.347 2.005,0 3.498,-0.635 4.484,-1.873 1.019,-1.219 1.512,-2.953 1.512,-5.211 l 0,-21.404 11.307,0 0,20.217 c 0,2.408 0.665,4.383 2.027,5.924 1.34,1.552 3.154,2.347 5.442,2.347 1.995,0 3.495,-0.635 4.505,-1.873 0.987,-1.219 1.51,-2.953 1.51,-5.211 l 0,-21.404 11.691,0 0,23.26 c 0,4.695 -1.291,8.424 -3.871,11.144 C 8.606,-1.361 4.877,0 0,0"
             style="fill:#858588;fill-opacity:1;fill-rule:nonzero;stroke:none"
             id="path11195"
             inkscape:connector-curvature="0" />
        </g>
        <g
           id="g11197"
           transform="translate(773.6484,386.8291)">
          <path
             d="m 0,0 0,-23.26 46.6,0 0,-119.635 25.334,0 0,119.635 46.541,0 0,23.26 L 0,0 z"
             style="fill:#0e87d2;fill-opacity:1;fill-rule:nonzero;stroke:none"
             id="path11199"
             inkscape:connector-curvature="0" />
        </g>
        <g
           id="g11201"
           transform="translate(766.4336,341.3252)">
          <path
             d="m 0,0 0,0.404 c 0,12.448 -4.285,23.059 -11.83,30.819 -9.191,8.968 -23.281,14.269 -41.238,14.269 l -57.305,0 c 7.439,-6.57 13.865,-14.269 18.967,-22.846 l 36.31,0 c 18.563,0 29.588,-8.355 29.588,-23.693 l 0,-0.392 c 0,-14.483 -11.437,-23.866 -29.396,-23.866 l -23.258,0 c 0.279,-5.521 -1.25,-19.136 -2.41,-22.261 l 19.955,0 0.424,0 35.099,-49.825 29.569,0 -38.539,54.12 C -14.088,-37.568 0,-23.48 0,0"
             style="fill:#0e87d2;fill-opacity:1;fill-rule:nonzero;stroke:none"
             id="path11203"
             inkscape:connector-curvature="0" />
        </g>
        <g
           id="g11205"
           transform="translate(590.8379,388.4912)">
          <path
             d="m 0,0 c -40.371,0 -73.105,-32.744 -73.105,-73.115 0,-40.401 32.734,-73.114 73.105,-73.114 40.412,0 73.125,32.713 73.125,73.114 C 73.125,-32.744 40.412,0 0,0"
             style="fill:#0e87d2;fill-opacity:1;fill-rule:nonzero;stroke:none"
             id="path11207"
             inkscape:connector-curvature="0" />
        </g>
        <g
           id="g11209"
           transform="translate(339.2964,326.8135)">
          <path
             d="m 0,0 c -27.342,6.533 -33.883,11.449 -33.883,22.475 l 0,0.382 c 0,9.403 8.567,16.94 23.281,16.94 13.051,0 25.91,-5.098 38.77,-14.682 L 41.641,44.092 C 27.15,55.73 10.601,62.041 -10.198,62.041 c -28.359,0 -48.779,-16.932 -48.779,-41.42 l 0,-0.404 c 0,-26.344 17.123,-35.313 47.528,-42.68 26.565,-6.086 32.26,-11.619 32.26,-21.816 l 0,-0.424 c 0,-10.824 -9.786,-17.94 -25.305,-17.94 -17.758,0 -31.423,6.713 -45.109,18.565 l -15.108,-17.959 c 17.165,-15.318 37.763,-22.856 59.621,-22.856 29.983,0 51.026,15.922 51.026,42.649 l 0,0.414 C 45.936,-18.139 30.213,-7.324 0,0"
             style="fill:#0e87d2;fill-opacity:1;fill-rule:nonzero;stroke:none"
             id="path11211"
             inkscape:connector-curvature="0" />
        </g>
        <g
           id="g11213"
           transform="translate(453.6782,386.8291)">
          <path
             d="m 0,0 -56.334,0 0,-142.895 25.103,0 0,45.946 28.337,0 c 31.456,0 57.173,16.738 57.173,48.775 l 0,0.426 C 54.279,-18.988 33.278,0 0,0 m 28.763,-48.777 c 0,-14.905 -11.822,-25.518 -30.828,-25.518 l -29.166,0 0,51.447 29.166,0 c 18.794,0 30.828,-8.787 30.828,-25.515 l 0,-0.414 z"
             style="fill:#0e87d2;fill-opacity:1;fill-rule:nonzero;stroke:none"
             id="path11215"
             inkscape:connector-curvature="0" />
        </g>
        <g
           id="g11217"
           transform="translate(917.5605,243.9951)">
          <path
             d="m 0,0 96.848,0 0,10.119 -80.241,0 43.385,39.303 c 6.207,5.683 11.539,10.844 15.983,15.519 4.466,4.637 8.132,9.1 11.037,13.364 2.92,4.252 5.037,8.465 6.388,12.658 1.34,4.172 2.034,8.707 2.034,13.564 l 0,0.422 c 0,5.524 -1.086,10.662 -3.245,15.391 -2.156,4.715 -5.087,8.828 -8.806,12.324 -3.719,3.549 -8.143,6.27 -13.283,8.244 -5.11,1.955 -10.723,2.924 -16.809,2.924 -6.228,0 -11.742,-0.717 -16.607,-2.178 -4.86,-1.439 -9.293,-3.498 -13.274,-6.158 -3.98,-2.68 -7.629,-5.855 -10.955,-9.603 -3.307,-3.688 -6.5,-7.913 -9.594,-12.639 l 7.881,-5.26 c 5.955,8.506 12.074,15.016 18.442,19.522 6.349,4.543 14.048,6.781 23.089,6.781 4.334,0 8.424,-0.705 12.245,-2.086 3.869,-1.441 7.224,-3.426 10.148,-6.057 2.893,-2.66 5.248,-5.855 6.982,-9.625 1.764,-3.779 2.643,-7.97 2.643,-12.556 0,-3.789 -0.557,-7.416 -1.625,-10.934 C 81.568,89.533 79.795,85.893 77.295,82.135 74.795,78.346 71.563,74.314 67.57,69.98 63.59,65.678 58.691,60.881 52.889,55.629 L 0,7.881 0,0 z"
             style="fill:#0e87d2;fill-opacity:1;fill-rule:nonzero;stroke:none"
             id="path11219"
             inkscape:connector-curvature="0" />
        </g>
      </g>
    </g>
  </g>
</svg>
