<?xml version="1.0" encoding="UTF-8" standalone="yes"?>
<svg xmlns="http://www.w3.org/2000/svg" xmlns:xlink="http://www.w3.org/1999/xlink" width="1170.6666666666665px" height="106.66666666666666px" viewBox="0 0 878 80" version="1.1">
  <defs>
    <clipPath id="clip1">
      <path d="M 0 0 L 76 0 L 76 79.785156 L 0 79.785156 Z M 0 0 "/>
    </clipPath>
  </defs>
  <g id="surface1">
    <path style=" stroke:none;fill-rule:nonzero;fill:rgb(4.313725%,2.352941%,1.960784%);fill-opacity:1;" d="M 154.664062 3.511719 C 154.484375 3.5 154.3125 3.460938 154.125 3.460938 L 152.378906 3.460938 C 149.1875 3.460938 146.925781 4.792969 145.277344 7.472656 L 140.542969 15.175781 L 133.875 26.023438 L 126.046875 38.75 L 121.757812 31.757812 L 110.222656 12.949219 L 106.925781 7.570312 C 105.484375 5.203125 103.117188 3.460938 99.71875 3.460938 L 97.972656 3.460938 C 93.550781 3.460938 90.054688 6.957031 90.054688 11.378906 L 90.054688 68.808594 C 90.054688 70.785156 90.792969 72.542969 91.96875 73.894531 C 93.375 75.503906 95.425781 76.523438 97.769531 76.523438 C 102.089844 76.523438 105.585938 73.132812 105.585938 68.808594 L 105.585938 32.992188 L 108.777344 37.910156 L 117.097656 50.75 L 119.261719 54.085938 C 120.90625 56.558594 122.960938 58.101562 125.84375 58.101562 C 128.722656 58.101562 130.78125 56.558594 132.425781 54.085938 L 146.3125 32.679688 L 146.3125 68.605469 C 146.3125 72.925781 149.804688 76.523438 154.125 76.523438 C 158.546875 76.523438 162.042969 73.019531 162.042969 68.605469 L 162.042969 11.378906 C 162.042969 7.140625 158.824219 3.789062 154.664062 3.511719 "/>
    <path style=" stroke:none;fill-rule:nonzero;fill:rgb(4.313725%,2.352941%,1.960784%);fill-opacity:1;" d="M 210.894531 62.523438 C 198.144531 62.523438 189.09375 52.238281 189.09375 39.890625 L 189.09375 39.679688 C 189.09375 38.839844 189.140625 38.015625 189.222656 37.199219 C 189.671875 32.609375 191.371094 28.433594 194.035156 25.097656 C 195.832031 22.847656 198.066406 20.992188 200.65625 19.648438 C 203.589844 18.125 206.964844 17.246094 210.683594 17.246094 C 215.585938 17.246094 219.929688 18.773438 223.433594 21.347656 C 227.4375 24.285156 230.324219 28.585938 231.652344 33.574219 C 232.195312 35.585938 232.488281 37.703125 232.488281 39.890625 L 232.488281 40.09375 C 232.488281 47.539062 229.257812 54.144531 223.90625 58.226562 C 220.386719 60.917969 215.953125 62.523438 210.894531 62.523438 M 248.984375 37.476562 C 248.691406 32.277344 247.355469 27.371094 245.160156 22.96875 C 239.132812 10.898438 226.582031 2.632812 210.894531 2.632812 C 197.5 2.632812 186.320312 8.738281 179.546875 18.074219 C 178.777344 19.125 178.074219 20.222656 177.421875 21.351562 C 176.1875 23.511719 175.164062 25.804688 174.382812 28.207031 C 173.183594 31.886719 172.535156 35.8125 172.535156 39.890625 L 172.535156 40.09375 C 172.535156 60.574219 188.472656 77.144531 210.683594 77.144531 C 221.558594 77.144531 230.964844 73.121094 237.75 66.621094 C 244.832031 59.835938 249.050781 50.351562 249.050781 39.890625 L 249.050781 39.679688 C 249.050781 38.941406 249.023438 38.207031 248.984375 37.476562 "/>
    <path style=" stroke:none;fill-rule:nonzero;fill:rgb(4.313725%,2.352941%,1.960784%);fill-opacity:1;" d="M 303.554688 28.464844 L 303.554688 28.671875 C 303.554688 28.730469 303.542969 28.792969 303.542969 28.851562 C 303.453125 34.824219 299.050781 38.863281 291.414062 38.863281 L 275.375 38.863281 L 275.375 18.175781 L 291.105469 18.175781 C 295.660156 18.175781 299.164062 19.402344 301.28125 21.796875 C 302.675781 23.382812 303.464844 25.476562 303.535156 28.070312 C 303.539062 28.207031 303.554688 28.328125 303.554688 28.464844 M 313.421875 11.175781 C 311.742188 9.492188 309.753906 8.101562 307.488281 6.976562 C 303.382812 4.953125 298.347656 3.863281 292.441406 3.863281 L 267.453125 3.863281 C 263.035156 3.863281 259.535156 7.367188 259.535156 11.789062 L 259.535156 68.605469 C 259.535156 73.019531 263.035156 76.523438 267.453125 76.523438 C 271.882812 76.523438 275.375 73.019531 275.375 68.605469 L 275.375 52.851562 L 288.023438 52.851562 L 303.449219 72.414062 C 305.300781 74.773438 307.660156 76.523438 311.261719 76.523438 C 315.070312 76.523438 318.769531 73.640625 318.769531 69.21875 C 318.769531 66.75 317.742188 65.097656 316.203125 63.148438 L 305.578125 50.230469 L 305.195312 49.765625 C 311.863281 47.019531 316.722656 42.292969 318.660156 35.179688 C 318.941406 34.140625 319.171875 33.058594 319.328125 31.914062 C 319.5 30.625 319.589844 29.269531 319.589844 27.847656 L 319.589844 27.644531 C 319.589844 20.84375 317.433594 15.1875 313.421875 11.175781 "/>
    <path style=" stroke:none;fill-rule:nonzero;fill:rgb(4.313725%,2.352941%,1.960784%);fill-opacity:1;" d="M 386.351562 68.429688 C 386.101562 64.746094 383.050781 61.804688 379.308594 61.804688 L 346.707031 61.804688 L 346.707031 46.675781 L 374.164062 46.675781 C 375.25 46.675781 376.273438 46.414062 377.195312 45.988281 C 379.585938 44.875 381.253906 42.5 381.253906 39.679688 C 381.253906 35.773438 378.074219 32.578125 374.164062 32.578125 L 346.707031 32.578125 L 346.707031 17.96875 L 378.789062 17.96875 C 382.695312 17.96875 385.894531 14.882812 385.894531 10.972656 C 385.894531 7.0625 382.695312 3.867188 378.789062 3.867188 L 338.894531 3.867188 C 334.472656 3.867188 330.976562 7.367188 330.976562 11.789062 L 330.976562 67.984375 C 330.976562 72.414062 334.472656 75.910156 338.894531 75.910156 L 379.308594 75.910156 C 383.210938 75.910156 386.402344 72.8125 386.402344 68.90625 C 386.402344 68.746094 386.367188 68.59375 386.351562 68.429688 "/>
    <path style=" stroke:none;fill-rule:nonzero;fill:rgb(4.313725%,2.352941%,1.960784%);fill-opacity:1;" d="M 39.859375 29.074219 C 34.59375 29.074219 30.226562 32.902344 29.371094 37.921875 C 29.273438 38.511719 29.207031 39.105469 29.207031 39.71875 C 29.207031 45.605469 33.980469 50.375 39.859375 50.375 C 40.414062 50.375 40.957031 50.320312 41.492188 50.234375 C 46.589844 49.449219 50.503906 45.046875 50.503906 39.71875 C 50.503906 33.84375 45.738281 29.074219 39.859375 29.074219 "/>
    <path style=" stroke:none;fill-rule:nonzero;fill:rgb(4.313725%,2.352941%,1.960784%);fill-opacity:1;" d="M 750.804688 7.4375 C 750.804688 5.175781 752.660156 3.320312 754.820312 3.320312 C 757.089844 3.320312 758.941406 5.175781 758.941406 7.4375 L 758.941406 35.898438 L 800.558594 35.898438 L 800.558594 7.4375 C 800.558594 5.175781 802.417969 3.320312 804.679688 3.320312 C 806.839844 3.320312 808.699219 5.175781 808.699219 7.4375 L 808.699219 72.394531 C 808.699219 74.664062 806.839844 76.515625 804.679688 76.515625 C 802.417969 76.515625 800.558594 74.664062 800.558594 72.394531 L 800.558594 43.523438 L 758.941406 43.523438 L 758.941406 72.394531 C 758.941406 74.664062 757.089844 76.515625 754.820312 76.515625 C 752.660156 76.515625 750.804688 74.664062 750.804688 72.394531 L 750.804688 7.4375 "/>
    <path style=" stroke:none;fill-rule:nonzero;fill:rgb(4.313725%,2.352941%,1.960784%);fill-opacity:1;" d="M 840.316406 68.472656 C 858.550781 68.472656 870.1875 56.101562 870.1875 40.121094 L 870.1875 39.917969 C 870.1875 23.933594 858.550781 11.359375 840.316406 11.359375 L 823.417969 11.359375 L 823.417969 68.472656 Z M 815.285156 7.957031 C 815.285156 5.691406 817.136719 3.835938 819.300781 3.835938 L 840.316406 3.835938 C 862.976562 3.835938 878.636719 19.402344 878.636719 39.714844 L 878.636719 39.917969 C 878.636719 60.234375 862.976562 75.996094 840.316406 75.996094 L 819.300781 75.996094 C 817.136719 75.996094 815.285156 74.144531 815.285156 71.875 L 815.285156 7.957031 "/>
    <path style=" stroke:none;fill-rule:nonzero;fill:rgb(1.960784%,1.176471%,0.392157%);fill-opacity:1;" d="M 414.582031 66.855469 C 413.65625 66.238281 413.042969 65.113281 413.042969 63.78125 C 413.042969 61.527344 414.785156 59.789062 416.933594 59.789062 C 417.953125 59.789062 418.875 60.199219 419.386719 60.710938 C 426.136719 66.441406 432.886719 69.207031 441.988281 69.207031 C 451.601562 69.207031 457.949219 64.085938 457.949219 57.027344 L 457.949219 56.820312 C 457.949219 50.167969 454.367188 46.378906 439.328125 43.203125 C 422.863281 39.625 415.292969 34.304688 415.292969 22.535156 L 415.292969 22.324219 C 415.292969 11.066406 425.214844 2.773438 438.820312 2.773438 C 448.230469 2.773438 455.078125 5.128906 461.628906 9.839844 C 462.445312 10.453125 463.363281 11.582031 463.363281 13.117188 C 463.363281 15.265625 461.628906 17.003906 459.476562 17.003906 C 458.558594 17.003906 457.84375 16.800781 457.128906 16.285156 C 451.09375 11.886719 445.261719 10.042969 438.617188 10.042969 C 429.308594 10.042969 423.375 15.164062 423.375 21.609375 L 423.375 21.8125 C 423.375 28.570312 427.058594 32.359375 442.808594 35.734375 C 458.765625 39.21875 466.128906 45.050781 466.128906 56 L 466.128906 56.207031 C 466.128906 68.492188 455.902344 76.472656 441.679688 76.472656 C 431.25 76.472656 422.558594 73.199219 414.582031 66.855469 "/>
    <path style=" stroke:none;fill-rule:nonzero;fill:rgb(1.960784%,1.176471%,0.392157%);fill-opacity:1;" d="M 498.203125 42.796875 C 510.066406 42.796875 517.84375 36.449219 517.84375 27.035156 L 517.84375 26.832031 C 517.84375 16.59375 510.171875 11.273438 498.613281 11.273438 L 480.507812 11.273438 L 480.507812 42.796875 Z M 472.425781 7.894531 C 472.425781 5.644531 474.269531 3.800781 476.417969 3.800781 L 499.226562 3.800781 C 515.386719 3.800781 526.027344 12.398438 526.027344 26.523438 L 526.027344 26.726562 C 526.027344 42.183594 513.136719 50.167969 497.894531 50.167969 L 480.507812 50.167969 L 480.507812 71.867188 C 480.507812 74.121094 478.667969 75.960938 476.417969 75.960938 C 474.269531 75.960938 472.425781 74.121094 472.425781 71.867188 L 472.425781 7.894531 "/>
    <path style=" stroke:none;fill-rule:nonzero;fill:rgb(1.960784%,1.176471%,0.392157%);fill-opacity:1;" d="M 595.386719 39.828125 L 595.386719 39.625 C 595.386719 23.347656 583.523438 10.042969 567.15625 10.042969 C 550.792969 10.042969 539.136719 23.144531 539.136719 39.421875 L 539.136719 39.625 C 539.136719 55.898438 551 69.207031 567.359375 69.207031 C 583.726562 69.207031 595.386719 56.105469 595.386719 39.828125 M 530.75 39.828125 L 530.75 39.625 C 530.75 19.867188 545.578125 2.574219 567.359375 2.574219 C 589.148438 2.574219 603.777344 19.667969 603.777344 39.421875 L 603.777344 39.625 C 603.777344 59.382812 588.941406 76.679688 567.15625 76.679688 C 545.371094 76.679688 530.75 59.582031 530.75 39.828125 "/>
    <path style=" stroke:none;fill-rule:nonzero;fill:rgb(1.960784%,1.176471%,0.392157%);fill-opacity:1;" d="M 640.96875 40.34375 C 651.707031 40.34375 659.378906 34.816406 659.378906 25.605469 L 659.378906 25.394531 C 659.378906 16.59375 652.625 11.273438 641.070312 11.273438 L 618.976562 11.273438 L 618.976562 40.34375 Z M 610.894531 7.894531 C 610.894531 5.640625 612.738281 3.800781 614.886719 3.800781 L 641.683594 3.800781 C 650.476562 3.800781 657.539062 6.460938 662.035156 10.964844 C 665.515625 14.445312 667.558594 19.460938 667.558594 25.089844 L 667.558594 25.296875 C 667.558594 37.066406 659.582031 43.925781 648.433594 46.074219 L 666.230469 68.996094 C 667.046875 69.921875 667.558594 70.84375 667.558594 71.972656 C 667.558594 74.121094 665.515625 75.960938 663.46875 75.960938 C 661.832031 75.960938 660.605469 75.039062 659.683594 73.8125 L 639.535156 47.609375 L 618.976562 47.609375 L 618.976562 71.867188 C 618.976562 74.121094 617.132812 75.960938 614.886719 75.960938 C 612.738281 75.960938 610.894531 74.121094 610.894531 71.867188 L 610.894531 7.894531 "/>
    <path style=" stroke:none;fill-rule:nonzero;fill:rgb(1.960784%,1.176471%,0.392157%);fill-opacity:1;" d="M 691.011719 11.273438 L 670.25 11.273438 C 668.203125 11.273438 666.464844 9.636719 666.464844 7.589844 C 666.464844 5.542969 668.203125 3.800781 670.25 3.800781 L 719.957031 3.800781 C 722.003906 3.800781 723.742188 5.542969 723.742188 7.589844 C 723.742188 9.636719 722.003906 11.273438 719.957031 11.273438 L 699.195312 11.273438 L 699.195312 71.867188 C 699.195312 74.121094 697.355469 75.960938 695.105469 75.960938 C 692.851562 75.960938 691.011719 74.121094 691.011719 71.867188 L 691.011719 11.273438 "/>
    <g clip-path="url(#clip1)" clip-rule="nonzero">
      <path style=" stroke:none;fill-rule:nonzero;fill:rgb(4.313725%,2.352941%,1.960784%);fill-opacity:1;" d="M 75.320312 52.964844 C 74.699219 50.984375 73.386719 49.230469 71.496094 48.164062 C 68.128906 46.253906 63.769531 46.953125 61.171875 49.824219 C 59.84375 51.292969 59.007812 53.191406 57.738281 54.726562 C 56.234375 56.582031 54.375 58.195312 52.359375 59.488281 C 51.996094 59.722656 51.621094 59.9375 51.242188 60.148438 C 44.242188 64.089844 35.472656 64.117188 28.425781 60.160156 C 20.957031 55.769531 16.296875 47.695312 16.65625 38.960938 C 16.816406 35.136719 17.941406 31.453125 19.828125 28.226562 C 22.117188 24.304688 25.519531 21.046875 29.71875 19.019531 C 33.617188 17.132812 37.800781 16.464844 42.097656 16.777344 C 45.933594 17.0625 49.363281 19.25 53.171875 17.570312 C 56.410156 16.152344 58.402344 12.742188 58.136719 9.242188 C 58.121094 9.039062 58.125 8.84375 58.09375 8.644531 C 57.472656 4.632812 54.386719 2.421875 50.707031 1.417969 C 39.546875 -1.636719 27.742188 0.367188 18.332031 6.316406 C 14.308594 8.863281 10.742188 12.140625 7.832031 16.035156 C 6.597656 17.691406 5.46875 19.441406 4.496094 21.316406 C 3.488281 23.230469 2.679688 25.199219 2.011719 27.195312 C -2.746094 41.492188 1.113281 57.441406 11.710938 68.207031 C 12.796875 69.316406 13.929688 70.386719 15.15625 71.375 C 19.433594 74.820312 24.328125 77.15625 29.457031 78.492188 C 40.582031 81.386719 52.8125 79.386719 62.457031 72.8125 C 63.847656 71.867188 65.207031 70.855469 66.480469 69.714844 C 69.839844 66.703125 73.425781 62.824219 75.144531 58.570312 C 75.875 56.738281 75.882812 54.757812 75.320312 52.964844 "/>
    </g>
  </g>
</svg>