<?xml version="1.0" encoding="UTF-8" standalone="yes"?>
<svg xmlns="http://www.w3.org/2000/svg" xmlns:xlink="http://www.w3.org/1999/xlink" width="473.3333333333333px" height="106.66666666666666px" viewBox="0 0 355 80" version="1.1">
  <g id="surface1">
    <path style=" stroke:none;fill-rule:nonzero;fill:rgb(92.54902%,10.588235%,14.117647%);fill-opacity:1;" d="M 11.210938 13.945312 C 51.507812 13.945312 91.804688 13.957031 132.101562 13.941406 C 132.117188 31.34375 132.101562 48.738281 132.109375 66.136719 C 91.808594 66.148438 51.507812 66.152344 11.199219 66.136719 C 11.222656 48.738281 11.210938 31.34375 11.210938 13.945312 M 33.53125 25.246094 C 27.859375 26.101562 22.871094 30.488281 21.394531 36.0625 C 20.496094 39.746094 20.785156 43.800781 22.609375 47.164062 C 24.742188 51.199219 28.839844 54.105469 33.308594 54.929688 C 39.078125 56.140625 45.375 53.644531 48.832031 48.882812 C 51.996094 44.542969 52.5625 38.484375 50.210938 33.644531 C 47.390625 27.476562 40.132812 23.941406 33.53125 25.246094 M 61.820312 25.511719 C 61.824219 35.203125 61.832031 44.902344 61.8125 54.601562 C 64.207031 54.605469 66.601562 54.625 69 54.582031 C 68.964844 51.753906 68.980469 48.925781 68.984375 46.097656 C 70.714844 46.105469 72.445312 46.105469 74.175781 46.097656 C 75.972656 48.902344 77.824219 51.671875 79.644531 54.457031 C 82.554688 54.816406 85.554688 54.496094 88.5 54.609375 C 86.21875 51.183594 83.78125 47.867188 81.476562 44.453125 C 83.3125 43.515625 85.0625 42.214844 86 40.320312 C 88.242188 36.296875 87.121094 30.746094 83.515625 27.894531 C 81.535156 26.203125 78.867188 25.476562 76.304688 25.503906 C 71.476562 25.515625 66.648438 25.507812 61.820312 25.511719 M 99.125 25.511719 C 99.132812 35.195312 99.144531 44.882812 99.121094 54.570312 C 101.460938 54.589844 103.796875 54.582031 106.136719 54.578125 C 106.136719 51.320312 106.148438 48.066406 106.128906 44.808594 C 110.582031 44.761719 115.035156 44.78125 119.488281 44.800781 C 119.542969 42.535156 119.472656 40.269531 119.546875 38.003906 C 115.074219 37.867188 110.601562 37.996094 106.128906 37.9375 C 106.144531 36.085938 106.144531 34.230469 106.132812 32.378906 C 111.613281 32.328125 117.085938 32.355469 122.566406 32.359375 C 122.617188 30.097656 122.550781 27.835938 122.625 25.574219 C 114.792969 25.425781 106.957031 25.550781 99.125 25.511719 Z M 99.125 25.511719 "/>
    <path style=" stroke:none;fill-rule:nonzero;fill:rgb(92.54902%,10.588235%,14.117647%);fill-opacity:1;" d="M 34.269531 32.097656 C 38.433594 30.777344 43.011719 33.925781 44.070312 38 C 45.628906 42.960938 41.152344 48.699219 35.957031 48.347656 C 31.398438 48.265625 27.613281 43.621094 28.261719 39.128906 C 28.609375 35.867188 31.117188 32.949219 34.269531 32.097656 Z M 34.269531 32.097656 "/>
    <path style=" stroke:none;fill-rule:nonzero;fill:rgb(92.54902%,10.588235%,14.117647%);fill-opacity:1;" d="M 69.011719 39.292969 C 68.96875 36.96875 68.941406 34.648438 69.023438 32.324219 C 71.890625 32.480469 74.789062 32.128906 77.632812 32.523438 C 80.101562 32.988281 80.730469 36.3125 79.378906 38.132812 C 78.703125 38.828125 77.75 39.246094 76.78125 39.246094 C 74.191406 39.320312 71.597656 39.222656 69.011719 39.292969 Z M 69.011719 39.292969 "/>
    <path style=" stroke:none;fill-rule:nonzero;fill:rgb(0%,0%,0%);fill-opacity:1;" d="M 132.101562 13.941406 C 184.511719 13.96875 236.921875 13.925781 289.332031 13.964844 C 290.066406 13.988281 290.777344 13.875 291.472656 13.621094 C 291.628906 15 291.8125 16.382812 291.824219 17.769531 C 291.8125 32.300781 291.820312 46.832031 291.832031 61.359375 C 291.898438 63.066406 291.660156 64.761719 291.570312 66.460938 C 290.457031 65.902344 289.183594 66.167969 287.992188 66.121094 C 236.03125 66.136719 184.070312 66.101562 132.109375 66.136719 C 132.101562 48.738281 132.117188 31.34375 132.101562 13.941406 M 252.679688 25.226562 C 252.371094 26.679688 252.042969 28.128906 251.792969 29.589844 C 255.03125 29.640625 258.277344 29.554688 261.519531 29.574219 C 259.875 37.414062 258.414062 45.296875 257.019531 53.1875 C 258.839844 53.15625 260.65625 53.148438 262.472656 53.109375 C 263.902344 45.230469 265.378906 37.363281 266.890625 29.503906 C 270.039062 29.363281 273.269531 29.664062 276.371094 29.230469 C 276.828125 27.84375 276.855469 26.355469 277.25 24.945312 C 269.058594 25.039062 260.871094 25.132812 252.679688 25.226562 M 205.671875 25.621094 C 202.101562 26.527344 199.09375 29.023438 197.097656 32.074219 C 194.683594 35.703125 193.675781 40.136719 194.003906 44.464844 C 194.015625 48.691406 196.914062 52.828125 201.066406 53.890625 C 206.605469 55.109375 212.914062 53.347656 216.609375 48.914062 C 220.183594 44.792969 221.300781 39.054688 220.800781 33.730469 C 220.65625 30.71875 218.816406 27.882812 216.167969 26.476562 C 212.945312 24.871094 209.128906 24.902344 205.671875 25.621094 M 227.957031 25.484375 C 226.117188 34.847656 224.539062 44.265625 222.597656 53.605469 C 224.460938 53.621094 226.332031 53.59375 228.199219 53.550781 C 228.933594 49.644531 229.667969 45.738281 230.394531 41.828125 C 231.539062 41.941406 232.859375 41.671875 233.902344 42.101562 C 235.601562 45.042969 236.976562 48.167969 238.578125 51.164062 C 239.039062 51.902344 239.222656 52.90625 239.972656 53.410156 C 241.898438 53.460938 243.824219 53.355469 245.75 53.367188 C 243.5 49.222656 241.160156 45.125 238.925781 40.96875 C 242.632812 40.253906 245.832031 37.152344 246.34375 33.347656 C 247.027344 30.492188 245.394531 27.394531 242.691406 26.300781 C 238.035156 24.265625 232.847656 25.398438 227.957031 25.484375 M 152.886719 27.820312 C 149.820312 30.070312 148.90625 34.828125 151.164062 37.949219 C 153.296875 40.898438 156.898438 42.25 159.359375 44.859375 C 160.625 46.09375 160.339844 48.484375 158.695312 49.257812 C 155.527344 50.871094 151.566406 50.125 148.664062 48.257812 C 148.199219 49.859375 147.542969 51.390625 147.078125 52.988281 C 147.917969 53.933594 149.375 53.976562 150.535156 54.367188 C 154.554688 54.996094 159.066406 55.019531 162.535156 52.582031 C 165.308594 50.859375 166.613281 47.039062 165.234375 44.03125 C 163.390625 39.605469 158.039062 38.277344 155.640625 34.328125 C 154.914062 32.488281 156.480469 30.414062 158.375 30.277344 C 160.726562 29.722656 163.238281 30.226562 165.230469 31.574219 C 165.882812 29.957031 166.367188 28.269531 166.863281 26.601562 C 162.328125 25.417969 156.851562 24.761719 152.886719 27.820312 M 173.785156 26.0625 C 171.886719 35.390625 170.101562 44.75 168.34375 54.105469 C 170.152344 54.09375 171.957031 54.066406 173.761719 54.054688 C 174.476562 50.640625 175.027344 47.195312 175.742188 43.78125 C 180.492188 44.527344 185.898438 43.902344 189.625 40.605469 C 193.46875 37.136719 193.53125 29.648438 188.625 27.105469 C 184.027344 24.839844 178.699219 25.449219 173.785156 26.0625 Z M 173.785156 26.0625 "/>
    <path style=" stroke:none;fill-rule:nonzero;fill:rgb(0%,0%,0%);fill-opacity:1;" d="M 178.191406 30.328125 C 180.417969 29.6875 182.96875 29.539062 185.074219 30.648438 C 186.492188 31.449219 186.949219 33.148438 186.765625 34.675781 C 186.875 36.898438 184.917969 38.585938 182.949219 39.167969 C 180.847656 39.714844 178.550781 40.097656 176.449219 39.347656 C 177.152344 36.367188 177.761719 33.355469 178.191406 30.328125 Z M 178.191406 30.328125 "/>
    <path style=" stroke:none;fill-rule:nonzero;fill:rgb(0%,0%,0%);fill-opacity:1;" d="M 206.898438 29.871094 C 208.957031 29.375 211.378906 29.289062 213.214844 30.519531 C 214.796875 31.636719 215.410156 33.667969 215.390625 35.535156 C 215.589844 39.742188 214.304688 44.121094 211.421875 47.253906 C 209.246094 49.503906 205.816406 50.378906 202.820312 49.535156 C 201.285156 48.894531 200.25 47.390625 199.882812 45.804688 C 198.996094 42.980469 199.527344 39.9375 200.46875 37.203125 C 201.691406 34.15625 203.617188 30.972656 206.898438 29.871094 Z M 206.898438 29.871094 "/>
    <path style=" stroke:none;fill-rule:nonzero;fill:rgb(0%,0%,0%);fill-opacity:1;" d="M 232.71875 29.671875 C 234.890625 29.617188 237.191406 29.285156 239.257812 30.148438 C 240.839844 30.730469 241.527344 32.746094 240.933594 34.257812 C 240.574219 35.640625 239.339844 36.550781 238.0625 37.011719 C 235.851562 37.707031 233.511719 37.800781 231.21875 37.632812 C 231.640625 34.964844 232.152344 32.3125 232.71875 29.671875 Z M 232.71875 29.671875 "/>
    <path style=" stroke:none;fill-rule:nonzero;fill:rgb(99.215686%,71.764706%,3.921569%);fill-opacity:1;" d="M 291.863281 25.328125 C 291.925781 21.515625 291.71875 17.6875 291.988281 13.882812 C 309.132812 14.027344 326.285156 13.890625 343.4375 13.964844 C 343.382812 31.347656 343.398438 48.734375 343.410156 66.117188 C 326.234375 66.132812 309.058594 66.066406 291.886719 66.164062 C 291.84375 52.550781 291.875 38.9375 291.863281 25.328125 M 313.398438 25.382812 C 313.464844 29.050781 313.464844 32.71875 313.464844 36.390625 C 309.738281 36.460938 306.011719 36.507812 302.285156 36.527344 C 302.316406 38.652344 302.335938 40.777344 302.351562 42.902344 C 306.070312 42.867188 309.796875 42.859375 313.519531 42.820312 C 313.550781 46.664062 313.585938 50.503906 313.632812 54.34375 C 315.785156 54.316406 317.941406 54.289062 320.097656 54.257812 C 320.113281 50.4375 320.078125 46.609375 320.050781 42.785156 C 323.808594 42.714844 327.566406 42.839844 331.320312 42.632812 C 331.277344 40.476562 331.277344 38.320312 331.28125 36.164062 C 327.53125 36.207031 323.785156 36.238281 320.042969 36.316406 C 319.980469 32.621094 320.03125 28.925781 319.949219 25.226562 C 317.765625 25.265625 315.578125 25.214844 313.398438 25.382812 Z M 313.398438 25.382812 "/>
    <path style=" stroke:none;fill-rule:nonzero;fill:rgb(100%,100%,100%);fill-opacity:1;" d="M 33.53125 25.246094 C 40.132812 23.941406 47.390625 27.476562 50.210938 33.644531 C 52.5625 38.484375 51.996094 44.542969 48.832031 48.882812 C 45.375 53.644531 39.078125 56.140625 33.308594 54.929688 C 28.839844 54.105469 24.742188 51.199219 22.609375 47.164062 C 20.785156 43.800781 20.496094 39.746094 21.394531 36.0625 C 22.871094 30.488281 27.859375 26.101562 33.53125 25.246094 M 34.269531 32.097656 C 31.117188 32.949219 28.609375 35.867188 28.261719 39.128906 C 27.613281 43.621094 31.398438 48.265625 35.957031 48.347656 C 41.152344 48.699219 45.628906 42.960938 44.070312 38 C 43.011719 33.925781 38.433594 30.777344 34.269531 32.097656 Z M 34.269531 32.097656 "/>
    <path style=" stroke:none;fill-rule:nonzero;fill:rgb(100%,100%,100%);fill-opacity:1;" d="M 252.679688 25.226562 C 260.871094 25.132812 269.058594 25.039062 277.25 24.945312 C 276.855469 26.355469 276.828125 27.84375 276.371094 29.230469 C 273.269531 29.664062 270.039062 29.363281 266.890625 29.503906 C 265.378906 37.363281 263.902344 45.230469 262.472656 53.109375 C 260.65625 53.148438 258.839844 53.15625 257.019531 53.1875 C 258.414062 45.296875 259.875 37.414062 261.519531 29.574219 C 258.277344 29.554688 255.03125 29.640625 251.792969 29.589844 C 252.042969 28.128906 252.371094 26.679688 252.679688 25.226562 Z M 252.679688 25.226562 "/>
    <path style=" stroke:none;fill-rule:nonzero;fill:rgb(100%,100%,100%);fill-opacity:1;" d="M 61.820312 25.511719 C 66.648438 25.507812 71.476562 25.515625 76.304688 25.503906 C 78.867188 25.476562 81.535156 26.203125 83.515625 27.894531 C 87.121094 30.746094 88.242188 36.296875 86 40.320312 C 85.0625 42.214844 83.3125 43.515625 81.476562 44.453125 C 83.78125 47.867188 86.21875 51.183594 88.5 54.609375 C 85.554688 54.496094 82.554688 54.816406 79.644531 54.457031 C 77.824219 51.671875 75.972656 48.902344 74.175781 46.097656 C 72.445312 46.105469 70.714844 46.105469 68.984375 46.097656 C 68.980469 48.925781 68.964844 51.753906 69 54.582031 C 66.601562 54.625 64.207031 54.605469 61.8125 54.601562 C 61.832031 44.902344 61.824219 35.203125 61.820312 25.511719 M 69.011719 39.292969 C 71.597656 39.222656 74.191406 39.320312 76.78125 39.246094 C 77.75 39.246094 78.703125 38.828125 79.378906 38.132812 C 80.730469 36.3125 80.101562 32.988281 77.632812 32.523438 C 74.789062 32.128906 71.890625 32.480469 69.023438 32.324219 C 68.941406 34.648438 68.96875 36.96875 69.011719 39.292969 Z M 69.011719 39.292969 "/>
    <path style=" stroke:none;fill-rule:nonzero;fill:rgb(100%,100%,100%);fill-opacity:1;" d="M 99.125 25.511719 C 106.957031 25.550781 114.792969 25.425781 122.625 25.574219 C 122.550781 27.835938 122.617188 30.097656 122.566406 32.359375 C 117.085938 32.355469 111.613281 32.328125 106.132812 32.378906 C 106.144531 34.230469 106.144531 36.085938 106.128906 37.9375 C 110.601562 37.996094 115.074219 37.867188 119.546875 38.003906 C 119.472656 40.269531 119.542969 42.535156 119.488281 44.800781 C 115.035156 44.78125 110.582031 44.761719 106.128906 44.808594 C 106.148438 48.066406 106.136719 51.320312 106.136719 54.578125 C 103.796875 54.582031 101.460938 54.589844 99.121094 54.570312 C 99.144531 44.882812 99.132812 35.195312 99.125 25.511719 Z M 99.125 25.511719 "/>
    <path style=" stroke:none;fill-rule:nonzero;fill:rgb(100%,100%,100%);fill-opacity:1;" d="M 205.671875 25.621094 C 209.128906 24.902344 212.945312 24.871094 216.167969 26.476562 C 218.816406 27.882812 220.65625 30.71875 220.800781 33.730469 C 221.300781 39.054688 220.183594 44.792969 216.609375 48.914062 C 212.914062 53.347656 206.605469 55.109375 201.066406 53.890625 C 196.914062 52.828125 194.015625 48.691406 194.003906 44.464844 C 193.675781 40.136719 194.683594 35.703125 197.097656 32.074219 C 199.09375 29.023438 202.101562 26.527344 205.671875 25.621094 M 206.898438 29.871094 C 203.617188 30.972656 201.691406 34.15625 200.46875 37.203125 C 199.527344 39.9375 198.996094 42.980469 199.882812 45.804688 C 200.25 47.390625 201.285156 48.894531 202.820312 49.535156 C 205.816406 50.378906 209.246094 49.503906 211.421875 47.253906 C 214.304688 44.121094 215.589844 39.742188 215.390625 35.535156 C 215.410156 33.667969 214.796875 31.636719 213.214844 30.519531 C 211.378906 29.289062 208.957031 29.375 206.898438 29.871094 Z M 206.898438 29.871094 "/>
    <path style=" stroke:none;fill-rule:nonzero;fill:rgb(100%,100%,100%);fill-opacity:1;" d="M 227.957031 25.484375 C 232.847656 25.398438 238.035156 24.265625 242.691406 26.300781 C 245.394531 27.394531 247.027344 30.492188 246.34375 33.347656 C 245.832031 37.152344 242.632812 40.253906 238.925781 40.96875 C 241.160156 45.125 243.5 49.222656 245.75 53.367188 C 243.824219 53.355469 241.898438 53.460938 239.972656 53.410156 C 239.222656 52.90625 239.039062 51.902344 238.578125 51.164062 C 236.976562 48.167969 235.601562 45.042969 233.902344 42.101562 C 232.859375 41.671875 231.539062 41.941406 230.394531 41.828125 C 229.667969 45.738281 228.933594 49.644531 228.199219 53.550781 C 226.332031 53.59375 224.460938 53.621094 222.597656 53.605469 C 224.539062 44.265625 226.117188 34.847656 227.957031 25.484375 M 232.71875 29.671875 C 232.152344 32.3125 231.640625 34.964844 231.21875 37.632812 C 233.511719 37.800781 235.851562 37.707031 238.0625 37.011719 C 239.339844 36.550781 240.574219 35.640625 240.933594 34.257812 C 241.527344 32.746094 240.839844 30.730469 239.257812 30.148438 C 237.191406 29.285156 234.890625 29.617188 232.71875 29.671875 Z M 232.71875 29.671875 "/>
    <path style=" stroke:none;fill-rule:nonzero;fill:rgb(100%,100%,100%);fill-opacity:1;" d="M 313.398438 25.382812 C 315.578125 25.214844 317.765625 25.265625 319.949219 25.226562 C 320.03125 28.925781 319.980469 32.621094 320.042969 36.316406 C 323.785156 36.238281 327.53125 36.207031 331.28125 36.164062 C 331.277344 38.320312 331.277344 40.476562 331.320312 42.632812 C 327.566406 42.839844 323.808594 42.714844 320.050781 42.785156 C 320.078125 46.609375 320.113281 50.4375 320.097656 54.257812 C 317.941406 54.289062 315.785156 54.316406 313.632812 54.34375 C 313.585938 50.503906 313.550781 46.664062 313.519531 42.820312 C 309.796875 42.859375 306.070312 42.867188 302.351562 42.902344 C 302.335938 40.777344 302.316406 38.652344 302.285156 36.527344 C 306.011719 36.507812 309.738281 36.460938 313.464844 36.390625 C 313.464844 32.71875 313.464844 29.050781 313.398438 25.382812 Z M 313.398438 25.382812 "/>
    <path style=" stroke:none;fill-rule:nonzero;fill:rgb(100%,100%,100%);fill-opacity:1;" d="M 152.886719 27.820312 C 156.851562 24.761719 162.328125 25.417969 166.863281 26.601562 C 166.367188 28.269531 165.882812 29.957031 165.230469 31.574219 C 163.238281 30.226562 160.726562 29.722656 158.375 30.277344 C 156.480469 30.414062 154.914062 32.488281 155.640625 34.328125 C 158.039062 38.277344 163.390625 39.605469 165.234375 44.03125 C 166.613281 47.039062 165.308594 50.859375 162.535156 52.582031 C 159.066406 55.019531 154.554688 54.996094 150.535156 54.367188 C 149.375 53.976562 147.917969 53.933594 147.078125 52.988281 C 147.542969 51.390625 148.199219 49.859375 148.664062 48.257812 C 151.566406 50.125 155.527344 50.871094 158.695312 49.257812 C 160.339844 48.484375 160.625 46.09375 159.359375 44.859375 C 156.898438 42.25 153.296875 40.898438 151.164062 37.949219 C 148.90625 34.828125 149.820312 30.070312 152.886719 27.820312 Z M 152.886719 27.820312 "/>
    <path style=" stroke:none;fill-rule:nonzero;fill:rgb(100%,100%,100%);fill-opacity:1;" d="M 173.785156 26.0625 C 178.699219 25.449219 184.027344 24.839844 188.625 27.105469 C 193.53125 29.648438 193.46875 37.136719 189.625 40.605469 C 185.898438 43.902344 180.492188 44.527344 175.742188 43.78125 C 175.027344 47.195312 174.476562 50.640625 173.761719 54.054688 C 171.957031 54.066406 170.152344 54.09375 168.34375 54.105469 C 170.101562 44.75 171.886719 35.390625 173.785156 26.0625 M 178.191406 30.328125 C 177.761719 33.355469 177.152344 36.367188 176.449219 39.347656 C 178.550781 40.097656 180.847656 39.714844 182.949219 39.167969 C 184.917969 38.585938 186.875 36.898438 186.765625 34.675781 C 186.949219 33.148438 186.492188 31.449219 185.074219 30.648438 C 182.96875 29.539062 180.417969 29.6875 178.191406 30.328125 Z M 178.191406 30.328125 "/>
  </g>
</svg>