<?xml version="1.0" encoding="UTF-8" ?>
<!DOCTYPE svg PUBLIC "-//W3C//DTD SVG 1.1//EN" "http://www.w3.org/Graphics/SVG/1.1/DTD/svg11.dtd">
<svg width="360pt" height="270pt" viewBox="0 0 360 270" version="1.1" xmlns="http://www.w3.org/2000/svg">
<g id="#17304dff">
<path fill="#17304d" opacity="1.00" d=" M 176.33 0.00 L 182.71 0.00 C 215.48 0.70 248.04 13.52 271.79 36.22 C 288.56 51.53 301.18 71.25 308.24 92.81 C 316.84 118.80 317.24 147.39 309.37 173.61 C 302.68 196.09 290.02 216.79 272.85 232.79 C 248.74 256.30 215.32 269.59 181.72 270.00 L 176.40 270.00 C 141.31 269.06 106.73 254.02 82.68 228.36 C 65.93 211.32 54.21 189.50 48.67 166.29 C 42.63 141.11 44.08 114.23 52.77 89.84 C 59.92 69.67 71.94 51.23 87.68 36.72 C 111.26 13.93 143.65 0.97 176.33 0.00 M 171.50 51.70 C 156.44 53.63 142.08 61.90 133.78 74.75 C 126.58 85.64 124.16 99.41 126.68 112.16 C 129.15 124.32 137.51 134.75 148.17 140.85 C 158.85 147.73 171.50 150.17 183.54 153.61 C 189.39 155.29 195.52 157.58 199.48 162.45 C 203.57 167.38 203.19 174.83 199.89 180.07 C 196.63 185.36 190.78 188.56 184.79 189.69 C 177.56 190.80 169.43 190.47 163.45 185.74 C 156.90 180.71 154.73 172.34 150.25 165.78 C 147.73 162.00 142.87 163.16 139.25 164.30 C 134.12 165.99 128.46 166.80 124.04 170.11 C 120.95 172.38 121.08 176.69 122.12 179.99 C 126.12 194.24 135.30 207.41 148.45 214.57 C 161.06 221.53 176.10 222.69 190.15 220.63 C 204.00 218.44 217.37 211.44 225.84 200.07 C 235.47 187.32 238.93 169.66 233.36 154.51 C 229.26 143.08 219.92 134.27 209.27 128.84 C 197.98 122.73 185.17 120.74 172.99 117.14 C 166.54 115.17 160.41 110.13 159.38 103.16 C 157.94 94.94 163.80 86.96 171.33 84.15 C 178.58 81.40 187.47 81.28 193.97 85.96 C 198.88 89.23 200.69 95.19 204.53 99.42 C 207.46 102.82 212.31 100.96 215.90 99.80 C 220.77 97.84 226.39 97.01 230.37 93.35 C 232.72 91.35 232.33 87.93 231.83 85.21 C 228.98 75.08 222.22 66.24 213.54 60.37 C 201.41 52.00 185.90 49.53 171.50 51.70 Z" />
</g>
<g id="#ffffffff">
<path fill="#ffffff" opacity="1.00" d=" M 171.50 51.70 C 185.90 49.53 201.41 52.00 213.54 60.37 C 222.22 66.24 228.98 75.08 231.83 85.21 C 232.33 87.93 232.72 91.35 230.37 93.35 C 226.39 97.01 220.77 97.84 215.90 99.80 C 212.31 100.96 207.46 102.82 204.53 99.42 C 200.69 95.19 198.88 89.23 193.97 85.96 C 187.47 81.28 178.58 81.40 171.33 84.15 C 163.80 86.96 157.94 94.94 159.38 103.16 C 160.41 110.13 166.54 115.17 172.99 117.14 C 185.17 120.74 197.98 122.73 209.27 128.84 C 219.92 134.27 229.26 143.08 233.36 154.51 C 238.93 169.66 235.47 187.32 225.84 200.07 C 217.37 211.44 204.00 218.44 190.15 220.63 C 176.10 222.69 161.06 221.53 148.45 214.57 C 135.30 207.41 126.12 194.24 122.12 179.99 C 121.08 176.69 120.95 172.38 124.04 170.11 C 128.46 166.80 134.12 165.99 139.25 164.30 C 142.87 163.16 147.73 162.00 150.25 165.78 C 154.73 172.34 156.90 180.71 163.45 185.74 C 169.43 190.47 177.56 190.80 184.79 189.69 C 190.78 188.56 196.63 185.36 199.89 180.07 C 203.19 174.83 203.57 167.38 199.48 162.45 C 195.52 157.58 189.39 155.29 183.54 153.61 C 171.50 150.17 158.85 147.73 148.17 140.85 C 137.51 134.75 129.15 124.32 126.68 112.16 C 124.16 99.41 126.58 85.64 133.78 74.75 C 142.08 61.90 156.44 53.63 171.50 51.70 Z" />
</g>
</svg>
