<?xml version="1.0" encoding="UTF-8" standalone="no"?>
<!-- Created with Inkscape (http://www.inkscape.org/) -->

<svg
   xmlns:dc="http://purl.org/dc/elements/1.1/"
   xmlns:cc="http://creativecommons.org/ns#"
   xmlns:rdf="http://www.w3.org/1999/02/22-rdf-syntax-ns#"
   xmlns:svg="http://www.w3.org/2000/svg"
   xmlns="http://www.w3.org/2000/svg"
   xmlns:sodipodi="http://sodipodi.sourceforge.net/DTD/sodipodi-0.dtd"
   xmlns:inkscape="http://www.inkscape.org/namespaces/inkscape"
   width="450.43542"
   height="75"
   id="svg10665"
   version="1.1"
   inkscape:version="0.48.0 r9654"
   sodipodi:docname="Neues Dokument 48">
  <defs
     id="defs10667" />
  <sodipodi:namedview
     id="base"
     pagecolor="#ffffff"
     bordercolor="#666666"
     borderopacity="1.0"
     inkscape:pageopacity="0.0"
     inkscape:pageshadow="2"
     inkscape:zoom="0.35"
     inkscape:cx="-72.16714"
     inkscape:cy="-42.269283"
     inkscape:document-units="px"
     inkscape:current-layer="layer1"
     showgrid="false"
     fit-margin-top="0"
     fit-margin-left="0"
     fit-margin-right="0"
     fit-margin-bottom="0"
     inkscape:window-width="1618"
     inkscape:window-height="1028"
     inkscape:window-x="-8"
     inkscape:window-y="-8"
     inkscape:window-maximized="1" />
  <metadata
     id="metadata10670">
    <rdf:RDF>
      <cc:Work
         rdf:about="">
        <dc:format>image/svg+xml</dc:format>
        <dc:type
           rdf:resource="http://purl.org/dc/dcmitype/StillImage" />
        <dc:title></dc:title>
      </cc:Work>
    </rdf:RDF>
  </metadata>
  <g
     inkscape:label="Ebene 1"
     inkscape:groupmode="layer"
     id="layer1"
     transform="translate(-422.16714,-415.0929)">
    <path
       inkscape:connector-curvature="0"
       d="m 520.13521,487.18107 c -0.3135,0.63897 -0.78919,1.57838 -2.36756,1.57838 l -7.27957,0 c -0.7217,0 -1.59198,-0.62591 -1.59198,-1.57838 0,-0.70755 0.16328,-1.10214 0.39404,-1.57837 l 8.23204,-16.6954 -18.12409,-27.07728 -9.33418,9.97369 11.94666,17.81114 c 0.70755,0.95247 0.87083,1.4287 0.87083,1.90494 0,0.78918 -0.87083,1.49673 -1.89133,1.49673 l -8.23204,0 c -1.19738,0 -1.90493,-0.78919 -2.69412,-1.90493 l -13.8516,-20.01542 15.34834,-16.54572 c 1.11574,-1.26542 2.14985,-1.89133 4.04118,-1.89133 l 8.87155,0 c 1.89133,0 2.92544,0.70755 3.8643,2.21789 l 14.49111,23.02249 10.28664,-23.34905 c 0.47569,-1.18378 1.18379,-1.89133 2.69413,-1.89133 l 7.3476,0 c 0.87083,0 1.67362,0.70755 1.67362,1.57837 0,0.47569 -0.16328,1.03411 -0.47569,1.57838 l -24.21988,51.3652 z m -44.6299,-18.27377 c 0,2.61249 -1.98657,4.10922 -4.12282,4.10922 l -6.24547,0 c -0.70754,0 -1.57837,-0.70755 -1.57837,-1.90493 l 0,-51.82783 c 0,-3.17036 1.57837,-4.19086 4.34053,-4.19086 l 5.61956,0 c 1.19738,0 1.98657,0.78919 1.98657,1.89133 l 0,51.92307 z M 448.9859,449.10959 c 7.52449,1.74166 11.08944,5.63316 11.08944,12.0283 0,6.57203 -4.51742,11.87863 -15.2803,11.87863 l -20.41001,0 c -1.03411,0 -1.51034,-0.70755 -1.51034,-1.90493 l 0,-3.87791 c 0,-2.20428 1.18378,-4.02757 4.12282,-4.02757 l 18.43705,0 c 2.0546,0 2.84379,-0.95247 2.84379,-1.66002 0,-1.11574 -0.78919,-1.82329 -3.23839,-2.38117 l -11.71535,-2.53084 c -7.27957,-1.57837 -11.15747,-5.53791 -11.15747,-11.63371 0,-6.96661 4.83037,-12.34125 14.08291,-12.34125 l 20.49165,0 c 1.11575,0 1.90494,0.70755 1.90494,1.89133 l 0,3.8779 c 0,2.21789 -1.18378,4.12282 -4.19086,4.12282 l -17.7295,0 c -2.36756,0 -3.08871,0.78919 -3.08871,1.49674 0,1.18378 0.7217,1.66001 3.40167,2.29953 l 11.94666,2.76215"
       style="fill:#231f20;fill-opacity:1;fill-rule:nonzero;stroke:none"
       id="path6991" />
    <path
       inkscape:connector-curvature="0"
       d="m 570.60237,473.76489 c -5.7148,0 -10.54517,-2.50363 -13.83799,-5.63317 -0.54426,-0.53011 -0.8164,-0.97968 -0.8164,-1.68722 0,-1.34706 0.99383,-2.14986 2.14986,-2.14986 0.5312,0 1.15656,0.17743 1.70083,0.7217 2.76216,2.49002 6.34071,4.46299 10.98059,4.46299 6.16382,0 9.29336,-2.8574 9.29336,-7.06187 0,-4.19085 -2.77576,-5.7148 -7.59253,-7.32039 l -4.83037,-1.60559 c -5.89169,-1.97296 -9.72877,-4.55823 -9.72877,-10.44992 0,-6.96662 5.53792,-10.1914 12.50454,-10.1914 3.93232,0 7.23875,0.99383 10.09615,2.95265 0.88498,0.6259 1.23821,1.25181 1.23821,2.0546 0,1.15657 -0.70755,2.2315 -2.13625,2.2315 -0.44848,0 -0.89804,-0.17743 -1.33346,-0.44848 -2.50362,-1.4287 -4.38135,-2.49002 -7.68777,-2.49002 -4.38135,0 -7.51088,1.68723 -7.51088,5.7148 0,2.93905 1.52394,4.63988 5.81005,6.06858 l 4.83037,1.60559 c 6.34071,2.14986 11.42961,4.73512 11.42961,11.70174 0,6.88498 -6.25908,11.52486 -14.55915,11.52486"
       style="fill:#231f20;fill-opacity:1;fill-rule:nonzero;stroke:none"
       id="path6995" />
    <path
       inkscape:connector-curvature="0"
       d="m 624.64809,453.30045 c 0,-8.7491 -4.10922,-15.98785 -12.2324,-15.98785 -7.59253,0 -13.13044,7.14351 -13.13044,15.98785 0,8.84434 5.53791,15.98784 13.13044,15.98784 8.12318,0 12.2324,-7.23875 12.2324,-15.98784 z m -30.54699,-17.5118 c 0,-1.4287 1.15657,-2.58526 2.58527,-2.58526 1.4287,0 2.59888,1.15656 2.59888,2.58526 l 0,5.18415 c 2.76215,-4.91201 7.49727,-8.12319 13.75635,-8.12319 10.0009,0 16.79063,8.7491 16.79063,20.45084 0,11.70174 -6.78973,20.45083 -16.79063,20.45083 -6.25908,0 -10.9942,-3.21117 -13.75635,-8.12318 l 0,21.87953 c 0,1.4287 -1.17018,2.58527 -2.59888,2.58527 -1.4287,0 -2.58527,-1.15657 -2.58527,-2.58527 l 0,-51.71898"
       style="fill:#231f20;fill-opacity:1;fill-rule:nonzero;stroke:none"
       id="path6999" />
    <path
       inkscape:connector-curvature="0"
       d="m 668.59766,453.30045 c 0,-8.57221 -4.91201,-15.98785 -12.77667,-15.98785 -7.85106,0 -12.76307,7.41564 -12.76307,15.98785 0,8.5722 4.91201,15.98784 12.76307,15.98784 7.86466,0 12.77667,-7.41564 12.77667,-15.98784 z m -30.72388,0 c 0,-10.62682 6.69448,-20.45084 17.94721,-20.45084 11.25272,0 17.96081,9.82402 17.96081,20.45084 0,10.62681 -6.70809,20.45083 -17.96081,20.45083 -11.25273,0 -17.94721,-9.82402 -17.94721,-20.45083"
       style="fill:#231f20;fill-opacity:1;fill-rule:nonzero;stroke:none"
       id="path7003" />
    <path
       inkscape:connector-curvature="0"
       d="m 700.75023,438.03376 -0.098,0 c -7.14296,0 -10.98004,7.32039 -10.98004,17.23966 l 0,15.53882 c 0,1.34706 -1.07438,2.58527 -2.58527,2.58527 -1.52395,0 -2.59887,-1.23821 -2.59887,-2.58527 l 0,-35.00998 c 0,-1.52395 1.07438,-2.58527 2.59887,-2.58527 1.51034,0 2.58527,1.06132 2.58527,2.58527 l 0,6.5176 c 1.15657,-5.0889 5.63316,-9.10287 10.98059,-9.10287 l 0.19049,0 c 1.51034,0 2.49002,0.80225 2.49002,2.31314 0,1.4287 -0.88498,2.50363 -2.58527,2.50363"
       style="fill:#231f20;fill-opacity:1;fill-rule:nonzero;stroke:none"
       id="path7007" />
    <path
       inkscape:connector-curvature="0"
       d="m 719.41859,463.21971 c 0,2.93905 0.97968,5.00726 4.19086,5.00726 l 2.14985,0 c 1.33346,0 2.2315,0.97968 2.2315,2.2315 0,1.33345 -1.07439,2.23149 -2.2315,2.23149 l -2.32674,0 c -7.32039,0 -9.19811,-4.02758 -9.19811,-9.64713 l 0,-24.83219 -5.36103,0 c -1.15657,0 -2.13625,-0.97968 -2.13625,-2.14985 0,-1.15657 0.97968,-2.13625 2.13625,-2.13625 l 5.36103,0 0,-13.48422 c 0,-1.52394 1.07547,-2.59887 2.58527,-2.59887 1.52394,0 2.59887,1.07438 2.59887,2.59887 l 0,13.48422 7.32039,0 c 1.15657,0 2.14986,0.97968 2.14986,2.13625 0,1.17017 -0.99383,2.14985 -2.14986,2.14985 l -7.32039,0 0,25.00907"
       style="fill:#231f20;fill-opacity:1;fill-rule:nonzero;stroke:none"
       id="path7011" />
    <path
       inkscape:connector-curvature="0"
       d="m 749.35328,473.34308 c -1.30624,0 -2.36756,-1.06132 -2.36756,-2.36756 l 0,-50.83454 c 0,-1.29264 1.06132,-2.35396 2.36756,-2.35396 1.30624,0 2.36756,1.06132 2.36756,2.35396 l 0,22.49183 27.60795,0 0,-22.49183 c 0,-1.29264 1.06132,-2.35396 2.36756,-2.35396 1.30624,0 2.35395,1.06132 2.35395,2.35396 l 0,50.83454 c 0,1.30624 -1.04717,2.36756 -2.35395,2.36756 -1.30624,0 -2.36756,-1.06132 -2.36756,-2.36756 l 0,-24.11103 -27.60795,0 0,24.11103 c 0,1.30624 -1.06132,2.36756 -2.36756,2.36756"
       style="fill:#231f20;fill-opacity:1;fill-rule:nonzero;stroke:none"
       id="path7015" />
    <path
       inkscape:connector-curvature="0"
       d="m 811.25005,422.67182 -9.44303,0 0,45.78646 9.44303,0 c 13.68832,0 19.47115,-10.76288 19.47115,-22.90003 0,-12.13716 -5.78283,-22.88643 -19.47115,-22.88643 z m 0.32656,50.01814 -12.05551,0 c -1.38789,0 -2.44921,-1.06132 -2.44921,-2.36756 l 0,-49.5283 c 0,-1.30624 1.06132,-2.35396 2.36756,-2.35396 l 12.05552,0 c 15.79735,0 23.94775,11.72896 23.94775,27.11811 0,15.40276 -8.1504,27.13171 -23.86611,27.13171"
       style="fill:#231f20;fill-opacity:1;fill-rule:nonzero;stroke:none"
       id="path7019" />
    <path
       inkscape:connector-curvature="0"
       d="m 870.23499,473.34308 c -1.38788,0 -2.35395,-1.06132 -2.35395,-2.36756 l 0,-46.99746 -8.9668,7.25236 c -0.4082,0.32656 -0.8164,0.48984 -1.46952,0.48984 -1.14296,0 -2.04101,-0.89804 -2.04101,-2.041 0,-0.73476 0.24492,-1.38788 1.06133,-1.95936 l 11.56567,-9.19812 c 0.65312,-0.48984 1.2246,-0.73476 2.20428,-0.73476 1.46952,0 2.36756,0.8164 2.36756,2.35396 l 0,50.83454 c 0,1.30624 -0.97968,2.36756 -2.36756,2.36756"
       style="fill:#231f20;fill-opacity:1;fill-rule:nonzero;stroke:none"
       id="path7023" />
  </g>
</svg>
