<?xml version="1.0" encoding="UTF-8" standalone="no"?>
<!-- Created with Inkscape (http://www.inkscape.org/) -->

<svg
   xmlns:dc="http://purl.org/dc/elements/1.1/"
   xmlns:cc="http://creativecommons.org/ns#"
   xmlns:rdf="http://www.w3.org/1999/02/22-rdf-syntax-ns#"
   xmlns:svg="http://www.w3.org/2000/svg"
   xmlns="http://www.w3.org/2000/svg"
   xmlns:sodipodi="http://sodipodi.sourceforge.net/DTD/sodipodi-0.dtd"
   xmlns:inkscape="http://www.inkscape.org/namespaces/inkscape"
   width="747.57831"
   height="83"
   id="svg2"
   version="1.1"
   inkscape:version="0.48.1 "
   sodipodi:docname="Sky Sport HD Corner 2011.svg">
  <defs
     id="defs4">
    <clipPath
       id="clipPath22542"
       clipPathUnits="userSpaceOnUse">
      <path
         inkscape:connector-curvature="0"
         id="path22544"
         d="m 0,0 226.772,0 0,595.276 L 0,595.276 0,0 z" />
    </clipPath>
  </defs>
  <sodipodi:namedview
     id="base"
     pagecolor="#ffffff"
     bordercolor="#666666"
     borderopacity="1.0"
     inkscape:pageopacity="0.0"
     inkscape:pageshadow="2"
     inkscape:zoom="0.7"
     inkscape:cx="229.15807"
     inkscape:cy="316.242"
     inkscape:document-units="px"
     inkscape:current-layer="layer1"
     showgrid="false"
     inkscape:window-width="1618"
     inkscape:window-height="1028"
     inkscape:window-x="-8"
     inkscape:window-y="-8"
     inkscape:window-maximized="1"
     inkscape:snap-global="false"
     fit-margin-top="0"
     fit-margin-left="0"
     fit-margin-right="0"
     fit-margin-bottom="0">
    <inkscape:grid
       type="xygrid"
       id="grid30758"
       empspacing="5"
       visible="true"
       enabled="true"
       snapvisiblegridlinesonly="true" />
  </sodipodi:namedview>
  <metadata
     id="metadata7">
    <rdf:RDF>
      <cc:Work
         rdf:about="">
        <dc:format>image/svg+xml</dc:format>
        <dc:type
           rdf:resource="http://purl.org/dc/dcmitype/StillImage" />
        <dc:title></dc:title>
      </cc:Work>
    </rdf:RDF>
  </metadata>
  <g
     inkscape:label="Ebene 1"
     inkscape:groupmode="layer"
     id="layer1"
     transform="translate(0,-969.3622)">
    <path
       sodipodi:nodetypes="cscsccc"
       inkscape:connector-curvature="0"
       d="m 12.938799,969.36222 c 0,0 -12.938799,0 -12.938799,12.9388 l 0,57.15438 c 0,0 0,12.9068 12.938799,12.9068 l 612.061201,0 0,-82.99998 z"
       style="fill:#881f16;fill-opacity:1;stroke:none"
       id="path22548" />
    <path
       style="color:#000000;fill:#ffffff;fill-opacity:1;fill-rule:nonzero;stroke:none;stroke-width:1;marker:none;visibility:visible;display:inline;overflow:visible;enable-background:accumulate"
       d="m 153,975.36218 472,0 0,71.00002 -471.64286,0 z"
       id="rect31016"
       inkscape:connector-curvature="0"
       sodipodi:nodetypes="ccccc" />
    <path
       sodipodi:nodetypes="cscsccc"
       inkscape:connector-curvature="0"
       d="m 734.63949,969.3622 c 0,0 12.9388,0 12.9388,12.9388 l 0,57.1544 c 0,0 0,12.9068 -12.9388,12.9068 l -114.38416,0 0,-83 z"
       style="fill:#221f20;fill-opacity:1;stroke:none"
       id="path22548-1" />
    <g
       transform="matrix(20.141613,0,0,-20.141613,114.13793,1044.5056)"
       id="g22178">
      <path
         id="path22180"
         style="fill:#ffffff;fill-opacity:1;fill-rule:nonzero;stroke:none"
         d="m 0,0 c -0.014,-0.03 -0.037,-0.075 -0.111,-0.075 l -0.344,0 c -0.034,0 -0.075,0.03 -0.075,0.075 0,0.033 0.007,0.052 0.019,0.074 L -0.123,0.863 -0.978,2.14 -1.419,1.67 -0.855,0.829 c 0.033,-0.044 0.041,-0.067 0.041,-0.09 0,-0.036 -0.041,-0.07 -0.09,-0.07 l -0.388,0 c -0.056,0 -0.09,0.037 -0.127,0.089 l -0.654,0.945 0.725,0.781 c 0.052,0.06 0.101,0.09 0.19,0.09 l 0.418,0 c 0.09,0 0.139,-0.034 0.184,-0.105 L 0.127,1.382 0.613,2.484 c 0.022,0.056 0.056,0.09 0.127,0.09 l 0.347,0 C 1.128,2.574 1.166,2.54 1.166,2.499 1.166,2.476 1.158,2.451 1.143,2.424 L 0,0 z M -2.106,0.863 C -2.106,0.739 -2.2,0.669 -2.3,0.669 l -0.296,0 c -0.033,0 -0.075,0.034 -0.075,0.089 l 0,2.447 c 0,0.149 0.075,0.198 0.207,0.198 l 0.264,0 c 0.056,0 0.094,-0.038 0.094,-0.09 l 0,-2.45 z m -1.252,0.933 c 0.355,-0.082 0.523,-0.265 0.523,-0.567 0,-0.31 -0.212,-0.56 -0.721,-0.56 l -0.964,0 c -0.048,0 -0.071,0.034 -0.071,0.089 l 0,0.183 c 0,0.105 0.057,0.191 0.195,0.191 l 0.87,0 c 0.098,0 0.135,0.044 0.135,0.078 0,0.052 -0.037,0.086 -0.154,0.112 l -0.553,0.12 c -0.343,0.074 -0.526,0.261 -0.526,0.549 0,0.329 0.228,0.583 0.664,0.583 l 0.968,0 c 0.053,0 0.089,-0.034 0.089,-0.09 l 0,-0.183 c 0,-0.105 -0.055,-0.194 -0.197,-0.194 l -0.837,0 c -0.112,0 -0.145,-0.038 -0.145,-0.072 0,-0.055 0.033,-0.078 0.161,-0.108 l 0.563,-0.131"
         inkscape:connector-curvature="0" />
    </g>
    <g
       id="g30823"
       transform="matrix(30.588261,0,0,30.588261,-12956.789,-30058.756)">
      <path
         inkscape:connector-curvature="0"
         d="m 445.49195,1016.4348 0,-0.5437 -0.8175,0 0,0.5437 -0.245,0 0,-1.3325 0.245,0 0,0.545 0.8175,0 0,-0.545 0.24375,0 0,1.3325 -0.24375,0 z"
         style="fill:#ffffff;fill-opacity:1;fill-rule:nonzero;stroke:none"
         id="path22754" />
      <g
         id="g22756"
         transform="matrix(1.25,0,0,-1.25,446.02795,1015.1029)">
        <path
           inkscape:connector-curvature="0"
           d="m 0,0 0.708,0 c 0.198,0 0.36,-0.161 0.36,-0.361 l 0,-0.344 c 0,-0.199 -0.162,-0.361 -0.36,-0.361 L 0,-1.066 0,0 z m 0.197,-0.87 0.511,0 c 0.09,0 0.164,0.076 0.164,0.165 l 0,0.344 c 0,0.09 -0.074,0.166 -0.164,0.166 l -0.511,0 0,-0.675"
           style="fill:#ffffff;fill-opacity:1;fill-rule:nonzero;stroke:none"
           id="path22758" />
      </g>
    </g>
    <g
       transform="matrix(27.563035,0,0,-27.563035,-192.42893,8124.1244)"
       id="g30867"
       style="fill:#1b356b;fill-opacity:1">
      <g
         id="g22514"
         transform="translate(14.1572,257.3031)"
         style="fill:#1b356b;fill-opacity:1">
        <path
           inkscape:connector-curvature="0"
           d="m 0,0 -0.964,0 0,0.271 0.964,0 c 0.063,0 0.116,0.05 0.116,0.114 l 0,0.058 c 0,0.067 -0.071,0.086 -0.103,0.093 l -0.715,0.14 c -0.194,0.039 -0.325,0.183 -0.325,0.362 l 0,0.06 c 0,0.213 0.174,0.383 0.388,0.383 l 0.966,0 0,-0.271 -0.966,0 c -0.063,0 -0.114,-0.052 -0.114,-0.114 l 0,-0.058 c 0,-0.067 0.073,-0.087 0.105,-0.093 L 0.063,0.805 C 0.254,0.766 0.387,0.624 0.387,0.443 l 0,-0.058 C 0.387,0.17 0.215,0 0,0"
           style="fill:#1b356b;fill-opacity:1;fill-rule:nonzero;stroke:none"
           id="path22516" />
      </g>
      <g
         id="g22518"
         transform="translate(15.7563,257.7895)"
         style="fill:#1b356b;fill-opacity:1">
        <path
           inkscape:connector-curvature="0"
           d="m 0,0 -0.712,0 0,-0.486 -0.274,0 0,1.481 0.986,0 c 0.211,0 0.381,-0.171 0.381,-0.382 l 0,-0.234 C 0.381,0.17 0.209,0 0,0 M 0.108,0.616 C 0.108,0.674 0.058,0.723 0,0.723 l -0.712,0 0,-0.452 0.712,0 c 0.058,0 0.108,0.05 0.108,0.108 l 0,0.237"
           style="fill:#1b356b;fill-opacity:1;fill-rule:nonzero;stroke:none"
           id="path22520" />
      </g>
      <g
         id="g22522"
         transform="translate(16.3524,258.2739)"
         style="fill:#1b356b;fill-opacity:1">
        <path
           inkscape:connector-curvature="0"
           d="m 0,0 c 0,0.278 0.22,0.51 0.501,0.51 l 0.573,0 c 0.28,0 0.502,-0.23 0.502,-0.508 l 0,-0.465 c 0,-0.278 -0.222,-0.508 -0.502,-0.508 l -0.573,0 C 0.22,-0.971 0,-0.734 0,-0.457 L 0,0 z m 1.304,0.009 c 0,0.124 -0.105,0.23 -0.23,0.23 l -0.573,0 c -0.124,0 -0.23,-0.108 -0.23,-0.233 l 0,-0.469 c 0,-0.127 0.106,-0.237 0.23,-0.237 l 0.573,0 c 0.125,0 0.23,0.102 0.23,0.226 l 0,0.483"
           style="fill:#1b356b;fill-opacity:1;fill-rule:nonzero;stroke:none"
           id="path22524" />
      </g>
      <g
         id="g22526"
         transform="translate(18.4747,257.7981)"
         style="fill:#1b356b;fill-opacity:1">
        <path
           inkscape:connector-curvature="0"
           d="m 0,0 0,-0.495 -0.273,0 0,1.481 1.123,0 c 0.214,0 0.36,-0.147 0.36,-0.36 l 0,-0.267 C 1.21,0.185 1.108,0.049 0.951,0.011 l 0.321,-0.506 -0.325,0 L 0.633,0 0,0 z m 0.936,0.628 c 0,0.054 -0.032,0.087 -0.086,0.087 l -0.85,0 0,-0.444 0.85,0 c 0.054,0 0.086,0.035 0.086,0.088 l 0,0.269"
           style="fill:#1b356b;fill-opacity:1;fill-rule:nonzero;stroke:none"
           id="path22528" />
      </g>
      <g
         id="g22530"
         transform="translate(19.8866,258.517)"
         style="fill:#1b356b;fill-opacity:1">
        <path
           inkscape:connector-curvature="0"
           d="m 0,0 0,0.267 1.485,0 0,-0.267 -0.607,0 0,-1.214 -0.271,0 L 0.607,0 0,0 z"
           style="fill:#1b356b;fill-opacity:1;fill-rule:nonzero;stroke:none"
           id="path22532" />
      </g>
    </g>
    <g
       transform="matrix(33.613298,0,0,-33.613298,-6615.9423,17842.469)"
       id="g31165"
       style="fill:#1b356b;fill-opacity:1">
      <g
         id="g21704"
         transform="translate(210.3304,500.0863)"
         style="fill:#1b356b;fill-opacity:1">
        <path
           inkscape:connector-curvature="0"
           d="m 0,0 c -0.028,0 -0.055,0.012 -0.078,0.035 l -0.777,0.795 0,-0.83 -0.224,0 0,1.109 c 0,0.065 0.058,0.109 0.117,0.109 0.028,0 0.054,-0.012 0.075,-0.035 l 0.777,-0.798 0,0.83 0.223,0 0,-1.104 C 0.113,0.044 0.056,0 0,0"
           style="fill:#1b356b;fill-opacity:1;fill-rule:nonzero;stroke:none"
           id="path21706" />
      </g>
      <g
         id="g21708"
         transform="translate(211.8382,501.3012)"
         style="fill:#1b356b;fill-opacity:1">
        <path
           inkscape:connector-curvature="0"
           d="m 0,0 0,-0.224 -0.784,0 c -0.048,0 -0.088,-0.037 -0.088,-0.087 l 0,-0.185 0.823,0 0,-0.223 -0.823,0 0,-0.185 c 0,-0.048 0.04,-0.088 0.088,-0.088 l 0.784,0 0,-0.223 -0.784,0 c -0.171,0 -0.311,0.138 -0.311,0.311 l 0,0.593 c 0,0.173 0.14,0.311 0.311,0.311 L 0,0"
           style="fill:#1b356b;fill-opacity:1;fill-rule:nonzero;stroke:none"
           id="path21710" />
      </g>
      <g
         id="g21712"
         transform="translate(212.8003,500.9143)"
         style="fill:#1b356b;fill-opacity:1">
        <path
           inkscape:connector-curvature="0"
           d="m 0,0 -0.327,-0.761 c -0.019,-0.044 -0.058,-0.067 -0.097,-0.067 -0.046,0 -0.093,0.032 -0.107,0.083 l -0.316,1.132 0.229,0 0.214,-0.797 0.303,0.714 c 0.014,0.035 0.055,0.065 0.101,0.065 0.046,0 0.086,-0.03 0.1,-0.065 l 0.304,-0.714 0.214,0.797 0.229,0 -0.316,-1.132 C 0.517,-0.796 0.47,-0.828 0.424,-0.828 c -0.039,0 -0.078,0.023 -0.097,0.067 L 0,0"
           style="fill:#1b356b;fill-opacity:1;fill-rule:nonzero;stroke:none"
           id="path21714" />
      </g>
      <g
         id="g21716"
         transform="translate(214.5606,500.0863)"
         style="fill:#1b356b;fill-opacity:1">
        <path
           inkscape:connector-curvature="0"
           d="m 0,0 -0.791,0 0,0.223 0.791,0 c 0.051,0 0.096,0.04 0.096,0.093 l 0,0.048 c 0,0.054 -0.059,0.07 -0.085,0.076 l -0.587,0.115 c -0.158,0.031 -0.266,0.149 -0.266,0.296 l 0,0.05 c 0,0.174 0.143,0.314 0.317,0.314 l 0.794,0 0,-0.223 -0.794,0 c -0.051,0 -0.093,-0.042 -0.093,-0.093 l 0,-0.048 c 0,-0.054 0.06,-0.071 0.087,-0.076 L 0.051,0.66 C 0.208,0.629 0.318,0.512 0.318,0.364 l 0,-0.048 C 0.318,0.14 0.177,0 0,0"
           style="fill:#1b356b;fill-opacity:1;fill-rule:nonzero;stroke:none"
           id="path21718" />
      </g>
    </g>
  </g>
</svg>
