<?xml version="1.0" encoding="UTF-8" ?>
<!DOCTYPE svg PUBLIC "-//W3C//DTD SVG 1.1//EN" "http://www.w3.org/Graphics/SVG/1.1/DTD/svg11.dtd">
<svg width="500pt" height="167pt" viewBox="0 0 500 167" version="1.1" xmlns="http://www.w3.org/2000/svg">
<g id="#40221f8d">
<path fill="#40221f" opacity="0.55" d=" M 71.37 0.00 L 74.82 0.00 L 74.76 0.78 L 73.89 1.36 C 73.17 1.16 71.71 0.78 70.99 0.58 L 71.37 0.00 Z" />
</g>
<g id="#662d29ff">
<path fill="#662d29" opacity="1.00" d=" M 74.82 0.00 L 78.94 0.00 C 77.94 1.20 76.12 1.77 74.76 0.78 L 74.82 0.00 Z" />
</g>
<g id="#410001ff">
<path fill="#410001" opacity="1.00" d=" M 78.94 0.00 L 90.03 0.00 C 90.53 0.20 91.52 0.60 92.02 0.80 C 93.37 1.37 94.69 1.31 95.98 0.63 C 96.71 0.77 98.15 1.05 98.88 1.19 C 99.45 1.33 100.60 1.61 101.18 1.75 C 109.41 3.21 117.03 6.74 124.47 10.40 C 121.84 10.81 119.28 11.52 116.67 12.03 L 115.42 12.14 C 110.03 12.61 104.70 13.61 99.40 14.67 C 91.61 8.96 83.01 4.52 73.89 1.36 L 74.76 0.78 C 76.12 1.77 77.94 1.20 78.94 0.00 Z" />
</g>
<g id="#6d3b36ff">
<path fill="#6d3b36" opacity="1.00" d=" M 90.03 0.00 L 91.98 0.00 L 92.02 0.80 C 91.52 0.60 90.53 0.20 90.03 0.00 Z" />
</g>
<g id="#3a1f1c8c">
<path fill="#3a1f1c" opacity="0.55" d=" M 91.98 0.00 L 95.62 0.00 L 95.98 0.63 C 94.69 1.31 93.37 1.37 92.02 0.80 L 91.98 0.00 Z" />
</g>
<g id="#49292699">
<path fill="#492926" opacity="0.60" d=" M 66.30 1.00 C 66.77 1.05 67.71 1.14 68.18 1.19 C 67.60 1.32 66.45 1.60 65.87 1.74 L 66.30 1.00 Z" />
</g>
<g id="#4e0105ff">
<path fill="#4e0105" opacity="1.00" d=" M 68.18 1.19 C 68.88 1.03 70.29 0.73 70.99 0.58 C 71.71 0.78 73.17 1.16 73.89 1.36 C 83.01 4.52 91.61 8.96 99.40 14.67 C 95.59 15.50 91.82 16.48 88.07 17.53 C 77.82 10.64 65.64 6.88 53.30 6.63 C 53.47 6.28 53.80 5.56 53.97 5.20 C 57.82 3.67 61.81 2.54 65.87 1.74 C 66.45 1.60 67.60 1.32 68.18 1.19 Z" />
</g>
<g id="#41252299">
<path fill="#412522" opacity="0.60" d=" M 98.88 1.19 C 99.35 1.15 100.28 1.06 100.75 1.01 L 101.18 1.75 C 100.60 1.61 99.45 1.33 98.88 1.19 Z" />
</g>
<g id="#7e2a23ff">
<path fill="#7e2a23" opacity="1.00" d=" M 15.87 34.77 C 25.36 21.51 38.70 10.97 53.97 5.20 C 53.80 5.56 53.47 6.28 53.30 6.63 C 65.64 6.88 77.82 10.64 88.07 17.53 C 85.10 18.37 82.18 19.36 79.31 20.49 C 76.02 21.72 72.74 22.98 69.52 24.38 C 66.75 23.33 63.82 23.74 60.98 24.17 C 57.69 24.72 54.37 23.72 51.08 24.20 C 47.87 25.38 45.01 27.62 41.46 27.76 C 32.84 28.75 25.25 33.13 17.40 36.45 C 17.02 36.03 16.25 35.19 15.87 34.77 Z" />
</g>
<g id="#361e1c8b">
<path fill="#361e1c" opacity="0.55" d=" M 124.47 10.40 L 125.45 10.82 C 122.67 12.02 119.65 12.09 116.67 12.03 C 119.28 11.52 121.84 10.81 124.47 10.40 Z" />
</g>
<g id="#959b9cff">
<path fill="#959b9c" opacity="1.00" d=" M 99.40 14.67 C 104.70 13.61 110.03 12.61 115.42 12.14 C 125.91 17.39 135.74 24.33 143.15 33.51 C 144.22 33.69 145.30 33.85 146.38 33.97 C 142.76 33.75 139.14 33.53 135.52 33.45 C 129.94 33.32 124.36 33.66 118.79 33.93 C 122.09 33.27 125.41 32.68 128.78 32.46 C 131.13 28.44 126.61 25.27 123.55 23.52 C 114.66 18.10 103.90 19.28 93.97 19.43 C 89.04 19.35 84.19 22.07 79.31 20.49 C 82.18 19.36 85.10 18.37 88.07 17.53 C 91.82 16.48 95.59 15.50 99.40 14.67 Z" />
</g>
<g id="#b5b9b7ff">
<path fill="#b5b9b7" opacity="1.00" d=" M 79.31 20.49 C 84.19 22.07 89.04 19.35 93.97 19.43 C 103.90 19.28 114.66 18.10 123.55 23.52 C 126.61 25.27 131.13 28.44 128.78 32.46 C 125.41 32.68 122.09 33.27 118.79 33.93 C 115.72 34.39 112.64 34.76 109.56 35.12 C 109.11 35.18 108.22 35.31 107.78 35.37 C 109.46 34.26 111.10 33.07 112.77 31.92 C 112.26 28.21 108.60 26.50 105.45 25.41 C 100.82 23.96 95.89 23.18 91.06 23.91 C 69.16 26.10 48.08 37.07 34.32 54.34 C 32.19 57.23 29.89 60.32 29.46 63.99 C 29.23 65.83 30.97 66.99 31.93 68.31 C 28.96 67.86 26.03 67.21 23.10 66.60 C 25.34 60.16 29.24 54.48 33.61 49.32 C 43.51 38.41 56.20 30.44 69.52 24.38 C 72.74 22.98 76.02 21.72 79.31 20.49 Z" />
</g>
<g id="#83342bff">
<path fill="#83342b" opacity="1.00" d=" M 60.98 24.17 C 63.82 23.74 66.75 23.33 69.52 24.38 C 56.20 30.44 43.51 38.41 33.61 49.32 C 30.27 50.92 26.66 51.87 23.30 53.43 C 17.65 54.10 11.23 53.26 6.69 57.45 C 6.18 57.37 5.15 57.20 4.63 57.11 C 7.19 49.14 11.07 41.61 15.87 34.77 C 16.25 35.19 17.02 36.03 17.40 36.45 C 25.25 33.13 32.84 28.75 41.46 27.76 C 45.01 27.62 47.87 25.38 51.08 24.20 C 54.37 23.72 57.69 24.72 60.98 24.17 Z" />
</g>
<g id="#d3d5d0ff">
<path fill="#d3d5d0" opacity="1.00" d=" M 34.32 54.34 C 48.08 37.07 69.16 26.10 91.06 23.91 C 95.89 23.18 100.82 23.96 105.45 25.41 C 108.60 26.50 112.26 28.21 112.77 31.92 C 111.10 33.07 109.46 34.26 107.78 35.37 C 98.97 37.02 90.26 39.27 81.85 42.39 L 81.32 41.37 C 87.56 38.54 94.35 37.24 100.62 34.51 C 102.18 33.94 102.65 32.20 103.52 30.96 C 97.31 26.51 89.18 26.52 81.96 27.90 C 66.98 30.77 52.60 37.93 42.18 49.20 C 38.57 52.95 34.32 56.69 32.98 61.92 C 32.26 64.67 34.58 66.79 35.93 68.88 C 34.59 68.69 33.26 68.50 31.93 68.31 C 30.97 66.99 29.23 65.83 29.46 63.99 C 29.89 60.32 32.19 57.23 34.32 54.34 Z" />
<path fill="#d3d5d0" opacity="1.00" d=" M 334.91 105.97 C 389.30 105.88 443.70 105.87 498.09 105.91 C 492.49 106.32 486.87 106.02 481.27 106.11 C 474.49 106.11 467.72 106.09 460.94 106.10 C 453.55 106.11 446.16 106.09 438.78 106.10 C 430.58 106.11 422.39 106.09 414.20 106.08 C 406.42 106.13 398.64 106.07 390.86 106.10 C 381.09 106.13 371.33 106.05 361.57 106.11 C 352.68 106.08 343.79 106.24 334.91 105.97 Z" />
</g>
<g id="#e4e5deff">
<path fill="#e4e5de" opacity="1.00" d=" M 81.96 27.90 C 89.18 26.52 97.31 26.51 103.52 30.96 C 102.65 32.20 102.18 33.94 100.62 34.51 C 94.35 37.24 87.56 38.54 81.32 41.37 L 81.85 42.39 C 75.52 44.70 69.43 47.63 63.69 51.15 C 64.17 51.30 65.13 51.60 65.62 51.75 C 67.12 54.44 69.19 56.92 72.39 57.54 C 86.15 61.38 100.41 63.74 113.62 69.37 C 121.75 73.28 130.11 78.69 133.59 87.41 C 136.59 95.43 132.98 104.41 127.31 110.31 C 118.86 119.44 106.98 124.15 95.64 128.56 C 83.81 132.50 71.11 135.70 58.61 133.34 C 54.28 132.17 48.85 130.30 47.98 125.24 C 51.04 123.26 54.40 121.78 57.98 121.02 C 75.32 116.82 92.96 112.47 108.60 103.57 C 110.93 102.16 114.12 100.68 113.62 97.43 C 115.27 96.17 116.85 94.83 118.35 93.41 C 118.09 96.05 118.35 99.24 116.18 101.19 C 111.82 105.18 106.30 107.56 101.02 110.05 C 90.51 114.84 79.36 117.89 68.43 121.49 C 64.42 122.74 60.20 123.56 56.67 125.98 C 61.73 132.28 70.74 130.89 77.84 130.45 C 92.18 127.58 106.35 122.62 118.58 114.46 C 123.61 109.89 129.62 105.30 131.24 98.32 C 132.06 94.45 132.12 90.19 130.31 86.58 C 127.81 81.40 123.28 77.46 118.27 74.76 C 105.02 67.17 89.68 64.92 75.14 60.92 C 70.69 59.59 65.29 58.68 62.70 54.35 C 60.65 51.29 63.33 47.64 65.80 45.76 C 73.38 40.06 82.99 38.23 91.17 33.62 C 88.68 31.86 85.64 31.24 82.62 31.59 C 68.45 32.97 54.92 39.74 45.11 50.02 C 41.88 54.50 36.48 58.49 37.21 64.64 C 47.35 69.50 58.61 71.02 69.48 73.47 C 83.04 76.79 96.72 79.92 109.67 85.26 C 111.21 85.86 112.08 87.34 113.16 88.50 C 106.65 85.33 99.76 83.06 92.77 81.24 C 86.43 79.58 80.09 77.90 73.71 76.41 C 62.15 73.65 50.48 71.44 38.78 69.34 C 37.83 69.17 36.88 69.02 35.93 68.88 C 34.58 66.79 32.26 64.67 32.98 61.92 C 34.32 56.69 38.57 52.95 42.18 49.20 C 52.60 37.93 66.98 30.77 81.96 27.90 Z" />
</g>
<g id="#f8f9f6ff">
<path fill="#f8f9f6" opacity="1.00" d=" M 45.11 50.02 C 54.92 39.74 68.45 32.97 82.62 31.59 C 85.64 31.24 88.68 31.86 91.17 33.62 C 82.99 38.23 73.38 40.06 65.80 45.76 C 63.33 47.64 60.65 51.29 62.70 54.35 C 65.29 58.68 70.69 59.59 75.14 60.92 C 89.68 64.92 105.02 67.17 118.27 74.76 C 123.28 77.46 127.81 81.40 130.31 86.58 C 132.12 90.19 132.06 94.45 131.24 98.32 C 129.62 105.30 123.61 109.89 118.58 114.46 C 106.35 122.62 92.18 127.58 77.84 130.45 C 70.74 130.89 61.73 132.28 56.67 125.98 C 60.20 123.56 64.42 122.74 68.43 121.49 C 79.36 117.89 90.51 114.84 101.02 110.05 C 106.30 107.56 111.82 105.18 116.18 101.19 C 118.35 99.24 118.09 96.05 118.35 93.41 C 118.37 93.12 118.39 92.53 118.41 92.23 C 116.67 90.96 114.90 89.75 113.16 88.50 C 112.08 87.34 111.21 85.86 109.67 85.26 C 96.72 79.92 83.04 76.79 69.48 73.47 C 58.61 71.02 47.35 69.50 37.21 64.64 C 36.48 58.49 41.88 54.50 45.11 50.02 Z" />
</g>
<g id="#500107ff">
<path fill="#500107" opacity="1.00" d=" M 109.56 35.12 C 112.64 34.76 115.72 34.39 118.79 33.93 C 124.36 33.66 129.94 33.32 135.52 33.45 C 137.27 37.10 139.50 40.49 141.43 44.05 C 141.26 44.41 140.92 45.15 140.75 45.52 C 145.61 54.49 144.98 65.10 144.38 74.94 C 144.67 77.92 145.92 80.94 144.82 83.91 C 143.67 87.56 143.04 91.32 142.50 95.10 C 142.18 95.46 141.54 96.17 141.22 96.53 C 142.35 88.58 138.75 80.80 133.01 75.45 C 132.68 72.86 132.19 70.26 131.16 67.85 C 126.30 56.09 119.61 44.66 109.50 36.66 C 109.51 36.27 109.54 35.50 109.56 35.12 Z" />
</g>
<g id="#440004ff">
<path fill="#440004" opacity="1.00" d=" M 135.52 33.45 C 139.14 33.53 142.76 33.75 146.38 33.97 C 147.86 34.07 149.34 34.15 150.82 34.24 C 153.25 37.55 155.25 41.13 157.28 44.69 C 156.29 46.08 157.19 48.44 159.06 48.26 C 159.36 49.12 159.67 49.96 160.00 50.81 C 159.67 52.51 160.00 54.77 161.99 55.26 C 162.68 58.12 163.58 60.92 164.29 63.77 C 164.43 64.37 164.70 65.57 164.84 66.17 C 164.96 66.83 165.19 68.15 165.30 68.81 C 164.44 70.47 164.11 72.98 166.11 73.97 C 166.12 74.29 166.14 74.93 166.14 75.25 C 166.09 80.37 166.11 85.49 166.14 90.61 C 166.14 90.97 166.12 91.67 166.11 92.03 C 164.09 93.00 164.44 95.52 165.31 97.16 C 164.87 99.44 164.41 101.71 164.02 104.00 C 161.95 105.23 161.65 107.79 161.86 109.97 L 161.87 110.80 C 160.14 111.47 159.29 113.57 160.17 115.24 C 157.72 120.50 155.16 125.76 151.68 130.44 C 151.63 130.51 151.53 130.65 151.48 130.72 C 149.35 134.06 146.60 136.92 144.15 140.01 C 142.23 139.46 140.38 141.26 141.01 143.20 C 135.32 148.24 129.32 152.99 122.53 156.47 C 122.29 154.01 123.88 152.02 124.97 149.98 C 129.60 141.92 132.93 133.05 134.32 123.84 C 135.34 118.40 136.42 112.89 135.78 107.33 C 138.34 104.15 139.87 100.34 141.22 96.53 C 141.54 96.17 142.18 95.46 142.50 95.10 C 143.04 91.32 143.67 87.56 144.82 83.91 C 145.92 80.94 144.67 77.92 144.38 74.94 C 144.98 65.10 145.61 54.49 140.75 45.52 C 140.92 45.15 141.26 44.41 141.43 44.05 C 139.50 40.49 137.27 37.10 135.52 33.45 Z" />
</g>
<g id="#85322aff">
<path fill="#85322a" opacity="1.00" d=" M 81.85 42.39 C 90.26 39.27 98.97 37.02 107.78 35.37 C 108.22 35.31 109.11 35.18 109.56 35.12 C 109.54 35.50 109.51 36.27 109.50 36.66 C 119.61 44.66 126.30 56.09 131.16 67.85 C 132.19 70.26 132.68 72.86 133.01 75.45 C 124.17 67.96 113.23 63.59 102.17 60.56 C 93.17 58.13 84.16 55.69 75.04 53.73 C 71.90 53.05 68.76 52.42 65.62 51.75 C 65.13 51.60 64.17 51.30 63.69 51.15 C 69.43 47.63 75.52 44.70 81.85 42.39 Z" />
</g>
<g id="#1411125c">
<path fill="#141112" opacity="0.36" d=" M 348.49 42.08 C 350.48 39.82 354.24 41.71 356.96 41.27 C 361.41 41.93 366.42 39.86 370.48 42.01 C 363.15 41.84 355.81 41.66 348.49 42.08 Z" />
</g>
<g id="#131111d8">
<path fill="#131111" opacity="0.85" d=" M 175.12 42.03 C 180.72 41.94 186.32 42.03 191.93 41.97 C 192.31 43.06 192.69 44.14 193.08 45.22 C 192.11 44.44 191.29 43.18 189.95 43.06 C 185.73 42.52 181.46 42.77 177.24 43.11 C 177.12 43.67 176.89 44.79 176.77 45.35 C 176.21 44.25 175.67 43.14 175.12 42.03 Z" />
</g>
<g id="#121010bd">
<path fill="#121010" opacity="0.74" d=" M 218.04 41.99 C 223.63 42.07 229.23 41.83 234.82 42.14 C 234.23 43.55 233.58 44.93 232.89 46.28 C 233.19 45.09 233.48 43.90 233.74 42.71 C 229.17 42.61 224.55 42.17 220.00 42.79 C 218.65 42.91 217.95 44.24 217.10 45.11 C 217.42 44.07 217.73 43.03 218.04 41.99 Z" />
</g>
<g id="#211e1ed6">
<path fill="#211e1e" opacity="0.84" d=" M 244.02 42.02 C 249.42 42.28 255.00 41.43 260.28 42.46 C 255.22 42.76 250.14 42.42 245.07 42.75 C 245.04 60.90 245.00 79.05 245.09 97.19 C 250.13 97.44 255.17 97.18 260.22 97.42 C 254.91 98.42 249.41 97.58 244.03 97.85 C 243.97 79.24 243.99 60.63 244.02 42.02 Z" />
</g>
<g id="#141212e2">
<path fill="#141212" opacity="0.89" d=" M 293.28 42.34 C 297.00 41.70 300.90 41.88 304.66 42.21 L 305.35 42.92 C 301.08 42.84 296.76 42.67 292.60 43.78 C 292.77 43.42 293.11 42.70 293.28 42.34 Z" />
</g>
<g id="#2321219f">
<path fill="#232121" opacity="0.62" d=" M 344.21 43.17 C 344.02 41.41 347.06 41.16 347.95 42.32 C 346.82 43.00 345.52 43.32 344.21 43.17 Z" />
</g>
<g id="#000000ff">
<path fill="#000000" opacity="1.00" d=" M 347.95 42.32 L 348.49 42.08 C 355.81 41.66 363.15 41.84 370.48 42.01 C 376.01 42.64 382.02 46.29 382.97 52.11 C 383.18 52.60 383.62 53.56 383.84 54.04 C 384.05 54.79 384.46 56.30 384.67 57.05 C 383.80 57.04 382.06 57.01 381.19 56.99 C 378.20 56.96 375.24 57.39 372.29 57.86 C 371.81 57.92 370.83 58.05 370.34 58.11 C 369.81 55.56 367.59 53.93 365.00 54.27 C 359.85 54.62 354.31 53.21 349.49 55.52 C 348.79 58.43 348.01 62.74 351.53 64.12 C 359.59 66.09 368.06 64.52 376.29 64.97 C 379.76 65.80 382.74 68.32 384.07 71.64 C 384.10 77.21 383.99 82.78 384.15 88.35 C 381.74 95.77 373.08 97.95 366.12 97.92 C 361.73 98.02 357.35 98.41 352.96 98.05 C 347.98 97.77 342.47 96.94 338.86 93.15 C 335.88 90.19 334.81 85.97 334.09 81.98 C 335.56 82.16 337.03 81.74 338.52 81.89 C 341.82 82.03 345.14 82.01 348.42 81.52 C 349.18 83.43 350.61 85.42 352.97 85.12 C 358.34 84.85 363.94 85.98 369.12 84.21 C 370.15 81.49 370.62 78.16 368.51 75.81 C 359.39 73.96 349.80 76.28 340.67 73.94 C 338.00 72.71 335.78 70.52 334.86 67.68 C 335.11 61.98 335.02 56.28 334.87 50.58 C 336.41 46.81 340.10 43.56 344.21 43.17 C 345.52 43.32 346.82 43.00 347.95 42.32 Z" />
<path fill="#000000" opacity="1.00" d=" M 177.24 43.11 C 181.46 42.77 185.73 42.52 189.95 43.06 C 191.29 43.18 192.11 44.44 193.08 45.22 C 197.16 55.80 200.85 66.55 205.17 77.04 C 209.11 66.38 213.11 55.75 217.10 45.11 C 217.95 44.24 218.65 42.91 220.00 42.79 C 224.55 42.17 229.17 42.61 233.74 42.71 C 233.48 43.90 233.19 45.09 232.89 46.28 C 231.30 50.40 229.35 54.38 227.70 58.48 C 227.68 58.53 227.63 58.64 227.61 58.69 C 222.23 71.48 216.47 84.11 211.29 96.97 C 207.55 96.97 203.81 96.94 200.06 96.91 C 199.36 96.19 198.67 95.47 197.98 94.75 C 197.09 93.25 196.41 91.60 196.06 89.89 C 195.83 89.41 195.37 88.46 195.15 87.98 C 188.82 73.88 182.82 59.59 176.77 45.35 C 176.89 44.79 177.12 43.67 177.24 43.11 Z" />
<path fill="#000000" opacity="1.00" d=" M 245.07 42.75 C 250.14 42.42 255.22 42.76 260.28 42.46 C 259.86 60.76 259.99 79.11 260.22 97.42 C 255.17 97.18 250.13 97.44 245.09 97.19 C 245.00 79.05 245.04 60.90 245.07 42.75 Z" />
<path fill="#000000" opacity="1.00" d=" M 292.60 43.78 C 296.76 42.67 301.08 42.84 305.35 42.92 C 312.98 61.19 320.81 79.39 328.83 97.49 C 323.35 96.68 317.80 97.11 312.29 96.85 C 312.02 96.30 311.48 95.19 311.21 94.63 C 310.75 93.66 310.31 92.69 309.90 91.70 C 302.70 91.70 295.50 91.61 288.30 91.76 C 287.67 93.53 287.08 95.32 286.58 97.13 C 281.46 96.83 276.34 97.10 271.22 96.87 C 271.11 96.37 270.89 95.38 270.78 94.89 C 272.19 91.57 273.52 88.20 275.17 84.99 C 275.40 84.51 275.85 83.56 276.08 83.08 C 281.14 69.82 287.45 57.03 292.60 43.78 M 299.15 63.53 C 296.62 69.10 294.98 75.04 292.38 80.59 C 292.30 80.92 292.15 81.59 292.07 81.92 C 296.78 82.06 301.49 82.01 306.21 81.99 L 306.02 80.90 C 305.26 78.96 304.60 76.98 303.66 75.12 C 304.93 73.93 303.88 70.47 302.01 70.98 C 301.46 68.35 300.46 65.86 299.15 63.53 Z" />
<path fill="#000000" opacity="1.00" d=" M 412.91 43.03 C 416.96 42.86 421.02 42.87 425.07 43.10 C 430.54 55.61 435.85 68.19 441.29 80.72 C 441.88 82.19 442.74 83.60 442.89 85.21 C 443.13 85.68 443.62 86.62 443.87 87.09 C 445.18 89.47 446.22 92.00 447.14 94.55 C 447.08 95.12 446.95 96.26 446.88 96.83 C 441.72 96.92 436.42 97.56 431.39 96.10 C 430.92 94.70 430.51 93.28 430.06 91.87 C 422.75 91.49 415.40 91.72 408.08 91.75 C 407.65 93.13 407.24 94.52 406.84 95.91 C 401.38 97.89 395.52 96.55 389.87 96.89 C 390.37 95.46 390.91 94.05 391.51 92.66 C 391.53 92.61 391.57 92.51 391.59 92.47 C 393.56 88.39 394.96 84.06 397.12 80.08 C 397.37 79.61 397.86 78.68 398.11 78.21 C 398.20 77.82 398.37 77.05 398.45 76.67 C 403.23 65.44 408.08 54.24 412.91 43.03 M 418.20 65.25 C 416.36 69.74 414.76 74.32 413.05 78.85 C 412.24 79.72 411.84 80.76 411.84 81.97 C 416.67 82.04 421.51 82.01 426.35 82.00 C 425.88 80.23 425.25 78.52 424.32 76.95 C 422.81 72.97 421.25 69.00 419.89 64.97 C 421.60 62.34 416.13 62.92 418.20 65.25 Z" />
<path fill="#000000" opacity="1.00" d=" M 444.03 42.85 C 446.68 42.66 449.35 42.44 452.02 42.50 C 467.86 42.61 483.70 42.43 499.54 42.59 C 499.53 46.93 499.54 51.27 499.53 55.61 C 492.81 55.50 486.10 55.54 479.39 55.57 C 479.33 69.59 479.37 83.62 479.37 97.64 C 474.24 97.66 469.11 97.60 463.98 97.72 C 463.89 83.76 464.18 69.79 463.84 55.85 L 463.76 55.19 C 457.20 54.89 450.63 55.26 444.08 54.95 C 443.93 50.92 443.92 46.88 444.03 42.85 Z" />
</g>
<g id="#161314e2">
<path fill="#161314" opacity="0.89" d=" M 413.01 42.00 C 417.05 41.99 421.10 41.95 425.15 42.11 L 425.07 43.10 C 421.02 42.87 416.96 42.86 412.91 43.03 L 413.01 42.00 Z" />
</g>
<g id="#0f0d0eb9">
<path fill="#0f0d0e" opacity="0.73" d=" M 444.06 55.87 C 443.44 51.30 443.98 46.60 443.85 41.99 C 462.39 42.01 480.93 42.00 499.46 41.99 L 499.54 42.59 C 483.70 42.43 467.86 42.61 452.02 42.50 C 449.35 42.44 446.68 42.66 444.03 42.85 C 443.92 46.88 443.93 50.92 444.08 54.95 C 450.63 55.26 457.20 54.89 463.76 55.19 L 463.84 55.85 C 457.25 55.88 450.65 55.95 444.06 55.87 Z" />
</g>
<g id="#4d1d1cd5">
<path fill="#4d1d1c" opacity="0.84" d=" M 157.28 44.69 C 158.13 45.73 158.76 46.94 159.06 48.26 C 157.19 48.44 156.29 46.08 157.28 44.69 Z" />
</g>
<g id="#813c33ff">
<path fill="#813c33" opacity="1.00" d=" M 23.30 53.43 C 26.66 51.87 30.27 50.92 33.61 49.32 C 29.24 54.48 25.34 60.16 23.10 66.60 C 22.21 69.25 21.61 71.99 21.06 74.73 C 19.16 76.24 17.27 77.77 15.39 79.31 C 14.87 78.48 14.35 77.64 13.82 76.81 C 9.42 78.29 4.83 79.19 0.48 80.83 C 1.01 72.81 2.05 64.76 4.63 57.11 C 5.15 57.20 6.18 57.37 6.69 57.45 C 11.23 53.26 17.65 54.10 23.30 53.43 Z" />
</g>
<g id="#3b1c1a95">
<path fill="#3b1c1a" opacity="0.58" d=" M 160.00 50.81 C 161.41 51.86 161.95 53.56 161.99 55.26 C 160.00 54.77 159.67 52.51 160.00 50.81 Z" />
</g>
<g id="#242122de">
<path fill="#242122" opacity="0.87" d=" M 334.86 67.68 C 333.37 62.19 333.49 56.10 334.87 50.58 C 335.02 56.28 335.11 61.98 334.86 67.68 Z" />
</g>
<g id="#cfd1ceff">
<path fill="#cfd1ce" opacity="1.00" d=" M 65.62 51.75 C 68.76 52.42 71.90 53.05 75.04 53.73 C 74.54 53.99 73.54 54.49 73.05 54.74 C 89.75 59.59 107.57 62.00 122.60 71.31 C 128.89 75.36 134.84 81.04 136.57 88.60 C 138.10 93.61 137.13 99.05 134.84 103.67 C 132.73 108.22 128.76 111.48 126.16 115.71 C 123.14 117.85 119.92 119.70 116.62 121.39 C 110.79 124.39 104.73 126.93 98.56 129.16 C 89.68 132.27 80.61 134.87 71.38 136.70 C 64.22 136.13 56.70 137.36 49.96 134.26 C 46.26 132.99 43.08 130.54 41.45 126.92 C 42.49 125.49 43.22 123.70 44.86 122.83 C 50.34 119.57 56.82 119.07 62.88 117.53 C 69.29 115.88 75.77 114.45 82.04 112.31 C 81.48 112.16 80.35 111.86 79.79 111.71 C 91.56 108.30 103.24 104.05 113.62 97.43 C 114.12 100.68 110.93 102.16 108.60 103.57 C 92.96 112.47 75.32 116.82 57.98 121.02 C 54.40 121.78 51.04 123.26 47.98 125.24 C 48.85 130.30 54.28 132.17 58.61 133.34 C 71.11 135.70 83.81 132.50 95.64 128.56 C 106.98 124.15 118.86 119.44 127.31 110.31 C 132.98 104.41 136.59 95.43 133.59 87.41 C 130.11 78.69 121.75 73.28 113.62 69.37 C 100.41 63.74 86.15 61.38 72.39 57.54 C 69.19 56.92 67.12 54.44 65.62 51.75 Z" />
</g>
<g id="#262424b1">
<path fill="#262424" opacity="0.69" d=" M 382.97 52.11 L 383.86 52.26 L 384.31 53.25 L 383.84 54.04 C 383.62 53.56 383.18 52.60 382.97 52.11 Z" />
</g>
<g id="#b0b4b1ff">
<path fill="#b0b4b1" opacity="1.00" d=" M 73.05 54.74 C 73.54 54.49 74.54 53.99 75.04 53.73 C 84.16 55.69 93.17 58.13 102.17 60.56 C 113.23 63.59 124.17 67.96 133.01 75.45 C 138.75 80.80 142.35 88.58 141.22 96.53 C 139.87 100.34 138.34 104.15 135.78 107.33 C 132.96 110.53 129.78 113.43 126.16 115.71 C 128.76 111.48 132.73 108.22 134.84 103.67 C 137.13 99.05 138.10 93.61 136.57 88.60 C 134.84 81.04 128.89 75.36 122.60 71.31 C 107.57 62.00 89.75 59.59 73.05 54.74 Z" />
</g>
<g id="#848b8dff">
<path fill="#848b8d" opacity="1.00" d=" M 479.39 55.57 C 486.10 55.54 492.81 55.50 499.53 55.61 C 492.98 55.74 486.44 55.61 479.90 55.68 C 479.84 69.69 479.94 83.71 479.85 97.72 C 474.56 97.77 469.27 97.81 463.98 97.72 C 469.11 97.60 474.24 97.66 479.37 97.64 C 479.37 83.62 479.33 69.59 479.39 55.57 Z" />
<path fill="#848b8d" opacity="1.00" d=" M 12.69 114.03 C 17.34 115.81 22.18 117.09 27.14 117.62 C 32.79 118.21 38.49 118.22 44.17 118.14 C 41.24 118.50 38.31 118.94 35.37 119.22 C 33.05 119.13 30.55 118.16 28.34 119.30 C 24.96 120.85 21.80 122.86 18.46 124.50 C 16.23 121.18 14.63 117.51 12.69 114.03 Z" />
</g>
<g id="#292727b0">
<path fill="#292727" opacity="0.69" d=" M 372.29 57.86 C 375.24 57.39 378.20 56.96 381.19 56.99 L 381.27 57.89 C 378.28 57.74 375.28 57.91 372.29 57.86 Z" />
</g>
<g id="#312e2ec1">
<path fill="#312e2e" opacity="0.76" d=" M 227.61 58.69 C 227.63 58.64 227.68 58.53 227.70 58.48 C 227.68 58.53 227.63 58.64 227.61 58.69 Z" />
</g>
<g id="#1d1b1b98">
<path fill="#1d1b1b" opacity="0.60" d=" M 418.20 65.25 C 416.13 62.92 421.60 62.34 419.89 64.97 C 419.47 65.04 418.62 65.18 418.20 65.25 Z" />
</g>
<g id="#4324229b">
<path fill="#432422" opacity="0.61" d=" M 164.29 63.77 C 164.43 64.37 164.70 65.57 164.84 66.17 C 164.70 65.57 164.43 64.37 164.29 63.77 Z" />
</g>
<g id="#282525d1">
<path fill="#282525" opacity="0.82" d=" M 351.53 64.12 C 359.77 64.20 368.18 63.19 376.29 64.97 C 368.06 64.52 359.59 66.09 351.53 64.12 Z" />
</g>
<g id="#690a11ff">
<path fill="#690a11" opacity="1.00" d=" M 21.06 74.73 C 21.61 71.99 22.21 69.25 23.10 66.60 C 26.03 67.21 28.96 67.86 31.93 68.31 C 33.26 68.50 34.59 68.69 35.93 68.88 C 36.88 69.02 37.83 69.17 38.78 69.34 C 37.49 75.45 39.11 81.65 39.46 87.78 C 41.38 94.27 45.61 99.94 50.45 104.57 C 54.89 108.86 60.66 111.28 65.47 115.06 C 58.44 116.53 51.32 117.47 44.17 118.14 C 38.49 118.22 32.79 118.21 27.14 117.62 C 25.59 112.04 23.44 106.63 22.31 100.93 C 20.43 92.34 20.24 83.46 21.06 74.73 Z" />
</g>
<g id="#4b2523bf">
<path fill="#4b2523" opacity="0.75" d=" M 165.30 68.81 C 166.05 70.43 166.27 72.20 166.11 73.97 C 164.11 72.98 164.44 70.47 165.30 68.81 Z" />
</g>
<g id="#7a1216ff">
<path fill="#7a1216" opacity="1.00" d=" M 38.78 69.34 C 50.48 71.44 62.15 73.65 73.71 76.41 C 72.33 82.83 76.80 90.91 84.03 90.36 C 89.01 90.25 90.74 84.86 92.77 81.24 C 99.76 83.06 106.65 85.33 113.16 88.50 C 114.90 89.75 116.67 90.96 118.41 92.23 C 118.39 92.53 118.37 93.12 118.35 93.41 C 116.85 94.83 115.27 96.17 113.62 97.43 C 103.24 104.05 91.56 108.30 79.79 111.71 C 75.02 112.85 70.30 114.19 65.47 115.06 C 60.66 111.28 54.89 108.86 50.45 104.57 C 45.61 99.94 41.38 94.27 39.46 87.78 C 39.11 81.65 37.49 75.45 38.78 69.34 Z" />
</g>
<g id="#15141495">
<path fill="#151414" opacity="0.58" d=" M 302.01 70.98 C 303.88 70.47 304.93 73.93 303.66 75.12 C 302.90 73.82 302.21 72.47 302.01 70.98 Z" />
</g>
<g id="#363334bf">
<path fill="#363334" opacity="0.75" d=" M 384.07 71.64 C 385.40 77.06 385.55 82.94 384.15 88.35 C 383.99 82.78 384.10 77.21 384.07 71.64 Z" />
</g>
<g id="#12101067">
<path fill="#121010" opacity="0.40" d=" M 340.67 73.94 C 349.80 76.28 359.39 73.96 368.51 75.81 C 363.01 75.63 357.51 75.44 352.02 75.75 C 348.17 76.00 344.18 75.59 340.67 73.94 Z" />
</g>
<g id="#80423aff">
<path fill="#80423a" opacity="1.00" d=" M 15.39 79.31 C 17.27 77.77 19.16 76.24 21.06 74.73 C 20.24 83.46 20.43 92.34 22.31 100.93 C 23.44 106.63 25.59 112.04 27.14 117.62 C 22.18 117.09 17.34 115.81 12.69 114.03 C 2.07 106.78 0.82 92.56 0.48 80.83 C 4.83 79.19 9.42 78.29 13.82 76.81 C 14.35 77.64 14.87 78.48 15.39 79.31 Z" />
</g>
<g id="#3f2b277d">
<path fill="#3f2b27" opacity="0.49" d=" M 166.14 75.25 C 167.39 80.21 167.40 85.65 166.14 90.61 C 166.11 85.49 166.09 80.37 166.14 75.25 Z" />
</g>
<g id="#8c181aff">
<path fill="#8c181a" opacity="1.00" d=" M 73.71 76.41 C 80.09 77.90 86.43 79.58 92.77 81.24 C 90.74 84.86 89.01 90.25 84.03 90.36 C 76.80 90.91 72.33 82.83 73.71 76.41 Z" />
</g>
<g id="#312f2fd0">
<path fill="#312f2f" opacity="0.82" d=" M 424.32 76.95 C 425.25 78.52 425.88 80.23 426.35 82.00 C 421.51 82.01 416.67 82.04 411.84 81.97 C 411.84 80.76 412.24 79.72 413.05 78.85 C 412.92 79.36 412.67 80.37 412.55 80.87 C 416.92 80.90 421.30 80.89 425.69 80.90 C 425.23 79.58 424.78 78.26 424.32 76.95 Z" />
</g>
<g id="#282626a1">
<path fill="#282626" opacity="0.63" d=" M 397.20 78.29 L 398.11 78.21 C 397.86 78.68 397.37 79.61 397.12 80.08 L 396.69 79.25 L 397.20 78.29 Z" />
</g>
<g id="#3a3838f9">
<path fill="#3a3838" opacity="0.98" d=" M 292.07 81.92 C 292.15 81.59 292.30 80.92 292.38 80.59 C 296.91 81.12 301.47 80.89 306.02 80.90 L 306.21 81.99 C 301.49 82.01 296.78 82.06 292.07 81.92 Z" />
</g>
<g id="#26242496">
<path fill="#262424" opacity="0.59" d=" M 338.52 81.89 C 341.63 79.96 345.80 81.40 349.30 81.42 L 348.42 81.52 C 345.14 82.01 341.82 82.03 338.52 81.89 Z" />
</g>
<g id="#201d1d8d">
<path fill="#201d1d" opacity="0.55" d=" M 275.17 83.20 L 276.08 83.08 C 275.85 83.56 275.40 84.51 275.17 84.99 L 274.70 84.19 L 275.17 83.20 Z" />
</g>
<g id="#25232498">
<path fill="#252324" opacity="0.60" d=" M 442.89 85.21 L 443.79 85.30 L 444.30 86.26 L 443.87 87.09 C 443.62 86.62 443.13 85.68 442.89 85.21 Z" />
</g>
<g id="#221f1f91">
<path fill="#221f1f" opacity="0.57" d=" M 195.15 87.98 C 195.37 88.46 195.83 89.41 196.06 89.89 L 195.15 89.77 L 194.68 88.79 L 195.15 87.98 Z" />
</g>
<g id="#4a2624be">
<path fill="#4a2624" opacity="0.75" d=" M 165.31 97.16 C 164.44 95.52 164.09 93.00 166.11 92.03 C 166.28 93.79 166.03 95.54 165.31 97.16 Z" />
</g>
<g id="#2e2b2b71">
<path fill="#2e2b2b" opacity="0.44" d=" M 391.51 92.66 C 391.53 92.61 391.57 92.51 391.59 92.47 C 391.57 92.51 391.53 92.61 391.51 92.66 Z" />
</g>
<g id="#211f20ea">
<path fill="#211f20" opacity="0.92" d=" M 197.98 94.75 C 198.67 95.47 199.36 96.19 200.06 96.91 C 203.81 96.94 207.55 96.97 211.29 96.97 L 210.92 98.03 C 207.13 98.12 203.31 97.72 199.55 98.36 C 199.01 97.16 198.48 95.96 197.98 94.75 Z" />
<path fill="#211f20" opacity="0.92" d=" M 447.14 94.55 C 447.72 95.74 448.25 96.96 448.79 98.17 L 447.64 98.12 C 442.43 97.93 437.21 97.94 432.00 98.14 C 431.85 97.63 431.54 96.61 431.39 96.10 C 436.42 97.56 441.72 96.92 446.88 96.83 C 446.95 96.26 447.08 95.12 447.14 94.55 Z" />
</g>
<g id="#242223f5">
<path fill="#242223" opacity="0.96" d=" M 269.65 98.00 C 270.00 96.95 270.37 95.92 270.78 94.89 C 270.89 95.38 271.11 96.37 271.22 96.87 C 276.34 97.10 281.46 96.83 286.58 97.13 L 285.99 97.94 C 280.54 98.12 275.10 97.95 269.65 98.00 Z" />
</g>
<g id="#222020dd">
<path fill="#222020" opacity="0.87" d=" M 311.21 94.63 C 311.48 95.19 312.02 96.30 312.29 96.85 C 317.80 97.11 323.35 96.68 328.83 97.49 C 323.47 98.69 317.94 97.50 312.53 98.24 C 312.06 97.04 311.62 95.84 311.21 94.63 Z" />
</g>
<g id="#211f20ee">
<path fill="#211f20" opacity="0.93" d=" M 389.87 96.89 C 395.52 96.55 401.38 97.89 406.84 95.91 C 406.48 96.49 405.77 97.64 405.41 98.22 C 400.44 97.79 395.43 98.02 390.45 98.11 L 389.05 98.14 C 389.25 97.83 389.67 97.20 389.87 96.89 Z" />
</g>
<g id="#24222340">
<path fill="#242223" opacity="0.25" d=" M 328.83 97.49 L 329.58 97.36 C 329.03 98.39 328.20 98.91 327.09 98.92 C 322.00 99.08 316.87 99.21 311.80 98.67 L 312.53 98.24 C 317.94 97.50 323.47 98.69 328.83 97.49 Z" />
</g>
<g id="#22202138">
<path fill="#222021" opacity="0.22" d=" M 199.55 98.36 C 203.31 97.72 207.13 98.12 210.92 98.03 C 207.47 100.14 202.69 98.78 198.77 98.61 L 199.55 98.36 Z" />
</g>
<g id="#2523233c">
<path fill="#252323" opacity="0.24" d=" M 269.65 98.00 C 275.10 97.95 280.54 98.12 285.99 97.94 L 285.46 98.73 C 280.30 99.36 275.06 98.87 269.86 98.98 L 269.65 98.00 Z" />
</g>
<g id="#ffffffff">
<path fill="#ffffff" opacity="1.00" d=" M 352.96 98.05 C 357.35 98.41 361.73 98.02 366.12 97.92 C 361.76 98.08 357.26 99.00 352.96 98.05 Z" />
<path fill="#ffffff" opacity="1.00" d=" M 196.86 112.58 C 202.38 109.76 208.78 111.01 214.60 111.98 C 214.34 114.13 214.02 116.28 213.63 118.42 C 209.84 117.52 205.83 116.61 201.97 117.52 C 201.69 117.82 201.13 118.42 200.85 118.72 C 205.02 120.12 210.00 119.51 213.60 122.41 C 217.08 125.21 215.92 131.18 212.15 133.19 C 206.41 136.40 199.22 135.61 193.27 133.39 C 193.11 131.24 193.67 129.12 193.91 126.99 C 198.01 128.33 202.39 129.80 206.72 128.77 C 206.81 128.32 206.97 127.42 207.06 126.97 C 203.09 126.35 198.69 126.28 195.35 123.76 C 191.66 120.90 192.85 114.57 196.86 112.58 Z" />
<path fill="#ffffff" opacity="1.00" d=" M 219.56 111.08 C 226.18 111.87 233.15 110.15 239.51 112.62 C 244.80 114.44 246.20 122.32 241.99 125.93 C 238.17 129.15 232.87 128.79 228.19 128.80 L 228.19 129.74 C 228.17 131.40 228.17 133.06 228.17 134.73 C 225.33 134.76 222.49 134.79 219.65 134.79 C 219.59 126.88 219.76 118.98 219.56 111.08 M 228.16 117.23 C 228.16 119.22 228.15 121.21 228.16 123.20 C 230.55 123.10 233.20 123.65 235.34 122.29 C 236.07 120.82 235.43 119.27 235.33 117.75 C 232.96 117.32 230.56 117.18 228.16 117.23 Z" />
<path fill="#ffffff" opacity="1.00" d=" M 252.94 112.82 C 257.93 110.34 263.82 110.45 269.12 111.80 C 274.94 113.63 278.03 120.11 276.60 125.90 C 275.83 130.98 271.08 134.31 266.24 135.01 C 261.72 135.59 256.82 135.48 252.75 133.20 C 245.37 129.21 245.46 116.67 252.94 112.82 M 259.42 117.60 C 255.89 118.46 256.00 122.84 256.56 125.65 C 257.50 129.28 262.12 129.24 265.03 128.47 C 268.40 127.28 268.27 122.85 267.51 120.01 C 266.33 116.82 262.14 117.00 259.42 117.60 Z" />
<path fill="#ffffff" opacity="1.00" d=" M 281.27 111.27 C 287.24 111.40 293.26 110.89 299.20 111.70 C 302.28 112.57 305.65 114.45 306.05 117.98 C 306.83 121.60 304.28 124.61 301.37 126.31 C 303.72 129.13 306.07 131.95 308.46 134.73 C 305.08 134.75 301.70 134.85 298.33 134.73 C 298.15 134.51 297.79 134.08 297.61 133.87 C 295.66 130.97 294.13 126.43 289.71 127.59 C 289.70 129.98 289.70 132.38 289.71 134.78 C 286.89 134.78 284.08 134.78 281.27 134.78 C 281.27 126.94 281.27 119.11 281.27 111.27 M 289.68 117.19 C 289.69 118.96 289.70 120.72 289.70 122.50 C 291.54 122.46 293.41 122.58 295.24 122.27 C 297.40 122.10 297.98 118.84 296.36 117.63 C 294.23 116.84 291.90 117.25 289.68 117.19 Z" />
<path fill="#ffffff" opacity="1.00" d=" M 309.48 111.27 C 317.65 111.29 325.83 111.26 334.00 111.27 C 334.10 113.46 334.22 115.66 334.25 117.85 C 331.50 117.88 328.75 117.89 326.00 117.88 C 325.99 123.52 326.02 129.15 325.98 134.79 C 323.12 134.77 320.26 134.77 317.41 134.77 C 317.41 129.14 317.41 123.51 317.41 117.88 C 314.69 117.88 311.98 117.88 309.27 117.90 C 309.32 115.69 309.40 113.48 309.48 111.27 Z" />
<path fill="#ffffff" opacity="1.00" d=" M 345.62 111.36 C 350.98 111.34 356.33 111.26 361.69 111.34 C 365.12 111.71 369.91 112.84 370.30 117.01 C 370.81 119.47 369.04 121.34 367.21 122.64 C 369.47 123.99 372.14 125.94 371.43 128.99 C 370.86 134.08 364.95 134.97 360.82 135.17 C 355.76 135.30 350.70 135.17 345.64 135.21 C 345.63 127.26 345.66 119.31 345.62 111.36 M 353.76 117.43 C 353.75 118.54 353.74 119.65 353.74 120.77 C 356.50 120.24 361.13 122.28 362.45 118.97 C 360.75 116.00 356.54 117.96 353.76 117.43 M 353.76 125.68 C 353.76 126.58 353.76 128.37 353.76 129.26 C 356.48 129.19 359.28 129.57 361.96 128.95 C 363.60 128.77 363.33 126.30 362.01 125.99 C 359.30 125.41 356.50 125.72 353.76 125.68 Z" />
<path fill="#ffffff" opacity="1.00" d=" M 383.54 111.34 C 386.00 111.33 388.48 111.31 390.95 111.35 C 391.52 111.36 392.66 111.38 393.22 111.39 C 397.06 119.38 401.23 127.20 405.09 135.17 C 401.90 135.19 398.70 135.19 395.52 135.23 C 394.95 133.92 394.38 132.62 393.79 131.33 C 390.05 131.27 386.31 131.27 382.57 131.30 C 382.08 132.59 381.58 133.88 381.16 135.20 C 378.07 135.20 374.98 135.19 371.89 135.17 C 375.69 127.19 379.72 119.31 383.54 111.34 M 385.13 125.37 C 387.23 125.37 389.34 125.37 391.45 125.36 C 390.45 122.81 389.48 120.26 388.42 117.75 C 387.15 120.21 386.09 122.77 385.13 125.37 Z" />
<path fill="#ffffff" opacity="1.00" d=" M 407.23 111.33 C 410.09 111.34 412.95 111.33 415.81 111.31 C 415.85 117.02 415.78 122.73 415.81 128.45 C 420.18 128.45 424.55 128.45 428.93 128.44 C 428.88 130.69 428.82 132.94 428.76 135.19 C 421.60 135.19 414.45 135.18 407.30 135.18 C 407.13 127.23 407.28 119.28 407.23 111.33 Z" />
<path fill="#ffffff" opacity="1.00" d=" M 426.99 111.34 C 430.87 111.33 434.74 111.33 438.62 111.33 C 443.03 111.34 447.45 111.33 451.86 111.34 C 451.99 113.50 452.12 115.66 452.23 117.82 C 449.40 117.87 446.57 117.93 443.74 117.92 C 443.70 123.68 443.73 129.43 443.71 135.19 C 442.11 135.19 440.51 135.19 438.93 135.20 C 437.68 135.20 436.43 135.21 435.19 135.22 C 435.11 129.50 435.15 123.78 435.16 118.05 C 432.35 118.01 429.56 117.80 426.77 117.83 C 426.84 115.67 426.92 113.51 426.99 111.34 Z" />
<path fill="#ffffff" opacity="1.00" d=" M 455.36 111.33 C 457.25 111.33 459.14 111.33 461.04 111.33 C 461.80 111.33 463.31 111.33 464.06 111.33 C 464.09 119.24 464.18 127.16 464.01 135.07 C 461.12 135.26 458.22 135.19 455.34 135.11 C 455.40 127.18 455.35 119.26 455.36 111.33 Z" />
<path fill="#ffffff" opacity="1.00" d=" M 469.85 116.84 C 471.96 113.17 476.22 111.59 480.20 110.96 C 484.04 110.53 487.91 111.01 491.69 111.74 C 491.41 113.82 491.12 115.89 490.83 117.97 C 487.58 117.71 484.28 117.12 481.04 117.69 C 476.53 118.35 476.45 124.63 478.54 127.63 C 482.10 130.23 486.84 128.77 490.84 128.15 C 491.12 130.12 491.43 132.09 491.72 134.07 C 487.94 135.17 484.03 135.91 480.08 135.52 C 477.41 134.99 474.62 134.36 472.45 132.62 C 467.77 129.01 467.02 121.80 469.85 116.84 Z" />
</g>
<g id="#2422233b">
<path fill="#242223" opacity="0.23" d=" M 390.45 98.11 C 395.43 98.02 400.44 97.79 405.41 98.22 L 406.22 98.65 C 400.75 99.30 395.21 99.01 389.71 98.91 L 390.45 98.11 Z" />
<path fill="#242223" opacity="0.23" d=" M 432.00 98.14 C 437.21 97.94 442.43 97.93 447.64 98.12 L 448.50 98.87 C 443.34 98.98 438.13 99.31 433.01 98.77 C 432.76 98.61 432.25 98.30 432.00 98.14 Z" />
</g>
<g id="#34171792">
<path fill="#341717" opacity="0.57" d=" M 161.86 109.97 C 161.65 107.79 161.95 105.23 164.02 104.00 C 163.78 106.10 163.90 108.70 161.86 109.97 Z" />
</g>
<g id="#2e1b1647">
<path fill="#2e1b16" opacity="0.28" d=" M 186.60 105.69 C 196.06 104.96 205.56 105.21 215.04 105.34 C 309.78 105.30 404.51 105.25 499.25 105.25 L 498.47 105.88 L 498.09 105.91 C 443.70 105.87 389.30 105.88 334.91 105.97 C 313.10 105.81 291.28 105.78 269.48 106.03 C 264.46 105.73 259.43 105.85 254.42 106.03 C 235.12 105.67 215.82 105.90 196.52 106.03 C 193.21 105.84 189.91 105.83 186.60 105.69 Z" />
</g>
<g id="#4c0001ff">
<path fill="#4c0001" opacity="1.00" d=" M 186.60 105.69 C 189.91 105.83 193.21 105.84 196.52 106.03 C 198.61 106.70 200.75 107.32 202.98 107.21 C 212.62 107.13 222.26 107.25 231.90 107.32 C 231.89 107.96 231.87 109.23 231.87 109.87 C 227.77 110.17 223.36 109.12 219.56 111.08 C 219.76 118.98 219.59 126.88 219.65 134.79 C 222.49 134.79 225.33 134.76 228.17 134.73 C 228.17 133.06 228.17 131.40 228.19 129.74 C 229.11 129.90 230.97 130.22 231.90 130.38 C 232.01 133.70 232.02 137.02 231.93 140.33 C 216.83 140.34 201.73 140.35 186.63 140.32 C 186.60 128.78 186.66 117.23 186.60 105.69 M 196.86 112.58 C 192.85 114.57 191.66 120.90 195.35 123.76 C 198.69 126.28 203.09 126.35 207.06 126.97 C 206.97 127.42 206.81 128.32 206.72 128.77 C 202.39 129.80 198.01 128.33 193.91 126.99 C 193.67 129.12 193.11 131.24 193.27 133.39 C 199.22 135.61 206.41 136.40 212.15 133.19 C 215.92 131.18 217.08 125.21 213.60 122.41 C 210.00 119.51 205.02 120.12 200.85 118.72 C 201.13 118.42 201.69 117.82 201.97 117.52 C 205.83 116.61 209.84 117.52 213.63 118.42 C 214.02 116.28 214.34 114.13 214.60 111.98 C 208.78 111.01 202.38 109.76 196.86 112.58 Z" />
</g>
<g id="#590304ff">
<path fill="#590304" opacity="1.00" d=" M 196.52 106.03 C 215.82 105.90 235.12 105.67 254.42 106.03 C 258.74 107.83 263.48 107.16 268.04 107.35 C 267.63 108.49 267.15 109.60 266.63 110.68 C 267.46 111.05 268.29 111.43 269.12 111.80 C 263.82 110.45 257.93 110.34 252.94 112.82 C 245.46 116.67 245.37 129.21 252.75 133.20 C 256.82 135.48 261.72 135.59 266.24 135.01 C 267.41 136.57 268.01 138.42 268.40 140.32 C 256.24 140.36 244.09 140.32 231.93 140.33 C 232.02 137.02 232.01 133.70 231.90 130.38 C 230.97 130.22 229.11 129.90 228.19 129.74 L 228.19 128.80 C 232.87 128.79 238.17 129.15 241.99 125.93 C 246.20 122.32 244.80 114.44 239.51 112.62 C 233.15 110.15 226.18 111.87 219.56 111.08 C 223.36 109.12 227.77 110.17 231.87 109.87 C 231.87 109.23 231.89 107.96 231.90 107.32 C 222.26 107.25 212.62 107.13 202.98 107.21 C 200.75 107.32 198.61 106.70 196.52 106.03 Z" />
</g>
<g id="#630809ff">
<path fill="#630809" opacity="1.00" d=" M 254.42 106.03 C 259.43 105.85 264.46 105.73 269.48 106.03 C 271.60 106.53 273.74 107.09 275.95 107.06 C 283.19 107.05 290.44 107.07 297.68 107.33 C 298.18 108.79 298.68 110.25 299.20 111.70 C 293.26 110.89 287.24 111.40 281.27 111.27 C 281.27 119.11 281.27 126.94 281.27 134.78 C 284.08 134.78 286.89 134.78 289.71 134.78 C 289.70 132.38 289.70 129.98 289.71 127.59 C 294.13 126.43 295.66 130.97 297.61 133.87 C 297.86 136.02 297.99 138.17 298.15 140.33 C 288.23 140.34 278.32 140.35 268.40 140.32 C 268.01 138.42 267.41 136.57 266.24 135.01 C 271.08 134.31 275.83 130.98 276.60 125.90 C 278.03 120.11 274.94 113.63 269.12 111.80 C 268.29 111.43 267.46 111.05 266.63 110.68 C 267.15 109.60 267.63 108.49 268.04 107.35 C 263.48 107.16 258.74 107.83 254.42 106.03 Z" />
</g>
<g id="#760f11ff">
<path fill="#760f11" opacity="1.00" d=" M 269.48 106.03 C 291.28 105.78 313.10 105.81 334.91 105.97 C 343.79 106.24 352.68 106.08 361.57 106.11 C 361.60 107.85 361.64 109.60 361.69 111.34 C 356.33 111.26 350.98 111.34 345.62 111.36 C 345.66 119.31 345.63 127.26 345.64 135.21 C 350.70 135.17 355.76 135.30 360.82 135.17 C 360.83 136.89 360.83 138.61 360.84 140.34 C 339.94 140.35 319.05 140.32 298.15 140.33 C 297.99 138.17 297.86 136.02 297.61 133.87 C 297.79 134.08 298.15 134.51 298.33 134.73 C 301.70 134.85 305.08 134.75 308.46 134.73 C 306.07 131.95 303.72 129.13 301.37 126.31 C 304.28 124.61 306.83 121.60 306.05 117.98 C 305.65 114.45 302.28 112.57 299.20 111.70 C 298.68 110.25 298.18 108.79 297.68 107.33 C 290.44 107.07 283.19 107.05 275.95 107.06 C 273.74 107.09 271.60 106.53 269.48 106.03 M 309.48 111.27 C 309.40 113.48 309.32 115.69 309.27 117.90 C 311.98 117.88 314.69 117.88 317.41 117.88 C 317.41 123.51 317.41 129.14 317.41 134.77 C 320.26 134.77 323.12 134.77 325.98 134.79 C 326.02 129.15 325.99 123.52 326.00 117.88 C 328.75 117.89 331.50 117.88 334.25 117.85 C 334.22 115.66 334.10 113.46 334.00 111.27 C 325.83 111.26 317.65 111.29 309.48 111.27 Z" />
</g>
<g id="#e21c24ff">
<path fill="#e21c24" opacity="1.00" d=" M 498.09 105.91 L 498.47 105.88 C 498.76 117.36 498.55 128.86 498.57 140.35 C 492.71 140.33 486.84 140.33 480.98 140.33 C 480.68 138.73 480.38 137.12 480.08 135.52 C 484.03 135.91 487.94 135.17 491.72 134.07 C 491.43 132.09 491.12 130.12 490.84 128.15 C 486.84 128.77 482.10 130.23 478.54 127.63 C 476.45 124.63 476.53 118.35 481.04 117.69 C 484.28 117.12 487.58 117.71 490.83 117.97 C 491.12 115.89 491.41 113.82 491.69 111.74 C 487.91 111.01 484.04 110.53 480.20 110.96 C 480.55 109.34 480.90 107.72 481.27 106.11 C 486.87 106.02 492.49 106.32 498.09 105.91 Z" />
</g>
<g id="#901518ff">
<path fill="#901518" opacity="1.00" d=" M 361.57 106.11 C 371.33 106.05 381.09 106.13 390.86 106.10 C 390.89 107.85 390.92 109.60 390.95 111.35 C 388.48 111.31 386.00 111.33 383.54 111.34 C 379.72 119.31 375.69 127.19 371.89 135.17 C 374.98 135.19 378.07 135.20 381.16 135.20 C 381.32 136.92 381.61 138.63 381.90 140.33 C 374.88 140.35 367.86 140.32 360.84 140.34 C 360.83 138.61 360.83 136.89 360.82 135.17 C 364.95 134.97 370.86 134.08 371.43 128.99 C 372.14 125.94 369.47 123.99 367.21 122.64 C 369.04 121.34 370.81 119.47 370.30 117.01 C 369.91 112.84 365.12 111.71 361.69 111.34 C 361.64 109.60 361.60 107.85 361.57 106.11 Z" />
</g>
<g id="#a0181cff">
<path fill="#a0181c" opacity="1.00" d=" M 390.86 106.10 C 398.64 106.07 406.42 106.13 414.20 106.08 C 414.89 107.77 415.56 109.49 415.81 111.31 C 412.95 111.33 410.09 111.34 407.23 111.33 C 407.28 119.28 407.13 127.23 407.30 135.18 L 407.33 135.78 C 410.02 136.02 412.72 136.29 415.42 136.51 C 415.31 137.78 415.22 139.06 415.15 140.34 C 404.06 140.35 392.98 140.32 381.90 140.33 C 381.61 138.63 381.32 136.92 381.16 135.20 C 381.58 133.88 382.08 132.59 382.57 131.30 C 386.31 131.27 390.05 131.27 393.79 131.33 C 394.38 132.62 394.95 133.92 395.52 135.23 C 398.70 135.19 401.90 135.19 405.09 135.17 C 401.23 127.20 397.06 119.38 393.22 111.39 C 392.66 111.38 391.52 111.36 390.95 111.35 C 390.92 109.60 390.89 107.85 390.86 106.10 Z" />
</g>
<g id="#b01a1eff">
<path fill="#b01a1e" opacity="1.00" d=" M 414.20 106.08 C 422.39 106.09 430.58 106.11 438.78 106.10 C 438.71 107.84 438.67 109.59 438.62 111.33 C 434.74 111.33 430.87 111.33 426.99 111.34 C 426.92 113.51 426.84 115.67 426.77 117.83 C 429.56 117.80 432.35 118.01 435.16 118.05 C 435.15 123.78 435.11 129.50 435.19 135.22 C 436.43 135.21 437.68 135.20 438.93 135.20 C 438.63 136.91 438.35 138.62 438.06 140.34 C 430.42 140.35 422.78 140.33 415.15 140.34 C 415.22 139.06 415.31 137.78 415.42 136.51 C 412.72 136.29 410.02 136.02 407.33 135.78 L 407.30 135.18 C 414.45 135.18 421.60 135.19 428.76 135.19 C 428.82 132.94 428.88 130.69 428.93 128.44 C 424.55 128.45 420.18 128.45 415.81 128.45 C 415.78 122.73 415.85 117.02 415.81 111.31 C 415.56 109.49 414.89 107.77 414.20 106.08 Z" />
</g>
<g id="#c11b21ff">
<path fill="#c11b21" opacity="1.00" d=" M 438.78 106.10 C 446.16 106.09 453.55 106.11 460.94 106.10 C 460.97 107.84 461.00 109.59 461.04 111.33 C 459.14 111.33 457.25 111.33 455.36 111.33 C 455.35 119.26 455.40 127.18 455.34 135.11 C 458.22 135.19 461.12 135.26 464.01 135.07 C 461.91 136.12 460.63 137.92 460.56 140.32 C 453.06 140.36 445.56 140.32 438.06 140.34 C 438.35 138.62 438.63 136.91 438.93 135.20 C 440.51 135.19 442.11 135.19 443.71 135.19 C 443.73 129.43 443.70 123.68 443.74 117.92 C 446.57 117.93 449.40 117.87 452.23 117.82 C 452.12 115.66 451.99 113.50 451.86 111.34 C 447.45 111.33 443.03 111.34 438.62 111.33 C 438.67 109.59 438.71 107.84 438.78 106.10 Z" />
</g>
<g id="#ce1c22ff">
<path fill="#ce1c22" opacity="1.00" d=" M 460.94 106.10 C 467.72 106.09 474.49 106.11 481.27 106.11 C 480.90 107.72 480.55 109.34 480.20 110.96 C 476.22 111.59 471.96 113.17 469.85 116.84 C 467.02 121.80 467.77 129.01 472.45 132.62 C 474.62 134.36 477.41 134.99 480.08 135.52 C 480.38 137.12 480.68 138.73 480.98 140.33 C 474.17 140.34 467.37 140.34 460.56 140.32 C 460.63 137.92 461.91 136.12 464.01 135.07 C 464.18 127.16 464.09 119.24 464.06 111.33 C 463.31 111.33 461.80 111.33 461.04 111.33 C 461.00 109.59 460.97 107.84 460.94 106.10 Z" />
</g>
<g id="#6e0a15ff">
<path fill="#6e0a15" opacity="1.00" d=" M 126.16 115.71 C 129.78 113.43 132.96 110.53 135.78 107.33 C 136.42 112.89 135.34 118.40 134.32 123.84 C 131.34 127.70 127.52 130.73 123.82 133.86 C 119.69 137.92 115.64 142.21 112.97 147.42 C 112.63 147.02 111.95 146.22 111.61 145.82 C 111.68 144.57 111.76 143.33 111.84 142.09 C 111.26 141.36 110.67 140.64 110.09 139.92 C 114.38 134.69 115.06 127.73 116.62 121.39 C 119.92 119.70 123.14 117.85 126.16 115.71 Z" />
</g>
<g id="#35181793">
<path fill="#351817" opacity="0.58" d=" M 160.17 115.24 C 159.29 113.57 160.14 111.47 161.87 110.80 C 162.12 112.49 161.26 114.02 160.17 115.24 Z" />
</g>
<g id="#b5b8b6ff">
<path fill="#b5b8b6" opacity="1.00" d=" M 65.47 115.06 C 70.30 114.19 75.02 112.85 79.79 111.71 C 80.35 111.86 81.48 112.16 82.04 112.31 C 75.77 114.45 69.29 115.88 62.88 117.53 C 56.82 119.07 50.34 119.57 44.86 122.83 C 43.22 123.70 42.49 125.49 41.45 126.92 C 43.08 130.54 46.26 132.99 49.96 134.26 C 56.70 137.36 64.22 136.13 71.38 136.70 C 66.69 137.77 61.94 138.63 57.16 139.20 C 52.02 139.08 46.71 139.90 41.75 138.12 C 36.84 136.75 32.37 133.81 29.42 129.63 C 28.03 127.93 28.57 125.61 28.43 123.60 C 30.73 122.13 33.00 120.59 35.37 119.22 C 38.31 118.94 41.24 118.50 44.17 118.14 C 51.32 117.47 58.44 116.53 65.47 115.06 Z" />
</g>
<g id="#540102ff">
<path fill="#540102" opacity="1.00" d=" M 228.16 117.23 C 230.56 117.18 232.96 117.32 235.33 117.75 C 235.43 119.27 236.07 120.82 235.34 122.29 C 233.20 123.65 230.55 123.10 228.16 123.20 C 228.15 121.21 228.16 119.22 228.16 117.23 Z" />
</g>
<g id="#5d0507ff">
<path fill="#5d0507" opacity="1.00" d=" M 259.42 117.60 C 262.14 117.00 266.33 116.82 267.51 120.01 C 268.27 122.85 268.40 127.28 265.03 128.47 C 262.12 129.24 257.50 129.28 256.56 125.65 C 256.00 122.84 255.89 118.46 259.42 117.60 Z" />
</g>
<g id="#680a0cff">
<path fill="#680a0c" opacity="1.00" d=" M 289.68 117.19 C 291.90 117.25 294.23 116.84 296.36 117.63 C 297.98 118.84 297.40 122.10 295.24 122.27 C 293.41 122.58 291.54 122.46 289.70 122.50 C 289.70 120.72 289.69 118.96 289.68 117.19 Z" />
</g>
<g id="#861316ff">
<path fill="#861316" opacity="1.00" d=" M 353.76 117.43 C 356.54 117.96 360.75 116.00 362.45 118.97 C 361.13 122.28 356.50 120.24 353.74 120.77 C 353.74 119.65 353.75 118.54 353.76 117.43 Z" />
<path fill="#861316" opacity="1.00" d=" M 353.76 125.68 C 356.50 125.72 359.30 125.41 362.01 125.99 C 363.33 126.30 363.60 128.77 361.96 128.95 C 359.28 129.57 356.48 129.19 353.76 129.26 C 353.76 128.37 353.76 126.58 353.76 125.68 Z" />
</g>
<g id="#99171aff">
<path fill="#99171a" opacity="1.00" d=" M 385.13 125.37 C 386.09 122.77 387.15 120.21 388.42 117.75 C 389.48 120.26 390.45 122.81 391.45 125.36 C 389.34 125.37 387.23 125.37 385.13 125.37 Z" />
</g>
<g id="#969c9eff">
<path fill="#969c9e" opacity="1.00" d=" M 28.34 119.30 C 30.55 118.16 33.05 119.13 35.37 119.22 C 33.00 120.59 30.73 122.13 28.43 123.60 C 28.57 125.61 28.03 127.93 29.42 129.63 C 32.37 133.81 36.84 136.75 41.75 138.12 C 46.71 139.90 52.02 139.08 57.16 139.20 C 51.62 140.04 46.04 140.54 40.44 140.73 C 37.71 140.78 34.97 140.81 32.23 140.73 C 26.89 136.03 22.36 130.44 18.46 124.50 C 21.80 122.86 24.96 120.85 28.34 119.30 Z" />
</g>
<g id="#721b1dff">
<path fill="#721b1d" opacity="1.00" d=" M 98.56 129.16 C 104.73 126.93 110.79 124.39 116.62 121.39 C 115.06 127.73 114.38 134.69 110.09 139.92 C 107.26 144.31 102.60 146.85 98.80 150.26 C 97.87 148.77 97.48 145.47 95.05 145.98 C 91.88 147.18 88.97 149.01 85.66 149.89 C 85.70 148.08 85.75 146.27 85.70 144.47 C 85.27 144.28 84.42 143.90 83.99 143.71 C 89.81 140.19 96.59 136.07 98.56 129.16 Z" />
</g>
<g id="#630613ff">
<path fill="#630613" opacity="1.00" d=" M 123.82 133.86 C 127.52 130.73 131.34 127.70 134.32 123.84 C 132.93 133.05 129.60 141.92 124.97 149.98 C 123.88 152.02 122.29 154.01 122.53 156.47 C 117.08 159.38 111.31 161.75 105.32 163.29 C 104.81 163.16 103.78 162.90 103.26 162.77 C 105.89 157.27 109.49 152.38 112.97 147.42 C 115.64 142.21 119.69 137.92 123.82 133.86 Z" />
</g>
<g id="#59040dff">
<path fill="#59040d" opacity="1.00" d=" M 71.38 136.70 C 80.61 134.87 89.68 132.27 98.56 129.16 C 96.59 136.07 89.81 140.19 83.99 143.71 C 75.26 148.46 64.95 148.72 55.39 146.82 C 50.18 145.45 44.92 143.82 40.44 140.73 C 46.04 140.54 51.62 140.04 57.16 139.20 C 61.94 138.63 66.69 137.77 71.38 136.70 Z" />
</g>
<g id="#5a3836c4">
<path fill="#5a3836" opacity="0.77" d=" M 151.48 130.72 C 151.53 130.65 151.63 130.51 151.68 130.44 C 151.63 130.51 151.53 130.65 151.48 130.72 Z" />
</g>
<g id="#66141aff">
<path fill="#66141a" opacity="1.00" d=" M 98.80 150.26 C 102.60 146.85 107.26 144.31 110.09 139.92 C 110.67 140.64 111.26 141.36 111.84 142.09 C 111.76 143.33 111.68 144.57 111.61 145.82 C 111.95 146.22 112.63 147.02 112.97 147.42 C 109.49 152.38 105.89 157.27 103.26 162.77 C 103.78 162.90 104.81 163.16 105.32 163.29 C 104.00 163.64 102.66 163.97 101.32 164.25 C 96.11 164.54 90.84 165.25 85.66 164.32 C 87.36 162.47 89.24 160.82 91.12 159.16 C 94.07 156.53 95.96 152.98 98.80 150.26 Z" />
</g>
<g id="#481f20c4">
<path fill="#481f20" opacity="0.77" d=" M 141.01 143.20 C 140.38 141.26 142.23 139.46 144.15 140.01 C 143.39 141.33 142.33 142.43 141.01 143.20 Z" />
</g>
<g id="#733531ff">
<path fill="#733531" opacity="1.00" d=" M 23.41 140.25 C 26.35 140.34 29.29 140.52 32.23 140.73 C 34.97 140.81 37.71 140.78 40.44 140.73 C 44.92 143.82 50.18 145.45 55.39 146.82 C 54.23 147.91 53.08 149.01 51.90 150.07 C 47.92 149.40 44.69 152.41 42.34 155.22 C 35.35 151.18 28.92 146.16 23.41 140.25 Z" />
</g>
<g id="#6e2a28ff">
<path fill="#6e2a28" opacity="1.00" d=" M 55.39 146.82 C 64.95 148.72 75.26 148.46 83.99 143.71 C 84.42 143.90 85.27 144.28 85.70 144.47 C 85.75 146.27 85.70 148.08 85.66 149.89 C 82.52 153.72 78.31 156.41 74.80 159.87 C 73.27 161.36 71.26 162.18 69.36 163.09 C 69.93 163.81 70.50 164.53 71.07 165.25 C 60.97 163.76 51.18 160.32 42.34 155.22 C 44.69 152.41 47.92 149.40 51.90 150.07 C 53.08 149.01 54.23 147.91 55.39 146.82 Z" />
</g>
<g id="#691f20ff">
<path fill="#691f20" opacity="1.00" d=" M 85.66 149.89 C 88.97 149.01 91.88 147.18 95.05 145.98 C 97.48 145.47 97.87 148.77 98.80 150.26 C 95.96 152.98 94.07 156.53 91.12 159.16 C 89.24 160.82 87.36 162.47 85.66 164.32 C 90.84 165.25 96.11 164.54 101.32 164.25 C 91.43 166.52 81.09 166.65 71.07 165.25 C 70.50 164.53 69.93 163.81 69.36 163.09 C 71.26 162.18 73.27 161.36 74.80 159.87 C 78.31 156.41 82.52 153.72 85.66 149.89 Z" />
</g>
</svg>
