<?xml version="1.0" encoding="UTF-8" ?>
<!DOCTYPE svg PUBLIC "-//W3C//DTD SVG 1.1//EN" "http://www.w3.org/Graphics/SVG/1.1/DTD/svg11.dtd">
<svg width="499pt" height="171pt" viewBox="0 0 499 171" version="1.1" xmlns="http://www.w3.org/2000/svg">
<g id="#264173ff">
<path fill="#264173" opacity="1.00" d=" M 65.93 2.78 C 86.27 -1.58 108.64 1.10 126.35 12.42 C 122.96 12.66 119.57 12.91 116.20 13.35 C 107.78 14.54 99.40 16.04 91.22 18.38 C 90.07 18.37 88.91 18.33 87.76 18.27 C 78.20 10.11 65.11 8.57 53.05 7.69 L 51.51 6.99 C 56.42 5.93 60.97 3.67 65.93 2.78 Z" />
</g>
<g id="#2f5685ff">
<path fill="#2f5685" opacity="1.00" d=" M 50.85 7.48 C 51.40 7.53 52.50 7.64 53.05 7.69 C 65.11 8.57 78.20 10.11 87.76 18.27 C 82.52 18.55 78.96 13.76 73.98 13.13 C 65.38 16.37 57.09 20.69 48.08 22.80 C 42.83 22.08 37.75 20.46 32.45 20.01 C 37.20 16.12 42.24 12.53 47.76 9.81 C 48.91 9.20 50.22 8.72 50.85 7.48 Z" />
</g>
<g id="#365d8dff">
<path fill="#365d8d" opacity="1.00" d=" M 48.08 22.80 C 57.09 20.69 65.38 16.37 73.98 13.13 C 78.96 13.76 82.52 18.55 87.76 18.27 C 88.91 18.33 90.07 18.37 91.22 18.38 C 86.98 19.66 82.79 21.10 78.70 22.80 C 69.37 26.42 60.37 30.98 52.15 36.72 C 48.11 35.33 44.35 32.90 40.00 32.55 C 43.03 29.59 45.47 26.12 48.08 22.80 Z" />
</g>
<g id="#979ea0ff">
<path fill="#979ea0" opacity="1.00" d=" M 91.22 18.38 C 99.40 16.04 107.78 14.54 116.20 13.35 C 127.37 18.03 136.88 26.10 144.60 35.33 C 139.42 35.04 134.23 34.96 129.04 35.02 C 128.91 27.99 121.81 24.84 116.14 22.80 C 104.02 18.42 91.04 21.04 78.70 22.80 C 82.79 21.10 86.98 19.66 91.22 18.38 Z" />
</g>
<g id="#3b5683ff">
<path fill="#3b5683" opacity="1.00" d=" M 15.77 39.19 C 20.37 32.03 26.00 25.55 32.45 20.01 C 37.75 20.46 42.83 22.08 48.08 22.80 C 45.47 26.12 43.03 29.59 40.00 32.55 C 36.31 33.55 33.24 35.88 29.80 37.41 C 25.15 38.15 20.40 38.22 15.77 39.19 Z" />
</g>
<g id="#b6bab8ff">
<path fill="#b6bab8" opacity="1.00" d=" M 78.70 22.80 C 91.04 21.04 104.02 18.42 116.14 22.80 C 121.81 24.84 128.91 27.99 129.04 35.02 C 124.74 35.08 120.46 35.43 116.20 35.94 C 116.78 34.89 117.36 33.83 117.95 32.78 C 113.32 26.79 105.37 24.92 98.17 24.51 C 83.67 23.74 69.74 29.30 57.40 36.44 C 47.31 43.11 38.09 51.61 32.23 62.31 C 30.75 64.66 30.51 67.42 31.48 70.01 C 29.33 69.61 27.19 69.23 25.04 68.86 C 26.66 64.77 28.59 60.79 31.09 57.17 C 36.65 49.02 44.12 42.37 52.15 36.72 C 60.37 30.98 69.37 26.42 78.70 22.80 Z" />
</g>
<g id="#d1d4cfff">
<path fill="#d1d4cf" opacity="1.00" d=" M 57.40 36.44 C 69.74 29.30 83.67 23.74 98.17 24.51 C 105.37 24.92 113.32 26.79 117.95 32.78 C 117.36 33.83 116.78 34.89 116.20 35.94 C 113.99 36.20 111.78 36.51 109.58 36.87 C 107.07 37.29 104.57 37.79 102.08 38.31 C 102.74 36.30 105.14 33.19 102.27 31.79 C 97.19 29.36 91.36 29.12 85.83 29.45 C 76.92 29.91 68.74 33.91 60.96 37.95 C 50.52 44.06 40.66 52.38 35.64 63.63 C 34.23 66.06 35.80 68.59 36.59 70.92 C 34.89 70.61 33.18 70.31 31.48 70.01 C 30.51 67.42 30.75 64.66 32.23 62.31 C 38.09 51.61 47.31 43.11 57.40 36.44 Z" />
</g>
<g id="#e6e9e1ff">
<path fill="#e6e9e1" opacity="1.00" d=" M 85.83 29.45 C 91.36 29.12 97.19 29.36 102.27 31.79 C 105.14 33.19 102.74 36.30 102.08 38.31 C 89.75 40.93 77.95 45.61 66.91 51.64 C 73.43 42.80 85.63 41.90 93.59 34.96 C 88.91 32.15 83.17 33.17 78.08 34.09 C 65.69 37.21 54.11 44.08 45.57 53.60 C 42.55 57.63 38.36 62.16 39.35 67.59 C 41.58 69.54 44.44 70.51 47.06 71.80 C 46.25 71.89 44.65 72.08 43.85 72.18 C 41.42 71.80 39.01 71.34 36.59 70.92 C 35.80 68.59 34.23 66.06 35.64 63.63 C 40.66 52.38 50.52 44.06 60.96 37.95 C 68.74 33.91 76.92 29.91 85.83 29.45 Z" />
</g>
<g id="#455b87ff">
<path fill="#455b87" opacity="1.00" d=" M 40.00 32.55 C 44.35 32.90 48.11 35.33 52.15 36.72 C 44.12 42.37 36.65 49.02 31.09 57.17 C 27.83 56.43 25.21 53.55 21.71 53.96 C 18.99 54.30 16.98 56.36 14.83 57.85 C 12.15 59.89 8.73 60.39 5.69 61.67 C 8.05 53.77 11.38 46.17 15.77 39.19 C 20.40 38.22 25.15 38.15 29.80 37.41 C 33.24 35.88 36.31 33.55 40.00 32.55 Z" />
</g>
<g id="#f5f6f1ff">
<path fill="#f5f6f1" opacity="1.00" d=" M 78.08 34.09 C 83.17 33.17 88.91 32.15 93.59 34.96 C 85.63 41.90 73.43 42.80 66.91 51.64 C 66.15 52.23 65.39 52.83 64.64 53.42 C 65.03 53.51 65.83 53.67 66.23 53.75 C 69.28 61.08 78.09 61.84 84.76 63.71 C 95.05 66.92 105.72 69.04 115.55 73.55 C 121.71 76.33 126.15 81.67 130.47 86.67 C 134.04 90.68 134.30 96.55 132.66 101.45 C 130.04 109.11 124.28 115.37 117.51 119.65 C 108.58 125.36 98.64 129.29 88.63 132.67 C 80.96 134.34 72.69 137.12 64.97 134.17 C 61.94 133.22 59.45 131.17 57.19 129.00 C 63.67 125.06 70.94 122.88 78.22 120.99 C 86.27 118.00 94.65 115.65 102.04 111.15 C 107.28 108.05 114.21 106.03 116.26 99.59 C 117.54 98.28 118.85 96.99 120.15 95.69 C 113.52 89.42 104.56 86.72 96.01 84.24 C 84.73 81.16 73.42 78.13 61.97 75.75 C 57.00 74.72 52.02 73.72 47.03 72.77 C 45.97 72.57 44.91 72.37 43.85 72.18 C 44.65 72.08 46.25 71.89 47.06 71.80 C 44.44 70.51 41.58 69.54 39.35 67.59 C 38.36 62.16 42.55 57.63 45.57 53.60 C 54.11 44.08 65.69 37.21 78.08 34.09 M 56.30 51.29 C 53.09 54.11 50.40 57.49 48.06 61.06 C 47.12 62.72 45.79 64.58 46.37 66.59 C 49.55 70.24 54.53 71.22 59.09 71.85 C 65.18 72.54 70.81 75.18 76.82 76.23 C 83.15 77.34 88.96 80.29 95.29 81.36 C 100.84 82.27 105.75 85.20 111.06 86.90 C 115.51 89.44 121.18 92.34 122.00 97.96 C 121.58 100.95 119.97 103.74 117.77 105.79 C 112.40 109.93 105.78 112.23 100.63 116.68 C 96.99 120.38 93.07 123.85 89.94 128.01 C 96.81 127.59 103.29 124.73 109.00 121.02 C 115.31 117.27 121.80 112.92 125.22 106.20 C 127.94 101.70 129.98 96.38 128.69 91.07 C 127.16 84.86 121.66 80.87 116.68 77.45 C 110.68 74.97 104.87 71.76 98.39 70.68 C 88.14 67.97 77.85 65.40 67.72 62.26 C 63.20 59.97 61.45 54.76 60.43 50.12 C 59.00 50.23 57.36 50.12 56.30 51.29 Z" />
</g>
<g id="#24538eff">
<path fill="#24538e" opacity="1.00" d=" M 116.20 35.94 C 120.46 35.43 124.74 35.08 129.04 35.02 C 134.23 34.96 139.42 35.04 144.60 35.33 C 147.04 35.49 149.47 35.81 151.91 36.08 C 159.92 47.61 165.01 61.10 166.75 75.03 C 166.22 76.35 165.82 77.76 164.96 78.91 C 161.08 81.21 156.07 81.45 152.82 84.80 C 151.71 85.85 152.07 87.51 151.83 88.87 C 149.12 90.44 146.13 91.56 143.65 93.49 C 142.88 94.91 142.50 96.49 142.09 98.04 C 142.87 91.02 139.68 84.29 135.05 79.20 C 130.82 63.07 122.40 47.75 109.58 36.87 C 111.78 36.51 113.99 36.20 116.20 35.94 Z" />
</g>
<g id="#4e6ca2ff">
<path fill="#4e6ca2" opacity="1.00" d=" M 102.08 38.31 C 104.57 37.79 107.07 37.29 109.58 36.87 C 122.40 47.75 130.82 63.07 135.05 79.20 C 125.78 70.45 113.63 65.76 101.53 62.43 C 92.59 60.05 83.70 57.44 74.62 55.66 C 71.85 54.94 69.05 54.31 66.23 53.75 C 65.83 53.67 65.03 53.51 64.64 53.42 C 65.39 52.83 66.15 52.23 66.91 51.64 C 77.95 45.61 89.75 40.93 102.08 38.31 Z" />
</g>
<g id="#000000ff">
<path fill="#000000" opacity="1.00" d=" M 176.17 44.00 C 181.66 44.04 187.15 43.91 192.63 44.09 C 196.84 56.09 201.41 67.96 205.61 79.96 C 210.01 67.98 214.34 55.97 218.75 44.00 C 224.16 44.01 229.56 43.98 234.97 44.02 C 227.05 63.02 219.07 82.00 211.15 101.00 C 207.44 101.00 203.73 101.00 200.02 101.00 C 192.06 82.00 184.13 63.00 176.17 44.00 Z" />
<path fill="#000000" opacity="1.00" d=" M 244.75 44.01 C 249.92 44.00 255.08 44.00 260.25 44.01 C 260.25 62.92 260.26 81.84 260.24 100.75 C 255.08 100.75 249.92 100.75 244.76 100.75 C 244.74 81.84 244.75 62.92 244.75 44.01 Z" />
<path fill="#000000" opacity="1.00" d=" M 293.40 44.09 C 297.21 43.96 301.01 43.98 304.82 44.02 C 312.75 63.02 320.70 82.01 328.64 101.00 C 323.22 101.00 317.80 101.01 312.37 100.99 C 311.59 98.83 310.80 96.67 310.02 94.51 C 302.76 94.55 295.50 94.38 288.24 94.60 C 287.56 96.76 286.81 98.89 286.02 101.00 C 280.56 100.99 275.11 101.01 269.66 100.99 C 277.55 82.01 285.58 63.09 293.40 44.09 M 292.33 83.77 C 296.90 83.73 301.48 83.76 306.06 83.74 C 303.80 77.44 301.46 71.16 299.22 64.84 C 296.94 71.16 294.58 77.44 292.33 83.77 Z" />
<path fill="#000000" opacity="1.00" d=" M 336.83 48.90 C 341.71 43.77 349.38 43.32 356.03 43.49 C 362.97 43.72 370.55 42.45 376.82 46.20 C 381.30 48.88 383.01 54.15 384.09 58.96 C 379.35 59.43 374.60 59.76 369.86 60.21 C 369.20 58.90 368.98 57.01 367.28 56.65 C 363.93 55.83 360.42 56.41 357.00 56.23 C 354.29 56.34 350.84 55.64 348.98 58.17 C 348.01 60.97 347.90 65.95 351.80 66.34 C 359.53 66.98 367.38 65.78 375.06 67.15 C 379.77 67.91 383.66 72.07 383.91 76.86 C 384.11 80.62 384.05 84.38 383.96 88.14 C 383.84 92.70 380.73 96.85 376.58 98.60 C 370.12 101.61 362.85 100.57 355.96 100.76 C 350.45 100.91 344.40 100.67 339.87 97.13 C 336.02 94.12 334.71 89.14 333.91 84.55 C 338.67 84.34 343.43 84.09 348.19 83.98 C 348.80 85.44 349.20 87.36 351.06 87.64 C 355.99 87.89 360.95 87.76 365.89 87.71 C 370.87 87.67 371.00 78.10 366.08 77.85 C 358.07 77.37 349.91 78.49 342.01 76.77 C 337.16 75.68 333.80 70.87 334.00 65.98 C 334.27 60.28 332.69 53.60 336.83 48.90 Z" />
<path fill="#000000" opacity="1.00" d=" M 412.38 44.14 C 416.20 43.92 420.02 43.99 423.85 44.00 C 431.78 63.00 439.79 81.97 447.64 101.00 C 442.23 100.99 436.81 101.03 431.40 100.97 C 430.64 98.81 429.85 96.65 429.05 94.50 C 421.84 94.53 414.62 94.44 407.41 94.55 C 406.64 96.70 405.86 98.85 405.07 101.00 C 399.61 101.00 394.16 101.00 388.71 101.00 C 396.56 82.03 404.66 63.17 412.38 44.14 M 411.39 83.75 C 415.97 83.75 420.54 83.74 425.12 83.76 C 422.86 77.50 420.56 71.25 418.27 64.99 C 415.88 71.21 413.68 77.50 411.39 83.75 Z" />
<path fill="#000000" opacity="1.00" d=" M 439.50 44.00 C 457.92 44.00 476.34 43.99 494.76 44.01 C 494.75 48.59 494.75 53.17 494.75 57.75 C 488.17 57.76 481.58 57.75 475.00 57.76 C 474.99 72.09 475.01 86.42 474.99 100.76 C 469.74 100.75 464.50 100.76 459.25 100.75 C 459.24 86.42 459.26 72.09 459.24 57.76 C 452.66 57.74 446.08 57.76 439.51 57.75 C 439.49 53.17 439.49 48.59 439.50 44.00 Z" />
</g>
<g id="#fdfdfdff">
<path fill="#fdfdfd" opacity="1.00" d=" M 56.30 51.29 C 57.36 50.12 59.00 50.23 60.43 50.12 C 61.45 54.76 63.20 59.97 67.72 62.26 C 77.85 65.40 88.14 67.97 98.39 70.68 C 104.87 71.76 110.68 74.97 116.68 77.45 C 121.66 80.87 127.16 84.86 128.69 91.07 C 129.98 96.38 127.94 101.70 125.22 106.20 C 121.80 112.92 115.31 117.27 109.00 121.02 C 103.29 124.73 96.81 127.59 89.94 128.01 C 93.07 123.85 96.99 120.38 100.63 116.68 C 105.78 112.23 112.40 109.93 117.77 105.79 C 119.97 103.74 121.58 100.95 122.00 97.96 C 121.18 92.34 115.51 89.44 111.06 86.90 C 105.75 85.20 100.84 82.27 95.29 81.36 C 88.96 80.29 83.15 77.34 76.82 76.23 C 70.81 75.18 65.18 72.54 59.09 71.85 C 54.53 71.22 49.55 70.24 46.37 66.59 C 45.79 64.58 47.12 62.72 48.06 61.06 C 50.40 57.49 53.09 54.11 56.30 51.29 Z" />
</g>
<g id="#505e86ff">
<path fill="#505e86" opacity="1.00" d=" M 14.83 57.85 C 16.98 56.36 18.99 54.30 21.71 53.96 C 25.21 53.55 27.83 56.43 31.09 57.17 C 28.59 60.79 26.66 64.77 25.04 68.86 C 24.44 70.47 23.87 72.10 23.44 73.76 C 19.11 75.09 14.64 76.71 10.04 75.88 C 7.59 75.34 5.17 76.02 2.90 76.93 C 3.30 71.76 4.42 66.69 5.69 61.67 C 8.73 60.39 12.15 59.89 14.83 57.85 Z" />
</g>
<g id="#dfe2dfff">
<path fill="#dfe2df" opacity="1.00" d=" M 66.23 53.75 C 69.05 54.31 71.85 54.94 74.62 55.66 C 81.67 60.55 90.43 61.19 98.42 63.66 C 107.71 66.86 117.55 69.37 125.46 75.49 C 130.30 79.40 134.67 84.22 136.96 90.07 C 138.38 95.11 137.72 100.65 135.56 105.40 C 133.40 110.77 129.14 114.84 126.04 119.64 C 121.53 122.70 116.73 125.30 111.79 127.58 C 108.00 129.26 104.19 130.87 100.33 132.37 C 92.52 135.26 84.52 137.65 76.41 139.50 C 69.03 138.36 61.12 139.25 54.30 135.70 C 51.34 134.24 48.28 131.71 48.15 128.15 C 49.86 124.89 53.54 123.56 56.93 122.89 C 62.30 121.81 67.63 120.47 72.82 118.70 C 72.39 118.45 71.55 117.95 71.12 117.71 C 86.92 113.96 102.69 108.72 116.26 99.59 C 114.21 106.03 107.28 108.05 102.04 111.15 C 94.65 115.65 86.27 118.00 78.22 120.99 C 70.94 122.88 63.67 125.06 57.19 129.00 C 59.45 131.17 61.94 133.22 64.97 134.17 C 72.69 137.12 80.96 134.34 88.63 132.67 C 98.64 129.29 108.58 125.36 117.51 119.65 C 124.28 115.37 130.04 109.11 132.66 101.45 C 134.30 96.55 134.04 90.68 130.47 86.67 C 126.15 81.67 121.71 76.33 115.55 73.55 C 105.72 69.04 95.05 66.92 84.76 63.71 C 78.09 61.84 69.28 61.08 66.23 53.75 Z" />
</g>
<g id="#bcc2c0ff">
<path fill="#bcc2c0" opacity="1.00" d=" M 74.62 55.66 C 83.70 57.44 92.59 60.05 101.53 62.43 C 113.63 65.76 125.78 70.45 135.05 79.20 C 139.68 84.29 142.87 91.02 142.09 98.04 C 141.24 102.46 139.48 106.70 136.74 110.29 C 133.65 113.91 130.07 117.10 126.04 119.64 C 129.14 114.84 133.40 110.77 135.56 105.40 C 137.72 100.65 138.38 95.11 136.96 90.07 C 134.67 84.22 130.30 79.40 125.46 75.49 C 117.55 69.37 107.71 66.86 98.42 63.66 C 90.43 61.19 81.67 60.55 74.62 55.66 Z" />
</g>
<g id="#264576ff">
<path fill="#264576" opacity="1.00" d=" M 25.04 68.86 C 27.19 69.23 29.33 69.61 31.48 70.01 C 33.18 70.31 34.89 70.61 36.59 70.92 C 39.01 71.34 41.42 71.80 43.85 72.18 C 44.91 72.37 45.97 72.57 47.03 72.77 C 45.70 78.69 45.17 84.74 45.49 90.79 C 44.98 101.10 47.36 111.22 48.84 121.35 C 48.35 121.39 47.37 121.47 46.88 121.51 C 42.92 121.76 38.95 121.83 34.99 121.64 C 33.13 121.55 31.26 121.44 29.40 121.28 C 23.44 106.27 20.76 89.80 23.44 73.76 C 23.87 72.10 24.44 70.47 25.04 68.86 Z" />
</g>
<g id="#5c6287ff">
<path fill="#5c6287" opacity="1.00" d=" M 10.04 75.88 C 14.64 76.71 19.11 75.09 23.44 73.76 C 20.76 89.80 23.44 106.27 29.40 121.28 C 24.42 120.90 19.37 120.08 14.85 117.83 C 8.94 113.69 5.57 106.98 4.13 100.06 C 2.27 92.50 2.58 84.64 2.90 76.93 C 5.17 76.02 7.59 75.34 10.04 75.88 Z" />
</g>
<g id="#274f85ff">
<path fill="#274f85" opacity="1.00" d=" M 47.03 72.77 C 52.02 73.72 57.00 74.72 61.97 75.75 C 61.59 81.52 61.43 87.31 60.56 93.04 C 60.08 101.85 60.26 110.86 62.89 119.36 C 58.24 120.20 53.55 120.90 48.84 121.35 C 47.36 111.22 44.98 101.10 45.49 90.79 C 45.17 84.74 45.70 78.69 47.03 72.77 Z" />
</g>
<g id="#224881ff">
<path fill="#224881" opacity="1.00" d=" M 166.75 75.03 C 167.26 84.40 167.58 93.93 165.58 103.16 C 160.70 127.73 144.50 150.10 122.01 161.39 C 126.82 153.28 131.24 144.82 133.58 135.62 C 135.63 127.36 137.45 118.85 136.74 110.29 C 139.48 106.70 141.24 102.46 142.09 98.04 C 142.50 96.49 142.88 94.91 143.65 93.49 C 146.13 91.56 149.12 90.44 151.83 88.87 C 152.07 87.51 151.71 85.85 152.82 84.80 C 156.07 81.45 161.08 81.21 164.96 78.91 C 165.82 77.76 166.22 76.35 166.75 75.03 Z" />
</g>
<g id="#26558fff">
<path fill="#26558f" opacity="1.00" d=" M 61.97 75.75 C 73.42 78.13 84.73 81.16 96.01 84.24 C 104.56 86.72 113.52 89.42 120.15 95.69 C 118.85 96.99 117.54 98.28 116.26 99.59 C 102.69 108.72 86.92 113.96 71.12 117.71 C 68.39 118.29 65.64 118.84 62.89 119.36 C 60.26 110.86 60.08 101.85 60.56 93.04 C 61.43 87.31 61.59 81.52 61.97 75.75 Z" />
</g>
<g id="#1a1240ff">
<path fill="#1a1240" opacity="1.00" d=" M 187.43 109.01 C 194.57 108.99 201.71 109.00 208.85 109.00 C 208.88 110.86 208.91 112.72 208.94 114.58 C 205.13 114.48 201.00 114.51 197.74 116.79 C 193.37 119.42 193.04 126.91 197.61 129.50 C 201.57 131.77 206.35 131.59 210.59 133.09 C 205.89 136.40 199.89 133.89 195.07 132.09 C 194.83 134.55 194.56 136.99 194.27 139.44 C 198.87 141.39 203.91 141.64 208.83 141.36 C 208.84 143.26 208.85 145.16 208.86 147.06 C 201.72 147.05 194.57 147.11 187.43 147.02 C 187.44 134.35 187.43 121.68 187.43 109.01 Z" />
</g>
<g id="#1e1f4dff">
<path fill="#1e1f4d" opacity="1.00" d=" M 208.85 109.00 C 215.85 109.01 222.85 108.98 229.86 109.01 C 230.11 110.41 230.36 111.82 230.61 113.23 C 232.49 113.84 234.37 114.45 236.30 114.89 C 231.81 114.73 227.31 114.83 222.82 114.82 C 222.82 123.55 222.82 132.28 222.82 141.01 C 225.22 141.01 227.63 141.02 230.03 141.00 C 229.98 143.02 229.93 145.04 229.89 147.06 C 222.88 147.06 215.87 147.06 208.86 147.06 C 208.85 145.16 208.84 143.26 208.83 141.36 C 212.13 140.75 215.67 139.51 217.51 136.50 C 219.91 132.86 218.40 127.22 214.12 125.80 C 210.51 123.84 205.51 125.32 202.56 122.19 C 207.16 120.65 211.94 121.88 216.52 122.79 C 216.88 120.48 217.20 118.16 217.52 115.85 C 214.69 115.23 211.84 114.66 208.94 114.58 C 208.91 112.72 208.88 110.86 208.85 109.00 Z" />
</g>
<g id="#222e5fff">
<path fill="#222e5f" opacity="1.00" d=" M 229.86 109.01 C 241.40 109.04 252.94 108.97 264.49 109.01 C 264.07 110.98 263.66 112.95 263.24 114.92 C 260.52 115.67 257.72 116.72 255.83 118.91 C 252.17 123.01 251.84 129.34 253.94 134.25 C 255.71 138.32 259.98 140.54 264.18 141.28 C 264.22 143.21 264.27 145.13 264.31 147.06 C 258.18 147.07 252.05 147.06 245.93 147.06 C 245.94 142.08 245.89 137.11 245.99 132.13 C 250.51 128.98 250.90 121.69 246.83 118.03 C 243.98 115.45 239.93 115.21 236.30 114.89 C 234.37 114.45 232.49 113.84 230.61 113.23 C 230.36 111.82 230.11 110.41 229.86 109.01 Z" />
</g>
<g id="#243d73ff">
<path fill="#243d73" opacity="1.00" d=" M 264.49 109.01 C 279.22 109.02 293.96 108.98 308.69 109.00 C 308.67 111.14 308.65 113.29 308.64 115.43 C 302.15 114.35 295.55 114.92 289.00 114.81 C 288.99 123.54 288.99 132.27 289.00 141.01 C 290.31 141.00 291.62 141.00 292.94 141.00 C 292.92 143.02 292.91 145.04 292.90 147.06 C 283.37 147.06 273.84 147.06 264.31 147.06 C 264.27 145.13 264.22 143.21 264.18 141.28 C 268.69 141.43 273.49 141.87 277.68 139.81 C 286.90 135.81 286.91 120.14 277.64 116.19 C 273.16 114.10 268.03 114.47 263.24 114.92 C 263.66 112.95 264.07 110.98 264.49 109.01 Z" />
</g>
<g id="#1c4d8aff">
<path fill="#1c4d8a" opacity="1.00" d=" M 308.69 109.00 C 318.29 109.02 327.88 108.98 337.48 109.00 C 337.75 110.46 338.03 111.92 338.32 113.38 C 340.95 113.76 343.59 114.18 346.21 114.68 C 337.35 114.82 328.49 114.74 319.64 114.78 C 319.55 117.26 319.43 119.74 319.30 122.22 C 322.30 122.22 325.30 122.23 328.30 122.23 C 328.31 128.49 328.31 134.75 328.31 141.00 C 330.99 141.03 333.67 141.07 336.35 140.97 C 336.09 142.99 335.92 145.03 335.74 147.06 C 326.89 147.07 318.03 147.06 309.17 147.06 C 309.10 145.03 309.03 143.01 308.96 140.98 C 312.21 141.04 315.46 140.99 318.72 140.99 C 316.11 137.88 313.57 134.72 310.98 131.60 C 314.31 129.72 317.03 126.04 315.97 122.04 C 315.47 118.33 311.95 116.28 308.64 115.43 C 308.65 113.29 308.67 111.14 308.69 109.00 Z" />
</g>
<g id="#19599dff">
<path fill="#19599d" opacity="1.00" d=" M 337.48 109.00 C 343.02 109.02 348.57 108.99 354.12 109.00 C 353.92 121.69 354.13 134.37 353.99 147.06 C 347.90 147.06 341.82 147.06 335.74 147.06 C 335.92 145.03 336.09 142.99 336.35 140.97 L 337.46 140.90 C 337.42 134.68 337.44 128.45 337.43 122.23 C 340.42 122.23 343.41 122.23 346.40 122.24 C 346.30 119.72 346.24 117.20 346.21 114.68 C 343.59 114.18 340.95 113.76 338.32 113.38 C 338.03 111.92 337.75 110.46 337.48 109.00 Z" />
</g>
<g id="#1d5fa2ff">
<path fill="#1d5fa2" opacity="1.00" d=" M 354.12 109.00 C 359.75 109.01 365.39 108.99 371.03 109.00 C 371.10 121.69 371.11 134.38 371.05 147.06 C 365.36 147.06 359.67 147.06 353.99 147.06 C 354.13 134.37 353.92 121.69 354.12 109.00 Z" />
</g>
<g id="#2267a8ff">
<path fill="#2267a8" opacity="1.00" d=" M 371.03 109.00 C 381.99 109.01 392.95 108.99 403.91 109.00 C 403.89 121.69 403.82 134.37 403.95 147.06 C 392.98 147.06 382.01 147.06 371.05 147.06 C 371.11 134.38 371.10 121.69 371.03 109.00 Z" />
</g>
<g id="#1f6eb0ff">
<path fill="#1f6eb0" opacity="1.00" d=" M 403.91 109.00 C 410.26 109.01 416.61 108.99 422.97 109.00 C 422.99 121.69 422.97 134.37 422.97 147.06 C 416.63 147.06 410.29 147.06 403.95 147.06 C 403.82 134.37 403.89 121.69 403.91 109.00 Z" />
</g>
<g id="#2174b4ff">
<path fill="#2174b4" opacity="1.00" d=" M 422.97 109.00 C 428.67 109.01 434.36 108.99 440.06 109.00 C 440.19 121.69 440.13 134.38 440.07 147.06 C 434.37 147.06 428.67 147.06 422.97 147.06 C 422.97 134.37 422.99 121.69 422.97 109.00 Z" />
</g>
<g id="#277cbcff">
<path fill="#277cbc" opacity="1.00" d=" M 440.06 109.00 C 449.35 109.02 458.64 108.99 467.92 109.00 C 467.89 121.69 467.83 134.37 467.91 147.06 C 458.63 147.06 449.35 147.06 440.07 147.06 C 440.13 134.38 440.19 121.69 440.06 109.00 Z" />
</g>
<g id="#2e84c3ff">
<path fill="#2e84c3" opacity="1.00" d=" M 467.92 109.00 C 472.62 109.01 477.32 108.99 482.02 109.00 C 482.08 121.69 482.08 134.38 481.96 147.06 C 477.28 147.06 472.59 147.06 467.91 147.06 C 467.83 134.37 467.89 121.69 467.92 109.00 Z" />
</g>
<g id="#3389c9ff">
<path fill="#3389c9" opacity="1.00" d=" M 482.02 109.00 C 487.37 109.01 492.71 108.99 498.06 109.00 C 498.06 121.69 498.06 134.37 498.06 147.06 C 492.69 147.06 487.33 147.06 481.96 147.06 C 482.08 134.38 482.08 121.69 482.02 109.00 Z" />
</g>
<g id="#356498ff">
<path fill="#356498" opacity="1.00" d=" M 126.04 119.64 C 130.07 117.10 133.65 113.91 136.74 110.29 C 137.45 118.85 135.63 127.36 133.58 135.62 C 131.24 144.82 126.82 153.28 122.01 161.39 C 115.92 164.92 109.10 167.05 102.29 168.72 C 103.85 163.89 104.81 158.84 107.13 154.29 C 108.94 150.77 109.37 146.80 109.71 142.92 C 110.13 137.77 111.74 132.77 111.79 127.58 C 116.73 125.30 121.53 122.70 126.04 119.64 Z" />
</g>
<g id="#ffffffff">
<path fill="#ffffff" opacity="1.00" d=" M 197.74 116.79 C 201.00 114.51 205.13 114.48 208.94 114.58 C 211.84 114.66 214.69 115.23 217.52 115.85 C 217.20 118.16 216.88 120.48 216.52 122.79 C 211.94 121.88 207.16 120.65 202.56 122.19 C 205.51 125.32 210.51 123.84 214.12 125.80 C 218.40 127.22 219.91 132.86 217.51 136.50 C 215.67 139.51 212.13 140.75 208.83 141.36 C 203.91 141.64 198.87 141.39 194.27 139.44 C 194.56 136.99 194.83 134.55 195.07 132.09 C 199.89 133.89 205.89 136.40 210.59 133.09 C 206.35 131.59 201.57 131.77 197.61 129.50 C 193.04 126.91 193.37 119.42 197.74 116.79 Z" />
<path fill="#ffffff" opacity="1.00" d=" M 222.82 114.82 C 227.31 114.83 231.81 114.73 236.30 114.89 C 239.93 115.21 243.98 115.45 246.83 118.03 C 250.90 121.69 250.51 128.98 245.99 132.13 C 241.80 134.58 236.86 134.47 232.18 134.40 C 232.17 136.60 232.16 138.79 232.16 140.99 C 231.63 141.00 230.56 141.00 230.03 141.00 C 227.63 141.02 225.22 141.01 222.82 141.01 C 222.82 132.28 222.82 123.55 222.82 114.82 M 232.18 121.64 C 232.17 123.76 232.17 125.88 232.16 128.00 C 234.56 127.89 237.13 128.42 239.40 127.43 C 240.62 126.01 239.96 123.99 239.81 122.32 C 237.35 121.51 234.74 121.57 232.18 121.64 Z" />
<path fill="#ffffff" opacity="1.00" d=" M 255.83 118.91 C 257.72 116.72 260.52 115.67 263.24 114.92 C 268.03 114.47 273.16 114.10 277.64 116.19 C 286.91 120.14 286.90 135.81 277.68 139.81 C 273.49 141.87 268.69 141.43 264.18 141.28 C 259.98 140.54 255.71 138.32 253.94 134.25 C 251.84 129.34 252.17 123.01 255.83 118.91 M 265.19 122.18 C 261.54 124.06 261.70 129.48 263.56 132.60 C 265.82 134.99 269.82 134.76 272.63 133.55 C 275.27 131.67 275.07 127.92 274.56 125.09 C 273.49 121.17 268.34 121.08 265.19 122.18 Z" />
<path fill="#ffffff" opacity="1.00" d=" M 289.00 114.81 C 295.55 114.92 302.15 114.35 308.64 115.43 C 311.95 116.28 315.47 118.33 315.97 122.04 C 317.03 126.04 314.31 129.72 310.98 131.60 C 313.57 134.72 316.11 137.88 318.72 140.99 C 315.46 140.99 312.21 141.04 308.96 140.98 C 308.59 140.96 307.85 140.92 307.49 140.90 C 305.76 138.38 304.18 135.77 302.54 133.20 C 301.16 133.20 299.78 133.20 298.41 133.20 C 298.41 135.80 298.40 138.40 298.41 140.99 C 296.58 140.99 294.76 141.00 292.94 141.00 C 291.62 141.00 290.31 141.00 289.00 141.01 C 288.99 132.27 288.99 123.54 289.00 114.81 M 298.41 121.40 C 298.41 123.39 298.41 125.38 298.42 127.37 C 301.11 127.18 306.63 128.28 306.38 124.05 C 305.98 120.25 301.03 121.71 298.41 121.40 Z" />
<path fill="#ffffff" opacity="1.00" d=" M 319.64 114.78 C 328.49 114.74 337.35 114.82 346.21 114.68 C 346.24 117.20 346.30 119.72 346.40 122.24 C 343.41 122.23 340.42 122.23 337.43 122.23 C 337.44 128.45 337.42 134.68 337.46 140.90 L 336.35 140.97 C 333.67 141.07 330.99 141.03 328.31 141.00 C 328.31 134.75 328.31 128.49 328.30 122.23 C 325.30 122.23 322.30 122.22 319.30 122.22 C 319.43 119.74 319.55 117.26 319.64 114.78 Z" />
</g>
<g id="#969d9fff">
<path fill="#969d9f" opacity="1.00" d=" M 14.85 117.83 C 19.37 120.08 24.42 120.90 29.40 121.28 C 31.26 121.44 33.13 121.55 34.99 121.64 C 32.24 124.05 30.17 127.65 31.76 131.34 C 35.62 138.52 43.67 142.04 51.28 143.74 C 49.61 143.88 47.93 144.02 46.26 144.15 C 41.87 144.28 37.48 144.41 33.10 144.11 C 25.44 136.61 18.85 127.83 14.85 117.83 Z" />
</g>
<g id="#cccecbff">
<path fill="#cccecb" opacity="1.00" d=" M 62.89 119.36 C 65.64 118.84 68.39 118.29 71.12 117.71 C 71.55 117.95 72.39 118.45 72.82 118.70 C 67.63 120.47 62.30 121.81 56.93 122.89 C 53.54 123.56 49.86 124.89 48.15 128.15 C 48.28 131.71 51.34 134.24 54.30 135.70 C 61.12 139.25 69.03 138.36 76.41 139.50 C 73.06 140.30 69.70 141.12 66.30 141.67 C 59.15 141.66 51.78 140.22 45.80 136.13 C 43.27 134.44 41.34 131.88 40.47 128.96 C 41.79 125.87 44.54 123.79 46.88 121.51 C 47.37 121.47 48.35 121.39 48.84 121.35 C 53.55 120.90 58.24 120.20 62.89 119.36 Z" />
</g>
<g id="#202656ff">
<path fill="#202656" opacity="1.00" d=" M 232.18 121.64 C 234.74 121.57 237.35 121.51 239.81 122.32 C 239.96 123.99 240.62 126.01 239.40 127.43 C 237.13 128.42 234.56 127.89 232.16 128.00 C 232.17 125.88 232.17 123.76 232.18 121.64 Z" />
</g>
<g id="#21447dff">
<path fill="#21447d" opacity="1.00" d=" M 298.41 121.40 C 301.03 121.71 305.98 120.25 306.38 124.05 C 306.63 128.28 301.11 127.18 298.42 127.37 C 298.41 125.38 298.41 123.39 298.41 121.40 Z" />
<path fill="#21447d" opacity="1.00" d=" M 298.41 133.20 C 299.78 133.20 301.16 133.20 302.54 133.20 C 304.18 135.77 305.76 138.38 307.49 140.90 C 307.85 140.92 308.59 140.96 308.96 140.98 C 309.03 143.01 309.10 145.03 309.17 147.06 C 303.75 147.06 298.32 147.06 292.90 147.06 C 292.91 145.04 292.92 143.02 292.94 141.00 C 294.76 141.00 296.58 140.99 298.41 140.99 C 298.40 138.40 298.41 135.80 298.41 133.20 Z" />
</g>
<g id="#b4b8b6ff">
<path fill="#b4b8b6" opacity="1.00" d=" M 34.99 121.64 C 38.95 121.83 42.92 121.76 46.88 121.51 C 44.54 123.79 41.79 125.87 40.47 128.96 C 41.34 131.88 43.27 134.44 45.80 136.13 C 51.78 140.22 59.15 141.66 66.30 141.67 C 61.32 142.58 56.32 143.31 51.28 143.74 C 43.67 142.04 35.62 138.52 31.76 131.34 C 30.17 127.65 32.24 124.05 34.99 121.64 Z" />
</g>
<g id="#233668ff">
<path fill="#233668" opacity="1.00" d=" M 265.19 122.18 C 268.34 121.08 273.49 121.17 274.56 125.09 C 275.07 127.92 275.27 131.67 272.63 133.55 C 269.82 134.76 265.82 134.99 263.56 132.60 C 261.70 129.48 261.54 124.06 265.19 122.18 Z" />
</g>
<g id="#416699ff">
<path fill="#416699" opacity="1.00" d=" M 100.33 132.37 C 104.19 130.87 108.00 129.26 111.79 127.58 C 111.74 132.77 110.13 137.77 109.71 142.92 C 109.37 146.80 108.94 150.77 107.13 154.29 C 104.81 158.84 103.85 163.89 102.29 168.72 C 96.47 170.05 90.50 170.28 84.55 170.36 C 84.62 169.34 84.69 168.31 84.75 167.29 C 86.77 165.48 89.47 163.84 89.75 160.86 C 90.57 154.69 92.97 148.79 92.97 142.52 C 96.03 139.63 98.76 136.32 100.33 132.37 Z" />
</g>
<g id="#212757ff">
<path fill="#212757" opacity="1.00" d=" M 232.18 134.40 C 236.86 134.47 241.80 134.58 245.99 132.13 C 245.89 137.11 245.94 142.08 245.93 147.06 C 240.58 147.06 235.24 147.06 229.89 147.06 C 229.93 145.04 229.98 143.02 230.03 141.00 C 230.56 141.00 231.63 141.00 232.16 140.99 C 232.16 138.79 232.17 136.60 232.18 134.40 Z" />
</g>
<g id="#224c84ff">
<path fill="#224c84" opacity="1.00" d=" M 76.41 139.50 C 84.52 137.65 92.52 135.26 100.33 132.37 C 98.76 136.32 96.03 139.63 92.97 142.52 C 84.60 149.34 73.63 152.89 62.83 151.70 C 55.86 150.68 49.04 148.57 42.80 145.27 C 43.95 144.88 45.10 144.50 46.26 144.15 C 47.93 144.02 49.61 143.88 51.28 143.74 C 56.32 143.31 61.32 142.58 66.30 141.67 C 69.70 141.12 73.06 140.30 76.41 139.50 Z" />
</g>
<g id="#546490ff">
<path fill="#546490" opacity="1.00" d=" M 33.10 144.11 C 37.48 144.41 41.87 144.28 46.26 144.15 C 45.10 144.50 43.95 144.88 42.80 145.27 C 49.04 148.57 55.86 150.68 62.83 151.70 C 66.68 157.46 69.02 164.07 72.97 169.77 C 54.72 166.89 37.38 157.82 25.08 143.99 C 27.75 144.16 30.43 144.53 33.10 144.11 Z" />
</g>
<g id="#4b689aff">
<path fill="#4b689a" opacity="1.00" d=" M 62.83 151.70 C 73.63 152.89 84.60 149.34 92.97 142.52 C 92.97 148.79 90.57 154.69 89.75 160.86 C 89.47 163.84 86.77 165.48 84.75 167.29 C 84.69 168.31 84.62 169.34 84.55 170.36 C 80.68 170.27 76.82 170.06 72.97 169.77 C 69.02 164.07 66.68 157.46 62.83 151.70 Z" />
</g>
</svg>
