<?xml version="1.0" encoding="UTF-8" standalone="yes"?>
<svg xmlns="http://www.w3.org/2000/svg" xmlns:xlink="http://www.w3.org/1999/xlink" width="380px" height="106.66666666666666px" viewBox="0 0 285 80" version="1.1">
  <g id="surface1">
    <path style=" stroke:none;fill-rule:nonzero;fill:rgb(66.27451%,66.27451%,66.27451%);fill-opacity:1;" d="M 108.015625 0 L 54.148438 80.285156 L 60.421875 80.285156 L 114.285156 0 Z M 108.015625 0 "/>
    <path style=" stroke:none;fill-rule:nonzero;fill:rgb(0%,41.176471%,98.039216%);fill-opacity:1;" d="M 62.699219 16 L 41.894531 16 C 41.324219 16 40.46875 16.570312 40.183594 16.855469 L 35.625 23.429688 L 60.988281 23.429688 C 62.128906 23.429688 62.984375 24 62.984375 25.144531 C 63.269531 26.570312 61.558594 28 60.136719 28 L 48.734375 28 C 48.164062 28 47.308594 28.570312 47.023438 28.855469 L 42.464844 35.429688 L 58.710938 35.429688 C 64.980469 35.429688 71.820312 30 71.535156 23.714844 C 71.25 19.429688 66.976562 16 62.699219 16 "/>
    <path style=" stroke:none;fill-rule:nonzero;fill:rgb(0%,41.176471%,98.039216%);fill-opacity:1;" d="M 28.5 23.714844 L 0 23.714844 L 4.558594 17.144531 C 4.84375 16.570312 5.699219 16 6.269531 16 L 34.769531 16 L 30.210938 22.855469 C 29.925781 23.144531 29.070312 23.714844 28.5 23.714844 "/>
    <path style=" stroke:none;fill-rule:nonzero;fill:rgb(0%,41.176471%,98.039216%);fill-opacity:1;" d="M 11.96875 45.714844 L 13.679688 28.285156 L 22.230469 28.285156 L 20.519531 46 L 31.636719 29.429688 C 31.921875 28.855469 32.773438 28.570312 33.34375 28.570312 L 41.609375 28.570312 L 28.785156 47.429688 C 28.5 48 27.644531 48.285156 27.074219 48.285156 L 14.25 48.285156 C 12.824219 48.285156 11.96875 47.144531 11.96875 45.714844 "/>
    <path style=" stroke:none;fill-rule:nonzero;fill:rgb(0%,41.176471%,98.039216%);fill-opacity:1;" d="M 60.988281 48 L 34.199219 48 L 38.761719 41.429688 C 39.046875 40.855469 39.898438 40.570312 40.46875 40.570312 L 67.261719 40.570312 L 62.699219 47.144531 C 62.414062 47.714844 61.558594 48 60.988281 48 "/>
    <path style=" stroke:none;fill-rule:nonzero;fill:rgb(0%,41.176471%,98.039216%);fill-opacity:1;" d="M 230.566406 49.714844 C 235.125 49.714844 238.261719 47.714844 238.261719 44.570312 C 238.261719 43.429688 237.976562 42.855469 237.40625 42 C 236.550781 41.144531 235.125 40.855469 232.84375 40.855469 L 227.429688 40.855469 L 225.148438 49.714844 Z M 209.761719 67.429688 L 219.449219 32 L 233.414062 32 C 239.683594 32 243.675781 33.429688 245.953125 35.714844 C 247.949219 37.714844 248.804688 40.285156 248.804688 43.144531 C 248.804688 49.429688 245.386719 54.285156 237.691406 56.285156 C 237.691406 56.285156 239.113281 60 240.539062 61.144531 C 242.25 62.570312 244.246094 62.855469 245.101562 62.855469 L 243.390625 68.855469 C 243.390625 68.855469 241.394531 69.429688 238.261719 69.429688 C 235.125 69.429688 231.421875 67.429688 229.710938 63.714844 C 228.855469 62 227.144531 58 227.144531 58 L 222.585938 58 L 219.449219 69.144531 L 210.898438 69.144531 C 210.046875 68.855469 209.476562 68.285156 209.761719 67.429688 "/>
    <path style=" stroke:none;fill-rule:nonzero;fill:rgb(0%,41.176471%,98.039216%);fill-opacity:1;" d="M 151.050781 50.285156 C 156.179688 50.285156 159.03125 48 159.03125 44.570312 C 159.03125 43.429688 158.746094 42.570312 157.890625 42 C 156.75 40.855469 155.324219 40.570312 153.613281 40.570312 L 149.910156 40.570312 L 147.34375 50.285156 Z M 153.898438 32 C 159.886719 32 163.875 33.144531 166.441406 36 C 168.433594 38 169.289062 40.570312 169.289062 43.429688 C 169.289062 52.570312 161.878906 58.285156 151.050781 58.285156 L 145.066406 58.285156 L 142.214844 68.855469 L 133.378906 68.855469 C 132.523438 68.855469 131.953125 68.285156 132.238281 67.429688 L 141.644531 32 Z M 153.898438 32 "/>
    <path style=" stroke:none;fill-rule:nonzero;fill:rgb(0%,41.176471%,98.039216%);fill-opacity:1;" d="M 200.070312 48.570312 C 200.070312 44 197.21875 40.285156 192.089844 40.285156 C 185.535156 40.285156 181.546875 46.570312 181.546875 52 C 181.546875 56.570312 184.394531 60.285156 189.523438 60.285156 C 196.078125 60.570312 200.070312 54.285156 200.070312 48.570312 M 171 53.144531 C 171 42 180.121094 31.429688 192.945312 31.429688 C 203.488281 31.429688 210.613281 38.570312 210.613281 48 C 210.613281 59.144531 201.496094 69.714844 188.671875 69.714844 C 178.125 69.714844 171 62.570312 171 53.144531 "/>
    <path style=" stroke:none;fill-rule:nonzero;fill:rgb(0%,41.176471%,98.039216%);fill-opacity:1;" d="M 252.226562 41.144531 C 251.371094 41.144531 250.800781 40.570312 251.085938 39.714844 L 253.078125 32.285156 L 283.859375 32.285156 C 284.714844 32.285156 285.285156 32.855469 285 33.714844 L 283.003906 41.144531 L 271.890625 41.144531 L 264.480469 69.144531 L 255.644531 69.144531 C 254.789062 69.144531 254.21875 68.570312 254.503906 67.714844 L 261.628906 41.144531 Z M 252.226562 41.144531 "/>
    <path style=" stroke:none;fill-rule:nonzero;fill:rgb(0%,41.176471%,98.039216%);fill-opacity:1;" d="M 102.886719 58.285156 C 104.023438 57.144531 106.019531 57.144531 107.445312 58 C 110.296875 60 113.144531 61.144531 116.28125 61.144531 C 118.558594 61.144531 120.554688 60 120.554688 58.285156 C 120.554688 56.855469 119.414062 56 114.285156 54 C 108.585938 51.714844 104.59375 49.144531 104.59375 43.714844 C 104.59375 36.285156 111.148438 31.144531 120.269531 31.144531 C 126.824219 31.144531 131.953125 33.144531 135.375 36.570312 L 131.101562 41.714844 C 129.960938 42.855469 127.964844 43.144531 126.539062 42.285156 C 124.261719 40.855469 121.980469 40 119.414062 40 C 116.851562 40 115.425781 41.144531 115.425781 42.570312 C 115.425781 44 116.566406 44.570312 121.695312 46.570312 C 127.394531 48.855469 131.386719 51.429688 131.386719 56.855469 C 131.386719 64.570312 124.828125 69.714844 115.710938 69.714844 C 108.585938 69.714844 102.601562 67.144531 98.609375 62.855469 Z M 102.886719 58.285156 "/>
  </g>
</svg>