<?xml version="1.0" encoding="UTF-8" ?>
<!DOCTYPE svg PUBLIC "-//W3C//DTD SVG 1.1//EN" "http://www.w3.org/Graphics/SVG/1.1/DTD/svg11.dtd">
<svg width="640pt" height="640pt" viewBox="0 0 640 640" version="1.1" xmlns="http://www.w3.org/2000/svg">
<g id="#ffffffff">
<path fill="#ffffff" opacity="1.00" d=" M 47.12 165.39 C 52.21 161.58 58.87 161.16 64.99 161.33 C 70.42 161.36 76.28 161.97 80.79 165.27 C 83.44 167.18 84.50 170.39 85.43 173.36 C 80.56 173.21 75.73 173.86 70.89 174.19 C 69.16 170.38 64.66 169.81 60.97 170.54 C 59.17 170.70 56.60 171.73 57.10 173.98 C 58.22 176.64 61.63 176.78 64.04 177.48 C 70.29 179.15 77.46 179.01 82.66 183.35 C 87.26 187.49 86.38 195.16 82.34 199.36 C 78.63 203.25 73.11 204.54 67.95 204.96 C 61.13 205.77 53.86 205.47 47.59 202.43 C 43.43 200.43 40.98 196.13 40.40 191.66 C 45.22 191.45 50.04 191.43 54.86 191.42 C 57.36 196.45 64.41 197.26 69.05 195.03 C 71.36 193.97 72.14 190.61 69.51 189.42 C 62.21 186.12 53.16 187.48 46.48 182.53 C 40.96 178.44 41.69 169.24 47.12 165.39 Z" />
<path fill="#ffffff" opacity="1.00" d=" M 166.63 161.79 C 175.70 160.75 185.76 161.00 193.56 166.33 C 203.73 173.77 204.12 190.65 194.74 198.90 C 187.81 205.00 177.91 205.99 169.08 205.17 C 161.73 204.50 153.86 201.74 149.80 195.17 C 145.02 187.19 145.27 175.78 151.98 168.94 C 155.77 164.83 161.20 162.66 166.63 161.79 M 168.46 171.68 C 161.28 175.07 160.13 185.38 164.38 191.49 C 169.13 198.41 181.72 197.74 185.05 189.79 C 187.37 184.10 186.69 176.37 181.43 172.51 C 177.70 169.94 172.51 169.86 168.46 171.68 Z" />
<path fill="#ffffff" opacity="1.00" d=" M 336.19 168.25 C 339.39 163.46 345.50 161.83 350.94 161.42 C 357.84 161.23 365.29 160.91 371.47 164.52 C 374.71 166.33 376.33 169.87 377.05 173.36 C 372.28 173.08 367.58 174.09 362.83 174.08 C 359.89 169.30 353.37 169.52 348.92 171.97 C 349.20 173.27 348.76 175.07 350.31 175.70 C 357.24 178.92 365.46 178.17 372.25 181.81 C 375.92 183.68 378.10 187.95 377.33 192.02 C 376.86 198.35 370.99 202.71 365.20 204.03 C 356.96 205.72 348.00 206.25 340.09 202.92 C 335.51 201.07 332.67 196.47 332.26 191.66 C 337.05 191.46 341.86 191.44 346.66 191.40 C 348.67 195.58 353.74 196.66 357.96 196.02 C 360.07 195.60 362.72 194.53 362.90 192.04 C 363.15 190.43 361.48 189.40 360.22 188.87 C 353.27 186.51 345.33 187.06 338.96 183.05 C 334.02 180.02 333.04 172.92 336.19 168.25 Z" />
<path fill="#ffffff" opacity="1.00" d=" M 95.60 162.75 C 105.40 162.73 115.20 162.81 124.99 162.80 C 129.30 163.17 134.33 162.93 137.54 166.38 C 141.20 169.86 141.03 175.29 140.45 179.89 C 139.10 185.45 133.52 188.72 128.12 189.21 C 122.22 189.61 116.30 189.27 110.40 189.39 C 110.45 194.30 110.45 199.21 110.41 204.12 C 105.42 204.10 100.44 204.17 95.45 204.06 C 95.47 190.29 95.33 176.52 95.60 162.75 M 110.42 172.12 C 110.43 174.79 110.44 177.47 110.42 180.15 C 114.76 179.92 119.24 180.69 123.50 179.70 C 127.15 178.84 126.67 172.77 122.90 172.41 C 118.80 171.72 114.57 172.28 110.42 172.12 Z" />
<path fill="#ffffff" opacity="1.00" d=" M 209.78 162.80 C 219.87 162.81 229.95 162.76 240.04 162.81 C 243.95 163.14 248.19 163.13 251.57 165.43 C 256.71 168.80 257.73 176.23 255.35 181.56 C 253.90 184.95 250.36 186.62 247.10 187.83 C 250.63 193.18 253.97 198.66 257.33 204.12 C 251.91 204.12 246.48 204.11 241.06 204.13 C 238.09 199.06 235.36 193.84 232.30 188.83 C 229.80 188.85 227.31 188.85 224.81 188.85 C 224.79 193.94 224.85 199.03 224.77 204.13 C 219.75 204.11 214.73 204.12 209.71 204.11 C 209.88 190.34 209.74 176.57 209.78 162.80 M 224.80 172.11 C 224.81 174.60 224.80 177.08 224.80 179.57 C 229.48 179.43 234.19 179.85 238.85 179.32 C 242.65 178.69 242.35 173.32 238.96 172.31 C 234.27 171.82 229.52 172.25 224.80 172.11 Z" />
<path fill="#ffffff" opacity="1.00" d=" M 261.57 162.75 C 276.45 162.76 291.33 162.71 306.22 162.78 C 306.10 165.89 305.77 168.99 305.73 172.11 C 300.97 172.11 296.21 172.10 291.45 172.12 C 291.51 182.66 291.41 193.21 291.51 203.75 C 286.44 203.86 281.37 203.79 276.30 203.81 C 276.32 193.25 276.31 182.68 276.31 172.11 C 271.40 172.11 266.49 172.11 261.59 172.11 C 261.59 168.99 261.59 165.87 261.57 162.75 Z" />
<path fill="#ffffff" opacity="1.00" d=" M 386.43 172.10 C 386.43 168.92 386.43 165.75 386.42 162.57 C 401.36 162.60 416.30 162.59 431.24 162.58 C 431.23 165.54 431.22 168.51 431.26 171.48 C 422.48 179.01 413.80 186.66 404.98 194.14 C 413.63 194.14 422.28 194.10 430.93 194.16 C 430.77 197.38 430.60 200.60 430.55 203.83 C 414.95 203.80 399.36 203.79 383.76 203.83 C 384.18 200.52 382.66 196.10 385.85 193.82 C 394.22 186.61 402.51 179.33 410.90 172.15 C 402.74 172.04 394.58 172.13 386.43 172.10 Z" />
<path fill="#ffffff" opacity="1.00" d=" M 440.60 203.82 C 440.59 190.11 440.70 176.40 440.80 162.68 C 455.46 162.65 470.13 162.67 484.79 162.67 C 484.74 165.81 484.74 168.96 484.74 172.10 C 475.13 172.11 465.52 172.09 455.92 172.11 C 455.91 174.22 455.91 176.33 455.91 178.44 C 464.74 178.45 473.56 178.43 482.38 178.45 C 482.36 181.66 482.37 184.88 482.33 188.10 C 473.52 188.14 464.71 188.02 455.90 188.11 C 455.90 190.18 455.89 192.25 455.90 194.33 C 465.52 194.34 475.14 194.33 484.76 194.33 C 484.73 197.49 484.70 200.64 484.64 203.80 C 469.96 203.83 455.28 203.78 440.60 203.82 Z" />
<path fill="#ffffff" opacity="1.00" d=" M 493.93 162.76 C 498.02 162.74 502.11 162.75 506.21 162.75 C 512.90 170.19 519.32 177.88 526.12 185.23 C 526.14 177.74 526.16 170.25 526.10 162.76 C 530.86 162.74 535.62 162.75 540.39 162.75 C 539.92 176.28 540.29 189.82 540.07 203.35 C 539.90 203.53 539.56 203.88 539.39 204.06 C 535.54 204.24 531.67 204.01 527.82 204.16 C 521.21 196.69 514.77 189.07 508.32 181.47 C 508.09 189.02 508.30 196.59 507.90 204.14 C 503.08 204.10 498.26 204.11 493.45 204.13 C 493.58 190.34 493.90 176.55 493.93 162.76 Z" />
<path fill="#ffffff" opacity="1.00" d=" M 550.83 162.67 C 565.32 162.67 579.82 162.67 594.32 162.66 C 594.30 165.81 594.30 168.96 594.31 172.11 C 584.78 172.11 575.24 172.06 565.71 172.14 C 565.58 174.24 565.51 176.34 565.49 178.45 C 574.21 178.43 582.93 178.46 591.65 178.43 C 591.63 181.62 591.64 184.81 591.64 188.00 C 582.93 188.36 574.22 187.68 565.53 188.13 C 565.52 190.20 565.52 192.27 565.53 194.34 C 575.12 194.31 584.71 194.38 594.30 194.30 C 594.31 197.48 594.31 200.66 594.30 203.84 C 579.61 203.76 564.91 203.84 550.22 203.79 C 550.39 190.08 550.71 176.37 550.83 162.67 Z" />
<path fill="#ffffff" opacity="1.00" d=" M 114.17 257.02 C 141.31 250.95 169.36 250.08 197.02 251.95 C 212.72 253.35 228.72 255.32 243.26 261.78 C 251.49 265.52 259.53 271.64 262.22 280.65 C 265.24 289.21 261.14 297.89 259.35 306.25 C 232.99 306.21 206.63 306.21 180.27 306.25 C 181.03 301.13 183.73 295.89 182.15 290.70 C 181.00 286.65 176.57 285.16 172.89 284.39 C 165.11 282.82 156.44 283.13 149.57 287.48 C 146.36 289.45 143.82 293.45 145.13 297.28 C 146.17 301.30 149.69 304.01 153.34 305.59 C 174.85 315.16 196.35 324.75 217.84 334.38 C 227.70 338.97 237.52 345.15 243.15 354.76 C 247.52 362.11 247.86 371.26 245.20 379.27 C 241.71 391.18 233.05 400.95 222.51 407.25 C 163.20 407.25 103.89 407.24 44.58 407.26 C 41.38 403.95 38.41 400.24 37.10 395.76 C 34.08 386.45 36.98 376.51 40.53 367.78 C 67.63 367.93 94.73 367.82 121.82 367.84 C 121.02 373.70 118.29 380.16 121.23 385.84 C 124.23 390.95 130.79 391.50 136.11 391.86 C 144.16 391.67 153.13 389.99 158.78 383.75 C 162.45 379.80 162.09 373.35 158.64 369.39 C 155.43 365.66 150.77 363.71 146.38 361.73 C 129.07 354.33 111.74 346.96 94.40 339.60 C 87.14 336.54 79.86 333.31 73.41 328.71 C 66.54 324.11 60.93 316.64 61.30 308.02 C 61.95 296.71 66.63 285.64 74.18 277.20 C 84.61 265.96 99.59 260.49 114.17 257.02 Z" />
<path fill="#ffffff" opacity="1.00" d=" M 328.95 259.78 C 343.95 255.07 359.64 253.12 375.25 251.78 C 399.20 250.42 423.44 250.77 447.06 255.31 C 457.78 257.52 468.69 260.69 477.54 267.39 C 484.71 272.71 489.37 281.88 487.86 290.89 C 486.94 296.06 485.42 301.09 484.34 306.23 C 457.91 306.22 431.48 306.23 405.05 306.23 C 406.14 301.26 408.18 296.16 407.09 291.02 C 406.11 287.17 402.13 285.33 398.59 284.57 C 390.99 282.89 382.59 282.98 375.60 286.74 C 372.32 288.60 369.16 291.95 369.75 296.02 C 370.31 300.72 374.35 303.99 378.45 305.72 C 396.70 313.80 414.91 321.96 433.13 330.10 C 443.97 334.85 455.32 339.65 463.47 348.56 C 469.27 354.85 472.73 363.51 471.57 372.11 C 469.82 386.92 460.04 399.79 447.38 407.25 C 388.03 407.25 328.68 407.24 269.33 407.25 C 265.77 403.45 262.48 399.10 261.44 393.88 C 259.51 385.06 262.10 376.08 265.17 367.84 C 292.32 367.86 319.47 367.85 346.62 367.85 C 345.94 372.85 344.21 377.86 345.01 382.95 C 345.62 386.61 348.71 389.42 352.17 390.47 C 359.76 392.77 368.06 392.02 375.44 389.27 C 380.40 387.35 385.46 383.61 386.25 377.99 C 386.62 373.47 384.19 369.00 380.42 366.56 C 374.79 362.72 368.24 360.59 362.07 357.81 C 347.79 351.73 333.51 345.65 319.22 339.60 C 310.52 335.87 301.60 332.00 294.45 325.64 C 289.92 321.71 286.51 316.16 286.24 310.06 C 285.86 301.08 289.09 292.28 293.51 284.59 C 301.15 271.69 315.02 264.11 328.95 259.78 Z" />
<path fill="#ffffff" opacity="1.00" d=" M 563.77 254.87 C 575.03 252.60 586.57 252.13 598.03 252.29 C 612.03 252.20 626.02 252.38 640.00 253.15 L 640.00 283.62 C 630.35 283.68 620.62 283.23 611.07 284.85 C 607.36 285.50 603.39 287.09 601.61 290.65 C 599.26 295.16 598.41 300.25 596.98 305.09 C 608.29 305.06 619.60 305.15 630.92 305.04 C 628.42 315.46 625.78 325.84 623.27 336.26 C 613.18 336.25 603.10 336.26 593.02 336.25 C 587.17 359.92 581.40 383.60 575.53 407.25 C 550.13 407.25 524.74 407.23 499.34 407.26 C 505.47 383.71 510.93 359.99 516.97 336.42 C 507.48 336.33 497.99 336.43 488.50 336.36 C 491.08 325.94 493.66 315.52 496.19 305.09 C 505.76 305.02 515.35 305.24 524.93 304.96 C 527.95 292.62 530.17 279.42 538.19 269.13 C 544.34 261.10 554.09 256.85 563.77 254.87 Z" />
<path fill="#ffffff" opacity="1.00" d=" M 52.30 426.87 C 58.54 424.84 65.23 426.10 71.66 425.74 C 71.66 428.91 71.65 432.08 71.70 435.25 C 69.77 435.47 67.58 434.85 65.80 435.77 C 64.03 436.65 64.36 438.81 63.97 440.44 C 66.54 440.45 69.12 440.45 71.70 440.46 C 71.68 443.86 71.59 447.27 71.54 450.68 C 69.28 450.67 67.02 450.68 64.77 450.69 C 64.78 459.82 64.71 468.95 64.72 478.08 C 58.87 478.08 53.02 478.08 47.18 478.09 C 47.13 468.93 47.16 459.78 47.16 450.62 C 45.26 450.62 43.37 450.63 41.48 450.64 C 41.49 447.19 41.49 443.74 41.48 440.30 C 43.38 440.30 45.29 440.31 47.19 440.32 C 47.52 435.64 46.95 428.98 52.30 426.87 Z" />
<path fill="#ffffff" opacity="1.00" d=" M 381.80 425.34 C 387.63 425.37 393.45 425.36 399.28 425.34 C 399.28 431.32 399.27 437.31 399.28 443.29 C 405.66 437.73 414.62 435.85 422.74 438.18 C 428.85 439.37 434.22 444.52 434.55 450.92 C 434.65 459.96 434.55 469.01 434.59 478.06 C 428.80 478.11 423.02 478.07 417.23 478.09 C 417.17 471.36 417.25 464.62 417.21 457.89 C 417.29 454.30 415.35 450.38 411.61 449.51 C 408.68 449.07 405.24 448.73 402.78 450.74 C 400.25 452.65 399.16 455.92 399.19 459.01 C 399.14 465.37 399.20 471.73 399.18 478.09 C 393.39 478.08 387.60 478.08 381.81 478.09 C 381.80 460.50 381.81 442.92 381.80 425.34 Z" />
<path fill="#ffffff" opacity="1.00" d=" M 258.44 441.41 C 264.54 437.69 272.02 437.19 279.00 437.29 C 285.51 437.11 292.43 438.17 297.84 442.04 C 300.77 444.11 302.39 447.40 303.71 450.63 C 297.80 450.52 291.92 451.27 286.02 451.34 C 284.04 447.27 279.04 446.22 274.96 447.02 C 273.20 447.36 270.77 448.37 271.28 450.61 C 272.54 452.34 274.98 452.59 276.92 453.08 C 282.30 453.82 287.71 454.40 293.08 455.23 C 296.63 455.75 300.41 457.21 302.31 460.45 C 304.81 465.04 302.68 470.94 298.70 473.95 C 293.40 478.06 286.42 479.00 279.92 479.35 C 272.57 479.36 264.89 478.82 258.15 475.64 C 254.39 473.94 252.27 470.18 251.50 466.28 C 257.36 465.47 263.28 465.37 269.19 465.35 C 271.00 467.84 273.64 469.80 276.86 469.60 C 279.86 469.74 285.02 470.11 285.42 466.01 C 283.31 463.08 279.13 463.57 275.99 462.75 C 269.48 461.37 262.13 461.59 256.70 457.22 C 251.73 453.08 253.02 444.56 258.44 441.41 Z" />
<path fill="#ffffff" opacity="1.00" d=" M 84.08 446.10 C 88.80 440.00 96.76 438.07 104.10 437.72 C 113.67 437.16 124.74 437.97 131.79 445.28 C 135.89 449.34 136.76 455.24 137.35 460.71 C 124.27 460.73 111.18 460.66 98.10 460.74 C 98.95 464.67 102.10 467.72 105.94 468.74 C 110.17 470.18 114.86 468.43 117.91 465.35 C 123.97 466.06 130.08 466.14 136.15 466.81 C 132.08 474.49 123.28 477.81 115.08 478.67 C 105.51 480.00 94.82 479.14 86.87 473.15 C 78.65 466.95 77.55 453.89 84.08 446.10 M 98.47 453.82 C 105.25 454.03 112.04 453.89 118.83 453.92 C 115.56 445.33 102.07 445.61 98.47 453.82 Z" />
<path fill="#ffffff" opacity="1.00" d=" M 164.11 444.61 C 167.31 440.33 172.48 437.76 177.84 437.94 C 177.66 443.09 177.67 448.24 177.76 453.40 C 174.30 453.43 170.52 452.56 167.35 454.36 C 165.34 455.39 164.01 457.64 164.09 459.91 C 164.04 465.90 164.11 471.90 164.08 477.90 C 158.24 477.97 152.39 477.76 146.56 478.07 C 146.41 464.93 146.68 451.80 146.64 438.67 C 152.45 438.67 158.26 438.66 164.07 438.68 C 164.08 440.65 164.09 442.63 164.11 444.61 Z" />
<path fill="#ffffff" opacity="1.00" d=" M 206.10 443.58 C 212.76 438.90 221.17 436.70 229.21 438.51 C 234.78 439.31 240.22 443.19 241.32 448.95 C 242.62 458.66 241.96 468.47 242.12 478.24 C 236.13 478.26 230.13 478.24 224.14 478.26 C 223.89 470.80 224.68 463.25 223.74 455.85 C 222.67 449.26 213.14 447.10 208.85 451.87 C 206.70 454.39 206.11 457.86 206.13 461.08 C 206.14 466.80 206.11 472.53 206.12 478.26 C 200.20 478.24 194.30 478.24 188.39 478.26 C 188.43 465.06 188.27 451.86 188.48 438.67 C 194.37 438.67 200.27 438.67 206.16 438.67 C 206.14 440.30 206.12 441.94 206.10 443.58 Z" />
<path fill="#ffffff" opacity="1.00" d=" M 315.52 448.52 C 319.01 442.30 325.96 438.83 332.88 438.17 C 342.69 436.96 353.64 437.07 362.11 442.82 C 367.98 446.77 370.06 453.97 370.47 460.68 C 357.37 460.76 344.27 460.64 331.17 460.74 C 332.95 469.52 345.37 472.04 350.99 465.37 C 357.07 466.05 363.18 466.14 369.26 466.81 C 364.57 475.53 354.21 478.40 345.02 479.03 C 336.20 479.71 326.44 478.50 319.40 472.69 C 312.41 467.00 311.08 456.14 315.52 448.52 M 331.56 453.76 C 338.34 454.15 345.14 453.73 351.92 454.04 C 348.80 445.28 335.26 445.63 331.56 453.76 Z" />
<path fill="#ffffff" opacity="1.00" d=" M 453.71 442.93 C 459.70 438.22 467.66 437.74 474.98 437.52 C 483.09 437.69 492.05 438.95 498.03 444.99 C 502.02 449.13 503.59 455.03 503.54 460.66 C 490.47 460.80 477.39 460.60 464.32 460.76 C 465.96 466.40 472.13 470.39 477.93 468.94 C 480.62 468.62 482.53 466.53 484.86 465.43 C 490.79 465.99 496.74 466.21 502.66 466.85 C 498.34 474.58 489.40 477.93 481.01 478.74 C 471.29 479.99 460.29 479.01 452.52 472.47 C 443.68 465.06 444.49 449.69 453.71 442.93 M 465.09 454.01 C 471.81 453.78 478.55 454.11 485.28 453.79 C 481.90 445.43 468.19 445.46 465.09 454.01 Z" />
<path fill="#ffffff" opacity="1.00" d=" M 532.27 443.60 C 538.90 438.96 547.24 436.70 555.26 438.49 C 560.87 439.27 566.55 443.25 567.48 449.13 C 568.89 458.77 567.90 468.55 568.19 478.26 C 562.18 478.24 556.18 478.25 550.18 478.25 C 550.15 471.09 550.33 463.92 550.12 456.76 C 549.68 450.41 541.57 447.31 536.54 450.62 C 533.15 452.83 532.38 457.23 532.30 460.98 C 532.33 466.74 532.22 472.50 532.21 478.26 C 526.34 478.25 520.48 478.24 514.62 478.26 C 514.64 465.06 514.58 451.87 514.69 438.67 C 520.57 438.67 526.44 438.67 532.32 438.67 C 532.30 440.30 532.28 441.95 532.27 443.60 Z" />
<path fill="#ffffff" opacity="1.00" d=" M 582.18 464.23 C 587.82 464.24 593.47 464.21 599.11 464.25 C 599.08 468.85 599.27 473.46 598.86 478.05 C 593.31 477.78 587.75 477.95 582.19 477.92 C 582.18 473.35 582.19 468.79 582.18 464.23 Z" />
</g>
<g id="#000000ff">
<path fill="#000000" opacity="1.00" d=" M 0.00 137.16 C 213.33 137.16 426.67 137.16 640.00 137.16 L 640.00 227.33 C 426.67 227.33 213.33 227.33 0.00 227.33 L 0.00 137.16 M 47.12 165.39 C 41.69 169.24 40.96 178.44 46.48 182.53 C 53.16 187.48 62.21 186.12 69.51 189.42 C 72.14 190.61 71.36 193.97 69.05 195.03 C 64.41 197.26 57.36 196.45 54.86 191.42 C 50.04 191.43 45.22 191.45 40.40 191.66 C 40.98 196.13 43.43 200.43 47.59 202.43 C 53.86 205.47 61.13 205.77 67.95 204.96 C 73.11 204.54 78.63 203.25 82.34 199.36 C 86.38 195.16 87.26 187.49 82.66 183.35 C 77.46 179.01 70.29 179.15 64.04 177.48 C 61.63 176.78 58.22 176.64 57.10 173.98 C 56.60 171.73 59.17 170.70 60.97 170.54 C 64.66 169.81 69.16 170.38 70.89 174.19 C 75.73 173.86 80.56 173.21 85.43 173.36 C 84.50 170.39 83.44 167.18 80.79 165.27 C 76.28 161.97 70.42 161.36 64.99 161.33 C 58.87 161.16 52.21 161.58 47.12 165.39 M 166.63 161.79 C 161.20 162.66 155.77 164.83 151.98 168.94 C 145.27 175.78 145.02 187.19 149.80 195.17 C 153.86 201.74 161.73 204.50 169.08 205.17 C 177.91 205.99 187.81 205.00 194.74 198.90 C 204.12 190.65 203.73 173.77 193.56 166.33 C 185.76 161.00 175.70 160.75 166.63 161.79 M 336.19 168.25 C 333.04 172.92 334.02 180.02 338.96 183.05 C 345.33 187.06 353.27 186.51 360.22 188.87 C 361.48 189.40 363.15 190.43 362.90 192.04 C 362.72 194.53 360.07 195.60 357.96 196.02 C 353.74 196.66 348.67 195.58 346.66 191.40 C 341.86 191.44 337.05 191.46 332.26 191.66 C 332.67 196.47 335.51 201.07 340.09 202.92 C 348.00 206.25 356.96 205.72 365.20 204.03 C 370.99 202.71 376.86 198.35 377.33 192.02 C 378.10 187.95 375.92 183.68 372.25 181.81 C 365.46 178.17 357.24 178.92 350.31 175.70 C 348.76 175.07 349.20 173.27 348.92 171.97 C 353.37 169.52 359.89 169.30 362.83 174.08 C 367.58 174.09 372.28 173.08 377.05 173.36 C 376.33 169.87 374.71 166.33 371.47 164.52 C 365.29 160.91 357.84 161.23 350.94 161.42 C 345.50 161.83 339.39 163.46 336.19 168.25 M 95.60 162.75 C 95.33 176.52 95.47 190.29 95.45 204.06 C 100.44 204.17 105.42 204.10 110.41 204.12 C 110.45 199.21 110.45 194.30 110.40 189.39 C 116.30 189.27 122.22 189.61 128.12 189.21 C 133.52 188.72 139.10 185.45 140.45 179.89 C 141.03 175.29 141.20 169.86 137.54 166.38 C 134.33 162.93 129.30 163.17 124.99 162.80 C 115.20 162.81 105.40 162.73 95.60 162.75 M 209.78 162.80 C 209.74 176.57 209.88 190.34 209.71 204.11 C 214.73 204.12 219.75 204.11 224.77 204.13 C 224.85 199.03 224.79 193.94 224.81 188.85 C 227.31 188.85 229.80 188.85 232.30 188.83 C 235.36 193.84 238.09 199.06 241.06 204.13 C 246.48 204.11 251.91 204.12 257.33 204.12 C 253.97 198.66 250.63 193.18 247.10 187.83 C 250.36 186.62 253.90 184.95 255.35 181.56 C 257.73 176.23 256.71 168.80 251.57 165.43 C 248.19 163.13 243.95 163.14 240.04 162.81 C 229.95 162.76 219.87 162.81 209.78 162.80 M 261.57 162.75 C 261.59 165.87 261.59 168.99 261.59 172.11 C 266.49 172.11 271.40 172.11 276.31 172.11 C 276.31 182.68 276.32 193.25 276.30 203.81 C 281.37 203.79 286.44 203.86 291.51 203.75 C 291.41 193.21 291.51 182.66 291.45 172.12 C 296.21 172.10 300.97 172.11 305.73 172.11 C 305.77 168.99 306.10 165.89 306.22 162.78 C 291.33 162.71 276.45 162.76 261.57 162.75 M 386.43 172.10 C 394.58 172.13 402.74 172.04 410.90 172.15 C 402.51 179.33 394.22 186.61 385.85 193.82 C 382.66 196.10 384.18 200.52 383.76 203.83 C 399.36 203.79 414.95 203.80 430.55 203.83 C 430.60 200.60 430.77 197.38 430.93 194.16 C 422.28 194.10 413.63 194.14 404.98 194.14 C 413.80 186.66 422.48 179.01 431.26 171.48 C 431.22 168.51 431.23 165.54 431.24 162.58 C 416.30 162.59 401.36 162.60 386.42 162.57 C 386.43 165.75 386.43 168.92 386.43 172.10 M 440.60 203.82 C 455.28 203.78 469.96 203.83 484.64 203.80 C 484.70 200.64 484.73 197.49 484.76 194.33 C 475.14 194.33 465.52 194.34 455.90 194.33 C 455.89 192.25 455.90 190.18 455.90 188.11 C 464.71 188.02 473.52 188.14 482.33 188.10 C 482.37 184.88 482.36 181.66 482.38 178.45 C 473.56 178.43 464.74 178.45 455.91 178.44 C 455.91 176.33 455.91 174.22 455.92 172.11 C 465.52 172.09 475.13 172.11 484.74 172.10 C 484.74 168.96 484.74 165.81 484.79 162.67 C 470.13 162.67 455.46 162.65 440.80 162.68 C 440.70 176.40 440.59 190.11 440.60 203.82 M 493.93 162.76 C 493.90 176.55 493.58 190.34 493.45 204.13 C 498.26 204.11 503.08 204.10 507.90 204.14 C 508.30 196.59 508.09 189.02 508.32 181.47 C 514.77 189.07 521.21 196.69 527.82 204.16 C 531.67 204.01 535.54 204.24 539.39 204.06 C 539.56 203.88 539.90 203.53 540.07 203.35 C 540.29 189.82 539.92 176.28 540.39 162.75 C 535.62 162.75 530.86 162.74 526.10 162.76 C 526.16 170.25 526.14 177.74 526.12 185.23 C 519.32 177.88 512.90 170.19 506.21 162.75 C 502.11 162.75 498.02 162.74 493.93 162.76 M 550.83 162.67 C 550.71 176.37 550.39 190.08 550.22 203.79 C 564.91 203.84 579.61 203.76 594.30 203.84 C 594.31 200.66 594.31 197.48 594.30 194.30 C 584.71 194.38 575.12 194.31 565.53 194.34 C 565.52 192.27 565.52 190.20 565.53 188.13 C 574.22 187.68 582.93 188.36 591.64 188.00 C 591.64 184.81 591.63 181.62 591.65 178.43 C 582.93 178.46 574.21 178.43 565.49 178.45 C 565.51 176.34 565.58 174.24 565.71 172.14 C 575.24 172.06 584.78 172.11 594.31 172.11 C 594.30 168.96 594.30 165.81 594.32 162.66 C 579.82 162.67 565.32 162.67 550.83 162.67 Z" />
<path fill="#000000" opacity="1.00" d=" M 168.46 171.68 C 172.51 169.86 177.70 169.94 181.43 172.51 C 186.69 176.37 187.37 184.10 185.05 189.79 C 181.72 197.74 169.13 198.41 164.38 191.49 C 160.13 185.38 161.28 175.07 168.46 171.68 Z" />
<path fill="#000000" opacity="1.00" d=" M 224.80 172.11 C 229.52 172.25 234.27 171.82 238.96 172.31 C 242.35 173.32 242.65 178.69 238.85 179.32 C 234.19 179.85 229.48 179.43 224.80 179.57 C 224.80 177.08 224.81 174.60 224.80 172.11 Z" />
<path fill="#000000" opacity="1.00" d=" M 110.42 172.12 C 114.57 172.28 118.80 171.72 122.90 172.41 C 126.67 172.77 127.15 178.84 123.50 179.70 C 119.24 180.69 114.76 179.92 110.42 180.15 C 110.44 177.47 110.43 174.79 110.42 172.12 Z" />
<path fill="#000000" opacity="1.00" d=" M 0.00 407.27 C 14.86 407.26 29.72 407.29 44.58 407.26 C 103.89 407.24 163.20 407.25 222.51 407.25 C 238.12 407.29 253.72 407.28 269.33 407.25 C 328.68 407.24 388.03 407.25 447.38 407.25 C 464.70 407.29 482.02 407.28 499.34 407.26 C 524.74 407.23 550.13 407.25 575.53 407.25 C 597.02 407.30 618.51 407.26 640.00 407.27 L 640.00 497.00 C 426.67 497.00 213.33 497.00 0.00 497.00 L 0.00 407.27 M 52.30 426.87 C 46.95 428.98 47.52 435.64 47.19 440.32 C 45.29 440.31 43.38 440.30 41.48 440.30 C 41.49 443.74 41.49 447.19 41.48 450.64 C 43.37 450.63 45.26 450.62 47.16 450.62 C 47.16 459.78 47.13 468.93 47.18 478.09 C 53.02 478.08 58.87 478.08 64.72 478.08 C 64.71 468.95 64.78 459.82 64.77 450.69 C 67.02 450.68 69.28 450.67 71.54 450.68 C 71.59 447.27 71.68 443.86 71.70 440.46 C 69.12 440.45 66.54 440.45 63.97 440.44 C 64.36 438.81 64.03 436.65 65.80 435.77 C 67.58 434.85 69.77 435.47 71.70 435.25 C 71.65 432.08 71.66 428.91 71.66 425.74 C 65.23 426.10 58.54 424.84 52.30 426.87 M 381.80 425.34 C 381.81 442.92 381.80 460.50 381.81 478.09 C 387.60 478.08 393.39 478.08 399.18 478.09 C 399.20 471.73 399.14 465.37 399.19 459.01 C 399.16 455.92 400.25 452.65 402.78 450.74 C 405.24 448.73 408.68 449.07 411.61 449.51 C 415.35 450.38 417.29 454.30 417.21 457.89 C 417.25 464.62 417.17 471.36 417.23 478.09 C 423.02 478.07 428.80 478.11 434.59 478.06 C 434.55 469.01 434.65 459.96 434.55 450.92 C 434.22 444.52 428.85 439.37 422.74 438.18 C 414.62 435.85 405.66 437.73 399.28 443.29 C 399.27 437.31 399.28 431.32 399.28 425.34 C 393.45 425.36 387.63 425.37 381.80 425.34 M 258.44 441.41 C 253.02 444.56 251.73 453.08 256.70 457.22 C 262.13 461.59 269.48 461.37 275.99 462.75 C 279.13 463.57 283.31 463.08 285.42 466.01 C 285.02 470.11 279.86 469.74 276.86 469.60 C 273.64 469.80 271.00 467.84 269.19 465.35 C 263.28 465.37 257.36 465.47 251.50 466.28 C 252.27 470.18 254.39 473.94 258.15 475.64 C 264.89 478.82 272.57 479.36 279.92 479.35 C 286.42 479.00 293.40 478.06 298.70 473.95 C 302.68 470.94 304.81 465.04 302.31 460.45 C 300.41 457.21 296.63 455.75 293.08 455.23 C 287.71 454.40 282.30 453.82 276.92 453.08 C 274.98 452.59 272.54 452.34 271.28 450.61 C 270.77 448.37 273.20 447.36 274.96 447.02 C 279.04 446.22 284.04 447.27 286.02 451.34 C 291.92 451.27 297.80 450.52 303.71 450.63 C 302.39 447.40 300.77 444.11 297.84 442.04 C 292.43 438.17 285.51 437.11 279.00 437.29 C 272.02 437.19 264.54 437.69 258.44 441.41 M 84.08 446.10 C 77.55 453.89 78.65 466.95 86.87 473.15 C 94.82 479.14 105.51 480.00 115.08 478.67 C 123.28 477.81 132.08 474.49 136.15 466.81 C 130.08 466.14 123.97 466.06 117.91 465.35 C 114.86 468.43 110.17 470.18 105.94 468.74 C 102.10 467.72 98.95 464.67 98.10 460.74 C 111.18 460.66 124.27 460.73 137.35 460.71 C 136.76 455.24 135.89 449.34 131.79 445.28 C 124.74 437.97 113.67 437.16 104.10 437.72 C 96.76 438.07 88.80 440.00 84.08 446.10 M 164.11 444.61 C 164.09 442.63 164.08 440.65 164.07 438.68 C 158.26 438.66 152.45 438.67 146.64 438.67 C 146.68 451.80 146.41 464.93 146.56 478.07 C 152.39 477.76 158.24 477.97 164.08 477.90 C 164.11 471.90 164.04 465.90 164.09 459.91 C 164.01 457.64 165.34 455.39 167.35 454.36 C 170.52 452.56 174.30 453.43 177.76 453.40 C 177.67 448.24 177.66 443.09 177.84 437.94 C 172.48 437.76 167.31 440.33 164.11 444.61 M 206.10 443.58 C 206.12 441.94 206.14 440.30 206.16 438.67 C 200.27 438.67 194.37 438.67 188.48 438.67 C 188.27 451.86 188.43 465.06 188.39 478.26 C 194.30 478.24 200.20 478.24 206.12 478.26 C 206.11 472.53 206.14 466.80 206.13 461.08 C 206.11 457.86 206.70 454.39 208.85 451.87 C 213.14 447.10 222.67 449.26 223.74 455.85 C 224.68 463.25 223.89 470.80 224.14 478.26 C 230.13 478.24 236.13 478.26 242.12 478.24 C 241.96 468.47 242.62 458.66 241.32 448.95 C 240.22 443.19 234.78 439.31 229.21 438.51 C 221.17 436.70 212.76 438.90 206.10 443.58 M 315.52 448.52 C 311.08 456.14 312.41 467.00 319.40 472.69 C 326.44 478.50 336.20 479.71 345.02 479.03 C 354.21 478.40 364.57 475.53 369.26 466.81 C 363.18 466.14 357.07 466.05 350.99 465.37 C 345.37 472.04 332.95 469.52 331.17 460.74 C 344.27 460.64 357.37 460.76 370.47 460.68 C 370.06 453.97 367.98 446.77 362.11 442.82 C 353.64 437.07 342.69 436.96 332.88 438.17 C 325.96 438.83 319.01 442.30 315.52 448.52 M 453.71 442.93 C 444.49 449.69 443.68 465.06 452.52 472.47 C 460.29 479.01 471.29 479.99 481.01 478.74 C 489.40 477.93 498.34 474.58 502.66 466.85 C 496.74 466.21 490.79 465.99 484.86 465.43 C 482.53 466.53 480.62 468.62 477.93 468.94 C 472.13 470.39 465.96 466.40 464.32 460.76 C 477.39 460.60 490.47 460.80 503.54 460.66 C 503.59 455.03 502.02 449.13 498.03 444.99 C 492.05 438.95 483.09 437.69 474.98 437.52 C 467.66 437.74 459.70 438.22 453.71 442.93 M 532.27 443.60 C 532.28 441.95 532.30 440.30 532.32 438.67 C 526.44 438.67 520.57 438.67 514.69 438.67 C 514.58 451.87 514.64 465.06 514.62 478.26 C 520.48 478.24 526.34 478.25 532.21 478.26 C 532.22 472.50 532.33 466.74 532.30 460.98 C 532.38 457.23 533.15 452.83 536.54 450.62 C 541.57 447.31 549.68 450.41 550.12 456.76 C 550.33 463.92 550.15 471.09 550.18 478.25 C 556.18 478.25 562.18 478.24 568.19 478.26 C 567.90 468.55 568.89 458.77 567.48 449.13 C 566.55 443.25 560.87 439.27 555.26 438.49 C 547.24 436.70 538.90 438.96 532.27 443.60 M 582.18 464.23 C 582.19 468.79 582.18 473.35 582.19 477.92 C 587.75 477.95 593.31 477.78 598.86 478.05 C 599.27 473.46 599.08 468.85 599.11 464.25 C 593.47 464.21 587.82 464.24 582.18 464.23 Z" />
<path fill="#000000" opacity="1.00" d=" M 98.47 453.82 C 102.07 445.61 115.56 445.33 118.83 453.92 C 112.04 453.89 105.25 454.03 98.47 453.82 Z" />
<path fill="#000000" opacity="1.00" d=" M 331.56 453.76 C 335.26 445.63 348.80 445.28 351.92 454.04 C 345.14 453.73 338.34 454.15 331.56 453.76 Z" />
<path fill="#000000" opacity="1.00" d=" M 465.09 454.01 C 468.19 445.46 481.90 445.43 485.28 453.79 C 478.55 454.11 471.81 453.78 465.09 454.01 Z" />
</g>
<g id="#c21521ff">
<path fill="#c21521" opacity="1.00" d=" M 0.00 227.33 C 213.33 227.33 426.67 227.33 640.00 227.33 L 640.00 253.15 C 626.02 252.38 612.03 252.20 598.03 252.29 C 586.57 252.13 575.03 252.60 563.77 254.87 C 554.09 256.85 544.34 261.10 538.19 269.13 C 530.17 279.42 527.95 292.62 524.93 304.96 C 515.35 305.24 505.76 305.02 496.19 305.09 C 493.66 315.52 491.08 325.94 488.50 336.36 C 497.99 336.43 507.48 336.33 516.97 336.42 C 510.93 359.99 505.47 383.71 499.34 407.26 C 482.02 407.28 464.70 407.29 447.38 407.25 C 460.04 399.79 469.82 386.92 471.57 372.11 C 472.73 363.51 469.27 354.85 463.47 348.56 C 455.32 339.65 443.97 334.85 433.13 330.10 C 414.91 321.96 396.70 313.80 378.45 305.72 C 374.35 303.99 370.31 300.72 369.75 296.02 C 369.16 291.95 372.32 288.60 375.60 286.74 C 382.59 282.98 390.99 282.89 398.59 284.57 C 402.13 285.33 406.11 287.17 407.09 291.02 C 408.18 296.16 406.14 301.26 405.05 306.23 C 431.48 306.23 457.91 306.22 484.34 306.23 C 485.42 301.09 486.94 296.06 487.86 290.89 C 489.37 281.88 484.71 272.71 477.54 267.39 C 468.69 260.69 457.78 257.52 447.06 255.31 C 423.44 250.77 399.20 250.42 375.25 251.78 C 359.64 253.12 343.95 255.07 328.95 259.78 C 315.02 264.11 301.15 271.69 293.51 284.59 C 289.09 292.28 285.86 301.08 286.24 310.06 C 286.51 316.16 289.92 321.71 294.45 325.64 C 301.60 332.00 310.52 335.87 319.22 339.60 C 333.51 345.65 347.79 351.73 362.07 357.81 C 368.24 360.59 374.79 362.72 380.42 366.56 C 384.19 369.00 386.62 373.47 386.25 377.99 C 385.46 383.61 380.40 387.35 375.44 389.27 C 368.06 392.02 359.76 392.77 352.17 390.47 C 348.71 389.42 345.62 386.61 345.01 382.95 C 344.21 377.86 345.94 372.85 346.62 367.85 C 319.47 367.85 292.32 367.86 265.17 367.84 C 262.10 376.08 259.51 385.06 261.44 393.88 C 262.48 399.10 265.77 403.45 269.33 407.25 C 253.72 407.28 238.12 407.29 222.51 407.25 C 233.05 400.95 241.71 391.18 245.20 379.27 C 247.86 371.26 247.52 362.11 243.15 354.76 C 237.52 345.15 227.70 338.97 217.84 334.38 C 196.35 324.75 174.85 315.16 153.34 305.59 C 149.69 304.01 146.17 301.30 145.13 297.28 C 143.82 293.45 146.36 289.45 149.57 287.48 C 156.44 283.13 165.11 282.82 172.89 284.39 C 176.57 285.16 181.00 286.65 182.15 290.70 C 183.73 295.89 181.03 301.13 180.27 306.25 C 206.63 306.21 232.99 306.21 259.35 306.25 C 261.14 297.89 265.24 289.21 262.22 280.65 C 259.53 271.64 251.49 265.52 243.26 261.78 C 228.72 255.32 212.72 253.35 197.02 251.95 C 169.36 250.08 141.31 250.95 114.17 257.02 C 99.59 260.49 84.61 265.96 74.18 277.20 C 66.63 285.64 61.95 296.71 61.30 308.02 C 60.93 316.64 66.54 324.11 73.41 328.71 C 79.86 333.31 87.14 336.54 94.40 339.60 C 111.74 346.96 129.07 354.33 146.38 361.73 C 150.77 363.71 155.43 365.66 158.64 369.39 C 162.09 373.35 162.45 379.80 158.78 383.75 C 153.13 389.99 144.16 391.67 136.11 391.86 C 130.79 391.50 124.23 390.95 121.23 385.84 C 118.29 380.16 121.02 373.70 121.82 367.84 C 94.73 367.82 67.63 367.93 40.53 367.78 C 36.98 376.51 34.08 386.45 37.10 395.76 C 38.41 400.24 41.38 403.95 44.58 407.26 C 29.72 407.29 14.86 407.26 0.00 407.27 L 0.00 227.33 Z" />
<path fill="#c21521" opacity="1.00" d=" M 611.07 284.85 C 620.62 283.23 630.35 283.68 640.00 283.62 L 640.00 407.27 C 618.51 407.26 597.02 407.30 575.53 407.25 C 581.40 383.60 587.17 359.92 593.02 336.25 C 603.10 336.26 613.18 336.25 623.27 336.26 C 625.78 325.84 628.42 315.46 630.92 305.04 C 619.60 305.15 608.29 305.06 596.98 305.09 C 598.41 300.25 599.26 295.16 601.61 290.65 C 603.39 287.09 607.36 285.50 611.07 284.85 Z" />
</g>
</svg>
