<?xml version="1.0" encoding="UTF-8" standalone="yes"?>
<svg xmlns="http://www.w3.org/2000/svg" xmlns:xlink="http://www.w3.org/1999/xlink" width="106.66666666666666px" height="106.66666666666666px" viewBox="0 0 80 80" version="1.1">
  <g id="surface1">
    <path style=" stroke:none;fill-rule:nonzero;fill:rgb(100%,100%,100%);fill-opacity:1;" d="M 5.890625 20.671875 C 6.527344 20.199219 7.359375 20.144531 8.125 20.167969 C 8.800781 20.171875 9.535156 20.246094 10.097656 20.660156 C 10.429688 20.898438 10.5625 21.296875 10.679688 21.671875 C 10.070312 21.652344 9.464844 21.734375 8.859375 21.773438 C 8.644531 21.296875 8.082031 21.226562 7.621094 21.316406 C 7.394531 21.335938 7.074219 21.464844 7.136719 21.746094 C 7.277344 22.078125 7.703125 22.097656 8.003906 22.183594 C 8.785156 22.394531 9.683594 22.375 10.332031 22.917969 C 10.90625 23.4375 10.796875 24.394531 10.292969 24.921875 C 9.828125 25.40625 9.140625 25.566406 8.492188 25.621094 C 7.640625 25.722656 6.734375 25.683594 5.949219 25.304688 C 5.429688 25.054688 5.121094 24.515625 5.050781 23.957031 C 5.652344 23.929688 6.253906 23.929688 6.859375 23.925781 C 7.171875 24.554688 8.050781 24.65625 8.632812 24.378906 C 8.921875 24.246094 9.015625 23.828125 8.6875 23.675781 C 7.777344 23.265625 6.644531 23.433594 5.808594 22.816406 C 5.121094 22.304688 5.210938 21.15625 5.890625 20.671875 Z M 5.890625 20.671875 "/>
    <path style=" stroke:none;fill-rule:nonzero;fill:rgb(100%,100%,100%);fill-opacity:1;" d="M 20.828125 20.222656 C 21.960938 20.09375 23.21875 20.125 24.195312 20.792969 C 25.464844 21.722656 25.515625 23.832031 24.34375 24.863281 C 23.476562 25.625 22.238281 25.75 21.136719 25.644531 C 20.214844 25.5625 19.234375 25.21875 18.726562 24.394531 C 18.128906 23.398438 18.160156 21.972656 18.996094 21.117188 C 19.472656 20.605469 20.148438 20.332031 20.828125 20.222656 M 21.058594 21.460938 C 20.160156 21.882812 20.015625 23.171875 20.546875 23.9375 C 21.140625 24.800781 22.714844 24.71875 23.132812 23.722656 C 23.421875 23.011719 23.335938 22.046875 22.679688 21.5625 C 22.210938 21.242188 21.5625 21.234375 21.058594 21.460938 Z M 21.058594 21.460938 "/>
    <path style=" stroke:none;fill-rule:nonzero;fill:rgb(100%,100%,100%);fill-opacity:1;" d="M 42.023438 21.03125 C 42.421875 20.433594 43.1875 20.230469 43.867188 20.175781 C 44.730469 20.152344 45.660156 20.113281 46.433594 20.566406 C 46.839844 20.792969 47.042969 21.234375 47.132812 21.671875 C 46.535156 21.636719 45.949219 21.761719 45.355469 21.761719 C 44.984375 21.164062 44.171875 21.191406 43.613281 21.496094 C 43.648438 21.660156 43.59375 21.882812 43.789062 21.960938 C 44.65625 22.363281 45.683594 22.269531 46.53125 22.726562 C 46.988281 22.960938 47.261719 23.492188 47.167969 24.003906 C 47.109375 24.792969 46.375 25.339844 45.648438 25.503906 C 44.621094 25.714844 43.5 25.78125 42.511719 25.363281 C 41.9375 25.132812 41.582031 24.558594 41.53125 23.957031 C 42.132812 23.933594 42.734375 23.929688 43.332031 23.925781 C 43.582031 24.449219 44.21875 24.582031 44.746094 24.503906 C 45.007812 24.449219 45.339844 24.316406 45.363281 24.003906 C 45.394531 23.804688 45.183594 23.675781 45.027344 23.609375 C 44.160156 23.3125 43.167969 23.382812 42.371094 22.882812 C 41.753906 22.503906 41.628906 21.613281 42.023438 21.03125 Z M 42.023438 21.03125 "/>
    <path style=" stroke:none;fill-rule:nonzero;fill:rgb(100%,100%,100%);fill-opacity:1;" d="M 11.949219 20.34375 C 13.175781 20.339844 14.398438 20.351562 15.625 20.351562 C 16.164062 20.394531 16.792969 20.367188 17.191406 20.796875 C 17.648438 21.234375 17.628906 21.910156 17.554688 22.484375 C 17.386719 23.179688 16.691406 23.589844 16.015625 23.652344 C 15.277344 23.703125 14.539062 23.660156 13.800781 23.671875 C 13.804688 24.289062 13.804688 24.902344 13.800781 25.515625 C 13.175781 25.511719 12.554688 25.519531 11.929688 25.507812 C 11.933594 23.785156 11.917969 22.066406 11.949219 20.34375 M 13.800781 21.515625 C 13.804688 21.847656 13.804688 22.183594 13.800781 22.519531 C 14.34375 22.488281 14.90625 22.585938 15.4375 22.460938 C 15.894531 22.355469 15.832031 21.597656 15.363281 21.550781 C 14.851562 21.464844 14.320312 21.535156 13.800781 21.515625 Z M 13.800781 21.515625 "/>
    <path style=" stroke:none;fill-rule:nonzero;fill:rgb(100%,100%,100%);fill-opacity:1;" d="M 26.222656 20.351562 C 27.484375 20.351562 28.742188 20.34375 30.003906 20.351562 C 30.492188 20.390625 31.023438 20.390625 31.445312 20.679688 C 32.089844 21.101562 32.214844 22.027344 31.917969 22.695312 C 31.738281 23.117188 31.296875 23.328125 30.886719 23.480469 C 31.328125 24.148438 31.746094 24.832031 32.167969 25.515625 C 31.488281 25.515625 30.808594 25.515625 30.132812 25.515625 C 29.761719 24.882812 29.421875 24.230469 29.039062 23.605469 C 28.726562 23.605469 28.414062 23.605469 28.101562 23.605469 C 28.097656 24.242188 28.105469 24.878906 28.097656 25.515625 C 27.46875 25.515625 26.839844 25.515625 26.214844 25.515625 C 26.234375 23.792969 26.21875 22.070312 26.222656 20.351562 M 28.101562 21.515625 C 28.101562 21.824219 28.101562 22.136719 28.101562 22.445312 C 28.683594 22.429688 29.273438 22.480469 29.855469 22.414062 C 30.332031 22.335938 30.292969 21.664062 29.871094 21.539062 C 29.285156 21.476562 28.691406 21.53125 28.101562 21.515625 Z M 28.101562 21.515625 "/>
    <path style=" stroke:none;fill-rule:nonzero;fill:rgb(100%,100%,100%);fill-opacity:1;" d="M 32.695312 20.34375 C 34.554688 20.34375 36.417969 20.339844 38.277344 20.347656 C 38.261719 20.734375 38.222656 21.125 38.214844 21.515625 C 37.621094 21.515625 37.027344 21.511719 36.429688 21.515625 C 36.4375 22.832031 36.425781 24.152344 36.4375 25.46875 C 35.804688 25.484375 35.171875 25.472656 34.539062 25.476562 C 34.539062 24.15625 34.539062 22.835938 34.539062 21.515625 C 33.925781 21.515625 33.3125 21.515625 32.699219 21.515625 C 32.699219 21.125 32.699219 20.734375 32.695312 20.34375 Z M 32.695312 20.34375 "/>
    <path style=" stroke:none;fill-rule:nonzero;fill:rgb(100%,100%,100%);fill-opacity:1;" d="M 48.304688 21.511719 C 48.304688 21.113281 48.304688 20.71875 48.300781 20.320312 C 50.171875 20.324219 52.039062 20.324219 53.90625 20.324219 C 53.902344 20.691406 53.902344 21.0625 53.90625 21.433594 C 52.808594 22.375 51.726562 23.332031 50.621094 24.265625 C 51.703125 24.265625 52.785156 24.261719 53.867188 24.269531 C 53.847656 24.671875 53.824219 25.074219 53.820312 25.480469 C 51.867188 25.476562 49.921875 25.472656 47.96875 25.480469 C 48.023438 25.066406 47.832031 24.511719 48.230469 24.226562 C 49.277344 23.328125 50.3125 22.417969 51.363281 21.519531 C 50.34375 21.503906 49.324219 21.515625 48.304688 21.511719 Z M 48.304688 21.511719 "/>
    <path style=" stroke:none;fill-rule:nonzero;fill:rgb(100%,100%,100%);fill-opacity:1;" d="M 55.074219 25.476562 C 55.074219 23.765625 55.085938 22.050781 55.101562 20.335938 C 56.933594 20.332031 58.765625 20.332031 60.597656 20.332031 C 60.59375 20.726562 60.59375 21.121094 60.59375 21.511719 C 59.390625 21.515625 58.191406 21.511719 56.988281 21.515625 C 56.988281 21.777344 56.988281 22.042969 56.988281 22.304688 C 58.09375 22.304688 59.195312 22.304688 60.296875 22.304688 C 60.296875 22.707031 60.296875 23.109375 60.292969 23.511719 C 59.191406 23.515625 58.089844 23.503906 56.988281 23.515625 C 56.988281 23.773438 56.984375 24.03125 56.988281 24.292969 C 58.191406 24.292969 59.390625 24.292969 60.59375 24.292969 C 60.589844 24.6875 60.585938 25.078125 60.578125 25.476562 C 58.746094 25.480469 56.910156 25.472656 55.074219 25.476562 Z M 55.074219 25.476562 "/>
    <path style=" stroke:none;fill-rule:nonzero;fill:rgb(100%,100%,100%);fill-opacity:1;" d="M 61.742188 20.34375 C 62.253906 20.34375 62.765625 20.34375 63.277344 20.34375 C 64.113281 21.273438 64.914062 22.234375 65.765625 23.152344 C 65.765625 22.21875 65.769531 21.28125 65.761719 20.34375 C 66.359375 20.34375 66.953125 20.34375 67.546875 20.34375 C 67.488281 22.035156 67.535156 23.726562 67.507812 25.417969 C 67.488281 25.441406 67.445312 25.484375 67.421875 25.507812 C 66.941406 25.53125 66.457031 25.5 65.976562 25.519531 C 65.152344 24.585938 64.347656 23.632812 63.539062 22.683594 C 63.511719 23.628906 63.539062 24.574219 63.488281 25.515625 C 62.886719 25.511719 62.28125 25.515625 61.679688 25.515625 C 61.699219 23.792969 61.738281 22.070312 61.742188 20.34375 Z M 61.742188 20.34375 "/>
    <path style=" stroke:none;fill-rule:nonzero;fill:rgb(100%,100%,100%);fill-opacity:1;" d="M 68.855469 20.332031 C 70.664062 20.332031 72.476562 20.332031 74.289062 20.332031 C 74.289062 20.726562 74.289062 21.121094 74.289062 21.515625 C 73.097656 21.515625 71.90625 21.507812 70.714844 21.515625 C 70.699219 21.78125 70.6875 22.042969 70.6875 22.304688 C 71.777344 22.304688 72.867188 22.308594 73.957031 22.304688 C 73.953125 22.703125 73.953125 23.101562 73.953125 23.5 C 72.867188 23.546875 71.777344 23.460938 70.691406 23.515625 C 70.691406 23.773438 70.691406 24.035156 70.691406 24.292969 C 71.890625 24.289062 73.089844 24.296875 74.289062 24.289062 C 74.289062 24.683594 74.289062 25.082031 74.289062 25.480469 C 72.453125 25.46875 70.613281 25.480469 68.777344 25.472656 C 68.796875 23.761719 68.839844 22.046875 68.855469 20.332031 Z M 68.855469 20.332031 "/>
    <path style=" stroke:none;fill-rule:nonzero;fill:rgb(100%,100%,100%);fill-opacity:1;" d="M 14.269531 32.128906 C 17.664062 31.367188 21.171875 31.261719 24.628906 31.492188 C 26.589844 31.667969 28.589844 31.914062 30.40625 32.722656 C 31.4375 33.191406 32.441406 33.953125 32.777344 35.082031 C 33.15625 36.152344 32.640625 37.234375 32.417969 38.28125 C 29.125 38.277344 25.828125 38.277344 22.535156 38.28125 C 22.628906 37.640625 22.964844 36.984375 22.769531 36.335938 C 22.625 35.832031 22.070312 35.644531 21.609375 35.546875 C 20.640625 35.351562 19.554688 35.390625 18.695312 35.933594 C 18.296875 36.179688 17.976562 36.679688 18.140625 37.160156 C 18.269531 37.664062 18.710938 38 19.167969 38.199219 C 21.855469 39.394531 24.542969 40.59375 27.230469 41.796875 C 28.460938 42.371094 29.691406 43.144531 30.394531 44.34375 C 30.941406 45.265625 30.984375 46.40625 30.648438 47.410156 C 30.214844 48.898438 29.132812 50.117188 27.8125 50.90625 C 20.398438 50.90625 12.984375 50.90625 5.574219 50.90625 C 5.171875 50.492188 4.800781 50.03125 4.636719 49.46875 C 4.261719 48.304688 4.621094 47.0625 5.066406 45.972656 C 8.453125 45.992188 11.839844 45.976562 15.226562 45.980469 C 15.128906 46.710938 14.785156 47.519531 15.152344 48.230469 C 15.527344 48.867188 16.347656 48.9375 17.015625 48.984375 C 18.019531 48.957031 19.140625 48.75 19.847656 47.96875 C 20.304688 47.476562 20.261719 46.667969 19.828125 46.171875 C 19.429688 45.707031 18.847656 45.464844 18.296875 45.214844 C 16.132812 44.292969 13.96875 43.371094 11.800781 42.449219 C 10.890625 42.066406 9.984375 41.664062 9.175781 41.089844 C 8.316406 40.515625 7.617188 39.578125 7.664062 38.503906 C 7.742188 37.089844 8.328125 35.703125 9.273438 34.648438 C 10.578125 33.246094 12.449219 32.5625 14.269531 32.128906 Z M 14.269531 32.128906 "/>
    <path style=" stroke:none;fill-rule:nonzero;fill:rgb(100%,100%,100%);fill-opacity:1;" d="M 41.117188 32.472656 C 42.992188 31.882812 44.953125 31.640625 46.90625 31.472656 C 49.898438 31.300781 52.929688 31.347656 55.882812 31.914062 C 57.222656 32.191406 58.585938 32.585938 59.691406 33.421875 C 60.589844 34.089844 61.171875 35.234375 60.984375 36.359375 C 60.867188 37.007812 60.675781 37.636719 60.542969 38.277344 C 57.238281 38.277344 53.933594 38.277344 50.632812 38.277344 C 50.765625 37.65625 51.023438 37.019531 50.886719 36.378906 C 50.765625 35.894531 50.265625 35.667969 49.824219 35.570312 C 48.875 35.359375 47.824219 35.371094 46.949219 35.84375 C 46.539062 36.074219 46.144531 36.492188 46.21875 37.003906 C 46.289062 37.589844 46.792969 38 47.304688 38.214844 C 49.585938 39.226562 51.863281 40.246094 54.140625 41.261719 C 55.496094 41.855469 56.914062 42.457031 57.933594 43.570312 C 58.660156 44.355469 59.089844 45.4375 58.945312 46.515625 C 58.726562 48.363281 57.503906 49.972656 55.921875 50.90625 C 48.503906 50.90625 41.085938 50.90625 33.667969 50.90625 C 33.222656 50.429688 32.808594 49.886719 32.679688 49.234375 C 32.4375 48.132812 32.761719 47.011719 33.144531 45.980469 C 36.539062 45.984375 39.933594 45.980469 43.328125 45.980469 C 43.242188 46.605469 43.027344 47.234375 43.125 47.867188 C 43.203125 48.328125 43.589844 48.675781 44.019531 48.808594 C 44.96875 49.097656 46.007812 49.003906 46.929688 48.660156 C 47.550781 48.417969 48.183594 47.953125 48.28125 47.25 C 48.328125 46.683594 48.023438 46.125 47.550781 45.820312 C 46.847656 45.339844 46.03125 45.074219 45.257812 44.726562 C 43.472656 43.964844 41.6875 43.207031 39.902344 42.449219 C 38.816406 41.984375 37.699219 41.5 36.804688 40.703125 C 36.238281 40.214844 35.8125 39.519531 35.78125 38.757812 C 35.734375 37.636719 36.136719 36.535156 36.6875 35.574219 C 37.644531 33.960938 39.378906 33.015625 41.117188 32.472656 Z M 41.117188 32.472656 "/>
    <path style=" stroke:none;fill-rule:nonzero;fill:rgb(100%,100%,100%);fill-opacity:1;" d="M 70.472656 31.859375 C 71.878906 31.574219 73.320312 31.515625 74.753906 31.535156 C 76.503906 31.523438 78.253906 31.546875 80 31.644531 L 80 35.453125 C 78.792969 35.460938 77.578125 35.402344 76.382812 35.605469 C 75.921875 35.6875 75.421875 35.886719 75.203125 36.332031 C 74.90625 36.894531 74.800781 37.53125 74.621094 38.136719 C 76.035156 38.132812 77.449219 38.144531 78.863281 38.128906 C 78.550781 39.433594 78.222656 40.730469 77.910156 42.03125 C 76.648438 42.03125 75.386719 42.03125 74.128906 42.03125 C 73.394531 44.988281 72.675781 47.949219 71.941406 50.90625 C 68.765625 50.90625 65.59375 50.902344 62.417969 50.90625 C 63.183594 47.964844 63.867188 45 64.621094 42.050781 C 63.433594 42.042969 62.25 42.054688 61.0625 42.046875 C 61.386719 40.742188 61.707031 39.441406 62.023438 38.136719 C 63.21875 38.128906 64.417969 38.15625 65.617188 38.121094 C 65.992188 36.578125 66.269531 34.925781 67.273438 33.640625 C 68.042969 32.636719 69.261719 32.105469 70.472656 31.859375 Z M 70.472656 31.859375 "/>
    <path style=" stroke:none;fill-rule:nonzero;fill:rgb(100%,100%,100%);fill-opacity:1;" d="M 6.539062 53.359375 C 7.316406 53.105469 8.152344 53.261719 8.957031 53.21875 C 8.957031 53.613281 8.957031 54.011719 8.960938 54.40625 C 8.722656 54.433594 8.449219 54.355469 8.226562 54.472656 C 8.003906 54.582031 8.046875 54.851562 7.996094 55.054688 C 8.316406 55.054688 8.640625 55.054688 8.960938 55.058594 C 8.960938 55.484375 8.949219 55.910156 8.941406 56.335938 C 8.660156 56.332031 8.378906 56.335938 8.097656 56.335938 C 8.097656 57.476562 8.089844 58.617188 8.089844 59.761719 C 7.359375 59.761719 6.628906 59.761719 5.898438 59.761719 C 5.890625 58.617188 5.894531 57.472656 5.894531 56.328125 C 5.65625 56.328125 5.421875 56.328125 5.183594 56.328125 C 5.1875 55.898438 5.1875 55.46875 5.183594 55.039062 C 5.421875 55.039062 5.660156 55.039062 5.898438 55.039062 C 5.941406 54.453125 5.867188 53.621094 6.539062 53.359375 Z M 6.539062 53.359375 "/>
    <path style=" stroke:none;fill-rule:nonzero;fill:rgb(100%,100%,100%);fill-opacity:1;" d="M 47.726562 53.167969 C 48.453125 53.171875 49.179688 53.171875 49.910156 53.167969 C 49.910156 53.914062 49.910156 54.664062 49.910156 55.410156 C 50.707031 54.714844 51.828125 54.480469 52.84375 54.773438 C 53.605469 54.921875 54.277344 55.566406 54.320312 56.363281 C 54.332031 57.496094 54.320312 58.625 54.324219 59.757812 C 53.601562 59.765625 52.878906 59.757812 52.152344 59.761719 C 52.144531 58.921875 52.15625 58.078125 52.152344 57.234375 C 52.160156 56.789062 51.917969 56.296875 51.453125 56.1875 C 51.085938 56.132812 50.65625 56.089844 50.347656 56.34375 C 50.03125 56.582031 49.894531 56.988281 49.898438 57.375 C 49.890625 58.171875 49.898438 58.964844 49.898438 59.761719 C 49.171875 59.761719 48.449219 59.761719 47.726562 59.761719 C 47.726562 57.5625 47.726562 55.363281 47.726562 53.167969 Z M 47.726562 53.167969 "/>
    <path style=" stroke:none;fill-rule:nonzero;fill:rgb(100%,100%,100%);fill-opacity:1;" d="M 32.304688 55.175781 C 33.066406 54.710938 34.003906 54.648438 34.875 54.660156 C 35.6875 54.640625 36.554688 54.769531 37.230469 55.253906 C 37.597656 55.515625 37.796875 55.925781 37.964844 56.328125 C 37.226562 56.316406 36.488281 56.410156 35.753906 56.417969 C 35.503906 55.910156 34.878906 55.777344 34.371094 55.878906 C 34.148438 55.921875 33.847656 56.046875 33.910156 56.328125 C 34.066406 56.542969 34.371094 56.574219 34.613281 56.636719 C 35.289062 56.726562 35.964844 56.800781 36.636719 56.902344 C 37.078125 56.96875 37.550781 57.152344 37.789062 57.554688 C 38.101562 58.128906 37.835938 58.867188 37.335938 59.242188 C 36.675781 59.757812 35.800781 59.875 34.988281 59.917969 C 34.070312 59.921875 33.109375 59.851562 32.269531 59.453125 C 31.796875 59.242188 31.535156 58.773438 31.4375 58.285156 C 32.171875 58.183594 32.910156 58.171875 33.648438 58.167969 C 33.875 58.480469 34.203125 58.726562 34.609375 58.699219 C 34.984375 58.71875 35.628906 58.765625 35.675781 58.25 C 35.414062 57.886719 34.890625 57.945312 34.5 57.84375 C 33.683594 57.671875 32.765625 57.699219 32.085938 57.152344 C 31.464844 56.636719 31.628906 55.570312 32.304688 55.175781 Z M 32.304688 55.175781 "/>
    <path style=" stroke:none;fill-rule:nonzero;fill:rgb(100%,100%,100%);fill-opacity:1;" d="M 10.511719 55.761719 C 11.101562 55 12.09375 54.757812 13.011719 54.714844 C 14.207031 54.644531 15.59375 54.746094 16.472656 55.660156 C 16.984375 56.167969 17.09375 56.90625 17.167969 57.589844 C 15.535156 57.589844 13.898438 57.582031 12.261719 57.59375 C 12.367188 58.082031 12.761719 58.464844 13.242188 58.59375 C 13.769531 58.773438 14.359375 58.554688 14.738281 58.167969 C 15.496094 58.257812 16.261719 58.265625 17.019531 58.351562 C 16.511719 59.3125 15.410156 59.726562 14.386719 59.832031 C 13.1875 60 11.851562 59.890625 10.859375 59.144531 C 9.832031 58.367188 9.695312 56.734375 10.511719 55.761719 M 12.308594 56.726562 C 13.15625 56.753906 14.003906 56.734375 14.855469 56.738281 C 14.445312 55.667969 12.757812 55.703125 12.308594 56.726562 Z M 12.308594 56.726562 "/>
    <path style=" stroke:none;fill-rule:nonzero;fill:rgb(100%,100%,100%);fill-opacity:1;" d="M 20.515625 55.578125 C 20.914062 55.042969 21.558594 54.71875 22.230469 54.742188 C 22.207031 55.386719 22.207031 56.03125 22.21875 56.675781 C 21.789062 56.679688 21.316406 56.570312 20.917969 56.796875 C 20.667969 56.921875 20.5 57.203125 20.511719 57.488281 C 20.503906 58.238281 20.515625 58.988281 20.511719 59.738281 C 19.78125 59.746094 19.046875 59.71875 18.320312 59.757812 C 18.300781 58.117188 18.335938 56.476562 18.328125 54.832031 C 19.054688 54.832031 19.78125 54.832031 20.507812 54.835938 C 20.511719 55.082031 20.511719 55.328125 20.515625 55.578125 Z M 20.515625 55.578125 "/>
    <path style=" stroke:none;fill-rule:nonzero;fill:rgb(100%,100%,100%);fill-opacity:1;" d="M 25.761719 55.449219 C 26.59375 54.863281 27.644531 54.585938 28.652344 54.8125 C 29.347656 54.914062 30.027344 55.398438 30.164062 56.117188 C 30.328125 57.332031 30.246094 58.558594 30.265625 59.78125 C 29.515625 59.78125 28.765625 59.78125 28.015625 59.78125 C 27.984375 58.851562 28.085938 57.90625 27.96875 56.980469 C 27.832031 56.15625 26.640625 55.886719 26.105469 56.484375 C 25.835938 56.796875 25.765625 57.234375 25.765625 57.636719 C 25.765625 58.351562 25.765625 59.066406 25.765625 59.78125 C 25.023438 59.78125 24.289062 59.78125 23.546875 59.78125 C 23.554688 58.132812 23.535156 56.484375 23.558594 54.832031 C 24.296875 54.832031 25.035156 54.832031 25.769531 54.832031 C 25.765625 55.039062 25.765625 55.242188 25.761719 55.449219 Z M 25.761719 55.449219 "/>
    <path style=" stroke:none;fill-rule:nonzero;fill:rgb(100%,100%,100%);fill-opacity:1;" d="M 39.441406 56.066406 C 39.875 55.289062 40.746094 54.855469 41.609375 54.769531 C 42.835938 54.621094 44.203125 54.632812 45.265625 55.351562 C 45.996094 55.847656 46.257812 56.746094 46.308594 57.585938 C 44.671875 57.59375 43.035156 57.578125 41.394531 57.59375 C 41.617188 58.691406 43.171875 59.003906 43.875 58.171875 C 44.632812 58.257812 45.398438 58.265625 46.15625 58.351562 C 45.570312 59.441406 44.277344 59.800781 43.128906 59.878906 C 42.023438 59.964844 40.804688 59.8125 39.925781 59.085938 C 39.050781 58.375 38.886719 57.015625 39.441406 56.066406 M 41.445312 56.71875 C 42.292969 56.769531 43.140625 56.714844 43.988281 56.753906 C 43.601562 55.660156 41.90625 55.703125 41.445312 56.71875 Z M 41.445312 56.71875 "/>
    <path style=" stroke:none;fill-rule:nonzero;fill:rgb(100%,100%,100%);fill-opacity:1;" d="M 56.714844 55.367188 C 57.460938 54.777344 58.457031 54.71875 59.371094 54.691406 C 60.386719 54.710938 61.507812 54.867188 62.253906 55.625 C 62.753906 56.140625 62.949219 56.878906 62.941406 57.582031 C 61.308594 57.601562 59.671875 57.574219 58.039062 57.59375 C 58.246094 58.300781 59.015625 58.796875 59.742188 58.617188 C 60.078125 58.578125 60.316406 58.316406 60.609375 58.179688 C 61.347656 58.25 62.09375 58.277344 62.832031 58.355469 C 62.292969 59.324219 61.175781 59.742188 60.125 59.84375 C 58.910156 60 57.535156 59.875 56.566406 59.058594 C 55.460938 58.132812 55.5625 56.210938 56.714844 55.367188 M 58.136719 56.75 C 58.976562 56.722656 59.820312 56.765625 60.660156 56.722656 C 60.238281 55.679688 58.523438 55.683594 58.136719 56.75 Z M 58.136719 56.75 "/>
    <path style=" stroke:none;fill-rule:nonzero;fill:rgb(100%,100%,100%);fill-opacity:1;" d="M 66.535156 55.449219 C 67.363281 54.871094 68.40625 54.585938 69.40625 54.8125 C 70.109375 54.910156 70.820312 55.40625 70.933594 56.140625 C 71.109375 57.347656 70.988281 58.570312 71.023438 59.78125 C 70.273438 59.78125 69.523438 59.78125 68.773438 59.78125 C 68.769531 58.886719 68.792969 57.988281 68.765625 57.09375 C 68.710938 56.300781 67.695312 55.914062 67.066406 56.328125 C 66.644531 56.605469 66.546875 57.152344 66.539062 57.621094 C 66.542969 58.34375 66.527344 59.0625 66.527344 59.78125 C 65.792969 59.78125 65.058594 59.78125 64.328125 59.78125 C 64.328125 58.132812 64.324219 56.484375 64.335938 54.832031 C 65.070312 54.832031 65.804688 54.832031 66.539062 54.832031 C 66.539062 55.039062 66.535156 55.242188 66.535156 55.449219 Z M 66.535156 55.449219 "/>
    <path style=" stroke:none;fill-rule:nonzero;fill:rgb(100%,100%,100%);fill-opacity:1;" d="M 72.773438 58.027344 C 73.476562 58.03125 74.183594 58.027344 74.890625 58.03125 C 74.886719 58.605469 74.910156 59.183594 74.859375 59.757812 C 74.164062 59.722656 73.46875 59.742188 72.773438 59.738281 C 72.773438 59.167969 72.773438 58.597656 72.773438 58.027344 Z M 72.773438 58.027344 "/>
    <path style=" stroke:none;fill-rule:nonzero;fill:rgb(0%,0%,0%);fill-opacity:1;" d="M 0 17.144531 C 26.667969 17.144531 53.332031 17.144531 80 17.144531 L 80 28.417969 C 53.332031 28.417969 26.667969 28.417969 0 28.417969 L 0 17.144531 M 5.890625 20.671875 C 5.210938 21.15625 5.121094 22.304688 5.808594 22.816406 C 6.644531 23.433594 7.777344 23.265625 8.6875 23.675781 C 9.015625 23.828125 8.921875 24.246094 8.632812 24.378906 C 8.050781 24.65625 7.171875 24.554688 6.859375 23.925781 C 6.253906 23.929688 5.652344 23.929688 5.050781 23.957031 C 5.121094 24.515625 5.429688 25.054688 5.949219 25.304688 C 6.734375 25.683594 7.640625 25.722656 8.492188 25.621094 C 9.140625 25.566406 9.828125 25.40625 10.292969 24.921875 C 10.796875 24.394531 10.90625 23.4375 10.332031 22.917969 C 9.683594 22.375 8.785156 22.394531 8.003906 22.183594 C 7.703125 22.097656 7.277344 22.078125 7.136719 21.746094 C 7.074219 21.464844 7.394531 21.335938 7.621094 21.316406 C 8.082031 21.226562 8.644531 21.296875 8.859375 21.773438 C 9.464844 21.734375 10.070312 21.652344 10.679688 21.671875 C 10.5625 21.296875 10.429688 20.898438 10.097656 20.660156 C 9.535156 20.246094 8.800781 20.171875 8.125 20.167969 C 7.359375 20.144531 6.527344 20.199219 5.890625 20.671875 M 20.828125 20.222656 C 20.148438 20.332031 19.472656 20.605469 18.996094 21.117188 C 18.160156 21.972656 18.128906 23.398438 18.726562 24.394531 C 19.234375 25.21875 20.214844 25.5625 21.136719 25.644531 C 22.238281 25.75 23.476562 25.625 24.34375 24.863281 C 25.515625 23.832031 25.464844 21.722656 24.195312 20.792969 C 23.21875 20.125 21.960938 20.09375 20.828125 20.222656 M 42.023438 21.03125 C 41.628906 21.613281 41.753906 22.503906 42.371094 22.882812 C 43.167969 23.382812 44.160156 23.3125 45.027344 23.609375 C 45.183594 23.675781 45.394531 23.804688 45.363281 24.003906 C 45.339844 24.316406 45.007812 24.449219 44.746094 24.503906 C 44.21875 24.582031 43.582031 24.449219 43.332031 23.925781 C 42.734375 23.929688 42.132812 23.933594 41.53125 23.957031 C 41.582031 24.558594 41.9375 25.132812 42.511719 25.363281 C 43.5 25.78125 44.621094 25.714844 45.648438 25.503906 C 46.375 25.339844 47.109375 24.792969 47.167969 24.003906 C 47.261719 23.492188 46.988281 22.960938 46.53125 22.726562 C 45.683594 22.269531 44.65625 22.363281 43.789062 21.960938 C 43.59375 21.882812 43.648438 21.660156 43.613281 21.496094 C 44.171875 21.191406 44.984375 21.164062 45.355469 21.761719 C 45.949219 21.761719 46.535156 21.636719 47.132812 21.671875 C 47.042969 21.234375 46.839844 20.792969 46.433594 20.566406 C 45.660156 20.113281 44.730469 20.152344 43.867188 20.175781 C 43.1875 20.230469 42.421875 20.433594 42.023438 21.03125 M 11.949219 20.34375 C 11.917969 22.066406 11.933594 23.785156 11.929688 25.507812 C 12.554688 25.519531 13.175781 25.511719 13.800781 25.515625 C 13.804688 24.902344 13.804688 24.289062 13.800781 23.671875 C 14.539062 23.660156 15.277344 23.703125 16.015625 23.652344 C 16.691406 23.589844 17.386719 23.179688 17.554688 22.484375 C 17.628906 21.910156 17.648438 21.234375 17.191406 20.796875 C 16.792969 20.367188 16.164062 20.394531 15.625 20.351562 C 14.398438 20.351562 13.175781 20.339844 11.949219 20.34375 M 26.222656 20.351562 C 26.21875 22.070312 26.234375 23.792969 26.214844 25.515625 C 26.839844 25.515625 27.46875 25.515625 28.097656 25.515625 C 28.105469 24.878906 28.097656 24.242188 28.101562 23.605469 C 28.414062 23.605469 28.726562 23.605469 29.039062 23.605469 C 29.421875 24.230469 29.761719 24.882812 30.132812 25.515625 C 30.808594 25.515625 31.488281 25.515625 32.167969 25.515625 C 31.746094 24.832031 31.328125 24.148438 30.886719 23.480469 C 31.296875 23.328125 31.738281 23.117188 31.917969 22.695312 C 32.214844 22.027344 32.089844 21.101562 31.445312 20.679688 C 31.023438 20.390625 30.492188 20.390625 30.003906 20.351562 C 28.742188 20.34375 27.484375 20.351562 26.222656 20.351562 M 32.695312 20.34375 C 32.699219 20.734375 32.699219 21.125 32.699219 21.515625 C 33.3125 21.515625 33.925781 21.515625 34.539062 21.515625 C 34.539062 22.835938 34.539062 24.15625 34.539062 25.476562 C 35.171875 25.472656 35.804688 25.484375 36.4375 25.46875 C 36.425781 24.152344 36.4375 22.832031 36.429688 21.515625 C 37.027344 21.511719 37.621094 21.515625 38.214844 21.515625 C 38.222656 21.125 38.261719 20.734375 38.277344 20.347656 C 36.417969 20.339844 34.554688 20.34375 32.695312 20.34375 M 48.304688 21.511719 C 49.324219 21.515625 50.34375 21.503906 51.363281 21.519531 C 50.3125 22.417969 49.277344 23.328125 48.230469 24.226562 C 47.832031 24.511719 48.023438 25.066406 47.96875 25.480469 C 49.921875 25.472656 51.867188 25.476562 53.820312 25.480469 C 53.824219 25.074219 53.847656 24.671875 53.867188 24.269531 C 52.785156 24.261719 51.703125 24.265625 50.621094 24.265625 C 51.726562 23.332031 52.808594 22.375 53.90625 21.433594 C 53.902344 21.0625 53.902344 20.691406 53.90625 20.324219 C 52.039062 20.324219 50.171875 20.324219 48.300781 20.320312 C 48.304688 20.71875 48.304688 21.113281 48.304688 21.511719 M 55.074219 25.476562 C 56.910156 25.472656 58.746094 25.480469 60.578125 25.476562 C 60.585938 25.078125 60.589844 24.6875 60.59375 24.292969 C 59.390625 24.292969 58.191406 24.292969 56.988281 24.292969 C 56.984375 24.03125 56.988281 23.773438 56.988281 23.515625 C 58.089844 23.503906 59.191406 23.515625 60.292969 23.511719 C 60.296875 23.109375 60.296875 22.707031 60.296875 22.304688 C 59.195312 22.304688 58.09375 22.304688 56.988281 22.304688 C 56.988281 22.042969 56.988281 21.777344 56.988281 21.515625 C 58.191406 21.511719 59.390625 21.515625 60.59375 21.511719 C 60.59375 21.121094 60.59375 20.726562 60.597656 20.332031 C 58.765625 20.332031 56.933594 20.332031 55.101562 20.335938 C 55.085938 22.050781 55.074219 23.765625 55.074219 25.476562 M 61.742188 20.34375 C 61.738281 22.070312 61.699219 23.792969 61.679688 25.515625 C 62.28125 25.515625 62.886719 25.511719 63.488281 25.515625 C 63.539062 24.574219 63.511719 23.628906 63.539062 22.683594 C 64.347656 23.632812 65.152344 24.585938 65.976562 25.519531 C 66.457031 25.5 66.941406 25.53125 67.421875 25.507812 C 67.445312 25.484375 67.488281 25.441406 67.507812 25.417969 C 67.535156 23.726562 67.488281 22.035156 67.546875 20.34375 C 66.953125 20.34375 66.359375 20.34375 65.761719 20.34375 C 65.769531 21.28125 65.765625 22.21875 65.765625 23.152344 C 64.914062 22.234375 64.113281 21.273438 63.277344 20.34375 C 62.765625 20.34375 62.253906 20.34375 61.742188 20.34375 M 68.855469 20.332031 C 68.839844 22.046875 68.796875 23.761719 68.777344 25.472656 C 70.613281 25.480469 72.453125 25.46875 74.289062 25.480469 C 74.289062 25.082031 74.289062 24.683594 74.289062 24.289062 C 73.089844 24.296875 71.890625 24.289062 70.691406 24.292969 C 70.691406 24.035156 70.691406 23.773438 70.691406 23.515625 C 71.777344 23.460938 72.867188 23.546875 73.953125 23.5 C 73.953125 23.101562 73.953125 22.703125 73.957031 22.304688 C 72.867188 22.308594 71.777344 22.304688 70.6875 22.304688 C 70.6875 22.042969 70.699219 21.78125 70.714844 21.515625 C 71.90625 21.507812 73.097656 21.515625 74.289062 21.515625 C 74.289062 21.121094 74.289062 20.726562 74.289062 20.332031 C 72.476562 20.332031 70.664062 20.332031 68.855469 20.332031 Z M 68.855469 20.332031 "/>
    <path style=" stroke:none;fill-rule:nonzero;fill:rgb(0%,0%,0%);fill-opacity:1;" d="M 21.058594 21.460938 C 21.5625 21.234375 22.210938 21.242188 22.679688 21.5625 C 23.335938 22.046875 23.421875 23.011719 23.132812 23.722656 C 22.714844 24.71875 21.140625 24.800781 20.546875 23.9375 C 20.015625 23.171875 20.160156 21.882812 21.058594 21.460938 Z M 21.058594 21.460938 "/>
    <path style=" stroke:none;fill-rule:nonzero;fill:rgb(0%,0%,0%);fill-opacity:1;" d="M 28.101562 21.515625 C 28.691406 21.53125 29.285156 21.476562 29.871094 21.539062 C 30.292969 21.664062 30.332031 22.335938 29.855469 22.414062 C 29.273438 22.480469 28.683594 22.429688 28.101562 22.445312 C 28.101562 22.136719 28.101562 21.824219 28.101562 21.515625 Z M 28.101562 21.515625 "/>
    <path style=" stroke:none;fill-rule:nonzero;fill:rgb(0%,0%,0%);fill-opacity:1;" d="M 13.800781 21.515625 C 14.320312 21.535156 14.851562 21.464844 15.363281 21.550781 C 15.832031 21.597656 15.894531 22.355469 15.4375 22.460938 C 14.90625 22.585938 14.34375 22.488281 13.800781 22.519531 C 13.804688 22.183594 13.804688 21.847656 13.800781 21.515625 Z M 13.800781 21.515625 "/>
    <path style=" stroke:none;fill-rule:nonzero;fill:rgb(0%,0%,0%);fill-opacity:1;" d="M 0 50.910156 C 1.859375 50.90625 3.714844 50.910156 5.574219 50.90625 C 12.984375 50.90625 20.398438 50.90625 27.8125 50.90625 C 29.765625 50.910156 31.714844 50.910156 33.667969 50.90625 C 41.085938 50.90625 48.503906 50.90625 55.921875 50.90625 C 58.085938 50.910156 60.253906 50.910156 62.417969 50.90625 C 65.59375 50.902344 68.765625 50.90625 71.941406 50.90625 C 74.628906 50.914062 77.3125 50.90625 80 50.910156 L 80 62.125 C 53.332031 62.125 26.667969 62.125 0 62.125 L 0 50.910156 M 6.539062 53.359375 C 5.867188 53.621094 5.941406 54.453125 5.898438 55.039062 C 5.660156 55.039062 5.421875 55.039062 5.183594 55.039062 C 5.1875 55.46875 5.1875 55.898438 5.183594 56.328125 C 5.421875 56.328125 5.65625 56.328125 5.894531 56.328125 C 5.894531 57.472656 5.890625 58.617188 5.898438 59.761719 C 6.628906 59.761719 7.359375 59.761719 8.089844 59.761719 C 8.089844 58.617188 8.097656 57.476562 8.097656 56.335938 C 8.378906 56.335938 8.660156 56.332031 8.941406 56.335938 C 8.949219 55.910156 8.960938 55.484375 8.960938 55.058594 C 8.640625 55.054688 8.316406 55.054688 7.996094 55.054688 C 8.046875 54.851562 8.003906 54.582031 8.226562 54.472656 C 8.449219 54.355469 8.722656 54.433594 8.960938 54.40625 C 8.957031 54.011719 8.957031 53.613281 8.957031 53.21875 C 8.152344 53.261719 7.316406 53.105469 6.539062 53.359375 M 47.726562 53.167969 C 47.726562 55.363281 47.726562 57.5625 47.726562 59.761719 C 48.449219 59.761719 49.171875 59.761719 49.898438 59.761719 C 49.898438 58.964844 49.890625 58.171875 49.898438 57.375 C 49.894531 56.988281 50.03125 56.582031 50.347656 56.34375 C 50.65625 56.089844 51.085938 56.132812 51.453125 56.1875 C 51.917969 56.296875 52.160156 56.789062 52.152344 57.234375 C 52.15625 58.078125 52.144531 58.921875 52.152344 59.761719 C 52.878906 59.757812 53.601562 59.765625 54.324219 59.757812 C 54.320312 58.625 54.332031 57.496094 54.320312 56.363281 C 54.277344 55.566406 53.605469 54.921875 52.84375 54.773438 C 51.828125 54.480469 50.707031 54.714844 49.910156 55.410156 C 49.910156 54.664062 49.910156 53.914062 49.910156 53.167969 C 49.179688 53.171875 48.453125 53.171875 47.726562 53.167969 M 32.304688 55.175781 C 31.628906 55.570312 31.464844 56.636719 32.085938 57.152344 C 32.765625 57.699219 33.683594 57.671875 34.5 57.84375 C 34.890625 57.945312 35.414062 57.886719 35.675781 58.25 C 35.628906 58.765625 34.984375 58.71875 34.609375 58.699219 C 34.203125 58.726562 33.875 58.480469 33.648438 58.167969 C 32.910156 58.171875 32.171875 58.183594 31.4375 58.285156 C 31.535156 58.773438 31.796875 59.242188 32.269531 59.453125 C 33.109375 59.851562 34.070312 59.921875 34.988281 59.917969 C 35.800781 59.875 36.675781 59.757812 37.335938 59.242188 C 37.835938 58.867188 38.101562 58.128906 37.789062 57.554688 C 37.550781 57.152344 37.078125 56.96875 36.636719 56.902344 C 35.964844 56.800781 35.289062 56.726562 34.613281 56.636719 C 34.371094 56.574219 34.066406 56.542969 33.910156 56.328125 C 33.847656 56.046875 34.148438 55.921875 34.371094 55.878906 C 34.878906 55.777344 35.503906 55.910156 35.753906 56.417969 C 36.488281 56.410156 37.226562 56.316406 37.964844 56.328125 C 37.796875 55.925781 37.597656 55.515625 37.230469 55.253906 C 36.554688 54.769531 35.6875 54.640625 34.875 54.660156 C 34.003906 54.648438 33.066406 54.710938 32.304688 55.175781 M 10.511719 55.761719 C 9.695312 56.734375 9.832031 58.367188 10.859375 59.144531 C 11.851562 59.890625 13.1875 60 14.386719 59.832031 C 15.410156 59.726562 16.511719 59.3125 17.019531 58.351562 C 16.261719 58.265625 15.496094 58.257812 14.738281 58.167969 C 14.359375 58.554688 13.769531 58.773438 13.242188 58.59375 C 12.761719 58.464844 12.367188 58.082031 12.261719 57.59375 C 13.898438 57.582031 15.535156 57.589844 17.167969 57.589844 C 17.09375 56.90625 16.984375 56.167969 16.472656 55.660156 C 15.59375 54.746094 14.207031 54.644531 13.011719 54.714844 C 12.09375 54.757812 11.101562 55 10.511719 55.761719 M 20.515625 55.578125 C 20.511719 55.328125 20.511719 55.082031 20.507812 54.835938 C 19.78125 54.832031 19.054688 54.832031 18.328125 54.832031 C 18.335938 56.476562 18.300781 58.117188 18.320312 59.757812 C 19.046875 59.71875 19.78125 59.746094 20.511719 59.738281 C 20.515625 58.988281 20.503906 58.238281 20.511719 57.488281 C 20.5 57.203125 20.667969 56.921875 20.917969 56.796875 C 21.316406 56.570312 21.789062 56.679688 22.21875 56.675781 C 22.207031 56.03125 22.207031 55.386719 22.230469 54.742188 C 21.558594 54.71875 20.914062 55.042969 20.515625 55.578125 M 25.761719 55.449219 C 25.765625 55.242188 25.765625 55.039062 25.769531 54.832031 C 25.035156 54.832031 24.296875 54.832031 23.558594 54.832031 C 23.535156 56.484375 23.554688 58.132812 23.546875 59.78125 C 24.289062 59.78125 25.023438 59.78125 25.765625 59.78125 C 25.765625 59.066406 25.765625 58.351562 25.765625 57.636719 C 25.765625 57.234375 25.835938 56.796875 26.105469 56.484375 C 26.640625 55.886719 27.832031 56.15625 27.96875 56.980469 C 28.085938 57.90625 27.984375 58.851562 28.015625 59.78125 C 28.765625 59.78125 29.515625 59.78125 30.265625 59.78125 C 30.246094 58.558594 30.328125 57.332031 30.164062 56.117188 C 30.027344 55.398438 29.347656 54.914062 28.652344 54.8125 C 27.644531 54.585938 26.59375 54.863281 25.761719 55.449219 M 39.441406 56.066406 C 38.886719 57.015625 39.050781 58.375 39.925781 59.085938 C 40.804688 59.8125 42.023438 59.964844 43.128906 59.878906 C 44.277344 59.800781 45.570312 59.441406 46.15625 58.351562 C 45.398438 58.265625 44.632812 58.257812 43.875 58.171875 C 43.171875 59.003906 41.617188 58.691406 41.394531 57.59375 C 43.035156 57.578125 44.671875 57.59375 46.308594 57.585938 C 46.257812 56.746094 45.996094 55.847656 45.265625 55.351562 C 44.203125 54.632812 42.835938 54.621094 41.609375 54.769531 C 40.746094 54.855469 39.875 55.289062 39.441406 56.066406 M 56.714844 55.367188 C 55.5625 56.210938 55.460938 58.132812 56.566406 59.058594 C 57.535156 59.875 58.910156 60 60.125 59.84375 C 61.175781 59.742188 62.292969 59.324219 62.832031 58.355469 C 62.09375 58.277344 61.347656 58.25 60.609375 58.179688 C 60.316406 58.316406 60.078125 58.578125 59.742188 58.617188 C 59.015625 58.796875 58.246094 58.300781 58.039062 57.59375 C 59.671875 57.574219 61.308594 57.601562 62.941406 57.582031 C 62.949219 56.878906 62.753906 56.140625 62.253906 55.625 C 61.507812 54.867188 60.386719 54.710938 59.371094 54.691406 C 58.457031 54.71875 57.460938 54.777344 56.714844 55.367188 M 66.535156 55.449219 C 66.535156 55.242188 66.539062 55.039062 66.539062 54.832031 C 65.804688 54.832031 65.070312 54.832031 64.335938 54.832031 C 64.324219 56.484375 64.328125 58.132812 64.328125 59.78125 C 65.058594 59.78125 65.792969 59.78125 66.527344 59.78125 C 66.527344 59.0625 66.542969 58.34375 66.539062 57.621094 C 66.546875 57.152344 66.644531 56.605469 67.066406 56.328125 C 67.695312 55.914062 68.710938 56.300781 68.765625 57.09375 C 68.792969 57.988281 68.769531 58.886719 68.773438 59.78125 C 69.523438 59.78125 70.273438 59.78125 71.023438 59.78125 C 70.988281 58.570312 71.109375 57.347656 70.933594 56.140625 C 70.820312 55.40625 70.109375 54.910156 69.40625 54.8125 C 68.40625 54.585938 67.363281 54.871094 66.535156 55.449219 M 72.773438 58.027344 C 72.773438 58.597656 72.773438 59.167969 72.773438 59.738281 C 73.46875 59.742188 74.164062 59.722656 74.859375 59.757812 C 74.910156 59.183594 74.886719 58.605469 74.890625 58.03125 C 74.183594 58.027344 73.476562 58.03125 72.773438 58.027344 Z M 72.773438 58.027344 "/>
    <path style=" stroke:none;fill-rule:nonzero;fill:rgb(0%,0%,0%);fill-opacity:1;" d="M 12.308594 56.726562 C 12.757812 55.703125 14.445312 55.667969 14.855469 56.738281 C 14.003906 56.734375 13.15625 56.753906 12.308594 56.726562 Z M 12.308594 56.726562 "/>
    <path style=" stroke:none;fill-rule:nonzero;fill:rgb(0%,0%,0%);fill-opacity:1;" d="M 41.445312 56.71875 C 41.90625 55.703125 43.601562 55.660156 43.988281 56.753906 C 43.140625 56.714844 42.292969 56.769531 41.445312 56.71875 Z M 41.445312 56.71875 "/>
    <path style=" stroke:none;fill-rule:nonzero;fill:rgb(0%,0%,0%);fill-opacity:1;" d="M 58.136719 56.75 C 58.523438 55.683594 60.238281 55.679688 60.660156 56.722656 C 59.820312 56.765625 58.976562 56.722656 58.136719 56.75 Z M 58.136719 56.75 "/>
    <path style=" stroke:none;fill-rule:nonzero;fill:rgb(76.078431%,8.235294%,12.941176%);fill-opacity:1;" d="M 0 28.417969 C 26.667969 28.417969 53.332031 28.417969 80 28.417969 L 80 31.644531 C 78.253906 31.546875 76.503906 31.523438 74.753906 31.535156 C 73.320312 31.515625 71.878906 31.574219 70.472656 31.859375 C 69.261719 32.105469 68.042969 32.636719 67.273438 33.640625 C 66.269531 34.925781 65.992188 36.578125 65.617188 38.121094 C 64.417969 38.15625 63.21875 38.128906 62.023438 38.136719 C 61.707031 39.441406 61.386719 40.742188 61.0625 42.046875 C 62.25 42.054688 63.433594 42.042969 64.621094 42.050781 C 63.867188 45 63.183594 47.964844 62.417969 50.90625 C 60.253906 50.910156 58.085938 50.910156 55.921875 50.90625 C 57.503906 49.972656 58.726562 48.363281 58.945312 46.515625 C 59.089844 45.4375 58.660156 44.355469 57.933594 43.570312 C 56.914062 42.457031 55.496094 41.855469 54.140625 41.261719 C 51.863281 40.246094 49.585938 39.226562 47.304688 38.214844 C 46.792969 38 46.289062 37.589844 46.21875 37.003906 C 46.144531 36.492188 46.539062 36.074219 46.949219 35.84375 C 47.824219 35.371094 48.875 35.359375 49.824219 35.570312 C 50.265625 35.667969 50.765625 35.894531 50.886719 36.378906 C 51.023438 37.019531 50.765625 37.65625 50.632812 38.277344 C 53.933594 38.277344 57.238281 38.277344 60.542969 38.277344 C 60.675781 37.636719 60.867188 37.007812 60.984375 36.359375 C 61.171875 35.234375 60.589844 34.089844 59.691406 33.421875 C 58.585938 32.585938 57.222656 32.191406 55.882812 31.914062 C 52.929688 31.347656 49.898438 31.300781 46.90625 31.472656 C 44.953125 31.640625 42.992188 31.882812 41.117188 32.472656 C 39.378906 33.015625 37.644531 33.960938 36.6875 35.574219 C 36.136719 36.535156 35.734375 37.636719 35.78125 38.757812 C 35.8125 39.519531 36.238281 40.214844 36.804688 40.703125 C 37.699219 41.5 38.816406 41.984375 39.902344 42.449219 C 41.6875 43.207031 43.472656 43.964844 45.257812 44.726562 C 46.03125 45.074219 46.847656 45.339844 47.550781 45.820312 C 48.023438 46.125 48.328125 46.683594 48.28125 47.25 C 48.183594 47.953125 47.550781 48.417969 46.929688 48.660156 C 46.007812 49.003906 44.96875 49.097656 44.019531 48.808594 C 43.589844 48.675781 43.203125 48.328125 43.125 47.867188 C 43.027344 47.234375 43.242188 46.605469 43.328125 45.980469 C 39.933594 45.980469 36.539062 45.984375 33.144531 45.980469 C 32.761719 47.011719 32.4375 48.132812 32.679688 49.234375 C 32.808594 49.886719 33.222656 50.429688 33.667969 50.90625 C 31.714844 50.910156 29.765625 50.910156 27.8125 50.90625 C 29.132812 50.117188 30.214844 48.898438 30.648438 47.410156 C 30.984375 46.40625 30.941406 45.265625 30.394531 44.34375 C 29.691406 43.144531 28.460938 42.371094 27.230469 41.796875 C 24.542969 40.59375 21.855469 39.394531 19.167969 38.199219 C 18.710938 38 18.269531 37.664062 18.140625 37.160156 C 17.976562 36.679688 18.296875 36.179688 18.695312 35.933594 C 19.554688 35.390625 20.640625 35.351562 21.609375 35.546875 C 22.070312 35.644531 22.625 35.832031 22.769531 36.335938 C 22.964844 36.984375 22.628906 37.640625 22.535156 38.28125 C 25.828125 38.277344 29.125 38.277344 32.417969 38.28125 C 32.640625 37.234375 33.15625 36.152344 32.777344 35.082031 C 32.441406 33.953125 31.4375 33.191406 30.40625 32.722656 C 28.589844 31.914062 26.589844 31.667969 24.628906 31.492188 C 21.171875 31.261719 17.664062 31.367188 14.269531 32.128906 C 12.449219 32.5625 10.578125 33.246094 9.273438 34.648438 C 8.328125 35.703125 7.742188 37.089844 7.664062 38.503906 C 7.617188 39.578125 8.316406 40.515625 9.175781 41.089844 C 9.984375 41.664062 10.890625 42.066406 11.800781 42.449219 C 13.96875 43.371094 16.132812 44.292969 18.296875 45.214844 C 18.847656 45.464844 19.429688 45.707031 19.828125 46.171875 C 20.261719 46.667969 20.304688 47.476562 19.847656 47.96875 C 19.140625 48.75 18.019531 48.957031 17.015625 48.984375 C 16.347656 48.9375 15.527344 48.867188 15.152344 48.230469 C 14.785156 47.519531 15.128906 46.710938 15.226562 45.980469 C 11.839844 45.976562 8.453125 45.992188 5.066406 45.972656 C 4.621094 47.0625 4.261719 48.304688 4.636719 49.46875 C 4.800781 50.03125 5.171875 50.492188 5.574219 50.90625 C 3.714844 50.910156 1.859375 50.90625 0 50.910156 Z M 0 28.417969 "/>
    <path style=" stroke:none;fill-rule:nonzero;fill:rgb(76.078431%,8.235294%,12.941176%);fill-opacity:1;" d="M 76.382812 35.605469 C 77.578125 35.402344 78.792969 35.460938 80 35.453125 L 80 50.910156 C 77.3125 50.90625 74.628906 50.914062 71.941406 50.90625 C 72.675781 47.949219 73.394531 44.988281 74.128906 42.03125 C 75.386719 42.03125 76.648438 42.03125 77.910156 42.03125 C 78.222656 40.730469 78.550781 39.433594 78.863281 38.128906 C 77.449219 38.144531 76.035156 38.132812 74.621094 38.136719 C 74.800781 37.53125 74.90625 36.894531 75.203125 36.332031 C 75.421875 35.886719 75.921875 35.6875 76.382812 35.605469 Z M 76.382812 35.605469 "/>
  </g>
</svg>