<?xml version="1.0" encoding="UTF-8" standalone="yes"?>
<svg xmlns="http://www.w3.org/2000/svg" xmlns:xlink="http://www.w3.org/1999/xlink" width="277.3333333333333px" height="106.66666666666666px" viewBox="0 0 208 80" version="1.1">
  <g id="surface1">
    <path style=" stroke:none;fill-rule:nonzero;fill:rgb(100%,80.392157%,0%);fill-opacity:1;" d="M 19.800781 55.339844 L 0.105469 55.339844 C 1.253906 66.566406 6.765625 77.222656 31.261719 77.222656 C 48.851562 77.222656 59.554688 70.609375 59.554688 59.289062 C 59.554688 36.292969 23.023438 43.683594 23.023438 32.382812 C 23.023438 29.167969 25.339844 27.003906 29.113281 27.003906 C 33.777344 27.003906 38.066406 29.617188 38.066406 35.972656 L 57.046875 35.972656 C 57.046875 23.523438 48.914062 15.164062 29.472656 15.164062 C 9.589844 15.164062 0.980469 23.703125 0.980469 33.101562 C 0.980469 54.484375 38.554688 46.777344 38.554688 58.898438 C 38.554688 62.355469 35.414062 65.125 31.0625 65.125 C 25.175781 65.125 20.726562 61.785156 19.800781 55.339844 Z M 19.800781 55.339844 "/>
    <path style=" stroke:none;fill-rule:nonzero;fill:rgb(100%,80.392157%,0%);fill-opacity:1;" d="M 62.601562 16.960938 L 62.601562 52.914062 C 62.601562 69.058594 75.855469 77.253906 91.601562 77.253906 C 106.253906 77.253906 120.4375 70.132812 120.4375 52.832031 L 120.4375 16.960938 L 99.667969 16.960938 L 99.667969 50.320312 C 99.667969 58.25 96.332031 60.722656 91.789062 60.722656 C 86.9375 60.722656 83.371094 58.007812 83.371094 50.296875 L 83.371094 16.960938 Z M 62.601562 16.960938 "/>
    <path style=" stroke:none;fill-rule:nonzero;fill:rgb(100%,80.392157%,0%);fill-opacity:1;" d="M 125.8125 0.105469 L 125.8125 48.40625 C 125.8125 69.488281 144.027344 77.226562 159.117188 77.226562 C 177.265625 77.226562 191.195312 62.542969 191.195312 46.03125 C 191.195312 27.683594 178.117188 16.203125 161.503906 16.203125 C 151.84375 16.203125 146.582031 19.832031 146.582031 19.832031 L 146.582031 0.105469 Z M 159.308594 33.0625 C 167.476562 33.0625 171.664062 38.953125 171.664062 46.410156 C 171.664062 55.539062 165.539062 59.257812 159.140625 59.257812 C 150.542969 59.257812 145.84375 53.214844 145.84375 46.367188 C 145.84375 39.707031 150.296875 33.0625 159.308594 33.0625 Z M 159.308594 33.0625 "/>
    <path style=" stroke:none;fill-rule:nonzero;fill:rgb(100%,80.392157%,0%);fill-opacity:1;" d="M 207.894531 69.96875 C 207.894531 75.429688 203.476562 79.855469 198.027344 79.855469 C 192.574219 79.855469 188.15625 75.429688 188.15625 69.96875 C 188.15625 64.507812 192.574219 60.082031 198.027344 60.082031 C 203.476562 60.082031 207.894531 64.507812 207.894531 69.96875 Z M 207.894531 69.96875 "/>
  </g>
</svg>