<?xml version="1.0" encoding="UTF-8" standalone="yes"?>
<svg xmlns="http://www.w3.org/2000/svg" xmlns:xlink="http://www.w3.org/1999/xlink" width="377.3333333333333px" height="106.66666666666666px" viewBox="0 0 283 80" version="1.1">
  <g id="surface1">
    <path style=" stroke:none;fill-rule:nonzero;fill:rgb(0%,67.058824%,76.078431%);fill-opacity:1;" d="M 16.527344 53.09375 L 16.527344 26.671875 L 7.308594 26.671875 L 7.308594 53.09375 Z M 16.527344 53.09375 "/>
    <path style=" stroke:none;fill-rule:nonzero;fill:rgb(0%,67.058824%,76.078431%);fill-opacity:1;" d="M 33.65625 53.09375 L 42.878906 53.09375 L 42.878906 26.671875 L 33.65625 26.671875 Z M 33.65625 53.09375 "/>
    <path style=" stroke:none;fill-rule:nonzero;fill:rgb(0%,67.058824%,76.078431%);fill-opacity:1;" d="M 63.695312 53.09375 L 63.695312 26.671875 L 54.472656 26.671875 L 54.472656 53.09375 Z M 63.695312 53.09375 "/>
    <path style=" stroke:none;fill-rule:nonzero;fill:rgb(0%,67.058824%,76.078431%);fill-opacity:1;" d="M 48.203125 26.136719 L 47.753906 26.179688 L 47.304688 26.300781 L 46.851562 26.425781 L 46.441406 26.589844 L 46.03125 26.835938 L 45.664062 27.082031 L 45.335938 27.328125 L 45.007812 27.660156 L 44.679688 27.988281 L 44.433594 28.316406 L 44.1875 28.726562 L 43.941406 29.097656 L 43.777344 29.507812 L 43.65625 29.960938 L 43.53125 30.410156 L 43.492188 30.90625 L 43.453125 31.355469 L 43.492188 31.851562 L 43.53125 32.300781 L 43.65625 32.792969 L 43.777344 33.207031 L 43.941406 33.617188 L 44.1875 34.027344 L 44.433594 34.398438 L 44.679688 34.765625 L 45.007812 35.097656 L 45.335938 35.382812 L 45.664062 35.671875 L 46.03125 35.917969 L 46.441406 36.125 L 46.851562 36.328125 L 47.304688 36.453125 L 47.753906 36.574219 L 48.203125 36.617188 L 48.65625 36.65625 L 49.148438 36.617188 L 49.597656 36.574219 L 50.046875 36.453125 L 50.5 36.328125 L 50.910156 36.125 L 51.320312 35.917969 L 51.6875 35.671875 L 52.015625 35.382812 L 52.382812 35.097656 L 52.671875 34.765625 L 52.917969 34.398438 L 53.164062 34.027344 L 53.410156 33.617188 L 53.574219 33.207031 L 53.695312 32.792969 L 53.820312 32.300781 L 53.859375 31.851562 L 53.902344 31.355469 L 53.859375 30.90625 L 53.820312 30.410156 L 53.695312 29.960938 L 53.574219 29.507812 L 53.410156 29.097656 L 53.164062 28.726562 L 52.917969 28.316406 L 52.671875 27.988281 L 52.382812 27.660156 L 52.015625 27.328125 L 51.6875 27.082031 L 51.320312 26.835938 L 50.910156 26.589844 L 50.5 26.425781 L 50.046875 26.300781 L 49.597656 26.179688 L 49.148438 26.136719 L 48.65625 26.097656 Z M 48.203125 26.136719 "/>
    <path style=" stroke:none;fill-rule:nonzero;fill:rgb(0%,67.058824%,76.078431%);fill-opacity:1;" d="M 74.964844 40.480469 L 74.839844 39.863281 L 74.921875 39.328125 L 75.25 38.710938 L 75.25 38.671875 L 75.332031 38.546875 L 75.457031 38.34375 L 75.621094 38.054688 L 75.824219 37.765625 L 76.027344 37.355469 L 76.316406 36.945312 L 76.601562 36.453125 L 76.929688 35.957031 L 77.585938 34.808594 L 77.957031 34.234375 L 78.324219 33.617188 L 78.734375 33 L 79.101562 32.382812 L 79.472656 31.726562 L 79.839844 31.152344 L 80.207031 30.535156 L 80.535156 29.960938 L 80.90625 29.425781 L 81.191406 28.890625 L 81.480469 28.4375 L 81.765625 27.988281 L 82.011719 27.617188 L 82.175781 27.289062 L 82.339844 27 L 82.460938 26.835938 L 82.542969 26.714844 L 82.585938 26.671875 L 72.421875 26.671875 L 72.382812 26.714844 L 72.300781 26.796875 L 72.175781 27 L 72.011719 27.246094 L 71.847656 27.578125 L 71.601562 27.945312 L 71.359375 28.355469 L 71.113281 28.808594 L 70.785156 29.300781 L 70.128906 30.371094 L 69.800781 30.945312 L 69.429688 31.5625 L 69.0625 32.136719 L 68.695312 32.753906 L 68.324219 33.328125 L 67.996094 33.902344 L 67.628906 34.480469 L 67.300781 35.054688 L 66.972656 35.589844 L 66.6875 36.082031 L 66.398438 36.535156 L 66.152344 36.945312 L 65.90625 37.316406 L 65.742188 37.601562 L 65.578125 37.890625 L 65.457031 38.054688 L 65.167969 38.628906 L 64.964844 39.164062 L 64.84375 39.617188 L 64.882812 40.109375 L 64.964844 40.644531 L 65.210938 41.136719 L 65.496094 41.753906 L 65.621094 41.917969 L 65.742188 42.203125 L 65.949219 42.492188 L 66.152344 42.863281 L 66.441406 43.273438 L 66.6875 43.726562 L 67.015625 44.21875 L 67.339844 44.792969 L 67.996094 45.863281 L 68.367188 46.476562 L 68.734375 47.054688 L 69.0625 47.667969 L 69.429688 48.246094 L 69.800781 48.820312 L 70.128906 49.394531 L 70.785156 50.464844 L 71.113281 50.957031 L 71.359375 51.410156 L 71.601562 51.820312 L 71.847656 52.191406 L 72.011719 52.519531 L 72.175781 52.765625 L 72.300781 52.929688 L 72.382812 53.050781 L 72.421875 53.09375 L 82.585938 53.09375 L 75.292969 41.09375 Z M 74.964844 40.480469 "/>
    <path style=" stroke:none;fill-rule:nonzero;fill:rgb(0%,67.058824%,76.078431%);fill-opacity:1;" d="M 33.082031 53.050781 L 33.042969 52.96875 L 33 52.804688 L 32.960938 52.640625 L 32.917969 52.394531 L 32.835938 52.105469 L 32.796875 51.738281 L 32.675781 51.367188 L 32.59375 50.957031 L 32.511719 50.503906 L 32.386719 50.011719 L 32.265625 49.476562 L 32.140625 48.941406 L 32.019531 48.367188 L 31.894531 47.75 L 31.730469 47.136719 L 31.609375 46.476562 L 31.445312 45.820312 L 31.320312 45.121094 L 31.15625 44.464844 L 30.828125 43.066406 L 30.664062 42.328125 L 30.503906 41.628906 L 30.378906 40.929688 L 30.214844 40.230469 L 30.050781 39.535156 L 29.886719 38.875 L 29.765625 38.175781 L 29.4375 36.863281 L 29.3125 36.246094 L 29.191406 35.628906 L 29.066406 35.054688 L 28.945312 34.519531 L 28.820312 33.984375 L 28.699219 33.492188 L 28.617188 33.042969 L 28.492188 32.628906 L 28.414062 32.21875 L 28.332031 31.890625 L 28.289062 31.601562 L 28.25 31.355469 L 28.167969 31.152344 L 28.167969 31.027344 L 28.125 30.945312 L 28.125 30.90625 L 28.003906 30.453125 L 27.839844 29.960938 L 27.632812 29.546875 L 27.429688 29.136719 L 27.140625 28.726562 L 26.855469 28.355469 L 26.527344 28.027344 L 26.160156 27.742188 L 25.789062 27.453125 L 25.339844 27.207031 L 24.929688 27.042969 L 24.476562 26.878906 L 23.988281 26.753906 L 23.496094 26.671875 L 17.0625 26.671875 L 23.042969 53.09375 L 33.082031 53.09375 Z M 33.082031 53.050781 "/>
    <path style="fill:none;stroke-width:5.336587;stroke-linecap:square;stroke-linejoin:bevel;stroke:rgb(0%,67.058824%,76.078431%);stroke-opacity:1;stroke-miterlimit:4;" d="M 243.375764 242.994702 C 243.375764 256.665734 232.292887 267.745815 218.625725 267.745815 C 204.955125 267.745815 193.875685 256.665734 193.875685 242.994702 C 193.875685 229.327098 204.955125 218.243589 218.625725 218.243589 C 232.292887 218.243589 243.375764 229.327098 243.375764 242.994702 Z M 243.375764 242.994702 " transform="matrix(1.136677,0,0,1.139785,-124.206156,-236.625683)"/>
    <path style=" stroke:none;fill-rule:nonzero;fill:rgb(0%,67.058824%,76.078431%);fill-opacity:1;" d="M 134.378906 42.898438 L 130.164062 45.660156 L 131.539062 40.804688 L 127.617188 37.636719 L 132.648438 37.445312 L 134.441406 32.726562 L 136.175781 37.46875 L 141.203125 37.71875 L 137.246094 40.835938 L 138.5625 45.710938 Z M 134.378906 42.898438 "/>
    <path style=" stroke:none;fill-rule:nonzero;fill:rgb(0%,67.058824%,76.078431%);fill-opacity:1;" d="M 118.527344 40.492188 C 118.527344 43.257812 116.292969 45.496094 113.535156 45.496094 C 110.78125 45.496094 108.546875 43.257812 108.546875 40.492188 C 108.546875 37.726562 110.78125 35.488281 113.535156 35.488281 C 116.292969 35.488281 118.527344 37.726562 118.527344 40.492188 Z M 118.527344 40.492188 "/>
    <path style=" stroke:none;fill-rule:nonzero;fill:rgb(0%,67.058824%,76.078431%);fill-opacity:1;" d="M 217.628906 62.820312 C 216.824219 62.683594 216.074219 62.140625 215.722656 61.433594 C 215.410156 60.808594 215.429688 61.921875 215.429688 44.78125 C 215.429688 27.53125 215.40625 28.75 215.738281 28.074219 C 215.917969 27.714844 216.410156 27.203125 216.769531 27.003906 C 217.355469 26.675781 218.125 26.597656 218.753906 26.792969 C 219.125 26.910156 219.660156 27.234375 219.878906 27.476562 C 219.949219 27.558594 220.035156 27.621094 220.070312 27.621094 C 220.101562 27.621094 220.375 27.515625 220.671875 27.378906 C 221.785156 26.882812 223.097656 26.539062 224.378906 26.402344 C 225.175781 26.320312 227 26.367188 227.785156 26.488281 C 229.445312 26.753906 231.015625 27.355469 232.320312 28.234375 C 233.035156 28.714844 234.023438 29.730469 234.535156 30.507812 C 235.433594 31.882812 235.890625 33.261719 236.011719 35.011719 C 236.082031 35.976562 236.082031 43.1875 236.011719 44.203125 C 235.714844 48.652344 232.753906 51.929688 228.183594 52.863281 C 225.792969 53.351562 223.101562 53.082031 221.058594 52.15625 C 220.882812 52.078125 220.71875 52.027344 220.691406 52.042969 C 220.664062 52.058594 220.640625 53.871094 220.640625 56.277344 C 220.640625 60.851562 220.644531 60.785156 220.335938 61.4375 C 220.011719 62.113281 219.207031 62.695312 218.414062 62.824219 C 218.023438 62.886719 218.007812 62.886719 217.628906 62.820312 Z M 227.085938 47.683594 C 228.65625 47.371094 229.878906 46.542969 230.421875 45.417969 C 230.507812 45.234375 230.636719 44.886719 230.703125 44.644531 C 230.824219 44.203125 230.824219 44.195312 230.824219 39.652344 C 230.824219 34.554688 230.832031 34.664062 230.433594 33.84375 C 230.136719 33.234375 229.503906 32.621094 228.832031 32.289062 C 227.953125 31.851562 226.945312 31.648438 225.667969 31.652344 C 223.351562 31.652344 221.683594 32.453125 221.015625 33.886719 C 220.632812 34.707031 220.636719 34.652344 220.65625 39.816406 C 220.675781 44.664062 220.664062 44.484375 220.925781 45.167969 C 221.453125 46.546875 222.847656 47.492188 224.742188 47.757812 C 225.261719 47.832031 226.546875 47.789062 227.085938 47.683594 Z M 174.234375 53.296875 C 170.296875 52.941406 167.332031 50.777344 166.25 47.464844 C 165.992188 46.683594 165.878906 46.015625 165.90625 45.4375 C 165.925781 45.023438 165.957031 44.902344 166.128906 44.554688 C 166.425781 43.941406 166.910156 43.484375 167.53125 43.234375 C 167.976562 43.050781 168.710938 43.023438 169.1875 43.171875 C 170.160156 43.472656 170.742188 44.15625 171 45.300781 C 171.0625 45.570312 171.199219 45.960938 171.308594 46.167969 C 171.554688 46.648438 172.136719 47.21875 172.660156 47.496094 C 174.085938 48.257812 176.324219 48.273438 177.84375 47.53125 C 178.191406 47.359375 178.394531 47.214844 178.660156 46.941406 C 179.277344 46.304688 179.492188 45.722656 179.492188 44.699219 C 179.492188 44.175781 179.476562 44.050781 179.371094 43.828125 C 179.011719 43.078125 177.933594 42.582031 174.722656 41.683594 C 172.875 41.171875 171.785156 40.789062 170.953125 40.359375 C 168.230469 38.96875 166.773438 36.582031 166.894531 33.71875 C 166.984375 31.605469 167.699219 29.878906 169.050781 28.503906 C 170.214844 27.316406 171.679688 26.582031 173.636719 26.203125 C 174.328125 26.070312 176.261719 26.042969 177.03125 26.15625 C 178.878906 26.429688 180.335938 27.070312 181.621094 28.175781 C 182.417969 28.863281 183.058594 29.710938 183.550781 30.738281 C 183.992188 31.660156 184.089844 31.992188 184.089844 32.550781 C 184.089844 33.53125 183.570312 34.386719 182.71875 34.808594 C 181.3125 35.507812 179.847656 35.003906 179.199219 33.597656 C 179.078125 33.332031 178.9375 33.027344 178.886719 32.917969 C 178.714844 32.5625 178.074219 31.960938 177.628906 31.746094 C 176.90625 31.394531 176.640625 31.347656 175.480469 31.347656 C 174.65625 31.351562 174.378906 31.371094 174.097656 31.449219 C 172.964844 31.769531 172.332031 32.40625 172.117188 33.445312 C 171.933594 34.3125 172.074219 34.773438 172.65625 35.25 C 173.382812 35.84375 174.449219 36.292969 176.621094 36.917969 C 179.804688 37.835938 181.597656 38.777344 182.949219 40.242188 C 183.789062 41.152344 184.25 42.015625 184.488281 43.128906 C 184.636719 43.839844 184.648438 45.484375 184.503906 46.300781 C 183.816406 50.21875 180.699219 52.871094 176.296875 53.28125 C 175.734375 53.332031 174.714844 53.339844 174.234375 53.296875 Z M 198.128906 53.054688 C 196.136719 52.847656 194.34375 52.222656 192.890625 51.230469 C 191.011719 49.957031 189.792969 48.074219 189.292969 45.683594 L 189.167969 45.085938 L 189.152344 36.84375 C 189.136719 27.808594 189.117188 28.378906 189.449219 27.710938 C 189.625 27.359375 190.128906 26.847656 190.476562 26.667969 C 191.328125 26.230469 192.292969 26.246094 193.082031 26.71875 C 193.398438 26.90625 193.878906 27.433594 194.054688 27.785156 C 194.363281 28.402344 194.351562 28.140625 194.355469 36.621094 C 194.355469 44.253906 194.359375 44.445312 194.464844 44.871094 C 194.753906 46.027344 195.5 46.851562 196.703125 47.339844 C 197.753906 47.769531 199.203125 47.914062 200.566406 47.734375 C 202.574219 47.46875 203.832031 46.597656 204.359375 45.113281 L 204.484375 44.753906 L 204.511719 36.617188 L 204.539062 28.476562 L 204.660156 28.152344 C 204.914062 27.472656 205.40625 26.90625 205.988281 26.617188 C 206.378906 26.421875 206.675781 26.355469 207.148438 26.355469 C 208.269531 26.351562 209.25 27.074219 209.617188 28.167969 C 209.726562 28.507812 209.726562 28.523438 209.710938 36.851562 L 209.695312 45.195312 L 209.574219 45.730469 C 209.300781 46.945312 208.886719 47.957031 208.289062 48.863281 C 207.382812 50.246094 206.386719 51.117188 204.808594 51.902344 C 203.707031 52.453125 202.664062 52.777344 201.363281 52.976562 C 200.671875 53.082031 198.804688 53.128906 198.128906 53.054688 Z M 250.050781 53.054688 C 245.058594 52.527344 241.722656 49.539062 241.144531 45.074219 C 241.078125 44.558594 241.0625 43.613281 241.0625 39.855469 C 241.066406 34.453125 241.078125 34.25 241.550781 32.804688 C 242.324219 30.4375 243.921875 28.640625 246.277344 27.492188 C 248.003906 26.652344 249.636719 26.3125 251.703125 26.367188 C 253.25 26.410156 254.398438 26.636719 255.726562 27.160156 C 257.101562 27.703125 258.078125 28.34375 259.070312 29.355469 C 259.867188 30.167969 260.335938 30.828125 260.773438 31.761719 C 261.542969 33.402344 261.726562 34.609375 261.691406 37.730469 C 261.667969 39.378906 261.660156 39.539062 261.554688 39.828125 C 261.246094 40.664062 260.71875 41.199219 259.886719 41.511719 C 259.695312 41.582031 258.765625 41.601562 252.984375 41.628906 L 246.304688 41.664062 L 246.304688 43.128906 C 246.304688 44.507812 246.3125 44.613281 246.433594 45.003906 C 246.867188 46.421875 247.910156 47.269531 249.703125 47.660156 C 250.171875 47.757812 250.449219 47.78125 251.300781 47.785156 C 252.628906 47.789062 253.425781 47.644531 254.296875 47.238281 C 255.148438 46.839844 255.695312 46.335938 256.101562 45.566406 C 256.644531 44.542969 257.464844 44.011719 258.496094 44.011719 C 259.566406 44.011719 260.523438 44.660156 260.914062 45.65625 C 261.28125 46.585938 261.09375 47.523438 260.289062 48.78125 C 258.84375 51.039062 256.394531 52.503906 253.285156 52.976562 C 252.59375 53.082031 250.726562 53.128906 250.050781 53.054688 Z M 256.449219 36.707031 C 256.476562 36.671875 256.484375 36.320312 256.46875 35.925781 C 256.414062 34.597656 256.128906 33.871094 255.351562 33.082031 C 254.828125 32.550781 254.257812 32.214844 253.457031 31.960938 C 252.160156 31.546875 250.546875 31.546875 249.253906 31.960938 C 247.769531 32.4375 246.816406 33.363281 246.4375 34.695312 C 246.320312 35.109375 246.222656 36.558594 246.300781 36.757812 C 246.332031 36.847656 246.628906 36.851562 251.371094 36.8125 C 255.132812 36.785156 256.417969 36.757812 256.449219 36.707031 Z M 269 53.035156 C 268.121094 52.820312 267.453125 52.199219 267.125 51.292969 L 266.996094 50.933594 L 266.996094 28.476562 L 267.121094 28.152344 C 267.304688 27.65625 267.476562 27.394531 267.835938 27.054688 C 268.523438 26.40625 269.46875 26.183594 270.34375 26.460938 C 270.796875 26.605469 271.042969 26.761719 271.429688 27.15625 L 271.746094 27.476562 L 272.277344 27.222656 C 272.945312 26.902344 273.621094 26.671875 274.355469 26.511719 C 274.816406 26.414062 275.109375 26.386719 275.851562 26.382812 L 276.773438 26.382812 L 277.191406 26.582031 C 277.917969 26.9375 278.363281 27.457031 278.621094 28.261719 C 278.914062 29.171875 278.699219 30.089844 278.03125 30.808594 C 277.515625 31.363281 277.015625 31.5625 275.941406 31.648438 C 275.550781 31.679688 275.101562 31.75 274.898438 31.8125 C 273.808594 32.15625 272.957031 33.113281 272.542969 34.457031 C 272.207031 35.546875 272.222656 35.105469 272.1875 43.457031 L 272.15625 51.101562 L 272.035156 51.402344 C 271.53125 52.65625 270.25 53.34375 269 53.035156 Z M 269 53.035156 "/>
  </g>
</svg>