<?xml version="1.0" encoding="UTF-8" standalone="no"?>
<svg
   xmlns:dc="http://purl.org/dc/elements/1.1/"
   xmlns:cc="http://creativecommons.org/ns#"
   xmlns:rdf="http://www.w3.org/1999/02/22-rdf-syntax-ns#"
   xmlns:svg="http://www.w3.org/2000/svg"
   xmlns="http://www.w3.org/2000/svg"
   viewBox="0 0 826.8667 136.86667"
   height="136.86667"
   width="826.8667"
   xml:space="preserve"
   id="svg2"
   version="1.1"><metadata
     id="metadata8"><rdf:RDF><cc:Work
         rdf:about=""><dc:format>image/svg+xml</dc:format><dc:type
           rdf:resource="http://purl.org/dc/dcmitype/StillImage" /></cc:Work></rdf:RDF></metadata><defs
     id="defs6" /><g
     transform="matrix(1.3333333,0,0,-1.3333333,0,136.86667)"
     id="g10"><g
       transform="scale(0.1)"
       id="g12"><path
         id="path14"
         style="fill:#231f20;fill-opacity:1;fill-rule:nonzero;stroke:none"
         d="M 931.699,829.488 736.023,241.793 540.352,829.488 H 492.91 L 700.77,205.152 h 70.507 l 207.856,624.336 h -47.434" /><path
         id="path16"
         style="fill:#231f20;fill-opacity:1;fill-rule:nonzero;stroke:none"
         d="m 2577.15,363.512 c -26.1,-73.789 -96.5,-123.379 -175.27,-123.379 h -15.41 c -78.76,0 -149.18,49.59 -175.24,123.379 -3.75,10.605 -15.14,42.812 -15.14,153.828 0,99.199 8.64,135.098 15.14,153.457 26.06,73.808 96.48,123.398 175.24,123.398 h 15.41 c 78.77,0 149.17,-49.59 175.27,-123.398 3.74,-10.567 15.12,-42.774 15.12,-153.457 0,-74.707 -4.95,-125.039 -15.12,-153.828 m 15.12,466.191 v -90.488 c -42.33,61.445 -113.07,100.058 -190.39,100.058 h -15.41 c -97.82,0 -185.33,-61.679 -217.74,-153.457 -8.24,-23.32 -17.7,-63.535 -17.7,-168.476 0,-106.445 10.11,-147.324 17.7,-168.828 32.41,-91.778 119.92,-153.438 217.74,-153.438 h 15.41 c 77.15,0 147.78,38.477 190.12,99.688 -1.1,-59.727 -5.99,-101.231 -14.85,-126.328 -26.1,-73.7895 -96.5,-123.3598 -175.27,-123.3598 h -15.41 c -69.7,0 -135.31,32.4024 -170.18,80.8208 h -52.41 C 2201.29,50.8359 2289.32,0 2386.47,0 h 15.41 c 97.83,0 185.34,61.6367 217.74,153.414 7.62,21.504 17.69,62.402 17.69,168.867 v 507.422 h -45.04" /><path
         id="path18"
         style="fill:#231f20;fill-opacity:1;fill-rule:nonzero;stroke:none"
         d="m 2789.71,670.738 c 26.06,73.809 96.47,123.379 175.23,123.379 h 15.41 c 78.77,0 149.18,-49.57 175.26,-123.379 3.01,-8.554 11.68,-33.047 14.33,-105.215 h -394.57 c 2.27,63.457 9.01,90.196 14.34,105.215 m 380.8,-311.172 -1.1,-3.027 c -23.85,-67.48 -103.35,-116.465 -189.06,-116.465 h -15.41 c -78.76,0 -149.17,49.571 -175.23,123.36 -3.76,10.586 -15.15,42.812 -15.15,153.828 v 3.183 h 441.42 l -0.38,22.91 c -1.43,87.286 -10.68,123.067 -17.51,142.383 -32.4,91.797 -119.93,153.438 -217.74,153.438 h -15.41 c -97.81,0 -185.32,-61.641 -217.73,-153.418 -8.25,-23.32 -17.72,-63.555 -17.72,-168.496 0,-106.426 10.12,-147.344 17.72,-168.828 32.41,-91.778 119.92,-153.438 217.73,-153.438 h 15.41 c 105.86,0 201.09,60.254 231.54,146.543 l 6.37,18.027 h -47.75" /><path
         id="path20"
         style="fill:#231f20;fill-opacity:1;fill-rule:nonzero;stroke:none"
         d="m 1059.38,670.738 c 26.06,73.809 96.47,123.379 175.23,123.379 h 15.41 c 78.78,0 149.19,-49.57 175.25,-123.379 3.03,-8.554 11.68,-33.047 14.35,-105.215 h -394.58 c 2.26,63.457 9,90.196 14.34,105.215 m 380.79,-311.172 -1.1,-3.027 c -23.84,-67.48 -103.33,-116.465 -189.05,-116.465 h -15.41 c -78.76,0 -149.17,49.571 -175.23,123.36 -3.75,10.586 -15.15,42.812 -15.15,153.828 v 3.183 h 441.42 l -0.38,22.91 c -1.42,87.286 -10.67,123.067 -17.51,142.383 -32.4,91.797 -119.92,153.438 -217.74,153.438 h -15.41 c -97.81,0 -185.32,-61.641 -217.73,-153.418 -8.24,-23.32 -17.708,-63.555 -17.708,-168.496 0,-106.426 10.118,-147.344 17.708,-168.828 32.41,-91.778 119.92,-153.438 217.73,-153.438 h 15.41 c 105.87,0 201.07,60.254 231.55,146.543 l 6.36,18.027 h -47.76" /><path
         id="path22"
         style="fill:#231f20;fill-opacity:1;fill-rule:nonzero;stroke:none"
         d="m 239.773,564.801 c -114.277,0 -172.2261,37.129 -172.2261,110.332 0,50.996 16.5937,118.828 160.1951,118.828 h 18.305 c 131.426,0 156.48,-56.777 159.793,-105.508 h 45.098 C 446.68,760.074 405.73,839.02 246.047,839.02 h -18.305 c -169.6482,0 -205.2615,-89.122 -205.2615,-163.887 0,-58.067 28.2226,-155.391 217.2925,-155.391 166.516,0 188.965,-72.851 188.965,-144.082 0,-89.863 -59.468,-135.43 -176.785,-135.43 h -30.137 c -117.285,0 -176.7574,45.567 -176.7574,135.43 L 0,375.66 C 0,259.273 78.7813,195.152 221.816,195.152 h 30.137 c 143.059,0 221.836,64.121 221.836,180.508 0,127.266 -76.531,189.141 -234.016,189.141" /><path
         id="path24"
         style="fill:#231f20;fill-opacity:1;fill-rule:nonzero;stroke:none"
         d="m 2039.02,984.078 v -78.027 h -45.07 v 120.309 h 24.14 20.93 v -42.282" /><path
         id="path26"
         style="fill:#231f20;fill-opacity:1;fill-rule:nonzero;stroke:none"
         d="m 2039.02,751.578 v 78.301 h -45.04 V 205.211 h 45.04 v 546.367" /><path
         id="path28"
         style="fill:#231f20;fill-opacity:1;fill-rule:nonzero;stroke:none"
         d="m 5612.63,948.66 v -42.609 h -45.07 v 120.309 h 45.07 v -77.7" /><path
         id="path30"
         style="fill:#231f20;fill-opacity:1;fill-rule:nonzero;stroke:none"
         d="m 5612.64,731.988 v 97.891 h -45.05 V 205.211 h 45.05 v 526.777" /><path
         id="path32"
         style="fill:#231f20;fill-opacity:1;fill-rule:nonzero;stroke:none"
         d="m 1895.71,832.066 c -18.65,4.766 -37.93,7.188 -57.76,7.188 h -15.4 c -77.25,0 -147.94,-38.574 -190.26,-99.941 v 90.546 h -45.03 V 205.191 h 45.03 v 323.047 c 0.63,90.918 8.82,124.981 15.08,142.657 26.06,73.769 96.45,123.32 175.18,123.32 h 15.4 c 20.04,0 39.31,-3.301 57.76,-9.258 v 47.109" /><path
         id="path34"
         style="fill:#231f20;fill-opacity:1;fill-rule:nonzero;stroke:none"
         d="m 5950.79,794.176 c -78.71,0 -149.13,-49.571 -175.17,-123.34 -6.49,-18.359 -15.12,-54.238 -15.12,-153.398 0,-110.997 11.38,-143.184 15.12,-153.77 26.04,-73.77 96.46,-123.34 175.17,-123.34 h 15.41 c 78.72,0 149.12,49.57 175.2,123.34 10.14,28.77 15.08,79.082 15.08,153.77 0,110.625 -11.37,142.812 -15.08,153.398 -26.08,73.769 -96.48,123.34 -175.2,123.34 z m 15.41,-598.867 h -15.41 c -97.78,0 -185.23,61.621 -217.66,153.339 -7.56,21.485 -17.68,62.383 -17.68,168.79 0,104.882 9.44,145.097 17.7,168.417 32.41,91.739 119.86,153.36 217.64,153.36 h 15.41 c 97.78,0 185.25,-61.621 217.66,-153.36 8.23,-23.32 17.68,-63.535 17.68,-168.417 0,-106.407 -10.09,-147.305 -17.68,-168.79 C 6151.45,256.93 6063.98,195.309 5966.2,195.309" /><path
         id="path36"
         style="fill:#231f20;fill-opacity:1;fill-rule:nonzero;stroke:none"
         d="m 5388.69,363.688 c -26.07,-73.77 -96.45,-123.34 -175.18,-123.34 h -15.41 c -78.75,0 -149.13,49.57 -175.18,123.34 -3.76,10.585 -15.14,42.792 -15.14,153.789 0,99.14 8.63,135.039 15.14,153.398 26.05,73.789 96.43,123.34 175.18,123.34 h 15.41 c 78.73,0 149.11,-49.551 175.18,-123.34 3.75,-10.586 15.11,-42.773 15.11,-153.398 0,-74.688 -4.93,-125.02 -15.11,-153.789 m 15.25,-158.536 h 45.03 v 821.368 h -45.03 V 739.078 c -42.31,61.504 -113.08,100.195 -190.43,100.195 h -15.41 c -97.79,0 -185.28,-61.64 -217.65,-153.398 -8.27,-23.301 -17.72,-63.516 -17.72,-168.398 0,-106.426 10.09,-147.305 17.72,-168.789 32.37,-91.758 119.86,-153.379 217.65,-153.379 h 15.41 c 77.35,0 148.12,38.671 190.43,100.175 v -90.332" /><path
         id="path38"
         style="fill:#231f20;fill-opacity:1;fill-rule:nonzero;stroke:none"
         d="m 4825.69,518.199 h -0.08 c 0,-74.765 -4.97,-125.117 -15.17,-153.945 -26.05,-73.809 -96.5,-123.418 -175.28,-123.418 l -16.84,-0.117 c -117.62,0 -177.28,45.703 -177.28,135.84 v 6.855 c 0,71.465 22.97,137.559 189.54,137.559 h 195.11 z m 45.08,144.102 c 0,111.523 -76.92,178.086 -205.77,178.086 h -18.36 c -133.45,0 -212.26,-54.864 -218.92,-150.938 h 45.33 c 8.34,86.875 97.78,105.821 173.59,105.821 H 4665 c 59.99,0 160.64,-17.286 160.64,-133.106 l 0.03,-96.074 h -195.09 c -160.09,0 -234.64,-58.047 -234.64,-182.676 v -6.855 c 0,-116.68 78.96,-180.957 222.38,-180.957 l 18.16,0.117 c 76.92,0.429 147.16,39.062 189.25,100.254 l 0.03,-90.625 h 45.14 l -0.13,456.953" /><path
         id="path40"
         style="fill:#231f20;fill-opacity:1;fill-rule:nonzero;stroke:none"
         d="m 4157.7,676.266 c 0,158.359 -155.76,149.023 -204.08,158.359 h 224.8 c 64.5,-0.059 167.84,-42.637 167.84,-158.379 0,-115.742 -81.02,-158.32 -145.52,-158.379 h -105.51 c 0,0 62.47,0.039 62.47,158.399" /><path
         id="path42"
         style="fill:#231f20;fill-opacity:1;fill-rule:nonzero;stroke:none"
         d="m 3305.77,205.348 h 269.58 L 3305.77,486.07 Z" /><path
         id="path44"
         style="fill:#231f20;fill-opacity:1;fill-rule:nonzero;stroke:none"
         d="M 3589.91,834.645 3846.19,528.297 V 834.645 Z" /><path
         id="path46"
         style="fill:#231f20;fill-opacity:1;fill-rule:nonzero;stroke:none"
         d="m 4083.66,517.965 h -228.83 l 261.56,-312.617 h 244.4 l -277.13,312.617" /><path
         id="path48"
         style="fill:#231f20;fill-opacity:1;fill-rule:nonzero;stroke:none"
         d="m 3489.1,676.246 c 0,-119.355 38.41,-149.004 86.25,-158.359 h -135.01 c -63.87,0.058 -144.07,42.636 -144.07,158.379 0,115.742 80.2,158.32 144.05,158.379 h 135.03 c -47.86,-9.356 -86.25,-39.043 -86.25,-158.399" /><path
         id="path50"
         style="fill:#231f20;fill-opacity:1;fill-rule:nonzero;stroke:none"
         d="m 3676.06,361.578 c 0,117.793 -38.78,147.07 -87.11,156.289 h 136.37 c 64.5,-0.058 145.52,-42.07 145.52,-156.308 0,-114.239 -81.02,-156.25 -145.51,-156.329 h -136.38 c 48.34,9.239 87.11,38.536 87.11,156.348" /></g></g></svg>