<?xml version="1.0" encoding="UTF-8" standalone="yes"?>
<svg xmlns="http://www.w3.org/2000/svg" xmlns:xlink="http://www.w3.org/1999/xlink" width="373.3333333333333px" height="106.66666666666666px" viewBox="0 0 280 80" version="1.1">
  <g id="surface1">
    <path style=" stroke:none;fill-rule:nonzero;fill:rgb(89.411765%,35.686275%,39.607843%);fill-opacity:1;" d="M 141.855469 7.253906 C 144.507812 7.261719 147.15625 7.253906 149.808594 7.257812 C 149.835938 28.996094 149.8125 50.734375 149.820312 72.472656 C 146.007812 72.476562 142.199219 72.476562 138.386719 72.472656 C 138.40625 57.4375 138.398438 42.402344 138.394531 27.371094 C 133.289062 27.21875 128.179688 27.113281 123.074219 26.96875 C 123.09375 24.027344 123.042969 21.085938 123.101562 18.144531 C 124.929688 18.257812 126.765625 18.1875 128.589844 18.003906 C 131.058594 17.660156 133.605469 17.269531 135.804688 16.015625 C 137.84375 14.847656 139.34375 12.972656 140.671875 11.078125 C 141.324219 9.90625 141.78125 8.601562 141.855469 7.253906 Z M 141.855469 7.253906 "/>
    <path style=" stroke:none;fill-rule:nonzero;fill:rgb(57.647059%,58.039216%,58.823529%);fill-opacity:1;" d="M 98.414062 8.773438 C 102.203125 8.453125 105.980469 8.019531 109.777344 7.8125 C 109.769531 11.363281 109.773438 14.914062 109.773438 18.46875 C 113.066406 18.464844 116.363281 18.476562 119.660156 18.550781 C 119.660156 21.640625 119.660156 24.734375 119.660156 27.828125 C 116.367188 27.847656 113.074219 27.839844 109.785156 27.867188 C 109.714844 32.644531 109.847656 37.425781 109.824219 42.203125 C 109.839844 47.324219 109.867188 52.457031 110.339844 57.5625 C 110.460938 59.304688 111.347656 61.046875 112.894531 61.9375 C 114.605469 62.9375 116.671875 62.863281 118.578125 62.671875 C 119.875 62.46875 121.175781 62.292969 122.464844 62.058594 C 122.664062 64.628906 122.644531 67.210938 122.644531 69.785156 C 122.625 70.101562 122.652344 70.441406 122.511719 70.734375 C 121.546875 71.582031 120.226562 71.773438 119.011719 71.988281 C 116.824219 72.324219 114.617188 72.609375 112.40625 72.644531 C 109.625 72.378906 106.726562 71.6875 104.53125 69.863281 C 102.074219 67.898438 100.261719 65.132812 99.464844 62.089844 C 98.886719 59.5625 98.878906 56.960938 98.746094 54.386719 C 98.476562 45.523438 98.421875 36.652344 98.238281 27.785156 C 95.824219 27.800781 93.414062 27.753906 91.003906 27.816406 C 92.136719 24.703125 93.316406 21.605469 94.484375 18.503906 C 95.800781 18.46875 97.121094 18.476562 98.441406 18.449219 C 98.300781 15.226562 98.410156 11.996094 98.414062 8.773438 Z M 98.414062 8.773438 "/>
    <path style=" stroke:none;fill-rule:nonzero;fill:rgb(57.647059%,58.039216%,58.823529%);fill-opacity:1;" d="M 164.460938 9.453125 C 200.269531 9.441406 236.078125 9.460938 271.886719 9.441406 C 271.90625 30.34375 271.882812 51.242188 271.898438 72.140625 C 236.085938 72.152344 200.273438 72.144531 164.460938 72.144531 C 164.46875 51.246094 164.46875 30.351562 164.460938 9.453125 M 171.390625 15.269531 C 171.445312 20.648438 171.382812 26.027344 171.394531 31.402344 C 171.453125 39.273438 171.371094 47.144531 171.40625 55.011719 C 171.46875 58.785156 171.289062 62.558594 171.425781 66.328125 C 175.269531 66.328125 179.113281 66.332031 182.953125 66.328125 C 182.941406 58.976562 182.960938 51.628906 182.945312 44.277344 C 189.488281 44.265625 196.035156 44.277344 202.578125 44.273438 C 202.585938 51.625 202.5625 58.976562 202.59375 66.328125 C 206.441406 66.328125 210.292969 66.328125 214.140625 66.328125 C 214.136719 49.308594 214.136719 32.285156 214.140625 15.265625 C 210.292969 15.261719 206.445312 15.265625 202.597656 15.265625 C 202.554688 21.832031 202.585938 28.402344 202.582031 34.972656 C 196.039062 34.976562 189.492188 34.972656 182.949219 34.972656 C 182.953125 28.402344 182.941406 21.835938 182.957031 15.265625 C 179.101562 15.265625 175.242188 15.257812 171.390625 15.269531 M 221.074219 15.265625 C 221.078125 32.285156 221.082031 49.308594 221.074219 66.328125 C 227.578125 66.324219 234.085938 66.324219 240.589844 66.3125 C 243.46875 66.296875 246.390625 66.203125 249.179688 65.414062 C 250.660156 65.027344 252.140625 64.585938 253.515625 63.898438 C 256.738281 62.328125 259.414062 59.773438 261.375 56.792969 C 263.730469 53.207031 265.109375 49.03125 265.644531 44.789062 C 266.207031 40.460938 265.824219 36.054688 264.871094 31.808594 C 264.195312 28.78125 262.878906 25.871094 260.875 23.488281 C 258.53125 20.714844 255.65625 18.234375 252.171875 17.046875 C 248.265625 15.71875 244.097656 15.507812 240.011719 15.328125 C 233.699219 15.199219 227.386719 15.292969 221.074219 15.265625 Z M 221.074219 15.265625 "/>
    <path style=" stroke:none;fill-rule:nonzero;fill:rgb(57.647059%,58.039216%,58.823529%);fill-opacity:1;" d="M 17.683594 18.753906 C 20.300781 17.394531 23.324219 17.457031 26.195312 17.433594 C 29.300781 17.34375 32.371094 17.941406 35.390625 18.605469 C 36.636719 18.914062 37.914062 19.167969 39.101562 19.683594 C 38.777344 22.636719 38.308594 25.566406 37.863281 28.503906 C 36.503906 28.050781 35.164062 27.542969 33.792969 27.132812 C 31.195312 26.410156 28.496094 26.011719 25.800781 26.078125 C 24.585938 26.113281 23.289062 26.144531 22.230469 26.816406 C 20.925781 27.664062 19.828125 28.925781 19.425781 30.453125 C 18.789062 32.535156 19.597656 34.960938 21.371094 36.230469 C 24.742188 38.570312 28.71875 39.777344 32.324219 41.683594 C 35.460938 43.359375 38.476562 45.585938 40.253906 48.738281 C 42.015625 51.894531 42.390625 55.707031 41.714844 59.222656 C 41.035156 62.800781 38.933594 66.035156 36.078125 68.28125 C 32.710938 70.953125 28.457031 72.328125 24.203125 72.65625 C 20.980469 72.894531 17.726562 72.566406 14.601562 71.757812 C 12.941406 71.324219 11.285156 70.867188 9.625 70.429688 C 9.585938 66.957031 9.554688 63.484375 9.527344 60.011719 C 11.714844 60.757812 13.738281 61.941406 15.996094 62.488281 C 18.667969 63.183594 21.453125 63.207031 24.195312 63.140625 C 25.585938 63.09375 27.0625 62.871094 28.171875 61.957031 C 29.800781 60.605469 30.878906 58.542969 30.851562 56.402344 C 30.820312 54.9375 30.277344 53.410156 29.136719 52.449219 C 24.082031 48.742188 17.84375 47.007812 12.960938 43.035156 C 10.757812 41.292969 9.113281 38.835938 8.472656 36.089844 C 7.539062 32.339844 8.425781 28.292969 10.453125 25.050781 C 12.152344 22.28125 14.710938 20.066406 17.683594 18.753906 Z M 17.683594 18.753906 "/>
    <path style=" stroke:none;fill-rule:nonzero;fill:rgb(57.647059%,58.039216%,58.823529%);fill-opacity:1;" d="M 41.410156 18.476562 C 45.472656 18.492188 49.535156 18.488281 53.597656 18.527344 C 56.296875 26.722656 58.933594 34.945312 61.53125 43.175781 C 63.046875 47.867188 64.453125 52.597656 66.015625 57.273438 C 70.121094 44.359375 74.132812 31.414062 78.222656 18.496094 C 82.136719 18.507812 86.050781 18.484375 89.960938 18.496094 C 89.65625 19.960938 89.121094 21.363281 88.621094 22.773438 C 82.777344 39.0625 76.703125 55.269531 70.691406 71.5 C 67.207031 71.503906 63.726562 71.519531 60.242188 71.539062 C 53.972656 53.847656 47.761719 36.136719 41.410156 18.476562 Z M 41.410156 18.476562 "/>
    <path style=" stroke:none;fill-rule:nonzero;fill:rgb(57.647059%,58.039216%,58.823529%);fill-opacity:1;" d="M 232.617188 25.703125 C 235.742188 25.707031 238.867188 25.671875 241.992188 25.730469 C 243.953125 25.808594 246.046875 25.933594 247.71875 27.078125 C 250.503906 29.035156 252.613281 31.933594 253.59375 35.195312 C 255.214844 40.457031 254.53125 46.558594 251.253906 51.0625 C 250.195312 52.4375 248.949219 53.703125 247.488281 54.652344 C 245.792969 55.707031 243.730469 55.789062 241.789062 55.863281 C 238.730469 55.90625 235.675781 55.875 232.617188 55.882812 C 232.625 45.820312 232.625 35.761719 232.617188 25.703125 Z M 232.617188 25.703125 "/>
  </g>
</svg>