<?xml version="1.0" encoding="UTF-8" standalone="yes"?>
<svg xmlns="http://www.w3.org/2000/svg" xmlns:xlink="http://www.w3.org/1999/xlink" width="213.33333333333331px" height="106.66666666666666px" viewBox="0 0 160 80" version="1.1">
  <g id="surface1">
    <path style=" stroke:none;fill-rule:nonzero;fill:rgb(0%,76.078431%,95.294118%);fill-opacity:1;" d="M 134.144531 42.976562 C 143.835938 36.191406 146.078125 33.984375 146.078125 27.949219 C 146.078125 21.425781 143.324219 17.882812 136.691406 18.195312 C 132.328125 18.402344 130.511719 20.84375 129.527344 22.3125 C 128.246094 24.230469 127.34375 27.507812 127.339844 29.476562 L 127.324219 33.039062 L 117.675781 33.0625 L 117.695312 28.808594 C 117.753906 15.753906 125.476562 10.078125 137.148438 10.003906 C 148.617188 9.925781 155.039062 16.558594 155.695312 26.894531 C 156.160156 34.269531 153.535156 41.085938 143.664062 47 C 131.5 54.292969 127.316406 60.347656 128.457031 60.347656 L 156 60.359375 L 156 69.085938 L 116.3125 69.085938 C 115.386719 54.789062 124.546875 49.679688 134.144531 42.976562 Z M 134.144531 42.976562 "/>
    <path style=" stroke:none;fill-rule:nonzero;fill:rgb(57.647059%,57.647059%,57.647059%);fill-opacity:1;" d="M 9.742188 69.007812 L 4.839844 67.585938 L 4.753906 58.898438 C 4.921875 58.898438 7.085938 59.804688 8.855469 60.585938 C 11.082031 61.570312 13.542969 62.027344 16.875 62.078125 C 21.222656 62.148438 22.285156 61.652344 23.722656 59.941406 C 25.566406 57.757812 25.8125 53.53125 23.945312 51.472656 C 23.269531 50.726562 19.695312 49.117188 16 47.351562 C 8.539062 43.785156 5.582031 41.066406 4.398438 36.691406 C 2.800781 30.761719 6.132812 23.421875 12.054688 20.402344 C 14.96875 18.917969 16.167969 18.71875 22.035156 18.746094 C 25.703125 18.765625 31.59375 20.199219 31.78125 20.546875 L 31.78125 28.652344 L 28.617188 27.578125 C 27.164062 27.082031 24.195312 26.460938 21.9375 26.414062 C 18.441406 26.339844 17.714844 26.726562 16.117188 27.9375 C 13.304688 30.070312 13.132812 34.433594 15.984375 36.46875 C 16.949219 37.160156 19.921875 38.898438 22.804688 40.074219 C 31.859375 43.773438 35.660156 47.621094 35.660156 54.570312 C 35.660156 65.84375 23.414062 72.664062 9.742188 69.007812 Z M 9.742188 69.007812 "/>
    <path style=" stroke:none;fill-rule:nonzero;fill:rgb(57.647059%,57.647059%,57.647059%);fill-opacity:1;" d="M 101.347656 69.910156 C 99.902344 69.851562 97.730469 69.246094 96.023438 68.25 C 94.722656 67.492188 92.257812 65.605469 90.71875 62.230469 C 89.492188 59.53125 89.304688 57.621094 89.085938 43.78125 L 89.085938 27.335938 L 82.0625 27.347656 L 85.300781 19.78125 L 89.003906 19.671875 L 89.003906 11.171875 L 99.152344 10.246094 L 99.152344 19.710938 L 108.363281 19.792969 L 108.363281 27.367188 L 99.152344 27.398438 L 99.160156 41.488281 C 99.160156 48.683594 99.46875 55.65625 99.835938 56.984375 C 100.671875 59.992188 102.984375 61.230469 107.175781 60.65625 C 108.835938 60.429688 110.828125 60.105469 110.828125 60.105469 L 110.828125 68.070312 C 108.355469 69.648438 104.519531 70.121094 101.351562 69.910156 Z M 101.347656 69.910156 "/>
    <path style=" stroke:none;fill-rule:nonzero;fill:rgb(57.647059%,57.647059%,57.647059%);fill-opacity:1;" d="M 35.058594 19.429688 L 46.421875 19.476562 L 58.285156 56.738281 L 70.503906 19.476562 L 80.839844 19.476562 L 62.410156 68.851562 L 52.65625 68.886719 Z M 35.058594 19.429688 "/>
  </g>
</svg>