<?xml version="1.0" encoding="UTF-8" standalone="no"?>
<!-- Created with Inkscape (http://www.inkscape.org/) -->

<svg
   xmlns:dc="http://purl.org/dc/elements/1.1/"
   xmlns:cc="http://creativecommons.org/ns#"
   xmlns:rdf="http://www.w3.org/1999/02/22-rdf-syntax-ns#"
   xmlns:svg="http://www.w3.org/2000/svg"
   xmlns="http://www.w3.org/2000/svg"
   xmlns:sodipodi="http://sodipodi.sourceforge.net/DTD/sodipodi-0.dtd"
   xmlns:inkscape="http://www.inkscape.org/namespaces/inkscape"
   width="200"
   height="100"
   id="svg3911"
   version="1.1"
   inkscape:version="0.48.4 r9939"
   sodipodi:docname="SVT2_logo_2012.svg">
  <title
     id="title3930">SVT2 HD</title>
  <defs
     id="defs3913" />
  <sodipodi:namedview
     id="base"
     pagecolor="#ffffff"
     bordercolor="#666666"
     borderopacity="1.0"
     inkscape:pageopacity="0.0"
     inkscape:pageshadow="2"
     inkscape:zoom="2"
     inkscape:cx="194.57434"
     inkscape:cy="5.8570831"
     inkscape:document-units="px"
     inkscape:current-layer="layer1"
     showgrid="false"
     fit-margin-top="0"
     fit-margin-left="0"
     fit-margin-right="0"
     fit-margin-bottom="0"
     inkscape:window-width="1366"
     inkscape:window-height="705"
     inkscape:window-x="-4"
     inkscape:window-y="-4"
     inkscape:window-maximized="1" />
  <metadata
     id="metadata3916">
    <rdf:RDF>
      <cc:Work
         rdf:about="">
        <dc:format>image/svg+xml</dc:format>
        <dc:type
           rdf:resource="http://purl.org/dc/dcmitype/StillImage" />
        <dc:title>SVT2 HD</dc:title>
      </cc:Work>
    </rdf:RDF>
  </metadata>
  <g
     inkscape:label="Layer 1"
     inkscape:groupmode="layer"
     id="layer1"
     transform="translate(-373.16953,-499.89597)">
    <path
       style="fill:#00c2f3;fill-opacity:1"
       d="m 540.84978,553.615 c 12.11612,-8.47983 14.91726,-11.24031 14.91726,-18.78022 0,-8.15464 -3.44267,-12.58723 -11.7338,-12.19444 -5.45409,0.25837 -7.72625,3.31044 -8.95215,5.1455 -1.60259,2.39896 -2.73302,6.49409 -2.73584,8.95734 l -0.0222,4.44964 -12.05931,0.029 0.0241,-5.31691 c 0.0741,-16.31792 9.7289,-23.40975 24.31929,-23.50643 14.3355,-0.0949 22.36069,8.19724 23.18027,21.11776 0.5847,9.2172 -2.69954,17.73683 -15.03652,25.132 -15.20669,9.11542 -20.43532,16.6805 -19.01124,16.68188 l 34.42989,0.0165 0,10.90639 -49.61006,0 c -1.15721,-17.87237 10.29316,-24.25942 22.29031,-32.63801 z"
       id="path3843-1"
       inkscape:connector-curvature="0"
       sodipodi:nodetypes="cssscccssssccccc" />
    <g
       id="g3777">
      <path
         id="path3796"
         d="m 385.34558,586.15492 -6.12864,-1.77883 -0.10537,-10.85608 c 0.21083,0 2.9146,1.13198 5.12542,2.10799 2.78674,1.23026 5.862,1.80306 10.02632,1.86749 5.43561,0.0841 6.76156,-0.53647 8.56011,-2.67083 2.30269,-2.73265 2.61117,-8.01618 0.27956,-10.58827 -0.84628,-0.93356 -5.31573,-2.94632 -9.93211,-5.15198 -9.32721,-4.45641 -13.02484,-7.85447 -14.50138,-13.3265 -2.00005,-7.41215 2.1642,-16.58529 9.56933,-20.3582 3.64332,-1.8563 5.14222,-2.10489 12.47592,-2.06918 4.58432,0.0224 11.9467,1.81436 12.18035,2.24871 l 0,10.13106 -3.95166,-1.34378 c -1.81728,-0.61798 -5.52952,-1.39269 -8.3516,-1.45249 -4.37144,-0.0926 -5.28085,0.38815 -7.27762,1.90347 -3.51258,2.66564 -3.72818,8.12109 -0.16583,10.66643 1.20736,0.86266 4.92577,3.03495 8.52522,4.50539 11.32132,4.62499 16.07282,9.43378 16.07282,18.12032 0,14.08922 -15.30841,22.61505 -32.40086,18.04528 z"
         style="fill:#939393;fill-opacity:1"
         inkscape:connector-curvature="0"
         sodipodi:nodetypes="cccssssssscccscsssscc" />
      <path
         id="path3798"
         d="m 499.85633,587.28297 c -1.80995,-0.0741 -4.52402,-0.83097 -6.65536,-2.07206 -1.63023,-0.94926 -4.70727,-3.30651 -6.63143,-7.52893 -1.5372,-3.37325 -1.76698,-5.75803 -2.04091,-23.05974 l 0,-20.55481 -8.77972,0.0141 4.04722,-9.45883 4.62688,-0.13744 0,-10.62541 12.68855,-1.15695 0,11.83176 11.51392,0.10374 0,9.46766 -11.51385,0.0368 0.009,17.61185 c 0,8.99496 0.38245,17.71214 0.84429,19.37149 1.0462,3.75847 3.93327,5.30661 9.17655,4.58938 2.07231,-0.28348 4.56507,-0.68619 4.56507,-0.68619 l 0,9.95557 c -3.09043,1.97283 -7.88736,2.56122 -11.84614,2.29756 z"
         style="fill:#939393;fill-opacity:1"
         inkscape:connector-curvature="0"
         sodipodi:nodetypes="ccssccccccccccccscccc" />
      <path
         id="path3800"
         d="m 416.99074,524.18264 14.20438,0.0567 14.83243,46.57941 15.27385,-46.57941 12.91576,0 -23.03639,61.71921 -12.18871,0.0453 z"
         style="fill:#939393;fill-opacity:1"
         inkscape:connector-curvature="0"
         sodipodi:nodetypes="cccccccc" />
    </g>
  </g>
</svg>
