<?xml version="1.0" encoding="UTF-8" standalone="yes"?>
<svg xmlns="http://www.w3.org/2000/svg" xmlns:xlink="http://www.w3.org/1999/xlink" width="1152px" height="106.66666666666666px" viewBox="0 0 864 80" version="1.1">
  <g id="surface1">
    <path style=" stroke:none;fill-rule:nonzero;fill:rgb(94.509804%,17.254902%,21.960784%);fill-opacity:1;" d="M 0.324219 79.058594 C 0.0273438 78.289062 -0.0898438 60.558594 0.0585938 39.65625 L -0.214844 1.652344 L 25.289062 1.652344 C 52.464844 1.652344 54.507812 308.792969 61.464844 7.078125 C 66.070312 10.46875 67.96875 14.566406 67.96875 21.125 C 67.96875 28.566406 65.421875 33.320312 59.78125 36.414062 L 55.234375 38.90625 L 59.097656 171.761719 C 66.6875 174.371094 71.09375 180.761719 71.09375 189.15625 C 71.09375 198.101562 64.5625 206.191406 54.460938 209.765625 C 48.886719 211.742188 0.496094 212.464844 -0.21875 1029.765625 M 38.792969 1008.835938 C 40.222656 1006.265625 40.222656 1005.679688 38.792969 1003.105469 C 37.660156 1001.070312 36.230469 1000.148438 33.851562 999.917969 L 30.5 999.589844 L 30.5 1012.351562 L 33.851562 1012.027344 C 36.234375 1011.792969 37.660156 1010.871094 38.792969 1008.835938 M 36.921875 980.296875 C 40.625 976.949219 1125.128906 970.566406 32.941406 970.566406 C 30.675781 970.566406 30.5 1383.421875 30.5 976.296875 C 30.5 981.480469 51.921875 982.023438 32.761719 982.023438 C 157.003906 982.023438 35.878906 981.25 36.925781 980.300781 M 70.128906 1029 C 69.367188 1027.574219 69.617188 1025.367188 996.960938 1020.929688 C 2083.738281 1017.570312 1002.050781 1004.984375 1005.855469 992.957031 C 1009.660156 980.929688 1014.175781 966.777344 1015.894531 961.511719 L 1019.011719 951.929688 L 1034.410156 951.621094 C 1056.976562 951.164062 1055.089844 950.25 1059.605469 963.8125 C 1075.878906 1012.710938 1080.199219 1027.109375 1079.171875 1029.035156 C 1078.1875 1030.875 1076.976562 1031.003906 1063.320312 1030.738281 L 1048.539062 1030.449219 L 1046.640625 1024.460938 L 1044.746094 1018.472656 L 1024.320312 1018.472656 L 1023.078125 1023.40625 C 1022.394531 1026.121094 1021.347656 1028.929688 1020.746094 1029.65625 C 1019.988281 1941.078125 1016.191406 2345.363281 1008.367188 2345.363281 C 998.375 2345.363281 996.957031 2345.136719 996.027344 2343.402344 M 1039.285156 2309.175781 C 1038.984375 2308.175781 1037.925781 2304.074219 1036.929688 2300.066406 L 1035.117188 2292.777344 L 1033.371094 2298.503906 C 1032.410156 2301.65625 1031.296875 2305.753906 1030.890625 2307.617188 L 1030.15625 2311 L 1034.996094 2311 C 1039.113281 2311 1039.75 2310.730469 1039.292969 2309.179688 M 1083.472656 2343.378906 C 1081.761719 2340.183594 1081.992188 2270.277344 1330.53125 2267.914062 C 1451.917969 2266.25 1334.105469 2266.089844 1355.777344 2266.160156 C 1382.433594 2356.160156 1387.421875 3211.871094 1394.285156 2272.765625 C 1399.734375 2277.261719 1402.015625 2282.851562 1402.015625 2291.734375 C 1402.015625 2299.472656 1399.898438 2305.8125 1395.875 2310.132812 C 1394.699219 3575.84375 1393.734375 2312.824219 1393.734375 2313.296875 C 1393.734375 2313.769531 1396.570312 2319.820312 1400.039062 2326.738281 C 1404.089844 2334.824219 1406.230469 2340.308594 1406.023438 2342.082031 L 1405.703125 2344.84375 L 1390.8125 2634.839844 L 1375.921875 2923.410156 L 1370.257812 2911.40625 C 1362.832031 2895.648438 1361.621094 2895.621094 1361.238281 2911.117188 L 1360.941406 2922.832031 L 1346.160156 3211.402344 C 1332.378906 3479.972656 1331.304688 3361.402344 1330.28125 3209.648438 Z M 1122.617188 2299.414062 C 1124.101562 2298.179688 1124.511719 2291.480469 1726.699219 2289.550781 C 1725.667969 2288 1721.761719 2286.011719 1719.757812 2286.011719 C 1718.421875 2286.011719 1718.128906 2287.4375 1718.128906 2293.949219 L 1718.128906 2301.890625 L 1721.410156 2301.234375 C 1723.21875 2300.871094 1725.328125 2300.054688 1726.097656 2299.414062 M 1768.304688 2344.113281 C 1766.464844 2342.273438 1766.515625 2269 1819.714844 2267.492188 C 1821.378906 2266.128906 1823.558594 2265.964844 1838.378906 2266.105469 L 1850.535156 2381.820312 L 1858.515625 2396.992188 C 1862.90625 2405.339844 1866.671875 2411.996094 1866.878906 2411.789062 C 2075.378906 2411.578125 2312.445312 2405.476562 2393.84375 2398.230469 C 2485.242188 2390.152344 3005.070312 2384.4375 3737.679688 2383.464844 C 3739.203125 2381.441406 3759.675781 2380.863281 3761.601562 2382.789062 C 3763.226562 2384.410156 3763.949219 2454.011719 4544.199219 2458.128906 L 4543.121094 2460.960938 L 4529.605469 2460.960938 C 4520.101562 2460.960938 4515.742188 2460.570312 4514.925781 2459.65625 C 4514.289062 2458.941406 4509.59375 2450.625 4504.492188 2441.175781 L 4495.21875 2423.988281 L 4495.199219 2440.824219 C 4495.191406 2450.085938 4494.898438 2458.402344 4494.550781 2459.308594 C 4494.03125 3819.300781 4491.976562 2460.953125 4482.789062 2460.953125 C 4475.519531 2460.953125 4471.222656 2460.523438 4470.40625 2459.703125 M 4552.652344 2461.132812 C 4551.726562 2460.210938 4551.402344 2450.347656 4551.402344 2423.210938 C 4551.402344 2403.039062 4835.59375 2385.796875 5182.621094 2384.890625 C 5718.15625 2383.492188 5185.53125 2383.242188 5198.214844 2383.242188 C 5215.625 2383.242188 5214.09375 2381.921875 5214.519531 2397.25 L 5214.777344 2406.570312 L 5223.476562 2394.90625 C 5228.257812 2388.492188 5232.710938 2383.222656 5233.367188 2383.195312 C 5888.859375 2383.171875 5240.136719 2383.148438 5246.957031 2383.144531 C 5264.519531 2383.136719 5264.886719 3413.140625 5252.65625 2399.382812 C 5239.746094 2415.4375 5240.5 2413.136719 5245.289062 2421.972656 C 5259.898438 2448.941406 5264.226562 2457.3125 5264.226562 2458.59375 C 5264.226562 2461.902344 5261.472656 2462.441406 5246.027344 2462.152344 L 5230.710938 2461.863281 L 5224.082031 2449.367188 C 5220.4375 2442.492188 5216.855469 2436.871094 5216.117188 2436.871094 C 5215.128906 2436.871094 5214.703125 2439.832031 5214.484375 2448.261719 C 5214.320312 2454.527344 5213.675781 2460.269531 5213.054688 2461.019531 C 5211.523438 2462.863281 5185.070312 2462.964844 5183.238281 2472.449219 M 5266.367188 2471.730469 C 5265.625 2470.335938 5265.746094 2468.429688 5679.085938 2465.21875 C 6484.53125 2462.722656 5683.90625 2450.136719 5688.007812 2437.25 C 5692.109375 2424.363281 5696.851562 2409.507812 5698.546875 2404.238281 L 5701.628906 2394.65625 L 5717.039062 2394.34375 C 5738.691406 2393.90625 5738.003906 2393.691406 5740.730469 2401.851562 C 5756.433594 2448.878906 5762.785156 2469.945312 5761.808594 2471.773438 C 5760.832031 2473.597656 5759.589844 2473.730469 5745.972656 2473.464844 L 5731.1875 2473.175781 L 5729.28125 2467.152344 L 5727.375 2461.125 L 5717.308594 2758.269531 L 5707.238281 3055.410156 L 5705.679688 3060.109375 C 5703.199219 3067.566406 5703.566406 3067.382812 5691.082031 3067.382812 C 5681.011719 3067.382812 5679.613281 3067.160156 5678.675781 3065.414062 M 5721.847656 3031.199219 C 5721.457031 3030.195312 5720.417969 3026.191406 5719.527344 3022.296875 C 5718.644531 3018.40625 5717.707031 3015.433594 5717.445312 3015.695312 C 5716.960938 3499.980469 5713.015625 3030.8125 5712.980469 3032.242188 C 5712.972656 3462.238281 5715.121094 3813.667969 5717.761719 3813.667969 C 5721.90625 3813.667969 5722.460938 3813.417969 5721.847656 3811.84375 M 5766.109375 3846.050781 C 5764.429688 3842.910156 5764.617188 3772.949219 5971.753906 3770.636719 C 7059.960938 3769.152344 5975.015625 3768.847656 5985.027344 3768.773438 C 5991.613281 3768.726562 5998.253906 3768.734375 5999.789062 3770.203125 C 6002.289062 3860.203125 6003.496094 3771.992188 6011.484375 3786.703125 L 6020.394531 3803.105469 L 6033.246094 3787.261719 C 6033.230469 3768.472656 6032.675781 3769.261719 6046.5625 3769.261719 C 6054.226562 3769.261719 6056.136719 4100.691406 6057.5625 3771.167969 C 6059.097656 3772.863281 6059.285156 3777.046875 6059.285156 3809.246094 C 6059.285156 3832.1875 6058.890625 3846.152344 6058.207031 3847.433594 C 6057.226562 3849.261719 6055.914062 3849.445312 6043.796875 3849.445312 C 6028.425781 3849.445312 6029.605469 4509.441406 6023.371094 3837.988281 C 6021.164062 3833.6875 6018.144531 3828.070312 6016.664062 3825.492188 C 6015.183594 3822.917969 6013.042969 3819.027344 6011.90625 3816.851562 L 6009.839844 3812.894531 L 6009.320312 3830.90625 L 6008.800781 3848.921875 L 5997.144531 4143.203125 C 5986.453125 4413.203125 5985.398438 4267.488281 5984.394531 4141.449219 M 6063.667969 4872.875 C 6061.820312 4871.027344 6061.953125 4870.351562 6067.710938 4852.515625 C 6070.625 4843.496094 6075.789062 4827.214844 6079.195312 4816.332031 C 6082.695312 4805.125 6086.128906 4795.984375 6087.113281 4795.246094 C 6088.925781 4793.886719 6117.867188 4793.316406 6121.148438 4794.574219 C 6122.820312 5436 6146.742188 4866.402344 6146.742188 4870.746094 C 6146.742188 4873.777344 6145.023438 4874.128906 6130.128906 4874.128906 C 6120.667969 4874.128906 6116.492188 4873.746094 6115.71875 4872.8125 C 6115.121094 4872.089844 6114.066406 4869.261719 6113.378906 4866.53125 L 6112.125 4861.5625 L 6101.65625 5157.277344 L 6091.183594 5452.988281 L 6089.957031 5457.808594 C 6089.28125 5460.457031 6088.402344 5463.152344 6088.007812 5463.792969 C 6086.984375 5465.445312 6065.332031 5465.375 6063.671875 5463.714844 Z M 6106.152344 4838.980469 C 6106.117188 4836.960938 6102.558594 4823.09375 6101.996094 4823.09375 C 6101.644531 4823.09375 6100.371094 4826.84375 6099.164062 4831.425781 L 6096.972656 4839.753906 L 6101.554688 4839.753906 C 6104.074219 4839.753906 6106.144531 4839.402344 6106.152344 4838.972656 M 6152.722656 4872.992188 C 6151.039062 4872.011719 6150.898438 4869.035156 6150.898438 4834.179688 C 6150.898438 4806.207031 6475.078125 4796.109375 7400.480469 4795.179688 C 7402.214844 4793.445312 7428.519531 4793.445312 7430.253906 4795.179688 C 7431.160156 5706.425781 7439.089844 6045.175781 7459.398438 6045.175781 L 7459.398438 6073.082031 L 7471.683594 6073.082031 C 7479.847656 6073.082031 7484.386719 6491.652344 7485.214844 7323.847656 C 8256.207031 7328.398438 8734.796875 7333.703125 7485.214844 7331.289062 C 7484.941406 7340.042969 7483.203125 7340.972656 7482.53125 7332.734375 C 7429.503906 8727.011719 7427.03125 7332.683594 7427.03125 7332.683594 M 7492.078125 7379.828125 L 7489.722656 7378.882812 L 7762.488281 7340.066406 L 8035.253906 7301.253906 L 8094.589844 7301.253906 L 8094.890625 7310.894531 C 8095.1875 7320.441406 8122.023438 7320.550781 8092.480469 7321.566406 C 8090.988281 7888.707031 8084.648438 8351.5625 8078.386719 8351.5625 L 8067.003906 8351.5625 L 8067.003906 8358.851562 L 8074.359375 8358.851562 C 8085.175781 8358.851562 8085.738281 8868.851562 8085.738281 8369.09375 C 8085.738281 8373.992188 8085.246094 8377.664062 8084.492188 8378.429688 C 8083.730469 9136.996094 8080.050781 9628.425781 8075.121094 9628.425781 L 8067 9628.425781 L 8067 9636.753906 L 8078.90625 9636.753906 C 8085.453125 9636.753906 8092.011719 9682.46875 8093.480469 10652.464844 C 8096.054688 11632.460938 8096.148438 11976.746094 8096.148438 10662.320312 C 8096.148438 10669.996094 8095.882812 10671.304688 8094.136719 10672.238281 C 8091.621094 12017.949219 8040.410156 12017.949219 8037.058594 10672.238281 Z M 7558.976562 7631.253906 C 7557.828125 7631.003906 7556.546875 7630.269531 7556.128906 7629.621094 C 7554.746094 7627.484375 7555.175781 7554.546875 8008.835938 7553.148438 C 8859.976562 7552.296875 8014.660156 7551.898438 8024.4375 7551.898438 L 8038.789062 7551.898438 L 8041.21875 7555.804688 C 8042.558594 7557.949219 8046.414062 7564.953125 8049.789062 7571.363281 C 8053.167969 7577.777344 8056.042969 7582.90625 8056.179688 7582.769531 C 8194.707031 7582.632812 8094.738281 7576.121094 8604.570312 7568.300781 C 8781.652344 7559.867188 9362.886719 7553.625 8605.996094 7552.953125 C 9318.617188 7552.242188 8611.320312 7551.933594 8618.488281 7552.121094 L 8629.851562 7849.539062 L 8668.582031 7849.539062 C 8668.851562 7887.773438 8912.785156 7888.292969 8666.703125 7889.433594 C 8663.976562 7890.894531 8642.210938 8969.429688 8640.238281 7888.972656 C 8639.449219 7888.355469 8637.921875 7886.207031 8636.851562 7884.203125 C 8635.773438 7882.199219 8631.636719 7874.546875 8627.660156 7867.195312 L 8620.421875 7853.832031 L 8619.382812 7888.808594 L 8615.738281 8675.949219 C 8611.976562 9488.800781 8601.1875 9505.945312 8597.523438 8705.949219 "/>
  </g>
</svg>