<svg xmlns="http://www.w3.org/2000/svg" width="604.79" height="56.23" viewBox="0 0 604.7926 56.226569"><path d="m35.12 87.62c-.207-.539-.29-12.952-.185-27.583l.192-26.603h17.859c19.03 0 20.459.215 25.331 3.799 3.226 2.374 4.555 5.243 4.554 9.832-.0001 5.21-1.783 8.537-5.733 10.703l-3.183 1.745 2.705.93c5.313 1.826 8.398 6.3 8.398 12.175 0 6.262-4.571 11.926-11.645 14.428-3.905 1.381-37.789 1.889-38.29.574m27.319-14.65c1-1.8 1-2.209 0-4.01-.794-1.425-1.794-2.07-3.462-2.233l-2.346-.228v4.466 4.466l2.346-.228c1.669-.162 2.669-.807 3.462-2.233m-1.31-19.976c2.591-2.345.762-6.812-2.789-6.812-1.586 0-1.709.289-1.709 4.01 0 3.629.15 4.01 1.583 4.01.87 0 2.183-.543 2.916-1.206m23.25 34.09c-.534-.998-.357-2.543.649-5.649.761-2.352 3.564-11.164 6.229-19.583 2.665-8.419 5.827-18.325 7.03-22.01l2.182-6.707 10.783-.218c15.802-.32 14.481-.959 17.642 8.534 11.395 34.23 14.421 44.31 13.701 45.658-.688 1.286-1.538 1.377-11.1 1.19l-10.351-.202-1.327-4.191-1.327-4.191h-7.152-7.152l-.869 3.453c-.478 1.899-1.213 3.867-1.634 4.374-.53.638-3.19.921-8.668.921-6.996 0-7.988-.158-8.639-1.374m30.29-23.957c-.21-.702-.953-3.572-1.65-6.378l-1.268-5.102-1.223 4.01c-.673 2.205-1.454 5.075-1.737 6.378l-.514 2.369h3.387c2.885 0 3.331-.189 3.01-1.276m30.935 23.94c-1.197-2.236-1.037-51.17.173-52.826.85-1.163 2.502-1.277 17.677-1.226 18.667.063 22.16.662 26.965 4.624 3.816 3.146 5.414 7.06 5.414 13.278 0 5.415-1.482 9.855-4.299 12.879-.825.886-1.5 1.882-1.5 2.213 0 .331 1.987 4.566 4.415 9.41 2.837 5.66 4.335 9.498 4.191 10.74l-.224 1.933-10.428.203-10.428.202-3.964-8.403c-5.201-11.03-6.05-11.05-6.318-.203l-.206 8.2-10.351.202c-9.649.188-10.403.105-11.12-1.228zm27.411-30.776c1.039-.862 1.326-5.552.423-6.904-.724-1.084-3.458-2.478-4.861-2.478-.936 0-1.141 1-1.141 5.558v5.558l2.299-.46c1.265-.253 2.741-.826 3.28-1.274m29.555 31.29c-1.287-1.287-1.252-52.578.036-53.635 1.164-.955 2.691-1.068 13.07-.97l8.511.081 5.59 10.622c3.074 5.842 5.709 10.502 5.855 10.356.146-.146.312-4.417.369-9.49.064-5.654.428-9.655.941-10.336 1.067-1.416 15.401-1.822 16.751-.474 1.137 1.136 1.643 49.857.548 52.738l-.754 1.982h-9.465c-6.654 0-9.706-.271-10.277-.911-.446-.501-3.734-6.323-7.307-12.938l-6.495-12.03-.012 11.785c-.007 6.482-.211 12.304-.454 12.938-.365.952-1.802 1.153-8.237 1.153-5.09 0-8.098-.303-8.669-.875m57.59.0001c-.647-.647-.875-7.551-.875-26.546 0-14.12.199-26.19.442-26.825.375-.977 2.038-1.153 10.92-1.153 12.192 0 11.12-.923 11.417 9.805l.182 6.525 6.09-8.165c3.349-4.491 6.466-8.179 6.925-8.197.459-.017 4.742-.034 9.517-.036 12.298-.007 12.554.721 3.992 11.366-9.04 11.238-8.513 9.628-5.161 15.812 10.232 18.879 13.262 24.738 13.262 25.636 0 2.317-1.928 2.694-12.745 2.49l-10.725-.202-4.64-8.747c-2.552-4.811-5.062-8.747-5.577-8.747-.693 0-.991 2.073-1.145 7.975-.115 4.386-.565 8.404-1 8.929-1.072 1.291-19.595 1.362-20.878.08m58.21-.503c-.521-.974-.437-2.31.289-4.556.564-1.748 3.375-10.558 6.247-19.579 2.871-9.02 6.192-19.419 7.379-23.11l2.158-6.706 10.792-.218c15.16-.307 14.68-.457 16.588 5.254 10.997 32.919 15.444 47.667 14.76 48.946-.683 1.276-1.554 1.369-11.09 1.183l-10.351-.202-1.335-4.217-1.335-4.217-7.05.208-7.05.208-1.093 3.29c-1.735 5.22-1.478 5.092-10.222 5.092-7.05 0-8.03-.156-8.687-1.378m30.23-23.952c-.273-.702-1-3.505-1.623-6.23-.619-2.725-1.276-4.805-1.459-4.621-.339.339-3.102 10.58-3.125 11.581-.007.301 1.499.547 3.346.547 2.902 0 3.291-.173 2.861-1.276m30.994 23.944c-1.176-2.198-1.043-51.17.144-52.789.762-1.039 2.283-1.252 9.294-1.303 4.611-.033 9.262-.029 10.336.001 1.752.063 2.596 1.253 8.191 11.551l6.238 11.481.009-11.09c.011-13.155-.4-12.6 9.325-12.6 5.367 0 6.705.232 7.702 1.333 1.074 1.187 1.206 4.115 1.206 26.654 0 16.06-.276 25.836-.755 26.731-.686 1.281-1.606 1.41-10.09 1.41-10.763 0-9.938.462-14.302-8.02-1.547-3.01-3.661-6.943-4.698-8.747-1.037-1.804-2.536-4.526-3.331-6.05l-1.446-2.769-.364 12.609-.364 12.609-8.162.206c-7.486.189-8.226.087-8.929-1.228m55.51.512c-1.293-1.293-1.199-1.768 2.832-14.251 2.039-6.314 5.655-17.712 8.04-25.329 2.453-7.846 4.857-14.245 5.545-14.761 1.269-.952 21.535-1.352 23.833-.47 1.171.449 17.922 50.28 17.922 53.32 0 2.123-1.205 2.368-11.633 2.368-6.625 0-9.549-.267-10.09-.921-.42-.506-1.158-2.486-1.64-4.398l-.876-3.477-7.333.207-7.333.207-.859 3.373c-.472 1.855-1.087 3.741-1.365 4.191-.715 1.156-15.877 1.106-17.04-.056zm29.75-23.727c.024-1.413-2.516-11.12-2.91-11.12-.246 0-1.138 2.624-1.983 5.831l-1.536 5.831h3.209c1.765 0 3.214-.246 3.219-.547m32.61 23.814c-1.178-.686-1.276-2.77-1.276-27.17 0-19.58.227-26.65.875-27.299 1.214-1.214 19.633-1.214 20.847 0 .637.637.875 6.188.875 20.41v19.535h8.601c5.718 0 8.895.293 9.476.875.539.539.875 3.185.875 6.899 0 5.21-.191 6.126-1.41 6.779-1.88 1.01-37.13.976-38.863-.033m45.549.033l-1.649-.663.191-27.17.191-27.17h20.774 20.774l.21 6.75c.208 6.682.19 6.758-1.688 7.471-1.043.397-5.484.721-9.868.721h-7.971v2.551 2.551h5.15c7.574 0 7.97.357 7.97 7.169 0 3.43-.345 6-.875 6.535-.531.531-3.11.875-6.56.875h-5.686v2.916 2.916h8.335c4.584 0 9.177.32 10.205.711 1.804.686 1.87.927 1.87 6.899 0 5.372-.186 6.288-1.41 6.943-1.76.942-37.621.942-39.966 0zm46.843.176c-.802-.175-1.699-.69-1.993-1.145-.969-1.495-.666-52.55.317-53.53.596-.596 4.08-.875 10.925-.875h10.05l1.703 2.733c.937 1.503 3.638 6.405 6 10.893 2.365 4.488 4.379 8.08 4.476 7.984.097-.097.27-4.654.384-10.128.124-5.904.531-10.274 1-10.743.499-.499 3.728-.714 8.747-.582l7.956.208.191 27.12c.189 26.764.171 27.13-1.315 27.928-1.91 1.022-17.15.756-18.531-.323-.553-.433-1.621-1.935-2.373-3.338-.753-1.403-3.649-6.761-6.436-11.906l-5.067-9.355-.364 12.242-.364 12.242-2.551.551c-2.635.569-10.189.581-12.756.021" fill="#f12c38" transform="translate(-34.893-32.28)"/></svg>