<?xml version="1.0" encoding="UTF-8" standalone="yes"?>
<svg xmlns="http://www.w3.org/2000/svg" xmlns:xlink="http://www.w3.org/1999/xlink" width="296px" height="106.66666666666666px" viewBox="0 0 222 80" version="1.1">
  <g id="surface1">
    <path style=" stroke:none;fill-rule:nonzero;fill:rgb(0.392157%,13.72549%,41.568627%);fill-opacity:1;" d="M 0 0 L 221.972656 0 L 221.972656 80 L 0 80 L 0 0 M 170.773438 16.25 C 170.773438 29.386719 170.769531 42.523438 170.773438 55.660156 C 172.78125 55.660156 174.789062 55.660156 176.796875 55.660156 C 176.796875 42.523438 176.792969 29.386719 176.796875 16.25 C 174.789062 16.25 172.78125 16.25 170.773438 16.25 M 201.40625 16.253906 C 201.40625 20.992188 201.410156 25.730469 201.40625 30.464844 C 200.949219 29.792969 200.453125 29.132812 199.832031 28.601562 C 197.996094 26.984375 195.566406 26.1875 193.164062 25.960938 C 190.539062 25.695312 187.796875 26.199219 185.550781 27.625 C 183.347656 29 181.710938 31.175781 180.792969 33.589844 C 179.625 36.644531 179.394531 39.988281 179.675781 43.222656 C 179.960938 46.308594 180.878906 49.429688 182.835938 51.878906 C 184.371094 53.839844 186.597656 55.214844 189.007812 55.804688 C 191.800781 56.472656 194.839844 56.460938 197.519531 55.347656 C 199.328125 54.609375 200.851562 53.230469 201.753906 51.492188 C 201.757812 52.878906 201.75 54.269531 201.757812 55.660156 C 203.648438 55.660156 205.539062 55.660156 207.429688 55.660156 C 207.433594 42.523438 207.429688 29.386719 207.433594 16.25 C 205.421875 16.25 203.414062 16.246094 201.40625 16.253906 M 77.84375 21.007812 C 80.878906 32.558594 83.910156 44.109375 86.945312 55.660156 C 89.175781 55.660156 91.40625 55.660156 93.636719 55.660156 C 95.882812 47.234375 98.132812 38.8125 100.378906 30.386719 C 102.597656 38.808594 104.773438 47.246094 106.996094 55.667969 C 109.191406 55.652344 111.386719 55.664062 113.578125 55.660156 C 116.753906 44.105469 119.945312 32.558594 123.117188 21.003906 C 120.882812 21.007812 118.644531 21.007812 116.40625 21.003906 C 114.359375 29.4375 112.308594 37.871094 110.257812 46.304688 C 108.085938 37.878906 105.9375 29.449219 103.785156 21.019531 C 101.582031 20.992188 99.375 21.007812 97.171875 21.011719 C 94.964844 29.445312 92.738281 37.871094 90.523438 46.304688 C 88.519531 37.875 86.542969 29.4375 84.550781 21.003906 C 82.316406 21.011719 80.078125 21.003906 77.84375 21.007812 M 64.128906 21.4375 C 64.09375 23.167969 64.121094 24.902344 64.113281 26.632812 C 63.328125 26.632812 62.542969 26.632812 61.757812 26.632812 C 61.152344 28.277344 60.542969 29.917969 59.941406 31.5625 C 61.332031 31.5625 62.722656 31.5625 64.113281 31.5625 C 64.113281 35.761719 64.113281 39.960938 64.113281 44.164062 C 64.125 45.886719 64.042969 47.621094 64.3125 49.328125 C 64.5625 51.03125 65.101562 52.773438 66.285156 54.066406 C 67.6875 55.539062 69.738281 56.226562 71.734375 56.285156 C 73.484375 56.316406 75.257812 56.097656 76.917969 55.519531 C 76.898438 53.839844 76.988281 52.15625 76.84375 50.480469 C 75.570312 50.953125 74.1875 51.085938 72.835938 50.972656 C 71.925781 50.882812 71.082031 50.308594 70.703125 49.464844 C 69.976562 47.894531 70.160156 46.121094 70.136719 44.441406 C 70.136719 40.148438 70.140625 35.855469 70.132812 31.566406 C 71.878906 31.558594 73.621094 31.566406 75.363281 31.5625 C 75.363281 29.917969 75.363281 28.277344 75.363281 26.632812 C 73.621094 26.632812 71.878906 26.632812 70.136719 26.632812 C 70.132812 24.765625 70.140625 22.902344 70.136719 21.035156 C 68.132812 21.140625 66.132812 21.328125 64.128906 21.4375 M 18.558594 27.488281 C 16.765625 28.558594 15.351562 30.292969 14.785156 32.320312 C 14.226562 34.285156 14.363281 36.503906 15.445312 38.269531 C 16.640625 40.234375 18.648438 41.53125 20.699219 42.457031 C 22.507812 43.273438 24.542969 43.75 26.027344 45.144531 C 27.0625 46.078125 27.300781 47.648438 26.898438 48.941406 C 26.597656 49.882812 25.8125 50.601562 24.90625 50.953125 C 23.414062 51.542969 21.753906 51.5 20.203125 51.199219 C 18.433594 50.847656 16.710938 50.222656 15.160156 49.292969 C 15.160156 51.144531 15.171875 52.992188 15.152344 54.84375 C 16.90625 55.664062 18.832031 56.082031 20.757812 56.234375 C 23.59375 56.4375 26.582031 56.058594 29.054688 54.566406 C 30.984375 53.414062 32.429688 51.453125 32.851562 49.230469 C 33.230469 47.191406 33.078125 44.964844 32.023438 43.144531 C 30.933594 41.242188 29.042969 39.976562 27.105469 39.0625 C 25.207031 38.15625 23.0625 37.675781 21.421875 36.296875 C 20.363281 35.429688 20.15625 33.820312 20.742188 32.625 C 21.160156 31.765625 22.003906 31.171875 22.90625 30.917969 C 24.144531 30.566406 25.453125 30.71875 26.703125 30.917969 C 28.1875 31.195312 29.6875 31.625 30.949219 32.488281 C 30.949219 30.6875 30.949219 28.882812 30.949219 27.082031 C 29.105469 26.246094 27.070312 25.941406 25.0625 25.902344 C 22.808594 25.835938 20.496094 26.300781 18.558594 27.488281 M 132.601562 26.078125 C 130.734375 26.34375 128.898438 26.941406 127.289062 27.941406 C 125.394531 29.101562 123.851562 30.804688 122.824219 32.769531 C 121.410156 35.445312 120.910156 38.523438 120.964844 41.53125 C 121.027344 44.039062 121.484375 46.570312 122.566406 48.851562 C 123.722656 51.324219 125.675781 53.4375 128.117188 54.667969 C 130.277344 55.792969 132.730469 56.242188 135.152344 56.253906 C 137.335938 56.257812 139.550781 55.90625 141.5625 55.023438 C 143.515625 54.179688 145.25 52.820312 146.515625 51.105469 C 148.832031 47.988281 149.613281 43.972656 149.457031 40.152344 C 149.332031 36.554688 148.238281 32.863281 145.792969 30.152344 C 144.464844 28.667969 142.753906 27.539062 140.890625 26.847656 C 138.253906 25.875 135.371094 25.707031 132.601562 26.078125 M 163.957031 26.507812 C 161.167969 27.453125 158.734375 29.683594 157.878906 32.550781 C 157.835938 30.578125 157.871094 28.605469 157.859375 26.632812 C 155.988281 26.632812 154.121094 26.632812 152.253906 26.632812 C 152.25 36.308594 152.253906 45.984375 152.25 55.660156 C 154.257812 55.660156 156.265625 55.660156 158.273438 55.660156 C 158.277344 51.089844 158.273438 46.515625 158.273438 41.945312 C 158.238281 39.867188 158.589844 37.730469 159.582031 35.886719 C 160.472656 34.195312 162 32.8125 163.839844 32.261719 C 165.433594 31.75 167.128906 31.957031 168.753906 32.167969 C 168.773438 30.207031 168.761719 28.246094 168.761719 26.285156 C 167.167969 26.0625 165.5 25.976562 163.957031 26.507812 M 32.757812 26.636719 C 36.203125 36.3125 39.664062 45.980469 43.109375 55.660156 C 44.96875 55.660156 46.835938 55.660156 48.695312 55.660156 C 52.269531 45.984375 55.835938 36.308594 59.40625 26.632812 C 57.253906 26.632812 55.101562 26.632812 52.945312 26.632812 C 51.289062 31.902344 49.640625 37.175781 47.980469 42.445312 C 47.3125 44.382812 46.671875 46.335938 46.125 48.3125 C 45.605469 46.304688 45.011719 44.316406 44.316406 42.359375 C 42.652344 37.117188 41 31.871094 39.316406 26.628906 C 37.128906 26.636719 34.945312 26.625 32.757812 26.636719 Z M 32.757812 26.636719 "/>
    <path style=" stroke:none;fill-rule:nonzero;fill:rgb(0.392157%,13.72549%,41.568627%);fill-opacity:1;" d="M 133.699219 31.070312 C 135.664062 30.71875 137.808594 31.039062 139.464844 32.199219 C 141.003906 33.257812 142.042969 34.914062 142.632812 36.667969 C 143.367188 38.886719 143.503906 41.289062 143.105469 43.585938 C 142.75 45.578125 141.960938 47.554688 140.542969 49.023438 C 137.898438 51.851562 132.96875 51.949219 130.164062 49.308594 C 128.371094 47.625 127.488281 45.183594 127.203125 42.785156 C 126.875 39.914062 127.316406 36.855469 128.878906 34.386719 C 129.941406 32.679688 131.707031 31.414062 133.699219 31.070312 Z M 133.699219 31.070312 "/>
    <path style=" stroke:none;fill-rule:nonzero;fill:rgb(0.392157%,13.72549%,41.568627%);fill-opacity:1;" d="M 192.148438 31.078125 C 194.464844 30.644531 197.050781 31.164062 198.785156 32.835938 C 200.515625 34.460938 201.296875 36.839844 201.542969 39.152344 C 201.851562 42.011719 201.488281 45.042969 200.023438 47.558594 C 199.1875 48.96875 197.917969 50.152344 196.371094 50.726562 C 193.878906 51.644531 190.847656 51.289062 188.824219 49.492188 C 187.019531 47.890625 186.136719 45.484375 185.855469 43.132812 C 185.570312 40.289062 185.871094 37.28125 187.226562 34.722656 C 188.207031 32.847656 190.039062 31.417969 192.148438 31.078125 Z M 192.148438 31.078125 "/>
    <path style=" stroke:none;fill-rule:nonzero;fill:rgb(100%,95.294118%,0.392157%);fill-opacity:1;" d="M 170.773438 16.25 C 172.78125 16.25 174.789062 16.25 176.796875 16.25 C 176.792969 29.386719 176.796875 42.523438 176.796875 55.660156 C 174.789062 55.660156 172.78125 55.660156 170.773438 55.660156 C 170.769531 42.523438 170.773438 29.386719 170.773438 16.25 Z M 170.773438 16.25 "/>
    <path style=" stroke:none;fill-rule:nonzero;fill:rgb(100%,95.294118%,0.392157%);fill-opacity:1;" d="M 201.40625 16.253906 C 203.414062 16.246094 205.421875 16.25 207.433594 16.25 C 207.429688 29.386719 207.433594 42.523438 207.429688 55.660156 C 205.539062 55.660156 203.648438 55.660156 201.757812 55.660156 C 201.75 54.269531 201.757812 52.878906 201.753906 51.492188 C 200.851562 53.230469 199.328125 54.609375 197.519531 55.347656 C 194.839844 56.460938 191.800781 56.472656 189.007812 55.804688 C 186.597656 55.214844 184.371094 53.839844 182.835938 51.878906 C 180.878906 49.429688 179.960938 46.308594 179.675781 43.222656 C 179.394531 39.988281 179.625 36.644531 180.792969 33.589844 C 181.710938 31.175781 183.347656 29 185.550781 27.625 C 187.796875 26.199219 190.539062 25.695312 193.164062 25.960938 C 195.566406 26.1875 197.996094 26.984375 199.832031 28.601562 C 200.453125 29.132812 200.949219 29.792969 201.40625 30.464844 C 201.410156 25.730469 201.40625 20.992188 201.40625 16.253906 M 192.148438 31.078125 C 190.039062 31.417969 188.207031 32.847656 187.226562 34.722656 C 185.871094 37.28125 185.570312 40.289062 185.855469 43.132812 C 186.136719 45.484375 187.019531 47.890625 188.824219 49.492188 C 190.847656 51.289062 193.878906 51.644531 196.371094 50.726562 C 197.917969 50.152344 199.1875 48.96875 200.023438 47.558594 C 201.488281 45.042969 201.851562 42.011719 201.542969 39.152344 C 201.296875 36.839844 200.515625 34.460938 198.785156 32.835938 C 197.050781 31.164062 194.464844 30.644531 192.148438 31.078125 Z M 192.148438 31.078125 "/>
    <path style=" stroke:none;fill-rule:nonzero;fill:rgb(100%,95.294118%,0.392157%);fill-opacity:1;" d="M 77.84375 21.007812 C 80.078125 21.003906 82.316406 21.011719 84.550781 21.003906 C 86.542969 29.4375 88.519531 37.875 90.523438 46.304688 C 92.738281 37.871094 94.964844 29.445312 97.171875 21.011719 C 99.375 21.007812 101.582031 20.992188 103.785156 21.019531 C 105.9375 29.449219 108.085938 37.878906 110.257812 46.304688 C 112.308594 37.871094 114.359375 29.4375 116.40625 21.003906 C 118.644531 21.007812 120.882812 21.007812 123.117188 21.003906 C 119.945312 32.558594 116.753906 44.105469 113.578125 55.660156 C 111.386719 55.664062 109.191406 55.652344 106.996094 55.667969 C 104.773438 47.246094 102.597656 38.808594 100.378906 30.386719 C 98.132812 38.8125 95.882812 47.234375 93.636719 55.660156 C 91.40625 55.660156 89.175781 55.660156 86.945312 55.660156 C 83.910156 44.109375 80.878906 32.558594 77.84375 21.007812 Z M 77.84375 21.007812 "/>
    <path style=" stroke:none;fill-rule:nonzero;fill:rgb(100%,95.294118%,0.392157%);fill-opacity:1;" d="M 132.601562 26.078125 C 135.371094 25.707031 138.253906 25.875 140.890625 26.847656 C 142.753906 27.539062 144.464844 28.667969 145.792969 30.152344 C 148.238281 32.863281 149.332031 36.554688 149.457031 40.152344 C 149.613281 43.972656 148.832031 47.988281 146.515625 51.105469 C 145.25 52.820312 143.515625 54.179688 141.5625 55.023438 C 139.550781 55.90625 137.335938 56.257812 135.152344 56.253906 C 132.730469 56.242188 130.277344 55.792969 128.117188 54.667969 C 125.675781 53.4375 123.722656 51.324219 122.566406 48.851562 C 121.484375 46.570312 121.027344 44.039062 120.964844 41.53125 C 120.910156 38.523438 121.410156 35.445312 122.824219 32.769531 C 123.851562 30.804688 125.394531 29.101562 127.289062 27.941406 C 128.898438 26.941406 130.734375 26.34375 132.601562 26.078125 M 133.699219 31.070312 C 131.707031 31.414062 129.941406 32.679688 128.878906 34.386719 C 127.316406 36.855469 126.875 39.914062 127.203125 42.785156 C 127.488281 45.183594 128.371094 47.625 130.164062 49.308594 C 132.96875 51.949219 137.898438 51.851562 140.542969 49.023438 C 141.960938 47.554688 142.75 45.578125 143.105469 43.585938 C 143.503906 41.289062 143.367188 38.886719 142.632812 36.667969 C 142.042969 34.914062 141.003906 33.257812 139.464844 32.199219 C 137.808594 31.039062 135.664062 30.71875 133.699219 31.070312 Z M 133.699219 31.070312 "/>
    <path style=" stroke:none;fill-rule:nonzero;fill:rgb(100%,95.294118%,0.392157%);fill-opacity:1;" d="M 163.957031 26.507812 C 165.5 25.976562 167.167969 26.0625 168.761719 26.285156 C 168.761719 28.246094 168.773438 30.207031 168.753906 32.167969 C 167.128906 31.957031 165.433594 31.75 163.839844 32.261719 C 162 32.8125 160.472656 34.195312 159.582031 35.886719 C 158.589844 37.730469 158.238281 39.867188 158.273438 41.945312 C 158.273438 46.515625 158.277344 51.089844 158.273438 55.660156 C 156.265625 55.660156 154.257812 55.660156 152.25 55.660156 C 152.253906 45.984375 152.25 36.308594 152.253906 26.632812 C 154.121094 26.632812 155.988281 26.632812 157.859375 26.632812 C 157.871094 28.605469 157.835938 30.578125 157.878906 32.550781 C 158.734375 29.683594 161.167969 27.453125 163.957031 26.507812 Z M 163.957031 26.507812 "/>
    <path style=" stroke:none;fill-rule:nonzero;fill:rgb(100%,100%,100%);fill-opacity:1;" d="M 64.128906 21.4375 C 66.132812 21.328125 68.132812 21.140625 70.136719 21.035156 C 70.140625 22.902344 70.132812 24.765625 70.136719 26.632812 C 71.878906 26.632812 73.621094 26.632812 75.363281 26.632812 C 75.363281 28.277344 75.363281 29.917969 75.363281 31.5625 C 73.621094 31.566406 71.878906 31.558594 70.132812 31.566406 C 70.140625 35.855469 70.136719 40.148438 70.136719 44.441406 C 70.160156 46.121094 69.976562 47.894531 70.703125 49.464844 C 71.082031 50.308594 71.925781 50.882812 72.835938 50.972656 C 74.1875 51.085938 75.570312 50.953125 76.84375 50.480469 C 76.988281 52.15625 76.898438 53.839844 76.917969 55.519531 C 75.257812 56.097656 73.484375 56.316406 71.734375 56.285156 C 69.738281 56.226562 67.6875 55.539062 66.285156 54.066406 C 65.101562 52.773438 64.5625 51.03125 64.3125 49.328125 C 64.042969 47.621094 64.125 45.886719 64.113281 44.164062 C 64.113281 39.960938 64.113281 35.761719 64.113281 31.5625 C 62.722656 31.5625 61.332031 31.5625 59.941406 31.5625 C 60.542969 29.917969 61.152344 28.277344 61.757812 26.632812 C 62.542969 26.632812 63.328125 26.632812 64.113281 26.632812 C 64.121094 24.902344 64.09375 23.167969 64.128906 21.4375 Z M 64.128906 21.4375 "/>
    <path style=" stroke:none;fill-rule:nonzero;fill:rgb(100%,100%,100%);fill-opacity:1;" d="M 18.558594 27.488281 C 20.496094 26.300781 22.808594 25.835938 25.0625 25.902344 C 27.070312 25.941406 29.105469 26.246094 30.949219 27.082031 C 30.949219 28.882812 30.949219 30.6875 30.949219 32.488281 C 29.6875 31.625 28.1875 31.195312 26.703125 30.917969 C 25.453125 30.71875 24.144531 30.566406 22.90625 30.917969 C 22.003906 31.171875 21.160156 31.765625 20.742188 32.625 C 20.15625 33.820312 20.363281 35.429688 21.421875 36.296875 C 23.0625 37.675781 25.207031 38.15625 27.105469 39.0625 C 29.042969 39.976562 30.933594 41.242188 32.023438 43.144531 C 33.078125 44.964844 33.230469 47.191406 32.851562 49.230469 C 32.429688 51.453125 30.984375 53.414062 29.054688 54.566406 C 26.582031 56.058594 23.59375 56.4375 20.757812 56.234375 C 18.832031 56.082031 16.90625 55.664062 15.152344 54.84375 C 15.171875 52.992188 15.160156 51.144531 15.160156 49.292969 C 16.710938 50.222656 18.433594 50.847656 20.203125 51.199219 C 21.753906 51.5 23.414062 51.542969 24.90625 50.953125 C 25.8125 50.601562 26.597656 49.882812 26.898438 48.941406 C 27.300781 47.648438 27.0625 46.078125 26.027344 45.144531 C 24.542969 43.75 22.507812 43.273438 20.699219 42.457031 C 18.648438 41.53125 16.640625 40.234375 15.445312 38.269531 C 14.363281 36.503906 14.226562 34.285156 14.785156 32.320312 C 15.351562 30.292969 16.765625 28.558594 18.558594 27.488281 Z M 18.558594 27.488281 "/>
    <path style=" stroke:none;fill-rule:nonzero;fill:rgb(100%,100%,100%);fill-opacity:1;" d="M 32.757812 26.636719 C 34.945312 26.625 37.128906 26.636719 39.316406 26.628906 C 41 31.871094 42.652344 37.117188 44.316406 42.359375 C 45.011719 44.316406 45.605469 46.304688 46.125 48.3125 C 46.671875 46.335938 47.3125 44.382812 47.980469 42.445312 C 49.640625 37.175781 51.289062 31.902344 52.945312 26.632812 C 55.101562 26.632812 57.253906 26.632812 59.40625 26.632812 C 55.835938 36.308594 52.269531 45.984375 48.695312 55.660156 C 46.835938 55.660156 44.96875 55.660156 43.109375 55.660156 C 39.664062 45.980469 36.203125 36.3125 32.757812 26.636719 Z M 32.757812 26.636719 "/>
  </g>
</svg>