<?xml version="1.0" encoding="UTF-8" standalone="no"?>
<!-- Created with Inkscape (http://www.inkscape.org/) -->

<svg
   xmlns:dc="http://purl.org/dc/elements/1.1/"
   xmlns:cc="http://creativecommons.org/ns#"
   xmlns:rdf="http://www.w3.org/1999/02/22-rdf-syntax-ns#"
   xmlns:svg="http://www.w3.org/2000/svg"
   xmlns="http://www.w3.org/2000/svg"
   xmlns:sodipodi="http://sodipodi.sourceforge.net/DTD/sodipodi-0.dtd"
   xmlns:inkscape="http://www.inkscape.org/namespaces/inkscape"
   width="404"
   height="287"
   id="svg2"
   version="1.1"
   inkscape:version="0.47 r22583">
  <g
     inkscape:label="Layer 1"
     inkscape:groupmode="layer"
     id="layer1"
     transform="translate(-173.00004,-608.99554)">
    <path
       id="path8286"
       d="m 242.8162,867.76521 c 1.29629,0.11522 1.44032,0.48971 1.44032,0.9218 l 0,13.99995 c 0,4.0329 -2.39093,5.64607 -6.56787,5.64607 -4.17694,0 -6.56787,-1.61317 -6.56787,-5.64607 l 0,-13.99995 c 0,-0.43209 0.17283,-0.80658 1.46912,-0.9218 l 0,-0.63375 -10.74481,0 0,0.63375 c 1.29629,0.11522 1.46913,0.48971 1.46913,0.9218 l 0,13.99995 c 0,9.13165 6.42384,12.18513 14.37443,12.18513 7.97939,0 14.40323,-3.05348 14.40323,-12.18513 l 0,-13.99995 c 0,-0.43209 0.14404,-0.80658 1.46913,-0.9218 l 0,-0.63375 -10.74481,0 0,0.63375"
       style="fill:#3e225d;fill-rule:nonzero;stroke:none" />
    <path
       id="path8288"
       d="m 282.07942,893.66222 0,0.77778 11.49378,0 0,-0.77778 c -1.00823,-0.0576 -1.7572,-0.23045 -1.7572,-1.06584 l 0,-23.5925 c 0,-0.83538 0.74897,-1.03703 1.7572,-1.09464 l 0,-0.74897 -10.91765,0 0,0.74897 c 0.97942,0.0576 1.72838,0.25926 1.72838,1.09464 l 0,12.24275 c -5.21397,-5.64606 -11.23452,-11.81065 -11.23452,-12.24275 0,-0.83538 0.74897,-1.03703 1.29629,-1.09464 l 0,-0.74897 -14.74891,0 0,0.74897 c 0.92181,0.0576 1.67078,0.25926 1.67078,1.09464 l 0,23.5925 c 0,0.83539 -0.74897,1.00823 -1.55555,1.06584 l 0,0.77778 10.62958,0 0,-0.77778 c -0.893,-0.0576 -1.64196,-0.23045 -1.64196,-1.06584 l 0,-16.30446 0.11522,-0.11522 c 7.02878,8.20984 14.97936,15.26742 14.97936,16.70775 0,0.72016 -1.18106,0.77777 -1.8148,0.77777"
       style="fill:#3e225d;fill-rule:nonzero;stroke:none" />
    <path
       id="path8290"
       d="m 312.52785,893.66222 c -1.23867,-0.0576 -1.98764,-0.23045 -1.98764,-1.06584 l 0,-23.5925 c 0,-0.83538 0.74897,-1.03703 1.98764,-1.09464 l 0,-0.74897 -12.27155,0 0,0.74897 c 1.23868,0.0576 1.98764,0.25926 1.98764,1.09464 l 0,23.5925 c 0,0.83539 -0.74896,1.00823 -1.98764,1.06584 l 0,0.77778 12.27155,0 0,-0.77778"
       style="fill:#3e225d;fill-rule:nonzero;stroke:none" />
    <path
       id="path8292"
       d="m 338.1368,867.90924 c 0.34568,0 1.41152,0 1.41152,0.60494 0,0.54732 -4.29216,10.57197 -6.45265,15.78594 l -0.11522,0 c -0.4321,-1.84361 -5.58846,-15.1234 -5.58846,-15.78594 0,-0.60494 1.03703,-0.60494 1.52674,-0.60494 l 0,-0.74897 -11.69542,0 0,0.74897 c 0.31687,0 0.54732,0 1.06584,0.31687 0.86419,0.51852 8.78597,24.25505 8.78597,24.4855 0,0.63374 -0.74897,1.00822 -1.29629,0.95061 l 0,0.77778 13.07814,0 0,-0.77778 c -0.54733,0.0576 -1.2963,-0.31687 -1.2963,-0.95061 0,-0.46091 8.81478,-21.34559 9.62136,-23.96698 0.20165,-0.57613 0.60494,-0.77778 1.2963,-0.83539 l 0,-0.74897 -10.34153,0 0,0.74897"
       style="fill:#3e225d;fill-rule:nonzero;stroke:none" />
    <path
       id="path8294"
       d="m 381.3177,872.60469 c 0.48971,0 1.12345,0.25926 1.12345,1.49794 l 0.77778,0 0,-8.32507 -0.77778,0 c 0,1.12345 -0.63374,1.3539 -1.12345,1.3539 l -28.14392,0 0,0.77778 c 0.86419,0.0576 1.72839,0.23045 1.72839,1.09464 l 0,23.5925 c 0,0.83539 -0.8642,1.00823 -1.72839,1.06584 l 0,0.77778 27.65421,0 c 0.97942,0 1.29629,0.17284 1.72839,1.32509 l 0.66255,0 0,-8.35387 -0.77778,0 c -0.25926,1.15226 -0.893,1.58435 -1.61316,1.58435 l -17.62956,0 0,-6.13577 11.66662,0 c 0.48971,0 1.12345,0.23045 1.12345,1.38271 l 0.74897,0 0,-8.06581 -0.74897,0 c 0,1.20987 -0.63374,1.44032 -1.12345,1.44032 l -11.66662,0 0,-5.01233 18.11927,0"
       style="fill:#3e225d;fill-rule:nonzero;stroke:none" />
    <path
       id="path8296"
       d="m 407.47397,879.08615 -8.84358,0 0,-6.74071 8.38268,0 c 3.65842,0 4.69545,1.46913 4.69545,3.37035 0,2.2181 -1.67077,3.37036 -4.23455,3.37036 m 10.6872,13.39501 -5.50203,-8.38269 c 3.83126,-1.44032 6.91355,-3.88887 6.91355,-8.32507 0,-5.64606 -4.11933,-8.64194 -10.19749,-8.64194 l -19.90527,0 0,0.77778 c 0.60494,0.0576 1.3539,0.25926 1.3539,1.09464 l 0,23.5925 c 0,0.83539 -0.74896,1.00823 -1.23867,1.06584 l 0,0.77778 10.65839,0 0,-0.77778 c -0.8642,-0.0576 -1.61316,-0.23045 -1.61316,-1.06584 l 0,-8.32507 5.96294,0 c 0.48971,1.06584 4.72426,7.86417 4.72426,8.64194 0,0.57613 -0.92181,0.74897 -1.49794,0.74897 l 0,0.77778 12.53081,0 0,-0.77778 c -0.86419,0 -1.72838,-0.51851 -2.18929,-1.18106"
       style="fill:#3e225d;fill-rule:nonzero;stroke:none" />
    <path
       id="path8298"
       d="m 434.3216,875.08205 c 0,-2.73661 5.53084,-2.73661 7.05758,-2.73661 4.17694,0 8.58433,1.69958 8.58433,2.27571 0,0.28806 -0.0576,0.54732 -0.0576,0.72016 l 0.80658,0.37448 3.71603,-7.80655 -0.69135,-0.25926 c -0.31687,0.25926 -0.69136,0.74897 -1.38271,0.74897 -1.3539,0 -6.42384,-1.64197 -12.32917,-1.64197 -10.11107,0 -13.76949,5.38681 -13.76949,9.24688 0,10.45674 20.27975,5.70368 20.27975,10.60078 0,2.36213 -4.09052,2.62139 -5.61726,2.62139 -5.04113,0 -12.18513,-1.64197 -12.18513,-3.25514 0,-0.28806 0.0576,-0.4609 0.0576,-0.63374 l -0.80658,-0.34568 -2.50617,8.23865 0.66255,0.20165 c 0.4321,-0.4321 0.8642,-0.83539 1.41152,-0.83539 0.51852,0 7.46088,2.2181 13.39501,2.2181 9.53494,0 13.68307,-4.17694 13.68307,-9.07404 0,-10.80242 -20.30856,-6.251 -20.30856,-10.65839"
       style="fill:#3e225d;fill-rule:nonzero;stroke:none" />
    <path
       style="fill:#3e225d;fill-rule:nonzero;stroke:none"
       d="m 469.37907,884.44415 5.06994,-10.83123 5.21397,10.83123 z m 22.44024,8.61314 c -2.73661,-6.36623 -11.40736,-23.79415 -11.40736,-24.54311 0,-0.4321 0.20164,-0.54733 0.80658,-0.60494 l 0,-0.74897 -12.96291,0 0,0.74897 c 0.60494,0.0576 0.77777,0.17284 0.77777,0.60494 0,0.86419 -5.76129,12.96291 -10.6872,24.54311 -0.20164,0.43209 -0.74896,0.60493 -1.23867,0.60493 l 0,0.77778 9.30449,0 0,-0.77778 c -0.25926,0 -0.83539,0 -0.83539,-0.51851 0,-0.66255 1.44032,-3.13991 1.81481,-4.23456 l 14.37442,0 c 0.4321,1.09465 1.81481,3.57201 1.81481,4.23456 0,0.51851 -0.57613,0.51851 -0.83539,0.51851 l 0,0.77778 10.31272,0 0,-0.77778 c -0.48971,0 -1.06584,-0.17284 -1.23868,-0.60493"
       id="path8302" />
    <path
       style="fill:#3e225d;fill-rule:nonzero;stroke:none"
       d="m 525.6093,886.57583 c 0,1.26749 -0.54733,1.52674 -1.15226,1.52674 l -16.9382,0 0,-19.12749 c 0,-0.80658 0.74896,-1.00823 1.58435,-1.06584 l 0,-0.77778 -11.5802,0 0,0.77778 c 0.92181,0.0576 1.67078,0.25926 1.67078,1.06584 l 0,23.6213 c 0,0.83539 -0.74897,1.00823 -1.67078,1.06584 l 0,0.77778 26.93405,0 c 0.60493,0 1.15226,0.23045 1.15226,1.55555 l 0.72016,0 0,-9.41972 -0.72016,0"
       id="path8304" />
    <path
       style="fill:#3e225d;fill-rule:evenodd;stroke:none"
       d="m 467.65068,668.30922 -34.71179,0 0,-3.80245 c -0.0288,-2.30452 0.0864,-4.78188 0.48971,-7.02878 0.28806,-1.67077 0.74897,-3.1399 1.26748,-4.23455 0.8642,-1.67078 1.46913,-2.50616 3.37036,-3.65842 1.90123,-1.09465 5.7901,-2.56378 13.51023,-2.59258 l 23.67892,0 0,-37.99574 -23.67892,0 c -11.23452,0 -21.11514,1.98765 -29.52663,6.10698 -6.251,3.05348 -11.52258,7.31684 -15.44026,12.0411 -5.90533,7.144 -8.75717,14.95056 -10.16869,21.51843 -1.41151,6.56788 -1.49793,12.24275 -1.49793,15.84356 l 0,102.66625 37.99573,0 0,-62.94213 34.71179,0 z m 58.21788,158.46438 c 33.4155,-0.0576 51.07386,-24.48549 51.13148,-47.44425 l 0,-111.02013 -35.69122,0 0,55.27961 c 0,2.50617 -0.34568,5.96294 -3.05348,8.95882 -2.679,2.93826 -6.13578,5.15635 -11.86827,5.15635 -5.93413,0.0288 -10.16868,-2.18929 -12.30036,-5.18516 -2.16048,-2.99587 -2.56378,-6.42384 -2.59258,-8.93001 l 0,-55.27961 -36.23854,0 0,56.05739 c 0.0576,23.39085 17.3415,47.38664 46.37841,47.44425 5.67488,0 11.29214,-1.15226 16.79418,-3.34155 l 2.62138,-1.03703 0,2.82303 -0.0288,8.15223 c 0,1.69958 -0.0288,4.06172 -1.81481,7.20162 -1.786,3.19752 -5.70368,6.30862 -12.27156,6.251 -5.96293,0.0288 -9.76539,-2.59258 -11.81065,-5.30039 -2.04526,-2.679 -2.50616,-5.30039 -2.56377,-5.67487 l -36.64183,-0.14403 0.72016,5.84771 c 4.26336,20.0205 22.49785,40.21383 49.23026,40.18502 m -189.77702,0 c 33.41551,-0.0576 51.07387,-24.48549 51.13149,-47.44425 l 0,-111.02013 -35.69122,0 0,55.27961 c 0,2.50617 -0.17284,5.87652 -3.05348,8.95882 -2.70781,2.90945 -6.13578,5.15635 -11.83946,5.15635 -5.96294,0.0288 -10.19749,-2.18929 -12.32917,-5.18516 -2.16049,-2.99587 -2.56378,-6.42384 -2.56378,-8.93001 l 0,-55.27961 -36.23853,0 0,56.05739 c 0.0288,23.39085 17.31268,47.38664 46.37841,47.44425 5.67487,0 11.29214,-1.15226 16.76536,-3.34155 l 2.62139,-1.03703 0,2.82303 0,8.15223 c 0,1.67078 -0.0288,4.06172 -1.84361,7.20162 -1.7572,3.19752 -5.67488,6.30862 -12.27156,6.251 -5.93413,0.0288 -9.76539,-2.59258 -11.78184,-5.30039 -2.07407,-2.679 -2.53497,-5.30039 -2.59258,-5.67487 l -36.64183,-0.14403 0.72016,5.84771 c 4.26336,20.0205 22.52666,40.21383 49.23025,40.18502 M 173.04694,720.70819 c 0,0 0.0288,-3.1111 0.14403,-4.95471 l 0.0576,-0.51852 35.83525,0.60493 -0.11523,2.1893 c -0.0288,6.42384 3.86007,12.53081 7.31684,15.06578 3.39917,2.50616 8.32507,3.34155 11.29214,3.34155 7.69133,0 14.6913,-4.69546 14.77772,-11.89707 l 0,-0.66255 c -0.25926,-5.61726 -3.83126,-8.69955 -8.9012,-11.09049 -4.58023,-2.16049 -12.41559,-5.47323 -20.9135,-9.67897 -8.4691,-4.20575 -17.65836,-9.3333 -24.88879,-15.03698 -10.45674,-8.26746 -15.181,-18.95466 -14.60487,-33.78999 0.48971,-12.61723 5.99174,-23.50608 16.24684,-32.49369 10.28391,-9.01643 22.92995,-12.61724 36.32496,-12.61724 17.05343,0 31.28382,6.88475 40.70354,18.06166 9.56375,11.75304 11.37855,22.84353 11.81065,31.05337 l 0.0576,1.55555 -37.21795,0 -0.0576,-0.48971 c -0.34567,-3.34155 -2.13167,-7.92178 -4.32097,-10.42794 -2.56377,-2.93826 -6.51026,-4.86829 -11.43616,-4.86829 -2.85184,0.0288 -6.19339,0.86419 -8.98762,2.65019 -2.79423,1.7572 -5.06994,4.63784 -5.06994,8.4403 -0.0288,4.09051 1.87242,7.31684 7.17281,9.99584 5.18516,2.679 20.79827,9.59255 23.01637,10.45675 22.2962,8.67075 36.41137,22.75711 37.99573,43.98748 0.0576,0.4609 0.0576,0.95061 0.0576,1.49793 0.0288,7.17281 -2.13168,19.5884 -10.37033,30.41963 -8.23865,10.86004 -22.52665,20.33737 -41.22205,20.33737 -36.98751,-0.14403 -54.61707,-26.99166 -54.70348,-51.13148"
       id="path8306" />
  </g>
</svg>
