<?xml version="1.0" encoding="UTF-8" standalone="yes"?>
<svg xmlns="http://www.w3.org/2000/svg" xmlns:xlink="http://www.w3.org/1999/xlink" width="149.33333333333331px" height="106.66666666666666px" viewBox="0 0 112 80" version="1.1">
  <g id="surface1">
    <path style=" stroke:none;fill-rule:nonzero;fill:rgb(24.313725%,13.333333%,36.470588%);fill-opacity:1;" d="M 19.355469 72.132812 C 19.714844 72.164062 19.753906 72.265625 19.753906 72.386719 L 19.753906 76.289062 C 19.753906 77.414062 19.089844 77.863281 17.933594 77.863281 C 16.777344 77.863281 16.113281 77.414062 16.113281 76.289062 L 16.113281 72.386719 C 16.113281 72.265625 16.160156 72.164062 16.519531 72.132812 L 16.519531 71.953125 L 13.542969 71.953125 L 13.542969 72.132812 C 13.902344 72.164062 13.949219 72.265625 13.949219 72.386719 L 13.949219 76.289062 C 13.949219 78.835938 15.730469 79.6875 17.933594 79.6875 C 20.144531 79.6875 21.925781 78.835938 21.925781 76.289062 L 21.925781 72.386719 C 21.925781 72.265625 21.964844 72.164062 22.332031 72.132812 L 22.332031 71.953125 L 19.355469 71.953125 L 19.355469 72.132812 "/>
    <path style=" stroke:none;fill-rule:nonzero;fill:rgb(24.313725%,13.333333%,36.470588%);fill-opacity:1;" d="M 30.238281 79.347656 L 30.238281 79.566406 L 33.425781 79.566406 L 33.425781 79.347656 C 33.148438 79.332031 32.9375 79.285156 32.9375 79.050781 L 32.9375 72.476562 C 32.9375 72.242188 33.148438 72.1875 33.425781 72.171875 L 33.425781 71.960938 L 30.398438 71.960938 L 30.398438 72.171875 C 30.671875 72.1875 30.878906 72.242188 30.878906 72.476562 L 30.878906 75.890625 C 29.433594 74.316406 27.765625 72.597656 27.765625 72.476562 C 27.765625 72.242188 27.972656 72.1875 28.125 72.171875 L 28.125 71.960938 L 24.035156 71.960938 L 24.035156 72.171875 C 24.289062 72.1875 24.496094 72.242188 24.496094 72.476562 L 24.496094 79.050781 C 24.496094 79.285156 24.289062 79.332031 24.066406 79.347656 L 24.066406 79.566406 L 27.011719 79.566406 L 27.011719 79.347656 C 26.765625 79.332031 26.558594 79.285156 26.558594 79.050781 L 26.558594 74.507812 L 26.589844 74.476562 C 28.539062 76.765625 30.742188 78.730469 30.742188 79.132812 C 30.742188 79.332031 30.414062 79.347656 30.238281 79.347656 "/>
    <path style=" stroke:none;fill-rule:nonzero;fill:rgb(24.313725%,13.333333%,36.470588%);fill-opacity:1;" d="M 38.679688 79.347656 C 38.335938 79.332031 38.128906 79.285156 38.128906 79.050781 L 38.128906 72.476562 C 38.128906 72.242188 38.335938 72.1875 38.679688 72.171875 L 38.679688 71.960938 L 35.277344 71.960938 L 35.277344 72.171875 C 35.621094 72.1875 35.828125 72.242188 35.828125 72.476562 L 35.828125 79.050781 C 35.828125 79.285156 35.621094 79.332031 35.277344 79.347656 L 35.277344 79.566406 L 38.679688 79.566406 L 38.679688 79.347656 "/>
    <path style=" stroke:none;fill-rule:nonzero;fill:rgb(24.313725%,13.333333%,36.470588%);fill-opacity:1;" d="M 45.78125 72.171875 C 45.875 72.171875 46.171875 72.171875 46.171875 72.339844 C 46.171875 72.492188 44.980469 75.285156 44.382812 76.738281 L 44.351562 76.738281 C 44.230469 76.226562 42.800781 72.523438 42.800781 72.339844 C 42.800781 72.171875 43.089844 72.171875 43.226562 72.171875 L 43.226562 71.960938 L 39.984375 71.960938 L 39.984375 72.171875 C 40.070312 72.171875 40.132812 72.171875 40.277344 72.257812 C 40.519531 72.402344 42.714844 79.019531 42.714844 79.085938 C 42.714844 79.261719 42.507812 79.367188 42.355469 79.347656 L 42.355469 79.566406 L 45.980469 79.566406 L 45.980469 79.347656 C 45.828125 79.367188 45.621094 79.261719 45.621094 79.085938 C 45.621094 78.957031 48.066406 73.132812 48.289062 72.402344 C 48.34375 72.242188 48.457031 72.1875 48.648438 72.171875 L 48.648438 71.960938 L 45.78125 71.960938 L 45.78125 72.171875 "/>
    <path style=" stroke:none;fill-rule:nonzero;fill:rgb(24.313725%,13.333333%,36.470588%);fill-opacity:1;" d="M 57.75 73.480469 C 57.886719 73.480469 58.0625 73.550781 58.0625 73.898438 L 58.277344 73.898438 L 58.277344 71.578125 L 58.0625 71.578125 C 58.0625 71.890625 57.886719 71.953125 57.75 71.953125 L 49.949219 71.953125 L 49.949219 72.171875 C 50.1875 72.1875 50.429688 72.234375 50.429688 72.476562 L 50.429688 79.050781 C 50.429688 79.285156 50.1875 79.332031 49.949219 79.347656 L 49.949219 79.566406 L 57.617188 79.566406 C 57.886719 79.566406 57.976562 79.613281 58.09375 79.9375 L 58.277344 79.9375 L 58.277344 77.605469 L 58.0625 77.605469 C 57.992188 77.929688 57.816406 78.046875 57.617188 78.046875 L 52.726562 78.046875 L 52.726562 76.339844 L 55.960938 76.339844 C 56.097656 76.339844 56.273438 76.402344 56.273438 76.722656 L 56.480469 76.722656 L 56.480469 74.476562 L 56.273438 74.476562 C 56.273438 74.8125 56.097656 74.878906 55.960938 74.878906 L 52.726562 74.878906 L 52.726562 73.480469 L 57.75 73.480469 "/>
    <path style=" stroke:none;fill-rule:nonzero;fill:rgb(24.313725%,13.333333%,36.470588%);fill-opacity:1;" d="M 65.003906 75.285156 L 62.550781 75.285156 L 62.550781 73.40625 L 64.875 73.40625 C 65.890625 73.40625 66.175781 73.816406 66.175781 74.347656 C 66.175781 74.964844 65.714844 75.285156 65.003906 75.285156 M 67.964844 79.019531 L 66.441406 76.683594 C 67.503906 76.28125 68.355469 75.601562 68.355469 74.363281 C 68.355469 72.789062 67.214844 71.953125 65.53125 71.953125 L 60.011719 71.953125 L 60.011719 72.171875 C 60.179688 72.1875 60.386719 72.242188 60.386719 72.476562 L 60.386719 79.050781 C 60.386719 79.285156 60.179688 79.332031 60.042969 79.347656 L 60.042969 79.566406 L 63 79.566406 L 63 79.347656 C 62.757812 79.332031 62.550781 79.285156 62.550781 79.050781 L 62.550781 76.730469 L 64.203125 76.730469 C 64.339844 77.027344 65.515625 78.925781 65.515625 79.140625 C 65.515625 79.300781 65.257812 79.347656 65.097656 79.347656 L 65.097656 79.566406 L 68.574219 79.566406 L 68.574219 79.347656 C 68.332031 79.347656 68.09375 79.203125 67.964844 79.019531 "/>
    <path style=" stroke:none;fill-rule:nonzero;fill:rgb(24.313725%,13.333333%,36.470588%);fill-opacity:1;" d="M 72.445312 74.171875 C 72.445312 73.40625 73.980469 73.40625 74.402344 73.40625 C 75.558594 73.40625 76.78125 73.882812 76.78125 74.042969 C 76.78125 74.121094 76.765625 74.195312 76.765625 74.242188 L 76.988281 74.347656 L 78.019531 72.171875 L 77.828125 72.097656 C 77.742188 72.171875 77.636719 72.308594 77.445312 72.308594 C 77.070312 72.308594 75.664062 71.851562 74.027344 71.851562 C 71.222656 71.851562 70.210938 73.351562 70.210938 74.425781 C 70.210938 77.34375 75.832031 76.015625 75.832031 77.382812 C 75.832031 78.039062 74.699219 78.113281 74.273438 78.113281 C 72.875 78.113281 70.894531 77.65625 70.894531 77.207031 C 70.894531 77.125 70.914062 77.078125 70.914062 77.027344 L 70.6875 76.933594 L 69.992188 79.230469 L 70.175781 79.285156 C 70.296875 79.164062 70.417969 79.050781 70.570312 79.050781 C 70.710938 79.050781 72.636719 79.671875 74.28125 79.671875 C 76.925781 79.671875 78.074219 78.507812 78.074219 77.140625 C 78.074219 74.128906 72.445312 75.398438 72.445312 74.171875 "/>
    <path style=" stroke:none;fill-rule:nonzero;fill:rgb(24.313725%,13.333333%,36.470588%);fill-opacity:1;" d="M 82.164062 76.78125 L 83.570312 73.761719 L 85.015625 76.78125 Z M 88.386719 79.179688 C 87.625 77.40625 85.222656 72.546875 85.222656 72.339844 C 85.222656 72.21875 85.277344 72.1875 85.445312 72.171875 L 85.445312 71.960938 L 81.851562 71.960938 L 81.851562 72.171875 C 82.019531 72.1875 82.070312 72.21875 82.070312 72.339844 C 82.070312 72.582031 80.472656 75.953125 79.105469 79.179688 C 79.050781 79.300781 78.898438 79.347656 78.761719 79.347656 L 78.761719 79.566406 L 81.34375 79.566406 L 81.34375 79.347656 C 81.269531 79.347656 81.109375 79.347656 81.109375 79.203125 C 81.109375 79.019531 81.507812 78.328125 81.613281 78.023438 L 85.597656 78.023438 C 85.71875 78.328125 86.101562 79.019531 86.101562 79.203125 C 86.101562 79.347656 85.941406 79.347656 85.871094 79.347656 L 85.871094 79.566406 L 88.730469 79.566406 L 88.730469 79.347656 C 88.59375 79.347656 88.433594 79.300781 88.386719 79.179688 "/>
    <path style=" stroke:none;fill-rule:nonzero;fill:rgb(24.313725%,13.333333%,36.470588%);fill-opacity:1;" d="M 97.753906 77.375 C 97.753906 77.726562 97.601562 77.800781 97.433594 77.800781 L 92.738281 77.800781 L 92.738281 72.46875 C 92.738281 72.242188 92.945312 72.1875 93.175781 72.171875 L 93.175781 71.953125 L 89.964844 71.953125 L 89.964844 72.171875 C 90.222656 72.1875 90.429688 72.242188 90.429688 72.46875 L 90.429688 79.050781 C 90.429688 79.285156 90.222656 79.332031 89.964844 79.347656 L 89.964844 79.566406 L 97.433594 79.566406 C 97.601562 79.566406 97.753906 79.628906 97.753906 80 L 97.953125 80 L 97.953125 77.375 L 97.753906 77.375 "/>
    <path style=" stroke:none;fill-rule:evenodd;fill:rgb(24.313725%,13.333333%,36.470588%);fill-opacity:1;" d="M 81.683594 16.535156 L 72.0625 16.535156 L 72.0625 15.472656 C 72.054688 14.832031 72.085938 14.140625 72.199219 13.515625 C 72.277344 13.046875 72.40625 12.640625 72.550781 12.332031 C 72.789062 11.867188 72.957031 11.636719 73.484375 11.3125 C 74.011719 11.007812 75.089844 10.597656 77.230469 10.589844 L 83.792969 10.589844 L 83.792969 0 L 77.230469 0 C 74.113281 0 71.375 0.554688 69.042969 1.703125 C 67.3125 2.554688 65.847656 3.742188 64.761719 5.058594 C 63.125 7.050781 62.335938 9.226562 61.945312 11.058594 C 61.554688 12.886719 61.527344 14.46875 61.527344 15.472656 L 61.527344 44.089844 L 72.0625 44.089844 L 72.0625 26.546875 L 81.683594 26.546875 Z M 97.824219 60.703125 C 107.089844 60.6875 111.984375 53.878906 112 47.480469 L 112 16.535156 L 102.105469 16.535156 L 102.105469 31.941406 C 102.105469 32.640625 102.007812 33.605469 101.257812 34.441406 C 100.515625 35.257812 99.558594 35.875 97.96875 35.875 C 96.324219 35.886719 95.148438 35.265625 94.558594 34.429688 C 93.960938 33.597656 93.847656 32.640625 93.839844 31.941406 L 93.839844 16.535156 L 83.792969 16.535156 L 83.792969 32.160156 C 83.808594 38.679688 88.601562 45.367188 96.652344 45.382812 C 98.222656 45.382812 99.78125 45.0625 101.308594 44.453125 L 102.035156 44.164062 L 102.035156 44.949219 L 102.027344 47.222656 C 102.027344 47.695312 102.015625 48.355469 101.523438 49.230469 C 101.027344 50.121094 99.941406 50.988281 98.121094 50.972656 C 96.46875 50.980469 95.414062 50.25 94.847656 49.496094 C 94.277344 48.75 94.152344 48.019531 94.136719 47.914062 L 83.976562 47.875 L 84.175781 49.503906 C 85.359375 55.082031 90.414062 60.710938 97.824219 60.703125 M 45.214844 60.703125 C 54.476562 60.6875 59.371094 53.878906 59.386719 47.480469 L 59.386719 16.535156 L 49.492188 16.535156 L 49.492188 31.941406 C 49.492188 32.640625 49.445312 33.582031 48.648438 34.441406 C 47.898438 35.25 46.945312 35.875 45.363281 35.875 C 43.710938 35.886719 42.539062 35.265625 41.945312 34.429688 C 41.347656 33.597656 41.238281 32.640625 41.238281 31.941406 L 41.238281 16.535156 L 31.191406 16.535156 L 31.191406 32.160156 C 31.199219 38.679688 35.988281 45.367188 44.046875 45.382812 C 45.621094 45.382812 47.179688 45.0625 48.695312 44.453125 L 49.421875 44.164062 L 49.421875 47.222656 C 49.421875 47.6875 49.414062 48.355469 48.910156 49.230469 C 48.425781 50.121094 47.335938 50.988281 45.507812 50.972656 C 43.863281 50.980469 42.800781 50.25 42.242188 49.496094 C 41.667969 48.75 41.539062 48.019531 41.523438 47.914062 L 31.367188 47.875 L 31.566406 49.503906 C 32.746094 55.082031 37.808594 60.710938 45.214844 60.703125 M 0.0117188 31.140625 C 0.0117188 31.140625 0.0195312 30.273438 0.0546875 29.757812 L 0.0703125 29.613281 L 10.003906 29.78125 L 9.972656 30.394531 C 9.964844 32.183594 11.042969 33.886719 12 34.59375 C 12.941406 35.289062 14.308594 35.523438 15.128906 35.523438 C 17.261719 35.523438 19.203125 34.214844 19.226562 32.207031 L 19.226562 32.023438 C 19.15625 30.457031 18.164062 29.597656 16.757812 28.929688 C 15.488281 28.328125 13.316406 27.40625 10.960938 26.234375 C 8.613281 25.0625 6.066406 23.632812 4.0625 22.042969 C 1.164062 19.738281 -0.148438 16.757812 0.0117188 12.621094 C 0.148438 9.105469 1.675781 6.070312 4.515625 3.566406 C 7.367188 1.050781 10.875 0.046875 14.585938 0.046875 C 19.316406 0.046875 23.261719 1.96875 25.871094 5.082031 C 28.523438 8.359375 29.027344 11.449219 29.144531 13.738281 L 29.160156 14.171875 L 18.84375 14.171875 L 18.828125 14.035156 C 18.730469 13.105469 18.238281 11.828125 17.628906 11.128906 C 16.917969 10.308594 15.824219 9.773438 14.460938 9.773438 C 13.667969 9.78125 12.742188 10.011719 11.96875 10.511719 C 11.191406 11 10.5625 11.804688 10.5625 12.863281 C 10.554688 14.003906 11.082031 14.902344 12.550781 15.648438 C 13.988281 16.398438 18.316406 18.324219 18.933594 18.566406 C 25.113281 20.980469 29.027344 24.910156 29.464844 30.828125 C 29.480469 30.953125 29.480469 31.089844 29.480469 31.242188 C 29.488281 33.242188 28.890625 36.703125 26.605469 39.722656 C 24.320312 42.75 20.359375 45.390625 15.179688 45.390625 C 4.925781 45.351562 0.0351562 37.867188 0.0117188 31.140625 "/>
  </g>
</svg>