<?xml version="1.0" encoding="UTF-8" standalone="yes"?>
<svg xmlns="http://www.w3.org/2000/svg" xmlns:xlink="http://www.w3.org/1999/xlink" width="293.3333333333333px" height="106.66666666666666px" viewBox="0 0 220 80" version="1.1">
  <defs>
    <clipPath id="clip1">
      <path d="M 0.199219 0.199219 L 79.804688 0.199219 L 79.804688 79.800781 L 0.199219 79.800781 Z M 0.199219 0.199219 "/>
    </clipPath>
  </defs>
  <g id="surface1">
    <g clip-path="url(#clip1)" clip-rule="nonzero">
      <path style=" stroke:none;fill-rule:nonzero;fill:rgb(0%,0%,0%);fill-opacity:1;" d="M 79.800781 3.890625 L 79.800781 76.105469 C 79.800781 78.078125 78.097656 79.800781 76.226562 79.800781 L 3.9375 79.800781 C 1.90625 79.800781 0.199219 78.078125 0.199219 76.105469 L 0.199219 3.890625 C 0.199219 1.839844 1.90625 0.199219 3.9375 0.199219 L 76.226562 0.199219 C 78.097656 0.199219 79.800781 1.839844 79.800781 3.890625 "/>
    </g>
    <path style=" stroke:none;fill-rule:nonzero;fill:rgb(100%,100%,100%);fill-opacity:1;" d="M 32.792969 30.417969 C 32.792969 29.433594 32.15625 28.800781 31.171875 28.800781 L 29.890625 28.800781 C 28.78125 28.800781 28.28125 29.351562 27.90625 31.003906 L 24.277344 46.777344 L 23.46875 46.777344 C 22.246094 46.777344 21.730469 46.46875 21.296875 44.738281 L 17.671875 30.988281 L 17.632812 30.84375 C 17.351562 29.789062 17.09375 28.800781 15.839844 28.800781 L 14.480469 28.800781 C 13.386719 28.800781 12.785156 29.371094 12.785156 30.417969 C 12.785156 31.050781 12.957031 31.996094 13.328125 33.398438 L 17.183594 47.144531 C 17.871094 49.734375 19.28125 50.847656 21.886719 50.847656 L 23.429688 50.847656 C 23.265625 51.710938 22.917969 53.484375 22.699219 54.160156 C 21.992188 56.363281 20.898438 56.820312 19.011719 56.820312 C 17.453125 56.820312 16.433594 56.703125 15.6875 56.617188 C 15.238281 56.566406 14.882812 56.523438 14.554688 56.523438 C 13.667969 56.523438 13.160156 57.058594 13.160156 57.992188 L 13.160156 58.894531 C 13.160156 59.933594 13.695312 60.25 14.234375 60.480469 C 15.152344 60.894531 16.304688 61.121094 19.769531 61.121094 C 23.242188 61.121094 25.820312 59.257812 26.660156 56.132812 C 28.1875 50.46875 32.289062 33.253906 32.324219 33.085938 C 32.324219 33.085938 32.792969 31.265625 32.792969 30.417969 "/>
    <path style=" stroke:none;fill-rule:nonzero;fill:rgb(100%,100%,100%);fill-opacity:1;" d="M 43.070312 20.75 C 43.070312 18.972656 42.886719 17.238281 40.695312 17.238281 L 37.445312 17.238281 C 36.859375 17.238281 35.300781 17.238281 35.300781 18.78125 L 35.300781 20.21875 C 35.300781 20.828125 35.597656 21.835938 37.597656 21.835938 L 38.394531 21.835938 L 38.394531 48.847656 C 38.394531 50.292969 38.6875 51.074219 40.242188 51.074219 L 41.296875 51.074219 C 42.769531 51.074219 43.070312 50.183594 43.070312 48.847656 Z M 43.070312 20.75 "/>
    <path style=" stroke:none;fill-rule:nonzero;fill:rgb(100%,100%,100%);fill-opacity:1;" d="M 63.222656 37.589844 L 53.371094 37.597656 C 53.523438 33.539062 55.0625 31.804688 58.453125 31.804688 C 61.792969 31.800781 63.121094 33.777344 63.222656 37.589844 M 67.515625 38.566406 C 67.515625 34.15625 66.503906 28.191406 58.371094 28.191406 C 51.558594 28.191406 48.519531 31.910156 48.519531 40.238281 C 48.519531 48.355469 51.355469 51.375 58.976562 51.375 C 62.378906 51.375 64.609375 50.910156 65.484375 50.511719 C 66.03125 50.277344 66.558594 49.964844 66.558594 48.921875 L 66.558594 48.09375 C 66.558594 47.160156 66.058594 46.625 65.171875 46.625 C 64.863281 46.625 64.542969 46.691406 64.140625 46.769531 C 63.359375 46.921875 62.175781 47.15625 59.882812 47.15625 C 54.160156 47.15625 53.449219 46.121094 53.28125 41.402344 L 64.085938 41.402344 C 66.6875 41.402344 67.515625 40.269531 67.515625 38.566406 "/>
    <path style=" stroke:none;fill-rule:nonzero;fill:rgb(0%,0%,0%);fill-opacity:1;" d="M 95.476562 29.984375 L 95.476562 26.789062 L 116.160156 26.789062 L 116.160156 29.984375 L 107.617188 29.984375 L 107.617188 53.269531 L 103.902344 53.269531 L 103.902344 29.984375 Z M 95.476562 29.984375 "/>
    <path style=" stroke:none;fill-rule:nonzero;fill:rgb(0%,0%,0%);fill-opacity:1;" d="M 120.09375 53.265625 L 120.09375 26.789062 L 136.953125 26.789062 L 136.953125 29.980469 L 123.699219 29.980469 L 123.699219 38.5625 L 135.246094 38.5625 L 135.246094 41.605469 L 123.699219 41.605469 L 123.699219 50.074219 L 137.324219 50.074219 L 137.324219 53.265625 Z M 120.09375 53.265625 "/>
    <path style=" stroke:none;fill-rule:nonzero;fill:rgb(0%,0%,0%);fill-opacity:1;" d="M 142.375 53.265625 L 142.375 26.789062 L 159.234375 26.789062 L 159.234375 29.980469 L 145.980469 29.980469 L 145.980469 38.5625 L 157.527344 38.5625 L 157.527344 41.605469 L 145.980469 41.605469 L 145.980469 50.074219 L 159.605469 50.074219 L 159.605469 53.265625 Z M 142.375 53.265625 "/>
    <path style=" stroke:none;fill-rule:nonzero;fill:rgb(0%,0%,0%);fill-opacity:1;" d="M 165.550781 26.789062 L 170.226562 26.789062 L 178.582031 47.878906 L 186.640625 26.789062 L 191.132812 26.789062 L 192.246094 53.265625 L 188.570312 53.265625 L 187.867188 33.027344 L 179.882812 53.230469 L 176.988281 53.230469 L 168.78125 33.027344 L 168.109375 53.265625 L 164.472656 53.265625 Z M 165.550781 26.789062 "/>
    <path style=" stroke:none;fill-rule:nonzero;fill:rgb(0%,0%,0%);fill-opacity:1;" d="M 207.921875 29.648438 L 203.390625 42.609375 L 212.117188 42.609375 Z M 213.046875 45.839844 L 202.273438 45.839844 L 199.75 53.265625 L 196 53.265625 L 205.394531 26.675781 L 210.667969 26.675781 L 219.695312 53.265625 L 215.71875 53.265625 Z M 213.046875 45.839844 "/>
  </g>
</svg>