<?xml version="1.0" encoding="UTF-8" standalone="no"?>
<!-- Created with Inkscape (http://www.inkscape.org/) -->

<svg
   xmlns:dc="http://purl.org/dc/elements/1.1/"
   xmlns:cc="http://creativecommons.org/ns#"
   xmlns:rdf="http://www.w3.org/1999/02/22-rdf-syntax-ns#"
   xmlns:svg="http://www.w3.org/2000/svg"
   xmlns="http://www.w3.org/2000/svg"
   xmlns:sodipodi="http://sodipodi.sourceforge.net/DTD/sodipodi-0.dtd"
   xmlns:inkscape="http://www.inkscape.org/namespaces/inkscape"
   width="549.73401"
   height="200"
   id="svg2"
   version="1.1"
   inkscape:version="0.48.2 r9819"
   sodipodi:docname="New document 1">
  <defs
     id="defs4">
    <clipPath
       id="clipPath3323"
       clipPathUnits="userSpaceOnUse">
      <path
         id="path3325"
         d="m 396.85,0 396.85,0 0,396.85 -396.85,0 0,-396.85 z"
         inkscape:connector-curvature="0" />
    </clipPath>
    <clipPath
       id="clipPath3287"
       clipPathUnits="userSpaceOnUse">
      <path
         id="path3289"
         d="m 205.511,347.717 56.722,0 0,20.787 -56.722,0 0,-20.787 z"
         inkscape:connector-curvature="0" />
    </clipPath>
    <clipPath
       id="clipPath3243"
       clipPathUnits="userSpaceOnUse">
      <path
         id="path3245"
         d="m 205.515,347.935 20.57,0 0,20.569 -20.57,0 0,-20.569 z"
         inkscape:connector-curvature="0" />
    </clipPath>
    <clipPath
       id="clipPath3215"
       clipPathUnits="userSpaceOnUse">
      <path
         id="path3217"
         d="m 28.346,347.717 39.382,0 0,20.787 -39.382,0 0,-20.787 z"
         inkscape:connector-curvature="0" />
    </clipPath>
    <clipPath
       id="clipPath3179"
       clipPathUnits="userSpaceOnUse">
      <path
         id="path3181"
         d="m 28.35,347.935 20.569,0 0,20.569 -20.569,0 0,-20.569 z"
         inkscape:connector-curvature="0" />
    </clipPath>
  </defs>
  <sodipodi:namedview
     id="base"
     pagecolor="#ffffff"
     bordercolor="#666666"
     borderopacity="1.0"
     inkscape:pageopacity="0.0"
     inkscape:pageshadow="2"
     inkscape:zoom="0.98994949"
     inkscape:cx="373.65741"
     inkscape:cy="32.728833"
     inkscape:document-units="px"
     inkscape:current-layer="g2993"
     showgrid="false"
     showguides="true"
     inkscape:guide-bbox="true"
     fit-margin-left="0.5"
     fit-margin-bottom="0.5"
     fit-margin-top="0.5"
     fit-margin-right="0.5"
     inkscape:window-width="1265"
     inkscape:window-height="1039"
     inkscape:window-x="651"
     inkscape:window-y="-21"
     inkscape:window-maximized="0" />
  <metadata
     id="metadata7">
    <rdf:RDF>
      <cc:Work
         rdf:about="">
        <dc:format>image/svg+xml</dc:format>
        <dc:type
           rdf:resource="http://purl.org/dc/dcmitype/StillImage" />
        <dc:title></dc:title>
      </cc:Work>
    </rdf:RDF>
  </metadata>
  <g
     inkscape:label="Layer 1"
     inkscape:groupmode="layer"
     id="layer1"
     transform="translate(-117.61489,-145.97447)">
    <g
       transform="matrix(1.25,0,0,-1.25,-138.77906,780.39343)"
       inkscape:label="2012_syksy"
       id="g2993">
      <g
         id="g3211">
        <g
           clip-path="url(#clipPath3215)"
           id="g3213">
          <g
             transform="translate(45.278198,331.7982)"
             id="g3219">
            <path
               id="path3221"
               style="fill:#ffffff;fill-opacity:1;fill-rule:nonzero;stroke:none"
               d="m 0,0 c -0.088,0 -0.176,-0.017 -0.278,-0.037 l -0.039,-0.008 c -0.208,-0.042 -0.555,-0.111 -1.106,-0.111 -1.425,0 -1.593,0.242 -1.637,1.356 l 2.723,0 c 0.629,0 0.909,0.247 0.909,0.801 0,1.177 -0.247,2.743 -2.385,2.743 -1.806,0 -2.611,-0.98 -2.611,-3.178 0,-2.145 0.75,-2.943 2.767,-2.943 0.839,0 1.503,0.129 1.763,0.248 0.166,0.071 0.319,0.176 0.319,0.471 l 0,0.214 C 0.425,-0.166 0.266,0 0,0 m -6.468,7.574 -0.839,0 c -0.154,0 -0.62,0 -0.62,-0.464 l 0,-0.371 c 0,-0.145 0.064,-0.483 0.658,-0.483 l 0.142,0 0,-6.915 c 0,-0.395 0.09,-0.64 0.542,-0.64 l 0.273,0 c 0.461,0 0.523,0.324 0.523,0.64 l 0,7.261 c 0,0.364 0,0.972 -0.679,0.972 m -2.491,-2.987 -0.332,0 c -0.364,0 -0.487,-0.227 -0.577,-0.62 l -0.926,-4.025 -0.159,0 c -0.341,-0.012 -0.496,0.034 -0.606,0.477 l -0.938,3.553 -0.01,0.039 c -0.071,0.27 -0.152,0.576 -0.526,0.576 l -0.351,0 c -0.32,0 -0.503,-0.176 -0.503,-0.483 0,-0.169 0.045,-0.419 0.142,-0.788 l 0.996,-3.551 c 0.185,-0.695 0.579,-1.005 1.278,-1.005 l 0.432,0 c -0.057,-0.298 -0.128,-0.636 -0.172,-0.772 -0.175,-0.543 -0.437,-0.642 -0.891,-0.642 -0.401,0 -0.661,0.03 -0.851,0.053 l -0.016,0.002 c -0.112,0.012 -0.2,0.023 -0.285,0.023 -0.266,0 -0.425,-0.167 -0.425,-0.445 l 0,-0.234 c 0,-0.294 0.152,-0.399 0.315,-0.468 0.245,-0.111 0.55,-0.172 1.457,-0.172 0.93,0 1.619,0.5 1.845,1.337 0.387,1.437 1.42,5.772 1.464,5.956 0.005,0.02 0.122,0.481 0.122,0.706 0,0.289 -0.194,0.483 -0.483,0.483 m 12.596,6.372 0,-18.661 c 0,-0.51 -0.44,-0.955 -0.924,-0.955 l -18.679,0 c -0.525,0 -0.966,0.445 -0.966,0.955 l 0,18.661 c 0,0.529 0.441,0.953 0.966,0.953 l 18.679,0 c 0.484,0 0.924,-0.424 0.924,-0.953"
               inkscape:connector-curvature="0" />
          </g>
          <g
             transform="translate(42.224701,334.0956)"
             id="g3223">
            <path
               id="path3225"
               style="fill:#ffffff;fill-opacity:1;fill-rule:nonzero;stroke:none"
               d="m 0,0 c 0.052,0.956 0.443,1.383 1.261,1.383 l 0.001,0 C 2.04,1.383 2.39,0.969 2.426,0.002 L 0,0 z"
               inkscape:connector-curvature="0" />
          </g>
          <g
             transform="translate(52.968903,336.0367)"
             id="g3227">
            <path
               id="path3229"
               style="fill:#ffffff;fill-opacity:1;fill-rule:nonzero;stroke:none"
               d="m 0,0 0,0.827 5.356,0 0,-0.827 -2.212,0 0,-6.029 -0.961,0 L 2.183,0 0,0 z"
               inkscape:connector-curvature="0" />
          </g>
          <g
             transform="translate(60.959595,329.9884)"
             id="g3231">
            <path
               id="path3233"
               style="fill:#ffffff;fill-opacity:1;fill-rule:nonzero;stroke:none"
               d="m 0,0 -2.125,6.875 1.077,0 1.75,-6.077 1.914,6.077 1.048,0 L 1.337,0 0,0 z"
               inkscape:connector-curvature="0" />
          </g>
          <g
             transform="translate(66.757202,335.99831)"
             id="g3235">
            <path
               id="path3237"
               style="fill:#ffffff;fill-opacity:1;fill-rule:nonzero;stroke:none"
               d="m 0,0 -1.519,-0.288 -0.144,0.711 2.23,0.462 0.404,0 0,-6.876 L 0,-5.991 0,0 z"
               inkscape:connector-curvature="0" />
          </g>
        </g>
      </g>
      <g
         id="g3538"
         transform="matrix(7.7398779,0,0,7.7398779,-1385.1467,-2345.0408)">
        <g
           id="g3239">
          <g
             id="g3241"
             clip-path="url(#clipPath3243)">
            <g
               id="g3247"
               transform="translate(226.08411,367.5502)">
              <path
                 inkscape:connector-curvature="0"
                 d="m 0,0 0,-18.66 c 0,-0.51 -0.44,-0.955 -0.924,-0.955 l -18.679,0 c -0.525,0 -0.966,0.445 -0.966,0.955 l 0,18.66 c 0,0.53 0.441,0.954 0.966,0.954 l 18.679,0 C -0.44,0.954 0,0.53 0,0"
                 style="fill:#000000;fill-opacity:1;fill-rule:nonzero;stroke:none"
                 id="path3249" />
            </g>
            <g
               id="g3251"
               transform="translate(213.9375,360.6958)">
              <path
                 inkscape:connector-curvature="0"
                 d="m 0,0 c 0,0.254 -0.165,0.418 -0.419,0.418 l -0.331,0 c -0.287,0 -0.416,-0.143 -0.513,-0.57 l -0.938,-4.075 -0.209,0 c -0.316,0 -0.449,0.079 -0.561,0.526 l -0.937,3.553 -0.01,0.038 C -3.99,0.162 -4.057,0.418 -4.381,0.418 l -0.351,0 C -5.015,0.418 -5.17,0.27 -5.17,0 c 0,-0.164 0.044,-0.408 0.14,-0.77 l 0.996,-3.552 c 0.178,-0.67 0.542,-0.957 1.215,-0.957 l 0.399,0 c -0.042,-0.223 -0.132,-0.682 -0.189,-0.856 -0.182,-0.569 -0.465,-0.688 -0.952,-0.688 -0.403,0 -0.667,0.031 -0.859,0.053 -0.116,0.013 -0.208,0.024 -0.293,0.024 -0.229,0 -0.36,-0.138 -0.36,-0.379 l 0,-0.234 c 0,-0.268 0.138,-0.35 0.277,-0.409 0.237,-0.107 0.535,-0.166 1.43,-0.166 0.898,0 1.564,0.482 1.781,1.289 0.395,1.464 1.454,5.912 1.464,5.955 0,0 0.121,0.471 0.121,0.69"
                 style="fill:#ffffff;fill-opacity:1;fill-rule:nonzero;stroke:none"
                 id="path3253" />
            </g>
            <g
               id="g3255"
               transform="translate(216.5928,363.19411)">
              <path
                 inkscape:connector-curvature="0"
                 d="m 0,0 c 0,0.459 -0.047,0.907 -0.614,0.907 l -0.839,0 c -0.152,0 -0.555,0 -0.555,-0.399 l 0,-0.371 c 0,-0.157 0.077,-0.418 0.594,-0.418 l 0.206,0 0,-6.98 c 0,-0.373 0.076,-0.575 0.477,-0.575 l 0.273,0 c 0.38,0 0.458,0.23 0.458,0.575 L 0,0 z"
                 style="fill:#ffffff;fill-opacity:1;fill-rule:nonzero;stroke:none"
                 id="path3257" />
            </g>
            <g
               id="g3259"
               transform="translate(221.7998,358.8427)">
              <path
                 inkscape:connector-curvature="0"
                 d="m 0,0 -2.545,-0.002 c 0.039,1.048 0.437,1.497 1.313,1.497 C -0.369,1.496 -0.026,0.985 0,0 m 1.11,-0.253 c 0,1.14 -0.262,2.681 -2.363,2.681 -1.761,0 -2.546,-0.961 -2.546,-3.113 0,-2.097 0.733,-2.877 2.702,-2.877 0.879,0 1.456,0.12 1.682,0.223 0.141,0.06 0.278,0.141 0.278,0.41 l 0,0.214 c 0,0.242 -0.13,0.38 -0.359,0.38 -0.08,0 -0.162,-0.017 -0.266,-0.037 -0.202,-0.04 -0.508,-0.1 -1.101,-0.1 -1.478,0 -1.662,0.267 -1.705,1.487 l 2.792,0 c 0.672,0 0.886,0.292 0.886,0.732"
                 style="fill:#ffffff;fill-opacity:1;fill-rule:nonzero;stroke:none"
                 id="path3261" />
            </g>
          </g>
        </g>
        <g
           id="g3263"
           transform="translate(230.13429,360.80811)">
          <path
             inkscape:connector-curvature="0"
             d="m 0,0 0,0.825 5.345,0 0,-0.825 -2.207,0 0,-6.017 -0.96,0 L 2.178,0 0,0 z"
             style="fill:#000000;fill-opacity:1;fill-rule:nonzero;stroke:none"
             id="path3265" />
        </g>
        <g
           id="g3267"
           transform="translate(236.49631,354.7915)">
          <path
             inkscape:connector-curvature="0"
             d="m 0,0 0,6.842 4.356,0 0,-0.825 -3.425,0 0,-2.217 2.984,0 0,-0.787 -2.984,0 0,-2.188 3.521,0 L 4.452,0 0,0 z"
             style="fill:#000000;fill-opacity:1;fill-rule:nonzero;stroke:none"
             id="path3269" />
        </g>
        <g
           id="g3271"
           transform="translate(242.2538,354.7915)">
          <path
             inkscape:connector-curvature="0"
             d="m 0,0 0,6.842 4.356,0 0,-0.825 -3.425,0 0,-2.217 2.984,0 0,-0.787 -2.984,0 0,-2.188 3.521,0 L 4.452,0 0,0 z"
             style="fill:#000000;fill-opacity:1;fill-rule:nonzero;stroke:none"
             id="path3273" />
        </g>
        <g
           id="g3275"
           transform="translate(248.2417,361.6333)">
          <path
             inkscape:connector-curvature="0"
             d="M 0,0 1.209,0 3.368,-5.45 5.45,0 l 1.161,0 0.288,-6.842 -0.95,0 -0.182,5.23 -2.063,-5.22 -0.748,0 -2.121,5.22 -0.173,-5.23 -0.94,0 L 0,0 z"
             style="fill:#000000;fill-opacity:1;fill-rule:nonzero;stroke:none"
             id="path3277" />
        </g>
        <g
           id="g3279"
           transform="translate(259.1907,360.8945)">
          <path
             inkscape:connector-curvature="0"
             d="m 0,0 -1.171,-3.349 2.255,0 L 0,0 z m 1.324,-4.184 -2.783,0 -0.652,-1.919 -0.969,0 2.427,6.871 1.363,0 2.332,-6.871 -1.027,0 -0.691,1.919 z"
             style="fill:#000000;fill-opacity:1;fill-rule:nonzero;stroke:none"
             id="path3281" />
        </g>
      </g>
      <g
         id="g3283">
        <g
           clip-path="url(#clipPath3287)"
           id="g3285">
          <g
             transform="translate(222.4435,331.7982)"
             id="g3291">
            <path
               id="path3293"
               style="fill:#ffffff;fill-opacity:1;fill-rule:nonzero;stroke:none"
               d="m 0,0 c -0.088,0 -0.176,-0.017 -0.278,-0.037 l -0.039,-0.008 c -0.208,-0.042 -0.555,-0.111 -1.106,-0.111 -1.425,0 -1.593,0.242 -1.637,1.356 l 2.723,0 c 0.629,0 0.909,0.247 0.909,0.801 0,1.177 -0.247,2.743 -2.385,2.743 -1.806,0 -2.611,-0.98 -2.611,-3.178 0,-2.145 0.75,-2.943 2.767,-2.943 0.839,0 1.503,0.129 1.763,0.248 0.166,0.071 0.319,0.176 0.319,0.471 l 0,0.214 C 0.425,-0.166 0.266,0 0,0 m -6.468,7.574 -0.839,0 c -0.154,0 -0.62,0 -0.62,-0.464 l 0,-0.371 c 0,-0.145 0.064,-0.483 0.658,-0.483 l 0.142,0 0,-6.915 c 0,-0.395 0.09,-0.64 0.542,-0.64 l 0.273,0 c 0.461,0 0.523,0.324 0.523,0.64 l 0,7.261 c 0,0.364 0,0.972 -0.679,0.972 m -2.491,-2.987 -0.332,0 c -0.364,0 -0.487,-0.227 -0.577,-0.62 l -0.926,-4.025 -0.159,0 c -0.341,-0.012 -0.496,0.034 -0.606,0.477 l -0.938,3.553 -0.01,0.039 c -0.071,0.27 -0.152,0.576 -0.526,0.576 l -0.351,0 c -0.32,0 -0.503,-0.176 -0.503,-0.483 0,-0.169 0.045,-0.419 0.142,-0.788 l 0.996,-3.551 c 0.185,-0.695 0.579,-1.005 1.278,-1.005 l 0.432,0 c -0.057,-0.298 -0.128,-0.636 -0.172,-0.772 -0.175,-0.543 -0.437,-0.642 -0.891,-0.642 -0.401,0 -0.661,0.03 -0.851,0.053 l -0.016,0.002 c -0.112,0.012 -0.2,0.023 -0.285,0.023 -0.266,0 -0.425,-0.167 -0.425,-0.445 l 0,-0.234 c 0,-0.294 0.152,-0.399 0.315,-0.468 0.245,-0.111 0.55,-0.172 1.457,-0.172 0.93,0 1.619,0.5 1.845,1.337 0.387,1.437 1.42,5.772 1.464,5.956 0.005,0.02 0.122,0.481 0.122,0.706 0,0.289 -0.194,0.483 -0.483,0.483 m 12.596,6.372 0,-18.661 c 0,-0.51 -0.44,-0.955 -0.924,-0.955 l -18.679,0 c -0.525,0 -0.966,0.445 -0.966,0.955 l 0,18.661 c 0,0.529 0.441,0.953 0.966,0.953 l 18.679,0 c 0.484,0 0.924,-0.424 0.924,-0.953"
               inkscape:connector-curvature="0" />
          </g>
          <g
             transform="translate(219.39,334.0956)"
             id="g3295">
            <path
               id="path3297"
               style="fill:#ffffff;fill-opacity:1;fill-rule:nonzero;stroke:none"
               d="m 0,0 c 0.052,0.956 0.443,1.383 1.261,1.383 l 0.001,0 C 2.04,1.383 2.39,0.969 2.426,0.002 L 0,0 z"
               inkscape:connector-curvature="0" />
          </g>
          <g
             transform="translate(230.13429,336.0145)"
             id="g3299">
            <path
               id="path3301"
               style="fill:#ffffff;fill-opacity:1;fill-rule:nonzero;stroke:none"
               d="m 0,0 0,0.825 5.345,0 0,-0.825 -2.207,0 0,-6.017 -0.96,0 L 2.178,0 0,0 z"
               inkscape:connector-curvature="0" />
          </g>
          <g
             transform="translate(236.49631,329.99789)"
             id="g3303">
            <path
               id="path3305"
               style="fill:#ffffff;fill-opacity:1;fill-rule:nonzero;stroke:none"
               d="m 0,0 0,6.842 4.356,0 0,-0.825 -3.425,0 0,-2.217 2.984,0 0,-0.787 -2.984,0 0,-2.188 3.521,0 L 4.452,0 0,0 z"
               inkscape:connector-curvature="0" />
          </g>
          <g
             transform="translate(242.2538,329.99789)"
             id="g3307">
            <path
               id="path3309"
               style="fill:#ffffff;fill-opacity:1;fill-rule:nonzero;stroke:none"
               d="m 0,0 0,6.842 4.356,0 0,-0.825 -3.425,0 0,-2.217 2.984,0 0,-0.787 -2.984,0 0,-2.188 3.521,0 L 4.452,0 0,0 z"
               inkscape:connector-curvature="0" />
          </g>
          <g
             transform="translate(248.2417,336.8398)"
             id="g3311">
            <path
               id="path3313"
               style="fill:#ffffff;fill-opacity:1;fill-rule:nonzero;stroke:none"
               d="M 0,0 1.209,0 3.368,-5.451 5.45,0 l 1.161,0 0.288,-6.842 -0.95,0 -0.182,5.23 -2.063,-5.22 -0.748,0 -2.121,5.22 -0.173,-5.23 -0.94,0 L 0,0 z"
               inkscape:connector-curvature="0" />
          </g>
          <g
             transform="translate(259.1907,336.10091)"
             id="g3315">
            <path
               id="path3317"
               style="fill:#ffffff;fill-opacity:1;fill-rule:nonzero;stroke:none"
               d="m 0,0 -1.171,-3.349 2.255,0 L 0,0 z m 1.324,-4.184 -2.783,0 -0.652,-1.919 -0.969,0 2.427,6.871 1.363,0 2.332,-6.871 -1.027,0 -0.691,1.919 z"
               inkscape:connector-curvature="0" />
          </g>
        </g>
      </g>
    </g>
  </g>
</svg>
