<?xml version="1.0" encoding="UTF-8" standalone="no"?>
<!-- Created with Inkscape (http://www.inkscape.org/) -->

<svg
   xmlns:dc="http://purl.org/dc/elements/1.1/"
   xmlns:cc="http://creativecommons.org/ns#"
   xmlns:rdf="http://www.w3.org/1999/02/22-rdf-syntax-ns#"
   xmlns:svg="http://www.w3.org/2000/svg"
   xmlns="http://www.w3.org/2000/svg"
   xmlns:sodipodi="http://sodipodi.sourceforge.net/DTD/sodipodi-0.dtd"
   xmlns:inkscape="http://www.inkscape.org/namespaces/inkscape"
   version="1.1"
   width="256"
   height="256"
   id="svg2"
   inkscape:version="0.48.3.1 r9886"
   sodipodi:docname="hd.tele5.de.svg">
  <sodipodi:namedview
     pagecolor="#ffffff"
     bordercolor="#666666"
     borderopacity="1"
     objecttolerance="10"
     gridtolerance="10"
     guidetolerance="10"
     inkscape:pageopacity="0"
     inkscape:pageshadow="2"
     inkscape:window-width="1920"
     inkscape:window-height="1129"
     id="namedview3125"
     showgrid="false"
     inkscape:zoom="2.4324472"
     inkscape:cx="123.35081"
     inkscape:cy="39.224528"
     inkscape:window-x="0"
     inkscape:window-y="25"
     inkscape:window-maximized="1"
     inkscape:current-layer="layer1" />
  <metadata
     id="metadata8">
    <rdf:RDF>
      <cc:Work
         rdf:about="">
        <dc:format>image/svg+xml</dc:format>
        <dc:type
           rdf:resource="http://purl.org/dc/dcmitype/StillImage" />
        <dc:title></dc:title>
      </cc:Work>
    </rdf:RDF>
  </metadata>
  <defs
     id="defs6" />
  <g
     inkscape:groupmode="layer"
     id="layer2"
     inkscape:label="TELE 5"
     style="display:inline"
     sodipodi:insensitive="true">
    <path
       d="m 16.066925,107.40039 -0.09786,0.23667 C 15.828672,107.97729 1,148.67832 1,148.72349 c 0,0.0206 27.737306,0.0386 61.637628,0.0386 l 61.635372,0 0.14335,-0.3823 c 0.78382,-2.09928 14.82831,-40.69302 14.85302,-40.81565 l 0.0319,-0.16384 -61.617168,0 -61.617147,0 z m 146.850755,0 c -10.03252,0.003 -20.07142,0.0261 -20.09605,0.0659 -0.045,0.0729 -15.0419,41.21326 -15.0419,41.26394 0,0.0174 9.03449,0.0237 20.07786,0.0137 l 20.08013,-0.0182 7.51411,-20.60808 c 4.13355,-11.33443 7.51847,-20.63265 7.52095,-20.66268 0.004,-0.0399 -10.02257,-0.0574 -20.0551,-0.0546 z m 2.08675,6.27617 c 4.75044,0.001 6.1055,0.0227 6.08503,0.0774 -0.0187,0.0502 -0.45635,1.2463 -0.97169,2.65793 l -0.93756,2.56692 -9.02287,0.0182 -9.02285,0.0182 -0.8602,2.25743 c -0.47406,1.24158 -0.94392,2.47832 -1.0445,2.74895 l -0.18433,0.49154 0.34589,-0.17294 c 0.94653,-0.47894 2.90466,-1.01186 4.74924,-1.29256 0.994,-0.15127 1.38509,-0.1714 3.27691,-0.17068 2.34458,8.1e-4 2.98806,0.0654 4.64682,0.47106 2.99207,0.73172 5.03175,2.16123 5.93938,4.16212 0.81676,1.80057 0.78983,3.92052 -0.0797,6.42637 -0.55216,1.59142 -1.3303,2.8165 -2.60104,4.08931 -0.48279,0.48357 -1.10498,1.04601 -1.3813,1.24932 -2.45611,1.80699 -5.63544,2.92654 -9.47344,3.33379 -1.2887,0.13673 -4.30886,0.13189 -5.60714,-0.009 -1.89885,-0.20624 -3.83042,-0.72073 -5.08603,-1.35173 -1.90731,-0.9585 -3.03815,-2.23037 -3.59093,-4.0415 -0.18018,-0.59029 -0.19759,-0.74613 -0.20254,-1.95251 -0.003,-0.7209 0.0214,-1.40052 0.0523,-1.51101 l 0.0546,-0.20252 3.98691,0.0205 3.98462,0.0182 0.0524,0.57346 c 0.15963,1.76107 0.84225,2.64166 2.39168,3.0812 0.40079,0.11373 0.7464,0.13144 2.3985,0.12971 2.16006,-0.003 2.8136,-0.0942 4.08932,-0.57346 0.90463,-0.3398 1.39539,-0.65191 2.0731,-1.32214 0.51114,-0.5055 0.64612,-0.69464 0.96031,-1.34717 1.39619,-2.89985 0.54571,-5.12669 -2.30976,-6.04406 -2.72083,-0.87412 -6.32824,-0.40609 -8.62464,1.12188 l -0.61896,0.41415 -3.641,-0.0205 -3.64101,-0.0182 2.89005,-7.93739 2.89232,-7.93738 12.07448,-0.0182 c 2.41292,-0.004 4.37411,-0.005 5.95758,-0.005 z m -144.839101,0.0592 14.092956,0 c 11.242951,0 14.0841,0.0183 14.056546,0.091 -0.01899,0.0501 -0.502702,1.37748 -1.074094,2.9492 l -1.039962,2.8582 -4.91763,0.0182 -4.917628,0.0182 -4.130263,11.39634 -4.132539,11.39634 -4.191705,0.0182 -4.191704,0.0205 0.23439,-0.63944 c 0.128078,-0.35079 1.98653,-5.487 4.132537,-11.41455 l 3.902701,-10.77737 -4.981347,-0.0182 c -4.703815,-0.0177 -4.980976,-0.0258 -4.93356,-0.14565 0.03794,-0.0958 1.467703,-4.03599 2.020757,-5.57073 l 0.07054,-0.20026 z m 31.547014,0 12.081302,0 c 11.476455,0 12.079085,0.006 12.031236,0.1275 -0.02767,0.0701 -0.494914,1.39724 -1.037687,2.94921 l -0.987614,2.82179 -7.882774,0 c -7.440588,0 -7.886443,0.008 -7.932836,0.1275 -0.122387,0.3173 -1.786367,5.11439 -1.786367,5.14974 0,0.0218 3.344293,0.0387 7.432198,0.0387 7.046489,0 7.42981,0.006 7.388959,0.12737 -0.02371,0.0701 -0.492202,1.38905 -1.042236,2.93101 l -0.999001,2.80357 -7.464056,0.0365 -7.464055,0.0365 -0.996725,2.80357 c -0.549243,1.54197 -1.00187,2.82814 -1.003552,2.85818 -0.0017,0.0301 3.490167,0.0546 7.759888,0.0546 6.179389,0 7.756326,0.0186 7.730304,0.091 -0.01798,0.0501 -0.503864,1.37751 -1.080923,2.94922 l -1.049064,2.85591 -12.069924,0.003 -12.06765,0 0.168398,-0.45515 c 0.09362,-0.25031 2.444742,-6.72219 5.222562,-14.38196 l 5.049617,-13.92683 z m 32.866877,0 c 2.491021,-6.5e-4 4.168949,0.026 4.168949,0.066 0,0.0369 -1.802297,5.17369 -4.005104,11.41454 -2.202807,6.24089 -4.005102,11.35648 -4.005102,11.36676 0,0.0102 3.113057,0.0182 6.917905,0.0182 5.488199,0 6.916922,0.0188 6.913353,0.091 -0.0024,0.0501 -0.453682,1.36901 -1.003554,2.93101 l -1.001275,2.83998 -11.300757,0.0182 -11.303041,0.0182 0.129711,-0.34592 c 0.07151,-0.19035 2.422812,-6.6627 5.224835,-14.38196 l 5.095133,-14.03377 4.168947,-0.003 z m 21.46373,0 12.14957,0 c 11.54263,-2.8e-4 12.14962,0.006 12.10177,0.1275 -0.0277,0.0701 -0.4949,1.39724 -1.03768,2.94921 l -0.98761,2.82179 -7.88278,0 c -7.28005,0 -7.88769,0.009 -7.93056,0.12061 -0.14688,0.38278 -1.78865,5.1078 -1.78865,5.14748 0,0.0263 3.3443,0.0478 7.43221,0.0478 7.04631,0 7.43164,0.006 7.39123,0.12738 -0.0234,0.0701 -0.49445,1.38904 -1.04679,2.93101 l -1.00583,2.80356 -7.45951,0.0365 -7.45949,0.0365 -0.99901,2.80357 c -0.54984,1.54196 -1.00009,2.82814 -1.00128,2.85817 -9.9e-4,0.0301 3.47125,0.0546 7.71666,0.0546 4.24541,0 7.71966,0.0246 7.71892,0.0546 -7.3e-4,0.0301 -0.45541,1.349 -1.01037,2.93101 l -1.01039,2.87639 -12.16095,0.0182 -12.160952,0.0182 0.666755,-1.83871 c 0.366274,-1.01141 2.713589,-7.48334 5.215747,-14.38196 l 4.54899,-12.54326 z"
       id="path3011"
       style="fill:#05968f;fill-opacity:1"
       inkscape:connector-curvature="0" />
  </g>
  <g
     inkscape:groupmode="layer"
     id="layer1"
     inkscape:label="HD"
     style="display:none"
     sodipodi:insensitive="true">
    <path
       d="m 186.63199,107.47321 -0.0705,0.20024 c -0.0396,0.11016 -3.40759,9.34282 -7.48227,20.51706 -4.0747,11.17424 -7.42397,20.37414 -7.44358,20.44423 -0.034,0.12125 1.65181,0.12737 34.66008,0.12737 l 34.69647,0 7.48681,-20.55346 c 4.11821,-11.3044 7.50309,-20.59442 7.52095,-20.64449 0.026,-0.0728 -6.93856,-0.091 -34.66689,-0.091 l -34.70104,0 z m 11.14829,2.3416 c 5.83095,-4.2e-4 13.86958,0.001 22.71076,0.006 l 32.15005,0.0182 -6.64938,18.24143 c -3.65712,10.03279 -6.64857,18.24961 -6.64938,18.25963 -0.004,0.055 -64.30239,0.009 -64.30239,-0.0455 0,-0.0661 13.24266,-36.43359 13.28057,-36.47148 0.006,-0.006 3.62884,-0.009 9.45977,-0.009 z m 23.7439,3.76845 -5.21802,14.45024 c -2.86995,7.94736 -5.23818,14.50477 -5.26352,14.57084 -0.0427,0.11117 0.49408,0.11781 7.26152,0.0956 8.1033,-0.0267 7.76288,-0.009 9.79658,-0.53023 5.30765,-1.35936 9.80011,-5.23896 12.69798,-10.96624 1.92921,-3.81276 2.92093,-7.80873 2.62608,-10.58621 -0.39503,-3.72135 -2.46295,-5.92573 -6.36721,-6.7882 l -0.88521,-0.1957 -7.32525,-0.025 -7.32295,-0.025 z m -26.29715,0.006 c -2.9847,0 -3.20789,0.009 -3.25414,0.12737 -0.0632,0.1619 -2.45288,6.77213 -3.06072,8.46533 -0.25161,0.7009 -2.01894,5.59404 -3.92546,10.87295 -1.90651,5.27892 -3.46578,9.6122 -3.46578,9.63045 0,0.0182 1.44564,0.0241 3.21318,0.0137 l 3.21319,-0.0182 2.20964,-6.11688 c 1.21465,-3.36429 2.24165,-6.19062 2.28245,-6.28073 l 0.0751,-0.16385 5.86201,0 c 4.64336,0 5.86354,0.019 5.86201,0.091 -0.001,0.0501 -1.0115,2.88459 -2.24604,6.29893 l -2.24605,6.20792 3.22456,0 3.2223,0 0.10697,-0.3095 c 0.0985,-0.28519 10.29551,-28.52062 10.37459,-28.7275 0.0279,-0.0728 -0.6199,-0.088 -3.1927,-0.0728 l -3.22912,0.0182 -2.00483,5.55254 -2.00484,5.55252 -5.92117,0 c -3.25653,0 -5.90437,-0.0252 -5.88477,-0.0569 0.0417,-0.0674 3.90865,-10.76838 3.95959,-10.95714 0.0324,-0.11998 -0.15321,-0.12737 -3.16995,-0.12737 z m 30.7733,5.42509 3.1563,0.003 c 3.0014,0.003 3.19019,0.0102 3.84809,0.16385 1.72245,0.40309 2.84098,1.27587 3.31786,2.58967 0.51924,1.43047 0.36505,3.29023 -0.48927,5.93027 -0.99836,3.08517 -2.16413,5.06297 -4.0415,6.86102 -1.47084,1.40868 -3.24339,2.32386 -5.14975,2.65566 -0.51922,0.0904 -1.29914,0.11156 -3.95049,0.11156 l -3.30194,0 0.21619,-0.60077 c 0.11908,-0.33042 1.60756,-4.45112 3.30648,-9.15712 l 3.08803,-8.55635 z"
       id="path2997"
       style="fill:#a8a9ad;fill-opacity:1;display:inline"
       inkscape:connector-curvature="0" />
  </g>
</svg>
