<?xml version="1.0" encoding="UTF-8" standalone="yes"?>
<svg xmlns="http://www.w3.org/2000/svg" xmlns:xlink="http://www.w3.org/1999/xlink" width="988px" height="106.66666666666666px" viewBox="0 0 741 80" version="1.1">
  <defs>
    <clipPath id="clip1">
      <path d="M 0 0 L 76 0 L 76 79.785156 L 0 79.785156 Z M 0 0 "/>
    </clipPath>
  </defs>
  <g id="surface1">
    <path style=" stroke:none;fill-rule:nonzero;fill:rgb(4.313725%,2.352941%,1.960784%);fill-opacity:1;" d="M 154.714844 3.511719 C 154.53125 3.5 154.359375 3.460938 154.175781 3.460938 L 152.425781 3.460938 C 149.230469 3.460938 146.972656 4.792969 145.324219 7.472656 L 140.585938 15.175781 L 133.914062 26.023438 L 126.085938 38.75 L 121.796875 31.757812 L 110.257812 12.949219 L 106.957031 7.570312 C 105.519531 5.203125 103.148438 3.460938 99.75 3.460938 L 98.003906 3.460938 C 93.582031 3.460938 90.082031 6.957031 90.082031 11.378906 L 90.082031 68.808594 C 90.082031 70.785156 90.820312 72.542969 92 73.894531 C 93.40625 75.503906 95.453125 76.523438 97.800781 76.523438 C 102.121094 76.523438 105.617188 73.132812 105.617188 68.808594 L 105.617188 32.992188 L 108.808594 37.910156 L 117.136719 50.75 L 119.300781 54.085938 C 120.945312 56.558594 123 58.101562 125.882812 58.101562 C 128.765625 58.101562 130.820312 56.558594 132.46875 54.085938 L 146.355469 32.679688 L 146.355469 68.605469 C 146.355469 72.925781 149.851562 76.523438 154.175781 76.523438 C 158.597656 76.523438 162.09375 73.019531 162.09375 68.605469 L 162.09375 11.378906 C 162.09375 7.140625 158.871094 3.789062 154.714844 3.511719 "/>
    <path style=" stroke:none;fill-rule:nonzero;fill:rgb(4.313725%,2.352941%,1.960784%);fill-opacity:1;" d="M 210.957031 62.523438 C 198.203125 62.523438 189.152344 52.238281 189.152344 39.890625 L 189.152344 39.679688 C 189.152344 38.839844 189.199219 38.015625 189.28125 37.199219 C 189.730469 32.609375 191.429688 28.433594 194.09375 25.097656 C 195.890625 22.847656 198.128906 20.992188 200.71875 19.648438 C 203.652344 18.125 207.027344 17.246094 210.75 17.246094 C 215.652344 17.246094 220 18.773438 223.503906 21.347656 C 227.507812 24.285156 230.394531 28.585938 231.726562 33.574219 C 232.265625 35.585938 232.5625 37.703125 232.5625 39.890625 L 232.5625 40.09375 C 232.5625 47.539062 229.328125 54.144531 223.976562 58.226562 C 220.457031 60.917969 216.019531 62.523438 210.957031 62.523438 M 249.0625 37.476562 C 248.765625 32.277344 247.433594 27.371094 245.238281 22.96875 C 239.207031 10.898438 226.652344 2.632812 210.957031 2.632812 C 197.5625 2.632812 186.375 8.738281 179.601562 18.074219 C 178.835938 19.125 178.128906 20.222656 177.476562 21.351562 C 176.242188 23.511719 175.21875 25.804688 174.4375 28.207031 C 173.234375 31.886719 172.585938 35.8125 172.585938 39.890625 L 172.585938 40.09375 C 172.585938 60.574219 188.53125 77.144531 210.75 77.144531 C 221.628906 77.144531 231.039062 73.121094 237.824219 66.621094 C 244.90625 59.835938 249.125 50.351562 249.125 39.890625 L 249.125 39.679688 C 249.125 38.941406 249.101562 38.207031 249.0625 37.476562 "/>
    <path style=" stroke:none;fill-rule:nonzero;fill:rgb(4.313725%,2.352941%,1.960784%);fill-opacity:1;" d="M 303.648438 28.464844 L 303.648438 28.671875 C 303.648438 28.730469 303.636719 28.792969 303.636719 28.851562 C 303.546875 34.824219 299.140625 38.863281 291.503906 38.863281 L 275.460938 38.863281 L 275.460938 18.175781 L 291.195312 18.175781 C 295.75 18.175781 299.257812 19.402344 301.371094 21.796875 C 302.769531 23.382812 303.558594 25.476562 303.628906 28.070312 C 303.632812 28.207031 303.648438 28.328125 303.648438 28.464844 M 313.519531 11.175781 C 311.839844 9.492188 309.851562 8.101562 307.582031 6.976562 C 303.476562 4.953125 298.441406 3.863281 292.535156 3.863281 L 267.535156 3.863281 C 263.113281 3.863281 259.613281 7.367188 259.613281 11.789062 L 259.613281 68.605469 C 259.613281 73.019531 263.113281 76.523438 267.535156 76.523438 C 271.964844 76.523438 275.460938 73.019531 275.460938 68.605469 L 275.460938 52.851562 L 288.113281 52.851562 L 303.542969 72.414062 C 305.394531 74.773438 307.757812 76.523438 311.359375 76.523438 C 315.167969 76.523438 318.867188 73.640625 318.867188 69.21875 C 318.867188 66.75 317.84375 65.097656 316.300781 63.148438 L 305.675781 50.230469 L 305.289062 49.765625 C 311.960938 47.019531 316.820312 42.292969 318.757812 35.179688 C 319.042969 34.140625 319.269531 33.058594 319.425781 31.914062 C 319.597656 30.625 319.691406 29.269531 319.691406 27.847656 L 319.691406 27.644531 C 319.691406 20.84375 317.53125 15.1875 313.519531 11.175781 "/>
    <path style=" stroke:none;fill-rule:nonzero;fill:rgb(4.313725%,2.352941%,1.960784%);fill-opacity:1;" d="M 386.472656 68.429688 C 386.222656 64.746094 383.164062 61.804688 379.425781 61.804688 L 346.8125 61.804688 L 346.8125 46.675781 L 374.28125 46.675781 C 375.367188 46.675781 376.390625 46.414062 377.3125 45.988281 C 379.703125 44.875 381.371094 42.5 381.371094 39.679688 C 381.371094 35.773438 378.1875 32.578125 374.28125 32.578125 L 346.8125 32.578125 L 346.8125 17.96875 L 378.90625 17.96875 C 382.816406 17.96875 386.011719 14.882812 386.011719 10.972656 C 386.011719 7.0625 382.816406 3.867188 378.90625 3.867188 L 338.996094 3.867188 C 334.574219 3.867188 331.078125 7.367188 331.078125 11.789062 L 331.078125 67.984375 C 331.078125 72.414062 334.574219 75.910156 338.996094 75.910156 L 379.425781 75.910156 C 383.328125 75.910156 386.523438 72.8125 386.523438 68.90625 C 386.523438 68.746094 386.484375 68.59375 386.472656 68.429688 "/>
    <path style=" stroke:none;fill-rule:nonzero;fill:rgb(4.313725%,2.352941%,1.960784%);fill-opacity:1;" d="M 39.871094 29.074219 C 34.605469 29.074219 30.238281 32.902344 29.382812 37.921875 C 29.28125 38.511719 29.21875 39.105469 29.21875 39.71875 C 29.21875 45.605469 33.992188 50.375 39.871094 50.375 C 40.425781 50.375 40.96875 50.320312 41.503906 50.234375 C 46.605469 49.449219 50.519531 45.046875 50.519531 39.71875 C 50.519531 33.84375 45.753906 29.074219 39.871094 29.074219 "/>
    <path style=" stroke:none;fill-rule:nonzero;fill:rgb(4.313725%,2.352941%,1.960784%);fill-opacity:1;" d="M 437.75 11.324219 L 416.835938 11.324219 C 414.773438 11.324219 413.023438 9.679688 413.023438 7.617188 C 413.023438 5.554688 414.773438 3.800781 416.835938 3.800781 L 466.910156 3.800781 C 468.96875 3.800781 470.722656 5.554688 470.722656 7.617188 C 470.722656 9.679688 468.96875 11.324219 466.910156 11.324219 L 445.992188 11.324219 L 445.992188 72.347656 C 445.992188 74.617188 444.136719 76.472656 441.871094 76.472656 C 439.605469 76.472656 437.75 74.617188 437.75 72.347656 L 437.75 11.324219 "/>
    <path style=" stroke:none;fill-rule:nonzero;fill:rgb(4.313725%,2.352941%,1.960784%);fill-opacity:1;" d="M 477.523438 71.835938 L 477.523438 7.921875 C 477.523438 5.65625 479.375 3.800781 481.539062 3.800781 L 526.359375 3.800781 C 528.421875 3.800781 530.066406 5.449219 530.066406 7.511719 C 530.066406 9.574219 528.421875 11.222656 526.359375 11.222656 L 485.664062 11.222656 L 485.664062 35.859375 L 521.722656 35.859375 C 523.785156 35.859375 525.433594 37.613281 525.433594 39.570312 C 525.433594 41.632812 523.785156 43.28125 521.722656 43.28125 L 485.664062 43.28125 L 485.664062 68.535156 L 526.875 68.535156 C 528.933594 68.535156 530.585938 70.1875 530.585938 72.246094 C 530.585938 74.308594 528.933594 75.957031 526.875 75.957031 L 481.539062 75.957031 C 479.375 75.957031 477.523438 74.101562 477.523438 71.835938 "/>
    <path style=" stroke:none;fill-rule:nonzero;fill:rgb(4.313725%,2.352941%,1.960784%);fill-opacity:1;" d="M 537.164062 7.511719 C 537.164062 5.347656 539.015625 3.488281 541.179688 3.488281 L 542.316406 3.488281 C 544.171875 3.488281 545.304688 4.417969 546.4375 5.863281 L 590.222656 61.730469 L 590.222656 7.304688 C 590.222656 5.140625 591.976562 3.285156 594.242188 3.285156 C 596.40625 3.285156 598.15625 5.140625 598.15625 7.304688 L 598.15625 72.453125 C 598.15625 74.617188 596.613281 76.265625 594.449219 76.265625 L 594.039062 76.265625 C 592.285156 76.265625 591.050781 75.234375 589.8125 73.789062 L 545.097656 16.582031 L 545.097656 72.453125 C 545.097656 74.617188 543.34375 76.472656 541.078125 76.472656 C 538.914062 76.472656 537.164062 74.617188 537.164062 72.453125 L 537.164062 7.511719 "/>
    <path style=" stroke:none;fill-rule:nonzero;fill:rgb(4.313725%,2.352941%,1.960784%);fill-opacity:1;" d="M 605.523438 7.511719 C 605.523438 5.347656 607.378906 3.488281 609.542969 3.488281 L 610.675781 3.488281 C 612.53125 3.488281 613.664062 4.417969 614.796875 5.863281 L 658.585938 61.730469 L 658.585938 7.304688 C 658.585938 5.140625 660.339844 3.285156 662.605469 3.285156 C 664.769531 3.285156 666.519531 5.140625 666.519531 7.304688 L 666.519531 72.453125 C 666.519531 74.617188 664.976562 76.265625 662.8125 76.265625 L 662.398438 76.265625 C 660.644531 76.265625 659.410156 75.234375 658.175781 73.789062 L 613.460938 16.582031 L 613.460938 72.453125 C 613.460938 74.617188 611.707031 76.472656 609.441406 76.472656 C 607.273438 76.472656 605.523438 74.617188 605.523438 72.453125 L 605.523438 7.511719 "/>
    <path style=" stroke:none;fill-rule:nonzero;fill:rgb(4.313725%,2.352941%,1.960784%);fill-opacity:1;" d="M 673.460938 7.410156 C 673.460938 5.140625 675.316406 3.285156 677.480469 3.285156 C 679.746094 3.285156 681.601562 5.140625 681.601562 7.410156 L 681.601562 72.347656 C 681.601562 74.617188 679.746094 76.472656 677.480469 76.472656 C 675.316406 76.472656 673.460938 74.617188 673.460938 72.347656 L 673.460938 7.410156 "/>
    <path style=" stroke:none;fill-rule:nonzero;fill:rgb(4.313725%,2.352941%,1.960784%);fill-opacity:1;" d="M 689.085938 67.296875 C 688.160156 66.679688 687.539062 65.542969 687.539062 64.207031 C 687.539062 61.9375 689.296875 60.1875 691.457031 60.1875 C 692.488281 60.1875 693.414062 60.597656 693.929688 61.113281 C 700.730469 66.886719 707.53125 69.667969 716.699219 69.667969 C 726.386719 69.667969 732.773438 64.515625 732.773438 57.402344 L 732.773438 57.195312 C 732.773438 50.496094 729.167969 46.679688 714.023438 43.488281 C 697.433594 39.878906 689.808594 34.519531 689.808594 22.664062 L 689.808594 22.460938 C 689.808594 11.121094 699.804688 2.769531 713.503906 2.769531 C 722.984375 2.769531 729.886719 5.140625 736.484375 9.882812 C 737.308594 10.5 738.234375 11.636719 738.234375 13.183594 C 738.234375 15.34375 736.484375 17.097656 734.316406 17.097656 C 733.390625 17.097656 732.671875 16.894531 731.949219 16.375 C 725.871094 11.945312 719.996094 10.089844 713.296875 10.089844 C 703.921875 10.089844 697.949219 15.246094 697.949219 21.738281 L 697.949219 21.945312 C 697.949219 28.746094 701.65625 32.558594 717.523438 35.960938 C 733.597656 39.46875 741.011719 45.339844 741.011719 56.371094 L 741.011719 56.578125 C 741.011719 68.945312 730.714844 76.984375 716.390625 76.984375 C 705.882812 76.984375 697.125 73.6875 689.085938 67.296875 "/>
    <g clip-path="url(#clip1)" clip-rule="nonzero">
      <path style=" stroke:none;fill-rule:nonzero;fill:rgb(4.313725%,2.352941%,1.960784%);fill-opacity:1;" d="M 75.34375 52.964844 C 74.722656 50.984375 73.410156 49.230469 71.515625 48.164062 C 68.148438 46.253906 63.789062 46.953125 61.191406 49.824219 C 59.859375 51.292969 59.027344 53.191406 57.757812 54.726562 C 56.25 56.582031 54.390625 58.195312 52.375 59.488281 C 52.011719 59.722656 51.636719 59.9375 51.257812 60.148438 C 44.253906 64.089844 35.484375 64.117188 28.433594 60.160156 C 20.964844 55.769531 16.300781 47.695312 16.660156 38.960938 C 16.824219 35.136719 17.949219 31.453125 19.835938 28.226562 C 22.121094 24.304688 25.527344 21.046875 29.730469 19.019531 C 33.625 17.132812 37.8125 16.464844 42.109375 16.777344 C 45.945312 17.0625 49.378906 19.25 53.191406 17.570312 C 56.429688 16.152344 58.417969 12.742188 58.152344 9.242188 C 58.136719 9.039062 58.144531 8.84375 58.113281 8.644531 C 57.488281 4.632812 54.402344 2.421875 50.722656 1.417969 C 39.558594 -1.636719 27.75 0.367188 18.335938 6.316406 C 14.3125 8.863281 10.746094 12.140625 7.835938 16.035156 C 6.597656 17.691406 5.46875 19.441406 4.496094 21.316406 C 3.488281 23.230469 2.679688 25.199219 2.011719 27.195312 C -2.746094 41.492188 1.117188 57.441406 11.710938 68.207031 C 12.800781 69.316406 13.933594 70.386719 15.160156 71.375 C 19.4375 74.820312 24.335938 77.15625 29.46875 78.492188 C 40.597656 81.386719 52.828125 79.386719 62.476562 72.8125 C 63.867188 71.867188 65.226562 70.855469 66.5 69.714844 C 69.863281 66.703125 73.449219 62.824219 75.167969 58.570312 C 75.898438 56.738281 75.90625 54.757812 75.34375 52.964844 "/>
    </g>
  </g>
</svg>