<?xml version="1.0" encoding="UTF-8" ?>
<!DOCTYPE svg PUBLIC "-//W3C//DTD SVG 1.1//EN" "http://www.w3.org/Graphics/SVG/1.1/DTD/svg11.dtd">
<svg width="1550pt" height="153pt" viewBox="0 0 1550 153" version="1.1" xmlns="http://www.w3.org/2000/svg">
<g id="#ffffffff">
</g>
<g id="#370505ff">
<path fill="#370505" opacity="1.00" d=" M 71.97 0.00 L 80.29 0.00 C 98.62 1.39 117.35 8.25 129.93 22.10 C 135.71 28.21 137.70 37.70 134.34 45.49 C 129.78 56.32 115.03 61.24 104.96 55.09 C 98.61 51.06 92.80 45.79 85.37 43.80 C 70.39 39.51 53.38 47.73 46.80 61.71 C 40.74 73.46 42.83 88.61 51.57 98.47 C 60.97 109.60 78.07 113.74 91.25 107.15 C 97.26 104.48 101.98 99.69 107.86 96.82 C 117.42 92.63 129.78 97.06 134.58 106.32 C 137.75 112.66 137.38 120.63 133.76 126.72 C 129.98 132.84 124.20 137.44 118.19 141.24 C 106.76 148.32 93.49 152.05 80.13 153.00 L 71.72 153.00 C 55.62 151.92 39.85 145.88 27.53 135.40 C 11.22 121.85 1.12 101.35 0.00 80.20 L 0.00 72.59 C 1.16 52.69 10.19 33.37 24.95 19.94 C 37.68 8.07 54.62 1.05 71.97 0.00 Z" />
<path fill="#370505" opacity="1.00" d=" M 439.46 7.68 C 454.40 5.13 470.14 7.51 483.59 14.50 C 497.24 21.52 508.49 33.11 515.01 47.02 C 522.05 61.80 523.50 79.13 519.12 94.91 C 515.03 109.80 505.74 123.16 493.31 132.30 C 481.19 141.33 466.10 146.24 450.99 146.13 C 434.25 146.11 417.62 139.87 405.03 128.85 C 393.25 118.67 384.98 104.45 382.20 89.11 C 379.00 72.22 382.44 54.19 391.66 39.67 C 402.12 22.88 419.94 10.91 439.46 7.68 M 441.50 33.71 C 427.01 37.13 415.01 48.73 410.58 62.88 C 406.47 75.54 408.40 90.02 415.80 101.10 C 422.32 111.07 433.09 118.23 444.91 119.96 C 457.51 122.04 470.84 117.76 480.10 109.02 C 489.91 99.97 495.19 86.30 494.04 73.01 C 493.04 58.90 484.77 45.55 472.57 38.40 C 463.34 32.87 451.94 31.12 441.50 33.71 Z" />
<path fill="#370505" opacity="1.00" d=" M 1476.05 18.07 C 1488.68 6.04 1508.43 3.62 1524.46 9.54 C 1534.15 13.27 1542.75 20.97 1545.97 31.02 C 1546.97 33.45 1546.09 36.54 1543.58 37.61 C 1540.23 39.06 1536.71 40.37 1533.07 40.74 C 1529.37 40.38 1528.40 36.11 1526.29 33.71 C 1519.72 24.61 1506.70 23.00 1496.75 26.79 C 1489.21 29.54 1483.11 36.77 1483.11 45.01 C 1482.81 51.75 1486.93 58.06 1492.63 61.41 C 1498.26 64.85 1504.96 65.61 1511.20 67.43 C 1521.98 69.95 1532.86 74.21 1540.65 82.38 C 1546.17 88.06 1549.42 95.72 1550.00 103.60 L 1550.00 107.65 C 1549.54 116.58 1546.09 125.34 1540.12 132.01 C 1528.23 145.55 1508.22 149.06 1491.30 144.93 C 1476.42 141.39 1463.83 129.01 1460.75 113.94 C 1459.78 110.78 1462.19 108.05 1465.15 107.39 C 1468.75 106.47 1473.14 103.78 1476.59 106.38 C 1479.20 109.35 1480.16 113.36 1482.42 116.58 C 1485.99 122.45 1492.19 126.53 1498.97 127.58 C 1507.54 128.94 1517.15 127.72 1523.93 121.88 C 1530.11 116.64 1532.66 107.26 1529.33 99.76 C 1526.87 94.34 1521.44 91.08 1516.09 89.04 C 1506.02 85.39 1495.11 84.19 1485.51 79.28 C 1477.47 75.26 1470.25 68.93 1466.69 60.53 C 1460.54 46.26 1464.72 28.56 1476.05 18.07 Z" />
<path fill="#370505" opacity="1.00" d=" M 217.73 19.00 C 217.40 13.69 221.69 8.81 227.05 8.72 C 232.12 8.63 237.79 7.76 242.30 10.63 C 245.66 12.97 247.57 16.72 249.92 19.97 C 260.77 35.86 271.57 51.77 282.45 67.63 C 294.69 49.81 306.87 31.95 319.16 14.15 C 321.50 10.46 325.79 8.46 330.11 8.62 C 334.96 8.63 340.73 7.80 344.54 11.52 C 347.33 14.24 347.45 18.38 347.37 22.02 C 347.31 59.33 347.41 96.65 347.32 133.96 C 347.41 138.20 344.74 142.50 340.50 143.59 C 336.51 144.56 332.26 144.43 328.22 143.82 C 323.62 143.01 320.45 138.56 320.57 134.00 C 320.45 108.62 320.55 83.24 320.52 57.87 C 311.87 70.42 303.58 83.24 294.74 95.66 C 290.98 101.42 283.43 101.35 277.39 100.47 C 273.47 99.74 270.78 96.52 268.64 93.41 C 260.57 81.59 252.61 69.69 244.54 57.87 C 244.54 82.90 244.55 107.94 244.53 132.97 C 244.59 136.31 243.56 139.91 240.77 141.98 C 237.42 144.56 232.96 144.29 228.97 144.23 C 225.73 144.19 222.23 143.32 220.08 140.73 C 218.02 138.33 217.63 135.04 217.69 132.00 C 217.74 94.33 217.66 56.66 217.73 19.00 Z" />
<path fill="#370505" opacity="1.00" d=" M 558.43 11.29 C 560.99 8.90 564.69 8.52 568.05 8.57 C 582.02 8.60 595.99 8.56 609.97 8.59 C 621.59 8.55 633.07 13.53 641.07 21.94 C 650.51 31.65 655.20 46.08 652.30 59.42 C 649.91 70.31 642.58 79.67 633.32 85.69 C 639.48 90.98 643.98 98.05 646.41 105.78 C 648.40 112.17 650.15 118.62 652.05 125.03 C 653.02 128.65 654.48 132.23 654.48 136.02 C 654.36 140.44 650.18 143.57 646.07 144.03 C 642.35 144.35 638.56 144.46 634.87 143.85 C 631.16 143.17 628.43 140.03 627.46 136.50 C 625.07 128.53 623.00 120.47 620.59 112.51 C 617.69 103.37 609.57 95.77 599.85 94.73 C 593.96 94.21 588.02 94.60 582.11 94.49 C 582.09 107.68 582.17 120.88 582.08 134.08 C 582.23 139.16 578.17 143.83 573.03 144.07 C 568.34 144.29 562.99 144.94 558.99 141.93 C 555.94 139.64 555.15 135.60 555.26 132.00 C 555.26 95.00 555.27 57.99 555.26 20.98 C 555.19 17.55 555.70 13.69 558.43 11.29 M 582.12 33.87 C 582.11 45.65 582.11 57.42 582.12 69.20 C 590.73 69.20 599.35 69.20 607.96 69.20 C 612.08 69.29 616.26 68.03 619.44 65.37 C 625.18 60.74 627.19 52.34 624.66 45.48 C 622.39 38.94 615.96 33.97 608.97 33.91 C 600.02 33.80 591.07 33.90 582.12 33.87 Z" />
<path fill="#370505" opacity="1.00" d=" M 694.93 10.98 C 697.72 8.62 701.56 8.57 705.04 8.57 C 725.35 8.61 745.67 8.53 765.99 8.61 C 770.75 8.33 775.92 11.13 776.85 16.10 C 777.42 20.71 778.00 26.08 775.11 30.07 C 772.79 33.16 768.68 33.95 765.04 33.87 C 749.46 33.88 733.88 33.85 718.30 33.88 C 718.30 43.94 718.29 53.99 718.30 64.05 C 731.89 64.13 745.49 63.94 759.08 64.14 C 763.64 64.11 768.18 67.27 768.89 71.94 C 769.29 75.87 769.71 80.14 768.11 83.87 C 766.41 87.73 761.95 89.42 757.96 89.29 C 744.74 89.32 731.52 89.29 718.30 89.30 C 718.29 99.18 718.30 109.06 718.29 118.93 C 734.54 118.96 750.78 118.91 767.02 118.95 C 771.34 118.83 776.05 121.13 777.34 125.51 C 778.33 129.42 778.31 133.67 777.41 137.59 C 776.20 142.11 771.34 144.33 766.97 144.20 C 745.32 144.26 723.65 144.29 701.99 144.18 C 696.64 144.37 691.54 140.13 691.52 134.63 C 691.37 96.40 691.51 58.17 691.45 19.95 C 691.35 16.67 692.25 13.10 694.93 10.98 Z" />
<path fill="#370505" opacity="1.00" d=" M 846.26 12.21 C 847.29 9.56 850.29 8.49 852.95 8.59 C 881.29 8.56 909.64 8.59 937.99 8.58 C 940.92 8.38 944.35 9.65 945.24 12.73 C 946.00 15.70 945.89 18.88 945.40 21.89 C 944.83 24.87 941.80 26.64 938.91 26.57 C 927.63 26.67 916.34 26.57 905.06 26.61 C 905.05 63.40 905.07 100.19 905.05 136.99 C 905.30 140.21 903.37 143.76 899.94 144.20 C 896.68 144.51 893.26 144.77 890.09 143.84 C 886.91 142.73 886.04 139.06 886.20 136.06 C 886.19 99.58 886.21 63.09 886.19 26.61 C 874.81 26.55 863.43 26.69 852.05 26.55 C 848.90 26.60 845.89 24.20 845.72 20.96 C 845.51 18.06 845.23 14.99 846.26 12.21 Z" />
<path fill="#370505" opacity="1.00" d=" M 981.31 10.29 C 983.09 8.60 985.69 8.57 988.01 8.56 C 1009.98 8.62 1031.95 8.54 1053.91 8.60 C 1056.54 8.52 1059.49 9.75 1060.42 12.41 C 1061.36 15.47 1061.24 18.83 1060.68 21.96 C 1060.07 25.00 1056.93 26.68 1054.03 26.57 C 1035.39 26.65 1016.75 26.58 998.12 26.61 C 998.12 40.27 998.10 53.93 998.13 67.58 C 1013.72 67.59 1029.31 67.56 1044.90 67.59 C 1047.50 67.49 1050.52 68.47 1051.63 71.06 C 1052.74 73.88 1052.40 77.02 1052.23 79.98 C 1052.05 83.23 1049.02 85.61 1045.88 85.55 C 1029.96 85.69 1014.04 85.56 998.12 85.61 C 998.12 99.20 998.12 112.80 998.12 126.39 C 1017.03 126.42 1035.95 126.36 1054.87 126.42 C 1057.81 126.30 1061.02 127.95 1061.63 131.04 C 1062.19 134.15 1062.30 137.47 1061.40 140.52 C 1060.39 143.56 1056.93 144.60 1054.04 144.42 C 1031.38 144.39 1008.71 144.48 986.04 144.38 C 981.96 144.72 978.90 140.92 979.28 137.04 C 979.23 97.02 979.28 56.99 979.26 16.97 C 979.25 14.64 979.44 11.96 981.31 10.29 Z" />
<path fill="#370505" opacity="1.00" d=" M 1102.12 9.01 C 1105.65 8.26 1109.35 8.52 1112.94 8.75 C 1116.08 9.07 1118.25 11.63 1120.00 14.02 C 1143.63 46.79 1167.21 79.59 1190.88 112.33 C 1190.89 80.22 1190.88 48.10 1190.89 15.99 C 1190.60 12.76 1192.55 9.26 1195.98 8.79 C 1199.24 8.50 1202.68 8.22 1205.87 9.17 C 1208.61 10.16 1209.77 13.23 1209.67 15.95 C 1209.69 55.62 1209.64 95.29 1209.69 134.95 C 1209.81 138.03 1209.63 141.99 1206.46 143.54 C 1202.88 145.02 1198.84 144.35 1195.08 144.30 C 1190.50 144.04 1188.09 139.67 1185.66 136.40 C 1162.68 104.48 1139.67 72.58 1116.68 40.67 C 1116.65 72.78 1116.70 104.89 1116.65 137.00 C 1116.82 140.07 1115.20 143.47 1111.95 144.12 C 1108.49 144.53 1104.79 144.85 1101.45 143.72 C 1098.40 142.53 1097.67 138.93 1097.81 136.02 C 1097.84 96.01 1097.79 56.00 1097.84 15.99 C 1097.69 13.10 1099.09 9.81 1102.12 9.01 Z" />
<path fill="#370505" opacity="1.00" d=" M 1249.01 15.91 C 1248.79 12.74 1250.68 9.30 1254.03 8.81 C 1257.33 8.41 1260.68 8.48 1264.00 8.74 C 1267.12 9.01 1269.33 11.51 1271.06 13.89 C 1294.71 46.68 1318.34 79.49 1341.99 112.28 C 1342.00 81.53 1342.01 50.78 1341.99 20.03 C 1342.07 17.13 1341.59 13.94 1343.18 11.34 C 1344.60 9.00 1347.56 8.52 1350.09 8.56 C 1353.19 8.59 1356.94 8.14 1359.24 10.71 C 1360.98 12.71 1360.85 15.52 1360.88 18.00 C 1360.83 57.69 1360.90 97.38 1360.85 137.07 C 1361.03 140.17 1359.27 143.58 1356.00 144.15 C 1352.68 144.61 1349.30 144.50 1345.98 144.27 C 1342.28 144.00 1339.98 140.78 1338.00 138.03 C 1314.64 105.61 1291.30 73.17 1267.89 40.78 C 1267.81 72.88 1267.93 104.99 1267.83 137.09 C 1267.96 140.17 1266.28 143.53 1263.04 144.14 C 1259.75 144.54 1256.31 144.74 1253.09 143.91 C 1250.19 143.05 1248.89 139.88 1249.01 137.09 C 1248.99 96.69 1248.99 56.30 1249.01 15.91 Z" />
<path fill="#370505" opacity="1.00" d=" M 1406.30 9.45 C 1409.62 8.05 1413.44 8.53 1416.95 8.83 C 1420.27 9.37 1422.05 12.82 1421.86 15.95 C 1421.87 56.31 1421.87 96.67 1421.86 137.03 C 1422.05 140.14 1420.31 143.58 1417.03 144.14 C 1413.75 144.55 1410.32 144.73 1407.12 143.91 C 1404.23 143.04 1402.94 139.88 1403.07 137.08 C 1403.04 97.41 1403.09 57.74 1403.04 18.07 C 1402.91 14.99 1403.09 10.98 1406.30 9.45 Z" />
</g>
</svg>
