<?xml version="1.0" encoding="UTF-8" standalone="no"?>
<!-- Created with Inkscape (http://www.inkscape.org/) -->

<svg
   xmlns:dc="http://purl.org/dc/elements/1.1/"
   xmlns:cc="http://creativecommons.org/ns#"
   xmlns:rdf="http://www.w3.org/1999/02/22-rdf-syntax-ns#"
   xmlns:svg="http://www.w3.org/2000/svg"
   xmlns="http://www.w3.org/2000/svg"
   xmlns:inkscape="http://www.inkscape.org/namespaces/inkscape"
   version="1.1"
   width="648.88751"
   height="299.77499"
   id="svg2"
   xml:space="preserve"><metadata
     id="metadata8"><rdf:RDF><cc:Work
         rdf:about=""><dc:format>image/svg+xml</dc:format><dc:type
           rdf:resource="http://purl.org/dc/dcmitype/StillImage" /></cc:Work></rdf:RDF></metadata><defs
     id="defs6" /><g
     transform="matrix(1.25,0,0,-1.25,0,299.775)"
     id="g10"><g
       transform="scale(0.1,0.1)"
       id="g12"><path
         d="m 936.797,839.52 0,609.39 159.343,0 219.06,-378.2 -5.81,378.2 146.66,0 0,-609.39 -158.3,0 -213.23,355.72 -1.95,-355.72 -145.773,0 0,0"
         inkscape:connector-curvature="0"
         id="path14"
         style="fill:#b91c29;fill-opacity:1;fill-rule:nonzero;stroke:none" /><path
         d="m 1710.37,839.52 0.76,470.1 -179.77,0 -0.76,139.29 520.13,0 0.75,-139.29 -186.45,0 -0.76,-470.1 -153.9,0 0,0"
         inkscape:connector-curvature="0"
         id="path16"
         style="fill:#b91c29;fill-opacity:1;fill-rule:nonzero;stroke:none" /><path
         d="m 527.574,839.52 0.762,470.1 -179.777,0 -0.75,139.29 520.121,0 0.761,-139.29 -186.445,0 -0.762,-470.1 -153.91,0 0,0"
         inkscape:connector-curvature="0"
         id="path18"
         style="fill:#b91c29;fill-opacity:1;fill-rule:nonzero;stroke:none" /><path
         d="M 179.934,1199.1 C 179.977,917.359 293.871,663.141 478.43,478.43 l 0,0 C 663.164,293.859 917.367,179.988 1199.11,179.941 l 0,0 c 281.7,0.047 535.94,113.918 720.66,298.489 l 0,0 c 184.56,184.711 298.45,438.929 298.5,720.67 l 0,0 c -0.05,281.73 -113.94,535.95 -298.5,720.66 l 0,0 c -184.72,184.58 -438.96,298.47 -720.66,298.51 l 0,0 C 917.367,2218.23 663.164,2104.34 478.43,1919.76 l 0,0 C 293.871,1735.05 179.977,1480.83 179.934,1199.1 l 0,0 z M 0,1199.1 c 0.046875,662.29 536.82,1199.04 1199.11,1199.11 l 0,0 c 662.29,-0.07 1199.02,-536.82 1199.08,-1199.11 l 0,0 C 2398.13,536.809 1861.4,0.078125 1199.11,0 l 0,0 C 536.82,0.078125 0.046875,536.809 0,1199.1 l 0,0"
         inkscape:connector-curvature="0"
         id="path20"
         style="fill:#b91c29;fill-opacity:1;fill-rule:nonzero;stroke:none" /><path
         d="m 2687.89,982.539 c 7.36,-14.219 17.17,-25.738 29.41,-34.539 12.22,-8.809 26.57,-15.352 43.07,-19.609 16.48,-4.27 33.53,-6.403 51.16,-6.403 11.97,0 24.76,0.992 38.39,2.973 13.63,1.988 26.45,5.84 38.4,11.519 11.95,5.68 21.87,13.5 29.84,23.469 7.96,9.942 11.96,22.59 11.96,37.922 0,16.499 -5.29,29.859 -15.78,40.109 -10.54,10.22 -24.34,18.77 -41.37,25.6 -17.07,6.8 -36.42,12.77 -58.01,17.89 -21.62,5.12 -43.5,10.8 -65.66,17.07 -22.77,5.69 -44.93,12.65 -66.56,20.9 -21.59,8.24 -40.91,18.9 -57.98,31.97 -17.05,13.1 -30.84,29.44 -41.37,49.05 -10.52,19.61 -15.76,43.35 -15.76,71.23 0,31.28 6.65,58.41 20.04,81.44 13.33,23.04 30.83,42.22 52.44,57.59 21.6,15.35 46.05,26.73 73.36,34.1 27.28,7.39 54.57,11.09 81.85,11.09 31.86,0 62.41,-3.56 91.71,-10.66 29.29,-7.11 55.3,-18.61 78.05,-34.53 22.72,-15.95 40.8,-36.25 54.16,-60.98 13.35,-24.75 20.05,-54.73 20.05,-89.99 l -129.64,0 c -1.16,18.19 -4.99,33.27 -11.54,45.2 -6.52,11.94 -15.21,21.33 -26,28.14 -10.81,6.82 -23.17,11.63 -37.11,14.5 -13.93,2.85 -29.15,4.26 -45.63,4.26 -10.79,0 -21.62,-1.11 -32.42,-3.41 -10.79,-2.26 -20.59,-6.26 -29.41,-11.93 -8.85,-5.71 -16.08,-12.81 -21.75,-21.33 -5.7,-8.53 -8.55,-19.33 -8.55,-32.42 0,-11.92 2.29,-21.59 6.84,-28.98 4.53,-7.42 13.49,-14.23 26.87,-20.47 13.37,-6.28 31.85,-12.52 55.44,-18.77 23.6,-6.26 54.46,-14.22 92.56,-23.89 11.35,-2.27 27.13,-6.39 47.32,-12.34 20.19,-6 40.22,-15.52 60.14,-28.6 19.88,-13.1 37.09,-30.56 51.59,-52.46 14.5,-21.88 21.75,-49.88 21.75,-84 0,-27.879 -5.4,-53.73 -16.21,-77.609 -10.82,-23.891 -26.86,-44.512 -48.19,-61.852 -21.33,-17.34 -47.74,-30.848 -79.33,-40.508 -31.55,-9.66 -68.11,-14.492 -109.6,-14.492 -33.53,0 -66.09,4.121 -97.65,12.359 -31.54,8.231 -59.42,21.161 -83.57,38.813 -24.2,17.617 -43.38,40.078 -57.57,67.379 -14.23,27.301 -21.05,59.699 -20.49,97.22 l 129.65,0 c 0,-20.46 3.69,-37.798 11.1,-52.021"
         inkscape:connector-curvature="0"
         id="path22"
         style="fill:#b91c29;fill-opacity:1;fill-rule:nonzero;stroke:none" /><path
         d="m 3594.51,1441.42 0,-112.6 -321.55,0 0,-130.49 295.11,0 0,-104.05 -295.11,0 0,-149.249 328.37,0 0,-112.59 -462.28,0 0,608.979 455.46,0"
         inkscape:connector-curvature="0"
         id="path24"
         style="fill:#b91c29;fill-opacity:1;fill-rule:nonzero;stroke:none" /><path
         d="m 3972.35,1165.92 c 30.73,0 53.73,6.82 69.11,20.47 15.35,13.67 23.02,35.82 23.02,66.53 0,29.54 -7.67,51.03 -23.02,64.4 -15.38,13.34 -38.38,20.04 -69.11,20.04 l -146.68,0 0,-171.44 146.68,0 z m 47.78,275.5 c 27.28,0 51.88,-4.42 73.77,-13.24 21.88,-8.81 40.65,-20.88 56.31,-36.24 15.62,-15.35 27.55,-33.13 35.82,-53.3 8.23,-20.2 12.36,-41.95 12.36,-65.25 0,-35.82 -7.55,-66.83 -22.6,-92.97 -15.08,-26.15 -39.67,-46.04 -73.79,-59.69 l 0,-1.72 c 16.5,-4.55 30.14,-11.52 40.94,-20.9 10.79,-9.39 19.63,-20.47 26.45,-33.26 6.83,-12.79 11.79,-26.87 14.95,-42.21 3.08,-15.35 5.23,-30.718 6.37,-46.07 0.56,-9.691 1.14,-21.05 1.7,-34.109 0.56,-13.102 1.56,-26.441 3,-40.082 1.41,-13.668 3.67,-26.59 6.82,-38.809 3.1,-12.242 7.81,-22.64 14.07,-31.129 l -133.91,0 c -7.39,19.297 -11.95,42.329 -13.65,69.079 -1.7,26.71 -4.26,52.308 -7.68,76.761 -4.56,31.829 -14.22,55.139 -28.98,69.919 -14.82,14.79 -38.97,22.18 -72.5,22.18 l -133.91,0 0,-237.939 -133.91,0 0,608.979 328.37,0"
         inkscape:connector-curvature="0"
         id="path26"
         style="fill:#b91c29;fill-opacity:1;fill-rule:nonzero;stroke:none" /><path
         d="m 4307.56,832.441 133.891,0 0,608.98 -133.891,0 0,-608.98 z"
         inkscape:connector-curvature="0"
         id="path28"
         style="fill:#b91c29;fill-opacity:1;fill-rule:nonzero;stroke:none" /><path
         d="m 5014.62,1441.42 0,-112.6 -321.55,0 0,-130.49 295.1,0 0,-104.05 -295.1,0 0,-149.249 328.37,0 0,-112.59 -462.3,0 0,608.979 455.48,0"
         inkscape:connector-curvature="0"
         id="path30"
         style="fill:#b91c29;fill-opacity:1;fill-rule:nonzero;stroke:none" /><g
         transform="scale(10,10)"
         id="g32"><text
           transform="matrix(1,0,0,-1,505.919,137.046)"
           id="text34"><tspan
             x="0 5.0404744"
             y="0"
             id="tspan36"
             style="font-size:10.14179993px;font-variant:normal;font-weight:normal;writing-mode:lr-tb;fill:#b91c29;fill-opacity:1;fill-rule:nonzero;stroke:none;font-family:MyriadPro;-inkscape-font-specification:MyriadPro-Regular">TM</tspan></text>
</g></g></g></svg>