<?xml version="1.0" encoding="UTF-8" standalone="yes"?>
<svg xmlns="http://www.w3.org/2000/svg" xmlns:xlink="http://www.w3.org/1999/xlink" width="106.66666666666666px" height="106.66666666666666px" viewBox="0 0 80 80" version="1.1">
  <g id="surface1">
    <path style=" stroke:none;fill-rule:nonzero;fill:rgb(0%,20.784314%,37.254902%);fill-opacity:1;" d="M 38.328125 0 L 41.691406 0 C 47.738281 0.273438 53.726562 1.894531 59.042969 4.792969 C 67.1875 9.191406 73.71875 16.496094 77.152344 25.097656 C 78.847656 29.292969 79.785156 33.789062 80 38.308594 L 80 41.671875 C 79.714844 48.195312 77.839844 54.640625 74.511719 60.261719 C 69.285156 69.199219 60.472656 75.96875 50.460938 78.636719 C 47.636719 79.414062 44.722656 79.832031 41.800781 80 L 38.328125 80 C 31.105469 79.683594 23.972656 77.402344 17.957031 73.386719 C 9.601562 67.894531 3.429688 59.164062 1.097656 49.429688 C 0.476562 46.890625 0.140625 44.285156 0 41.675781 L 0 38.308594 C 0.195312 34.238281 0.964844 30.191406 2.367188 26.363281 C 5.269531 18.332031 10.832031 11.300781 17.964844 6.609375 C 23.980469 2.59375 31.109375 0.316406 38.328125 0 M 37.21875 6.527344 C 28.460938 7.21875 20.085938 11.558594 14.433594 18.273438 C 9.828125 23.65625 7 30.535156 6.519531 37.601562 C 6.128906 43 7.066406 48.492188 9.253906 53.445312 C 11.5625 58.726562 15.261719 63.386719 19.871094 66.84375 C 23.289062 69.429688 27.214844 71.34375 31.355469 72.449219 C 38.003906 74.242188 45.207031 73.90625 51.660156 71.496094 C 57.214844 69.441406 62.1875 65.875 65.945312 61.300781 C 70.132812 56.230469 72.785156 49.90625 73.425781 43.359375 C 74.285156 35.183594 71.964844 26.734375 67.070312 20.132812 C 63.566406 15.375 58.804688 11.550781 53.382812 9.195312 C 48.328125 6.984375 42.71875 6.058594 37.21875 6.527344 Z M 37.21875 6.527344 "/>
    <path style=" stroke:none;fill-rule:nonzero;fill:rgb(0%,20.784314%,37.254902%);fill-opacity:1;" d="M 11.878906 31.882812 C 17.628906 31.878906 23.371094 31.882812 29.117188 31.878906 C 29.121094 33.386719 29.117188 34.894531 29.121094 36.398438 C 27.132812 36.40625 25.144531 36.394531 23.160156 36.402344 C 23.160156 41.601562 23.160156 46.800781 23.160156 52 C 21.398438 52 19.640625 52 17.878906 52 C 17.882812 46.800781 17.875 41.605469 17.886719 36.40625 C 15.882812 36.390625 13.882812 36.40625 11.882812 36.398438 C 11.878906 34.894531 11.878906 33.386719 11.878906 31.882812 Z M 11.878906 31.882812 "/>
    <path style=" stroke:none;fill-rule:nonzero;fill:rgb(0%,20.784314%,37.254902%);fill-opacity:1;" d="M 31.363281 31.878906 C 33.164062 31.886719 34.964844 31.875 36.769531 31.886719 C 39.09375 36.007812 41.414062 40.136719 43.753906 44.25 C 43.765625 40.128906 43.761719 36.007812 43.753906 31.890625 C 45.40625 31.867188 47.0625 31.886719 48.71875 31.878906 C 48.726562 38.585938 48.71875 45.292969 48.71875 52 C 46.902344 51.984375 45.085938 52.03125 43.273438 51.972656 C 40.980469 47.808594 38.660156 43.65625 36.328125 39.507812 C 36.308594 43.671875 36.328125 47.835938 36.320312 52 C 34.667969 52 33.011719 52 31.359375 52 C 31.363281 45.292969 31.355469 38.585938 31.363281 31.878906 Z M 31.363281 31.878906 "/>
    <path style=" stroke:none;fill-rule:nonzero;fill:rgb(0%,20.784314%,37.254902%);fill-opacity:1;" d="M 50.960938 31.878906 C 56.714844 31.875 62.46875 31.894531 68.222656 31.867188 C 68.261719 33.378906 68.230469 34.890625 68.238281 36.398438 C 66.242188 36.398438 64.246094 36.40625 62.246094 36.398438 C 62.230469 41.597656 62.246094 46.796875 62.238281 52 C 60.480469 52 58.71875 52 56.960938 52 C 56.957031 46.796875 56.96875 41.597656 56.953125 36.398438 C 54.957031 36.402344 52.957031 36.398438 50.960938 36.398438 C 50.960938 34.894531 50.957031 33.386719 50.960938 31.878906 Z M 50.960938 31.878906 "/>
  </g>
</svg>