<?xml version="1.0" encoding="UTF-8" ?>
<!DOCTYPE svg PUBLIC "-//W3C//DTD SVG 1.1//EN" "http://www.w3.org/Graphics/SVG/1.1/DTD/svg11.dtd">
<svg width="500pt" height="224pt" viewBox="0 0 500 224" version="1.1" xmlns="http://www.w3.org/2000/svg">
<g id="#f6b059ff">
<path fill="#f6b059" opacity="1.00" d=" M 70.05 10.31 C 85.68 3.94 102.78 0.85 119.64 2.29 C 114.41 3.11 109.07 2.46 103.87 3.55 C 99.52 4.45 94.82 4.42 90.87 6.69 C 92.96 11.20 97.74 13.28 102.20 14.67 C 108.10 15.58 114.11 14.79 120.05 14.89 C 126.10 15.18 130.65 10.53 134.83 6.81 C 135.93 5.67 137.44 5.19 139.00 5.19 C 143.78 6.29 148.38 8.01 152.97 9.69 C 148.31 7.74 146.62 13.43 144.15 16.13 C 142.88 18.41 140.34 19.09 137.93 19.35 C 131.79 17.70 125.42 17.21 119.13 16.41 C 110.17 15.32 101.14 16.76 92.31 18.26 C 89.64 18.37 86.97 18.43 84.30 18.68 C 80.86 16.44 79.10 12.69 77.50 9.06 C 75.61 9.57 73.72 10.08 71.84 10.61 L 70.05 10.31 Z" />
</g>
<g id="#fec766ff">
<path fill="#fec766" opacity="1.00" d=" M 119.64 2.29 C 126.18 2.39 132.64 3.75 139.00 5.19 C 137.44 5.19 135.93 5.67 134.83 6.81 C 130.65 10.53 126.10 15.18 120.05 14.89 C 114.11 14.79 108.10 15.58 102.20 14.67 C 97.74 13.28 92.96 11.20 90.87 6.69 C 94.82 4.42 99.52 4.45 103.87 3.55 C 109.07 2.46 114.41 3.11 119.64 2.29 Z" />
</g>
<g id="#e9a354ff">
<path fill="#e9a354" opacity="1.00" d=" M 77.50 9.06 C 79.10 12.69 80.86 16.44 84.30 18.68 C 86.97 18.43 89.64 18.37 92.31 18.26 C 85.78 19.84 79.37 21.88 73.10 24.29 C 72.40 24.14 70.99 23.84 70.29 23.70 C 68.47 20.57 67.53 16.86 64.63 14.47 C 67.12 13.34 69.53 12.06 71.84 10.61 C 73.72 10.08 75.61 9.57 77.50 9.06 Z" />
</g>
<g id="#e6a154ff">
<path fill="#e6a154" opacity="1.00" d=" M 144.15 16.13 C 146.62 13.43 148.31 7.74 152.97 9.69 C 154.32 10.15 155.63 10.71 156.94 11.27 C 156.41 11.43 155.36 11.75 154.84 11.91 C 157.90 12.37 160.56 13.98 163.19 15.51 C 160.28 18.11 159.66 22.00 158.68 25.57 C 158.01 25.75 156.67 26.13 156.00 26.32 C 150.25 23.34 143.88 21.85 137.93 19.35 C 140.34 19.09 142.88 18.41 144.15 16.13 Z" />
</g>
<g id="#755433ff">
<path fill="#755433" opacity="1.00" d=" M 3.27 95.28 C 8.46 57.85 34.97 24.26 70.05 10.31 L 71.84 10.61 C 69.53 12.06 67.12 13.34 64.63 14.47 C 47.59 23.08 32.86 36.17 21.86 51.73 C 20.68 53.59 19.65 55.55 18.63 57.51 C 17.71 59.26 16.74 60.99 15.81 62.74 C 14.83 64.62 13.88 66.52 13.01 68.46 C 10.13 75.02 7.83 81.84 6.38 88.86 C 6.02 90.53 5.69 92.22 5.39 93.90 C 5.07 95.71 4.79 97.52 4.53 99.34 C 4.13 97.98 3.67 96.64 3.27 95.28 Z" />
<path fill="#755433" opacity="1.00" d=" M 249.47 145.34 C 249.12 126.61 249.13 107.82 249.42 89.08 C 249.69 89.44 250.23 90.14 250.50 90.49 C 250.65 91.04 250.94 92.14 251.08 92.69 C 250.47 99.11 250.97 105.55 251.10 111.97 C 251.18 122.24 251.27 132.51 251.33 142.78 C 256.54 143.57 261.80 142.52 267.00 143.20 C 267.61 143.57 268.81 144.31 269.42 144.68 C 262.83 145.82 256.12 144.99 249.47 145.34 Z" />
<path fill="#755433" opacity="1.00" d=" M 452.91 111.71 C 453.85 108.52 455.10 105.43 456.46 102.40 C 455.99 104.90 455.50 107.42 455.43 109.98 C 455.46 121.48 455.63 132.99 455.43 144.49 L 455.27 144.64 C 454.17 133.75 455.65 122.71 454.45 111.82 C 451.49 122.44 447.11 132.60 444.01 143.17 C 438.99 144.84 433.63 143.49 428.50 144.50 C 428.32 144.20 427.97 143.60 427.79 143.31 C 432.43 143.03 437.09 143.31 441.73 142.93 C 445.81 132.66 449.48 122.21 452.91 111.71 Z" />
<path fill="#755433" opacity="1.00" d=" M 190.37 186.94 C 191.15 186.16 191.94 185.38 192.72 184.58 C 192.73 185.22 192.74 186.51 192.75 187.15 C 192.00 188.78 190.35 189.84 189.13 191.13 C 169.97 209.80 143.75 221.02 117.02 221.97 C 86.63 223.48 55.92 211.65 34.43 190.13 C 34.53 189.53 34.72 188.34 34.82 187.74 C 35.19 188.09 35.91 188.78 36.28 189.13 C 37.62 190.39 38.96 191.66 40.36 192.86 C 45.87 197.76 51.82 202.16 58.26 205.74 C 59.54 206.45 60.81 207.18 62.11 207.87 C 64.72 209.20 67.41 210.38 70.00 211.76 C 85.39 218.33 102.33 221.25 119.04 219.89 C 128.88 219.31 138.68 217.71 147.99 214.41 C 150.55 213.53 153.06 212.51 155.47 211.27 C 157.25 210.38 159.05 209.52 160.84 208.64 C 162.33 207.90 163.81 207.13 165.26 206.32 C 172.97 202.06 180.21 196.91 186.52 190.75 C 187.82 189.51 189.09 188.22 190.37 186.94 Z" />
</g>
<g id="#5a472aff">
<path fill="#5a472a" opacity="1.00" d=" M 154.84 11.91 C 155.36 11.75 156.41 11.43 156.94 11.27 C 180.54 21.42 200.18 40.39 211.47 63.45 C 221.58 83.85 224.97 107.45 221.23 129.90 C 217.96 150.27 208.71 169.59 195.07 185.04 C 194.34 185.80 193.57 186.50 192.75 187.15 C 192.74 186.51 192.73 185.22 192.72 184.58 C 193.16 184.10 194.03 183.13 194.46 182.65 C 195.85 181.08 197.17 179.45 198.43 177.78 C 200.25 175.35 201.92 172.82 203.65 170.33 C 206.76 166.24 209.09 161.65 210.96 156.87 C 217.48 144.09 220.13 129.64 220.61 115.41 C 220.65 112.59 220.93 109.77 220.85 106.95 C 220.45 102.91 220.53 98.82 219.77 94.82 C 219.48 93.15 219.20 91.48 218.80 89.84 C 217.35 82.47 215.03 75.29 212.02 68.41 C 211.11 66.36 210.11 64.35 209.09 62.35 C 208.43 61.07 207.75 59.80 207.05 58.55 C 205.89 56.53 204.65 54.57 203.42 52.60 C 193.40 37.14 179.29 24.40 163.19 15.51 C 160.56 13.98 157.90 12.37 154.84 11.91 Z" />
</g>
<g id="#d79851ff">
<path fill="#d79851" opacity="1.00" d=" M 21.86 51.73 C 32.86 36.17 47.59 23.08 64.63 14.47 C 67.53 16.86 68.47 20.57 70.29 23.70 C 70.99 23.84 72.40 24.14 73.10 24.29 C 56.26 31.88 41.39 44.09 31.48 59.76 C 29.23 56.08 24.98 54.51 21.86 51.73 Z" />
</g>
<g id="#a37031ff">
<path fill="#a37031" opacity="1.00" d=" M 92.31 18.26 C 101.14 16.76 110.17 15.32 119.13 16.41 C 125.42 17.21 131.79 17.70 137.93 19.35 C 143.88 21.85 150.25 23.34 156.00 26.32 C 171.02 34.15 184.17 45.70 193.36 59.99 C 194.90 62.36 196.38 64.77 197.70 67.28 C 199.17 70.43 200.28 73.73 201.74 76.89 C 203.44 80.45 204.78 84.17 205.60 88.03 C 206.51 93.63 208.27 99.13 208.35 104.84 C 208.33 107.07 208.33 109.30 208.41 111.53 C 208.04 111.93 207.31 112.73 206.95 113.13 C 206.77 115.99 206.90 119.00 205.34 121.54 C 206.28 106.83 204.69 91.81 199.14 78.07 C 190.52 55.84 172.89 37.37 151.20 27.53 C 134.08 19.59 114.54 17.26 95.98 20.48 C 72.63 24.50 51.15 37.91 37.15 57.01 C 24.12 74.53 17.89 96.67 19.20 118.42 C 16.59 112.95 19.57 106.62 16.74 101.23 C 16.86 100.17 16.99 99.13 17.12 98.08 C 17.58 94.34 18.41 90.66 19.29 87.00 C 20.41 82.99 21.65 79.00 23.30 75.17 C 24.60 72.08 25.98 69.01 27.61 66.07 C 28.82 63.92 30.13 61.83 31.48 59.76 C 41.39 44.09 56.26 31.88 73.10 24.29 C 79.37 21.88 85.78 19.84 92.31 18.26 Z" />
</g>
<g id="#d69750ff">
<path fill="#d69750" opacity="1.00" d=" M 163.19 15.51 C 179.29 24.40 193.40 37.14 203.42 52.60 C 200.21 55.26 196.55 57.31 193.36 59.99 C 184.17 45.70 171.02 34.15 156.00 26.32 C 156.67 26.13 158.01 25.75 158.68 25.57 C 159.66 22.00 160.28 18.11 163.19 15.51 Z" />
</g>
<g id="#eeaa58ff">
<path fill="#eeaa58" opacity="1.00" d=" M 21.86 51.73 C 24.98 54.51 29.23 56.08 31.48 59.76 C 30.13 61.83 28.82 63.92 27.61 66.07 C 24.47 63.38 21.47 60.52 18.63 57.51 C 19.65 55.55 20.68 53.59 21.86 51.73 Z" />
</g>
<g id="#ecaa5aff">
<path fill="#ecaa5a" opacity="1.00" d=" M 193.36 59.99 C 196.55 57.31 200.21 55.26 203.42 52.60 C 204.65 54.57 205.89 56.53 207.05 58.55 C 204.03 61.56 201.02 64.59 197.70 67.28 C 196.38 64.77 194.90 62.36 193.36 59.99 Z" />
</g>
<g id="#fdbd63ff">
<path fill="#fdbd63" opacity="1.00" d=" M 15.81 62.74 C 16.74 60.99 17.71 59.26 18.63 57.51 C 21.47 60.52 24.47 63.38 27.61 66.07 C 25.98 69.01 24.60 72.08 23.30 75.17 C 22.47 70.18 19.08 66.36 15.81 62.74 Z" />
</g>
<g id="#f9c167ff">
<path fill="#f9c167" opacity="1.00" d=" M 197.70 67.28 C 201.02 64.59 204.03 61.56 207.05 58.55 C 207.75 59.80 208.43 61.07 209.09 62.35 C 206.53 67.13 202.85 71.45 201.74 76.89 C 200.28 73.73 199.17 70.43 197.70 67.28 Z" />
</g>
<g id="#fbd983ff">
<path fill="#fbd983" opacity="1.00" d=" M 15.81 62.74 C 19.08 66.36 22.47 70.18 23.30 75.17 C 21.65 79.00 20.41 82.99 19.29 87.00 C 16.14 91.57 10.93 94.13 5.39 93.90 C 5.69 92.22 6.02 90.53 6.38 88.86 C 9.80 87.92 13.64 86.89 15.59 83.63 C 18.34 78.79 17.20 72.13 13.01 68.46 C 13.88 66.52 14.83 64.62 15.81 62.74 Z" />
</g>
<g id="#fcd780ff">
<path fill="#fcd780" opacity="1.00" d=" M 201.74 76.89 C 202.85 71.45 206.53 67.13 209.09 62.35 C 210.11 64.35 211.11 66.36 212.02 68.41 C 207.63 70.95 207.63 76.79 208.74 81.12 C 210.80 85.22 214.93 87.67 218.80 89.84 C 219.20 91.48 219.48 93.15 219.77 94.82 C 214.74 93.23 209.86 91.20 205.60 88.03 C 204.78 84.17 203.44 80.45 201.74 76.89 Z" />
</g>
<g id="#fceaa7ff">
<path fill="#fceaa7" opacity="1.00" d=" M 13.01 68.46 C 17.20 72.13 18.34 78.79 15.59 83.63 C 13.64 86.89 9.80 87.92 6.38 88.86 C 7.83 81.84 10.13 75.02 13.01 68.46 Z" />
</g>
<g id="#fbe7a4ff">
<path fill="#fbe7a4" opacity="1.00" d=" M 208.74 81.12 C 207.63 76.79 207.63 70.95 212.02 68.41 C 215.03 75.29 217.35 82.47 218.80 89.84 C 214.93 87.67 210.80 85.22 208.74 81.12 Z" />
</g>
<g id="#f8bd66ff">
<path fill="#f8bd66" opacity="1.00" d=" M 5.39 93.90 C 10.93 94.13 16.14 91.57 19.29 87.00 C 18.41 90.66 17.58 94.34 17.12 98.08 C 13.52 100.96 8.51 99.07 4.40 100.78 C 4.44 100.42 4.50 99.70 4.53 99.34 C 4.79 97.52 5.07 95.71 5.39 93.90 Z" />
</g>
<g id="#f2b35eff">
<path fill="#f2b35e" opacity="1.00" d=" M 205.60 88.03 C 209.86 91.20 214.74 93.23 219.77 94.82 C 220.53 98.82 220.45 102.91 220.85 106.95 C 217.46 103.83 212.56 102.51 208.35 104.84 C 208.27 99.13 206.51 93.63 205.60 88.03 Z" />
</g>
<g id="#d29c55fc">
<path fill="#d29c55" opacity="1.00" d=" M 475.67 89.71 C 476.66 88.27 478.55 89.02 480.00 88.81 C 481.94 89.01 484.28 88.20 485.79 89.83 C 486.35 89.54 487.46 88.96 488.02 88.66 C 490.36 90.90 490.42 94.79 491.76 97.69 C 492.78 94.73 493.90 91.81 494.94 88.86 C 496.33 88.37 497.95 89.27 497.50 90.86 C 497.66 94.29 497.98 97.72 497.97 101.16 C 497.51 101.12 496.59 101.03 496.14 100.99 C 495.93 98.28 495.84 95.56 495.46 92.86 C 494.59 95.54 493.79 98.25 492.69 100.85 C 492.29 100.86 491.50 100.89 491.11 100.91 C 489.93 98.13 489.09 95.22 488.52 92.26 C 488.03 95.05 487.85 97.89 487.65 100.71 C 487.18 100.86 486.24 101.16 485.77 101.31 C 485.86 97.47 486.13 93.63 486.48 89.81 C 484.98 90.84 483.35 91.13 481.57 90.67 C 479.60 90.39 477.63 90.03 475.67 89.71 Z" />
</g>
<g id="#c1894bff">
<path fill="#c1894b" opacity="1.00" d=" M 34.20 89.16 C 50.24 89.12 66.28 89.03 82.32 89.12 C 81.67 89.32 80.38 89.71 79.74 89.91 C 79.52 93.25 79.74 96.59 79.71 99.93 C 73.95 99.67 68.18 99.87 62.42 99.83 C 62.30 114.26 62.53 128.69 62.58 143.12 C 63.22 143.51 64.51 144.28 65.15 144.67 L 65.62 145.23 C 60.65 145.43 55.67 145.25 50.69 145.36 C 50.67 130.98 50.65 116.60 50.68 102.23 C 50.91 101.62 51.36 100.42 51.59 99.81 C 47.06 99.88 42.53 99.66 38.01 99.87 C 36.37 99.65 35.36 100.96 34.46 102.08 L 34.06 102.48 C 34.40 98.05 34.20 93.60 34.20 89.16 Z" />
<path fill="#c1894b" opacity="1.00" d=" M 122.50 89.16 C 127.07 89.20 131.64 89.09 136.21 89.18 C 136.18 107.14 136.21 125.10 136.17 143.06 C 136.07 143.64 135.87 144.80 135.77 145.38 C 130.90 145.28 126.03 145.28 121.17 145.38 L 121.41 145.03 C 122.02 144.06 123.26 143.04 122.17 141.91 C 117.57 134.36 113.08 126.73 108.23 119.33 C 108.77 117.78 109.31 116.23 109.85 114.68 C 112.76 117.17 115.35 120.38 119.32 121.16 C 121.21 124.34 122.72 127.78 125.16 130.60 C 124.13 123.50 125.75 116.41 125.16 109.29 C 125.06 103.28 125.17 97.27 125.20 91.27 C 128.66 91.26 132.30 91.64 135.47 89.96 C 131.29 88.95 126.97 89.16 122.72 89.31 C 122.70 93.62 122.74 97.94 122.73 102.25 C 122.27 97.90 122.64 93.52 122.50 89.16 Z" />
</g>
<g id="#f6ce74ff">
<path fill="#f6ce74" opacity="1.00" d=" M 88.13 89.22 C 93.08 89.14 98.02 89.19 102.97 89.14 C 109.79 100.38 116.15 111.90 123.01 123.12 C 122.96 116.67 122.63 110.22 122.85 103.76 C 123.55 105.63 124.40 107.44 125.16 109.29 C 125.75 116.41 124.13 123.50 125.16 130.60 C 122.72 127.78 121.21 124.34 119.32 121.16 C 117.65 118.15 115.89 115.21 114.16 112.23 C 110.86 106.21 107.47 100.21 103.76 94.44 C 100.63 88.90 93.24 92.77 88.36 90.23 L 88.13 89.22 Z" />
</g>
<g id="#be874bff">
<path fill="#be874b" opacity="1.00" d=" M 143.14 89.24 C 158.92 88.87 174.86 89.20 190.71 89.17 C 190.70 93.53 190.55 97.91 190.83 102.27 C 190.33 101.70 189.35 100.55 188.86 99.98 C 183.58 99.68 178.29 99.85 173.01 99.85 C 173.15 100.46 173.42 101.68 173.55 102.30 C 173.78 116.64 173.62 131.01 173.60 145.37 C 168.85 145.29 164.11 145.29 159.36 145.36 C 159.22 131.05 159.33 116.74 159.31 102.42 L 159.46 102.44 C 159.49 116.38 159.25 130.33 159.69 144.26 C 162.01 144.04 161.74 141.80 161.80 140.10 C 161.81 126.68 162.25 113.27 162.07 99.85 C 156.50 99.74 150.94 100.30 145.37 100.31 C 145.42 97.19 145.43 94.06 145.39 90.94 C 144.88 90.61 143.84 89.94 143.32 89.61 L 143.14 89.24 Z" />
</g>
<g id="#ffea7cff">
<path fill="#ffea7c" opacity="1.00" d=" M 249.42 89.08 C 265.53 89.46 281.66 89.11 297.78 89.26 C 297.50 93.28 297.64 97.32 297.70 101.36 C 296.99 100.81 296.29 100.27 295.59 99.74 C 295.68 96.62 295.67 93.50 295.56 90.39 C 280.54 90.45 265.51 90.03 250.50 90.49 C 250.23 90.14 249.69 89.44 249.42 89.08 Z" />
</g>
<g id="#f2b563ff">
<path fill="#f2b563" opacity="1.00" d=" M 308.59 88.85 C 315.16 88.84 321.74 88.88 328.31 88.83 C 328.43 98.81 328.29 108.80 328.34 118.79 C 327.67 119.80 327.00 120.80 326.34 121.81 C 326.12 116.51 326.09 111.19 325.46 105.91 C 320.13 103.53 320.09 97.09 317.39 92.67 C 315.23 91.84 312.77 92.17 310.49 91.94 C 309.89 91.15 309.30 90.35 308.73 89.54 L 308.59 88.85 Z" />
<path fill="#f2b563" opacity="1.00" d=" M 105.35 115.18 C 106.32 116.55 107.29 117.93 108.23 119.33 C 113.08 126.73 117.57 134.36 122.17 141.91 C 123.26 143.04 122.02 144.06 121.41 145.03 C 115.59 135.89 110.24 126.46 104.59 117.22 C 104.78 116.71 105.16 115.69 105.35 115.18 Z" />
</g>
<g id="#c98f4fff">
<path fill="#c98f4f" opacity="1.00" d=" M 342.12 99.93 C 342.13 96.20 341.71 92.38 342.53 88.72 C 344.57 94.46 343.66 100.68 344.26 106.64 C 343.60 113.31 344.29 119.98 344.29 126.65 C 343.92 131.74 344.23 136.85 345.33 141.84 C 350.08 142.33 355.04 142.55 359.55 140.65 C 364.03 138.77 369.59 139.72 373.34 136.21 C 372.31 135.54 371.29 134.88 370.26 134.22 C 377.31 134.24 384.50 134.88 391.44 133.33 C 391.49 136.46 391.57 139.58 391.67 142.71 C 387.59 144.09 383.21 143.15 379.00 143.41 C 366.75 143.66 354.45 142.99 342.22 143.82 C 342.12 129.19 342.22 114.56 342.12 99.93 Z" />
</g>
<g id="#f2be6bff">
<path fill="#f2be6b" opacity="1.00" d=" M 342.53 88.72 C 348.84 88.96 355.16 88.87 361.48 88.78 C 359.91 93.25 359.97 98.04 359.83 102.72 C 359.42 104.45 358.93 106.15 358.45 107.86 C 357.36 107.50 356.28 107.14 355.20 106.78 C 352.15 109.37 348.62 111.30 345.37 113.61 C 344.99 111.29 344.57 108.98 344.26 106.64 C 343.66 100.68 344.57 94.46 342.53 88.72 Z" />
</g>
<g id="#d69a54ff">
<path fill="#d69a54" opacity="1.00" d=" M 361.48 88.78 C 361.87 90.12 361.88 91.53 361.86 92.93 C 361.73 105.55 361.91 118.18 361.70 130.81 L 361.63 132.36 C 371.61 132.30 381.60 132.72 391.56 132.19 L 391.44 133.33 C 384.50 134.88 377.31 134.24 370.26 134.22 C 371.29 134.88 372.31 135.54 373.34 136.21 C 369.59 139.72 364.03 138.77 359.55 140.65 C 355.04 142.55 350.08 142.33 345.33 141.84 C 344.23 136.85 343.92 131.74 344.29 126.65 C 344.60 127.86 344.95 129.06 345.31 130.26 C 349.79 128.88 353.99 132.23 358.54 131.85 C 359.27 128.27 359.73 124.63 359.77 120.97 C 359.81 114.89 360.58 108.79 359.83 102.72 C 359.97 98.04 359.91 93.25 361.48 88.78 Z" />
</g>
<g id="#fbcd72ff">
<path fill="#fbcd72" opacity="1.00" d=" M 400.52 99.53 C 400.41 95.96 400.13 92.32 400.66 88.78 C 408.14 88.95 415.63 88.82 423.12 88.84 C 424.44 88.83 425.70 89.13 426.89 89.73 L 426.39 90.94 C 426.20 91.24 425.83 91.85 425.64 92.16 C 418.03 91.09 410.33 91.69 402.68 91.62 C 402.47 99.54 402.32 107.47 401.07 115.30 C 401.36 110.04 401.06 104.76 400.52 99.53 Z" />
</g>
<g id="#fffffaff">
<path fill="#fffffa" opacity="1.00" d=" M 445.73 88.85 L 445.97 89.35 C 446.46 90.41 446.84 91.52 447.24 92.62 C 446.24 95.63 445.41 98.69 444.54 101.74 C 442.00 110.93 438.99 119.99 436.71 129.25 C 436.52 126.76 436.23 124.27 436.33 121.76 C 436.58 120.88 437.08 119.11 437.32 118.22 C 437.42 117.61 437.62 116.38 437.72 115.76 C 439.05 113.40 439.00 110.53 440.21 108.12 C 440.33 107.53 440.55 106.36 440.67 105.77 C 441.37 104.58 441.48 103.18 441.78 101.86 C 442.27 100.89 442.59 99.85 442.73 98.74 C 443.50 97.57 443.45 96.10 443.76 94.78 C 444.69 92.90 444.87 90.76 445.73 88.85 Z" />
</g>
<g id="#ffd779ff">
<path fill="#ffd779" opacity="1.00" d=" M 445.97 89.35 C 449.86 88.27 454.06 89.14 458.08 88.86 C 462.43 89.12 466.95 88.31 471.19 89.31 C 470.64 90.09 470.09 90.87 469.55 91.65 C 463.69 91.58 457.84 91.59 451.98 91.53 C 450.36 91.61 448.44 91.25 447.24 92.62 C 446.84 91.52 446.46 90.41 445.97 89.35 Z" />
</g>
<g id="#825d38ff">
<path fill="#825d38" opacity="1.00" d=" M 471.19 89.31 L 471.48 88.90 C 471.35 107.53 471.41 126.16 471.42 144.79 C 470.80 144.80 469.55 144.81 468.93 144.82 C 466.03 145.76 462.88 145.11 459.89 145.22 C 458.41 144.30 456.59 144.97 454.98 144.92 L 455.27 144.64 L 455.43 144.49 C 455.92 144.10 456.90 143.31 457.39 142.92 C 461.30 142.83 465.20 142.80 469.11 142.82 C 469.49 139.42 469.65 135.99 469.35 132.58 C 469.55 126.88 469.64 121.18 469.53 115.48 C 469.51 107.54 469.91 99.59 469.55 91.65 C 470.09 90.87 470.64 90.09 471.19 89.31 Z" />
</g>
<g id="#f5e695ff">
<path fill="#f5e695" opacity="1.00" d=" M 79.74 89.91 C 80.38 89.71 81.67 89.32 82.32 89.12 C 82.31 93.14 82.41 97.15 82.24 101.16 C 81.61 100.85 80.34 100.24 79.71 99.93 C 79.74 96.59 79.52 93.25 79.74 89.91 Z" />
</g>
<g id="#da9b53ff">
<path fill="#da9b53" opacity="1.00" d=" M 88.36 90.23 C 93.24 92.77 100.63 88.90 103.76 94.44 C 107.47 100.21 110.86 106.21 114.16 112.23 C 112.11 111.26 110.10 110.18 108.34 108.73 C 103.02 104.27 97.36 100.20 92.61 95.11 C 89.87 98.45 92.14 103.77 88.34 106.50 C 88.31 101.07 88.21 95.65 88.36 90.23 Z" />
</g>
<g id="#f3d67dfe">
<path fill="#f3d67d" opacity="1.00" d=" M 122.72 89.31 C 126.97 89.16 131.29 88.95 135.47 89.96 C 132.30 91.64 128.66 91.26 125.20 91.27 C 125.17 97.27 125.06 103.28 125.16 109.29 C 124.40 107.44 123.55 105.63 122.85 103.76 C 122.82 103.38 122.76 102.63 122.73 102.25 C 122.74 97.94 122.70 93.62 122.72 89.31 Z" />
</g>
<g id="#f6e796ff">
<path fill="#f6e796" opacity="1.00" d=" M 143.32 89.61 C 143.84 89.94 144.88 90.61 145.39 90.94 C 145.43 94.06 145.42 97.19 145.37 100.31 C 144.76 100.48 143.56 100.82 142.95 101.00 C 142.89 97.08 142.84 93.16 142.77 89.25 L 143.32 89.61 Z" />
</g>
<g id="#986d3ffb">
<path fill="#986d3f" opacity="1.00" d=" M 308.73 89.54 C 309.30 90.35 309.89 91.15 310.49 91.94 C 310.47 99.81 310.45 107.69 310.71 115.56 C 310.51 124.61 310.38 133.69 310.99 142.73 C 316.06 142.82 321.12 142.82 326.19 142.76 C 326.75 143.24 327.87 144.18 328.43 144.66 C 321.78 144.77 315.12 144.67 308.47 144.70 C 308.75 126.32 308.17 107.91 308.73 89.54 Z" />
</g>
<g id="#d19750fb">
<path fill="#d19750" opacity="1.00" d=" M 475.67 89.71 C 477.63 90.03 479.60 90.39 481.57 90.67 C 481.47 94.11 481.57 97.55 481.60 100.99 C 481.08 100.96 480.04 100.89 479.52 100.85 C 479.55 97.46 479.55 94.08 479.53 90.69 C 477.88 91.13 476.59 90.80 475.67 89.71 Z" />
</g>
<g id="#dc9c53ff">
<path fill="#dc9c53" opacity="1.00" d=" M 250.50 90.49 C 265.51 90.03 280.54 90.45 295.56 90.39 C 295.67 93.50 295.68 96.62 295.59 99.74 C 286.14 99.89 276.68 99.54 267.23 99.86 C 266.85 104.14 267.03 108.43 267.02 112.72 L 266.39 112.77 C 266.28 110.04 266.18 107.30 266.11 104.56 C 261.57 106.22 256.73 106.74 252.10 108.08 C 251.96 102.95 252.28 97.72 251.08 92.69 C 250.94 92.14 250.65 91.04 250.50 90.49 Z" />
</g>
<g id="#c98e4dff">
<path fill="#c98e4d" opacity="1.00" d=" M 426.39 90.94 C 427.49 92.26 427.66 94.04 428.18 95.63 C 430.34 103.43 432.76 111.14 434.90 118.95 C 435.15 120.00 435.63 120.94 436.33 121.76 C 436.23 124.27 436.52 126.76 436.71 129.25 C 436.40 129.45 435.79 129.83 435.49 130.02 C 434.80 125.70 433.65 121.47 431.81 117.49 C 429.31 119.30 426.63 121.42 423.33 120.77 C 420.31 114.58 418.37 107.91 415.14 101.83 C 414.52 103.81 414.02 105.85 414.04 107.94 C 413.91 115.29 414.05 122.65 413.68 129.99 C 413.19 128.64 412.71 127.29 412.23 125.94 C 409.48 126.80 406.82 127.93 404.29 129.30 C 403.94 133.66 404.20 138.08 403.20 142.37 C 402.92 135.80 402.95 129.23 402.63 122.67 C 402.21 123.78 401.81 124.89 401.41 126.00 C 401.09 122.44 400.64 118.87 401.07 115.30 C 402.32 107.47 402.47 99.54 402.68 91.62 C 410.33 91.69 418.03 91.09 425.64 92.16 C 425.83 91.85 426.20 91.24 426.39 90.94 Z" />
</g>
<g id="#dda159ff">
<path fill="#dda159" opacity="1.00" d=" M 310.49 91.94 C 312.77 92.17 315.23 91.84 317.39 92.67 C 320.09 97.09 320.13 103.53 325.46 105.91 C 326.09 111.19 326.12 116.51 326.34 121.81 C 327.00 120.80 327.67 119.80 328.34 118.79 C 328.42 127.41 328.23 136.04 328.43 144.66 C 327.87 144.18 326.75 143.24 326.19 142.76 C 326.14 140.08 326.03 137.40 325.85 134.73 C 321.98 133.38 317.99 131.95 314.77 129.34 C 310.64 125.80 313.46 119.79 310.71 115.56 C 310.45 107.69 310.47 99.81 310.49 91.94 Z" />
</g>
<g id="#cf924fff">
<path fill="#cf924f" opacity="1.00" d=" M 447.24 92.62 C 448.44 91.25 450.36 91.61 451.98 91.53 C 457.84 91.59 463.69 91.58 469.55 91.65 C 469.91 99.59 469.51 107.54 469.53 115.48 C 468.28 110.16 463.08 107.93 459.41 104.55 C 458.95 104.90 458.03 105.59 457.57 105.94 C 457.50 103.89 457.34 101.84 457.17 99.79 C 456.93 100.66 456.69 101.53 456.46 102.40 C 455.10 105.43 453.85 108.52 452.91 111.71 C 452.66 109.72 452.48 107.72 452.35 105.71 C 449.27 105.33 445.75 105.16 444.54 101.74 C 445.41 98.69 446.24 95.63 447.24 92.62 Z" />
</g>
<g id="#bf864bff">
<path fill="#bf864b" opacity="1.00" d=" M 251.08 92.69 C 252.28 97.72 251.96 102.95 252.10 108.08 C 251.99 112.61 251.88 117.14 252.18 121.66 C 255.61 121.29 258.86 120.13 262.18 119.29 C 263.89 118.79 265.63 120.47 265.72 122.15 C 266.11 125.87 266.11 129.62 266.83 133.31 C 267.03 136.60 267.08 139.90 267.00 143.20 C 261.80 142.52 256.54 143.57 251.33 142.78 C 251.27 132.51 251.18 122.24 251.10 111.97 C 250.97 105.55 250.47 99.11 251.08 92.69 Z" />
</g>
<g id="#544428ff">
<path fill="#544428" opacity="1.00" d=" M 3.17 94.95 L 3.27 95.28 C 3.67 96.64 4.13 97.98 4.53 99.34 C 4.50 99.70 4.44 100.42 4.40 100.78 C 4.25 102.51 4.08 104.24 3.94 105.97 C 3.82 107.63 3.74 109.30 3.72 110.97 C 3.71 122.29 5.64 133.54 8.55 144.45 C 11.65 152.16 14.18 160.22 18.82 167.19 C 21.06 170.47 23.17 173.84 25.56 177.01 C 26.85 178.68 28.17 180.33 29.51 181.97 C 30.70 183.40 31.94 184.81 33.25 186.15 C 33.65 186.54 34.43 187.34 34.82 187.74 C 34.72 188.34 34.53 189.53 34.43 190.13 C 20.31 176.21 10.13 158.32 5.27 139.09 C 1.58 124.72 1.04 109.61 3.17 94.95 Z" />
<path fill="#544428" opacity="1.00" d=" M 267.23 99.86 C 276.68 99.54 286.14 99.89 295.59 99.74 C 296.29 100.27 296.99 100.81 297.70 101.36 L 297.95 101.55 C 288.40 101.55 278.84 101.61 269.29 101.52 C 268.77 101.11 267.75 100.27 267.23 99.86 Z" />
<path fill="#544428" opacity="1.00" d=" M 267.48 120.61 C 275.45 120.55 283.43 120.73 291.41 120.57 C 291.91 120.96 292.92 121.74 293.42 122.13 C 285.39 122.65 277.25 122.50 269.21 122.26 L 267.35 121.14 C 267.39 121.01 267.45 120.74 267.48 120.61 Z" />
<path fill="#544428" opacity="1.00" d=" M 392.19 130.87 C 391.78 135.68 393.00 140.77 391.58 145.40 C 381.72 145.14 371.86 145.41 362.00 145.27 C 355.35 144.29 348.61 144.96 341.92 144.77 L 342.22 143.82 C 354.45 142.99 366.75 143.66 379.00 143.41 C 383.21 143.15 387.59 144.09 391.67 142.71 C 391.57 139.58 391.49 136.46 391.44 133.33 L 391.56 132.19 C 391.72 131.86 392.03 131.20 392.19 130.87 Z" />
</g>
<g id="#cb904fff">
<path fill="#cb904f" opacity="1.00" d=" M 88.34 106.50 C 92.14 103.77 89.87 98.45 92.61 95.11 C 97.36 100.20 103.02 104.27 108.34 108.73 C 110.10 110.18 112.11 111.26 114.16 112.23 C 115.89 115.21 117.65 118.15 119.32 121.16 C 115.35 120.38 112.76 117.17 109.85 114.68 C 109.31 116.23 108.77 117.78 108.23 119.33 C 107.29 117.93 106.32 116.55 105.35 115.18 C 105.16 115.69 104.78 116.71 104.59 117.22 C 103.75 115.97 102.92 114.70 102.27 113.34 C 101.73 111.47 101.12 109.62 100.47 107.79 C 100.02 109.84 99.73 111.93 99.81 114.04 C 100.11 123.70 100.67 133.37 100.28 143.03 L 99.13 143.35 C 98.82 135.17 99.31 126.97 98.86 118.80 C 95.30 116.66 91.68 119.10 88.29 120.33 C 88.33 115.72 88.22 111.10 88.34 106.50 Z" />
</g>
<g id="#e9a758ff">
<path fill="#e9a758" opacity="1.00" d=" M 4.40 100.78 C 8.51 99.07 13.52 100.96 17.12 98.08 C 16.99 99.13 16.86 100.17 16.74 101.23 C 16.50 102.55 16.26 103.87 16.04 105.20 C 12.08 106.19 7.99 106.10 3.94 105.97 C 4.08 104.24 4.25 102.51 4.40 100.78 Z" />
</g>
<g id="#f5cb73ff">
<path fill="#f5cb73" opacity="1.00" d=" M 34.46 102.08 C 35.36 100.96 36.37 99.65 38.01 99.87 C 42.53 99.66 47.06 99.88 51.59 99.81 C 51.36 100.42 50.91 101.62 50.68 102.23 C 45.27 102.23 39.85 102.49 34.46 102.08 Z" />
</g>
<g id="#f7dc83fa">
<path fill="#f7dc83" opacity="0.98" d=" M 62.42 99.83 C 68.18 99.87 73.95 99.67 79.71 99.93 C 80.34 100.24 81.61 100.85 82.24 101.16 L 82.51 102.27 C 76.79 102.27 71.07 102.30 65.34 102.24 C 65.23 116.38 65.54 130.54 65.15 144.67 C 64.51 144.28 63.22 143.51 62.58 143.12 C 62.53 128.69 62.30 114.26 62.42 99.83 Z" />
</g>
<g id="#f6d885ff">
<path fill="#f6d885" opacity="1.00" d=" M 145.37 100.31 C 150.94 100.30 156.50 99.74 162.07 99.85 C 162.25 113.27 161.81 126.68 161.80 140.10 C 161.74 141.80 162.01 144.04 159.69 144.26 C 159.25 130.33 159.49 116.38 159.46 102.44 L 159.31 102.42 C 153.80 102.07 148.27 102.37 142.76 102.28 L 142.95 101.00 C 143.56 100.82 144.76 100.48 145.37 100.31 Z" />
</g>
<g id="#f4c872ff">
<path fill="#f4c872" opacity="1.00" d=" M 173.01 99.85 C 178.29 99.85 183.58 99.68 188.86 99.98 C 189.35 100.55 190.33 101.70 190.83 102.27 C 185.07 102.29 179.31 102.26 173.55 102.30 C 173.42 101.68 173.15 100.46 173.01 99.85 Z" />
</g>
<g id="#7d683eff">
<path fill="#7d683e" opacity="1.00" d=" M 400.52 99.53 C 401.06 104.76 401.36 110.04 401.07 115.30 C 400.64 118.87 401.09 122.44 401.41 126.00 C 401.81 124.89 402.21 123.78 402.63 122.67 C 402.95 129.23 402.92 135.80 403.20 142.37 L 403.15 143.08 C 406.97 143.02 410.80 142.91 414.62 142.76 C 415.82 130.55 415.33 118.23 415.33 105.98 C 415.86 107.64 416.40 109.29 416.92 110.95 C 416.27 122.42 417.08 133.93 416.48 145.39 C 414.93 145.39 413.44 145.16 411.98 144.70 C 408.47 146.03 404.42 144.90 400.71 145.35 C 399.94 141.27 400.48 137.12 400.34 133.01 C 400.43 121.85 400.09 110.68 400.52 99.53 Z" />
</g>
<g id="#fbe29bff">
<path fill="#fbe29b" opacity="1.00" d=" M 456.46 102.40 C 456.69 101.53 456.93 100.66 457.17 99.79 C 457.34 101.84 457.50 103.89 457.57 105.94 C 457.54 112.78 457.31 119.63 457.52 126.47 C 457.34 131.95 457.39 137.43 457.39 142.92 C 456.90 143.31 455.92 144.10 455.43 144.49 C 455.63 132.99 455.46 121.48 455.43 109.98 C 455.50 107.42 455.99 104.90 456.46 102.40 Z" />
<path fill="#fbe29b" opacity="1.00" d=" M 169.99 192.92 C 174.68 189.23 181.01 190.06 186.52 190.75 C 180.21 196.91 172.97 202.06 165.26 206.32 C 165.13 201.53 165.85 195.98 169.99 192.92 Z" />
</g>
<g id="#ebdf85fa">
<path fill="#ebdf85" opacity="0.98" d=" M 267.02 112.72 C 267.03 108.43 266.85 104.14 267.23 99.86 C 267.75 100.27 268.77 101.11 269.29 101.52 C 269.50 104.52 269.32 107.52 269.45 110.52 C 269.04 111.05 268.21 112.13 267.80 112.66 L 267.02 112.72 Z" />
</g>
<g id="#b97f36fd">
<path fill="#b97f36" opacity="1.00" d=" M 16.04 105.20 C 16.26 103.87 16.50 102.55 16.74 101.23 C 19.57 106.62 16.59 112.95 19.20 118.42 C 20.61 136.07 26.83 153.37 37.52 167.54 C 50.78 185.62 70.89 198.06 92.65 203.08 C 87.12 203.21 82.12 200.45 76.64 200.21 C 74.55 199.39 72.45 198.60 70.37 197.76 C 66.45 196.15 62.86 193.84 59.22 191.68 C 56.50 189.88 53.82 188.02 51.28 185.96 C 48.92 183.94 46.64 181.82 44.42 179.65 C 42.81 178.04 41.27 176.35 39.77 174.64 C 38.05 172.64 36.40 170.59 34.89 168.43 C 25.60 154.90 19.14 139.34 17.07 123.01 C 16.75 119.03 16.68 115.03 16.20 111.06 C 16.01 109.11 15.92 107.15 16.04 105.20 Z" />
</g>
<g id="#bd864bff">
<path fill="#bd864b" opacity="1.00" d=" M 415.14 101.83 C 418.37 107.91 420.31 114.58 423.33 120.77 C 426.63 121.42 429.31 119.30 431.81 117.49 C 433.65 121.47 434.80 125.70 435.49 130.02 C 435.79 129.83 436.40 129.45 436.71 129.25 C 438.99 119.99 442.00 110.93 444.54 101.74 C 445.75 105.16 449.27 105.33 452.35 105.71 C 452.48 107.72 452.66 109.72 452.91 111.71 C 449.48 122.21 445.81 132.66 441.73 142.93 C 437.09 143.31 432.43 143.03 427.79 143.31 C 427.46 141.14 426.75 139.05 425.84 137.07 C 422.97 128.33 419.77 119.70 416.92 110.95 C 416.40 109.29 415.86 107.64 415.33 105.98 C 415.33 118.23 415.82 130.55 414.62 142.76 C 410.80 142.91 406.97 143.02 403.15 143.08 L 403.20 142.37 C 404.20 138.08 403.94 133.66 404.29 129.30 C 406.82 127.93 409.48 126.80 412.23 125.94 C 412.71 127.29 413.19 128.64 413.68 129.99 C 414.05 122.65 413.91 115.29 414.04 107.94 C 414.02 105.85 414.52 103.81 415.14 101.83 Z" />
</g>
<g id="#e1a75cff">
<path fill="#e1a75c" opacity="1.00" d=" M 358.45 107.86 C 358.93 106.15 359.42 104.45 359.83 102.72 C 360.58 108.79 359.81 114.89 359.77 120.97 C 359.73 124.63 359.27 128.27 358.54 131.85 C 353.99 132.23 349.79 128.88 345.31 130.26 C 344.95 129.06 344.60 127.86 344.29 126.65 C 344.29 119.98 343.60 113.31 344.26 106.64 C 344.57 108.98 344.99 111.29 345.37 113.61 C 348.62 111.30 352.15 109.37 355.20 106.78 C 356.28 107.14 357.36 107.50 358.45 107.86 Z" />
</g>
<g id="#db9c54ff">
<path fill="#db9c54" opacity="1.00" d=" M 208.35 104.84 C 212.56 102.51 217.46 103.83 220.85 106.95 C 220.93 109.77 220.65 112.59 220.61 115.41 C 219.86 114.09 219.13 112.75 218.17 111.57 C 214.99 110.80 211.64 111.49 208.41 111.53 C 208.33 109.30 208.33 107.07 208.35 104.84 Z" />
</g>
<g id="#cb8f4fff">
<path fill="#cb8f4f" opacity="1.00" d=" M 252.10 108.08 C 256.73 106.74 261.57 106.22 266.11 104.56 C 266.18 107.30 266.28 110.04 266.39 112.77 L 267.02 112.72 L 267.80 112.66 C 275.21 112.54 282.64 112.41 290.04 112.70 C 292.74 113.98 291.00 118.13 291.41 120.57 C 283.43 120.73 275.45 120.55 267.48 120.61 C 267.45 120.74 267.39 121.01 267.35 121.14 C 266.70 125.16 267.05 129.25 266.83 133.31 C 266.11 129.62 266.11 125.87 265.72 122.15 C 265.63 120.47 263.89 118.79 262.18 119.29 C 258.86 120.13 255.61 121.29 252.18 121.66 C 251.88 117.14 251.99 112.61 252.10 108.08 Z" />
</g>
<g id="#c58b4dff">
<path fill="#c58b4d" opacity="1.00" d=" M 459.41 104.55 C 463.08 107.93 468.28 110.16 469.53 115.48 C 469.64 121.18 469.55 126.88 469.35 132.58 C 467.99 130.04 467.79 127.15 467.60 124.34 C 464.70 123.95 461.28 124.26 459.38 121.59 C 458.80 123.23 458.17 124.85 457.52 126.47 C 457.31 119.63 457.54 112.78 457.57 105.94 C 458.03 105.59 458.95 104.90 459.41 104.55 Z" />
</g>
<g id="#da9b54ff">
<path fill="#da9b54" opacity="1.00" d=" M 3.94 105.97 C 7.99 106.10 12.08 106.19 16.04 105.20 C 15.92 107.15 16.01 109.11 16.20 111.06 C 12.60 114.53 7.91 110.91 3.72 110.97 C 3.74 109.30 3.82 107.63 3.94 105.97 Z" />
</g>
<g id="#f2b460ff">
<path fill="#f2b460" opacity="1.00" d=" M 99.81 114.04 C 99.73 111.93 100.02 109.84 100.47 107.79 C 101.12 109.62 101.73 111.47 102.27 113.34 C 101.37 123.98 102.21 134.69 101.67 145.35 C 97.27 145.24 92.87 145.27 88.47 145.32 L 88.34 143.98 C 91.91 143.48 95.53 143.50 99.13 143.35 L 100.28 143.03 C 100.67 133.37 100.11 123.70 99.81 114.04 Z" />
<path fill="#f2b460" opacity="1.00" d=" M 154.54 197.64 C 156.60 196.70 158.62 195.67 160.66 194.68 C 159.93 199.30 158.79 204.16 160.84 208.64 C 159.05 209.52 157.25 210.38 155.47 211.27 C 154.14 206.85 153.45 202.20 154.54 197.64 Z" />
</g>
<g id="#c58b4cff">
<path fill="#c58b4c" opacity="1.00" d=" M 3.72 110.97 C 7.91 110.91 12.60 114.53 16.20 111.06 C 16.68 115.03 16.75 119.03 17.07 123.01 C 19.14 139.34 25.60 154.90 34.89 168.43 C 31.20 170.60 28.39 173.86 25.56 177.01 C 23.17 173.84 21.06 170.47 18.82 167.19 C 14.18 160.22 11.65 152.16 8.55 144.45 C 5.64 133.54 3.71 122.29 3.72 110.97 Z" />
</g>
<g id="#c38a4cff">
<path fill="#c38a4c" opacity="1.00" d=" M 208.41 111.53 C 211.64 111.49 214.99 110.80 218.17 111.57 C 219.13 112.75 219.86 114.09 220.61 115.41 C 220.13 129.64 217.48 144.09 210.96 156.87 C 209.09 161.65 206.76 166.24 203.65 170.33 C 201.46 166.52 197.95 163.82 194.19 161.69 C 198.08 153.91 202.62 146.33 204.84 137.84 C 207.07 129.28 208.96 120.42 208.41 111.53 Z" />
</g>
<g id="#ffd26aff">
<path fill="#ffd26a" opacity="1.00" d=" M 269.45 110.52 C 277.50 110.96 285.56 110.67 293.61 110.72 C 293.55 114.45 293.92 118.72 293.42 122.13 C 292.92 121.74 291.91 120.96 291.41 120.57 C 291.00 118.13 292.74 113.98 290.04 112.70 C 282.64 112.41 275.21 112.54 267.80 112.66 C 268.21 112.13 269.04 111.05 269.45 110.52 Z" />
</g>
<g id="#bf8438ff">
<path fill="#bf8438" opacity="1.00" d=" M 206.95 113.13 C 207.31 112.73 208.04 111.93 208.41 111.53 C 208.96 120.42 207.07 129.28 204.84 137.84 C 202.62 146.33 198.08 153.91 194.19 161.69 C 192.58 164.22 190.80 166.64 189.15 169.14 C 187.60 171.43 185.92 173.63 184.04 175.66 C 181.76 178.07 179.38 180.40 177.10 182.81 C 172.34 187.63 166.66 191.56 160.66 194.68 C 158.62 195.67 156.60 196.70 154.54 197.64 C 152.74 198.43 150.87 199.04 148.98 199.58 C 147.14 199.93 145.28 200.28 143.53 200.98 C 140.06 202.21 136.41 202.81 132.73 202.86 C 145.30 199.77 157.42 194.54 167.81 186.75 C 186.87 172.82 200.23 151.34 204.18 128.06 C 204.51 125.87 204.77 123.68 205.34 121.54 C 206.90 119.00 206.77 115.99 206.95 113.13 Z" />
</g>
<g id="#cd9250ff">
<path fill="#cd9250" opacity="1.00" d=" M 310.71 115.56 C 313.46 119.79 310.64 125.80 314.77 129.34 C 317.99 131.95 321.98 133.38 325.85 134.73 C 326.03 137.40 326.14 140.08 326.19 142.76 C 321.12 142.82 316.06 142.82 310.99 142.73 C 310.38 133.69 310.51 124.61 310.71 115.56 Z" />
</g>
<g id="#c1894cff">
<path fill="#c1894c" opacity="1.00" d=" M 88.29 120.33 C 91.68 119.10 95.30 116.66 98.86 118.80 C 99.31 126.97 98.82 135.17 99.13 143.35 C 95.53 143.50 91.91 143.48 88.34 143.98 C 88.27 136.10 88.29 128.21 88.29 120.33 Z" />
</g>
<g id="#b9834aff">
<path fill="#b9834a" opacity="1.00" d=" M 459.38 121.59 C 461.28 124.26 464.70 123.95 467.60 124.34 C 467.79 127.15 467.99 130.04 469.35 132.58 C 469.65 135.99 469.49 139.42 469.11 142.82 C 465.20 142.80 461.30 142.83 457.39 142.92 C 457.39 137.43 457.34 131.95 457.52 126.47 C 458.17 124.85 458.80 123.23 459.38 121.59 Z" />
</g>
<g id="#eecf6bf8">
<path fill="#eecf6b" opacity="0.97" d=" M 266.83 133.31 C 267.05 129.25 266.70 125.16 267.35 121.14 L 269.21 122.26 C 269.69 129.71 269.20 137.21 269.42 144.68 C 268.81 144.31 267.61 143.57 267.00 143.20 C 267.08 139.90 267.03 136.60 266.83 133.31 Z" />
</g>
<g id="#f7e09dff">
<path fill="#f7e09d" opacity="1.00" d=" M 361.70 130.81 C 371.86 130.91 382.03 130.79 392.19 130.87 C 392.03 131.20 391.72 131.86 391.56 132.19 C 381.60 132.72 371.61 132.30 361.63 132.36 L 361.70 130.81 Z" />
</g>
<g id="#362d1ad7">
<path fill="#362d1a" opacity="0.84" d=" M 428.50 144.50 C 433.63 143.49 438.99 144.84 444.01 143.17 C 443.80 143.72 443.36 144.82 443.14 145.37 C 438.64 145.28 434.13 145.52 429.64 145.27 L 428.50 144.50 Z" />
</g>
<g id="#cc914fff">
<path fill="#cc914f" opacity="1.00" d=" M 194.19 161.69 C 197.95 163.82 201.46 166.52 203.65 170.33 C 201.92 172.82 200.25 175.35 198.43 177.78 C 195.38 174.86 192.46 171.78 189.15 169.14 C 190.80 166.64 192.58 164.22 194.19 161.69 Z" />
</g>
<g id="#d89a52ff">
<path fill="#d89a52" opacity="1.00" d=" M 25.56 177.01 C 28.39 173.86 31.20 170.60 34.89 168.43 C 36.40 170.59 38.05 172.64 39.77 174.64 C 35.61 175.88 32.55 179.05 29.51 181.97 C 28.17 180.33 26.85 178.68 25.56 177.01 Z" />
</g>
<g id="#da9c54ff">
<path fill="#da9c54" opacity="1.00" d=" M 189.15 169.14 C 192.46 171.78 195.38 174.86 198.43 177.78 C 197.17 179.45 195.85 181.08 194.46 182.65 C 191.38 179.78 187.64 177.80 184.04 175.66 C 185.92 173.63 187.60 171.43 189.15 169.14 Z" />
</g>
<g id="#eaa758ff">
<path fill="#eaa758" opacity="1.00" d=" M 29.51 181.97 C 32.55 179.05 35.61 175.88 39.77 174.64 C 41.27 176.35 42.81 178.04 44.42 179.65 C 40.63 181.69 36.64 183.44 33.25 186.15 C 31.94 184.81 30.70 183.40 29.51 181.97 Z" />
</g>
<g id="#efab5aff">
<path fill="#efab5a" opacity="1.00" d=" M 177.10 182.81 C 179.38 180.40 181.76 178.07 184.04 175.66 C 187.64 177.80 191.38 179.78 194.46 182.65 C 194.03 183.13 193.16 184.10 192.72 184.58 C 191.94 185.38 191.15 186.16 190.37 186.94 C 186.01 185.50 181.91 182.03 177.10 182.81 Z" />
</g>
<g id="#f8c167ff">
<path fill="#f8c167" opacity="1.00" d=" M 33.25 186.15 C 36.64 183.44 40.63 181.69 44.42 179.65 C 46.64 181.82 48.92 183.94 51.28 185.96 C 46.14 186.22 40.50 185.51 36.28 189.13 C 35.91 188.78 35.19 188.09 34.82 187.74 C 34.43 187.34 33.65 186.54 33.25 186.15 Z" />
</g>
<g id="#fccd74ff">
<path fill="#fccd74" opacity="1.00" d=" M 177.10 182.81 C 181.91 182.03 186.01 185.50 190.37 186.94 C 189.09 188.22 187.82 189.51 186.52 190.75 C 181.01 190.06 174.68 189.23 169.99 192.92 C 165.85 195.98 165.13 201.53 165.26 206.32 C 163.81 207.13 162.33 207.90 160.84 208.64 C 158.79 204.16 159.93 199.30 160.66 194.68 C 166.66 191.56 172.34 187.63 177.10 182.81 Z" />
</g>
<g id="#fbd781ff">
<path fill="#fbd781" opacity="1.00" d=" M 36.28 189.13 C 40.50 185.51 46.14 186.22 51.28 185.96 C 53.82 188.02 56.50 189.88 59.22 191.68 C 62.10 196.34 64.60 202.59 62.11 207.87 C 60.81 207.18 59.54 206.45 58.26 205.74 C 58.43 201.47 57.23 196.90 54.26 193.74 C 50.40 190.51 44.70 190.75 40.36 192.86 C 38.96 191.66 37.62 190.39 36.28 189.13 Z" />
</g>
<g id="#fce8a5ff">
<path fill="#fce8a5" opacity="1.00" d=" M 40.36 192.86 C 44.70 190.75 50.40 190.51 54.26 193.74 C 57.23 196.90 58.43 201.47 58.26 205.74 C 51.82 202.16 45.87 197.76 40.36 192.86 Z" />
</g>
<g id="#fcbc64ff">
<path fill="#fcbc64" opacity="1.00" d=" M 59.22 191.68 C 62.86 193.84 66.45 196.15 70.37 197.76 C 72.09 202.34 70.28 207.09 70.00 211.76 C 67.41 210.38 64.72 209.20 62.11 207.87 C 64.60 202.59 62.10 196.34 59.22 191.68 Z" />
</g>
<g id="#df9f55ff">
<path fill="#df9f55" opacity="1.00" d=" M 70.37 197.76 C 72.45 198.60 74.55 199.39 76.64 200.21 C 87.79 205.65 100.34 207.19 112.59 207.88 C 113.61 212.63 118.89 214.21 120.65 218.55 C 120.25 218.88 119.45 219.55 119.04 219.89 C 102.33 221.25 85.39 218.33 70.00 211.76 C 70.28 207.09 72.09 202.34 70.37 197.76 Z" />
</g>
<g id="#e2a156ff">
<path fill="#e2a156" opacity="1.00" d=" M 148.98 199.58 C 150.87 199.04 152.74 198.43 154.54 197.64 C 153.45 202.20 154.14 206.85 155.47 211.27 C 153.06 212.51 150.55 213.53 147.99 214.41 C 146.64 210.67 145.33 206.92 144.28 203.09 C 145.80 201.86 147.36 200.67 148.98 199.58 Z" />
</g>
<g id="#eeac48ff">
<path fill="#eeac48" opacity="1.00" d=" M 76.64 200.21 C 82.12 200.45 87.12 203.21 92.65 203.08 C 105.86 205.76 119.56 205.85 132.73 202.86 C 136.41 202.81 140.06 202.21 143.53 200.98 C 141.16 204.22 136.82 204.24 133.30 205.32 C 126.56 207.20 119.56 207.66 112.59 207.88 C 100.34 207.19 87.79 205.65 76.64 200.21 Z" />
</g>
<g id="#d29450ff">
<path fill="#d29450" opacity="1.00" d=" M 143.53 200.98 C 145.28 200.28 147.14 199.93 148.98 199.58 C 147.36 200.67 145.80 201.86 144.28 203.09 C 145.33 206.92 146.64 210.67 147.99 214.41 C 138.68 217.71 128.88 219.31 119.04 219.89 C 119.45 219.55 120.25 218.88 120.65 218.55 C 118.89 214.21 113.61 212.63 112.59 207.88 C 119.56 207.66 126.56 207.20 133.30 205.32 C 136.82 204.24 141.16 204.22 143.53 200.98 Z" />
</g>
</svg>
