<?xml version="1.0" encoding="UTF-8" ?>
<!DOCTYPE svg PUBLIC "-//W3C//DTD SVG 1.1//EN" "http://www.w3.org/Graphics/SVG/1.1/DTD/svg11.dtd">
<svg width="500pt" height="500pt" viewBox="0 0 500 500" version="1.1" xmlns="http://www.w3.org/2000/svg">
<g id="#00355fff">
<path fill="#00355f" opacity="1.00" d=" M 239.55 0.00 L 260.57 0.00 C 298.36 1.70 335.79 11.83 369.01 29.96 C 419.91 57.45 460.74 103.10 482.19 156.85 C 492.81 183.09 498.66 211.18 500.00 239.44 L 500.00 260.46 C 498.21 301.21 486.49 341.51 465.69 376.63 C 433.03 432.49 377.96 474.81 315.39 491.49 C 297.73 496.35 279.51 498.94 261.25 500.00 L 239.54 500.00 C 194.40 498.03 149.84 483.76 112.24 458.67 C 60.00 424.33 21.43 369.78 6.86 308.94 C 2.98 293.06 0.87 276.79 0.00 260.48 L 0.00 239.42 C 1.23 213.99 6.03 188.69 14.80 164.77 C 32.94 114.58 67.70 70.62 112.29 41.30 C 149.87 16.20 194.43 1.97 239.55 0.00 M 232.62 40.79 C 177.89 45.11 125.53 72.25 90.20 114.22 C 61.42 147.86 43.75 190.84 40.74 235.02 C 38.31 268.75 44.16 303.08 57.83 334.03 C 72.26 367.03 95.38 396.17 124.19 417.78 C 145.56 433.93 170.09 445.89 195.97 452.81 C 237.53 464.02 282.54 461.92 322.88 446.86 C 357.59 434.02 388.68 411.71 412.16 383.12 C 438.33 351.44 454.91 311.91 458.91 270.99 C 464.28 219.89 449.79 167.08 419.18 125.83 C 397.29 96.10 367.53 72.20 333.65 57.47 C 302.05 43.65 266.98 37.87 232.62 40.79 Z" />
<path fill="#00355f" opacity="1.00" d=" M 74.25 199.26 C 110.17 199.24 146.08 199.26 181.99 199.25 C 182.01 208.66 181.99 218.08 182.00 227.49 C 169.58 227.53 157.16 227.46 144.74 227.52 C 144.76 260.01 144.74 292.50 144.75 324.99 C 133.75 325.01 122.75 325.00 111.75 324.99 C 111.76 292.51 111.71 260.03 111.78 227.55 C 99.27 227.43 86.77 227.53 74.26 227.50 C 74.24 218.09 74.25 208.67 74.25 199.26 Z" />
<path fill="#00355f" opacity="1.00" d=" M 196.01 199.24 C 207.28 199.28 218.54 199.22 229.81 199.28 C 244.34 225.05 258.83 250.85 273.45 276.57 C 273.54 250.81 273.51 225.06 273.47 199.31 C 283.80 199.17 294.14 199.30 304.48 199.24 C 304.53 241.16 304.49 283.08 304.50 325.00 C 293.15 324.90 281.79 325.20 270.45 324.84 C 256.13 298.80 241.62 272.85 227.06 246.93 C 226.92 272.95 227.04 298.98 227.00 325.00 C 216.67 325.00 206.33 325.00 196.00 325.00 C 196.01 283.08 195.98 241.16 196.01 199.24 Z" />
<path fill="#00355f" opacity="1.00" d=" M 318.51 199.25 C 354.47 199.21 390.43 199.34 426.39 199.18 C 426.64 208.61 426.44 218.06 426.49 227.50 C 414.01 227.49 401.53 227.53 389.04 227.48 C 388.94 259.98 389.03 292.49 389.00 325.00 C 378.00 325.00 367.00 325.00 356.00 325.00 C 355.97 292.49 356.06 259.98 355.96 227.48 C 343.47 227.52 330.99 227.50 318.51 227.49 C 318.50 218.08 318.48 208.66 318.51 199.25 Z" />
</g>
</svg>
