<?xml version="1.0" encoding="UTF-8" standalone="yes"?>
<svg xmlns="http://www.w3.org/2000/svg" xmlns:xlink="http://www.w3.org/1999/xlink" width="602.6666666666666px" height="106.66666666666666px" viewBox="0 0 452 80" version="1.1">
  <g id="surface1">
    <path style=" stroke:none;fill-rule:nonzero;fill:rgb(74.117647%,94.117647%,4.313725%);fill-opacity:1;" d="M 230.21875 25.882812 L 198.371094 25.882812 C 192.765625 25.886719 188.222656 30.441406 188.230469 36.0625 C 188.230469 41.675781 192.78125 46.226562 198.390625 46.226562 L 204.136719 46.226562 L 204.15625 77.253906 L 224.457031 77.25 L 224.4375 46.226562 L 230.203125 46.226562 C 235.8125 46.226562 240.363281 41.675781 240.363281 36.0625 C 240.367188 30.441406 235.820312 25.886719 230.21875 25.882812 "/>
    <path style=" stroke:none;fill-rule:nonzero;fill:rgb(74.117647%,94.117647%,4.313725%);fill-opacity:1;" d="M 437.257812 48.824219 C 429.617188 45.429688 425.589844 44.15625 425.457031 41.382812 C 425.339844 38.921875 428 38.46875 428.9375 38.46875 C 434.324219 38.46875 434.738281 43.9375 434.738281 45.191406 L 451.171875 45.191406 C 451.171875 35.832031 442.75 26.1875 428.359375 26.195312 C 415.988281 26.191406 407.609375 34.636719 407.609375 42.628906 C 407.609375 45.660156 408.976562 51.710938 422.351562 57.660156 C 429.988281 61.050781 434.019531 62.320312 434.152344 65.09375 C 434.269531 67.5625 431.609375 68.257812 430.675781 68.257812 C 425.285156 68.257812 424.875 62.546875 424.875 61.289062 L 408.4375 61.289062 C 408.4375 70.648438 416.859375 80.292969 431.253906 80.289062 C 443.621094 80.292969 452 71.84375 452 63.847656 C 452 60.820312 450.632812 54.773438 437.257812 48.824219 "/>
    <path style=" stroke:none;fill-rule:nonzero;fill:rgb(100%,40.392157%,0%);fill-opacity:1;" d="M 111.722656 61.238281 C 110.519531 63.445312 108.972656 64.757812 107.164062 64.765625 C 105.351562 64.753906 103.808594 63.445312 102.609375 61.238281 C 101.429688 58.996094 100.726562 56.105469 100.722656 52.710938 C 100.726562 49.324219 101.429688 46.429688 102.609375 44.191406 C 103.808594 41.984375 105.355469 40.671875 107.164062 40.664062 C 108.972656 40.675781 110.519531 41.984375 111.722656 44.191406 C 112.59375 45.855469 113.207031 47.878906 113.464844 50.195312 L 133.789062 50.195312 C 133.191406 43.816406 130.347656 38.027344 126.078125 33.761719 C 121.265625 28.933594 114.519531 25.914062 107.164062 25.914062 C 99.8125 25.914062 93.0625 28.933594 88.25 33.761719 C 83.425781 38.582031 80.410156 45.347656 80.417969 52.710938 C 80.414062 60.078125 83.425781 66.84375 88.25 71.660156 C 88.257812 71.675781 88.25 71.695312 88.25 71.695312 C 93.0625 76.53125 99.8125 79.550781 107.164062 79.542969 C 114.519531 79.546875 121.265625 76.53125 126.078125 71.695312 C 126.078125 71.695312 126.0625 71.675781 126.078125 71.660156 C 130.347656 67.398438 133.191406 61.609375 133.789062 55.234375 L 113.464844 55.234375 C 113.203125 57.546875 112.59375 59.570312 111.722656 61.238281 "/>
    <path style=" stroke:none;fill-rule:nonzero;fill:rgb(100%,40.392157%,0%);fill-opacity:1;" d="M 26.746094 25.890625 C 19.394531 25.890625 12.644531 28.90625 7.832031 33.738281 C 3.011719 38.550781 0 45.320312 0 52.679688 L 0 77.304688 L 20.304688 77.304688 L 20.304688 53.101562 C 20.308594 50.167969 21.011719 47.664062 22.195312 45.722656 C 23.390625 43.808594 24.933594 42.675781 26.746094 42.664062 C 28.558594 42.675781 30.109375 43.808594 31.304688 45.722656 C 32.484375 47.664062 33.183594 50.167969 33.191406 53.101562 L 33.191406 77.304688 L 53.492188 77.304688 L 53.492188 52.679688 C 53.5 45.320312 50.484375 38.550781 45.664062 33.738281 C 40.851562 28.90625 34.101562 25.890625 26.746094 25.890625 "/>
    <path style=" stroke:none;fill-rule:nonzero;fill:rgb(100%,40.392157%,0%);fill-opacity:1;" d="M 183.550781 40.902344 C 186.394531 36.070312 184.792969 29.832031 179.964844 26.980469 C 175.132812 24.125 168.910156 25.734375 166.0625 30.574219 L 156.867188 47.035156 L 156.867188 36.058594 C 156.867188 30.445312 152.320312 25.890625 146.714844 25.890625 C 141.105469 25.890625 136.558594 30.445312 136.558594 36.058594 L 136.558594 77.300781 L 156.867188 77.300781 L 156.867188 61.070312 L 167.625 77.644531 C 167.625 77.644531 180.664062 77.636719 184.390625 77.636719 C 187.359375 77.636719 188.734375 74.652344 186.300781 70.992188 L 175.847656 54.910156 L 183.550781 40.90625 Z M 183.550781 40.902344 "/>
    <path style=" stroke:none;fill-rule:nonzero;fill:rgb(100%,40.392157%,0%);fill-opacity:1;" d="M 75.347656 19.300781 C 77.390625 17.257812 78.652344 14.429688 78.652344 11.308594 C 78.652344 8.179688 77.390625 5.359375 75.347656 3.308594 C 73.304688 1.265625 70.480469 0 67.367188 0 C 64.25 0 61.429688 1.265625 59.386719 3.3125 C 57.34375 5.359375 56.074219 8.179688 56.074219 11.308594 C 56.074219 14.429688 57.34375 17.257812 59.386719 19.300781 L 61.878906 21.800781 C 66.039062 25.972656 66.335938 27.078125 62.378906 31.039062 L 60.109375 33.308594 C 58.253906 35.167969 57.109375 37.742188 57.109375 40.578125 L 57.109375 77.304688 L 77.628906 77.304688 L 77.628906 40.578125 C 77.628906 37.742188 76.476562 35.167969 74.621094 33.308594 L 72.351562 31.042969 C 68.394531 27.082031 68.6875 25.972656 72.851562 21.800781 Z M 75.347656 19.300781 "/>
    <path style=" stroke:none;fill-rule:nonzero;fill:rgb(74.117647%,94.117647%,4.313725%);fill-opacity:1;" d="M 396.417969 33.808594 C 391.605469 28.964844 384.84375 25.933594 377.476562 25.945312 C 370.109375 25.9375 363.347656 28.964844 358.527344 33.808594 C 353.695312 38.632812 350.679688 45.40625 350.683594 52.785156 L 350.683594 77.304688 L 371.023438 77.304688 L 371.023438 53.203125 C 371.027344 50.269531 371.730469 47.753906 372.914062 45.8125 C 374.113281 43.894531 375.664062 42.757812 377.476562 42.75 C 379.289062 42.761719 380.839844 43.894531 382.042969 45.8125 C 383.222656 47.753906 383.921875 50.269531 383.925781 53.203125 L 383.925781 77.304688 L 404.265625 77.304688 L 404.265625 52.785156 C 404.269531 45.40625 401.253906 38.632812 396.417969 33.808594 "/>
    <path style=" stroke:none;fill-rule:nonzero;fill:rgb(74.117647%,94.117647%,4.313725%);fill-opacity:1;" d="M 325.933594 61.351562 C 324.734375 63.570312 323.1875 64.875 321.375 64.890625 C 319.554688 64.875 318.011719 63.570312 316.8125 61.351562 C 315.628906 59.109375 314.925781 56.210938 314.921875 52.816406 C 314.925781 49.421875 315.628906 46.519531 316.8125 44.277344 C 318.011719 42.0625 319.554688 40.753906 321.375 40.738281 C 323.1875 40.753906 324.734375 42.0625 325.933594 44.28125 C 327.113281 46.519531 327.820312 49.421875 327.824219 52.816406 C 327.820312 56.207031 327.113281 59.109375 325.933594 61.351562 M 340.316406 33.832031 C 335.5 28.988281 328.738281 25.96875 321.375 25.96875 C 314.003906 25.96875 307.238281 28.988281 302.429688 33.832031 C 297.597656 38.65625 294.578125 45.433594 294.582031 52.816406 C 294.578125 60.191406 297.597656 66.972656 302.429688 71.796875 C 302.429688 71.796875 302.433594 71.796875 302.433594 71.796875 L 302.429688 71.796875 C 302.871094 72.242188 303.933594 73.1875 303.988281 73.238281 C 308.652344 77.226562 314.769531 79.664062 321.375 79.65625 C 327.96875 79.660156 334.070312 77.234375 338.734375 73.253906 C 338.808594 73.1875 339.875 72.238281 340.316406 71.796875 C 345.152344 66.972656 348.175781 60.191406 348.171875 52.816406 C 348.175781 45.433594 345.152344 38.65625 340.316406 33.832031 "/>
    <path style=" stroke:none;fill-rule:nonzero;fill:rgb(74.117647%,94.117647%,4.313725%);fill-opacity:1;" d="M 270.785156 61.351562 C 269.585938 63.570312 268.039062 64.875 266.226562 64.890625 C 264.414062 64.875 262.863281 63.570312 261.664062 61.351562 C 260.480469 59.109375 259.78125 56.210938 259.773438 52.816406 C 259.785156 49.421875 260.480469 46.519531 261.664062 44.277344 C 262.863281 42.0625 264.414062 40.753906 266.226562 40.738281 C 268.039062 40.753906 269.585938 42.0625 270.785156 44.28125 C 271.972656 46.519531 272.671875 49.421875 272.675781 52.816406 C 272.671875 56.207031 271.972656 59.109375 270.785156 61.351562 M 285.167969 33.832031 C 280.351562 28.988281 273.589844 25.96875 266.226562 25.96875 C 258.855469 25.96875 252.097656 28.988281 247.28125 33.832031 C 242.449219 38.65625 239.429688 45.433594 239.433594 52.816406 C 239.429688 60.191406 242.449219 66.972656 247.28125 71.796875 C 247.28125 71.796875 247.285156 71.796875 247.285156 71.796875 L 247.28125 71.796875 C 247.726562 72.242188 248.785156 73.1875 248.839844 73.238281 C 253.507812 77.226562 259.621094 79.664062 266.226562 79.65625 C 272.820312 79.660156 278.921875 77.234375 283.585938 73.253906 C 283.660156 73.1875 284.734375 72.238281 285.167969 71.796875 C 290.003906 66.972656 293.027344 60.191406 293.023438 52.816406 C 293.027344 45.433594 290.003906 38.65625 285.167969 33.832031 "/>
  </g>
</svg>