<?xml version="1.0" encoding="utf-8"?>
<!-- Generator: Adobe Illustrator 18.1.1, SVG Export Plug-In . SVG Version: 6.00 Build 0)  -->
<svg version="1.1" id="Layer_1" xmlns="http://www.w3.org/2000/svg" xmlns:xlink="http://www.w3.org/1999/xlink" x="0px" y="0px"
	 viewBox="0 0 132.3 51.9" enable-background="new 0 0 132.3 51.9" xml:space="preserve">
<g>
	<g>
		<polygon fill="#A61C20" points="132.3,25.9 120.8,0 114,0 125.9,25.9 125.9,25.9 132.2,25.9 		"/>
		<polygon fill="#ED0439" points="120.6,51.9 132.2,25.9 125.9,25.9 113.7,51.9 		"/>
	</g>
	<g>
		<path fill="#164997" d="M20.2,51.9L20.2,51.9l90.7,0.1l11.8-26l-0.2-0.2l0,0H0v5.9C0,42.8,9.1,51.9,20.2,51.9z"/>
		<polygon fill="#293277" points="122.8,25.9 122.8,25.9 122.8,25.9 122.8,25.9 122.8,25.9 111,0 0,0 0,25.9 122.8,25.9 		"/>
	</g>
</g>
<path fill="#FFFFFF" d="M15.1,11.6c0-0.3,0.1-0.4,0.4-0.4c0.3,0,5.1-1.6,5.1-1.6s0.7-0.1,0.7,0.4c0,0.5,0,6.7,0,6.7h4.3
	c0,0,0.5,0.1,0.5,0.6c0,0.5,0,4.1,0,4.1s-0.1,0.4-0.5,0.4c-0.4,0-4.5,0-4.5,0s0,6.3,0,7.1c0,0.8,0.7,1.9,1.9,1.9c0.7,0,2.6,0,2.9,0
	c0.3,0,0.4,0.3,0.4,0.7c0,0.4,0,3.5,0,3.8c0,0.3-0.2,0.5-0.6,0.5c-0.4,0-2.8,0-4,0c-1.7,0-6.6-0.9-6.6-7.3V11.6z M27.8,35.1
	c0,0.3,0.1,0.7,0.4,0.7c0.3,0,4.8-0.1,5.2-0.1c0.4,0,0.7,0.2,0.7-0.3c0-0.4,0-12,0-12C35,22.1,39,22,39.4,22c0.3,0,0.5-0.4,0.5-0.6
	c0-0.1,0-3.5,0-4c0-0.5,0-1-0.5-1c-4.1,0-5.8,3-5.8,3s-0.9-2-1-2.3c-0.1-0.2-0.2-0.5-0.6-0.5c-0.5,0-3.1,0-3.5,0
	c-0.3,0-0.7,0-0.7,0.7C27.7,17.2,27.8,34.8,27.8,35.1z M45.8,21.7c1.6,0,2,1.1,2,1.5c0,0.4,0,1.1,0,1.1s-0.9,0-2.3,0
	c-3.6,0-7.6,0.7-7.6,5.6c0,3.7,2.2,6.2,5.8,6.2c2.9,0,5-2.2,5-2.2l0.8,1.8c0,0,3.9,0,4.1,0c0.3,0,0.3-0.3,0.3-0.6
	c0-0.3,0.1-2.7,0-11.1c-0.1-8.4-6.6-7.4-7.5-7.4c-0.9,0-4.5,0-4.8,0c-0.3,0-0.6,0.1-0.6,0.3c0,0.3,0,3.7,0,4s0.2,0.7,0.5,0.7
	C41.6,21.7,43.9,21.7,45.8,21.7z M47.9,30.7c-0.3,0.5-3.1,1.7-3.6,0.1c-0.6-2,1.5-2.6,2.3-2.7c0.4,0,1.3,0,1.3,0
	S47.9,30.4,47.9,30.7z M59.7,35.7h7.2c0,0,5.4-18.3,5.5-18.5c0.1-0.2,0.1-0.6-0.3-0.6c-0.4,0-4.8,0-5.2,0c-0.3,0-0.7,0.1-0.7,0.4
	c-0.1,0.3-2.7,13.9-2.7,13.9s-2.6-13.2-2.7-13.7c-0.1-0.4-0.2-0.7-0.5-0.7c-0.3,0-5.2,0-5.6,0c-0.4,0-0.6,0.4-0.5,0.8L59.7,35.7z
	 M90.2,28.7c0,6.1,5.4,7,6.5,7c1.1,0,2.8,0,3.2,0c0.4,0,0.6-0.2,0.6-0.5c0-0.3,0-3.6,0-3.9c0-0.3-0.1-0.7-0.4-0.7
	c-0.3,0-0.7,0-1.9,0c-1.3,0-1.9-1.2-1.9-1.9c0-0.7,0-18.7,0-19c0-0.3-0.2-0.6-0.6-0.5c-0.3,0.1-4.9,1.6-5.2,1.7
	c-0.3,0.1-0.5,0.4-0.5,0.7C90.1,11.7,90.2,22.6,90.2,28.7z M80.9,16.3c-3.2,0-8.7,1.8-8.7,10.3c0,7.9,6.6,9.3,9.5,9.3
	c3,0,5.2-1.2,5.5-1.4c0.3-0.2,0.5-0.3,0.3-0.7c-0.6-1.7-0.7-1.8-1.4-3.6c-0.1-0.3-0.3-0.3-0.6-0.2c-0.4,0.1-1.8,0.8-3.9,0.8
	c-3.5,0-3.4-2.6-3.4-2.6h10.7C89.2,17.3,84,16.3,80.9,16.3z M82.7,24.4l-4.5,0c0,0,0-3.6,2.4-3.6C82.8,20.8,82.7,24.4,82.7,24.4z"/>
<g>
	<path fill="#FFFFFF" d="M65,40l0.5-0.9c0,0-1.4-1-3-0.2c-1.8,0.9-1.6,4-1.2,4.7c0.4,0.7,1.3,2.3,4.2,1.2l-0.5-1c0,0-1.2,0.8-2.1,0
		c-0.9-0.7-0.8-2.9-0.3-3.6C63.1,39.5,64.3,39.5,65,40z"/>
	<polygon fill="#FFFFFF" points="66.6,38.7 67.7,38.7 67.7,41.4 70.1,41.4 70.1,38.7 71.3,38.7 71.3,45.2 70.1,45.2 70.1,42.4 
		67.7,42.4 67.7,45.2 66.6,45.2 	"/>
	<path fill="#FFFFFF" d="M74.3,38.7h1.3l2.1,6.5h-1.2L76,43.8h-2.2l-0.4,1.4h-1.2L74.3,38.7z M74.1,42.8c0,0,1.6,0,1.6,0L74.9,40
		C74.9,40,74.1,42.8,74.1,42.8z"/>
	<polygon fill="#FFFFFF" points="78.7,38.7 79.8,38.7 82.3,42.9 82.3,38.7 83.4,38.7 83.4,45.2 82.3,45.2 79.9,40.8 79.9,45.2 
		78.7,45.2 	"/>
	<polygon fill="#FFFFFF" points="86.3,45.2 85.1,45.2 85.1,38.7 86.2,38.7 88.6,43 88.6,38.7 89.8,38.7 89.8,45.2 88.7,45.2 
		86.3,40.8 	"/>
	<polygon fill="#FFFFFF" points="91.4,45.2 91.4,38.7 95.4,38.7 95.4,39.7 92.6,39.7 92.6,41.4 94.8,41.4 94.8,42.4 92.6,42.4 
		92.6,44.1 95.4,44.1 95.4,45.2 	"/>
	<polygon fill="#FFFFFF" points="96.7,38.7 97.9,38.7 97.9,44.2 100.5,44.2 100.5,45.2 96.7,45.2 	"/>
</g>
</svg>
