<?xml version="1.0" encoding="UTF-8" standalone="yes"?>
<svg xmlns="http://www.w3.org/2000/svg" xmlns:xlink="http://www.w3.org/1999/xlink" width="269.3333333333333px" height="106.66666666666666px" viewBox="0 0 202 80" version="1.1">
  <g id="surface1">
    <path style=" stroke:none;fill-rule:nonzero;fill:rgb(0%,70.588235%,91.372549%);fill-opacity:1;" d="M 183.421875 0.453125 L 173.066406 0.453125 L 191.152344 39.75 L 173.066406 79.101562 L 183.421875 79.101562 L 201.410156 39.75 Z M 183.421875 0.453125 "/>
    <path style=" stroke:none;fill-rule:nonzero;fill:rgb(0%,70.588235%,91.372549%);fill-opacity:1;" d="M 186.414062 39.742188 L 168.429688 0.460938 L 0.902344 0.453125 L 0.902344 48.414062 C 0.902344 65.351562 14.582031 79.078125 31.457031 79.078125 L 31.457031 79.085938 L 168.425781 79.085938 L 186.414062 39.746094 Z M 186.414062 39.742188 "/>
    <path style=" stroke:none;fill-rule:nonzero;fill:rgb(100%,100%,100%);fill-opacity:1;" d="M 23.757812 43.492188 C 23.757812 53.128906 31.128906 54.5625 33.671875 54.5625 C 35.511719 54.5625 39.191406 54.5625 39.777344 54.5625 C 40.371094 54.5625 40.699219 54.296875 40.699219 53.835938 C 40.699219 53.375 40.699219 48.695312 40.699219 48.101562 C 40.699219 47.507812 40.550781 47.015625 40.09375 47.015625 C 39.632812 47.015625 36.851562 47.003906 35.730469 47.003906 C 33.875 47.003906 32.867188 45.320312 32.867188 44.132812 C 32.867188 42.949219 32.867188 33.40625 32.867188 33.40625 C 32.867188 33.40625 38.972656 33.40625 39.628906 33.40625 C 40.285156 33.40625 40.417969 32.8125 40.417969 32.8125 C 40.417969 32.8125 40.417969 27.410156 40.417969 26.621094 C 40.417969 25.828125 39.628906 25.699219 39.628906 25.699219 L 33.082031 25.699219 C 33.082031 25.699219 33.082031 16.339844 33.082031 15.550781 C 33.082031 14.757812 32.097656 14.890625 32.097656 14.890625 C 32.097656 14.890625 24.875 17.261719 24.414062 17.328125 C 23.957031 17.394531 23.757812 17.59375 23.757812 17.988281 Z M 23.757812 43.492188 "/>
    <path style=" stroke:none;fill-rule:nonzero;fill:rgb(100%,100%,100%);fill-opacity:1;" d="M 42.816406 26.554688 C 42.816406 25.632812 43.472656 25.566406 43.933594 25.566406 C 44.394531 25.566406 48.453125 25.566406 49.144531 25.566406 C 49.835938 25.566406 49.976562 26.027344 50.105469 26.359375 C 50.238281 26.6875 51.550781 29.78125 51.550781 29.78125 C 51.550781 29.78125 54.175781 25.238281 60.347656 25.238281 C 61.070312 25.238281 61.136719 25.960938 61.136719 26.753906 C 61.136719 27.542969 61.136719 32.671875 61.136719 32.824219 C 61.136719 33.191406 60.808594 33.738281 60.347656 33.738281 C 59.886719 33.738281 53.847656 34 52.207031 35.910156 C 52.207031 35.910156 52.207031 53.441406 52.207031 54.097656 C 52.207031 54.757812 51.8125 54.492188 51.222656 54.492188 C 50.628906 54.492188 43.800781 54.625 43.40625 54.625 C 43.015625 54.625 42.847656 54.097656 42.847656 53.636719 C 42.847656 53.175781 42.816406 26.554688 42.816406 26.554688 Z M 42.816406 26.554688 "/>
    <path style=" stroke:none;fill-rule:nonzero;fill:rgb(100%,100%,100%);fill-opacity:1;" d="M 63.703125 33.335938 C 63.210938 33.335938 62.964844 32.839844 62.964844 32.347656 C 62.964844 31.851562 63.007812 26.65625 63.007812 26.261719 C 63.007812 25.867188 63.5 25.765625 63.894531 25.765625 C 64.289062 25.765625 69.804688 25.765625 71.132812 25.765625 C 72.464844 25.765625 82.328125 24.171875 82.445312 36.972656 C 82.558594 49.742188 82.445312 53.367188 82.445312 53.761719 C 82.445312 54.15625 82.363281 54.625 81.921875 54.625 C 81.476562 54.625 75.65625 54.59375 75.65625 54.59375 L 74.433594 51.835938 C 74.433594 51.835938 71.304688 55.1875 66.949219 55.1875 C 61.582031 55.1875 58.179688 51.390625 58.179688 45.753906 C 58.179688 38.390625 64.335938 37.304688 69.707031 37.304688 C 71.726562 37.304688 73.132812 37.304688 73.132812 37.304688 C 73.132812 37.304688 73.132812 36.117188 73.132812 35.574219 C 73.132812 35.03125 72.492188 33.335938 70.050781 33.335938 C 67.242188 33.335938 63.703125 33.335938 63.703125 33.335938 Z M 73.21875 43.15625 C 73.21875 43.15625 71.863281 43.101562 71.242188 43.15625 C 70.105469 43.246094 66.90625 44.109375 67.792969 47.191406 C 68.488281 49.605469 72.785156 47.800781 73.21875 47.015625 C 73.21875 46.585938 73.21875 43.15625 73.21875 43.15625 Z M 73.21875 43.15625 "/>
    <path style=" stroke:none;fill-rule:nonzero;fill:rgb(100%,100%,100%);fill-opacity:1;" d="M 82.851562 26.71875 C 82.652344 26.074219 82.949219 25.535156 83.589844 25.535156 C 84.230469 25.535156 91.566406 25.535156 92.011719 25.535156 C 92.453125 25.535156 92.699219 25.929688 92.800781 26.570312 C 92.898438 27.214844 96.835938 47.277344 96.835938 47.277344 C 96.835938 47.277344 100.726562 26.71875 100.875 26.226562 C 101.023438 25.730469 101.515625 25.632812 102.007812 25.632812 C 102.5 25.632812 109.246094 25.632812 109.789062 25.632812 C 110.332031 25.632812 110.28125 26.226562 110.183594 26.570312 C 110.082031 26.917969 101.910156 54.59375 101.910156 54.59375 L 91.074219 54.59375 Z M 82.851562 26.71875 "/>
    <path style=" stroke:none;fill-rule:nonzero;fill:rgb(100%,100%,100%);fill-opacity:1;" d="M 136.996094 18.152344 C 136.996094 17.808594 137.222656 17.34375 137.734375 17.140625 C 138.222656 16.949219 145.171875 14.609375 145.574219 14.507812 C 146.183594 14.355469 146.453125 14.859375 146.453125 15.304688 C 146.453125 15.75 146.402344 43.027344 146.402344 44.066406 C 146.402344 45.105469 147.335938 46.882812 149.261719 46.882812 C 151.179688 46.882812 151.769531 46.882812 152.164062 46.882812 C 152.558594 46.882812 152.757812 47.375 152.757812 47.871094 C 152.757812 48.367188 152.757812 53.308594 152.757812 53.800781 C 152.757812 54.296875 152.460938 54.542969 151.820312 54.542969 C 151.179688 54.542969 148.714844 54.542969 146.992188 54.542969 C 145.269531 54.542969 137.144531 53.207031 137.144531 43.96875 C 137.144531 34.726562 136.996094 18.152344 136.996094 18.152344 Z M 136.996094 18.152344 "/>
    <path style=" stroke:none;fill-rule:nonzero;fill:rgb(100%,100%,100%);fill-opacity:1;" d="M 135.203125 43.027344 L 119.082031 43.027344 C 119.082031 43.027344 118.855469 46.988281 124.171875 47.027344 C 127.449219 47.050781 129.574219 46.03125 130.117188 45.882812 C 130.660156 45.738281 130.855469 45.738281 131.054688 46.230469 C 132.1875 49.074219 132.257812 49.15625 133.191406 51.757812 C 133.410156 52.371094 133.125 52.554688 132.679688 52.851562 C 132.234375 53.148438 128.800781 55.035156 124.320312 55.035156 C 119.839844 55.035156 109.941406 52.914062 109.941406 40.902344 C 109.941406 28.003906 118.3125 25.238281 123.089844 25.238281 C 127.867188 25.238281 135.597656 26.667969 135.203125 43.027344 Z M 122.59375 31.996094 C 118.9375 31.996094 118.964844 37.410156 118.964844 37.410156 L 125.835938 37.40625 C 125.835938 37.40625 125.984375 31.996094 122.59375 31.996094 Z M 122.59375 31.996094 "/>
    <path style=" stroke:none;fill-rule:nonzero;fill:rgb(100%,100%,100%);fill-opacity:1;" d="M 99.09375 61.074219 L 99.820312 59.707031 C 99.820312 59.707031 97.679688 58.226562 95.265625 59.386719 C 92.480469 60.726562 92.917969 65.445312 93.523438 66.578125 C 94.132812 67.710938 95.554688 70.128906 99.820312 68.324219 L 99.125 66.839844 C 99.125 66.839844 97.324219 68.035156 95.902344 66.898438 C 94.480469 65.765625 94.683594 62.503906 95.441406 61.453125 C 96.191406 60.40625 98.019531 60.378906 99.09375 61.074219 Z M 99.09375 61.074219 "/>
    <path style=" stroke:none;fill-rule:nonzero;fill:rgb(100%,100%,100%);fill-opacity:1;" d="M 101.53125 59.066406 L 103.242188 59.066406 L 103.242188 63.199219 L 106.839844 63.191406 L 106.839844 59.066406 L 108.578125 59.066406 L 108.578125 68.972656 L 106.820312 68.972656 L 106.839844 64.808594 L 103.242188 64.800781 L 103.242188 68.972656 L 101.53125 68.972656 Z M 101.53125 59.066406 "/>
    <path style=" stroke:none;fill-rule:nonzero;fill:rgb(100%,100%,100%);fill-opacity:1;" d="M 113.085938 59.066406 L 115.109375 59.066406 L 118.242188 68.972656 L 116.371094 68.972656 L 115.664062 66.792969 L 112.378906 66.792969 L 111.738281 68.972656 L 109.996094 68.972656 Z M 112.816406 65.277344 C 112.835938 65.277344 115.292969 65.277344 115.292969 65.277344 L 114.054688 61.105469 C 114.054688 61.105469 112.792969 65.277344 112.816406 65.277344 Z M 112.816406 65.277344 "/>
    <path style=" stroke:none;fill-rule:nonzero;fill:rgb(100%,100%,100%);fill-opacity:1;" d="M 119.789062 59.066406 L 121.507812 59.066406 L 125.171875 65.558594 L 125.171875 59.066406 L 126.910156 59.066406 L 126.910156 68.972656 L 125.207031 68.972656 L 121.539062 62.304688 L 121.5625 68.972656 L 119.789062 68.972656 Z M 119.789062 59.066406 "/>
    <path style=" stroke:none;fill-rule:nonzero;fill:rgb(100%,100%,100%);fill-opacity:1;" d="M 131.230469 68.972656 L 129.445312 68.972656 L 129.445312 59.066406 L 131.175781 59.066406 L 134.808594 65.582031 L 134.808594 59.066406 L 136.59375 59.066406 L 136.59375 68.972656 L 134.875 68.972656 L 131.199219 62.339844 Z M 131.230469 68.972656 "/>
    <path style=" stroke:none;fill-rule:nonzero;fill:rgb(100%,100%,100%);fill-opacity:1;" d="M 139.042969 68.972656 L 139.042969 59.066406 L 145.011719 59.066406 L 145.011719 60.582031 L 140.804688 60.582031 L 140.804688 63.191406 L 144.078125 63.191406 L 144.078125 64.753906 L 140.792969 64.753906 L 140.792969 67.382812 L 145.011719 67.382812 L 145.011719 68.972656 Z M 139.042969 68.972656 "/>
    <path style=" stroke:none;fill-rule:nonzero;fill:rgb(100%,100%,100%);fill-opacity:1;" d="M 146.957031 59.066406 L 148.757812 59.066406 L 148.757812 67.394531 L 152.679688 67.394531 L 152.679688 68.972656 L 146.957031 68.972656 Z M 146.957031 59.066406 "/>
  </g>
</svg>