<?xml version="1.0" encoding="UTF-8" standalone="yes"?>
<svg xmlns="http://www.w3.org/2000/svg" xmlns:xlink="http://www.w3.org/1999/xlink" width="205.33333333333331px" height="106.66666666666666px" viewBox="0 0 154 80" version="1.1">
  <g id="surface1">
    <path style=" stroke:none;fill-rule:nonzero;fill:rgb(0%,33.72549%,64.705882%);fill-opacity:1;" d="M 153.964844 0 L 153.964844 80 L 74.367188 80 L 74.367188 0 L 153.964844 0 M 150.683594 3.289062 L 77.640625 3.289062 L 77.640625 76.699219 L 150.683594 76.699219 Z M 150.683594 3.289062 "/>
    <path style=" stroke:none;fill-rule:nonzero;fill:rgb(0%,33.72549%,64.705882%);fill-opacity:1;" d="M 79.570312 0.0117188 L 0 0.0117188 L 0 80 L 79.570312 80 Z M 16.019531 39.0625 L 16.820312 39.0625 C 19.511719 39.0625 22.546875 38.5625 22.546875 35.082031 C 22.546875 31.613281 19.511719 31.101562 16.820312 31.101562 L 16.019531 31.101562 Z M 34.183594 56.6875 L 23.902344 56.6875 L 16.105469 44.402344 L 16.019531 44.402344 L 16.019531 56.6875 L 7.761719 56.6875 L 7.761719 24.742188 L 20.105469 24.742188 C 26.386719 24.742188 31.148438 27.753906 31.148438 34.570312 C 31.148438 38.984375 28.699219 42.796875 24.191406 43.597656 Z M 42.417969 45.847656 C 42.417969 48.59375 44.230469 50.71875 47.351562 50.71875 C 50.46875 50.71875 52.28125 48.59375 52.28125 45.847656 C 52.28125 43.175781 50.46875 40.933594 47.351562 40.933594 C 44.230469 40.933594 42.417969 43.175781 42.417969 45.847656 M 59.695312 56.6875 L 52.03125 56.6875 L 52.03125 54.277344 L 51.9375 54.277344 C 50.59375 56.4375 47.945312 57.40625 45.40625 57.40625 C 39 57.40625 34.492188 52.027344 34.492188 45.800781 C 34.492188 39.574219 38.925781 34.230469 45.328125 34.230469 C 47.808594 34.230469 50.429688 35.164062 52.03125 37.074219 L 52.03125 34.957031 L 59.695312 34.957031 Z M 72.585938 26.609375 C 72.585938 28.984375 70.640625 30.929688 68.285156 30.929688 C 65.929688 30.929688 63.984375 28.984375 63.984375 26.609375 C 63.984375 24.238281 65.929688 22.292969 68.285156 22.292969 C 70.640625 22.292969 72.585938 24.238281 72.585938 26.609375 M 72.121094 56.6875 L 64.457031 56.6875 L 64.457031 34.957031 L 72.121094 34.957031 Z M 123.363281 13.140625 L 123.363281 65.996094 L 110.679688 65.996094 L 110.679688 30.671875 L 100.605469 30.671875 L 100.605469 23.222656 C 100.613281 23.222656 100.636719 23.222656 100.652344 23.222656 C 103.910156 23.222656 106.417969 22.261719 108.199219 20.328125 C 109.964844 18.398438 110.84375 16.003906 110.84375 13.152344 L 110.84375 13.140625 Z M 123.363281 13.140625 "/>
  </g>
</svg>