<?xml version="1.0" encoding="UTF-8" standalone="no"?>
<!-- Created with Inkscape (http://www.inkscape.org/) -->

<svg
   xmlns:dc="http://purl.org/dc/elements/1.1/"
   xmlns:cc="http://creativecommons.org/ns#"
   xmlns:rdf="http://www.w3.org/1999/02/22-rdf-syntax-ns#"
   xmlns:svg="http://www.w3.org/2000/svg"
   xmlns="http://www.w3.org/2000/svg"
   xmlns:xlink="http://www.w3.org/1999/xlink"
   xmlns:sodipodi="http://sodipodi.sourceforge.net/DTD/sodipodi-0.dtd"
   xmlns:inkscape="http://www.inkscape.org/namespaces/inkscape"
   width="387"
   height="200"
   id="svg2"
   version="1.1">
  <g
     inkscape:label="Layer 1"
     inkscape:groupmode="layer"
     id="layer1"
     transform="translate(-240.73827,-77.672273)">
    <path
       d="M 627.64825,77.672273 V 277.67227 H 427.62224 V 77.672273 h 200.02601 m -8.2399,8.22686 H 435.8491 V 269.41933 H 619.40835 V 85.899133 z"
       id="path2899"
       style="fill:#0056a5;fill-opacity:1" />
    <path
       d="M 440.69916,77.698353 H 240.73827 V 277.67227 H 440.69916 V 77.698353 z M 280.99903,175.32548 h 2.00782 c 6.76664,0 14.39374,-1.25164 14.39374,-9.94786 0,-8.67014 -7.6271,-9.94784 -14.39374,-9.94784 h -2.00782 v 19.8957 z m 45.64537,44.06779 H 300.80347 L 281.20763,188.6762 h -0.2086 v 30.71707 h -20.75618 v -79.86963 h 31.01694 c 15.78878,0 27.75749,7.53586 27.75749,24.57628 0,11.02998 -6.15383,20.56062 -17.48369,22.56844 l 25.11081,32.72491 z m 20.691,-27.10561 c 0,6.87092 4.5502,12.17732 12.39896,12.17732 7.83572,0 12.38592,-5.3064 12.38592,-12.17732 0,-6.67536 -4.5502,-12.28162 -12.38592,-12.28162 -7.84876,0 -12.39896,5.60626 -12.39896,12.28162 m 43.4159,27.10561 h -19.25684 v -6.02348 h -0.23468 c -3.3768,5.39766 -10.03912,7.82268 -16.4146,7.82268 -16.1017,0 -27.43156,-13.45502 -27.43156,-29.02215 0,-15.56714 11.14734,-28.91786 27.236,-28.91786 6.23206,0 12.81616,2.33376 16.84484,7.1056 v -5.29334 h 19.25684 v 54.32855 z m 32.39896,-75.20209 c 0,5.94524 -4.88918,10.80834 -10.80834,10.80834 -5.91916,0 -10.80834,-4.8631 -10.80834,-10.80834 0,-5.91916 4.88918,-10.78226 10.80834,-10.78226 5.91916,0 10.80834,4.8631 10.80834,10.78226 m -1.1734,75.20209 h -19.25684 v -54.32855 h 19.25684 v 54.32855 z M 550.75127,110.52756 v 132.13819 h -31.87742 v -88.31811 h -25.31941 v -18.618 c 0.026,0 0.0782,0 0.1174,0 8.18774,0 14.49804,-2.39896 18.97002,-7.23598 4.43283,-4.82398 6.64927,-10.80834 6.64927,-17.94002 v -0.026 h 31.4602 z"
       id="path2901"
       style="fill:#0056a5;fill-opacity:1" />
  </g>
</svg>
