<?xml version="1.0" encoding="UTF-8" ?>
<!DOCTYPE svg PUBLIC "-//W3C//DTD SVG 1.1//EN" "http://www.w3.org/Graphics/SVG/1.1/DTD/svg11.dtd">
<svg width="155pt" height="130pt" viewBox="0 0 155 130" version="1.1" xmlns="http://www.w3.org/2000/svg">
<g id="#ffdd00ff">
<path fill="#ffdd00" opacity="1.00" d=" M 0.00 0.00 L 155.00 0.00 L 155.00 98.38 C 103.37 107.68 51.66 116.49 0.00 125.64 L 0.00 0.00 M 27.09 28.43 C 26.93 30.98 26.95 33.55 27.19 36.09 C 29.10 35.34 30.96 34.44 32.75 33.41 C 32.76 54.99 32.73 76.57 32.76 98.15 C 42.87 92.51 52.73 86.44 62.75 80.65 C 72.71 91.67 89.48 95.71 103.32 90.26 C 115.08 85.94 124.20 75.19 126.51 62.87 C 128.49 53.34 126.40 43.09 121.01 35.01 C 115.71 27.16 107.38 21.35 98.07 19.41 C 87.49 17.10 75.94 19.64 67.43 26.35 C 52.96 37.07 48.86 58.82 58.10 74.21 C 53.87 76.89 49.53 79.37 45.26 81.98 C 45.24 60.72 45.26 39.47 45.25 18.21 C 39.18 21.59 33.20 25.12 27.09 28.43 Z" />
<path fill="#ffdd00" opacity="1.00" d=" M 85.43 33.54 C 96.45 30.91 108.50 38.16 111.61 48.99 C 114.24 57.33 111.42 67.04 104.68 72.62 C 98.84 77.76 90.22 79.42 82.89 76.84 C 73.16 73.67 66.38 63.23 67.76 53.03 C 68.67 43.61 76.20 35.45 85.43 33.54 Z" />
</g>
<g id="#000000ff">
<path fill="#000000" opacity="1.00" d=" M 27.09 28.43 C 33.20 25.12 39.18 21.59 45.25 18.21 C 45.26 39.47 45.24 60.72 45.26 81.98 C 49.53 79.37 53.87 76.89 58.10 74.21 C 48.86 58.82 52.96 37.07 67.43 26.35 C 75.94 19.64 87.49 17.10 98.07 19.41 C 107.38 21.35 115.71 27.16 121.01 35.01 C 126.40 43.09 128.49 53.34 126.51 62.87 C 124.20 75.19 115.08 85.94 103.32 90.26 C 89.48 95.71 72.71 91.67 62.75 80.65 C 52.73 86.44 42.87 92.51 32.76 98.15 C 32.73 76.57 32.76 54.99 32.75 33.41 C 30.96 34.44 29.10 35.34 27.19 36.09 C 26.95 33.55 26.93 30.98 27.09 28.43 M 85.43 33.54 C 76.20 35.45 68.67 43.61 67.76 53.03 C 66.38 63.23 73.16 73.67 82.89 76.84 C 90.22 79.42 98.84 77.76 104.68 72.62 C 111.42 67.04 114.24 57.33 111.61 48.99 C 108.50 38.16 96.45 30.91 85.43 33.54 Z" />
</g>
<g id="#ffffffff">
</g>
</svg>
