<?xml version="1.0" encoding="UTF-8" ?>
<!DOCTYPE svg PUBLIC "-//W3C//DTD SVG 1.1//EN" "http://www.w3.org/Graphics/SVG/1.1/DTD/svg11.dtd">
<svg width="200pt" height="200pt" viewBox="0 0 200 200" version="1.1" xmlns="http://www.w3.org/2000/svg">
<g id="#8fcfd8ff">
<path fill="#8fcfd8" opacity="1.00" d=" M 85.54 24.82 C 97.41 22.75 110.01 23.57 121.09 28.53 C 143.27 37.75 158.68 60.93 158.31 85.00 C 158.71 110.04 141.95 134.12 118.40 142.60 C 101.98 148.58 83.06 147.00 67.84 138.41 C 49.01 127.43 36.03 106.01 37.04 83.97 C 36.57 56.14 58.37 30.23 85.54 24.82 M 65.56 42.60 C 59.94 53.05 54.67 63.69 49.15 74.19 C 48.46 75.52 47.55 76.81 47.42 78.35 C 53.50 78.36 59.59 78.52 65.67 78.27 C 65.70 94.19 65.66 110.12 65.68 126.04 C 65.24 127.99 67.75 127.84 68.93 128.12 C 75.19 128.37 81.45 127.63 87.72 127.73 L 87.71 127.13 C 87.99 126.81 88.53 126.19 88.81 125.87 C 95.16 114.19 100.72 102.06 107.40 90.56 C 107.68 102.91 107.26 115.27 107.61 127.61 C 114.93 127.76 122.27 127.82 129.59 127.58 C 135.15 117.06 140.51 106.44 146.01 95.90 C 146.67 94.51 147.74 93.18 147.64 91.55 C 141.57 91.70 135.50 91.43 129.44 91.70 C 129.53 75.39 129.33 59.07 129.54 42.76 C 126.28 41.03 122.51 42.02 119.00 41.78 C 115.10 41.96 111.15 41.57 107.29 42.22 C 107.30 42.52 107.33 43.11 107.35 43.40 C 105.73 44.86 104.91 46.90 103.94 48.78 C 98.83 58.63 93.82 68.53 88.63 78.33 C 88.41 78.00 87.98 77.33 87.76 76.99 C 87.49 65.45 87.70 53.88 87.67 42.33 C 84.85 41.41 81.91 42.03 79.03 42.15 C 74.55 41.61 69.98 41.64 65.56 42.60 Z" />
<path fill="#8fcfd8" opacity="1.00" d=" M 81.41 158.43 C 82.96 158.61 84.72 158.10 86.12 158.90 C 86.68 161.76 86.16 164.73 86.35 167.62 C 89.33 167.63 92.31 167.76 95.29 167.48 C 95.32 164.48 95.30 161.48 95.46 158.48 C 97.08 158.49 98.70 158.53 100.33 158.62 C 101.02 166.16 100.94 173.85 100.36 181.40 C 98.71 181.61 97.05 181.67 95.40 181.62 C 95.33 178.50 95.27 175.39 95.31 172.28 C 92.34 171.65 89.29 171.80 86.31 172.18 C 86.37 175.25 86.29 178.32 86.36 181.39 C 84.69 181.64 83.01 181.67 81.33 181.63 C 81.30 173.90 81.15 166.16 81.41 158.43 M 81.63 158.70 C 81.43 166.26 81.40 173.84 81.64 181.41 C 82.63 181.40 84.60 181.38 85.59 181.37 C 85.78 178.17 85.64 174.96 85.78 171.76 C 89.03 171.55 92.29 171.62 95.55 171.60 C 95.69 174.84 95.73 178.08 95.73 181.32 C 97.12 181.22 99.97 182.20 99.96 179.90 C 100.28 173.31 100.26 166.67 99.97 160.09 C 99.90 157.85 97.15 158.91 95.78 158.72 C 95.61 161.70 95.92 164.72 95.46 167.68 C 92.75 168.81 89.43 167.95 86.49 168.12 C 84.57 165.69 86.35 161.69 85.57 158.69 C 84.58 158.69 82.61 158.70 81.63 158.70 Z" />
<path fill="#8fcfd8" opacity="1.00" d=" M 105.36 158.52 C 110.55 158.90 116.85 156.94 121.06 160.91 C 126.27 165.45 125.32 173.67 122.13 179.11 C 117.18 182.52 111.06 181.68 105.40 181.55 C 104.99 173.89 105.08 166.18 105.36 158.52 M 105.80 158.73 C 105.62 166.26 105.65 173.80 105.77 181.32 C 111.26 181.66 117.03 181.79 121.98 179.01 C 124.39 174.01 125.68 167.51 122.28 162.67 C 118.53 157.44 111.38 158.76 105.80 158.73 Z" />
<path fill="#8fcfd8" opacity="1.00" d=" M 109.91 163.00 C 111.76 162.02 114.16 162.60 116.21 162.72 C 120.83 164.64 120.10 170.56 119.27 174.53 C 118.17 178.54 113.32 177.35 110.22 177.61 C 109.32 172.84 109.95 167.84 109.91 163.00 M 110.53 163.20 C 110.55 167.75 110.58 172.30 110.51 176.85 C 113.05 177.47 115.64 176.94 118.09 176.20 C 119.31 172.63 120.03 168.36 118.18 164.89 C 116.56 162.27 113.06 163.44 110.53 163.20 Z" />
</g>
<g id="#fe017aff">
<path fill="#fe017a" opacity="1.00" d=" M 65.56 42.60 C 69.98 41.64 74.55 41.61 79.03 42.15 C 81.91 42.03 84.85 41.41 87.67 42.33 C 87.70 53.88 87.49 65.45 87.76 76.99 C 87.98 77.33 88.41 78.00 88.63 78.33 C 88.00 79.78 87.56 81.32 87.63 82.92 C 87.72 97.66 87.56 112.39 87.71 127.13 L 87.72 127.73 C 81.45 127.63 75.19 128.37 68.93 128.12 C 67.75 127.84 65.24 127.99 65.68 126.04 C 65.66 110.12 65.70 94.19 65.67 78.27 C 65.61 66.38 65.82 54.49 65.56 42.60 Z" />
<path fill="#fe017a" opacity="1.00" d=" M 107.29 42.22 C 111.15 41.57 115.10 41.96 119.00 41.78 C 122.51 42.02 126.28 41.03 129.54 42.76 C 129.33 59.07 129.53 75.39 129.44 91.70 C 129.39 103.62 129.55 115.53 129.37 127.44 C 122.12 127.83 114.86 127.52 107.61 127.61 C 107.26 115.27 107.68 102.91 107.40 90.56 C 107.49 74.84 107.60 59.12 107.35 43.40 C 107.33 43.11 107.30 42.52 107.29 42.22 Z" />
</g>
<g id="#000000ff">
<path fill="#000000" opacity="1.00" d=" M 49.15 74.19 C 54.67 63.69 59.94 53.05 65.56 42.60 C 65.82 54.49 65.61 66.38 65.67 78.27 C 59.59 78.52 53.50 78.36 47.42 78.35 C 47.55 76.81 48.46 75.52 49.15 74.19 Z" />
<path fill="#000000" opacity="1.00" d=" M 103.94 48.78 C 104.91 46.90 105.73 44.86 107.35 43.40 C 107.60 59.12 107.49 74.84 107.40 90.56 C 100.72 102.06 95.16 114.19 88.81 125.87 C 88.53 126.19 87.99 126.81 87.71 127.13 C 87.56 112.39 87.72 97.66 87.63 82.92 C 87.56 81.32 88.00 79.78 88.63 78.33 C 93.82 68.53 98.83 58.63 103.94 48.78 Z" />
<path fill="#000000" opacity="1.00" d=" M 129.44 91.70 C 135.50 91.43 141.57 91.70 147.64 91.55 C 147.74 93.18 146.67 94.51 146.01 95.90 C 140.51 106.44 135.15 117.06 129.59 127.58 C 122.27 127.82 114.93 127.76 107.61 127.61 C 114.86 127.52 122.12 127.83 129.37 127.44 C 129.55 115.53 129.39 103.62 129.44 91.70 Z" />
<path fill="#000000" opacity="1.00" d=" M 81.63 158.70 C 82.61 158.70 84.58 158.69 85.57 158.69 C 86.35 161.69 84.57 165.69 86.49 168.12 C 89.43 167.95 92.75 168.81 95.46 167.68 C 95.92 164.72 95.61 161.70 95.78 158.72 C 97.15 158.91 99.90 157.85 99.97 160.09 C 100.26 166.67 100.28 173.31 99.96 179.90 C 99.97 182.20 97.12 181.22 95.73 181.32 C 95.73 178.08 95.69 174.84 95.55 171.60 C 92.29 171.62 89.03 171.55 85.78 171.76 C 85.64 174.96 85.78 178.17 85.59 181.37 C 84.60 181.38 82.63 181.40 81.64 181.41 C 81.40 173.84 81.43 166.26 81.63 158.70 Z" />
<path fill="#000000" opacity="1.00" d=" M 105.80 158.73 C 111.38 158.76 118.53 157.44 122.28 162.67 C 125.68 167.51 124.39 174.01 121.98 179.01 C 117.03 181.79 111.26 181.66 105.77 181.32 C 105.65 173.80 105.62 166.26 105.80 158.73 M 109.91 163.00 C 109.95 167.84 109.32 172.84 110.22 177.61 C 113.32 177.35 118.17 178.54 119.27 174.53 C 120.10 170.56 120.83 164.64 116.21 162.72 C 114.16 162.60 111.76 162.02 109.91 163.00 Z" />
</g>
</svg>
