<?xml version="1.0" encoding="UTF-8" ?>
<!DOCTYPE svg PUBLIC "-//W3C//DTD SVG 1.1//EN" "http://www.w3.org/Graphics/SVG/1.1/DTD/svg11.dtd">
<svg width="1000pt" height="448pt" viewBox="0 0 1000 448" version="1.1" xmlns="http://www.w3.org/2000/svg">
<g id="#d21e1eff">
<path fill="#d21e1e" opacity="1.00" d=" M 61.71 16.75 C 67.61 6.72 79.31 0.17 90.98 0.87 C 223.09 0.92 355.19 0.84 487.30 0.91 C 467.81 29.56 448.53 58.36 429.09 87.05 C 426.01 91.56 423.29 96.53 418.79 99.82 C 412.62 104.51 404.92 107.70 397.07 107.26 C 265.01 107.18 132.95 107.37 0.89 107.17 C 20.84 76.83 41.48 46.91 61.71 16.75 Z" />
<path fill="#d21e1e" opacity="1.00" d=" M 562.82 8.77 C 568.49 4.18 575.56 0.78 583.00 0.87 C 670.34 0.90 757.68 0.88 845.02 0.88 C 860.38 1.15 875.78 0.20 891.10 1.70 C 920.44 5.59 948.61 19.35 968.84 41.10 C 986.64 60.00 997.94 85.11 999.32 111.10 C 1001.61 141.31 991.13 171.31 973.92 195.85 C 957.38 219.51 935.09 238.94 909.98 253.07 C 883.50 267.99 853.48 277.05 822.99 277.52 C 746.13 277.49 669.28 277.54 592.43 277.49 C 612.99 247.00 633.61 216.54 654.19 186.06 C 659.64 177.24 669.75 171.72 679.99 171.00 C 732.99 171.00 785.99 170.99 838.99 171.01 C 853.13 170.96 866.66 163.11 874.60 151.56 C 878.02 146.37 880.45 140.28 880.31 133.98 C 880.45 126.13 876.99 118.05 870.58 113.35 C 864.72 108.95 857.25 107.01 849.97 107.25 C 731.72 107.27 613.46 107.20 495.21 107.28 C 514.23 78.34 533.92 49.82 553.19 21.04 C 556.20 16.81 558.65 12.03 562.82 8.77 Z" />
<path fill="#d21e1e" opacity="1.00" d=" M 194.07 171.01 C 233.60 170.98 273.13 171.01 312.65 171.00 C 303.92 252.57 295.35 334.16 286.90 415.76 C 338.62 338.88 390.56 262.16 442.32 185.30 C 448.02 176.94 457.86 171.53 467.95 171.00 C 506.17 171.00 544.39 171.00 582.61 171.00 C 523.47 258.71 464.28 346.38 405.14 434.09 C 399.30 442.36 389.40 447.08 379.47 448.00 L 201.54 448.00 C 199.94 447.83 196.72 447.50 195.11 447.34 C 186.15 446.69 177.71 441.44 173.00 433.82 C 169.27 428.06 167.89 420.93 168.54 414.16 C 174.04 360.77 179.69 307.41 185.32 254.04 C 186.19 242.20 188.17 230.46 188.91 218.60 C 190.94 202.77 192.08 186.85 194.07 171.01 Z" />
<path fill="#d21e1e" opacity="1.00" d=" M 540.11 355.01 C 545.97 346.79 555.94 341.53 566.00 341.15 C 690.63 341.21 815.25 341.07 939.87 341.22 C 919.34 371.61 898.82 402.00 878.31 432.40 C 872.54 441.93 861.45 447.71 850.39 447.77 L 854.33 448.00 L 478.20 448.00 C 478.40 447.03 478.74 446.12 479.23 445.27 C 499.55 415.20 519.83 385.11 540.11 355.01 Z" />
</g>
</svg>
