<?xml version="1.0" encoding="UTF-8" standalone="yes"?>
<svg xmlns="http://www.w3.org/2000/svg" xmlns:xlink="http://www.w3.org/1999/xlink" width="237.33333333333331px" height="106.66666666666666px" viewBox="0 0 178 80" version="1.1">
  <g id="surface1">
    <path style=" stroke:none;fill-rule:nonzero;fill:rgb(82.352941%,11.764706%,11.764706%);fill-opacity:1;" d="M 10.984375 2.992188 C 12.035156 1.199219 14.117188 0.03125 16.195312 0.15625 C 39.710938 0.164062 63.222656 0.148438 86.738281 0.164062 C 83.269531 5.277344 79.839844 10.421875 76.378906 15.542969 C 75.828125 16.351562 75.34375 17.238281 74.542969 17.824219 C 73.445312 18.664062 72.074219 19.230469 70.679688 19.152344 C 47.171875 19.140625 23.664062 19.171875 0.160156 19.136719 C 3.710938 13.71875 7.382812 8.375 10.984375 2.992188 Z M 10.984375 2.992188 "/>
    <path style=" stroke:none;fill-rule:nonzero;fill:rgb(82.352941%,11.764706%,11.764706%);fill-opacity:1;" d="M 100.183594 1.566406 C 101.191406 0.746094 102.449219 0.140625 103.773438 0.15625 C 119.320312 0.160156 134.867188 0.15625 150.414062 0.15625 C 153.148438 0.207031 155.890625 0.0351562 158.617188 0.304688 C 163.839844 1 168.851562 3.457031 172.453125 7.339844 C 175.621094 10.714844 177.632812 15.199219 177.878906 19.839844 C 178.285156 25.234375 176.421875 30.589844 173.359375 34.972656 C 170.414062 39.199219 166.445312 42.667969 161.976562 45.191406 C 157.261719 47.855469 151.917969 49.472656 146.492188 49.558594 C 132.8125 49.550781 119.132812 49.5625 105.453125 49.550781 C 109.113281 44.105469 112.78125 38.667969 116.445312 33.226562 C 117.414062 31.648438 119.214844 30.664062 121.039062 30.535156 C 130.472656 30.535156 139.90625 30.535156 149.339844 30.539062 C 151.855469 30.527344 154.265625 29.125 155.679688 27.0625 C 156.289062 26.136719 156.71875 25.050781 156.695312 23.925781 C 156.71875 22.523438 156.105469 21.082031 154.964844 20.242188 C 153.921875 19.457031 152.589844 19.109375 151.292969 19.152344 C 130.246094 19.15625 109.195312 19.144531 88.148438 19.15625 C 91.53125 13.988281 95.039062 8.894531 98.46875 3.757812 C 99.003906 3 99.441406 2.148438 100.183594 1.566406 Z M 100.183594 1.566406 "/>
    <path style=" stroke:none;fill-rule:nonzero;fill:rgb(82.352941%,11.764706%,11.764706%);fill-opacity:1;" d="M 34.542969 30.539062 C 41.582031 30.53125 48.617188 30.539062 55.652344 30.535156 C 54.097656 45.101562 52.574219 59.671875 51.066406 74.242188 C 60.273438 60.515625 69.519531 46.8125 78.734375 33.089844 C 79.746094 31.597656 81.5 30.628906 83.296875 30.535156 C 90.097656 30.535156 96.902344 30.535156 103.703125 30.535156 C 93.175781 46.199219 82.640625 61.855469 72.113281 77.515625 C 71.074219 78.992188 69.3125 79.835938 67.546875 80 L 35.875 80 C 35.589844 79.96875 35.015625 79.910156 34.730469 79.882812 C 33.132812 79.765625 31.632812 78.828125 30.792969 77.46875 C 30.128906 76.4375 29.882812 75.167969 30 73.957031 C 30.980469 64.421875 31.984375 54.894531 32.988281 45.363281 C 33.140625 43.25 33.496094 41.152344 33.625 39.035156 C 33.988281 36.207031 34.191406 33.367188 34.542969 30.539062 Z M 34.542969 30.539062 "/>
    <path style=" stroke:none;fill-rule:nonzero;fill:rgb(82.352941%,11.764706%,11.764706%);fill-opacity:1;" d="M 96.140625 63.394531 C 97.183594 61.925781 98.957031 60.988281 100.746094 60.917969 C 122.933594 60.929688 145.113281 60.90625 167.296875 60.933594 C 163.640625 66.359375 159.988281 71.785156 156.339844 77.214844 C 155.3125 78.917969 153.339844 79.949219 151.371094 79.957031 L 152.070312 80 L 85.121094 80 C 85.15625 79.828125 85.214844 79.664062 85.304688 79.511719 C 88.917969 74.144531 92.53125 68.769531 96.140625 63.394531 Z M 96.140625 63.394531 "/>
  </g>
</svg>