<?xml version="1.0" encoding="UTF-8" standalone="no"?>
<!-- Created with Inkscape (http://www.inkscape.org/) -->
<svg xmlns:dc="http://purl.org/dc/elements/1.1/" xmlns:cc="http://creativecommons.org/ns#" xmlns:rdf="http://www.w3.org/1999/02/22-rdf-syntax-ns#" xmlns:svg="http://www.w3.org/2000/svg" xmlns="http://www.w3.org/2000/svg" xmlns:sodipodi="http://sodipodi.sourceforge.net/DTD/sodipodi-0.dtd" xmlns:inkscape="http://www.inkscape.org/namespaces/inkscape" width="200" height="297.39255" id="svg2" version="1.1" inkscape:version="0.48.2 r9819" sodipodi:docname="New document 1">
  <defs id="defs4">
    <inkscape:path-effect is_visible="true" id="path-effect3789" effect="spiro"/>
    <inkscape:path-effect effect="spiro" id="path-effect3004" is_visible="true"/>
    <inkscape:path-effect effect="spiro" id="path-effect3000" is_visible="true"/>
  </defs>
  <sodipodi:namedview id="base" pagecolor="#ffffff" bordercolor="#666666" borderopacity="1.0" inkscape:pageopacity="0.0" inkscape:pageshadow="2" inkscape:zoom="0.7" inkscape:cx="245.71069" inkscape:cy="70.379415" inkscape:document-units="px" inkscape:current-layer="layer1" showgrid="false" fit-margin-left="0.5" fit-margin-top="0.5" fit-margin-bottom="0.5" fit-margin-right="0.5" inkscape:window-width="1920" inkscape:window-height="1028" inkscape:window-x="-8" inkscape:window-y="-8" inkscape:window-maximized="1">
    <inkscape:grid type="xygrid" id="grid2996" empspacing="5" visible="true" enabled="true" snapvisiblegridlinesonly="true"/>
  </sodipodi:namedview>
  <metadata id="metadata7">
    <rdf:RDF>
      <cc:Work rdf:about="">
        <dc:format>image/svg+xml</dc:format>
        <dc:type rdf:resource="http://purl.org/dc/dcmitype/StillImage"/>
        <dc:title/>
      </cc:Work>
    </rdf:RDF>
  </metadata>
  <g inkscape:label="Layer 1" inkscape:groupmode="layer" id="layer1" transform="translate(-885.28396,-387.91156)">
    <g id="g3791" transform="matrix(0.69666982,0,0,0.69666982,268.68501,207.72176)">
      <path style="fill:#0064d3;fill-opacity:1;stroke:none" d="m 1024.8929,596.36218 146.5357,0 0,88.44194 -37.3687,-43.44194 -192.63133,0 83.46433,-45" id="path3781" inkscape:path-effect="#path-effect3789" inkscape:original-d="m 1024.8929,596.36218 146.5357,0 0,88.44194 -37.3687,-43.44194 -192.63133,0 z" inkscape:connector-curvature="0" sodipodi:nodetypes="cccccc"/>
      <path style="fill:#30b22c;fill-opacity:1;stroke:none" d="m 885.78396,683.2777 c 4.10714,-60.0957 35.32241,-113.80703 84.03207,-159.79351 29.21203,-28.07823 80.70897,-65.7721 94.84937,-76.64237 13.129,-10.4285 26.6846,-22.52262 26.6846,-46.21743 0,-29.33252 -23.2226,-52.26221 -52.9214,-52.26221 l 0,-45 c 57.9348,0 98.3783,45.8531 98.3783,96.694 0,38.82047 -15.8477,64.11735 -65.9756,99.75256 -57.9807,42.21248 -70.1356,52.97851 -92.93405,78.91817 -21.75459,25.29821 -32.13074,46.18227 -36.46868,62.63527 z" id="path3783" inkscape:connector-curvature="0" sodipodi:nodetypes="ccccccccccc"/>
      <path style="fill:#f42611;fill-opacity:1;stroke:none" d="m 897.42857,401.36218 c 0,-81.16952 63.13568,-142 141.00003,-142 l 0,44 c -23.4222,0 -73.49318,18.15542 -90.00003,68 l -2,19 z" id="path3787" inkscape:connector-curvature="0" sodipodi:nodetypes="cccccc"/>
      <path style="fill:#ffc905;fill-opacity:1;stroke:none" d="m 989.42857,401.36218 -92,0 51,-30 z" id="path3785" inkscape:connector-curvature="0" sodipodi:nodetypes="cccc"/>
    </g>
  </g>
</svg>