<?xml version="1.0" encoding="UTF-8" ?>
<!DOCTYPE svg PUBLIC "-//W3C//DTD SVG 1.1//EN" "http://www.w3.org/Graphics/SVG/1.1/DTD/svg11.dtd">
<svg width="420pt" height="240pt" viewBox="0 0 420 240" version="1.1" xmlns="http://www.w3.org/2000/svg">
<g id="#ffffffff">
</g>
<g id="#f17722ff">
<path fill="#f17722" opacity="1.00" d=" M 193.02 19.34 C 197.33 19.36 201.52 18.03 205.21 15.84 C 196.71 30.08 187.66 43.98 179.01 58.13 C 177.66 60.26 176.18 62.49 173.88 63.68 C 169.31 66.14 163.96 65.83 158.95 66.21 C 110.66 66.26 62.37 66.16 14.07 66.27 C 9.77 66.01 5.70 67.40 2.13 69.73 C 10.83 54.98 20.21 40.62 29.20 26.04 C 32.17 20.98 38.43 19.33 43.93 19.37 C 93.63 19.29 143.32 19.36 193.02 19.34 Z" />
<path fill="#f17722" opacity="1.00" d=" M 231.93 25.82 C 235.19 20.40 242.16 19.36 247.95 19.29 C 293.30 19.27 338.64 19.29 383.99 19.28 C 393.38 19.03 402.32 23.58 408.82 30.14 C 414.72 36.41 417.94 44.59 420.00 52.83 L 420.00 64.85 C 418.08 71.74 415.89 78.76 411.53 84.55 C 402.09 97.45 387.89 106.07 373.01 111.32 C 384.69 115.50 396.85 120.26 405.17 129.93 C 414.47 139.65 416.76 154.22 413.82 167.01 C 410.27 182.33 401.03 195.94 389.26 206.19 C 379.26 214.75 366.54 221.30 353.06 220.72 C 303.03 220.65 253.00 220.65 202.98 220.68 C 198.48 220.55 194.17 221.99 190.12 223.81 C 215.28 183.14 240.82 142.71 266.04 102.08 C 269.43 96.16 276.87 95.31 283.01 95.22 C 304.04 95.11 325.08 95.28 346.12 95.15 C 357.89 94.82 364.90 80.22 360.17 70.14 C 358.92 67.41 355.91 66.03 353.00 66.33 C 307.67 66.36 262.35 66.31 217.02 66.36 C 212.85 66.25 208.86 67.50 204.98 68.87 C 214.02 54.55 222.94 40.16 231.93 25.82 M 291.81 142.31 C 286.31 151.53 280.40 160.49 274.74 169.61 C 274.01 170.90 273.43 172.27 272.82 173.62 C 294.88 173.76 316.94 173.64 338.99 173.68 C 348.81 173.62 359.28 167.26 361.05 157.07 C 362.84 150.07 357.31 142.40 350.02 142.24 C 330.62 142.34 311.21 142.24 291.81 142.31 Z" />
<path fill="#f17722" opacity="1.00" d=" M 88.40 95.26 C 102.89 95.36 117.37 95.20 131.86 95.32 C 129.06 123.41 126.28 151.49 123.49 179.58 C 122.86 187.06 121.59 194.54 121.73 202.05 C 142.91 168.68 163.60 135.01 184.69 101.59 C 187.80 96.34 194.39 95.41 199.95 95.34 C 215.72 95.21 231.48 95.30 247.25 95.30 C 243.26 96.40 238.86 97.78 236.76 101.70 C 213.82 138.46 190.84 175.21 167.86 211.95 C 164.74 217.55 158.32 220.72 152.01 220.61 C 133.34 220.62 114.66 220.53 95.98 220.65 C 89.08 221.04 82.33 217.02 78.74 211.22 C 76.91 208.47 77.58 205.00 77.66 201.90 C 81.24 166.36 84.76 130.80 88.40 95.26 Z" />
</g>
</svg>
