<?xml version="1.0" encoding="utf-8"?>
<!-- Generator: Adobe Illustrator 19.0.0, SVG Export Plug-In . SVG Version: 6.00 Build 0)  -->
<!DOCTYPE svg PUBLIC "-//W3C//DTD SVG 1.1//EN" "http://www.w3.org/Graphics/SVG/1.1/DTD/svg11.dtd">
<svg version="1.1" id="Layer_1" xmlns="http://www.w3.org/2000/svg" xmlns:xlink="http://www.w3.org/1999/xlink" x="0px" y="0px"
	 viewBox="0 0 392.3 240.7" style="enable-background:new 0 0 392.3 240.7;" xml:space="preserve" preserveAspectRatio="xMinYMid">
<style type="text/css">
	.st0{fill:#D21616;}
</style>
<g id="XMLID_9_">
	<path id="XMLID_13_" class="st0" d="M170.2,0h-52.5c-1.6,0-3.7,0.9-4.7,2.5l-11.2,16.6h64c2.5,0,5,1.2,5.3,4.4
		c0.3,3.7-3.7,7.2-7.2,7.2h-28.7c-1.6,0-3.7,0.9-4.7,2.5L119.3,50h41.2c15.9,0,32.8-14.1,32.2-29.4C192.4,8.4,181.8,0,170.2,0z"/>
	<path id="XMLID_12_" class="st0" d="M84.6,19.1H12.7L24,2.2C24.9,0.9,26.8,0,28.7,0h71.9L89.3,16.6C88.3,18.1,86.2,19.1,84.6,19.1z
		"/>
	<path id="XMLID_11_" class="st0" d="M43,74.4l4.7-43.7H69l-4.7,44.1l28.1-41.9c0.9-1.2,2.8-2.5,4.7-2.5h20.6L85.5,78.1
		c-0.9,1.2-2.8,2.5-4.7,2.5H48.4C45.2,80.6,42.7,77.8,43,74.4z"/>
	<path id="XMLID_10_" class="st0" d="M166.1,80.6H98.7l11.2-16.9c0.9-1.2,2.8-2.5,4.7-2.5h67.5l-11.2,16.9
		C169.9,79.7,167.7,80.6,166.1,80.6z"/>
</g>
<g id="XMLID_1_">
	<path id="XMLID_6_" class="st0" d="M387.1,111.7h-34.8l-12.2,60.8l-2.6,10.4l-21.3-60.8c-2.2-5.6-8.3-10.4-14.3-10.4h-25.2
		l-33.4,123.8c-0.9,2.6,0.9,4.8,3.9,4.8h30.4l19.5-73.4l26.5,70.4c0,0,0,0.4,0.4,0.4c0.9,2.2,3.5,2.6,4.3,2.6h30.4l33.4-123.8
		C391.9,113.9,390.2,111.7,387.1,111.7z"/>
	<path id="XMLID_5_" class="st0" d="M166.9,111.7c6.1,0,12.2,4.8,13.9,10.4l10,37.8l32.1-39.5c3.9-4.8,11.7-8.7,17.8-8.7h31.7
		l-72.1,83l-12.2,46h-31.3c-3,0-4.3-2.2-3.9-4.8l12.2-44.7l-26.1-79.5H166.9L166.9,111.7z"/>
	<g id="XMLID_3_">
		<path id="XMLID_4_" class="st0" d="M136.5,111.7l-7,26.5c-0.9,2.6-3.5,4.8-6.5,4.8H60.5l-6.1,21.7h60.8l-6.5,24.8
			c-0.9,2.6-3.5,4.8-6.5,4.8H47l-12.2,46H4c-3,0-4.3-2.2-3.9-4.8l33.4-123.8C33.5,111.7,136.5,111.7,136.5,111.7z"/>
	</g>
</g>
<g id="XMLID_14_">
	<polygon id="XMLID_15_" class="st0" points="203.8,81 217.9,81 272.2,0 258.1,0 	"/>
</g>
</svg>
