<?xml version="1.0" encoding="utf-8"?>
<!-- Generator: Adobe Illustrator 19.1.0, SVG Export Plug-In . SVG Version: 6.00 Build 0)  -->
<!DOCTYPE svg PUBLIC "-//W3C//DTD SVG 1.1//EN" "http://www.w3.org/Graphics/SVG/1.1/DTD/svg11.dtd">
<svg version="1.1" id="Layer_1" xmlns="http://www.w3.org/2000/svg" xmlns:xlink="http://www.w3.org/1999/xlink" x="0px" y="0px"
	 width="100px" height="28.1520004px" viewBox="0 0 100 28.1520004" style="enable-background:new 0 0 100 28.1520004;"
	 xml:space="preserve" preserveAspectRatio="xMinYMid">
<style type="text/css">
	.st0{fill:#FF0047;}
	.st1{fill:#1F1F1F;}
</style>
<g>
	<polygon class="st0" points="37.9937057,0 19.0066528,28.1488361 21.2049637,28.1522923 40.1920052,0.003467 	"/>
	<path class="st1" d="M22.0100632,5.6298957h-7.3419065c-0.2258263,0-0.5099869,0.151474-0.6365395,0.3386946L12.452487,8.3103666
		h8.9567347c0.3599777,0.00492,0.6991196,0.1857214,0.7418003,0.6073732
		c0.0507355,0.523798-0.5083637,1.0026054-1.0248947,1.0026054h-4.0037727c-0.2255516,0-0.5105476,0.1504097-0.6356468,0.3370695
		l-1.5826092,2.343401h5.7632103c2.2440586,0,4.5724926-1.9540281,4.4880714-4.1057348
		C25.0883274,6.7933574,23.5881958,5.6298957,22.0100632,5.6298957"/>
	<path class="st1" d="M10.0368385,8.3101492H0l1.5802044-2.3413415C1.7058532,5.781198,1.9902996,5.6296782,2.2142272,5.6296782
		h10.0387402L10.67243,7.9725184C10.5468378,8.1601849,10.2622309,8.3101492,10.0368385,8.3101492"/>
	<path class="st1" d="M4.2268186,16.0359364l0.6411166-6.1158657h2.9838424l-0.6494927,6.1725159l3.9362841-5.8352861
		c0.1271591-0.1861563,0.4107018-0.3372297,0.6356363-0.3372297h2.8781958l-4.4721317,6.6303253
		c-0.1271133,0.1886749-0.4116631,0.3391418-0.6355906,0.3391418H4.9950366
		C4.5207496,16.8895378,4.177146,16.5077057,4.2268186,16.0359364"/>
	<path class="st1" d="M21.4345913,16.8892517h-9.4219837l1.5806513-2.3442936
		c0.1256485-0.1852064,0.4111023-0.3361778,0.6340227-0.3361778h9.4219837l-1.5800915,2.341341
		C21.9441319,16.7392998,21.6600285,16.8892517,21.4345913,16.8892517"/>
	<path class="st1" d="M45.7733498,18.6350517c0-3.9453249,3.2227058-7.6310329,7.7238426-7.6310329
		c3.6860313,0,6.1867065,2.5187788,6.1867065,5.8161774c0,3.9453354-3.2230835,7.6314793-7.7241631,7.6314793
		C48.2738113,24.4516754,45.7733498,21.9322891,45.7733498,18.6350517 M56.016304,17.0978813
		c0-1.6483679-1.0003166-2.8711023-2.8337784-2.8711023c-2.2599869,0-3.741909,2.2043314-3.741909,4.1305418
		c0,1.6488724,1.0003128,2.8710442,2.8341179,2.8710442C54.5530396,21.2283649,56.016304,19.0239773,56.016304,17.0978813"/>
	<path class="st1" d="M41.6638184,11.7605667l-2.4860992,9.2841492h6.16185l-0.7152634,2.6421375
		c-0.0738029,0.2734966-0.362381,0.4930649-0.6460381,0.4930649h-8.7360458c-0.2822609,0-0.4530029-0.2195683-0.3799782-0.4930649
		l3.3368988-12.4211349h3.0862656C41.5668793,11.2657185,41.7376213,11.4875288,41.6638184,11.7605667"/>
	<path class="st1" d="M89.4590302,11.2663364c0.6027374,0,1.2165298,0.4728336,1.3719635,1.0567503l0.9931717,3.7779322
		l3.2091141-3.9839296c0.3790359-0.4695959,1.1747437-0.8507528,1.7795029-0.8507528H100l-7.2161865,8.3035583l-1.2345352,4.614109
		h-3.0870972c-0.2822571,0-0.4530029-0.2210331-0.3793564-0.4950218l1.2142944-4.5064468l-2.6019135-7.9161987H89.4590302z"/>
	<path class="st1" d="M62.8437462,11.2656612h4.870388c2.158638,0,3.5790939,0.4799967,4.4458771,1.3468828
		c0.6827469,0.682642,0.996521,1.6050129,0.996521,2.6380091c0,2.1582966-1.2361984,3.8558903-3.8743286,4.5751705
		l1.9924774,4.3538055h-3.9479523l-1.7156982-3.9108601h-1.5865097l-1.0516014,3.9108601h-3.1224098
		c-0.2393532,0-0.4136658-0.2272224-0.3515434-0.4584732L62.8437462,11.2656612z M66.8102493,17.4643345
		c1.605072,0,2.6566696-0.6821842,2.6566696-1.7892694c0-0.3503084-0.1106186-0.6276035-0.3324356-0.8668404
		c-0.2946625-0.2953281-0.8297882-0.4429464-1.5865097-0.4429464h-1.9369431l-0.8483353,3.0990562H66.8102493z"/>
	<path class="st1" d="M76.0090866,11.2656612h4.870285c2.1586227,0,3.5790939,0.4799967,4.4458771,1.3468828
		c0.6827469,0.682642,0.9965057,1.6050129,0.9965057,2.6380091c0,2.1582966-1.2363052,3.8558903-3.8743134,4.5751705
		l1.9924774,4.3538055H80.491951l-1.715683-3.9108601h-1.5866241l-1.0514984,3.9108601h-3.1224136
		c-0.2393494,0-0.4136581-0.2272224-0.351532-0.4584732L76.0090866,11.2656612z M79.9754868,17.4643345
		c1.6050568,0,2.656662-0.6821842,2.656662-1.7892694c0-0.3503084-0.1107254-0.6276035-0.332428-0.8668404
		c-0.2947769-0.2953281-0.8297958-0.4429464-1.5866318-0.4429464h-1.936821l-0.8483505,3.0990562H79.9754868z"/>
</g>
</svg>
