<?xml version="1.0" encoding="utf-8"?>
<!-- Generator: Adobe Illustrator 19.0.0, SVG Export Plug-In . SVG Version: 6.00 Build 0)  -->
<!DOCTYPE svg PUBLIC "-//W3C//DTD SVG 1.1//EN" "http://www.w3.org/Graphics/SVG/1.1/DTD/svg11.dtd">
<svg version="1.1" id="Layer_1" xmlns="http://www.w3.org/2000/svg" xmlns:xlink="http://www.w3.org/1999/xlink" x="0px" y="0px"
	 viewBox="0 0 100 33" enable-background="new 0 0 100 33" xml:space="preserve" preserveAspectRatio="xMinYMid">
<g id="_x30_mf7lC.tif">
	<g id="XMLID_1_">
		<path id="XMLID_26_" fill="#FFFFFF" d="M13.861517,11.2555923c-0.026927,0.1991882-0.0517921,0.3692408-0.0726805,0.5397797
			c-0.2071886,1.6916056-0.412138,3.3834848-0.620882,5.0748978c-0.2087469,1.6914463-0.4207792,3.3824883-0.6319733,5.0736351
			c-0.1943455,1.5562248-0.3863478,3.1127529-0.5855846,4.6683559c-0.1025667,0.800808-0.1207104,1.5913506,0.2042131,2.353817
			c0.321497,0.754427,0.8067579,1.079113,1.6197872,1.0773983c3.603178-0.0076027,7.2064381-0.0320473,10.8094692-0.0128727
			c0.8692513,0.0046272,1.5935192-0.2656689,2.2552738-0.7870541c1.0765419-0.8481865,1.9071751-1.9167385,2.6516056-3.0474339
			c1.516098-2.3027744,2.9872398-4.6351109,4.4984818-6.9411259c1.5513916-2.3672657,3.1143417-4.7277527,4.8832932-6.942378
			c0.2736053-0.3425426,0.5632744-0.6722574,0.8619537-1.0274553c-0.0717506-0.0092049-0.1067429-0.0176153-0.1417351-0.0176249
			c-2.7685699-0.0007524-5.5371475-0.0027075-8.305685,0.0064545c-0.1007824,0.0003328-0.2362862,0.0861864-0.2960911,0.1731272
			c-0.3854389,0.5603323-0.7480621,1.1362934-1.1295795,1.6993952c-2.777916,4.1000471-5.5482426,8.2053099-8.3467045,12.2912989
			c-0.5826817,0.8507652-1.2702293,1.6299858-1.916338,2.4366589c-0.0767727,0.0958481-0.1972599,0.1566868-0.3547001,0.27775
			c-0.0334873-0.2234554-0.0789318-0.3644714-0.0713997-0.5025978c0.0513172-0.9411697,0.0762367-1.8859196,0.1806755-2.8215866
			c0.2010727-1.8013916,0.4313507-3.6000233,0.6822186-5.3952293c0.3236008-2.3156624,0.6792068-4.626852,1.0212097-6.9399424
			c0.0602646-0.4075985,0.1214218-0.8150663,0.184351-1.2372675C18.7629128,11.2555923,16.3242702,11.2555923,13.861517,11.2555923z
			"/>
		<path id="XMLID_25_" fill="#D21E1E" d="M100,0.0000005c-0.0395584,0.1256702-0.0509033,0.2709773-0.1227417,0.3741872
			c-3.0789948,4.4238825-5.9262543,8.9982128-8.8056793,13.55163c-2.5355606,4.0096455-5.0907135,8.0057907-7.8648987,11.8576698
			c-1.185173,1.645586-2.507988,3.1491642-4.1602402,4.3439808c-2.1084976,1.5247421-4.4581909,2.436657-7.0340881,2.7649269
			c-0.5288849,0.0674019-1.0658417,0.1002197-1.5990982,0.1004295c-13.6519012,0.0053329-41.1730652,0.0042076-41.313015,0.0042076
			c0.0325127-0.070713,0.0492916-0.1265564,0.0806236-0.1724739c0.582798-0.8541145,1.1719074-1.7039757,1.7473068-2.5630283
			c0.104557-0.1561012,0.21628-0.2083683,0.3980846-0.2078552c1.9787807,0.0055904,3.9576664-0.005661,5.9363346,0.0103245
			c0.4563217,0.0036869,0.8599777-0.1071205,1.1676903-0.4207764c0.5956535-0.6071625,1.2202721-1.2014618,1.7203178-1.8836136
			c1.0235176-1.3962574,1.9884987-2.836483,2.9491196-4.2775745c2.1077843-3.1620255,4.1949997-6.3377571,6.3009682-9.5009966
			c0.1564636-0.2350101,0.3709717-0.4505844,0.6028786-0.6110468c0.2611008-0.1806622,0.4520607-0.044898,0.4213753,0.2706957
			c-0.1289749,1.3264866-0.264473,2.6523409-0.3988609,3.9782972c-0.1188545,1.1726437-0.2395325,2.3451042-0.3591461,3.5176697
			c-0.1573257,1.5422935-0.3146362,3.0845852-0.4714737,4.6269283c-0.0788879,0.7757683-0.1394691,1.5538654-0.2390556,2.3269501
			c-0.1484261,1.1522198,0.9002457,1.9089527,1.7055855,1.9267178c0.9616432,0.0212097,1.9239693,0.0150414,2.885994,0.0144196
			c1.4975204-0.0009632,2.9950409-0.0080547,4.4925613-0.0110455c1.4976845-0.0029926,2.9956093-0.0206108,4.4929123,0.0023308
			c0.5673027,0.0086918,1.0227852-0.1847382,1.4354515-0.54002c0.8155251-0.7021122,1.4005241-1.5892658,1.985714-2.4758358
			c2.7629395-4.1858902,5.5147247-8.3791981,8.2941132-12.5541306c0.736702-1.1065969,1.5572662-2.1573601,2.3456192-3.2424326
			c-0.0586395,0-0.1527786,0-0.2469254,0c-2.1694183,0-4.339035,0.0171366-6.5081635-0.0082312
			c-0.8978043-0.0105-1.6352081,0.3112087-2.1735687,0.9832973c-0.7415314,0.925725-1.431488,1.8952169-2.1051178,2.8724442
			c-2.2754593,3.300951-4.5241928,6.620348-6.8053093,9.9173565c-0.6236572,0.9013958-1.3221512,1.7512417-1.9937096,2.6190147
			c-0.106678,0.1378479-0.252636,0.2452927-0.3804398,0.3667908c-0.0317154-0.0096397-0.0634346-0.0192833-0.09515-0.0289249
			c0-0.1541348-0.0130692-0.3095684,0.0020676-0.4622021c0.127037-1.2809124,0.2481842-2.562561,0.3927155-3.8415451
			c0.1791725-1.5854416,0.3819466-3.1681995,0.5690498-4.7527618c0.1764603-1.494442,0.3503189-2.9892206,0.5155716-4.4849281
			c0.0497322-0.4501143,0.0924759-0.9037886,0.0931816-1.3559027c0.0011826-0.7626209-0.3747253-1.3151751-1.0895958-1.5590858
			c-0.4469681-0.1525059-0.9358521-0.2512941-1.4066086-0.2539492c-3.6125526-0.0203791-7.2252922-0.0160027-10.8379364-0.0066319
			c-0.6012306,0.0015593-1.1467247,0.2380686-1.6941376,0.5545216c0.0122452-0.0574627,0.0100441-0.0910435,0.0252151-0.1121264
			c1.3826752-1.9216213,2.6997375-3.8951626,4.1657524-5.7510352c2.4022064-3.0410092,5.5493279-4.9252396,9.3817749-5.6032996
			c0.7918091-0.1400915,1.6023941-0.1738195,2.4041023-0.258632c0.0608292-0.0064351,0.119915-0.029415,0.1798058-0.0447046
			C72.6579514,0.0000001,86.3289795,0.0000001,100,0.0000005z"/>
		<path id="XMLID_24_" fill="#D21E1E" d="M38.4531593,0.0000002c-0.1895714,0.2412129-0.392643,0.4731174-0.5664253,0.7252154
			c-0.8488503,1.2313836-1.6874275,2.4698465-2.5346413,3.7023652c-0.4786797,0.6963787-0.9818726,1.3727384-1.6646042,1.8906527
			c-0.5303383,0.4023118-1.1180344,0.6033401-1.7926273,0.6000924H0l0.181086-0.2480726
			c0.6533105-1.0127034,1.2950518-2.0329585,1.9561563-3.0405185C2.6687124,2.8197446,3.1846025,1.9950334,3.7767684,1.230585
			C4.4163413,0.4049366,5.2787633-0.0050091,6.3627777,0L38.4531593,0.0000002z"/>
		<path id="XMLID_22_" fill="#D21E1E" d="M13.861517,11.2555923c2.4627533,0,4.9013958,0,7.379179,0
			c-0.0629292,0.4222012-0.1240864,0.829669-0.184351,1.2372675c-0.3420029,2.3130903-0.6976089,4.62428-1.0212097,6.9399424
			c-0.2508678,1.7952061-0.4811459,3.5938377-0.6822186,5.3952293c-0.1044388,0.935667-0.1293583,1.8804169-0.1806755,2.8215866
			c-0.0075321,0.1381264,0.0379124,0.2791424,0.0713997,0.5025978c0.1574402-0.1210632,0.2779274-0.1819019,0.3547001-0.27775
			c0.6461086-0.806673,1.3336563-1.5858936,1.916338-2.4366589c2.7984619-4.085989,5.5687885-8.1912518,8.3467045-12.2912989
			c0.3815174-0.5631018,0.7441406-1.1390629,1.1295795-1.6993952c0.0598049-0.0869408,0.1953087-0.1727943,0.2960911-0.1731272
			c2.7685375-0.0091619,5.5371151-0.0072069,8.305685-0.0064545c0.0349922,0.0000095,0.0699844,0.00842,0.1417351,0.0176249
			c-0.2986794,0.3551979-0.5883484,0.6849127-0.8619537,1.0274553c-1.7689514,2.2146254-3.3319016,4.5751123-4.8832932,6.942378
			c-1.5112419,2.306015-2.9823837,4.6383514-4.4984818,6.9411259c-0.7444305,1.1306953-1.5750637,2.1992474-2.6516056,3.0474339
			c-0.6617546,0.5213852-1.3860226,0.7916813-2.2552738,0.7870541c-3.6030312-0.0191746-7.2062912,0.00527-10.8094692,0.0128727
			c-0.8130293,0.0017147-1.2982903-0.3229713-1.6197872-1.0773983c-0.3249235-0.7624664-0.3067799-1.553009-0.2042131-2.353817
			c0.1992369-1.555603,0.3912392-3.1121311,0.5855846-4.6683559c0.211194-1.6911469,0.4232264-3.3821888,0.6319733-5.0736351
			c0.208744-1.6914129,0.4136934-3.3832922,0.620882-5.0748978C13.8097248,11.6248331,13.83459,11.4547806,13.861517,11.2555923z"/>
	</g>
</g>
</svg>
