<?xml version="1.0" encoding="UTF-8" ?>
<!DOCTYPE svg PUBLIC "-//W3C//DTD SVG 1.1//EN" "http://www.w3.org/Graphics/SVG/1.1/DTD/svg11.dtd">
<svg width="761pt" height="761pt" viewBox="0 0 761 761" version="1.1" xmlns="http://www.w3.org/2000/svg">
<g id="#d0282cff">
<path fill="#d0282c" opacity="1.00" d=" M 367.49 0.00 L 394.11 0.00 C 443.99 1.90 493.56 13.30 538.94 34.18 C 608.29 65.78 667.63 118.77 706.91 184.06 C 739.00 236.93 757.58 297.77 761.00 359.49 L 761.00 402.34 C 758.47 444.91 749.05 487.11 732.66 526.51 C 704.85 593.87 657.13 652.80 597.13 694.15 C 540.03 733.88 471.79 757.11 402.37 761.00 L 358.67 761.00 C 319.94 758.63 281.51 750.65 245.25 736.78 C 178.45 711.49 119.20 666.81 76.32 609.70 C 53.11 578.96 34.63 544.65 21.75 508.35 C 8.64 471.71 1.55 433.03 0.00 394.18 L 0.00 367.45 C 1.82 317.67 13.20 268.21 33.96 222.90 C 55.13 176.32 85.92 134.17 123.67 99.64 C 161.34 65.13 206.01 38.26 254.23 21.35 C 290.59 8.46 328.96 1.50 367.49 0.00 M 359.65 90.86 C 319.41 93.73 279.80 105.17 244.26 124.28 C 183.77 156.54 135.48 210.98 110.89 275.00 C 97.69 309.01 91.12 345.55 91.49 382.02 C 91.87 437.39 108.66 492.54 139.34 538.65 C 160.13 570.16 187.18 597.53 218.43 618.72 C 248.80 639.42 283.20 654.18 319.12 661.97 C 369.75 672.97 423.34 670.18 472.46 653.65 C 540.69 631.07 599.50 581.83 634.06 518.85 C 655.52 480.10 667.76 436.31 669.65 392.05 C 671.45 350.66 664.31 308.86 648.66 270.48 C 635.41 237.85 616.08 207.72 592.05 181.98 C 564.92 152.91 531.75 129.48 495.24 113.73 C 452.77 95.30 405.79 87.49 359.65 90.86 Z" />
<path fill="#d0282c" opacity="1.00" d=" M 278.59 201.57 C 305.72 184.95 337.46 177.18 368.99 175.11 C 392.76 173.62 416.83 174.95 440.11 180.17 C 466.15 186.10 491.53 197.49 510.99 216.11 C 527.55 231.82 540.57 252.84 542.21 276.04 C 542.40 295.71 540.12 316.11 530.85 333.76 C 524.49 345.96 513.93 356.09 500.99 361.00 C 497.08 362.54 492.97 363.49 488.89 364.44 C 488.71 366.56 491.10 366.87 492.61 367.49 C 502.30 370.38 511.97 373.85 520.35 379.64 C 534.86 389.16 544.89 404.43 549.80 420.91 C 554.34 436.18 555.70 452.30 554.71 468.16 C 552.86 491.40 543.60 513.90 528.97 532.01 C 509.99 555.60 482.35 570.88 453.40 578.63 C 431.48 584.54 408.69 586.95 386.01 586.75 C 362.98 586.97 339.84 584.80 317.42 579.42 C 299.35 574.94 281.70 568.18 266.01 558.07 C 249.32 547.46 235.09 532.93 225.17 515.80 C 210.12 489.84 204.38 458.96 207.01 429.22 C 243.74 429.27 280.48 429.24 317.21 429.24 C 316.68 444.22 319.08 460.30 328.47 472.48 C 333.58 478.35 338.87 484.40 345.94 487.97 C 359.11 494.84 374.46 495.78 389.03 494.87 C 401.20 493.94 414.15 490.96 423.09 482.09 C 432.33 473.12 434.93 459.46 434.29 447.05 C 433.96 436.92 430.36 426.37 422.39 419.73 C 413.73 412.33 402.10 409.90 391.05 408.98 C 376.33 407.85 361.54 409.17 347.00 411.55 C 347.00 385.19 347.00 358.84 347.00 332.48 C 365.04 334.38 383.40 336.28 401.43 333.21 C 410.58 331.54 419.94 328.39 426.68 321.72 C 434.48 314.15 436.91 302.29 434.79 291.89 C 432.57 281.43 423.83 273.73 414.39 269.58 C 400.25 263.45 384.23 261.97 369.10 264.57 C 356.24 266.80 343.49 272.99 335.80 283.84 C 329.53 292.42 327.23 303.27 327.49 313.74 C 291.13 313.70 254.76 313.87 218.40 313.66 C 218.86 296.27 221.38 278.76 227.69 262.47 C 237.18 237.21 255.53 215.52 278.59 201.57 Z" />
</g>
</svg>
