<?xml version="1.0" encoding="UTF-8" standalone="no"?>
<!-- Created with Inkscape (http://www.inkscape.org/) -->

<svg
   xmlns:dc="http://purl.org/dc/elements/1.1/"
   xmlns:cc="http://creativecommons.org/ns#"
   xmlns:rdf="http://www.w3.org/1999/02/22-rdf-syntax-ns#"
   xmlns:svg="http://www.w3.org/2000/svg"
   xmlns="http://www.w3.org/2000/svg"
   xmlns:inkscape="http://www.inkscape.org/namespaces/inkscape"
   version="1.1"
   width="485"
   height="770.26251"
   id="svg2"
   xml:space="preserve"><metadata
     id="metadata8"><rdf:RDF><cc:Work
         rdf:about=""><dc:format>image/svg+xml</dc:format><dc:type
           rdf:resource="http://purl.org/dc/dcmitype/StillImage" /></cc:Work></rdf:RDF></metadata><defs
     id="defs6"><clipPath
       id="clipPath18"><path
         d="m 0,0 3879.98,0 0,6162 L 0,6162 0,0 z"
         inkscape:connector-curvature="0"
         id="path20" /></clipPath></defs><g
     transform="matrix(1.25,0,0,-1.25,0,770.2625)"
     id="g10"><g
       transform="scale(0.1,0.1)"
       id="g12"><g
         id="g14"><g
           clip-path="url(#clipPath18)"
           id="g16"><path
             d="m 0,0 3879.98,0 0,759.488 L 0,759.488 0,0 z"
             inkscape:connector-curvature="0"
             id="path22"
             style="fill:#110e0c;fill-opacity:1;fill-rule:nonzero;stroke:none" /><path
             d="m 3050.81,3930.59 c 539.49,-141.52 802.37,-525.98 802.37,-1078.76 0,-1065.04 -970.9,-1510.18 -1901.29,-1510.18 -1098.917,0 -1988.7689,559.64 -1921.2298,1766.41 l 1071.8998,0 c -13.51,-559.64 262.88,-836.03 842.68,-836.03 391.12,0 761.85,168.53 761.85,579.8 0,519.12 -377.6,640.48 -835.82,640.48 -101.21,0 -202.42,-6.65 -303.41,-13.51 l 0,795.51 c 100.99,6.86 202.2,-13.51 303.41,-6.86 336.86,0 761.63,87.7 761.63,492.32 0,303.4 -303.41,471.94 -674.15,471.94 -465.29,0 -734.82,-242.73 -728.18,-667.5 l -1071.898,0 c 27.016,1051.75 788.863,1597.88 1793.218,1597.88 815.67,0 1752.91,-343.94 1752.91,-1301.12 0,-411.26 -222.36,-842.89 -653.99,-916.87 l 0,-13.51"
             inkscape:connector-curvature="0"
             id="path24"
             style="fill:#110e0c;fill-opacity:1;fill-rule:nonzero;stroke:none" /></g></g></g></g></svg>