<?xml version="1.0" encoding="UTF-8" standalone="yes"?>
<svg xmlns="http://www.w3.org/2000/svg" xmlns:xlink="http://www.w3.org/1999/xlink" width="66.66666666666666px" height="105.33333333333333px" viewBox="0 0 50 79" version="1.1">
  <g id="surface1">
    <path style=" stroke:none;fill-rule:nonzero;fill:rgb(6.666667%,5.490196%,4.705882%);fill-opacity:1;" d="M 0 79.027344 L 50 79.027344 L 50 69.285156 L 0 69.285156 Z M 0 79.027344 "/>
    <path style=" stroke:none;fill-rule:nonzero;fill:rgb(6.666667%,5.490196%,4.705882%);fill-opacity:1;" d="M 39.316406 28.617188 C 46.265625 30.433594 49.65625 35.363281 49.65625 42.453125 C 49.65625 56.113281 37.144531 61.820312 25.152344 61.820312 C 10.992188 61.820312 -0.476562 54.644531 0.394531 39.167969 L 14.207031 39.167969 C 14.035156 46.34375 17.597656 49.890625 25.066406 49.890625 C 30.109375 49.890625 34.886719 47.726562 34.886719 42.453125 C 34.886719 35.796875 30.019531 34.238281 24.113281 34.238281 C 22.808594 34.238281 21.503906 34.324219 20.203125 34.414062 L 20.203125 24.210938 C 21.503906 24.121094 22.808594 24.382812 24.113281 24.296875 C 28.457031 24.296875 33.929688 23.171875 33.929688 17.984375 C 33.929688 14.09375 30.019531 11.933594 25.242188 11.933594 C 19.246094 11.933594 15.773438 15.042969 15.859375 20.492188 L 2.042969 20.492188 C 2.394531 7.003906 12.210938 0 25.152344 0 C 35.664062 0 47.742188 4.410156 47.742188 16.6875 C 47.742188 21.960938 44.875 27.496094 39.316406 28.445312 L 39.316406 28.617188 "/>
  </g>
</svg>