<?xml version="1.0" encoding="UTF-8" standalone="no"?>
<!-- Created with Inkscape (http://www.inkscape.org/) -->
<svg
   xmlns:dc="http://purl.org/dc/elements/1.1/"
   xmlns:cc="http://creativecommons.org/ns#"
   xmlns:rdf="http://www.w3.org/1999/02/22-rdf-syntax-ns#"
   xmlns:svg="http://www.w3.org/2000/svg"
   xmlns="http://www.w3.org/2000/svg"
   xmlns:sodipodi="http://sodipodi.sourceforge.net/DTD/sodipodi-0.dtd"
   xmlns:inkscape="http://www.inkscape.org/namespaces/inkscape"
   width="193.99998"
   height="100"
   id="svg2"
   version="1.1"
   inkscape:version="0.46"
   sodipodi:docname="Logo_Rai_3_2010.svg"
   sodipodi:version="0.32"
   inkscape:output_extension="org.inkscape.output.svg.inkscape">
  <defs
     id="defs4">
    <inkscape:perspective
       sodipodi:type="inkscape:persp3d"
       inkscape:vp_x="0 : 526.18109 : 1"
       inkscape:vp_y="0 : 1000 : 0"
       inkscape:vp_z="744.09448 : 526.18109 : 1"
       inkscape:persp3d-origin="372.04724 : 350.78739 : 1"
       id="perspective10" />
    <inkscape:perspective
       id="perspective2824"
       inkscape:persp3d-origin="0.5 : 0.33333333 : 1"
       inkscape:vp_z="1 : 0.5 : 1"
       inkscape:vp_y="0 : 1000 : 0"
       inkscape:vp_x="0 : 0.5 : 1"
       sodipodi:type="inkscape:persp3d" />
    <inkscape:perspective
       id="perspective2829"
       inkscape:persp3d-origin="0.5 : 0.33333333 : 1"
       inkscape:vp_z="1 : 0.5 : 1"
       inkscape:vp_y="0 : 1000 : 0"
       inkscape:vp_x="0 : 0.5 : 1"
       sodipodi:type="inkscape:persp3d" />
    <inkscape:perspective
       id="perspective2886"
       inkscape:persp3d-origin="0.5 : 0.33333333 : 1"
       inkscape:vp_z="1 : 0.5 : 1"
       inkscape:vp_y="0 : 1000 : 0"
       inkscape:vp_x="0 : 0.5 : 1"
       sodipodi:type="inkscape:persp3d" />
    <inkscape:perspective
       id="perspective2835"
       inkscape:persp3d-origin="0.5 : 0.33333333 : 1"
       inkscape:vp_z="1 : 0.5 : 1"
       inkscape:vp_y="0 : 1000 : 0"
       inkscape:vp_x="0 : 0.5 : 1"
       sodipodi:type="inkscape:persp3d" />
    <inkscape:perspective
       id="perspective2978"
       inkscape:persp3d-origin="0.5 : 0.33333333 : 1"
       inkscape:vp_z="1 : 0.5 : 1"
       inkscape:vp_y="0 : 1000 : 0"
       inkscape:vp_x="0 : 0.5 : 1"
       sodipodi:type="inkscape:persp3d" />
    <inkscape:perspective
       id="perspective2404"
       inkscape:persp3d-origin="372.04724 : 350.78739 : 1"
       inkscape:vp_z="744.09448 : 526.18109 : 1"
       inkscape:vp_y="0 : 1000 : 0"
       inkscape:vp_x="0 : 526.18109 : 1"
       sodipodi:type="inkscape:persp3d" />
  </defs>
  <sodipodi:namedview
     id="base"
     pagecolor="#ffffff"
     bordercolor="#666666"
     borderopacity="1.0"
     inkscape:pageopacity="0.0"
     inkscape:pageshadow="2"
     inkscape:zoom="0.70799067"
     inkscape:cx="-203.13804"
     inkscape:cy="-55.211845"
     inkscape:document-units="px"
     inkscape:current-layer="g2861"
     showgrid="false"
     inkscape:window-width="1280"
     inkscape:window-height="744"
     inkscape:window-x="-4"
     inkscape:window-y="-4"
     inkscape:window-maximized="1">
    <inkscape:grid
       type="xygrid"
       id="grid2857"
       empspacing="5"
       visible="true"
       enabled="true"
       snapvisiblegridlinesonly="true" />
  </sodipodi:namedview>
  <metadata
     id="metadata7">
    <rdf:RDF>
      <cc:Work
         rdf:about="">
        <dc:format>image/svg+xml</dc:format>
        <dc:type
           rdf:resource="http://purl.org/dc/dcmitype/StillImage" />
        <dc:title />
      </cc:Work>
    </rdf:RDF>
  </metadata>
  <g
     inkscape:label="Layer 1"
     inkscape:groupmode="layer"
     id="layer1"
     transform="translate(-238.19547,-342.10629)">
    <g
       id="g2861"
       transform="matrix(0.33113564,0,0,0.33113564,144.81226,282.71308)">
      <path
         style="fill:#008c00;fill-opacity:1;fill-rule:nonzero;stroke:none"
         d="m 282.00894,179.36218 585.86261,0 0,301.99106 -585.86261,0 0,-301.99106 z"
         id="rect2859" />
      <g
         id="flowRoot2838"
         style="font-size:56px;font-style:normal;font-variant:normal;font-weight:bold;font-stretch:normal;text-align:start;line-height:125%;writing-mode:lr-tb;text-anchor:start;fill:#ffffff;fill-opacity:1;stroke:none;font-family:Futura Bk;-inkscape-font-specification:Futura Bk Bold"
         transform="matrix(2.96324,0,0,2.96324,1198.4498,-654.16837)">
        <path
           sodipodi:nodetypes="csccccsccccccccssscc"
           style="fill:#ffffff"
           id="path2847"
           d="m -280.53556,325.47964 c -3e-5,-2.0781 -0.6145,-3.20676 -1.66266,-4.10914 -1.0482,-0.90231 -2.42928,-1.35348 -4.92666,-1.35351 l -2.1875,0 0,10.69871 1.9961,0 c 2.42446,2e-5 3.9096,-0.43748 5.05806,-1.3125 1.14842,-0.87498 1.72263,-2.08239 1.72266,-3.92356 z m 15.37316,28.47757 -13.62662,0 -10.52336,-16.40625 0,16.40625 -10.99218,0 0,-42.21875 14.44572,0 c 6.85415,4e-5 9.67798,0.70944 12.44884,2.85132 2.7708,2.14197 4.39727,5.58829 4.3973,10.21847 -3e-5,3.24481 -0.74185,5.71182 -2.34598,7.76258 -1.6042,2.0508 -3.9074,3.4947 -6.96987,4.15093 l 13.16615,17.23545 z" />
        <path
           sodipodi:nodetypes="csssssssccccssssssscccc"
           style="fill:#ffffff"
           id="path2849"
           d="m -241.06068,339.70397 c -3e-5,-2.27863 -0.59259,-3.41224 -1.64986,-4.67918 -1.05731,-1.26691 -3.10617,-1.98559 -4.91084,-1.98561 -1.84116,2e-5 -3.64643,0.75368 -4.77662,2.04793 -1.13022,1.29429 -1.58879,2.24378 -1.58878,4.46772 -1e-5,2.18751 0.38097,3.06705 1.48385,4.34308 1.10284,1.27605 3.02831,2.25496 4.92416,2.25495 1.76821,1e-5 4.06362,-0.82213 5.13917,-2.12553 1.07549,-1.30337 1.37889,-2.19054 1.37892,-4.32336 z m 9.92863,14.2429 -10.03516,0 0,-3.56926 c -1.02086,1.69531 -2.30146,2.58033 -3.8418,3.33684 -1.54038,0.75651 -2.75886,1.34783 -5.14687,1.34783 -3.86459,0 -8.28599,-1.9911 -10.66489,-4.78017 -2.37891,-2.78905 -3.86665,-5.95999 -3.86665,-10.53552 0,-4.73957 2.04625,-8.60894 4.43427,-11.35245 2.38801,-2.74346 5.61457,-4.11521 9.67969,-4.11524 2.13279,3e-5 4.17333,0.28543 5.69548,1.06926 1.52211,0.78388 2.617,1.31433 3.71077,2.95492 l 0,-3.14918 10.03516,0 0,28.79297 z" />
        <path
           style="fill:#ffffff"
           id="path2855"
           d="m -214.49316,354.01747 -10.19922,0 0,-28.79297 10.19922,0 z" />
        <path
           style="fill:#ffffff"
           id="path2851"
           d="m -213.88279,314.15046 c -1e-5,1.5825 -0.56318,2.95088 -1.68952,4.10512 -1.12636,1.15431 -2.47146,1.73144 -4.03531,1.73141 -1.54524,3e-5 -2.88569,-0.58176 -4.02134,-1.74537 -1.13566,-1.16355 -1.70349,-2.52727 -1.70348,-4.09116 -1e-5,-1.56381 0.56316,-2.90892 1.68952,-4.0353 1.12634,-1.12632 2.47144,-1.68949 4.0353,-1.68953 1.58246,4e-5 2.93223,0.55391 4.04928,1.66159 1.11701,1.10778 1.67554,2.46219 1.67555,4.06324 z" />
      </g>
      <g
         id="g2870"
         transform="matrix(0.85714311,0,0,0.85981309,-426.5053,-134.149)">
        <path
           style="fill:#ffffff;fill-opacity:1;fill-rule:nonzero;stroke:none"
           d="m 1178.9225,378.67627 317.0905,0 0,323.13043 -317.0905,0 0,-323.13043 z"
           id="rect2858" />
      </g>
      <g
         id="g2858"
         transform="matrix(0.84860364,0,0,0.84403666,73.039236,-320.94302)"
         style="fill:#008c00;fill-opacity:1">
        <g
           id="flowRoot2841"
           style="font-size:72px;font-style:normal;font-variant:normal;font-weight:bold;font-stretch:normal;text-align:start;line-height:125%;writing-mode:lr-tb;text-anchor:start;opacity:1;fill:#008c00;fill-opacity:1;stroke:none;font-family:Futura Bk;-inkscape-font-specification:Futura Bk Bold"
           transform="matrix(4.377618,0,0,4.2996416,-515.78585,206.91958)">
          <path
             sodipodi:nodetypes="csssccsssssccsssssccssssscscc"
             id="path2850"
             d="m 311.72656,141.43855 c -4e-5,5.43751 -1.8516,9.73829 -5.55469,12.90234 -3.70316,3.16406 -8.76565,4.74609 -15.1875,4.7461 -6.37501,-10e-6 -11.36134,-1.69336 -14.95898,-5.08008 -3.59766,-3.38671 -5.39649,-8.12694 -5.39648,-14.22071 l 13.60546,0 c -1e-5,2.53127 0.55077,4.459 1.65235,5.78321 1.10154,1.32423 2.73045,1.98634 4.88672,1.98633 2.08591,1e-5 4.27843,-0.91041 5.54408,-2.11745 1.2656,-1.20702 1.85535,-3.11049 1.85538,-5.00894 -3e-5,-2.43749 -1.0084,-4.48462 -2.50837,-5.52761 -1.50003,-1.04294 -3.10763,-1.43291 -6.45917,-1.43293 l 0,-8.73775 c 2.99998,3e-5 3.59428,-0.22325 4.88337,-1.19594 1.28903,-0.97262 2.01968,-2.50191 2.01971,-4.58789 -3e-5,-1.61715 -0.12019,-2.728 -1.22172,-3.77101 -1.10159,-1.04293 -2.132,-1.52057 -3.86635,-1.52062 -1.87502,5e-5 -2.86618,0.68518 -3.92085,1.70467 -1.0547,1.01957 -1.4098,2.51937 -1.40978,4.32402 l -12.33464,0.0877 c 0.0937,-5.13277 2.57571,-10.15199 6.06791,-13.1286 3.49217,-2.97651 6.86027,-4.20173 12.86029,-4.20179 5.4609,6e-5 8.2308,1.27174 11.5824,3.99044 3.35152,2.7188 4.94117,6.58516 4.94121,10.89761 -4e-5,2.88285 -0.35338,5.40272 -1.80649,7.50033 -1.04585,1.50972 -1.90419,2.59463 -4.48228,3.39147 2.81246,0.32816 4.42592,1.68753 6.47674,4.07813 2.05074,2.39065 2.73164,5.90463 2.73168,9.13899 l 0,-2e-5 z"
             style="fill:#008c00;opacity:1;fill-opacity:1" />
        </g>
      </g>
    </g>
  </g>
</svg>
