<?xml version="1.0" encoding="utf-8"?>
<!-- Generator: Adobe Illustrator 16.2.1, SVG Export Plug-In . SVG Version: 6.00 Build 0)  -->
<!DOCTYPE svg PUBLIC "-//W3C//DTD SVG 1.1//EN" "http://www.w3.org/Graphics/SVG/1.1/DTD/svg11.dtd">
<svg version="1.1" id="Layer_1" xmlns="http://www.w3.org/2000/svg" xmlns:xlink="http://www.w3.org/1999/xlink" x="0px" y="0px"
	 width="841.89px" height="595.28px" viewBox="0 0 841.89 595.28" enable-background="new 0 0 841.89 595.28" xml:space="preserve">
<g>
	<g>
		<g>
			<defs>
				<path id="SVGID_1_" d="M416.259,138.688C275.464,139.88,273.224,250.87,271.125,277.242
					c-5.135,64.502,17.04,168.78,146.431,168.366c77.75-0.248,148.26-68.919,148.26-153.938
					c0-84.587-66.997-152.992-148.324-152.988C417.085,138.682,416.67,138.682,416.259,138.688"/>
			</defs>
			<clipPath id="SVGID_2_">
				<use xlink:href="#SVGID_1_"  overflow="visible"/>
			</clipPath>
			
				<radialGradient id="SVGID_3_" cx="-538.7612" cy="838.0059" r="0.341" gradientTransform="matrix(677.8279 23.0497 23.0382 -677.4893 346214 580451.5)" gradientUnits="userSpaceOnUse">
				<stop  offset="0" style="stop-color:#FFD803"/>
				<stop  offset="0.0618" style="stop-color:#FECE10"/>
				<stop  offset="0.2067" style="stop-color:#FABA1D"/>
				<stop  offset="0.3624" style="stop-color:#F7AA22"/>
				<stop  offset="0.5323" style="stop-color:#F59E25"/>
				<stop  offset="0.7266" style="stop-color:#F49626"/>
				<stop  offset="1" style="stop-color:#F39427"/>
			</radialGradient>
			<polygon clip-path="url(#SVGID_2_)" fill="url(#SVGID_3_)" points="266.337,128.495 576.259,139.033 565.477,456.202 
				255.552,445.664 			"/>
		</g>
		<g>
			<defs>
				<path id="SVGID_4_" d="M416.259,138.688C275.464,139.88,273.224,250.87,271.125,277.242
					c-5.135,64.502,17.04,168.78,146.431,168.366c77.75-0.248,148.26-68.919,148.26-153.938
					c0-84.587-66.997-152.992-148.324-152.988C417.085,138.682,416.67,138.682,416.259,138.688"/>
			</defs>
			<clipPath id="SVGID_5_">
				<use xlink:href="#SVGID_4_"  overflow="visible"/>
			</clipPath>
			
				<radialGradient id="SVGID_6_" cx="-538.7612" cy="838.0059" r="0.341" gradientTransform="matrix(677.8279 23.0497 23.0382 -677.4893 346214 580451.5)" gradientUnits="userSpaceOnUse">
				<stop  offset="0" style="stop-color:#FFD803"/>
				<stop  offset="0.0618" style="stop-color:#FECE10"/>
				<stop  offset="0.2067" style="stop-color:#FABA1D"/>
				<stop  offset="0.3624" style="stop-color:#F7AA22"/>
				<stop  offset="0.5323" style="stop-color:#F59E25"/>
				<stop  offset="0.7266" style="stop-color:#F49626"/>
				<stop  offset="1" style="stop-color:#F39427"/>
			</radialGradient>
			<polygon clip-path="url(#SVGID_5_)" fill="url(#SVGID_6_)" points="266.337,128.495 576.259,139.033 565.477,456.202 
				255.552,445.664 			"/>
		</g>
		<g>
			<defs>
				<path id="SVGID_7_" d="M390.603,140.343c78.723-4.587,149.499,63.098,109.218,147.096c-3.235,6.748-6.928,13.25-11.019,19.48
					c12.002,10.08,18.485,24.38,18.485,44.067c0,0.68-0.009,1.36-0.031,2.041c18.567-22.748,29.748-52.056,29.748-84.05
					c0-67.115-61.441-129.781-130.3-129.787C401.369,139.188,396.003,139.564,390.603,140.343"/>
			</defs>
			<clipPath id="SVGID_8_">
				<use xlink:href="#SVGID_7_"  overflow="visible"/>
			</clipPath>
			<defs>
				<filter id="Adobe_OpacityMaskFilter" filterUnits="userSpaceOnUse" x="350.495" y="108.157" width="229.717" height="272.469">
					<feColorMatrix  type="matrix" values="1 0 0 0 0  0 1 0 0 0  0 0 1 0 0  0 0 0 1 0"/>
				</filter>
			</defs>
			<mask maskUnits="userSpaceOnUse" x="350.495" y="108.157" width="229.717" height="272.469" id="SVGID_9_">
				<g filter="url(#Adobe_OpacityMaskFilter)">
					
						<radialGradient id="SVGID_10_" cx="-537.6401" cy="837.5254" r="0.3407" gradientTransform="matrix(97.1463 507.6324 507.3788 -97.0977 -372240.5 354418.75)" gradientUnits="userSpaceOnUse">
						<stop  offset="0" style="stop-color:#FFFFFF"/>
						<stop  offset="1" style="stop-color:#808080"/>
					</radialGradient>
					<polygon clip-path="url(#SVGID_8_)" fill="url(#SVGID_10_)" points="534.821,108.157 580.212,345.347 395.883,380.626 
						350.495,143.432 					"/>
				</g>
			</mask>
			
				<radialGradient id="SVGID_11_" cx="-538.5869" cy="837.709" r="0.3411" gradientTransform="matrix(97.1463 507.6324 507.3788 -97.0978 -372241.5 354917.5)" gradientUnits="userSpaceOnUse">
				<stop  offset="0" style="stop-color:#F4E600"/>
				<stop  offset="1" style="stop-color:#FFE082"/>
			</radialGradient>
			<polygon clip-path="url(#SVGID_8_)" mask="url(#SVGID_9_)" fill="url(#SVGID_11_)" points="534.821,108.157 580.212,345.347 
				395.883,380.626 350.495,143.432 			"/>
		</g>
		<g>
			<defs>
				<path id="SVGID_12_" d="M416.259,138.688C275.464,139.88,273.224,250.87,271.125,277.242
					c-5.135,64.502,17.04,168.78,146.431,168.366c77.75-0.248,148.26-68.919,148.26-153.938
					c0-84.587-66.997-152.992-148.324-152.988C417.085,138.682,416.67,138.682,416.259,138.688"/>
			</defs>
			<clipPath id="SVGID_13_">
				<use xlink:href="#SVGID_12_"  overflow="visible"/>
			</clipPath>
			<defs>
				
					<filter id="Adobe_OpacityMaskFilter_1_" filterUnits="userSpaceOnUse" x="258.557" y="131.425" width="314.699" height="321.85">
					<feColorMatrix  type="matrix" values="1 0 0 0 0  0 1 0 0 0  0 0 1 0 0  0 0 0 1 0"/>
				</filter>
			</defs>
			<mask maskUnits="userSpaceOnUse" x="258.557" y="131.425" width="314.699" height="321.85" id="SVGID_14_">
				<g filter="url(#Adobe_OpacityMaskFilter_1_)">
					
						<radialGradient id="SVGID_15_" cx="-537.5718" cy="837.9463" r="0.341" gradientTransform="matrix(5.1134 211.2507 211.1452 -5.1108 -173761.25 117984.875)" gradientUnits="userSpaceOnUse">
						<stop  offset="0" style="stop-color:#FFFFFF"/>
						<stop  offset="1" style="stop-color:#000000"/>
					</radialGradient>
					<polygon clip-path="url(#SVGID_13_)" fill="url(#SVGID_15_)" points="565.643,131.425 573.256,445.839 266.166,453.275 
						258.557,138.857 					"/>
				</g>
			</mask>
			
				<radialGradient id="SVGID_16_" cx="-537.5723" cy="837.9463" r="0.3411" gradientTransform="matrix(5.1134 211.2507 211.1452 -5.1108 -173761.125 117984.875)" gradientUnits="userSpaceOnUse">
				<stop  offset="0" style="stop-color:#F39427"/>
				<stop  offset="1" style="stop-color:#FFD803"/>
			</radialGradient>
			<polygon clip-path="url(#SVGID_13_)" mask="url(#SVGID_14_)" fill="url(#SVGID_16_)" points="565.643,131.425 573.256,445.839 
				266.166,453.275 258.557,138.857 			"/>
		</g>
		<g>
			<defs>
				<path id="SVGID_17_" d="M282.839,334.338c0,55.804,45.257,101.034,101.085,101.034c55.826,0,101.084-45.23,101.084-101.034
					c0-55.799-45.259-101.033-101.084-101.033C328.096,233.305,282.839,278.539,282.839,334.338"/>
			</defs>
			<clipPath id="SVGID_18_">
				<use xlink:href="#SVGID_17_"  overflow="visible"/>
			</clipPath>
			<defs>
				
					<filter id="Adobe_OpacityMaskFilter_2_" filterUnits="userSpaceOnUse" x="206.646" y="157.077" width="354.556" height="354.529">
					<feColorMatrix  type="matrix" values="1 0 0 0 0  0 1 0 0 0  0 0 1 0 0  0 0 0 1 0"/>
				</filter>
			</defs>
			<mask maskUnits="userSpaceOnUse" x="206.646" y="157.077" width="354.556" height="354.529" id="SVGID_19_">
				<g filter="url(#Adobe_OpacityMaskFilter_2_)">
					
						<radialGradient id="SVGID_20_" cx="-538.5732" cy="837.9951" r="0.3412" gradientTransform="matrix(172.1235 -378.1418 -377.9528 -172.0375 409800.5 -59111)" gradientUnits="userSpaceOnUse">
						<stop  offset="0" style="stop-color:#FFFFFF"/>
						<stop  offset="0.0831" style="stop-color:#CACACA"/>
						<stop  offset="0.1689" style="stop-color:#9B9B9B"/>
						<stop  offset="0.2601" style="stop-color:#717171"/>
						<stop  offset="0.3552" style="stop-color:#4E4E4E"/>
						<stop  offset="0.4552" style="stop-color:#323232"/>
						<stop  offset="0.5617" style="stop-color:#1C1C1C"/>
						<stop  offset="0.6781" style="stop-color:#0C0C0C"/>
						<stop  offset="0.8114" style="stop-color:#030303"/>
						<stop  offset="1" style="stop-color:#000000"/>
					</radialGradient>
					<polygon clip-path="url(#SVGID_18_)" fill="url(#SVGID_20_)" points="206.646,400.693 317.538,157.077 561.201,267.986 
						450.31,511.605 					"/>
				</g>
			</mask>
			
				<radialGradient id="SVGID_21_" cx="-538.5732" cy="837.9951" r="0.3412" gradientTransform="matrix(172.1235 -378.1418 -377.9528 -172.0375 409800.5 -59111)" gradientUnits="userSpaceOnUse">
				<stop  offset="0" style="stop-color:#ED6D1D"/>
				<stop  offset="1" style="stop-color:#ED6D1D"/>
			</radialGradient>
			<polygon clip-path="url(#SVGID_18_)" mask="url(#SVGID_19_)" fill="url(#SVGID_21_)" points="206.646,400.693 317.538,157.077 
				561.201,267.986 450.31,511.605 			"/>
		</g>
		<g>
			<defs>
				<path id="SVGID_22_" d="M416.259,138.688C275.464,139.88,273.224,250.87,271.125,277.242
					c-5.135,64.502,17.04,168.78,146.431,168.366c77.75-0.248,148.26-68.919,148.26-153.938
					c0-84.587-66.997-152.992-148.324-152.988C417.085,138.682,416.67,138.682,416.259,138.688"/>
			</defs>
			<clipPath id="SVGID_23_">
				<use xlink:href="#SVGID_22_"  overflow="visible"/>
			</clipPath>
			<defs>
				
					<filter id="Adobe_OpacityMaskFilter_3_" filterUnits="userSpaceOnUse" x="119.019" y="-4.695" width="593.772" height="594.094">
					<feColorMatrix  type="matrix" values="1 0 0 0 0  0 1 0 0 0  0 0 1 0 0  0 0 0 1 0"/>
				</filter>
			</defs>
			<mask maskUnits="userSpaceOnUse" x="119.019" y="-4.695" width="593.772" height="594.094" id="SVGID_24_">
				<g filter="url(#Adobe_OpacityMaskFilter_3_)">
					
						<radialGradient id="SVGID_25_" cx="-537.9663" cy="837.9824" r="0.3409" gradientTransform="matrix(-167.6904 226.5577 414.0085 306.4352 -436634.125 -134729.25)" gradientUnits="userSpaceOnUse">
						<stop  offset="0" style="stop-color:#FFFFFF"/>
						<stop  offset="1" style="stop-color:#000000"/>
					</radialGradient>
					<polygon clip-path="url(#SVGID_23_)" fill="url(#SVGID_25_)" points="712.791,247.459 459.698,589.398 119.019,337.237 
						372.115,-4.695 					"/>
				</g>
			</mask>
			
				<radialGradient id="SVGID_26_" cx="-537.9639" cy="837.9834" r="0.341" gradientTransform="matrix(-167.6904 226.5577 414.0085 306.4352 -436634.125 -134729.75)" gradientUnits="userSpaceOnUse">
				<stop  offset="0" style="stop-color:#F5E83D"/>
				<stop  offset="1" style="stop-color:#F5E83D"/>
			</radialGradient>
			<polygon clip-path="url(#SVGID_23_)" mask="url(#SVGID_24_)" fill="url(#SVGID_26_)" points="712.791,247.459 459.698,589.398 
				119.019,337.237 372.115,-4.695 			"/>
		</g>
		<g>
			<defs>
				<path id="SVGID_27_" d="M416.259,138.688C275.464,139.88,273.224,250.87,271.125,277.242
					c-5.135,64.502,17.04,168.78,146.431,168.366c77.75-0.248,148.26-68.919,148.26-153.938
					c0-84.587-66.997-152.992-148.324-152.988C417.085,138.682,416.67,138.682,416.259,138.688"/>
			</defs>
			<clipPath id="SVGID_28_">
				<use xlink:href="#SVGID_27_"  overflow="visible"/>
			</clipPath>
			<defs>
				
					<filter id="Adobe_OpacityMaskFilter_4_" filterUnits="userSpaceOnUse" x="119.019" y="-4.695" width="593.772" height="594.094">
					<feColorMatrix  type="matrix" values="1 0 0 0 0  0 1 0 0 0  0 0 1 0 0  0 0 0 1 0"/>
				</filter>
			</defs>
			<mask maskUnits="userSpaceOnUse" x="119.019" y="-4.695" width="593.772" height="594.094" id="SVGID_29_">
				<g filter="url(#Adobe_OpacityMaskFilter_4_)">
					
						<radialGradient id="SVGID_30_" cx="-538.6958" cy="837.5996" r="0.3411" gradientTransform="matrix(-129.8692 175.4594 176.2083 130.4235 -217079.25 -14428.25)" gradientUnits="userSpaceOnUse">
						<stop  offset="0" style="stop-color:#FFFFFF"/>
						<stop  offset="0.3252" style="stop-color:#FFFFFF"/>
						<stop  offset="1" style="stop-color:#000000"/>
					</radialGradient>
					<polygon clip-path="url(#SVGID_28_)" fill="url(#SVGID_30_)" points="712.791,247.459 459.698,589.398 119.019,337.237 
						372.115,-4.695 					"/>
				</g>
			</mask>
			
				<radialGradient id="SVGID_31_" cx="-538.6958" cy="837.5996" r="0.3411" gradientTransform="matrix(-129.8692 175.4594 176.2083 130.4235 -217079.25 -14428.25)" gradientUnits="userSpaceOnUse">
				<stop  offset="0" style="stop-color:#F5E83D"/>
				<stop  offset="0.3252" style="stop-color:#F5E83D"/>
				<stop  offset="1" style="stop-color:#F5E83D"/>
			</radialGradient>
			<polygon clip-path="url(#SVGID_28_)" mask="url(#SVGID_29_)" fill="url(#SVGID_31_)" points="712.791,247.459 459.698,589.398 
				119.019,337.237 372.115,-4.695 			"/>
		</g>
		<g>
			<g opacity="0.5">
				<g>
					<defs>
						<rect id="SVGID_32_" x="344.175" y="187.573" width="130.958" height="86.798"/>
					</defs>
					<clipPath id="SVGID_33_">
						<use xlink:href="#SVGID_32_"  overflow="visible"/>
					</clipPath>
					<g clip-path="url(#SVGID_33_)">
						<defs>
							<path id="SVGID_34_" d="M414.424,188.016c-42.699-4.064-79.299,20.9-68.26,33.677c12.164,14.077,36.6,42.966,65.645,49.354
								c16.135,3.546,63.324,11.159,63.324-22.356C475.133,215.181,447.803,191.191,414.424,188.016"/>
						</defs>
						<clipPath id="SVGID_35_">
							<use xlink:href="#SVGID_34_"  overflow="visible"/>
						</clipPath>
						<defs>
							
								<filter id="Adobe_OpacityMaskFilter_5_" filterUnits="userSpaceOnUse" x="304.809" y="140.754" width="200.64" height="184.645">
								<feColorMatrix  type="matrix" values="1 0 0 0 0  0 1 0 0 0  0 0 1 0 0  0 0 0 1 0"/>
							</filter>
						</defs>
						<mask maskUnits="userSpaceOnUse" x="304.809" y="140.754" width="200.64" height="184.645" id="SVGID_36_">
							<g filter="url(#Adobe_OpacityMaskFilter_5_)">
								
									<radialGradient id="SVGID_37_" cx="-538.7979" cy="837.2891" r="0.3408" gradientTransform="matrix(228.0224 -78.744 -55.8803 -161.815 170017.125 93304)" gradientUnits="userSpaceOnUse">
									<stop  offset="0" style="stop-color:#000000"/>
									<stop  offset="0.3006" style="stop-color:#000000"/>
									<stop  offset="0.5522" style="stop-color:#8D8D8D"/>
									<stop  offset="0.7368" style="stop-color:#FFFFFF"/>
									<stop  offset="1" style="stop-color:#FFFFFF"/>
								</radialGradient>
								<polygon clip-path="url(#SVGID_35_)" fill="url(#SVGID_37_)" points="304.809,194.421 460.216,140.754 505.448,271.736 
									350.042,325.398 								"/>
							</g>
						</mask>
						
							<radialGradient id="SVGID_38_" cx="-538.7964" cy="837.2891" r="0.3409" gradientTransform="matrix(228.0224 -78.744 -55.8803 -161.815 170016.875 93304.125)" gradientUnits="userSpaceOnUse">
							<stop  offset="0" style="stop-color:#FFE949"/>
							<stop  offset="0.3006" style="stop-color:#FFE949"/>
							<stop  offset="0.5522" style="stop-color:#F6A329"/>
							<stop  offset="0.7368" style="stop-color:#E63A18"/>
							<stop  offset="1" style="stop-color:#E63A18"/>
						</radialGradient>
						<polygon clip-path="url(#SVGID_35_)" mask="url(#SVGID_36_)" fill="url(#SVGID_38_)" points="304.809,194.421 
							460.216,140.754 505.448,271.736 350.042,325.398 						"/>
					</g>
				</g>
			</g>
			<g opacity="0.3">
				<g>
					<defs>
						<rect id="SVGID_39_" x="325.781" y="195.199" width="115.753" height="107.467"/>
					</defs>
					<clipPath id="SVGID_40_">
						<use xlink:href="#SVGID_39_"  overflow="visible"/>
					</clipPath>
					<g clip-path="url(#SVGID_40_)">
						<defs>
							<path id="SVGID_41_" d="M441.534,248.932c0-29.673-25.912-53.732-57.875-53.732c-31.967,0-57.877,24.059-57.877,53.732
								c0,29.676,25.91,53.734,57.877,53.734C415.623,302.666,441.534,278.608,441.534,248.932"/>
						</defs>
						<clipPath id="SVGID_42_">
							<use xlink:href="#SVGID_41_"  overflow="visible"/>
						</clipPath>
						
							<radialGradient id="SVGID_43_" cx="-538.8164" cy="837.6934" r="0.3413" gradientTransform="matrix(219.3163 -300.5103 -279.0092 -203.6245 352245.8125 8947.5)" gradientUnits="userSpaceOnUse">
							<stop  offset="0" style="stop-color:#FFEC81"/>
							<stop  offset="0.0365" style="stop-color:#FFEB7C"/>
							<stop  offset="0.2245" style="stop-color:#FFE763"/>
							<stop  offset="0.4306" style="stop-color:#FFE350"/>
							<stop  offset="0.6668" style="stop-color:#FFE244"/>
							<stop  offset="1" style="stop-color:#FFE140"/>
						</radialGradient>
						<polygon clip-path="url(#SVGID_42_)" fill="url(#SVGID_43_)" points="274.606,265.318 366.009,140.082 492.71,232.548 
							401.31,357.785 						"/>
					</g>
				</g>
			</g>
			<g opacity="0.5">
				<g>
					<g>
						<defs>
							<path id="SVGID_44_" d="M565.816,291.67c0,85.02-70.51,153.69-148.26,153.938
								c-129.391,0.414-151.566-103.864-146.431-168.366c2.099-26.373,4.338-137.362,145.134-138.555
								C498.141,137.991,565.816,206.654,565.816,291.67"/>
						</defs>
						<clipPath id="SVGID_45_">
							<use xlink:href="#SVGID_44_"  overflow="visible"/>
						</clipPath>
						<defs>
							
								<filter id="Adobe_OpacityMaskFilter_6_" filterUnits="userSpaceOnUse" x="114.736" y="-9.235" width="602.339" height="602.485">
								<feColorMatrix  type="matrix" values="1 0 0 0 0  0 1 0 0 0  0 0 1 0 0  0 0 0 1 0"/>
							</filter>
						</defs>
						<mask maskUnits="userSpaceOnUse" x="114.736" y="-9.235" width="602.339" height="602.485" id="SVGID_46_">
							<g filter="url(#Adobe_OpacityMaskFilter_6_)">
								
									<radialGradient id="SVGID_47_" cx="-538.5156" cy="838.2432" r="0.3411" gradientTransform="matrix(169.2014 139.8033 139.7334 -169.1169 -25657.25 217329.5)" gradientUnits="userSpaceOnUse">
									<stop  offset="0" style="stop-color:#FFFFFF"/>
									<stop  offset="1" style="stop-color:#000000"/>
								</radialGradient>
								<polygon clip-path="url(#SVGID_45_)" fill="url(#SVGID_47_)" points="387.634,-9.235 717.075,262.96 444.175,593.25 
									114.736,321.046 								"/>
							</g>
						</mask>
						
							<radialGradient id="SVGID_48_" cx="-538.5156" cy="838.2432" r="0.3411" gradientTransform="matrix(169.2014 139.8033 139.7334 -169.1169 -25657.25 217329.5)" gradientUnits="userSpaceOnUse">
							<stop  offset="0" style="stop-color:#FAF2A3"/>
							<stop  offset="1" style="stop-color:#F5E83D"/>
						</radialGradient>
						<polygon clip-path="url(#SVGID_45_)" mask="url(#SVGID_46_)" fill="url(#SVGID_48_)" points="387.634,-9.235 717.075,262.96 
							444.175,593.25 114.736,321.046 						"/>
					</g>
				</g>
			</g>
		</g>
		<g>
			<defs>
				<path id="SVGID_49_" d="M380.887,383.121c3.923,1.491,8.459,2.391,13.713,2.391l3.402-2.225c15.399,0,27.728-8.566,32.271-20.53
					C414.834,372.004,398.13,378.939,380.887,383.121"/>
			</defs>
			<clipPath id="SVGID_50_">
				<use xlink:href="#SVGID_49_"  overflow="visible"/>
			</clipPath>
			<defs>
				<filter id="Adobe_OpacityMaskFilter_7_" filterUnits="userSpaceOnUse" x="371.447" y="342.27" width="68.265" height="63.729">
					<feColorMatrix  type="matrix" values="1 0 0 0 0  0 1 0 0 0  0 0 1 0 0  0 0 0 1 0"/>
				</filter>
			</defs>
			<mask maskUnits="userSpaceOnUse" x="371.447" y="342.27" width="68.265" height="63.729" id="SVGID_51_">
				<g filter="url(#Adobe_OpacityMaskFilter_7_)">
					
						<radialGradient id="SVGID_52_" cx="-539.9878" cy="838.7969" r="0.3409" gradientTransform="matrix(48.7895 91.6214 91.5757 -48.7652 -50064.625 90741.8594)" gradientUnits="userSpaceOnUse">
						<stop  offset="0" style="stop-color:#000000"/>
						<stop  offset="0.2025" style="stop-color:#000000"/>
						<stop  offset="1" style="stop-color:#808080"/>
					</radialGradient>
					<polygon clip-path="url(#SVGID_50_)" fill="url(#SVGID_52_)" points="419.361,342.27 439.712,380.483 391.797,405.999 
						371.447,367.784 					"/>
				</g>
			</mask>
			
				<radialGradient id="SVGID_53_" cx="-539.9917" cy="838.792" r="0.3409" gradientTransform="matrix(48.7896 91.6214 91.5757 -48.7652 -50063.75 90741.8906)" gradientUnits="userSpaceOnUse">
				<stop  offset="0" style="stop-color:#FFFFFF"/>
				<stop  offset="0.2025" style="stop-color:#FFFFFF"/>
				<stop  offset="1" style="stop-color:#FFFFFF"/>
			</radialGradient>
			<polygon clip-path="url(#SVGID_50_)" mask="url(#SVGID_51_)" fill="url(#SVGID_53_)" points="419.361,342.27 439.712,380.483 
				391.797,405.999 371.447,367.784 			"/>
		</g>
		<g>
			<defs>
				<path id="SVGID_54_" d="M400.013,143.952c-0.047,0.002-0.099,0.002-0.146,0c-0.051,0-0.103,0-0.154,0
					c63.874,0.422,106.402,48.414,106.809,86.606c-0.2,30.045-15.396,50.135-45.329,60.51v1.159v0.783v1.164
					c29.248,8.612,45.898,26.194,46.087,57.441c-0.377,45.539-41.377,88.213-100.117,88.213c-47.496,0-79.991-16.918-101.847-37.089
					c21.86,21,54.668,39.995,103.006,39.995c59.014,0,100.126-44.813,100.126-90.588c0-0.175-0.005-0.347-0.005-0.521
					c0-0.215,0.005-0.425,0.005-0.638c0-31.586-17.24-49.313-46.663-57.977v-1.942c30.146-10.445,45.908-27.957,45.908-59.953
					c0-0.187-0.004-0.373-0.008-0.557c0-0.204,0.008-0.401,0.008-0.606c0-37.978-41.017-86.019-105.254-86.022
					C401.634,143.929,400.826,143.937,400.013,143.952"/>
			</defs>
			<clipPath id="SVGID_55_">
				<use xlink:href="#SVGID_54_"  overflow="visible"/>
			</clipPath>
			
				<linearGradient id="SVGID_56_" gradientUnits="userSpaceOnUse" x1="-538.6621" y1="838.0352" x2="-538.3208" y2="838.0352" gradientTransform="matrix(0 875.1642 875.1642 0 -733011 471562)">
				<stop  offset="0" style="stop-color:#FECF5D"/>
				<stop  offset="0.1797" style="stop-color:#FBBB2E"/>
				<stop  offset="0.3553" style="stop-color:#FBC889"/>
				<stop  offset="0.5153" style="stop-color:#F39425"/>
				<stop  offset="0.6188" style="stop-color:#A6661E"/>
				<stop  offset="0.8317" style="stop-color:#F39425"/>
				<stop  offset="1" style="stop-color:#F5E83D"/>
			</linearGradient>
			<rect x="305.315" y="143.929" clip-path="url(#SVGID_55_)" fill="url(#SVGID_56_)" width="203.133" height="298.805"/>
		</g>
		<g>
			<path fill="#FFFFFF" d="M461.192,293.01v-1.942c30.139-10.445,45.342-30.729,45.342-61.116c0-38.453-43.019-86-107.685-86
				c-22.7,0-57.391,11.679-73.688,22.966c-23.923,16.567-46.39,36.967-61.003,82.197c0.844-2.427,4.317-4.559,9.601-6.388
				c18.108-6.265,57.554-8.956,85.959-7.681c0-15.483,16.32-33.968,36.457-33.968c21.929,0,36.456,13.823,36.456,30.87
				c0,17.051-18.69,30.969-42.224,30.969v58.553c30.367,0,41.758,13.944,41.758,30.979c0,17.029-14.612,30.838-34.163,30.838
				l-3.402,2.225c-32.459,0-37.688-34.042-37.688-34.042c-24.496-0.44-64.544-4.15-82.96-9.667c-5.773-1.732-9.422-3.636-9.8-5.673
				c0.533,3.124,27.208,103.697,143.01,103.697c59.009,0,100.125-43.066,100.125-88.841
				C507.288,319.4,490.608,301.673,461.192,293.01"/>
		</g>
		<g>
			<defs>
				<path id="SVGID_57_" d="M338.788,425.408c19.477,7.804,39.993,12.288,58.5,12.288c50.798,0,91.662-27.649,106.029-84.027
					c-23.824,29.69-60.827,56.738-119.975,56.738c-57.037,0-95.166-34.014-114.394-70.385c-2.828-1.23-4.544-2.532-4.796-3.893
					C264.56,338.509,280.147,397.479,338.788,425.408"/>
			</defs>
			<clipPath id="SVGID_58_">
				<use xlink:href="#SVGID_57_"  overflow="visible"/>
			</clipPath>
			
				<radialGradient id="SVGID_59_" cx="-539.1577" cy="837.875" r="0.3408" gradientTransform="matrix(-358.5919 38.7439 38.7245 358.4128 -225394.75 -279093.5)" gradientUnits="userSpaceOnUse">
				<stop  offset="0" style="stop-color:#FFFFFF"/>
				<stop  offset="1" style="stop-color:#CACCCD"/>
			</radialGradient>
			<polygon clip-path="url(#SVGID_58_)" fill="url(#SVGID_59_)" points="514.165,436.527 266.911,463.241 253.304,337.302 
				500.558,310.584 			"/>
		</g>
		<g>
			<defs>
				<path id="SVGID_60_" d="M352.235,391.182c20.457,0,38.475-3.363,54.217-8.755c-2.627,0.564-5.58,0.86-8.451,0.86
					c-27.728,0-34.415-22.822-38.476-34.432l-2.614,2.614c-25.321-0.458-67.257-4.407-84.744-10.231
					C285.853,366.938,309.038,391.182,352.235,391.182"/>
			</defs>
			<clipPath id="SVGID_61_">
				<use xlink:href="#SVGID_60_"  overflow="visible"/>
			</clipPath>
			
				<linearGradient id="SVGID_62_" gradientUnits="userSpaceOnUse" x1="-539.7661" y1="838.2598" x2="-539.4249" y2="838.2598" gradientTransform="matrix(-108.4708 149.2972 149.2972 108.4708 -183342.625 -9998)">
				<stop  offset="0" style="stop-color:#FFFFFF"/>
				<stop  offset="0.362" style="stop-color:#FFFFFF"/>
				<stop  offset="0.5078" style="stop-color:#FAFAFA"/>
				<stop  offset="0.7141" style="stop-color:#EAEAEB"/>
				<stop  offset="0.9556" style="stop-color:#D0D1D2"/>
				<stop  offset="1" style="stop-color:#CBCCCD"/>
			</linearGradient>
			<polygon clip-path="url(#SVGID_61_)" fill="url(#SVGID_62_)" points="430.205,358.496 360.061,455.043 248.418,373.929 
				318.563,277.381 			"/>
		</g>
		<g>
			<g opacity="0.6">
				<g>
					<defs>
						<rect id="SVGID_63_" x="264.04" y="147.369" width="164.218" height="107.582"/>
					</defs>
					<clipPath id="SVGID_64_">
						<use xlink:href="#SVGID_63_"  overflow="visible"/>
					</clipPath>
					<g clip-path="url(#SVGID_64_)">
						<defs>
							<path id="SVGID_65_" d="M375.769,161.198c16.23-6.598,33.923-10.571,52.489-11.354c-9.757-1.62-19.816-2.476-30.098-2.476
								c-14.128,0-27.829,1.6-40.896,4.599c-12.665,4.23-24.427,9.632-32.102,14.95c-23.923,16.567-46.39,36.967-61.003,82.197
								c-1.188,3.674,6.987,5.835,9.086,5.835c1.305-2.609,1.095-6.918,8.137-9.438c3.46-1.236,7.73-2.332,12.486-3.299
								c1.168-2.914,2.437-5.776,3.793-8.596C305.528,201.019,335.476,174.012,375.769,161.198"/>
						</defs>
						<clipPath id="SVGID_66_">
							<use xlink:href="#SVGID_65_"  overflow="visible"/>
						</clipPath>
						
							<radialGradient id="SVGID_67_" cx="-538.7124" cy="838.4336" r="0.3413" gradientTransform="matrix(-466.8206 279.2711 279.1315 466.5873 -485092.3125 -240604)" gradientUnits="userSpaceOnUse">
							<stop  offset="0" style="stop-color:#FFFFFF"/>
							<stop  offset="0.092" style="stop-color:#FFFFFF"/>
							<stop  offset="0.4468" style="stop-color:#E3E3E3"/>
							<stop  offset="1" style="stop-color:#B2B4B3"/>
						</radialGradient>
						<polygon clip-path="url(#SVGID_66_)" fill="url(#SVGID_67_)" points="475.653,226.597 306.533,327.769 215.569,175.723 
							384.69,74.549 						"/>
					</g>
				</g>
			</g>
		</g>
		<g>
			<defs>
				<path id="SVGID_68_" d="M264.151,336.13c0.409,2.379,15.996,61.35,74.636,89.278c19.477,7.804,39.993,12.288,58.5,12.288
					c50.798,0,91.662-27.649,106.029-84.027c-23.824,29.69-60.827,56.738-119.975,56.738c-60.828,0-100.148-38.687-117.976-77.653
					C264.438,333.691,263.924,334.791,264.151,336.13"/>
			</defs>
			<clipPath id="SVGID_69_">
				<use xlink:href="#SVGID_68_"  overflow="visible"/>
			</clipPath>
			<defs>
				
					<filter id="Adobe_OpacityMaskFilter_8_" filterUnits="userSpaceOnUse" x="239.493" y="277.02" width="288.255" height="216.413">
					<feColorMatrix  type="matrix" values="1 0 0 0 0  0 1 0 0 0  0 0 1 0 0  0 0 0 1 0"/>
				</filter>
			</defs>
			<mask maskUnits="userSpaceOnUse" x="239.493" y="277.02" width="288.255" height="216.413" id="SVGID_70_">
				<g filter="url(#Adobe_OpacityMaskFilter_8_)">
					
						<radialGradient id="SVGID_71_" cx="-539.6934" cy="838.418" r="0.3413" gradientTransform="matrix(187.7617 46.3799 46.3567 -187.6679 62940.75 182728.625)" gradientUnits="userSpaceOnUse">
						<stop  offset="0" style="stop-color:#FFFFFF"/>
						<stop  offset="0.1234" style="stop-color:#F8F8F8"/>
						<stop  offset="0.309" style="stop-color:#E3E3E3"/>
						<stop  offset="0.5336" style="stop-color:#C1C1C1"/>
						<stop  offset="0.7865" style="stop-color:#939393"/>
						<stop  offset="1" style="stop-color:#666666"/>
					</radialGradient>
					<polygon clip-path="url(#SVGID_69_)" fill="url(#SVGID_71_)" points="277.689,277.02 527.748,338.786 489.548,493.433 
						239.493,431.664 					"/>
				</g>
			</mask>
			
				<radialGradient id="SVGID_72_" cx="-539.6924" cy="838.4199" r="0.3408" gradientTransform="matrix(187.7617 46.3799 46.3567 -187.6679 62940.5 182728.625)" gradientUnits="userSpaceOnUse">
				<stop  offset="0" style="stop-color:#FFFFFF"/>
				<stop  offset="1" style="stop-color:#FFFFFF"/>
			</radialGradient>
			<polygon clip-path="url(#SVGID_69_)" mask="url(#SVGID_70_)" fill="url(#SVGID_72_)" points="277.689,277.02 527.748,338.786 
				489.548,493.433 239.493,431.664 			"/>
		</g>
		<g>
			<defs>
				<path id="SVGID_73_" d="M357.263,151.968c-12.665,4.23-24.427,9.632-32.102,14.95c-23.923,16.567-46.39,36.967-61.003,82.197
					c-1.188,3.674,6.987,5.835,9.086,5.835c1.305-2.609,1.097-6.918,8.137-9.438c3.46-1.236,7.73-2.332,12.486-3.299
					c1.168-2.914,2.437-5.776,3.795-8.596c7.865-32.598,37.813-59.605,78.106-72.419c16.23-6.598,33.923-10.571,52.489-11.354
					c-9.757-1.62-19.816-2.476-30.098-2.476C384.032,147.369,370.331,148.969,357.263,151.968"/>
			</defs>
			<clipPath id="SVGID_74_">
				<use xlink:href="#SVGID_73_"  overflow="visible"/>
			</clipPath>
			<defs>
				
					<filter id="Adobe_OpacityMaskFilter_9_" filterUnits="userSpaceOnUse" x="224.728" y="88.618" width="241.765" height="225.082">
					<feColorMatrix  type="matrix" values="1 0 0 0 0  0 1 0 0 0  0 0 1 0 0  0 0 0 1 0"/>
				</filter>
			</defs>
			<mask maskUnits="userSpaceOnUse" x="224.728" y="88.618" width="241.765" height="225.082" id="SVGID_75_">
				<g filter="url(#Adobe_OpacityMaskFilter_9_)">
					
						<radialGradient id="SVGID_76_" cx="-538.6045" cy="838.749" r="0.341" gradientTransform="matrix(-310.0599 129.4111 129.3465 309.9049 -275059.625 -190081.25)" gradientUnits="userSpaceOnUse">
						<stop  offset="0" style="stop-color:#FFFFFF"/>
						<stop  offset="0.1288" style="stop-color:#FFFFFF"/>
						<stop  offset="0.1546" style="stop-color:#EFEFEF"/>
						<stop  offset="0.2517" style="stop-color:#B8B8B8"/>
						<stop  offset="0.352" style="stop-color:#878787"/>
						<stop  offset="0.4534" style="stop-color:#5D5D5D"/>
						<stop  offset="0.5562" style="stop-color:#3B3B3B"/>
						<stop  offset="0.6606" style="stop-color:#212121"/>
						<stop  offset="0.7676" style="stop-color:#0F0F0F"/>
						<stop  offset="0.8786" style="stop-color:#040404"/>
						<stop  offset="1" style="stop-color:#000000"/>
					</radialGradient>
					<polygon clip-path="url(#SVGID_74_)" fill="url(#SVGID_76_)" points="466.493,238.991 287.492,313.699 224.728,163.329 
						403.735,88.618 					"/>
				</g>
			</mask>
			
				<radialGradient id="SVGID_77_" cx="-538.6055" cy="838.749" r="0.3412" gradientTransform="matrix(-310.0599 129.4111 129.3465 309.9049 -275059.75 -190081.25)" gradientUnits="userSpaceOnUse">
				<stop  offset="0" style="stop-color:#FFFFFF"/>
				<stop  offset="0.1288" style="stop-color:#FFFFFF"/>
				<stop  offset="1" style="stop-color:#FFFFFF"/>
			</radialGradient>
			<polygon clip-path="url(#SVGID_74_)" mask="url(#SVGID_75_)" fill="url(#SVGID_77_)" points="466.493,238.991 287.492,313.699 
				224.728,163.329 403.735,88.618 			"/>
		</g>
		<g>
			<g opacity="0.7">
				<g>
					<defs>
						<rect id="SVGID_78_" x="264.04" y="147.369" width="164.218" height="107.582"/>
					</defs>
					<clipPath id="SVGID_79_">
						<use xlink:href="#SVGID_78_"  overflow="visible"/>
					</clipPath>
					<g clip-path="url(#SVGID_79_)">
						<defs>
							<path id="SVGID_80_" d="M375.769,161.198c16.23-6.598,33.923-10.571,52.489-11.354c-9.757-1.62-19.816-2.476-30.098-2.476
								c-14.128,0-27.829,1.6-40.896,4.599c-12.665,4.23-24.427,9.632-32.102,14.95c-23.923,16.567-46.39,36.967-61.003,82.197
								c-1.188,3.674,6.987,5.835,9.086,5.835c1.305-2.609,1.095-6.918,8.137-9.438c3.46-1.236,7.73-2.332,12.486-3.299
								c1.168-2.914,2.437-5.776,3.793-8.596C305.528,201.019,335.476,174.012,375.769,161.198"/>
						</defs>
						<clipPath id="SVGID_81_">
							<use xlink:href="#SVGID_80_"  overflow="visible"/>
						</clipPath>
						<defs>
							
								<filter id="Adobe_OpacityMaskFilter_10_" filterUnits="userSpaceOnUse" x="216.116" y="75.389" width="258.99" height="251.537">
								<feColorMatrix  type="matrix" values="1 0 0 0 0  0 1 0 0 0  0 0 1 0 0  0 0 0 1 0"/>
							</filter>
						</defs>
						<mask maskUnits="userSpaceOnUse" x="216.116" y="75.389" width="258.99" height="251.537" id="SVGID_82_">
							<g filter="url(#Adobe_OpacityMaskFilter_10_)">
								
									<radialGradient id="SVGID_83_" cx="-539.5225" cy="837.9121" r="0.3408" gradientTransform="matrix(-265.959 -155.322 -155.2444 265.8261 -13072.75 -306272.25)" gradientUnits="userSpaceOnUse">
									<stop  offset="0" style="stop-color:#FFFFFF"/>
									<stop  offset="0.4956" style="stop-color:#FFFFFF"/>
									<stop  offset="0.5183" style="stop-color:#E5E5E5"/>
									<stop  offset="0.567" style="stop-color:#A1A1A1"/>
									<stop  offset="0.6373" style="stop-color:#363636"/>
									<stop  offset="0.6712" style="stop-color:#000000"/>
									<stop  offset="1" style="stop-color:#000000"/>
								</radialGradient>
								<polygon clip-path="url(#SVGID_81_)" fill="url(#SVGID_83_)" points="386.217,326.926 216.116,227.591 305.005,75.389 
									475.106,174.73 								"/>
							</g>
						</mask>
						
							<radialGradient id="SVGID_84_" cx="-539.5229" cy="837.9121" r="0.3408" gradientTransform="matrix(-265.959 -155.322 -155.2444 265.8261 -13072.75 -306272.375)" gradientUnits="userSpaceOnUse">
							<stop  offset="0" style="stop-color:#FFFFFF"/>
							<stop  offset="0.4956" style="stop-color:#FFFFFF"/>
							<stop  offset="0.6712" style="stop-color:#FFFFFF"/>
							<stop  offset="1" style="stop-color:#FFFFFF"/>
						</radialGradient>
						<polygon clip-path="url(#SVGID_81_)" mask="url(#SVGID_82_)" fill="url(#SVGID_84_)" points="386.217,326.926 
							216.116,227.591 305.005,75.389 475.106,174.73 						"/>
					</g>
				</g>
			</g>
		</g>
		<g>
			<defs>
				<path id="SVGID_85_" d="M273.759,242.727c0.494,2.268,1.096,4.555,1.802,6.842c1.038-1.502,2.729-2.95,5.821-4.057
					c20.049-7.175,67.406-9.503,78.337-10.466c-4.599-0.205-9.489-0.308-14.53-0.308
					C319.096,234.738,288.936,237.477,273.759,242.727"/>
			</defs>
			<clipPath id="SVGID_86_">
				<use xlink:href="#SVGID_85_"  overflow="visible"/>
			</clipPath>
			
				<radialGradient id="SVGID_87_" cx="-539.3877" cy="838.5029" r="0.3407" gradientTransform="matrix(-252.1234 22.703 22.6916 251.9974 -154660.125 -198820)" gradientUnits="userSpaceOnUse">
				<stop  offset="0" style="stop-color:#FFFFFF"/>
				<stop  offset="0.5" style="stop-color:#EFE0D2"/>
				<stop  offset="1" style="stop-color:#B29C81"/>
			</radialGradient>
			<polygon clip-path="url(#SVGID_86_)" fill="url(#SVGID_87_)" points="361.041,249.449 274.451,257.246 272.434,234.856 
				359.025,227.061 			"/>
		</g>
		<g>
			<defs>
				<path id="SVGID_88_" d="M264.158,249.115c-1.188,3.674,6.987,5.835,9.086,5.835c0.731-1.463,0.988-3.46,2.316-5.381
					c-0.706-2.287-1.308-4.574-1.802-6.842C268.475,244.556,265.002,246.688,264.158,249.115"/>
			</defs>
			<clipPath id="SVGID_89_">
				<use xlink:href="#SVGID_88_"  overflow="visible"/>
			</clipPath>
			
				<radialGradient id="SVGID_90_" cx="-530.4434" cy="834.8975" r="0.3414" gradientTransform="matrix(33.7038 -1.8249 -1.824 -33.687 19664.8438 27407.3438)" gradientUnits="userSpaceOnUse">
				<stop  offset="0" style="stop-color:#858686"/>
				<stop  offset="1" style="stop-color:#6D7073"/>
			</radialGradient>
			<polygon clip-path="url(#SVGID_89_)" fill="url(#SVGID_90_)" points="262.309,242.766 275.524,242.047 276.219,254.915 
				263.006,255.631 			"/>
		</g>
		<g>
			<defs>
				<path id="SVGID_91_" d="M356.912,351.47c0,0,5.229,34.042,37.688,34.042l3.402-2.225c-27.728,0-34.415-22.822-38.476-34.432
					L356.912,351.47z"/>
			</defs>
			<clipPath id="SVGID_92_">
				<use xlink:href="#SVGID_91_"  overflow="visible"/>
			</clipPath>
			
				<radialGradient id="SVGID_93_" cx="-538.9517" cy="839.04" r="0.3416" gradientTransform="matrix(106.1758 102.1835 102.1324 -106.1228 -28111.125 144463.7812)" gradientUnits="userSpaceOnUse">
				<stop  offset="0" style="stop-color:#FCDCC4"/>
				<stop  offset="0.4908" style="stop-color:#FFFBE0"/>
				<stop  offset="1" style="stop-color:#FFFFFF"/>
			</radialGradient>
			<polygon clip-path="url(#SVGID_92_)" fill="url(#SVGID_93_)" points="376.667,328.325 416.315,366.479 378.242,406.042 
				338.595,367.883 			"/>
		</g>
		<g>
			<defs>
				<path id="SVGID_94_" d="M264.151,336.13c0.378,2.037,4.028,3.94,9.801,5.673c0.411-2.356,0.967-4.732,1.634-7.028
					c-1.408-1.837-1.854-3.865-2.313-6.179C269.312,330.259,263.475,332.159,264.151,336.13"/>
			</defs>
			<clipPath id="SVGID_95_">
				<use xlink:href="#SVGID_94_"  overflow="visible"/>
			</clipPath>
			
				<radialGradient id="SVGID_96_" cx="-530.0522" cy="841.626" r="0.3413" gradientTransform="matrix(30.9113 4.03 4.028 -30.8958 13259.5312 28473.9062)" gradientUnits="userSpaceOnUse">
				<stop  offset="0" style="stop-color:#A8A8A8"/>
				<stop  offset="1" style="stop-color:#A1A7AB"/>
			</radialGradient>
			<polygon clip-path="url(#SVGID_95_)" fill="url(#SVGID_96_)" points="263.676,327.041 277.279,328.813 275.386,343.352 
				261.78,341.581 			"/>
		</g>
		<g>
			<defs>
				<path id="SVGID_97_" d="M273.952,341.803c18.416,5.517,58.464,9.227,82.96,9.667l2.614-2.614c0,0-36.907-2.033-52.432-4.211
					c-21.147-2.96-28.51-5.97-31.508-9.87C274.919,337.07,274.363,339.446,273.952,341.803"/>
			</defs>
			<clipPath id="SVGID_98_">
				<use xlink:href="#SVGID_97_"  overflow="visible"/>
			</clipPath>
			
				<radialGradient id="SVGID_99_" cx="-537.8213" cy="838.5508" r="0.3411" gradientTransform="matrix(219.6072 28.6306 28.6163 -219.4975 94387.125 199799.25)" gradientUnits="userSpaceOnUse">
				<stop  offset="0" style="stop-color:#D4C0A6"/>
				<stop  offset="0.5215" style="stop-color:#FFFBE0"/>
				<stop  offset="1" style="stop-color:#FFFFFF"/>
			</radialGradient>
			<polygon clip-path="url(#SVGID_98_)" fill="url(#SVGID_99_)" points="275.38,323.802 361.666,335.052 358.093,362.437 
				271.811,351.188 			"/>
		</g>
		<g>
			<defs>
				<path id="SVGID_100_" d="M396.175,201.078c21.929,0,36.452,13.823,36.452,30.87l3.174-0.006
					c0-19.612-16.703-35.508-41.932-35.508L396.175,201.078z"/>
			</defs>
			<clipPath id="SVGID_101_">
				<use xlink:href="#SVGID_100_"  overflow="visible"/>
			</clipPath>
			
				<radialGradient id="SVGID_102_" cx="-537.0967" cy="837.5908" r="0.3406" gradientTransform="matrix(6.2498 97.6668 97.618 -6.2467 -77976.875 57887.375)" gradientUnits="userSpaceOnUse">
				<stop  offset="0" style="stop-color:#FCDCC4"/>
				<stop  offset="0.4908" style="stop-color:#FFFBE0"/>
				<stop  offset="1" style="stop-color:#FFFFFF"/>
			</radialGradient>
			<polygon clip-path="url(#SVGID_101_)" fill="url(#SVGID_102_)" points="435.629,193.762 438.063,231.805 394.039,234.623 
				391.604,196.58 			"/>
		</g>
	</g>
</g>
</svg>
