<?xml version="1.0" encoding="UTF-8" ?>
<!DOCTYPE svg PUBLIC "-//W3C//DTD SVG 1.1//EN" "http://www.w3.org/Graphics/SVG/1.1/DTD/svg11.dtd">
<svg width="900pt" height="900pt" viewBox="0 0 900 900" version="1.1" xmlns="http://www.w3.org/2000/svg">
<g id="#231f20ff">
<path fill="#231f20" opacity="1.00" d=" M 319.02 77.09 C 387.03 49.28 463.39 42.65 535.26 57.74 C 605.18 72.29 670.41 107.68 721.43 157.57 C 770.85 205.41 807.27 266.38 826.66 332.34 C 847.98 404.47 849.08 482.43 830.12 555.20 C 813.60 618.59 781.55 677.93 737.20 726.17 C 695.25 772.01 642.19 807.75 583.60 828.57 C 499.66 858.69 404.83 857.10 321.99 824.04 C 313.34 820.84 305.18 816.40 296.38 813.61 C 259.56 801.66 224.52 784.28 192.67 762.29 C 185.50 757.19 178.18 752.25 171.68 746.30 C 145.07 722.14 120.35 695.64 100.19 665.81 C 81.07 637.75 66.57 606.45 58.57 573.41 C 57.33 567.81 54.61 561.41 58.11 556.08 C 63.78 547.19 74.37 543.96 83.39 539.70 C 83.21 535.36 81.86 531.17 81.14 526.91 C 71.76 476.77 71.69 424.92 80.82 374.74 C 81.66 369.71 83.13 364.77 83.60 359.69 C 79.47 359.15 75.13 359.43 71.24 357.74 C 64.71 354.96 59.97 349.07 57.31 342.63 C 56.53 340.90 56.46 338.95 57.08 337.17 C 75.80 282.67 102.68 230.34 140.73 186.75 C 163.96 160.05 191.29 136.91 221.59 118.62 C 245.75 103.93 271.78 92.44 298.66 83.74 C 305.46 81.56 312.43 79.88 319.02 77.09 M 399.44 73.58 C 348.32 78.20 297.42 90.34 251.33 113.32 C 218.23 129.69 187.81 151.58 162.07 178.06 C 118.63 221.89 88.57 277.30 67.99 335.06 C 67.47 337.08 66.33 339.35 67.44 341.38 C 69.92 346.58 75.60 350.68 81.55 349.79 C 84.36 345.58 85.32 340.37 88.33 336.28 C 91.47 333.57 95.82 333.03 99.60 331.59 C 128.42 321.76 158.00 314.16 188.02 309.08 C 225.03 302.64 262.60 300.16 300.11 298.90 C 301.30 298.84 302.48 298.69 303.65 298.46 C 305.80 294.61 306.60 290.21 308.11 286.10 C 314.40 268.65 324.43 252.63 336.95 238.96 C 340.96 234.65 344.87 230.09 349.92 226.96 C 367.11 216.81 386.95 210.65 407.03 211.22 C 429.69 211.18 451.97 219.41 469.86 233.16 C 482.91 243.28 492.87 257.41 497.76 273.20 C 502.19 289.51 501.88 307.44 495.08 323.07 C 488.15 338.98 475.01 351.48 460.32 360.31 C 443.91 369.17 426.08 375.60 407.62 378.42 C 402.54 379.25 397.36 379.21 392.30 380.17 C 391.49 390.08 392.26 400.06 392.00 410.00 C 392.00 442.33 392.00 474.67 392.00 507.00 C 392.02 511.58 391.69 516.19 392.22 520.77 C 396.16 521.21 400.14 520.99 404.09 521.18 C 418.65 521.84 433.01 525.19 446.56 530.51 C 461.23 536.00 474.33 545.70 483.86 558.13 C 494.23 571.79 498.96 589.04 499.30 606.03 C 499.98 620.33 495.74 634.51 489.07 647.04 C 481.12 661.99 467.52 673.48 452.03 680.04 C 435.00 687.25 416.34 689.77 397.96 689.81 C 390.02 689.81 382.39 687.36 374.91 684.98 C 358.26 679.52 342.74 670.12 331.01 657.01 C 319.68 644.51 311.83 629.18 306.83 613.15 C 305.71 609.52 305.04 605.75 303.58 602.24 C 297.79 601.15 291.86 601.58 286.00 601.47 C 228.50 600.41 171.20 592.76 115.18 579.83 C 105.29 577.52 95.37 573.26 88.65 565.36 C 85.04 561.41 83.38 556.22 80.87 551.60 C 76.13 553.07 71.66 555.61 68.05 559.04 C 67.33 559.94 66.06 560.80 66.20 562.11 C 66.45 566.80 67.97 571.30 69.13 575.82 C 76.86 605.42 90.12 633.46 107.13 658.84 C 125.95 687.05 149.05 712.14 173.84 735.19 C 184.52 745.46 196.97 753.63 209.29 761.76 C 244.55 784.50 283.58 801.30 324.21 811.73 C 364.56 822.21 406.35 826.46 447.98 826.19 C 479.64 823.94 511.22 817.67 540.73 805.77 C 565.34 795.88 588.29 781.77 607.97 763.97 C 628.77 745.25 645.81 722.60 659.21 698.10 C 673.96 671.02 684.00 640.96 686.00 610.06 C 687.49 586.30 683.34 562.33 674.80 540.15 C 672.34 533.86 669.86 527.50 666.15 521.81 C 660.59 513.28 653.83 505.57 646.38 498.65 C 622.46 476.64 592.87 461.95 562.83 450.22 C 559.47 449.49 556.86 447.07 553.57 446.25 C 563.17 443.65 573.21 442.93 582.68 439.77 C 608.15 431.88 630.16 415.49 648.26 396.25 C 653.62 390.23 659.40 384.45 663.56 377.48 C 678.54 351.72 685.99 321.76 685.29 292.00 C 684.96 282.91 684.77 273.65 682.18 264.86 C 672.31 231.67 657.12 199.75 635.29 172.72 C 614.82 147.17 588.75 126.30 559.71 111.27 C 518.04 89.66 471.46 79.21 424.97 74.91 C 416.48 74.30 407.97 72.98 399.44 73.58 Z" />
</g>
</svg>
