<?xml version="1.0" encoding="utf-8"?>
<!-- Generator: Adobe Illustrator 16.2.1, SVG Export Plug-In . SVG Version: 6.00 Build 0)  -->
<!DOCTYPE svg PUBLIC "-//W3C//DTD SVG 1.1//EN" "http://www.w3.org/Graphics/SVG/1.1/DTD/svg11.dtd">
<svg version="1.1" id="Layer_1" xmlns="http://www.w3.org/2000/svg" xmlns:xlink="http://www.w3.org/1999/xlink" x="0px" y="0px"
	 width="841.89px" height="595.28px" viewBox="0 0 841.89 595.28" enable-background="new 0 0 841.89 595.28" xml:space="preserve">
<g id="TV3-Logo-CMYK_1_">
	<linearGradient id="BG_1_" gradientUnits="userSpaceOnUse" x1="487.0234" y1="210.9736" x2="340.8689" y2="402.6685">
		<stop  offset="0" style="stop-color:#C02485"/>
		<stop  offset="0.464" style="stop-color:#881E62"/>
		<stop  offset="1" style="stop-color:#4C153B"/>
	</linearGradient>
	<path id="BG" fill="url(#BG_1_)" d="M586.388,297.639c0,91.37-74.065,165.444-165.436,165.444
		c-91.375,0-165.449-74.074-165.449-165.444c0-91.369,74.074-165.443,165.449-165.443
		C512.322,132.196,586.388,206.271,586.388,297.639z"/>
	<path id="_x33_" fill="#FFFFFF" d="M348.958,267.812c0.255-21.085,8.743-36.511,22.368-46.796
		c13.629-10.028,32.139-14.907,52.195-14.907c51.937,0,69.16,30.848,69.16,46.018c0,37.533-23.653,37.533-23.653,38.31v0.512
		c0,2.059,29.313,2.059,29.313,41.916c0,21.847-16.461,56.307-75.077,56.307c-80.477,0-80.738-56.579-79.445-69.938h48.847
		c-0.262,9.508,2.065,16.71,6.943,21.344c4.885,5.914,12.34,7.965,21.333,7.965c14.665,0,23.919-5.401,23.919-20.051
		c0-15.682-12.083-18.514-23.919-18.514c-7.45,0-11.053,0.771-14.9,1.282v-34.966c3.847,0.261,7.973,1.027,14.9,1.027
		c10.81,0,24.427-2.312,24.427-16.196c0-11.316-12.853-15.686-23.387-15.686c-13.888,0-25.203,7.464-24.692,22.372H348.958z"/>
	<linearGradient id="VIASAT_1_" gradientUnits="userSpaceOnUse" x1="421.4683" y1="264.4463" x2="418.7528" y2="436.767">
		<stop  offset="0" style="stop-color:#EDEDED"/>
		<stop  offset="0.2845" style="stop-color:#D0D0D0"/>
		<stop  offset="0.587" style="stop-color:#B5B5B5"/>
		<stop  offset="0.8365" style="stop-color:#A4A3A3"/>
		<stop  offset="1" style="stop-color:#9D9D9C"/>
	</linearGradient>
	<path id="VIASAT" fill="url(#VIASAT_1_)" d="M588.537,274.688c-11.208-82.557-81.968-146.192-167.599-146.192
		c-89.033,0-161.999,68.8-168.643,156.134c-0.331,4.291-0.494,8.626-0.494,13.006c0,93.421,75.725,169.144,169.137,169.144
		c93.425,0,169.15-75.723,169.15-169.144C590.089,289.849,589.548,282.193,588.537,274.688z M329.329,432.528l4.066-30.611
		l8.321,5.182l-3.581,19.567l15.96-11.859l8.312,5.184l-25.684,17.141L329.329,432.528z M365.935,450.6l-8.139-3.1l9.991-26.204
		l8.135,3.1L365.935,450.6z M400.127,458.805l-0.991-4.434l-10.973-1.893l-2.41,3.851l-9.651-1.665l17.328-25.548l8.575,1.482
		l7.777,29.87L400.127,458.805z M446.247,456.674c-1.273,1.524-3.161,2.258-6.261,2.487l-11.193,0.827
		c-3.054,0.229-5.025-0.212-6.55-1.492c-1.524-1.239-2.144-2.793-2.414-5.969l8.623-1.233l0.061,0.877
		c0.024,0.34,0.258,0.533,0.588,0.505l9.515-0.696c0.331-0.03,0.522-0.257,0.499-0.592l-0.19-2.556
		c-0.02-0.33-0.243-0.525-0.578-0.503l-10.358,0.769c-3.096,0.229-5.067-0.211-6.555-1.537c-1.348-1.208-2.214-3.158-2.378-5.38
		l-0.144-1.975c-0.168-2.22,0.392-4.286,1.562-5.676c1.277-1.526,3.161-2.256,6.255-2.489l11.193-0.827
		c3.096-0.229,5.025,0.219,6.55,1.491c1.524,1.229,2.145,2.793,2.425,6.019l-8.634,1.187l-0.057-0.844
		c-0.032-0.333-0.247-0.522-0.587-0.499l-9.51,0.704c-0.326,0.023-0.527,0.252-0.504,0.587l0.182,2.516
		c0.028,0.338,0.247,0.526,0.583,0.501l10.35-0.77c3.109-0.229,5.076,0.218,6.568,1.541c1.351,1.203,2.214,3.153,2.377,5.379
		l0.149,2.022C447.972,453.264,447.412,455.326,446.247,456.674z M480.785,449.513l-2.946-3.454l-10.572,3.454l-0.346,4.536
		l-9.305,3.042l3.376-30.677l8.27-2.709l20.834,22.778L480.785,449.513z M502.863,439.22l-10.498-17.91l-8.592,5.044l-3.683-6.274
		l24.65-14.453l3.684,6.268l-8.554,5.021l10.503,17.906L502.863,439.22z M420.938,425.575c-70.991,0-128.547-57.559-128.547-128.559
		c0-2.193,0.044-4.377,0.159-6.547c3.408-67.957,59.588-122.003,128.388-122.003c66.294,0,120.869,50.183,127.802,114.634
		c0.503,4.572,0.764,9.22,0.764,13.917C549.504,368.017,491.951,425.575,420.938,425.575z M392.086,445.774l5.649,0.965
		l-1.524-7.976L392.086,445.774z M467.598,441.764l5.426-1.776l-5.072-6.352L467.598,441.764z"/>
</g>
</svg>
