<?xml version="1.0" encoding="UTF-8" ?>
<!DOCTYPE svg PUBLIC "-//W3C//DTD SVG 1.1//EN" "http://www.w3.org/Graphics/SVG/1.1/DTD/svg11.dtd">
<svg width="800pt" height="800pt" viewBox="0 0 800 800" version="1.1" xmlns="http://www.w3.org/2000/svg">
<g id="#fbd461ff">
<path fill="#fbd461" opacity="1.00" d=" M 400.72 24.98 L 402.16 25.03 C 401.92 31.55 402.14 38.07 402.06 44.59 C 401.35 52.94 401.46 61.37 402.04 69.73 C 401.53 77.81 401.97 85.91 401.99 94.00 C 402.20 102.35 401.82 110.72 402.49 119.06 C 402.99 115.07 403.16 111.05 403.20 107.03 C 409.42 110.03 415.57 113.16 421.72 116.28 C 435.72 124.12 448.91 133.47 460.63 144.44 C 472.32 154.12 481.56 166.31 490.57 178.42 C 494.57 183.01 497.05 188.60 500.42 193.63 C 508.30 207.68 515.05 222.40 519.75 237.83 C 516.44 237.91 513.13 238.08 509.85 238.45 C 516.50 239.53 523.27 238.88 529.97 239.11 C 537.75 239.02 545.54 239.52 553.32 239.00 C 561.99 239.78 570.74 238.70 579.39 239.87 C 562.27 240.57 545.11 239.99 527.98 240.17 C 517.79 240.05 507.60 240.44 497.42 239.94 C 489.79 238.46 481.99 239.98 474.32 238.90 C 478.35 237.39 482.68 237.71 486.90 237.84 C 484.94 229.69 480.91 222.28 477.25 214.81 C 470.72 202.78 463.15 191.24 453.82 181.18 C 447.71 173.02 439.62 166.71 432.13 159.91 C 425.46 155.19 419.26 149.74 412.00 145.92 C 409.05 144.29 406.13 142.61 403.18 141.01 C 402.75 147.90 403.32 154.82 402.56 161.70 C 402.09 165.88 402.13 170.10 401.99 174.30 L 401.44 175.71 C 401.13 164.32 401.59 152.92 401.08 141.54 C 401.42 129.20 401.31 116.83 401.06 104.49 C 401.38 94.27 401.07 84.04 401.20 73.81 C 401.05 63.17 401.54 52.52 400.86 41.90 C 400.53 36.26 400.78 30.62 400.72 24.98 Z" />
</g>
<g id="#f6c538ff">
<path fill="#f6c538" opacity="1.00" d=" M 402.16 25.03 L 402.82 25.08 C 431.90 25.97 461.01 29.09 489.29 36.11 C 488.74 36.49 487.65 37.27 487.11 37.66 C 491.22 38.57 495.67 39.21 498.99 42.05 C 504.27 46.85 510.72 50.12 515.89 55.08 C 524.74 61.42 532.54 69.06 540.24 76.74 C 560.27 96.49 577.49 119.06 591.45 143.48 C 598.74 155.23 603.87 168.10 609.53 180.66 C 614.46 193.69 619.29 206.80 622.61 220.34 C 625.38 228.66 625.91 237.49 628.16 245.94 C 629.39 250.66 628.57 255.63 629.71 260.36 C 633.33 274.63 631.63 289.46 632.06 304.01 C 632.35 315.46 631.87 326.95 629.42 338.16 C 628.59 353.98 623.77 369.18 620.33 384.55 C 616.35 396.08 612.98 407.83 607.96 418.97 C 601.67 433.49 594.79 447.86 586.15 461.13 C 585.54 459.38 584.95 457.62 584.30 455.90 C 584.06 456.50 583.58 457.72 583.34 458.33 C 581.07 446.76 573.62 436.42 563.19 430.88 C 564.95 430.75 566.75 430.73 568.50 430.38 C 572.19 425.71 573.69 419.75 576.47 414.55 C 579.45 409.16 580.79 403.11 583.44 397.58 C 587.07 387.81 590.92 378.04 592.92 367.78 C 595.19 363.29 594.66 358.13 596.33 353.47 C 598.85 346.79 597.75 339.44 599.76 332.63 C 602.40 324.43 600.10 315.78 601.43 307.43 C 602.51 300.63 602.09 293.74 601.27 286.95 C 600.29 279.09 602.16 270.99 599.77 263.31 C 598.40 258.64 598.08 253.78 597.87 248.95 C 597.58 244.15 595.23 239.79 594.82 235.00 C 590.62 218.24 585.61 201.57 578.18 185.90 C 575.95 181.38 574.69 176.43 572.14 172.07 C 567.73 164.40 564.33 156.13 559.13 148.93 C 553.30 140.43 547.86 131.65 541.36 123.62 C 536.45 116.63 529.96 110.99 524.74 104.26 C 520.62 99.07 515.04 95.36 510.42 90.67 C 499.01 79.48 485.90 70.26 472.79 61.20 C 466.51 56.97 459.58 53.86 453.20 49.81 C 442.93 44.59 432.45 39.80 421.84 35.32 C 415.54 33.37 409.38 31.02 403.13 28.92 C 402.90 34.15 403.78 39.53 402.06 44.59 C 402.14 38.07 401.92 31.55 402.16 25.03 Z" />
</g>
<g id="#f0f0efff">
<path fill="#f0f0ef" opacity="1.00" d=" M 402.82 25.08 C 412.25 24.99 421.74 24.71 431.05 26.27 C 439.73 26.68 448.47 27.56 457.03 29.30 C 462.74 29.92 468.39 31.08 474.03 32.21 C 491.88 35.58 509.33 40.78 526.48 46.70 C 532.09 48.48 537.43 51.02 542.95 53.05 C 545.08 53.93 547.39 54.55 549.22 56.04 C 542.78 53.78 536.56 50.95 530.14 48.66 C 516.80 43.62 503.10 39.61 489.29 36.11 C 461.01 29.09 431.90 25.97 402.82 25.08 Z" />
<path fill="#f0f0ef" opacity="1.00" d=" M 583.75 73.09 C 594.10 78.41 603.69 85.06 613.38 91.49 C 615.99 93.23 618.70 94.91 620.92 97.16 C 611.52 91.03 602.43 84.43 592.72 78.77 C 589.70 76.93 586.53 75.30 583.75 73.09 Z" />
<path fill="#f0f0ef" opacity="1.00" d=" M 627.35 102.07 C 631.01 104.17 634.37 106.92 637.37 109.89 C 633.84 107.53 630.57 104.83 627.35 102.07 Z" />
<path fill="#f0f0ef" opacity="1.00" d=" M 637.54 110.02 C 639.01 110.60 640.10 111.77 641.24 112.83 C 646.10 117.21 651.52 120.99 655.76 126.04 C 653.70 124.41 651.67 122.74 649.71 121.01 C 645.95 117.02 641.36 113.95 637.54 110.02 Z" />
<path fill="#f0f0ef" opacity="1.00" d=" M 364.40 267.35 C 376.57 258.53 387.23 247.32 400.98 240.87 C 416.00 241.23 431.03 240.75 446.04 241.24 C 454.08 242.38 462.21 241.53 470.27 242.31 C 460.39 247.88 449.54 251.70 440.04 257.99 C 435.75 260.93 431.01 263.10 426.47 265.60 C 408.82 277.21 391.90 290.01 376.40 304.38 C 370.71 310.69 363.86 315.86 358.48 322.45 C 344.58 338.16 331.09 354.48 320.84 372.84 C 314.35 382.10 309.45 392.34 304.37 402.40 C 300.91 410.39 296.89 418.15 294.24 426.46 C 291.34 433.56 288.70 440.77 286.53 448.13 C 285.59 453.38 282.87 458.10 282.26 463.43 C 278.84 476.18 276.38 489.14 274.39 502.18 C 273.88 510.47 272.35 518.67 272.00 526.98 C 272.21 540.25 271.88 553.53 272.13 566.81 C 277.27 567.00 282.43 567.24 287.49 568.24 L 288.48 568.79 C 277.64 568.91 266.79 569.02 255.95 568.72 C 255.95 551.91 255.82 535.09 255.80 518.29 C 256.47 498.99 255.87 479.66 255.72 460.36 C 256.43 451.93 255.99 443.47 255.97 435.02 C 255.95 418.46 255.67 401.90 255.86 385.34 L 256.73 385.38 C 257.73 396.93 255.75 408.69 258.40 420.08 C 264.58 404.96 270.21 389.52 278.37 375.34 C 290.70 351.68 305.64 329.34 323.04 309.11 C 329.68 300.19 337.89 292.59 346.00 285.04 C 351.36 278.38 358.16 273.14 364.40 267.35 Z" />
<path fill="#f0f0ef" opacity="1.00" d=" M 768.28 330.69 C 769.84 334.80 769.60 339.35 771.32 343.42 C 771.88 345.50 771.54 347.70 771.59 349.84 C 771.99 353.92 773.05 357.94 772.78 362.07 C 772.71 364.03 772.60 365.99 772.48 367.96 C 772.66 361.58 771.92 355.25 770.86 348.98 C 771.16 347.31 771.26 345.50 770.49 343.95 C 769.63 339.55 768.73 335.15 768.28 330.69 Z" />
<path fill="#f0f0ef" opacity="1.00" d=" M 774.77 399.97 C 775.23 389.98 773.44 380.09 773.52 370.12 C 774.79 374.91 775.00 380.01 774.95 384.99 C 774.96 395.99 774.96 406.98 774.95 417.98 C 774.91 419.87 775.08 421.83 774.39 423.64 C 774.19 425.70 774.54 427.90 773.50 429.79 C 773.40 419.83 775.21 409.95 774.77 399.97 Z" />
<path fill="#f0f0ef" opacity="1.00" d=" M 41.76 384.26 C 42.01 383.57 42.52 382.19 42.77 381.51 C 42.80 382.41 42.85 384.22 42.87 385.13 C 37.30 385.22 31.72 385.09 26.15 385.20 L 25.66 385.81 C 24.55 407.90 26.10 430.09 29.16 451.98 C 29.10 452.62 28.97 453.90 28.90 454.54 L 29.64 454.79 C 30.52 463.33 32.48 471.71 33.98 480.14 L 33.33 480.25 C 31.77 470.54 29.62 460.89 28.27 451.17 C 26.78 440.47 26.29 429.73 25.04 419.02 C 25.05 407.43 25.00 395.84 25.08 384.25 C 30.64 384.29 36.20 384.28 41.76 384.26 Z" />
<path fill="#f0f0ef" opacity="1.00" d=" M 703.62 618.59 C 739.66 569.03 762.82 510.42 771.18 449.75 C 771.49 453.49 770.46 457.16 770.08 460.87 C 767.85 472.49 765.69 484.15 762.50 495.56 C 761.83 497.76 761.27 500.01 760.78 502.26 C 759.08 506.94 758.02 511.81 756.29 516.47 C 755.30 519.46 754.21 522.42 753.37 525.46 C 738.85 565.29 718.12 603.06 690.96 635.67 C 694.82 629.73 699.62 624.46 703.62 618.59 Z" />
<path fill="#f0f0ef" opacity="1.00" d=" M 34.05 480.45 C 36.10 488.42 37.85 496.47 40.34 504.33 C 47.98 530.62 58.47 556.12 71.80 580.04 C 75.36 586.97 79.84 593.36 83.36 600.30 C 79.74 595.29 76.80 589.83 73.62 584.54 C 65.63 569.90 57.97 555.03 51.90 539.48 C 47.57 528.73 43.59 517.80 40.47 506.63 C 38.26 499.95 36.69 493.07 34.85 486.28 C 34.46 484.35 33.89 482.43 34.05 480.45 Z" />
<path fill="#f0f0ef" opacity="1.00" d=" M 687.89 638.68 C 687.85 637.26 688.90 635.99 690.32 635.85 C 691.20 637.14 689.28 639.41 687.89 638.68 Z" />
<path fill="#f0f0ef" opacity="1.00" d=" M 617.63 704.46 C 622.26 700.71 626.97 697.03 631.96 693.75 C 630.52 695.65 628.37 696.77 626.53 698.22 C 623.56 700.30 620.92 702.88 617.63 704.46 Z" />
<path fill="#f0f0ef" opacity="1.00" d=" M 426.97 772.80 C 458.96 770.88 490.39 763.73 520.87 754.11 L 520.99 754.52 C 517.84 755.53 514.65 756.43 511.52 757.51 C 510.05 757.98 508.58 758.46 507.11 758.92 C 502.14 760.58 497.11 761.82 492.04 763.12 C 489.82 763.61 487.58 764.02 485.35 764.44 C 479.04 766.45 472.40 766.99 466.03 768.75 C 463.15 769.56 460.07 769.20 457.24 770.16 C 452.36 770.24 447.64 771.84 442.76 771.89 C 440.25 772.91 437.51 772.23 434.91 772.70 C 430.71 773.88 426.28 772.61 422.09 773.89 C 407.39 774.01 392.67 773.99 377.97 773.89 C 373.83 772.39 369.18 774.31 365.23 772.48 C 372.18 772.49 379.08 773.45 386.02 773.58 C 399.67 773.98 413.36 773.94 426.97 772.80 Z" />
<path fill="#f0f0ef" opacity="1.00" d=" M 287.51 756.91 C 292.26 758.15 297.00 759.46 301.77 760.61 C 317.99 765.73 334.88 768.10 351.58 771.00 C 348.33 771.14 345.22 769.95 341.96 770.19 C 330.62 767.98 319.19 765.98 307.96 763.10 C 305.29 762.44 302.65 761.71 300.06 760.78 C 295.74 760.03 291.48 758.75 287.51 756.91 Z" />
<path fill="#f0f0ef" opacity="1.00" d=" M 351.88 771.05 C 356.02 771.37 360.18 771.62 364.28 772.38 C 360.14 772.64 355.79 772.26 351.88 771.05 Z" />
</g>
<g id="#f8c944ff">
<path fill="#f8c944" opacity="1.00" d=" M 403.13 28.92 C 409.38 31.02 415.54 33.37 421.84 35.32 C 432.45 39.80 442.93 44.59 453.20 49.81 C 459.58 53.86 466.51 56.97 472.79 61.20 C 485.90 70.26 499.01 79.48 510.42 90.67 C 515.04 95.36 520.62 99.07 524.74 104.26 C 529.96 110.99 536.45 116.63 541.36 123.62 C 547.86 131.65 553.30 140.43 559.13 148.93 C 564.33 156.13 567.73 164.40 572.14 172.07 C 574.69 176.43 575.95 181.38 578.18 185.90 C 585.61 201.57 590.62 218.24 594.82 235.00 C 595.23 239.79 597.58 244.15 597.87 248.95 C 598.08 253.78 598.40 258.64 599.77 263.31 C 602.16 270.99 600.29 279.09 601.27 286.95 C 602.09 293.74 602.51 300.63 601.43 307.43 C 600.10 315.78 602.40 324.43 599.76 332.63 C 597.75 339.44 598.85 346.79 596.33 353.47 C 594.66 358.13 595.19 363.29 592.92 367.78 C 590.92 378.04 587.07 387.81 583.44 397.58 C 580.79 403.11 579.45 409.16 576.47 414.55 C 573.69 419.75 572.19 425.71 568.50 430.38 C 566.75 430.73 564.95 430.75 563.19 430.88 C 549.52 423.75 533.47 422.46 518.39 424.63 C 517.80 424.42 516.62 423.99 516.03 423.78 C 516.85 423.42 517.67 423.06 518.50 422.71 C 518.17 422.20 517.85 421.69 517.53 421.18 C 520.87 415.32 524.97 409.86 527.52 403.58 C 529.83 397.98 533.53 393.00 534.92 387.03 C 524.81 386.21 514.60 387.96 504.57 386.25 C 508.50 386.12 512.41 385.64 516.34 385.32 C 538.97 385.16 561.60 385.26 584.22 385.15 C 584.31 342.44 584.26 299.74 584.26 257.03 C 584.27 251.44 584.29 245.84 584.21 240.25 C 582.59 240.12 580.99 239.99 579.39 239.87 C 570.74 238.70 561.99 239.78 553.32 239.00 C 556.58 237.65 560.12 237.57 563.60 237.79 C 563.26 232.33 560.68 227.43 559.41 222.19 C 557.32 215.12 554.66 208.25 551.73 201.50 C 548.45 192.16 543.45 183.58 539.04 174.75 C 529.01 158.00 518.08 141.57 504.29 127.64 C 479.63 100.41 448.51 79.31 414.59 65.36 C 410.80 64.03 406.93 62.91 403.30 61.19 C 403.40 64.09 403.11 67.00 402.04 69.73 C 401.46 61.37 401.35 52.94 402.06 44.59 C 403.78 39.53 402.90 34.15 403.13 28.92 Z" />
</g>
<g id="#f6c128ff">
<path fill="#f6c128" opacity="1.00" d=" M 487.11 37.66 C 487.65 37.27 488.74 36.49 489.29 36.11 C 503.10 39.61 516.80 43.62 530.14 48.66 C 536.56 50.95 542.78 53.78 549.22 56.04 L 549.51 56.18 C 551.65 57.41 553.93 58.38 556.29 59.11 C 565.90 62.78 574.96 67.83 583.75 73.09 C 586.53 75.30 589.70 76.93 592.72 78.77 C 592.82 79.33 593.02 80.45 593.12 81.00 C 601.57 91.34 609.38 102.24 616.36 113.63 C 622.65 122.45 626.85 132.48 632.17 141.87 C 649.98 177.66 661.44 216.48 666.76 256.07 C 667.21 265.09 668.64 274.04 669.03 283.06 C 668.70 294.36 669.40 305.68 668.84 316.97 C 667.59 326.90 667.43 336.96 665.69 346.82 C 661.73 372.49 655.42 397.85 646.00 422.07 C 643.61 430.45 639.16 437.99 636.15 446.13 C 622.98 472.65 607.66 498.33 588.31 520.85 C 588.04 520.45 587.50 519.66 587.23 519.26 C 586.96 519.72 586.43 520.63 586.17 521.09 C 584.62 510.43 578.11 500.54 568.33 495.74 C 573.98 492.07 579.23 487.29 581.60 480.81 C 584.54 473.71 584.08 465.82 583.34 458.33 C 583.58 457.72 584.06 456.50 584.30 455.90 C 584.95 457.62 585.54 459.38 586.15 461.13 C 594.79 447.86 601.67 433.49 607.96 418.97 C 612.98 407.83 616.35 396.08 620.33 384.55 C 623.77 369.18 628.59 353.98 629.42 338.16 C 631.87 326.95 632.35 315.46 632.06 304.01 C 631.63 289.46 633.33 274.63 629.71 260.36 C 628.57 255.63 629.39 250.66 628.16 245.94 C 625.91 237.49 625.38 228.66 622.61 220.34 C 619.29 206.80 614.46 193.69 609.53 180.66 C 603.87 168.10 598.74 155.23 591.45 143.48 C 577.49 119.06 560.27 96.49 540.24 76.74 C 532.54 69.06 524.74 61.42 515.89 55.08 C 510.72 50.12 504.27 46.85 498.99 42.05 C 495.67 39.21 491.22 38.57 487.11 37.66 Z" />
</g>
<g id="#babbb7ff">
<path fill="#babbb7" opacity="1.00" d=" M 382.08 42.72 C 388.22 41.19 394.61 42.45 400.86 41.90 C 401.54 52.52 401.05 63.17 401.20 73.81 C 399.84 72.94 398.27 71.45 396.62 72.66 C 386.56 77.62 376.02 81.63 366.34 87.36 C 360.41 90.37 354.58 93.54 348.82 96.86 C 337.40 102.35 327.08 109.77 316.48 116.64 C 305.25 123.46 294.95 131.64 284.44 139.47 C 278.79 144.89 271.90 148.79 266.42 154.40 C 262.99 157.90 257.58 160.31 257.42 165.91 C 255.55 158.42 256.35 150.68 256.19 143.05 C 256.20 137.63 255.77 132.19 256.38 126.78 C 258.24 124.21 257.92 120.92 258.90 118.04 C 262.09 114.42 266.65 112.41 270.22 109.21 C 280.66 100.03 292.87 93.28 303.98 85.00 C 326.62 71.06 349.62 57.50 374.08 46.95 C 377.89 45.10 382.20 45.10 386.31 44.41 C 381.19 44.09 376.02 44.69 370.95 43.67 C 374.37 41.87 378.39 43.27 382.08 42.72 Z" />
</g>
<g id="#b0b0acff">
<path fill="#b0b0ac" opacity="1.00" d=" M 342.02 46.47 C 351.69 45.76 361.24 42.95 370.95 43.67 C 376.02 44.69 381.19 44.09 386.31 44.41 C 382.20 45.10 377.89 45.10 374.08 46.95 C 349.62 57.50 326.62 71.06 303.98 85.00 C 292.87 93.28 280.66 100.03 270.22 109.21 C 266.65 112.41 262.09 114.42 258.90 118.04 C 257.92 120.92 258.24 124.21 256.38 126.78 C 256.36 114.51 256.11 102.25 256.08 89.98 C 256.01 84.08 256.45 78.13 255.50 72.27 C 269.59 66.42 283.81 60.70 298.56 56.67 C 304.18 54.51 310.17 53.50 315.96 51.90 C 317.04 51.61 318.12 51.30 319.20 50.98 C 319.30 52.42 319.86 52.52 320.89 51.28 C 322.94 49.56 325.85 49.94 328.31 49.28 C 331.39 48.50 334.58 48.14 337.62 47.20 C 338.29 47.21 339.64 47.23 340.32 47.24 C 340.74 47.05 341.60 46.66 342.02 46.47 Z" />
</g>
<g id="#d6d7d5f9">
<path fill="#d6d7d5" opacity="0.98" d=" M 319.20 50.98 C 319.63 51.05 320.47 51.20 320.89 51.28 C 319.86 52.52 319.30 52.42 319.20 50.98 Z" />
</g>
<g id="#e7e7e5ff">
<path fill="#e7e7e5" opacity="1.00" d=" M 549.51 56.18 C 551.89 56.84 554.23 57.71 556.29 59.11 C 553.93 58.38 551.65 57.41 549.51 56.18 Z" />
<path fill="#e7e7e5" opacity="1.00" d=" M 621.56 97.64 C 623.76 98.61 625.74 100.03 627.21 101.96 C 625.23 100.65 623.34 99.21 621.56 97.64 Z" />
<path fill="#e7e7e5" opacity="1.00" d=" M 685.98 157.76 C 693.60 165.34 699.38 174.56 706.07 182.96 C 712.61 192.67 719.24 202.34 724.93 212.59 C 731.21 223.09 736.25 234.24 741.82 245.12 C 745.77 254.52 749.68 263.94 753.32 273.47 C 754.25 276.51 755.29 279.52 756.33 282.54 C 756.94 284.57 757.85 286.55 757.93 288.72 C 753.20 275.53 748.80 262.19 742.99 249.42 C 733.26 227.32 721.45 206.15 707.65 186.33 C 700.92 176.44 693.29 167.21 685.98 157.76 Z" />
<path fill="#e7e7e5" opacity="1.00" d=" M 399.67 202.17 C 399.73 205.02 400.27 207.83 401.05 210.56 C 401.43 220.43 401.42 230.33 401.17 240.20 L 400.98 240.87 C 387.23 247.32 376.57 258.53 364.40 267.35 C 358.16 273.14 351.36 278.38 346.00 285.04 C 337.89 292.59 329.68 300.19 323.04 309.11 C 305.64 329.34 290.70 351.68 278.37 375.34 C 270.21 389.52 264.58 404.96 258.40 420.08 C 255.75 408.69 257.73 396.93 256.73 385.38 L 255.86 385.34 C 252.41 385.26 248.97 385.29 245.53 385.07 C 242.04 384.15 238.44 383.69 234.83 383.67 C 237.24 383.04 240.69 383.53 241.68 380.68 C 247.68 368.71 253.34 356.56 260.07 344.97 C 264.34 338.26 268.75 331.64 273.03 324.94 C 277.79 316.93 284.04 309.96 289.25 302.26 C 305.34 281.54 323.67 262.62 343.37 245.32 C 350.22 240.60 355.69 234.18 362.85 229.89 C 373.58 221.31 385.08 213.76 396.88 206.74 C 398.48 205.75 398.85 203.72 399.67 202.17 Z" />
<path fill="#e7e7e5" opacity="1.00" d=" M 84.84 602.59 C 89.03 607.63 92.23 613.41 96.23 618.61 C 100.89 625.35 106.37 631.48 111.04 638.22 C 106.26 633.48 102.86 627.47 98.15 622.72 L 97.64 622.40 L 97.44 621.86 C 93.55 615.28 88.70 609.22 84.84 602.59 Z" />
<path fill="#e7e7e5" opacity="1.00" d=" M 111.59 638.88 C 114.93 642.09 117.79 645.73 120.88 649.17 C 123.49 652.19 126.50 654.88 128.76 658.20 C 124.26 654.68 121.24 649.77 117.11 645.89 C 115.54 643.33 112.84 641.63 111.59 638.88 Z" />
<path fill="#e7e7e5" opacity="1.00" d=" M 678.18 650.03 C 681.16 646.79 683.82 643.24 687.10 640.28 C 683.96 644.81 680.00 648.76 676.24 652.79 C 673.92 655.96 671.11 658.74 668.12 661.27 C 671.13 657.23 674.89 653.83 678.18 650.03 Z" />
<path fill="#e7e7e5" opacity="1.00" d=" M 160.81 688.00 C 164.65 690.48 168.04 693.57 171.69 696.31 C 189.93 710.33 209.43 722.75 229.97 733.14 C 245.63 741.32 262.09 747.76 278.59 754.02 C 274.55 752.99 270.61 751.63 266.79 749.98 C 257.08 746.50 247.59 742.41 238.38 737.77 C 232.10 735.79 226.82 731.69 220.86 729.00 C 201.04 718.24 182.35 705.51 164.65 691.54 C 163.23 690.51 161.90 689.37 160.81 688.00 Z" />
<path fill="#e7e7e5" opacity="1.00" d=" M 575.82 730.06 C 590.20 722.65 603.64 713.64 617.15 704.81 C 615.45 706.82 613.00 707.94 610.88 709.42 C 598.05 718.13 584.86 726.38 570.87 733.11 C 558.63 739.40 546.16 745.32 533.20 749.98 C 529.38 751.62 525.45 753.04 521.40 753.97 C 525.43 752.03 529.77 750.86 533.91 749.17 C 548.25 743.67 562.27 737.29 575.82 730.06 Z" />
</g>
<g id="#f9ce52ff">
<path fill="#f9ce52" opacity="1.00" d=" M 403.30 61.19 C 406.93 62.91 410.80 64.03 414.59 65.36 C 448.51 79.31 479.63 100.41 504.29 127.64 C 518.08 141.57 529.01 158.00 539.04 174.75 C 543.45 183.58 548.45 192.16 551.73 201.50 C 554.66 208.25 557.32 215.12 559.41 222.19 C 560.68 227.43 563.26 232.33 563.60 237.79 C 560.12 237.57 556.58 237.65 553.32 239.00 C 545.54 239.52 537.75 239.02 529.97 239.11 C 523.27 238.88 516.50 239.53 509.85 238.45 C 513.13 238.08 516.44 237.91 519.75 237.83 C 515.05 222.40 508.30 207.68 500.42 193.63 C 497.05 188.60 494.57 183.01 490.57 178.42 C 481.56 166.31 472.32 154.12 460.63 144.44 C 448.91 133.47 435.72 124.12 421.72 116.28 C 415.57 113.16 409.42 110.03 403.20 107.03 C 403.16 111.05 402.99 115.07 402.49 119.06 C 401.82 110.72 402.20 102.35 401.99 94.00 C 401.97 85.91 401.53 77.81 402.04 69.73 C 403.11 67.00 403.40 64.09 403.30 61.19 Z" />
</g>
<g id="#c5c5c1ff">
<path fill="#c5c5c1" opacity="1.00" d=" M 396.62 72.66 C 398.27 71.45 399.84 72.94 401.20 73.81 C 401.07 84.04 401.38 94.27 401.06 104.49 C 400.58 102.73 400.05 100.99 399.56 99.24 C 398.87 100.56 398.99 102.61 397.35 103.18 C 383.43 109.72 369.61 116.56 356.40 124.47 C 336.60 136.23 317.29 148.90 299.37 163.39 C 294.64 167.73 289.26 171.26 284.44 175.48 C 276.22 182.91 268.03 190.38 259.91 197.92 C 258.24 199.49 258.01 201.90 257.34 203.97 C 257.22 200.55 256.95 197.13 256.51 193.73 C 256.25 195.15 256.00 196.57 255.87 198.01 C 255.43 211.82 256.30 225.70 255.22 239.49 C 254.90 191.00 255.17 142.49 255.09 94.00 C 255.33 86.76 254.58 79.46 255.50 72.27 C 256.45 78.13 256.01 84.08 256.08 89.98 C 256.11 102.25 256.36 114.51 256.38 126.78 C 255.77 132.19 256.20 137.63 256.19 143.05 C 256.35 150.68 255.55 158.42 257.42 165.91 C 257.58 160.31 262.99 157.90 266.42 154.40 C 271.90 148.79 278.79 144.89 284.44 139.47 C 294.95 131.64 305.25 123.46 316.48 116.64 C 327.08 109.77 337.40 102.35 348.82 96.86 C 354.58 93.54 360.41 90.37 366.34 87.36 C 376.02 81.63 386.56 77.62 396.62 72.66 Z" />
<path fill="#c5c5c1" opacity="1.00" d=" M 201.56 241.33 C 210.42 240.68 219.34 241.08 228.20 241.54 C 225.79 241.81 223.36 242.00 220.93 242.15 C 213.71 249.07 209.00 257.96 202.71 265.63 C 198.83 271.15 195.19 276.84 191.65 282.58 C 181.16 297.71 173.02 314.26 164.41 330.49 C 158.60 341.41 154.50 353.12 149.33 364.35 C 146.87 370.75 144.63 377.24 142.07 383.61 C 143.14 384.11 144.22 384.61 145.31 385.10 C 144.37 385.17 142.47 385.31 141.53 385.38 C 131.83 385.04 122.13 385.29 112.43 385.17 C 113.17 379.17 116.45 373.89 118.02 368.09 C 123.34 354.34 128.57 340.50 135.09 327.25 C 139.42 317.16 145.00 307.70 149.88 297.88 C 156.13 287.16 161.99 276.18 168.94 265.89 C 174.30 259.10 177.98 251.16 183.58 244.56 C 184.50 243.55 185.49 242.31 187.00 242.32 C 191.85 241.94 196.79 242.60 201.56 241.33 Z" />
</g>
<g id="#f4bc17ff">
<path fill="#f4bc17" opacity="1.00" d=" M 593.12 81.00 C 593.02 80.45 592.82 79.33 592.72 78.77 C 602.43 84.43 611.52 91.03 620.92 97.16 C 621.08 97.28 621.40 97.52 621.56 97.64 C 623.34 99.21 625.23 100.65 627.21 101.96 L 627.35 102.07 C 630.57 104.83 633.84 107.53 637.37 109.89 L 637.54 110.02 C 641.36 113.95 645.95 117.02 649.71 121.01 C 650.33 124.10 652.01 126.80 653.32 129.63 C 661.30 145.02 667.97 161.08 673.79 177.40 C 679.12 193.37 683.16 209.75 686.66 226.20 C 686.99 231.69 688.66 236.92 689.61 242.30 C 690.16 252.92 692.87 263.30 693.10 273.96 C 693.11 289.97 693.09 305.98 693.10 321.99 C 692.59 328.58 692.36 335.25 690.76 341.69 C 689.58 347.06 690.42 352.68 688.80 357.98 C 687.60 362.05 686.95 366.24 686.42 370.44 C 679.16 408.41 665.48 445.05 646.84 478.88 C 637.96 494.03 628.95 509.17 617.98 522.92 C 611.51 531.12 605.31 539.56 598.23 547.25 C 591.71 553.39 586.44 560.70 579.67 566.59 C 574.31 570.93 569.63 576.04 564.25 580.36 C 558.74 585.54 552.37 589.66 546.70 594.65 C 528.35 608.58 508.73 620.82 488.14 631.15 C 479.37 634.96 471.05 639.73 462.13 643.21 C 436.53 653.16 410.11 661.15 383.00 665.82 C 376.50 666.45 370.15 668.12 363.64 668.58 C 354.40 669.25 345.21 670.43 335.98 671.09 C 325.99 671.16 316.00 671.01 306.01 671.12 C 288.27 670.04 270.55 668.17 253.05 665.01 C 246.88 663.28 240.39 663.09 234.37 660.81 C 221.07 658.23 208.29 653.65 195.31 649.86 C 182.27 644.58 169.11 639.56 156.48 633.33 C 148.97 630.37 142.41 625.46 134.95 622.48 C 128.60 621.26 123.90 616.63 118.64 613.26 C 108.36 607.58 98.93 600.50 89.80 593.13 C 85.95 590.03 81.60 587.52 78.31 583.78 C 76.65 581.77 74.32 580.59 71.80 580.04 C 58.47 556.12 47.98 530.62 40.34 504.33 C 40.71 503.99 41.46 503.33 41.84 503.00 C 43.39 507.30 44.19 512.12 47.42 515.58 C 50.42 518.91 53.58 522.12 56.14 525.82 C 61.25 532.97 68.15 538.52 74.03 544.99 C 80.46 552.28 88.17 558.26 95.59 564.50 C 107.94 575.74 121.99 584.88 135.82 594.17 C 149.03 601.87 162.36 609.40 176.39 615.53 C 193.72 623.75 211.98 629.76 230.47 634.77 C 236.61 637.04 243.24 637.16 249.38 639.44 C 255.06 639.98 260.57 641.29 266.08 642.71 C 279.10 643.32 291.93 646.59 305.02 645.97 C 317.69 645.84 330.37 646.02 343.04 646.04 C 352.47 645.94 361.61 643.10 371.03 642.99 C 375.89 642.93 380.34 640.56 385.18 640.29 C 391.51 639.96 397.34 637.23 403.60 636.50 C 409.64 634.38 416.07 633.68 422.02 631.26 C 436.43 626.80 450.77 621.98 464.35 615.34 C 473.12 611.70 481.22 606.70 489.77 602.60 C 497.27 598.73 504.27 593.99 511.35 589.41 C 519.52 584.48 526.73 578.16 534.90 573.22 C 531.12 573.33 527.29 573.32 523.61 572.37 C 528.87 571.58 534.29 572.46 539.45 570.90 C 552.59 569.49 566.20 565.36 575.58 555.58 C 584.49 546.68 587.89 533.37 586.17 521.09 C 586.43 520.63 586.96 519.72 587.23 519.26 C 587.50 519.66 588.04 520.45 588.31 520.85 C 607.66 498.33 622.98 472.65 636.15 446.13 C 639.16 437.99 643.61 430.45 646.00 422.07 C 655.42 397.85 661.73 372.49 665.69 346.82 C 667.43 336.96 667.59 326.90 668.84 316.97 C 669.40 305.68 668.70 294.36 669.03 283.06 C 668.64 274.04 667.21 265.09 666.76 256.07 C 661.44 216.48 649.98 177.66 632.17 141.87 C 626.85 132.48 622.65 122.45 616.36 113.63 C 609.38 102.24 601.57 91.34 593.12 81.00 Z" />
</g>
<g id="#cececbff">
<path fill="#cececb" opacity="1.00" d=" M 399.56 99.24 C 400.05 100.99 400.58 102.73 401.06 104.49 C 401.31 116.83 401.42 129.20 401.08 141.54 C 400.29 138.80 399.71 135.99 399.70 133.13 C 397.92 138.29 392.04 139.21 387.95 141.85 C 381.89 145.67 375.05 148.08 369.19 152.24 C 360.88 157.08 352.79 162.30 344.98 167.91 C 338.39 171.83 332.09 176.27 326.16 181.14 C 321.27 185.73 315.57 189.30 310.32 193.43 C 286.13 214.12 263.40 236.64 243.79 261.75 C 234.27 272.54 226.77 284.87 218.67 296.72 C 210.84 309.14 202.70 321.44 196.59 334.83 C 188.08 350.53 180.67 366.85 174.53 383.63 C 176.18 384.12 177.84 384.63 179.51 385.08 C 168.11 385.35 156.71 385.20 145.31 385.10 C 144.22 384.61 143.14 384.11 142.07 383.61 C 144.63 377.24 146.87 370.75 149.33 364.35 C 154.50 353.12 158.60 341.41 164.41 330.49 C 173.02 314.26 181.16 297.71 191.65 282.58 C 195.19 276.84 198.83 271.15 202.71 265.63 C 209.00 257.96 213.71 249.07 220.93 242.15 C 223.36 242.00 225.79 241.81 228.20 241.54 C 219.34 241.08 210.42 240.68 201.56 241.33 C 193.71 240.63 185.83 240.97 177.96 240.80 C 171.45 240.71 164.92 240.46 158.41 240.86 C 131.94 240.57 105.45 240.36 78.98 240.82 C 79.77 239.94 80.68 239.18 81.96 239.46 C 139.71 239.53 197.47 239.42 255.22 239.49 C 256.30 225.70 255.43 211.82 255.87 198.01 C 256.00 196.57 256.25 195.15 256.51 193.73 C 256.95 197.13 257.22 200.55 257.34 203.97 C 258.01 201.90 258.24 199.49 259.91 197.92 C 268.03 190.38 276.22 182.91 284.44 175.48 C 289.26 171.26 294.64 167.73 299.37 163.39 C 317.29 148.90 336.60 136.23 356.40 124.47 C 369.61 116.56 383.43 109.72 397.35 103.18 C 398.99 102.61 398.87 100.56 399.56 99.24 Z" />
</g>
<g id="#f3b700ff">
<path fill="#f3b700" opacity="1.00" d=" M 653.32 129.63 C 652.01 126.80 650.33 124.10 649.71 121.01 C 651.67 122.74 653.70 124.41 655.76 126.04 C 656.04 126.29 656.61 126.80 656.89 127.06 C 661.52 132.12 666.69 136.66 671.31 141.74 C 676.13 146.72 680.55 152.07 685.37 157.03 C 685.53 157.22 685.83 157.58 685.98 157.76 C 693.29 167.21 700.92 176.44 707.65 186.33 C 721.45 206.15 733.26 227.32 742.99 249.42 C 748.80 262.19 753.20 275.53 757.93 288.72 L 757.94 288.77 C 761.82 302.57 765.26 316.48 768.25 330.50 L 768.28 330.69 C 768.73 335.15 769.63 339.55 770.49 343.95 L 770.19 344.22 C 769.74 345.65 769.03 348.20 770.86 348.98 C 771.92 355.25 772.66 361.58 772.48 367.96 C 772.60 365.99 772.71 364.03 772.78 362.07 L 773.61 362.15 C 773.56 364.80 773.54 367.46 773.52 370.12 C 773.44 380.09 775.23 389.98 774.77 399.97 C 775.21 409.95 773.40 419.83 773.50 429.79 C 773.54 432.14 773.56 434.49 773.61 436.84 L 772.77 436.96 C 772.71 434.97 772.61 432.99 772.50 431.01 C 772.66 437.27 771.89 443.48 771.19 449.69 L 771.18 449.75 C 762.82 510.42 739.66 569.03 703.62 618.59 C 699.62 624.46 694.82 629.73 690.96 635.67 L 690.32 635.85 C 688.90 635.99 687.85 637.26 687.89 638.68 L 687.76 639.67 L 687.10 640.28 C 683.82 643.24 681.16 646.79 678.18 650.03 C 674.89 653.83 671.13 657.23 668.12 661.27 C 667.89 661.50 667.43 661.96 667.20 662.19 C 659.05 669.35 651.54 677.22 643.14 684.13 C 639.58 687.23 635.76 690.04 632.42 693.39 C 632.30 693.48 632.07 693.66 631.96 693.75 C 626.97 697.03 622.26 700.71 617.63 704.46 C 617.51 704.55 617.27 704.72 617.15 704.81 C 603.64 713.64 590.20 722.65 575.82 730.06 C 562.27 737.29 548.25 743.67 533.91 749.17 C 529.77 750.86 525.43 752.03 521.40 753.97 L 520.87 754.11 C 490.39 763.73 458.96 770.88 426.97 772.80 C 413.36 773.94 399.67 773.98 386.02 773.58 C 379.08 773.45 372.18 772.49 365.23 772.48 C 364.99 772.46 364.52 772.40 364.28 772.38 C 360.18 771.62 356.02 771.37 351.88 771.05 L 351.58 771.00 C 334.88 768.10 317.99 765.73 301.77 760.61 C 297.00 759.46 292.26 758.15 287.51 756.91 L 287.49 756.90 C 284.68 755.72 281.75 754.87 278.81 754.10 L 278.59 754.02 C 262.09 747.76 245.63 741.32 229.97 733.14 C 209.43 722.75 189.93 710.33 171.69 696.31 C 168.04 693.57 164.65 690.48 160.81 688.00 L 160.53 687.82 L 160.27 687.50 C 158.40 685.12 156.12 683.14 153.81 681.23 C 148.37 676.69 143.36 671.69 138.29 666.76 C 135.52 664.09 133.14 660.90 129.68 659.07 L 129.17 658.76 L 128.76 658.20 C 126.50 654.88 123.49 652.19 120.88 649.17 C 117.79 645.73 114.93 642.09 111.59 638.88 C 111.45 638.71 111.18 638.38 111.04 638.22 C 106.37 631.48 100.89 625.35 96.23 618.61 C 92.23 613.41 89.03 607.63 84.84 602.59 L 84.20 601.81 L 84.13 601.73 L 84.08 601.64 C 83.90 601.30 83.54 600.64 83.36 600.30 C 79.84 593.36 75.36 586.97 71.80 580.04 C 74.32 580.59 76.65 581.77 78.31 583.78 C 81.60 587.52 85.95 590.03 89.80 593.13 C 98.93 600.50 108.36 607.58 118.64 613.26 C 123.90 616.63 128.60 621.26 134.95 622.48 C 142.41 625.46 148.97 630.37 156.48 633.33 C 169.11 639.56 182.27 644.58 195.31 649.86 C 208.29 653.65 221.07 658.23 234.37 660.81 C 240.39 663.09 246.88 663.28 253.05 665.01 C 270.55 668.17 288.27 670.04 306.01 671.12 C 316.00 671.01 325.99 671.16 335.98 671.09 C 345.21 670.43 354.40 669.25 363.64 668.58 C 370.15 668.12 376.50 666.45 383.00 665.82 C 410.11 661.15 436.53 653.16 462.13 643.21 C 471.05 639.73 479.37 634.96 488.14 631.15 C 508.73 620.82 528.35 608.58 546.70 594.65 C 552.37 589.66 558.74 585.54 564.25 580.36 C 569.63 576.04 574.31 570.93 579.67 566.59 C 586.44 560.70 591.71 553.39 598.23 547.25 C 605.31 539.56 611.51 531.12 617.98 522.92 C 628.95 509.17 637.96 494.03 646.84 478.88 C 665.48 445.05 679.16 408.41 686.42 370.44 C 686.95 366.24 687.60 362.05 688.80 357.98 C 690.42 352.68 689.58 347.06 690.76 341.69 C 692.36 335.25 692.59 328.58 693.10 321.99 C 693.09 305.98 693.11 289.97 693.10 273.96 C 692.87 263.30 690.16 252.92 689.61 242.30 C 688.66 236.92 686.99 231.69 686.66 226.20 C 683.16 209.75 679.12 193.37 673.79 177.40 C 667.97 161.08 661.30 145.02 653.32 129.63 M 687.55 458.12 C 683.18 474.41 678.20 490.54 674.05 506.89 C 677.52 507.75 680.96 508.75 684.37 509.82 C 686.27 503.69 687.83 497.46 689.65 491.30 C 702.02 494.81 714.39 498.36 726.81 501.69 C 728.43 498.06 728.86 494.01 730.46 490.35 C 728.29 488.99 725.76 488.50 723.33 487.83 C 713.24 485.10 703.23 482.09 693.13 479.42 C 694.53 473.19 696.62 467.15 698.08 460.94 C 694.57 459.97 691.09 458.93 687.55 458.12 M 664.41 526.52 C 662.70 529.61 661.21 532.83 659.65 536.00 C 671.04 550.69 681.95 565.77 693.59 580.25 C 695.60 576.06 697.56 571.83 699.84 567.76 C 697.82 564.70 695.05 562.20 693.14 559.07 C 696.12 552.15 699.73 545.50 702.91 538.66 C 706.56 538.72 710.21 538.79 713.88 538.78 C 715.86 534.49 718.01 530.29 720.04 526.04 C 701.50 526.20 682.96 526.53 664.41 526.52 M 635.58 575.54 C 632.56 579.84 629.04 583.78 626.20 588.20 C 624.59 591.71 623.32 595.39 622.22 599.09 C 623.66 602.58 625.98 605.75 628.41 608.64 C 631.76 611.06 636.05 611.76 639.97 612.87 C 643.50 610.94 646.76 608.45 649.88 605.90 C 653.73 601.37 656.97 596.35 660.79 591.80 C 662.59 591.38 664.39 590.91 666.24 590.63 C 668.51 591.96 667.53 595.29 667.48 597.49 C 665.27 600.89 662.62 603.99 660.23 607.27 C 658.43 609.75 655.07 609.93 652.69 611.62 C 650.29 614.96 648.52 618.71 646.35 622.21 C 649.55 623.10 652.66 624.35 655.96 624.91 C 658.32 623.74 660.31 621.95 662.49 620.48 C 667.79 617.04 670.51 611.07 674.58 606.42 C 678.55 602.12 679.70 596.27 681.78 590.99 C 679.21 587.63 677.61 583.34 674.09 580.83 C 670.81 579.40 667.35 578.40 663.90 577.50 C 659.22 580.34 654.20 583.27 651.10 587.96 C 648.52 591.47 645.85 594.92 643.30 598.47 C 641.09 598.99 638.87 599.47 636.65 599.88 C 636.32 597.60 636.16 595.30 636.06 593.01 C 638.69 589.67 641.12 586.18 643.78 582.86 C 645.86 579.92 650.71 580.73 652.21 577.22 C 654.00 574.24 655.78 571.24 657.22 568.08 C 654.07 567.25 650.95 566.32 647.88 565.26 C 643.64 568.48 638.62 570.99 635.58 575.54 M 588.15 626.73 C 593.20 644.54 597.24 662.67 602.66 680.35 C 606.08 677.14 609.71 674.17 613.17 671.02 C 612.15 667.50 611.04 664.02 610.18 660.46 C 615.86 655.54 621.49 650.56 627.07 645.53 C 630.39 647.00 633.71 648.45 637.04 649.90 C 640.54 646.63 644.40 643.76 647.72 640.28 C 630.44 633.52 613.22 626.59 596.03 619.62 C 593.36 621.94 590.70 624.27 588.15 626.73 M 551.39 653.64 C 560.57 667.32 569.40 681.24 578.31 695.09 C 581.98 693.08 585.47 690.74 588.88 688.29 C 579.72 674.56 570.95 660.57 561.96 646.73 C 558.41 649.00 554.81 651.18 551.39 653.64 M 527.80 666.96 C 527.48 679.44 527.14 691.92 526.71 704.39 C 516.84 696.54 508.00 687.46 498.22 679.49 C 494.06 681.73 489.46 683.02 485.39 685.42 C 499.76 697.12 513.76 709.27 528.08 721.04 C 531.29 719.71 534.52 718.40 537.65 716.89 C 538.84 698.40 539.91 679.90 541.00 661.41 C 536.57 663.19 532.21 665.14 527.80 666.96 Z" />
</g>
<g id="#f7f7f6ff">
<path fill="#f7f7f6" opacity="1.00" d=" M 656.89 127.06 C 660.45 129.02 662.80 132.48 665.79 135.16 C 670.59 139.44 674.18 144.83 679.00 149.10 C 680.95 151.89 683.68 154.09 685.37 157.03 C 680.55 152.07 676.13 146.72 671.31 141.74 C 666.69 136.66 661.52 132.12 656.89 127.06 Z" />
<path fill="#f7f7f6" opacity="1.00" d=" M 401.17 240.20 C 433.25 240.03 465.35 240.56 497.42 239.94 C 507.60 240.44 517.79 240.05 527.98 240.17 C 545.11 239.99 562.27 240.57 579.39 239.87 C 580.99 239.99 582.59 240.12 584.21 240.25 C 584.29 245.84 584.27 251.44 584.26 257.03 C 572.91 256.32 561.77 258.73 550.66 260.61 C 541.10 262.78 531.32 264.02 521.91 266.82 C 515.44 269.13 508.88 271.15 502.38 273.37 C 491.14 277.74 480.18 282.79 469.45 288.29 C 459.80 292.06 451.53 298.39 442.76 303.76 C 418.83 319.54 396.81 338.51 379.00 361.04 C 375.05 364.85 371.93 369.36 368.85 373.87 C 362.87 381.40 358.14 389.80 352.72 397.72 C 340.84 419.37 329.79 441.79 323.79 465.85 C 320.07 477.55 318.05 489.68 315.59 501.67 C 313.21 520.68 310.99 539.83 312.32 559.01 C 312.55 561.55 313.25 564.12 312.77 566.69 C 304.37 567.52 295.86 566.68 287.49 568.24 C 282.43 567.24 277.27 567.00 272.13 566.81 C 271.88 553.53 272.21 540.25 272.00 526.98 C 272.35 518.67 273.88 510.47 274.39 502.18 C 276.38 489.14 278.84 476.18 282.26 463.43 C 282.87 458.10 285.59 453.38 286.53 448.13 C 288.70 440.77 291.34 433.56 294.24 426.46 C 296.89 418.15 300.91 410.39 304.37 402.40 C 309.45 392.34 314.35 382.10 320.84 372.84 C 331.09 354.48 344.58 338.16 358.48 322.45 C 363.86 315.86 370.71 310.69 376.40 304.38 C 391.90 290.01 408.82 277.21 426.47 265.60 C 431.01 263.10 435.75 260.93 440.04 257.99 C 449.54 251.70 460.39 247.88 470.27 242.31 C 462.21 241.53 454.08 242.38 446.04 241.24 C 431.03 240.75 416.00 241.23 400.98 240.87 L 401.17 240.20 Z" />
<path fill="#f7f7f6" opacity="1.00" d=" M 757.94 288.77 C 759.19 291.31 759.81 294.09 760.76 296.76 C 761.21 298.68 761.67 300.60 762.21 302.50 C 762.75 304.26 763.21 306.04 763.74 307.82 C 765.00 315.42 767.77 322.78 768.25 330.50 C 765.26 316.48 761.82 302.57 757.94 288.77 Z" />
<path fill="#f7f7f6" opacity="1.00" d=" M 278.81 754.10 C 281.75 754.87 284.68 755.72 287.49 756.90 C 284.49 756.53 281.37 755.77 278.81 754.10 Z" />
</g>
<g id="#d8d8d5ff">
<path fill="#d8d8d5" opacity="1.00" d=" M 399.70 133.13 C 399.71 135.99 400.29 138.80 401.08 141.54 C 401.59 152.92 401.13 164.32 401.44 175.71 C 401.22 177.56 401.06 179.42 400.99 181.29 C 400.63 179.59 400.20 177.92 399.81 176.24 C 398.67 177.92 397.60 179.75 395.79 180.79 C 388.55 185.24 381.04 189.25 373.90 193.88 C 361.89 202.09 349.84 210.30 338.72 219.71 C 333.88 223.90 328.21 227.09 323.97 231.96 C 313.57 241.55 303.26 251.27 293.89 261.89 C 287.24 268.28 281.71 275.67 275.58 282.53 C 263.67 298.19 251.76 313.94 242.19 331.19 C 234.82 342.01 229.26 353.89 223.55 365.63 C 221.03 371.13 218.36 376.56 216.14 382.18 C 215.14 382.66 214.14 383.15 213.14 383.64 C 214.90 384.13 216.66 384.64 218.44 385.08 C 210.09 385.41 201.74 385.01 193.40 385.32 C 188.77 385.32 184.14 385.24 179.51 385.08 C 177.84 384.63 176.18 384.12 174.53 383.63 C 180.67 366.85 188.08 350.53 196.59 334.83 C 202.70 321.44 210.84 309.14 218.67 296.72 C 226.77 284.87 234.27 272.54 243.79 261.75 C 263.40 236.64 286.13 214.12 310.32 193.43 C 315.57 189.30 321.27 185.73 326.16 181.14 C 332.09 176.27 338.39 171.83 344.98 167.91 C 352.79 162.30 360.88 157.08 369.19 152.24 C 375.05 148.08 381.89 145.67 387.95 141.85 C 392.04 139.21 397.92 138.29 399.70 133.13 Z" />
</g>
<g id="#fcd86cff">
<path fill="#fcd86c" opacity="1.00" d=" M 403.18 141.01 C 406.13 142.61 409.05 144.29 412.00 145.92 C 419.26 149.74 425.46 155.19 432.13 159.91 C 439.62 166.71 447.71 173.02 453.82 181.18 C 463.15 191.24 470.72 202.78 477.25 214.81 C 480.91 222.28 484.94 229.69 486.90 237.84 C 482.68 237.71 478.35 237.39 474.32 238.90 C 467.54 239.39 460.75 239.00 453.96 238.99 C 447.58 238.85 441.19 239.18 434.82 238.56 C 439.10 238.00 443.42 237.93 447.73 237.99 C 441.32 223.73 431.75 211.12 421.27 199.61 C 416.06 193.60 409.41 189.14 403.36 184.04 C 403.08 186.41 402.80 188.78 402.45 191.14 C 401.90 185.54 402.25 179.91 401.99 174.30 C 402.13 170.10 402.09 165.88 402.56 161.70 C 403.32 154.82 402.75 147.90 403.18 141.01 Z" />
</g>
<g id="#fedd79ff">
<path fill="#fedd79" opacity="1.00" d=" M 401.44 175.71 L 401.99 174.30 C 402.25 179.91 401.90 185.54 402.45 191.14 C 402.80 188.78 403.08 186.41 403.36 184.04 C 409.41 189.14 416.06 193.60 421.27 199.61 C 431.75 211.12 441.32 223.73 447.73 237.99 C 443.42 237.93 439.10 238.00 434.82 238.56 C 441.19 239.18 447.58 238.85 453.96 238.99 C 460.75 239.00 467.54 239.39 474.32 238.90 C 481.99 239.98 489.79 238.46 497.42 239.94 C 465.35 240.56 433.25 240.03 401.17 240.20 C 401.42 230.33 401.43 220.43 401.05 210.56 C 401.36 200.81 401.41 191.04 400.99 181.29 C 401.06 179.42 401.22 177.56 401.44 175.71 Z" />
<path fill="#fedd79" opacity="1.00" d=" M 129.68 659.07 C 133.14 660.90 135.52 664.09 138.29 666.76 C 143.36 671.69 148.37 676.69 153.81 681.23 C 156.12 683.14 158.40 685.12 160.27 687.50 C 149.06 679.27 139.29 669.13 129.68 659.07 Z" />
</g>
<g id="#e0e0deff">
<path fill="#e0e0de" opacity="1.00" d=" M 395.79 180.79 C 397.60 179.75 398.67 177.92 399.81 176.24 C 400.20 177.92 400.63 179.59 400.99 181.29 C 401.41 191.04 401.36 200.81 401.05 210.56 C 400.27 207.83 399.73 205.02 399.67 202.17 C 398.85 203.72 398.48 205.75 396.88 206.74 C 385.08 213.76 373.58 221.31 362.85 229.89 C 355.69 234.18 350.22 240.60 343.37 245.32 C 323.67 262.62 305.34 281.54 289.25 302.26 C 284.04 309.96 277.79 316.93 273.03 324.94 C 268.75 331.64 264.34 338.26 260.07 344.97 C 253.34 356.56 247.68 368.71 241.68 380.68 C 240.69 383.53 237.24 383.04 234.83 383.67 C 238.44 383.69 242.04 384.15 245.53 385.07 C 236.51 385.40 227.47 385.33 218.44 385.08 C 216.66 384.64 214.90 384.13 213.14 383.64 C 214.14 383.15 215.14 382.66 216.14 382.18 C 218.36 376.56 221.03 371.13 223.55 365.63 C 229.26 353.89 234.82 342.01 242.19 331.19 C 251.76 313.94 263.67 298.19 275.58 282.53 C 281.71 275.67 287.24 268.28 293.89 261.89 C 303.26 251.27 313.57 241.55 323.97 231.96 C 328.21 227.09 333.88 223.90 338.72 219.71 C 349.84 210.30 361.89 202.09 373.90 193.88 C 381.04 189.25 388.55 185.24 395.79 180.79 Z" />
<path fill="#e0e0de" opacity="1.00" d=" M 643.14 684.13 C 651.54 677.22 659.05 669.35 667.20 662.19 C 662.75 666.92 658.37 671.82 653.18 675.75 C 646.70 682.10 639.80 688.14 632.42 693.39 C 635.76 690.04 639.58 687.23 643.14 684.13 Z" />
</g>
<g id="#adaea9ff">
<path fill="#adaea9" opacity="1.00" d=" M 78.98 240.82 C 105.45 240.36 131.94 240.57 158.41 240.86 C 154.36 241.81 150.81 244.27 148.96 248.06 C 144.44 256.39 138.74 263.98 134.20 272.28 C 130.52 278.39 127.23 284.72 123.71 290.92 C 118.40 302.13 112.24 312.94 107.50 324.42 C 100.56 339.70 94.70 355.44 89.05 371.23 C 87.20 375.35 86.70 380.14 83.64 383.65 C 84.10 384.15 84.55 384.66 85.01 385.18 C 70.97 385.20 56.92 385.13 42.87 385.13 C 42.85 384.22 42.80 382.41 42.77 381.51 C 42.84 372.79 43.44 364.01 44.80 355.44 C 49.28 315.59 61.67 276.89 78.98 240.82 Z" />
</g>
<g id="#bbbbb7ff">
<path fill="#bbbbb7" opacity="1.00" d=" M 158.41 240.86 C 164.92 240.46 171.45 240.71 177.96 240.80 C 185.83 240.97 193.71 240.63 201.56 241.33 C 196.79 242.60 191.85 241.94 187.00 242.32 C 185.49 242.31 184.50 243.55 183.58 244.56 C 177.98 251.16 174.30 259.10 168.94 265.89 C 161.99 276.18 156.13 287.16 149.88 297.88 C 145.00 307.70 139.42 317.16 135.09 327.25 C 128.57 340.50 123.34 354.34 118.02 368.09 C 116.45 373.89 113.17 379.17 112.43 385.17 C 106.80 385.16 101.16 385.12 95.53 385.36 C 92.03 385.18 88.52 385.16 85.01 385.18 C 84.55 384.66 84.10 384.15 83.64 383.65 C 86.70 380.14 87.20 375.35 89.05 371.23 C 94.70 355.44 100.56 339.70 107.50 324.42 C 112.24 312.94 118.40 302.13 123.71 290.92 C 127.23 284.72 130.52 278.39 134.20 272.28 C 138.74 263.98 144.44 256.39 148.96 248.06 C 150.81 244.27 154.36 241.81 158.41 240.86 Z" />
</g>
<g id="#ffffffff">
<path fill="#ffffff" opacity="1.00" d=" M 550.66 260.61 C 561.77 258.73 572.91 256.32 584.26 257.03 C 584.26 299.74 584.31 342.44 584.22 385.15 C 561.60 385.26 538.97 385.16 516.34 385.32 C 494.62 384.91 472.90 385.30 451.18 385.23 C 434.54 385.13 417.91 385.27 401.27 385.24 C 401.42 417.27 400.94 449.30 401.35 481.33 C 401.08 510.48 401.34 539.63 401.16 568.78 C 363.60 568.91 326.04 568.84 288.48 568.79 L 287.49 568.24 C 295.86 566.68 304.37 567.52 312.77 566.69 C 313.25 564.12 312.55 561.55 312.32 559.01 C 310.99 539.83 313.21 520.68 315.59 501.67 C 318.05 489.68 320.07 477.55 323.79 465.85 C 329.79 441.79 340.84 419.37 352.72 397.72 C 358.14 389.80 362.87 381.40 368.85 373.87 C 371.93 369.36 375.05 364.85 379.00 361.04 C 396.81 338.51 418.83 319.54 442.76 303.76 C 451.53 298.39 459.80 292.06 469.45 288.29 C 480.18 282.79 491.14 277.74 502.38 273.37 C 508.88 271.15 515.44 269.13 521.91 266.82 C 531.32 264.02 541.10 262.78 550.66 260.61 Z" />
<path fill="#ffffff" opacity="1.00" d=" M 518.39 424.63 C 533.47 422.46 549.52 423.75 563.19 430.88 C 573.62 436.42 581.07 446.76 583.34 458.33 C 584.08 465.82 584.54 473.71 581.60 480.81 C 579.23 487.29 573.98 492.07 568.33 495.74 C 578.11 500.54 584.62 510.43 586.17 521.09 C 587.89 533.37 584.49 546.68 575.58 555.58 C 566.20 565.36 552.59 569.49 539.45 570.90 C 532.27 570.98 525.04 571.15 517.93 570.01 C 503.92 567.96 490.47 561.30 481.32 550.35 C 477.36 544.73 474.19 538.62 472.04 532.09 C 471.94 531.57 471.75 530.54 471.65 530.02 C 480.43 526.08 489.33 522.38 498.26 518.80 C 500.39 526.35 503.22 534.46 509.90 539.20 C 518.01 544.93 528.51 545.25 538.05 544.40 C 545.28 543.64 553.34 540.53 556.32 533.34 C 559.09 525.84 557.45 515.19 549.33 511.78 C 539.71 507.96 529.09 509.94 519.02 509.53 C 518.53 501.05 519.02 492.56 518.68 484.09 C 528.14 483.71 538.01 485.53 547.15 482.43 C 555.18 479.44 556.94 469.32 554.88 461.93 C 552.92 454.96 545.77 451.10 539.05 450.04 C 529.85 448.59 519.48 448.93 511.76 454.77 C 505.10 459.69 501.97 467.79 500.10 475.57 C 494.81 473.66 489.60 471.51 484.31 469.60 C 480.91 468.33 477.55 466.97 474.25 465.45 C 476.29 458.32 478.73 451.16 483.23 445.16 C 491.34 433.60 504.74 426.96 518.39 424.63 Z" />
<path fill="#ffffff" opacity="1.00" d=" M 772.50 431.01 C 772.61 432.99 772.71 434.97 772.77 436.96 C 772.72 441.21 772.42 445.63 771.19 449.69 C 771.89 443.48 772.66 437.27 772.50 431.01 Z" />
<path fill="#ffffff" opacity="1.00" d=" M 687.55 458.12 C 691.09 458.93 694.57 459.97 698.08 460.94 C 696.62 467.15 694.53 473.19 693.13 479.42 C 703.23 482.09 713.24 485.10 723.33 487.83 C 725.76 488.50 728.29 488.99 730.46 490.35 C 728.86 494.01 728.43 498.06 726.81 501.69 C 714.39 498.36 702.02 494.81 689.65 491.30 C 687.83 497.46 686.27 503.69 684.37 509.82 C 680.96 508.75 677.52 507.75 674.05 506.89 C 678.20 490.54 683.18 474.41 687.55 458.12 Z" />
<path fill="#ffffff" opacity="1.00" d=" M 664.41 526.52 C 682.96 526.53 701.50 526.20 720.04 526.04 C 718.01 530.29 715.86 534.49 713.88 538.78 C 710.21 538.79 706.56 538.72 702.91 538.66 C 699.73 545.50 696.12 552.15 693.14 559.07 C 695.05 562.20 697.82 564.70 699.84 567.76 C 697.56 571.83 695.60 576.06 693.59 580.25 C 681.95 565.77 671.04 550.69 659.65 536.00 C 661.21 532.83 662.70 529.61 664.41 526.52 M 675.80 538.07 C 678.97 542.21 682.26 546.27 685.85 550.06 C 687.58 546.14 689.75 542.42 691.17 538.38 C 686.04 538.34 680.92 538.13 675.80 538.07 Z" />
<path fill="#ffffff" opacity="1.00" d=" M 635.58 575.54 C 638.62 570.99 643.64 568.48 647.88 565.26 C 650.95 566.32 654.07 567.25 657.22 568.08 C 655.78 571.24 654.00 574.24 652.21 577.22 C 650.71 580.73 645.86 579.92 643.78 582.86 C 641.12 586.18 638.69 589.67 636.06 593.01 C 636.16 595.30 636.32 597.60 636.65 599.88 C 638.87 599.47 641.09 598.99 643.30 598.47 C 645.85 594.92 648.52 591.47 651.10 587.96 C 654.20 583.27 659.22 580.34 663.90 577.50 C 667.35 578.40 670.81 579.40 674.09 580.83 C 677.61 583.34 679.21 587.63 681.78 590.99 C 679.70 596.27 678.55 602.12 674.58 606.42 C 670.51 611.07 667.79 617.04 662.49 620.48 C 660.31 621.95 658.32 623.74 655.96 624.91 C 652.66 624.35 649.55 623.10 646.35 622.21 C 648.52 618.71 650.29 614.96 652.69 611.62 C 655.07 609.93 658.43 609.75 660.23 607.27 C 662.62 603.99 665.27 600.89 667.48 597.49 C 667.53 595.29 668.51 591.96 666.24 590.63 C 664.39 590.91 662.59 591.38 660.79 591.80 C 656.97 596.35 653.73 601.37 649.88 605.90 C 646.76 608.45 643.50 610.94 639.97 612.87 C 636.05 611.76 631.76 611.06 628.41 608.64 C 625.98 605.75 623.66 602.58 622.22 599.09 C 623.32 595.39 624.59 591.71 626.20 588.20 C 629.04 583.78 632.56 579.84 635.58 575.54 Z" />
<path fill="#ffffff" opacity="1.00" d=" M 588.15 626.73 C 590.70 624.27 593.36 621.94 596.03 619.62 C 613.22 626.59 630.44 633.52 647.72 640.28 C 644.40 643.76 640.54 646.63 637.04 649.90 C 633.71 648.45 630.39 647.00 627.07 645.53 C 621.49 650.56 615.86 655.54 610.18 660.46 C 611.04 664.02 612.15 667.50 613.17 671.02 C 609.71 674.17 606.08 677.14 602.66 680.35 C 597.24 662.67 593.20 644.54 588.15 626.73 M 602.22 634.38 C 603.50 639.53 605.22 644.56 606.83 649.62 C 610.10 646.73 613.37 643.83 616.59 640.88 C 611.79 638.72 606.98 636.60 602.22 634.38 Z" />
<path fill="#ffffff" opacity="1.00" d=" M 551.39 653.64 C 554.81 651.18 558.41 649.00 561.96 646.73 C 570.95 660.57 579.72 674.56 588.88 688.29 C 585.47 690.74 581.98 693.08 578.31 695.09 C 569.40 681.24 560.57 667.32 551.39 653.64 Z" />
<path fill="#ffffff" opacity="1.00" d=" M 527.80 666.96 C 532.21 665.14 536.57 663.19 541.00 661.41 C 539.91 679.90 538.84 698.40 537.65 716.89 C 534.52 718.40 531.29 719.71 528.08 721.04 C 513.76 709.27 499.76 697.12 485.39 685.42 C 489.46 683.02 494.06 681.73 498.22 679.49 C 508.00 687.46 516.84 696.54 526.71 704.39 C 527.14 691.92 527.48 679.44 527.80 666.96 Z" />
</g>
<g id="#f5ce5ffd">
<path fill="#f5ce5f" opacity="1.00" d=" M 770.49 343.95 C 771.26 345.50 771.16 347.31 770.86 348.98 C 769.03 348.20 769.74 345.65 770.19 344.22 L 770.49 343.95 Z" />
</g>
<g id="#f8ca48ff">
<path fill="#f8ca48" opacity="1.00" d=" M 26.15 385.20 C 31.72 385.09 37.30 385.22 42.87 385.13 C 56.92 385.13 70.97 385.20 85.01 385.18 C 88.52 385.16 92.03 385.18 95.53 385.36 C 100.64 386.43 105.88 386.10 111.05 386.52 C 105.52 387.18 99.95 386.95 94.39 387.08 C 103.55 411.21 117.14 433.54 133.66 453.32 C 136.88 457.72 140.71 461.59 144.54 465.45 C 151.73 473.63 159.79 481.08 168.63 487.47 C 181.22 497.56 194.68 506.74 209.26 513.72 C 220.95 520.05 233.32 525.05 245.99 529.07 C 248.52 530.04 251.12 530.82 253.82 531.19 C 254.27 525.58 253.32 519.86 254.79 514.36 C 255.13 515.66 255.47 516.97 255.80 518.29 C 255.82 535.09 255.95 551.91 255.95 568.72 L 255.21 568.65 C 254.48 559.08 255.47 549.46 254.45 539.91 C 253.75 548.35 254.21 556.83 253.81 565.28 C 248.90 563.65 243.96 562.16 238.94 560.94 C 210.01 552.29 182.71 538.46 158.18 520.89 C 153.95 518.24 150.48 514.61 146.56 511.56 C 134.66 503.27 125.37 492.00 115.02 481.98 C 107.13 472.80 99.61 463.30 92.53 453.47 C 87.35 445.19 82.09 436.96 77.26 428.47 C 70.64 414.98 64.34 401.29 59.44 387.06 C 63.00 387.05 66.57 386.94 70.13 386.58 C 60.32 385.80 50.43 385.81 40.61 386.18 C 35.64 385.69 30.65 385.60 25.66 385.81 L 26.15 385.20 Z" />
</g>
<g id="#f9cf54ff">
<path fill="#f9cf54" opacity="1.00" d=" M 95.53 385.36 C 101.16 385.12 106.80 385.16 112.43 385.17 C 122.13 385.29 131.83 385.04 141.53 385.38 C 145.00 386.00 148.51 386.44 152.04 386.58 C 147.64 386.81 143.25 387.02 138.85 387.16 C 146.87 404.15 157.92 419.56 170.27 433.66 C 177.67 440.29 183.85 448.23 191.89 454.17 C 198.11 458.60 204.05 463.41 210.38 467.68 C 213.67 469.80 217.25 471.45 220.51 473.64 C 227.60 478.43 235.76 481.15 243.47 484.74 C 247.11 486.51 251.20 487.28 254.66 489.41 C 255.22 491.90 255.05 494.47 255.05 497.00 C 254.90 502.79 255.49 508.59 254.79 514.36 C 253.32 519.86 254.27 525.58 253.82 531.19 C 251.12 530.82 248.52 530.04 245.99 529.07 C 233.32 525.05 220.95 520.05 209.26 513.72 C 194.68 506.74 181.22 497.56 168.63 487.47 C 159.79 481.08 151.73 473.63 144.54 465.45 C 140.71 461.59 136.88 457.72 133.66 453.32 C 117.14 433.54 103.55 411.21 94.39 387.08 C 99.95 386.95 105.52 387.18 111.05 386.52 C 105.88 386.10 100.64 386.43 95.53 385.36 Z" />
</g>
<g id="#fbd463ff">
<path fill="#fbd463" opacity="1.00" d=" M 141.53 385.38 C 142.47 385.31 144.37 385.17 145.31 385.10 C 156.71 385.20 168.11 385.35 179.51 385.08 C 184.14 385.24 188.77 385.32 193.40 385.32 C 187.11 387.53 180.43 386.72 173.92 387.35 C 178.05 395.44 184.17 402.19 189.52 409.45 C 197.64 417.67 205.20 426.60 214.74 433.28 C 219.62 436.76 224.73 439.90 229.51 443.53 C 237.26 448.34 245.48 452.34 253.74 456.21 C 253.83 452.69 253.99 449.17 254.42 445.68 C 255.23 450.54 254.79 455.51 255.72 460.36 C 255.87 479.66 256.47 498.99 255.80 518.29 C 255.47 516.97 255.13 515.66 254.79 514.36 C 255.49 508.59 254.90 502.79 255.05 497.00 C 255.05 494.47 255.22 491.90 254.66 489.41 C 251.20 487.28 247.11 486.51 243.47 484.74 C 235.76 481.15 227.60 478.43 220.51 473.64 C 217.25 471.45 213.67 469.80 210.38 467.68 C 204.05 463.41 198.11 458.60 191.89 454.17 C 183.85 448.23 177.67 440.29 170.27 433.66 C 157.92 419.56 146.87 404.15 138.85 387.16 C 143.25 387.02 147.64 386.81 152.04 386.58 C 148.51 386.44 145.00 386.00 141.53 385.38 Z" />
</g>
<g id="#fdd970ff">
<path fill="#fdd970" opacity="1.00" d=" M 193.40 385.32 C 201.74 385.01 210.09 385.41 218.44 385.08 C 227.47 385.33 236.51 385.40 245.53 385.07 C 248.97 385.29 252.41 385.26 255.86 385.34 C 255.67 401.90 255.95 418.46 255.97 435.02 C 255.99 443.47 256.43 451.93 255.72 460.36 C 254.79 455.51 255.23 450.54 254.42 445.68 C 253.99 449.17 253.83 452.69 253.74 456.21 C 245.48 452.34 237.26 448.34 229.51 443.53 C 224.73 439.90 219.62 436.76 214.74 433.28 C 205.20 426.60 197.64 417.67 189.52 409.45 C 184.17 402.19 178.05 395.44 173.92 387.35 C 180.43 386.72 187.11 387.53 193.40 385.32 Z" />
<path fill="#fdd970" opacity="1.00" d=" M 401.27 385.24 C 417.91 385.27 434.54 385.13 451.18 385.23 C 450.09 385.71 449.03 386.24 447.98 386.77 C 451.73 387.03 455.49 387.13 459.25 387.21 C 452.04 398.68 443.52 409.41 433.32 418.36 C 424.35 427.16 414.35 434.90 403.18 440.72 C 403.06 435.43 403.35 430.10 402.51 424.86 C 401.76 431.90 402.15 439.00 402.03 446.07 C 402.12 453.48 401.73 460.89 402.15 468.30 C 401.91 472.64 401.60 476.98 401.35 481.33 C 400.94 449.30 401.42 417.27 401.27 385.24 Z" />
</g>
<g id="#fbd565ff">
<path fill="#fbd565" opacity="1.00" d=" M 451.18 385.23 C 472.90 385.30 494.62 384.91 516.34 385.32 C 512.41 385.64 508.50 386.12 504.57 386.25 C 495.70 385.89 486.77 385.80 477.92 386.60 C 483.42 387.15 488.99 386.52 494.45 387.56 C 485.84 404.15 474.84 419.42 462.30 433.25 C 454.04 441.42 445.13 448.89 436.03 456.11 C 431.72 459.59 426.58 461.79 422.19 465.14 C 416.49 469.57 409.46 471.69 403.38 475.51 C 403.17 473.07 402.75 470.66 402.15 468.30 C 401.73 460.89 402.12 453.48 402.03 446.07 C 402.15 439.00 401.76 431.90 402.51 424.86 C 403.35 430.10 403.06 435.43 403.18 440.72 C 414.35 434.90 424.35 427.16 433.32 418.36 C 443.52 409.41 452.04 398.68 459.25 387.21 C 455.49 387.13 451.73 387.03 447.98 386.77 C 449.03 386.24 450.09 385.71 451.18 385.23 Z" />
</g>
<g id="#f6c129ff">
<path fill="#f6c129" opacity="1.00" d=" M 25.66 385.81 C 30.65 385.60 35.64 385.69 40.61 386.18 C 36.46 387.32 32.15 387.31 27.88 387.21 C 28.16 392.66 30.78 397.52 32.60 402.55 C 34.37 407.07 35.39 411.90 37.86 416.14 C 40.20 420.29 41.50 424.91 43.56 429.20 C 51.29 445.51 60.52 461.12 71.25 475.64 C 77.60 485.45 85.43 494.16 93.03 503.00 C 109.56 521.58 128.60 537.82 149.17 551.78 C 157.71 557.85 167.21 562.33 176.06 567.90 C 183.58 571.76 191.21 575.45 198.92 578.93 C 203.86 580.37 208.33 582.99 213.22 584.56 C 221.85 587.24 230.26 590.62 238.98 593.00 C 245.36 594.24 251.45 596.76 257.97 597.31 C 262.68 598.09 267.09 600.36 271.98 600.12 C 279.99 600.94 287.82 603.35 295.95 603.13 C 302.33 603.11 308.75 602.74 315.08 603.81 C 321.42 604.93 327.71 602.95 334.06 603.02 C 340.24 603.02 346.45 603.41 352.61 602.70 C 358.14 602.11 363.43 600.08 369.02 599.95 C 375.11 599.80 380.76 597.16 386.81 596.61 C 406.39 592.22 425.36 585.52 443.95 578.05 C 447.66 576.56 451.13 574.56 454.62 572.61 C 464.07 567.62 473.91 563.19 482.54 556.81 C 483.28 556.75 484.02 556.69 484.77 556.64 C 483.13 554.84 481.26 552.97 481.32 550.35 C 490.47 561.30 503.92 567.96 517.93 570.01 C 525.04 571.15 532.27 570.98 539.45 570.90 C 534.29 572.46 528.87 571.58 523.61 572.37 C 527.29 573.32 531.12 573.33 534.90 573.22 C 526.73 578.16 519.52 584.48 511.35 589.41 C 504.27 593.99 497.27 598.73 489.77 602.60 C 481.22 606.70 473.12 611.70 464.35 615.34 C 450.77 621.98 436.43 626.80 422.02 631.26 C 416.07 633.68 409.64 634.38 403.60 636.50 C 397.34 637.23 391.51 639.96 385.18 640.29 C 380.34 640.56 375.89 642.93 371.03 642.99 C 361.61 643.10 352.47 645.94 343.04 646.04 C 330.37 646.02 317.69 645.84 305.02 645.97 C 291.93 646.59 279.10 643.32 266.08 642.71 C 260.57 641.29 255.06 639.98 249.38 639.44 C 243.24 637.16 236.61 637.04 230.47 634.77 C 211.98 629.76 193.72 623.75 176.39 615.53 C 162.36 609.40 149.03 601.87 135.82 594.17 C 121.99 584.88 107.94 575.74 95.59 564.50 C 88.17 558.26 80.46 552.28 74.03 544.99 C 68.15 538.52 61.25 532.97 56.14 525.82 C 53.58 522.12 50.42 518.91 47.42 515.58 C 44.19 512.12 43.39 507.30 41.84 503.00 C 41.46 503.33 40.71 503.99 40.34 504.33 C 37.85 496.47 36.10 488.42 34.05 480.45 L 33.98 480.14 C 32.48 471.71 30.52 463.33 29.64 454.79 C 29.79 454.27 30.10 453.24 30.26 452.72 C 29.99 452.53 29.44 452.16 29.16 451.98 C 26.10 430.09 24.55 407.90 25.66 385.81 Z" />
</g>
<g id="#f7c53aff">
<path fill="#f7c53a" opacity="1.00" d=" M 40.61 386.18 C 50.43 385.81 60.32 385.80 70.13 386.58 C 66.57 386.94 63.00 387.05 59.44 387.06 C 64.34 401.29 70.64 414.98 77.26 428.47 C 82.09 436.96 87.35 445.19 92.53 453.47 C 99.61 463.30 107.13 472.80 115.02 481.98 C 125.37 492.00 134.66 503.27 146.56 511.56 C 150.48 514.61 153.95 518.24 158.18 520.89 C 182.71 538.46 210.01 552.29 238.94 560.94 C 243.96 562.16 248.90 563.65 253.81 565.28 C 254.21 556.83 253.75 548.35 254.45 539.91 C 255.47 549.46 254.48 559.08 255.21 568.65 L 255.95 568.72 C 266.79 569.02 277.64 568.91 288.48 568.79 C 326.04 568.84 363.60 568.91 401.16 568.78 L 401.63 568.75 C 402.03 552.14 401.05 535.47 402.45 518.90 C 402.65 520.54 402.84 522.18 402.97 523.84 C 403.24 537.57 403.00 551.30 403.26 565.03 C 413.72 560.79 424.61 557.62 434.82 552.75 C 447.41 547.94 458.49 540.15 470.33 533.86 C 470.29 532.21 470.25 530.57 470.23 528.93 C 470.85 529.96 471.45 531.02 472.04 532.09 C 474.19 538.62 477.36 544.73 481.32 550.35 C 481.26 552.97 483.13 554.84 484.77 556.64 C 484.02 556.69 483.28 556.75 482.54 556.81 C 473.91 563.19 464.07 567.62 454.62 572.61 C 451.13 574.56 447.66 576.56 443.95 578.05 C 425.36 585.52 406.39 592.22 386.81 596.61 C 380.76 597.16 375.11 599.80 369.02 599.95 C 363.43 600.08 358.14 602.11 352.61 602.70 C 346.45 603.41 340.24 603.02 334.06 603.02 C 327.71 602.95 321.42 604.93 315.08 603.81 C 308.75 602.74 302.33 603.11 295.95 603.13 C 287.82 603.35 279.99 600.94 271.98 600.12 C 267.09 600.36 262.68 598.09 257.97 597.31 C 251.45 596.76 245.36 594.24 238.98 593.00 C 230.26 590.62 221.85 587.24 213.22 584.56 C 208.33 582.99 203.86 580.37 198.92 578.93 C 191.21 575.45 183.58 571.76 176.06 567.90 C 167.21 562.33 157.71 557.85 149.17 551.78 C 128.60 537.82 109.56 521.58 93.03 503.00 C 85.43 494.16 77.60 485.45 71.25 475.64 C 60.52 461.12 51.29 445.51 43.56 429.20 C 41.50 424.91 40.20 420.29 37.86 416.14 C 35.39 411.90 34.37 407.07 32.60 402.55 C 30.78 397.52 28.16 392.66 27.88 387.21 C 32.15 387.31 36.46 387.32 40.61 386.18 Z" />
</g>
<g id="#f9cf57ff">
<path fill="#f9cf57" opacity="1.00" d=" M 477.92 386.60 C 486.77 385.80 495.70 385.89 504.57 386.25 C 514.60 387.96 524.81 386.21 534.92 387.03 C 533.53 393.00 529.83 397.98 527.52 403.58 C 524.97 409.86 520.87 415.32 517.53 421.18 C 517.85 421.69 518.17 422.20 518.50 422.71 C 517.67 423.06 516.85 423.42 516.03 423.78 C 516.62 423.99 517.80 424.42 518.39 424.63 C 504.74 426.96 491.34 433.60 483.23 445.16 C 478.73 451.16 476.29 458.32 474.25 465.45 C 477.55 466.97 480.91 468.33 484.31 469.60 C 483.75 469.72 482.62 469.95 482.06 470.07 C 483.34 470.99 484.63 471.91 485.93 472.83 C 481.65 476.25 477.58 479.92 473.59 483.66 C 464.88 490.34 456.04 496.87 446.89 502.94 C 432.77 510.91 418.39 518.66 402.97 523.84 C 402.84 522.18 402.65 520.54 402.45 518.90 C 401.05 535.47 402.03 552.14 401.63 568.75 L 401.16 568.78 C 401.34 539.63 401.08 510.48 401.35 481.33 C 401.60 476.98 401.91 472.64 402.15 468.30 C 402.75 470.66 403.17 473.07 403.38 475.51 C 409.46 471.69 416.49 469.57 422.19 465.14 C 426.58 461.79 431.72 459.59 436.03 456.11 C 445.13 448.89 454.04 441.42 462.30 433.25 C 474.84 419.42 485.84 404.15 494.45 387.56 C 488.99 386.52 483.42 387.15 477.92 386.60 Z" />
</g>
<g id="#f8c946ff">
<path fill="#f8c946" opacity="1.00" d=" M 511.76 454.77 C 519.48 448.93 529.85 448.59 539.05 450.04 C 545.77 451.10 552.92 454.96 554.88 461.93 C 556.94 469.32 555.18 479.44 547.15 482.43 C 538.01 485.53 528.14 483.71 518.68 484.09 C 517.87 484.84 517.16 485.75 517.22 486.94 C 516.66 492.58 517.48 498.28 516.74 503.92 C 516.55 506.78 513.75 508.22 511.79 509.85 C 507.88 512.61 504.32 515.83 501.01 519.29 C 500.36 519.09 499.71 518.91 499.07 518.76 L 498.26 518.80 C 489.33 522.38 480.43 526.08 471.65 530.02 C 471.75 530.54 471.94 531.57 472.04 532.09 C 471.45 531.02 470.85 529.96 470.23 528.93 C 470.25 530.57 470.29 532.21 470.33 533.86 C 458.49 540.15 447.41 547.94 434.82 552.75 C 424.61 557.62 413.72 560.79 403.26 565.03 C 403.00 551.30 403.24 537.57 402.97 523.84 C 418.39 518.66 432.77 510.91 446.89 502.94 C 456.04 496.87 464.88 490.34 473.59 483.66 C 477.58 479.92 481.65 476.25 485.93 472.83 C 484.63 471.91 483.34 470.99 482.06 470.07 C 482.62 469.95 483.75 469.72 484.31 469.60 C 489.60 471.51 494.81 473.66 500.10 475.57 C 501.97 467.79 505.10 459.69 511.76 454.77 Z" />
</g>
<g id="#f9d56dff">
<path fill="#f9d56d" opacity="1.00" d=" M 29.16 451.98 C 29.44 452.16 29.99 452.53 30.26 452.72 C 30.10 453.24 29.79 454.27 29.64 454.79 L 28.90 454.54 C 28.97 453.90 29.10 452.62 29.16 451.98 Z" />
</g>
<g id="#f6c331ff">
<path fill="#f6c331" opacity="1.00" d=" M 517.22 486.94 C 517.16 485.75 517.87 484.84 518.68 484.09 C 519.02 492.56 518.53 501.05 519.02 509.53 C 529.09 509.94 539.71 507.96 549.33 511.78 C 557.45 515.19 559.09 525.84 556.32 533.34 C 553.34 540.53 545.28 543.64 538.05 544.40 C 528.51 545.25 518.01 544.93 509.90 539.20 C 503.22 534.46 500.39 526.35 498.26 518.80 L 499.07 518.76 C 499.71 518.91 500.36 519.09 501.01 519.29 C 504.32 515.83 507.88 512.61 511.79 509.85 C 513.75 508.22 516.55 506.78 516.74 503.92 C 517.48 498.28 516.66 492.58 517.22 486.94 Z" />
</g>
<g id="#f2b600ff">
<path fill="#f2b600" opacity="1.00" d=" M 675.80 538.07 C 680.92 538.13 686.04 538.34 691.17 538.38 C 689.75 542.42 687.58 546.14 685.85 550.06 C 682.26 546.27 678.97 542.21 675.80 538.07 Z" />
</g>
<g id="#efd57cf5">
<path fill="#efd57c" opacity="0.96" d=" M 84.08 601.64 L 84.13 601.73 L 84.20 601.81 C 84.17 601.77 84.11 601.68 84.08 601.64 Z" />
</g>
<g id="#f2b500ff">
<path fill="#f2b500" opacity="1.00" d=" M 602.22 634.38 C 606.98 636.60 611.79 638.72 616.59 640.88 C 613.37 643.83 610.10 646.73 606.83 649.62 C 605.22 644.56 603.50 639.53 602.22 634.38 Z" />
</g>
</svg>
