<?xml version="1.0" encoding="utf-8"?>
<!-- Generator: Adobe Illustrator 16.2.1, SVG Export Plug-In . SVG Version: 6.00 Build 0)  -->
<!DOCTYPE svg PUBLIC "-//W3C//DTD SVG 1.1//EN" "http://www.w3.org/Graphics/SVG/1.1/DTD/svg11.dtd">
<svg version="1.1" id="Layer_1" xmlns="http://www.w3.org/2000/svg" xmlns:xlink="http://www.w3.org/1999/xlink" x="0px" y="0px"
	 width="841.89px" height="595.28px" viewBox="0 0 841.89 595.28" enable-background="new 0 0 841.89 595.28" xml:space="preserve">
<g>
	<g>
		<g>
			<radialGradient id="SVGID_1_" cx="505.5303" cy="358.8271" r="238.4012" gradientUnits="userSpaceOnUse">
				<stop  offset="0.4382" style="stop-color:#FFFFFF"/>
				<stop  offset="0.5421" style="stop-color:#F7F7F6"/>
				<stop  offset="0.7103" style="stop-color:#E1E1DE"/>
				<stop  offset="0.9206" style="stop-color:#BDBCB8"/>
				<stop  offset="1" style="stop-color:#AEADA7"/>
			</radialGradient>
			<path fill="url(#SVGID_1_)" d="M421.396,149.668c-21.283,0-41.498,4.512-59.798,12.576c0,29.721,0,64.343,0,69.556
				c-5.22,0-41.69,0-73.011,0c-9.992,19.966-15.648,42.481-15.648,66.328c0,81.989,66.467,148.461,148.457,148.461
				c81.988,0,148.464-66.472,148.464-148.461C569.86,216.134,503.384,149.668,421.396,149.668z"/>
		</g>
		<radialGradient id="SVGID_2_" cx="388.2695" cy="255.8647" r="232.6542" gradientUnits="userSpaceOnUse">
			<stop  offset="0.0225" style="stop-color:#FFEEA4"/>
			<stop  offset="0.4537" style="stop-color:#F9CB4B"/>
			<stop  offset="0.7135" style="stop-color:#F4B800"/>
			<stop  offset="1" style="stop-color:#F1AC04"/>
		</radialGradient>
		<path fill="url(#SVGID_2_)" d="M421.936,142.533c0,31.506,0,82.831,0,89.268c9.363,0,76.053,0,76.053,0v60.328
			c0,0-66.69,0-76.053,0c0,9.368,0,76.4,0,76.4h-60.338c0,0,0-67.032,0-76.4c-6.564,0-62.68,0-95.66,0
			c-0.076,1.995-0.151,3.99-0.151,6c0,85.94,69.668,155.608,155.608,155.608c85.939,0,155.617-69.668,155.617-155.608
			C577.013,212.363,507.626,142.826,421.936,142.533z"/>
		<g>
			<path fill="#FFFFFF" d="M474.537,409.307l5.496-2.355l-1.408,23.151l-3.988,1.705l-17.755-14.94l5.496-2.354l11.701,10.49
				L474.537,409.307z"/>
			<path fill="#FFFFFF" d="M499.917,418.242l-4.347,2.808l-11.209-17.358l4.347-2.807L499.917,418.242z"/>
			<path fill="#FFFFFF" d="M508.71,406.662l1.3,4.312l-4.479,3.963l-5.916-22.439l3.25-2.874l21.533,8.626l-4.479,3.964
				l-4.127-1.811L508.71,406.662z M505.388,395.744l1.961,6.335l4.085-3.612L505.388,395.744z"/>
			<path fill="#FFFFFF" d="M526.414,386.184c1.07,0.536,1.588,0.31,2.657-1.099l3.59-4.743c0.881-1.154,0.852-1.683-0.113-2.411
				l-0.493-0.373c-0.965-0.734-1.477-0.616-2.354,0.545l-4.471,5.902c-1.387,1.827-2.595,2.698-4.047,2.878
				c-1.304,0.182-2.828-0.318-4.14-1.311l-0.987-0.746c-1.309-0.989-2.175-2.309-2.381-3.629c-0.223-1.448,0.272-2.823,1.677-4.675
				l4.993-6.595c1.385-1.826,2.571-2.678,4.021-2.898c1.296-0.226,2.317,0.121,4.019,1.215l-2.631,4.499
				c-1.072-0.536-1.592-0.313-2.656,1.1l-3.594,4.736c-0.88,1.161-0.847,1.689,0.112,2.418l0.495,0.373
				c0.963,0.729,1.479,0.616,2.358-0.545l4.469-5.902c1.388-1.827,2.59-2.703,4.047-2.883c1.304-0.177,2.829,0.317,4.14,1.311
				l0.989,0.75c1.308,0.99,2.173,2.31,2.38,3.627c0.223,1.451-0.277,2.826-1.677,4.677L531.822,389
				c-1.385,1.826-2.57,2.671-4.025,2.898c-1.295,0.222-2.316-0.125-4.013-1.215L526.414,386.184z"/>
			<path fill="#FFFFFF" d="M543.143,364.457l2.846,3.488l-2.617,5.375l-14.054-18.471l1.903-3.896l23.188-0.272l-2.623,5.375
				l-4.504-0.093L543.143,364.457z M535.892,355.645l4.234,5.1l2.39-4.901L535.892,355.645z"/>
			<path fill="#FFFFFF" d="M558.679,335.653l-1.399,4.977l-15.51-4.359l-2.154,7.666l-4.386-1.231l5.706-20.282l4.383,1.235
				l-2.145,7.635L558.679,335.653z"/>
		</g>
	</g>
	<g>
		<path fill="#FFFFFF" d="M452.486,325.079l-0.131,0.559l10.705,4.092l0.172-0.733c1.651-6.854,5.693-10.188,12.368-10.188
			c3.907,0,10.485,0.977,10.485,7.499c0,4.742-2.45,6.951-7.721,6.951h-7.512v10.553h6.891c6.386,0,9.116,2.153,9.116,7.193
			c0,4.83-3.864,7.487-10.884,7.487c-9.786,0-12.041-5.007-13.52-10.131l-0.205-0.717l-11.069,4.663l0.152,0.561
			c2.897,10.529,11.974,16.565,24.869,16.565c13.826,0,22.745-7.116,22.745-18.123c0-6.082-2.72-10.724-7.664-13.247
			c4.356-2.379,6.595-6.343,6.595-11.837c0-11.135-8.395-18.052-21.903-18.052C463.526,308.174,454.963,314.338,452.486,325.079z"/>
	</g>
</g>
</svg>
