<?xml version="1.0" encoding="UTF-8" standalone="yes"?>
<svg xmlns="http://www.w3.org/2000/svg" xmlns:xlink="http://www.w3.org/1999/xlink" width="206.66666666666666px" height="106.66666666666666px" viewBox="0 0 155 80" version="1.1">
  <g id="surface1">
    <rect x="0" y="0" width="155" height="80" style="fill:rgb(84.313725%,0%,100%);fill-opacity:1;stroke:none;"/>
    <path style=" stroke:none;fill-rule:nonzero;fill:rgb(100%,100%,100%);fill-opacity:1;" d="M 22.527344 34.6875 C 22.527344 33.058594 22.046875 32.171875 21.222656 31.460938 C 20.402344 30.753906 19.320312 30.398438 17.359375 30.398438 L 15.644531 30.398438 L 15.644531 38.796875 L 17.210938 38.796875 C 19.113281 38.796875 20.277344 38.453125 21.175781 37.769531 C 22.078125 37.082031 22.527344 36.132812 22.527344 34.6875 Z M 34.578125 57.042969 L 23.894531 57.042969 L 15.644531 44.164062 L 15.644531 57.042969 L 7.027344 57.042969 L 7.027344 23.902344 L 18.355469 23.902344 C 23.726562 23.902344 25.941406 24.457031 28.113281 26.140625 C 30.285156 27.820312 31.5625 30.527344 31.5625 34.160156 C 31.5625 36.707031 30.980469 38.644531 29.722656 40.253906 C 28.464844 41.863281 26.65625 42.996094 24.257812 43.511719 Z M 34.578125 57.042969 "/>
    <path style=" stroke:none;fill-rule:nonzero;fill:rgb(100%,100%,100%);fill-opacity:1;" d="M 53.472656 45.855469 C 53.472656 44.066406 53.011719 43.175781 52.179688 42.179688 C 51.351562 41.1875 49.746094 40.621094 48.332031 40.621094 C 46.886719 40.621094 45.472656 41.214844 44.585938 42.230469 C 43.699219 43.246094 43.339844 43.992188 43.339844 45.738281 C 43.339844 47.453125 43.640625 48.144531 44.503906 49.144531 C 45.367188 50.148438 46.878906 50.917969 48.363281 50.917969 C 49.75 50.917969 51.550781 50.269531 52.394531 49.246094 C 53.238281 48.226562 53.472656 47.527344 53.472656 45.855469 Z M 61.257812 57.035156 L 53.390625 57.035156 L 53.390625 54.234375 C 52.589844 55.5625 51.585938 56.257812 50.378906 56.851562 C 49.171875 57.445312 48.214844 57.910156 46.34375 57.910156 C 43.3125 57.910156 39.847656 56.347656 37.984375 54.15625 C 36.117188 51.96875 34.953125 49.480469 34.953125 45.886719 C 34.953125 42.167969 36.554688 39.128906 38.429688 36.976562 C 40.300781 34.824219 42.828125 33.746094 46.015625 33.746094 C 47.6875 33.746094 49.289062 33.96875 50.480469 34.585938 C 51.675781 35.199219 52.535156 35.617188 53.390625 36.90625 L 53.390625 34.433594 L 61.257812 34.433594 Z M 61.257812 57.035156 "/>
    <path style=" stroke:none;fill-rule:nonzero;fill:rgb(100%,100%,100%);fill-opacity:1;" d="M 74.300781 57.089844 L 66.308594 57.089844 L 66.308594 34.488281 L 74.300781 34.488281 Z M 74.300781 57.089844 "/>
    <path style=" stroke:none;fill-rule:nonzero;fill:rgb(100%,100%,100%);fill-opacity:1;" d="M 74.78125 25.792969 C 74.78125 27.035156 74.339844 28.109375 73.457031 29.015625 C 72.574219 29.921875 71.519531 30.375 70.292969 30.375 C 69.082031 30.375 68.03125 29.917969 67.140625 29.007812 C 66.25 28.09375 65.804688 27.023438 65.804688 25.792969 C 65.804688 24.566406 66.246094 23.511719 67.128906 22.628906 C 68.011719 21.742188 69.066406 21.300781 70.292969 21.300781 C 71.535156 21.300781 72.59375 21.734375 73.46875 22.605469 C 74.34375 23.476562 74.78125 24.539062 74.78125 25.792969 Z M 74.78125 25.792969 "/>
    <path style=" stroke:none;fill-rule:nonzero;fill:rgb(100%,100%,100%);fill-opacity:1;" d="M 79.898438 3.199219 L 151.804688 3.199219 L 151.804688 76.800781 L 79.898438 76.800781 Z M 79.898438 3.199219 "/>
    <path style=" stroke:none;fill-rule:nonzero;fill:rgb(84.313725%,0%,100%);fill-opacity:1;" d="M 118.769531 44.867188 L 118.671875 22.800781 L 105.257812 44.867188 L 118.773438 44.867188 Z M 137.71875 55.359375 L 131.316406 55.359375 L 131.316406 66.675781 L 118.769531 66.675781 L 118.769531 55.359375 L 92.214844 55.359375 L 92.214844 46.222656 L 113.414062 12.171875 L 131.316406 12.171875 L 131.316406 44.851562 L 137.71875 44.851562 Z M 137.71875 55.359375 "/>
  </g>
</svg>