<?xml version="1.0" encoding="UTF-8" standalone="yes"?>
<svg xmlns="http://www.w3.org/2000/svg" xmlns:xlink="http://www.w3.org/1999/xlink" width="70.66666666666666px" height="105.33333333333333px" viewBox="0 0 53 79" version="1.1">
  <g id="surface1">
    <path style=" stroke:none;fill-rule:nonzero;fill:rgb(5.098039%,68.627451%,74.509804%);fill-opacity:1;" d="M 3.246094 66.660156 L 3.246094 77.769531 L 5.476562 77.769531 L 5.476562 73.148438 L 9.699219 73.148438 L 9.699219 71.167969 L 5.476562 71.167969 L 5.476562 68.640625 L 9.800781 68.640625 L 9.800781 66.660156 Z M 3.246094 66.660156 "/>
    <path style=" stroke:none;fill-rule:nonzero;fill:rgb(5.098039%,68.627451%,74.509804%);fill-opacity:1;" d="M 14.8125 66.660156 L 10.738281 77.769531 L 13.148438 77.769531 L 13.878906 75.449219 L 17.964844 75.449219 L 18.722656 77.769531 L 21.175781 77.769531 L 17.160156 66.660156 Z M 15.910156 69.332031 L 15.941406 69.332031 L 17.371094 73.648438 L 14.503906 73.648438 Z M 15.910156 69.332031 "/>
    <path style=" stroke:none;fill-rule:nonzero;fill:rgb(5.098039%,68.627451%,74.509804%);fill-opacity:1;" d="M 28.9375 66.660156 L 25.355469 71.878906 L 25.328125 71.878906 L 25.328125 66.660156 L 23.097656 66.660156 L 23.097656 77.769531 L 25.328125 77.769531 L 25.328125 72.320312 L 25.355469 72.320312 L 28.894531 77.769531 L 31.675781 77.769531 L 27.75 71.992188 L 31.597656 66.660156 Z M 28.9375 66.660156 "/>
    <path style=" stroke:none;fill-rule:nonzero;fill:rgb(5.098039%,68.627451%,74.509804%);fill-opacity:1;" d="M 32.800781 66.660156 L 32.800781 68.640625 L 35.742188 68.640625 L 35.742188 77.769531 L 37.972656 77.769531 L 37.972656 68.640625 L 40.914062 68.640625 L 40.914062 66.660156 Z M 32.800781 66.660156 "/>
    <path style=" stroke:none;fill-rule:nonzero;fill:rgb(5.098039%,68.627451%,74.509804%);fill-opacity:1;" d="M 45.140625 66.660156 L 41.066406 77.769531 L 43.472656 77.769531 L 44.203125 75.449219 L 48.289062 75.449219 L 49.046875 77.769531 L 51.5 77.769531 L 47.488281 66.660156 Z M 46.242188 69.332031 L 46.269531 69.332031 L 47.695312 73.648438 L 44.824219 73.648438 Z M 46.242188 69.332031 "/>
    <path style=" stroke:none;fill-rule:nonzero;fill:rgb(5.098039%,68.627451%,74.509804%);fill-opacity:1;" d="M 1.953125 9.527344 L 1.953125 56.320312 L 21.53125 64.648438 L 21.53125 1.164062 Z M 1.953125 9.527344 "/>
    <path style=" stroke:none;fill-rule:nonzero;fill:rgb(5.098039%,68.627451%,74.509804%);fill-opacity:1;" d="M 24.167969 9.476562 L 49.511719 9.476562 L 49.511719 56.40625 L 24.167969 56.40625 Z M 24.167969 9.476562 "/>
    <path style=" stroke:none;fill-rule:nonzero;fill:rgb(100%,100%,100%);fill-opacity:1;" d="M 36.210938 40.863281 L 30.996094 40.863281 L 36.210938 33.191406 Z M 44.445312 40.855469 L 41.710938 40.855469 L 41.710938 17.816406 C 41.710938 17.636719 41.597656 17.476562 41.425781 17.421875 C 41.246094 17.371094 41.058594 17.4375 40.953125 17.589844 L 24.167969 42.265625 L 24.167969 45.9375 L 36.359375 45.9375 L 36.359375 49.058594 C 36.359375 49.28125 36.546875 49.464844 36.773438 49.464844 L 41.300781 49.464844 C 41.527344 49.464844 41.710938 49.28125 41.710938 49.058594 L 41.710938 45.9375 L 44.445312 45.9375 C 44.667969 45.9375 44.859375 45.75 44.859375 45.527344 L 44.859375 41.269531 C 44.859375 41.039062 44.667969 40.855469 44.445312 40.855469 "/>
  </g>
</svg>