<?xml version="1.0" encoding="UTF-8" ?>
<!DOCTYPE svg PUBLIC "-//W3C//DTD SVG 1.1//EN" "http://www.w3.org/Graphics/SVG/1.1/DTD/svg11.dtd">
<svg width="339pt" height="87pt" viewBox="0 0 339 87" version="1.1" xmlns="http://www.w3.org/2000/svg">
<g id="#126ba2ff">
<path fill="#126ba2" opacity="1.00" d=" M 32.44 3.65 C 53.97 -2.20 77.76 13.10 82.68 34.53 C 84.69 44.31 83.90 55.05 78.74 63.78 C 73.36 73.51 64.07 81.07 53.39 84.22 C 42.72 86.84 30.68 86.00 21.30 79.90 C 11.47 73.97 3.75 64.11 1.48 52.75 C -1.03 42.38 1.22 31.04 7.03 22.15 C 12.77 13.09 22.14 6.45 32.44 3.65 M 32.53 22.49 C 33.59 24.67 35.75 26.04 37.79 27.19 C 41.92 29.67 46.82 27.55 51.18 26.83 C 47.65 25.81 43.79 25.48 40.63 23.45 C 38.14 21.60 36.20 19.14 33.94 17.03 C 33.21 18.73 31.64 20.54 32.53 22.49 M 59.79 27.79 C 55.94 31.58 54.79 37.15 53.81 42.26 C 55.93 39.85 57.75 37.21 59.69 34.66 C 62.39 31.04 66.41 28.81 70.03 26.25 C 66.63 26.64 62.88 26.07 59.79 27.79 M 41.27 49.35 C 38.33 57.61 36.53 66.28 36.11 75.04 C 39.56 72.82 43.28 71.01 47.35 70.23 C 47.24 62.61 47.29 54.92 48.80 47.42 C 50.51 40.26 53.27 33.38 57.06 27.07 C 50.38 33.32 44.46 40.68 41.27 49.35 M 7.12 34.13 C 9.30 36.54 11.44 39.21 14.56 40.42 C 19.56 42.79 25.19 42.61 30.52 43.52 C 27.15 45.18 23.37 45.37 19.69 45.66 C 25.44 48.39 32.57 49.62 38.28 46.27 C 40.60 43.19 42.32 39.71 44.67 36.66 C 46.98 33.37 50.18 30.90 53.09 28.18 C 38.22 32.15 22.64 38.78 7.12 34.13 Z" />
<path fill="#126ba2" opacity="1.00" d=" M 195.97 15.26 C 206.23 15.32 216.49 15.28 226.75 15.27 C 222.14 27.13 215.95 38.28 211.23 50.09 C 208.26 57.85 204.26 65.14 200.85 72.70 C 197.94 72.70 195.03 72.70 192.12 72.67 C 196.17 63.58 199.82 54.31 204.07 45.31 C 207.91 38.34 210.53 30.80 213.93 23.62 C 207.00 23.53 200.06 23.66 193.13 23.53 C 193.97 20.74 194.92 17.98 195.97 15.26 Z" />
</g>
<g id="#242223ff">
<path fill="#242223" opacity="1.00" d=" M 99.01 15.35 C 116.20 15.39 133.38 15.28 150.56 15.41 C 153.99 24.01 157.33 32.66 160.83 41.24 C 163.29 46.16 165.46 51.22 167.47 56.34 C 170.70 49.50 172.92 42.23 176.23 35.41 C 179.39 28.92 181.79 22.10 184.40 15.38 C 187.20 15.35 190.00 15.36 192.80 15.37 C 186.50 27.94 182.44 41.47 176.50 54.20 C 173.04 61.06 170.88 68.48 167.64 75.44 C 159.01 58.19 153.24 39.71 144.64 22.45 C 138.71 22.49 132.78 22.48 126.85 22.46 C 126.57 39.22 126.84 55.99 126.71 72.76 C 123.94 72.71 121.18 72.66 118.41 72.56 C 118.43 56.42 118.49 40.28 118.40 24.15 C 118.71 22.09 116.29 22.59 115.05 22.49 C 109.72 22.48 104.39 22.53 99.06 22.54 C 99.03 20.14 99.02 17.75 99.01 15.35 Z" />
<path fill="#242223" opacity="1.00" d=" M 238.11 29.29 C 244.17 29.52 250.51 28.59 256.34 30.65 C 262.47 33.32 264.37 41.20 261.98 47.03 C 260.46 49.70 258.17 52.02 255.37 53.33 C 251.24 54.89 246.74 53.82 242.47 54.47 C 239.65 56.15 241.32 59.44 241.86 61.88 C 240.86 62.39 239.86 62.89 238.87 63.40 C 240.96 65.73 243.76 68.05 242.83 71.56 C 241.26 71.75 239.69 71.93 238.12 72.09 C 238.18 62.55 238.12 53.00 238.22 43.46 C 237.87 38.74 237.76 34.01 238.11 29.29 M 243.47 34.34 C 243.44 38.13 243.31 41.91 243.21 45.70 C 242.17 45.48 241.12 45.27 240.08 45.06 C 240.41 46.40 240.72 47.74 241.01 49.09 C 243.01 49.82 244.94 50.70 246.84 51.67 C 250.01 49.36 254.55 49.24 257.08 46.08 C 258.30 43.12 258.38 39.24 256.53 36.52 C 253.08 33.04 247.89 32.98 243.47 34.34 Z" />
<path fill="#242223" opacity="1.00" d=" M 266.15 29.30 C 267.79 29.32 269.43 29.34 271.07 29.36 C 271.33 35.58 271.26 41.81 271.14 48.04 C 269.49 47.36 267.84 46.68 266.17 46.04 C 266.14 40.46 266.14 34.88 266.15 29.30 Z" />
<path fill="#242223" opacity="1.00" d=" M 330.20 30.35 C 331.61 29.24 333.51 31.60 331.96 32.64 C 330.56 33.72 328.64 31.38 330.20 30.35 Z" />
<path fill="#242223" opacity="1.00" d=" M 325.73 40.17 C 327.49 38.06 329.30 35.98 330.86 33.71 C 332.47 36.39 335.30 37.58 338.24 38.17 C 335.89 38.87 333.56 39.60 331.23 40.35 C 332.33 45.75 334.49 50.93 333.95 56.58 C 333.12 56.53 331.44 56.43 330.60 56.38 C 330.52 51.36 330.39 46.34 330.22 41.32 C 328.72 40.94 327.22 40.56 325.73 40.17 Z" />
<path fill="#242223" opacity="1.00" d=" M 233.41 36.12 C 233.85 36.30 234.74 36.65 235.18 36.82 C 235.36 37.27 235.71 38.18 235.89 38.63 C 235.21 38.68 233.87 38.78 233.20 38.83 C 233.25 38.15 233.35 36.80 233.41 36.12 Z" />
<path fill="#242223" opacity="1.00" d=" M 307.78 45.06 C 309.79 38.77 319.07 36.61 323.64 41.39 C 325.54 43.17 324.35 46.02 324.44 48.28 C 321.43 46.48 319.37 42.02 315.27 43.17 C 311.67 43.49 310.50 48.78 313.21 50.90 C 316.39 53.75 321.30 53.51 324.32 56.61 C 326.95 59.53 326.95 64.06 325.53 67.54 C 323.04 72.52 316.21 73.72 311.41 71.71 C 307.41 69.86 306.41 65.10 306.25 61.11 C 307.45 61.37 308.73 61.43 309.88 61.94 C 311.10 64.08 311.44 67.00 313.74 68.33 C 316.35 69.26 319.75 68.63 321.34 66.20 C 322.10 64.06 322.37 61.13 320.52 59.46 C 317.37 56.95 312.96 56.77 309.89 54.13 C 307.40 51.87 307.19 48.16 307.78 45.06 Z" />
<path fill="#242223" opacity="1.00" d=" M 275.72 40.42 C 277.32 40.48 278.92 40.55 280.52 40.62 C 281.54 49.56 278.94 58.94 282.57 67.48 C 285.80 70.26 292.13 68.42 293.66 73.00 C 288.09 73.81 281.10 73.59 278.20 67.85 C 274.57 59.21 276.00 49.56 275.72 40.42 Z" />
<path fill="#242223" opacity="1.00" d=" M 298.27 40.27 C 299.74 40.30 301.22 40.33 302.70 40.37 C 303.55 45.20 303.53 50.15 302.87 55.00 C 301.88 60.83 304.27 66.69 302.66 72.47 C 301.57 72.50 300.49 72.54 299.41 72.58 C 298.99 69.64 298.03 66.64 298.70 63.66 C 299.72 61.97 301.11 60.54 302.35 59.00 C 300.98 58.25 299.61 57.52 298.27 56.75 C 298.34 51.26 298.27 45.76 298.27 40.27 Z" />
<path fill="#242223" opacity="1.00" d=" M 266.57 57.55 C 266.04 54.06 266.19 50.52 266.35 47.00 C 267.81 47.67 269.27 48.34 270.73 49.01 C 269.78 52.04 268.53 55.02 266.57 57.55 Z" />
<path fill="#242223" opacity="1.00" d=" M 266.13 71.93 C 266.32 68.08 265.99 64.14 266.94 60.37 C 267.17 61.63 267.38 62.90 267.56 64.18 C 268.78 64.50 269.99 64.83 271.21 65.17 C 271.21 67.42 271.20 69.66 271.19 71.91 C 269.50 71.92 267.81 71.92 266.13 71.93 Z" />
<path fill="#242223" opacity="1.00" d=" M 293.60 72.82 C 292.34 69.39 295.93 68.99 298.37 69.01 C 297.16 70.72 295.49 71.97 293.60 72.82 Z" />
</g>
<g id="#ffffffff">
<path fill="#ffffff" opacity="1.00" d=" M 32.53 22.49 C 31.64 20.54 33.21 18.73 33.94 17.03 C 36.20 19.14 38.14 21.60 40.63 23.45 C 43.79 25.48 47.65 25.81 51.18 26.83 C 46.82 27.55 41.92 29.67 37.79 27.19 C 35.75 26.04 33.59 24.67 32.53 22.49 Z" />
<path fill="#ffffff" opacity="1.00" d=" M 59.79 27.79 C 62.88 26.07 66.63 26.64 70.03 26.25 C 66.41 28.81 62.39 31.04 59.69 34.66 C 57.75 37.21 55.93 39.85 53.81 42.26 C 54.79 37.15 55.94 31.58 59.79 27.79 Z" />
<path fill="#ffffff" opacity="1.00" d=" M 41.27 49.35 C 44.46 40.68 50.38 33.32 57.06 27.07 C 53.27 33.38 50.51 40.26 48.80 47.42 C 47.29 54.92 47.24 62.61 47.35 70.23 C 43.28 71.01 39.56 72.82 36.11 75.04 C 36.53 66.28 38.33 57.61 41.27 49.35 Z" />
<path fill="#ffffff" opacity="1.00" d=" M 7.12 34.13 C 22.64 38.78 38.22 32.15 53.09 28.18 C 50.18 30.90 46.98 33.37 44.67 36.66 C 42.32 39.71 40.60 43.19 38.28 46.27 C 32.57 49.62 25.44 48.39 19.69 45.66 C 23.37 45.37 27.15 45.18 30.52 43.52 C 25.19 42.61 19.56 42.79 14.56 40.42 C 11.44 39.21 9.30 36.54 7.12 34.13 Z" />
</g>
</svg>
