<?xml version="1.0" encoding="utf-8"?>
<!-- Generator: Adobe Illustrator 19.2.1, SVG Export Plug-In . SVG Version: 6.00 Build 0)  -->
<!DOCTYPE svg PUBLIC "-//W3C//DTD SVG 1.1//EN" "http://www.w3.org/Graphics/SVG/1.1/DTD/svg11.dtd">
<svg version="1.1" id="Layer_1" xmlns="http://www.w3.org/2000/svg" xmlns:xlink="http://www.w3.org/1999/xlink" x="0px" y="0px"
	 width="182.3291016px" height="153.6166992px" viewBox="0 0 182.3291016 153.6166992"
	 style="enable-background:new 0 0 182.3291016 153.6166992;" xml:space="preserve">
<style type="text/css">
	.st0{fill:#E1052D;}
</style>
<g>
	<polygon class="st0" points="124.8212967,52.2206993 123.176796,57.2142982 122.9814987,57.2142982 121.2724991,52.2206993 
		111.1288986,19.3589001 97.3907013,19.3589001 116.1455002,68.652298 129.4882965,68.652298 148.2422028,19.3589001 
		135.2276001,19.3589001 	"/>
	<polygon class="st0" points="65.535202,68.6557007 78.0904007,68.6557007 78.0904007,30.0083008 93.9628983,30.0083008 
		89.9121017,19.3607998 49.4849014,19.3607998 49.4849014,30.0083008 65.535202,30.0083008 	"/>
	<path class="st0" d="M74.1884995,97.9945984c-0.0332031-2.3641968,1.7525024-4.5586014,8.7554016-4.6561966
		c3.7021027-0.0518036,7.6205978,0.4618988,12.0659027,1.5262985l3.9247971-10.2207031
		c-5.7588043-1.259697-11.0737-1.6875-16.5229034-1.6112976c-14.3974991,0.2021027-20.0688972,7.5077972-19.952198,15.847702
		c0.2416992,17.2733994,26.446804,12.6385956,26.5492973,19.9295959c0.0430069,3.0860062-2.5868988,5.0938034-8.7494965,5.1788025
		c-5.2915039,0.0742035-10.6631012-1.6669998-15.4974976-3.8759995l-3.8379021,10.0819931
		c5.0995979,2.1533051,13.2030983,3.996109,19.347599,3.9111023c12.9072037-0.1795959,20.6006012-6.5292969,20.4628983-16.3143997
		C100.489296,100.1889038,74.2885971,105.2182007,74.1884995,97.9945984z"/>
	<polygon class="st0" points="102.6376953,94.5189972 119.199295,94.5189972 119.199295,133.1654968 131.753891,133.1654968 
		131.753891,94.5189972 147.066391,94.5189972 147.066391,83.8705978 106.6884995,83.8705978 	"/>
	<polygon class="st0" points="169.2792969,13.0497999 169.2792969,140.5668945 182.3291016,153.6166992 182.3291016,0 	"/>
	<path class="st0" d="M61.783699,83.8989029H50.2046013l-3.4985008,3.4325943
		c-3.9296989-2.8290939-9.3486023-4.2977982-16.4805012-4.2977982c-17.7490005,0-24.8490982,9.017601-24.8490982,25.4707031
		c0,6.4686966,1.1234999,11.8026962,3.5502996,15.9012985L0,133.1654968h11.5738001l2.9457998-2.8905945
		c3.8633003,2.5195007,9.0394993,3.8309937,15.7059994,3.8309937c17.7490025,0,24.8486996-8.9501953,24.8486996-25.6014938
		c0-6.0342026-0.9682999-11.0634995-3.0606003-15.0186005L61.783699,83.8989029z M17.2455997,108.4369965
		c0-11.5,3.9843998-15.089798,12.9799995-15.089798c3.5811024,0,6.3393993,0.5653992,8.3822994,1.9316025l-20.6385994,20.2528992
		C17.4853992,113.5845032,17.2455997,111.2435989,17.2455997,108.4369965z M30.2255993,123.7914963
		c-3.0991001,0-5.5897999-0.4648972-7.5415001-1.5273972l20.0640011-19.6875
		c0.3046989,1.6758041,0.4575005,3.6123047,0.4575005,5.8603973
		C43.2056007,120.0024033,39.221199,123.7914963,30.2255993,123.7914963z"/>
</g>
</svg>
