<?xml version="1.0" encoding="UTF-8" ?>
<!DOCTYPE svg PUBLIC "-//W3C//DTD SVG 1.1//EN" "http://www.w3.org/Graphics/SVG/1.1/DTD/svg11.dtd">
<svg width="500pt" height="440pt" viewBox="0 0 500 440" version="1.1" xmlns="http://www.w3.org/2000/svg">
<g id="#030304ff">
<path fill="#030304" opacity="1.00" d=" M 214.38 2.45 C 254.28 1.23 294.25 2.41 334.01 6.04 C 354.92 7.89 375.85 10.92 396.01 16.96 C 412.96 22.06 429.41 29.57 443.23 40.76 C 454.80 49.98 464.17 61.77 471.28 74.70 C 481.62 93.69 487.69 114.71 491.67 135.87 C 496.18 160.96 497.72 186.50 497.99 211.96 C 498.13 237.10 496.84 262.27 493.59 287.21 C 490.93 306.92 487.21 326.64 480.20 345.32 C 474.47 360.62 466.33 375.17 455.24 387.24 C 444.87 398.66 432.01 407.65 418.08 414.17 C 400.74 422.30 381.96 426.92 363.08 429.74 C 317.33 435.94 271.10 438.23 224.95 437.98 C 193.19 437.48 161.25 436.03 130.04 429.75 C 112.63 425.93 95.28 421.31 78.96 414.06 C 64.91 407.81 51.83 398.91 41.97 387.00 C 29.28 371.88 21.51 353.43 14.88 335.03 C 10.59 323.12 8.70 310.53 6.95 298.05 C 3.75 273.49 2.39 248.73 2.03 223.99 C 1.82 200.96 2.45 177.88 5.23 155.00 C 6.91 143.29 7.72 131.45 10.09 119.84 C 13.52 102.41 19.74 85.39 29.42 70.43 C 43.60 48.21 65.47 31.64 89.69 21.68 C 109.85 13.26 131.46 8.79 153.14 6.60 C 173.49 4.44 193.93 3.10 214.38 2.45 M 226.41 40.52 C 201.88 40.95 177.31 42.42 153.05 46.18 C 136.01 48.88 119.04 52.65 102.96 58.99 C 91.68 63.51 80.68 69.34 71.91 77.89 C 64.60 84.94 60.29 94.40 56.77 103.78 C 50.28 121.55 46.61 140.21 44.06 158.92 C 40.47 185.46 40.00 212.35 41.54 239.07 C 42.88 262.44 45.35 285.77 49.60 308.80 C 51.49 318.65 53.64 328.50 56.97 337.98 C 61.67 350.93 70.17 362.63 81.73 370.29 C 96.35 380.22 113.51 385.55 130.58 389.51 C 155.01 394.96 180.01 397.30 204.97 398.60 C 234.32 399.99 263.73 399.95 293.08 398.76 C 318.58 397.56 344.16 395.47 369.14 389.96 C 386.95 385.88 405.01 380.02 419.34 368.27 C 426.51 362.12 432.99 355.03 438.08 347.06 C 447.25 330.61 450.48 311.70 453.31 293.31 C 456.92 267.04 458.02 240.50 458.26 214.01 C 458.39 183.13 456.42 151.88 448.06 122.02 C 443.55 106.33 437.12 90.91 426.95 78.01 C 421.89 71.73 416.11 65.71 408.73 62.19 C 398.45 57.16 387.29 54.30 376.16 51.88 C 354.39 47.33 332.24 45.00 310.10 43.20 C 282.26 41.09 254.33 40.05 226.41 40.52 Z" />
<path fill="#030304" opacity="1.00" d=" M 289.93 92.11 C 303.91 91.07 317.96 89.69 331.98 90.82 C 351.43 92.33 370.65 96.04 389.61 100.55 C 395.00 102.08 400.78 103.83 404.63 108.17 C 403.62 109.74 402.06 110.77 400.23 111.10 C 393.84 112.53 387.19 112.31 380.85 114.00 C 364.34 117.88 350.05 128.31 339.15 141.05 C 335.37 145.60 333.67 151.41 331.94 156.96 C 327.87 171.49 325.73 186.48 323.92 201.43 C 348.16 201.45 372.41 201.42 396.65 201.44 C 394.94 210.75 393.24 220.07 391.51 229.38 C 367.70 229.37 343.89 229.39 320.08 229.37 C 317.34 246.62 315.04 263.98 311.10 281.01 C 305.40 299.99 290.75 314.51 275.92 326.87 C 264.73 336.72 249.91 340.78 235.66 343.89 C 215.05 348.05 193.98 349.59 172.98 349.65 C 151.10 349.40 129.38 345.22 108.55 338.67 C 104.57 337.08 99.87 336.18 96.89 332.91 C 97.22 329.91 101.65 329.90 104.04 329.13 C 117.87 327.19 131.56 323.06 143.33 315.35 C 150.77 310.34 158.42 304.92 163.04 297.03 C 169.36 286.42 172.11 274.12 173.44 261.96 C 175.08 251.10 176.78 240.25 178.39 229.38 C 153.01 229.36 127.62 229.39 102.23 229.37 C 103.93 220.06 105.65 210.75 107.36 201.44 C 132.18 201.43 157.01 201.44 181.83 201.44 C 184.07 183.30 185.52 164.69 192.53 147.62 C 199.54 130.59 213.66 117.62 228.95 107.95 C 247.48 97.43 269.03 94.21 289.93 92.11 Z" />
</g>
</svg>
