<?xml version="1.0" encoding="UTF-8" ?>
<!DOCTYPE svg PUBLIC "-//W3C//DTD SVG 1.1//EN" "http://www.w3.org/Graphics/SVG/1.1/DTD/svg11.dtd">
<svg width="363pt" height="116pt" viewBox="0 0 363 116" version="1.1" xmlns="http://www.w3.org/2000/svg">
<g id="#ffffffff">
</g>
<g id="#9d7ab8ff">
<path fill="#9d7ab8" opacity="1.00" d=" M 1.69 3.96 C 1.68 -0.29 9.04 -0.05 9.29 3.98 C 9.58 11.57 9.37 19.19 9.32 26.79 C 23.58 27.19 37.86 26.63 52.11 27.07 C 55.54 27.03 56.47 30.87 57.61 33.37 C 67.73 57.13 77.58 81.01 87.94 104.66 C 99.05 80.30 109.11 55.43 119.86 30.90 C 120.62 27.93 124.79 26.98 126.74 29.32 C 128.43 31.00 127.60 33.56 126.71 35.43 C 115.47 60.34 104.48 85.37 93.28 110.30 C 92.29 112.52 90.93 115.45 87.97 115.00 C 85.42 115.23 83.78 113.07 82.97 110.95 C 71.63 85.37 60.24 59.82 48.80 34.28 C 35.66 34.29 22.52 34.30 9.38 34.29 C 9.43 53.20 9.40 72.12 9.40 91.03 C 9.33 95.89 10.57 101.31 14.60 104.44 C 19.45 108.21 26.11 108.36 31.92 107.42 C 33.98 107.15 36.23 105.50 38.21 106.84 C 40.17 107.95 40.56 111.23 38.52 112.45 C 33.85 115.18 28.21 115.17 22.97 115.08 C 16.74 114.98 10.36 112.49 6.40 107.55 C 2.70 103.30 1.42 97.51 1.56 91.99 C 1.68 62.65 1.43 33.30 1.69 3.96 Z" />
</g>
<g id="#74448eff">
<path fill="#74448e" opacity="1.00" d=" M 148.04 30.03 C 150.55 27.16 155.19 26.53 158.40 28.60 C 160.50 29.73 161.24 32.13 162.08 34.19 C 165.94 31.98 169.62 29.30 174.05 28.29 C 183.74 25.88 194.87 26.77 203.07 32.88 C 205.64 34.62 207.36 37.27 209.72 39.25 C 220.37 25.82 241.45 23.29 255.64 32.37 C 263.74 37.77 268.52 47.36 268.82 57.00 C 269.18 69.32 268.80 81.66 269.00 93.99 C 268.74 99.35 269.56 104.81 268.41 110.11 C 267.16 115.06 260.88 116.32 256.80 114.22 C 254.01 112.50 253.03 109.05 253.15 105.95 C 253.16 90.96 253.20 75.97 253.14 60.98 C 253.21 54.30 250.62 46.92 244.38 43.68 C 238.30 40.68 230.72 40.72 224.62 43.63 C 218.51 46.52 215.36 53.47 215.45 60.00 C 215.43 75.00 215.42 90.01 215.46 105.02 C 215.42 107.40 215.49 110.00 214.02 112.02 C 211.32 116.18 204.53 116.44 201.48 112.56 C 199.97 110.75 199.71 108.30 199.66 106.04 C 199.61 90.66 199.74 75.27 199.61 59.89 C 199.55 53.16 196.36 45.86 189.82 43.15 C 182.36 40.19 172.67 40.85 166.87 46.87 C 162.83 51.16 161.89 57.34 161.91 63.02 C 161.94 77.02 161.90 91.02 161.94 105.02 C 161.89 107.27 161.97 109.68 160.74 111.67 C 158.14 116.53 150.02 116.45 147.38 111.67 C 146.34 109.98 146.23 107.95 146.20 106.02 C 146.22 84.01 146.23 61.99 146.20 39.98 C 146.23 36.62 145.79 32.85 148.04 30.03 Z" />
<path fill="#74448e" opacity="1.00" d=" M 285.30 28.30 C 289.09 26.46 294.15 28.33 295.65 32.32 C 304.04 52.36 312.26 72.49 320.60 92.55 C 320.86 92.65 321.37 92.85 321.62 92.95 C 330.10 72.67 338.55 52.38 347.09 32.14 C 348.63 27.89 354.40 26.22 358.01 28.90 C 361.50 31.04 362.40 35.89 360.52 39.40 C 350.93 61.16 341.27 82.89 331.63 104.62 C 330.48 107.11 329.58 109.78 327.89 111.97 C 324.64 116.15 317.37 116.02 314.19 111.81 C 312.96 110.24 312.20 108.38 311.38 106.58 C 301.50 84.08 291.43 61.65 281.60 39.12 C 279.42 35.25 281.18 29.99 285.30 28.30 Z" />
</g>
</svg>
