<?xml version="1.0" encoding="UTF-8" standalone="yes"?>
<svg xmlns="http://www.w3.org/2000/svg" xmlns:xlink="http://www.w3.org/1999/xlink" width="284px" height="106.66666666666666px" viewBox="0 0 213 80" version="1.1">
  <g id="surface1">
    <path style=" stroke:none;fill-rule:evenodd;fill:rgb(0%,60%,79.607843%);fill-opacity:1;" d="M 0 0.0117188 L 213 0.0117188 L 213 80.101562 L 0 80.101562 Z M 0 0.0117188 "/>
    <path style=" stroke:none;fill-rule:evenodd;fill:rgb(100%,100%,100%);fill-opacity:1;" d="M 64.425781 15.425781 L 101.214844 15.425781 L 101.214844 63.847656 L 64.425781 63.847656 Z M 103.917969 15.425781 L 140.703125 15.425781 L 140.703125 63.847656 L 103.917969 63.847656 Z M 111.886719 23.40625 L 111.886719 56.359375 L 118.523438 56.359375 L 118.523438 46.3125 L 119.949219 46.359375 C 128.949219 46.359375 133.378906 40.546875 133.378906 34.734375 C 133.378906 29.070312 129.097656 23.40625 120.589844 23.40625 Z M 118.523438 29.808594 L 120.933594 29.808594 C 124.722656 29.859375 126.640625 31.140625 126.886719 34.933594 C 126.6875 38.875 124.425781 40.105469 120.589844 40.203125 L 118.523438 40.203125 Z M 82.820312 57.394531 L 67.574219 23.011719 L 74.949219 23.011719 L 82.574219 40.402344 L 82.820312 41.433594 L 83.066406 40.402344 L 90.640625 23.011719 L 98.066406 23.011719 Z M 56.066406 29.808594 L 56.066406 23.40625 L 30.539062 23.40625 L 30.539062 29.808594 L 39.785156 29.808594 L 39.785156 56.359375 L 46.867188 56.359375 L 46.867188 29.808594 Z M 24.933594 15.425781 L 61.722656 15.425781 L 61.722656 63.847656 L 24.933594 63.847656 Z M 22.230469 13.0625 L 143.410156 13.0625 L 143.410156 66.210938 L 22.230469 66.210938 Z M 22.230469 13.0625 "/>
    <path style=" stroke:none;fill-rule:evenodd;fill:rgb(100%,100%,100%);fill-opacity:1;" d="M 184.328125 66.359375 L 184.328125 10.058594 L 161.460938 21.976562 L 161.460938 36.410156 L 171.492188 30.203125 L 170.8125 66.351562 Z M 184.328125 66.359375 "/>
  </g>
</svg>