<?xml version="1.0" encoding="UTF-8"?>
<!DOCTYPE svg PUBLIC "-//W3C//DTD SVG 1.1//EN" "http://www.w3.org/Graphics/SVG/1.1/DTD/svg11.dtd">
<!-- Creator: CorelDRAW -->
<svg xmlns="http://www.w3.org/2000/svg" xml:space="preserve" width="110mm" height="59.8mm" style="shape-rendering:geometricPrecision; text-rendering:geometricPrecision; image-rendering:optimizeQuality; fill-rule:evenodd; clip-rule:evenodd"
viewBox="0 0 110 59.8"
 xmlns:xlink="http://www.w3.org/1999/xlink">
 <defs>
  <style type="text/css">
   <![CDATA[
    .fil0 {fill:#CD3301}
    .fil1 {fill:white}
    .fil2 {fill:white;fill-rule:nonzero}
   ]]>
  </style>
 </defs>
 <g id="Warstwa_x0020_1">
  <metadata id="CorelCorpID_0Corel-Layer"/>
  <g id="_59336592">
   <rect id="_144440928" class="fil0" y="0.00015179" width="110" height="59.8"/>
   <path id="path5" class="fil1" d="M45.3488 8.1456l19.304 0 0 25.3357 -19.304 0 0 -25.3357 0 0zm20.7131 0l19.3039 0 0 25.3357 -19.3039 0 0 -25.3357 0 0zm4.1746 4.1713l0 17.264 3.4958 0 0 -5.2707 0.7541 0.0245c4.7079,0 7.0203,-3.0537 7.0203,-6.0822 -0.0006,-2.9795 -2.2393,-5.9354 -6.6989,-5.9354l-4.5713 -0.0002 0 0zm3.4904 3.3411l1.2589 0c1.9973,0.0304 2.9938,0.7065 3.1365,2.6935 -0.1236,2.062 -1.2917,2.7181 -3.3029,2.7524l-1.0925 0 0 -5.4459 0 0zm-18.726 14.4454l-7.9932 -17.992 3.8813 0 3.973 9.0991 0.1389 0.5411 0.1404 -0.5485 3.9715 -9.0917 3.8817 0 -7.9936 17.992 0 0zm-14.0216 -14.4428l0 -3.3402 -13.3805 0 0 3.3402 4.834 0 0 13.9203 3.7125 0 0 -13.9203 4.834 0 0 0zm-16.342 -7.515l19.3039 0 0 25.3357 -19.3039 0 0 -25.3357 0 0zm-1.4095 -1.2526l63.5466 0 0 27.8412 -63.5466 0.0002 0 -27.8414 0 0z"/>
   <g>
    <path id="_144442200" class="fil2" d="M85.7502 52.7814l6.605 -13.3625 0.1983 0 6.4616 13.3625 -3.2369 0 -0.8207 -1.8854 -5.2565 0 -0.839 1.8854 -3.1118 0zm4.8446 -4.1186l3.4047 0 -1.6809 -4.0607 -1.7238 4.0607z"/>
    <polygon id="_144439752" class="fil2" points="79.8512,52.7814 79.8512,39.8216 82.9447,39.8216 82.9447,52.7814 "/>
    <polygon id="_144443616" class="fil2" points="64.3205,52.7814 64.3205,39.4005 64.6164,39.4005 72.6858,46.9635 72.6858,39.8216 75.5384,39.8216 75.5384,53.2725 75.2699,53.2725 67.173,45.7126 67.173,52.7814 "/>
    <path id="_144444360" class="fil2" d="M47.9365 46.3015c0,-0.9579 0.1648,-1.8611 0.4974,-2.7031 0.3295,-0.845 0.8176,-1.5894 1.4613,-2.2393 0.6071,-0.6253 1.3118,-1.1104 2.1173,-1.4491 0.8054,-0.3386 1.6474,-0.5095 2.529,-0.5095 0.8696,0 1.7116,0.1709 2.5261,0.5095 0.8115,0.3387 1.5316,0.8268 2.1569,1.4613 0.6255,0.6347 1.1014,1.376 1.4309,2.221 0.3265,0.8481 0.4912,1.7513 0.4912,2.7092 0,0.8237 -0.1129,1.5925 -0.3386,2.3064 -0.2289,0.7139 -0.5645,1.3606 -1.0098,1.9403 -0.6255,0.839 -1.4004,1.4919 -2.3217,1.9556 -0.9183,0.4668 -1.8977,0.6986 -2.935,0.6986 -0.8755,0 -1.7145,-0.1708 -2.5168,-0.5095 -0.7994,-0.3387 -1.5102,-0.8298 -2.1295,-1.4675 -0.6376,-0.6528 -1.1257,-1.4033 -1.4583,-2.2423 -0.3325,-0.8389 -0.5004,-1.7328 -0.5004,-2.6816zm3.182 0c0,1.1257 0.3295,2.0684 0.9916,2.8281 0.662,0.7597 1.4735,1.141 2.4314,1.141 0.9642,0 1.7757,-0.3783 2.4346,-1.1349 0.659,-0.7566 0.9885,-1.7023 0.9885,-2.8342 0,-1.1441 -0.3264,-2.0959 -0.9824,-2.8526 -0.6559,-0.7565 -1.4704,-1.1349 -2.4407,-1.1349 -0.9701,0 -1.7846,0.3814 -2.4405,1.141 -0.656,0.7598 -0.9825,1.7085 -0.9825,2.8465z"/>
    <polygon id="_144447768" class="fil2" points="38.3895,52.7814 38.3895,39.8216 41.483,39.8216 41.483,50.0021 46.5322,50.0021 46.5322,52.7814 "/>
    <path id="_144444264" class="fil2" d="M22.0055 46.3015c0,-0.9579 0.1648,-1.8611 0.4974,-2.7031 0.3295,-0.845 0.8176,-1.5894 1.4613,-2.2393 0.6071,-0.6253 1.3118,-1.1104 2.1173,-1.4491 0.8054,-0.3386 1.6474,-0.5095 2.5291,-0.5095 0.8695,0 1.7115,0.1709 2.526,0.5095 0.8116,0.3387 1.5316,0.8268 2.1569,1.4613 0.6255,0.6347 1.1014,1.376 1.4309,2.221 0.3265,0.8481 0.4912,1.7513 0.4912,2.7092 0,0.8237 -0.1129,1.5925 -0.3386,2.3064 -0.2289,0.7139 -0.5645,1.3606 -1.0098,1.9403 -0.6255,0.839 -1.4004,1.4919 -2.3217,1.9556 -0.9183,0.4668 -1.8976,0.6986 -2.9349,0.6986 -0.8756,0 -1.7146,-0.1708 -2.5169,-0.5095 -0.7994,-0.3387 -1.5102,-0.8298 -2.1295,-1.4675 -0.6376,-0.6528 -1.1257,-1.4033 -1.4583,-2.2423 -0.3325,-0.8389 -0.5004,-1.7328 -0.5004,-2.6816zm3.1821 0c0,1.1257 0.3294,2.0684 0.9915,2.8281 0.662,0.7597 1.4735,1.141 2.4315,1.141 0.9641,0 1.7756,-0.3783 2.4345,-1.1349 0.659,-0.7566 0.9885,-1.7023 0.9885,-2.8342 0,-1.1441 -0.3264,-2.0959 -0.9824,-2.8526 -0.6559,-0.7565 -1.4704,-1.1349 -2.4406,-1.1349 -0.9702,0 -1.7847,0.3814 -2.4406,1.141 -0.656,0.7598 -0.9824,1.7085 -0.9824,2.8465z"/>
    <path id="_144444096" class="fil2" d="M10.9849 52.7814l0 -12.9598 3.3346 0c1.0311,0 1.8427,0.0731 2.4345,0.2196 0.5919,0.1434 1.1288,0.3936 1.6048,0.7444 0.4759,0.3508 0.8481,0.7871 1.1166,1.3149 0.2684,0.5247 0.4026,1.0861 0.4026,1.681 0,1.3027 -0.4667,2.3369 -1.3972,3.1057 -0.9336,0.7719 -2.1965,1.1563 -3.7952,1.1563l-0.3753 0c-0.1007,0 -0.177,0 -0.2319,0l0 4.7379 -3.0935 0zm3.5146 -10.5833l-0.4211 0 0 3.4596 0.5614 0c0.781,0 1.376,-0.1495 1.7878,-0.4514 0.4119,-0.3021 0.6163,-0.7354 0.6163,-1.2997 0,-0.5919 -0.2014,-1.022 -0.6072,-1.2966 -0.2013,-0.1312 -0.4637,-0.2319 -0.7871,-0.3051 -0.3203,-0.0702 -0.7047,-0.1068 -1.1501,-0.1068z"/>
   </g>
  </g>
 </g>
</svg>
