<?xml version="1.0" encoding="UTF-8" ?>
<!DOCTYPE svg PUBLIC "-//W3C//DTD SVG 1.1//EN" "http://www.w3.org/Graphics/SVG/1.1/DTD/svg11.dtd">
<svg width="427pt" height="232pt" viewBox="0 0 427 232" version="1.1" xmlns="http://www.w3.org/2000/svg">
<g id="#000002be">
<path fill="#000002" opacity="0.75" d=" M 1.10 3.88 C 1.11 2.60 1.16 0.88 2.89 0.98 C 11.91 0.60 20.96 0.98 29.99 0.81 C 31.53 0.80 34.33 0.65 34.18 2.91 C 34.36 13.95 34.19 25.00 34.24 36.04 C 34.32 39.16 33.89 42.35 34.59 45.43 C 37.89 46.72 41.56 45.90 45.02 46.09 C 60.61 46.25 76.24 45.76 91.82 46.33 C 96.42 56.01 99.57 66.37 103.73 76.27 C 102.63 77.02 101.50 77.86 100.08 77.69 C 78.28 77.74 56.47 77.64 34.67 77.74 C 34.43 79.48 34.21 81.22 34.22 82.99 C 34.30 113.01 34.20 143.03 34.26 173.06 C 34.19 184.64 44.41 194.97 55.99 195.09 C 68.66 195.23 81.33 195.14 94.00 195.12 C 95.46 195.20 97.01 194.99 98.39 195.60 C 99.25 196.84 98.86 198.50 99.00 199.92 C 98.76 208.28 99.11 216.65 98.84 225.01 C 98.94 226.99 96.39 226.71 95.09 226.79 C 81.06 226.73 67.02 226.81 52.99 226.74 C 39.68 226.64 25.96 222.18 16.50 212.51 C 8.40 204.33 3.84 193.22 2.08 181.97 C 0.84 174.71 1.14 167.33 1.11 160.00 C 1.11 107.96 1.12 55.92 1.10 3.88 Z" />
<path fill="#000002" opacity="0.75" d=" M 105.67 46.17 C 116.78 46.08 127.91 45.99 139.02 46.18 C 140.52 45.90 141.06 47.18 141.48 48.34 C 158.33 93.07 175.13 137.82 192.01 182.54 C 195.36 182.80 195.78 179.13 196.79 176.80 C 212.78 133.83 228.84 90.88 244.93 47.95 C 245.38 45.50 248.26 46.23 250.05 46.05 C 259.70 46.21 269.35 45.91 278.99 46.19 C 280.87 45.95 281.22 48.17 280.49 49.46 C 260.48 102.03 240.44 154.59 220.43 207.16 C 217.95 213.64 215.71 220.63 210.44 225.45 C 206.30 229.30 200.46 230.42 194.99 230.53 C 189.13 230.64 182.83 230.48 177.73 227.22 C 172.57 223.89 169.68 218.17 167.51 212.62 C 147.62 160.13 127.77 107.62 107.86 55.13 C 106.86 52.23 105.06 49.36 105.67 46.17 Z" />
</g>
<g id="#9d0017ff">
<path fill="#9d0017" opacity="1.00" d=" M 329.27 46.36 C 338.19 45.71 347.13 45.94 356.06 45.90 C 375.05 45.91 394.03 45.91 413.02 45.90 C 414.46 45.97 417.03 45.87 416.78 48.00 C 416.90 57.30 416.93 66.63 416.76 75.93 C 416.90 77.46 415.16 77.81 414.01 77.73 C 386.34 77.77 358.67 77.72 331.01 77.75 C 326.26 77.95 321.17 78.38 317.12 81.11 C 313.32 83.76 312.17 88.66 311.82 93.01 C 311.52 97.54 314.33 101.63 317.84 104.23 C 323.76 108.69 330.93 111.03 337.89 113.32 C 357.17 119.35 377.25 123.36 395.41 132.49 C 408.29 138.82 420.39 149.15 424.22 163.50 C 427.17 175.30 426.22 188.20 421.33 199.35 C 416.27 210.85 405.74 219.31 393.92 223.14 C 386.26 225.74 378.14 226.81 370.07 226.78 C 340.38 226.82 310.69 226.76 281.00 226.81 C 279.65 226.72 277.08 227.07 277.19 225.00 C 277.02 215.66 277.06 206.31 277.17 196.98 C 276.99 195.39 278.82 195.02 280.01 195.15 C 310.01 195.14 340.02 195.17 370.02 195.14 C 376.33 194.92 383.63 194.15 387.92 188.93 C 392.02 183.26 392.62 174.58 387.90 169.09 C 383.53 164.03 377.19 161.31 371.13 158.86 C 355.43 152.98 338.95 149.55 323.18 143.87 C 310.95 139.48 298.62 134.05 289.27 124.78 C 282.34 118.00 277.88 108.70 277.26 99.00 C 276.33 86.51 279.17 73.15 287.68 63.60 C 298.07 51.88 314.17 47.48 329.27 46.36 Z" />
</g>
</svg>
