<?xml version="1.0" encoding="UTF-8" standalone="yes"?>
<svg xmlns="http://www.w3.org/2000/svg" xmlns:xlink="http://www.w3.org/1999/xlink" width="150.66666666666666px" height="106.66666666666666px" viewBox="0 0 113 80" version="1.1">
  <defs>
    <linearGradient id="linear0" gradientUnits="userSpaceOnUse" x1="254.604" y1="420.5312" x2="254.604" y2="488.2781" gradientTransform="matrix(0.134204,0,0,0.134454,0,0)">
      <stop offset="0" style="stop-color:rgb(89.411765%,12.156863%,7.45098%);stop-opacity:1;"/>
      <stop offset="0.2027" style="stop-color:rgb(88.235294%,12.156863%,7.45098%);stop-opacity:1;"/>
      <stop offset="0.3869" style="stop-color:rgb(83.529412%,12.156863%,7.843137%);stop-opacity:1;"/>
      <stop offset="0.5638" style="stop-color:rgb(76.078431%,11.764706%,8.235294%);stop-opacity:1;"/>
      <stop offset="0.7362" style="stop-color:rgb(66.27451%,10.980392%,8.627451%);stop-opacity:1;"/>
      <stop offset="0.9039" style="stop-color:rgb(54.117647%,9.803922%,7.843137%);stop-opacity:1;"/>
      <stop offset="1" style="stop-color:rgb(46.666667%,8.627451%,7.058824%);stop-opacity:1;"/>
    </linearGradient>
    <linearGradient id="linear1" gradientUnits="userSpaceOnUse" x1="254.6353" y1="421.1475" x2="254.6353" y2="487.6326" gradientTransform="matrix(0.134204,0,0,0.134454,0,0)">
      <stop offset="0" style="stop-color:rgb(46.666667%,8.627451%,7.058824%);stop-opacity:1;"/>
      <stop offset="0.3749" style="stop-color:rgb(62.745098%,20.784314%,19.607843%);stop-opacity:1;"/>
      <stop offset="0.7961" style="stop-color:rgb(81.176471%,38.039216%,38.431373%);stop-opacity:1;"/>
      <stop offset="1" style="stop-color:rgb(88.627451%,45.882353%,47.058824%);stop-opacity:1;"/>
    </linearGradient>
    <linearGradient id="linear2" gradientUnits="userSpaceOnUse" x1="312.8608" y1="421.6338" x2="312.8608" y2="487.1331" gradientTransform="matrix(0.134204,0,0,0.134454,0,0)">
      <stop offset="0" style="stop-color:rgb(89.411765%,12.156863%,7.45098%);stop-opacity:1;"/>
      <stop offset="0.2027" style="stop-color:rgb(88.235294%,12.156863%,7.45098%);stop-opacity:1;"/>
      <stop offset="0.3869" style="stop-color:rgb(83.529412%,12.156863%,7.843137%);stop-opacity:1;"/>
      <stop offset="0.5638" style="stop-color:rgb(76.078431%,11.764706%,8.235294%);stop-opacity:1;"/>
      <stop offset="0.7362" style="stop-color:rgb(66.27451%,10.980392%,8.627451%);stop-opacity:1;"/>
      <stop offset="0.9039" style="stop-color:rgb(54.117647%,9.803922%,7.843137%);stop-opacity:1;"/>
      <stop offset="1" style="stop-color:rgb(46.666667%,8.627451%,7.058824%);stop-opacity:1;"/>
    </linearGradient>
    <linearGradient id="linear3" gradientUnits="userSpaceOnUse" x1="312.7856" y1="422.2139" x2="312.7856" y2="486.5372" gradientTransform="matrix(0.134204,0,0,0.134454,0,0)">
      <stop offset="0" style="stop-color:rgb(46.666667%,8.627451%,7.058824%);stop-opacity:1;"/>
      <stop offset="0.3749" style="stop-color:rgb(62.745098%,20.784314%,19.607843%);stop-opacity:1;"/>
      <stop offset="0.7961" style="stop-color:rgb(81.176471%,38.039216%,38.431373%);stop-opacity:1;"/>
      <stop offset="1" style="stop-color:rgb(88.627451%,45.882353%,47.058824%);stop-opacity:1;"/>
    </linearGradient>
    <linearGradient id="linear4" gradientUnits="userSpaceOnUse" x1="378.8193" y1="420.4346" x2="378.8193" y2="488.3665" gradientTransform="matrix(0.134204,0,0,0.134454,0,0)">
      <stop offset="0" style="stop-color:rgb(89.411765%,12.156863%,7.45098%);stop-opacity:1;"/>
      <stop offset="0.2027" style="stop-color:rgb(88.235294%,12.156863%,7.45098%);stop-opacity:1;"/>
      <stop offset="0.3869" style="stop-color:rgb(83.529412%,12.156863%,7.843137%);stop-opacity:1;"/>
      <stop offset="0.5638" style="stop-color:rgb(76.078431%,11.764706%,8.235294%);stop-opacity:1;"/>
      <stop offset="0.7362" style="stop-color:rgb(66.27451%,10.980392%,8.627451%);stop-opacity:1;"/>
      <stop offset="0.9039" style="stop-color:rgb(54.117647%,9.803922%,7.843137%);stop-opacity:1;"/>
      <stop offset="1" style="stop-color:rgb(46.666667%,8.627451%,7.058824%);stop-opacity:1;"/>
    </linearGradient>
    <linearGradient id="linear5" gradientUnits="userSpaceOnUse" x1="378.8428" y1="421.1895" x2="378.8428" y2="486.6562" gradientTransform="matrix(0.134204,0,0,0.134454,0,0)">
      <stop offset="0" style="stop-color:rgb(46.666667%,8.627451%,7.058824%);stop-opacity:1;"/>
      <stop offset="0.3749" style="stop-color:rgb(62.745098%,20.784314%,19.607843%);stop-opacity:1;"/>
      <stop offset="0.7961" style="stop-color:rgb(81.176471%,38.039216%,38.431373%);stop-opacity:1;"/>
      <stop offset="1" style="stop-color:rgb(88.627451%,45.882353%,47.058824%);stop-opacity:1;"/>
    </linearGradient>
    <linearGradient id="linear6" gradientUnits="userSpaceOnUse" x1="443.0879" y1="421.6338" x2="443.0879" y2="487.1331" gradientTransform="matrix(0.134204,0,0,0.134454,0,0)">
      <stop offset="0" style="stop-color:rgb(89.411765%,12.156863%,7.45098%);stop-opacity:1;"/>
      <stop offset="0.2027" style="stop-color:rgb(88.235294%,12.156863%,7.45098%);stop-opacity:1;"/>
      <stop offset="0.3869" style="stop-color:rgb(83.529412%,12.156863%,7.843137%);stop-opacity:1;"/>
      <stop offset="0.5638" style="stop-color:rgb(76.078431%,11.764706%,8.235294%);stop-opacity:1;"/>
      <stop offset="0.7362" style="stop-color:rgb(66.27451%,10.980392%,8.627451%);stop-opacity:1;"/>
      <stop offset="0.9039" style="stop-color:rgb(54.117647%,9.803922%,7.843137%);stop-opacity:1;"/>
      <stop offset="1" style="stop-color:rgb(46.666667%,8.627451%,7.058824%);stop-opacity:1;"/>
    </linearGradient>
    <linearGradient id="linear7" gradientUnits="userSpaceOnUse" x1="443.0068" y1="422.2139" x2="443.0068" y2="486.5372" gradientTransform="matrix(0.134204,0,0,0.134454,0,0)">
      <stop offset="0" style="stop-color:rgb(46.666667%,8.627451%,7.058824%);stop-opacity:1;"/>
      <stop offset="0.3749" style="stop-color:rgb(62.745098%,20.784314%,19.607843%);stop-opacity:1;"/>
      <stop offset="0.7961" style="stop-color:rgb(81.176471%,38.039216%,38.431373%);stop-opacity:1;"/>
      <stop offset="1" style="stop-color:rgb(88.627451%,45.882353%,47.058824%);stop-opacity:1;"/>
    </linearGradient>
    <linearGradient id="linear8" gradientUnits="userSpaceOnUse" x1="509.5811" y1="421.6338" x2="509.5811" y2="487.1331" gradientTransform="matrix(0.134204,0,0,0.134454,0,0)">
      <stop offset="0" style="stop-color:rgb(89.411765%,12.156863%,7.45098%);stop-opacity:1;"/>
      <stop offset="0.2027" style="stop-color:rgb(88.235294%,12.156863%,7.45098%);stop-opacity:1;"/>
      <stop offset="0.3869" style="stop-color:rgb(83.529412%,12.156863%,7.843137%);stop-opacity:1;"/>
      <stop offset="0.5638" style="stop-color:rgb(76.078431%,11.764706%,8.235294%);stop-opacity:1;"/>
      <stop offset="0.7362" style="stop-color:rgb(66.27451%,10.980392%,8.627451%);stop-opacity:1;"/>
      <stop offset="0.9039" style="stop-color:rgb(54.117647%,9.803922%,7.843137%);stop-opacity:1;"/>
      <stop offset="1" style="stop-color:rgb(46.666667%,8.627451%,7.058824%);stop-opacity:1;"/>
    </linearGradient>
    <linearGradient id="linear9" gradientUnits="userSpaceOnUse" x1="-540.5347" y1="-242.1035" x2="-539.897" y2="-242.1035" gradientTransform="matrix(0,22.37838,-22.336852,0,-5330.593824,12150)">
      <stop offset="0" style="stop-color:rgb(89.411765%,12.156863%,7.45098%);stop-opacity:1;"/>
      <stop offset="0.2033" style="stop-color:rgb(88.235294%,12.156863%,7.45098%);stop-opacity:1;"/>
      <stop offset="0.3874" style="stop-color:rgb(83.529412%,12.156863%,7.843137%);stop-opacity:1;"/>
      <stop offset="0.564" style="stop-color:rgb(76.078431%,11.764706%,8.235294%);stop-opacity:1;"/>
      <stop offset="0.7359" style="stop-color:rgb(66.27451%,10.980392%,8.627451%);stop-opacity:1;"/>
      <stop offset="0.9031" style="stop-color:rgb(54.509804%,9.803922%,7.843137%);stop-opacity:1;"/>
      <stop offset="1" style="stop-color:rgb(46.666667%,8.627451%,7.058824%);stop-opacity:1;"/>
    </linearGradient>
    <linearGradient id="linear10" gradientUnits="userSpaceOnUse" x1="574.8926" y1="400.9287" x2="574.8926" y2="503.2232" gradientTransform="matrix(0.134204,0,0,0.134454,0,0)">
      <stop offset="0.0103" style="stop-color:rgb(46.666667%,8.627451%,7.058824%);stop-opacity:1;"/>
      <stop offset="0.1351" style="stop-color:rgb(61.568627%,20.784314%,19.215686%);stop-opacity:1;"/>
      <stop offset="0.3151" style="stop-color:rgb(84.313725%,43.921569%,43.529412%);stop-opacity:1;"/>
      <stop offset="0.3988" style="stop-color:rgb(94.117647%,54.901961%,55.686275%);stop-opacity:1;"/>
      <stop offset="0.5153" style="stop-color:rgb(94.117647%,54.901961%,55.686275%);stop-opacity:1;"/>
      <stop offset="0.6503" style="stop-color:rgb(94.117647%,54.901961%,55.686275%);stop-opacity:1;"/>
      <stop offset="0.7967" style="stop-color:rgb(91.764706%,39.607843%,38.039216%);stop-opacity:1;"/>
      <stop offset="1" style="stop-color:rgb(88.627451%,17.647059%,17.647059%);stop-opacity:1;"/>
    </linearGradient>
    <linearGradient id="linear11" gradientUnits="userSpaceOnUse" x1="321.3154" y1="117.8472" x2="471.5462" y2="96.441" gradientTransform="matrix(0.135506,0,0,0.135758,0.706143,1.754528)">
      <stop offset="0" style="stop-color:rgb(47.45098%,8.627451%,7.45098%);stop-opacity:0.541176;"/>
      <stop offset="0.9916" style="stop-color:rgb(27.058824%,28.235294%,34.509804%);stop-opacity:0;"/>
    </linearGradient>
    <linearGradient id="linear12" gradientUnits="userSpaceOnUse" x1="234.3623" y1="200.8809" x2="382.7995" y2="263.5237" gradientTransform="matrix(0.134204,0,0,0.134454,0,0)">
      <stop offset="0" style="stop-color:rgb(27.058824%,28.235294%,34.509804%);stop-opacity:1;"/>
      <stop offset="0.3291" style="stop-color:rgb(0%,0%,0%);stop-opacity:1;"/>
      <stop offset="0.4188" style="stop-color:rgb(2.745098%,0.784314%,0%);stop-opacity:1;"/>
      <stop offset="0.5726" style="stop-color:rgb(11.764706%,4.705882%,1.568627%);stop-opacity:1;"/>
      <stop offset="0.7717" style="stop-color:rgb(25.882353%,8.627451%,5.490196%);stop-opacity:1;"/>
      <stop offset="1" style="stop-color:rgb(46.666667%,8.627451%,7.058824%);stop-opacity:1;"/>
    </linearGradient>
    <linearGradient id="linear13" gradientUnits="userSpaceOnUse" x1="296.936" y1="173.311" x2="381.5093" y2="192.8363" gradientTransform="matrix(0.134204,0,0,0.134454,0,0)">
      <stop offset="0" style="stop-color:rgb(46.666667%,54.509804%,77.647059%);stop-opacity:0.329412;"/>
      <stop offset="0.5751" style="stop-color:rgb(20.784314%,20%,25.098039%);stop-opacity:0.137255;"/>
      <stop offset="0.9873" style="stop-color:rgb(0%,0%,0%);stop-opacity:0;"/>
    </linearGradient>
    <linearGradient id="linear14" gradientUnits="userSpaceOnUse" x1="504.4941" y1="140.043" x2="440.3192" y2="275.5696" gradientTransform="matrix(0.134204,0,0,0.134454,0,0)">
      <stop offset="0" style="stop-color:rgb(47.058824%,54.901961%,77.647059%);stop-opacity:0.290196;"/>
      <stop offset="0.5751" style="stop-color:rgb(20.784314%,20.392157%,25.098039%);stop-opacity:0.121569;"/>
      <stop offset="0.9873" style="stop-color:rgb(0%,0%,0%);stop-opacity:0;"/>
    </linearGradient>
    <linearGradient id="linear15" gradientUnits="userSpaceOnUse" x1="443.1387" y1="379.8418" x2="488.2002" y2="231.9669" gradientTransform="matrix(0.134204,0,0,0.134454,0,0)">
      <stop offset="0" style="stop-color:rgb(62.745098%,9.803922%,9.411765%);stop-opacity:1;"/>
      <stop offset="0.1814" style="stop-color:rgb(46.666667%,8.627451%,7.058824%);stop-opacity:1;"/>
      <stop offset="0.4119" style="stop-color:rgb(29.411765%,9.411765%,6.27451%);stop-opacity:1;"/>
      <stop offset="0.6753" style="stop-color:rgb(13.333333%,5.490196%,2.352941%);stop-opacity:1;"/>
      <stop offset="0.8756" style="stop-color:rgb(3.137255%,1.176471%,0%);stop-opacity:1;"/>
      <stop offset="0.9873" style="stop-color:rgb(0%,0%,0%);stop-opacity:1;"/>
    </linearGradient>
    <linearGradient id="linear16" gradientUnits="userSpaceOnUse" x1="312.6099" y1="239.2837" x2="361.4647" y2="324.5891" gradientTransform="matrix(0.134204,0,0,0.134454,0,0)">
      <stop offset="0.0127" style="stop-color:rgb(46.666667%,8.627451%,7.058824%);stop-opacity:1;"/>
      <stop offset="0.3834" style="stop-color:rgb(45.882353%,8.627451%,7.058824%);stop-opacity:1;"/>
      <stop offset="0.5355" style="stop-color:rgb(43.137255%,9.019608%,7.058824%);stop-opacity:1;"/>
      <stop offset="0.6475" style="stop-color:rgb(38.823529%,9.411765%,7.058824%);stop-opacity:1;"/>
      <stop offset="0.7399" style="stop-color:rgb(32.941176%,9.411765%,6.666667%);stop-opacity:1;"/>
      <stop offset="0.8202" style="stop-color:rgb(25.098039%,8.627451%,5.490196%);stop-opacity:1;"/>
      <stop offset="0.892" style="stop-color:rgb(16.078431%,6.666667%,3.137255%);stop-opacity:1;"/>
      <stop offset="0.9561" style="stop-color:rgb(5.882353%,1.568627%,0%);stop-opacity:1;"/>
      <stop offset="0.9873" style="stop-color:rgb(0%,0%,0%);stop-opacity:1;"/>
    </linearGradient>
    <linearGradient id="linear17" gradientUnits="userSpaceOnUse" x1="525.3877" y1="133.1567" x2="453.9551" y2="133.1567" gradientTransform="matrix(0.134204,0,0,0.134454,0,0)">
      <stop offset="0.0127" style="stop-color:rgb(46.666667%,8.627451%,7.058824%);stop-opacity:1;"/>
      <stop offset="0.1396" style="stop-color:rgb(43.921569%,9.019608%,7.058824%);stop-opacity:1;"/>
      <stop offset="0.3305" style="stop-color:rgb(36.470588%,9.411765%,6.666667%);stop-opacity:1;"/>
      <stop offset="0.5616" style="stop-color:rgb(25.098039%,8.627451%,5.490196%);stop-opacity:1;"/>
      <stop offset="0.8218" style="stop-color:rgb(10.588235%,3.921569%,1.176471%);stop-opacity:1;"/>
      <stop offset="0.9873" style="stop-color:rgb(0%,0%,0%);stop-opacity:1;"/>
    </linearGradient>
    <linearGradient id="linear18" gradientUnits="userSpaceOnUse" x1="504.4941" y1="140.043" x2="440.3192" y2="275.5696" gradientTransform="matrix(0.134204,0,0,0.134454,0,0)">
      <stop offset="0" style="stop-color:rgb(46.666667%,54.509804%,77.647059%);stop-opacity:0.0313725;"/>
      <stop offset="0.5751" style="stop-color:rgb(20.784314%,20%,25.098039%);stop-opacity:0.0117647;"/>
      <stop offset="0.9873" style="stop-color:rgb(0%,0%,0%);stop-opacity:0;"/>
    </linearGradient>
    <radialGradient id="radial0" gradientUnits="userSpaceOnUse" cx="415.8672" cy="112.2246" fx="415.8672" fy="112.2246" r="183.4096" gradientTransform="matrix(0.135506,0,0,0.0858622,0.706143,7.353371)">
      <stop offset="0" style="stop-color:rgb(27.058824%,28.235294%,34.509804%);stop-opacity:1;"/>
      <stop offset="0.891" style="stop-color:rgb(3.921569%,1.960784%,0.392157%);stop-opacity:1;"/>
      <stop offset="1" style="stop-color:rgb(0%,0%,0%);stop-opacity:1;"/>
    </radialGradient>
    <radialGradient id="radial1" gradientUnits="userSpaceOnUse" cx="351.6426" cy="288.6074" fx="351.6426" fy="288.6074" r="164.8924" gradientTransform="matrix(0.125763,0.0505546,-0.018386,0.045916,9.439862,9.907455)">
      <stop offset="0.0127" style="stop-color:rgb(46.666667%,8.627451%,7.058824%);stop-opacity:1;"/>
      <stop offset="0.1302" style="stop-color:rgb(36.078431%,9.411765%,6.666667%);stop-opacity:1;"/>
      <stop offset="0.3146" style="stop-color:rgb(22.745098%,8.235294%,5.098039%);stop-opacity:1;"/>
      <stop offset="0.4963" style="stop-color:rgb(12.941176%,5.098039%,1.960784%);stop-opacity:1;"/>
      <stop offset="0.6718" style="stop-color:rgb(5.490196%,1.568627%,0%);stop-opacity:1;"/>
      <stop offset="0.8386" style="stop-color:rgb(0.784314%,0.392157%,0%);stop-opacity:1;"/>
      <stop offset="0.9873" style="stop-color:rgb(0%,0%,0%);stop-opacity:1;"/>
    </radialGradient>
    <radialGradient id="radial2" gradientUnits="userSpaceOnUse" cx="367.4756" cy="318.0127" fx="367.4756" fy="318.0127" r="139.9828" gradientTransform="matrix(0.127252,0.0466689,-0.0222108,0.0607866,10.805323,8.445378)">
      <stop offset="0.0127" style="stop-color:rgb(46.666667%,8.627451%,7.058824%);stop-opacity:0.85098;"/>
      <stop offset="0.4293" style="stop-color:rgb(23.529412%,8.235294%,5.098039%);stop-opacity:0.913725;"/>
      <stop offset="0.8053" style="stop-color:rgb(6.666667%,1.960784%,0%);stop-opacity:0.972549;"/>
      <stop offset="0.9873" style="stop-color:rgb(0%,0%,0%);stop-opacity:1;"/>
    </radialGradient>
  </defs>
  <g id="surface1">
    <path style=" stroke:none;fill-rule:nonzero;fill:url(#linear0);" d="M 29.988281 63.8125 L 31.46875 62.277344 C 32.277344 63.027344 33.121094 63.40625 34.03125 63.40625 C 34.578125 63.40625 34.96875 63.167969 34.96875 62.789062 C 34.96875 62.46875 34.742188 62.304688 33.582031 61.851562 C 32.265625 61.351562 31.425781 60.78125 31.425781 59.558594 C 31.425781 57.910156 32.917969 56.730469 34.945312 56.730469 C 36.402344 56.730469 37.554688 57.207031 38.347656 57.96875 L 36.925781 59.558594 C 36.296875 59.011719 35.574219 58.644531 34.730469 58.644531 C 34.175781 58.644531 33.832031 58.90625 33.832031 59.238281 C 33.832031 59.570312 34.078125 59.691406 35.21875 60.140625 C 36.496094 60.628906 37.375 61.210938 37.375 62.457031 C 37.375 64.167969 35.90625 65.332031 33.84375 65.332031 C 32.21875 65.332031 30.878906 64.773438 29.988281 63.8125 Z M 29.988281 63.8125 "/>
    <path style=" stroke:none;fill-rule:nonzero;fill:url(#linear1);" d="M 29.992188 63.8125 L 30.054688 63.875 L 31.539062 62.339844 L 31.472656 62.277344 L 31.414062 62.34375 C 32.230469 63.101562 33.097656 63.496094 34.035156 63.496094 C 34.320312 63.496094 34.570312 63.433594 34.757812 63.316406 C 34.851562 63.257812 34.925781 63.179688 34.980469 63.09375 C 35.035156 63.003906 35.0625 62.898438 35.0625 62.789062 C 35.0625 62.699219 35.042969 62.609375 34.996094 62.527344 C 34.921875 62.402344 34.792969 62.300781 34.578125 62.183594 C 34.359375 62.066406 34.054688 61.9375 33.617188 61.769531 C 32.960938 61.519531 32.433594 61.253906 32.074219 60.914062 C 31.714844 60.566406 31.519531 60.152344 31.515625 59.558594 C 31.515625 58.761719 31.875 58.082031 32.484375 57.597656 C 33.089844 57.109375 33.953125 56.820312 34.949219 56.820312 C 36.390625 56.820312 37.511719 57.289062 38.289062 58.03125 L 38.351562 57.96875 L 38.285156 57.910156 L 36.863281 59.5 L 36.929688 59.558594 L 36.988281 59.492188 C 36.347656 58.9375 35.605469 58.554688 34.734375 58.554688 C 34.441406 58.554688 34.203125 58.621094 34.023438 58.742188 C 33.851562 58.863281 33.746094 59.039062 33.746094 59.238281 C 33.746094 59.332031 33.765625 59.421875 33.816406 59.503906 C 33.894531 59.625 34.027344 59.71875 34.242188 59.824219 C 34.457031 59.929688 34.761719 60.054688 35.1875 60.222656 L 35.191406 60.222656 C 35.824219 60.464844 36.355469 60.730469 36.71875 61.078125 C 37.082031 61.429688 37.289062 61.855469 37.289062 62.457031 C 37.289062 63.285156 36.9375 63.976562 36.332031 64.46875 C 35.726562 64.957031 34.859375 65.242188 33.847656 65.242188 C 32.242188 65.242188 30.929688 64.691406 30.058594 63.75 L 29.992188 63.8125 L 30.054688 63.875 L 29.992188 63.8125 L 29.925781 63.871094 C 30.835938 64.855469 32.203125 65.421875 33.847656 65.421875 C 34.894531 65.421875 35.796875 65.125 36.441406 64.605469 C 37.085938 64.085938 37.46875 63.335938 37.46875 62.457031 C 37.46875 61.8125 37.238281 61.324219 36.839844 60.949219 C 36.445312 60.574219 35.898438 60.304688 35.253906 60.058594 L 35.222656 60.140625 L 35.253906 60.058594 C 34.6875 59.832031 34.339844 59.691406 34.148438 59.570312 C 34.054688 59.507812 33.996094 59.457031 33.964844 59.410156 C 33.9375 59.359375 33.921875 59.308594 33.921875 59.238281 C 33.921875 59.105469 33.988281 58.984375 34.125 58.890625 C 34.261719 58.796875 34.46875 58.734375 34.734375 58.734375 C 35.550781 58.734375 36.25 59.089844 36.871094 59.625 L 36.9375 59.683594 L 38.476562 57.960938 L 38.414062 57.902344 C 37.601562 57.125 36.425781 56.640625 34.949219 56.640625 C 33.917969 56.640625 33.019531 56.941406 32.371094 57.457031 C 31.726562 57.972656 31.339844 58.707031 31.339844 59.558594 C 31.335938 60.191406 31.558594 60.671875 31.953125 61.042969 C 32.34375 61.414062 32.890625 61.683594 33.554688 61.933594 C 34.132812 62.160156 34.476562 62.3125 34.664062 62.441406 C 34.757812 62.507812 34.8125 62.5625 34.84375 62.617188 C 34.871094 62.667969 34.882812 62.71875 34.882812 62.789062 C 34.882812 62.871094 34.863281 62.9375 34.828125 63 C 34.773438 63.09375 34.671875 63.175781 34.539062 63.230469 C 34.402344 63.285156 34.230469 63.316406 34.035156 63.316406 C 33.148438 63.316406 32.332031 62.949219 31.535156 62.214844 L 31.472656 62.152344 L 29.871094 63.808594 L 29.929688 63.871094 Z M 29.992188 63.8125 "/>
    <path style=" stroke:none;fill-rule:nonzero;fill:url(#linear2);" d="M 39.996094 56.875 L 42.710938 56.875 C 44.0625 56.875 44.953125 57.148438 45.554688 57.753906 C 45.996094 58.191406 46.207031 58.761719 46.207031 59.449219 C 46.207031 61.519531 44.535156 62.800781 42.082031 62.800781 L 40.71875 62.800781 L 40.078125 65.1875 L 37.765625 65.1875 Z M 42.058594 61.007812 C 43.199219 61.007812 43.847656 60.496094 43.847656 59.714844 C 43.847656 59.488281 43.765625 59.285156 43.613281 59.128906 C 43.386719 58.90625 43.054688 58.808594 42.628906 58.808594 L 41.773438 58.808594 L 41.191406 61.007812 Z M 42.058594 61.007812 "/>
    <path style=" stroke:none;fill-rule:nonzero;fill:url(#linear3);" d="M 40 56.875 L 40 56.964844 L 42.714844 56.964844 C 43.382812 56.964844 43.933594 57.03125 44.390625 57.171875 C 44.847656 57.3125 45.207031 57.523438 45.496094 57.816406 C 45.917969 58.238281 46.121094 58.78125 46.125 59.449219 C 46.121094 60.460938 45.71875 61.265625 45.011719 61.832031 C 44.308594 62.394531 43.296875 62.710938 42.085938 62.710938 L 40.65625 62.710938 L 40.015625 65.101562 L 37.886719 65.101562 L 40.085938 56.898438 L 40 56.875 L 40 56.964844 L 40 56.875 L 39.910156 56.851562 L 37.652344 65.277344 L 40.148438 65.277344 L 40.789062 62.890625 L 42.085938 62.890625 C 43.328125 62.890625 44.378906 62.566406 45.125 61.972656 C 45.871094 61.378906 46.300781 60.507812 46.300781 59.449219 C 46.300781 58.746094 46.078125 58.144531 45.621094 57.691406 C 45.308594 57.375 44.921875 57.148438 44.441406 57 C 43.964844 56.855469 43.394531 56.785156 42.714844 56.785156 L 39.929688 56.785156 L 39.910156 56.851562 Z M 42.0625 61.007812 L 42.0625 61.097656 C 42.644531 61.097656 43.109375 60.96875 43.4375 60.726562 C 43.761719 60.484375 43.941406 60.128906 43.941406 59.714844 C 43.941406 59.464844 43.847656 59.238281 43.679688 59.066406 C 43.554688 58.945312 43.402344 58.855469 43.226562 58.800781 C 43.050781 58.746094 42.851562 58.722656 42.628906 58.722656 L 41.707031 58.722656 L 41.082031 61.097656 L 42.0625 61.097656 L 42.0625 60.917969 L 41.3125 60.917969 L 41.847656 58.898438 L 42.628906 58.898438 C 42.835938 58.898438 43.019531 58.921875 43.171875 58.972656 C 43.324219 59.019531 43.449219 59.09375 43.550781 59.191406 C 43.6875 59.332031 43.761719 59.507812 43.761719 59.714844 C 43.761719 60.078125 43.613281 60.371094 43.332031 60.582031 C 43.046875 60.792969 42.617188 60.917969 42.0625 60.917969 Z M 42.0625 61.007812 "/>
    <path style=" stroke:none;fill-rule:nonzero;fill:url(#linear4);" d="M 46.386719 61.613281 C 46.386719 59.082031 48.449219 56.71875 51.332031 56.71875 C 53.691406 56.71875 55.289062 58.335938 55.289062 60.449219 C 55.289062 62.980469 53.230469 65.34375 50.347656 65.34375 C 47.988281 65.34375 46.386719 63.730469 46.386719 61.613281 Z M 52.945312 60.628906 C 52.945312 59.570312 52.304688 58.785156 51.128906 58.785156 C 49.683594 58.785156 48.734375 60.199219 48.734375 61.433594 C 48.734375 62.492188 49.375 63.277344 50.546875 63.277344 C 52.007812 63.277344 52.945312 61.863281 52.945312 60.628906 Z M 52.945312 60.628906 "/>
    <path style=" stroke:none;fill-rule:nonzero;fill:url(#linear5);" d="M 46.390625 61.613281 L 46.480469 61.613281 C 46.480469 60.375 46.984375 59.171875 47.847656 58.28125 C 48.707031 57.390625 49.917969 56.808594 51.335938 56.808594 C 52.496094 56.808594 53.460938 57.207031 54.136719 57.855469 C 54.816406 58.507812 55.207031 59.414062 55.207031 60.449219 C 55.207031 61.691406 54.699219 62.890625 53.839844 63.785156 C 52.980469 64.675781 51.765625 65.253906 50.351562 65.253906 C 49.191406 65.253906 48.222656 64.859375 47.546875 64.207031 C 46.871094 63.554688 46.480469 62.648438 46.480469 61.613281 L 46.300781 61.613281 C 46.300781 62.691406 46.710938 63.652344 47.425781 64.335938 C 48.136719 65.019531 49.148438 65.433594 50.351562 65.433594 C 51.816406 65.433594 53.078125 64.832031 53.96875 63.90625 C 54.859375 62.984375 55.382812 61.738281 55.382812 60.449219 C 55.382812 59.371094 54.976562 58.414062 54.261719 57.726562 C 53.550781 57.042969 52.535156 56.628906 51.335938 56.628906 C 49.871094 56.628906 48.609375 57.234375 47.71875 58.15625 C 46.828125 59.078125 46.300781 60.324219 46.300781 61.613281 Z M 52.949219 60.628906 L 53.035156 60.628906 C 53.035156 60.082031 52.871094 59.597656 52.546875 59.25 C 52.222656 58.902344 51.738281 58.695312 51.132812 58.695312 C 50.378906 58.695312 49.753906 59.066406 49.324219 59.589844 C 48.894531 60.117188 48.648438 60.796875 48.648438 61.433594 C 48.648438 61.980469 48.816406 62.464844 49.140625 62.8125 C 49.464844 63.164062 49.945312 63.367188 50.550781 63.367188 C 51.3125 63.367188 51.9375 62.996094 52.367188 62.472656 C 52.796875 61.949219 53.035156 61.265625 53.035156 60.628906 L 52.859375 60.628906 C 52.859375 61.222656 52.628906 61.867188 52.226562 62.359375 C 51.824219 62.851562 51.25 63.1875 50.550781 63.1875 C 49.984375 63.1875 49.558594 63 49.269531 62.691406 C 48.980469 62.382812 48.828125 61.945312 48.828125 61.433594 C 48.824219 60.839844 49.054688 60.195312 49.460938 59.703125 C 49.867188 59.210938 50.441406 58.875 51.132812 58.875 C 51.699219 58.875 52.125 59.0625 52.414062 59.371094 C 52.703125 59.679688 52.859375 60.117188 52.859375 60.628906 Z M 52.949219 60.628906 "/>
    <path style=" stroke:none;fill-rule:nonzero;fill:url(#linear6);" d="M 57.265625 56.875 L 60.394531 56.875 C 61.78125 56.875 62.695312 57.183594 63.25 57.742188 C 63.691406 58.179688 63.894531 58.773438 63.894531 59.441406 C 63.894531 60.828125 63.097656 61.921875 61.402344 62.386719 L 62.683594 65.1875 L 60.144531 65.1875 L 59.042969 62.671875 L 58.023438 62.671875 L 57.347656 65.1875 L 55.035156 65.1875 Z M 59.8125 60.867188 C 60.84375 60.867188 61.519531 60.425781 61.519531 59.714844 C 61.519531 59.488281 61.449219 59.308594 61.308594 59.15625 C 61.117188 58.964844 60.773438 58.867188 60.289062 58.867188 L 59.042969 58.867188 L 58.5 60.867188 Z M 59.8125 60.867188 "/>
    <path style=" stroke:none;fill-rule:nonzero;fill:url(#linear7);" d="M 57.269531 56.875 L 57.269531 56.964844 L 60.398438 56.964844 C 61.085938 56.964844 61.652344 57.039062 62.113281 57.183594 C 62.570312 57.328125 62.925781 57.535156 63.191406 57.804688 C 63.613281 58.226562 63.804688 58.792969 63.804688 59.441406 C 63.804688 60.117188 63.613281 60.714844 63.21875 61.203125 C 62.820312 61.691406 62.214844 62.070312 61.382812 62.300781 L 61.28125 62.328125 L 62.550781 65.101562 L 60.207031 65.101562 L 59.105469 62.582031 L 57.957031 62.582031 L 57.285156 65.101562 L 55.15625 65.101562 L 57.355469 56.898438 L 57.269531 56.875 L 57.269531 56.964844 L 57.269531 56.875 L 57.183594 56.851562 L 54.921875 65.277344 L 57.417969 65.277344 L 58.09375 62.761719 L 58.988281 62.761719 L 60.089844 65.277344 L 62.824219 65.277344 L 61.488281 62.347656 L 61.40625 62.386719 L 61.429688 62.472656 C 62.292969 62.238281 62.929688 61.839844 63.355469 61.316406 C 63.78125 60.796875 63.984375 60.152344 63.984375 59.441406 C 63.984375 58.757812 63.777344 58.136719 63.316406 57.679688 C 63.027344 57.386719 62.644531 57.164062 62.164062 57.011719 C 61.683594 56.863281 61.097656 56.785156 60.398438 56.785156 L 57.199219 56.785156 L 57.183594 56.851562 Z M 59.816406 60.867188 L 59.816406 60.953125 C 60.34375 60.953125 60.789062 60.84375 61.105469 60.632812 C 61.265625 60.523438 61.394531 60.390625 61.480469 60.238281 C 61.566406 60.082031 61.613281 59.90625 61.613281 59.714844 C 61.613281 59.46875 61.53125 59.261719 61.375 59.09375 L 61.375 59.089844 C 61.265625 58.984375 61.117188 58.90625 60.933594 58.855469 C 60.753906 58.804688 60.539062 58.78125 60.289062 58.78125 L 58.976562 58.78125 L 58.382812 60.953125 L 59.816406 60.953125 L 59.816406 60.777344 L 58.617188 60.777344 L 59.113281 58.957031 L 60.289062 58.957031 C 60.527344 58.957031 60.730469 58.980469 60.886719 59.027344 C 61.046875 59.070312 61.167969 59.136719 61.246094 59.21875 L 61.3125 59.152344 L 61.246094 59.214844 C 61.375 59.355469 61.433594 59.503906 61.4375 59.714844 C 61.4375 59.875 61.398438 60.023438 61.324219 60.148438 C 61.21875 60.339844 61.03125 60.496094 60.777344 60.605469 C 60.519531 60.714844 60.195312 60.777344 59.816406 60.777344 Z M 59.816406 60.867188 "/>
    <path style=" stroke:none;fill-rule:nonzero;fill:url(#linear8);" d="M 66.972656 58.894531 L 64.480469 58.894531 L 65.023438 56.875 L 72.296875 56.875 L 71.761719 58.894531 L 69.273438 58.894531 L 67.589844 65.1875 L 65.277344 65.1875 Z M 66.972656 58.894531 "/>
    <path style=" stroke:none;fill-rule:nonzero;fill:rgb(46.666667%,8.627451%,7.058824%);fill-opacity:1;" d="M 66.976562 58.894531 L 66.976562 58.804688 L 64.601562 58.804688 L 65.097656 56.964844 L 72.183594 56.964844 L 71.695312 58.804688 L 69.207031 58.804688 L 67.523438 65.101562 L 65.394531 65.101562 L 67.089844 58.804688 L 66.976562 58.804688 L 66.976562 58.894531 L 66.890625 58.871094 L 65.160156 65.277344 L 67.660156 65.277344 L 69.34375 58.980469 L 71.832031 58.980469 L 72.414062 56.785156 L 64.960938 56.785156 L 64.367188 58.980469 L 66.976562 58.980469 L 66.976562 58.894531 L 66.890625 58.871094 Z M 66.976562 58.894531 "/>
    <path style=" stroke:none;fill-rule:nonzero;fill:url(#linear9);" d="M 72.015625 67.558594 L 71.691406 67.558594 L 72.238281 66.949219 L 78.4375 60.058594 C 79.269531 59.121094 79.625 58.164062 79.367188 57.566406 C 79.253906 57.296875 78.964844 56.976562 78.234375 56.949219 C 78.222656 56.949219 78.210938 56.949219 78.199219 56.949219 C 77.507812 56.949219 76.652344 57.535156 76.445312 58.417969 L 73.59375 58.417969 C 74.117188 55.808594 76.429688 53.925781 79.128906 53.925781 C 80.621094 53.925781 81.804688 54.554688 82.371094 55.652344 C 83.035156 56.941406 82.761719 58.660156 81.640625 60.25 C 81.574219 60.339844 81.511719 60.433594 81.445312 60.527344 C 80.984375 61.207031 80.351562 62.132812 77.390625 65.292969 L 77.246094 65.441406 L 81.941406 65.441406 L 81.375 67.558594 Z M 72.015625 67.558594 "/>
    <path style=" stroke:none;fill-rule:nonzero;fill:url(#linear10);" d="M 72.015625 67.558594 L 72.019531 67.46875 L 71.890625 67.46875 L 72.308594 67.007812 L 78.503906 60.117188 C 78.835938 59.742188 79.09375 59.367188 79.269531 59.007812 C 79.445312 58.648438 79.539062 58.304688 79.539062 57.996094 C 79.539062 57.828125 79.511719 57.671875 79.449219 57.527344 C 79.390625 57.382812 79.277344 57.21875 79.082031 57.09375 C 78.890625 56.964844 78.617188 56.871094 78.238281 56.859375 C 78.226562 56.859375 78.210938 56.859375 78.199219 56.859375 C 77.828125 56.859375 77.425781 57.011719 77.085938 57.28125 C 76.746094 57.550781 76.46875 57.933594 76.359375 58.394531 L 76.445312 58.417969 L 76.445312 58.328125 L 73.59375 58.328125 L 73.59375 58.417969 L 73.679688 58.433594 C 74.199219 55.867188 76.472656 54.015625 79.128906 54.015625 C 79.863281 54.015625 80.515625 54.171875 81.054688 54.457031 C 81.59375 54.746094 82.015625 55.160156 82.289062 55.691406 C 82.523438 56.144531 82.636719 56.648438 82.636719 57.1875 C 82.636719 58.140625 82.277344 59.191406 81.566406 60.195312 C 81.5 60.289062 81.4375 60.382812 81.371094 60.476562 C 81.140625 60.816406 80.871094 61.214844 80.289062 61.921875 C 79.703125 62.632812 78.804688 63.652344 77.324219 65.230469 L 77.039062 65.53125 L 81.824219 65.53125 L 81.308594 67.46875 L 72.019531 67.46875 L 72.015625 67.558594 L 72.015625 67.648438 L 81.445312 67.648438 L 82.058594 65.351562 L 77.453125 65.351562 C 78.9375 63.773438 79.835938 62.75 80.425781 62.039062 C 81.011719 61.324219 81.289062 60.917969 81.519531 60.578125 C 81.585938 60.484375 81.648438 60.390625 81.710938 60.300781 C 82.4375 59.273438 82.816406 58.1875 82.816406 57.1875 C 82.816406 56.625 82.695312 56.089844 82.449219 55.609375 C 82.15625 55.046875 81.707031 54.601562 81.140625 54.300781 C 80.570312 53.996094 79.886719 53.835938 79.128906 53.835938 C 76.386719 53.835938 74.039062 55.75 73.503906 58.398438 L 73.484375 58.507812 L 76.515625 58.507812 L 76.535156 58.4375 C 76.632812 58.019531 76.882812 57.667969 77.195312 57.421875 C 77.507812 57.175781 77.878906 57.039062 78.199219 57.039062 C 78.210938 57.039062 78.222656 57.039062 78.230469 57.039062 C 78.585938 57.050781 78.824219 57.136719 78.984375 57.242188 C 79.144531 57.347656 79.234375 57.480469 79.285156 57.601562 C 79.335938 57.714844 79.359375 57.847656 79.359375 57.996094 C 79.359375 58.265625 79.273438 58.585938 79.109375 58.929688 C 78.941406 59.269531 78.691406 59.636719 78.371094 59.996094 L 72.171875 66.890625 L 71.488281 67.648438 L 72.015625 67.652344 Z M 72.015625 67.558594 "/>
    <path style=" stroke:none;fill-rule:nonzero;fill:rgb(89.411765%,12.156863%,7.45098%);fill-opacity:1;" d="M 75.039062 31.335938 C 75.039062 41.457031 66.847656 49.664062 56.746094 49.664062 C 55.132812 49.664062 53.355469 49.546875 51.871094 49.15625 C 51.378906 49.027344 50.070312 48.480469 49.816406 48.375 C 43.125 45.648438 38.449219 39.019531 38.449219 31.335938 C 38.449219 21.210938 46.640625 13.003906 56.746094 13.003906 C 66.847656 13.003906 75.039062 21.210938 75.039062 31.335938 Z M 75.039062 31.335938 "/>
    <path style=" stroke:none;fill-rule:nonzero;fill:url(#radial0);" d="M 66.8125 17.128906 C 68.625 17.117188 69.824219 17.738281 70 17.835938 C 66.59375 14.476562 61.917969 12.402344 56.757812 12.402344 C 51.847656 12.402344 47.371094 14.28125 44.011719 17.363281 C 44.398438 17.449219 44.757812 17.496094 44.757812 17.496094 C 44.757812 17.496094 47.582031 18.023438 51.382812 18.089844 C 55.558594 18.226562 59.078125 18.242188 61.632812 18.109375 C 61.632812 18.109375 62.589844 17.78125 63.140625 17.640625 C 64.113281 17.398438 65.394531 17.136719 66.8125 17.128906 Z M 66.8125 17.128906 "/>
    <path style=" stroke:none;fill-rule:nonzero;fill:url(#linear11);" d="M 66.8125 17.128906 C 68.625 17.117188 69.824219 17.738281 70 17.835938 C 66.59375 14.476562 61.917969 12.402344 56.757812 12.402344 C 51.847656 12.402344 47.371094 14.28125 44.011719 17.363281 C 44.398438 17.449219 44.757812 17.496094 44.757812 17.496094 C 44.757812 17.496094 47.582031 18.023438 51.382812 18.089844 C 55.558594 18.226562 59.078125 18.242188 61.632812 18.109375 C 61.632812 18.109375 62.589844 17.78125 63.140625 17.640625 C 64.113281 17.398438 65.394531 17.136719 66.8125 17.128906 Z M 66.8125 17.128906 "/>
    <path style=" stroke:none;fill-rule:nonzero;fill:url(#radial1);" d="M 56.5625 40.410156 C 57.441406 37.3125 55.707031 33.6875 54.191406 32.390625 C 51.574219 30.082031 49.582031 29.707031 46.980469 29.574219 L 46.617188 29.554688 C 46.605469 29.574219 45.460938 31.210938 44.4375 33.195312 C 43.851562 34.328125 43.257812 35.636719 42.945312 36.753906 C 42.40625 38.695312 42.296875 39.699219 42.261719 40.648438 C 42.199219 42.308594 42.59375 43.628906 42.59375 43.628906 C 42.59375 43.628906 42.609375 43.652344 42.613281 43.660156 C 42.621094 43.671875 42.640625 43.695312 42.71875 43.761719 C 42.746094 43.785156 42.777344 43.804688 42.820312 43.832031 C 42.847656 43.851562 42.875 43.871094 42.902344 43.890625 C 42.980469 43.945312 43.058594 43.996094 43.132812 44.042969 C 43.140625 44.050781 43.152344 44.058594 43.164062 44.066406 C 43.347656 44.171875 43.550781 44.300781 43.730469 44.417969 C 43.785156 44.449219 43.820312 44.464844 43.820312 44.464844 C 43.820312 44.464844 46.648438 46.554688 49.621094 46.203125 C 53.082031 45.734375 55.679688 43.964844 56.5625 40.410156 Z M 56.5625 40.410156 "/>
    <path style=" stroke:none;fill-rule:nonzero;fill:url(#linear12);" d="M 51.777344 23.425781 C 50.730469 24.332031 49.976562 25.203125 49.113281 26.214844 C 48.199219 27.289062 47.453125 28.074219 46.546875 29.519531 C 46.535156 29.535156 46.523438 29.554688 46.523438 29.554688 C 46.523438 29.554688 45.789062 30.515625 44.835938 32.214844 C 44.265625 33.234375 43.515625 34.691406 43.003906 36.023438 C 42.617188 37.035156 42.296875 38.234375 42.144531 39.117188 C 41.714844 41.667969 42.199219 43.242188 42.214844 43.296875 C 42.214844 43.296875 42.226562 43.347656 42.242188 43.390625 C 42.269531 43.503906 42.328125 43.585938 42.433594 43.828125 C 42.257812 43.625 42.140625 43.511719 41.96875 43.300781 C 39.523438 40.257812 37.976562 36.460938 37.808594 32.21875 C 37.808594 31.632812 37.808594 31.65625 37.808594 31.414062 C 37.808594 27.933594 38.804688 24.578125 40.4375 21.777344 C 40.453125 21.753906 40.476562 21.71875 40.488281 21.695312 C 40.476562 21.789062 40.726562 21.964844 40.976562 22.082031 C 42.15625 22.648438 45.285156 23.167969 48.980469 23.355469 C 49.539062 23.386719 50.09375 23.402344 50.628906 23.414062 C 51.019531 23.421875 51.402344 23.425781 51.777344 23.425781 Z M 51.777344 23.425781 "/>
    <path style=" stroke:none;fill-rule:nonzero;fill:rgb(0%,0%,0%);fill-opacity:1;" d="M 70.808594 18.679688 C 70.714844 18.613281 69.847656 17.996094 69.167969 17.769531 C 68.664062 17.601562 67.917969 17.410156 67.007812 17.378906 C 66.121094 17.351562 65.023438 17.464844 64.558594 17.554688 C 62.980469 17.851562 61.277344 18.394531 61.277344 18.394531 C 61.277344 18.394531 60.753906 18.835938 60.269531 19.28125 C 59.261719 20.214844 58.15625 21.355469 57.132812 22.464844 C 55.953125 23.753906 54.886719 25.007812 54.222656 25.867188 C 55.5625 26.628906 56.863281 27.398438 58.105469 28.585938 C 58.605469 29.058594 59.09375 29.597656 59.574219 30.230469 C 59.742188 30.453125 60.464844 31.429688 60.96875 32.417969 C 61.480469 33.417969 61.96875 35.136719 62.027344 35.371094 C 62.15625 35.878906 62.25 36.308594 62.28125 36.507812 C 62.449219 37.523438 62.476562 38.414062 62.417969 39.21875 C 62.371094 39.871094 62.273438 40.464844 62.148438 41.027344 C 62.054688 41.453125 61.949219 41.859375 61.839844 42.253906 C 61.78125 42.472656 61.6875 42.703125 61.589844 42.941406 C 61.488281 43.179688 61.382812 43.429688 61.25 43.683594 C 61.007812 44.152344 60.714844 44.640625 60.363281 45.125 C 59.832031 45.855469 59.1875 46.578125 58.457031 47.222656 C 58.449219 47.226562 58.445312 47.234375 58.4375 47.238281 C 58.429688 47.246094 58.421875 47.25 58.414062 47.261719 C 57.863281 47.75 57.257812 48.195312 56.609375 48.558594 C 56.222656 48.769531 55.820312 48.957031 55.40625 49.109375 C 55.371094 49.121094 55.332031 49.132812 55.296875 49.144531 C 55.242188 49.164062 55.183594 49.183594 55.121094 49.199219 C 54.839844 49.285156 54.53125 49.367188 54.21875 49.410156 C 53.8125 49.46875 53.417969 49.523438 52.996094 49.535156 C 52.378906 49.570312 51.859375 49.5 51.441406 49.386719 C 51.640625 49.515625 51.921875 49.605469 52.074219 49.652344 C 53.332031 49.988281 55.082031 50.273438 56.757812 50.242188 C 67.1875 50.039062 75.640625 41.769531 75.640625 31.320312 C 75.640625 26.460938 73.8125 22.03125 70.808594 18.679688 Z M 70.808594 18.679688 "/>
    <path style=" stroke:none;fill-rule:nonzero;fill:rgb(46.666667%,8.627451%,7.058824%);fill-opacity:1;" d="M 51.777344 23.425781 C 50.730469 24.332031 49.976562 25.203125 49.113281 26.214844 C 48.636719 26.773438 48.207031 27.257812 47.773438 27.792969 C 47.414062 28.242188 47.050781 28.734375 46.660156 29.34375 C 46.621094 29.402344 46.59375 29.441406 46.558594 29.5 C 46.542969 29.523438 46.519531 29.558594 46.519531 29.558594 L 46.632812 29.558594 C 46.632812 29.558594 46.632812 29.558594 46.632812 29.5625 L 46.996094 29.574219 C 46.996094 29.574219 47 29.558594 47.015625 29.546875 C 47.042969 29.503906 47.070312 29.460938 47.09375 29.421875 C 47.121094 29.382812 47.144531 29.339844 47.171875 29.300781 C 47.207031 29.246094 47.246094 29.1875 47.28125 29.132812 C 47.300781 29.109375 47.316406 29.082031 47.332031 29.058594 C 47.375 28.992188 47.417969 28.929688 47.464844 28.867188 C 47.472656 28.851562 47.484375 28.839844 47.492188 28.824219 C 47.542969 28.753906 47.589844 28.683594 47.640625 28.617188 C 47.644531 28.613281 47.648438 28.605469 47.648438 28.601562 C 48.179688 27.867188 48.679688 27.296875 49.226562 26.664062 C 49.242188 26.640625 49.261719 26.621094 49.277344 26.601562 C 49.316406 26.558594 49.351562 26.515625 49.390625 26.46875 C 49.445312 26.40625 49.503906 26.339844 49.558594 26.273438 C 50.421875 25.261719 51.175781 24.390625 52.226562 23.480469 C 52.25 23.460938 52.269531 23.441406 52.292969 23.421875 C 52.222656 23.421875 52.105469 23.421875 52 23.421875 C 51.886719 23.421875 51.789062 23.425781 51.777344 23.425781 Z M 51.777344 23.425781 "/>
    <path style=" stroke:none;fill-rule:nonzero;fill:url(#linear13);" d="M 50.222656 23.402344 C 49.949219 23.398438 49.679688 23.386719 49.398438 23.378906 C 49.261719 23.371094 49.121094 23.363281 48.980469 23.355469 C 47.671875 23.289062 46.429688 23.183594 45.324219 23.042969 C 43.3125 22.796875 41.738281 22.449219 40.976562 22.082031 C 40.972656 22.082031 40.964844 22.078125 40.960938 22.074219 C 40.898438 22.046875 40.84375 22.015625 40.792969 21.984375 C 40.769531 21.96875 40.75 21.957031 40.730469 21.945312 C 40.710938 21.933594 40.695312 21.917969 40.675781 21.90625 C 40.664062 21.898438 40.652344 21.886719 40.636719 21.878906 C 40.625 21.871094 40.613281 21.859375 40.605469 21.847656 C 40.597656 21.84375 40.59375 21.839844 40.589844 21.835938 C 40.578125 21.824219 40.566406 21.8125 40.554688 21.800781 C 40.542969 21.785156 40.53125 21.769531 40.519531 21.757812 C 40.507812 21.742188 40.496094 21.707031 40.488281 21.691406 C 40.476562 21.714844 40.375 21.886719 40.332031 21.957031 C 40.289062 22.035156 40.238281 22.136719 40.183594 22.25 C 39.960938 22.703125 39.730469 23.394531 40.019531 23.914062 C 40.058594 23.984375 40.199219 24.15625 40.253906 24.21875 C 40.898438 24.90625 42.742188 25.980469 43.90625 26.449219 C 45.074219 26.917969 47.746094 27.765625 47.746094 27.765625 L 47.789062 27.773438 C 48.214844 27.242188 48.644531 26.769531 49.113281 26.214844 C 49.976562 25.203125 50.730469 24.332031 51.777344 23.425781 C 51.792969 23.425781 51.527344 23.425781 51.375 23.421875 C 51.128906 23.421875 50.878906 23.417969 50.628906 23.414062 C 50.496094 23.410156 50.394531 23.40625 50.222656 23.402344 Z M 50.222656 23.402344 "/>
    <path style=" stroke:none;fill-rule:nonzero;fill:url(#linear14);" d="M 69.019531 17.726562 C 68.984375 17.714844 68.949219 17.703125 68.914062 17.695312 C 68.859375 17.679688 68.800781 17.664062 68.742188 17.644531 C 68.734375 17.640625 68.730469 17.640625 68.722656 17.640625 C 68.652344 17.621094 68.578125 17.601562 68.5 17.585938 C 68.34375 17.546875 68.183594 17.511719 68.007812 17.484375 C 67.964844 17.476562 67.917969 17.46875 67.875 17.464844 C 67.785156 17.449219 67.695312 17.4375 67.597656 17.425781 C 67.550781 17.421875 67.503906 17.417969 67.457031 17.410156 C 67.421875 17.410156 67.382812 17.40625 67.347656 17.402344 C 67.335938 17.402344 67.320312 17.402344 67.304688 17.398438 C 67.296875 17.398438 67.292969 17.398438 67.285156 17.398438 C 67.242188 17.394531 67.199219 17.394531 67.160156 17.390625 C 67.109375 17.386719 67.058594 17.386719 67.007812 17.382812 C 66.757812 17.375 66.492188 17.378906 66.226562 17.390625 C 66.179688 17.390625 66.136719 17.394531 66.089844 17.398438 C 66.054688 17.398438 66.019531 17.398438 65.984375 17.402344 C 65.902344 17.40625 65.820312 17.414062 65.742188 17.417969 C 65.742188 17.417969 65.058594 17.476562 64.714844 17.53125 C 64.480469 17.574219 63.796875 17.71875 63.796875 17.71875 L 63.347656 17.824219 L 63.34375 17.824219 C 63.308594 17.832031 63.273438 17.839844 63.234375 17.851562 C 63.1875 17.863281 63.144531 17.875 63.097656 17.882812 C 63.074219 17.890625 63.054688 17.894531 63.03125 17.902344 C 62.964844 17.917969 62.898438 17.933594 62.832031 17.953125 C 62.628906 18.007812 62.4375 18.058594 62.261719 18.109375 C 62.226562 18.117188 62.1875 18.125 62.152344 18.136719 C 62.027344 18.171875 61.910156 18.207031 61.804688 18.238281 C 61.773438 18.25 61.746094 18.257812 61.71875 18.261719 C 61.578125 18.304688 61.46875 18.339844 61.394531 18.363281 C 61.382812 18.363281 61.375 18.367188 61.367188 18.371094 C 61.355469 18.375 61.347656 18.375 61.339844 18.378906 C 61.339844 18.378906 61.335938 18.378906 61.332031 18.382812 C 61.324219 18.382812 61.316406 18.386719 61.308594 18.390625 C 61.300781 18.390625 61.296875 18.390625 61.296875 18.394531 C 61.285156 18.394531 61.28125 18.394531 61.277344 18.398438 L 61.273438 18.398438 C 61.261719 18.410156 61.246094 18.421875 61.234375 18.433594 C 61.09375 18.550781 60.949219 18.675781 60.800781 18.804688 C 60.507812 19.0625 60.207031 19.339844 59.894531 19.636719 C 59.011719 20.472656 58.074219 21.445312 57.199219 22.398438 C 55.992188 23.710938 54.898438 24.996094 54.222656 25.871094 C 55.589844 26.648438 56.910156 27.433594 58.175781 28.65625 C 59.417969 28.761719 62.335938 28.960938 64.292969 28.675781 C 66.839844 28.304688 70.527344 27.234375 70.527344 27.234375 L 70.53125 26.785156 L 74.34375 26.265625 C 74.054688 24.597656 73.777344 23.953125 73.429688 23.078125 C 73.054688 22.136719 72.1875 20.652344 71.882812 20.214844 C 71.558594 19.746094 71.582031 19.761719 70.816406 18.6875 C 70.816406 18.6875 69.984375 18.046875 69.019531 17.726562 Z M 69.019531 17.726562 "/>
    <path style=" stroke:none;fill-rule:nonzero;fill:url(#linear15);" d="M 72.152344 32.105469 C 72.152344 32.105469 72.070312 35.988281 71.933594 37.4375 C 71.796875 38.886719 71.015625 42.433594 69.609375 44.34375 C 68.996094 45.183594 68.347656 45.953125 67.058594 47.011719 C 67.027344 47.039062 66.949219 47.085938 66.917969 47.113281 C 66.917969 47.113281 66.792969 47.199219 66.742188 47.230469 C 64.265625 48.78125 61.386719 49.789062 58.3125 50.09375 C 57.789062 50.148438 57.285156 50.179688 56.753906 50.1875 C 55.34375 50.214844 53.832031 50.050781 52.640625 49.800781 C 52.636719 49.800781 52.636719 49.800781 52.632812 49.796875 C 52.410156 49.75 51.578125 49.542969 51.367188 49.347656 C 51.394531 49.355469 51.425781 49.367188 51.457031 49.371094 C 51.488281 49.378906 51.519531 49.386719 51.550781 49.394531 C 51.609375 49.40625 51.664062 49.417969 51.726562 49.429688 C 51.769531 49.4375 51.8125 49.445312 51.859375 49.453125 C 51.898438 49.460938 51.933594 49.464844 51.972656 49.46875 C 52.007812 49.476562 52.046875 49.480469 52.085938 49.488281 C 52.121094 49.492188 52.160156 49.496094 52.199219 49.5 C 52.238281 49.503906 52.277344 49.507812 52.316406 49.511719 C 52.390625 49.515625 52.46875 49.519531 52.546875 49.523438 C 52.574219 49.523438 52.601562 49.523438 52.628906 49.523438 C 52.746094 49.527344 52.867188 49.523438 52.992188 49.519531 C 53.054688 49.515625 53.117188 49.515625 53.179688 49.511719 C 53.234375 49.507812 53.285156 49.503906 53.335938 49.5 C 53.398438 49.496094 53.460938 49.488281 53.523438 49.480469 C 53.570312 49.476562 53.617188 49.472656 53.664062 49.464844 C 53.671875 49.464844 53.679688 49.464844 53.683594 49.464844 L 53.6875 49.464844 C 53.714844 49.460938 53.742188 49.457031 53.765625 49.453125 C 53.828125 49.445312 53.890625 49.4375 53.949219 49.429688 C 54.035156 49.417969 54.125 49.40625 54.214844 49.394531 C 54.527344 49.351562 54.835938 49.265625 55.117188 49.183594 C 55.179688 49.164062 55.238281 49.144531 55.292969 49.128906 C 55.328125 49.117188 55.367188 49.101562 55.402344 49.089844 C 55.933594 48.898438 56.441406 48.644531 56.925781 48.351562 C 57.453125 48.027344 57.949219 47.652344 58.410156 47.242188 C 58.417969 47.234375 58.425781 47.226562 58.433594 47.222656 C 58.4375 47.214844 58.445312 47.210938 58.453125 47.203125 C 59.316406 46.445312 60.0625 45.570312 60.640625 44.703125 C 61.21875 43.835938 61.632812 42.972656 61.835938 42.238281 C 62.042969 41.472656 62.25 40.671875 62.359375 39.765625 C 62.453125 39 62.476562 38.160156 62.375 37.207031 C 62.328125 36.78125 62.152344 35.96875 61.996094 35.3125 C 61.9375 35.066406 61.847656 34.765625 61.761719 34.496094 C 61.726562 34.378906 61.707031 34.285156 61.664062 34.164062 C 61.605469 34.007812 61.574219 33.882812 61.542969 33.792969 C 61.507812 33.695312 61.449219 33.519531 61.378906 33.34375 C 61.300781 33.144531 61.101562 32.664062 61.070312 32.605469 Z M 72.152344 32.105469 "/>
    <path style=" stroke:none;fill-rule:nonzero;fill:url(#radial2);" d="M 56.742188 39.539062 C 56.707031 39.835938 56.660156 40.125 56.578125 40.414062 C 56.398438 41.128906 56.152344 41.769531 55.84375 42.34375 C 55.257812 43.433594 54.445312 44.28125 53.457031 44.90625 C 52.371094 45.589844 51.078125 46.011719 49.636719 46.207031 C 49.4375 46.230469 49.238281 46.242188 49.042969 46.246094 C 48.320312 46.257812 47.617188 46.140625 46.976562 45.960938 C 45.824219 45.640625 44.863281 45.121094 44.316406 44.789062 C 43.789062 44.328125 43.28125 43.726562 43.113281 43.019531 C 42.699219 41.316406 42.75 40.335938 42.957031 39.691406 C 43.164062 39.046875 43.394531 38.488281 43.605469 38.121094 C 44.15625 37.132812 45.125 36.109375 45.730469 35.566406 C 47 34.429688 48.160156 33.9375 48.160156 33.9375 L 53.699219 37.292969 Z M 56.742188 39.539062 "/>
    <path style=" stroke:none;fill-rule:nonzero;fill:url(#linear16);" d="M 44.175781 44.703125 C 44.175781 44.703125 44.167969 44.695312 43.984375 44.546875 C 43.90625 44.480469 43.757812 44.339844 43.671875 44.261719 C 43.601562 44.191406 43.425781 44.035156 43.324219 43.914062 C 43.269531 43.855469 43.082031 43.628906 42.984375 43.5 C 42.90625 43.394531 42.800781 43.242188 42.699219 43.050781 C 42.609375 42.894531 42.523438 42.71875 42.445312 42.464844 C 42.386719 42.265625 42.332031 42.007812 42.316406 41.835938 C 42.269531 41.410156 42.257812 41.171875 42.277344 40.652344 C 42.3125 39.703125 42.421875 38.699219 42.960938 36.757812 C 43.269531 35.640625 43.867188 34.335938 44.453125 33.199219 C 45.476562 31.214844 46.628906 29.570312 46.640625 29.554688 L 46.527344 29.550781 C 46.527344 29.550781 45.789062 30.515625 44.835938 32.214844 C 44.265625 33.234375 43.515625 34.691406 43.003906 36.023438 C 42.617188 37.035156 42.285156 38.230469 42.132812 39.117188 C 41.863281 40.722656 41.882812 41.972656 42.023438 42.683594 C 42.097656 43.042969 42.1875 43.296875 42.253906 43.453125 C 42.300781 43.5625 42.40625 43.796875 42.464844 43.875 C 42.535156 43.96875 42.613281 44.078125 42.699219 44.171875 C 42.839844 44.324219 42.992188 44.476562 43.105469 44.59375 C 43.21875 44.707031 43.28125 44.75 43.386719 44.828125 C 43.527344 44.945312 43.628906 45.003906 43.730469 45.058594 C 43.820312 45.109375 43.949219 45.175781 43.996094 45.199219 C 44.300781 45.359375 44.722656 45.507812 44.851562 45.53125 C 45.015625 45.566406 45.136719 45.578125 45.136719 45.578125 C 45.136719 45.578125 44.949219 45.429688 44.664062 45.171875 C 44.449219 44.980469 44.175781 44.703125 44.175781 44.703125 Z M 44.175781 44.703125 "/>
    <path style=" stroke:none;fill-rule:nonzero;fill:rgb(100%,100%,100%);fill-opacity:1;" d="M 72.601562 37.960938 L 72.976562 37.050781 L 70.261719 35.933594 L 69.890625 36.839844 Z M 70.277344 40.289062 C 70.277344 40.289062 68.289062 39.960938 68.230469 39.953125 L 67.671875 40.804688 C 67.792969 40.816406 70.816406 41.152344 70.96875 41.167969 L 71.351562 40.578125 C 71.347656 40.570312 71.292969 40.476562 71.210938 40.328125 L 71.210938 40.324219 C 70.816406 39.628906 69.769531 37.777344 69.71875 37.6875 L 69.164062 38.535156 C 69.191406 38.585938 70.277344 40.289062 70.277344 40.289062 Z M 70.296875 25.703125 C 70.167969 25.84375 70.085938 25.933594 70.082031 25.941406 L 70.328125 26.601562 C 70.34375 26.601562 70.507812 26.621094 70.757812 26.648438 L 70.757812 26.652344 C 71.636719 26.75 73.554688 26.96875 73.652344 26.980469 L 73.289062 26.015625 C 73.238281 26.011719 72.921875 25.992188 72.921875 25.992188 L 72.425781 24.675781 C 72.425781 24.675781 72.652344 24.453125 72.6875 24.417969 L 72.328125 23.460938 C 72.257812 23.535156 70.847656 25.089844 70.296875 25.699219 C 70.296875 25.699219 70.296875 25.699219 70.296875 25.703125 Z M 72.316406 25.957031 L 71.203125 25.890625 L 71.996094 25.101562 Z M 72.167969 33.046875 C 71.5 33.25 70.902344 33.433594 70.878906 33.441406 L 70.757812 34.132812 C 70.78125 34.148438 71.511719 34.699219 72.199219 35.222656 C 72.792969 35.671875 73.351562 36.097656 73.398438 36.132812 L 73.574219 35.128906 C 73.535156 35.097656 73.273438 34.925781 73.273438 34.925781 L 73.515625 33.550781 C 73.515625 33.550781 73.820312 33.476562 73.867188 33.460938 L 74.042969 32.464844 C 73.976562 32.484375 73.015625 32.78125 72.167969 33.042969 Z M 72.777344 34.589844 L 72.179688 34.183594 C 72.179688 34.183594 72.179688 34.183594 72.179688 34.179688 L 71.863281 33.96875 L 72.175781 33.890625 L 72.175781 33.886719 L 72.933594 33.695312 Z M 67.691406 21.8125 C 67.710938 21.835938 67.726562 21.859375 67.746094 21.886719 L 69.503906 24.523438 L 70.09375 24.128906 C 70.042969 24.054688 69.386719 23.070312 69.386719 23.070312 L 70.34375 22.429688 C 70.34375 22.429688 70.347656 22.425781 70.347656 22.425781 L 70.351562 22.421875 C 70.351562 22.421875 71.199219 21.859375 71.261719 21.8125 L 70.710938 20.988281 C 70.644531 21.03125 68.835938 22.242188 68.835938 22.242188 C 68.835938 22.242188 68.179688 21.257812 68.128906 21.179688 L 67.535156 21.578125 Z M 72.121094 28.46875 C 72.0625 28.652344 72.058594 28.859375 72.113281 29.382812 L 72.179688 30.070312 C 72.203125 30.289062 72.140625 30.386719 71.964844 30.40625 L 71.925781 30.40625 C 71.917969 30.40625 71.910156 30.40625 71.902344 30.410156 C 71.742188 30.414062 71.667969 30.328125 71.648438 30.125 L 71.570312 29.375 C 71.5625 29.273438 71.570312 29.203125 71.601562 29.148438 C 71.597656 29.148438 71.597656 29.144531 71.597656 29.144531 C 71.601562 29.140625 71.605469 29.136719 71.605469 29.132812 C 71.636719 29.089844 71.679688 29.066406 71.738281 29.054688 C 71.726562 28.96875 71.605469 28.261719 71.589844 28.167969 C 71.515625 28.191406 71.453125 28.21875 71.390625 28.25 C 71.390625 28.253906 71.390625 28.253906 71.390625 28.253906 C 70.980469 28.464844 70.855469 28.835938 70.929688 29.550781 L 70.984375 30.09375 C 71.070312 30.976562 71.359375 31.382812 71.867188 31.332031 L 72.210938 31.296875 C 72.480469 31.269531 72.664062 31.121094 72.738281 30.878906 C 72.796875 30.695312 72.796875 30.492188 72.746094 29.964844 L 72.675781 29.277344 C 72.652344 29.058594 72.714844 28.960938 72.890625 28.945312 L 72.933594 28.941406 C 73.109375 28.921875 73.195312 29.007812 73.214844 29.222656 L 73.289062 29.972656 C 73.300781 30.082031 73.289062 30.164062 73.25 30.214844 C 73.222656 30.257812 73.175781 30.28125 73.117188 30.292969 C 73.128906 30.378906 73.226562 31.09375 73.238281 31.1875 C 73.832031 31.015625 74.023438 30.636719 73.9375 29.796875 L 73.882812 29.25 C 73.796875 28.371094 73.503906 27.964844 72.996094 28.015625 L 72.648438 28.050781 C 72.378906 28.078125 72.191406 28.226562 72.121094 28.46875 Z M 72.121094 28.46875 "/>
    <path style=" stroke:none;fill-rule:nonzero;fill:url(#linear17);" d="M 64.546875 17.578125 C 64.789062 17.53125 65.347656 17.457031 65.816406 17.421875 C 66.242188 17.386719 66.589844 17.378906 67.011719 17.390625 C 67.359375 17.402344 67.683594 17.433594 67.980469 17.484375 C 68.457031 17.5625 68.859375 17.683594 69.167969 17.785156 C 69.492188 17.90625 69.800781 18.058594 70.058594 18.203125 C 70.464844 18.433594 70.75 18.640625 70.808594 18.679688 C 70.792969 18.664062 70.78125 18.648438 70.765625 18.628906 L 70.199219 18.03125 C 70.132812 17.964844 70.066406 17.898438 70 17.832031 C 69.878906 17.765625 69.261719 17.445312 68.289062 17.261719 C 67.863281 17.179688 67.367188 17.121094 66.8125 17.125 C 66.097656 17.132812 65.433594 17.199219 64.816406 17.296875 C 64.195312 17.394531 63.644531 17.511719 63.140625 17.640625 C 62.503906 17.804688 61.632812 18.109375 61.632812 18.109375 L 61.222656 18.441406 C 61.222656 18.441406 61.96875 18.179688 62.882812 17.941406 C 63.402344 17.808594 63.972656 17.683594 64.546875 17.578125 Z M 64.546875 17.578125 "/>
    <path style=" stroke:none;fill-rule:nonzero;fill:rgb(100%,100%,100%);fill-opacity:1;" d="M 51.871094 23.421875 C 52.011719 23.421875 52.15625 23.421875 52.296875 23.421875 L 52.292969 23.421875 L 52.296875 23.421875 C 52.328125 23.390625 52.351562 23.371094 52.378906 23.351562 C 52.386719 23.339844 52.398438 23.332031 52.410156 23.320312 C 52.421875 23.3125 52.433594 23.300781 52.449219 23.285156 C 51.960938 23.304688 50.679688 23.226562 50.285156 23.214844 C 49.246094 23.179688 48.257812 23.125 47.34375 23.054688 C 46.652344 23 46 22.9375 45.398438 22.867188 C 44.914062 22.808594 44.460938 22.742188 44.050781 22.675781 C 43.457031 22.574219 42.945312 22.464844 42.535156 22.347656 C 42.195312 22.25 41.921875 22.148438 41.726562 22.039062 C 41.507812 21.917969 41.414062 21.75 41.390625 21.625 C 41.355469 21.417969 41.46875 21.269531 41.570312 21.09375 C 41.496094 21.089844 41.335938 21.082031 41.203125 21.121094 C 41.066406 21.160156 40.953125 21.21875 40.863281 21.273438 C 40.75 21.34375 40.671875 21.429688 40.628906 21.488281 C 40.589844 21.542969 40.554688 21.582031 40.527344 21.625 C 40.507812 21.648438 40.488281 21.671875 40.488281 21.707031 C 40.484375 21.734375 40.503906 21.757812 40.519531 21.78125 C 40.609375 21.894531 40.769531 21.984375 40.976562 22.082031 C 42.15625 22.648438 45.285156 23.171875 48.980469 23.355469 C 49.542969 23.386719 50.09375 23.402344 50.628906 23.414062 C 51.082031 23.421875 51.46875 23.425781 51.871094 23.421875 Z M 51.871094 23.421875 "/>
    <path style=" stroke:none;fill-rule:nonzero;fill:rgb(100%,100%,100%);fill-opacity:1;" d="M 62.429688 39.003906 C 62.429688 38.992188 62.429688 38.980469 62.429688 38.972656 C 62.429688 38.9375 62.433594 38.898438 62.433594 38.859375 C 62.449219 38.53125 62.445312 38.1875 62.425781 37.828125 C 62.40625 37.496094 62.375 37.152344 62.324219 36.796875 C 62.289062 36.570312 62.253906 36.332031 62.207031 36.09375 C 62.171875 35.917969 62.136719 35.738281 62.089844 35.554688 C 62.050781 35.394531 62 35.230469 61.953125 35.0625 C 61.941406 35.011719 61.878906 34.808594 61.835938 34.683594 C 61.785156 34.535156 61.75 34.433594 61.726562 34.367188 C 61.851562 34.789062 61.964844 35.195312 62.054688 35.582031 C 62.09375 35.738281 62.128906 35.886719 62.15625 36.035156 C 62.183594 36.183594 62.207031 36.332031 62.226562 36.472656 C 62.226562 36.480469 62.230469 36.484375 62.230469 36.492188 C 62.246094 36.597656 62.257812 36.703125 62.273438 36.804688 C 62.316406 37.183594 62.339844 37.542969 62.347656 37.886719 C 62.351562 37.980469 62.351562 38.074219 62.351562 38.164062 L 62.351562 38.171875 C 62.351562 38.246094 62.351562 38.320312 62.351562 38.398438 C 62.351562 39.78125 62.105469 41.105469 61.65625 42.332031 C 61.148438 43.710938 60.378906 44.96875 59.40625 46.035156 C 58.890625 46.609375 58.308594 47.140625 57.683594 47.609375 C 57.300781 47.894531 56.902344 48.160156 56.488281 48.390625 C 56.230469 48.535156 55.96875 48.667969 55.703125 48.78125 C 55.453125 48.890625 55.207031 48.960938 54.945312 49.058594 C 54.820312 49.097656 54.6875 49.132812 54.542969 49.164062 C 54.421875 49.1875 54.296875 49.214844 54.164062 49.230469 C 53.996094 49.253906 53.808594 49.285156 53.601562 49.296875 C 53.441406 49.304688 53.273438 49.328125 52.972656 49.320312 C 52.722656 49.316406 52.46875 49.285156 52.242188 49.234375 C 52.003906 49.179688 51.789062 49.113281 51.632812 49.070312 C 51.371094 48.992188 50.917969 48.820312 50.585938 48.6875 C 50.457031 48.835938 50.691406 49.113281 51.015625 49.246094 C 51.113281 49.285156 51.234375 49.328125 51.367188 49.363281 C 51.566406 49.417969 51.796875 49.46875 52.054688 49.5 C 52.34375 49.539062 52.664062 49.554688 52.992188 49.535156 C 53.132812 49.53125 53.269531 49.523438 53.40625 49.511719 C 53.464844 49.503906 53.519531 49.503906 53.574219 49.496094 C 53.789062 49.472656 54 49.449219 54.214844 49.417969 C 54.527344 49.375 54.835938 49.285156 55.117188 49.203125 C 55.179688 49.183594 55.238281 49.164062 55.292969 49.144531 C 55.332031 49.132812 55.371094 49.121094 55.402344 49.109375 C 56.046875 48.875 56.65625 48.558594 57.226562 48.175781 C 57.5 47.996094 57.761719 47.804688 58.015625 47.59375 C 58.226562 47.421875 58.453125 47.234375 58.667969 47.035156 C 59 46.726562 59.304688 46.40625 59.5 46.1875 C 59.679688 45.988281 59.851562 45.800781 60.011719 45.597656 C 60.207031 45.355469 60.382812 45.097656 60.550781 44.851562 C 60.691406 44.648438 60.824219 44.460938 60.941406 44.269531 C 61.105469 44 61.253906 43.714844 61.386719 43.421875 C 61.5 43.179688 61.601562 42.933594 61.695312 42.6875 C 61.695312 42.683594 61.695312 42.683594 61.695312 42.683594 C 61.722656 42.613281 61.746094 42.546875 61.765625 42.484375 C 61.78125 42.449219 61.792969 42.414062 61.804688 42.378906 C 61.808594 42.367188 61.8125 42.355469 61.816406 42.34375 C 61.820312 42.335938 61.820312 42.324219 61.824219 42.316406 C 61.84375 42.261719 61.859375 42.207031 61.878906 42.152344 C 61.867188 42.183594 61.859375 42.21875 61.847656 42.253906 C 61.84375 42.273438 61.835938 42.292969 61.832031 42.316406 C 61.984375 41.871094 62.109375 41.410156 62.207031 40.9375 C 62.3125 40.441406 62.378906 39.929688 62.417969 39.410156 C 62.425781 39.273438 62.425781 39.105469 62.429688 39.003906 Z M 62.429688 39.003906 "/>
    <path style=" stroke:none;fill-rule:nonzero;fill:url(#linear18);" d="M 69.019531 17.726562 C 68.984375 17.714844 68.949219 17.703125 68.914062 17.695312 C 68.859375 17.679688 68.800781 17.664062 68.742188 17.644531 C 68.734375 17.640625 68.730469 17.640625 68.722656 17.640625 C 68.652344 17.621094 68.578125 17.601562 68.5 17.585938 C 68.34375 17.546875 68.183594 17.511719 68.007812 17.484375 C 67.964844 17.476562 67.917969 17.46875 67.875 17.464844 C 67.785156 17.449219 67.695312 17.4375 67.597656 17.425781 C 67.550781 17.421875 67.503906 17.417969 67.457031 17.410156 C 67.421875 17.410156 67.382812 17.40625 67.347656 17.402344 C 67.335938 17.402344 67.320312 17.402344 67.304688 17.398438 C 67.296875 17.398438 67.292969 17.398438 67.285156 17.398438 C 67.242188 17.394531 67.199219 17.394531 67.160156 17.390625 C 67.109375 17.386719 67.058594 17.386719 67.007812 17.382812 C 66.757812 17.375 66.492188 17.378906 66.226562 17.390625 C 66.179688 17.390625 66.136719 17.394531 66.089844 17.398438 C 66.054688 17.398438 66.019531 17.398438 65.984375 17.402344 C 65.902344 17.40625 65.820312 17.414062 65.742188 17.417969 C 65.742188 17.417969 65.058594 17.476562 64.714844 17.53125 C 64.480469 17.574219 63.796875 17.71875 63.796875 17.71875 L 63.347656 17.824219 L 63.34375 17.824219 C 63.308594 17.832031 63.273438 17.839844 63.234375 17.851562 C 63.1875 17.863281 63.144531 17.875 63.097656 17.882812 C 63.074219 17.890625 63.054688 17.894531 63.03125 17.902344 C 62.964844 17.917969 62.898438 17.933594 62.832031 17.953125 C 62.628906 18.007812 62.4375 18.058594 62.261719 18.109375 C 62.226562 18.117188 62.1875 18.125 62.152344 18.136719 C 62.027344 18.171875 61.910156 18.207031 61.804688 18.238281 C 61.773438 18.25 61.746094 18.257812 61.71875 18.261719 C 61.578125 18.304688 61.46875 18.339844 61.394531 18.363281 C 61.382812 18.363281 61.375 18.367188 61.367188 18.371094 C 61.355469 18.375 61.347656 18.375 61.339844 18.378906 C 61.339844 18.378906 61.335938 18.378906 61.332031 18.382812 C 61.324219 18.382812 61.316406 18.386719 61.308594 18.390625 C 61.300781 18.390625 61.296875 18.390625 61.296875 18.394531 C 61.285156 18.394531 61.28125 18.394531 61.277344 18.398438 L 61.273438 18.398438 C 61.261719 18.410156 61.246094 18.421875 61.234375 18.433594 C 61.09375 18.550781 60.949219 18.675781 60.800781 18.804688 C 60.507812 19.0625 60.207031 19.339844 59.894531 19.636719 C 59.011719 20.472656 58.074219 21.445312 57.199219 22.398438 C 55.992188 23.710938 54.898438 24.996094 54.222656 25.871094 C 55.589844 26.648438 56.910156 27.433594 58.175781 28.65625 C 59.417969 28.761719 62.335938 28.960938 64.292969 28.675781 C 66.839844 28.304688 70.527344 27.234375 70.527344 27.234375 L 70.53125 26.785156 L 74.34375 26.265625 C 74.054688 24.597656 73.777344 23.953125 73.429688 23.078125 C 73.054688 22.136719 72.1875 20.652344 71.882812 20.214844 C 71.558594 19.746094 71.582031 19.761719 70.816406 18.6875 C 70.816406 18.6875 69.984375 18.046875 69.019531 17.726562 Z M 69.019531 17.726562 "/>
  </g>
</svg>