<?xml version="1.0" encoding="UTF-8" standalone="yes"?>
<svg xmlns="http://www.w3.org/2000/svg" xmlns:xlink="http://www.w3.org/1999/xlink" width="269.3333333333333px" height="106.66666666666666px" viewBox="0 0 202 80" version="1.1">
  <g id="surface1">
    <path style=" stroke:none;fill-rule:nonzero;fill:rgb(42.745098%,8.235294%,62.745098%);fill-opacity:1;" d="M 142.277344 53.074219 L 142.277344 77.804688 C 142.277344 78.535156 141.59375 79.238281 140.847656 79.238281 L 120.261719 79.238281 C 119.535156 79.238281 118.800781 78.832031 118.800781 77.691406 L 118.800781 53.085938 C 118.800781 51.945312 118.214844 51.464844 117.023438 51.464844 L 89.972656 51.464844 L 90.777344 27.929688 L 116.988281 27.929688 C 118.210938 27.929688 118.800781 27.382812 118.800781 26.269531 L 118.800781 2.5 C 118.800781 1.160156 119.378906 0.304688 120.984375 0.304688 L 140.492188 0.304688 C 141.585938 0.304688 142.277344 0.976562 142.277344 2.09375 L 142.277344 26.269531 C 142.277344 27.289062 142.558594 27.929688 144.070312 27.929688 L 165.042969 27.929688 L 165.042969 50 C 165.042969 50.730469 164.636719 51.464844 163.5 51.464844 L 144.074219 51.464844 C 142.726562 51.464844 142.277344 52.113281 142.277344 53.074219 Z M 142.277344 53.074219 "/>
    <path style=" stroke:none;fill-rule:nonzero;fill:rgb(58.039216%,10.588235%,78.431373%);fill-opacity:1;" d="M 45.851562 79.238281 L 29.449219 79.238281 C 28.082031 79.238281 27.570312 78.078125 27.117188 76.679688 L 0.539062 2.367188 C 0.164062 1.386719 0.0585938 0.308594 1.589844 0.308594 L 22.710938 0.308594 C 24.222656 0.300781 24.710938 1.121094 25.226562 2.65625 L 36.992188 40.890625 C 37.335938 42.054688 37.972656 42.089844 38.339844 40.84375 L 50.234375 2.070312 C 50.472656 1.167969 51.148438 0.304688 52.425781 0.304688 L 96.851562 0.304688 C 97.949219 0.304688 98.636719 0.976562 98.636719 2.09375 L 98.636719 77.804688 C 98.636719 78.535156 97.957031 79.238281 97.210938 79.238281 L 76.480469 79.238281 C 75.753906 79.238281 75.019531 78.832031 75.019531 77.691406 L 75.019531 4.828125 C 75.019531 4 74.296875 3.648438 73.84375 4.828125 L 48.210938 76.839844 C 47.777344 78.035156 47.21875 79.238281 45.851562 79.238281 Z M 45.851562 79.238281 "/>
    <path style=" stroke:none;fill-rule:nonzero;fill:rgb(58.039216%,10.588235%,78.431373%);fill-opacity:1;" d="M 199.910156 0.304688 C 201.007812 0.304688 201.695312 0.976562 201.695312 2.09375 L 201.695312 77.804688 C 201.695312 78.535156 201.015625 79.238281 200.269531 79.238281 L 179.683594 79.238281 C 178.957031 79.238281 178.222656 78.832031 178.222656 77.691406 L 178.222656 29.667969 C 178.222656 28.617188 177.6875 27.929688 176.613281 27.929688 L 165.042969 27.929688 L 165.042969 13.101562 C 165.042969 11.917969 165.515625 11.371094 166.621094 10.480469 L 177.347656 2.324219 C 178.9375 1.152344 179.671875 0.304688 181.203125 0.304688 Z M 199.910156 0.304688 "/>
  </g>
</svg>