<?xml version="1.0" encoding="UTF-8" ?>
<!DOCTYPE svg PUBLIC "-//W3C//DTD SVG 1.1//EN" "http://www.w3.org/Graphics/SVG/1.1/DTD/svg11.dtd">
<svg width="300pt" height="300pt" viewBox="0 0 300 300" version="1.1" xmlns="http://www.w3.org/2000/svg">
<g id="#ffffffff">
<path fill="#ffffff" opacity="1.00" d=" M 136.25 107.34 C 148.02 104.40 160.35 104.27 172.32 106.01 C 166.61 108.15 161.43 111.38 156.07 114.23 C 154.47 114.99 153.68 116.65 152.66 117.99 C 147.71 118.64 142.82 120.74 139.92 124.98 C 139.49 124.83 138.63 124.51 138.20 124.36 C 133.28 126.59 128.94 129.88 124.02 132.11 C 121.54 133.22 119.61 135.16 117.75 137.08 C 116.82 131.25 116.60 124.93 119.39 119.55 C 122.53 112.93 129.52 109.29 136.25 107.34 Z" />
</g>
<g id="#009ec5ff">
<path fill="#009ec5" opacity="1.00" d=" M 111.01 74.14 C 121.06 71.74 131.44 71.25 141.70 70.37 C 141.56 70.56 141.28 70.93 141.14 71.11 C 134.56 70.74 128.50 73.69 122.31 75.42 C 118.53 75.13 114.78 74.49 111.01 74.14 Z" />
</g>
<g id="#128ab6ff">
<path fill="#128ab6" opacity="1.00" d=" M 141.70 70.37 L 141.79 70.20 C 145.17 70.44 148.57 70.31 151.96 70.38 C 141.47 71.64 130.95 73.43 121.05 77.24 C 109.67 81.52 99.04 87.93 90.21 96.32 C 89.12 97.31 88.19 98.52 86.88 99.24 L 86.52 99.08 C 87.49 96.96 88.93 95.11 90.01 93.06 C 87.14 95.09 84.41 97.31 81.48 99.26 C 81.45 98.62 81.39 97.36 81.36 96.73 C 85.98 93.40 90.82 90.39 95.70 87.46 C 99.70 85.74 103.48 83.58 107.44 81.77 C 109.00 81.04 110.56 80.30 112.14 79.61 C 115.55 78.25 118.99 76.97 122.31 75.42 C 128.50 73.69 134.56 70.74 141.14 71.11 C 141.28 70.93 141.56 70.56 141.70 70.37 Z" />
</g>
<g id="#0ab0d3ff">
<path fill="#0ab0d3" opacity="1.00" d=" M 102.32 75.90 C 105.19 75.21 108.06 74.45 111.01 74.14 C 114.78 74.49 118.53 75.13 122.31 75.42 C 118.99 76.97 115.55 78.25 112.14 79.61 C 108.80 78.58 105.33 77.76 102.32 75.90 Z" />
</g>
<g id="#d2c263ff">
<path fill="#d2c263" opacity="1.00" d=" M 188.76 74.34 C 192.58 73.54 196.35 75.34 200.03 76.17 L 200.58 76.55 C 202.79 78.09 205.09 79.53 207.42 80.90 C 201.14 78.89 195.13 76.12 188.76 74.34 Z" />
</g>
<g id="#2db5d6ff">
<path fill="#2db5d6" opacity="1.00" d=" M 91.26 79.10 C 94.85 77.74 98.57 76.73 102.32 75.90 C 105.33 77.76 108.80 78.58 112.14 79.61 C 110.56 80.30 109.00 81.04 107.44 81.77 C 104.69 80.98 101.92 80.12 99.05 79.97 C 96.44 79.79 93.68 80.41 91.26 79.10 Z" />
</g>
<g id="#ffd602ff">
<path fill="#ffd602" opacity="1.00" d=" M 200.58 76.55 C 218.53 81.01 236.00 88.22 251.03 99.11 C 264.30 108.75 275.45 122.21 279.38 138.41 C 279.15 142.29 280.11 146.14 279.98 150.04 C 280.14 157.02 277.91 163.80 274.91 170.02 C 273.47 165.01 273.31 159.77 272.32 154.68 C 269.69 142.99 264.32 132.11 257.71 122.17 C 257.40 122.59 256.79 123.44 256.48 123.86 C 255.34 120.55 253.92 117.30 251.64 114.59 C 245.93 106.00 237.89 99.32 229.47 93.50 C 228.05 92.61 226.50 91.99 224.97 91.34 C 224.36 91.05 223.79 90.72 223.25 90.33 C 220.46 87.92 217.33 85.93 214.02 84.31 L 212.60 83.60 C 212.55 83.58 212.46 83.53 212.41 83.51 L 210.54 82.57 C 210.50 82.55 210.42 82.51 210.37 82.48 L 208.57 81.55 C 208.53 81.52 208.45 81.48 208.41 81.46 L 207.42 80.90 C 205.09 79.53 202.79 78.09 200.58 76.55 Z" />
</g>
<g id="#5bbadaff">
<path fill="#5bbada" opacity="1.00" d=" M 70.36 86.79 C 77.13 83.82 84.08 80.55 91.26 79.10 C 93.68 80.41 96.44 79.79 99.05 79.97 C 101.92 80.12 104.69 80.98 107.44 81.77 C 103.48 83.58 99.70 85.74 95.70 87.46 C 82.62 88.54 69.86 95.73 63.28 107.27 C 60.59 112.41 57.59 117.77 57.43 123.71 C 53.63 132.09 51.03 141.05 50.87 150.30 C 47.79 135.94 48.44 120.27 55.05 106.94 C 58.35 99.59 63.46 92.85 70.35 88.54 C 70.35 88.18 70.36 87.45 70.36 87.09 L 70.36 86.79 Z" />
</g>
<g id="#b8b07aff">
<path fill="#b8b07a" opacity="1.00" d=" M 208.41 81.46 C 208.45 81.48 208.53 81.52 208.57 81.55 C 208.53 81.52 208.45 81.48 208.41 81.46 Z" />
</g>
<g id="#bcb688ff">
<path fill="#bcb688" opacity="1.00" d=" M 210.37 82.48 C 210.42 82.51 210.50 82.55 210.54 82.57 C 210.50 82.55 210.42 82.51 210.37 82.48 Z" />
</g>
<g id="#c1b677ff">
<path fill="#c1b677" opacity="1.00" d=" M 212.41 83.51 C 212.46 83.53 212.55 83.58 212.60 83.60 C 212.55 83.58 212.46 83.53 212.41 83.51 Z" />
</g>
<g id="#b4bdc9ff">
<path fill="#b4bdc9" opacity="1.00" d=" M 214.02 84.31 C 217.33 85.93 220.46 87.92 223.25 90.33 C 219.65 89.31 216.96 86.57 213.79 84.73 L 214.02 84.31 Z" />
<path fill="#b4bdc9" opacity="1.00" d=" M 140.88 130.77 C 142.93 133.26 145.57 135.37 148.89 135.75 C 161.35 138.03 173.97 139.51 186.30 142.43 C 194.57 144.55 203.62 150.25 204.82 159.31 C 204.56 159.82 204.06 160.84 203.80 161.34 C 203.63 160.76 203.28 159.58 203.10 158.99 C 201.93 155.55 200.31 151.72 196.81 150.10 C 194.35 150.42 192.17 151.73 189.88 152.59 C 184.50 154.93 178.91 156.69 173.40 158.68 C 167.34 157.16 161.14 156.27 155.01 155.11 C 148.66 153.90 142.11 153.89 135.88 152.04 C 142.26 152.35 147.96 149.15 153.59 146.63 C 158.16 144.44 163.02 142.96 167.69 141.00 C 160.93 139.10 153.86 138.65 147.09 136.81 C 144.54 136.15 142.27 134.71 140.35 132.94 L 140.27 132.58 C 140.43 132.12 140.73 131.22 140.88 130.77 Z" />
</g>
<g id="#7abedeff">
<path fill="#7abede" opacity="1.00" d=" M 63.28 107.27 C 69.86 95.73 82.62 88.54 95.70 87.46 C 90.82 90.39 85.98 93.40 81.36 96.73 C 79.85 97.84 78.42 99.03 77.02 100.27 C 68.83 106.51 62.56 114.87 57.43 123.71 C 57.59 117.77 60.59 112.41 63.28 107.27 Z" />
</g>
<g id="#27b5d6ff">
<path fill="#27b5d6" opacity="1.00" d=" M 58.00 93.55 C 61.91 91.02 66.04 88.82 70.36 87.09 C 70.36 87.45 70.35 88.18 70.35 88.54 C 63.46 92.85 58.35 99.59 55.05 106.94 C 48.44 120.27 47.79 135.94 50.87 150.30 C 51.25 152.76 51.65 155.22 52.06 157.68 C 52.67 161.62 53.88 165.42 55.16 169.18 C 49.71 162.72 48.01 154.04 46.08 146.02 C 43.45 131.16 45.79 115.30 52.96 101.99 C 54.46 98.97 56.88 96.60 59.08 94.10 L 58.00 93.55 Z" />
</g>
<g id="#faef7bff">
<path fill="#faef7b" opacity="1.00" d=" M 224.97 91.34 C 226.50 91.99 228.05 92.61 229.47 93.50 C 237.89 99.32 245.93 106.00 251.64 114.59 C 251.48 119.58 254.66 123.69 255.34 128.50 C 256.79 137.59 256.46 146.82 256.35 155.98 C 256.03 162.61 255.52 169.52 252.34 175.49 C 250.61 178.67 249.21 182.05 248.62 185.64 C 251.76 183.44 253.96 180.25 255.59 176.83 C 256.55 174.98 257.51 173.12 258.40 171.24 C 259.68 179.18 254.35 186.50 255.08 194.38 C 242.88 204.61 228.37 211.86 213.26 216.72 C 209.36 217.99 205.45 219.33 201.36 219.82 C 202.22 218.89 203.22 218.16 204.36 217.64 C 222.54 209.81 238.33 195.83 246.95 177.87 C 253.94 164.08 255.17 147.88 251.79 132.91 C 248.14 118.38 239.64 105.34 228.50 95.42 C 227.13 94.24 225.80 92.97 224.97 91.34 Z" />
</g>
<g id="#128eb9ff">
<path fill="#128eb9" opacity="1.00" d=" M 90.01 93.06 C 88.93 95.11 87.49 96.96 86.52 99.08 L 86.14 99.85 C 84.66 102.39 82.37 104.31 80.68 106.70 C 77.64 110.45 75.55 114.82 72.84 118.79 C 73.33 113.84 77.33 110.41 78.99 105.90 C 62.65 120.03 54.52 142.95 57.69 164.27 C 58.66 169.81 60.79 175.02 62.74 180.25 C 59.19 177.33 57.80 172.81 55.16 169.18 C 53.88 165.42 52.67 161.62 52.06 157.68 C 54.14 153.91 53.05 149.49 53.62 145.41 C 55.41 131.30 61.92 117.97 71.39 107.43 C 73.56 105.29 75.71 103.07 77.02 100.27 C 78.42 99.03 79.85 97.84 81.36 96.73 C 81.39 97.36 81.45 98.62 81.48 99.26 C 84.41 97.31 87.14 95.09 90.01 93.06 Z" />
</g>
<g id="#06a8cdff">
<path fill="#06a8cd" opacity="1.00" d=" M 39.34 107.83 C 44.87 102.25 51.29 97.60 58.00 93.55 L 59.08 94.10 C 56.88 96.60 54.46 98.97 52.96 101.99 C 45.79 115.30 43.45 131.16 46.08 146.02 C 48.01 154.04 49.71 162.72 55.16 169.18 C 57.80 172.81 59.19 177.33 62.74 180.25 C 60.79 175.02 58.66 169.81 57.69 164.27 C 54.52 142.95 62.65 120.03 78.99 105.90 C 77.33 110.41 73.33 113.84 72.84 118.79 C 69.16 128.10 66.18 137.88 66.28 148.01 C 65.75 164.98 72.87 181.44 83.76 194.20 C 92.84 205.32 105.20 213.19 118.16 219.04 C 109.07 216.41 100.43 212.48 92.26 207.74 C 85.03 204.89 76.88 204.13 70.41 199.45 C 64.50 194.79 57.73 190.97 53.39 184.63 C 48.75 177.76 43.73 170.98 40.87 163.12 C 34.12 145.65 34.34 126.01 39.28 108.12 L 39.34 107.83 Z" />
</g>
<g id="#1979a7ff">
<path fill="#1979a7" opacity="1.00" d=" M 57.43 123.71 C 62.56 114.87 68.83 106.51 77.02 100.27 C 75.71 103.07 73.56 105.29 71.39 107.43 C 61.92 117.97 55.41 131.30 53.62 145.41 C 53.05 149.49 54.14 153.91 52.06 157.68 C 51.65 155.22 51.25 152.76 50.87 150.30 C 51.03 141.05 53.63 132.09 57.43 123.71 Z" />
</g>
<g id="#abb2beff">
<path fill="#abb2be" opacity="1.00" d=" M 141.04 104.99 C 152.83 103.00 164.95 103.28 176.71 105.39 C 184.44 107.09 192.42 110.33 197.29 116.87 C 200.65 121.18 202.14 126.64 202.34 132.04 C 193.53 132.11 184.71 132.12 175.90 132.01 C 175.37 127.24 172.26 122.87 167.52 121.52 C 160.86 119.55 153.28 119.08 146.72 121.61 C 142.87 123.04 141.09 126.90 140.88 130.77 C 140.73 131.22 140.43 132.12 140.27 132.58 C 139.69 130.08 139.49 127.52 139.92 124.98 C 142.82 120.74 147.71 118.64 152.66 117.99 C 159.16 117.85 165.96 118.19 171.82 121.34 C 174.38 123.67 175.98 126.77 177.23 129.95 C 184.85 130.15 192.47 129.74 200.09 129.75 C 199.79 122.04 195.33 114.63 188.39 111.14 C 183.39 108.52 177.95 106.63 172.32 106.01 C 160.35 104.27 148.02 104.40 136.25 107.34 C 129.52 109.29 122.53 112.93 119.39 119.55 C 116.60 124.93 116.82 131.25 117.75 137.08 C 118.58 139.26 119.60 141.37 120.79 143.38 C 124.58 148.01 130.31 150.35 135.88 152.04 C 142.11 153.89 148.66 153.90 155.01 155.11 C 161.14 156.27 167.34 157.16 173.40 158.68 C 174.09 159.00 175.46 159.65 176.15 159.97 L 176.25 161.24 L 175.06 161.09 C 170.05 159.69 164.99 158.51 159.85 157.74 C 148.33 155.26 135.78 155.88 125.39 149.56 C 112.38 141.92 112.52 120.95 123.97 111.97 C 128.83 108.03 134.95 106.05 141.04 104.99 Z" />
</g>
<g id="#eef0f3ff">
<path fill="#eef0f3" opacity="1.00" d=" M 172.32 106.01 C 177.95 106.63 183.39 108.52 188.39 111.14 C 182.86 114.53 176.66 116.90 171.82 121.34 C 165.96 118.19 159.16 117.85 152.66 117.99 C 153.68 116.65 154.47 114.99 156.07 114.23 C 161.43 111.38 166.61 108.15 172.32 106.01 Z" />
</g>
<g id="#0e91baff">
<path fill="#0e91ba" opacity="1.00" d=" M 23.89 130.13 C 27.34 121.82 32.59 114.14 39.28 108.12 C 34.34 126.01 34.12 145.65 40.87 163.12 C 43.73 170.98 48.75 177.76 53.39 184.63 C 57.73 190.97 64.50 194.79 70.41 199.45 C 76.88 204.13 85.03 204.89 92.26 207.74 C 100.43 212.48 109.07 216.41 118.16 219.04 C 123.50 221.00 128.94 222.64 134.35 224.39 C 124.40 225.03 114.60 222.54 104.72 221.90 C 102.41 221.73 100.19 221.07 97.98 220.47 C 81.05 215.88 64.49 209.14 50.20 198.85 C 48.81 197.80 47.31 196.84 46.18 195.51 C 42.63 189.22 38.81 183.09 35.24 176.81 C 30.04 166.82 27.81 155.72 25.36 144.84 C 24.49 139.96 26.05 134.78 23.89 130.13 Z" />
</g>
<g id="#d8dde4ff">
<path fill="#d8dde4" opacity="1.00" d=" M 188.39 111.14 C 195.33 114.63 199.79 122.04 200.09 129.75 C 192.47 129.74 184.85 130.15 177.23 129.95 C 175.98 126.77 174.38 123.67 171.82 121.34 C 176.66 116.90 182.86 114.53 188.39 111.14 Z" />
</g>
<g id="#fdde3bff">
<path fill="#fdde3b" opacity="1.00" d=" M 251.64 114.59 C 253.92 117.30 255.34 120.55 256.48 123.86 C 256.79 123.44 257.40 122.59 257.71 122.17 C 264.32 132.11 269.69 142.99 272.32 154.68 C 273.31 159.77 273.47 165.01 274.91 170.02 C 274.21 171.20 273.43 172.32 272.69 173.47 C 272.04 176.68 269.50 179.01 267.45 181.40 C 266.48 175.01 267.52 168.54 266.60 162.15 C 265.86 157.07 264.57 152.09 263.61 147.05 C 263.32 149.79 262.94 152.53 262.47 155.26 C 262.25 145.58 263.07 135.02 257.85 126.42 C 257.74 130.73 258.85 134.91 259.45 139.15 C 260.23 149.61 259.80 160.37 256.25 170.34 C 255.60 172.41 254.45 174.68 255.59 176.83 C 253.96 180.25 251.76 183.44 248.62 185.64 C 249.21 182.05 250.61 178.67 252.34 175.49 C 255.52 169.52 256.03 162.61 256.35 155.98 C 256.46 146.82 256.79 137.59 255.34 128.50 C 254.66 123.69 251.48 119.58 251.64 114.59 Z" />
</g>
<g id="#f1f3f5ff">
<path fill="#f1f3f5" opacity="1.00" d=" M 138.20 124.36 C 138.63 124.51 139.49 124.83 139.92 124.98 C 139.49 127.52 139.69 130.08 140.27 132.58 L 140.35 132.94 C 133.48 135.74 127.38 140.02 120.79 143.38 C 119.60 141.37 118.58 139.26 117.75 137.08 C 119.61 135.16 121.54 133.22 124.02 132.11 C 128.94 129.88 133.28 126.59 138.20 124.36 Z" />
</g>
<g id="#fed60bff">
<path fill="#fed60b" opacity="1.00" d=" M 257.85 126.42 C 263.07 135.02 262.25 145.58 262.47 155.26 C 261.74 160.73 259.98 165.97 258.40 171.24 C 257.51 173.12 256.55 174.98 255.59 176.83 C 254.45 174.68 255.60 172.41 256.25 170.34 C 259.80 160.37 260.23 149.61 259.45 139.15 C 258.85 134.91 257.74 130.73 257.85 126.42 Z" />
</g>
<g id="#1283aeff">
<path fill="#1283ae" opacity="1.00" d=" M 23.89 130.13 C 26.05 134.78 24.49 139.96 25.36 144.84 C 27.81 155.72 30.04 166.82 35.24 176.81 C 38.81 183.09 42.63 189.22 46.18 195.51 C 33.64 186.08 23.67 172.49 20.70 156.88 C 19.33 147.88 20.32 138.53 23.89 130.13 Z" />
<path fill="#1283ae" opacity="1.00" d=" M 104.72 221.90 C 114.60 222.54 124.40 225.03 134.35 224.39 C 140.19 224.81 145.91 226.45 151.80 226.51 C 151.75 226.74 151.66 227.19 151.62 227.42 C 135.91 226.58 119.99 225.95 104.72 221.90 Z" />
</g>
<g id="#dde2e8ff">
<path fill="#dde2e8" opacity="1.00" d=" M 120.79 143.38 C 127.38 140.02 133.48 135.74 140.35 132.94 C 142.27 134.71 144.54 136.15 147.09 136.81 C 153.86 138.65 160.93 139.10 167.69 141.00 C 163.02 142.96 158.16 144.44 153.59 146.63 C 147.96 149.15 142.26 152.35 135.88 152.04 C 130.31 150.35 124.58 148.01 120.79 143.38 Z" />
<path fill="#dde2e8" opacity="1.00" d=" M 180.42 167.92 C 187.86 164.64 195.54 161.97 203.10 158.99 C 203.28 159.58 203.63 160.76 203.80 161.34 C 203.80 164.27 203.89 167.23 203.37 170.13 C 203.29 169.43 203.12 168.02 203.03 167.32 C 200.11 170.18 196.04 171.05 192.34 172.44 C 180.12 177.19 168.04 182.34 155.62 186.56 C 151.36 188.39 147.01 190.03 142.46 190.97 C 137.82 190.59 133.40 189.00 129.19 187.08 C 136.50 185.39 143.20 181.97 150.27 179.57 C 150.50 178.96 150.74 178.34 150.97 177.73 C 158.62 179.65 167.06 179.61 174.28 176.19 C 177.61 174.69 179.75 171.45 180.42 167.92 Z" />
</g>
<g id="#fce760ff">
<path fill="#fce760" opacity="1.00" d=" M 262.47 155.26 C 262.94 152.53 263.32 149.79 263.61 147.05 C 264.57 152.09 265.86 157.07 266.60 162.15 C 267.52 168.54 266.48 175.01 267.45 181.40 C 264.15 186.44 259.80 190.66 255.08 194.38 C 254.35 186.50 259.68 179.18 258.40 171.24 C 259.98 165.97 261.74 160.73 262.47 155.26 Z" />
</g>
<g id="#cbd1daff">
<path fill="#cbd1da" opacity="1.00" d=" M 189.88 152.59 C 192.17 151.73 194.35 150.42 196.81 150.10 C 200.31 151.72 201.93 155.55 203.10 158.99 C 195.54 161.97 187.86 164.64 180.42 167.92 C 180.28 164.74 179.34 161.34 176.15 159.97 C 175.46 159.65 174.09 159.00 173.40 158.68 C 178.91 156.69 184.50 154.93 189.88 152.59 Z" />
</g>
<g id="#b7c0ccff">
<path fill="#b7c0cc" opacity="1.00" d=" M 176.15 159.97 C 179.34 161.34 180.28 164.74 180.42 167.92 C 179.75 171.45 177.61 174.69 174.28 176.19 C 167.06 179.61 158.62 179.65 150.97 177.73 C 146.60 176.99 143.41 173.91 140.04 171.33 C 133.19 173.17 126.90 176.72 119.98 178.42 C 121.34 180.34 122.68 182.27 124.15 184.10 C 123.69 184.18 122.76 184.32 122.29 184.39 C 116.24 179.56 113.87 171.33 114.02 163.79 C 122.97 163.45 131.95 163.59 140.91 163.70 C 141.54 167.74 142.65 172.45 146.82 174.23 C 154.92 177.86 164.70 178.71 172.98 175.15 C 176.24 173.87 178.76 170.63 178.44 167.02 C 178.55 164.49 176.56 162.82 175.06 161.09 L 176.25 161.24 L 176.15 159.97 Z" />
</g>
<g id="#9ca3afff">
<path fill="#9ca3af" opacity="1.00" d=" M 203.80 161.34 C 204.06 160.84 204.56 159.82 204.82 159.31 C 206.88 168.63 204.09 179.37 196.25 185.26 C 186.54 192.53 173.81 194.10 162.02 194.02 C 148.44 194.11 133.24 193.48 122.29 184.39 C 122.76 184.32 123.69 184.18 124.15 184.10 C 125.82 185.12 127.46 186.18 129.19 187.08 C 133.40 189.00 137.82 190.59 142.46 190.97 C 146.80 191.65 151.18 192.07 155.57 192.16 C 167.01 192.55 178.98 192.25 189.56 187.40 C 194.55 185.02 199.07 181.20 201.45 176.13 C 202.29 174.20 203.01 172.21 203.37 170.13 C 203.89 167.23 203.80 164.27 203.80 161.34 Z" />
</g>
<g id="#eceff3ff">
<path fill="#eceff3" opacity="1.00" d=" M 192.34 172.44 C 196.04 171.05 200.11 170.18 203.03 167.32 C 203.12 168.02 203.29 169.43 203.37 170.13 C 203.01 172.21 202.29 174.20 201.45 176.13 C 201.26 175.67 200.90 174.76 200.72 174.30 C 190.28 178.33 179.76 182.15 169.42 186.42 C 164.77 188.26 159.86 189.51 155.57 192.16 C 151.18 192.07 146.80 191.65 142.46 190.97 C 147.01 190.03 151.36 188.39 155.62 186.56 C 168.04 182.34 180.12 177.19 192.34 172.44 Z" />
</g>
<g id="#cad1daff">
<path fill="#cad1da" opacity="1.00" d=" M 119.98 178.42 C 126.90 176.72 133.19 173.17 140.04 171.33 C 143.41 173.91 146.60 176.99 150.97 177.73 C 150.74 178.34 150.50 178.96 150.27 179.57 C 143.20 181.97 136.50 185.39 129.19 187.08 C 127.46 186.18 125.82 185.12 124.15 184.10 C 122.68 182.27 121.34 180.34 119.98 178.42 Z" />
</g>
<g id="#fafbfbff">
<path fill="#fafbfb" opacity="1.00" d=" M 169.42 186.42 C 179.76 182.15 190.28 178.33 200.72 174.30 C 200.90 174.76 201.26 175.67 201.45 176.13 C 199.07 181.20 194.55 185.02 189.56 187.40 C 178.98 192.25 167.01 192.55 155.57 192.16 C 159.86 189.51 164.77 188.26 169.42 186.42 Z" />
</g>
</svg>
