<?xml version="1.0" encoding="UTF-8" standalone="no"?>
<!-- Created with Inkscape (http://www.inkscape.org/) -->
<svg xmlns:dc="http://purl.org/dc/elements/1.1/" xmlns:cc="http://web.resource.org/cc/" xmlns:rdf="http://www.w3.org/1999/02/22-rdf-syntax-ns#" xmlns:svg="http://www.w3.org/2000/svg" xmlns="http://www.w3.org/2000/svg" xmlns:xlink="http://www.w3.org/1999/xlink" xmlns:sodipodi="http://sodipodi.sourceforge.net/DTD/sodipodi-0.dtd" xmlns:inkscape="http://www.inkscape.org/namespaces/inkscape" width="391" height="124" id="svg2" sodipodi:version="0.32" inkscape:version="0.45.1" version="1.0" inkscape:output_extension="org.inkscape.output.svg.inkscape">
  <g inkscape:label="Layer 1" inkscape:groupmode="layer" id="layer1" transform="translate(-156.95416,-771.75632)">
    <path id="path2362" d="M 100.27916,119.84132 L 100.27916,119.84132" style="fill:#ffffff;fill-rule:nonzero;stroke:none"/>
    <path id="path3268" d="M 264.47246,895.75632 L 224.97206,895.75632 L 156.95416,771.75632 L 218.21276,771.75632 L 245.25246,824.35752 L 273.34326,771.75632 L 322.21016,771.75632 C 301.67286,784.04252 287.92236,806.50092 287.92236,832.17732 C 287.92236,838.26642 288.69356,844.16962 290.14636,849.80652 L 264.47246,895.75632" style="fill:#000000;fill-rule:nonzero;stroke:none"/>
    <path id="path3270" d="M 432.19576,895.75632 L 388.39206,895.75632 C 412.17026,884.47312 428.60846,860.24052 428.60846,832.17732 C 428.60846,806.50092 414.85796,784.04252 394.31816,771.75632 L 442.97176,771.75632 L 459.23306,792.67242 L 475.28796,771.75632 L 544.15296,771.75632 L 491.34286,830.69452 L 547.95376,895.75632 L 480.57146,895.75632 L 457.96616,867.23632 L 432.19576,895.75632" style="fill:#000000;fill-rule:nonzero;stroke:none"/>
    <path id="path3272" d="M 331.43686,832.59262 C 331.43686,818.24542 343.06886,806.61342 357.41616,806.61342 C 371.77026,806.61342 383.40236,818.24542 383.40236,832.59262 C 383.40236,846.94682 371.77026,858.57882 357.41616,858.57882 C 343.06886,858.57882 331.43686,846.94682 331.43686,832.59262" style="fill:#e44538;fill-rule:nonzero;stroke:none"/>
  </g>
</svg>