<?xml version="1.0" encoding="UTF-8" standalone="yes"?>
<svg xmlns="http://www.w3.org/2000/svg" xmlns:xlink="http://www.w3.org/1999/xlink" width="192px" height="106.66666666666666px" viewBox="0 0 144 80" version="1.1">
  <g id="surface1">
    <path style=" stroke:none;fill-rule:nonzero;fill:rgb(58.823529%,61.176471%,62.745098%);fill-opacity:1;" d="M 6.480469 5.753906 C 46.890625 5.804688 87.300781 5.683594 127.710938 5.722656 C 127.710938 9.523438 127.6875 13.320312 127.691406 17.121094 C 127.691406 36.164062 127.628906 55.207031 127.667969 74.25 C 87.261719 74.207031 46.851562 74.308594 6.441406 74.285156 C 6.464844 51.933594 6.492188 29.585938 6.503906 7.234375 C 6.519531 6.742188 6.5 6.246094 6.480469 5.753906 M 64.621094 20.972656 C 62.328125 21.191406 60.046875 21.695312 57.941406 22.648438 C 54.355469 24.21875 51.328125 27.019531 49.460938 30.472656 C 47.292969 34.457031 46.28125 39.148438 47.078125 43.652344 C 47.898438 48.902344 51.046875 53.714844 55.464844 56.613281 C 59.710938 59.371094 64.988281 60.082031 69.9375 59.519531 C 73.691406 59.105469 77.386719 57.667969 80.253906 55.167969 C 83.617188 52.261719 85.992188 48.183594 86.726562 43.773438 C 87.402344 39.683594 86.914062 35.351562 85.070312 31.617188 C 83.136719 27.679688 79.867188 24.367188 75.839844 22.617188 C 72.328125 21.070312 68.414062 20.675781 64.621094 20.972656 M 11.785156 21.355469 C 11.941406 21.691406 12.117188 22.015625 12.253906 22.359375 C 17.320312 34.5625 22.40625 46.761719 27.507812 58.949219 C 29.726562 58.914062 31.941406 58.933594 34.160156 58.945312 C 37.34375 51.375 40.613281 43.835938 43.820312 36.273438 C 45.960938 31.308594 48.011719 26.304688 50.195312 21.359375 C 47.167969 21.304688 44.140625 21.339844 41.117188 21.339844 C 37.742188 29.78125 34.300781 38.195312 30.976562 46.652344 C 30.933594 46.632812 30.847656 46.585938 30.804688 46.5625 C 27.5 38.152344 24.1875 29.734375 20.863281 21.328125 C 17.835938 21.351562 14.8125 21.304688 11.785156 21.355469 M 83.6875 21.296875 C 87.707031 27.230469 91.84375 33.089844 95.882812 39.007812 C 92.441406 43.691406 89.101562 48.441406 85.71875 53.164062 C 84.304688 55.074219 83.019531 57.078125 81.53125 58.929688 C 84.867188 58.878906 88.203125 58.914062 91.539062 58.90625 C 94.335938 54.746094 97.160156 50.597656 99.957031 46.4375 C 100.148438 46.136719 100.328125 45.816406 100.613281 45.59375 C 103.554688 50.015625 106.425781 54.507812 109.433594 58.882812 C 112.726562 58.921875 116.027344 58.84375 119.324219 58.910156 C 118.792969 58.269531 118.355469 57.5625 117.871094 56.890625 C 113.761719 50.988281 109.65625 45.082031 105.515625 39.207031 C 105.1875 38.847656 105.710938 38.507812 105.863281 38.207031 C 109.78125 32.582031 113.695312 26.949219 117.585938 21.308594 C 114.144531 21.324219 110.703125 21.265625 107.261719 21.316406 C 105.101562 25.003906 102.859375 28.644531 100.707031 32.332031 C 100.355469 32.410156 100.324219 31.894531 100.140625 31.691406 C 98.105469 28.210938 96.09375 24.710938 94.023438 21.25 C 90.578125 21.308594 87.132812 21.261719 83.6875 21.296875 Z M 83.6875 21.296875 "/>
    <path style=" stroke:none;fill-rule:nonzero;fill:rgb(58.823529%,61.176471%,62.745098%);fill-opacity:1;" d="M 65.652344 29.089844 C 68.386719 28.777344 71.257812 29.457031 73.492188 31.097656 C 75.621094 32.660156 77.296875 34.925781 77.929688 37.519531 C 78.664062 40.460938 78.242188 43.726562 76.589844 46.292969 C 75.105469 48.636719 72.808594 50.519531 70.113281 51.242188 C 67.097656 52.074219 63.722656 51.71875 61.035156 50.070312 C 58.421875 48.414062 56.445312 45.699219 55.796875 42.648438 C 55.226562 40.050781 55.683594 37.277344 56.933594 34.941406 C 58.640625 31.707031 62.023438 29.433594 65.652344 29.089844 Z M 65.652344 29.089844 "/>
    <path style=" stroke:none;fill-rule:nonzero;fill:rgb(88.627451%,14.509804%,14.509804%);fill-opacity:1;" d="M 127.710938 5.722656 C 131.492188 5.730469 135.277344 5.722656 139.0625 5.726562 C 139.058594 9.527344 139.058594 13.328125 139.0625 17.128906 C 135.273438 17.125 131.480469 17.144531 127.691406 17.121094 C 127.6875 13.320312 127.710938 9.523438 127.710938 5.722656 M 130.140625 8.160156 C 130.136719 10.34375 130.136719 12.527344 130.140625 14.710938 C 130.679688 14.707031 131.21875 14.710938 131.757812 14.730469 C 131.835938 13.4375 131.769531 12.136719 131.785156 10.839844 C 132.90625 12.109375 133.929688 13.460938 135.0625 14.722656 C 135.59375 14.710938 136.128906 14.710938 136.664062 14.714844 C 136.664062 12.53125 136.664062 10.34375 136.664062 8.160156 C 136.117188 8.160156 135.570312 8.15625 135.023438 8.160156 C 135.019531 9.449219 135.023438 10.738281 135.027344 12.027344 C 133.898438 10.820312 132.910156 9.480469 131.824219 8.230469 C 131.289062 8.054688 130.695312 8.210938 130.140625 8.160156 Z M 130.140625 8.160156 "/>
    <path style=" stroke:none;fill-rule:nonzero;fill:rgb(94.509804%,94.901961%,95.686275%);fill-opacity:1;" d="M 130.140625 8.160156 C 130.695312 8.210938 131.289062 8.054688 131.824219 8.230469 C 132.910156 9.480469 133.898438 10.820312 135.027344 12.027344 C 135.023438 10.738281 135.019531 9.449219 135.023438 8.160156 C 135.570312 8.15625 136.117188 8.160156 136.664062 8.160156 C 136.664062 10.34375 136.664062 12.53125 136.664062 14.714844 C 136.128906 14.710938 135.59375 14.710938 135.0625 14.722656 C 133.929688 13.460938 132.90625 12.109375 131.785156 10.839844 C 131.769531 12.136719 131.835938 13.4375 131.757812 14.730469 C 131.21875 14.710938 130.679688 14.707031 130.140625 14.710938 C 130.136719 12.527344 130.136719 10.34375 130.140625 8.160156 Z M 130.140625 8.160156 "/>
    <path style=" stroke:none;fill-rule:nonzero;fill:rgb(94.509804%,94.901961%,95.686275%);fill-opacity:1;" d="M 64.621094 20.972656 C 68.414062 20.675781 72.328125 21.070312 75.839844 22.617188 C 79.867188 24.367188 83.136719 27.679688 85.070312 31.617188 C 86.914062 35.351562 87.402344 39.683594 86.726562 43.773438 C 85.992188 48.183594 83.617188 52.261719 80.253906 55.167969 C 77.386719 57.667969 73.691406 59.105469 69.9375 59.519531 C 64.988281 60.082031 59.710938 59.371094 55.464844 56.613281 C 51.046875 53.714844 47.898438 48.902344 47.078125 43.652344 C 46.28125 39.148438 47.292969 34.457031 49.460938 30.472656 C 51.328125 27.019531 54.355469 24.21875 57.941406 22.648438 C 60.046875 21.695312 62.328125 21.191406 64.621094 20.972656 M 65.652344 29.089844 C 62.023438 29.433594 58.640625 31.707031 56.933594 34.941406 C 55.683594 37.277344 55.226562 40.050781 55.796875 42.648438 C 56.445312 45.699219 58.421875 48.414062 61.035156 50.070312 C 63.722656 51.71875 67.097656 52.074219 70.113281 51.242188 C 72.808594 50.519531 75.105469 48.636719 76.589844 46.292969 C 78.242188 43.726562 78.664062 40.460938 77.929688 37.519531 C 77.296875 34.925781 75.621094 32.660156 73.492188 31.097656 C 71.257812 29.457031 68.386719 28.777344 65.652344 29.089844 Z M 65.652344 29.089844 "/>
    <path style=" stroke:none;fill-rule:nonzero;fill:rgb(94.509804%,94.901961%,95.686275%);fill-opacity:1;" d="M 11.785156 21.355469 C 14.8125 21.304688 17.835938 21.351562 20.863281 21.328125 C 24.1875 29.734375 27.5 38.152344 30.804688 46.5625 C 30.847656 46.585938 30.933594 46.632812 30.976562 46.652344 C 34.300781 38.195312 37.742188 29.78125 41.117188 21.339844 C 44.140625 21.339844 47.167969 21.304688 50.195312 21.359375 C 48.011719 26.304688 45.960938 31.308594 43.820312 36.273438 C 40.613281 43.835938 37.34375 51.375 34.160156 58.945312 C 31.941406 58.933594 29.726562 58.914062 27.507812 58.949219 C 22.40625 46.761719 17.320312 34.5625 12.253906 22.359375 C 12.117188 22.015625 11.941406 21.691406 11.785156 21.355469 Z M 11.785156 21.355469 "/>
    <path style=" stroke:none;fill-rule:nonzero;fill:rgb(94.509804%,94.901961%,95.686275%);fill-opacity:1;" d="M 83.6875 21.296875 C 87.132812 21.261719 90.578125 21.308594 94.023438 21.25 C 96.09375 24.710938 98.105469 28.210938 100.140625 31.691406 C 100.324219 31.894531 100.355469 32.410156 100.707031 32.332031 C 102.859375 28.644531 105.101562 25.003906 107.261719 21.316406 C 110.703125 21.265625 114.144531 21.324219 117.585938 21.308594 C 113.695312 26.949219 109.78125 32.582031 105.863281 38.207031 C 105.710938 38.507812 105.1875 38.847656 105.515625 39.207031 C 109.65625 45.082031 113.761719 50.988281 117.871094 56.890625 C 118.355469 57.5625 118.792969 58.269531 119.324219 58.910156 C 116.027344 58.84375 112.726562 58.921875 109.433594 58.882812 C 106.425781 54.507812 103.554688 50.015625 100.613281 45.59375 C 100.328125 45.816406 100.148438 46.136719 99.957031 46.4375 C 97.160156 50.597656 94.335938 54.746094 91.539062 58.90625 C 88.203125 58.914062 84.867188 58.878906 81.53125 58.929688 C 83.019531 57.078125 84.304688 55.074219 85.71875 53.164062 C 89.101562 48.441406 92.441406 43.691406 95.882812 39.007812 C 91.84375 33.089844 87.707031 27.230469 83.6875 21.296875 Z M 83.6875 21.296875 "/>
  </g>
</svg>