<?xml version="1.0" encoding="UTF-8" standalone="yes"?>
<svg xmlns="http://www.w3.org/2000/svg" xmlns:xlink="http://www.w3.org/1999/xlink" width="352px" height="106.66666666666666px" viewBox="0 0 264 80" version="1.1">
  <g id="surface1">
    <path style=" stroke:none;fill-rule:nonzero;fill:rgb(0%,21.568627%,35.294118%);fill-opacity:1;" d="M 160.839844 77.734375 L 179.808594 77.734375 L 179.808594 53.449219 L 181.257812 53.449219 C 183.421875 53.449219 188.867188 53.328125 191.828125 58.125 L 203.480469 77.734375 L 223.894531 77.734375 L 213.273438 59.878906 C 209.765625 53.894531 206.882812 50.6875 204.613281 49.039062 L 204.613281 48.84375 C 211.011719 46.574219 218.015625 41.097656 218.015625 29.9375 C 218.015625 16.117188 208.121094 8.992188 190.59375 8.992188 L 160.839844 8.992188 L 160.839844 32.851562 L 160.652344 32.851562 C 157.046875 18.457031 144.914062 8.992188 122.757812 8.992188 L 80.800781 8.992188 L 74.410156 37.0625 C 73.066406 42.84375 71.929688 50.179688 71.929688 50.179688 L 71.726562 50.179688 C 71.726562 50.179688 70.285156 42.023438 68.941406 36.234375 L 63.472656 8.992188 L 40.441406 8.992188 L 34.96875 36.234375 C 33.628906 42.023438 32.1875 50.179688 32.1875 50.179688 L 31.976562 50.179688 C 31.976562 50.179688 30.84375 42.84375 29.503906 37.0625 L 23.113281 8.992188 L 2.28125 8.992188 L 20.632812 77.734375 L 41.585938 77.734375 L 52 33.660156 L 52.203125 33.660156 L 62.621094 77.734375 L 83.242188 77.734375 L 98.519531 20.65625 L 98.722656 20.65625 L 98.722656 77.734375 L 122.140625 77.734375 C 144.609375 77.734375 157.007812 67.417969 160.65625 52.667969 L 160.839844 52.667969 Z M 123.683594 62.152344 L 117.914062 62.152344 L 117.914062 24.578125 L 123.167969 24.578125 C 135.753906 24.578125 141.421875 30.148438 141.421875 42.953125 C 141.421875 55.542969 135.753906 62.152344 123.683594 62.152344 M 190.179688 38.921875 L 179.808594 38.921875 L 179.808594 23.546875 L 189.558594 23.546875 C 196.058594 23.546875 198.742188 26.121094 198.742188 31.28125 C 198.742188 36.03125 195.957031 38.921875 190.179688 38.921875 "/>
    <path style=" stroke:none;fill-rule:nonzero;fill:rgb(0%,21.568627%,35.294118%);fill-opacity:1;" d="M 251.203125 27.128906 L 251.203125 9.40625 L 233.496094 15.808594 L 233.496094 20.207031 L 239.355469 18.078125 L 239.355469 31.390625 Z M 244.136719 2.265625 C 253.847656 2.265625 261.71875 10.191406 261.71875 19.960938 C 261.71875 29.738281 253.847656 37.65625 244.136719 37.65625 C 234.425781 37.65625 226.550781 29.738281 226.550781 19.960938 C 226.550781 10.191406 234.425781 2.265625 244.136719 2.265625 M 244.136719 4.859375 C 235.847656 4.859375 229.132812 11.621094 229.132812 19.960938 C 229.132812 28.300781 235.847656 35.0625 244.136719 35.0625 C 252.421875 35.0625 259.144531 28.300781 259.144531 19.960938 C 259.144531 11.621094 252.421875 4.859375 244.136719 4.859375 "/>
  </g>
</svg>