<?xml version="1.0" encoding="UTF-8" ?>
<!DOCTYPE svg PUBLIC "-//W3C//DTD SVG 1.1//EN" "http://www.w3.org/Graphics/SVG/1.1/DTD/svg11.dtd">
<svg width="614pt" height="184pt" viewBox="0 0 614 184" version="1.1" xmlns="http://www.w3.org/2000/svg">
<g id="#ffffffff">
</g>
<g id="#003a5aff">
<path fill="#003a5a" opacity="1.00" d=" M 264.85 27.84 C 281.09 15.61 302.54 11.71 322.40 14.70 C 338.48 17.02 353.66 25.42 363.84 38.14 C 378.77 56.69 382.84 81.87 380.03 105.02 C 345.73 105.25 311.43 105.08 277.13 105.10 C 279.04 113.49 282.76 121.87 289.60 127.38 C 297.47 133.85 308.14 135.71 318.06 134.96 C 329.91 134.23 341.25 129.15 350.22 121.46 C 358.22 129.71 365.87 138.30 373.51 146.89 C 362.16 157.55 347.62 164.68 332.25 167.16 C 313.22 170.42 292.79 169.49 275.29 160.72 C 259.78 153.16 247.63 139.32 241.68 123.18 C 235.40 106.35 234.84 87.72 238.53 70.24 C 242.14 53.68 251.16 38.05 264.85 27.84 M 295.53 50.62 C 285.07 55.03 279.11 66.12 277.48 76.92 C 298.65 76.74 319.83 76.97 341.01 76.80 C 339.38 69.47 336.64 62.12 331.42 56.57 C 322.43 46.97 307.23 45.80 295.53 50.62 Z" />
<path fill="#003a5a" opacity="1.00" d=" M 7.83 17.01 C 20.85 17.04 33.87 16.89 46.89 17.09 C 55.75 51.72 64.97 86.27 73.62 120.95 C 83.39 86.39 92.44 51.61 102.07 17.00 C 115.60 17.09 129.14 16.81 142.66 17.15 C 151.81 51.82 161.46 86.35 170.67 121.01 C 179.88 86.46 188.71 51.80 197.54 17.16 C 210.41 16.80 223.30 17.09 236.18 17.01 C 222.47 66.59 208.42 116.08 194.55 165.62 C 179.50 165.68 164.44 165.69 149.38 165.61 C 140.47 134.86 131.30 104.18 122.52 73.39 C 122.26 73.40 121.74 73.41 121.47 73.41 C 112.70 104.20 103.56 134.88 94.61 165.62 C 79.55 165.68 64.49 165.70 49.43 165.61 C 35.62 116.06 21.51 66.60 7.83 17.01 Z" />
<path fill="#003a5a" opacity="1.00" d=" M 399.52 17.00 C 412.10 17.01 424.68 16.98 437.26 17.01 C 437.36 55.25 437.30 93.49 437.28 131.73 C 458.06 131.78 478.83 131.71 499.60 131.76 C 499.81 143.04 499.73 154.33 499.64 165.61 C 466.25 165.68 432.86 165.72 399.48 165.59 C 399.43 116.06 399.35 66.52 399.52 17.00 Z" />
<path fill="#003a5a" opacity="1.00" d=" M 479.12 17.06 C 520.33 16.98 561.54 16.93 602.75 17.08 C 602.70 28.29 602.76 39.49 602.71 50.70 C 588.47 50.78 574.22 50.66 559.98 50.76 C 559.86 89.06 560.08 127.37 559.87 165.67 C 547.28 165.65 534.69 165.65 522.11 165.67 C 521.87 127.37 522.11 89.07 521.99 50.77 C 507.71 50.66 493.43 50.77 479.15 50.71 C 479.04 39.49 479.11 28.28 479.12 17.06 Z" />
</g>
</svg>
