<?xml version="1.0" encoding="UTF-8" ?>
<!DOCTYPE svg PUBLIC "-//W3C//DTD SVG 1.1//EN" "http://www.w3.org/Graphics/SVG/1.1/DTD/svg11.dtd">
<svg width="722pt" height="261pt" viewBox="0 0 722 261" version="1.1" xmlns="http://www.w3.org/2000/svg">
<g id="#ffffffff">
</g>
<g id="#808285ff">
<path fill="#808285" opacity="1.00" d=" M 323.42 0.00 L 334.70 0.00 C 334.83 1.29 335.05 2.56 335.37 3.81 C 343.03 28.56 350.76 53.29 358.25 78.09 C 353.36 78.15 348.46 78.33 343.59 77.90 C 341.85 70.90 339.77 63.99 337.87 57.04 C 330.27 56.96 322.67 56.97 315.07 57.04 C 313.00 64.04 310.69 70.97 308.72 78.01 C 304.98 78.17 301.23 78.23 297.49 78.11 C 305.87 51.99 314.81 26.05 323.42 0.00 M 324.41 26.95 C 322.74 33.75 320.33 40.34 318.74 47.15 C 324.45 47.11 330.18 47.45 335.88 46.93 C 332.85 36.61 330.15 26.20 327.55 15.76 C 325.96 19.32 325.50 23.24 324.41 26.95 Z" />
<path fill="#808285" opacity="1.00" d=" M 352.35 0.00 L 405.01 0.00 C 405.06 3.56 404.98 7.12 404.88 10.68 C 398.31 10.63 391.74 10.45 385.18 10.75 C 385.22 33.22 385.26 55.70 385.15 78.17 C 380.81 78.29 376.46 78.28 372.13 78.11 C 372.15 55.63 372.17 33.15 372.12 10.67 C 365.53 10.54 358.93 10.63 352.34 10.61 C 352.33 7.08 352.32 3.54 352.35 0.00 Z" />
<path fill="#808285" opacity="1.00" d=" M 234.35 1.17 C 237.57 0.93 240.80 0.85 244.03 1.00 C 254.50 15.95 264.67 31.13 274.40 46.58 C 276.51 49.77 278.19 53.27 280.75 56.15 C 280.74 37.75 280.68 19.35 280.78 0.96 C 284.22 0.85 287.67 0.88 291.11 1.04 C 291.14 27.05 291.16 53.06 291.10 79.07 C 288.08 79.11 285.03 79.38 282.02 78.99 C 280.58 78.04 279.89 76.35 278.89 75.00 C 267.90 58.89 256.94 42.73 246.91 25.99 C 246.35 25.17 245.75 24.38 245.10 23.63 C 244.87 42.11 245.08 60.61 244.99 79.10 C 241.45 79.17 237.89 79.34 234.36 78.84 C 234.52 52.95 234.55 27.06 234.35 1.17 Z" />
<path fill="#808285" opacity="1.00" d=" M 454.58 5.54 C 464.65 1.15 476.86 2.07 485.94 8.35 C 484.90 11.27 483.58 14.07 482.47 16.96 C 479.17 16.60 476.32 14.62 473.04 14.12 C 465.95 12.59 458.05 14.81 453.29 20.41 C 447.30 27.33 445.95 37.05 446.82 45.89 C 447.53 53.94 451.17 62.27 458.15 66.78 C 463.40 70.24 470.23 70.24 475.97 68.03 C 476.05 60.30 475.96 52.57 476.02 44.85 C 480.24 44.80 484.49 44.49 488.70 45.07 C 488.54 55.26 488.57 65.45 488.67 75.64 C 477.59 80.51 464.21 82.61 452.98 77.08 C 443.71 72.74 437.40 63.68 434.83 53.95 C 432.42 44.48 432.59 34.18 436.23 25.04 C 439.51 16.50 446.08 9.10 454.58 5.54 Z" />
<path fill="#808285" opacity="1.00" d=" M 568.53 4.70 C 574.94 3.16 581.87 4.20 587.58 7.47 C 594.83 11.48 599.85 18.71 602.49 26.44 C 605.98 36.61 605.54 47.83 602.41 58.03 C 599.93 65.71 595.29 73.09 588.14 77.18 C 579.21 82.34 567.29 81.97 558.90 75.86 C 550.51 69.95 546.23 59.75 544.80 49.87 C 542.89 38.24 544.88 25.57 552.00 15.96 C 555.93 10.40 561.90 6.28 568.53 4.70 M 570.22 15.36 C 564.76 17.03 561.15 22.11 559.43 27.32 C 556.71 35.59 556.85 44.57 558.45 53.05 C 559.63 58.25 561.64 63.67 565.90 67.14 C 571.48 71.71 580.66 70.87 585.16 65.16 C 590.47 58.77 591.52 50.07 591.80 42.05 C 591.69 34.05 590.55 25.21 584.86 19.11 C 581.27 15.07 575.29 13.94 570.22 15.36 Z" />
<path fill="#808285" opacity="1.00" d=" M 502.33 5.27 C 513.18 5.08 524.03 5.25 534.88 5.17 C 535.01 8.49 535.05 11.81 534.97 15.13 C 528.24 15.15 521.51 15.21 514.78 15.08 C 514.42 21.77 514.63 28.47 514.68 35.17 C 521.18 35.32 527.69 35.32 534.20 35.17 C 534.73 38.48 534.49 41.84 534.42 45.18 C 527.88 45.26 521.33 45.27 514.79 45.17 C 514.38 53.10 514.67 61.05 514.65 68.98 C 522.67 69.09 530.70 68.85 538.73 69.11 C 538.64 72.35 538.64 75.59 538.73 78.83 C 526.58 79.11 514.40 79.12 502.26 78.83 C 502.44 54.31 502.30 29.79 502.33 5.27 Z" />
<path fill="#808285" opacity="1.00" d=" M 220.06 100.18 C 233.70 98.87 247.26 96.82 260.92 95.72 C 266.99 133.89 273.32 172.03 279.48 210.19 C 279.68 211.10 280.01 211.98 280.32 212.86 C 289.63 174.53 299.92 136.43 309.32 98.11 C 320.71 97.86 332.15 97.69 343.54 98.20 C 353.25 134.63 363.58 170.91 373.44 207.30 C 373.74 208.39 374.17 209.42 374.72 210.42 C 380.34 172.19 385.52 133.90 391.04 95.66 C 402.78 97.29 414.47 99.33 426.19 101.15 C 415.84 154.05 404.84 206.84 394.58 259.76 C 389.08 260.18 383.55 260.40 378.04 260.05 C 368.76 259.62 359.47 260.77 350.21 259.86 C 342.05 229.77 333.78 199.70 325.58 169.61 C 325.00 167.31 324.38 165.02 323.44 162.84 C 315.33 195.21 306.94 227.52 298.83 259.89 C 289.23 260.37 279.62 259.90 270.01 260.10 C 264.82 260.08 259.60 260.57 254.44 259.72 C 243.35 206.47 231.22 153.42 220.06 100.18 Z" />
<path fill="#808285" opacity="1.00" d=" M 494.18 98.28 C 507.33 98.40 520.47 98.27 533.62 98.35 C 533.63 141.89 533.54 185.44 533.66 228.98 C 550.05 229.10 566.43 228.83 582.81 229.12 C 582.89 239.37 582.85 249.63 582.84 259.89 C 578.92 260.60 574.95 260.03 571.01 260.00 C 546.32 260.42 521.63 259.82 496.94 260.15 C 496.23 260.09 494.80 259.97 494.09 259.91 C 493.88 230.92 494.06 201.93 494.00 172.94 C 494.13 148.06 493.75 123.16 494.18 98.28 Z" />
<path fill="#808285" opacity="1.00" d=" M 595.21 98.12 C 606.46 97.78 617.70 98.43 628.95 98.35 C 641.95 98.76 655.18 97.51 667.94 100.72 C 680.83 103.69 692.95 110.29 701.94 120.06 C 715.18 134.01 721.19 153.39 722.00 172.30 L 722.00 177.72 C 721.28 187.99 719.74 198.30 716.04 207.96 C 710.10 224.31 699.26 239.17 684.45 248.52 C 671.95 256.67 656.84 260.09 642.04 260.01 C 626.43 259.93 610.82 260.13 595.22 259.90 C 595.20 205.98 595.21 152.05 595.21 98.12 M 635.16 128.14 C 635.08 161.79 635.18 195.45 635.11 229.11 C 642.64 229.38 650.61 229.91 657.59 226.52 C 666.74 222.23 672.66 213.23 675.93 203.96 C 681.62 187.34 681.41 168.78 675.64 152.21 C 672.42 143.26 666.87 134.36 657.96 130.22 C 650.79 126.91 642.76 128.51 635.16 128.14 Z" />
<path fill="#808285" opacity="1.00" d=" M 435.65 98.87 C 448.76 98.85 461.86 98.81 474.97 98.88 C 475.04 152.58 474.98 206.27 475.00 259.96 C 461.88 260.28 448.76 260.15 435.65 260.02 C 435.50 206.31 435.49 152.58 435.65 98.87 Z" />
</g>
<g id="#ffd600ff">
<path fill="#ffd600" opacity="1.00" d=" M 0.00 1.32 C 60.25 1.47 120.51 1.39 180.77 1.36 C 180.90 57.58 180.78 113.81 180.83 170.04 C 180.70 200.36 181.07 230.69 180.64 261.00 L 0.00 261.00 L 0.00 1.32 M 26.22 27.37 C 25.96 31.24 26.06 35.12 26.06 39.00 C 26.04 104.14 26.09 169.27 26.04 234.40 C 68.84 234.59 111.64 234.32 154.45 234.53 C 154.55 233.35 154.62 232.17 154.66 230.99 C 154.64 163.15 154.65 95.30 154.65 27.45 C 111.84 27.41 69.03 27.58 26.22 27.37 Z" />
</g>
</svg>
