<?xml version="1.0" encoding="UTF-8" standalone="yes"?>
<svg xmlns="http://www.w3.org/2000/svg" xmlns:xlink="http://www.w3.org/1999/xlink" width="294.66666666666663px" height="106.66666666666666px" viewBox="0 0 221 80" version="1.1">
  <g id="surface1">
    <path style=" stroke:none;fill-rule:nonzero;fill:rgb(50.196078%,50.980392%,52.156863%);fill-opacity:1;" d="M 98.941406 0 L 102.394531 0 C 102.433594 0.394531 102.5 0.785156 102.597656 1.167969 C 104.941406 8.761719 107.304688 16.347656 109.597656 23.953125 C 108.101562 23.972656 106.601562 24.027344 105.113281 23.894531 C 104.582031 21.75 103.945312 19.628906 103.363281 17.496094 C 101.039062 17.472656 98.710938 17.476562 96.386719 17.496094 C 95.753906 19.644531 95.046875 21.769531 94.445312 23.929688 C 93.300781 23.980469 92.152344 23.996094 91.007812 23.960938 C 93.574219 15.949219 96.308594 7.992188 98.941406 0 M 99.246094 8.265625 C 98.734375 10.351562 97.996094 12.375 97.511719 14.464844 C 99.257812 14.449219 101.011719 14.554688 102.753906 14.394531 C 101.828125 11.230469 101 8.035156 100.207031 4.835938 C 99.71875 5.925781 99.578125 7.128906 99.246094 8.265625 Z M 99.246094 8.265625 "/>
    <path style=" stroke:none;fill-rule:nonzero;fill:rgb(50.196078%,50.980392%,52.156863%);fill-opacity:1;" d="M 107.792969 0 L 123.902344 0 C 123.917969 1.09375 123.894531 2.183594 123.863281 3.277344 C 121.851562 3.261719 119.84375 3.207031 117.835938 3.296875 C 117.847656 10.191406 117.859375 17.085938 117.828125 23.980469 C 116.5 24.015625 115.167969 24.011719 113.84375 23.960938 C 113.851562 17.0625 113.855469 10.167969 113.839844 3.273438 C 111.824219 3.234375 109.804688 3.261719 107.789062 3.253906 C 107.785156 2.171875 107.785156 1.085938 107.792969 0 Z M 107.792969 0 "/>
    <path style=" stroke:none;fill-rule:nonzero;fill:rgb(50.196078%,50.980392%,52.156863%);fill-opacity:1;" d="M 71.695312 0.359375 C 72.679688 0.285156 73.667969 0.261719 74.65625 0.308594 C 77.859375 4.894531 80.96875 9.550781 83.945312 14.289062 C 84.589844 15.265625 85.105469 16.339844 85.886719 17.222656 C 85.886719 11.578125 85.867188 5.9375 85.898438 0.292969 C 86.949219 0.261719 88.003906 0.269531 89.058594 0.320312 C 89.066406 8.296875 89.074219 16.277344 89.054688 24.253906 C 88.128906 24.265625 87.199219 24.351562 86.277344 24.230469 C 85.835938 23.9375 85.625 23.421875 85.320312 23.007812 C 81.957031 18.0625 78.605469 13.105469 75.535156 7.972656 C 75.363281 7.722656 75.179688 7.480469 74.980469 7.25 C 74.910156 12.917969 74.976562 18.59375 74.949219 24.265625 C 73.867188 24.285156 72.777344 24.335938 71.695312 24.183594 C 71.746094 16.242188 71.753906 8.300781 71.695312 0.359375 Z M 71.695312 0.359375 "/>
    <path style=" stroke:none;fill-rule:nonzero;fill:rgb(50.196078%,50.980392%,52.156863%);fill-opacity:1;" d="M 139.066406 1.699219 C 142.148438 0.351562 145.882812 0.636719 148.660156 2.5625 C 148.34375 3.457031 147.9375 4.316406 147.597656 5.203125 C 146.589844 5.09375 145.71875 4.484375 144.714844 4.332031 C 142.546875 3.863281 140.128906 4.542969 138.671875 6.261719 C 136.839844 8.382812 136.425781 11.363281 136.691406 14.078125 C 136.910156 16.546875 138.023438 19.101562 140.160156 20.484375 C 141.765625 21.546875 143.855469 21.546875 145.609375 20.867188 C 145.636719 18.496094 145.609375 16.125 145.625 13.757812 C 146.917969 13.742188 148.21875 13.648438 149.503906 13.824219 C 149.457031 16.949219 149.464844 20.078125 149.496094 23.203125 C 146.105469 24.695312 142.011719 25.339844 138.578125 23.644531 C 135.742188 22.3125 133.8125 19.535156 133.023438 16.550781 C 132.289062 13.644531 132.339844 10.484375 133.453125 7.679688 C 134.457031 5.0625 136.46875 2.792969 139.066406 1.699219 Z M 139.066406 1.699219 "/>
    <path style=" stroke:none;fill-rule:nonzero;fill:rgb(50.196078%,50.980392%,52.156863%);fill-opacity:1;" d="M 173.925781 1.441406 C 175.886719 0.96875 178.007812 1.289062 179.753906 2.292969 C 181.972656 3.519531 183.507812 5.738281 184.316406 8.109375 C 185.382812 11.230469 185.25 14.671875 184.292969 17.800781 C 183.535156 20.15625 182.113281 22.421875 179.925781 23.675781 C 177.195312 25.257812 173.546875 25.144531 170.980469 23.269531 C 168.414062 21.457031 167.105469 18.328125 166.667969 15.296875 C 166.082031 11.730469 166.691406 7.84375 168.871094 4.894531 C 170.074219 3.191406 171.898438 1.925781 173.925781 1.441406 M 174.445312 4.710938 C 172.773438 5.222656 171.667969 6.78125 171.144531 8.378906 C 170.3125 10.917969 170.355469 13.671875 170.84375 16.273438 C 171.203125 17.867188 171.820312 19.53125 173.121094 20.59375 C 174.828125 21.996094 177.636719 21.738281 179.015625 19.988281 C 180.640625 18.027344 180.960938 15.359375 181.046875 12.898438 C 181.011719 10.445312 180.664062 7.734375 178.921875 5.863281 C 177.824219 4.621094 175.996094 4.277344 174.445312 4.710938 Z M 174.445312 4.710938 "/>
    <path style=" stroke:none;fill-rule:nonzero;fill:rgb(50.196078%,50.980392%,52.156863%);fill-opacity:1;" d="M 153.675781 1.617188 C 156.996094 1.558594 160.3125 1.609375 163.632812 1.585938 C 163.671875 2.605469 163.683594 3.621094 163.660156 4.640625 C 161.601562 4.648438 159.542969 4.664062 157.484375 4.625 C 157.375 6.679688 157.4375 8.734375 157.453125 10.789062 C 159.441406 10.835938 161.433594 10.835938 163.425781 10.789062 C 163.585938 11.804688 163.515625 12.835938 163.492188 13.859375 C 161.492188 13.882812 159.488281 13.886719 157.488281 13.855469 C 157.363281 16.289062 157.449219 18.726562 157.445312 21.160156 C 159.898438 21.191406 162.355469 21.121094 164.8125 21.199219 C 164.785156 22.191406 164.785156 23.1875 164.8125 24.179688 C 161.09375 24.265625 157.367188 24.269531 153.652344 24.179688 C 153.707031 16.660156 153.664062 9.136719 153.675781 1.617188 Z M 153.675781 1.617188 "/>
    <path style=" stroke:none;fill-rule:nonzero;fill:rgb(50.196078%,50.980392%,52.156863%);fill-opacity:1;" d="M 67.320312 30.730469 C 71.496094 30.328125 75.644531 29.699219 79.820312 29.363281 C 81.679688 41.070312 83.617188 52.769531 85.5 64.476562 C 85.5625 64.753906 85.660156 65.023438 85.757812 65.292969 C 88.605469 53.535156 91.753906 41.851562 94.628906 30.09375 C 98.113281 30.019531 101.613281 29.964844 105.097656 30.121094 C 108.066406 41.296875 111.226562 52.425781 114.246094 63.589844 C 114.335938 63.921875 114.46875 64.238281 114.636719 64.546875 C 116.355469 52.820312 117.941406 41.074219 119.628906 29.34375 C 123.21875 29.84375 126.796875 30.46875 130.382812 31.027344 C 127.214844 47.253906 123.851562 63.449219 120.710938 79.679688 C 119.027344 79.808594 117.335938 79.878906 115.652344 79.769531 C 112.8125 79.636719 109.972656 79.992188 107.136719 79.710938 C 104.640625 70.480469 102.113281 61.257812 99.601562 52.027344 C 99.425781 51.320312 99.234375 50.621094 98.949219 49.949219 C 96.46875 59.878906 93.902344 69.792969 91.417969 79.722656 C 88.484375 79.867188 85.542969 79.722656 82.601562 79.785156 C 81.015625 79.777344 79.417969 79.929688 77.839844 79.667969 C 74.445312 63.335938 70.734375 47.0625 67.320312 30.730469 Z M 67.320312 30.730469 "/>
    <path style=" stroke:none;fill-rule:nonzero;fill:rgb(50.196078%,50.980392%,52.156863%);fill-opacity:1;" d="M 151.183594 30.148438 C 155.203125 30.183594 159.226562 30.144531 163.246094 30.167969 C 163.25 43.523438 163.222656 56.882812 163.261719 70.238281 C 168.273438 70.277344 173.285156 70.191406 178.296875 70.28125 C 178.320312 73.425781 178.308594 76.574219 178.304688 79.722656 C 177.105469 79.9375 175.890625 79.765625 174.6875 79.753906 C 167.132812 79.882812 159.578125 79.699219 152.027344 79.800781 C 151.808594 79.78125 151.371094 79.746094 151.15625 79.726562 C 151.089844 70.835938 151.144531 61.941406 151.125 53.050781 C 151.167969 45.417969 151.050781 37.777344 151.183594 30.148438 Z M 151.183594 30.148438 "/>
    <path style=" stroke:none;fill-rule:nonzero;fill:rgb(50.196078%,50.980392%,52.156863%);fill-opacity:1;" d="M 182.089844 30.097656 C 185.53125 29.992188 188.96875 30.191406 192.410156 30.167969 C 196.386719 30.292969 200.4375 29.910156 204.339844 30.894531 C 208.28125 31.808594 211.992188 33.832031 214.742188 36.828125 C 218.792969 41.105469 220.628906 47.050781 220.878906 52.851562 L 220.878906 54.515625 C 220.65625 57.664062 220.1875 60.828125 219.054688 63.792969 C 217.238281 68.808594 213.921875 73.363281 209.390625 76.234375 C 205.566406 78.734375 200.945312 79.78125 196.414062 79.757812 C 191.640625 79.734375 186.863281 79.792969 182.09375 79.722656 C 182.085938 63.183594 182.089844 46.640625 182.089844 30.097656 M 194.3125 39.308594 C 194.285156 49.628906 194.316406 59.953125 194.296875 70.277344 C 196.597656 70.363281 199.039062 70.523438 201.171875 69.484375 C 203.972656 68.167969 205.785156 65.40625 206.785156 62.5625 C 208.523438 57.464844 208.460938 51.773438 206.695312 46.691406 C 205.710938 43.945312 204.011719 41.214844 201.285156 39.945312 C 199.09375 38.929688 196.636719 39.421875 194.3125 39.308594 Z M 194.3125 39.308594 "/>
    <path style=" stroke:none;fill-rule:nonzero;fill:rgb(50.196078%,50.980392%,52.156863%);fill-opacity:1;" d="M 133.277344 30.328125 C 137.285156 30.320312 141.292969 30.308594 145.304688 30.332031 C 145.328125 46.804688 145.308594 63.273438 145.3125 79.742188 C 141.300781 79.839844 137.285156 79.800781 133.277344 79.761719 C 133.230469 63.285156 133.226562 46.804688 133.277344 30.328125 Z M 133.277344 30.328125 "/>
    <path style=" stroke:none;fill-rule:nonzero;fill:rgb(100%,83.921569%,0%);fill-opacity:1;" d="M 0 0.40625 C 18.433594 0.449219 36.867188 0.425781 55.300781 0.417969 C 55.339844 17.664062 55.304688 34.910156 55.320312 52.160156 C 55.28125 61.460938 55.394531 70.765625 55.261719 80.0625 L 0 80.0625 L 0 0.40625 M 8.019531 8.394531 C 7.941406 9.582031 7.972656 10.773438 7.972656 11.964844 C 7.964844 31.945312 7.980469 51.921875 7.964844 71.902344 C 21.058594 71.960938 34.152344 71.878906 47.25 71.941406 C 47.28125 71.578125 47.300781 71.21875 47.3125 70.855469 C 47.308594 50.046875 47.3125 29.234375 47.3125 8.421875 C 34.214844 8.40625 21.117188 8.460938 8.019531 8.394531 Z M 8.019531 8.394531 "/>
  </g>
</svg>