<?xml version="1.0" encoding="UTF-8" standalone="no"?>
<!-- Created with Inkscape (http://www.inkscape.org/) -->

<svg
   xmlns:dc="http://purl.org/dc/elements/1.1/"
   xmlns:cc="http://creativecommons.org/ns#"
   xmlns:rdf="http://www.w3.org/1999/02/22-rdf-syntax-ns#"
   xmlns:svg="http://www.w3.org/2000/svg"
   xmlns="http://www.w3.org/2000/svg"
   xmlns:sodipodi="http://sodipodi.sourceforge.net/DTD/sodipodi-0.dtd"
   xmlns:inkscape="http://www.inkscape.org/namespaces/inkscape"
   width="289.936"
   height="114.32375"
   id="svg126664"
   version="1.1"
   inkscape:version="0.48.2 r9819"
   sodipodi:docname="New document 3">
  <defs
     id="defs126666">
    <clipPath
       clipPathUnits="userSpaceOnUse"
       id="clipPath19966">
      <path
         inkscape:connector-curvature="0"
         d="m 765.711,252.506 31.09,0 0,12.259 -31.09,0 0,-12.259 z"
         id="path19968" />
    </clipPath>
  </defs>
  <sodipodi:namedview
     id="base"
     pagecolor="#ffffff"
     bordercolor="#666666"
     borderopacity="1.0"
     inkscape:pageopacity="0.0"
     inkscape:pageshadow="2"
     inkscape:zoom="1"
     inkscape:cx="120.43121"
     inkscape:cy="87.661839"
     inkscape:document-units="px"
     inkscape:current-layer="layer1"
     showgrid="false"
     fit-margin-top="0"
     fit-margin-left="0"
     fit-margin-right="0"
     fit-margin-bottom="0"
     inkscape:window-width="1920"
     inkscape:window-height="1018"
     inkscape:window-x="-8"
     inkscape:window-y="-8"
     inkscape:window-maximized="1" />
  <metadata
     id="metadata126669">
    <rdf:RDF>
      <cc:Work
         rdf:about="">
        <dc:format>image/svg+xml</dc:format>
        <dc:type
           rdf:resource="http://purl.org/dc/dcmitype/StillImage" />
        <dc:title></dc:title>
      </cc:Work>
    </rdf:RDF>
  </metadata>
  <g
     inkscape:label="Layer 1"
     inkscape:groupmode="layer"
     id="layer1"
     transform="translate(-254.56879,-425.70027)">
    <g
       transform="matrix(9.3256995,0,0,-9.3256995,-6886.2219,2894.8191)"
       id="g77682">
      <g
         id="g77684"
         clip-path="url(#clipPath19966)">
        <path
           inkscape:connector-curvature="0"
           id="path77686"
           style="fill:#000000;fill-opacity:1;fill-rule:nonzero;stroke:none"
           d="m 781.129,264.1241 c 0.064,-0.102 0.069,-0.185 0.092,-0.287 -0.013,-0.039 0.011,-0.06 0.028,-0.097 -10e-4,-0.012 -0.018,-0.01 -0.015,-0.027 -0.001,-0.1 -0.007,-0.179 -0.016,-0.263 0.05,0.043 0.092,0.068 0.165,0.047 0.01,0.011 0.02,0.022 0.037,0.027 0.008,-0.008 0.027,-0.004 0.043,-0.004 0.01,0.038 -0.038,0.052 -0.045,0.09 0.045,0.027 0.096,-0.025 0.13,-0.046 0.051,0.031 0.115,0.077 0.176,0.041 0.004,-0.024 0.023,-0.034 0.033,-0.053 0.052,-0.132 0.06,-0.326 -0.056,-0.413 -0.084,-0.161 -0.271,-0.241 -0.264,-0.472 -0.011,-0.009 -0.023,-0.016 -0.037,-0.022 0,-0.056 -0.012,-0.085 -0.019,-0.124 0,0.006 -0.002,0.013 -0.011,0.011 -0.005,-0.023 0.012,-0.021 0.012,-0.038 -0.01,-0.01 -0.021,-0.018 -0.026,-0.033 0.007,-0.062 0.026,-0.148 0.01,-0.219 -0.029,0.001 -0.01,0.003 -0.027,0.015 0.02,-0.078 0.028,-0.157 0.004,-0.23 -0.016,0.013 -0.05,0.022 -0.07,0.015 0.021,-0.067 0.064,-0.118 0.084,-0.17 -0.017,0.002 -0.014,-0.019 -0.026,-0.006 0,-0.013 0,-0.025 0,-0.038 -0.009,-0.008 -0.018,0.005 -0.027,-0.011 0,-0.055 0.039,-0.123 0.004,-0.177 0.02,-0.003 0.012,-0.035 0.033,-0.037 -0.009,-0.005 -0.015,-0.013 -0.026,-0.016 0.02,-0.029 -0.008,-0.046 -0.02,-0.07 0.012,-0.008 0.023,0.002 0.027,-0.005 -0.004,-0.012 -0.011,-0.021 -0.011,-0.038 0.019,0.005 0.024,-0.004 0.028,-0.015 -0.007,0 -0.008,0.006 -0.016,0.005 0.002,-0.018 0.011,-0.028 0.022,-0.037 -0.006,-0.014 -0.023,0.012 -0.021,-0.011 0.02,-0.009 0.02,0.006 0.026,0 -0.008,-0.012 -0.021,-0.018 -0.021,-0.038 0.01,-0.016 0.017,0.015 0.022,0 0.005,-0.017 -0.019,-0.034 -0.005,-0.043 -0.003,0.023 0.014,-0.004 0.022,-0.004 -0.002,-0.011 -0.02,-0.005 -0.016,-0.022 0.008,-0.003 0.028,0.007 0.027,-0.005 -0.011,-0.019 -0.019,-0.028 -0.004,-0.048 0.017,0.018 0.026,-0.005 0.038,-0.005 10e-4,-0.01 -0.007,-0.011 -0.011,-0.016 0.016,0 0.021,0.012 0.032,0.017 0.018,-0.011 0.017,-0.037 0.006,-0.059 -0.002,0.006 -0.005,0.012 -0.01,0.016 -0.002,-0.021 0.011,-0.025 0.016,-0.038 -0.011,0.01 -0.028,-0.008 -0.026,-0.027 0.02,-0.003 0.023,0.015 0.038,0.006 -0.007,-0.012 -0.039,-0.026 -0.021,-0.043 10e-4,0.006 10e-4,0.013 0.011,0.011 0.01,-0.055 0.004,-0.06 -0.031,-0.087 0.038,0.021 0.011,-0.029 0.022,-0.037 0.001,0.008 0.024,-0.007 0.033,-0.01 -0.002,-0.009 -0.011,-0.021 0.006,-0.021 0.009,10e-4 -0.004,0.009 0.005,0.011 0.018,-0.018 0.005,-0.045 -0.016,-0.054 0,-0.019 0.026,-0.01 0.023,-0.032 -0.02,0.017 -0.041,-0.026 -0.043,-0.001 -0.013,-0.006 10e-4,-0.051 0.028,-0.058 -0.013,-0.025 -0.033,-0.042 -0.047,-0.065 0,-0.007 0.007,-0.008 0.006,-0.016 0.009,-0.016 0.027,0.009 0.032,-0.005 -0.006,-0.001 -0.013,-0.002 -0.011,-0.011 0.013,-0.007 0.02,0.014 0.022,0 -0.011,-0.022 -0.01,-0.048 -0.036,-0.065 0.019,-0.009 0.043,-0.012 0.049,-0.036 -0.006,0.003 -0.02,0.012 -0.016,-0.006 0.008,-0.008 0.026,0.005 0.027,-0.021 -0.018,0.004 -0.008,-0.011 -0.005,-0.016 -0.007,0.007 -0.02,0.007 -0.021,-0.006 0.002,-0.006 0.007,-0.023 0.016,-0.037 -0.022,-0.017 -0.064,-0.025 -0.079,-0.034 0.018,-0.017 0.013,-0.062 -0.01,-0.069 0.016,0 0.021,-0.012 0.028,-0.021 -0.021,-0.007 -0.019,-0.02 -0.027,-0.028 10e-4,-0.023 0.032,-0.014 0.039,-0.031 -0.035,0.006 -0.05,-0.023 -0.08,-0.034 -0.004,-0.017 0.014,-0.011 0.016,-0.021 -0.009,-0.012 -0.02,-0.022 -0.026,-0.038 -0.002,-0.026 0.013,-0.034 0.022,-0.048 -0.009,-0.006 -0.035,0.003 -0.047,-0.012 0.021,-0.008 -0.016,-0.032 -0.01,-0.059 0.031,-0.048 0.012,-0.088 -0.002,-0.139 -0.007,0 -0.013,0.009 -0.017,0 0.013,-0.024 0.008,-0.065 -0.008,-0.086 0.016,0.002 0.011,-0.018 0.016,-0.027 -0.008,0 -0.017,0.022 -0.016,0 0.013,-0.017 0.021,-0.032 0.012,-0.059 0.018,-10e-4 0.023,-0.017 0.033,-0.026 -0.018,-0.025 0,-0.023 0.006,-0.048 -0.019,0.007 -0.019,-0.042 -0.042,-0.049 0.019,-0.003 0.013,0.019 0.032,0.017 0.014,-0.026 -0.015,-0.033 0.012,-0.049 0.005,-0.032 -0.033,-0.025 -0.032,-0.054 0.007,-0.008 0.023,-0.006 0.023,-0.021 -0.021,-0.015 0,-0.047 -0.026,-0.048 0.037,-0.045 -0.018,-0.05 -0.047,-0.071 0.011,-0.005 0.026,-0.006 0.027,-0.021 -0.011,-0.012 -0.004,-0.042 -0.026,-0.054 0.063,-0.049 -0.024,-0.1 -0.002,-0.129 -0.042,0.003 -0.03,-0.032 -0.021,-0.054 -0.016,10e-4 -0.019,0.016 -0.043,0.01 0.013,-0.027 0.052,-0.026 0.05,-0.069 -0.051,-0.017 -0.026,-0.076 -0.068,-0.098 -0.022,0.017 -0.047,-0.01 -0.069,-0.023 0.04,-0.021 0.03,-0.043 0.056,-0.084 -0.01,-0.013 -0.016,-0.029 -0.027,-0.027 0.02,-0.006 0.019,-0.031 0.028,-0.048 -0.04,-0.011 -0.049,-0.091 -0.025,-0.108 -0.011,-0.029 -0.016,-0.073 0.008,-0.102 -0.008,0.006 -0.025,-0.008 -0.032,-0.006 0.005,-0.025 0.012,-0.069 0.018,-0.09 -0.035,-0.003 -0.025,-0.021 -0.053,-0.033 -0.002,-0.123 -0.042,-0.182 -0.112,-0.298 -10e-4,0.006 -0.009,0.006 -0.016,0.005 0.012,-0.019 -10e-4,-0.072 -0.026,-0.07 10e-4,-0.062 -0.034,-0.077 -0.056,-0.119 0.006,-10e-4 0.015,0.001 0.016,-0.005 -0.018,-0.025 -0.028,-0.053 -0.025,-0.081 -0.01,-0.001 -0.017,10e-4 -0.022,0.005 10e-4,-0.036 -0.043,-0.067 -0.014,-0.097 -0.026,-0.01 -0.015,-0.031 -0.015,-0.059 -0.008,-0.001 -0.019,0.002 -0.021,-0.006 0.024,-0.013 -0.004,-0.011 -0.01,-0.016 0.006,-0.008 0.015,-0.013 0.016,-0.027 -0.016,-0.004 -0.011,0.015 -0.027,0.01 -0.028,-0.024 -0.025,-0.08 -0.035,-0.108 -10e-4,0.007 -0.002,0.013 -0.011,0.011 -0.002,-0.013 -0.003,-0.025 -0.021,-0.022 0.008,-0.038 -0.01,-0.018 -0.005,-0.053 -0.011,10e-4 -0.029,0.011 -0.031,-0.006 0.023,0 0.007,-0.012 0.016,-0.022 -0.007,0 -0.014,0 -0.021,0 0.006,-0.031 -0.036,-0.039 -0.02,-0.07 -0.012,0.001 -0.021,-0.002 -0.022,-0.012 0.007,0 0.016,0.002 0.017,-0.004 -10e-4,-0.02 -0.022,-0.022 -0.037,-0.028 -0.004,-0.041 -0.046,-0.048 -0.031,-0.086 -0.006,-10e-4 -0.015,0 -0.016,-0.006 0.024,0 0.01,-0.007 0.022,-0.021 -0.006,-0.015 -0.033,-0.01 -0.031,-0.033 0.021,-0.009 0.003,-0.034 0.011,-0.048 -0.009,0.004 -0.016,0.017 -0.027,0.005 0.006,-0.02 10e-4,-0.025 0.007,-0.037 -0.014,0.004 -0.031,0.008 -0.038,-0.007 0.032,-0.015 0.001,-0.035 0.007,-0.069 -0.019,0.009 -0.017,-0.005 -0.027,-0.017 0.018,-0.03 -0.005,-0.061 -0.019,-0.086 -0.004,-0.006 -0.002,-0.031 -0.005,-0.037 -0.009,-0.021 0.002,0.011 0.006,-0.011 0.004,-0.022 -0.015,-0.054 -0.02,-0.075 0.017,-0.005 0.02,-0.051 0.006,-0.038 -0.001,-0.011 0.007,-0.011 0.011,-0.016 -0.026,-0.041 -0.028,-0.096 -0.008,-0.139 -0.009,-0.002 -0.027,0.005 -0.021,-0.012 0.02,-0.024 -0.012,-0.04 0.017,-0.058 -0.025,-0.044 -0.031,-0.061 -0.008,-0.102 -0.015,-0.138 -0.024,-0.302 -0.012,-0.461 0.009,-0.138 0.039,-0.276 0.045,-0.396 0.03,-0.02 0.009,-0.053 0.013,-0.086 0.004,-0.041 0.029,-0.077 0.034,-0.112 0,0.001 -0.012,-0.001 -0.01,-0.01 0.004,-0.04 -10e-4,-0.07 0.016,-0.095 l 2.744,0 0,8.882 -2.263,0 c 0.05,-0.053 0.099,-0.145 0.126,-0.187 m 12.366,-5.453 c -0.518,-0.519 -1.154,-0.506 -1.789,-0.493 l -0.272,0 0,3.359 0.868,0 c 0.506,0 0.921,-0.169 1.219,-0.519 0.311,-0.35 0.467,-0.739 0.467,-1.167 0,-0.415 -0.143,-0.83 -0.493,-1.18 m 1.932,4.318 c -0.869,0.869 -1.906,1.309 -3.125,1.309 l -3.617,0 0,-8.869 3.617,0 c 1.219,0 2.256,0.428 3.125,1.297 0.869,0.869 1.31,1.919 1.31,3.138 0,1.219 -0.441,2.256 -1.31,3.125 m -9.024,1.309 -2.749,0 0,-8.869 4.642,0 0,2.749 -1.893,0 0,6.12 z m -5.871,-0.363 c 0.025,0.031 0.034,0.076 0.063,0.108 0.008,0.011 0.021,0.013 0.031,0.023 0.051,0.045 0.084,0.109 0.131,0.169 0.018,0.023 0.045,0.052 0.075,0.076 l -3.452,0 -2.035,-3.669 -2.231,4.123 -2.243,-4.123 -2.022,3.669 -3.138,0 5.186,-9.374 2.217,4.084 1.652,-3.061 c 0.012,0.02 0.024,0.04 0.031,0.063 0.015,0.008 0.031,0.013 0.037,0.028 -0.024,-0.004 -0.029,-0.017 -0.038,0.01 0.015,0.009 0.027,0.036 0.01,0.054 0.017,-0.004 0.006,0.019 0.026,0.011 0.008,0.019 -0.018,0.003 -0.016,0.016 0.018,0.022 0.1,0.081 0.066,0.09 0.001,-0.003 -0.004,-0.009 -0.008,-0.009 -0.002,0.008 -0.01,0.009 -0.012,0.016 0.022,0.002 0.028,0.019 0.048,0.023 10e-4,0.015 -0.031,0.016 -0.006,0.026 0.007,-10e-4 0.004,-0.006 0,-0.01 0.052,0.036 0.041,0.087 0.084,0.125 -0.017,0.006 -0.004,0.011 -0.012,0.026 0.017,0.007 0.021,0.026 0.043,0.028 0.004,0.017 -0.015,0.011 -0.017,0.021 0.023,0.007 0.032,0.029 0.064,0.028 -0.01,0.016 -0.005,0.015 -0.011,0.032 0.049,0.028 0.078,0.064 0.067,0.109 0.069,0.031 0.08,0.086 0.142,0.121 -0.026,0.029 0.029,0.065 0.047,0.086 0.002,0.017 -0.015,0.014 -0.017,0.027 0.042,0.036 0.064,0.103 0.105,0.125 0.002,0.022 0.002,0.016 -10e-4,0.038 0.032,0.013 0.058,0.048 0.052,0.081 0.055,0.038 0.153,0.102 0.146,0.18 0.018,0.007 0.027,0.028 0.026,0.038 0.081,0.056 0.143,0.13 0.233,0.176 0.016,0.041 0.038,0.102 0.094,0.088 0.008,0.017 0.021,0.034 0.032,0.033 -0.008,10e-4 -0.005,0.013 -0.006,0.021 0.026,0.004 0.031,0.025 0.042,0.038 0.021,0.027 0.063,0.042 0.085,0.067 0.017,0.019 0.019,0.049 0.036,0.064 0.014,0.014 0.035,0.013 0.048,0.029 0.008,0.01 -0.006,0.009 -0.001,0.021 0.007,0.017 0.065,0.071 0.084,0.066 -0.022,0.04 0.057,0.077 0.03,0.118 0.029,0.013 0.035,0.048 0.058,0.066 -0.029,-0.002 -0.005,0.019 -0.017,0.037 0.03,0.003 0.028,0.036 0.064,0.034 0.009,0.016 0.004,0.015 0.01,0.032 0.053,-0.005 0.085,0.046 0.105,0.083 0.018,0.012 0.034,-0.008 0.048,0.011 -0.005,0.004 -10e-4,0.041 -10e-4,0.043 0.012,0.015 0.039,0.016 0.042,0.038 0.02,-0.01 0.031,0.001 0.054,0.001 10e-4,0.042 0.06,0.049 0.085,0.05 -0.004,0.04 0.025,0.011 0.01,0.049 0.01,0 0.021,0 0.032,0 0.014,0.027 0.029,0.053 0.052,0.071 -0.008,0.001 -0.005,0.013 -0.006,0.022 0.023,0.009 0.027,0.036 0.053,0.044 0.01,0.079 0.103,0.079 0.109,0.163 0.031,-0.009 0.049,0.03 0.063,0.055 -0.009,0.006 -0.021,0.01 -0.022,0.026 0.014,0.02 0.039,0.001 0.065,0.001 -0.012,0.02 -0.003,0.03 -0.023,0.038 0.015,0.006 0.006,0.028 0.01,0.032 0.017,0.004 0.011,-0.015 0.028,-0.01 -0.003,0.02 -0.007,0.019 0.004,0.032 0.007,-0.007 0.02,-0.007 0.027,0 -0.019,0.032 0.011,0.034 0.02,0.055 0.032,-0.018 0.046,0.002 0.086,10e-4 0.014,0.027 -0.019,0.034 -0.023,0.059 0.019,0.02 0.012,0.036 0.032,0.049 -0.01,-10e-4 -0.014,0.003 -0.017,0.01 0.014,0.014 0.039,0.027 0.015,0.048 0.036,0.009 0.05,-0.018 0.076,-0.003 0.002,0.011 -0.008,0.035 0.004,0.037 0.031,-0.015 0.056,0.017 0.086,-0.003 0,0.016 -0.009,0.029 -0.006,0.037 0.007,0 0.014,0 0.021,0 0.006,0.018 -0.017,0.004 -0.011,0.022 0.023,-0.001 0.01,0.011 0.015,0.027 0.016,-0.011 0.014,0.012 0.033,0 0.008,0.031 0.036,0.043 0.069,0.05 0.006,0.013 -0.013,0.026 -10e-4,0.027 0.014,-0.022 0.018,0.012 0.027,-0.016 0.005,0.026 -0.014,0.026 -0.017,0.043 0.007,0.001 0.006,0.012 0.01,0.016 0.023,-0.011 0.049,-0.018 0.076,-0.025 -0.003,0.033 0.026,0.033 0.042,0.033 0.005,0.01 -0.016,0.017 0,0.021 0.022,-0.004 0.049,-0.013 0.064,-0.009 -0.033,0.022 0.013,0.04 -0.012,0.069 0.011,10e-4 0.007,-0.014 0.022,-0.01 -10e-4,0.025 -0.037,0.023 -0.023,0.048 0.033,0.008 0.084,-0.011 0.113,0.018 -0.005,0.016 -0.017,0.023 -0.012,0.048 0.022,-0.007 0.017,0.012 0.032,0.012 -0.003,0.011 -0.013,0.029 0.005,0.032 0.007,0 0.005,-0.009 0.011,-0.01 -0.01,0.041 0.052,0.028 0.036,0.054 0.021,-0.01 0.011,0.017 0.043,0.011 0.002,0.01 -0.009,0.014 -10e-4,0.017 0.029,-0.02 0.018,0.029 0.048,0.011 0.004,0.017 -0.018,0.006 -0.011,0.027 0.013,0.009 0.019,-0.006 0.026,0.006 -0.015,0.003 -0.027,0.029 -0.022,0.037 0.01,0.001 0.017,-0.025 0.022,-0.011 -0.011,0.022 0.02,0.048 0.042,0.055 0.008,0.024 -0.035,-0.004 -0.027,0.021 0.019,0.01 0.028,0.026 0.009,0.037 10e-4,0.014 0.021,0.009 0.022,0.022 -0.009,10e-4 -0.019,-0.001 -0.017,0.011 10e-4,0.01 0.019,0.003 0.021,0.011 -0.012,0.039 0.01,0.053 -0.006,0.08 0.047,0.014 0.019,0.063 0.062,0.087 0.002,0.019 -0.019,0.013 -0.017,0.032 0.013,0 0.016,0.01 0.032,0.006 0,0.027 -0.019,0.002 -0.027,0.021 0.012,0.035 0.011,0.039 0.026,0.076 0.056,0.004 0.048,0.052 0.073,0.065 -0.018,0.005 -0.012,0.055 0.015,0.049 -0.028,0.04 0.012,0.068 0.047,0.071 -0.014,0.023 0.022,0.023 0.031,0.043 -0.002,-0.005 -0.016,0.02 -0.016,0.016 0,0.004 0.029,0.031 0.031,0.038 -10e-4,-0.003 -0.016,0.002 -0.016,0.005 -0.002,0.028 0.043,0.034 0.063,0.066 -0.017,-0.003 -0.017,0.011 -0.017,0.026 0.019,0.007 0.029,0.007 0.032,0.028 0.011,-0.01 0.004,-0.01 0.022,-0.005 0.004,0.004 0.002,0.018 0.015,0.027 10e-4,-0.012 0.014,-0.012 0.027,-0.01 0.011,0.022 0.008,0.082 0.042,0.065 10e-4,0.018 -0.024,0.008 -0.017,0.032 0.016,0.004 0.016,-0.009 0.032,-0.005 0.022,0.013 0.006,0.035 0.031,0.038 0.002,0.01 -0.015,0.027 0,0.032 0,-0.023 0.013,0.001 0.027,-0.004 -10e-4,0.013 -0.011,0.016 -10e-4,0.026 0.021,-0.007 0.028,0.005 0.048,0.012 -0.017,0.017 -10e-4,0.027 0.016,0.038 -0.01,0.006 -0.022,0.01 -0.023,0.026 0.036,0.007 0.025,0.06 0.047,0.065 0.002,0.011 -0.007,0.011 -0.011,0.016 0.009,0.008 0.011,0.022 0.032,0.017 0.004,0.016 -0.015,0.01 -0.011,0.026 0.02,-0.001 0.024,0.012 0.032,0.023 -0.01,0.005 -0.018,-0.017 -0.022,-10e-4 0.016,0.012 0.013,0.013 0.01,0.038 0.056,0.006 0.012,0.066 0.058,0.081 -0.026,0.022 0.025,0.04 -0.012,0.054 0.03,-0.001 0.031,0.041 0.042,0.054 0.004,0.006 0.012,-0.002 0.015,0.006 0,-0.002 -0.018,0 -0.016,0.005 0.006,0.015 0.036,0.042 0.01,0.059 0.013,0.02 0.045,0.044 0.025,0.065 0.009,0 0.018,0 0.027,0.001 -0.001,0.027 0.006,0.03 -0.001,0.053 0.024,-0.003 0.012,0.009 0.01,0.022 0.017,-0.004 0.016,0.009 0.032,0.006 -0.034,0.029 0.01,0.05 -10e-4,0.085 0.024,0 0.006,0.014 0.031,0.017 -0.002,0.022 0.01,0.024 -0.006,0.032 0.006,0.005 0.015,0.008 0.027,0.006 0.005,0.018 -0.018,0.007 -0.017,0.021 0.021,0.01 0.044,0.019 0.048,0.044 -0.028,-0.004 -0.008,0.011 -0.011,0.027 -0.057,0.025 -0.117,0.047 -0.163,0.082 0.009,0.011 -10e-4,0.007 0,0.022 -0.022,0.018 -0.036,0.027 -0.05,0.047 -0.126,0.19 0.203,0.271 0.331,0.36 0.004,0.013 0.009,0.027 0.015,0.038 0.061,0.011 0.054,0.106 0.105,0.11 0.008,0.019 -0.018,0.002 -0.016,0.015 0.029,0.034 0.085,0.068 0.072,0.125 0.023,0.021 0.064,0.049 0.057,0.082 0.013,-0.002 0.021,0.001 0.027,0.006 0.004,0.015 -0.008,0.013 -0.006,0.026 0.008,10e-4 0.02,-0.001 0.022,0.006 -0.005,0.01 -0.015,0.015 -0.017,0.027 0.018,0.011 0.029,0.024 0.048,0.022 -0.009,0.005 -0.006,0.023 -0.011,0.032 0.03,0.004 0.038,0.02 0.052,0.028 -0.018,0.016 0.013,0.03 0.005,0.054 0.035,-0.011 0.031,0.052 0.058,0.017 -0.005,0.012 -0.004,0.032 -0.011,0.042 0.008,0.002 0.019,-0.001 0.021,0.006 -0.018,0.021 0.011,0.064 0.031,0.049 0.004,0.015 -0.008,0.014 -0.006,0.027 0.04,10e-4 0.054,0.046 0.058,0.065 0.012,-0.005 0.034,0.003 0.026,0.022 0,-0.006 -10e-4,-0.012 -0.01,-0.011 10e-4,0.047 0.017,0.032 -0.012,0.059 0.017,0.015 0.023,-0.015 0.043,10e-4 0.007,0.014 -0.022,0.016 -0.006,0.021 0.02,-0.01 0.018,0.027 0.047,0.033 -0.011,-0.001 -0.002,0.019 -0.005,0.027 0.075,0.027 0.019,0.07 0.078,0.098 0.011,0.014 -0.006,0.03 0.005,0.038 0.097,-0.007 0.081,0.06 0.165,0.041 0.013,0.013 -0.008,0.01 -0.006,0.026 0.032,-0.004 0.036,0.029 0.064,0.012 0.006,0.021 -0.015,0.034 0.005,0.038 0.04,-0.011 0.115,0.06 0.187,0.036 0,0.008 -0.003,0.02 0.005,0.022 0.084,0.046 0.156,0.105 0.199,0.191 0.051,0.039 0.074,0.103 0.115,0.158 0.016,0.022 0.045,0.032 0.063,0.055 m -0.851,-8.455 c 0.034,0.019 -0.005,0.073 -0.013,0.091 10e-4,0.016 0.011,0.024 0.016,0.038 -0.043,0.065 -0.049,0.148 -0.086,0.234 0.002,0.012 0.019,0.01 0.016,0.027 -0.018,0.013 0.003,0.073 -0.034,0.08 0.021,0.014 -0.011,0.027 0.01,0.048 -0.007,0.007 -0.026,0.002 -0.027,0.016 0.005,-0.004 0.02,-0.013 0.016,0.005 -0.004,0.001 -0.007,0.005 -0.006,0.011 -0.003,0.011 -0.02,-0.009 -0.032,-0.006 -0.01,0.083 0.018,0.162 -0.02,0.208 0.025,0.016 -0.019,0.031 -10e-4,0.06 -0.008,0.002 -0.028,-0.008 -0.027,0.004 0.01,0.017 0.011,0.022 -0.006,0.032 0.004,0.009 0.019,0.009 0.021,0.022 -0.041,-0.002 -0.019,10e-4 -0.049,0.015 -0.027,-0.019 -0.014,-0.029 -0.048,-0.017 -0.002,-0.029 -0.05,-0.014 -0.052,-0.044 -0.017,-0.004 -0.016,0.009 -0.033,0.005 0.019,-0.106 -0.06,-0.064 -0.109,-0.136 -0.003,-0.017 0.014,-0.014 0.016,-0.027 -0.021,-0.022 -0.062,-0.061 -0.101,-0.05 -0.005,-0.042 -0.031,-0.073 -0.068,-0.098 0.016,-0.038 -0.021,-0.047 0.007,-0.059 -0.024,-0.002 -0.05,-0.014 -0.069,-0.033 -0.008,-0.02 0.019,-0.003 0.017,-0.016 -0.029,-0.008 -0.008,-0.03 -0.032,-0.038 0.014,0.001 0.017,-0.008 0.022,-0.016 -0.02,-0.021 -0.052,-0.057 -0.079,-0.061 0,0 -0.002,0.015 -0.006,0.011 0.003,0.002 -0.025,-0.03 -0.026,-0.032 -0.008,-0.026 0.008,-0.027 -0.015,-0.038 0.011,-0.005 0.012,-0.021 0.011,-0.038 -0.014,0.009 -0.04,-0.008 -0.053,-0.017 0.01,-0.012 0.024,-0.019 0.033,-0.032 -0.016,-0.006 -0.025,0.032 -0.027,0.005 -0.019,-0.01 0.01,-0.014 0.006,-0.026 -0.016,-0.005 -0.027,-0.013 -0.037,-0.023 -0.004,-0.016 0.009,-0.015 0.006,-0.032 -0.026,0.004 -0.035,-0.008 -0.048,-0.017 -0.007,-0.013 0.021,-0.016 0.006,-0.021 -0.007,0.001 -0.013,0.009 -0.016,0 0.026,-0.002 -0.003,-0.025 0,-0.038 -0.033,0.023 -0.041,-0.055 -0.074,-0.017 -0.005,-0.015 -0.004,-0.024 -0.003,-0.031 l 1.009,0 c -10e-4,0.001 -0.002,0.002 -0.003,0.003 0.014,0.005 0.015,0.024 0.02,0.038 -0.011,0.014 -0.029,-0.01 -0.032,0.01" />
        <path
           inkscape:connector-curvature="0"
           id="path77688"
           style="fill:#000000;fill-opacity:1;fill-rule:nonzero;stroke:none"
           d="m 779.5737,253.2048 -0.225,0 0,0.196 -0.128,0 0,-0.664 0.127,0 0,-0.203 -0.569,0 0,0.203 0.125,0 0,0.664 -0.131,0 0,-0.196 -0.225,0 0,0.397 1.026,0 0,-0.397 z" />
        <path
           inkscape:connector-curvature="0"
           id="path77690"
           style="fill:#000000;fill-opacity:1;fill-rule:nonzero;stroke:none"
           d="m 780.5416,253.6023 0,-0.338 -0.264,0 0,0.136 -0.245,0 0,-0.211 0.29,0 0,-0.203 -0.29,0 0,-0.249 0.245,0 0,0.142 0.264,0 0,-0.346 -0.922,0 0,0.204 0.096,0 0,0.663 -0.096,0 0,0.202 0.922,0 z" />
        <path
           inkscape:connector-curvature="0"
           id="path77692"
           style="fill:#000000;fill-opacity:1;fill-rule:nonzero;stroke:none"
           d="m 781.0861,253.6023 0,-0.202 -0.081,0 0,-0.663 0.197,0 0,0.194 0.257,0 0,-0.398 -0.856,0 0,0.204 0.084,0 0,0.663 -0.084,0 0,0.202 0.483,0 z" />
        <path
           inkscape:connector-curvature="0"
           id="path77694"
           style="fill:#000000;fill-opacity:1;fill-rule:nonzero;stroke:none"
           d="m 782.4424,253.6023 0,-0.338 -0.265,0 0,0.136 -0.244,0 0,-0.211 0.29,0 0,-0.203 -0.29,0 0,-0.249 0.244,0 0,0.142 0.265,0 0,-0.346 -0.922,0 0,0.204 0.096,0 0,0.663 -0.096,0 0,0.202 0.922,0 z" />
        <path
           inkscape:connector-curvature="0"
           id="path77696"
           style="fill:#000000;fill-opacity:1;fill-rule:nonzero;stroke:none"
           d="m 783.1152,252.876 c 0.003,0.043 0.024,0.118 0.055,0.194 l 0.139,0.334 -0.081,0 0,0.198 0.434,0 0,-0.198 -0.075,0 -0.366,-0.87 -0.282,0 -0.405,0.87 -0.084,0 0,0.198 0.563,0 0,-0.198 -0.083,0 0.13,-0.343 c 0.024,-0.075 0.044,-0.142 0.047,-0.185 l 0.008,0 z" />
        <path
           inkscape:connector-curvature="0"
           id="path77698"
           style="fill:#000000;fill-opacity:1;fill-rule:nonzero;stroke:none"
           d="m 784.1779,253.6023 0,-0.202 -0.095,0 0,-0.663 0.095,0 0,-0.204 -0.508,0 0,0.204 0.097,0 0,0.663 -0.097,0 0,0.202 0.508,0 z" />
        <path
           inkscape:connector-curvature="0"
           id="path77700"
           style="fill:#000000;fill-opacity:1;fill-rule:nonzero;stroke:none"
           d="m 784.2391,252.9188 0.284,0 c 0,-0.128 0.129,-0.15 0.193,-0.153 0.054,0 0.13,0.012 0.13,0.077 0,0.119 -0.587,0.068 -0.587,0.458 0,0.227 0.214,0.329 0.364,0.329 0.128,0 0.258,-0.041 0.319,-0.156 l 0.016,0.129 0.263,0 0,-0.384 -0.277,0 c 0,0.113 -0.089,0.177 -0.196,0.177 -0.044,0 -0.105,-0.028 -0.105,-0.081 0,-0.157 0.605,-0.121 0.605,-0.48 0,-0.239 -0.223,-0.324 -0.405,-0.324 -0.154,0 -0.261,0.072 -0.32,0.14 l -0.016,-0.117 -0.268,0 0,0.385 z" />
        <path
           inkscape:connector-curvature="0"
           id="path77702"
           style="fill:#000000;fill-opacity:1;fill-rule:nonzero;stroke:none"
           d="m 785.8172,253.6023 0,-0.202 -0.095,0 0,-0.663 0.095,0 0,-0.204 -0.508,0 0,0.204 0.097,0 0,0.663 -0.097,0 0,0.202 0.508,0 z" />
        <path
           inkscape:connector-curvature="0"
           id="path77704"
           style="fill:#000000;fill-opacity:1;fill-rule:nonzero;stroke:none"
           d="m 786.5665,253.0625 c 0,0.185 -0.051,0.333 -0.168,0.333 -0.094,0.002 -0.158,-0.133 -0.158,-0.322 0,-0.201 0.072,-0.327 0.17,-0.327 0.096,0 0.156,0.126 0.156,0.316 m -0.703,0.011 c 0,0.33 0.22,0.558 0.536,0.558 0.375,0 0.549,-0.225 0.549,-0.569 0,-0.346 -0.192,-0.557 -0.538,-0.557 -0.32,0 -0.547,0.186 -0.547,0.568" />
        <path
           inkscape:connector-curvature="0"
           id="path77706"
           style="fill:#000000;fill-opacity:1;fill-rule:nonzero;stroke:none"
           d="m 788.065,253.4051 0,-0.872 -0.329,0 -0.39,0.583 0,-0.385 0.118,0 0,-0.198 -0.469,0 0,0.198 0.09,0 0,0.674 -0.089,0 0,0.197 0.439,0 0.375,-0.561 0,0.364 -0.104,0 0,0.197 0.46,0 0,-0.197 -0.101,0 z" />
        <path
           inkscape:connector-curvature="0"
           id="path77708"
           style="fill:#000000;fill-opacity:1;fill-rule:nonzero;stroke:none"
           d="m 789.6645,253.4051 0,-0.872 -0.329,0 -0.39,0.583 0,-0.385 0.118,0 0,-0.198 -0.469,0 0,0.198 0.09,0 0,0.674 -0.089,0 0,0.197 0.439,0 0.375,-0.561 0,0.364 -0.104,0 0,0.197 0.46,0 0,-0.197 -0.101,0 z" />
        <path
           inkscape:connector-curvature="0"
           id="path77710"
           style="fill:#000000;fill-opacity:1;fill-rule:nonzero;stroke:none"
           d="m 790.7487,253.6023 0,-0.338 -0.264,0 0,0.136 -0.245,0 0,-0.211 0.29,0 0,-0.203 -0.29,0 0,-0.249 0.245,0 0,0.142 0.264,0 0,-0.346 -0.922,0 0,0.204 0.096,0 0,0.663 -0.096,0 0,0.202 0.922,0 z" />
        <path
           inkscape:connector-curvature="0"
           id="path77712"
           style="fill:#000000;fill-opacity:1;fill-rule:nonzero;stroke:none"
           d="m 791.8206,253.2048 -0.225,0 0,0.196 -0.128,0 0,-0.664 0.127,0 0,-0.203 -0.569,0 0,0.203 0.125,0 0,0.664 -0.131,0 0,-0.196 -0.225,0 0,0.397 1.026,0 0,-0.397 z" />
        <path
           inkscape:connector-curvature="0"
           id="path77714"
           style="fill:#000000;fill-opacity:1;fill-rule:nonzero;stroke:none"
           d="m 792.3252,252.8791 c 0.003,0.043 0.044,0.234 0.075,0.379 l 0.076,0.344 0.318,0 0.097,-0.422 c 0.021,-0.099 0.038,-0.225 0.046,-0.301 l 0.007,0 c 0.006,0.069 0.032,0.228 0.046,0.292 l 0.052,0.233 -0.084,0 0,0.198 0.437,0 0,-0.198 -0.084,0 -0.227,-0.871 -0.363,0 -0.092,0.364 c -0.013,0.052 -0.03,0.143 -0.038,0.19 l -0.006,0 c -0.006,-0.046 -0.026,-0.142 -0.037,-0.187 l -0.093,-0.367 -0.355,0 -0.202,0.871 -0.085,0 0,0.198 0.504,0 0,-0.198 -0.088,0 0.039,-0.224 c 0.017,-0.073 0.043,-0.255 0.049,-0.301 l 0.008,0 z" />
        <path
           inkscape:connector-curvature="0"
           id="path77716"
           style="fill:#000000;fill-opacity:1;fill-rule:nonzero;stroke:none"
           d="m 794.0914,253.0625 c 0,0.185 -0.051,0.333 -0.168,0.333 -0.094,0.002 -0.158,-0.133 -0.158,-0.322 0,-0.201 0.072,-0.327 0.17,-0.327 0.096,0 0.156,0.126 0.156,0.316 m -0.703,0.011 c 0,0.33 0.22,0.558 0.536,0.558 0.375,0 0.549,-0.225 0.549,-0.569 0,-0.346 -0.192,-0.557 -0.538,-0.557 -0.32,0 -0.547,0.186 -0.547,0.568" />
        <path
           inkscape:connector-curvature="0"
           id="path77718"
           style="fill:#000000;fill-opacity:1;fill-rule:nonzero;stroke:none"
           d="m 794.9202,253.1436 0.069,0 c 0.088,0 0.147,0.043 0.147,0.124 0,0.09 -0.051,0.136 -0.14,0.136 l -0.076,0 0,-0.26 z m 0.096,0.459 c 0.355,0 0.424,-0.141 0.424,-0.315 0,-0.12 -0.095,-0.204 -0.222,-0.222 0.106,-0.015 0.2,-0.107 0.2,-0.217 0,-0.066 0.01,-0.104 0.037,-0.104 0.023,0 0.035,0.018 0.035,0.049 l 0,0.05 0.103,0 0,-0.084 c 0,-0.127 -0.054,-0.244 -0.224,-0.244 -0.2,0 -0.296,0.105 -0.296,0.284 0,0.139 -0.017,0.173 -0.153,0.173 l 0,-0.237 0.093,0 0,-0.202 -0.494,0 0,0.202 0.086,0 0,0.666 -0.086,0 0,0.201 0.497,0 z" />
        <path
           inkscape:connector-curvature="0"
           id="path77720"
           style="fill:#000000;fill-opacity:1;fill-rule:nonzero;stroke:none"
           d="m 796.0303,253.4051 0,-0.249 0.284,0.249 -0.11,0 0,0.197 0.51,0 0,-0.197 -0.089,0 -0.222,-0.191 0.309,-0.482 0.089,0 0,-0.199 -0.597,0 0,0.199 0.104,0 -0.165,0.26 -0.113,-0.096 0,-0.164 0.083,0 0,-0.199 -0.482,0 0,0.199 0.083,0 0,0.673 -0.083,0 0,0.197 0.482,0 0,-0.197 -0.083,0 z" />
        <path
           inkscape:connector-curvature="0"
           id="path77722"
           style="fill:#000000;fill-opacity:1;fill-rule:nonzero;stroke:none"
           d="m 779.123,255.0405 0,-0.226 -0.106,0 0,-0.259 0.325,0 0,0.259 -0.101,0 0,0.226 0.557,0 0,-0.226 -0.099,0 0,-0.746 0.099,0 0,-0.226 -0.557,0 0,0.226 0.101,0 0,0.259 -0.325,0 0,-0.259 0.106,0 0,-0.226 -0.555,0 0,0.226 0.094,0 0,0.746 -0.094,0 0,0.226 0.555,0 z" />
        <path
           inkscape:connector-curvature="0"
           id="path77724"
           style="fill:#000000;fill-opacity:1;fill-rule:nonzero;stroke:none"
           d="m 780.4122,255.0405 0,-0.221 -0.093,0 0,-0.37 c 0,-0.276 0.062,-0.335 0.172,-0.335 0.104,0 0.173,0.041 0.173,0.336 l 0,0.364 -0.093,0 0,0.226 0.508,0 0,-0.221 -0.093,0 0,-0.417 c 0,-0.406 -0.169,-0.589 -0.492,-0.589 -0.346,0.01 -0.531,0.192 -0.531,0.581 l 0,0.423 -0.096,0 0,0.223 0.545,0 z" />
        <path
           inkscape:connector-curvature="0"
           id="path77726"
           style="fill:#000000;fill-opacity:1;fill-rule:nonzero;stroke:none"
           d="m 782.3476,254.8194 0,-0.977 -0.369,0 -0.437,0.653 0,-0.432 0.132,0 0,-0.221 -0.526,0 0,0.221 0.101,0 0,0.756 -0.099,0 0,0.221 0.492,0 0.42,-0.629 0,0.408 -0.117,0 0,0.221 0.516,0 0,-0.221 -0.113,0 z" />
        <path
           inkscape:connector-curvature="0"
           id="path77728"
           style="fill:#000000;fill-opacity:1;fill-rule:nonzero;stroke:none"
           d="m 783.6796,254.5948 -0.252,0 0,0.219 -0.144,0 0,-0.744 0.142,0 0,-0.228 -0.637,0 0,0.228 0.14,0 0,0.744 -0.147,0 0,-0.219 -0.252,0 0,0.446 1.15,0 0,-0.446 z" />
        <path
           inkscape:connector-curvature="0"
           id="path77730"
           style="fill:#000000;fill-opacity:1;fill-rule:nonzero;stroke:none"
           d="m 784.3173,255.0405 0,-0.226 -0.106,0 0,-0.744 0.106,0 0,-0.228 -0.569,0 0,0.228 0.108,0 0,0.744 -0.108,0 0,0.226 0.569,0 z" />
        <path
           inkscape:connector-curvature="0"
           id="path77732"
           style="fill:#000000;fill-opacity:1;fill-rule:nonzero;stroke:none"
           d="m 785.603,254.8194 0,-0.977 -0.369,0 -0.437,0.653 0,-0.432 0.132,0 0,-0.221 -0.526,0 0,0.221 0.101,0 0,0.756 -0.099,0 0,0.221 0.492,0 0.42,-0.629 0,0.408 -0.117,0 0,0.221 0.516,0 0,-0.221 -0.113,0 z" />
        <path
           inkscape:connector-curvature="0"
           id="path77734"
           style="fill:#000000;fill-opacity:1;fill-rule:nonzero;stroke:none"
           d="m 786.5989,253.9502 c -0.038,-0.063 -0.144,-0.123 -0.276,-0.123 -0.3,0 -0.538,0.233 -0.538,0.603 0,0.374 0.259,0.631 0.526,0.631 0.249,0 0.307,-0.117 0.334,-0.144 l 0.036,0.123 0.256,0 0,-0.505 -0.307,0 c -0.005,0.138 -0.094,0.217 -0.196,0.217 -0.138,0 -0.234,-0.151 -0.234,-0.322 0,-0.175 0.085,-0.315 0.234,-0.315 0.098,0 0.139,0.039 0.165,0.084 l 0,0.072 -0.104,0 0,0.183 0.569,0 0,-0.183 -0.069,0 0,-0.429 -0.343,0 -0.053,0.108 z" />
        <path
           inkscape:connector-curvature="0"
           id="path77736"
           style="fill:#000000;fill-opacity:1;fill-rule:nonzero;stroke:none"
           d="m 788.0492,254.6154 c 0.153,0.084 0.163,0.225 0.046,0.225 -0.127,0 -0.101,-0.167 -0.046,-0.225 m -0.098,-0.3 c -0.293,-0.252 0.021,-0.42 0.185,-0.285 -0.075,0.086 -0.144,0.206 -0.185,0.285 m 0.676,0.137 -0.016,-0.259 c -0.041,0 -0.084,-0.005 -0.135,-0.001 -0.01,-0.047 -0.028,-0.088 -0.057,-0.127 0.048,-0.064 0.105,-0.105 0.173,-0.065 0,-0.079 -0.135,-0.261 -0.329,-0.115 -0.168,-0.125 -0.654,-0.141 -0.654,0.245 0,0.235 0.166,0.329 0.241,0.379 -0.17,0.26 0.021,0.475 0.223,0.475 0.338,0 0.422,-0.357 0.079,-0.564 0.068,-0.119 0.118,-0.184 0.149,-0.216 0.046,0.075 0.043,0.116 0.043,0.248 l 0.283,0 z" />
        <g
           id="g77738"
           transform="translate(788.0492,254.6154)">
          <path
             inkscape:connector-curvature="0"
             id="path77740"
             style="fill:none;stroke:#020202;stroke-width:0.145;stroke-linecap:butt;stroke-linejoin:miter;stroke-miterlimit:10;stroke-opacity:1;stroke-dasharray:none"
             d="M 0,0 C 0.153,0.084 0.163,0.225 0.046,0.225 -0.081,0.225 -0.055,0.058 0,0 z m -0.098,-0.3 c -0.293,-0.252 0.021,-0.42 0.185,-0.285 -0.075,0.086 -0.144,0.206 -0.185,0.285 z M 0.578,-0.163 0.562,-0.422 C 0.521,-0.422 0.478,-0.427 0.427,-0.423 0.417,-0.47 0.399,-0.511 0.37,-0.55 0.418,-0.614 0.475,-0.655 0.543,-0.615 0.543,-0.694 0.408,-0.876 0.214,-0.73 0.046,-0.855 -0.44,-0.871 -0.44,-0.485 c 0,0.235 0.166,0.329 0.241,0.379 -0.17,0.26 0.021,0.475 0.223,0.475 0.338,0 0.422,-0.357 0.079,-0.564 0.068,-0.119 0.118,-0.184 0.149,-0.216 0.046,0.075 0.043,0.116 0.043,0.248 l 0.283,0 z" />
        </g>
        <path
           inkscape:connector-curvature="0"
           id="path77742"
           style="fill:#000000;fill-opacity:1;fill-rule:nonzero;stroke:none"
           d="m 790.2144,255.0405 0,-0.379 -0.303,0 0,0.153 -0.259,0 0,-0.299 0.325,0 0,-0.228 -0.325,0 0,-0.217 0.175,0 0,-0.228 -0.638,0 0,0.228 0.106,0 0,0.744 -0.106,0 0,0.226 1.025,0 z" />
        <path
           inkscape:connector-curvature="0"
           id="path77744"
           style="fill:#000000;fill-opacity:1;fill-rule:nonzero;stroke:none"
           d="m 790.8521,255.0405 0,-0.226 -0.106,0 0,-0.744 0.106,0 0,-0.228 -0.569,0 0,0.228 0.108,0 0,0.744 -0.108,0 0,0.226 0.569,0 z" />
        <path
           inkscape:connector-curvature="0"
           id="path77746"
           style="fill:#000000;fill-opacity:1;fill-rule:nonzero;stroke:none"
           d="m 790.9377,254.2742 0.319,0 c 0,-0.144 0.144,-0.168 0.216,-0.171 0.06,0 0.146,0.013 0.146,0.085 0,0.134 -0.659,0.077 -0.659,0.515 0,0.253 0.24,0.368 0.408,0.368 0.144,0 0.29,-0.046 0.359,-0.175 l 0.017,0.144 0.295,0 0,-0.43 -0.311,0 c 0,0.127 -0.099,0.199 -0.219,0.199 -0.05,0 -0.118,-0.031 -0.118,-0.091 0,-0.176 0.678,-0.135 0.678,-0.538 0,-0.268 -0.25,-0.364 -0.454,-0.364 -0.173,0 -0.293,0.081 -0.358,0.158 l -0.019,-0.132 -0.3,0 0,0.432 z" />
        <path
           inkscape:connector-curvature="0"
           id="path77748"
           style="fill:#000000;fill-opacity:1;fill-rule:nonzero;stroke:none"
           d="m 792.7102,255.0405 0,-0.226 -0.106,0 0,-0.259 0.325,0 0,0.259 -0.101,0 0,0.226 0.558,0 0,-0.226 -0.1,0 0,-0.746 0.1,0 0,-0.226 -0.558,0 0,0.226 0.101,0 0,0.259 -0.325,0 0,-0.259 0.106,0 0,-0.226 -0.555,0 0,0.226 0.094,0 0,0.746 -0.094,0 0,0.226 0.555,0 z" />
        <path
           inkscape:connector-curvature="0"
           id="path77750"
           style="fill:#000000;fill-opacity:1;fill-rule:nonzero;stroke:none"
           d="m 794.0405,255.0405 0,-0.226 -0.106,0 0,-0.744 0.106,0 0,-0.228 -0.569,0 0,0.228 0.108,0 0,0.744 -0.108,0 0,0.226 0.569,0 z" />
        <path
           inkscape:connector-curvature="0"
           id="path77752"
           style="fill:#000000;fill-opacity:1;fill-rule:nonzero;stroke:none"
           d="m 795.3262,254.8194 0,-0.977 -0.369,0 -0.437,0.653 0,-0.432 0.132,0 0,-0.221 -0.526,0 0,0.221 0.101,0 0,0.756 -0.099,0 0,0.221 0.492,0 0.42,-0.629 0,0.408 -0.117,0 0,0.221 0.516,0 0,-0.221 -0.113,0 z" />
        <path
           inkscape:connector-curvature="0"
           id="path77754"
           style="fill:#000000;fill-opacity:1;fill-rule:nonzero;stroke:none"
           d="m 796.3221,253.9502 c -0.038,-0.063 -0.144,-0.123 -0.276,-0.123 -0.3,0 -0.538,0.233 -0.538,0.603 0,0.374 0.259,0.631 0.526,0.631 0.249,0 0.307,-0.117 0.334,-0.144 l 0.036,0.123 0.256,0 0,-0.505 -0.307,0 c -0.005,0.138 -0.094,0.217 -0.196,0.217 -0.138,0 -0.234,-0.151 -0.234,-0.322 0,-0.175 0.085,-0.315 0.234,-0.315 0.098,0 0.139,0.039 0.165,0.084 l 0,0.072 -0.104,0 0,0.183 0.569,0 0,-0.183 -0.069,0 0,-0.429 -0.343,0 -0.053,0.108 z" />
      </g>
    </g>
  </g>
</svg>
