<?xml version="1.0" encoding="UTF-8" standalone="yes"?>
<svg xmlns="http://www.w3.org/2000/svg" xmlns:xlink="http://www.w3.org/1999/xlink" width="304px" height="106.66666666666666px" viewBox="0 0 228 80" version="1.1">
  <g id="surface1">
    <path style=" stroke:none;fill-rule:nonzero;fill:rgb(50.196078%,50.588235%,51.764706%);fill-opacity:1;" d="M 64.960938 6.296875 C 65.863281 6.304688 66.765625 6.300781 67.671875 6.324219 C 70.847656 11.089844 74.15625 15.773438 77.074219 20.710938 C 77.121094 15.910156 77.082031 11.105469 77.09375 6.304688 C 78.054688 6.304688 79.019531 6.304688 79.984375 6.304688 C 79.972656 13.128906 80 19.957031 79.972656 26.78125 C 79.105469 26.8125 78.238281 26.8125 77.371094 26.792969 C 74.070312 22.039062 70.867188 17.21875 67.796875 12.304688 C 67.882812 17.136719 67.761719 21.96875 67.851562 26.800781 C 66.890625 26.8125 65.921875 26.808594 64.960938 26.804688 C 64.960938 19.972656 64.960938 13.132812 64.960938 6.296875 Z M 64.960938 6.296875 "/>
    <path style=" stroke:none;fill-rule:nonzero;fill:rgb(50.196078%,50.588235%,51.764706%);fill-opacity:1;" d="M 88.054688 6.304688 C 89.035156 6.304688 90.015625 6.304688 90.996094 6.304688 C 93.125 13.140625 95.265625 19.972656 97.351562 26.8125 C 96.046875 26.804688 94.742188 26.808594 93.441406 26.8125 C 92.894531 24.929688 92.339844 23.050781 91.828125 21.160156 C 89.890625 21.164062 87.960938 21.160156 86.023438 21.160156 C 85.359375 22.996094 84.984375 24.925781 84.242188 26.730469 C 83.230469 26.886719 82.195312 26.785156 81.175781 26.804688 C 82.421875 23.175781 83.511719 19.5 84.84375 15.90625 C 85.8125 12.671875 87.039062 9.523438 88.054688 6.304688 M 89.164062 10.296875 C 88.566406 13.117188 87.769531 15.894531 86.902344 18.640625 C 88.351562 18.644531 89.796875 18.644531 91.246094 18.640625 C 90.71875 15.816406 89.621094 13.132812 89.164062 10.296875 Z M 89.164062 10.296875 "/>
    <path style=" stroke:none;fill-rule:nonzero;fill:rgb(50.196078%,50.588235%,51.764706%);fill-opacity:1;" d="M 95.539062 6.304688 C 100.148438 6.300781 104.753906 6.304688 109.363281 6.304688 C 109.359375 7.257812 109.359375 8.210938 109.359375 9.164062 C 107.660156 9.164062 105.960938 9.164062 104.257812 9.164062 C 104.261719 15.039062 104.265625 20.914062 104.257812 26.789062 C 103.058594 26.816406 101.855469 26.816406 100.65625 26.789062 C 100.652344 20.910156 100.652344 15.039062 100.652344 9.164062 C 98.953125 9.164062 97.25 9.164062 95.546875 9.164062 C 95.542969 8.210938 95.542969 7.257812 95.539062 6.304688 Z M 95.539062 6.304688 "/>
    <path style=" stroke:none;fill-rule:nonzero;fill:rgb(50.196078%,50.588235%,51.764706%);fill-opacity:1;" d="M 123.824219 6.929688 C 126.019531 6.449219 128.332031 7.082031 130.175781 8.3125 C 129.816406 9.125 129.445312 9.933594 129.078125 10.742188 C 127.574219 9.941406 125.8125 9.433594 124.121094 9.898438 C 121.765625 10.496094 120.285156 12.863281 119.933594 15.152344 C 119.769531 17.113281 119.734375 19.199219 120.699219 20.980469 C 121.496094 22.777344 123.25 24.121094 125.234375 24.230469 C 126.011719 24.132812 126.789062 24.011719 127.539062 23.789062 C 127.53125 21.792969 127.539062 19.792969 127.535156 17.792969 C 128.632812 17.792969 129.734375 17.792969 130.835938 17.804688 C 130.773438 20.523438 130.773438 23.246094 130.835938 25.964844 C 128.234375 26.882812 125.371094 27.554688 122.660156 26.707031 C 120.292969 26.105469 118.457031 24.199219 117.347656 22.089844 C 115.914062 18.898438 115.871094 15.082031 117.320312 11.890625 C 118.589844 9.378906 121.011719 7.371094 123.824219 6.929688 Z M 123.824219 6.929688 "/>
    <path style=" stroke:none;fill-rule:nonzero;fill:rgb(50.196078%,50.588235%,51.764706%);fill-opacity:1;" d="M 151.421875 7.027344 C 153.929688 6.257812 156.71875 7.28125 158.488281 9.132812 C 160.011719 10.59375 160.75 12.675781 161.125 14.707031 C 161.515625 17.472656 161.128906 20.359375 159.898438 22.878906 C 158.925781 24.675781 157.363281 26.269531 155.34375 26.792969 C 152.707031 27.578125 149.5625 26.859375 147.777344 24.695312 C 145.59375 22.386719 145.046875 19.042969 145.195312 15.980469 C 145.167969 12.128906 147.5625 8.039062 151.421875 7.027344 M 150.511719 10.855469 C 149.464844 12.03125 148.9375 13.589844 148.742188 15.132812 C 148.519531 17.613281 148.6875 20.285156 150.042969 22.449219 C 150.71875 23.535156 151.914062 24.15625 153.171875 24.230469 C 154.757812 24.175781 156.164062 23.144531 156.765625 21.6875 C 157.554688 19.617188 157.859375 17.351562 157.59375 15.152344 C 157.332031 13.503906 156.933594 11.691406 155.574219 10.578125 C 154.160156 9.335938 151.777344 9.453125 150.511719 10.855469 Z M 150.511719 10.855469 "/>
    <path style=" stroke:none;fill-rule:nonzero;fill:rgb(50.196078%,50.588235%,51.764706%);fill-opacity:1;" d="M 134.15625 7.125 C 137.035156 7.136719 139.921875 7.097656 142.804688 7.148438 C 142.800781 8.058594 142.800781 8.972656 142.800781 9.882812 C 140.988281 9.894531 139.167969 9.882812 137.351562 9.894531 C 137.355469 11.648438 137.332031 13.40625 137.402344 15.160156 C 139.175781 15.183594 140.957031 15.105469 142.730469 15.164062 C 142.726562 16.070312 142.726562 16.972656 142.734375 17.878906 C 140.9375 17.898438 139.144531 17.878906 137.351562 17.894531 C 137.351562 19.953125 137.351562 22.015625 137.351562 24.078125 C 139.523438 24.085938 141.699219 24.070312 143.875 24.085938 C 143.863281 24.992188 143.863281 25.898438 143.867188 26.804688 C 140.628906 26.816406 137.394531 26.804688 134.15625 26.808594 C 134.15625 20.25 134.152344 13.6875 134.15625 7.125 Z M 134.15625 7.125 "/>
    <path style=" stroke:none;fill-rule:nonzero;fill:rgb(50.196078%,50.588235%,51.764706%);fill-opacity:1;" d="M 61.679688 32.027344 C 65.242188 31.632812 68.796875 31.164062 72.363281 30.828125 C 74.03125 40.710938 75.617188 50.609375 77.039062 60.527344 C 79.371094 50.761719 81.890625 41.046875 84.691406 31.40625 C 87.597656 31.410156 90.503906 31.402344 93.410156 31.410156 C 95.496094 38.695312 97.636719 45.960938 99.566406 53.292969 C 100.148438 55.8125 100.796875 58.3125 101.445312 60.820312 C 102.535156 50.78125 104.207031 40.8125 105.71875 30.832031 C 108.800781 31.148438 111.867188 31.636719 114.941406 32.015625 C 113.671875 39.09375 112.085938 46.109375 110.769531 53.175781 C 109.359375 59.921875 108.097656 66.695312 106.710938 73.449219 C 102.8125 73.441406 98.914062 73.449219 95.015625 73.445312 C 92.582031 65.136719 90.164062 56.8125 88.246094 48.371094 C 86.613281 55.789062 84.863281 63.183594 82.820312 70.5 C 82.535156 71.472656 82.332031 72.46875 82.089844 73.453125 C 78.167969 73.441406 74.25 73.449219 70.332031 73.445312 C 68.683594 65.832031 67.167969 58.1875 65.519531 50.574219 C 64.308594 44.378906 62.871094 38.226562 61.679688 32.027344 Z M 61.679688 32.027344 "/>
    <path style=" stroke:none;fill-rule:nonzero;fill:rgb(50.196078%,50.588235%,51.764706%);fill-opacity:1;" d="M 116.910156 31.410156 C 120.464844 31.429688 124.019531 31.355469 127.570312 31.453125 C 127.589844 45.453125 127.578125 59.449219 127.574219 73.445312 C 124.019531 73.449219 120.460938 73.445312 116.902344 73.445312 C 116.902344 59.433594 116.886719 45.421875 116.910156 31.410156 Z M 116.910156 31.410156 "/>
    <path style=" stroke:none;fill-rule:nonzero;fill:rgb(50.196078%,50.588235%,51.764706%);fill-opacity:1;" d="M 132.089844 73.445312 C 132.085938 59.429688 132.085938 45.421875 132.089844 31.40625 C 135.589844 31.410156 139.089844 31.40625 142.589844 31.410156 C 142.585938 42.773438 142.589844 54.144531 142.585938 65.507812 C 146.785156 65.507812 150.984375 65.507812 155.183594 65.507812 C 155.179688 68.152344 155.183594 70.800781 155.183594 73.445312 C 147.484375 73.445312 139.785156 73.449219 132.089844 73.445312 Z M 132.089844 73.445312 "/>
    <path style=" stroke:none;fill-rule:nonzero;fill:rgb(50.196078%,50.588235%,51.764706%);fill-opacity:1;" d="M 158.234375 31.410156 C 162.773438 31.414062 167.316406 31.390625 171.859375 31.417969 C 176.285156 31.449219 180.921875 32.523438 184.398438 35.410156 C 187.9375 38.277344 189.988281 42.664062 190.613281 47.125 C 191.019531 49.207031 190.851562 51.335938 190.871094 53.441406 C 190.542969 58.613281 188.984375 63.976562 185.296875 67.777344 C 182.726562 70.589844 179.140625 72.308594 175.441406 73.054688 C 172.753906 73.605469 170.003906 73.417969 167.28125 73.445312 C 164.265625 73.445312 161.253906 73.449219 158.238281 73.445312 C 158.230469 59.433594 158.234375 45.421875 158.234375 31.410156 M 168.703125 39.460938 C 168.710938 48.144531 168.714844 56.824219 168.703125 65.503906 C 171.335938 65.636719 174.261719 65.523438 176.316406 63.628906 C 178.710938 61.25 179.613281 57.808594 179.964844 54.542969 C 180.246094 51.234375 180.238281 47.761719 178.847656 44.675781 C 177.929688 42.71875 176.546875 40.835938 174.503906 39.972656 C 172.671875 39.164062 170.636719 39.515625 168.703125 39.460938 Z M 168.703125 39.460938 "/>
    <path style=" stroke:none;fill-rule:nonzero;fill:rgb(50.196078%,50.588235%,51.764706%);fill-opacity:1;" d="M 194.027344 54.1875 C 203.730469 54.195312 213.4375 54.1875 223.140625 54.191406 C 223.136719 60.441406 223.136719 66.6875 223.136719 72.9375 C 209.808594 72.921875 196.480469 72.964844 183.152344 72.917969 C 187.488281 70.886719 190.660156 66.855469 192.289062 62.410156 C 193.328125 59.792969 193.828125 56.996094 194.027344 54.1875 M 199.007812 58.035156 C 199.019531 61.75 199 65.472656 199.015625 69.1875 C 199.8125 69.1875 200.613281 69.1875 201.410156 69.1875 C 201.417969 67.585938 201.414062 65.980469 201.414062 64.378906 C 202.519531 64.375 203.621094 64.375 204.726562 64.398438 C 204.699219 65.996094 204.703125 67.589844 204.714844 69.1875 C 205.511719 69.1875 206.3125 69.1875 207.113281 69.1875 C 207.125 65.472656 207.109375 61.753906 207.117188 58.039062 C 206.3125 58.035156 205.507812 58.035156 204.707031 58.039062 C 204.710938 59.4375 204.707031 60.839844 204.710938 62.238281 C 203.609375 62.238281 202.507812 62.238281 201.414062 62.238281 C 201.414062 60.839844 201.414062 59.4375 201.417969 58.039062 C 200.613281 58.035156 199.808594 58.035156 199.007812 58.035156 M 209.65625 58.035156 C 209.65625 61.75 209.648438 65.464844 209.65625 69.179688 C 211.433594 69.21875 213.246094 69.367188 214.988281 68.945312 C 216.679688 68.347656 217.886719 66.699219 218.082031 64.925781 C 218.425781 62.777344 218.082031 60.046875 216.023438 58.851562 C 214.117188 57.640625 211.777344 58.132812 209.65625 58.035156 Z M 209.65625 58.035156 "/>
    <path style=" stroke:none;fill-rule:nonzero;fill:rgb(50.196078%,50.588235%,51.764706%);fill-opacity:1;" d="M 212.199219 60.046875 C 213.28125 60.058594 214.621094 60.011719 215.230469 61.109375 C 215.964844 62.601562 215.8125 64.460938 215.101562 65.929688 C 214.542969 67.015625 213.234375 66.949219 212.199219 66.953125 C 212.195312 64.652344 212.191406 62.351562 212.199219 60.046875 Z M 212.199219 60.046875 "/>
    <path style=" stroke:none;fill-rule:nonzero;fill:rgb(98.039216%,85.098039%,10.196078%);fill-opacity:1;" d="M 4.972656 6.695312 C 20.488281 6.730469 36.003906 6.691406 51.519531 6.714844 C 51.503906 29.027344 51.5 51.339844 51.523438 73.652344 C 36.003906 73.621094 20.484375 73.625 4.964844 73.652344 C 5.007812 51.332031 4.992188 29.015625 4.972656 6.695312 M 11.679688 13.582031 C 11.710938 31.367188 11.730469 49.152344 11.667969 66.933594 C 22.6875 66.929688 33.703125 66.957031 44.722656 66.921875 C 44.753906 49.140625 44.6875 31.359375 44.757812 13.582031 C 33.730469 13.574219 22.707031 13.574219 11.679688 13.582031 Z M 11.679688 13.582031 "/>
    <path style=" stroke:none;fill-rule:nonzero;fill:rgb(100%,100%,100%);fill-opacity:1;" d="M 199.007812 58.035156 C 199.808594 58.035156 200.613281 58.035156 201.417969 58.039062 C 201.414062 59.4375 201.414062 60.839844 201.414062 62.238281 C 202.507812 62.238281 203.609375 62.238281 204.710938 62.238281 C 204.707031 60.839844 204.710938 59.4375 204.707031 58.039062 C 205.507812 58.035156 206.3125 58.035156 207.117188 58.039062 C 207.109375 61.753906 207.125 65.472656 207.113281 69.1875 C 206.3125 69.1875 205.511719 69.1875 204.714844 69.1875 C 204.703125 67.589844 204.699219 65.996094 204.726562 64.398438 C 203.621094 64.375 202.519531 64.375 201.414062 64.378906 C 201.414062 65.980469 201.417969 67.585938 201.410156 69.1875 C 200.613281 69.1875 199.8125 69.1875 199.015625 69.1875 C 199 65.472656 199.019531 61.75 199.007812 58.035156 Z M 199.007812 58.035156 "/>
    <path style=" stroke:none;fill-rule:nonzero;fill:rgb(100%,100%,100%);fill-opacity:1;" d="M 209.65625 58.035156 C 211.777344 58.132812 214.117188 57.640625 216.023438 58.851562 C 218.082031 60.046875 218.425781 62.777344 218.082031 64.925781 C 217.886719 66.699219 216.679688 68.347656 214.988281 68.945312 C 213.246094 69.367188 211.433594 69.21875 209.65625 69.179688 C 209.648438 65.464844 209.65625 61.75 209.65625 58.035156 M 212.199219 60.046875 C 212.191406 62.351562 212.195312 64.652344 212.199219 66.953125 C 213.234375 66.949219 214.542969 67.015625 215.101562 65.929688 C 215.8125 64.460938 215.964844 62.601562 215.230469 61.109375 C 214.621094 60.011719 213.28125 60.058594 212.199219 60.046875 Z M 212.199219 60.046875 "/>
  </g>
</svg>