<?xml version="1.0" encoding="UTF-8" standalone="no"?>
<!-- Created with Inkscape (http://www.inkscape.org/) -->

<svg
   xmlns:dc="http://purl.org/dc/elements/1.1/"
   xmlns:cc="http://creativecommons.org/ns#"
   xmlns:rdf="http://www.w3.org/1999/02/22-rdf-syntax-ns#"
   xmlns:svg="http://www.w3.org/2000/svg"
   xmlns="http://www.w3.org/2000/svg"
   xmlns:xlink="http://www.w3.org/1999/xlink"
   xmlns:sodipodi="http://sodipodi.sourceforge.net/DTD/sodipodi-0.dtd"
   xmlns:inkscape="http://www.inkscape.org/namespaces/inkscape"
   width="541"
   height="90"
   id="svg2"
   version="1.1">
  <g
     inkscape:label="Layer 1"
     inkscape:groupmode="layer"
     id="layer1"
     transform="translate(-121.95595,-705.08316)">
    <path
       d="m 662.95595,705.08351 h -541 v 89.99965 h 541 v -89.99965 z m -3.20856,86.71581 H 125.16451 v -83.43668 h 534.58288 v 83.43668 z"
       id="path2849"
       style="fill:#0074be" />
    <path
       style="fill:#0074be"
       id="path2859"
       d="m 276.987,670.968 c -1.026,0 -1.802,0.346 -2.373,1.053 -0.571,0.711 -0.86,1.652 -0.86,2.798 0,1.194 0.289,2.163 0.86,2.876 0.571,0.712 1.347,1.06 2.373,1.06 1.015,0 1.787,-0.348 2.354,-1.06 0.573,-0.713 0.864,-1.682 0.864,-2.876 0,-1.146 -0.291,-2.087 -0.864,-2.798 -0.567,-0.708 -1.339,-1.053 -2.354,-1.053 m 33.064,0.226 h -1.603 v 7.245 h 1.603 c 1.206,0 2.097,-0.355 2.647,-1.052 0.56,-0.709 0.845,-1.585 0.845,-2.599 0,-0.988 -0.285,-1.849 -0.845,-2.553 -0.551,-0.69 -1.441,-1.041 -2.647,-1.041 m -19.309,0.336 c -0.357,-0.224 -0.769,-0.336 -1.224,-0.336 h -2.84 v 2.735 h 2.72 c 0.446,0 0.877,-0.119 1.281,-0.357 0.379,-0.22 0.562,-0.553 0.562,-1.019 0,-0.477 -0.161,-0.811 -0.499,-1.023 m 31.132,-6.163 h -70.108 v 18.874 h 70.108 V 665.367 z M 265.58,680.65 c 0,0 -1.681,-6.097 -1.973,-7.155 -0.292,1.059 -1.974,7.155 -1.974,7.155 h -2.449 l -3.309,-11.673 h 2.569 c 0,0 1.669,6.125 1.958,7.185 0.295,-1.058 2.006,-7.185 2.006,-7.185 h 2.399 c 0,0 1.713,6.151 2.007,7.204 0.292,-1.053 1.991,-7.204 1.991,-7.204 h 2.551 l -3.308,11.673 h -2.468 z m 15.696,-1.366 c -1.065,1.117 -2.508,1.683 -4.289,1.683 -1.792,0 -3.236,-0.565 -4.29,-1.683 -1.051,-1.112 -1.584,-2.613 -1.584,-4.466 0,-1.825 0.533,-3.311 1.586,-4.414 1.052,-1.105 2.496,-1.666 4.288,-1.666 1.78,0 3.223,0.561 4.289,1.665 1.063,1.104 1.602,2.59 1.602,4.415 0,1.853 -0.539,3.354 -1.602,4.466 m 10.553,1.368 c 0,0 -3.257,-4.335 -3.362,-4.476 h -1.789 v 4.46 h -2.503 v -11.689 h 5.238 c 1.258,0 2.328,0.327 3.173,0.974 0.86,0.655 1.296,1.543 1.296,2.633 0,0.781 -0.263,1.476 -0.783,2.063 -0.459,0.521 -1.056,0.922 -1.757,1.205 0.252,0.338 3.592,4.831 3.592,4.831 h -3.105 z m 12.888,-0.002 h -8.762 v -11.673 h 2.501 v 9.475 h 6.261 v 2.198 z m 9.471,-1.648 c -1.047,1.104 -2.024,1.666 -3.829,1.666 h -4.415 v -11.721 h 4.415 c 1.805,0 2.782,0.562 3.829,1.666 1.048,1.104 1.576,2.51 1.576,4.176 10e-4,1.693 -0.528,3.111 -1.576,4.213"
       clip-path="url(#SVGID_26_)"
       transform="matrix(4.7046341,0,0,4.7046341,-852.13853,-2424.6743)" />
    <path
       style="fill:#0074be"
       id="path2861"
       d="m 241.012,673.269 c -0.511,-0.153 -0.795,-0.766 -0.732,-1.336 0.058,-0.564 0.511,-1.364 1.585,-1.357 l 5.824,-0.007 v -1.905 l -5.535,-0.007 c -1.131,-0.118 -2.094,0.159 -2.094,0.159 0,0 -1.988,0.26 -2.525,2.188 -0.378,1.357 -0.028,2.981 1.262,3.846 1.896,1.274 4.105,0.18 6.045,0.91 0.889,0.333 1.2,1.431 0.798,2.285 0,0 -0.569,1.09 -1.583,0.98 l -6.233,-0.007 v 1.934 l 7.522,0.021 c 0,0 2.376,-0.191 3.094,-2.324 0.525,-1.557 0.316,-2.69 -0.858,-3.983 -1.702,-1.868 -4.265,-0.703 -6.57,-1.397"
       clip-path="url(#SVGID_26_)"
       transform="matrix(4.7046341,0,0,4.7046341,-852.13853,-2424.6743)" />
    <polygon
       style="fill:#0074be"
       id="polygon2863"
       points="216.385,674.971 220.861,680.949 224.328,680.949 219.264,674.661 223.926,668.675 220.73,668.675 216.095,674.428 216.095,668.675 213.43,668.675 213.43,680.985 216.143,680.985 216.139,674.865 "
       clip-path="url(#SVGID_26_)"
       transform="matrix(4.7046341,0,0,4.7046341,-852.13853,-2424.6743)" />
    <path
       style="fill:#0074be"
       id="path2865"
       d="m 236.577,676.901 c -0.158,-1.045 -0.832,-2.018 -1.718,-2.57 0,0 0.716,-0.834 0.981,-1.433 0.218,-0.492 0.137,-1.455 0.137,-1.455 -0.202,-1.616 -1.212,-2.824 -3.118,-2.835 l -7.364,0.008 v 12.435 l 6.865,-0.027 0.726,0.007 c 2.439,-0.174 3.762,-2.318 3.491,-4.13 m -8.528,-6.284 h 4.089 c 0,0 1.173,-0.066 1.188,1.438 0,0 0.053,1.292 -1.176,1.388 h -4.101 v -2.826 z m 4.233,8.315 h -4.233 v -3.46 h 4.134 c 0,0 1.464,-0.032 1.531,1.665 0,0 0.101,1.663 -1.432,1.795"
       clip-path="url(#SVGID_26_)"
       transform="matrix(4.7046341,0,0,4.7046341,-852.13853,-2424.6743)" />
    <g
       id="g2987"
       transform="translate(-14.832512,109.33462)">
	<defs
   id="defs2989">
		<rect
   id="SVGID_37_"
   x="34.015999"
   y="621.73999"
   width="544"
   height="113" />

	</defs>

	<clipPath
   id="SVGID_38_">
		<use
   xlink:href="#SVGID_37_"
   overflow="visible"
   id="use2993"
   style="overflow:visible"
   x="0"
   y="0"
   width="612"
   height="792" />

	</clipPath>

	
		<line
   clip-path="url(#SVGID_38_)"
   stroke-miterlimit="10"
   x1="28.02"
   y1="621.36102"
   x2="1.02"
   y2="621.36102"
   id="line2995"
   style="fill:none;stroke:#ffffff;stroke-width:1.25;stroke-miterlimit:10" />

	
		<line
   clip-path="url(#SVGID_38_)"
   stroke-miterlimit="10"
   x1="584.27197"
   y1="621.36102"
   x2="611.27197"
   y2="621.36102"
   id="line2997"
   style="fill:none;stroke:#ffffff;stroke-width:1.25;stroke-miterlimit:10" />

	
		<line
   clip-path="url(#SVGID_38_)"
   stroke-miterlimit="10"
   x1="28.02"
   y1="734.74701"
   x2="1.02"
   y2="734.74701"
   id="line2999"
   style="fill:none;stroke:#ffffff;stroke-width:1.25;stroke-miterlimit:10" />

	
		<line
   clip-path="url(#SVGID_38_)"
   stroke-miterlimit="10"
   x1="584.27197"
   y1="734.74701"
   x2="611.27197"
   y2="734.74701"
   id="line3001"
   style="fill:none;stroke:#ffffff;stroke-width:1.25;stroke-miterlimit:10" />

	
		<line
   clip-path="url(#SVGID_38_)"
   stroke-miterlimit="10"
   x1="34.02"
   y1="615.36102"
   x2="34.02"
   y2="588.36102"
   id="line3003"
   style="fill:none;stroke:#ffffff;stroke-width:1.25;stroke-miterlimit:10" />

	
		<line
   clip-path="url(#SVGID_38_)"
   stroke-miterlimit="10"
   x1="34.02"
   y1="740.74701"
   x2="34.02"
   y2="767.74701"
   id="line3005"
   style="fill:none;stroke:#ffffff;stroke-width:1.25;stroke-miterlimit:10" />

	
		<line
   clip-path="url(#SVGID_38_)"
   stroke-miterlimit="10"
   x1="578.27197"
   y1="615.36102"
   x2="578.27197"
   y2="588.36102"
   id="line3007"
   style="fill:none;stroke:#ffffff;stroke-width:1.25;stroke-miterlimit:10" />

	
		<line
   clip-path="url(#SVGID_38_)"
   stroke-miterlimit="10"
   x1="578.27197"
   y1="740.74701"
   x2="578.27197"
   y2="767.74701"
   id="line3009"
   style="fill:none;stroke:#ffffff;stroke-width:1.25;stroke-miterlimit:10" />

	
		<line
   clip-path="url(#SVGID_38_)"
   stroke-miterlimit="10"
   x1="28.02"
   y1="621.36102"
   x2="1.02"
   y2="621.36102"
   id="line3011"
   style="fill:none;stroke:#000000;stroke-width:0.25;stroke-miterlimit:10" />

	
		<line
   clip-path="url(#SVGID_38_)"
   stroke-miterlimit="10"
   x1="584.27197"
   y1="621.36102"
   x2="611.27197"
   y2="621.36102"
   id="line3013"
   style="fill:none;stroke:#000000;stroke-width:0.25;stroke-miterlimit:10" />

	
		<line
   clip-path="url(#SVGID_38_)"
   stroke-miterlimit="10"
   x1="28.02"
   y1="734.74701"
   x2="1.02"
   y2="734.74701"
   id="line3015"
   style="fill:none;stroke:#000000;stroke-width:0.25;stroke-miterlimit:10" />

	
		<line
   clip-path="url(#SVGID_38_)"
   stroke-miterlimit="10"
   x1="584.27197"
   y1="734.74701"
   x2="611.27197"
   y2="734.74701"
   id="line3017"
   style="fill:none;stroke:#000000;stroke-width:0.25;stroke-miterlimit:10" />

	
		<line
   clip-path="url(#SVGID_38_)"
   stroke-miterlimit="10"
   x1="34.02"
   y1="615.36102"
   x2="34.02"
   y2="588.36102"
   id="line3019"
   style="fill:none;stroke:#000000;stroke-width:0.25;stroke-miterlimit:10" />

	
		<line
   clip-path="url(#SVGID_38_)"
   stroke-miterlimit="10"
   x1="34.02"
   y1="740.74701"
   x2="34.02"
   y2="767.74701"
   id="line3021"
   style="fill:none;stroke:#000000;stroke-width:0.25;stroke-miterlimit:10" />

	
		<line
   clip-path="url(#SVGID_38_)"
   stroke-miterlimit="10"
   x1="578.27197"
   y1="615.36102"
   x2="578.27197"
   y2="588.36102"
   id="line3023"
   style="fill:none;stroke:#000000;stroke-width:0.25;stroke-miterlimit:10" />

	
		<line
   clip-path="url(#SVGID_38_)"
   stroke-miterlimit="10"
   x1="578.27197"
   y1="740.74701"
   x2="578.27197"
   y2="767.74701"
   id="line3025"
   style="fill:none;stroke:#000000;stroke-width:0.25;stroke-miterlimit:10" />

	<path
   clip-path="url(#SVGID_38_)"
   stroke-miterlimit="10"
   d="m 74.438,599.357 c -0.15,0.065 -0.348,0.144 -0.648,0.144 -0.576,0 -1.008,-0.414 -1.008,-1.086 0,-0.605 0.36,-1.098 1.026,-1.098 0.288,0 0.486,0.065 0.612,0.138 l 0.12,-0.408 c -0.144,-0.071 -0.42,-0.149 -0.732,-0.149 -0.948,0 -1.56,0.647 -1.56,1.542 0,0.888 0.57,1.488 1.446,1.488 0.39,0 0.696,-0.103 0.834,-0.175 l -0.09,-0.396 z"
   id="path3027"
   style="fill:none;stroke:#ffffff;stroke-width:0.40000001;stroke-miterlimit:10" />

	<path
   clip-path="url(#SVGID_38_)"
   stroke-miterlimit="10"
   d="m 76.364,597.287 c 0.624,0 0.87,0.624 0.87,1.116 0,0.654 -0.378,1.128 -0.882,1.128 -0.516,0 -0.882,-0.479 -0.882,-1.116 0,-0.552 0.27,-1.128 0.894,-1.128 z m 0.012,-0.395 c -0.804,0 -1.44,0.569 -1.44,1.542 0,0.918 0.606,1.494 1.392,1.494 0.702,0 1.446,-0.469 1.446,-1.542 0,-0.889 -0.564,-1.494 -1.398,-1.494 z"
   id="path3029"
   style="fill:none;stroke:#ffffff;stroke-width:0.40000001;stroke-miterlimit:10" />

	<path
   clip-path="url(#SVGID_38_)"
   stroke-miterlimit="10"
   d="m 78.44,599.861 h 0.528 v -1.746 c 0,-0.09 0.012,-0.18 0.036,-0.246 0.09,-0.294 0.36,-0.54 0.708,-0.54 0.498,0 0.672,0.391 0.672,0.858 v 1.674 h 0.528 v -1.734 c 0,-0.996 -0.624,-1.235 -1.026,-1.235 -0.48,0 -0.816,0.27 -0.96,0.546 h -0.012 l -0.03,-0.48 h -0.468 c 0.018,0.24 0.024,0.486 0.024,0.786 v 2.117 z"
   id="path3031"
   style="fill:none;stroke:#ffffff;stroke-width:0.40000001;stroke-miterlimit:10" />

	<path
   clip-path="url(#SVGID_38_)"
   stroke-miterlimit="10"
   d="m 81.89,596.423 v 0.534 h -0.45 v 0.402 h 0.45 v 1.584 c 0,0.342 0.054,0.6 0.204,0.756 0.126,0.145 0.324,0.229 0.57,0.229 0.204,0 0.366,-0.036 0.468,-0.078 l -0.024,-0.396 c -0.078,0.024 -0.162,0.036 -0.306,0.036 -0.294,0 -0.396,-0.204 -0.396,-0.563 v -1.566 h 0.756 v -0.402 h -0.756 v -0.695 l -0.516,0.159 z"
   id="path3033"
   style="fill:none;stroke:#ffffff;stroke-width:0.40000001;stroke-miterlimit:10" />

	<path
   clip-path="url(#SVGID_38_)"
   stroke-miterlimit="10"
   d="m 84.056,598.127 c 0.042,-0.365 0.276,-0.857 0.81,-0.857 0.594,0 0.738,0.521 0.732,0.857 h -1.542 z m 2.034,0.378 c 0.006,-0.054 0.018,-0.138 0.018,-0.245 0,-0.534 -0.252,-1.368 -1.2,-1.368 -0.846,0 -1.362,0.689 -1.362,1.565 0,0.876 0.534,1.471 1.428,1.471 0.462,0 0.78,-0.103 0.966,-0.187 l -0.09,-0.378 c -0.198,0.084 -0.426,0.15 -0.804,0.15 -0.528,0 -0.984,-0.294 -0.996,-1.009 h 2.04 z"
   id="path3035"
   style="fill:none;stroke:#ffffff;stroke-width:0.40000001;stroke-miterlimit:10" />

	<path
   clip-path="url(#SVGID_38_)"
   stroke-miterlimit="10"
   d="m 86.762,599.861 h 0.528 v -1.746 c 0,-0.09 0.012,-0.18 0.036,-0.246 0.09,-0.294 0.36,-0.54 0.708,-0.54 0.498,0 0.672,0.391 0.672,0.858 v 1.674 h 0.528 v -1.734 c 0,-0.996 -0.624,-1.235 -1.026,-1.235 -0.48,0 -0.816,0.27 -0.96,0.546 h -0.012 l -0.03,-0.48 h -0.468 c 0.018,0.24 0.024,0.486 0.024,0.786 v 2.117 z"
   id="path3037"
   style="fill:none;stroke:#ffffff;stroke-width:0.40000001;stroke-miterlimit:10" />

	<path
   clip-path="url(#SVGID_38_)"
   stroke-miterlimit="10"
   d="m 90.212,596.423 v 0.534 h -0.45 v 0.402 h 0.45 v 1.584 c 0,0.342 0.054,0.6 0.204,0.756 0.126,0.145 0.324,0.229 0.57,0.229 0.204,0 0.366,-0.036 0.468,-0.078 l -0.024,-0.396 c -0.078,0.024 -0.162,0.036 -0.306,0.036 -0.294,0 -0.396,-0.204 -0.396,-0.563 v -1.566 h 0.756 v -0.402 h -0.756 v -0.695 l -0.516,0.159 z"
   id="path3039"
   style="fill:none;stroke:#ffffff;stroke-width:0.40000001;stroke-miterlimit:10" />

	<path
   clip-path="url(#SVGID_38_)"
   stroke-miterlimit="10"
   d="m 93.608,598.883 c 0,0.055 -0.012,0.114 -0.03,0.169 -0.084,0.245 -0.324,0.485 -0.702,0.485 -0.27,0 -0.498,-0.162 -0.498,-0.504 0,-0.563 0.654,-0.666 1.23,-0.654 v 0.504 z m 0.51,-0.804 c 0,-0.582 -0.216,-1.188 -1.104,-1.188 -0.366,0 -0.714,0.102 -0.954,0.258 l 0.12,0.348 c 0.204,-0.132 0.486,-0.216 0.756,-0.216 0.594,0 0.66,0.432 0.66,0.672 v 0.061 c -1.122,-0.007 -1.746,0.378 -1.746,1.08 0,0.42 0.3,0.834 0.888,0.834 0.414,0 0.726,-0.204 0.888,-0.433 h 0.018 l 0.042,0.366 h 0.48 c -0.036,-0.198 -0.048,-0.444 -0.048,-0.696 v -1.086 z"
   id="path3041"
   style="fill:none;stroke:#ffffff;stroke-width:0.40000001;stroke-miterlimit:10" />

	<path
   clip-path="url(#SVGID_38_)"
   stroke-miterlimit="10"
   d="m 94.766,599.724 c 0.204,0.12 0.498,0.204 0.816,0.204 0.69,0 1.086,-0.366 1.086,-0.876 0,-0.433 -0.258,-0.685 -0.762,-0.876 -0.378,-0.145 -0.552,-0.253 -0.552,-0.492 0,-0.216 0.174,-0.396 0.486,-0.396 0.27,0 0.48,0.096 0.594,0.168 l 0.132,-0.384 c -0.162,-0.096 -0.42,-0.18 -0.714,-0.18 -0.624,0 -1.002,0.384 -1.002,0.852 0,0.349 0.246,0.636 0.768,0.822 0.39,0.144 0.54,0.282 0.54,0.534 0,0.239 -0.18,0.432 -0.564,0.432 -0.264,0 -0.54,-0.108 -0.696,-0.21 l -0.132,0.402 z"
   id="path3043"
   style="fill:none;stroke:#ffffff;stroke-width:0.40000001;stroke-miterlimit:10" />

	<path
   clip-path="url(#SVGID_38_)"
   stroke-miterlimit="10"
   d="m 97.61,595.812 c -0.192,0 -0.33,0.144 -0.33,0.33 0,0.18 0.132,0.323 0.318,0.323 0.21,0 0.342,-0.144 0.336,-0.323 0,-0.187 -0.126,-0.33 -0.324,-0.33 z m 0.264,4.049 v -2.904 h -0.528 v 2.904 h 0.528 z"
   id="path3045"
   style="fill:none;stroke:#ffffff;stroke-width:0.40000001;stroke-miterlimit:10" />

	<path
   clip-path="url(#SVGID_38_)"
   stroke-miterlimit="10"
   d="m 100.28,598.883 c 0,0.055 -0.012,0.114 -0.03,0.169 -0.084,0.245 -0.324,0.485 -0.702,0.485 -0.27,0 -0.498,-0.162 -0.498,-0.504 0,-0.563 0.654,-0.666 1.23,-0.654 v 0.504 z m 0.51,-0.804 c 0,-0.582 -0.216,-1.188 -1.104,-1.188 -0.366,0 -0.714,0.102 -0.954,0.258 l 0.12,0.348 c 0.204,-0.132 0.486,-0.216 0.756,-0.216 0.594,0 0.66,0.432 0.66,0.672 v 0.061 c -1.122,-0.007 -1.746,0.378 -1.746,1.08 0,0.42 0.3,0.834 0.888,0.834 0.414,0 0.726,-0.204 0.888,-0.433 h 0.018 l 0.042,0.366 h 0.48 c -0.036,-0.198 -0.048,-0.444 -0.048,-0.696 v -1.086 z"
   id="path3047"
   style="fill:none;stroke:#ffffff;stroke-width:0.40000001;stroke-miterlimit:10" />

	
		<rect
   x="101.204"
   y="600.31201"
   clip-path="url(#SVGID_38_)"
   stroke-miterlimit="10"
   width="3"
   height="0.30000001"
   id="rect3049"
   style="fill:none;stroke:#ffffff;stroke-width:0.40000001;stroke-miterlimit:10" />

	<path
   clip-path="url(#SVGID_38_)"
   stroke-miterlimit="10"
   d="m 105.746,596.304 c 0.546,0 0.792,0.63 0.792,1.59 0,0.996 -0.258,1.626 -0.798,1.626 -0.48,0 -0.792,-0.576 -0.792,-1.59 0,-1.063 0.336,-1.626 0.798,-1.626 z m 0.03,-0.408 c -0.792,0 -1.356,0.72 -1.356,2.027 0.012,1.29 0.528,2.005 1.29,2.005 0.864,0 1.356,-0.732 1.356,-2.059 0,-1.242 -0.468,-1.973 -1.29,-1.973 z"
   id="path3051"
   style="fill:none;stroke:#ffffff;stroke-width:0.40000001;stroke-miterlimit:10" />

	<path
   clip-path="url(#SVGID_38_)"
   stroke-miterlimit="10"
   d="m 107.534,599.663 c 0.192,0.126 0.576,0.265 1.014,0.265 0.936,0 1.422,-0.547 1.422,-1.171 0,-0.546 -0.39,-0.905 -0.87,-1.002 v -0.012 c 0.48,-0.174 0.72,-0.516 0.72,-0.918 0,-0.474 -0.348,-0.93 -1.116,-0.93 -0.42,0 -0.816,0.149 -1.02,0.3 l 0.138,0.384 c 0.168,-0.12 0.468,-0.258 0.78,-0.258 0.486,0 0.684,0.276 0.684,0.588 0,0.462 -0.486,0.66 -0.87,0.66 h -0.294 v 0.396 h 0.294 c 0.51,0 1.002,0.234 1.008,0.78 0.006,0.324 -0.204,0.756 -0.882,0.756 -0.366,0 -0.714,-0.149 -0.864,-0.246 l -0.144,0.408 z"
   id="path3053"
   style="fill:none;stroke:#ffffff;stroke-width:0.40000001;stroke-miterlimit:10" />

	<path
   clip-path="url(#SVGID_38_)"
   stroke-miterlimit="10"
   d="m 113.12,599.861 v -0.438 h -1.752 v -0.012 l 0.312,-0.288 c 0.822,-0.792 1.344,-1.374 1.344,-2.094 0,-0.558 -0.354,-1.134 -1.194,-1.134 -0.45,0 -0.834,0.168 -1.104,0.396 l 0.168,0.372 c 0.18,-0.149 0.474,-0.33 0.828,-0.33 0.582,0 0.774,0.366 0.774,0.763 -0.006,0.588 -0.456,1.092 -1.452,2.04 l -0.414,0.401 v 0.324 h 2.49 z"
   id="path3055"
   style="fill:none;stroke:#ffffff;stroke-width:0.40000001;stroke-miterlimit:10" />

	<path
   clip-path="url(#SVGID_38_)"
   stroke-miterlimit="10"
   d="m 114.98,596.304 c 0.546,0 0.792,0.63 0.792,1.59 0,0.996 -0.258,1.626 -0.798,1.626 -0.48,0 -0.792,-0.576 -0.792,-1.59 0,-1.063 0.336,-1.626 0.798,-1.626 z m 0.03,-0.408 c -0.792,0 -1.356,0.72 -1.356,2.027 0.012,1.29 0.528,2.005 1.29,2.005 0.864,0 1.356,-0.732 1.356,-2.059 0,-1.242 -0.468,-1.973 -1.29,-1.973 z"
   id="path3057"
   style="fill:none;stroke:#ffffff;stroke-width:0.40000001;stroke-miterlimit:10" />

	<polygon
   clip-path="url(#SVGID_38_)"
   stroke-miterlimit="10"
   points="117.932,599.861 118.442,599.861 118.442,595.961 117.992,595.961 117.14,596.417 117.242,596.819 117.92,596.453 117.932,596.453 "
   id="polygon3059"
   style="fill:none;stroke:#ffffff;stroke-width:0.40000001;stroke-miterlimit:10" />

	<path
   clip-path="url(#SVGID_38_)"
   stroke-miterlimit="10"
   d="m 121.136,596.304 c 0.546,0 0.792,0.63 0.792,1.59 0,0.996 -0.258,1.626 -0.798,1.626 -0.48,0 -0.792,-0.576 -0.792,-1.59 0,-1.063 0.336,-1.626 0.798,-1.626 z m 0.03,-0.408 c -0.792,0 -1.356,0.72 -1.356,2.027 0.012,1.29 0.528,2.005 1.29,2.005 0.864,0 1.356,-0.732 1.356,-2.059 0,-1.242 -0.468,-1.973 -1.29,-1.973 z"
   id="path3061"
   style="fill:none;stroke:#ffffff;stroke-width:0.40000001;stroke-miterlimit:10" />

	<path
   clip-path="url(#SVGID_38_)"
   stroke-miterlimit="10"
   d="m 123.338,599.928 c 0.222,0 0.36,-0.162 0.36,-0.379 0,-0.222 -0.144,-0.378 -0.354,-0.378 -0.21,0 -0.36,0.156 -0.36,0.378 0,0.217 0.144,0.379 0.348,0.379 h 0.006 z"
   id="path3063"
   style="fill:none;stroke:#ffffff;stroke-width:0.40000001;stroke-miterlimit:10" />

	<path
   clip-path="url(#SVGID_38_)"
   stroke-miterlimit="10"
   d="m 125.882,598.883 c 0,0.055 -0.012,0.114 -0.03,0.169 -0.084,0.245 -0.324,0.485 -0.702,0.485 -0.27,0 -0.498,-0.162 -0.498,-0.504 0,-0.563 0.654,-0.666 1.23,-0.654 v 0.504 z m 0.51,-0.804 c 0,-0.582 -0.216,-1.188 -1.104,-1.188 -0.366,0 -0.714,0.102 -0.954,0.258 l 0.12,0.348 c 0.204,-0.132 0.486,-0.216 0.756,-0.216 0.594,0 0.66,0.432 0.66,0.672 v 0.061 c -1.122,-0.007 -1.746,0.378 -1.746,1.08 0,0.42 0.3,0.834 0.888,0.834 0.414,0 0.726,-0.204 0.888,-0.433 h 0.018 l 0.042,0.366 h 0.48 c -0.036,-0.198 -0.048,-0.444 -0.048,-0.696 v -1.086 z"
   id="path3065"
   style="fill:none;stroke:#ffffff;stroke-width:0.40000001;stroke-miterlimit:10" />

	<path
   clip-path="url(#SVGID_38_)"
   stroke-miterlimit="10"
   d="m 127.508,595.812 c -0.192,0 -0.33,0.144 -0.33,0.33 0,0.18 0.132,0.323 0.318,0.323 0.21,0 0.342,-0.144 0.336,-0.323 0,-0.187 -0.126,-0.33 -0.324,-0.33 z m 0.264,4.049 v -2.904 h -0.528 v 2.904 h 0.528 z"
   id="path3067"
   style="fill:none;stroke:#ffffff;stroke-width:0.40000001;stroke-miterlimit:10" />

	<polygon
   clip-path="url(#SVGID_38_)"
   stroke-miterlimit="10"
   points="133.442,599.861 133.952,599.861 133.952,595.961 133.502,595.961 132.65,596.417 132.752,596.819 133.43,596.453 133.442,596.453 "
   id="polygon3069"
   style="fill:none;stroke:#ffffff;stroke-width:0.40000001;stroke-miterlimit:10" />

	<path
   clip-path="url(#SVGID_38_)"
   stroke-miterlimit="10"
   d="m 136.64,596.297 c 0.552,0 0.798,0.511 0.798,1.177 0,0.084 -0.018,0.144 -0.048,0.191 -0.138,0.234 -0.414,0.408 -0.768,0.408 -0.456,0 -0.75,-0.342 -0.75,-0.828 0,-0.552 0.318,-0.948 0.762,-0.948 h 0.006 z m -0.96,3.624 c 0.126,0.007 0.294,0 0.486,-0.029 0.42,-0.048 0.834,-0.229 1.134,-0.522 0.384,-0.372 0.672,-0.972 0.672,-1.83 0,-0.996 -0.492,-1.644 -1.29,-1.644 -0.798,0 -1.332,0.647 -1.332,1.386 0,0.666 0.45,1.194 1.152,1.194 0.39,0 0.702,-0.156 0.918,-0.42 h 0.018 c -0.072,0.462 -0.258,0.804 -0.516,1.038 -0.222,0.21 -0.51,0.336 -0.816,0.378 -0.18,0.018 -0.312,0.029 -0.426,0.018 v 0.431 z"
   id="path3071"
   style="fill:none;stroke:#ffffff;stroke-width:0.40000001;stroke-miterlimit:10" />

	<polygon
   clip-path="url(#SVGID_38_)"
   stroke-miterlimit="10"
   points="138.578,600.102 140.258,595.751 139.85,595.751 138.176,600.102 "
   id="polygon3073"
   style="fill:none;stroke:#ffffff;stroke-width:0.40000001;stroke-miterlimit:10" />

	<path
   clip-path="url(#SVGID_38_)"
   stroke-miterlimit="10"
   d="m 141.782,596.304 c 0.546,0 0.792,0.63 0.792,1.59 0,0.996 -0.258,1.626 -0.798,1.626 -0.48,0 -0.792,-0.576 -0.792,-1.59 0,-1.063 0.336,-1.626 0.798,-1.626 z m 0.03,-0.408 c -0.792,0 -1.356,0.72 -1.356,2.027 0.012,1.29 0.528,2.005 1.29,2.005 0.864,0 1.356,-0.732 1.356,-2.059 0,-1.242 -0.468,-1.973 -1.29,-1.973 z"
   id="path3075"
   style="fill:none;stroke:#ffffff;stroke-width:0.40000001;stroke-miterlimit:10" />

	<path
   clip-path="url(#SVGID_38_)"
   stroke-miterlimit="10"
   d="m 143.57,599.663 c 0.192,0.126 0.576,0.265 1.014,0.265 0.936,0 1.422,-0.547 1.422,-1.171 0,-0.546 -0.39,-0.905 -0.87,-1.002 v -0.012 c 0.48,-0.174 0.72,-0.516 0.72,-0.918 0,-0.474 -0.348,-0.93 -1.116,-0.93 -0.42,0 -0.816,0.149 -1.02,0.3 l 0.138,0.384 c 0.168,-0.12 0.468,-0.258 0.78,-0.258 0.486,0 0.684,0.276 0.684,0.588 0,0.462 -0.486,0.66 -0.87,0.66 h -0.294 v 0.396 h 0.294 c 0.51,0 1.002,0.234 1.008,0.78 0.006,0.324 -0.204,0.756 -0.882,0.756 -0.366,0 -0.714,-0.149 -0.864,-0.246 l -0.144,0.408 z"
   id="path3077"
   style="fill:none;stroke:#ffffff;stroke-width:0.40000001;stroke-miterlimit:10" />

	<polygon
   clip-path="url(#SVGID_38_)"
   stroke-miterlimit="10"
   points="146.792,600.102 148.472,595.751 148.064,595.751 146.39,600.102 "
   id="polygon3079"
   style="fill:none;stroke:#ffffff;stroke-width:0.40000001;stroke-miterlimit:10" />

	<path
   clip-path="url(#SVGID_38_)"
   stroke-miterlimit="10"
   d="m 151.214,599.861 v -0.438 h -1.752 v -0.012 l 0.312,-0.288 c 0.822,-0.792 1.344,-1.374 1.344,-2.094 0,-0.558 -0.354,-1.134 -1.194,-1.134 -0.45,0 -0.834,0.168 -1.104,0.396 l 0.168,0.372 c 0.18,-0.149 0.474,-0.33 0.828,-0.33 0.582,0 0.774,0.366 0.774,0.763 -0.006,0.588 -0.456,1.092 -1.452,2.04 l -0.414,0.401 v 0.324 h 2.49 z"
   id="path3081"
   style="fill:none;stroke:#ffffff;stroke-width:0.40000001;stroke-miterlimit:10" />

	<path
   clip-path="url(#SVGID_38_)"
   stroke-miterlimit="10"
   d="m 153.074,596.304 c 0.546,0 0.792,0.63 0.792,1.59 0,0.996 -0.258,1.626 -0.798,1.626 -0.48,0 -0.792,-0.576 -0.792,-1.59 0,-1.063 0.336,-1.626 0.798,-1.626 z m 0.03,-0.408 c -0.792,0 -1.356,0.72 -1.356,2.027 0.012,1.29 0.528,2.005 1.29,2.005 0.864,0 1.356,-0.732 1.356,-2.059 0,-1.242 -0.468,-1.973 -1.29,-1.973 z"
   id="path3083"
   style="fill:none;stroke:#ffffff;stroke-width:0.40000001;stroke-miterlimit:10" />

	<polygon
   clip-path="url(#SVGID_38_)"
   stroke-miterlimit="10"
   points="156.026,599.861 156.536,599.861 156.536,595.961 156.086,595.961 155.234,596.417 155.336,596.819 156.014,596.453 156.026,596.453 "
   id="polygon3085"
   style="fill:none;stroke:#ffffff;stroke-width:0.40000001;stroke-miterlimit:10" />

	<path
   clip-path="url(#SVGID_38_)"
   stroke-miterlimit="10"
   d="m 159.23,596.304 c 0.546,0 0.792,0.63 0.792,1.59 0,0.996 -0.258,1.626 -0.798,1.626 -0.48,0 -0.792,-0.576 -0.792,-1.59 0,-1.063 0.336,-1.626 0.798,-1.626 z m 0.03,-0.408 c -0.792,0 -1.356,0.72 -1.356,2.027 0.012,1.29 0.528,2.005 1.29,2.005 0.864,0 1.356,-0.732 1.356,-2.059 0,-1.242 -0.468,-1.973 -1.29,-1.973 z"
   id="path3087"
   style="fill:none;stroke:#ffffff;stroke-width:0.40000001;stroke-miterlimit:10" />

	<polygon
   clip-path="url(#SVGID_38_)"
   stroke-miterlimit="10"
   points="165.998,599.861 166.508,599.861 166.508,595.961 166.058,595.961 165.206,596.417 165.308,596.819 165.986,596.453 165.998,596.453 "
   id="polygon3089"
   style="fill:none;stroke:#ffffff;stroke-width:0.40000001;stroke-miterlimit:10" />

	<polygon
   clip-path="url(#SVGID_38_)"
   stroke-miterlimit="10"
   points="169.076,599.861 169.586,599.861 169.586,595.961 169.136,595.961 168.284,596.417 168.386,596.819 169.064,596.453 169.076,596.453 "
   id="polygon3091"
   style="fill:none;stroke:#ffffff;stroke-width:0.40000001;stroke-miterlimit:10" />

	<path
   clip-path="url(#SVGID_38_)"
   stroke-miterlimit="10"
   d="m 171.404,599.928 c 0.222,0 0.36,-0.162 0.36,-0.372 -0.006,-0.223 -0.144,-0.378 -0.354,-0.378 -0.21,0 -0.36,0.155 -0.36,0.378 0,0.21 0.144,0.372 0.348,0.372 h 0.006 z m 0,-2.118 c 0.222,0 0.36,-0.162 0.36,-0.372 -0.006,-0.223 -0.144,-0.384 -0.354,-0.384 -0.21,0 -0.36,0.161 -0.36,0.384 0,0.21 0.144,0.372 0.348,0.372 h 0.006 z"
   id="path3093"
   style="fill:none;stroke:#ffffff;stroke-width:0.40000001;stroke-miterlimit:10" />

	<path
   clip-path="url(#SVGID_38_)"
   stroke-miterlimit="10"
   d="m 174.74,599.861 v -0.438 h -1.752 v -0.012 l 0.312,-0.288 c 0.822,-0.792 1.344,-1.374 1.344,-2.094 0,-0.558 -0.354,-1.134 -1.194,-1.134 -0.45,0 -0.834,0.168 -1.104,0.396 l 0.168,0.372 c 0.18,-0.149 0.474,-0.33 0.828,-0.33 0.582,0 0.774,0.366 0.774,0.763 -0.006,0.588 -0.456,1.092 -1.452,2.04 l -0.414,0.401 v 0.324 h 2.49 z"
   id="path3095"
   style="fill:none;stroke:#ffffff;stroke-width:0.40000001;stroke-miterlimit:10" />

	<polygon
   clip-path="url(#SVGID_38_)"
   stroke-miterlimit="10"
   points="175.4,595.961 175.4,596.399 177.308,596.399 177.308,596.411 175.616,599.861 176.162,599.861 177.86,596.31 177.86,595.961 "
   id="polygon3097"
   style="fill:none;stroke:#ffffff;stroke-width:0.40000001;stroke-miterlimit:10" />

	<path
   clip-path="url(#SVGID_38_)"
   stroke-miterlimit="10"
   d="m 178.802,599.928 c 0.222,0 0.36,-0.162 0.36,-0.372 -0.006,-0.223 -0.144,-0.378 -0.354,-0.378 -0.21,0 -0.36,0.155 -0.36,0.378 0,0.21 0.144,0.372 0.348,0.372 h 0.006 z m 0,-2.118 c 0.222,0 0.36,-0.162 0.36,-0.372 -0.006,-0.223 -0.144,-0.384 -0.354,-0.384 -0.21,0 -0.36,0.161 -0.36,0.384 0,0.21 0.144,0.372 0.348,0.372 h 0.006 z"
   id="path3099"
   style="fill:none;stroke:#ffffff;stroke-width:0.40000001;stroke-miterlimit:10" />

	<path
   clip-path="url(#SVGID_38_)"
   stroke-miterlimit="10"
   d="m 179.63,599.663 c 0.192,0.126 0.576,0.265 1.014,0.265 0.936,0 1.422,-0.547 1.422,-1.171 0,-0.546 -0.39,-0.905 -0.87,-1.002 v -0.012 c 0.48,-0.174 0.72,-0.516 0.72,-0.918 0,-0.474 -0.348,-0.93 -1.116,-0.93 -0.42,0 -0.816,0.149 -1.02,0.3 l 0.138,0.384 c 0.168,-0.12 0.468,-0.258 0.78,-0.258 0.486,0 0.684,0.276 0.684,0.588 0,0.462 -0.486,0.66 -0.87,0.66 h -0.294 v 0.396 h 0.294 c 0.51,0 1.002,0.234 1.008,0.78 0.006,0.324 -0.204,0.756 -0.882,0.756 -0.366,0 -0.714,-0.149 -0.864,-0.246 l -0.144,0.408 z"
   id="path3101"
   style="fill:none;stroke:#ffffff;stroke-width:0.40000001;stroke-miterlimit:10" />

	<path
   clip-path="url(#SVGID_38_)"
   stroke-miterlimit="10"
   d="m 185.054,595.961 h -1.866 l -0.252,1.872 c 0.144,-0.018 0.318,-0.042 0.54,-0.042 0.78,0 1.116,0.36 1.122,0.864 0,0.522 -0.426,0.846 -0.924,0.846 -0.354,0 -0.672,-0.12 -0.834,-0.216 l -0.132,0.402 c 0.186,0.12 0.546,0.24 0.972,0.24 0.846,0 1.452,-0.57 1.452,-1.332 0,-0.492 -0.252,-0.828 -0.558,-1.002 -0.24,-0.145 -0.54,-0.21 -0.84,-0.21 -0.144,0 -0.228,0.012 -0.318,0.023 l 0.15,-1.002 h 1.488 v -0.443 z"
   id="path3103"
   style="fill:none;stroke:#ffffff;stroke-width:0.40000001;stroke-miterlimit:10" />

</g>
  </g>
</svg>
