<?xml version="1.0" encoding="UTF-8" standalone="yes"?>
<svg xmlns="http://www.w3.org/2000/svg" xmlns:xlink="http://www.w3.org/1999/xlink" width="188px" height="106.66666666666666px" viewBox="0 0 141 80" version="1.1">
  <g id="surface1">
    <path style=" stroke:none;fill-rule:nonzero;fill:rgb(14.117647%,24.705882%,39.607843%);fill-opacity:1;" d="M 7.75 0 L 8.875 0 C 14.164062 0.28125 19.261719 2.425781 23.433594 5.648438 C 24.410156 3.933594 26.074219 2.597656 27.988281 2.089844 C 29.5 1.65625 31.246094 1.621094 32.613281 2.492188 C 33.339844 2.996094 34.273438 3.15625 34.882812 3.832031 C 35.71875 4.65625 35.96875 5.917969 35.792969 7.046875 C 35.695312 7.703125 35.410156 8.3125 35.105469 8.894531 C 36.113281 8.902344 37.132812 8.910156 38.121094 9.128906 C 38.574219 9.226562 38.964844 9.484375 39.402344 9.621094 C 39.890625 9.632812 40.378906 9.570312 40.867188 9.589844 C 41.28125 8.65625 42.171875 7.890625 43.226562 7.882812 C 44.488281 7.796875 45.527344 8.683594 46.285156 9.597656 C 47.628906 9.269531 49.011719 9.160156 50.386719 9.03125 C 51.121094 8.976562 51.875 8.890625 52.59375 9.101562 C 53.148438 9.246094 53.660156 9.519531 54.148438 9.820312 C 54.71875 9.328125 55.386719 8.851562 56.175781 8.863281 C 57.003906 8.816406 57.75 9.273438 58.285156 9.867188 C 58.941406 9.660156 59.652344 9.4375 60.339844 9.636719 C 61.050781 9.839844 61.660156 10.300781 62.175781 10.820312 C 64.878906 13.542969 67.59375 16.25 70.300781 18.96875 C 70.453125 19.148438 70.6875 19.195312 70.917969 19.191406 C 88.910156 19.1875 106.902344 19.191406 124.894531 19.191406 C 125.714844 19.195312 126.554688 19.132812 127.351562 19.363281 C 128.132812 19.570312 128.796875 20.058594 129.359375 20.625 C 132.710938 23.980469 136.058594 27.339844 139.414062 30.695312 C 140.300781 31.503906 140.964844 32.605469 141 33.835938 L 141 65.605469 C 140.921875 66.140625 140.804688 66.679688 140.539062 67.15625 C 140.109375 67.964844 139.402344 68.570312 138.769531 69.214844 C 135.625 72.363281 132.492188 75.527344 129.335938 78.667969 C 128.710938 79.316406 127.917969 79.796875 127.035156 80 L 68.242188 80 C 67.460938 79.800781 66.71875 79.429688 66.152344 78.851562 C 63.265625 75.960938 60.390625 73.0625 57.496094 70.183594 C 54.582031 73.046875 51.722656 75.96875 48.828125 78.851562 C 48.261719 79.425781 47.523438 79.804688 46.746094 80 L 29.6875 80 C 28.722656 79.742188 27.847656 79.089844 27.4375 78.164062 C 27.03125 77.367188 27.101562 76.453125 27.101562 75.589844 C 27.101562 71.265625 27.097656 66.945312 27.101562 62.621094 C 27.105469 61.65625 27.023438 60.648438 27.394531 59.730469 C 27.742188 58.820312 28.476562 58.148438 29.148438 57.472656 C 31.765625 54.863281 34.363281 52.238281 36.984375 49.636719 C 26.792969 39.410156 16.585938 29.203125 6.390625 18.980469 C 5.765625 18.363281 5.105469 17.773438 4.59375 17.050781 C 4 16.226562 3.457031 15.269531 3.523438 14.210938 C 3.523438 13.292969 3.980469 12.4375 4.648438 11.832031 C 5.894531 10.5625 7.636719 10 9.300781 9.511719 C 9.417969 8.476562 9.613281 7.4375 10.101562 6.511719 C 8.769531 6.292969 7.414062 6.0625 6.0625 6.164062 C 5.714844 6.429688 5.449219 6.796875 5.054688 6.996094 C 4.261719 7.394531 3.335938 7.425781 2.472656 7.292969 C 1.535156 7.140625 0.679688 6.523438 0.269531 5.664062 C -0.105469 4.851562 -0.0234375 3.886719 0.3125 3.074219 C 0.945312 1.84375 2.085938 0.859375 3.433594 0.503906 C 4.839844 0.132812 6.300781 0.0664062 7.75 0 Z M 4.144531 2.585938 C 3.410156 2.703125 2.84375 3.246094 2.472656 3.863281 C 2.339844 4.132812 2.300781 4.539062 2.625 4.6875 C 3.0625 4.882812 3.59375 4.886719 4.03125 4.699219 C 4.066406 4.410156 3.726562 4.296875 3.578125 4.101562 C 3.589844 3.761719 4.03125 3.789062 4.269531 3.71875 C 8.097656 3.257812 11.980469 4.09375 15.503906 5.585938 C 17.640625 6.523438 19.6875 7.722656 21.402344 9.3125 C 22.464844 10.324219 23.445312 11.507812 23.859375 12.941406 C 24.183594 13.96875 24.046875 15.144531 23.449219 16.046875 C 22.867188 16.914062 21.945312 17.507812 20.976562 17.859375 C 18.691406 18.703125 16.160156 18.832031 13.777344 18.355469 C 13.648438 16.609375 13.667969 14.855469 13.609375 13.101562 C 15.246094 13.042969 16.910156 13.230469 18.445312 13.8125 C 18.671875 13.929688 19.054688 14.023438 19.042969 14.339844 C 18.820312 14.703125 18.484375 14.992188 18.28125 15.371094 C 18.511719 15.457031 18.746094 15.542969 18.988281 15.558594 C 20.097656 15.773438 21.113281 14.402344 20.644531 13.386719 C 20.316406 12.550781 19.472656 12.085938 18.679688 11.78125 C 17.046875 11.191406 15.289062 11.132812 13.570312 11.117188 C 13.53125 10.214844 13.46875 9.304688 13.25 8.429688 C 13.136719 8.035156 13.003906 7.578125 12.625 7.359375 C 12.285156 7.214844 12.089844 7.617188 11.988281 7.871094 C 11.609375 8.96875 11.582031 10.144531 11.515625 11.296875 C 10.042969 11.550781 8.5625 11.90625 7.242188 12.628906 C 6.769531 12.910156 6.269531 13.21875 5.992188 13.710938 C 5.695312 14.246094 6.054688 14.84375 6.363281 15.285156 C 7.636719 17.039062 9.53125 18.226562 11.464844 19.132812 C 11.523438 19.59375 11.523438 20.085938 11.761719 20.5 C 12.09375 21.09375 13.027344 21.160156 13.472656 20.660156 C 13.621094 20.441406 13.675781 20.171875 13.769531 19.929688 C 16.816406 20.675781 20.179688 20.519531 22.988281 19.035156 C 24.664062 18.144531 26.109375 16.578125 26.363281 14.636719 C 26.578125 13.238281 25.992188 11.878906 25.226562 10.746094 C 23.992188 8.921875 22.285156 7.476562 20.476562 6.242188 C 18.769531 5.101562 16.929688 4.15625 14.992188 3.464844 C 11.546875 2.195312 7.75 1.816406 4.144531 2.585938 Z M 27.964844 4.414062 C 26.847656 4.90625 25.832031 5.769531 25.382812 6.929688 C 25.128906 7.554688 25.257812 8.269531 25.625 8.820312 C 25.96875 9.265625 25.699219 9.972656 26.191406 10.324219 C 26.574219 10.515625 26.902344 10.195312 27.136719 9.925781 C 27.984375 10.109375 28.886719 10.191406 29.722656 9.90625 C 30.984375 9.480469 32.128906 8.691406 32.941406 7.632812 C 33.390625 7.050781 33.695312 6.21875 33.339844 5.519531 C 33.167969 5.167969 32.800781 5.007812 32.441406 4.921875 C 31.878906 4.808594 31.523438 4.304688 30.988281 4.136719 C 29.996094 3.796875 28.90625 4.023438 27.964844 4.414062 Z M 43.117188 10.226562 C 42.980469 10.605469 43.105469 11.007812 43.1875 11.386719 C 43.5 12.550781 43.902344 13.6875 44.140625 14.871094 C 44.234375 15.3125 44.21875 15.769531 44.054688 16.191406 C 43.550781 15.742188 43.226562 15.140625 42.839844 14.597656 C 42.25 13.738281 41.675781 12.847656 40.929688 12.113281 C 40.710938 11.925781 40.429688 11.660156 40.121094 11.796875 C 39.761719 12.042969 39.609375 12.484375 39.464844 12.878906 C 39.089844 14.066406 38.894531 15.308594 38.789062 16.550781 C 38.753906 17.226562 38.714844 17.953125 39.035156 18.570312 C 39.257812 18.988281 39.984375 19.09375 40.203125 18.617188 C 40.742188 17.308594 40.390625 15.839844 40.746094 14.492188 C 41.269531 14.953125 41.570312 15.601562 41.960938 16.164062 C 42.476562 16.925781 42.949219 17.742188 43.664062 18.332031 C 44.054688 18.699219 44.660156 18.527344 45.011719 18.195312 C 45.71875 17.539062 46.023438 16.539062 46.011719 15.597656 C 45.957031 14.167969 45.515625 12.765625 44.824219 11.519531 C 44.503906 10.996094 44.160156 10.421875 43.597656 10.125 C 43.449219 10.054688 43.164062 10.003906 43.117188 10.226562 Z M 34.082031 11.136719 C 32.984375 11.257812 31.84375 11.4375 30.894531 12.042969 C 30.257812 12.429688 29.859375 13.21875 30.042969 13.960938 C 30.1875 14.457031 30.695312 14.726562 31.171875 14.824219 C 32.246094 15.042969 33.355469 14.90625 34.433594 15.078125 C 35.253906 15.207031 36.121094 15.328125 36.824219 15.796875 C 37.1875 16.09375 36.730469 16.496094 36.441406 16.617188 C 35.253906 17.15625 33.925781 17.316406 32.632812 17.367188 C 32.183594 17.328125 31.574219 17.378906 31.292969 16.945312 C 31.125 16.476562 31.664062 16.101562 32.089844 16.15625 C 33.074219 16.277344 33.957031 17.019531 34.988281 16.796875 C 35.375 16.710938 35.875 16.558594 35.988281 16.125 C 35.792969 15.699219 35.257812 15.613281 34.855469 15.484375 C 33.816406 15.265625 32.714844 15.046875 31.667969 15.320312 C 30.960938 15.5 30.398438 16.203125 30.523438 16.949219 C 30.679688 17.632812 31.265625 18.113281 31.859375 18.421875 C 32.8125 18.914062 33.914062 19.03125 34.96875 19.003906 C 36.023438 18.941406 37.164062 18.632812 37.851562 17.777344 C 38.5 16.984375 38.511719 15.71875 37.816406 14.949219 C 37.363281 14.453125 36.695312 14.234375 36.058594 14.101562 C 34.96875 13.917969 33.859375 13.878906 32.757812 13.753906 C 32.445312 13.710938 32.113281 13.671875 31.839844 13.492188 C 31.875 13.1875 32.246094 13.109375 32.492188 13.042969 C 34.035156 12.753906 35.625 12.84375 37.171875 12.566406 C 37.523438 12.492188 37.894531 12.410156 38.1875 12.1875 C 38.414062 12.046875 38.414062 11.6875 38.207031 11.53125 C 37.789062 11.214844 37.242188 11.1875 36.746094 11.125 C 35.859375 11.0625 34.96875 11.066406 34.082031 11.136719 Z M 55.230469 12.003906 C 54.449219 13.023438 53.75 14.171875 53.53125 15.460938 C 53.355469 16.257812 53.550781 17.070312 53.871094 17.808594 C 53.285156 19.675781 52.664062 21.554688 52.421875 23.507812 C 52.371094 24.09375 52.296875 24.722656 52.578125 25.265625 C 52.863281 25.84375 53.410156 26.414062 54.109375 26.363281 C 54.527344 23.980469 55.425781 21.722656 55.992188 19.378906 C 58.023438 19.46875 59.863281 18.113281 60.898438 16.445312 C 61.59375 15.382812 61.679688 13.976562 61.144531 12.828125 C 60.878906 12.292969 60.382812 11.78125 59.757812 11.738281 C 59.300781 11.773438 58.90625 12.046875 58.539062 12.300781 C 57.144531 13.324219 56.074219 14.695312 54.945312 15.988281 C 54.917969 15.722656 54.832031 15.445312 54.925781 15.183594 C 55.261719 14.089844 55.933594 13.148438 56.425781 12.125 C 56.625 11.742188 56.511719 11.316406 56.3125 10.964844 C 55.878906 11.226562 55.539062 11.609375 55.230469 12.003906 Z M 47.488281 11.542969 C 47.21875 11.628906 46.859375 11.675781 46.75 11.976562 C 46.84375 12.585938 47.53125 12.742188 47.996094 12.984375 C 47.964844 13.234375 47.941406 13.488281 47.878906 13.730469 C 47.769531 14.335938 46.964844 14.3125 46.75 14.859375 C 47.15625 15.507812 46.648438 16.179688 46.507812 16.824219 C 46.152344 17.910156 46.839844 19.414062 48.066406 19.507812 C 49.246094 19.535156 50.386719 19.105469 51.386719 18.511719 C 51.753906 18.28125 52.148438 18.046875 52.375 17.664062 C 52.277344 17.160156 51.722656 16.785156 51.21875 16.859375 C 50.296875 16.960938 49.394531 17.207031 48.464844 17.253906 C 48.515625 16.679688 48.480469 15.585938 49.285156 15.597656 C 50.019531 15.535156 50.761719 15.613281 51.492188 15.515625 C 52.011719 15.410156 52.078125 14.621094 51.644531 14.363281 C 50.921875 14.238281 50.179688 14.332031 49.460938 14.167969 C 49.492188 13.835938 49.476562 13.480469 49.65625 13.183594 C 50.390625 12.972656 51.167969 13.011719 51.925781 12.949219 C 52.414062 12.914062 53.027344 12.964844 53.339844 12.5 C 53.496094 12.164062 53.121094 11.894531 52.914062 11.679688 C 52.308594 11.109375 51.441406 11.09375 50.667969 11.203125 C 49.605469 11.308594 48.535156 11.339844 47.488281 11.542969 Z M 27.992188 11.339844 C 27.738281 11.5625 27.679688 11.910156 27.597656 12.222656 C 27.34375 13.414062 27.339844 14.644531 27.304688 15.859375 C 27.296875 16.660156 27.277344 17.472656 27.457031 18.261719 C 27.535156 18.609375 27.722656 18.996094 28.105469 19.078125 C 28.453125 19.136719 28.96875 19.175781 29.121094 18.773438 C 29.367188 18.0625 29.261719 17.292969 29.273438 16.554688 C 29.210938 15.039062 29.238281 13.492188 28.886719 12.007812 C 28.804688 11.625 28.433594 11.011719 27.992188 11.339844 Z M 30.082031 21.726562 C 29.734375 21.878906 29.535156 22.257812 29.554688 22.628906 C 29.550781 27.730469 29.554688 32.832031 29.550781 37.933594 C 29.527344 38.460938 29.789062 38.949219 30.152344 39.316406 C 33.359375 42.535156 36.585938 45.742188 39.785156 48.96875 C 40.222656 49.351562 40.121094 50.039062 39.703125 50.390625 C 36.703125 53.402344 33.691406 56.410156 30.683594 59.417969 C 30.171875 59.914062 29.546875 60.457031 29.558594 61.238281 C 29.546875 66.296875 29.558594 71.351562 29.550781 76.410156 C 29.554688 76.726562 29.550781 77.089844 29.792969 77.328125 C 30.015625 77.605469 30.390625 77.625 30.714844 77.625 C 35.4375 77.621094 40.160156 77.621094 44.882812 77.621094 C 45.460938 77.609375 46.074219 77.6875 46.621094 77.4375 C 47.085938 77.195312 47.421875 76.785156 47.789062 76.421875 C 50.742188 73.453125 53.707031 70.496094 56.65625 67.527344 C 56.894531 67.289062 57.195312 67.035156 57.558594 67.078125 C 57.96875 67.117188 58.242188 67.460938 58.519531 67.726562 C 61.609375 70.839844 64.71875 73.933594 67.808594 77.042969 C 68.183594 77.429688 68.71875 77.628906 69.253906 77.621094 C 74.304688 77.621094 79.355469 77.621094 84.40625 77.621094 C 84.933594 77.675781 85.457031 77.238281 85.417969 76.6875 C 85.429688 71.585938 85.417969 66.484375 85.421875 61.382812 C 85.464844 60.808594 85.179688 60.28125 84.773438 59.898438 C 81.8125 56.9375 78.859375 53.972656 75.898438 51.011719 C 75.585938 50.691406 75.226562 50.398438 75 50.007812 C 74.789062 49.628906 74.953125 49.171875 75.257812 48.902344 C 78.234375 45.914062 81.21875 42.929688 84.199219 39.941406 C 84.71875 39.410156 85.421875 38.882812 85.417969 38.058594 C 85.425781 32.914062 85.421875 27.765625 85.421875 22.621094 C 85.484375 22.0625 84.957031 21.59375 84.414062 21.65625 C 79.546875 21.652344 74.675781 21.65625 69.808594 21.65625 C 69.253906 21.613281 68.746094 21.890625 68.367188 22.273438 C 64.992188 25.65625 61.617188 29.035156 58.242188 32.417969 C 57.984375 32.695312 57.589844 32.910156 57.207031 32.757812 C 56.847656 32.585938 56.59375 32.265625 56.3125 31.996094 C 53.242188 28.910156 50.164062 25.839844 47.09375 22.757812 C 46.605469 22.261719 46.066406 21.636719 45.304688 21.660156 C 40.484375 21.644531 35.664062 21.664062 30.84375 21.652344 C 30.589844 21.660156 30.324219 21.648438 30.082031 21.726562 Z M 88.453125 21.714844 C 88.011719 21.847656 87.847656 22.339844 87.871094 22.757812 C 87.878906 40.691406 87.875 58.628906 87.875 76.5625 C 87.847656 76.980469 88.058594 77.457031 88.5 77.5625 C 88.964844 77.644531 89.441406 77.59375 89.910156 77.601562 C 101.660156 77.601562 113.414062 77.601562 125.164062 77.605469 C 125.644531 77.597656 126.132812 77.636719 126.613281 77.5625 C 127.195312 77.398438 127.59375 76.90625 128.007812 76.496094 C 131.347656 73.140625 134.710938 69.796875 138.050781 66.4375 C 138.53125 65.984375 138.582031 65.304688 138.550781 64.683594 C 138.542969 54.847656 138.550781 45.011719 138.546875 35.175781 C 138.535156 34.621094 138.597656 34.050781 138.46875 33.507812 C 138.253906 32.925781 137.761719 32.515625 137.339844 32.085938 C 134.285156 29.03125 131.234375 25.976562 128.179688 22.921875 C 127.742188 22.488281 127.328125 22 126.753906 21.746094 C 126.285156 21.601562 125.78125 21.667969 125.300781 21.652344 C 113.507812 21.65625 101.714844 21.65625 89.921875 21.65625 C 89.429688 21.664062 88.933594 21.609375 88.453125 21.714844 Z M 88.453125 21.714844 "/>
    <path style=" stroke:none;fill-rule:nonzero;fill:rgb(14.117647%,24.705882%,39.607843%);fill-opacity:1;" d="M 26.867188 6.503906 C 27.414062 5.945312 28.175781 5.667969 28.929688 5.535156 C 28.050781 6.089844 27.246094 6.75 26.53125 7.503906 C 26.453125 7.140625 26.605469 6.757812 26.867188 6.503906 Z M 26.867188 6.503906 "/>
    <path style=" stroke:none;fill-rule:nonzero;fill:rgb(14.117647%,24.705882%,39.607843%);fill-opacity:1;" d="M 30.375 6.273438 C 30.875 5.972656 31.59375 5.578125 32.121094 6.035156 C 32.558594 6.503906 32.160156 7.175781 31.742188 7.507812 C 30.640625 8.386719 29.148438 8.914062 27.746094 8.53125 C 28.503906 7.652344 29.40625 6.90625 30.375 6.273438 Z M 30.375 6.273438 "/>
    <path style=" stroke:none;fill-rule:nonzero;fill:rgb(14.117647%,24.705882%,39.607843%);fill-opacity:1;" d="M 7.277344 13.765625 C 8.625 13.332031 10.058594 13.269531 11.460938 13.167969 C 11.46875 14.691406 11.433594 16.214844 11.425781 17.742188 C 9.972656 17.207031 8.558594 16.515625 7.339844 15.554688 C 6.992188 15.257812 6.59375 14.945312 6.460938 14.484375 C 6.460938 14.058594 6.949219 13.902344 7.277344 13.765625 Z M 7.277344 13.765625 "/>
    <path style=" stroke:none;fill-rule:nonzero;fill:rgb(14.117647%,24.705882%,39.607843%);fill-opacity:1;" d="M 58.976562 14.109375 C 59.203125 13.828125 59.441406 13.539062 59.761719 13.367188 C 60.035156 13.285156 60.28125 13.535156 60.320312 13.792969 C 60.484375 14.554688 60.1875 15.347656 59.691406 15.925781 C 58.992188 16.71875 57.992188 17.265625 56.921875 17.308594 C 57.554688 16.210938 58.199219 15.109375 58.976562 14.109375 Z M 58.976562 14.109375 "/>
    <path style=" stroke:none;fill-rule:nonzero;fill:rgb(14.117647%,24.705882%,39.607843%);fill-opacity:1;" d="M 137.742188 76.589844 C 137.984375 76.226562 138.050781 75.65625 138.46875 75.464844 C 138.628906 76.144531 138.503906 76.847656 138.539062 77.535156 C 138.46875 77.535156 138.332031 77.53125 138.261719 77.53125 C 138.28125 77.097656 138.265625 76.664062 138.210938 76.238281 C 138.054688 76.546875 137.890625 76.855469 137.742188 77.167969 C 137.546875 76.851562 137.347656 76.53125 137.1875 76.195312 C 137.175781 76.636719 137.175781 77.085938 137.175781 77.53125 C 137.105469 77.53125 136.960938 77.53125 136.890625 77.53125 C 136.90625 76.902344 136.84375 76.265625 136.921875 75.640625 C 136.976562 75.597656 137.085938 75.503906 137.140625 75.457031 C 137.320312 75.84375 137.519531 76.226562 137.742188 76.589844 Z M 137.742188 76.589844 "/>
    <path style=" stroke:none;fill-rule:nonzero;fill:rgb(14.117647%,24.705882%,39.607843%);fill-opacity:1;" d="M 135.261719 76.316406 C 135.347656 75.945312 135.542969 75.402344 136.03125 75.515625 C 136.191406 75.605469 136.691406 75.574219 136.476562 75.898438 C 136.261719 75.878906 136.050781 75.835938 135.847656 75.765625 C 135.765625 75.898438 135.6875 76.039062 135.613281 76.175781 C 135.980469 76.363281 136.585938 76.445312 136.621094 76.957031 C 136.65625 77.496094 135.929688 77.734375 135.554688 77.441406 C 135.429688 77.347656 135.3125 77.253906 135.203125 77.152344 C 135.496094 76.796875 135.816406 77.476562 136.160156 77.214844 C 136.324219 77.152344 136.378906 77.027344 136.324219 76.839844 C 135.988281 76.632812 135.621094 76.480469 135.261719 76.316406 Z M 135.261719 76.316406 "/>
    <path style=" stroke:none;fill-rule:nonzero;fill:rgb(70.980392%,86.27451%,9.019608%);fill-opacity:1;" d="M 4.144531 2.585938 C 7.75 1.816406 11.546875 2.195312 14.992188 3.464844 C 16.929688 4.15625 18.769531 5.101562 20.476562 6.242188 C 22.285156 7.476562 23.992188 8.921875 25.226562 10.746094 C 25.992188 11.878906 26.578125 13.238281 26.363281 14.636719 C 26.109375 16.578125 24.664062 18.144531 22.988281 19.035156 C 20.179688 20.519531 16.816406 20.675781 13.769531 19.929688 C 13.675781 20.171875 13.621094 20.441406 13.472656 20.660156 C 13.027344 21.160156 12.09375 21.09375 11.761719 20.5 C 11.523438 20.085938 11.523438 19.59375 11.464844 19.132812 C 9.53125 18.226562 7.636719 17.039062 6.363281 15.285156 C 6.054688 14.84375 5.695312 14.246094 5.992188 13.710938 C 6.269531 13.21875 6.769531 12.910156 7.242188 12.628906 C 8.5625 11.90625 10.042969 11.550781 11.515625 11.296875 C 11.582031 10.144531 11.609375 8.96875 11.988281 7.871094 C 12.089844 7.617188 12.285156 7.214844 12.625 7.359375 C 13.003906 7.578125 13.136719 8.035156 13.25 8.429688 C 13.46875 9.304688 13.53125 10.214844 13.570312 11.117188 C 15.289062 11.132812 17.046875 11.191406 18.679688 11.78125 C 19.472656 12.085938 20.316406 12.550781 20.644531 13.386719 C 21.113281 14.402344 20.097656 15.773438 18.988281 15.558594 C 18.746094 15.542969 18.511719 15.457031 18.28125 15.371094 C 18.484375 14.992188 18.820312 14.703125 19.042969 14.339844 C 19.054688 14.023438 18.671875 13.929688 18.445312 13.8125 C 16.910156 13.230469 15.246094 13.042969 13.609375 13.101562 C 13.667969 14.855469 13.648438 16.609375 13.777344 18.355469 C 16.160156 18.832031 18.691406 18.703125 20.976562 17.859375 C 21.945312 17.507812 22.867188 16.914062 23.449219 16.046875 C 24.046875 15.144531 24.183594 13.96875 23.859375 12.941406 C 23.445312 11.507812 22.464844 10.324219 21.402344 9.3125 C 19.6875 7.722656 17.640625 6.523438 15.503906 5.585938 C 11.980469 4.09375 8.097656 3.257812 4.269531 3.71875 C 4.03125 3.789062 3.589844 3.761719 3.578125 4.101562 C 3.726562 4.296875 4.066406 4.410156 4.03125 4.699219 C 3.59375 4.886719 3.0625 4.882812 2.625 4.6875 C 2.300781 4.539062 2.339844 4.132812 2.472656 3.863281 C 2.84375 3.246094 3.410156 2.703125 4.144531 2.585938 Z M 7.277344 13.765625 C 6.949219 13.902344 6.460938 14.058594 6.460938 14.484375 C 6.59375 14.945312 6.992188 15.257812 7.339844 15.554688 C 8.558594 16.515625 9.972656 17.207031 11.425781 17.742188 C 11.433594 16.214844 11.46875 14.691406 11.460938 13.167969 C 10.058594 13.269531 8.625 13.332031 7.277344 13.765625 Z M 7.277344 13.765625 "/>
    <path style=" stroke:none;fill-rule:nonzero;fill:rgb(70.980392%,86.27451%,9.019608%);fill-opacity:1;" d="M 27.964844 4.414062 C 28.90625 4.023438 29.996094 3.796875 30.988281 4.136719 C 31.523438 4.304688 31.878906 4.808594 32.441406 4.921875 C 32.800781 5.007812 33.167969 5.167969 33.339844 5.519531 C 33.695312 6.21875 33.390625 7.050781 32.941406 7.632812 C 32.128906 8.691406 30.984375 9.480469 29.722656 9.90625 C 28.886719 10.191406 27.984375 10.109375 27.136719 9.925781 C 26.902344 10.195312 26.574219 10.515625 26.191406 10.324219 C 25.699219 9.972656 25.96875 9.265625 25.625 8.820312 C 25.257812 8.269531 25.128906 7.554688 25.382812 6.929688 C 25.832031 5.769531 26.847656 4.90625 27.964844 4.414062 Z M 26.867188 6.503906 C 26.605469 6.757812 26.453125 7.140625 26.53125 7.503906 C 27.246094 6.75 28.050781 6.089844 28.929688 5.535156 C 28.175781 5.667969 27.414062 5.945312 26.867188 6.503906 Z M 30.375 6.273438 C 29.40625 6.90625 28.503906 7.652344 27.746094 8.53125 C 29.148438 8.914062 30.640625 8.386719 31.742188 7.507812 C 32.160156 7.175781 32.558594 6.503906 32.121094 6.035156 C 31.59375 5.578125 30.875 5.972656 30.375 6.273438 Z M 30.375 6.273438 "/>
    <path style=" stroke:none;fill-rule:nonzero;fill:rgb(70.980392%,86.27451%,9.019608%);fill-opacity:1;" d="M 43.117188 10.226562 C 43.164062 10.003906 43.449219 10.054688 43.597656 10.125 C 44.160156 10.421875 44.503906 10.996094 44.824219 11.519531 C 45.515625 12.765625 45.957031 14.167969 46.011719 15.597656 C 46.023438 16.539062 45.71875 17.539062 45.011719 18.195312 C 44.660156 18.527344 44.054688 18.699219 43.664062 18.332031 C 42.949219 17.742188 42.476562 16.925781 41.960938 16.164062 C 41.570312 15.601562 41.269531 14.953125 40.746094 14.492188 C 40.390625 15.839844 40.742188 17.308594 40.203125 18.617188 C 39.984375 19.09375 39.257812 18.988281 39.035156 18.570312 C 38.714844 17.953125 38.753906 17.226562 38.789062 16.550781 C 38.894531 15.308594 39.089844 14.066406 39.464844 12.878906 C 39.609375 12.484375 39.761719 12.042969 40.121094 11.796875 C 40.429688 11.660156 40.710938 11.925781 40.929688 12.113281 C 41.675781 12.847656 42.25 13.738281 42.839844 14.597656 C 43.226562 15.140625 43.550781 15.742188 44.054688 16.191406 C 44.21875 15.769531 44.234375 15.3125 44.140625 14.871094 C 43.902344 13.6875 43.5 12.550781 43.1875 11.386719 C 43.105469 11.007812 42.980469 10.605469 43.117188 10.226562 Z M 43.117188 10.226562 "/>
    <path style=" stroke:none;fill-rule:nonzero;fill:rgb(70.980392%,86.27451%,9.019608%);fill-opacity:1;" d="M 34.082031 11.136719 C 34.96875 11.066406 35.859375 11.0625 36.746094 11.125 C 37.242188 11.1875 37.789062 11.214844 38.207031 11.53125 C 38.414062 11.6875 38.414062 12.046875 38.1875 12.1875 C 37.894531 12.410156 37.523438 12.492188 37.171875 12.566406 C 35.625 12.84375 34.035156 12.753906 32.492188 13.042969 C 32.246094 13.109375 31.875 13.1875 31.839844 13.492188 C 32.113281 13.671875 32.445312 13.710938 32.757812 13.753906 C 33.859375 13.878906 34.96875 13.917969 36.058594 14.101562 C 36.695312 14.234375 37.363281 14.453125 37.816406 14.949219 C 38.511719 15.71875 38.5 16.984375 37.851562 17.777344 C 37.164062 18.632812 36.023438 18.941406 34.96875 19.003906 C 33.914062 19.03125 32.8125 18.914062 31.859375 18.421875 C 31.265625 18.113281 30.679688 17.632812 30.523438 16.949219 C 30.398438 16.203125 30.960938 15.5 31.667969 15.320312 C 32.714844 15.046875 33.816406 15.265625 34.855469 15.484375 C 35.257812 15.613281 35.792969 15.699219 35.988281 16.125 C 35.875 16.558594 35.375 16.710938 34.988281 16.796875 C 33.957031 17.019531 33.074219 16.277344 32.089844 16.15625 C 31.664062 16.101562 31.125 16.476562 31.292969 16.945312 C 31.574219 17.378906 32.183594 17.328125 32.632812 17.367188 C 33.925781 17.316406 35.253906 17.15625 36.441406 16.617188 C 36.730469 16.496094 37.1875 16.09375 36.824219 15.796875 C 36.121094 15.328125 35.253906 15.207031 34.433594 15.078125 C 33.355469 14.90625 32.246094 15.042969 31.171875 14.824219 C 30.695312 14.726562 30.1875 14.457031 30.042969 13.960938 C 29.859375 13.21875 30.257812 12.429688 30.894531 12.042969 C 31.84375 11.4375 32.984375 11.257812 34.082031 11.136719 Z M 34.082031 11.136719 "/>
    <path style=" stroke:none;fill-rule:nonzero;fill:rgb(70.980392%,86.27451%,9.019608%);fill-opacity:1;" d="M 55.230469 12.003906 C 55.539062 11.609375 55.878906 11.226562 56.3125 10.964844 C 56.511719 11.316406 56.625 11.742188 56.425781 12.125 C 55.933594 13.148438 55.261719 14.089844 54.925781 15.183594 C 54.832031 15.445312 54.917969 15.722656 54.945312 15.988281 C 56.074219 14.695312 57.144531 13.324219 58.539062 12.300781 C 58.90625 12.046875 59.300781 11.773438 59.757812 11.738281 C 60.382812 11.78125 60.878906 12.292969 61.144531 12.828125 C 61.679688 13.976562 61.59375 15.382812 60.898438 16.445312 C 59.863281 18.113281 58.023438 19.46875 55.992188 19.378906 C 55.425781 21.722656 54.527344 23.980469 54.109375 26.363281 C 53.410156 26.414062 52.863281 25.84375 52.578125 25.265625 C 52.296875 24.722656 52.371094 24.09375 52.421875 23.507812 C 52.664062 21.554688 53.285156 19.675781 53.871094 17.808594 C 53.550781 17.070312 53.355469 16.257812 53.53125 15.460938 C 53.75 14.171875 54.449219 13.023438 55.230469 12.003906 Z M 58.976562 14.109375 C 58.199219 15.109375 57.554688 16.210938 56.921875 17.308594 C 57.992188 17.265625 58.992188 16.71875 59.691406 15.925781 C 60.1875 15.347656 60.484375 14.554688 60.320312 13.792969 C 60.28125 13.535156 60.035156 13.285156 59.761719 13.367188 C 59.441406 13.539062 59.203125 13.828125 58.976562 14.109375 Z M 58.976562 14.109375 "/>
    <path style=" stroke:none;fill-rule:nonzero;fill:rgb(70.980392%,86.27451%,9.019608%);fill-opacity:1;" d="M 47.488281 11.542969 C 48.535156 11.339844 49.605469 11.308594 50.667969 11.203125 C 51.441406 11.09375 52.308594 11.109375 52.914062 11.679688 C 53.121094 11.894531 53.496094 12.164062 53.339844 12.5 C 53.027344 12.964844 52.414062 12.914062 51.925781 12.949219 C 51.167969 13.011719 50.390625 12.972656 49.65625 13.183594 C 49.476562 13.480469 49.492188 13.835938 49.460938 14.167969 C 50.179688 14.332031 50.921875 14.238281 51.644531 14.363281 C 52.078125 14.621094 52.011719 15.410156 51.492188 15.515625 C 50.761719 15.613281 50.019531 15.535156 49.285156 15.597656 C 48.480469 15.585938 48.515625 16.679688 48.464844 17.253906 C 49.394531 17.207031 50.296875 16.960938 51.21875 16.859375 C 51.722656 16.785156 52.277344 17.160156 52.375 17.664062 C 52.148438 18.046875 51.753906 18.28125 51.386719 18.511719 C 50.386719 19.105469 49.246094 19.535156 48.066406 19.507812 C 46.839844 19.414062 46.152344 17.910156 46.507812 16.824219 C 46.648438 16.179688 47.15625 15.507812 46.75 14.859375 C 46.964844 14.3125 47.769531 14.335938 47.878906 13.730469 C 47.941406 13.488281 47.964844 13.234375 47.996094 12.984375 C 47.53125 12.742188 46.84375 12.585938 46.75 11.976562 C 46.859375 11.675781 47.21875 11.628906 47.488281 11.542969 Z M 47.488281 11.542969 "/>
    <path style=" stroke:none;fill-rule:nonzero;fill:rgb(70.980392%,86.27451%,9.019608%);fill-opacity:1;" d="M 27.992188 11.339844 C 28.433594 11.011719 28.804688 11.625 28.886719 12.007812 C 29.238281 13.492188 29.210938 15.039062 29.273438 16.554688 C 29.261719 17.292969 29.367188 18.0625 29.121094 18.773438 C 28.96875 19.175781 28.453125 19.136719 28.105469 19.078125 C 27.722656 18.996094 27.535156 18.609375 27.457031 18.261719 C 27.277344 17.472656 27.296875 16.660156 27.304688 15.859375 C 27.339844 14.644531 27.34375 13.414062 27.597656 12.222656 C 27.679688 11.910156 27.738281 11.5625 27.992188 11.339844 Z M 27.992188 11.339844 "/>
    <path style=" stroke:none;fill-rule:nonzero;fill:rgb(70.980392%,86.27451%,9.019608%);fill-opacity:1;" d="M 30.082031 21.726562 C 30.324219 21.648438 30.589844 21.660156 30.84375 21.652344 C 35.664062 21.664062 40.484375 21.644531 45.304688 21.660156 C 46.066406 21.636719 46.605469 22.261719 47.09375 22.757812 C 50.164062 25.839844 53.242188 28.910156 56.3125 31.996094 C 56.59375 32.265625 56.847656 32.585938 57.207031 32.757812 C 57.589844 32.910156 57.984375 32.695312 58.242188 32.417969 C 61.617188 29.035156 64.992188 25.65625 68.367188 22.273438 C 68.746094 21.890625 69.253906 21.613281 69.808594 21.65625 C 74.675781 21.65625 79.546875 21.652344 84.414062 21.65625 C 84.957031 21.59375 85.484375 22.0625 85.421875 22.621094 C 85.421875 27.765625 85.425781 32.914062 85.417969 38.058594 C 85.421875 38.882812 84.71875 39.410156 84.199219 39.941406 C 81.21875 42.929688 78.234375 45.914062 75.257812 48.902344 C 74.953125 49.171875 74.789062 49.628906 75 50.007812 C 75.226562 50.398438 75.585938 50.691406 75.898438 51.011719 C 78.859375 53.972656 81.8125 56.9375 84.773438 59.898438 C 85.179688 60.28125 85.464844 60.808594 85.421875 61.382812 C 85.417969 66.484375 85.429688 71.585938 85.417969 76.6875 C 85.457031 77.238281 84.933594 77.675781 84.40625 77.621094 C 79.355469 77.621094 74.304688 77.621094 69.253906 77.621094 C 68.71875 77.628906 68.183594 77.429688 67.808594 77.042969 C 64.714844 73.933594 61.609375 70.839844 58.519531 67.726562 C 58.242188 67.460938 57.96875 67.117188 57.558594 67.078125 C 57.195312 67.035156 56.894531 67.289062 56.65625 67.527344 C 53.707031 70.496094 50.742188 73.453125 47.789062 76.421875 C 47.421875 76.785156 47.085938 77.195312 46.621094 77.4375 C 46.074219 77.6875 45.460938 77.609375 44.882812 77.621094 C 40.160156 77.621094 35.4375 77.621094 30.714844 77.625 C 30.390625 77.625 30.015625 77.605469 29.792969 77.328125 C 29.550781 77.089844 29.554688 76.726562 29.550781 76.410156 C 29.558594 71.351562 29.546875 66.296875 29.558594 61.238281 C 29.546875 60.457031 30.171875 59.914062 30.683594 59.417969 C 33.691406 56.410156 36.703125 53.402344 39.703125 50.390625 C 40.121094 50.039062 40.222656 49.351562 39.785156 48.96875 C 36.585938 45.742188 33.359375 42.535156 30.152344 39.316406 C 29.789062 38.949219 29.527344 38.460938 29.550781 37.933594 C 29.554688 32.832031 29.550781 27.730469 29.554688 22.628906 C 29.535156 22.257812 29.734375 21.878906 30.082031 21.726562 Z M 30.082031 21.726562 "/>
    <path style=" stroke:none;fill-rule:nonzero;fill:rgb(70.980392%,86.27451%,9.019608%);fill-opacity:1;" d="M 88.453125 21.714844 C 88.933594 21.609375 89.429688 21.664062 89.921875 21.65625 C 101.710938 21.65625 113.507812 21.65625 125.300781 21.652344 C 125.78125 21.667969 126.28125 21.601562 126.753906 21.746094 C 127.328125 22 127.742188 22.488281 128.179688 22.921875 C 131.234375 25.976562 134.285156 29.03125 137.339844 32.085938 C 137.761719 32.515625 138.253906 32.925781 138.46875 33.507812 C 138.597656 34.050781 138.535156 34.621094 138.546875 35.175781 C 138.550781 45.011719 138.542969 54.847656 138.550781 64.683594 C 138.582031 65.304688 138.53125 65.984375 138.050781 66.4375 C 134.710938 69.796875 131.347656 73.140625 128.007812 76.496094 C 127.59375 76.90625 127.195312 77.398438 126.613281 77.5625 C 126.132812 77.636719 125.644531 77.597656 125.164062 77.605469 C 113.414062 77.601562 101.660156 77.601562 89.910156 77.601562 C 89.441406 77.59375 88.964844 77.644531 88.496094 77.5625 C 88.058594 77.457031 87.847656 76.980469 87.875 76.5625 C 87.875 58.628906 87.878906 40.691406 87.871094 22.757812 C 87.847656 22.339844 88.011719 21.847656 88.453125 21.714844 Z M 88.453125 21.714844 "/>
  </g>
</svg>