<?xml version="1.0" encoding="utf-8"?>
<!-- Generator: Adobe Illustrator 15.0.0, SVG Export Plug-In . SVG Version: 6.00 Build 0)  -->
<!DOCTYPE svg PUBLIC "-//W3C//DTD SVG 1.0//EN" "http://www.w3.org/TR/2001/REC-SVG-20010904/DTD/svg10.dtd">
<svg version="1.0" id="Layer_1" xmlns="http://www.w3.org/2000/svg" xmlns:xlink="http://www.w3.org/1999/xlink" x="0px" y="0px"
	 width="1024px" height="580px" viewBox="0 0 1024 580" enable-background="new 0 0 1024 580" xml:space="preserve">
<g>
	<g>
		<path fill="#243F65" d="M56.28,0h8.17c38.42,2.04,75.44,17.59,105.73,40.96c7.1-12.44,19.17-22.13,33.09-25.8
			c10.98-3.14,23.65-3.41,33.59,2.92c5.27,3.63,12.05,4.81,16.48,9.69c6.07,5.99,7.89,15.13,6.6,23.32
			c-0.71,4.77-2.79,9.17-4.99,13.4c7.32,0.04,14.72,0.12,21.9,1.7c3.28,0.71,6.14,2.58,9.32,3.57c3.54,0.09,7.08-0.38,10.63-0.24
			c3.01-6.76,9.46-12.3,17.12-12.37c9.16-0.61,16.71,5.8,22.21,12.42c9.77-2.38,19.81-3.16,29.8-4.08
			c5.32-0.42,10.81-1.04,16.02,0.5c4.04,1.05,7.74,3.04,11.29,5.2c4.16-3.56,9.01-7.01,14.74-6.94c6-0.32,11.42,2.99,15.32,7.3
			c4.77-1.51,9.91-3.12,14.9-1.67c5.19,1.45,9.61,4.79,13.34,8.58c19.63,19.72,39.36,39.36,59.02,59.05
			c1.11,1.32,2.81,1.67,4.48,1.63c130.66-0.02,261.32,0,391.99-0.01c5.95,0.04,12.05-0.43,17.85,1.25
			c5.66,1.5,10.51,5.05,14.58,9.15c24.35,24.33,48.66,48.69,73.03,73.01c6.44,5.87,11.25,13.86,11.51,22.76v230.33
			c-0.56,3.88-1.43,7.8-3.35,11.26c-3.13,5.86-8.25,10.24-12.84,14.92c-22.84,22.83-45.61,45.75-68.51,68.52
			c-4.54,4.71-10.31,8.2-16.72,9.67H495.6c-5.67-1.44-11.06-4.14-15.18-8.34c-20.95-20.95-41.84-41.96-62.87-62.83
			c-21.16,20.76-41.91,41.94-62.95,62.83c-4.11,4.18-9.46,6.91-15.11,8.34H215.6c-7.01-1.88-13.35-6.6-16.35-13.31
			c-2.95-5.77-2.43-12.41-2.44-18.67c0.02-31.34-0.02-62.68,0-94.02c0.03-7-0.55-14.31,2.13-20.94c2.53-6.61,7.88-11.48,12.76-16.38
			c18.99-18.91,37.85-37.96,56.9-56.81c-74.01-74.14-148.14-148.16-222.2-222.25c-4.52-4.5-9.33-8.77-13.03-14
			c-4.33-5.99-8.25-12.93-7.77-20.59c-0.02-6.65,3.3-12.85,8.15-17.24c9.07-9.21,21.71-13.3,33.8-16.84
			c0.84-7.5,2.26-15.02,5.82-21.75c-9.68-1.59-19.53-3.24-29.35-2.51c-2.51,1.92-4.44,4.59-7.31,6.02
			c-5.75,2.9-12.48,3.14-18.74,2.17c-6.81-1.1-13.02-5.58-16-11.82c-2.75-5.88-2.13-12.88,0.29-18.76
			c4.6-8.92,12.89-16.08,22.67-18.65C35.15,0.95,45.77,0.47,56.28,0z M30.1,18.74c-5.32,0.85-9.46,4.8-12.13,9.27
			c-0.99,1.95-1.25,4.89,1.1,5.97c3.16,1.41,7.02,1.45,10.21,0.09c0.26-2.09-2.21-2.93-3.3-4.34c0.08-2.47,3.29-2.25,5.03-2.77
			c27.8-3.35,56,2.72,81.59,13.53c15.5,6.81,30.37,15.49,42.84,27.03c7.72,7.33,14.83,15.9,17.84,26.3
			c2.35,7.45,1.36,15.97-2.97,22.52c-4.23,6.3-10.93,10.59-17.97,13.15c-16.6,6.11-34.97,7.04-52.27,3.59
			c-0.95-12.66-0.81-25.39-1.22-38.08c11.87-0.44,23.96,0.93,35.12,5.13c1.64,0.85,4.41,1.53,4.32,3.82
			c-1.61,2.66-4.04,4.73-5.51,7.5c1.66,0.62,3.35,1.24,5.13,1.35c8.06,1.57,15.42-8.38,12.02-15.75c-2.39-6.05-8.5-9.44-14.27-11.63
			c-11.86-4.27-24.63-4.7-37.11-4.83c-0.29-6.53-0.74-13.12-2.31-19.48c-0.84-2.86-1.79-6.18-4.56-7.75
			c-2.45-1.04-3.89,1.87-4.61,3.7c-2.75,7.96-2.97,16.5-3.44,24.83c-10.69,1.85-21.45,4.43-31.04,9.66
			c-3.43,2.05-7.07,4.29-9.07,7.86c-2.17,3.88,0.45,8.22,2.68,11.42c9.27,12.7,23.02,21.3,37.05,27.88
			c0.43,3.34,0.44,6.91,2.16,9.91c2.41,4.3,9.21,4.8,12.42,1.18c1.09-1.6,1.5-3.54,2.17-5.32c22.14,5.41,46.54,4.28,66.95-6.47
			c12.16-6.47,22.68-17.81,24.52-31.89c1.54-10.13-2.69-20-8.27-28.21c-8.97-13.24-21.37-23.71-34.49-32.64
			C136.3,37,122.94,30.14,108.89,25.11C83.85,15.91,56.27,13.17,30.1,18.74z M203.08,31.99c-8.11,3.57-15.48,9.83-18.75,18.24
			c-1.83,4.54-0.89,9.72,1.77,13.72c2.49,3.23,0.54,8.35,4.1,10.9c2.78,1.38,5.19-0.94,6.88-2.88c6.16,1.33,12.71,1.91,18.79-0.15
			c9.14-3.09,17.46-8.81,23.37-16.47c3.26-4.22,5.46-10.25,2.88-15.33c-1.23-2.56-3.91-3.72-6.51-4.35
			c-4.08-0.81-6.67-4.47-10.57-5.67C217.83,27.52,209.94,29.18,203.08,31.99z M313.13,74.13c-1,2.76-0.07,5.69,0.52,8.43
			c2.27,8.42,5.2,16.68,6.91,25.25c0.7,3.2,0.57,6.51-0.61,9.58c-3.67-3.26-6.02-7.62-8.82-11.57c-4.3-6.23-8.46-12.67-13.89-18
			c-1.58-1.36-3.62-3.29-5.86-2.3c-2.61,1.8-3.71,5-4.76,7.85c-2.74,8.62-4.14,17.63-4.93,26.62c-0.23,4.89-0.53,10.17,1.8,14.64
			c1.63,3.03,6.9,3.81,8.49,0.34c3.92-9.49,1.34-20.13,3.93-29.89c3.82,3.33,5.98,8.02,8.84,12.11c3.72,5.51,7.17,11.43,12.36,15.72
			c2.83,2.67,7.22,1.4,9.79-0.99c5.14-4.75,7.35-12,7.27-18.85c-0.4-10.36-3.61-20.51-8.63-29.54c-2.34-3.82-4.82-7.97-8.92-10.11
			C315.54,72.91,313.47,72.54,313.13,74.13z M247.52,80.73c-7.97,0.88-16.26,2.2-23.15,6.57c-4.62,2.82-7.51,8.55-6.19,13.91
			c1.06,3.61,4.74,5.56,8.2,6.26c7.8,1.6,15.85,0.59,23.7,1.85c5.94,0.94,12.26,1.81,17.35,5.22c2.63,2.14-0.69,5.05-2.79,5.93
			c-8.62,3.91-18.27,5.07-27.64,5.43c-3.28-0.27-7.7,0.11-9.74-3.04c-1.22-3.4,2.69-6.12,5.78-5.73c7.16,0.88,13.57,6.25,21.06,4.64
			c2.81-0.61,6.43-1.72,7.25-4.85c-1.41-3.1-5.29-3.71-8.21-4.66c-7.54-1.59-15.55-3.18-23.16-1.18c-5.14,1.29-9.21,6.4-8.32,11.81
			c1.16,4.95,5.41,8.43,9.73,10.67c6.92,3.58,14.9,4.42,22.58,4.23c7.64-0.47,15.92-2.7,20.91-8.91c4.73-5.75,4.82-14.93-0.24-20.49
			c-3.29-3.6-8.13-5.18-12.76-6.14c-7.93-1.35-15.99-1.63-23.97-2.53c-2.28-0.31-4.7-0.59-6.67-1.89c0.26-2.21,2.94-2.79,4.73-3.27
			c11.22-2.1,22.76-1.44,33.99-3.46c2.56-0.52,5.25-1.12,7.37-2.73c1.64-1.04,1.65-3.64,0.15-4.78c-3.03-2.29-7-2.47-10.62-2.92
			C260.43,80.21,253.95,80.23,247.52,80.73z M401.11,87.03c-5.69,7.39-10.75,15.72-12.33,25.05c-1.29,5.79,0.13,11.69,2.44,17.02
			c-4.23,13.56-8.74,27.16-10.5,41.32c-0.39,4.25-0.93,8.81,1.12,12.75c2.08,4.21,6.05,8.34,11.13,7.95
			c3.04-17.27,9.55-33.62,13.67-50.62c14.75,0.64,28.12-9.18,35.64-21.27c5.05-7.71,5.65-17.91,1.78-26.24
			c-1.94-3.88-5.53-7.57-10.07-7.9c-3.33,0.28-6.19,2.24-8.86,4.09c-10.11,7.42-17.9,17.37-26.09,26.73
			c-0.21-1.92-0.84-3.92-0.16-5.82c2.45-7.93,7.34-14.77,10.91-22.19c1.45-2.76,0.61-5.86-0.83-8.41
			C405.81,81.4,403.35,84.16,401.11,87.03z M344.87,83.7c-1.94,0.61-4.56,0.95-5.36,3.13c0.69,4.41,5.67,5.55,9.05,7.31
			c-0.22,1.81-0.38,3.64-0.85,5.41c-0.78,4.39-6.62,4.21-8.2,8.19c2.95,4.7-0.72,9.56-1.75,14.23c-2.58,7.89,2.4,18.78,11.33,19.47
			c8.55,0.19,16.84-2.92,24.11-7.22c2.65-1.69,5.51-3.39,7.18-6.15c-0.71-3.67-4.74-6.38-8.41-5.83c-6.7,0.74-13.25,2.51-20,2.85
			c0.38-4.16,0.11-12.1,5.95-12c5.34-0.47,10.73,0.12,16.05-0.59c3.76-0.78,4.25-6.51,1.09-8.37c-5.24-0.9-10.64-0.23-15.85-1.41
			c0.21-2.42,0.1-5,1.41-7.15c5.34-1.52,10.99-1.23,16.48-1.7c3.56-0.24,8,0.12,10.28-3.25c1.14-2.43-1.6-4.39-3.09-5.95
			c-4.39-4.12-10.71-4.23-16.33-3.45C360.26,81.99,352.48,82.21,344.87,83.7z M203.28,82.22c-1.84,1.61-2.26,4.14-2.86,6.39
			c-1.85,8.65-1.87,17.55-2.11,26.36c-0.06,5.81-0.2,11.71,1.09,17.42c0.56,2.53,1.93,5.34,4.72,5.93c2.51,0.41,6.26,0.71,7.37-2.22
			c1.78-5.16,1.01-10.73,1.11-16.08c-0.46-11-0.26-22.19-2.82-32.95C209.19,84.29,206.49,79.84,203.28,82.22z M218.46,157.53
			c-2.53,1.09-3.95,3.83-3.82,6.53c-0.04,36.98,0,73.97-0.02,110.95c-0.19,3.84,1.72,7.37,4.36,10.03
			c23.3,23.35,46.71,46.6,69.97,69.99c3.15,2.76,2.43,7.74-0.61,10.29c-21.79,21.86-43.66,43.65-65.51,65.45
			c-3.7,3.62-8.26,7.54-8.17,13.21c-0.09,36.66,0.02,73.32-0.06,109.98c0.03,2.3,0.02,4.93,1.78,6.68c1.6,1.99,4.32,2.14,6.68,2.13
			c34.3-0.03,68.6-0.02,102.9-0.01c4.21-0.08,8.66,0.48,12.61-1.34c3.39-1.74,5.84-4.74,8.5-7.37
			c21.45-21.52,42.97-42.95,64.39-64.48c1.74-1.73,3.91-3.56,6.55-3.24c2.97,0.26,4.97,2.77,6.98,4.69
			c22.44,22.56,45.01,44.99,67.47,67.53c2.73,2.82,6.59,4.27,10.5,4.2c36.67,0,73.35,0.01,110.03-0.01
			c3.84,0.41,7.64-2.76,7.35-6.75c0.09-36.98,0-73.97,0.04-110.96c0.3-4.17-1.76-7.98-4.71-10.77
			c-21.51-21.45-42.97-42.97-64.47-64.43c-2.27-2.33-4.86-4.44-6.53-7.26c-1.52-2.75-0.34-6.06,1.87-8.02
			c21.63-21.68,43.3-43.31,64.95-64.97c3.76-3.87,8.89-7.69,8.85-13.66c0.07-37.3,0.03-74.61,0.02-111.92
			c0.45-4.06-3.36-7.44-7.3-6.98c-35.36-0.05-70.73,0-106.09-0.02c-4.03-0.3-7.71,1.71-10.47,4.49
			c-24.49,24.52-49.02,49.01-73.51,73.53c-1.89,2.01-4.74,3.57-7.53,2.46c-2.62-1.23-4.46-3.55-6.49-5.52
			c-22.29-22.35-44.66-44.62-66.95-66.96c-3.56-3.61-7.46-8.13-13.01-7.96c-35-0.11-70.01,0.02-105.01-0.07
			C222.15,157.03,220.24,156.94,218.46,157.53z M642.37,157.42c-3.19,0.98-4.39,4.54-4.2,7.58c0.03,130.02,0.01,260.05,0.02,390.07
			c-0.2,3.04,1.34,6.48,4.52,7.27c3.38,0.57,6.84,0.21,10.26,0.28c85.34,0,170.68,0,256.021,0.01c3.5-0.06,7.05,0.25,10.53-0.31
			c4.23-1.17,7.11-4.74,10.12-7.71c24.27-24.35,48.68-48.58,72.94-72.95c3.49-3.26,3.86-8.2,3.63-12.69
			c-0.06-71.32-0.01-142.64-0.02-213.95c-0.09-4.03,0.36-8.14-0.57-12.1c-1.56-4.21-5.14-7.19-8.21-10.3
			c-22.19-22.14-44.34-44.3-66.52-66.44c-3.18-3.13-6.19-6.68-10.35-8.53c-3.42-1.05-7.06-0.57-10.56-0.66
			c-85.65,0.02-171.3,0.01-256.94,0.01C649.48,157.07,645.86,156.67,642.37,157.42z"/>
	</g>
	<path fill="#243F65" d="M195.13,47.14c3.95-4.04,9.48-6.06,14.96-7.02c-6.38,4.03-12.22,8.83-17.42,14.28
		C192.1,51.76,193.23,48.98,195.13,47.14z"/>
	<path fill="#243F65" d="M220.6,45.49c3.63-2.19,8.84-5.06,12.68-1.73c3.17,3.39,0.27,8.27-2.75,10.67
		c-8,6.36-18.85,10.19-29.02,7.43C207,55.48,213.57,50.08,220.6,45.49z"/>
	<path fill="#243F65" d="M52.85,99.81c9.8-3.16,20.2-3.6,30.39-4.34c0.05,11.05-0.2,22.1-0.26,33.15
		c-10.55-3.87-20.82-8.87-29.68-15.85c-2.53-2.16-5.42-4.42-6.38-7.75C46.93,101.92,50.48,100.8,52.85,99.81z"/>
	<path fill="#243F65" d="M428.32,102.28c1.65-2.02,3.37-4.12,5.7-5.38c1.99-0.58,3.78,1.23,4.05,3.11
		c1.19,5.52-0.96,11.27-4.57,15.45c-5.07,5.76-12.35,9.72-20.1,10.04C417.98,117.52,422.66,109.55,428.32,102.28z"/>
	<path fill="#243F65" d="M1000.34,555.27c1.75-2.63,2.23-6.77,5.29-8.14c1.14,4.91,0.23,10.01,0.51,15
		c-0.51-0.01-1.52-0.02-2.02-0.03c0.14-3.14,0.01-6.28-0.38-9.38c-1.14,2.24-2.32,4.47-3.39,6.76c-1.44-2.31-2.88-4.62-4.04-7.07
		c-0.09,3.22-0.09,6.46-0.07,9.69c-0.521,0-1.56-0.01-2.09-0.01c0.13-4.56-0.34-9.16,0.24-13.69c0.4-0.33,1.19-1.01,1.59-1.34
		C997.29,549.86,998.71,552.63,1000.34,555.27z"/>
	<path fill="#243F65" d="M982.34,553.28c0.61-2.68,2.02-6.61,5.57-5.78c1.18,0.65,4.79,0.42,3.25,2.75
		c-1.57-0.12-3.1-0.43-4.58-0.96c-0.59,0.98-1.15,1.98-1.69,2.98c2.65,1.37,7.06,1.97,7.31,5.68c0.25,3.89-5.02,5.63-7.76,3.51
		c-0.89-0.68-1.74-1.38-2.55-2.1c2.15-2.59,4.47,2.34,6.97,0.46c1.17-0.46,1.57-1.37,1.18-2.72
		C987.6,555.58,984.93,554.49,982.34,553.28z"/>
</g>
<g>
	<g>
		<path fill="#B5DC17" d="M30.1,18.74c26.17-5.57,53.75-2.83,78.79,6.37c14.05,5.03,27.41,11.89,39.82,20.16
			c13.12,8.93,25.52,19.4,34.49,32.64c5.58,8.21,9.81,18.08,8.27,28.21c-1.84,14.08-12.36,25.42-24.52,31.89
			c-20.41,10.75-44.81,11.88-66.95,6.47c-0.67,1.78-1.08,3.72-2.17,5.32c-3.21,3.62-10.01,3.12-12.42-1.18
			c-1.72-3-1.73-6.57-2.16-9.91c-14.03-6.58-27.78-15.18-37.05-27.88c-2.23-3.2-4.85-7.54-2.68-11.42c2-3.57,5.64-5.81,9.07-7.86
			c9.59-5.23,20.35-7.81,31.04-9.66c0.47-8.33,0.69-16.87,3.44-24.83c0.72-1.83,2.16-4.74,4.61-3.7c2.77,1.57,3.72,4.89,4.56,7.75
			c1.57,6.36,2.02,12.95,2.31,19.48c12.48,0.13,25.25,0.56,37.11,4.83c5.77,2.19,11.88,5.58,14.27,11.63
			c3.4,7.37-3.96,17.32-12.02,15.75c-1.78-0.11-3.47-0.73-5.13-1.35c1.47-2.77,3.9-4.84,5.51-7.5c0.09-2.29-2.68-2.97-4.32-3.82
			c-11.16-4.2-23.25-5.57-35.12-5.13c0.41,12.69,0.27,25.42,1.22,38.08c17.3,3.45,35.67,2.52,52.27-3.59
			c7.04-2.56,13.74-6.85,17.97-13.15c4.33-6.55,5.32-15.07,2.97-22.52c-3.01-10.4-10.12-18.97-17.84-26.3
			C142.97,55.98,128.1,47.3,112.6,40.49C87.01,29.68,58.81,23.61,31.01,26.96c-1.74,0.52-4.95,0.3-5.03,2.77
			c1.09,1.41,3.56,2.25,3.3,4.34c-3.19,1.36-7.05,1.32-10.21-0.09c-2.35-1.08-2.09-4.02-1.1-5.97
			C20.64,23.54,24.78,19.59,30.1,18.74z M52.85,99.81c-2.37,0.99-5.92,2.11-5.93,5.21c0.96,3.33,3.85,5.59,6.38,7.75
			c8.86,6.98,19.13,11.98,29.68,15.85c0.06-11.05,0.31-22.1,0.26-33.15C73.05,96.21,62.65,96.65,52.85,99.81z"/>
	</g>
	<g>
		<path fill="#B5DC17" d="M203.08,31.99c6.86-2.81,14.75-4.47,21.96-1.99c3.9,1.2,6.49,4.86,10.57,5.67
			c2.6,0.63,5.28,1.79,6.51,4.35c2.58,5.08,0.38,11.11-2.88,15.33c-5.91,7.66-14.23,13.38-23.37,16.47
			c-6.08,2.06-12.63,1.48-18.79,0.15c-1.69,1.94-4.1,4.26-6.88,2.88c-3.56-2.55-1.61-7.67-4.1-10.9c-2.66-4-3.6-9.18-1.77-13.72
			C187.6,41.82,194.97,35.56,203.08,31.99z M195.13,47.14c-1.9,1.84-3.03,4.62-2.46,7.26c5.2-5.45,11.04-10.25,17.42-14.28
			C204.61,41.08,199.08,43.1,195.13,47.14z M220.6,45.49c-7.03,4.59-13.6,9.99-19.09,16.37c10.17,2.76,21.02-1.07,29.02-7.43
			c3.02-2.4,5.92-7.28,2.75-10.67C229.44,40.43,224.23,43.3,220.6,45.49z"/>
	</g>
	<path fill="#B5DC17" d="M313.13,74.13c0.34-1.59,2.41-1.22,3.49-0.71c4.1,2.14,6.58,6.29,8.92,10.11
		c5.02,9.03,8.23,19.18,8.63,29.54c0.08,6.85-2.13,14.1-7.27,18.85c-2.57,2.39-6.96,3.66-9.79,0.99
		c-5.19-4.29-8.64-10.21-12.36-15.72c-2.86-4.09-5.02-8.78-8.84-12.11c-2.59,9.76-0.01,20.4-3.93,29.89
		c-1.59,3.47-6.86,2.69-8.49-0.34c-2.33-4.47-2.03-9.75-1.8-14.64c0.79-8.99,2.19-18,4.93-26.62c1.05-2.85,2.15-6.05,4.76-7.85
		c2.24-0.99,4.28,0.94,5.86,2.3c5.43,5.33,9.59,11.77,13.89,18c2.8,3.95,5.15,8.31,8.82,11.57c1.18-3.07,1.31-6.38,0.61-9.58
		c-1.71-8.57-4.64-16.83-6.91-25.25C313.06,79.82,312.13,76.89,313.13,74.13z"/>
	<path fill="#B5DC17" d="M247.52,80.73c6.43-0.5,12.91-0.52,19.34-0.06c3.62,0.45,7.59,0.63,10.62,2.92
		c1.5,1.14,1.49,3.74-0.15,4.78c-2.12,1.61-4.81,2.21-7.37,2.73c-11.23,2.02-22.77,1.36-33.99,3.46c-1.79,0.48-4.47,1.06-4.73,3.27
		c1.97,1.3,4.39,1.58,6.67,1.89c7.98,0.9,16.04,1.18,23.97,2.53c4.63,0.96,9.47,2.54,12.76,6.14c5.06,5.56,4.97,14.74,0.24,20.49
		c-4.99,6.21-13.27,8.44-20.91,8.91c-7.68,0.19-15.66-0.65-22.58-4.23c-4.32-2.24-8.57-5.72-9.73-10.67
		c-0.89-5.41,3.18-10.52,8.32-11.81c7.61-2,15.62-0.41,23.16,1.18c2.92,0.95,6.8,1.56,8.21,4.66c-0.82,3.13-4.44,4.24-7.25,4.85
		c-7.49,1.61-13.9-3.76-21.06-4.64c-3.09-0.39-7,2.33-5.78,5.73c2.04,3.15,6.46,2.77,9.74,3.04c9.37-0.36,19.02-1.52,27.64-5.43
		c2.1-0.88,5.42-3.79,2.79-5.93c-5.09-3.41-11.41-4.28-17.35-5.22c-7.85-1.26-15.9-0.25-23.7-1.85c-3.46-0.7-7.14-2.65-8.2-6.26
		c-1.32-5.36,1.57-11.09,6.19-13.91C231.26,82.93,239.55,81.61,247.52,80.73z"/>
	<g>
		<path fill="#B5DC17" d="M401.11,87.03c2.24-2.87,4.7-5.63,7.85-7.54c1.44,2.55,2.28,5.65,0.83,8.41
			c-3.57,7.42-8.46,14.26-10.91,22.19c-0.68,1.9-0.05,3.9,0.16,5.82c8.19-9.36,15.98-19.31,26.09-26.73
			c2.67-1.85,5.53-3.81,8.86-4.09c4.54,0.33,8.13,4.02,10.07,7.9c3.87,8.33,3.27,18.53-1.78,26.24
			c-7.52,12.09-20.89,21.91-35.64,21.27c-4.12,17-10.63,33.35-13.67,50.62c-5.08,0.39-9.05-3.74-11.13-7.95
			c-2.05-3.94-1.51-8.5-1.12-12.75c1.76-14.16,6.27-27.76,10.5-41.32c-2.31-5.33-3.73-11.23-2.44-17.02
			C390.36,102.75,395.42,94.42,401.11,87.03z M428.32,102.28c-5.66,7.27-10.34,15.24-14.92,23.22c7.75-0.32,15.03-4.28,20.1-10.04
			c3.61-4.18,5.76-9.93,4.57-15.45c-0.27-1.88-2.06-3.69-4.05-3.11C431.69,98.16,429.97,100.26,428.32,102.28z"/>
	</g>
	<path fill="#B5DC17" d="M344.87,83.7c7.61-1.49,15.39-1.71,23.09-2.48c5.62-0.78,11.94-0.67,16.33,3.45
		c1.49,1.56,4.23,3.52,3.09,5.95c-2.28,3.37-6.72,3.01-10.28,3.25c-5.49,0.47-11.14,0.18-16.48,1.7c-1.31,2.15-1.2,4.73-1.41,7.15
		c5.21,1.18,10.61,0.51,15.85,1.41c3.16,1.86,2.67,7.59-1.09,8.37c-5.32,0.71-10.71,0.12-16.05,0.59c-5.84-0.1-5.57,7.84-5.95,12
		c6.75-0.34,13.3-2.11,20-2.85c3.67-0.55,7.7,2.16,8.41,5.83c-1.67,2.76-4.53,4.46-7.18,6.15c-7.27,4.3-15.56,7.41-24.11,7.22
		c-8.93-0.69-13.91-11.58-11.33-19.47c1.03-4.67,4.7-9.53,1.75-14.23c1.58-3.98,7.42-3.8,8.2-8.19c0.47-1.77,0.63-3.6,0.85-5.41
		c-3.38-1.76-8.36-2.9-9.05-7.31C340.31,84.65,342.93,84.31,344.87,83.7z"/>
	<path fill="#B5DC17" d="M203.28,82.22c3.21-2.38,5.91,2.07,6.5,4.85c2.56,10.76,2.36,21.95,2.82,32.95
		c-0.1,5.35,0.67,10.92-1.11,16.08c-1.11,2.93-4.86,2.63-7.37,2.22c-2.79-0.59-4.16-3.4-4.72-5.93c-1.29-5.71-1.15-11.61-1.09-17.42
		c0.24-8.81,0.26-17.71,2.11-26.36C201.02,86.36,201.44,83.83,203.28,82.22z"/>
	<path fill="#B5DC17" d="M218.46,157.53c1.78-0.59,3.69-0.5,5.54-0.56c35,0.09,70.01-0.04,105.01,0.07
		c5.55-0.17,9.45,4.35,13.01,7.96c22.29,22.34,44.66,44.61,66.95,66.96c2.03,1.97,3.87,4.29,6.49,5.52
		c2.79,1.11,5.64-0.45,7.53-2.46c24.49-24.52,49.02-49.01,73.51-73.53c2.76-2.78,6.44-4.79,10.47-4.49
		c35.36,0.02,70.73-0.03,106.09,0.02c3.94-0.46,7.75,2.92,7.3,6.98c0.01,37.31,0.05,74.62-0.02,111.92
		c0.04,5.97-5.09,9.79-8.85,13.66c-21.65,21.66-43.32,43.29-64.95,64.97c-2.21,1.96-3.39,5.27-1.87,8.02
		c1.67,2.82,4.26,4.93,6.53,7.26c21.5,21.46,42.96,42.98,64.47,64.43c2.95,2.79,5.01,6.6,4.71,10.77
		c-0.04,36.99,0.05,73.98-0.04,110.96c0.29,3.99-3.51,7.16-7.35,6.75c-36.68,0.02-73.36,0.01-110.03,0.01
		c-3.91,0.07-7.77-1.38-10.5-4.2c-22.46-22.54-45.03-44.97-67.47-67.53c-2.01-1.92-4.01-4.43-6.98-4.69
		c-2.64-0.32-4.81,1.51-6.55,3.24c-21.42,21.53-42.94,42.96-64.39,64.48c-2.66,2.63-5.11,5.63-8.5,7.37
		c-3.95,1.82-8.4,1.26-12.61,1.34c-34.3-0.01-68.6-0.02-102.9,0.01c-2.36,0.01-5.08-0.14-6.68-2.13c-1.76-1.75-1.75-4.38-1.78-6.68
		c0.08-36.66-0.03-73.32,0.06-109.98c-0.09-5.67,4.47-9.59,8.17-13.21c21.85-21.8,43.72-43.59,65.51-65.45
		c3.04-2.55,3.76-7.53,0.61-10.29c-23.26-23.39-46.67-46.64-69.97-69.99c-2.64-2.66-4.55-6.19-4.36-10.03
		c0.02-36.98-0.02-73.97,0.02-110.95C214.51,161.36,215.93,158.62,218.46,157.53z"/>
	<path fill="#B5DC17" d="M642.37,157.42c3.49-0.75,7.11-0.35,10.67-0.42c85.64,0,171.29,0.01,256.94-0.01
		c3.5,0.09,7.14-0.39,10.56,0.66c4.16,1.85,7.17,5.4,10.35,8.53c22.18,22.14,44.33,44.3,66.52,66.44c3.07,3.11,6.65,6.09,8.21,10.3
		c0.93,3.96,0.48,8.07,0.57,12.1c0.01,71.31-0.04,142.63,0.02,213.95c0.23,4.49-0.14,9.43-3.63,12.69
		c-24.26,24.37-48.67,48.6-72.94,72.95c-3.01,2.97-5.89,6.54-10.12,7.71c-3.48,0.56-7.03,0.25-10.53,0.31
		c-85.34-0.01-170.68-0.01-256.021-0.01c-3.42-0.07-6.88,0.29-10.26-0.28c-3.18-0.79-4.72-4.23-4.52-7.27
		c-0.01-130.02,0.01-260.05-0.02-390.07C637.98,161.96,639.18,158.4,642.37,157.42z"/>
</g>
</svg>
