<!DOCTYPE svg PUBLIC "-//W3C//DTD SVG 20010904//EN" "http://www.w3.org/TR/2001/REC-SVG-20010904/DTD/svg10.dtd">
<svg version="1.0" xmlns="http://www.w3.org/2000/svg" width="1600px" height="702px" viewBox="0 0 16000 7020" preserveAspectRatio="xMidYMid meet">
<g id="layer101" fill="#3CB84D" stroke="none">
 <path d="M7918 7009 c-660 -64 -1193 -295 -1588 -690 -320 -319 -522 -710 -610 -1178 -82 -438 -36 -956 120 -1345 42 -107 132 -292 164 -339 14 -21 26 -41 26 -44 0 -3 28 -45 62 -92 244 -340 537 -574 939 -750 274 -120 561 -190 884 -216 450 -36 800 -6 1173 101 211 61 382 135 547 240 381 241 656 570 862 1034 59 131 139 380 167 515 44 214 76 519 76 733 l0 142 -1619 0 -1620 0 15 53 c73 252 297 462 569 533 53 14 104 18 210 17 178 -1 256 -17 440 -87 75 -28 180 -105 312 -228 l72 -67 670 335 c647 324 670 336 659 357 -22 43 -354 363 -455 439 -280 213 -547 349 -863 441 -140 41 -301 70 -509 92 -148 16 -556 18 -703 4z m1102 -2812 c0 -16 -59 -156 -95 -227 -120 -232 -278 -316 -612 -327 -460 -15 -658 110 -794 505 l-18 52 760 0 c417 0 759 -1 759 -3z"/>
 <path d="M13230 7013 c-187 -18 -416 -52 -525 -79 -216 -54 -526 -182 -713 -296 -244 -148 -494 -381 -644 -601 -65 -94 -149 -236 -173 -292 -13 -27 -36 -79 -52 -115 -83 -184 -150 -451 -174 -696 -17 -170 -6 -506 20 -659 37 -214 98 -418 177 -593 13 -29 24 -55 24 -59 0 -4 30 -59 67 -122 125 -218 284 -411 463 -564 134 -114 224 -177 365 -255 330 -184 711 -296 1110 -327 606 -48 1118 33 1546 244 239 119 485 311 654 512 68 81 205 270 205 283 0 3 17 32 37 63 97 152 231 487 292 729 46 182 91 577 91 802 l0 132 -1621 0 c-1406 0 -1620 2 -1616 14 3 8 11 34 17 58 7 24 30 79 53 123 58 111 200 253 312 312 169 87 302 112 502 94 270 -26 442 -107 654 -308 l76 -72 671 335 672 336 -19 26 c-28 39 -297 310 -362 365 -298 249 -660 438 -1013 528 -106 27 -342 65 -486 78 -104 10 -524 13 -610 4z m1040 -2826 c0 -25 -36 -120 -73 -192 -134 -264 -309 -355 -682 -355 -215 1 -362 33 -466 102 -112 75 -203 209 -264 387 l-24 71 755 0 c624 0 754 -2 754 -13z"/>
 <path d="M0 6854 c0 -4 13 -29 30 -56 17 -26 30 -50 30 -53 0 -3 27 -50 60 -106 33 -55 60 -103 60 -106 0 -3 27 -49 60 -103 33 -54 60 -101 60 -104 0 -3 27 -51 60 -106 33 -55 60 -103 60 -105 0 -2 27 -50 60 -105 33 -55 60 -102 60 -105 0 -2 27 -49 60 -104 33 -55 60 -102 60 -105 0 -3 17 -34 38 -68 21 -35 52 -88 69 -120 17 -31 53 -94 80 -140 56 -94 136 -234 169 -293 12 -22 51 -92 88 -155 36 -63 87 -152 114 -198 26 -46 74 -130 107 -187 33 -57 85 -148 116 -202 31 -54 94 -163 139 -243 46 -80 109 -190 140 -245 31 -55 99 -174 152 -265 52 -91 107 -188 122 -216 l27 -51 -72 -124 c-39 -68 -82 -142 -94 -164 -12 -22 -55 -96 -95 -165 -83 -142 -205 -354 -260 -450 -20 -36 -57 -100 -83 -142 -26 -42 -47 -79 -47 -82 0 -4 -12 -25 -27 -49 -26 -41 -51 -83 -255 -437 -52 -91 -116 -200 -141 -243 -26 -43 -47 -80 -47 -82 0 -3 -25 -46 -56 -97 -31 -51 -59 -99 -63 -108 -6 -15 -77 -136 -182 -313 -33 -53 -59 -100 -59 -102 0 -3 -21 -40 -46 -81 -26 -42 -70 -117 -99 -168 -123 -216 -243 -424 -263 -456 -12 -19 -22 -38 -22 -42 0 -5 496 -8 1103 -8 l1102 0 28 53 c16 28 55 102 87 162 61 116 121 229 315 590 170 316 262 489 309 578 22 42 45 76 50 74 5 -2 30 -43 56 -93 26 -49 72 -134 102 -189 30 -55 85 -156 122 -225 38 -69 74 -134 80 -145 7 -11 39 -69 71 -130 32 -60 66 -122 76 -136 10 -15 23 -39 29 -54 6 -16 35 -70 65 -121 30 -51 55 -97 55 -101 0 -4 16 -35 36 -68 20 -33 52 -90 71 -127 l34 -68 1071 0 1070 0 -35 63 c-20 34 -50 88 -69 119 -18 31 -60 105 -93 163 -33 58 -88 154 -122 213 -33 59 -87 152 -118 207 -83 144 -170 296 -234 407 -31 54 -83 145 -116 203 -33 58 -88 153 -122 211 -35 59 -63 108 -63 110 0 3 -57 103 -228 399 -41 72 -95 165 -119 208 -24 43 -61 108 -83 144 -22 36 -40 68 -40 72 0 4 -14 29 -31 56 -17 26 -59 98 -93 159 -34 61 -98 172 -141 246 -43 74 -88 153 -100 175 -12 22 -34 61 -49 87 l-27 48 34 57 c58 96 151 256 168 288 9 16 47 84 86 150 38 66 105 181 148 255 43 74 89 152 102 172 12 21 23 41 23 44 0 4 18 35 40 69 21 35 59 98 83 141 43 76 99 174 257 444 40 69 86 150 102 180 17 30 34 60 38 65 5 6 39 64 77 130 175 303 262 454 290 501 17 27 42 72 58 99 15 27 48 85 74 130 26 44 76 130 111 190 34 61 89 154 121 208 33 53 59 100 59 102 0 3 21 40 46 81 26 42 70 119 99 170 l54 94 -1105 0 c-607 0 -1104 -3 -1104 -8 0 -4 -21 -43 -46 -87 -25 -44 -71 -127 -102 -185 -31 -58 -68 -125 -84 -149 -15 -25 -28 -48 -28 -53 0 -4 -22 -45 -49 -90 -27 -46 -57 -101 -68 -123 -11 -22 -55 -103 -98 -180 -42 -77 -103 -187 -135 -245 -32 -58 -93 -168 -135 -245 -43 -77 -93 -168 -111 -203 -46 -85 -86 -154 -89 -150 -1 2 -23 41 -48 88 -24 47 -73 137 -107 200 -35 63 -91 167 -125 230 -35 63 -87 160 -117 215 -127 231 -183 334 -221 405 -22 41 -59 110 -83 152 -24 43 -44 80 -44 84 0 3 -15 32 -34 63 -18 31 -57 101 -86 156 -29 55 -57 106 -62 113 -8 9 -236 12 -1079 12 -588 0 -1069 -3 -1069 -6z"/>
 </g>

</svg>