<?xml version="1.0" encoding="UTF-8" ?>
<!DOCTYPE svg PUBLIC "-//W3C//DTD SVG 1.1//EN" "http://www.w3.org/Graphics/SVG/1.1/DTD/svg11.dtd">
<svg width="800pt" height="494pt" viewBox="0 0 800 494" version="1.1" xmlns="http://www.w3.org/2000/svg">
<g id="#dfdfdfdf">
<path fill="#dfdfdf" opacity="0.87" d=" M 6.48 0.00 L 794.36 0.00 L 795.79 0.47 C 791.90 1.23 787.94 1.00 784.01 1.00 C 528.34 1.01 272.66 1.00 16.99 1.00 C 13.05 0.99 9.07 1.26 5.19 0.46 L 6.48 0.00 Z" />
<path fill="#dfdfdf" opacity="0.87" d=" M 5.31 493.56 C 13.15 492.37 21.12 493.28 29.02 493.00 C 280.33 492.99 531.64 493.01 782.95 493.00 C 787.22 493.03 791.53 492.68 795.75 493.55 L 794.46 494.00 L 6.70 494.00 L 5.31 493.56 Z" />
</g>
<g id="#ffffffff">
</g>
<g id="#000000ff">
<path fill="#000000" opacity="1.00" d=" M 70.89 76.02 C 70.96 72.95 73.93 70.37 76.98 70.64 C 92.64 70.63 108.30 70.62 123.96 70.65 C 127.74 70.35 131.14 73.25 131.59 76.98 C 138.02 110.31 144.40 143.65 150.82 176.99 C 150.91 176.76 151.11 176.31 151.20 176.08 C 157.64 142.89 163.94 109.67 170.38 76.49 C 170.93 72.88 174.44 70.37 178.01 70.64 C 193.67 70.63 209.32 70.62 224.98 70.64 C 228.03 70.39 230.88 73.02 230.99 76.04 C 220.10 120.50 209.20 164.97 198.30 209.44 C 195.35 221.91 191.99 234.33 189.32 246.84 C 203.04 303.18 216.78 359.53 230.49 415.87 C 231.56 418.79 230.55 422.94 226.95 423.23 C 210.64 423.55 194.31 423.29 177.99 423.36 C 174.41 423.62 170.95 421.05 170.39 417.46 C 164.16 385.30 158.01 353.12 151.83 320.95 C 151.49 319.63 151.56 318.15 150.81 316.98 C 144.39 350.33 138.00 383.70 131.57 417.05 C 131.12 420.73 127.75 423.61 124.02 423.35 C 108.36 423.39 92.71 423.37 77.05 423.36 C 73.66 423.73 69.86 420.43 71.13 416.87 C 84.92 360.17 98.76 303.48 112.56 246.78 C 98.99 189.81 84.67 132.96 70.89 76.02 Z" />
<path fill="#000000" opacity="1.00" d=" M 305.17 71.31 C 306.67 70.62 308.35 70.61 309.97 70.62 C 324.61 70.66 339.26 70.59 353.90 70.65 C 357.94 70.33 360.74 74.30 360.41 78.05 C 360.46 190.70 360.42 303.36 360.43 416.01 C 360.87 419.46 358.77 423.38 354.91 423.30 C 339.30 423.45 323.68 423.35 308.07 423.35 C 304.42 423.70 301.23 420.54 301.61 416.88 C 301.52 304.25 301.60 191.62 301.57 78.99 C 301.46 76.08 302.28 72.64 305.17 71.31 Z" />
<path fill="#000000" opacity="1.00" d=" M 414.11 72.08 C 415.42 70.87 417.28 70.62 419.00 70.63 C 462.33 70.64 505.65 70.62 548.98 70.64 C 552.63 70.26 555.94 73.17 555.93 76.85 C 556.02 92.25 555.97 107.65 555.95 123.05 C 556.14 126.42 553.38 129.45 549.93 129.28 C 537.81 129.50 525.68 129.28 513.56 129.39 C 513.54 224.95 513.58 320.52 513.54 416.08 C 513.88 419.87 510.83 423.44 506.93 423.33 C 491.95 423.42 476.96 423.34 461.98 423.37 C 457.98 423.73 454.22 420.02 454.71 415.98 C 454.66 320.44 454.72 224.91 454.69 129.38 C 442.48 129.31 430.26 129.46 418.06 129.31 C 414.97 129.56 412.29 127.05 412.39 123.96 C 412.20 108.97 412.37 93.97 412.30 78.97 C 412.32 76.61 412.31 73.88 414.11 72.08 Z" />
<path fill="#000000" opacity="1.00" d=" M 607.89 77.04 C 607.51 73.94 609.50 70.47 612.94 70.66 C 649.94 70.61 686.95 70.62 723.96 70.66 C 727.50 70.43 730.51 73.55 730.25 77.08 C 730.38 91.39 730.26 105.70 730.31 120.00 C 730.24 122.37 730.53 125.02 729.04 127.04 C 727.69 128.96 725.14 129.33 722.96 129.35 C 704.20 129.43 685.44 129.28 666.68 129.42 C 666.71 153.71 666.66 178.00 666.71 202.29 C 682.83 202.34 698.96 202.29 715.08 202.32 C 717.61 202.33 720.62 202.70 722.12 205.00 C 723.34 206.76 723.20 208.97 723.25 211.01 C 723.21 225.33 723.29 239.65 723.21 253.97 C 723.47 257.54 720.65 260.86 717.04 261.00 C 700.26 261.15 683.47 261.00 666.69 261.07 C 666.69 295.58 666.69 330.09 666.69 364.60 C 685.78 364.71 704.87 364.53 723.95 364.69 C 727.04 364.48 730.24 366.71 730.20 370.01 C 730.44 385.31 730.26 400.62 730.29 415.92 C 730.66 419.64 727.93 423.54 723.94 423.34 C 686.98 423.39 650.01 423.39 613.05 423.34 C 609.59 423.55 607.63 420.02 607.90 416.96 C 607.87 303.65 607.89 190.34 607.89 77.04 Z" />
</g>
</svg>
