<?xml version="1.0" encoding="UTF-8" standalone="yes"?>
<svg xmlns="http://www.w3.org/2000/svg" xmlns:xlink="http://www.w3.org/1999/xlink" width="172px" height="106.66666666666666px" viewBox="0 0 129 80" version="1.1">
  <g id="surface1">
    <path style=" stroke:none;fill-rule:nonzero;fill:rgb(87.45098%,87.45098%,87.45098%);fill-opacity:0.870588;" d="M 1.042969 0 L 128.089844 0 L 128.320312 0.0742188 C 127.695312 0.199219 127.054688 0.160156 126.421875 0.160156 C 85.195312 0.164062 43.964844 0.160156 2.738281 0.160156 C 2.105469 0.160156 1.460938 0.203125 0.835938 0.0742188 Z M 1.042969 0 "/>
    <path style=" stroke:none;fill-rule:nonzero;fill:rgb(87.45098%,87.45098%,87.45098%);fill-opacity:0.870588;" d="M 0.855469 79.863281 C 2.121094 79.671875 3.40625 79.820312 4.679688 79.773438 C 45.203125 79.773438 85.726562 79.773438 126.25 79.773438 C 126.9375 79.777344 127.632812 79.722656 128.316406 79.863281 L 128.105469 79.933594 L 1.082031 79.933594 Z M 0.855469 79.863281 "/>
    <path style=" stroke:none;fill-rule:nonzero;fill:rgb(0%,0%,0%);fill-opacity:1;" d="M 11.429688 12.300781 C 11.441406 11.804688 11.921875 11.386719 12.414062 11.429688 C 14.9375 11.429688 17.464844 11.425781 19.988281 11.433594 C 20.597656 11.382812 21.144531 11.851562 21.21875 12.457031 C 22.253906 17.847656 23.285156 23.246094 24.320312 28.640625 C 24.335938 28.601562 24.367188 28.527344 24.382812 28.492188 C 25.417969 23.121094 26.433594 17.746094 27.472656 12.378906 C 27.5625 11.792969 28.128906 11.386719 28.703125 11.429688 C 31.230469 11.429688 33.753906 11.425781 36.277344 11.429688 C 36.769531 11.390625 37.230469 11.816406 37.246094 12.304688 C 35.492188 19.5 33.734375 26.695312 31.976562 33.890625 C 31.5 35.90625 30.957031 37.917969 30.527344 39.941406 C 32.738281 49.058594 34.957031 58.175781 37.167969 67.292969 C 37.339844 67.765625 37.175781 68.4375 36.59375 68.484375 C 33.964844 68.535156 31.332031 68.492188 28.699219 68.503906 C 28.125 68.546875 27.566406 68.132812 27.476562 67.550781 C 26.472656 62.347656 25.480469 57.140625 24.484375 51.933594 C 24.429688 51.71875 24.4375 51.480469 24.316406 51.292969 C 23.28125 56.6875 22.253906 62.085938 21.214844 67.484375 C 21.144531 68.078125 20.601562 68.546875 20 68.503906 C 17.472656 68.507812 14.949219 68.507812 12.425781 68.503906 C 11.878906 68.566406 11.265625 68.03125 11.46875 67.453125 C 13.691406 58.28125 15.925781 49.105469 18.148438 39.933594 C 15.960938 30.714844 13.652344 21.515625 11.429688 12.300781 Z M 11.429688 12.300781 "/>
    <path style=" stroke:none;fill-rule:nonzero;fill:rgb(0%,0%,0%);fill-opacity:1;" d="M 49.207031 11.539062 C 49.449219 11.425781 49.722656 11.425781 49.984375 11.425781 C 52.34375 11.433594 54.707031 11.421875 57.066406 11.433594 C 57.71875 11.378906 58.167969 12.023438 58.117188 12.628906 C 58.125 30.859375 58.117188 49.085938 58.121094 67.316406 C 58.191406 67.875 57.851562 68.507812 57.230469 68.496094 C 54.710938 68.519531 52.195312 68.503906 49.675781 68.503906 C 49.085938 68.558594 48.574219 68.046875 48.632812 67.457031 C 48.621094 49.230469 48.632812 31.007812 48.628906 12.78125 C 48.609375 12.3125 48.742188 11.753906 49.207031 11.539062 Z M 49.207031 11.539062 "/>
    <path style=" stroke:none;fill-rule:nonzero;fill:rgb(0%,0%,0%);fill-opacity:1;" d="M 66.773438 11.664062 C 66.988281 11.46875 67.285156 11.425781 67.5625 11.429688 C 74.550781 11.429688 81.535156 11.425781 88.523438 11.429688 C 89.113281 11.367188 89.644531 11.839844 89.644531 12.433594 C 89.660156 14.925781 89.648438 17.417969 89.648438 19.910156 C 89.675781 20.457031 89.234375 20.945312 88.675781 20.917969 C 86.722656 20.953125 84.765625 20.917969 82.8125 20.9375 C 82.808594 36.398438 82.816406 51.863281 82.808594 67.328125 C 82.863281 67.941406 82.371094 68.519531 81.742188 68.5 C 79.328125 68.515625 76.910156 68.5 74.496094 68.507812 C 73.847656 68.566406 73.242188 67.964844 73.320312 67.3125 C 73.3125 51.851562 73.324219 36.394531 73.320312 20.933594 C 71.351562 20.925781 69.378906 20.949219 67.414062 20.925781 C 66.914062 20.964844 66.480469 20.558594 66.496094 20.058594 C 66.46875 17.632812 66.496094 15.207031 66.484375 12.777344 C 66.488281 12.394531 66.484375 11.953125 66.773438 11.664062 Z M 66.773438 11.664062 "/>
    <path style=" stroke:none;fill-rule:nonzero;fill:rgb(0%,0%,0%);fill-opacity:1;" d="M 98.023438 12.464844 C 97.960938 11.964844 98.28125 11.402344 98.835938 11.433594 C 104.804688 11.425781 110.769531 11.425781 116.738281 11.433594 C 117.308594 11.394531 117.792969 11.902344 117.753906 12.472656 C 117.773438 14.789062 117.753906 17.105469 117.761719 19.417969 C 117.75 19.800781 117.796875 20.230469 117.558594 20.554688 C 117.339844 20.867188 116.929688 20.925781 116.578125 20.929688 C 113.550781 20.945312 110.527344 20.917969 107.503906 20.941406 C 107.507812 24.871094 107.5 28.800781 107.507812 32.734375 C 110.105469 32.742188 112.707031 32.734375 115.308594 32.738281 C 115.714844 32.738281 116.199219 32.800781 116.441406 33.171875 C 116.636719 33.457031 116.617188 33.8125 116.625 34.144531 C 116.617188 36.460938 116.628906 38.777344 116.617188 41.09375 C 116.660156 41.671875 116.203125 42.210938 115.621094 42.234375 C 112.917969 42.257812 110.210938 42.234375 107.503906 42.246094 C 107.503906 47.828125 107.503906 53.414062 107.503906 58.996094 C 110.582031 59.015625 113.660156 58.984375 116.738281 59.011719 C 117.234375 58.976562 117.75 59.339844 117.746094 59.871094 C 117.785156 62.347656 117.753906 64.824219 117.757812 67.300781 C 117.820312 67.902344 117.378906 68.535156 116.734375 68.5 C 110.777344 68.507812 104.8125 68.507812 98.855469 68.5 C 98.296875 68.535156 97.980469 67.964844 98.023438 67.46875 C 98.019531 49.132812 98.023438 30.800781 98.023438 12.464844 Z M 98.023438 12.464844 "/>
  </g>
</svg>