<?xml version="1.0" encoding="UTF-8" standalone="yes"?>
<svg xmlns="http://www.w3.org/2000/svg" xmlns:xlink="http://www.w3.org/1999/xlink" width="106.66666666666666px" height="106.66666666666666px" viewBox="0 0 80 80" version="1.1">
  <g id="surface1">
    <path style=" stroke:none;fill-rule:evenodd;fill:rgb(93.333333%,43.921569%,0.784314%);fill-opacity:1;" d="M 30.5625 35.757812 L 33.882812 35.757812 C 36.394531 35.757812 36.949219 37.503906 36.949219 40.003906 L 36.949219 40.046875 C 36.949219 42.558594 36.355469 44.289062 33.839844 44.289062 L 30.5625 44.289062 Z M 27.710938 46.601562 Z M 14.640625 25.359375 C 20.214844 25.359375 25.066406 28.476562 27.539062 33.0625 C 27.582031 33.105469 27.609375 33.144531 27.625 33.183594 C 27.671875 33.269531 27.714844 33.359375 27.757812 33.445312 C 30.109375 33.445312 33.917969 33.257812 35.796875 33.671875 C 36.867188 33.910156 37.847656 34.484375 38.4375 35.195312 C 38.761719 35.585938 39.015625 35.972656 39.226562 36.464844 C 39.332031 36.722656 39.671875 37.992188 39.722656 38.070312 C 39.722656 34.902344 41.246094 33.445312 44.429688 33.445312 L 50.101562 33.445312 L 50.101562 35.757812 L 44.890625 35.757812 C 42.769531 35.757812 42.496094 37.003906 42.496094 39.121094 L 49.09375 39.121094 L 49.09375 41.390625 L 42.496094 41.390625 L 42.496094 46.558594 L 39.722656 46.558594 L 39.722656 42.273438 C 39.566406 42.519531 39.339844 43.558594 39.058594 44.046875 C 38.75 44.578125 38.398438 45.019531 37.929688 45.398438 C 36.996094 46.152344 35.847656 46.601562 34.175781 46.601562 L 27.714844 46.601562 C 25.214844 51.507812 20.160156 54.640625 14.640625 54.640625 C 6.554688 54.640625 0 48.085938 0 40 C 0 31.914062 6.554688 25.359375 14.640625 25.359375 Z M 14.640625 25.359375 "/>
    <path style=" stroke:none;fill-rule:evenodd;fill:rgb(100%,100%,100%);fill-opacity:1;" d="M 16.625 46.601562 L 16.625 43.199219 C 16.625 36.101562 25.1875 40.738281 25.1875 37.574219 L 25.1875 37.238281 C 25.1875 36.160156 24.191406 35.769531 23.132812 35.769531 L 16.75 35.769531 L 16.75 33.460938 L 24.347656 33.460938 C 26.953125 33.460938 28.042969 35.207031 28.042969 37.46875 C 28.042969 39.773438 26.542969 41.050781 24.457031 41.335938 C 22.003906 41.667969 19.480469 40.511719 19.480469 43.578125 L 19.480469 44.335938 L 27.707031 44.335938 L 27.710938 46.601562 Z M 16.625 46.601562 "/>
  </g>
</svg>