<?xml version="1.0" encoding="UTF-8" standalone="no"?>
<!-- Created with Inkscape (http://www.inkscape.org/) -->

<svg
   xmlns:dc="http://purl.org/dc/elements/1.1/"
   xmlns:cc="http://creativecommons.org/ns#"
   xmlns:rdf="http://www.w3.org/1999/02/22-rdf-syntax-ns#"
   xmlns:svg="http://www.w3.org/2000/svg"
   xmlns="http://www.w3.org/2000/svg"
   xmlns:inkscape="http://www.inkscape.org/namespaces/inkscape"
   version="1.1"
   width="1488.1875"
   height="1052.3625"
   id="svg2"
   xml:space="preserve"><metadata
     id="metadata8"><rdf:RDF><cc:Work
         rdf:about=""><dc:format>image/svg+xml</dc:format><dc:type
           rdf:resource="http://purl.org/dc/dcmitype/StillImage" /></cc:Work></rdf:RDF></metadata><defs
     id="defs6"><clipPath
       id="clipPath18"><path
         d="m 0,841.89 1190.55,0 L 1190.55,0 0,0 0,841.89 z"
         inkscape:connector-curvature="0"
         id="path20" /></clipPath></defs><g
     transform="matrix(1.25,0,0,-1.25,0,1052.3625)"
     id="g10"><path
       d="m 515.449,350.694 -140.536,0 0,140.539 140.536,0 0,-140.539 z"
       inkscape:connector-curvature="0"
       id="path12"
       style="fill:#ffcc2a;fill-opacity:1;fill-rule:nonzero;stroke:none" /><g
       id="g14"><g
         clip-path="url(#clipPath18)"
         id="g16"><g
           transform="translate(437.7227,469.0737)"
           id="g22"><path
             d="m 0,0 c -5.076,-1.563 -9.728,-4.335 -13.832,-8.23 -9.863,-9.374 -9.886,-22.235 -9.839,-24.057 l 21.758,-10e-4 -9.675,7.151 10e-4,0.001 c 0.16,0.614 1.721,6.155 7.656,10.862 5.813,4.613 12.836,5.214 13.865,5.278 l 0,10.455 C 6.587,1.496 3.248,1.005 0,0"
             inkscape:connector-curvature="0"
             id="path24"
             style="fill:#373535;fill-opacity:1;fill-rule:nonzero;stroke:none" /></g><g
           transform="translate(444.1792,390.2109)"
           id="g26"><path
             d="m 0,0 -19.802,-10.711 46.094,0 8.795,-10.309 0,21.02 L 0,0 z"
             inkscape:connector-curvature="0"
             id="path28"
             style="fill:#373535;fill-opacity:1;fill-rule:nonzero;stroke:none" /></g><g
           transform="translate(455.6387,427.2871)"
           id="g30"><path
             d="m 0,0 -15.718,-12.166 c -11.39,-8.667 -18.214,-18.007 -19.259,-19.565 -1.867,-2.79 -4.387,-7.024 -6.181,-11.737 -1.973,-5.201 -3.129,-10.249 -3.258,-14.265 l 13.155,9.946 c 0.167,0.666 1.805,6.794 7.817,13.915 6.32,7.488 11.298,11.184 15.3,14.156 0.892,0.664 1.742,1.291 2.552,1.926 0.611,0.474 1.541,1.141 2.613,1.91 2.754,1.984 6.682,4.818 9.89,7.723 5.155,4.243 8.443,10.643 8.443,17.808 0,12.78 -10.451,23.14 -23.336,23.14 l 0,-10.655 c 6.95,0 12.586,-5.592 12.586,-12.485 C 4.604,7.157 3.859,4.837 2.587,2.887 1.966,2.026 1.13,1.081 0,0"
             inkscape:connector-curvature="0"
             id="path32"
             style="fill:#373535;fill-opacity:1;fill-rule:nonzero;stroke:none" /></g><g
           transform="translate(551.6318,398.2803)"
           id="g34"><path
             d="m 0,0 32.364,44.194 -30.996,0 0,13.983 52.606,0 0,-12.221 -31.387,-43.22 31.581,0 0,-14.273 L 0,-11.537 0,0 z"
             inkscape:connector-curvature="0"
             id="path36"
             style="fill:#ffcc2a;fill-opacity:1;fill-rule:nonzero;stroke:none" /></g><g
           transform="translate(644.6201,417.835)"
           id="g38"><path
             d="m 0,0 0,1.663 c 0,5.378 -3.619,7.822 -7.921,7.822 -4.302,0 -8.211,-2.543 -8.211,-8.115 L -16.132,0 0,0 z m -32.562,-11.146 0,9.486 c 0,15.643 12.323,23.073 25.032,23.073 11.734,0 22.783,-6.942 22.783,-20.923 l 0,-9.875 -31.385,0 0,-2.151 c 0,-5.77 5.573,-8.411 10.853,-8.411 4.498,0 10.852,2.445 13.394,4.694 l 6.16,-9.094 c -5.281,-5.378 -13.2,-8.017 -21.607,-8.017 -12.907,0 -25.23,6.259 -25.23,21.218"
             inkscape:connector-curvature="0"
             id="path40"
             style="fill:#ffcc2a;fill-opacity:1;fill-rule:nonzero;stroke:none" /></g><g
           transform="translate(702.2129,405.9072)"
           id="g42"><path
             d="m 0,0 0,12.613 c 0,5.377 -3.815,8.213 -8.41,8.213 -4.108,0 -8.701,-2.249 -8.701,-9.289 l 0,-11.832 c 0,-5.67 4.593,-8.211 8.895,-8.211 C -4.01,-8.506 0,-5.965 0,0 m -17.212,-14.374 -0.29,0 0,-4.79 -15.744,0 0,69.714 16.135,0 0,-24.249 0.194,0 c 3.717,4.889 9.192,7.04 14.081,7.04 11.537,0 19.065,-7.137 19.065,-19.066 l 0,-15.547 c 0,-11.928 -9.484,-19.165 -20.727,-19.165 -4.987,0 -9.777,2.348 -12.714,6.063"
             inkscape:connector-curvature="0"
             id="path44"
             style="fill:#ffcc2a;fill-opacity:1;fill-rule:nonzero;stroke:none" /></g><g
           transform="translate(727.1465,438.1738)"
           id="g46"><path
             d="m 0,0 15.84,0 0,-8.508 0.096,0 c 2.738,4.988 9.289,9.387 15.645,9.387 1.468,0 3.521,-0.098 5.085,-0.489 l 0,-13.884 c -2.445,0.391 -5.379,0.587 -6.844,0.587 -6.749,0 -13.688,-2.836 -13.688,-11.734 l 0,-26.79 L 0,-51.431 0,0 z"
             inkscape:connector-curvature="0"
             id="path48"
             style="fill:#ffcc2a;fill-opacity:1;fill-rule:nonzero;stroke:none" /></g><g
           transform="translate(799.2051,405.418)"
           id="g50"><path
             d="m 0,0 0,2.935 -7.723,0 c -4.693,0 -8.115,-1.371 -8.115,-5.575 0,-3.324 2.15,-5.573 7.14,-5.573 C -2.736,-8.213 0,-4.889 0,0 m -31.971,-4.692 c 0,12.125 12.71,16.621 23.075,16.621 l 8.896,0 0,4.009 c 0,4.205 -2.834,6.453 -8.018,6.453 -5.18,0 -7.624,-2.445 -7.624,-5.183 l 0,-1.466 -14.374,0 0,1.857 c 0,11.147 11.148,16.231 22.879,16.231 11.832,0 23.273,-4.692 23.273,-17.697 l 0,-23.467 c 0,-3.909 0.488,-10.364 0.879,-11.341 l -15.351,0 c -0.099,0.391 -0.491,5.377 -0.585,5.768 l -0.392,0 c -4.304,-5.768 -10.462,-6.846 -15.646,-6.846 -9.873,0 -17.012,5.38 -17.012,15.061"
             inkscape:connector-curvature="0"
             id="path52"
             style="fill:#ffcc2a;fill-opacity:1;fill-rule:nonzero;stroke:none" /></g></g></g></g></svg>