<?xml version="1.0" encoding="utf-8"?>
<!-- Generator: Adobe Illustrator 16.0.0, SVG Export Plug-In . SVG Version: 6.00 Build 0)  -->
<!DOCTYPE svg PUBLIC "-//W3C//DTD SVG 1.1 Tiny//EN" "http://www.w3.org/Graphics/SVG/1.1/DTD/svg11-tiny.dtd">
<svg version="1.1" baseProfile="tiny" id="Layer_1" xmlns="http://www.w3.org/2000/svg" xmlns:xlink="http://www.w3.org/1999/xlink"
	 x="0px" y="0px" width="441.307px" height="140.539px" viewBox="0 0 441.307 140.539" xml:space="preserve">
<rect fill="#FFC501" width="140.536" height="140.539"/>
<g>
	<path fill="#231F20" d="M62.81,22.16c-5.076,1.563-9.728,4.335-13.832,8.23c-9.863,9.375-9.886,22.235-9.839,24.057l21.758,0.001
		l-9.675-7.151l0.001-0.001c0.16-0.613,1.721-6.155,7.656-10.862c5.813-4.613,12.836-5.214,13.865-5.278V20.7
		C69.397,20.664,66.058,21.154,62.81,22.16z"/>
	<polygon fill="#231F20" points="69.266,101.022 49.464,111.733 95.559,111.733 104.354,122.042 104.354,101.022 	"/>
	<path fill="#231F20" d="M80.726,63.946L65.008,76.112c-11.391,8.667-18.214,18.007-19.259,19.565
		c-1.867,2.789-4.387,7.023-6.182,11.736c-1.973,5.201-3.128,10.249-3.258,14.266l13.155-9.946
		c0.167-0.666,1.806-6.794,7.817-13.915c6.32-7.488,11.298-11.184,15.3-14.156c0.892-0.664,1.742-1.291,2.552-1.926
		c0.61-0.474,1.541-1.141,2.612-1.91c2.754-1.984,6.682-4.818,9.89-7.723c5.156-4.243,8.444-10.644,8.444-17.809
		c0-12.779-10.451-23.14-23.337-23.14V41.81c6.951,0,12.586,5.592,12.586,12.485c0,2.494-0.745,4.814-2.017,6.765
		C82.691,61.92,81.855,62.865,80.726,63.946z"/>
</g>
<g>
	<path fill="#FFC501" d="M176.719,92.953l32.364-44.194h-30.996V34.776h52.605v12.222l-31.387,43.219h31.581v14.273h-54.168V92.953z
		"/>
	<path fill="#FFC501" d="M237.146,84.545v-9.486c0-15.643,12.322-23.073,25.031-23.073c11.734,0,22.783,6.942,22.783,20.923v9.875
		h-31.385v2.151c0,5.77,5.573,8.411,10.853,8.411c4.498,0,10.853-2.445,13.395-4.694l6.16,9.094
		c-5.281,5.378-13.2,8.018-21.607,8.018C249.468,105.763,237.146,99.504,237.146,84.545z M269.707,73.398v-1.663
		c0-5.377-3.619-7.822-7.921-7.822s-8.211,2.542-8.211,8.115v1.37H269.707z"/>
	<path fill="#FFC501" d="M310.088,99.7h-0.29v4.79h-15.744V34.776h16.135v24.249h0.194c3.717-4.889,9.192-7.04,14.081-7.04
		c11.537,0,19.065,7.137,19.065,19.066v15.547c0,11.928-9.484,19.164-20.728,19.164C317.814,105.763,313.024,103.415,310.088,99.7z
		 M327.3,85.326V72.713c0-5.377-3.815-8.213-8.41-8.213c-4.107,0-8.701,2.249-8.701,9.289v11.832c0,5.67,4.594,8.211,8.896,8.211
		C323.29,93.832,327.3,91.291,327.3,85.326z"/>
	<path fill="#FFC501" d="M352.233,53.06h15.84v8.508h0.096c2.738-4.988,9.289-9.387,15.646-9.387c1.468,0,3.521,0.098,5.085,0.489
		v13.883c-2.445-0.391-5.379-0.587-6.844-0.587c-6.749,0-13.688,2.836-13.688,11.734v26.79h-16.134V53.06z"/>
	<path fill="#FFC501" d="M392.321,90.508c0-12.125,12.71-16.621,23.074-16.621h8.896v-4.009c0-4.205-2.834-6.453-8.018-6.453
		c-5.181,0-7.624,2.444-7.624,5.182v1.467h-14.374v-1.857c0-11.147,11.147-16.231,22.879-16.231
		c11.832,0,23.272,4.692,23.272,17.697v23.467c0,3.909,0.488,10.364,0.879,11.341h-15.351c-0.099-0.391-0.491-5.377-0.585-5.768
		h-0.393c-4.304,5.768-10.462,6.846-15.646,6.846C399.46,105.568,392.321,100.188,392.321,90.508z M424.292,85.815v-2.935h-7.723
		c-4.693,0-8.115,1.37-8.115,5.574c0,3.324,2.15,5.573,7.14,5.573C421.556,94.028,424.292,90.704,424.292,85.815z"/>
</g>
</svg>
